600 0 2 0           
24 FBMach with ACIS - 6.0.3 13 ACIS 6.0.3 NT 24 Tue May 22 15:35:01 2001 
1 9.9999999999999995e-007 1e-010 
body $2 $3 $-1 $4 #
bdycol-kcp $-1 1 13 $5 $6 $7 $8 $9 $10 $11 $12 $13 $14 $15 $16 $17 #
model_id-kcp-attrib $-1 $-1 $-1 $0 1 990560100 60 1010565121 1 #
lump $-1 $-1 $18 $0 #
transform $-1 1 0 0 0 1 0 0 0 1 0 0 0 1 no_rotate no_reflect no_shear #
body $19 $20 $-1 $21 #
body $22 $23 $-1 $24 #
body $25 $26 $-1 $27 #
body $28 $29 $-1 $30 #
body $31 $32 $-1 $33 #
body $34 $35 $-1 $36 #
body $37 $38 $-1 $39 #
body $40 $41 $-1 $42 #
body $43 $44 $-1 $45 #
body $46 $47 $-1 $48 #
body $49 $50 $-1 $51 #
body $52 $53 $-1 $54 #
body $55 $56 $-1 $57 #
shell $-1 $-1 $-1 $58 $-1 $3 #
model_id-kcp-attrib $-1 $-1 $-1 $5 1 990560100 60 1010565122 1 #
lump $-1 $-1 $59 $5 #
transform $-1 1 0 0 0 1 0 0 0 1 -1 0 7.1859999999999999 1 no_rotate no_reflect no_shear #
rgb_color-st-attrib $-1 $60 $-1 $6 0.5 1 1 #
lump $-1 $-1 $61 $6 #
transform $-1 1 0 0 0 1 0 0 0 1 -4.25 0 7.1859999999999999 1 no_rotate no_reflect no_shear #
rgb_color-st-attrib $-1 $62 $-1 $7 0.5 1 1 #
lump $-1 $-1 $63 $7 #
transform $-1 1 0 0 0 1 0 0 0 1 2.6600000000000001 0 7.0609999999999999 1 no_rotate no_reflect no_shear #
rgb_color-st-attrib $-1 $64 $-1 $8 0.5 1 1 #
lump $-1 $-1 $65 $8 #
transform $-1 1 0 0 0 1 0 0 0 1 2.25 0 7.1859999999999999 1 no_rotate no_reflect no_shear #
rgb_color-st-attrib $-1 $66 $-1 $9 0.5 1 1 #
lump $-1 $-1 $67 $9 #
transform $-1 1 0 0 0 1 0 0 0 1 0 0 7.1859999999999999 1 no_rotate no_reflect no_shear #
rgb_color-st-attrib $-1 $68 $-1 $10 0.5 1 1 #
lump $-1 $-1 $69 $10 #
transform $-1 1 0 0 0 1 0 0 0 1 1.4099999999999999 0 7.1859999999999999 1 no_rotate no_reflect no_shear #
rgb_color-st-attrib $-1 $70 $-1 $11 0.5 1 1 #
lump $-1 $-1 $71 $11 #
transform $-1 1 0 0 0 1 0 0 0 1 1.4099999999999999 0.40600000000000003 7.0609999999999999 1 no_rotate no_reflect no_shear #
rgb_color-st-attrib $-1 $72 $-1 $12 0.5 1 1 #
lump $-1 $-1 $73 $12 #
transform $-1 1 0 0 0 1 0 0 0 1 1.4099999999999999 -0.40600000000000003 7.0609999999999999 1 no_rotate no_reflect no_shear #
rgb_color-st-attrib $-1 $74 $-1 $13 0.5 1 1 #
lump $-1 $-1 $75 $13 #
transform $-1 1 0 0 0 1 0 0 0 1 2.6600000000000001 0 7.3109999999999999 1 no_rotate no_reflect no_shear #
rgb_color-st-attrib $-1 $76 $-1 $14 0.5 1 1 #
lump $-1 $-1 $77 $14 #
transform $-1 1 0 0 0 1 0 0 0 1 1.4099999999999999 0.40600000000000003 7.3109999999999999 1 no_rotate no_reflect no_shear #
rgb_color-st-attrib $-1 $78 $-1 $15 0.5 1 1 #
lump $-1 $-1 $79 $15 #
transform $-1 -1 0 -1.2246063538223773e-016 0 1 0 1.2246063538223773e-016 0 -1 1.4099999999999999 -0.40600000000000003 7.3109999999999999 1 rotate no_reflect no_shear #
rgb_color-st-attrib $-1 $80 $-1 $16 0.5 1 1 #
lump $-1 $-1 $81 $16 #
transform $-1 1 0 0 0 1 0 0 0 1 -1 0 7.1859999999999999 1 no_rotate no_reflect no_shear #
rgb_color-st-attrib $-1 $82 $-1 $17 0.5 1 1 #
lump $-1 $-1 $83 $17 #
transform $-1 1 0 0 0 1 0 0 0 1 0 0 0 1 no_rotate no_reflect no_shear #
face $84 $85 $86 $18 $-1 $87 forward single #
shell $-1 $-1 $-1 $88 $-1 $20 #
model_id-kcp-attrib $-1 $-1 $22 $6 1 990560100 260 1006895107 1 #
shell $-1 $-1 $-1 $89 $-1 $23 #
model_id-kcp-attrib $-1 $-1 $25 $7 1 990560100 260 1006895108 1 #
shell $-1 $-1 $-1 $90 $-1 $26 #
model_id-kcp-attrib $-1 $-1 $28 $8 1 990560100 260 1006895109 1 #
shell $-1 $-1 $-1 $91 $-1 $29 #
model_id-kcp-attrib $-1 $-1 $31 $9 1 990560100 260 1006895110 1 #
shell $-1 $-1 $-1 $92 $-1 $32 #
model_id-kcp-attrib $-1 $-1 $34 $10 1 990560100 270 1007550471 1 #
shell $-1 $-1 $-1 $93 $-1 $35 #
model_id-kcp-attrib $-1 $-1 $37 $11 1 990560100 270 1007550472 1 #
shell $-1 $-1 $-1 $94 $-1 $38 #
model_id-kcp-attrib $-1 $-1 $40 $12 1 990560100 270 1007550473 1 #
shell $-1 $-1 $-1 $95 $-1 $41 #
model_id-kcp-attrib $-1 $-1 $43 $13 1 990560100 270 1007550474 1 #
shell $-1 $-1 $-1 $96 $-1 $44 #
model_id-kcp-attrib $-1 $-1 $46 $14 1 990560100 280 1008205835 1 #
shell $-1 $-1 $-1 $97 $-1 $47 #
model_id-kcp-attrib $-1 $-1 $49 $15 1 990560100 280 1008205836 1 #
shell $-1 $-1 $-1 $98 $-1 $50 #
model_id-kcp-attrib $-1 $-1 $52 $16 1 990560100 560 1009778701 1 #
shell $-1 $-1 $-1 $99 $-1 $53 #
model_id-kcp-attrib $-1 $-1 $55 $17 1 990560100 610 1013055502 1 #
shell $-1 $-1 $-1 $100 $-1 $56 #
model_id-kcp-attrib $-1 $101 $-1 $58 1 990560100 60 1010565121 25 #
face $102 $103 $104 $18 $-1 $105 reversed single #
loop $106 $107 $108 $58 #
plane-surface $-1 0 0 7.4359999999999999 0 0 1 1 0 0 forward_v I I I I #
face $109 $110 $111 $59 $-1 $112 forward single #
face $-1 $113 $114 $61 $-1 $115 forward single #
face $-1 $116 $117 $63 $-1 $118 forward single #
face $-1 $119 $120 $65 $-1 $121 forward single #
face $-1 $122 $123 $67 $-1 $124 forward single #
face $-1 $125 $126 $69 $-1 $127 forward single #
face $-1 $128 $129 $71 $-1 $130 forward single #
face $-1 $131 $132 $73 $-1 $133 forward single #
face $-1 $134 $135 $75 $-1 $136 forward single #
face $-1 $137 $138 $77 $-1 $139 forward single #
face $-1 $140 $141 $79 $-1 $142 forward single #
face $-1 $143 $144 $81 $-1 $145 reversed single #
face $-1 $146 $147 $83 $-1 $148 forward single #
model_id-kcp-attrib $-1 $-1 $84 $58 1 990560100 60 1010565121 2 #
model_id-kcp-attrib $-1 $149 $-1 $85 1 990560100 60 1010565121 71 #
face $150 $151 $152 $18 $-1 $153 reversed single #
loop $154 $155 $156 $85 #
plane-surface $-1 0 0 6.9359999999999999 0 0 1 1 0 0 forward_v I I I I #
model_id-kcp-attrib $-1 $-1 $-1 $86 1 990560100 60 1010565121 33 #
loop $157 $158 $159 $58 #
coedge $-1 $108 $108 $160 $161 reversed $86 $-1 #
model_id-kcp-attrib $-1 $-1 $-1 $88 1 990560100 60 1010565122 2 #
face $162 $163 $164 $59 $-1 $165 reversed single #
loop $-1 $-1 $166 $88 #
plane-surface $-1 0 0 0.25 0 0 1 1 0 0 forward_v I I I I #
face $-1 $167 $168 $61 $-1 $169 forward single #
loop $-1 $170 $171 $89 #
cone-surface $-1 0 0 0 0 0 1 0.4375 0 0 1 I I 0 1 0.4375 forward I I I I #
face $-1 $172 $173 $63 $-1 $174 forward single #
loop $-1 $175 $176 $90 #
cone-surface $-1 0 0 0 0 0 1 0.1285 0 0 1 I I 0 1 0.1285 forward I I I I #
face $-1 $177 $178 $65 $-1 $179 forward single #
loop $-1 $180 $181 $91 #
cone-surface $-1 0 0 0 0 0 1 0.0625 0 0 1 I I 0 1 0.0625 forward I I I I #
face $-1 $182 $183 $67 $-1 $184 forward single #
loop $-1 $185 $186 $92 #
cone-surface $-1 0 0 0 0 0 1 0.2185 0 0 1 I I 0 1 0.2185 forward I I I I #
face $-1 $187 $188 $69 $-1 $189 forward single #
loop $-1 $190 $191 $93 #
cone-surface $-1 0 0 0 0 0 1 0.0625 0 0 1 I I 0 1 0.0625 forward I I I I #
face $-1 $192 $193 $71 $-1 $194 forward single #
loop $-1 $195 $196 $94 #
cone-surface $-1 0 0 0 0 0 1 0.1285 0 0 1 I I 0 1 0.1285 forward I I I I #
face $-1 $197 $198 $73 $-1 $199 forward single #
loop $-1 $200 $201 $95 #
cone-surface $-1 0 0 0 0 0 1 0.1285 0 0 1 I I 0 1 0.1285 forward I I I I #
face $-1 $202 $203 $75 $-1 $204 forward single #
loop $-1 $205 $206 $96 #
cone-surface $-1 0 0 0 0 0 1 0.203125 0 0 1 I I 0 1 0.203125 forward I I I I #
face $-1 $207 $208 $77 $-1 $209 forward single #
loop $-1 $210 $211 $97 #
cone-surface $-1 0 0 0 0 0 1 0.203125 0 0 1 I I 0 1 0.203125 forward I I I I #
face $-1 $212 $213 $79 $-1 $214 forward single #
loop $-1 $215 $216 $98 #
cone-surface $-1 0 0 0 0 0 1 0.203125 0 0 1 I I 0 1 0.203125 forward I I I I #
face $-1 $217 $218 $81 $-1 $145 reversed single #
loop $-1 $-1 $219 $99 #
cone-surface $-1 -3.25 0 0.25 0 0 1 0 -0.75 0 1 I I 0 1 0.75 forward I I I I #
face $-1 $220 $221 $83 $-1 $222 forward single #
loop $-1 $-1 $223 $100 #
cone-surface $-1 -1.27278837048169 0.26047226650039601 7.4359999999999999 0 0 -1 -0.043412044416734998 0.24620193825305201 0 1 I I 0 1 0.25000000000000039 forward I I I I #
model_id-kcp-attrib $-1 $224 $102 $85 1 990560100 60 1010565121 64 #
model_id-kcp-attrib $-1 $-1 $-1 $103 1 990560100 60 1010565121 4 #
face $225 $226 $227 $18 $-1 $228 reversed single #
loop $229 $230 $231 $103 #
cone-surface $-1 -4.25 0 7.4359999999999999 0 0 1 0.4375 0 0 1 I I 0 1 0.4375 forward I I I I #
model_id-kcp-attrib $-1 $-1 $-1 $104 1 990560100 60 1010565121 32 #
loop $232 $233 $234 $85 #
coedge $-1 $156 $156 $231 $235 forward $104 $-1 #
model_id-kcp-attrib $-1 $-1 $-1 $107 1 990560100 60 1010565121 47 #
loop $236 $237 $238 $58 #
coedge $-1 $159 $159 $239 $240 reversed $107 $-1 #
coedge $-1 $160 $160 $108 $161 forward $230 $-1 #
edge $241 $242 0 $242 6.2831853071795862 $160 $243 forward 7 unknown #
model_id-kcp-attrib $-1 $-1 $-1 $110 1 990560100 60 1010565122 3 #
face $244 $245 $246 $59 $-1 $247 reversed single #
loop $-1 $-1 $248 $110 #
plane-surface $-1 0 0 -0.25 0 0 1 1 0 0 forward_v I I I I #
coedge $-1 $249 $250 $251 $252 forward $111 $-1 #
face $-1 $-1 $253 $61 $-1 $254 forward single #
loop $-1 $-1 $255 $113 #
plane-surface $-1 0 0 -0.25 0 0 -1 -1 0 0 forward_v I I I I #
loop $-1 $-1 $256 $89 #
coedge $-1 $171 $171 $255 $257 reversed $114 $-1 #
face $-1 $-1 $258 $63 $-1 $259 forward single #
loop $-1 $-1 $260 $116 #
plane-surface $-1 0 0 -0.125 0 0 -1 -1 0 0 forward_v I I I I #
loop $-1 $-1 $261 $90 #
coedge $-1 $176 $176 $260 $262 reversed $117 $-1 #
face $-1 $-1 $263 $65 $-1 $264 forward single #
loop $-1 $-1 $265 $119 #
plane-surface $-1 0 0 -0.25 0 0 -1 -1 0 0 forward_v I I I I #
loop $-1 $-1 $266 $91 #
coedge $-1 $181 $181 $265 $267 reversed $120 $-1 #
face $-1 $-1 $268 $67 $-1 $269 forward single #
loop $-1 $-1 $270 $122 #
plane-surface $-1 0 0 -0.25 0 0 -1 -1 0 0 forward_v I I I I #
loop $-1 $-1 $271 $92 #
coedge $-1 $186 $186 $270 $272 reversed $123 $-1 #
face $-1 $-1 $273 $69 $-1 $274 forward single #
loop $-1 $-1 $275 $125 #
plane-surface $-1 0 0 -0.25 0 0 -1 -1 0 0 forward_v I I I I #
loop $-1 $-1 $276 $93 #
coedge $-1 $191 $191 $275 $277 reversed $126 $-1 #
face $-1 $-1 $278 $71 $-1 $279 forward single #
loop $-1 $-1 $280 $128 #
plane-surface $-1 0 0 -0.125 0 0 -1 -1 0 0 forward_v I I I I #
loop $-1 $-1 $281 $94 #
coedge $-1 $196 $196 $280 $282 reversed $129 $-1 #
face $-1 $-1 $283 $73 $-1 $284 forward single #
loop $-1 $-1 $285 $131 #
plane-surface $-1 0 0 -0.125 0 0 -1 -1 0 0 forward_v I I I I #
loop $-1 $-1 $286 $95 #
coedge $-1 $201 $201 $285 $287 reversed $132 $-1 #
face $-1 $-1 $288 $75 $-1 $289 forward single #
loop $-1 $-1 $290 $134 #
plane-surface $-1 0 0 -0.125 0 0 -1 -1 0 0 forward_v I I I I #
loop $-1 $-1 $291 $96 #
coedge $-1 $206 $206 $290 $292 reversed $135 $-1 #
face $-1 $-1 $293 $77 $-1 $294 forward single #
loop $-1 $-1 $295 $137 #
plane-surface $-1 0 0 -0.125 0 0 -1 -1 0 0 forward_v I I I I #
loop $-1 $-1 $296 $97 #
coedge $-1 $211 $211 $295 $297 reversed $138 $-1 #
face $-1 $-1 $298 $79 $-1 $299 forward single #
loop $-1 $-1 $300 $140 #
plane-surface $-1 0 0 -0.125 0 0 -1 -1 0 0 forward_v I I I I #
loop $-1 $-1 $301 $98 #
coedge $-1 $216 $216 $300 $302 reversed $141 $-1 #
face $-1 $303 $304 $81 $-1 $305 reversed single #
loop $-1 $-1 $306 $143 #
coedge $-1 $307 $308 $309 $310 reversed $144 $-1 #
face $-1 $311 $312 $83 $-1 $313 forward single #
loop $-1 $-1 $314 $146 #
plane-surface $-1 -1.3162004148984201 0.50667420475344693 7.4359999999999999 -0.173648177666931 0.98480775301220802 0 0 0 1 forward_v I I I I #
coedge $-1 $315 $316 $317 $318 forward $147 $-1 #
model_id-kcp-attrib $-1 $319 $149 $85 1 990560100 60 1010565121 57 #
model_id-kcp-attrib $-1 $-1 $-1 $151 1 990560100 60 1010565121 5 #
face $320 $321 $322 $18 $-1 $323 reversed single #
loop $324 $325 $326 $151 #
cone-surface $-1 2.6600000000000001 0 7.4359999999999999 0 0 1 0.1285 0 0 1 I I 0 1 0.1285 forward I I I I #
model_id-kcp-attrib $-1 $-1 $-1 $152 1 990560100 60 1010565121 30 #
loop $327 $-1 $160 $103 #
coedge $-1 $231 $231 $156 $235 reversed $152 $-1 #
model_id-kcp-attrib $-1 $-1 $-1 $155 1 990560100 60 1010565121 39 #
loop $328 $329 $330 $85 #
coedge $-1 $234 $234 $326 $331 forward $155 $-1 #
edge $332 $333 -3.1415926535897931 $333 3.1415926535897931 $231 $334 forward 7 unknown #
model_id-kcp-attrib $-1 $-1 $-1 $158 1 990560100 60 1010565121 54 #
loop $335 $336 $337 $58 #
coedge $-1 $238 $238 $338 $339 reversed $158 $-1 #
coedge $-1 $239 $239 $159 $240 forward $340 $-1 #
edge $341 $342 0 $342 6.2831853071795862 $239 $343 forward 7 unknown #
attrib_edge_convexity-kcp-attrib $-1 $344 $-1 $161 1 #
vertex $345 $161 $346 #
ellipse-curve $-1 -4.25 0 7.4359999999999999 0 0 1 0.4375 0 0 1 I I #
model_id-kcp-attrib $-1 $-1 $-1 $163 1 990560100 60 1010565122 4 #
face $-1 $347 $348 $59 $-1 $349 reversed single #
loop $-1 $-1 $350 $163 #
plane-surface $-1 0 -0.75 0 0 1 0 0 0 1 forward_v I I I I #
coedge $-1 $351 $352 $353 $354 forward $164 $-1 #
coedge $-1 $355 $166 $356 $357 forward $111 $-1 #
coedge $-1 $166 $355 $358 $359 forward $111 $-1 #
coedge $-1 $360 $361 $166 $252 reversed $362 $-1 #
edge $-1 $363 -0.75 $364 0.75 $251 $365 forward 7 unknown #
loop $-1 $-1 $366 $167 #
plane-surface $-1 0 0 0.25 0 0 1 1 0 0 forward_v I I I I #
coedge $-1 $255 $255 $171 $257 forward $168 $-1 #
coedge $-1 $256 $256 $366 $367 reversed $170 $-1 #
edge $-1 $368 0 $368 6.2831853071795862 $255 $369 forward 7 unknown #
loop $-1 $-1 $370 $172 #
plane-surface $-1 0 0 0.125 0 0 1 1 0 0 forward_v I I I I #
coedge $-1 $260 $260 $176 $262 forward $173 $-1 #
coedge $-1 $261 $261 $370 $371 reversed $175 $-1 #
edge $-1 $372 0 $372 6.2831853071795862 $260 $373 forward 7 unknown #
loop $-1 $-1 $374 $177 #
plane-surface $-1 0 0 0.25 0 0 1 1 0 0 forward_v I I I I #
coedge $-1 $265 $265 $181 $267 forward $178 $-1 #
coedge $-1 $266 $266 $374 $375 reversed $180 $-1 #
edge $-1 $376 0 $376 6.2831853071795862 $265 $377 forward 7 unknown #
loop $-1 $-1 $378 $182 #
plane-surface $-1 0 0 0.25 0 0 1 1 0 0 forward_v I I I I #
coedge $-1 $270 $270 $186 $272 forward $183 $-1 #
coedge $-1 $271 $271 $378 $379 reversed $185 $-1 #
edge $-1 $380 0 $380 6.2831853071795862 $270 $381 forward 7 unknown #
loop $-1 $-1 $382 $187 #
plane-surface $-1 0 0 0.25 0 0 1 1 0 0 forward_v I I I I #
coedge $-1 $275 $275 $191 $277 forward $188 $-1 #
coedge $-1 $276 $276 $382 $383 reversed $190 $-1 #
edge $-1 $384 0 $384 6.2831853071795862 $275 $385 forward 7 unknown #
loop $-1 $-1 $386 $192 #
plane-surface $-1 0 0 0.125 0 0 1 1 0 0 forward_v I I I I #
coedge $-1 $280 $280 $196 $282 forward $193 $-1 #
coedge $-1 $281 $281 $386 $387 reversed $195 $-1 #
edge $-1 $388 0 $388 6.2831853071795862 $280 $389 forward 7 unknown #
loop $-1 $-1 $390 $197 #
plane-surface $-1 0 0 0.125 0 0 1 1 0 0 forward_v I I I I #
coedge $-1 $285 $285 $201 $287 forward $198 $-1 #
coedge $-1 $286 $286 $390 $391 reversed $200 $-1 #
edge $-1 $392 0 $392 6.2831853071795862 $285 $393 forward 7 unknown #
loop $-1 $-1 $394 $202 #
plane-surface $-1 0 0 0.125 0 0 1 1 0 0 forward_v I I I I #
coedge $-1 $290 $290 $206 $292 forward $203 $-1 #
coedge $-1 $291 $291 $394 $395 reversed $205 $-1 #
edge $-1 $396 0 $396 6.2831853071795862 $290 $397 forward 7 unknown #
loop $-1 $-1 $398 $207 #
plane-surface $-1 0 0 0.125 0 0 1 1 0 0 forward_v I I I I #
coedge $-1 $295 $295 $211 $297 forward $208 $-1 #
coedge $-1 $296 $296 $398 $399 reversed $210 $-1 #
edge $-1 $400 0 $400 6.2831853071795862 $295 $401 forward 7 unknown #
loop $-1 $-1 $402 $212 #
plane-surface $-1 0 0 0.125 0 0 1 1 0 0 forward_v I I I I #
coedge $-1 $300 $300 $216 $302 forward $213 $-1 #
coedge $-1 $301 $301 $402 $403 reversed $215 $-1 #
edge $-1 $404 0 $404 6.2831853071795862 $300 $405 forward 7 unknown #
face $-1 $406 $407 $81 $-1 $408 forward single #
loop $-1 $-1 $409 $217 #
plane-surface $-1 -4 0 0 1 0 0 0 0 -1 forward_v I I I I #
coedge $-1 $410 $411 $412 $413 reversed $218 $-1 #
coedge $-1 $414 $219 $415 $416 reversed $144 $-1 #
coedge $-1 $219 $414 $417 $418 forward $144 $-1 #
coedge $-1 $419 $420 $219 $310 forward $407 $-1 #
edge $-1 $421 1.5707963267948966 $422 3.1415926535897931 $309 $423 forward 7 unknown #
face $-1 $424 $425 $83 $-1 $426 forward single #
loop $-1 $-1 $427 $220 #
cone-surface $-1 -3.2424038765061001 -0.086824088833464999 7.4359999999999999 0 0 -1 0.043412044416731299 -0.24620193825305201 0 1 I I 0 1 0.24999999999999975 forward I I I I #
coedge $-1 $428 $429 $430 $431 forward $221 $-1 #
coedge $-1 $432 $223 $429 $433 reversed $147 $-1 #
coedge $-1 $223 $432 $434 $435 forward $147 $-1 #
coedge $-1 $436 $430 $223 $318 reversed $437 $-1 #
edge $-1 $438 -3.1415926535898131 $439 -1.8623991238087083e-014 $223 $440 forward 7 unknown #
model_id-kcp-attrib $-1 $441 $224 $85 1 990560100 60 1010565121 50 #
model_id-kcp-attrib $-1 $-1 $-1 $226 1 990560100 60 1010565121 6 #
face $442 $443 $444 $18 $-1 $445 reversed single #
loop $446 $340 $447 $226 #
cone-surface $-1 2.25 0 7.4359999999999999 0 0 1 0.0625 0 0 1 I I 0 1 0.0625 forward I I I I #
model_id-kcp-attrib $-1 $-1 $-1 $227 1 990560100 60 1010565121 37 #
loop $448 $-1 $449 $151 #
coedge $-1 $326 $326 $234 $331 reversed $227 $-1 #
model_id-kcp-attrib $-1 $-1 $-1 $230 1 990560100 60 1010565121 31 #
model_id-kcp-attrib $-1 $-1 $-1 $233 1 990560100 60 1010565121 46 #
loop $450 $451 $452 $85 #
coedge $-1 $330 $330 $447 $453 forward $233 $-1 #
edge $454 $455 -3.1415926535897931 $455 3.1415926535897931 $326 $456 forward 7 unknown #
attrib_edge_convexity-kcp-attrib $-1 $457 $-1 $235 1 #
vertex $458 $235 $459 #
ellipse-curve $-1 -4.25 0 6.9359999999999999 0 0 1 -0.4375 0 0 1 I I #
model_id-kcp-attrib $-1 $-1 $-1 $237 1 990560100 60 1010565121 61 #
loop $-1 $460 $461 $58 #
coedge $-1 $337 $337 $462 $463 reversed $237 $-1 #
coedge $-1 $338 $338 $238 $339 forward $464 $-1 #
edge $465 $466 0 $466 6.2831853071795862 $338 $467 forward 7 unknown #
loop $468 $-1 $239 $226 #
attrib_edge_convexity-kcp-attrib $-1 $469 $-1 $240 1 #
vertex $470 $240 $471 #
ellipse-curve $-1 2.25 0 7.4359999999999999 0 0 1 0.0625 0 0 1 I I #
convexity-sys-attrib $-1 $-1 $241 $161 #
model_id-kcp-attrib $-1 $-1 $-1 $242 1 990560100 60 1010565121 35 #
point $-1 -3.8125 0 7.4359999999999999 #
face $472 $473 $474 $59 $-1 $475 reversed single #
loop $-1 $-1 $476 $245 #
plane-surface $-1 -4 0 0 1 0 0 0 0 -1 forward_v I I I I #
coedge $-1 $477 $358 $478 $479 forward $246 $-1 #
coedge $-1 $480 $248 $477 $481 forward $164 $-1 #
coedge $-1 $248 $480 $482 $483 forward $164 $-1 #
coedge $-1 $361 $360 $248 $354 reversed $362 $-1 #
edge $-1 $484 -0.75 $485 0.75 $353 $486 forward 7 unknown #
coedge $-1 $250 $249 $487 $488 forward $111 $-1 #
coedge $-1 $489 $490 $249 $357 reversed $474 $-1 #
edge $-1 $364 -4 $491 4 $356 $492 forward 7 unknown #
coedge $-1 $350 $493 $250 $359 reversed $246 $-1 #
edge $-1 $494 -4 $363 4 $358 $495 forward 7 unknown #
coedge $-1 $353 $251 $493 $496 forward $362 $-1 #
coedge $-1 $251 $353 $489 $497 reversed $362 $-1 #
loop $-1 $-1 $360 $473 #
vertex $-1 $252 $498 #
vertex $-1 $252 $499 #
straight-curve $-1 4 0 0.25 0 1 0 I I #
coedge $-1 $366 $366 $256 $367 forward $253 $-1 #
edge $-1 $500 0 $500 6.2831853071795862 $366 $501 forward 7 unknown #
vertex $-1 $257 $502 #
ellipse-curve $-1 0 0 -0.25 0 0 -1 0.4375 0 0 1 I I #
coedge $-1 $370 $370 $261 $371 forward $258 $-1 #
edge $-1 $503 0 $503 6.2831853071795862 $370 $504 forward 7 unknown #
vertex $-1 $262 $505 #
ellipse-curve $-1 0 0 -0.125 0 0 -1 0.1285 0 0 1 I I #
coedge $-1 $374 $374 $266 $375 forward $263 $-1 #
edge $-1 $506 0 $506 6.2831853071795862 $374 $507 forward 7 unknown #
vertex $-1 $267 $508 #
ellipse-curve $-1 0 0 -0.25 0 0 -1 0.0625 0 0 1 I I #
coedge $-1 $378 $378 $271 $379 forward $268 $-1 #
edge $-1 $509 0 $509 6.2831853071795862 $378 $510 forward 7 unknown #
vertex $-1 $272 $511 #
ellipse-curve $-1 0 0 -0.25 0 0 -1 0.2185 0 0 1 I I #
coedge $-1 $382 $382 $276 $383 forward $273 $-1 #
edge $-1 $512 0 $512 6.2831853071795862 $382 $513 forward 7 unknown #
vertex $-1 $277 $514 #
ellipse-curve $-1 0 0 -0.25 0 0 -1 0.0625 0 0 1 I I #
coedge $-1 $386 $386 $281 $387 forward $278 $-1 #
edge $-1 $515 0 $515 6.2831853071795862 $386 $516 forward 7 unknown #
vertex $-1 $282 $517 #
ellipse-curve $-1 0 0 -0.125 0 0 -1 0.1285 0 0 1 I I #
coedge $-1 $390 $390 $286 $391 forward $283 $-1 #
edge $-1 $518 0 $518 6.2831853071795862 $390 $519 forward 7 unknown #
vertex $-1 $287 $520 #
ellipse-curve $-1 0 0 -0.125 0 0 -1 0.1285 0 0 1 I I #
coedge $-1 $394 $394 $291 $395 forward $288 $-1 #
edge $-1 $521 0 $521 6.2831853071795862 $394 $522 forward 7 unknown #
vertex $-1 $292 $523 #
ellipse-curve $-1 0 0 -0.125 0 0 -1 0.203125 0 0 1 I I #
coedge $-1 $398 $398 $296 $399 forward $293 $-1 #
edge $-1 $524 0 $524 6.2831853071795862 $398 $525 forward 7 unknown #
vertex $-1 $297 $526 #
ellipse-curve $-1 0 0 -0.125 0 0 -1 0.203125 0 0 1 I I #
coedge $-1 $402 $402 $301 $403 forward $298 $-1 #
edge $-1 $527 0 $527 6.2831853071795862 $402 $528 forward 7 unknown #
vertex $-1 $302 $529 #
ellipse-curve $-1 0 0 -0.125 0 0 -1 0.203125 0 0 1 I I #
face $-1 $530 $531 $81 $-1 $408 forward single #
loop $-1 $-1 $309 $303 #
plane-surface $-1 0 0 0.25 0 0 1 1 0 0 forward_v I I I I #
coedge $-1 $532 $533 $411 $416 reversed $304 $-1 #
coedge $-1 $534 $306 $535 $536 reversed $218 $-1 #
coedge $-1 $306 $534 $307 $416 forward $218 $-1 #
coedge $-1 $537 $538 $306 $413 forward $531 $-1 #
edge $-1 $539 0 $421 1.5707963267948966 $412 $423 forward 7 unknown #
coedge $-1 $308 $307 $540 $541 reversed $144 $-1 #
coedge $-1 $542 $543 $409 $416 forward $544 $-1 #
edge $-1 $545 -0.5 $421 0 $415 $546 forward 7 unknown #
coedge $-1 $547 $548 $308 $418 reversed $549 $-1 #
edge $-1 $550 -0.5 $422 0 $417 $551 forward 7 unknown #
coedge $-1 $420 $309 $548 $552 forward $407 $-1 #
coedge $-1 $309 $419 $542 $553 forward $407 $-1 #
vertex $-1 $554 $555 #
vertex $-1 $552 $556 #
ellipse-curve $-1 -3.25 0 0.25 0 0 -1 0 -0.75 0 1 I I #
face $-1 $557 $437 $83 $-1 $558 reversed single #
loop $-1 $-1 $559 $311 #
plane-surface $-1 -3.1989918320893702 -0.33302602708651702 7.4359999999999999 0.17364817766693003 -0.98480775301220813 0 0 0 -1 forward_v I I I I #
coedge $-1 $560 $561 $562 $563 forward $312 $-1 #
coedge $-1 $564 $314 $561 $565 reversed $221 $-1 #
coedge $-1 $314 $564 $315 $433 forward $221 $-1 #
coedge $-1 $317 $562 $314 $431 reversed $437 $-1 #
edge $-1 $439 -2.000000000000004 $566 0 $314 $567 forward 7 unknown #
coedge $-1 $316 $315 $568 $569 reversed $147 $-1 #
edge $-1 $570 0 $439 0.5 $429 $571 forward 7 unknown #
coedge $-1 $572 $559 $316 $435 reversed $425 $-1 #
edge $-1 $573 0 $438 0.5 $316 $574 forward 7 unknown #
coedge $-1 $562 $317 $559 $575 reversed $437 $-1 #
loop $-1 $-1 $317 $424 #
vertex $-1 $435 $576 #
vertex $-1 $433 $577 #
ellipse-curve $-1 -1.27278837048169 0.26047226650039601 6.9359999999999999 0 0 1 -0.043412044416734998 0.24620193825305201 0 1 I I #
model_id-kcp-attrib $-1 $578 $319 $85 1 990560100 60 1010565121 43 #
model_id-kcp-attrib $-1 $-1 $-1 $321 1 990560100 60 1010565121 7 #
face $579 $580 $581 $18 $-1 $582 reversed single #
loop $583 $464 $584 $321 #
cone-surface $-1 0 0 7.4359999999999999 0 0 1 0.2185 0 0 1 I I 0 1 0.2185 forward I I I I #
model_id-kcp-attrib $-1 $-1 $-1 $322 1 990560100 60 1010565121 44 #
coedge $-1 $447 $447 $330 $453 reversed $322 $-1 #
model_id-kcp-attrib $-1 $-1 $-1 $325 1 990560100 60 1010565121 38 #
coedge $-1 $449 $449 $585 $586 reversed $325 $-1 #
model_id-kcp-attrib $-1 $-1 $-1 $329 1 990560100 60 1010565121 53 #
loop $587 $588 $589 $85 #
coedge $-1 $452 $452 $584 $590 forward $329 $-1 #
edge $591 $592 -3.1415926535897931 $592 3.1415926535897931 $447 $593 forward 7 unknown #
attrib_edge_convexity-kcp-attrib $-1 $594 $-1 $331 1 #
vertex $595 $331 $596 #
ellipse-curve $-1 2.6600000000000001 0 6.9359999999999999 0 0 1 -0.1285 0 0 1 I I #
convexity-sys-attrib $-1 $-1 $332 $235 #
model_id-kcp-attrib $-1 $-1 $-1 $333 1 990560100 60 1010565121 34 #
point $-1 -3.8125 0 6.9359999999999999 #
loop $-1 $597 $598 $58 #
coedge $-1 $599 $600 $601 $602 reversed $336 $-1 #
coedge $-1 $462 $462 $337 $463 forward $603 $-1 #
edge $604 $605 0 $605 6.2831853071795862 $462 $606 forward 7 unknown #
loop $607 $-1 $338 $321 #
attrib_edge_convexity-kcp-attrib $-1 $608 $-1 $339 1 #
vertex $609 $339 $610 #
ellipse-curve $-1 0 0 7.4359999999999999 0 0 1 0.2185 0 0 1 I I #
model_id-kcp-attrib $-1 $-1 $-1 $340 1 990560100 60 1010565121 45 #
convexity-sys-attrib $-1 $-1 $341 $240 #
model_id-kcp-attrib $-1 $-1 $-1 $342 1 990560100 60 1010565121 49 #
point $-1 2.3125 0 7.4359999999999999 #
model_id-kcp-attrib $-1 $-1 $-1 $347 1 990560100 60 1010565122 6 #
face $611 $-1 $362 $59 $-1 $612 reversed single #
loop $-1 $-1 $489 $347 #
plane-surface $-1 0 0.75 0 0 -1 0 0 0 -1 forward_v I I I I #
coedge $-1 $613 $487 $490 $614 forward $348 $-1 #
coedge $-1 $493 $350 $351 $481 reversed $246 $-1 #
coedge $-1 $487 $613 $350 $479 reversed $348 $-1 #
edge $-1 $494 -0.25 $615 0.25 $478 $616 forward 7 unknown #
coedge $-1 $352 $351 $613 $617 forward $164 $-1 #
edge $-1 $485 -4 $615 4 $477 $618 forward 7 unknown #
coedge $-1 $490 $489 $352 $483 reversed $474 $-1 #
edge $-1 $619 -4 $484 4 $482 $620 forward 7 unknown #
vertex $-1 $354 $621 #
vertex $-1 $496 $622 #
straight-curve $-1 4 0 -0.25 0 -1 0 I I #
coedge $-1 $476 $478 $355 $488 reversed $348 $-1 #
edge $-1 $491 -0.75 $494 0.75 $487 $623 forward 7 unknown #
coedge $-1 $482 $356 $361 $497 forward $474 $-1 #
coedge $-1 $356 $482 $476 $614 reversed $474 $-1 #
vertex $-1 $357 $624 #
straight-curve $-1 0 0.75 0.25 -1 0 0 I I #
coedge $-1 $358 $477 $360 $496 reversed $246 $-1 #
vertex $-1 $488 $625 #
straight-curve $-1 0 -0.75 0.25 1 0 0 I I #
edge $-1 $363 -0.25 $485 0.25 $360 $626 forward 7 unknown #
edge $-1 $364 -0.25 $484 0.25 $361 $627 forward 7 unknown #
point $-1 4 -0.75 0.25 #
point $-1 4 0.75 0.25 #
vertex $-1 $367 $628 #
ellipse-curve $-1 0 0 0.25 0 0 1 0.4375 0 0 1 I I #
point $-1 0.4375 0 -0.25 #
vertex $-1 $371 $629 #
ellipse-curve $-1 0 0 0.125 0 0 1 0.1285 0 0 1 I I #
point $-1 0.1285 0 -0.125 #
vertex $-1 $375 $630 #
ellipse-curve $-1 0 0 0.25 0 0 1 0.0625 0 0 1 I I #
point $-1 0.0625 0 -0.25 #
vertex $-1 $379 $631 #
ellipse-curve $-1 0 0 0.25 0 0 1 0.2185 0 0 1 I I #
point $-1 0.2185 0 -0.25 #
vertex $-1 $383 $632 #
ellipse-curve $-1 0 0 0.25 0 0 1 0.0625 0 0 1 I I #
point $-1 0.0625 0 -0.25 #
vertex $-1 $387 $633 #
ellipse-curve $-1 0 0 0.125 0 0 1 0.1285 0 0 1 I I #
point $-1 0.1285 0 -0.125 #
vertex $-1 $391 $634 #
ellipse-curve $-1 0 0 0.125 0 0 1 0.1285 0 0 1 I I #
point $-1 0.1285 0 -0.125 #
vertex $-1 $395 $635 #
ellipse-curve $-1 0 0 0.125 0 0 1 0.203125 0 0 1 I I #
point $-1 0.203125 0 -0.125 #
vertex $-1 $399 $636 #
ellipse-curve $-1 0 0 0.125 0 0 1 0.203125 0 0 1 I I #
point $-1 0.203125 0 -0.125 #
vertex $-1 $403 $637 #
ellipse-curve $-1 0 0 0.125 0 0 1 0.203125 0 0 1 I I #
point $-1 0.203125 0 -0.125 #
face $-1 $638 $549 $81 $-1 $639 reversed single #
loop $-1 $-1 $412 $406 #
coedge $-1 $640 $409 $641 $642 reversed $304 $-1 #
coedge $-1 $409 $640 $537 $554 reversed $304 $-1 #
coedge $-1 $411 $410 $643 $644 reversed $218 $-1 #
coedge $-1 $645 $646 $410 $536 forward $647 $-1 #
edge $-1 $648 -0.5 $539 0 $535 $649 forward 7 unknown #
coedge $-1 $538 $412 $533 $554 forward $531 $-1 #
coedge $-1 $412 $537 $645 $650 forward $531 $-1 #
vertex $-1 $413 $651 #
coedge $-1 $652 $653 $414 $541 forward $654 $-1 #
edge $-1 $550 -3.1415926535897931 $545 -1.5707963267948966 $540 $655 forward 7 unknown #
coedge $-1 $656 $415 $420 $553 reversed $544 $-1 #
coedge $-1 $415 $656 $652 $657 reversed $544 $-1 #
loop $-1 $-1 $415 $658 #
vertex $-1 $657 $659 #
straight-curve $-1 -4 0 0.25 0 0 1 I I #
coedge $-1 $660 $417 $653 $661 reversed $549 $-1 #
coedge $-1 $417 $660 $419 $552 reversed $549 $-1 #
loop $-1 $-1 $417 $530 #
vertex $-1 $541 $662 #
straight-curve $-1 -3.25 0.75 0.25 0 0 1 I I #
edge $-1 $422 3.25 $663 4 $548 $664 forward 7 unknown #
edge $-1 $663 -0.75 $421 0 $542 $665 forward 7 unknown #
edge $-1 $421 0 $666 0.75 $533 $665 forward 7 unknown #
point $-1 -4 0 0.25 #
point $-1 -3.25 0.75 0.25 #
face $-1 $-1 $667 $83 $-1 $668 forward single #
plane-surface $-1 -2.2575961234938946 0.086824088833465873 6.9360000000000017 -7.4817142079983093e-031 8.8125838163649904e-031 1 1 0 7.4817142079983093e-031 forward_v I I I I #
coedge $-1 $434 $669 $436 $575 forward $425 $-1 #
coedge $-1 $670 $427 $669 $671 reversed $312 $-1 #
coedge $-1 $427 $670 $428 $565 forward $312 $-1 #
coedge $-1 $430 $436 $427 $563 reversed $437 $-1 #
edge $-1 $566 -3.141592653589758 $672 -5.717648576819572e-015 $427 $673 forward 7 unknown #
coedge $-1 $429 $428 $674 $675 reversed $221 $-1 #
edge $-1 $676 0 $566 0.5 $561 $677 forward 7 unknown #
vertex $-1 $565 $678 #
straight-curve $-1 -3.2858159209228401 0.15937784941958599 6.9359999999999999 -0.98480775301220802 -0.173648177666931 0 I I #
coedge $-1 $674 $679 $432 $569 forward $667 $-1 #
edge $-1 $573 -3.1415926535898131 $570 -1.870725796493396e-014 $432 $680 forward 7 unknown #
vertex $-1 $675 $681 #
straight-curve $-1 -1.3162004148984201 0.50667420475344693 7.4359999999999999 0 0 -1 I I #
coedge $-1 $669 $434 $679 $682 reversed $425 $-1 #
vertex $-1 $682 $683 #
straight-curve $-1 -1.2293763260649599 0.014270328247342978 7.4359999999999999 0 0 -1 I I #
edge $-1 $672 -1.9999999999999942 $438 -3.9160104146723957e-018 $559 $684 forward 7 unknown #
point $-1 -1.2293763260649599 0.014270328247342978 6.9359999999999999 #
point $-1 -1.3162004148984201 0.50667420475344693 6.9359999999999999 #
model_id-kcp-attrib $-1 $685 $441 $85 1 990560100 60 1010565121 36 #
model_id-kcp-attrib $-1 $-1 $-1 $443 1 990560100 60 1010565121 8 #
face $686 $687 $688 $18 $-1 $689 reversed single #
loop $690 $603 $691 $443 #
cone-surface $-1 1.4099999999999999 0 7.4359999999999999 0 0 1 0.0625 0 0 1 I I 0 1 0.0625 forward I I I I #
model_id-kcp-attrib $-1 $-1 $-1 $444 1 990560100 60 1010565121 51 #
coedge $-1 $584 $584 $452 $590 reversed $444 $-1 #
coedge $-1 $585 $585 $449 $586 forward $692 $-1 #
edge $693 $694 -3.1415926535897931 $694 3.1415926535897931 $585 $695 forward 7 unknown #
model_id-kcp-attrib $-1 $-1 $-1 $451 1 990560100 60 1010565121 60 #
loop $696 $697 $698 $85 #
coedge $-1 $589 $589 $691 $699 forward $451 $-1 #
edge $700 $701 -3.1415926535897931 $701 3.1415926535897931 $584 $702 forward 7 unknown #
attrib_edge_convexity-kcp-attrib $-1 $703 $-1 $453 1 #
vertex $704 $453 $705 #
ellipse-curve $-1 2.25 0 6.9359999999999999 0 0 1 -0.0625 0 0 1 I I #
convexity-sys-attrib $-1 $-1 $454 $331 #
model_id-kcp-attrib $-1 $-1 $-1 $455 1 990560100 60 1010565121 41 #
point $-1 2.7885 0 6.9359999999999999 #
loop $-1 $706 $707 $58 #
coedge $-1 $708 $709 $710 $711 reversed $460 $-1 #
coedge $-1 $712 $461 $713 $714 reversed $336 $-1 #
coedge $-1 $461 $712 $715 $716 reversed $336 $-1 #
coedge $-1 $717 $718 $461 $602 forward $719 $-1 #
edge $720 $721 -3.1415926535897931 $722 0 $601 $723 forward 7 unknown #
loop $724 $-1 $462 $443 #
attrib_edge_convexity-kcp-attrib $-1 $725 $-1 $463 1 #
vertex $726 $463 $727 #
ellipse-curve $-1 1.4099999999999999 0 7.4359999999999999 0 0 1 0.0625 0 0 1 I I #
model_id-kcp-attrib $-1 $-1 $-1 $464 1 990560100 60 1010565121 52 #
convexity-sys-attrib $-1 $-1 $465 $339 #
model_id-kcp-attrib $-1 $-1 $-1 $466 1 990560100 60 1010565121 56 #
point $-1 0.2185 0 7.4359999999999999 #
model_id-kcp-attrib $-1 $-1 $-1 $473 1 990560100 60 1010565122 5 #
plane-surface $-1 4 0 0 -1 0 0 0 0 1 forward_v I I I I #
coedge $-1 $478 $476 $480 $617 reversed $348 $-1 #
edge $-1 $491 -0.25 $619 0.25 $490 $728 forward 7 unknown #
vertex $-1 $617 $729 #
straight-curve $-1 -4 -0.75 0 0 0 -1 I I #
edge $-1 $615 -0.75 $619 0.75 $613 $730 forward 7 unknown #
straight-curve $-1 0 -0.75 -0.25 -1 0 0 I I #
vertex $-1 $483 $731 #
straight-curve $-1 0 0.75 -0.25 1 0 0 I I #
point $-1 4 0.75 -0.25 #
point $-1 4 -0.75 -0.25 #
straight-curve $-1 -4 0 0.25 0 -1 0 I I #
point $-1 -4 0.75 0.25 #
point $-1 -4 -0.75 0.25 #
straight-curve $-1 4 -0.75 0 0 0 -1 I I #
straight-curve $-1 4 0.75 0 0 0 -1 I I #
point $-1 0.4375 0 0.25 #
point $-1 0.1285 0 0.125 #
point $-1 0.0625 0 0.25 #
point $-1 0.2185 0 0.25 #
point $-1 0.0625 0 0.25 #
point $-1 0.1285 0 0.125 #
point $-1 0.1285 0 0.125 #
point $-1 0.203125 0 0.125 #
point $-1 0.203125 0 0.125 #
point $-1 0.203125 0 0.125 #
face $-1 $732 $654 $81 $-1 $733 reversed single #
plane-surface $-1 0 0.75 0 0 -1 0 0 0 -1 forward_v I I I I #
coedge $-1 $533 $532 $734 $735 reversed $304 $-1 #
coedge $-1 $643 $736 $532 $642 forward $737 $-1 #
edge $-1 $738 -0.75 $545 0 $532 $739 forward 7 unknown #
coedge $-1 $736 $641 $534 $644 forward $737 $-1 #
edge $-1 $545 -1.5707963267948966 $648 0 $643 $655 forward 7 unknown #
coedge $-1 $734 $535 $538 $650 reversed $647 $-1 #
coedge $-1 $535 $734 $736 $740 reversed $647 $-1 #
loop $-1 $-1 $535 $741 #
vertex $-1 $740 $742 #
straight-curve $-1 -3.25 -0.75 0.25 0 0 1 I I #
edge $-1 $666 -4 $539 -3.25 $645 $743 forward 7 unknown #
point $-1 -3.25 -0.75 0.25 #
coedge $-1 $653 $540 $543 $657 forward $654 $-1 #
coedge $-1 $540 $652 $547 $661 forward $654 $-1 #
loop $-1 $-1 $540 $638 #
ellipse-curve $-1 -3.25 0 -0.25 0 0 1 0 -0.75 0 1 I I #
coedge $-1 $543 $542 $660 $744 forward $544 $-1 #
edge $-1 $545 0 $745 0.75 $543 $739 forward 7 unknown #
face $-1 $-1 $544 $81 $-1 $305 reversed single #
point $-1 -4 0 -0.25 #
coedge $-1 $548 $547 $656 $744 reversed $549 $-1 #
edge $-1 $745 -4 $550 -3.25 $547 $746 forward 7 unknown #
point $-1 -3.25 0.75 -0.25 #
vertex $-1 $552 $747 #
straight-curve $-1 0 0.75 0.25 -1 0 0 I I #
straight-curve $-1 -4 0 0.25 0 -1 0 I I #
vertex $-1 $554 $748 #
loop $-1 $-1 $679 $557 #
plane-surface $-1 -2.2575961234938946 0.086824088833465873 7.4360000000000017 -7.4817142079983093e-031 8.8125838163649904e-031 1 1 0 7.4817142079983093e-031 forward_v I I I I #
coedge $-1 $559 $572 $560 $671 forward $425 $-1 #
coedge $-1 $561 $560 $749 $750 reversed $312 $-1 #
edge $-1 $751 0 $672 0.5 $669 $752 forward 7 unknown #
vertex $-1 $671 $753 #
ellipse-curve $-1 -3.2424038765061001 -0.086824088833464999 6.9359999999999999 0 0 1 0.043412044416731299 -0.24620193825305201 0 1 I I #
coedge $-1 $749 $568 $564 $675 forward $667 $-1 #
edge $-1 $570 -2.000000000000004 $676 0 $564 $754 forward 7 unknown #
vertex $-1 $750 $755 #
straight-curve $-1 -3.2858159209228401 0.15937784941958599 7.4359999999999999 0 0 -1 I I #
point $-1 -3.2858159209228401 0.15937784941958599 6.9359999999999999 #
coedge $-1 $568 $749 $572 $682 forward $667 $-1 #
ellipse-curve $-1 -1.27278837048169 0.26047226650039601 7.4359999999999999 0 0 1 -0.043412044416734998 0.24620193825305201 0 1 I I #
point $-1 -1.3162004148984201 0.50667420475344704 7.4359999999999999 #
edge $-1 $751 -1.9999999999999942 $573 0 $572 $756 forward 7 unknown #
point $-1 -1.2293763260649599 0.014270328247343001 7.4359999999999999 #
straight-curve $-1 -1.2293763260649599 0.014270328247343001 6.9359999999999999 0.98480775301220802 0.17364817766693 0 I I #
model_id-kcp-attrib $-1 $757 $578 $85 1 990560100 60 1010565121 29 #
model_id-kcp-attrib $-1 $-1 $-1 $580 1 990560100 60 1010565121 9 #
face $758 $759 $760 $18 $-1 $761 reversed single #
loop $762 $763 $764 $580 #
cone-surface $-1 1.4099999999999999 0.40600000000000003 7.4359999999999999 0 0 1 0.1285 0 0 1 I I 0 1 0.1285 forward I I I I #
model_id-kcp-attrib $-1 $-1 $-1 $581 1 990560100 60 1010565121 58 #
coedge $-1 $691 $691 $589 $699 reversed $581 $-1 #
loop $765 $-1 $585 $766 #
attrib_edge_convexity-kcp-attrib $-1 $767 $-1 $586 1 #
vertex $768 $586 $769 #
ellipse-curve $-1 2.6600000000000001 0 7.1859999999999999 0 0 -1 0.1285 0 0 1 I I #
model_id-kcp-attrib $-1 $-1 $-1 $588 1 990560100 60 1010565121 67 #
loop $770 $771 $772 $85 #
coedge $-1 $698 $698 $764 $773 forward $588 $-1 #
edge $774 $775 -3.1415926535897931 $775 3.1415926535897931 $691 $776 forward 7 unknown #
attrib_edge_convexity-kcp-attrib $-1 $777 $-1 $590 1 #
vertex $778 $590 $779 #
ellipse-curve $-1 0 0 6.9359999999999999 0 0 1 -0.2185 0 0 1 I I #
convexity-sys-attrib $-1 $-1 $591 $453 #
model_id-kcp-attrib $-1 $-1 $-1 $592 1 990560100 60 1010565121 48 #
point $-1 2.3125 0 6.9359999999999999 #
loop $-1 $780 $781 $58 #
coedge $-1 $707 $707 $782 $783 forward $597 $-1 #
coedge $-1 $784 $598 $785 $786 reversed $460 $-1 #
coedge $-1 $598 $784 $787 $788 reversed $460 $-1 #
coedge $-1 $789 $790 $598 $711 forward $791 $-1 #
edge $792 $793 -1.9999999999999942 $794 0 $710 $795 forward 7 unknown #
coedge $-1 $600 $599 $796 $797 reversed $336 $-1 #
coedge $-1 $798 $799 $599 $714 forward $800 $-1 #
edge $801 $802 -7.25 $721 0 $713 $803 forward 7 unknown #
coedge $-1 $804 $805 $600 $716 forward $806 $-1 #
edge $807 $722 -7.25 $808 0 $715 $809 forward 7 unknown #
coedge $-1 $810 $601 $805 $811 reversed $719 $-1 #
coedge $-1 $601 $810 $798 $812 forward $719 $-1 #
loop $-1 $-1 $601 $759 #
attrib_edge_convexity-kcp-attrib $-1 $813 $-1 $602 1 #
vertex $-1 $812 $814 #
vertex $-1 $811 $815 #
ellipse-curve $-1 -4.25 0 7.4359999999999999 0 0 -1 0 0.75 0 1 I I #
model_id-kcp-attrib $-1 $-1 $-1 $603 1 990560100 60 1010565121 59 #
convexity-sys-attrib $-1 $-1 $604 $463 #
model_id-kcp-attrib $-1 $-1 $-1 $605 1 990560100 60 1010565121 63 #
point $-1 1.4724999999999999 0 7.4359999999999999 #
straight-curve $-1 -4 0.75 0 0 0 -1 I I #
point $-1 -4 -0.75 -0.25 #
straight-curve $-1 -4 0 -0.25 0 1 0 I I #
point $-1 -4 0.75 -0.25 #
face $-1 $741 $737 $81 $-1 $733 reversed single #
plane-surface $-1 0 0 -0.25 0 0 1 1 0 0 forward_v I I I I #
coedge $-1 $646 $645 $640 $735 forward $647 $-1 #
edge $-1 $666 -0.25 $738 0.25 $640 $816 forward 7 unknown #
coedge $-1 $641 $643 $646 $740 forward $737 $-1 #
loop $-1 $-1 $643 $732 #
vertex $-1 $642 $817 #
straight-curve $-1 -4 0 -0.25 0 1 0 I I #
edge $-1 $648 3.25 $738 4 $646 $818 forward 7 unknown #
face $-1 $658 $647 $81 $-1 $819 reversed single #
point $-1 -3.25 -0.75 -0.25 #
straight-curve $-1 0 -0.75 0.25 1 0 0 I I #
edge $-1 $663 -0.25 $745 0.25 $660 $820 forward 7 unknown #
vertex $-1 $661 $821 #
straight-curve $-1 0 0.75 -0.25 1 0 0 I I #
point $-1 -4 0.75 0.25 #
point $-1 -4 -0.75 0.25 #
coedge $-1 $679 $674 $670 $750 forward $667 $-1 #
edge $-1 $676 -3.141592653589758 $751 -5.717648576819572e-015 $670 $822 forward 7 unknown #
vertex $-1 $682 $823 #
straight-curve $-1 -3.1989918320893702 -0.33302602708651702 7.4359999999999999 0 0 -1 I I #
point $-1 -3.1989918320893702 -0.33302602708651702 6.9359999999999999 #
straight-curve $-1 -3.2858159209228401 0.15937784941958599 7.4359999999999999 -0.98480775301220802 -0.173648177666931 0 I I #
point $-1 -3.2858159209228401 0.15937784941958599 7.4359999999999999 #
straight-curve $-1 -1.2293763260649599 0.014270328247343001 7.4359999999999999 0.98480775301220802 0.17364817766693 0 I I #
model_id-kcp-attrib $-1 $-1 $685 $85 1 990560100 60 1010565121 3 #
model_id-kcp-attrib $-1 $-1 $-1 $687 1 990560100 60 1010565121 10 #
face $824 $825 $719 $18 $-1 $826 forward single #
loop $827 $828 $829 $687 #
cone-surface $-1 1.4099999999999999 -0.40600000000000003 7.4359999999999999 0 0 1 0.1285 0 0 1 I I 0 1 0.1285 forward I I I I #
model_id-kcp-attrib $-1 $-1 $-1 $688 1 990560100 60 1010565121 65 #
loop $830 $-1 $831 $580 #
coedge $-1 $764 $764 $698 $773 reversed $688 $-1 #
model_id-kcp-attrib $-1 $-1 $-1 $692 1 990560100 60 1010565121 40 #
face $832 $833 $834 $18 $-1 $835 forward single #
convexity-sys-attrib $-1 $-1 $693 $586 #
model_id-kcp-attrib $-1 $-1 $-1 $694 1 990560100 60 1010565121 42 #
point $-1 2.5314999999999999 0 7.1859999999999999 #
model_id-kcp-attrib $-1 $-1 $-1 $697 1 990560100 60 1010565121 74 #
loop $-1 $836 $837 $85 #
coedge $-1 $772 $772 $829 $838 forward $697 $-1 #
edge $839 $840 -3.1415926535897931 $840 3.1415926535897931 $764 $841 forward 7 unknown #
attrib_edge_convexity-kcp-attrib $-1 $842 $-1 $699 1 #
vertex $843 $699 $844 #
ellipse-curve $-1 1.4099999999999999 0 6.9359999999999999 0 0 1 -0.0625 0 0 1 I I #
convexity-sys-attrib $-1 $-1 $700 $590 #
model_id-kcp-attrib $-1 $-1 $-1 $701 1 990560100 60 1010565121 55 #
point $-1 0.2185 0 6.9359999999999999 #
loop $-1 $-1 $845 $58 #
coedge $-1 $781 $781 $846 $847 forward $706 $-1 #
coedge $-1 $782 $782 $707 $783 reversed $848 $-1 #
edge $849 $850 -3.1415926535897931 $850 3.1415926535897931 $782 $851 forward 7 unknown #
coedge $-1 $709 $708 $852 $853 reversed $460 $-1 #
coedge $-1 $854 $855 $708 $786 forward $856 $-1 #
edge $857 $858 -3.141592653589758 $793 -5.717648576819572e-015 $785 $859 forward 7 unknown #
coedge $-1 $860 $861 $709 $788 forward $862 $-1 #
edge $863 $794 -3.1415926535898131 $864 -1.870725796493396e-014 $787 $865 forward 7 unknown #
coedge $-1 $866 $710 $861 $867 reversed $791 $-1 #
coedge $-1 $710 $866 $854 $868 forward $791 $-1 #
loop $-1 $-1 $710 $869 #
attrib_edge_convexity-kcp-attrib $-1 $870 $-1 $711 1 #
vertex $-1 $868 $871 #
vertex $-1 $867 $872 #
straight-curve $-1 -1.2293763260649599 0.014270328247343001 7.4359999999999999 0.98480775301220802 0.17364817766693 0 I I #
coedge $-1 $873 $874 $712 $797 forward $875 $-1 #
edge $876 $808 -1.5 $802 0 $796 $877 forward 7 unknown #
coedge $-1 $878 $713 $718 $812 reversed $800 $-1 #
coedge $-1 $713 $878 $873 $879 forward $800 $-1 #
loop $-1 $-1 $713 $825 #
attrib_edge_convexity-kcp-attrib $-1 $880 $-1 $714 1 #
vertex $-1 $879 $881 #
straight-curve $-1 -4.25 -0.75 7.4359999999999999 -1 0 0 I I #
coedge $-1 $882 $715 $874 $883 reversed $806 $-1 #
coedge $-1 $715 $882 $717 $811 forward $806 $-1 #
loop $-1 $-1 $715 $884 #
attrib_edge_convexity-kcp-attrib $-1 $885 $-1 $716 1 #
vertex $-1 $883 $886 #
straight-curve $-1 3 0.75 7.4359999999999999 1 0 0 I I #
coedge $-1 $718 $717 $837 $887 reversed $719 $-1 #
edge $-1 $888 -0.5 $722 0 $805 $889 forward 7 unknown #
edge $890 $891 -0.5 $721 0 $798 $892 forward 7 unknown #
convexity-sys-attrib $-1 $-1 $720 $602 #
point $-1 -4.25 -0.75 7.4359999999999999 #
point $-1 -4.25 0.75 7.4359999999999999 #
straight-curve $-1 -4 -0.75 0 0 0 -1 I I #
point $-1 -4 -0.75 -0.25 #
straight-curve $-1 0 -0.75 -0.25 -1 0 0 I I #
plane-surface $-1 0 -0.75 0 0 1 0 0 0 1 forward_v I I I I #
straight-curve $-1 -4 0.75 0 0 0 -1 I I #
point $-1 -4 0.75 -0.25 #
ellipse-curve $-1 -3.2424038765061001 -0.086824088833464999 7.4359999999999999 0 0 1 0.043412044416731299 -0.24620193825305201 0 1 I I #
point $-1 -3.1989918320893702 -0.33302602708651702 7.4359999999999999 #
model_id-kcp-attrib $-1 $-1 $-1 $759 1 990560100 60 1010565121 11 #
face $893 $894 $800 $18 $-1 $895 reversed single #
cone-surface $-1 -4.25 0 7.4359999999999999 0 0 1 0.75 0 0 1 I I 0 1 0.75 forward I I I I #
model_id-kcp-attrib $-1 $-1 $-1 $760 1 990560100 60 1010565121 72 #
loop $896 $-1 $897 $687 #
coedge $-1 $829 $829 $772 $838 reversed $760 $-1 #
model_id-kcp-attrib $-1 $-1 $-1 $763 1 990560100 60 1010565121 66 #
coedge $-1 $831 $831 $898 $899 reversed $763 $-1 #
model_id-kcp-attrib $-1 $-1 $-1 $766 1 990560100 60 1010565121 19 #
face $900 $901 $902 $18 $-1 $903 reversed single #
loop $-1 $692 $904 $766 #
plane-surface $-1 2.6600000000000001 0 7.1859999999999999 0 0 1 1 0 0 forward_v I I I I #
loop $-1 $-1 $905 $85 #
coedge $-1 $906 $907 $810 $887 forward $771 $-1 #
edge $908 $909 -3.1415926535897931 $909 3.1415926535897931 $829 $910 forward 7 unknown #
attrib_edge_convexity-kcp-attrib $-1 $911 $-1 $773 1 #
vertex $912 $773 $913 #
ellipse-curve $-1 1.4099999999999999 0.40600000000000003 6.9359999999999999 0 0 1 -0.1285 0 0 1 I I #
convexity-sys-attrib $-1 $-1 $774 $699 #
model_id-kcp-attrib $-1 $-1 $-1 $775 1 990560100 60 1010565121 62 #
point $-1 1.4724999999999999 0 6.9359999999999999 #
coedge $-1 $845 $845 $914 $915 reversed $780 $-1 #
coedge $-1 $846 $846 $781 $847 reversed $916 $-1 #
edge $917 $918 -3.1415926535897931 $918 3.1415926535897931 $846 $919 forward 7 unknown #
loop $-1 $-1 $782 $833 #
attrib_edge_convexity-kcp-attrib $-1 $920 $-1 $783 1 #
vertex $-1 $783 $921 #
ellipse-curve $-1 2.6600000000000001 0 7.4359999999999999 0 0 -1 -0.203125 0 0 1 I I #
coedge $-1 $922 $923 $784 $853 forward $924 $-1 #
edge $925 $864 -2.000000000000004 $858 0 $852 $926 forward 7 unknown #
coedge $-1 $927 $785 $790 $868 reversed $856 $-1 #
coedge $-1 $785 $927 $922 $928 forward $856 $-1 #
loop $-1 $-1 $785 $929 #
attrib_edge_convexity-kcp-attrib $-1 $930 $-1 $786 1 #
vertex $-1 $928 $931 #
ellipse-curve $-1 -3.2424038765061001 -0.086824088833464999 7.4359999999999999 0 0 1 0.043412044416731299 -0.24620193825305201 0 1 I I #
coedge $-1 $932 $787 $923 $933 reversed $862 $-1 #
coedge $-1 $787 $932 $789 $867 forward $862 $-1 #
loop $-1 $-1 $787 $934 #
attrib_edge_convexity-kcp-attrib $-1 $935 $-1 $788 1 #
vertex $-1 $933 $936 #
ellipse-curve $-1 -1.27278837048169 0.26047226650039601 7.4359999999999999 0 0 1 -0.043412044416734998 0.24620193825305201 0 1 I I #
coedge $-1 $790 $789 $905 $937 reversed $791 $-1 #
edge $-1 $938 -0.5 $794 0 $861 $939 forward 7 unknown #
edge $-1 $940 -0.5 $793 0 $854 $941 forward 7 unknown #
face $942 $929 $791 $18 $-1 $943 reversed single #
convexity-sys-attrib $-1 $-1 $792 $711 #
point $-1 -3.1989918320893702 -0.33302602708651702 7.4359999999999999 #
point $-1 -1.2293763260649599 0.014270328247343001 7.4359999999999999 #
coedge $-1 $944 $796 $799 $879 reversed $875 $-1 #
coedge $-1 $796 $944 $804 $883 forward $875 $-1 #
loop $-1 $-1 $796 $894 #
attrib_edge_convexity-kcp-attrib $-1 $945 $-1 $797 1 #
straight-curve $-1 3 -0.75 7.4359999999999999 0 -1 0 I I #
coedge $-1 $799 $798 $907 $946 reversed $800 $-1 #
edge $947 $948 -0.5 $802 0 $873 $949 forward 7 unknown #
convexity-sys-attrib $-1 $-1 $801 $714 #
point $-1 3 -0.75 7.4359999999999999 #
coedge $-1 $805 $804 $906 $950 reversed $806 $-1 #
edge $951 $952 -0.5 $808 0 $804 $953 forward 7 unknown #
face $954 $869 $806 $18 $-1 $955 reversed single #
convexity-sys-attrib $-1 $-1 $807 $716 #
point $-1 3 0.75 7.4359999999999999 #
edge $-1 $891 -3.1415926535897931 $888 0 $810 $956 forward 7 unknown #
vertex $-1 $811 $957 #
straight-curve $-1 -4.25 0.75 7.4359999999999999 0 0 1 I I #
attrib_edge_convexity-kcp-attrib $-1 $958 $-1 $812 3 #
vertex $-1 $812 $959 #
straight-curve $-1 -4.25 -0.75 7.4359999999999999 0 0 1 I I #
model_id-kcp-attrib $-1 $-1 $-1 $825 1 990560100 60 1010565121 12 #
face $960 $884 $875 $18 $-1 $961 reversed single #
plane-surface $-1 -4.25 -0.75 7.4359999999999999 0 1 0 0 0 1 forward_v I I I I #
model_id-kcp-attrib $-1 $-1 $-1 $828 1 990560100 60 1010565121 73 #
coedge $-1 $897 $897 $962 $963 reversed $828 $-1 #
coedge $-1 $898 $898 $831 $899 forward $964 $-1 #
edge $965 $966 -3.1415926535897931 $966 3.1415926535897931 $898 $967 forward 7 unknown #
model_id-kcp-attrib $-1 $-1 $-1 $833 1 990560100 60 1010565121 20 #
face $968 $969 $970 $18 $-1 $971 forward single #
loop $-1 $848 $972 $833 #
cone-surface $-1 2.6600000000000001 0 7.4359999999999999 0 0 1 0.203125 0 0 1 I I 0 1 0.203125 forward I I I I #
coedge $-1 $904 $904 $972 $973 reversed $834 $-1 #
coedge $-1 $974 $975 $866 $937 forward $836 $-1 #
coedge $-1 $976 $837 $882 $950 forward $771 $-1 #
coedge $-1 $837 $976 $878 $946 forward $771 $-1 #
attrib_edge_convexity-kcp-attrib $-1 $977 $-1 $838 1 #
vertex $978 $838 $979 #
ellipse-curve $-1 1.4099999999999999 -0.40600000000000003 6.9359999999999999 0 0 1 -0.1285 0 0 1 I I #
convexity-sys-attrib $-1 $-1 $839 $773 #
model_id-kcp-attrib $-1 $-1 $-1 $840 1 990560100 60 1010565121 69 #
point $-1 1.5385 0.40600000000000003 6.9359999999999999 #
coedge $-1 $914 $914 $845 $915 forward $980 $-1 #
edge $981 $982 0 $982 6.2831853071795862 $914 $983 forward 7 unknown #
loop $-1 $-1 $846 $969 #
attrib_edge_convexity-kcp-attrib $-1 $984 $-1 $847 1 #
vertex $-1 $847 $985 #
ellipse-curve $-1 1.4099999999999999 0.40600000000000003 7.4359999999999999 0 0 -1 -0.203125 0 0 1 I I #
convexity-sys-attrib $-1 $-1 $849 $783 #
point $-1 2.8631250000000001 0 7.4359999999999999 #
coedge $-1 $986 $852 $855 $928 reversed $924 $-1 #
coedge $-1 $852 $986 $860 $933 forward $924 $-1 #
loop $-1 $-1 $852 $987 #
attrib_edge_convexity-kcp-attrib $-1 $988 $-1 $853 1 #
straight-curve $-1 -3.2858159209228401 0.15937784941958599 7.4359999999999999 -0.98480775301220802 -0.173648177666931 0 I I #
coedge $-1 $855 $854 $975 $989 reversed $856 $-1 #
edge $-1 $990 -0.5 $858 0 $922 $991 forward 7 unknown #
face $992 $987 $856 $18 $-1 $993 reversed single #
convexity-sys-attrib $-1 $-1 $857 $786 #
point $-1 -3.2858159209228401 0.15937784941958599 7.4359999999999999 #
coedge $-1 $861 $860 $974 $994 reversed $862 $-1 #
edge $-1 $995 -0.5 $864 0 $860 $996 forward 7 unknown #
face $997 $766 $862 $18 $-1 $998 reversed single #
convexity-sys-attrib $-1 $-1 $863 $788 #
point $-1 -1.3162004148984201 0.50667420475344704 7.4359999999999999 #
edge $-1 $940 -1.9999999999999942 $938 0 $866 $999 forward 7 unknown #
vertex $-1 $867 $1000 #
straight-curve $-1 -1.2293763260649599 0.014270328247343001 7.4359999999999999 0 0 1 I I #
vertex $-1 $868 $1001 #
straight-curve $-1 -3.1989918320893702 -0.33302602708651702 7.4359999999999999 0 0 1 I I #
model_id-kcp-attrib $-1 $-1 $-1 $869 1 990560100 60 1010565121 15 #
plane-surface $-1 -1.2293763260649599 0.014270328247343001 7.4359999999999999 0.17364817766693003 -0.98480775301220813 0 0 0 -1 forward_v I I I I #
coedge $-1 $874 $873 $976 $1002 reversed $875 $-1 #
convexity-sys-attrib $-1 $-1 $876 $797 #
edge $1003 $948 -7.25 $891 0 $878 $1004 forward 7 unknown #
attrib_edge_convexity-kcp-attrib $-1 $1005 $-1 $879 1 #
vertex $-1 $879 $1006 #
straight-curve $-1 3 -0.75 7.4359999999999999 0 0 1 I I #
edge $1007 $888 -7.25 $952 0 $882 $1008 forward 7 unknown #
attrib_edge_convexity-kcp-attrib $-1 $1009 $-1 $883 1 #
vertex $-1 $883 $1010 #
straight-curve $-1 3 0.75 7.4359999999999999 0 0 1 I I #
model_id-kcp-attrib $-1 $-1 $-1 $884 1 990560100 60 1010565121 14 #
plane-surface $-1 3 0.75 7.4359999999999999 0 -1 0 0 0 -1 forward_v I I I I #
ellipse-curve $-1 -4.25 0 6.9359999999999999 0 0 -1 0 0.75 0 1 I I #
point $-1 -4.25 0.75 6.9359999999999999 #
convexity-sys-attrib $-1 $-1 $890 $812 #
point $-1 -4.25 -0.75 6.9359999999999999 #
model_id-kcp-attrib $-1 $-1 $-1 $894 1 990560100 60 1010565121 13 #
plane-surface $-1 3 -0.75 7.4359999999999999 -1 0 0 0 0 1 forward_v I I I I #
coedge $-1 $962 $962 $897 $963 forward $1011 $-1 #
edge $1012 $1013 -3.1415926535897931 $1013 3.1415926535897931 $962 $1014 forward 7 unknown #
loop $1015 $-1 $898 $901 #
attrib_edge_convexity-kcp-attrib $-1 $1016 $-1 $899 1 #
vertex $1017 $899 $1018 #
ellipse-curve $-1 1.4099999999999999 0.40600000000000003 7.1859999999999999 0 0 -1 0.1285 0 0 1 I I #
model_id-kcp-attrib $-1 $-1 $-1 $901 1 990560100 60 1010565121 21 #
face $1019 $1020 $1021 $18 $-1 $1022 reversed single #
loop $-1 $964 $1023 $901 #
plane-surface $-1 1.4099999999999999 0.40600000000000003 7.1859999999999999 0 0 1 1 0 0 forward_v I I I I #
coedge $-1 $972 $972 $904 $973 forward $902 $-1 #
edge $1024 $1025 0 $1025 6.2831853071795862 $972 $1026 forward 7 unknown #
coedge $-1 $1027 $905 $932 $994 forward $836 $-1 #
coedge $-1 $905 $1027 $927 $989 forward $836 $-1 #
coedge $-1 $907 $906 $944 $1002 forward $771 $-1 #
convexity-sys-attrib $-1 $-1 $908 $838 #
model_id-kcp-attrib $-1 $-1 $-1 $909 1 990560100 60 1010565121 76 #
point $-1 1.5385 -0.40600000000000003 6.9359999999999999 #
loop $-1 $-1 $914 $1028 #
attrib_edge_convexity-kcp-attrib $-1 $1029 $-1 $915 1 #
vertex $-1 $915 $1030 #
ellipse-curve $-1 1.4099999999999999 -0.40600000000000003 7.4359999999999999 0 0 1 0.203125 0 0 1 I I #
convexity-sys-attrib $-1 $-1 $917 $847 #
point $-1 1.6131249999999999 0.40600000000000003 7.4359999999999999 #
coedge $-1 $923 $922 $1027 $1031 reversed $924 $-1 #
face $1032 $934 $924 $18 $-1 $1033 reversed single #
convexity-sys-attrib $-1 $-1 $925 $853 #
edge $-1 $990 -3.1415926535897585 $940 -5.717648576819572e-015 $927 $1034 forward 7 unknown #
vertex $-1 $928 $1035 #
straight-curve $-1 -3.2858159209228401 0.15937784941958599 7.4359999999999999 8.8817841970012504e-016 -1.4432899320127e-015 1 I I #
model_id-kcp-attrib $-1 $-1 $-1 $929 1 990560100 60 1010565121 16 #
cone-surface $-1 -3.2424038765061001 -0.086824088833464999 7.4359999999999999 0 0 1 0.25 0 0 1 I I 0 1 0.25 forward I I I I #
edge $-1 $938 -3.1415926535898131 $995 -1.870725796493396e-014 $932 $1036 forward 7 unknown #
vertex $-1 $933 $1037 #
straight-curve $-1 -1.3162004148984201 0.50667420475344704 7.4359999999999999 0 8.8817841970012504e-016 1 I I #
model_id-kcp-attrib $-1 $-1 $-1 $934 1 990560100 60 1010565121 18 #
cone-surface $-1 -1.27278837048169 0.26047226650039601 7.4359999999999999 0 0 1 0.25 0 0 1 I I 0 1 0.25 forward I I I I #
straight-curve $-1 -1.2293763260649599 0.014270328247343001 6.9359999999999999 0.98480775301220802 0.17364817766693 0 I I #
point $-1 -1.2293763260649599 0.014270328247343001 6.9359999999999999 #
point $-1 -3.1989918320893702 -0.33302602708651702 6.9359999999999999 #
edge $1038 $952 -1.5 $948 0 $944 $1039 forward 7 unknown #
model_id-kcp-attrib $-1 $1040 $-1 $946 1 990560100 60 1010565121 28 #
straight-curve $-1 -4.25 -0.75 6.9359999999999999 -1 0 0 I I #
convexity-sys-attrib $-1 $-1 $947 $879 #
point $-1 3 -0.75 6.9359999999999999 #
model_id-kcp-attrib $-1 $-1 $-1 $950 1 990560100 60 1010565121 27 #
straight-curve $-1 3 0.75 6.9359999999999999 1 0 0 I I #
convexity-sys-attrib $-1 $-1 $951 $883 #
point $-1 3 0.75 6.9359999999999999 #
loop $1041 $-1 $962 $1020 #
attrib_edge_convexity-kcp-attrib $-1 $1042 $-1 $963 1 #
vertex $1043 $963 $1044 #
ellipse-curve $-1 1.4099999999999999 -0.40600000000000003 7.1859999999999999 0 0 -1 0.1285 0 0 1 I I #
model_id-kcp-attrib $-1 $-1 $-1 $964 1 990560100 60 1010565121 68 #
convexity-sys-attrib $-1 $-1 $965 $899 #
model_id-kcp-attrib $-1 $-1 $-1 $966 1 990560100 60 1010565121 70 #
point $-1 1.2815000000000001 0.40600000000000003 7.1859999999999999 #
model_id-kcp-attrib $-1 $-1 $-1 $969 1 990560100 60 1010565121 22 #
face $1045 $1028 $1046 $18 $-1 $1047 reversed single #
loop $-1 $916 $1048 $969 #
cone-surface $-1 1.4099999999999999 0.40600000000000003 7.4359999999999999 0 0 1 0.203125 0 0 1 I I 0 1 0.203125 forward I I I I #
coedge $-1 $1023 $1023 $1048 $1049 reversed $970 $-1 #
attrib_edge_convexity-kcp-attrib $-1 $1050 $-1 $973 2 #
vertex $-1 $973 $1051 #
ellipse-curve $-1 2.6600000000000001 0 7.1859999999999999 0 0 -1 0.203125 0 0 1 I I #
coedge $-1 $975 $974 $986 $1031 forward $836 $-1 #
face $1052 $-1 $1053 $18 $-1 $1054 reversed single #
convexity-sys-attrib $-1 $-1 $981 $915 #
point $-1 1.6131249999999999 -0.40600000000000003 7.4359999999999999 #
edge $-1 $995 -2.0000000000000044 $990 0 $986 $1055 forward 7 unknown #
model_id-kcp-attrib $-1 $-1 $-1 $987 1 990560100 60 1010565121 17 #
plane-surface $-1 -3.2858159209228401 0.15937784941958599 7.4359999999999999 -0.173648177666931 0.98480775301220802 0 0 0 1 forward_v I I I I #
ellipse-curve $-1 -3.2424038765061001 -0.086824088833464999 6.9359999999999999 0 0 1 0.043412044416731299 -0.24620193825305201 0 1 I I #
point $-1 -3.2858159209228401 0.15937784941958699 6.9359999999999999 #
ellipse-curve $-1 -1.27278837048169 0.26047226650039601 6.9359999999999999 0 0 1 -0.043412044416734998 0.24620193825305201 0 1 I I #
point $-1 -1.3162004148984201 0.50667420475344704 6.9359999999999999 #
model_id-kcp-attrib $-1 $1056 $-1 $1002 1 990560100 60 1010565121 26 #
straight-curve $-1 3 -0.75 6.9359999999999999 0 -1 0 I I #
attrib_edge_convexity-kcp-attrib $-1 $1057 $1003 $946 1 #
model_id-kcp-attrib $-1 $-1 $-1 $1011 1 990560100 60 1010565121 75 #
convexity-sys-attrib $-1 $-1 $1012 $963 #
model_id-kcp-attrib $-1 $-1 $-1 $1013 1 990560100 60 1010565121 77 #
point $-1 1.2815000000000001 -0.40600000000000003 7.1859999999999999 #
model_id-kcp-attrib $-1 $-1 $-1 $1020 1 990560100 60 1010565121 23 #
loop $-1 $1011 $1058 $1020 #
plane-surface $-1 1.4099999999999999 -0.40600000000000003 7.1859999999999999 0 0 -1 -1 0 0 forward_v I I I I #
coedge $-1 $1048 $1048 $1023 $1049 forward $1021 $-1 #
edge $1059 $1060 0 $1060 6.2831853071795862 $1048 $1061 forward 7 unknown #
convexity-sys-attrib $-1 $-1 $1024 $973 #
point $-1 2.8631250000000001 0 7.1859999999999999 #
model_id-kcp-attrib $-1 $-1 $-1 $1028 1 990560100 60 1010565121 24 #
loop $-1 $980 $1062 $1028 #
cone-surface $-1 1.4099999999999999 -0.40600000000000003 7.4359999999999999 0 0 -1 0.203125 0 0 1 I I 0 1 0.203125 forward I I I I #
straight-curve $-1 -3.2858159209228401 0.15937784941958699 6.9359999999999999 -0.98480775301220802 -0.17364817766693 0 I I #
attrib_edge_convexity-kcp-attrib $-1 $1063 $1038 $1002 1 #
convexity-sys-attrib $-1 $-1 $1040 $946 #
coedge $-1 $1058 $1058 $1062 $1064 forward $1046 $-1 #
attrib_edge_convexity-kcp-attrib $-1 $1065 $-1 $1049 2 #
vertex $-1 $1049 $1066 #
ellipse-curve $-1 1.4099999999999999 0.40600000000000003 7.1859999999999999 0 0 -1 0.203125 0 0 1 I I #
coedge $-1 $1062 $1062 $1058 $1064 reversed $1053 $-1 #
convexity-sys-attrib $-1 $-1 $1056 $1002 #
edge $1067 $1068 -3.1415926535897931 $1068 3.1415926535897931 $1062 $1069 forward 7 unknown #
convexity-sys-attrib $-1 $-1 $1059 $1049 #
point $-1 1.6131249999999999 0.40600000000000003 7.1859999999999999 #
attrib_edge_convexity-kcp-attrib $-1 $1070 $-1 $1064 2 #
vertex $-1 $1064 $1071 #
ellipse-curve $-1 1.4099999999999999 -0.40600000000000003 7.1859999999999999 0 0 1 -0.203125 0 0 1 I I #
convexity-sys-attrib $-1 $-1 $1067 $1064 #
point $-1 1.6131249999999999 -0.40600000000000003 7.1859999999999999 #
End-of-ACIS-data 