104 732 0 0                             
body $-1 $1 $-1 $2 #
lump $-1 $-1 $3 $0 #
transform $-1 1 0 0 0 1 0 0 0 1 0 0 0 1 0 0 0 #
shell $-1 $-1 $-1 $4 $1 #
face $5 $6 $7 $3 $-1 $8 1 #
face_name-twe-attrib $-1 $-1 $-1 $4 1 #
face $9 $10 $11 $3 $-1 $12 0 #
loop $13 $14 $15 $4 #
plane-surface $16 0 0 -1.6875 0 0 1 1 0 0 0 #
face_name-twe-attrib $-1 $-1 $-1 $6 2 #
face $17 $18 $19 $3 $-1 $20 0 #
loop $21 $22 $23 $6 #
plane-surface $24 0 0 1.6875 0 0 1 1 0 0 0 #
loop_type-twe-attrib $-1 $-1 $-1 $7 0 #
loop $25 $-1 $26 $4 #
coedge $-1 $27 $28 $29 $30 0 $7 $-1 #
surf-twe-attrib $-1 $-1 $-1 $8 4 #
face_name-twe-attrib $-1 $-1 $-1 $10 3 #
face $31 $32 $33 $3 $-1 $34 0 #
loop $35 $-1 $29 $10 #
plane-surface $36 -0.75 1 -1.6875 -1 0 0 0 0 1 0 #
loop_type-twe-attrib $-1 $-1 $-1 $11 0 #
loop $37 $-1 $38 $6 #
coedge $-1 $39 $40 $41 $42 1 $11 $-1 #
surf-twe-attrib $-1 $-1 $-1 $12 6 #
loop_type-twe-attrib $-1 $-1 $-1 $14 1 #
coedge $-1 $26 $26 $43 $44 0 $14 $-1 #
coedge $-1 $45 $15 $46 $47 0 $7 $-1 #
coedge $-1 $15 $48 $49 $50 0 $7 $-1 #
coedge $-1 $51 $52 $15 $30 1 $19 $-1 #
edge $53 $54 $55 $29 $56 0 #
face_name-twe-attrib $-1 $-1 $-1 $18 4 #
face $57 $58 $59 $3 $-1 $60 1 #
loop $61 $-1 $49 $18 #
plane-surface $62 -0.75 0.070710678118655 -1.6875 -0.70710678118656 -0.707106781186535 0 0 0 1 0 #
loop_type-twe-attrib $-1 $-1 $-1 $19 0 #
surf-twe-attrib $-1 $-1 $-1 $20 10 #
loop_type-twe-attrib $-1 $-1 $-1 $22 1 #
coedge $-1 $38 $38 $63 $64 1 $22 $-1 #
coedge $-1 $65 $23 $66 $67 1 $11 $-1 #
coedge $-1 $23 $68 $69 $70 1 $11 $-1 #
coedge $-1 $52 $51 $23 $42 0 $19 $-1 #
edge $71 $72 $73 $41 $74 0 #
coedge $-1 $43 $43 $26 $44 1 $75 $-1 #
edge $76 $77 $77 $43 $78 0 #
coedge $-1 $79 $27 $80 $81 0 $7 $-1 #
coedge $-1 $82 $83 $27 $47 1 $84 $-1 #
edge $85 $55 $86 $46 $87 0 #
coedge $-1 $28 $88 $89 $90 0 $7 $-1 #
coedge $-1 $91 $92 $28 $50 1 $33 $-1 #
edge $93 $94 $54 $49 $95 0 #
coedge $-1 $41 $29 $92 $96 1 $19 $-1 #
coedge $-1 $29 $41 $82 $97 0 $19 $-1 #
edge_name-twe-attrib $-1 $-1 $-1 $30 1 8704 #
vertex $-1 $96 $98 #
vertex $-1 $97 $99 #
straight-curve $100 -0.75 1 -1.6875 0 1 0 #
face_name-twe-attrib $-1 $-1 $-1 $32 5 #
face $101 $102 $103 $3 $-1 $104 0 #
loop $105 $-1 $89 $32 #
cone-surface $106 -0.75 0 -1.6875 0 0 1 0.05 0 0 1 0 1 0 #
loop_type-twe-attrib $-1 $-1 $-1 $33 0 #
surf-twe-attrib $-1 $-1 $-1 $34 18 #
coedge $-1 $63 $63 $38 $64 0 $107 $-1 #
edge $108 $109 $109 $63 $110 0 #
coedge $-1 $111 $39 $112 $113 1 $11 $-1 #
coedge $-1 $92 $91 $39 $67 0 $33 $-1 #
edge $114 $115 $72 $66 $116 0 #
coedge $-1 $40 $117 $118 $119 1 $11 $-1 #
coedge $-1 $83 $82 $40 $70 0 $84 $-1 #
edge $120 $73 $121 $69 $122 0 #
edge_name-twe-attrib $-1 $-1 $-1 $42 2 8704 #
vertex $-1 $96 $123 #
vertex $-1 $97 $124 #
straight-curve $125 -0.75 1 1.6875 0 1 0 #
loop $126 $127 $43 $128 #
edge_name-twe-attrib $-1 $-1 $-1 $44 63 8704 #
vertex $-1 $44 $129 #
ellipse-curve $130 0 0.3475 -1.6875 -1e-15 0 1 -0.1875 0 -1.875e-16 1 #
coedge $-1 $131 $45 $132 $133 0 $7 $-1 #
coedge $-1 $134 $135 $45 $81 1 $136 $-1 #
edge $137 $86 $138 $80 $139 0 #
coedge $-1 $69 $46 $52 $97 1 $84 $-1 #
coedge $-1 $46 $69 $134 $140 0 $84 $-1 #
loop $141 $142 $46 $143 #
edge_name-twe-attrib $-1 $-1 $-1 $47 39 8704 #
vertex $-1 $140 $144 #
straight-curve $145 0.75 1 -1.6875 1 0 0 #
coedge $-1 $48 $146 $147 $148 0 $7 $-1 #
coedge $-1 $149 $150 $48 $90 1 $59 $-1 #
edge $151 $152 $94 $89 $153 0 #
coedge $-1 $66 $49 $150 $154 1 $33 $-1 #
coedge $-1 $49 $66 $51 $96 0 $33 $-1 #
edge_name-twe-attrib $-1 $-1 $-1 $50 3 8704 #
vertex $-1 $154 $155 #
straight-curve $156 -0.75 0.070710678118655 -1.6875 -0.707106781186527 0.707106781186568 0 #
edge $157 $72 $54 $92 $158 0 #
edge $159 $73 $55 $82 $160 0 #
point $-1 -0.75 0.070710678118655 -1.6875 #
point $-1 -0.75 1 -1.6875 #
cur-twe-attrib $-1 $-1 $-1 $56 30 #
face_name-twe-attrib $-1 $-1 $-1 $58 6 #
face $161 $162 $163 $3 $-1 $164 0 #
loop $165 $-1 $147 $58 #
plane-surface $166 -0.785355339059327 -0.035355339059328 -1.6875 0.707106781186549 0.707106781186546 0 0 0 -1 0 #
loop_type-twe-attrib $-1 $-1 $-1 $59 0 #
surf-twe-attrib $-1 $-1 $-1 $60 32 #
loop $167 $168 $63 $169 #
edge_name-twe-attrib $-1 $-1 $-1 $64 56 8704 #
vertex $-1 $64 $170 #
ellipse-curve $171 0 0.3475 1.6875 -1e-15 0 1 0.1875 0 1.875e-16 1 #
coedge $-1 $172 $65 $173 $174 1 $11 $-1 #
coedge $-1 $150 $149 $65 $113 0 $59 $-1 #
edge $175 $176 $115 $112 $177 0 #
edge_name-twe-attrib $-1 $-1 $-1 $67 4 8704 #
vertex $-1 $154 $178 #
straight-curve $179 -0.75 0.070710678118655 1.6875 -0.707106781186544 0.707106781186551 0 #
coedge $-1 $68 $180 $181 $182 1 $11 $-1 #
coedge $-1 $135 $134 $68 $119 0 $136 $-1 #
edge $183 $121 $184 $118 $185 0 #
edge_name-twe-attrib $-1 $-1 $-1 $70 41 8704 #
vertex $-1 $140 $186 #
straight-curve $187 0.75 1 1.6875 1 0 0 #
point $-1 -0.75 0.070710678118655 1.6875 #
point $-1 -0.75 1 1.6875 #
cur-twe-attrib $-1 $-1 $-1 $74 42 #
loop_type-twe-attrib $-1 $-1 $-1 $75 0 #
loop $188 $-1 $189 $128 #
face $190 $-1 $75 $3 $-1 $191 1 #
point $-1 0.1875 0.3475 -1.6875 #
cur-twe-attrib $-1 $-1 $-1 $78 44 #
coedge $-1 $192 $79 $193 $194 0 $7 $-1 #
coedge $-1 $195 $196 $79 $133 1 $197 $-1 #
edge $198 $138 $199 $132 $200 0 #
coedge $-1 $118 $80 $83 $140 1 $136 $-1 #
coedge $-1 $80 $118 $195 $201 0 $136 $-1 #
loop $202 $-1 $80 $203 #
edge_name-twe-attrib $-1 $-1 $-1 $81 36 8704 #
vertex $-1 $201 $204 #
straight-curve $205 0.75 0.070710678118655 -1.6875 0 -1 0 #
edge $206 $121 $86 $83 $207 0 #
loop_type-twe-attrib $-1 $-1 $-1 $84 0 #
loop $208 $209 $210 $143 #
face $211 $212 $84 $3 $-1 $213 0 #
point $-1 0.75 1 -1.6875 #
cur-twe-attrib $-1 $-1 $-1 $87 47 #
coedge $-1 $88 $214 $215 $216 0 $7 $-1 #
coedge $-1 $217 $218 $88 $148 1 $103 $-1 #
edge $219 $220 $152 $147 $221 0 #
coedge $-1 $112 $89 $218 $222 1 $59 $-1 #
coedge $-1 $89 $112 $91 $154 0 $59 $-1 #
edge_name-twe-attrib $-1 $-1 $-1 $90 6 8704 #
vertex $-1 $222 $223 #
ellipse-curve $224 -0.75 0 -1.6875 0 0 1 0.0353553390593308 0.0353553390593239 0 1 #
edge $225 $115 $94 $150 $226 0 #
point $-1 -0.71464466094067 0.035355339059323 -1.6875 #
cur-twe-attrib $-1 $-1 $-1 $95 50 #
edge_name-twe-attrib $-1 $-1 $-1 $96 5 8448 #
straight-curve $227 -0.75 0.070710678118655 -1.6875 0 0 -1 #
edge_name-twe-attrib $-1 $-1 $-1 $97 40 8704 #
straight-curve $228 -0.75 1 -1.6875 0 0 -1 #
face_name-twe-attrib $-1 $-1 $-1 $102 7 #
face $229 $230 $231 $3 $-1 $232 0 #
loop $233 $-1 $215 $102 #
plane-surface $234 -0.820710678118655 0 -1.6875 0 1 0 0 0 1 0 #
loop_type-twe-attrib $-1 $-1 $-1 $103 0 #
surf-twe-attrib $-1 $-1 $-1 $104 58 #
loop_type-twe-attrib $-1 $-1 $-1 $107 0 #
loop $235 $-1 $236 $169 #
face $237 $128 $107 $3 $-1 $238 1 #
point $-1 0.1875 0.3475 1.6875 #
cur-twe-attrib $-1 $-1 $-1 $110 64 #
coedge $-1 $239 $111 $240 $241 1 $11 $-1 #
coedge $-1 $218 $217 $111 $174 0 $103 $-1 #
edge $242 $243 $176 $173 $244 0 #
edge_name-twe-attrib $-1 $-1 $-1 $113 7 8704 #
vertex $-1 $222 $245 #
ellipse-curve $246 -0.75 0 1.6875 0 0 1 0.0353553390593308 0.0353553390593239 0 1 #
point $-1 -0.714644660940669 0.0353553390593239 1.6875 #
cur-twe-attrib $-1 $-1 $-1 $116 67 #
coedge $-1 $117 $247 $248 $249 1 $11 $-1 #
coedge $-1 $196 $195 $117 $182 0 $197 $-1 #
edge $250 $184 $251 $181 $252 0 #
edge_name-twe-attrib $-1 $-1 $-1 $119 37 8704 #
vertex $-1 $201 $253 #
straight-curve $254 0.75 0.070710678118655 1.6875 0 -1 0 #
point $-1 0.75 1 1.6875 #
cur-twe-attrib $-1 $-1 $-1 $122 70 #
loop_type-twe-attrib $-1 $-1 $-1 $127 1 #
coedge $-1 $255 $256 $257 $258 1 $127 $-1 #
face_name-twe-attrib $-1 $-1 $-1 $128 28 #
cone-surface $259 0 0.3475 -1.721875 0 0 -1 0.1875 0 0 1 0 1 0 #
coedge $-1 $260 $131 $261 $262 0 $7 $-1 #
coedge $-1 $263 $264 $131 $194 1 $265 $-1 #
edge $266 $199 $267 $193 $268 0 #
coedge $-1 $181 $132 $135 $201 1 $197 $-1 #
coedge $-1 $132 $181 $263 $269 0 $197 $-1 #
loop $270 $-1 $132 $271 #
edge_name-twe-attrib $-1 $-1 $-1 $133 33 8704 #
vertex $-1 $269 $272 #
straight-curve $273 0.714644660940669 0.0353553390593239 -1.6875 -0.707106781186545 -0.70710678118655 0 #
edge $274 $184 $138 $135 $275 0 #
loop_type-twe-attrib $-1 $-1 $-1 $136 0 #
face $276 $143 $136 $3 $-1 $277 0 #
point $-1 0.75 0.070710678118655 -1.6875 #
cur-twe-attrib $-1 $-1 $-1 $139 81 #
edge_name-twe-attrib $-1 $-1 $-1 $140 42 8704 #
straight-curve $278 0.75 1 -1.6875 0 0 -1 #
loop_type-twe-attrib $-1 $-1 $-1 $142 1 #
loop $279 $280 $281 $143 #
coedge $-1 $210 $210 $282 $283 1 $142 $-1 #
face_name-twe-attrib $-1 $-1 $-1 $143 16 #
face $284 $285 $286 $3 $-1 $287 1 #
plane-surface $288 0.75 1 -1.6875 0 1 0 0 0 1 0 #
coedge $-1 $146 $289 $290 $291 0 $7 $-1 #
coedge $-1 $292 $293 $146 $216 1 $163 $-1 #
edge $294 $295 $220 $215 $296 0 #
coedge $-1 $173 $147 $293 $297 1 $103 $-1 #
coedge $-1 $147 $173 $149 $222 0 $103 $-1 #
edge_name-twe-attrib $-1 $-1 $-1 $148 9 8704 #
vertex $-1 $297 $298 #
straight-curve $299 -0.785355339059327 -0.0353553390593281 -1.6875 0.707106781186549 -0.707106781186546 0 #
edge $300 $176 $152 $218 $301 0 #
point $-1 -0.785355339059327 -0.0353553390593281 -1.6875 #
cur-twe-attrib $-1 $-1 $-1 $153 90 #
edge_name-twe-attrib $-1 $-1 $-1 $154 8 20480 #
straight-curve $302 -0.71464466094067 0.035355339059323 -1.6875 -2.30268479181514e-16 -2.7961172472041e-16 -1 #
cur-twe-attrib $-1 $-1 $-1 $158 96 #
cur-twe-attrib $-1 $-1 $-1 $160 97 #
face_name-twe-attrib $-1 $-1 $-1 $162 8 #
face $303 $304 $305 $3 $-1 $306 0 #
loop $307 $-1 $290 $162 #
plane-surface $308 -1.6875 0 -1.6875 -1 0 0 0 0 1 0 #
loop_type-twe-attrib $-1 $-1 $-1 $163 0 #
surf-twe-attrib $-1 $309 $-1 $164 310 #
loop_type-twe-attrib $-1 $-1 $-1 $168 1 #
coedge $-1 $311 $312 $313 $314 1 $168 $-1 #
face_name-twe-attrib $-1 $-1 $-1 $169 27 #
cone-surface $315 0 0.3475 1.721875 0 0 -1 0.1875 0 0 1 0 1 0 #
coedge $-1 $316 $172 $317 $318 1 $11 $-1 #
coedge $-1 $293 $292 $172 $241 0 $163 $-1 #
edge $319 $320 $243 $240 $321 0 #
edge_name-twe-attrib $-1 $-1 $-1 $174 10 8704 #
vertex $-1 $297 $322 #
straight-curve $323 -0.785355339059327 -0.035355339059328 1.6875 0.707106781186547 -0.707106781186548 0 #
point $-1 -0.785355339059327 -0.035355339059328 1.6875 #
cur-twe-attrib $-1 $-1 $-1 $177 113 #
coedge $-1 $180 $324 $325 $326 1 $11 $-1 #
coedge $-1 $264 $263 $180 $249 0 $265 $-1 #
edge $327 $251 $328 $248 $329 0 #
edge_name-twe-attrib $-1 $-1 $-1 $182 34 8704 #
vertex $-1 $269 $330 #
straight-curve $331 0.71464466094067 0.035355339059323 1.6875 -0.707106781186527 -0.707106781186568 0 #
point $-1 0.75 0.070710678118655 1.6875 #
cur-twe-attrib $-1 $-1 $-1 $185 119 #
coedge $-1 $332 $189 $333 $334 1 $127 $-1 #
coedge $-1 $189 $335 $336 $337 1 $127 $-1 #
coedge $-1 $336 $333 $189 $258 0 $338 $-1 #
edge $339 $340 $341 $189 $342 0 #
surf-twe-attrib $-1 $343 $-1 $191 128 #
coedge $-1 $344 $192 $345 $346 0 $7 $-1 #
coedge $-1 $347 $348 $192 $262 1 $349 $-1 #
edge $350 $267 $351 $261 $352 0 #
coedge $-1 $248 $193 $196 $269 1 $265 $-1 #
coedge $-1 $193 $248 $347 $353 0 $265 $-1 #
loop $354 $-1 $193 $355 #
edge_name-twe-attrib $-1 $-1 $-1 $194 30 8704 #
vertex $-1 $353 $356 #
ellipse-curve $357 0.75 0 -1.6875 0 0 1 0.0353553390593267 -0.0353553390593281 0 1 #
edge $358 $251 $199 $196 $359 0 #
loop_type-twe-attrib $-1 $-1 $-1 $197 0 #
face $360 $203 $197 $3 $-1 $361 0 #
point $-1 0.714644660940669 0.0353553390593239 -1.6875 #
cur-twe-attrib $-1 $-1 $-1 $200 133 #
edge_name-twe-attrib $-1 $-1 $-1 $201 38 8448 #
straight-curve $362 0.75 0.070710678118655 -1.6875 0 0 -1 #
face_name-twe-attrib $-1 $-1 $-1 $203 15 #
plane-surface $363 0.75 0.070710678118655 -1.6875 1 0 0 0 0 -1 0 #
cur-twe-attrib $-1 $-1 $-1 $207 140 #
loop_type-twe-attrib $-1 $-1 $-1 $209 1 #
loop $364 $-1 $365 $143 #
coedge $-1 $281 $281 $366 $367 1 $209 $-1 #
coedge $-1 $282 $282 $210 $283 0 $368 $-1 #
edge $369 $370 $370 $282 $371 0 #
face_name-twe-attrib $-1 $-1 $-1 $212 17 #
face $372 $373 $368 $3 $-1 $374 1 #
loop $375 $376 $377 $212 #
plane-surface $378 0 -0.2 0 0 -1 0 0 0 -1 0 #
surf-twe-attrib $-1 $-1 $-1 $213 143 #
coedge $-1 $214 $344 $379 $380 0 $7 $-1 #
coedge $-1 $381 $382 $214 $291 1 $231 $-1 #
edge $383 $384 $295 $290 $385 0 #
coedge $-1 $240 $215 $382 $386 1 $163 $-1 #
coedge $-1 $215 $240 $217 $297 0 $163 $-1 #
edge_name-twe-attrib $-1 $-1 $-1 $216 12 8704 #
vertex $-1 $386 $387 #
straight-curve $388 -0.820710678118655 0 -1.6875 1 0 0 #
edge $389 $243 $220 $293 $390 0 #
point $-1 -0.820710678118655 0 -1.6875 #
cur-twe-attrib $-1 $-1 $-1 $221 148 #
edge_name-twe-attrib $-1 $-1 $-1 $222 11 20480 #
straight-curve $391 -0.785355339059327 -0.0353553390593281 -1.6875 9.86864910777917e-17 -3.90634027182925e-17 -1 #
cur-twe-attrib $-1 $-1 $-1 $226 154 #
face_name-twe-attrib $-1 $-1 $-1 $230 9 #
face $392 $310 $393 $3 $-1 $394 0 #
loop $395 $396 $379 $230 #
plane-surface $397 -1.6875 -0.75 -1.6875 0 -1 0 0 0 -1 0 #
loop_type-twe-attrib $-1 $-1 $-1 $231 0 #
surf-twe-attrib $-1 $-1 $-1 $232 162 #
surf-twe-attrib $-1 $-1 $234 $164 102 #
face $398 $399 $400 $3 $-1 $401 0 #
coedge $-1 $402 $236 $403 $404 1 $168 $-1 #
coedge $-1 $236 $405 $406 $407 1 $168 $-1 #
coedge $-1 $406 $403 $236 $314 0 $408 $-1 #
edge $409 $410 $411 $236 $412 0 #
surf-twe-attrib $-1 $-1 $-1 $238 169 #
coedge $-1 $413 $239 $414 $415 1 $11 $-1 #
coedge $-1 $382 $381 $239 $318 0 $231 $-1 #
edge $416 $417 $320 $317 $418 0 #
edge_name-twe-attrib $-1 $-1 $-1 $241 13 8704 #
vertex $-1 $386 $419 #
straight-curve $420 -0.820710678118655 0 1.6875 1 0 0 #
point $-1 -0.820710678118655 0 1.6875 #
cur-twe-attrib $-1 $-1 $-1 $244 174 #
coedge $-1 $247 $413 $421 $422 1 $11 $-1 #
coedge $-1 $348 $347 $247 $326 0 $349 $-1 #
edge $423 $328 $424 $325 $425 0 #
edge_name-twe-attrib $-1 $-1 $-1 $249 31 8704 #
vertex $-1 $353 $426 #
ellipse-curve $427 0.75 0 1.6875 0 0 1 0.0353553390593267 -0.0353553390593281 0 1 #
point $-1 0.71464466094067 0.035355339059323 1.6875 #
cur-twe-attrib $-1 $-1 $-1 $252 182 #
coedge $-1 $428 $255 $429 $430 0 $127 $-1 #
coedge $-1 $257 $431 $255 $334 0 $338 $-1 #
edge $432 $433 $340 $255 $434 0 #
coedge $-1 $256 $428 $435 $436 1 $127 $-1 #
coedge $-1 $431 $257 $256 $337 0 $338 $-1 #
edge $437 $341 $438 $256 $439 0 #
loop $440 $-1 $431 $441 #
edge_name-twe-attrib $-1 $-1 $-1 $258 64 8704 #
vertex $-1 $334 $442 #
vertex $-1 $258 $443 #
intcurve-curve $444 0 { exactcur nubs 3 open 16 
	0 3 0.0363029368982312 1 0.0748739487479669 1 0.115362442644438 1 0.157124247844502 1 
	0.199164068954383 1 0.240333309052072 1 0.279606610807835 1 0.316990541631191 1 0.356162066162644 1 
	0.397244872565539 1 0.439269640933732 1 0.481087504354296 1 0.521688265269487 1 0.56040931280119 1 
	0.596879826710935 3 
	-0.1875 0.347500000000001 -1.35333235062756 
	-0.1875 0.359600978966078 -1.35333235062756 
	-0.185058254896189 0.384639833516533 -1.35464354287919 
	-0.173840072730326 0.421286204465019 -1.36037691161466 
	-0.154689367405533 0.455968592070141 -1.36915849007417 
	-0.12808286835131 0.486450101796963 -1.37938211931753 
	-0.0952370344424489 0.510732128376478 -1.38906912225359 
	-0.0582261996329526 0.527228863318912 -1.39637068201648 
	-0.0196213977524467 0.535294639755014 -1.40013666752547 
	0.019302389107166 0.535324198409022 -1.40015067006241 
	0.0578611483434393 0.527340013009573 -1.39642193552243 
	0.0948519433900784 0.510952522372678 -1.38916332842579 
	0.127749608663356 0.486758729354066 -1.37949679067623 
	0.154461167360007 0.456303083345673 -1.36925685350862 
	0.173728923802591 0.421569678409816 -1.36043236841769 
	0.18503632256899 0.384802642581377 -1.35465546998546 
	0.1875 0.359656837969914 -1.35333235062756 
	0.1875 0.347499999999999 -1.35333235062756 
	0 
	null_surface 
	null_surface 
	nullbs 
	nullbs 
	} #
surf-twe-attrib $-1 $-1 $259 $191 169 #
coedge $-1 $289 $260 $445 $446 0 $7 $-1 #
coedge $-1 $447 $448 $260 $346 1 $400 $-1 #
edge $449 $351 $450 $345 $451 0 #
coedge $-1 $325 $261 $264 $353 1 $349 $-1 #
coedge $-1 $261 $325 $447 $452 0 $349 $-1 #
loop $453 $-1 $261 $399 #
edge_name-twe-attrib $-1 $-1 $-1 $262 27 8704 #
vertex $-1 $452 $454 #
straight-curve $455 0.820710678118655 0 -1.6875 0.707106781186547 0.707106781186548 0 #
edge $456 $328 $267 $264 $457 0 #
loop_type-twe-attrib $-1 $-1 $-1 $265 0 #
face $458 $271 $265 $3 $-1 $459 1 #
point $-1 0.785355339059327 -0.035355339059328 -1.6875 #
cur-twe-attrib $-1 $-1 $-1 $268 194 #
edge_name-twe-attrib $-1 $-1 $-1 $269 35 20480 #
straight-curve $460 0.714644660940669 0.0353553390593239 -1.6875 -2.63163976207444e-16 2.73443819028048e-16 -1 #
face_name-twe-attrib $-1 $-1 $-1 $271 14 #
plane-surface $461 0.714644660940673 0.035355339059327 -1.6875 0.70710678118656 -0.707106781186535 0 0 0 -1 0 #
cur-twe-attrib $-1 $-1 $-1 $275 201 #
surf-twe-attrib $-1 $-1 $-1 $277 203 #
loop_type-twe-attrib $-1 $-1 $-1 $280 1 #
coedge $-1 $365 $365 $462 $463 0 $280 $-1 #
coedge $-1 $366 $366 $281 $367 0 $464 $-1 #
edge $465 $466 $466 $366 $467 0 #
loop $468 $469 $282 $285 #
edge_name-twe-attrib $-1 $-1 $-1 $283 44 8704 #
vertex $-1 $283 $470 #
ellipse-curve $471 0 1 0 0 1 0 -0.25 0 0 1 #
face_name-twe-attrib $-1 $-1 $-1 $285 18 #
face $472 $473 $474 $3 $-1 $475 1 #
cone-surface $476 0 1.075 0 0 -1 0 -0.25 0 0 1 0 1 0 #
loop_type-twe-attrib $-1 $-1 $-1 $286 1 #
loop $477 $-1 $478 $212 #
coedge $-1 $377 $377 $479 $480 0 $286 $-1 #
surf-twe-attrib $-1 $-1 $-1 $287 212 #
coedge $-1 $481 $482 $289 $380 1 $305 $-1 #
edge $483 $484 $384 $379 $485 0 #
coedge $-1 $317 $290 $482 $486 1 $231 $-1 #
coedge $-1 $290 $317 $292 $386 0 $231 $-1 #
edge_name-twe-attrib $-1 $-1 $-1 $291 15 8704 #
vertex $-1 $486 $487 #
straight-curve $488 -1.6875 0 -1.6875 0 1 0 #
edge $489 $320 $295 $382 $490 0 #
point $-1 -1.6875 0 -1.6875 #
cur-twe-attrib $-1 $491 $-1 $296 346 #
edge_name-twe-attrib $-1 $-1 $-1 $297 14 8448 #
straight-curve $492 -0.820710678118655 0 -1.6875 0 0 -1 #
cur-twe-attrib $-1 $-1 $-1 $301 222 #
face_name-twe-attrib $-1 $-1 $-1 $304 10 #
loop $493 $-1 $445 $304 #
plane-surface $494 1.6875 -0.75 -1.6875 1 0 0 0 0 -1 0 #
loop_type-twe-attrib $-1 $-1 $-1 $305 0 #
loop $495 $496 $497 $230 #
surf-twe-attrib $-1 $-1 $-1 $306 230 #
face_name-twe-attrib $-1 $-1 $-1 $310 11 #
face $498 $355 $349 $3 $-1 $499 0 #
loop $500 $-1 $345 $310 #
plane-surface $501 1.6875 0 -1.6875 0 1 0 0 0 1 0 #
coedge $-1 $502 $311 $503 $504 1 $168 $-1 #
coedge $-1 $313 $505 $311 $404 0 $408 $-1 #
edge $506 $507 $410 $311 $508 0 #
coedge $-1 $312 $502 $509 $510 0 $168 $-1 #
coedge $-1 $505 $313 $312 $407 0 $408 $-1 #
edge $511 $411 $512 $312 $513 0 #
loop $514 $-1 $505 $515 #
edge_name-twe-attrib $-1 $-1 $-1 $314 57 8704 #
vertex $-1 $404 $516 #
vertex $-1 $314 $517 #
intcurve-curve $518 0 { exactcur nubs 3 open 16 
	0 3 0.0364705139100721 1 0.0751915614420557 1 0.115792322357453 1 0.157610185778112 1 
	0.199634954146252 1 0.240717760548924 1 0.279889285079973 1 0.317273215902783 1 0.35654651765815 1 
	0.397715757755626 1 0.439755578865468 1 0.481517384065641 1 0.52200587796233 1 0.560576889812361 1 
	0.596879826710936 3 
	0.1875 0.3475 1.35333235062756 
	0.1875 0.359656837970024 1.35333235062756 
	0.185036322568949 0.384802642581692 1.35465546998549 
	0.173728923802377 0.421569678410357 1.3604323684178 
	0.154461167359574 0.456303083346304 1.3692568535088 
	0.127749608662734 0.486758729354638 1.37949679067645 
	0.0948519433893869 0.510952522373069 1.38916332842596 
	0.0578611483428827 0.527340013009731 1.39642193552251 
	0.0193023891069774 0.535324198409008 1.4001506700624 
	-0.019621397752173 0.53529463975501 1.40013666752547 
	-0.0582261996323209 0.527228863319094 1.39637068201657 
	-0.0952370344417007 0.510732128376906 1.38906912225377 
	-0.12808286835065 0.486450101797575 1.37938211931776 
	-0.154689367405078 0.455968592070809 1.36915849007436 
	-0.173840072730104 0.421286204465588 1.36037691161477 
	-0.185058254896145 0.384639833516862 1.35464354287922 
	-0.1875 0.359600978966192 1.35333235062756 
	-0.1875 0.3475 1.35333235062756 
	0 
	null_surface 
	null_surface 
	nullbs 
	nullbs 
	} #
coedge $-1 $324 $316 $519 $520 1 $11 $-1 #
coedge $-1 $482 $481 $316 $415 0 $305 $-1 #
edge $521 $522 $417 $414 $523 0 #
edge_name-twe-attrib $-1 $-1 $-1 $318 16 8704 #
vertex $-1 $486 $524 #
straight-curve $525 -1.6875 0 1.6875 0 1 0 #
point $-1 -1.6875 0 1.6875 #
cur-twe-attrib $-1 $526 $-1 $321 422 #
coedge $-1 $448 $447 $324 $422 0 $400 $-1 #
edge $527 $424 $528 $421 $529 0 #
edge_name-twe-attrib $-1 $-1 $-1 $326 28 8704 #
vertex $-1 $452 $530 #
straight-curve $531 0.820710678118655 0 1.6875 0.70710678118655 0.707106781186545 0 #
point $-1 0.785355339059327 -0.0353553390593281 1.6875 #
cur-twe-attrib $-1 $-1 $-1 $329 249 #
coedge $-1 $335 $332 $532 $533 1 $127 $-1 #
coedge $-1 $534 $535 $332 $430 1 $536 $-1 #
edge $537 $433 $538 $332 $539 0 #
coedge $-1 $333 $336 $534 $540 1 $338 $-1 #
edge_name-twe-attrib $-1 $-1 $-1 $334 65 8448 #
vertex $-1 $430 $541 #
intcurve-curve $542 0 { exactcur nubs 3 open 7 
	0 3 0.0343721013450645 1 0.0673615968605429 1 0.0995314959887074 1 0.131393087159962 1 
	0.163224730582201 1 0.195032758539826 3 
	-0.097756073980086 0.1875 -1.38787079034132 
	-0.107314468262575 0.193339944366312 -1.38546176361933 
	-0.124972560618794 0.206442349089396 -1.38026874646512 
	-0.147185344171266 0.22990859530195 -1.37213822415089 
	-0.164757201851327 0.256179021527208 -1.36461959379576 
	-0.177682773788466 0.284917922344763 -1.35843188858559 
	-0.18568566642878 0.315629406443764 -1.35430411390547 
	-0.1875 0.336897324014126 -1.35333235062756 
	-0.1875 0.347500000000001 -1.35333235062756 
	0 
	null_surface 
	null_surface 
	nullbs 
	nullbs 
	} #
coedge $-1 $535 $534 $335 $436 0 $536 $-1 #
edge $543 $438 $544 $335 $545 0 #
edge_name-twe-attrib $-1 $-1 $-1 $337 69 8448 #
vertex $-1 $540 $546 #
intcurve-curve $547 0 { exactcur nubs 3 open 7 
	0 3 0.0317747580353884 1 0.0635912351423961 1 0.0954622096214959 1 0.127656990317438 1 
	0.160662209363058 1 0.195032788777426 3 
	0.1875 0.347499999999999 -1.35333235062756 
	0.1875 0.336908413988203 -1.35333235062756 
	0.185688979434792 0.315656805481707 -1.35430231922125 
	0.177695996061607 0.28495585239747 -1.35842522583932 
	0.164774216370291 0.256207743419208 -1.36461194976629 
	0.147196719931082 0.229921046326485 -1.37213394900013 
	0.124975897600803 0.206444770094019 -1.3802677835017 
	0.107314045035216 0.19333968578478 -1.38546187028642 
	0.097756073980086 0.1875 -1.38787079034132 
	0 
	null_surface 
	null_surface 
	nullbs 
	nullbs 
	} #
loop_type-twe-attrib $-1 $-1 $-1 $338 1 #
face $548 $549 $550 $3 $-1 $551 1 #
point $-1 -0.1875 0.347500000000001 -1.35333235062756 #
point $-1 0.1875 0.347499999999999 -1.35333235062756 #
cur-twe-attrib $-1 $-1 $-1 $342 258 #
coedge $-1 $552 $553 $344 $446 1 $393 $-1 #
edge $554 $450 $484 $445 $555 0 #
coedge $-1 $421 $345 $348 $452 1 $400 $-1 #
coedge $-1 $345 $421 $552 $556 0 $400 $-1 #
edge_name-twe-attrib $-1 $-1 $-1 $346 24 8704 #
vertex $-1 $556 $557 #
straight-curve $558 1.6875 0 -1.6875 1 0 0 #
edge $559 $424 $351 $348 $560 0 #
loop_type-twe-attrib $-1 $-1 $-1 $349 0 #
point $-1 0.820710678118655 0 -1.6875 #
cur-twe-attrib $-1 $-1 $-1 $352 262 #
edge_name-twe-attrib $-1 $-1 $-1 $353 32 20480 #
straight-curve $561 0.785355339059327 -0.035355339059328 -1.6875 9.86864910777917e-17 2.87835598976892e-17 -1 #
face_name-twe-attrib $-1 $-1 $-1 $355 13 #
cone-surface $562 0.75 0 -1.6875 0 0 1 0.05 0 0 1 0 1 0 #
cur-twe-attrib $-1 $-1 $-1 $359 269 #
surf-twe-attrib $-1 $-1 $-1 $361 271 #
coedge $-1 $462 $462 $365 $463 1 $550 $-1 #
edge $563 $564 $564 $462 $565 0 #
loop $566 $408 $366 $515 #
edge_name-twe-attrib $-1 $-1 $-1 $367 48 8704 #
vertex $-1 $367 $567 #
ellipse-curve $568 0 1 1 0 1 0 -0.4 0 0 1 #
loop_type-twe-attrib $-1 $-1 $-1 $368 0 #
loop $569 $-1 $570 $285 #
point $-1 -0.25 1 0 #
cur-twe-attrib $-1 $-1 $-1 $371 283 #
face_name-twe-attrib $-1 $-1 $-1 $373 19 #
face $571 $572 $573 $3 $-1 $574 1 #
loop $575 $576 $479 $373 #
cone-surface $577 0 1.075 0 0 -1 0 -0.225 0 0 1 0 1 0 #
surf-twe-attrib $-1 $-1 $-1 $374 285 #
loop_type-twe-attrib $-1 $-1 $-1 $376 0 #
coedge $-1 $478 $478 $570 $578 0 $376 $-1 #
coedge $-1 $479 $479 $377 $480 1 $474 $-1 #
edge $579 $580 $580 $479 $581 0 #
coedge $-1 $414 $379 $553 $582 1 $305 $-1 #
coedge $-1 $379 $414 $381 $486 0 $305 $-1 #
edge_name-twe-attrib $-1 $-1 $-1 $380 18 8704 #
vertex $-1 $582 $583 #
straight-curve $584 -1.6875 -0.75 -1.6875 -1 0 0 #
edge $585 $417 $384 $482 $586 0 #
point $-1 -1.6875 -0.75 -1.6875 #
cur-twe-attrib $-1 $-1 $-1 $385 291 #
edge_name-twe-attrib $-1 $-1 $-1 $386 17 8704 #
straight-curve $587 -1.6875 0 -1.6875 0 0 -1 #
cur-twe-attrib $-1 $-1 $388 $296 216 #
cur-twe-attrib $-1 $-1 $-1 $390 297 #
loop_type-twe-attrib $-1 $-1 $-1 $393 0 #
surf-twe-attrib $-1 $-1 $-1 $394 304 #
loop_type-twe-attrib $-1 $-1 $-1 $396 1 #
loop $588 $-1 $589 $230 #
coedge $-1 $497 $497 $590 $591 0 $396 $-1 #
face_name-twe-attrib $-1 $-1 $-1 $399 12 #
plane-surface $592 0.820710678118655 0 -1.6875 -0.707106781186549 0.707106781186546 0 0 0 1 0 #
loop_type-twe-attrib $-1 $-1 $-1 $400 0 #
surf-twe-attrib $-1 $593 $-1 $401 310 #
coedge $-1 $405 $402 $594 $595 1 $168 $-1 #
coedge $-1 $596 $597 $402 $504 0 $598 $-1 #
edge $599 $600 $507 $402 $601 0 #
coedge $-1 $403 $406 $596 $602 0 $408 $-1 #
edge_name-twe-attrib $-1 $-1 $-1 $404 58 8448 #
vertex $-1 $602 $603 #
intcurve-curve $604 0 { exactcur nubs 3 open 7 
	0 3 0.0343421340161475 1 0.0673320096475437 1 0.0995214709388046 1 0.13139714795809 1 
	0.163230246403975 1 0.195032773713577 3 
	0.097756073980086 0.1875 1.38787079034132 
	0.107306134773083 0.193334852808716 1.38546386393015 
	0.124957368817349 0.206430016491125 1.38027356077007 
	0.147171567095743 0.229890485813621 1.37214387518561 
	0.164752322644659 0.256168328491478 1.36462195227429 
	0.17768313439458 0.284917631087017 1.35843172863851 
	0.185686102022374 0.315632614409395 1.35430387693614 
	0.1875 0.336899157563466 1.35333235062756 
	0.1875 0.3475 1.35333235062756 
	0 
	null_surface 
	null_surface 
	nullbs 
	nullbs 
	} #
coedge $-1 $597 $596 $405 $510 1 $598 $-1 #
edge $605 $606 $512 $405 $607 0 #
edge_name-twe-attrib $-1 $-1 $-1 $407 62 8448 #
vertex $-1 $602 $608 #
intcurve-curve $609 0 { exactcur nubs 3 open 7 
	0 3 0.031834961445299 1 0.0636831119408187 1 0.095549625851743 1 0.127714206164916 1 
	0.160688721432315 1 0.195032743542974 3 
	-0.1875 0.3475 1.35333235062756 
	-0.1875 0.3368883461849 1.35333235062756 
	-0.185682862155348 0.315605814525878 1.35430563198659 
	-0.177670185441966 0.284880491031977 1.35843825378167 
	-0.164735690134198 0.256140298588182 1.36462942172583 
	-0.14716056906457 0.229878496229275 1.37214800044164 
	-0.124954313483025 0.206427817677934 1.38027443659023 
	-0.10730665982541 0.193335173602804 1.38546373159986 
	-0.097756073980086 0.1875 1.38787079034132 
	0 
	null_surface 
	null_surface 
	nullbs 
	nullbs 
	} #
loop_type-twe-attrib $-1 $-1 $-1 $408 1 #
face $610 $611 $464 $3 $-1 $612 1 #
point $-1 0.1875 0.3475 1.35333235062756 #
point $-1 -0.1875 0.3475 1.35333235062756 #
cur-twe-attrib $-1 $-1 $-1 $412 314 #
coedge $-1 $553 $552 $413 $520 0 $393 $-1 #
edge $613 $528 $522 $519 $614 0 #
edge_name-twe-attrib $-1 $-1 $-1 $415 19 8704 #
vertex $-1 $582 $615 #
straight-curve $616 -1.6875 -0.75 1.6875 -1 0 0 #
point $-1 -1.6875 -0.75 1.6875 #
cur-twe-attrib $-1 $-1 $-1 $418 318 #
cur-twe-attrib $-1 $-1 $420 $321 241 #
edge_name-twe-attrib $-1 $-1 $-1 $422 25 8704 #
vertex $-1 $556 $617 #
straight-curve $618 1.6875 0 1.6875 1 0 0 #
point $-1 0.820710678118655 0 1.6875 #
cur-twe-attrib $-1 $-1 $-1 $425 326 #
coedge $-1 $619 $619 $428 $533 0 $620 $-1 #
edge $621 $544 $538 $428 $622 0 #
coedge $-1 $435 $429 $431 $540 0 $536 $-1 #
coedge $-1 $429 $435 $619 $623 1 $536 $-1 #
loop $624 $-1 $435 $625 #
edge_name-twe-attrib $-1 $-1 $-1 $430 66 8448 #
vertex $-1 $623 $626 #
straight-curve $627 -0.097756073980086 0.1875 -1.23009508903929 -2.19897419141375e-15 0 1 #
edge $628 $433 $438 $431 $629 0 #
point $-1 -0.0977560739800857 0.1875 -1.38787079034132 #
cur-twe-attrib $-1 $-1 $-1 $434 334 #
edge_name-twe-attrib $-1 $-1 $-1 $436 68 8448 #
vertex $-1 $623 $630 #
straight-curve $631 0.097756073980086 0.1875 -1.23009508903929 0 0 1 #
point $-1 0.097756073980086 0.1875 -1.38787079034132 #
cur-twe-attrib $-1 $-1 $-1 $439 337 #
face_name-twe-attrib $-1 $-1 $-1 $441 25 #
face $632 $169 $620 $3 $-1 $633 1 #
loop $634 $338 $462 $441 #
cone-surface $635 0 1.0875 -1 0 1 0 -0.4 0 0 1 0 1 0 #
coedge $-1 $519 $445 $448 $556 1 $393 $-1 #
coedge $-1 $445 $519 $481 $582 0 $393 $-1 #
edge_name-twe-attrib $-1 $-1 $-1 $446 21 8704 #
straight-curve $636 1.6875 -0.75 -1.6875 0 -1 0 #
edge $637 $528 $450 $448 $638 0 #
point $-1 1.6875 0 -1.6875 #
cur-twe-attrib $-1 $639 $-1 $451 346 #
edge_name-twe-attrib $-1 $-1 $-1 $452 29 8448 #
straight-curve $640 0.820710678118655 0 -1.6875 0 0 -1 #
cur-twe-attrib $-1 $-1 $-1 $457 353 #
surf-twe-attrib $-1 $-1 $-1 $459 355 #
edge_name-twe-attrib $-1 $-1 $-1 $463 52 8704 #
vertex $-1 $463 $641 #
ellipse-curve $642 0 1 -1 0 -1 0 0.4 0 0 1 #
loop_type-twe-attrib $-1 $-1 $-1 $464 0 #
point $-1 -0.4 1 1 #
cur-twe-attrib $-1 $-1 $-1 $467 367 #
loop_type-twe-attrib $-1 $-1 $-1 $469 1 #
coedge $-1 $570 $570 $478 $578 1 $469 $-1 #
face_name-twe-attrib $-1 $-1 $-1 $473 20 #
face $643 $515 $598 $3 $-1 $644 1 #
loop $645 $646 $647 $473 #
cone-surface $648 0 -0.364806360718799 0 0 1 0 -0.225 0 0 1 0.857167300702112 0.515038074910054 0 #
loop_type-twe-attrib $-1 $-1 $-1 $474 0 #
loop $649 $-1 $650 $373 #
surf-twe-attrib $-1 $-1 $-1 $475 373 #
edge $651 $652 $652 $478 $653 0 #
edge_name-twe-attrib $-1 $-1 $-1 $480 45 8704 #
vertex $-1 $480 $654 #
ellipse-curve $655 0 -0.2 0 0 -1 0 -0.225 0 0 1 #
edge $656 $522 $484 $553 $657 0 #
point $-1 1.6875 -0.75 -1.6875 #
cur-twe-attrib $-1 $-1 $-1 $485 380 #
edge_name-twe-attrib $-1 $-1 $-1 $486 20 8704 #
straight-curve $658 -1.6875 -0.75 -1.6875 0 0 -1 #
cur-twe-attrib $-1 $-1 $-1 $490 386 #
loop_type-twe-attrib $-1 $-1 $-1 $496 1 #
coedge $-1 $589 $589 $659 $660 1 $496 $-1 #
coedge $-1 $590 $590 $497 $591 1 $661 $-1 #
edge $662 $663 $663 $590 $664 0 #
surf-twe-attrib $-1 $-1 $-1 $499 399 #
surf-twe-attrib $-1 $-1 $501 $401 102 #
coedge $-1 $665 $665 $502 $595 0 $666 $-1 #
edge $667 $606 $600 $502 $668 0 #
coedge $-1 $509 $503 $505 $602 1 $598 $-1 #
coedge $-1 $503 $509 $665 $669 0 $598 $-1 #
loop $670 $-1 $503 $572 #
edge_name-twe-attrib $-1 $-1 $-1 $504 59 8448 #
vertex $-1 $669 $671 #
straight-curve $672 0.097756073980086 0.1875 1.38787079034132 0 0 1 #
edge $673 $512 $507 $505 $674 0 #
point $-1 0.097756073980086 0.1875 1.38787079034132 #
cur-twe-attrib $-1 $-1 $-1 $508 404 #
edge_name-twe-attrib $-1 $-1 $-1 $510 61 8448 #
vertex $-1 $669 $675 #
straight-curve $676 -0.097756073980086 0.1875 1.38787079034132 0 0 1 #
point $-1 -0.097756073980086 0.1875 1.38787079034132 #
cur-twe-attrib $-1 $-1 $-1 $513 407 #
face_name-twe-attrib $-1 $-1 $-1 $515 22 #
face $677 $625 $666 $3 $-1 $678 1 #
cone-surface $679 0 1.0875 1 0 -1 0 -0.4 0 0 1 0 1 0 #
edge_name-twe-attrib $-1 $-1 $-1 $520 22 8704 #
straight-curve $680 1.6875 -0.75 1.6875 0 -1 0 #
point $-1 1.6875 -0.75 1.6875 #
cur-twe-attrib $-1 $-1 $-1 $523 415 #
point $-1 1.6875 0 1.6875 #
cur-twe-attrib $-1 $681 $-1 $529 422 #
coedge $-1 $532 $532 $535 $623 0 $620 $-1 #
loop $682 $683 $619 $549 #
edge_name-twe-attrib $-1 $-1 $-1 $533 67 8704 #
intcurve-curve $684 0 { exactcur nubs 3 open 7 
	0 3 0.0370617274325349 1 0.0716325979342086 1 0.105085743610026 1 0.138543100883257 1 
	0.173122975155642 1 0.210184885069148 3 
	0.097756073980086 0.1875 -1.23009508903929 
	0.0878452821128095 0.181444749356383 -1.23430569651911 
	0.0672505970485929 0.171317888949854 -1.24158111834124 
	0.0339005953383874 0.162051326673068 -1.24845623080195 
	5.39445985338685e-06 0.15899166101043 -1.25075884856257 
	-0.0338931853526404 0.162049550382568 -1.24845756040271 
	-0.067247915669316 0.17131657034591 -1.24158206697092 
	-0.0878452333150052 0.181444719542122 -1.2343057172509 
	-0.097756073980086 0.1875 -1.23009508903929 
	0 
	null_surface 
	null_surface 
	nullbs 
	nullbs 
	} #
edge $685 $538 $544 $619 $686 0 #
loop_type-twe-attrib $-1 $-1 $-1 $536 0 #
face $687 $441 $536 $3 $-1 $688 0 #
point $-1 -0.097756073980086 0.1875 -1.23009508903929 #
cur-twe-attrib $-1 $689 $-1 $539 430 #
edge_name-twe-attrib $-1 $-1 $-1 $540 53 4608 #
ellipse-curve $690 0 0.1875 -1 0 1 0 -0.4 0 0 1 #
point $-1 0.097756073980086 0.1875 -1.23009508903929 #
cur-twe-attrib $-1 $691 $-1 $545 436 #
face_name-twe-attrib $-1 $-1 $-1 $549 26 #
cone-surface $692 0 1.0875 -1 0 1 0 -0.25 0 0 1 0 1 0 #
loop_type-twe-attrib $-1 $-1 $-1 $550 0 #
surf-twe-attrib $-1 $-1 $-1 $551 441 #
cur-twe-attrib $-1 $-1 $-1 $555 446 #
edge_name-twe-attrib $-1 $-1 $-1 $556 26 8704 #
straight-curve $693 1.6875 0 -1.6875 0 0 -1 #
cur-twe-attrib $-1 $-1 $558 $451 216 #
cur-twe-attrib $-1 $-1 $-1 $560 452 #
point $-1 -0.4 1 -1 #
cur-twe-attrib $-1 $-1 $-1 $565 463 #
face_name-twe-attrib $-1 $-1 $-1 $572 21 #
plane-surface $694 0 0.1875 1 0 -1 0 0 0 -1 0 #
loop_type-twe-attrib $-1 $-1 $-1 $573 0 #
loop $695 $-1 $696 $473 #
coedge $-1 $647 $647 $-1 $697 0 $573 $-1 #
surf-twe-attrib $-1 $-1 $-1 $574 473 #
loop_type-twe-attrib $-1 $-1 $-1 $576 1 #
coedge $-1 $650 $650 $696 $698 0 $576 $-1 #
edge_name-twe-attrib $-1 $-1 $-1 $578 43 4608 #
vertex $-1 $578 $699 #
ellipse-curve $700 0 -0.2 0 0 1 0 -0.25 0 0 1 #
point $-1 -0.225 -0.2 0 #
cur-twe-attrib $-1 $-1 $-1 $581 480 #
edge_name-twe-attrib $-1 $-1 $-1 $582 23 8704 #
straight-curve $701 1.6875 -0.75 -1.6875 0 0 -1 #
cur-twe-attrib $-1 $-1 $-1 $586 486 #
coedge $-1 $659 $659 $589 $660 0 $683 $-1 #
edge $702 $703 $703 $659 $704 0 #
loop $705 $-1 $590 $611 #
edge_name-twe-attrib $-1 $-1 $-1 $591 51 8704 #
vertex $-1 $591 $706 #
ellipse-curve $707 0 -0.75 1 0 1 0 0.25 0 0 1 #
coedge $-1 $594 $594 $597 $669 1 $666 $-1 #
loop $708 $661 $665 $611 #
edge_name-twe-attrib $-1 $-1 $-1 $595 60 8704 #
intcurve-curve $709 0 { exactcur nubs 3 open 7 
	0 3 0.0370630004416098 1 0.071642945774643 1 0.105099114617303 1 0.138551086891962 1 
	0.173122059893062 1 0.210184885534858 3 
	-0.097756073980086 0.1875 1.23009508903929 
	-0.0878449416934913 0.181444541368533 1.23430584114652 
	-0.0672472434355156 0.171316272866292 1.24158228418209 
	-0.0338924367675576 0.162049446478914 1.24845763906028 
	5.37198827032376e-06 0.15899173333649 1.25075879391169 
	0.0338998138300824 0.162051215223322 1.24845631510929 
	0.0672499112429491 0.171317585003966 1.2415813402238 
	0.0878449884372535 0.181444569927824 1.2343058212874 
	0.097756073980086 0.1875 1.23009508903929 
	0 
	null_surface 
	null_surface 
	nullbs 
	nullbs 
	} #
edge $710 $606 $600 $665 $711 0 #
loop_type-twe-attrib $-1 $-1 $-1 $598 0 #
point $-1 0.097756073980086 0.1875 1.23009508903929 #
cur-twe-attrib $-1 $712 $-1 $601 436 #
edge_name-twe-attrib $-1 $-1 $-1 $602 49 4608 #
ellipse-curve $713 0 0.1875 1 0 -1 0 0.0977560739800856 0 0.38787079034132 1 #
point $-1 -0.097756073980086 0.1875 1.23009508903929 #
cur-twe-attrib $-1 $714 $-1 $607 430 #
face_name-twe-attrib $-1 $-1 $-1 $611 23 #
cone-surface $715 0 1.0875 1 0 -1 0 -0.25 0 0 1 0 1 0 #
surf-twe-attrib $-1 $-1 $-1 $612 515 #
cur-twe-attrib $-1 $-1 $-1 $614 520 #
cur-twe-attrib $-1 $-1 $618 $529 241 #
loop_type-twe-attrib $-1 $-1 $-1 $620 0 #
loop $716 $-1 $659 $549 #
cur-twe-attrib $-1 $-1 $-1 $622 533 #
edge_name-twe-attrib $-1 $-1 $-1 $623 54 8704 #
ellipse-curve $717 0 0.1875 -1 0 1 0 -0.25 0 0 1 #
face_name-twe-attrib $-1 $-1 $-1 $625 24 #
plane-surface $718 0 0.1875 -1 0 1 0 0 0 1 0 #
cur-twe-attrib $-1 $-1 $627 $539 510 #
cur-twe-attrib $-1 $-1 $-1 $629 540 #
cur-twe-attrib $-1 $-1 $631 $545 504 #
surf-twe-attrib $-1 $-1 $-1 $633 549 #
cur-twe-attrib $-1 $-1 $-1 $638 556 #
surf-twe-attrib $-1 $719 $-1 $644 625 #
loop_type-twe-attrib $-1 $-1 $-1 $646 1 #
coedge $-1 $696 $696 $650 $698 1 $646 $-1 #
edge $720 $721 $721 $647 $-1 0 #
edge $722 $723 $723 $696 $724 0 #
point $-1 0.25 -0.2 3.06161646971843e-17 #
cur-twe-attrib $-1 $-1 $-1 $653 578 #
cur-twe-attrib $-1 $-1 $-1 $657 582 #
edge_name-twe-attrib $-1 $-1 $-1 $660 55 8704 #
vertex $-1 $660 $725 #
ellipse-curve $726 0 -0.75 -1 0 -1 0 -0.25 0 0 1 #
loop_type-twe-attrib $-1 $-1 $-1 $661 1 #
point $-1 -0.25 -0.75 1 #
cur-twe-attrib $-1 $-1 $-1 $664 591 #
loop_type-twe-attrib $-1 $-1 $-1 $666 0 #
cur-twe-attrib $-1 $-1 $-1 $668 595 #
edge_name-twe-attrib $-1 $-1 $-1 $669 50 8704 #
ellipse-curve $727 0 0.1875 1 0 -1 0 0.0977560739800857 0 0.230095089039293 1 #
cur-twe-attrib $-1 $-1 $672 $601 504 #
cur-twe-attrib $-1 $-1 $-1 $674 602 #
cur-twe-attrib $-1 $-1 $676 $607 510 #
surf-twe-attrib $-1 $-1 $-1 $678 611 #
loop_type-twe-attrib $-1 $-1 $-1 $683 1 #
cur-twe-attrib $-1 $-1 $-1 $686 623 #
surf-twe-attrib $-1 $728 $-1 $688 625 #
surf-twe-attrib $-1 $-1 $694 $644 572 #
edge_name-twe-attrib $-1 $-1 $-1 $697 46 128 #
vertex $-1 $697 $729 #
edge_name-twe-attrib $-1 $-1 $-1 $698 47 4352 #
vertex $-1 $698 $730 #
ellipse-curve $731 0 -0.364806360718799 0 0 -1 0 -0.225 0 0 1 #
point $-1 -0.25 -0.75 -1 #
cur-twe-attrib $-1 $-1 $-1 $704 660 #
cur-twe-attrib $-1 $-1 $-1 $711 669 #
surf-twe-attrib $-1 $-1 $718 $688 572 #
point $-1 0 -0.5 0 #
point $-1 0.225 -0.364806360718799 -2.75545482274659e-17 #
cur-twe-attrib $-1 $-1 $-1 $724 698 #
