600 0 1 0           
111 GICL ACIS Healer - Source: /gicl/data5/repository/ICEM-CDC/Fixture_Models/EdgeSupportD1/EdgeSupportD1.sat - 6 0 18 ACIS 6.0.3 Solaris 24 Sat Apr 13 23:07:27 2002 
1 9.999999999999999547e-07 1.000000000000000036e-10 
body $-1 $1 $-1 $2 #
lump $-1 $-1 $3 $0 #
transform $-1 1 0 0 0 1 0 0 0 1 0 0 0 1 no_rotate no_reflect no_shear #
shell $-1 $-1 $-1 $4 $-1 $1 #
face $5 $6 $7 $3 $-1 $8 reversed single #
face_name-twe-attrib $-1 $-1 $-1 $4 1 #
face $9 $10 $11 $3 $-1 $12 forward single #
loop $13 $14 $15 $4 #
plane-surface $16 0 0 -1.6875 0 0 1 1 0 0 forward_v I I I I #
face_name-twe-attrib $-1 $-1 $-1 $6 2 #
face $17 $18 $19 $3 $-1 $20 forward single #
loop $21 $22 $23 $6 #
plane-surface $24 0 0 1.6875 0 0 1 1 0 0 forward_v I I I I #
loop_type-twe-attrib $-1 $-1 $-1 $7 0 #
loop $25 $-1 $26 $4 #
coedge $-1 $27 $28 $29 $30 forward $7 $-1 #
surf-twe-attrib $-1 $-1 $-1 $8 4 #
face_name-twe-attrib $-1 $-1 $-1 $10 3 #
face $31 $32 $33 $3 $-1 $34 forward single #
loop $35 $-1 $29 $10 #
plane-surface $36 -0.75 1 -1.6875 -1 0 0 0 0 1 forward_v I I I I #
loop_type-twe-attrib $-1 $-1 $-1 $11 0 #
loop $37 $-1 $38 $6 #
coedge $-1 $39 $40 $41 $42 reversed $11 $-1 #
surf-twe-attrib $-1 $-1 $-1 $12 6 #
loop_type-twe-attrib $-1 $-1 $-1 $14 1 #
coedge $-1 $26 $26 $43 $44 forward $14 $-1 #
coedge $-1 $45 $15 $46 $47 forward $7 $-1 #
coedge $-1 $15 $48 $49 $50 forward $7 $-1 #
coedge $-1 $51 $52 $15 $30 reversed $19 $-1 #
edge $53 $54 -0.429289321881344943 $55 0.5 $29 $56 forward 7 unknown #
face_name-twe-attrib $-1 $-1 $-1 $18 4 #
face $57 $58 $59 $3 $-1 $60 reversed single #
loop $61 $-1 $49 $18 #
plane-surface $62 -0.75 0.07071067811865500152 -1.6875 -0.7071067811865600072 -0.7071067811865350272 0 0 0 1 forward_v I I I I #
loop_type-twe-attrib $-1 $-1 $-1 $19 0 #
surf-twe-attrib $-1 $-1 $-1 $20 10 #
loop_type-twe-attrib $-1 $-1 $-1 $22 1 #
coedge $-1 $38 $38 $63 $64 reversed $22 $-1 #
coedge $-1 $65 $23 $66 $67 reversed $11 $-1 #
coedge $-1 $23 $68 $69 $70 reversed $11 $-1 #
coedge $-1 $52 $51 $23 $42 forward $19 $-1 #
edge $71 $72 -0.429289321881344943 $73 0.5 $41 $74 forward 7 unknown #
coedge $-1 $43 $43 $26 $44 reversed $75 $-1 #
edge $76 $77 -6.283185307179586232 $77 -0 $43 $78 reversed 7 unknown #
coedge $-1 $79 $27 $80 $81 forward $7 $-1 #
coedge $-1 $82 $83 $27 $47 reversed $84 $-1 #
edge $85 $55 -1.125 $86 0.375 $46 $87 forward 7 unknown #
coedge $-1 $28 $88 $89 $90 forward $7 $-1 #
coedge $-1 $91 $92 $28 $50 reversed $33 $-1 #
edge $93 $94 0.2401650429449501689 $54 0.290165042944951268 $49 $95 forward 7 unknown #
coedge $-1 $41 $29 $92 $96 reversed $19 $-1 #
coedge $-1 $29 $41 $82 $97 forward $19 $-1 #
edge_name-twe-attrib $-1 $-1 $-1 $30 1 8704 #
vertex $-1 $96 $98 #
vertex $-1 $97 $99 #
straight-curve $-1 -0.75 0.5 -1.6875 0 1 -0 I I #
face_name-twe-attrib $-1 $-1 $-1 $32 5 #
face $100 $101 $102 $3 $-1 $103 forward single #
loop $104 $-1 $89 $32 #
cone-surface $105 -0.75 0 -1.6875 0 0 1 0.05000000000000000278 0 0 1 I I 0 1 0.05000000000000000278 forward I I I I #
loop_type-twe-attrib $-1 $-1 $-1 $33 0 #
surf-twe-attrib $-1 $-1 $-1 $34 18 #
coedge $-1 $63 $63 $38 $64 forward $106 $-1 #
edge $107 $108 -6.283185307179586232 $108 -0 $63 $109 reversed 7 unknown #
coedge $-1 $110 $39 $111 $112 reversed $11 $-1 #
coedge $-1 $92 $91 $39 $67 forward $33 $-1 #
edge $113 $114 0.2401650429449501689 $72 0.290165042944951268 $66 $115 forward 7 unknown #
coedge $-1 $40 $116 $117 $118 reversed $11 $-1 #
coedge $-1 $83 $82 $40 $70 forward $84 $-1 #
edge $119 $73 -1.125 $120 0.375 $69 $121 forward 7 unknown #
edge_name-twe-attrib $-1 $-1 $-1 $42 2 8704 #
vertex $-1 $96 $122 #
vertex $-1 $97 $123 #
straight-curve $-1 -0.75 0.5 1.6875 0 1 -0 I I #
loop $124 $125 $43 $126 #
edge_name-twe-attrib $-1 $-1 $-1 $44 63 8704 #
vertex $-1 $44 $127 #
ellipse-curve $-1 0 0.3474999999999999756 -1.6875 -0 -0 -1 0.1875 0 0 1 I I #
coedge $-1 $128 $45 $129 $130 forward $7 $-1 #
coedge $-1 $131 $132 $45 $81 reversed $133 $-1 #
edge $134 $86 -0.9646446609406724715 $135 -0.03535533905932772281 $80 $136 forward 7 unknown #
coedge $-1 $69 $46 $52 $97 reversed $84 $-1 #
coedge $-1 $46 $69 $131 $137 forward $84 $-1 #
loop $138 $139 $46 $140 #
edge_name-twe-attrib $-1 $-1 $-1 $47 39 8704 #
vertex $-1 $137 $141 #
straight-curve $-1 0.375 1 -1.6875 1 0 0 I I #
coedge $-1 $48 $142 $143 $144 forward $7 $-1 #
coedge $-1 $145 $146 $48 $90 reversed $59 $-1 #
edge $147 $148 -2.356194490192347502 $94 0.7853981633974311816 $89 $149 reversed 7 unknown #
coedge $-1 $66 $49 $146 $150 reversed $33 $-1 #
coedge $-1 $49 $66 $51 $96 forward $33 $-1 #
edge_name-twe-attrib $-1 $-1 $-1 $50 3 8704 #
vertex $-1 $150 $151 #
straight-curve $-1 -0.5448223304703428971 -0.1344669914110094011 -1.6875 -0.7071067811865350272 0.7071067811865600072 0 I I #
edge $152 $72 -3.375 $54 0 $92 $153 forward 7 unknown #
edge $154 $73 -3.375 $55 -0 $82 $155 reversed 7 unknown #
point $-1 -0.750000000000000111 0.07071067811865502928 -1.6875 #
point $-1 -0.75 1 -1.6875 #
face_name-twe-attrib $-1 $-1 $-1 $58 6 #
face $156 $157 $158 $3 $-1 $159 forward single #
loop $160 $-1 $143 $58 #
plane-surface $161 -0.7853553390593269734 -0.03535533905932800036 -1.6875 0.707106781186549016 0.7071067811865460184 0 0 0 -1 forward_v I I I I #
loop_type-twe-attrib $-1 $-1 $-1 $59 0 #
surf-twe-attrib $-1 $-1 $-1 $60 32 #
loop $162 $163 $63 $164 #
edge_name-twe-attrib $-1 $-1 $-1 $64 56 8704 #
vertex $-1 $64 $165 #
ellipse-curve $-1 0 0.3474999999999999756 1.6875 -0 -0 -1 0.1875 0 0 1 I I #
coedge $-1 $166 $65 $167 $168 reversed $11 $-1 #
coedge $-1 $146 $145 $65 $112 forward $59 $-1 #
edge $169 $170 -2.356194490192347502 $114 0.7853981633974311816 $111 $171 reversed 7 unknown #
edge_name-twe-attrib $-1 $-1 $-1 $67 4 8704 #
vertex $-1 $150 $172 #
straight-curve $-1 -0.5448223304703428971 -0.1344669914110094011 1.6875 -0.7071067811865350272 0.7071067811865600072 0 I I #
coedge $-1 $68 $173 $174 $175 reversed $11 $-1 #
coedge $-1 $132 $131 $68 $118 forward $133 $-1 #
edge $176 $120 -0.9646446609406724715 $177 -0.03535533905932772281 $117 $178 forward 7 unknown #
edge_name-twe-attrib $-1 $-1 $-1 $70 41 8704 #
vertex $-1 $137 $179 #
straight-curve $-1 0.375 1 1.6875 1 0 0 I I #
point $-1 -0.750000000000000111 0.07071067811865502928 1.6875 #
point $-1 -0.75 1 1.6875 #
loop_type-twe-attrib $-1 $-1 $-1 $75 0 #
loop $180 $-1 $181 $126 #
face $182 $-1 $75 $3 $-1 $183 reversed single #
point $-1 0.1875 0.3474999999999999756 -1.6875 #
coedge $-1 $184 $79 $185 $186 forward $7 $-1 #
coedge $-1 $187 $188 $79 $130 reversed $189 $-1 #
edge $190 $135 -0.3151650429449514013 $191 -0.2651650429449501356 $129 $192 forward 7 unknown #
coedge $-1 $117 $80 $83 $137 reversed $133 $-1 #
coedge $-1 $80 $117 $187 $193 forward $133 $-1 #
loop $194 $-1 $80 $195 #
edge_name-twe-attrib $-1 $-1 $-1 $81 36 8704 #
vertex $-1 $193 $196 #
straight-curve $-1 0.75 0.03535533905932750076 -1.6875 0 -1 0 I I #
edge $197 $120 -3.375 $86 0 $83 $198 forward 7 unknown #
loop_type-twe-attrib $-1 $-1 $-1 $84 0 #
loop $199 $200 $201 $140 #
face $202 $203 $84 $3 $-1 $204 forward single #
point $-1 0.75 1 -1.6875 #
coedge $-1 $88 $205 $206 $207 forward $7 $-1 #
coedge $-1 $208 $209 $88 $144 reversed $102 $-1 #
edge $210 $211 -0.315165042944955176 $148 -0.2651650429449552426 $143 $212 forward 7 unknown #
coedge $-1 $111 $89 $209 $213 reversed $59 $-1 #
coedge $-1 $89 $111 $91 $150 forward $59 $-1 #
edge_name-twe-attrib $-1 $-1 $-1 $90 6 8704 #
vertex $-1 $213 $214 #
ellipse-curve $-1 -0.75 0 -1.6875 -0 -0 -1 0.05000000000000000278 0 0 1 I I #
edge $215 $114 -3.375 $94 -0 $146 $216 reversed 7 unknown #
point $-1 -0.7146446609406720274 0.03535533905932676524 -1.6875 #
edge_name-twe-attrib $-1 $-1 $-1 $96 5 8448 #
straight-curve $-1 -0.75 0.07071067811865508479 -1.6875 -0 0 -1 I I #
edge_name-twe-attrib $-1 $-1 $-1 $97 40 8704 #
straight-curve $-1 -0.75 1 -1.6875 0 -0 1 I I #
face_name-twe-attrib $-1 $-1 $-1 $101 7 #
face $217 $218 $219 $3 $-1 $220 forward single #
loop $221 $-1 $206 $101 #
plane-surface $222 -0.820710678118654946 0 -1.6875 0 1 0 0 0 1 forward_v I I I I #
loop_type-twe-attrib $-1 $-1 $-1 $102 0 #
surf-twe-attrib $-1 $-1 $-1 $103 58 #
loop_type-twe-attrib $-1 $-1 $-1 $106 0 #
loop $223 $-1 $224 $164 #
face $225 $126 $106 $3 $-1 $226 reversed single #
point $-1 0.1875 0.3474999999999999756 1.6875 #
coedge $-1 $227 $110 $228 $229 reversed $11 $-1 #
coedge $-1 $209 $208 $110 $168 forward $102 $-1 #
edge $230 $231 -0.315165042944955176 $170 -0.2651650429449552426 $167 $232 forward 7 unknown #
edge_name-twe-attrib $-1 $-1 $-1 $112 7 8704 #
vertex $-1 $213 $233 #
ellipse-curve $-1 -0.75 0 1.6875 -0 -0 -1 0.05000000000000000278 0 0 1 I I #
point $-1 -0.7146446609406720274 0.03535533905932676524 1.6875 #
coedge $-1 $116 $234 $235 $236 reversed $11 $-1 #
coedge $-1 $188 $187 $116 $175 forward $189 $-1 #
edge $237 $177 -0.3151650429449514013 $238 -0.2651650429449501356 $174 $239 forward 7 unknown #
edge_name-twe-attrib $-1 $-1 $-1 $118 37 8704 #
vertex $-1 $193 $240 #
straight-curve $-1 0.75 0.03535533905932750076 1.6875 0 -1 0 I I #
point $-1 0.75 1 1.6875 #
loop_type-twe-attrib $-1 $-1 $-1 $125 1 #
coedge $-1 $241 $242 $243 $244 reversed $125 $-1 #
face_name-twe-attrib $-1 $-1 $-1 $126 28 #
cone-surface $245 0 0.3474999999999999756 -1.721875000000000044 0 0 -1 0.1875 0 0 1 I I 0 1 0.1875 forward I I I I #
coedge $-1 $246 $128 $247 $248 forward $7 $-1 #
coedge $-1 $249 $250 $128 $186 reversed $251 $-1 #
edge $252 $191 -3.926990816987222743 $253 -0.7853981633974467247 $185 $254 reversed 7 unknown #
coedge $-1 $174 $129 $132 $193 reversed $189 $-1 #
coedge $-1 $129 $174 $249 $255 forward $189 $-1 #
loop $256 $-1 $129 $257 #
edge_name-twe-attrib $-1 $-1 $-1 $130 33 8704 #
vertex $-1 $255 $258 #
straight-curve $-1 0.5271446609406793549 -0.1521446609406733042 -1.6875 -0.7071067811865350272 -0.7071067811865600072 0 I I #
edge $259 $177 -3.375 $135 0 $132 $260 forward 7 unknown #
loop_type-twe-attrib $-1 $-1 $-1 $133 0 #
face $261 $140 $133 $3 $-1 $262 forward single #
point $-1 0.75 0.07071067811865522357 -1.6875 #
edge_name-twe-attrib $-1 $-1 $-1 $137 42 8704 #
straight-curve $-1 0.75 1 -1.6875 0 0 -1 I I #
loop_type-twe-attrib $-1 $-1 $-1 $139 1 #
loop $263 $264 $265 $140 #
coedge $-1 $201 $201 $266 $267 reversed $139 $-1 #
face_name-twe-attrib $-1 $-1 $-1 $140 16 #
face $268 $269 $270 $3 $-1 $271 reversed single #
plane-surface $272 0.75 1 -1.6875 0 1 0 0 0 1 forward_v I I I I #
coedge $-1 $142 $273 $274 $275 forward $7 $-1 #
coedge $-1 $276 $277 $142 $207 reversed $158 $-1 #
edge $278 $279 -1.277144660940672471 $211 -0.410355339059327362 $206 $280 forward 7 unknown #
coedge $-1 $167 $143 $277 $281 reversed $102 $-1 #
coedge $-1 $143 $167 $145 $213 forward $102 $-1 #
edge_name-twe-attrib $-1 $-1 $-1 $144 9 8704 #
vertex $-1 $281 $282 #
straight-curve $-1 -0.5978553390593279726 -0.2228553390593276951 -1.6875 0.7071067811865460184 -0.707106781186549016 0 I I #
edge $283 $170 -3.375 $148 -0 $209 $284 reversed 7 unknown #
point $-1 -0.7853553390593275285 -0.03535533905932736198 -1.6875 #
edge_name-twe-attrib $-1 $-1 $-1 $150 8 20480 #
straight-curve $-1 -0.7146446609406724715 0.0353553390593262587 -1.6875 0 0 1 I I #
face_name-twe-attrib $-1 $-1 $-1 $157 8 #
face $285 $286 $287 $3 $-1 $288 forward single #
loop $289 $-1 $274 $157 #
plane-surface $290 -1.6875 0 -1.6875 -1 0 0 0 0 1 forward_v I I I I #
loop_type-twe-attrib $-1 $-1 $-1 $158 0 #
surf-twe-attrib $-1 $291 $-1 $159 310 #
loop_type-twe-attrib $-1 $-1 $-1 $163 1 #
coedge $-1 $292 $293 $294 $295 reversed $163 $-1 #
face_name-twe-attrib $-1 $-1 $-1 $164 27 #
cone-surface $296 0 0.3474999999999999756 1.721875000000000044 0 0 -1 0.1875 0 0 1 I I 0 1 0.1875 forward I I I I #
coedge $-1 $297 $166 $298 $299 reversed $11 $-1 #
coedge $-1 $277 $276 $166 $229 forward $158 $-1 #
edge $300 $301 -1.277144660940672471 $231 -0.410355339059327362 $228 $302 forward 7 unknown #
edge_name-twe-attrib $-1 $-1 $-1 $168 10 8704 #
vertex $-1 $281 $303 #
straight-curve $-1 -0.5978553390593279726 -0.2228553390593276951 1.6875 0.7071067811865460184 -0.707106781186549016 0 I I #
point $-1 -0.7853553390593275285 -0.03535533905932736198 1.6875 #
coedge $-1 $173 $304 $305 $306 reversed $11 $-1 #
coedge $-1 $250 $249 $173 $236 forward $251 $-1 #
edge $307 $238 -3.926990816987222743 $308 -0.7853981633974467247 $235 $309 reversed 7 unknown #
edge_name-twe-attrib $-1 $-1 $-1 $175 34 8704 #
vertex $-1 $255 $310 #
straight-curve $-1 0.5271446609406793549 -0.1521446609406733042 1.6875 -0.7071067811865350272 -0.7071067811865600072 0 I I #
point $-1 0.75 0.07071067811865522357 1.6875 #
coedge $-1 $311 $181 $312 $313 reversed $125 $-1 #
coedge $-1 $181 $314 $315 $316 reversed $125 $-1 #
coedge $-1 $315 $312 $181 $244 forward $317 $-1 #
edge $318 $319 -1.150005608047159456 $320 -0.5750028040235796167 $181 $321 reversed 7 unknown #
surf-twe-attrib $-1 $322 $-1 $183 128 #
coedge $-1 $323 $184 $324 $325 forward $7 $-1 #
coedge $-1 $326 $327 $184 $248 reversed $328 $-1 #
edge $329 $253 0.2401650429449547208 $330 0.2901650429449547652 $247 $331 forward 7 unknown #
coedge $-1 $235 $185 $188 $255 reversed $251 $-1 #
coedge $-1 $185 $235 $326 $332 forward $251 $-1 #
loop $333 $-1 $185 $334 #
edge_name-twe-attrib $-1 $-1 $-1 $186 30 8704 #
vertex $-1 $332 $335 #
ellipse-curve $-1 0.75 0 -1.6875 -0 -0 -1 0.05000000000000000278 0 0 1 I I #
edge $336 $238 -3.375 $191 -0 $188 $337 reversed 7 unknown #
loop_type-twe-attrib $-1 $-1 $-1 $189 0 #
face $338 $195 $189 $3 $-1 $339 forward single #
point $-1 0.7146446609406723605 0.03535533905932633503 -1.6875 #
edge_name-twe-attrib $-1 $-1 $-1 $193 38 8448 #
straight-curve $-1 0.75 0.07071067811865522357 -1.6875 0 0 -1 I I #
face_name-twe-attrib $-1 $-1 $-1 $195 15 #
plane-surface $340 0.75 0.07071067811865500152 -1.6875 1 0 0 0 0 -1 forward_v I I I I #
loop_type-twe-attrib $-1 $-1 $-1 $200 1 #
loop $341 $-1 $342 $140 #
coedge $-1 $265 $265 $343 $344 reversed $200 $-1 #
coedge $-1 $266 $266 $201 $267 forward $345 $-1 #
edge $346 $347 -6.283185307179586232 $347 -0 $266 $348 reversed 7 unknown #
face_name-twe-attrib $-1 $-1 $-1 $203 17 #
face $349 $350 $345 $3 $-1 $351 reversed single #
loop $352 $353 $354 $203 #
plane-surface $355 0 -0.2000000000000000111 0 0 -1 0 0 0 -1 forward_v I I I I #
surf-twe-attrib $-1 $-1 $-1 $204 143 #
coedge $-1 $205 $323 $356 $357 forward $7 $-1 #
coedge $-1 $358 $359 $205 $275 reversed $219 $-1 #
edge $360 $361 -0.75 $279 0 $274 $362 forward 7 unknown #
coedge $-1 $228 $206 $359 $363 reversed $158 $-1 #
coedge $-1 $206 $228 $208 $281 forward $158 $-1 #
edge_name-twe-attrib $-1 $-1 $-1 $207 12 8704 #
vertex $-1 $363 $364 #
straight-curve $-1 -0.410355339059327473 0 -1.6875 1 0 0 I I #
edge $365 $231 -3.375 $211 0 $277 $366 forward 7 unknown #
point $-1 -0.820710678118654835 0 -1.6875 #
edge_name-twe-attrib $-1 $-1 $-1 $213 11 20480 #
straight-curve $-1 -0.7853553390593275285 -0.03535533905932738974 -1.6875 0 0 1 I I #
face_name-twe-attrib $-1 $-1 $-1 $218 9 #
face $367 $368 $369 $3 $-1 $370 forward single #
loop $371 $372 $356 $218 #
plane-surface $373 -1.6875 -0.75 -1.6875 0 -1 0 0 0 -1 forward_v I I I I #
loop_type-twe-attrib $-1 $-1 $-1 $219 0 #
surf-twe-attrib $-1 $-1 $-1 $220 162 #
surf-twe-attrib $-1 $-1 $222 $159 102 #
coedge $-1 $374 $224 $375 $376 reversed $163 $-1 #
coedge $-1 $224 $377 $378 $379 reversed $163 $-1 #
coedge $-1 $378 $375 $224 $295 forward $380 $-1 #
edge $381 $382 -1.150005608047159678 $383 -0.5750028040235797278 $224 $384 reversed 7 unknown #
surf-twe-attrib $-1 $-1 $-1 $226 169 #
coedge $-1 $385 $227 $386 $387 reversed $11 $-1 #
coedge $-1 $359 $358 $227 $299 forward $219 $-1 #
edge $388 $389 -0.75 $301 0 $298 $390 forward 7 unknown #
edge_name-twe-attrib $-1 $-1 $-1 $229 13 8704 #
vertex $-1 $363 $391 #
straight-curve $-1 -0.410355339059327473 0 1.6875 1 0 0 I I #
point $-1 -0.820710678118654835 0 1.6875 #
coedge $-1 $234 $385 $392 $393 reversed $11 $-1 #
coedge $-1 $327 $326 $234 $306 forward $328 $-1 #
edge $394 $308 0.2401650429449547208 $395 0.2901650429449547652 $305 $396 forward 7 unknown #
edge_name-twe-attrib $-1 $-1 $-1 $236 31 8704 #
vertex $-1 $332 $397 #
ellipse-curve $-1 0.75 0 1.6875 -0 -0 -1 0.05000000000000000278 0 0 1 I I #
point $-1 0.7146446609406723605 0.03535533905932633503 1.6875 #
coedge $-1 $398 $241 $399 $400 forward $125 $-1 #
coedge $-1 $243 $401 $241 $313 forward $317 $-1 #
edge $402 $403 -0.1881122507233704555 $319 -0 $241 $404 reversed 7 unknown #
coedge $-1 $242 $398 $405 $406 reversed $125 $-1 #
coedge $-1 $401 $243 $242 $316 forward $317 $-1 #
edge $407 $320 -0.5750028040235796167 $408 -0.3868905533002093278 $242 $409 reversed 7 unknown #
loop $410 $-1 $401 $411 #
edge_name-twe-attrib $-1 $-1 $-1 $244 64 8704 #
vertex $-1 $313 $412 #
vertex $-1 $244 $413 #
intcurve-curve $-1 forward { surfintcur full nubs 3 open 9 
	0.5750028040235796167 3 0.6469513717601610425 2 0.7188999394967424683 2 0.7907020727660560855 2 0.8625042060353695916 2 
	0.9343063393046830978 2 1.006108472573996604 2 1.07805704031057803 2 1.150005608047159456 3 
	0.1875 0.3474999999999999201 -1.353332350627564296 
	0.1875 0.3714828559121937657 -1.353332350627564296 
	0.1826299421565178993 0.3967463409148162534 -1.356033854630072755 
	0.1633938339679744112 0.442796200769682291 -1.365261886627835208 
	0.1490407332712296862 0.4636243096737255875 -1.371606195411307239 
	0.116157806511157452 0.4965072364337977939 -1.383158493586404969 
	0.09531791337599349045 0.5108852097475223841 -1.389183385867640341 
	0.04921866395623807067 0.5301410577714114059 -1.39765152554204275 
	0.02393404442310445926 0.5349999999999999201 -1.399999999999999911 
	-0.02393404442310454946 0.5349999999999999201 -1.399999999999999911 
	-0.04921866395623833434 0.5301410577714112948 -1.39765152554204275 
	-0.0953179133759937125 0.5108852097475221621 -1.389183385867640341 
	-0.1161578065111575214 0.4965072364337977939 -1.383158493586404969 
	-0.1490407332712297417 0.4636243096737255875 -1.371606195411307239 
	-0.1633938339679744667 0.4427962007696822355 -1.365261886627835208 
	-0.1826299421565179548 0.3967463409148162534 -1.356033854630072755 
	-0.1875 0.3714828559121937657 -1.353332350627564296 
	-0.1875 0.3474999999999999201 -1.353332350627564296 
	0.0001672156874372412636 
	cone 0 0.3474999999999999756 -1.721875000000000044 0 0 -1 0.1875 0 0 1 I I 0 1 0.1875 forward I I I I 
	cone 0 1.087499999999999911 -1 0 1 0 -0.4000000000000000222 0 0 1 I I 0 1 0.4000000000000000222 forward I I I I 
	nullbs 
	nullbs 
	I I 
	0 
	0 
	0 
	} I I #
surf-twe-attrib $-1 $-1 $245 $183 169 #
coedge $-1 $273 $246 $414 $415 forward $7 $-1 #
coedge $-1 $416 $417 $246 $325 reversed $418 $-1 #
edge $419 $330 -0.02303932188134505399 $420 0.84375 $324 $421 forward 7 unknown #
coedge $-1 $305 $247 $250 $332 reversed $328 $-1 #
coedge $-1 $247 $305 $416 $422 forward $328 $-1 #
loop $423 $-1 $247 $424 #
edge_name-twe-attrib $-1 $-1 $-1 $248 27 8704 #
vertex $-1 $422 $425 #
straight-curve $-1 0.6155330085889920699 -0.2051776695296637087 -1.6875 0.7071067811865460184 0.707106781186549016 -0 I I #
edge $426 $308 -3.375 $253 -0 $250 $427 reversed 7 unknown #
loop_type-twe-attrib $-1 $-1 $-1 $251 0 #
face $428 $257 $251 $3 $-1 $429 reversed single #
point $-1 0.7853553390593274175 -0.03535533905932730647 -1.6875 #
edge_name-twe-attrib $-1 $-1 $-1 $255 35 20480 #
straight-curve $-1 0.7146446609406723605 0.0353553390593263836 -1.6875 0 0 1 I I #
face_name-twe-attrib $-1 $-1 $-1 $257 14 #
plane-surface $430 0.7146446609406730266 0.03535533905932700116 -1.6875 0.7071067811865600072 -0.7071067811865350272 0 0 0 -1 forward_v I I I I #
surf-twe-attrib $-1 $-1 $-1 $262 203 #
loop_type-twe-attrib $-1 $-1 $-1 $264 1 #
coedge $-1 $342 $342 $431 $432 forward $264 $-1 #
coedge $-1 $343 $343 $265 $344 forward $433 $-1 #
edge $434 $435 -6.283185307179586232 $435 -0 $343 $436 reversed 7 unknown #
loop $437 $438 $266 $269 #
edge_name-twe-attrib $-1 $-1 $-1 $267 44 8704 #
vertex $-1 $267 $439 #
ellipse-curve $-1 0 1 0 -0 -1 -0 -0.25 0 0 1 I I #
face_name-twe-attrib $-1 $-1 $-1 $269 18 #
face $440 $441 $442 $3 $-1 $443 reversed single #
cone-surface $444 0 1.074999999999999956 0 0 -1 0 -0.25 0 0 1 I I 0 1 0.25 forward I I I I #
loop_type-twe-attrib $-1 $-1 $-1 $270 1 #
loop $445 $-1 $446 $203 #
coedge $-1 $354 $354 $447 $448 forward $270 $-1 #
surf-twe-attrib $-1 $-1 $-1 $271 212 #
coedge $-1 $449 $450 $273 $357 reversed $287 $-1 #
edge $451 $452 -2.53125 $361 0.84375 $356 $453 forward 7 unknown #
coedge $-1 $298 $274 $450 $454 reversed $219 $-1 #
coedge $-1 $274 $298 $276 $363 forward $219 $-1 #
edge_name-twe-attrib $-1 $-1 $-1 $275 15 8704 #
vertex $-1 $454 $455 #
straight-curve $-1 -1.6875 0 -1.6875 0 1 -0 I I #
edge $456 $301 -3.375 $279 0 $359 $457 forward 7 unknown #
point $-1 -1.6875 0 -1.6875 #
edge_name-twe-attrib $-1 $-1 $-1 $281 14 8448 #
straight-curve $-1 -0.820710678118654835 0 -1.6875 0 0 -1 I I #
face_name-twe-attrib $-1 $-1 $-1 $286 10 #
face $458 $424 $418 $3 $-1 $459 forward single #
loop $460 $-1 $414 $286 #
plane-surface $461 1.6875 -0.75 -1.6875 1 0 0 0 0 -1 forward_v I I I I #
loop_type-twe-attrib $-1 $-1 $-1 $287 0 #
loop $462 $463 $464 $218 #
surf-twe-attrib $-1 $-1 $-1 $288 230 #
coedge $-1 $465 $292 $466 $467 reversed $163 $-1 #
coedge $-1 $294 $468 $292 $376 forward $380 $-1 #
edge $469 $470 -0.1881122507233705388 $382 -0 $292 $471 reversed 7 unknown #
coedge $-1 $293 $465 $472 $473 forward $163 $-1 #
coedge $-1 $468 $294 $293 $379 forward $380 $-1 #
edge $474 $383 -0.5750028040235797278 $475 -0.3868905533002091057 $293 $476 reversed 7 unknown #
loop $477 $-1 $468 $478 #
edge_name-twe-attrib $-1 $-1 $-1 $295 57 8704 #
vertex $-1 $376 $479 #
vertex $-1 $295 $480 #
intcurve-curve $-1 forward { surfintcur full nubs 3 open 9 
	0.5750028040235797278 3 0.6469513717601611535 2 0.7188999394967425793 2 0.7907020727660560855 2 0.8625042060353697027 2 
	0.9343063393046833198 2 1.006108472573996826 2 1.078057040310578252 2 1.150005608047159678 3 
	-0.1875 0.3474999999999999201 1.353332350627564296 
	-0.1875 0.3714828559121937657 1.353332350627564296 
	-0.1826299421565179548 0.3967463409148162534 1.356033854630072755 
	-0.1633938339679744667 0.4427962007696822355 1.365261886627835208 
	-0.1490407332712297417 0.4636243096737255875 1.371606195411307239 
	-0.1161578065111575353 0.4965072364337977939 1.383158493586404969 
	-0.09531791337599364311 0.5108852097475221621 1.389183385867640341 
	-0.04921866395623827883 0.5301410577714112948 1.39765152554204275 
	-0.02393404442310457028 0.5349999999999999201 1.399999999999999911 
	0.02393404442310449395 0.5349999999999999201 1.399999999999999911 
	0.04921866395623822332 0.5301410577714112948 1.39765152554204275 
	0.09531791337599361535 0.5108852097475221621 1.389183385867640341 
	0.1161578065111574798 0.4965072364337977939 1.383158493586404969 
	0.1490407332712296862 0.4636243096737255875 1.371606195411307239 
	0.1633938339679744112 0.442796200769682291 1.365261886627835208 
	0.1826299421565178993 0.3967463409148162534 1.356033854630072755 
	0.1875 0.3714828559121937657 1.353332350627564296 
	0.1875 0.3474999999999999201 1.353332350627564296 
	0.0001672156874373414168 
	cone 0 0.3474999999999999756 1.721875000000000044 0 0 -1 0.1875 0 0 1 I I 0 1 0.1875 forward I I I I 
	cone 0 1.087499999999999911 1 0 -1 0 -0.4000000000000000222 0 0 1 I I 0 1 0.4000000000000000222 forward I I I I 
	nullbs 
	nullbs 
	I I 
	0 
	0 
	0 
	} I I #
coedge $-1 $304 $297 $481 $482 reversed $11 $-1 #
coedge $-1 $450 $449 $297 $387 forward $287 $-1 #
edge $483 $484 -2.53125 $389 0.84375 $386 $485 forward 7 unknown #
edge_name-twe-attrib $-1 $-1 $-1 $299 16 8704 #
vertex $-1 $454 $486 #
straight-curve $-1 -1.6875 0 1.6875 0 1 -0 I I #
point $-1 -1.6875 0 1.6875 #
coedge $-1 $417 $416 $304 $393 forward $418 $-1 #
edge $487 $395 -0.02303932188134505399 $488 0.84375 $392 $489 forward 7 unknown #
edge_name-twe-attrib $-1 $-1 $-1 $306 28 8704 #
vertex $-1 $422 $490 #
straight-curve $-1 0.6155330085889920699 -0.2051776695296637087 1.6875 0.7071067811865460184 0.707106781186549016 -0 I I #
point $-1 0.7853553390593274175 -0.03535533905932730647 1.6875 #
coedge $-1 $314 $311 $491 $492 reversed $125 $-1 #
coedge $-1 $493 $494 $311 $400 reversed $495 $-1 #
edge $496 $403 0.3340042096586799403 $497 0.4917799109607072783 $311 $498 reversed 7 unknown #
coedge $-1 $312 $315 $493 $499 reversed $317 $-1 #
edge_name-twe-attrib $-1 $-1 $-1 $313 65 8448 #
vertex $-1 $400 $500 #
intcurve-curve $-1 forward { surfintcur full nubs 3 open 4 
	0 3 0.0719485677365814813 2 0.1438971354731629626 2 0.1881122507233704555 3 
	-0.1875 0.3474999999999999201 -1.353332350627564296 
	-0.1875 0.3235171440878060745 -1.353332350627564296 
	-0.1826299421565178993 0.2982536590851835867 -1.356033854630072755 
	-0.1633938339679743834 0.2522037992303175491 -1.365261886627835208 
	-0.1490407332712296307 0.2313756903262742526 -1.371606195411307239 
	-0.1224683280369887745 0.2048032850920334658 -1.380941506429553156 
	-0.1106799048240378336 0.1954652134070727909 -1.384591338666226745 
	-0.09773223945274832347 0.1875345052234658194 -1.387860098019594313 
	0.0001672156874372412636 
	cone 0 0.3474999999999999756 -1.721875000000000044 0 0 -1 0.1875 0 0 1 I I 0 1 0.1875 forward I I I I 
	cone 0 1.087499999999999911 -1 0 1 0 -0.4000000000000000222 0 0 1 I I 0 1 0.4000000000000000222 forward I I I I 
	nullbs 
	nullbs 
	I I 
	0 
	0 
	0 
	} I I #
coedge $-1 $494 $493 $314 $406 forward $495 $-1 #
edge $501 $408 0.3340042096586799403 $502 0.4917799109607072783 $314 $503 forward 7 unknown #
edge_name-twe-attrib $-1 $-1 $-1 $316 69 8448 #
vertex $-1 $499 $504 #
intcurve-curve $-1 forward { surfintcur full nubs 3 open 4 
	0.3868905533002093278 3 0.4311056685504171537 2 0.503054236286998413 2 0.5750028040235796167 3 
	0.09773223945274832347 0.1875345052234658194 -1.387860098019594091 
	0.1106799048240379585 0.1954652134070729019 -1.384591338666226523 
	0.1224683280369890243 0.2048032850920337156 -1.380941506429553156 
	0.1490407332712298527 0.2313756903262745857 -1.371606195411307016 
	0.1633938339679745222 0.2522037992303178267 -1.365261886627835208 
	0.1826299421565179548 0.2982536590851838088 -1.356033854630072755 
	0.1875 0.3235171440878061855 -1.353332350627564296 
	0.1875 0.3474999999999999201 -1.353332350627564296 
	0.0001672156874372412636 
	cone 0 0.3474999999999999756 -1.721875000000000044 0 0 -1 0.1875 0 0 1 I I 0 1 0.1875 forward I I I I 
	cone 0 1.087499999999999911 -1 0 1 0 -0.4000000000000000222 0 0 1 I I 0 1 0.4000000000000000222 forward I I I I 
	nullbs 
	nullbs 
	I I 
	0 
	0 
	0 
	} I I #
loop_type-twe-attrib $-1 $-1 $-1 $317 1 #
face $505 $506 $507 $3 $-1 $508 reversed single #
point $-1 -0.1875 0.3475000000000009748 -1.353332350627560077 #
point $-1 0.1875 0.3474999999999989764 -1.353332350627560077 #
coedge $-1 $509 $510 $323 $415 reversed $369 $-1 #
edge $511 $420 -0.375 $452 0.375 $414 $512 forward 7 unknown #
coedge $-1 $392 $324 $327 $422 reversed $418 $-1 #
coedge $-1 $324 $392 $509 $513 forward $418 $-1 #
loop $514 $-1 $324 $368 #
edge_name-twe-attrib $-1 $-1 $-1 $325 24 8704 #
vertex $-1 $513 $515 #
straight-curve $-1 0.84375 0 -1.6875 1 0 0 I I #
edge $516 $395 -3.375 $330 0 $327 $517 forward 7 unknown #
loop_type-twe-attrib $-1 $-1 $-1 $328 0 #
face $518 $334 $328 $3 $-1 $519 forward single #
point $-1 0.820710678118654946 2.775557561562891351e-17 -1.6875 #
edge_name-twe-attrib $-1 $-1 $-1 $332 32 20480 #
straight-curve $-1 0.7853553390593276395 -0.03535533905932746607 -1.6875 0 0 1 I I #
face_name-twe-attrib $-1 $-1 $-1 $334 13 #
cone-surface $520 0.75 0 -1.6875 0 0 1 0.05000000000000000278 0 0 1 I I 0 1 0.05000000000000000278 forward I I I I #
surf-twe-attrib $-1 $-1 $-1 $339 271 #
coedge $-1 $431 $431 $342 $432 reversed $507 $-1 #
edge $521 $522 0 $522 6.283185307179586232 $431 $523 forward 7 unknown #
loop $524 $380 $343 $478 #
edge_name-twe-attrib $-1 $-1 $-1 $344 48 8704 #
vertex $-1 $344 $525 #
ellipse-curve $-1 0 1 1 -0 -1 -0 -0.4000000000000000222 0 0 1 I I #
loop_type-twe-attrib $-1 $-1 $-1 $345 0 #
loop $526 $-1 $527 $269 #
point $-1 -0.25 1 0 #
face_name-twe-attrib $-1 $-1 $-1 $350 19 #
face $528 $529 $530 $3 $-1 $531 reversed single #
loop $532 $533 $447 $350 #
cone-surface $534 0 1.074999999999999956 0 0 -1 0 -0.2250000000000000056 0 0 1 I I 0 1 0.2250000000000000056 forward I I I I #
surf-twe-attrib $-1 $-1 $-1 $351 285 #
loop_type-twe-attrib $-1 $-1 $-1 $353 0 #
coedge $-1 $446 $446 $527 $535 forward $353 $-1 #
coedge $-1 $447 $447 $354 $448 reversed $442 $-1 #
edge $536 $537 -6.283185307179586232 $537 -0 $447 $538 reversed 7 unknown #
coedge $-1 $386 $356 $510 $539 reversed $287 $-1 #
coedge $-1 $356 $386 $358 $454 forward $287 $-1 #
edge_name-twe-attrib $-1 $-1 $-1 $357 18 8704 #
vertex $-1 $539 $540 #
straight-curve $-1 -0.84375 -0.75 -1.6875 -1 0 0 I I #
edge $541 $389 -3.375 $361 -0 $450 $542 forward 7 unknown #
point $-1 -1.6875 -0.75 -1.6875 #
edge_name-twe-attrib $-1 $-1 $-1 $363 17 8704 #
straight-curve $-1 -1.6875 0 -1.6875 0 0 -1 I I #
face_name-twe-attrib $-1 $-1 $-1 $368 11 #
plane-surface $543 1.6875 0 -1.6875 0 1 0 0 0 1 forward_v I I I I #
loop_type-twe-attrib $-1 $-1 $-1 $369 0 #
surf-twe-attrib $-1 $-1 $-1 $370 304 #
loop_type-twe-attrib $-1 $-1 $-1 $372 1 #
loop $544 $-1 $545 $218 #
coedge $-1 $464 $464 $546 $547 forward $372 $-1 #
coedge $-1 $377 $374 $548 $549 reversed $163 $-1 #
coedge $-1 $550 $551 $374 $467 forward $552 $-1 #
edge $553 $554 -0.4917799109607072783 $470 -0.3340042096586799403 $374 $555 reversed 7 unknown #
coedge $-1 $375 $378 $550 $556 forward $380 $-1 #
edge_name-twe-attrib $-1 $-1 $-1 $376 58 8448 #
vertex $-1 $556 $557 #
intcurve-curve $-1 forward { surfintcur full nubs 3 open 4 
	0 3 0.07194856773658139804 2 0.1438971354731627961 2 0.1881122507233705388 3 
	0.1875 0.3474999999999999201 1.353332350627564296 
	0.1875 0.32351714408780613 1.353332350627564296 
	0.1826299421565178993 0.2982536590851836977 1.356033854630072533 
	0.1633938339679743834 0.2522037992303176601 1.365261886627834986 
	0.1490407332712297417 0.2313756903262743636 1.371606195411307239 
	0.1224683280369888716 0.2048032850920335213 1.380941506429553156 
	0.1106799048240378752 0.1954652134070727909 1.384591338666226745 
	0.09773223945274829572 0.1875345052234657917 1.387860098019594313 
	0.0001672156874373414168 
	cone 0 0.3474999999999999756 1.721875000000000044 0 0 -1 0.1875 0 0 1 I I 0 1 0.1875 forward I I I I 
	cone 0 1.087499999999999911 1 0 -1 0 -0.4000000000000000222 0 0 1 I I 0 1 0.4000000000000000222 forward I I I I 
	nullbs 
	nullbs 
	I I 
	0 
	0 
	0 
	} I I #
coedge $-1 $551 $550 $377 $473 reversed $552 $-1 #
edge $558 $559 -0.4917799109607070562 $475 -0.3340042096586799403 $377 $560 forward 7 unknown #
edge_name-twe-attrib $-1 $-1 $-1 $379 62 8448 #
vertex $-1 $556 $561 #
intcurve-curve $-1 forward { surfintcur full nubs 3 open 4 
	0.3868905533002091057 3 0.4311056685504168762 2 0.503054236286998302 2 0.5750028040235797278 3 
	-0.0977322394527482402 0.1875345052234657639 1.387860098019594091 
	-0.1106799048240378336 0.1954652134070727632 1.384591338666226745 
	-0.1224683280369888716 0.2048032850920334935 1.380941506429553378 
	-0.1490407332712297417 0.2313756903262743636 1.371606195411307239 
	-0.1633938339679743834 0.2522037992303176601 1.365261886627834986 
	-0.1826299421565178993 0.2982536590851836977 1.356033854630072533 
	-0.1875 0.32351714408780613 1.353332350627564296 
	-0.1875 0.3474999999999999201 1.353332350627564296 
	0.0001672156874373414168 
	cone 0 0.3474999999999999756 1.721875000000000044 0 0 -1 0.1875 0 0 1 I I 0 1 0.1875 forward I I I I 
	cone 0 1.087499999999999911 1 0 -1 0 -0.4000000000000000222 0 0 1 I I 0 1 0.4000000000000000222 forward I I I I 
	nullbs 
	nullbs 
	I I 
	0 
	0 
	0 
	} I I #
loop_type-twe-attrib $-1 $-1 $-1 $380 1 #
face $562 $563 $433 $3 $-1 $564 reversed single #
point $-1 0.1875 0.3474999999999999756 1.353332350627560077 #
point $-1 -0.1875 0.3474999999999999756 1.353332350627560077 #
coedge $-1 $510 $509 $385 $482 forward $369 $-1 #
edge $565 $488 -0.375 $484 0.375 $481 $566 forward 7 unknown #
edge_name-twe-attrib $-1 $-1 $-1 $387 19 8704 #
vertex $-1 $539 $567 #
straight-curve $-1 -0.84375 -0.75 1.6875 -1 0 0 I I #
point $-1 -1.6875 -0.75 1.6875 #
edge_name-twe-attrib $-1 $-1 $-1 $393 25 8704 #
vertex $-1 $513 $568 #
straight-curve $-1 0.84375 0 1.6875 1 0 0 I I #
point $-1 0.820710678118654946 2.775557561562891351e-17 1.6875 #
coedge $-1 $569 $569 $398 $492 forward $570 $-1 #
edge $571 $502 -0.4004496353366502892 $497 -0.1975351240824064769 $398 $572 reversed 7 unknown #
coedge $-1 $405 $399 $401 $499 forward $495 $-1 #
coedge $-1 $399 $405 $569 $573 reversed $495 $-1 #
loop $574 $-1 $405 $575 #
edge_name-twe-attrib $-1 $-1 $-1 $400 66 8448 #
vertex $-1 $573 $576 #
straight-curve $-1 -0.09775607398008580307 0.1875 -1.721874999999999822 0 0 -1 I I #
edge $577 $403 -7.607090876065822016 $408 -1.817687084703557776 $401 $578 reversed 7 unknown #
point $-1 -0.09775607398008581694 0.1875 -1.387870790341319882 #
edge_name-twe-attrib $-1 $-1 $-1 $406 68 8448 #
vertex $-1 $573 $579 #
straight-curve $-1 0.09775607398008580307 0.1875 -1.721874999999999822 -0 -0 1 I I #
point $-1 0.09775607398008581694 0.1875000000000000278 -1.387870790341319882 #
face_name-twe-attrib $-1 $-1 $-1 $411 25 #
face $580 $164 $570 $3 $-1 $581 reversed single #
loop $582 $317 $431 $411 #
cone-surface $583 0 1.087499999999999911 -1 0 1 0 -0.4000000000000000222 0 0 1 I I 0 1 0.4000000000000000222 forward I I I I #
coedge $-1 $481 $414 $417 $513 reversed $369 $-1 #
coedge $-1 $414 $481 $449 $539 forward $369 $-1 #
edge_name-twe-attrib $-1 $-1 $-1 $415 21 8704 #
straight-curve $-1 1.6875 -0.375 -1.6875 0 -1 0 I I #
edge $584 $488 -3.375 $420 0 $417 $585 forward 7 unknown #
loop_type-twe-attrib $-1 $-1 $-1 $418 0 #
point $-1 1.6875 0 -1.6875 #
edge_name-twe-attrib $-1 $-1 $-1 $422 29 8448 #
straight-curve $-1 0.820710678118654946 -2.775557561562891351e-17 -1.6875 0 0 -1 I I #
face_name-twe-attrib $-1 $-1 $-1 $424 12 #
plane-surface $586 0.820710678118654946 0 -1.6875 -0.707106781186549016 0.7071067811865460184 0 0 0 1 forward_v I I I I #
surf-twe-attrib $-1 $-1 $-1 $429 355 #
edge_name-twe-attrib $-1 $-1 $-1 $432 52 8704 #
vertex $-1 $432 $587 #
ellipse-curve $-1 0 1 -1 -0 -1 -0 -0.4000000000000000222 0 0 1 I I #
loop_type-twe-attrib $-1 $-1 $-1 $433 0 #
point $-1 -0.4000000000000000222 1 1 #
loop_type-twe-attrib $-1 $-1 $-1 $438 1 #
coedge $-1 $527 $527 $446 $535 reversed $438 $-1 #
face_name-twe-attrib $-1 $-1 $-1 $441 20 #
face $588 $478 $552 $3 $-1 $589 reversed single #
loop $590 $591 $592 $441 #
cone-surface $593 0 -0.3648063607187990165 0 0 1 0 -0.2250000000000000056 0 0 1 I I 0.8571673007021120005 0.5150380749100540445 0.2250000000000000056 forward I I I I #
loop_type-twe-attrib $-1 $-1 $-1 $442 0 #
loop $594 $-1 $595 $350 #
surf-twe-attrib $-1 $-1 $-1 $443 373 #
edge $596 $597 -3.141592653589793116 $597 3.141592653589793116 $446 $598 reversed 7 unknown #
edge_name-twe-attrib $-1 $-1 $-1 $448 45 8704 #
vertex $-1 $448 $599 #
ellipse-curve $-1 0 -0.1999999999999999556 0 -0 1 -0 -0.2250000000000000056 0 0 1 I I #
edge $600 $484 -3.375 $452 0 $510 $601 forward 7 unknown #
point $-1 1.6875 -0.75 -1.6875 #
edge_name-twe-attrib $-1 $-1 $-1 $454 20 8704 #
straight-curve $-1 -1.6875 -0.75 -1.6875 -0 -0 -1 I I #
surf-twe-attrib $-1 $602 $-1 $459 310 #
loop_type-twe-attrib $-1 $-1 $-1 $463 1 #
coedge $-1 $545 $545 $603 $604 reversed $463 $-1 #
coedge $-1 $546 $546 $464 $547 reversed $605 $-1 #
edge $606 $607 0 $607 6.283185307179586232 $546 $608 forward 7 unknown #
coedge $-1 $609 $609 $465 $549 forward $610 $-1 #
edge $611 $559 -0.4004496353366501227 $554 -0.1975351240824063381 $465 $612 reversed 7 unknown #
coedge $-1 $472 $466 $468 $556 reversed $552 $-1 #
coedge $-1 $466 $472 $609 $613 forward $552 $-1 #
loop $614 $-1 $466 $529 #
edge_name-twe-attrib $-1 $-1 $-1 $467 59 8448 #
vertex $-1 $613 $615 #
straight-curve $-1 0.09775607398008580307 0.1875 1.721874999999999822 0 0 -1 I I #
edge $616 $475 -7.607090876065822016 $470 -1.817687084703557554 $468 $617 reversed 7 unknown #
point $-1 0.09775607398008578919 0.1875 1.387870790341319882 #
edge_name-twe-attrib $-1 $-1 $-1 $473 61 8448 #
vertex $-1 $613 $618 #
straight-curve $-1 -0.09775607398008580307 0.1875 1.721874999999999822 -0 -0 1 I I #
point $-1 -0.0977560739800857198 0.1874999999999999445 1.387870790341319882 #
face_name-twe-attrib $-1 $-1 $-1 $478 22 #
face $619 $575 $610 $3 $-1 $620 reversed single #
cone-surface $621 0 1.087499999999999911 1 0 -1 0 -0.4000000000000000222 0 0 1 I I 0 1 0.4000000000000000222 forward I I I I #
edge_name-twe-attrib $-1 $-1 $-1 $482 22 8704 #
straight-curve $-1 1.6875 -0.375 1.6875 0 -1 0 I I #
point $-1 1.6875 -0.75 1.6875 #
point $-1 1.6875 0 1.6875 #
coedge $-1 $491 $491 $494 $573 forward $570 $-1 #
loop $622 $623 $569 $506 #
edge_name-twe-attrib $-1 $-1 $-1 $492 67 8704 #
intcurve-curve $-1 forward { surfintcur full nubs 3 open 5 
	0.1975351240824064769 3 0.2250387294112748404 2 0.2989923797095284108 2 0.3729460300077820922 2 0.4004496353366502892 3 
	-0.09773021575169807407 0.187528276190853771 -1.230075038524473197 
	-0.08999301888216909573 0.1827890875355223654 -1.233369916559446278 
	-0.08180195278054305796 0.1785298055522279714 -1.236407227479584536 
	-0.05026828316239012606 0.1651463748160801881 -1.246071225299916652 
	-0.02465121676608447721 0.1599999999999999201 -1.25 
	0.02465121676608461251 0.1599999999999999201 -1.25 
	0.05026828316239024402 0.1651463748160801881 -1.246071225299916652 
	0.08180195278054312735 0.1785298055522279714 -1.236407227479584536 
	0.08999301888216910961 0.1827890875355223377 -1.2333699165594465 
	0.09773021575169804631 0.1875282761908537155 -1.230075038524473419 
	0.0001736595936087871508 
	cone 0 0.3474999999999999756 -1.721875000000000044 0 0 -1 0.1875 0 0 1 I I 0 1 0.1875 forward I I I I 
	cone 0 1.087499999999999911 -1 0 1 0 -0.25 0 0 1 I I 0 1 0.25 forward I I I I 
	nullbs 
	nullbs 
	I I 
	0 
	0 
	0 
	} I I #
edge $624 $497 -7.45223739899855353 $502 -1.97254056177082604 $569 $625 reversed 7 unknown #
loop_type-twe-attrib $-1 $-1 $-1 $495 0 #
face $626 $411 $495 $3 $-1 $627 forward single #
point $-1 -0.09775607398008581694 0.1875000000000000278 -1.230095089039292544 #
edge_name-twe-attrib $-1 $-1 $-1 $499 53 4608 #
ellipse-curve $-1 0 0.1875 -1 -0 -1 -0 -0.4000000000000000222 0 0 1 I I #
point $-1 0.09775607398008574755 0.1874999999999999722 -1.230095089039292544 #
face_name-twe-attrib $-1 $-1 $-1 $506 26 #
cone-surface $628 0 1.087499999999999911 -1 0 1 0 -0.25 0 0 1 I I 0 1 0.25 forward I I I I #
loop_type-twe-attrib $-1 $-1 $-1 $507 0 #
surf-twe-attrib $-1 $-1 $-1 $508 441 #
edge_name-twe-attrib $-1 $-1 $-1 $513 26 8704 #
straight-curve $-1 1.6875 0 -1.6875 0 0 -1 I I #
surf-twe-attrib $-1 $-1 $-1 $519 399 #
point $-1 -0.4000000000000000222 1 -1 #
face_name-twe-attrib $-1 $-1 $-1 $529 21 #
plane-surface $629 0 0.1875 1 0 -1 0 0 0 -1 forward_v I I I I #
loop_type-twe-attrib $-1 $-1 $-1 $530 0 #
loop $630 $-1 $631 $441 #
coedge $-1 $592 $592 $-1 $632 forward $530 $-1 #
surf-twe-attrib $-1 $-1 $-1 $531 473 #
loop_type-twe-attrib $-1 $-1 $-1 $533 1 #
coedge $-1 $595 $595 $631 $633 forward $533 $-1 #
edge_name-twe-attrib $-1 $-1 $-1 $535 43 4608 #
vertex $-1 $535 $634 #
ellipse-curve $-1 0 -0.1999999999999999556 0 0 -1 0 -0.25 0 0 1 I I #
point $-1 -0.2250000000000000056 -0.2000000000000000111 0 #
edge_name-twe-attrib $-1 $-1 $-1 $539 23 8704 #
straight-curve $-1 1.6875 -0.75 -1.6875 0 0 -1 I I #
surf-twe-attrib $-1 $-1 $543 $459 102 #
coedge $-1 $603 $603 $545 $604 forward $623 $-1 #
edge $635 $636 -6.283185307179586232 $636 -0 $603 $637 reversed 7 unknown #
loop $638 $-1 $546 $563 #
edge_name-twe-attrib $-1 $-1 $-1 $547 51 8704 #
vertex $-1 $547 $639 #
ellipse-curve $-1 0 -0.75 1 -0 1 -0 -0.25 0 0 1 I I #
coedge $-1 $548 $548 $551 $613 reversed $610 $-1 #
loop $640 $605 $609 $563 #
edge_name-twe-attrib $-1 $-1 $-1 $549 60 8704 #
intcurve-curve $-1 forward { surfintcur full nubs 3 open 5 
	0.1975351240824063381 3 0.2250387294112747572 2 0.2989923797095284108 2 0.3729460300077820367 2 0.4004496353366501227 3 
	0.09773021575169818509 0.1875282761908538265 1.230075038524473419 
	0.08999301888216920675 0.1827890875355223932 1.2333699165594465 
	0.08180195278054314123 0.1785298055522279714 1.236407227479584536 
	0.05026828316239018157 0.1651463748160801881 1.246071225299916652 
	0.02465121676608452925 0.1599999999999999201 1.25 
	-0.02465121676608457435 0.1599999999999999201 1.25 
	-0.05026828316239023015 0.1651463748160801881 1.246071225299916652 
	-0.08180195278054308572 0.1785298055522279714 1.236407227479584536 
	-0.08999301888216902634 0.1827890875355223099 1.2333699165594465 
	-0.09773021575169793529 0.18752827619085366 1.230075038524473197 
	0.0001736595936091031144 
	cone 0 0.3474999999999999756 1.721875000000000044 0 0 -1 0.1875 0 0 1 I I 0 1 0.1875 forward I I I I 
	cone 0 1.087499999999999911 1 0 -1 0 -0.25 0 0 1 I I 0 1 0.25 forward I I I I 
	nullbs 
	nullbs 
	I I 
	0 
	0 
	0 
	} I I #
edge $641 $559 -7.452237398998554418 $554 -1.972540561770826706 $609 $642 reversed 7 unknown #
loop_type-twe-attrib $-1 $-1 $-1 $552 0 #
point $-1 0.09775607398008595572 0.187500000000000111 1.230095089039292544 #
edge_name-twe-attrib $-1 $-1 $-1 $556 49 4608 #
ellipse-curve $-1 0 0.1875 1 -0 1 -0 -0.4000000000000000222 0 0 1 I I #
point $-1 -0.09775607398008570592 0.1874999999999999722 1.230095089039292766 #
face_name-twe-attrib $-1 $-1 $-1 $563 23 #
cone-surface $643 0 1.087499999999999911 1 0 -1 0 -0.25 0 0 1 I I 0 1 0.25 forward I I I I #
surf-twe-attrib $-1 $-1 $-1 $564 515 #
loop_type-twe-attrib $-1 $-1 $-1 $570 0 #
loop $644 $-1 $603 $506 #
edge_name-twe-attrib $-1 $-1 $-1 $573 54 8704 #
ellipse-curve $-1 0 0.1875 -1 -0 -1 -0 -0.25 0 0 1 I I #
face_name-twe-attrib $-1 $-1 $-1 $575 24 #
plane-surface $645 0 0.1875 -1 0 1 0 0 0 1 forward_v I I I I #
surf-twe-attrib $-1 $-1 $-1 $581 549 #
surf-twe-attrib $-1 $646 $-1 $589 625 #
loop_type-twe-attrib $-1 $-1 $-1 $591 1 #
coedge $-1 $631 $631 $595 $633 reversed $591 $-1 #
edge $647 $648 1 $648 0 $592 $-1 forward 7 unknown #
edge $649 $650 -3.141592653589793116 $650 3.141592653589793116 $631 $651 forward 7 unknown #
point $-1 0.25 -0.2000000000000000111 3.06161646971843021e-17 #
edge_name-twe-attrib $-1 $-1 $-1 $604 55 8704 #
vertex $-1 $604 $652 #
ellipse-curve $-1 0 -0.75 -1 -0 1 -0 -0.25 0 0 1 I I #
loop_type-twe-attrib $-1 $-1 $-1 $605 1 #
point $-1 -0.25 -0.75 1 #
loop_type-twe-attrib $-1 $-1 $-1 $610 0 #
edge_name-twe-attrib $-1 $-1 $-1 $613 50 8704 #
ellipse-curve $-1 0 0.1875 1 -0 1 -0 -0.25 0 0 1 I I #
surf-twe-attrib $-1 $-1 $-1 $620 611 #
loop_type-twe-attrib $-1 $-1 $-1 $623 1 #
surf-twe-attrib $-1 $653 $-1 $627 625 #
surf-twe-attrib $-1 $-1 $629 $589 572 #
edge_name-twe-attrib $-1 $-1 $-1 $632 46 128 #
vertex $-1 $632 $654 #
edge_name-twe-attrib $-1 $-1 $-1 $633 47 4352 #
vertex $-1 $633 $655 #
ellipse-curve $-1 0 -0.3648063607187990165 0 0 -1 0 -0.2250000000000000056 0 0 1 I I #
point $-1 -0.25 -0.75 -1 #
surf-twe-attrib $-1 $-1 $645 $627 572 #
point $-1 0 -0.5 0 #
point $-1 0.2250000000000000056 -0.3648063607187990165 -2.755454822746590086e-17 #
End-of-ACIS-data 