600 0 1 0           
84 GICL ACIS Healer - Source: /gicl/data5/repository/PTC/V18/mfgintro18/stock.sat - 6 0 18 ACIS 6.0.3 Solaris 24 Sat Apr 13 21:44:25 2002 
1 9.999999999999999547e-07 1.000000000000000036e-10 
body $-1 $1 $-1 $-1 #
lump $-1 $-1 $2 $0 #
shell $-1 $-1 $-1 $3 $-1 $1 #
face $-1 $4 $5 $2 $-1 $6 reversed single #
face $-1 $7 $8 $2 $-1 $9 forward single #
loop $-1 $-1 $10 $3 #
plane-surface $-1 0 0 0 0 1 0 25.39999999999999858 0 0 forward_v I I I I #
face $-1 $11 $12 $2 $-1 $13 forward single #
loop $-1 $-1 $14 $4 #
cone-surface $-1 0 0 0 0 1 0 12.69999999999999929 0 0 1 I I 0 1 12.69999999999999929 forward I I I I #
coedge $-1 $15 $15 $16 $17 reversed $5 $-1 #
face $-1 $-1 $18 $2 $-1 $19 forward single #
loop $-1 $-1 $20 $7 #
cone-surface $-1 0 0 0 0 1 0 12.69999999999999929 0 0 1 I I 0 1 12.69999999999999929 forward I I I I #
coedge $-1 $21 $16 $22 $23 forward $8 $-1 #
coedge $-1 $10 $10 $24 $25 reversed $5 $-1 #
coedge $-1 $14 $26 $10 $17 forward $8 $-1 #
edge $-1 $27 0 $28 3.141592653589793116 $10 $29 forward 7 unknown #
loop $-1 $-1 $30 $11 #
plane-surface $-1 0 138.1759999999999877 0 0 1 0 25.39999999999999858 0 0 forward_v I I I I #
coedge $-1 $31 $24 $26 $32 forward $12 $-1 #
coedge $-1 $26 $14 $30 $33 reversed $8 $-1 #
coedge $-1 $24 $31 $14 $23 reversed $12 $-1 #
edge $-1 $28 0 $34 5.439999999999999503 $22 $35 forward 7 unknown #
coedge $-1 $20 $22 $15 $25 forward $12 $-1 #
edge $-1 $28 0 $27 3.141592653589793116 $15 $36 forward 7 unknown #
coedge $-1 $16 $21 $20 $32 reversed $8 $-1 #
vertex $-1 $25 $37 #
vertex $-1 $25 $38 #
ellipse-curve $-1 0 0 0 0 1 0 -12.69999999999999929 0 0 1 I I #
coedge $-1 $39 $39 $21 $33 forward $18 $-1 #
coedge $-1 $22 $20 $39 $40 reversed $12 $-1 #
edge $-1 $27 0 $41 5.439999999999999503 $20 $42 forward 7 unknown #
edge $-1 $41 0 $34 3.141592653589793116 $30 $43 forward 7 unknown #
vertex $-1 $40 $44 #
straight-curve $-1 12.69999999999999929 0 0 0 25.39999999999999858 0 I I #
ellipse-curve $-1 0 0 0 0 1 0 12.69999999999999929 0 0 1 I I #
point $-1 -12.69999999999999929 0 0 #
point $-1 12.69999999999999929 0 0 #
coedge $-1 $30 $30 $31 $40 forward $18 $-1 #
edge $-1 $34 0 $41 3.141592653589793116 $39 $45 forward 7 unknown #
vertex $-1 $40 $46 #
straight-curve $-1 -12.69999999999999929 0 -1.555250069354419078e-15 0 25.39999999999999858 0 I I #
ellipse-curve $-1 0 138.1759999999999877 0 0 1 0 -12.69999999999999929 0 0 1 I I #
point $-1 12.69999999999999929 138.1759999999999877 0 #
ellipse-curve $-1 0 138.1759999999999877 0 0 1 0 12.69999999999999929 0 0 1 I I #
point $-1 -12.69999999999999929 138.1759999999999877 0 #
End-of-ACIS-data 