600 0 2 0           
24 FBMach with ACIS - 6.0.3 13 ACIS 6.0.3 NT 24 Mon Apr 01 00:09:21 2002 
1 9.9999999999999995e-007 1e-010 
body $2 $3 $-1 $4 #
bdycol-kcp $-1 1 2 $5 $6 #
model_id-kcp-attrib $-1 $7 $-1 $0 1 1017637761 40 640155649 1 #
lump $-1 $-1 $8 $0 #
transform $-1 1 0 0 0 1 0 0 0 1 0 0 0 1 rotate no_reflect no_shear #
body $9 $10 $-1 $11 #
body $12 $13 $-1 $14 #
aggregate_advspl_attribute-aggregate_geombuild_base_attribute-aggregate_body_attribute-attrib_HH-attrib $-1 $15 $2 $0 F #
shell $-1 $-1 $-1 $16 $-1 $3 #
model_id-kcp-attrib $-1 $-1 $-1 $5 1 1017637761 40 640155650 1 #
lump $-1 $-1 $17 $5 #
transform $-1 1 0 0 0 1 0 0 0 1 0 0 0 1 no_rotate no_reflect no_shear #
rgb_color-st-attrib $-1 $18 $-1 $6 0.5 1 1 #
lump $-1 $-1 $19 $6 #
transform $-1 1 0 0 0 1 0 0 0 1 0 0 0 1 no_rotate no_reflect no_shear #
aggregate_secndry_attribute-aggregate_geombuild_base_attribute-aggregate_body_attribute-attrib_HH-attrib $-1 $20 $7 $0 F #
face $21 $22 $23 $8 $-1 $24 forward single #
shell $-1 $-1 $-1 $25 $-1 $10 #
model_id-kcp-attrib $-1 $-1 $12 $6 1 1017637761 70 642121731 1 #
shell $-1 $-1 $-1 $26 $-1 $13 #
aggregate_sharped_attribute-aggregate_geombuild_base_attribute-aggregate_body_attribute-attrib_HH-attrib $-1 $27 $15 $0 F #
model_id-kcp-attrib $-1 $28 $-1 $16 1 1017637761 40 640155649 2 #
face $29 $30 $31 $8 $-1 $32 forward single #
loop $-1 $33 $34 $16 #
cone-surface $-1 0 0 0 0 -1 -3.4914813388431298e-015 50 0 0 1 I I 0 1 50 forward I I I I #
face $-1 $35 $36 $17 $-1 $37 forward single #
face $-1 $38 $39 $19 $-1 $40 reversed single #
aggregate_reblend_attribute-aggregate_geombuild_base_attribute-aggregate_body_attribute-attrib_HH-attrib $-1 $41 $20 $0 F #
attrib_hh_face_geombuild-attrib_entity_geombuild-individual_entity_attribute-attrib_HH-attrib $-1 $-1 $21 $16 F #
model_id-kcp-attrib $-1 $42 $-1 $22 1 1017637761 40 640155649 5 #
face $43 $-1 $44 $8 $-1 $45 forward single #
loop $-1 $-1 $46 $22 #
plane-surface $-1 0 15 5.2372220082647e-014 0 1 3.4914813388431298e-015 -1 0 0 forward_v I I I I #
loop $-1 $-1 $47 $16 #
coedge $48 $34 $34 $46 $49 reversed $23 $-1 #
face $-1 $50 $51 $17 $-1 $52 reversed single #
loop $-1 $-1 $53 $25 #
plane-surface $-1 0 0 50.00000000000005 0 0 1 1 0 0 forward_v I I I I #
face $-1 $54 $55 $19 $-1 $40 reversed single #
loop $-1 $-1 $56 $26 #
cone-surface $-1 5.6237277068330154e-031 15 5.2372220082646899e-014 0 1 3.4914813388431298e-015 -50 -2.1378451158997786e-029 6.1230317691118863e-015 1 I I 0 1 50 forward I I I I #
aggregate_isospline_attribute-aggregate_geombuild_base_attribute-aggregate_body_attribute-attrib_HH-attrib $-1 $57 $27 $0 F #
model_id-kcp-attrib $-1 $58 $29 $22 1 1017637761 40 640155649 3 #
model_id-kcp-attrib $-1 $59 $-1 $30 1 1017637761 40 640155649 4 #
loop $-1 $-1 $60 $30 #
plane-surface $-1 0 -15 -5.2372220082647e-014 0 -1 -3.4914813388431298e-015 1 0 0 forward_v I I I I #
coedge $61 $46 $46 $34 $49 forward $31 $-1 #
coedge $62 $47 $47 $60 $63 reversed $33 $-1 #
attrib_hh_coedge_geombuild-attrib_entity_geombuild-individual_entity_attribute-attrib_HH-attrib $-1 $-1 $-1 $34 F #
edge $64 $65 0 $65 6.2831853071795862 $46 $66 forward 7 unknown #
face $67 $68 $69 $17 $-1 $70 reversed single #
loop $-1 $-1 $71 $35 #
plane-surface $-1 0 0 -50.00000000000005 0 0 1 1 0 0 forward_v I I I I #
coedge $-1 $72 $73 $74 $75 forward $36 $-1 #
face $-1 $76 $77 $19 $-1 $40 reversed single #
loop $-1 $-1 $78 $38 #
coedge $-1 $79 $80 $81 $82 reversed $39 $-1 #
aggregate_analytic_solver_attribute-aggregate_geombuild_base_attribute-aggregate_body_attribute-attrib_HH-attrib $-1 $83 $41 $0 F #
attrib_hh_face_geombuild-attrib_entity_geombuild-individual_entity_attribute-attrib_HH-attrib $-1 $-1 $42 $22 F #
attrib_hh_face_geombuild-attrib_entity_geombuild-individual_entity_attribute-attrib_HH-attrib $-1 $-1 $43 $30 F #
coedge $84 $60 $60 $47 $63 forward $44 $-1 #
attrib_hh_coedge_geombuild-attrib_entity_geombuild-individual_entity_attribute-attrib_HH-attrib $-1 $-1 $-1 $46 F #
attrib_hh_coedge_geombuild-attrib_entity_geombuild-individual_entity_attribute-attrib_HH-attrib $-1 $-1 $-1 $47 F #
edge $85 $86 0 $86 6.2831853071795862 $60 $87 forward 7 unknown #
attrib_edge_convexity-kcp-attrib $-1 $88 $-1 $49 1 #
vertex $89 $49 $90 #
ellipse-curve $-1 0 15 5.2372220082647e-014 0 1 3.4914813388431298e-015 50 0 0 1 I I #
model_id-kcp-attrib $-1 $-1 $-1 $50 1 1017637761 40 640155650 3 #
face $-1 $91 $92 $17 $-1 $93 reversed single #
loop $-1 $-1 $94 $50 #
plane-surface $-1 0 -15.000000000000174 0 0 1 0 0 0 1 forward_v I I I I #
coedge $-1 $95 $96 $97 $98 forward $51 $-1 #
coedge $-1 $99 $53 $100 $101 forward $36 $-1 #
coedge $-1 $53 $99 $102 $103 forward $36 $-1 #
coedge $-1 $104 $105 $53 $75 reversed $106 $-1 #
edge $-1 $107 -15.000000000000174 $108 15.000000000000174 $74 $109 forward 7 unknown #
face $-1 $110 $111 $19 $-1 $40 reversed single #
loop $-1 $-1 $112 $54 #
coedge $-1 $113 $114 $115 $116 reversed $55 $-1 #
coedge $-1 $117 $56 $118 $119 forward $39 $-1 #
coedge $-1 $56 $117 $120 $121 reversed $39 $-1 #
coedge $-1 $122 $123 $56 $82 forward $124 $-1 #
edge $-1 $125 -1.2246063538223773e-016 $126 1.5707963267948966 $81 $127 forward 7 unknown #
aggregate_geombuild_attribute-aggregate_geombuild_base_attribute-aggregate_body_attribute-attrib_HH-attrib $-1 $128 $57 $0 #
attrib_hh_coedge_geombuild-attrib_entity_geombuild-individual_entity_attribute-attrib_HH-attrib $-1 $-1 $-1 $60 F #
attrib_hh_edge_geombuild-attrib_entity_geombuild-individual_entity_attribute-attrib_HH-attrib $-1 $-1 $-1 $63 F #
vertex $129 $63 $130 #
ellipse-curve $-1 0 -15 -5.2372220082647e-014 0 -1 -3.4914813388431298e-015 50 0 0 1 I I #
convexity-sys-attrib $-1 $131 $64 $49 #
attrib_hh_vertex_geombuild-attrib_entity_geombuild-individual_entity_attribute-attrib_HH-attrib $-1 $-1 $-1 $65 F #
point $-1 50 15 5.2372220082647e-014 #
face $132 $133 $134 $17 $-1 $135 reversed single #
loop $-1 $-1 $136 $68 #
plane-surface $-1 -50 0 0 1 0 0 0 0 -1 forward_v I I I I #
coedge $-1 $137 $102 $138 $139 forward $69 $-1 #
coedge $-1 $140 $71 $137 $141 forward $51 $-1 #
coedge $-1 $71 $140 $142 $143 forward $51 $-1 #
coedge $-1 $105 $104 $71 $98 reversed $106 $-1 #
edge $-1 $144 -15.000000000000174 $145 15.000000000000174 $97 $146 forward 7 unknown #
coedge $-1 $73 $72 $147 $148 forward $36 $-1 #
coedge $-1 $149 $150 $72 $101 reversed $134 $-1 #
edge $-1 $108 -50 $151 50 $100 $152 forward 7 unknown #
coedge $-1 $94 $153 $73 $103 reversed $69 $-1 #
edge $-1 $154 -50 $107 50 $102 $155 forward 7 unknown #
coedge $-1 $97 $74 $153 $156 forward $106 $-1 #
coedge $-1 $74 $97 $149 $157 reversed $106 $-1 #
loop $-1 $-1 $104 $133 #
vertex $-1 $75 $158 #
vertex $-1 $75 $159 #
straight-curve $-1 50 0 50.00000000000005 0 1 0 I I #
face $-1 $160 $161 $19 $-1 $162 forward single #
loop $-1 $-1 $163 $76 #
coedge $-1 $164 $165 $163 $166 forward $77 $-1 #
coedge $-1 $167 $78 $168 $169 reversed $55 $-1 #
coedge $-1 $78 $167 $80 $121 forward $55 $-1 #
coedge $-1 $170 $171 $78 $116 forward $172 $-1 #
edge $-1 $173 -3.1415926535897931 $174 -1.5707963267948966 $115 $175 forward 7 unknown #
coedge $-1 $80 $79 $176 $177 reversed $39 $-1 #
coedge $-1 $165 $164 $178 $119 reversed $77 $-1 #
edge $-1 $125 -30.000000000000178 $179 1.7408297026122455e-013 $178 $180 forward 7 unknown #
coedge $-1 $181 $182 $183 $121 forward $184 $-1 #
edge $-1 $126 -30 $174 3.4816594052244909e-013 $120 $185 forward 7 unknown #
coedge $-1 $123 $81 $182 $186 reversed $124 $-1 #
coedge $-1 $81 $122 $187 $188 forward $124 $-1 #
loop $-1 $-1 $81 $189 #
vertex $-1 $190 $191 #
vertex $-1 $192 $193 #
ellipse-curve $-1 5.6237277068330154e-031 -15.000000000000174 -5.2372220082647606e-014 0 1 0 -50 -2.1378451158997786e-029 6.1230317691118863e-015 1 I I #
aggregate_stitch_attribute-aggregate_stitch_base_attribute-aggregate_body_attribute-attrib_HH-attrib $-1 $194 $83 $0 F #
attrib_hh_vertex_geombuild-attrib_entity_geombuild-individual_entity_attribute-attrib_HH-attrib $-1 $-1 $-1 $86 F #
point $-1 50 -15 -5.2372220082647e-014 #
attrib_hh_edge_geombuild-attrib_entity_geombuild-individual_entity_attribute-attrib_HH-attrib $-1 $-1 $88 $49 F #
model_id-kcp-attrib $-1 $-1 $-1 $91 1 1017637761 40 640155650 2 #
face $-1 $-1 $106 $17 $-1 $195 reversed single #
loop $-1 $-1 $149 $91 #
plane-surface $-1 0 15.000000000000174 0 0 -1 0 0 0 -1 forward_v I I I I #
coedge $-1 $196 $147 $150 $197 forward $92 $-1 #
coedge $-1 $153 $94 $95 $141 reversed $69 $-1 #
coedge $-1 $147 $196 $94 $139 reversed $92 $-1 #
edge $-1 $154 -50.00000000000005 $198 50.00000000000005 $138 $199 forward 7 unknown #
coedge $-1 $96 $95 $196 $200 forward $51 $-1 #
edge $-1 $145 -50 $198 50 $137 $201 forward 7 unknown #
coedge $-1 $150 $149 $96 $143 reversed $134 $-1 #
edge $-1 $202 -50 $144 50 $142 $203 forward 7 unknown #
vertex $-1 $98 $204 #
vertex $-1 $156 $205 #
straight-curve $-1 50 0 -50.00000000000005 0 -1 0 I I #
coedge $-1 $136 $138 $99 $148 reversed $92 $-1 #
edge $-1 $151 -15.000000000000174 $154 15.000000000000174 $147 $206 forward 7 unknown #
coedge $-1 $142 $100 $105 $157 forward $134 $-1 #
coedge $-1 $100 $142 $136 $197 reversed $134 $-1 #
vertex $-1 $101 $207 #
straight-curve $-1 0 15.000000000000174 50.00000000000005 -1 0 0 I I #
coedge $-1 $102 $137 $104 $156 reversed $69 $-1 #
vertex $-1 $148 $208 #
straight-curve $-1 0 -15.000000000000174 50.00000000000005 1 0 0 I I #
edge $-1 $107 -50.00000000000005 $145 50.00000000000005 $104 $209 forward 7 unknown #
edge $-1 $108 -50.00000000000005 $144 50.00000000000005 $105 $210 forward 7 unknown #
point $-1 50 -15.000000000000174 50.00000000000005 #
point $-1 50 15.000000000000174 50.00000000000005 #
face $-1 $211 $212 $19 $-1 $213 reversed single #
loop $-1 $-1 $183 $110 #
plane-surface $-1 0 0 50.00000000000005 0 0 1 1 0 0 forward_v I I I I #
coedge $-1 $214 $215 $216 $166 reversed $111 $-1 #
coedge $-1 $118 $112 $217 $218 reversed $77 $-1 #
coedge $-1 $112 $118 $219 $220 reversed $77 $-1 #
edge $-1 $221 -30.000000000000348 $222 0 $216 $223 forward 7 unknown #
coedge $-1 $114 $113 $224 $225 reversed $55 $-1 #
coedge $-1 $226 $227 $228 $169 forward $229 $-1 #
edge $-1 $230 -30.000000000000178 $173 1.7408297026122455e-013 $168 $231 forward 7 unknown #
coedge $-1 $171 $115 $232 $233 reversed $172 $-1 #
coedge $-1 $115 $170 $226 $234 forward $172 $-1 #
loop $-1 $-1 $115 $235 #
vertex $-1 $236 $237 #
vertex $-1 $238 $239 #
ellipse-curve $-1 5.6237277068330154e-031 15.000000000000174 5.2372220082647505e-014 0 -1 0 -50 -2.1378451158997786e-029 6.1230317691118863e-015 1 I I #
coedge $-1 $240 $241 $117 $177 forward $242 $-1 #
edge $-1 $174 -1.5707963267948966 $179 1.2246063538223773e-016 $176 $175 forward 7 unknown #
coedge $-1 $243 $244 $245 $119 forward $212 $-1 #
vertex $-1 $246 $247 #
straight-curve $-1 -50 15 5.2372220082646899e-014 0 1 3.4914813388431298e-015 I I #
coedge $-1 $248 $120 $241 $238 forward $184 $-1 #
coedge $-1 $120 $248 $122 $186 forward $184 $-1 #
coedge $-1 $249 $232 $114 $121 reversed $161 $-1 #
loop $-1 $-1 $120 $250 #
straight-curve $-1 5.6237277068330154e-031 14.999999999999826 50.00000000000005 0 1 3.4914813388431298e-015 I I #
edge $-1 $251 -50 $126 5.6237277068330154e-031 $122 $252 forward 7 unknown #
coedge $-1 $253 $245 $123 $188 reversed $254 $-1 #
edge $-1 $251 -50.00000000000005 $125 5.2372220082647606e-014 $187 $255 forward 7 unknown #
face $-1 $256 $124 $19 $-1 $257 reversed single #
edge $-1 $125 5.2372220082647606e-014 $258 50.00000000000005 $244 $255 forward 7 unknown #
point $-1 -50 -15.000000000000178 -5.2372220082647606e-014 #
edge $-1 $126 5.6237277068330154e-031 $259 50 $260 $252 forward 7 unknown #
point $-1 5.6237277068330154e-031 -15.000000000000174 50.00000000000005 #
aggregate_simgeom_attribute-aggregate_simgeom_base_attribute-aggregate_body_attribute-attrib_HH-attrib $-1 $-1 $128 $0 F #
plane-surface $-1 50 0 0 -1 0 0 0 0 1 forward_v I I I I #
coedge $-1 $138 $136 $140 $200 reversed $92 $-1 #
edge $-1 $151 -50.00000000000005 $202 50.00000000000005 $150 $261 forward 7 unknown #
vertex $-1 $200 $262 #
straight-curve $-1 -50 -15.000000000000174 0 0 0 -1 I I #
edge $-1 $198 -15.000000000000174 $202 15.000000000000174 $196 $263 forward 7 unknown #
straight-curve $-1 0 -15.000000000000174 -50.00000000000005 -1 0 0 I I #
vertex $-1 $143 $264 #
straight-curve $-1 0 15.000000000000174 -50.00000000000005 1 0 0 I I #
point $-1 50 15.000000000000174 -50.00000000000005 #
point $-1 50 -15.000000000000174 -50.00000000000005 #
straight-curve $-1 -50 0 50.00000000000005 0 -1 0 I I #
point $-1 -50 15.000000000000174 50.00000000000005 #
point $-1 -50 -15.000000000000174 50.00000000000005 #
straight-curve $-1 50 -15.000000000000174 0 0 0 -1 I I #
straight-curve $-1 50 15.000000000000174 0 0 0 -1 I I #
face $-1 $265 $266 $19 $-1 $267 reversed single #
loop $-1 $-1 $178 $160 #
plane-surface $-1 -50 0 0 1 0 0 0 0 -1 forward_v I I I I #
coedge $-1 $268 $163 $269 $270 reversed $111 $-1 #
coedge $-1 $163 $268 $271 $272 reversed $111 $-1 #
coedge $-1 $273 $274 $275 $166 forward $276 $-1 #
coedge $-1 $277 $278 $164 $218 forward $279 $-1 #
edge $-1 $179 1.2246063538223773e-016 $222 1.5707963267948968 $217 $175 forward 7 unknown #
coedge $-1 $280 $281 $165 $220 forward $282 $-1 #
edge $-1 $221 -1.5707963267948968 $125 -1.2246063538223773e-016 $219 $127 forward 7 unknown #
vertex $-1 $283 $284 #
vertex $-1 $285 $286 #
straight-curve $-1 5.6237277068330154e-031 15.000000000000174 -50.00000000000005 0 1 3.4914813388431298e-015 I I #
coedge $-1 $287 $260 $167 $225 forward $288 $-1 #
edge $-1 $126 1.5707963267948966 $230 3.1415926535897931 $224 $127 forward 7 unknown #
coedge $-1 $289 $168 $171 $234 reversed $229 $-1 #
coedge $-1 $168 $289 $287 $290 forward $229 $-1 #
coedge $-1 $291 $292 $268 $169 reversed $266 $-1 #
loop $-1 $-1 $168 $293 #
vertex $-1 $294 $295 #
straight-curve $-1 50 15 5.2372220082646899e-014 0 1 3.4914813388431298e-015 I I #
coedge $-1 $183 $296 $170 $233 forward $161 $-1 #
edge $-1 $297 -50 $174 -5.6237277068330154e-031 $170 $298 forward 7 unknown #
edge $-1 $297 -50.00000000000005 $173 -5.2372220082647505e-014 $226 $299 forward 7 unknown #
face $-1 $300 $172 $19 $-1 $301 reversed single #
edge $-1 $173 -5.2372220082647505e-014 $302 50.00000000000005 $292 $299 forward 7 unknown #
point $-1 50 15.000000000000174 5.2372220082647505e-014 #
edge $-1 $174 -5.6237277068330154e-031 $303 50 $241 $298 forward 7 unknown #
point $-1 5.6237277068330154e-031 15.000000000000174 50.00000000000005 #
coedge $-1 $241 $176 $304 $305 reversed $242 $-1 #
coedge $-1 $176 $240 $181 $238 reversed $242 $-1 #
loop $-1 $-1 $176 $300 #
coedge $-1 $306 $178 $278 $246 forward $212 $-1 #
coedge $-1 $178 $306 $280 $190 reversed $212 $-1 #
coedge $-1 $187 $304 $79 $119 reversed $254 $-1 #
edge $-1 $179 -5.2372220082647505e-014 $307 50.00000000000005 $278 $308 forward 7 unknown #
point $-1 -50 15.000000000000174 5.2372220082647505e-014 #
coedge $-1 $182 $181 $253 $309 forward $184 $-1 #
coedge $-1 $296 $183 $260 $192 forward $161 $-1 #
face $-1 $310 $184 $19 $-1 $162 forward single #
vertex $-1 $309 $311 #
straight-curve $-1 0 -15.000000000000174 50.00000000000005 1 0 0 I I #
coedge $-1 $304 $187 $248 $309 reversed $254 $-1 #
loop $-1 $-1 $245 $312 #
straight-curve $-1 -50 -15.000000000000174 0 0 0 -1 I I #
face $-1 $313 $288 $19 $-1 $257 reversed single #
plane-surface $-1 0 -15.000000000000174 0 0 1 0 0 0 1 forward_v I I I I #
vertex $-1 $314 $315 #
vertex $-1 $316 $317 #
coedge $-1 $224 $287 $249 $192 reversed $288 $-1 #
straight-curve $-1 -50 15.000000000000174 0 0 0 -1 I I #
point $-1 -50 -15.000000000000174 -50.00000000000005 #
straight-curve $-1 -50 0 -50.00000000000005 0 1 0 I I #
point $-1 -50 15.000000000000174 -50.00000000000005 #
face $-1 $235 $318 $19 $-1 $301 reversed single #
loop $-1 $-1 $228 $211 #
plane-surface $-1 50 0 0 -1 0 0 0 0 1 forward_v I I I I #
coedge $-1 $215 $214 $113 $169 forward $111 $-1 #
coedge $-1 $319 $320 $214 $270 forward $321 $-1 #
edge $-1 $230 -3.1415926535897931 $221 -1.5707963267948968 $269 $127 forward 7 unknown #
coedge $-1 $322 $323 $215 $272 forward $318 $-1 #
edge $-1 $222 1.5707963267948968 $173 3.1415926535897931 $271 $175 forward 7 unknown #
coedge $-1 $324 $216 $323 $285 forward $276 $-1 #
coedge $-1 $216 $324 $319 $325 forward $276 $-1 #
coedge $-1 $326 $327 $112 $166 reversed $328 $-1 #
loop $-1 $-1 $216 $310 #
coedge $-1 $278 $217 $327 $329 reversed $279 $-1 #
coedge $-1 $217 $277 $243 $246 reversed $279 $-1 #
loop $-1 $-1 $217 $330 #
coedge $-1 $281 $219 $244 $190 forward $282 $-1 #
coedge $-1 $219 $280 $326 $283 reversed $282 $-1 #
loop $-1 $-1 $219 $331 #
edge $-1 $221 -5.6237277068330154e-031 $258 50 $281 $332 forward 7 unknown #
point $-1 5.6237277068330154e-031 -15.000000000000174 -50.00000000000005 #
edge $-1 $222 5.6237277068330154e-031 $302 50 $323 $333 forward 7 unknown #
point $-1 5.6237277068330154e-031 15.000000000000174 -50.00000000000005 #
coedge $-1 $260 $224 $227 $290 reversed $288 $-1 #
loop $-1 $-1 $224 $256 #
coedge $-1 $227 $226 $296 $316 reversed $229 $-1 #
edge $-1 $259 -50.00000000000005 $230 5.2372220082647606e-014 $227 $334 forward 7 unknown #
coedge $-1 $335 $228 $320 $294 forward $266 $-1 #
coedge $-1 $228 $335 $322 $236 reversed $266 $-1 #
face $-1 $-1 $229 $19 $-1 $267 reversed single #
edge $-1 $230 5.2372220082647606e-014 $336 50.00000000000005 $291 $334 forward 7 unknown #
point $-1 50 -15.000000000000178 -5.2372220082647606e-014 #
coedge $-1 $232 $249 $289 $316 forward $161 $-1 #
vertex $-1 $316 $337 #
straight-curve $-1 0 15.000000000000174 50.00000000000005 -1 0 0 I I #
straight-curve $-1 50 15.000000000000174 0 0 0 -1 I I #
face $-1 $330 $242 $19 $-1 $301 reversed single #
plane-surface $-1 0 15.000000000000174 0 0 -1 0 0 0 -1 forward_v I I I I #
vertex $-1 $338 $339 #
vertex $-1 $238 $340 #
coedge $-1 $245 $253 $240 $305 forward $254 $-1 #
edge $-1 $303 -50.00000000000005 $179 -5.2372220082647505e-014 $240 $308 forward 7 unknown #
coedge $-1 $244 $243 $341 $314 reversed $212 $-1 #
vertex $-1 $329 $342 #
straight-curve $-1 -50 15.000000000000174 0 0 0 -1 I I #
edge $-1 $303 -15.000000000000174 $251 15.000000000000174 $253 $343 forward 7 unknown #
face $-1 $312 $276 $19 $-1 $344 reversed single #
point $-1 -50 -15.000000000000174 50.00000000000005 #
face $-1 $293 $254 $19 $-1 $213 reversed single #
face $-1 $345 $321 $19 $-1 $257 reversed single #
edge $-1 $258 -15.000000000000174 $307 15.000000000000174 $306 $346 forward 7 unknown #
point $-1 -50 -15.000000000000174 -50.00000000000005 #
edge $-1 $259 -15.000000000000174 $297 15.000000000000174 $289 $347 forward 7 unknown #
point $-1 50 -15.000000000000174 50.00000000000005 #
loop $-1 $-1 $271 $265 #
coedge $-1 $320 $269 $274 $325 reversed $321 $-1 #
coedge $-1 $269 $319 $291 $294 reversed $321 $-1 #
loop $-1 $-1 $269 $313 #
coedge $-1 $323 $271 $292 $236 forward $318 $-1 #
coedge $-1 $271 $322 $273 $285 reversed $318 $-1 #
coedge $-1 $274 $273 $335 $338 forward $276 $-1 #
edge $-1 $336 -50 $221 -5.6237277068330154e-031 $319 $332 forward 7 unknown #
coedge $-1 $341 $275 $281 $283 forward $328 $-1 #
coedge $-1 $275 $341 $277 $329 forward $328 $-1 #
loop $-1 $-1 $275 $345 #
edge $-1 $307 -50 $222 5.6237277068330154e-031 $277 $333 forward 7 unknown #
face $-1 $331 $279 $19 $-1 $301 reversed single #
face $-1 $189 $282 $19 $-1 $257 reversed single #
straight-curve $-1 0 -15.000000000000174 -50.00000000000005 -1 0 0 I I #
straight-curve $-1 0 15.000000000000174 -50.00000000000005 1 0 0 I I #
straight-curve $-1 50 -15.000000000000174 0 0 0 -1 I I #
coedge $-1 $292 $291 $324 $338 reversed $266 $-1 #
vertex $-1 $294 $348 #
point $-1 50 15.000000000000174 50.00000000000005 #
edge $-1 $302 -15.000000000000174 $336 15.000000000000174 $335 $349 forward 7 unknown #
point $-1 50 15.000000000000174 -50.00000000000005 #
point $-1 -50 15.000000000000174 50.00000000000005 #
coedge $-1 $327 $326 $306 $314 forward $328 $-1 #
point $-1 -50 15.000000000000174 -50.00000000000005 #
straight-curve $-1 -50 0 50.00000000000005 0 -1 0 I I #
plane-surface $-1 0 0 -50.00000000000005 0 0 1 1 0 0 forward_v I I I I #
face $-1 $250 $328 $19 $-1 $344 reversed single #
straight-curve $-1 -50 0 -50.00000000000005 0 1 0 I I #
straight-curve $-1 50 0 50.00000000000005 0 1 0 I I #
point $-1 50 -15.000000000000174 -50.00000000000005 #
straight-curve $-1 50 0 -50.00000000000005 0 -1 0 I I #
End-of-ACIS-data 