600 0 2 0           
24 FBMach with ACIS - 6.0.3 13 ACIS 6.0.3 NT 24 Tue May 22 12:37:26 2001 
1 9.9999999999999995e-007 1e-010 
body $2 $3 $-1 $4 #
bdycol-kcp $-1 1 2 $5 $6 #
model_id-kcp-attrib $-1 $-1 $-1 $0 1 990549446 60 641466369 1 #
lump $-1 $-1 $7 $0 #
transform $-1 1 0 0 0 1 0 0 0 1 0 0 0 1 no_rotate no_reflect no_shear #
body $8 $9 $-1 $10 #
body $11 $12 $-1 $13 #
shell $-1 $-1 $-1 $14 $-1 $3 #
model_id-kcp-attrib $-1 $-1 $-1 $5 1 990549446 60 641466370 1 #
lump $-1 $-1 $15 $5 #
transform $-1 1 0 0 0 1 0 0 0 1 0 0 0 1 no_rotate no_reflect no_shear #
rgb_color-st-attrib $-1 $16 $-1 $6 0.5 1 1 #
lump $-1 $-1 $17 $6 #
transform $-1 1 0 0 0 1 0 0 0 1 0 0 0 1 no_rotate no_reflect no_shear #
face $18 $19 $20 $7 $-1 $21 forward single #
shell $-1 $-1 $-1 $22 $-1 $9 #
model_id-kcp-attrib $-1 $-1 $11 $6 1 990549446 80 642777091 1 #
shell $-1 $-1 $-1 $23 $-1 $12 #
model_id-kcp-attrib $-1 $-1 $-1 $14 1 990549446 60 641466369 2 #
face $24 $25 $26 $7 $-1 $27 forward single #
loop $-1 $28 $29 $14 #
cone-surface $-1 0 0 0 0 -1 -3.4914813388431298e-015 50 0 0 1 I I 0 1 50 forward I I I I #
face $-1 $30 $31 $15 $-1 $32 forward single #
face $-1 $33 $34 $17 $-1 $35 reversed single #
model_id-kcp-attrib $-1 $36 $-1 $19 1 990549446 60 641466369 5 #
face $37 $-1 $38 $7 $-1 $39 forward single #
loop $-1 $-1 $40 $19 #
plane-surface $-1 0 15 5.2372220082647e-014 0 1 3.4914813388431298e-015 -1 0 0 forward_v I I I I #
loop $-1 $-1 $41 $14 #
coedge $-1 $29 $29 $40 $42 reversed $20 $-1 #
face $-1 $43 $44 $15 $-1 $45 reversed single #
loop $-1 $-1 $46 $22 #
plane-surface $-1 0 0 50.00000000000005 0 0 1 1 0 0 forward_v I I I I #
face $-1 $47 $48 $17 $-1 $35 reversed single #
loop $-1 $-1 $49 $23 #
cone-surface $-1 5.6237277068330154e-031 15 5.2372220082646899e-014 0 1 3.4914813388431298e-015 -50 -2.1378451158997786e-029 6.1230317691118863e-015 1 I I 0 1 50 forward I I I I #
model_id-kcp-attrib $-1 $-1 $24 $19 1 990549446 60 641466369 3 #
model_id-kcp-attrib $-1 $-1 $-1 $25 1 990549446 60 641466369 4 #
loop $-1 $-1 $50 $25 #
plane-surface $-1 0 -15 -5.2372220082647e-014 0 -1 -3.4914813388431298e-015 1 0 0 forward_v I I I I #
coedge $-1 $40 $40 $29 $42 forward $26 $-1 #
coedge $-1 $41 $41 $50 $51 reversed $28 $-1 #
edge $52 $53 0 $53 6.2831853071795862 $40 $54 forward 7 unknown #
face $55 $56 $57 $15 $-1 $58 reversed single #
loop $-1 $-1 $59 $30 #
plane-surface $-1 0 0 -50.00000000000005 0 0 1 1 0 0 forward_v I I I I #
coedge $-1 $60 $61 $62 $63 forward $31 $-1 #
face $-1 $64 $65 $17 $-1 $35 reversed single #
loop $-1 $-1 $66 $33 #
coedge $-1 $67 $68 $69 $70 reversed $34 $-1 #
coedge $-1 $50 $50 $41 $51 forward $38 $-1 #
edge $-1 $71 0 $71 6.2831853071795862 $50 $72 forward 7 unknown #
attrib_edge_convexity-kcp-attrib $-1 $73 $-1 $42 1 #
vertex $-1 $42 $74 #
ellipse-curve $-1 0 15 5.2372220082647e-014 0 1 3.4914813388431298e-015 50 0 0 1 I I #
model_id-kcp-attrib $-1 $-1 $-1 $43 1 990549446 60 641466370 3 #
face $-1 $75 $76 $15 $-1 $77 reversed single #
loop $-1 $-1 $78 $43 #
plane-surface $-1 0 -15.000000000000174 0 0 1 0 0 0 1 forward_v I I I I #
coedge $-1 $79 $80 $81 $82 forward $44 $-1 #
coedge $-1 $83 $46 $84 $85 forward $31 $-1 #
coedge $-1 $46 $83 $86 $87 forward $31 $-1 #
coedge $-1 $88 $89 $46 $63 reversed $90 $-1 #
edge $-1 $91 -15.000000000000174 $92 15.000000000000174 $62 $93 forward 7 unknown #
face $-1 $94 $95 $17 $-1 $35 reversed single #
loop $-1 $-1 $96 $47 #
coedge $-1 $97 $98 $99 $100 reversed $48 $-1 #
coedge $-1 $101 $49 $102 $103 forward $34 $-1 #
coedge $-1 $49 $101 $104 $105 reversed $34 $-1 #
coedge $-1 $106 $107 $49 $70 forward $108 $-1 #
edge $-1 $109 -1.2246063538223773e-016 $110 1.5707963267948966 $69 $111 forward 7 unknown #
vertex $-1 $51 $112 #
ellipse-curve $-1 0 -15 -5.2372220082647e-014 0 -1 -3.4914813388431298e-015 50 0 0 1 I I #
convexity-sys-attrib $-1 $-1 $52 $42 #
point $-1 50 15 5.2372220082647e-014 #
face $113 $114 $115 $15 $-1 $116 reversed single #
loop $-1 $-1 $117 $56 #
plane-surface $-1 -50 0 0 1 0 0 0 0 -1 forward_v I I I I #
coedge $-1 $118 $86 $119 $120 forward $57 $-1 #
coedge $-1 $121 $59 $118 $122 forward $44 $-1 #
coedge $-1 $59 $121 $123 $124 forward $44 $-1 #
coedge $-1 $89 $88 $59 $82 reversed $90 $-1 #
edge $-1 $125 -15.000000000000174 $126 15.000000000000174 $81 $127 forward 7 unknown #
coedge $-1 $61 $60 $128 $129 forward $31 $-1 #
coedge $-1 $130 $131 $60 $85 reversed $115 $-1 #
edge $-1 $92 -50 $132 50 $84 $133 forward 7 unknown #
coedge $-1 $78 $134 $61 $87 reversed $57 $-1 #
edge $-1 $135 -50 $91 50 $86 $136 forward 7 unknown #
coedge $-1 $81 $62 $134 $137 forward $90 $-1 #
coedge $-1 $62 $81 $130 $138 reversed $90 $-1 #
loop $-1 $-1 $88 $114 #
vertex $-1 $63 $139 #
vertex $-1 $63 $140 #
straight-curve $-1 50 0 50.00000000000005 0 1 0 I I #
face $-1 $141 $142 $17 $-1 $143 forward single #
loop $-1 $-1 $144 $64 #
coedge $-1 $145 $146 $144 $147 forward $65 $-1 #
coedge $-1 $148 $66 $149 $150 reversed $48 $-1 #
coedge $-1 $66 $148 $68 $105 forward $48 $-1 #
coedge $-1 $151 $152 $66 $100 forward $153 $-1 #
edge $-1 $154 -3.1415926535897931 $155 -1.5707963267948966 $99 $156 forward 7 unknown #
coedge $-1 $68 $67 $157 $158 reversed $34 $-1 #
coedge $-1 $146 $145 $159 $103 reversed $65 $-1 #
edge $-1 $109 -30.000000000000178 $160 1.7408297026122455e-013 $159 $161 forward 7 unknown #
coedge $-1 $162 $163 $164 $105 forward $165 $-1 #
edge $-1 $110 -30 $155 3.4816594052244909e-013 $104 $166 forward 7 unknown #
coedge $-1 $107 $69 $163 $167 reversed $108 $-1 #
coedge $-1 $69 $106 $168 $169 forward $108 $-1 #
loop $-1 $-1 $69 $170 #
vertex $-1 $171 $172 #
vertex $-1 $173 $174 #
ellipse-curve $-1 5.6237277068330154e-031 -15.000000000000174 -5.2372220082647606e-014 0 1 0 -50 -2.1378451158997786e-029 6.1230317691118863e-015 1 I I #
point $-1 50 -15 -5.2372220082647e-014 #
model_id-kcp-attrib $-1 $-1 $-1 $75 1 990549446 60 641466370 2 #
face $-1 $-1 $90 $15 $-1 $175 reversed single #
loop $-1 $-1 $130 $75 #
plane-surface $-1 0 15.000000000000174 0 0 -1 0 0 0 -1 forward_v I I I I #
coedge $-1 $176 $128 $131 $177 forward $76 $-1 #
coedge $-1 $134 $78 $79 $122 reversed $57 $-1 #
coedge $-1 $128 $176 $78 $120 reversed $76 $-1 #
edge $-1 $135 -50.00000000000005 $178 50.00000000000005 $119 $179 forward 7 unknown #
coedge $-1 $80 $79 $176 $180 forward $44 $-1 #
edge $-1 $126 -50 $178 50 $118 $181 forward 7 unknown #
coedge $-1 $131 $130 $80 $124 reversed $115 $-1 #
edge $-1 $182 -50 $125 50 $123 $183 forward 7 unknown #
vertex $-1 $82 $184 #
vertex $-1 $137 $185 #
straight-curve $-1 50 0 -50.00000000000005 0 -1 0 I I #
coedge $-1 $117 $119 $83 $129 reversed $76 $-1 #
edge $-1 $132 -15.000000000000174 $135 15.000000000000174 $128 $186 forward 7 unknown #
coedge $-1 $123 $84 $89 $138 forward $115 $-1 #
coedge $-1 $84 $123 $117 $177 reversed $115 $-1 #
vertex $-1 $85 $187 #
straight-curve $-1 0 15.000000000000174 50.00000000000005 -1 0 0 I I #
coedge $-1 $86 $118 $88 $137 reversed $57 $-1 #
vertex $-1 $129 $188 #
straight-curve $-1 0 -15.000000000000174 50.00000000000005 1 0 0 I I #
edge $-1 $91 -50.00000000000005 $126 50.00000000000005 $88 $189 forward 7 unknown #
edge $-1 $92 -50.00000000000005 $125 50.00000000000005 $89 $190 forward 7 unknown #
point $-1 50 -15.000000000000174 50.00000000000005 #
point $-1 50 15.000000000000174 50.00000000000005 #
face $-1 $191 $192 $17 $-1 $193 reversed single #
loop $-1 $-1 $164 $94 #
plane-surface $-1 0 0 50.00000000000005 0 0 1 1 0 0 forward_v I I I I #
coedge $-1 $194 $195 $196 $147 reversed $95 $-1 #
coedge $-1 $102 $96 $197 $198 reversed $65 $-1 #
coedge $-1 $96 $102 $199 $200 reversed $65 $-1 #
edge $-1 $201 -30.000000000000348 $202 0 $196 $203 forward 7 unknown #
coedge $-1 $98 $97 $204 $205 reversed $48 $-1 #
coedge $-1 $206 $207 $208 $150 forward $209 $-1 #
edge $-1 $210 -30.000000000000178 $154 1.7408297026122455e-013 $149 $211 forward 7 unknown #
coedge $-1 $152 $99 $212 $213 reversed $153 $-1 #
coedge $-1 $99 $151 $206 $214 forward $153 $-1 #
loop $-1 $-1 $99 $215 #
vertex $-1 $216 $217 #
vertex $-1 $218 $219 #
ellipse-curve $-1 5.6237277068330154e-031 15.000000000000174 5.2372220082647505e-014 0 -1 0 -50 -2.1378451158997786e-029 6.1230317691118863e-015 1 I I #
coedge $-1 $220 $221 $101 $158 forward $222 $-1 #
edge $-1 $155 -1.5707963267948966 $160 1.2246063538223773e-016 $157 $156 forward 7 unknown #
coedge $-1 $223 $224 $225 $103 forward $192 $-1 #
vertex $-1 $226 $227 #
straight-curve $-1 -50 15 5.2372220082646899e-014 0 1 3.4914813388431298e-015 I I #
coedge $-1 $228 $104 $221 $218 forward $165 $-1 #
coedge $-1 $104 $228 $106 $167 forward $165 $-1 #
coedge $-1 $229 $212 $98 $105 reversed $142 $-1 #
loop $-1 $-1 $104 $230 #
straight-curve $-1 5.6237277068330154e-031 14.999999999999826 50.00000000000005 0 1 3.4914813388431298e-015 I I #
edge $-1 $231 -50 $110 5.6237277068330154e-031 $106 $232 forward 7 unknown #
coedge $-1 $233 $225 $107 $169 reversed $234 $-1 #
edge $-1 $231 -50.00000000000005 $109 5.2372220082647606e-014 $168 $235 forward 7 unknown #
face $-1 $236 $108 $17 $-1 $237 reversed single #
edge $-1 $109 5.2372220082647606e-014 $238 50.00000000000005 $224 $235 forward 7 unknown #
point $-1 -50 -15.000000000000178 -5.2372220082647606e-014 #
edge $-1 $110 5.6237277068330154e-031 $239 50 $240 $232 forward 7 unknown #
point $-1 5.6237277068330154e-031 -15.000000000000174 50.00000000000005 #
plane-surface $-1 50 0 0 -1 0 0 0 0 1 forward_v I I I I #
coedge $-1 $119 $117 $121 $180 reversed $76 $-1 #
edge $-1 $132 -50.00000000000005 $182 50.00000000000005 $131 $241 forward 7 unknown #
vertex $-1 $180 $242 #
straight-curve $-1 -50 -15.000000000000174 0 0 0 -1 I I #
edge $-1 $178 -15.000000000000174 $182 15.000000000000174 $176 $243 forward 7 unknown #
straight-curve $-1 0 -15.000000000000174 -50.00000000000005 -1 0 0 I I #
vertex $-1 $124 $244 #
straight-curve $-1 0 15.000000000000174 -50.00000000000005 1 0 0 I I #
point $-1 50 15.000000000000174 -50.00000000000005 #
point $-1 50 -15.000000000000174 -50.00000000000005 #
straight-curve $-1 -50 0 50.00000000000005 0 -1 0 I I #
point $-1 -50 15.000000000000174 50.00000000000005 #
point $-1 -50 -15.000000000000174 50.00000000000005 #
straight-curve $-1 50 -15.000000000000174 0 0 0 -1 I I #
straight-curve $-1 50 15.000000000000174 0 0 0 -1 I I #
face $-1 $245 $246 $17 $-1 $247 reversed single #
loop $-1 $-1 $159 $141 #
plane-surface $-1 -50 0 0 1 0 0 0 0 -1 forward_v I I I I #
coedge $-1 $248 $144 $249 $250 reversed $95 $-1 #
coedge $-1 $144 $248 $251 $252 reversed $95 $-1 #
coedge $-1 $253 $254 $255 $147 forward $256 $-1 #
coedge $-1 $257 $258 $145 $198 forward $259 $-1 #
edge $-1 $160 1.2246063538223773e-016 $202 1.5707963267948968 $197 $156 forward 7 unknown #
coedge $-1 $260 $261 $146 $200 forward $262 $-1 #
edge $-1 $201 -1.5707963267948968 $109 -1.2246063538223773e-016 $199 $111 forward 7 unknown #
vertex $-1 $263 $264 #
vertex $-1 $265 $266 #
straight-curve $-1 5.6237277068330154e-031 15.000000000000174 -50.00000000000005 0 1 3.4914813388431298e-015 I I #
coedge $-1 $267 $240 $148 $205 forward $268 $-1 #
edge $-1 $110 1.5707963267948966 $210 3.1415926535897931 $204 $111 forward 7 unknown #
coedge $-1 $269 $149 $152 $214 reversed $209 $-1 #
coedge $-1 $149 $269 $267 $270 forward $209 $-1 #
coedge $-1 $271 $272 $248 $150 reversed $246 $-1 #
loop $-1 $-1 $149 $273 #
vertex $-1 $274 $275 #
straight-curve $-1 50 15 5.2372220082646899e-014 0 1 3.4914813388431298e-015 I I #
coedge $-1 $164 $276 $151 $213 forward $142 $-1 #
edge $-1 $277 -50 $155 -5.6237277068330154e-031 $151 $278 forward 7 unknown #
edge $-1 $277 -50.00000000000005 $154 -5.2372220082647505e-014 $206 $279 forward 7 unknown #
face $-1 $280 $153 $17 $-1 $281 reversed single #
edge $-1 $154 -5.2372220082647505e-014 $282 50.00000000000005 $272 $279 forward 7 unknown #
point $-1 50 15.000000000000174 5.2372220082647505e-014 #
edge $-1 $155 -5.6237277068330154e-031 $283 50 $221 $278 forward 7 unknown #
point $-1 5.6237277068330154e-031 15.000000000000174 50.00000000000005 #
coedge $-1 $221 $157 $284 $285 reversed $222 $-1 #
coedge $-1 $157 $220 $162 $218 reversed $222 $-1 #
loop $-1 $-1 $157 $280 #
coedge $-1 $286 $159 $258 $226 forward $192 $-1 #
coedge $-1 $159 $286 $260 $171 reversed $192 $-1 #
coedge $-1 $168 $284 $67 $103 reversed $234 $-1 #
edge $-1 $160 -5.2372220082647505e-014 $287 50.00000000000005 $258 $288 forward 7 unknown #
point $-1 -50 15.000000000000174 5.2372220082647505e-014 #
coedge $-1 $163 $162 $233 $289 forward $165 $-1 #
coedge $-1 $276 $164 $240 $173 forward $142 $-1 #
face $-1 $290 $165 $17 $-1 $143 forward single #
vertex $-1 $289 $291 #
straight-curve $-1 0 -15.000000000000174 50.00000000000005 1 0 0 I I #
coedge $-1 $284 $168 $228 $289 reversed $234 $-1 #
loop $-1 $-1 $225 $292 #
straight-curve $-1 -50 -15.000000000000174 0 0 0 -1 I I #
face $-1 $293 $268 $17 $-1 $237 reversed single #
plane-surface $-1 0 -15.000000000000174 0 0 1 0 0 0 1 forward_v I I I I #
vertex $-1 $294 $295 #
vertex $-1 $296 $297 #
coedge $-1 $204 $267 $229 $173 reversed $268 $-1 #
straight-curve $-1 -50 15.000000000000174 0 0 0 -1 I I #
point $-1 -50 -15.000000000000174 -50.00000000000005 #
straight-curve $-1 -50 0 -50.00000000000005 0 1 0 I I #
point $-1 -50 15.000000000000174 -50.00000000000005 #
face $-1 $215 $298 $17 $-1 $281 reversed single #
loop $-1 $-1 $208 $191 #
plane-surface $-1 50 0 0 -1 0 0 0 0 1 forward_v I I I I #
coedge $-1 $195 $194 $97 $150 forward $95 $-1 #
coedge $-1 $299 $300 $194 $250 forward $301 $-1 #
edge $-1 $210 -3.1415926535897931 $201 -1.5707963267948968 $249 $111 forward 7 unknown #
coedge $-1 $302 $303 $195 $252 forward $298 $-1 #
edge $-1 $202 1.5707963267948968 $154 3.1415926535897931 $251 $156 forward 7 unknown #
coedge $-1 $304 $196 $303 $265 forward $256 $-1 #
coedge $-1 $196 $304 $299 $305 forward $256 $-1 #
coedge $-1 $306 $307 $96 $147 reversed $308 $-1 #
loop $-1 $-1 $196 $290 #
coedge $-1 $258 $197 $307 $309 reversed $259 $-1 #
coedge $-1 $197 $257 $223 $226 reversed $259 $-1 #
loop $-1 $-1 $197 $310 #
coedge $-1 $261 $199 $224 $171 forward $262 $-1 #
coedge $-1 $199 $260 $306 $263 reversed $262 $-1 #
loop $-1 $-1 $199 $311 #
edge $-1 $201 -5.6237277068330154e-031 $238 50 $261 $312 forward 7 unknown #
point $-1 5.6237277068330154e-031 -15.000000000000174 -50.00000000000005 #
edge $-1 $202 5.6237277068330154e-031 $282 50 $303 $313 forward 7 unknown #
point $-1 5.6237277068330154e-031 15.000000000000174 -50.00000000000005 #
coedge $-1 $240 $204 $207 $270 reversed $268 $-1 #
loop $-1 $-1 $204 $236 #
coedge $-1 $207 $206 $276 $296 reversed $209 $-1 #
edge $-1 $239 -50.00000000000005 $210 5.2372220082647606e-014 $207 $314 forward 7 unknown #
coedge $-1 $315 $208 $300 $274 forward $246 $-1 #
coedge $-1 $208 $315 $302 $216 reversed $246 $-1 #
face $-1 $-1 $209 $17 $-1 $247 reversed single #
edge $-1 $210 5.2372220082647606e-014 $316 50.00000000000005 $271 $314 forward 7 unknown #
point $-1 50 -15.000000000000178 -5.2372220082647606e-014 #
coedge $-1 $212 $229 $269 $296 forward $142 $-1 #
vertex $-1 $296 $317 #
straight-curve $-1 0 15.000000000000174 50.00000000000005 -1 0 0 I I #
straight-curve $-1 50 15.000000000000174 0 0 0 -1 I I #
face $-1 $310 $222 $17 $-1 $281 reversed single #
plane-surface $-1 0 15.000000000000174 0 0 -1 0 0 0 -1 forward_v I I I I #
vertex $-1 $318 $319 #
vertex $-1 $218 $320 #
coedge $-1 $225 $233 $220 $285 forward $234 $-1 #
edge $-1 $283 -50.00000000000005 $160 -5.2372220082647505e-014 $220 $288 forward 7 unknown #
coedge $-1 $224 $223 $321 $294 reversed $192 $-1 #
vertex $-1 $309 $322 #
straight-curve $-1 -50 15.000000000000174 0 0 0 -1 I I #
edge $-1 $283 -15.000000000000174 $231 15.000000000000174 $233 $323 forward 7 unknown #
face $-1 $292 $256 $17 $-1 $324 reversed single #
point $-1 -50 -15.000000000000174 50.00000000000005 #
face $-1 $273 $234 $17 $-1 $193 reversed single #
face $-1 $325 $301 $17 $-1 $237 reversed single #
edge $-1 $238 -15.000000000000174 $287 15.000000000000174 $286 $326 forward 7 unknown #
point $-1 -50 -15.000000000000174 -50.00000000000005 #
edge $-1 $239 -15.000000000000174 $277 15.000000000000174 $269 $327 forward 7 unknown #
point $-1 50 -15.000000000000174 50.00000000000005 #
loop $-1 $-1 $251 $245 #
coedge $-1 $300 $249 $254 $305 reversed $301 $-1 #
coedge $-1 $249 $299 $271 $274 reversed $301 $-1 #
loop $-1 $-1 $249 $293 #
coedge $-1 $303 $251 $272 $216 forward $298 $-1 #
coedge $-1 $251 $302 $253 $265 reversed $298 $-1 #
coedge $-1 $254 $253 $315 $318 forward $256 $-1 #
edge $-1 $316 -50 $201 -5.6237277068330154e-031 $299 $312 forward 7 unknown #
coedge $-1 $321 $255 $261 $263 forward $308 $-1 #
coedge $-1 $255 $321 $257 $309 forward $308 $-1 #
loop $-1 $-1 $255 $325 #
edge $-1 $287 -50 $202 5.6237277068330154e-031 $257 $313 forward 7 unknown #
face $-1 $311 $259 $17 $-1 $281 reversed single #
face $-1 $170 $262 $17 $-1 $237 reversed single #
straight-curve $-1 0 -15.000000000000174 -50.00000000000005 -1 0 0 I I #
straight-curve $-1 0 15.000000000000174 -50.00000000000005 1 0 0 I I #
straight-curve $-1 50 -15.000000000000174 0 0 0 -1 I I #
coedge $-1 $272 $271 $304 $318 reversed $246 $-1 #
vertex $-1 $274 $328 #
point $-1 50 15.000000000000174 50.00000000000005 #
edge $-1 $282 -15.000000000000174 $316 15.000000000000174 $315 $329 forward 7 unknown #
point $-1 50 15.000000000000174 -50.00000000000005 #
point $-1 -50 15.000000000000174 50.00000000000005 #
coedge $-1 $307 $306 $286 $294 forward $308 $-1 #
point $-1 -50 15.000000000000174 -50.00000000000005 #
straight-curve $-1 -50 0 50.00000000000005 0 -1 0 I I #
plane-surface $-1 0 0 -50.00000000000005 0 0 1 1 0 0 forward_v I I I I #
face $-1 $230 $308 $17 $-1 $324 reversed single #
straight-curve $-1 -50 0 -50.00000000000005 0 1 0 I I #
straight-curve $-1 50 0 50.00000000000005 0 1 0 I I #
point $-1 50 -15.000000000000174 -50.00000000000005 #
straight-curve $-1 50 0 -50.00000000000005 0 -1 0 I I #
End-of-ACIS-data 