104 329 0 0                             
body $1 $2 $-1 $3 #
brep_non_volatile_id-cdc-attrib $-1 $-1 $-1 $0 1 #
lump $-1 $-1 $4 $0 #
transform $-1 1 0 0 0 1 0 0 0 1 0 0 0 1 0 0 0 #
shell $-1 $-1 $-1 $5 $2 #
face $6 $7 $8 $4 $-1 $9 1 #
face_name-twe-attrib $-1 $10 $-1 $5 1 #
face $11 $12 $13 $4 $-1 $14 1 #
loop $15 $-1 $16 $5 #
plane-surface $17 120 -2.88675134594817 -36 -0.5 -0.866025403784439 5.30287527884198e-17 0.866025403784439 -0.5 3.06161646971843e-17 0 #
primitive_order-cdc-attrib $-1 $-1 $6 $5 1 10 #
face_name-twe-attrib $-1 $18 $-1 $7 2 #
face $19 $20 $21 $4 $-1 $22 1 #
loop $23 $-1 $24 $7 #
plane-surface $25 117.5 -1.4433756729741 -36 -1 -8.32533633823398e-49 -1.3596308389012e-32 0 -1 6.12323293943686e-17 0 #
loop_type-twe-attrib $-1 $-1 $-1 $8 0 #
coedge $-1 $26 $27 $28 $29 1 $8 $-1 #
surf-twe-attrib $-1 $-1 $-1 $9 5 #
primitive_order-cdc-attrib $-1 $-1 $11 $7 1 10 #
face_name-twe-attrib $-1 $30 $-1 $12 3 #
face $31 $32 $33 $4 $-1 $34 1 #
loop $35 $-1 $36 $12 #
plane-surface $37 117.5 1.44337567297402 -36 -0.5 0.866025403784438 -5.30287527884198e-17 -0.866025403784438 -0.5 3.06161646971843e-17 0 #
loop_type-twe-attrib $-1 $-1 $-1 $13 0 #
coedge $-1 $38 $39 $40 $41 1 $13 $-1 #
surf-twe-attrib $-1 $-1 $-1 $14 7 #
coedge $-1 $42 $16 $43 $44 1 $8 $-1 #
coedge $-1 $16 $42 $38 $45 0 $8 $-1 #
coedge $-1 $40 $46 $16 $29 0 $47 $-1 #
edge $48 $49 $50 $16 $51 0 #
primitive_order-cdc-attrib $-1 $-1 $19 $12 1 10 #
face_name-twe-attrib $-1 $52 $-1 $20 4 #
face $53 $54 $55 $4 $-1 $56 1 #
loop $57 $-1 $58 $20 #
plane-surface $59 120 2.88675134594809 -36 0.5 0.866025403784439 -5.30287527884198e-17 -0.866025403784439 0.5 -3.06161646971843e-17 0 #
loop_type-twe-attrib $-1 $-1 $-1 $21 0 #
coedge $-1 $60 $61 $62 $63 1 $21 $-1 #
surf-twe-attrib $-1 $-1 $-1 $22 12 #
coedge $-1 $64 $24 $27 $45 1 $13 $-1 #
coedge $-1 $24 $64 $60 $65 0 $13 $-1 #
coedge $-1 $62 $28 $24 $41 0 $47 $-1 #
edge $66 $50 $67 $24 $68 0 #
coedge $-1 $27 $26 $69 $70 1 $8 $-1 #
coedge $-1 $71 $72 $26 $44 0 $73 $-1 #
edge $74 $75 $49 $26 $76 0 #
edge $77 $78 $50 $38 $79 0 #
coedge $-1 $28 $80 $71 $81 0 $47 $-1 #
loop $82 $-1 $28 $83 #
edge_name-twe-attrib $-1 $-1 $-1 $29 1 4608 #
vertex $-1 $44 $84 #
vertex $-1 $45 $85 #
straight-curve $86 120 -2.88675134594817 -32 -0.866025403784439 0.5 -3.06161646971843e-17 #
primitive_order-cdc-attrib $-1 $-1 $31 $20 1 10 #
face_name-twe-attrib $-1 $87 $-1 $32 5 #
face $88 $83 $73 $4 $-1 $89 1 #
loop $90 $-1 $91 $32 #
plane-surface $92 122.5 1.44337567297403 -36 1 6.1534805964274e-16 -2.40828866912179e-32 -6.1534805964274e-16 1 -6.12323293943686e-17 0 #
loop_type-twe-attrib $-1 $-1 $-1 $33 0 #
coedge $-1 $93 $94 $95 $96 1 $33 $-1 #
surf-twe-attrib $-1 $-1 $-1 $34 20 #
coedge $-1 $97 $36 $39 $65 1 $21 $-1 #
coedge $-1 $36 $97 $93 $98 0 $21 $-1 #
coedge $-1 $95 $40 $36 $63 0 $47 $-1 #
edge $99 $67 $100 $36 $101 0 #
coedge $-1 $39 $38 $102 $103 1 $13 $-1 #
edge $104 $105 $67 $60 $106 0 #
edge_name-twe-attrib $-1 $-1 $-1 $41 3 4608 #
vertex $-1 $65 $107 #
straight-curve $108 117.5 -1.4433756729741 -32 0 1 -6.12323293943686e-17 #
coedge $-1 $109 $102 $42 $70 0 $110 $-1 #
edge $111 $78 $75 $69 $112 0 #
coedge $-1 $113 $43 $46 $81 1 $73 $-1 #
coedge $-1 $43 $113 $109 $114 1 $73 $-1 #
loop $115 $-1 $71 $54 #
edge_name-twe-attrib $-1 $-1 $-1 $44 2 4352 #
vertex $-1 $70 $116 #
straight-curve $117 120 -2.88675134594817 -36 1.3596308389012e-32 6.12323293943686e-17 1 #
edge_name-twe-attrib $-1 $-1 $-1 $45 4 4352 #
vertex $-1 $70 $118 #
straight-curve $119 117.5 -1.4433756729741 -36 1.3596308389012e-32 6.12323293943686e-17 1 #
coedge $-1 $46 $95 $91 $120 0 $47 $-1 #
edge $121 $122 $49 $71 $123 0 #
loop_type-twe-attrib $-1 $-1 $-1 $47 0 #
face $124 $125 $47 $4 $-1 $126 1 #
point $-1 120 -2.88675134594817 -32 #
point $-1 117.5 -1.4433756729741 -32 #
cur-twe-attrib $-1 $-1 $-1 $51 29 #
primitive_order-cdc-attrib $-1 $-1 $53 $32 1 10 #
face_name-twe-attrib $-1 $127 $-1 $54 6 #
plane-surface $128 122.5 -1.4433756729741 -36 0.500000000000001 -0.866025403784438 5.30287527884198e-17 0.866025403784438 0.500000000000001 -3.06161646971844e-17 0 #
loop_type-twe-attrib $-1 $-1 $-1 $55 0 #
coedge $-1 $129 $130 $80 $120 1 $55 $-1 #
surf-twe-attrib $-1 $-1 $-1 $56 32 #
coedge $-1 $131 $58 $61 $98 1 $33 $-1 #
coedge $-1 $58 $131 $129 $132 0 $33 $-1 #
coedge $-1 $80 $62 $58 $96 0 $47 $-1 #
edge $133 $100 $134 $58 $135 0 #
coedge $-1 $61 $60 $136 $137 1 $21 $-1 #
edge $138 $139 $100 $93 $140 0 #
edge_name-twe-attrib $-1 $-1 $-1 $63 5 4608 #
vertex $-1 $98 $141 #
straight-curve $142 117.5 1.44337567297402 -32 0.866025403784438 0.5 -3.06161646971843e-17 #
coedge $-1 $69 $136 $64 $103 0 $110 $-1 #
edge $143 $105 $78 $102 $144 0 #
edge_name-twe-attrib $-1 $-1 $-1 $65 6 4352 #
vertex $-1 $103 $145 #
straight-curve $146 117.5 1.44337567297402 -36 1.3596308389012e-32 6.12323293943686e-17 1 #
point $-1 117.5 1.44337567297402 -32 #
cur-twe-attrib $-1 $-1 $-1 $68 41 #
coedge $-1 $147 $69 $72 $114 0 $110 $-1 #
loop $148 $149 $69 $125 #
edge_name-twe-attrib $-1 $-1 $-1 $70 13 8704 #
straight-curve $150 118.4375 -1.98464155033938 -36 0.866025403784439 -0.5 -2.24125880912355e-17 #
coedge $-1 $72 $71 $130 $151 1 $73 $-1 #
edge $152 $75 $153 $109 $154 0 #
loop_type-twe-attrib $-1 $-1 $-1 $73 0 #
point $-1 120 -2.88675134594817 -36 #
cur-twe-attrib $-1 $-1 $-1 $76 44 #
point $-1 117.5 -1.4433756729741 -36 #
cur-twe-attrib $-1 $-1 $-1 $79 45 #
edge $155 $134 $122 $91 $156 0 #
edge_name-twe-attrib $-1 $-1 $-1 $81 11 4608 #
vertex $-1 $151 $157 #
straight-curve $158 122.5 -1.4433756729741 -32 -0.866025403784438 -0.500000000000001 3.06161646971844e-17 #
face_name-twe-attrib $-1 $159 $-1 $83 7 #
face $160 $161 $110 $4 $-1 $162 0 #
plane-surface $163 120 -3.86401058289069e-14 -32 1.3596308389012e-32 6.12323293943686e-17 1 0 -1 6.12323293943686e-17 0 #
primitive_order-cdc-attrib $-1 $-1 $88 $54 1 10 #
surf-twe-attrib $-1 $-1 $-1 $89 54 #
coedge $-1 $164 $91 $94 $132 1 $55 $-1 #
coedge $-1 $91 $164 $113 $151 0 $55 $-1 #
coedge $-1 $94 $93 $165 $166 1 $33 $-1 #
edge $167 $168 $134 $129 $169 0 #
edge_name-twe-attrib $-1 $-1 $-1 $96 7 4608 #
vertex $-1 $132 $170 #
straight-curve $171 120 2.88675134594809 -32 0.866025403784439 -0.5 3.06161646971843e-17 #
coedge $-1 $102 $165 $97 $137 0 $110 $-1 #
edge $172 $139 $105 $136 $173 0 #
edge_name-twe-attrib $-1 $-1 $-1 $98 8 4352 #
vertex $-1 $137 $174 #
straight-curve $175 120 2.88675134594809 -36 1.3596308389012e-32 6.12323293943686e-17 1 #
point $-1 120 2.88675134594809 -32 #
cur-twe-attrib $-1 $-1 $-1 $101 63 #
edge_name-twe-attrib $-1 $-1 $-1 $103 18 8704 #
straight-curve $176 117.5 -0.721687836487071 -36 0 -1 6.12323293943686e-17 #
point $-1 117.5 1.44337567297402 -36 #
cur-twe-attrib $-1 $-1 $-1 $106 65 #
coedge $-1 $165 $109 $164 $177 0 $110 $-1 #
loop_type-twe-attrib $-1 $-1 $-1 $110 1 #
loop $178 $-1 $179 $125 #
cur-twe-attrib $-1 $-1 $-1 $112 70 #
edge $180 $153 $122 $113 $181 0 #
edge_name-twe-attrib $-1 $-1 $-1 $114 14 8704 #
vertex $-1 $177 $182 #
straight-curve $183 120.9375 -2.34548546858289 -36 0.866025403784438 0.500000000000001 -8.36449174856042e-17 #
edge_name-twe-attrib $-1 $-1 $-1 $120 9 4608 #
straight-curve $184 122.5 1.44337567297403 -32 6.1534805964274e-16 -1 6.12323293943686e-17 #
point $-1 122.5 -1.4433756729741 -32 #
cur-twe-attrib $-1 $-1 $-1 $123 81 #
primitive_order-cdc-attrib $-1 $-1 $124 $83 1 10 #
face_name-twe-attrib $-1 $185 $-1 $125 8 #
face $186 $187 $188 $4 $-1 $189 0 #
plane-surface $190 117.5 -3.92551094880261e-14 -36 -6.12323293943686e-17 -6.12323293943686e-17 -1 0 1 -6.12323293943686e-17 0 #
surf-twe-attrib $-1 $-1 $-1 $126 83 #
coedge $-1 $130 $129 $147 $177 1 $55 $-1 #
coedge $-1 $136 $147 $131 $166 0 $110 $-1 #
edge $191 $168 $139 $165 $192 0 #
edge_name-twe-attrib $-1 $-1 $-1 $132 10 4352 #
vertex $-1 $166 $193 #
straight-curve $194 122.5 1.44337567297403 -36 1.3596308389012e-32 6.12323293943686e-17 1 #
point $-1 122.5 1.44337567297403 -32 #
cur-twe-attrib $-1 $-1 $-1 $135 96 #
edge_name-twe-attrib $-1 $-1 $-1 $137 17 8704 #
straight-curve $195 117.1875 1.26295371385226 -36 -0.866025403784439 -0.5 8.36449174856041e-17 #
point $-1 120 2.88675134594809 -36 #
cur-twe-attrib $-1 $-1 $-1 $140 98 #
cur-twe-attrib $-1 $-1 $-1 $144 103 #
edge $196 $153 $168 $147 $197 0 #
loop_type-twe-attrib $-1 $-1 $-1 $149 0 #
coedge $-1 $179 $179 $198 $199 0 $149 $-1 #
edge_name-twe-attrib $-1 $-1 $-1 $151 12 4352 #
straight-curve $200 122.5 -1.4433756729741 -36 1.3596308389012e-32 6.12323293943686e-17 1 #
point $-1 122.5 -1.4433756729741 -36 #
cur-twe-attrib $-1 $-1 $-1 $154 114 #
cur-twe-attrib $-1 $-1 $-1 $156 120 #
primitive_order-cdc-attrib $-1 $-1 $160 $125 0 8 #
face_name-twe-attrib $-1 $201 $-1 $161 9 #
face $202 $203 $204 $4 $-1 $205 0 #
loop $206 $207 $198 $161 #
cone-surface $208 120 -3.80304629001388e-14 -16 -6.12323293943686e-17 -6.12323293943686e-17 -1 -5 -2.0813340845585e-48 -3.39907709725299e-32 1 0 1 0 #
surf-twe-attrib $-1 $-1 $-1 $162 125 #
edge_name-twe-attrib $-1 $-1 $-1 $166 16 8704 #
straight-curve $209 119.6875 3.06717330506985 -36 -0.866025403784439 0.5 2.24125880912355e-17 #
point $-1 122.5 1.44337567297403 -36 #
cur-twe-attrib $-1 $-1 $-1 $169 132 #
cur-twe-attrib $-1 $-1 $-1 $173 137 #
edge_name-twe-attrib $-1 $-1 $-1 $177 15 8704 #
straight-curve $210 122.5 0.721687836486995 -36 -6.15348059642741e-16 1 -6.12323293943686e-17 #
coedge $-1 $198 $198 $179 $199 1 $188 $-1 #
edge $211 $212 $212 $179 $213 0 #
cur-twe-attrib $-1 $-1 $-1 $181 151 #
primitive_order-cdc-attrib $-1 $-1 $186 $161 0 8 #
face_name-twe-attrib $-1 $214 $-1 $187 10 #
face $215 $216 $217 $4 $-1 $218 0 #
loop $219 $220 $221 $187 #
plane-surface $222 113.5 -3.68058163122514e-14 4 -6.12323293943686e-17 -6.12323293943686e-17 -1 0 1 -6.12323293943686e-17 0 #
loop_type-twe-attrib $-1 $-1 $-1 $188 0 #
loop $223 $-1 $224 $161 #
surf-twe-attrib $-1 $-1 $-1 $189 161 #
cur-twe-attrib $-1 $-1 $-1 $192 166 #
cur-twe-attrib $-1 $-1 $-1 $197 177 #
edge_name-twe-attrib $-1 $-1 $-1 $199 19 8704 #
vertex $-1 $199 $225 #
ellipse-curve $226 120 -3.92551094880261e-14 -36 -6.12323293943686e-17 -6.12323293943686e-17 -1 -5 -2.0813340845585e-48 -3.39907709725299e-32 1 #
primitive_order-cdc-attrib $-1 $-1 $202 $187 0 8 #
face_name-twe-attrib $-1 $227 $-1 $203 11 #
face $228 $229 $230 $4 $-1 $231 0 #
loop $232 $233 $234 $203 #
cone-surface $235 120 -3.67752001475542e-14 4.5 -6.12323293943686e-17 -6.12323293943686e-17 -1 -8 -3.33013453529359e-48 -5.43852335560478e-32 1 0 1 0 #
loop_type-twe-attrib $-1 $-1 $-1 $204 1 #
loop $236 $-1 $237 $187 #
coedge $-1 $221 $221 $224 $238 1 $204 $-1 #
surf-twe-attrib $-1 $-1 $-1 $205 187 #
loop_type-twe-attrib $-1 $-1 $-1 $207 1 #
coedge $-1 $224 $224 $221 $238 0 $207 $-1 #
point $-1 115 -3.92551094880261e-14 -36 #
cur-twe-attrib $-1 $-1 $-1 $213 199 #
primitive_order-cdc-attrib $-1 $-1 $215 $203 0 8 #
face_name-twe-attrib $-1 $239 $-1 $216 12 #
face $240 $241 $242 $4 $-1 $243 0 #
loop $244 $245 $246 $216 #
plane-surface $247 108.853553390593 -3.6744583982857e-14 5 -6.12323293943686e-17 -6.12323293943686e-17 -1 0 1 -6.12323293943686e-17 0 #
loop_type-twe-attrib $-1 $-1 $-1 $217 0 #
loop $248 $-1 $249 $203 #
coedge $-1 $234 $234 $237 $250 1 $217 $-1 #
surf-twe-attrib $-1 $-1 $-1 $218 203 #
loop_type-twe-attrib $-1 $-1 $-1 $220 0 #
coedge $-1 $237 $237 $234 $250 0 $220 $-1 #
edge $251 $252 $252 $224 $253 0 #
primitive_order-cdc-attrib $-1 $-1 $228 $216 0 8 #
face_name-twe-attrib $-1 $254 $-1 $229 13 #
face $255 $256 $257 $4 $-1 $258 0 #
loop $259 $260 $261 $229 #
cone-surface $262 120 -3.67229350851857e-14 5.35355339059299 -6.12323293943686e-17 -6.12323293943686e-17 -1 -14.6464466094067 -6.09682970916487e-48 -9.95688024523461e-32 1 -0.707106781186544 0.707106781186551 0 #
loop_type-twe-attrib $-1 $-1 $-1 $230 1 #
loop $263 $-1 $264 $216 #
coedge $-1 $246 $246 $249 $265 1 $230 $-1 #
surf-twe-attrib $-1 $-1 $-1 $231 216 #
loop_type-twe-attrib $-1 $-1 $-1 $233 1 #
coedge $-1 $249 $249 $246 $265 0 $233 $-1 #
edge $266 $267 $267 $237 $268 0 #
edge_name-twe-attrib $-1 $-1 $-1 $238 20 4608 #
vertex $-1 $238 $269 #
ellipse-curve $270 120 -3.68058163122514e-14 4 -6.12323293943686e-17 -6.12323293943686e-17 -1 -5 -2.0813340845585e-48 -3.39907709725299e-32 1 #
primitive_order-cdc-attrib $-1 $-1 $240 $229 0 8 #
face_name-twe-attrib $-1 $271 $-1 $241 14 #
face $272 $273 $274 $4 $-1 $275 0 #
loop $276 $-1 $277 $241 #
plane-surface $278 112.853553390593 -3.63159576770964e-14 12 6.12323293943686e-17 6.12323293943686e-17 1 0 -1 6.12323293943686e-17 0 #
loop_type-twe-attrib $-1 $-1 $-1 $242 0 #
loop $279 $-1 $280 $229 #
coedge $-1 $261 $261 $264 $281 1 $242 $-1 #
surf-twe-attrib $-1 $-1 $-1 $243 229 #
loop_type-twe-attrib $-1 $-1 $-1 $245 0 #
coedge $-1 $264 $264 $261 $281 0 $245 $-1 #
edge $282 $283 $283 $249 $284 0 #
edge_name-twe-attrib $-1 $-1 $-1 $250 21 8704 #
vertex $-1 $250 $285 #
ellipse-curve $286 120 -3.68058163122514e-14 4 -6.12323293943686e-17 -6.12323293943686e-17 -1 -8 -3.33013453529359e-48 -5.43852335560478e-32 1 #
point $-1 115 -3.68058163122514e-14 4 #
cur-twe-attrib $-1 $-1 $-1 $253 238 #
primitive_order-cdc-attrib $-1 $-1 $255 $241 0 8 #
face_name-twe-attrib $-1 $287 $-1 $256 15 #
face $288 $-1 $289 $4 $-1 $290 0 #
loop $291 $292 $293 $256 #
cone-surface $294 120 -3.65302708299767e-14 8.5 -6.12323293943686e-17 -6.12323293943686e-17 -1 -15 -6.24400225367549e-48 -1.0197231291759e-31 1 0 1 0 #
loop_type-twe-attrib $-1 $-1 $-1 $257 0 #
coedge $-1 $277 $277 $295 $296 1 $257 $-1 #
surf-twe-attrib $-1 $-1 $-1 $258 241 #
loop_type-twe-attrib $-1 $-1 $-1 $260 1 #
coedge $-1 $280 $280 $293 $297 0 $260 $-1 #
edge $298 $299 $299 $264 $300 0 #
edge_name-twe-attrib $-1 $-1 $-1 $265 22 4608 #
vertex $-1 $265 $301 #
ellipse-curve $302 120 -3.6744583982857e-14 5 -6.12323293943686e-17 -6.12323293943686e-17 -1 -8 -3.33013453529359e-48 -5.43852335560478e-32 1 #
point $-1 111.999999999999 -3.68058163122514e-14 4 #
cur-twe-attrib $-1 $-1 $-1 $268 250 #
primitive_order-cdc-attrib $-1 $-1 $272 $256 0 8 #
face_name-twe-attrib $-1 $303 $-1 $273 16 #
loop $304 $305 $306 $273 #
cone-surface $307 120 -3.63376065747677e-14 11.646446609407 -6.12323293943686e-17 -6.12323293943686e-17 -1 -14.6464466094067 -6.09682970916487e-48 -9.95688024523461e-32 1 0.707106781186544 0.707106781186551 0 #
loop_type-twe-attrib $-1 $-1 $-1 $274 0 #
loop $308 $-1 $309 $256 #
coedge $-1 $293 $293 $280 $297 1 $274 $-1 #
surf-twe-attrib $-1 $-1 $-1 $275 256 #
coedge $-1 $295 $295 $277 $296 0 $305 $-1 #
edge $310 $311 $311 $295 $312 0 #
edge $313 $314 $314 $280 $315 0 #
edge_name-twe-attrib $-1 $-1 $-1 $281 23 8448 #
vertex $-1 $281 $316 #
ellipse-curve $317 120 -3.6744583982857e-14 5 -6.12323293943686e-17 -6.12323293943686e-17 -1 -14.2928932188135 -5.9496571646543e-48 -9.71652919871031e-32 1 #
point $-1 111.999999999999 -3.6744583982857e-14 5 #
cur-twe-attrib $-1 $-1 $-1 $284 265 #
primitive_order-cdc-attrib $-1 $-1 $288 $273 0 8 #
loop_type-twe-attrib $-1 $-1 $-1 $289 0 #
loop $318 $-1 $295 $273 #
coedge $-1 $306 $306 $309 $319 1 $289 $-1 #
surf-twe-attrib $-1 $-1 $-1 $290 273 #
loop_type-twe-attrib $-1 $-1 $-1 $292 1 #
coedge $-1 $309 $309 $306 $319 0 $292 $-1 #
edge_name-twe-attrib $-1 $-1 $-1 $296 26 8448 #
vertex $-1 $296 $320 #
ellipse-curve $321 120 -3.63159576770964e-14 12 -6.12323293943686e-17 -6.12323293943686e-17 -1 -14.2928932188135 -5.9496571646543e-48 -9.71652919871031e-32 1 #
edge_name-twe-attrib $-1 $-1 $-1 $297 24 8448 #
vertex $-1 $297 $322 #
ellipse-curve $323 120 -3.67012861875144e-14 5.70710678118701 -6.12323293943686e-17 -6.12323293943686e-17 -1 -15 -6.24400225367549e-48 -1.0197231291759e-31 1 #
point $-1 105.707106781186 -3.6744583982857e-14 5 #
cur-twe-attrib $-1 $-1 $-1 $300 281 #
loop_type-twe-attrib $-1 $-1 $-1 $305 1 #
edge $324 $325 $325 $309 $326 0 #
point $-1 105.707106781186 -3.63159576770964e-14 12 #
cur-twe-attrib $-1 $-1 $-1 $312 296 #
point $-1 104.999999999999 -3.67012861875144e-14 5.70710678118701 #
cur-twe-attrib $-1 $-1 $-1 $315 297 #
edge_name-twe-attrib $-1 $-1 $-1 $319 25 8448 #
vertex $-1 $319 $327 #
ellipse-curve $328 120 -3.6359255472439e-14 11.292893218814 -6.12323293943686e-17 -6.12323293943686e-17 -1 -15 -6.24400225367549e-48 -1.0197231291759e-31 1 #
point $-1 104.999999999999 -3.6359255472439e-14 11.292893218814 #
cur-twe-attrib $-1 $-1 $-1 $326 319 #
