600 0 2 0           
24 FBMach with ACIS - 6.0.3 13 ACIS 6.0.3 NT 24 Tue May 22 12:37:17 2001 
1 9.9999999999999995e-007 1e-010 
body $2 $3 $-1 $4 #
bdycol-kcp $-1 1 7 $5 $6 $7 $8 $9 $10 $11 #
model_id-kcp-attrib $-1 $-1 $-1 $0 1 990549437 60 -1019478015 1 #
lump $-1 $-1 $12 $0 #
transform $-1 1 0 0 0 1 0 0 0 1 0 0 0 1 no_rotate no_reflect no_shear #
body $13 $14 $-1 $15 #
body $16 $17 $-1 $18 #
body $19 $20 $-1 $21 #
body $22 $23 $-1 $24 #
body $25 $26 $-1 $27 #
body $28 $29 $-1 $30 #
body $31 $32 $-1 $33 #
shell $-1 $-1 $-1 $34 $-1 $3 #
model_id-kcp-attrib $-1 $-1 $-1 $5 1 990549437 70 -1018822654 1 #
lump $-1 $-1 $35 $5 #
transform $-1 1 0 0 0 1 0 0 0 1 0 0 0 1 no_rotate no_reflect no_shear #
rgb_color-st-attrib $-1 $36 $-1 $6 0.5 1 1 #
lump $-1 $-1 $37 $6 #
transform $-1 3.8285889215894375e-016 -4.6885143195523885e-032 -1 -1.2246063538223773e-016 -1 0 -1 1.2246063538223773e-016 -3.8285889215894375e-016 12.999999999999853 -10.000000000000179 5.3983117718970026e-013 1 rotate no_reflect no_shear #
rgb_color-st-attrib $-1 $38 $-1 $7 0.5 1 1 #
lump $-1 $-1 $39 $7 #
transform $-1 -1 0 -1.2246063538223773e-016 0 1 0 1.2246063538223773e-016 0 -1 4.8984254152895169e-015 9.9999999999998153 12.999999999999938 1 rotate no_reflect no_shear #
rgb_color-st-attrib $-1 $40 $-1 $8 0.5 1 1 #
lump $-1 $-1 $41 $8 #
transform $-1 1 0 0 0 -3.8285889215894375e-016 1 0 -1 -3.8285889215894375e-016 40 7.1606024061587892e-014 -20 1 rotate no_reflect no_shear #
rgb_color-st-attrib $-1 $42 $-1 $9 0.5 1 1 #
lump $-1 $-1 $43 $9 #
transform $-1 1 0 0 0 -3.8285889215894375e-016 1 0 -1 -3.8285889215894375e-016 -40 7.1606024061587892e-014 -20 1 rotate no_reflect no_shear #
rgb_color-st-attrib $-1 $44 $-1 $10 0.5 1 1 #
lump $-1 $-1 $45 $10 #
transform $-1 1 0 0 0 -3.8285889215894375e-016 1 0 -1 -3.8285889215894375e-016 -40 -7.1606024061587892e-014 20 1 rotate no_reflect no_shear #
rgb_color-st-attrib $-1 $46 $-1 $11 0.5 1 1 #
lump $-1 $47 $48 $11 #
transform $-1 1 0 0 0 1 0 0 0 1 0 0 0 1 no_rotate no_reflect no_shear #
face $49 $50 $51 $12 $-1 $52 reversed single #
shell $-1 $-1 $-1 $53 $-1 $14 #
model_id-kcp-attrib $-1 $-1 $16 $6 1 990549437 160 -1012924413 1 #
shell $-1 $-1 $-1 $54 $-1 $17 #
model_id-kcp-attrib $-1 $-1 $19 $7 1 990549437 170 -1012269052 1 #
shell $-1 $-1 $-1 $55 $-1 $20 #
model_id-kcp-attrib $-1 $-1 $22 $8 1 990549437 170 -1012269051 1 #
shell $-1 $-1 $-1 $56 $-1 $23 #
model_id-kcp-attrib $-1 $-1 $25 $9 1 990549437 170 -1012269050 1 #
shell $-1 $-1 $-1 $57 $-1 $26 #
model_id-kcp-attrib $-1 $-1 $28 $10 1 990549437 170 -1012269049 1 #
shell $-1 $-1 $-1 $58 $-1 $29 #
model_id-kcp-attrib $-1 $-1 $31 $11 1 990549437 370 -1015939064 1 #
lump $-1 $59 $60 $11 #
shell $-1 $-1 $-1 $61 $-1 $32 #
model_id-kcp-attrib $-1 $-1 $-1 $34 1 990549437 60 -1019478015 2 #
face $62 $63 $64 $12 $-1 $65 reversed single #
loop $-1 $66 $67 $34 #
cone-surface $-1 1.5 -10.000000000000005 1.5711666024793993e-014 -1 6.9829626776862667e-015 -1.04744440165294e-014 1.57116660247941e-014 0 -1.5 1 I I -0.70710678118654757 0.70710678118654757 1.5 forward I I I I #
face $68 $69 $70 $35 $-1 $71 forward single #
face $-1 $72 $73 $37 $-1 $74 forward single #
face $-1 $75 $76 $39 $-1 $77 forward single #
face $-1 $78 $79 $41 $-1 $80 forward single #
face $-1 $81 $82 $43 $-1 $83 forward single #
face $-1 $84 $85 $45 $-1 $86 forward single #
lump $-1 $-1 $87 $11 #
shell $-1 $-1 $-1 $88 $-1 $47 #
face $-1 $89 $90 $48 $-1 $91 reversed single #
model_id-kcp-attrib $-1 $-1 $-1 $50 1 990549437 60 -1019478015 3 #
face $92 $93 $94 $12 $-1 $95 reversed single #
loop $-1 $96 $97 $50 #
cone-surface $-1 53 -10.000000000000185 5.5514553287605812e-013 -1 6.9829626776862667e-015 -1.04744440165294e-014 3.14233320495882e-014 0 -3 1 I I 0 1 3 forward I I I I #
loop $-1 $-1 $98 $34 #
coedge $-1 $67 $67 $99 $100 reversed $51 $-1 #
model_id-kcp-attrib $-1 $-1 $-1 $53 1 990549437 70 -1018822654 4 #
face $101 $102 $103 $35 $-1 $104 reversed single #
loop $-1 $-1 $105 $53 #
plane-surface $-1 0 0 30 0 0 1 1 0 0 forward_v I I I I #
face $-1 $106 $107 $37 $-1 $108 forward single #
loop $-1 $109 $110 $54 #
cone-surface $-1 5.1971663390507852e-013 -1.7304268597470861e-013 11.499999999999853 1.0091585124370456e-014 -6.860502042304029e-015 1 -3.9399063173560376e-030 1.5 1.0290753063456043e-014 1 I I -0.70710678118654757 0.70710678118654757 1.5 forward I I I I #
face $-1 $111 $112 $39 $-1 $113 forward single #
loop $-1 $114 $115 $55 #
cone-surface $-1 6.3067227221852429e-015 1.7978005379980565e-013 11.499999999999938 1.2246063538223773e-016 6.9829626776862667e-015 1 -1.5 0 1.8369095307335659e-016 1 I I -0.70710678118654757 0.70710678118654757 1.5 forward I I I I #
face $-1 $116 $117 $41 $-1 $118 forward single #
loop $-1 $119 $120 $56 #
cone-surface $-1 0 0 0 0 0 1 3 0 0 1 I I 0 1 3 forward I I I I #
face $-1 $121 $122 $43 $-1 $123 forward single #
loop $-1 $124 $125 $57 #
cone-surface $-1 0 0 0 0 0 1 3 0 0 1 I I 0 1 3 forward I I I I #
face $-1 $126 $127 $45 $-1 $128 forward single #
loop $-1 $129 $130 $58 #
cone-surface $-1 0 0 0 0 0 1 3 0 0 1 I I 0 1 3 forward I I I I #
shell $-1 $-1 $-1 $131 $-1 $59 #
face $-1 $132 $133 $60 $-1 $134 reversed single #
face $-1 $135 $136 $48 $-1 $137 reversed single #
loop $-1 $-1 $138 $61 #
cone-surface $-1 40 30 -20 0 1 0 0 0 10 1 I I 0 1 10 forward I I I I #
model_id-kcp-attrib $-1 $-1 $-1 $63 1 990549437 60 -1019478015 4 #
face $139 $140 $141 $12 $-1 $142 reversed single #
loop $-1 $143 $144 $63 #
cone-surface $-1 0 9.9999999999999947 1.5 0 6.9829626776862667e-015 -1 1.5 0 0 1 I I -0.70710678118654757 0.70710678118654757 1.5 forward I I I I #
loop $-1 $-1 $99 $50 #
coedge $-1 $97 $97 $145 $146 reversed $64 $-1 #
coedge $-1 $98 $98 $-1 $147 forward $66 $-1 #
coedge $-1 $99 $99 $67 $100 forward $96 $-1 #
edge $148 $149 6.986739574087373e-030 $149 6.2831853071795862 $99 $150 forward 7 unknown #
model_id-kcp-attrib $-1 $-1 $-1 $69 1 990549437 70 -1018822654 2 #
face $151 $152 $153 $35 $-1 $154 reversed single #
loop $-1 $-1 $155 $69 #
plane-surface $-1 0 0 -30 0 0 1 1 0 0 forward_v I I I I #
coedge $-1 $156 $157 $158 $159 forward $70 $-1 #
face $-1 $-1 $160 $37 $-1 $161 forward single #
loop $-1 $162 $163 $72 #
cone-surface $-1 0 0 0 0 0 1 3 0 0 1 I I 0 1 3 forward I I I I #
loop $-1 $-1 $164 $54 #
coedge $-1 $110 $110 $163 $165 forward $73 $-1 #
face $-1 $-1 $166 $39 $-1 $167 forward single #
loop $-1 $168 $169 $75 #
cone-surface $-1 0 0 0 0 0 1 3 0 0 1 I I 0 1 3 forward I I I I #
loop $-1 $-1 $170 $55 #
coedge $-1 $115 $115 $169 $171 forward $76 $-1 #
face $-1 $-1 $172 $41 $-1 $173 forward single #
loop $-1 $-1 $174 $78 #
plane-surface $-1 0 0 -30 0 0 -1 -1 0 0 forward_v I I I I #
loop $-1 $-1 $175 $56 #
coedge $-1 $120 $120 $174 $176 reversed $79 $-1 #
face $-1 $-1 $177 $43 $-1 $178 forward single #
loop $-1 $-1 $179 $81 #
plane-surface $-1 0 0 -30 0 0 -1 -1 0 0 forward_v I I I I #
loop $-1 $-1 $180 $57 #
coedge $-1 $125 $125 $179 $181 reversed $82 $-1 #
face $-1 $-1 $182 $45 $-1 $183 forward single #
loop $-1 $-1 $184 $84 #
plane-surface $-1 0 0 -30 0 0 -1 -1 0 0 forward_v I I I I #
loop $-1 $-1 $185 $58 #
coedge $-1 $130 $130 $184 $186 reversed $85 $-1 #
face $-1 $187 $188 $87 $-1 $189 forward single #
face $-1 $190 $191 $60 $-1 $192 reversed single #
loop $-1 $-1 $193 $88 #
cone-surface $-1 -40 30 -20 0 1 0 0 0 -10 1 I I 0 1 10 forward I I I I #
face $-1 $194 $195 $48 $-1 $196 reversed single #
loop $-1 $-1 $197 $89 #
plane-surface $-1 40 30 -10 0 0 1 0 -1 0 forward_v I I I I #
coedge $-1 $198 $199 $200 $201 reversed $90 $-1 #
model_id-kcp-attrib $-1 $-1 $-1 $93 1 990549437 60 -1019478015 5 #
face $202 $203 $204 $12 $-1 $205 reversed single #
loop $-1 $206 $207 $93 #
cone-surface $-1 0 9.9999999999998153 53 0 6.9829626776862667e-015 -1 3 0 0 1 I I 0 1 3 forward I I I I #
loop $-1 $-1 $208 $63 #
coedge $-1 $144 $144 $209 $210 reversed $94 $-1 #
coedge $-1 $145 $145 $97 $146 forward $211 $-1 #
edge $212 $213 -3.1415926535897998 $213 3.1415926535897865 $145 $214 forward 7 unknown #
edge $-1 $215 1 $215 0 $98 $-1 forward 7 unknown #
attrib_edge_convexity-kcp-attrib $-1 $216 $-1 $100 2 #
vertex $-1 $100 $217 #
ellipse-curve $-1 3 -9.9999999999998348 3.1423332049588087e-014 -1 6.9829626776862667e-015 -1.04744440165294e-014 3.14233320495882e-014 0 -3 1 I I #
model_id-kcp-attrib $-1 $-1 $-1 $102 1 990549437 70 -1018822654 5 #
face $218 $219 $220 $35 $-1 $221 reversed single #
loop $-1 $-1 $222 $102 #
plane-surface $-1 0 -30.000000000000071 0 0 1 0 0 0 1 forward_v I I I I #
coedge $-1 $223 $224 $225 $226 forward $103 $-1 #
coedge $-1 $227 $105 $228 $229 forward $70 $-1 #
coedge $-1 $105 $227 $230 $231 forward $70 $-1 #
coedge $-1 $232 $233 $105 $159 reversed $234 $-1 #
edge $-1 $235 -30.000000000000071 $236 30.000000000000071 $158 $237 forward 7 unknown #
loop $-1 $-1 $238 $106 #
plane-surface $-1 0 0 -9.9999999999998828 0 0 -1 -1 0 0 forward_v I I I I #
loop $-1 $-1 $239 $72 #
coedge $-1 $163 $163 $110 $165 reversed $107 $-1 #
coedge $-1 $164 $164 $-1 $240 reversed $109 $-1 #
edge $-1 $241 0 $241 6.2831853071795862 $163 $242 forward 7 unknown #
loop $-1 $-1 $243 $111 #
plane-surface $-1 0 0 -9.9999999999999591 0 0 -1 -1 0 0 forward_v I I I I #
loop $-1 $-1 $244 $75 #
coedge $-1 $169 $169 $115 $171 reversed $112 $-1 #
coedge $-1 $170 $170 $-1 $245 reversed $114 $-1 #
edge $-1 $246 0 $246 6.2831853071795862 $169 $247 forward 7 unknown #
loop $-1 $-1 $248 $116 #
plane-surface $-1 0 0 30 0 0 1 1 0 0 forward_v I I I I #
coedge $-1 $174 $174 $120 $176 forward $117 $-1 #
coedge $-1 $175 $175 $248 $249 reversed $119 $-1 #
edge $-1 $250 0 $250 6.2831853071795862 $174 $251 forward 7 unknown #
loop $-1 $-1 $252 $121 #
plane-surface $-1 0 0 30 0 0 1 1 0 0 forward_v I I I I #
coedge $-1 $179 $179 $125 $181 forward $122 $-1 #
coedge $-1 $180 $180 $252 $253 reversed $124 $-1 #
edge $-1 $254 0 $254 6.2831853071795862 $179 $255 forward 7 unknown #
loop $-1 $-1 $256 $126 #
plane-surface $-1 0 0 30 0 0 1 1 0 0 forward_v I I I I #
coedge $-1 $184 $184 $130 $186 forward $127 $-1 #
coedge $-1 $185 $185 $256 $257 reversed $129 $-1 #
edge $-1 $258 0 $258 6.2831853071795862 $184 $259 forward 7 unknown #
face $-1 $260 $261 $87 $-1 $262 reversed single #
loop $-1 $-1 $263 $131 #
plane-surface $-1 0 0 30 0 0 1 1 0 0 forward_v I I I I #
face $-1 $264 $265 $60 $-1 $266 reversed single #
loop $-1 $-1 $267 $132 #
plane-surface $-1 0 0 -30 0 0 1 1 0 0 forward_v I I I I #
coedge $-1 $268 $269 $270 $271 reversed $133 $-1 #
face $-1 $272 $273 $48 $-1 $274 reversed single #
loop $-1 $-1 $275 $135 #
cone-surface $-1 34.142135623730944 30 -1.7763568394002505e-015 0 1 0 0 0 -9.9999999999999982 1 I I 0 -1 9.9999999999999982 forward I I I I #
coedge $-1 $276 $277 $278 $279 reversed $136 $-1 #
coedge $-1 $280 $138 $281 $282 reversed $90 $-1 #
coedge $-1 $138 $280 $276 $283 reversed $90 $-1 #
coedge $-1 $278 $284 $138 $201 forward $285 $-1 #
edge $-1 $286 -1.5707963267948966 $287 0 $200 $288 forward 7 unknown #
model_id-kcp-attrib $-1 $-1 $-1 $140 1 990549437 60 -1019478015 6 #
face $289 $290 $291 $12 $-1 $292 reversed single #
loop $293 $294 $295 $140 #
cone-surface $-1 40 0 -20 0 -1 -3.4914813388431334e-015 3 0 0 1 I I 0 1 3 forward I I I I #
loop $-1 $-1 $209 $93 #
coedge $-1 $207 $207 $296 $297 reversed $141 $-1 #
coedge $-1 $208 $208 $-1 $298 forward $143 $-1 #
coedge $-1 $209 $209 $144 $210 forward $206 $-1 #
edge $299 $300 0 $300 6.2831853071795862 $209 $301 forward 7 unknown #
loop $-1 $302 $145 $303 #
attrib_edge_convexity-kcp-attrib $-1 $304 $-1 $146 1 #
vertex $-1 $146 $305 #
ellipse-curve $-1 19.999999999999758 -9.9999999999999538 2.0948888033058538e-013 -0.70710678118654635 0 -0.70710678118654879 2.9999999999999791 -2.0948888033058434e-014 -2.9999999999999685 0.70710678118655368 I I #
vertex $-1 $147 $306 #
convexity-sys-attrib $-1 $-1 $148 $100 #
point $-1 3.0000000000000284 -9.9999999999998348 -2.9999999999999685 #
model_id-kcp-attrib $-1 $-1 $-1 $152 1 990549437 70 -1018822654 6 #
face $307 $308 $309 $35 $-1 $310 reversed single #
loop $-1 $-1 $311 $152 #
plane-surface $-1 -50 0 0 1 0 0 0 0 -1 forward_v I I I I #
coedge $-1 $312 $230 $313 $314 forward $153 $-1 #
coedge $-1 $315 $155 $312 $316 forward $103 $-1 #
coedge $-1 $155 $315 $317 $318 forward $103 $-1 #
coedge $-1 $233 $232 $155 $226 reversed $234 $-1 #
edge $-1 $319 -30.000000000000071 $320 30.000000000000071 $225 $321 forward 7 unknown #
coedge $-1 $157 $156 $322 $323 forward $70 $-1 #
coedge $-1 $324 $325 $156 $229 reversed $309 $-1 #
edge $-1 $236 -50 $326 50 $228 $327 forward 7 unknown #
coedge $-1 $222 $328 $157 $231 reversed $153 $-1 #
edge $-1 $329 -50 $235 50 $230 $330 forward 7 unknown #
coedge $-1 $225 $158 $328 $331 forward $234 $-1 #
coedge $-1 $158 $225 $324 $332 reversed $234 $-1 #
loop $-1 $-1 $232 $308 #
vertex $-1 $159 $333 #
vertex $-1 $159 $334 #
straight-curve $-1 50 0 30 0 1 0 I I #
coedge $-1 $238 $238 $239 $335 forward $160 $-1 #
coedge $-1 $239 $239 $238 $335 reversed $162 $-1 #
edge $-1 $336 1 $336 0 $164 $-1 forward 7 unknown #
vertex $-1 $165 $337 #
ellipse-curve $-1 0 0 9.9999999999998828 0 0 1 3 0 0 1 I I #
coedge $-1 $243 $243 $244 $338 forward $166 $-1 #
coedge $-1 $244 $244 $243 $338 reversed $168 $-1 #
edge $-1 $339 1 $339 0 $170 $-1 forward 7 unknown #
vertex $-1 $171 $340 #
ellipse-curve $-1 0 0 9.9999999999999591 0 0 1 3 0 0 1 I I #
coedge $-1 $248 $248 $175 $249 forward $172 $-1 #
edge $-1 $341 0 $341 6.2831853071795862 $248 $342 forward 7 unknown #
vertex $-1 $176 $343 #
ellipse-curve $-1 0 0 -30 0 0 -1 3 0 0 1 I I #
coedge $-1 $252 $252 $180 $253 forward $177 $-1 #
edge $-1 $344 0 $344 6.2831853071795862 $252 $345 forward 7 unknown #
vertex $-1 $181 $346 #
ellipse-curve $-1 0 0 -30 0 0 -1 3 0 0 1 I I #
coedge $-1 $256 $256 $185 $257 forward $182 $-1 #
edge $-1 $347 0 $347 6.2831853071795862 $256 $348 forward 7 unknown #
vertex $-1 $186 $349 #
ellipse-curve $-1 0 0 -30 0 0 -1 3 0 0 1 I I #
face $-1 $350 $351 $87 $-1 $352 reversed single #
loop $-1 $-1 $353 $187 #
plane-surface $-1 0 30.000000000000071 0 0 -1 0 0 0 -1 forward_v I I I I #
coedge $-1 $354 $355 $356 $357 forward $188 $-1 #
face $-1 $358 $359 $60 $-1 $352 reversed single #
loop $-1 $-1 $360 $190 #
plane-surface $-1 -50 0 0 1 0 0 0 0 -1 forward_v I I I I #
coedge $-1 $361 $362 $268 $363 reversed $191 $-1 #
coedge $-1 $364 $193 $267 $363 forward $133 $-1 #
coedge $-1 $193 $364 $360 $365 reversed $133 $-1 #
coedge $-1 $366 $367 $193 $271 forward $359 $-1 #
edge $-1 $368 0 $369 1.5707963267948966 $270 $370 forward 7 unknown #
face $-1 $371 $372 $48 $-1 $373 reversed single #
loop $-1 $-1 $374 $194 #
plane-surface $-1 -3 30 22.999999999999901 0.70710678118654635 0 0.70710678118654879 0 1 0 forward_v I I I I #
coedge $-1 $375 $376 $377 $378 reversed $195 $-1 #
coedge $-1 $379 $197 $199 $283 forward $136 $-1 #
coedge $-1 $197 $379 $375 $380 reversed $136 $-1 #
coedge $-1 $377 $200 $197 $279 forward $285 $-1 #
edge $-1 $287 -20 $381 -14.142135623730951 $278 $382 forward 7 unknown #
coedge $-1 $199 $198 $383 $384 reversed $90 $-1 #
coedge $-1 $385 $386 $387 $282 forward $388 $-1 #
edge $-1 $389 -60.000000000000071 $286 7.1054273576010019e-014 $281 $390 forward 7 unknown #
edge $-1 $287 -7.1054273576010019e-014 $391 60.000000000000071 $199 $392 forward 7 unknown #
coedge $-1 $200 $393 $385 $394 forward $285 $-1 #
loop $-1 $-1 $200 $395 #
vertex $-1 $396 $397 #
vertex $-1 $201 $398 #
ellipse-curve $-1 40 30.000000000000071 -20 0 -1 0 0 0 10 1 I I #
model_id-kcp-attrib $-1 $-1 $-1 $203 1 990549437 60 -1019478015 7 #
face $399 $400 $401 $12 $-1 $402 reversed single #
loop $403 $404 $405 $203 #
cone-surface $-1 -40 0 -20 0 -1 -3.4914813388431334e-015 3 0 0 1 I I 0 1 3 forward I I I I #
model_id-kcp-attrib $-1 $-1 $-1 $204 1 990549437 60 -1019478015 26 #
loop $406 $-1 $407 $140 #
coedge $-1 $295 $295 $408 $409 reversed $204 $-1 #
coedge $-1 $296 $296 $207 $297 forward $302 $-1 #
edge $410 $411 -3.1415926535898002 $411 3.141592653589786 $296 $412 forward 7 unknown #
edge $-1 $413 1 $413 0 $208 $-1 forward 7 unknown #
attrib_edge_convexity-kcp-attrib $-1 $414 $-1 $210 2 #
vertex $-1 $210 $415 #
ellipse-curve $-1 0 10.000000000000165 3 0 6.9829626776862667e-015 -1 3 0 0 1 I I #
loop $-1 $416 $296 $303 #
face $417 $418 $211 $12 $-1 $419 forward single #
convexity-sys-attrib $-1 $-1 $212 $146 #
point $-1 16.99999999999978 -9.9999999999999538 3.0000000000001781 #
point $-1 0 -9.9999999999999947 -1.0097419586828951e-028 #
model_id-kcp-attrib $-1 $-1 $-1 $219 1 990549437 70 -1018822654 3 #
face $-1 $-1 $234 $35 $-1 $420 reversed single #
loop $-1 $-1 $324 $219 #
plane-surface $-1 0 30.000000000000071 0 0 -1 0 0 0 -1 forward_v I I I I #
coedge $-1 $421 $322 $325 $422 forward $220 $-1 #
coedge $-1 $328 $222 $223 $316 reversed $153 $-1 #
coedge $-1 $322 $421 $222 $314 reversed $220 $-1 #
edge $-1 $329 -30 $423 30 $313 $424 forward 7 unknown #
coedge $-1 $224 $223 $421 $425 forward $103 $-1 #
edge $-1 $320 -50 $423 50 $312 $426 forward 7 unknown #
coedge $-1 $325 $324 $224 $318 reversed $309 $-1 #
edge $-1 $427 -50 $319 50 $317 $428 forward 7 unknown #
vertex $-1 $226 $429 #
vertex $-1 $331 $430 #
straight-curve $-1 50 0 -30 0 -1 0 I I #
coedge $-1 $311 $313 $227 $323 reversed $220 $-1 #
edge $-1 $326 -30.000000000000071 $329 30.000000000000071 $322 $431 forward 7 unknown #
coedge $-1 $317 $228 $233 $332 forward $309 $-1 #
coedge $-1 $228 $317 $311 $422 reversed $309 $-1 #
vertex $-1 $229 $432 #
straight-curve $-1 0 30.000000000000071 30 -1 0 0 I I #
coedge $-1 $230 $312 $232 $331 reversed $153 $-1 #
vertex $-1 $323 $433 #
straight-curve $-1 0 -30.000000000000071 30 1 0 0 I I #
edge $-1 $235 -30 $320 30 $232 $434 forward 7 unknown #
edge $-1 $236 -30 $319 30 $233 $435 forward 7 unknown #
point $-1 50 -30.000000000000071 30 #
point $-1 50 30.000000000000071 30 #
edge $-1 $436 0 $436 6.2831853071795862 $238 $437 forward 7 unknown #
vertex $-1 $240 $438 #
point $-1 3 0 9.9999999999998828 #
edge $-1 $439 0 $439 6.2831853071795862 $243 $440 forward 7 unknown #
vertex $-1 $245 $441 #
point $-1 3 0 9.9999999999999591 #
vertex $-1 $249 $442 #
ellipse-curve $-1 0 0 30 0 0 1 3 0 0 1 I I #
point $-1 3 0 -30 #
vertex $-1 $253 $443 #
ellipse-curve $-1 0 0 30 0 0 1 3 0 0 1 I I #
point $-1 3 0 -30 #
vertex $-1 $257 $444 #
ellipse-curve $-1 0 0 30 0 0 1 3 0 0 1 I I #
point $-1 3 0 -30 #
face $-1 $445 $446 $87 $-1 $266 reversed single #
loop $-1 $-1 $447 $260 #
plane-surface $-1 0 -30.000000000000071 0 0 1 0 0 0 1 forward_v I I I I #
coedge $-1 $448 $449 $450 $451 forward $261 $-1 #
coedge $-1 $452 $263 $449 $453 forward $188 $-1 #
coedge $-1 $263 $452 $454 $455 forward $188 $-1 #
coedge $-1 $456 $450 $263 $357 reversed $457 $-1 #
edge $-1 $458 -60.000000000000071 $459 7.1054273576010019e-014 $263 $460 forward 7 unknown #
face $-1 $-1 $461 $60 $-1 $262 reversed single #
loop $-1 $-1 $270 $264 #
coedge $-1 $462 $463 $269 $365 forward $265 $-1 #
coedge $-1 $464 $267 $367 $465 forward $191 $-1 #
coedge $-1 $267 $464 $466 $467 forward $191 $-1 #
edge $-1 $368 -60.000000000000071 $468 7.1054273576010019e-014 $267 $469 forward 7 unknown #
coedge $-1 $269 $268 $470 $471 reversed $133 $-1 #
edge $-1 $369 -60.000000000000071 $472 7.1054273576010019e-014 $360 $473 forward 7 unknown #
coedge $-1 $367 $270 $463 $474 forward $359 $-1 #
coedge $-1 $270 $366 $361 $465 reversed $359 $-1 #
vertex $-1 $465 $475 #
vertex $-1 $474 $476 #
ellipse-curve $-1 -40 -30.000000000000071 -20 0 1 0 0 0 -10 1 I I #
face $-1 $477 $478 $48 $-1 $91 reversed single #
loop $-1 $-1 $479 $272 #
cone-surface $-1 -14.142135623731075 30 20 0 1 0 3.5527136788005009e-015 0 10 1 I I 0 1 10 forward I I I I #
coedge $-1 $480 $481 $482 $483 reversed $273 $-1 #
coedge $-1 $484 $275 $277 $380 forward $195 $-1 #
coedge $-1 $275 $484 $480 $485 reversed $195 $-1 #
coedge $-1 $482 $278 $275 $378 forward $285 $-1 #
edge $-1 $381 -7.1054273576010023e-016 $486 0.7853981633974455 $377 $487 forward 7 unknown #
coedge $-1 $277 $276 $488 $489 reversed $136 $-1 #
edge $-1 $381 -7.1054273576010019e-014 $490 60.000000000000071 $277 $491 forward 7 unknown #
vertex $-1 $279 $492 #
straight-curve $-1 20 30.000000000000071 -10 -1 0 0 I I #
coedge $-1 $493 $488 $280 $384 forward $494 $-1 #
edge $-1 $391 0 $389 1.5707963267948966 $383 $495 forward 7 unknown #
coedge $-1 $496 $281 $284 $394 reversed $388 $-1 #
coedge $-1 $281 $496 $493 $497 forward $388 $-1 #
coedge $-1 $498 $499 $500 $282 reversed $501 $-1 #
loop $-1 $-1 $281 $502 #
vertex $-1 $503 $504 #
straight-curve $-1 50 30 -20 0 1 0 I I #
vertex $-1 $384 $505 #
straight-curve $-1 40 30 -10 0 -1 0 I I #
coedge $-1 $284 $506 $507 $508 reversed $285 $-1 #
edge $-1 $509 -30 $286 20 $385 $510 forward 7 unknown #
face $-1 $511 $285 $48 $-1 $262 reversed single #
edge $-1 $286 20 $512 30 $499 $510 forward 7 unknown #
point $-1 50 30.000000000000071 -20 #
point $-1 40 30.000000000000071 -10 #
model_id-kcp-attrib $-1 $-1 $-1 $290 1 990549437 60 -1019478015 8 #
face $513 $514 $515 $12 $-1 $516 forward single #
loop $517 $518 $519 $290 #
cone-surface $-1 -40 0 20 0 -1 -3.4914813388431334e-015 3 0 0 1 I I 0 1 3 forward I I I I #
model_id-kcp-attrib $-1 $-1 $-1 $291 1 990549437 60 -1019478015 32 #
loop $520 $-1 $521 $203 #
coedge $-1 $405 $405 $522 $523 reversed $291 $-1 #
model_id-kcp-attrib $-1 $-1 $-1 $294 1 990549437 60 -1019478015 27 #
coedge $-1 $407 $407 $524 $525 reversed $294 $-1 #
coedge $-1 $408 $408 $295 $409 forward $526 $-1 #
edge $527 $528 -3.1415926535898002 $528 3.141592653589786 $408 $529 forward 7 unknown #
attrib_edge_convexity-kcp-attrib $-1 $530 $-1 $297 1 #
vertex $-1 $297 $531 #
ellipse-curve $-1 0 10.000000000000046 19.999999999999908 -0.70710678118654635 0 -0.70710678118654879 3 2.0948888033058728e-014 -2.9999999999999898 0.70710678118654879 I I #
vertex $-1 $298 $532 #
convexity-sys-attrib $-1 $-1 $299 $210 #
point $-1 3 10.000000000000165 3 #
loop $-1 $-1 $533 $303 #
model_id-kcp-attrib $-1 $-1 $-1 $303 1 990549437 60 -1019478015 16 #
face $534 $535 $536 $12 $-1 $537 forward single #
plane-surface $-1 8.786796564403538 0 11.213203435596395 0.70710678118654635 0 0.70710678118654879 0.70710678118654879 0 -0.70710678118654635 forward_v I I I I #
plane-surface $-1 50 0 0 -1 0 0 0 0 1 forward_v I I I I #
coedge $-1 $313 $311 $315 $425 reversed $220 $-1 #
edge $-1 $326 -30 $427 30 $325 $538 forward 7 unknown #
vertex $-1 $425 $539 #
straight-curve $-1 -50 -30.000000000000071 0 0 0 -1 I I #
edge $-1 $423 -30.000000000000071 $427 30.000000000000071 $421 $540 forward 7 unknown #
straight-curve $-1 0 -30.000000000000071 -30 -1 0 0 I I #
vertex $-1 $318 $541 #
straight-curve $-1 0 30.000000000000071 -30 1 0 0 I I #
point $-1 50 30.000000000000071 -30 #
point $-1 50 -30.000000000000071 -30 #
straight-curve $-1 -50 0 30 0 -1 0 I I #
point $-1 -50 30.000000000000071 30 #
point $-1 -50 -30.000000000000071 30 #
straight-curve $-1 50 -30.000000000000071 0 0 0 -1 I I #
straight-curve $-1 50 30.000000000000071 0 0 0 -1 I I #
vertex $-1 $335 $542 #
ellipse-curve $-1 0 0 -9.9999999999998828 0 0 -1 3 0 0 1 I I #
point $-1 5.348540115916342e-013 -1.8333343903816467e-013 12.999999999999853 #
vertex $-1 $338 $543 #
ellipse-curve $-1 0 0 -9.9999999999999591 0 0 -1 3 0 0 1 I I #
point $-1 6.4904136752585995e-015 1.9025449781633506e-013 12.999999999999938 #
point $-1 3 0 30 #
point $-1 3 0 30 #
point $-1 3 0 30 #
face $-1 $-1 $457 $87 $-1 $544 reversed single #
loop $-1 $-1 $545 $350 #
coedge $-1 $454 $546 $456 $547 forward $351 $-1 #
coedge $-1 $449 $353 $548 $549 reversed $261 $-1 #
coedge $-1 $353 $448 $354 $453 reversed $261 $-1 #
coedge $-1 $356 $550 $353 $451 reversed $457 $-1 #
edge $-1 $459 -1.5707963267948966 $551 0 $353 $552 forward 7 unknown #
coedge $-1 $355 $354 $553 $554 forward $188 $-1 #
edge $-1 $459 40 $555 50 $449 $556 forward 7 unknown #
coedge $-1 $546 $447 $355 $455 reversed $351 $-1 #
edge $-1 $557 -50 $458 -40 $454 $558 forward 7 unknown #
coedge $-1 $550 $356 $447 $547 reversed $457 $-1 #
loop $-1 $-1 $456 $445 #
vertex $-1 $357 $559 #
vertex $-1 $453 $560 #
straight-curve $-1 -40 30 30 0 1 0 I I #
loop $-1 $-1 $470 $358 #
coedge $-1 $561 $360 $562 $563 forward $265 $-1 #
coedge $-1 $360 $561 $366 $474 reversed $265 $-1 #
coedge $-1 $362 $361 $561 $564 forward $191 $-1 #
edge $-1 $368 40 $565 50 $367 $566 forward 7 unknown #
coedge $-1 $562 $470 $362 $467 reversed $461 $-1 #
edge $-1 $567 -50 $468 -40 $466 $568 forward 7 unknown #
vertex $-1 $471 $569 #
straight-curve $-1 -40 30 -30 0 1 0 I I #
coedge $-1 $466 $562 $364 $471 forward $461 $-1 #
edge $-1 $472 -1.5707963267948966 $468 0 $470 $570 forward 7 unknown #
vertex $-1 $563 $571 #
straight-curve $-1 -50 30 -20 0 1 0 I I #
edge $-1 $369 20 $565 30 $463 $572 forward 7 unknown #
point $-1 -40 -30.000000000000071 -30 #
point $-1 -50 -30.000000000000071 -20 #
face $-1 $573 $501 $48 $-1 $574 reversed single #
loop $-1 $-1 $575 $371 #
coedge $-1 $576 $577 $506 $578 reversed $372 $-1 #
coedge $-1 $579 $374 $376 $485 forward $273 $-1 #
coedge $-1 $374 $579 $576 $580 reversed $273 $-1 #
coedge $-1 $506 $377 $374 $483 forward $285 $-1 #
edge $-1 $486 -33.334523779156072 $581 14.949747468305972 $482 $582 forward 7 unknown #
coedge $-1 $376 $375 $583 $584 reversed $195 $-1 #
edge $-1 $486 -7.1054273576010019e-014 $585 60.000000000000071 $376 $586 forward 7 unknown #
vertex $-1 $378 $587 #
ellipse-curve $-1 34.142135623730944 30.000000000000071 -1.7763568394002505e-015 0 1 0 0 0 -9.9999999999999982 1 I I #
coedge $-1 $383 $583 $379 $489 forward $494 $-1 #
edge $-1 $490 14.142135623730951 $391 20 $488 $588 forward 7 unknown #
vertex $-1 $489 $589 #
straight-curve $-1 34.142135623730951 30 -10 0 -1 0 I I #
point $-1 34.142135623730951 30.000000000000071 -10 #
coedge $-1 $590 $383 $386 $497 reversed $494 $-1 #
loop $-1 $-1 $383 $591 #
ellipse-curve $-1 40 -30.000000000000071 -20 0 1 0 0 0 10 1 I I #
coedge $-1 $386 $385 $592 $593 reversed $388 $-1 #
edge $-1 $594 -30 $389 20 $386 $595 forward 7 unknown #
coedge $-1 $596 $387 $597 $503 forward $501 $-1 #
coedge $-1 $387 $596 $598 $396 reversed $501 $-1 #
coedge $-1 $599 $575 $198 $282 forward $478 $-1 #
loop $-1 $-1 $387 $477 #
face $-1 $-1 $388 $48 $-1 $574 reversed single #
edge $-1 $389 20 $600 30 $498 $595 forward 7 unknown #
point $-1 50 -30.000000000000071 -20 #
point $-1 40 -30.000000000000071 -10 #
coedge $-1 $393 $482 $479 $578 forward $285 $-1 #
coedge $-1 $601 $592 $393 $508 forward $602 $-1 #
edge $-1 $509 -50 $603 14.142135623731075 $393 $556 forward 7 unknown #
vertex $-1 $593 $604 #
straight-curve $-1 50 30.000000000000071 0 0 0 -1 I I #
face $-1 $605 $602 $48 $-1 $189 forward single #
vertex $-1 $606 $607 #
model_id-kcp-attrib $-1 $-1 $-1 $400 1 990549437 60 -1019478015 9 #
face $608 $609 $610 $12 $-1 $611 reversed single #
loop $-1 $-1 $612 $400 #
cone-surface $-1 -40 0 -20 0 1 0 -7.0710678118654746 0 -7.0710678118654746 1 I I 0 1 10 forward I I I I #
model_id-kcp-attrib $-1 $-1 $-1 $401 1 990549437 60 -1019478015 38 #
loop $613 $-1 $614 $290 #
coedge $-1 $519 $519 $615 $616 reversed $401 $-1 #
model_id-kcp-attrib $-1 $-1 $-1 $404 1 990549437 60 -1019478015 33 #
coedge $-1 $521 $521 $617 $618 reversed $404 $-1 #
coedge $-1 $522 $522 $405 $523 forward $619 $-1 #
edge $620 $621 -3.1415926535898002 $621 3.141592653589786 $522 $622 forward 7 unknown #
coedge $-1 $524 $524 $407 $525 forward $623 $-1 #
edge $624 $625 -3.1415926535898002 $625 3.141592653589786 $524 $626 forward 7 unknown #
loop $627 $619 $408 $609 #
attrib_edge_convexity-kcp-attrib $-1 $628 $-1 $409 1 #
vertex $629 $409 $630 #
ellipse-curve $-1 40 30.000000000000071 -19.999999999999897 0 -1 0 3 0 0 1 I I #
convexity-sys-attrib $-1 $-1 $410 $297 #
point $-1 -3 10.000000000000004 22.999999999999897 #
point $-1 0 10.000000000000005 0 #
coedge $-1 $631 $632 $633 $634 reversed $416 $-1 #
model_id-kcp-attrib $-1 $-1 $-1 $418 1 990549437 60 -1019478015 17 #
face $635 $636 $637 $12 $-1 $638 forward single #
loop $-1 $-1 $639 $418 #
cone-surface $-1 34.142135623730944 0 0 0 -1 0 -3.8268343236508882 0 -9.2387953251128714 1 I I 0 -1 10 forward I I I I #
straight-curve $-1 -50 30.000000000000071 0 0 0 -1 I I #
point $-1 -50 -30.000000000000071 -30 #
straight-curve $-1 -50 0 -30 0 1 0 I I #
point $-1 -50 30.000000000000071 -30 #
point $-1 3 0 -9.9999999999998828 #
point $-1 3 0 -9.9999999999999591 #
cone-surface $-1 -40 30 20 0 1 0 -10 0 0 1 I I 0 1 10 forward I I I I #
coedge $-1 $640 $548 $550 $641 reversed $446 $-1 #
coedge $-1 $447 $454 $640 $642 forward $351 $-1 #
edge $-1 $643 0 $458 1.5707963267948966 $447 $644 forward 7 unknown #
coedge $-1 $545 $553 $448 $549 forward $446 $-1 #
edge $-1 $555 -30 $551 -20 $448 $645 forward 7 unknown #
coedge $-1 $450 $456 $545 $641 forward $457 $-1 #
vertex $-1 $451 $646 #
ellipse-curve $-1 -40 30.000000000000071 20 0 -1 0 -10 0 0 1 I I #
coedge $-1 $548 $640 $452 $554 reversed $446 $-1 #
edge $-1 $555 -30.000000000000071 $557 30.000000000000071 $553 $647 forward 7 unknown #
vertex $-1 $453 $648 #
straight-curve $-1 0 30.000000000000071 30 -1 0 0 I I #
vertex $-1 $554 $649 #
straight-curve $-1 0 -30.000000000000071 30 1 0 0 I I #
point $-1 -40 -30.000000000000071 30 #
point $-1 -40 30.000000000000071 30 #
coedge $-1 $463 $462 $464 $564 reversed $265 $-1 #
coedge $-1 $470 $466 $462 $563 reversed $461 $-1 #
edge $-1 $472 20 $567 30 $562 $645 forward 7 unknown #
edge $-1 $565 -30.000000000000071 $567 30.000000000000071 $561 $650 forward 7 unknown #
vertex $-1 $564 $651 #
straight-curve $-1 0 -30.000000000000071 -30 -1 0 0 I I #
vertex $-1 $467 $652 #
straight-curve $-1 0 30.000000000000071 -30 1 0 0 I I #
point $-1 -40 30.000000000000071 -30 #
ellipse-curve $-1 -40 30.000000000000071 -20 0 -1 0 0 0 -10 1 I I #
point $-1 -50 30.000000000000071 -20 #
straight-curve $-1 -50 -30.000000000000071 0 0 0 -1 I I #
face $-1 $591 $653 $48 $-1 $192 reversed single #
plane-surface $-1 50 0 0 -1 0 0 0 0 1 forward_v I I I I #
coedge $-1 $500 $654 $655 $656 reversed $478 $-1 #
coedge $-1 $657 $479 $481 $580 forward $372 $-1 #
coedge $-1 $479 $657 $601 $658 forward $372 $-1 #
edge $-1 $581 -0.78539816339744517 $603 3.5527136788005011e-016 $506 $659 forward 7 unknown #
coedge $-1 $481 $480 $660 $661 reversed $273 $-1 #
edge $-1 $581 -7.1054273576010019e-014 $662 60.000000000000071 $481 $663 forward 7 unknown #
vertex $-1 $483 $664 #
straight-curve $-1 3.4999999999999778 30.000000000000071 16.499999999999947 -0.70710678118654879 0 0.70710678118654635 I I #
coedge $-1 $488 $660 $484 $584 forward $494 $-1 #
edge $-1 $585 -0.7853981633974455 $490 7.1054273576010023e-016 $583 $665 forward 7 unknown #
vertex $-1 $584 $666 #
straight-curve $-1 27.07106781186549 30 -7.071067811865495 0 -1 0 I I #
point $-1 27.07106781186549 30.000000000000071 -7.071067811865495 #
straight-curve $-1 20 -30.000000000000071 -10 1 0 0 I I #
point $-1 34.142135623730951 -30.000000000000071 -10 #
coedge $-1 $667 $493 $668 $669 reversed $494 $-1 #
face $-1 $395 $494 $48 $-1 $352 reversed single #
coedge $-1 $507 $668 $496 $593 forward $602 $-1 #
edge $-1 $594 -30.000000000000071 $509 30.000000000000071 $496 $670 forward 7 unknown #
vertex $-1 $593 $671 #
straight-curve $-1 50 -30.000000000000071 0 0 0 -1 I I #
coedge $-1 $499 $498 $672 $606 reversed $501 $-1 #
coedge $-1 $655 $673 $498 $503 reversed $674 $-1 #
coedge $-1 $675 $676 $499 $396 forward $677 $-1 #
coedge $-1 $654 $500 $676 $678 reversed $478 $-1 #
vertex $-1 $503 $679 #
coedge $-1 $668 $507 $577 $658 reversed $602 $-1 #
loop $-1 $-1 $601 $511 #
vertex $-1 $658 $680 #
point $-1 50 30.000000000000071 30 #
face $-1 $681 $674 $48 $-1 $352 reversed single #
edge $-1 $512 -30.000000000000071 $600 30.000000000000071 $596 $682 forward 7 unknown #
point $-1 50 30.000000000000071 -30 #
model_id-kcp-attrib $-1 $-1 $-1 $514 1 990549437 60 -1019478015 10 #
face $683 $684 $526 $12 $-1 $685 reversed single #
loop $-1 $-1 $686 $514 #
plane-surface $-1 0 0 -30 0 0 1 1 0 0 forward_v I I I I #
coedge $-1 $687 $688 $686 $689 forward $515 $-1 #
model_id-kcp-attrib $-1 $-1 $-1 $518 1 990549437 60 -1019478015 39 #
coedge $-1 $614 $614 $690 $691 reversed $518 $-1 #
coedge $-1 $615 $615 $519 $616 forward $692 $-1 #
edge $693 $694 -3.1415926535898002 $694 3.141592653589786 $615 $695 forward 7 unknown #
coedge $-1 $617 $617 $521 $618 forward $696 $-1 #
edge $697 $698 -3.1415926535898002 $698 3.141592653589786 $617 $699 forward 7 unknown #
loop $700 $692 $522 $609 #
attrib_edge_convexity-kcp-attrib $-1 $701 $-1 $523 1 #
vertex $702 $523 $703 #
ellipse-curve $-1 -40 30.000000000000071 -19.999999999999897 0 -1 0 3 0 0 1 I I #
loop $704 $696 $524 $705 #
attrib_edge_convexity-kcp-attrib $-1 $706 $-1 $525 1 #
vertex $707 $525 $708 #
ellipse-curve $-1 40 -29.999999999999929 -20.000000000000103 0 1 0 3 0 0 1 I I #
model_id-kcp-attrib $-1 $-1 $-1 $526 1 990549437 60 -1019478015 28 #
convexity-sys-attrib $-1 $-1 $527 $409 #
model_id-kcp-attrib $-1 $-1 $-1 $528 1 990549437 60 -1019478015 30 #
point $-1 37 30.000000000000071 -19.999999999999876 #
coedge $-1 $709 $533 $710 $711 reversed $416 $-1 #
coedge $-1 $533 $709 $712 $713 reversed $416 $-1 #
coedge $-1 $714 $715 $533 $634 forward $716 $-1 #
edge $-1 $717 -30 $718 30 $533 $719 forward 7 unknown #
model_id-kcp-attrib $-1 $-1 $-1 $535 1 990549437 60 -1019478015 18 #
face $720 $721 $722 $12 $-1 $723 forward single #
loop $-1 $-1 $724 $535 #
cone-surface $-1 40 0 -20 0 -1 0 7.0710678118654746 0 -7.0710678118654746 1 I I 0 1 10 forward I I I I #
coedge $-1 $725 $726 $727 $728 forward $536 $-1 #
coedge $-1 $553 $545 $546 $642 reversed $446 $-1 #
edge $-1 $643 -60.000000000000071 $551 7.1054273576010019e-014 $545 $729 forward 7 unknown #
edge $-1 $557 -30 $643 -20 $640 $572 forward 7 unknown #
vertex $-1 $547 $730 #
ellipse-curve $-1 -40 -30.000000000000071 20 0 1 0 -10 0 0 1 I I #
straight-curve $-1 -50 30.000000000000071 0 0 0 -1 I I #
point $-1 -50 30.000000000000071 20 #
straight-curve $-1 -50 0 30 0 -1 0 I I #
point $-1 -50 30.000000000000071 30 #
point $-1 -50 -30.000000000000071 30 #
straight-curve $-1 -50 0 -30 0 1 0 I I #
point $-1 -50 -30.000000000000071 -30 #
point $-1 -50 30.000000000000071 -30 #
loop $-1 $-1 $731 $573 #
coedge $-1 $575 $599 $731 $732 reversed $478 $-1 #
coedge $-1 $673 $597 $575 $656 forward $674 $-1 #
edge $-1 $389 1.5707963267948966 $733 3.1415926535897931 $655 $495 forward 7 unknown #
coedge $-1 $577 $576 $667 $734 reversed $372 $-1 #
edge $-1 $735 -60.000000000000071 $603 7.1054273576010019e-014 $601 $736 forward 7 unknown #
ellipse-curve $-1 -14.142135623731075 30.000000000000071 20 0 -1 0 3.5527136788005009e-015 0 10 1 I I #
coedge $-1 $583 $667 $579 $661 forward $494 $-1 #
edge $-1 $662 -14.949747468305972 $585 33.334523779156072 $660 $737 forward 7 unknown #
vertex $-1 $661 $738 #
straight-curve $-1 -7.0710678118656176 30 27.071067811865497 0 -1 0 I I #
point $-1 -7.0710678118656176 30.000000000000071 27.071067811865497 #
ellipse-curve $-1 34.142135623730944 -30.000000000000071 -1.7763568394002505e-015 0 -1 0 0 0 -9.9999999999999982 1 I I #
point $-1 27.07106781186549 -30.000000000000071 -7.071067811865495 #
coedge $-1 $660 $590 $657 $734 forward $494 $-1 #
coedge $-1 $592 $601 $590 $669 forward $602 $-1 #
edge $-1 $735 -14.142135623731075 $594 50 $590 $558 forward 7 unknown #
straight-curve $-1 50 0 30 0 1 0 I I #
point $-1 50 -30.000000000000071 30 #
coedge $-1 $739 $740 $596 $606 forward $653 $-1 #
coedge $-1 $597 $655 $739 $741 reversed $674 $-1 #
loop $-1 $-1 $655 $605 #
coedge $-1 $676 $598 $740 $742 reversed $677 $-1 #
coedge $-1 $598 $675 $599 $678 forward $677 $-1 #
loop $-1 $-1 $676 $681 #
edge $-1 $743 -3.1415926535897931 $286 -1.5707963267948966 $676 $288 forward 7 unknown #
point $-1 50 -30.000000000000071 -30 #
point $-1 -14.142135623731075 30.000000000000071 30 #
face $-1 $502 $677 $48 $-1 $262 reversed single #
straight-curve $-1 50 0 -30 0 -1 0 I I #
model_id-kcp-attrib $-1 $744 $-1 $609 1 990549437 60 -1019478015 21 #
face $745 $746 $747 $12 $-1 $748 forward single #
plane-surface $-1 0 30 0 0 -1 0 0 0 -1 forward_v I I I I #
coedge $-1 $749 $750 $612 $689 reversed $610 $-1 #
coedge $-1 $751 $612 $752 $753 forward $515 $-1 #
coedge $-1 $612 $751 $754 $755 forward $515 $-1 #
edge $756 $757 -30 $758 30 $686 $759 forward 7 unknown #
coedge $-1 $690 $690 $614 $691 forward $760 $-1 #
edge $761 $762 -3.1415926535898002 $762 3.141592653589786 $690 $763 forward 7 unknown #
loop $764 $765 $615 $609 #
attrib_edge_convexity-kcp-attrib $-1 $766 $-1 $616 1 #
vertex $767 $616 $768 #
ellipse-curve $-1 -40 29.999999999999929 20.000000000000103 0 -1 0 3 0 0 1 I I #
loop $769 $760 $617 $705 #
attrib_edge_convexity-kcp-attrib $-1 $770 $-1 $618 1 #
vertex $771 $618 $772 #
ellipse-curve $-1 -40 -29.999999999999929 -20.000000000000103 0 1 0 3 0 0 1 I I #
model_id-kcp-attrib $-1 $-1 $-1 $619 1 990549437 60 -1019478015 34 #
convexity-sys-attrib $-1 $-1 $620 $523 #
model_id-kcp-attrib $-1 $-1 $-1 $621 1 990549437 60 -1019478015 36 #
point $-1 -43 30.000000000000071 -19.999999999999876 #
model_id-kcp-attrib $-1 $-1 $-1 $623 1 990549437 60 -1019478015 29 #
face $773 $774 $623 $12 $-1 $775 reversed single #
convexity-sys-attrib $-1 $-1 $624 $525 #
model_id-kcp-attrib $-1 $-1 $-1 $625 1 990549437 60 -1019478015 31 #
point $-1 37 -29.999999999999929 -20.000000000000124 #
coedge $-1 $632 $631 $776 $777 reversed $416 $-1 #
coedge $-1 $778 $779 $631 $711 forward $780 $-1 #
edge $-1 $781 -25.000000000000043 $717 23.284271247461998 $710 $782 forward 7 unknown #
coedge $-1 $783 $784 $632 $713 forward $765 $-1 #
edge $785 $718 -23.284271247461998 $786 25.000000000000043 $712 $787 forward 7 unknown #
coedge $-1 $788 $633 $784 $789 forward $716 $-1 #
coedge $-1 $633 $788 $778 $790 forward $716 $-1 #
loop $-1 $-1 $788 $774 #
vertex $-1 $711 $791 #
vertex $-1 $634 $792 #
straight-curve $-1 -7.0710678118656087 0 27.07106781186549 0 1 0 F -61 F 61 #
model_id-kcp-attrib $-1 $-1 $-1 $636 1 990549437 60 -1019478015 19 #
face $793 $-1 $794 $12 $-1 $795 reversed single #
loop $-1 $-1 $727 $636 #
plane-surface $-1 40 0 -10 0 0 1 1 0 0 forward_v I I I I #
coedge $-1 $796 $797 $798 $799 forward $637 $-1 #
coedge $-1 $776 $639 $783 $800 reversed $536 $-1 #
coedge $-1 $639 $776 $779 $801 reversed $536 $-1 #
coedge $-1 $802 $803 $639 $728 reversed $722 $-1 #
edge $-1 $804 -30 $805 30 $727 $806 forward 7 unknown #
straight-curve $-1 -50 30 20 0 1 0 I I #
point $-1 -50 -30.000000000000071 20 #
coedge $-1 $740 $739 $654 $732 forward $653 $-1 #
edge $-1 $733 -60.000000000000071 $743 7.1054273576010019e-014 $731 $807 forward 7 unknown #
vertex $-1 $656 $808 #
edge $-1 $735 -3.5527136788005011e-016 $662 0.78539816339744517 $667 $809 forward 7 unknown #
vertex $-1 $669 $810 #
straight-curve $-1 -14.142135623731075 30 30 0 1 0 I I #
straight-curve $-1 3.4999999999999778 -30.000000000000078 16.499999999999947 0.70710678118654879 0 -0.70710678118654635 I I #
point $-1 -7.0710678118656176 -30.000000000000071 27.071067811865497 #
coedge $-1 $731 $672 $673 $741 forward $653 $-1 #
coedge $-1 $672 $731 $675 $742 forward $653 $-1 #
edge $-1 $600 -50 $733 -40 $673 $566 forward 7 unknown #
edge $-1 $743 40 $512 50 $675 $568 forward 7 unknown #
vertex $-1 $742 $811 #
model_id-kcp-attrib $-1 $-1 $683 $609 1 990549437 60 -1019478015 11 #
model_id-kcp-attrib $-1 $-1 $-1 $684 1 990549437 60 -1019478015 12 #
face $812 $705 $813 $12 $-1 $814 forward single #
loop $-1 $-1 $815 $684 #
cone-surface $-1 -40 0 20 0 -1 0 -7.0710678118654746 0 7.0710678118654746 1 I I 0 1 10 forward I I I I #
coedge $-1 $798 $686 $816 $817 forward $610 $-1 #
coedge $-1 $686 $798 $818 $819 forward $610 $-1 #
coedge $-1 $688 $687 $820 $821 forward $515 $-1 #
coedge $-1 $818 $822 $687 $753 reversed $780 $-1 #
edge $-1 $758 -0.78539816339744828 $823 0.78539816339744828 $752 $824 forward 7 unknown #
coedge $-1 $825 $816 $688 $755 reversed $765 $-1 #
edge $826 $827 -0.78539816339744828 $757 0.78539816339744828 $754 $828 forward 7 unknown #
attrib_edge_convexity-kcp-attrib $-1 $829 $-1 $689 3 #
vertex $-1 $755 $830 #
vertex $-1 $819 $831 #
straight-curve $-1 -40 0 -30 0 -1 0 F -61 F 61 #
loop $832 $780 $690 $705 #
attrib_edge_convexity-kcp-attrib $-1 $833 $-1 $691 1 #
vertex $834 $691 $835 #
ellipse-curve $-1 -40 -30.000000000000071 19.999999999999897 0 1 0 3 0 0 1 I I #
model_id-kcp-attrib $-1 $-1 $-1 $692 1 990549437 60 -1019478015 40 #
loop $-1 $-1 $754 $609 #
convexity-sys-attrib $-1 $-1 $693 $616 #
model_id-kcp-attrib $-1 $-1 $-1 $694 1 990549437 60 -1019478015 42 #
point $-1 -43 29.999999999999929 20.000000000000124 #
model_id-kcp-attrib $-1 $-1 $-1 $696 1 990549437 60 -1019478015 35 #
convexity-sys-attrib $-1 $-1 $697 $618 #
model_id-kcp-attrib $-1 $-1 $-1 $698 1 990549437 60 -1019478015 37 #
point $-1 -43 -29.999999999999929 -20.000000000000124 #
model_id-kcp-attrib $-1 $836 $-1 $705 1 990549437 60 -1019478015 25 #
face $837 $303 $716 $12 $-1 $838 forward single #
plane-surface $-1 0 -30 0 0 1 0 0 0 1 forward_v I I I I #
coedge $-1 $726 $725 $709 $777 forward $536 $-1 #
edge $-1 $786 -30 $781 30 $709 $839 forward 7 unknown #
coedge $-1 $840 $710 $715 $790 reversed $780 $-1 #
coedge $-1 $710 $841 $726 $801 forward $780 $-1 #
loop $-1 $-1 $752 $705 #
vertex $-1 $711 $842 #
straight-curve $-1 9.3933982822017441 -30 10.606601717798192 -0.70710678118654879 0 0.70710678118654635 I I #
coedge $-1 $843 $712 $725 $800 forward $765 $-1 #
coedge $-1 $712 $844 $714 $789 reversed $765 $-1 #
attrib_edge_convexity-kcp-attrib $-1 $845 $-1 $713 1 #
vertex $-1 $713 $846 #
straight-curve $-1 9.3933982822017441 30 10.606601717798192 0.70710678118654879 0 -0.70710678118654635 I I #
coedge $-1 $715 $714 $847 $848 forward $716 $-1 #
edge $849 $718 -0.39269908169872264 $850 0.39269908169872314 $784 $851 forward 7 unknown #
edge $-1 $852 -0.39269908169872314 $717 0.39269908169872264 $778 $853 forward 7 unknown #
point $-1 -7.0710678118656141 -30 27.071067811865493 #
point $-1 -7.0710678118656141 30 27.071067811865493 #
model_id-kcp-attrib $-1 $-1 $-1 $721 1 990549437 60 -1019478015 20 #
loop $-1 $-1 $820 $721 #
plane-surface $-1 -50 0 0 1 0 0 0 0 -1 forward_v I I I I #
coedge $-1 $854 $724 $855 $856 forward $637 $-1 #
coedge $-1 $724 $854 $857 $858 forward $637 $-1 #
coedge $-1 $750 $749 $724 $799 reversed $610 $-1 #
edge $859 $860 -30 $861 30 $798 $862 forward 7 unknown #
edge $863 $786 -0.39269908169872247 $805 0.39269908169872314 $783 $864 forward 7 unknown #
edge $-1 $804 -0.39269908169872314 $781 0.39269908169872247 $779 $865 forward 7 unknown #
coedge $-1 $866 $727 $841 $867 reversed $722 $-1 #
coedge $-1 $727 $866 $843 $868 reversed $722 $-1 #
vertex $-1 $867 $869 #
vertex $-1 $868 $870 #
straight-curve $-1 34.142135623730944 0 -10 0 1 0 F -61 F 61 #
straight-curve $-1 40 30 -30 0 1 0 I I #
point $-1 40 -30.000000000000071 -30 #
ellipse-curve $-1 -14.142135623731075 -30.000000000000071 20 0 1 0 3.5527136788005009e-015 0 10 1 I I #
point $-1 -14.142135623731075 -30.000000000000071 30 #
point $-1 40 30.000000000000071 -30 #
model_id-kcp-attrib $-1 $-1 $-1 $746 1 990549437 60 -1019478015 13 #
loop $-1 $-1 $871 $746 #
plane-surface $-1 0 0 30 0 0 1 1 0 0 forward_v I I I I #
coedge $-1 $872 $873 $871 $874 forward $747 $-1 #
coedge $-1 $754 $855 $749 $817 reversed $765 $-1 #
edge $875 $757 -40 $861 40 $816 $876 forward 7 unknown #
coedge $-1 $857 $752 $750 $819 reversed $780 $-1 #
edge $877 $860 -40 $758 40 $818 $878 forward 7 unknown #
coedge $-1 $879 $880 $751 $821 reversed $794 $-1 #
edge $881 $823 -30 $827 30 $820 $882 forward 7 unknown #
coedge $-1 $752 $883 $879 $884 forward $780 $-1 #
vertex $-1 $884 $885 #
ellipse-curve $-1 -40 -30 -20 0 1 0 -7.0710678118654746 0 -7.0710678118654746 1 I I #
coedge $-1 $886 $754 $880 $887 reversed $765 $-1 #
attrib_edge_convexity-kcp-attrib $-1 $888 $-1 $755 1 #
vertex $-1 $887 $889 #
ellipse-curve $-1 -40 30 -20 0 -1 0 -7.0710678118654746 0 -7.0710678118654746 1 I I #
convexity-sys-attrib $-1 $-1 $756 $689 #
point $-1 -40 30 -30 #
point $-1 -40 -30 -30 #
model_id-kcp-attrib $-1 $-1 $-1 $760 1 990549437 60 -1019478015 41 #
convexity-sys-attrib $-1 $-1 $761 $691 #
model_id-kcp-attrib $-1 $-1 $-1 $762 1 990549437 60 -1019478015 43 #
point $-1 -43 -30.000000000000071 19.999999999999876 #
model_id-kcp-attrib $-1 $-1 $773 $705 1 990549437 60 -1019478015 14 #
model_id-kcp-attrib $-1 $-1 $-1 $774 1 990549437 60 -1019478015 15 #
cone-surface $-1 -14.142135623731072 0 20 0 1 0 3.8268343236508882 0 9.2387953251128714 1 I I 0 1 10 forward I I I I #
straight-curve $-1 27.071067811865483 0 -7.0710678118654879 0 -1 0 F -61 F 61 #
coedge $-1 $883 $778 $890 $891 reversed $780 $-1 #
coedge $-1 $779 $857 $802 $867 forward $780 $-1 #
point $-1 27.07106781186549 -30 -7.0710678118654933 #
coedge $-1 $855 $783 $803 $868 forward $765 $-1 #
coedge $-1 $784 $886 $892 $893 reversed $765 $-1 #
convexity-sys-attrib $-1 $-1 $785 $713 #
point $-1 27.07106781186549 30 -7.0710678118654933 #
coedge $-1 $892 $890 $788 $848 reversed $813 $-1 #
edge $-1 $850 -30 $852 30 $847 $894 forward 7 unknown #
attrib_edge_convexity-kcp-attrib $-1 $895 $-1 $789 1 #
vertex $-1 $789 $896 #
ellipse-curve $-1 -14.142135623731072 30 20 0 -1 0 3.8268343236508882 0 9.2387953251128714 1 I I #
vertex $-1 $891 $897 #
ellipse-curve $-1 -14.142135623731072 -30 20 0 1 0 3.8268343236508882 0 9.2387953251128714 1 I I #
coedge $-1 $797 $796 $866 $898 forward $637 $-1 #
coedge $-1 $816 $843 $796 $856 reversed $765 $-1 #
edge $899 $861 -2.3561944901923448 $900 0.78539816339744828 $855 $901 forward 7 unknown #
coedge $-1 $841 $818 $797 $858 reversed $780 $-1 #
edge $-1 $902 -0.78539816339744828 $860 2.3561944901923448 $857 $903 forward 7 unknown #
attrib_edge_convexity-kcp-attrib $-1 $904 $-1 $799 3 #
vertex $-1 $799 $905 #
vertex $-1 $817 $906 #
straight-curve $-1 40 0 -30 0 1 0 F -61 F 61 #
attrib_edge_convexity-kcp-attrib $-1 $907 $-1 $800 1 #
ellipse-curve $-1 34.142135623730944 30 0 0 -1 0 -3.8268343236508882 0 -9.2387953251128714 1 I I #
ellipse-curve $-1 34.142135623730944 -30 0 0 1 0 -3.8268343236508882 0 -9.2387953251128714 1 I I #
coedge $-1 $803 $802 $854 $898 reversed $722 $-1 #
edge $-1 $902 -20 $804 -14.142135623730944 $841 $908 forward 7 unknown #
edge $909 $805 14.142135623730944 $900 20 $843 $910 forward 7 unknown #
point $-1 34.142135623730944 -30 -10 #
point $-1 34.142135623730944 30 -10 #
coedge $-1 $890 $892 $815 $874 reversed $813 $-1 #
coedge $-1 $911 $815 $886 $912 forward $747 $-1 #
coedge $-1 $815 $911 $883 $913 forward $747 $-1 #
edge $-1 $914 -30 $915 30 $871 $916 forward 7 unknown #
attrib_edge_convexity-kcp-attrib $-1 $917 $-1 $817 1 #
straight-curve $-1 0 30 -30 1 0 0 I I #
model_id-kcp-attrib $-1 $918 $-1 $819 1 990549437 60 -1019478015 24 #
straight-curve $-1 0 -30 -30 -1 0 0 I I #
coedge $-1 $919 $820 $822 $884 reversed $794 $-1 #
coedge $-1 $820 $919 $825 $887 forward $794 $-1 #
attrib_edge_convexity-kcp-attrib $-1 $920 $-1 $821 3 #
straight-curve $-1 -50 0 -20 0 1 0 F -61 F 61 #
coedge $-1 $822 $840 $873 $913 reversed $780 $-1 #
edge $921 $922 -20 $823 20 $879 $923 forward 7 unknown #
point $-1 -50 -30 -20 #
coedge $-1 $844 $825 $872 $912 reversed $765 $-1 #
edge $924 $925 -20 $827 20 $825 $926 forward 7 unknown #
convexity-sys-attrib $-1 $-1 $826 $755 #
point $-1 -50 30 -20 #
coedge $-1 $847 $871 $840 $891 forward $813 $-1 #
edge $927 $914 -40 $852 -14.142135623731072 $840 $928 forward 7 unknown #
coedge $-1 $871 $847 $844 $893 forward $813 $-1 #
edge $929 $850 14.142135623731072 $915 40 $844 $930 forward 7 unknown #
straight-curve $-1 -14.142135623731072 0 30 0 -1 0 F -61 F 61 #
convexity-sys-attrib $-1 $-1 $849 $789 #
point $-1 -14.142135623731072 30 30 #
point $-1 -14.142135623731072 -30 30 #
edge $-1 $900 -30 $902 30 $866 $931 forward 7 unknown #
attrib_edge_convexity-kcp-attrib $-1 $932 $-1 $856 1 #
vertex $-1 $868 $933 #
ellipse-curve $-1 40 30 -20 0 -1 0 7.0710678118654746 0 7.0710678118654746 1 I I #
vertex $-1 $858 $934 #
ellipse-curve $-1 40 -30 -20 0 1 0 7.0710678118654746 0 7.0710678118654746 1 I I #
convexity-sys-attrib $-1 $-1 $859 $799 #
point $-1 40 -30 -30 #
point $-1 40 30 -30 #
convexity-sys-attrib $-1 $-1 $863 $800 #
straight-curve $-1 20 -30 -10 -1 0 0 I I #
attrib_edge_convexity-kcp-attrib $-1 $935 $-1 $868 1 #
straight-curve $-1 20 30 -10 1 0 0 I I #
coedge $-1 $873 $872 $919 $936 forward $747 $-1 #
edge $937 $915 -0.78539816339744828 $925 0.78539816339744828 $886 $938 forward 7 unknown #
edge $-1 $922 -0.78539816339744828 $914 0.78539816339744828 $883 $939 forward 7 unknown #
vertex $-1 $913 $940 #
vertex $-1 $893 $941 #
straight-curve $-1 -40 0 30 0 1 0 F -61 F 61 #
convexity-sys-attrib $-1 $-1 $875 $817 #
attrib_edge_convexity-kcp-attrib $-1 $942 $877 $819 1 #
coedge $-1 $880 $879 $911 $936 reversed $794 $-1 #
convexity-sys-attrib $-1 $-1 $881 $821 #
model_id-kcp-attrib $-1 $943 $-1 $884 1 990549437 60 -1019478015 22 #
vertex $-1 $913 $944 #
straight-curve $-1 -50 -30 0 0 0 -1 I I #
attrib_edge_convexity-kcp-attrib $-1 $945 $-1 $887 1 #
vertex $-1 $936 $946 #
straight-curve $-1 -50 30 0 0 0 -1 I I #
model_id-kcp-attrib $-1 $-1 $-1 $891 1 990549437 60 -1019478015 23 #
straight-curve $-1 0 -30 30 1 0 0 I I #
attrib_edge_convexity-kcp-attrib $-1 $947 $-1 $893 1 #
straight-curve $-1 0 30 30 -1 0 0 I I #
straight-curve $-1 40 0 -10 0 -1 0 F -61 F 61 #
convexity-sys-attrib $-1 $-1 $899 $856 #
point $-1 40 30 -10 #
point $-1 40 -30 -10 #
convexity-sys-attrib $-1 $-1 $909 $868 #
edge $948 $925 -30 $922 30 $919 $949 forward 7 unknown #
attrib_edge_convexity-kcp-attrib $-1 $950 $-1 $912 1 #
ellipse-curve $-1 -40 30 20 0 -1 0 -7.0710678118654746 0 7.0710678118654746 1 I I #
ellipse-curve $-1 -40 -30 20 0 1 0 -7.0710678118654746 0 7.0710678118654746 1 I I #
point $-1 -40 -30 30 #
point $-1 -40 30 30 #
convexity-sys-attrib $-1 $-1 $918 $819 #
attrib_edge_convexity-kcp-attrib $-1 $951 $921 $884 1 #
point $-1 -50 -30 20 #
convexity-sys-attrib $-1 $-1 $924 $887 #
point $-1 -50 30 20 #
convexity-sys-attrib $-1 $-1 $929 $893 #
attrib_edge_convexity-kcp-attrib $-1 $952 $-1 $936 3 #
straight-curve $-1 -50 0 20 0 -1 0 F -61 F 61 #
convexity-sys-attrib $-1 $-1 $937 $912 #
convexity-sys-attrib $-1 $-1 $943 $884 #
convexity-sys-attrib $-1 $-1 $948 $936 #
End-of-ACIS-data 