106 0 1 0           
body $-1 $1 $-1 $-1 #
lump $-1 $-1 $2 $0 #
shell $-1 $-1 $-1 $3 $1 #
face $-1 $4 $5 $2 $-1 $6 reversed single #
face $-1 $7 $8 $2 $-1 $9 reversed single #
loop $-1 $10 $11 $3 #
cone-surface $-1 1.5 -10.00000000000000533 1.571166602479399281e-14 -1 6.982962677686266711e-15 -1.047444401652940007e-14 1.57116660247941001e-14 0 -1.5 1 I I -0.7071067811865475727 0.7071067811865475727 0 I I I I #
face $-1 $12 $13 $2 $-1 $14 reversed single #
loop $-1 $15 $16 $4 #
cone-surface $-1 53 -10.00000000000018474 5.551455328760581151e-13 -1 6.982962677686266711e-15 -1.047444401652940007e-14 3.14233320495882002e-14 0 -3 1 I I 0 1 0 I I I I #
loop $-1 $-1 $17 $3 #
coedge $-1 $11 $11 $18 $19 1 $5 $-1 #
face $-1 $20 $21 $2 $-1 $22 reversed single #
loop $-1 $23 $24 $7 #
cone-surface $-1 0 9.999999999999994671 1.5 0 6.982962677686266711e-15 -1 1.5 0 0 1 I I -0.7071067811865475727 0.7071067811865475727 0 I I I I #
loop $-1 $-1 $18 $4 #
coedge $-1 $16 $16 $25 $26 1 $8 $-1 #
coedge $-1 $17 $17 $-1 $27 0 $10 $-1 #
coedge $-1 $18 $18 $11 $19 0 $15 $-1 #
edge $-1 $28 $28 $18 $29 0 #
face $-1 $30 $31 $2 $-1 $32 reversed single #
loop $-1 $33 $34 $12 #
cone-surface $-1 0 9.999999999999815259 53 0 6.982962677686266711e-15 -1 3 0 0 1 I I 0 1 0 I I I I #
loop $-1 $-1 $35 $7 #
coedge $-1 $24 $24 $36 $37 1 $13 $-1 #
coedge $-1 $25 $25 $16 $26 0 $38 $-1 #
edge $-1 $39 $39 $25 $40 0 #
edge $-1 $41 $41 $17 $-1 0 #
vertex $-1 $19 $42 #
ellipse-curve $-1 3 -9.999999999999834799 3.14233320495880866e-14 -1 6.982962677686266711e-15 -1.047444401652940007e-14 3.14233320495882002e-14 0 -3 1 I I #
face $-1 $43 $44 $2 $-1 $45 reversed single #
loop $-1 $46 $47 $20 #
cone-surface $-1 40 0 -20 0 -1 -3.491481338843133355e-15 3 0 0 1 I I 0 1 0 I I I I #
loop $-1 $-1 $36 $12 #
coedge $-1 $34 $34 $48 $49 1 $21 $-1 #
coedge $-1 $35 $35 $-1 $50 0 $23 $-1 #
coedge $-1 $36 $36 $24 $37 0 $33 $-1 #
edge $-1 $51 $51 $36 $52 0 #
loop $-1 $53 $25 $54 #
vertex $-1 $26 $55 #
ellipse-curve $-1 19.99999999999975842 -9.999999999999953815 2.09488880330585376e-13 -0.7071067811865463515 -0 -0.707106781186548794 2.999999999999979128 -2.09488880330584341e-14 -2.99999999999996847 0.707106781186553679 I I #
vertex $-1 $27 $56 #
point $-1 3.000000000000028422 -9.999999999999834799 -2.99999999999996847 #
face $-1 $57 $58 $2 $-1 $59 reversed single #
loop $-1 $60 $61 $30 #
cone-surface $-1 -40 0 -20 0 -1 -3.491481338843133355e-15 3 0 0 1 I I 0 1 0 I I I I #
loop $-1 $-1 $62 $20 #
coedge $-1 $47 $47 $63 $64 1 $31 $-1 #
coedge $-1 $48 $48 $34 $49 0 $53 $-1 #
edge $-1 $65 $65 $48 $66 0 #
edge $-1 $67 $67 $35 $-1 0 #
vertex $-1 $37 $68 #
ellipse-curve $-1 0 10.0000000000001652 3 0 6.982962677686266711e-15 -1 3 0 0 1 I I #
loop $-1 $69 $48 $54 #
face $-1 $70 $38 $2 $-1 $71 forward single #
point $-1 16.99999999999977973 -9.999999999999953815 3.00000000000017808 #
point $-1 0 -9.999999999999994671 -1.009741958682895111e-28 #
face $-1 $72 $73 $2 $-1 $74 forward single #
loop $-1 $75 $76 $43 #
cone-surface $-1 -40 0 20 0 -1 -3.491481338843133355e-15 3 0 0 1 I I 0 1 0 I I I I #
loop $-1 $-1 $77 $30 #
coedge $-1 $61 $61 $78 $79 1 $44 $-1 #
coedge $-1 $62 $62 $80 $81 1 $46 $-1 #
coedge $-1 $63 $63 $47 $64 0 $82 $-1 #
edge $-1 $83 $83 $63 $84 0 #
vertex $-1 $49 $85 #
ellipse-curve $-1 0 10.00000000000004619 19.99999999999990763 -0.7071067811865463515 -0 -0.707106781186548794 3 2.094888803305872756e-14 -2.999999999999989786 0.707106781186548794 I I #
vertex $-1 $50 $86 #
point $-1 3 10.0000000000001652 3 #
loop $-1 $-1 $87 $54 #
face $-1 $88 $89 $2 $-1 $90 forward single #
plane-surface $-1 8.786796564403537957 0 11.21320343559639454 0.7071067811865463515 0 0.707106781186548794 0.707106781186548794 0 -0.7071067811865463515 0 I I I I #
face $-1 $91 $92 $2 $-1 $93 reversed single #
loop $-1 $-1 $94 $57 #
cone-surface $-1 -40 0 -20 0 1 0 -7.071067811865474617 0 -7.071067811865474617 1 I I 0 1 0 I I I I #
loop $-1 $-1 $95 $43 #
coedge $-1 $76 $76 $96 $97 1 $58 $-1 #
coedge $-1 $77 $77 $98 $99 1 $60 $-1 #
coedge $-1 $78 $78 $61 $79 0 $100 $-1 #
edge $-1 $101 $101 $78 $102 0 #
coedge $-1 $80 $80 $62 $81 0 $103 $-1 #
edge $-1 $104 $104 $80 $105 0 #
loop $-1 $100 $63 $91 #
vertex $-1 $64 $106 #
ellipse-curve $-1 40 30.00000000000007105 -19.99999999999989697 0 -1 0 3 0 0 1 I I #
point $-1 -3 10.00000000000000355 22.99999999999989697 #
point $-1 0 10.00000000000000533 0 #
coedge $-1 $107 $108 $109 $110 1 $69 $-1 #
face $-1 $111 $112 $2 $-1 $113 forward single #
loop $-1 $-1 $114 $70 #
cone-surface $-1 34.14213562373094391 0 0 -0 -1 -0 -3.826834323650888159 0 -9.238795325112871382 1 I I 0 -1 0 I I I I #
face $-1 $115 $82 $2 $-1 $116 reversed single #
loop $-1 $-1 $117 $72 #
plane-surface $-1 0 0 -30 0 0 1 1 0 0 0 I I I I #
coedge $-1 $118 $119 $117 $120 0 $73 $-1 #
coedge $-1 $95 $95 $121 $122 1 $75 $-1 #
coedge $-1 $96 $96 $76 $97 0 $123 $-1 #
edge $-1 $124 $124 $96 $125 0 #
coedge $-1 $98 $98 $77 $99 0 $126 $-1 #
edge $-1 $127 $127 $98 $128 0 #
loop $-1 $123 $78 $91 #
vertex $-1 $79 $129 #
ellipse-curve $-1 -40 30.00000000000007105 -19.99999999999989697 0 -1 0 3 0 0 1 I I #
loop $-1 $126 $80 $130 #
vertex $-1 $81 $131 #
ellipse-curve $-1 40 -29.99999999999992895 -20.00000000000010303 0 1 -0 3 0 0 1 I I #
point $-1 37 30.00000000000007105 -19.99999999999987566 #
coedge $-1 $132 $87 $133 $134 1 $69 $-1 #
coedge $-1 $87 $132 $135 $136 1 $69 $-1 #
coedge $-1 $137 $138 $87 $110 0 $139 $-1 #
edge $-1 $140 $141 $87 $142 0 #
face $-1 $143 $144 $2 $-1 $145 forward single #
loop $-1 $-1 $146 $88 #
cone-surface $-1 40 0 -20 0 -1 0 7.071067811865474617 0 -7.071067811865474617 1 I I 0 1 0 I I I I #
coedge $-1 $147 $148 $149 $150 0 $89 $-1 #
face $-1 $151 $152 $2 $-1 $153 forward single #
plane-surface $-1 0 30 0 0 -1 0 0 0 -1 0 I I I I #
coedge $-1 $154 $155 $94 $120 1 $92 $-1 #
coedge $-1 $156 $94 $157 $158 0 $73 $-1 #
coedge $-1 $94 $156 $159 $160 0 $73 $-1 #
edge $-1 $161 $162 $117 $163 0 #
coedge $-1 $121 $121 $95 $122 0 $164 $-1 #
edge $-1 $165 $165 $121 $166 0 #
loop $-1 $167 $96 $91 #
vertex $-1 $97 $168 #
ellipse-curve $-1 -40 29.99999999999992895 20.00000000000010303 0 -1 0 3 0 0 1 I I #
loop $-1 $164 $98 $130 #
vertex $-1 $99 $169 #
ellipse-curve $-1 -40 -29.99999999999992895 -20.00000000000010303 0 1 -0 3 0 0 1 I I #
point $-1 -43 30.00000000000007105 -19.99999999999987566 #
face $-1 $170 $103 $2 $-1 $171 reversed single #
point $-1 37 -29.99999999999992895 -20.00000000000012434 #
coedge $-1 $108 $107 $172 $173 1 $69 $-1 #
coedge $-1 $174 $175 $107 $134 0 $176 $-1 #
edge $-1 $177 $140 $133 $178 0 #
coedge $-1 $179 $180 $108 $136 0 $167 $-1 #
edge $-1 $141 $181 $135 $182 0 #
coedge $-1 $183 $109 $180 $184 0 $139 $-1 #
coedge $-1 $109 $183 $174 $185 0 $139 $-1 #
loop $-1 $-1 $183 $170 #
vertex $-1 $134 $186 #
vertex $-1 $110 $187 #
straight-curve $-1 -7.071067811865608732 0 27.07106781186548972 0 1 0 F -61 F 61 #
face $-1 $-1 $188 $2 $-1 $189 reversed single #
loop $-1 $-1 $149 $111 #
plane-surface $-1 40 0 -10 0 0 1 1 0 0 0 I I I I #
coedge $-1 $190 $191 $192 $193 0 $112 $-1 #
coedge $-1 $172 $114 $179 $194 1 $89 $-1 #
coedge $-1 $114 $172 $175 $195 1 $89 $-1 #
coedge $-1 $196 $197 $114 $150 1 $144 $-1 #
edge $-1 $198 $199 $149 $200 0 #
face $-1 $130 $201 $2 $-1 $202 forward single #
loop $-1 $-1 $203 $115 #
cone-surface $-1 -40 0 20 0 -1 0 -7.071067811865474617 0 7.071067811865474617 1 I I 0 1 0 I I I I #
coedge $-1 $192 $117 $204 $205 0 $92 $-1 #
coedge $-1 $117 $192 $206 $207 0 $92 $-1 #
coedge $-1 $119 $118 $208 $209 0 $73 $-1 #
coedge $-1 $206 $210 $118 $158 1 $176 $-1 #
edge $-1 $162 $211 $157 $212 0 #
coedge $-1 $213 $204 $119 $160 1 $167 $-1 #
edge $-1 $214 $161 $159 $215 0 #
vertex $-1 $160 $216 #
vertex $-1 $207 $217 #
straight-curve $-1 -40 0 -30 -0 -1 -0 F -61 F 61 #
loop $-1 $176 $121 $130 #
vertex $-1 $122 $218 #
ellipse-curve $-1 -40 -30.00000000000007105 19.99999999999989697 0 1 -0 3 0 0 1 I I #
loop $-1 $-1 $159 $91 #
point $-1 -43 29.99999999999992895 20.00000000000012434 #
point $-1 -43 -29.99999999999992895 -20.00000000000012434 #
face $-1 $54 $139 $2 $-1 $219 forward single #
plane-surface $-1 0 -30 0 0 1 -0 -0 0 1 0 I I I I #
coedge $-1 $148 $147 $132 $173 0 $89 $-1 #
edge $-1 $181 $177 $132 $220 0 #
coedge $-1 $221 $133 $138 $185 1 $176 $-1 #
coedge $-1 $133 $222 $148 $195 0 $176 $-1 #
loop $-1 $-1 $157 $130 #
vertex $-1 $134 $223 #
straight-curve $-1 9.393398282201744109 -30 10.60660171779819194 -0.707106781186548794 0 0.7071067811865463515 I I #
coedge $-1 $224 $135 $147 $194 0 $167 $-1 #
coedge $-1 $135 $225 $137 $184 1 $167 $-1 #
vertex $-1 $136 $226 #
straight-curve $-1 9.393398282201744109 30 10.60660171779819194 0.707106781186548794 0 -0.7071067811865463515 I I #
coedge $-1 $138 $137 $227 $228 0 $139 $-1 #
edge $-1 $141 $229 $180 $230 0 #
edge $-1 $231 $140 $174 $232 0 #
point $-1 -7.071067811865614061 -30 27.07106781186549327 #
point $-1 -7.071067811865614061 30 27.07106781186549327 #
loop $-1 $-1 $208 $143 #
plane-surface $-1 -50 0 0 1 0 0 0 0 -1 0 I I I I #
coedge $-1 $233 $146 $234 $235 0 $112 $-1 #
coedge $-1 $146 $233 $236 $237 0 $112 $-1 #
coedge $-1 $155 $154 $146 $193 1 $92 $-1 #
edge $-1 $238 $239 $192 $240 0 #
edge $-1 $181 $199 $179 $241 0 #
edge $-1 $198 $177 $175 $242 0 #
coedge $-1 $243 $149 $222 $244 1 $144 $-1 #
coedge $-1 $149 $243 $224 $245 1 $144 $-1 #
vertex $-1 $244 $246 #
vertex $-1 $245 $247 #
straight-curve $-1 34.14213562373094391 0 -10 -0 1 -0 F -61 F 61 #
loop $-1 $-1 $248 $151 #
plane-surface $-1 0 0 30 0 0 1 1 0 0 0 I I I I #
coedge $-1 $249 $250 $248 $251 0 $152 $-1 #
coedge $-1 $159 $234 $154 $205 1 $167 $-1 #
edge $-1 $161 $239 $204 $252 0 #
coedge $-1 $236 $157 $155 $207 1 $176 $-1 #
edge $-1 $238 $162 $206 $253 0 #
coedge $-1 $254 $255 $156 $209 1 $188 $-1 #
edge $-1 $211 $214 $208 $256 0 #
coedge $-1 $157 $257 $254 $258 0 $176 $-1 #
vertex $-1 $258 $259 #
ellipse-curve $-1 -40 -30 -20 0 1 -0 -7.071067811865474617 0 -7.071067811865474617 1 I I #
coedge $-1 $260 $159 $255 $261 1 $167 $-1 #
vertex $-1 $261 $262 #
ellipse-curve $-1 -40 30 -20 0 -1 0 -7.071067811865474617 0 -7.071067811865474617 1 I I #
point $-1 -40 30 -30 #
point $-1 -40 -30 -30 #
point $-1 -43 -30.00000000000007105 19.99999999999987566 #
cone-surface $-1 -14.1421356237310718 0 20 0 1 0 3.826834323650888159 0 9.238795325112871382 1 I I 0 1 0 I I I I #
straight-curve $-1 27.07106781186548261 0 -7.07106781186548794 0 -1 0 F -61 F 61 #
coedge $-1 $257 $174 $263 $264 1 $176 $-1 #
coedge $-1 $175 $236 $196 $244 0 $176 $-1 #
point $-1 27.07106781186548972 -30 -7.071067811865493269 #
coedge $-1 $234 $179 $197 $245 0 $167 $-1 #
coedge $-1 $180 $260 $265 $266 1 $167 $-1 #
point $-1 27.07106781186548972 30 -7.071067811865493269 #
coedge $-1 $265 $263 $183 $228 1 $201 $-1 #
edge $-1 $229 $231 $227 $267 0 #
vertex $-1 $184 $268 #
ellipse-curve $-1 -14.1421356237310718 30 20 0 -1 0 3.826834323650888159 0 9.238795325112871382 1 I I #
vertex $-1 $264 $269 #
ellipse-curve $-1 -14.1421356237310718 -30 20 0 1 -0 3.826834323650888159 0 9.238795325112871382 1 I I #
coedge $-1 $191 $190 $243 $270 0 $112 $-1 #
coedge $-1 $204 $224 $190 $235 1 $167 $-1 #
edge $-1 $239 $271 $234 $272 0 #
coedge $-1 $222 $206 $191 $237 1 $176 $-1 #
edge $-1 $273 $238 $236 $274 0 #
vertex $-1 $193 $275 #
vertex $-1 $205 $276 #
straight-curve $-1 40 0 -30 -0 1 -0 F -61 F 61 #
ellipse-curve $-1 34.14213562373094391 30 0 0 -1 0 -3.826834323650888159 0 -9.238795325112871382 1 I I #
ellipse-curve $-1 34.14213562373094391 -30 0 0 1 -0 -3.826834323650888159 0 -9.238795325112871382 1 I I #
coedge $-1 $197 $196 $233 $270 1 $144 $-1 #
edge $-1 $273 $198 $222 $277 0 #
edge $-1 $199 $271 $224 $278 0 #
point $-1 34.14213562373094391 -30 -10 #
point $-1 34.14213562373094391 30 -10 #
coedge $-1 $263 $265 $203 $251 1 $201 $-1 #
coedge $-1 $279 $203 $260 $280 0 $152 $-1 #
coedge $-1 $203 $279 $257 $281 0 $152 $-1 #
edge $-1 $282 $283 $248 $284 0 #
straight-curve $-1 0 30 -30 1 0 0 I I #
straight-curve $-1 0 -30 -30 -1 0 0 I I #
coedge $-1 $285 $208 $210 $258 1 $188 $-1 #
coedge $-1 $208 $285 $213 $261 0 $188 $-1 #
straight-curve $-1 -50 0 -20 0 1 0 F -61 F 61 #
coedge $-1 $210 $221 $250 $281 1 $176 $-1 #
edge $-1 $286 $211 $254 $287 0 #
point $-1 -50 -30 -20 #
coedge $-1 $225 $213 $249 $280 1 $167 $-1 #
edge $-1 $288 $214 $213 $289 0 #
point $-1 -50 30 -20 #
coedge $-1 $227 $248 $221 $264 0 $201 $-1 #
edge $-1 $282 $231 $221 $290 0 #
coedge $-1 $248 $227 $225 $266 0 $201 $-1 #
edge $-1 $229 $283 $225 $291 0 #
straight-curve $-1 -14.1421356237310718 0 30 -0 -1 -0 F -61 F 61 #
point $-1 -14.1421356237310718 30 30 #
point $-1 -14.1421356237310718 -30 30 #
edge $-1 $271 $273 $243 $292 0 #
vertex $-1 $245 $293 #
ellipse-curve $-1 40 30 -20 0 -1 0 7.071067811865474617 0 7.071067811865474617 1 I I #
vertex $-1 $237 $294 #
ellipse-curve $-1 40 -30 -20 0 1 -0 7.071067811865474617 0 7.071067811865474617 1 I I #
point $-1 40 -30 -30 #
point $-1 40 30 -30 #
straight-curve $-1 20 -30 -10 -1 0 0 I I #
straight-curve $-1 20 30 -10 1 0 -0 I I #
coedge $-1 $250 $249 $285 $295 0 $152 $-1 #
edge $-1 $283 $288 $260 $296 0 #
edge $-1 $286 $282 $257 $297 0 #
vertex $-1 $281 $298 #
vertex $-1 $266 $299 #
straight-curve $-1 -40 0 30 -0 1 -0 F -61 F 61 #
coedge $-1 $255 $254 $279 $295 1 $188 $-1 #
vertex $-1 $281 $300 #
straight-curve $-1 -50 -30 0 0 0 -1 I I #
vertex $-1 $295 $301 #
straight-curve $-1 -50 30 0 0 0 -1 I I #
straight-curve $-1 0 -30 30 1 0 0 I I #
straight-curve $-1 0 30 30 -1 0 0 I I #
straight-curve $-1 40 0 -10 0 -1 0 F -61 F 61 #
point $-1 40 30 -10 #
point $-1 40 -30 -10 #
edge $-1 $288 $286 $285 $302 0 #
ellipse-curve $-1 -40 30 20 0 -1 0 -7.071067811865474617 0 7.071067811865474617 1 I I #
ellipse-curve $-1 -40 -30 20 0 1 -0 -7.071067811865474617 0 7.071067811865474617 1 I I #
point $-1 -40 -30 30 #
point $-1 -40 30 30 #
point $-1 -50 -30 20 #
point $-1 -50 30 20 #
straight-curve $-1 -50 0 20 0 -1 0 F -61 F 61 #
End-of-ACIS-data 