600 0 2 0           
24 FBMach with ACIS - 6.0.3 13 ACIS 6.0.3 NT 24 Tue May 22 12:25:14 2001 
1 9.9999999999999995e-007 1e-010 
body $2 $3 $-1 $4 #
bdycol-kcp $-1 1 5 $5 $6 $7 $8 $9 #
model_id-kcp-attrib $-1 $-1 $-1 $0 1 990548714 80 1330642945 1 #
lump $-1 $-1 $10 $0 #
transform $-1 1 0 0 0 1 0 0 0 1 0 0 15 1 rotate no_reflect no_shear #
body $11 $12 $-1 $13 #
body $14 $15 $-1 $16 #
body $17 $18 $-1 $19 #
body $20 $21 $-1 $22 #
body $23 $24 $-1 $25 #
shell $-1 $-1 $-1 $26 $-1 $3 #
model_id-kcp-attrib $-1 $-1 $-1 $5 1 990548714 80 1330642946 1 #
lump $-1 $-1 $27 $5 #
transform $-1 1 0 0 0 1 0 0 0 1 0 0 15 1 no_rotate no_reflect no_shear #
rgb_color-st-attrib $-1 $28 $-1 $6 1 0.5 1 #
lump $-1 $-1 $29 $6 #
transform $-1 1 0 0 0 1 0 0 0 1 0 0 15 1 no_rotate no_reflect no_shear #
rgb_color-st-attrib $-1 $30 $-1 $7 1 0.5 1 #
lump $-1 $-1 $31 $7 #
transform $-1 1 0 0 0 1 0 0 0 1 0 0 15 1 no_rotate no_reflect no_shear #
rgb_color-st-attrib $-1 $32 $-1 $8 1 0.5 1 #
lump $-1 $-1 $33 $8 #
transform $-1 1 0 0 0 1 0 0 0 1 0 0 15 1 no_rotate no_reflect no_shear #
rgb_color-st-attrib $-1 $34 $-1 $9 1 0.5 1 #
lump $-1 $-1 $35 $9 #
transform $-1 1 0 0 0 1 0 0 0 1 0 0 15 1 no_rotate no_reflect no_shear #
face $36 $37 $38 $10 $-1 $39 reversed single #
shell $-1 $-1 $-1 $40 $-1 $12 #
model_id-kcp-attrib $-1 $-1 $14 $6 1 990548714 320 1329594371 1 #
shell $-1 $-1 $-1 $41 $-1 $15 #
model_id-kcp-attrib $-1 $-1 $17 $7 1 990548714 410 1335492612 1 #
shell $-1 $-1 $-1 $42 $-1 $18 #
model_id-kcp-attrib $-1 $-1 $20 $8 1 990548714 500 1341390853 1 #
shell $-1 $-1 $-1 $43 $-1 $21 #
model_id-kcp-attrib $-1 $-1 $23 $9 1 990548714 590 1330511878 1 #
shell $-1 $-1 $-1 $44 $-1 $24 #
model_id-kcp-attrib $-1 $-1 $-1 $26 1 990548714 80 1330642945 2 #
face $45 $46 $47 $10 $-1 $48 forward single #
loop $-1 $-1 $49 $26 #
plane-surface $-1 -8.7287033471078296e-014 25 0 3.4914813388431298e-015 -1 0 0 0 1 forward_v I I I I #
face $50 $51 $52 $27 $-1 $53 forward single #
face $-1 $54 $55 $29 $-1 $56 forward single #
face $-1 $57 $58 $31 $-1 $59 forward single #
face $-1 $60 $61 $33 $-1 $62 forward single #
face $-1 $63 $64 $35 $-1 $65 forward single #
model_id-kcp-attrib $-1 $-1 $-1 $37 1 990548714 80 1330642945 3 #
face $66 $67 $68 $10 $-1 $48 forward single #
loop $-1 $-1 $69 $37 #
plane-surface $-1 -49.999999999999901 -25.000000000000199 10 3.4914813388431298e-015 -1 0 0 0 1 forward_v I I I I #
coedge $-1 $70 $71 $72 $73 reversed $38 $-1 #
model_id-kcp-attrib $-1 $-1 $-1 $40 1 990548714 80 1330642946 3 #
face $74 $75 $76 $27 $-1 $77 reversed single #
loop $-1 $-1 $78 $40 #
plane-surface $-1 0 0 10 0 0 1 1 0 0 forward_v I I I I #
face $-1 $79 $80 $29 $-1 $81 forward single #
loop $-1 $-1 $82 $41 #
plane-surface $-1 25 25.000000000000099 10 0 0 1 1 0 0 forward_v I I I I #
face $-1 $83 $84 $31 $-1 $85 forward single #
loop $-1 $-1 $86 $42 #
plane-surface $-1 25 -24.999999999999901 -10 0 0 -1 -1 0 0 forward_v I I I I #
face $-1 $87 $88 $33 $-1 $89 forward single #
loop $-1 $-1 $90 $43 #
plane-surface $-1 -25 24.999999999999901 -10 0 0 -1 -1 0 0 forward_v I I I I #
face $-1 $91 $92 $35 $-1 $93 forward single #
loop $-1 $-1 $94 $44 #
plane-surface $-1 -25 -25.000000000000099 10 0 0 1 1 0 0 forward_v I I I I #
model_id-kcp-attrib $-1 $-1 $-1 $46 1 990548714 80 1330642945 4 #
face $95 $96 $97 $10 $-1 $98 forward single #
loop $-1 $-1 $99 $46 #
coedge $-1 $100 $101 $102 $103 reversed $47 $-1 #
coedge $-1 $104 $49 $105 $106 reversed $38 $-1 #
coedge $-1 $49 $104 $107 $108 reversed $38 $-1 #
coedge $-1 $109 $110 $49 $73 forward $111 $-1 #
edge $-1 $112 -15 $113 5 $72 $114 forward 7 unknown #
model_id-kcp-attrib $-1 $-1 $-1 $51 1 990548714 80 1330642946 2 #
face $-1 $115 $116 $27 $-1 $117 reversed single #
loop $-1 $-1 $118 $51 #
plane-surface $-1 0 0 -10 0 0 1 1 0 0 forward_v I I I I #
coedge $-1 $119 $120 $121 $122 forward $52 $-1 #
face $-1 $123 $124 $29 $-1 $125 forward single #
loop $-1 $-1 $126 $54 #
plane-surface $-1 25 75.000000000000014 10 0 1 0 0 0 1 forward_v I I I I #
coedge $-1 $127 $128 $129 $130 forward $55 $-1 #
face $-1 $131 $132 $31 $-1 $133 forward single #
loop $-1 $-1 $134 $57 #
plane-surface $-1 25 -75.000000000000014 -10 0 -1 0 0 0 -1 forward_v I I I I #
coedge $-1 $135 $136 $137 $138 forward $58 $-1 #
face $-1 $139 $140 $33 $-1 $141 forward single #
loop $-1 $-1 $142 $60 #
plane-surface $-1 -25 75.000000000000014 -10 0 1 0 0 0 1 forward_v I I I I #
coedge $-1 $143 $144 $145 $146 forward $61 $-1 #
face $-1 $147 $148 $35 $-1 $149 forward single #
loop $-1 $-1 $150 $63 #
plane-surface $-1 -25 -75.000000000000014 10 0 -1 0 0 0 -1 forward_v I I I I #
coedge $-1 $151 $152 $153 $154 forward $64 $-1 #
model_id-kcp-attrib $-1 $-1 $-1 $67 1 990548714 80 1330642945 5 #
face $155 $156 $157 $10 $-1 $39 reversed single #
loop $-1 $-1 $158 $67 #
cone-surface $-1 -50 -1.74574066942157e-013 0 0 0 1 -17.677669529663699 17.6776695296636 0 1 I I 0 1 24.999999999999947 forward I I I I #
coedge $-1 $159 $160 $161 $162 reversed $68 $-1 #
coedge $-1 $163 $69 $164 $165 reversed $47 $-1 #
coedge $-1 $69 $163 $166 $167 reversed $47 $-1 #
coedge $-1 $168 $169 $69 $103 forward $170 $-1 #
edge $-1 $171 0 $172 20 $102 $173 forward 7 unknown #
coedge $-1 $71 $70 $158 $174 reversed $38 $-1 #
coedge $-1 $175 $176 $70 $106 forward $177 $-1 #
edge $178 $179 -50.000000000000014 $112 -24.999999999999911 $70 $180 forward 7 unknown #
coedge $-1 $181 $182 $71 $108 forward $183 $-1 #
edge $-1 $113 24.999999999999911 $184 50.000000000000014 $71 $185 forward 7 unknown #
coedge $-1 $186 $72 $182 $187 reversed $111 $-1 #
coedge $-1 $72 $186 $175 $188 reversed $111 $-1 #
loop $-1 $-1 $72 $189 #
vertex $-1 $188 $190 #
vertex $-1 $187 $191 #
straight-curve $-1 -25 24.999999999999901 5 0 0 1 I I #
face $-1 $192 $193 $27 $-1 $194 reversed single #
loop $-1 $-1 $195 $75 #
plane-surface $-1 0 -75.000000000000014 0 0 1 0 0 0 1 forward_v I I I I #
coedge $-1 $196 $197 $198 $199 forward $76 $-1 #
coedge $-1 $200 $78 $201 $202 forward $52 $-1 #
coedge $-1 $78 $200 $203 $204 forward $52 $-1 #
coedge $-1 $205 $206 $78 $122 reversed $207 $-1 #
edge $-1 $208 -75.000000000000014 $209 75.000000000000014 $121 $210 forward 7 unknown #
face $-1 $211 $212 $29 $-1 $213 forward single #
loop $-1 $-1 $214 $79 #
plane-surface $-1 25 75.000000000000014 -10 0 0 -1 -1 0 0 forward_v I I I I #
coedge $-1 $215 $216 $217 $218 forward $80 $-1 #
coedge $-1 $219 $82 $216 $220 reversed $55 $-1 #
coedge $-1 $82 $219 $221 $222 forward $55 $-1 #
coedge $-1 $223 $217 $82 $130 reversed $224 $-1 #
edge $-1 $225 6.2500000000000746 $226 56.249999999999986 $82 $227 forward 7 unknown #
face $-1 $228 $229 $31 $-1 $230 forward single #
loop $-1 $-1 $231 $83 #
plane-surface $-1 25 -75.000000000000014 10 0 0 1 1 0 0 forward_v I I I I #
coedge $-1 $232 $233 $234 $235 forward $84 $-1 #
coedge $-1 $236 $86 $233 $237 reversed $58 $-1 #
coedge $-1 $86 $236 $238 $239 forward $58 $-1 #
coedge $-1 $240 $234 $86 $138 reversed $241 $-1 #
edge $-1 $242 6.2499999999999254 $243 56.250000000000043 $86 $244 forward 7 unknown #
face $-1 $245 $246 $33 $-1 $247 forward single #
loop $-1 $-1 $248 $87 #
plane-surface $-1 -25 75.000000000000014 10 0 0 1 1 0 0 forward_v I I I I #
coedge $-1 $249 $250 $251 $252 forward $88 $-1 #
coedge $-1 $253 $90 $250 $254 reversed $61 $-1 #
coedge $-1 $90 $253 $255 $256 forward $61 $-1 #
coedge $-1 $257 $251 $90 $146 reversed $258 $-1 #
edge $-1 $259 6.2499999999999254 $260 56.250000000000043 $90 $261 forward 7 unknown #
face $-1 $262 $263 $35 $-1 $264 forward single #
loop $-1 $-1 $265 $91 #
plane-surface $-1 -25 -75.000000000000014 -10 0 0 -1 -1 0 0 forward_v I I I I #
coedge $-1 $266 $267 $268 $269 forward $92 $-1 #
coedge $-1 $270 $94 $267 $271 reversed $64 $-1 #
coedge $-1 $94 $270 $272 $273 forward $64 $-1 #
coedge $-1 $274 $268 $94 $154 reversed $275 $-1 #
edge $-1 $276 6.2500000000000746 $277 56.249999999999986 $94 $278 forward 7 unknown #
model_id-kcp-attrib $-1 $-1 $-1 $96 1 990548714 80 1330642945 6 #
face $279 $280 $281 $10 $-1 $282 forward single #
loop $-1 $-1 $283 $96 #
coedge $-1 $284 $285 $104 $174 forward $97 $-1 #
coedge $-1 $286 $99 $287 $288 reversed $68 $-1 #
coedge $-1 $99 $286 $289 $290 reversed $68 $-1 #
coedge $-1 $291 $292 $99 $162 forward $293 $-1 #
edge $-1 $294 -15 $295 5 $161 $296 forward 7 unknown #
coedge $-1 $101 $100 $297 $298 reversed $47 $-1 #
coedge $-1 $299 $181 $100 $165 forward $183 $-1 #
edge $-1 $300 -49.999999999999986 $171 -25.000000000000089 $100 $301 forward 7 unknown #
coedge $-1 $176 $302 $101 $167 forward $177 $-1 #
edge $303 $172 -24.999999999999901 $304 0 $166 $305 forward 7 unknown #
coedge $-1 $306 $102 $302 $307 reversed $170 $-1 #
coedge $-1 $102 $306 $299 $308 reversed $170 $-1 #
loop $-1 $-1 $102 $309 #
vertex $-1 $308 $310 #
vertex $-1 $307 $311 #
straight-curve $-1 -25 -25.000000000000099 10 0 0 -1 I I #
edge $-1 $184 -10 $179 10 $104 $312 forward 7 unknown #
coedge $-1 $313 $105 $110 $188 forward $177 $-1 #
coedge $-1 $105 $166 $284 $314 reversed $177 $-1 #
loop $-1 $-1 $315 $316 #
attrib_edge_convexity-kcp-attrib $-1 $317 $-1 $106 1 #
vertex $-1 $174 $318 #
straight-curve $-1 -8.7287033471078296e-014 25 -10 1 3.4914813388431298e-015 0 I I #
coedge $-1 $164 $107 $285 $319 reversed $183 $-1 #
coedge $-1 $107 $320 $109 $187 forward $183 $-1 #
loop $-1 $-1 $321 $322 #
vertex $-1 $108 $323 #
straight-curve $-1 -8.7287033471078296e-014 25 10 -1 -3.4914813388431298e-015 0 I I #
coedge $-1 $110 $109 $324 $325 reversed $111 $-1 #
edge $-1 $326 -50 $113 -24.999999999999901 $109 $327 forward 7 unknown #
edge $328 $112 -25.000000000000099 $329 0 $175 $330 forward 7 unknown #
face $331 $-1 $111 $10 $-1 $332 forward single #
point $-1 -25 24.999999999999901 -10 #
point $-1 -25 24.999999999999901 10 #
face $-1 $333 $334 $27 $-1 $335 reversed single #
loop $-1 $-1 $336 $115 #
plane-surface $-1 -74.999999999999943 0 0 1 0 0 0 0 -1 forward_v I I I I #
coedge $-1 $337 $203 $338 $339 forward $116 $-1 #
coedge $-1 $340 $118 $337 $341 forward $76 $-1 #
coedge $-1 $118 $340 $342 $343 forward $76 $-1 #
coedge $-1 $206 $205 $118 $199 reversed $207 $-1 #
edge $-1 $344 -75.000000000000014 $345 75.000000000000014 $198 $346 forward 7 unknown #
coedge $-1 $120 $119 $347 $348 forward $52 $-1 #
coedge $-1 $349 $350 $119 $202 reversed $334 $-1 #
edge $-1 $209 -74.999999999999943 $351 74.999999999999943 $201 $352 forward 7 unknown #
coedge $-1 $195 $353 $120 $204 reversed $116 $-1 #
edge $-1 $354 -74.999999999999943 $208 74.999999999999943 $203 $355 forward 7 unknown #
coedge $-1 $198 $121 $353 $356 forward $207 $-1 #
coedge $-1 $121 $198 $349 $357 reversed $207 $-1 #
loop $-1 $-1 $205 $333 #
vertex $-1 $122 $358 #
vertex $-1 $122 $359 #
straight-curve $-1 74.999999999999943 0 10 0 1 0 I I #
face $-1 $360 $224 $29 $-1 $361 forward single #
loop $-1 $-1 $362 $123 #
plane-surface $-1 25 25.000000000000099 -10 0 -1 0 0 0 -1 forward_v I I I I #
coedge $-1 $363 $364 $365 $366 forward $124 $-1 #
coedge $-1 $367 $126 $364 $368 reversed $80 $-1 #
coedge $-1 $126 $367 $127 $220 forward $80 $-1 #
coedge $-1 $129 $365 $126 $218 reversed $224 $-1 #
edge $-1 $226 -10 $369 10 $126 $370 forward 7 unknown #
coedge $-1 $128 $127 $371 $372 reversed $55 $-1 #
edge $-1 $373 0 $226 24.999999999999901 $216 $374 forward 7 unknown #
coedge $-1 $375 $362 $128 $222 reversed $212 $-1 #
edge $-1 $376 0 $225 24.999999999999901 $128 $377 forward 7 unknown #
coedge $-1 $365 $129 $362 $378 reversed $224 $-1 #
loop $-1 $-1 $129 $211 #
vertex $-1 $222 $379 #
vertex $-1 $220 $380 #
straight-curve $-1 49.999999999999901 18.750000000000025 10 0 1 0 I I #
face $-1 $381 $241 $31 $-1 $382 forward single #
loop $-1 $-1 $383 $131 #
plane-surface $-1 25 -24.999999999999901 10 0 1 0 0 0 1 forward_v I I I I #
coedge $-1 $384 $385 $386 $387 forward $132 $-1 #
coedge $-1 $388 $134 $385 $389 reversed $84 $-1 #
coedge $-1 $134 $388 $135 $237 forward $84 $-1 #
coedge $-1 $137 $386 $134 $235 reversed $241 $-1 #
edge $-1 $243 -10 $390 10 $134 $391 forward 7 unknown #
coedge $-1 $136 $135 $392 $393 reversed $58 $-1 #
edge $-1 $394 0 $243 25.000000000000099 $233 $395 forward 7 unknown #
coedge $-1 $396 $383 $136 $239 reversed $229 $-1 #
edge $-1 $397 0 $242 25.000000000000099 $136 $398 forward 7 unknown #
coedge $-1 $386 $137 $383 $399 reversed $241 $-1 #
loop $-1 $-1 $137 $228 #
vertex $-1 $239 $400 #
vertex $-1 $237 $401 #
straight-curve $-1 50.000000000000099 -18.749999999999975 -10 0 -1 0 I I #
face $-1 $402 $258 $33 $-1 $403 reversed single #
loop $-1 $-1 $404 $139 #
plane-surface $-1 -25 24.999999999999901 10 0 -1 0 0 0 -1 forward_v I I I I #
coedge $-1 $405 $406 $407 $408 forward $140 $-1 #
coedge $-1 $409 $142 $406 $410 reversed $88 $-1 #
coedge $-1 $142 $409 $143 $254 forward $88 $-1 #
coedge $-1 $145 $407 $142 $252 reversed $258 $-1 #
edge $-1 $260 -10 $411 10 $142 $412 forward 7 unknown #
coedge $-1 $144 $143 $413 $414 reversed $61 $-1 #
edge $-1 $415 0 $260 25.000000000000099 $250 $416 forward 7 unknown #
coedge $-1 $417 $404 $144 $256 reversed $246 $-1 #
edge $-1 $418 0 $259 25.000000000000099 $144 $419 forward 7 unknown #
coedge $-1 $407 $145 $404 $420 reversed $258 $-1 #
loop $-1 $-1 $145 $245 #
vertex $-1 $256 $421 #
vertex $-1 $254 $422 #
straight-curve $-1 -50.000000000000099 18.749999999999975 -10 0 1 0 I I #
face $-1 $423 $275 $35 $-1 $424 reversed single #
loop $-1 $-1 $425 $147 #
plane-surface $-1 -25 -25.000000000000099 -10 0 1 0 0 0 1 forward_v I I I I #
coedge $-1 $426 $427 $428 $429 forward $148 $-1 #
coedge $-1 $430 $150 $427 $431 reversed $92 $-1 #
coedge $-1 $150 $430 $151 $271 forward $92 $-1 #
coedge $-1 $153 $428 $150 $269 reversed $275 $-1 #
edge $-1 $277 -10 $432 10 $150 $433 forward 7 unknown #
coedge $-1 $152 $151 $434 $435 reversed $64 $-1 #
edge $-1 $436 0 $277 24.999999999999901 $267 $437 forward 7 unknown #
coedge $-1 $438 $425 $152 $273 reversed $263 $-1 #
edge $-1 $439 0 $276 24.999999999999901 $152 $440 forward 7 unknown #
coedge $-1 $428 $153 $425 $441 reversed $275 $-1 #
loop $-1 $-1 $153 $262 #
vertex $-1 $273 $442 #
vertex $-1 $271 $443 #
straight-curve $-1 -49.999999999999901 -18.750000000000025 10 0 -1 0 I I #
model_id-kcp-attrib $-1 $-1 $-1 $156 1 990548714 80 1330642945 7 #
face $444 $445 $293 $10 $-1 $446 reversed single #
loop $-1 $-1 $447 $156 #
cone-surface $-1 50 1.74574066942157e-013 0 0 0 -1 17.6776695296636 17.677669529663699 0 1 I I 0 1 24.999999999999947 forward I I I I #
coedge $-1 $448 $449 $450 $451 reversed $157 $-1 #
coedge $-1 $297 $158 $176 $314 forward $97 $-1 #
coedge $-1 $158 $297 $181 $319 forward $97 $-1 #
coedge $-1 $160 $159 $452 $453 reversed $68 $-1 #
coedge $-1 $315 $454 $159 $288 forward $177 $-1 #
edge $455 $456 -100 $294 -74.999999999999901 $287 $305 forward 7 unknown #
coedge $-1 $457 $458 $160 $290 forward $183 $-1 #
edge $-1 $295 24.999999999999911 $459 50.000000000000014 $160 $301 forward 7 unknown #
coedge $-1 $460 $161 $458 $461 reversed $293 $-1 #
coedge $-1 $161 $460 $315 $462 reversed $293 $-1 #
loop $-1 $-1 $161 $280 #
vertex $-1 $462 $463 #
vertex $-1 $461 $464 #
straight-curve $-1 25 -24.999999999999901 5 0 0 1 I I #
coedge $-1 $285 $284 $163 $298 forward $97 $-1 #
edge $-1 $304 -10 $300 10 $163 $465 forward 7 unknown #
coedge $-1 $466 $164 $169 $308 forward $183 $-1 #
vertex $-1 $319 $467 #
straight-curve $-1 8.7287033471078296e-014 -25 10 1 3.4914813388431298e-015 0 I I #
coedge $-1 $166 $468 $168 $307 forward $177 $-1 #
attrib_edge_convexity-kcp-attrib $-1 $469 $-1 $167 1 #
vertex $-1 $167 $470 #
straight-curve $-1 -49.999999999999901 -25.000000000000199 -10 -1 -3.4914813388431298e-015 0 I I #
coedge $-1 $169 $168 $471 $472 reversed $170 $-1 #
edge $473 $474 -100 $172 -75.000000000000099 $302 $330 forward 7 unknown #
edge $-1 $171 25.000000000000099 $475 50 $169 $327 forward 7 unknown #
face $476 $316 $170 $10 $-1 $332 forward single #
point $-1 -25 -25.000000000000099 10 #
point $-1 -25 -25.000000000000099 -10 #
straight-curve $-1 -50.000000000000099 24.999999999999801 0 0 0 -1 I I #
coedge $-1 $477 $175 $478 $479 reversed $177 $-1 #
edge $480 $179 -2.3561944901923435 $304 0.7853981633974495 $176 $481 forward 7 unknown #
coedge $-1 $468 $287 $292 $462 forward $177 $-1 #
face $482 $483 $177 $10 $-1 $484 forward single #
convexity-sys-attrib $-1 $-1 $178 $106 #
point $-1 -50.000000000000099 24.999999999999801 -10 #
edge $-1 $300 -2.3561944901923462 $184 0.78539816339744706 $181 $485 forward 7 unknown #
coedge $-1 $182 $321 $486 $487 reversed $183 $-1 #
coedge $-1 $320 $488 $489 $490 forward $183 $-1 #
face $491 $189 $183 $10 $-1 $492 forward single #
point $-1 -50.000000000000099 24.999999999999801 10 #
coedge $-1 $486 $478 $186 $325 forward $493 $-1 #
edge $-1 $329 -10 $326 10 $186 $494 forward 7 unknown #
vertex $-1 $487 $495 #
straight-curve $-1 -25 0 10 0 -1 0 I I #
attrib_edge_convexity-kcp-attrib $-1 $496 $-1 $188 1 #
vertex $-1 $188 $497 #
straight-curve $-1 -25 50 -10 0 1 0 I I #
model_id-kcp-attrib $-1 $-1 $-1 $189 1 990548714 80 1330642945 15 #
plane-surface $-1 -25 50 10 -1 0 0 0 0 1 forward_v I I I I #
face $-1 $-1 $207 $27 $-1 $498 reversed single #
loop $-1 $-1 $349 $192 #
plane-surface $-1 0 75.000000000000014 0 0 -1 0 0 0 -1 forward_v I I I I #
coedge $-1 $499 $347 $350 $500 forward $193 $-1 #
coedge $-1 $353 $195 $196 $341 reversed $116 $-1 #
coedge $-1 $347 $499 $195 $339 reversed $193 $-1 #
edge $-1 $354 -10 $501 10 $338 $502 forward 7 unknown #
coedge $-1 $197 $196 $499 $503 forward $76 $-1 #
edge $-1 $345 -74.999999999999943 $501 74.999999999999943 $337 $504 forward 7 unknown #
coedge $-1 $350 $349 $197 $343 reversed $334 $-1 #
edge $-1 $505 -74.999999999999943 $344 74.999999999999943 $342 $506 forward 7 unknown #
vertex $-1 $199 $507 #
vertex $-1 $356 $508 #
straight-curve $-1 74.999999999999943 0 -10 0 -1 0 I I #
coedge $-1 $336 $338 $200 $348 reversed $193 $-1 #
edge $-1 $351 -75.000000000000014 $354 75.000000000000014 $347 $509 forward 7 unknown #
coedge $-1 $342 $201 $206 $357 forward $334 $-1 #
coedge $-1 $201 $342 $336 $500 reversed $334 $-1 #
vertex $-1 $202 $510 #
straight-curve $-1 0 75.000000000000014 10 -1 0 0 I I #
coedge $-1 $203 $337 $205 $356 reversed $116 $-1 #
vertex $-1 $348 $511 #
straight-curve $-1 0 -75.000000000000014 10 1 0 0 I I #
edge $-1 $208 -10 $345 10 $205 $512 forward 7 unknown #
edge $-1 $209 -10 $344 10 $206 $513 forward 7 unknown #
point $-1 74.999999999999943 -75.000000000000014 10 #
point $-1 74.999999999999943 75.000000000000014 10 #
face $-1 $-1 $514 $29 $-1 $515 reversed single #
plane-surface $-1 49.999999999999901 50.000000000000057 0 1 0 0 0 0 -1 forward_v I I I I #
coedge $-1 $221 $516 $223 $378 forward $212 $-1 #
coedge $-1 $517 $214 $516 $518 reversed $124 $-1 #
coedge $-1 $214 $517 $215 $368 forward $124 $-1 #
coedge $-1 $217 $223 $214 $366 reversed $224 $-1 #
edge $-1 $369 -56.249999999999986 $519 -6.2500000000000746 $214 $520 forward 7 unknown #
coedge $-1 $216 $215 $521 $522 reversed $80 $-1 #
edge $-1 $523 0 $369 24.999999999999901 $364 $524 forward 7 unknown #
vertex $-1 $368 $525 #
straight-curve $-1 49.999999999999901 75.000000000000014 0 0 0 -1 I I #
coedge $-1 $521 $526 $219 $372 forward $514 $-1 #
edge $527 $376 6.2500000000000746 $373 56.249999999999986 $219 $528 forward 7 unknown #
vertex $-1 $372 $529 #
straight-curve $-1 25 75.000000000000014 10 1 0 0 I I #
coedge $-1 $516 $221 $526 $530 reversed $212 $-1 #
vertex $-1 $530 $531 #
straight-curve $-1 25 25.000000000000099 10 1 0 0 I I #
edge $-1 $519 -10 $225 10 $362 $532 forward 7 unknown #
point $-1 49.999999999999901 25.000000000000099 10 #
point $-1 49.999999999999901 75.000000000000014 10 #
face $-1 $-1 $533 $31 $-1 $534 reversed single #
plane-surface $-1 50.000000000000099 -49.999999999999964 0 1 0 0 0 0 -1 forward_v I I I I #
coedge $-1 $238 $535 $240 $399 forward $229 $-1 #
coedge $-1 $536 $231 $535 $537 reversed $132 $-1 #
coedge $-1 $231 $536 $232 $389 forward $132 $-1 #
coedge $-1 $234 $240 $231 $387 reversed $241 $-1 #
edge $-1 $390 -56.250000000000043 $538 -6.2499999999999254 $231 $539 forward 7 unknown #
coedge $-1 $233 $232 $540 $541 reversed $84 $-1 #
edge $-1 $542 0 $390 25.000000000000099 $385 $543 forward 7 unknown #
vertex $-1 $389 $544 #
straight-curve $-1 50.000000000000099 -75.000000000000014 0 0 0 1 I I #
coedge $-1 $540 $545 $236 $393 forward $533 $-1 #
edge $546 $397 6.2499999999999254 $394 56.250000000000043 $236 $547 forward 7 unknown #
vertex $-1 $393 $548 #
straight-curve $-1 25 -75.000000000000014 -10 1 0 0 I I #
coedge $-1 $535 $238 $545 $549 reversed $229 $-1 #
vertex $-1 $549 $550 #
straight-curve $-1 25 -24.999999999999901 -10 1 0 0 I I #
edge $-1 $538 -5 $242 15 $383 $551 forward 7 unknown #
point $-1 50.000000000000099 -24.999999999999901 -10 #
point $-1 50.000000000000099 -75.000000000000014 -10 #
face $-1 $-1 $552 $33 $-1 $553 forward single #
plane-surface $-1 -50.000000000000099 49.999999999999964 0 1 0 0 0 0 -1 forward_v I I I I #
coedge $-1 $255 $554 $257 $420 forward $246 $-1 #
coedge $-1 $555 $248 $554 $556 reversed $140 $-1 #
coedge $-1 $248 $555 $249 $410 forward $140 $-1 #
coedge $-1 $251 $257 $248 $408 reversed $258 $-1 #
edge $-1 $411 -56.250000000000043 $557 -6.2499999999999254 $248 $558 forward 7 unknown #
coedge $-1 $250 $249 $559 $560 reversed $88 $-1 #
edge $-1 $561 0 $411 25.000000000000099 $406 $562 forward 7 unknown #
vertex $-1 $410 $563 #
straight-curve $-1 -50.000000000000099 75.000000000000014 0 0 0 1 I I #
coedge $-1 $559 $564 $253 $414 forward $552 $-1 #
edge $565 $418 6.2499999999999254 $415 56.250000000000043 $253 $566 forward 7 unknown #
vertex $-1 $414 $567 #
straight-curve $-1 -25 75.000000000000014 -10 -1 0 0 I I #
coedge $-1 $554 $255 $564 $568 reversed $246 $-1 #
vertex $-1 $568 $569 #
straight-curve $-1 -25 24.999999999999901 -10 -1 0 0 I I #
edge $-1 $557 -10 $259 10 $404 $570 forward 7 unknown #
point $-1 -50.000000000000099 24.999999999999901 -10 #
point $-1 -50.000000000000099 75.000000000000014 -10 #
face $-1 $-1 $571 $35 $-1 $572 forward single #
plane-surface $-1 -49.999999999999901 -50.000000000000064 0 1 0 0 0 0 -1 forward_v I I I I #
coedge $-1 $272 $573 $274 $441 forward $263 $-1 #
coedge $-1 $574 $265 $573 $575 reversed $148 $-1 #
coedge $-1 $265 $574 $266 $431 forward $148 $-1 #
coedge $-1 $268 $274 $265 $429 reversed $275 $-1 #
edge $-1 $432 -56.249999999999986 $576 -6.2500000000000746 $265 $577 forward 7 unknown #
coedge $-1 $267 $266 $578 $579 reversed $92 $-1 #
edge $-1 $580 0 $432 24.999999999999901 $427 $581 forward 7 unknown #
vertex $-1 $431 $582 #
straight-curve $-1 -49.999999999999901 -75.000000000000014 0 0 0 -1 I I #
coedge $-1 $578 $583 $270 $435 forward $571 $-1 #
edge $584 $439 6.2500000000000746 $436 56.249999999999986 $270 $585 forward 7 unknown #
vertex $-1 $435 $586 #
straight-curve $-1 -25 -75.000000000000014 10 -1 0 0 I I #
coedge $-1 $573 $272 $583 $587 reversed $263 $-1 #
vertex $-1 $587 $588 #
straight-curve $-1 -25 -25.000000000000099 10 -1 0 0 I I #
edge $-1 $576 -15 $276 5 $425 $589 forward 7 unknown #
point $-1 -49.999999999999901 -25.000000000000099 10 #
point $-1 -49.999999999999901 -75.000000000000014 10 #
model_id-kcp-attrib $-1 $-1 $-1 $280 1 990548714 80 1330642945 8 #
face $590 $309 $591 $10 $-1 $446 reversed single #
plane-surface $-1 25 0 0 -1 0 0 0 0 1 forward_v I I I I #
coedge $-1 $592 $593 $594 $595 forward $281 $-1 #
coedge $-1 $594 $283 $488 $596 reversed $157 $-1 #
coedge $-1 $283 $594 $597 $598 reversed $157 $-1 #
coedge $-1 $599 $489 $283 $451 forward $591 $-1 #
edge $-1 $600 -10 $601 10 $450 $602 forward 7 unknown #
coedge $-1 $593 $592 $286 $453 forward $281 $-1 #
edge $-1 $459 -10 $456 10 $286 $603 forward 7 unknown #
coedge $-1 $287 $597 $593 $604 reversed $177 $-1 #
attrib_edge_convexity-kcp-attrib $-1 $605 $-1 $288 1 #
vertex $-1 $604 $606 #
coedge $-1 $488 $289 $592 $607 reversed $183 $-1 #
coedge $-1 $289 $466 $291 $461 forward $183 $-1 #
vertex $-1 $290 $608 #
coedge $-1 $292 $291 $609 $610 reversed $293 $-1 #
edge $-1 $611 -50 $295 -24.999999999999901 $291 $612 forward 7 unknown #
edge $613 $294 24.999999999999901 $614 50 $292 $615 forward 7 unknown #
point $-1 25 -24.999999999999901 -10 #
point $-1 25 -24.999999999999901 10 #
straight-curve $-1 -49.999999999999901 -25.000000000000199 0 0 0 1 I I #
coedge $-1 $458 $299 $616 $617 reversed $183 $-1 #
point $-1 -49.999999999999901 -25.000000000000199 10 #
coedge $-1 $302 $315 $618 $619 reversed $177 $-1 #
convexity-sys-attrib $-1 $-1 $303 $167 #
point $-1 -49.999999999999901 -25.000000000000199 -10 #
coedge $-1 $618 $616 $306 $472 forward $620 $-1 #
edge $-1 $475 -10 $474 10 $306 $621 forward 7 unknown #
attrib_edge_convexity-kcp-attrib $-1 $622 $-1 $307 1 #
vertex $-1 $619 $623 #
vertex $-1 $308 $624 #
model_id-kcp-attrib $-1 $-1 $-1 $309 1 990548714 80 1330642945 10 #
coedge $-1 $597 $313 $599 $625 forward $177 $-1 #
coedge $-1 $324 $626 $313 $479 forward $493 $-1 #
edge $627 $628 -2.3561944901923448 $329 0.78539816339744828 $313 $629 forward 7 unknown #
attrib_edge_convexity-kcp-attrib $-1 $630 $-1 $314 1 #
ellipse-curve $-1 -50 -1.74574066942157e-013 -10 0 0 1 -17.6776695296636 -17.677669529663699 0 1 I I #
model_id-kcp-attrib $-1 $-1 $-1 $316 1 990548714 80 1330642945 11 #
face $631 $632 $493 $10 $-1 $633 forward single #
plane-surface $-1 25 -50 -10 0 0 -1 -1 0 0 forward_v I I I I #
ellipse-curve $-1 -50 -1.74574066942157e-013 10 0 0 -1 -17.677669529663699 17.6776695296636 0 1 I I #
coedge $-1 $626 $324 $320 $487 forward $493 $-1 #
edge $-1 $326 -2.3561944901923448 $634 0.78539816339744828 $320 $635 forward 7 unknown #
coedge $-1 $321 $457 $448 $596 forward $183 $-1 #
coedge $-1 $450 $636 $321 $490 reversed $591 $-1 #
edge $-1 $600 25.000000000000099 $634 50 $489 $612 forward 7 unknown #
model_id-kcp-attrib $-1 $-1 $-1 $322 1 990548714 80 1330642945 14 #
plane-surface $-1 -25 -50 10 0 0 1 1 0 0 forward_v I I I I #
loop $-1 $-1 $626 $483 #
straight-curve $-1 -25 50 0 0 0 1 I I #
point $-1 -25 50 10 #
convexity-sys-attrib $-1 $-1 $328 $188 #
point $-1 -25 50 -10 #
plane-surface $-1 74.999999999999943 0 0 -1 0 0 0 0 1 forward_v I I I I #
coedge $-1 $338 $336 $340 $503 reversed $193 $-1 #
edge $-1 $351 -10 $505 10 $350 $637 forward 7 unknown #
vertex $-1 $503 $638 #
straight-curve $-1 -74.999999999999943 -75.000000000000014 0 0 0 -1 I I #
edge $-1 $501 -75.000000000000014 $505 75.000000000000014 $499 $639 forward 7 unknown #
straight-curve $-1 0 -75.000000000000014 -10 -1 0 0 I I #
vertex $-1 $343 $640 #
straight-curve $-1 0 75.000000000000014 -10 1 0 0 I I #
point $-1 74.999999999999943 75.000000000000014 -10 #
point $-1 74.999999999999943 -75.000000000000014 -10 #
straight-curve $-1 -74.999999999999943 0 10 0 -1 0 I I #
point $-1 -74.999999999999943 75.000000000000014 10 #
point $-1 -74.999999999999943 -75.000000000000014 10 #
straight-curve $-1 74.999999999999943 -75.000000000000014 0 0 0 -1 I I #
straight-curve $-1 74.999999999999943 75.000000000000014 0 0 0 -1 I I #
loop $-1 $-1 $526 $360 #
plane-surface $-1 25 50.000000000000057 0 1 0 0 0 0 -1 forward_v I I I I #
coedge $-1 $362 $375 $363 $518 forward $212 $-1 #
coedge $-1 $364 $363 $641 $642 reversed $124 $-1 #
edge $-1 $643 0 $519 24.999999999999901 $516 $644 forward 7 unknown #
vertex $-1 $518 $645 #
straight-curve $-1 49.999999999999901 18.750000000000025 -10 0 -1 0 I I #
coedge $-1 $641 $371 $367 $522 forward $514 $-1 #
edge $646 $373 -10 $523 10 $367 $647 forward 7 unknown #
vertex $-1 $522 $648 #
straight-curve $-1 25 75.000000000000014 -10 1 0 0 I I #
point $-1 49.999999999999901 75.000000000000014 -10 #
coedge $-1 $371 $641 $375 $530 forward $514 $-1 #
convexity-sys-attrib $-1 $-1 $-1 $372 #
straight-curve $-1 25 18.750000000000025 10 0 1 0 I I #
point $-1 25 75.000000000000014 10 #
edge $649 $643 -10 $376 10 $375 $650 forward 7 unknown #
point $-1 25 25.000000000000099 10 #
straight-curve $-1 49.999999999999901 25.000000000000085 0 0 0 1 I I #
loop $-1 $-1 $545 $381 #
plane-surface $-1 25 -49.999999999999964 0 1 0 0 0 0 -1 forward_v I I I I #
coedge $-1 $383 $396 $384 $537 forward $229 $-1 #
coedge $-1 $385 $384 $651 $652 reversed $132 $-1 #
edge $-1 $653 0 $538 25.000000000000099 $535 $654 forward 7 unknown #
vertex $-1 $537 $655 #
straight-curve $-1 50.000000000000099 -18.749999999999975 10 0 1 0 I I #
coedge $-1 $651 $392 $388 $541 forward $533 $-1 #
edge $656 $394 -10 $542 10 $388 $657 forward 7 unknown #
vertex $-1 $541 $658 #
straight-curve $-1 25 -75.000000000000014 10 1 0 0 I I #
point $-1 50.000000000000099 -75.000000000000014 10 #
coedge $-1 $392 $651 $396 $549 forward $533 $-1 #
convexity-sys-attrib $-1 $-1 $-1 $393 #
straight-curve $-1 25 -18.749999999999975 -10 0 -1 0 I I #
point $-1 25 -75.000000000000014 -10 #
edge $659 $653 -5 $397 15 $396 $660 forward 7 unknown #
point $-1 25 -24.999999999999901 -10 #
straight-curve $-1 50.000000000000099 -24.999999999999936 5 0 0 -1 I I #
loop $-1 $-1 $564 $402 #
plane-surface $-1 -25 49.999999999999964 0 1 0 0 0 0 -1 forward_v I I I I #
coedge $-1 $404 $417 $405 $556 forward $246 $-1 #
coedge $-1 $406 $405 $661 $662 reversed $140 $-1 #
edge $-1 $663 0 $557 25.000000000000099 $554 $664 forward 7 unknown #
vertex $-1 $556 $665 #
straight-curve $-1 -50.000000000000099 18.749999999999975 10 0 -1 0 I I #
coedge $-1 $661 $413 $409 $560 forward $552 $-1 #
edge $666 $415 -10 $561 10 $409 $667 forward 7 unknown #
vertex $-1 $560 $668 #
straight-curve $-1 -25 75.000000000000014 10 -1 0 0 I I #
point $-1 -50.000000000000099 75.000000000000014 10 #
coedge $-1 $413 $661 $417 $568 forward $552 $-1 #
convexity-sys-attrib $-1 $-1 $-1 $414 #
straight-curve $-1 -25 18.749999999999975 -10 0 1 0 I I #
point $-1 -25 75.000000000000014 -10 #
edge $669 $663 -10 $418 10 $417 $670 forward 7 unknown #
point $-1 -25 24.999999999999901 -10 #
straight-curve $-1 -50.000000000000099 24.999999999999915 0 0 0 -1 I I #
loop $-1 $-1 $583 $423 #
plane-surface $-1 -25 -50.000000000000064 0 1 0 0 0 0 -1 forward_v I I I I #
coedge $-1 $425 $438 $426 $575 forward $263 $-1 #
coedge $-1 $427 $426 $671 $672 reversed $148 $-1 #
edge $-1 $673 0 $576 24.999999999999901 $573 $674 forward 7 unknown #
vertex $-1 $575 $675 #
straight-curve $-1 -49.999999999999901 -18.750000000000025 -10 0 1 0 I I #
coedge $-1 $671 $434 $430 $579 forward $571 $-1 #
edge $676 $436 -10 $580 10 $430 $677 forward 7 unknown #
vertex $-1 $579 $678 #
straight-curve $-1 -25 -75.000000000000014 -10 -1 0 0 I I #
point $-1 -49.999999999999901 -75.000000000000014 -10 #
coedge $-1 $434 $671 $438 $587 forward $571 $-1 #
convexity-sys-attrib $-1 $-1 $-1 $435 #
straight-curve $-1 -25 -18.750000000000025 10 0 -1 0 I I #
point $-1 -25 -75.000000000000014 10 #
edge $679 $673 -15 $439 5 $438 $680 forward 7 unknown #
point $-1 -25 -25.000000000000099 10 #
straight-curve $-1 -49.999999999999901 -25.000000000000114 5 0 0 1 I I #
model_id-kcp-attrib $-1 $-1 $-1 $445 1 990548714 80 1330642945 9 #
loop $-1 $-1 $450 $445 #
coedge $-1 $452 $447 $457 $607 forward $281 $-1 #
coedge $-1 $447 $452 $454 $604 forward $281 $-1 #
coedge $-1 $449 $448 $447 $595 reversed $157 $-1 #
edge $-1 $681 -10 $682 10 $594 $683 forward 7 unknown #
edge $-1 $682 -49.999999999999986 $600 -25.000000000000089 $448 $185 forward 7 unknown #
coedge $-1 $454 $477 $449 $598 forward $177 $-1 #
edge $684 $601 25.000000000000089 $681 49.999999999999986 $449 $180 forward 7 unknown #
coedge $-1 $636 $450 $477 $625 reversed $591 $-1 #
vertex $-1 $490 $685 #
vertex $-1 $625 $686 #
straight-curve $-1 25 25.000000000000099 0 0 0 -1 I I #
straight-curve $-1 50.000000000000099 -24.999999999999801 0 0 0 -1 I I #
edge $687 $456 -2.3561944901923435 $681 0.7853981633974495 $454 $688 forward 7 unknown #
convexity-sys-attrib $-1 $-1 $455 $288 #
point $-1 50.000000000000099 -24.999999999999801 -10 #
edge $-1 $682 -2.3561944901923462 $459 0.78539816339744706 $457 $689 forward 7 unknown #
point $-1 50.000000000000099 -24.999999999999801 10 #
coedge $-1 $616 $618 $460 $610 forward $620 $-1 #
edge $-1 $614 -10 $611 10 $460 $690 forward 7 unknown #
vertex $-1 $610 $691 #
straight-curve $-1 25 0 10 0 1 0 I I #
attrib_edge_convexity-kcp-attrib $-1 $692 $-1 $462 1 #
vertex $-1 $462 $693 #
straight-curve $-1 25 0 -10 0 -1 0 I I #
coedge $-1 $471 $609 $466 $617 forward $620 $-1 #
edge $-1 $611 -2.3561944901923448 $475 0.78539816339744828 $466 $694 forward 7 unknown #
coedge $-1 $609 $471 $468 $619 forward $620 $-1 #
edge $695 $474 -2.3561944901923448 $614 0.78539816339744828 $468 $696 forward 7 unknown #
loop $-1 $-1 $609 $632 #
straight-curve $-1 -25 -50 0 0 0 -1 I I #
convexity-sys-attrib $-1 $-1 $473 $307 #
point $-1 -25 -50 -10 #
point $-1 -25 -50 10 #
edge $697 $628 -50 $601 -25.000000000000099 $599 $615 forward 7 unknown #
coedge $-1 $478 $486 $636 $698 forward $493 $-1 #
attrib_edge_convexity-kcp-attrib $-1 $699 $-1 $479 1 #
vertex $-1 $698 $700 #
ellipse-curve $-1 0 50 -10 0 0 1 -17.677669529663699 17.677669529663699 0 1 I I #
convexity-sys-attrib $-1 $-1 $480 $314 #
model_id-kcp-attrib $-1 $-1 $-1 $483 1 990548714 80 1330642945 12 #
face $701 $322 $620 $10 $-1 $702 forward single #
cone-surface $-1 0 50 0 0 0 1 17.677669529663699 17.677669529663699 0 1 I I 0 1 25.000000000000014 forward I I I I #
vertex $-1 $490 $703 #
ellipse-curve $-1 0 50 10 0 0 -1 17.677669529663699 17.677669529663699 0 1 I I #
coedge $-1 $489 $599 $626 $698 reversed $591 $-1 #
straight-curve $-1 -74.999999999999943 75.000000000000014 0 0 0 -1 I I #
point $-1 -74.999999999999943 -75.000000000000014 -10 #
straight-curve $-1 -74.999999999999943 0 -10 0 1 0 I I #
point $-1 -74.999999999999943 75.000000000000014 -10 #
coedge $-1 $526 $521 $517 $642 forward $514 $-1 #
edge $704 $523 -56.249999999999986 $643 -6.2500000000000746 $517 $705 forward 7 unknown #
vertex $-1 $530 $706 #
straight-curve $-1 25 25.000000000000099 -10 1 0 0 I I #
point $-1 49.999999999999901 25.000000000000099 -10 #
convexity-sys-attrib $-1 $-1 $-1 $522 #
straight-curve $-1 25 75.000000000000014 0 0 0 -1 I I #
point $-1 25 75.000000000000014 -10 #
convexity-sys-attrib $-1 $-1 $-1 $530 #
straight-curve $-1 25 25.000000000000085 0 0 0 1 I I #
coedge $-1 $545 $540 $536 $652 forward $533 $-1 #
edge $707 $542 -56.250000000000043 $653 -6.2499999999999254 $536 $708 forward 7 unknown #
vertex $-1 $549 $709 #
straight-curve $-1 25 -24.999999999999901 10 1 0 0 I I #
point $-1 50.000000000000099 -24.999999999999901 10 #
convexity-sys-attrib $-1 $-1 $-1 $541 #
straight-curve $-1 25 -75.000000000000014 0 0 0 1 I I #
point $-1 25 -75.000000000000014 10 #
convexity-sys-attrib $-1 $-1 $-1 $549 #
straight-curve $-1 25 -24.999999999999936 5 0 0 -1 I I #
coedge $-1 $564 $559 $555 $662 forward $552 $-1 #
edge $710 $561 -56.250000000000043 $663 -6.2499999999999254 $555 $711 forward 7 unknown #
vertex $-1 $568 $712 #
straight-curve $-1 -25 24.999999999999901 10 -1 0 0 I I #
point $-1 -50.000000000000099 24.999999999999901 10 #
convexity-sys-attrib $-1 $-1 $-1 $560 #
straight-curve $-1 -25 75.000000000000014 0 0 0 1 I I #
point $-1 -25 75.000000000000014 10 #
convexity-sys-attrib $-1 $-1 $-1 $568 #
straight-curve $-1 -25 24.999999999999915 0 0 0 -1 I I #
coedge $-1 $583 $578 $574 $672 forward $571 $-1 #
edge $713 $580 -56.249999999999986 $673 -6.2500000000000746 $574 $714 forward 7 unknown #
vertex $-1 $587 $715 #
straight-curve $-1 -25 -25.000000000000099 -10 -1 0 0 I I #
point $-1 -49.999999999999901 -25.000000000000099 -10 #
convexity-sys-attrib $-1 $-1 $-1 $579 #
straight-curve $-1 -25 -75.000000000000014 0 0 0 -1 I I #
point $-1 -25 -75.000000000000014 -10 #
convexity-sys-attrib $-1 $-1 $-1 $587 #
straight-curve $-1 -25 -25.000000000000114 5 0 0 1 I I #
vertex $-1 $598 $716 #
vertex $-1 $595 $717 #
straight-curve $-1 49.999999999999901 25.000000000000199 0 0 0 1 I I #
attrib_edge_convexity-kcp-attrib $-1 $718 $-1 $598 1 #
point $-1 25 25.000000000000099 10 #
point $-1 25 25.000000000000099 -10 #
attrib_edge_convexity-kcp-attrib $-1 $719 $-1 $604 1 #
ellipse-curve $-1 50 1.74574066942157e-013 -10 0 0 1 17.6776695296636 17.677669529663699 0 1 I I #
ellipse-curve $-1 50 1.74574066942157e-013 10 0 0 -1 17.677669529663699 -17.6776695296636 0 1 I I #
straight-curve $-1 25 -50 0 0 0 1 I I #
point $-1 25 -50 10 #
convexity-sys-attrib $-1 $-1 $613 $462 #
point $-1 25 -50 -10 #
ellipse-curve $-1 0 -50 10 0 0 -1 -17.677669529663699 -17.677669529663699 0 1 I I #
attrib_edge_convexity-kcp-attrib $-1 $720 $-1 $619 1 #
ellipse-curve $-1 0 -50 -10 0 0 1 17.677669529663699 -17.677669529663699 0 1 I I #
attrib_edge_convexity-kcp-attrib $-1 $721 $-1 $625 1 #
edge $-1 $634 -10 $628 10 $636 $722 forward 7 unknown #
convexity-sys-attrib $-1 $-1 $627 $479 #
point $-1 25 50 -10 #
model_id-kcp-attrib $-1 $-1 $-1 $632 1 990548714 80 1330642945 13 #
cone-surface $-1 0 -50 0 0 0 -1 17.677669529663699 -17.677669529663699 0 1 I I 0 1 25.000000000000014 forward I I I I #
point $-1 25 50 10 #
convexity-sys-attrib $-1 $-1 $-1 $642 #
straight-curve $-1 25 18.750000000000025 -10 0 -1 0 I I #
point $-1 25 25.000000000000099 -10 #
convexity-sys-attrib $-1 $-1 $-1 $652 #
straight-curve $-1 25 -18.749999999999975 10 0 1 0 I I #
point $-1 25 -24.999999999999901 10 #
convexity-sys-attrib $-1 $-1 $-1 $662 #
straight-curve $-1 -25 18.749999999999975 10 0 -1 0 I I #
point $-1 -25 24.999999999999901 10 #
convexity-sys-attrib $-1 $-1 $-1 $672 #
straight-curve $-1 -25 -18.750000000000025 -10 0 1 0 I I #
point $-1 -25 -25.000000000000099 -10 #
point $-1 49.999999999999901 25.000000000000199 -10 #
point $-1 49.999999999999901 25.000000000000199 10 #
convexity-sys-attrib $-1 $-1 $684 $598 #
convexity-sys-attrib $-1 $-1 $687 $604 #
convexity-sys-attrib $-1 $-1 $695 $619 #
convexity-sys-attrib $-1 $-1 $697 $625 #
straight-curve $-1 25 50 0 0 0 -1 I I #
End-of-ACIS-data 