600 0 1 0           
87 GICL ACIS Healer - Source: /gicl/data5/repository/UMD/tmp/X2feature/X2feature.sat - 6 0 18 ACIS 6.0.3 Solaris 24 Sun Apr 14 00:34:17 2002 
1 9.999999999999999547e-07 1.000000000000000036e-10 
body $-1 $1 $-1 $-1 #
lump $-1 $-1 $2 $0 #
shell $-1 $-1 $-1 $3 $-1 $1 #
face $-1 $4 $5 $2 $-1 $6 reversed single #
face $-1 $7 $8 $2 $-1 $9 forward single #
loop $-1 $-1 $10 $3 #
plane-surface $-1 -8.728703347107829602e-14 25 15 3.491481338843129805e-15 -1 0 0 0 1 forward_v I I I I #
face $-1 $11 $12 $2 $-1 $9 forward single #
loop $-1 $-1 $13 $4 #
plane-surface $-1 -49.99999999999990052 -25.00000000000019895 25 3.491481338843129805e-15 -1 0 0 0 1 forward_v I I I I #
coedge $-1 $14 $15 $16 $17 reversed $5 $-1 #
face $-1 $18 $19 $2 $-1 $20 forward single #
loop $-1 $-1 $21 $7 #
coedge $-1 $22 $23 $24 $25 reversed $8 $-1 #
coedge $-1 $26 $10 $27 $28 reversed $5 $-1 #
coedge $-1 $10 $26 $29 $30 reversed $5 $-1 #
coedge $-1 $31 $32 $10 $17 forward $33 $-1 #
edge $-1 $34 -15 $35 5 $16 $36 forward 7 unknown #
face $-1 $37 $38 $2 $-1 $6 reversed single #
loop $-1 $-1 $39 $11 #
cone-surface $-1 -50 -1.745740669421569959e-13 15 0 0 1 -17.67766952966369942 17.67766952966359995 0 1 I I 0 1 24.99999999999994671 forward I I I I #
coedge $-1 $40 $41 $42 $43 reversed $12 $-1 #
coedge $-1 $44 $13 $45 $46 reversed $8 $-1 #
coedge $-1 $13 $44 $47 $48 reversed $8 $-1 #
coedge $-1 $49 $50 $13 $25 forward $51 $-1 #
edge $-1 $52 -0 $53 20 $24 $54 forward 7 unknown #
coedge $-1 $15 $14 $39 $55 reversed $5 $-1 #
coedge $-1 $56 $57 $14 $28 forward $58 $-1 #
edge $-1 $59 -50.00000000000001421 $34 -24.99999999999991118 $14 $60 forward 7 unknown #
coedge $-1 $61 $62 $15 $30 forward $63 $-1 #
edge $-1 $35 24.99999999999991118 $64 50.00000000000001421 $15 $65 forward 7 unknown #
coedge $-1 $66 $16 $62 $67 reversed $33 $-1 #
coedge $-1 $16 $66 $56 $68 reversed $33 $-1 #
loop $-1 $-1 $16 $69 #
vertex $-1 $68 $70 #
vertex $-1 $67 $71 #
straight-curve $-1 -25 24.99999999999990052 20 0 0 1 I I #
face $-1 $72 $73 $2 $-1 $74 forward single #
loop $-1 $-1 $75 $18 #
coedge $-1 $76 $77 $26 $55 forward $19 $-1 #
coedge $-1 $78 $21 $79 $80 reversed $12 $-1 #
coedge $-1 $21 $78 $81 $82 reversed $12 $-1 #
coedge $-1 $83 $84 $21 $43 forward $85 $-1 #
edge $-1 $86 -15 $87 5 $42 $88 forward 7 unknown #
coedge $-1 $23 $22 $89 $90 reversed $8 $-1 #
coedge $-1 $91 $61 $22 $46 forward $63 $-1 #
edge $-1 $92 -49.99999999999998579 $52 -25.00000000000008882 $22 $93 forward 7 unknown #
coedge $-1 $57 $94 $23 $48 forward $58 $-1 #
edge $-1 $53 -24.99999999999990052 $95 0 $47 $96 forward 7 unknown #
coedge $-1 $97 $24 $94 $98 reversed $51 $-1 #
coedge $-1 $24 $97 $91 $99 reversed $51 $-1 #
loop $-1 $-1 $24 $100 #
vertex $-1 $99 $101 #
vertex $-1 $98 $102 #
straight-curve $-1 -25 -25.00000000000009948 25 -0 -0 -1 I I #
edge $-1 $64 -10 $59 10 $26 $103 forward 7 unknown #
coedge $-1 $104 $27 $32 $68 forward $58 $-1 #
coedge $-1 $27 $47 $76 $105 reversed $58 $-1 #
loop $-1 $-1 $106 $107 #
vertex $-1 $55 $108 #
straight-curve $-1 -8.728703347107829602e-14 25 5 1 3.491481338843129805e-15 0 I I #
coedge $-1 $45 $29 $77 $109 reversed $63 $-1 #
coedge $-1 $29 $110 $31 $67 forward $63 $-1 #
loop $-1 $-1 $111 $112 #
vertex $-1 $30 $113 #
straight-curve $-1 -8.728703347107829602e-14 25 25 -1 -3.491481338843129805e-15 0 I I #
coedge $-1 $32 $31 $114 $115 reversed $33 $-1 #
edge $-1 $116 -50 $35 -24.99999999999990052 $31 $117 forward 7 unknown #
edge $-1 $34 -25.00000000000009948 $118 0 $56 $119 forward 7 unknown #
face $-1 $-1 $33 $2 $-1 $120 forward single #
point $-1 -25 24.99999999999990052 5 #
point $-1 -25 24.99999999999990052 25 #
face $-1 $121 $85 $2 $-1 $122 reversed single #
loop $-1 $-1 $123 $37 #
cone-surface $-1 50 1.745740669421569959e-13 15 0 0 -1 17.67766952966359995 17.67766952966369942 0 1 I I 0 1 24.99999999999994671 forward I I I I #
coedge $-1 $124 $125 $126 $127 reversed $38 $-1 #
coedge $-1 $89 $39 $57 $105 forward $19 $-1 #
coedge $-1 $39 $89 $61 $109 forward $19 $-1 #
coedge $-1 $41 $40 $128 $129 reversed $12 $-1 #
coedge $-1 $106 $130 $40 $80 forward $58 $-1 #
edge $-1 $131 -100 $86 -74.99999999999990052 $79 $96 forward 7 unknown #
coedge $-1 $132 $133 $41 $82 forward $63 $-1 #
edge $-1 $87 24.99999999999991118 $134 50.00000000000001421 $41 $93 forward 7 unknown #
coedge $-1 $135 $42 $133 $136 reversed $85 $-1 #
coedge $-1 $42 $135 $106 $137 reversed $85 $-1 #
loop $-1 $-1 $42 $72 #
vertex $-1 $137 $138 #
vertex $-1 $136 $139 #
straight-curve $-1 25 -24.99999999999990052 20 0 0 1 I I #
coedge $-1 $77 $76 $44 $90 forward $19 $-1 #
edge $-1 $95 -10 $92 10 $44 $140 forward 7 unknown #
coedge $-1 $141 $45 $50 $99 forward $63 $-1 #
vertex $-1 $109 $142 #
straight-curve $-1 8.728703347107829602e-14 -25 25 1 3.491481338843129805e-15 0 I I #
coedge $-1 $47 $143 $49 $98 forward $58 $-1 #
vertex $-1 $48 $144 #
straight-curve $-1 -49.99999999999990052 -25.00000000000019895 5 -1 -3.491481338843129805e-15 0 I I #
coedge $-1 $50 $49 $145 $146 reversed $51 $-1 #
edge $-1 $147 -100 $53 -75.00000000000009948 $94 $119 forward 7 unknown #
edge $-1 $52 25.00000000000009948 $148 50 $50 $117 forward 7 unknown #
face $-1 $107 $51 $2 $-1 $120 forward single #
point $-1 -25 -25.00000000000009948 25 #
point $-1 -25 -25.00000000000009948 5 #
straight-curve $-1 -50.00000000000009948 24.99999999999980105 15 0 0 -1 I I #
coedge $-1 $149 $56 $150 $151 reversed $58 $-1 #
edge $-1 $59 -2.356194490192343949 $95 0.7853981633974493892 $57 $152 forward 7 unknown #
coedge $-1 $143 $79 $84 $137 forward $58 $-1 #
face $-1 $153 $58 $2 $-1 $154 forward single #
point $-1 -50.00000000000009948 24.99999999999980105 5 #
edge $-1 $92 -2.356194490192346169 $64 0.7853981633974470578 $61 $155 forward 7 unknown #
coedge $-1 $62 $111 $156 $157 reversed $63 $-1 #
coedge $-1 $110 $158 $159 $160 forward $63 $-1 #
face $-1 $69 $63 $2 $-1 $161 forward single #
point $-1 -50.00000000000009948 24.99999999999980105 25 #
coedge $-1 $156 $150 $66 $115 forward $162 $-1 #
edge $-1 $118 -10 $116 10 $66 $163 forward 7 unknown #
vertex $-1 $157 $164 #
straight-curve $-1 -25 0 25 0 -1 0 I I #
vertex $-1 $68 $165 #
straight-curve $-1 -25 50 5 0 1 0 I I #
plane-surface $-1 -25 50 25 -1 0 0 0 0 1 forward_v I I I I #
face $-1 $100 $166 $2 $-1 $122 reversed single #
plane-surface $-1 25 0 15 -1 0 0 0 0 1 forward_v I I I I #
coedge $-1 $167 $168 $169 $170 forward $73 $-1 #
coedge $-1 $169 $75 $158 $171 reversed $38 $-1 #
coedge $-1 $75 $169 $172 $173 reversed $38 $-1 #
coedge $-1 $174 $159 $75 $127 forward $166 $-1 #
edge $-1 $175 -10 $176 10 $126 $177 forward 7 unknown #
coedge $-1 $168 $167 $78 $129 forward $73 $-1 #
edge $-1 $134 -10 $131 10 $78 $178 forward 7 unknown #
coedge $-1 $79 $172 $168 $179 reversed $58 $-1 #
vertex $-1 $179 $180 #
coedge $-1 $158 $81 $167 $181 reversed $63 $-1 #
coedge $-1 $81 $141 $83 $136 forward $63 $-1 #
vertex $-1 $82 $182 #
coedge $-1 $84 $83 $183 $184 reversed $85 $-1 #
edge $-1 $185 -50 $87 -24.99999999999990052 $83 $186 forward 7 unknown #
edge $-1 $86 24.99999999999990052 $187 50 $84 $188 forward 7 unknown #
point $-1 25 -24.99999999999990052 5 #
point $-1 25 -24.99999999999990052 25 #
straight-curve $-1 -49.99999999999990052 -25.00000000000019895 15 0 0 1 I I #
coedge $-1 $133 $91 $189 $190 reversed $63 $-1 #
point $-1 -49.99999999999990052 -25.00000000000019895 25 #
coedge $-1 $94 $106 $191 $192 reversed $58 $-1 #
point $-1 -49.99999999999990052 -25.00000000000019895 5 #
coedge $-1 $191 $189 $97 $146 forward $193 $-1 #
edge $-1 $148 -10 $147 10 $97 $194 forward 7 unknown #
vertex $-1 $192 $195 #
vertex $-1 $99 $196 #
coedge $-1 $172 $104 $174 $197 forward $58 $-1 #
coedge $-1 $114 $198 $104 $151 forward $162 $-1 #
edge $-1 $199 -2.356194490192344837 $118 0.785398163397448279 $104 $200 forward 7 unknown #
ellipse-curve $-1 -50 -1.745740669421569959e-13 5 0 0 1 -17.67766952966359995 -17.67766952966369942 0 1 I I #
face $-1 $201 $162 $2 $-1 $202 forward single #
plane-surface $-1 25 -50 5 0 0 -1 -1 0 0 forward_v I I I I #
ellipse-curve $-1 -50 -1.745740669421569959e-13 25 0 0 -1 -17.67766952966369942 17.67766952966359995 0 1 I I #
coedge $-1 $198 $114 $110 $157 forward $162 $-1 #
edge $-1 $116 -2.356194490192344837 $203 0.785398163397448279 $110 $204 forward 7 unknown #
coedge $-1 $111 $132 $124 $171 forward $63 $-1 #
coedge $-1 $126 $205 $111 $160 reversed $166 $-1 #
edge $-1 $175 25.00000000000009948 $203 50 $159 $186 forward 7 unknown #
plane-surface $-1 -25 -50 25 0 0 1 1 0 0 forward_v I I I I #
loop $-1 $-1 $198 $153 #
straight-curve $-1 -25 50 15 0 0 1 I I #
point $-1 -25 50 25 #
point $-1 -25 50 5 #
loop $-1 $-1 $126 $121 #
coedge $-1 $128 $123 $132 $181 forward $73 $-1 #
coedge $-1 $123 $128 $130 $179 forward $73 $-1 #
coedge $-1 $125 $124 $123 $170 reversed $38 $-1 #
edge $-1 $206 -10 $207 10 $169 $208 forward 7 unknown #
edge $-1 $207 -49.99999999999998579 $175 -25.00000000000008882 $124 $65 forward 7 unknown #
coedge $-1 $130 $149 $125 $173 forward $58 $-1 #
edge $-1 $176 25.00000000000008882 $206 49.99999999999998579 $125 $60 forward 7 unknown #
coedge $-1 $205 $126 $149 $197 reversed $166 $-1 #
vertex $-1 $160 $209 #
vertex $-1 $197 $210 #
straight-curve $-1 25 25.00000000000009948 15 -0 -0 -1 I I #
straight-curve $-1 50.00000000000009948 -24.99999999999980105 15 0 0 -1 I I #
edge $-1 $131 -2.356194490192343949 $206 0.7853981633974493892 $130 $211 forward 7 unknown #
point $-1 50.00000000000009948 -24.99999999999980105 5 #
edge $-1 $207 -2.356194490192346169 $134 0.7853981633974470578 $132 $212 forward 7 unknown #
point $-1 50.00000000000009948 -24.99999999999980105 25 #
coedge $-1 $189 $191 $135 $184 forward $193 $-1 #
edge $-1 $187 -10 $185 10 $135 $213 forward 7 unknown #
vertex $-1 $184 $214 #
straight-curve $-1 25 0 25 0 1 0 I I #
vertex $-1 $137 $215 #
straight-curve $-1 25 0 5 0 -1 0 I I #
coedge $-1 $145 $183 $141 $190 forward $193 $-1 #
edge $-1 $185 -2.356194490192344837 $148 0.785398163397448279 $141 $216 forward 7 unknown #
coedge $-1 $183 $145 $143 $192 forward $193 $-1 #
edge $-1 $147 -2.356194490192344837 $187 0.785398163397448279 $143 $217 forward 7 unknown #
loop $-1 $-1 $183 $201 #
straight-curve $-1 -25 -50 15 -0 -0 -1 I I #
point $-1 -25 -50 5 #
point $-1 -25 -50 25 #
edge $-1 $199 -50 $176 -25.00000000000009948 $174 $188 forward 7 unknown #
coedge $-1 $150 $156 $205 $218 forward $162 $-1 #
vertex $-1 $218 $219 #
ellipse-curve $-1 0 50 5 0 0 1 -17.67766952966369942 17.67766952966369942 0 1 I I #
face $-1 $112 $193 $2 $-1 $220 forward single #
cone-surface $-1 0 50 15 0 0 1 17.67766952966369942 17.67766952966369942 0 1 I I 0 1 25.00000000000001421 forward I I I I #
vertex $-1 $160 $221 #
ellipse-curve $-1 0 50 25 -0 -0 -1 17.67766952966369942 17.67766952966369942 0 1 I I #
coedge $-1 $159 $174 $198 $218 reversed $166 $-1 #
vertex $-1 $173 $222 #
vertex $-1 $170 $223 #
straight-curve $-1 49.99999999999990052 25.00000000000019895 15 0 0 1 I I #
point $-1 25 25.00000000000009948 25 #
point $-1 25 25.00000000000009948 5 #
ellipse-curve $-1 50 1.745740669421569959e-13 5 0 0 1 17.67766952966359995 17.67766952966369942 0 1 I I #
ellipse-curve $-1 50 1.745740669421569959e-13 25 0 0 -1 17.67766952966369942 -17.67766952966359995 0 1 I I #
straight-curve $-1 25 -50 15 0 0 1 I I #
point $-1 25 -50 25 #
point $-1 25 -50 5 #
ellipse-curve $-1 0 -50 25 -0 -0 -1 -17.67766952966369942 -17.67766952966369942 0 1 I I #
ellipse-curve $-1 0 -50 5 0 0 1 17.67766952966369942 -17.67766952966369942 0 1 I I #
edge $-1 $203 -10 $199 10 $205 $224 forward 7 unknown #
point $-1 25 50 5 #
cone-surface $-1 0 -50 15 0 0 -1 17.67766952966369942 -17.67766952966369942 0 1 I I 0 1 25.00000000000001421 forward I I I I #
point $-1 25 50 25 #
point $-1 49.99999999999990052 25.00000000000019895 5 #
point $-1 49.99999999999990052 25.00000000000019895 25 #
straight-curve $-1 25 50 15 -0 -0 -1 I I #
End-of-ACIS-data 