600 0 2 0           
24 FBMach with ACIS - 6.0.3 13 ACIS 6.0.3 NT 24 Sun Mar 31 23:25:59 2002 
1 9.9999999999999995e-007 1e-010 
body $2 $3 $-1 $4 #
bdycol-kcp $-1 1 5 $5 $6 $7 $8 $9 #
model_id-kcp-attrib $-1 $10 $-1 $0 1 1017635158 80 1515192321 1 #
lump $-1 $-1 $11 $0 #
transform $-1 1 0 0 0 1 0 0 0 1 0 0 0 1 rotate no_reflect no_shear #
body $12 $13 $-1 $14 #
body $15 $16 $-1 $17 #
body $18 $19 $-1 $20 #
body $21 $22 $-1 $23 #
body $24 $25 $-1 $26 #
aggregate_advspl_attribute-aggregate_geombuild_base_attribute-aggregate_body_attribute-attrib_HH-attrib $-1 $27 $2 $0 F #
shell $-1 $-1 $-1 $28 $-1 $3 #
model_id-kcp-attrib $-1 $-1 $-1 $5 1 1017635158 90 1515847682 1 #
lump $-1 $-1 $29 $5 #
transform $-1 1 0 0 0 1 0 0 0 1 0 0 15 1 no_rotate no_reflect no_shear #
rgb_color-st-attrib $-1 $30 $-1 $6 1 0.5 1 #
lump $-1 $-1 $31 $6 #
transform $-1 1 0 0 0 1 0 0 0 1 0 0 15 1 no_rotate no_reflect no_shear #
rgb_color-st-attrib $-1 $32 $-1 $7 1 0.5 1 #
lump $-1 $-1 $33 $7 #
transform $-1 1 0 0 0 1 0 0 0 1 0 0 15 1 no_rotate no_reflect no_shear #
rgb_color-st-attrib $-1 $34 $-1 $8 1 0.5 1 #
lump $-1 $-1 $35 $8 #
transform $-1 1 0 0 0 1 0 0 0 1 0 0 15 1 no_rotate no_reflect no_shear #
rgb_color-st-attrib $-1 $36 $-1 $9 1 0.5 1 #
lump $-1 $-1 $37 $9 #
transform $-1 1 0 0 0 1 0 0 0 1 0 0 15 1 no_rotate no_reflect no_shear #
aggregate_secndry_attribute-aggregate_geombuild_base_attribute-aggregate_body_attribute-attrib_HH-attrib $-1 $38 $10 $0 F #
face $39 $40 $41 $11 $-1 $42 reversed single #
shell $-1 $-1 $-1 $43 $-1 $13 #
model_id-kcp-attrib $-1 $-1 $15 $6 1 1017635158 330 1514799107 1 #
shell $-1 $-1 $-1 $44 $-1 $16 #
model_id-kcp-attrib $-1 $-1 $18 $7 1 1017635158 430 1521352708 1 #
shell $-1 $-1 $-1 $45 $-1 $19 #
model_id-kcp-attrib $-1 $-1 $21 $8 1 1017635158 530 1511129093 1 #
shell $-1 $-1 $-1 $46 $-1 $22 #
model_id-kcp-attrib $-1 $-1 $24 $9 1 1017635158 620 1517027334 1 #
shell $-1 $-1 $-1 $47 $-1 $25 #
aggregate_sharped_attribute-aggregate_geombuild_base_attribute-aggregate_body_attribute-attrib_HH-attrib $-1 $48 $27 $0 F #
model_id-kcp-attrib $-1 $49 $-1 $28 1 1017635158 80 1515192321 2 #
face $50 $51 $52 $11 $-1 $53 forward single #
loop $-1 $-1 $54 $28 #
plane-surface $-1 -8.7287033471078296e-014 25 15 3.4914813388431298e-015 -1 0 0 0 1 forward_v I I I I #
face $55 $56 $57 $29 $-1 $58 forward single #
face $-1 $59 $60 $31 $-1 $61 forward single #
face $-1 $62 $63 $33 $-1 $64 forward single #
face $-1 $65 $66 $35 $-1 $67 forward single #
face $-1 $68 $69 $37 $-1 $70 forward single #
aggregate_reblend_attribute-aggregate_geombuild_base_attribute-aggregate_body_attribute-attrib_HH-attrib $-1 $71 $38 $0 F #
attrib_hh_face_geombuild-attrib_entity_geombuild-individual_entity_attribute-attrib_HH-attrib $-1 $-1 $39 $28 F #
model_id-kcp-attrib $-1 $72 $-1 $40 1 1017635158 80 1515192321 3 #
face $73 $74 $75 $11 $-1 $53 forward single #
loop $-1 $-1 $76 $40 #
plane-surface $-1 -49.999999999999901 -25.000000000000199 25 3.4914813388431298e-015 -1 0 0 0 1 forward_v I I I I #
coedge $77 $78 $79 $80 $81 reversed $41 $-1 #
model_id-kcp-attrib $-1 $-1 $-1 $43 1 1017635158 90 1515847682 3 #
face $82 $83 $84 $29 $-1 $85 reversed single #
loop $-1 $-1 $86 $43 #
plane-surface $-1 0 0 10 0 0 1 1 0 0 forward_v I I I I #
face $-1 $87 $88 $31 $-1 $89 forward single #
loop $-1 $-1 $90 $44 #
plane-surface $-1 25 25.000000000000099 10 0 0 1 1 0 0 forward_v I I I I #
face $-1 $91 $92 $33 $-1 $93 forward single #
loop $-1 $-1 $94 $45 #
plane-surface $-1 25 -24.999999999999901 -10 0 0 -1 -1 0 0 forward_v I I I I #
face $-1 $95 $96 $35 $-1 $97 forward single #
loop $-1 $-1 $98 $46 #
plane-surface $-1 -25 24.999999999999901 -10 0 0 -1 -1 0 0 forward_v I I I I #
face $-1 $99 $100 $37 $-1 $101 forward single #
loop $-1 $-1 $102 $47 #
plane-surface $-1 -25 -25.000000000000099 10 0 0 1 1 0 0 forward_v I I I I #
aggregate_isospline_attribute-aggregate_geombuild_base_attribute-aggregate_body_attribute-attrib_HH-attrib $-1 $103 $48 $0 F #
attrib_hh_face_geombuild-attrib_entity_geombuild-individual_entity_attribute-attrib_HH-attrib $-1 $-1 $50 $40 F #
model_id-kcp-attrib $-1 $104 $-1 $51 1 1017635158 80 1515192321 4 #
face $105 $106 $107 $11 $-1 $108 forward single #
loop $-1 $-1 $109 $51 #
coedge $110 $111 $112 $113 $114 reversed $52 $-1 #
attrib_hh_coedge_geombuild-attrib_entity_geombuild-individual_entity_attribute-attrib_HH-attrib $-1 $-1 $-1 $54 F #
coedge $115 $116 $54 $117 $118 reversed $41 $-1 #
coedge $119 $54 $116 $120 $121 reversed $41 $-1 #
coedge $122 $123 $124 $54 $81 forward $125 $-1 #
edge $126 $127 -15 $128 5 $80 $129 forward 7 unknown #
model_id-kcp-attrib $-1 $-1 $-1 $56 1 1017635158 90 1515847682 2 #
face $-1 $130 $131 $29 $-1 $132 reversed single #
loop $-1 $-1 $133 $56 #
plane-surface $-1 0 0 -10 0 0 1 1 0 0 forward_v I I I I #
coedge $-1 $134 $135 $136 $137 forward $57 $-1 #
face $-1 $138 $139 $31 $-1 $140 forward single #
loop $-1 $-1 $141 $59 #
plane-surface $-1 25 75.000000000000014 10 0 1 0 0 0 1 forward_v I I I I #
coedge $-1 $142 $143 $144 $145 forward $60 $-1 #
face $-1 $146 $147 $33 $-1 $148 forward single #
loop $-1 $-1 $149 $62 #
plane-surface $-1 25 -75.000000000000014 -10 0 -1 0 0 0 -1 forward_v I I I I #
coedge $-1 $150 $151 $152 $153 forward $63 $-1 #
face $-1 $154 $155 $35 $-1 $156 forward single #
loop $-1 $-1 $157 $65 #
plane-surface $-1 -25 75.000000000000014 -10 0 1 0 0 0 1 forward_v I I I I #
coedge $-1 $158 $159 $160 $161 forward $66 $-1 #
face $-1 $162 $163 $37 $-1 $164 forward single #
loop $-1 $-1 $165 $68 #
plane-surface $-1 -25 -75.000000000000014 10 0 -1 0 0 0 -1 forward_v I I I I #
coedge $-1 $166 $167 $168 $169 forward $69 $-1 #
aggregate_analytic_solver_attribute-aggregate_geombuild_base_attribute-aggregate_body_attribute-attrib_HH-attrib $-1 $170 $71 $0 F #
attrib_hh_face_geombuild-attrib_entity_geombuild-individual_entity_attribute-attrib_HH-attrib $-1 $-1 $73 $51 F #
model_id-kcp-attrib $-1 $171 $-1 $74 1 1017635158 80 1515192321 5 #
face $172 $173 $174 $11 $-1 $42 reversed single #
loop $-1 $-1 $175 $74 #
cone-surface $-1 -50 -1.74574066942157e-013 15 0 0 1 -17.677669529663699 17.6776695296636 0 1 I I 0 1 24.999999999999947 forward I I I I #
coedge $176 $177 $178 $179 $180 reversed $75 $-1 #
attrib_hh_coedge_geombuild-attrib_entity_geombuild-individual_entity_attribute-attrib_HH-attrib $-1 $-1 $-1 $76 F #
coedge $181 $182 $76 $183 $184 reversed $52 $-1 #
coedge $185 $76 $182 $186 $187 reversed $52 $-1 #
coedge $188 $189 $190 $76 $114 forward $191 $-1 #
edge $192 $193 0 $194 20 $113 $195 forward 7 unknown #
attrib_hh_coedge_geombuild-attrib_entity_geombuild-individual_entity_attribute-attrib_HH-attrib $-1 $-1 $-1 $78 F #
coedge $196 $79 $78 $175 $197 reversed $41 $-1 #
coedge $198 $199 $200 $78 $118 forward $201 $-1 #
edge $202 $203 -50.000000000000014 $127 -24.999999999999911 $78 $204 forward 7 unknown #
attrib_hh_coedge_geombuild-attrib_entity_geombuild-individual_entity_attribute-attrib_HH-attrib $-1 $-1 $-1 $79 F #
coedge $205 $206 $207 $79 $121 forward $208 $-1 #
edge $209 $128 24.999999999999911 $210 50.000000000000014 $79 $211 forward 7 unknown #
attrib_hh_coedge_geombuild-attrib_entity_geombuild-individual_entity_attribute-attrib_HH-attrib $-1 $-1 $-1 $80 F #
coedge $212 $213 $80 $207 $214 reversed $125 $-1 #
coedge $215 $80 $213 $199 $216 reversed $125 $-1 #
loop $-1 $-1 $80 $217 #
attrib_hh_edge_geombuild-attrib_entity_geombuild-individual_entity_attribute-attrib_HH-attrib $-1 $-1 $-1 $81 F #
vertex $218 $216 $219 #
vertex $220 $214 $221 #
straight-curve $-1 -25 24.999999999999901 20 0 0 1 I I #
face $-1 $222 $223 $29 $-1 $224 reversed single #
loop $-1 $-1 $225 $83 #
plane-surface $-1 0 -75.000000000000014 0 0 1 0 0 0 1 forward_v I I I I #
coedge $-1 $226 $227 $228 $229 forward $84 $-1 #
coedge $-1 $230 $86 $231 $232 forward $57 $-1 #
coedge $-1 $86 $230 $233 $234 forward $57 $-1 #
coedge $-1 $235 $236 $86 $137 reversed $237 $-1 #
edge $-1 $238 -75.000000000000014 $239 75.000000000000014 $136 $240 forward 7 unknown #
face $-1 $241 $242 $31 $-1 $243 forward single #
loop $-1 $-1 $244 $87 #
plane-surface $-1 25 75.000000000000014 -10 0 0 -1 -1 0 0 forward_v I I I I #
coedge $-1 $245 $246 $247 $248 forward $88 $-1 #
coedge $-1 $249 $90 $246 $250 reversed $60 $-1 #
coedge $-1 $90 $249 $251 $252 forward $60 $-1 #
coedge $-1 $253 $247 $90 $145 reversed $254 $-1 #
edge $-1 $255 6.2500000000000746 $256 56.249999999999986 $90 $257 forward 7 unknown #
face $-1 $258 $259 $33 $-1 $260 forward single #
loop $-1 $-1 $261 $91 #
plane-surface $-1 25 -75.000000000000014 10 0 0 1 1 0 0 forward_v I I I I #
coedge $-1 $262 $263 $264 $265 forward $92 $-1 #
coedge $-1 $266 $94 $263 $267 reversed $63 $-1 #
coedge $-1 $94 $266 $268 $269 forward $63 $-1 #
coedge $-1 $270 $264 $94 $153 reversed $271 $-1 #
edge $-1 $272 6.2499999999999254 $273 56.250000000000043 $94 $274 forward 7 unknown #
face $-1 $275 $276 $35 $-1 $277 forward single #
loop $-1 $-1 $278 $95 #
plane-surface $-1 -25 75.000000000000014 10 0 0 1 1 0 0 forward_v I I I I #
coedge $-1 $279 $280 $281 $282 forward $96 $-1 #
coedge $-1 $283 $98 $280 $284 reversed $66 $-1 #
coedge $-1 $98 $283 $285 $286 forward $66 $-1 #
coedge $-1 $287 $281 $98 $161 reversed $288 $-1 #
edge $-1 $289 6.2499999999999254 $290 56.250000000000043 $98 $291 forward 7 unknown #
face $-1 $292 $293 $37 $-1 $294 forward single #
loop $-1 $-1 $295 $99 #
plane-surface $-1 -25 -75.000000000000014 -10 0 0 -1 -1 0 0 forward_v I I I I #
coedge $-1 $296 $297 $298 $299 forward $100 $-1 #
coedge $-1 $300 $102 $297 $301 reversed $69 $-1 #
coedge $-1 $102 $300 $302 $303 forward $69 $-1 #
coedge $-1 $304 $298 $102 $169 reversed $305 $-1 #
edge $-1 $306 6.2500000000000746 $307 56.249999999999986 $102 $308 forward 7 unknown #
aggregate_geombuild_attribute-aggregate_geombuild_base_attribute-aggregate_body_attribute-attrib_HH-attrib $-1 $309 $103 $0 #
attrib_hh_face_geombuild-attrib_entity_geombuild-individual_entity_attribute-attrib_HH-attrib $-1 $-1 $105 $74 F #
model_id-kcp-attrib $-1 $310 $-1 $106 1 1017635158 80 1515192321 6 #
face $311 $312 $313 $11 $-1 $314 forward single #
loop $-1 $-1 $315 $106 #
coedge $316 $317 $318 $116 $197 forward $107 $-1 #
attrib_hh_coedge_geombuild-attrib_entity_geombuild-individual_entity_attribute-attrib_HH-attrib $-1 $-1 $-1 $109 F #
coedge $319 $320 $109 $321 $322 reversed $75 $-1 #
coedge $323 $109 $320 $324 $325 reversed $75 $-1 #
coedge $326 $327 $328 $109 $180 forward $329 $-1 #
edge $330 $331 -15 $332 5 $179 $333 forward 7 unknown #
attrib_hh_coedge_geombuild-attrib_entity_geombuild-individual_entity_attribute-attrib_HH-attrib $-1 $-1 $-1 $111 F #
coedge $334 $112 $111 $335 $336 reversed $52 $-1 #
coedge $337 $338 $206 $111 $184 forward $208 $-1 #
edge $339 $340 -49.999999999999986 $193 -25.000000000000089 $111 $341 forward 7 unknown #
attrib_hh_coedge_geombuild-attrib_entity_geombuild-individual_entity_attribute-attrib_HH-attrib $-1 $-1 $-1 $112 F #
coedge $342 $200 $343 $112 $187 forward $201 $-1 #
edge $344 $194 -24.999999999999901 $345 0 $186 $346 forward 7 unknown #
attrib_hh_coedge_geombuild-attrib_entity_geombuild-individual_entity_attribute-attrib_HH-attrib $-1 $-1 $-1 $113 F #
coedge $347 $348 $113 $343 $349 reversed $191 $-1 #
coedge $350 $113 $348 $338 $351 reversed $191 $-1 #
loop $-1 $-1 $113 $352 #
attrib_hh_edge_geombuild-attrib_entity_geombuild-individual_entity_attribute-attrib_HH-attrib $-1 $-1 $-1 $114 F #
vertex $353 $351 $354 #
vertex $355 $349 $356 #
straight-curve $-1 -25 -25.000000000000099 25 0 0 -1 I I #
attrib_hh_coedge_geombuild-attrib_entity_geombuild-individual_entity_attribute-attrib_HH-attrib $-1 $-1 $-1 $116 F #
edge $357 $210 -10 $203 10 $116 $358 forward 7 unknown #
attrib_hh_coedge_geombuild-attrib_entity_geombuild-individual_entity_attribute-attrib_HH-attrib $-1 $-1 $-1 $117 F #
coedge $359 $360 $117 $124 $216 forward $201 $-1 #
coedge $361 $117 $186 $317 $362 reversed $201 $-1 #
loop $-1 $-1 $363 $364 #
attrib_edge_convexity-kcp-attrib $-1 $365 $-1 $118 1 #
vertex $366 $197 $367 #
straight-curve $-1 -8.7287033471078296e-014 25 5 1 3.4914813388431298e-015 0 I I #
attrib_hh_coedge_geombuild-attrib_entity_geombuild-individual_entity_attribute-attrib_HH-attrib $-1 $-1 $-1 $120 F #
coedge $368 $183 $120 $318 $369 reversed $208 $-1 #
coedge $370 $120 $371 $123 $214 forward $208 $-1 #
loop $-1 $-1 $372 $373 #
attrib_hh_edge_geombuild-attrib_entity_geombuild-individual_entity_attribute-attrib_HH-attrib $-1 $-1 $-1 $121 F #
vertex $374 $121 $375 #
straight-curve $-1 -8.7287033471078296e-014 25 25 -1 -3.4914813388431298e-015 0 I I #
attrib_hh_coedge_geombuild-attrib_entity_geombuild-individual_entity_attribute-attrib_HH-attrib $-1 $-1 $-1 $123 F #
coedge $376 $124 $123 $377 $378 reversed $125 $-1 #
edge $379 $380 -50 $128 -24.999999999999901 $123 $381 forward 7 unknown #
attrib_hh_coedge_geombuild-attrib_entity_geombuild-individual_entity_attribute-attrib_HH-attrib $-1 $-1 $-1 $124 F #
edge $382 $127 -25.000000000000099 $383 0 $199 $384 forward 7 unknown #
face $385 $-1 $125 $11 $-1 $386 forward single #
attrib_hh_vertex_geombuild-attrib_entity_geombuild-individual_entity_attribute-attrib_HH-attrib $-1 $-1 $-1 $127 F #
point $-1 -25 24.999999999999901 5 #
attrib_hh_vertex_geombuild-attrib_entity_geombuild-individual_entity_attribute-attrib_HH-attrib $-1 $-1 $-1 $128 F #
point $-1 -25 24.999999999999901 25 #
face $-1 $387 $388 $29 $-1 $389 reversed single #
loop $-1 $-1 $390 $130 #
plane-surface $-1 -74.999999999999943 0 0 1 0 0 0 0 -1 forward_v I I I I #
coedge $-1 $391 $233 $392 $393 forward $131 $-1 #
coedge $-1 $394 $133 $391 $395 forward $84 $-1 #
coedge $-1 $133 $394 $396 $397 forward $84 $-1 #
coedge $-1 $236 $235 $133 $229 reversed $237 $-1 #
edge $-1 $398 -75.000000000000014 $399 75.000000000000014 $228 $400 forward 7 unknown #
coedge $-1 $135 $134 $401 $402 forward $57 $-1 #
coedge $-1 $403 $404 $134 $232 reversed $388 $-1 #
edge $-1 $239 -74.999999999999943 $405 74.999999999999943 $231 $406 forward 7 unknown #
coedge $-1 $225 $407 $135 $234 reversed $131 $-1 #
edge $-1 $408 -74.999999999999943 $238 74.999999999999943 $233 $409 forward 7 unknown #
coedge $-1 $228 $136 $407 $410 forward $237 $-1 #
coedge $-1 $136 $228 $403 $411 reversed $237 $-1 #
loop $-1 $-1 $235 $387 #
vertex $-1 $137 $412 #
vertex $-1 $137 $413 #
straight-curve $-1 74.999999999999943 0 10 0 1 0 I I #
face $-1 $414 $254 $31 $-1 $415 forward single #
loop $-1 $-1 $416 $138 #
plane-surface $-1 25 25.000000000000099 -10 0 -1 0 0 0 -1 forward_v I I I I #
coedge $-1 $417 $418 $419 $420 forward $139 $-1 #
coedge $-1 $421 $141 $418 $422 reversed $88 $-1 #
coedge $-1 $141 $421 $142 $250 forward $88 $-1 #
coedge $-1 $144 $419 $141 $248 reversed $254 $-1 #
edge $-1 $256 -10 $423 10 $141 $424 forward 7 unknown #
coedge $-1 $143 $142 $425 $426 reversed $60 $-1 #
edge $-1 $427 0 $256 24.999999999999901 $246 $428 forward 7 unknown #
coedge $-1 $429 $416 $143 $252 reversed $242 $-1 #
edge $-1 $430 0 $255 24.999999999999901 $143 $431 forward 7 unknown #
coedge $-1 $419 $144 $416 $432 reversed $254 $-1 #
loop $-1 $-1 $144 $241 #
vertex $-1 $252 $433 #
vertex $-1 $250 $434 #
straight-curve $-1 49.999999999999901 18.750000000000025 10 0 1 0 I I #
face $-1 $435 $271 $33 $-1 $436 forward single #
loop $-1 $-1 $437 $146 #
plane-surface $-1 25 -24.999999999999901 10 0 1 0 0 0 1 forward_v I I I I #
coedge $-1 $438 $439 $440 $441 forward $147 $-1 #
coedge $-1 $442 $149 $439 $443 reversed $92 $-1 #
coedge $-1 $149 $442 $150 $267 forward $92 $-1 #
coedge $-1 $152 $440 $149 $265 reversed $271 $-1 #
edge $-1 $273 -10 $444 10 $149 $445 forward 7 unknown #
coedge $-1 $151 $150 $446 $447 reversed $63 $-1 #
edge $-1 $448 0 $273 25.000000000000099 $263 $449 forward 7 unknown #
coedge $-1 $450 $437 $151 $269 reversed $259 $-1 #
edge $-1 $451 0 $272 25.000000000000099 $151 $452 forward 7 unknown #
coedge $-1 $440 $152 $437 $453 reversed $271 $-1 #
loop $-1 $-1 $152 $258 #
vertex $-1 $269 $454 #
vertex $-1 $267 $455 #
straight-curve $-1 50.000000000000099 -18.749999999999975 -10 0 -1 0 I I #
face $-1 $456 $288 $35 $-1 $457 reversed single #
loop $-1 $-1 $458 $154 #
plane-surface $-1 -25 24.999999999999901 10 0 -1 0 0 0 -1 forward_v I I I I #
coedge $-1 $459 $460 $461 $462 forward $155 $-1 #
coedge $-1 $463 $157 $460 $464 reversed $96 $-1 #
coedge $-1 $157 $463 $158 $284 forward $96 $-1 #
coedge $-1 $160 $461 $157 $282 reversed $288 $-1 #
edge $-1 $290 -10 $465 10 $157 $466 forward 7 unknown #
coedge $-1 $159 $158 $467 $468 reversed $66 $-1 #
edge $-1 $469 0 $290 25.000000000000099 $280 $470 forward 7 unknown #
coedge $-1 $471 $458 $159 $286 reversed $276 $-1 #
edge $-1 $472 0 $289 25.000000000000099 $159 $473 forward 7 unknown #
coedge $-1 $461 $160 $458 $474 reversed $288 $-1 #
loop $-1 $-1 $160 $275 #
vertex $-1 $286 $475 #
vertex $-1 $284 $476 #
straight-curve $-1 -50.000000000000099 18.749999999999975 -10 0 1 0 I I #
face $-1 $477 $305 $37 $-1 $478 reversed single #
loop $-1 $-1 $479 $162 #
plane-surface $-1 -25 -25.000000000000099 -10 0 1 0 0 0 1 forward_v I I I I #
coedge $-1 $480 $481 $482 $483 forward $163 $-1 #
coedge $-1 $484 $165 $481 $485 reversed $100 $-1 #
coedge $-1 $165 $484 $166 $301 forward $100 $-1 #
coedge $-1 $168 $482 $165 $299 reversed $305 $-1 #
edge $-1 $307 -10 $486 10 $165 $487 forward 7 unknown #
coedge $-1 $167 $166 $488 $489 reversed $69 $-1 #
edge $-1 $490 0 $307 24.999999999999901 $297 $491 forward 7 unknown #
coedge $-1 $492 $479 $167 $303 reversed $293 $-1 #
edge $-1 $493 0 $306 24.999999999999901 $167 $494 forward 7 unknown #
coedge $-1 $482 $168 $479 $495 reversed $305 $-1 #
loop $-1 $-1 $168 $292 #
vertex $-1 $303 $496 #
vertex $-1 $301 $497 #
straight-curve $-1 -49.999999999999901 -18.750000000000025 10 0 -1 0 I I #
aggregate_stitch_attribute-aggregate_stitch_base_attribute-aggregate_body_attribute-attrib_HH-attrib $-1 $498 $170 $0 F #
attrib_hh_face_geombuild-attrib_entity_geombuild-individual_entity_attribute-attrib_HH-attrib $-1 $-1 $172 $106 F #
model_id-kcp-attrib $-1 $499 $-1 $173 1 1017635158 80 1515192321 7 #
face $500 $501 $329 $11 $-1 $502 reversed single #
loop $-1 $-1 $503 $173 #
cone-surface $-1 50 1.74574066942157e-013 15 0 0 -1 17.6776695296636 17.677669529663699 0 1 I I 0 1 24.999999999999947 forward I I I I #
coedge $504 $505 $506 $507 $508 reversed $174 $-1 #
attrib_hh_coedge_geombuild-attrib_entity_geombuild-individual_entity_attribute-attrib_HH-attrib $-1 $-1 $-1 $175 F #
coedge $509 $335 $175 $200 $362 forward $107 $-1 #
coedge $510 $175 $335 $206 $369 forward $107 $-1 #
attrib_hh_coedge_geombuild-attrib_entity_geombuild-individual_entity_attribute-attrib_HH-attrib $-1 $-1 $-1 $177 F #
coedge $511 $178 $177 $512 $513 reversed $75 $-1 #
coedge $514 $363 $515 $177 $322 forward $201 $-1 #
edge $516 $517 -100 $331 -74.999999999999901 $321 $346 forward 7 unknown #
attrib_hh_coedge_geombuild-attrib_entity_geombuild-individual_entity_attribute-attrib_HH-attrib $-1 $-1 $-1 $178 F #
coedge $518 $519 $520 $178 $325 forward $208 $-1 #
edge $521 $332 24.999999999999911 $522 50.000000000000014 $178 $341 forward 7 unknown #
attrib_hh_coedge_geombuild-attrib_entity_geombuild-individual_entity_attribute-attrib_HH-attrib $-1 $-1 $-1 $179 F #
coedge $523 $524 $179 $520 $525 reversed $329 $-1 #
coedge $526 $179 $524 $363 $527 reversed $329 $-1 #
loop $-1 $-1 $179 $312 #
attrib_hh_edge_geombuild-attrib_entity_geombuild-individual_entity_attribute-attrib_HH-attrib $-1 $-1 $-1 $180 F #
vertex $528 $527 $529 #
vertex $530 $525 $531 #
straight-curve $-1 25 -24.999999999999901 20 0 0 1 I I #
attrib_hh_coedge_geombuild-attrib_entity_geombuild-individual_entity_attribute-attrib_HH-attrib $-1 $-1 $-1 $182 F #
coedge $532 $318 $317 $182 $336 forward $107 $-1 #
edge $533 $345 -10 $340 10 $182 $534 forward 7 unknown #
attrib_hh_coedge_geombuild-attrib_entity_geombuild-individual_entity_attribute-attrib_HH-attrib $-1 $-1 $-1 $183 F #
coedge $535 $536 $183 $190 $351 forward $208 $-1 #
attrib_hh_edge_geombuild-attrib_entity_geombuild-individual_entity_attribute-attrib_HH-attrib $-1 $-1 $-1 $184 F #
vertex $537 $369 $538 #
straight-curve $-1 8.7287033471078296e-014 -25 25 1 3.4914813388431298e-015 0 I I #
attrib_hh_coedge_geombuild-attrib_entity_geombuild-individual_entity_attribute-attrib_HH-attrib $-1 $-1 $-1 $186 F #
coedge $539 $186 $540 $189 $349 forward $201 $-1 #
attrib_edge_convexity-kcp-attrib $-1 $541 $-1 $187 1 #
vertex $542 $187 $543 #
straight-curve $-1 -49.999999999999901 -25.000000000000199 5 -1 -3.4914813388431298e-015 0 I I #
attrib_hh_coedge_geombuild-attrib_entity_geombuild-individual_entity_attribute-attrib_HH-attrib $-1 $-1 $-1 $189 F #
coedge $544 $190 $189 $545 $546 reversed $191 $-1 #
edge $547 $548 -100 $194 -75.000000000000099 $343 $384 forward 7 unknown #
attrib_hh_coedge_geombuild-attrib_entity_geombuild-individual_entity_attribute-attrib_HH-attrib $-1 $-1 $-1 $190 F #
edge $549 $193 25.000000000000099 $550 50 $190 $381 forward 7 unknown #
face $551 $364 $191 $11 $-1 $386 forward single #
attrib_hh_vertex_geombuild-attrib_entity_geombuild-individual_entity_attribute-attrib_HH-attrib $-1 $-1 $-1 $193 F #
point $-1 -25 -25.000000000000099 25 #
attrib_hh_vertex_geombuild-attrib_entity_geombuild-individual_entity_attribute-attrib_HH-attrib $-1 $-1 $-1 $194 F #
point $-1 -25 -25.000000000000099 5 #
attrib_hh_edge_geombuild-attrib_entity_geombuild-individual_entity_attribute-attrib_HH-attrib $-1 $-1 $-1 $197 F #
straight-curve $-1 -50.000000000000099 24.999999999999801 15 0 0 -1 I I #
attrib_hh_coedge_geombuild-attrib_entity_geombuild-individual_entity_attribute-attrib_HH-attrib $-1 $-1 $-1 $199 F #
coedge $552 $553 $199 $554 $555 reversed $201 $-1 #
attrib_hh_coedge_geombuild-attrib_entity_geombuild-individual_entity_attribute-attrib_HH-attrib $-1 $-1 $-1 $200 F #
edge $556 $203 -2.3561944901923439 $345 0.78539816339744939 $200 $557 forward 7 unknown #
coedge $558 $540 $321 $328 $527 forward $201 $-1 #
face $559 $560 $201 $11 $-1 $561 forward single #
convexity-sys-attrib $-1 $562 $202 $118 #
attrib_hh_vertex_geombuild-attrib_entity_geombuild-individual_entity_attribute-attrib_HH-attrib $-1 $-1 $-1 $203 F #
point $-1 -50.000000000000099 24.999999999999801 5 #
attrib_hh_coedge_geombuild-attrib_entity_geombuild-individual_entity_attribute-attrib_HH-attrib $-1 $-1 $-1 $206 F #
edge $563 $340 -2.3561944901923462 $210 0.78539816339744706 $206 $564 forward 7 unknown #
attrib_hh_coedge_geombuild-attrib_entity_geombuild-individual_entity_attribute-attrib_HH-attrib $-1 $-1 $-1 $207 F #
coedge $565 $207 $372 $566 $567 reversed $208 $-1 #
coedge $568 $371 $569 $570 $571 forward $208 $-1 #
face $572 $217 $208 $11 $-1 $573 forward single #
attrib_hh_vertex_geombuild-attrib_entity_geombuild-individual_entity_attribute-attrib_HH-attrib $-1 $-1 $-1 $210 F #
point $-1 -50.000000000000099 24.999999999999801 25 #
attrib_hh_coedge_geombuild-attrib_entity_geombuild-individual_entity_attribute-attrib_HH-attrib $-1 $-1 $-1 $213 F #
coedge $574 $566 $554 $213 $378 forward $575 $-1 #
edge $576 $383 -10 $380 10 $213 $577 forward 7 unknown #
attrib_hh_edge_geombuild-attrib_entity_geombuild-individual_entity_attribute-attrib_HH-attrib $-1 $-1 $-1 $214 F #
vertex $578 $567 $579 #
straight-curve $-1 -25 0 25 0 -1 0 I I #
attrib_edge_convexity-kcp-attrib $-1 $580 $-1 $216 1 #
vertex $581 $216 $582 #
straight-curve $-1 -25 50 5 0 1 0 I I #
model_id-kcp-attrib $-1 $583 $-1 $217 1 1017635158 80 1515192321 15 #
plane-surface $-1 -25 50 25 -1 0 0 0 0 1 forward_v I I I I #
face $-1 $-1 $237 $29 $-1 $584 reversed single #
loop $-1 $-1 $403 $222 #
plane-surface $-1 0 75.000000000000014 0 0 -1 0 0 0 -1 forward_v I I I I #
coedge $-1 $585 $401 $404 $586 forward $223 $-1 #
coedge $-1 $407 $225 $226 $395 reversed $131 $-1 #
coedge $-1 $401 $585 $225 $393 reversed $223 $-1 #
edge $-1 $408 -10 $587 10 $392 $588 forward 7 unknown #
coedge $-1 $227 $226 $585 $589 forward $84 $-1 #
edge $-1 $399 -74.999999999999943 $587 74.999999999999943 $391 $590 forward 7 unknown #
coedge $-1 $404 $403 $227 $397 reversed $388 $-1 #
edge $-1 $591 -74.999999999999943 $398 74.999999999999943 $396 $592 forward 7 unknown #
vertex $-1 $229 $593 #
vertex $-1 $410 $594 #
straight-curve $-1 74.999999999999943 0 -10 0 -1 0 I I #
coedge $-1 $390 $392 $230 $402 reversed $223 $-1 #
edge $-1 $405 -75.000000000000014 $408 75.000000000000014 $401 $595 forward 7 unknown #
coedge $-1 $396 $231 $236 $411 forward $388 $-1 #
coedge $-1 $231 $396 $390 $586 reversed $388 $-1 #
vertex $-1 $232 $596 #
straight-curve $-1 0 75.000000000000014 10 -1 0 0 I I #
coedge $-1 $233 $391 $235 $410 reversed $131 $-1 #
vertex $-1 $402 $597 #
straight-curve $-1 0 -75.000000000000014 10 1 0 0 I I #
edge $-1 $238 -10 $399 10 $235 $598 forward 7 unknown #
edge $-1 $239 -10 $398 10 $236 $599 forward 7 unknown #
point $-1 74.999999999999943 -75.000000000000014 10 #
point $-1 74.999999999999943 75.000000000000014 10 #
face $-1 $-1 $600 $31 $-1 $601 reversed single #
plane-surface $-1 49.999999999999901 50.000000000000057 0 1 0 0 0 0 -1 forward_v I I I I #
coedge $-1 $251 $602 $253 $432 forward $242 $-1 #
coedge $-1 $603 $244 $602 $604 reversed $139 $-1 #
coedge $-1 $244 $603 $245 $422 forward $139 $-1 #
coedge $-1 $247 $253 $244 $420 reversed $254 $-1 #
edge $-1 $423 -56.249999999999986 $605 -6.2500000000000746 $244 $606 forward 7 unknown #
coedge $-1 $246 $245 $607 $608 reversed $88 $-1 #
edge $-1 $609 0 $423 24.999999999999901 $418 $610 forward 7 unknown #
vertex $-1 $422 $611 #
straight-curve $-1 49.999999999999901 75.000000000000014 0 0 0 -1 I I #
coedge $-1 $607 $612 $249 $426 forward $600 $-1 #
edge $613 $430 6.2500000000000746 $427 56.249999999999986 $249 $614 forward 7 unknown #
vertex $-1 $426 $615 #
straight-curve $-1 25 75.000000000000014 10 1 0 0 I I #
coedge $-1 $602 $251 $612 $616 reversed $242 $-1 #
vertex $-1 $616 $617 #
straight-curve $-1 25 25.000000000000099 10 1 0 0 I I #
edge $-1 $605 -10 $255 10 $416 $618 forward 7 unknown #
point $-1 49.999999999999901 25.000000000000099 10 #
point $-1 49.999999999999901 75.000000000000014 10 #
face $-1 $-1 $619 $33 $-1 $620 reversed single #
plane-surface $-1 50.000000000000099 -49.999999999999964 0 1 0 0 0 0 -1 forward_v I I I I #
coedge $-1 $268 $621 $270 $453 forward $259 $-1 #
coedge $-1 $622 $261 $621 $623 reversed $147 $-1 #
coedge $-1 $261 $622 $262 $443 forward $147 $-1 #
coedge $-1 $264 $270 $261 $441 reversed $271 $-1 #
edge $-1 $444 -56.250000000000043 $624 -6.2499999999999254 $261 $625 forward 7 unknown #
coedge $-1 $263 $262 $626 $627 reversed $92 $-1 #
edge $-1 $628 0 $444 25.000000000000099 $439 $629 forward 7 unknown #
vertex $-1 $443 $630 #
straight-curve $-1 50.000000000000099 -75.000000000000014 0 0 0 1 I I #
coedge $-1 $626 $631 $266 $447 forward $619 $-1 #
edge $632 $451 6.2499999999999254 $448 56.250000000000043 $266 $633 forward 7 unknown #
vertex $-1 $447 $634 #
straight-curve $-1 25 -75.000000000000014 -10 1 0 0 I I #
coedge $-1 $621 $268 $631 $635 reversed $259 $-1 #
vertex $-1 $635 $636 #
straight-curve $-1 25 -24.999999999999901 -10 1 0 0 I I #
edge $-1 $624 -5 $272 15 $437 $637 forward 7 unknown #
point $-1 50.000000000000099 -24.999999999999901 -10 #
point $-1 50.000000000000099 -75.000000000000014 -10 #
face $-1 $-1 $638 $35 $-1 $639 forward single #
plane-surface $-1 -50.000000000000099 49.999999999999964 0 1 0 0 0 0 -1 forward_v I I I I #
coedge $-1 $285 $640 $287 $474 forward $276 $-1 #
coedge $-1 $641 $278 $640 $642 reversed $155 $-1 #
coedge $-1 $278 $641 $279 $464 forward $155 $-1 #
coedge $-1 $281 $287 $278 $462 reversed $288 $-1 #
edge $-1 $465 -56.250000000000043 $643 -6.2499999999999254 $278 $644 forward 7 unknown #
coedge $-1 $280 $279 $645 $646 reversed $96 $-1 #
edge $-1 $647 0 $465 25.000000000000099 $460 $648 forward 7 unknown #
vertex $-1 $464 $649 #
straight-curve $-1 -50.000000000000099 75.000000000000014 0 0 0 1 I I #
coedge $-1 $645 $650 $283 $468 forward $638 $-1 #
edge $651 $472 6.2499999999999254 $469 56.250000000000043 $283 $652 forward 7 unknown #
vertex $-1 $468 $653 #
straight-curve $-1 -25 75.000000000000014 -10 -1 0 0 I I #
coedge $-1 $640 $285 $650 $654 reversed $276 $-1 #
vertex $-1 $654 $655 #
straight-curve $-1 -25 24.999999999999901 -10 -1 0 0 I I #
edge $-1 $643 -10 $289 10 $458 $656 forward 7 unknown #
point $-1 -50.000000000000099 24.999999999999901 -10 #
point $-1 -50.000000000000099 75.000000000000014 -10 #
face $-1 $-1 $657 $37 $-1 $658 forward single #
plane-surface $-1 -49.999999999999901 -50.000000000000064 0 1 0 0 0 0 -1 forward_v I I I I #
coedge $-1 $302 $659 $304 $495 forward $293 $-1 #
coedge $-1 $660 $295 $659 $661 reversed $163 $-1 #
coedge $-1 $295 $660 $296 $485 forward $163 $-1 #
coedge $-1 $298 $304 $295 $483 reversed $305 $-1 #
edge $-1 $486 -56.249999999999986 $662 -6.2500000000000746 $295 $663 forward 7 unknown #
coedge $-1 $297 $296 $664 $665 reversed $100 $-1 #
edge $-1 $666 0 $486 24.999999999999901 $481 $667 forward 7 unknown #
vertex $-1 $485 $668 #
straight-curve $-1 -49.999999999999901 -75.000000000000014 0 0 0 -1 I I #
coedge $-1 $664 $669 $300 $489 forward $657 $-1 #
edge $670 $493 6.2500000000000746 $490 56.249999999999986 $300 $671 forward 7 unknown #
vertex $-1 $489 $672 #
straight-curve $-1 -25 -75.000000000000014 10 -1 0 0 I I #
coedge $-1 $659 $302 $669 $673 reversed $293 $-1 #
vertex $-1 $673 $674 #
straight-curve $-1 -25 -25.000000000000099 10 -1 0 0 I I #
edge $-1 $662 -15 $306 5 $479 $675 forward 7 unknown #
point $-1 -49.999999999999901 -25.000000000000099 10 #
point $-1 -49.999999999999901 -75.000000000000014 10 #
aggregate_simgeom_attribute-aggregate_simgeom_base_attribute-aggregate_body_attribute-attrib_HH-attrib $-1 $-1 $309 $0 F #
attrib_hh_face_geombuild-attrib_entity_geombuild-individual_entity_attribute-attrib_HH-attrib $-1 $-1 $311 $173 F #
model_id-kcp-attrib $-1 $676 $-1 $312 1 1017635158 80 1515192321 8 #
face $677 $352 $678 $11 $-1 $502 reversed single #
plane-surface $-1 25 0 15 -1 0 0 0 0 1 forward_v I I I I #
coedge $679 $680 $681 $682 $683 forward $313 $-1 #
attrib_hh_coedge_geombuild-attrib_entity_geombuild-individual_entity_attribute-attrib_HH-attrib $-1 $-1 $-1 $315 F #
coedge $684 $682 $315 $569 $685 reversed $174 $-1 #
coedge $686 $315 $682 $687 $688 reversed $174 $-1 #
coedge $689 $690 $570 $315 $508 forward $678 $-1 #
edge $691 $692 -10 $693 10 $507 $694 forward 7 unknown #
attrib_hh_coedge_geombuild-attrib_entity_geombuild-individual_entity_attribute-attrib_HH-attrib $-1 $-1 $-1 $317 F #
attrib_hh_coedge_geombuild-attrib_entity_geombuild-individual_entity_attribute-attrib_HH-attrib $-1 $-1 $-1 $318 F #
attrib_hh_coedge_geombuild-attrib_entity_geombuild-individual_entity_attribute-attrib_HH-attrib $-1 $-1 $-1 $320 F #
coedge $695 $681 $680 $320 $513 forward $313 $-1 #
edge $696 $522 -10 $517 10 $320 $697 forward 7 unknown #
attrib_hh_coedge_geombuild-attrib_entity_geombuild-individual_entity_attribute-attrib_HH-attrib $-1 $-1 $-1 $321 F #
coedge $698 $321 $687 $681 $699 reversed $201 $-1 #
attrib_edge_convexity-kcp-attrib $-1 $700 $-1 $322 1 #
vertex $701 $699 $702 #
attrib_hh_coedge_geombuild-attrib_entity_geombuild-individual_entity_attribute-attrib_HH-attrib $-1 $-1 $-1 $324 F #
coedge $703 $569 $324 $680 $704 reversed $208 $-1 #
coedge $705 $324 $536 $327 $525 forward $208 $-1 #
attrib_hh_edge_geombuild-attrib_entity_geombuild-individual_entity_attribute-attrib_HH-attrib $-1 $-1 $-1 $325 F #
vertex $706 $325 $707 #
attrib_hh_coedge_geombuild-attrib_entity_geombuild-individual_entity_attribute-attrib_HH-attrib $-1 $-1 $-1 $327 F #
coedge $708 $328 $327 $709 $710 reversed $329 $-1 #
edge $711 $712 -50 $332 -24.999999999999901 $327 $713 forward 7 unknown #
attrib_hh_coedge_geombuild-attrib_entity_geombuild-individual_entity_attribute-attrib_HH-attrib $-1 $-1 $-1 $328 F #
edge $714 $331 24.999999999999901 $715 50 $328 $716 forward 7 unknown #
attrib_hh_vertex_geombuild-attrib_entity_geombuild-individual_entity_attribute-attrib_HH-attrib $-1 $-1 $-1 $331 F #
point $-1 25 -24.999999999999901 5 #
attrib_hh_vertex_geombuild-attrib_entity_geombuild-individual_entity_attribute-attrib_HH-attrib $-1 $-1 $-1 $332 F #
point $-1 25 -24.999999999999901 25 #
attrib_hh_coedge_geombuild-attrib_entity_geombuild-individual_entity_attribute-attrib_HH-attrib $-1 $-1 $-1 $335 F #
attrib_hh_edge_geombuild-attrib_entity_geombuild-individual_entity_attribute-attrib_HH-attrib $-1 $-1 $-1 $336 F #
straight-curve $-1 -49.999999999999901 -25.000000000000199 15 0 0 1 I I #
attrib_hh_coedge_geombuild-attrib_entity_geombuild-individual_entity_attribute-attrib_HH-attrib $-1 $-1 $-1 $338 F #
coedge $717 $520 $338 $718 $719 reversed $208 $-1 #
attrib_hh_vertex_geombuild-attrib_entity_geombuild-individual_entity_attribute-attrib_HH-attrib $-1 $-1 $-1 $340 F #
point $-1 -49.999999999999901 -25.000000000000199 25 #
attrib_hh_coedge_geombuild-attrib_entity_geombuild-individual_entity_attribute-attrib_HH-attrib $-1 $-1 $-1 $343 F #
coedge $720 $343 $363 $721 $722 reversed $201 $-1 #
convexity-sys-attrib $-1 $723 $344 $187 #
attrib_hh_vertex_geombuild-attrib_entity_geombuild-individual_entity_attribute-attrib_HH-attrib $-1 $-1 $-1 $345 F #
point $-1 -49.999999999999901 -25.000000000000199 5 #
attrib_hh_coedge_geombuild-attrib_entity_geombuild-individual_entity_attribute-attrib_HH-attrib $-1 $-1 $-1 $348 F #
coedge $724 $721 $718 $348 $546 forward $725 $-1 #
edge $726 $550 -10 $548 10 $348 $727 forward 7 unknown #
attrib_edge_convexity-kcp-attrib $-1 $728 $-1 $349 1 #
vertex $729 $722 $730 #
attrib_hh_edge_geombuild-attrib_entity_geombuild-individual_entity_attribute-attrib_HH-attrib $-1 $-1 $-1 $351 F #
vertex $731 $351 $732 #
model_id-kcp-attrib $-1 $733 $-1 $352 1 1017635158 80 1515192321 10 #
attrib_hh_coedge_geombuild-attrib_entity_geombuild-individual_entity_attribute-attrib_HH-attrib $-1 $-1 $-1 $360 F #
coedge $734 $687 $360 $690 $735 forward $201 $-1 #
coedge $736 $377 $737 $360 $555 forward $575 $-1 #
edge $738 $739 -2.3561944901923448 $383 0.78539816339744828 $360 $740 forward 7 unknown #
attrib_edge_convexity-kcp-attrib $-1 $741 $-1 $362 1 #
ellipse-curve $-1 -50 -1.74574066942157e-013 5 0 0 1 -17.6776695296636 -17.677669529663699 0 1 I I #
attrib_hh_coedge_geombuild-attrib_entity_geombuild-individual_entity_attribute-attrib_HH-attrib $-1 $-1 $-1 $363 F #
model_id-kcp-attrib $-1 $742 $-1 $364 1 1017635158 80 1515192321 11 #
face $743 $744 $575 $11 $-1 $745 forward single #
plane-surface $-1 25 -50 5 0 0 -1 -1 0 0 forward_v I I I I #
attrib_hh_edge_geombuild-attrib_entity_geombuild-individual_entity_attribute-attrib_HH-attrib $-1 $-1 $365 $118 F #
attrib_hh_edge_geombuild-attrib_entity_geombuild-individual_entity_attribute-attrib_HH-attrib $-1 $-1 $-1 $369 F #
ellipse-curve $-1 -50 -1.74574066942157e-013 25 0 0 -1 -17.677669529663699 17.6776695296636 0 1 I I #
attrib_hh_coedge_geombuild-attrib_entity_geombuild-individual_entity_attribute-attrib_HH-attrib $-1 $-1 $-1 $371 F #
coedge $746 $737 $377 $371 $567 forward $575 $-1 #
edge $747 $380 -2.3561944901923448 $748 0.78539816339744828 $371 $749 forward 7 unknown #
attrib_hh_coedge_geombuild-attrib_entity_geombuild-individual_entity_attribute-attrib_HH-attrib $-1 $-1 $-1 $372 F #
coedge $750 $372 $519 $505 $685 forward $208 $-1 #
coedge $751 $507 $752 $372 $571 reversed $678 $-1 #
edge $753 $692 25.000000000000099 $748 50 $570 $713 forward 7 unknown #
model_id-kcp-attrib $-1 $754 $-1 $373 1 1017635158 80 1515192321 14 #
plane-surface $-1 -25 -50 25 0 0 1 1 0 0 forward_v I I I I #
attrib_hh_coedge_geombuild-attrib_entity_geombuild-individual_entity_attribute-attrib_HH-attrib $-1 $-1 $-1 $377 F #
loop $-1 $-1 $737 $560 #
attrib_hh_edge_geombuild-attrib_entity_geombuild-individual_entity_attribute-attrib_HH-attrib $-1 $-1 $-1 $378 F #
straight-curve $-1 -25 50 15 0 0 1 I I #
attrib_hh_vertex_geombuild-attrib_entity_geombuild-individual_entity_attribute-attrib_HH-attrib $-1 $-1 $-1 $380 F #
point $-1 -25 50 25 #
convexity-sys-attrib $-1 $755 $382 $216 #
attrib_hh_vertex_geombuild-attrib_entity_geombuild-individual_entity_attribute-attrib_HH-attrib $-1 $-1 $-1 $383 F #
point $-1 -25 50 5 #
attrib_hh_face_geombuild-attrib_entity_geombuild-individual_entity_attribute-attrib_HH-attrib $-1 $-1 $385 $217 F #
plane-surface $-1 74.999999999999943 0 0 -1 0 0 0 0 1 forward_v I I I I #
coedge $-1 $392 $390 $394 $589 reversed $223 $-1 #
edge $-1 $405 -10 $591 10 $404 $756 forward 7 unknown #
vertex $-1 $589 $757 #
straight-curve $-1 -74.999999999999943 -75.000000000000014 0 0 0 -1 I I #
edge $-1 $587 -75.000000000000014 $591 75.000000000000014 $585 $758 forward 7 unknown #
straight-curve $-1 0 -75.000000000000014 -10 -1 0 0 I I #
vertex $-1 $397 $759 #
straight-curve $-1 0 75.000000000000014 -10 1 0 0 I I #
point $-1 74.999999999999943 75.000000000000014 -10 #
point $-1 74.999999999999943 -75.000000000000014 -10 #
straight-curve $-1 -74.999999999999943 0 10 0 -1 0 I I #
point $-1 -74.999999999999943 75.000000000000014 10 #
point $-1 -74.999999999999943 -75.000000000000014 10 #
straight-curve $-1 74.999999999999943 -75.000000000000014 0 0 0 -1 I I #
straight-curve $-1 74.999999999999943 75.000000000000014 0 0 0 -1 I I #
loop $-1 $-1 $612 $414 #
plane-surface $-1 25 50.000000000000057 0 1 0 0 0 0 -1 forward_v I I I I #
coedge $-1 $416 $429 $417 $604 forward $242 $-1 #
coedge $-1 $418 $417 $760 $761 reversed $139 $-1 #
edge $-1 $762 0 $605 24.999999999999901 $602 $763 forward 7 unknown #
vertex $-1 $604 $764 #
straight-curve $-1 49.999999999999901 18.750000000000025 -10 0 -1 0 I I #
coedge $-1 $760 $425 $421 $608 forward $600 $-1 #
edge $765 $427 -10 $609 10 $421 $766 forward 7 unknown #
vertex $-1 $608 $767 #
straight-curve $-1 25 75.000000000000014 -10 1 0 0 I I #
point $-1 49.999999999999901 75.000000000000014 -10 #
coedge $-1 $425 $760 $429 $616 forward $600 $-1 #
convexity-sys-attrib $-1 $-1 $-1 $426 #
straight-curve $-1 25 18.750000000000025 10 0 1 0 I I #
point $-1 25 75.000000000000014 10 #
edge $768 $762 -10 $430 10 $429 $769 forward 7 unknown #
point $-1 25 25.000000000000099 10 #
straight-curve $-1 49.999999999999901 25.000000000000085 0 0 0 1 I I #
loop $-1 $-1 $631 $435 #
plane-surface $-1 25 -49.999999999999964 0 1 0 0 0 0 -1 forward_v I I I I #
coedge $-1 $437 $450 $438 $623 forward $259 $-1 #
coedge $-1 $439 $438 $770 $771 reversed $147 $-1 #
edge $-1 $772 0 $624 25.000000000000099 $621 $773 forward 7 unknown #
vertex $-1 $623 $774 #
straight-curve $-1 50.000000000000099 -18.749999999999975 10 0 1 0 I I #
coedge $-1 $770 $446 $442 $627 forward $619 $-1 #
edge $775 $448 -10 $628 10 $442 $776 forward 7 unknown #
vertex $-1 $627 $777 #
straight-curve $-1 25 -75.000000000000014 10 1 0 0 I I #
point $-1 50.000000000000099 -75.000000000000014 10 #
coedge $-1 $446 $770 $450 $635 forward $619 $-1 #
convexity-sys-attrib $-1 $-1 $-1 $447 #
straight-curve $-1 25 -18.749999999999975 -10 0 -1 0 I I #
point $-1 25 -75.000000000000014 -10 #
edge $778 $772 -5 $451 15 $450 $779 forward 7 unknown #
point $-1 25 -24.999999999999901 -10 #
straight-curve $-1 50.000000000000099 -24.999999999999936 5 0 0 -1 I I #
loop $-1 $-1 $650 $456 #
plane-surface $-1 -25 49.999999999999964 0 1 0 0 0 0 -1 forward_v I I I I #
coedge $-1 $458 $471 $459 $642 forward $276 $-1 #
coedge $-1 $460 $459 $780 $781 reversed $155 $-1 #
edge $-1 $782 0 $643 25.000000000000099 $640 $783 forward 7 unknown #
vertex $-1 $642 $784 #
straight-curve $-1 -50.000000000000099 18.749999999999975 10 0 -1 0 I I #
coedge $-1 $780 $467 $463 $646 forward $638 $-1 #
edge $785 $469 -10 $647 10 $463 $786 forward 7 unknown #
vertex $-1 $646 $787 #
straight-curve $-1 -25 75.000000000000014 10 -1 0 0 I I #
point $-1 -50.000000000000099 75.000000000000014 10 #
coedge $-1 $467 $780 $471 $654 forward $638 $-1 #
convexity-sys-attrib $-1 $-1 $-1 $468 #
straight-curve $-1 -25 18.749999999999975 -10 0 1 0 I I #
point $-1 -25 75.000000000000014 -10 #
edge $788 $782 -10 $472 10 $471 $789 forward 7 unknown #
point $-1 -25 24.999999999999901 -10 #
straight-curve $-1 -50.000000000000099 24.999999999999915 0 0 0 -1 I I #
loop $-1 $-1 $669 $477 #
plane-surface $-1 -25 -50.000000000000064 0 1 0 0 0 0 -1 forward_v I I I I #
coedge $-1 $479 $492 $480 $661 forward $293 $-1 #
coedge $-1 $481 $480 $790 $791 reversed $163 $-1 #
edge $-1 $792 0 $662 24.999999999999901 $659 $793 forward 7 unknown #
vertex $-1 $661 $794 #
straight-curve $-1 -49.999999999999901 -18.750000000000025 -10 0 1 0 I I #
coedge $-1 $790 $488 $484 $665 forward $657 $-1 #
edge $795 $490 -10 $666 10 $484 $796 forward 7 unknown #
vertex $-1 $665 $797 #
straight-curve $-1 -25 -75.000000000000014 -10 -1 0 0 I I #
point $-1 -49.999999999999901 -75.000000000000014 -10 #
coedge $-1 $488 $790 $492 $673 forward $657 $-1 #
convexity-sys-attrib $-1 $-1 $-1 $489 #
straight-curve $-1 -25 -18.750000000000025 10 0 -1 0 I I #
point $-1 -25 -75.000000000000014 10 #
edge $798 $792 -15 $493 5 $492 $799 forward 7 unknown #
point $-1 -25 -25.000000000000099 10 #
straight-curve $-1 -49.999999999999901 -25.000000000000114 5 0 0 1 I I #
attrib_hh_face_geombuild-attrib_entity_geombuild-individual_entity_attribute-attrib_HH-attrib $-1 $-1 $500 $312 F #
model_id-kcp-attrib $-1 $800 $-1 $501 1 1017635158 80 1515192321 9 #
loop $-1 $-1 $507 $501 #
attrib_hh_coedge_geombuild-attrib_entity_geombuild-individual_entity_attribute-attrib_HH-attrib $-1 $-1 $-1 $503 F #
coedge $801 $512 $503 $519 $704 forward $313 $-1 #
coedge $802 $503 $512 $515 $699 forward $313 $-1 #
coedge $803 $506 $505 $503 $683 reversed $174 $-1 #
edge $804 $805 -10 $806 10 $682 $807 forward 7 unknown #
attrib_hh_coedge_geombuild-attrib_entity_geombuild-individual_entity_attribute-attrib_HH-attrib $-1 $-1 $-1 $505 F #
edge $808 $806 -49.999999999999986 $692 -25.000000000000089 $505 $211 forward 7 unknown #
attrib_hh_coedge_geombuild-attrib_entity_geombuild-individual_entity_attribute-attrib_HH-attrib $-1 $-1 $-1 $506 F #
coedge $809 $515 $553 $506 $688 forward $201 $-1 #
edge $810 $693 25.000000000000089 $805 49.999999999999986 $506 $204 forward 7 unknown #
attrib_hh_coedge_geombuild-attrib_entity_geombuild-individual_entity_attribute-attrib_HH-attrib $-1 $-1 $-1 $507 F #
coedge $811 $752 $507 $553 $735 reversed $678 $-1 #
attrib_hh_edge_geombuild-attrib_entity_geombuild-individual_entity_attribute-attrib_HH-attrib $-1 $-1 $-1 $508 F #
vertex $812 $571 $813 #
vertex $814 $735 $815 #
straight-curve $-1 25 25.000000000000099 15 0 0 -1 I I #
attrib_hh_coedge_geombuild-attrib_entity_geombuild-individual_entity_attribute-attrib_HH-attrib $-1 $-1 $-1 $512 F #
attrib_hh_edge_geombuild-attrib_entity_geombuild-individual_entity_attribute-attrib_HH-attrib $-1 $-1 $-1 $513 F #
straight-curve $-1 50.000000000000099 -24.999999999999801 15 0 0 -1 I I #
attrib_hh_coedge_geombuild-attrib_entity_geombuild-individual_entity_attribute-attrib_HH-attrib $-1 $-1 $-1 $515 F #
edge $816 $517 -2.3561944901923439 $805 0.78539816339744939 $515 $817 forward 7 unknown #
convexity-sys-attrib $-1 $818 $516 $322 #
attrib_hh_vertex_geombuild-attrib_entity_geombuild-individual_entity_attribute-attrib_HH-attrib $-1 $-1 $-1 $517 F #
point $-1 50.000000000000099 -24.999999999999801 5 #
attrib_hh_coedge_geombuild-attrib_entity_geombuild-individual_entity_attribute-attrib_HH-attrib $-1 $-1 $-1 $519 F #
edge $819 $806 -2.3561944901923462 $522 0.78539816339744706 $519 $820 forward 7 unknown #
attrib_hh_coedge_geombuild-attrib_entity_geombuild-individual_entity_attribute-attrib_HH-attrib $-1 $-1 $-1 $520 F #
attrib_hh_vertex_geombuild-attrib_entity_geombuild-individual_entity_attribute-attrib_HH-attrib $-1 $-1 $-1 $522 F #
point $-1 50.000000000000099 -24.999999999999801 25 #
attrib_hh_coedge_geombuild-attrib_entity_geombuild-individual_entity_attribute-attrib_HH-attrib $-1 $-1 $-1 $524 F #
coedge $821 $718 $721 $524 $710 forward $725 $-1 #
edge $822 $715 -10 $712 10 $524 $823 forward 7 unknown #
attrib_hh_edge_geombuild-attrib_entity_geombuild-individual_entity_attribute-attrib_HH-attrib $-1 $-1 $-1 $525 F #
vertex $824 $710 $825 #
straight-curve $-1 25 0 25 0 1 0 I I #
attrib_edge_convexity-kcp-attrib $-1 $826 $-1 $527 1 #
vertex $827 $527 $828 #
straight-curve $-1 25 0 5 0 -1 0 I I #
attrib_hh_coedge_geombuild-attrib_entity_geombuild-individual_entity_attribute-attrib_HH-attrib $-1 $-1 $-1 $536 F #
coedge $829 $545 $709 $536 $719 forward $725 $-1 #
edge $830 $712 -2.3561944901923448 $550 0.78539816339744828 $536 $831 forward 7 unknown #
attrib_hh_coedge_geombuild-attrib_entity_geombuild-individual_entity_attribute-attrib_HH-attrib $-1 $-1 $-1 $540 F #
coedge $832 $709 $545 $540 $722 forward $725 $-1 #
edge $833 $548 -2.3561944901923448 $715 0.78539816339744828 $540 $834 forward 7 unknown #
attrib_hh_edge_geombuild-attrib_entity_geombuild-individual_entity_attribute-attrib_HH-attrib $-1 $-1 $541 $187 F #
attrib_hh_coedge_geombuild-attrib_entity_geombuild-individual_entity_attribute-attrib_HH-attrib $-1 $-1 $-1 $545 F #
loop $-1 $-1 $709 $744 #
attrib_hh_edge_geombuild-attrib_entity_geombuild-individual_entity_attribute-attrib_HH-attrib $-1 $-1 $-1 $546 F #
straight-curve $-1 -25 -50 15 0 0 -1 I I #
convexity-sys-attrib $-1 $835 $547 $349 #
attrib_hh_vertex_geombuild-attrib_entity_geombuild-individual_entity_attribute-attrib_HH-attrib $-1 $-1 $-1 $548 F #
point $-1 -25 -50 5 #
attrib_hh_vertex_geombuild-attrib_entity_geombuild-individual_entity_attribute-attrib_HH-attrib $-1 $-1 $-1 $550 F #
point $-1 -25 -50 25 #
attrib_hh_face_geombuild-attrib_entity_geombuild-individual_entity_attribute-attrib_HH-attrib $-1 $-1 $551 $352 F #
attrib_hh_coedge_geombuild-attrib_entity_geombuild-individual_entity_attribute-attrib_HH-attrib $-1 $-1 $-1 $553 F #
edge $836 $739 -50 $693 -25.000000000000099 $690 $716 forward 7 unknown #
attrib_hh_coedge_geombuild-attrib_entity_geombuild-individual_entity_attribute-attrib_HH-attrib $-1 $-1 $-1 $554 F #
coedge $837 $554 $566 $752 $838 forward $575 $-1 #
attrib_edge_convexity-kcp-attrib $-1 $839 $-1 $555 1 #
vertex $840 $838 $841 #
ellipse-curve $-1 0 50 5 0 0 1 -17.677669529663699 17.677669529663699 0 1 I I #
convexity-sys-attrib $-1 $842 $556 $362 #
attrib_hh_face_geombuild-attrib_entity_geombuild-individual_entity_attribute-attrib_HH-attrib $-1 $-1 $559 $364 F #
model_id-kcp-attrib $-1 $843 $-1 $560 1 1017635158 80 1515192321 12 #
face $844 $373 $725 $11 $-1 $845 forward single #
cone-surface $-1 0 50 15 0 0 1 17.677669529663699 17.677669529663699 0 1 I I 0 1 25.000000000000014 forward I I I I #
attrib_hh_coedge_geombuild-attrib_entity_geombuild-individual_entity_attribute-attrib_HH-attrib $-1 $-1 $-1 $566 F #
attrib_hh_edge_geombuild-attrib_entity_geombuild-individual_entity_attribute-attrib_HH-attrib $-1 $-1 $-1 $567 F #
vertex $846 $571 $847 #
ellipse-curve $-1 0 50 25 0 0 -1 17.677669529663699 17.677669529663699 0 1 I I #
attrib_hh_coedge_geombuild-attrib_entity_geombuild-individual_entity_attribute-attrib_HH-attrib $-1 $-1 $-1 $569 F #
attrib_hh_coedge_geombuild-attrib_entity_geombuild-individual_entity_attribute-attrib_HH-attrib $-1 $-1 $-1 $570 F #
coedge $848 $570 $690 $737 $838 reversed $678 $-1 #
attrib_hh_edge_geombuild-attrib_entity_geombuild-individual_entity_attribute-attrib_HH-attrib $-1 $-1 $-1 $571 F #
attrib_hh_face_geombuild-attrib_entity_geombuild-individual_entity_attribute-attrib_HH-attrib $-1 $-1 $572 $373 F #
attrib_hh_edge_geombuild-attrib_entity_geombuild-individual_entity_attribute-attrib_HH-attrib $-1 $-1 $580 $216 F #
straight-curve $-1 -74.999999999999943 75.000000000000014 0 0 0 -1 I I #
point $-1 -74.999999999999943 -75.000000000000014 -10 #
straight-curve $-1 -74.999999999999943 0 -10 0 1 0 I I #
point $-1 -74.999999999999943 75.000000000000014 -10 #
coedge $-1 $612 $607 $603 $761 forward $600 $-1 #
edge $849 $609 -56.249999999999986 $762 -6.2500000000000746 $603 $850 forward 7 unknown #
vertex $-1 $616 $851 #
straight-curve $-1 25 25.000000000000099 -10 1 0 0 I I #
point $-1 49.999999999999901 25.000000000000099 -10 #
convexity-sys-attrib $-1 $-1 $-1 $608 #
straight-curve $-1 25 75.000000000000014 0 0 0 -1 I I #
point $-1 25 75.000000000000014 -10 #
convexity-sys-attrib $-1 $-1 $-1 $616 #
straight-curve $-1 25 25.000000000000085 0 0 0 1 I I #
coedge $-1 $631 $626 $622 $771 forward $619 $-1 #
edge $852 $628 -56.250000000000043 $772 -6.2499999999999254 $622 $853 forward 7 unknown #
vertex $-1 $635 $854 #
straight-curve $-1 25 -24.999999999999901 10 1 0 0 I I #
point $-1 50.000000000000099 -24.999999999999901 10 #
convexity-sys-attrib $-1 $-1 $-1 $627 #
straight-curve $-1 25 -75.000000000000014 0 0 0 1 I I #
point $-1 25 -75.000000000000014 10 #
convexity-sys-attrib $-1 $-1 $-1 $635 #
straight-curve $-1 25 -24.999999999999936 5 0 0 -1 I I #
coedge $-1 $650 $645 $641 $781 forward $638 $-1 #
edge $855 $647 -56.250000000000043 $782 -6.2499999999999254 $641 $856 forward 7 unknown #
vertex $-1 $654 $857 #
straight-curve $-1 -25 24.999999999999901 10 -1 0 0 I I #
point $-1 -50.000000000000099 24.999999999999901 10 #
convexity-sys-attrib $-1 $-1 $-1 $646 #
straight-curve $-1 -25 75.000000000000014 0 0 0 1 I I #
point $-1 -25 75.000000000000014 10 #
convexity-sys-attrib $-1 $-1 $-1 $654 #
straight-curve $-1 -25 24.999999999999915 0 0 0 -1 I I #
coedge $-1 $669 $664 $660 $791 forward $657 $-1 #
edge $858 $666 -56.249999999999986 $792 -6.2500000000000746 $660 $859 forward 7 unknown #
vertex $-1 $673 $860 #
straight-curve $-1 -25 -25.000000000000099 -10 -1 0 0 I I #
point $-1 -49.999999999999901 -25.000000000000099 -10 #
convexity-sys-attrib $-1 $-1 $-1 $665 #
straight-curve $-1 -25 -75.000000000000014 0 0 0 -1 I I #
point $-1 -25 -75.000000000000014 -10 #
convexity-sys-attrib $-1 $-1 $-1 $673 #
straight-curve $-1 -25 -25.000000000000114 5 0 0 1 I I #
attrib_hh_face_geombuild-attrib_entity_geombuild-individual_entity_attribute-attrib_HH-attrib $-1 $-1 $677 $501 F #
attrib_hh_coedge_geombuild-attrib_entity_geombuild-individual_entity_attribute-attrib_HH-attrib $-1 $-1 $-1 $680 F #
attrib_hh_coedge_geombuild-attrib_entity_geombuild-individual_entity_attribute-attrib_HH-attrib $-1 $-1 $-1 $681 F #
attrib_hh_coedge_geombuild-attrib_entity_geombuild-individual_entity_attribute-attrib_HH-attrib $-1 $-1 $-1 $682 F #
attrib_hh_edge_geombuild-attrib_entity_geombuild-individual_entity_attribute-attrib_HH-attrib $-1 $-1 $-1 $683 F #
vertex $861 $688 $862 #
vertex $863 $683 $864 #
straight-curve $-1 49.999999999999901 25.000000000000199 15 0 0 1 I I #
attrib_hh_edge_geombuild-attrib_entity_geombuild-individual_entity_attribute-attrib_HH-attrib $-1 $-1 $-1 $685 F #
attrib_hh_coedge_geombuild-attrib_entity_geombuild-individual_entity_attribute-attrib_HH-attrib $-1 $-1 $-1 $687 F #
attrib_edge_convexity-kcp-attrib $-1 $865 $-1 $688 1 #
attrib_hh_coedge_geombuild-attrib_entity_geombuild-individual_entity_attribute-attrib_HH-attrib $-1 $-1 $-1 $690 F #
attrib_hh_vertex_geombuild-attrib_entity_geombuild-individual_entity_attribute-attrib_HH-attrib $-1 $-1 $-1 $692 F #
point $-1 25 25.000000000000099 25 #
attrib_hh_vertex_geombuild-attrib_entity_geombuild-individual_entity_attribute-attrib_HH-attrib $-1 $-1 $-1 $693 F #
point $-1 25 25.000000000000099 5 #
attrib_edge_convexity-kcp-attrib $-1 $866 $-1 $699 1 #
ellipse-curve $-1 50 1.74574066942157e-013 5 0 0 1 17.6776695296636 17.677669529663699 0 1 I I #
attrib_hh_edge_geombuild-attrib_entity_geombuild-individual_entity_attribute-attrib_HH-attrib $-1 $-1 $700 $322 F #
attrib_hh_edge_geombuild-attrib_entity_geombuild-individual_entity_attribute-attrib_HH-attrib $-1 $-1 $-1 $704 F #
ellipse-curve $-1 50 1.74574066942157e-013 25 0 0 -1 17.677669529663699 -17.6776695296636 0 1 I I #
attrib_hh_coedge_geombuild-attrib_entity_geombuild-individual_entity_attribute-attrib_HH-attrib $-1 $-1 $-1 $709 F #
attrib_hh_edge_geombuild-attrib_entity_geombuild-individual_entity_attribute-attrib_HH-attrib $-1 $-1 $-1 $710 F #
straight-curve $-1 25 -50 15 0 0 1 I I #
attrib_hh_vertex_geombuild-attrib_entity_geombuild-individual_entity_attribute-attrib_HH-attrib $-1 $-1 $-1 $712 F #
point $-1 25 -50 25 #
convexity-sys-attrib $-1 $867 $714 $527 #
attrib_hh_vertex_geombuild-attrib_entity_geombuild-individual_entity_attribute-attrib_HH-attrib $-1 $-1 $-1 $715 F #
point $-1 25 -50 5 #
attrib_hh_coedge_geombuild-attrib_entity_geombuild-individual_entity_attribute-attrib_HH-attrib $-1 $-1 $-1 $718 F #
attrib_hh_edge_geombuild-attrib_entity_geombuild-individual_entity_attribute-attrib_HH-attrib $-1 $-1 $-1 $719 F #
ellipse-curve $-1 0 -50 25 0 0 -1 -17.677669529663699 -17.677669529663699 0 1 I I #
attrib_hh_coedge_geombuild-attrib_entity_geombuild-individual_entity_attribute-attrib_HH-attrib $-1 $-1 $-1 $721 F #
attrib_edge_convexity-kcp-attrib $-1 $868 $-1 $722 1 #
ellipse-curve $-1 0 -50 5 0 0 1 17.677669529663699 -17.677669529663699 0 1 I I #
attrib_hh_edge_geombuild-attrib_entity_geombuild-individual_entity_attribute-attrib_HH-attrib $-1 $-1 $728 $349 F #
attrib_edge_convexity-kcp-attrib $-1 $869 $-1 $735 1 #
attrib_hh_coedge_geombuild-attrib_entity_geombuild-individual_entity_attribute-attrib_HH-attrib $-1 $-1 $-1 $737 F #
edge $870 $748 -10 $739 10 $752 $871 forward 7 unknown #
convexity-sys-attrib $-1 $872 $738 $555 #
attrib_hh_vertex_geombuild-attrib_entity_geombuild-individual_entity_attribute-attrib_HH-attrib $-1 $-1 $-1 $739 F #
point $-1 25 50 5 #
attrib_hh_edge_geombuild-attrib_entity_geombuild-individual_entity_attribute-attrib_HH-attrib $-1 $-1 $741 $362 F #
attrib_hh_face_geombuild-attrib_entity_geombuild-individual_entity_attribute-attrib_HH-attrib $-1 $-1 $743 $560 F #
model_id-kcp-attrib $-1 $873 $-1 $744 1 1017635158 80 1515192321 13 #
cone-surface $-1 0 -50 15 0 0 -1 17.677669529663699 -17.677669529663699 0 1 I I 0 1 25.000000000000014 forward I I I I #
attrib_hh_vertex_geombuild-attrib_entity_geombuild-individual_entity_attribute-attrib_HH-attrib $-1 $-1 $-1 $748 F #
point $-1 25 50 25 #
attrib_hh_coedge_geombuild-attrib_entity_geombuild-individual_entity_attribute-attrib_HH-attrib $-1 $-1 $-1 $752 F #
convexity-sys-attrib $-1 $-1 $-1 $761 #
straight-curve $-1 25 18.750000000000025 -10 0 -1 0 I I #
point $-1 25 25.000000000000099 -10 #
convexity-sys-attrib $-1 $-1 $-1 $771 #
straight-curve $-1 25 -18.749999999999975 10 0 1 0 I I #
point $-1 25 -24.999999999999901 10 #
convexity-sys-attrib $-1 $-1 $-1 $781 #
straight-curve $-1 -25 18.749999999999975 10 0 -1 0 I I #
point $-1 -25 24.999999999999901 10 #
convexity-sys-attrib $-1 $-1 $-1 $791 #
straight-curve $-1 -25 -18.750000000000025 -10 0 1 0 I I #
point $-1 -25 -25.000000000000099 -10 #
attrib_hh_vertex_geombuild-attrib_entity_geombuild-individual_entity_attribute-attrib_HH-attrib $-1 $-1 $-1 $805 F #
point $-1 49.999999999999901 25.000000000000199 5 #
attrib_hh_vertex_geombuild-attrib_entity_geombuild-individual_entity_attribute-attrib_HH-attrib $-1 $-1 $-1 $806 F #
point $-1 49.999999999999901 25.000000000000199 25 #
convexity-sys-attrib $-1 $874 $810 $688 #
convexity-sys-attrib $-1 $875 $816 $699 #
attrib_hh_edge_geombuild-attrib_entity_geombuild-individual_entity_attribute-attrib_HH-attrib $-1 $-1 $826 $527 F #
convexity-sys-attrib $-1 $876 $833 $722 #
convexity-sys-attrib $-1 $877 $836 $735 #
attrib_hh_edge_geombuild-attrib_entity_geombuild-individual_entity_attribute-attrib_HH-attrib $-1 $-1 $-1 $838 F #
straight-curve $-1 25 50 15 0 0 -1 I I #
attrib_hh_edge_geombuild-attrib_entity_geombuild-individual_entity_attribute-attrib_HH-attrib $-1 $-1 $839 $555 F #
attrib_hh_face_geombuild-attrib_entity_geombuild-individual_entity_attribute-attrib_HH-attrib $-1 $-1 $844 $744 F #
attrib_hh_edge_geombuild-attrib_entity_geombuild-individual_entity_attribute-attrib_HH-attrib $-1 $-1 $865 $688 F #
attrib_hh_edge_geombuild-attrib_entity_geombuild-individual_entity_attribute-attrib_HH-attrib $-1 $-1 $866 $699 F #
attrib_hh_edge_geombuild-attrib_entity_geombuild-individual_entity_attribute-attrib_HH-attrib $-1 $-1 $868 $722 F #
attrib_hh_edge_geombuild-attrib_entity_geombuild-individual_entity_attribute-attrib_HH-attrib $-1 $-1 $869 $735 F #
End-of-ACIS-data 