105 226 1 0                             
body $-1 $1 $-1 $2 #
lump $-1 $-1 $3 $0 #
transform $-1 1 0 0 0 1 0 0 0 1 0 0 15 1 0 0 0 #
shell $-1 $-1 $-1 $4 $1 #
face $-1 $5 $6 $3 $-1 $7 reversed single #
face $-1 $8 $9 $3 $-1 $10 forward single #
loop $-1 $-1 $11 $4 #
plane-surface $-1 -8.72870334710783e-14 25 0 3.49148133884313e-15 -1 0 0 0 1 0 #
face $-1 $12 $13 $3 $-1 $10 forward single #
loop $-1 $-1 $14 $5 #
plane-surface $-1 -49.9999999999999 -25.0000000000002 10 3.49148133884313e-15 -1 0 0 0 1 0 #
coedge $-1 $15 $16 $17 $18 1 $6 $-1 #
face $-1 $19 $20 $3 $-1 $21 forward single #
loop $-1 $-1 $22 $8 #
coedge $-1 $23 $24 $25 $26 1 $9 $-1 #
coedge $-1 $27 $11 $28 $29 1 $6 $-1 #
coedge $-1 $11 $27 $30 $31 1 $6 $-1 #
coedge $-1 $32 $33 $11 $18 0 $34 $-1 #
edge $-1 $35 $36 $17 $37 0 #
face $-1 $38 $39 $3 $-1 $7 reversed single #
loop $-1 $-1 $40 $12 #
cone-surface $-1 -50 -1.74574066942157e-13 0 0 0 1 -17.6776695296637 17.6776695296636 0 1 0 1 0 #
coedge $-1 $41 $42 $43 $44 1 $13 $-1 #
coedge $-1 $45 $14 $46 $47 1 $9 $-1 #
coedge $-1 $14 $45 $48 $49 1 $9 $-1 #
coedge $-1 $50 $51 $14 $26 0 $52 $-1 #
edge $-1 $53 $54 $25 $55 0 #
coedge $-1 $16 $15 $40 $56 1 $6 $-1 #
coedge $-1 $57 $58 $15 $29 0 $59 $-1 #
edge $-1 $60 $35 $15 $61 0 #
coedge $-1 $62 $63 $16 $31 0 $64 $-1 #
edge $-1 $36 $65 $16 $66 0 #
coedge $-1 $67 $17 $63 $68 1 $34 $-1 #
coedge $-1 $17 $67 $57 $69 1 $34 $-1 #
loop $-1 $-1 $17 $70 #
vertex $-1 $69 $71 #
vertex $-1 $68 $72 #
straight-curve $-1 -25 24.9999999999999 5 0 0 1 #
face $-1 $73 $74 $3 $-1 $75 forward single #
loop $-1 $-1 $76 $19 #
coedge $-1 $77 $78 $27 $56 0 $20 $-1 #
coedge $-1 $79 $22 $80 $81 1 $13 $-1 #
coedge $-1 $22 $79 $82 $83 1 $13 $-1 #
coedge $-1 $84 $85 $22 $44 0 $86 $-1 #
edge $-1 $87 $88 $43 $89 0 #
coedge $-1 $24 $23 $90 $91 1 $9 $-1 #
coedge $-1 $92 $62 $23 $47 0 $64 $-1 #
edge $-1 $93 $53 $23 $94 0 #
coedge $-1 $58 $95 $24 $49 0 $59 $-1 #
edge $-1 $54 $96 $48 $97 0 #
coedge $-1 $98 $25 $95 $99 1 $52 $-1 #
coedge $-1 $25 $98 $92 $100 1 $52 $-1 #
loop $-1 $-1 $25 $101 #
vertex $-1 $100 $102 #
vertex $-1 $99 $103 #
straight-curve $-1 -25 -25.0000000000001 10 -0 -0 -1 #
edge $-1 $65 $60 $27 $104 0 #
coedge $-1 $105 $28 $33 $69 0 $59 $-1 #
coedge $-1 $28 $48 $77 $106 1 $59 $-1 #
loop $-1 $-1 $107 $108 #
vertex $-1 $56 $109 #
straight-curve $-1 -8.72870334710783e-14 25 -10 1 3.49148133884313e-15 0 #
coedge $-1 $46 $30 $78 $110 1 $64 $-1 #
coedge $-1 $30 $111 $32 $68 0 $64 $-1 #
loop $-1 $-1 $112 $113 #
vertex $-1 $31 $114 #
straight-curve $-1 -8.72870334710783e-14 25 10 -1 -3.49148133884313e-15 0 #
coedge $-1 $33 $32 $115 $116 1 $34 $-1 #
edge $-1 $117 $36 $32 $118 0 #
edge $-1 $35 $119 $57 $120 0 #
face $-1 $-1 $34 $3 $-1 $121 forward single #
point $-1 -25 24.9999999999999 -10 #
point $-1 -25 24.9999999999999 10 #
face $-1 $122 $86 $3 $-1 $123 reversed single #
loop $-1 $-1 $124 $38 #
cone-surface $-1 50 1.74574066942157e-13 0 -0 0 -1 17.6776695296636 17.6776695296637 0 1 0 1 0 #
coedge $-1 $125 $126 $127 $128 1 $39 $-1 #
coedge $-1 $90 $40 $58 $106 0 $20 $-1 #
coedge $-1 $40 $90 $62 $110 0 $20 $-1 #
coedge $-1 $42 $41 $129 $130 1 $13 $-1 #
coedge $-1 $107 $131 $41 $81 0 $59 $-1 #
edge $-1 $132 $87 $80 $97 0 #
coedge $-1 $133 $134 $42 $83 0 $64 $-1 #
edge $-1 $88 $135 $42 $94 0 #
coedge $-1 $136 $43 $134 $137 1 $86 $-1 #
coedge $-1 $43 $136 $107 $138 1 $86 $-1 #
loop $-1 $-1 $43 $73 #
vertex $-1 $138 $139 #
vertex $-1 $137 $140 #
straight-curve $-1 25 -24.9999999999999 5 0 0 1 #
coedge $-1 $78 $77 $45 $91 0 $20 $-1 #
edge $-1 $96 $93 $45 $141 0 #
coedge $-1 $142 $46 $51 $100 0 $64 $-1 #
vertex $-1 $110 $143 #
straight-curve $-1 8.72870334710783e-14 -25 10 1 3.49148133884313e-15 0 #
coedge $-1 $48 $144 $50 $99 0 $59 $-1 #
vertex $-1 $49 $145 #
straight-curve $-1 -49.9999999999999 -25.0000000000002 -10 -1 -3.49148133884313e-15 0 #
coedge $-1 $51 $50 $146 $147 1 $52 $-1 #
edge $-1 $148 $54 $95 $120 0 #
edge $-1 $53 $149 $51 $118 0 #
face $-1 $108 $52 $3 $-1 $121 forward single #
point $-1 -25 -25.0000000000001 10 #
point $-1 -25 -25.0000000000001 -10 #
straight-curve $-1 -50.0000000000001 24.9999999999998 0 0 0 -1 #
coedge $-1 $150 $57 $151 $152 1 $59 $-1 #
edge $-1 $60 $96 $58 $153 0 #
coedge $-1 $144 $80 $85 $138 0 $59 $-1 #
face $-1 $154 $59 $3 $-1 $155 forward single #
point $-1 -50.0000000000001 24.9999999999998 -10 #
edge $-1 $93 $65 $62 $156 0 #
coedge $-1 $63 $112 $157 $158 1 $64 $-1 #
coedge $-1 $111 $159 $160 $161 0 $64 $-1 #
face $-1 $70 $64 $3 $-1 $162 forward single #
point $-1 -50.0000000000001 24.9999999999998 10 #
coedge $-1 $157 $151 $67 $116 0 $163 $-1 #
edge $-1 $119 $117 $67 $164 0 #
vertex $-1 $158 $165 #
straight-curve $-1 -25 0 10 0 -1 0 #
vertex $-1 $69 $166 #
straight-curve $-1 -25 50 -10 0 1 0 #
plane-surface $-1 -25 50 10 -1 0 0 0 -0 1 0 #
face $-1 $101 $167 $3 $-1 $123 reversed single #
plane-surface $-1 25 0 0 -1 0 0 0 -0 1 0 #
coedge $-1 $168 $169 $170 $171 0 $74 $-1 #
coedge $-1 $170 $76 $159 $172 1 $39 $-1 #
coedge $-1 $76 $170 $173 $174 1 $39 $-1 #
coedge $-1 $175 $160 $76 $128 0 $167 $-1 #
edge $-1 $176 $177 $127 $178 0 #
coedge $-1 $169 $168 $79 $130 0 $74 $-1 #
edge $-1 $135 $132 $79 $179 0 #
coedge $-1 $80 $173 $169 $180 1 $59 $-1 #
vertex $-1 $180 $181 #
coedge $-1 $159 $82 $168 $182 1 $64 $-1 #
coedge $-1 $82 $142 $84 $137 0 $64 $-1 #
vertex $-1 $83 $183 #
coedge $-1 $85 $84 $184 $185 1 $86 $-1 #
edge $-1 $186 $88 $84 $187 0 #
edge $-1 $87 $188 $85 $189 0 #
point $-1 25 -24.9999999999999 -10 #
point $-1 25 -24.9999999999999 10 #
straight-curve $-1 -49.9999999999999 -25.0000000000002 0 0 0 1 #
coedge $-1 $134 $92 $190 $191 1 $64 $-1 #
point $-1 -49.9999999999999 -25.0000000000002 10 #
coedge $-1 $95 $107 $192 $193 1 $59 $-1 #
point $-1 -49.9999999999999 -25.0000000000002 -10 #
coedge $-1 $192 $190 $98 $147 0 $194 $-1 #
edge $-1 $149 $148 $98 $195 0 #
vertex $-1 $193 $196 #
vertex $-1 $100 $197 #
coedge $-1 $173 $105 $175 $198 0 $59 $-1 #
coedge $-1 $115 $199 $105 $152 0 $163 $-1 #
edge $-1 $200 $119 $105 $201 0 #
ellipse-curve $-1 -50 -1.74574066942157e-13 -10 0 0 1 -17.6776695296636 -17.6776695296637 0 1 #
face $-1 $202 $163 $3 $-1 $203 forward single #
plane-surface $-1 25 -50 -10 0 0 -1 -1 0 0 0 #
ellipse-curve $-1 -50 -1.74574066942157e-13 10 0 0 -1 -17.6776695296637 17.6776695296636 0 1 #
coedge $-1 $199 $115 $111 $158 0 $163 $-1 #
edge $-1 $117 $204 $111 $205 0 #
coedge $-1 $112 $133 $125 $172 0 $64 $-1 #
coedge $-1 $127 $206 $112 $161 1 $167 $-1 #
edge $-1 $176 $204 $160 $187 0 #
plane-surface $-1 -25 -50 10 0 0 1 1 0 0 0 #
loop $-1 $-1 $199 $154 #
straight-curve $-1 -25 50 0 0 0 1 #
point $-1 -25 50 10 #
point $-1 -25 50 -10 #
loop $-1 $-1 $127 $122 #
coedge $-1 $129 $124 $133 $182 0 $74 $-1 #
coedge $-1 $124 $129 $131 $180 0 $74 $-1 #
coedge $-1 $126 $125 $124 $171 1 $39 $-1 #
edge $-1 $207 $208 $170 $209 0 #
edge $-1 $208 $176 $125 $66 0 #
coedge $-1 $131 $150 $126 $174 0 $59 $-1 #
edge $-1 $177 $207 $126 $61 0 #
coedge $-1 $206 $127 $150 $198 1 $167 $-1 #
vertex $-1 $161 $210 #
vertex $-1 $198 $211 #
straight-curve $-1 25 25.0000000000001 0 -0 -0 -1 #
straight-curve $-1 50.0000000000001 -24.9999999999998 0 0 0 -1 #
edge $-1 $132 $207 $131 $212 0 #
point $-1 50.0000000000001 -24.9999999999998 -10 #
edge $-1 $208 $135 $133 $213 0 #
point $-1 50.0000000000001 -24.9999999999998 10 #
coedge $-1 $190 $192 $136 $185 0 $194 $-1 #
edge $-1 $188 $186 $136 $214 0 #
vertex $-1 $185 $215 #
straight-curve $-1 25 0 10 0 1 0 #
vertex $-1 $138 $216 #
straight-curve $-1 25 0 -10 0 -1 0 #
coedge $-1 $146 $184 $142 $191 0 $194 $-1 #
edge $-1 $186 $149 $142 $217 0 #
coedge $-1 $184 $146 $144 $193 0 $194 $-1 #
edge $-1 $148 $188 $144 $218 0 #
loop $-1 $-1 $184 $202 #
straight-curve $-1 -25 -50 0 -0 -0 -1 #
point $-1 -25 -50 -10 #
point $-1 -25 -50 10 #
edge $-1 $200 $177 $175 $189 0 #
coedge $-1 $151 $157 $206 $219 0 $163 $-1 #
vertex $-1 $219 $220 #
ellipse-curve $-1 0 50 -10 -0 -0 1 -17.6776695296637 17.6776695296637 0 1 #
face $-1 $113 $194 $3 $-1 $221 forward single #
cone-surface $-1 0 50 0 0 0 1 17.6776695296637 17.6776695296637 0 1 0 1 0 #
vertex $-1 $161 $222 #
ellipse-curve $-1 0 50 10 -0 -0 -1 17.6776695296637 17.6776695296637 0 1 #
coedge $-1 $160 $175 $199 $219 1 $167 $-1 #
vertex $-1 $174 $223 #
vertex $-1 $171 $224 #
straight-curve $-1 49.9999999999999 25.0000000000002 0 0 0 1 #
point $-1 25 25.0000000000001 10 #
point $-1 25 25.0000000000001 -10 #
ellipse-curve $-1 50 1.74574066942157e-13 -10 0 0 1 17.6776695296636 17.6776695296637 0 1 #
ellipse-curve $-1 50 1.74574066942157e-13 10 0 0 -1 17.6776695296637 -17.6776695296636 0 1 #
straight-curve $-1 25 -50 0 0 0 1 #
point $-1 25 -50 10 #
point $-1 25 -50 -10 #
ellipse-curve $-1 0 -50 10 -0 -0 -1 -17.6776695296637 -17.6776695296637 0 1 #
ellipse-curve $-1 0 -50 -10 -0 -0 1 17.6776695296637 -17.6776695296637 0 1 #
edge $-1 $204 $200 $206 $225 0 #
point $-1 25 50 -10 #
cone-surface $-1 0 -50 0 0 0 -1 17.6776695296637 -17.6776695296637 0 1 0 1 0 #
point $-1 25 50 10 #
point $-1 49.9999999999999 25.0000000000002 -10 #
point $-1 49.9999999999999 25.0000000000002 10 #
straight-curve $-1 25 50 0 -0 -0 -1 #
