600 0 1 0           
77 GICL ACIS Healer - Source: /gicl/data5/repository/CMU/seeker/gimbal.sat - 6 0 18 ACIS 6.0.3 Solaris 24 Sat Apr 13 00:31:15 2002 
1 9.999999999999999547e-07 1.000000000000000036e-10 
body $1 $2 $-1 $3 #
rgb_color-st-attrib $-1 $-1 $-1 $0 0 1 0 #
lump $-1 $-1 $4 $0 #
transform $-1 1 0 0 0 1 0 0 0 1 0 0 0 1 no_rotate no_reflect no_shear #
shell $-1 $-1 $-1 $5 $-1 $2 #
face $-1 $6 $7 $4 $-1 $8 forward single #
face $-1 $9 $10 $4 $-1 $11 reversed single #
loop $-1 $-1 $12 $5 #
cone-surface $-1 -40 0 0 -1 0 0 0 0 28.51000000000000156 1 I I 0.5666686888049933257 0.8239457488985725275 28.51000000000000156 forward I I I I #
face $-1 $13 $14 $4 $-1 $15 forward single #
loop $-1 $16 $17 $6 #
sphere-surface $-1 0 0 0 65 1 0 0 0 0 1 forward_v I I I I #
coedge $-1 $18 $19 $20 $21 reversed $7 $-1 #
face $-1 $22 $23 $4 $-1 $24 reversed single #
loop $-1 $25 $26 $9 #
plane-surface $-1 0 0 22.5 0 0 1 1 0 0 forward_v I I I I #
loop $-1 $27 $28 $6 #
coedge $-1 $17 $17 $29 $30 forward $10 $-1 #
coedge $-1 $31 $12 $32 $33 reversed $7 $-1 #
coedge $-1 $12 $34 $35 $36 reversed $7 $-1 #
coedge $-1 $37 $38 $12 $21 forward $39 $-1 #
edge $-1 $40 0 $41 2.425193630694099767 $20 $42 forward 7 unknown #
face $-1 $43 $44 $4 $-1 $45 reversed single #
loop $-1 $-1 $46 $13 #
sphere-surface $-1 0 0 0 73 -0.7071067811865474617 0.500000000000000111 -0.5 0 0.7071067811865474617 0.7071067811865475727 forward_v I I I I #
loop $-1 $-1 $47 $9 #
coedge $-1 $48 $49 $31 $50 forward $14 $-1 #
loop $-1 $51 $52 $6 #
coedge $-1 $28 $28 $53 $54 forward $16 $-1 #
coedge $-1 $29 $29 $17 $30 reversed $55 $-1 #
edge $-1 $56 -3.141592653589793116 $56 3.141592653589793116 $17 $57 forward 7 unknown #
coedge $-1 $34 $18 $26 $50 reversed $7 $-1 #
coedge $-1 $46 $58 $18 $33 forward $23 $-1 #
edge $-1 $59 1.006092628793977761 $40 2.135500024795815577 $32 $60 forward 7 unknown #
coedge $-1 $19 $31 $61 $62 reversed $7 $-1 #
coedge $-1 $63 $64 $19 $36 forward $65 $-1 #
edge $-1 $41 0.402595091145208972 $66 0.6193810914366845166 $35 $67 forward 7 unknown #
coedge $-1 $68 $20 $64 $69 forward $39 $-1 #
coedge $-1 $20 $70 $46 $71 forward $39 $-1 #
loop $-1 $72 $20 $73 #
vertex $-1 $21 $74 #
vertex $-1 $69 $75 #
intcurve-curve $-1 forward { exactcur full nurbs 2 open 2 
	0 2 2.425193630694099767 2 
	-59.67730401829848574 35.51576248804993696 -22.50000000000000355 1 
	-57.55337119400015666 33.78656494129752019 -22.50000000000000355 1.023156005427504844 
	-55.62941172373596288 32.17186852654425877 -22.5 1.045077351634678964 
	0 
	null_surface 
	null_surface 
	nullbs 
	nullbs 
	I I 
	0 
	0 
	0 
	F 1 F 0 } I I #
face $-1 $76 $65 $4 $-1 $77 reversed single #
loop $-1 $-1 $78 $22 #
plane-surface $-1 8.485281374238571317 6 -5.999999999999998224 0.7071067811865475727 0.5 -0.499999999999999889 -0 -0.7071067811865474617 -0.7071067811865475727 forward_v I I I I #
coedge $-1 $79 $32 $38 $71 reversed $23 $-1 #
coedge $-1 $47 $47 $80 $81 reversed $25 $-1 #
coedge $-1 $82 $26 $58 $83 forward $14 $-1 #
coedge $-1 $26 $82 $84 $85 reversed $14 $-1 #
edge $-1 $86 86.82377235201228416 $59 90.96890210735499238 $26 $87 forward 7 unknown #
loop $-1 $88 $89 $6 #
coedge $-1 $52 $52 $90 $91 forward $27 $-1 #
coedge $-1 $53 $53 $28 $54 reversed $92 $-1 #
edge $-1 $93 -3.141592653589793116 $93 3.141592653589793116 $28 $94 forward 7 unknown #
loop $-1 $95 $29 $96 #
vertex $-1 $30 $97 #
ellipse-curve $-1 0 64.72248450113762885 0 0 1 0 6 0 0 1 I I #
coedge $-1 $32 $79 $48 $83 reversed $23 $-1 #
vertex $-1 $50 $98 #
ellipse-curve $-1 -59.67730401829848574 0 0 -1 0 0 0 0 42.04306583858479485 1 I I #
coedge $-1 $84 $99 $34 $62 forward $88 $-1 #
edge $-1 $66 -2.08264336316394072 $86 -0.9274829975612508548 $61 $100 forward 7 unknown #
coedge $-1 $64 $35 $99 $101 reversed $65 $-1 #
coedge $-1 $35 $63 $37 $69 reversed $65 $-1 #
loop $-1 $-1 $35 $43 #
vertex $-1 $62 $102 #
ellipse-curve $-1 -33.50723879066331534 11.69319576771496116 -11.69319576771497182 0.7071067811865475727 0.5 -0.499999999999999889 -24.04460347827869526 17.00210217043250793 -17.00210217043251504 0.5133224802694699163 I I #
coedge $-1 $70 $37 $103 $104 reversed $39 $-1 #
edge $-1 $41 -58.38587648753918558 $105 -54.75399528801527538 $37 $106 forward 7 unknown #
coedge $-1 $38 $68 $107 $108 forward $39 $-1 #
edge $-1 $109 -2.538583750650598603 $40 -2.107627355689967175 $38 $110 forward 7 unknown #
loop $-1 $-1 $111 $73 #
face $-1 $112 $39 $4 $-1 $113 reversed single #
point $-1 -59.67730401829848574 35.51576248804994407 -22.5 #
point $-1 -55.62941172373596288 32.17186852654425877 -22.5 #
face $-1 $114 $115 $4 $-1 $116 reversed single #
plane-surface $-1 -8.485281374238571317 -6 5.999999999999998224 -0.7071067811865475727 -0.5 0.499999999999999889 0 0.7071067811865474617 0.7071067811865475727 forward_v I I I I #
coedge $-1 $117 $118 $82 $119 reversed $44 $-1 #
coedge $-1 $58 $46 $117 $120 reversed $23 $-1 #
coedge $-1 $80 $80 $47 $81 forward $121 $-1 #
edge $-1 $122 -3.141592653589793116 $122 3.141592653589793116 $80 $123 forward 7 unknown #
coedge $-1 $49 $48 $78 $119 forward $14 $-1 #
edge $-1 $59 -1.033965297899825941 $124 -0.218553934459748106 $48 $125 forward 7 unknown #
coedge $-1 $126 $61 $49 $85 forward $88 $-1 #
edge $-1 $86 -2.085347904075164127 $127 3.301201516866324237 $84 $128 forward 7 unknown #
vertex $-1 $85 $129 #
intcurve-curve $-1 forward { exactcur full nurbs 2 open 2 
	86.82377235201228416 2 90.96890210735499238 2 
	-53.08526643509652843 30.01173916178156631 22.5 1.075549404808949117 
	-56.10443407479895228 32.60691439714767625 22.50000000000000355 1.039578137554713955 
	-59.67730401829848574 35.51576248804993696 22.50000000000000355 1 
	0 
	null_surface 
	null_surface 
	nullbs 
	nullbs 
	I I 
	0 
	0 
	0 
	F 1 F 0 } I I #
loop $-1 $-1 $61 $6 #
coedge $-1 $89 $89 $130 $131 forward $51 $-1 #
coedge $-1 $90 $90 $52 $91 reversed $132 $-1 #
edge $-1 $133 -3.141592653589793116 $133 3.141592653589793116 $52 $134 forward 7 unknown #
loop $-1 $135 $53 $136 #
vertex $-1 $54 $137 #
ellipse-curve $-1 0 -64.72248450113762885 0 0 -1 0 6 0 0 1 I I #
loop $-1 $-1 $138 $96 #
face $-1 $139 $55 $4 $-1 $140 reversed single #
point $-1 -6 64.72248450113762885 7.34788079488411875e-16 #
point $-1 -59.67730401829848574 35.51576248804994407 22.5 #
coedge $-1 $61 $103 $63 $101 forward $88 $-1 #
ellipse-curve $-1 -53.08526643509652843 0 0 1 -0 -0 0 0 37.5093919907376403 1 I I #
edge $-1 $105 -1.496495428933094285 $66 -1.411500817460564772 $99 $141 forward 7 unknown #
point $-1 -53.08526643509652132 32.70223851301684448 -18.37166524168592119 #
coedge $-1 $99 $126 $68 $104 forward $88 $-1 #
edge $-1 $142 -0.6012777992180635689 $105 5.211834753115343055 $103 $143 forward 7 unknown #
vertex $-1 $69 $144 #
straight-curve $-1 -21.92031021678296909 -15.49999999999999645 -22.5 0.5773502691896257311 -0.8164965809277260345 0 I I #
coedge $-1 $118 $117 $70 $108 reversed $44 $-1 #
edge $-1 $142 60.97540487770457673 $109 69.44062211702888021 $70 $145 forward 7 unknown #
vertex $-1 $108 $146 #
ellipse-curve $-1 0 0 -22.5 0 0 1 0 -69.44602220429906936 0 1 I I #
coedge $-1 $111 $111 $147 $148 reversed $72 $-1 #
face $-1 $-1 $149 $4 $-1 $150 forward single #
plane-surface $-1 0 0 -22.5 0 0 1 1 0 0 forward_v I I I I #
face $-1 $151 $132 $4 $-1 $152 reversed single #
loop $-1 $153 $130 $76 #
cone-surface $-1 -60 0 0 1 0 0 0 0 -7.5 1 I I 0 1 7.5 forward I I I I #
coedge $-1 $107 $78 $79 $120 forward $44 $-1 #
coedge $-1 $78 $107 $126 $154 reversed $44 $-1 #
edge $-1 $124 -64.04685784642366286 $127 -54.75399528801528248 $82 $155 forward 7 unknown #
edge $-1 $124 -2.660923470047928063 $109 -1.918493811566546858 $79 $156 forward 7 unknown #
loop $-1 $157 $80 $112 #
vertex $-1 $81 $158 #
ellipse-curve $-1 0 0 22.5 -0 -0 -1 0 -76.77076266392043635 0 1 I I #
vertex $-1 $119 $159 #
ellipse-curve $-1 0 0 22.5 -0 -0 -1 0 69.44602220429906936 0 1 I I #
coedge $-1 $103 $84 $118 $154 forward $88 $-1 #
vertex $-1 $154 $160 #
ellipse-curve $-1 0 0 22.5 0 0 1 0 -60.98155458825233666 0 1 I I #
point $-1 -53.08526643509652843 30.01173916178156631 22.5 #
coedge $-1 $130 $130 $89 $131 reversed $115 $-1 #
edge $-1 $161 -3.141592653589793116 $161 3.141592653589793116 $89 $162 forward 7 unknown #
loop $-1 $163 $90 $114 #
vertex $-1 $91 $164 #
ellipse-curve $-1 64.56585785072479666 0 0 1 -0 -0 0 0 7.5 1 I I #
loop $-1 $-1 $165 $136 #
face $-1 $96 $92 $4 $-1 $166 reversed single #
point $-1 -6 -64.72248450113762885 -7.34788079488411875e-16 #
coedge $-1 $138 $138 $167 $168 reversed $95 $-1 #
face $-1 $169 $170 $4 $-1 $171 reversed single #
cone-surface $-1 0 67.5 0 0 1 0 6 0 0 1 I I 0 1 6 forward I I I I #
ellipse-curve $-1 -8.485281374238569541 -5.999999999999999112 5.999999999999998224 0.7071067811865475727 0.5 -0.499999999999999889 -0 45.17189391646092389 45.171893916460931 1 I I #
vertex $-1 $104 $172 #
ellipse-curve $-1 0 0 -22.5 -0 -0 -1 0 60.98155458825233666 0 1 I I #
point $-1 -53.53254413552608781 29.20644994479730627 -22.5 #
straight-curve $-1 0.7071067811865492381 0.5000000000000017764 -22.5 -0.5773502691896257311 0.8164965809277260345 0 I I #
point $-1 -39.38445509077514828 57.19803053604831433 -22.5 #
coedge $-1 $147 $147 $111 $148 forward $157 $-1 #
edge $-1 $173 -3.141592653589793116 $173 3.141592653589793116 $147 $174 forward 7 unknown #
loop $-1 $175 $176 $112 #
sphere-surface $-1 0 0 0 80 1 0 0 0 0 1 forward_v I I I I #
face $-1 $177 $178 $4 $-1 $179 reversed single #
cone-surface $-1 60 0 0 -1 0 0 0 0 7.5 1 I I 0 1 7.5 forward I I I I #
loop $-1 $-1 $180 $76 #
edge $-1 $127 -2.727454846273869027 $142 -1.88342486145181387 $126 $181 forward 7 unknown #
straight-curve $-1 21.92031021678296909 15.49999999999999645 22.5 0.5773502691896257311 -0.8164965809277260345 0 I I #
ellipse-curve $-1 8.485281374238571317 6 -5.999999999999998224 -0.7071067811865475727 -0.5 0.499999999999999889 -0 -50.91659847240386938 -50.91659847240387649 1 I I #
loop $-1 $-1 $147 $112 #
point $-1 9.401706876447129885e-15 76.77076266392043635 22.5 #
point $-1 -15.05716040159942892 67.79404045076901753 22.5 #
point $-1 -9.691923701960156734 60.20644994479729206 22.5 #
vertex $-1 $131 $182 #
ellipse-curve $-1 -64.56585785072479666 0 0 -1 -0 -0 0 0 -7.5 1 I I #
loop $-1 $-1 $183 $114 #
point $-1 64.56585785072479666 9.184850993605149917e-16 -7.5 #
coedge $-1 $165 $165 $184 $185 reversed $135 $-1 #
cone-surface $-1 0 -67.5 0 0 -1 0 6 0 0 1 I I 0 1 6 forward I I I I #
coedge $-1 $167 $167 $138 $168 forward $186 $-1 #
edge $-1 $187 0 $187 6.283185307179586232 $167 $188 forward 7 unknown #
face $-1 $189 $190 $4 $-1 $191 reversed single #
loop $-1 $192 $193 $139 #
cone-surface $-1 0 -82.5 0 0 -1 0 18 0 0 1 I I 0 1 18 forward I I I I #
point $-1 -34.49705963890260563 50.28620960332958134 -22.5 #
vertex $-1 $148 $194 #
ellipse-curve $-1 0 0 -22.5 0 0 1 0 76.77076266392043635 0 1 I I #
loop $-1 $195 $196 $112 #
coedge $-1 $176 $176 $197 $198 forward $149 $-1 #
face $-1 $199 $200 $4 $-1 $201 reversed single #
loop $-1 $202 $197 $151 #
cone-surface $-1 -80 0 0 -1 0 0 0 0 10 1 I I 0 1 10 forward I I I I #
coedge $-1 $180 $180 $203 $204 reversed $153 $-1 #
ellipse-curve $-1 8.485281374238569541 5.999999999999999112 -5.999999999999998224 -0.7071067811865475727 -0.5 0.499999999999999889 0 -45.17189391646092389 -45.171893916460931 1 I I #
point $-1 -64.56585785072479666 9.184850993605149917e-16 7.5 #
coedge $-1 $183 $183 $205 $206 reversed $163 $-1 #
coedge $-1 $184 $184 $165 $185 forward $190 $-1 #
edge $-1 $207 0 $207 6.283185307179586232 $184 $208 forward 7 unknown #
loop $-1 $209 $167 $210 #
vertex $-1 $168 $211 #
ellipse-curve $-1 0 75 0 0 -1 0 6 0 0 1 I I #
face $-1 $210 $212 $4 $-1 $213 reversed single #
loop $-1 $214 $184 $169 #
plane-surface $-1 0 -75 0 0 1 0 -1 0 0 forward_v I I I I #
loop $-1 $-1 $215 $139 #
coedge $-1 $193 $193 $216 $217 reversed $170 $-1 #
point $-1 9.401706876447129885e-15 -76.77076266392043635 -22.5 #
loop $-1 $218 $216 $112 #
coedge $-1 $196 $196 $219 $220 forward $175 $-1 #
coedge $-1 $197 $197 $176 $198 reversed $178 $-1 #
edge $-1 $221 -3.141592653589793116 $221 3.141592653589793116 $176 $222 forward 7 unknown #
face $-1 $223 $224 $4 $-1 $225 reversed single #
loop $-1 $226 $203 $177 #
plane-surface $-1 -70 0 0 1 0 0 0 0 -1 forward_v I I I I #
loop $-1 $-1 $227 $151 #
coedge $-1 $203 $203 $180 $204 forward $200 $-1 #
edge $-1 $228 0 $228 6.283185307179586232 $203 $229 forward 7 unknown #
coedge $-1 $205 $205 $183 $206 forward $230 $-1 #
edge $-1 $231 0 $231 6.283185307179586232 $205 $232 forward 7 unknown #
vertex $-1 $185 $233 #
ellipse-curve $-1 0 -75 0 0 1 0 6 0 0 1 I I #
loop $-1 $-1 $234 $210 #
face $-1 $73 $186 $4 $-1 $235 reversed single #
point $-1 6 75 0 #
loop $-1 $236 $237 $189 #
cone-surface $-1 0 82.5 0 0 1 0 18 0 0 1 I I 0 1 18 forward I I I I #
loop $-1 $-1 $238 $169 #
coedge $-1 $215 $215 $238 $239 forward $192 $-1 #
coedge $-1 $216 $216 $193 $217 forward $195 $-1 #
edge $-1 $240 -3.141592653589793116 $240 3.141592653589793116 $216 $241 forward 7 unknown #
loop $-1 $121 $242 $112 #
coedge $-1 $219 $219 $196 $220 reversed $224 $-1 #
edge $-1 $243 -3.141592653589793116 $243 3.141592653589793116 $196 $244 forward 7 unknown #
vertex $-1 $198 $245 #
ellipse-curve $-1 -79.37253933193771616 0 0 1 -0 -0 0 0 10 1 I I #
face $-1 $136 $230 $4 $-1 $246 reversed single #
loop $-1 $247 $219 $199 #
cone-surface $-1 80 0 0 1 0 0 0 0 -10 1 I I 0 1 10 forward I I I I #
loop $-1 $-1 $248 $177 #
coedge $-1 $227 $227 $248 $249 forward $202 $-1 #
vertex $-1 $204 $250 #
ellipse-curve $-1 -70 0 0 1 0 0 0 0 -7.5 1 I I #
loop $-1 $251 $205 $223 #
vertex $-1 $206 $252 #
ellipse-curve $-1 70 0 0 -1 0 0 0 0 7.5 1 I I #
point $-1 6 -75 0 #
coedge $-1 $234 $234 $253 $254 reversed $209 $-1 #
plane-surface $-1 0 75 0 0 -1 0 -1 0 0 forward_v I I I I #
loop $-1 $-1 $253 $189 #
coedge $-1 $237 $237 $242 $255 reversed $212 $-1 #
coedge $-1 $238 $238 $215 $239 reversed $214 $-1 #
edge $-1 $256 0 $256 6.283185307179586232 $238 $257 forward 7 unknown #
vertex $-1 $217 $258 #
ellipse-curve $-1 0 -77.94870107962030659 0 -0 1 -0 18 0 0 1 I I #
coedge $-1 $242 $242 $237 $255 forward $218 $-1 #
vertex $-1 $220 $259 #
ellipse-curve $-1 79.37253933193771616 0 0 -1 -0 -0 0 0 -10 1 I I #
point $-1 -79.37253933193771616 1.224646799147353256e-15 -10 #
plane-surface $-1 70 0 0 -1 0 0 0 0 1 forward_v I I I I #
loop $-1 $-1 $260 $199 #
coedge $-1 $248 $248 $227 $249 reversed $226 $-1 #
edge $-1 $261 0 $261 6.283185307179586232 $248 $262 forward 7 unknown #
point $-1 -70 0 -7.5 #
loop $-1 $-1 $263 $223 #
point $-1 70 0 7.5 #
coedge $-1 $253 $253 $234 $254 forward $236 $-1 #
edge $-1 $264 0 $264 6.283185307179586232 $234 $265 forward 7 unknown #
edge $-1 $266 -3.141592653589793116 $266 3.141592653589793116 $242 $267 forward 7 unknown #
vertex $-1 $239 $268 #
ellipse-curve $-1 0 -75 0 0 1 0 18 0 0 1 I I #
point $-1 -18 -77.94870107962030659 2.204364238465235822e-15 #
point $-1 79.37253933193771616 1.224646799147353256e-15 10 #
coedge $-1 $260 $260 $263 $269 forward $247 $-1 #
vertex $-1 $249 $270 #
ellipse-curve $-1 -70 0 0 1 0 0 0 0 10 1 I I #
coedge $-1 $263 $263 $260 $269 reversed $251 $-1 #
vertex $-1 $254 $271 #
ellipse-curve $-1 0 75 0 0 -1 0 18 0 0 1 I I #
vertex $-1 $255 $272 #
ellipse-curve $-1 0 77.94870107962030659 0 -0 -1 -0 18 0 0 1 I I #
point $-1 18 -75 0 #
edge $-1 $273 0 $273 6.283185307179586232 $263 $274 forward 7 unknown #
point $-1 -70 0 10 #
point $-1 18 75 0 #
point $-1 -18 77.94870107962030659 -2.204364238465235822e-15 #
vertex $-1 $269 $275 #
ellipse-curve $-1 70 0 0 -1 0 0 0 0 -10 1 I I #
point $-1 70 0 -10 #
End-of-ACIS-data 