600 0 1 0           
78 GICL ACIS Healer - Source: /gicl/data5/repository/CMU/seeker/housing.sat - 6 0 18 ACIS 6.0.3 Solaris 24 Sat Apr 13 00:31:17 2002 
1 9.999999999999999547e-07 1.000000000000000036e-10 
body $1 $2 $-1 $-1 #
rgb_color-st-attrib $-1 $-1 $-1 $0 0 1 0 #
lump $-1 $-1 $3 $0 #
shell $-1 $-1 $-1 $4 $-1 $2 #
face $-1 $5 $6 $3 $-1 $7 reversed single #
face $-1 $8 $9 $3 $-1 $10 reversed single #
loop $-1 $11 $12 $4 #
cone-surface $-1 20 98.5 50 0 1 0 2 0 0 1 I I 0 1 2 forward I I I I #
face $-1 $13 $14 $3 $-1 $15 reversed single #
loop $-1 $-1 $16 $5 #
plane-surface $-1 20 102 50 0 1 0 1 0 0 forward_v I I I I #
loop $-1 $-1 $17 $4 #
coedge $-1 $12 $12 $18 $19 reversed $6 $-1 #
face $-1 $20 $21 $3 $-1 $22 reversed single #
loop $-1 $23 $24 $8 #
cone-surface $-1 -20 98.5 50 0 1 0 2 0 0 1 I I 0 1 2 forward I I I I #
coedge $-1 $16 $16 $17 $25 reversed $9 $-1 #
coedge $-1 $17 $17 $16 $25 forward $11 $-1 #
coedge $-1 $18 $18 $12 $19 forward $26 $-1 #
edge $-1 $27 0 $27 6.283185307179586232 $18 $28 forward 7 unknown #
face $-1 $29 $30 $3 $-1 $31 reversed single #
loop $-1 $-1 $32 $13 #
plane-surface $-1 -20 102 50 0 1 0 1 0 0 forward_v I I I I #
loop $-1 $-1 $33 $8 #
coedge $-1 $24 $24 $34 $35 reversed $14 $-1 #
edge $-1 $36 0 $36 6.283185307179586232 $16 $37 forward 7 unknown #
loop $-1 $38 $18 $39 #
vertex $-1 $19 $40 #
ellipse-curve $-1 20 95 50 0 1 0 2 0 0 1 I I #
face $-1 $41 $42 $3 $-1 $43 reversed single #
loop $-1 $44 $45 $20 #
cone-surface $-1 20 98.5 10 0 1 0 2 0 0 1 I I 0 1 2 forward I I I I #
coedge $-1 $32 $32 $33 $46 reversed $21 $-1 #
coedge $-1 $33 $33 $32 $46 forward $23 $-1 #
coedge $-1 $34 $34 $24 $35 forward $38 $-1 #
edge $-1 $47 0 $47 6.283185307179586232 $34 $48 forward 7 unknown #
vertex $-1 $25 $49 #
ellipse-curve $-1 20 102 50 0 1 0 2 0 0 1 I I #
loop $-1 $50 $34 $39 #
face $-1 $51 $26 $3 $-1 $52 forward single #
point $-1 22 95 50 #
face $-1 $53 $54 $3 $-1 $55 reversed single #
loop $-1 $-1 $56 $29 #
plane-surface $-1 20 102 10 0 1 0 1 0 0 forward_v I I I I #
loop $-1 $-1 $57 $20 #
coedge $-1 $45 $45 $58 $59 reversed $30 $-1 #
edge $-1 $60 0 $60 6.283185307179586232 $32 $61 forward 7 unknown #
vertex $-1 $35 $62 #
ellipse-curve $-1 -20 95 50 0 1 0 2 0 0 1 I I #
point $-1 22 102 50 #
loop $-1 $63 $58 $39 #
face $-1 $64 $65 $3 $-1 $66 reversed single #
plane-surface $-1 0 95 30 0 -1 0 0 0 -1 forward_v I I I I #
face $-1 $67 $68 $3 $-1 $69 reversed single #
loop $-1 $70 $71 $41 #
cone-surface $-1 -20 98.5 10 0 1 0 2 0 0 1 I I 0 1 2 forward I I I I #
coedge $-1 $56 $56 $57 $72 reversed $42 $-1 #
coedge $-1 $57 $57 $56 $72 forward $44 $-1 #
coedge $-1 $58 $58 $45 $59 forward $50 $-1 #
edge $-1 $73 0 $73 6.283185307179586232 $58 $74 forward 7 unknown #
vertex $-1 $46 $75 #
ellipse-curve $-1 -20 102 50 0 1 0 2 0 0 1 I I #
point $-1 -18 95 50 #
loop $-1 $76 $77 $39 #
face $-1 $78 $79 $3 $-1 $80 forward single #
loop $-1 $-1 $81 $51 #
cone-surface $-1 0 0 30 0 0 1 90 0 0 1 I I 0 1 90 forward I I I I #
face $-1 $82 $83 $3 $-1 $84 reversed single #
loop $-1 $-1 $85 $53 #
plane-surface $-1 -20 102 10 0 1 0 1 0 0 forward_v I I I I #
loop $-1 $-1 $86 $41 #
coedge $-1 $71 $71 $77 $87 reversed $54 $-1 #
edge $-1 $88 0 $88 6.283185307179586232 $56 $89 forward 7 unknown #
vertex $-1 $59 $90 #
ellipse-curve $-1 20 95 10 0 1 0 2 0 0 1 I I #
point $-1 -18 102 50 #
loop $-1 $-1 $91 $39 #
coedge $-1 $77 $77 $71 $87 forward $63 $-1 #
face $-1 $92 $93 $3 $-1 $66 reversed single #
loop $-1 $94 $95 $64 #
plane-surface $-1 0 0 60 0 0 1 1 0 0 forward_v I I I I #
coedge $-1 $96 $97 $98 $99 forward $65 $-1 #
face $-1 $100 $101 $3 $-1 $102 reversed single #
loop $-1 $103 $104 $67 #
cone-surface $-1 20 -98.5 50 0 -1 0 2 0 0 1 I I 0 1 2 forward I I I I #
coedge $-1 $85 $85 $86 $105 reversed $68 $-1 #
coedge $-1 $86 $86 $85 $105 forward $70 $-1 #
edge $-1 $106 0 $106 6.283185307179586232 $77 $107 forward 7 unknown #
vertex $-1 $72 $108 #
ellipse-curve $-1 20 102 10 0 1 0 2 0 0 1 I I #
point $-1 22 95 10 #
coedge $-1 $109 $110 $111 $112 reversed $76 $-1 #
face $-1 $113 $114 $3 $-1 $115 reversed single #
loop $-1 $-1 $116 $78 #
loop $-1 $-1 $117 $64 #
coedge $-1 $118 $119 $120 $121 forward $79 $-1 #
coedge $-1 $122 $81 $123 $124 reversed $65 $-1 #
coedge $-1 $81 $122 $125 $126 reversed $65 $-1 #
coedge $-1 $127 $128 $81 $99 reversed $129 $-1 #
edge $-1 $130 -30 $131 30 $81 $132 forward 7 unknown #
face $-1 $133 $134 $3 $-1 $135 reversed single #
loop $-1 $-1 $136 $82 #
plane-surface $-1 20 -102 50 0 -1 0 1 0 0 forward_v I I I I #
loop $-1 $-1 $137 $67 #
coedge $-1 $104 $104 $138 $139 reversed $83 $-1 #
edge $-1 $140 0 $140 6.283185307179586232 $85 $141 forward 7 unknown #
vertex $-1 $87 $142 #
ellipse-curve $-1 -20 95 10 0 1 0 2 0 0 1 I I #
point $-1 22 102 10 #
coedge $-1 $143 $91 $144 $145 reversed $76 $-1 #
coedge $-1 $91 $143 $146 $147 reversed $76 $-1 #
coedge $-1 $128 $127 $91 $112 forward $129 $-1 #
edge $-1 $148 -30 $149 30 $111 $150 forward 7 unknown #
face $-1 $151 $152 $3 $-1 $153 reversed single #
loop $-1 $154 $155 $92 #
plane-surface $-1 0 0 0 0 0 1 1 0 0 forward_v I I I I #
coedge $-1 $156 $157 $158 $159 forward $93 $-1 #
coedge $-1 $144 $160 $161 $162 forward $94 $-1 #
coedge $-1 $163 $95 $164 $165 forward $79 $-1 #
coedge $-1 $95 $163 $166 $167 forward $79 $-1 #
coedge $-1 $168 $169 $95 $121 reversed $170 $-1 #
edge $-1 $171 -110 $172 110 $120 $173 forward 7 unknown #
coedge $-1 $97 $96 $174 $175 forward $65 $-1 #
coedge $-1 $176 $177 $96 $124 forward $114 $-1 #
edge $-1 $178 -1.289316253564051662 $131 1.289316253564051662 $123 $179 forward 7 unknown #
coedge $-1 $180 $181 $97 $126 forward $94 $-1 #
edge $-1 $130 -1.289316253564051662 $182 1.289316253564051662 $125 $183 forward 7 unknown #
coedge $-1 $111 $98 $181 $184 reversed $129 $-1 #
coedge $-1 $98 $111 $176 $185 reversed $129 $-1 #
loop $-1 $-1 $98 $186 #
vertex $-1 $126 $187 #
vertex $-1 $99 $188 #
straight-curve $-1 25 86.45808232895291212 30 -0 -0 -1 I I #
face $-1 $189 $190 $3 $-1 $191 reversed single #
loop $-1 $192 $193 $100 #
cone-surface $-1 -20 -98.5 50 0 -1 0 2 0 0 1 I I 0 1 2 forward I I I I #
coedge $-1 $136 $136 $137 $194 reversed $101 $-1 #
coedge $-1 $137 $137 $136 $194 forward $103 $-1 #
coedge $-1 $138 $138 $104 $139 forward $195 $-1 #
edge $-1 $196 0 $196 6.283185307179586232 $138 $197 forward 7 unknown #
vertex $-1 $105 $198 #
ellipse-curve $-1 -20 102 10 0 1 0 2 0 0 1 I I #
point $-1 -18 95 10 #
coedge $-1 $110 $109 $199 $200 forward $76 $-1 #
coedge $-1 $181 $117 $109 $145 forward $94 $-1 #
edge $-1 $201 -25 $148 25 $144 $202 forward 7 unknown #
coedge $-1 $155 $176 $110 $147 forward $114 $-1 #
edge $-1 $149 -25 $203 25 $146 $204 forward 7 unknown #
vertex $-1 $145 $205 #
vertex $-1 $147 $206 #
straight-curve $-1 25 95 30 0 0 -1 I I #
face $-1 $207 $208 $3 $-1 $209 reversed single #
loop $-1 $-1 $210 $113 #
plane-surface $-1 0 -110 30 0 1 0 0 0 1 forward_v I I I I #
loop $-1 $-1 $211 $92 #
coedge $-1 $212 $146 $213 $214 forward $114 $-1 #
coedge $-1 $215 $116 $160 $216 reversed $93 $-1 #
coedge $-1 $116 $215 $212 $217 reversed $93 $-1 #
coedge $-1 $213 $161 $116 $159 reversed $218 $-1 #
edge $-1 $219 -30 $220 30 $116 $221 forward 7 unknown #
coedge $-1 $117 $222 $156 $216 forward $94 $-1 #
coedge $-1 $158 $199 $117 $162 reversed $218 $-1 #
edge $-1 $220 86.45808232895291212 $201 95 $117 $223 forward 7 unknown #
coedge $-1 $119 $118 $224 $225 forward $79 $-1 #
coedge $-1 $226 $227 $118 $165 reversed $228 $-1 #
edge $-1 $172 -110 $229 110 $164 $230 forward 7 unknown #
coedge $-1 $210 $231 $119 $167 reversed $152 $-1 #
edge $-1 $232 -110 $171 110 $166 $233 forward 7 unknown #
coedge $-1 $234 $120 $231 $235 forward $170 $-1 #
coedge $-1 $120 $234 $226 $236 reversed $170 $-1 #
loop $-1 $-1 $168 $237 #
vertex $-1 $121 $238 #
vertex $-1 $121 $239 #
straight-curve $-1 110 0 60 0 1 0 I I #
coedge $-1 $240 $241 $122 $175 reversed $242 $-1 #
edge $-1 $178 -30 $182 30 $122 $243 forward 7 unknown #
coedge $-1 $146 $123 $128 $185 forward $114 $-1 #
coedge $-1 $123 $244 $240 $245 forward $114 $-1 #
vertex $-1 $124 $246 #
ellipse-curve $-1 0 0 0 0 0 1 90 0 0 1 I I #
coedge $-1 $247 $125 $241 $248 forward $94 $-1 #
coedge $-1 $125 $144 $127 $184 forward $94 $-1 #
vertex $-1 $175 $249 #
ellipse-curve $-1 0 0 60 -0 -0 -1 90 0 0 1 I I #
edge $-1 $148 -95 $130 -86.45808232895291212 $181 $250 forward 7 unknown #
edge $-1 $131 86.45808232895291212 $149 95 $176 $251 forward 7 unknown #
face $-1 $252 $129 $3 $-1 $253 forward single #
point $-1 25 86.45808232895291212 60 #
point $-1 25 86.45808232895291212 0 #
face $-1 $254 $255 $3 $-1 $256 reversed single #
loop $-1 $-1 $257 $133 #
plane-surface $-1 -20 -102 50 0 -1 0 1 0 0 forward_v I I I I #
loop $-1 $-1 $258 $100 #
coedge $-1 $193 $193 $259 $260 reversed $134 $-1 #
edge $-1 $261 0 $261 6.283185307179586232 $136 $262 forward 7 unknown #
loop $-1 $263 $138 $264 #
vertex $-1 $139 $265 #
ellipse-curve $-1 20 -95 50 0 -1 0 2 0 0 1 I I #
point $-1 -18 102 10 #
coedge $-1 $161 $213 $143 $200 reversed $218 $-1 #
edge $-1 $201 -30 $203 30 $143 $266 forward 7 unknown #
vertex $-1 $162 $267 #
straight-curve $-1 0 95 60 1 0 0 I I #
vertex $-1 $214 $268 #
straight-curve $-1 0 95 0 -1 0 0 I I #
point $-1 25 95 60 #
point $-1 25 95 0 #
face $-1 $237 $228 $3 $-1 $269 reversed single #
loop $-1 $-1 $270 $151 #
plane-surface $-1 -110 0 30 1 0 0 0 0 -1 forward_v I I I I #
coedge $-1 $271 $166 $272 $273 forward $152 $-1 #
coedge $-1 $274 $275 $234 $276 forward $154 $-1 #
coedge $-1 $277 $155 $157 $217 forward $114 $-1 #
coedge $-1 $199 $158 $155 $214 reversed $218 $-1 #
edge $-1 $203 -95 $219 -86.45808232895291212 $155 $278 forward 7 unknown #
coedge $-1 $157 $156 $279 $280 forward $93 $-1 #
edge $-1 $281 1.852276400025741676 $220 4.430908907153844112 $160 $183 forward 7 unknown #
edge $-1 $219 1.852276400025741676 $282 4.430908907153844112 $212 $179 forward 7 unknown #
loop $-1 $-1 $158 $283 #
vertex $-1 $217 $284 #
vertex $-1 $159 $285 #
straight-curve $-1 -25 86.45808232895291212 30 0 0 1 I I #
coedge $-1 $160 $247 $286 $287 forward $94 $-1 #
straight-curve $-1 -25 0 60 0 1 0 I I #
coedge $-1 $270 $272 $163 $225 reversed $208 $-1 #
edge $-1 $229 -110 $232 110 $224 $288 forward 7 unknown #
coedge $-1 $289 $164 $169 $236 forward $228 $-1 #
coedge $-1 $164 $289 $270 $290 reversed $228 $-1 #
loop $-1 $-1 $226 $207 #
vertex $-1 $165 $291 #
straight-curve $-1 0 110 60 -1 0 0 I I #
coedge $-1 $166 $271 $168 $235 reversed $152 $-1 #
vertex $-1 $225 $292 #
straight-curve $-1 0 -110 60 1 0 0 I I #
coedge $-1 $169 $168 $211 $276 reversed $170 $-1 #
edge $-1 $171 -30 $293 30 $168 $294 forward 7 unknown #
edge $-1 $172 -30 $295 30 $169 $296 forward 7 unknown #
face $-1 $-1 $170 $3 $-1 $297 reversed single #
point $-1 110 -110 60 #
point $-1 110 110 60 #
coedge $-1 $298 $174 $177 $245 reversed $242 $-1 #
coedge $-1 $174 $298 $180 $248 reversed $242 $-1 #
loop $-1 $-1 $174 $299 #
straight-curve $-1 25 -86.45808232895291212 30 0 0 1 I I #
coedge $-1 $177 $277 $300 $301 forward $114 $-1 #
edge $-1 $302 -95 $178 -86.45808232895291212 $177 $251 forward 7 unknown #
point $-1 25 -86.45808232895291212 0 #
coedge $-1 $222 $180 $303 $304 forward $94 $-1 #
edge $-1 $182 86.45808232895291212 $305 95 $180 $250 forward 7 unknown #
point $-1 25 -86.45808232895291212 60 #
straight-curve $-1 25 0 60 0 -1 0 I I #
straight-curve $-1 25 0 0 0 1 0 I I #
face $-1 $264 $306 $3 $-1 $307 forward single #
plane-surface $-1 25 0 30 -1 0 0 0 0 1 forward_v I I I I #
face $-1 $308 $309 $3 $-1 $310 reversed single #
loop $-1 $311 $312 $189 #
cone-surface $-1 20 -98.5 10 0 -1 0 2 0 0 1 I I 0 1 2 forward I I I I #
coedge $-1 $257 $257 $258 $313 reversed $190 $-1 #
coedge $-1 $258 $258 $257 $313 forward $192 $-1 #
coedge $-1 $259 $259 $193 $260 forward $263 $-1 #
edge $-1 $314 0 $314 6.283185307179586232 $259 $315 forward 7 unknown #
vertex $-1 $194 $316 #
ellipse-curve $-1 20 -102 50 0 -1 0 2 0 0 1 I I #
loop $-1 $317 $259 $264 #
face $-1 $283 $195 $3 $-1 $318 forward single #
point $-1 22 -95 50 #
straight-curve $-1 -25 95 30 0 0 -1 I I #
point $-1 -25 95 60 #
point $-1 -25 95 0 #
plane-surface $-1 0 110 30 0 -1 0 0 0 -1 forward_v I I I I #
coedge $-1 $319 $224 $227 $290 forward $208 $-1 #
coedge $-1 $231 $210 $274 $320 reversed $152 $-1 #
coedge $-1 $224 $319 $210 $273 reversed $208 $-1 #
edge $-1 $232 -30 $321 30 $272 $322 forward 7 unknown #
coedge $-1 $323 $211 $271 $320 forward $154 $-1 #
coedge $-1 $211 $323 $289 $324 forward $154 $-1 #
edge $-1 $295 -110 $293 110 $234 $325 forward 7 unknown #
coedge $-1 $244 $212 $326 $327 forward $114 $-1 #
straight-curve $-1 -25 0 0 0 -1 0 I I #
coedge $-1 $286 $326 $215 $280 reversed $306 $-1 #
edge $-1 $281 -30 $282 30 $215 $328 forward 7 unknown #
vertex $-1 $216 $329 #
vertex $-1 $327 $330 #
face $-1 $39 $218 $3 $-1 $307 forward single #
point $-1 -25 86.45808232895291212 0 #
point $-1 -25 86.45808232895291212 60 #
coedge $-1 $331 $279 $222 $287 reversed $306 $-1 #
edge $-1 $332 -95 $281 -86.45808232895291212 $222 $223 forward 7 unknown #
straight-curve $-1 -110 0 60 0 -1 0 I I #
coedge $-1 $227 $226 $275 $324 reversed $228 $-1 #
edge $-1 $229 -30 $333 30 $227 $334 forward 7 unknown #
point $-1 -110 110 60 #
point $-1 -110 -110 60 #
vertex $-1 $235 $335 #
straight-curve $-1 110 -110 30 0 0 -1 I I #
vertex $-1 $276 $336 #
straight-curve $-1 110 110 30 0 0 -1 I I #
plane-surface $-1 110 0 30 -1 0 0 0 0 1 forward_v I I I I #
coedge $-1 $241 $240 $337 $338 reversed $242 $-1 #
face $-1 $186 $242 $3 $-1 $253 forward single #
coedge $-1 $339 $337 $244 $301 reversed $340 $-1 #
edge $-1 $341 -25 $302 25 $244 $342 forward 7 unknown #
vertex $-1 $301 $343 #
coedge $-1 $337 $339 $247 $304 reversed $340 $-1 #
edge $-1 $305 -25 $332 25 $247 $344 forward 7 unknown #
vertex $-1 $304 $345 #
loop $-1 $-1 $279 $252 #
plane-surface $-1 -25 0 30 1 0 0 0 0 -1 forward_v I I I I #
face $-1 $346 $347 $3 $-1 $348 reversed single #
loop $-1 $-1 $349 $254 #
plane-surface $-1 20 -102 10 0 -1 0 1 0 0 forward_v I I I I #
loop $-1 $-1 $350 $189 #
coedge $-1 $312 $312 $351 $352 reversed $255 $-1 #
edge $-1 $353 0 $353 6.283185307179586232 $257 $354 forward 7 unknown #
vertex $-1 $260 $355 #
ellipse-curve $-1 -20 -95 50 0 -1 0 2 0 0 1 I I #
point $-1 22 -102 50 #
loop $-1 $356 $351 $264 #
plane-surface $-1 0 -95 30 0 1 0 0 0 1 forward_v I I I I #
coedge $-1 $272 $270 $323 $357 reversed $208 $-1 #
edge $-1 $293 -110 $321 110 $271 $358 forward 7 unknown #
vertex $-1 $357 $359 #
straight-curve $-1 -110 -110 30 0 0 -1 I I #
coedge $-1 $275 $274 $319 $357 forward $154 $-1 #
edge $-1 $333 -110 $295 110 $289 $360 forward 7 unknown #
straight-curve $-1 110 0 0 0 -1 0 I I #
coedge $-1 $279 $331 $277 $327 reversed $306 $-1 #
edge $-1 $282 86.45808232895291212 $341 95 $277 $278 forward 7 unknown #
straight-curve $-1 -25 -86.45808232895291212 30 0 0 -1 I I #
point $-1 -25 -86.45808232895291212 60 #
point $-1 -25 -86.45808232895291212 0 #
coedge $-1 $326 $286 $339 $361 forward $306 $-1 #
vertex $-1 $304 $362 #
vertex $-1 $324 $363 #
straight-curve $-1 -110 110 30 0 0 -1 I I #
point $-1 110 -110 0 #
point $-1 110 110 0 #
coedge $-1 $300 $303 $298 $338 forward $340 $-1 #
edge $-1 $305 -30 $302 30 $298 $364 forward 7 unknown #
coedge $-1 $303 $300 $331 $361 reversed $340 $-1 #
loop $-1 $-1 $339 $264 #
vertex $-1 $301 $365 #
straight-curve $-1 0 -95 0 1 0 0 I I #
point $-1 25 -95 0 #
straight-curve $-1 0 -95 60 -1 0 0 I I #
point $-1 25 -95 60 #
face $-1 $299 $366 $3 $-1 $367 reversed single #
loop $-1 $368 $369 $308 #
cone-surface $-1 -20 -98.5 10 0 -1 0 2 0 0 1 I I 0 1 2 forward I I I I #
coedge $-1 $349 $349 $350 $370 reversed $309 $-1 #
coedge $-1 $350 $350 $349 $370 forward $311 $-1 #
coedge $-1 $351 $351 $312 $352 forward $317 $-1 #
edge $-1 $371 0 $371 6.283185307179586232 $351 $372 forward 7 unknown #
vertex $-1 $313 $373 #
ellipse-curve $-1 -20 -102 50 0 -1 0 2 0 0 1 I I #
point $-1 -18 -95 50 #
loop $-1 $340 $374 $264 #
edge $-1 $321 -110 $333 110 $319 $375 forward 7 unknown #
straight-curve $-1 0 -110 0 -1 0 0 I I #
point $-1 -110 -110 0 #
straight-curve $-1 0 110 0 1 0 0 I I #
edge $-1 $332 -30 $341 30 $331 $376 forward 7 unknown #
point $-1 -25 -95 60 #
point $-1 -110 110 0 #
straight-curve $-1 25 -95 30 0 0 -1 I I #
point $-1 -25 -95 0 #
loop $-1 $-1 $377 $346 #
plane-surface $-1 -20 -102 10 0 -1 0 1 0 0 forward_v I I I I #
loop $-1 $-1 $378 $308 #
coedge $-1 $369 $369 $374 $379 reversed $347 $-1 #
edge $-1 $380 0 $380 6.283185307179586232 $349 $381 forward 7 unknown #
vertex $-1 $352 $382 #
ellipse-curve $-1 20 -95 10 0 -1 0 2 0 0 1 I I #
point $-1 -18 -102 50 #
coedge $-1 $374 $374 $369 $379 forward $356 $-1 #
straight-curve $-1 -110 0 0 0 1 0 I I #
straight-curve $-1 -25 -95 30 0 0 -1 I I #
coedge $-1 $377 $377 $378 $383 reversed $366 $-1 #
coedge $-1 $378 $378 $377 $383 forward $368 $-1 #
edge $-1 $384 0 $384 6.283185307179586232 $374 $385 forward 7 unknown #
vertex $-1 $370 $386 #
ellipse-curve $-1 20 -102 10 0 -1 0 2 0 0 1 I I #
point $-1 22 -95 10 #
edge $-1 $387 0 $387 6.283185307179586232 $377 $388 forward 7 unknown #
vertex $-1 $379 $389 #
ellipse-curve $-1 -20 -95 10 0 -1 0 2 0 0 1 I I #
point $-1 22 -102 10 #
vertex $-1 $383 $390 #
ellipse-curve $-1 -20 -102 10 0 -1 0 2 0 0 1 I I #
point $-1 -18 -95 10 #
point $-1 -18 -102 10 #
End-of-ACIS-data 