600 0 1 0           
82 GICL ACIS Healer - Source: /gicl/data5/repository/CMU/seeker/pitch_motor.sat - 6 0 18 ACIS 6.0.3 Solaris 24 Sat Apr 13 00:31:19 2002 
1 9.999999999999999547e-07 1.000000000000000036e-10 
body $1 $2 $-1 $-1 #
rgb_color-st-attrib $-1 $-1 $-1 $0 0 1 0 #
lump $-1 $-1 $3 $0 #
shell $-1 $-1 $-1 $4 $-1 $2 #
face $-1 $5 $6 $3 $-1 $7 reversed single #
face $-1 $8 $9 $3 $-1 $10 reversed single #
loop $-1 $11 $12 $4 #
cone-surface $-1 20 20 2.5 0 0 1 2 0 0 1 I I 0 1 2 forward I I I I #
face $-1 $13 $14 $3 $-1 $15 reversed single #
loop $-1 $16 $17 $5 #
cone-surface $-1 20 -20 2.5 0 0 1 2 0 0 1 I I 0 1 2 forward I I I I #
loop $-1 $-1 $18 $4 #
coedge $-1 $12 $12 $19 $20 reversed $6 $-1 #
face $-1 $21 $22 $3 $-1 $23 reversed single #
loop $-1 $24 $25 $8 #
cone-surface $-1 -20 20 2.5 0 0 1 2 0 0 1 I I 0 1 2 forward I I I I #
loop $-1 $-1 $26 $5 #
coedge $-1 $17 $17 $27 $28 reversed $9 $-1 #
coedge $-1 $18 $18 $29 $30 reversed $11 $-1 #
coedge $-1 $19 $19 $12 $20 forward $31 $-1 #
edge $-1 $32 0 $32 6.283185307179586232 $19 $33 forward 7 unknown #
face $-1 $34 $35 $3 $-1 $36 forward single #
loop $-1 $37 $38 $13 #
cone-surface $-1 -20 -20 2.5 0 0 1 2 0 0 1 I I 0 1 2 forward I I I I #
loop $-1 $-1 $39 $8 #
coedge $-1 $25 $25 $40 $41 reversed $14 $-1 #
coedge $-1 $26 $26 $42 $43 reversed $16 $-1 #
coedge $-1 $27 $27 $17 $28 forward $44 $-1 #
edge $-1 $45 0 $45 6.283185307179586232 $27 $46 forward 7 unknown #
coedge $-1 $29 $29 $18 $30 forward $47 $-1 #
edge $-1 $48 0 $48 6.283185307179586232 $29 $49 forward 7 unknown #
loop $-1 $44 $19 $50 #
vertex $-1 $20 $51 #
ellipse-curve $-1 20 20 0 0 0 1 2 0 0 1 I I #
face $-1 $52 $53 $3 $-1 $54 forward single #
loop $-1 $55 $56 $21 #
cone-surface $-1 0 0 25 0 0 1 6 0 0 1 I I 0 1 6 forward I I I I #
loop $-1 $-1 $57 $13 #
coedge $-1 $38 $38 $58 $59 reversed $22 $-1 #
coedge $-1 $39 $39 $60 $61 reversed $24 $-1 #
coedge $-1 $40 $40 $25 $41 forward $62 $-1 #
edge $-1 $63 0 $63 6.283185307179586232 $40 $64 forward 7 unknown #
coedge $-1 $42 $42 $26 $43 forward $65 $-1 #
edge $-1 $66 0 $66 6.283185307179586232 $42 $67 forward 7 unknown #
loop $-1 $62 $27 $50 #
vertex $-1 $28 $68 #
ellipse-curve $-1 20 -20 0 0 0 1 2 0 0 1 I I #
loop $-1 $65 $29 $69 #
vertex $-1 $30 $70 #
ellipse-curve $-1 20 20 5 -0 -0 -1 2 0 0 1 I I #
face $-1 $71 $31 $3 $-1 $72 reversed single #
point $-1 22 20 0 #
face $-1 $73 $74 $3 $-1 $75 forward single #
loop $-1 $-1 $76 $34 #
plane-surface $-1 0 0 30 0 0 1 1 0 0 forward_v I I I I #
loop $-1 $-1 $77 $21 #
coedge $-1 $56 $56 $78 $79 reversed $35 $-1 #
coedge $-1 $57 $57 $80 $81 reversed $37 $-1 #
coedge $-1 $58 $58 $38 $59 forward $82 $-1 #
edge $-1 $83 0 $83 6.283185307179586232 $58 $84 forward 7 unknown #
coedge $-1 $60 $60 $39 $61 forward $85 $-1 #
edge $-1 $86 0 $86 6.283185307179586232 $60 $87 forward 7 unknown #
loop $-1 $82 $40 $50 #
vertex $-1 $41 $88 #
ellipse-curve $-1 -20 20 0 0 0 1 2 0 0 1 I I #
loop $-1 $85 $42 $69 #
vertex $-1 $43 $89 #
ellipse-curve $-1 20 -20 5 -0 -0 -1 2 0 0 1 I I #
point $-1 22 -20 0 #
face $-1 $50 $47 $3 $-1 $90 forward single #
point $-1 22 20 5 #
face $-1 $91 $92 $3 $-1 $93 reversed single #
plane-surface $-1 0 0 0 0 0 1 1 0 0 forward_v I I I I #
face $-1 $69 $94 $3 $-1 $95 forward single #
loop $-1 $96 $97 $52 #
cone-surface $-1 0 0 12.5 0 0 1 15 0 0 1 I I 0 1 15 forward I I I I #
coedge $-1 $76 $76 $77 $98 forward $53 $-1 #
coedge $-1 $77 $77 $76 $98 reversed $55 $-1 #
coedge $-1 $78 $78 $56 $79 forward $94 $-1 #
edge $-1 $99 0 $99 6.283185307179586232 $78 $100 forward 7 unknown #
coedge $-1 $80 $80 $57 $81 forward $101 $-1 #
edge $-1 $102 0 $102 6.283185307179586232 $80 $103 forward 7 unknown #
loop $-1 $104 $58 $50 #
vertex $-1 $59 $105 #
ellipse-curve $-1 -20 -20 0 0 0 1 2 0 0 1 I I #
loop $-1 $101 $60 $69 #
vertex $-1 $61 $106 #
ellipse-curve $-1 -20 20 5 -0 -0 -1 2 0 0 1 I I #
point $-1 -18 20 0 #
point $-1 22 -20 5 #
plane-surface $-1 0 0 5 0 0 1 1 0 0 forward_v I I I I #
face $-1 $107 $108 $3 $-1 $109 reversed single #
loop $-1 $-1 $110 $71 #
plane-surface $-1 0 -25 2.5 0 1 0 0 0 1 forward_v I I I I #
loop $-1 $111 $78 $73 #
plane-surface $-1 0 0 20 0 0 1 1 0 0 forward_v I I I I #
loop $-1 $-1 $112 $52 #
coedge $-1 $97 $97 $113 $114 reversed $74 $-1 #
edge $-1 $115 0 $115 6.283185307179586232 $76 $116 forward 7 unknown #
vertex $-1 $79 $117 #
ellipse-curve $-1 0 0 20 -0 -0 -1 6 0 0 1 I I #
loop $-1 $118 $80 $69 #
vertex $-1 $81 $119 #
ellipse-curve $-1 -20 -20 5 -0 -0 -1 2 0 0 1 I I #
loop $-1 $-1 $120 $50 #
point $-1 -18 -20 0 #
point $-1 -18 20 5 #
face $-1 $121 $122 $3 $-1 $123 reversed single #
loop $-1 $-1 $124 $91 #
plane-surface $-1 -25 0 2.5 1 0 0 0 0 -1 forward_v I I I I #
coedge $-1 $125 $126 $127 $128 forward $92 $-1 #
loop $-1 $-1 $129 $73 #
coedge $-1 $112 $112 $129 $130 reversed $96 $-1 #
coedge $-1 $113 $113 $97 $114 forward $118 $-1 #
edge $-1 $131 0 $131 6.283185307179586232 $113 $132 forward 7 unknown #
vertex $-1 $98 $133 #
ellipse-curve $-1 0 0 30 0 0 1 6 0 0 1 I I #
point $-1 6 0 20 #
loop $-1 $134 $113 $69 #
point $-1 -18 -20 5 #
coedge $-1 $135 $136 $137 $138 forward $104 $-1 #
face $-1 $-1 $139 $3 $-1 $140 reversed single #
loop $-1 $-1 $141 $107 #
plane-surface $-1 0 25 2.5 0 -1 0 0 0 -1 forward_v I I I I #
coedge $-1 $142 $143 $144 $145 forward $108 $-1 #
coedge $-1 $146 $110 $135 $147 reversed $92 $-1 #
coedge $-1 $110 $146 $148 $149 reversed $92 $-1 #
coedge $-1 $143 $142 $110 $128 reversed $108 $-1 #
edge $-1 $150 -2.5 $151 2.5 $127 $152 forward 7 unknown #
coedge $-1 $129 $129 $112 $130 forward $111 $-1 #
edge $-1 $153 0 $153 6.283185307179586232 $129 $154 forward 7 unknown #
vertex $-1 $114 $155 #
ellipse-curve $-1 0 0 5 -0 -0 -1 15 0 0 1 I I #
point $-1 6 0 30 #
loop $-1 $-1 $156 $69 #
coedge $-1 $157 $120 $125 $147 forward $104 $-1 #
coedge $-1 $120 $157 $158 $159 forward $104 $-1 #
coedge $-1 $160 $161 $120 $138 reversed $139 $-1 #
edge $-1 $162 -25 $163 25 $137 $164 forward 7 unknown #
loop $-1 $-1 $161 $121 #
plane-surface $-1 25 0 2.5 -1 0 0 0 0 1 forward_v I I I I #
coedge $-1 $158 $165 $160 $166 forward $122 $-1 #
coedge $-1 $127 $124 $157 $167 reversed $108 $-1 #
coedge $-1 $124 $127 $168 $169 reversed $108 $-1 #
coedge $-1 $165 $158 $124 $145 reversed $122 $-1 #
edge $-1 $170 -2.5 $171 2.5 $144 $172 forward 7 unknown #
coedge $-1 $126 $125 $161 $173 reversed $92 $-1 #
edge $-1 $163 -25 $151 25 $125 $174 forward 7 unknown #
coedge $-1 $156 $168 $126 $149 forward $134 $-1 #
edge $-1 $150 -25 $175 25 $126 $176 forward 7 unknown #
vertex $-1 $169 $177 #
vertex $-1 $167 $178 #
straight-curve $-1 -25 -25 2.5 0 0 -1 I I #
vertex $-1 $130 $179 #
ellipse-curve $-1 0 0 20 0 0 1 15 0 0 1 I I #
point $-1 15 0 5 #
coedge $-1 $180 $148 $181 $182 forward $134 $-1 #
coedge $-1 $136 $135 $142 $167 forward $104 $-1 #
coedge $-1 $144 $141 $136 $159 reversed $122 $-1 #
edge $-1 $171 -25 $162 25 $158 $183 forward 7 unknown #
coedge $-1 $181 $137 $141 $166 reversed $139 $-1 #
coedge $-1 $137 $181 $146 $173 forward $139 $-1 #
vertex $-1 $138 $184 #
vertex $-1 $173 $185 #
straight-curve $-1 25 0 0 0 -1 0 I I #
coedge $-1 $141 $144 $180 $186 reversed $122 $-1 #
edge $-1 $187 -2.5 $162 2.5 $160 $188 forward 7 unknown #
edge $-1 $151 -25 $171 25 $142 $189 forward 7 unknown #
coedge $-1 $148 $180 $143 $169 forward $134 $-1 #
edge $-1 $170 -25 $150 25 $143 $190 forward 7 unknown #
vertex $-1 $186 $191 #
vertex $-1 $159 $192 #
straight-curve $-1 -25 25 2.5 0 0 -1 I I #
edge $-1 $175 -2.5 $163 2.5 $161 $193 forward 7 unknown #
straight-curve $-1 0 -25 0 -1 0 0 I I #
vertex $-1 $182 $194 #
straight-curve $-1 0 -25 5 1 0 0 I I #
point $-1 -25 -25 5 #
point $-1 -25 -25 0 #
point $-1 15 0 20 #
coedge $-1 $168 $156 $165 $186 forward $134 $-1 #
coedge $-1 $161 $160 $156 $182 reversed $139 $-1 #
edge $-1 $175 -25 $187 25 $181 $195 forward 7 unknown #
straight-curve $-1 0 25 0 1 0 0 I I #
point $-1 25 25 0 #
point $-1 25 -25 0 #
edge $-1 $187 -25 $170 25 $165 $196 forward 7 unknown #
vertex $-1 $182 $197 #
straight-curve $-1 25 25 2.5 0 0 -1 I I #
straight-curve $-1 -25 0 0 0 1 0 I I #
straight-curve $-1 -25 0 5 0 -1 0 I I #
point $-1 -25 25 5 #
point $-1 -25 25 0 #
straight-curve $-1 25 -25 2.5 0 0 -1 I I #
point $-1 25 -25 5 #
straight-curve $-1 25 0 5 0 1 0 I I #
straight-curve $-1 0 25 5 -1 0 0 I I #
point $-1 25 25 5 #
End-of-ACIS-data 