600 0 1 0           
77 GICL ACIS Healer - Source: /gicl/data5/repository/CMU/seeker/screw2.sat - 6 0 18 ACIS 6.0.3 Solaris 24 Sat Apr 13 00:31:22 2002 
1 9.999999999999999547e-07 1.000000000000000036e-10 
body $1 $2 $-1 $-1 #
rgb_color-st-attrib $-1 $-1 $-1 $0 0 1 0 #
lump $-1 $-1 $3 $0 #
shell $-1 $-1 $-1 $4 $-1 $2 #
face $-1 $5 $6 $3 $-1 $7 forward single #
face $-1 $8 $9 $3 $-1 $10 forward single #
loop $-1 $-1 $11 $4 #
plane-surface $-1 -1.5 0 -2.5 1 0 0 0 0 -1 forward_v I I I I #
face $-1 $12 $13 $3 $-1 $14 forward single #
loop $-1 $-1 $15 $5 #
plane-surface $-1 1.5 0 -2.5 -1 0 0 0 0 1 forward_v I I I I #
coedge $-1 $16 $17 $18 $19 reversed $6 $-1 #
face $-1 $20 $21 $3 $-1 $14 forward single #
loop $-1 $-1 $22 $8 #
plane-surface $-1 0 -0.5999999999999999778 -2.5 0 1 0 0 0 1 forward_v I I I I #
coedge $-1 $23 $24 $25 $26 reversed $9 $-1 #
coedge $-1 $27 $11 $28 $29 reversed $6 $-1 #
coedge $-1 $11 $27 $30 $31 forward $6 $-1 #
coedge $-1 $32 $33 $11 $19 forward $34 $-1 #
edge $-1 $35 -0.5999999999999999778 $36 0.5999999999999999778 $18 $37 forward 7 unknown #
face $-1 $38 $39 $3 $-1 $40 forward single #
loop $-1 $-1 $41 $12 #
coedge $-1 $42 $43 $44 $45 reversed $13 $-1 #
coedge $-1 $46 $15 $43 $47 reversed $9 $-1 #
coedge $-1 $15 $46 $48 $49 forward $9 $-1 #
coedge $-1 $50 $44 $15 $26 forward $34 $-1 #
edge $-1 $51 -0.5999999999999999778 $52 0.5999999999999999778 $25 $53 forward 7 unknown #
coedge $-1 $17 $16 $54 $55 forward $6 $-1 #
coedge $-1 $56 $57 $16 $29 forward $58 $-1 #
edge $-1 $59 -1.5 $35 0.5 $28 $60 forward 7 unknown #
coedge $-1 $61 $41 $17 $31 reversed $21 $-1 #
edge $-1 $62 -1.5 $36 0.5 $17 $63 forward 7 unknown #
coedge $-1 $64 $18 $41 $65 forward $34 $-1 #
coedge $-1 $18 $66 $56 $67 forward $34 $-1 #
loop $-1 $-1 $33 $68 #
vertex $-1 $19 $69 #
vertex $-1 $65 $70 #
straight-curve $-1 -1.5 0 -3 0 -1 0 I I #
face $-1 $71 $58 $3 $-1 $40 forward single #
loop $-1 $-1 $72 $20 #
plane-surface $-1 0 0.5999999999999999778 -2.5 0 -1 0 0 0 -1 forward_v I I I I #
coedge $-1 $30 $73 $32 $65 reversed $21 $-1 #
coedge $-1 $74 $22 $75 $76 reversed $13 $-1 #
coedge $-1 $22 $74 $23 $47 forward $13 $-1 #
coedge $-1 $25 $77 $22 $45 forward $34 $-1 #
edge $-1 $78 0.5999999999999999778 $51 1.5 $44 $79 forward 7 unknown #
coedge $-1 $24 $23 $80 $81 forward $9 $-1 #
edge $-1 $82 -1.5 $51 0.5 $23 $83 forward 7 unknown #
coedge $-1 $84 $72 $24 $49 reversed $39 $-1 #
edge $-1 $85 -1.5 $52 0.5 $24 $86 forward 7 unknown #
coedge $-1 $87 $25 $72 $88 forward $34 $-1 #
vertex $-1 $45 $89 #
vertex $-1 $88 $90 #
straight-curve $-1 1.5 0 -3 0 1 0 I I #
coedge $-1 $91 $92 $27 $55 reversed $93 $-1 #
edge $-1 $59 -0.5999999999999999778 $62 0.5999999999999999778 $27 $94 forward 7 unknown #
coedge $-1 $95 $28 $33 $67 reversed $58 $-1 #
coedge $-1 $28 $95 $91 $96 forward $58 $-1 #
loop $-1 $-1 $56 $38 #
vertex $-1 $96 $97 #
straight-curve $-1 -1.5 0.5999999999999999778 -2.5 0 0 -1 I I #
coedge $-1 $73 $30 $92 $98 forward $21 $-1 #
vertex $-1 $55 $99 #
straight-curve $-1 -1.5 -0.5999999999999999778 -2.5 0 0 -1 I I #
coedge $-1 $100 $32 $101 $102 forward $34 $-1 #
edge $-1 $36 -1.5 $103 -0.5999999999999999778 $32 $79 forward 7 unknown #
coedge $-1 $33 $104 $105 $106 forward $34 $-1 #
edge $-1 $107 0.5999999999999999778 $35 1.5 $33 $108 forward 7 unknown #
face $-1 $109 $110 $3 $-1 $111 forward single #
point $-1 -1.5 0.5999999999999999778 -3 #
point $-1 -1.5 -0.5999999999999999778 -3 #
face $-1 $68 $112 $3 $-1 $113 forward single #
coedge $-1 $48 $114 $50 $88 reversed $39 $-1 #
coedge $-1 $41 $61 $115 $116 reversed $21 $-1 #
coedge $-1 $43 $42 $117 $118 forward $13 $-1 #
coedge $-1 $119 $120 $42 $76 forward $121 $-1 #
edge $-1 $122 -1.5 $78 0.5 $75 $123 forward 7 unknown #
coedge $-1 $44 $100 $119 $124 forward $34 $-1 #
vertex $-1 $76 $125 #
straight-curve $-1 0 -0.5999999999999999778 -3 1 0 0 I I #
coedge $-1 $117 $126 $46 $81 reversed $93 $-1 #
edge $-1 $82 -0.5999999999999999778 $85 0.5999999999999999778 $46 $127 forward 7 unknown #
vertex $-1 $81 $128 #
straight-curve $-1 1.5 -0.5999999999999999778 -2.5 0 0 -1 I I #
coedge $-1 $114 $48 $126 $129 forward $39 $-1 #
vertex $-1 $81 $130 #
straight-curve $-1 1.5 0.5999999999999999778 -2.5 0 0 -1 I I #
coedge $-1 $104 $50 $131 $132 forward $34 $-1 #
edge $-1 $52 -1.5 $133 -0.5999999999999999778 $50 $108 forward 7 unknown #
point $-1 1.5 -0.5999999999999999778 -3 #
point $-1 1.5 0.5999999999999999778 -3 #
coedge $-1 $134 $54 $57 $96 reversed $93 $-1 #
coedge $-1 $54 $135 $61 $98 reversed $93 $-1 #
loop $-1 $-1 $134 $136 #
straight-curve $-1 -1.5 0 -1 0 -1 0 I I #
coedge $-1 $57 $56 $137 $138 reversed $58 $-1 #
edge $-1 $139 0.5999999999999999778 $59 1.5 $57 $140 forward 7 unknown #
point $-1 -1.5 0.5999999999999999778 -1 #
edge $-1 $62 -1.5 $141 -0.5999999999999999778 $61 $142 forward 7 unknown #
point $-1 -1.5 -0.5999999999999999778 -1 #
coedge $-1 $77 $64 $143 $144 forward $34 $-1 #
coedge $-1 $115 $145 $64 $102 reversed $112 $-1 #
edge $-1 $103 0.5999999999999999778 $146 1.5 $64 $147 forward 7 unknown #
vertex $-1 $102 $148 #
coedge $-1 $66 $87 $149 $150 forward $34 $-1 #
coedge $-1 $151 $137 $66 $106 reversed $152 $-1 #
edge $-1 $153 -1.5 $107 -0.5999999999999999778 $66 $147 forward 7 unknown #
vertex $-1 $138 $154 #
straight-curve $-1 0 0.5999999999999999778 -3 -1 0 0 I I #
face $-1 $155 $156 $3 $-1 $157 forward single #
loop $-1 $34 $158 $68 #
plane-surface $-1 0 0 -3 0 0 -1 1 0 0 forward_v I I I I #
loop $-1 $-1 $115 $71 #
plane-surface $-1 -0.5999999999999999778 0 -2.5 1 0 0 0 0 -1 forward_v I I I I #
coedge $-1 $72 $84 $159 $160 reversed $39 $-1 #
coedge $-1 $161 $101 $73 $116 forward $112 $-1 #
edge $-1 $103 -0.5 $141 1.5 $115 $162 forward 7 unknown #
coedge $-1 $163 $80 $74 $118 reversed $93 $-1 #
edge $-1 $122 0.5999999999999999778 $82 1.5 $74 $142 forward 7 unknown #
coedge $-1 $164 $75 $77 $124 reversed $121 $-1 #
coedge $-1 $75 $164 $163 $165 forward $121 $-1 #
loop $-1 $-1 $75 $166 #
vertex $-1 $165 $167 #
straight-curve $-1 0.5999999999999999778 -0.5999999999999999778 -2.5 0 0 -1 I I #
edge $-1 $168 -1.5 $78 -0.5999999999999999778 $77 $169 forward 7 unknown #
point $-1 0.5999999999999999778 -0.5999999999999999778 -3 #
coedge $-1 $80 $170 $84 $129 reversed $93 $-1 #
straight-curve $-1 1.5 0 -1 0 1 0 I I #
point $-1 1.5 -0.5999999999999999778 -1 #
edge $-1 $85 -1.5 $171 -0.5999999999999999778 $84 $140 forward 7 unknown #
point $-1 1.5 0.5999999999999999778 -1 #
coedge $-1 $159 $172 $87 $132 reversed $156 $-1 #
edge $-1 $133 0.5999999999999999778 $173 1.5 $87 $169 forward 7 unknown #
vertex $-1 $132 $174 #
coedge $-1 $175 $91 $176 $177 reversed $93 $-1 #
coedge $-1 $92 $178 $161 $179 reversed $93 $-1 #
face $-1 $180 $93 $3 $-1 $181 reversed single #
coedge $-1 $105 $176 $95 $138 forward $152 $-1 #
edge $-1 $139 -1.5 $107 0.5 $137 $182 forward 7 unknown #
vertex $-1 $177 $183 #
straight-curve $-1 0 0.5999999999999999778 -1 -1 0 0 I I #
vertex $-1 $179 $184 #
straight-curve $-1 0 -0.5999999999999999778 -1 1 0 0 I I #
coedge $-1 $185 $186 $100 $144 reversed $187 $-1 #
edge $-1 $146 -0.5999999999999999778 $168 0.5999999999999999778 $100 $188 forward 7 unknown #
coedge $-1 $101 $161 $185 $189 forward $112 $-1 #
vertex $-1 $144 $190 #
straight-curve $-1 -0.5999999999999999778 0 -3 0 -1 0 I I #
point $-1 -0.5999999999999999778 -0.5999999999999999778 -3 #
coedge $-1 $191 $192 $104 $150 reversed $193 $-1 #
edge $-1 $173 -0.5999999999999999778 $153 0.5999999999999999778 $104 $194 forward 7 unknown #
coedge $-1 $176 $105 $192 $195 reversed $152 $-1 #
loop $-1 $-1 $137 $196 #
vertex $-1 $106 $197 #
point $-1 -0.5999999999999999778 0.5999999999999999778 -3 #
face $-1 $196 $193 $3 $-1 $198 forward single #
loop $-1 $-1 $159 $109 #
plane-surface $-1 0.5999999999999999778 0 -2.5 -1 0 0 0 0 1 forward_v I I I I #
coedge $-1 $158 $158 $199 $200 forward $110 $-1 #
coedge $-1 $201 $131 $114 $160 forward $156 $-1 #
edge $-1 $133 -0.5 $171 1.5 $159 $202 forward 7 unknown #
coedge $-1 $145 $115 $135 $179 forward $112 $-1 #
straight-curve $-1 -0.5999999999999999778 -0.5999999999999999778 -2.5 0 0 1 I I #
coedge $-1 $178 $117 $120 $165 reversed $93 $-1 #
coedge $-1 $120 $119 $186 $203 reversed $121 $-1 #
edge $-1 $204 -1.5 $122 -0.5999999999999999778 $120 $205 forward 7 unknown #
face $-1 $206 $121 $3 $-1 $157 forward single #
point $-1 0.5999999999999999778 -0.5999999999999999778 -1 #
vertex $-1 $144 $207 #
straight-curve $-1 0.5999999999999999778 0 -3 0 1 0 I I #
coedge $-1 $126 $175 $201 $208 reversed $93 $-1 #
vertex $-1 $208 $209 #
coedge $-1 $131 $201 $191 $210 forward $156 $-1 #
vertex $-1 $150 $211 #
point $-1 0.5999999999999999778 0.5999999999999999778 -3 #
coedge $-1 $170 $134 $212 $213 reversed $93 $-1 #
coedge $-1 $137 $151 $134 $177 forward $152 $-1 #
edge $-1 $214 -1.5 $139 -0.5999999999999999778 $176 $215 forward 7 unknown #
coedge $-1 $135 $163 $216 $217 reversed $93 $-1 #
edge $-1 $141 0.5999999999999999778 $218 1.5 $161 $215 forward 7 unknown #
face $-1 $166 $187 $3 $-1 $219 forward single #
plane-surface $-1 0 0 -1 0 0 1 1 0 0 forward_v I I I I #
straight-curve $-1 -0.5999999999999999778 0.5999999999999999778 -2.5 0 0 -1 I I #
point $-1 -0.5999999999999999778 0.5999999999999999778 -1 #
point $-1 -0.5999999999999999778 -0.5999999999999999778 -1 #
coedge $-1 $216 $143 $145 $189 reversed $187 $-1 #
coedge $-1 $143 $216 $164 $203 forward $187 $-1 #
loop $-1 $-1 $143 $180 #
straight-curve $-1 0 -1.5 -3 1 0 0 I I #
edge $-1 $218 -1.5 $146 0.5 $145 $220 forward 7 unknown #
point $-1 -0.5999999999999999778 -1.5 -3 #
coedge $-1 $212 $149 $172 $210 reversed $193 $-1 #
coedge $-1 $149 $212 $151 $195 forward $193 $-1 #
loop $-1 $-1 $149 $155 #
straight-curve $-1 0 1.5 -3 -1 0 0 I I #
edge $-1 $214 -1.5 $153 0.5 $192 $221 forward 7 unknown #
face $-1 $136 $152 $3 $-1 $113 forward single #
point $-1 -0.5999999999999999778 1.5 -3 #
plane-surface $-1 0 1.5 -2.5 0 -1 0 0 0 -1 forward_v I I I I #
coedge $-1 $199 $199 $158 $200 reversed $222 $-1 #
edge $-1 $223 0 $223 6.283185307179586232 $158 $224 forward 7 unknown #
coedge $-1 $172 $159 $170 $208 forward $156 $-1 #
straight-curve $-1 0.5999999999999999778 0.5999999999999999778 -2.5 0 0 1 I I #
edge $-1 $204 -1.5 $168 0.5 $164 $225 forward 7 unknown #
vertex $-1 $165 $226 #
straight-curve $-1 0.5999999999999999778 0 -1 0 1 0 I I #
face $-1 $227 $228 $3 $-1 $229 forward single #
point $-1 0.5999999999999999778 -1.5 -3 #
edge $-1 $171 0.5999999999999999778 $230 1.5 $201 $205 forward 7 unknown #
point $-1 0.5999999999999999778 0.5999999999999999778 -1 #
edge $-1 $230 -1.5 $173 0.5 $172 $231 forward 7 unknown #
point $-1 0.5999999999999999778 1.5 -3 #
coedge $-1 $192 $191 $175 $213 forward $193 $-1 #
edge $-1 $230 -0.5999999999999999778 $214 0.5999999999999999778 $212 $232 forward 7 unknown #
vertex $-1 $213 $233 #
straight-curve $-1 -0.5999999999999999778 0 -1 0 -1 0 I I #
coedge $-1 $186 $185 $178 $217 forward $187 $-1 #
edge $-1 $218 -0.5999999999999999778 $204 0.5999999999999999778 $216 $234 forward 7 unknown #
vertex $-1 $179 $235 #
plane-surface $-1 0 -1.5 -2.5 0 1 0 0 0 1 forward_v I I I I #
straight-curve $-1 -0.5999999999999999778 -1.5 -2.5 0 0 -1 I I #
straight-curve $-1 -0.5999999999999999778 1.5 -2.5 0 0 -1 I I #
loop $-1 $-1 $199 $227 #
vertex $-1 $200 $236 #
ellipse-curve $-1 0 0 -3 0 0 -1 2 0 0 1 I I #
straight-curve $-1 0.5999999999999999778 -1.5 -2.5 0 0 -1 I I #
point $-1 0.5999999999999999778 -1.5 -1 #
face $-1 $237 $238 $3 $-1 $239 forward single #
loop $-1 $240 $241 $206 #
plane-surface $-1 0 0 0 0 0 1 -1 0 0 forward_v I I I I #
vertex $-1 $208 $242 #
straight-curve $-1 0.5999999999999999778 1.5 -2.5 0 0 -1 I I #
straight-curve $-1 0 1.5 -1 -1 0 0 I I #
point $-1 -0.5999999999999999778 1.5 -1 #
straight-curve $-1 0 -1.5 -1 1 0 0 I I #
point $-1 -0.5999999999999999778 -1.5 -1 #
point $-1 2 0 -3 #
face $-1 $243 $244 $3 $-1 $245 forward single #
loop $-1 $222 $246 $227 #
cone-surface $-1 0 0 -1.5 0 0 -1 2 0 0 1 I I 0 1 2 forward I I I I #
loop $-1 $-1 $247 $206 #
coedge $-1 $241 $241 $246 $248 forward $228 $-1 #
point $-1 0.5999999999999999778 1.5 -1 #
face $-1 $-1 $249 $3 $-1 $250 forward single #
loop $-1 $251 $252 $237 #
cone-surface $-1 0 0 4 0 0 1 1 0 0 1 I I 0 1 1 forward I I I I #
coedge $-1 $246 $246 $241 $248 reversed $238 $-1 #
coedge $-1 $247 $247 $252 $253 forward $240 $-1 #
edge $-1 $254 0 $254 6.283185307179586232 $241 $255 forward 7 unknown #
loop $-1 $-1 $256 $243 #
plane-surface $-1 0 0 8 0 0 1 1 0 0 forward_v I I I I #
loop $-1 $-1 $257 $237 #
coedge $-1 $252 $252 $247 $253 reversed $244 $-1 #
edge $-1 $258 0 $258 6.283185307179586232 $252 $259 forward 7 unknown #
vertex $-1 $248 $260 #
ellipse-curve $-1 0 0 0 0 0 1 2 0 0 1 I I #
coedge $-1 $256 $256 $257 $261 forward $249 $-1 #
coedge $-1 $257 $257 $256 $261 reversed $251 $-1 #
vertex $-1 $253 $262 #
ellipse-curve $-1 0 0 0 0 0 -1 1 0 0 1 I I #
point $-1 2 0 0 #
edge $-1 $263 0 $263 6.283185307179586232 $256 $264 forward 7 unknown #
point $-1 1 0 0 #
vertex $-1 $261 $265 #
ellipse-curve $-1 0 0 8 0 0 1 1 0 0 1 I I #
point $-1 1 0 8 #
End-of-ACIS-data 