600 0 1 0           
87 GICL ACIS Healer - Source: /gicl/data5/repository/CMU/seeker/seeker_tool_rack.sat - 6 0 18 ACIS 6.0.3 Solaris 24 Sat Apr 13 00:31:26 2002 
1 9.999999999999999547e-07 1.000000000000000036e-10 
body $-1 $1 $-1 $-1 #
lump $-1 $-1 $2 $0 #
shell $-1 $-1 $-1 $3 $-1 $1 #
face $-1 $4 $5 $2 $-1 $6 reversed single #
face $-1 $7 $8 $2 $-1 $9 forward single #
loop $-1 $-1 $10 $3 #
plane-surface $-1 123.0005999999999773 123.0005999999999773 758.0035999999998921 0 0 1 1 0 0 forward_v I I I I #
face $-1 $11 $12 $2 $-1 $13 forward single #
loop $-1 $-1 $14 $4 #
plane-surface $-1 246.0011999999999546 123.0005999999999773 635.0029999999999291 -1 0 0 0 0 1 forward_v I I I I #
coedge $-1 $15 $16 $17 $18 reversed $5 $-1 #
face $-1 $19 $20 $2 $-1 $21 forward single #
loop $-1 $-1 $22 $7 #
plane-surface $-1 123.0005999999999773 123.0005999999999773 512.002399999999966 0 0 1 1 0 0 forward_v I I I I #
coedge $-1 $23 $24 $25 $26 reversed $8 $-1 #
coedge $-1 $27 $10 $28 $29 reversed $5 $-1 #
coedge $-1 $10 $27 $23 $30 reversed $5 $-1 #
coedge $-1 $25 $31 $10 $18 forward $32 $-1 #
edge $-1 $33 -123.0005999999999631 $34 123.0005999999999915 $17 $35 forward 7 unknown #
face $-1 $36 $37 $2 $-1 $38 reversed single #
loop $-1 $-1 $39 $11 #
plane-surface $-1 0 123.0005999999999773 635.0029999999999291 1 0 0 0 0 -1 forward_v I I I I #
coedge $-1 $40 $41 $42 $43 reversed $12 $-1 #
coedge $-1 $44 $14 $16 $30 forward $8 $-1 #
coedge $-1 $14 $44 $40 $45 forward $8 $-1 #
coedge $-1 $42 $17 $14 $26 forward $32 $-1 #
edge $-1 $34 -251.001199999999983 $46 -5.000000000000056843 $25 $47 forward 7 unknown #
coedge $-1 $16 $15 $48 $49 reversed $5 $-1 #
coedge $-1 $39 $50 $15 $29 forward $20 $-1 #
edge $-1 $51 -123.0005999999999773 $33 123.0005999999999773 $28 $52 forward 7 unknown #
edge $-1 $34 -123.0005999999999773 $53 123.0005999999999773 $23 $54 forward 7 unknown #
coedge $-1 $17 $42 $39 $55 forward $32 $-1 #
loop $-1 $56 $42 $57 #
vertex $-1 $18 $58 #
vertex $-1 $18 $59 #
straight-curve $-1 123.0005999999999631 0 758.0035999999998921 1 0 0 I I #
face $-1 $60 $61 $2 $-1 $62 forward single #
loop $-1 $-1 $63 $19 #
plane-surface $-1 123.0005999999999773 123.0005999999999773 502.0023999999999091 0 0 1 1 0 0 forward_v I I I I #
coedge $-1 $64 $28 $31 $55 reversed $20 $-1 #
coedge $-1 $65 $22 $24 $45 reversed $12 $-1 #
coedge $-1 $22 $65 $64 $66 reversed $12 $-1 #
coedge $-1 $31 $25 $22 $43 forward $32 $-1 #
edge $-1 $46 -123.0005999999999915 $67 123.0005999999999631 $42 $68 forward 7 unknown #
coedge $-1 $24 $23 $69 $70 reversed $8 $-1 #
edge $-1 $71 -123.0005999999999773 $46 123.0005999999999773 $24 $72 forward 7 unknown #
vertex $-1 $43 $73 #
straight-curve $-1 246.0011999999999546 0 507.0023999999999091 0 0 -1 I I #
coedge $-1 $74 $69 $27 $49 forward $75 $-1 #
edge $-1 $53 -123.0005999999999915 $51 123.0005999999999631 $48 $76 forward 7 unknown #
coedge $-1 $28 $64 $74 $77 reversed $20 $-1 #
vertex $-1 $49 $78 #
straight-curve $-1 0 123.0005999999999773 758.0035999999998921 0 -1 0 I I #
vertex $-1 $49 $79 #
straight-curve $-1 246.0011999999999546 123.0005999999999773 758.0035999999998921 0 1 0 I I #
edge $-1 $67 5.000000000000056843 $33 251.001199999999983 $31 $80 forward 7 unknown #
loop $-1 $81 $82 $57 #
face $-1 $83 $32 $2 $-1 $84 reversed single #
point $-1 0 0 758.0035999999998921 #
point $-1 246.0011999999999546 0 758.0035999999998921 #
face $-1 $85 $86 $2 $-1 $87 forward single #
loop $-1 $-1 $88 $36 #
plane-surface $-1 246.0011999999999546 123.0005999999999773 379.0017999999999461 -1 0 0 0 0 1 forward_v I I I I #
coedge $-1 $89 $90 $91 $92 reversed $37 $-1 #
coedge $-1 $50 $39 $41 $66 forward $20 $-1 #
coedge $-1 $41 $40 $93 $94 reversed $12 $-1 #
edge $-1 $67 -123.0005999999999773 $95 123.0005999999999773 $64 $96 forward 7 unknown #
vertex $-1 $43 $97 #
straight-curve $-1 123.0005999999999631 0 512.002399999999966 -1 0 0 I I #
coedge $-1 $48 $93 $44 $70 forward $75 $-1 #
edge $-1 $71 5.000000000000056843 $53 251.001199999999983 $69 $98 forward 7 unknown #
vertex $-1 $94 $99 #
straight-curve $-1 246.0011999999999546 123.0005999999999773 512.002399999999966 0 -1 0 I I #
point $-1 246.0011999999999546 0 512.002399999999966 #
coedge $-1 $93 $48 $50 $77 forward $75 $-1 #
loop $-1 $100 $93 $101 #
straight-curve $-1 123.0005999999999631 246.0011999999999546 758.0035999999998921 -1 0 0 I I #
edge $-1 $51 -251.001199999999983 $95 -5.000000000000056843 $74 $102 forward 7 unknown #
point $-1 0 246.0011999999999546 758.0035999999998921 #
point $-1 246.0011999999999546 246.0011999999999546 758.0035999999998921 #
straight-curve $-1 0 0 507.0023999999999091 0 0 1 I I #
loop $-1 $103 $104 $57 #
coedge $-1 $105 $106 $107 $108 forward $56 $-1 #
face $-1 $101 $109 $2 $-1 $110 reversed single #
plane-surface $-1 123.0005999999999631 0 379.0017999999998892 0 1 0 0 0 1 forward_v I I I I #
face $-1 $111 $112 $2 $-1 $113 forward single #
loop $-1 $-1 $107 $60 #
plane-surface $-1 123.0005999999999773 123.0005999999999773 256.001199999999983 0 0 1 1 0 0 forward_v I I I I #
coedge $-1 $114 $115 $106 $116 reversed $61 $-1 #
coedge $-1 $117 $63 $118 $119 reversed $37 $-1 #
coedge $-1 $63 $117 $114 $120 reversed $37 $-1 #
coedge $-1 $106 $105 $63 $92 forward $56 $-1 #
edge $-1 $121 -123.0005999999999631 $122 123.0005999999999915 $91 $123 forward 7 unknown #
coedge $-1 $69 $74 $65 $94 forward $75 $-1 #
edge $-1 $95 -123.0005999999999631 $71 123.0005999999999915 $93 $124 forward 7 unknown #
vertex $-1 $94 $125 #
straight-curve $-1 0 123.0005999999999773 512.002399999999966 0 1 0 I I #
point $-1 0 0 512.002399999999966 #
straight-curve $-1 246.0011999999999546 246.0011999999999546 507.0023999999999091 0 0 1 I I #
point $-1 246.0011999999999546 246.0011999999999546 512.002399999999966 #
loop $-1 $126 $127 $101 #
face $-1 $128 $75 $2 $-1 $129 reversed single #
straight-curve $-1 0 246.0011999999999546 507.0023999999999091 0 0 -1 I I #
loop $-1 $-1 $130 $57 #
coedge $-1 $131 $132 $133 $134 forward $81 $-1 #
coedge $-1 $91 $82 $135 $136 forward $56 $-1 #
coedge $-1 $82 $91 $88 $116 forward $56 $-1 #
coedge $-1 $137 $138 $82 $108 reversed $86 $-1 #
edge $-1 $139 -123.0005999999999915 $140 123.0005999999999631 $82 $141 forward 7 unknown #
loop $-1 $-1 $142 $83 #
plane-surface $-1 -10 123.0005999999999773 379.0017999999998892 1 0 0 0 0 -1 forward_v I I I I #
face $-1 $143 $144 $2 $-1 $145 reversed single #
loop $-1 $-1 $135 $85 #
plane-surface $-1 0 123.0005999999999773 379.0017999999999461 1 0 0 0 0 -1 forward_v I I I I #
coedge $-1 $146 $88 $90 $120 forward $61 $-1 #
coedge $-1 $88 $146 $137 $147 forward $61 $-1 #
edge $-1 $122 -123.0006000000000199 $139 123.0005999999999062 $106 $148 forward 7 unknown #
coedge $-1 $90 $89 $149 $150 reversed $37 $-1 #
coedge $-1 $135 $151 $89 $119 forward $112 $-1 #
edge $-1 $152 -123.0005999999999773 $121 123.0005999999999773 $118 $153 forward 7 unknown #
edge $-1 $122 -123.0005999999999773 $154 123.0005999999999773 $114 $155 forward 7 unknown #
vertex $-1 $92 $156 #
vertex $-1 $92 $157 #
straight-curve $-1 123.0005999999999631 0 502.0023999999999091 1 0 0 I I #
straight-curve $-1 123.0005999999999631 246.0011999999999546 512.002399999999966 1 0 0 I I #
point $-1 0 246.0011999999999546 512.002399999999966 #
loop $-1 $158 $159 $101 #
coedge $-1 $160 $161 $162 $163 forward $100 $-1 #
face $-1 $-1 $164 $2 $-1 $165 reversed single #
plane-surface $-1 123.0005999999999631 246.0011999999999546 379.0017999999998892 0 -1 0 0 0 -1 forward_v I I I I #
coedge $-1 $166 $167 $168 $169 forward $103 $-1 #
coedge $-1 $170 $104 $171 $172 forward $81 $-1 #
coedge $-1 $104 $170 $173 $174 forward $81 $-1 #
coedge $-1 $175 $176 $104 $134 reversed $177 $-1 #
edge $-1 $178 -123.0005999999999915 $179 123.0005999999999631 $104 $180 forward 7 unknown #
coedge $-1 $181 $118 $105 $136 reversed $112 $-1 #
edge $-1 $140 -123.0005999999999062 $121 123.0006000000000199 $105 $182 forward 7 unknown #
coedge $-1 $162 $107 $115 $147 reversed $86 $-1 #
coedge $-1 $107 $162 $181 $183 reversed $86 $-1 #
vertex $-1 $108 $184 #
vertex $-1 $108 $185 #
straight-curve $-1 123.0005999999999631 0 256.001199999999983 -1 0 0 I I #
coedge $-1 $186 $187 $188 $189 forward $109 $-1 #
face $-1 $190 $191 $2 $-1 $192 forward single #
loop $-1 $-1 $193 $111 #
plane-surface $-1 123.0005999999999773 123.0005999999999773 246.0011999999999261 0 0 1 1 0 0 forward_v I I I I #
coedge $-1 $115 $114 $160 $194 reversed $61 $-1 #
edge $-1 $195 -123.0005999999999773 $139 123.0005999999999773 $115 $196 forward 7 unknown #
straight-curve $-1 246.0011999999999546 0 379.0017999999998892 0 0 -1 I I #
coedge $-1 $161 $160 $117 $150 forward $100 $-1 #
edge $-1 $154 -123.0005999999999915 $152 123.0005999999999631 $149 $197 forward 7 unknown #
coedge $-1 $118 $181 $161 $198 reversed $112 $-1 #
vertex $-1 $150 $199 #
straight-curve $-1 0 123.0005999999999773 502.0023999999999091 0 -1 0 I I #
vertex $-1 $150 $200 #
straight-curve $-1 246.0011999999999546 123.0005999999999773 502.0023999999999091 0 1 0 I I #
point $-1 0 0 502.0023999999999091 #
point $-1 246.0011999999999546 0 502.0023999999999091 #
loop $-1 $-1 $201 $101 #
coedge $-1 $202 $203 $204 $205 forward $126 $-1 #
coedge $-1 $149 $127 $146 $194 forward $100 $-1 #
coedge $-1 $127 $149 $151 $198 forward $100 $-1 #
coedge $-1 $138 $137 $127 $163 reversed $86 $-1 #
edge $-1 $206 -123.0005999999999631 $195 123.0005999999999915 $127 $207 forward 7 unknown #
loop $-1 $-1 $208 $128 #
plane-surface $-1 256.0011999999999261 123.0005999999999773 379.0017999999998892 -1 0 0 0 0 1 forward_v I I I I #
coedge $-1 $209 $130 $210 $211 reversed $103 $-1 #
coedge $-1 $130 $209 $212 $213 reversed $103 $-1 #
coedge $-1 $187 $186 $130 $169 reversed $109 $-1 #
edge $-1 $214 -389.0017999999998892 $215 389.0017999999998892 $168 $216 forward 7 unknown #
coedge $-1 $132 $131 $193 $217 forward $81 $-1 #
coedge $-1 $218 $219 $131 $172 reversed $220 $-1 #
edge $-1 $179 -251.0011999999999261 $221 -5 $131 $222 forward 7 unknown #
coedge $-1 $223 $224 $132 $174 reversed $191 $-1 #
edge $-1 $225 5 $178 251.0011999999999261 $132 $226 forward 7 unknown #
coedge $-1 $204 $133 $224 $227 reversed $177 $-1 #
coedge $-1 $133 $204 $218 $228 reversed $177 $-1 #
loop $-1 $-1 $133 $190 #
vertex $-1 $134 $229 #
vertex $-1 $134 $230 #
straight-curve $-1 123.0005999999999631 0 0 -1 0 0 I I #
coedge $-1 $151 $135 $138 $183 forward $112 $-1 #
straight-curve $-1 0 0 379.0017999999998892 0 0 1 I I #
edge $-1 $140 -123.0005999999999773 $206 123.0005999999999773 $181 $231 forward 7 unknown #
point $-1 246.0011999999999546 0 256.001199999999983 #
point $-1 0 0 256.001199999999983 #
coedge $-1 $168 $142 $232 $233 reversed $109 $-1 #
coedge $-1 $142 $168 $234 $235 reversed $109 $-1 #
coedge $-1 $236 $237 $142 $189 reversed $158 $-1 #
edge $-1 $238 -389.0017999999998892 $239 389.0017999999998892 $188 $240 forward 7 unknown #
face $-1 $241 $177 $2 $-1 $242 forward single #
loop $-1 $-1 $173 $143 #
plane-surface $-1 246.0011999999999546 123.0005999999999773 123.0005999999999631 -1 0 0 0 0 1 forward_v I I I I #
coedge $-1 $243 $244 $170 $217 reversed $144 $-1 #
edge $-1 $195 -123.0005999999999062 $154 123.0006000000000199 $160 $245 forward 7 unknown #
vertex $-1 $163 $246 #
straight-curve $-1 246.0011999999999546 123.0005999999999773 256.001199999999983 0 -1 0 I I #
straight-curve $-1 123.0005999999999631 246.0011999999999546 502.0023999999999091 -1 0 0 I I #
edge $-1 $152 -123.0006000000000199 $206 123.0005999999999062 $161 $247 forward 7 unknown #
point $-1 0 246.0011999999999546 502.0023999999999091 #
point $-1 246.0011999999999546 246.0011999999999546 502.0023999999999091 #
coedge $-1 $237 $236 $248 $249 forward $158 $-1 #
coedge $-1 $250 $159 $251 $252 forward $126 $-1 #
coedge $-1 $159 $250 $253 $254 forward $126 $-1 #
coedge $-1 $176 $175 $159 $205 reversed $177 $-1 #
edge $-1 $255 -123.0005999999999631 $256 123.0005999999999915 $159 $257 forward 7 unknown #
vertex $-1 $163 $258 #
straight-curve $-1 123.0005999999999631 246.0011999999999546 256.001199999999983 1 0 0 I I #
coedge $-1 $259 $260 $209 $261 forward $164 $-1 #
coedge $-1 $167 $166 $208 $261 reversed $103 $-1 #
coedge $-1 $232 $262 $166 $211 forward $263 $-1 #
edge $-1 $264 -133.0005999999999631 $215 133.0005999999999631 $166 $265 forward 7 unknown #
coedge $-1 $266 $234 $167 $213 forward $267 $-1 #
edge $-1 $214 -133.0005999999999631 $268 133.0005999999999631 $167 $269 forward 7 unknown #
vertex $-1 $235 $270 #
vertex $-1 $233 $271 #
straight-curve $-1 -10 0 379.0017999999998892 0 0 -1 I I #
edge $-1 $221 -123.0005999999999631 $225 123.0005999999999915 $170 $272 forward 7 unknown #
coedge $-1 $253 $171 $176 $228 forward $220 $-1 #
coedge $-1 $171 $253 $243 $273 forward $220 $-1 #
loop $-1 $-1 $171 $241 #
vertex $-1 $217 $274 #
straight-curve $-1 0 0 251.0011999999999261 0 0 1 I I #
coedge $-1 $251 $173 $244 $275 forward $191 $-1 #
coedge $-1 $173 $251 $175 $227 forward $191 $-1 #
vertex $-1 $217 $276 #
straight-curve $-1 246.0011999999999546 0 251.0011999999999261 0 0 -1 I I #
edge $-1 $256 -123.0005999999999773 $178 123.0005999999999773 $224 $277 forward 7 unknown #
edge $-1 $179 -123.0005999999999773 $255 123.0005999999999773 $218 $278 forward 7 unknown #
point $-1 246.0011999999999546 0 0 #
point $-1 0 0 0 #
straight-curve $-1 0 123.0005999999999773 256.001199999999983 0 1 0 I I #
coedge $-1 $279 $210 $186 $233 forward $263 $-1 #
edge $-1 $215 -123.0005999999999773 $239 123.0005999999999773 $186 $280 forward 7 unknown #
coedge $-1 $212 $281 $187 $235 forward $267 $-1 #
edge $-1 $238 -123.0005999999999773 $214 123.0005999999999773 $187 $282 forward 7 unknown #
coedge $-1 $201 $188 $281 $283 reversed $158 $-1 #
coedge $-1 $188 $201 $279 $284 reversed $158 $-1 #
vertex $-1 $283 $285 #
vertex $-1 $284 $286 #
straight-curve $-1 -10 246.0011999999999546 379.0017999999998892 0 0 -1 I I #
face $-1 $287 $220 $2 $-1 $288 forward single #
plane-surface $-1 123.0005999999999773 123.0005999999999773 0 0 0 1 1 0 0 forward_v I I I I #
coedge $-1 $289 $193 $219 $273 reversed $144 $-1 #
coedge $-1 $193 $289 $223 $275 reversed $144 $-1 #
straight-curve $-1 246.0011999999999546 246.0011999999999546 379.0017999999998892 0 0 1 I I #
point $-1 246.0011999999999546 246.0011999999999546 256.001199999999983 #
straight-curve $-1 0 246.0011999999999546 379.0017999999998892 0 0 -1 I I #
coedge $-1 $260 $259 $201 $249 reversed $164 $-1 #
edge $-1 $290 -389.0017999999998892 $291 389.0017999999998892 $248 $292 forward 7 unknown #
coedge $-1 $203 $202 $289 $293 forward $126 $-1 #
coedge $-1 $224 $223 $202 $252 reversed $191 $-1 #
edge $-1 $256 -251.0011999999999261 $294 -5 $202 $295 forward 7 unknown #
coedge $-1 $219 $218 $203 $254 reversed $220 $-1 #
edge $-1 $296 5 $255 251.0011999999999261 $203 $297 forward 7 unknown #
vertex $-1 $205 $298 #
vertex $-1 $205 $299 #
straight-curve $-1 123.0005999999999631 246.0011999999999546 0 1 0 0 I I #
point $-1 0 246.0011999999999546 256.001199999999983 #
coedge $-1 $248 $208 $262 $300 reversed $164 $-1 #
coedge $-1 $208 $248 $266 $301 reversed $164 $-1 #
edge $-1 $268 -389.0017999999998892 $264 389.0017999999998892 $208 $302 forward 7 unknown #
coedge $-1 $210 $279 $259 $300 forward $263 $-1 #
loop $-1 $-1 $262 $303 #
vertex $-1 $261 $304 #
straight-curve $-1 123.0005999999999631 0 -10 -1 0 0 I I #
coedge $-1 $281 $212 $260 $301 forward $267 $-1 #
loop $-1 $-1 $266 $287 #
vertex $-1 $301 $305 #
straight-curve $-1 123.0005999999999631 0 768.0035999999997784 1 0 0 I I #
point $-1 -10 0 768.0035999999997784 #
point $-1 -10 0 -10 #
straight-curve $-1 123.0005999999999631 0 246.0011999999999261 1 0 0 I I #
edge $-1 $296 -123.0005999999999773 $221 123.0005999999999773 $219 $306 forward 7 unknown #
point $-1 0 0 246.0011999999999261 #
edge $-1 $225 -123.0005999999999773 $294 123.0005999999999773 $223 $307 forward 7 unknown #
point $-1 246.0011999999999546 0 246.0011999999999261 #
straight-curve $-1 246.0011999999999546 123.0005999999999773 0 0 -1 0 I I #
straight-curve $-1 0 123.0005999999999773 0 0 1 0 I I #
coedge $-1 $262 $232 $237 $284 forward $263 $-1 #
straight-curve $-1 -10 123.0005999999999773 -10 0 1 0 I I #
coedge $-1 $234 $266 $236 $283 forward $267 $-1 #
straight-curve $-1 -10 123.0005999999999773 768.0035999999997784 0 -1 0 I I #
edge $-1 $290 -133.0005999999999631 $238 133.0005999999999631 $236 $308 forward 7 unknown #
edge $-1 $239 -133.0005999999999631 $291 133.0005999999999631 $237 $309 forward 7 unknown #
point $-1 -10 246.0011999999999546 768.0035999999997784 #
point $-1 -10 246.0011999999999546 -10 #
face $-1 $303 $267 $2 $-1 $310 forward single #
plane-surface $-1 0 123.0005999999999773 123.0005999999999631 1 0 0 0 0 -1 forward_v I I I I #
coedge $-1 $244 $243 $250 $293 reversed $144 $-1 #
vertex $-1 $301 $311 #
vertex $-1 $300 $312 #
straight-curve $-1 256.0011999999999261 246.0011999999999546 379.0017999999998892 0 0 -1 I I #
edge $-1 $294 -123.0005999999999915 $296 123.0005999999999631 $250 $313 forward 7 unknown #
vertex $-1 $293 $314 #
straight-curve $-1 246.0011999999999546 246.0011999999999546 251.0011999999999261 0 0 1 I I #
vertex $-1 $293 $315 #
straight-curve $-1 0 246.0011999999999546 251.0011999999999261 0 0 -1 I I #
point $-1 0 246.0011999999999546 0 #
point $-1 246.0011999999999546 246.0011999999999546 0 #
edge $-1 $291 -123.0005999999999773 $264 123.0005999999999773 $259 $316 forward 7 unknown #
edge $-1 $268 -123.0005999999999773 $290 123.0005999999999773 $260 $317 forward 7 unknown #
straight-curve $-1 256.0011999999999261 0 379.0017999999998892 0 0 -1 I I #
face $-1 $57 $263 $2 $-1 $318 reversed single #
point $-1 256.0011999999999261 0 -10 #
point $-1 256.0011999999999261 0 768.0035999999997784 #
straight-curve $-1 0 123.0005999999999773 246.0011999999999261 0 -1 0 I I #
straight-curve $-1 246.0011999999999546 123.0005999999999773 246.0011999999999261 0 1 0 I I #
straight-curve $-1 123.0005999999999631 246.0011999999999546 768.0035999999997784 -1 0 0 I I #
straight-curve $-1 123.0005999999999631 246.0011999999999546 -10 1 0 0 I I #
plane-surface $-1 123.0005999999999631 123.0005999999999773 768.0035999999997784 0 0 1 1 0 0 forward_v I I I I #
point $-1 256.0011999999999261 246.0011999999999546 768.0035999999997784 #
point $-1 256.0011999999999261 246.0011999999999546 -10 #
straight-curve $-1 123.0005999999999631 246.0011999999999546 246.0011999999999261 -1 0 0 I I #
point $-1 246.0011999999999546 246.0011999999999546 246.0011999999999261 #
point $-1 0 246.0011999999999546 246.0011999999999261 #
straight-curve $-1 256.0011999999999261 123.0005999999999773 -10 0 -1 0 I I #
straight-curve $-1 256.0011999999999261 123.0005999999999773 768.0035999999997784 0 1 0 I I #
plane-surface $-1 123.0005999999999631 123.0005999999999773 -10 0 0 1 1 0 0 forward_v I I I I #
End-of-ACIS-data 