600 0 1 0           
87 GICL ACIS Healer - Source: /gicl/data5/repository/CMU/seeker/seeker_part_rack.sat - 6 0 18 ACIS 6.0.3 Solaris 24 Sat Apr 13 00:31:24 2002 
1 9.999999999999999547e-07 1.000000000000000036e-10 
body $-1 $1 $-1 $-1 #
lump $-1 $-1 $2 $0 #
shell $-1 $-1 $-1 $3 $-1 $1 #
face $-1 $4 $5 $2 $-1 $6 reversed single #
face $-1 $7 $8 $2 $-1 $9 forward single #
loop $-1 $-1 $10 $3 #
plane-surface $-1 1228 132 812 0 0 1 1 0 0 forward_v I I I I #
face $-1 $11 $12 $2 $-1 $13 forward single #
loop $-1 $-1 $14 $4 #
plane-surface $-1 1360 132 680 -1 0 0 0 0 1 forward_v I I I I #
coedge $-1 $15 $16 $17 $18 reversed $5 $-1 #
face $-1 $19 $20 $2 $-1 $21 forward single #
loop $-1 $-1 $22 $7 #
plane-surface $-1 1228 132 548 0 0 1 1 0 0 forward_v I I I I #
coedge $-1 $23 $24 $25 $26 reversed $8 $-1 #
coedge $-1 $27 $10 $28 $29 reversed $5 $-1 #
coedge $-1 $10 $27 $23 $30 reversed $5 $-1 #
coedge $-1 $25 $31 $10 $18 forward $32 $-1 #
edge $-1 $33 142 $34 406 $17 $35 forward 7 unknown #
face $-1 $36 $37 $2 $-1 $38 reversed single #
loop $-1 $-1 $39 $11 #
plane-surface $-1 1096 132 680 1 0 0 0 0 -1 forward_v I I I I #
coedge $-1 $40 $41 $42 $43 reversed $12 $-1 #
coedge $-1 $44 $14 $16 $30 forward $8 $-1 #
coedge $-1 $14 $44 $40 $45 forward $8 $-1 #
coedge $-1 $42 $17 $14 $26 forward $32 $-1 #
edge $-1 $34 -269 $46 -5 $25 $47 forward 7 unknown #
coedge $-1 $16 $15 $48 $49 reversed $5 $-1 #
coedge $-1 $39 $50 $15 $29 forward $20 $-1 #
edge $-1 $51 -132 $33 132 $28 $52 forward 7 unknown #
edge $-1 $34 -132 $53 132 $23 $54 forward 7 unknown #
coedge $-1 $17 $42 $39 $55 forward $32 $-1 #
loop $-1 $56 $42 $57 #
vertex $-1 $18 $58 #
vertex $-1 $18 $59 #
straight-curve $-1 954 0 812 1 0 0 I I #
face $-1 $60 $61 $2 $-1 $62 forward single #
loop $-1 $-1 $63 $19 #
plane-surface $-1 954 132 812 0 0 1 1 0 0 forward_v I I I I #
coedge $-1 $64 $28 $31 $55 reversed $20 $-1 #
coedge $-1 $65 $22 $24 $45 reversed $12 $-1 #
coedge $-1 $22 $65 $64 $66 reversed $12 $-1 #
coedge $-1 $31 $25 $22 $43 forward $32 $-1 #
edge $-1 $46 -406 $67 -142 $42 $68 forward 7 unknown #
coedge $-1 $24 $23 $69 $70 reversed $8 $-1 #
edge $-1 $71 -132 $46 132 $24 $72 forward 7 unknown #
vertex $-1 $43 $73 #
straight-curve $-1 1360 0 543 0 0 -1 I I #
coedge $-1 $74 $69 $27 $49 forward $75 $-1 #
edge $-1 $53 -406 $51 -142 $48 $76 forward 7 unknown #
coedge $-1 $28 $64 $74 $77 reversed $20 $-1 #
vertex $-1 $49 $78 #
straight-curve $-1 1096 132 812 0 -1 0 I I #
vertex $-1 $49 $79 #
straight-curve $-1 1360 132 812 0 1 0 I I #
edge $-1 $67 5 $33 269 $31 $80 forward 7 unknown #
loop $-1 $81 $82 $57 #
face $-1 $83 $32 $2 $-1 $84 reversed single #
point $-1 1096 0 812 #
point $-1 1360 0 812 #
face $-1 $85 $86 $2 $-1 $87 forward single #
loop $-1 $-1 $88 $36 #
plane-surface $-1 1086 132 680 -1 0 0 0 0 1 forward_v I I I I #
coedge $-1 $89 $90 $91 $92 reversed $37 $-1 #
coedge $-1 $50 $39 $41 $66 forward $20 $-1 #
coedge $-1 $41 $40 $93 $94 reversed $12 $-1 #
edge $-1 $67 -132 $95 132 $64 $96 forward 7 unknown #
vertex $-1 $43 $97 #
straight-curve $-1 954 0 548 -1 0 0 I I #
coedge $-1 $48 $93 $44 $70 forward $75 $-1 #
edge $-1 $71 5 $53 269 $69 $98 forward 7 unknown #
vertex $-1 $94 $99 #
straight-curve $-1 1360 132 548 0 -1 0 I I #
point $-1 1360 0 548 #
coedge $-1 $93 $48 $50 $77 forward $75 $-1 #
loop $-1 $100 $93 $101 #
straight-curve $-1 954 264 812 -1 0 0 I I #
edge $-1 $51 -269 $95 -5 $74 $102 forward 7 unknown #
point $-1 1096 264 812 #
point $-1 1360 264 812 #
straight-curve $-1 1096 0 543 0 0 1 I I #
loop $-1 $103 $104 $57 #
coedge $-1 $105 $106 $107 $108 forward $56 $-1 #
face $-1 $101 $109 $2 $-1 $110 reversed single #
plane-surface $-1 680 0 406 0 1 0 0 0 1 forward_v I I I I #
face $-1 $111 $112 $2 $-1 $113 forward single #
loop $-1 $-1 $107 $60 #
plane-surface $-1 954 132 548 0 0 1 1 0 0 forward_v I I I I #
coedge $-1 $114 $115 $106 $116 reversed $61 $-1 #
coedge $-1 $117 $63 $118 $119 reversed $37 $-1 #
coedge $-1 $63 $117 $114 $120 reversed $37 $-1 #
coedge $-1 $106 $105 $63 $92 forward $56 $-1 #
edge $-1 $121 5 $122 269 $91 $123 forward 7 unknown #
coedge $-1 $69 $74 $65 $94 forward $75 $-1 #
edge $-1 $95 142 $71 406 $93 $124 forward 7 unknown #
vertex $-1 $94 $125 #
straight-curve $-1 1096 132 548 0 1 0 I I #
point $-1 1096 0 548 #
straight-curve $-1 1360 264 543 0 0 1 I I #
point $-1 1360 264 548 #
loop $-1 $126 $127 $101 #
face $-1 $128 $75 $2 $-1 $129 reversed single #
straight-curve $-1 1096 264 543 0 0 -1 I I #
loop $-1 $130 $131 $57 #
coedge $-1 $132 $133 $134 $135 forward $81 $-1 #
coedge $-1 $91 $82 $136 $137 forward $56 $-1 #
coedge $-1 $82 $91 $88 $116 forward $56 $-1 #
coedge $-1 $138 $139 $82 $108 reversed $86 $-1 #
edge $-1 $140 -269 $141 -5 $82 $142 forward 7 unknown #
loop $-1 $-1 $143 $83 #
plane-surface $-1 -10 132 406 1 0 0 0 0 -1 forward_v I I I I #
face $-1 $144 $145 $2 $-1 $146 reversed single #
loop $-1 $-1 $136 $85 #
plane-surface $-1 822 132 680 1 0 0 0 0 -1 forward_v I I I I #
coedge $-1 $147 $88 $90 $120 forward $61 $-1 #
coedge $-1 $88 $147 $138 $148 forward $61 $-1 #
edge $-1 $122 -269 $140 -5 $106 $149 forward 7 unknown #
coedge $-1 $90 $89 $150 $151 reversed $37 $-1 #
coedge $-1 $136 $152 $89 $119 forward $112 $-1 #
edge $-1 $153 -132 $121 132 $118 $154 forward 7 unknown #
edge $-1 $122 -132 $155 132 $114 $156 forward 7 unknown #
vertex $-1 $92 $157 #
vertex $-1 $92 $158 #
straight-curve $-1 817 0 812 1 0 0 I I #
straight-curve $-1 954 264 548 1 0 0 I I #
point $-1 1096 264 548 #
loop $-1 $159 $160 $101 #
coedge $-1 $161 $162 $163 $164 forward $100 $-1 #
face $-1 $-1 $165 $2 $-1 $166 reversed single #
plane-surface $-1 680 264 406 0 -1 0 0 0 -1 forward_v I I I I #
loop $-1 $167 $168 $57 #
coedge $-1 $169 $170 $171 $172 forward $103 $-1 #
coedge $-1 $173 $104 $174 $175 forward $81 $-1 #
coedge $-1 $104 $173 $176 $177 forward $81 $-1 #
coedge $-1 $178 $179 $104 $135 reversed $180 $-1 #
edge $-1 $181 -132 $182 132 $104 $183 forward 7 unknown #
coedge $-1 $184 $118 $105 $137 reversed $112 $-1 #
edge $-1 $141 5 $121 269 $105 $185 forward 7 unknown #
coedge $-1 $163 $107 $115 $148 reversed $86 $-1 #
coedge $-1 $107 $163 $184 $186 reversed $86 $-1 #
vertex $-1 $108 $187 #
vertex $-1 $108 $188 #
straight-curve $-1 817 0 548 -1 0 0 I I #
coedge $-1 $189 $190 $191 $192 forward $109 $-1 #
face $-1 $193 $194 $2 $-1 $195 forward single #
loop $-1 $-1 $196 $111 #
plane-surface $-1 680 132 812 0 0 1 1 0 0 forward_v I I I I #
coedge $-1 $115 $114 $161 $197 reversed $61 $-1 #
edge $-1 $198 -132 $140 132 $115 $199 forward 7 unknown #
straight-curve $-1 1086 0 543 0 0 -1 I I #
coedge $-1 $162 $161 $117 $151 forward $100 $-1 #
edge $-1 $155 -269 $153 -5 $150 $200 forward 7 unknown #
coedge $-1 $118 $184 $162 $201 reversed $112 $-1 #
vertex $-1 $151 $202 #
straight-curve $-1 822 132 812 0 -1 0 I I #
vertex $-1 $151 $203 #
straight-curve $-1 1086 132 812 0 1 0 I I #
point $-1 822 0 812 #
point $-1 1086 0 812 #
loop $-1 $204 $205 $101 #
coedge $-1 $206 $207 $208 $209 forward $126 $-1 #
coedge $-1 $150 $127 $147 $197 forward $100 $-1 #
coedge $-1 $127 $150 $152 $201 forward $100 $-1 #
coedge $-1 $139 $138 $127 $164 reversed $86 $-1 #
edge $-1 $210 5 $198 269 $127 $211 forward 7 unknown #
loop $-1 $-1 $212 $128 #
plane-surface $-1 1370 132 406 -1 0 0 0 0 1 forward_v I I I I #
loop $-1 $213 $214 $57 #
coedge $-1 $215 $216 $217 $218 forward $130 $-1 #
coedge $-1 $219 $131 $220 $221 forward $103 $-1 #
coedge $-1 $131 $219 $222 $223 forward $103 $-1 #
coedge $-1 $224 $225 $131 $172 reversed $226 $-1 #
edge $-1 $227 5 $228 269 $131 $229 forward 7 unknown #
coedge $-1 $133 $132 $196 $230 forward $81 $-1 #
coedge $-1 $231 $232 $132 $175 reversed $233 $-1 #
edge $-1 $182 5 $234 269 $132 $235 forward 7 unknown #
coedge $-1 $236 $237 $133 $177 reversed $194 $-1 #
edge $-1 $238 -269 $181 -5 $133 $239 forward 7 unknown #
coedge $-1 $208 $134 $237 $240 reversed $180 $-1 #
coedge $-1 $134 $208 $231 $241 reversed $180 $-1 #
loop $-1 $-1 $134 $193 #
vertex $-1 $135 $242 #
vertex $-1 $135 $243 #
straight-curve $-1 680 0 548 -1 0 0 I I #
coedge $-1 $152 $136 $139 $186 forward $112 $-1 #
straight-curve $-1 822 0 543 0 0 1 I I #
edge $-1 $141 -132 $210 132 $184 $244 forward 7 unknown #
point $-1 1086 0 548 #
point $-1 822 0 548 #
coedge $-1 $245 $143 $246 $247 reversed $109 $-1 #
coedge $-1 $143 $245 $248 $249 reversed $109 $-1 #
coedge $-1 $250 $251 $143 $192 reversed $252 $-1 #
edge $-1 $253 -416 $254 416 $191 $255 forward 7 unknown #
face $-1 $256 $180 $2 $-1 $257 forward single #
loop $-1 $-1 $176 $144 #
plane-surface $-1 812 132 680 -1 0 0 0 0 1 forward_v I I I I #
coedge $-1 $258 $259 $173 $230 reversed $145 $-1 #
edge $-1 $198 5 $155 269 $161 $260 forward 7 unknown #
vertex $-1 $164 $261 #
straight-curve $-1 1086 132 548 0 -1 0 I I #
straight-curve $-1 817 264 812 -1 0 0 I I #
edge $-1 $153 -269 $210 -5 $162 $262 forward 7 unknown #
point $-1 822 264 812 #
point $-1 1086 264 812 #
loop $-1 $263 $264 $101 #
coedge $-1 $265 $266 $267 $268 forward $159 $-1 #
coedge $-1 $269 $160 $270 $271 forward $126 $-1 #
coedge $-1 $160 $269 $272 $273 forward $126 $-1 #
coedge $-1 $179 $178 $160 $209 reversed $180 $-1 #
edge $-1 $274 -132 $275 132 $160 $276 forward 7 unknown #
vertex $-1 $164 $277 #
straight-curve $-1 817 264 548 1 0 0 I I #
coedge $-1 $278 $279 $280 $281 forward $165 $-1 #
loop $-1 $282 $283 $57 #
coedge $-1 $284 $285 $286 $287 forward $167 $-1 #
coedge $-1 $288 $168 $289 $290 forward $130 $-1 #
coedge $-1 $168 $288 $291 $292 forward $130 $-1 #
coedge $-1 $293 $294 $168 $218 reversed $295 $-1 #
edge $-1 $296 142 $297 406 $168 $298 forward 7 unknown #
coedge $-1 $170 $169 $299 $300 forward $103 $-1 #
coedge $-1 $301 $302 $169 $221 reversed $303 $-1 #
edge $-1 $228 5 $304 269 $169 $305 forward 7 unknown #
coedge $-1 $306 $307 $170 $223 reversed $308 $-1 #
edge $-1 $309 -269 $227 -5 $170 $310 forward 7 unknown #
coedge $-1 $267 $171 $307 $311 reversed $226 $-1 #
coedge $-1 $171 $267 $301 $312 reversed $226 $-1 #
loop $-1 $-1 $171 $313 #
vertex $-1 $172 $314 #
vertex $-1 $172 $315 #
straight-curve $-1 543 0 548 -1 0 0 I I #
edge $-1 $234 -132 $238 132 $173 $316 forward 7 unknown #
coedge $-1 $272 $174 $179 $241 forward $233 $-1 #
coedge $-1 $174 $272 $258 $317 forward $233 $-1 #
loop $-1 $-1 $174 $256 #
vertex $-1 $230 $318 #
straight-curve $-1 548 0 543 0 0 1 I I #
coedge $-1 $270 $176 $259 $319 forward $194 $-1 #
coedge $-1 $176 $270 $178 $240 forward $194 $-1 #
vertex $-1 $230 $320 #
straight-curve $-1 812 0 543 0 0 -1 I I #
edge $-1 $275 -132 $181 132 $237 $321 forward 7 unknown #
edge $-1 $182 -132 $274 132 $231 $322 forward 7 unknown #
point $-1 812 0 548 #
point $-1 548 0 548 #
straight-curve $-1 822 132 548 0 1 0 I I #
coedge $-1 $190 $189 $323 $324 reversed $109 $-1 #
coedge $-1 $325 $326 $189 $247 forward $327 $-1 #
edge $-1 $328 -132 $254 132 $189 $329 forward 7 unknown #
coedge $-1 $330 $331 $190 $249 forward $332 $-1 #
edge $-1 $253 -132 $333 132 $190 $334 forward 7 unknown #
coedge $-1 $335 $191 $331 $336 reversed $252 $-1 #
coedge $-1 $191 $335 $325 $337 reversed $252 $-1 #
loop $-1 $-1 $335 $101 #
vertex $-1 $336 $338 #
vertex $-1 $337 $339 #
straight-curve $-1 -10 264 406 0 0 -1 I I #
face $-1 $340 $233 $2 $-1 $341 forward single #
plane-surface $-1 680 132 548 0 0 1 1 0 0 forward_v I I I I #
coedge $-1 $342 $196 $232 $317 reversed $145 $-1 #
coedge $-1 $196 $342 $236 $319 reversed $145 $-1 #
straight-curve $-1 1086 264 543 0 0 1 I I #
point $-1 1086 264 548 #
straight-curve $-1 822 264 543 0 0 -1 I I #
loop $-1 $343 $344 $101 #
coedge $-1 $345 $346 $347 $348 forward $204 $-1 #
coedge $-1 $349 $205 $350 $351 forward $159 $-1 #
coedge $-1 $205 $349 $352 $353 forward $159 $-1 #
coedge $-1 $225 $224 $205 $268 reversed $226 $-1 #
edge $-1 $354 -269 $355 -5 $205 $356 forward 7 unknown #
coedge $-1 $207 $206 $342 $357 forward $126 $-1 #
coedge $-1 $237 $236 $206 $271 reversed $194 $-1 #
edge $-1 $275 5 $358 269 $206 $359 forward 7 unknown #
coedge $-1 $232 $231 $207 $273 reversed $233 $-1 #
edge $-1 $360 -269 $274 -5 $207 $361 forward 7 unknown #
vertex $-1 $209 $362 #
vertex $-1 $209 $363 #
straight-curve $-1 680 264 548 1 0 0 I I #
point $-1 822 264 548 #
coedge $-1 $364 $212 $365 $366 reversed $165 $-1 #
coedge $-1 $212 $364 $367 $368 reversed $165 $-1 #
coedge $-1 $369 $370 $212 $281 reversed $371 $-1 #
edge $-1 $372 -416 $373 416 $212 $374 forward 7 unknown #
loop $-1 $375 $376 $57 #
coedge $-1 $377 $378 $379 $380 forward $213 $-1 #
coedge $-1 $381 $214 $382 $383 forward $167 $-1 #
coedge $-1 $214 $381 $384 $385 forward $167 $-1 #
coedge $-1 $386 $387 $214 $287 reversed $388 $-1 #
edge $-1 $389 -406 $390 -142 $214 $391 forward 7 unknown #
coedge $-1 $216 $215 $392 $393 forward $130 $-1 #
coedge $-1 $394 $395 $215 $290 reversed $396 $-1 #
edge $-1 $297 5 $397 269 $215 $398 forward 7 unknown #
coedge $-1 $399 $400 $216 $292 reversed $401 $-1 #
edge $-1 $402 -269 $296 -5 $216 $403 forward 7 unknown #
coedge $-1 $347 $217 $400 $404 reversed $295 $-1 #
coedge $-1 $217 $347 $394 $405 reversed $295 $-1 #
loop $-1 $-1 $217 $406 #
vertex $-1 $218 $407 #
vertex $-1 $218 $408 #
straight-curve $-1 406 0 548 -1 0 0 I I #
coedge $-1 $409 $410 $219 $300 reversed $411 $-1 #
edge $-1 $304 -269 $309 -5 $219 $412 forward 7 unknown #
coedge $-1 $352 $220 $225 $312 forward $303 $-1 #
coedge $-1 $220 $352 $409 $413 forward $303 $-1 #
loop $-1 $-1 $220 $414 #
vertex $-1 $300 $415 #
straight-curve $-1 274 0 543 0 0 1 I I #
coedge $-1 $350 $222 $410 $416 forward $308 $-1 #
coedge $-1 $222 $350 $224 $311 forward $308 $-1 #
loop $-1 $-1 $222 $417 #
vertex $-1 $300 $418 #
straight-curve $-1 538 0 543 0 0 -1 I I #
edge $-1 $355 -132 $227 132 $307 $419 forward 7 unknown #
edge $-1 $228 -132 $354 132 $301 $420 forward 7 unknown #
face $-1 $414 $226 $2 $-1 $421 forward single #
point $-1 538 0 548 #
point $-1 274 0 548 #
straight-curve $-1 680 0 812 1 0 0 I I #
edge $-1 $360 -132 $234 132 $232 $422 forward 7 unknown #
point $-1 548 0 812 #
edge $-1 $238 -132 $358 132 $236 $423 forward 7 unknown #
point $-1 812 0 812 #
straight-curve $-1 812 132 548 0 -1 0 I I #
straight-curve $-1 548 132 548 0 1 0 I I #
coedge $-1 $370 $369 $245 $324 forward $371 $-1 #
edge $-1 $333 -416 $328 416 $245 $424 forward 7 unknown #
coedge $-1 $365 $246 $251 $337 forward $327 $-1 #
coedge $-1 $246 $365 $370 $425 forward $327 $-1 #
loop $-1 $-1 $365 $426 #
vertex $-1 $247 $427 #
straight-curve $-1 -10 132 -10 0 1 0 I I #
coedge $-1 $367 $248 $369 $428 forward $332 $-1 #
coedge $-1 $248 $367 $250 $336 forward $332 $-1 #
loop $-1 $-1 $367 $429 #
vertex $-1 $249 $430 #
straight-curve $-1 -10 132 822 0 -1 0 I I #
coedge $-1 $251 $250 $364 $431 forward $252 $-1 #
edge $-1 $432 -690 $253 690 $250 $433 forward 7 unknown #
edge $-1 $254 -690 $434 690 $251 $435 forward 7 unknown #
point $-1 -10 264 822 #
point $-1 -10 264 -10 #
face $-1 $417 $411 $2 $-1 $436 reversed single #
plane-surface $-1 548 132 680 1 0 0 0 0 -1 forward_v I I I I #
coedge $-1 $259 $258 $269 $357 reversed $145 $-1 #
loop $-1 $437 $438 $101 #
coedge $-1 $439 $440 $441 $442 forward $263 $-1 #
coedge $-1 $443 $264 $444 $445 forward $204 $-1 #
coedge $-1 $264 $443 $446 $447 forward $204 $-1 #
coedge $-1 $294 $293 $264 $348 reversed $295 $-1 #
edge $-1 $448 -406 $449 -142 $264 $450 forward 7 unknown #
coedge $-1 $266 $265 $451 $452 forward $159 $-1 #
coedge $-1 $307 $306 $265 $351 reversed $308 $-1 #
edge $-1 $355 5 $453 269 $265 $454 forward 7 unknown #
coedge $-1 $302 $301 $266 $353 reversed $303 $-1 #
edge $-1 $455 -269 $354 -5 $266 $456 forward 7 unknown #
vertex $-1 $268 $457 #
vertex $-1 $268 $458 #
straight-curve $-1 543 264 548 1 0 0 I I #
edge $-1 $358 -132 $360 132 $269 $459 forward 7 unknown #
vertex $-1 $357 $460 #
straight-curve $-1 812 264 543 0 0 1 I I #
vertex $-1 $357 $461 #
straight-curve $-1 548 264 543 0 0 -1 I I #
point $-1 548 264 548 #
point $-1 812 264 548 #
coedge $-1 $279 $278 $335 $431 reversed $165 $-1 #
coedge $-1 $326 $325 $278 $366 forward $327 $-1 #
edge $-1 $434 -132 $373 132 $278 $462 forward 7 unknown #
coedge $-1 $331 $330 $279 $368 forward $332 $-1 #
edge $-1 $372 -132 $432 132 $279 $463 forward 7 unknown #
coedge $-1 $323 $280 $330 $428 reversed $371 $-1 #
coedge $-1 $280 $323 $326 $425 reversed $371 $-1 #
loop $-1 $-1 $323 $57 #
vertex $-1 $368 $464 #
vertex $-1 $281 $465 #
straight-curve $-1 1370 0 406 0 0 -1 I I #
loop $-1 $466 $467 $57 #
coedge $-1 $468 $469 $470 $471 forward $282 $-1 #
coedge $-1 $472 $283 $473 $474 forward $213 $-1 #
coedge $-1 $283 $472 $475 $476 forward $213 $-1 #
coedge $-1 $477 $478 $283 $380 reversed $479 $-1 #
edge $-1 $480 -269 $481 -5 $283 $482 forward 7 unknown #
coedge $-1 $285 $284 $483 $484 forward $167 $-1 #
coedge $-1 $485 $486 $284 $383 reversed $487 $-1 #
edge $-1 $390 -132 $488 132 $284 $489 forward 7 unknown #
coedge $-1 $490 $491 $285 $385 reversed $492 $-1 #
edge $-1 $493 -132 $389 132 $285 $494 forward 7 unknown #
coedge $-1 $441 $286 $491 $495 reversed $388 $-1 #
coedge $-1 $286 $441 $485 $496 reversed $388 $-1 #
loop $-1 $-1 $286 $497 #
vertex $-1 $287 $498 #
vertex $-1 $287 $499 #
straight-curve $-1 954 0 274 -1 0 0 I I #
coedge $-1 $500 $501 $288 $393 reversed $502 $-1 #
edge $-1 $397 -406 $402 -142 $288 $503 forward 7 unknown #
coedge $-1 $446 $289 $294 $405 forward $396 $-1 #
coedge $-1 $289 $446 $500 $504 forward $396 $-1 #
loop $-1 $-1 $289 $505 #
vertex $-1 $393 $506 #
straight-curve $-1 0 0 543 0 0 1 I I #
coedge $-1 $444 $291 $501 $507 forward $401 $-1 #
coedge $-1 $291 $444 $293 $404 forward $401 $-1 #
loop $-1 $-1 $291 $508 #
vertex $-1 $393 $509 #
straight-curve $-1 264 0 543 0 0 -1 I I #
edge $-1 $449 -132 $296 132 $400 $510 forward 7 unknown #
edge $-1 $297 -132 $448 132 $394 $511 forward 7 unknown #
face $-1 $505 $295 $2 $-1 $512 forward single #
point $-1 264 0 548 #
point $-1 0 0 548 #
coedge $-1 $451 $299 $302 $413 reversed $411 $-1 #
coedge $-1 $299 $451 $306 $416 reversed $411 $-1 #
loop $-1 $-1 $299 $340 #
straight-curve $-1 543 0 812 1 0 0 I I #
edge $-1 $455 -132 $304 132 $302 $513 forward 7 unknown #
face $-1 $514 $303 $2 $-1 $515 forward single #
point $-1 274 0 812 #
edge $-1 $309 -132 $453 132 $306 $516 forward 7 unknown #
face $-1 $313 $308 $2 $-1 $517 forward single #
point $-1 538 0 812 #
straight-curve $-1 538 132 548 0 -1 0 I I #
straight-curve $-1 274 132 548 0 1 0 I I #
plane-surface $-1 406 132 548 0 0 1 1 0 0 forward_v I I I I #
straight-curve $-1 548 132 812 0 -1 0 I I #
straight-curve $-1 812 132 812 0 1 0 I I #
straight-curve $-1 -10 0 406 0 0 -1 I I #
edge $-1 $373 -690 $328 690 $370 $518 forward 7 unknown #
face $-1 $57 $327 $2 $-1 $519 reversed single #
point $-1 -10 0 -10 #
edge $-1 $333 -690 $372 690 $369 $520 forward 7 unknown #
face $-1 $426 $332 $2 $-1 $521 forward single #
point $-1 -10 0 822 #
edge $-1 $432 -416 $434 416 $364 $522 forward 7 unknown #
vertex $-1 $368 $523 #
straight-curve $-1 680 264 822 -1 0 0 I I #
vertex $-1 $366 $524 #
straight-curve $-1 680 264 -10 1 0 0 I I #
plane-surface $-1 406 132 812 0 0 1 1 0 0 forward_v I I I I #
loop $-1 $525 $526 $101 #
coedge $-1 $527 $528 $529 $530 forward $343 $-1 #
coedge $-1 $531 $344 $532 $533 forward $263 $-1 #
coedge $-1 $344 $531 $534 $535 forward $263 $-1 #
coedge $-1 $387 $386 $344 $442 reversed $388 $-1 #
edge $-1 $536 142 $537 406 $344 $538 forward 7 unknown #
coedge $-1 $346 $345 $539 $540 forward $204 $-1 #
coedge $-1 $400 $399 $345 $445 reversed $401 $-1 #
edge $-1 $449 5 $541 269 $345 $542 forward 7 unknown #
coedge $-1 $395 $394 $346 $447 reversed $396 $-1 #
edge $-1 $543 -269 $448 -5 $346 $544 forward 7 unknown #
vertex $-1 $348 $545 #
vertex $-1 $348 $546 #
straight-curve $-1 406 264 548 1 0 0 I I #
coedge $-1 $410 $409 $349 $452 reversed $411 $-1 #
edge $-1 $453 5 $455 269 $349 $547 forward 7 unknown #
vertex $-1 $452 $548 #
straight-curve $-1 538 264 543 0 0 1 I I #
vertex $-1 $452 $549 #
straight-curve $-1 274 264 543 0 0 -1 I I #
point $-1 274 264 548 #
point $-1 538 264 548 #
straight-curve $-1 680 264 812 -1 0 0 I I #
point $-1 812 264 812 #
point $-1 548 264 812 #
straight-curve $-1 1370 132 -10 0 -1 0 I I #
straight-curve $-1 1370 132 822 0 1 0 I I #
point $-1 1370 0 822 #
point $-1 1370 0 -10 #
loop $-1 $550 $551 $57 #
coedge $-1 $552 $553 $554 $555 forward $375 $-1 #
coedge $-1 $556 $376 $557 $558 forward $282 $-1 #
coedge $-1 $376 $556 $559 $560 forward $282 $-1 #
coedge $-1 $561 $562 $376 $471 reversed $563 $-1 #
edge $-1 $564 -132 $565 132 $376 $566 forward 7 unknown #
coedge $-1 $378 $377 $567 $568 forward $213 $-1 #
coedge $-1 $569 $570 $377 $474 reversed $571 $-1 #
edge $-1 $481 -132 $572 132 $377 $573 forward 7 unknown #
coedge $-1 $574 $575 $378 $476 reversed $576 $-1 #
edge $-1 $577 -132 $480 132 $378 $578 forward 7 unknown #
coedge $-1 $529 $379 $575 $579 reversed $479 $-1 #
coedge $-1 $379 $529 $569 $580 reversed $479 $-1 #
loop $-1 $-1 $379 $581 #
vertex $-1 $380 $582 #
vertex $-1 $380 $583 #
straight-curve $-1 817 0 274 -1 0 0 I I #
coedge $-1 $584 $585 $381 $484 reversed $586 $-1 #
edge $-1 $488 142 $493 406 $381 $587 forward 7 unknown #
coedge $-1 $534 $382 $387 $496 forward $487 $-1 #
coedge $-1 $382 $534 $584 $588 forward $487 $-1 #
loop $-1 $-1 $382 $589 #
vertex $-1 $484 $590 #
straight-curve $-1 1096 0 406 0 0 1 I I #
coedge $-1 $532 $384 $585 $591 forward $492 $-1 #
coedge $-1 $384 $532 $386 $495 forward $492 $-1 #
loop $-1 $-1 $384 $592 #
vertex $-1 $484 $593 #
straight-curve $-1 1360 0 406 0 0 -1 I I #
edge $-1 $537 -132 $389 132 $491 $594 forward 7 unknown #
edge $-1 $390 -132 $536 132 $485 $595 forward 7 unknown #
face $-1 $589 $388 $2 $-1 $596 forward single #
point $-1 1360 0 274 #
point $-1 1096 0 274 #
coedge $-1 $539 $392 $395 $504 reversed $502 $-1 #
coedge $-1 $392 $539 $399 $507 reversed $502 $-1 #
loop $-1 $-1 $392 $514 #
straight-curve $-1 406 0 812 1 0 0 I I #
edge $-1 $543 -132 $397 132 $395 $597 forward 7 unknown #
face $-1 $598 $396 $2 $-1 $599 forward single #
point $-1 0 0 812 #
edge $-1 $402 -132 $541 132 $399 $600 forward 7 unknown #
face $-1 $406 $401 $2 $-1 $601 forward single #
point $-1 264 0 812 #
straight-curve $-1 264 132 548 0 -1 0 I I #
straight-curve $-1 0 132 548 0 1 0 I I #
plane-surface $-1 132 132 548 0 0 1 1 0 0 forward_v I I I I #
straight-curve $-1 274 132 812 0 -1 0 I I #
face $-1 $508 $502 $2 $-1 $602 reversed single #
plane-surface $-1 274 132 680 1 0 0 0 0 -1 forward_v I I I I #
straight-curve $-1 538 132 812 0 1 0 I I #
plane-surface $-1 538 132 680 -1 0 0 0 0 1 forward_v I I I I #
straight-curve $-1 680 0 -10 -1 0 0 I I #
plane-surface $-1 680 132 -10 0 0 1 1 0 0 forward_v I I I I #
straight-curve $-1 680 0 822 1 0 0 I I #
plane-surface $-1 680 132 822 0 0 1 1 0 0 forward_v I I I I #
straight-curve $-1 1370 264 406 0 0 -1 I I #
point $-1 1370 264 822 #
point $-1 1370 264 -10 #
loop $-1 $603 $604 $101 #
coedge $-1 $605 $606 $607 $608 forward $437 $-1 #
coedge $-1 $609 $438 $610 $611 forward $343 $-1 #
coedge $-1 $438 $609 $612 $613 forward $343 $-1 #
coedge $-1 $478 $477 $438 $530 reversed $479 $-1 #
edge $-1 $614 5 $615 269 $438 $616 forward 7 unknown #
coedge $-1 $440 $439 $617 $618 forward $263 $-1 #
coedge $-1 $491 $490 $439 $533 reversed $492 $-1 #
edge $-1 $537 -132 $619 132 $439 $620 forward 7 unknown #
coedge $-1 $486 $485 $440 $535 reversed $487 $-1 #
edge $-1 $621 -132 $536 132 $440 $622 forward 7 unknown #
vertex $-1 $442 $623 #
vertex $-1 $442 $624 #
straight-curve $-1 954 264 274 1 0 0 I I #
coedge $-1 $501 $500 $443 $540 reversed $502 $-1 #
edge $-1 $541 142 $543 406 $443 $625 forward 7 unknown #
vertex $-1 $540 $626 #
straight-curve $-1 264 264 543 0 0 1 I I #
vertex $-1 $540 $627 #
straight-curve $-1 0 264 543 0 0 -1 I I #
point $-1 0 264 548 #
point $-1 264 264 548 #
straight-curve $-1 543 264 812 -1 0 0 I I #
point $-1 538 264 812 #
point $-1 274 264 812 #
loop $-1 $628 $629 $57 #
coedge $-1 $630 $631 $632 $633 forward $466 $-1 #
coedge $-1 $634 $467 $635 $636 forward $375 $-1 #
coedge $-1 $467 $634 $637 $638 forward $375 $-1 #
coedge $-1 $639 $640 $467 $555 reversed $641 $-1 #
edge $-1 $642 5 $643 269 $467 $644 forward 7 unknown #
coedge $-1 $469 $468 $645 $646 forward $282 $-1 #
coedge $-1 $647 $648 $468 $558 reversed $649 $-1 #
edge $-1 $565 -132 $650 132 $468 $651 forward 7 unknown #
coedge $-1 $652 $653 $469 $560 reversed $654 $-1 #
edge $-1 $655 -132 $564 132 $469 $656 forward 7 unknown #
coedge $-1 $607 $470 $653 $657 reversed $563 $-1 #
coedge $-1 $470 $607 $647 $658 reversed $563 $-1 #
loop $-1 $-1 $470 $659 #
vertex $-1 $471 $660 #
vertex $-1 $471 $661 #
straight-curve $-1 680 0 274 -1 0 0 I I #
coedge $-1 $662 $663 $472 $568 reversed $664 $-1 #
edge $-1 $572 5 $577 269 $472 $665 forward 7 unknown #
coedge $-1 $612 $473 $478 $580 forward $571 $-1 #
coedge $-1 $473 $612 $662 $666 forward $571 $-1 #
loop $-1 $-1 $473 $667 #
vertex $-1 $568 $668 #
straight-curve $-1 822 0 406 0 0 1 I I #
coedge $-1 $610 $475 $663 $669 forward $576 $-1 #
coedge $-1 $475 $610 $477 $579 forward $576 $-1 #
loop $-1 $-1 $475 $670 #
vertex $-1 $568 $671 #
straight-curve $-1 1086 0 406 0 0 -1 I I #
edge $-1 $615 -132 $480 132 $575 $672 forward 7 unknown #
edge $-1 $481 -132 $614 132 $569 $673 forward 7 unknown #
face $-1 $667 $479 $2 $-1 $674 forward single #
point $-1 1086 0 274 #
point $-1 822 0 274 #
coedge $-1 $617 $483 $486 $588 reversed $586 $-1 #
coedge $-1 $483 $617 $490 $591 reversed $586 $-1 #
loop $-1 $-1 $483 $598 #
straight-curve $-1 954 0 538 1 0 0 I I #
edge $-1 $621 -132 $488 132 $486 $675 forward 7 unknown #
face $-1 $676 $487 $2 $-1 $677 forward single #
point $-1 1096 0 538 #
edge $-1 $493 -132 $619 132 $490 $678 forward 7 unknown #
face $-1 $497 $492 $2 $-1 $679 forward single #
point $-1 1360 0 538 #
straight-curve $-1 1360 132 274 0 -1 0 I I #
straight-curve $-1 1096 132 274 0 1 0 I I #
plane-surface $-1 1228 132 274 0 0 1 1 0 0 forward_v I I I I #
straight-curve $-1 0 132 812 0 -1 0 I I #
face $-1 $592 $586 $2 $-1 $680 reversed single #
plane-surface $-1 0 132 680 1 0 0 0 0 -1 forward_v I I I I #
straight-curve $-1 264 132 812 0 1 0 I I #
plane-surface $-1 264 132 680 -1 0 0 0 0 1 forward_v I I I I #
plane-surface $-1 132 132 812 0 0 1 1 0 0 forward_v I I I I #
loop $-1 $681 $682 $101 #
coedge $-1 $683 $684 $685 $686 forward $525 $-1 #
coedge $-1 $687 $526 $688 $689 forward $437 $-1 #
coedge $-1 $526 $687 $690 $691 forward $437 $-1 #
coedge $-1 $562 $561 $526 $608 reversed $563 $-1 #
edge $-1 $692 -132 $693 132 $526 $694 forward 7 unknown #
coedge $-1 $528 $527 $695 $696 forward $343 $-1 #
coedge $-1 $575 $574 $527 $611 reversed $576 $-1 #
edge $-1 $615 -132 $697 132 $527 $698 forward 7 unknown #
coedge $-1 $570 $569 $528 $613 reversed $571 $-1 #
edge $-1 $699 -132 $614 132 $528 $700 forward 7 unknown #
vertex $-1 $530 $701 #
vertex $-1 $530 $702 #
straight-curve $-1 817 264 274 1 0 0 I I #
coedge $-1 $585 $584 $531 $618 reversed $586 $-1 #
edge $-1 $619 -406 $621 -142 $531 $703 forward 7 unknown #
vertex $-1 $618 $704 #
straight-curve $-1 1360 264 406 0 0 1 I I #
vertex $-1 $618 $705 #
straight-curve $-1 1096 264 406 0 0 -1 I I #
point $-1 1096 264 274 #
point $-1 1360 264 274 #
straight-curve $-1 406 264 812 -1 0 0 I I #
point $-1 264 264 812 #
point $-1 0 264 812 #
loop $-1 $706 $707 $57 #
coedge $-1 $708 $709 $710 $711 forward $550 $-1 #
coedge $-1 $712 $551 $713 $714 forward $466 $-1 #
coedge $-1 $551 $712 $715 $716 forward $466 $-1 #
coedge $-1 $717 $718 $551 $633 reversed $719 $-1 #
edge $-1 $720 142 $721 406 $551 $722 forward 7 unknown #
coedge $-1 $553 $552 $723 $724 forward $375 $-1 #
coedge $-1 $725 $726 $552 $636 reversed $727 $-1 #
edge $-1 $643 -132 $728 132 $552 $729 forward 7 unknown #
coedge $-1 $730 $731 $553 $638 reversed $732 $-1 #
edge $-1 $733 -132 $642 132 $553 $734 forward 7 unknown #
coedge $-1 $685 $554 $731 $735 reversed $641 $-1 #
coedge $-1 $554 $685 $725 $736 reversed $641 $-1 #
loop $-1 $-1 $554 $737 #
vertex $-1 $555 $738 #
vertex $-1 $555 $739 #
straight-curve $-1 543 0 274 -1 0 0 I I #
coedge $-1 $740 $741 $556 $646 reversed $742 $-1 #
edge $-1 $650 -132 $655 132 $556 $743 forward 7 unknown #
coedge $-1 $690 $557 $562 $658 forward $649 $-1 #
coedge $-1 $557 $690 $740 $744 forward $649 $-1 #
loop $-1 $-1 $557 $745 #
vertex $-1 $646 $746 #
straight-curve $-1 548 0 406 0 0 1 I I #
coedge $-1 $688 $559 $741 $747 forward $654 $-1 #
coedge $-1 $559 $688 $561 $657 forward $654 $-1 #
loop $-1 $-1 $559 $748 #
vertex $-1 $646 $749 #
straight-curve $-1 812 0 406 0 0 -1 I I #
edge $-1 $693 -132 $564 132 $653 $750 forward 7 unknown #
edge $-1 $565 -132 $692 132 $647 $751 forward 7 unknown #
face $-1 $745 $563 $2 $-1 $752 forward single #
point $-1 812 0 274 #
point $-1 548 0 274 #
coedge $-1 $695 $567 $570 $666 reversed $664 $-1 #
coedge $-1 $567 $695 $574 $669 reversed $664 $-1 #
loop $-1 $-1 $567 $676 #
straight-curve $-1 817 0 538 1 0 0 I I #
edge $-1 $699 -132 $572 132 $570 $753 forward 7 unknown #
face $-1 $754 $571 $2 $-1 $755 forward single #
point $-1 822 0 538 #
edge $-1 $577 -132 $697 132 $574 $756 forward 7 unknown #
face $-1 $581 $576 $2 $-1 $757 forward single #
point $-1 1086 0 538 #
straight-curve $-1 1086 132 274 0 -1 0 I I #
straight-curve $-1 822 132 274 0 1 0 I I #
plane-surface $-1 954 132 274 0 0 1 1 0 0 forward_v I I I I #
straight-curve $-1 1096 132 538 0 -1 0 I I #
face $-1 $670 $664 $2 $-1 $758 reversed single #
plane-surface $-1 1096 132 406 1 0 0 0 0 -1 forward_v I I I I #
straight-curve $-1 1360 132 538 0 1 0 I I #
plane-surface $-1 1360 132 406 -1 0 0 0 0 1 forward_v I I I I #
plane-surface $-1 1228 132 538 0 0 1 1 0 0 forward_v I I I I #
loop $-1 $759 $760 $101 #
coedge $-1 $761 $762 $763 $764 forward $603 $-1 #
coedge $-1 $765 $604 $766 $767 forward $525 $-1 #
coedge $-1 $604 $765 $768 $769 forward $525 $-1 #
coedge $-1 $640 $639 $604 $686 reversed $641 $-1 #
edge $-1 $770 -269 $771 -5 $604 $772 forward 7 unknown #
coedge $-1 $606 $605 $773 $774 forward $437 $-1 #
coedge $-1 $653 $652 $605 $689 reversed $654 $-1 #
edge $-1 $693 -132 $775 132 $605 $776 forward 7 unknown #
coedge $-1 $648 $647 $606 $691 reversed $649 $-1 #
edge $-1 $777 -132 $692 132 $606 $778 forward 7 unknown #
vertex $-1 $608 $779 #
vertex $-1 $608 $780 #
straight-curve $-1 680 264 274 1 0 0 I I #
coedge $-1 $663 $662 $609 $696 reversed $664 $-1 #
edge $-1 $697 -269 $699 -5 $609 $781 forward 7 unknown #
vertex $-1 $696 $782 #
straight-curve $-1 1086 264 406 0 0 1 I I #
vertex $-1 $696 $783 #
straight-curve $-1 822 264 406 0 0 -1 I I #
point $-1 822 264 274 #
point $-1 1086 264 274 #
straight-curve $-1 954 264 538 -1 0 0 I I #
point $-1 1360 264 538 #
point $-1 1096 264 538 #
loop $-1 $784 $785 $57 #
coedge $-1 $786 $787 $788 $789 forward $628 $-1 #
coedge $-1 $790 $629 $791 $792 forward $550 $-1 #
coedge $-1 $629 $790 $793 $794 forward $550 $-1 #
coedge $-1 $795 $796 $629 $711 reversed $797 $-1 #
edge $-1 $798 -406 $799 -142 $629 $800 forward 7 unknown #
coedge $-1 $631 $630 $801 $802 forward $466 $-1 #
coedge $-1 $803 $804 $630 $714 reversed $805 $-1 #
edge $-1 $721 -132 $806 132 $630 $807 forward 7 unknown #
coedge $-1 $808 $809 $631 $716 reversed $810 $-1 #
edge $-1 $811 -132 $720 132 $631 $812 forward 7 unknown #
coedge $-1 $763 $632 $809 $813 reversed $719 $-1 #
coedge $-1 $632 $763 $803 $814 reversed $719 $-1 #
loop $-1 $-1 $632 $815 #
vertex $-1 $633 $816 #
vertex $-1 $633 $817 #
straight-curve $-1 406 0 274 -1 0 0 I I #
coedge $-1 $818 $819 $634 $724 reversed $820 $-1 #
edge $-1 $728 -269 $733 -5 $634 $821 forward 7 unknown #
coedge $-1 $768 $635 $640 $736 forward $727 $-1 #
coedge $-1 $635 $768 $818 $822 forward $727 $-1 #
loop $-1 $-1 $635 $823 #
vertex $-1 $724 $824 #
straight-curve $-1 274 0 406 0 0 1 I I #
coedge $-1 $766 $637 $819 $825 forward $732 $-1 #
coedge $-1 $637 $766 $639 $735 forward $732 $-1 #
loop $-1 $-1 $637 $826 #
vertex $-1 $724 $827 #
straight-curve $-1 538 0 406 0 0 -1 I I #
edge $-1 $771 -132 $642 132 $731 $828 forward 7 unknown #
edge $-1 $643 -132 $770 132 $725 $829 forward 7 unknown #
face $-1 $823 $641 $2 $-1 $830 forward single #
point $-1 538 0 274 #
point $-1 274 0 274 #
coedge $-1 $773 $645 $648 $744 reversed $742 $-1 #
coedge $-1 $645 $773 $652 $747 reversed $742 $-1 #
loop $-1 $-1 $645 $754 #
straight-curve $-1 680 0 538 1 0 0 I I #
edge $-1 $777 -132 $650 132 $648 $831 forward 7 unknown #
face $-1 $832 $649 $2 $-1 $833 forward single #
point $-1 548 0 538 #
edge $-1 $655 -132 $775 132 $652 $834 forward 7 unknown #
face $-1 $659 $654 $2 $-1 $835 forward single #
point $-1 812 0 538 #
straight-curve $-1 812 132 274 0 -1 0 I I #
straight-curve $-1 548 132 274 0 1 0 I I #
plane-surface $-1 680 132 274 0 0 1 1 0 0 forward_v I I I I #
straight-curve $-1 822 132 538 0 -1 0 I I #
face $-1 $748 $742 $2 $-1 $836 reversed single #
plane-surface $-1 822 132 406 1 0 0 0 0 -1 forward_v I I I I #
straight-curve $-1 1086 132 538 0 1 0 I I #
plane-surface $-1 1086 132 406 -1 0 0 0 0 1 forward_v I I I I #
plane-surface $-1 954 132 538 0 0 1 1 0 0 forward_v I I I I #
loop $-1 $837 $838 $101 #
coedge $-1 $839 $840 $841 $842 forward $681 $-1 #
coedge $-1 $843 $682 $844 $845 forward $603 $-1 #
coedge $-1 $682 $843 $846 $847 forward $603 $-1 #
coedge $-1 $718 $717 $682 $764 reversed $719 $-1 #
edge $-1 $848 -406 $849 -142 $682 $850 forward 7 unknown #
coedge $-1 $684 $683 $851 $852 forward $525 $-1 #
coedge $-1 $731 $730 $683 $767 reversed $732 $-1 #
edge $-1 $771 -132 $853 132 $683 $854 forward 7 unknown #
coedge $-1 $726 $725 $684 $769 reversed $727 $-1 #
edge $-1 $855 -132 $770 132 $684 $856 forward 7 unknown #
vertex $-1 $686 $857 #
vertex $-1 $686 $858 #
straight-curve $-1 543 264 274 1 0 0 I I #
coedge $-1 $741 $740 $687 $774 reversed $742 $-1 #
edge $-1 $775 -132 $777 132 $687 $859 forward 7 unknown #
vertex $-1 $774 $860 #
straight-curve $-1 812 264 406 0 0 1 I I #
vertex $-1 $774 $861 #
straight-curve $-1 548 264 406 0 0 -1 I I #
point $-1 548 264 274 #
point $-1 812 264 274 #
straight-curve $-1 817 264 538 -1 0 0 I I #
point $-1 1086 264 538 #
point $-1 822 264 538 #
loop $-1 $862 $863 $57 #
coedge $-1 $864 $865 $866 $867 forward $706 $-1 #
coedge $-1 $868 $707 $869 $870 forward $628 $-1 #
coedge $-1 $707 $868 $871 $872 forward $628 $-1 #
coedge $-1 $873 $874 $707 $789 reversed $875 $-1 #
edge $-1 $876 -269 $877 -5 $707 $878 forward 7 unknown #
coedge $-1 $709 $708 $879 $880 forward $550 $-1 #
coedge $-1 $881 $882 $708 $792 reversed $883 $-1 #
edge $-1 $799 -269 $884 -5 $708 $885 forward 7 unknown #
coedge $-1 $886 $887 $709 $794 reversed $888 $-1 #
edge $-1 $889 5 $798 269 $709 $890 forward 7 unknown #
coedge $-1 $841 $710 $887 $891 reversed $797 $-1 #
coedge $-1 $710 $841 $881 $892 reversed $797 $-1 #
loop $-1 $-1 $710 $893 #
vertex $-1 $711 $894 #
vertex $-1 $711 $895 #
straight-curve $-1 954 0 0 -1 0 0 I I #
coedge $-1 $896 $897 $712 $802 reversed $898 $-1 #
edge $-1 $806 -406 $811 -142 $712 $899 forward 7 unknown #
coedge $-1 $846 $713 $718 $814 forward $805 $-1 #
coedge $-1 $713 $846 $896 $900 forward $805 $-1 #
loop $-1 $-1 $713 $901 #
vertex $-1 $802 $902 #
straight-curve $-1 0 0 406 0 0 1 I I #
coedge $-1 $844 $715 $897 $903 forward $810 $-1 #
coedge $-1 $715 $844 $717 $813 forward $810 $-1 #
loop $-1 $-1 $715 $904 #
vertex $-1 $802 $905 #
straight-curve $-1 264 0 406 0 0 -1 I I #
edge $-1 $849 -132 $720 132 $809 $906 forward 7 unknown #
edge $-1 $721 -132 $848 132 $803 $907 forward 7 unknown #
face $-1 $901 $719 $2 $-1 $908 forward single #
point $-1 264 0 274 #
point $-1 0 0 274 #
coedge $-1 $851 $723 $726 $822 reversed $820 $-1 #
coedge $-1 $723 $851 $730 $825 reversed $820 $-1 #
loop $-1 $-1 $723 $832 #
straight-curve $-1 543 0 538 1 0 0 I I #
edge $-1 $855 -132 $728 132 $726 $909 forward 7 unknown #
face $-1 $910 $727 $2 $-1 $911 forward single #
point $-1 274 0 538 #
edge $-1 $733 -132 $853 132 $730 $912 forward 7 unknown #
face $-1 $737 $732 $2 $-1 $913 forward single #
point $-1 538 0 538 #
straight-curve $-1 538 132 274 0 -1 0 I I #
straight-curve $-1 274 132 274 0 1 0 I I #
plane-surface $-1 406 132 274 0 0 1 1 0 0 forward_v I I I I #
straight-curve $-1 548 132 538 0 -1 0 I I #
face $-1 $826 $820 $2 $-1 $914 reversed single #
plane-surface $-1 548 132 406 1 0 0 0 0 -1 forward_v I I I I #
straight-curve $-1 812 132 538 0 1 0 I I #
plane-surface $-1 812 132 406 -1 0 0 0 0 1 forward_v I I I I #
plane-surface $-1 680 132 538 0 0 1 1 0 0 forward_v I I I I #
loop $-1 $915 $916 $101 #
coedge $-1 $917 $918 $919 $920 forward $759 $-1 #
coedge $-1 $921 $760 $922 $923 forward $681 $-1 #
coedge $-1 $760 $921 $924 $925 forward $681 $-1 #
coedge $-1 $796 $795 $760 $842 reversed $797 $-1 #
edge $-1 $926 142 $927 406 $760 $928 forward 7 unknown #
coedge $-1 $762 $761 $929 $930 forward $603 $-1 #
coedge $-1 $809 $808 $761 $845 reversed $810 $-1 #
edge $-1 $849 -132 $931 132 $761 $932 forward 7 unknown #
coedge $-1 $804 $803 $762 $847 reversed $805 $-1 #
edge $-1 $933 -132 $848 132 $762 $934 forward 7 unknown #
vertex $-1 $764 $935 #
vertex $-1 $764 $936 #
straight-curve $-1 406 264 274 1 0 0 I I #
coedge $-1 $819 $818 $765 $852 reversed $820 $-1 #
edge $-1 $853 5 $855 269 $765 $937 forward 7 unknown #
vertex $-1 $852 $938 #
straight-curve $-1 538 264 406 0 0 1 I I #
vertex $-1 $852 $939 #
straight-curve $-1 274 264 406 0 0 -1 I I #
point $-1 274 264 274 #
point $-1 538 264 274 #
straight-curve $-1 680 264 538 -1 0 0 I I #
point $-1 812 264 538 #
point $-1 548 264 538 #
loop $-1 $371 $940 $57 #
coedge $-1 $941 $942 $943 $944 forward $784 $-1 #
coedge $-1 $945 $785 $946 $947 forward $706 $-1 #
coedge $-1 $785 $945 $948 $949 forward $706 $-1 #
coedge $-1 $950 $951 $785 $867 reversed $952 $-1 #
edge $-1 $953 -132 $954 132 $785 $955 forward 7 unknown #
coedge $-1 $787 $786 $956 $957 forward $628 $-1 #
coedge $-1 $958 $959 $786 $870 reversed $960 $-1 #
edge $-1 $877 -269 $961 -5 $786 $962 forward 7 unknown #
coedge $-1 $963 $964 $787 $872 reversed $965 $-1 #
edge $-1 $966 5 $876 269 $787 $967 forward 7 unknown #
coedge $-1 $919 $788 $964 $968 reversed $875 $-1 #
coedge $-1 $788 $919 $958 $969 reversed $875 $-1 #
loop $-1 $-1 $788 $970 #
vertex $-1 $789 $971 #
vertex $-1 $789 $972 #
straight-curve $-1 817 0 0 -1 0 0 I I #
coedge $-1 $973 $974 $790 $880 reversed $975 $-1 #
edge $-1 $884 142 $889 406 $790 $976 forward 7 unknown #
coedge $-1 $924 $791 $796 $892 forward $883 $-1 #
coedge $-1 $791 $924 $973 $977 forward $883 $-1 #
loop $-1 $-1 $791 $978 #
vertex $-1 $880 $979 #
straight-curve $-1 1096 0 269 0 0 1 I I #
coedge $-1 $922 $793 $974 $980 forward $888 $-1 #
coedge $-1 $793 $922 $795 $891 forward $888 $-1 #
loop $-1 $-1 $793 $981 #
vertex $-1 $880 $982 #
straight-curve $-1 1360 0 269 0 0 -1 I I #
edge $-1 $927 -132 $798 132 $887 $983 forward 7 unknown #
edge $-1 $799 -132 $926 132 $881 $984 forward 7 unknown #
face $-1 $978 $797 $2 $-1 $985 forward single #
point $-1 1360 0 0 #
point $-1 1096 0 0 #
coedge $-1 $929 $801 $804 $900 reversed $898 $-1 #
coedge $-1 $801 $929 $808 $903 reversed $898 $-1 #
loop $-1 $-1 $801 $910 #
straight-curve $-1 406 0 538 1 0 0 I I #
edge $-1 $933 -132 $806 132 $804 $986 forward 7 unknown #
face $-1 $987 $805 $2 $-1 $988 forward single #
point $-1 0 0 538 #
edge $-1 $811 -132 $931 132 $808 $989 forward 7 unknown #
face $-1 $815 $810 $2 $-1 $990 forward single #
point $-1 264 0 538 #
straight-curve $-1 264 132 274 0 -1 0 I I #
straight-curve $-1 0 132 274 0 1 0 I I #
plane-surface $-1 132 132 274 0 0 1 1 0 0 forward_v I I I I #
straight-curve $-1 274 132 538 0 -1 0 I I #
face $-1 $904 $898 $2 $-1 $991 reversed single #
plane-surface $-1 274 132 406 1 0 0 0 0 -1 forward_v I I I I #
straight-curve $-1 538 132 538 0 1 0 I I #
plane-surface $-1 538 132 406 -1 0 0 0 0 1 forward_v I I I I #
plane-surface $-1 406 132 538 0 0 1 1 0 0 forward_v I I I I #
loop $-1 $992 $993 $101 #
coedge $-1 $994 $995 $996 $997 forward $837 $-1 #
coedge $-1 $998 $838 $999 $1000 forward $759 $-1 #
coedge $-1 $838 $998 $1001 $1002 forward $759 $-1 #
coedge $-1 $874 $873 $838 $920 reversed $875 $-1 #
edge $-1 $1003 5 $1004 269 $838 $1005 forward 7 unknown #
coedge $-1 $840 $839 $1006 $1007 forward $681 $-1 #
coedge $-1 $887 $886 $839 $923 reversed $888 $-1 #
edge $-1 $927 -269 $1008 -5 $839 $1009 forward 7 unknown #
coedge $-1 $882 $881 $840 $925 reversed $883 $-1 #
edge $-1 $1010 5 $926 269 $840 $1011 forward 7 unknown #
vertex $-1 $842 $1012 #
vertex $-1 $842 $1013 #
straight-curve $-1 954 264 0 1 0 0 I I #
coedge $-1 $897 $896 $843 $930 reversed $898 $-1 #
edge $-1 $931 142 $933 406 $843 $1014 forward 7 unknown #
vertex $-1 $930 $1015 #
straight-curve $-1 264 264 406 0 0 1 I I #
vertex $-1 $930 $1016 #
straight-curve $-1 0 264 406 0 0 -1 I I #
point $-1 0 264 274 #
point $-1 264 264 274 #
straight-curve $-1 543 264 538 -1 0 0 I I #
point $-1 538 264 538 #
point $-1 274 264 538 #
coedge $-1 $1017 $1018 $1019 $1020 forward $862 $-1 #
coedge $-1 $1021 $863 $1022 $1023 forward $784 $-1 #
coedge $-1 $863 $1021 $1024 $1025 forward $784 $-1 #
coedge $-1 $1026 $1027 $863 $944 reversed $1028 $-1 #
edge $-1 $1029 5 $1030 269 $863 $1031 forward 7 unknown #
coedge $-1 $865 $864 $1032 $1033 forward $706 $-1 #
coedge $-1 $1034 $1035 $864 $947 reversed $1036 $-1 #
edge $-1 $954 -269 $1037 -5 $864 $1038 forward 7 unknown #
coedge $-1 $1039 $1040 $865 $949 reversed $1041 $-1 #
edge $-1 $1042 5 $953 269 $865 $1043 forward 7 unknown #
coedge $-1 $996 $866 $1040 $1044 reversed $952 $-1 #
coedge $-1 $866 $996 $1034 $1045 reversed $952 $-1 #
loop $-1 $-1 $866 $1046 #
vertex $-1 $867 $1047 #
vertex $-1 $867 $1048 #
straight-curve $-1 680 0 0 -1 0 0 I I #
coedge $-1 $1049 $1050 $868 $957 reversed $1051 $-1 #
edge $-1 $961 5 $966 269 $868 $1052 forward 7 unknown #
coedge $-1 $1001 $869 $874 $969 forward $960 $-1 #
coedge $-1 $869 $1001 $1049 $1053 forward $960 $-1 #
loop $-1 $-1 $869 $1054 #
vertex $-1 $957 $1055 #
straight-curve $-1 822 0 269 0 0 1 I I #
coedge $-1 $999 $871 $1050 $1056 forward $965 $-1 #
coedge $-1 $871 $999 $873 $968 forward $965 $-1 #
loop $-1 $-1 $871 $1057 #
vertex $-1 $957 $1058 #
straight-curve $-1 1086 0 269 0 0 -1 I I #
edge $-1 $1004 -132 $876 132 $964 $1059 forward 7 unknown #
edge $-1 $877 -132 $1003 132 $958 $1060 forward 7 unknown #
face $-1 $1054 $875 $2 $-1 $1061 forward single #
point $-1 1086 0 0 #
point $-1 822 0 0 #
coedge $-1 $1006 $879 $882 $977 reversed $975 $-1 #
coedge $-1 $879 $1006 $886 $980 reversed $975 $-1 #
loop $-1 $-1 $879 $987 #
straight-curve $-1 954 0 264 1 0 0 I I #
edge $-1 $1010 -132 $884 132 $882 $1062 forward 7 unknown #
face $-1 $1063 $883 $2 $-1 $1064 forward single #
point $-1 1096 0 264 #
edge $-1 $889 -132 $1008 132 $886 $1065 forward 7 unknown #
face $-1 $893 $888 $2 $-1 $1066 forward single #
point $-1 1360 0 264 #
straight-curve $-1 1360 132 0 0 -1 0 I I #
straight-curve $-1 1096 132 0 0 1 0 I I #
plane-surface $-1 1228 132 0 0 0 1 1 0 0 forward_v I I I I #
straight-curve $-1 0 132 538 0 -1 0 I I #
face $-1 $981 $975 $2 $-1 $1067 reversed single #
plane-surface $-1 0 132 406 1 0 0 0 0 -1 forward_v I I I I #
straight-curve $-1 264 132 538 0 1 0 I I #
plane-surface $-1 264 132 406 -1 0 0 0 0 1 forward_v I I I I #
plane-surface $-1 132 132 538 0 0 1 1 0 0 forward_v I I I I #
loop $-1 $252 $1068 $101 #
coedge $-1 $1069 $1070 $1071 $1072 forward $915 $-1 #
coedge $-1 $1073 $916 $1074 $1075 forward $837 $-1 #
coedge $-1 $916 $1073 $1076 $1077 forward $837 $-1 #
coedge $-1 $951 $950 $916 $997 reversed $952 $-1 #
edge $-1 $1078 -132 $1079 132 $916 $1080 forward 7 unknown #
coedge $-1 $918 $917 $1081 $1082 forward $759 $-1 #
coedge $-1 $964 $963 $917 $1000 reversed $965 $-1 #
edge $-1 $1004 -269 $1083 -5 $917 $1084 forward 7 unknown #
coedge $-1 $959 $958 $918 $1002 reversed $960 $-1 #
edge $-1 $1085 5 $1003 269 $918 $1086 forward 7 unknown #
vertex $-1 $920 $1087 #
vertex $-1 $920 $1088 #
straight-curve $-1 817 264 0 1 0 0 I I #
coedge $-1 $974 $973 $921 $1007 reversed $975 $-1 #
edge $-1 $1008 -406 $1010 -142 $921 $1089 forward 7 unknown #
vertex $-1 $1007 $1090 #
straight-curve $-1 1360 264 269 0 0 1 I I #
vertex $-1 $1007 $1091 #
straight-curve $-1 1096 264 269 0 0 -1 I I #
point $-1 1096 264 0 #
point $-1 1360 264 0 #
straight-curve $-1 406 264 538 -1 0 0 I I #
point $-1 264 264 538 #
point $-1 0 264 538 #
coedge $-1 $1092 $940 $1093 $1094 forward $862 $-1 #
coedge $-1 $940 $1092 $1095 $1096 forward $862 $-1 #
coedge $-1 $1097 $1098 $940 $1020 reversed $1099 $-1 #
edge $-1 $1100 142 $1101 406 $940 $1102 forward 7 unknown #
coedge $-1 $942 $941 $1103 $1104 forward $784 $-1 #
coedge $-1 $1105 $1106 $941 $1023 reversed $1107 $-1 #
edge $-1 $1030 -269 $1108 -5 $941 $1109 forward 7 unknown #
coedge $-1 $1110 $1111 $942 $1025 reversed $1112 $-1 #
edge $-1 $1113 5 $1029 269 $942 $1114 forward 7 unknown #
coedge $-1 $1071 $943 $1111 $1115 reversed $1028 $-1 #
coedge $-1 $943 $1071 $1105 $1116 reversed $1028 $-1 #
loop $-1 $-1 $943 $1117 #
vertex $-1 $944 $1118 #
vertex $-1 $944 $1119 #
straight-curve $-1 543 0 0 -1 0 0 I I #
coedge $-1 $1120 $1121 $945 $1033 reversed $1122 $-1 #
edge $-1 $1037 -132 $1042 132 $945 $1123 forward 7 unknown #
coedge $-1 $1076 $946 $951 $1045 forward $1036 $-1 #
coedge $-1 $946 $1076 $1120 $1124 forward $1036 $-1 #
loop $-1 $-1 $946 $1125 #
vertex $-1 $1033 $1126 #
straight-curve $-1 548 0 269 0 0 1 I I #
coedge $-1 $1074 $948 $1121 $1127 forward $1041 $-1 #
coedge $-1 $948 $1074 $950 $1044 forward $1041 $-1 #
loop $-1 $-1 $948 $1128 #
vertex $-1 $1033 $1129 #
straight-curve $-1 812 0 269 0 0 -1 I I #
edge $-1 $1079 -132 $953 132 $1040 $1130 forward 7 unknown #
edge $-1 $954 -132 $1078 132 $1034 $1131 forward 7 unknown #
face $-1 $1125 $952 $2 $-1 $1132 forward single #
point $-1 812 0 0 #
point $-1 548 0 0 #
coedge $-1 $1081 $956 $959 $1053 reversed $1051 $-1 #
coedge $-1 $956 $1081 $963 $1056 reversed $1051 $-1 #
loop $-1 $-1 $956 $1063 #
straight-curve $-1 817 0 264 1 0 0 I I #
edge $-1 $1085 -132 $961 132 $959 $1133 forward 7 unknown #
face $-1 $1134 $960 $2 $-1 $1135 forward single #
point $-1 822 0 264 #
edge $-1 $966 -132 $1083 132 $963 $1136 forward 7 unknown #
face $-1 $970 $965 $2 $-1 $1137 forward single #
point $-1 1086 0 264 #
straight-curve $-1 1086 132 0 0 -1 0 I I #
straight-curve $-1 822 132 0 0 1 0 I I #
plane-surface $-1 954 132 0 0 0 1 1 0 0 forward_v I I I I #
straight-curve $-1 1096 132 264 0 -1 0 I I #
face $-1 $1057 $1051 $2 $-1 $1138 reversed single #
plane-surface $-1 1096 132 132 1 0 0 0 0 -1 forward_v I I I I #
straight-curve $-1 1360 132 264 0 1 0 I I #
plane-surface $-1 1360 132 132 -1 0 0 0 0 1 forward_v I I I I #
plane-surface $-1 1228 132 264 0 0 1 1 0 0 forward_v I I I I #
coedge $-1 $1139 $1140 $1141 $1142 forward $992 $-1 #
coedge $-1 $1143 $993 $1144 $1145 forward $915 $-1 #
coedge $-1 $993 $1143 $1146 $1147 forward $915 $-1 #
coedge $-1 $1027 $1026 $993 $1072 reversed $1028 $-1 #
edge $-1 $1148 -269 $1149 -5 $993 $1150 forward 7 unknown #
coedge $-1 $995 $994 $1151 $1152 forward $837 $-1 #
coedge $-1 $1040 $1039 $994 $1075 reversed $1041 $-1 #
edge $-1 $1079 -269 $1153 -5 $994 $1154 forward 7 unknown #
coedge $-1 $1035 $1034 $995 $1077 reversed $1036 $-1 #
edge $-1 $1155 5 $1078 269 $995 $1156 forward 7 unknown #
vertex $-1 $997 $1157 #
vertex $-1 $997 $1158 #
straight-curve $-1 680 264 0 1 0 0 I I #
coedge $-1 $1050 $1049 $998 $1082 reversed $1051 $-1 #
edge $-1 $1083 -269 $1085 -5 $998 $1159 forward 7 unknown #
vertex $-1 $1082 $1160 #
straight-curve $-1 1086 264 269 0 0 1 I I #
vertex $-1 $1082 $1161 #
straight-curve $-1 822 264 269 0 0 -1 I I #
point $-1 822 264 0 #
point $-1 1086 264 0 #
straight-curve $-1 954 264 264 -1 0 0 I I #
point $-1 1360 264 264 #
point $-1 1096 264 264 #
coedge $-1 $1018 $1017 $1162 $1163 forward $862 $-1 #
coedge $-1 $1164 $1165 $1017 $1094 reversed $1166 $-1 #
edge $-1 $1101 -269 $1167 -5 $1017 $1168 forward 7 unknown #
coedge $-1 $1169 $1170 $1018 $1096 reversed $1171 $-1 #
edge $-1 $1172 5 $1100 269 $1018 $1173 forward 7 unknown #
coedge $-1 $1141 $1019 $1170 $1174 reversed $1099 $-1 #
coedge $-1 $1019 $1141 $1164 $1175 reversed $1099 $-1 #
loop $-1 $-1 $1019 $1176 #
vertex $-1 $1020 $1177 #
vertex $-1 $1020 $1178 #
straight-curve $-1 406 0 0 -1 0 0 I I #
coedge $-1 $1179 $1180 $1021 $1104 reversed $1181 $-1 #
edge $-1 $1108 -269 $1113 -5 $1021 $1182 forward 7 unknown #
coedge $-1 $1146 $1022 $1027 $1116 forward $1107 $-1 #
coedge $-1 $1022 $1146 $1179 $1183 forward $1107 $-1 #
loop $-1 $-1 $1022 $1184 #
vertex $-1 $1104 $1185 #
straight-curve $-1 274 0 269 0 0 1 I I #
coedge $-1 $1144 $1024 $1180 $1186 forward $1112 $-1 #
coedge $-1 $1024 $1144 $1026 $1115 forward $1112 $-1 #
loop $-1 $-1 $1024 $1187 #
vertex $-1 $1104 $1188 #
straight-curve $-1 538 0 269 0 0 -1 I I #
edge $-1 $1149 -132 $1029 132 $1111 $1189 forward 7 unknown #
edge $-1 $1030 -132 $1148 132 $1105 $1190 forward 7 unknown #
face $-1 $1184 $1028 $2 $-1 $1191 forward single #
point $-1 538 0 0 #
point $-1 274 0 0 #
coedge $-1 $1151 $1032 $1035 $1124 reversed $1122 $-1 #
coedge $-1 $1032 $1151 $1039 $1127 reversed $1122 $-1 #
loop $-1 $-1 $1032 $1134 #
straight-curve $-1 680 0 264 1 0 0 I I #
edge $-1 $1155 -132 $1037 132 $1035 $1192 forward 7 unknown #
face $-1 $1193 $1036 $2 $-1 $1194 forward single #
point $-1 548 0 264 #
edge $-1 $1042 -132 $1153 132 $1039 $1195 forward 7 unknown #
face $-1 $1046 $1041 $2 $-1 $1196 forward single #
point $-1 812 0 264 #
straight-curve $-1 812 132 0 0 -1 0 I I #
straight-curve $-1 548 132 0 0 1 0 I I #
plane-surface $-1 680 132 0 0 0 1 1 0 0 forward_v I I I I #
straight-curve $-1 822 132 264 0 -1 0 I I #
face $-1 $1128 $1122 $2 $-1 $1197 reversed single #
plane-surface $-1 822 132 132 1 0 0 0 0 -1 forward_v I I I I #
straight-curve $-1 1086 132 264 0 1 0 I I #
plane-surface $-1 1086 132 132 -1 0 0 0 0 1 forward_v I I I I #
plane-surface $-1 954 132 264 0 0 1 1 0 0 forward_v I I I I #
coedge $-1 $1198 $1068 $1199 $1200 forward $992 $-1 #
coedge $-1 $1068 $1198 $1201 $1202 forward $992 $-1 #
coedge $-1 $1098 $1097 $1068 $1142 reversed $1099 $-1 #
edge $-1 $1203 -406 $1204 -142 $1068 $1205 forward 7 unknown #
coedge $-1 $1070 $1069 $1206 $1207 forward $915 $-1 #
coedge $-1 $1111 $1110 $1069 $1145 reversed $1112 $-1 #
edge $-1 $1149 -269 $1208 -5 $1069 $1209 forward 7 unknown #
coedge $-1 $1106 $1105 $1070 $1147 reversed $1107 $-1 #
edge $-1 $1210 5 $1148 269 $1070 $1211 forward 7 unknown #
vertex $-1 $1072 $1212 #
vertex $-1 $1072 $1213 #
straight-curve $-1 543 264 0 1 0 0 I I #
coedge $-1 $1121 $1120 $1073 $1152 reversed $1122 $-1 #
edge $-1 $1153 -132 $1155 132 $1073 $1214 forward 7 unknown #
vertex $-1 $1152 $1215 #
straight-curve $-1 812 264 269 0 0 1 I I #
vertex $-1 $1152 $1216 #
straight-curve $-1 548 264 269 0 0 -1 I I #
point $-1 548 264 0 #
point $-1 812 264 0 #
straight-curve $-1 817 264 264 -1 0 0 I I #
point $-1 1086 264 264 #
point $-1 822 264 264 #
coedge $-1 $1217 $1218 $1092 $1163 reversed $1219 $-1 #
edge $-1 $1167 -406 $1172 -142 $1092 $1220 forward 7 unknown #
coedge $-1 $1201 $1093 $1098 $1175 forward $1166 $-1 #
coedge $-1 $1093 $1201 $1217 $1221 forward $1166 $-1 #
loop $-1 $-1 $1093 $1222 #
vertex $-1 $1163 $1223 #
straight-curve $-1 0 0 269 0 0 1 I I #
coedge $-1 $1199 $1095 $1218 $1224 forward $1171 $-1 #
coedge $-1 $1095 $1199 $1097 $1174 forward $1171 $-1 #
loop $-1 $-1 $1095 $1225 #
vertex $-1 $1163 $1226 #
straight-curve $-1 264 0 269 0 0 -1 I I #
edge $-1 $1204 -132 $1100 132 $1170 $1227 forward 7 unknown #
edge $-1 $1101 -132 $1203 132 $1164 $1228 forward 7 unknown #
face $-1 $1222 $1099 $2 $-1 $1229 forward single #
point $-1 264 0 0 #
point $-1 0 0 0 #
coedge $-1 $1206 $1103 $1106 $1183 reversed $1181 $-1 #
coedge $-1 $1103 $1206 $1110 $1186 reversed $1181 $-1 #
loop $-1 $-1 $1103 $1193 #
straight-curve $-1 543 0 264 1 0 0 I I #
edge $-1 $1210 -132 $1108 132 $1106 $1230 forward 7 unknown #
face $-1 $1231 $1107 $2 $-1 $1232 forward single #
point $-1 274 0 264 #
edge $-1 $1113 -132 $1208 132 $1110 $1233 forward 7 unknown #
face $-1 $1117 $1112 $2 $-1 $1234 forward single #
point $-1 538 0 264 #
straight-curve $-1 538 132 0 0 -1 0 I I #
straight-curve $-1 274 132 0 0 1 0 I I #
plane-surface $-1 406 132 0 0 0 1 1 0 0 forward_v I I I I #
straight-curve $-1 548 132 264 0 -1 0 I I #
face $-1 $1187 $1181 $2 $-1 $1235 reversed single #
plane-surface $-1 548 132 132 1 0 0 0 0 -1 forward_v I I I I #
straight-curve $-1 812 132 264 0 1 0 I I #
plane-surface $-1 812 132 132 -1 0 0 0 0 1 forward_v I I I I #
plane-surface $-1 680 132 264 0 0 1 1 0 0 forward_v I I I I #
coedge $-1 $1140 $1139 $1236 $1237 forward $992 $-1 #
coedge $-1 $1170 $1169 $1139 $1200 reversed $1171 $-1 #
edge $-1 $1204 -269 $1238 -5 $1139 $1239 forward 7 unknown #
coedge $-1 $1165 $1164 $1140 $1202 reversed $1166 $-1 #
edge $-1 $1240 5 $1203 269 $1140 $1241 forward 7 unknown #
vertex $-1 $1142 $1242 #
vertex $-1 $1142 $1243 #
straight-curve $-1 406 264 0 1 0 0 I I #
coedge $-1 $1180 $1179 $1143 $1207 reversed $1181 $-1 #
edge $-1 $1208 5 $1210 269 $1143 $1244 forward 7 unknown #
vertex $-1 $1207 $1245 #
straight-curve $-1 538 264 269 0 0 1 I I #
vertex $-1 $1207 $1246 #
straight-curve $-1 274 264 269 0 0 -1 I I #
point $-1 274 264 0 #
point $-1 538 264 0 #
straight-curve $-1 680 264 264 -1 0 0 I I #
point $-1 812 264 264 #
point $-1 548 264 264 #
coedge $-1 $1236 $1162 $1165 $1221 reversed $1219 $-1 #
coedge $-1 $1162 $1236 $1169 $1224 reversed $1219 $-1 #
loop $-1 $-1 $1162 $1231 #
straight-curve $-1 406 0 264 1 0 0 I I #
edge $-1 $1240 -132 $1167 132 $1165 $1247 forward 7 unknown #
face $-1 $429 $1166 $2 $-1 $1248 forward single #
point $-1 0 0 264 #
edge $-1 $1172 -132 $1238 132 $1169 $1249 forward 7 unknown #
face $-1 $1176 $1171 $2 $-1 $1250 forward single #
point $-1 264 0 264 #
straight-curve $-1 264 132 0 0 -1 0 I I #
straight-curve $-1 0 132 0 0 1 0 I I #
plane-surface $-1 132 132 0 0 0 1 1 0 0 forward_v I I I I #
straight-curve $-1 274 132 264 0 -1 0 I I #
face $-1 $1225 $1219 $2 $-1 $1251 reversed single #
plane-surface $-1 274 132 132 1 0 0 0 0 -1 forward_v I I I I #
straight-curve $-1 538 132 264 0 1 0 I I #
plane-surface $-1 538 132 132 -1 0 0 0 0 1 forward_v I I I I #
plane-surface $-1 406 132 264 0 0 1 1 0 0 forward_v I I I I #
coedge $-1 $1218 $1217 $1198 $1237 reversed $1219 $-1 #
edge $-1 $1238 142 $1240 406 $1198 $1252 forward 7 unknown #
vertex $-1 $1237 $1253 #
straight-curve $-1 264 264 269 0 0 1 I I #
vertex $-1 $1237 $1254 #
straight-curve $-1 0 264 269 0 0 -1 I I #
point $-1 0 264 0 #
point $-1 264 264 0 #
straight-curve $-1 543 264 264 -1 0 0 I I #
point $-1 538 264 264 #
point $-1 274 264 264 #
straight-curve $-1 0 132 264 0 -1 0 I I #
plane-surface $-1 0 132 132 1 0 0 0 0 -1 forward_v I I I I #
straight-curve $-1 264 132 264 0 1 0 I I #
plane-surface $-1 264 132 132 -1 0 0 0 0 1 forward_v I I I I #
plane-surface $-1 132 132 264 0 0 1 1 0 0 forward_v I I I I #
straight-curve $-1 406 264 264 -1 0 0 I I #
point $-1 264 264 264 #
point $-1 0 264 264 #
End-of-ACIS-data 