600 0 1 0           
77 GICL ACIS Healer - Source: /gicl/data5/repository/UMD/keyway/keyway.sat - 6 0 18 ACIS 6.0.3 Solaris 24 Sun Apr 14 00:34:59 2002 
1 9.999999999999999547e-07 1.000000000000000036e-10 
body $-1 $1 $-1 $-1 #
lump $-1 $-1 $2 $0 #
shell $-1 $-1 $-1 $3 $-1 $1 #
face $-1 $4 $5 $2 $-1 $6 forward single #
face $-1 $7 $8 $2 $-1 $9 reversed single #
loop $-1 $-1 $10 $3 #
plane-surface $-1 -5.303300858899100412 -5.303300858899119952 0 0.7071067811865460184 0.707106781186549016 0 0 0 -1 forward_v I I I I #
face $-1 $11 $12 $2 $-1 $13 forward single #
loop $-1 $-1 $14 $4 #
cone-surface $-1 -12.3743686707645999 15.90990257669730035 0 0 0 -1 -8.881784197001250746e-15 5 0 1 I I 0 1 5 forward I I I I #
coedge $-1 $15 $16 $17 $18 reversed $5 $-1 #
face $-1 $19 $20 $2 $-1 $21 reversed single #
loop $-1 $-1 $22 $7 #
plane-surface $-1 -17.67766952966369942 17.67766952966369942 0 0.707106781186549016 -0.7071067811865460184 0 0 0 -1 forward_v I I I I #
coedge $-1 $23 $24 $25 $26 reversed $8 $-1 #
coedge $-1 $27 $10 $28 $29 forward $5 $-1 #
coedge $-1 $10 $27 $30 $31 reversed $5 $-1 #
coedge $-1 $32 $33 $10 $18 forward $34 $-1 #
edge $-1 $35 -9.393398282201808058 $36 -7.933894499940938871 $17 $37 forward 7 unknown #
face $-1 $38 $39 $2 $-1 $40 forward single #
loop $-1 $-1 $41 $11 #
cone-surface $-1 -15.90990257669730035 12.3743686707645999 0 0 0 -1 -5 -8.881784197001250746e-15 0 1 I I 0 1 5 forward I I I I #
coedge $-1 $42 $43 $44 $45 reversed $12 $-1 #
coedge $-1 $46 $14 $47 $48 reversed $8 $-1 #
coedge $-1 $14 $46 $42 $49 reversed $8 $-1 #
coedge $-1 $44 $50 $14 $26 forward $34 $-1 #
edge $-1 $51 -0.7853981633974528309 $52 0.7853981633974604915 $25 $53 forward 7 unknown #
coedge $-1 $16 $15 $54 $55 reversed $5 $-1 #
coedge $-1 $41 $56 $15 $29 reversed $20 $-1 #
edge $-1 $35 -40 $57 75 $15 $58 forward 7 unknown #
coedge $-1 $59 $60 $16 $31 forward $61 $-1 #
edge $-1 $36 -40 $62 75 $30 $63 forward 7 unknown #
coedge $-1 $64 $17 $60 $65 reversed $34 $-1 #
coedge $-1 $17 $44 $41 $66 forward $34 $-1 #
loop $-1 $-1 $50 $67 #
vertex $-1 $66 $68 #
vertex $-1 $65 $69 #
straight-curve $-1 -12.80330085889909952 2.196699141100880048 -40 0.707106781186549016 -0.7071067811865460184 0 I I #
face $-1 $70 $71 $2 $-1 $72 reversed single #
loop $-1 $-1 $73 $19 #
plane-surface $-1 5.30330085889914038 -5.303300858899079984 0 -0.7071067811865510144 0.70710678118654402 0 -0 0 -1 forward_v I I I I #
coedge $-1 $74 $28 $33 $66 reversed $20 $-1 #
coedge $-1 $75 $22 $24 $49 forward $12 $-1 #
coedge $-1 $22 $75 $74 $76 forward $12 $-1 #
coedge $-1 $33 $25 $22 $45 forward $34 $-1 #
edge $-1 $52 -13.10660171779811733 $77 -8.106601717798168849 $44 $78 forward 7 unknown #
coedge $-1 $24 $23 $79 $80 reversed $8 $-1 #
coedge $-1 $81 $82 $23 $48 forward $83 $-1 #
edge $-1 $84 -75 $51 40 $47 $85 forward 7 unknown #
edge $-1 $52 -40 $86 75 $42 $87 forward 7 unknown #
coedge $-1 $25 $88 $81 $89 forward $34 $-1 #
vertex $-1 $26 $90 #
vertex $-1 $45 $91 #
ellipse-curve $-1 -12.3743686707645999 15.90990257669730035 -40 0 0 1 -8.881784197001250746e-15 5 0 1 I I #
coedge $-1 $92 $93 $27 $55 forward $94 $-1 #
edge $-1 $62 18.54049621773915391 $57 20.00000000000002132 $54 $95 forward 7 unknown #
coedge $-1 $28 $74 $92 $96 reversed $20 $-1 #
vertex $-1 $96 $97 #
straight-curve $-1 -19.44543648263010027 8.838834764831810631 0 0 0 1 I I #
coedge $-1 $98 $30 $93 $99 reversed $61 $-1 #
coedge $-1 $30 $100 $32 $65 forward $61 $-1 #
loop $-1 $-1 $30 $101 #
vertex $-1 $99 $102 #
straight-curve $-1 -18.41341146102600135 7.806809743227759668 0 -0 0 1 I I #
coedge $-1 $103 $32 $104 $105 forward $34 $-1 #
edge $-1 $106 2.740591264687979756 $36 3.542594042491600703 $60 $107 forward 7 unknown #
edge $-1 $77 -0.7853981633974360665 $35 0.7853981633974448373 $33 $108 forward 7 unknown #
face $-1 $109 $34 $2 $-1 $110 reversed single #
point $-1 -19.44543648263010027 8.838834764831810631 -40 #
point $-1 -18.41341146102600135 7.806809743227759668 -40 #
face $-1 $111 $112 $2 $-1 $113 forward single #
loop $-1 $-1 $114 $38 #
cone-surface $-1 -12.37436867076450042 -15.90990257669739982 0 0 0 -1 2.486899575160350019e-14 -5 0 1 I I 0 1 5 forward I I I I #
coedge $-1 $115 $116 $117 $118 reversed $39 $-1 #
coedge $-1 $56 $41 $43 $76 reversed $20 $-1 #
coedge $-1 $43 $42 $119 $120 reversed $12 $-1 #
edge $-1 $121 -75 $77 40 $43 $122 forward 7 unknown #
vertex $-1 $66 $123 #
straight-curve $-1 -25.17766952966369942 10.17766952966369942 -40 -0.7071067811865460184 -0.707106781186549016 0 I I #
coedge $-1 $124 $119 $46 $80 forward $94 $-1 #
edge $-1 $86 -0.7853981633974604915 $84 0.7853981633974528309 $79 $125 forward 7 unknown #
coedge $-1 $126 $47 $50 $89 reversed $83 $-1 #
coedge $-1 $47 $126 $124 $127 reversed $83 $-1 #
loop $-1 $-1 $81 $128 #
vertex $-1 $80 $129 #
straight-curve $-1 -8.838834764831879909 19.4454364826300008 0 0 0 -1 I I #
vertex $-1 $120 $130 #
straight-curve $-1 -15.90990257669739982 19.4454364826300008 0 0 0 1 I I #
coedge $-1 $50 $131 $132 $133 reversed $34 $-1 #
edge $-1 $134 7.933894499940946865 $51 9.393398282201751215 $50 $135 forward 7 unknown #
point $-1 -8.838834764831879909 19.4454364826300008 -40 #
point $-1 -15.90990257669739982 19.4454364826300008 -40 #
coedge $-1 $119 $54 $56 $96 forward $94 $-1 #
coedge $-1 $54 $136 $59 $99 forward $94 $-1 #
loop $-1 $-1 $124 $137 #
straight-curve $-1 -5.303300858899100412 -5.303300858899119952 75 -0.707106781186549016 0.7071067811865460184 0 I I #
edge $-1 $57 -0.7853981633974448373 $121 0.7853981633974360665 $92 $138 forward 7 unknown #
point $-1 -19.44543648263010027 8.838834764831810631 75 #
coedge $-1 $100 $59 $136 $139 reversed $61 $-1 #
edge $-1 $140 -3.141592653589799777 $62 -2.740591264687985529 $93 $141 forward 7 unknown #
coedge $-1 $60 $98 $142 $143 forward $61 $-1 #
face $-1 $144 $61 $2 $-1 $145 reversed single #
point $-1 -18.41341146102600135 7.806809743227759668 75 #
coedge $-1 $146 $64 $147 $148 forward $34 $-1 #
coedge $-1 $142 $149 $64 $105 reversed $150 $-1 #
edge $-1 $106 7.933894499940995715 $151 9.393398282201808058 $64 $152 forward 7 unknown #
vertex $-1 $143 $153 #
ellipse-curve $-1 0 0 -40 -0 -0 -1 20 0 0 1 I I #
ellipse-curve $-1 -15.90990257669730035 12.3743686707645999 -40 0 0 1 -5 -8.881784197001250746e-15 0 1 I I #
face $-1 $154 $155 $2 $-1 $156 forward single #
plane-surface $-1 -30 0 -40 0 0 1 1 0 0 forward_v I I I I #
face $-1 $157 $158 $2 $-1 $6 forward single #
loop $-1 $-1 $159 $70 #
plane-surface $-1 -5.30330085889914038 5.303300858899079984 0 0.7071067811865510144 -0.70710678118654402 0 0 0 1 forward_v I I I I #
coedge $-1 $160 $161 $162 $163 reversed $71 $-1 #
coedge $-1 $164 $73 $161 $165 forward $39 $-1 #
coedge $-1 $73 $164 $166 $167 reversed $39 $-1 #
coedge $-1 $168 $162 $73 $118 forward $34 $-1 #
edge $-1 $169 -9.39339828220183648 $170 -7.933894499940961076 $117 $171 forward 7 unknown #
coedge $-1 $79 $92 $75 $120 forward $94 $-1 #
edge $-1 $121 -2.500000000000043965 $86 2.499999999999903189 $119 $172 forward 7 unknown #
vertex $-1 $96 $173 #
straight-curve $-1 -19.44543648263010027 15.90990257669730035 0 0 0 -1 I I #
point $-1 -19.44543648263010027 15.90990257669730035 -40 #
coedge $-1 $174 $79 $82 $127 forward $94 $-1 #
ellipse-curve $-1 -12.3743686707645999 15.90990257669730035 75 -0 -0 -1 -8.881784197001250746e-15 5 0 1 I I #
coedge $-1 $82 $81 $175 $176 reversed $83 $-1 #
edge $-1 $84 -19.99999999999997158 $177 -18.54049621773916456 $124 $178 forward 7 unknown #
face $-1 $179 $83 $2 $-1 $180 forward single #
point $-1 -8.838834764831879909 19.4454364826300008 75 #
point $-1 -15.90990257669739982 19.4454364826300008 75 #
coedge $-1 $88 $181 $182 $183 reversed $34 $-1 #
coedge $-1 $184 $175 $88 $133 forward $185 $-1 #
edge $-1 $134 -1.971797715696707476 $186 -1.570796326794896558 $132 $107 forward 7 unknown #
vertex $-1 $176 $187 #
straight-curve $-1 -2.196699141100929786 12.80330085889909952 -40 -0.707106781186549016 0.7071067811865460184 0 I I #
coedge $-1 $93 $188 $98 $139 forward $94 $-1 #
face $-1 $-1 $94 $2 $-1 $189 forward single #
ellipse-curve $-1 -15.90990257669730035 12.3743686707645999 75 -0 -0 -1 -5 -8.881784197001250746e-15 0 1 I I #
edge $-1 $190 2.740591264687979756 $140 3.141592653589786455 $136 $141 forward 7 unknown #
vertex $-1 $139 $191 #
ellipse-curve $-1 0 0 75 -0 -0 -1 20 0 0 1 I I #
coedge $-1 $192 $104 $100 $143 reversed $150 $-1 #
edge $-1 $190 -75 $106 40 $100 $193 forward 7 unknown #
face $-1 $194 $195 $2 $-1 $145 reversed single #
cone-surface $-1 0 0 0 0 0 1 20 0 0 1 I I 0 1 20 forward I I I I #
coedge $-1 $162 $103 $196 $197 forward $34 $-1 #
coedge $-1 $198 $199 $103 $148 reversed $200 $-1 #
edge $-1 $151 -0.7853981633974601584 $201 0.785398163397443505 $103 $202 forward 7 unknown #
coedge $-1 $104 $192 $198 $203 forward $150 $-1 #
loop $-1 $-1 $104 $204 #
vertex $-1 $148 $205 #
straight-curve $-1 -12.80330085889909952 -2.196699141100920016 -40 -0.70710678118654402 -0.7071067811865510144 0 I I #
point $-1 -18.41341146102600135 -7.806809743227879572 -40 #
face $-1 $101 $206 $2 $-1 $145 reversed single #
loop $-1 $-1 $207 $109 #
plane-surface $-1 30 0 40 0 0 1 1 0 0 forward_v I I I I #
face $-1 $208 $209 $2 $-1 $210 reversed single #
loop $-1 $-1 $211 $111 #
coedge $-1 $212 $213 $214 $215 reversed $112 $-1 #
coedge $-1 $216 $114 $217 $218 reversed $71 $-1 #
coedge $-1 $114 $216 $115 $165 reversed $71 $-1 #
coedge $-1 $117 $146 $114 $163 forward $34 $-1 #
edge $-1 $219 -0.7853981633974392862 $169 0.7853981633974502774 $162 $220 forward 7 unknown #
coedge $-1 $116 $115 $221 $222 reversed $39 $-1 #
edge $-1 $169 -40 $223 75 $115 $224 forward 7 unknown #
coedge $-1 $225 $226 $116 $167 forward $195 $-1 #
edge $-1 $170 -40 $227 75 $166 $228 forward 7 unknown #
coedge $-1 $229 $117 $226 $230 reversed $34 $-1 #
vertex $-1 $118 $231 #
vertex $-1 $230 $232 #
straight-curve $-1 -2.196699141100780128 -12.80330085889909952 -40 0.70710678118654402 0.7071067811865510144 -0 I I #
straight-curve $-1 -17.67766952966369942 17.67766952966369942 75 0.7071067811865460184 0.707106781186549016 -0 I I #
point $-1 -19.44543648263010027 15.90990257669730035 75 #
coedge $-1 $233 $124 $234 $235 forward $94 $-1 #
coedge $-1 $132 $234 $126 $176 forward $185 $-1 #
edge $-1 $177 -75 $134 40 $175 $236 forward 7 unknown #
vertex $-1 $127 $237 #
straight-curve $-1 5.303300858899100412 5.303300858899119952 75 0.707106781186549016 -0.7071067811865460184 0 I I #
face $-1 $238 $200 $2 $-1 $239 reversed single #
plane-surface $-1 5.303300858899100412 5.303300858899119952 0 -0.7071067811865460184 -0.707106781186549016 0 0 0 1 forward_v I I I I #
coedge $-1 $131 $229 $240 $241 reversed $34 $-1 #
coedge $-1 $242 $243 $131 $183 forward $244 $-1 #
edge $-1 $186 20 $245 50 $182 $246 forward 7 unknown #
coedge $-1 $247 $132 $243 $248 forward $185 $-1 #
loop $-1 $-1 $175 $249 #
vertex $-1 $133 $250 #
point $-1 -7.806809743227820064 18.41341146102600135 -40 #
coedge $-1 $136 $251 $192 $252 forward $94 $-1 #
plane-surface $-1 0 0 75 0 0 1 1 0 0 forward_v I I I I #
vertex $-1 $252 $253 #
point $-1 -20 -1.39659253553725006e-13 75 #
coedge $-1 $149 $142 $188 $252 reversed $150 $-1 #
straight-curve $-1 -18.41341146102600135 -7.806809743227879572 0 0 0 -1 I I #
face $-1 $254 $244 $2 $-1 $255 forward single #
loop $-1 $-1 $166 $144 #
coedge $-1 $256 $217 $146 $197 reversed $257 $-1 #
edge $-1 $201 8.106601717798238127 $219 13.10660171779832517 $146 $258 forward 7 unknown #
coedge $-1 $259 $147 $149 $203 reversed $200 $-1 #
coedge $-1 $147 $259 $256 $260 reversed $200 $-1 #
loop $-1 $-1 $147 $179 #
vertex $-1 $148 $261 #
ellipse-curve $-1 -15.90990257669730035 -12.37436867076469937 -40 0 0 1 -5 -2.442490654175339971e-14 0 1 I I #
edge $-1 $262 -75 $151 40 $149 $263 forward 7 unknown #
face $-1 $264 $150 $2 $-1 $113 forward single #
point $-1 -19.4454364826300008 -8.838834764831949187 -40 #
loop $-1 $-1 $265 $154 #
coedge $-1 $266 $267 $268 $269 forward $155 $-1 #
face $-1 $270 $271 $2 $-1 $272 forward single #
loop $-1 $-1 $273 $157 #
cone-surface $-1 15.90990257669730035 -12.3743686707645999 0 0 0 -1 5 8.881784197001250746e-15 0 1 I I 0 1 5 forward I I I I #
coedge $-1 $274 $275 $276 $277 reversed $158 $-1 #
coedge $-1 $268 $159 $278 $279 forward $112 $-1 #
coedge $-1 $159 $268 $280 $281 reversed $112 $-1 #
coedge $-1 $282 $283 $159 $215 forward $284 $-1 #
edge $-1 $285 -20.00000000000000711 $286 -18.54049621773913259 $214 $287 forward 7 unknown #
coedge $-1 $161 $160 $288 $289 reversed $71 $-1 #
coedge $-1 $196 $290 $160 $218 forward $257 $-1 #
edge $-1 $291 -75 $219 40 $217 $292 forward 7 unknown #
vertex $-1 $197 $293 #
ellipse-curve $-1 -12.37436867076450042 -15.90990257669739982 -40 0 0 1 2.486899575160350019e-14 -5 0 1 I I #
coedge $-1 $288 $294 $164 $222 forward $94 $-1 #
edge $-1 $227 18.54049621773913259 $223 20.00000000000000711 $221 $295 forward 7 unknown #
vertex $-1 $222 $296 #
straight-curve $-1 -8.838834764831750235 -19.44543648263010027 0 0 0 1 I I #
coedge $-1 $297 $166 $294 $298 reversed $195 $-1 #
coedge $-1 $166 $299 $168 $230 forward $195 $-1 #
vertex $-1 $298 $300 #
straight-curve $-1 -7.80680974322769039 -18.41341146102600135 0 -0 -0 1 I I #
coedge $-1 $181 $168 $301 $302 reversed $34 $-1 #
edge $-1 $303 1.570796326794896558 $170 1.971797715696701481 $226 $107 forward 7 unknown #
point $-1 -8.838834764831750235 -19.44543648263010027 -40 #
point $-1 -7.80680974322769039 -18.41341146102600135 -40 #
coedge $-1 $304 $174 $305 $306 forward $94 $-1 #
coedge $-1 $175 $307 $174 $235 reversed $185 $-1 #
edge $-1 $177 -1.971797715696707476 $308 -1.570796326794896558 $174 $141 forward 7 unknown #
straight-curve $-1 -7.806809743227820064 18.41341146102600135 0 0 -0 -1 I I #
point $-1 -7.806809743227820064 18.41341146102600135 75 #
face $-1 $204 $257 $2 $-1 $309 forward single #
cone-surface $-1 -15.90990257669730035 -12.37436867076469937 0 0 0 -1 -5 -2.442490654175339971e-14 0 1 I I 0 1 5 forward I I I I #
coedge $-1 $310 $311 $181 $241 forward $312 $-1 #
edge $-1 $245 1.570796326794896558 $313 4.712388980384689674 $240 $314 forward 7 unknown #
coedge $-1 $315 $182 $311 $316 reversed $244 $-1 #
coedge $-1 $182 $315 $184 $248 reversed $244 $-1 #
loop $-1 $-1 $243 $194 #
vertex $-1 $241 $317 #
straight-curve $-1 0 0 -40 0 1 0 I I #
coedge $-1 $280 $184 $282 $318 reversed $185 $-1 #
edge $-1 $186 40 $319 75 $184 $320 forward 7 unknown #
face $-1 $321 $185 $2 $-1 $145 reversed single #
point $-1 0 20 -40 #
coedge $-1 $188 $322 $259 $323 forward $94 $-1 #
edge $-1 $262 -19.99999999999999289 $190 -18.54049621773917877 $188 $324 forward 7 unknown #
point $-1 -18.41341146102600135 -7.806809743227879572 75 #
face $-1 $249 $325 $2 $-1 $255 forward single #
plane-surface $-1 0 0 -60 -1 0 0 0 0 1 forward_v I I I I #
coedge $-1 $290 $196 $199 $260 forward $257 $-1 #
loop $-1 $-1 $196 $238 #
straight-curve $-1 -25.17766952966369942 -10.17766952966380067 -40 0.7071067811865510144 -0.70710678118654402 0 I I #
coedge $-1 $199 $198 $251 $323 reversed $200 $-1 #
edge $-1 $201 -40 $326 75 $256 $327 forward 7 unknown #
point $-1 -19.4454364826300008 -15.90990257669739982 -40 #
vertex $-1 $323 $328 #
straight-curve $-1 -19.4454364826300008 -8.838834764831949187 0 0 0 -1 I I #
face $-1 $329 $330 $2 $-1 $40 forward single #
coedge $-1 $331 $332 $333 $334 forward $206 $-1 #
coedge $-1 $335 $207 $336 $337 forward $155 $-1 #
coedge $-1 $207 $338 $339 $340 reversed $155 $-1 #
coedge $-1 $213 $212 $207 $269 reversed $112 $-1 #
edge $-1 $341 7.933894499940961076 $342 9.39339828220183648 $207 $343 forward 7 unknown #
face $-1 $344 $345 $2 $-1 $346 reversed single #
loop $-1 $-1 $347 $208 #
plane-surface $-1 17.67766952966369942 -17.67766952966369942 0 -0.707106781186549016 0.7071067811865460184 0 0 0 1 forward_v I I I I #
coedge $-1 $348 $349 $350 $351 reversed $209 $-1 #
coedge $-1 $352 $211 $353 $354 forward $158 $-1 #
coedge $-1 $211 $352 $355 $356 reversed $158 $-1 #
coedge $-1 $357 $358 $211 $277 forward $155 $-1 #
edge $-1 $359 -9.393398282201751215 $360 -7.933894499940946865 $276 $361 forward 7 unknown #
coedge $-1 $362 $336 $212 $279 reversed $345 $-1 #
edge $-1 $285 -75 $342 40 $212 $363 forward 7 unknown #
coedge $-1 $339 $247 $213 $281 forward $185 $-1 #
edge $-1 $286 -75 $341 40 $280 $364 forward 7 unknown #
coedge $-1 $365 $214 $247 $318 forward $284 $-1 #
coedge $-1 $214 $366 $362 $367 forward $284 $-1 #
loop $-1 $-1 $214 $368 #
vertex $-1 $367 $369 #
vertex $-1 $215 $370 #
straight-curve $-1 -5.30330085889914038 5.303300858899079984 -75 -0.70710678118654402 -0.7071067811865510144 -0 I I #
coedge $-1 $322 $221 $216 $289 forward $94 $-1 #
edge $-1 $223 -0.7853981633974502774 $291 0.7853981633974392862 $288 $371 forward 7 unknown #
coedge $-1 $217 $256 $322 $372 reversed $257 $-1 #
vertex $-1 $372 $373 #
straight-curve $-1 -15.90990257669720087 -19.44543648263019975 0 0 0 -1 I I #
point $-1 -15.90990257669720087 -19.44543648263019975 -40 #
coedge $-1 $221 $374 $225 $298 forward $94 $-1 #
straight-curve $-1 5.30330085889914038 -5.303300858899079984 75 -0.70710678118654402 -0.7071067811865510144 0 I I #
point $-1 -8.838834764831750235 -19.44543648263010027 75 #
coedge $-1 $375 $225 $376 $377 forward $195 $-1 #
edge $-1 $378 1.570796326794896558 $227 1.971797715696701481 $294 $141 forward 7 unknown #
coedge $-1 $226 $379 $380 $381 forward $195 $-1 #
point $-1 -7.80680974322769039 -18.41341146102600135 75 #
coedge $-1 $380 $382 $229 $302 forward $325 $-1 #
edge $-1 $313 -50 $303 -20 $301 $246 forward 7 unknown #
vertex $-1 $230 $383 #
coedge $-1 $374 $233 $384 $385 forward $94 $-1 #
coedge $-1 $386 $387 $233 $306 reversed $388 $-1 #
edge $-1 $308 20 $389 50 $233 $390 forward 7 unknown #
coedge $-1 $234 $339 $386 $391 forward $185 $-1 #
vertex $-1 $235 $392 #
plane-surface $-1 -17.67766952966359995 -17.6776695296637989 0 0.70710678118654402 0.7071067811865510144 0 -0 0 -1 forward_v I I I I #
coedge $-1 $393 $240 $382 $394 forward $312 $-1 #
coedge $-1 $240 $395 $242 $316 forward $312 $-1 #
loop $-1 $396 $310 $397 #
vertex $-1 $241 $398 #
ellipse-curve $-1 0 0 -40 0 0 1 50 0 0 1 I I #
coedge $-1 $243 $242 $365 $399 reversed $244 $-1 #
edge $-1 $400 -75 $245 -40 $311 $401 forward 7 unknown #
point $-1 0 50 -40 #
edge $-1 $286 1.169794937893091857 $319 1.570796326794896558 $282 $402 forward 7 unknown #
vertex $-1 $318 $403 #
straight-curve $-1 0 20 0 -0 -0 -1 I I #
face $-1 $404 $388 $2 $-1 $405 forward single #
coedge $-1 $251 $288 $290 $372 forward $94 $-1 #
edge $-1 $326 -0.785398163397443505 $262 0.7853981633974601584 $251 $406 forward 7 unknown #
straight-curve $-1 -5.30330085889914038 5.303300858899079984 75 0.70710678118654402 0.7071067811865510144 -0 I I #
loop $-1 $-1 $380 $254 #
vertex $-1 $323 $407 #
straight-curve $-1 -19.4454364826300008 -15.90990257669739982 0 0 0 1 I I #
point $-1 -19.4454364826300008 -8.838834764831949187 75 #
face $-1 $67 $408 $2 $-1 $180 forward single #
loop $-1 $-1 $409 $264 #
coedge $-1 $410 $265 $411 $412 reversed $206 $-1 #
coedge $-1 $265 $410 $413 $414 forward $206 $-1 #
coedge $-1 $415 $409 $265 $334 reversed $330 $-1 #
edge $-1 $416 -40 $417 75 $265 $418 forward 7 unknown #
coedge $-1 $419 $266 $420 $421 forward $155 $-1 #
coedge $-1 $278 $422 $266 $337 reversed $345 $-1 #
edge $-1 $342 -0.7853981633974502774 $423 0.7853981633974392862 $266 $424 forward 7 unknown #
coedge $-1 $267 $425 $426 $427 reversed $155 $-1 #
coedge $-1 $307 $280 $267 $340 forward $185 $-1 #
edge $-1 $341 1.169794937893091857 $428 1.570796326794896558 $339 $429 forward 7 unknown #
vertex $-1 $269 $430 #
vertex $-1 $337 $431 #
straight-curve $-1 2.196699141100780128 12.80330085889909952 40 0.70710678118654402 0.7071067811865510144 -0 I I #
face $-1 $432 $433 $2 $-1 $434 forward single #
loop $-1 $-1 $362 $270 #
cone-surface $-1 12.37436867076450042 15.90990257669739982 0 0 0 -1 -2.486899575160350019e-14 5 0 1 I I 0 1 5 forward I I I I #
coedge $-1 $435 $436 $437 $438 reversed $271 $-1 #
coedge $-1 $439 $273 $440 $441 reversed $209 $-1 #
coedge $-1 $273 $439 $435 $442 reversed $209 $-1 #
coedge $-1 $437 $443 $273 $351 forward $155 $-1 #
edge $-1 $444 -0.7853981633974448373 $445 0.7853981633974360665 $350 $446 forward 7 unknown #
coedge $-1 $275 $274 $447 $448 reversed $158 $-1 #
coedge $-1 $449 $450 $274 $354 reversed $451 $-1 #
edge $-1 $359 -40 $452 75 $274 $453 forward 7 unknown #
coedge $-1 $379 $375 $275 $356 forward $195 $-1 #
edge $-1 $360 -40 $454 75 $355 $455 forward 7 unknown #
coedge $-1 $456 $276 $375 $457 reversed $155 $-1 #
coedge $-1 $276 $437 $449 $458 forward $155 $-1 #
vertex $-1 $458 $459 #
vertex $-1 $457 $460 #
straight-curve $-1 2.196699141100929786 -12.80330085889909952 40 -0.707106781186549016 0.7071067811865460184 0 I I #
coedge $-1 $422 $278 $283 $367 reversed $345 $-1 #
straight-curve $-1 8.838834764831750235 19.44543648263010027 0 0 0 1 I I #
straight-curve $-1 7.80680974322769039 18.41341146102600135 0 0 0 1 I I #
coedge $-1 $461 $282 $315 $399 forward $284 $-1 #
coedge $-1 $283 $462 $463 $464 forward $284 $-1 #
edge $-1 $465 -0.7853981633974392862 $285 0.7853981633974502774 $283 $466 forward 7 unknown #
face $-1 $137 $284 $2 $-1 $467 forward single #
point $-1 8.838834764831750235 19.44543648263010027 -75 #
point $-1 7.80680974322769039 18.41341146102600135 -75 #
ellipse-curve $-1 -12.37436867076450042 -15.90990257669739982 75 -0 -0 -1 2.486899575160350019e-14 -5 0 1 I I #
edge $-1 $291 -2.500000000000043965 $326 2.500000000000043965 $322 $468 forward 7 unknown #
point $-1 -15.90990257669720087 -19.44543648263019975 75 #
coedge $-1 $294 $304 $469 $470 forward $94 $-1 #
coedge $-1 $355 $297 $357 $457 forward $195 $-1 #
coedge $-1 $469 $471 $297 $377 reversed $472 $-1 #
edge $-1 $378 -75 $473 -40 $297 $474 forward 7 unknown #
vertex $-1 $470 $475 #
coedge $-1 $299 $355 $476 $477 reversed $195 $-1 #
coedge $-1 $478 $301 $299 $381 reversed $325 $-1 #
edge $-1 $479 -75 $303 -40 $299 $480 forward 7 unknown #
coedge $-1 $301 $478 $310 $394 reversed $325 $-1 #
point $-1 0 -20 -40 #
coedge $-1 $481 $482 $304 $385 reversed $396 $-1 #
edge $-1 $389 1.570796326794896558 $483 4.712388980384689674 $304 $484 forward 7 unknown #
coedge $-1 $426 $305 $307 $391 reversed $388 $-1 #
coedge $-1 $305 $426 $481 $485 reversed $388 $-1 #
loop $-1 $-1 $386 $321 #
vertex $-1 $485 $486 #
straight-curve $-1 0 0 75 0 1 0 I I #
edge $-1 $428 40 $308 75 $307 $487 forward 7 unknown #
point $-1 0 20 75 #
coedge $-1 $395 $310 $488 $489 reversed $312 $-1 #
edge $-1 $313 40 $490 75 $310 $491 forward 7 unknown #
coedge $-1 $311 $393 $461 $492 reversed $312 $-1 #
loop $-1 $-1 $482 $397 #
face $-1 $368 $312 $2 $-1 $493 forward single #
point $-1 0 -50 -40 #
edge $-1 $319 20 $400 50 $365 $494 forward 7 unknown #
vertex $-1 $316 $495 #
straight-curve $-1 0 50 0 0 0 1 I I #
ellipse-curve $-1 0 0 -75 -0 -0 1 20 0 0 1 I I #
point $-1 0 20 -75 #
face $-1 $397 $472 $2 $-1 $405 forward single #
plane-surface $-1 0 0 60 1 0 0 0 0 -1 forward_v I I I I #
ellipse-curve $-1 -15.90990257669730035 -12.37436867076469937 75 -0 -0 -1 -5 -2.442490654175339971e-14 0 1 I I #
point $-1 -19.4454364826300008 -15.90990257669739982 75 #
loop $-1 $-1 $496 $329 #
coedge $-1 $333 $497 $498 $499 reversed $330 $-1 #
coedge $-1 $332 $331 $500 $501 forward $206 $-1 #
coedge $-1 $498 $502 $331 $412 forward $284 $-1 #
edge $-1 $503 -0.4010013889018079203 $417 0.4010013889018133604 $411 $402 forward 7 unknown #
coedge $-1 $443 $504 $332 $414 reversed $155 $-1 #
edge $-1 $505 -0.4010013889018079203 $416 0.4010013889018133604 $332 $429 forward 7 unknown #
coedge $-1 $497 $333 $504 $506 reversed $330 $-1 #
vertex $-1 $414 $507 #
vertex $-1 $412 $508 #
straight-curve $-1 18.41341146102600135 7.806809743227879572 0 -0 -0 -1 I I #
coedge $-1 $504 $335 $509 $510 forward $155 $-1 #
coedge $-1 $511 $512 $335 $421 reversed $433 $-1 #
edge $-1 $423 -13.10660171779832517 $513 -8.106601717798238127 $335 $514 forward 7 unknown #
coedge $-1 $336 $362 $511 $515 reversed $345 $-1 #
vertex $-1 $337 $516 #
ellipse-curve $-1 12.37436867076450042 15.90990257669739982 40 -0 -0 -1 -2.486899575160350019e-14 5 0 1 I I #
coedge $-1 $338 $456 $517 $518 reversed $155 $-1 #
coedge $-1 $387 $386 $338 $427 forward $388 $-1 #
edge $-1 $428 20 $519 50 $426 $520 forward 7 unknown #
vertex $-1 $340 $521 #
ellipse-curve $-1 0 0 40 0 0 1 20 0 0 1 I I #
point $-1 7.80680974322769039 18.41341146102600135 40 #
point $-1 8.838834764831750235 19.44543648263010027 40 #
face $-1 $522 $523 $2 $-1 $524 reversed single #
loop $-1 $-1 $463 $344 #
plane-surface $-1 17.67766952966359995 17.6776695296637989 0 -0.70710678118654402 -0.7071067811865510144 0 0 0 1 forward_v I I I I #
coedge $-1 $525 $347 $349 $442 forward $271 $-1 #
coedge $-1 $347 $525 $526 $527 forward $271 $-1 #
coedge $-1 $358 $350 $347 $438 forward $155 $-1 #
edge $-1 $445 8.106601717798168849 $528 13.10660171779811733 $437 $529 forward 7 unknown #
coedge $-1 $349 $348 $530 $531 reversed $209 $-1 #
coedge $-1 $496 $532 $348 $441 forward $408 $-1 #
edge $-1 $533 -75 $444 40 $440 $534 forward 7 unknown #
edge $-1 $445 -40 $535 75 $435 $536 forward 7 unknown #
coedge $-1 $350 $413 $496 $537 forward $155 $-1 #
vertex $-1 $351 $538 #
vertex $-1 $351 $539 #
ellipse-curve $-1 15.90990257669730035 -12.3743686707645999 40 -0 -0 -1 5 8.881784197001250746e-15 0 1 I I #
coedge $-1 $540 $476 $352 $448 forward $284 $-1 #
edge $-1 $454 18.54049621773916456 $452 19.99999999999997158 $447 $541 forward 7 unknown #
coedge $-1 $526 $353 $358 $458 reversed $451 $-1 #
coedge $-1 $353 $526 $540 $542 reversed $451 $-1 #
loop $-1 $-1 $449 $522 #
vertex $-1 $542 $543 #
straight-curve $-1 8.838834764831879909 -19.4454364826300008 0 0 0 -1 I I #
vertex $-1 $477 $544 #
straight-curve $-1 7.806809743227820064 -18.41341146102600135 0 -0 0 -1 I I #
coedge $-1 $425 $357 $471 $545 reversed $155 $-1 #
edge $-1 $473 -1.570796326794896558 $360 -1.169794937893085862 $375 $429 forward 7 unknown #
edge $-1 $528 -0.7853981633974604915 $359 0.7853981633974528309 $358 $546 forward 7 unknown #
point $-1 8.838834764831879909 -19.4454364826300008 40 #
point $-1 7.806809743227820064 -18.41341146102600135 40 #
coedge $-1 $488 $365 $395 $492 forward $284 $-1 #
coedge $-1 $366 $498 $547 $548 forward $284 $-1 #
coedge $-1 $512 $511 $366 $464 reversed $433 $-1 #
edge $-1 $549 -2.500000000000043965 $465 2.500000000000043965 $366 $550 forward 7 unknown #
vertex $-1 $367 $551 #
ellipse-curve $-1 12.37436867076450042 15.90990257669739982 -75 -0 -0 1 -2.486899575160350019e-14 5 0 1 I I #
plane-surface $-1 0 0 -75 0 0 -1 -1 0 0 forward_v I I I I #
straight-curve $-1 -17.67766952966359995 -17.6776695296637989 75 -0.7071067811865510144 0.70710678118654402 0 I I #
coedge $-1 $552 $376 $374 $470 reversed $472 $-1 #
edge $-1 $483 -50 $378 -20 $374 $390 forward 7 unknown #
coedge $-1 $376 $552 $456 $545 forward $472 $-1 #
loop $-1 $-1 $376 $404 #
vertex $-1 $457 $553 #
straight-curve $-1 0 -20 0 -0 0 -1 I I #
point $-1 0 -20 75 #
coedge $-1 $447 $554 $379 $477 forward $284 $-1 #
edge $-1 $479 -1.570796326794896558 $454 -1.169794937893085862 $476 $402 forward 7 unknown #
coedge $-1 $382 $380 $554 $555 reversed $325 $-1 #
vertex $-1 $555 $556 #
straight-curve $-1 0 -20 0 0 -0 1 I I #
coedge $-1 $517 $384 $387 $485 forward $396 $-1 #
coedge $-1 $384 $517 $552 $557 forward $396 $-1 #
vertex $-1 $385 $558 #
ellipse-curve $-1 0 0 75 0 0 1 50 0 0 1 I I #
edge $-1 $389 -75 $519 -40 $481 $559 forward 7 unknown #
point $-1 0 50 75 #
straight-curve $-1 0 20 0 0 0 1 I I #
coedge $-1 $554 $461 $393 $489 forward $284 $-1 #
edge $-1 $560 0 $490 1.570796326794896558 $488 $561 forward 7 unknown #
vertex $-1 $489 $562 #
straight-curve $-1 0 -50 0 -0 -0 -1 I I #
edge $-1 $400 -1.570796326794896558 $560 0 $461 $561 forward 7 unknown #
cone-surface $-1 0 0 0 0 0 1 50 0 0 1 I I 0 1 50 forward I I I I #
straight-curve $-1 0 0 -75 0 1 0 I I #
point $-1 0 50 -75 #
coedge $-1 $500 $440 $443 $537 reversed $408 $-1 #
coedge $-1 $409 $415 $563 $564 forward $330 $-1 #
coedge $-1 $462 $411 $409 $499 forward $284 $-1 #
edge $-1 $417 18.54049621773917877 $565 19.99999999999999289 $498 $566 forward 7 unknown #
coedge $-1 $532 $496 $410 $501 reversed $408 $-1 #
edge $-1 $503 -75 $505 40 $410 $567 forward 7 unknown #
coedge $-1 $411 $530 $532 $568 forward $284 $-1 #
vertex $-1 $501 $569 #
coedge $-1 $413 $419 $415 $506 forward $155 $-1 #
vertex $-1 $501 $570 #
edge $-1 $571 -9.393398282201808058 $416 -7.933894499940995715 $504 $572 forward 7 unknown #
point $-1 18.41341146102600135 7.806809743227879572 40 #
point $-1 18.41341146102600135 7.806809743227879572 -75 #
coedge $-1 $573 $563 $419 $510 reversed $523 $-1 #
edge $-1 $513 -0.785398163397443505 $571 0.7853981633974601584 $419 $574 forward 7 unknown #
coedge $-1 $463 $420 $422 $515 forward $433 $-1 #
coedge $-1 $420 $463 $573 $575 forward $433 $-1 #
vertex $-1 $421 $576 #
straight-curve $-1 25.17766952966369942 10.17766952966380067 40 0.7071067811865510144 -0.70710678118654402 0 I I #
edge $-1 $423 -40 $465 75 $511 $577 forward 7 unknown #
point $-1 15.90990257669720087 19.44543648263019975 40 #
coedge $-1 $482 $481 $425 $518 forward $396 $-1 #
edge $-1 $519 -1.570796326794896558 $578 1.570796326794896558 $517 $579 forward 7 unknown #
vertex $-1 $518 $580 #
straight-curve $-1 0 0 40 0 1 0 I I #
point $-1 0 20 40 #
face $-1 $128 $451 $2 $-1 $581 reversed single #
loop $-1 $-1 $547 $432 #
cone-surface $-1 15.90990257669730035 12.37436867076469937 0 0 0 -1 5 2.442490654175339971e-14 0 1 I I 0 1 5 forward I I I I #
coedge $-1 $436 $435 $582 $583 reversed $271 $-1 #
coedge $-1 $450 $449 $436 $527 reversed $451 $-1 #
edge $-1 $584 -75 $528 40 $436 $585 forward 7 unknown #
vertex $-1 $438 $586 #
straight-curve $-1 25.17766952966369942 -10.17766952966369942 40 -0.7071067811865460184 -0.707106781186549016 0 I I #
coedge $-1 $502 $582 $439 $531 forward $284 $-1 #
edge $-1 $535 -0.7853981633974360665 $533 0.7853981633974448373 $530 $587 forward 7 unknown #
coedge $-1 $440 $500 $502 $568 reversed $408 $-1 #
vertex $-1 $531 $588 #
straight-curve $-1 19.44543648263010027 -8.838834764831810631 0 0 0 1 I I #
vertex $-1 $531 $589 #
straight-curve $-1 19.44543648263010027 -15.90990257669730035 0 0 0 -1 I I #
edge $-1 $505 7.933894499940938871 $444 9.393398282201808058 $443 $590 forward 7 unknown #
point $-1 19.44543648263010027 -8.838834764831810631 40 #
point $-1 19.44543648263010027 -15.90990257669730035 40 #
coedge $-1 $582 $447 $450 $542 forward $284 $-1 #
straight-curve $-1 -5.303300858899100412 -5.303300858899119952 -75 0.707106781186549016 -0.7071067811865460184 0 I I #
edge $-1 $452 -0.7853981633974528309 $584 0.7853981633974604915 $540 $591 forward 7 unknown #
point $-1 8.838834764831879909 -19.4454364826300008 -75 #
point $-1 7.806809743227820064 -18.41341146102600135 -75 #
edge $-1 $578 -50 $473 -20 $471 $520 forward 7 unknown #
ellipse-curve $-1 12.3743686707645999 -15.90990257669730035 40 -0 -0 -1 8.881784197001250746e-15 -5 0 1 I I #
coedge $-1 $563 $573 $462 $548 reversed $523 $-1 #
edge $-1 $565 -0.7853981633974601584 $549 0.785398163397443505 $462 $592 forward 7 unknown #
vertex $-1 $464 $593 #
straight-curve $-1 17.67766952966359995 17.6776695296637989 -75 -0.7071067811865510144 0.70710678118654402 0 I I #
point $-1 15.90990257669720087 19.44543648263019975 -75 #
coedge $-1 $471 $469 $482 $557 reversed $472 $-1 #
point $-1 0 -20 40 #
coedge $-1 $476 $488 $478 $555 forward $284 $-1 #
edge $-1 $490 -50 $479 -20 $554 $494 forward 7 unknown #
point $-1 0 -20 -75 #
edge $-1 $578 40 $483 75 $482 $594 forward 7 unknown #
point $-1 0 -50 75 #
straight-curve $-1 0 50 0 -0 -0 -1 I I #
vertex $-1 $492 $595 #
ellipse-curve $-1 0 0 -75 0 0 -1 50 0 0 1 I I #
point $-1 0 -50 -75 #
coedge $-1 $509 $547 $497 $564 reversed $523 $-1 #
edge $-1 $571 -40 $565 75 $497 $596 forward 7 unknown #
vertex $-1 $548 $597 #
straight-curve $-1 5.30330085889914038 -5.303300858899079984 -75 0.70710678118654402 0.7071067811865510144 0 I I #
straight-curve $-1 18.41341146102600135 -7.806809743227759668 0 0 -0 1 I I #
edge $-1 $533 -20.00000000000002132 $503 -18.54049621773915391 $502 $598 forward 7 unknown #
point $-1 18.41341146102600135 -7.806809743227759668 -75 #
point $-1 18.41341146102600135 -7.806809743227759668 40 #
vertex $-1 $510 $599 #
straight-curve $-1 12.80330085889909952 2.196699141100920016 40 -0.70710678118654402 -0.7071067811865510144 0 I I #
coedge $-1 $547 $509 $512 $575 reversed $523 $-1 #
ellipse-curve $-1 15.90990257669730035 12.37436867076469937 40 -0 -0 -1 5 2.442490654175339971e-14 0 1 I I #
edge $-1 $549 -75 $513 40 $512 $600 forward 7 unknown #
point $-1 19.4454364826300008 15.90990257669739982 40 #
straight-curve $-1 15.90990257669720087 19.44543648263019975 0 0 0 -1 I I #
vertex $-1 $518 $601 #
ellipse-curve $-1 0 0 40 -0 -0 -1 50 0 0 1 I I #
point $-1 0 50 40 #
cone-surface $-1 12.3743686707645999 -15.90990257669730035 0 0 -0 -1 8.881784197001250746e-15 -5 0 1 I I 0 1 5 forward I I I I #
coedge $-1 $530 $540 $525 $583 forward $284 $-1 #
edge $-1 $584 -2.499999999999903189 $535 2.500000000000043965 $582 $602 forward 7 unknown #
vertex $-1 $583 $603 #
straight-curve $-1 15.90990257669739982 -19.4454364826300008 0 0 0 1 I I #
point $-1 15.90990257669739982 -19.4454364826300008 40 #
ellipse-curve $-1 15.90990257669730035 -12.3743686707645999 -75 -0 -0 1 5 8.881784197001250746e-15 0 1 I I #
point $-1 19.44543648263010027 -8.838834764831810631 -75 #
point $-1 19.44543648263010027 -15.90990257669730035 -75 #
straight-curve $-1 12.80330085889909952 -2.196699141100880048 40 0.707106781186549016 -0.7071067811865460184 0 I I #
ellipse-curve $-1 12.3743686707645999 -15.90990257669730035 -75 -0 -0 1 8.881784197001250746e-15 -5 0 1 I I #
ellipse-curve $-1 15.90990257669730035 12.37436867076469937 -75 -0 -0 1 5 2.442490654175339971e-14 0 1 I I #
point $-1 19.4454364826300008 15.90990257669739982 -75 #
straight-curve $-1 0 -50 0 0 0 1 I I #
point $-1 50 0 -75 #
straight-curve $-1 19.4454364826300008 8.838834764831949187 0 0 0 -1 I I #
point $-1 19.4454364826300008 8.838834764831949187 -75 #
straight-curve $-1 5.303300858899100412 5.303300858899119952 -75 -0.707106781186549016 0.7071067811865460184 0 I I #
point $-1 19.4454364826300008 8.838834764831949187 40 #
straight-curve $-1 19.4454364826300008 15.90990257669739982 0 0 0 1 I I #
point $-1 0 -50 40 #
straight-curve $-1 17.67766952966369942 -17.67766952966369942 -75 0.7071067811865460184 0.707106781186549016 0 I I #
point $-1 15.90990257669739982 -19.4454364826300008 -75 #
End-of-ACIS-data 