105 604 1 0                             
body $-1 $1 $-1 $-1 #
lump $-1 $-1 $2 $0 #
shell $-1 $-1 $-1 $3 $1 #
face $-1 $4 $5 $2 $-1 $6 forward single #
face $-1 $7 $8 $2 $-1 $9 reversed single #
loop $-1 $-1 $10 $3 #
plane-surface $-1 -5.3033008588991 -5.30330085889912 0 0.707106781186546 0.707106781186549 0 0 0 -1 0 #
face $-1 $11 $12 $2 $-1 $13 forward single #
loop $-1 $-1 $14 $4 #
cone-surface $-1 -12.3743686707646 15.9099025766973 0 0 0 -1 -8.88178419700125e-15 5 0 1 0 1 0 #
coedge $-1 $15 $16 $17 $18 1 $5 $-1 #
face $-1 $19 $20 $2 $-1 $21 reversed single #
loop $-1 $-1 $22 $7 #
plane-surface $-1 -17.6776695296637 17.6776695296637 0 0.707106781186549 -0.707106781186546 0 0 0 -1 0 #
coedge $-1 $23 $24 $25 $26 1 $8 $-1 #
coedge $-1 $27 $10 $28 $29 0 $5 $-1 #
coedge $-1 $10 $27 $30 $31 1 $5 $-1 #
coedge $-1 $32 $33 $10 $18 0 $34 $-1 #
edge $-1 $35 $36 $17 $37 0 #
face $-1 $38 $39 $2 $-1 $40 forward single #
loop $-1 $-1 $41 $11 #
cone-surface $-1 -15.9099025766973 12.3743686707646 0 0 0 -1 -5 -8.88178419700125e-15 0 1 0 1 0 #
coedge $-1 $42 $43 $44 $45 1 $12 $-1 #
coedge $-1 $46 $14 $47 $48 1 $8 $-1 #
coedge $-1 $14 $46 $42 $49 1 $8 $-1 #
coedge $-1 $44 $50 $14 $26 0 $34 $-1 #
edge $-1 $51 $52 $25 $53 0 #
coedge $-1 $16 $15 $54 $55 1 $5 $-1 #
coedge $-1 $41 $56 $15 $29 1 $20 $-1 #
edge $-1 $35 $57 $15 $58 0 #
coedge $-1 $59 $60 $16 $31 0 $61 $-1 #
edge $-1 $36 $62 $30 $63 0 #
coedge $-1 $64 $17 $60 $65 1 $34 $-1 #
coedge $-1 $17 $44 $41 $66 0 $34 $-1 #
loop $-1 $-1 $50 $67 #
vertex $-1 $66 $68 #
vertex $-1 $65 $69 #
straight-curve $-1 -12.8033008588991 2.19669914110088 -40 0.707106781186549 -0.707106781186546 0 #
face $-1 $70 $71 $2 $-1 $72 reversed single #
loop $-1 $-1 $73 $19 #
plane-surface $-1 5.30330085889914 -5.30330085889908 0 -0.707106781186551 0.707106781186544 0 -0 0 -1 0 #
coedge $-1 $74 $28 $33 $66 1 $20 $-1 #
coedge $-1 $75 $22 $24 $49 0 $12 $-1 #
coedge $-1 $22 $75 $74 $76 0 $12 $-1 #
coedge $-1 $33 $25 $22 $45 0 $34 $-1 #
edge $-1 $52 $77 $44 $78 0 #
coedge $-1 $24 $23 $79 $80 1 $8 $-1 #
coedge $-1 $81 $82 $23 $48 0 $83 $-1 #
edge $-1 $84 $51 $47 $85 0 #
edge $-1 $52 $86 $42 $87 0 #
coedge $-1 $25 $88 $81 $89 0 $34 $-1 #
vertex $-1 $26 $90 #
vertex $-1 $45 $91 #
ellipse-curve $-1 -12.3743686707646 15.9099025766973 -40 0 0 1 -8.88178419700125e-15 5 0 1 #
coedge $-1 $92 $93 $27 $55 0 $94 $-1 #
edge $-1 $62 $57 $54 $95 0 #
coedge $-1 $28 $74 $92 $96 1 $20 $-1 #
vertex $-1 $96 $97 #
straight-curve $-1 -19.4454364826301 8.83883476483181 0 0 0 1 #
coedge $-1 $98 $30 $93 $99 1 $61 $-1 #
coedge $-1 $30 $100 $32 $65 0 $61 $-1 #
loop $-1 $-1 $30 $101 #
vertex $-1 $99 $102 #
straight-curve $-1 -18.413411461026 7.80680974322776 0 -0 0 1 #
coedge $-1 $103 $32 $104 $105 0 $34 $-1 #
edge $-1 $106 $36 $60 $107 0 #
edge $-1 $77 $35 $33 $108 0 #
face $-1 $109 $34 $2 $-1 $110 reversed single #
point $-1 -19.4454364826301 8.83883476483181 -40 #
point $-1 -18.413411461026 7.80680974322776 -40 #
face $-1 $111 $112 $2 $-1 $113 forward single #
loop $-1 $-1 $114 $38 #
cone-surface $-1 -12.3743686707645 -15.9099025766974 0 0 0 -1 2.48689957516035e-14 -5 0 1 0 1 0 #
coedge $-1 $115 $116 $117 $118 1 $39 $-1 #
coedge $-1 $56 $41 $43 $76 1 $20 $-1 #
coedge $-1 $43 $42 $119 $120 1 $12 $-1 #
edge $-1 $121 $77 $43 $122 0 #
vertex $-1 $66 $123 #
straight-curve $-1 -25.1776695296637 10.1776695296637 -40 -0.707106781186546 -0.707106781186549 0 #
coedge $-1 $124 $119 $46 $80 0 $94 $-1 #
edge $-1 $86 $84 $79 $125 0 #
coedge $-1 $126 $47 $50 $89 1 $83 $-1 #
coedge $-1 $47 $126 $124 $127 1 $83 $-1 #
loop $-1 $-1 $81 $128 #
vertex $-1 $80 $129 #
straight-curve $-1 -8.83883476483188 19.44543648263 0 0 0 -1 #
vertex $-1 $120 $130 #
straight-curve $-1 -15.9099025766974 19.44543648263 0 0 0 1 #
coedge $-1 $50 $131 $132 $133 1 $34 $-1 #
edge $-1 $134 $51 $50 $135 0 #
point $-1 -8.83883476483188 19.44543648263 -40 #
point $-1 -15.9099025766974 19.44543648263 -40 #
coedge $-1 $119 $54 $56 $96 0 $94 $-1 #
coedge $-1 $54 $136 $59 $99 0 $94 $-1 #
loop $-1 $-1 $124 $137 #
straight-curve $-1 -5.3033008588991 -5.30330085889912 75 -0.707106781186549 0.707106781186546 0 #
edge $-1 $57 $121 $92 $138 0 #
point $-1 -19.4454364826301 8.83883476483181 75 #
coedge $-1 $100 $59 $136 $139 1 $61 $-1 #
edge $-1 $140 $62 $93 $141 0 #
coedge $-1 $60 $98 $142 $143 0 $61 $-1 #
face $-1 $144 $61 $2 $-1 $145 reversed single #
point $-1 -18.413411461026 7.80680974322776 75 #
coedge $-1 $146 $64 $147 $148 0 $34 $-1 #
coedge $-1 $142 $149 $64 $105 1 $150 $-1 #
edge $-1 $106 $151 $64 $152 0 #
vertex $-1 $143 $153 #
ellipse-curve $-1 0 0 -40 -0 -0 -1 20 0 0 1 #
ellipse-curve $-1 -15.9099025766973 12.3743686707646 -40 0 0 1 -5 -8.88178419700125e-15 0 1 #
face $-1 $154 $155 $2 $-1 $156 forward single #
plane-surface $-1 -30 0 -40 0 0 1 1 0 0 0 #
face $-1 $157 $158 $2 $-1 $6 forward single #
loop $-1 $-1 $159 $70 #
plane-surface $-1 -5.30330085889914 5.30330085889908 0 0.707106781186551 -0.707106781186544 0 0 0 1 0 #
coedge $-1 $160 $161 $162 $163 1 $71 $-1 #
coedge $-1 $164 $73 $161 $165 0 $39 $-1 #
coedge $-1 $73 $164 $166 $167 1 $39 $-1 #
coedge $-1 $168 $162 $73 $118 0 $34 $-1 #
edge $-1 $169 $170 $117 $171 0 #
coedge $-1 $79 $92 $75 $120 0 $94 $-1 #
edge $-1 $121 $86 $119 $172 0 #
vertex $-1 $96 $173 #
straight-curve $-1 -19.4454364826301 15.9099025766973 0 0 0 -1 #
point $-1 -19.4454364826301 15.9099025766973 -40 #
coedge $-1 $174 $79 $82 $127 0 $94 $-1 #
ellipse-curve $-1 -12.3743686707646 15.9099025766973 75 -0 -0 -1 -8.88178419700125e-15 5 0 1 #
coedge $-1 $82 $81 $175 $176 1 $83 $-1 #
edge $-1 $84 $177 $124 $178 0 #
face $-1 $179 $83 $2 $-1 $180 forward single #
point $-1 -8.83883476483188 19.44543648263 75 #
point $-1 -15.9099025766974 19.44543648263 75 #
coedge $-1 $88 $181 $182 $183 1 $34 $-1 #
coedge $-1 $184 $175 $88 $133 0 $185 $-1 #
edge $-1 $134 $186 $132 $107 0 #
vertex $-1 $176 $187 #
straight-curve $-1 -2.19669914110093 12.8033008588991 -40 -0.707106781186549 0.707106781186546 0 #
coedge $-1 $93 $188 $98 $139 0 $94 $-1 #
face $-1 $-1 $94 $2 $-1 $189 forward single #
ellipse-curve $-1 -15.9099025766973 12.3743686707646 75 -0 -0 -1 -5 -8.88178419700125e-15 0 1 #
edge $-1 $190 $140 $136 $141 0 #
vertex $-1 $139 $191 #
ellipse-curve $-1 0 0 75 -0 -0 -1 20 0 0 1 #
coedge $-1 $192 $104 $100 $143 1 $150 $-1 #
edge $-1 $190 $106 $100 $193 0 #
face $-1 $194 $195 $2 $-1 $145 reversed single #
cone-surface $-1 0 0 0 0 0 1 20 0 0 1 0 1 0 #
coedge $-1 $162 $103 $196 $197 0 $34 $-1 #
coedge $-1 $198 $199 $103 $148 1 $200 $-1 #
edge $-1 $151 $201 $103 $202 0 #
coedge $-1 $104 $192 $198 $203 0 $150 $-1 #
loop $-1 $-1 $104 $204 #
vertex $-1 $148 $205 #
straight-curve $-1 -12.8033008588991 -2.19669914110092 -40 -0.707106781186544 -0.707106781186551 0 #
point $-1 -18.413411461026 -7.80680974322788 -40 #
face $-1 $101 $206 $2 $-1 $145 reversed single #
loop $-1 $-1 $207 $109 #
plane-surface $-1 30 0 40 0 0 1 1 0 0 0 #
face $-1 $208 $209 $2 $-1 $210 reversed single #
loop $-1 $-1 $211 $111 #
coedge $-1 $212 $213 $214 $215 1 $112 $-1 #
coedge $-1 $216 $114 $217 $218 1 $71 $-1 #
coedge $-1 $114 $216 $115 $165 1 $71 $-1 #
coedge $-1 $117 $146 $114 $163 0 $34 $-1 #
edge $-1 $219 $169 $162 $220 0 #
coedge $-1 $116 $115 $221 $222 1 $39 $-1 #
edge $-1 $169 $223 $115 $224 0 #
coedge $-1 $225 $226 $116 $167 0 $195 $-1 #
edge $-1 $170 $227 $166 $228 0 #
coedge $-1 $229 $117 $226 $230 1 $34 $-1 #
vertex $-1 $118 $231 #
vertex $-1 $230 $232 #
straight-curve $-1 -2.19669914110078 -12.8033008588991 -40 0.707106781186544 0.707106781186551 -0 #
straight-curve $-1 -17.6776695296637 17.6776695296637 75 0.707106781186546 0.707106781186549 -0 #
point $-1 -19.4454364826301 15.9099025766973 75 #
coedge $-1 $233 $124 $234 $235 0 $94 $-1 #
coedge $-1 $132 $234 $126 $176 0 $185 $-1 #
edge $-1 $177 $134 $175 $236 0 #
vertex $-1 $127 $237 #
straight-curve $-1 5.3033008588991 5.30330085889912 75 0.707106781186549 -0.707106781186546 0 #
face $-1 $238 $200 $2 $-1 $239 reversed single #
plane-surface $-1 5.3033008588991 5.30330085889912 0 -0.707106781186546 -0.707106781186549 0 0 0 1 0 #
coedge $-1 $131 $229 $240 $241 1 $34 $-1 #
coedge $-1 $242 $243 $131 $183 0 $244 $-1 #
edge $-1 $186 $245 $182 $246 0 #
coedge $-1 $247 $132 $243 $248 0 $185 $-1 #
loop $-1 $-1 $175 $249 #
vertex $-1 $133 $250 #
point $-1 -7.80680974322782 18.413411461026 -40 #
coedge $-1 $136 $251 $192 $252 0 $94 $-1 #
plane-surface $-1 0 0 75 0 0 1 1 0 0 0 #
vertex $-1 $252 $253 #
point $-1 -20 -1.39659253553725e-13 75 #
coedge $-1 $149 $142 $188 $252 1 $150 $-1 #
straight-curve $-1 -18.413411461026 -7.80680974322788 0 0 0 -1 #
face $-1 $254 $244 $2 $-1 $255 forward single #
loop $-1 $-1 $166 $144 #
coedge $-1 $256 $217 $146 $197 1 $257 $-1 #
edge $-1 $201 $219 $146 $258 0 #
coedge $-1 $259 $147 $149 $203 1 $200 $-1 #
coedge $-1 $147 $259 $256 $260 1 $200 $-1 #
loop $-1 $-1 $147 $179 #
vertex $-1 $148 $261 #
ellipse-curve $-1 -15.9099025766973 -12.3743686707647 -40 0 0 1 -5 -2.44249065417534e-14 0 1 #
edge $-1 $262 $151 $149 $263 0 #
face $-1 $264 $150 $2 $-1 $113 forward single #
point $-1 -19.44543648263 -8.83883476483195 -40 #
loop $-1 $-1 $265 $154 #
coedge $-1 $266 $267 $268 $269 0 $155 $-1 #
face $-1 $270 $271 $2 $-1 $272 forward single #
loop $-1 $-1 $273 $157 #
cone-surface $-1 15.9099025766973 -12.3743686707646 0 0 0 -1 5 8.88178419700125e-15 0 1 0 1 0 #
coedge $-1 $274 $275 $276 $277 1 $158 $-1 #
coedge $-1 $268 $159 $278 $279 0 $112 $-1 #
coedge $-1 $159 $268 $280 $281 1 $112 $-1 #
coedge $-1 $282 $283 $159 $215 0 $284 $-1 #
edge $-1 $285 $286 $214 $287 0 #
coedge $-1 $161 $160 $288 $289 1 $71 $-1 #
coedge $-1 $196 $290 $160 $218 0 $257 $-1 #
edge $-1 $291 $219 $217 $292 0 #
vertex $-1 $197 $293 #
ellipse-curve $-1 -12.3743686707645 -15.9099025766974 -40 0 0 1 2.48689957516035e-14 -5 0 1 #
coedge $-1 $288 $294 $164 $222 0 $94 $-1 #
edge $-1 $227 $223 $221 $295 0 #
vertex $-1 $222 $296 #
straight-curve $-1 -8.83883476483175 -19.4454364826301 0 0 0 1 #
coedge $-1 $297 $166 $294 $298 1 $195 $-1 #
coedge $-1 $166 $299 $168 $230 0 $195 $-1 #
vertex $-1 $298 $300 #
straight-curve $-1 -7.80680974322769 -18.413411461026 0 -0 -0 1 #
coedge $-1 $181 $168 $301 $302 1 $34 $-1 #
edge $-1 $303 $170 $226 $107 0 #
point $-1 -8.83883476483175 -19.4454364826301 -40 #
point $-1 -7.80680974322769 -18.413411461026 -40 #
coedge $-1 $304 $174 $305 $306 0 $94 $-1 #
coedge $-1 $175 $307 $174 $235 1 $185 $-1 #
edge $-1 $177 $308 $174 $141 0 #
straight-curve $-1 -7.80680974322782 18.413411461026 0 0 -0 -1 #
point $-1 -7.80680974322782 18.413411461026 75 #
face $-1 $204 $257 $2 $-1 $309 forward single #
cone-surface $-1 -15.9099025766973 -12.3743686707647 0 0 0 -1 -5 -2.44249065417534e-14 0 1 0 1 0 #
coedge $-1 $310 $311 $181 $241 0 $312 $-1 #
edge $-1 $245 $313 $240 $314 0 #
coedge $-1 $315 $182 $311 $316 1 $244 $-1 #
coedge $-1 $182 $315 $184 $248 1 $244 $-1 #
loop $-1 $-1 $243 $194 #
vertex $-1 $241 $317 #
straight-curve $-1 0 0 -40 0 1 0 #
coedge $-1 $280 $184 $282 $318 1 $185 $-1 #
edge $-1 $186 $319 $184 $320 0 #
face $-1 $321 $185 $2 $-1 $145 reversed single #
point $-1 0 20 -40 #
coedge $-1 $188 $322 $259 $323 0 $94 $-1 #
edge $-1 $262 $190 $188 $324 0 #
point $-1 -18.413411461026 -7.80680974322788 75 #
face $-1 $249 $325 $2 $-1 $255 forward single #
plane-surface $-1 0 0 -60 -1 0 0 0 0 1 0 #
coedge $-1 $290 $196 $199 $260 0 $257 $-1 #
loop $-1 $-1 $196 $238 #
straight-curve $-1 -25.1776695296637 -10.1776695296638 -40 0.707106781186551 -0.707106781186544 0 #
coedge $-1 $199 $198 $251 $323 1 $200 $-1 #
edge $-1 $201 $326 $256 $327 0 #
point $-1 -19.44543648263 -15.9099025766974 -40 #
vertex $-1 $323 $328 #
straight-curve $-1 -19.44543648263 -8.83883476483195 0 0 0 -1 #
face $-1 $329 $330 $2 $-1 $40 forward single #
coedge $-1 $331 $332 $333 $334 0 $206 $-1 #
coedge $-1 $335 $207 $336 $337 0 $155 $-1 #
coedge $-1 $207 $338 $339 $340 1 $155 $-1 #
coedge $-1 $213 $212 $207 $269 1 $112 $-1 #
edge $-1 $341 $342 $207 $343 0 #
face $-1 $344 $345 $2 $-1 $346 reversed single #
loop $-1 $-1 $347 $208 #
plane-surface $-1 17.6776695296637 -17.6776695296637 0 -0.707106781186549 0.707106781186546 0 0 0 1 0 #
coedge $-1 $348 $349 $350 $351 1 $209 $-1 #
coedge $-1 $352 $211 $353 $354 0 $158 $-1 #
coedge $-1 $211 $352 $355 $356 1 $158 $-1 #
coedge $-1 $357 $358 $211 $277 0 $155 $-1 #
edge $-1 $359 $360 $276 $361 0 #
coedge $-1 $362 $336 $212 $279 1 $345 $-1 #
edge $-1 $285 $342 $212 $363 0 #
coedge $-1 $339 $247 $213 $281 0 $185 $-1 #
edge $-1 $286 $341 $280 $364 0 #
coedge $-1 $365 $214 $247 $318 0 $284 $-1 #
coedge $-1 $214 $366 $362 $367 0 $284 $-1 #
loop $-1 $-1 $214 $368 #
vertex $-1 $367 $369 #
vertex $-1 $215 $370 #
straight-curve $-1 -5.30330085889914 5.30330085889908 -75 -0.707106781186544 -0.707106781186551 -0 #
coedge $-1 $322 $221 $216 $289 0 $94 $-1 #
edge $-1 $223 $291 $288 $371 0 #
coedge $-1 $217 $256 $322 $372 1 $257 $-1 #
vertex $-1 $372 $373 #
straight-curve $-1 -15.9099025766972 -19.4454364826302 0 0 0 -1 #
point $-1 -15.9099025766972 -19.4454364826302 -40 #
coedge $-1 $221 $374 $225 $298 0 $94 $-1 #
straight-curve $-1 5.30330085889914 -5.30330085889908 75 -0.707106781186544 -0.707106781186551 0 #
point $-1 -8.83883476483175 -19.4454364826301 75 #
coedge $-1 $375 $225 $376 $377 0 $195 $-1 #
edge $-1 $378 $227 $294 $141 0 #
coedge $-1 $226 $379 $380 $381 0 $195 $-1 #
point $-1 -7.80680974322769 -18.413411461026 75 #
coedge $-1 $380 $382 $229 $302 0 $325 $-1 #
edge $-1 $313 $303 $301 $246 0 #
vertex $-1 $230 $383 #
coedge $-1 $374 $233 $384 $385 0 $94 $-1 #
coedge $-1 $386 $387 $233 $306 1 $388 $-1 #
edge $-1 $308 $389 $233 $390 0 #
coedge $-1 $234 $339 $386 $391 0 $185 $-1 #
vertex $-1 $235 $392 #
plane-surface $-1 -17.6776695296636 -17.6776695296638 0 0.707106781186544 0.707106781186551 0 -0 0 -1 0 #
coedge $-1 $393 $240 $382 $394 0 $312 $-1 #
coedge $-1 $240 $395 $242 $316 0 $312 $-1 #
loop $-1 $396 $310 $397 #
vertex $-1 $241 $398 #
ellipse-curve $-1 0 0 -40 0 0 1 50 0 0 1 #
coedge $-1 $243 $242 $365 $399 1 $244 $-1 #
edge $-1 $400 $245 $311 $401 0 #
point $-1 0 50 -40 #
edge $-1 $286 $319 $282 $402 0 #
vertex $-1 $318 $403 #
straight-curve $-1 0 20 0 -0 -0 -1 #
face $-1 $404 $388 $2 $-1 $405 forward single #
coedge $-1 $251 $288 $290 $372 0 $94 $-1 #
edge $-1 $326 $262 $251 $406 0 #
straight-curve $-1 -5.30330085889914 5.30330085889908 75 0.707106781186544 0.707106781186551 -0 #
loop $-1 $-1 $380 $254 #
vertex $-1 $323 $407 #
straight-curve $-1 -19.44543648263 -15.9099025766974 0 0 0 1 #
point $-1 -19.44543648263 -8.83883476483195 75 #
face $-1 $67 $408 $2 $-1 $180 forward single #
loop $-1 $-1 $409 $264 #
coedge $-1 $410 $265 $411 $412 1 $206 $-1 #
coedge $-1 $265 $410 $413 $414 0 $206 $-1 #
coedge $-1 $415 $409 $265 $334 1 $330 $-1 #
edge $-1 $416 $417 $265 $418 0 #
coedge $-1 $419 $266 $420 $421 0 $155 $-1 #
coedge $-1 $278 $422 $266 $337 1 $345 $-1 #
edge $-1 $342 $423 $266 $424 0 #
coedge $-1 $267 $425 $426 $427 1 $155 $-1 #
coedge $-1 $307 $280 $267 $340 0 $185 $-1 #
edge $-1 $341 $428 $339 $429 0 #
vertex $-1 $269 $430 #
vertex $-1 $337 $431 #
straight-curve $-1 2.19669914110078 12.8033008588991 40 0.707106781186544 0.707106781186551 -0 #
face $-1 $432 $433 $2 $-1 $434 forward single #
loop $-1 $-1 $362 $270 #
cone-surface $-1 12.3743686707645 15.9099025766974 0 0 0 -1 -2.48689957516035e-14 5 0 1 0 1 0 #
coedge $-1 $435 $436 $437 $438 1 $271 $-1 #
coedge $-1 $439 $273 $440 $441 1 $209 $-1 #
coedge $-1 $273 $439 $435 $442 1 $209 $-1 #
coedge $-1 $437 $443 $273 $351 0 $155 $-1 #
edge $-1 $444 $445 $350 $446 0 #
coedge $-1 $275 $274 $447 $448 1 $158 $-1 #
coedge $-1 $449 $450 $274 $354 1 $451 $-1 #
edge $-1 $359 $452 $274 $453 0 #
coedge $-1 $379 $375 $275 $356 0 $195 $-1 #
edge $-1 $360 $454 $355 $455 0 #
coedge $-1 $456 $276 $375 $457 1 $155 $-1 #
coedge $-1 $276 $437 $449 $458 0 $155 $-1 #
vertex $-1 $458 $459 #
vertex $-1 $457 $460 #
straight-curve $-1 2.19669914110093 -12.8033008588991 40 -0.707106781186549 0.707106781186546 0 #
coedge $-1 $422 $278 $283 $367 1 $345 $-1 #
straight-curve $-1 8.83883476483175 19.4454364826301 0 0 0 1 #
straight-curve $-1 7.80680974322769 18.413411461026 0 0 0 1 #
coedge $-1 $461 $282 $315 $399 0 $284 $-1 #
coedge $-1 $283 $462 $463 $464 0 $284 $-1 #
edge $-1 $465 $285 $283 $466 0 #
face $-1 $137 $284 $2 $-1 $467 forward single #
point $-1 8.83883476483175 19.4454364826301 -75 #
point $-1 7.80680974322769 18.413411461026 -75 #
ellipse-curve $-1 -12.3743686707645 -15.9099025766974 75 -0 -0 -1 2.48689957516035e-14 -5 0 1 #
edge $-1 $291 $326 $322 $468 0 #
point $-1 -15.9099025766972 -19.4454364826302 75 #
coedge $-1 $294 $304 $469 $470 0 $94 $-1 #
coedge $-1 $355 $297 $357 $457 0 $195 $-1 #
coedge $-1 $469 $471 $297 $377 1 $472 $-1 #
edge $-1 $378 $473 $297 $474 0 #
vertex $-1 $470 $475 #
coedge $-1 $299 $355 $476 $477 1 $195 $-1 #
coedge $-1 $478 $301 $299 $381 1 $325 $-1 #
edge $-1 $479 $303 $299 $480 0 #
coedge $-1 $301 $478 $310 $394 1 $325 $-1 #
point $-1 0 -20 -40 #
coedge $-1 $481 $482 $304 $385 1 $396 $-1 #
edge $-1 $389 $483 $304 $484 0 #
coedge $-1 $426 $305 $307 $391 1 $388 $-1 #
coedge $-1 $305 $426 $481 $485 1 $388 $-1 #
loop $-1 $-1 $386 $321 #
vertex $-1 $485 $486 #
straight-curve $-1 0 0 75 0 1 0 #
edge $-1 $428 $308 $307 $487 0 #
point $-1 0 20 75 #
coedge $-1 $395 $310 $488 $489 1 $312 $-1 #
edge $-1 $313 $490 $310 $491 0 #
coedge $-1 $311 $393 $461 $492 1 $312 $-1 #
loop $-1 $-1 $482 $397 #
face $-1 $368 $312 $2 $-1 $493 forward single #
point $-1 0 -50 -40 #
edge $-1 $319 $400 $365 $494 0 #
vertex $-1 $316 $495 #
straight-curve $-1 0 50 0 0 0 1 #
ellipse-curve $-1 0 0 -75 -0 -0 1 20 0 0 1 #
point $-1 0 20 -75 #
face $-1 $397 $472 $2 $-1 $405 forward single #
plane-surface $-1 0 0 60 1 0 0 0 0 -1 0 #
ellipse-curve $-1 -15.9099025766973 -12.3743686707647 75 -0 -0 -1 -5 -2.44249065417534e-14 0 1 #
point $-1 -19.44543648263 -15.9099025766974 75 #
loop $-1 $-1 $496 $329 #
coedge $-1 $333 $497 $498 $499 1 $330 $-1 #
coedge $-1 $332 $331 $500 $501 0 $206 $-1 #
coedge $-1 $498 $502 $331 $412 0 $284 $-1 #
edge $-1 $503 $417 $411 $402 0 #
coedge $-1 $443 $504 $332 $414 1 $155 $-1 #
edge $-1 $505 $416 $332 $429 0 #
coedge $-1 $497 $333 $504 $506 1 $330 $-1 #
vertex $-1 $414 $507 #
vertex $-1 $412 $508 #
straight-curve $-1 18.413411461026 7.80680974322788 0 -0 -0 -1 #
coedge $-1 $504 $335 $509 $510 0 $155 $-1 #
coedge $-1 $511 $512 $335 $421 1 $433 $-1 #
edge $-1 $423 $513 $335 $514 0 #
coedge $-1 $336 $362 $511 $515 1 $345 $-1 #
vertex $-1 $337 $516 #
ellipse-curve $-1 12.3743686707645 15.9099025766974 40 -0 -0 -1 -2.48689957516035e-14 5 0 1 #
coedge $-1 $338 $456 $517 $518 1 $155 $-1 #
coedge $-1 $387 $386 $338 $427 0 $388 $-1 #
edge $-1 $428 $519 $426 $520 0 #
vertex $-1 $340 $521 #
ellipse-curve $-1 0 0 40 0 0 1 20 0 0 1 #
point $-1 7.80680974322769 18.413411461026 40 #
point $-1 8.83883476483175 19.4454364826301 40 #
face $-1 $522 $523 $2 $-1 $524 reversed single #
loop $-1 $-1 $463 $344 #
plane-surface $-1 17.6776695296636 17.6776695296638 0 -0.707106781186544 -0.707106781186551 0 0 0 1 0 #
coedge $-1 $525 $347 $349 $442 0 $271 $-1 #
coedge $-1 $347 $525 $526 $527 0 $271 $-1 #
coedge $-1 $358 $350 $347 $438 0 $155 $-1 #
edge $-1 $445 $528 $437 $529 0 #
coedge $-1 $349 $348 $530 $531 1 $209 $-1 #
coedge $-1 $496 $532 $348 $441 0 $408 $-1 #
edge $-1 $533 $444 $440 $534 0 #
edge $-1 $445 $535 $435 $536 0 #
coedge $-1 $350 $413 $496 $537 0 $155 $-1 #
vertex $-1 $351 $538 #
vertex $-1 $351 $539 #
ellipse-curve $-1 15.9099025766973 -12.3743686707646 40 -0 -0 -1 5 8.88178419700125e-15 0 1 #
coedge $-1 $540 $476 $352 $448 0 $284 $-1 #
edge $-1 $454 $452 $447 $541 0 #
coedge $-1 $526 $353 $358 $458 1 $451 $-1 #
coedge $-1 $353 $526 $540 $542 1 $451 $-1 #
loop $-1 $-1 $449 $522 #
vertex $-1 $542 $543 #
straight-curve $-1 8.83883476483188 -19.44543648263 0 0 0 -1 #
vertex $-1 $477 $544 #
straight-curve $-1 7.80680974322782 -18.413411461026 0 -0 0 -1 #
coedge $-1 $425 $357 $471 $545 1 $155 $-1 #
edge $-1 $473 $360 $375 $429 0 #
edge $-1 $528 $359 $358 $546 0 #
point $-1 8.83883476483188 -19.44543648263 40 #
point $-1 7.80680974322782 -18.413411461026 40 #
coedge $-1 $488 $365 $395 $492 0 $284 $-1 #
coedge $-1 $366 $498 $547 $548 0 $284 $-1 #
coedge $-1 $512 $511 $366 $464 1 $433 $-1 #
edge $-1 $549 $465 $366 $550 0 #
vertex $-1 $367 $551 #
ellipse-curve $-1 12.3743686707645 15.9099025766974 -75 -0 -0 1 -2.48689957516035e-14 5 0 1 #
plane-surface $-1 0 0 -75 0 0 -1 -1 0 0 0 #
straight-curve $-1 -17.6776695296636 -17.6776695296638 75 -0.707106781186551 0.707106781186544 0 #
coedge $-1 $552 $376 $374 $470 1 $472 $-1 #
edge $-1 $483 $378 $374 $390 0 #
coedge $-1 $376 $552 $456 $545 0 $472 $-1 #
loop $-1 $-1 $376 $404 #
vertex $-1 $457 $553 #
straight-curve $-1 0 -20 0 -0 0 -1 #
point $-1 0 -20 75 #
coedge $-1 $447 $554 $379 $477 0 $284 $-1 #
edge $-1 $479 $454 $476 $402 0 #
coedge $-1 $382 $380 $554 $555 1 $325 $-1 #
vertex $-1 $555 $556 #
straight-curve $-1 0 -20 0 0 -0 1 #
coedge $-1 $517 $384 $387 $485 0 $396 $-1 #
coedge $-1 $384 $517 $552 $557 0 $396 $-1 #
vertex $-1 $385 $558 #
ellipse-curve $-1 0 0 75 0 0 1 50 0 0 1 #
edge $-1 $389 $519 $481 $559 0 #
point $-1 0 50 75 #
straight-curve $-1 0 20 0 0 0 1 #
coedge $-1 $554 $461 $393 $489 0 $284 $-1 #
edge $-1 $560 $490 $488 $561 0 #
vertex $-1 $489 $562 #
straight-curve $-1 0 -50 0 -0 -0 -1 #
edge $-1 $400 $560 $461 $561 0 #
cone-surface $-1 0 0 0 0 0 1 50 0 0 1 0 1 0 #
straight-curve $-1 0 0 -75 0 1 0 #
point $-1 0 50 -75 #
coedge $-1 $500 $440 $443 $537 1 $408 $-1 #
coedge $-1 $409 $415 $563 $564 0 $330 $-1 #
coedge $-1 $462 $411 $409 $499 0 $284 $-1 #
edge $-1 $417 $565 $498 $566 0 #
coedge $-1 $532 $496 $410 $501 1 $408 $-1 #
edge $-1 $503 $505 $410 $567 0 #
coedge $-1 $411 $530 $532 $568 0 $284 $-1 #
vertex $-1 $501 $569 #
coedge $-1 $413 $419 $415 $506 0 $155 $-1 #
vertex $-1 $501 $570 #
edge $-1 $571 $416 $504 $572 0 #
point $-1 18.413411461026 7.80680974322788 40 #
point $-1 18.413411461026 7.80680974322788 -75 #
coedge $-1 $573 $563 $419 $510 1 $523 $-1 #
edge $-1 $513 $571 $419 $574 0 #
coedge $-1 $463 $420 $422 $515 0 $433 $-1 #
coedge $-1 $420 $463 $573 $575 0 $433 $-1 #
vertex $-1 $421 $576 #
straight-curve $-1 25.1776695296637 10.1776695296638 40 0.707106781186551 -0.707106781186544 0 #
edge $-1 $423 $465 $511 $577 0 #
point $-1 15.9099025766972 19.4454364826302 40 #
coedge $-1 $482 $481 $425 $518 0 $396 $-1 #
edge $-1 $519 $578 $517 $579 0 #
vertex $-1 $518 $580 #
straight-curve $-1 0 0 40 0 1 0 #
point $-1 0 20 40 #
face $-1 $128 $451 $2 $-1 $581 reversed single #
loop $-1 $-1 $547 $432 #
cone-surface $-1 15.9099025766973 12.3743686707647 0 0 0 -1 5 2.44249065417534e-14 0 1 0 1 0 #
coedge $-1 $436 $435 $582 $583 1 $271 $-1 #
coedge $-1 $450 $449 $436 $527 1 $451 $-1 #
edge $-1 $584 $528 $436 $585 0 #
vertex $-1 $438 $586 #
straight-curve $-1 25.1776695296637 -10.1776695296637 40 -0.707106781186546 -0.707106781186549 0 #
coedge $-1 $502 $582 $439 $531 0 $284 $-1 #
edge $-1 $535 $533 $530 $587 0 #
coedge $-1 $440 $500 $502 $568 1 $408 $-1 #
vertex $-1 $531 $588 #
straight-curve $-1 19.4454364826301 -8.83883476483181 0 0 0 1 #
vertex $-1 $531 $589 #
straight-curve $-1 19.4454364826301 -15.9099025766973 0 0 0 -1 #
edge $-1 $505 $444 $443 $590 0 #
point $-1 19.4454364826301 -8.83883476483181 40 #
point $-1 19.4454364826301 -15.9099025766973 40 #
coedge $-1 $582 $447 $450 $542 0 $284 $-1 #
straight-curve $-1 -5.3033008588991 -5.30330085889912 -75 0.707106781186549 -0.707106781186546 0 #
edge $-1 $452 $584 $540 $591 0 #
point $-1 8.83883476483188 -19.44543648263 -75 #
point $-1 7.80680974322782 -18.413411461026 -75 #
edge $-1 $578 $473 $471 $520 0 #
ellipse-curve $-1 12.3743686707646 -15.9099025766973 40 -0 -0 -1 8.88178419700125e-15 -5 0 1 #
coedge $-1 $563 $573 $462 $548 1 $523 $-1 #
edge $-1 $565 $549 $462 $592 0 #
vertex $-1 $464 $593 #
straight-curve $-1 17.6776695296636 17.6776695296638 -75 -0.707106781186551 0.707106781186544 0 #
point $-1 15.9099025766972 19.4454364826302 -75 #
coedge $-1 $471 $469 $482 $557 1 $472 $-1 #
point $-1 0 -20 40 #
coedge $-1 $476 $488 $478 $555 0 $284 $-1 #
edge $-1 $490 $479 $554 $494 0 #
point $-1 0 -20 -75 #
edge $-1 $578 $483 $482 $594 0 #
point $-1 0 -50 75 #
straight-curve $-1 0 50 0 -0 -0 -1 #
vertex $-1 $492 $595 #
ellipse-curve $-1 0 0 -75 0 0 -1 50 0 0 1 #
point $-1 0 -50 -75 #
coedge $-1 $509 $547 $497 $564 1 $523 $-1 #
edge $-1 $571 $565 $497 $596 0 #
vertex $-1 $548 $597 #
straight-curve $-1 5.30330085889914 -5.30330085889908 -75 0.707106781186544 0.707106781186551 0 #
straight-curve $-1 18.413411461026 -7.80680974322776 0 0 -0 1 #
edge $-1 $533 $503 $502 $598 0 #
point $-1 18.413411461026 -7.80680974322776 -75 #
point $-1 18.413411461026 -7.80680974322776 40 #
vertex $-1 $510 $599 #
straight-curve $-1 12.8033008588991 2.19669914110092 40 -0.707106781186544 -0.707106781186551 0 #
coedge $-1 $547 $509 $512 $575 1 $523 $-1 #
ellipse-curve $-1 15.9099025766973 12.3743686707647 40 -0 -0 -1 5 2.44249065417534e-14 0 1 #
edge $-1 $549 $513 $512 $600 0 #
point $-1 19.44543648263 15.9099025766974 40 #
straight-curve $-1 15.9099025766972 19.4454364826302 0 0 0 -1 #
vertex $-1 $518 $601 #
ellipse-curve $-1 0 0 40 -0 -0 -1 50 0 0 1 #
point $-1 0 50 40 #
cone-surface $-1 12.3743686707646 -15.9099025766973 0 0 -0 -1 8.88178419700125e-15 -5 0 1 0 1 0 #
coedge $-1 $530 $540 $525 $583 0 $284 $-1 #
edge $-1 $584 $535 $582 $602 0 #
vertex $-1 $583 $603 #
straight-curve $-1 15.9099025766974 -19.44543648263 0 0 0 1 #
point $-1 15.9099025766974 -19.44543648263 40 #
ellipse-curve $-1 15.9099025766973 -12.3743686707646 -75 -0 -0 1 5 8.88178419700125e-15 0 1 #
point $-1 19.4454364826301 -8.83883476483181 -75 #
point $-1 19.4454364826301 -15.9099025766973 -75 #
straight-curve $-1 12.8033008588991 -2.19669914110088 40 0.707106781186549 -0.707106781186546 0 #
ellipse-curve $-1 12.3743686707646 -15.9099025766973 -75 -0 -0 1 8.88178419700125e-15 -5 0 1 #
ellipse-curve $-1 15.9099025766973 12.3743686707647 -75 -0 -0 1 5 2.44249065417534e-14 0 1 #
point $-1 19.44543648263 15.9099025766974 -75 #
straight-curve $-1 0 -50 0 0 0 1 #
point $-1 50 0 -75 #
straight-curve $-1 19.44543648263 8.83883476483195 0 0 0 -1 #
point $-1 19.44543648263 8.83883476483195 -75 #
straight-curve $-1 5.3033008588991 5.30330085889912 -75 -0.707106781186549 0.707106781186546 0 #
point $-1 19.44543648263 8.83883476483195 40 #
straight-curve $-1 19.44543648263 15.9099025766974 0 0 0 1 #
point $-1 0 -50 40 #
straight-curve $-1 17.6776695296637 -17.6776695296637 -75 0.707106781186546 0.707106781186549 0 #
point $-1 15.9099025766974 -19.44543648263 -75 #
