600 0 2 0           
24 FBMach with ACIS - 6.0.3 13 ACIS 6.0.3 NT 24 Tue May 22 15:47:07 2001 
1 9.9999999999999995e-007 1e-010 
body $2 $3 $-1 $4 #
bdycol-kcp $-1 1 3 $5 $6 $7 #
model_id-kcp-attrib $-1 $8 $-1 $0 1 990560826 50 2083651585 1 #
lump $-1 $-1 $9 $0 #
transform $-1 1.0000000000000002 -3.5437110976725151e-032 0 -3.5437110976725145e-032 1 0 0 0 1.0000000000000002 3 4.9999999999999991 2 1 rotate no_reflect no_shear #
body $10 $11 $-1 $12 #
body $13 $14 $-1 $15 #
body $16 $17 $-1 $18 #
named_string_attribute-named_attribute-st-attrib $-1 $19 $2 $0 4 name 8 sigman96 #
shell $-1 $-1 $-1 $20 $-1 $3 #
model_id-kcp-attrib $-1 $-1 $-1 $5 1 990560826 60 2084306946 1 #
lump $-1 $-1 $21 $5 #
transform $-1 1 0 0 0 1 0 0 0 1 3.0000000000000018 5 1.9999999999999998 1 no_rotate no_reflect no_shear #
rgb_color-st-attrib $-1 $22 $-1 $6 0.5 1 1 #
lump $-1 $23 $24 $6 #
transform $-1 1 0 0 0 1 0 0 0 1 3.0000000000000018 5 1.9999999999999998 1 no_rotate no_reflect no_shear #
model_id-kcp-attrib $-1 $25 $-1 $7 1 990560826 711 2093416452 1 #
lump $-1 $-1 $26 $7 #
transform $-1 1 0 0 0 1 0 0 0 1 3.0000000000000018 5 1.9999999999999998 1 no_rotate no_reflect no_shear #
rgb_color-st-attrib $-1 $-1 $8 $0 0 1 0 #
face $27 $28 $29 $9 $-1 $30 forward single #
shell $-1 $-1 $-1 $31 $-1 $11 #
model_id-kcp-attrib $-1 $-1 $13 $6 1 990560826 480 2095054851 1 #
lump $-1 $-1 $32 $6 #
shell $-1 $-1 $-1 $33 $-1 $14 #
rgb_color-st-attrib $-1 $-1 $16 $7 1 0 0 #
shell $-1 $-1 $-1 $34 $-1 $17 #
model_id-kcp-attrib $-1 $-1 $-1 $20 1 990560826 50 2083651585 2 #
face $35 $36 $37 $9 $-1 $38 reversed single #
loop $-1 $-1 $39 $20 #
cone-surface $-1 0 1 -1 -1 0 0 0 0.70710678118654746 0.70710678118654746 1 I I 0 -1 0.99999999999999989 forward I I I I #
face $40 $41 $42 $21 $-1 $43 forward single #
shell $-1 $-1 $-1 $44 $-1 $23 #
face $-1 $45 $46 $24 $-1 $47 reversed single #
face $-1 $48 $49 $26 $-1 $50 forward single #
model_id-kcp-attrib $-1 $-1 $-1 $28 1 990560826 50 2083651585 3 #
face $51 $52 $53 $9 $-1 $54 forward single #
loop $-1 $-1 $55 $28 #
plane-surface $-1 0 0 0 0 0 1 1 0 0 forward_v I I I I #
coedge $-1 $56 $57 $58 $59 forward $29 $-1 #
model_id-kcp-attrib $-1 $-1 $-1 $31 1 990560826 60 2084306946 6 #
face $60 $61 $62 $21 $-1 $63 reversed single #
loop $-1 $-1 $64 $31 #
plane-surface $-1 0 0 2 0 0 1 1 0 0 forward_v I I I I #
face $-1 $65 $66 $32 $-1 $67 reversed single #
face $-1 $68 $69 $24 $-1 $70 reversed single #
loop $-1 $-1 $71 $33 #
plane-surface $-1 1.7581988897471614 -5.0000000000000009 -0.99999999999999978 0.96824583655185437 3.4311835162640137e-032 -0.24999999999999953 -3.5437110976725145e-032 1 0 forward_v I I I I #
face $-1 $72 $73 $26 $-1 $74 forward single #
loop $-1 $-1 $75 $34 #
plane-surface $-1 -1.7581988897471632 2 -0.99999999999999978 -1 -3.5437110976725145e-032 0 0 0 1 forward_v I I I I #
model_id-kcp-attrib $-1 $-1 $-1 $36 1 990560826 50 2083651585 4 #
face $76 $77 $78 $9 $-1 $79 forward single #
loop $-1 $-1 $80 $36 #
cone-surface $-1 0 -1 -1 1 0 0 0 -0.70710678118654746 0.70710678118654746 1 I I 0 -1 0.99999999999999989 forward I I I I #
coedge $-1 $81 $82 $83 $84 reversed $37 $-1 #
coedge $-1 $83 $39 $85 $86 reversed $29 $-1 #
coedge $-1 $39 $83 $87 $88 reversed $29 $-1 #
coedge $-1 $89 $90 $39 $59 reversed $78 $-1 #
edge $-1 $91 -1.7581988897471612 $92 1.7581988897471632 $58 $93 forward 7 unknown #
model_id-kcp-attrib $-1 $94 $-1 $41 1 990560826 60 2084306946 3 #
face $95 $96 $97 $21 $-1 $98 reversed single #
loop $-1 $-1 $99 $41 #
plane-surface $-1 0 0 -2 0 0 1 1 0 0 forward_v I I I I #
coedge $-1 $100 $101 $102 $103 forward $42 $-1 #
face $-1 $104 $105 $32 $-1 $106 reversed single #
loop $-1 $-1 $107 $44 #
plane-surface $-1 -2.5327955589886466 0 0 1 0 0 0 0 -1 forward_v I I I I #
face $-1 $108 $109 $24 $-1 $110 reversed single #
loop $-1 $-1 $111 $45 #
plane-surface $-1 0 5 0 0 -1 0 0 0 -1 forward_v I I I I #
coedge $-1 $112 $113 $111 $114 reversed $46 $-1 #
face $-1 $115 $116 $26 $-1 $117 reversed single #
loop $-1 $-1 $118 $48 #
plane-surface $-1 1.758198889747161 -2 -0.99999999999999978 1 3.5437110976725145e-032 0 0 0 -1 forward_v I I I I #
coedge $-1 $119 $120 $121 $122 forward $49 $-1 #
model_id-kcp-attrib $-1 $-1 $-1 $52 1 990560826 50 2083651585 5 #
face $123 $124 $125 $9 $-1 $126 forward single #
loop $-1 $-1 $58 $52 #
plane-surface $-1 0 2 -1 0 -1 0 0 0 -1 forward_v I I I I #
coedge $-1 $127 $128 $129 $130 forward $53 $-1 #
coedge $-1 $131 $55 $132 $133 reversed $37 $-1 #
coedge $-1 $55 $131 $134 $135 reversed $37 $-1 #
coedge $-1 $57 $56 $55 $84 forward $29 $-1 #
edge $-1 $136 -2.0163977794943242 $137 2.016397779494322 $55 $138 forward 7 unknown #
coedge $-1 $139 $132 $56 $86 forward $140 $-1 #
edge $141 $136 -1.1102230246251568e-016 $92 1.5707963267948963 $85 $142 forward 7 unknown #
coedge $-1 $134 $143 $57 $88 forward $144 $-1 #
edge $145 $91 -1.5707963267948966 $137 1.1102230246251565e-016 $87 $146 forward 7 unknown #
coedge $-1 $147 $58 $143 $148 reversed $78 $-1 #
coedge $-1 $58 $147 $139 $149 reversed $78 $-1 #
vertex $-1 $88 $150 #
vertex $-1 $149 $151 #
straight-curve $-1 0 2 -1 1 0 0 F -5.1163977794943225 F 5.1163977794943243 #
model_id-kcp-attrib $-1 $-1 $60 $41 1 990560826 60 2084306946 2 #
model_id-kcp-attrib $-1 $-1 $-1 $61 1 990560826 60 2084306946 4 #
face $-1 $152 $153 $21 $-1 $154 reversed single #
loop $-1 $-1 $155 $61 #
plane-surface $-1 0 -5 0 0 1 0 0 0 1 forward_v I I I I #
coedge $-1 $156 $157 $158 $159 forward $62 $-1 #
coedge $-1 $160 $64 $161 $162 forward $42 $-1 #
coedge $-1 $64 $160 $163 $164 forward $42 $-1 #
coedge $-1 $165 $166 $64 $103 reversed $167 $-1 #
edge $-1 $168 -5 $169 5 $102 $170 forward 7 unknown #
face $-1 $171 $172 $32 $-1 $70 reversed single #
loop $-1 $-1 $173 $65 #
plane-surface $-1 0 -5 0 0 1 0 0 0 1 forward_v I I I I #
coedge $-1 $174 $175 $176 $177 forward $66 $-1 #
face $-1 $178 $179 $24 $-1 $106 reversed single #
loop $-1 $-1 $180 $68 #
plane-surface $-1 0 0 -2 0 0 1 1 0 0 forward_v I I I I #
coedge $-1 $181 $182 $71 $114 forward $69 $-1 #
coedge $-1 $183 $71 $180 $184 reversed $46 $-1 #
coedge $-1 $71 $183 $185 $186 forward $46 $-1 #
edge $-1 $187 -1.2971436160461769 $188 2.8340386199084016 $111 $189 forward 7 unknown #
face $-1 $190 $191 $26 $-1 $192 forward single #
loop $-1 $-1 $193 $72 #
plane-surface $-1 -4.4408920985006262e-016 0 0 0 0 -1 1 0 0 forward_v I I I I #
coedge $-1 $194 $195 $196 $197 forward $73 $-1 #
coedge $-1 $198 $75 $199 $200 forward $49 $-1 #
coedge $-1 $75 $198 $193 $201 forward $49 $-1 #
coedge $-1 $202 $203 $75 $122 reversed $204 $-1 #
edge $-1 $205 -0.78539816339744828 $206 0.78539816339744828 $121 $207 forward 7 unknown #
model_id-kcp-attrib $-1 $-1 $-1 $77 1 990560826 50 2083651585 6 #
face $208 $209 $140 $9 $-1 $210 forward single #
loop $-1 $-1 $129 $77 #
plane-surface $-1 0 -2 -1 0 1 0 0 0 1 forward_v I I I I #
coedge $-1 $211 $80 $212 $213 reversed $53 $-1 #
coedge $-1 $80 $211 $214 $215 reversed $53 $-1 #
coedge $-1 $216 $217 $80 $130 reversed $125 $-1 #
edge $-1 $218 -1.7581988897471628 $219 1.7581988897471612 $129 $220 forward 7 unknown #
coedge $-1 $82 $81 $211 $221 reversed $37 $-1 #
coedge $-1 $85 $214 $81 $133 forward $140 $-1 #
edge $222 $223 -1 $136 1 $132 $224 forward 7 unknown #
coedge $-1 $212 $87 $82 $135 forward $144 $-1 #
edge $225 $137 -1 $226 1 $134 $227 forward 7 unknown #
vertex $-1 $86 $228 #
vertex $-1 $135 $229 #
straight-curve $-1 0 1 0 -1 0 0 F -5.1163977794943243 F 5.1163977794943225 #
coedge $-1 $230 $85 $90 $149 forward $140 $-1 #
loop $-1 $-1 $231 $124 #
attrib_edge_convexity-kcp-attrib $-1 $232 $-1 $86 1 #
ellipse-curve $-1 1.7581988897471628 1 -1 -0.96824583655185426 1.1857591645209797e-016 0.25000000000000039 0.25819888974716154 1.1102230246251565e-016 0.99999999999999989 0.96824583655185426 I I #
coedge $-1 $87 $233 $89 $148 forward $144 $-1 #
loop $-1 $-1 $143 $234 #
attrib_edge_convexity-kcp-attrib $-1 $235 $-1 $88 1 #
ellipse-curve $-1 -1.7581988897471612 1 -1 0.96824583655185426 0 0.24999999999999994 -0.2581988897471611 1.1102230246251565e-016 0.99999999999999989 0.96824583655185426 I I #
coedge $-1 $90 $89 $236 $237 reversed $78 $-1 #
edge $238 $239 -1.7966229182759272 $91 -0.76382735928728285 $143 $240 forward 7 unknown #
edge $241 $92 0.7638273592872824 $242 1.796622918275927 $139 $243 forward 7 unknown #
point $-1 -1.7581988897471612 2 -1 #
point $-1 1.7581988897471632 2 -1 #
face $244 $245 $246 $21 $-1 $247 reversed single #
loop $-1 $-1 $248 $96 #
plane-surface $-1 -2.5327955589886466 0 0 1 0 0 0 0 -1 forward_v I I I I #
coedge $-1 $249 $163 $250 $251 forward $97 $-1 #
coedge $-1 $252 $99 $249 $253 forward $62 $-1 #
coedge $-1 $99 $252 $254 $255 forward $62 $-1 #
coedge $-1 $166 $165 $99 $159 reversed $167 $-1 #
edge $-1 $256 -5 $257 5 $158 $258 forward 7 unknown #
coedge $-1 $101 $100 $259 $260 forward $42 $-1 #
coedge $-1 $261 $262 $100 $162 reversed $246 $-1 #
edge $-1 $169 -2.5327955589886466 $263 2.5327955589886466 $161 $264 forward 7 unknown #
coedge $-1 $155 $265 $101 $164 reversed $97 $-1 #
edge $-1 $266 -2.5327955589886466 $168 2.5327955589886466 $163 $267 forward 7 unknown #
coedge $-1 $158 $102 $265 $268 forward $167 $-1 #
coedge $-1 $102 $158 $261 $269 reversed $167 $-1 #
loop $-1 $-1 $165 $245 #
vertex $-1 $103 $270 #
vertex $-1 $103 $271 #
straight-curve $-1 2.5327955589886466 0 2 0 1 0 I I #
face $-1 $272 $273 $32 $-1 $110 reversed single #
loop $-1 $-1 $274 $104 #
coedge $-1 $275 $276 $277 $278 forward $105 $-1 #
coedge $-1 $279 $107 $280 $281 reversed $66 $-1 #
coedge $-1 $107 $279 $282 $283 reversed $66 $-1 #
coedge $-1 $274 $284 $107 $177 reversed $172 $-1 #
edge $-1 $285 -2 $286 2 $176 $287 forward 7 unknown #
face $-1 $-1 $288 $24 $-1 $289 reversed single #
loop $-1 $-1 $290 $108 #
coedge $-1 $291 $292 $112 $184 forward $109 $-1 #
coedge $-1 $182 $111 $293 $294 forward $69 $-1 #
coedge $-1 $111 $181 $291 $295 reversed $69 $-1 #
coedge $-1 $113 $112 $290 $296 reversed $46 $-1 #
edge $-1 $297 -2.4999999999999996 $187 7.5 $180 $298 forward 7 unknown #
coedge $-1 $299 $293 $113 $186 reversed $288 $-1 #
edge $-1 $300 -5 $188 5 $185 $301 forward 7 unknown #
vertex $-1 $295 $302 #
vertex $-1 $186 $303 #
straight-curve $-1 1.8242859040115444 5.0000000000000009 -0.74404609435347213 0.24999999999999953 0 0.96824583655185437 I I #
face $-1 $304 $305 $26 $-1 $306 reversed single #
loop $-1 $-1 $307 $115 #
plane-surface $-1 1.7581988897471614 -5.0000000000000009 -0.99999999999999978 0.96824583655185437 3.4311835162640137e-032 -0.24999999999999953 -3.5437110976725145e-032 1 0 forward_v I I I I #
coedge $-1 $308 $309 $120 $201 reversed $116 $-1 #
coedge $-1 $310 $118 $311 $312 forward $73 $-1 #
coedge $-1 $118 $310 $307 $313 forward $73 $-1 #
coedge $-1 $203 $202 $118 $197 reversed $204 $-1 #
edge $-1 $314 -0.78539816339744828 $315 0.78539816339744828 $196 $316 forward 7 unknown #
coedge $-1 $120 $119 $317 $318 forward $49 $-1 #
coedge $-1 $319 $320 $119 $200 reversed $321 $-1 #
edge $-1 $206 -3.5000000000000004 $322 0.49999999999999956 $199 $323 forward 7 unknown #
edge $324 $325 -2 $205 2.3605857919534277e-047 $193 $326 forward 7 unknown #
coedge $-1 $196 $121 $309 $327 forward $204 $-1 #
coedge $-1 $121 $196 $328 $329 reversed $204 $-1 #
loop $-1 $-1 $121 $304 #
vertex $-1 $327 $330 #
vertex $-1 $200 $331 #
ellipse-curve $-1 -1.7581988897471632 1 -0.99999999999999978 -1 -3.5437110976725145e-032 0 0 0.70710678118654746 0.70710678118654746 1 I I #
model_id-kcp-attrib $-1 $-1 $-1 $124 1 990560826 50 2083651585 7 #
face $332 $234 $333 $9 $-1 $334 reversed single #
plane-surface $-1 2.2500000000000027 1.1857591645209797e-016 0.90473750965556299 0.96824583655185426 -1.1857591645209797e-016 -0.25000000000000039 0.25000000000000039 -3.0616169978683879e-017 0.96824583655185426 forward_v I I I I #
coedge $-1 $128 $127 $131 $221 forward $53 $-1 #
coedge $-1 $335 $134 $127 $213 forward $144 $-1 #
edge $336 $226 -1.1102230246251565e-016 $219 1.5707963267948966 $212 $337 forward 7 unknown #
coedge $-1 $132 $231 $128 $215 forward $140 $-1 #
edge $338 $218 -1.5707963267948966 $223 1.1102230246251563e-016 $214 $339 forward 7 unknown #
coedge $-1 $340 $129 $231 $341 reversed $125 $-1 #
coedge $-1 $129 $340 $335 $342 reversed $125 $-1 #
vertex $-1 $215 $343 #
vertex $-1 $342 $344 #
straight-curve $-1 0 -2 -1 -1 0 0 F -5.1163977794943243 F 5.1163977794943225 #
edge $-1 $226 -2.016397779494322 $223 2.0163977794943242 $131 $345 forward 7 unknown #
attrib_edge_convexity-kcp-attrib $-1 $346 $-1 $133 1 #
vertex $-1 $133 $347 #
straight-curve $-1 2.0163977794943242 -4.9876785516429094e-017 0 1.2246467991473532e-016 1 0 I I #
attrib_edge_convexity-kcp-attrib $-1 $348 $-1 $135 1 #
vertex $-1 $213 $349 #
straight-curve $-1 -2.016397779494322 0 0 0 -1 0 I I #
point $-1 2.0163977794943242 1 0 #
point $-1 -2.016397779494322 1 0 #
coedge $-1 $350 $139 $351 $352 reversed $140 $-1 #
coedge $-1 $214 $353 $216 $341 forward $140 $-1 #
convexity-sys-attrib $-1 $-1 $141 $86 #
coedge $-1 $143 $354 $355 $356 reversed $144 $-1 #
face $357 $358 $144 $9 $-1 $359 forward single #
convexity-sys-attrib $-1 $-1 $145 $88 #
coedge $-1 $355 $351 $147 $237 forward $333 $-1 #
edge $360 $242 -1.5000000000000018 $239 1.5000000000000002 $236 $361 forward 7 unknown #
attrib_edge_convexity-kcp-attrib $-1 $362 $-1 $148 1 #
vertex $-1 $356 $363 #
straight-curve $-1 -1.9491557295689819 2 -0.26042733952569114 -0.24999999999999994 0 0.96824583655185426 I I #
attrib_edge_convexity-kcp-attrib $-1 $364 $-1 $149 1 #
vertex $-1 $237 $365 #
straight-curve $-1 1.9491557295689841 2 -0.26042733952569175 -0.25000000000000039 0 -0.96824583655185426 I I #
model_id-kcp-attrib $-1 $-1 $-1 $152 1 990560826 60 2084306946 5 #
face $-1 $-1 $167 $21 $-1 $366 reversed single #
loop $-1 $-1 $261 $152 #
plane-surface $-1 0 5 0 0 -1 0 0 0 -1 forward_v I I I I #
coedge $-1 $367 $259 $262 $368 forward $153 $-1 #
coedge $-1 $265 $155 $156 $253 reversed $97 $-1 #
coedge $-1 $259 $367 $155 $251 reversed $153 $-1 #
edge $-1 $266 -2 $369 2 $250 $370 forward 7 unknown #
coedge $-1 $157 $156 $367 $371 forward $62 $-1 #
edge $-1 $257 -2.5327955589886466 $369 2.5327955589886466 $249 $372 forward 7 unknown #
coedge $-1 $262 $261 $157 $255 reversed $246 $-1 #
edge $-1 $373 -2.5327955589886466 $256 2.5327955589886466 $254 $374 forward 7 unknown #
vertex $-1 $159 $375 #
vertex $-1 $268 $376 #
straight-curve $-1 2.5327955589886466 0 -2 0 -1 0 I I #
coedge $-1 $248 $250 $160 $260 reversed $153 $-1 #
edge $-1 $263 -5 $266 5 $259 $377 forward 7 unknown #
coedge $-1 $254 $161 $166 $269 forward $246 $-1 #
coedge $-1 $161 $254 $248 $368 reversed $246 $-1 #
vertex $-1 $162 $378 #
straight-curve $-1 0 5 2 -1 0 0 I I #
coedge $-1 $163 $249 $165 $268 reversed $97 $-1 #
vertex $-1 $260 $379 #
straight-curve $-1 0 -5 2 1 0 0 I I #
edge $-1 $168 -2 $257 2 $165 $380 forward 7 unknown #
edge $-1 $169 -2 $256 2 $166 $381 forward 7 unknown #
point $-1 2.5327955589886466 -5 2 #
point $-1 2.5327955589886466 5 2 #
face $-1 $-1 $382 $32 $-1 $383 reversed single #
loop $-1 $-1 $384 $171 #
coedge $-1 $284 $176 $385 $386 forward $172 $-1 #
coedge $-1 $276 $173 $279 $387 forward $105 $-1 #
coedge $-1 $173 $275 $388 $389 reversed $105 $-1 #
coedge $-1 $390 $282 $173 $278 reversed $382 $-1 #
edge $-1 $391 -1.8135413955404995 $392 2.3176408404140796 $173 $393 forward 7 unknown #
coedge $-1 $175 $174 $275 $387 reversed $66 $-1 #
coedge $-1 $394 $388 $174 $281 forward $273 $-1 #
edge $-1 $395 -5 $286 5 $174 $396 forward 7 unknown #
coedge $-1 $277 $385 $175 $283 forward $382 $-1 #
edge $-1 $285 -5 $392 5 $175 $397 forward 7 unknown #
coedge $-1 $176 $274 $394 $398 reversed $172 $-1 #
vertex $-1 $386 $399 #
vertex $-1 $398 $400 #
straight-curve $-1 -2.5327955589886466 5 0 0 0 -1 I I #
loop $-1 $-1 $299 $178 #
plane-surface $-1 2.5327955589886466 0 0 -1 0 0 0 0 1 forward_v I I I I #
coedge $-1 $401 $402 $183 $296 forward $179 $-1 #
coedge $-1 $403 $180 $182 $295 forward $109 $-1 #
coedge $-1 $180 $403 $401 $404 forward $109 $-1 #
coedge $-1 $185 $405 $181 $294 reversed $288 $-1 #
edge $-1 $188 -2 $406 2 $293 $407 forward 7 unknown #
edge $-1 $187 1.5000000000000009 $406 2.5327955589886466 $182 $408 forward 7 unknown #
edge $-1 $300 -2.8340386199084016 $297 1.2971436160461769 $290 $409 forward 7 unknown #
vertex $-1 $296 $410 #
straight-curve $-1 1.5000000000000009 -2.5000000000000004 -2 -3.5437110976725145e-032 1 0 I I #
coedge $-1 $405 $185 $402 $411 forward $288 $-1 #
vertex $-1 $186 $412 #
straight-curve $-1 2.5327955589886466 0 2 0 1 0 I I #
point $-1 1.5000000000000009 5 -2 #
point $-1 2.5327955589886466 5 2 #
face $-1 $413 $204 $26 $-1 $414 reversed single #
loop $-1 $-1 $317 $190 #
cone-surface $-1 -1.7763568394002505e-015 -1 -0.99999999999999978 1 0 0 0 -0.70710678118654746 0.70710678118654746 1 I I 0 -1 0.99999999999999989 forward I I I I #
coedge $-1 $415 $416 $195 $313 reversed $191 $-1 #
coedge $-1 $311 $193 $417 $418 reversed $116 $-1 #
coedge $-1 $193 $311 $202 $327 reversed $116 $-1 #
coedge $-1 $195 $194 $419 $420 forward $73 $-1 #
coedge $-1 $309 $308 $194 $312 reversed $116 $-1 #
edge $421 $315 -2 $422 1.573723861302285e-047 $311 $423 forward 7 unknown #
edge $-1 $424 1.5000000000000004 $314 5.5 $307 $425 forward 7 unknown #
vertex $-1 $313 $426 #
vertex $-1 $312 $427 #
ellipse-curve $-1 1.758198889747161 1 -0.99999999999999978 1 3.5437110976725145e-032 0 0 0.70710678118654746 0.70710678118654746 1 I I #
coedge $-1 $428 $417 $198 $318 reversed $305 $-1 #
edge $-1 $322 -0.78539816339744828 $325 0.78539816339744828 $317 $429 forward 7 unknown #
coedge $-1 $430 $199 $431 $432 forward $321 $-1 #
coedge $-1 $199 $430 $433 $434 forward $321 $-1 #
loop $-1 $-1 $199 $435 #
vertex $-1 $434 $436 #
straight-curve $-1 -1.7581988897471632 -1.5000000000000004 -1.0000000000000027 3.5437110976725145e-032 -1 0 I I #
convexity-sys-attrib $-1 $-1 $-1 $201 #
vertex $-1 $318 $437 #
straight-curve $-1 -1.7581988897471632 1 0 -3.5437110976725145e-032 1 0 I I #
edge $438 $205 -1.7581988897471621 $315 1.7581988897471632 $309 $439 forward 7 unknown #
coedge $-1 $440 $431 $203 $329 forward $441 $-1 #
edge $442 $206 -1.7581988897471612 $314 1.7581988897471632 $328 $443 forward 7 unknown #
point $-1 -1.7581988897471639 1 0 #
point $-1 -1.758198889747163 2 -0.99999999999999978 #
model_id-kcp-attrib $-1 $-1 $-1 $209 1 990560826 50 2083651585 8 #
loop $-1 $-1 $236 $209 #
plane-surface $-1 0 0 -2 0 0 1 1 0 0 forward_v I I I I #
coedge $-1 $444 $212 $217 $342 forward $144 $-1 #
attrib_edge_convexity-kcp-attrib $-1 $445 $-1 $213 1 #
ellipse-curve $-1 -1.7581988897471612 -1 -1 0.96824583655185426 0 0.24999999999999994 -0.2581988897471611 -1.1102230246251565e-016 0.99999999999999989 0.96824583655185426 I I #
attrib_edge_convexity-kcp-attrib $-1 $446 $-1 $215 1 #
ellipse-curve $-1 1.7581988897471628 -1 -1 -0.96824583655185426 1.1857591645209797e-016 0.25000000000000039 0.25819888974716149 -1.1102230246251565e-016 0.99999999999999989 0.96824583655185426 I I #
coedge $-1 $217 $216 $447 $448 reversed $125 $-1 #
edge $449 $450 -1.7966229182759272 $218 -0.76382735928728251 $231 $451 forward 7 unknown #
edge $452 $219 0.76382735928728285 $453 1.7966229182759272 $335 $454 forward 7 unknown #
point $-1 1.7581988897471628 -2 -1 #
point $-1 -1.7581988897471612 -2 -1 #
straight-curve $-1 0 -1 0 1 0 0 F -5.1163977794943225 F 5.1163977794943243 #
convexity-sys-attrib $-1 $-1 $222 $133 #
point $-1 2.0163977794943242 -1 0 #
convexity-sys-attrib $-1 $-1 $225 $135 #
point $-1 -2.016397779494322 -1 0 #
coedge $-1 $455 $230 $456 $457 reversed $140 $-1 #
coedge $-1 $236 $458 $230 $352 forward $333 $-1 #
edge $459 $460 -5 $242 -2 $351 $461 forward 7 unknown #
coedge $-1 $231 $462 $463 $464 reversed $140 $-1 #
coedge $-1 $233 $465 $466 $467 reversed $144 $-1 #
coedge $-1 $458 $236 $233 $356 forward $333 $-1 #
edge $468 $239 2 $469 5 $355 $470 forward 7 unknown #
model_id-kcp-attrib $-1 $-1 $-1 $234 1 990560826 50 2083651585 9 #
face $471 $472 $473 $9 $-1 $334 reversed single #
plane-surface $-1 -2.25 0 0.90473750965556299 -0.96824583655185426 0 -0.24999999999999994 -0.24999999999999994 0 0.96824583655185426 forward_v I I I I #
attrib_edge_convexity-kcp-attrib $-1 $474 $-1 $237 1 #
straight-curve $-1 0 2 -2 -1 0 0 I I #
convexity-sys-attrib $-1 $-1 $238 $148 #
point $-1 -1.5000000000000002 2 -2 #
convexity-sys-attrib $-1 $-1 $241 $149 #
point $-1 1.5000000000000018 2 -2 #
plane-surface $-1 2.5327955589886466 0 0 -1 0 0 0 0 1 forward_v I I I I #
coedge $-1 $250 $248 $252 $371 reversed $153 $-1 #
edge $-1 $263 -2 $373 2 $262 $475 forward 7 unknown #
vertex $-1 $371 $476 #
straight-curve $-1 -2.5327955589886466 -5 0 0 0 -1 I I #
edge $-1 $369 -5 $373 5 $367 $477 forward 7 unknown #
straight-curve $-1 0 -5 -2 -1 0 0 I I #
vertex $-1 $255 $478 #
straight-curve $-1 0 5 -2 1 0 0 I I #
point $-1 2.5327955589886466 5 -2 #
point $-1 2.5327955589886466 -5 -2 #
straight-curve $-1 -2.5327955589886466 0 2 0 -1 0 I I #
point $-1 -2.5327955589886466 5 2 #
point $-1 -2.5327955589886466 -5 2 #
straight-curve $-1 2.5327955589886466 -5 0 0 0 -1 I I #
straight-curve $-1 2.5327955589886466 5 0 0 0 -1 I I #
loop $-1 $-1 $385 $272 #
plane-surface $-1 -2.0163977794943251 -5.0000000000000009 2.2204460492503131e-016 -0.96824583655185414 -3.4311835162640132e-032 -0.25 3.5437110976725145e-032 -1 0 forward_v I I I I #
coedge $-1 $388 $394 $390 $479 forward $273 $-1 #
coedge $-1 $282 $390 $274 $386 reversed $382 $-1 #
edge $-1 $285 -2.3176408404140796 $480 1.8135413955404995 $274 $481 forward 7 unknown #
edge $-1 $392 -2 $395 2 $279 $482 forward 7 unknown #
coedge $-1 $280 $384 $276 $389 forward $273 $-1 #
edge $-1 $391 1.5000000000000022 $395 2.5327955589886466 $276 $483 forward 7 unknown #
coedge $-1 $385 $277 $384 $479 reversed $382 $-1 #
vertex $-1 $389 $484 #
vertex $-1 $283 $485 #
straight-curve $-1 -1.9533853488851274 -5 -0.24404609435347288 -0.25000000000000006 0 0.96824583655185426 I I #
coedge $-1 $384 $280 $284 $398 forward $273 $-1 #
vertex $-1 $281 $486 #
straight-curve $-1 -2.5327955589886466 0 -2 0 1 0 I I #
straight-curve $-1 -2.5327955589886466 0 2 0 -1 0 I I #
edge $-1 $286 -2.5327955589886466 $480 -1.5000000000000022 $284 $408 forward 7 unknown #
point $-1 -2.5327955589886466 5 2 #
point $-1 -2.5327955589886466 5 -2 #
coedge $-1 $402 $290 $292 $404 reversed $179 $-1 #
coedge $-1 $290 $401 $299 $411 reversed $179 $-1 #
coedge $-1 $292 $291 $405 $487 forward $109 $-1 #
edge $-1 $488 -2.5327955589886466 $297 -1.5000000000000009 $401 $483 forward 7 unknown #
coedge $-1 $293 $299 $403 $487 reversed $288 $-1 #
vertex $-1 $487 $489 #
straight-curve $-1 2.5327955589886466 5 0 0 0 -1 I I #
straight-curve $-1 0 5 -2 1 0 0 I I #
straight-curve $-1 1.8242859040115444 -5 -0.74404609435347213 -0.24999999999999953 0 -0.96824583655185437 I I #
point $-1 1.5000000000000009 -5 -2 #
edge $-1 $300 -2 $488 2 $299 $490 forward 7 unknown #
point $-1 2.5327955589886466 -5 2 #
face $-1 $491 $441 $26 $-1 $492 reversed single #
cone-surface $-1 -1.7763568394002505e-015 1 -0.99999999999999978 -1 0 0 0 0.70710678118654746 0.70710678118654746 1 I I 0 -1 0.99999999999999989 forward I I I I #
coedge $-1 $493 $307 $494 $495 forward $191 $-1 #
coedge $-1 $307 $493 $440 $496 forward $191 $-1 #
coedge $-1 $317 $419 $308 $418 forward $305 $-1 #
edge $497 $422 -1.7581988897471632 $325 1.7581988897471621 $308 $498 forward 7 unknown #
coedge $-1 $417 $428 $310 $420 reversed $305 $-1 #
edge $-1 $422 -0.78539816339744828 $424 0.78539816339744828 $419 $499 forward 7 unknown #
convexity-sys-attrib $-1 $-1 $-1 $312 #
vertex $-1 $418 $500 #
straight-curve $-1 1.758198889747161 -1 0 3.5437110976725145e-032 -1 0 I I #
vertex $-1 $495 $501 #
straight-curve $-1 1.758198889747161 -3.5000000000000004 -1.0000000000000016 -3.5437110976725145e-032 1 0 I I #
point $-1 1.7581988897471614 2 -0.99999999999999978 #
point $-1 1.7581988897471614 1 0 #
coedge $-1 $419 $317 $502 $503 reversed $305 $-1 #
ellipse-curve $-1 -1.7581988897471632 -1 -0.99999999999999978 -1 -3.5437110976725145e-032 0 0 -0.70710678118654746 0.70710678118654746 1 I I #
coedge $-1 $320 $319 $504 $505 reversed $321 $-1 #
coedge $-1 $328 $506 $319 $432 reversed $441 $-1 #
edge $-1 $206 0.29662291827592724 $507 1.3294184772645716 $319 $508 forward 7 unknown #
coedge $-1 $509 $502 $320 $434 reversed $510 $-1 #
edge $-1 $511 -1.3294184772645716 $322 -0.29662291827592724 $320 $512 forward 7 unknown #
face $-1 $-1 $321 $26 $-1 $513 forward single #
point $-1 -1.758198889747163 -2 -0.99999999999999978 #
point $-1 -1.7581988897471639 -1 0 #
convexity-sys-attrib $-1 $-1 $-1 $327 #
straight-curve $-1 -1.7763568394002505e-015 1 0 1 0 0 I I #
coedge $-1 $506 $328 $416 $496 reversed $441 $-1 #
loop $-1 $-1 $328 $413 #
convexity-sys-attrib $-1 $-1 $-1 $329 #
straight-curve $-1 -1.7763568394002505e-015 2 -0.99999999999999978 1 0 0 F -5.1163977794943225 F 5.1163977794943243 #
coedge $-1 $514 $335 $515 $516 reversed $144 $-1 #
convexity-sys-attrib $-1 $-1 $336 $213 #
convexity-sys-attrib $-1 $-1 $338 $215 #
coedge $-1 $463 $515 $340 $448 forward $473 $-1 #
edge $-1 $453 -1.5000000000000002 $450 1.5000000000000009 $447 $517 forward 7 unknown #
attrib_edge_convexity-kcp-attrib $-1 $518 $-1 $341 1 #
vertex $-1 $464 $519 #
straight-curve $-1 1.9491557295689836 -2 -0.26042733952569164 0.25000000000000039 0 0.96824583655185426 I I #
attrib_edge_convexity-kcp-attrib $-1 $520 $-1 $342 1 #
vertex $-1 $342 $521 #
straight-curve $-1 -1.9491557295689819 -2 -0.26042733952569114 0.24999999999999994 0 -0.96824583655185426 I I #
coedge $-1 $462 $350 $522 $523 reversed $140 $-1 #
coedge $-1 $524 $525 $350 $457 forward $526 $-1 #
edge $527 $528 -1.8504363994027246 $460 2.280745836551854 $456 $529 forward 7 unknown #
coedge $-1 $351 $355 $524 $530 forward $333 $-1 #
attrib_edge_convexity-kcp-attrib $-1 $531 $-1 $352 1 #
vertex $-1 $352 $532 #
straight-curve $-1 1.5000000000000029 1.3363703258023049e-017 -2 -1.2246467991473532e-016 -1 0 I I #
coedge $-1 $353 $455 $533 $534 reversed $140 $-1 #
coedge $-1 $535 $447 $353 $464 forward $473 $-1 #
edge $536 $450 2 $537 5 $463 $461 forward 7 unknown #
coedge $-1 $354 $514 $538 $539 reversed $144 $-1 #
coedge $-1 $525 $524 $354 $467 forward $526 $-1 #
edge $540 $469 -2.2807458365518545 $541 1.8504363994027235 $466 $542 forward 7 unknown #
attrib_edge_convexity-kcp-attrib $-1 $543 $-1 $356 1 #
vertex $-1 $530 $544 #
straight-curve $-1 -1.4999999999999996 0 -2 0 1 0 I I #
model_id-kcp-attrib $-1 $-1 $-1 $358 1 990560826 50 2083651585 10 #
face $545 $546 $547 $9 $-1 $548 reversed single #
loop $-1 $-1 $447 $358 #
convexity-sys-attrib $-1 $-1 $360 $237 #
straight-curve $-1 -2.5327955589886466 5 0 0 0 -1 I I #
point $-1 -2.5327955589886466 -5 -2 #
straight-curve $-1 -2.5327955589886466 0 -2 0 1 0 I I #
point $-1 -2.5327955589886466 5 -2 #
edge $-1 $480 -7.5 $391 2.4999999999999996 $384 $549 forward 7 unknown #
vertex $-1 $386 $550 #
straight-curve $-1 -1.9533853488851274 5 -0.24404609435347288 0.25000000000000006 0 -0.96824583655185426 I I #
straight-curve $-1 -2.5327955589886466 -5 0 0 0 -1 I I #
straight-curve $-1 0 -5 -2 -1 0 0 I I #
point $-1 -1.5000000000000022 -5 -2.0000000000000009 #
point $-1 -2.5327955589886466 -5 2 #
point $-1 -2.5327955589886466 -5 -2 #
edge $-1 $406 -5 $488 5 $405 $551 forward 7 unknown #
vertex $-1 $411 $552 #
point $-1 2.5327955589886466 5 -2 #
straight-curve $-1 2.5327955589886466 -5 0 0 0 -1 I I #
face $-1 $553 $510 $26 $-1 $554 reversed single #
plane-surface $-1 -1.7763568394002505e-015 2 -0.99999999999999978 0 -1 0 0 0 -1 forward_v I I I I #
coedge $-1 $416 $415 $555 $556 reversed $191 $-1 #
coedge $-1 $502 $509 $415 $495 reversed $510 $-1 #
edge $-1 $424 -0.2197748612183949 $557 0.81302069777024988 $415 $558 forward 7 unknown #
edge $-1 $559 -0.81302069777024966 $314 0.21977486121839501 $416 $560 forward 7 unknown #
convexity-sys-attrib $-1 $-1 $-1 $418 #
straight-curve $-1 -1.7763568394002505e-015 -1 0 -1 0 0 I I #
ellipse-curve $-1 1.758198889747161 -1 -0.99999999999999978 1 3.5437110976725145e-032 0 0 -0.70710678118654746 0.70710678118654746 1 I I #
point $-1 1.7581988897471614 -1 0 #
point $-1 1.758198889747161 -2 -0.99999999999999978 #
coedge $-1 $433 $494 $428 $503 forward $510 $-1 #
edge $561 $424 -1.7581988897471628 $322 1.7581988897471612 $502 $562 forward 7 unknown #
coedge $-1 $563 $564 $430 $505 forward $565 $-1 #
edge $-1 $511 0.50000000000000044 $507 4.5 $504 $566 forward 7 unknown #
coedge $-1 $431 $440 $563 $567 reversed $441 $-1 #
vertex $-1 $567 $568 #
straight-curve $-1 -1.8323546193161457 2 -0.71279609435347258 0.25000000000000006 0 -0.96824583655185426 I I #
coedge $-1 $494 $433 $564 $569 reversed $510 $-1 #
loop $-1 $-1 $502 $491 #
vertex $-1 $505 $570 #
straight-curve $-1 -1.8323546193161457 -2 -0.71279609435347258 -0.25000000000000006 0 0.96824583655185426 I I #
plane-surface $-1 -2.0163977794943251 -5.0000000000000009 2.2204460492503131e-016 -0.96824583655185414 -3.4311835162640132e-032 -0.25 3.5437110976725145e-032 -1 0 forward_v I I I I #
coedge $-1 $465 $444 $571 $572 reversed $144 $-1 #
coedge $-1 $447 $535 $444 $516 forward $473 $-1 #
edge $573 $574 -5 $453 -2 $515 $470 forward 7 unknown #
straight-curve $-1 0 -2 -2 1 0 0 I I #
convexity-sys-attrib $-1 $-1 $449 $341 #
point $-1 1.5000000000000009 -2 -2 #
convexity-sys-attrib $-1 $-1 $452 $342 #
point $-1 -1.5000000000000002 -2 -2 #
coedge $-1 $575 $576 $455 $523 forward $577 $-1 #
edge $578 $579 -5 $528 5 $522 $580 forward 7 unknown #
coedge $-1 $466 $456 $458 $530 reversed $526 $-1 #
coedge $-1 $456 $466 $575 $581 reversed $526 $-1 #
loop $-1 $-1 $456 $546 #
attrib_edge_convexity-kcp-attrib $-1 $582 $-1 $457 1 #
vertex $-1 $581 $583 #
straight-curve $-1 2.0701864591379664 5 0.20832266047430806 -0.25000000000000039 0 -0.96824583655185426 I I #
edge $584 $469 -1.5 $460 1.500000000000002 $524 $585 forward 7 unknown #
convexity-sys-attrib $-1 $-1 $459 $352 #
point $-1 1.500000000000002 5 -2 #
coedge $-1 $586 $587 $462 $534 forward $547 $-1 #
edge $588 $537 -2.2807458365518545 $579 1.8504363994027244 $533 $589 forward 7 unknown #
coedge $-1 $515 $463 $587 $590 forward $473 $-1 #
attrib_edge_convexity-kcp-attrib $-1 $591 $-1 $464 1 #
vertex $-1 $590 $592 #
coedge $-1 $576 $575 $465 $539 forward $577 $-1 #
edge $593 $541 -5 $594 5 $538 $595 forward 7 unknown #
attrib_edge_convexity-kcp-attrib $-1 $596 $-1 $467 1 #
vertex $-1 $467 $597 #
straight-curve $-1 -2.0701864591379637 5 0.20832266047430886 -0.24999999999999994 0 0.96824583655185426 I I #
convexity-sys-attrib $-1 $-1 $468 $356 #
point $-1 -1.5 5 -2 #
model_id-kcp-attrib $-1 $598 $-1 $472 1 990560826 50 2083651585 14 #
face $599 $600 $526 $9 $-1 $601 reversed single #
loop $-1 $-1 $533 $472 #
plane-surface $-1 0 -5 0 0 1 0 0 0 1 forward_v I I I I #
straight-curve $-1 -1.5000000000000024 -2.5000000000000004 -2 3.5437110976725145e-032 -1 0 I I #
point $-1 -1.5000000000000022 4.9999999999999991 -2.0000000000000009 #
straight-curve $-1 2.5327955589886466 0 -2 0 -1 0 I I #
point $-1 2.5327955589886466 -5 -2 #
face $-1 $435 $565 $26 $-1 $602 reversed single #
plane-surface $-1 -1.7763568394002505e-015 -2 -0.99999999999999978 0 1 0 0 0 1 forward_v I I I I #
coedge $-1 $564 $563 $493 $556 forward $565 $-1 #
edge $-1 $559 -4.5 $557 -0.50000000000000044 $555 $603 forward 7 unknown #
vertex $-1 $495 $604 #
straight-curve $-1 1.7032551744425628 -2 -1.2127960943534724 -0.24999999999999953 0 -0.96824583655185437 I I #
vertex $-1 $556 $605 #
straight-curve $-1 1.7032551744425628 2 -1.2127960943534724 0.24999999999999953 0 0.96824583655185437 I I #
convexity-sys-attrib $-1 $-1 $-1 $503 #
straight-curve $-1 -1.7763568394002505e-015 -2 -0.99999999999999978 -1 0 0 F -5.1163977794943243 F 5.1163977794943225 #
coedge $-1 $555 $504 $506 $567 forward $565 $-1 #
coedge $-1 $504 $555 $509 $569 forward $565 $-1 #
loop $-1 $-1 $563 $553 #
straight-curve $-1 -1.5000000000000024 -2.5000000000000004 -2 -3.5437110976725145e-032 1 0 I I #
edge $-1 $507 -1.5000000000000011 $559 1.5000000000000009 $563 $606 forward 7 unknown #
point $-1 -1.500000000000002 2 -1.9999999999999998 #
edge $-1 $557 -1.5 $511 1.5000000000000011 $564 $607 forward 7 unknown #
point $-1 -1.500000000000002 -2 -1.9999999999999998 #
coedge $-1 $587 $586 $514 $572 forward $547 $-1 #
edge $608 $594 -1.8504363994027235 $574 2.2807458365518545 $571 $609 forward 7 unknown #
attrib_edge_convexity-kcp-attrib $-1 $610 $-1 $516 1 #
vertex $-1 $516 $611 #
coedge $-1 $538 $522 $525 $581 forward $577 $-1 #
coedge $-1 $522 $538 $586 $612 forward $577 $-1 #
loop $-1 $-1 $522 $600 #
attrib_edge_convexity-kcp-attrib $-1 $613 $-1 $523 1 #
vertex $-1 $534 $614 #
straight-curve $-1 2.5327955589886479 -1.1311727429088149e-016 2 1.2246467991473532e-016 1 0 I I #
edge $615 $528 -2.5327955589886479 $541 2.5327955589886444 $525 $616 forward 7 unknown #
convexity-sys-attrib $-1 $-1 $527 $457 #
point $-1 2.5327955589886479 5 2 #
model_id-kcp-attrib $-1 $617 $-1 $530 1 990560826 50 2083651585 16 #
straight-curve $-1 0 5 -2 1 0 0 I I #
coedge $-1 $571 $533 $576 $612 reversed $547 $-1 #
coedge $-1 $533 $571 $535 $590 reversed $547 $-1 #
attrib_edge_convexity-kcp-attrib $-1 $618 $-1 $534 1 #
straight-curve $-1 2.0701864591379651 -5 0.20832266047430834 0.25000000000000039 0 0.96824583655185426 I I #
edge $619 $537 -1.5000000000000007 $574 1.5 $587 $620 forward 7 unknown #
convexity-sys-attrib $-1 $-1 $536 $464 #
point $-1 1.5000000000000007 -5 -2 #
attrib_edge_convexity-kcp-attrib $-1 $621 $-1 $539 1 #
vertex $-1 $612 $622 #
straight-curve $-1 -2.5327955589886448 0 2 0 -1 0 I I #
convexity-sys-attrib $-1 $-1 $540 $467 #
point $-1 -2.5327955589886444 5 2 #
model_id-kcp-attrib $-1 $-1 $545 $472 1 990560826 50 2083651585 11 #
model_id-kcp-attrib $-1 $-1 $-1 $546 1 990560826 50 2083651585 12 #
face $623 $-1 $577 $9 $-1 $624 forward single #
plane-surface $-1 0 5 0 0 -1 0 0 0 -1 forward_v I I I I #
plane-surface $-1 0 0 -2 0 0 1 1 0 0 forward_v I I I I #
straight-curve $-1 1.5000000000000009 -2.5000000000000004 -2 3.5437110976725145e-032 -1 0 I I #
point $-1 1.4999999999999991 -2 -1.9999999999999998 #
point $-1 1.5 2 -1.9999999999999998 #
straight-curve $-1 -8.8817841970012523e-016 2 -2 1 0 0 I I #
straight-curve $-1 -8.8817841970012523e-016 -2 -2 -1 0 0 I I #
attrib_edge_convexity-kcp-attrib $-1 $625 $-1 $572 1 #
straight-curve $-1 -2.0701864591379637 -5 0.20832266047430886 0.24999999999999994 0 -0.96824583655185426 I I #
convexity-sys-attrib $-1 $-1 $573 $516 #
point $-1 -1.5 -5 -2 #
edge $626 $594 -2.5327955589886444 $579 2.5327955589886466 $586 $627 forward 7 unknown #
convexity-sys-attrib $-1 $-1 $578 $523 #
point $-1 2.5327955589886466 -5 2 #
model_id-kcp-attrib $-1 $-1 $-1 $581 1 990560826 50 2083651585 15 #
straight-curve $-1 0 5 2 -1 0 0 I I #
attrib_edge_convexity-kcp-attrib $-1 $628 $584 $530 1 #
convexity-sys-attrib $-1 $-1 $588 $534 #
attrib_edge_convexity-kcp-attrib $-1 $629 $-1 $590 1 #
straight-curve $-1 0 -5 -2 -1 0 0 I I #
convexity-sys-attrib $-1 $-1 $593 $539 #
point $-1 -2.5327955589886444 -5 2 #
model_id-kcp-attrib $-1 $-1 $-1 $600 1 990560826 50 2083651585 13 #
plane-surface $-1 0 0 2 0 0 1 1 0 0 forward_v I I I I #
convexity-sys-attrib $-1 $-1 $608 $572 #
attrib_edge_convexity-kcp-attrib $-1 $630 $-1 $612 1 #
straight-curve $-1 0 -5 2 1 0 0 I I #
convexity-sys-attrib $-1 $-1 $617 $530 #
convexity-sys-attrib $-1 $-1 $619 $590 #
convexity-sys-attrib $-1 $-1 $626 $612 #
End-of-ACIS-data 