600 0 1 0           
109 GICL ACIS Healer - Source: /gicl/data5/repository/Sandia/Randy_Wilson/discriminator/x5133-6/x5133-6.sat - 6 0 18 ACIS 6.0.3 Solaris 24 Sat Apr 13 23:37:06 2002 
1 9.999999999999999547e-07 1.000000000000000036e-10 
body $-1 $1 $-1 $2 #
lump $-1 $-1 $3 $0 #
transform $-1 1 0 0 0 1 0 0 0 1 0 0 0 1 no_rotate no_reflect no_shear #
shell $-1 $-1 $-1 $4 $-1 $1 #
face $5 $6 $7 $3 $-1 $8 forward single #
pid_name-sg-attrib $-1 $-1 $-1 $4 7 rwilson 784252905 1292 1 #
face $9 $10 $11 $3 $-1 $12 reversed single #
loop $-1 $-1 $13 $4 #
plane-surface $-1 -0.02479981372892500063 0.04909143753253329689 0 -0.8660254037844388186 -0.499999999999999889 0 0 0 1 forward_v I I I I #
pid_name-sg-attrib $-1 $-1 $-1 $6 7 rwilson 784252905 1293 1 #
face $14 $15 $16 $3 $-1 $17 forward single #
loop $-1 $-1 $18 $6 #
cone-surface $-1 0 0 0 0 0 1 0.05500000000000000028 0 0 1 I I 0 1 0.05500000000000000028 forward I I I I #
coedge $-1 $19 $20 $21 $22 reversed $7 $-1 #
pid_name-sg-attrib $-1 $-1 $-1 $10 7 rwilson 784252905 1294 1 #
face $23 $24 $25 $3 $-1 $26 reversed single #
loop $-1 $-1 $27 $10 #
plane-surface $-1 -0.02549999999999999836 0 0 0 1 0 0 0 1 forward_v I I I I #
coedge $-1 $28 $29 $30 $31 reversed $11 $-1 #
coedge $-1 $32 $13 $33 $34 forward $7 $-1 #
coedge $-1 $13 $32 $35 $36 forward $7 $-1 #
coedge $-1 $37 $38 $13 $22 forward $39 $-1 #
edge $-1 $40 -0.01000000000000000021 $41 -0 $13 $42 forward 7 unknown #
pid_name-sg-attrib $-1 $-1 $-1 $15 7 rwilson 784252905 1295 1 #
face $43 $44 $45 $3 $-1 $46 forward single #
loop $-1 $-1 $47 $15 #
cone-surface $-1 0 0 0 0 0 1 0.02549999999999999836 0 0 1 I I 0 1 0.02549999999999999836 forward I I I I #
coedge $-1 $48 $49 $50 $51 reversed $16 $-1 #
coedge $-1 $50 $18 $52 $53 forward $11 $-1 #
coedge $-1 $18 $50 $54 $55 forward $11 $-1 #
coedge $-1 $56 $57 $18 $31 forward $58 $-1 #
edge $-1 $59 -0.01000000000000000021 $60 -0 $18 $61 reversed 7 unknown #
coedge $-1 $20 $19 $62 $63 reversed $7 $-1 #
coedge $-1 $64 $65 $19 $34 reversed $66 $-1 #
edge $-1 $40 -0.002142458019883404681 $67 0.02250550778073120983 $33 $68 reversed 7 unknown #
coedge $-1 $69 $70 $20 $36 reversed $71 $-1 #
edge $-1 $72 -0.02250550778073120983 $41 0.002142458019883404681 $35 $73 forward 7 unknown #
coedge $-1 $74 $21 $70 $75 forward $39 $-1 #
coedge $-1 $21 $74 $64 $76 forward $39 $-1 #
loop $-1 $-1 $74 $77 #
vertex $-1 $22 $78 #
vertex $-1 $22 $79 #
straight-curve $-1 -0.01000000000000000541 0.02345740821147978758 0 -0 -0 -1 I I #
pid_name-sg-attrib $-1 $-1 $-1 $24 7 rwilson 784252905 1296 1 #
face $80 $81 $82 $3 $-1 $83 forward single #
loop $-1 $-1 $84 $24 #
plane-surface $-1 -0.03450504445443260126 -0.06995285488954419706 0 0.9659258262890682012 -0.2588190451025210725 0 0 0 -1 forward_v I I I I #
coedge $-1 $85 $86 $87 $88 reversed $25 $-1 #
coedge $-1 $87 $27 $89 $90 forward $16 $-1 #
coedge $-1 $27 $87 $91 $92 forward $16 $-1 #
coedge $-1 $29 $28 $27 $51 forward $11 $-1 #
edge $-1 $93 -0.01000000000000000021 $94 -0 $27 $95 reversed 7 unknown #
coedge $-1 $65 $89 $28 $53 reversed $66 $-1 #
edge $-1 $59 2.133035716014967775 $93 3.141592653589793116 $52 $96 forward 7 unknown #
coedge $-1 $91 $69 $29 $55 reversed $71 $-1 #
edge $-1 $94 -3.141592653589793116 $60 -2.133035716014967775 $54 $97 reversed 7 unknown #
coedge $-1 $62 $30 $69 $98 forward $58 $-1 #
coedge $-1 $30 $62 $65 $99 forward $58 $-1 #
loop $-1 $-1 $57 $100 #
vertex $-1 $31 $101 #
vertex $-1 $31 $102 #
straight-curve $-1 -0.02931952091115244685 0.04653349002106429988 0 0 0 1 I I #
coedge $-1 $57 $56 $32 $63 forward $58 $-1 #
edge $-1 $72 0 $67 0.01000000000000000021 $32 $103 forward 7 unknown #
coedge $-1 $104 $33 $38 $76 reversed $66 $-1 #
coedge $-1 $33 $52 $57 $99 reversed $66 $-1 #
loop $-1 $-1 $64 $105 #
vertex $-1 $63 $106 #
straight-curve $-1 -0.01107122900994170732 0.02531283128324052223 0.01000000000000000021 0.499999999999999889 -0.8660254037844388186 0 I I #
coedge $-1 $54 $35 $56 $98 reversed $71 $-1 #
coedge $-1 $35 $107 $37 $75 reversed $71 $-1 #
loop $-1 $-1 $69 $108 #
vertex $-1 $63 $109 #
straight-curve $-1 -0.01107122900994170732 0.02531283128324052223 0 0.499999999999999889 -0.8660254037844388186 0 I I #
coedge $-1 $38 $37 $110 $111 reversed $39 $-1 #
edge $-1 $41 -1.973771426064438339 $112 -1.167821227525355443 $70 $113 reversed 7 unknown #
edge $-1 $114 1.167821227525355443 $40 1.973771426064438339 $64 $115 forward 7 unknown #
face $116 $105 $39 $3 $-1 $117 reversed single #
point $-1 -0.01000000000000000541 0.02345740821147978758 0.01000000000000000021 #
point $-1 -0.01000000000000000541 0.02345740821147978758 0 #
pid_name-sg-attrib $-1 $-1 $-1 $44 7 rwilson 784252905 1297 1 #
face $118 $119 $120 $3 $-1 $121 forward single #
loop $-1 $-1 $122 $44 #
cone-surface $-1 -0.0376892974279020021 -0.06251813224490269938 0 0 0 -1 0.004829629131445340069 -0.001294095225512600011 0 1 I I 0 1 0.004999999999999997502 forward I I I I #
coedge $-1 $123 $124 $125 $126 reversed $45 $-1 #
coedge $-1 $125 $47 $127 $128 forward $25 $-1 #
coedge $-1 $47 $125 $129 $130 forward $25 $-1 #
coedge $-1 $49 $48 $47 $88 forward $16 $-1 #
edge $-1 $131 -0.01000000000000000021 $132 -0 $47 $133 forward 7 unknown #
coedge $-1 $52 $127 $48 $90 reversed $66 $-1 #
edge $-1 $93 -0.04225000000000000283 $131 -0.01274999999999999918 $89 $134 reversed 7 unknown #
coedge $-1 $129 $54 $49 $92 reversed $71 $-1 #
edge $-1 $132 0.01274999999999999918 $94 0.04225000000000000283 $91 $135 forward 7 unknown #
vertex $-1 $51 $136 #
vertex $-1 $51 $137 #
straight-curve $-1 -0.05500000000000000028 0 0 0 0 1 I I #
ellipse-curve $-1 0 0 0.01000000000000000021 0 0 1 0.05500000000000000028 0 0 1 I I #
ellipse-curve $-1 0 0 0 0 0 1 0.05500000000000000028 0 0 1 I I #
edge $-1 $60 -1.609436940416671735 $72 1.151964808265849644e-15 $69 $138 reversed 7 unknown #
edge $-1 $67 -1.151964808265849644e-15 $59 1.609436940416671735 $65 $139 forward 7 unknown #
face $140 $108 $58 $3 $-1 $141 reversed single #
point $-1 -0.02931952091115247808 0.0465334900210643207 0.01000000000000000021 #
point $-1 -0.02931952091115247808 0.0465334900210643207 0 #
straight-curve $-1 -0.02232398290030730703 0.04480317274642209302 0 0 0 1 I I #
coedge $-1 $142 $64 $143 $144 reversed $66 $-1 #
face $145 $100 $66 $3 $-1 $146 forward single #
point $-1 -0.02232398290030730703 0.04480317274642209302 0.01000000000000000021 #
coedge $-1 $70 $147 $148 $149 reversed $71 $-1 #
face $150 $-1 $71 $3 $-1 $151 reversed single #
point $-1 -0.02232398290030730703 0.04480317274642209302 0 #
coedge $-1 $148 $143 $74 $111 forward $152 $-1 #
edge $-1 $114 -0.01000000000000000021 $112 0 $74 $153 forward 7 unknown #
vertex $-1 $111 $154 #
ellipse-curve $-1 0 0 0 0 0 1 0.02549999999999999836 0 0 1 I I #
vertex $-1 $111 $155 #
ellipse-curve $-1 0 0 0.01000000000000000021 0 0 1 0.02549999999999999836 0 0 1 I I #
pid_name-sg-attrib $-1 $-1 $-1 $77 7 rwilson 784252905 1306 1 #
cone-surface $-1 0 0 0 0 0 1 0.02549999999999999836 0 0 1 I I 0 1 0.02549999999999999836 forward I I I I #
pid_name-sg-attrib $-1 $-1 $-1 $81 7 rwilson 784252905 1298 1 #
face $156 $157 $158 $3 $-1 $159 forward single #
loop $-1 $-1 $160 $81 #
cone-surface $-1 0 0 0 0 0 1 0.07799999999999999989 0 0 1 I I 0 1 0.07799999999999999989 forward I I I I #
coedge $-1 $161 $162 $163 $164 forward $82 $-1 #
coedge $-1 $165 $84 $166 $167 forward $45 $-1 #
coedge $-1 $84 $165 $168 $169 forward $45 $-1 #
coedge $-1 $86 $85 $84 $126 forward $25 $-1 #
edge $-1 $170 -0.01000000000000000021 $171 -0 $84 $172 forward 7 unknown #
coedge $-1 $89 $166 $85 $128 reversed $66 $-1 #
edge $-1 $131 -3.141592653589793116 $170 -2.472385434728006537 $127 $173 forward 7 unknown #
coedge $-1 $168 $91 $86 $130 reversed $71 $-1 #
edge $-1 $171 2.472385434728006537 $132 3.141592653589793116 $129 $174 reversed 7 unknown #
vertex $-1 $88 $175 #
vertex $-1 $88 $176 #
straight-curve $-1 -0.02549999999999999836 0 0 -0 -0 -1 I I #
straight-curve $-1 -0.01274999999999999918 0 0.01000000000000000021 -1 0 0 I I #
straight-curve $-1 -0.01274999999999999918 0 0 -1 0 0 I I #
point $-1 -0.05500000000000000028 0 0.01000000000000000021 #
point $-1 -0.05500000000000000028 0 0 #
ellipse-curve $-1 -0.02665410991922950029 0.04230317274642209774 0 0 0 1 0.004330127018922189791 0.002500000000000000052 0 1 I I #
ellipse-curve $-1 -0.02665410991922950029 0.04230317274642209774 0.01000000000000000021 0 0 1 0.004330127018922189791 0.002500000000000000052 0 1 I I #
pid_name-sg-attrib $-1 $-1 $-1 $100 7 rwilson 784252905 1308 1 #
cone-surface $-1 -0.02665410991922950029 0.04230317274642209774 0 0 0 1 0.004330127018922189791 0.002500000000000000052 0 1 I I 0 1 0.004999999999999997502 forward I I I I #
coedge $-1 $177 $104 $178 $179 reversed $66 $-1 #
coedge $-1 $110 $180 $104 $144 forward $152 $-1 #
edge $-1 $181 -0.0373053215096562224 $114 -0.01265735570904160008 $104 $182 reversed 7 unknown #
pid_name-sg-attrib $-1 $-1 $-1 $105 7 rwilson 784252905 1307 1 #
plane-surface $-1 0 0 0.01000000000000000021 0 0 1 1 0 0 forward_v I I I I #
coedge $-1 $107 $183 $184 $185 reversed $71 $-1 #
coedge $-1 $180 $110 $107 $149 forward $152 $-1 #
edge $-1 $112 0.01265735570904160008 $186 0.0373053215096562224 $107 $187 forward 7 unknown #
pid_name-sg-attrib $-1 $-1 $-1 $108 7 rwilson 784252905 1309 1 #
plane-surface $-1 0 0 0 0 0 1 1 0 0 forward_v I I I I #
loop $-1 $-1 $180 $188 #
straight-curve $-1 0.009999999999999998473 0.02345740821147979799 0 -0 -0 -1 I I #
point $-1 0.009999999999999996739 0.02345740821147980146 0 #
point $-1 0.009999999999999996739 0.02345740821147980146 0.01000000000000000021 #
pid_name-sg-attrib $-1 $-1 $-1 $119 7 rwilson 784252905 1299 1 #
face $189 $190 $191 $3 $-1 $192 forward single #
loop $-1 $-1 $193 $119 #
cone-surface $-1 0.0376892974279020021 -0.06251813224490269938 0 0 0 -1 0.002581458727938467333 -0.004282063852390606898 0 1 I I 0 1 0.005000000000000001839 forward I I I I #
coedge $-1 $194 $195 $161 $196 reversed $120 $-1 #
coedge $-1 $197 $122 $160 $196 forward $82 $-1 #
coedge $-1 $122 $197 $165 $198 forward $82 $-1 #
coedge $-1 $166 $199 $122 $164 reversed $66 $-1 #
edge $-1 $200 3.726944967918880077e-16 $201 1.851512224940866647 $163 $202 reversed 7 unknown #
coedge $-1 $124 $123 $162 $198 reversed $45 $-1 #
coedge $-1 $127 $163 $123 $167 reversed $66 $-1 #
edge $-1 $170 -0.01779327229134076288 $200 0.03189267060889210137 $166 $203 reversed 7 unknown #
coedge $-1 $204 $129 $124 $169 reversed $71 $-1 #
edge $-1 $205 -0.03189267060889210137 $171 0.01779327229134076288 $168 $206 forward 7 unknown #
vertex $-1 $126 $207 #
vertex $-1 $126 $208 #
straight-curve $-1 -0.01999999999999995184 -0.01581929201955642808 0 -0 -0 -1 I I #
ellipse-curve $-1 0 0 0.01000000000000000021 0 0 1 0.02549999999999999836 0 0 1 I I #
ellipse-curve $-1 0 0 0 0 0 1 0.02549999999999999836 0 0 1 I I #
point $-1 -0.02549999999999999836 3.122849337825750312e-18 0.01000000000000000021 #
point $-1 -0.02549999999999999836 3.122849337825750312e-18 0 #
coedge $-1 $209 $142 $210 $211 reversed $66 $-1 #
coedge $-1 $212 $213 $142 $179 forward $214 $-1 #
edge $-1 $215 1.016439536705157251e-15 $181 1.609436940416667516 $142 $216 forward 7 unknown #
coedge $-1 $143 $148 $212 $217 reversed $152 $-1 #
vertex $-1 $217 $218 #
straight-curve $-1 0.003671322145479201902 0.01249581662271377798 0.01000000000000000021 0.499999999999999889 0.8660254037844388186 -0 I I #
coedge $-1 $147 $219 $220 $221 reversed $71 $-1 #
coedge $-1 $213 $212 $147 $185 forward $214 $-1 #
edge $-1 $186 -1.609436940416667516 $222 -1.016439536705157251e-15 $147 $223 reversed 7 unknown #
vertex $-1 $217 $224 #
straight-curve $-1 0.003671322145479201902 0.01249581662271377798 0 0.499999999999999889 0.8660254037844388186 -0 I I #
face $225 $77 $152 $3 $-1 $226 forward single #
pid_name-sg-attrib $-1 $-1 $-1 $157 7 rwilson 784252905 1300 1 #
face $227 $228 $229 $3 $-1 $230 reversed single #
loop $-1 $-1 $231 $157 #
plane-surface $-1 0.02000000000000000042 -0.01581929201955640032 0 -0.9659258262890685343 -0.2588190451025199068 0 0 0 1 forward_v I I I I #
coedge $-1 $232 $233 $234 $235 forward $158 $-1 #
coedge $-1 $236 $160 $199 $237 forward $120 $-1 #
coedge $-1 $160 $236 $238 $239 forward $120 $-1 #
edge $-1 $201 -0.01000000000000000021 $240 -0 $160 $241 reversed 7 unknown #
coedge $-1 $162 $161 $204 $242 forward $82 $-1 #
edge $-1 $205 -0 $200 0.01000000000000000021 $165 $243 reversed 7 unknown #
coedge $-1 $163 $234 $194 $237 reversed $66 $-1 #
vertex $-1 $198 $244 #
vertex $-1 $196 $245 #
ellipse-curve $-1 -0.0376892974279020021 -0.06251813224490269938 0.01000000000000000021 0 0 1 0.004829629131445340069 -0.001294095225512600011 0 1 I I #
straight-curve $-1 -0.02460523774369391403 -0.03300627325995613565 0.01000000000000000021 0.2588190451025210725 0.9659258262890682012 -0 I I #
coedge $-1 $238 $168 $197 $242 reversed $71 $-1 #
vertex $-1 $198 $246 #
straight-curve $-1 -0.02460523774369391403 -0.03300627325995613565 0 0.2588190451025210725 0.9659258262890682012 -0 I I #
point $-1 -0.01999999999999995184 -0.01581929201955642808 0.01000000000000000021 #
point $-1 -0.01999999999999995184 -0.01581929201955642808 0 #
coedge $-1 $247 $177 $248 $249 reversed $66 $-1 #
coedge $-1 $250 $251 $177 $211 forward $252 $-1 #
edge $-1 $253 0 $215 1.008556937574825785 $177 $254 forward 7 unknown #
coedge $-1 $184 $178 $180 $217 forward $214 $-1 #
coedge $-1 $178 $184 $250 $255 forward $214 $-1 #
loop $-1 $-1 $178 $256 #
vertex $-1 $255 $257 #
ellipse-curve $-1 0.02665410991922950029 0.04230317274642209774 0.01000000000000000021 0 0 1 0.002665410991922949595 0.00423031727464220908 0 1 I I #
edge $-1 $181 -0.01000000000000000021 $186 -0 $180 $258 reversed 7 unknown #
point $-1 0.02232398290030730356 0.0448031727464221069 0.01000000000000000021 #
coedge $-1 $183 $259 $260 $261 reversed $71 $-1 #
coedge $-1 $251 $250 $183 $221 forward $252 $-1 #
edge $-1 $222 -1.008556937574825785 $262 -0 $183 $263 reversed 7 unknown #
vertex $-1 $255 $264 #
ellipse-curve $-1 0.02665410991922950029 0.04230317274642209774 0 0 0 1 0.002665410991922949595 0.00423031727464220908 0 1 I I #
point $-1 0.02232398290030730356 0.0448031727464221069 0 #
pid_name-sg-attrib $-1 $-1 $-1 $188 7 rwilson 784252905 1305 1 #
plane-surface $-1 0.01000000000000000021 0.02345740821147980146 0 0.8660254037844388186 -0.499999999999999889 0 0 0 -1 forward_v I I I I #
pid_name-sg-attrib $-1 $-1 $-1 $190 7 rwilson 784252905 1301 1 #
face $265 $266 $267 $3 $-1 $268 forward single #
loop $-1 $-1 $269 $190 #
cone-surface $-1 0 0 0 0 0 1 0.02549999999999999836 0 0 1 I I 0 1 0.02549999999999999836 forward I I I I #
coedge $-1 $270 $271 $232 $272 reversed $191 $-1 #
coedge $-1 $273 $193 $231 $272 forward $158 $-1 #
coedge $-1 $193 $273 $236 $274 forward $158 $-1 #
coedge $-1 $199 $275 $193 $235 reversed $66 $-1 #
edge $-1 $276 -5.556536133988235468e-15 $277 1.851512224940863316 $234 $278 reversed 7 unknown #
coedge $-1 $195 $194 $233 $274 reversed $120 $-1 #
edge $-1 $201 -4.169873694439568013 $276 1.028281040849775341 $199 $279 reversed 7 unknown #
coedge $-1 $280 $204 $195 $239 reversed $71 $-1 #
edge $-1 $281 -1.028281040849775341 $240 4.169873694439568013 $238 $282 forward 7 unknown #
vertex $-1 $196 $283 #
straight-curve $-1 -0.04027075615584049112 -0.06680019609729329066 0 0 0 1 I I #
edge $-1 $240 -1.851512224940866647 $205 -3.726944967918880077e-16 $204 $284 forward 7 unknown #
straight-curve $-1 -0.03285966829645660392 -0.06381222747041531695 0 0 0 -1 I I #
point $-1 -0.03285966829645660392 -0.06381222747041531695 0.01000000000000000021 #
point $-1 -0.04027075615584047724 -0.06680019609729329066 0.01000000000000000021 #
point $-1 -0.03285966829645660392 -0.06381222747041531695 0 #
coedge $-1 $275 $209 $285 $286 reversed $66 $-1 #
coedge $-1 $287 $288 $209 $249 forward $267 $-1 #
edge $-1 $289 -0.002000000000000001776 $253 0.02750000000000000014 $209 $290 reversed 7 unknown #
coedge $-1 $220 $210 $213 $255 reversed $252 $-1 #
coedge $-1 $210 $220 $287 $291 reversed $252 $-1 #
loop $-1 $-1 $251 $266 #
vertex $-1 $291 $292 #
ellipse-curve $-1 0 0 0.01000000000000000021 0 0 1 0.05500000000000000028 0 0 1 I I #
edge $-1 $222 0 $215 0.01000000000000000021 $250 $293 forward 7 unknown #
face $294 $188 $214 $3 $-1 $295 reversed single #
point $-1 0.02931952091115245726 0.04653349002106432764 0.01000000000000000021 #
straight-curve $-1 0.02232398290030730009 0.0448031727464221069 0 0 0 1 I I #
coedge $-1 $219 $296 $297 $298 reversed $71 $-1 #
coedge $-1 $288 $287 $219 $261 forward $267 $-1 #
edge $-1 $262 -0.02750000000000000014 $299 0.002000000000000001776 $219 $300 forward 7 unknown #
vertex $-1 $291 $301 #
ellipse-curve $-1 0 0 0 0 0 1 0.05500000000000000028 0 0 1 I I #
point $-1 0.02931952091115245726 0.04653349002106432764 0 #
pid_name-sg-attrib $-1 $-1 $-1 $228 7 rwilson 784252905 1302 1 #
face $302 $256 $252 $3 $-1 $303 reversed single #
loop $-1 $-1 $288 $228 #
plane-surface $-1 0.05500000000000000028 0 0 0 1 0 0 0 1 forward_v I I I I #
coedge $-1 $285 $297 $304 $305 reversed $229 $-1 #
coedge $-1 $304 $231 $275 $306 forward $191 $-1 #
coedge $-1 $231 $304 $296 $307 forward $191 $-1 #
edge $-1 $277 -0.01000000000000000021 $308 0 $231 $309 forward 7 unknown #
coedge $-1 $233 $232 $280 $310 forward $158 $-1 #
edge $-1 $281 0 $276 0.01000000000000000021 $236 $311 forward 7 unknown #
coedge $-1 $234 $247 $270 $306 reversed $66 $-1 #
vertex $-1 $274 $312 #
vertex $-1 $272 $313 #
ellipse-curve $-1 0.0376892974279020021 -0.06251813224490269938 0.01000000000000000021 0 0 1 0.002581458727938467333 -0.004282063852390606898 0 1 I I #
ellipse-curve $-1 0 0 0.01000000000000000021 0 0 1 0.07799999999999999989 0 0 1 I I #
coedge $-1 $296 $238 $273 $310 reversed $71 $-1 #
vertex $-1 $274 $314 #
ellipse-curve $-1 0 0 0 0 0 1 0.07799999999999999989 0 0 1 I I #
point $-1 -0.04027075615584047724 -0.06680019609729329066 0 #
ellipse-curve $-1 -0.0376892974279020021 -0.06251813224490269938 0 0 0 1 0.004829629131445340069 -0.001294095225512600011 0 1 I I #
coedge $-1 $315 $269 $247 $286 forward $229 $-1 #
edge $-1 $316 -0.6692072188617838036 $289 0 $247 $317 forward 7 unknown #
coedge $-1 $260 $248 $251 $291 forward $267 $-1 #
coedge $-1 $248 $260 $315 $318 reversed $267 $-1 #
vertex $-1 $318 $319 #
straight-curve $-1 0.02750000000000000014 0 0.01000000000000000021 -1 0 0 I I #
edge $-1 $253 -0.01000000000000000021 $262 -0 $251 $320 reversed 7 unknown #
point $-1 0.05500000000000000028 0 0.01000000000000000021 #
straight-curve $-1 0.02931952091115244685 0.04653349002106429988 0 0 0 1 I I #
pid_name-sg-attrib $-1 $-1 $-1 $256 7 rwilson 784252905 1304 1 #
cone-surface $-1 0.02665410991922950029 0.04230317274642209774 0 0 0 1 0.002665410991922949595 0.00423031727464220908 0 1 I I 0 1 0.004999999999999998369 forward I I I I #
coedge $-1 $259 $280 $271 $307 reversed $71 $-1 #
coedge $-1 $269 $315 $259 $298 forward $229 $-1 #
edge $-1 $299 -0 $321 0.6692072188617838036 $259 $322 reversed 7 unknown #
vertex $-1 $318 $323 #
straight-curve $-1 0.02750000000000000014 0 0 -1 0 0 I I #
point $-1 0.05500000000000000028 0 0 #
pid_name-sg-attrib $-1 $-1 $-1 $266 7 rwilson 784252905 1303 1 #
cone-surface $-1 0 0 0 0 0 1 0.05500000000000000028 0 0 1 I I 0 1 0.05500000000000000028 forward I I I I #
coedge $-1 $271 $270 $269 $305 forward $191 $-1 #
edge $-1 $316 -0.01000000000000000021 $321 -0 $269 $324 forward 7 unknown #
edge $-1 $277 -0.05991426470890711536 $316 -0.01022832180867421642 $275 $325 reversed 7 unknown #
edge $-1 $321 0.01022832180867421642 $308 0.05991426470890711536 $296 $326 forward 7 unknown #
vertex $-1 $272 $327 #
straight-curve $-1 0.03285966829645660392 -0.06381222747041531695 0 0 0 -1 I I #
edge $-1 $308 -1.851512224940863316 $281 5.556536133988235468e-15 $280 $328 forward 7 unknown #
straight-curve $-1 0.04027075615584049112 -0.06680019609729329066 0 0 0 1 I I #
point $-1 0.04027075615584048418 -0.06680019609729327679 0.01000000000000000021 #
point $-1 0.03285966829645660392 -0.06381222747041531695 0.01000000000000000021 #
point $-1 0.04027075615584048418 -0.06680019609729327679 0 #
coedge $-1 $297 $285 $288 $318 forward $229 $-1 #
vertex $-1 $305 $329 #
ellipse-curve $-1 0 0 0.01000000000000000021 0 0 1 0.02549999999999999836 0 0 1 I I #
edge $-1 $289 -0.01000000000000000021 $299 -0 $288 $330 forward 7 unknown #
point $-1 0.02549999999999999836 0 0.01000000000000000021 #
straight-curve $-1 0.05500000000000000028 0 0 0 0 1 I I #
vertex $-1 $305 $331 #
ellipse-curve $-1 0 0 0 0 0 1 0.02549999999999999836 0 0 1 I I #
point $-1 0.02549999999999999836 0 0 #
straight-curve $-1 0.01999999999999999695 -0.01581929201955637604 0 -0 -0 -1 I I #
straight-curve $-1 0.01735271551647765698 -0.00593949182496223381 0.01000000000000000021 0.2588190451025199068 -0.9659258262890685343 0 I I #
straight-curve $-1 0.01735271551647765698 -0.00593949182496223381 0 0.2588190451025199068 -0.9659258262890685343 0 I I #
point $-1 0.03285966829645660392 -0.06381222747041531695 0 #
ellipse-curve $-1 0.0376892974279020021 -0.06251813224490269938 0 0 0 1 0.002581458727938467333 -0.004282063852390606898 0 1 I I #
point $-1 0.01999999999999999695 -0.01581929201955637604 0.01000000000000000021 #
straight-curve $-1 0.02549999999999999836 0 0 -0 -0 -1 I I #
point $-1 0.01999999999999999695 -0.01581929201955637604 0 #
End-of-ACIS-data 