600 0 2 0           
24 FBMach with ACIS - 6.0.3 13 ACIS 6.0.3 NT 24 Wed May 23 19:17:59 2001 
1 9.9999999999999995e-007 1e-010 
body $2 $3 $-1 $4 #
bdycol-kcp $-1 1 1 $5 #
model_id-kcp-attrib $-1 $-1 $-1 $0 1 990659878 90 408551425 1 #
lump $-1 $-1 $6 $0 #
transform $-1 1 0 0 0 1 0 0 0 1 0 0 0 1 no_rotate no_reflect no_shear #
body $7 $8 $-1 $9 #
shell $-1 $-1 $-1 $10 $-1 $3 #
model_id-kcp-attrib $-1 $-1 $-1 $5 1 990659878 90 408551426 1 #
lump $-1 $-1 $11 $5 #
transform $-1 1 0 0 0 1 0 0 0 1 0 0.0052409338775486758 0.0050000000000000018 1 no_rotate no_reflect no_shear #
face $12 $13 $14 $6 $-1 $15 forward single #
shell $-1 $-1 $-1 $16 $-1 $8 #
model_id-kcp-attrib $-1 $17 $-1 $10 1 990659878 90 408551425 2 #
face $18 $19 $20 $6 $-1 $21 reversed single #
loop $-1 $-1 $22 $10 #
plane-surface $-1 -0.024799813728925001 0.049091437532533297 0 -0.86602540378443882 -0.49999999999999989 0 0 0 1 forward_v I I I I #
face $23 $24 $25 $11 $-1 $26 forward single #
pid_name-sg-attrib $-1 $-1 $12 $10 7 114 119 105 108 115 111 110 784252905 1292 1 #
model_id-kcp-attrib $-1 $27 $-1 $13 1 990659878 90 408551425 3 #
face $28 $29 $30 $6 $-1 $31 forward single #
loop $-1 $-1 $32 $13 #
cone-surface $-1 0 0 0 0 0 1 0.055 0 0 1 I I 0 1 0.055 forward I I I I #
coedge $-1 $33 $34 $35 $36 reversed $14 $-1 #
model_id-kcp-attrib $-1 $-1 $-1 $16 1 990659878 90 408551426 2 #
face $37 $38 $39 $11 $-1 $40 reversed single #
loop $-1 $-1 $41 $16 #
plane-surface $-1 0 0 0.0050000000000000018 0 0 1 1 0 0 forward_v I I I I #
pid_name-sg-attrib $-1 $-1 $18 $13 7 114 119 105 108 115 111 110 784252905 1293 1 #
model_id-kcp-attrib $-1 $42 $-1 $19 1 990659878 90 408551425 4 #
face $43 $44 $45 $6 $-1 $46 reversed single #
loop $-1 $-1 $47 $19 #
plane-surface $-1 -0.025499999999999998 0 0 0 1 0 0 0 1 forward_v I I I I #
coedge $-1 $48 $49 $50 $51 reversed $20 $-1 #
coedge $-1 $52 $22 $53 $54 forward $14 $-1 #
coedge $-1 $22 $52 $55 $56 forward $14 $-1 #
coedge $-1 $57 $58 $22 $36 forward $59 $-1 #
edge $-1 $60 -0.01 $61 0 $22 $62 reversed 7 unknown #
model_id-kcp-attrib $-1 $-1 $-1 $24 1 990659878 90 408551426 3 #
face $-1 $63 $64 $11 $-1 $65 reversed single #
loop $-1 $-1 $66 $24 #
plane-surface $-1 0 0 -0.0050000000000000018 0 0 1 1 0 0 forward_v I I I I #
coedge $-1 $67 $68 $69 $70 forward $25 $-1 #
pid_name-sg-attrib $-1 $-1 $28 $19 7 114 119 105 108 115 111 110 784252905 1294 1 #
model_id-kcp-attrib $-1 $71 $-1 $29 1 990659878 90 408551425 5 #
face $72 $73 $74 $6 $-1 $75 forward single #
loop $-1 $-1 $76 $29 #
cone-surface $-1 0 0 0 0 0 1 0.025499999999999998 0 0 1 I I 0 1 0.025499999999999998 forward I I I I #
coedge $-1 $77 $78 $79 $80 reversed $30 $-1 #
coedge $-1 $79 $32 $81 $82 forward $20 $-1 #
coedge $-1 $32 $79 $83 $84 forward $20 $-1 #
coedge $-1 $85 $86 $32 $51 forward $87 $-1 #
edge $-1 $88 -0.01 $89 0 $32 $90 reversed 7 unknown #
coedge $-1 $34 $33 $91 $92 reversed $14 $-1 #
coedge $-1 $93 $94 $33 $54 reversed $95 $-1 #
edge $96 $60 -0.024647965800614614 $97 0 $53 $98 reversed 7 unknown #
coedge $-1 $99 $100 $34 $56 reversed $101 $-1 #
edge $-1 $102 0 $61 0.024647965800614614 $55 $103 forward 7 unknown #
coedge $-1 $104 $35 $100 $105 forward $59 $-1 #
coedge $-1 $35 $104 $93 $106 forward $59 $-1 #
loop $-1 $-1 $104 $107 #
vertex $-1 $36 $108 #
vertex $-1 $36 $109 #
straight-curve $-1 -0.01 0.023457408211479801 0 0 0 1 I I #
face $-1 $110 $111 $11 $-1 $112 reversed single #
loop $-1 $-1 $113 $38 #
plane-surface $-1 0 -0.072759066122451366 0 0 1 0 0 0 1 forward_v I I I I #
coedge $-1 $114 $115 $116 $117 forward $39 $-1 #
coedge $-1 $118 $41 $119 $120 forward $25 $-1 #
coedge $-1 $41 $118 $121 $122 forward $25 $-1 #
coedge $-1 $123 $124 $41 $70 reversed $125 $-1 #
edge $-1 $126 -0.072759066122451366 $127 0.072759066122451366 $69 $128 forward 7 unknown #
pid_name-sg-attrib $-1 $-1 $43 $29 7 114 119 105 108 115 111 110 784252905 1295 1 #
model_id-kcp-attrib $-1 $129 $-1 $44 1 990659878 90 408551425 6 #
face $130 $131 $132 $6 $-1 $133 forward single #
loop $-1 $-1 $134 $44 #
plane-surface $-1 -0.034505044454432601 -0.069952854889544197 0 0.9659258262890682 -0.25881904510252107 0 0 0 -1 forward_v I I I I #
coedge $-1 $135 $136 $137 $138 reversed $45 $-1 #
coedge $-1 $137 $47 $139 $140 forward $30 $-1 #
coedge $-1 $47 $137 $141 $142 forward $30 $-1 #
coedge $-1 $49 $48 $47 $80 forward $20 $-1 #
edge $-1 $143 -0.01 $144 0 $47 $145 reversed 7 unknown #
coedge $-1 $94 $139 $48 $82 reversed $95 $-1 #
edge $146 $88 -1.0085569375748249 $143 -1.2246063538223782e-016 $81 $147 reversed 7 unknown #
coedge $-1 $141 $99 $49 $84 reversed $101 $-1 #
edge $-1 $144 1.2246063538223782e-016 $89 1.0085569375748249 $83 $148 forward 7 unknown #
coedge $-1 $91 $50 $99 $149 forward $87 $-1 #
coedge $-1 $50 $91 $94 $150 forward $87 $-1 #
loop $-1 $-1 $86 $151 #
vertex $-1 $51 $152 #
vertex $-1 $51 $153 #
straight-curve $-1 -0.029319520911152499 0.0465334900210643 0 0 0 1 I I #
coedge $-1 $86 $85 $52 $92 forward $87 $-1 #
edge $-1 $102 0 $97 0.01 $52 $154 forward 7 unknown #
coedge $-1 $155 $53 $58 $106 reversed $95 $-1 #
coedge $-1 $53 $81 $86 $150 reversed $95 $-1 #
loop $-1 $-1 $93 $156 #
attrib_edge_convexity-kcp-attrib $-1 $157 $-1 $54 1 #
vertex $-1 $92 $158 #
straight-curve $-1 -0.0223239829003073 0.0448031727464221 0.01 0.499999999999999 -0.86602540378443904 0 I I #
coedge $-1 $83 $55 $85 $149 reversed $101 $-1 #
coedge $-1 $55 $159 $57 $105 reversed $101 $-1 #
loop $-1 $-1 $99 $160 #
vertex $-1 $92 $161 #
straight-curve $-1 -0.0223239829003073 0.0448031727464221 0 0.499999999999999 -0.86602540378443904 0 I I #
coedge $-1 $58 $57 $162 $163 reversed $59 $-1 #
edge $-1 $61 0 $164 0.80595019853908256 $100 $165 forward 7 unknown #
edge $166 $167 -0.80595019853908256 $60 0 $93 $168 reversed 7 unknown #
face $169 $156 $59 $6 $-1 $170 reversed single #
point $-1 -0.01 0.023457408211479801 0.01 #
point $-1 -0.01 0.023457408211479801 0 #
face $-1 $171 $172 $11 $-1 $173 reversed single #
loop $-1 $-1 $174 $63 #
plane-surface $-1 -0.078000000000000042 0 0 1 0 0 0 0 -1 forward_v I I I I #
coedge $-1 $175 $121 $176 $177 forward $64 $-1 #
coedge $-1 $178 $66 $175 $179 forward $39 $-1 #
coedge $-1 $66 $178 $180 $181 forward $39 $-1 #
coedge $-1 $124 $123 $66 $117 reversed $125 $-1 #
edge $-1 $182 -0.072759066122451366 $183 0.072759066122451366 $116 $184 forward 7 unknown #
coedge $-1 $68 $67 $185 $186 forward $25 $-1 #
coedge $-1 $187 $188 $67 $120 reversed $172 $-1 #
edge $-1 $127 -0.078000000000000042 $189 0.078000000000000042 $119 $190 forward 7 unknown #
coedge $-1 $113 $191 $68 $122 reversed $64 $-1 #
edge $-1 $192 -0.078000000000000042 $126 0.078000000000000042 $121 $193 forward 7 unknown #
coedge $-1 $116 $69 $191 $194 forward $125 $-1 #
coedge $-1 $69 $116 $187 $195 reversed $125 $-1 #
loop $-1 $-1 $123 $171 #
vertex $-1 $70 $196 #
vertex $-1 $70 $197 #
straight-curve $-1 0.078000000000000042 0 0.0050000000000000018 0 1 0 I I #
pid_name-sg-attrib $-1 $-1 $72 $44 7 114 119 105 108 115 111 110 784252905 1296 1 #
model_id-kcp-attrib $-1 $198 $-1 $73 1 990659878 90 408551425 7 #
face $199 $200 $201 $6 $-1 $202 forward single #
loop $-1 $-1 $203 $73 #
cone-surface $-1 -0.037689297427902002 -0.062518132244902699 0 0 0 -1 0.0048296291314453401 -0.0012940952255126 0 1 I I 0 1 0.0049999999999999975 forward I I I I #
coedge $-1 $204 $205 $206 $207 reversed $74 $-1 #
coedge $-1 $206 $76 $208 $209 forward $45 $-1 #
coedge $-1 $76 $206 $210 $211 forward $45 $-1 #
coedge $-1 $78 $77 $76 $138 forward $30 $-1 #
edge $-1 $212 -0.01 $213 0 $76 $214 reversed 7 unknown #
coedge $-1 $81 $208 $77 $140 reversed $95 $-1 #
edge $215 $143 -0.029500000000000002 $212 0 $139 $216 reversed 7 unknown #
coedge $-1 $210 $83 $78 $142 reversed $101 $-1 #
edge $-1 $213 0 $144 0.029500000000000002 $141 $217 forward 7 unknown #
vertex $-1 $80 $218 #
vertex $-1 $80 $219 #
straight-curve $-1 -0.055 6.7353349460230798e-018 0 0 0 1 I I #
attrib_edge_convexity-kcp-attrib $-1 $220 $-1 $82 1 #
ellipse-curve $-1 0 0 0.01 0 0 -1 -0.055 0 0 1 I I #
ellipse-curve $-1 0 0 0 0 0 -1 -0.055 0 0 1 I I #
edge $-1 $89 -1.6094369404166784 $102 -4.0657581468206308e-016 $99 $221 reversed 7 unknown #
edge $222 $97 4.0657581468206308e-016 $88 1.6094369404166784 $94 $223 forward 7 unknown #
face $224 $160 $87 $6 $-1 $225 reversed single #
point $-1 -0.029319520911152499 0.0465334900210643 0.01 #
point $-1 -0.029319520911152499 0.0465334900210643 0 #
straight-curve $-1 -0.0223239829003073 0.0448031727464221 0 0 0 1 I I #
coedge $-1 $226 $93 $227 $228 reversed $95 $-1 #
face $229 $151 $95 $6 $-1 $230 forward single #
convexity-sys-attrib $-1 $-1 $96 $54 #
point $-1 -0.0223239829003073 0.0448031727464221 0.01 #
coedge $-1 $100 $231 $232 $233 reversed $101 $-1 #
face $234 $-1 $101 $6 $-1 $235 reversed single #
point $-1 -0.0223239829003073 0.0448031727464221 0 #
coedge $-1 $232 $227 $104 $163 forward $236 $-1 #
edge $-1 $167 -0.01 $164 0 $104 $237 reversed 7 unknown #
vertex $-1 $163 $238 #
ellipse-curve $-1 0 0 0 0 0 -1 -0.01 0.023457408211479801 0 1 I I #
attrib_edge_convexity-kcp-attrib $-1 $239 $-1 $106 1 #
vertex $-1 $163 $240 #
ellipse-curve $-1 0 0 0.01 0 0 -1 -0.01 0.023457408211479801 0 1 I I #
model_id-kcp-attrib $-1 $241 $-1 $107 1 990659878 90 408551425 16 #
cone-surface $-1 0 0 0 0 0 1 0.025499999999999998 0 0 1 I I 0 1 0.025499999999999998 forward I I I I #
face $-1 $-1 $125 $11 $-1 $242 reversed single #
loop $-1 $-1 $187 $110 #
plane-surface $-1 0 0.072759066122451366 0 0 -1 0 0 0 -1 forward_v I I I I #
coedge $-1 $243 $185 $188 $244 forward $111 $-1 #
coedge $-1 $191 $113 $114 $179 reversed $64 $-1 #
coedge $-1 $185 $243 $113 $177 reversed $111 $-1 #
edge $-1 $192 -0.0050000000000000018 $245 0.0050000000000000018 $176 $246 forward 7 unknown #
coedge $-1 $115 $114 $243 $247 forward $39 $-1 #
edge $-1 $183 -0.078000000000000042 $245 0.078000000000000042 $175 $248 forward 7 unknown #
coedge $-1 $188 $187 $115 $181 reversed $172 $-1 #
edge $-1 $249 -0.078000000000000042 $182 0.078000000000000042 $180 $250 forward 7 unknown #
vertex $-1 $117 $251 #
vertex $-1 $194 $252 #
straight-curve $-1 0.078000000000000042 0 -0.0050000000000000018 0 -1 0 I I #
coedge $-1 $174 $176 $118 $186 reversed $111 $-1 #
edge $-1 $189 -0.072759066122451366 $192 0.072759066122451366 $185 $253 forward 7 unknown #
coedge $-1 $180 $119 $124 $195 forward $172 $-1 #
coedge $-1 $119 $180 $174 $244 reversed $172 $-1 #
vertex $-1 $120 $254 #
straight-curve $-1 0 0.072759066122451366 0.0050000000000000018 -1 0 0 I I #
coedge $-1 $121 $175 $123 $194 reversed $64 $-1 #
vertex $-1 $186 $255 #
straight-curve $-1 0 -0.072759066122451366 0.0050000000000000018 1 0 0 I I #
edge $-1 $126 -0.0050000000000000018 $183 0.0050000000000000018 $123 $256 forward 7 unknown #
edge $-1 $127 -0.0050000000000000018 $182 0.0050000000000000018 $124 $257 forward 7 unknown #
point $-1 0.078000000000000042 -0.072759066122451366 0.0050000000000000018 #
point $-1 0.078000000000000042 0.072759066122451366 0.0050000000000000018 #
pid_name-sg-attrib $-1 $-1 $130 $73 7 114 119 105 108 115 111 110 784252905 1297 1 #
model_id-kcp-attrib $-1 $258 $-1 $131 1 990659878 90 408551425 8 #
face $259 $260 $261 $6 $-1 $262 forward single #
loop $-1 $-1 $263 $131 #
cone-surface $-1 0 0 0 0 0 1 0.078 0 0 1 I I 0 1 0.078 forward I I I I #
coedge $-1 $264 $265 $266 $267 forward $132 $-1 #
coedge $-1 $268 $134 $269 $270 forward $74 $-1 #
coedge $-1 $134 $268 $271 $272 forward $74 $-1 #
coedge $-1 $136 $135 $134 $207 forward $45 $-1 #
edge $-1 $273 -0.01 $274 0 $134 $275 reversed 7 unknown #
coedge $-1 $139 $269 $135 $209 reversed $95 $-1 #
edge $276 $212 -0.66920721886178458 $273 0 $208 $277 reversed 7 unknown #
coedge $-1 $271 $141 $136 $211 reversed $101 $-1 #
edge $-1 $274 0 $213 0.66920721886178458 $210 $278 forward 7 unknown #
vertex $-1 $138 $279 #
vertex $-1 $138 $280 #
straight-curve $-1 -0.025499999999999998 3.1227462022470602e-018 0 0 0 1 I I #
attrib_edge_convexity-kcp-attrib $-1 $281 $-1 $140 1 #
straight-curve $-1 -0.025499999999999998 0 0.01 -1 0 0 I I #
straight-curve $-1 -0.025499999999999998 0 0 -1 0 0 I I #
point $-1 -0.055 6.7353349460230798e-018 0.01 #
point $-1 -0.055 6.7353349460230798e-018 0 #
convexity-sys-attrib $-1 $-1 $146 $82 #
ellipse-curve $-1 -0.0266541099192295 0.042303172746422098 0 0 0 1 0.0043301270189222002 0.0025000000000000001 0 1 I I #
attrib_edge_convexity-kcp-attrib $-1 $282 $-1 $150 1 #
ellipse-curve $-1 -0.0266541099192295 0.042303172746422098 0.01 0 0 1 0.0043301270189222002 0.0025000000000000001 0 1 I I #
model_id-kcp-attrib $-1 $283 $-1 $151 1 990659878 90 408551425 18 #
cone-surface $-1 -0.0266541099192295 0.042303172746422098 0 0 0 1 0.0043301270189221898 0.0025000000000000001 0 1 I I 0 1 0.0049999999999999975 forward I I I I #
coedge $-1 $284 $155 $285 $286 reversed $95 $-1 #
coedge $-1 $162 $287 $155 $228 forward $236 $-1 #
edge $288 $289 -0.0246479658006146 $167 0 $155 $290 reversed 7 unknown #
model_id-kcp-attrib $-1 $291 $-1 $156 1 990659878 90 408551425 17 #
plane-surface $-1 0 0 0.01 0 0 1 1 0 0 forward_v I I I I #
coedge $-1 $159 $292 $293 $294 reversed $101 $-1 #
coedge $-1 $287 $162 $159 $233 forward $236 $-1 #
edge $-1 $164 0 $295 0.0246479658006146 $159 $296 forward 7 unknown #
model_id-kcp-attrib $-1 $297 $-1 $160 1 990659878 90 408551425 19 #
plane-surface $-1 0 0 0 0 0 1 1 0 0 forward_v I I I I #
loop $-1 $-1 $287 $298 #
straight-curve $-1 0.01 0.023457408211479801 0 0 0 1 I I #
point $-1 0.01 0.023457408211479801 0 #
convexity-sys-attrib $-1 $-1 $166 $106 #
point $-1 0.01 0.023457408211479801 0.01 #
pid_name-sg-attrib $-1 $-1 $169 $107 7 114 119 105 108 115 111 110 784252905 1306 1 #
plane-surface $-1 0.078000000000000042 0 0 -1 0 0 0 0 1 forward_v I I I I #
coedge $-1 $176 $174 $178 $247 reversed $111 $-1 #
edge $-1 $189 -0.0050000000000000018 $249 0.0050000000000000018 $188 $299 forward 7 unknown #
vertex $-1 $247 $300 #
straight-curve $-1 -0.078000000000000042 -0.072759066122451366 0 0 0 -1 I I #
edge $-1 $245 -0.072759066122451366 $249 0.072759066122451366 $243 $301 forward 7 unknown #
straight-curve $-1 0 -0.072759066122451366 -0.0050000000000000018 -1 0 0 I I #
vertex $-1 $181 $302 #
straight-curve $-1 0 0.072759066122451366 -0.0050000000000000018 1 0 0 I I #
point $-1 0.078000000000000042 0.072759066122451366 -0.0050000000000000018 #
point $-1 0.078000000000000042 -0.072759066122451366 -0.0050000000000000018 #
straight-curve $-1 -0.078000000000000042 0 0.0050000000000000018 0 -1 0 I I #
point $-1 -0.078000000000000042 0.072759066122451366 0.0050000000000000018 #
point $-1 -0.078000000000000042 -0.072759066122451366 0.0050000000000000018 #
straight-curve $-1 0.078000000000000042 -0.072759066122451366 0 0 0 -1 I I #
straight-curve $-1 0.078000000000000042 0.072759066122451366 0 0 0 -1 I I #
pid_name-sg-attrib $-1 $-1 $199 $131 7 114 119 105 108 115 111 110 784252905 1298 1 #
model_id-kcp-attrib $-1 $303 $-1 $200 1 990659878 90 408551425 9 #
face $304 $305 $306 $6 $-1 $307 forward single #
loop $-1 $-1 $308 $200 #
cone-surface $-1 0.037689297427902002 -0.062518132244902699 0 0 0 -1 0.0025814587279384699 -0.0042820638523906104 0 1 I I 0 1 0.0050000000000000018 forward I I I I #
coedge $-1 $309 $310 $264 $311 reversed $201 $-1 #
coedge $-1 $312 $203 $263 $311 forward $132 $-1 #
coedge $-1 $203 $312 $268 $313 forward $132 $-1 #
coedge $-1 $269 $314 $203 $267 reversed $95 $-1 #
edge $315 $316 -2.6427427954333859e-015 $317 1.851512224940852 $266 $318 forward 7 unknown #
coedge $-1 $205 $204 $265 $313 reversed $74 $-1 #
coedge $-1 $208 $266 $204 $270 reversed $95 $-1 #
edge $319 $273 -0.049685942900232871 $316 0 $269 $320 reversed 7 unknown #
coedge $-1 $321 $210 $205 $272 reversed $101 $-1 #
edge $-1 $322 0 $274 0.049685942900232871 $271 $323 forward 7 unknown #
vertex $-1 $207 $324 #
vertex $-1 $207 $325 #
straight-curve $-1 -0.02 -0.0158192920195564 0 0 0 1 I I #
attrib_edge_convexity-kcp-attrib $-1 $326 $-1 $209 1 #
ellipse-curve $-1 0 0 0.01 0 0 -1 -0.02 -0.0158192920195564 0 1 I I #
ellipse-curve $-1 0 0 0 0 0 -1 -0.02 -0.0158192920195564 0 1 I I #
point $-1 -0.025499999999999998 3.1227462022470602e-018 0.01 #
point $-1 -0.025499999999999998 3.1227462022470602e-018 0 #
convexity-sys-attrib $-1 $-1 $215 $140 #
convexity-sys-attrib $-1 $-1 $222 $150 #
pid_name-sg-attrib $-1 $-1 $224 $151 7 114 119 105 108 115 111 110 784252905 1308 1 #
coedge $-1 $327 $226 $328 $329 reversed $95 $-1 #
coedge $-1 $330 $331 $226 $286 forward $332 $-1 #
edge $333 $334 6.844026213814787e-015 $289 1.6094369404166677 $226 $335 forward 7 unknown #
coedge $-1 $227 $232 $330 $336 reversed $236 $-1 #
attrib_edge_convexity-kcp-attrib $-1 $337 $-1 $228 1 #
vertex $-1 $336 $338 #
straight-curve $-1 0.01 0.023457408211479801 0.01 0.5 0.86602540378443904 0 I I #
pid_name-sg-attrib $-1 $-1 $229 $156 7 114 119 105 108 115 111 110 784252905 1307 1 #
coedge $-1 $231 $339 $340 $341 reversed $101 $-1 #
coedge $-1 $331 $330 $231 $294 forward $332 $-1 #
edge $-1 $295 -1.6094369404166677 $342 -6.844026213814787e-015 $231 $343 reversed 7 unknown #
vertex $-1 $336 $344 #
straight-curve $-1 0.01 0.023457408211479801 0 0.5 0.86602540378443904 0 I I #
pid_name-sg-attrib $-1 $-1 $234 $160 7 114 119 105 108 115 111 110 784252905 1309 1 #
face $345 $107 $236 $6 $-1 $346 forward single #
straight-curve $-1 -0.078000000000000042 0.072759066122451366 0 0 0 -1 I I #
point $-1 -0.078000000000000042 -0.072759066122451366 -0.0050000000000000018 #
straight-curve $-1 -0.078000000000000042 0 -0.0050000000000000018 0 1 0 I I #
point $-1 -0.078000000000000042 0.072759066122451366 -0.0050000000000000018 #
pid_name-sg-attrib $-1 $-1 $259 $200 7 114 119 105 108 115 111 110 784252905 1299 1 #
model_id-kcp-attrib $-1 $347 $-1 $260 1 990659878 90 408551425 10 #
face $348 $349 $350 $6 $-1 $351 reversed single #
loop $-1 $-1 $352 $260 #
plane-surface $-1 0.02 -0.0158192920195564 0 -0.96592582628906853 -0.25881904510251991 0 0 0 1 forward_v I I I I #
coedge $-1 $353 $354 $355 $356 forward $261 $-1 #
coedge $-1 $357 $263 $314 $358 forward $201 $-1 #
coedge $-1 $263 $357 $359 $360 forward $201 $-1 #
edge $-1 $317 -0.01 $361 0 $263 $362 reversed 7 unknown #
coedge $-1 $265 $264 $321 $363 forward $132 $-1 #
edge $-1 $322 0 $316 0.01 $268 $364 forward 7 unknown #
coedge $-1 $266 $355 $309 $358 reversed $95 $-1 #
attrib_edge_convexity-kcp-attrib $-1 $365 $-1 $267 1 #
vertex $-1 $313 $366 #
vertex $-1 $311 $367 #
ellipse-curve $-1 -0.037689297427902002 -0.062518132244902699 0.01 0 0 -1 0.0048296291314453401 -0.0012940952255126 0 1 I I #
attrib_edge_convexity-kcp-attrib $-1 $368 $-1 $270 1 #
straight-curve $-1 -0.032859668296456597 -0.063812227470415303 0.01 0.25881904510252102 0.96592582628906798 0 I I #
coedge $-1 $359 $271 $312 $363 reversed $101 $-1 #
vertex $-1 $313 $369 #
straight-curve $-1 -0.032859668296456597 -0.063812227470415303 0 0.25881904510252102 0.96592582628906798 0 I I #
point $-1 -0.02 -0.0158192920195564 0.01 #
point $-1 -0.02 -0.0158192920195564 0 #
convexity-sys-attrib $-1 $-1 $276 $209 #
coedge $-1 $370 $284 $371 $372 reversed $95 $-1 #
coedge $-1 $373 $374 $284 $329 forward $375 $-1 #
edge $376 $377 -1.0085569375748249 $334 1.5770213417970992e-015 $284 $378 reversed 7 unknown #
coedge $-1 $293 $285 $287 $336 forward $332 $-1 #
coedge $-1 $285 $293 $373 $379 forward $332 $-1 #
loop $-1 $-1 $285 $380 #
attrib_edge_convexity-kcp-attrib $-1 $381 $-1 $286 1 #
vertex $-1 $379 $382 #
ellipse-curve $-1 0.0266541099192295 0.042303172746422098 0.01 0 0 1 0.00266541099192295 0.0042303172746422204 0 1 I I #
edge $-1 $289 -0.01 $295 0 $287 $383 reversed 7 unknown #
convexity-sys-attrib $-1 $-1 $288 $228 #
point $-1 0.0223239829003073 0.0448031727464221 0.01 #
coedge $-1 $292 $384 $385 $386 reversed $101 $-1 #
coedge $-1 $374 $373 $292 $341 forward $375 $-1 #
edge $-1 $342 -1.5770213417970992e-015 $387 1.0085569375748249 $292 $388 forward 7 unknown #
vertex $-1 $379 $389 #
ellipse-curve $-1 0.0266541099192295 0.042303172746422098 0 0 0 1 0.00266541099192295 0.0042303172746422204 0 1 I I #
point $-1 0.0223239829003073 0.0448031727464221 0 #
model_id-kcp-attrib $-1 $390 $-1 $298 1 990659878 90 408551425 15 #
plane-surface $-1 0.01 0.023457408211479801 0 0.86602540378443882 -0.49999999999999989 0 0 0 -1 forward_v I I I I #
pid_name-sg-attrib $-1 $-1 $304 $260 7 114 119 105 108 115 111 110 784252905 1300 1 #
model_id-kcp-attrib $-1 $391 $-1 $305 1 990659878 90 408551425 11 #
face $392 $393 $394 $6 $-1 $395 forward single #
loop $-1 $-1 $396 $305 #
cone-surface $-1 0 0 0 0 0 1 0.025499999999999998 0 0 1 I I 0 1 0.025499999999999998 forward I I I I #
coedge $-1 $397 $398 $353 $399 reversed $306 $-1 #
coedge $-1 $400 $308 $352 $399 forward $261 $-1 #
coedge $-1 $308 $400 $357 $401 forward $261 $-1 #
coedge $-1 $314 $402 $308 $356 reversed $95 $-1 #
edge $403 $404 1.714394685242719e-014 $405 1.8515122249408718 $355 $406 forward 7 unknown #
coedge $-1 $310 $309 $354 $401 reversed $201 $-1 #
edge $407 $317 -5.1981547352893447 $404 1.0692329117214046e-015 $314 $408 reversed 7 unknown #
coedge $-1 $409 $321 $310 $360 reversed $101 $-1 #
edge $-1 $410 -1.0692329117214046e-015 $361 5.1981547352893447 $359 $411 forward 7 unknown #
vertex $-1 $311 $412 #
straight-curve $-1 -0.040270756155840401 -0.066800196097293305 0 0 0 1 I I #
edge $-1 $361 -1.851512224940852 $322 2.6427427954333859e-015 $321 $413 reversed 7 unknown #
straight-curve $-1 -0.032859668296456597 -0.063812227470415303 0 0 0 1 I I #
convexity-sys-attrib $-1 $-1 $315 $267 #
point $-1 -0.032859668296456597 -0.063812227470415303 0.01 #
point $-1 -0.040270756155840401 -0.066800196097293305 0.01 #
convexity-sys-attrib $-1 $-1 $319 $270 #
point $-1 -0.032859668296456597 -0.063812227470415303 0 #
coedge $-1 $402 $327 $414 $415 reversed $95 $-1 #
coedge $-1 $416 $417 $327 $372 forward $394 $-1 #
edge $418 $419 -0.029500000000000002 $377 0 $327 $420 reversed 7 unknown #
coedge $-1 $340 $328 $331 $379 reversed $375 $-1 #
coedge $-1 $328 $340 $416 $421 reversed $375 $-1 #
loop $-1 $-1 $374 $393 #
attrib_edge_convexity-kcp-attrib $-1 $422 $-1 $329 1 #
vertex $-1 $421 $423 #
ellipse-curve $-1 0 0 0.01 0 0 -1 0.029319520911152499 0.0465334900210643 0 1 I I #
edge $-1 $342 0 $334 0.01 $373 $424 forward 7 unknown #
face $425 $298 $332 $6 $-1 $426 reversed single #
convexity-sys-attrib $-1 $-1 $333 $286 #
point $-1 0.029319520911152398 0.0465334900210643 0.01 #
straight-curve $-1 0.0223239829003073 0.0448031727464221 0 0 0 1 I I #
coedge $-1 $339 $427 $428 $429 reversed $101 $-1 #
coedge $-1 $417 $416 $339 $386 forward $394 $-1 #
edge $-1 $387 0 $430 0.029500000000000002 $339 $431 forward 7 unknown #
vertex $-1 $421 $432 #
ellipse-curve $-1 0 0 0 0 0 -1 0.029319520911152499 0.0465334900210643 0 1 I I #
point $-1 0.029319520911152398 0.0465334900210643 0 #
pid_name-sg-attrib $-1 $-1 $345 $298 7 114 119 105 108 115 111 110 784252905 1305 1 #
pid_name-sg-attrib $-1 $-1 $348 $305 7 114 119 105 108 115 111 110 784252905 1301 1 #
model_id-kcp-attrib $-1 $433 $-1 $349 1 990659878 90 408551425 12 #
face $434 $380 $375 $6 $-1 $435 reversed single #
loop $-1 $-1 $417 $349 #
plane-surface $-1 0.055 0 0 0 1 0 0 0 1 forward_v I I I I #
coedge $-1 $414 $428 $436 $437 reversed $350 $-1 #
coedge $-1 $436 $352 $402 $438 forward $306 $-1 #
coedge $-1 $352 $436 $427 $439 forward $306 $-1 #
edge $-1 $405 -0.01 $440 0 $352 $441 reversed 7 unknown #
coedge $-1 $354 $353 $409 $442 forward $261 $-1 #
edge $-1 $410 0 $404 0.01 $357 $443 forward 7 unknown #
coedge $-1 $355 $370 $397 $438 reversed $95 $-1 #
attrib_edge_convexity-kcp-attrib $-1 $444 $-1 $356 1 #
vertex $-1 $401 $445 #
vertex $-1 $399 $446 #
ellipse-curve $-1 0.037689297427902002 -0.062518132244902699 0.01 0 0 -1 0.0025814587279384899 -0.0042820638523905904 0 1 I I #
attrib_edge_convexity-kcp-attrib $-1 $447 $-1 $358 1 #
ellipse-curve $-1 0 0 0.01 2.29647028595904e-017 -3.8093316360890499e-017 1 0.040270756155840498 -0.066800196097293305 -3.46944695195361e-018 1 I I #
coedge $-1 $427 $359 $400 $442 reversed $101 $-1 #
vertex $-1 $401 $448 #
ellipse-curve $-1 0 0 0 0 0 1 0.040270756155840498 -0.066800196097293305 0 1 I I #
point $-1 -0.040270756155840401 -0.066800196097293305 0 #
ellipse-curve $-1 -0.037689297427902002 -0.062518132244902699 0 0 0 -1 0.0048296291314453401 -0.0012940952255126 0 1 I I #
coedge $-1 $449 $396 $370 $415 forward $350 $-1 #
edge $450 $451 -0.66920721886178458 $419 -2.4492127076447535e-016 $370 $452 reversed 7 unknown #
coedge $-1 $385 $371 $374 $421 forward $394 $-1 #
coedge $-1 $371 $385 $449 $453 reversed $394 $-1 #
attrib_edge_convexity-kcp-attrib $-1 $454 $-1 $372 1 #
vertex $-1 $453 $455 #
straight-curve $-1 0.055 0 0.01 -1 0 0 I I #
edge $-1 $377 -0.01 $387 0 $374 $456 reversed 7 unknown #
convexity-sys-attrib $-1 $-1 $376 $329 #
point $-1 0.055 0 0.01 #
straight-curve $-1 0.029319520911152398 0.0465334900210643 0 0 0 1 I I #
model_id-kcp-attrib $-1 $457 $-1 $380 1 990659878 90 408551425 14 #
cone-surface $-1 0.0266541099192295 0.042303172746422098 0 0 0 1 0.00266541099192295 0.0042303172746422099 0 1 I I 0 1 0.0049999999999999984 forward I I I I #
coedge $-1 $384 $409 $398 $439 reversed $101 $-1 #
coedge $-1 $396 $449 $384 $429 forward $350 $-1 #
edge $-1 $430 2.4492127076447535e-016 $458 0.66920721886178458 $384 $459 forward 7 unknown #
vertex $-1 $453 $460 #
straight-curve $-1 0.055 0 0 -1 0 0 I I #
point $-1 0.055 0 0 #
pid_name-sg-attrib $-1 $-1 $392 $349 7 114 119 105 108 115 111 110 784252905 1302 1 #
model_id-kcp-attrib $-1 $461 $-1 $393 1 990659878 90 408551425 13 #
cone-surface $-1 0 0 0 0 0 1 0.055 0 0 1 I I 0 1 0.055 forward I I I I #
coedge $-1 $398 $397 $396 $437 forward $306 $-1 #
edge $-1 $451 -0.01 $458 0 $396 $462 reversed 7 unknown #
edge $463 $405 -0.049685942900232899 $451 0 $402 $464 reversed 7 unknown #
edge $-1 $458 0 $440 0.049685942900232899 $427 $465 forward 7 unknown #
vertex $-1 $399 $466 #
straight-curve $-1 0.032859668296456597 -0.063812227470415303 0 0 0 1 I I #
edge $-1 $440 -1.8515122249408718 $410 -1.714394685242719e-014 $409 $467 reversed 7 unknown #
straight-curve $-1 0.040270756155840401 -0.066800196097293305 0 0 0 1 I I #
convexity-sys-attrib $-1 $-1 $403 $356 #
point $-1 0.040270756155840401 -0.066800196097293305 0.01 #
point $-1 0.032859668296456597 -0.063812227470415303 0.01 #
convexity-sys-attrib $-1 $-1 $407 $358 #
point $-1 0.040270756155840401 -0.066800196097293305 0 #
coedge $-1 $428 $414 $417 $453 forward $350 $-1 #
attrib_edge_convexity-kcp-attrib $-1 $468 $-1 $415 1 #
vertex $-1 $437 $469 #
ellipse-curve $-1 0 0 0.01 0 0 -1 0.025499999999999998 0 0 1 I I #
edge $-1 $419 -0.01 $430 0 $417 $470 reversed 7 unknown #
convexity-sys-attrib $-1 $-1 $418 $372 #
point $-1 0.025499999999999998 -6.2454924044941203e-018 0.01 #
straight-curve $-1 0.055 0 0 0 0 1 I I #
pid_name-sg-attrib $-1 $-1 $425 $380 7 114 119 105 108 115 111 110 784252905 1304 1 #
vertex $-1 $437 $471 #
ellipse-curve $-1 0 0 0 0 0 -1 0.025499999999999998 0 0 1 I I #
point $-1 0.025499999999999998 -6.2454924044941203e-018 0 #
pid_name-sg-attrib $-1 $-1 $434 $393 7 114 119 105 108 115 111 110 784252905 1303 1 #
straight-curve $-1 0.02 -0.0158192920195564 0 0 0 1 I I #
attrib_edge_convexity-kcp-attrib $-1 $472 $-1 $438 1 #
straight-curve $-1 0.02 -0.0158192920195564 0.01 0.25881904510252002 -0.96592582628906798 0 I I #
straight-curve $-1 0.02 -0.0158192920195564 0 0.25881904510252002 -0.96592582628906798 0 I I #
point $-1 0.032859668296456597 -0.063812227470415303 0 #
ellipse-curve $-1 0.037689297427902002 -0.062518132244902699 0 0 0 -1 0.0025814587279384899 -0.0042820638523905904 0 1 I I #
convexity-sys-attrib $-1 $-1 $450 $415 #
point $-1 0.02 -0.0158192920195564 0.01 #
straight-curve $-1 0.025499999999999998 -6.2454924044941203e-018 0 0 0 1 I I #
point $-1 0.02 -0.0158192920195564 0 #
convexity-sys-attrib $-1 $-1 $463 $438 #
End-of-ACIS-data 