105 332 1 0                             
body $-1 $1 $-1 $2 #
lump $-1 $-1 $3 $0 #
transform $-1 1 0 0 0 1 0 0 0 1 0 0 0 1 0 0 0 #
shell $-1 $-1 $-1 $4 $1 #
face $5 $6 $7 $3 $-1 $8 forward single #
pid_name-sg-attrib $-1 $-1 $-1 $4 7 114 119 105 108 115 111 110 784252905 1292 1 #
face $9 $10 $11 $3 $-1 $12 reversed single #
loop $-1 $-1 $13 $4 #
plane-surface $-1 -0.024799813728925 0.0490914375325333 0 -0.866025403784439 -0.5 0 0 0 1 0 #
pid_name-sg-attrib $-1 $-1 $-1 $6 7 114 119 105 108 115 111 110 784252905 1293 1 #
face $14 $15 $16 $3 $-1 $17 forward single #
loop $-1 $-1 $18 $6 #
cone-surface $-1 0 0 0 0 0 1 0.055 0 0 1 0 1 0 #
coedge $-1 $19 $20 $21 $22 1 $7 $-1 #
pid_name-sg-attrib $-1 $-1 $-1 $10 7 114 119 105 108 115 111 110 784252905 1294 1 #
face $23 $24 $25 $3 $-1 $26 reversed single #
loop $-1 $-1 $27 $10 #
plane-surface $-1 -0.0255 0 0 0 1 0 0 0 1 0 #
coedge $-1 $28 $29 $30 $31 1 $11 $-1 #
coedge $-1 $32 $13 $33 $34 0 $7 $-1 #
coedge $-1 $13 $32 $35 $36 0 $7 $-1 #
coedge $-1 $37 $38 $13 $22 0 $39 $-1 #
edge $-1 $40 $41 $13 $42 1 #
pid_name-sg-attrib $-1 $-1 $-1 $15 7 114 119 105 108 115 111 110 784252905 1295 1 #
face $43 $44 $45 $3 $-1 $46 forward single #
loop $-1 $-1 $47 $15 #
cone-surface $-1 0 0 0 0 0 1 0.0255 0 0 1 0 1 0 #
coedge $-1 $48 $49 $50 $51 1 $16 $-1 #
coedge $-1 $50 $18 $52 $53 0 $11 $-1 #
coedge $-1 $18 $50 $54 $55 0 $11 $-1 #
coedge $-1 $56 $57 $18 $31 0 $58 $-1 #
edge $-1 $59 $60 $18 $61 1 #
coedge $-1 $20 $19 $62 $63 1 $7 $-1 #
coedge $-1 $64 $65 $19 $34 1 $66 $-1 #
edge $-1 $40 $67 $33 $68 1 #
coedge $-1 $69 $70 $20 $36 1 $71 $-1 #
edge $-1 $72 $41 $35 $73 0 #
coedge $-1 $74 $21 $70 $75 0 $39 $-1 #
coedge $-1 $21 $74 $64 $76 0 $39 $-1 #
loop $-1 $-1 $74 $77 #
vertex $-1 $22 $78 #
vertex $-1 $22 $79 #
straight-curve $-1 -0.01 0.0234574082114798 0 0 0 1 #
pid_name-sg-attrib $-1 $-1 $-1 $24 7 114 119 105 108 115 111 110 784252905 1296 1 #
face $80 $81 $82 $3 $-1 $83 forward single #
loop $-1 $-1 $84 $24 #
plane-surface $-1 -0.0345050444544326 -0.0699528548895442 0 0.965925826289068 -0.258819045102521 0 0 0 -1 0 #
coedge $-1 $85 $86 $87 $88 1 $25 $-1 #
coedge $-1 $87 $27 $89 $90 0 $16 $-1 #
coedge $-1 $27 $87 $91 $92 0 $16 $-1 #
coedge $-1 $29 $28 $27 $51 0 $11 $-1 #
edge $-1 $93 $94 $27 $95 1 #
coedge $-1 $65 $89 $28 $53 1 $66 $-1 #
edge $-1 $59 $93 $52 $96 1 #
coedge $-1 $91 $69 $29 $55 1 $71 $-1 #
edge $-1 $94 $60 $54 $97 0 #
coedge $-1 $62 $30 $69 $98 0 $58 $-1 #
coedge $-1 $30 $62 $65 $99 0 $58 $-1 #
loop $-1 $-1 $57 $100 #
vertex $-1 $31 $101 #
vertex $-1 $31 $102 #
straight-curve $-1 -0.0293195209111525 0.0465334900210643 0 0 0 1 #
coedge $-1 $57 $56 $32 $63 0 $58 $-1 #
edge $-1 $72 $67 $32 $103 0 #
coedge $-1 $104 $33 $38 $76 1 $66 $-1 #
coedge $-1 $33 $52 $57 $99 1 $66 $-1 #
loop $-1 $-1 $64 $105 #
vertex $-1 $63 $106 #
straight-curve $-1 -0.0223239829003073 0.0448031727464221 0.01 0.499999999999999 -0.866025403784439 0 #
coedge $-1 $54 $35 $56 $98 1 $71 $-1 #
coedge $-1 $35 $107 $37 $75 1 $71 $-1 #
loop $-1 $-1 $69 $108 #
vertex $-1 $63 $109 #
straight-curve $-1 -0.0223239829003073 0.0448031727464221 0 0.499999999999999 -0.866025403784439 0 #
coedge $-1 $38 $37 $110 $111 1 $39 $-1 #
edge $-1 $41 $112 $70 $113 0 #
edge $-1 $114 $40 $64 $115 1 #
face $116 $105 $39 $3 $-1 $117 reversed single #
point $-1 -0.01 0.0234574082114798 0.01 #
point $-1 -0.01 0.0234574082114798 0 #
pid_name-sg-attrib $-1 $-1 $-1 $44 7 114 119 105 108 115 111 110 784252905 1297 1 #
face $118 $119 $120 $3 $-1 $121 forward single #
loop $-1 $-1 $122 $44 #
cone-surface $-1 -0.037689297427902 -0.0625181322449027 0 0 0 -1 0.00482962913144534 -0.0012940952255126 0 1 0 1 0 #
coedge $-1 $123 $124 $125 $126 1 $45 $-1 #
coedge $-1 $125 $47 $127 $128 0 $25 $-1 #
coedge $-1 $47 $125 $129 $130 0 $25 $-1 #
coedge $-1 $49 $48 $47 $88 0 $16 $-1 #
edge $-1 $131 $132 $47 $133 1 #
coedge $-1 $52 $127 $48 $90 1 $66 $-1 #
edge $-1 $93 $131 $89 $134 1 #
coedge $-1 $129 $54 $49 $92 1 $71 $-1 #
edge $-1 $132 $94 $91 $135 0 #
vertex $-1 $51 $136 #
vertex $-1 $51 $137 #
straight-curve $-1 -0.055 6.73533494602308e-18 0 0 0 1 #
ellipse-curve $-1 0 0 0.01 0 0 -1 -0.055 0 0 1 #
ellipse-curve $-1 0 0 0 0 0 -1 -0.055 0 0 1 #
edge $-1 $60 $72 $69 $138 1 #
edge $-1 $67 $59 $65 $139 0 #
face $140 $108 $58 $3 $-1 $141 reversed single #
point $-1 -0.0293195209111525 0.0465334900210643 0.01 #
point $-1 -0.0293195209111525 0.0465334900210643 0 #
straight-curve $-1 -0.0223239829003073 0.0448031727464221 0 0 0 1 #
coedge $-1 $142 $64 $143 $144 1 $66 $-1 #
face $145 $100 $66 $3 $-1 $146 forward single #
point $-1 -0.0223239829003073 0.0448031727464221 0.01 #
coedge $-1 $70 $147 $148 $149 1 $71 $-1 #
face $150 $-1 $71 $3 $-1 $151 reversed single #
point $-1 -0.0223239829003073 0.0448031727464221 0 #
coedge $-1 $148 $143 $74 $111 0 $152 $-1 #
edge $-1 $114 $112 $74 $153 1 #
vertex $-1 $111 $154 #
ellipse-curve $-1 0 0 0 0 0 -1 -0.01 0.0234574082114798 0 1 #
vertex $-1 $111 $155 #
ellipse-curve $-1 0 0 0.01 0 0 -1 -0.01 0.0234574082114798 0 1 #
pid_name-sg-attrib $-1 $-1 $-1 $77 7 114 119 105 108 115 111 110 784252905 1306 1 #
cone-surface $-1 0 0 0 0 0 1 0.0255 0 0 1 0 1 0 #
pid_name-sg-attrib $-1 $-1 $-1 $81 7 114 119 105 108 115 111 110 784252905 1298 1 #
face $156 $157 $158 $3 $-1 $159 forward single #
loop $-1 $-1 $160 $81 #
cone-surface $-1 0 0 0 0 0 1 0.078 0 0 1 0 1 0 #
coedge $-1 $161 $162 $163 $164 0 $82 $-1 #
coedge $-1 $165 $84 $166 $167 0 $45 $-1 #
coedge $-1 $84 $165 $168 $169 0 $45 $-1 #
coedge $-1 $86 $85 $84 $126 0 $25 $-1 #
edge $-1 $170 $171 $84 $172 1 #
coedge $-1 $89 $166 $85 $128 1 $66 $-1 #
edge $-1 $131 $170 $127 $173 1 #
coedge $-1 $168 $91 $86 $130 1 $71 $-1 #
edge $-1 $171 $132 $129 $174 0 #
vertex $-1 $88 $175 #
vertex $-1 $88 $176 #
straight-curve $-1 -0.0255 3.12274620224706e-18 0 0 0 1 #
straight-curve $-1 -0.0255 0 0.01 -1 0 0 #
straight-curve $-1 -0.0255 0 0 -1 0 0 #
point $-1 -0.055 6.73533494602308e-18 0.01 #
point $-1 -0.055 6.73533494602308e-18 0 #
ellipse-curve $-1 -0.0266541099192295 0.0423031727464221 0 0 0 1 0.0043301270189222 0.0025 0 1 #
ellipse-curve $-1 -0.0266541099192295 0.0423031727464221 0.01 0 0 1 0.0043301270189222 0.0025 0 1 #
pid_name-sg-attrib $-1 $-1 $-1 $100 7 114 119 105 108 115 111 110 784252905 1308 1 #
cone-surface $-1 -0.0266541099192295 0.0423031727464221 0 0 0 1 0.00433012701892219 0.0025 0 1 0 1 0 #
coedge $-1 $177 $104 $178 $179 1 $66 $-1 #
coedge $-1 $110 $180 $104 $144 0 $152 $-1 #
edge $-1 $181 $114 $104 $182 1 #
pid_name-sg-attrib $-1 $-1 $-1 $105 7 114 119 105 108 115 111 110 784252905 1307 1 #
plane-surface $-1 0 0 0.01 0 0 1 1 0 0 0 #
coedge $-1 $107 $183 $184 $185 1 $71 $-1 #
coedge $-1 $180 $110 $107 $149 0 $152 $-1 #
edge $-1 $112 $186 $107 $187 0 #
pid_name-sg-attrib $-1 $-1 $-1 $108 7 114 119 105 108 115 111 110 784252905 1309 1 #
plane-surface $-1 0 0 0 0 0 1 1 0 0 0 #
loop $-1 $-1 $180 $188 #
straight-curve $-1 0.01 0.0234574082114798 0 0 0 1 #
point $-1 0.01 0.0234574082114798 0 #
point $-1 0.01 0.0234574082114798 0.01 #
pid_name-sg-attrib $-1 $-1 $-1 $119 7 114 119 105 108 115 111 110 784252905 1299 1 #
face $189 $190 $191 $3 $-1 $192 forward single #
loop $-1 $-1 $193 $119 #
cone-surface $-1 0.037689297427902 -0.0625181322449027 0 0 0 -1 0.00258145872793847 -0.00428206385239061 0 1 0 1 0 #
coedge $-1 $194 $195 $161 $196 1 $120 $-1 #
coedge $-1 $197 $122 $160 $196 0 $82 $-1 #
coedge $-1 $122 $197 $165 $198 0 $82 $-1 #
coedge $-1 $166 $199 $122 $164 1 $66 $-1 #
edge $-1 $200 $201 $163 $202 0 #
coedge $-1 $124 $123 $162 $198 1 $45 $-1 #
coedge $-1 $127 $163 $123 $167 1 $66 $-1 #
edge $-1 $170 $200 $166 $203 1 #
coedge $-1 $204 $129 $124 $169 1 $71 $-1 #
edge $-1 $205 $171 $168 $206 0 #
vertex $-1 $126 $207 #
vertex $-1 $126 $208 #
straight-curve $-1 -0.02 -0.0158192920195564 0 0 0 1 #
ellipse-curve $-1 0 0 0.01 0 0 -1 -0.02 -0.0158192920195564 0 1 #
ellipse-curve $-1 0 0 0 0 0 -1 -0.02 -0.0158192920195564 0 1 #
point $-1 -0.0255 3.12274620224706e-18 0.01 #
point $-1 -0.0255 3.12274620224706e-18 0 #
coedge $-1 $209 $142 $210 $211 1 $66 $-1 #
coedge $-1 $212 $213 $142 $179 0 $214 $-1 #
edge $-1 $215 $181 $142 $216 0 #
coedge $-1 $143 $148 $212 $217 1 $152 $-1 #
vertex $-1 $217 $218 #
straight-curve $-1 0.01 0.0234574082114798 0.01 0.5 0.866025403784439 0 #
coedge $-1 $147 $219 $220 $221 1 $71 $-1 #
coedge $-1 $213 $212 $147 $185 0 $214 $-1 #
edge $-1 $186 $222 $147 $223 1 #
vertex $-1 $217 $224 #
straight-curve $-1 0.01 0.0234574082114798 0 0.5 0.866025403784439 0 #
face $225 $77 $152 $3 $-1 $226 forward single #
pid_name-sg-attrib $-1 $-1 $-1 $157 7 114 119 105 108 115 111 110 784252905 1300 1 #
face $227 $228 $229 $3 $-1 $230 reversed single #
loop $-1 $-1 $231 $157 #
plane-surface $-1 0.02 -0.0158192920195564 0 -0.965925826289069 -0.25881904510252 0 0 0 1 0 #
coedge $-1 $232 $233 $234 $235 0 $158 $-1 #
coedge $-1 $236 $160 $199 $237 0 $120 $-1 #
coedge $-1 $160 $236 $238 $239 0 $120 $-1 #
edge $-1 $201 $240 $160 $241 1 #
coedge $-1 $162 $161 $204 $242 0 $82 $-1 #
edge $-1 $205 $200 $165 $243 0 #
coedge $-1 $163 $234 $194 $237 1 $66 $-1 #
vertex $-1 $198 $244 #
vertex $-1 $196 $245 #
ellipse-curve $-1 -0.037689297427902 -0.0625181322449027 0.01 0 0 -1 0.00482962913144534 -0.0012940952255126 0 1 #
straight-curve $-1 -0.0328596682964566 -0.0638122274704153 0.01 0.258819045102521 0.965925826289068 0 #
coedge $-1 $238 $168 $197 $242 1 $71 $-1 #
vertex $-1 $198 $246 #
straight-curve $-1 -0.0328596682964566 -0.0638122274704153 0 0.258819045102521 0.965925826289068 0 #
point $-1 -0.02 -0.0158192920195564 0.01 #
point $-1 -0.02 -0.0158192920195564 0 #
coedge $-1 $247 $177 $248 $249 1 $66 $-1 #
coedge $-1 $250 $251 $177 $211 0 $252 $-1 #
edge $-1 $253 $215 $177 $254 1 #
coedge $-1 $184 $178 $180 $217 0 $214 $-1 #
coedge $-1 $178 $184 $250 $255 0 $214 $-1 #
loop $-1 $-1 $178 $256 #
vertex $-1 $255 $257 #
ellipse-curve $-1 0.0266541099192295 0.0423031727464221 0.01 0 0 1 0.00266541099192295 0.00423031727464222 0 1 #
edge $-1 $181 $186 $180 $258 1 #
point $-1 0.0223239829003073 0.0448031727464221 0.01 #
coedge $-1 $183 $259 $260 $261 1 $71 $-1 #
coedge $-1 $251 $250 $183 $221 0 $252 $-1 #
edge $-1 $222 $262 $183 $263 0 #
vertex $-1 $255 $264 #
ellipse-curve $-1 0.0266541099192295 0.0423031727464221 0 0 0 1 0.00266541099192295 0.00423031727464222 0 1 #
point $-1 0.0223239829003073 0.0448031727464221 0 #
pid_name-sg-attrib $-1 $-1 $-1 $188 7 114 119 105 108 115 111 110 784252905 1305 1 #
plane-surface $-1 0.01 0.0234574082114798 0 0.866025403784439 -0.5 0 0 0 -1 0 #
pid_name-sg-attrib $-1 $-1 $-1 $190 7 114 119 105 108 115 111 110 784252905 1301 1 #
face $265 $266 $267 $3 $-1 $268 forward single #
loop $-1 $-1 $269 $190 #
cone-surface $-1 0 0 0 0 0 1 0.0255 0 0 1 0 1 0 #
coedge $-1 $270 $271 $232 $272 1 $191 $-1 #
coedge $-1 $273 $193 $231 $272 0 $158 $-1 #
coedge $-1 $193 $273 $236 $274 0 $158 $-1 #
coedge $-1 $199 $275 $193 $235 1 $66 $-1 #
edge $-1 $276 $277 $234 $278 0 #
coedge $-1 $195 $194 $233 $274 1 $120 $-1 #
edge $-1 $201 $276 $199 $279 1 #
coedge $-1 $280 $204 $195 $239 1 $71 $-1 #
edge $-1 $281 $240 $238 $282 0 #
vertex $-1 $196 $283 #
straight-curve $-1 -0.0402707561558404 -0.0668001960972933 0 0 0 1 #
edge $-1 $240 $205 $204 $284 1 #
straight-curve $-1 -0.0328596682964566 -0.0638122274704153 0 0 0 1 #
point $-1 -0.0328596682964566 -0.0638122274704153 0.01 #
point $-1 -0.0402707561558404 -0.0668001960972933 0.01 #
point $-1 -0.0328596682964566 -0.0638122274704153 0 #
coedge $-1 $275 $209 $285 $286 1 $66 $-1 #
coedge $-1 $287 $288 $209 $249 0 $267 $-1 #
edge $-1 $289 $253 $209 $290 1 #
coedge $-1 $220 $210 $213 $255 1 $252 $-1 #
coedge $-1 $210 $220 $287 $291 1 $252 $-1 #
loop $-1 $-1 $251 $266 #
vertex $-1 $291 $292 #
ellipse-curve $-1 0 0 0.01 0 0 -1 0.0293195209111525 0.0465334900210643 0 1 #
edge $-1 $222 $215 $250 $293 0 #
face $294 $188 $214 $3 $-1 $295 reversed single #
point $-1 0.0293195209111524 0.0465334900210643 0.01 #
straight-curve $-1 0.0223239829003073 0.0448031727464221 0 0 0 1 #
coedge $-1 $219 $296 $297 $298 1 $71 $-1 #
coedge $-1 $288 $287 $219 $261 0 $267 $-1 #
edge $-1 $262 $299 $219 $300 0 #
vertex $-1 $291 $301 #
ellipse-curve $-1 0 0 0 0 0 -1 0.0293195209111525 0.0465334900210643 0 1 #
point $-1 0.0293195209111524 0.0465334900210643 0 #
pid_name-sg-attrib $-1 $-1 $-1 $228 7 114 119 105 108 115 111 110 784252905 1302 1 #
face $302 $256 $252 $3 $-1 $303 reversed single #
loop $-1 $-1 $288 $228 #
plane-surface $-1 0.055 0 0 0 1 0 0 0 1 0 #
coedge $-1 $285 $297 $304 $305 1 $229 $-1 #
coedge $-1 $304 $231 $275 $306 0 $191 $-1 #
coedge $-1 $231 $304 $296 $307 0 $191 $-1 #
edge $-1 $277 $308 $231 $309 1 #
coedge $-1 $233 $232 $280 $310 0 $158 $-1 #
edge $-1 $281 $276 $236 $311 0 #
coedge $-1 $234 $247 $270 $306 1 $66 $-1 #
vertex $-1 $274 $312 #
vertex $-1 $272 $313 #
ellipse-curve $-1 0.037689297427902 -0.0625181322449027 0.01 0 0 -1 0.00258145872793849 -0.00428206385239059 0 1 #
ellipse-curve $-1 0 0 0.01 2.29647028595904e-17 -3.80933163608905e-17 1 0.0402707561558405 -0.0668001960972933 -3.46944695195361e-18 1 #
coedge $-1 $296 $238 $273 $310 1 $71 $-1 #
vertex $-1 $274 $314 #
ellipse-curve $-1 0 0 0 0 0 1 0.0402707561558405 -0.0668001960972933 0 1 #
point $-1 -0.0402707561558404 -0.0668001960972933 0 #
ellipse-curve $-1 -0.037689297427902 -0.0625181322449027 0 0 0 -1 0.00482962913144534 -0.0012940952255126 0 1 #
coedge $-1 $315 $269 $247 $286 0 $229 $-1 #
edge $-1 $316 $289 $247 $317 1 #
coedge $-1 $260 $248 $251 $291 0 $267 $-1 #
coedge $-1 $248 $260 $315 $318 1 $267 $-1 #
vertex $-1 $318 $319 #
straight-curve $-1 0.055 0 0.01 -1 0 0 #
edge $-1 $253 $262 $251 $320 1 #
point $-1 0.055 0 0.01 #
straight-curve $-1 0.0293195209111524 0.0465334900210643 0 0 0 1 #
pid_name-sg-attrib $-1 $-1 $-1 $256 7 114 119 105 108 115 111 110 784252905 1304 1 #
cone-surface $-1 0.0266541099192295 0.0423031727464221 0 0 0 1 0.00266541099192295 0.00423031727464221 0 1 0 1 0 #
coedge $-1 $259 $280 $271 $307 1 $71 $-1 #
coedge $-1 $269 $315 $259 $298 0 $229 $-1 #
edge $-1 $299 $321 $259 $322 0 #
vertex $-1 $318 $323 #
straight-curve $-1 0.055 0 0 -1 0 0 #
point $-1 0.055 0 0 #
pid_name-sg-attrib $-1 $-1 $-1 $266 7 114 119 105 108 115 111 110 784252905 1303 1 #
cone-surface $-1 0 0 0 0 0 1 0.055 0 0 1 0 1 0 #
coedge $-1 $271 $270 $269 $305 0 $191 $-1 #
edge $-1 $316 $321 $269 $324 1 #
edge $-1 $277 $316 $275 $325 1 #
edge $-1 $321 $308 $296 $326 0 #
vertex $-1 $272 $327 #
straight-curve $-1 0.0328596682964566 -0.0638122274704153 0 0 0 1 #
edge $-1 $308 $281 $280 $328 1 #
straight-curve $-1 0.0402707561558404 -0.0668001960972933 0 0 0 1 #
point $-1 0.0402707561558404 -0.0668001960972933 0.01 #
point $-1 0.0328596682964566 -0.0638122274704153 0.01 #
point $-1 0.0402707561558404 -0.0668001960972933 0 #
coedge $-1 $297 $285 $288 $318 0 $229 $-1 #
vertex $-1 $305 $329 #
ellipse-curve $-1 0 0 0.01 0 0 -1 0.0255 0 0 1 #
edge $-1 $289 $299 $288 $330 1 #
point $-1 0.0255 -6.24549240449412e-18 0.01 #
straight-curve $-1 0.055 0 0 0 0 1 #
vertex $-1 $305 $331 #
ellipse-curve $-1 0 0 0 0 0 -1 0.0255 0 0 1 #
point $-1 0.0255 -6.24549240449412e-18 0 #
straight-curve $-1 0.02 -0.0158192920195564 0 0 0 1 #
straight-curve $-1 0.02 -0.0158192920195564 0.01 0.25881904510252 -0.965925826289068 0 #
straight-curve $-1 0.02 -0.0158192920195564 0 0.25881904510252 -0.965925826289068 0 #
point $-1 0.0328596682964566 -0.0638122274704153 0 #
ellipse-curve $-1 0.037689297427902 -0.0625181322449027 0 0 0 -1 0.00258145872793849 -0.00428206385239059 0 1 #
point $-1 0.02 -0.0158192920195564 0.01 #
straight-curve $-1 0.0255 -6.24549240449412e-18 0 0 0 1 #
point $-1 0.02 -0.0158192920195564 0 #
