600 0 1 0           
100 GICL Pro/E ACIS Translator - Source: f:/data5/repository/PTC/V18/mfgintro18/tools/ccfnl_16.prt - 6 0 13 ACIS 6.0.3 NT 24 Thu Apr 04 13:34:14 2002 
1 9.9999999999999995e-007 1e-010 
body $-1 $1 $-1 $2 #
lump $-1 $-1 $3 $0 #
transform $-1 1 0 0 0 1 0 0 0 1 0 0 0 25.399999999999999 no_rotate no_reflect no_shear #
shell $-1 $-1 $-1 $4 $-1 $1 #
face $-1 $5 $6 $3 $-1 $7 forward single #
face $-1 $8 $9 $3 $-1 $10 forward single #
loop $-1 $-1 $11 $4 #
plane-surface $-1 0 0 0 0 1 0 1 0 0 forward_v I I I I #
face $-1 $12 $13 $3 $-1 $14 reversed single #
loop $-1 $-1 $15 $5 #
cone-surface $-1 -0.234375 0 0.57080347297002332 0 1 0 0.015625 0 0 1 I I 0 1 0.015625 forward I I I I #
coedge $-1 $16 $17 $18 $19 forward $6 $-1 #
face $-1 $20 $21 $3 $-1 $22 reversed single #
loop $-1 $-1 $23 $8 #
plane-surface $-1 -0.25 0 0.34867890162001663 1 0 0 0 0 1 forward_v I I I I #
coedge $-1 $24 $18 $25 $26 forward $9 $-1 #
coedge $-1 $27 $11 $28 $29 reversed $6 $-1 #
coedge $-1 $11 $30 $31 $32 forward $6 $-1 #
coedge $-1 $15 $33 $11 $19 reversed $9 $-1 #
edge $-1 $34 0 $35 1.3962634015954629 $11 $36 forward 7 unknown #
face $-1 $37 $38 $3 $-1 $39 reversed single #
loop $-1 $-1 $40 $12 #
plane-surface $-1 0 -0.09375 0 0 1 0 1 0 0 forward_v I I I I #
coedge $-1 $25 $41 $42 $43 reversed $13 $-1 #
coedge $-1 $33 $15 $44 $45 forward $9 $-1 #
coedge $-1 $31 $23 $15 $26 reversed $13 $-1 #
edge $-1 $34 0 $46 0.09375 $25 $47 forward 7 unknown #
coedge $-1 $48 $16 $49 $50 forward $6 $-1 #
coedge $-1 $51 $52 $16 $29 forward $53 $-1 #
edge $-1 $54 0 $35 0.22212457135000677 $16 $55 forward 7 unknown #
coedge $-1 $17 $56 $57 $58 forward $6 $-1 #
coedge $-1 $59 $25 $17 $32 reversed $13 $-1 #
edge $-1 $60 0 $34 0.22212457135000635 $17 $61 forward 7 unknown #
coedge $-1 $18 $24 $51 $62 reversed $9 $-1 #
vertex $-1 $32 $63 #
vertex $-1 $29 $64 #
ellipse-curve $-1 -0.234375 0 0.57080347297002332 0 1 0 -0.015625 0 0 1 I I #
face $-1 $65 $66 $3 $-1 $67 reversed single #
loop $-1 $-1 $68 $20 #
plane-surface $-1 -0.012911747223954157 0 0.37186280750917744 -0.1736481776669295 0 0.98480775301220824 -0.98480775301220824 0 -0.1736481776669295 forward_v I I I I #
coedge $-1 $69 $70 $71 $72 reversed $21 $-1 #
coedge $-1 $23 $59 $73 $74 reversed $13 $-1 #
coedge $-1 $75 $44 $23 $43 forward $21 $-1 #
edge $-1 $46 0 $76 0.01227473355999853 $42 $77 forward 7 unknown #
coedge $-1 $42 $78 $24 $45 reversed $21 $-1 #
edge $-1 $46 0 $79 1.3962634015954396 $44 $80 forward 7 unknown #
vertex $-1 $43 $81 #
straight-curve $-1 -0.25 0 0.57080347297002332 0 -1 0 I I #
coedge $-1 $82 $27 $83 $84 reversed $6 $-1 #
coedge $-1 $85 $86 $27 $50 reversed $87 $-1 #
edge $-1 $54 6.3837823915946866e-016 $88 1.7453292519943286 $27 $89 forward 7 unknown #
coedge $-1 $90 $28 $33 $62 forward $53 $-1 #
coedge $-1 $28 $90 $85 $91 reversed $53 $-1 #
loop $-1 $-1 $51 $92 #
vertex $-1 $50 $93 #
straight-curve $-1 -0.018338252776045755 0 0.62476262114081571 -0.98480775301220824 0 -0.17364817766692969 I I #
coedge $-1 $30 $82 $94 $95 forward $6 $-1 #
coedge $-1 $96 $97 $30 $58 reversed $98 $-1 #
edge $-1 $99 0 $60 1.7453292519943131 $30 $100 forward 7 unknown #
coedge $-1 $41 $31 $97 $101 forward $13 $-1 #
vertex $-1 $32 $102 #
straight-curve $-1 -0.25 0 0.34867890162001697 0 0 1 I I #
edge $-1 $35 1.3147681753683529e-031 $79 0.09375 $51 $103 forward 7 unknown #
point $-1 -0.25 0 0.57080347297002332 #
point $-1 -0.23708825277604581 0 0.58619109411083914 #
face $-1 $104 $105 $3 $-1 $106 reversed single #
loop $-1 $-1 $107 $37 #
plane-surface $-1 -0.5 -0.09375 0 0 -1 0 1 0 0 forward_v I I I I #
coedge $-1 $108 $71 $109 $110 forward $38 $-1 #
coedge $-1 $111 $40 $112 $113 reversed $21 $-1 #
coedge $-1 $40 $75 $114 $115 reversed $21 $-1 #
coedge $-1 $68 $116 $40 $72 forward $38 $-1 #
edge $-1 $117 5.1251073854227414e-018 $118 0.012274733559998714 $40 $119 forward 7 unknown #
coedge $-1 $120 $107 $41 $74 forward $66 $-1 #
edge $-1 $76 0 $121 0.20984983779000743 $41 $122 forward 7 unknown #
coedge $-1 $70 $42 $123 $124 forward $21 $-1 #
vertex $-1 $124 $125 #
straight-curve $-1 -0.25 -0.09375 0.57080347297002332 0 0 -1 I I #
coedge $-1 $44 $126 $90 $127 reversed $21 $-1 #
vertex $-1 $45 $128 #
ellipse-curve $-1 -0.23437499999999972 -0.09375 0.57080347297002321 0 1 0 -0.015625000000000278 0 1.1102230246251565e-016 1 I I #
point $-1 -0.25 -0.09375 0.57080347297002332 #
coedge $-1 $56 $48 $129 $130 forward $6 $-1 #
coedge $-1 $131 $132 $48 $84 forward $133 $-1 #
edge $-1 $134 0 $88 0.22212457135000679 $48 $135 forward 7 unknown #
coedge $-1 $136 $49 $52 $91 forward $87 $-1 #
coedge $-1 $49 $136 $131 $137 reversed $87 $-1 #
loop $-1 $-1 $85 $138 #
vertex $-1 $84 $139 #
ellipse-curve $-1 -0.015625 0 0.609375 0 1 0 -0.0027132527760457652 0 0.01538762114081571 1 I I #
coedge $-1 $52 $51 $78 $127 forward $53 $-1 #
edge $-1 $54 0 $140 0.09375 $52 $141 forward 7 unknown #
face $-1 $-1 $53 $3 $-1 $142 reversed single #
point $-1 -0.018338252776045755 0 0.62476262114081571 #
coedge $-1 $116 $108 $56 $95 reversed $38 $-1 #
edge $-1 $143 0 $99 0.22212457135000735 $56 $144 forward 7 unknown #
coedge $-1 $145 $57 $108 $146 forward $98 $-1 #
coedge $-1 $57 $145 $59 $101 reversed $98 $-1 #
loop $-1 $-1 $97 $147 #
vertex $-1 $58 $148 #
ellipse-curve $-1 -0.234375 0 0.34867890162001663 0 1 0 0.0027132527760451997 0 -0.015387621140815821 1 I I #
edge $-1 $60 0 $121 0.09375 $97 $149 forward 7 unknown #
point $-1 -0.25 0 0.34867890162001697 #
straight-curve $-1 -0.23708825277604581 0 0.58619109411083903 -2.9605947323337506e-016 -1 1.1842378929335002e-015 I I #
face $-1 $150 $151 $3 $-1 $152 reversed single #
loop $-1 $-1 $153 $65 #
plane-surface $-1 -0.025000000000000022 -0.09375 0.59820231006942914 0.17364817766692917 0 -0.98480775301220824 -0.98480775301220846 0 -0.17364817766692919 forward_v I I I I #
coedge $-1 $73 $154 $155 $156 reversed $66 $-1 #
coedge $-1 $94 $68 $96 $146 reversed $38 $-1 #
coedge $-1 $157 $120 $68 $110 reversed $66 $-1 #
edge $-1 $118 9.6394102515012513e-018 $158 0.20984983779000868 $68 $159 forward 7 unknown #
coedge $-1 $126 $69 $160 $161 forward $21 $-1 #
coedge $-1 $162 $163 $69 $113 forward $164 $-1 #
edge $-1 $165 -4.973799150320731e-014 $117 1.3962634015954234 $69 $166 forward 7 unknown #
coedge $-1 $167 $168 $70 $115 forward $169 $-1 #
edge $-1 $118 0 $170 0.22847098767429264 $70 $171 forward 7 unknown #
coedge $-1 $71 $94 $162 $172 forward $38 $-1 #
vertex $-1 $113 $173 #
vertex $-1 $115 $174 #
straight-curve $-1 -0.012911747223954157 -0.09375 0.37186280750917744 -0.98480775301220813 0 -0.17364817766692947 I I #
coedge $-1 $109 $73 $145 $175 reversed $66 $-1 #
vertex $-1 $175 $176 #
straight-curve $-1 -0.25 -0.09375 0.55852873941002479 0 0 -1 I I #
coedge $-1 $155 $177 $75 $124 reversed $105 $-1 #
edge $-1 $76 0 $170 0.22847098767429255 $75 $178 forward 7 unknown #
point $-1 -0.25 -0.09375 0.55852873941002479 #
coedge $-1 $78 $111 $136 $179 reversed $21 $-1 #
edge $-1 $79 0 $140 0.22212457135000677 $78 $180 forward 7 unknown #
point $-1 -0.23708825277604581 -0.09375 0.58619109411083914 #
coedge $-1 $163 $162 $82 $130 reversed $164 $-1 #
edge $-1 $134 -7.1054273576010366e-015 $143 1.3962634015954576 $82 $181 forward 7 unknown #
coedge $-1 $160 $83 $86 $137 forward $133 $-1 #
coedge $-1 $83 $160 $163 $182 reversed $133 $-1 #
loop $-1 $-1 $83 $183 #
vertex $-1 $130 $184 #
straight-curve $-1 0 0 0.38725042864999321 0 0 1 I I #
coedge $-1 $86 $85 $126 $179 forward $87 $-1 #
edge $-1 $88 0 $185 0.09375 $86 $186 forward 7 unknown #
face $-1 $92 $87 $3 $-1 $187 forward single #
point $-1 0 0 0.609375 #
vertex $-1 $127 $188 #
straight-curve $-1 -0.018338252776045783 0 0.62476262114081571 0 -1 0 I I #
plane-surface $-1 -0.14670602220836623 0 0.60212791993653436 0.17364817766692964 0 -0.98480775301220824 0.98480775301220824 0 0.17364817766692964 forward_v I I I I #
vertex $-1 $95 $189 #
straight-curve $-1 -0.012911747223954152 0 0.37186280750917744 -0.98480775301220824 0 -0.17364817766692947 I I #
coedge $-1 $97 $96 $120 $175 forward $98 $-1 #
edge $-1 $99 0 $158 0.09375 $108 $190 forward 7 unknown #
face $-1 $191 $98 $3 $-1 $192 forward single #
point $-1 -0.2316617472239548 0 0.33329128047920081 #
straight-curve $-1 -0.25 0 0.34867890162001663 0 -1 0 I I #
face $-1 $193 $194 $3 $-1 $195 reversed single #
loop $-1 $-1 $196 $104 #
plane-surface $-1 -0.25249999999999961 0 0.55808792195825363 -1 0 0 0 0 -1 forward_v I I I I #
coedge $-1 $197 $155 $198 $199 reversed $105 $-1 #
coedge $-1 $107 $200 $201 $202 reversed $66 $-1 #
coedge $-1 $153 $123 $107 $156 forward $105 $-1 #
edge $-1 $76 0 $203 0.0025385665297139618 $107 $204 forward 7 unknown #
coedge $-1 $205 $109 $168 $206 forward $66 $-1 #
vertex $-1 $146 $207 #
straight-curve $-1 -0.025000000000000022 -0.09375 0.36973132239513656 -0.98480775301220835 0 -0.1736481776669295 I I #
coedge $-1 $132 $131 $111 $161 reversed $133 $-1 #
edge $-1 $165 7.7715611723760958e-016 $185 0.22212457135000757 $111 $208 forward 7 unknown #
coedge $-1 $129 $112 $116 $172 reversed $164 $-1 #
coedge $-1 $112 $129 $132 $182 forward $164 $-1 #
loop $-1 $-1 $162 $191 #
vertex $-1 $161 $209 #
ellipse-curve $-1 -0.015624999999999896 -0.09375 0.38725042864999309 0 1 0 0.015624999999999896 0 -6.6613381477509392e-016 1 I I #
coedge $-1 $210 $114 $177 $211 forward $169 $-1 #
coedge $-1 $114 $212 $157 $206 reversed $169 $-1 #
loop $-1 $-1 $213 $214 #
vertex $-1 $115 $215 #
straight-curve $-1 -0.025000000000000022 -0.09375 0.36973132239513651 0 0 1 I I #
edge $-1 $143 1.2839532962581572e-034 $117 0.09375 $162 $216 forward 7 unknown #
point $-1 -0.012911747223954162 -0.09375 0.37186280750917744 #
point $-1 -0.025000000000000022 -0.09375 0.36973132239513651 #
edge $-1 $158 0 $121 1.7453292519943244 $145 $217 forward 7 unknown #
point $-1 -0.25 -0.09375 0.34867890162001736 #
coedge $-1 $123 $218 $167 $211 reversed $105 $-1 #
straight-curve $-1 -0.25 -0.09375 0.55852873941002479 0.98480775301220824 0 0.17364817766692925 I I #
edge $-1 $140 0 $185 1.7453292519943326 $126 $219 forward 7 unknown #
straight-curve $-1 -0.23708825277604581 -0.09375 0.58619109411083914 0.98480775301220824 0 0.17364817766692969 I I #
ellipse-curve $-1 -0.015624999999999925 0 0.38725042864999321 0 1 0 0.015624999999999925 0 -1.1102230246251565e-016 1 I I #
edge $-1 $134 0 $165 0.09375 $132 $220 forward 7 unknown #
face $-1 $138 $133 $3 $-1 $221 reversed single #
point $-1 7.4593109467002705e-017 0 0.38725042864999321 #
vertex $-1 $179 $222 #
straight-curve $-1 0 0 0.609375 0 -1 0 I I #
cone-surface $-1 -0.015625 0 0.609375 0 1 0 0.015625 0 0 1 I I 0 1 0.015625 forward I I I I #
point $-1 -0.018338252776045765 -0.09375 0.62476262114081571 #
point $-1 -0.012911747223954152 0 0.37186280750917744 #
straight-curve $-1 -0.23166174722395427 0 0.33329128047920092 0 -1 0 I I #
face $-1 $183 $164 $3 $-1 $223 forward single #
cone-surface $-1 -0.234375 0 0.34867890162001663 0 1 0 0.015625 0 0 1 I I 0 1 0.015625 forward I I I I #
face $-1 $214 $224 $3 $-1 $225 reversed single #
loop $-1 $-1 $226 $150 #
cone-surface $-1 -0.234375 0 0.34867890162001663 0 1 0 0.018124999999999707 0 0 1 I I 0 1 0.018124999999999707 forward I I I I #
coedge $-1 $227 $201 $228 $229 reversed $151 $-1 #
coedge $-1 $230 $153 $231 $232 reversed $105 $-1 #
coedge $-1 $201 $227 $153 $199 forward $151 $-1 #
edge $-1 $233 0 $203 0.09375 $153 $234 forward 7 unknown #
coedge $-1 $154 $205 $235 $236 forward $66 $-1 #
coedge $-1 $196 $198 $154 $202 forward $151 $-1 #
edge $-1 $203 0 $237 0.20940902033823711 $154 $238 forward 7 unknown #
vertex $-1 $202 $239 #
straight-curve $-1 -0.25 -0.09375 0.55852873941002479 -0.98480775301221124 0 -0.17364817766691237 I I #
coedge $-1 $200 $157 $240 $241 reversed $66 $-1 #
edge $-1 $118 5.5511151231257827e-017 $242 0.0025385665297143478 $157 $243 forward 7 unknown #
point $-1 -0.23166174722395483 -0.09375 0.33329128047920081 #
straight-curve $-1 0 -0.09375 0.38725042864999243 0 0 1 I I #
point $-1 7.4593109467002705e-017 -0.09375 0.38725042864999321 #
coedge $-1 $244 $167 $245 $246 forward $169 $-1 #
edge $-1 $170 0 $247 0.40625 $167 $248 forward 7 unknown #
coedge $-1 $168 $213 $249 $250 forward $169 $-1 #
coedge $-1 $212 $244 $251 $252 reversed $169 $-1 #
face $-1 $253 $169 $3 $-1 $254 reversed single #
point $-1 -0.025000000000000022 -0.09375 0.59820231006942914 #
straight-curve $-1 -0.012911747223954158 0 0.37186280750917744 1.8503717077085941e-017 -1 0 I I #
ellipse-curve $-1 -0.23437499999999994 -0.09375 0.34867890162001675 0 1 0 0.0027132527760451164 0 -0.015387621140815932 1 I I #
coedge $-1 $177 $230 $255 $256 reversed $105 $-1 #
ellipse-curve $-1 -0.015624999999999938 -0.09375 0.609375 0 1 0 -0.0027132527760458276 0 0.01538762114081571 1 I I #
straight-curve $-1 0 0 0.38725042864999321 0 -1 0 I I #
plane-surface $-1 0 0 0.609375 -1 0 0 0 0 -1 forward_v I I I I #
point $-1 0 -0.09375 0.609375 #
cone-surface $-1 -0.015624999999999925 0 0.38725042864999321 0 1 0 0.015625 0 0 1 I I 0 1 0.015625 forward I I I I #
loop $-1 $-1 $249 $193 #
plane-surface $-1 -0.23122762677978689 0 0.33082926109667066 0.17364817766692833 0 -0.98480775301220846 0.98480775301220835 0 0.17364817766692831 forward_v I I I I #
coedge $-1 $257 $235 $258 $259 reversed $194 $-1 #
coedge $-1 $198 $196 $260 $261 reversed $151 $-1 #
coedge $-1 $235 $257 $196 $229 forward $194 $-1 #
edge $-1 $262 0 $237 0.09375 $196 $263 forward 7 unknown #
coedge $-1 $218 $197 $264 $265 forward $105 $-1 #
coedge $-1 $260 $266 $197 $232 forward $267 $-1 #
edge $-1 $268 1.093356242223518e-016 $233 0.33451501040034487 $231 $269 forward 7 unknown #
vertex $-1 $261 $270 #
straight-curve $-1 -0.25249999999999961 0 0.55808792195825374 0 -1 0 I I #
coedge $-1 $226 $228 $200 $236 reversed $194 $-1 #
edge $-1 $271 0 $237 1.7453292519943275 $200 $272 forward 7 unknown #
vertex $-1 $202 $273 #
straight-curve $-1 -0.25249999999999961 -0.09375 0.55808792195825374 0 0 -1 I I #
point $-1 -0.25249999999999961 -0.09375 0.55808792195825374 #
coedge $-1 $249 $258 $205 $241 forward $224 $-1 #
edge $-1 $271 0 $242 0.20940902033823683 $205 $274 forward 7 unknown #
vertex $-1 $241 $275 #
straight-curve $-1 -0.025000000000000022 -0.09375 0.36973132239513656 0 0 -1 I I #
coedge $-1 $213 $210 $276 $277 reversed $169 $-1 #
coedge $-1 $255 $278 $210 $246 reversed $279 $-1 #
edge $-1 $247 0 $280 0.59820231006942914 $245 $281 forward 7 unknown #
vertex $-1 $246 $282 #
straight-curve $-1 -0.025000000000000022 -0.09375 0.59820231006942914 0 -1 0 I I #
coedge $-1 $283 $240 $212 $250 reversed $224 $-1 #
edge $-1 $284 0 $242 0.09375 $212 $285 forward 7 unknown #
coedge $-1 $286 $287 $213 $252 forward $267 $-1 #
edge $-1 $284 0 $288 0.36719275586542222 $251 $289 forward 7 unknown #
face $-1 $290 $267 $3 $-1 $291 reversed single #
plane-surface $-1 -0.025000000000000022 -0.09375 0.5 -1 0 0 0 0 1 forward_v I I I I #
coedge $-1 $292 $245 $218 $256 forward $279 $-1 #
edge $-1 $247 0 $293 0.56552456460435108 $255 $294 forward 7 unknown #
coedge $-1 $228 $226 $295 $296 reversed $194 $-1 #
coedge $-1 $240 $283 $226 $259 forward $224 $-1 #
edge $-1 $297 0 $271 0.09375 $226 $298 forward 7 unknown #
coedge $-1 $295 $231 $227 $261 forward $267 $-1 #
edge $-1 $233 0 $262 0.209409020338237 $260 $299 forward 7 unknown #
vertex $-1 $296 $300 #
straight-curve $-1 -0.25249999999999961 0 0.34867890162001663 0 -1 0 I I #
coedge $-1 $301 $302 $230 $265 reversed $303 $-1 #
edge $-1 $268 9.8607613152626476e-032 $293 0.5 $230 $304 forward 7 unknown #
coedge $-1 $231 $305 $301 $306 forward $267 $-1 #
loop $-1 $-1 $231 $253 #
vertex $-1 $306 $307 #
straight-curve $-1 -0.58193297574121861 0 0.5 0.98480775301220824 0 0.17364817766692917 I I #
point $-1 -0.2524999999999995 0 0.55808792195825363 #
vertex $-1 $236 $308 #
ellipse-curve $-1 -0.23437499999999989 -0.09375 0.34867890162001663 0 1 0 0.0031473732202130233 0 -0.017849640523345978 1 I I #
point $-1 -0.25249999999999961 -0.09375 0.34867890162001663 #
straight-curve $-1 -0.23122762677978687 -0.09375 0.33082926109667066 0.98480775301220846 0 0.17364817766692836 I I #
point $-1 -0.025000000000000022 -0.09375 0.36719275586542222 #
coedge $-1 $309 $310 $244 $277 forward $311 $-1 #
edge $-1 $288 0 $280 0.5 $276 $312 forward 7 unknown #
coedge $-1 $245 $313 $309 $314 reversed $279 $-1 #
loop $-1 $-1 $255 $315 #
vertex $-1 $314 $316 #
straight-curve $-1 -0.025000000000000022 -0.5 0.59820231006942914 0 0 -1 I I #
point $-1 -0.025000000000000022 -0.5 0.59820231006942914 #
coedge $-1 $258 $249 $287 $317 reversed $224 $-1 #
vertex $-1 $252 $318 #
straight-curve $-1 -0.025000000000000022 0 0.36719275586542222 0 -1 0 I I #
coedge $-1 $305 $251 $310 $319 reversed $267 $-1 #
coedge $-1 $251 $295 $283 $317 forward $267 $-1 #
vertex $-1 $319 $320 #
straight-curve $-1 -0.025000000000000022 0 0.36719275586542222 0 0 -1 I I #
face $-1 $315 $311 $3 $-1 $321 forward single #
plane-surface $-1 -3 0 0 0 -1 0 1 0 0 forward_v I I I I #
coedge $-1 $313 $255 $302 $322 forward $279 $-1 #
vertex $-1 $322 $323 #
straight-curve $-1 -0.025000000000000022 -0.5 0.59820231006942914 -0.98480775301220824 0 -0.17364817766692919 I I #
coedge $-1 $287 $260 $257 $296 forward $267 $-1 #
edge $-1 $262 0 $297 1.7453292519943366 $295 $324 forward 7 unknown #
vertex $-1 $317 $325 #
straight-curve $-1 -0.23122762677978689 0 0.33082926109667066 0 -1 0 I I #
straight-curve $-1 -0.25249999999999961 0 0.55808792195825363 0 0 -1 I I #
point $-1 -0.2524999999999995 0 0.34867890162001663 #
coedge $-1 $326 $264 $266 $306 reversed $303 $-1 #
coedge $-1 $264 $326 $292 $322 reversed $303 $-1 #
loop $-1 $-1 $326 $327 #
straight-curve $-1 -0.58193297574121872 0 0.5 4.4408920985006262e-016 -1 0 I I #
coedge $-1 $266 $286 $328 $329 forward $267 $-1 #
edge $-1 $330 0 $268 2.4180670242587814 $266 $331 forward 7 unknown #
point $-1 -0.58193297574121849 0 0.5 #
point $-1 -0.23122762677978687 -0.09375 0.33082926109667066 #
coedge $-1 $332 $276 $278 $314 forward $311 $-1 #
coedge $-1 $276 $332 $286 $319 forward $311 $-1 #
loop $-1 $-1 $276 $290 #
straight-curve $-1 -0.025000000000000022 0 0 0 -1 0 I I #
coedge $-1 $278 $292 $333 $334 reversed $279 $-1 #
edge $-1 $280 0 $335 2.9750000000000001 $309 $336 forward 7 unknown #
face $-1 $327 $279 $3 $-1 $337 reversed single #
point $-1 -0.025000000000000022 -0.5 0 #
edge $-1 $297 0 $284 0.20940902033823644 $287 $338 forward 7 unknown #
point $-1 -0.025000000000000355 0 0.36719275586542222 #
edge $-1 $339 0 $288 2.9750000000000001 $310 $340 forward 7 unknown #
point $-1 -0.025000000000000022 0 0 #
plane-surface $-1 0 0 0 0 0 -1 1 0 0 forward_v I I I I #
edge $-1 $293 0 $341 2.4180670242587814 $292 $342 forward 7 unknown #
point $-1 -0.58193297574121849 -0.5 0.5 #
ellipse-curve $-1 -0.234375 0 0.34867890162001663 0 -1 0 -0.018124999999999503 0 0 1 I I #
point $-1 -0.23122762677978681 0 0.33082926109667066 #
coedge $-1 $302 $301 $343 $344 reversed $303 $-1 #
face $-1 $345 $303 $3 $-1 $346 reversed single #
coedge $-1 $347 $343 $305 $329 reversed $348 $-1 #
edge $-1 $339 0 $330 0.5 $305 $349 forward 7 unknown #
vertex $-1 $306 $350 #
straight-curve $-1 -3 0 0.5 1 0 0 I I #
coedge $-1 $310 $309 $347 $351 forward $311 $-1 #
coedge $-1 $343 $347 $313 $334 forward $348 $-1 #
edge $-1 $335 0 $341 0.5 $313 $352 forward 7 unknown #
vertex $-1 $351 $353 #
straight-curve $-1 -0.025000000000000022 -0.5 0 -1 0 0 I I #
plane-surface $-1 0 -0.5 0 0 1 0 -1 0 0 forward_v I I I I #
straight-curve $-1 -0.23122762677978681 0 0.33082926109667066 0.98480775301220846 0 0.17364817766692842 I I #
vertex $-1 $319 $354 #
straight-curve $-1 -3 0 0 1 0 0 I I #
vertex $-1 $334 $355 #
straight-curve $-1 -0.58193297574121849 -0.5 0.5 -1 0 0 I I #
coedge $-1 $328 $333 $326 $344 forward $348 $-1 #
edge $-1 $341 0 $330 0.5 $343 $356 forward 7 unknown #
face $-1 $147 $348 $3 $-1 $357 reversed single #
plane-surface $-1 0 0 0.5 0 0 -1 1 0 0 forward_v I I I I #
coedge $-1 $333 $328 $332 $351 reversed $348 $-1 #
loop $-1 $-1 $333 $345 #
straight-curve $-1 -3 0 0 0 0 1 I I #
point $-1 -3 0 0.5 #
edge $-1 $335 0 $339 0.5 $332 $358 forward 7 unknown #
straight-curve $-1 -3 -0.5 0 0 0 1 I I #
point $-1 -3 -0.5 0 #
point $-1 -3 0 0 #
point $-1 -3 -0.5 0.5 #
straight-curve $-1 -3 -0.5 0.5 0 1 0 I I #
plane-surface $-1 -3 -0.5 0 1 0 0 0 1 0 forward_v I I I I #
straight-curve $-1 -3 -0.5 0 0 1 0 I I #
End-of-ACIS-data 