600 0 1 0           
97 GICL ACIS Healer - Source: /gicl/data5/repository/PTC/V18/mfgintro18/tools/ccfnl_16.prt.sat - 6 0 18 ACIS 6.0.3 Solaris 24 Sat Apr 13 21:58:57 2002 
1 9.999999999999999547e-07 1.000000000000000036e-10 
body $-1 $1 $-1 $-1 #
lump $-1 $-1 $2 $0 #
shell $-1 $-1 $-1 $3 $-1 $1 #
face $-1 $4 $5 $2 $-1 $6 forward single #
face $-1 $7 $8 $2 $-1 $9 forward single #
loop $-1 $-1 $10 $3 #
plane-surface $-1 0 0 0 0 1 0 25.39999999999999858 0 0 forward_v I I I I #
face $-1 $11 $12 $2 $-1 $13 reversed single #
loop $-1 $-1 $14 $4 #
cone-surface $-1 -5.953125 0 14.49840821343859076 0 1 0 0.3968749999999999778 0 0 1 I I 0 1 0.3968749999999999778 forward I I I I #
coedge $-1 $15 $16 $17 $18 forward $5 $-1 #
face $-1 $19 $20 $2 $-1 $21 reversed single #
loop $-1 $-1 $22 $7 #
plane-surface $-1 -6.349999999999999645 0 8.856444101148422732 1 0 0 0 0 25.39999999999999858 forward_v I I I I #
coedge $-1 $23 $17 $24 $25 forward $8 $-1 #
coedge $-1 $26 $10 $27 $28 reversed $5 $-1 #
coedge $-1 $10 $29 $30 $31 forward $5 $-1 #
coedge $-1 $14 $32 $10 $18 reversed $8 $-1 #
edge $-1 $33 0 $34 1.396263401595463138 $10 $35 forward 7 unknown #
face $-1 $36 $37 $2 $-1 $38 reversed single #
loop $-1 $-1 $39 $11 #
plane-surface $-1 0 -2.381249999999999645 0 0 1 0 25.39999999999999858 0 0 forward_v I I I I #
coedge $-1 $24 $40 $41 $42 reversed $12 $-1 #
coedge $-1 $32 $14 $43 $44 forward $8 $-1 #
coedge $-1 $30 $22 $14 $25 reversed $12 $-1 #
edge $-1 $33 0 $45 0.09374999999999998612 $24 $46 forward 7 unknown #
coedge $-1 $47 $15 $48 $49 forward $5 $-1 #
coedge $-1 $50 $51 $15 $28 forward $52 $-1 #
edge $-1 $53 0 $34 0.2221245713500067664 $15 $54 forward 7 unknown #
coedge $-1 $16 $55 $56 $57 forward $5 $-1 #
coedge $-1 $58 $24 $16 $31 reversed $12 $-1 #
edge $-1 $59 0 $33 0.2221245713500063501 $16 $60 forward 7 unknown #
coedge $-1 $17 $23 $50 $61 reversed $8 $-1 #
vertex $-1 $31 $62 #
vertex $-1 $28 $63 #
ellipse-curve $-1 -5.953125 0 14.49840821343859076 0 1 0 -0.3968749999999999778 0 0 1 I I #
face $-1 $64 $65 $2 $-1 $66 reversed single #
loop $-1 $-1 $67 $19 #
plane-surface $-1 -0.3279583794884355363 0 9.445315310733105818 -0.1736481776669294985 0 0.9848077530122082424 -25.01411692651008778 0 -4.410663712740008791 forward_v I I I I #
coedge $-1 $68 $69 $70 $71 reversed $20 $-1 #
coedge $-1 $22 $58 $72 $73 reversed $12 $-1 #
coedge $-1 $74 $43 $22 $42 forward $20 $-1 #
edge $-1 $45 0 $75 0.01227473355999847762 $41 $76 forward 7 unknown #
coedge $-1 $41 $77 $23 $44 reversed $20 $-1 #
edge $-1 $45 -2.629567604781422704e-15 $78 1.396263401595439158 $43 $79 forward 7 unknown #
vertex $-1 $42 $80 #
straight-curve $-1 -6.349999999999999645 0 14.49840821343859076 0 -25.39999999999999858 0 I I #
coedge $-1 $81 $26 $82 $83 reversed $5 $-1 #
coedge $-1 $84 $85 $26 $49 reversed $86 $-1 #
edge $-1 $53 8.149941479051348009e-16 $87 1.745329251994328867 $26 $88 forward 7 unknown #
coedge $-1 $89 $27 $32 $61 forward $52 $-1 #
coedge $-1 $27 $89 $84 $90 reversed $52 $-1 #
loop $-1 $-1 $50 $91 #
vertex $-1 $49 $92 #
straight-curve $-1 -0.4657916205115621433 0 15.86897057697671798 -25.01411692651008778 0 -4.41066371274001412 I I #
coedge $-1 $29 $81 $93 $94 forward $5 $-1 #
coedge $-1 $95 $96 $29 $57 reversed $97 $-1 #
edge $-1 $98 -7.489135413182291995e-16 $59 1.745329251994309772 $29 $99 forward 7 unknown #
coedge $-1 $40 $30 $96 $100 forward $12 $-1 #
vertex $-1 $31 $101 #
straight-curve $-1 -6.349999999999999645 0 8.856444101148429837 0 0 25.39999999999999858 I I #
edge $-1 $34 1.656400850857767328e-31 $78 0.09374999999999998612 $50 $102 forward 7 unknown #
point $-1 -6.349999999999999645 0 14.49840821343859076 #
point $-1 -6.022041620511563664 0 14.88925379041531372 #
face $-1 $103 $104 $2 $-1 $105 reversed single #
loop $-1 $-1 $106 $36 #
plane-surface $-1 -12.69999999999999929 -2.381249999999999645 0 0 -1 0 25.39999999999999858 0 0 forward_v I I I I #
coedge $-1 $107 $70 $108 $109 forward $37 $-1 #
coedge $-1 $110 $39 $111 $112 reversed $20 $-1 #
coedge $-1 $39 $74 $113 $114 reversed $20 $-1 #
coedge $-1 $67 $115 $39 $71 forward $37 $-1 #
edge $-1 $116 6.456828202107390734e-18 $117 0.01227473355999871528 $39 $118 forward 7 unknown #
coedge $-1 $119 $106 $40 $73 forward $65 $-1 #
edge $-1 $75 0 $120 0.2098498377900074596 $40 $121 forward 7 unknown #
coedge $-1 $69 $41 $122 $123 forward $20 $-1 #
vertex $-1 $123 $124 #
straight-curve $-1 -6.349999999999999645 -2.381249999999999645 14.49840821343859076 0 0 -25.39999999999999858 I I #
coedge $-1 $43 $125 $89 $126 reversed $20 $-1 #
vertex $-1 $44 $127 #
ellipse-curve $-1 -5.953124999999992895 -2.381249999999999645 14.49840821343858899 0 1 0 -0.3968750000000070277 0 2.819966482547897455e-15 1 I I #
point $-1 -6.349999999999999645 -2.381249999999999645 14.49840821343859076 #
coedge $-1 $55 $47 $128 $129 forward $5 $-1 #
coedge $-1 $130 $131 $47 $83 forward $132 $-1 #
edge $-1 $133 0 $87 0.2221245713500067664 $47 $134 forward 7 unknown #
coedge $-1 $135 $48 $51 $90 forward $86 $-1 #
coedge $-1 $48 $135 $130 $136 reversed $86 $-1 #
loop $-1 $-1 $84 $137 #
vertex $-1 $83 $138 #
ellipse-curve $-1 -0.3968749999999999778 0 15.47812499999999858 0 1 0 -0.06891662051156242919 0 0.3908455769767190113 1 I I #
coedge $-1 $51 $50 $77 $126 forward $52 $-1 #
edge $-1 $53 0 $139 0.09374999999999998612 $51 $140 forward 7 unknown #
face $-1 $-1 $52 $2 $-1 $141 reversed single #
point $-1 -0.4657916205115621433 0 15.86897057697671798 #
coedge $-1 $115 $107 $55 $94 reversed $37 $-1 #
edge $-1 $142 0 $98 0.2221245713500073493 $55 $143 forward 7 unknown #
coedge $-1 $144 $56 $107 $145 forward $97 $-1 #
coedge $-1 $56 $144 $58 $100 reversed $97 $-1 #
loop $-1 $-1 $96 $146 #
vertex $-1 $57 $147 #
ellipse-curve $-1 -5.953125 0 8.856444101148422732 0 1 0 0.06891662051154806568 0 -0.3908455769767218424 1 I I #
edge $-1 $59 0 $120 0.09374999999999998612 $96 $148 forward 7 unknown #
point $-1 -6.349999999999999645 0 8.856444101148429837 #
straight-curve $-1 -6.022041620511563664 0 14.88925379041531016 -7.519910620127725495e-15 -25.39999999999999858 3.007964248051090198e-14 I I #
face $-1 $149 $150 $2 $-1 $151 reversed single #
loop $-1 $-1 $152 $64 #
plane-surface $-1 -0.635000000000000564 -2.381249999999999645 15.19433867576349861 0.1736481776669291655 0 -0.9848077530122082424 -25.01411692651009488 0 -4.410663712740001685 forward_v I I I I #
coedge $-1 $72 $153 $154 $155 reversed $65 $-1 #
coedge $-1 $93 $67 $95 $145 reversed $37 $-1 #
coedge $-1 $156 $119 $67 $109 reversed $65 $-1 #
edge $-1 $117 1.214413889952913224e-17 $157 0.2098498377900085976 $67 $158 forward 7 unknown #
coedge $-1 $125 $68 $159 $160 forward $20 $-1 #
coedge $-1 $161 $162 $68 $112 forward $163 $-1 #
edge $-1 $164 -5.158428365124538088e-14 $116 1.396263401595423392 $68 $165 forward 7 unknown #
coedge $-1 $166 $167 $69 $114 forward $168 $-1 #
edge $-1 $117 0 $169 0.228470987674292636 $69 $170 forward 7 unknown #
coedge $-1 $70 $93 $161 $171 forward $37 $-1 #
vertex $-1 $112 $172 #
vertex $-1 $114 $173 #
straight-curve $-1 -0.3279583794884355363 -2.381249999999999645 9.445315310733105818 -25.01411692651008423 0 -4.410663712740007902 I I #
coedge $-1 $108 $72 $144 $174 reversed $65 $-1 #
vertex $-1 $174 $175 #
straight-curve $-1 -6.349999999999999645 -2.381249999999999645 14.18662998101462946 0 0 -25.39999999999999858 I I #
coedge $-1 $154 $176 $74 $123 reversed $104 $-1 #
edge $-1 $75 0 $169 0.2284709876742925527 $74 $177 forward 7 unknown #
point $-1 -6.349999999999999645 -2.381249999999999645 14.18662998101462946 #
coedge $-1 $77 $110 $135 $178 reversed $20 $-1 #
edge $-1 $78 0 $139 0.2221245713500067664 $77 $179 forward 7 unknown #
point $-1 -6.022041620511563664 -2.381249999999999645 14.88925379041531372 #
coedge $-1 $162 $161 $81 $129 reversed $163 $-1 #
edge $-1 $133 -7.105427357601034991e-15 $142 1.396263401595457809 $81 $180 forward 7 unknown #
coedge $-1 $159 $82 $85 $136 forward $132 $-1 #
coedge $-1 $82 $159 $162 $181 reversed $132 $-1 #
loop $-1 $-1 $82 $182 #
vertex $-1 $129 $183 #
straight-curve $-1 0 0 9.836160887709826994 0 0 25.39999999999999858 I I #
coedge $-1 $85 $84 $125 $178 forward $86 $-1 #
edge $-1 $87 0 $184 0.09374999999999998612 $85 $185 forward 7 unknown #
face $-1 $91 $86 $2 $-1 $186 forward single #
point $-1 0 0 15.47812499999999858 #
vertex $-1 $126 $187 #
straight-curve $-1 -0.4657916205115628649 0 15.86897057697671798 0 -25.39999999999999858 0 I I #
plane-surface $-1 -3.726332964092502031 0 15.29404916638797118 0.1736481776669296373 0 -0.9848077530122082424 25.01411692651008778 0 4.410663712740012343 forward_v I I I I #
vertex $-1 $94 $188 #
straight-curve $-1 -0.3279583794884354253 0 9.445315310733105818 -25.01411692651008778 0 -4.410663712740007902 I I #
coedge $-1 $96 $95 $119 $174 forward $97 $-1 #
edge $-1 $98 -0 $157 0.09374999999999998612 $107 $189 forward 7 unknown #
face $-1 $190 $97 $2 $-1 $191 forward single #
point $-1 -5.884208379488451435 0 8.465598524171699779 #
straight-curve $-1 -6.349999999999999645 0 8.856444101148422732 0 -25.39999999999999858 0 I I #
face $-1 $192 $193 $2 $-1 $194 reversed single #
loop $-1 $-1 $195 $103 #
plane-surface $-1 -6.413499999999990209 0 14.17543321773964138 -1 0 0 0 0 -25.39999999999999858 forward_v I I I I #
coedge $-1 $196 $154 $197 $198 reversed $104 $-1 #
coedge $-1 $106 $199 $200 $201 reversed $65 $-1 #
coedge $-1 $152 $122 $106 $155 forward $104 $-1 #
edge $-1 $75 0 $202 0.002538566529713976155 $106 $203 forward 7 unknown #
coedge $-1 $204 $108 $167 $205 forward $65 $-1 #
vertex $-1 $145 $206 #
straight-curve $-1 -0.635000000000000564 -2.381249999999999645 9.39117558883646808 -25.01411692651009133 0 -4.410663712740008791 I I #
coedge $-1 $131 $130 $110 $160 reversed $132 $-1 #
edge $-1 $164 7.692883950158565144e-16 $184 0.2221245713500075436 $110 $207 forward 7 unknown #
coedge $-1 $128 $111 $115 $171 reversed $163 $-1 #
coedge $-1 $111 $128 $131 $181 forward $163 $-1 #
loop $-1 $-1 $161 $190 #
vertex $-1 $160 $208 #
ellipse-curve $-1 -0.3968749999999973133 -2.381249999999999645 9.836160887709823442 0 1 0 0.3968749999999973133 0 -1.691979889528738315e-14 1 I I #
coedge $-1 $209 $113 $176 $210 forward $168 $-1 #
coedge $-1 $113 $211 $156 $205 reversed $168 $-1 #
loop $-1 $-1 $212 $213 #
vertex $-1 $114 $214 #
straight-curve $-1 -0.635000000000000564 -2.381249999999999645 9.391175588836466304 0 0 25.39999999999999858 I I #
edge $-1 $142 1.213184216936841252e-34 $116 0.09374999999999998612 $161 $215 forward 7 unknown #
point $-1 -0.3279583794884357029 -2.381249999999999645 9.445315310733105818 #
point $-1 -0.635000000000000564 -2.381249999999999645 9.391175588836466304 #
edge $-1 $157 1.541880820361045732e-16 $120 1.745329251994325759 $144 $216 forward 7 unknown #
point $-1 -6.349999999999999645 -2.381249999999999645 8.856444101148440495 #
coedge $-1 $122 $217 $166 $210 reversed $104 $-1 #
straight-curve $-1 -6.349999999999999645 -2.381249999999999645 14.18662998101462946 25.01411692651008778 0 4.410663712740002573 I I #
edge $-1 $139 8.810747544920361868e-17 $184 1.745329251994332642 $125 $218 forward 7 unknown #
straight-curve $-1 -6.022041620511563664 -2.381249999999999645 14.88925379041531372 25.01411692651008778 0 4.41066371274001412 I I #
ellipse-curve $-1 -0.3968749999999980904 0 9.836160887709826994 0 1 0 0.3968749999999980904 0 -2.819966482547897455e-15 1 I I #
edge $-1 $133 0 $164 0.09374999999999998612 $131 $219 forward 7 unknown #
face $-1 $137 $132 $2 $-1 $220 reversed single #
point $-1 1.894664980461868787e-15 0 9.836160887709826994 #
vertex $-1 $178 $221 #
straight-curve $-1 0 0 15.47812499999999858 0 -25.39999999999999858 0 I I #
cone-surface $-1 -0.3968749999999999778 0 15.47812499999999858 0 1 0 0.3968749999999999778 0 0 1 I I 0 1 0.3968749999999999778 forward I I I I #
point $-1 -0.4657916205115624209 -2.381249999999999645 15.86897057697671798 #
point $-1 -0.3279583794884354253 0 9.445315310733105818 #
straight-curve $-1 -5.884208379488438112 0 8.465598524171703332 0 -25.39999999999999858 0 I I #
face $-1 $182 $163 $2 $-1 $222 forward single #
cone-surface $-1 -5.953125 0 8.856444101148422732 0 1 0 0.3968749999999999778 0 0 1 I I 0 1 0.3968749999999999778 forward I I I I #
face $-1 $213 $223 $2 $-1 $224 reversed single #
loop $-1 $-1 $225 $149 #
cone-surface $-1 -5.953125 0 8.856444101148422732 0 1 0 0.4603749999999925402 0 0 1 I I 0 1 0.4603749999999925402 forward I I I I #
coedge $-1 $226 $200 $227 $228 reversed $150 $-1 #
coedge $-1 $229 $152 $230 $231 reversed $104 $-1 #
coedge $-1 $200 $226 $152 $198 forward $150 $-1 #
edge $-1 $232 0 $202 0.09374999999999998612 $152 $233 forward 7 unknown #
coedge $-1 $153 $204 $234 $235 forward $65 $-1 #
coedge $-1 $195 $197 $153 $201 forward $150 $-1 #
edge $-1 $202 0 $236 0.2094090203382371063 $153 $237 forward 7 unknown #
vertex $-1 $201 $238 #
straight-curve $-1 -6.349999999999999645 -2.381249999999999645 14.18662998101462946 -25.01411692651016239 0 -4.410663712739574471 I I #
coedge $-1 $199 $156 $239 $240 reversed $65 $-1 #
edge $-1 $117 6.993530863780513543e-17 $241 0.002538566529714370371 $156 $242 forward 7 unknown #
point $-1 -5.884208379488452323 -2.381249999999999645 8.465598524171699779 #
straight-curve $-1 0 -2.381249999999999645 9.836160887709807454 0 0 25.39999999999999858 I I #
point $-1 1.894664980461868787e-15 -2.381249999999999645 9.836160887709826994 #
coedge $-1 $243 $166 $244 $245 forward $168 $-1 #
edge $-1 $169 0 $246 0.40625 $166 $247 forward 7 unknown #
coedge $-1 $167 $212 $248 $249 forward $168 $-1 #
coedge $-1 $211 $243 $250 $251 reversed $168 $-1 #
face $-1 $252 $168 $2 $-1 $253 reversed single #
point $-1 -0.635000000000000564 -2.381249999999999645 15.19433867576349861 #
straight-curve $-1 -0.3279583794884355918 0 9.445315310733105818 4.699944137579828434e-16 -25.39999999999999858 0 I I #
ellipse-curve $-1 -5.953124999999998224 -2.381249999999999645 8.856444101148424508 0 1 0 0.06891662051154595625 0 -0.3908455769767246735 1 I I #
coedge $-1 $176 $229 $254 $255 reversed $104 $-1 #
ellipse-curve $-1 -0.396874999999998368 -2.381249999999999645 15.47812499999999858 0 1 0 -0.06891662051156401125 0 0.3908455769767190113 1 I I #
straight-curve $-1 0 0 9.836160887709826994 0 -25.39999999999999858 0 I I #
plane-surface $-1 0 0 15.47812499999999858 -1 0 0 0 0 -25.39999999999999858 forward_v I I I I #
point $-1 0 -2.381249999999999645 15.47812499999999858 #
cone-surface $-1 -0.3968749999999980904 0 9.836160887709826994 0 1 0 0.3968749999999999778 0 0 1 I I 0 1 0.3968749999999999778 forward I I I I #
loop $-1 $-1 $248 $192 #
plane-surface $-1 -5.873181720206586576 0 8.403063231855433912 0.1736481776669283328 0 -0.9848077530122084644 25.01411692651009133 0 4.410663712739978592 forward_v I I I I #
coedge $-1 $256 $234 $257 $258 reversed $193 $-1 #
coedge $-1 $197 $195 $259 $260 reversed $150 $-1 #
coedge $-1 $234 $256 $195 $228 forward $193 $-1 #
edge $-1 $261 0 $236 0.09374999999999998612 $195 $262 forward 7 unknown #
coedge $-1 $217 $196 $263 $264 forward $104 $-1 #
coedge $-1 $259 $265 $196 $231 forward $266 $-1 #
edge $-1 $267 1.37745668311624311e-16 $232 0.3345150104003449254 $230 $268 forward 7 unknown #
vertex $-1 $260 $269 #
straight-curve $-1 -6.413499999999990209 0 14.17543321773964493 0 -25.39999999999999858 0 I I #
coedge $-1 $225 $227 $199 $235 reversed $193 $-1 #
edge $-1 $270 4.583474495722672012e-16 $236 1.745329251994327535 $199 $271 forward 7 unknown #
vertex $-1 $201 $272 #
straight-curve $-1 -6.413499999999990209 -2.381249999999999645 14.17543321773964493 0 0 -25.39999999999999858 I I #
point $-1 -6.413499999999990209 -2.381249999999999645 14.17543321773964493 #
coedge $-1 $248 $257 $204 $240 forward $223 $-1 #
edge $-1 $270 0 $241 0.2094090203382367177 $204 $273 forward 7 unknown #
vertex $-1 $240 $274 #
straight-curve $-1 -0.635000000000000564 -2.381249999999999645 9.39117558883646808 0 0 -25.39999999999999858 I I #
coedge $-1 $212 $209 $275 $276 reversed $168 $-1 #
coedge $-1 $254 $277 $209 $245 reversed $278 $-1 #
edge $-1 $246 0 $279 0.598202310069429144 $244 $280 forward 7 unknown #
vertex $-1 $245 $281 #
straight-curve $-1 -0.635000000000000564 -2.381249999999999645 15.19433867576349861 0 -25.39999999999999858 0 I I #
coedge $-1 $282 $239 $211 $249 reversed $223 $-1 #
edge $-1 $283 0 $241 0.09374999999999998612 $211 $284 forward 7 unknown #
coedge $-1 $285 $286 $212 $251 forward $266 $-1 #
edge $-1 $283 0 $287 0.3671927558654222157 $250 $288 forward 7 unknown #
face $-1 $289 $266 $2 $-1 $290 reversed single #
plane-surface $-1 -0.635000000000000564 -2.381249999999999645 12.69999999999999929 -1 0 0 0 0 25.39999999999999858 forward_v I I I I #
coedge $-1 $291 $244 $217 $255 forward $278 $-1 #
edge $-1 $246 0 $292 0.5655245646043511876 $254 $293 forward 7 unknown #
coedge $-1 $227 $225 $294 $295 reversed $193 $-1 #
coedge $-1 $239 $282 $225 $258 forward $223 $-1 #
edge $-1 $296 0 $270 0.09374999999999998612 $225 $297 forward 7 unknown #
coedge $-1 $294 $230 $226 $260 forward $266 $-1 #
edge $-1 $232 0 $261 0.2094090203382369675 $259 $298 forward 7 unknown #
vertex $-1 $295 $299 #
straight-curve $-1 -6.413499999999990209 0 8.856444101148422732 0 -25.39999999999999858 0 I I #
coedge $-1 $300 $301 $229 $264 reversed $302 $-1 #
edge $-1 $267 9.317254786074943549e-32 $292 0.5 $229 $303 forward 7 unknown #
coedge $-1 $230 $304 $300 $305 forward $266 $-1 #
loop $-1 $-1 $230 $252 #
vertex $-1 $305 $306 #
straight-curve $-1 -14.78109758382695205 0 12.69999999999999929 25.01411692651008778 0 4.410663712740000797 I I #
point $-1 -6.413499999999986656 0 14.17543321773964138 #
vertex $-1 $235 $307 #
ellipse-curve $-1 -5.953124999999996447 -2.381249999999999645 8.856444101148422732 0 1 0 0.07994327979341078749 0 -0.4533808692929878204 1 I I #
point $-1 -6.413499999999990209 -2.381249999999999645 8.856444101148422732 #
straight-curve $-1 -5.873181720206585688 -2.381249999999999645 8.403063231855433912 25.01411692651009488 0 4.410663712739980369 I I #
point $-1 -0.635000000000000564 -2.381249999999999645 9.326695998981723079 #
coedge $-1 $308 $309 $243 $276 forward $310 $-1 #
edge $-1 $287 0 $279 0.5 $275 $311 forward 7 unknown #
coedge $-1 $244 $312 $308 $313 reversed $278 $-1 #
loop $-1 $-1 $254 $314 #
vertex $-1 $313 $315 #
straight-curve $-1 -0.635000000000000564 -12.69999999999999929 15.19433867576349861 0 0 -25.39999999999999858 I I #
point $-1 -0.635000000000000564 -12.69999999999999929 15.19433867576349861 #
coedge $-1 $257 $248 $286 $316 reversed $223 $-1 #
vertex $-1 $251 $317 #
straight-curve $-1 -0.635000000000000564 0 9.326695998981723079 0 -25.39999999999999858 0 I I #
coedge $-1 $304 $250 $309 $318 reversed $266 $-1 #
coedge $-1 $250 $294 $282 $316 forward $266 $-1 #
vertex $-1 $318 $319 #
straight-curve $-1 -0.635000000000000564 0 9.326695998981723079 0 0 -25.39999999999999858 I I #
face $-1 $314 $310 $2 $-1 $320 forward single #
plane-surface $-1 -76.19999999999998863 0 0 0 -1 0 25.39999999999999858 0 0 forward_v I I I I #
coedge $-1 $312 $254 $301 $321 forward $278 $-1 #
vertex $-1 $321 $322 #
straight-curve $-1 -0.635000000000000564 -12.69999999999999929 15.19433867576349861 -25.01411692651008778 0 -4.410663712740001685 I I #
coedge $-1 $286 $259 $256 $295 forward $266 $-1 #
edge $-1 $261 0 $296 1.745329251994336639 $294 $323 forward 7 unknown #
vertex $-1 $316 $324 #
straight-curve $-1 -5.873181720206586576 0 8.403063231855433912 0 -25.39999999999999858 0 I I #
straight-curve $-1 -6.413499999999990209 0 14.17543321773964138 0 0 -25.39999999999999858 I I #
point $-1 -6.413499999999986656 0 8.856444101148422732 #
coedge $-1 $325 $263 $265 $305 reversed $302 $-1 #
coedge $-1 $263 $325 $291 $321 reversed $302 $-1 #
loop $-1 $-1 $325 $326 #
straight-curve $-1 -14.78109758382695382 0 12.69999999999999929 1.127986593019158982e-14 -25.39999999999999858 0 I I #
coedge $-1 $265 $285 $327 $328 forward $266 $-1 #
edge $-1 $329 0 $267 2.418067024258781395 $265 $330 forward 7 unknown #
point $-1 -14.78109758382694849 0 12.69999999999999929 #
point $-1 -5.873181720206585688 -2.381249999999999645 8.403063231855433912 #
coedge $-1 $331 $275 $277 $313 forward $310 $-1 #
coedge $-1 $275 $331 $285 $318 forward $310 $-1 #
loop $-1 $-1 $275 $289 #
straight-curve $-1 -0.635000000000000564 0 0 0 -25.39999999999999858 0 I I #
coedge $-1 $277 $291 $332 $333 reversed $278 $-1 #
edge $-1 $279 0 $334 2.974999999999999645 $308 $335 forward 7 unknown #
face $-1 $326 $278 $2 $-1 $336 reversed single #
point $-1 -0.635000000000000564 -12.69999999999999929 0 #
edge $-1 $296 0 $283 0.2094090203382364124 $286 $337 forward 7 unknown #
point $-1 -0.6350000000000090017 0 9.326695998981723079 #
edge $-1 $338 0 $287 2.974999999999999645 $309 $339 forward 7 unknown #
point $-1 -0.635000000000000564 0 0 #
plane-surface $-1 0 0 0 0 0 -1 25.39999999999999858 0 0 forward_v I I I I #
edge $-1 $292 0 $340 2.418067024258781395 $291 $341 forward 7 unknown #
point $-1 -14.78109758382694849 -12.69999999999999929 12.69999999999999929 #
ellipse-curve $-1 -5.953125 0 8.856444101148422732 0 -1 0 -0.4603749999999873221 0 0 1 I I #
point $-1 -5.873181720206584799 0 8.403063231855433912 #
coedge $-1 $301 $300 $342 $343 reversed $302 $-1 #
face $-1 $344 $302 $2 $-1 $345 reversed single #
coedge $-1 $346 $342 $304 $328 reversed $347 $-1 #
edge $-1 $338 0 $329 0.5 $304 $348 forward 7 unknown #
vertex $-1 $305 $349 #
straight-curve $-1 -76.19999999999998863 0 12.69999999999999929 25.39999999999999858 0 0 I I #
coedge $-1 $309 $308 $346 $350 forward $310 $-1 #
coedge $-1 $342 $346 $312 $333 forward $347 $-1 #
edge $-1 $334 0 $340 0.5 $312 $351 forward 7 unknown #
vertex $-1 $350 $352 #
straight-curve $-1 -0.635000000000000564 -12.69999999999999929 0 -25.39999999999999858 0 0 I I #
plane-surface $-1 0 -12.69999999999999929 0 0 1 0 -25.39999999999999858 0 0 forward_v I I I I #
straight-curve $-1 -5.873181720206584799 0 8.403063231855433912 25.01411692651009488 0 4.410663712739981257 I I #
vertex $-1 $318 $353 #
straight-curve $-1 -76.19999999999998863 0 0 25.39999999999999858 0 0 I I #
vertex $-1 $333 $354 #
straight-curve $-1 -14.78109758382694849 -12.69999999999999929 12.69999999999999929 -25.39999999999999858 0 0 I I #
coedge $-1 $327 $332 $325 $343 forward $347 $-1 #
edge $-1 $340 0 $329 0.5 $342 $355 forward 7 unknown #
face $-1 $146 $347 $2 $-1 $356 reversed single #
plane-surface $-1 0 0 12.69999999999999929 0 0 -1 25.39999999999999858 0 0 forward_v I I I I #
coedge $-1 $332 $327 $331 $350 reversed $347 $-1 #
loop $-1 $-1 $332 $344 #
straight-curve $-1 -76.19999999999998863 0 0 0 0 25.39999999999999858 I I #
point $-1 -76.19999999999998863 0 12.69999999999999929 #
edge $-1 $334 0 $338 0.5 $331 $357 forward 7 unknown #
straight-curve $-1 -76.19999999999998863 -12.69999999999999929 0 0 0 25.39999999999999858 I I #
point $-1 -76.19999999999998863 -12.69999999999999929 0 #
point $-1 -76.19999999999998863 0 0 #
point $-1 -76.19999999999998863 -12.69999999999999929 12.69999999999999929 #
straight-curve $-1 -76.19999999999998863 -12.69999999999999929 12.69999999999999929 0 25.39999999999999858 0 I I #
plane-surface $-1 -76.19999999999998863 -12.69999999999999929 0 1 0 0 0 25.39999999999999858 0 forward_v I I I I #
straight-curve $-1 -76.19999999999998863 -12.69999999999999929 0 0 25.39999999999999858 0 I I #
End-of-ACIS-data 