600 0 1 0           
100 GICL Pro/E ACIS Translator - Source: f:/data5/repository/PTC/V18/mfgintro18/tools/cclnl_16.prt - 6 0 13 ACIS 6.0.3 NT 24 Thu Apr 04 13:34:15 2002 
1 9.9999999999999995e-007 1e-010 
body $-1 $1 $-1 $2 #
lump $-1 $-1 $3 $0 #
transform $-1 1 0 0 0 1 0 0 0 1 0 0 0 25.399999999999999 no_rotate no_reflect no_shear #
shell $-1 $-1 $-1 $4 $-1 $1 #
face $-1 $5 $6 $3 $-1 $7 forward single #
face $-1 $8 $9 $3 $-1 $10 forward single #
loop $-1 $-1 $11 $4 #
plane-surface $-1 0 0 0 0 1 0 1 0 0 forward_v I I I I #
face $-1 $12 $13 $3 $-1 $14 reversed single #
loop $-1 $-1 $15 $5 #
cone-surface $-1 -0.23690432029477829 0 0.59001556800148502 0 1 0 0.015625 0 0 1 I I 0 1 0.015625 forward I I I I #
coedge $-1 $16 $17 $18 $19 forward $6 $-1 #
face $-1 $20 $21 $3 $-1 $22 reversed single #
loop $-1 $-1 $23 $8 #
plane-surface $-1 -0.2718292944509767 0 0.37009805618713892 0.99619469809174566 0 -0.087155742747657694 0.087155742747657694 0 0.99619469809174566 forward_v I I I I #
coedge $-1 $24 $18 $25 $26 forward $9 $-1 #
coedge $-1 $27 $11 $28 $29 reversed $6 $-1 #
coedge $-1 $11 $30 $31 $32 forward $6 $-1 #
coedge $-1 $15 $33 $11 $19 reversed $9 $-1 #
edge $-1 $34 0 $35 1.3962634015954585 $11 $36 forward 7 unknown #
face $-1 $37 $38 $3 $-1 $39 reversed single #
loop $-1 $-1 $40 $12 #
plane-surface $-1 0 -0.09375 0 0 1 0 1 0 0 forward_v I I I I #
coedge $-1 $25 $41 $42 $43 reversed $13 $-1 #
coedge $-1 $33 $15 $44 $45 forward $9 $-1 #
coedge $-1 $31 $23 $15 $26 reversed $13 $-1 #
edge $-1 $34 0 $46 0.09375 $25 $47 forward 7 unknown #
coedge $-1 $48 $16 $49 $50 forward $6 $-1 #
coedge $-1 $51 $52 $16 $29 forward $53 $-1 #
edge $-1 $54 0 $35 0.22212457135000674 $16 $55 forward 7 unknown #
coedge $-1 $17 $56 $57 $58 forward $6 $-1 #
coedge $-1 $59 $25 $17 $32 reversed $13 $-1 #
edge $-1 $60 0 $34 0.22212457135000671 $17 $61 forward 7 unknown #
coedge $-1 $18 $24 $51 $62 reversed $9 $-1 #
vertex $-1 $32 $63 #
vertex $-1 $29 $64 #
ellipse-curve $-1 -0.23690432029477829 0 0.59001556800148502 0 1 0 -0.015565542157683493 0 0.0013618084804322139 1 I I #
face $-1 $65 $66 $3 $-1 $67 reversed single #
loop $-1 $-1 $68 $20 #
plane-surface $-1 -0.033622623518082817 0 0.37253013754753816 -0.087155742747657736 0 0.99619469809174566 -0.99619469809174566 0 -0.087155742747657736 forward_v I I I I #
coedge $-1 $69 $70 $71 $72 reversed $21 $-1 #
coedge $-1 $23 $59 $73 $74 reversed $13 $-1 #
coedge $-1 $75 $44 $23 $43 forward $21 $-1 #
edge $-1 $46 0 $76 0.012274733559998632 $42 $77 forward 7 unknown #
coedge $-1 $42 $78 $24 $45 reversed $21 $-1 #
edge $-1 $46 0 $79 1.396263401595452 $44 $80 forward 7 unknown #
vertex $-1 $43 $81 #
straight-curve $-1 -0.25246986245246178 0 0.59137737648191724 0 -1 0 I I #
coedge $-1 $82 $27 $83 $84 reversed $6 $-1 #
coedge $-1 $85 $86 $27 $50 reversed $87 $-1 #
edge $-1 $54 1.7624790515924246e-015 $88 1.7453292519943187 $27 $89 forward 7 unknown #
coedge $-1 $90 $28 $33 $62 forward $53 $-1 #
coedge $-1 $28 $90 $85 $91 reversed $53 $-1 #
loop $-1 $-1 $51 $92 #
vertex $-1 $50 $93 #
straight-curve $-1 -0.016986808480432131 0 0.62494054215768358 -0.99619469809174566 0 -0.087155742747657944 I I #
coedge $-1 $30 $82 $94 $95 forward $6 $-1 #
coedge $-1 $96 $97 $30 $58 reversed $98 $-1 #
edge $-1 $99 0 $60 1.7453292519943295 $30 $100 forward 7 unknown #
coedge $-1 $41 $31 $97 $101 forward $13 $-1 #
vertex $-1 $32 $102 #
straight-curve $-1 -0.2718292944509767 0 0.37009805618713892 0.087155742747657694 0 0.99619469809174566 I I #
edge $-1 $35 0 $79 0.09375 $51 $103 forward 7 unknown #
point $-1 -0.25246986245246178 0 0.59137737648191724 #
point $-1 -0.23826612877521047 0 0.6055811101591686 #
face $-1 $104 $105 $3 $-1 $106 reversed single #
loop $-1 $-1 $107 $37 #
plane-surface $-1 -0.625 -0.09375 0 0 -1 0 1 0 0 forward_v I I I I #
coedge $-1 $108 $71 $109 $110 forward $38 $-1 #
coedge $-1 $111 $40 $112 $113 reversed $21 $-1 #
coedge $-1 $40 $75 $114 $115 reversed $21 $-1 #
coedge $-1 $68 $116 $40 $72 forward $38 $-1 #
edge $-1 $117 3.3663760286562665e-016 $118 0.012274733559998757 $40 $119 forward 7 unknown #
coedge $-1 $120 $107 $41 $74 forward $66 $-1 #
edge $-1 $76 0 $121 0.20984983779000807 $41 $122 forward 7 unknown #
coedge $-1 $70 $42 $123 $124 forward $21 $-1 #
vertex $-1 $124 $125 #
straight-curve $-1 -0.25246986245246178 -0.09375 0.59137737648191724 -0.087155742747656625 0 -0.99619469809174566 I I #
coedge $-1 $44 $126 $90 $127 reversed $21 $-1 #
vertex $-1 $45 $128 #
ellipse-curve $-1 -0.23690432029477818 -0.09375 0.59001556800148502 0 1 0 -0.015565542157683604 0 0.0013618084804322139 1 I I #
point $-1 -0.25246986245246178 -0.09375 0.59137737648191724 #
coedge $-1 $56 $48 $129 $130 forward $6 $-1 #
coedge $-1 $131 $132 $48 $84 forward $133 $-1 #
edge $-1 $134 0 $88 0.22212457135000688 $48 $135 forward 7 unknown #
coedge $-1 $136 $49 $52 $91 forward $87 $-1 #
coedge $-1 $49 $136 $131 $137 reversed $87 $-1 #
loop $-1 $-1 $85 $138 #
vertex $-1 $84 $139 #
ellipse-curve $-1 -0.015625 0 0.609375 0 1 0 -0.0013618084804321584 0 0.015565542157683576 1 I I #
coedge $-1 $52 $51 $78 $127 forward $53 $-1 #
edge $-1 $54 0 $140 0.09375 $52 $141 forward 7 unknown #
face $-1 $-1 $53 $3 $-1 $142 reversed single #
point $-1 -0.016986808480432131 0 0.62494054215768358 #
coedge $-1 $116 $108 $56 $95 reversed $38 $-1 #
edge $-1 $143 0 $99 0.22212457135000596 $56 $144 forward 7 unknown #
coedge $-1 $145 $57 $108 $146 forward $98 $-1 #
coedge $-1 $57 $145 $59 $101 reversed $98 $-1 #
loop $-1 $-1 $97 $147 #
vertex $-1 $58 $148 #
ellipse-curve $-1 -0.25626375229329318 0 0.36873624770670677 0 1 0 0.0013618084804321584 0 -0.015565542157683521 1 I I #
edge $-1 $60 0 $121 0.09375 $97 $149 forward 7 unknown #
point $-1 -0.2718292944509767 0 0.37009805618713892 #
straight-curve $-1 -0.23826612877521047 0 0.6055811101591686 0 -1 0 I I #
face $-1 $150 $151 $3 $-1 $152 reversed single #
loop $-1 $-1 $153 $65 #
plane-surface $-1 -0.02593808938399822 -0.09375 0.59906191061600167 0.087155742747657347 0 -0.99619469809174566 -0.99619469809174566 0 -0.087155742747657347 forward_v I I I I #
coedge $-1 $73 $154 $155 $156 reversed $66 $-1 #
coedge $-1 $94 $68 $96 $146 reversed $38 $-1 #
coedge $-1 $157 $120 $68 $110 reversed $66 $-1 #
edge $-1 $118 -4.6313051522498916e-017 $158 0.20984983779000779 $68 $159 forward 7 unknown #
coedge $-1 $126 $69 $160 $161 forward $21 $-1 #
coedge $-1 $162 $163 $69 $113 forward $164 $-1 #
edge $-1 $165 0 $117 1.3962634015954227 $69 $166 forward 7 unknown #
coedge $-1 $167 $168 $70 $115 forward $169 $-1 #
edge $-1 $118 0 $170 0.22847098767429258 $70 $171 forward 7 unknown #
coedge $-1 $71 $94 $162 $172 forward $38 $-1 #
vertex $-1 $113 $173 #
vertex $-1 $115 $174 #
straight-curve $-1 -0.033622623518082817 -0.09375 0.37253013754753816 -0.99619469809174543 0 -0.087155742747659942 I I #
coedge $-1 $109 $73 $145 $175 reversed $66 $-1 #
vertex $-1 $175 $176 #
straight-curve $-1 -0.25353967597291305 -0.09375 0.57914935198895778 -0.087155742747657763 0 -0.99619469809174566 I I #
coedge $-1 $155 $177 $75 $124 reversed $105 $-1 #
edge $-1 $76 -6.4976145774223716e-017 $170 0.22847098767429252 $75 $178 forward 7 unknown #
point $-1 -0.25353967597291305 -0.09375 0.57914935198895778 #
coedge $-1 $78 $111 $136 $179 reversed $21 $-1 #
edge $-1 $79 0 $140 0.22212457135000671 $78 $180 forward 7 unknown #
point $-1 -0.23826612877521047 -0.09375 0.6055811101591686 #
coedge $-1 $163 $162 $82 $130 reversed $164 $-1 #
edge $-1 $134 -3.5943470422239467e-015 $143 1.3962634015954969 $82 $181 forward 7 unknown #
coedge $-1 $160 $83 $86 $137 forward $133 $-1 #
coedge $-1 $83 $160 $163 $182 reversed $133 $-1 #
loop $-1 $-1 $132 $183 #
vertex $-1 $130 $184 #
straight-curve $-1 -0.019418889840831458 0 0.38673387122478953 0.087155742747657958 0 0.99619469809174566 I I #
coedge $-1 $86 $85 $126 $179 forward $87 $-1 #
edge $-1 $88 0 $185 0.09375 $86 $186 forward 7 unknown #
face $-1 $92 $87 $3 $-1 $187 forward single #
point $-1 -5.9457842316470652e-005 0 0.60801319151956801 #
vertex $-1 $127 $188 #
straight-curve $-1 -0.016986808480432158 0 0.62494054215768358 0 -1 0 I I #
plane-surface $-1 -0.14683884399010388 0 0.6135799611148216 0.08715574274765793 0 -0.99619469809174566 0.99619469809174566 0 0.08715574274765793 forward_v I I I I #
vertex $-1 $95 $189 #
straight-curve $-1 -0.033622623518083442 0 0.37253013754753811 -0.99619469809174555 0 -0.087155742747657736 I I #
coedge $-1 $97 $96 $120 $175 forward $98 $-1 #
edge $-1 $99 0 $158 0.09375 $108 $190 forward 7 unknown #
face $-1 $191 $98 $3 $-1 $192 forward single #
point $-1 -0.25490194381286102 0 0.35317070554902324 #
straight-curve $-1 -0.2718292944509767 0 0.37009805618713892 0 -1 0 I I #
face $-1 $193 $194 $3 $-1 $195 reversed single #
loop $-1 $-1 $196 $104 #
plane-surface $-1 -0.25606858249056746 0 0.57892810133754613 -0.99619469809174555 0 0.087155742747658582 -0.087155742747658582 0 -0.99619469809174555 forward_v I I I I #
coedge $-1 $197 $155 $198 $199 reversed $105 $-1 #
coedge $-1 $107 $200 $201 $202 reversed $66 $-1 #
coedge $-1 $153 $123 $107 $156 forward $105 $-1 #
edge $-1 $76 6.4976145774226736e-017 $203 0.0025385665297142312 $107 $204 forward 7 unknown #
coedge $-1 $205 $109 $168 $206 forward $66 $-1 #
vertex $-1 $146 $207 #
straight-curve $-1 -0.045850648011042439 -0.09375 0.37146032402708684 -0.99619469809174566 0 -0.087155742747657611 I I #
coedge $-1 $132 $131 $111 $161 reversed $133 $-1 #
edge $-1 $165 -4.5357333903167284e-018 $185 0.22212457135000752 $111 $208 forward 7 unknown #
coedge $-1 $129 $112 $116 $172 reversed $164 $-1 #
coedge $-1 $112 $129 $132 $182 forward $164 $-1 #
loop $-1 $-1 $162 $191 #
vertex $-1 $161 $209 #
ellipse-curve $-1 -0.034984431998515197 -0.09375 0.3880956797052218 0 1 0 0.015565542157683628 0 -0.0013618084804329356 1 I I #
coedge $-1 $210 $114 $177 $211 forward $169 $-1 #
coedge $-1 $114 $212 $157 $206 reversed $169 $-1 #
loop $-1 $-1 $213 $214 #
vertex $-1 $115 $215 #
straight-curve $-1 -0.045850648011042397 -0.09375 0.3714603240270869 0.087155742747658846 0 0.99619469809174543 I I #
edge $-1 $143 6.5738408768417647e-032 $117 0.09375 $162 $216 forward 7 unknown #
point $-1 -0.03362262351808315 -0.09375 0.37253013754753811 #
point $-1 -0.045850648011042397 -0.09375 0.3714603240270869 #
edge $-1 $158 0 $121 1.7453292519943295 $145 $217 forward 7 unknown #
point $-1 -0.2718292944509767 -0.09375 0.37009805618713892 #
coedge $-1 $123 $218 $167 $211 reversed $105 $-1 #
straight-curve $-1 -0.25353967597291299 -0.09375 0.57914935198895789 0.99619469809174566 0 0.087155742747657097 I I #
edge $-1 $140 0 $185 1.7453292519943018 $126 $219 forward 7 unknown #
straight-curve $-1 -0.23826612877521047 -0.09375 0.6055811101591686 0.99619469809174566 0 0.087155742747657944 I I #
ellipse-curve $-1 -0.034984431998514975 0 0.38809567970522174 0 1 0 0.015565542157683507 0 -0.0013618084804322694 1 I I #
edge $-1 $134 0 $165 0.09375 $132 $220 forward 7 unknown #
face $-1 $138 $133 $3 $-1 $221 reversed single #
point $-1 -0.019418889840831458 0 0.38673387122478953 #
vertex $-1 $179 $222 #
straight-curve $-1 -5.9457842316470652e-005 0 0.6080131915195679 -5.5511151231257827e-017 -1 0 I I #
cone-surface $-1 -0.015625 0 0.609375 0 1 0 0.015625 0 0 1 I I 0 1 0.015625 forward I I I I #
point $-1 -0.016986808480432158 -0.09375 0.62494054215768358 #
point $-1 -0.033622623518083442 0 0.37253013754753811 #
straight-curve $-1 -0.25490194381286102 0 0.35317070554902324 0 -1 0 I I #
face $-1 $183 $164 $3 $-1 $223 forward single #
cone-surface $-1 -0.25626375229329318 0 0.36873624770670677 0 1 0 0.015625 0 0 1 I I 0 1 0.015625 forward I I I I #
face $-1 $214 $224 $3 $-1 $225 reversed single #
loop $-1 $-1 $226 $150 #
cone-surface $-1 -0.25626375229329318 0 0.36873624770670677 0 1 0 0.018124999999999968 0 0 1 I I 0 1 0.018124999999999968 forward I I I I #
coedge $-1 $227 $201 $228 $229 reversed $151 $-1 #
coedge $-1 $230 $153 $231 $232 reversed $105 $-1 #
coedge $-1 $201 $227 $153 $199 forward $151 $-1 #
edge $-1 $233 0 $203 0.09375 $153 $234 forward 7 unknown #
coedge $-1 $154 $205 $235 $236 forward $66 $-1 #
coedge $-1 $196 $198 $154 $202 forward $151 $-1 #
edge $-1 $203 0 $237 0.20940902033823688 $154 $238 forward 7 unknown #
vertex $-1 $202 $239 #
straight-curve $-1 -0.25353967597291299 -0.09375 0.57914935198895789 -0.9961946980917431 0 -0.087155742747685352 I I #
coedge $-1 $200 $157 $240 $241 reversed $66 $-1 #
edge $-1 $118 -5.5904678993590352e-017 $242 0.0025385665297143344 $157 $243 forward 7 unknown #
point $-1 -0.25490194381286102 -0.09375 0.35317070554902324 #
straight-curve $-1 -0.019418889840831517 -0.09375 0.38673387122478886 0.087155742747657958 0 0.99619469809174555 I I #
point $-1 -0.019418889840831569 -0.09375 0.38673387122478886 #
coedge $-1 $244 $167 $245 $246 forward $169 $-1 #
edge $-1 $170 0 $247 0.40625 $167 $248 forward 7 unknown #
coedge $-1 $168 $213 $249 $250 forward $169 $-1 #
coedge $-1 $212 $244 $251 $252 reversed $169 $-1 #
face $-1 $253 $169 $3 $-1 $254 reversed single #
point $-1 -0.02593808938399822 -0.09375 0.59906191061600167 #
straight-curve $-1 -0.033622623518082817 0 0.37253013754753822 0 -1 -5.9211894646675012e-016 I I #
ellipse-curve $-1 -0.25626375229329318 -0.09375 0.36873624770670677 0 1 0 0.0013618084804321584 0 -0.015565542157683521 1 I I #
coedge $-1 $177 $230 $255 $256 reversed $105 $-1 #
ellipse-curve $-1 -0.015625000000000132 -0.09375 0.60937499999999989 0 1 0 -0.0013618084804320266 0 0.015565542157683687 1 I I #
straight-curve $-1 -0.019418889840831451 0 0.38673387122478964 0 -1 0 I I #
plane-surface $-1 -5.9457842316475856e-005 0 0.6080131915195679 -0.99619469809174566 0 0.087155742747657958 -0.087155742747657958 0 -0.99619469809174566 forward_v I I I I #
point $-1 -5.9457842316470652e-005 -0.09375 0.60801319151956801 #
cone-surface $-1 -0.034984431998514975 0 0.38809567970522174 0 1 0 0.015625 0 0 1 I I 0 1 0.015625 forward I I I I #
loop $-1 $-1 $249 $193 #
plane-surface $-1 -0.25468405445599196 0 0.35068021880379391 0.087155742747657555 0 -0.99619469809174566 0.99619469809174555 0 0.087155742747657541 forward_v I I I I #
coedge $-1 $257 $235 $258 $259 reversed $194 $-1 #
coedge $-1 $198 $196 $260 $261 reversed $151 $-1 #
coedge $-1 $235 $257 $196 $229 forward $194 $-1 #
edge $-1 $262 0 $237 0.09375 $196 $263 forward 7 unknown #
coedge $-1 $218 $197 $264 $265 forward $105 $-1 #
coedge $-1 $260 $266 $197 $232 forward $267 $-1 #
edge $-1 $268 -1.1059982908309625e-016 $233 0.37034067558895545 $231 $269 forward 7 unknown #
vertex $-1 $261 $270 #
straight-curve $-1 -0.25606858249056746 0 0.57892810133754624 0 -1 0 I I #
coedge $-1 $226 $228 $200 $236 reversed $194 $-1 #
edge $-1 $271 0 $237 1.7453292519943293 $200 $272 forward 7 unknown #
vertex $-1 $202 $273 #
straight-curve $-1 -0.25606858249056746 -0.09375 0.57892810133754624 -0.087155742747658554 0 -0.99619469809174555 I I #
point $-1 -0.25606858249056746 -0.09375 0.57892810133754624 #
coedge $-1 $249 $258 $205 $241 forward $224 $-1 #
edge $-1 $271 0 $242 0.20940902033823672 $205 $274 forward 7 unknown #
vertex $-1 $241 $275 #
straight-curve $-1 -0.045850648011042404 -0.09375 0.37146032402708684 -0.087155742747657972 0 -0.99619469809174555 I I #
coedge $-1 $213 $210 $276 $277 reversed $169 $-1 #
coedge $-1 $255 $278 $210 $246 reversed $279 $-1 #
edge $-1 $247 0 $280 0.60135022979296238 $245 $281 forward 7 unknown #
vertex $-1 $246 $282 #
straight-curve $-1 -0.02593808938399822 -0.09375 0.59906191061600167 0 -1 0 I I #
coedge $-1 $283 $240 $212 $250 reversed $224 $-1 #
edge $-1 $284 0 $242 0.09375 $212 $285 forward 7 unknown #
coedge $-1 $286 $287 $213 $252 forward $267 $-1 #
edge $-1 $284 -3.8366509884365485e-017 $288 0.37034067558895517 $251 $289 forward 7 unknown #
face $-1 $290 $267 $3 $-1 $291 reversed single #
plane-surface $-1 -0.034604883550116816 -0.09375 0.5 -0.99619469809174555 0 0.08715574274765886 0.087155742747658846 0 0.99619469809174543 forward_v I I I I #
coedge $-1 $292 $245 $218 $256 forward $279 $-1 #
edge $-1 $247 0 $293 0.60135022979296215 $255 $294 forward 7 unknown #
coedge $-1 $228 $226 $295 $296 reversed $194 $-1 #
coedge $-1 $240 $283 $226 $259 forward $224 $-1 #
edge $-1 $297 0 $271 0.09375 $226 $298 forward 7 unknown #
coedge $-1 $295 $231 $227 $261 forward $267 $-1 #
edge $-1 $233 -1.4514346849013628e-017 $262 0.20940902033823686 $260 $299 forward 7 unknown #
vertex $-1 $296 $300 #
straight-curve $-1 -0.27431978119620604 0 0.37031594554400804 0 -1 0 I I #
coedge $-1 $301 $302 $230 $265 reversed $303 $-1 #
edge $-1 $268 0 $293 0.5 $230 $304 forward 7 unknown #
coedge $-1 $231 $305 $301 $306 forward $267 $-1 #
loop $-1 $-1 $266 $253 #
vertex $-1 $232 $307 #
straight-curve $-1 -0.62499999999999989 0 0.54665078468692163 0.99619469809174566 0 0.087155742747657305 I I #
point $-1 -0.2560685824905673 0 0.57892810133754613 #
vertex $-1 $236 $308 #
ellipse-curve $-1 -0.25626375229329318 -0.09375 0.36873624770670682 0 1 0 0.0015796978373012749 0 -0.018056028902912913 1 I I #
point $-1 -0.27431978119620604 -0.09375 0.37031594554400815 #
straight-curve $-1 -0.2546840544559919 -0.09375 0.35068021880379391 0.99619469809174566 0 0.087155742747657569 I I #
point $-1 -0.046071898662453981 -0.09375 0.36893141750943226 #
coedge $-1 $309 $310 $244 $277 forward $311 $-1 #
edge $-1 $288 0 $280 0.5 $276 $312 forward 7 unknown #
coedge $-1 $245 $313 $309 $314 reversed $279 $-1 #
loop $-1 $-1 $255 $315 #
vertex $-1 $314 $316 #
straight-curve $-1 -0.02593808938399822 -0.5 0.59906191061600167 -0.08715574274765886 0 -0.99619469809174543 I I #
point $-1 -0.02593808938399822 -0.5 0.59906191061600167 #
coedge $-1 $258 $249 $287 $317 reversed $224 $-1 #
vertex $-1 $252 $318 #
straight-curve $-1 -0.046071898662454008 0 0.36893141750943226 0 -1 0 I I #
coedge $-1 $319 $251 $310 $320 reversed $267 $-1 #
coedge $-1 $251 $295 $283 $317 forward $267 $-1 #
vertex $-1 $320 $321 #
straight-curve $-1 -0.046071898662454008 0 0.3689314175094322 -0.087155742747658888 0 -0.99619469809174555 I I #
face $-1 $322 $303 $3 $-1 $323 reversed single #
plane-surface $-1 -3 0 0 0 -1 0 1 0 0 forward_v I I I I #
coedge $-1 $324 $255 $302 $325 forward $279 $-1 #
vertex $-1 $325 $326 #
straight-curve $-1 -0.02593808938399822 -0.5 0.59906191061600167 -0.99619469809174566 0 -0.087155742747657361 I I #
coedge $-1 $287 $260 $257 $296 forward $267 $-1 #
edge $-1 $262 0 $297 1.7453292519943322 $295 $327 forward 7 unknown #
vertex $-1 $317 $328 #
straight-curve $-1 -0.25468405445599196 0 0.35068021880379391 0 -1 0 I I #
straight-curve $-1 -0.25606858249056746 0 0.57892810133754613 -0.087155742747658554 0 -0.99619469809174555 I I #
point $-1 -0.27431978119620615 0 0.3703159455440081 #
coedge $-1 $329 $264 $266 $306 reversed $303 $-1 #
coedge $-1 $264 $329 $292 $325 reversed $303 $-1 #
loop $-1 $-1 $301 $290 #
straight-curve $-1 -0.625 0 0.54665078468692163 0 -1 0 I I #
coedge $-1 $266 $319 $330 $331 forward $267 $-1 #
edge $-1 $332 0 $268 0.046650784686921631 $266 $333 forward 7 unknown #
point $-1 -0.625 0 0.54665078468692163 #
point $-1 -0.2546840544559919 -0.09375 0.35068021880379391 #
coedge $-1 $334 $276 $278 $314 forward $311 $-1 #
coedge $-1 $276 $334 $286 $320 forward $311 $-1 #
loop $-1 $-1 $276 $335 #
straight-curve $-1 -0.078349215313079174 0 0 0 -1 0 I I #
coedge $-1 $278 $324 $336 $337 reversed $279 $-1 #
edge $-1 $280 -1.9428902930940239e-016 $338 2.9216507846869204 $309 $339 forward 7 unknown #
face $-1 $335 $279 $3 $-1 $340 reversed single #
point $-1 -0.078349215313079174 -0.5 0 #
edge $-1 $297 0 $284 0.20940902033823641 $287 $341 forward 7 unknown #
point $-1 -0.046071898662454203 0 0.36893141750943226 #
coedge $-1 $305 $286 $342 $343 forward $267 $-1 #
edge $-1 $344 0 $288 2.9216507846869209 $310 $345 forward 7 unknown #
point $-1 -0.078349215313079174 0 0 #
face $-1 $346 $347 $3 $-1 $348 reversed single #
plane-surface $-1 -0.625 -0.09375 0.54665078468692163 1 0 0 0 0 -1 forward_v I I I I #
coedge $-1 $313 $292 $349 $350 forward $279 $-1 #
edge $-1 $293 0 $351 0.046650784686921631 $292 $352 forward 7 unknown #
point $-1 -0.625 -0.5 0.54665078468692163 #
ellipse-curve $-1 -0.25626375229329318 0 0.36873624770670677 0 -1 0 -0.018056028902912968 0 0.0015796978373013304 1 I I #
point $-1 -0.25468405445599185 0 0.35068021880379391 #
coedge $-1 $302 $301 $353 $354 forward $303 $-1 #
coedge $-1 $355 $353 $305 $331 reversed $347 $-1 #
edge $-1 $356 0 $332 2.375 $305 $357 forward 7 unknown #
vertex $-1 $331 $358 #
straight-curve $-1 -0.625 0 0.5 0 0 1 I I #
coedge $-1 $310 $309 $359 $360 forward $311 $-1 #
face $-1 $147 $311 $3 $-1 $361 forward single #
coedge $-1 $362 $359 $313 $337 forward $363 $-1 #
edge $-1 $338 0 $364 0.5 $313 $365 forward 7 unknown #
vertex $-1 $360 $366 #
straight-curve $-1 -0.078349215313079368 -0.5 0 -1 0 0 I I #
plane-surface $-1 0 -0.5 0 0 1 0 -1 0 0 forward_v I I I I #
straight-curve $-1 -0.25468405445599185 0 0.35068021880379391 0.99619469809174555 0 0.08715574274765768 I I #
coedge $-1 $359 $362 $319 $343 reversed $363 $-1 #
edge $-1 $344 0 $356 0.5 $319 $367 forward 7 unknown #
vertex $-1 $320 $368 #
straight-curve $-1 -3 0 0 1 0 0 I I #
face $-1 $315 $363 $3 $-1 $369 reversed single #
loop $-1 $-1 $330 $322 #
plane-surface $-1 0 0 0.5 0 0 -1 1 0 0 forward_v I I I I #
coedge $-1 $353 $355 $324 $350 reversed $347 $-1 #
edge $-1 $351 0 $364 2.375 $324 $370 forward 7 unknown #
vertex $-1 $350 $371 #
straight-curve $-1 -0.625 -0.5 0.54665078468692163 0 0 -1 I I #
coedge $-1 $330 $349 $329 $354 reversed $347 $-1 #
edge $-1 $332 0 $351 0.5 $329 $372 forward 7 unknown #
coedge $-1 $349 $330 $362 $373 reversed $347 $-1 #
vertex $-1 $331 $374 #
straight-curve $-1 -3 0 0.5 1 0 0 I I #
point $-1 -0.625 0 0.5 #
coedge $-1 $336 $342 $334 $360 reversed $363 $-1 #
edge $-1 $338 0 $344 0.5 $334 $375 forward 7 unknown #
plane-surface $-1 0 0 0 0 0 -1 1 0 0 forward_v I I I I #
coedge $-1 $342 $336 $355 $373 forward $363 $-1 #
loop $-1 $-1 $336 $346 #
vertex $-1 $337 $376 #
straight-curve $-1 -3 -0.5 0 0 0 1 I I #
point $-1 -3 -0.5 0 #
straight-curve $-1 -3 0 0 0 0 1 I I #
point $-1 -3 0 0 #
plane-surface $-1 -3 -0.5 0 1 0 0 0 1 0 forward_v I I I I #
straight-curve $-1 -0.625 -0.5 0.5 -1 0 0 I I #
point $-1 -0.625 -0.5 0.5 #
straight-curve $-1 -0.625 0 0.5 0 -1 0 I I #
edge $-1 $364 0 $356 0.5 $362 $377 forward 7 unknown #
point $-1 -3 0 0.5 #
straight-curve $-1 -3 -0.5 0 0 1 0 I I #
point $-1 -3 -0.5 0.5 #
straight-curve $-1 -3 -0.5 0.5 0 1 0 I I #
End-of-ACIS-data 