600 0 1 0           
97 GICL ACIS Healer - Source: /gicl/data5/repository/PTC/V18/mfgintro18/tools/cclnl_16.prt.sat - 6 0 18 ACIS 6.0.3 Solaris 24 Sat Apr 13 21:58:58 2002 
1 9.999999999999999547e-07 1.000000000000000036e-10 
body $-1 $1 $-1 $-1 #
lump $-1 $-1 $2 $0 #
shell $-1 $-1 $-1 $3 $-1 $1 #
face $-1 $4 $5 $2 $-1 $6 forward single #
face $-1 $7 $8 $2 $-1 $9 forward single #
loop $-1 $-1 $10 $3 #
plane-surface $-1 0 0 0 0 1 0 25.39999999999999858 0 0 forward_v I I I I #
face $-1 $11 $12 $2 $-1 $13 reversed single #
loop $-1 $-1 $14 $4 #
cone-surface $-1 -6.01736973548736831 0 14.98639542723771889 0 1 0 0.3968749999999999778 0 0 1 I I 0 1 0.3968749999999999778 forward I I I I #
coedge $-1 $15 $16 $17 $18 forward $5 $-1 #
face $-1 $19 $20 $2 $-1 $21 reversed single #
loop $-1 $-1 $22 $7 #
plane-surface $-1 -6.904464079054807968 0 9.400490627153327949 0.9961946980917456562 0 -0.08715574274765769403 2.213755865790505428 0 25.3033453315303376 forward_v I I I I #
coedge $-1 $23 $17 $24 $25 forward $8 $-1 #
coedge $-1 $26 $10 $27 $28 reversed $5 $-1 #
coedge $-1 $10 $29 $30 $31 forward $5 $-1 #
coedge $-1 $14 $32 $10 $18 reversed $8 $-1 #
edge $-1 $33 9.251284922166375955e-16 $34 1.396263401595458031 $10 $35 forward 7 unknown #
face $-1 $36 $37 $2 $-1 $38 reversed single #
loop $-1 $-1 $39 $11 #
plane-surface $-1 0 -2.381249999999999645 0 0 1 0 25.39999999999999858 0 0 forward_v I I I I #
coedge $-1 $24 $40 $41 $42 reversed $12 $-1 #
coedge $-1 $32 $14 $43 $44 forward $8 $-1 #
coedge $-1 $30 $22 $14 $25 reversed $12 $-1 #
edge $-1 $33 0 $45 0.09374999999999998612 $24 $46 forward 7 unknown #
coedge $-1 $47 $15 $48 $49 forward $5 $-1 #
coedge $-1 $50 $51 $15 $28 forward $52 $-1 #
edge $-1 $53 0 $34 0.2221245713500066554 $15 $54 forward 7 unknown #
coedge $-1 $16 $55 $56 $57 forward $5 $-1 #
coedge $-1 $58 $24 $16 $31 reversed $12 $-1 #
edge $-1 $59 0 $33 0.2221245713500067387 $16 $60 forward 7 unknown #
coedge $-1 $17 $23 $50 $61 reversed $8 $-1 #
vertex $-1 $31 $62 #
vertex $-1 $28 $63 #
ellipse-curve $-1 -6.01736973548736831 0 14.98639542723771889 0 1 0 -0.3953647708051606924 0 0.03458993540297822938 1 I I #
face $-1 $64 $65 $2 $-1 $66 reversed single #
loop $-1 $-1 $67 $19 #
plane-surface $-1 -0.8540146373593034967 0 9.462265493707468167 -0.08715574274765773566 0 0.9961946980917456562 -25.3033453315303376 0 -2.213755865790506316 forward_v I I I I #
coedge $-1 $68 $69 $70 $71 reversed $20 $-1 #
coedge $-1 $22 $58 $72 $73 reversed $12 $-1 #
coedge $-1 $74 $43 $22 $42 forward $20 $-1 #
edge $-1 $45 0 $75 0.01227473355999861987 $41 $76 forward 7 unknown #
coedge $-1 $41 $77 $23 $44 reversed $20 $-1 #
edge $-1 $45 9.581687955100756543e-16 $78 1.396263401595452036 $43 $79 forward 7 unknown #
vertex $-1 $42 $80 #
straight-curve $-1 -6.412734506292529169 0 15.0209853626406975 0 -25.39999999999999858 0 I I #
coedge $-1 $81 $26 $82 $83 reversed $5 $-1 #
coedge $-1 $84 $85 $26 $49 reversed $86 $-1 #
edge $-1 $53 1.740122640121755239e-15 $87 1.745329251994315989 $26 $88 forward 7 unknown #
coedge $-1 $89 $27 $32 $61 forward $52 $-1 #
coedge $-1 $27 $89 $84 $90 reversed $52 $-1 #
loop $-1 $-1 $50 $91 #
vertex $-1 $49 $92 #
straight-curve $-1 -0.4314649354029760908 0 15.87348977080516121 -25.3033453315303376 0 -2.213755865790511645 I I #
coedge $-1 $29 $81 $93 $94 forward $5 $-1 #
coedge $-1 $95 $96 $29 $57 reversed $97 $-1 #
edge $-1 $98 -1.541880820361061016e-16 $59 1.745329251994329534 $29 $99 forward 7 unknown #
coedge $-1 $40 $30 $96 $100 forward $12 $-1 #
vertex $-1 $31 $101 #
straight-curve $-1 -6.904464079054807968 0 9.400490627153327949 2.213755865790505428 0 25.3033453315303376 I I #
edge $-1 $34 0 $78 0.09374999999999998612 $50 $102 forward 7 unknown #
point $-1 -6.412734506292529169 0 15.0209853626406975 #
point $-1 -6.051959670890346032 0 15.38176019804288153 #
face $-1 $103 $104 $2 $-1 $105 reversed single #
loop $-1 $-1 $106 $36 #
plane-surface $-1 -15.875 -2.381249999999999645 0 0 -1 0 25.39999999999999858 0 0 forward_v I I I I #
coedge $-1 $107 $70 $108 $109 forward $37 $-1 #
coedge $-1 $110 $39 $111 $112 reversed $20 $-1 #
coedge $-1 $39 $74 $113 $114 reversed $20 $-1 #
coedge $-1 $67 $115 $39 $71 forward $37 $-1 #
edge $-1 $116 3.309286224533587339e-16 $117 0.01227473355999875344 $39 $118 forward 7 unknown #
coedge $-1 $119 $106 $40 $73 forward $65 $-1 #
edge $-1 $75 0 $120 0.2098498377900081258 $40 $121 forward 7 unknown #
coedge $-1 $69 $41 $122 $123 forward $20 $-1 #
vertex $-1 $123 $124 #
straight-curve $-1 -6.412734506292529169 -2.381249999999999645 15.0209853626406975 -2.213755865790478339 0 -25.3033453315303376 I I #
coedge $-1 $43 $125 $89 $126 reversed $20 $-1 #
vertex $-1 $44 $127 #
ellipse-curve $-1 -6.017369735487365645 -2.381249999999999645 14.98639542723771889 0 1 0 -0.3953647708051635234 0 0.03458993540297822938 1 I I #
point $-1 -6.412734506292529169 -2.381249999999999645 15.0209853626406975 #
coedge $-1 $55 $47 $128 $129 forward $5 $-1 #
coedge $-1 $130 $131 $47 $83 forward $132 $-1 #
edge $-1 $133 0 $87 0.2221245713500067942 $47 $134 forward 7 unknown #
coedge $-1 $135 $48 $51 $90 forward $86 $-1 #
coedge $-1 $48 $135 $130 $136 reversed $86 $-1 #
loop $-1 $-1 $84 $137 #
vertex $-1 $83 $138 #
ellipse-curve $-1 -0.3968749999999999778 0 15.47812499999999858 0 1 0 -0.03458993540297682079 0 0.3953647708051628018 1 I I #
coedge $-1 $51 $50 $77 $126 forward $52 $-1 #
edge $-1 $53 0 $139 0.09374999999999998612 $51 $140 forward 7 unknown #
face $-1 $-1 $52 $2 $-1 $141 reversed single #
point $-1 -0.4314649354029760908 0 15.87348977080516121 #
coedge $-1 $115 $107 $55 $94 reversed $37 $-1 #
edge $-1 $142 0 $98 0.2221245713500059893 $55 $143 forward 7 unknown #
coedge $-1 $144 $56 $107 $145 forward $97 $-1 #
coedge $-1 $56 $144 $58 $100 reversed $97 $-1 #
loop $-1 $-1 $96 $146 #
vertex $-1 $57 $147 #
ellipse-curve $-1 -6.509099308249646221 0 9.365900691750351115 0 1 0 0.03458993540297682079 0 -0.395364770805161414 1 I I #
edge $-1 $59 0 $120 0.09374999999999998612 $96 $148 forward 7 unknown #
point $-1 -6.904464079054807968 0 9.400490627153327949 #
straight-curve $-1 -6.051959670890346032 0 15.38176019804288153 0 -25.39999999999999858 0 I I #
face $-1 $149 $150 $2 $-1 $151 reversed single #
loop $-1 $-1 $152 $64 #
plane-surface $-1 -0.6588274703535547117 -2.381249999999999645 15.21617252964644074 0.08715574274765734708 0 -0.9961946980917456562 -25.3033453315303376 0 -2.213755865790496546 forward_v I I I I #
coedge $-1 $72 $153 $154 $155 reversed $65 $-1 #
coedge $-1 $93 $67 $95 $145 reversed $37 $-1 #
coedge $-1 $156 $119 $67 $109 reversed $65 $-1 #
edge $-1 $117 -4.963850356510916827e-17 $157 0.2098498377900077649 $67 $158 forward 7 unknown #
coedge $-1 $125 $68 $159 $160 forward $20 $-1 #
coedge $-1 $161 $162 $68 $112 forward $163 $-1 #
edge $-1 $164 -4.845911149706075829e-16 $116 1.396263401595422282 $68 $165 forward 7 unknown #
coedge $-1 $166 $167 $69 $114 forward $168 $-1 #
edge $-1 $117 0 $169 0.2284709876742925527 $69 $170 forward 7 unknown #
coedge $-1 $70 $93 $161 $171 forward $37 $-1 #
vertex $-1 $112 $172 #
vertex $-1 $114 $173 #
straight-curve $-1 -0.8540146373593034967 -2.381249999999999645 9.462265493707468167 -25.30334533153033405 0 -2.213755865790562272 I I #
coedge $-1 $108 $72 $144 $174 reversed $65 $-1 #
vertex $-1 $174 $175 #
straight-curve $-1 -6.439907769711990859 -2.381249999999999645 14.71039354051952763 -2.213755865790507205 0 -25.3033453315303376 I I #
coedge $-1 $154 $176 $74 $123 reversed $104 $-1 #
edge $-1 $75 -4.092985560581021433e-17 $169 0.2284709876742925527 $74 $177 forward 7 unknown #
point $-1 -6.439907769711990859 -2.381249999999999645 14.71039354051952763 #
coedge $-1 $77 $110 $135 $178 reversed $20 $-1 #
edge $-1 $78 0 $139 0.2221245713500066554 $77 $179 forward 7 unknown #
point $-1 -6.051959670890346032 -2.381249999999999645 15.38176019804288153 #
coedge $-1 $162 $161 $81 $129 reversed $163 $-1 #
edge $-1 $133 -7.11467864252317567e-15 $142 1.396263401595496667 $81 $180 forward 7 unknown #
coedge $-1 $159 $82 $85 $136 forward $132 $-1 #
coedge $-1 $82 $159 $162 $181 reversed $132 $-1 #
loop $-1 $-1 $131 $182 #
vertex $-1 $129 $183 #
straight-curve $-1 -0.4932398019571190284 0 9.823040329109653968 2.21375586579051209 0 25.3033453315303376 I I #
coedge $-1 $85 $84 $125 $178 forward $86 $-1 #
edge $-1 $87 0 $184 0.09374999999999998612 $85 $185 forward 7 unknown #
face $-1 $91 $86 $2 $-1 $186 forward single #
point $-1 -0.00151022919483835452 0 15.44353506459702707 #
vertex $-1 $126 $187 #
straight-curve $-1 -0.4314649354029768125 0 15.87348977080516121 0 -25.39999999999999858 0 I I #
plane-surface $-1 -3.729706637348638498 0 15.58493101231646705 0.08715574274765792995 0 -0.9961946980917456562 25.3033453315303376 0 2.213755865790511201 forward_v I I I I #
vertex $-1 $94 $188 #
straight-curve $-1 -0.8540146373593193729 0 9.462265493707468167 -25.30334533153033405 0 -2.213755865790506316 I I #
coedge $-1 $96 $95 $119 $174 forward $97 $-1 #
edge $-1 $98 0 $157 0.09374999999999998612 $107 $189 forward 7 unknown #
face $-1 $190 $97 $2 $-1 $191 forward single #
point $-1 -6.474509372846669386 0 8.970535920945190256 #
straight-curve $-1 -6.904464079054807968 0 9.400490627153327949 0 -25.39999999999999858 0 I I #
face $-1 $192 $193 $2 $-1 $194 reversed single #
loop $-1 $-1 $195 $103 #
plane-surface $-1 -6.504141995260413367 0 14.70477377397367036 -0.9961946980917455452 0 0.0871557427476585822 -2.213755865790528077 0 -25.30334533153033405 forward_v I I I I #
coedge $-1 $196 $154 $197 $198 reversed $104 $-1 #
coedge $-1 $106 $199 $200 $201 reversed $65 $-1 #
coedge $-1 $152 $122 $106 $155 forward $104 $-1 #
edge $-1 $75 4.092985560581210636e-17 $202 0.002538566529714220751 $106 $203 forward 7 unknown #
coedge $-1 $204 $108 $167 $205 forward $65 $-1 #
vertex $-1 $145 $206 #
straight-curve $-1 -1.164606459480477918 -2.381249999999999645 9.4350922302880047 -25.3033453315303376 0 -2.213755865790503208 I I #
coedge $-1 $131 $130 $110 $160 reversed $132 $-1 #
edge $-1 $164 -4.380970833691748785e-18 $184 0.2221245713500075714 $110 $207 forward 7 unknown #
coedge $-1 $128 $111 $115 $171 reversed $163 $-1 #
coedge $-1 $111 $128 $131 $181 forward $163 $-1 #
loop $-1 $-1 $161 $190 #
vertex $-1 $160 $208 #
ellipse-curve $-1 -0.8886045727622859935 -2.381249999999999645 9.857630264512632579 0 1 0 0.3953647708051641341 0 -0.03458993540299656194 1 I I #
coedge $-1 $209 $113 $176 $210 forward $168 $-1 #
coedge $-1 $113 $211 $156 $205 reversed $168 $-1 #
loop $-1 $-1 $212 $213 #
vertex $-1 $114 $214 #
straight-curve $-1 -1.164606459480476808 -2.381249999999999645 9.435092230288006476 2.213755865790534738 0 25.30334533153033405 I I #
edge $-1 $142 4.141002127144418321e-32 $116 0.09374999999999998612 $161 $215 forward 7 unknown #
point $-1 -0.8540146373593119344 -2.381249999999999645 9.462265493707468167 #
point $-1 -1.164606459480476808 -2.381249999999999645 9.435092230288006476 #
edge $-1 $157 -1.541880820361061016e-16 $120 1.745329251994329534 $144 $216 forward 7 unknown #
point $-1 -6.904464079054807968 -2.381249999999999645 9.400490627153327949 #
coedge $-1 $122 $217 $166 $210 reversed $104 $-1 #
straight-curve $-1 -6.439907769711989971 -2.381249999999999645 14.71039354051952941 25.3033453315303376 0 2.213755865790490329 I I #
edge $-1 $139 -3.30403032934507102e-16 $184 1.745329251994301778 $125 $218 forward 7 unknown #
straight-curve $-1 -6.051959670890346032 -2.381249999999999645 15.38176019804288153 25.3033453315303376 0 2.213755865790511645 I I #
ellipse-curve $-1 -0.8886045727622803314 0 9.857630264512630802 0 1 0 0.3953647708051610254 0 -0.03458993540297964492 1 I I #
edge $-1 $133 -0 $164 0.09374999999999998612 $131 $219 forward 7 unknown #
face $-1 $137 $132 $2 $-1 $220 reversed single #
point $-1 -0.4932398019571190284 0 9.823040329109653968 #
vertex $-1 $178 $221 #
straight-curve $-1 -0.00151022919483835452 0 15.44353506459702352 -1.409983241273948727e-15 -25.39999999999999858 0 I I #
cone-surface $-1 -0.3968749999999999778 0 15.47812499999999858 0 1 0 0.3968749999999999778 0 0 1 I I 0 1 0.3968749999999999778 forward I I I I #
point $-1 -0.4314649354029768125 -2.381249999999999645 15.87348977080516121 #
point $-1 -0.8540146373593193729 0 9.462265493707468167 #
straight-curve $-1 -6.474509372846669386 0 8.970535920945190256 0 -25.39999999999999858 0 I I #
face $-1 $182 $163 $2 $-1 $222 forward single #
cone-surface $-1 -6.509099308249646221 0 9.365900691750351115 0 1 0 0.3968749999999999778 0 0 1 I I 0 1 0.3968749999999999778 forward I I I I #
face $-1 $213 $223 $2 $-1 $224 reversed single #
loop $-1 $-1 $225 $149 #
cone-surface $-1 -6.509099308249646221 0 9.365900691750351115 0 1 0 0.460374999999999146 0 0 1 I I 0 1 0.460374999999999146 forward I I I I #
coedge $-1 $226 $200 $227 $228 reversed $150 $-1 #
coedge $-1 $229 $152 $230 $231 reversed $104 $-1 #
coedge $-1 $200 $226 $152 $198 forward $150 $-1 #
edge $-1 $232 0 $202 0.09374999999999998612 $152 $233 forward 7 unknown #
coedge $-1 $153 $204 $234 $235 forward $65 $-1 #
coedge $-1 $195 $197 $153 $201 forward $150 $-1 #
edge $-1 $202 0 $236 0.2094090203382368842 $153 $237 forward 7 unknown #
vertex $-1 $201 $238 #
straight-curve $-1 -6.439907769711989971 -2.381249999999999645 14.71039354051952941 -25.30334533153027365 0 -2.213755865791207977 I I #
coedge $-1 $199 $156 $239 $240 reversed $65 $-1 #
edge $-1 $117 -7.043109164546816793e-17 $241 0.002538566529714285369 $156 $242 forward 7 unknown #
point $-1 -6.474509372846669386 -2.381249999999999645 8.970535920945190256 #
straight-curve $-1 -0.4932398019571205272 -2.381249999999999645 9.823040329109636204 2.21375586579051209 0 25.30334533153033405 I I #
point $-1 -0.493239801957121804 -2.381249999999999645 9.823040329109636204 #
coedge $-1 $243 $166 $244 $245 forward $168 $-1 #
edge $-1 $169 0 $246 0.40625 $166 $247 forward 7 unknown #
coedge $-1 $167 $212 $248 $249 forward $168 $-1 #
coedge $-1 $211 $243 $250 $251 reversed $168 $-1 #
face $-1 $252 $168 $2 $-1 $253 reversed single #
point $-1 -0.6588274703535547117 -2.381249999999999645 15.21617252964644074 #
straight-curve $-1 -0.8540146373593034967 0 9.462265493707469943 0 -25.39999999999999858 -1.503982124025545099e-14 I I #
ellipse-curve $-1 -6.509099308249646221 -2.381249999999999645 9.365900691750351115 0 1 0 0.03458993540297682079 0 -0.395364770805161414 1 I I #
coedge $-1 $176 $229 $254 $255 reversed $104 $-1 #
ellipse-curve $-1 -0.3968750000000033085 -2.381249999999999645 15.4781249999999968 0 1 0 -0.03458993540297347624 0 0.3953647708051656329 1 I I #
straight-curve $-1 -0.4932398019571188619 0 9.823040329109655744 0 -25.39999999999999858 0 I I #
plane-surface $-1 -0.001510229194838486576 0 15.44353506459702352 -0.9961946980917456562 0 0.0871557427476579577 -2.21375586579051209 0 -25.3033453315303376 forward_v I I I I #
point $-1 -0.00151022919483835452 -2.381249999999999645 15.44353506459702707 #
cone-surface $-1 -0.8886045727622803314 0 9.857630264512630802 0 1 0 0.3968749999999999778 0 0 1 I I 0 1 0.3968749999999999778 forward I I I I #
loop $-1 $-1 $248 $192 #
plane-surface $-1 -6.468974983182195437 0 8.907277557616364305 0.08715574274765755525 0 -0.9961946980917456562 25.30334533153033405 0 2.213755865790501431 forward_v I I I I #
coedge $-1 $256 $234 $257 $258 reversed $193 $-1 #
coedge $-1 $197 $195 $259 $260 reversed $150 $-1 #
coedge $-1 $234 $256 $195 $228 forward $193 $-1 #
edge $-1 $261 0 $236 0.09374999999999998612 $195 $262 forward 7 unknown #
coedge $-1 $217 $196 $263 $264 forward $104 $-1 #
coedge $-1 $259 $265 $196 $231 forward $266 $-1 #
edge $-1 $267 -1.393383673487826962e-16 $232 0.370340675588955559 $230 $268 forward 7 unknown #
vertex $-1 $260 $269 #
straight-curve $-1 -6.504141995260413367 0 14.70477377397367391 0 -25.39999999999999858 0 I I #
coedge $-1 $225 $227 $199 $235 reversed $193 $-1 #
edge $-1 $270 -2.61912828327000539e-16 $236 1.745329251994330644 $199 $271 forward 7 unknown #
vertex $-1 $201 $272 #
straight-curve $-1 -6.504141995260413367 -2.381249999999999645 14.70477377397367391 -2.213755865790527189 0 -25.30334533153033405 I I #
point $-1 -6.504141995260413367 -2.381249999999999645 14.70477377397367391 #
coedge $-1 $248 $257 $204 $240 forward $223 $-1 #
edge $-1 $270 0 $241 0.2094090203382367177 $204 $273 forward 7 unknown #
vertex $-1 $240 $274 #
straight-curve $-1 -1.16460645948047703 -2.381249999999999645 9.4350922302880047 -2.213755865790512534 0 -25.30334533153033405 I I #
coedge $-1 $212 $209 $275 $276 reversed $168 $-1 #
coedge $-1 $254 $277 $209 $245 reversed $278 $-1 #
edge $-1 $246 0 $279 0.6013502297929621543 $244 $280 forward 7 unknown #
vertex $-1 $245 $281 #
straight-curve $-1 -0.6588274703535547117 -2.381249999999999645 15.21617252964644074 0 -25.39999999999999858 0 I I #
coedge $-1 $282 $239 $211 $249 reversed $223 $-1 #
edge $-1 $283 0 $241 0.09374999999999998612 $211 $284 forward 7 unknown #
coedge $-1 $285 $286 $212 $251 forward $266 $-1 #
edge $-1 $283 -5.214530033962415265e-17 $287 0.370340675588955115 $250 $288 forward 7 unknown #
face $-1 $289 $266 $2 $-1 $290 reversed single #
plane-surface $-1 -0.8789640421729670861 -2.381249999999999645 12.69999999999999929 -0.9961946980917455452 0 0.08715574274765885976 2.213755865790534738 0 25.30334533153033405 forward_v I I I I #
coedge $-1 $291 $244 $217 $255 forward $278 $-1 #
edge $-1 $246 0 $292 0.6013502297929622653 $254 $293 forward 7 unknown #
coedge $-1 $227 $225 $294 $295 reversed $193 $-1 #
coedge $-1 $239 $282 $225 $258 forward $223 $-1 #
edge $-1 $296 0 $270 0.09374999999999998612 $225 $297 forward 7 unknown #
coedge $-1 $294 $230 $226 $260 forward $266 $-1 #
edge $-1 $232 -1.523815942153662188e-17 $261 0.2094090203382368287 $259 $298 forward 7 unknown #
vertex $-1 $295 $299 #
straight-curve $-1 -6.96772244238363303 0 9.406025016817803674 0 -25.39999999999999858 0 I I #
coedge $-1 $300 $301 $229 $264 reversed $302 $-1 #
edge $-1 $267 0 $292 0.5 $229 $303 forward 7 unknown #
coedge $-1 $230 $304 $300 $305 forward $266 $-1 #
loop $-1 $-1 $265 $252 #
vertex $-1 $231 $306 #
straight-curve $-1 -15.87499999999999645 0 13.88492993104780915 25.3033453315303376 0 2.213755865790495214 I I #
point $-1 -6.504141995260408926 0 14.70477377397367036 #
vertex $-1 $235 $307 #
ellipse-curve $-1 -6.509099308249646221 -2.381249999999999645 9.365900691750352891 0 1 0 0.04012432506745237937 0 -0.4586231341339879752 1 I I #
point $-1 -6.96772244238363303 -2.381249999999999645 9.406025016817807227 #
straight-curve $-1 -6.468974983182193661 -2.381249999999999645 8.907277557616364305 25.3033453315303376 0 2.21375586579050232 I I #
point $-1 -1.170226226026330973 -2.381249999999999645 9.370858004739579528 #
coedge $-1 $308 $309 $243 $276 forward $310 $-1 #
edge $-1 $287 0 $279 0.5 $275 $311 forward 7 unknown #
coedge $-1 $244 $312 $308 $313 reversed $278 $-1 #
loop $-1 $-1 $254 $314 #
vertex $-1 $313 $315 #
straight-curve $-1 -0.6588274703535547117 -12.69999999999999929 15.21617252964644074 -2.213755865790534738 0 -25.30334533153033405 I I #
point $-1 -0.6588274703535547117 -12.69999999999999929 15.21617252964644074 #
coedge $-1 $257 $248 $286 $316 reversed $223 $-1 #
vertex $-1 $251 $317 #
straight-curve $-1 -1.17022622602633164 0 9.370858004739579528 0 -25.39999999999999858 0 I I #
coedge $-1 $318 $250 $309 $319 reversed $266 $-1 #
coedge $-1 $250 $294 $282 $316 forward $266 $-1 #
vertex $-1 $319 $320 #
straight-curve $-1 -1.17022622602633164 0 9.370858004739577751 -2.213755865790535626 0 -25.30334533153033405 I I #
face $-1 $321 $302 $2 $-1 $322 reversed single #
plane-surface $-1 -76.19999999999998863 0 0 0 -1 0 25.39999999999999858 0 0 forward_v I I I I #
coedge $-1 $323 $254 $301 $324 forward $278 $-1 #
vertex $-1 $324 $325 #
straight-curve $-1 -0.6588274703535547117 -12.69999999999999929 15.21617252964644074 -25.3033453315303376 0 -2.213755865790496991 I I #
coedge $-1 $286 $259 $256 $295 forward $266 $-1 #
edge $-1 $261 -1.162238175701058578e-15 $296 1.745329251994331532 $294 $326 forward 7 unknown #
vertex $-1 $316 $327 #
straight-curve $-1 -6.468974983182195437 0 8.907277557616364305 0 -25.39999999999999858 0 I I #
straight-curve $-1 -6.504141995260413367 0 14.70477377397367036 -2.213755865790527189 0 -25.30334533153033405 I I #
point $-1 -6.967722442383635695 0 9.406025016817805451 #
coedge $-1 $328 $263 $265 $305 reversed $302 $-1 #
coedge $-1 $263 $328 $291 $324 reversed $302 $-1 #
loop $-1 $-1 $300 $289 #
straight-curve $-1 -15.875 0 13.88492993104780915 0 -25.39999999999999858 0 I I #
coedge $-1 $265 $318 $329 $330 forward $266 $-1 #
edge $-1 $331 0 $267 0.0466507846869216522 $265 $332 forward 7 unknown #
point $-1 -15.875 0 13.88492993104780915 #
point $-1 -6.468974983182193661 -2.381249999999999645 8.907277557616364305 #
coedge $-1 $333 $275 $277 $313 forward $310 $-1 #
coedge $-1 $275 $333 $285 $319 forward $310 $-1 #
loop $-1 $-1 $275 $334 #
straight-curve $-1 -1.990070068952210836 0 0 0 -25.39999999999999858 0 I I #
coedge $-1 $277 $323 $335 $336 reversed $278 $-1 #
edge $-1 $279 -1.923220987539641286e-16 $337 2.921650784686919966 $308 $338 forward 7 unknown #
face $-1 $334 $278 $2 $-1 $339 reversed single #
point $-1 -1.990070068952210836 -12.69999999999999929 0 #
edge $-1 $296 0 $283 0.2094090203382364679 $286 $340 forward 7 unknown #
point $-1 -1.170226226026336747 0 9.370858004739579528 #
coedge $-1 $304 $285 $341 $342 forward $266 $-1 #
edge $-1 $343 0 $287 2.921650784686920854 $309 $344 forward 7 unknown #
point $-1 -1.990070068952210836 0 0 #
face $-1 $345 $346 $2 $-1 $347 reversed single #
plane-surface $-1 -15.875 -2.381249999999999645 13.88492993104780915 1 0 0 0 0 -25.39999999999999858 forward_v I I I I #
coedge $-1 $312 $291 $348 $349 forward $278 $-1 #
edge $-1 $292 0 $350 0.0466507846869216522 $291 $351 forward 7 unknown #
point $-1 -15.875 -12.69999999999999929 13.88492993104780915 #
ellipse-curve $-1 -6.509099308249646221 0 9.365900691750351115 0 -1 0 -0.458623134133989363 0 0.04012432506745378796 1 I I #
point $-1 -6.468974983182192773 0 8.907277557616364305 #
coedge $-1 $301 $300 $352 $353 forward $302 $-1 #
coedge $-1 $354 $352 $304 $330 reversed $346 $-1 #
edge $-1 $355 0 $331 2.374999999999999556 $304 $356 forward 7 unknown #
vertex $-1 $330 $357 #
straight-curve $-1 -15.875 0 12.69999999999999929 0 0 25.39999999999999858 I I #
coedge $-1 $309 $308 $358 $359 forward $310 $-1 #
face $-1 $146 $310 $2 $-1 $360 forward single #
coedge $-1 $361 $358 $312 $336 forward $362 $-1 #
edge $-1 $337 0 $363 0.5 $312 $364 forward 7 unknown #
vertex $-1 $359 $365 #
straight-curve $-1 -1.990070068952215721 -12.69999999999999929 0 -25.39999999999999858 0 0 I I #
plane-surface $-1 0 -12.69999999999999929 0 0 1 0 -25.39999999999999858 0 0 forward_v I I I I #
straight-curve $-1 -6.468974983182192773 0 8.907277557616364305 25.30334533153033405 0 2.213755865790504984 I I #
coedge $-1 $358 $361 $318 $342 reversed $362 $-1 #
edge $-1 $343 0 $355 0.5 $318 $366 forward 7 unknown #
vertex $-1 $319 $367 #
straight-curve $-1 -76.19999999999998863 0 0 25.39999999999999858 0 0 I I #
face $-1 $314 $362 $2 $-1 $368 reversed single #
loop $-1 $-1 $329 $321 #
plane-surface $-1 0 0 12.69999999999999929 0 0 -1 25.39999999999999858 0 0 forward_v I I I I #
coedge $-1 $352 $354 $323 $349 reversed $346 $-1 #
edge $-1 $350 0 $363 2.374999999999999556 $323 $369 forward 7 unknown #
vertex $-1 $349 $370 #
straight-curve $-1 -15.875 -12.69999999999999929 13.88492993104780915 0 0 -25.39999999999999858 I I #
coedge $-1 $329 $348 $328 $353 reversed $346 $-1 #
edge $-1 $331 0 $350 0.5 $328 $371 forward 7 unknown #
coedge $-1 $348 $329 $361 $372 reversed $346 $-1 #
vertex $-1 $330 $373 #
straight-curve $-1 -76.19999999999998863 0 12.69999999999999929 25.39999999999999858 0 0 I I #
point $-1 -15.875 0 12.69999999999999929 #
coedge $-1 $335 $341 $333 $359 reversed $362 $-1 #
edge $-1 $337 0 $343 0.5 $333 $374 forward 7 unknown #
plane-surface $-1 0 0 0 0 0 -1 25.39999999999999858 0 0 forward_v I I I I #
coedge $-1 $341 $335 $354 $372 forward $362 $-1 #
loop $-1 $-1 $335 $345 #
vertex $-1 $336 $375 #
straight-curve $-1 -76.19999999999998863 -12.69999999999999929 0 0 0 25.39999999999999858 I I #
point $-1 -76.19999999999998863 -12.69999999999999929 0 #
straight-curve $-1 -76.19999999999998863 0 0 0 0 25.39999999999999858 I I #
point $-1 -76.19999999999998863 0 0 #
plane-surface $-1 -76.19999999999998863 -12.69999999999999929 0 1 0 0 0 25.39999999999999858 0 forward_v I I I I #
straight-curve $-1 -15.875 -12.69999999999999929 12.69999999999999929 -25.39999999999999858 0 0 I I #
point $-1 -15.875 -12.69999999999999929 12.69999999999999929 #
straight-curve $-1 -15.875 0 12.69999999999999929 0 -25.39999999999999858 0 I I #
edge $-1 $363 0 $355 0.5 $361 $376 forward 7 unknown #
point $-1 -76.19999999999998863 0 12.69999999999999929 #
straight-curve $-1 -76.19999999999998863 -12.69999999999999929 0 0 25.39999999999999858 0 I I #
point $-1 -76.19999999999998863 -12.69999999999999929 12.69999999999999929 #
straight-curve $-1 -76.19999999999998863 -12.69999999999999929 12.69999999999999929 0 25.39999999999999858 0 I I #
End-of-ACIS-data 