600 0 1 0           
97 GICL ACIS Healer - Source: /gicl/data5/repository/PTC/V18/mfgintro18/tools/cdjnl_16.prt.sat - 6 0 18 ACIS 6.0.3 Solaris 24 Sat Apr 13 21:58:59 2002 
1 9.999999999999999547e-07 1.000000000000000036e-10 
body $-1 $1 $-1 $-1 #
lump $-1 $-1 $2 $0 #
shell $-1 $-1 $-1 $3 $-1 $1 #
face $-1 $4 $5 $2 $-1 $6 forward single #
face $-1 $7 $8 $2 $-1 $9 forward single #
loop $-1 $-1 $10 $3 #
plane-surface $-1 0 0 0 0 1 0 25.39999999999999858 0 0 forward_v I I I I #
face $-1 $11 $12 $2 $-1 $13 reversed single #
loop $-1 $-1 $14 $4 #
cone-surface $-1 -7.170508040611168532 0 15.12313393466332556 0 1 0 0.3968749999999999778 0 0 1 I I 0 1 0.3968749999999999778 forward I I I I #
coedge $-1 $15 $16 $17 $18 forward $5 $-1 #
face $-1 $19 $20 $2 $-1 $21 reversed single #
loop $-1 $-1 $22 $7 #
plane-surface $-1 -11.10148177248183821 0 9.581195779983508132 0.848048096156426956 0 -0.5299192642332035685 13.45994931152336704 0 21.54042164237323931 forward_v I I I I #
coedge $-1 $23 $17 $24 $25 forward $8 $-1 #
coedge $-1 $26 $10 $27 $28 reversed $5 $-1 #
coedge $-1 $10 $29 $30 $31 forward $5 $-1 #
coedge $-1 $14 $32 $10 $18 reversed $8 $-1 #
edge $-1 $33 5.286448526952192715e-16 $34 0.9599310885968822538 $10 $35 forward 7 unknown #
face $-1 $36 $37 $2 $-1 $38 reversed single #
loop $-1 $-1 $39 $11 #
plane-surface $-1 0 -2.381249999999999645 0 0 1 0 25.39999999999999858 0 0 forward_v I I I I #
coedge $-1 $24 $40 $41 $42 reversed $12 $-1 #
coedge $-1 $32 $14 $43 $44 forward $8 $-1 #
coedge $-1 $30 $22 $14 $25 reversed $12 $-1 #
edge $-1 $33 0 $45 0.09374999999999998612 $24 $46 forward 7 unknown #
coedge $-1 $47 $15 $48 $49 forward $5 $-1 #
coedge $-1 $50 $51 $15 $28 forward $52 $-1 #
edge $-1 $53 0 $34 0.2670444412915683463 $15 $54 forward 7 unknown #
coedge $-1 $16 $55 $56 $57 forward $5 $-1 #
coedge $-1 $58 $24 $16 $31 reversed $12 $-1 #
edge $-1 $59 0 $33 0.2670444412915684018 $16 $60 forward 7 unknown #
coedge $-1 $17 $23 $50 $61 reversed $8 $-1 #
vertex $-1 $31 $62 #
vertex $-1 $28 $63 #
ellipse-curve $-1 -7.170508040611168532 0 15.12313393466332556 0 1 0 -0.3365690881620813091 0 0.2103117079925541644 1 I I #
face $-1 $64 $65 $2 $-1 $66 reversed single #
loop $-1 $-1 $67 $19 #
plane-surface $-1 -3.970508811074672906 0 9.329544040721902576 -0.05233595624294442444 0 0.9986295347545739443 -25.36519018276617388 0 -1.32933328857078803 forward_v I I I I #
coedge $-1 $68 $69 $70 $71 reversed $20 $-1 #
coedge $-1 $22 $58 $72 $73 reversed $12 $-1 #
coedge $-1 $74 $43 $22 $42 forward $20 $-1 #
edge $-1 $45 0 $75 0.02238550455416547791 $41 $76 forward 7 unknown #
coedge $-1 $41 $77 $23 $44 reversed $20 $-1 #
edge $-1 $45 1.409719607187176252e-15 $78 0.9599310885968567186 $43 $79 forward 7 unknown #
vertex $-1 $42 $80 #
straight-curve $-1 -7.507077128773249619 0 15.33344564265587984 0 -25.39999999999999858 0 I I #
coedge $-1 $81 $26 $82 $83 reversed $5 $-1 #
coedge $-1 $84 $85 $26 $49 reversed $86 $-1 #
edge $-1 $53 2.037485369762837594e-15 $87 2.181661564992920965 $26 $88 forward 7 unknown #
coedge $-1 $89 $27 $32 $61 forward $52 $-1 #
coedge $-1 $27 $89 $84 $90 reversed $52 $-1 #
loop $-1 $-1 $50 $91 #
vertex $-1 $49 $92 #
straight-curve $-1 -0.4176458326339175797 0 15.87445609660571932 -25.36519018276617388 0 -1.329333288570793137 I I #
coedge $-1 $29 $81 $93 $94 forward $5 $-1 #
coedge $-1 $95 $96 $29 $57 reversed $97 $-1 #
edge $-1 $98 3.348084067069733393e-15 $59 2.181661564992909419 $29 $99 forward 7 unknown #
coedge $-1 $40 $30 $96 $100 forward $12 $-1 #
vertex $-1 $31 $101 #
straight-curve $-1 -11.10148177248183821 0 9.581195779983508132 13.45994931152336704 0 21.54042164237323931 I I #
edge $-1 $34 8.282004254288836642e-32 $78 0.09374999999999998612 $50 $102 forward 7 unknown #
point $-1 -7.507077128773249619 0 15.33344564265587984 #
point $-1 -7.191278873245085634 0 15.51946503126904808 #
face $-1 $103 $104 $2 $-1 $105 reversed single #
loop $-1 $-1 $106 $36 #
plane-surface $-1 -15.875 -2.381249999999999645 0 0 -1 0 25.39999999999999858 0 0 forward_v I I I I #
coedge $-1 $107 $70 $108 $109 forward $37 $-1 #
coedge $-1 $110 $39 $111 $112 reversed $20 $-1 #
coedge $-1 $39 $74 $113 $114 reversed $20 $-1 #
coedge $-1 $67 $115 $39 $71 forward $37 $-1 #
edge $-1 $116 0 $117 0.02238550455416515178 $39 $118 forward 7 unknown #
coedge $-1 $119 $106 $40 $73 forward $65 $-1 #
edge $-1 $75 3.70600672972677072e-17 $120 0.2446589367374029933 $40 $121 forward 7 unknown #
coedge $-1 $69 $41 $122 $123 forward $20 $-1 #
vertex $-1 $123 $124 #
straight-curve $-1 -7.507077128773249619 -2.381249999999999645 15.33344564265587984 -13.45994931152334928 0 -21.54042164237325352 I I #
coedge $-1 $43 $125 $89 $126 reversed $20 $-1 #
vertex $-1 $44 $127 #
ellipse-curve $-1 -7.170508040611161427 -2.381249999999999645 15.12313393466331668 0 1 0 -0.336569088162088359 0 0.2103117079925626021 1 I I #
point $-1 -7.507077128773249619 -2.381249999999999645 15.33344564265587984 #
coedge $-1 $55 $47 $128 $129 forward $5 $-1 #
coedge $-1 $130 $131 $47 $83 forward $132 $-1 #
edge $-1 $133 0 $87 0.2670444412915682908 $47 $134 forward 7 unknown #
coedge $-1 $135 $48 $51 $90 forward $86 $-1 #
coedge $-1 $48 $135 $130 $136 reversed $86 $-1 #
loop $-1 $-1 $84 $137 #
vertex $-1 $83 $138 #
ellipse-curve $-1 -0.3968749999999999778 0 15.47812499999999858 0 1 0 -0.02077083263391838255 0 0.3963310966057201901 1 I I #
coedge $-1 $51 $50 $77 $126 forward $52 $-1 #
edge $-1 $53 0 $139 0.09374999999999998612 $51 $140 forward 7 unknown #
face $-1 $-1 $52 $2 $-1 $141 reversed single #
point $-1 -0.4176458326339175797 0 15.87445609660571932 #
coedge $-1 $115 $107 $55 $94 reversed $37 $-1 #
edge $-1 $142 0 $98 0.2670444412915683463 $55 $143 forward 7 unknown #
coedge $-1 $144 $56 $107 $145 forward $97 $-1 #
coedge $-1 $56 $144 $58 $100 reversed $97 $-1 #
loop $-1 $-1 $96 $146 #
vertex $-1 $57 $147 #
ellipse-curve $-1 -10.76491268431975712 0 9.370884071990955633 0 1 0 0.02077083263391758805 0 -0.3963310966057215778 1 I I #
edge $-1 $59 0 $120 0.09374999999999998612 $96 $148 forward 7 unknown #
point $-1 -11.10148177248183821 0 9.581195779983508132 #
straight-curve $-1 -7.191278873245085634 0 15.51946503126904631 0 -25.39999999999999858 3.007964248051090198e-14 I I #
face $-1 $149 $150 $2 $-1 $151 reversed single #
loop $-1 $-1 $152 $64 #
plane-surface $-1 -0.841219472185139705 -2.381249999999999645 15.21638610308532336 0.05233595624294460485 0 -0.9986295347545738332 -25.36519018276617388 0 -1.329333288570792915 forward_v I I I I #
coedge $-1 $72 $153 $154 $155 reversed $65 $-1 #
coedge $-1 $93 $67 $95 $145 reversed $37 $-1 #
coedge $-1 $156 $119 $67 $109 reversed $65 $-1 #
edge $-1 $117 -7.715972723329884119e-17 $157 0.2446589367374031598 $67 $158 forward 7 unknown #
coedge $-1 $125 $68 $159 $160 forward $20 $-1 #
coedge $-1 $161 $162 $68 $112 forward $163 $-1 #
edge $-1 $164 -1.057289705390454715e-15 $116 0.9599310885968753704 $68 $165 forward 7 unknown #
coedge $-1 $166 $167 $69 $114 forward $168 $-1 #
edge $-1 $117 0 $169 0.2746742824713272468 $69 $170 forward 7 unknown #
coedge $-1 $70 $93 $161 $171 forward $37 $-1 #
vertex $-1 $112 $172 #
vertex $-1 $114 $173 #
straight-curve $-1 -3.970508811074672906 -2.381249999999999645 9.329544040721902576 -25.36519018276617388 0 -1.329333288570770932 I I #
coedge $-1 $108 $72 $144 $174 reversed $65 $-1 #
vertex $-1 $174 $175 #
straight-curve $-1 -7.808384885385191154 -2.381249999999999645 14.85125243588188937 -13.4599493115233706 0 -21.54042164237323931 I I #
coedge $-1 $154 $176 $74 $123 reversed $104 $-1 #
edge $-1 $75 0 $169 0.2746742824713272468 $74 $177 forward 7 unknown #
point $-1 -7.808384885385192931 -2.381249999999999645 14.85125243588188937 #
coedge $-1 $77 $110 $135 $178 reversed $20 $-1 #
edge $-1 $78 0 $139 0.2670444412915682908 $77 $179 forward 7 unknown #
point $-1 -7.191278873245085634 -2.381249999999999645 15.51946503126904808 #
coedge $-1 $162 $161 $81 $129 reversed $163 $-1 #
edge $-1 $133 -1.770960256528989298e-14 $142 0.9599310885968678209 $81 $180 forward 7 unknown #
coedge $-1 $159 $82 $85 $136 forward $132 $-1 #
coedge $-1 $82 $159 $162 $181 reversed $132 $-1 #
loop $-1 $-1 $131 $182 #
vertex $-1 $129 $183 #
straight-curve $-1 -3.654710555546509809 0 9.515563429335074375 13.4599493115233777 0 21.54042164237323576 I I #
coedge $-1 $85 $84 $125 $178 forward $86 $-1 #
edge $-1 $87 -1.839996062354209962e-32 $184 0.09374999999999998612 $85 $185 forward 7 unknown #
face $-1 $91 $86 $2 $-1 $186 forward single #
point $-1 -0.06030591183792060467 0 15.26781329200744253 #
vertex $-1 $126 $187 #
straight-curve $-1 -0.4176458326339189675 0 15.87445609660571932 0 -25.39999999999999858 0 I I #
plane-surface $-1 -5.7470605032312303 0 15.59515330884124928 0.05233595624294461179 0 -0.9986295347545739443 25.36519018276617743 0 1.329333288570793137 forward_v I I I I #
vertex $-1 $94 $188 #
straight-curve $-1 -3.970508811074672906 0 9.329544040721902576 -25.36519018276617388 0 -1.32933328857078803 I I #
coedge $-1 $96 $95 $119 $174 forward $97 $-1 #
edge $-1 $98 0 $157 0.09374999999999998612 $107 $189 forward 7 unknown #
face $-1 $190 $97 $2 $-1 $191 forward single #
point $-1 -10.7441418516858409 0 8.974552975385234888 #
straight-curve $-1 -11.10148177248183821 0 9.581195779983508132 0 -25.39999999999999858 0 I I #
face $-1 $192 $193 $2 $-1 $194 reversed single #
loop $-1 $-1 $195 $103 #
plane-surface $-1 -7.885797834420757546 0 14.84719539513518605 -0.8480480961564274001 0 0.5299192642332026804 -13.4599493115233475 0 -21.54042164237325352 forward_v I I I I #
coedge $-1 $196 $154 $197 $198 reversed $104 $-1 #
coedge $-1 $106 $199 $200 $201 reversed $65 $-1 #
coedge $-1 $152 $122 $106 $155 forward $104 $-1 #
edge $-1 $75 0 $202 0.003051936471903966309 $106 $203 forward 7 unknown #
coedge $-1 $204 $108 $167 $205 forward $65 $-1 #
vertex $-1 $145 $206 #
straight-curve $-1 -4.538321391428252305 -2.381249999999999645 9.299786244336598173 -25.36519018276617388 0 -1.329333288570789806 I I #
coedge $-1 $131 $130 $110 $160 reversed $132 $-1 #
edge $-1 $164 5.930850534440273729e-17 $184 0.2670444412915685684 $110 $207 forward 7 unknown #
coedge $-1 $128 $111 $115 $171 reversed $163 $-1 #
coedge $-1 $111 $128 $131 $181 forward $163 $-1 #
loop $-1 $-1 $161 $190 #
vertex $-1 $160 $208 #
ellipse-curve $-1 -3.991279643708592229 -2.381249999999999645 9.725875137327621545 0 1 0 0.336569088162078478 0 -0.2103117079925527488 1 I I #
coedge $-1 $209 $113 $176 $210 forward $168 $-1 #
coedge $-1 $113 $211 $156 $205 reversed $168 $-1 #
loop $-1 $-1 $212 $213 #
vertex $-1 $114 $214 #
straight-curve $-1 -4.538321391428250529 -2.381249999999999645 9.299786244336601726 13.4599493115233475 0 21.54042164237325352 I I #
edge $-1 $142 0 $116 0.09374999999999998612 $161 $215 forward 7 unknown #
point $-1 -3.970508811074672906 -2.381249999999999645 9.329544040721902576 #
point $-1 -4.538321391428250529 -2.381249999999999645 9.299786244336601726 #
edge $-1 $157 -1.982418197607079294e-16 $120 2.181661564992905422 $144 $216 forward 7 unknown #
point $-1 -11.10148177248183821 -2.381249999999999645 9.581195779983508132 #
coedge $-1 $122 $217 $166 $210 reversed $104 $-1 #
straight-curve $-1 -7.808384885385192931 -2.381249999999999645 14.85125243588188937 25.36519018276617388 0 1.329333288570794691 I I #
edge $-1 $139 1.211477787426551991e-16 $184 2.181661564992924074 $125 $218 forward 7 unknown #
straight-curve $-1 -7.191278873245085634 -2.381249999999999645 15.51946503126904808 25.36519018276617388 0 1.329333288570793137 I I #
ellipse-curve $-1 -3.991279643708592229 0 9.725875137327625097 0 1 0 0.3365690881620791997 0 -0.2103117079925569677 1 I I #
edge $-1 $133 0 $164 0.09374999999999998612 $131 $219 forward 7 unknown #
face $-1 $137 $132 $2 $-1 $220 reversed single #
point $-1 -3.654710555546509809 0 9.515563429335074375 #
vertex $-1 $178 $221 #
straight-curve $-1 -0.06030591183791880056 0 15.2678132920074443 6.579921792611760991e-15 -25.39999999999999858 0 I I #
cone-surface $-1 -0.3968749999999999778 0 15.47812499999999858 0 1 0 0.3968749999999999778 0 0 1 I I 0 1 0.3968749999999999778 forward I I I I #
point $-1 -0.4176458326339183569 -2.381249999999999645 15.87445609660571932 #
point $-1 -3.970508811074672906 0 9.329544040721902576 #
straight-curve $-1 -10.7441418516858409 0 8.974552975385234888 0 -25.39999999999999858 0 I I #
face $-1 $182 $163 $2 $-1 $222 forward single #
cone-surface $-1 -10.76491268431975712 0 9.370884071990955633 0 1 0 0.3968749999999999778 0 0 1 I I 0 1 0.3968749999999999778 forward I I I I #
face $-1 $213 $223 $2 $-1 $224 reversed single #
loop $-1 $-1 $225 $149 #
cone-surface $-1 -10.76491268431975712 0 9.370884071990955633 0 1 0 0.4603750000000013665 0 0 1 I I 0 1 0.4603750000000013665 forward I I I I #
coedge $-1 $226 $200 $227 $228 reversed $150 $-1 #
coedge $-1 $229 $152 $230 $231 reversed $104 $-1 #
coedge $-1 $200 $226 $152 $198 forward $150 $-1 #
edge $-1 $232 0 $202 0.09374999999999998612 $152 $233 forward 7 unknown #
coedge $-1 $153 $204 $234 $235 forward $65 $-1 #
coedge $-1 $195 $197 $153 $201 forward $150 $-1 #
edge $-1 $202 0 $236 0.2429084178918787806 $153 $237 forward 7 unknown #
vertex $-1 $201 $238 #
straight-curve $-1 -7.808384885385192931 -2.381249999999999645 14.85125243588188937 -25.36519018276619164 0 -1.329333288570466731 I I #
coedge $-1 $199 $156 $239 $240 reversed $65 $-1 #
edge $-1 $117 -1.556770779860732681e-16 $241 0.003051936471903598548 $156 $242 forward 7 unknown #
point $-1 -10.7441418516858409 -2.381249999999999645 8.974552975385234888 #
straight-curve $-1 -3.654710555546513362 -2.381249999999999645 9.515563429335067269 13.45994931152337415 0 21.54042164237323931 I I #
point $-1 -3.654710555546513362 -2.381249999999999645 9.515563429335069046 #
coedge $-1 $243 $166 $244 $245 forward $168 $-1 #
edge $-1 $169 0 $246 0.40625 $166 $247 forward 7 unknown #
coedge $-1 $167 $212 $248 $249 forward $168 $-1 #
coedge $-1 $211 $243 $250 $251 reversed $168 $-1 #
face $-1 $252 $168 $2 $-1 $253 reversed single #
point $-1 -0.8412194721851402601 -2.381249999999999645 15.21638610308532336 #
straight-curve $-1 -3.970508811074672906 0 9.329544040721902576 0 -25.39999999999999858 0 I I #
ellipse-curve $-1 -10.76491268431975712 -2.381249999999999645 9.370884071990955633 0 1 0 0.02077083263391617945 0 -0.3963310966057215778 1 I I #
coedge $-1 $176 $229 $254 $255 reversed $104 $-1 #
ellipse-curve $-1 -0.3968749999999992006 -2.381249999999999645 15.47812499999999858 0 1 0 -0.02077083263391917706 0 0.3963310966057201901 1 I I #
straight-curve $-1 -3.654710555546509809 0 9.515563429335074375 0 -25.39999999999999858 0 I I #
plane-surface $-1 -0.06030591183791818299 0 15.2678132920074443 -0.8480480961564266229 0 0.5299192642332039016 -13.4599493115233777 0 -21.54042164237323576 forward_v I I I I #
point $-1 -0.06030591183792060467 -2.381249999999999645 15.26781329200744253 #
cone-surface $-1 -3.991279643708592229 0 9.725875137327625097 0 1 0 0.3968749999999999778 0 0 1 I I 0 1 0.3968749999999999778 forward I I I I #
loop $-1 $-1 $248 $192 #
plane-surface $-1 -10.74081851846441182 0 8.911139999928318289 0.05233595624294463955 0 -0.9986295347545738332 25.36519018276617032 0 1.329333288570793581 forward_v I I I I #
coedge $-1 $256 $234 $257 $258 reversed $193 $-1 #
coedge $-1 $197 $195 $259 $260 reversed $150 $-1 #
coedge $-1 $234 $256 $195 $228 forward $193 $-1 #
edge $-1 $261 -0 $236 0.09374999999999998612 $195 $262 forward 7 unknown #
coedge $-1 $217 $196 $263 $264 forward $104 $-1 #
coedge $-1 $259 $265 $196 $231 forward $266 $-1 #
edge $-1 $267 0 $232 0.3149671698896752692 $230 $268 forward 7 unknown #
vertex $-1 $260 $269 #
straight-curve $-1 -7.885797834420757546 0 14.84719539513518605 0 -25.39999999999999858 0 I I #
coedge $-1 $225 $227 $199 $235 reversed $193 $-1 #
edge $-1 $270 5.729343119653121845e-17 $236 2.181661564992875224 $199 $271 forward 7 unknown #
vertex $-1 $201 $272 #
straight-curve $-1 -7.885797834420757546 -2.381249999999999645 14.84719539513518605 -13.4599493115233475 0 -21.54042164237325352 I I #
point $-1 -7.885797834420757546 -2.381249999999999645 14.84719539513518605 #
coedge $-1 $248 $257 $204 $240 forward $223 $-1 #
edge $-1 $270 0 $241 0.242908417891879308 $204 $273 forward 7 unknown #
vertex $-1 $240 $274 #
straight-curve $-1 -4.538321391428252305 -2.381249999999999645 9.299786244336598173 -13.45994931152332796 0 -21.54042164237326773 I I #
coedge $-1 $212 $209 $275 $276 reversed $168 $-1 #
coedge $-1 $254 $277 $209 $245 reversed $278 $-1 #
edge $-1 $246 0 $279 0.706410782282571259 $244 $280 forward 7 unknown #
vertex $-1 $245 $281 #
straight-curve $-1 -0.841219472185139483 -2.381249999999999645 15.21638610308532336 0 -25.39999999999999858 0 I I #
coedge $-1 $282 $239 $211 $249 reversed $223 $-1 #
edge $-1 $283 0 $241 0.09374999999999998612 $211 $284 forward 7 unknown #
coedge $-1 $285 $286 $212 $251 forward $266 $-1 #
edge $-1 $283 0 $287 0.4286845633393404631 $250 $288 forward 7 unknown #
face $-1 $289 $266 $2 $-1 $290 reversed single #
plane-surface $-1 -2.413632025573694495 -2.381249999999999645 12.69999999999999929 -0.8480480961564274001 0 0.5299192642332027914 13.4599493115233475 0 21.54042164237325352 forward_v I I I I #
coedge $-1 $291 $244 $217 $255 forward $278 $-1 #
edge $-1 $246 4.364966545493054953e-18 $292 0.5926933888329067868 $254 $293 forward 7 unknown #
coedge $-1 $227 $225 $294 $295 reversed $193 $-1 #
coedge $-1 $239 $282 $225 $258 forward $223 $-1 #
edge $-1 $296 4.141002127144419416e-32 $270 0.09374999999999998612 $225 $297 forward 7 unknown #
coedge $-1 $294 $230 $226 $260 forward $266 $-1 #
edge $-1 $232 -6.302690974290414181e-17 $261 0.2429084178918785031 $259 $298 forward 7 unknown #
vertex $-1 $295 $299 #
straight-curve $-1 -11.15533282658777381 0 9.614845653262317882 0 -25.39999999999999858 -1.503982124025545099e-14 I I #
coedge $-1 $300 $301 $229 $264 reversed $302 $-1 #
edge $-1 $267 0 $292 0.5 $229 $303 forward 7 unknown #
coedge $-1 $230 $304 $300 $305 forward $266 $-1 #
loop $-1 $-1 $265 $252 #
vertex $-1 $231 $306 #
straight-curve $-1 -15.875 0 14.4284990513939082 25.36519018276617388 0 1.329333288570795135 I I #
point $-1 -7.885797834420761987 0 14.84719539513518605 #
vertex $-1 $235 $307 #
ellipse-curve $-1 -10.7649126843197589 -2.381249999999999645 9.370884071990957409 0 1 0 0.02409416585533464758 0 -0.4597440720626388422 1 I I #
point $-1 -11.15533282658777736 -2.381249999999999645 9.614845653262314329 #
straight-curve $-1 -10.74081851846442426 -2.381249999999999645 8.911139999928318289 25.36519018276617388 0 1.329333288570790472 I I #
point $-1 -4.579400301642063909 -2.381249999999999645 9.234046245906057493 #
coedge $-1 $308 $309 $243 $276 forward $310 $-1 #
edge $-1 $287 -1.387778780781445984e-17 $279 0.5 $275 $311 forward 7 unknown #
coedge $-1 $244 $312 $308 $313 reversed $278 $-1 #
loop $-1 $-1 $254 $314 #
vertex $-1 $313 $315 #
straight-curve $-1 -0.841219472185139816 -12.69999999999999929 15.21638610308532336 -13.4599493115233475 0 -21.54042164237325352 I I #
point $-1 -0.841219472185139816 -12.69999999999999929 15.21638610308532336 #
coedge $-1 $257 $248 $286 $316 reversed $223 $-1 #
vertex $-1 $251 $317 #
straight-curve $-1 -4.579400301642063909 0 9.234046245906057493 -7.519910620127727072e-15 -25.39999999999999858 0 I I #
coedge $-1 $318 $250 $309 $319 reversed $266 $-1 #
coedge $-1 $250 $294 $282 $316 forward $266 $-1 #
vertex $-1 $319 $320 #
straight-curve $-1 -4.579400301642063909 -3.524958103184871819e-16 9.234046245906057493 -13.45994931152334928 0 -21.54042164237325352 I I #
face $-1 $321 $302 $2 $-1 $322 reversed single #
plane-surface $-1 -76.19999999999998863 0 0 0 -1 0 25.39999999999999858 0 0 forward_v I I I I #
coedge $-1 $323 $254 $301 $324 forward $278 $-1 #
vertex $-1 $324 $325 #
straight-curve $-1 -0.841219472185139705 -12.69999999999999929 15.21638610308532336 -25.36519018276617388 0 -1.329333288570792915 I I #
coedge $-1 $286 $259 $256 $295 forward $266 $-1 #
edge $-1 $261 1.440520555798478584e-15 $296 2.181661564992896096 $294 $326 forward 7 unknown #
vertex $-1 $316 $327 #
straight-curve $-1 -10.74081851846441182 0 8.911139999928316513 0 -25.39999999999999858 1.503982124025545414e-14 I I #
straight-curve $-1 -7.885797834420759322 0 14.84719539513518249 -13.4599493115233475 0 -21.54042164237325352 I I #
point $-1 -11.15533282658777736 0 9.614845653262317882 #
coedge $-1 $328 $263 $265 $305 reversed $302 $-1 #
coedge $-1 $263 $328 $291 $324 reversed $302 $-1 #
loop $-1 $-1 $300 $289 #
straight-curve $-1 -15.875 0 14.4284990513939082 0 -25.39999999999999858 0 I I #
coedge $-1 $265 $318 $329 $330 forward $266 $-1 #
edge $-1 $331 0 $267 0.06805114375566570506 $265 $332 forward 7 unknown #
point $-1 -15.875 0 14.4284990513939082 #
point $-1 -10.74081851846442426 -2.381249999999999645 8.911139999928318289 #
coedge $-1 $333 $275 $277 $313 forward $310 $-1 #
coedge $-1 $275 $333 $285 $319 forward $310 $-1 #
loop $-1 $-1 $275 $334 #
straight-curve $-1 -10.34947279482210725 -3.524958103184871819e-16 1.409983241273948727e-15 -2.819966482547897455e-15 -25.39999999999999858 -2.819966482547897455e-15 I I #
coedge $-1 $277 $323 $335 $336 reversed $278 $-1 #
edge $-1 $279 -6.993530863780513543e-17 $337 2.59254044114873583 $308 $338 forward 7 unknown #
face $-1 $334 $278 $2 $-1 $339 reversed single #
point $-1 -10.34947279482210547 -12.69999999999999929 4.229949723821845788e-15 #
edge $-1 $296 0 $283 0.2429084178918790582 $286 $340 forward 7 unknown #
point $-1 -4.579400301642063909 0 9.234046245906057493 #
coedge $-1 $304 $285 $341 $342 forward $266 $-1 #
edge $-1 $343 0 $287 2.59254044114873583 $309 $344 forward 7 unknown #
point $-1 -10.34947279482210547 0 0 #
face $-1 $345 $346 $2 $-1 $347 reversed single #
plane-surface $-1 -15.875 -2.381249999999999645 14.4284990513939082 1 0 0 0 0 -25.39999999999999858 forward_v I I I I #
coedge $-1 $312 $291 $348 $349 forward $278 $-1 #
edge $-1 $292 0 $350 0.06805114375566570506 $291 $351 forward 7 unknown #
point $-1 -15.875 -12.69999999999999929 14.4284990513939082 #
ellipse-curve $-1 -10.76491268431975712 0 9.370884071990955633 0 -1 0 -0.3904201422680194655 0 0.2439615812713625265 1 I I #
point $-1 -10.74081851846441715 0 8.911139999928318289 #
coedge $-1 $301 $300 $352 $353 forward $302 $-1 #
coedge $-1 $354 $352 $304 $330 reversed $346 $-1 #
edge $-1 $355 0 $331 2.374999999999999556 $304 $356 forward 7 unknown #
vertex $-1 $330 $357 #
straight-curve $-1 -15.875 0 12.69999999999999929 0 0 25.39999999999999858 I I #
coedge $-1 $309 $308 $358 $359 forward $310 $-1 #
face $-1 $146 $310 $2 $-1 $360 forward single #
coedge $-1 $361 $358 $312 $336 forward $362 $-1 #
edge $-1 $337 0 $363 0.5 $312 $364 forward 7 unknown #
vertex $-1 $359 $365 #
straight-curve $-1 -10.34947279482210725 -12.69999999999999929 0 -25.39999999999999858 0 0 I I #
plane-surface $-1 0 -12.69999999999999929 0 0 1 0 -25.39999999999999858 0 0 forward_v I I I I #
straight-curve $-1 -10.74081851846441715 0 8.911139999928318289 25.36519018276617388 0 1.329333288570791805 I I #
coedge $-1 $358 $361 $318 $342 reversed $362 $-1 #
edge $-1 $343 0 $355 0.5 $318 $366 forward 7 unknown #
vertex $-1 $319 $367 #
straight-curve $-1 -76.19999999999998863 0 0 25.39999999999999858 0 0 I I #
face $-1 $314 $362 $2 $-1 $368 reversed single #
loop $-1 $-1 $329 $321 #
plane-surface $-1 0 0 12.69999999999999929 0 0 -1 25.39999999999999858 0 0 forward_v I I I I #
coedge $-1 $352 $354 $323 $349 reversed $346 $-1 #
edge $-1 $350 0 $363 2.374999999999999556 $323 $369 forward 7 unknown #
vertex $-1 $349 $370 #
straight-curve $-1 -15.875 -12.69999999999999929 14.4284990513939082 0 0 -25.39999999999999858 I I #
coedge $-1 $329 $348 $328 $353 reversed $346 $-1 #
edge $-1 $331 0 $350 0.5 $328 $371 forward 7 unknown #
coedge $-1 $348 $329 $361 $372 reversed $346 $-1 #
vertex $-1 $330 $373 #
straight-curve $-1 -76.19999999999998863 0 12.69999999999999929 25.39999999999999858 0 0 I I #
point $-1 -15.875 0 12.69999999999999929 #
coedge $-1 $335 $341 $333 $359 reversed $362 $-1 #
edge $-1 $337 0 $343 0.5 $333 $374 forward 7 unknown #
plane-surface $-1 0 0 0 0 0 -1 25.39999999999999858 0 0 forward_v I I I I #
coedge $-1 $341 $335 $354 $372 forward $362 $-1 #
loop $-1 $-1 $335 $345 #
vertex $-1 $336 $375 #
straight-curve $-1 -76.19999999999998863 -12.69999999999999929 0 0 0 25.39999999999999858 I I #
point $-1 -76.19999999999998863 -12.69999999999999929 0 #
straight-curve $-1 -76.19999999999998863 0 0 0 0 25.39999999999999858 I I #
point $-1 -76.19999999999998863 0 0 #
plane-surface $-1 -76.19999999999998863 -12.69999999999999929 0 1 0 0 0 25.39999999999999858 0 forward_v I I I I #
straight-curve $-1 -15.875 -12.69999999999999929 12.69999999999999929 -25.39999999999999858 0 0 I I #
point $-1 -15.875 -12.69999999999999929 12.69999999999999929 #
straight-curve $-1 -15.875 0 12.69999999999999929 0 -25.39999999999999858 0 I I #
edge $-1 $363 0 $355 0.5 $361 $376 forward 7 unknown #
point $-1 -76.19999999999998863 0 12.69999999999999929 #
straight-curve $-1 -76.19999999999998863 -12.69999999999999929 0 0 25.39999999999999858 0 I I #
point $-1 -76.19999999999998863 -12.69999999999999929 12.69999999999999929 #
straight-curve $-1 -76.19999999999998863 -12.69999999999999929 12.69999999999999929 0 25.39999999999999858 0 I I #
End-of-ACIS-data 