600 0 1 0           
100 GICL Pro/E ACIS Translator - Source: f:/data5/repository/PTC/V18/mfgintro18/tools/ctgpl_16.prt - 6 0 13 ACIS 6.0.3 NT 24 Thu Apr 04 13:34:17 2002 
1 9.9999999999999995e-007 1e-010 
body $-1 $1 $-1 $2 #
lump $-1 $-1 $3 $0 #
transform $-1 1 0 0 0 1 0 0 0 1 0 0 0 25.399999999999999 no_rotate no_reflect no_shear #
shell $-1 $-1 $-1 $4 $-1 $1 #
face $-1 $5 $6 $3 $-1 $7 forward single #
face $-1 $8 $9 $3 $-1 $10 forward single #
loop $-1 $-1 $11 $4 #
plane-surface $-1 0 0 0 0 1 0 1 0 0 forward_v I I I I #
face $-1 $12 $13 $3 $-1 $14 reversed single #
loop $-1 $-1 $15 $5 #
cone-surface $-1 -0.48335948940953744 0 0.60150000000000003 0 1 0 -0.0235 0 0 1 I I 0 1 0.0235 forward I I I I #
coedge $-1 $16 $17 $18 $19 forward $6 $-1 #
face $-1 $20 $21 $3 $-1 $22 forward single #
loop $-1 $-1 $23 $8 #
plane-surface $-1 0 -0.125 0 0 1 0 1 0 0 forward_v I I I I #
coedge $-1 $24 $25 $26 $27 forward $9 $-1 #
coedge $-1 $28 $11 $29 $30 reversed $6 $-1 #
coedge $-1 $11 $31 $32 $33 forward $6 $-1 #
coedge $-1 $34 $24 $11 $19 reversed $9 $-1 #
edge $-1 $35 0 $36 2.094395102393197 $11 $37 forward 7 unknown #
face $-1 $38 $39 $3 $-1 $40 reversed single #
loop $-1 $-1 $41 $12 #
plane-surface $-1 -0.015000000000000013 -0.125 0.59999999999999998 0.99862953475457394 0 -0.052335956242944306 -0.052335956242944293 0 -0.99862953475457372 forward_v I I I I #
coedge $-1 $42 $43 $44 $45 forward $13 $-1 #
coedge $-1 $18 $15 $46 $47 reversed $9 $-1 #
coedge $-1 $15 $34 $48 $49 forward $9 $-1 #
coedge $-1 $43 $50 $15 $27 reversed $13 $-1 #
edge $-1 $51 0 $52 1.6346695366848434 $26 $53 forward 7 unknown #
coedge $-1 $54 $16 $55 $56 forward $6 $-1 #
coedge $-1 $46 $57 $16 $30 forward $58 $-1 #
edge $-1 $59 0 $36 0.45985948940953747 $16 $60 forward 7 unknown #
coedge $-1 $17 $54 $61 $62 forward $6 $-1 #
coedge $-1 $63 $64 $17 $33 reversed $65 $-1 #
edge $-1 $66 0 $35 0.45985948940953753 $17 $67 forward 7 unknown #
coedge $-1 $25 $18 $64 $68 forward $9 $-1 #
vertex $-1 $33 $69 #
vertex $-1 $30 $70 #
ellipse-curve $-1 -0.48335948940953744 0 0.60150000000000003 0 1 0 -0.020351596988934295 0 -0.011750000000000038 1 I I #
face $-1 $71 $72 $3 $-1 $73 reversed single #
loop $-1 $-1 $74 $20 #
plane-surface $-1 -3 0 0 0 -1 0 1 0 0 forward_v I I I I #
coedge $-1 $75 $76 $77 $78 reversed $21 $-1 #
coedge $-1 $79 $23 $80 $81 forward $13 $-1 #
coedge $-1 $23 $26 $82 $83 forward $13 $-1 #
coedge $-1 $84 $85 $23 $45 reversed $21 $-1 #
edge $-1 $86 6.3551888352631261e-019 $87 0.033896709461235047 $23 $88 forward 7 unknown #
coedge $-1 $89 $29 $24 $47 forward $58 $-1 #
edge $-1 $36 0 $52 0.125 $46 $90 forward 7 unknown #
coedge $-1 $91 $92 $25 $49 reversed $93 $-1 #
edge $-1 $94 0 $51 0.45972556570834172 $25 $95 forward 7 unknown #
coedge $-1 $26 $79 $89 $96 reversed $13 $-1 #
vertex $-1 $83 $97 #
vertex $-1 $27 $98 #
ellipse-curve $-1 -0.48335948940953749 -0.125 0.60150000000000003 0 1 0 -0.023452078799117093 0 -0.0015000000000000568 1 I I #
coedge $-1 $31 $28 $99 $100 reversed $6 $-1 #
coedge $-1 $101 $102 $28 $56 reversed $103 $-1 #
edge $-1 $59 4.4290812152599396e-016 $104 2.0943951023932028 $28 $105 forward 7 unknown #
coedge $-1 $29 $89 $101 $106 reversed $58 $-1 #
loop $-1 $-1 $46 $107 #
vertex $-1 $56 $108 #
straight-curve $-1 -0.023499999999999993 0 0.625 -1 0 0 I I #
coedge $-1 $109 $110 $31 $62 reversed $111 $-1 #
edge $-1 $112 7.3621695732379762e-015 $66 2.0943951023932028 $31 $113 forward 7 unknown #
coedge $-1 $114 $32 $110 $115 forward $65 $-1 #
coedge $-1 $32 $114 $34 $68 reversed $65 $-1 #
loop $-1 $-1 $64 $116 #
vertex $-1 $33 $117 #
straight-curve $-1 -0.27378134169370277 0 0.19149999999999961 -0.50000000000000011 0 0.8660254037844386 I I #
edge $-1 $35 0 $94 0.125 $64 $118 forward 7 unknown #
point $-1 -0.50371108639847173 0 0.58975 #
point $-1 -0.48335948940953744 0 0.625 #
face $-1 $119 $120 $3 $-1 $121 reversed single #
loop $-1 $-1 $122 $38 #
plane-surface $-1 -0.71999999999999997 -0.125 0.5 1 0 0 0 0 1 forward_v I I I I #
coedge $-1 $123 $124 $122 $125 forward $39 $-1 #
coedge $-1 $85 $41 $126 $127 forward $21 $-1 #
coedge $-1 $41 $128 $129 $130 reversed $21 $-1 #
coedge $-1 $131 $132 $41 $78 forward $39 $-1 #
edge $-1 $133 -2.542075534105252e-018 $134 0.47565186434901258 $77 $135 forward 7 unknown #
coedge $-1 $50 $42 $136 $137 reversed $13 $-1 #
coedge $-1 $138 $139 $42 $81 reversed $140 $-1 #
edge $-1 $87 -5.2041704279304228e-018 $141 0.027251227384154565 $42 $142 forward 7 unknown #
coedge $-1 $143 $144 $43 $83 reversed $145 $-1 #
edge $-1 $51 0 $86 0.49181156820865457 $43 $146 forward 7 unknown #
coedge $-1 $128 $44 $144 $147 forward $21 $-1 #
coedge $-1 $44 $75 $148 $149 reversed $21 $-1 #
vertex $-1 $83 $150 #
vertex $-1 $81 $151 #
straight-curve $-1 -0.015000000000000013 -0.125 0.59999999999999998 -0.052335956242944265 0 -0.99862953475457383 I I #
coedge $-1 $57 $46 $50 $96 forward $58 $-1 #
straight-curve $-1 -0.48335948940953744 0 0.625 0 -1 0 I I #
coedge $-1 $152 $48 $114 $153 forward $93 $-1 #
coedge $-1 $48 $154 $143 $155 forward $93 $-1 #
loop $-1 $-1 $92 $156 #
vertex $-1 $153 $157 #
ellipse-curve $-1 -0.48335948940953671 -0.125 0.60150000000000026 0 1 0 -0.020351596988935017 0 -0.01175000000000026 1 I I #
edge $-1 $52 0 $158 0.45985948940953741 $50 $159 forward 7 unknown #
point $-1 -0.50681156820865458 -0.125 0.59999999999999998 #
point $-1 -0.48335948940953744 -0.125 0.625 #
coedge $-1 $139 $160 $54 $100 forward $140 $-1 #
edge $-1 $112 0 $104 0.45985948940953719 $54 $161 forward 7 unknown #
coedge $-1 $136 $55 $57 $106 forward $103 $-1 #
coedge $-1 $55 $136 $139 $162 reversed $103 $-1 #
loop $-1 $-1 $101 $163 #
vertex $-1 $100 $164 #
ellipse-curve $-1 -0.0235 0 0.60150000000000003 0 1 0 -3.4694469519536142e-018 0 0.023499999999999965 1 I I #
edge $-1 $59 0 $158 0.125 $57 $165 forward 7 unknown #
face $-1 $166 $58 $3 $-1 $167 reversed single #
point $-1 -0.023499999999999993 0 0.625 #
coedge $-1 $168 $61 $160 $169 forward $111 $-1 #
coedge $-1 $61 $168 $63 $115 reversed $111 $-1 #
loop $-1 $-1 $110 $170 #
vertex $-1 $62 $171 #
ellipse-curve $-1 -0.25342974470476848 0 0.20324999999999963 0 1 0 0.020351596988934406 0 -0.011749999999999844 1 I I #
coedge $-1 $64 $63 $91 $153 reversed $65 $-1 #
edge $-1 $66 6.1629758220391547e-033 $172 0.125 $110 $173 forward 7 unknown #
face $-1 $170 $65 $3 $-1 $174 reversed single #
point $-1 -0.27378134169370277 0 0.19149999999999961 #
straight-curve $-1 -0.50371108639847151 0 0.58975 0 -1 0 I I #
face $-1 $175 $176 $3 $-1 $177 reversed single #
loop $-1 $-1 $178 $71 #
plane-surface $-1 0 0 0.5 0 0 -1 -1 0 0 forward_v I I I I #
coedge $-1 $179 $180 $74 $125 reversed $72 $-1 #
coedge $-1 $181 $74 $182 $183 forward $39 $-1 #
coedge $-1 $74 $184 $178 $185 forward $39 $-1 #
edge $-1 $186 0 $187 0.099999999999999978 $74 $188 forward 7 unknown #
coedge $-1 $189 $190 $75 $127 reversed $191 $-1 #
edge $-1 $133 0 $192 0.125 $75 $193 forward 7 unknown #
coedge $-1 $76 $84 $194 $195 forward $21 $-1 #
coedge $-1 $196 $197 $76 $130 forward $198 $-1 #
edge $-1 $134 0 $199 0.5 $129 $200 forward 7 unknown #
coedge $-1 $184 $77 $197 $201 reversed $39 $-1 #
coedge $-1 $77 $202 $189 $203 forward $39 $-1 #
vertex $-1 $78 $204 #
vertex $-1 $201 $205 #
straight-curve $-1 -0.021550972410380224 0 0.47499999999999998 -0.052335956242944293 0 -0.99862953475457383 I I #
coedge $-1 $102 $101 $79 $137 forward $103 $-1 #
edge $-1 $158 0 $141 2.0943951023932055 $79 $206 forward 7 unknown #
coedge $-1 $160 $80 $207 $208 reversed $140 $-1 #
coedge $-1 $80 $99 $102 $162 forward $140 $-1 #
loop $-1 $-1 $138 $209 #
vertex $-1 $137 $210 #
straight-curve $-1 -0.016774016703143043 -0.125 0.56614974480101588 0.50000000000000011 0 0.8660254037844386 I I #
coedge $-1 $211 $82 $92 $155 reversed $145 $-1 #
coedge $-1 $82 $212 $84 $147 reversed $145 $-1 #
loop $-1 $-1 $211 $213 #
straight-curve $-1 -0.50681156820865458 -0.125 0.59999999999999998 1 0 0 I I #
edge $-1 $86 0 $214 0.375 $144 $215 forward 7 unknown #
coedge $-1 $216 $207 $85 $149 forward $93 $-1 #
edge $-1 $87 1.1359380261349354e-016 $192 0.091274833788505233 $148 $217 forward 7 unknown #
point $-1 -0.015000000000000025 -0.125 0.59999999999999998 #
point $-1 -0.016774016703143053 -0.125 0.56614974480101588 #
coedge $-1 $207 $91 $168 $218 reversed $93 $-1 #
edge $-1 $94 -1.1102230246251568e-016 $172 0.45985948940953741 $114 $219 forward 7 unknown #
coedge $-1 $92 $220 $221 $222 reversed $93 $-1 #
edge $-1 $223 0 $51 0.0057041097949593889 $92 $224 forward 7 unknown #
face $-1 $116 $93 $3 $-1 $225 reversed single #
point $-1 -0.50371108639847173 -0.125 0.58975 #
vertex $-1 $96 $226 #
straight-curve $-1 -0.48335948940953744 -0.125 0.625 1 0 0 I I #
coedge $-1 $99 $138 $109 $169 reversed $140 $-1 #
straight-curve $-1 -0.23307814771583432 0 0.19149999999999973 0.5 0 0.8660254037844386 I I #
edge $-1 $104 -7.5833491560247412e-033 $141 0.125 $102 $227 forward 7 unknown #
face $-1 $107 $103 $3 $-1 $228 forward single #
point $-1 -0.003148403011065763 0 0.58974999999999989 #
straight-curve $-1 -0.023499999999999993 0 0.625 0 -1 0 I I #
face $-1 $-1 $198 $3 $-1 $229 forward single #
plane-surface $-1 -0.25342974470476848 0 0.625 0 0 -1 1 0 0 forward_v I I I I #
coedge $-1 $110 $109 $152 $218 forward $111 $-1 #
edge $-1 $112 0 $230 0.125 $160 $231 forward 7 unknown #
face $-1 $209 $111 $3 $-1 $232 forward single #
point $-1 -0.23307814771583432 0 0.19149999999999973 #
vertex $-1 $218 $233 #
straight-curve $-1 -0.27378134169370277 0 0.19149999999999959 0 -1 2.2204460492503131e-016 I I #
plane-surface $-1 -0.27378134169370277 0 0.19149999999999961 0.8660254037844386 0 0.50000000000000011 -0.5 0 0.86602540378443837 forward_v I I I I #
face $-1 $213 $234 $3 $-1 $235 reversed single #
loop $-1 $-1 $236 $119 #
plane-surface $-1 -3 -0.5 0 1 0 0 0 1 0 forward_v I I I I #
coedge $-1 $237 $238 $124 $185 reversed $120 $-1 #
coedge $-1 $239 $122 $238 $240 forward $72 $-1 #
coedge $-1 $122 $239 $241 $242 reversed $72 $-1 #
coedge $-1 $243 $123 $244 $245 forward $39 $-1 #
coedge $-1 $241 $211 $123 $183 reversed $145 $-1 #
edge $-1 $187 -2.2204460492503131e-016 $246 0.207484321996386 $123 $247 forward 7 unknown #
coedge $-1 $124 $131 $248 $249 forward $39 $-1 #
edge $-1 $250 0 $186 2.2800000000000002 $178 $251 forward 7 unknown #
vertex $-1 $240 $252 #
vertex $-1 $183 $253 #
straight-curve $-1 -0.71999999999999997 0 0.5 0 0 1 I I #
coedge $-1 $254 $126 $132 $203 reversed $191 $-1 #
coedge $-1 $126 $254 $216 $255 forward $191 $-1 #
loop $-1 $-1 $126 $256 #
vertex $-1 $255 $257 #
straight-curve $-1 -0.021550972410380217 0 0.47499999999999998 0 -1 0 I I #
coedge $-1 $258 $259 $128 $195 reversed $234 $-1 #
edge $-1 $214 -7.2630729545864359e-019 $199 0.60082340759875275 $194 $260 forward 7 unknown #
coedge $-1 $261 $129 $259 $262 forward $198 $-1 #
coedge $-1 $129 $261 $131 $201 forward $198 $-1 #
loop $-1 $-1 $129 $166 #
vertex $-1 $262 $263 #
straight-curve $-1 -0.046444667569825022 0 -1.1102230246251565e-016 0 -1 0 I I #
edge $-1 $264 0 $134 2.9535553324301751 $197 $265 forward 7 unknown #
coedge $-1 $132 $243 $266 $267 forward $39 $-1 #
edge $-1 $268 0 $133 0.044961622644247079 $132 $269 forward 7 unknown #
point $-1 -0.021550972410380176 0 0.47499999999999998 #
point $-1 -0.046444667569825016 0 0 #
ellipse-curve $-1 -0.023499999999999958 -0.125 0.60150000000000003 0 1 0 -4.5102810375396984e-017 0 0.023499999999999965 1 I I #
coedge $-1 $148 $152 $138 $208 forward $93 $-1 #
edge $-1 $230 8.5988888547198106e-017 $87 0.4326082620253851 $138 $270 forward 7 unknown #
face $-1 $163 $140 $3 $-1 $271 reversed single #
point $-1 -0.003148403011065763 -0.125 0.58974999999999989 #
coedge $-1 $182 $143 $272 $273 reversed $145 $-1 #
coedge $-1 $144 $241 $258 $274 forward $145 $-1 #
face $-1 $275 $145 $3 $-1 $276 reversed single #
vertex $-1 $274 $277 #
straight-curve $-1 -0.015000000000000013 -0.125 0.59999999999999998 0 -1 0 I I #
coedge $-1 $278 $148 $190 $255 reversed $93 $-1 #
straight-curve $-1 -0.016774016703143001 -0.125 0.56614974480101599 -0.052335956242944306 0 -0.99862953475457383 I I #
edge $-1 $230 0 $172 2.0943951023931042 $168 $279 forward 7 unknown #
straight-curve $-1 -0.50371108639847151 -0.125 0.58975 0.50000000000000011 0 -0.8660254037844386 I I #
coedge $-1 $154 $278 $280 $281 forward $93 $-1 #
coedge $-1 $282 $272 $154 $222 forward $283 $-1 #
edge $-1 $223 0 $284 0.47313854560089919 $154 $285 forward 7 unknown #
vertex $-1 $222 $286 #
straight-curve $-1 -0.51251567800361397 -0.125 0.59999999999999998 1 0 0 I I #
plane-surface $-1 -0.71999999999999997 -0.125 0 0 -1 0 1 0 0 forward_v I I I I #
point $-1 -0.023500000000000004 -0.125 0.625 #
straight-curve $-1 -0.0031484030110657084 0 0.58975 1.3877787807814457e-016 -1 0 I I #
cone-surface $-1 -0.0235 0 0.60150000000000003 0 1 0 0.0235 0 0 1 I I 0 1 0.0235 forward I I I I #
plane-surface $-1 0 0 0 0 0 -1 -1 0 0 forward_v I I I I #
vertex $-1 $169 $287 #
straight-curve $-1 -0.23307814771583432 0 0.19149999999999973 0 -1 0 I I #
cone-surface $-1 -0.25342974470476848 0 0.20324999999999963 0 1 0 -0.0235 0 0 1 I I 0 1 0.0235 forward I I I I #
point $-1 -0.27378134169370277 -0.125 0.19149999999999961 #
loop $-1 $-1 $194 $175 #
plane-surface $-1 -0.014999999999999999 -0.5 0 0 1 0 -1 0 0 forward_v I I I I #
coedge $-1 $288 $289 $290 $291 forward $176 $-1 #
coedge $-1 $292 $178 $288 $293 reversed $120 $-1 #
coedge $-1 $178 $292 $179 $240 reversed $120 $-1 #
coedge $-1 $180 $179 $294 $295 forward $72 $-1 #
edge $-1 $186 0 $296 0.5 $238 $297 forward 7 unknown #
coedge $-1 $212 $182 $180 $242 forward $145 $-1 #
edge $-1 $187 0 $298 0.5 $241 $299 forward 7 unknown #
coedge $-1 $202 $181 $300 $301 forward $39 $-1 #
coedge $-1 $272 $282 $181 $245 reversed $283 $-1 #
edge $-1 $246 -4.0636983087920345e-017 $302 0.47313854560089896 $181 $303 forward 7 unknown #
vertex $-1 $245 $304 #
straight-curve $-1 -0.71999999999999975 0 0.59999999999999998 1 0 0 I I #
coedge $-1 $289 $288 $184 $249 reversed $176 $-1 #
edge $-1 $264 0 $250 0.5 $248 $305 forward 7 unknown #
vertex $-1 $293 $306 #
straight-curve $-1 -3 0 0.5 1 0 0 I I #
point $-1 -0.71999999999999997 0 0.5 #
point $-1 -0.71999999999999997 0 0.59999999999999998 #
coedge $-1 $190 $189 $307 $308 forward $191 $-1 #
edge $-1 $309 0 $192 0.044961622644246857 $216 $310 forward 7 unknown #
face $-1 $156 $191 $3 $-1 $311 reversed single #
point $-1 -0.021550972410380176 -0.125 0.47499999999999998 #
coedge $-1 $294 $194 $212 $274 reversed $234 $-1 #
coedge $-1 $194 $290 $196 $262 reversed $234 $-1 #
straight-curve $-1 -0.015000000000000013 -0.5 0.59999999999999998 -0.052335956242944293 0 -0.99862953475457372 I I #
coedge $-1 $197 $196 $289 $312 forward $198 $-1 #
edge $-1 $199 0 $313 2.9535553324301751 $196 $314 forward 7 unknown #
point $-1 -0.046444667569825016 -0.5 0 #
vertex $-1 $201 $315 #
straight-curve $-1 -3 0 0 1 0 0 I I #
coedge $-1 $316 $307 $202 $267 reversed $317 $-1 #
edge $-1 $318 1.115562610750303e-017 $268 0.32880097830348926 $202 $319 forward 7 unknown #
vertex $-1 $203 $320 #
straight-curve $-1 -0.066512595054627255 0 0.47499999999999998 1 0 0 I I #
straight-curve $-1 -0.2330781477158356 -0.125 0.19149999999999751 0.5 0 0.86602540378443871 I I #
plane-surface $-1 -0.003148403011065691 0 0.58975 -0.86602540378443871 0 0.50000000000000011 -0.5 0 -0.8660254037844386 forward_v I I I I #
coedge $-1 $221 $244 $211 $273 forward $283 $-1 #
edge $-1 $246 0 $223 0.125 $211 $321 forward 7 unknown #
edge $-1 $298 0 $214 0.70499999999999996 $258 $322 forward 7 unknown #
face $-1 $323 $283 $3 $-1 $324 reversed single #
plane-surface $-1 -0.71999999999999997 -0.125 0.59999999999999998 0 0 -1 1 0 0 forward_v I I I I #
point $-1 -0.014999999999999999 -0.5 0.59999999999999998 #
coedge $-1 $220 $216 $325 $326 reversed $93 $-1 #
ellipse-curve $-1 -0.25342974470476859 -0.125 0.20324999999999943 0 1 0 0.020351596988933018 0 -0.011750000000001842 1 I I #
coedge $-1 $327 $328 $220 $281 reversed $329 $-1 #
edge $-1 $330 0 $284 2.0943951023931962 $220 $331 forward 7 unknown #
coedge $-1 $244 $221 $328 $332 reversed $283 $-1 #
loop $-1 $-1 $282 $275 #
vertex $-1 $222 $333 #
straight-curve $-1 -0.51251567800361397 -0.125 0.59999999999999998 0.50000000000000022 0 -0.8660254037844386 I I #
point $-1 -0.51251567800361397 -0.125 0.59999999999999998 #
point $-1 -0.23307814771583557 -0.125 0.19149999999999759 #
coedge $-1 $248 $236 $237 $293 forward $176 $-1 #
coedge $-1 $236 $248 $261 $312 reversed $176 $-1 #
coedge $-1 $259 $334 $236 $291 reversed $234 $-1 #
edge $-1 $313 0 $335 0.5 $290 $336 forward 7 unknown #
coedge $-1 $238 $237 $334 $337 reversed $120 $-1 #
edge $-1 $335 0 $250 0.5 $237 $338 forward 7 unknown #
coedge $-1 $334 $258 $239 $295 reversed $234 $-1 #
edge $-1 $296 0 $298 0.099999999999999978 $294 $339 forward 7 unknown #
vertex $-1 $240 $340 #
straight-curve $-1 -0.71999999999999997 0 0.5 0 -1 0 I I #
vertex $-1 $295 $341 #
straight-curve $-1 -0.71999999999999997 0 0.59999999999999998 0 -1 0 I I #
coedge $-1 $328 $327 $243 $301 reversed $329 $-1 #
edge $-1 $302 0 $318 2.0943951023933067 $243 $342 forward 7 unknown #
vertex $-1 $301 $343 #
straight-curve $-1 -0.51251567800361386 0 0.59999999999999987 0.50000000000000011 0 -0.86602540378443849 I I #
point $-1 -0.51251567800361375 0 0.59999999999999998 #
straight-curve $-1 -3 0 0 0 0 1 I I #
point $-1 -3 0 0.5 #
coedge $-1 $266 $325 $254 $308 reversed $317 $-1 #
edge $-1 $268 0 $309 0.125 $307 $344 forward 7 unknown #
vertex $-1 $326 $345 #
straight-curve $-1 -0.066512595054627033 -0.125 0.47499999999999998 1 0 0 I I #
plane-surface $-1 -0.066512595054627088 0 0.47499999999999998 0 0 -1 1 0 0 forward_v I I I I #
edge $-1 $313 0 $264 0.5 $261 $346 forward 7 unknown #
vertex $-1 $312 $347 #
straight-curve $-1 -0.046444667569825016 -0.5 0 -1 0 0 I I #
point $-1 -3 0 0 #
coedge $-1 $325 $266 $327 $348 forward $317 $-1 #
loop $-1 $-1 $307 $349 #
vertex $-1 $267 $350 #
straight-curve $-1 -0.23091308420637152 0 0.190250000000002 0.49999999999999972 0 0.86602540378443882 I I #
point $-1 -0.066512595054627255 0 0.47499999999999998 #
straight-curve $-1 -0.51251567800361397 0 0.59999999999999998 0 -1 0 I I #
straight-curve $-1 -0.71999999999999997 -0.5 0.59999999999999998 1 0 0 I I #
face $-1 $349 $329 $3 $-1 $351 reversed single #
plane-surface $-1 -0.51251567800361397 0 0.59999999999999998 -0.8660254037844386 0 -0.50000000000000033 0.5 0 -0.86602540378443815 forward_v I I I I #
coedge $-1 $307 $316 $278 $326 forward $317 $-1 #
edge $-1 $330 0 $309 0.32880097830349209 $278 $352 forward 7 unknown #
coedge $-1 $300 $280 $316 $348 reversed $329 $-1 #
coedge $-1 $280 $300 $282 $332 forward $329 $-1 #
loop $-1 $-1 $327 $323 #
vertex $-1 $281 $353 #
ellipse-curve $-1 -0.25342974470476848 -0.125 0.20324999999999968 0 1 0 0.022516660498395624 0 -0.013000000000000012 1 I I #
edge $-1 $302 0 $284 0.125 $282 $354 forward 7 unknown #
point $-1 -0.27594640520316399 -0.125 0.19024999999999953 #
coedge $-1 $290 $294 $292 $337 forward $234 $-1 #
vertex $-1 $337 $355 #
straight-curve $-1 -3 -0.5 0 0 0 1 I I #
edge $-1 $296 0 $335 2.2800000000000002 $292 $356 forward 7 unknown #
straight-curve $-1 -3 -0.5 0.5 0 1 0 I I #
straight-curve $-1 -0.71999999999999997 -0.5 0.5 0 0 1 I I #
point $-1 -0.71999999999999997 -0.5 0.5 #
point $-1 -0.71999999999999997 -0.5 0.59999999999999998 #
ellipse-curve $-1 -0.25342974470476848 0 0.20324999999999963 0 -1 0 -0.02251666049839568 0 -0.013000000000000095 1 I I #
point $-1 -0.27594640520316416 0 0.19024999999999953 #
straight-curve $-1 -0.066512595054626894 0 0.47499999999999987 0 -1 0 I I #
point $-1 -0.066512595054627033 -0.125 0.47499999999999998 #
straight-curve $-1 -3 -0.5 0 0 1 0 I I #
point $-1 -3 -0.5 0 #
edge $-1 $318 3.5128962185623182e-031 $330 0.125 $327 $357 forward 7 unknown #
face $-1 $256 $317 $3 $-1 $358 reversed single #
point $-1 -0.23091308420637136 0 0.19025000000000192 #
cone-surface $-1 -0.25342974470476848 0 0.20324999999999963 0 1 0 0.026000000000000141 0 0 1 I I 0 1 0.026000000000000141 forward I I I I #
straight-curve $-1 -0.23091308420637285 -0.125 0.19024999999999967 0.49999999999999983 0 0.86602540378443871 I I #
point $-1 -0.23091308420637285 -0.125 0.19024999999999967 #
straight-curve $-1 -0.27594640520316427 0 0.19024999999999925 0 -1 0 I I #
point $-1 -3 -0.5 0.5 #
straight-curve $-1 -0.71999999999999997 -0.5 0.5 -1 0 0 I I #
straight-curve $-1 -0.23091308420637294 0 0.19024999999999959 2.2204460492503131e-016 -1 0 I I #
plane-surface $-1 -0.23091308420637291 0 0.19024999999999959 0.86602540378443882 0 -0.49999999999999978 0.5 0 0.86602540378443915 forward_v I I I I #
End-of-ACIS-data 