600 0 1 0           
93 GICL ACIS Healer - Source: /gicl/data5/repository/PTC/V18/mfgintro18/tools/ctgpl_16.sat - 6 0 18 ACIS 6.0.3 Solaris 24 Sat Apr 13 21:58:43 2002 
1 9.999999999999999547e-07 1.000000000000000036e-10 
body $-1 $1 $-1 $-1 #
lump $-1 $-1 $2 $0 #
shell $-1 $-1 $-1 $3 $-1 $1 #
face $-1 $4 $5 $2 $-1 $6 forward single #
face $-1 $7 $8 $2 $-1 $9 forward single #
loop $-1 $-1 $10 $3 #
plane-surface $-1 0 0 0 0 1 0 25.39999999999999858 0 0 forward_v I I I I #
face $-1 $11 $12 $2 $-1 $13 reversed single #
loop $-1 $-1 $14 $4 #
cone-surface $-1 -12.27733103100224987 0 15.27810000000000024 0 1 0 -0.5968999999999999861 0 0 1 I I 0 1 0.5968999999999999861 forward I I I I #
coedge $-1 $15 $16 $17 $18 forward $5 $-1 #
face $-1 $19 $20 $2 $-1 $21 forward single #
loop $-1 $-1 $22 $7 #
plane-surface $-1 0 -3.174999999999999822 0 0 1 0 25.39999999999999858 0 0 forward_v I I I I #
coedge $-1 $23 $24 $25 $26 forward $8 $-1 #
coedge $-1 $27 $10 $28 $29 reversed $5 $-1 #
coedge $-1 $10 $30 $31 $32 forward $5 $-1 #
coedge $-1 $33 $23 $10 $18 reversed $8 $-1 #
edge $-1 $34 5.453120828008489679e-16 $35 2.094395102393197483 $10 $36 forward 7 unknown #
face $-1 $37 $38 $2 $-1 $39 reversed single #
loop $-1 $-1 $40 $11 #
plane-surface $-1 -0.3810000000000003384 -3.174999999999999822 15.23999999999999844 0.9986295347545739443 0 -0.05233595624294430648 -1.329333288570784921 0 -25.36519018276617032 forward_v I I I I #
coedge $-1 $41 $42 $43 $44 forward $12 $-1 #
coedge $-1 $17 $14 $45 $46 reversed $8 $-1 #
coedge $-1 $14 $33 $47 $48 forward $8 $-1 #
coedge $-1 $42 $49 $14 $26 reversed $12 $-1 #
edge $-1 $50 -6.037383773866575707e-16 $51 1.634669536684844049 $25 $52 forward 7 unknown #
coedge $-1 $53 $15 $54 $55 forward $5 $-1 #
coedge $-1 $45 $56 $15 $29 forward $57 $-1 #
edge $-1 $58 0 $35 0.4598594894095374142 $15 $59 forward 7 unknown #
coedge $-1 $16 $53 $60 $61 forward $5 $-1 #
coedge $-1 $62 $63 $16 $32 reversed $64 $-1 #
edge $-1 $65 0 $34 0.4598594894095375252 $16 $66 forward 7 unknown #
coedge $-1 $24 $17 $63 $67 forward $8 $-1 #
vertex $-1 $32 $68 #
vertex $-1 $29 $69 #
ellipse-curve $-1 -12.27733103100224987 0 15.27810000000000024 0 1 0 -0.5169305635189310744 0 -0.2984500000000009368 1 I I #
face $-1 $70 $71 $2 $-1 $72 reversed single #
loop $-1 $-1 $73 $19 #
plane-surface $-1 -76.19999999999998863 0 0 0 -1 0 25.39999999999999858 0 0 forward_v I I I I #
coedge $-1 $74 $75 $76 $77 reversed $20 $-1 #
coedge $-1 $78 $22 $79 $80 forward $12 $-1 #
coedge $-1 $22 $25 $81 $82 forward $12 $-1 #
coedge $-1 $83 $84 $22 $44 reversed $20 $-1 #
edge $-1 $85 5.718955082351519281e-19 $86 0.03389670946123506112 $22 $87 forward 7 unknown #
coedge $-1 $88 $28 $23 $46 forward $57 $-1 #
edge $-1 $35 0 $51 0.125 $45 $89 forward 7 unknown #
coedge $-1 $90 $91 $24 $48 reversed $92 $-1 #
edge $-1 $93 4.674103566864133059e-16 $50 0.4597255657083416103 $24 $94 forward 7 unknown #
coedge $-1 $25 $78 $88 $95 reversed $12 $-1 #
vertex $-1 $82 $96 #
vertex $-1 $26 $97 #
ellipse-curve $-1 -12.27733103100225165 -3.174999999999999822 15.27810000000000024 0 1 0 -0.5956828014975741326 0 -0.03810000000000143827 1 I I #
coedge $-1 $30 $27 $98 $99 reversed $5 $-1 #
coedge $-1 $100 $101 $27 $55 reversed $102 $-1 #
edge $-1 $58 5.19632363050181467e-16 $103 2.0943951023932037 $27 $104 forward 7 unknown #
coedge $-1 $28 $88 $100 $105 reversed $57 $-1 #
loop $-1 $-1 $45 $106 #
vertex $-1 $55 $107 #
straight-curve $-1 -0.5968999999999997641 0 15.875 -25.39999999999999858 0 0 I I #
coedge $-1 $108 $109 $30 $61 reversed $110 $-1 #
edge $-1 $111 7.556467433097552244e-15 $65 2.0943951023932037 $30 $112 forward 7 unknown #
coedge $-1 $113 $31 $109 $114 forward $64 $-1 #
coedge $-1 $31 $113 $33 $67 reversed $64 $-1 #
loop $-1 $-1 $63 $115 #
vertex $-1 $32 $116 #
straight-curve $-1 -6.954046079020050009 0 4.864099999999989876 -12.70000000000000284 0 21.99704525612473915 I I #
edge $-1 $34 0 $93 0.125 $63 $117 forward 7 unknown #
point $-1 -12.79426159452118128 0 14.97964999999999947 #
point $-1 -12.27733103100224987 0 15.875 #
face $-1 $118 $119 $2 $-1 $120 reversed single #
loop $-1 $-1 $121 $37 #
plane-surface $-1 -18.2879999999999967 -3.174999999999999822 12.69999999999999929 1 0 0 0 0 25.39999999999999858 forward_v I I I I #
coedge $-1 $122 $123 $121 $124 forward $38 $-1 #
coedge $-1 $84 $40 $125 $126 forward $20 $-1 #
coedge $-1 $40 $127 $128 $129 reversed $20 $-1 #
coedge $-1 $130 $131 $40 $77 forward $38 $-1 #
edge $-1 $132 -2.516340236234669408e-18 $133 0.4756518643490124654 $76 $134 forward 7 unknown #
coedge $-1 $49 $41 $135 $136 reversed $12 $-1 #
coedge $-1 $137 $138 $41 $80 reversed $139 $-1 #
edge $-1 $86 -5.463695987328527361e-18 $140 0.02725122738415458254 $41 $141 forward 7 unknown #
coedge $-1 $142 $143 $42 $82 reversed $144 $-1 #
edge $-1 $50 0 $85 0.4918115682086545704 $42 $145 forward 7 unknown #
coedge $-1 $127 $43 $143 $146 forward $20 $-1 #
coedge $-1 $43 $74 $147 $148 reversed $20 $-1 #
vertex $-1 $82 $149 #
vertex $-1 $80 $150 #
straight-curve $-1 -0.3810000000000003384 -3.174999999999999822 15.23999999999999844 -1.329333288570784255 0 -25.36519018276617388 I I #
coedge $-1 $56 $45 $49 $95 forward $57 $-1 #
straight-curve $-1 -12.27733103100224987 0 15.875 0 -25.39999999999999858 0 I I #
coedge $-1 $151 $47 $113 $152 forward $92 $-1 #
coedge $-1 $47 $153 $142 $154 forward $92 $-1 #
loop $-1 $-1 $91 $155 #
vertex $-1 $152 $156 #
ellipse-curve $-1 -12.27733103100223211 -3.174999999999999822 15.27810000000000556 0 1 0 -0.516930563518949393 0 -0.2984500000000065989 1 I I #
edge $-1 $51 0 $157 0.4598594894095374142 $49 $158 forward 7 unknown #
point $-1 -12.87301383249982578 -3.174999999999999822 15.23999999999999844 #
point $-1 -12.27733103100224987 -3.174999999999999822 15.875 #
coedge $-1 $138 $159 $53 $99 forward $139 $-1 #
edge $-1 $111 0 $103 0.4598594894095370811 $53 $160 forward 7 unknown #
coedge $-1 $135 $54 $56 $105 forward $102 $-1 #
coedge $-1 $54 $135 $138 $161 reversed $102 $-1 #
loop $-1 $-1 $100 $162 #
vertex $-1 $99 $163 #
ellipse-curve $-1 -0.5968999999999999861 0 15.27810000000000024 0 1 0 -8.812395257962179547e-17 0 0.596899999999999098 1 I I #
edge $-1 $58 0 $157 0.125 $56 $164 forward 7 unknown #
face $-1 $165 $57 $2 $-1 $166 reversed single #
point $-1 -0.5968999999999997641 0 15.875 #
coedge $-1 $167 $60 $159 $168 forward $110 $-1 #
coedge $-1 $60 $167 $62 $114 reversed $110 $-1 #
loop $-1 $-1 $109 $169 #
vertex $-1 $61 $170 #
ellipse-curve $-1 -6.437115515501118601 0 5.162549999999989758 0 1 0 0.5169305635189338499 0 -0.2984499999999959963 1 I I #
coedge $-1 $63 $62 $90 $152 reversed $64 $-1 #
edge $-1 $65 7.764378988395785379e-33 $171 0.125 $109 $172 forward 7 unknown #
face $-1 $169 $64 $2 $-1 $173 reversed single #
point $-1 -6.954046079020050009 0 4.864099999999989876 #
straight-curve $-1 -12.79426159452117595 0 14.97964999999999947 0 -25.39999999999999858 0 I I #
face $-1 $174 $175 $2 $-1 $176 reversed single #
loop $-1 $-1 $177 $70 #
plane-surface $-1 0 0 12.69999999999999929 0 0 -1 -25.39999999999999858 0 0 forward_v I I I I #
coedge $-1 $178 $179 $73 $124 reversed $71 $-1 #
coedge $-1 $180 $73 $181 $182 forward $38 $-1 #
coedge $-1 $73 $183 $177 $184 forward $38 $-1 #
edge $-1 $185 0 $186 0.0999999999999999778 $73 $187 forward 7 unknown #
coedge $-1 $188 $189 $74 $126 reversed $190 $-1 #
edge $-1 $132 0 $191 0.125 $74 $192 forward 7 unknown #
coedge $-1 $75 $83 $193 $194 forward $20 $-1 #
coedge $-1 $195 $196 $75 $129 forward $197 $-1 #
edge $-1 $133 0 $198 0.5 $128 $199 forward 7 unknown #
coedge $-1 $183 $76 $196 $200 reversed $38 $-1 #
coedge $-1 $76 $201 $188 $202 forward $38 $-1 #
vertex $-1 $77 $203 #
vertex $-1 $200 $204 #
straight-curve $-1 -0.5473946992236576881 0 12.0649999999999995 -1.329333288570784921 0 -25.36519018276617388 I I #
coedge $-1 $101 $100 $78 $136 forward $102 $-1 #
edge $-1 $157 -1.267112473657020656e-16 $140 2.094395102393206365 $78 $205 forward 7 unknown #
coedge $-1 $159 $79 $206 $207 reversed $139 $-1 #
coedge $-1 $79 $98 $101 $161 forward $139 $-1 #
loop $-1 $-1 $137 $208 #
vertex $-1 $136 $209 #
straight-curve $-1 -0.4260600242598332477 -3.174999999999999822 14.38020351794580165 12.70000000000000284 0 21.99704525612473915 I I #
coedge $-1 $210 $81 $91 $154 reversed $144 $-1 #
coedge $-1 $81 $211 $83 $146 reversed $144 $-1 #
loop $-1 $-1 $210 $212 #
straight-curve $-1 -12.87301383249982578 -3.174999999999999822 15.23999999999999844 25.39999999999999858 0 0 I I #
edge $-1 $85 0 $213 0.3749999999999999445 $143 $214 forward 7 unknown #
coedge $-1 $215 $206 $84 $148 forward $92 $-1 #
edge $-1 $86 1.424240278953064773e-16 $191 0.09127483378850517748 $147 $216 forward 7 unknown #
point $-1 -0.381000000000000616 -3.174999999999999822 15.23999999999999844 #
point $-1 -0.4260600242598335252 -3.174999999999999822 14.38020351794580165 #
coedge $-1 $206 $90 $167 $217 reversed $92 $-1 #
edge $-1 $93 -1.049029629567077401e-16 $171 0.4598594894095374142 $113 $218 forward 7 unknown #
coedge $-1 $91 $219 $220 $221 reversed $92 $-1 #
edge $-1 $222 0 $50 0.005704109794959394929 $91 $223 forward 7 unknown #
face $-1 $115 $92 $2 $-1 $224 reversed single #
point $-1 -12.79426159452118128 -3.174999999999999822 14.97964999999999947 #
vertex $-1 $95 $225 #
straight-curve $-1 -12.27733103100224987 -3.174999999999999822 15.875 25.39999999999999858 0 0 I I #
coedge $-1 $98 $137 $108 $168 reversed $139 $-1 #
straight-curve $-1 -5.920184951982191635 0 4.864099999999992541 12.69999999999999929 0 21.99704525612473915 I I #
edge $-1 $103 -7.58240135585525948e-33 $140 0.125 $101 $226 forward 7 unknown #
face $-1 $106 $102 $2 $-1 $227 forward single #
point $-1 -0.07996943648107038283 0 14.97964999999999591 #
straight-curve $-1 -0.5968999999999997641 0 15.875 0 -25.39999999999999858 0 I I #
face $-1 $-1 $197 $2 $-1 $228 forward single #
plane-surface $-1 -6.437115515501118601 0 15.875 0 0 -1 25.39999999999999858 0 0 forward_v I I I I #
coedge $-1 $109 $108 $151 $217 forward $110 $-1 #
edge $-1 $111 0 $229 0.125 $159 $230 forward 7 unknown #
face $-1 $208 $110 $2 $-1 $231 forward single #
point $-1 -5.920184951982191635 0 4.864099999999992541 #
vertex $-1 $217 $232 #
straight-curve $-1 -6.954046079020050009 0 4.864099999999988988 0 -25.39999999999999858 5.63993296509579491e-15 I I #
plane-surface $-1 -6.954046079020050009 0 4.864099999999989876 0.8660254037844385966 0 0.500000000000000111 -12.69999999999999929 0 21.99704525612473205 forward_v I I I I #
face $-1 $212 $233 $2 $-1 $234 reversed single #
loop $-1 $-1 $235 $118 #
plane-surface $-1 -76.19999999999998863 -12.69999999999999929 0 1 0 0 0 25.39999999999999858 0 forward_v I I I I #
coedge $-1 $236 $237 $123 $184 reversed $119 $-1 #
coedge $-1 $238 $121 $237 $239 forward $71 $-1 #
coedge $-1 $121 $238 $240 $241 reversed $71 $-1 #
coedge $-1 $242 $122 $243 $244 forward $38 $-1 #
coedge $-1 $240 $210 $122 $182 reversed $144 $-1 #
edge $-1 $186 -1.398706172756102709e-16 $245 0.2074843219963860008 $122 $246 forward 7 unknown #
coedge $-1 $123 $130 $247 $248 forward $38 $-1 #
edge $-1 $249 0 $185 2.279999999999999805 $177 $250 forward 7 unknown #
vertex $-1 $239 $251 #
vertex $-1 $182 $252 #
straight-curve $-1 -18.2879999999999967 0 12.69999999999999929 0 0 25.39999999999999858 I I #
coedge $-1 $253 $125 $131 $202 reversed $190 $-1 #
coedge $-1 $125 $253 $215 $254 forward $190 $-1 #
loop $-1 $-1 $125 $255 #
vertex $-1 $254 $256 #
straight-curve $-1 -0.547394699223657466 0 12.0649999999999995 0 -25.39999999999999858 0 I I #
coedge $-1 $257 $258 $127 $194 reversed $233 $-1 #
edge $-1 $213 -8.006537115292135275e-19 $198 0.6008234075987528566 $193 $259 forward 7 unknown #
coedge $-1 $260 $128 $258 $261 forward $197 $-1 #
coedge $-1 $128 $260 $130 $200 forward $197 $-1 #
loop $-1 $-1 $128 $165 #
vertex $-1 $261 $262 #
straight-curve $-1 -1.179694556273555461 0 -2.819966482547897455e-15 0 -25.39999999999999858 0 I I #
edge $-1 $263 0 $133 2.953555332430174651 $196 $264 forward 7 unknown #
coedge $-1 $131 $242 $265 $266 forward $38 $-1 #
edge $-1 $267 0 $132 0.04496162264424707899 $131 $268 forward 7 unknown #
point $-1 -0.5473946992236564668 0 12.0649999999999995 #
point $-1 -1.179694556273555239 0 0 #
ellipse-curve $-1 -0.5968999999999988759 -3.174999999999999822 15.27810000000000024 0 1 0 -1.145611383535083366e-15 0 0.596899999999999098 1 I I #
coedge $-1 $147 $151 $137 $207 forward $92 $-1 #
edge $-1 $229 6.056575390184452383e-17 $86 0.4326082620253849931 $137 $269 forward 7 unknown #
face $-1 $162 $139 $2 $-1 $270 reversed single #
point $-1 -0.07996943648107038283 -3.174999999999999822 14.97964999999999591 #
coedge $-1 $181 $142 $271 $272 reversed $144 $-1 #
coedge $-1 $143 $240 $257 $273 forward $144 $-1 #
face $-1 $274 $144 $2 $-1 $275 reversed single #
vertex $-1 $273 $276 #
straight-curve $-1 -0.3810000000000003384 -3.174999999999999822 15.23999999999999844 0 -25.39999999999999858 0 I I #
coedge $-1 $277 $147 $189 $254 reversed $92 $-1 #
straight-curve $-1 -0.4260600242598321929 -3.174999999999999822 14.3802035179458052 -1.329333288570785365 0 -25.36519018276617388 I I #
edge $-1 $229 3.116069044576335389e-16 $171 2.094395102393104224 $167 $278 forward 7 unknown #
straight-curve $-1 -12.79426159452117595 -3.174999999999999822 14.97964999999999947 12.70000000000000284 0 -21.99704525612473915 I I #
coedge $-1 $153 $277 $279 $280 forward $92 $-1 #
coedge $-1 $281 $271 $153 $221 forward $282 $-1 #
edge $-1 $222 0 $283 0.4731385456008991297 $153 $284 forward 7 unknown #
vertex $-1 $221 $285 #
straight-curve $-1 -13.01789822129179441 -3.174999999999999822 15.23999999999999844 25.39999999999999858 0 0 I I #
plane-surface $-1 -18.2879999999999967 -3.174999999999999822 0 0 -1 0 25.39999999999999858 0 0 forward_v I I I I #
point $-1 -0.5969000000000000972 -3.174999999999999822 15.875 #
straight-curve $-1 -0.07996943648106899505 0 14.97964999999999947 3.524958103184872016e-15 -25.39999999999999858 0 I I #
cone-surface $-1 -0.5968999999999999861 0 15.27810000000000024 0 1 0 0.5968999999999999861 0 0 1 I I 0 1 0.5968999999999999861 forward I I I I #
plane-surface $-1 0 0 0 0 0 -1 -25.39999999999999858 0 0 forward_v I I I I #
vertex $-1 $168 $286 #
straight-curve $-1 -5.920184951982191635 0 4.864099999999992541 0 -25.39999999999999858 0 I I #
cone-surface $-1 -6.437115515501118601 0 5.162549999999989758 0 1 0 -0.5968999999999999861 0 0 1 I I 0 1 0.5968999999999999861 forward I I I I #
point $-1 -6.954046079020050009 -3.174999999999999822 4.864099999999989876 #
loop $-1 $-1 $193 $174 #
plane-surface $-1 -0.3809999999999999498 -12.69999999999999929 0 0 1 0 -25.39999999999999858 0 0 forward_v I I I I #
coedge $-1 $287 $288 $289 $290 forward $175 $-1 #
coedge $-1 $291 $177 $287 $292 reversed $119 $-1 #
coedge $-1 $177 $291 $178 $239 reversed $119 $-1 #
coedge $-1 $179 $178 $293 $294 forward $71 $-1 #
edge $-1 $185 0 $295 0.5 $237 $296 forward 7 unknown #
coedge $-1 $211 $181 $179 $241 forward $144 $-1 #
edge $-1 $186 0 $297 0.5 $240 $298 forward 7 unknown #
coedge $-1 $201 $180 $299 $300 forward $38 $-1 #
coedge $-1 $271 $281 $180 $244 reversed $282 $-1 #
edge $-1 $245 -8.616385348478646761e-17 $301 0.4731385456008987966 $180 $302 forward 7 unknown #
vertex $-1 $244 $303 #
straight-curve $-1 -18.28799999999999315 0 15.23999999999999844 25.39999999999999858 0 0 I I #
coedge $-1 $288 $287 $183 $248 reversed $175 $-1 #
edge $-1 $263 0 $249 0.5 $247 $304 forward 7 unknown #
vertex $-1 $292 $305 #
straight-curve $-1 -76.19999999999998863 0 12.69999999999999929 25.39999999999999858 0 0 I I #
point $-1 -18.2879999999999967 0 12.69999999999999929 #
point $-1 -18.2879999999999967 0 15.23999999999999844 #
coedge $-1 $189 $188 $306 $307 forward $190 $-1 #
edge $-1 $308 0 $191 0.04496162264424685695 $215 $309 forward 7 unknown #
face $-1 $155 $190 $2 $-1 $310 reversed single #
point $-1 -0.5473946992236564668 -3.174999999999999822 12.0649999999999995 #
coedge $-1 $293 $193 $211 $273 reversed $233 $-1 #
coedge $-1 $193 $289 $195 $261 reversed $233 $-1 #
straight-curve $-1 -0.3810000000000003384 -12.69999999999999929 15.23999999999999844 -1.329333288570784921 0 -25.36519018276617032 I I #
coedge $-1 $196 $195 $288 $311 forward $197 $-1 #
edge $-1 $198 0 $312 2.953555332430174651 $195 $313 forward 7 unknown #
point $-1 -1.179694556273555239 -12.69999999999999929 0 #
vertex $-1 $200 $314 #
straight-curve $-1 -76.19999999999998863 0 0 25.39999999999999858 0 0 I I #
coedge $-1 $315 $306 $201 $266 reversed $316 $-1 #
edge $-1 $317 9.369554735960551518e-18 $267 0.3288009783034892553 $201 $318 forward 7 unknown #
vertex $-1 $202 $319 #
straight-curve $-1 -1.68941991438753214 0 12.0649999999999995 25.39999999999999858 0 0 I I #
straight-curve $-1 -5.920184951982223609 -3.174999999999999822 4.864099999999936585 12.69999999999999929 0 21.99704525612474271 I I #
plane-surface $-1 -0.07996943648106855096 0 14.97964999999999947 -0.8660254037844387076 0 0.500000000000000111 -12.69999999999999929 0 -21.99704525612473915 forward_v I I I I #
coedge $-1 $220 $243 $210 $272 forward $282 $-1 #
edge $-1 $245 0 $222 0.125 $210 $320 forward 7 unknown #
edge $-1 $297 0 $213 0.704999999999999849 $257 $321 forward 7 unknown #
face $-1 $322 $282 $2 $-1 $323 reversed single #
plane-surface $-1 -18.2879999999999967 -3.174999999999999822 15.23999999999999844 0 0 -1 25.39999999999999858 0 0 forward_v I I I I #
point $-1 -0.3809999999999999498 -12.69999999999999929 15.23999999999999844 #
coedge $-1 $219 $215 $324 $325 reversed $92 $-1 #
ellipse-curve $-1 -6.437115515501122154 -3.174999999999999822 5.162549999999985317 0 1 0 0.5169305635188986559 0 -0.298450000000046789 1 I I #
coedge $-1 $326 $327 $219 $280 reversed $328 $-1 #
edge $-1 $329 8.273313124361672844e-16 $283 2.094395102393196595 $219 $330 forward 7 unknown #
coedge $-1 $243 $220 $327 $331 reversed $282 $-1 #
loop $-1 $-1 $281 $274 #
vertex $-1 $221 $332 #
straight-curve $-1 -13.01789822129179441 -3.174999999999999822 15.23999999999999844 12.70000000000000462 0 -21.99704525612473915 I I #
point $-1 -13.01789822129179441 -3.174999999999999822 15.23999999999999844 #
point $-1 -5.920184951982223609 -3.174999999999999822 4.864099999999938362 #
coedge $-1 $247 $235 $236 $292 forward $175 $-1 #
coedge $-1 $235 $247 $260 $311 reversed $175 $-1 #
coedge $-1 $258 $333 $235 $290 reversed $233 $-1 #
edge $-1 $312 0 $334 0.5 $289 $335 forward 7 unknown #
coedge $-1 $237 $236 $333 $336 reversed $119 $-1 #
edge $-1 $334 0 $249 0.5 $236 $337 forward 7 unknown #
coedge $-1 $333 $257 $238 $294 reversed $233 $-1 #
edge $-1 $295 0 $297 0.0999999999999999778 $293 $338 forward 7 unknown #
vertex $-1 $239 $339 #
straight-curve $-1 -18.2879999999999967 0 12.69999999999999929 0 -25.39999999999999858 0 I I #
vertex $-1 $294 $340 #
straight-curve $-1 -18.2879999999999967 0 15.23999999999999844 0 -25.39999999999999858 0 I I #
coedge $-1 $327 $326 $242 $300 reversed $328 $-1 #
edge $-1 $301 -5.727678316865726175e-16 $317 2.094395102393307617 $242 $341 forward 7 unknown #
vertex $-1 $300 $342 #
straight-curve $-1 -13.01789822129179086 0 15.23999999999999488 12.70000000000000284 0 -21.9970452561247356 I I #
point $-1 -13.01789822129178908 0 15.23999999999999844 #
straight-curve $-1 -76.19999999999998863 0 0 0 0 25.39999999999999858 I I #
point $-1 -76.19999999999998863 0 12.69999999999999929 #
coedge $-1 $265 $324 $253 $307 reversed $316 $-1 #
edge $-1 $267 0 $308 0.125 $306 $343 forward 7 unknown #
vertex $-1 $325 $344 #
straight-curve $-1 -1.689419914387526589 -3.174999999999999822 12.0649999999999995 25.39999999999999858 0 0 I I #
plane-surface $-1 -1.689419914387527921 0 12.0649999999999995 0 0 -1 25.39999999999999858 0 0 forward_v I I I I #
edge $-1 $312 0 $263 0.5 $260 $345 forward 7 unknown #
vertex $-1 $311 $346 #
straight-curve $-1 -1.179694556273555239 -12.69999999999999929 0 -25.39999999999999858 0 0 I I #
point $-1 -76.19999999999998863 0 0 #
coedge $-1 $324 $265 $326 $347 forward $316 $-1 #
loop $-1 $-1 $306 $348 #
vertex $-1 $266 $349 #
straight-curve $-1 -5.865192338841835884 0 4.832350000000050549 12.69999999999999218 0 21.99704525612474626 I I #
point $-1 -1.68941991438753214 0 12.0649999999999995 #
straight-curve $-1 -13.01789822129179441 0 15.23999999999999844 0 -25.39999999999999858 0 I I #
straight-curve $-1 -18.2879999999999967 -12.69999999999999929 15.23999999999999844 25.39999999999999858 0 0 I I #
face $-1 $348 $328 $2 $-1 $350 reversed single #
plane-surface $-1 -13.01789822129179441 0 15.23999999999999844 -0.8660254037844385966 0 -0.5000000000000003331 12.69999999999999929 0 -21.9970452561247285 forward_v I I I I #
coedge $-1 $306 $315 $277 $325 forward $316 $-1 #
edge $-1 $329 0 $308 0.3288009783034920863 $277 $351 forward 7 unknown #
coedge $-1 $299 $279 $315 $347 reversed $328 $-1 #
coedge $-1 $279 $299 $281 $331 forward $328 $-1 #
loop $-1 $-1 $326 $322 #
vertex $-1 $280 $352 #
ellipse-curve $-1 -6.437115515501118601 -3.174999999999999822 5.162549999999991535 0 1 0 0.5719231766592488553 0 -0.3302000000000002711 1 I I #
edge $-1 $301 0 $283 0.125 $281 $353 forward 7 unknown #
point $-1 -7.009038692160364903 -3.174999999999999822 4.832349999999987489 #
coedge $-1 $289 $293 $291 $336 forward $233 $-1 #
vertex $-1 $336 $354 #
straight-curve $-1 -76.19999999999998863 -12.69999999999999929 0 0 0 25.39999999999999858 I I #
edge $-1 $295 0 $334 2.279999999999999805 $291 $355 forward 7 unknown #
straight-curve $-1 -76.19999999999998863 -12.69999999999999929 12.69999999999999929 0 25.39999999999999858 0 I I #
straight-curve $-1 -18.2879999999999967 -12.69999999999999929 12.69999999999999929 0 0 25.39999999999999858 I I #
point $-1 -18.2879999999999967 -12.69999999999999929 12.69999999999999929 #
point $-1 -18.2879999999999967 -12.69999999999999929 15.23999999999999844 #
ellipse-curve $-1 -6.437115515501118601 0 5.162549999999989758 0 -1 0 -0.5719231766592501875 0 -0.3302000000000023805 1 I I #
point $-1 -7.009038692160369344 0 4.832349999999987489 #
straight-curve $-1 -1.689419914387523036 0 12.06499999999999595 0 -25.39999999999999858 0 I I #
point $-1 -1.689419914387526589 -3.174999999999999822 12.0649999999999995 #
straight-curve $-1 -76.19999999999998863 -12.69999999999999929 0 0 25.39999999999999858 0 I I #
point $-1 -76.19999999999998863 -12.69999999999999929 0 #
edge $-1 $317 3.493970544778103831e-31 $329 0.125 $326 $356 forward 7 unknown #
face $-1 $255 $316 $2 $-1 $357 reversed single #
point $-1 -5.865192338841832331 0 4.832350000000048773 #
cone-surface $-1 -6.437115515501118601 0 5.162549999999989758 0 1 0 0.6604000000000035397 0 0 1 I I 0 1 0.6604000000000035397 forward I I I I #
straight-curve $-1 -5.865192338841870523 -3.174999999999999822 4.832349999999991041 12.69999999999999574 0 21.99704525612474271 I I #
point $-1 -5.865192338841870523 -3.174999999999999822 4.832349999999991041 #
straight-curve $-1 -7.009038692160372008 0 4.832349999999980383 0 -25.39999999999999858 0 I I #
point $-1 -76.19999999999998863 -12.69999999999999929 12.69999999999999929 #
straight-curve $-1 -18.2879999999999967 -12.69999999999999929 12.69999999999999929 -25.39999999999999858 0 0 I I #
straight-curve $-1 -5.865192338841872299 0 4.832349999999989265 5.63993296509579491e-15 -25.39999999999999858 0 I I #
plane-surface $-1 -5.865192338841871411 0 4.832349999999989265 0.8660254037844388186 0 -0.499999999999999778 12.69999999999999929 0 21.99704525612475337 forward_v I I I I #
End-of-ACIS-data 