600 0 1 0           
100 GICL Pro/E ACIS Translator - Source: f:/data5/repository/PTC/V18/mfgintro18/tools/cvjnl_16.prt - 6 0 13 ACIS 6.0.3 NT 24 Thu Apr 04 10:00:27 2002 
1 9.9999999999999995e-007 1e-010 
body $-1 $1 $-1 $2 #
lump $-1 $-1 $3 $0 #
transform $-1 1 0 0 0 1 0 0 0 1 0 0 0 25.399999999999999 no_rotate no_reflect no_shear #
shell $-1 $-1 $-1 $4 $-1 $1 #
face $-1 $5 $6 $3 $-1 $7 forward single #
face $-1 $8 $9 $3 $-1 $10 forward single #
loop $-1 $-1 $11 $4 #
plane-surface $-1 0 0 0 0 1 0 1 0 0 forward_v I I I I #
face $-1 $12 $13 $3 $-1 $14 reversed single #
loop $-1 $-1 $15 $5 #
cone-surface $-1 -0.28766522849694581 0 0.59511797574882352 0 1 0 0.015625 0 0 1 I I 0 1 0.015625 forward I I I I #
coedge $-1 $16 $17 $18 $19 forward $6 $-1 #
face $-1 $20 $21 $3 $-1 $22 reversed single #
loop $-1 $-1 $23 $8 #
plane-surface $-1 -0.51194975518806674 0 0.43971610840769754 0.61566147532565862 0 -0.78801075360672179 0.78801075360672179 0 0.61566147532565862 forward_v I I I I #
coedge $-1 $24 $18 $25 $26 forward $9 $-1 #
coedge $-1 $27 $11 $28 $29 reversed $6 $-1 #
coedge $-1 $11 $30 $31 $32 forward $6 $-1 #
coedge $-1 $15 $33 $11 $19 reversed $9 $-1 #
edge $-1 $34 0 $35 0.61086523819808602 $11 $36 forward 7 unknown #
face $-1 $37 $38 $3 $-1 $39 reversed single #
loop $-1 $-1 $40 $12 #
plane-surface $-1 0 -0.09375 0 0 1 0 1 0 0 forward_v I I I I #
coedge $-1 $25 $41 $42 $43 reversed $13 $-1 #
coedge $-1 $33 $15 $44 $45 forward $9 $-1 #
coedge $-1 $31 $23 $15 $26 reversed $13 $-1 #
edge $-1 $34 0 $46 0.09375 $25 $47 forward 7 unknown #
coedge $-1 $48 $16 $49 $50 forward $6 $-1 #
coedge $-1 $51 $52 $16 $29 forward $53 $-1 #
edge $-1 $54 0 $35 0.27241356181579718 $16 $55 forward 7 unknown #
coedge $-1 $17 $56 $57 $58 forward $6 $-1 #
coedge $-1 $59 $25 $17 $32 reversed $13 $-1 #
edge $-1 $60 0 $34 0.27241356181579629 $17 $61 forward 7 unknown #
coedge $-1 $18 $24 $51 $62 reversed $9 $-1 #
vertex $-1 $32 $63 #
vertex $-1 $29 $64 #
ellipse-curve $-1 -0.28766522849694581 0 0.59511797574882352 0 1 0 -0.0096197105519643666 0 0.012312668025104334 1 I I #
face $-1 $65 $66 $3 $-1 $67 reversed single #
loop $-1 $-1 $68 $20 #
plane-surface $-1 -0.22947206682286159 0 0.42605687815322879 -0.052335956242945673 0 0.99862953475457383 -0.99862953475457383 0 -0.052335956242945673 forward_v I I I I #
coedge $-1 $69 $70 $71 $72 reversed $21 $-1 #
coedge $-1 $23 $59 $73 $74 reversed $13 $-1 #
coedge $-1 $75 $44 $23 $43 forward $21 $-1 #
edge $-1 $46 0 $76 0.038659626314292303 $42 $77 forward 7 unknown #
coedge $-1 $42 $78 $24 $45 reversed $21 $-1 #
edge $-1 $46 0 $79 0.61086523819800742 $44 $80 forward 7 unknown #
vertex $-1 $43 $81 #
straight-curve $-1 -0.29728493904890924 0 0.60743064377392864 0 -1 0 I I #
coedge $-1 $82 $27 $83 $84 reversed $6 $-1 #
coedge $-1 $85 $86 $27 $50 reversed $87 $-1 #
edge $-1 $54 -3.3237301799715833e-015 $88 2.5307274153917581 $27 $89 forward 7 unknown #
coedge $-1 $90 $28 $33 $62 forward $53 $-1 #
coedge $-1 $28 $90 $85 $91 reversed $53 $-1 #
loop $-1 $-1 $51 $92 #
vertex $-1 $50 $93 #
straight-curve $-1 -0.016442749316296051 0 0.62497858648054017 -0.99862953475457383 0 -0.052335956242945042 I I #
coedge $-1 $30 $82 $94 $95 forward $6 $-1 #
coedge $-1 $96 $97 $30 $58 reversed $98 $-1 #
edge $-1 $99 0 $60 2.5307274153917612 $30 $100 forward 7 unknown #
coedge $-1 $41 $31 $97 $101 forward $13 $-1 #
vertex $-1 $32 $102 #
straight-curve $-1 -0.51194975518806707 0 0.43971610840769726 0.78801075360672179 0 0.61566147532565862 I I #
edge $-1 $35 1.3147681753683532e-031 $79 0.09375 $51 $103 forward 7 unknown #
point $-1 -0.29728493904891018 0 0.60743064377392786 #
point $-1 -0.28848297781324189 0 0.6107215622293638 #
face $-1 $104 $105 $3 $-1 $106 reversed single #
loop $-1 $-1 $107 $37 #
plane-surface $-1 -0.84999999999999998 -0.09375 0 0 -1 0 1 0 0 forward_v I I I I #
coedge $-1 $108 $71 $109 $110 forward $38 $-1 #
coedge $-1 $111 $40 $112 $113 reversed $21 $-1 #
coedge $-1 $40 $75 $114 $115 reversed $21 $-1 #
coedge $-1 $68 $116 $40 $72 forward $38 $-1 #
edge $-1 $117 -5.2953844289557174e-016 $118 0.038659626314293746 $40 $119 forward 7 unknown #
coedge $-1 $120 $107 $41 $74 forward $66 $-1 #
edge $-1 $76 0 $121 0.23375393550150353 $41 $122 forward 7 unknown #
coedge $-1 $70 $42 $123 $124 forward $21 $-1 #
vertex $-1 $124 $125 #
straight-curve $-1 -0.29728493904891018 -0.09375 0.60743064377392786 -0.7880107536067219 0 -0.61566147532565829 I I #
coedge $-1 $44 $126 $90 $127 reversed $21 $-1 #
vertex $-1 $45 $128 #
ellipse-curve $-1 -0.28766522849694504 -0.09375 0.59511797574882164 0 1 0 -0.0096197105519651438 0 0.012312668025106221 1 I I #
point $-1 -0.29728493904891018 -0.09375 0.60743064377392786 #
coedge $-1 $56 $48 $129 $130 forward $6 $-1 #
coedge $-1 $131 $132 $48 $84 forward $133 $-1 #
edge $-1 $134 0 $88 0.27241356181579751 $48 $135 forward 7 unknown #
coedge $-1 $136 $49 $52 $91 forward $87 $-1 #
coedge $-1 $49 $136 $131 $137 reversed $87 $-1 #
loop $-1 $-1 $85 $138 #
vertex $-1 $84 $139 #
ellipse-curve $-1 -0.015625 0 0.609375 0 1 0 -0.00081774931629599937 0 0.015603586480540166 1 I I #
coedge $-1 $52 $51 $78 $127 forward $53 $-1 #
edge $-1 $54 0 $140 0.09375 $52 $141 forward 7 unknown #
face $-1 $-1 $53 $3 $-1 $142 reversed single #
point $-1 -0.016442749316296051 0 0.62497858648054017 #
coedge $-1 $116 $108 $56 $95 reversed $38 $-1 #
edge $-1 $143 -2.9052291818346433e-018 $99 0.27241356181579762 $56 $144 forward 7 unknown #
coedge $-1 $145 $57 $108 $146 forward $98 $-1 #
coedge $-1 $57 $145 $59 $101 reversed $98 $-1 #
loop $-1 $-1 $97 $147 #
vertex $-1 $58 $148 #
ellipse-curve $-1 -0.50233004463610342 0 0.42740344038259248 0 1 0 0.00081774931629607917 0 -0.015603586480540221 1 I I #
edge $-1 $60 1.9721522630525295e-031 $121 0.09375 $97 $149 forward 7 unknown #
point $-1 -0.51194975518806707 0 0.43971610840769726 #
straight-curve $-1 -0.28848297781324189 0 0.61072156222936369 0 -1 1.1842378929335004e-015 I I #
face $-1 $150 $151 $3 $-1 $152 reversed single #
loop $-1 $-1 $153 $65 #
plane-surface $-1 -0.044827302678166259 -0.09375 0.59845670642295545 0.052335956242945098 0 -0.99862953475457383 -0.99862953475457372 0 -0.052335956242945091 forward_v I I I I #
coedge $-1 $73 $154 $155 $156 reversed $66 $-1 #
coedge $-1 $94 $68 $96 $146 reversed $38 $-1 #
coedge $-1 $157 $120 $68 $110 reversed $66 $-1 #
edge $-1 $118 0 $158 0.23375393550150322 $68 $159 forward 7 unknown #
coedge $-1 $126 $69 $160 $161 forward $21 $-1 #
coedge $-1 $162 $163 $69 $113 forward $164 $-1 #
edge $-1 $165 0 $117 0.61086523819797378 $69 $166 forward 7 unknown #
coedge $-1 $167 $168 $70 $115 forward $169 $-1 #
edge $-1 $118 0 $170 0.28331010428842907 $70 $171 forward 7 unknown #
coedge $-1 $71 $94 $162 $172 forward $38 $-1 #
vertex $-1 $113 $173 #
vertex $-1 $115 $174 #
straight-curve $-1 -0.22947206682286159 -0.09375 0.42605687815322879 -0.99862953475457372 0 -0.052335956242945986 I I #
coedge $-1 $109 $73 $145 $175 reversed $66 $-1 #
vertex $-1 $175 $176 #
straight-curve $-1 -0.32774914031498992 -0.09375 0.58362940120173201 -0.78801075360672179 0 -0.61566147532565851 I I #
coedge $-1 $155 $177 $75 $124 reversed $105 $-1 #
edge $-1 $76 0 $170 0.28331010428842901 $75 $178 forward 7 unknown #
point $-1 -0.32774914031498992 -0.09375 0.58362940120173201 #
coedge $-1 $78 $111 $136 $179 reversed $21 $-1 #
edge $-1 $79 0 $140 0.27241356181579718 $78 $180 forward 7 unknown #
point $-1 -0.28848297781324189 -0.09375 0.6107215622293638 #
coedge $-1 $163 $162 $82 $130 reversed $164 $-1 #
edge $-1 $134 -3.6082248300317714e-015 $143 0.61086523819797001 $82 $181 forward 7 unknown #
coedge $-1 $160 $83 $86 $137 forward $133 $-1 #
coedge $-1 $83 $160 $163 $182 reversed $133 $-1 #
loop $-1 $-1 $132 $183 #
vertex $-1 $130 $184 #
straight-curve $-1 -0.2206701055871943 0 0.4293477966086639 0.78801075360672201 0 0.61566147532565818 I I #
coedge $-1 $86 $85 $126 $179 forward $87 $-1 #
edge $-1 $88 -3.1344509844902264e-032 $185 0.09375 $86 $186 forward 7 unknown #
face $-1 $92 $87 $3 $-1 $187 forward single #
point $-1 -0.0060052894480363871 0 0.59706233197489522 #
vertex $-1 $127 $188 #
straight-curve $-1 -0.016442749316295996 0 0.62497858648054017 0 -1 0 I I #
plane-surface $-1 -0.2638840182158278 0 0.61201073907453751 0.052335956242945215 0 -0.99862953475457383 0.99862953475457372 0 0.052335956242945209 forward_v I I I I #
vertex $-1 $95 $189 #
straight-curve $-1 -0.22947206682286106 0 0.42605687815322879 -0.99862953475457383 0 -0.052335956242945562 I I #
coedge $-1 $97 $96 $120 $175 forward $98 $-1 #
edge $-1 $99 0 $158 0.09375 $108 $190 forward 7 unknown #
face $-1 $191 $98 $3 $-1 $192 forward single #
point $-1 -0.50151229531980734 0 0.41179985390205226 #
straight-curve $-1 -0.51194975518806674 0 0.43971610840769759 0 -1 -5.9211894646675012e-016 I I #
face $-1 $193 $194 $3 $-1 $195 reversed single #
loop $-1 $-1 $196 $104 #
plane-surface $-1 -0.33210178397094059 0 0.58340128881371334 -0.6156614753256584 0 0.7880107536067219 -0.7880107536067219 0 -0.6156614753256584 forward_v I I I I #
coedge $-1 $197 $155 $198 $199 reversed $105 $-1 #
coedge $-1 $107 $200 $201 $202 reversed $66 $-1 #
coedge $-1 $153 $123 $107 $156 forward $105 $-1 #
edge $-1 $76 0 $203 0.0043586169890525153 $107 $204 forward 7 unknown #
coedge $-1 $205 $109 $168 $206 forward $66 $-1 #
vertex $-1 $146 $207 #
straight-curve $-1 -0.26807871146289042 -0.09375 0.42403358964207527 -0.99862953475457383 0 -0.052335956242945618 I I #
coedge $-1 $132 $131 $111 $161 reversed $133 $-1 #
edge $-1 $165 3.4176077264061939e-017 $185 0.27241356181579834 $111 $208 forward 7 unknown #
coedge $-1 $129 $112 $116 $172 reversed $164 $-1 #
coedge $-1 $112 $129 $132 $182 forward $164 $-1 #
loop $-1 $-1 $162 $191 #
vertex $-1 $161 $209 #
ellipse-curve $-1 -0.23028981613915714 -0.09375 0.44166046463376779 0 1 0 0.0096197105519622295 0 -0.012312668025104334 1 I I #
coedge $-1 $210 $114 $177 $211 forward $169 $-1 #
coedge $-1 $114 $212 $157 $206 reversed $169 $-1 #
loop $-1 $-1 $213 $214 #
vertex $-1 $115 $215 #
straight-curve $-1 -0.26807871146289042 -0.09375 0.42403358964207527 0.78801075360672246 0 0.61566147532565763 I I #
edge $-1 $143 6.5738408768417647e-032 $117 0.09375 $162 $216 forward 7 unknown #
point $-1 -0.22947206682286106 -0.09375 0.42605687815322885 #
point $-1 -0.26807871146289042 -0.09375 0.42403358964207527 #
edge $-1 $158 0 $121 2.5307274153917962 $145 $217 forward 7 unknown #
point $-1 -0.51194975518806674 -0.09375 0.43971610840769754 #
coedge $-1 $123 $218 $167 $211 reversed $105 $-1 #
straight-curve $-1 -0.32774914031498992 -0.09375 0.58362940120173201 0.99862953475457383 0 0.052335956242945125 I I #
edge $-1 $140 0 $185 2.5307274153917616 $126 $219 forward 7 unknown #
straight-curve $-1 -0.28848297781324189 -0.09375 0.6107215622293638 0.99862953475457383 0 0.052335956242945042 I I #
ellipse-curve $-1 -0.23028981613915761 0 0.44166046463376896 0 1 0 0.0096197105519632842 0 -0.012312668025105111 1 I I #
edge $-1 $134 0 $165 0.09375 $132 $220 forward 7 unknown #
face $-1 $138 $133 $3 $-1 $221 reversed single #
point $-1 -0.2206701055871943 0 0.4293477966086639 #
vertex $-1 $179 $222 #
straight-curve $-1 -0.0060052894480365753 0 0.597062331974895 -1.6653345369377348e-016 -1 0 I I #
cone-surface $-1 -0.015625 0 0.609375 0 1 0 0.015625 0 0 1 I I 0 1 0.015625 forward I I I I #
point $-1 -0.016442749316295999 -0.09375 0.62497858648054017 #
point $-1 -0.22947206682286106 0 0.42605687815322885 #
straight-curve $-1 -0.50151229531980734 0 0.41179985390205226 0 -1 0 I I #
face $-1 $183 $164 $3 $-1 $223 forward single #
cone-surface $-1 -0.50233004463610342 0 0.42740344038259248 0 1 0 0.015625 0 0 1 I I 0 1 0.015625 forward I I I I #
face $-1 $214 $224 $3 $-1 $225 reversed single #
loop $-1 $-1 $226 $150 #
cone-surface $-1 -0.50233004463610342 0 0.42740344038259248 0 1 0 0.018124999999999815 0 0 1 I I 0 1 0.018124999999999815 forward I I I I #
coedge $-1 $227 $201 $228 $229 reversed $151 $-1 #
coedge $-1 $230 $153 $231 $232 reversed $105 $-1 #
coedge $-1 $201 $227 $153 $199 forward $151 $-1 #
edge $-1 $233 -1.3877787807814457e-017 $203 0.093749999999999986 $153 $234 forward 7 unknown #
coedge $-1 $154 $205 $235 $236 forward $66 $-1 #
coedge $-1 $196 $198 $154 $202 forward $151 $-1 #
edge $-1 $203 4.3743384115320189e-017 $237 0.23018356548464858 $154 $238 forward 7 unknown #
vertex $-1 $202 $239 #
straight-curve $-1 -0.32774914031498992 -0.09375 0.58362940120173201 -0.99862953475457406 0 -0.052335956242939782 I I #
coedge $-1 $200 $157 $240 $241 reversed $66 $-1 #
edge $-1 $118 0 $242 0.0043586169890527677 $157 $243 forward 7 unknown #
point $-1 -0.50151229531980723 -0.09375 0.41179985390205226 #
straight-curve $-1 -0.22067010558719491 -0.09375 0.4293477966086634 0.78801075360672179 0 0.61566147532565829 I I #
point $-1 -0.22067010558719491 -0.09375 0.42934779660866346 #
coedge $-1 $244 $167 $245 $246 forward $169 $-1 #
edge $-1 $170 0 $247 0.40625 $167 $248 forward 7 unknown #
coedge $-1 $168 $213 $249 $250 forward $169 $-1 #
coedge $-1 $212 $244 $251 $252 reversed $169 $-1 #
face $-1 $253 $169 $3 $-1 $254 reversed single #
point $-1 -0.044827302678166259 -0.09375 0.59845670642295545 #
straight-curve $-1 -0.22947206682286159 0 0.42605687815322874 0 -1 5.9211894646675012e-016 I I #
ellipse-curve $-1 -0.50233004463610342 -0.09375 0.42740344038259248 0 1 0 0.00081774931629619019 0 -0.015603586480540221 1 I I #
coedge $-1 $177 $230 $255 $256 reversed $105 $-1 #
ellipse-curve $-1 -0.015624999999999969 -0.09375 0.609375 0 1 0 -0.00081774931629603059 0 0.015603586480540166 1 I I #
straight-curve $-1 -0.22067010558719424 0 0.42934779660866396 0 -1 0 I I #
plane-surface $-1 -0.0060052894480365909 0 0.597062331974895 -0.61566147532565829 0 0.78801075360672201 -0.78801075360672201 0 -0.61566147532565829 forward_v I I I I #
point $-1 -0.0060052894480363871 -0.09375 0.59706233197489522 #
cone-surface $-1 -0.23028981613915761 0 0.44166046463376896 0 1 0 0.015625 0 0 1 I I 0 1 0.015625 forward I I I I #
loop $-1 $-1 $249 $193 #
plane-surface $-1 -0.5013814554292001 0 0.40930328006516598 0.052335956242945035 0 -0.99862953475457383 0.99862953475457383 0 0.052335956242945035 forward_v I I I I #
coedge $-1 $257 $235 $258 $259 reversed $194 $-1 #
coedge $-1 $198 $196 $260 $261 reversed $151 $-1 #
coedge $-1 $235 $257 $196 $229 forward $194 $-1 #
edge $-1 $262 0 $237 0.09375 $196 $263 forward 7 unknown #
coedge $-1 $218 $197 $264 $265 forward $105 $-1 #
coedge $-1 $260 $266 $197 $232 forward $267 $-1 #
edge $-1 $268 3.3261045076657081e-016 $233 0.51860895157315789 $231 $269 forward 7 unknown #
vertex $-1 $261 $270 #
straight-curve $-1 -0.33210178397094059 -1.3877787807814457e-017 0.58340128881371323 0 -1 0 I I #
coedge $-1 $226 $228 $200 $236 reversed $194 $-1 #
edge $-1 $271 0 $237 2.5307274153917967 $200 $272 forward 7 unknown #
vertex $-1 $202 $273 #
straight-curve $-1 -0.33210178397094076 -0.09375 0.58340128881371323 -0.7880107536067219 0 -0.6156614753256584 I I #
point $-1 -0.33210178397094081 -0.09375 0.58340128881371323 #
coedge $-1 $249 $258 $205 $241 forward $224 $-1 #
edge $-1 $271 -2.9052291818346079e-018 $242 0.23018356548464755 $205 $274 forward 7 unknown #
vertex $-1 $241 $275 #
straight-curve $-1 -0.26807871146289042 -0.09375 0.42403358964207527 -0.78801075360672668 0 -0.61566147532565207 I I #
coedge $-1 $213 $210 $276 $277 reversed $169 $-1 #
coedge $-1 $255 $278 $210 $246 reversed $279 $-1 #
edge $-1 $247 0 $280 0.97205482299570312 $245 $281 forward 7 unknown #
vertex $-1 $246 $282 #
straight-curve $-1 -0.044827302678166259 -0.09375 0.59845670642295545 0 -1 0 I I #
coedge $-1 $283 $240 $212 $250 reversed $224 $-1 #
edge $-1 $284 0 $242 0.09375 $212 $285 forward 7 unknown #
coedge $-1 $286 $287 $213 $252 forward $267 $-1 #
edge $-1 $284 0 $288 0.68438610171822112 $251 $289 forward 7 unknown #
face $-1 $290 $267 $3 $-1 $291 reversed single #
plane-surface $-1 -0.17084614019751887 -0.09375 0.5 -0.61566147532565763 0 0.78801075360672246 0.78801075360672246 0 0.61566147532565763 forward_v I I I I #
coedge $-1 $292 $245 $218 $256 forward $279 $-1 #
edge $-1 $247 0 $293 0.80627767285063856 $255 $294 forward 7 unknown #
coedge $-1 $228 $226 $295 $296 reversed $194 $-1 #
coedge $-1 $240 $283 $226 $259 forward $224 $-1 #
edge $-1 $297 3.2869204384208823e-032 $271 0.09375 $226 $298 forward 7 unknown #
coedge $-1 $295 $231 $227 $261 forward $267 $-1 #
edge $-1 $233 -1.9134613702516524e-017 $262 0.23018356548464899 $260 $299 forward 7 unknown #
vertex $-1 $296 $300 #
straight-curve $-1 -0.51348890887638088 0 0.44168613529171419 0 -1 0 I I #
coedge $-1 $301 $302 $230 $265 reversed $303 $-1 #
edge $-1 $268 0 $293 0.5 $230 $304 forward 7 unknown #
coedge $-1 $231 $305 $301 $306 forward $267 $-1 #
loop $-1 $-1 $266 $253 #
vertex $-1 $232 $307 #
straight-curve $-1 -0.8500000000000002 -1.3877787807814457e-017 0.55625939341698083 0.99862953475457372 0 0.052335956242945056 I I #
point $-1 -0.33210178397094037 0 0.58340128881371334 #
vertex $-1 $236 $308 #
ellipse-curve $-1 -0.50233004463610331 -0.09375 0.42740344038259248 0 1 0 0.00094858920690377158 0 -0.018100160317426506 1 I I #
point $-1 -0.51348890887638088 -0.09375 0.44168613529171419 #
straight-curve $-1 -0.50138145542919954 -0.09375 0.40930328006516603 0.99862953475457383 0 0.052335956242944924 I I #
point $-1 -0.27151334852111697 -0.09375 0.42135015707621559 #
coedge $-1 $309 $310 $244 $277 forward $311 $-1 #
edge $-1 $288 0 $280 0.5 $276 $312 forward 7 unknown #
coedge $-1 $245 $313 $309 $314 reversed $279 $-1 #
loop $-1 $-1 $255 $315 #
vertex $-1 $314 $316 #
straight-curve $-1 -0.044827302678166259 -0.5 0.59845670642295545 -0.78801075360672246 0 -0.61566147532565763 I I #
point $-1 -0.044827302678166259 -0.5 0.59845670642295545 #
coedge $-1 $258 $249 $287 $317 reversed $224 $-1 #
vertex $-1 $252 $318 #
straight-curve $-1 -0.27151334852111692 0 0.42135015707621559 0 -1 0 I I #
coedge $-1 $319 $251 $310 $320 reversed $267 $-1 #
coedge $-1 $251 $295 $283 $317 forward $267 $-1 #
vertex $-1 $320 $321 #
straight-curve $-1 -0.27151334852111697 0 0.42135015707621559 -0.78801075360672246 0 -0.61566147532565763 I I #
face $-1 $322 $303 $3 $-1 $323 reversed single #
plane-surface $-1 -3 0 0 0 -1 0 1 0 0 forward_v I I I I #
coedge $-1 $324 $255 $302 $325 forward $279 $-1 #
vertex $-1 $325 $326 #
straight-curve $-1 -0.044827302678166259 -0.5 0.59845670642295545 -0.99862953475457394 0 -0.052335956242945091 I I #
coedge $-1 $287 $260 $257 $296 forward $267 $-1 #
edge $-1 $262 0 $297 2.5307274153918025 $295 $327 forward 7 unknown #
vertex $-1 $317 $328 #
straight-curve $-1 -0.5013814554292001 0 0.40930328006516603 0 -1 -5.9211894646675012e-016 I I #
straight-curve $-1 -0.33210178397094048 0 0.58340128881371345 -0.7880107536067219 0 -0.61566147532565829 I I #
point $-1 -0.51348890887638099 0 0.44168613529171419 #
coedge $-1 $329 $264 $266 $306 reversed $303 $-1 #
coedge $-1 $264 $329 $292 $325 reversed $303 $-1 #
loop $-1 $-1 $301 $290 #
straight-curve $-1 -0.84999999999999998 0 0.55625939341698083 0 -1 0 I I #
coedge $-1 $266 $319 $330 $331 forward $267 $-1 #
edge $-1 $332 0 $268 0.05625939341698083 $266 $333 forward 7 unknown #
point $-1 -0.84999999999999987 0 0.55625939341698083 #
point $-1 -0.50138145542919954 -0.09375 0.40930328006516598 #
coedge $-1 $334 $276 $278 $314 forward $311 $-1 #
coedge $-1 $276 $334 $286 $320 forward $311 $-1 #
loop $-1 $-1 $276 $335 #
straight-curve $-1 -0.81081695629405948 0 -1.1102230246251565e-016 0 -1 0 I I #
coedge $-1 $278 $324 $336 $337 reversed $279 $-1 #
edge $-1 $280 -1.1102230246251565e-016 $338 2.1891830437059405 $309 $339 forward 7 unknown #
face $-1 $335 $279 $3 $-1 $340 reversed single #
point $-1 -0.81081695629405948 -0.5 -1.1102230246251565e-016 #
edge $-1 $297 -2.9052291818346079e-018 $284 0.23018356548464755 $287 $341 forward 7 unknown #
point $-1 -0.27151334852111697 0 0.42135015707621559 #
coedge $-1 $305 $286 $342 $343 forward $267 $-1 #
edge $-1 $344 0 $288 2.1891830437059405 $310 $345 forward 7 unknown #
point $-1 -0.81081695629405948 0 0 #
face $-1 $346 $347 $3 $-1 $348 reversed single #
plane-surface $-1 -0.84999999999999998 -0.09375 0.55625939341698083 1 0 0 0 0 -1 forward_v I I I I #
coedge $-1 $313 $292 $349 $350 forward $279 $-1 #
edge $-1 $293 0 $351 0.05625939341698083 $292 $352 forward 7 unknown #
point $-1 -0.84999999999999987 -0.5 0.55625939341698083 #
ellipse-curve $-1 -0.50233004463610342 0 0.42740344038259248 0 -1 0 -0.011158864240277566 0 0.014282694909121707 1 I I #
point $-1 -0.50138145542919954 0 0.40930328006516598 #
coedge $-1 $302 $301 $353 $354 forward $303 $-1 #
coedge $-1 $355 $353 $305 $331 reversed $347 $-1 #
edge $-1 $356 0 $332 2.1499999999999999 $305 $357 forward 7 unknown #
vertex $-1 $331 $358 #
straight-curve $-1 -0.84999999999999998 0 0.5 0 0 1 I I #
coedge $-1 $310 $309 $359 $360 forward $311 $-1 #
face $-1 $147 $311 $3 $-1 $361 forward single #
coedge $-1 $362 $359 $313 $337 forward $363 $-1 #
edge $-1 $338 0 $364 0.5 $313 $365 forward 7 unknown #
vertex $-1 $360 $366 #
straight-curve $-1 -0.81081695629405959 -0.5 0 -1 0 0 I I #
plane-surface $-1 0 -0.5 0 0 1 0 -1 0 0 forward_v I I I I #
straight-curve $-1 -0.50138145542919954 0 0.40930328006516603 0.99862953475457383 0 0.052335956242944924 I I #
coedge $-1 $359 $362 $319 $343 reversed $363 $-1 #
edge $-1 $344 0 $356 0.5 $319 $367 forward 7 unknown #
vertex $-1 $320 $368 #
straight-curve $-1 -3 0 0 1 0 0 I I #
face $-1 $315 $363 $3 $-1 $369 reversed single #
loop $-1 $-1 $330 $322 #
plane-surface $-1 0 0 0.5 0 0 -1 1 0 0 forward_v I I I I #
coedge $-1 $353 $355 $324 $350 reversed $347 $-1 #
edge $-1 $351 0 $364 2.1499999999999999 $324 $370 forward 7 unknown #
vertex $-1 $350 $371 #
straight-curve $-1 -0.84999999999999998 -0.5 0.55625939341698083 0 0 -1 I I #
coedge $-1 $330 $349 $329 $354 reversed $347 $-1 #
edge $-1 $332 0 $351 0.5 $329 $372 forward 7 unknown #
coedge $-1 $349 $330 $362 $373 reversed $347 $-1 #
vertex $-1 $331 $374 #
straight-curve $-1 -3 0 0.5 1 0 0 I I #
point $-1 -0.84999999999999998 0 0.5 #
coedge $-1 $336 $342 $334 $360 reversed $363 $-1 #
edge $-1 $338 0 $344 0.5 $334 $375 forward 7 unknown #
plane-surface $-1 0 0 0 0 0 -1 1 0 0 forward_v I I I I #
coedge $-1 $342 $336 $355 $373 forward $363 $-1 #
loop $-1 $-1 $336 $346 #
vertex $-1 $337 $376 #
straight-curve $-1 -3 -0.5 0 0 0 1 I I #
point $-1 -3 -0.5 0 #
straight-curve $-1 -3 0 0 0 0 1 I I #
point $-1 -3 0 0 #
plane-surface $-1 -3 -0.5 0 1 0 0 0 1 0 forward_v I I I I #
straight-curve $-1 -0.84999999999999998 -0.5 0.5 -1 0 0 I I #
point $-1 -0.84999999999999998 -0.5 0.5 #
straight-curve $-1 -0.84999999999999998 0 0.5 0 -1 0 I I #
edge $-1 $364 0 $356 0.5 $362 $377 forward 7 unknown #
point $-1 -3 0 0.5 #
straight-curve $-1 -3 -0.5 0 0 1 0 I I #
point $-1 -3 -0.5 0.5 #
straight-curve $-1 -3 -0.5 0.5 0 1 0 I I #
End-of-ACIS-data 