600 0 1 0           
93 GICL ACIS Healer - Source: /gicl/data5/repository/PTC/V18/mfgintro18/tools/cvjnl_16.sat - 6 0 18 ACIS 6.0.3 Solaris 24 Sat Apr 13 21:58:45 2002 
1 9.999999999999999547e-07 1.000000000000000036e-10 
body $-1 $1 $-1 $-1 #
lump $-1 $-1 $2 $0 #
shell $-1 $-1 $-1 $3 $-1 $1 #
face $-1 $4 $5 $2 $-1 $6 forward single #
face $-1 $7 $8 $2 $-1 $9 forward single #
loop $-1 $-1 $10 $3 #
plane-surface $-1 0 0 0 0 1 0 25.39999999999999858 0 0 forward_v I I I I #
face $-1 $11 $12 $2 $-1 $13 reversed single #
loop $-1 $-1 $14 $4 #
cone-surface $-1 -7.306696803822423369 0 15.1159965840201167 0 1 0 0.3968749999999999778 0 0 1 I I 0 1 0.3968749999999999778 forward I I I I #
coedge $-1 $15 $16 $17 $18 forward $5 $-1 #
face $-1 $19 $20 $2 $-1 $21 reversed single #
loop $-1 $-1 $22 $7 #
plane-surface $-1 -13.00352378177689516 0 11.16878915355551705 0.6156614753256586248 0 -0.7880107536067217922 20.01547314161073388 0 15.63780147327172898 forward_v I I I I #
coedge $-1 $23 $17 $24 $25 forward $8 $-1 #
coedge $-1 $26 $10 $27 $28 reversed $5 $-1 #
coedge $-1 $10 $29 $30 $31 forward $5 $-1 #
coedge $-1 $14 $32 $10 $18 reversed $8 $-1 #
edge $-1 $33 4.405373772460142354e-16 $34 0.6108652381980853585 $10 $35 forward 7 unknown #
face $-1 $36 $37 $2 $-1 $38 reversed single #
loop $-1 $-1 $39 $11 #
plane-surface $-1 0 -2.381249999999999645 0 0 1 0 25.39999999999999858 0 0 forward_v I I I I #
coedge $-1 $24 $40 $41 $42 reversed $12 $-1 #
coedge $-1 $32 $14 $43 $44 forward $8 $-1 #
coedge $-1 $30 $22 $14 $25 reversed $12 $-1 #
edge $-1 $33 -0 $45 0.09374999999999998612 $24 $46 forward 7 unknown #
coedge $-1 $47 $15 $48 $49 forward $5 $-1 #
coedge $-1 $50 $51 $15 $28 forward $52 $-1 #
edge $-1 $53 0 $34 0.2724135618157971783 $15 $54 forward 7 unknown #
coedge $-1 $16 $55 $56 $57 forward $5 $-1 #
coedge $-1 $58 $24 $16 $31 reversed $12 $-1 #
edge $-1 $59 0 $33 0.2724135618157961791 $16 $60 forward 7 unknown #
coedge $-1 $17 $23 $50 $61 reversed $8 $-1 #
vertex $-1 $31 $62 #
vertex $-1 $28 $63 #
ellipse-curve $-1 -7.306696803822423369 0 15.1159965840201167 0 1 0 -0.2443406480198949127 0 0.3127417678376500643 1 I I #
face $-1 $64 $65 $2 $-1 $66 reversed single #
loop $-1 $-1 $67 $19 #
plane-surface $-1 -5.828590497300684348 0 10.82184470509201013 -0.05233595624294567344 0 0.9986295347545738332 -25.36519018276617388 0 -1.329333288570820004 forward_v I I I I #
coedge $-1 $68 $69 $70 $71 reversed $20 $-1 #
coedge $-1 $22 $58 $72 $73 reversed $12 $-1 #
coedge $-1 $74 $43 $22 $42 forward $20 $-1 #
edge $-1 $45 0 $75 0.03865962631429232382 $41 $76 forward 7 unknown #
coedge $-1 $41 $77 $23 $44 reversed $20 $-1 #
edge $-1 $45 7.929672790426263179e-16 $78 0.6108652381980073098 $43 $79 forward 7 unknown #
vertex $-1 $42 $80 #
straight-curve $-1 -7.551037451842294246 0 15.42873835185778653 0 -25.39999999999999858 0 I I #
coedge $-1 $81 $26 $82 $83 reversed $5 $-1 #
coedge $-1 $84 $85 $26 $49 reversed $86 $-1 #
edge $-1 $53 -3.270990026051690351e-15 $87 2.530727415391757162 $26 $88 forward 7 unknown #
coedge $-1 $89 $27 $32 $61 forward $52 $-1 #
coedge $-1 $27 $89 $84 $90 reversed $52 $-1 #
loop $-1 $-1 $50 $91 #
vertex $-1 $49 $92 #
straight-curve $-1 -0.4176458326339196891 0 15.87445609660571932 -25.36519018276617388 0 -1.329333288570804017 I I #
coedge $-1 $29 $81 $93 $94 forward $5 $-1 #
coedge $-1 $95 $96 $29 $57 reversed $97 $-1 #
edge $-1 $98 -2.720318304494143245e-15 $59 2.53072741539176338 $29 $99 forward 7 unknown #
coedge $-1 $40 $30 $96 $100 forward $12 $-1 #
vertex $-1 $31 $101 #
straight-curve $-1 -13.00352378177690227 0 11.16878915355550994 20.01547314161073388 0 15.63780147327173076 I I #
edge $-1 $34 8.282004254288838832e-32 $78 0.09374999999999998612 $50 $102 forward 7 unknown #
point $-1 -7.551037451842318227 0 15.42873835185776699 #
point $-1 -7.327467636456344025 0 15.51232768062583922 #
face $-1 $103 $104 $2 $-1 $105 reversed single #
loop $-1 $-1 $106 $36 #
plane-surface $-1 -21.58999999999999986 -2.381249999999999645 0 0 -1 0 25.39999999999999858 0 0 forward_v I I I I #
coedge $-1 $107 $70 $108 $109 forward $37 $-1 #
coedge $-1 $110 $39 $111 $112 reversed $20 $-1 #
coedge $-1 $39 $74 $113 $114 reversed $20 $-1 #
coedge $-1 $67 $115 $39 $71 forward $37 $-1 #
edge $-1 $116 -5.274561167118717541e-16 $117 0.03865962631429371854 $39 $118 forward 7 unknown #
coedge $-1 $119 $106 $40 $73 forward $65 $-1 #
edge $-1 $75 0 $120 0.2337539355015035014 $40 $121 forward 7 unknown #
coedge $-1 $69 $41 $122 $123 forward $20 $-1 #
vertex $-1 $123 $124 #
straight-curve $-1 -7.551037451842318227 -2.381249999999999645 15.42873835185776699 -20.01547314161073388 0 -15.6378014732717201 I I #
coedge $-1 $43 $125 $89 $126 reversed $20 $-1 #
vertex $-1 $44 $127 #
ellipse-curve $-1 -7.30669680382240383 -2.381249999999999645 15.11599658402006874 0 1 0 -0.2443406480199146469 0 0.3127417678376980259 1 I I #
point $-1 -7.551037451842318227 -2.381249999999999645 15.42873835185776699 #
coedge $-1 $55 $47 $128 $129 forward $5 $-1 #
coedge $-1 $130 $131 $47 $83 forward $132 $-1 #
edge $-1 $133 0 $87 0.2724135618157975114 $47 $134 forward 7 unknown #
coedge $-1 $135 $48 $51 $90 forward $86 $-1 #
coedge $-1 $48 $135 $130 $136 reversed $86 $-1 #
loop $-1 $-1 $84 $137 #
vertex $-1 $83 $138 #
ellipse-curve $-1 -0.3968749999999999778 0 15.47812499999999858 0 1 0 -0.02077083263391838255 0 0.3963310966057201901 1 I I #
coedge $-1 $51 $50 $77 $126 forward $52 $-1 #
edge $-1 $53 0 $139 0.09374999999999998612 $51 $140 forward 7 unknown #
face $-1 $-1 $52 $2 $-1 $141 reversed single #
point $-1 -0.4176458326339196891 0 15.87445609660571932 #
coedge $-1 $115 $107 $55 $94 reversed $37 $-1 #
edge $-1 $142 -3.660131252705061857e-18 $98 0.2724135618157975669 $55 $143 forward 7 unknown #
coedge $-1 $144 $56 $107 $145 forward $97 $-1 #
coedge $-1 $56 $144 $58 $100 reversed $97 $-1 #
loop $-1 $-1 $96 $146 #
vertex $-1 $57 $147 #
ellipse-curve $-1 -12.75918313375702695 0 10.856047385717849 0 1 0 0.02077083263392040871 0 -0.3963310966057215778 1 I I #
edge $-1 $59 2.070501063572208996e-31 $120 0.09374999999999998612 $96 $148 forward 7 unknown #
point $-1 -13.00352378177690227 0 11.16878915355550994 #
straight-curve $-1 -7.327467636456344025 0 15.51232768062583744 0 -25.39999999999999858 3.007964248051090829e-14 I I #
face $-1 $149 $150 $2 $-1 $151 reversed single #
loop $-1 $-1 $152 $64 #
plane-surface $-1 -1.138613488025422837 -2.381249999999999645 15.20080034314306694 0.05233595624294509752 0 -0.9986295347545738332 -25.36519018276617032 0 -1.329333288570805127 forward_v I I I I #
coedge $-1 $72 $153 $154 $155 reversed $65 $-1 #
coedge $-1 $93 $67 $95 $145 reversed $37 $-1 #
coedge $-1 $156 $119 $67 $109 reversed $65 $-1 #
edge $-1 $117 0 $157 0.2337539355015032794 $67 $158 forward 7 unknown #
coedge $-1 $125 $68 $159 $160 forward $20 $-1 #
coedge $-1 $161 $162 $68 $112 forward $163 $-1 #
edge $-1 $164 2.643224263476530231e-16 $116 0.6108652381979753354 $68 $165 forward 7 unknown #
coedge $-1 $166 $167 $69 $114 forward $168 $-1 #
edge $-1 $117 0 $169 0.2833101042884290655 $69 $170 forward 7 unknown #
coedge $-1 $70 $93 $161 $171 forward $37 $-1 #
vertex $-1 $112 $172 #
vertex $-1 $114 $173 #
straight-curve $-1 -5.828590497300684348 -2.381249999999999645 10.82184470509201013 -25.36519018276617032 0 -1.329333288570827998 I I #
coedge $-1 $108 $72 $144 $174 reversed $65 $-1 #
vertex $-1 $174 $175 #
straight-curve $-1 -8.324828164000743769 -2.381249999999999645 14.82418679052399213 -20.01547314161073388 0 -15.63780147327172543 I I #
coedge $-1 $154 $176 $74 $123 reversed $104 $-1 #
edge $-1 $75 0 $169 0.2833101042884290655 $74 $177 forward 7 unknown #
point $-1 -8.324828164000743769 -2.381249999999999645 14.82418679052399213 #
coedge $-1 $77 $110 $135 $178 reversed $20 $-1 #
edge $-1 $78 0 $139 0.2724135618157972338 $77 $179 forward 7 unknown #
point $-1 -7.327467636456344025 -2.381249999999999645 15.51232768062583922 #
coedge $-1 $162 $161 $81 $129 reversed $163 $-1 #
edge $-1 $133 -4.317266297010980705e-15 $142 0.6108652381979705615 $81 $180 forward 7 unknown #
coedge $-1 $159 $82 $85 $136 forward $132 $-1 #
coedge $-1 $82 $159 $162 $181 reversed $132 $-1 #
loop $-1 $-1 $131 $182 #
vertex $-1 $129 $183 #
straight-curve $-1 -5.605020681914735015 0 10.90543403386006283 20.01547314161073743 0 15.63780147327171655 I I #
coedge $-1 $85 $84 $125 $178 forward $86 $-1 #
edge $-1 $87 -3.148213042951103254e-32 $184 0.09374999999999998612 $85 $185 forward 7 unknown #
face $-1 $91 $86 $2 $-1 $186 forward single #
point $-1 -0.1525343519801242165 0 15.16538323216233763 #
vertex $-1 $126 $187 #
straight-curve $-1 -0.4176458326339182459 0 15.87445609660571932 0 -25.39999999999999858 0 I I #
plane-surface $-1 -6.702654062682025682 0 15.5450727724932527 0.05233595624294521548 0 -0.9986295347545738332 25.36519018276617032 0 1.329333288570808236 forward_v I I I I #
vertex $-1 $94 $188 #
straight-curve $-1 -5.828590497300671025 0 10.82184470509201013 -25.36519018276617388 0 -1.329333288570817118 I I #
coedge $-1 $96 $95 $119 $174 forward $97 $-1 #
edge $-1 $98 0 $157 0.09374999999999998612 $107 $189 forward 7 unknown #
face $-1 $190 $97 $2 $-1 $191 forward single #
point $-1 -12.73841230112310541 0 10.45971628911212647 #
straight-curve $-1 -13.00352378177689516 0 11.16878915355551882 0 -25.39999999999999858 -1.503982124025545099e-14 I I #
face $-1 $192 $193 $2 $-1 $194 reversed single #
loop $-1 $-1 $195 $103 #
plane-surface $-1 -8.435385312861891194 0 14.81839273586831851 -0.6156614753256584027 0 0.7880107536067219032 -20.01547314161073388 0 -15.63780147327172187 forward_v I I I I #
coedge $-1 $196 $154 $197 $198 reversed $104 $-1 #
coedge $-1 $106 $199 $200 $201 reversed $65 $-1 #
coedge $-1 $152 $122 $106 $155 forward $104 $-1 #
edge $-1 $75 0 $202 0.004358616989052515288 $106 $203 forward 7 unknown #
coedge $-1 $204 $108 $167 $205 forward $65 $-1 #
vertex $-1 $145 $206 #
straight-curve $-1 -6.809199271157416078 -2.381249999999999645 10.77045317690871151 -25.36519018276617388 0 -1.329333288570818672 I I #
coedge $-1 $131 $130 $110 $160 reversed $132 $-1 #
edge $-1 $164 0 $184 0.2724135618157982885 $110 $207 forward 7 unknown #
coedge $-1 $128 $111 $115 $171 reversed $163 $-1 #
coedge $-1 $111 $128 $131 $181 forward $163 $-1 #
loop $-1 $-1 $161 $190 #
vertex $-1 $160 $208 #
ellipse-curve $-1 -5.849361329934590792 -2.381249999999999645 11.21817580169770068 0 1 0 0.2443406480198406228 0 -0.3127417678376500643 1 I I #
coedge $-1 $209 $113 $176 $210 forward $168 $-1 #
coedge $-1 $113 $211 $156 $205 reversed $168 $-1 #
loop $-1 $-1 $212 $213 #
vertex $-1 $114 $214 #
straight-curve $-1 -6.809199271157416078 -2.381249999999999645 10.77045317690871151 20.01547314161074809 0 15.63780147327170233 I I #
edge $-1 $142 4.141002127144418321e-32 $116 0.09374999999999998612 $161 $215 forward 7 unknown #
point $-1 -5.828590497300671025 -2.381249999999999645 10.82184470509201191 #
point $-1 -6.809199271157416078 -2.381249999999999645 10.77045317690871151 #
edge $-1 $157 -9.912090988035332375e-17 $120 2.530727415391795354 $144 $216 forward 7 unknown #
point $-1 -13.00352378177689516 -2.381249999999999645 11.16878915355551705 #
coedge $-1 $122 $217 $166 $210 reversed $104 $-1 #
straight-curve $-1 -8.324828164000743769 -2.381249999999999645 14.82418679052399213 25.36519018276617388 0 1.329333288570806015 I I #
edge $-1 $139 1.211477787426551991e-16 $184 2.530727415391760715 $125 $218 forward 7 unknown #
straight-curve $-1 -7.327467636456344025 -2.381249999999999645 15.51232768062583922 25.36519018276617388 0 1.329333288570804017 I I #
ellipse-curve $-1 -5.849361329934603226 0 11.21817580169773088 0 1 0 0.2443406480198674069 0 -0.3127417678376698262 1 I I #
edge $-1 $133 -0 $164 0.09374999999999998612 $131 $219 forward 7 unknown #
face $-1 $137 $132 $2 $-1 $220 reversed single #
point $-1 -5.605020681914735015 0 10.90543403386006283 #
vertex $-1 $178 $221 #
straight-curve $-1 -0.1525343519801290182 0 15.16538323216233231 -4.229949723821845788e-15 -25.39999999999999858 0 I I #
cone-surface $-1 -0.3968749999999999778 0 15.47812499999999858 0 1 0 0.3968749999999999778 0 0 1 I I 0 1 0.3968749999999999778 forward I I I I #
point $-1 -0.4176458326339183569 -2.381249999999999645 15.87445609660571932 #
point $-1 -5.828590497300671025 0 10.82184470509201191 #
straight-curve $-1 -12.73841230112310541 0 10.45971628911212647 0 -25.39999999999999858 0 I I #
face $-1 $182 $163 $2 $-1 $222 forward single #
cone-surface $-1 -12.75918313375702695 0 10.856047385717849 0 1 0 0.3968749999999999778 0 0 1 I I 0 1 0.3968749999999999778 forward I I I I #
face $-1 $213 $223 $2 $-1 $224 reversed single #
loop $-1 $-1 $225 $149 #
cone-surface $-1 -12.75918313375702695 0 10.856047385717849 0 1 0 0.4603749999999952602 0 0 1 I I 0 1 0.4603749999999952602 forward I I I I #
coedge $-1 $226 $200 $227 $228 reversed $150 $-1 #
coedge $-1 $229 $152 $230 $231 reversed $104 $-1 #
coedge $-1 $200 $226 $152 $198 forward $150 $-1 #
edge $-1 $232 -1.387778780781445676e-17 $202 0.09374999999999997224 $152 $233 forward 7 unknown #
coedge $-1 $153 $204 $234 $235 forward $65 $-1 #
coedge $-1 $195 $197 $153 $201 forward $150 $-1 #
edge $-1 $202 5.510977526339551705e-17 $236 0.2301835654846485779 $153 $237 forward 7 unknown #
vertex $-1 $201 $238 #
straight-curve $-1 -8.324828164000743769 -2.381249999999999645 14.82418679052399213 -25.36519018276618098 0 -1.329333288570670346 I I #
coedge $-1 $199 $156 $239 $240 reversed $65 $-1 #
edge $-1 $117 0 $241 0.004358616989052799783 $156 $242 forward 7 unknown #
point $-1 -12.73841230112310363 -2.381249999999999645 10.45971628911212647 #
straight-curve $-1 -5.605020681914750114 -2.381249999999999645 10.90543403386005039 20.01547314161073388 0 15.6378014732717201 I I #
point $-1 -5.605020681914750114 -2.381249999999999645 10.90543403386005039 #
coedge $-1 $243 $166 $244 $245 forward $168 $-1 #
edge $-1 $169 0 $246 0.40625 $166 $247 forward 7 unknown #
coedge $-1 $167 $212 $248 $249 forward $168 $-1 #
coedge $-1 $211 $243 $250 $251 reversed $168 $-1 #
face $-1 $252 $168 $2 $-1 $253 reversed single #
point $-1 -1.138613488025422837 -2.381249999999999645 15.20080034314306694 #
straight-curve $-1 -5.828590497300684348 0 10.82184470509201013 0 -25.39999999999999858 1.503982124025545099e-14 I I #
ellipse-curve $-1 -12.75918313375702695 -2.381249999999999645 10.856047385717849 0 1 0 0.02077083263392322937 0 -0.3963310966057215778 1 I I #
coedge $-1 $176 $229 $254 $255 reversed $104 $-1 #
ellipse-curve $-1 -0.3968749999999992006 -2.381249999999999645 15.47812499999999858 0 1 0 -0.02077083263391917706 0 0.3963310966057201901 1 I I #
straight-curve $-1 -5.605020681914733238 0 10.9054340338600646 0 -25.39999999999999858 0 I I #
plane-surface $-1 -0.1525343519801294068 0 15.16538323216233231 -0.6156614753256582917 0 0.7880107536067220142 -20.01547314161073743 0 -15.6378014732717201 forward_v I I I I #
point $-1 -0.1525343519801242165 -2.381249999999999645 15.16538323216233763 #
cone-surface $-1 -5.849361329934603226 0 11.21817580169773088 0 1 0 0.3968749999999999778 0 0 1 I I 0 1 0.3968749999999999778 forward I I I I #
loop $-1 $-1 $248 $192 #
plane-surface $-1 -12.73508896790168166 0 10.39630331365521521 0.05233595624294503507 0 -0.9986295347545738332 25.36519018276617388 0 1.329333288570803795 forward_v I I I I #
coedge $-1 $256 $234 $257 $258 reversed $193 $-1 #
coedge $-1 $197 $195 $259 $260 reversed $150 $-1 #
coedge $-1 $234 $256 $195 $228 forward $193 $-1 #
edge $-1 $261 0 $236 0.09374999999999998612 $195 $262 forward 7 unknown #
coedge $-1 $217 $196 $263 $264 forward $104 $-1 #
coedge $-1 $259 $265 $196 $231 forward $266 $-1 #
edge $-1 $267 2.793578589115555663e-16 $232 0.5186089515731578947 $230 $268 forward 7 unknown #
vertex $-1 $260 $269 #
straight-curve $-1 -8.435385312861891194 -3.524958103184871819e-16 14.81839273586831496 0 -25.39999999999999858 0 I I #
coedge $-1 $225 $227 $199 $235 reversed $193 $-1 #
edge $-1 $270 -2.700976042122237077e-16 $236 2.530727415391794466 $199 $271 forward 7 unknown #
vertex $-1 $201 $272 #
straight-curve $-1 -8.435385312861894747 -2.381249999999999645 14.81839273586831496 -20.01547314161073388 0 -15.63780147327172187 I I #
point $-1 -8.435385312861896523 -2.381249999999999645 14.81839273586831496 #
coedge $-1 $248 $257 $204 $240 forward $223 $-1 #
edge $-1 $270 -3.660131252705017946e-18 $241 0.230183565484647551 $204 $273 forward 7 unknown #
vertex $-1 $240 $274 #
straight-curve $-1 -6.809199271157416078 -2.381249999999999645 10.77045317690871151 -20.01547314161085822 0 -15.637801473271562 I I #
coedge $-1 $212 $209 $275 $276 reversed $168 $-1 #
coedge $-1 $254 $277 $209 $245 reversed $278 $-1 #
edge $-1 $246 0 $279 0.9720548229957030051 $244 $280 forward 7 unknown #
vertex $-1 $245 $281 #
straight-curve $-1 -1.138613488025422837 -2.381249999999999645 15.20080034314306694 0 -25.39999999999999858 0 I I #
coedge $-1 $282 $239 $211 $249 reversed $223 $-1 #
edge $-1 $283 0 $241 0.09374999999999998612 $211 $284 forward 7 unknown #
coedge $-1 $285 $286 $212 $251 forward $266 $-1 #
edge $-1 $283 0 $287 0.6843861017182211182 $250 $288 forward 7 unknown #
face $-1 $289 $266 $2 $-1 $290 reversed single #
plane-surface $-1 -4.339491961016978649 -2.381249999999999645 12.69999999999999929 -0.6156614753256576256 0 0.7880107536067224583 20.01547314161074809 0 15.63780147327170233 forward_v I I I I #
coedge $-1 $291 $244 $217 $255 forward $278 $-1 #
edge $-1 $246 0 $292 0.8062776728506384494 $254 $293 forward 7 unknown #
coedge $-1 $227 $225 $294 $295 reversed $193 $-1 #
coedge $-1 $239 $282 $225 $258 forward $223 $-1 #
edge $-1 $296 4.141002127144418321e-32 $270 0.09374999999999998612 $225 $297 forward 7 unknown #
coedge $-1 $294 $230 $226 $260 forward $266 $-1 #
edge $-1 $232 -6.716307523348466371e-17 $261 0.2301835654846489665 $259 $298 forward 7 unknown #
vertex $-1 $295 $299 #
straight-curve $-1 -13.04261828546007429 0 11.21882783640953996 0 -25.39999999999999858 0 I I #
coedge $-1 $300 $301 $229 $264 reversed $302 $-1 #
edge $-1 $267 0 $292 0.5 $229 $303 forward 7 unknown #
coedge $-1 $230 $304 $300 $305 forward $266 $-1 #
loop $-1 $-1 $265 $252 #
vertex $-1 $231 $306 #
straight-curve $-1 -21.59000000000000341 -3.524958103184871819e-16 14.12898859279131258 25.36519018276617032 0 1.329333288570804239 I I #
point $-1 -8.435385312861884088 0 14.81839273586831851 #
vertex $-1 $235 $307 #
ellipse-curve $-1 -12.7591831337570234 -2.381249999999999645 10.856047385717849 0 1 0 0.02409416585535579733 0 -0.4597440720626332356 1 I I #
point $-1 -13.04261828546007429 -2.381249999999999645 11.21882783640953996 #
straight-curve $-1 -12.73508896790166744 -2.381249999999999645 10.39630331365521698 25.36519018276617388 0 1.329333288570800908 I I #
point $-1 -6.896439052436370787 -2.381249999999999645 10.70229398973587465 #
coedge $-1 $308 $309 $243 $276 forward $310 $-1 #
edge $-1 $287 0 $279 0.5 $275 $311 forward 7 unknown #
coedge $-1 $244 $312 $308 $313 reversed $278 $-1 #
loop $-1 $-1 $254 $314 #
vertex $-1 $313 $315 #
straight-curve $-1 -1.138613488025422837 -12.69999999999999929 15.20080034314306694 -20.01547314161074809 0 -15.63780147327170233 I I #
point $-1 -1.138613488025422837 -12.69999999999999929 15.20080034314306694 #
coedge $-1 $257 $248 $286 $316 reversed $223 $-1 #
vertex $-1 $251 $317 #
straight-curve $-1 -6.89643905243636901 0 10.70229398973587465 0 -25.39999999999999858 0 I I #
coedge $-1 $318 $250 $309 $319 reversed $266 $-1 #
coedge $-1 $250 $294 $282 $316 forward $266 $-1 #
vertex $-1 $319 $320 #
straight-curve $-1 -6.896439052436370787 0 10.70229398973587465 -20.01547314161074809 0 -15.63780147327170233 I I #
face $-1 $321 $302 $2 $-1 $322 reversed single #
plane-surface $-1 -76.19999999999998863 0 0 0 -1 0 25.39999999999999858 0 0 forward_v I I I I #
coedge $-1 $323 $254 $301 $324 forward $278 $-1 #
vertex $-1 $324 $325 #
straight-curve $-1 -1.138613488025422837 -12.69999999999999929 15.20080034314306694 -25.36519018276617743 0 -1.329333288570805127 I I #
coedge $-1 $286 $259 $256 $295 forward $266 $-1 #
edge $-1 $261 -1.309564141635024438e-15 $296 2.530727415391804236 $294 $326 forward 7 unknown #
vertex $-1 $316 $327 #
straight-curve $-1 -12.73508896790168166 0 10.39630331365521698 0 -25.39999999999999858 -1.503982124025545099e-14 I I #
straight-curve $-1 -8.435385312861887641 0 14.81839273586832029 -20.01547314161073388 0 -15.6378014732717201 I I #
point $-1 -13.04261828546007607 0 11.21882783640953996 #
coedge $-1 $328 $263 $265 $305 reversed $302 $-1 #
coedge $-1 $263 $328 $291 $324 reversed $302 $-1 #
loop $-1 $-1 $300 $289 #
straight-curve $-1 -21.58999999999999986 0 14.12898859279131258 0 -25.39999999999999858 0 I I #
coedge $-1 $265 $318 $329 $330 forward $266 $-1 #
edge $-1 $331 0 $267 0.05625939341698084351 $265 $332 forward 7 unknown #
point $-1 -21.58999999999999631 0 14.12898859279131258 #
point $-1 -12.73508896790166744 -2.381249999999999645 10.39630331365521521 #
coedge $-1 $333 $275 $277 $313 forward $310 $-1 #
coedge $-1 $275 $333 $285 $319 forward $310 $-1 #
loop $-1 $-1 $275 $334 #
straight-curve $-1 -20.59475068986910884 0 -2.819966482547897455e-15 0 -25.39999999999999858 0 I I #
coedge $-1 $277 $323 $335 $336 reversed $278 $-1 #
edge $-1 $279 -1.398706172756102709e-16 $337 2.189183043705940079 $308 $338 forward 7 unknown #
face $-1 $334 $278 $2 $-1 $339 reversed single #
point $-1 -20.59475068986910884 -12.69999999999999929 -2.819966482547897455e-15 #
edge $-1 $296 -3.660131252705017946e-18 $283 0.230183565484647551 $286 $340 forward 7 unknown #
point $-1 -6.896439052436370787 0 10.70229398973587465 #
coedge $-1 $304 $285 $341 $342 forward $266 $-1 #
edge $-1 $343 0 $287 2.189183043705940079 $309 $344 forward 7 unknown #
point $-1 -20.59475068986910884 0 0 #
face $-1 $345 $346 $2 $-1 $347 reversed single #
plane-surface $-1 -21.58999999999999986 -2.381249999999999645 14.12898859279131258 1 0 0 0 0 -25.39999999999999858 forward_v I I I I #
coedge $-1 $312 $291 $348 $349 forward $278 $-1 #
edge $-1 $292 0 $350 0.05625939341698084351 $291 $351 forward 7 unknown #
point $-1 -21.58999999999999631 -12.69999999999999929 14.12898859279131258 #
ellipse-curve $-1 -12.75918313375702695 0 10.856047385717849 0 -1 0 -0.2834351517030501699 0 0.3627804506916913474 1 I I #
point $-1 -12.73508896790166744 0 10.39630331365521521 #
coedge $-1 $301 $300 $352 $353 forward $302 $-1 #
coedge $-1 $354 $352 $304 $330 reversed $346 $-1 #
edge $-1 $355 0 $331 2.149999999999999467 $304 $356 forward 7 unknown #
vertex $-1 $330 $357 #
straight-curve $-1 -21.58999999999999986 0 12.69999999999999929 0 0 25.39999999999999858 I I #
coedge $-1 $309 $308 $358 $359 forward $310 $-1 #
face $-1 $146 $310 $2 $-1 $360 forward single #
coedge $-1 $361 $358 $312 $336 forward $362 $-1 #
edge $-1 $337 0 $363 0.5 $312 $364 forward 7 unknown #
vertex $-1 $359 $365 #
straight-curve $-1 -20.59475068986911239 -12.69999999999999929 0 -25.39999999999999858 0 0 I I #
plane-surface $-1 0 -12.69999999999999929 0 0 1 0 -25.39999999999999858 0 0 forward_v I I I I #
straight-curve $-1 -12.73508896790166744 0 10.39630331365521698 25.36519018276617388 0 1.329333288570800908 I I #
coedge $-1 $358 $361 $318 $342 reversed $362 $-1 #
edge $-1 $343 0 $355 0.5 $318 $366 forward 7 unknown #
vertex $-1 $319 $367 #
straight-curve $-1 -76.19999999999998863 0 0 25.39999999999999858 0 0 I I #
face $-1 $314 $362 $2 $-1 $368 reversed single #
loop $-1 $-1 $329 $321 #
plane-surface $-1 0 0 12.69999999999999929 0 0 -1 25.39999999999999858 0 0 forward_v I I I I #
coedge $-1 $352 $354 $323 $349 reversed $346 $-1 #
edge $-1 $350 0 $363 2.149999999999999467 $323 $369 forward 7 unknown #
vertex $-1 $349 $370 #
straight-curve $-1 -21.58999999999999986 -12.69999999999999929 14.12898859279131258 0 0 -25.39999999999999858 I I #
coedge $-1 $329 $348 $328 $353 reversed $346 $-1 #
edge $-1 $331 0 $350 0.5 $328 $371 forward 7 unknown #
coedge $-1 $348 $329 $361 $372 reversed $346 $-1 #
vertex $-1 $330 $373 #
straight-curve $-1 -76.19999999999998863 0 12.69999999999999929 25.39999999999999858 0 0 I I #
point $-1 -21.58999999999999986 0 12.69999999999999929 #
coedge $-1 $335 $341 $333 $359 reversed $362 $-1 #
edge $-1 $337 0 $343 0.5 $333 $374 forward 7 unknown #
plane-surface $-1 0 0 0 0 0 -1 25.39999999999999858 0 0 forward_v I I I I #
coedge $-1 $341 $335 $354 $372 forward $362 $-1 #
loop $-1 $-1 $335 $345 #
vertex $-1 $336 $375 #
straight-curve $-1 -76.19999999999998863 -12.69999999999999929 0 0 0 25.39999999999999858 I I #
point $-1 -76.19999999999998863 -12.69999999999999929 0 #
straight-curve $-1 -76.19999999999998863 0 0 0 0 25.39999999999999858 I I #
point $-1 -76.19999999999998863 0 0 #
plane-surface $-1 -76.19999999999998863 -12.69999999999999929 0 1 0 0 0 25.39999999999999858 0 forward_v I I I I #
straight-curve $-1 -21.58999999999999986 -12.69999999999999929 12.69999999999999929 -25.39999999999999858 0 0 I I #
point $-1 -21.58999999999999986 -12.69999999999999929 12.69999999999999929 #
straight-curve $-1 -21.58999999999999986 0 12.69999999999999929 0 -25.39999999999999858 0 I I #
edge $-1 $363 0 $355 0.5 $361 $376 forward 7 unknown #
point $-1 -76.19999999999998863 0 12.69999999999999929 #
straight-curve $-1 -76.19999999999998863 -12.69999999999999929 0 0 25.39999999999999858 0 I I #
point $-1 -76.19999999999998863 -12.69999999999999929 12.69999999999999929 #
straight-curve $-1 -76.19999999999998863 -12.69999999999999929 12.69999999999999929 0 25.39999999999999858 0 I I #
End-of-ACIS-data 