600 0 1 0           
81 GICL ACIS Healer - Source: /gicl/data5/repository/PTC/V18/compst18/core.sat - 6 0 18 ACIS 6.0.3 Solaris 24 Sat Apr 13 22:15:26 2002 
1 9.999999999999999547e-07 1.000000000000000036e-10 
body $-1 $1 $-1 $-1 #
lump $-1 $-1 $2 $0 #
shell $-1 $-1 $-1 $3 $-1 $1 #
face $-1 $4 $5 $2 $-1 $6 reversed single #
face $-1 $7 $8 $2 $-1 $9 forward single #
loop $-1 $-1 $10 $3 #
plane-surface $-1 0 0 0 0 0 1 1 0 0 forward_v I I I I #
face $-1 $11 $12 $2 $-1 $13 forward single #
loop $-1 $-1 $14 $4 #
spline-surface $-1 forward { exactsur full nurbs 3 1 both open open none none 10 4 
	-0.01000000000000000021 3 0 3 0.1428571428571428492 2 0.2857142857142856984 2 0.4285714285714285476 2 
	0.5714285714285713969 2 0.7142857142857141906 2 0.8571428571428570953 2 1 3 1.010000000000000009 3 
	-0.01000000000000000021 1 0 1 1 1 1.010000000000000009 1 
	-157.1935489687223821 353.4913362672572816 -0.2000000000000000111 1 
	-156.7841312913598983 352.1684781399690678 -0.2000000000000000111 1 
	-156.374713613997443 350.845620012680854 -0.2000000000000000111 1 
	-155.9652959366349592 349.5227618853926401 -0.2000000000000000111 1 
	-150.116471974313896 330.6247886384180674 -0.2000000000000000111 1 
	-144.3533377350646276 311.9861862948341127 -0.2000000000000000111 1 
	-132.8906650967062433 274.9646654055751469 -0.2000000000000000111 1 
	-127.1911266975971131 256.5817468599001927 -0.2000000000000000111 1 
	-116.1793058684122286 220.8617677919008599 -0.2000000000000000111 1 
	-110.8670234383364459 203.5247072695765667 -0.2000000000000000111 1 
	-100.3360266355143722 169.1779152883896984 -0.2000000000000000111 1 
	-95.11731226276805273 152.1681838295271518 -0.2000000000000000111 1 
	-85.04300614608548869 119.1104975465276965 -0.2000000000000000111 1 
	-80.1874144021492441 103.0625427223907451 -0.2000000000000000111 1 
	-70.72161176426686779 71.8486697646179806 -0.2000000000000000111 1 
	-66.11140087032073609 56.68275163098213909 -0.2000000000000000111 1 
	-57.31613368772836736 27.47521404242893439 -0.2000000000000000111 1 
	-53.13107739908210903 13.43359458751159252 -0.2000000000000000111 1 
	-49.12855128230910395 -0.08653399644438226901 -0.2000000000000000111 1 
	-48.84837445413499069 -1.032942997321300904 -0.2000000000000000111 1 
	-48.56819762596088452 -1.97935199819821972 -0.2000000000000000111 1 
	-48.28802079778677125 -2.925760999075138535 -0.2000000000000000111 1 
	-157.0024923887478963 353.5504749458193601 0 1 
	-156.5930739897035266 352.2276144867248036 0 1 
	-156.1836555906591855 350.9047540276301902 0 1 
	-155.7742371916148159 349.5818935685356337 0 1 
	-149.9254029195525391 330.6838870100415875 0 1 
	-144.1622918388909227 312.045359509666298 0 1 
	-132.6996072220690905 275.023799875751763 0 1 
	-127.0000336859088605 256.6407677422126312 0 1 
	-115.9881506729896472 220.9205870901744504 0 1 
	-110.6758411962306496 203.5834385716754582 0 1 
	-100.1447808922506084 169.2364394168949957 0 1 
	-94.92603006502956475 152.2265887806135538 0 1 
	-84.85166160417578851 119.1686978187642012 0 1 
	-79.99604397054305593 103.1206574931962621 0 1 
	-70.53019644951690736 71.90663717326550852 0 1 
	-65.91996656212347716 56.7406571789026799 0 1 
	-57.12455681099893212 27.53264466498864138 0 1 
	-52.93937694726781018 13.4906121454374528 0 1 
	-48.93677838246401279 -0.02976116064235156955 0 1 
	-48.65659648292774619 -0.9761872920679383059 0 1 
	-48.3764145833914796 -1.922613423493525042 0 1 
	-48.096232683855213 -2.86903955491911189 0 1 
	-137.8968343912974319 359.4643428020274314 20 1 
	-137.4873438240647374 358.1412491622966172 20 1 
	-137.0778532568320145 356.8181555225658599 20 1 
	-136.66836268959932 355.4950618828350457 20 1 
	-130.8184974434178685 336.5937241723951843 20 1 
	-125.057702221521609 317.96268099288244 20 1 
	-113.5938197583544564 280.937246893413942 20 1 
	-107.8907325170835776 262.5428559734581313 20 1 
	-96.87263113073161946 226.8025169175341773 20 1 
	-91.55761698565054019 209.4565687815660056 20 1 
	-81.02020656587480119 175.0888522674260628 20 1 
	-75.79781029118011304 158.0670838892542918 20 1 
	-65.71720741320514492 124.9887250424153251 20 1 
	-60.85900080992483652 108.9321345737481153 20 1 
	-51.38866497452085724 77.70337803801893983 20 1 
	-46.77653574239717216 62.53121197095697426 20 1 
	-37.96686913805571351 33.27570692095919469 20 1 
	-33.76933176583793283 19.19236793802341268 20 1 
	-29.75948839795482215 5.647522419560718099 20 1 
	-29.47879936220300578 4.699383233268329185 20 1 
	-29.19811032645118587 3.751244046975940272 20 1 
	-28.91742129069936951 2.803104860683550914 20 1 
	-137.705777811322946 359.5234814805895098 20.19999999999999929 1 
	-137.2962865224083373 358.200385509052353 20.19999999999999929 1 
	-136.886795233493757 356.8772895375151961 20.19999999999999929 1 
	-136.4773039445791767 355.5541935659780393 20.19999999999999929 1 
	-130.6274283886565115 336.6528225440187043 20.19999999999999929 1 
	-124.8666563253479183 318.0218542077146253 20.19999999999999929 1 
	-113.4027618837173037 280.9963813635905581 20.19999999999999929 1 
	-107.699639505395325 262.6018768557705698 20.19999999999999929 1 
	-96.68147593530903805 226.8613362158077678 20.19999999999999929 1 
	-91.36643474354474392 209.5153000836648971 20.19999999999999929 1 
	-80.82896082261103743 175.1473763959313601 20.19999999999999929 1 
	-75.60652809344162506 158.1254888403406937 20.19999999999999929 1 
	-65.52586287129544473 125.0469253146518298 20.19999999999999929 1 
	-60.66763037831865546 108.9902493445536322 20.19999999999999929 1 
	-51.19724965977089681 77.76134544666646775 20.19999999999999929 1 
	-46.58510143419990612 62.58911751887751507 20.19999999999999929 1 
	-37.77529226132627826 33.33313754351890168 20.19999999999999929 1 
	-33.57763131402363399 19.24938549594927295 20.19999999999999929 1 
	-29.56771549810973099 5.70429525536274884 20.19999999999999929 1 
	-29.28702139099575774 4.75613893852169145 20.19999999999999929 1 
	-29.0063272838817845 3.807982621680634505 20.19999999999999929 1 
	-28.72563317676781125 2.85982630483957756 20.19999999999999929 1 
	8.881784197001252323e-15 
	0 
	2 0 1 
	6 0.1428571428571428492 0.2857142857142856984 0.4285714285714285476 0.5714285714285713969 0.7142857142857141906 0.8571428571428570953 
	0 
	2 0 1 
	0 
	F 0 F 1 F 0 F 1 } I I I I #
coedge $-1 $15 $16 $17 $18 reversed $5 $-1 #
face $-1 $19 $20 $2 $-1 $21 forward single #
loop $-1 $-1 $22 $7 #
spline-surface $-1 forward { exactsur full nurbs 3 1 both open open none none 6 4 
	-0.01000000000000000021 3 0 3 0.3333333333333333148 2 0.6666666666666666297 2 1 3 
	1.010000000000000009 3 
	-0.01000000000000000021 1 0 1 1 1 1.010000000000000009 1 
	-49.43738071125640232 -0.2308343421380268934 -0.2000000000000000111 1 
	-49.27037041110670401 -0.2304764619112196766 -0.2000000000000000111 1 
	-49.1033601109569986 -0.2301185816844124321 -0.2000000000000000111 1 
	-48.93634981080730029 -0.2297607014576052153 -0.2000000000000000111 1 
	-43.36933980581724057 -0.2178313605640309625 -0.2000000000000000111 1 
	-37.84737999989361867 -0.2088371619683093705 -0.2000000000000000111 1 
	-26.98977471828980867 -0.2000068477665333799 -0.2000000000000000111 1 
	-21.65412924260962768 -0.2001707321604790923 -0.2000000000000000111 1 
	-10.88004246059324664 -0.1997927107880232422 -0.2000000000000000111 1 
	-5.441601154257044826 -0.1992508050216216797 -0.2000000000000000111 1 
	-1.376595031109580267e-05 -0.2000000000001375677 -0.2000000000001375677 1 
	0.1632338556988910394 -0.2000224758494930366 -0.2000000000001417033 1 
	0.3264814773480931853 -0.2000449516988485332 -0.2000000000001458111 1 
	0.4897290989972953312 -0.2000674275482040021 -0.2000000000001499467 1 
	-49.43781540173394262 -0.03083481443451233789 0 1 
	-49.27080306197731119 -0.0304769298371064673 0 1 
	-49.10379072222067265 -0.03011904523970059672 0 1 
	-48.93677838246404121 -0.02976116064229472613 0 1 
	-43.3697003905762557 -0.017831674062099033 0 1 
	-37.84762637048580558 -0.008837307104854138368 0 1 
	-26.98985366190357382 -6.834916676250364642e-06 0 1 
	-21.65415497341179218 -0.0001707296857432538456 0 1 
	-10.88003076401490077 0.0002072864910417138217 0 1 
	-5.441605243109784773 0.000749197436893685783 0 1 
	0 0 0 1 
	0.163248157293293672 -2.247592310681058935e-05 0 1 
	0.326496314586587344 -4.495184621362117869e-05 0 1 
	0.4897444718798810159 -6.742776932043177142e-05 0 1 
	-49.48128444948781635 19.96911795591694272 20 1 
	-49.31406814903799329 19.96947627757421273 20 1 
	-49.14685184858817735 19.96983459923148274 20 1 
	-48.9796355481383543 19.97019292088875275 20 1 
	-43.40575886647767589 19.98213697613109474 20 1 
	-37.87226342970468096 19.99114817924066756 20 1 
	-26.99774802328005663 19.99999445006903898 20 1 
	-21.65672805362841657 19.99982951778784113 20 1 
	-10.87886110618029889 20.00020701439753523 20 1 
	-5.442014128383816818 20.00074944328843074 20 1 
	0.001376595031109580178 20.00000000001375611 20.00000000001375611 1 
	0.1646783167335574838 19.99997751671551427 20.00000000001416822 1 
	0.3279800384360054277 19.99995503341727598 20.00000000001458034 1 
	0.4912817601384533162 19.99993255011903415 20.00000000001499245 1 
	-49.48171913996534954 20.16911748362045387 20.19999999999999929 1 
	-49.31450079990860047 20.16947580964832554 20.19999999999999929 1 
	-49.14728245985184429 20.16983413567619365 20.19999999999999929 1 
	-48.98006411979509522 20.17019246170406177 20.19999999999999929 1 
	-43.40611945123669102 20.18213666263302741 20.19999999999999929 1 
	-37.87250980029686787 20.19114803410412406 20.19999999999999929 1 
	-26.99782696689382178 20.19999446291889456 20.19999999999999929 1 
	-21.65675378443058108 20.1998295202625755 20.19999999999999929 1 
	-10.87884940960195301 20.20020701167659993 20.19999999999999929 1 
	-5.442018217236556765 20.20074944574694698 20.19999999999999929 1 
	0.001390360981420676054 20.20000000001389395 20.20000000001389395 1 
	0.1646926183279601164 20.19997751664190133 20.20000000001430962 1 
	0.3279948756744995864 20.19995503326991226 20.20000000001472884 1 
	0.4912971330210390009 20.19993254989791964 20.20000000001514451 1 
	7.105427357601001859e-15 
	0 
	2 0 1 
	2 0.3333333333333333148 0.6666666666666666297 
	0 
	2 0 1 
	0 
	F 0 F 1 F 0 F 1 } I I I I #
coedge $-1 $23 $17 $24 $25 forward $8 $26 #
coedge $-1 $27 $10 $28 $29 reversed $5 $-1 #
coedge $-1 $10 $30 $31 $32 reversed $5 $-1 #
coedge $-1 $14 $33 $10 $18 forward $8 $34 #
edge $-1 $35 0 $36 1 $10 $37 forward 7 unknown #
face $-1 $38 $39 $2 $-1 $40 forward single #
loop $-1 $-1 $41 $11 #
plane-surface $-1 0 0 0 0 -0.7071067811865475727 0.7071067811865474617 1 0 0 forward_v I I I I #
coedge $-1 $42 $31 $43 $44 forward $12 $45 #
coedge $-1 $33 $14 $46 $47 reversed $8 $48 #
coedge $-1 $31 $42 $14 $25 reversed $12 $49 #
edge $-1 $36 0 $50 1 $24 $51 forward 7 unknown #
pcurve $-1 0 forward { exppc nubs 2 open 7 
	0 2 0.1666666666666666574 2 0.3333333333333333148 2 0.5 2 0.6666666666666666297 2 
	0.8333333333333333703 2 1 2 
	1 0 
	0.9957818432254663676 0.08343122266330077474 
	0.9915877795747669587 0.1668321377116049331 
	0.987397924803220306 0.2501493572321439318 
	0.9832286450651377407 0.3335053233006706197 
	0.9790638015925717808 0.4167725955837806584 
	0.9749237607960354879 0.4999931329804578883 
	0.970782970596498096 0.5832287344118641803 
	0.9666637658135407429 0.6664824331586800543 
	0.9625459794222436249 0.7497074646371189033 
	0.9584393928633905269 0.8331601759669956531 
	0.9543413916988098267 0.9164384177184683455 
	0.9502517577325937381 1 
	0.001000000000000000021 
	spline forward { ref 0 } I I I I 
	} 0 0 #
coedge $-1 $52 $15 $53 $54 reversed $5 $-1 #
coedge $-1 $55 $56 $15 $29 forward $57 $58 #
edge $-1 $59 0 $35 0.999999999999999889 $15 $60 forward 7 unknown #
coedge $-1 $16 $52 $61 $62 reversed $5 $-1 #
coedge $-1 $22 $24 $16 $32 forward $12 $63 #
edge $-1 $36 0 $64 1 $16 $65 forward 7 unknown #
coedge $-1 $17 $23 $55 $66 reversed $8 $67 #
pcurve $-1 0 forward { exppc nubs 2 open 65 
	0 2 0.08333333333333332871 2 0.125 2 0.1458333333333333148 2 0.15625 2 
	0.1614583333333333148 2 0.1640625 2 0.1653645833333333148 2 0.166015625 2 0.1663411458333333148 2 
	0.1666666666666666574 2 0.1669921875 2 0.1673177083333333148 2 0.16796875 2 0.1692708333333333148 2 
	0.171875 2 0.1770833333333333148 2 0.1875 2 0.2083333333333333148 2 0.25 2 
	0.2916666666666666297 2 0.3125 2 0.3333333333333333148 2 0.375 2 0.4166666666666666297 2 
	0.4583333333333333148 2 0.4791666666666666297 2 0.4895833333333333148 2 0.4947916666666666297 2 0.4973958333333333148 2 
	0.4986979166666666297 2 0.4993489583333333148 2 0.4996744791666666297 2 0.5 2 0.5003255208333332593 2 
	0.5006510416666666297 2 0.5013020833333332593 2 0.5026041666666666297 2 0.5052083333333332593 2 0.5104166666666666297 2 
	0.5208333333333332593 2 0.5416666666666666297 2 0.5833333333333332593 2 0.6666666666666666297 2 0.75 2 
	0.7916666666666667407 2 0.8125 2 0.8229166666666667407 2 0.828125 2 0.8307291666666667407 2 
	0.83203125 2 0.8326822916666667407 2 0.8330078125 2 0.8333333333333333703 2 0.8336588541666667407 2 
	0.833984375 2 0.8346354166666667407 2 0.8359375 2 0.8385416666666667407 2 0.84375 2 
	0.8541666666666667407 2 0.875 2 0.9166666666666667407 2 0.9583333333333333703 2 1 2 
	-3.018418848199644344e-16 0 
	0.04531398064956001365 -4.719933939335974992e-05 
	0.09577432894308703093 -2.464438170344303985e-05 
	0.1134741579709323822 -1.673284505206220913e-05 
	0.1425169496180453688 1.1307423508956432e-05 
	0.1541694958141299754 2.255773748038970169e-05 
	0.1655701119435058488 2.963287070138473421e-05 
	0.1713765325305480203 3.323628991590465629e-05 
	0.1770212255962964332 3.568634456668509728e-05 
	0.1798996381008854395 3.693570708566502804e-05 
	0.1827291165795014161 3.788173997688895297e-05 
	0.1841604729777311378 3.836031234975733803e-05 
	0.1855787925941154715 3.876107236441307669e-05 
	0.1862923539905341763 3.896269608317394072e-05 
	0.1870025814269129505 3.914461372968534847e-05 
	0.1873588310489326947 3.92358635063265484e-05 
	0.1877142158151079987 3.932214877357557222e-05 
	0.1878920859403785115 3.93647383740156954e-05 
	0.1880699682838408715 3.940733090000562207e-05 
	0.1880707716785923189 3.940751786825778184e-05 
	0.1884256777099546087 3.949011258305299072e-05 
	0.1887805407655261392 3.957030454675452316e-05 
	0.1887813441740092968 3.957048610102710876e-05 
	0.1889591497862062597 3.960946352323047926e-05 
	0.1891369677564314622 3.964844365448266214e-05 
	0.1894929468936099315 3.972527198509646278e-05 
	0.1898480865973831144 3.979707929153963457e-05 
	0.1905606997798461322 3.994116578496834341e-05 
	0.1912698132385882432 4.006501033574100137e-05 
	0.1926976159166937652 4.031437181650113861e-05 
	0.1941112402979723039 4.048167269409033958e-05 
	0.1969777757278403096 4.08209239817113929e-05 
	0.1997861325555444767 4.082274788684352954e-05 
	0.2055652111986308317 4.082650114790226158e-05 
	0.2111052047978068669 3.940065953017191287e-05 
	0.2228403388265856877 3.63803595625027381e-05 
	0.2336294552788504286 2.688881891311789031e-05 
	0.2423930504215072168 1.917919598531829661e-05 
	0.2782936059337294266 -4.169605440296591235e-05 
	0.2997048898659120386 -7.800238035877633846e-05 
	0.3225644618661981378 -6.738042249119316235e-05 
	0.3330074647805185695 -6.252796344221930717e-05 
	0.3445360854535814421 -4.831116902726080781e-05 
	0.3547571042621406878 -3.570687513804301285e-05 
	0.3663705652436200499 -1.504840072661176031e-05 
	0.4094382597418574354 6.454979796714407079e-05 
	0.409547259053397783 6.475125172403905095e-05 
	0.4302371930328796612 9.33081154478012162e-05 
	0.4519573558488037546 6.359213339223356227e-05 
	0.4727003846151535127 2.732822918531662581e-05 
	0.4936319544437018925 -9.265291062519631862e-06 
	0.5044127138533086585 -2.685403021344407915e-05 
	0.5142417403043990642 -3.727558169233442158e-05 
	0.5194582726413448093 -4.280658321633870427e-05 
	0.5244963418284646073 -4.643175862443242103e-05 
	0.527073737565697753 -4.828634046933449311e-05 
	0.5296117791969053856 -4.96481535910952082e-05 
	0.5308938370157333386 -5.033605529420218734e-05 
	0.5321666198154187954 -5.089866975916369708e-05 
	0.5328061095968537053 -5.118134658229371765e-05 
	0.5334433315318890534 -5.143243156697583219e-05 
	0.5337626857456991836 -5.155826692425696578e-05 
	0.5340815116058095224 -5.167618309615952901e-05 
	0.5342411025305671135 -5.173520700956709968e-05 
	0.5344005578663472145 -5.179224523687084433e-05 
	0.5345601354163066476 -5.184932718549489501e-05 
	0.5347195750075485199 -5.190441958953864732e-05 
	0.5348791384288071882 -5.195955477910368031e-05 
	0.5350385630780251089 -5.201269719972435439e-05 
	0.5351981122039051186 -5.206588111407336973e-05 
	0.5353575221263161543 -5.211706916220945011e-05 
	0.5356767203408516753 -5.221956675558280902e-05 
	0.5359953533501503609 -5.231406077847716848e-05 
	0.5366340706861235654 -5.250347922989373288e-05 
	0.5372706696695478401 -5.266078497011194914e-05 
	0.5385494487519383311 -5.297677556524477989e-05 
	0.5398199286478082559 -5.316323688300174529e-05 
	0.5423822346279252304 -5.353929238086812311e-05 
	0.5449130387072618209 -5.338871135929636956e-05 
	0.5500527526093292874 -5.308290208246755303e-05 
	0.555078319025247624 -5.060259742693039666e-05 
	0.5650967335269485581 -4.565813583138987321e-05 
	0.5753306059795780802 -3.122776526766143251e-05 
	0.605086342363335028 1.072959783053879481e-05 
	0.6155343053516542096 1.466198002692555941e-05 
	0.6157697857870270131 1.461162540436283189e-05 
	0.6947315500358115514 -2.27338599515479467e-06 
	0.7721780641995955596 2.007610921190774531e-05 
	0.7724243398541120742 2.01471793771651757e-05 
	0.7916600238010551571 1.402447207312139587e-05 
	0.8107892613866645171 -8.779349088880254568e-06 
	0.8202862106869404091 -2.027868930784559276e-05 
	0.8298754636881384705 -3.18897950661235801e-05 
	0.835100274446973101 -3.775302128097614296e-05 
	0.8393989848863688819 -4.138880723477358399e-05 
	0.8418583475308225594 -4.346889992485283594e-05 
	0.8441564735715672008 -4.495628493807777919e-05 
	0.8453628549365679312 -4.573707482145676888e-05 
	0.8465342289821282673 -4.636121524348088134e-05 
	0.8471326554921412288 -4.668007340409397425e-05 
	0.8477228694118820185 -4.695856860014196619e-05 
	0.8480210133163741393 -4.709924919640823661e-05 
	0.8483171315564584924 -4.722966655198509317e-05 
	0.8484659037487316535 -4.729518928336926584e-05 
	0.8486142482694202238 -4.735815726540012767e-05 
	0.8487630380434281197 -4.742131424589276785e-05 
	0.8489113554672934603 -4.74818814757468205e-05 
	0.8490601425965215165 -4.75426405119678931e-05 
	0.8492084531956570759 -4.760079229109458659e-05 
	0.8493572639246171896 -4.76591401724647801e-05 
	0.8495055414986253384 -4.771484359475463655e-05 
	0.8498035405668111775 -4.782679287516376424e-05 
	0.8500996900129931255 -4.792817897515971073e-05 
	0.8506974393182229477 -4.813281711305325116e-05 
	0.8512878759197737288 -4.829448571895234531e-05 
	0.8524897119659727851 -4.862356280505793395e-05 
	0.8536638133308799281 -4.877522229115590724e-05 
	0.8560721759495188987 -4.908631215648014579e-05 
	0.8584140310804168061 -4.86470095743892045e-05 
	0.8629436114296106242 -4.779731724666595239e-05 
	0.8679082402872415614 -4.408578149327760436e-05 
	0.8759165260079430082 -3.809882060536601425e-05 
	0.8868734362516507153 -2.269868223272021259e-05 
	0.9239865338990538302 2.946445743550975331e-05 
	0.9247218277965887356 3.030561373749308347e-05 
	0.9459047283029036191 5.45382777044766751e-05 
	0.9624454535856729054 5.066353910428935992e-05 
	0.982593772209114702 4.594370568746215751e-05 
	0.999999999999999778 5.991416968850418042e-17 
	0.001000000000000000021 
	spline forward { ref 0 } I I I I 
	} 0 0 #
vertex $-1 $29 $68 #
vertex $-1 $32 $69 #
intcurve-curve $-1 forward { exactcur full nurbs 3 open 10 
	0 3 0.114737059907087352 1 0.2284342080994208601 1 0.3411047456704542347 1 0.4528302352235972217 1 
	0.5637100508734113058 1 0.6737858431613249488 1 0.7831478349295651897 1 0.8918621596972333698 1 1 3 
	-155.7742371916148443 349.5818935685356905 0 1 
	-150.3009867221049092 331.8911438314507905 0 1 
	-139.739438500185372 297.7383391946075903 0 1 
	-124.9010455613227748 249.8880213629405205 0 1 
	-111.3002298040607343 205.635987876939538 0 1 
	-98.74822993146945294 164.6962646419325438 0 0.999999999999999778 
	-87.11450102325463263 126.6461015336411151 0 1 
	-76.46012084519708196 91.43850015326502501 0 0.999999999999999889 
	-66.51289128306213172 58.70135836661025053 0 1.000000000000000222 
	-57.33201882668512894 28.24184301939408925 0 0.999999999999999778 
	-51.65700698744407759 9.170947483235948994 0 1.000000000000000222 
	-48.936778382464027 -0.02976116064229470184 0 1 
	0 
	null_surface 
	null_surface 
	nullbs 
	nullbs 
	I I 
	0 
	0 
	8 0.114737059907087352 0.2284342080994208601 0.3411047456704542347 0.4528302352235972217 0.5637100508734113058 0.6737858431613249488 0.7831478349295651897 0.8918621596972333698 
	F 1 F 0 } I I #
face $-1 $70 $71 $2 $-1 $72 forward single #
loop $-1 $-1 $73 $19 #
plane-surface $-1 50 0 0 0.7071067811865475727 0 0.7071067811865474617 0 1 0 forward_v I I I I #
coedge $-1 $74 $61 $75 $76 forward $20 $-1 #
coedge $-1 $24 $22 $77 $78 reversed $12 $79 #
coedge $-1 $61 $74 $22 $44 reversed $20 $-1 #
edge $-1 $64 0 $80 1 $22 $81 forward 7 unknown #
pcurve $-1 0 forward { exppc nubs 2 open 7 
	0 2 0.1666666666666666574 2 0.3333333333333333148 2 0.5 2 0.6666666666666666297 2 
	0.8333333333333333703 2 1 2 
	1 0 
	1 0.08333333333333331483 
	1 0.1666666666666666574 
	1 0.25 
	1 0.3333333333333333148 
	1 0.4166666666666666852 
	1 0.5 
	1 0.5833333333333332593 
	1 0.6666666666666666297 
	1 0.75 
	1 0.8333333333333333703 
	1 0.9166666666666667407 
	1 1 
	0.001000000000000000021 
	spline forward { ref 1 } I I I I 
	} 0 0 #
coedge $-1 $77 $82 $23 $47 forward $83 $-1 #
edge $-1 $84 0 $50 1 $46 $85 forward 7 unknown #
pcurve $-1 0 forward { exppc nubs 2 open 55 
	-1 2 -0.9166666666666667407 2 -0.8333333333333333703 2 -0.75 2 -0.7083333333333333703 2 
	-0.6875 2 -0.6770833333333333703 2 -0.671875 2 -0.6692708333333333703 2 -0.66796875 2 
	-0.6673177083333333703 2 -0.6669921875 2 -0.6666666666666667407 2 -0.5 2 -0.4166666666666666852 2 
	-0.375 2 -0.3541666666666666852 2 -0.34375 2 -0.3385416666666666852 2 -0.3359375 2 
	-0.3346354166666666852 2 -0.333984375 2 -0.3336588541666666852 2 -0.3333333333333333703 2 -0.3330078125 2 
	-0.3326822916666666852 2 -0.33203125 2 -0.3307291666666666852 2 -0.328125 2 -0.3229166666666666852 2 
	-0.3125 2 -0.2916666666666666852 2 -0.25 2 -0.2083333333333333148 2 -0.1874999999999999722 2 
	-0.1770833333333333148 2 -0.1718749999999999722 2 -0.1692708333333333148 2 -0.1679687499999999722 2 -0.1673177083333333148 2 
	-0.1669921874999999722 2 -0.1666666666666666297 2 -0.1663411458333333148 2 -0.1660156249999999722 2 -0.1653645833333333148 2 
	-0.1640624999999999722 2 -0.1614583333333333148 2 -0.1562499999999999722 2 -0.1458333333333333148 2 -0.1249999999999999722 2 
	-0.08333333333333331483 2 -0.04166666666666665741 2 -0.02083333333333332871 2 -0.01041666666666666435 2 -0 2 
	0.9502517577325937381 1 
	0.917915762823386383 1.000010851555920066 
	0.8872531825574087039 1.000007083792858742 
	0.8869911027669358239 1.000006998549622494 
	0.8239325319375564449 0.9999864883201339261 
	0.7870032757789019451 0.999975281988942144 
	0.7599030681881373539 1.000006223856051646 
	0.7307105142394832997 1.000039554675458131 
	0.7273377663044958696 1.000041793682993063 
	0.7185516361190205092 1.00004762637846234 
	0.7108813928168710161 1.000044414435231843 
	0.7070167806357882112 1.0000427961143461 
	0.702606383907679044 1.000038858010456888 
	0.700628957851525902 1.000037092339538969 
	0.6984569348258939936 1.000034789716203854 
	0.6974489446686560346 1.000033721117191465 
	0.696379201034215356 1.000032516383104531 
	0.6958683076469402984 1.000031941020318671 
	0.6953395789746401601 1.00003133043205561 
	0.6950819960073442161 1.000031032969209477 
	0.6948195787997726303 1.000030726455430008 
	0.6946895483758841472 1.000030574160974961 
	0.694559531381621853 1.000030421882249554 
	0.6945585922103163501 1.000030420776409912 
	0.6942994523937260354 1.000030115648835372 
	0.6278171023453529287 1.0000139896616147 
	0.5566330090339132175 0.9999967232175398513 
	0.4900676225836793631 0.999965326035221147 
	0.4838361303007105985 0.999968451132747016 
	0.4659732446686714047 0.999977409381766158 
	0.4461602185265684528 1.000021419783096777 
	0.4315130785094629662 1.000053955272926398 
	0.4269538854673011197 1.0000620445130326 
	0.422087074362019421 1.000070679550682851 
	0.4172518531890797577 1.000076663482079242 
	0.4148120726980987216 1.000079682884617682 
	0.4123762249269761204 1.000082032975223578 
	0.4111540221263438877 1.000083212148795475 
	0.409932331542923134 1.000084223310981457 
	0.4093205673758594787 1.000084729652606086 
	0.4087088744921755223 1.000085193914291848 
	0.4084028166412833616 1.000085426205587824 
	0.4080967695727583666 1.000085647967867253 
	0.4079436956337195164 1.000085758885532305 
	0.4077906231649678914 1.000085867170101395 
	0.4076375184376552774 1.000085975477489342 
	0.4074844141825995636 1.000086081151360107 
	0.4073312785556248983 1.00008618684688555 
	0.4071781426688421135 1.000086289908267423 
	0.4070249755330508923 1.000086392990678918 
	0.4068718086669494971 1.000086493437508439 
	0.4065653829507808736 1.000086694391494779 
	0.4062589533720993296 1.000086884800050591 
	0.4056457456976395592 1.00008726583372054 
	0.4050324948352216903 1.000087604654295026 
	0.403804741164996539 1.000088282987143362 
	0.4025765957683776208 1.000088792235700907 
	0.4001164343518037736 1.000089812337768169 
	0.397652948901816905 1.000090154577066182 
	0.3927194655479993024 1.000090839960402267 
	0.3877589082441627588 1.000088806759242388 
	0.3778829150261306946 1.000084758850985356 
	0.3677892412048227033 1.00006985945945881 
	0.3496059425726653069 1.000043018876897394 
	0.3271700458530367173 0.9999707857942929934 
	0.2974435991998574669 0.9998750805544500686 
	0.2857455506919497901 0.9998594629766156539 
	0.2756288381980802615 0.9998459565746968813 
	0.2647678769801705134 0.9998529781193997712 
	0.2596039950242603478 0.9998563165373601791 
	0.2542098164566508056 0.9998643138046816592 
	0.2515936538318294113 0.9998681924586042546 
	0.2489122869413032679 0.999873181435872449 
	0.2475942392548545201 0.9998756338081937756 
	0.2462587466802213798 0.999878357466944645 
	0.2455970146049116787 0.9998797070306888468 
	0.2449307637256394887 0.9998811236707204619 
	0.2445991885005303068 0.9998818286945373446 
	0.2442664666661107375 0.9998825503890683697 
	0.2441005027913282777 0.9998829103751227798 
	0.2439342414435919648 0.9998832745355473728 
	0.2437682488273844317 0.9998836381073747948 
	0.2436019649788148944 0.9998840058287372656 
	0.2434359473435605548 0.9998843729613917652 
	0.2432696371867897334 0.9998847442351275205 
	0.2431035916717296519 0.9998851149180736364 
	0.2429372579822173805 0.9998854897210354142 
	0.2426054005596986751 0.9998862375018664483 
	0.2422723449956171171 0.9998870017971315249 
	0.2416095558812580146 0.9998885227643130591 
	0.2409418983220854293 0.9998901094194631023 
	0.2396203267686154714 0.9998932500688586522 
	0.2382785030377570501 0.9998966509360864841 
	0.2356540233242887805 0.9999033027092274484 
	0.2329415510698654712 0.9999109774903158776 
	0.2277956434607378011 0.9999255375339571872 
	0.2222257629594518724 0.9999441005313006725 
	0.2131423186219643384 0.9999743733447055138 
	0.2006165970385901387 1.000023949608226825 
	0.1688406273965860072 1.0001497175198093 
	0.156616426363149458 1.000179368974191352 
	0.133939394496989439 1.000234375184744673 
	0.1114585808343098311 1.000187666368950179 
	0.1002161020153665705 1.000164307656043583 
	0.08844251285202973933 1.000116168236544922 
	0.08271256845195931739 1.00009273985006697 
	0.07683102089463576811 1.000063347191503915 
	0.07107538049368208877 1.000034583745915473 
	0.06515294029728177505 1.000000000000000888 
	0.001000000000000000021 
	spline forward { ref 0 } I I I I 
	} 0 0 #
pcurve $-1 0 forward { exppc nubs 2 open 7 
	-1 2 -0.8333333333333333703 2 -0.6666666666666667407 2 -0.5 2 -0.3333333333333333703 2 
	-0.1666666666666666297 2 -0 2 
	0.3010443297930628925 0.9999999999999996669 
	0.2762648829971506848 0.9185056744651374228 
	0.2504189721986579964 0.8331598922976297672 
	0.2257757533095505753 0.7517855190896816087 
	0.2000335934664580484 0.6664824331120858814 
	0.1755334560884517781 0.5852950992613686898 
	0.1498701276219784051 0.4999931489962980424 
	0.1254579030689338404 0.4188497241518235326 
	0.0998493972394621232 0.3335053233674781792 
	0.07546105364621291667 0.2522273064478008919 
	0.04989565536052709138 0.1668323643247195676 
	0.02553593328632675075 0.08546468785000771451 
	4.254433795350754081e-16 -1.422473250300981817e-15 
	0.001000000000000000021 
	spline forward { ref 1 } I I I I 
	} 0 0 #
vertex $-1 $78 $86 #
intcurve-curve $-1 forward { exactcur full nurbs 3 open 4 
	0 3 0.3334123843331282533 1 0.6666276446968482094 1 1 3 
	-48.93677838246401279 -0.02976116064235156955 0 1 
	-47.27558217143733543 2.199490697592001442 2.225657058177762604 1 
	-43.95637807386631835 6.653956846032149208 6.673558014634684454 0.999999999999999778 
	-38.993455972760799 13.31523054639664672 13.32668978794585435 1.000000000000000222 
	-35.67689786395862228 17.76699806105720825 17.77448735913887035 0.999999999999999889 
	-34.01773671505890917 19.99415829889031926 20 1 
	0 
	null_surface 
	null_surface 
	nullbs 
	nullbs 
	I I 
	0 
	0 
	2 0.3334123843331282533 0.6666276446968482094 
	F 1 F 0 } I I #
coedge $-1 $30 $27 $87 $88 reversed $5 $-1 #
coedge $-1 $89 $90 $27 $54 forward $71 $-1 #
edge $-1 $91 -25 $59 24.99999999999991473 $27 $92 forward 7 unknown #
coedge $-1 $93 $28 $33 $66 forward $57 $94 #
coedge $-1 $28 $93 $89 $95 reversed $57 $96 #
loop $-1 $-1 $55 $70 #
pcurve $-1 0 forward { exppc nubs 2 open 21 
	0 2 0.04166666666666665741 2 0.08333333333333331483 2 0.1249999999999999722 2 0.1458333333333333148 2 
	0.1666666666666666297 2 0.2499999999999999445 2 0.2916666666666666297 2 0.3124999999999999445 2 0.3229166666666666297 2 
	0.3281249999999999445 2 0.3307291666666666297 2 0.3320312499999999445 2 0.3326822916666666297 2 0.3330078124999999445 2 
	0.3333333333333332593 2 0.4999999999999999445 2 0.6666666666666665186 2 0.8333333333333332593 2 0.9166666666666665186 2 
	0.999999999999999889 2 
	0 0 
	0.02168566937993145205 2.821361253260749001e-05 
	0.04519445521819919626 4.136615611738885629e-05 
	0.06644872467046364362 5.325735744113876209e-05 
	0.09005547485467685354 5.326722028544743191e-05 
	0.1106526999460803184 5.327582575896781683e-05 
	0.1346088107513132848 4.414473480358117082e-05 
	0.1450673657156220375 4.01583608367628986e-05 
	0.1567777362603592628 3.422328034317488366e-05 
	0.1668909847088902998 2.909765742161904526e-05 
	0.1788787382962403472 2.202760869559348264e-05 
	0.2661073109297516504 -2.98602897150355943e-05 
	0.2666598000525405854 -3.018893775558873001e-05 
	0.2905132447077426461 -4.134684767228831263e-05 
	0.3102165184279795374 -4.319503986969195508e-05 
	0.3214302372991317824 -4.424690099314696227e-05 
	0.3319213264248637163 -4.243793537764066584e-05 
	0.3371592193909441759 -4.153477193082935582e-05 
	0.3427564175416848435 -3.980420176882036121e-05 
	0.3454059572894602193 -3.898500360254310271e-05 
	0.3481695210993784317 -3.797143940712061311e-05 
	0.3495064982671310383 -3.748108988453328379e-05 
	0.350874920634832832 -3.694356208455878331e-05 
	0.351546981818815385 -3.667957081161670222e-05 
	0.3522273271479310908 -3.640392965455003431e-05 
	0.3525654024471540082 -3.626594148187432641e-05 
	0.3529034564371952842 -3.612796200671375229e-05 
	0.3530724821471156183 -3.605821706399452462e-05 
	0.3532415025117074947 -3.598847432691383471e-05 
	0.353243656123368166 -3.598757934625757194e-05 
	0.3535795361746622567 -3.584799700918905874e-05 
	0.4766695152474093589 1.548470058131009669e-05 
	0.5245349952520312886 8.367294144586432522e-06 
	0.5865440473574763391 -8.532052023692070114e-07 
	0.6896281922255155239 1.6666080716663848e-05 
	0.7667533485213708921 2.977360240327287186e-05 
	0.8477412783361020221 -1.654719902274316701e-05 
	0.8999615584177866889 -4.641443022500780678e-05 
	0.9245192691220054382 -4.797981623165843706e-05 
	0.9665505396026912166 -5.065902209747490917e-05 
	0.9999999999999986677 0 
	0.001000000000000000021 
	spline forward { exactsur full nurbs 3 1 both open open none none 6 4 
	-0.01000000000000000021 3 0 3 0.3333333333333333148 2 0.6666666666666666297 2 1 3 
	1.010000000000000009 3 
	-0.01000000000000000021 1 0 1 1 1 1.010000000000000009 1 
	1.440858456800608645 350.1990985476916194 -0.2000000000000000389 1 
	0.9605931649167276376 350.1993990317944281 -0.2000000000000000389 1 
	0.4803278730328466861 350.1996995158971799 -0.2000000000000000389 1 
	6.258114896579914429e-05 350.1999999999999886 -0.2000000000000000389 1 
	-16.00878048164706158 350.2100161367596343 -0.2000000000000000111 1 
	-32.44317743319155767 350.2020369016350401 -0.2000000000000000111 1 
	-65.76117235451694398 350.1948473735414495 -0.2000000000000000111 1 
	-82.64477032429785197 350.1956370805726237 -0.2000000000000000111 1 
	-118.0686407679409626 350.0717046405123938 -0.2000000000000000111 1 
	-136.6089132418031227 349.9469824934209328 -0.2000000000000000111 1 
	-155.7759598380206114 349.7818861496214708 -0.2000000000000000111 1 
	-156.3509712359071386 349.7769332593074978 -0.2000000000000000111 1 
	-156.9259826337936659 349.7719803689935247 -0.2000000000000000111 1 
	-157.5009940316801931 349.7670274786794948 -0.2000000000000000111 1 
	1.440787816577637326 349.9990985527330736 0 1 
	0.9605252110517866759 349.9993990351553634 0 1 
	0.4802626055259359705 349.9996995175777101 0 1 
	8.52651282912120223e-14 350 0 1 
	-16.00875351752826958 350.0100160807438101 0 1 
	-32.44321792564753082 350.0020369195494823 0 1 
	-65.76104554725648654 349.9948473649398011 0 1 
	-82.64440876074620235 349.9956369715245614 0 1 
	-118.0676029205301205 349.871707197506737 0 1 
	-136.6074338668242945 349.7469878169041522 0 1 
	-155.7742371916150432 349.5818935685356905 0 1 
	-156.3492412913587657 349.576940741084627 0 1 
	-156.9242453911024882 349.5719879136335635 0 1 
	-157.4992494908462106 349.5670350861825568 0 1 
	1.433723794280540753 329.9990990568755365 20.00000000000000355 1 
	0.9537298245577044975 329.9993993712503197 20.00000000000000355 1 
	0.4737358548348681864 329.9996996856251599 20.00000000000000355 1 
	-0.006258114887968136038 330 20.00000000000000355 1 
	-16.00605710564917672 330.0100104791609965 20 1 
	-32.44726717124494542 330.0020387109959756 20 1 
	-65.74836482121095571 329.9948465047740456 20 1 
	-82.60825240558121152 329.9956260667171932 20 1 
	-117.9638181794458802 329.8719628969434439 20 1 
	-136.4594963689403357 329.7475201652266037 20 1 
	-155.601972551058509 329.5826354599554406 20 1 
	-156.1762468365220684 329.5776889187973211 20 1 
	-156.7505211219855994 329.5727423776391447 20 1 
	-157.3247954074491588 329.5677958364810252 20 1 
	1.433653154057569656 329.7990990619169338 20.20000000000000284 1 
	0.9536618706927635358 329.7993993746113119 20.20000000000000284 1 
	0.4736705873279574708 329.7996996873056332 20.20000000000000284 1 
	-0.006320696036848669729 329.8000000000000114 20.20000000000000284 1 
	-16.00603014153038473 329.8100104231451724 20.19999999999999929 1 
	-32.44730766370091857 329.8020387289104178 20.19999999999999929 1 
	-65.74823801395049827 329.7948464961723971 20.19999999999999929 1 
	-82.6078908420295619 329.7956259576691309 20.19999999999999929 1 
	-117.9627803320350381 329.6719654539377871 20.19999999999999929 1 
	-136.4580169939615075 329.5475254887098231 20.19999999999999929 1 
	-155.6002499046529408 329.3826428788696603 20.19999999999999929 1 
	-156.1745168919736955 329.3776964005744503 20.19999999999999929 1 
	-156.7487838792944217 329.3727499222792403 20.19999999999999929 1 
	-157.3230508666151763 329.3678034439840303 20.19999999999999929 1 
	5.684341886080801487e-14 
	0 
	2 0 1 
	2 0.3333333333333333148 0.6666666666666666297 
	0 
	2 0 1 
	0 
	F 0 F 1 F 0 F 1 } I I I I 
	} 0 0 #
vertex $-1 $54 $97 #
intcurve-curve $-1 forward { exactcur full nurbs 3 open 6 
	0 3 0.2002140887867970565 1 0.4002858757318898952 1 0.600252092669876447 1 0.8001610854460666777 1 
	0.999999999999999889 3 
	8.52651282912120223e-14 350 0 1 
	-10.47020219305142774 350.0027689950136391 0 1 
	-31.36738552704349914 350.0044629318296074 0 0.999999999999999778 
	-62.58629723032440495 349.9979328053705103 0 1.000000000000000222 
	-93.70291565384474097 349.9750070258180585 0 1.000000000000000222 
	-124.7773340967006277 349.8275328513238378 0 1 
	-145.4488739487028113 349.6744578712319935 0 0.999999999999999778 
	-155.7742371916148443 349.5818935685356905 0 1 
	0 
	null_surface 
	null_surface 
	nullbs 
	nullbs 
	I I 
	0 
	0 
	4 0.2002140887867970565 0.4002858757318898952 0.600252092669876447 0.8001610854460666777 
	F 1 F 0 } I I #
coedge $-1 $41 $43 $30 $62 forward $20 $-1 #
edge $-1 $64 0 $98 50 $30 $99 forward 7 unknown #
pcurve $-1 0 forward { exppc nubs 2 open 7 
	0 2 0.1666666666666666574 2 0.3333333333333333148 2 0.5 2 0.6666666666666666297 2 
	0.8333333333333333703 2 1 2 
	1.418143609233111382e-16 0 
	0.07446697243704200608 3.731395571966545586e-06 
	0.1613334739433343878 3.359696781818909195e-06 
	0.2304173021185097203 3.064089383771747966e-06 
	0.3242221287024492082 -5.277580825135963494e-08 
	0.4128522003085214331 -2.997698728196938284e-06 
	0.4886735360256498351 -2.92179062882577667e-06 
	0.5586330743846217306 -2.851751062250773518e-06 
	0.655794065154900685 1.01039947365845365e-07 
	0.7330290508310572939 2.448265811360665031e-06 
	0.8263306418423633781 1.829722806547000076e-06 
	0.9124219103675683673 9.226937305130544109e-07 
	1 0 
	0.001000000000000000021 
	spline forward { ref 1 } I I I I 
	} 0 0 #
vertex $-1 $32 $100 #
intcurve-curve $-1 forward { exactcur full nurbs 3 open 4 
	0 3 0.3317118146865826178 1 0.6633817655143454672 1 1 3 
	-48.936778382464027 -0.02976116064229470184 0 1 
	-43.60413892571660455 -0.01812071912893253867 0 0.999999999999999889 
	-32.89366092371151495 -0.000509084469856986143 0 1.000000000000000222 
	-17.04353350629412489 -0.0002077442145591313618 0 0.999999999999999778 
	-5.774343706888789285 0.0008255071953419880915 0 0.999999999999999889 
	0 0 0 1 
	0 
	null_surface 
	null_surface 
	nullbs 
	nullbs 
	I I 
	0 
	0 
	2 0.3317118146865826178 0.6633817655143454672 
	F 1 F 0 } I I #
edge $-1 $35 0 $84 1 $55 $101 forward 7 unknown #
pcurve $-1 0 forward { exppc nubs 2 open 7 
	-1 2 -0.8333333333333333703 2 -0.6666666666666667407 2 -0.5 2 -0.3333333333333333703 2 
	-0.1666666666666666297 2 -0 2 
	0.06515294029728188607 0.9999999999999993339 
	0.05982447642509827745 0.918753301082273266 
	0.05455474821105629757 0.8382360510991757607 
	0.04917672582930819603 0.7560641524874129882 
	0.04385066828941768663 0.6745112789276423992 
	0.03842898011551043602 0.5914941040627139657 
	0.03304209940157305098 0.5088268703780375324 
	0.02757157780337984171 0.4248760811629849199 
	0.02213009050041976622 0.341180874464665107 
	0.01660628224031290151 0.2562194938055101234 
	0.01111564387682802135 0.1715714571311641734 
	0.005544558038922963589 0.08568317837403702231 
	-1.509209424099822172e-16 -5.107025913275720086e-15 
	0.001000000000000000021 
	spline forward { ref 0 } I I I I 
	} 0 0 #
point $-1 -155.7742371916148443 349.5818935685356905 0 #
point $-1 -48.936778382464027 -0.02976116064229470184 0 #
face $-1 $102 $57 $2 $-1 $103 forward single #
loop $-1 $-1 $89 $38 #
plane-surface $-1 50 350 0 0 0.7071067811865475727 0.7071067811865474617 -1 0 0 forward_v I I I I #
coedge $-1 $104 $87 $90 $105 forward $39 $-1 #
coedge $-1 $43 $41 $106 $107 reversed $20 $-1 #
coedge $-1 $87 $104 $41 $76 reversed $39 $-1 #
edge $-1 $98 -14.43375672974064372 $108 20.20725942163689837 $41 $109 forward 7 unknown #
coedge $-1 $106 $46 $42 $78 forward $83 $-1 #
edge $-1 $50 0 $80 1 $77 $110 forward 7 unknown #
pcurve $-1 0 forward { exppc nubs 2 open 7 
	-1 2 -0.8333333333333333703 2 -0.6666666666666667407 2 -0.5 2 -0.3333333333333333703 2 
	-0.1666666666666666297 2 -0 2 
	1 1 
	0.9432696400694349226 0.9999942129644860955 
	0.8796752494597473992 0.9999945557267936325 
	0.8245189648343321798 0.9999948530091613552 
	0.7608191627641788246 0.9999998069692556113 
	0.6688249294423396218 1.000006961399133809 
	0.6432186621130123738 1.000007077741351447 
	0.5904553658832232266 1.000007317471601098 
	0.5269417499847679487 1.000000265667720267 
	0.4239657779320171738 0.9999888324286241303 
	0.4126572141990861309 0.9999882933253020356 
	0.3507294404380114639 0.9999853410959298472 
	0.3010443297930627815 1 
	0.001000000000000000021 
	spline forward { ref 1 } I I I I 
	} 0 0 #
vertex $-1 $78 $111 #
intcurve-curve $-1 forward { exactcur full nurbs 1 open 2 
	0 1 1 1 
	0 0 0 1 
	0.001376595031109580178 20.00000000001375611 20.00000000001375611 1 
	0 
	null_surface 
	null_surface 
	nullbs 
	nullbs 
	I I 
	0 
	0 
	0 
	F 1 F 0 } I I #
coedge $-1 $46 $112 $93 $113 forward $83 $-1 #
loop $-1 $-1 $106 $102 #
vertex $-1 $47 $114 #
intcurve-curve $-1 forward { exactcur full nurbs 3 open 9 
	0 3 0.1308833708391912709 1 0.2595647424004057791 1 0.3862981926225652063 1 0.511372400857991849 1 
	0.6350114019873138727 1 0.757490986629341112 1 0.8790696277285381388 1 1 3 
	-128.7143758766698909 329.7882775437475402 20 1 
	-122.7488255442828518 310.5445886273885208 20 1 
	-111.4776035024153202 274.1238736027110576 20 1 
	-96.37574968085921512 225.2193096656019407 20 1 
	-83.0601032841426985 181.7337456205635817 20 0.999999999999999778 
	-71.13588626626490452 142.8389943755569789 19.99999999999999645 0.999999999999999889 
	-60.5673231321556429 107.9721338213007016 20 1.000000000000000222 
	-50.96427037126701975 76.31493524340272927 20.00000000000000355 0.9999999999999996669 
	-42.15068228025463526 47.23100564652278877 20 1.000000000000000222 
	-36.65749431073474796 28.86537357829284645 19.99999999999999645 1 
	-34.01773671505891627 19.99415829889032281 20 1 
	0 
	null_surface 
	null_surface 
	nullbs 
	nullbs 
	I I 
	0 
	0 
	7 0.1308833708391912709 0.2595647424004057791 0.3862981926225652063 0.511372400857991849 0.6350114019873138727 0.757490986629341112 0.8790696277285381388 
	F 1 F 0 } I I #
point $-1 -34.01773671505891627 19.99415829889032281 20 #
coedge $-1 $73 $75 $52 $88 forward $39 $-1 #
edge $-1 $98 0 $91 350 $52 $115 forward 7 unknown #
coedge $-1 $116 $53 $56 $95 forward $71 $-1 #
coedge $-1 $53 $116 $73 $105 reversed $71 $-1 #
vertex $-1 $88 $117 #
straight-curve $-1 25 350 0 -1 0 0 I I #
coedge $-1 $56 $55 $82 $113 reversed $57 $118 #
pcurve $-1 0 forward { exppc nubs 2 open 7 
	0 2 0.1666666666666666574 2 0.3333333333333333148 2 0.5 2 0.6666666666666666297 2 
	0.8333333333333333703 2 1 2 
	1 0 
	0.9865109956681610281 0.08656024783995576455 
	0.9731851678679555029 0.1715714588348704051 
	0.9597789455059400066 0.2570955414620844648 
	0.9465176510427254497 0.3411808745453469016 
	0.9331876359118376207 0.4257019418811264222 
	0.9199949817887846937 0.5088268643881647124 
	0.9067434710771447026 0.5923226333769605612 
	0.8936144421745595423 0.6745112786869050803 
	0.880443757705448915 0.7569606907759811598 
	0.8673737466437869692 0.8382360680855640567 
	0.8542784186912810718 0.9196688775386081538 
	0.8412717897193933148 1 
	0.001000000000000000021 
	spline forward { ref 10 } I I I I 
	} 0 0 #
edge $-1 $59 0 $119 1 $89 $120 forward 7 unknown #
pcurve $-1 0 forward { exppc nubs 2 open 7 
	-1 2 -0.8333333333333333703 2 -0.6666666666666667407 2 -0.5 2 -0.3333333333333333703 2 
	-0.1666666666666666297 2 -0 2 
	0 1 
	0 0.9166666666666670737 
	0 0.8333333333333342585 
	0 0.7500000000000003331 
	0 0.6666666666666664076 
	0 0.5833333333333332593 
	0 0.5 
	0 0.4166666666666669072 
	0 0.3333333333333339255 
	0 0.2500000000000001665 
	0 0.1666666666666663521 
	0 0.08333333333333313442 
	0 0 
	0.001000000000000000021 
	spline forward { ref 10 } I I I I 
	} 0 0 #
point $-1 8.52651282912120223e-14 350 0 #
vertex $-1 $62 $121 #
straight-curve $-1 0 0 0 1 0 -0 I I #
point $-1 0 0 0 #
intcurve-curve $-1 forward { exactcur full nurbs 3 open 4 
	0 3 0.335924070792183338 1 0.6692352828404162235 1 1 3 
	-155.7742371916150432 349.5818935685356905 0 1 
	-152.6379321835565293 347.2902680499057055 2.318588849699996235 1 
	-146.4608509317521339 342.7751989617317463 6.884797888968574142 1 
	-137.4429233938700179 336.1787738793692597 13.55013878441440589 1.000000000000000222 
	-131.593377307479102 331.8966621466229299 17.87273367055554374 1 
	-128.7143758766699193 329.7882775437475402 20.00000000000000355 1 
	0 
	null_surface 
	null_surface 
	nullbs 
	nullbs 
	I I 
	0 
	0 
	2 0.335924070792183338 0.6692352828404162235 
	F 1 F 0 } I I #
face $-1 $-1 $83 $2 $-1 $122 forward single #
spline-surface $-1 forward { ref 10 } I I I I #
coedge $-1 $75 $73 $123 $124 reversed $39 $-1 #
edge $-1 $91 -101.0362971081845274 $125 -66.39528095680697106 $73 $126 forward 7 unknown #
coedge $-1 $123 $77 $74 $107 forward $83 $-1 #
edge $-1 $80 0.001376595031108633019 $108 30 $106 $127 forward 7 unknown #
vertex $-1 $124 $128 #
straight-curve $-1 41.6666666666666643 8.333333333333332149 8.333333333333332149 -0.5773502691896257311 0.5773502691896257311 0.5773502691896258421 I I #
intcurve-curve $-1 forward { exactcur full nurbs 3 open 4 
	0 3 0.3299038625340432462 1 0.66319501241929113 1 1 3 
	-34.01773671505891627 19.99415829889032281 20 1 
	-30.45072174094944373 19.99676403153311099 20.00000000000000355 0.999999999999999889 
	-23.16468957084182989 20.0006670839870857 19.99999999999999645 1 
	-11.82988407062068603 20.00009143780755494 19.99999999999999645 1.000000000000000222 
	-3.996085020064948257 20.00021742317925444 20.00000000000000355 0.999999999999999889 
	0.001376595031108633019 20 20 1 
	0 
	null_surface 
	null_surface 
	nullbs 
	nullbs 
	I I 
	0 
	0 
	2 0.3299038625340432462 0.66319501241929113 
	F 1 F 0 } I I #
point $-1 0.001376595031108633019 20 20 #
coedge $-1 $82 $123 $116 $129 forward $83 $-1 #
edge $-1 $119 0 $84 1.000000000000000222 $82 $130 forward 7 unknown #
point $-1 -128.7143758766699193 329.7882775437475402 20 #
straight-curve $-1 50 0 0 0 1 0 I I #
coedge $-1 $90 $89 $112 $129 reversed $71 $-1 #
point $-1 50 350 0 #
pcurve $-1 0 forward { exppc nubs 2 open 27 
	-1.000000000000000222 2 -0.9166666666666669627 2 -0.8333333333333335924 2 -0.6666666666666668517 2 -0.5833333333333334814 2 
	-0.500000000000000111 2 -0.4166666666666667407 2 -0.375000000000000111 2 -0.3541666666666667407 2 -0.343750000000000111 2 
	-0.3385416666666667407 2 -0.335937500000000111 2 -0.3346354166666667407 2 -0.333984375000000111 2 -0.3336588541666667407 2 
	-0.3333333333333334259 2 -0.1666666666666666574 2 -0.1663411458333333148 2 -0.166015625 2 -0.1653645833333333148 2 
	-0.1640625 2 -0.1614583333333333148 2 -0.15625 2 -0.1458333333333333148 2 -0.125 2 
	-0.08333333333333332871 2 -0 2 
	0.8412717897193930927 1 
	0.811994449815478081 0.9999835617961285728 
	0.7787905482380631517 0.9999808763255277899 
	0.7516434915479989209 0.9999786807214130491 
	0.7148649579266926901 0.9999858134868226944 
	0.6501717981018950709 1.00000138661493998 
	0.5822794327578640905 1.000017729865239513 
	0.5446573391252806928 1.00002565335032334 
	0.5136509567854152802 1.000022032353064638 
	0.478573448813263691 1.000017935920315404 
	0.4436267821228397357 0.9999987911920033001 
	0.3729273565512633559 0.9999570835172024719 
	0.3723729408573716038 0.9999567564510448703 
	0.3524994336484366109 0.999947396096151353 
	0.3363468277593626432 0.9999464522128558297 
	0.3275493117617725991 0.9999459381268703817 
	0.3182454381760783102 0.9999478440395090928 
	0.3137977835255694736 0.9999487551483160486 
	0.3091730120094732803 0.9999502247421149237 
	0.3069264028847834558 0.9999509386374563213 
	0.3046312686171697703 0.9999517862989037997 
	0.3035014959774525733 0.9999522035575933998 
	0.3023590019728737421 0.9999526535720947296 
	0.3017924125137888547 0.9999528767447987132 
	0.3012225183472947987 0.9999531080424958196 
	0.300938360323395715 0.9999532242120017234 
	0.3006541887686763337 0.9999533403870394244 
	0.3005120970846872352 0.9999533991049658344 
	0.300370002013018722 0.9999534578242921246 
	0.300367840679906295 0.9999534587237723926 
	0.3000858006037392389 0.9999535761001565604 
	0.2273702482817133164 1.000000452947427343 
	0.1524859750282814563 1.000048727883506405 
	0.1521954756110537599 1.000048862288593687 
	0.1521932805652939924 1.00004886330417353 
	0.1520469266873144543 1.000048930738714592 
	0.1519005675354856977 1.000048998175685711 
	0.1516078371988366646 1.000049132214763548 
	0.151315085742408012 1.000049266263512093 
	0.1507295347008484887 1.000049530994446378 
	0.1501438989849090688 1.000049795763662264 
	0.1489672837311066533 1.000050323148883091 
	0.1478006309128463425 1.000050827626120853 
	0.1454363207178487327 1.000051849987413366 
	0.1431105014618595239 1.000052779295161232 
	0.1383410319001071032 1.000054684991402265 
	0.1337157479062150156 1.000056206161695993 
	0.1240353050389790129 1.000059389880186167 
	0.1148672772792257851 1.000060924517938155 
	0.09505520050816954059 1.000064240864904086 
	0.07692637783401901075 1.000059925167480213 
	0.0359497827917087398 1.000050170392501325 
	0 0.999999999999999889 
	0.001000000000000000021 
	spline forward { ref 10 } I I I I 
	} 0 0 #
vertex $-1 $113 $131 #
intcurve-curve $-1 forward { exactcur full nurbs 1 open 2 
	0 1 1 1 
	8.52651282912120223e-14 350 0 1 
	-0.006258114887968136038 330 20.00000000000000355 1 
	0 
	null_surface 
	null_surface 
	nullbs 
	nullbs 
	I I 
	0 
	0 
	0 
	F 1 F 0 } I I #
point $-1 50 0 0 #
plane-surface $-1 0 0 20 0 0 1 1 0 0 forward_v I I I I #
coedge $-1 $112 $106 $104 $124 forward $83 $-1 #
edge $-1 $108 19.99999999999999645 $125 330 $123 $132 forward 7 unknown #
vertex $-1 $129 $133 #
straight-curve $-1 -8.333333333333321491 291.6666666666666288 58.3333333333333286 -0.5773502691896257311 -0.5773502691896257311 0.5773502691896258421 I I #
straight-curve $-1 0 19.99999999999999645 20 1 0 -0 I I #
point $-1 30 19.99999999999999645 20 #
edge $-1 $125 -5 $119 25.00625811488796657 $112 $134 forward 7 unknown #
intcurve-curve $-1 forward { exactcur full nurbs 3 open 5 
	0 3 0.2520028935033994943 1 0.5026336841030394353 1 0.7519410223272700033 1 1.000000000000000222 3 
	-0.006258114887958265461 330 20 1 
	-11.27937793031209068 330.0026830019899649 20.00000000000000355 1 
	-33.52975891147222853 330.0032800379753439 19.99999999999999645 1 
	-66.11316581407167803 329.9991333577332284 20 1 
	-97.84048137792738942 329.9628231880057569 20 1.000000000000000222 
	-118.5123695578157594 329.856614460255571 20 1 
	-128.7143758766698909 329.7882775437475402 20 1 
	0 
	null_surface 
	null_surface 
	nullbs 
	nullbs 
	I I 
	0 
	0 
	3 0.2520028935033994943 0.5026336841030394353 0.7519410223272700033 
	F 1 F 0 } I I #
point $-1 -0.006258114887968136038 330 20.00000000000000355 #
straight-curve $-1 30 0 20 0 1 0 I I #
point $-1 30 330 20 #
straight-curve $-1 25 330 20 -1 0 0 I I #
End-of-ACIS-data 