600 0 1 0           
88 GICL Pro/E ACIS Translator - Source: f:/data5/repository/PTC/V18/compst18/core.prt - 6 0 13 ACIS 6.0.3 NT 24 Thu Apr 04 13:38:46 2002 
1 9.9999999999999995e-007 1e-010 
body $-1 $1 $-1 $-1 #
lump $-1 $-1 $2 $0 #
shell $-1 $-1 $-1 $3 $-1 $1 #
face $-1 $4 $5 $2 $-1 $6 reversed single #
face $-1 $7 $8 $2 $-1 $9 forward single #
loop $-1 $-1 $10 $3 #
plane-surface $-1 0 0 0 0 0 1 1 0 0 forward_v I I I I #
face $-1 $11 $12 $2 $-1 $13 forward single #
loop $-1 $-1 $14 $4 #
spline-surface $-1 forward { exactsur full nurbs 3 1 both open open none none 8 2 
	0 3 0.14285714285714285 2 0.2857142857142857 2 0.42857142857142855 2 0.5714285714285714 2 
	0.71428571428571419 2 0.8571428571428571 2 1 3 
	0 1 1 1 
	-155.77423719161482 349.58189356853563 0 1 
	-149.92540291955254 330.68388701004159 0 1 
	-144.16229183889092 312.0453595096663 0 1 
	-132.69960722206909 275.02379987575176 0 1 
	-127.00003368590886 256.64076774221263 0 1 
	-115.98815067298965 220.92058709017445 0 1 
	-110.67584119623065 203.58343857167546 0 1 
	-100.14478089225061 169.236439416895 0 1 
	-94.926030065029565 152.22658878061355 0 1 
	-84.851661604175789 119.1686978187642 0 1 
	-79.996043970543056 103.12065749319626 0 1 
	-70.530196449516907 71.906637173265509 0 1 
	-65.919966562123477 56.74065717890268 0 1 
	-57.124556810998932 27.532644664988641 0 1 
	-52.93937694726781 13.490612145437453 0 1 
	-48.936778382464013 -0.02976116064235157 0 1 
	-136.66836268959932 355.49506188283505 20 1 
	-130.81849744341787 336.59372417239518 20 1 
	-125.05770222152161 317.96268099288244 20 1 
	-113.59381975835446 280.93724689341394 20 1 
	-107.89073251708358 262.54285597345813 20 1 
	-96.872631130731619 226.80251691753418 20 1 
	-91.55761698565054 209.45656878156601 20 1 
	-81.020206565874801 175.08885226742606 20 1 
	-75.797810291180113 158.06708388925429 20 1 
	-65.717207413205145 124.98872504241533 20 1 
	-60.859000809924837 108.93213457374812 20 1 
	-51.388664974520857 77.70337803801894 20 1 
	-46.776535742397172 62.531211970956974 20 1 
	-37.966869138055714 33.275706920959195 20 1 
	-33.769331765837933 19.192367938023413 20 1 
	-29.759488397954822 5.6475224195607181 20 1 
	0 
	0 
	0 
	6 0.14285714285714285 0.2857142857142857 0.42857142857142855 0.5714285714285714 0.71428571428571419 0.8571428571428571 
	0 
	0 
	0 
	F 1 F 0 F 1 F 0 } I I I I #
coedge $-1 $15 $16 $17 $18 reversed $5 $-1 #
face $-1 $19 $20 $2 $-1 $21 forward single #
loop $-1 $-1 $22 $7 #
spline-surface $-1 forward { exactsur full nurbs 3 1 both open open none none 4 2 
	0 3 0.33333333333333331 2 0.66666666666666663 2 1 3 
	0 1 1 1 
	-48.936778382464041 -0.029761160642294726 0 1 
	-43.369700390576256 -0.017831674062099033 0 1 
	-37.847626370485806 -0.0088373071048541384 0 1 
	-26.989853661903574 -6.8349166762503646e-006 0 1 
	-21.654154973411792 -0.00017072968574325385 0 1 
	-10.880030764014901 0.00020728649104171382 0 1 
	-5.4416052431097848 0.00074919743689368578 0 1 
	0 0 0 1 
	-48.979635548138354 19.970192920888753 20 1 
	-43.405758866477676 19.982136976131095 20 1 
	-37.872263429704681 19.991148179240668 20 1 
	-26.997748023280057 19.999994450069039 20 1 
	-21.656728053628417 19.999829517787841 20 1 
	-10.878861106180299 20.000207014397535 20 1 
	-5.4420141283838168 20.000749443288431 20 1 
	0.0027535897821385261 19.999999810443583 20 1 
	0 
	0 
	0 
	2 0.33333333333333331 0.66666666666666663 
	0 
	0 
	0 
	F 1 F 0 F 1 F 0 } I I I I #
coedge $-1 $23 $17 $24 $25 forward $8 $26 #
coedge $-1 $27 $10 $28 $29 reversed $5 $-1 #
coedge $-1 $10 $30 $31 $32 reversed $5 $-1 #
coedge $-1 $14 $33 $10 $18 forward $8 $34 #
edge $-1 $35 0 $36 1 $10 $37 forward 7 unknown #
face $-1 $38 $39 $2 $-1 $40 forward single #
loop $-1 $-1 $41 $11 #
plane-surface $-1 0 0 0 0 -0.70710678118654757 0.70710678118654746 1 0 0 forward_v I I I I #
coedge $-1 $42 $31 $43 $44 forward $12 $45 #
coedge $-1 $33 $14 $46 $47 reversed $8 $48 #
coedge $-1 $31 $42 $14 $25 reversed $12 $49 #
edge $-1 $36 0 $50 1 $24 $51 forward 7 unknown #
pcurve $-1 0 forward { exppc nurbs 3 open 4 
	0 3 0.33339831984396562 1 0.66661308652825912 1 1 3 
	1 0 1 
	0.99437369050981339 0.11128511107788099 1 
	0.98318966163163923 0.33368457985429884 1 
	0.96664083073894658 0.66634210682233908 1.0000000000000002 
	0.95569746115547494 0.88872687257281657 1 
	0.95025175773259374 1 1 
	0.001 
	spline forward { ref 0 } I I I I 
	} 0 0 #
coedge $-1 $52 $15 $53 $54 reversed $5 $-1 #
coedge $-1 $55 $56 $15 $29 forward $57 $58 #
edge $-1 $59 0 $35 0.99999999999999989 $15 $60 forward 7 unknown #
coedge $-1 $16 $52 $61 $62 reversed $5 $-1 #
coedge $-1 $22 $24 $16 $32 forward $12 $63 #
edge $-1 $36 0 $64 1 $16 $65 forward 7 unknown #
coedge $-1 $17 $23 $55 $66 reversed $8 $67 #
pcurve $-1 0 forward { exppc nurbs 3 open 10 
	0 3 0.11310817525782971 1 0.22552335356436451 1 0.33744760986963929 1 0.4488164225109641 1 
	0.55966511772547656 1 0.67014255694739178 1 0.78029677435352918 1 0.89022030295847299 1 1 3 
	0 0 1 
	0.04472451148118909 0 0.99999999999999989 
	0.13196838608784195 0 1 
	0.25564135175588387 0 1 
	0.37517416847438051 0 1 
	0.48881355073533322 0 0.99999999999999978 
	0.59703606546272669 0 1.0000000000000002 
	0.70184434565777476 0 1 
	0.80324709782929871 0 0.99999999999999989 
	0.9023411208706037 0 1 
	0.96761894531186088 0 1 
	1 0 1 
	0.001 
	spline forward { ref 0 } I I I I 
	} 0 0 #
vertex $-1 $29 $68 #
vertex $-1 $32 $69 #
intcurve-curve $-1 forward { surfintcur full nurbs 3 open 10 
	0 3 0.11473705990708735 1 0.22843420809942086 1 0.34110474567045423 1 0.45283023522359722 1 
	0.56371005087341131 1 0.67378584316132495 1 0.78314783492956519 1 0.89186215969723337 1 1 3 
	-155.77423719161484 349.58189356853569 0 1 
	-150.30098672210491 331.89114383145079 0 1 
	-139.73943850018537 297.73833919460759 0 1 
	-124.90104556132277 249.88802136294052 0 1 
	-111.30022980406073 205.63598787693954 0 1 
	-98.748229931469453 164.69626464193254 0 0.99999999999999978 
	-87.114501023254633 126.64610153364112 0 1 
	-76.460120845197082 91.438500153265025 0 0.99999999999999989 
	-66.512891283062132 58.701358366610251 0 1.0000000000000002 
	-57.332018826685129 28.241843019394089 0 0.99999999999999978 
	-51.657006987444078 9.170947483235949 0 1.0000000000000002 
	-48.936778382464027 -0.029761160642294702 0 1 
	0.001 
	plane 0 0 0 0 0 1 1 0 0 forward_v I I I I 
	spline forward { ref 0 } I I I I 
	nullbs 
	nurbs 3 open 10 
	0 3 0.11310817525782971 1 0.22552335356436451 1 0.33744760986963929 1 0.4488164225109641 1 
	0.55966511772547656 1 0.67014255694739178 1 0.78029677435352918 1 0.89022030295847299 1 1 3 
	0 0 1 
	0.04472451148118909 0 0.99999999999999989 
	0.13196838608784195 0 1 
	0.25564135175588387 0 1 
	0.37517416847438051 0 1 
	0.48881355073533322 0 0.99999999999999978 
	0.59703606546272669 0 1.0000000000000002 
	0.70184434565777476 0 1 
	0.80324709782929871 0 0.99999999999999989 
	0.9023411208706037 0 1 
	0.96761894531186088 0 1 
	1 0 1 
	
	I I 
	0 
	0 
	6 0.12530604651294977 0.25696026404323508 0.39359252879258266 0.53764474130532369 0.68749555452159683 0.84235600340432826 
	} I I #
face $-1 $70 $71 $2 $-1 $72 forward single #
loop $-1 $-1 $73 $19 #
plane-surface $-1 50 0 0 0.70710678118654757 0 0.70710678118654746 0 1 0 forward_v I I I I #
coedge $-1 $74 $61 $75 $76 forward $20 $-1 #
coedge $-1 $24 $22 $77 $78 reversed $12 $79 #
coedge $-1 $61 $74 $22 $44 reversed $20 $-1 #
edge $-1 $64 0 $80 28.284271280961338 $22 $81 forward 7 unknown #
pcurve $-1 0 forward { exppc nurbs 3 open 2 
	0 3 28.284271280961338 3 
	1 0 1 
	0.99999063324378756 0.33333333333333331 1 
	0.99998126648757513 0.66666666666666663 1 
	0.99997189973136291 1 1 
	0.001 
	spline forward { ref 1 } I I I I 
	} 0 0 #
coedge $-1 $77 $82 $23 $47 forward $83 $-1 #
edge $-1 $84 0 $50 1 $46 $85 forward 7 unknown #
pcurve $-1 0 forward { exppc nurbs 3 open 9 
	-1 3 -0.87739798083247211 1 -0.75461161530999621 1 -0.6313414917348612 1 -0.5073607122046826 1 
	-0.38245742212962319 1 -0.25629467026460606 1 -0.1288857822098578 1 0 3 
	0.95025175773259374 1 1 
	0.91996129906209745 1 1 
	0.8587762474706071 1 1.0000000000000002 
	0.76621857810849114 1 1 
	0.66952597483269394 1 0.99999999999999989 
	0.56709463857520359 1 1 
	0.45772422056256262 1 0.99999999999999989 
	0.33747776778078697 1 1 
	0.20802464679957153 1 1.0000000000000002 
	0.11406979167743649 1 0.99999999999999989 
	0.065152940297282094 1 1 
	0.001 
	spline forward { ref 0 } I I I I 
	} 0 0 #
pcurve $-1 0 forward { exppc nurbs 3 open 4 
	-1 3 -0.66656891271813823 1 -0.33335811335522747 1 0 3 
	0.30104432979306273 1 1 
	0.26723552108124099 0.88873488429269243 1.0000000000000002 
	0.19987693866567924 0.66636694589563117 0.99999999999999978 
	0.099837548829703165 0.33370188725894001 1 
	0.033237706872025534 0.11129114062548841 1 
	0 0 1 
	0.001 
	spline forward { ref 1 } I I I I 
	} 0 0 #
vertex $-1 $78 $86 #
intcurve-curve $-1 forward { surfintcur full nurbs 3 open 4 
	0 3 0.33341238433312825 1 0.66662764469684821 1 1 3 
	-48.936778382464013 -0.02976116064235157 0 1 
	-47.275582171437335 2.1994906975920014 2.2256570581777626 1 
	-43.956378073866318 6.6539568460321492 6.6735580146346845 0.99999999999999978 
	-38.993455972760799 13.315230546396647 13.326689787945854 1.0000000000000002 
	-35.676897863958622 17.766998061057208 17.77448735913887 0.99999999999999989 
	-34.017736715058909 19.994158298890319 20 1 
	0.001 
	spline forward { ref 0 } I I I I 
	spline forward { ref 1 } I I I I 
	nurbs 3 open 4 
	0 3 0.33339831984396562 1 0.66661308652825912 1 1 3 
	1 0 1 
	0.99437369050981339 0.11128511107788099 1 
	0.98318966163163923 0.33368457985429884 1 
	0.96664083073894658 0.66634210682233908 1.0000000000000002 
	0.95569746115547494 0.88872687257281657 1 
	0.95025175773259374 1 1 
	
	nurbs 3 open 4 
	0 3 0.33335811335522747 1 0.66656891271813823 1 1 3 
	0 0 1 
	0.033237706872025534 0.11129114062548841 1 
	0.099837548829703165 0.33370188725894001 1 
	0.19987693866567924 0.66636694589563117 0.99999999999999978 
	0.26723552108124099 0.88873488429269243 1.0000000000000002 
	0.30104432979306273 1 1 
	
	I I 
	0 
	0 
	0 
	} I I #
coedge $-1 $30 $27 $87 $88 reversed $5 $-1 #
coedge $-1 $89 $90 $27 $54 forward $71 $-1 #
edge $-1 $91 0 $59 49.999999999999915 $27 $92 forward 7 unknown #
coedge $-1 $93 $28 $33 $66 forward $57 $94 #
tcoedge-coedge $-1 $28 $93 $89 $95 reversed $57 $96 -28.284271939790184 0 #
loop $-1 $-1 $55 $70 #
pcurve $-1 0 forward { exppc nurbs 3 open 6 
	0 3 0.20238864007226559 1 0.40380143431778842 1 0.60411280256734512 1 0.80279698313649084 1 
	0.99999999999999989 3 
	0 0 1 
	0.072253398949881739 0 1 
	0.21480253774588806 0 1.0000000000000002 
	0.42321037436960085 0 1 
	0.62569227352223244 0 1 
	0.81748097553341592 0 1 
	0.94016512849628309 0 1.0000000000000002 
	1 0 1 
	0.001 
	spline forward { exactsur full nurbs 3 1 both open open none none 4 2 
	0 3 0.33333333333333331 2 0.66666666666666663 2 1 3 
	0 1 1 1 
	8.5265128291212022e-014 350 0 1 
	-16.00875351752827 350.01001608074381 0 1 
	-32.443217925647531 350.00203691954948 0 1 
	-65.761045547256487 349.9948473649398 0 1 
	-82.644408760746202 349.99563697152456 0 1 
	-118.06760292053012 349.87170719750674 0 1 
	-136.60743386682429 349.74698781690415 0 1 
	-155.77423719161504 349.58189356853569 0 1 
	-0.01251325254320176 330.00000391453761 20 1 
	-16.006057105649177 330.010010479161 20 1 
	-32.447267171244945 330.00203871099598 20 1 
	-65.748364821210956 329.99484650477405 20 1 
	-82.608252405581212 329.99562606671719 20 1 
	-117.96381817944588 329.87196289694344 20 1 
	-136.45949636894034 329.7475201652266 20 1 
	-155.60197255105851 329.58263545995544 20 1 
	0 
	0 
	0 
	2 0.33333333333333331 0.66666666666666663 
	0 
	0 
	0 
	F 1 F 0 F 1 F 0 } I I I I 
	} 0 0 #
tvertex-vertex $-1 $54 $97 8.5265128291212022e-014 #
intcurve-curve $-1 forward { surfintcur full nurbs 3 open 6 
	0 3 0.20021408878679706 1 0.4002858757318899 1 0.60025209266987645 1 0.80016108544606668 1 
	0.99999999999999989 3 
	8.5265128291212022e-014 350 0 1 
	-10.470202193051428 350.00276899501364 0 1 
	-31.367385527043499 350.00446293182961 0 0.99999999999999978 
	-62.586297230324405 349.99793280537051 0 1.0000000000000002 
	-93.702915653844741 349.97500702581806 0 1.0000000000000002 
	-124.77733409670063 349.82753285132384 0 1 
	-145.44887394870281 349.67445787123199 0 0.99999999999999978 
	-155.77423719161484 349.58189356853569 0 1 
	0.001 
	plane 0 0 0 0 0 1 1 0 0 forward_v I I I I 
	spline forward { ref 10 } I I I I 
	nullbs 
	nurbs 3 open 6 
	0 3 0.20238864007226559 1 0.40380143431778842 1 0.60411280256734512 1 0.80279698313649084 1 
	0.99999999999999989 3 
	0 0 1 
	0.072253398949881739 0 1 
	0.21480253774588806 0 1.0000000000000002 
	0.42321037436960085 0 1 
	0.62569227352223244 0 1 
	0.81748097553341592 0 1 
	0.94016512849628309 0 1.0000000000000002 
	1 0 1 
	
	I I 
	0 
	0 
	2 0.31385685294566062 0.64304930495719903 
	} I I #
coedge $-1 $41 $43 $30 $62 forward $20 $-1 #
edge $-1 $64 0 $98 50 $30 $99 forward 7 unknown #
pcurve $-1 0 forward { exppc nurbs 3 open 4 
	0 3 0.33065776560186011 1 0.66311674197469561 1 1 3 
	0 0 1 
	0.10664316624910204 0 1 
	0.32281825384836654 0 1 
	0.65124280416819558 0 1.0000000000000002 
	0.88192303680390549 0 0.99999999999999989 
	1 0 1 
	0.001 
	spline forward { ref 1 } I I I I 
	} 0 0 #
vertex $-1 $32 $100 #
intcurve-curve $-1 forward { surfintcur full nurbs 3 open 4 
	0 3 0.33171181468658262 1 0.66338176551434547 1 1 3 
	-48.936778382464027 -0.029761160642294702 0 1 
	-43.604138925716605 -0.018120719128932539 0 0.99999999999999989 
	-32.893660923711515 -0.00050908446985698614 0 1.0000000000000002 
	-17.043533506294125 -0.00020774421455913136 0 0.99999999999999978 
	-5.7743437068887893 0.00082550719534198809 0 0.99999999999999989 
	0 0 0 1 
	0.001 
	plane 0 0 0 0 0 1 1 0 0 forward_v I I I I 
	spline forward { ref 1 } I I I I 
	nullbs 
	nurbs 3 open 4 
	0 3 0.33065776560186011 1 0.66311674197469561 1 1 3 
	0 0 1 
	0.10664316624910204 0 1 
	0.32281825384836654 0 1 
	0.65124280416819558 0 1.0000000000000002 
	0.88192303680390549 0 0.99999999999999989 
	1 0 1 
	
	I I 
	0 
	0 
	2 0.34261652198607551 0.67739161449135188 
	} I I #
edge $-1 $35 0 $84 1 $55 $101 forward 7 unknown #
pcurve $-1 0 forward { exppc nurbs 3 open 4 
	-1 3 -0.66926080821245282 1 -0.33594885646783323 1 0 3 
	0.065152940297282094 1 1 
	0.058175805969574126 0.89363227347637464 1.0000000000000002 
	0.044030570064116668 0.67749384823462444 1.0000000000000002 
	0.022310631028183526 0.34422785265787792 0.99999999999999967 
	0.0075025644930856615 0.11592546813949013 1.0000000000000002 
	0 0 1 
	0.001 
	spline forward { ref 0 } I I I I 
	} 0 0 #
point $-1 -155.77423719161484 349.58189356853569 0 #
point $-1 -48.936778382464027 -0.029761160642294702 0 #
face $-1 $102 $57 $2 $-1 $103 forward single #
loop $-1 $-1 $89 $38 #
plane-surface $-1 50 350 0 0 0.70710678118654757 0.70710678118654746 -1 0 0 forward_v I I I I #
coedge $-1 $104 $87 $90 $105 forward $39 $-1 #
coedge $-1 $43 $41 $106 $107 reversed $20 $-1 #
coedge $-1 $87 $104 $41 $76 reversed $39 $-1 #
edge $-1 $98 0 $108 34.641016151377542 $41 $109 forward 7 unknown #
coedge $-1 $106 $46 $42 $78 forward $83 $-1 #
edge $-1 $50 0 $80 1 $77 $110 forward 7 unknown #
pcurve $-1 0 forward { exppc nurbs 3 open 4 
	-1 3 -0.66357651800268824 1 -0.32995221887623238 1 0 3 
	0.99997189973136291 1 1 
	0.91845211780874825 1 0.99999999999999989 
	0.75818228875980642 1 1.0000000000000002 
	0.52398805829067996 1 0.99999999999999978 
	0.37427703170849785 1 1 
	0.30104432979306273 1 1 
	0.001 
	spline forward { ref 1 } I I I I 
	} 0 0 #
vertex $-1 $78 $111 #
straight-curve $-1 0 0 0 4.8669984014587096e-005 0.70710678034906171 0.70710678034906183 I I #
coedge $-1 $46 $112 $93 $113 forward $83 $-1 #
loop $-1 $-1 $106 $102 #
vertex $-1 $47 $114 #
intcurve-curve $-1 forward { surfintcur full nurbs 3 open 9 
	0 3 0.13088337083919127 1 0.25956474240040578 1 0.38629819262256521 1 0.51137240085799185 1 
	0.63501140198731387 1 0.75749098662934111 1 0.87906962772853814 1 1 3 
	-128.71437587666989 329.78827754374754 20 1 
	-122.74882554428285 310.54458862738852 20 1 
	-111.47760350241532 274.12387360271106 20 1 
	-96.375749680859215 225.21930966560194 20 1 
	-83.060103284142698 181.73374562056358 20 0.99999999999999978 
	-71.135886266264905 142.83899437555698 19.999999999999996 0.99999999999999989 
	-60.567323132155643 107.9721338213007 20 1.0000000000000002 
	-50.96427037126702 76.314935243402729 20.000000000000004 0.99999999999999967 
	-42.150682280254635 47.231005646522789 20 1.0000000000000002 
	-36.657494310734748 28.865373578292846 19.999999999999996 1 
	-34.017736715058916 19.994158298890323 20 1 
	0.001 
	plane 0 0 20 0 0 1 1 0 0 forward_v I I I I 
	spline forward { ref 0 } I I I I 
	nullbs 
	nurbs 3 open 9 
	0 3 0.1288857822098578 1 0.25629467026460606 1 0.38245742212962319 1 0.5073607122046826 1 
	0.6313414917348612 1 0.75461161530999621 1 0.87739798083247211 1 1 3 
	0.065152940297282094 1 1 
	0.11406979167743649 1 0.99999999999999989 
	0.20802464679957153 1 1.0000000000000002 
	0.33747776778078697 1 1 
	0.45772422056256262 1 0.99999999999999989 
	0.56709463857520359 1 1 
	0.66952597483269394 1 0.99999999999999989 
	0.76621857810849114 1 1 
	0.8587762474706071 1 1.0000000000000002 
	0.91996129906209745 1 1 
	0.95025175773259374 1 1 
	
	I I 
	0 
	0 
	6 0.070519796733609266 0.20830215646497116 0.35591031800472656 0.51736284525547371 0.69179697621257341 0.87699777496960996 
	} I I #
point $-1 -34.017736715058916 19.994158298890323 20 #
coedge $-1 $73 $75 $52 $88 forward $39 $-1 #
edge $-1 $98 0 $91 350 $52 $115 forward 7 unknown #
tcoedge-coedge $-1 $116 $53 $56 $95 forward $71 $117 -1.886557200125934e-017 28.284271939790184 #
coedge $-1 $53 $116 $73 $105 reversed $71 $-1 #
vertex $-1 $88 $118 #
straight-curve $-1 50 350 0 -1 0 0 I I #
coedge $-1 $56 $55 $82 $113 reversed $57 $119 #
pcurve $-1 0 forward { exppc nurbs 3 open 4 
	0 3 0.33592437051196011 1 0.66923613408629301 1 1 3 
	1 0 1 
	0.98193673849838148 0.11592948482708212 0.99999999999999989 
	0.94614470816463969 0.34424013293890821 1 
	0.89325163207454528 0.67750613816955996 0.99999999999999978 
	0.8584922422025052 0.89363644864271297 1 
	0.84127178971939331 1 1 
	0.001 
	spline forward { ref 10 } I I I I 
	} 0 0 #
tedge-edge $-1 $59 -1.886557200125934e-017 $120 28.284271939790184 $89 $121 forward 7 unknown 1.4929919738387313e-006 #
pcurve $-1 0 forward { exppc nurbs 3 open 2 
	-28.284271939790184 3 0 3 
	-4.345614940855472e-005 1 1 
	-2.8970766272369811e-005 0.66666666666666663 1 
	-1.4485383136184906e-005 0.33333333333333331 1 
	0 0 1 
	0.001 
	spline forward { ref 10 } I I I I 
	} 0 0 #
point $-1 8.5265128291212022e-014 350 0 #
vertex $-1 $62 $122 #
straight-curve $-1 0 0 0 1 0 0 I I #
point $-1 0 0 0 #
intcurve-curve $-1 forward { surfintcur full nurbs 3 open 4 
	0 3 0.33592407079218334 1 0.66923528284041622 1 1 3 
	-155.77423719161504 349.58189356853569 0 1 
	-152.63793218355653 347.29026804990571 2.3185888496999962 1 
	-146.46085093175213 342.77519896173175 6.8847978889685741 1 
	-137.44292339387002 336.17877387936926 13.550138784414406 1.0000000000000002 
	-131.5933773074791 331.89666214662293 17.872733670555544 1 
	-128.71437587666992 329.78827754374754 20.000000000000004 1 
	0.001 
	spline forward { ref 10 } I I I I 
	spline forward { ref 0 } I I I I 
	nurbs 3 open 4 
	0 3 0.33592437051196011 1 0.66923613408629301 1 1 3 
	1 0 1 
	0.98193673849838148 0.11592948482708212 0.99999999999999989 
	0.94614470816463969 0.34424013293890821 1 
	0.89325163207454528 0.67750613816955996 0.99999999999999978 
	0.8584922422025052 0.89363644864271297 1 
	0.84127178971939331 1 1 
	
	nurbs 3 open 4 
	0 3 0.33594885646783323 1 0.66926080821245282 1 1 3 
	0 0 1 
	0.0075025644930856615 0.11592546813949013 1.0000000000000002 
	0.022310631028183526 0.34422785265787792 0.99999999999999967 
	0.044030570064116668 0.67749384823462444 1.0000000000000002 
	0.058175805969574126 0.89363227347637464 1.0000000000000002 
	0.065152940297282094 1 1 
	
	I I 
	0 
	0 
	0 
	} I I #
face $-1 $-1 $83 $2 $-1 $123 forward single #
spline-surface $-1 forward { ref 10 } I I I I #
coedge $-1 $75 $73 $124 $125 reversed $39 $-1 #
edge $-1 $91 0 $126 34.641016151377549 $73 $127 forward 7 unknown #
coedge $-1 $124 $77 $74 $107 forward $83 $-1 #
edge $-1 $80 0 $108 29.998623404968896 $106 $128 forward 7 unknown #
vertex $-1 $125 $129 #
straight-curve $-1 50 0 0 -0.57735026918962562 0.57735026918962573 0.57735026918962584 I I #
intcurve-curve $-1 forward { surfintcur full nurbs 3 open 4 
	0 3 0.32990386253404325 1 0.66319501241929113 1 1 3 
	-34.017736715058916 19.994158298890323 20 1 
	-30.450721740949444 19.996764031533111 20.000000000000004 0.99999999999999989 
	-23.16468957084183 20.000667083987086 19.999999999999996 1 
	-11.829884070620686 20.000091437807555 19.999999999999996 1.0000000000000002 
	-3.9960850200649483 20.000217423179254 20.000000000000004 0.99999999999999989 
	0.001376595031108633 20 20 1 
	0.001 
	plane 0 0 20 0 0 1 1 0 0 forward_v I I I I 
	spline forward { ref 1 } I I I I 
	nullbs 
	nurbs 3 open 4 
	0 3 0.32995221887623238 1 0.66357651800268824 1 1 3 
	0.30104432979306273 1 1 
	0.37427703170849785 1 1 
	0.52398805829067996 1 0.99999999999999978 
	0.75818228875980642 1 1.0000000000000002 
	0.91845211780874825 1 0.99999999999999989 
	0.99997189973136291 1 1 
	
	I I 
	0 
	0 
	2 0.048678666353412933 0.53336045257491227 
	} I I #
point $-1 0.001376595031108633 20 20 #
coedge $-1 $82 $124 $116 $130 forward $83 $-1 #
edge $-1 $120 0 $84 1.0000000000000002 $82 $131 forward 7 unknown #
point $-1 -128.71437587666992 329.78827754374754 20 #
straight-curve $-1 50 0 0 0 1 0 I I #
coedge $-1 $90 $89 $112 $130 reversed $71 $-1 #
pcurve $-1 0 forward { exppc nubs 1 open 2 
	-1.886557200125934e-017 1 28.284271939790187 1 
	50 0 
	50.006258114887963 28.284271247461902 
	0 
	plane 50 350 0 0 0.70710678118654757 0.70710678118654746 -1 0 0 forward_v I I I I 
	} 0 0 #
point $-1 50 350 0 #
pcurve $-1 0 forward { exppc nurbs 3 open 5 
	-1.0000000000000002 3 -0.7547499013601584 1 -0.50600142735714138 1 -0.25435371891845293 1 0 3 
	0.84127178971939331 1 1 
	0.77978052439417289 1 1 
	0.65211798329185477 1 1 
	0.44657301863633525 1 1 
	0.22928606694454517 1 1.0000000000000002 
	0.077686762225313968 1 0.99999999999999978 
	-4.345614940855472e-005 1 1 
	0.001 
	spline forward { ref 10 } I I I I 
	} 0 0 #
tvertex-vertex $-1 $113 $132 1.0490474558940567e-014 #
straight-curve $-1 0 350 0 -0.00022125776832031979 -0.70710676387834093 0.70710676387834104 F -1.886557200125934e-017 F 28.284271939790184 #
point $-1 50 0 0 #
plane-surface $-1 0 0 20 0 0 1 1 0 0 forward_v I I I I #
coedge $-1 $112 $106 $104 $125 forward $83 $-1 #
edge $-1 $108 0 $126 310 $124 $133 forward 7 unknown #
vertex $-1 $130 $134 #
straight-curve $-1 50 350 0 -0.57735026918962573 -0.57735026918962573 0.57735026918962584 I I #
straight-curve $-1 0.001376595031108633 20 20.000000000000004 1 0 0 I I #
point $-1 30.000000000000004 20 20 #
edge $-1 $126 0 $120 30.006258114887967 $112 $135 forward 7 unknown #
intcurve-curve $-1 forward { surfintcur full nurbs 3 open 5 
	0 3 0.25200289350339949 1 0.50263368410303944 1 0.75194102232727 1 1.0000000000000002 3 
	-0.0062581148879582655 330 20 1 
	-11.279377930312091 330.00268300198996 20.000000000000004 1 
	-33.529758911472229 330.00328003797534 19.999999999999996 1 
	-66.113165814071678 329.99913335773323 20 1 
	-97.840481377927389 329.96282318800576 20 1.0000000000000002 
	-118.51236955781576 329.85661446025557 20 1 
	-128.71437587666989 329.78827754374754 20 1 
	0.001 
	plane 0 0 20 0 0 1 1 0 0 forward_v I I I I 
	spline forward { ref 10 } I I I I 
	nullbs 
	nurbs 3 open 5 
	0 3 0.25435371891845293 1 0.50600142735714138 1 0.7547499013601584 1 1.0000000000000002 3 
	-4.345614940855472e-005 1 1 
	0.077686762225313968 1 0.99999999999999978 
	0.22928606694454517 1 1.0000000000000002 
	0.44657301863633525 1 1 
	0.65211798329185477 1 1 
	0.77978052439417289 1 1 
	0.84127178971939331 1 1 
	
	I I 
	0 
	0 
	2 0.37152712255630393 0.77179817508775084 
	} I I #
point $-1 -0.006258114887968136 330 20.000000000000004 #
straight-curve $-1 30 20 20.000000000000004 0 1 0 I I #
point $-1 30 330 20 #
straight-curve $-1 30 330 20.000000000000004 -1 0 0 I I #
End-of-ACIS-data 