600 0 1 0           
87 GICL Pro/E ACIS Translator - Source: f:/data5/repository/PTC/V18/compst18/ply.prt - 6 0 13 ACIS 6.0.3 NT 24 Thu Apr 04 10:01:59 2002 
1 9.9999999999999995e-007 1e-010 
body $-1 $1 $-1 $2 #
lump $-1 $-1 $3 $0 #
transform $-1 1 0 0 0 1 0 0 0 1 0 0 0 25.399999999999999 no_rotate no_reflect no_shear #
shell $-1 $-1 $-1 $4 $-1 $1 #
face $-1 $5 $6 $3 $-1 $7 reversed single #
face $-1 $8 $9 $3 $-1 $10 reversed single #
loop $-1 $-1 $11 $4 #
spline-surface $-1 forward { exactsur full nurbs 3 1 both open open none none 3 2 
	0.24665193488235057 3 0.5 1 0.75334806511764951 3 
	0 1 1 1 
	300 0 500.00000000000006 1.0406073902761501 
	339.76430931565147 -5.2579006437099667e-015 499.99999999999994 1.0135357967587169 
	419.37809548690069 15.823291714848303 500 0.98646420324128348 
	486.40783633532925 61.602603101183441 499.99999999999994 1.0135357967587169 
	514.24285285628548 89.999999999999943 500.00000000000006 1.0406073902761501 
	300 0 0 1.0406073902761501 
	313.25476977188384 8.7631677395166115e-016 0 1.0135357967587169 
	339.79269849563354 5.2744305716161071 0 0.98646420324128348 
	362.13594544510977 20.534201033727822 0 1.0135357967587169 
	371.41428428542849 29.999999999999986 0 1.0406073902761501 
	0 
	0 
	0 
	0 
	0 
	0 
	0 
	F 1 F 0 F 1 F 0 } I I I I #
face $-1 $12 $13 $3 $-1 $14 forward single #
loop $-1 $-1 $15 $5 #
plane-surface $-1 150 0 250 0 1 0 1 0 0 forward_v I I I I #
coedge $-1 $16 $17 $18 $19 forward $6 $20 #
face $-1 $21 $22 $3 $-1 $23 forward single #
loop $-1 $-1 $24 $8 #
cone-surface $-1 0 100 500 0 0 -1 -100 0 0 1 I I 0 1 100 forward I I I I #
coedge $-1 $25 $26 $27 $28 forward $9 $-1 #
coedge $-1 $29 $11 $30 $31 forward $6 $32 #
coedge $-1 $11 $29 $33 $34 reversed $6 $35 #
coedge $-1 $36 $25 $11 $19 reversed $9 $-1 #
edge $-1 $37 -5.6843418860808015e-014 $38 500 $11 $39 forward 7 unknown #
pcurve $-1 0 forward { exppc nurbs 3 open 2 
	-5.6843418860808015e-014 3 500 3 
	0.24665193488235057 0 1 
	0.24665193488235057 0.33333333333333331 1 
	0.24665193488235057 0.66666666666666663 1 
	0.24665193488235057 1 1 
	0.001 
	spline forward { ref 0 } I I I I 
	} 0 0 #
face $-1 $40 $41 $3 $-1 $42 reversed single #
loop $-1 $-1 $43 $12 #
plane-surface $-1 -25.234856897495789 5.8222319368158395 0 0 0 -1 0.86602540378443849 -0.5 0 forward_v I I I I #
coedge $-1 $27 $44 $45 $46 forward $13 $-1 #
coedge $-1 $18 $15 $47 $48 forward $9 $-1 #
coedge $-1 $15 $36 $49 $50 forward $9 $-1 #
coedge $-1 $44 $24 $15 $28 reversed $13 $-1 #
edge $-1 $51 0 $52 47.493723973484379 $15 $53 forward 7 unknown #
coedge $-1 $17 $16 $54 $55 reversed $6 $56 #
coedge $-1 $57 $58 $16 $31 reversed $59 $60 #
edge $-1 $38 0 $61 0.7953988301841457 $16 $62 forward 7 unknown #
pcurve $-1 0 forward { exppc nurbs 3 open 5 
	0 3 0.19924545085619849 1 0.39769941509207279 1 0.59615337932794721 1 0.7953988301841457 3 
	0.24665193488235057 1 1 
	0.28963425887962008 1 1 
	0.37485061669243841 1 0.99999999999999989 
	0.49999999999999989 1 1.0000000000000002 
	0.62514938330756165 1 0.99999999999999978 
	0.71036574112037987 1 1 
	0.75334806511764951 1 1 
	0.001 
	spline forward { ref 0 } I I I I 
	} 0 0 #
coedge $-1 $63 $64 $17 $34 forward $65 $66 #
edge $-1 $37 -7.1803872617450421e-032 $67 0.79539883018414403 $17 $68 forward 7 unknown #
pcurve $-1 0 forward { exppc nurbs 3 open 7 
	-0.79539883018414403 3 -0.66255230952898958 1 -0.5300430312188914 1 -0.39769941509207213 1 -0.26535579896525285 1 
	-0.13284652065515457 1 0 3 
	0.75334806511764951 0 1 
	0.7245668110273209 0 0.99999999999999989 
	0.66747359114404148 0 1 
	0.58339388976894491 0 1.0000000000000002 
	0.5 0 1 
	0.41660611023105509 0 0.99999999999999978 
	0.33252640885595858 0 1.0000000000000002 
	0.27543318897267932 0 1 
	0.24665193488235057 0 1 
	0.001 
	spline forward { ref 0 } I I I I 
	} 0 0 #
coedge $-1 $26 $18 $69 $70 reversed $9 $-1 #
tvertex-vertex $-1 $34 $71 5.6843418860808015e-014 #
tvertex-vertex $-1 $31 $72 0 #
straight-curve $-1 300 0 500 0 0 -1 I I #
face $-1 $73 $74 $3 $-1 $75 reversed single #
loop $-1 $-1 $76 $21 #
spline-surface $-1 forward { exactsur full nurbs 3 1 both open open none none 5 2 
	0 3 0.25 2 0.5 2 0.75 2 1 3 
	0 1 1 1 
	0 0 47.493723973484407 1 
	-4.1418996562514021 0 43.033340264429036 1 
	-8.3332900294455516 0.25854615983771712 38.693760270240439 1 
	-16.727573061725046 1.3177830215686619 30.251285799313784 1 
	-20.930465720810396 2.1184737234618898 26.148391322575733 1 
	-29.329753228465663 4.2997337670904727 18.19405362339937 1 
	-33.526148077035572 5.6803031088258278 14.34261040096106 1 
	-41.846366413788729 9.0658600636188833 6.9461001400071076 1 
	-45.970189901971949 11.070847676676584 3.4010331014914641 1 
	-50 13.397459621556152 0 1 
	0 5 47.493723973484407 1 
	-3.934804673438832 5 43.033340264429036 1 
	-7.9166255279732738 5.2456188518458342 38.693760270240439 1 
	-15.891194408638796 6.2518938704902345 30.251285799313784 1 
	-19.883942434769878 7.0125500372888023 26.148391322575733 1 
	-27.863265567042376 9.0847470787359459 18.19405362339937 1 
	-31.849840673183788 10.396287953384524 14.34261040096106 1 
	-39.754048093099286 13.612567060437931 6.9461001400071076 1 
	-43.67168040687335 15.51730529284276 3.4010331014914641 1 
	-47.5 17.72758664047835 0 1 
	0 
	0 
	0 
	3 0.25 0.5 0.75 
	0 
	0 
	0 
	F 1 F 0 F 1 F 0 } I I I I #
coedge $-1 $77 $45 $78 $79 forward $22 $-1 #
tcoedge-coedge $-1 $24 $27 $80 $81 forward $13 $82 0 1 #
coedge $-1 $43 $83 $24 $46 reversed $22 $-1 #
edge $-1 $84 9.0949470177292951e-017 $52 0.52359877559829948 $24 $85 forward 7 unknown #
coedge $-1 $86 $87 $25 $48 reversed $88 $-1 #
edge $-1 $52 0 $38 300 $25 $89 forward 7 unknown #
coedge $-1 $90 $91 $26 $50 reversed $74 $92 #
edge $-1 $93 0 $51 1 $26 $94 forward 7 unknown #
tvertex-vertex $-1 $50 $95 3.6536839633999787e-014 #
vertex $-1 $48 $96 #
straight-curve $-1 0 0 47.493723973484379 0 0 -1 I I #
coedge $-1 $97 $98 $29 $55 forward $99 $-1 #
edge $-1 $67 1.6289065454363151e-015 $61 523.4500931320963 $29 $100 forward 7 unknown #
pcurve $-1 0 forward { exppc nurbs 3 open 2 
	-523.4500931320963 3 0 3 
	0.75334806511764951 1 1 
	0.7533480651176494 0.66666666666666663 1 
	0.7533480651176494 0.33333333333333331 1 
	0.75334806511764951 0 1 
	0.001 
	spline forward { ref 0 } I I I I 
	} 0 0 #
tcoedge-coedge $-1 $101 $30 $87 $102 forward $59 $103 0 6.8118272695551818 #
tcoedge-coedge $-1 $30 $101 $97 $104 reversed $59 $105 -9.7692362397736829 -2.5683933132231737e-015 #
loop $-1 $-1 $57 $106 #
pcurve $-1 0 forward { exppc nurbs 3 open 5 
	-0.7953988301841457 3 -0.59615337932794721 1 -0.39769941509207285 1 -0.19924545085619849 1 0 3 
	0.75334806511764929 0 1 
	0.71036574112037987 0 1 
	0.62514938330756165 0 0.99999999999999978 
	0.49999999999999989 0 1.0000000000000002 
	0.37485061669243841 0 0.99999999999999989 
	0.28963425887962008 0 1 
	0.24665193488235054 0 1 
	0.001 
	spline forward { exactsur full nurbs 3 1 both open open none none 5 2 
	0.24665193488235054 3 0.37332596744117524 2 0.5 2 0.6266740325588247 2 0.75334806511764929 3 
	0 1 1 1 
	300 0 0 1.0406073902761501 
	306.54004245000647 4.3238388896452774e-016 0 1.0270715935174335 
	313.08178340133662 0.63955845238902242 0 1.0169197459483961 
	326.1246638054821 3.2409309489544484 0 1.0033839491896792 
	332.536980795516 5.2030369513807493 0 1 
	344.92268612863245 10.4060739027615 0 1 
	350.81253198021028 13.611909985608683 0 1.0033839491896792 
	361.8002998131322 21.105428928837728 0 1.0169197459483961 
	366.83625457042393 25.329475492364654 0 1.0270715935174335 
	371.41428428542849 29.999999999999986 0 1.0406073902761501 
	300 5 0 1 
	306.29690740562449 5 0 1 
	312.59382625445016 5.6286041869458012 0.013227123487818512 1 
	324.93921890121112 8.1165971609324696 0.065616680099642055 1 
	330.98769269914646 9.9759859479733386 0.10477911322364711 1 
	342.59976710886735 14.850499861574434 0.20732585097827447 1 
	348.16336772065301 17.865624988134662 0.27071015560889677 1 
	358.58927227701633 24.9325127303836 0.4185789344093952 1 
	363.451576221594 28.984275346072309 0.50306340857927123 1 
	367.86900484522238 33.475068934704211 0.59572610309214724 1 
	0 
	0 
	0 
	3 0.37332596744117524 0.5 0.6266740325588247 
	0 
	0 
	0 
	F 1 F 0 F 1 F 0 } I I I I 
	} 0 0 #
tvertex-vertex $-1 $55 $107 6.6364597020214661e-014 #
ellipse-curve $-1 300.00000000000011 99.999999999999716 0 0 0 1 -1.1368683772161603e-013 -99.999999999999716 0 1 I I #
tcoedge-coedge $-1 $108 $33 $98 $109 forward $65 $110 -9.8767399512788489e-015 12.473426625786107 #
tcoedge-coedge $-1 $33 $108 $111 $112 reversed $65 $113 -16.312092203587898 0 #
loop $-1 $-1 $63 $114 #
pcurve $-1 0 forward { exppc nurbs 3 open 7 
	-7.1803872617450421e-032 3 0.13284652065515459 1 0.2653557989652528 1 0.39769941509207213 1 0.5300430312188914 1 
	0.66255230952898958 1 0.79539883018414403 3 
	0.24665193488235054 0 1 
	0.27543318897267932 0 1 
	0.33252640885595858 0 1 
	0.41660611023105504 0 0.99999999999999978 
	0.5 0 1.0000000000000002 
	0.58339388976894468 0 1.0000000000000002 
	0.66747359114404137 0 1 
	0.72456681102732068 0 0.99999999999999989 
	0.75334806511764929 0 1 
	0.001 
	spline forward { exactsur full nurbs 3 1 both open open none none 7 2 
	0.24665193488235054 3 0.33110128992156701 2 0.41555064496078348 2 0.5 2 0.58444935503921647 2 
	0.66889871007843282 2 0.75334806511764929 3 
	0 1 1 1 
	300 0 500.00000000000006 1.0406073902761501 
	313.02287532322464 -2.2959612350326471e-015 500.00000000000006 1.031583525770339 
	326.06636920807313 0.84679583619047216 500.00000000000006 1.0240636386821631 
	352.23452625934317 4.2843160099191637 500.00000000000006 1.0120318193410816 
	365.28203360839888 6.885603639934744 500 1.0075198870881761 
	391.10632148512491 13.853929207009124 500 1.0015039774176353 
	403.803795053106 18.210629329832607 500 1 
	428.57520571933901 28.616703232594105 500 1 
	440.57474342810252 34.634823017522834 500 1.0015039774176353 
	463.62812477221536 48.19922547954328 499.99999999999989 1.0075198870881761 
	474.61907085973542 55.696108128949234 499.99999999999994 1.0120318193410816 
	495.39166122485994 71.977646076190524 500.00000000000006 1.0240636386821631 
	505.12684013002809 80.699806794535363 499.99999999999994 1.0315835257703392 
	514.24285285628548 89.999999999999943 500.00000000000006 1.0406073902761501 
	300 5 500 1 
	313.0357030502401 5 500 1 
	326.07107173344247 5.8691562123316725 500.00589166989766 1 
	351.91389155819996 9.3151912097726814 500.02925279688657 1 
	364.72134269975521 11.892069994882018 500.04672225397769 1 
	389.88107863364706 18.722960285992681 500.09303340275142 1 
	402.23336342598367 22.976971791994011 500.1218750944339 1 
	426.27136473294826 33.072652593070998 500.19022986976813 1 
	437.95708124757613 38.914321888146645 500.22974295341987 1 
	460.45054407063327 52.095843335554633 500.31873967007073 1 
	471.25829037906243 59.43569548788696 500.36822330306984 1 
	491.81611117097106 75.472663859080683 500.47582895474284 1 
	501.56618565445046 84.169780077942079 500.53395097341689 1 
	510.69757341607942 93.475068934704211 500.59572610309215 1 
	0 
	0 
	0 
	2 0.41555064496078348 0.58444935503921647 
	0 
	0 
	0 
	F 1 F 0 F 1 F 0 } I I I I 
	} 0 0 #
tvertex-vertex $-1 $34 $115 6.3552874323130192e-014 #
ellipse-curve $-1 300.00000000000011 299.99999999999977 500.00000000000068 9.402782628966074e-016 -2.0842586915629621e-015 1 -1.1368683772161603e-013 -299.99999999999977 -6.2527760746888816e-013 1 I I #
coedge $-1 $111 $116 $36 $70 forward $117 $-1 #
edge $-1 $93 0 $37 100 $36 $118 forward 7 unknown #
point $-1 300 0 500.00000000000006 #
point $-1 300 0 0 #
face $-1 $114 $117 $3 $-1 $119 reversed single #
loop $-1 $-1 $90 $40 #
spline-surface $-1 forward { exactsur full nurbs 3 1 both open open none none 8 2 
	0 3 0.14285714285714285 2 0.2857142857142857 2 0.42857142857142855 2 0.5714285714285714 2 
	0.7142857142857143 2 0.8571428571428571 2 1 3 
	0 1 1 1 
	200 0 500 1 
	195.71110369070198 0 475.42983884352941 1 
	190.78233895019423 0 451.22908691715696 1 
	179.70522829418383 0 403.53109792636172 1 
	173.55688237868111 0 380.03386086193899 1 
	159.86014231040735 0 333.84881238978261 1 
	152.31174815763626 0 311.1610009820489 1 
	135.67139620469811 0 266.67662753715729 1 
	126.5794384045311 0 244.8800654999994 1 
	106.64581420331088 0 202.29553246984676 1 
	95.804147802257688 0 181.50756147685203 1 
	72.177235397623036 0 141.05652531294544 1 
	59.391989394041595 0 121.39346014203356 1 
	31.443374753090374 0 83.436841863635166 1 
	16.280006115720603 0 65.14328875614865 1 
	0 0 47.493723973484379 1 
	200 5 500 1 
	195.71110369070198 5 475.42983884352941 1 
	190.78233895019423 5 451.22908691715696 1 
	179.70522829418383 5 403.53109792636172 1 
	173.55688237868111 5 380.03386086193899 1 
	159.86014231040735 5 333.84881238978261 1 
	152.31174815763626 5 311.1610009820489 1 
	135.67139620469811 5 266.67662753715729 1 
	126.5794384045311 5 244.8800654999994 1 
	106.64581420331088 5 202.29553246984679 1 
	95.804147802257688 5 181.50756147685206 1 
	72.177235397623036 5 141.05652531294547 1 
	59.391989394041595 5 121.39346014203359 1 
	31.443374753090374 5 83.436841863635195 1 
	16.280006115720603 5 65.143288756148678 1 
	0 5 47.493723973484407 1 
	0 
	0 
	0 
	6 0.14285714285714285 0.2857142857142857 0.42857142857142855 0.5714285714285714 0.7142857142857143 0.8571428571428571 
	0 
	0 
	0 
	F 1 F 0 F 1 F 0 } I I I I #
coedge $-1 $120 $80 $91 $121 forward $41 $122 #
coedge $-1 $83 $43 $123 $124 forward $22 $-1 #
coedge $-1 $80 $120 $43 $79 reversed $41 $125 #
edge $-1 $84 -2.6007669176268962e-015 $126 5.0000000000000053 $78 $127 forward 7 unknown #
tcoedge-coedge $-1 $76 $78 $44 $81 reversed $41 $128 -1 0 #
tedge-edge $-1 $51 0 $84 1 $44 $129 forward 7 unknown 0.0074097952135205956 #
pcurve $-1 0 forward { exppc nubs 2 open 77 
	0 2 0.083333333333333329 2 0.125 2 0.14583333333333331 2 0.15625 2 
	0.16145833333333331 2 0.1640625 2 0.16536458333333331 2 0.166015625 2 0.16634114583333331 2 
	0.16666666666666666 2 0.1669921875 2 0.16731770833333331 2 0.16796875 2 0.16927083333333331 2 
	0.171875 2 0.17708333333333331 2 0.1875 2 0.20833333333333331 2 0.25 2 
	0.29166666666666663 2 0.3125 2 0.32291666666666663 2 0.328125 2 0.33072916666666663 2 
	0.33203125 2 0.33268229166666663 2 0.3330078125 2 0.33333333333333331 2 0.33365885416666663 2 
	0.333984375 2 0.33463541666666663 2 0.3359375 2 0.33854166666666663 2 0.34375 2 
	0.35416666666666663 2 0.375 2 0.41666666666666663 2 0.5 2 0.58333333333333326 2 
	0.625 2 0.64583333333333326 2 0.65625 2 0.66145833333333326 2 0.6640625 2 
	0.66536458333333326 2 0.666015625 2 0.66634114583333326 2 0.66666666666666663 2 0.6669921875 2 
	0.66731770833333326 2 0.66796875 2 0.66927083333333326 2 0.671875 2 0.67708333333333326 2 
	0.6875 2 0.70833333333333326 2 0.75 2 0.79166666666666674 2 0.8125 2 
	0.82291666666666674 2 0.828125 2 0.83072916666666674 2 0.83203125 2 0.83268229166666674 2 
	0.8330078125 2 0.83333333333333337 2 0.83365885416666674 2 0.833984375 2 0.83463541666666674 2 
	0.8359375 2 0.83854166666666674 2 0.84375 2 0.85416666666666674 2 0.875 2 
	0.91666666666666674 2 1 2 
	4.5250627602651559 -1.5707963267948968 
	4.5472577136550765 -1.5501861560533983 
	4.5690842209042923 -1.529402089088858 
	4.5799792330111586 -1.5190274259041781 
	4.5907863499112533 -1.5086057339270467 
	4.5961854330893406 -1.5033992036043815 
	4.601563098808775 -1.4981804356712802 
	4.6042508152150603 -1.4955721351695028 
	4.6069332486963201 -1.4929607128919777 
	4.6082741860844241 -1.4916552737105315 
	4.6096138117923227 -1.4903490461408244 
	4.6102835547455587 -1.4896960005139928 
	4.6109529709149486 -1.4890427567905009 
	4.611287661511664 -1.4887161519942431 
	4.6116222705619885 -1.4883894975413905 
	4.6117895707158159 -1.4882261745823797 
	4.6119568504934492 -1.4880628392007558 
	4.6120404892829132 -1.4879811725833743 
	4.6121241229969776 -1.4878995028423407 
	4.6121862561201521 -1.4878388287931723 
	4.612291383863159 -1.4877361616884017 
	4.6123608134542913 -1.4876683571783547 
	4.6124586330950814 -1.4875728157363441 
	4.6125422544392674 -1.4874911419156081 
	4.612625870695835 -1.4874094649835732 
	4.6127931010202499 -1.487246113257461 
	4.6129603110161943 -1.4870827490655099 
	4.6132947222498295 -1.4867560292384217 
	4.6136290522188297 -1.4864292595066182 
	4.6142976771362836 -1.485775754271635 
	4.6149659775638385 -1.4851220489160915 
	4.6163024382239479 -1.4838147753382738 
	4.61763760554937 -1.4825066971868743 
	4.6203073783455011 -1.4798910913393342 
	4.6229720149950317 -1.4772722342193227 
	4.6282990300891571 -1.4720367393873661 
	4.6336058021250208 -1.466787970796386 
	4.6442101902280966 -1.4562994895076056 
	4.6547360840618497 -1.4457556844483941 
	4.6653167679084584 -1.4351569961437431 
	4.6756870897856819 -1.4246338067890152 
	4.6809173471322172 -1.4193264509438284 
	4.68609480732104 -1.4140375785541297 
	4.6886947585393273 -1.4113816797714316 
	4.6912814974316994 -1.4087303383433822 
	4.692577662215216 -1.407401802479848 
	4.6938705225315651 -1.4060743976663881 
	4.6945176502119228 -1.4054099791000767 
	4.6951639516187296 -1.4047458422370427 
	4.6954872765338482 -1.404413594786232 
	4.6958103948623835 -1.404081417627004 
	4.6959719975560361 -1.4039152842976304 
	4.6961335486049478 -1.403749168520052 
	4.6962143350117103 -1.40366609944147 
	4.6962951084996298 -1.4035830347563154 
	4.6963442648072213 -1.4035324840952175 
	4.696456657073993 -1.4034168948486769 
	4.6965197005185875 -1.4033520581435437 
	4.6966181943260992 -1.4032507487943389 
	4.6966989637505474 -1.4031676704969995 
	4.6967797202540105 -1.4030845965905023 
	4.6969412550254557 -1.40291842638843 
	4.6971027381294919 -1.402752273723133 
	4.6974257913289925 -1.402419878885605 
	4.6977486379048115 -1.4020875540711291 
	4.6983946787924182 -1.4014225464972574 
	4.6990398931186403 -1.400757818469192 
	4.7003317113044805 -1.3994269308549634 
	4.7016202227251593 -1.3980971570261409 
	4.7042027921604959 -1.3954318851541871 
	4.706772130862432 -1.392771032540167 
	4.7119328982370616 -1.3874264505476173 
	4.7170407205042482 -1.3820992478312473 
	4.7273438912182879 -1.3713535569782866 
	4.7374352146195715 -1.360674834488701 
	4.7579601322523244 -1.3389551956657222 
	4.7776392330779194 -1.3174799920797733 
	4.7977242287503552 -1.2955618478052406 
	4.8170299936196237 -1.273787520239821 
	4.8268171175521246 -1.2627489499540689 
	4.8364005974940518 -1.2517511127803596 
	4.8412266663159738 -1.2462127989930689 
	4.8460007912029743 -1.2406851584628835 
	4.8483965120590202 -1.2379113131998603 
	4.8507791217337752 -1.2351401912422824 
	4.8519725995947809 -1.2337521029030301 
	4.8531627842599363 -1.232364701862797 
	4.8537584208305509 -1.2316703669231321 
	4.8543532321934171 -1.2309762045912331 
	4.8546507740536455 -1.2306289645006294 
	4.8549481093721587 -1.2302817676607734 
	4.8550968110879733 -1.2301081294731881 
	4.8552454611450795 -1.2299345021027959 
	4.8553197946874178 -1.229847678473263 
	4.855394115312496 -1.2297608575482089 
	4.8554879263163162 -1.2296512680752545 
	4.8555427549948629 -1.2295872051422989 
	4.8556580182745535 -1.2294525292034524 
	4.8556913801879134 -1.2294135448843704 
	4.8557656920006522 -1.229326709474539 
	4.8558399908873806 -1.229239876773726 
	4.8559886057004098 -1.2290661914580461 
	4.8561371687885027 -1.2288925169914888 
	4.8564343631414015 -1.2285450883578619 
	4.8567313504800493 -1.2281977031635016 
	4.8573255979687771 -1.2275026136680718 
	4.8579190164647477 -1.2268076982940288 
	4.8591069455768805 -1.2254165886321302 
	4.8602915511957852 -1.2240261783981048 
	4.8626651376449814 -1.2212402226018146 
	4.8650253705460873 -1.2184570871149469 
	4.8697633863574588 -1.2128701215507467 
	4.8744475195330157 -1.2072946046014115 
	4.8838863050868824 -1.1960596317976195 
	4.8931059445194691 -1.1848715734156174 
	4.9023693693421695 -1.1736303813395632 
	4.9115117826822079 -1.162314756220777 
	4.9160813898566191 -1.1566589233676168 
	4.9206214485847317 -1.1509836542940741 
	4.922891088468706 -1.1481465066241909 
	4.9251534279867428 -1.1453043965550007 
	4.9262845018964256 -1.1438834619330851 
	4.9274137617691496 -1.1424612734392581 
	4.9279783678730311 -1.141750209206942 
	4.9285425218642924 -1.1410388298234775 
	4.9288245929154915 -1.1406831476274757 
	4.9291065511107979 -1.1403273864358652 
	4.9292475287223692 -1.1401495077151269 
	4.9293884781460271 -1.1399716092137748 
	4.929458952484465 -1.1398826604343726 
	4.9295294197806667 -1.1397937067039772 
	4.9296160605175157 -1.1396843365824827 
	4.9296703468320011 -1.1396157949219872 
	4.9297706989214785 -1.1394890908177915 
	4.9298112593040386 -1.1394378738630357 
	4.9298817117756322 -1.1393489111653914 
	4.9299521572007885 -1.1392599435223525 
	4.930093047313596 -1.1390820091676916 
	4.9302339092844587 -1.1389040549767069 
	4.930515630256374 -1.1385481503465669 
	4.930797238724729 -1.1381921662946484 
	4.9313604438081224 -1.1374802131747073 
	4.9319231995949302 -1.1367679414975087 
	4.9330486637876536 -1.1353434581124064 
	4.9341723364775687 -1.1339176935991164 
	4.9364194924214111 -1.1310664049371137 
	4.9386595282805068 -1.1282099358141437 
	4.943138839071457 -1.1224979678942617 
	4.9475900437867404 -1.1167648190653214 
	4.9564893216453259 -1.1053025548701525 
	4.9652792803983621 -1.0937517087556603 
	4.9828449482549342 -1.0706687419283742 
	5 -1.0471975511965976 
	0.001 
	cone 0 100 500 0 0 -1 -100 0 0 1 I I 0 1 100 forward I I I I 
	} 0 0 #
coedge $-1 $45 $77 $86 $130 reversed $22 $-1 #
tvertex-vertex $-1 $81 $131 2.0097183471152322e-014 #
ellipse-curve $-1 -4.2632564145606011e-014 99.999999999999929 0 0 0 1 -49.999999999999979 -86.602540378443791 0 1 I I #
coedge $-1 $132 $47 $83 $130 forward $88 $-1 #
tcoedge-coedge $-1 $47 $132 $57 $102 reversed $88 $133 -6.8118272695551818 0 #
loop $-1 $-1 $86 $134 #
straight-curve $-1 0 0 0 1 0 0 I I #
coedge $-1 $135 $49 $116 $136 forward $74 $137 #
coedge $-1 $49 $135 $76 $121 reversed $74 $138 #
pcurve $-1 0 forward { exppc nurbs 3 open 8 
	-1 3 -0.85714285714285721 1 -0.71428571428571441 1 -0.57142857142857151 1 -0.4285714285714286 1 
	-0.2857142857142857 1 -0.14285714285714279 1 0 3 
	1 0 1 
	0.95238095238095244 0 0.99999999999999989 
	0.85714285714285698 0 0.99999999999999989 
	0.71428571428571419 0 1.0000000000000002 
	0.57142857142857151 0 0.99999999999999989 
	0.4285714285714286 0 1 
	0.2857142857142857 0 1 
	0.14285714285714285 0 1 
	0.047619047619047623 0 0.99999999999999989 
	0 0 1 
	0.001 
	spline forward { ref 10 } I I I I 
	} 0 0 #
vertex $-1 $50 $139 #
intcurve-curve $-1 forward { surfintcur full nurbs 3 open 8 
	0 3 0.14347174467657536 1 0.28662758442146258 1 0.42950397981548516 1 0.57216114310570421 1 
	0.71469196348743369 1 0.85723516732888172 1 1 3 
	200 0 500 1 
	195.718622408594 0 475.45537318037708 1 
	185.87079014003402 0 427.10870927250602 0.99999999999999978 
	167.42904128222 0 356.60423550315295 1.0000000000000002 
	144.78293038725971 0 288.52491289849235 1 
	117.50092508559615 0 223.11179105046565 0.99999999999999978 
	84.963979058373184 0 160.71848814736251 1 
	46.569843637192584 0 101.6820613945966 0.99999999999999978 
	16.270888841813772 0 65.127511539629495 1 
	0 0 47.493723973484379 1 
	0.001 
	plane 150 0 250 0 1 0 1 0 0 forward_v I I I I 
	spline forward { ref 10 } I I I I 
	nullbs 
	nurbs 3 open 8 
	0 3 0.14285714285714279 1 0.2857142857142857 1 0.4285714285714286 1 0.57142857142857151 1 
	0.71428571428571441 1 0.85714285714285721 1 1 3 
	0 0 1 
	0.047619047619047623 0 0.99999999999999989 
	0.14285714285714285 0 1 
	0.2857142857142857 0 1 
	0.4285714285714286 0 1 
	0.57142857142857151 0 0.99999999999999989 
	0.71428571428571419 0 1.0000000000000002 
	0.85714285714285698 0 0.99999999999999989 
	0.95238095238095244 0 0.99999999999999989 
	1 0 1 
	
	I I 
	0 
	0 
	6 0.14347174467657514 0.2866275844214628 0.4295039798154851 0.57216114310570421 0.7146919634874338 0.85723516732888183 
	} I I #
point $-1 0 0 47.493723973484379 #
point $-1 0 0 0 #
tcoedge-coedge $-1 $140 $54 $58 $104 forward $99 $141 2.5683933132231737e-015 9.7692362397736829 #
tcoedge-coedge $-1 $54 $140 $63 $109 reversed $99 $142 -12.473426625786107 8.8817841970012523e-015 #
loop $-1 $-1 $97 $143 #
straight-curve $-1 514.24285285628548 89.999999999999957 500.00000000000006 -0.27285995445379208 -0.11462410798513045 -0.95520089987608758 I I #
tcoedge-coedge $-1 $58 $57 $144 $145 forward $59 $146 0 1.0000000000000002 #
tedge-edge $-1 $38 0 $147 6.8118272695551818 $57 $148 forward 7 unknown 36.275458369115007 #
pcurve $-1 0 forward { exppc nurbs 3 open 2 
	0 3 6.8118272695551818 3 
	0.24665193488235054 0 1 
	0.16443462325490035 0.33333333333333331 1 
	0.082217311627450176 0.66666666666666663 1 
	0 1 1 
	0.001 
	spline forward { ref 7 } I I I I 
	} 0 0 #
tedge-edge $-1 $61 2.5683933132231737e-015 $149 9.7692362397736829 $97 $150 forward 7 unknown 35.995666119836095 #
pcurve $-1 0 forward { exppc nurbs 3 open 2 
	-9.7692362397736829 3 -1.7763568394002505e-015 3 
	1 1 1 
	0.91778268837254973 0.66666666666666663 1 
	0.83556537674509945 0.33333333333333331 1 
	0.75334806511764929 0 1 
	0.001 
	spline forward { ref 7 } I I I I 
	} 0 0 #
face $-1 $134 $59 $3 $-1 $151 reversed single #
point $-1 371.41428428542849 29.999999999999975 -4.8183679268731794e-014 #
coedge $-1 $64 $63 $152 $153 reversed $65 $154 #
tedge-edge $-1 $67 -9.8767399512788489e-015 $155 12.473426625786107 $63 $156 forward 7 unknown 112.46214616209853 #
pcurve $-1 0 forward { exppc nurbs 3 open 2 
	-9.8767399512788489e-015 3 12.473426625786107 3 
	0.75334806511764929 0 1 
	0.83556537674509945 0.33333333333333331 1 
	0.91778268837254973 0.66666666666666663 1 
	1 1 1 
	0.001 
	spline forward { ref 9 } I I I I 
	} 0 0 #
tcoedge-coedge $-1 $157 $69 $64 $112 forward $117 $158 0 16.312092203587898 #
tedge-edge $-1 $37 0 $159 16.312092203587898 $64 $160 forward 7 unknown 111.97102472053537 #
pcurve $-1 0 forward { exppc nurbs 3 open 2 
	-16.312092203587898 3 0 3 
	0 1 1 
	0.082217311627450176 0.66666666666666663 1 
	0.16443462325490035 0.33333333333333331 1 
	0.24665193488235054 0 1 
	0.001 
	spline forward { ref 9 } I I I I 
	} 0 0 #
face $-1 $143 $65 $3 $-1 $161 forward single #
point $-1 514.24285285628548 89.999999999999943 500.00000000000006 #
coedge $-1 $69 $157 $90 $136 reversed $117 $-1 #
loop $-1 $-1 $111 $73 #
straight-curve $-1 200 0 500 1 0 0 I I #
plane-surface $-1 250 2.5 500 0 0 -1 1 0 0 forward_v I I I I #
tcoedge-coedge $-1 $78 $76 $162 $163 forward $41 $164 0 1 #
edge $-1 $51 0 $165 5 $91 $166 forward 7 unknown #
pcurve $-1 0 forward { exppc nurbs 3 open 2 
	0 3 5 3 
	0 0 1 
	0 0.33333333333333331 1 
	0 0.66666666666666663 1 
	0 1 1 
	0.001 
	spline forward { ref 4 } I I I I 
	} 0 0 #
coedge $-1 $162 $167 $77 $124 reversed $168 $-1 #
edge $-1 $126 5.0387518103764395e-017 $169 0.52359877559830459 $77 $170 forward 7 unknown #
pcurve $-1 0 forward { exppc nurbs 3 open 2 
	-5.0000000000000053 3 2.6645352591003757e-015 3 
	1 1 1 
	1 0.66666666666666663 1 
	1 0.33333333333333331 1 
	1 0 1 
	0.001 
	spline forward { ref 4 } I I I I 
	} 0 0 #
tvertex-vertex $-1 $79 $171 5.6843418860808015e-014 #
straight-curve $-1 -50.000000000000021 13.397459621556145 0 0.50000000000000067 0.86602540378443826 0 I I #
pcurve $-1 0 forward { exppc nurbs 3 open 5 
	-1 3 -0.74999999999999978 1 -0.49999999999999989 1 -0.25 1 0 3 
	1 0 1 
	0.91666666666666674 0 0.99999999999999989 
	0.75 0 1 
	0.5 0 1 
	0.25 0 0.99999999999999978 
	0.083333333333333343 0 0.99999999999999989 
	0 0 1 
	0.001 
	spline forward { ref 4 } I I I I 
	} 0 0 #
intcurve-curve $-1 forward { exactcur full nurbs 3 open 5 
	0 3 0.25112225585574915 1 0.50135794200258277 1 0.7509478384015944 1 1 3 
	8.5301349395539326e-015 3.6553544287719197e-031 47.493723973484414 1 
	-4.1457597721377795 -6.6669740279936536e-016 43.029183331754751 1 
	-12.492187128462401 0.51899714304257816 34.377578868965323 1.0000000000000002 
	-25.116007008982532 2.9147009377757542 22.060447367049807 1 
	-37.724433445716272 7.0513240194050688 10.502762481895237 1 
	-45.951390609474238 11.059993900092435 3.4168991136642561 1 
	-50.000000000000007 13.397459621556134 0 1 
	0 
	null_surface 
	null_surface 
	nullbs 
	nullbs 
	I I 
	0 
	0 
	3 0.25112225585574915 0.50135794200258277 0.7509478384015944 
	F 1 F 0 } I I #
edge $-1 $52 -6.2172489379008766e-015 $169 4.9999999999999991 $86 $172 forward 7 unknown #
point $-1 -50.000000000000014 13.397459621556138 0 #
coedge $-1 $87 $86 $173 $174 forward $88 $-1 #
pcurve $-1 0 forward { exppc nubs 1 open 2 
	-6.8118272695551818 1 0 1 
	150 -4.3118272695551818 
	150 2.5 
	0 
	plane 150 2.5 0 0 0 -1 1 0 0 forward_v I I I I 
	} 0 0 #
face $-1 $175 $88 $3 $-1 $176 forward single #
coedge $-1 $91 $90 $177 $178 forward $74 $179 #
edge $-1 $93 0 $180 5 $90 $181 forward 7 unknown #
pcurve $-1 0 forward { exppc nurbs 3 open 2 
	0 3 5 3 
	0 0 1 
	0 0.33333333333333331 1 
	0 0.66666666666666663 1 
	0 1 1 
	0.001 
	spline forward { ref 10 } I I I I 
	} 0 0 #
pcurve $-1 0 forward { exppc nurbs 3 open 2 
	-5 3 0 3 
	1 1 1 
	1 0.66666666666666663 1 
	1 0.33333333333333331 1 
	1 0 1 
	0.001 
	spline forward { ref 10 } I I I I 
	} 0 0 #
point $-1 200 0 500 #
tcoedge-coedge $-1 $98 $97 $182 $183 reversed $99 $184 -517.06893176383403 9.4731986085702022 #
pcurve $-1 0 forward { exppc nubs 1 open 2 
	2.5683933132231737e-015 1 9.7692362397736829 1 
	261.72504656604809 2.5 
	261.72504656604821 -7.2692362397737043 
	0 
	plane 441.05592885075396 61.737534467352091 250.29786305154607 0.6502208800781144 0.70980078179073858 -0.27091632892776846 -0.27285995445379219 -0.11462410798513045 -0.95520089987608781 reverse_v I I I I 
	} 0 0 #
pcurve $-1 0 forward { exppc nubs 1 open 2 
	-12.473426625786107 1 8.8817841970012523e-015 1 
	-261.72504656604815 -9.9734266257861464 
	-261.72504656604804 2.5000000000000568 
	0 
	plane 441.05592885075396 61.737534467352091 250.29786305154607 0.6502208800781144 0.70980078179073858 -0.27091632892776846 -0.27285995445379219 -0.11462410798513045 -0.95520089987608781 reverse_v I I I I 
	} 0 0 #
face $-1 $106 $99 $3 $-1 $185 reversed single #
tcoedge-coedge $-1 $186 $182 $101 $145 reversed $187 $188 -1.0000000000000002 0 #
tedge-edge $-1 $147 0 $149 1.0000000000000002 $101 $189 forward 7 unknown 36.622113647798464 #
pcurve $-1 0 forward { exppc nurbs 3 open 5 
	0 3 0.25 1 0.5 1 0.74999999999999989 1 1.0000000000000002 3 
	0 1 1 
	0.083333333333333343 1 0.99999999999999989 
	0.25 1 0.99999999999999978 
	0.5 1 1 
	0.75 1 1 
	0.91666666666666674 1 0.99999999999999989 
	1 1 1 
	0.001 
	spline forward { ref 7 } I I I I 
	} 0 0 #
tvertex-vertex $-1 $145 $190 27.443112929807995 #
straight-curve $-1 300 0 0 0 1 0 F 0 F 6.8118272695551818 #
tvertex-vertex $-1 $183 $191 24.414742431865907 #
straight-curve $-1 371.41428428542849 29.999999999999972 -4.9016346537200661e-014 -0.70905588804121733 0.69501378694085625 0.11914522061841573 F 2.5683933132231737e-015 F 9.7692362397736829 #
spline-surface $-1 forward { ref 7 } I I I I #
coedge $-1 $182 $186 $108 $153 forward $187 $192 #
edge $-1 $159 0 $155 1 $108 $193 forward 7 unknown #
pcurve $-1 0 forward { exppc nurbs 3 open 7 
	-1 3 -0.83333333333333348 1 -0.66666666666666674 1 -0.5 1 -0.33333333333333326 1 
	-0.16666666666666674 1 0 3 
	1 1 1 
	0.94444444444444442 1 1 
	0.83333333333333326 1 1 
	0.66666666666666652 1 0.99999999999999989 
	0.50000000000000011 1 1 
	0.3333333333333332 1 1.0000000000000004 
	0.16666666666666669 1 0.99999999999999967 
	0.055555555555555525 1 1.0000000000000002 
	0 1 1 
	0.001 
	spline forward { ref 9 } I I I I 
	} 0 0 #
tvertex-vertex $-1 $153 $194 75.797961998520009 #
straight-curve $-1 514.24285285628548 89.999999999999957 500.00000000000006 -0.70905588804121611 0.69501378694085492 0.11914522061843016 F -9.8767399512788489e-015 F 12.473426625786107 #
coedge $-1 $116 $111 $195 $196 reversed $117 $-1 #
pcurve $-1 0 forward { exppc nubs 1 open 2 
	0 1 16.312092203587898 1 
	50 2.5 
	50 -13.812092203587898 
	0 
	plane 250 2.5 500 0 0 1 1 0 0 reverse_v I I I I 
	} 0 0 #
tvertex-vertex $-1 $112 $197 56.836169529259017 #
straight-curve $-1 300 0 500 0 1 0 F 0 F 16.312092203587898 #
spline-surface $-1 forward { ref 9 } I I I I #
tcoedge-coedge $-1 $167 $123 $120 $163 reversed $168 $198 -1 0 #
tedge-edge $-1 $165 0 $126 1 $120 $199 forward 7 unknown 0.0071477085594342498 #
pcurve $-1 0 forward { exppc nurbs 3 open 5 
	0 3 0.24999999999999994 1 0.49999999999999989 1 0.74999999999999978 1 1 3 
	0 1 1 
	0.083333333333333343 1 0.99999999999999989 
	0.25 1 0.99999999999999978 
	0.5 1 1 
	0.75 1 1 
	0.91666666666666674 1 0.99999999999999989 
	1 1 1 
	0.001 
	spline forward { ref 4 } I I I I 
	} 0 0 #
tvertex-vertex $-1 $121 $200 5.8860614280405624e-014 #
straight-curve $-1 0 0 47.493723973484407 0 1 0 I I #
coedge $-1 $123 $162 $201 $202 forward $168 $-1 #
loop $-1 $-1 $167 $203 #
vertex $-1 $174 $204 #
ellipse-curve $-1 -2.7000623958883807e-013 99.999999999999005 0 0 0 1 -47.499999999999744 -82.272413359520669 0 1 I I #
point $-1 -47.500000000000007 17.727586640478336 0 #
straight-curve $-1 0 6.2172489379008766e-015 0 0 1 0 I I #
coedge $-1 $201 $205 $132 $174 reversed $206 $-1 #
edge $-1 $169 -4.4408920985006262e-015 $147 291.03360020900323 $132 $207 forward 7 unknown #
face $-1 $208 $206 $3 $-1 $209 forward single #
plane-surface $-1 150 2.5 0 0 0 -1 1 0 0 forward_v I I I I #
coedge $-1 $195 $201 $135 $178 reversed $206 $-1 #
edge $-1 $180 0 $165 1 $135 $210 forward 7 unknown #
pcurve $-1 0 forward { exppc nurbs 3 open 8 
	0 3 0.14285714285714285 1 0.2857142857142857 1 0.4285714285714286 1 0.57142857142857151 1 
	0.71428571428571441 1 0.85714285714285721 1 1 3 
	0 1 1 
	0.047619047619047623 1 0.99999999999999989 
	0.14285714285714285 1 1 
	0.2857142857142857 1 1 
	0.4285714285714286 1 1 
	0.57142857142857151 1 0.99999999999999989 
	0.71428571428571419 1 1.0000000000000002 
	0.85714285714285698 1 0.99999999999999989 
	0.95238095238095244 1 0.99999999999999989 
	1 1 1 
	0.001 
	spline forward { ref 10 } I I I I 
	} 0 0 #
vertex $-1 $178 $211 #
straight-curve $-1 200 0 500 0 1 0 I I #
tcoedge-coedge $-1 $144 $152 $140 $183 forward $187 $212 -9.4731986085702022 517.06893176383403 #
tedge-edge $-1 $155 -9.4731986085702022 $149 517.06893176383403 $140 $213 forward 7 unknown 6.3811613682620258 #
pcurve $-1 0 forward { exppc nubs 1 open 2 
	-517.06893176383403 1 9.4731986085702147 1 
	255.34388519778599 -2.4999999999999716 
	-271.19824517461836 -2.4999999999999432 
	0 
	plane 441.05592885075396 61.737534467352091 250.29786305154607 0.6502208800781144 0.70980078179073858 -0.27091632892776846 -0.27285995445379219 -0.11462410798513045 -0.95520089987608781 reverse_v I I I I 
	} 0 0 #
plane-surface $-1 441.05592885075396 61.737534467352091 250.29786305154607 -0.6502208800781144 -0.70980078179073858 0.27091632892776846 -0.27285995445379219 -0.11462410798513045 -0.95520089987608781 forward_v I I I I #
tcoedge-coedge $-1 $152 $144 $205 $214 reversed $187 $215 -499.96190964262411 0.07666901010395577 #
loop $-1 $-1 $182 $208 #
pcurve $-1 0 forward { exppc nurbs 3 open 5 
	-1.0000000000000002 3 -0.75 1 -0.5 1 -0.25 1 0 3 
	1 1 1 
	0.91666666666666674 1 0.99999999999999989 
	0.75 1 1 
	0.5 1 1 
	0.25 1 0.99999999999999978 
	0.083333333333333343 1 0.99999999999999989 
	0 1 1 
	0.001 
	spline forward { exactsur full nurbs 3 1 both open open none none 4 2 
	0 3 0.33333333333333331 2 0.66666666666666663 2 1 3 
	0 1 1 1 
	300 5 500 1 
	326.07140610048026 5 500 1 
	352.14147473280934 8.47662484932669 500.02356667959094 1 
	402.46094660059293 22.138405431548009 500.11618897713817 1 
	426.71034983604756 32.323561164442651 500.18524459509445 1 
	471.69727548216184 58.686604059258606 500.36323802839615 1 
	492.43479789282151 74.864491221179932 500.47217584374164 1 
	510.69757341607936 93.475068934704169 500.59572610309215 1 
	300 5 0 1 
	308.3958765408326 5 0 1 
	316.79128659465277 6.1197073634592698 0.0235666795909516 1 
	332.99610733557256 10.518392215704019 0.11618897713815379 1 
	340.80551802267212 13.797369704489494 0.18524459509440439 1 
	355.2970143617448 22.281845671568323 0.36323802839615338 1 
	361.97910001371787 27.487344149861674 0.47217584374165172 1 
	367.86900484522238 33.475068934704211 0.59572610309215324 1 
	0 
	0 
	0 
	2 0.33333333333333331 0.66666666666666663 
	0 
	0 
	0 
	F 1 F 0 F 1 F 0 } I I I I 
	} 0 0 #
intcurve-curve $-1 forward { exactcur full nurbs 3 open 5 
	0 3 0.24999447490134802 1 0.49998908796694524 1 0.74998864879127081 1 1.0000000000000002 3 
	300 5 4.8339066883664217e-032 1 
	306.37874133149097 5.0000000000000018 1.1743450614383988e-017 1 
	318.85507397422782 6.2530050833204882 0.026379299883811935 0.99999999999999978 
	337.03842604039335 11.830836707445213 0.14379593041281205 1.0000000000000004 
	353.75467324342083 20.903587445623145 0.33476201518050003 0.99999999999999989 
	363.39484462073375 28.926601542798391 0.50187337169411395 1 
	367.86900484522232 33.475068934704225 0.59572610309216378 1 
	0 
	null_surface 
	null_surface 
	nullbs 
	nullbs 
	I I 
	0 
	0 
	3 0.24999447490134802 0.49998908796694524 0.74998864879127081 
	F 1 F 0 } I I #
point $-1 291.03360020900323 6.8118272695551818 0.038090357375899872 #
point $-1 381.2346026990183 53.902290024650476 1.0069201782112516 #
pcurve $-1 0 forward { exppc nurbs 3 open 7 
	0 3 0.16666666666666669 1 0.33333333333333331 1 0.49999999999999994 1 0.66666666666666674 1 
	0.83333333333333348 1 1 3 
	0 0 1 
	0.055555555555555525 0 1.0000000000000002 
	0.16666666666666669 0 0.99999999999999967 
	0.3333333333333332 0 1.0000000000000004 
	0.50000000000000011 0 1 
	0.66666666666666652 0 0.99999999999999989 
	0.83333333333333326 0 1 
	0.94444444444444442 0 1 
	1 0 1 
	0.001 
	spline forward { ref 34 } I I I I 
	} 0 0 #
intcurve-curve $-1 forward { surfintcur full nurbs 3 open 7 
	0 3 0.16666614606900648 1 0.33333193861900873 1 0.49999801851094311 1 0.66666450977096647 1 
	0.83333143061256276 1 1 3 
	300 5 500 1 
	313.1114392306751 5.0101929841858457 500.00006849290338 1 
	339.07138838521342 6.7336942230141084 500.01175263600567 1 
	377.53771599994769 14.469802827570865 500.0641962981623 1 
	414.58516678679342 27.232231570495454 500.15072945518477 1.0000000000000002 
	449.63606034794407 44.75025362592492 500.26920151554975 1 
	482.09380663246566 66.797455676213914 500.41791374431563 1.0000000000000002 
	501.50634103353531 84.122839975669606 500.53350714112923 1 
	510.69757341607936 93.475068934704169 500.59572610309215 1 
	0.001 
	spline forward { ref 34 } I I I I 
	spline forward { ref 9 } I I I I 
	nurbs 3 open 7 
	0 3 0.16666666666666669 1 0.33333333333333331 1 0.49999999999999994 1 0.66666666666666674 1 
	0.83333333333333348 1 1 3 
	0 0 1 
	0.055555555555555525 0 1.0000000000000002 
	0.16666666666666669 0 0.99999999999999967 
	0.3333333333333332 0 1.0000000000000004 
	0.50000000000000011 0 1 
	0.66666666666666652 0 0.99999999999999989 
	0.83333333333333326 0 1 
	0.94444444444444442 0 1 
	1 0 1 
	
	nurbs 3 open 7 
	0 3 0.16666666666666674 1 0.33333333333333326 1 0.5 1 0.66666666666666674 1 
	0.83333333333333348 1 1 3 
	0 1 1 
	0.055555555555555525 1 1.0000000000000002 
	0.16666666666666669 1 0.99999999999999967 
	0.3333333333333332 1 1.0000000000000004 
	0.50000000000000011 1 1 
	0.66666666666666652 1 0.99999999999999989 
	0.83333333333333326 1 1 
	0.94444444444444442 1 1 
	1 1 1 
	
	I I 
	0 
	0 
	2 0.33333193861900878 0.66666450977096636 
	} I I #
point $-1 531.34374637173607 125.25597268291659 500.80178438169099 #
coedge $-1 $205 $177 $157 $196 forward $206 $-1 #
edge $-1 $180 0 $159 44.300979733941261 $157 $216 forward 7 unknown #
point $-1 244.30097973394126 16.312092203587898 500.07666901010396 #
pcurve $-1 0 forward { exppc nubs 2 open 77 
	-1 2 -0.91666666666666674 2 -0.875 2 -0.85416666666666674 2 -0.84375 2 
	-0.83854166666666674 2 -0.8359375 2 -0.83463541666666674 2 -0.833984375 2 -0.83365885416666674 2 
	-0.83333333333333337 2 -0.8330078125 2 -0.83268229166666674 2 -0.83203125 2 -0.83072916666666674 2 
	-0.828125 2 -0.82291666666666674 2 -0.8125 2 -0.79166666666666674 2 -0.75 2 
	-0.70833333333333337 2 -0.6875 2 -0.67708333333333337 2 -0.671875 2 -0.66927083333333337 2 
	-0.66796875 2 -0.66731770833333337 2 -0.6669921875 2 -0.66666666666666674 2 -0.66634114583333337 2 
	-0.666015625 2 -0.66536458333333337 2 -0.6640625 2 -0.66145833333333337 2 -0.65625 2 
	-0.64583333333333337 2 -0.625 2 -0.58333333333333337 2 -0.5 2 -0.41666666666666669 2 
	-0.375 2 -0.35416666666666669 2 -0.34375 2 -0.33854166666666669 2 -0.3359375 2 
	-0.33463541666666669 2 -0.333984375 2 -0.33365885416666669 2 -0.33333333333333337 2 -0.3330078125 2 
	-0.33268229166666669 2 -0.33203125 2 -0.33072916666666669 2 -0.328125 2 -0.32291666666666669 2 
	-0.3125 2 -0.29166666666666669 2 -0.25 2 -0.20833333333333331 2 -0.18749999999999997 2 
	-0.17708333333333331 2 -0.17187499999999997 2 -0.16927083333333331 2 -0.16796874999999997 2 -0.16731770833333331 2 
	-0.16699218749999997 2 -0.16666666666666663 2 -0.16634114583333331 2 -0.16601562499999997 2 -0.16536458333333331 2 
	-0.16406249999999997 2 -0.16145833333333331 2 -0.15624999999999997 2 -0.14583333333333331 2 -0.12499999999999997 2 
	-0.083333333333333315 2 0 2 
	5.2631578947368425 -1.0471975511965976 
	5.2450844792227125 -1.0706888445812055 
	5.2265768568022795 -1.0937928120139795 
	5.2173165626423312 -1.1053528887126023 
	5.2079410084851441 -1.1168242708544842 
	5.2032518016729394 -1.1225617112642214 
	5.1985329996892098 -1.1282779024233804 
	5.1961732487688588 -1.1311364218940505 
	5.1938060050944124 -1.1339897389219267 
	5.1926222957130754 -1.1354165029556784 
	5.1914367016181204 -1.136841979760985 
	5.1908438826148071 -1.1375547445618246 
	5.1902505910065404 -1.1382671892059839 
	5.1899539397014216 -1.1386234181338319 
	5.1896571700663028 -1.1389795672290075 
	5.1895087838746186 -1.1391576434256625 
	5.1893603680730607 -1.1393356996959743 
	5.1892861598252598 -1.1394247282474561 
	5.1892119441813458 -1.1395137518095997 
	5.1891695529075506 -1.1395646012262177 
	5.1890635050207807 -1.1396917945161851 
	5.1890064168393621 -1.1397602657873631 
	5.1889150505872772 -1.1398698278203783 
	5.1888408194464617 -1.1399588422487386 
	5.1887665808767442 -1.140047851726826 
	5.1886181030633205 -1.1402258714910871 
	5.1884695956082352 -1.1404038713650693 
	5.1881725779295405 -1.1407598744313638 
	5.1878754415669244 -1.1411157980729718 
	5.1872811577745939 -1.1418276586128671 
	5.1866863985510552 -1.1425392022538674 
	5.1854968356671396 -1.1439623426981336 
	5.1843053654576048 -1.1453842219786159 
	5.181922245755425 -1.1482281944928439 
	5.1795314523941718 -1.1510671730936763 
	5.1747491323344992 -1.1567460011060762 
	5.1699357697236952 -1.1624052483149496 
	5.1603060338042495 -1.1737272825207212 
	5.1505492259697681 -1.1849742451255481 
	5.1408393451996393 -1.1961671135074599 
	5.1308985483672718 -1.2074069435971007 
	5.125965698477069 -1.2129844033881563 
	5.1209760668543307 -1.2185733380998576 
	5.1184905973547981 -1.2213573365612886 
	5.1159910553023975 -1.2241441635350929 
	5.1147436144951435 -1.2255349789792824 
	5.1134926711878732 -1.2269264960919801 
	5.1128677812162149 -1.2276216076002815 
	5.1122420175910097 -1.2283168938171969 
	5.1119292810851551 -1.2286643754752675 
	5.1116163264133077 -1.229011900720395 
	5.1114598853876982 -1.2291856230216212 
	5.111303389855343 -1.229359356204069 
	5.111225151162297 -1.2294462127227752 
	5.1111468988497952 -1.2295330719566386 
	5.1111127139841672 -1.2295710167935812 
	5.1109903926991889 -1.2297067797173915 
	5.110932868487323 -1.2297706251486606 
	5.1108338714080155 -1.2298804794870963 
	5.1107556100026592 -1.2299673240179714 
	5.1106773349807622 -1.2300541712665201 
	5.1105208030803269 -1.2302278456333029 
	5.1103642167359773 -1.2304015308575793 
	5.110051116608755 -1.2307488208211055 
	5.1097377988109933 -1.2310961541898231 
	5.1091114533557249 -1.2317904992877207 
	5.1084842382250049 -1.2324850176233 
	5.1072309675256369 -1.2338727703057901 
	5.1059742261539798 -1.2352612128864675 
	5.1034653734338242 -1.238032982817713 
	5.1009427027760452 -1.2408074871187114 
	5.0959158108793847 -1.2463362045297339 
	5.0908341739590943 -1.2518756443627781 
	5.0807440550996281 -1.2628747785408025 
	5.0704393071405605 -1.2739148748490572 
	5.0501158675986701 -1.2956885980637063 
	5.0289712891932705 -1.317607122935629 
	5.0082575794141535 -1.3390790082708994 
	4.9866543243895016 -1.3607948188906107 
	4.9760338553514218 -1.3714706218684611 
	4.9651904864391403 -1.3822133951201985 
	4.9598151381668991 -1.3875388754303262 
	4.9543840746025571 -1.3928817468216077 
	4.9516802373524946 -1.3955416778864707 
	4.94896247622213 -1.3982060324605197 
	4.9476065320464588 -1.3995353310608425 
	4.9462471077605334 -1.4008657446658759 
	4.9455681312417159 -1.4015302315427736 
	4.9448882848174085 -1.4021949982910908 
	4.944548545695362 -1.402527201658446 
	4.9442085891184551 -1.4028594751271726 
	4.9440386568716708 -1.4030255668604208 
	4.9438686702684667 -1.4031916761311756 
	4.9437836884847215 -1.4032747195114139 
	4.9436986931003863 -1.4033577672896631 
	4.9435947557631303 -1.4034593229800534 
	4.9435287041062645 -1.4035238522229458 
	4.9434094970176137 -1.4036403117266605 
	4.9433587032881139 -1.4036899309338751 
	4.9432737037542696 -1.4037729649919066 
	4.9431886906479461 -1.4038560034253018 
	4.9430186874642308 -1.4040220577980747 
	4.9428486299096059 -1.4041881297610435 
	4.9425086069956068 -1.4045201836524837 
	4.9421683666572482 -1.4048523079237791 
	4.9414882548906913 -1.4055161963561638 
	4.9408072735005089 -1.4061803668508199 
	4.9394467877856982 -1.4075072672378295 
	4.9380828241844519 -1.4088353001868401 
	4.9353608163213085 -1.4114856026776241 
	4.9326249023861815 -1.414140469122213 
	4.9271768356654526 -1.4194271447515288 
	4.9216731968782277 -1.4247323343932485 
	4.9107613597631365 -1.4352507145909987 
	4.8996281841887201 -1.4458446512275398 
	4.8885534172942009 -1.4563830082273697 
	4.8773959326385468 -1.4668662835046666 
	4.8718126952187015 -1.472112144611998 
	4.8662081781470805 -1.4773447474423012 
	4.8634048055185088 -1.479962089019319 
	4.8605960399109991 -1.4825761777613919 
	4.8591913792436427 -1.483883480737173 
	4.8577853613189648 -1.4851899780800193 
	4.8570822829412457 -1.4858432912534729 
	4.8563788641261478 -1.4864964039605895 
	4.8560271373700568 -1.4868229764219814 
	4.8556753253645013 -1.48714949888417 
	4.8554994150185795 -1.4873127641462063 
	4.8553234833559902 -1.4874760169108463 
	4.8552355164373378 -1.4875576443021603 
	4.855147544184014 -1.4876392685740349 
	4.8550442754081349 -1.4877350855881506 
	4.8549715928961117 -1.4878025153404106 
	4.8548601606811577 -1.4879058943574401 
	4.8547956294891979 -1.4879657572124374 
	4.8547076443865631 -1.4880473772674971 
	4.8546196539601887 -1.4881289941925797 
	4.8544436709227945 -1.4882922300691461 
	4.8542676665235387 -1.4884554534870664 
	4.8539156490508848 -1.4887819083671561 
	4.8535635460493429 -1.4891083134818186 
	4.8528593053556204 -1.4897611558699206 
	4.8521547220063264 -1.4904137996459619 
	4.8507454165354824 -1.4917192157404666 
	4.8493347360134909 -1.4930238410810639 
	4.8465128197542935 -1.4956336052363042 
	4.8436853681742038 -1.4982402355809974 
	4.8380282410124966 -1.5034555465795418 
	4.8323486952699213 -1.508658551682782 
	4.8209806504208981 -1.5190727640237354 
	4.8095207700684766 -1.5294395197761519 
	4.7865642413798746 -1.5502062920738915 
	4.7632239581738487 -1.5707963267948968 
	0.001 
	cone 0 100 500 0 0 -1 -95 0 0 1 I I 0 -1 95 forward I I I I 
	} 0 0 #
intcurve-curve $-1 forward { exactcur full nurbs 3 open 5 
	0 3 0.25129640574301643 1 0.50160192007669235 1 0.75113975036973402 1 1 3 
	7.6602519741066263e-015 5 47.493723973484414 1 
	-3.937152264380178 4.9999999999999991 43.030679101484658 1 
	-11.865155743261983 5.4928325536600395 34.380196211478868 0.99999999999999989 
	-23.857268156140226 7.7682535798877677 22.063380679384633 1 
	-35.834854830880722 11.697243631825962 10.505857142085139 0.99999999999999978 
	-43.653217855525675 15.506645933852234 3.4174350101472051 1 
	-47.500000000000007 17.727586640478336 0 1 
	0 
	null_surface 
	null_surface 
	nullbs 
	nullbs 
	I I 
	0 
	0 
	3 0.25129640574301643 0.50160192007669235 0.75113975036973402 
	F 1 F 0 } I I #
point $-1 0 5 47.493723973484407 #
coedge $-1 $177 $173 $167 $202 reversed $206 $-1 #
edge $-1 $165 0 $169 47.493723973484407 $201 $217 forward 7 unknown #
face $-1 $-1 $168 $3 $-1 $218 reversed single #
point $-1 -4.4408920985006262e-015 5.0000000000000053 0 #
tcoedge-coedge $-1 $173 $195 $186 $214 forward $206 $219 -0.07666901010395577 499.96190964262411 #
loop $-1 $-1 $195 $175 #
straight-curve $-1 0 5 0 1 0 0 I I #
face $-1 $203 $187 $3 $-1 $220 forward single #
plane-surface $-1 150 5 250 0 1 0 1 0 0 forward_v I I I I #
intcurve-curve $-1 forward { surfintcur full nurbs 3 open 8 
	0 3 0.14347174467657536 1 0.28662758442146258 1 0.42950397981548516 1 0.57216114310570421 1 
	0.71469196348743369 1 0.85723516732888172 1 1 3 
	200 5 500 1 
	195.718622408594 5 475.45537318037708 1 
	185.87079014003402 5 427.10870927250602 0.99999999999999978 
	167.42904128222 5 356.60423550315295 1.0000000000000002 
	144.78293038725971 5.0000000000000009 288.52491289849235 1 
	117.50092508559615 5 223.11179105046565 0.99999999999999978 
	84.963979058373184 5 160.71848814736254 1 
	46.569843637192584 5.0000000000000009 101.68206139459663 0.99999999999999978 
	16.270888841813772 4.9999999999999991 65.127511539629509 1 
	0 5 47.493723973484407 1 
	0.001 
	plane 150 5 250 0 1 0 1 0 0 forward_v I I I I 
	spline forward { ref 10 } I I I I 
	nullbs 
	nurbs 3 open 8 
	0 3 0.14285714285714285 1 0.2857142857142857 1 0.4285714285714286 1 0.57142857142857151 1 
	0.71428571428571441 1 0.85714285714285721 1 1 3 
	0 1 1 
	0.047619047619047623 1 0.99999999999999989 
	0.14285714285714285 1 1 
	0.2857142857142857 1 1 
	0.4285714285714286 1 1 
	0.57142857142857151 1 0.99999999999999989 
	0.71428571428571419 1 1.0000000000000002 
	0.85714285714285698 1 0.99999999999999989 
	0.95238095238095244 1 0.99999999999999989 
	1 1 1 
	
	I I 
	0 
	0 
	6 0.14347174467657522 0.2866275844214628 0.42950397981548505 0.57216114310570432 0.7146919634874338 0.85723516732888183 
	} I I #
point $-1 200 5 500 #
pcurve $-1 0 forward { exppc nurbs 3 open 2 
	-9.4731986085702022 3 517.06893176383403 3 
	1 0 1 
	1 0.33333333333333331 1 
	1 0.66666666666666663 1 
	1 1 1 
	0.001 
	spline forward { ref 34 } I I I I 
	} 0 0 #
straight-curve $-1 510.69757341607942 93.475068934704211 500.5957261030922 -0.27285995445379208 -0.11462410798513045 -0.95520089987608769 F -9.4731986085702022 F 517.06893176383403 #
tedge-edge $-1 $159 -0.07666901010395577 $147 499.96190964262411 $186 $221 forward 7 unknown 0.038090357375892836 #
pcurve $-1 0 forward { exppc nurbs 3 open 2 
	-499.96190964262411 3 0.07666901010395577 3 
	0 1 1 
	0 0.66666666666666663 1 
	0 0.33333333333333331 1 
	0 0 1 
	0.001 
	spline forward { ref 34 } I I I I 
	} 0 0 #
straight-curve $-1 200 5 500 1 0 0 I I #
straight-curve $-1 0 5 47.493723973484407 0 0 -1 I I #
cone-surface $-1 0 100 500 0 0 -1 -95 0 0 1 I I 0 1 95 forward I I I I #
pcurve $-1 0 forward { exppc nubs 1 open 2 
	-0.07666901010395577 1 499.96190964262411 1 
	150 -250.07666901010396 
	150 249.96190964262411 
	0 
	plane 150 5 250 0 1 0 1 0 0 forward_v I I I I 
	} 0 0 #
spline-surface $-1 forward { ref 34 } I I I I #
straight-curve $-1 300 5 500 0 0 -1 F -0.07666901010395577 F 499.96190964262411 #
End-of-ACIS-data 