600 0 1 0           
109 GICL ACIS Healer - Source: /gicl/data5/repository/Sandia/Randy_Wilson/discriminator/5100-12/5100-12.sat - 6 0 18 ACIS 6.0.3 Solaris 24 Sat Apr 13 23:37:04 2002 
1 9.999999999999999547e-07 1.000000000000000036e-10 
body $-1 $1 $-1 $2 #
lump $-1 $-1 $3 $0 #
transform $-1 1 0 0 0 1 0 0 0 1 0 0 0 1 no_rotate no_reflect no_shear #
shell $-1 $-1 $-1 $4 $-1 $1 #
face $5 $6 $7 $3 $-1 $8 reversed single #
pid_name-sg-attrib $-1 $-1 $-1 $4 7 rwilson 784252905 1278 1 #
face $9 $10 $11 $3 $-1 $12 reversed single #
loop $-1 $13 $14 $4 #
cone-surface $-1 -0.02000000000000000042 -0.06199999999999999956 0 0 0 1 0.006000000000000000125 0 0 1 I I 0 1 0.006000000000000000125 forward I I I I #
pid_name-sg-attrib $-1 $-1 $-1 $6 7 rwilson 784252905 1279 1 #
face $15 $16 $17 $3 $-1 $18 forward single #
loop $-1 $19 $20 $6 #
cone-surface $-1 0.02000000000000000042 -0.06199999999999999956 0 0 0 1 0.006000000000000000125 0 0 1 I I 0 1 0.006000000000000000125 forward I I I I #
loop $-1 $-1 $21 $4 #
coedge $-1 $14 $14 $22 $23 forward $7 $-1 #
pid_name-sg-attrib $-1 $-1 $-1 $10 7 rwilson 784252905 1280 1 #
face $24 $25 $26 $3 $-1 $27 forward single #
loop $-1 $28 $29 $10 #
plane-surface $-1 0 0 0.01000000000000000021 0 0 1 1 0 0 forward_v I I I I #
loop $-1 $-1 $30 $6 #
coedge $-1 $20 $20 $31 $32 forward $11 $-1 #
coedge $-1 $21 $21 $33 $34 forward $13 $-1 #
coedge $-1 $22 $22 $14 $23 reversed $35 $-1 #
edge $-1 $36 -3.141592653589793116 $36 3.141592653589793116 $22 $37 forward 7 unknown #
pid_name-sg-attrib $-1 $-1 $-1 $16 7 rwilson 784252905 1281 1 #
face $38 $39 $40 $3 $-1 $41 reversed single #
loop $-1 $-1 $42 $16 #
plane-surface $-1 -0.02999999999999999889 -0.06983314773547880105 0 -1 0 0 0 0 1 forward_v I I I I #
loop $-1 $43 $44 $10 #
coedge $-1 $45 $46 $47 $48 reversed $17 $-1 #
coedge $-1 $30 $30 $44 $49 forward $19 $-1 #
coedge $-1 $31 $31 $20 $32 reversed $50 $-1 #
edge $-1 $51 -3.141592653589793116 $51 3.141592653589793116 $31 $52 forward 7 unknown #
coedge $-1 $33 $33 $21 $34 reversed $43 $-1 #
edge $-1 $53 -6.283185307179586232 $53 -0 $33 $54 reversed 7 unknown #
loop $-1 $-1 $22 $55 #
vertex $-1 $23 $56 #
ellipse-curve $-1 -0.02000000000000000042 -0.06199999999999999956 0 0 0 -1 -0.006000000000000000125 0 0 1 I I #
pid_name-sg-attrib $-1 $-1 $-1 $25 7 rwilson 784252905 1282 1 #
face $57 $58 $59 $3 $-1 $60 forward single #
loop $-1 $-1 $61 $25 #
cone-surface $-1 -0.05000000000000000278 -0.06983314773547880105 0 0 0 1 0.02000000000000000042 0 0 1 I I 0 1 0.02000000000000000042 forward I I I I #
coedge $-1 $62 $63 $64 $65 reversed $26 $-1 #
loop $-1 $-1 $33 $10 #
coedge $-1 $44 $44 $30 $49 reversed $28 $-1 #
coedge $-1 $66 $29 $67 $68 reversed $17 $-1 #
coedge $-1 $29 $69 $70 $71 reversed $17 $-1 #
coedge $-1 $72 $73 $29 $48 forward $74 $-1 #
edge $-1 $75 -5.924116604427188904 $76 -1.763211441223239517e-15 $29 $77 reversed 7 unknown #
edge $-1 $78 -6.283185307179586232 $78 -0 $44 $79 reversed 7 unknown #
loop $-1 $35 $31 $55 #
vertex $-1 $32 $80 #
ellipse-curve $-1 0.02000000000000000042 -0.06199999999999999956 0 0 0 -1 -0.006000000000000000125 0 0 1 I I #
vertex $-1 $34 $81 #
ellipse-curve $-1 -0.02000000000000000042 -0.06199999999999999956 0.01000000000000000021 0 0 -1 0.006000000000000000125 0 0 1 I I #
face $82 $-1 $83 $3 $-1 $84 reversed single #
point $-1 -0.01400000000000000029 -0.06199999999999999956 0 #
pid_name-sg-attrib $-1 $-1 $-1 $39 7 rwilson 784252905 1283 1 #
face $85 $86 $87 $3 $-1 $88 reversed single #
loop $-1 $-1 $89 $39 #
cone-surface $-1 0 0.005000000000000000104 0 0 0 1 0.07000000000000000666 0 0 1 I I 0 1 0.07000000000000000666 forward I I I I #
coedge $-1 $90 $91 $92 $93 reversed $40 $-1 #
coedge $-1 $92 $42 $94 $95 forward $26 $-1 #
coedge $-1 $42 $92 $96 $97 forward $26 $-1 #
coedge $-1 $98 $99 $42 $65 forward $100 $-1 #
edge $-1 $101 -0.01000000000000000021 $102 -0 $42 $103 reversed 7 unknown #
coedge $-1 $104 $45 $105 $106 reversed $17 $-1 #
coedge $-1 $107 $108 $45 $68 forward $109 $-1 #
edge $-1 $110 -0.01490009074417640578 $75 -0 $45 $111 reversed 7 unknown #
coedge $-1 $46 $94 $99 $112 reversed $17 $-1 #
coedge $-1 $113 $114 $46 $71 forward $115 $-1 #
edge $-1 $76 -0.01490009074417640578 $116 -0 $46 $117 reversed 7 unknown #
coedge $-1 $118 $47 $114 $119 forward $74 $-1 #
coedge $-1 $47 $118 $107 $120 reversed $74 $-1 #
loop $-1 $-1 $73 $121 #
vertex $-1 $120 $122 #
vertex $-1 $119 $123 #
ellipse-curve $-1 0 0 0.01000000000000000021 1.106328747434189946e-17 6.095861359073280345e-17 -1 -0.01000000000000000021 -0.05509990925582360088 -3.469446951953609952e-18 1 I I #
vertex $-1 $49 $124 #
ellipse-curve $-1 0.02000000000000000042 -0.06199999999999999956 0.01000000000000000021 0 0 -1 0.006000000000000000125 0 0 1 I I #
point $-1 0.02599999999999999881 -0.06199999999999999956 0 #
point $-1 -0.01400000000000000029 -0.06199999999999999956 0.01000000000000000021 #
pid_name-sg-attrib $-1 $-1 $-1 $55 7 rwilson 784252905 1291 1 #
loop $-1 $50 $125 $55 #
plane-surface $-1 0 0 0 0 0 1 1 0 0 forward_v I I I I #
pid_name-sg-attrib $-1 $-1 $-1 $58 7 rwilson 784252905 1284 1 #
face $126 $127 $128 $3 $-1 $129 forward single #
loop $-1 $-1 $130 $58 #
cone-surface $-1 0.05000000000000000278 -0.06983314773547880105 0 0 0 1 0.02000000000000000042 0 0 1 I I 0 1 0.02000000000000000042 forward I I I I #
coedge $-1 $131 $132 $133 $134 reversed $59 $-1 #
coedge $-1 $133 $61 $135 $136 forward $40 $-1 #
coedge $-1 $61 $133 $137 $138 forward $40 $-1 #
coedge $-1 $63 $62 $61 $93 forward $26 $-1 #
edge $-1 $139 -0.01000000000000000021 $140 -0 $61 $141 reversed 7 unknown #
coedge $-1 $69 $135 $62 $95 reversed $17 $-1 #
edge $-1 $101 -0.0001668522645211084621 $139 9.714451465470119729e-17 $94 $142 reversed 7 unknown #
coedge $-1 $137 $125 $63 $97 reversed $83 $-1 #
edge $-1 $140 -9.714451465470119729e-17 $102 0.0001668522645211084621 $96 $143 forward 7 unknown #
coedge $-1 $144 $64 $125 $145 forward $100 $-1 #
coedge $-1 $64 $144 $69 $112 forward $100 $-1 #
loop $-1 $-1 $144 $146 #
vertex $-1 $65 $147 #
vertex $-1 $65 $148 #
straight-curve $-1 -0.02999999999999999889 -0.07000000000000000666 0 0 0 1 I I #
coedge $-1 $149 $66 $150 $151 reversed $17 $-1 #
coedge $-1 $152 $153 $66 $106 forward $154 $-1 #
edge $-1 $155 -0.01999999999999999695 $110 -0 $66 $156 reversed 7 unknown #
coedge $-1 $157 $67 $73 $120 forward $109 $-1 #
coedge $-1 $67 $157 $152 $158 reversed $109 $-1 #
loop $-1 $-1 $108 $159 #
vertex $-1 $158 $160 #
straight-curve $-1 0.01000000000000000021 -0.05509990925582360088 0.01000000000000000021 0 -1 0 I I #
edge $-1 $116 -0.01999999999999999695 $101 -0 $69 $161 reversed 7 unknown #
coedge $-1 $162 $70 $144 $163 reversed $115 $-1 #
coedge $-1 $70 $162 $72 $119 reversed $115 $-1 #
loop $-1 $-1 $114 $164 #
vertex $-1 $163 $165 #
straight-curve $-1 -0.01000000000000000021 -0.07000000000000000666 0.01000000000000000021 0 1 0 I I #
coedge $-1 $73 $72 $166 $167 forward $74 $-1 #
edge $-1 $76 -0.01000000000000000021 $168 -0 $114 $169 reversed 7 unknown #
edge $-1 $75 -0.01000000000000000021 $170 -0 $73 $171 reversed 7 unknown #
face $172 $164 $74 $3 $-1 $173 reversed single #
point $-1 0.009999999999999979391 -0.05509990925582360088 0.01000000000000000021 #
point $-1 -0.01000000000000010082 -0.05509990925582360088 0.01000000000000000021 #
point $-1 0.02599999999999999881 -0.06199999999999999956 0.01000000000000000021 #
coedge $-1 $96 $174 $98 $145 reversed $83 $-1 #
pid_name-sg-attrib $-1 $-1 $-1 $86 7 rwilson 784252905 1285 1 #
face $175 $159 $154 $3 $-1 $176 forward single #
loop $-1 $-1 $177 $86 #
plane-surface $-1 0.02999999999999999889 -0.07000000000000000666 0 1 0 0 0 0 -1 forward_v I I I I #
coedge $-1 $178 $179 $180 $181 reversed $87 $-1 #
coedge $-1 $180 $89 $182 $183 forward $59 $-1 #
coedge $-1 $89 $180 $184 $185 forward $59 $-1 #
coedge $-1 $91 $90 $89 $134 forward $40 $-1 #
edge $-1 $186 -0.01000000000000000021 $187 -0 $89 $188 reversed 7 unknown #
coedge $-1 $94 $182 $90 $136 reversed $17 $-1 #
edge $-1 $139 -0.9817653565786242931 $186 -2.778268066994109845e-15 $135 $189 reversed 7 unknown #
coedge $-1 $184 $96 $91 $138 reversed $83 $-1 #
edge $-1 $187 2.778268066994109845e-15 $140 0.9817653565786242931 $137 $190 forward 7 unknown #
vertex $-1 $93 $191 #
vertex $-1 $93 $192 #
straight-curve $-1 -0.02999999999999999889 -0.06983314773547880105 0 0 0 1 I I #
straight-curve $-1 -0.02999999999999999889 -0.0698331477354788982 0.01000000000000000021 0 -1 0 I I #
straight-curve $-1 -0.02999999999999999889 -0.0698331477354788982 0 0 -1 0 I I #
coedge $-1 $99 $98 $113 $163 forward $100 $-1 #
edge $-1 $102 0 $193 0.01999999999999999695 $125 $194 forward 7 unknown #
face $195 $55 $100 $3 $-1 $196 forward single #
point $-1 -0.02999999999999999889 -0.07000000000000000666 0.01000000000000000021 #
point $-1 -0.02999999999999999889 -0.07000000000000000666 0 #
coedge $-1 $182 $104 $178 $197 reversed $17 $-1 #
coedge $-1 $198 $177 $104 $151 forward $128 $-1 #
edge $-1 $199 -0.0001668522645212056066 $155 -0 $104 $200 reversed 7 unknown #
coedge $-1 $201 $105 $108 $158 forward $154 $-1 #
coedge $-1 $105 $201 $198 $202 reversed $154 $-1 #
loop $-1 $-1 $153 $127 #
vertex $-1 $202 $203 #
straight-curve $-1 0.01000000000000000021 -0.07000000000000000666 0.01000000000000000021 1 0 0 I I #
coedge $-1 $108 $107 $204 $205 forward $109 $-1 #
edge $-1 $110 -0.01000000000000000021 $206 -0 $108 $207 reversed 7 unknown #
face $208 $121 $109 $3 $-1 $209 forward single #
point $-1 0.01000000000000000021 -0.07000000000000000666 0.01000000000000000021 #
straight-curve $-1 -0.02999999999999999889 -0.07000000000000000666 0.01000000000000000021 1 0 0 I I #
coedge $-1 $114 $113 $174 $210 forward $115 $-1 #
edge $-1 $193 0 $116 0.01000000000000000021 $113 $211 forward 7 unknown #
face $212 $146 $115 $3 $-1 $213 forward single #
point $-1 -0.01000000000000000021 -0.07000000000000000666 0.01000000000000000021 #
coedge $-1 $174 $204 $118 $167 reversed $83 $-1 #
edge $-1 $168 1.763211441223239517e-15 $170 5.924116604427188904 $166 $214 forward 7 unknown #
vertex $-1 $119 $215 #
straight-curve $-1 -0.01000000000000010082 -0.05509990925582360088 0 0 0 1 I I #
vertex $-1 $120 $216 #
straight-curve $-1 0.009999999999999979391 -0.05509990925582360088 0 0 0 1 I I #
pid_name-sg-attrib $-1 $-1 $-1 $121 7 rwilson 784252905 1288 1 #
cone-surface $-1 0 0 0 0 0 1 0.05600000000000000117 0 0 1 I I 0 1 0.05600000000000000117 forward I I I I #
coedge $-1 $125 $166 $162 $210 reversed $83 $-1 #
pid_name-sg-attrib $-1 $-1 $-1 $127 7 rwilson 784252905 1286 1 #
plane-surface $-1 0.01000000000000000021 -0.07000000000000000666 0 0 -1 0 0 0 -1 forward_v I I I I #
coedge $-1 $150 $217 $218 $219 reversed $128 $-1 #
coedge $-1 $218 $130 $149 $197 forward $87 $-1 #
coedge $-1 $130 $218 $220 $221 forward $87 $-1 #
coedge $-1 $132 $131 $130 $181 forward $59 $-1 #
edge $-1 $222 -0.01000000000000000021 $223 -0 $130 $224 reversed 7 unknown #
coedge $-1 $135 $149 $131 $183 reversed $17 $-1 #
edge $-1 $186 -5.105123366747039704 $222 -1.239088197126290669e-15 $182 $225 reversed 7 unknown #
coedge $-1 $220 $137 $132 $185 reversed $83 $-1 #
edge $-1 $223 1.239088197126290669e-15 $187 5.105123366747039704 $184 $226 forward 7 unknown #
vertex $-1 $134 $227 #
vertex $-1 $134 $228 #
straight-curve $-1 -0.03888888888888890338 -0.0532035593498169021 0 0 0 1 I I #
ellipse-curve $-1 -0.05000000000000000278 -0.06983314773547880105 0.01000000000000000021 0 0 -1 0.01111111111111109939 0.01662958838566199957 0 1 I I #
ellipse-curve $-1 -0.05000000000000000278 -0.06983314773547880105 0 0 0 -1 0.01111111111111109939 0.01662958838566199957 0 1 I I #
point $-1 -0.02999999999999999889 -0.06983314773547880105 0.01000000000000000021 #
point $-1 -0.02999999999999999889 -0.06983314773547880105 0 #
vertex $-1 $163 $229 #
straight-curve $-1 -0.02999999999999999889 -0.07000000000000000666 0 1 0 0 I I #
pid_name-sg-attrib $-1 $-1 $-1 $146 7 rwilson 784252905 1290 1 #
plane-surface $-1 -0.02999999999999999889 -0.07000000000000000666 0 0 -1 0 0 0 -1 forward_v I I I I #
edge $-1 $222 -0.9817653565786229608 $199 -1.387778780781444887e-15 $149 $230 reversed 7 unknown #
coedge $-1 $217 $150 $153 $202 forward $128 $-1 #
vertex $-1 $219 $231 #
straight-curve $-1 0.02999999999999999889 -0.07000000000000000666 0.01000000000000000021 0 1 0 I I #
coedge $-1 $153 $152 $232 $233 forward $154 $-1 #
edge $-1 $155 -0.01000000000000000021 $234 -0 $153 $235 reversed 7 unknown #
point $-1 0.02999999999999999889 -0.07000000000000000666 0.01000000000000000021 #
coedge $-1 $166 $232 $157 $205 reversed $83 $-1 #
edge $-1 $170 0 $206 0.01490009074417640578 $204 $236 forward 7 unknown #
vertex $-1 $158 $237 #
straight-curve $-1 0.01000000000000000021 -0.07000000000000000666 0 0 0 1 I I #
pid_name-sg-attrib $-1 $-1 $-1 $159 7 rwilson 784252905 1287 1 #
plane-surface $-1 0.01000000000000000021 -0.05509990925582360088 0 -1 0 0 0 0 1 forward_v I I I I #
edge $-1 $193 0 $168 0.01490009074417640578 $174 $238 forward 7 unknown #
straight-curve $-1 -0.01000000000000000021 -0.07000000000000000666 0 0 0 1 I I #
pid_name-sg-attrib $-1 $-1 $-1 $164 7 rwilson 784252905 1289 1 #
plane-surface $-1 -0.01000000000000000021 -0.07000000000000000666 0 1 0 0 0 0 -1 forward_v I I I I #
ellipse-curve $-1 0 0 0 0 0 -1 -0.01000000000000000021 -0.05509990925582360088 0 1 I I #
point $-1 -0.01000000000000010082 -0.05509990925582360088 0 #
point $-1 0.009999999999999979391 -0.05509990925582360088 0 #
coedge $-1 $177 $198 $239 $240 forward $128 $-1 #
coedge $-1 $179 $178 $177 $219 forward $87 $-1 #
edge $-1 $199 -0.01000000000000000021 $241 -0 $177 $242 reversed 7 unknown #
coedge $-1 $239 $184 $179 $221 reversed $83 $-1 #
edge $-1 $241 1.387778780781444887e-15 $223 0.9817653565786229608 $220 $243 forward 7 unknown #
vertex $-1 $181 $244 #
vertex $-1 $181 $245 #
straight-curve $-1 0.03888888888888890338 -0.0532035593498169021 0 0 0 1 I I #
ellipse-curve $-1 0 0.005000000000000000104 0.01000000000000000021 2.753529326947310153e-17 -4.121105338348439824e-17 1 0.0388888888888887993 -0.0582035593498168996 -3.469446951953609952e-18 1 I I #
ellipse-curve $-1 0 0.005000000000000000104 0 0 0 1 0.0388888888888887993 -0.0582035593498168996 0 1 I I #
point $-1 -0.03888888888888890338 -0.0532035593498169021 0.01000000000000000021 #
point $-1 -0.03888888888888890338 -0.0532035593498169021 0 #
point $-1 -0.01000000000000000021 -0.07000000000000000666 0 #
ellipse-curve $-1 0.05000000000000000278 -0.06983314773547880105 0.01000000000000000021 0 0 -1 -0.02000000000000000042 -2.775557561562890118e-17 0 1 I I #
point $-1 0.02999999999999999889 -0.06983314773547880105 0.01000000000000000021 #
coedge $-1 $204 $239 $201 $233 reversed $83 $-1 #
edge $-1 $206 0 $234 0.01999999999999999695 $232 $246 forward 7 unknown #
vertex $-1 $202 $247 #
straight-curve $-1 0.02999999999999999889 -0.07000000000000000666 0 0 0 1 I I #
straight-curve $-1 0.01000000000000000021 -0.05509990925582360088 0 0 -1 0 I I #
point $-1 0.01000000000000000021 -0.07000000000000000666 0 #
straight-curve $-1 -0.01000000000000000021 -0.07000000000000000666 0 0 1 0 I I #
coedge $-1 $232 $220 $217 $240 reversed $83 $-1 #
edge $-1 $234 0 $241 0.0001668522645212056066 $239 $248 forward 7 unknown #
vertex $-1 $219 $249 #
straight-curve $-1 0.02999999999999999889 -0.06983314773547880105 0 0 0 1 I I #
ellipse-curve $-1 0.05000000000000000278 -0.06983314773547880105 0 0 0 -1 -0.02000000000000000042 -2.775557561562890118e-17 0 1 I I #
point $-1 0.03888888888888890338 -0.0532035593498169021 0.01000000000000000021 #
point $-1 0.03888888888888890338 -0.0532035593498169021 0 #
straight-curve $-1 0.01000000000000000021 -0.07000000000000000666 0 1 0 0 I I #
point $-1 0.02999999999999999889 -0.07000000000000000666 0 #
straight-curve $-1 0.02999999999999999889 -0.07000000000000000666 0 0 1 0 I I #
point $-1 0.02999999999999999889 -0.06983314773547880105 0 #
End-of-ACIS-data 