600 0 2 0           
24 FBMach with ACIS - 6.0.3 13 ACIS 6.0.3 NT 24 Wed May 23 19:17:57 2001 
1 9.9999999999999995e-007 1e-010 
body $2 $3 $-1 $4 #
bdycol-kcp $-1 1 4 $5 $6 $7 $8 #
model_id-kcp-attrib $-1 $-1 $-1 $0 1 990659877 90 -1705377791 1 #
lump $-1 $-1 $9 $0 #
transform $-1 1 0 0 0 1 0 0 0 1 0 0 0 1 no_rotate no_reflect no_shear #
body $10 $11 $-1 $12 #
body $13 $14 $-1 $15 #
body $16 $17 $-1 $18 #
body $19 $20 $-1 $21 #
shell $-1 $-1 $-1 $22 $-1 $3 #
model_id-kcp-attrib $-1 $-1 $-1 $5 1 990659877 90 -1705377790 1 #
lump $-1 $-1 $23 $5 #
transform $-1 1 0 0 0 1 0 0 0 1 0 0.0024999999999999883 0.0050000000000000018 1 no_rotate no_reflect no_shear #
rgb_color-st-attrib $-1 $24 $-1 $6 0.5 1 1 #
lump $-1 $-1 $25 $6 #
transform $-1 1 0 0 0 1 0 0 0 1 -0.02 -0.062 0.0050000000000000001 1 no_rotate no_reflect no_shear #
rgb_color-st-attrib $-1 $26 $-1 $7 0.5 1 1 #
lump $-1 $-1 $27 $7 #
transform $-1 1 0 0 0 1 0 0 0 1 0.02 -0.062 0.0050000000000000001 1 no_rotate no_reflect no_shear #
rgb_color-st-attrib $-1 $28 $-1 $8 0.5 1 1 #
lump $-1 $29 $30 $8 #
transform $-1 1 0 0 0 1 0 0 0 1 0 0.0024999999999999883 0.0050000000000000018 1 no_rotate no_reflect no_shear #
face $31 $32 $33 $9 $-1 $34 reversed single #
shell $-1 $-1 $-1 $35 $-1 $11 #
model_id-kcp-attrib $-1 $-1 $13 $6 1 990659877 120 -1703411709 1 #
shell $-1 $-1 $-1 $36 $-1 $14 #
model_id-kcp-attrib $-1 $-1 $16 $7 1 990659877 130 -1702756348 1 #
shell $-1 $-1 $-1 $37 $-1 $17 #
model_id-kcp-attrib $-1 $-1 $19 $8 1 990659877 280 -1709703163 1 #
lump $-1 $-1 $38 $8 #
shell $-1 $-1 $-1 $39 $-1 $20 #
model_id-kcp-attrib $-1 $40 $-1 $22 1 990659877 90 -1705377791 2 #
face $41 $42 $43 $9 $-1 $44 reversed single #
loop $45 $46 $47 $22 #
cone-surface $-1 -0.02 -0.062 0 0 0 1 0.0060000000000000001 0 0 1 I I 0 1 0.0060000000000000001 forward I I I I #
face $48 $49 $50 $23 $-1 $51 forward single #
face $-1 $52 $53 $25 $-1 $54 forward single #
face $-1 $55 $56 $27 $-1 $57 forward single #
shell $-1 $-1 $-1 $58 $-1 $29 #
face $-1 $59 $60 $30 $-1 $61 reversed single #
pid_name-sg-attrib $-1 $-1 $31 $22 7 114 119 105 108 115 111 110 784252905 1278 1 #
model_id-kcp-attrib $-1 $62 $-1 $32 1 990659877 90 -1705377791 3 #
face $63 $64 $65 $9 $-1 $66 forward single #
loop $67 $68 $69 $32 #
cone-surface $-1 0.02 -0.062 0 0 0 1 0.0060000000000000001 0 0 1 I I 0 1 0.0060000000000000001 forward I I I I #
model_id-kcp-attrib $-1 $-1 $-1 $33 1 990659877 90 -1705377791 20 #
loop $70 $-1 $71 $22 #
coedge $-1 $47 $47 $72 $73 forward $33 $-1 #
model_id-kcp-attrib $-1 $-1 $-1 $35 1 990659877 90 -1705377790 2 #
face $74 $75 $76 $23 $-1 $77 reversed single #
loop $-1 $-1 $78 $35 #
plane-surface $-1 0 0 0.0050000000000000018 0 0 1 1 0 0 forward_v I I I I #
face $-1 $79 $80 $25 $-1 $81 forward single #
loop $-1 $82 $83 $36 #
cone-surface $-1 0 0 0 0 0 1 0.0060000000000000001 0 0 1 I I 0 1 0.0060000000000000001 forward I I I I #
face $-1 $84 $85 $27 $-1 $86 forward single #
loop $-1 $87 $88 $37 #
cone-surface $-1 0 0 0 0 0 1 0.0060000000000000001 0 0 1 I I 0 1 0.0060000000000000001 forward I I I I #
face $-1 $89 $90 $38 $-1 $91 forward single #
face $-1 $92 $93 $30 $-1 $94 reversed single #
loop $-1 $-1 $95 $39 #
plane-surface $-1 -0.029999999999999999 -0.072499999999999995 0.0049999999999999984 -1 0 0 0 0 1 forward_v I I I I #
pid_name-sg-attrib $-1 $-1 $41 $32 7 114 119 105 108 115 111 110 784252905 1279 1 #
model_id-kcp-attrib $-1 $96 $-1 $42 1 990659877 90 -1705377791 16 #
face $97 $98 $99 $9 $-1 $100 forward single #
loop $-1 $101 $102 $42 #
plane-surface $-1 0 0 0.01 0 0 1 1 0 0 forward_v I I I I #
model_id-kcp-attrib $-1 $-1 $-1 $43 1 990659877 90 -1705377791 27 #
loop $103 $-1 $104 $32 #
coedge $-1 $69 $69 $105 $106 forward $43 $-1 #
model_id-kcp-attrib $-1 $-1 $-1 $46 1 990659877 90 -1705377791 21 #
coedge $-1 $71 $71 $107 $108 forward $46 $-1 #
coedge $-1 $72 $72 $47 $73 reversed $109 $-1 #
edge $110 $111 -3.1415926535897931 $111 3.1415926535897931 $72 $112 forward 7 unknown #
model_id-kcp-attrib $-1 $-1 $-1 $49 1 990659877 90 -1705377790 5 #
face $113 $114 $115 $23 $-1 $116 reversed single #
loop $-1 $-1 $117 $49 #
plane-surface $-1 0 0 -0.0050000000000000018 0 0 1 1 0 0 forward_v I I I I #
coedge $-1 $118 $119 $120 $121 forward $50 $-1 #
face $-1 $-1 $122 $25 $-1 $123 forward single #
loop $-1 $-1 $124 $52 #
plane-surface $-1 0 0 -0.0050000000000000001 0 0 -1 -1 0 0 forward_v I I I I #
loop $-1 $-1 $125 $36 #
coedge $-1 $83 $83 $124 $126 reversed $53 $-1 #
face $-1 $-1 $127 $27 $-1 $128 forward single #
loop $-1 $-1 $129 $55 #
plane-surface $-1 0 0 -0.0050000000000000001 0 0 -1 -1 0 0 forward_v I I I I #
loop $-1 $-1 $130 $37 #
coedge $-1 $88 $88 $129 $131 reversed $56 $-1 #
face $-1 $132 $133 $38 $-1 $134 reversed single #
loop $-1 $-1 $135 $58 #
plane-surface $-1 0 0 0.0050000000000000018 0 0 1 1 0 0 forward_v I I I I #
face $-1 $136 $137 $30 $-1 $138 reversed single #
loop $-1 $-1 $139 $59 #
cone-surface $-1 -0.05000000000000001 -0.072333147735478789 0.0049999999999999984 0 0 1 0.011111111111111155 0.016629588385661975 0 1 I I 0 -1 0.020000000000000039 forward I I I I #
coedge $-1 $140 $141 $142 $143 reversed $60 $-1 #
model_id-kcp-attrib $-1 $144 $63 $42 1 990659877 90 -1705377791 4 #
model_id-kcp-attrib $-1 $145 $-1 $64 1 990659877 90 -1705377791 5 #
face $146 $147 $148 $9 $-1 $149 reversed single #
loop $-1 $-1 $150 $64 #
plane-surface $-1 -0.029999999999999999 -0.069833147735478801 0 -1 0 0 0 0 1 forward_v I I I I #
loop $151 $152 $153 $42 #
coedge $-1 $154 $155 $156 $157 reversed $65 $-1 #
model_id-kcp-attrib $-1 $-1 $-1 $68 1 990659877 90 -1705377791 28 #
coedge $-1 $104 $104 $153 $158 forward $68 $-1 #
coedge $-1 $105 $105 $69 $106 reversed $159 $-1 #
edge $160 $161 -3.1415926535897931 $161 3.1415926535897931 $105 $162 forward 7 unknown #
coedge $-1 $107 $107 $71 $108 reversed $152 $-1 #
edge $163 $164 -6.2831853071795862 $164 0 $107 $165 reversed 7 unknown #
loop $166 $-1 $72 $167 #
attrib_edge_convexity-kcp-attrib $-1 $168 $-1 $73 1 #
vertex $169 $73 $170 #
ellipse-curve $-1 -0.02 -0.062 0 0 0 -1 -0.0060000000000000001 0 0 1 I I #
model_id-kcp-attrib $-1 $171 $-1 $75 1 990659877 90 -1705377790 4 #
face $-1 $172 $173 $23 $-1 $174 reversed single #
loop $-1 $-1 $175 $75 #
plane-surface $-1 0 -0.072499999999999995 0 0 1 0 0 0 1 forward_v I I I I #
coedge $-1 $176 $177 $178 $179 forward $76 $-1 #
coedge $-1 $180 $78 $181 $182 forward $50 $-1 #
coedge $-1 $78 $180 $183 $184 forward $50 $-1 #
coedge $-1 $185 $186 $78 $121 reversed $187 $-1 #
edge $-1 $188 -0.072499999999999995 $189 0.072499999999999995 $120 $190 forward 7 unknown #
loop $-1 $-1 $191 $79 #
plane-surface $-1 0 0 0.0050000000000000001 0 0 1 1 0 0 forward_v I I I I #
coedge $-1 $124 $124 $83 $126 forward $80 $-1 #
coedge $-1 $125 $125 $191 $192 reversed $82 $-1 #
edge $-1 $193 0 $193 6.2831853071795862 $124 $194 forward 7 unknown #
loop $-1 $-1 $195 $84 #
plane-surface $-1 0 0 0.0050000000000000001 0 0 1 1 0 0 forward_v I I I I #
coedge $-1 $129 $129 $88 $131 forward $85 $-1 #
coedge $-1 $130 $130 $195 $196 reversed $87 $-1 #
edge $-1 $197 0 $197 6.2831853071795862 $129 $198 forward 7 unknown #
face $-1 $199 $200 $38 $-1 $201 reversed single #
loop $-1 $-1 $202 $89 #
plane-surface $-1 0 0 -0.0050000000000000018 0 0 1 1 0 0 forward_v I I I I #
coedge $-1 $203 $204 $205 $206 forward $90 $-1 #
face $-1 $207 $208 $30 $-1 $138 reversed single #
loop $-1 $-1 $209 $92 #
cone-surface $-1 -3.4926023551763981e-018 0.0025000000000000092 0.0049999999999999984 0 0 1 0.038888888888888876 -0.058203559349816851 0 1 I I 0 1 0.069999999999999979 forward I I I I #
coedge $-1 $210 $211 $212 $213 reversed $93 $-1 #
coedge $-1 $214 $95 $215 $216 reversed $60 $-1 #
coedge $-1 $95 $214 $210 $217 reversed $60 $-1 #
coedge $-1 $212 $218 $95 $143 forward $219 $-1 #
edge $-1 $220 -0.036249999999999998 $221 -0.036083147735478792 $142 $222 forward 7 unknown #
pid_name-sg-attrib $-1 $-1 $96 $42 7 114 119 105 108 115 111 110 784252905 1280 1 #
pid_name-sg-attrib $-1 $-1 $97 $64 7 114 119 105 108 115 111 110 784252905 1281 1 #
model_id-kcp-attrib $-1 $223 $-1 $98 1 990659877 90 -1705377791 6 #
face $224 $225 $226 $9 $-1 $227 forward single #
loop $-1 $-1 $228 $98 #
cone-surface $-1 -0.050000000000000003 -0.069833147735478801 0 0 0 1 0.02 0 0 1 I I 0 1 0.02 forward I I I I #
coedge $-1 $229 $230 $231 $232 reversed $99 $-1 #
model_id-kcp-attrib $-1 $-1 $-1 $101 1 990659877 90 -1705377791 30 #
loop $233 $-1 $107 $42 #
coedge $-1 $153 $153 $104 $158 reversed $101 $-1 #
coedge $-1 $234 $102 $235 $236 reversed $65 $-1 #
coedge $-1 $102 $237 $238 $239 reversed $65 $-1 #
coedge $-1 $240 $241 $102 $157 forward $242 $-1 #
edge $243 $244 -5.9241166044271889 $245 -1.7632114412232395e-015 $102 $246 reversed 7 unknown #
edge $247 $248 -6.2831853071795862 $248 0 $153 $249 reversed 7 unknown #
loop $250 $109 $105 $167 #
attrib_edge_convexity-kcp-attrib $-1 $251 $-1 $106 1 #
vertex $252 $106 $253 #
ellipse-curve $-1 0.02 -0.062 0 0 0 -1 -0.0060000000000000001 0 0 1 I I #
attrib_edge_convexity-kcp-attrib $-1 $254 $-1 $108 1 #
vertex $255 $108 $256 #
ellipse-curve $-1 -0.02 -0.062 0.01 0 0 -1 0.0060000000000000001 0 0 1 I I #
model_id-kcp-attrib $-1 $-1 $-1 $109 1 990659877 90 -1705377791 22 #
face $257 $-1 $258 $9 $-1 $259 reversed single #
convexity-sys-attrib $-1 $-1 $110 $73 #
model_id-kcp-attrib $-1 $-1 $-1 $111 1 990659877 90 -1705377791 24 #
point $-1 -0.014 -0.062 0 #
model_id-kcp-attrib $-1 $-1 $113 $75 1 990659877 90 -1705377790 3 #
face $-1 $260 $261 $23 $-1 $262 reversed single #
loop $-1 $-1 $263 $114 #
plane-surface $-1 -0.069999999999999979 0 0 1 0 0 0 0 -1 forward_v I I I I #
coedge $-1 $264 $183 $265 $266 forward $115 $-1 #
coedge $-1 $267 $117 $264 $268 forward $76 $-1 #
coedge $-1 $117 $267 $269 $270 forward $76 $-1 #
coedge $-1 $186 $185 $117 $179 reversed $187 $-1 #
edge $-1 $271 -0.072499999999999995 $272 0.072499999999999995 $178 $273 forward 7 unknown #
coedge $-1 $119 $118 $274 $275 forward $50 $-1 #
coedge $-1 $276 $277 $118 $182 reversed $261 $-1 #
edge $-1 $189 -0.069999999999999979 $278 0.069999999999999979 $181 $279 forward 7 unknown #
coedge $-1 $175 $280 $119 $184 reversed $115 $-1 #
edge $-1 $281 -0.069999999999999979 $188 0.069999999999999979 $183 $282 forward 7 unknown #
coedge $-1 $178 $120 $280 $283 forward $187 $-1 #
coedge $-1 $120 $178 $276 $284 reversed $187 $-1 #
loop $-1 $-1 $185 $260 #
vertex $-1 $121 $285 #
vertex $-1 $121 $286 #
straight-curve $-1 0.069999999999999979 0 0.0050000000000000018 0 1 0 I I #
coedge $-1 $191 $191 $125 $192 forward $122 $-1 #
edge $-1 $287 0 $287 6.2831853071795862 $191 $288 forward 7 unknown #
vertex $-1 $126 $289 #
ellipse-curve $-1 0 0 -0.0050000000000000001 0 0 -1 0.0060000000000000001 0 0 1 I I #
coedge $-1 $195 $195 $130 $196 forward $127 $-1 #
edge $-1 $290 0 $290 6.2831853071795862 $195 $291 forward 7 unknown #
vertex $-1 $131 $292 #
ellipse-curve $-1 0 0 -0.0050000000000000001 0 0 -1 0.0060000000000000001 0 0 1 I I #
face $-1 $293 $294 $38 $-1 $295 reversed single #
loop $-1 $-1 $296 $132 #
plane-surface $-1 0 -0.072499999999999995 0 0 1 0 0 0 1 forward_v I I I I #
coedge $-1 $297 $298 $299 $300 forward $133 $-1 #
coedge $-1 $301 $135 $302 $303 forward $90 $-1 #
coedge $-1 $135 $301 $304 $305 forward $90 $-1 #
coedge $-1 $306 $307 $135 $206 reversed $294 $-1 #
edge $-1 $308 0.028799954627911784 $309 0.043700045372088214 $135 $310 forward 7 unknown #
face $-1 $311 $312 $30 $-1 $138 reversed single #
loop $-1 $-1 $313 $136 #
coedge $-1 $314 $315 $316 $317 reversed $137 $-1 #
coedge $-1 $318 $139 $141 $217 forward $93 $-1 #
coedge $-1 $139 $318 $314 $319 reversed $93 $-1 #
coedge $-1 $316 $142 $139 $213 forward $219 $-1 #
edge $-1 $221 -0.9817653565786213 $320 -2.7105054312137507e-016 $212 $321 forward 7 unknown #
coedge $-1 $141 $140 $322 $323 reversed $60 $-1 #
coedge $-1 $324 $325 $140 $216 forward $326 $-1 #
edge $-1 $327 -0.0075000000000000015 $220 0.0025000000000000027 $215 $328 forward 7 unknown #
edge $-1 $221 -3.4694469519536142e-018 $329 0.01 $141 $330 forward 7 unknown #
coedge $-1 $142 $331 $324 $332 forward $219 $-1 #
loop $-1 $-1 $142 $333 #
vertex $-1 $143 $334 #
vertex $-1 $143 $335 #
straight-curve $-1 -0.029999999999999999 -0.036249999999999998 0.0050000000000000018 0 1 0 I I #
pid_name-sg-attrib $-1 $-1 $146 $98 7 114 119 105 108 115 111 110 784252905 1282 1 #
model_id-kcp-attrib $-1 $336 $-1 $147 1 990659877 90 -1705377791 7 #
face $337 $338 $339 $9 $-1 $340 reversed single #
loop $-1 $-1 $341 $147 #
cone-surface $-1 0 0.0050000000000000001 0 0 0 1 0.070000000000000007 0 0 1 I I 0 1 0.070000000000000007 forward I I I I #
coedge $-1 $342 $343 $344 $345 reversed $148 $-1 #
coedge $-1 $344 $150 $346 $347 forward $99 $-1 #
coedge $-1 $150 $344 $348 $349 forward $99 $-1 #
coedge $-1 $350 $351 $150 $232 forward $352 $-1 #
edge $-1 $353 -0.01 $354 0 $150 $355 reversed 7 unknown #
model_id-kcp-attrib $-1 $-1 $-1 $152 1 990659877 90 -1705377791 23 #
coedge $-1 $356 $154 $357 $358 reversed $65 $-1 #
coedge $-1 $359 $360 $154 $236 forward $361 $-1 #
edge $362 $363 -0.014900090744176406 $244 0 $154 $364 reversed 7 unknown #
coedge $-1 $155 $346 $351 $365 reversed $65 $-1 #
coedge $-1 $366 $367 $155 $239 forward $368 $-1 #
edge $369 $245 -0.014900090744176406 $370 0 $155 $371 reversed 7 unknown #
coedge $-1 $372 $156 $367 $373 forward $242 $-1 #
coedge $-1 $156 $372 $359 $374 reversed $242 $-1 #
loop $-1 $-1 $241 $375 #
attrib_edge_convexity-kcp-attrib $-1 $376 $-1 $157 1 #
vertex $-1 $374 $377 #
vertex $-1 $373 $378 #
ellipse-curve $-1 0 0 0.01 1.1063287474341899e-017 6.0958613590732803e-017 -1 -0.01 -0.055099909255823601 -3.46944695195361e-018 1 I I #
attrib_edge_convexity-kcp-attrib $-1 $379 $-1 $158 1 #
vertex $380 $158 $381 #
ellipse-curve $-1 0.02 -0.062 0.01 0 0 -1 0.0060000000000000001 0 0 1 I I #
model_id-kcp-attrib $-1 $-1 $-1 $159 1 990659877 90 -1705377791 29 #
convexity-sys-attrib $-1 $-1 $160 $106 #
model_id-kcp-attrib $-1 $-1 $-1 $161 1 990659877 90 -1705377791 31 #
point $-1 0.025999999999999999 -0.062 0 #
convexity-sys-attrib $-1 $-1 $163 $108 #
model_id-kcp-attrib $-1 $-1 $-1 $164 1 990659877 90 -1705377791 25 #
point $-1 -0.014 -0.062 0.01 #
model_id-kcp-attrib $-1 $382 $-1 $167 1 990659877 90 -1705377791 26 #
loop $-1 $159 $383 $167 #
plane-surface $-1 0 0 0 0 0 1 1 0 0 forward_v I I I I #
face $-1 $-1 $187 $23 $-1 $384 reversed single #
loop $-1 $-1 $276 $172 #
plane-surface $-1 0 0.072499999999999995 0 0 -1 0 0 0 -1 forward_v I I I I #
coedge $-1 $385 $274 $277 $386 forward $173 $-1 #
coedge $-1 $280 $175 $176 $268 reversed $115 $-1 #
coedge $-1 $274 $385 $175 $266 reversed $173 $-1 #
edge $-1 $281 -0.0050000000000000018 $387 0.0050000000000000018 $265 $388 forward 7 unknown #
coedge $-1 $177 $176 $385 $389 forward $76 $-1 #
edge $-1 $272 -0.069999999999999979 $387 0.069999999999999979 $264 $390 forward 7 unknown #
coedge $-1 $277 $276 $177 $270 reversed $261 $-1 #
edge $-1 $391 -0.069999999999999979 $271 0.069999999999999979 $269 $392 forward 7 unknown #
vertex $-1 $179 $393 #
vertex $-1 $283 $394 #
straight-curve $-1 0.069999999999999979 0 -0.0050000000000000018 0 -1 0 I I #
coedge $-1 $263 $265 $180 $275 reversed $173 $-1 #
edge $-1 $278 -0.072499999999999995 $281 0.072499999999999995 $274 $395 forward 7 unknown #
coedge $-1 $269 $181 $186 $284 forward $261 $-1 #
coedge $-1 $181 $269 $263 $386 reversed $261 $-1 #
vertex $-1 $182 $396 #
straight-curve $-1 0 0.072499999999999995 0.0050000000000000018 -1 0 0 I I #
coedge $-1 $183 $264 $185 $283 reversed $115 $-1 #
vertex $-1 $275 $397 #
straight-curve $-1 0 -0.072499999999999995 0.0050000000000000018 1 0 0 I I #
edge $-1 $188 -0.0050000000000000018 $272 0.0050000000000000018 $185 $398 forward 7 unknown #
edge $-1 $189 -0.0050000000000000018 $271 0.0050000000000000018 $186 $399 forward 7 unknown #
point $-1 0.069999999999999979 -0.072499999999999995 0.0050000000000000018 #
point $-1 0.069999999999999979 0.072499999999999995 0.0050000000000000018 #
vertex $-1 $192 $400 #
ellipse-curve $-1 0 0 0.0050000000000000001 0 0 1 0.0060000000000000001 0 0 1 I I #
point $-1 0.0060000000000000001 0 -0.0050000000000000001 #
vertex $-1 $196 $401 #
ellipse-curve $-1 0 0 0.0050000000000000001 0 0 1 0.0060000000000000001 0 0 1 I I #
point $-1 0.0060000000000000001 0 -0.0050000000000000001 #
face $-1 $402 $403 $38 $-1 $404 reversed single #
loop $-1 $-1 $205 $199 #
plane-surface $-1 -0.010000000000000113 -0.057599909255823568 0.0049999999999999984 1 0 0 0 0 -1 forward_v I I I I #
coedge $-1 $405 $302 $307 $406 forward $200 $-1 #
coedge $-1 $407 $202 $408 $409 forward $133 $-1 #
coedge $-1 $202 $407 $405 $410 forward $133 $-1 #
coedge $-1 $307 $306 $202 $300 reversed $294 $-1 #
edge $-1 $411 -0.043700045372088214 $412 -0.028799954627911784 $202 $413 forward 7 unknown #
coedge $-1 $204 $203 $414 $415 forward $90 $-1 #
coedge $-1 $296 $416 $203 $303 reversed $200 $-1 #
edge $-1 $309 -0.010000000000000002 $417 0.010000000000000002 $302 $418 forward 7 unknown #
coedge $-1 $419 $420 $204 $305 reversed $403 $-1 #
edge $-1 $421 0.35906870275239983 $308 6.2831853071795862 $204 $422 forward 7 unknown #
coedge $-1 $299 $205 $420 $423 forward $294 $-1 #
coedge $-1 $205 $299 $296 $406 reversed $294 $-1 #
vertex $-1 $305 $424 #
vertex $-1 $303 $425 #
straight-curve $-1 -0.010000000000000113 -0.028799954627911784 0.0050000000000000018 0 -1 0 I I #
face $-1 $426 $427 $30 $-1 $428 reversed single #
loop $-1 $-1 $429 $207 #
coedge $-1 $430 $431 $432 $433 reversed $208 $-1 #
coedge $-1 $434 $209 $211 $319 forward $137 $-1 #
coedge $-1 $209 $434 $435 $436 forward $137 $-1 #
coedge $-1 $331 $212 $209 $317 forward $219 $-1 #
edge $-1 $320 1.1780619404325474 $437 2.1598272970111703 $316 $438 forward 7 unknown #
coedge $-1 $211 $210 $439 $440 reversed $93 $-1 #
edge $-1 $320 -3.4694469519536142e-018 $441 0.01 $211 $442 forward 7 unknown #
vertex $-1 $213 $443 #
ellipse-curve $-1 -0.05000000000000001 -0.072333147735478789 0.0050000000000000018 0 0 1 0.011111111111111155 0.016629588385661975 0 1 I I #
coedge $-1 $444 $439 $214 $323 forward $445 $-1 #
edge $-1 $329 0.036083147735478792 $327 0.036249999999999998 $322 $446 forward 7 unknown #
coedge $-1 $447 $215 $218 $332 reversed $326 $-1 #
coedge $-1 $215 $447 $444 $448 reversed $326 $-1 #
loop $-1 $-1 $215 $449 #
vertex $-1 $448 $450 #
straight-curve $-1 -0.029999999999999999 -0.072499999999999995 0.0024999999999999992 0 0 1 I I #
vertex $-1 $323 $451 #
straight-curve $-1 -0.029999999999999999 -0.072333147735478789 0.0049999999999999984 0 0 -1 I I #
coedge $-1 $218 $316 $452 $453 forward $219 $-1 #
edge $-1 $454 -0.069999999999999979 $220 -0.029999999999999999 $324 $418 forward 7 unknown #
face $-1 $455 $219 $30 $-1 $91 forward single #
point $-1 -0.029999999999999999 -0.072499999999999995 0.0050000000000000018 #
point $-1 -0.029999999999999999 -0.072333147735478789 0.0050000000000000018 #
pid_name-sg-attrib $-1 $-1 $224 $147 7 114 119 105 108 115 111 110 784252905 1283 1 #
model_id-kcp-attrib $-1 $456 $-1 $225 1 990659877 90 -1705377791 8 #
face $457 $458 $459 $9 $-1 $460 forward single #
loop $-1 $-1 $461 $225 #
cone-surface $-1 0.050000000000000003 -0.069833147735478801 0 0 0 1 0.02 0 0 1 I I 0 1 0.02 forward I I I I #
coedge $-1 $462 $463 $464 $465 reversed $226 $-1 #
coedge $-1 $464 $228 $466 $467 forward $148 $-1 #
coedge $-1 $228 $464 $468 $469 forward $148 $-1 #
coedge $-1 $230 $229 $228 $345 forward $99 $-1 #
edge $-1 $470 -0.01 $471 0 $228 $472 reversed 7 unknown #
coedge $-1 $237 $466 $229 $347 reversed $65 $-1 #
edge $473 $353 -0.00016685226452110846 $470 9.7144514654701197e-017 $346 $474 reversed 7 unknown #
coedge $-1 $468 $383 $230 $349 reversed $258 $-1 #
edge $-1 $471 -9.7144514654701197e-017 $354 0.00016685226452110846 $348 $475 forward 7 unknown #
coedge $-1 $476 $231 $383 $477 forward $352 $-1 #
coedge $-1 $231 $476 $237 $365 forward $352 $-1 #
loop $-1 $-1 $476 $478 #
vertex $-1 $232 $479 #
vertex $-1 $232 $480 #
straight-curve $-1 -0.029999999999999999 -0.070000000000000007 0 0 0 1 I I #
coedge $-1 $481 $234 $482 $483 reversed $65 $-1 #
coedge $-1 $484 $485 $234 $358 forward $486 $-1 #
edge $487 $488 -0.019999999999999997 $363 0 $234 $489 reversed 7 unknown #
coedge $-1 $490 $235 $241 $374 forward $361 $-1 #
coedge $-1 $235 $490 $484 $491 reversed $361 $-1 #
loop $-1 $-1 $360 $492 #
attrib_edge_convexity-kcp-attrib $-1 $493 $-1 $236 1 #
vertex $-1 $491 $494 #
straight-curve $-1 0.01 -0.055099909255823601 0.01 0 -1 0 I I #
edge $495 $370 -0.019999999999999997 $353 0 $237 $496 reversed 7 unknown #
coedge $-1 $497 $238 $476 $498 reversed $368 $-1 #
coedge $-1 $238 $497 $240 $373 reversed $368 $-1 #
loop $-1 $-1 $367 $499 #
attrib_edge_convexity-kcp-attrib $-1 $500 $-1 $239 1 #
vertex $-1 $498 $501 #
straight-curve $-1 -0.01 -0.070000000000000007 0.01 0 1 0 I I #
coedge $-1 $241 $240 $502 $503 forward $242 $-1 #
edge $-1 $245 -0.01 $504 0 $367 $505 reversed 7 unknown #
edge $-1 $244 -0.01 $506 0 $241 $507 reversed 7 unknown #
face $508 $499 $242 $9 $-1 $509 reversed single #
convexity-sys-attrib $-1 $-1 $243 $157 #
point $-1 0.0099999999999999794 -0.055099909255823601 0.01 #
point $-1 -0.010000000000000101 -0.055099909255823601 0.01 #
convexity-sys-attrib $-1 $-1 $247 $158 #
model_id-kcp-attrib $-1 $-1 $-1 $248 1 990659877 90 -1705377791 32 #
point $-1 0.025999999999999999 -0.062 0.01 #
model_id-kcp-attrib $-1 $510 $257 $167 1 990659877 90 -1705377791 19 #
coedge $-1 $348 $511 $350 $477 reversed $258 $-1 #
plane-surface $-1 0.069999999999999979 0 0 -1 0 0 0 0 1 forward_v I I I I #
coedge $-1 $265 $263 $267 $389 reversed $173 $-1 #
edge $-1 $278 -0.0050000000000000018 $391 0.0050000000000000018 $277 $512 forward 7 unknown #
vertex $-1 $389 $513 #
straight-curve $-1 -0.069999999999999979 -0.072499999999999995 0 0 0 -1 I I #
edge $-1 $387 -0.072499999999999995 $391 0.072499999999999995 $385 $514 forward 7 unknown #
straight-curve $-1 0 -0.072499999999999995 -0.0050000000000000018 -1 0 0 I I #
vertex $-1 $270 $515 #
straight-curve $-1 0 0.072499999999999995 -0.0050000000000000018 1 0 0 I I #
point $-1 0.069999999999999979 0.072499999999999995 -0.0050000000000000018 #
point $-1 0.069999999999999979 -0.072499999999999995 -0.0050000000000000018 #
straight-curve $-1 -0.069999999999999979 0 0.0050000000000000018 0 -1 0 I I #
point $-1 -0.069999999999999979 0.072499999999999995 0.0050000000000000018 #
point $-1 -0.069999999999999979 -0.072499999999999995 0.0050000000000000018 #
straight-curve $-1 0.069999999999999979 -0.072499999999999995 0 0 0 -1 I I #
straight-curve $-1 0.069999999999999979 0.072499999999999995 0 0 0 -1 I I #
point $-1 0.0060000000000000001 0 0.0050000000000000001 #
point $-1 0.0060000000000000001 0 0.0050000000000000001 #
face $-1 $-1 $516 $38 $-1 $517 reversed single #
loop $-1 $-1 $304 $293 #
cone-surface $-1 -4.2328197310154972e-018 -0.0024999999999999883 0.0049999999999999984 0 0 1 -0.010000000000000094 -0.05509990925582358 0 1 I I 0 -1 0.05599999999999996 forward I I I I #
coedge $-1 $416 $296 $298 $410 reversed $200 $-1 #
edge $-1 $309 -0.0025000000000000027 $411 0.0075000000000000015 $296 $518 forward 7 unknown #
coedge $-1 $298 $297 $519 $520 forward $133 $-1 #
coedge $-1 $420 $419 $297 $409 reversed $403 $-1 #
edge $-1 $412 2.7658218685854747e-016 $521 5.9241166044271862 $297 $522 forward 7 unknown #
edge $-1 $523 -0.010000000000000002 $411 0.010000000000000002 $405 $524 forward 7 unknown #
vertex $-1 $300 $525 #
vertex $-1 $409 $526 #
straight-curve $-1 -0.010000000000000113 -0.028799954627911784 -0.0050000000000000018 0 1 0 I I #
coedge $-1 $527 $528 $301 $415 reversed $516 $-1 #
edge $-1 $417 -0.036249999999999998 $421 -0.021349909255823592 $301 $529 forward 7 unknown #
coedge $-1 $302 $405 $527 $530 forward $200 $-1 #
vertex $-1 $530 $531 #
straight-curve $-1 0 -0.072499999999999995 0.0050000000000000018 1 0 0 I I #
coedge $-1 $408 $304 $528 $532 forward $403 $-1 #
coedge $-1 $304 $408 $306 $423 reversed $403 $-1 #
vertex $-1 $415 $533 #
ellipse-curve $-1 -4.2328197310154972e-018 -0.0024999999999999883 0.0050000000000000018 0 0 1 -0.010000000000000094 -0.05509990925582358 0 1 I I #
edge $-1 $308 -3.4694469519536142e-018 $412 0.01 $420 $534 forward 7 unknown #
point $-1 -0.010000000000000113 -0.057599909255823568 0.0050000000000000018 #
point $-1 -0.010000000000000002 -0.072499999999999995 0.0050000000000000018 #
face $-1 $535 $536 $30 $-1 $138 reversed single #
loop $-1 $-1 $537 $311 #
plane-surface $-1 0.030000000000000002 -0.072333147735478789 0.0049999999999999984 1 0 0 0 0 -1 forward_v I I I I #
coedge $-1 $538 $435 $539 $540 reversed $312 $-1 #
coedge $-1 $541 $313 $542 $543 reversed $208 $-1 #
coedge $-1 $313 $541 $544 $545 forward $208 $-1 #
coedge $-1 $546 $547 $313 $433 forward $548 $-1 #
edge $-1 $549 -0.98176535657862274 $550 -8.8506299794735109e-017 $432 $438 forward 7 unknown #
coedge $-1 $315 $314 $551 $552 reversed $137 $-1 #
coedge $-1 $429 $553 $554 $436 reversed $312 $-1 #
edge $-1 $555 -0.01 $437 3.4694469519536142e-018 $554 $556 forward 7 unknown #
vertex $-1 $453 $557 #
ellipse-curve $-1 -3.4926023551763981e-018 0.0025000000000000092 0.0050000000000000018 0 0 -1 0.038888888888888876 -0.058203559349816851 0 1 I I #
coedge $-1 $322 $551 $318 $440 forward $445 $-1 #
edge $-1 $441 2.7105054312137507e-016 $329 0.9817653565786213 $439 $558 forward 7 unknown #
vertex $-1 $440 $559 #
straight-curve $-1 -0.038888888888888848 -0.055703559349816814 0.0049999999999999984 0 0 -1 I I #
point $-1 -0.038888888888888848 -0.055703559349816814 0.0050000000000000018 #
coedge $-1 $560 $322 $325 $448 forward $445 $-1 #
loop $-1 $-1 $322 $561 #
straight-curve $-1 -0.029999999999999999 -0.036249999999999998 -0.0050000000000000018 0 -1 0 I I #
coedge $-1 $325 $324 $562 $563 forward $326 $-1 #
edge $-1 $327 0.029999999999999999 $564 0.069999999999999979 $325 $524 forward 7 unknown #
face $-1 $565 $326 $30 $-1 $201 reversed single #
point $-1 -0.029999999999999999 -0.072499999999999995 -0.0050000000000000018 #
point $-1 -0.029999999999999999 -0.072333147735478789 -0.0050000000000000018 #
coedge $-1 $566 $562 $331 $453 reversed $567 $-1 #
edge $-1 $437 -0.0025000000000000092 $454 0.072499999999999995 $452 $568 forward 7 unknown #
vertex $-1 $453 $569 #
face $-1 $570 $571 $30 $-1 $134 reversed single #
pid_name-sg-attrib $-1 $-1 $337 $225 7 114 119 105 108 115 111 110 784252905 1284 1 #
model_id-kcp-attrib $-1 $572 $-1 $338 1 990659877 90 -1705377791 9 #
face $573 $492 $486 $9 $-1 $574 forward single #
loop $-1 $-1 $575 $338 #
plane-surface $-1 0.029999999999999999 -0.070000000000000007 0 1 0 0 0 0 -1 forward_v I I I I #
coedge $-1 $576 $577 $578 $579 reversed $339 $-1 #
coedge $-1 $578 $341 $580 $581 forward $226 $-1 #
coedge $-1 $341 $578 $582 $583 forward $226 $-1 #
coedge $-1 $343 $342 $341 $465 forward $148 $-1 #
edge $-1 $584 -0.01 $585 0 $341 $586 reversed 7 unknown #
coedge $-1 $346 $580 $342 $467 reversed $65 $-1 #
edge $587 $470 -0.98176535657862429 $584 -2.7782680669941098e-015 $466 $588 reversed 7 unknown #
coedge $-1 $582 $348 $343 $469 reversed $258 $-1 #
edge $-1 $585 2.7782680669941098e-015 $471 0.98176535657862429 $468 $589 forward 7 unknown #
vertex $-1 $345 $590 #
vertex $-1 $345 $591 #
straight-curve $-1 -0.029999999999999999 -0.069833147735478801 0 0 0 1 I I #
attrib_edge_convexity-kcp-attrib $-1 $592 $-1 $347 1 #
straight-curve $-1 -0.029999999999999999 -0.069833147735478898 0.01 0 -1 0 I I #
straight-curve $-1 -0.029999999999999999 -0.069833147735478898 0 0 -1 0 I I #
coedge $-1 $351 $350 $366 $498 forward $352 $-1 #
edge $593 $354 0 $594 0.019999999999999997 $383 $595 forward 7 unknown #
face $596 $167 $352 $9 $-1 $597 forward single #
point $-1 -0.029999999999999999 -0.070000000000000007 0.01 #
point $-1 -0.029999999999999999 -0.070000000000000007 0 #
coedge $-1 $580 $356 $576 $598 reversed $65 $-1 #
coedge $-1 $599 $575 $356 $483 forward $459 $-1 #
edge $600 $601 -0.00016685226452120561 $488 0 $356 $602 reversed 7 unknown #
coedge $-1 $603 $357 $360 $491 forward $486 $-1 #
coedge $-1 $357 $603 $599 $604 reversed $486 $-1 #
loop $-1 $-1 $485 $458 #
attrib_edge_convexity-kcp-attrib $-1 $605 $-1 $358 1 #
vertex $-1 $604 $606 #
straight-curve $-1 0.01 -0.070000000000000007 0.01 1 0 0 I I #
coedge $-1 $360 $359 $607 $608 forward $361 $-1 #
edge $609 $363 -0.01 $610 0 $360 $611 reversed 7 unknown #
face $612 $375 $361 $9 $-1 $613 forward single #
convexity-sys-attrib $-1 $-1 $362 $236 #
point $-1 0.01 -0.070000000000000007 0.01 #
attrib_edge_convexity-kcp-attrib $-1 $614 $-1 $365 1 #
straight-curve $-1 -0.029999999999999999 -0.070000000000000007 0.01 1 0 0 I I #
coedge $-1 $367 $366 $511 $615 forward $368 $-1 #
edge $-1 $594 0 $370 0.01 $366 $616 forward 7 unknown #
face $617 $478 $368 $9 $-1 $618 forward single #
convexity-sys-attrib $-1 $-1 $369 $239 #
point $-1 -0.01 -0.070000000000000007 0.01 #
coedge $-1 $511 $607 $372 $503 reversed $258 $-1 #
edge $-1 $504 1.7632114412232395e-015 $506 5.9241166044271889 $502 $619 forward 7 unknown #
vertex $-1 $373 $620 #
straight-curve $-1 -0.010000000000000101 -0.055099909255823601 0 0 0 1 I I #
vertex $-1 $374 $621 #
straight-curve $-1 0.0099999999999999794 -0.055099909255823601 0 0 0 1 I I #
model_id-kcp-attrib $-1 $622 $-1 $375 1 990659877 90 -1705377791 12 #
cone-surface $-1 0 0 0 0 0 1 0.056000000000000001 0 0 1 I I 0 1 0.056000000000000001 forward I I I I #
model_id-kcp-attrib $-1 $623 $382 $167 1 990659877 90 -1705377791 15 #
coedge $-1 $383 $502 $497 $615 reversed $258 $-1 #
straight-curve $-1 -0.069999999999999979 0.072499999999999995 0 0 0 -1 I I #
point $-1 -0.069999999999999979 -0.072499999999999995 -0.0050000000000000018 #
straight-curve $-1 -0.069999999999999979 0 -0.0050000000000000018 0 1 0 I I #
point $-1 -0.069999999999999979 0.072499999999999995 -0.0050000000000000018 #
loop $-1 $-1 $414 $402 #
plane-surface $-1 0.010000000000000002 -0.072499999999999995 0.0049999999999999984 -1 0 0 0 0 1 forward_v I I I I #
straight-curve $-1 -0.010000000000000113 -0.072499999999999995 0.0024999999999999992 0 0 -1 I I #
coedge $-1 $528 $527 $407 $520 reversed $516 $-1 #
edge $-1 $521 0.021349909255823592 $523 0.036249999999999998 $407 $624 forward 7 unknown #
vertex $-1 $520 $625 #
ellipse-curve $-1 -4.2328197310154972e-018 -0.0024999999999999883 -0.0050000000000000018 0 0 -1 -0.010000000000000094 -0.05509990925582358 0 1 I I #
vertex $-1 $410 $626 #
straight-curve $-1 0 -0.072499999999999995 -0.0050000000000000018 -1 0 0 I I #
point $-1 -0.010000000000000002 -0.072499999999999995 -0.0050000000000000018 #
point $-1 -0.010000000000000113 -0.057599909255823568 -0.0050000000000000018 #
coedge $-1 $519 $414 $416 $530 reversed $516 $-1 #
coedge $-1 $414 $519 $419 $532 reversed $516 $-1 #
straight-curve $-1 0.010000000000000002 -0.036249999999999998 0.0050000000000000018 0 1 0 I I #
edge $-1 $523 -0.0075000000000000015 $417 0.0025000000000000027 $416 $627 forward 7 unknown #
point $-1 0.010000000000000002 -0.072499999999999995 0.0050000000000000018 #
edge $-1 $421 -3.4694469519536142e-018 $521 0.01 $528 $628 forward 7 unknown #
point $-1 0.010000000000000002 -0.057599909255823589 0.0050000000000000018 #
straight-curve $-1 -0.010000000000000113 -0.057599909255823568 0.0049999999999999984 0 0 -1 I I #
face $-1 $629 $630 $30 $-1 $631 reversed single #
loop $-1 $-1 $632 $426 #
coedge $-1 $633 $634 $635 $636 reversed $427 $-1 #
coedge $-1 $553 $429 $637 $638 forward $312 $-1 #
coedge $-1 $639 $640 $429 $540 forward $641 $-1 #
edge $-1 $642 2.5525616833735194 $555 4.123358010168416 $539 $643 forward 7 unknown #
coedge $-1 $431 $430 $644 $645 reversed $208 $-1 #
coedge $-1 $646 $647 $648 $543 forward $649 $-1 #
edge $-1 $650 -0.01 $549 3.4694469519536142e-018 $542 $651 forward 7 unknown #
coedge $-1 $652 $653 $431 $545 reversed $630 $-1 #
edge $-1 $654 -0.01 $550 3.4694469519536142e-018 $544 $655 forward 7 unknown #
coedge $-1 $635 $432 $653 $656 forward $548 $-1 #
coedge $-1 $432 $657 $646 $658 forward $548 $-1 #
loop $-1 $-1 $635 $659 #
vertex $-1 $660 $661 #
vertex $-1 $433 $662 #
coedge $-1 $439 $560 $434 $552 forward $445 $-1 #
edge $-1 $555 -2.1598272970111703 $441 -1.1780619404325474 $551 $643 forward 7 unknown #
coedge $-1 $435 $538 $663 $664 reversed $312 $-1 #
coedge $-1 $665 $666 $566 $436 forward $667 $-1 #
vertex $-1 $668 $669 #
straight-curve $-1 -0.069999999999999979 0.0025000000000000092 0.0049999999999999984 0 0 1 I I #
point $-1 -0.069999999999999979 0.0025000000000000092 0.0050000000000000018 #
ellipse-curve $-1 -0.05000000000000001 -0.072333147735478789 -0.0050000000000000018 0 0 -1 0.011111111111111155 0.016629588385661975 0 1 I I #
point $-1 -0.038888888888888848 -0.055703559349816814 -0.0050000000000000018 #
coedge $-1 $551 $444 $670 $671 forward $445 $-1 #
face $-1 $672 $445 $30 $-1 $134 reversed single #
coedge $-1 $452 $670 $447 $563 reversed $567 $-1 #
edge $-1 $454 -0.0050000000000000018 $564 0.0050000000000000018 $562 $673 forward 7 unknown #
vertex $-1 $671 $674 #
face $-1 $675 $676 $30 $-1 $677 reversed single #
coedge $-1 $670 $452 $315 $436 reversed $567 $-1 #
loop $-1 $-1 $566 $629 #
straight-curve $-1 -0.069999999999999979 0 0.0050000000000000018 0 -1 0 I I #
point $-1 -0.069999999999999979 -0.072499999999999995 0.0050000000000000018 #
face $-1 $678 $679 $30 $-1 $134 reversed single #
loop $-1 $-1 $680 $455 #
pid_name-sg-attrib $-1 $-1 $457 $338 7 114 119 105 108 115 111 110 784252905 1285 1 #
model_id-kcp-attrib $-1 $681 $-1 $458 1 990659877 90 -1705377791 10 #
plane-surface $-1 0.01 -0.070000000000000007 0 0 -1 0 0 0 -1 forward_v I I I I #
coedge $-1 $482 $682 $683 $684 reversed $459 $-1 #
coedge $-1 $683 $461 $481 $598 forward $339 $-1 #
coedge $-1 $461 $683 $685 $686 forward $339 $-1 #
coedge $-1 $463 $462 $461 $579 forward $226 $-1 #
edge $-1 $687 -0.01 $688 0 $461 $689 reversed 7 unknown #
coedge $-1 $466 $481 $462 $581 reversed $65 $-1 #
edge $690 $584 -5.1051233667470397 $687 -1.2390881971262907e-015 $580 $691 reversed 7 unknown #
coedge $-1 $685 $468 $463 $583 reversed $258 $-1 #
edge $-1 $688 1.2390881971262907e-015 $585 5.1051233667470397 $582 $692 forward 7 unknown #
vertex $-1 $465 $693 #
vertex $-1 $465 $694 #
straight-curve $-1 -0.038888888888888903 -0.053203559349816902 0 0 0 1 I I #
attrib_edge_convexity-kcp-attrib $-1 $695 $-1 $467 1 #
ellipse-curve $-1 -0.050000000000000003 -0.069833147735478801 0.01 0 0 -1 0.011111111111111099 0.016629588385662 0 1 I I #
ellipse-curve $-1 -0.050000000000000003 -0.069833147735478801 0 0 0 -1 0.011111111111111099 0.016629588385662 0 1 I I #
point $-1 -0.029999999999999999 -0.069833147735478801 0.01 #
point $-1 -0.029999999999999999 -0.069833147735478801 0 #
convexity-sys-attrib $-1 $-1 $473 $347 #
model_id-kcp-attrib $-1 $-1 $-1 $477 1 990659877 90 -1705377791 17 #
vertex $-1 $498 $696 #
straight-curve $-1 -0.029999999999999999 -0.070000000000000007 0 1 0 0 I I #
model_id-kcp-attrib $-1 $697 $-1 $478 1 990659877 90 -1705377791 14 #
plane-surface $-1 -0.029999999999999999 -0.070000000000000007 0 0 -1 0 0 0 -1 forward_v I I I I #
edge $698 $687 -0.98176535657862296 $601 -1.3877787807814449e-015 $481 $699 reversed 7 unknown #
coedge $-1 $682 $482 $485 $604 forward $459 $-1 #
attrib_edge_convexity-kcp-attrib $-1 $700 $-1 $483 1 #
vertex $-1 $684 $701 #
straight-curve $-1 0.029999999999999999 -0.070000000000000007 0.01 0 1 0 I I #
coedge $-1 $485 $484 $702 $703 forward $486 $-1 #
edge $704 $488 -0.01 $705 0 $485 $706 reversed 7 unknown #
convexity-sys-attrib $-1 $-1 $487 $358 #
point $-1 0.029999999999999999 -0.070000000000000007 0.01 #
coedge $-1 $502 $702 $490 $608 reversed $258 $-1 #
edge $-1 $506 0 $610 0.014900090744176406 $607 $707 forward 7 unknown #
attrib_edge_convexity-kcp-attrib $-1 $708 $-1 $491 1 #
vertex $-1 $491 $709 #
straight-curve $-1 0.01 -0.070000000000000007 0 0 0 1 I I #
model_id-kcp-attrib $-1 $710 $-1 $492 1 990659877 90 -1705377791 11 #
plane-surface $-1 0.01 -0.055099909255823601 0 -1 0 0 0 0 1 forward_v I I I I #
convexity-sys-attrib $-1 $-1 $495 $365 #
edge $-1 $594 0 $504 0.014900090744176406 $511 $711 forward 7 unknown #
straight-curve $-1 -0.01 -0.070000000000000007 0 0 0 1 I I #
model_id-kcp-attrib $-1 $712 $-1 $499 1 990659877 90 -1705377791 13 #
plane-surface $-1 -0.01 -0.070000000000000007 0 1 0 0 0 0 -1 forward_v I I I I #
ellipse-curve $-1 0 0 0 0 0 -1 -0.01 -0.055099909255823601 0 1 I I #
point $-1 -0.010000000000000101 -0.055099909255823601 0 #
point $-1 0.0099999999999999794 -0.055099909255823601 0 #
pid_name-sg-attrib $-1 $-1 $508 $375 7 114 119 105 108 115 111 110 784252905 1288 1 #
pid_name-sg-attrib $-1 $-1 $510 $167 7 114 119 105 108 115 111 110 784252905 1291 1 #
straight-curve $-1 0.010000000000000002 -0.036249999999999998 -0.0050000000000000018 0 -1 0 I I #
point $-1 0.010000000000000002 -0.057599909255823589 -0.0050000000000000018 #
point $-1 0.010000000000000002 -0.072499999999999995 -0.0050000000000000018 #
straight-curve $-1 0.010000000000000002 -0.072499999999999995 0.0024999999999999992 0 0 1 I I #
straight-curve $-1 0.010000000000000002 -0.057599909255823589 0.0049999999999999984 0 0 -1 I I #
face $-1 $713 $567 $30 $-1 $714 reversed single #
loop $-1 $-1 $653 $535 #
cone-surface $-1 0.050000000000000003 -0.072333147735478789 0.0049999999999999984 0 0 1 -0.02 0 0 1 I I 0 -1 0.02 forward I I I I #
coedge $-1 $715 $637 $716 $717 reversed $536 $-1 #
coedge $-1 $718 $537 $719 $720 forward $427 $-1 #
coedge $-1 $537 $718 $721 $722 reversed $427 $-1 #
coedge $-1 $657 $546 $537 $636 forward $548 $-1 #
edge $-1 $723 0.036166573867739395 $724 0.0363334261322606 $635 $725 forward 7 unknown #
coedge $-1 $632 $726 $727 $638 reversed $536 $-1 #
edge $-1 $642 -0.01 $728 3.4694469519536142e-018 $727 $729 forward 7 unknown #
coedge $-1 $640 $539 $666 $668 forward $641 $-1 #
coedge $-1 $539 $639 $730 $731 forward $641 $-1 #
loop $-1 $-1 $539 $678 #
vertex $-1 $732 $733 #
ellipse-curve $-1 -3.4926023551763981e-018 0.0025000000000000092 -0.0050000000000000018 0 0 1 0.038888888888888876 -0.058203559349816851 0 1 I I #
coedge $-1 $734 $735 $541 $645 forward $571 $-1 #
edge $-1 $654 8.8506299794735109e-017 $650 0.98176535657862274 $644 $643 forward 7 unknown #
coedge $-1 $736 $542 $547 $658 reversed $649 $-1 #
coedge $-1 $542 $736 $734 $737 reversed $649 $-1 #
coedge $-1 $738 $739 $715 $543 reversed $740 $-1 #
loop $-1 $-1 $542 $741 #
vertex $-1 $737 $742 #
straight-curve $-1 0.069999999999999979 0.0025000000000000092 0.0049999999999999984 0 0 1 I I #
coedge $-1 $719 $544 $735 $743 reversed $630 $-1 #
coedge $-1 $544 $719 $546 $656 reversed $630 $-1 #
vertex $-1 $645 $744 #
straight-curve $-1 0.038888888888888876 -0.055703559349816842 0.0049999999999999984 0 0 1 I I #
edge $-1 $550 -0.98176535657862174 $723 0 $546 $745 forward 7 unknown #
coedge $-1 $547 $635 $746 $747 forward $548 $-1 #
edge $-1 $748 -0.072499999999999995 $549 0.0025000000000000092 $646 $749 forward 7 unknown #
face $-1 $750 $548 $30 $-1 $91 forward single #
edge $-1 $549 0.0025000000000000092 $751 0.072499999999999995 $739 $749 forward 7 unknown #
point $-1 0.069999999999999979 0.0025000000000000092 0.0050000000000000018 #
point $-1 0.038888888888888876 -0.055703559349816842 0.0050000000000000018 #
coedge $-1 $752 $753 $553 $664 forward $754 $-1 #
edge $-1 $437 2.1598272970111703 $728 3.7306236238060668 $663 $438 forward 7 unknown #
coedge $-1 $755 $554 $753 $756 reversed $667 $-1 #
coedge $-1 $554 $755 $639 $668 reversed $667 $-1 #
loop $-1 $-1 $554 $757 #
edge $-1 $555 0.0025000000000000092 $758 0.072499999999999995 $666 $759 forward 7 unknown #
point $-1 -0.069999999999999979 0.0025000000000000092 -0.0050000000000000018 #
coedge $-1 $562 $566 $560 $671 reversed $567 $-1 #
edge $-1 $564 -0.072499999999999995 $555 0.0025000000000000092 $670 $759 forward 7 unknown #
face $-1 $757 $740 $30 $-1 $760 reversed single #
straight-curve $-1 -0.069999999999999979 -0.072499999999999995 0 0 0 -1 I I #
point $-1 -0.069999999999999979 -0.072499999999999995 -0.0050000000000000018 #
face $-1 $659 $761 $30 $-1 $91 forward single #
loop $-1 $-1 $762 $565 #
plane-surface $-1 0 0.072499999999999995 0 0 -1 0 0 0 -1 forward_v I I I I #
face $-1 $561 $641 $30 $-1 $134 reversed single #
loop $-1 $-1 $716 $570 #
coedge $-1 $735 $763 $718 $764 forward $571 $-1 #
pid_name-sg-attrib $-1 $-1 $573 $458 7 114 119 105 108 115 111 110 784252905 1286 1 #
coedge $-1 $575 $599 $765 $766 forward $459 $-1 #
coedge $-1 $577 $576 $575 $684 forward $339 $-1 #
edge $-1 $601 -0.01 $767 0 $575 $768 reversed 7 unknown #
coedge $-1 $765 $582 $577 $686 reversed $258 $-1 #
edge $-1 $767 1.3877787807814449e-015 $688 0.98176535657862296 $685 $769 forward 7 unknown #
vertex $-1 $579 $770 #
vertex $-1 $579 $771 #
straight-curve $-1 0.038888888888888903 -0.053203559349816902 0 0 0 1 I I #
attrib_edge_convexity-kcp-attrib $-1 $772 $-1 $581 1 #
ellipse-curve $-1 0 0.0050000000000000001 0.01 2.7535293269473102e-017 -4.1211053383484398e-017 1 0.038888888888888799 -0.0582035593498169 -3.46944695195361e-018 1 I I #
ellipse-curve $-1 0 0.0050000000000000001 0 0 0 1 0.038888888888888799 -0.0582035593498169 0 1 I I #
point $-1 -0.038888888888888903 -0.053203559349816902 0.01 #
point $-1 -0.038888888888888903 -0.053203559349816902 0 #
convexity-sys-attrib $-1 $-1 $587 $467 #
point $-1 -0.01 -0.070000000000000007 0 #
pid_name-sg-attrib $-1 $-1 $596 $478 7 114 119 105 108 115 111 110 784252905 1290 1 #
attrib_edge_convexity-kcp-attrib $-1 $773 $-1 $598 1 #
ellipse-curve $-1 0.050000000000000003 -0.069833147735478801 0.01 0 0 -1 -0.02 -2.7755575615628901e-017 0 1 I I #
convexity-sys-attrib $-1 $-1 $600 $483 #
point $-1 0.029999999999999999 -0.069833147735478801 0.01 #
coedge $-1 $607 $765 $603 $703 reversed $258 $-1 #
edge $774 $610 0 $705 0.019999999999999997 $702 $775 forward 7 unknown #
attrib_edge_convexity-kcp-attrib $-1 $776 $-1 $604 1 #
vertex $-1 $604 $777 #
straight-curve $-1 0.029999999999999999 -0.070000000000000007 0 0 0 1 I I #
straight-curve $-1 0.01 -0.055099909255823601 0 0 -1 0 I I #
convexity-sys-attrib $-1 $-1 $609 $491 #
point $-1 0.01 -0.070000000000000007 0 #
pid_name-sg-attrib $-1 $-1 $612 $492 7 114 119 105 108 115 111 110 784252905 1287 1 #
straight-curve $-1 -0.01 -0.070000000000000007 0 0 1 0 I I #
pid_name-sg-attrib $-1 $-1 $617 $499 7 114 119 105 108 115 111 110 784252905 1289 1 #
face $-1 $449 $778 $30 $-1 $201 reversed single #
plane-surface $-1 -0.069999999999999979 0 0 1 0 0 0 0 -1 forward_v I I I I #
coedge $-1 $726 $632 $430 $543 forward $536 $-1 #
coedge $-1 $779 $780 $632 $717 forward $679 $-1 #
edge $-1 $650 0.98176535657862274 $642 2.5525616833735194 $716 $643 forward 7 unknown #
coedge $-1 $634 $633 $680 $764 reversed $427 $-1 #
coedge $-1 $653 $652 $633 $720 reversed $630 $-1 #
edge $-1 $723 -3.4694469519536142e-018 $781 0.01 $719 $782 forward 7 unknown #
coedge $-1 $783 $746 $634 $722 forward $778 $-1 #
edge $-1 $724 -0.0025000000000000027 $784 0.0075000000000000015 $721 $785 forward 7 unknown #
vertex $-1 $636 $786 #
vertex $-1 $747 $787 #
straight-curve $-1 0.030000000000000002 -0.036166573867739395 0.0050000000000000018 0 -1 0 I I #
coedge $-1 $637 $715 $788 $789 reversed $536 $-1 #
coedge $-1 $790 $791 $762 $638 forward $792 $-1 #
vertex $-1 $793 $794 #
straight-curve $-1 -3.4926023551763981e-018 0.072499999999999981 0.0049999999999999984 0 0 1 I I #
coedge $-1 $795 $762 $640 $731 reversed $676 $-1 #
edge $-1 $758 -0.069999999999999979 $642 -3.4926023551763981e-018 $730 $796 forward 7 unknown #
edge $-1 $642 -3.4926023551763981e-018 $797 0.069999999999999979 $791 $796 forward 7 unknown #
point $-1 -3.4926023551763981e-018 0.072499999999999981 -0.0050000000000000018 #
coedge $-1 $763 $644 $647 $737 forward $571 $-1 #
coedge $-1 $644 $680 $652 $743 forward $571 $-1 #
coedge $-1 $647 $646 $798 $799 forward $649 $-1 #
edge $-1 $650 -0.0025000000000000092 $800 0.072499999999999995 $647 $801 forward 7 unknown #
coedge $-1 $802 $648 $780 $803 reversed $740 $-1 #
coedge $-1 $648 $802 $804 $660 reversed $740 $-1 #
loop $-1 $-1 $648 $672 #
face $-1 $-1 $649 $30 $-1 $760 reversed single #
point $-1 0.069999999999999979 0.0025000000000000092 -0.0050000000000000018 #
edge $-1 $781 0 $654 0.98176535657862174 $735 $805 forward 7 unknown #
point $-1 0.038888888888888876 -0.055703559349816842 -0.0050000000000000018 #
ellipse-curve $-1 0.050000000000000003 -0.072333147735478789 0.0050000000000000018 0 0 1 -0.02 0 0 1 I I #
coedge $-1 $721 $798 $657 $747 reversed $778 $-1 #
edge $-1 $724 0.029999999999999999 $748 0.069999999999999979 $746 $418 forward 7 unknown #
vertex $-1 $658 $806 #
straight-curve $-1 0.069999999999999979 0 0.0050000000000000018 0 1 0 I I #
face $-1 $333 $754 $30 $-1 $91 forward single #
vertex $-1 $660 $807 #
coedge $-1 $753 $663 $808 $793 forward $754 $-1 #
coedge $-1 $663 $752 $665 $756 forward $754 $-1 #
loop $-1 $-1 $663 $750 #
coedge $-1 $666 $665 $795 $809 forward $667 $-1 #
edge $-1 $810 -0.072499999999999995 $437 -0.0025000000000000092 $665 $568 forward 7 unknown #
face $-1 $811 $667 $30 $-1 $714 reversed single #
vertex $-1 $731 $812 #
straight-curve $-1 -0.069999999999999979 0 -0.0050000000000000018 0 1 0 I I #
plane-surface $-1 0.069999999999999979 0 0 -1 0 0 0 0 1 forward_v I I I I #
loop $-1 $-1 $788 $675 #
coedge $-1 $730 $808 $538 $638 reversed $676 $-1 #
coedge $-1 $680 $734 $783 $813 forward $571 $-1 #
edge $-1 $784 -0.0363334261322606 $781 -0.036166573867739395 $680 $814 forward 7 unknown #
coedge $-1 $702 $685 $682 $766 reversed $258 $-1 #
edge $-1 $705 0 $767 0.00016685226452120561 $765 $815 forward 7 unknown #
vertex $-1 $684 $816 #
straight-curve $-1 0.029999999999999999 -0.069833147735478801 0 0 0 1 I I #
ellipse-curve $-1 0.050000000000000003 -0.069833147735478801 0 0 0 -1 -0.02 -2.7755575615628901e-017 0 1 I I #
point $-1 0.038888888888888903 -0.053203559349816902 0.01 #
point $-1 0.038888888888888903 -0.053203559349816902 0 #
convexity-sys-attrib $-1 $-1 $690 $581 #
convexity-sys-attrib $-1 $-1 $698 $598 #
model_id-kcp-attrib $-1 $817 $-1 $703 1 990659877 90 -1705377791 18 #
straight-curve $-1 0.01 -0.070000000000000007 0 1 0 0 I I #
convexity-sys-attrib $-1 $-1 $704 $604 #
point $-1 0.029999999999999999 -0.070000000000000007 0 #
loop $-1 $-1 $721 $713 #
coedge $-1 $780 $716 $791 $732 forward $679 $-1 #
coedge $-1 $716 $779 $738 $803 forward $679 $-1 #
vertex $-1 $764 $818 #
straight-curve $-1 0.030000000000000002 -0.072333147735478789 0.0049999999999999984 0 0 -1 I I #
coedge $-1 $798 $721 $763 $813 reversed $778 $-1 #
vertex $-1 $764 $819 #
straight-curve $-1 0.030000000000000002 -0.072499999999999995 0.0024999999999999992 0 0 -1 I I #
point $-1 0.030000000000000002 -0.072333147735478789 0.0050000000000000018 #
point $-1 0.029999999999999999 -0.072499999999999995 0.0050000000000000018 #
coedge $-1 $804 $820 $726 $789 forward $761 $-1 #
edge $-1 $728 -2.5525616833735194 $549 -0.98176535657862274 $788 $438 forward 7 unknown #
coedge $-1 $821 $727 $820 $822 reversed $792 $-1 #
coedge $-1 $727 $821 $779 $732 reversed $792 $-1 #
loop $-1 $-1 $727 $811 #
edge $-1 $728 3.4926023551763981e-018 $810 0.069999999999999979 $808 $823 forward 7 unknown #
point $-1 -3.4926023551763981e-018 0.072499999999999981 0.0050000000000000018 #
coedge $-1 $808 $730 $755 $809 reversed $676 $-1 #
straight-curve $-1 0 0.072499999999999995 -0.0050000000000000018 1 0 0 I I #
vertex $-1 $803 $824 #
coedge $-1 $746 $783 $736 $799 reversed $778 $-1 #
edge $-1 $748 -0.0050000000000000018 $800 0.0050000000000000018 $736 $825 forward 7 unknown #
vertex $-1 $799 $826 #
straight-curve $-1 0.069999999999999979 0 -0.0050000000000000018 0 -1 0 I I #
coedge $-1 $739 $738 $821 $827 reversed $740 $-1 #
edge $-1 $797 -0.072499999999999995 $650 -0.0025000000000000092 $738 $801 forward 7 unknown #
coedge $-1 $820 $788 $739 $660 forward $761 $-1 #
ellipse-curve $-1 0.050000000000000003 -0.072333147735478789 -0.0050000000000000018 0 0 -1 -0.02 0 0 1 I I #
point $-1 0.069999999999999979 -0.072499999999999995 0.0050000000000000018 #
point $-1 0.069999999999999979 0.072499999999999995 0.0050000000000000018 #
coedge $-1 $762 $795 $752 $793 reversed $676 $-1 #
edge $-1 $810 -0.0050000000000000018 $758 0.0050000000000000018 $795 $828 forward 7 unknown #
vertex $-1 $793 $829 #
face $-1 $741 $792 $30 $-1 $677 reversed single #
point $-1 -0.069999999999999979 0.072499999999999995 -0.0050000000000000018 #
edge $-1 $800 -0.069999999999999979 $784 -0.029999999999999999 $783 $524 forward 7 unknown #
straight-curve $-1 0.030000000000000002 -0.036166573867739395 -0.0050000000000000018 0 1 0 I I #
straight-curve $-1 0.029999999999999999 -0.070000000000000007 0 0 1 0 I I #
point $-1 0.029999999999999999 -0.069833147735478801 0 #
attrib_edge_convexity-kcp-attrib $-1 $830 $774 $703 1 #
point $-1 0.030000000000000002 -0.072333147735478789 -0.0050000000000000018 #
point $-1 0.029999999999999999 -0.072499999999999995 -0.0050000000000000018 #
coedge $-1 $788 $804 $790 $822 forward $761 $-1 #
coedge $-1 $791 $790 $802 $827 forward $792 $-1 #
edge $-1 $751 -0.069999999999999979 $728 3.4926023551763981e-018 $790 $823 forward 7 unknown #
straight-curve $-1 0 0.072499999999999995 0.0050000000000000018 -1 0 0 I I #
point $-1 0.069999999999999979 0.072499999999999995 -0.0050000000000000018 #
straight-curve $-1 0.069999999999999979 -0.072499999999999995 0 0 0 -1 I I #
point $-1 0.069999999999999979 -0.072499999999999995 -0.0050000000000000018 #
edge $-1 $751 -0.0050000000000000018 $797 0.0050000000000000018 $802 $831 forward 7 unknown #
straight-curve $-1 -0.069999999999999979 0.072499999999999995 0 0 0 -1 I I #
point $-1 -0.069999999999999979 0.072499999999999995 0.0050000000000000018 #
convexity-sys-attrib $-1 $-1 $817 $703 #
straight-curve $-1 0.069999999999999979 0.072499999999999995 0 0 0 -1 I I #
End-of-ACIS-data 