105 250 1 0                             
body $-1 $1 $-1 $2 #
lump $-1 $-1 $3 $0 #
transform $-1 1 0 0 0 1 0 0 0 1 0 0 0 1 0 0 0 #
shell $-1 $-1 $-1 $4 $1 #
face $5 $6 $7 $3 $-1 $8 reversed single #
pid_name-sg-attrib $-1 $-1 $-1 $4 7 114 119 105 108 115 111 110 784252905 1278 1 #
face $9 $10 $11 $3 $-1 $12 reversed single #
loop $-1 $13 $14 $4 #
cone-surface $-1 -0.02 -0.062 0 0 0 1 0.006 0 0 1 0 1 0 #
pid_name-sg-attrib $-1 $-1 $-1 $6 7 114 119 105 108 115 111 110 784252905 1279 1 #
face $15 $16 $17 $3 $-1 $18 forward single #
loop $-1 $19 $20 $6 #
cone-surface $-1 0.02 -0.062 0 0 0 1 0.006 0 0 1 0 1 0 #
loop $-1 $-1 $21 $4 #
coedge $-1 $14 $14 $22 $23 0 $7 $-1 #
pid_name-sg-attrib $-1 $-1 $-1 $10 7 114 119 105 108 115 111 110 784252905 1280 1 #
face $24 $25 $26 $3 $-1 $27 forward single #
loop $-1 $28 $29 $10 #
plane-surface $-1 0 0 0.01 0 0 1 1 0 0 0 #
loop $-1 $-1 $30 $6 #
coedge $-1 $20 $20 $31 $32 0 $11 $-1 #
coedge $-1 $21 $21 $33 $34 0 $13 $-1 #
coedge $-1 $22 $22 $14 $23 1 $35 $-1 #
edge $-1 $36 $36 $22 $37 0 #
pid_name-sg-attrib $-1 $-1 $-1 $16 7 114 119 105 108 115 111 110 784252905 1281 1 #
face $38 $39 $40 $3 $-1 $41 reversed single #
loop $-1 $-1 $42 $16 #
plane-surface $-1 -0.03 -0.0698331477354788 0 -1 0 0 0 0 1 0 #
loop $-1 $43 $44 $10 #
coedge $-1 $45 $46 $47 $48 1 $17 $-1 #
coedge $-1 $30 $30 $44 $49 0 $19 $-1 #
coedge $-1 $31 $31 $20 $32 1 $50 $-1 #
edge $-1 $51 $51 $31 $52 0 #
coedge $-1 $33 $33 $21 $34 1 $43 $-1 #
edge $-1 $53 $53 $33 $54 1 #
loop $-1 $-1 $22 $55 #
vertex $-1 $23 $56 #
ellipse-curve $-1 -0.02 -0.062 0 0 0 -1 -0.006 0 0 1 #
pid_name-sg-attrib $-1 $-1 $-1 $25 7 114 119 105 108 115 111 110 784252905 1282 1 #
face $57 $58 $59 $3 $-1 $60 forward single #
loop $-1 $-1 $61 $25 #
cone-surface $-1 -0.05 -0.0698331477354788 0 0 0 1 0.02 0 0 1 0 1 0 #
coedge $-1 $62 $63 $64 $65 1 $26 $-1 #
loop $-1 $-1 $33 $10 #
coedge $-1 $44 $44 $30 $49 1 $28 $-1 #
coedge $-1 $66 $29 $67 $68 1 $17 $-1 #
coedge $-1 $29 $69 $70 $71 1 $17 $-1 #
coedge $-1 $72 $73 $29 $48 0 $74 $-1 #
edge $-1 $75 $76 $29 $77 1 #
edge $-1 $78 $78 $44 $79 1 #
loop $-1 $35 $31 $55 #
vertex $-1 $32 $80 #
ellipse-curve $-1 0.02 -0.062 0 0 0 -1 -0.006 0 0 1 #
vertex $-1 $34 $81 #
ellipse-curve $-1 -0.02 -0.062 0.01 0 0 -1 0.006 0 0 1 #
face $82 $-1 $83 $3 $-1 $84 reversed single #
point $-1 -0.014 -0.062 0 #
pid_name-sg-attrib $-1 $-1 $-1 $39 7 114 119 105 108 115 111 110 784252905 1283 1 #
face $85 $86 $87 $3 $-1 $88 reversed single #
loop $-1 $-1 $89 $39 #
cone-surface $-1 0 0.005 0 0 0 1 0.07 0 0 1 0 1 0 #
coedge $-1 $90 $91 $92 $93 1 $40 $-1 #
coedge $-1 $92 $42 $94 $95 0 $26 $-1 #
coedge $-1 $42 $92 $96 $97 0 $26 $-1 #
coedge $-1 $98 $99 $42 $65 0 $100 $-1 #
edge $-1 $101 $102 $42 $103 1 #
coedge $-1 $104 $45 $105 $106 1 $17 $-1 #
coedge $-1 $107 $108 $45 $68 0 $109 $-1 #
edge $-1 $110 $75 $45 $111 1 #
coedge $-1 $46 $94 $99 $112 1 $17 $-1 #
coedge $-1 $113 $114 $46 $71 0 $115 $-1 #
edge $-1 $76 $116 $46 $117 1 #
coedge $-1 $118 $47 $114 $119 0 $74 $-1 #
coedge $-1 $47 $118 $107 $120 1 $74 $-1 #
loop $-1 $-1 $73 $121 #
vertex $-1 $120 $122 #
vertex $-1 $119 $123 #
ellipse-curve $-1 0 0 0.01 1.10632874743419e-17 6.09586135907328e-17 -1 -0.01 -0.0550999092558236 -3.46944695195361e-18 1 #
vertex $-1 $49 $124 #
ellipse-curve $-1 0.02 -0.062 0.01 0 0 -1 0.006 0 0 1 #
point $-1 0.026 -0.062 0 #
point $-1 -0.014 -0.062 0.01 #
pid_name-sg-attrib $-1 $-1 $-1 $55 7 114 119 105 108 115 111 110 784252905 1291 1 #
loop $-1 $50 $125 $55 #
plane-surface $-1 0 0 0 0 0 1 1 0 0 0 #
pid_name-sg-attrib $-1 $-1 $-1 $58 7 114 119 105 108 115 111 110 784252905 1284 1 #
face $126 $127 $128 $3 $-1 $129 forward single #
loop $-1 $-1 $130 $58 #
cone-surface $-1 0.05 -0.0698331477354788 0 0 0 1 0.02 0 0 1 0 1 0 #
coedge $-1 $131 $132 $133 $134 1 $59 $-1 #
coedge $-1 $133 $61 $135 $136 0 $40 $-1 #
coedge $-1 $61 $133 $137 $138 0 $40 $-1 #
coedge $-1 $63 $62 $61 $93 0 $26 $-1 #
edge $-1 $139 $140 $61 $141 1 #
coedge $-1 $69 $135 $62 $95 1 $17 $-1 #
edge $-1 $101 $139 $94 $142 1 #
coedge $-1 $137 $125 $63 $97 1 $83 $-1 #
edge $-1 $140 $102 $96 $143 0 #
coedge $-1 $144 $64 $125 $145 0 $100 $-1 #
coedge $-1 $64 $144 $69 $112 0 $100 $-1 #
loop $-1 $-1 $144 $146 #
vertex $-1 $65 $147 #
vertex $-1 $65 $148 #
straight-curve $-1 -0.03 -0.07 0 0 0 1 #
coedge $-1 $149 $66 $150 $151 1 $17 $-1 #
coedge $-1 $152 $153 $66 $106 0 $154 $-1 #
edge $-1 $155 $110 $66 $156 1 #
coedge $-1 $157 $67 $73 $120 0 $109 $-1 #
coedge $-1 $67 $157 $152 $158 1 $109 $-1 #
loop $-1 $-1 $108 $159 #
vertex $-1 $158 $160 #
straight-curve $-1 0.01 -0.0550999092558236 0.01 0 -1 0 #
edge $-1 $116 $101 $69 $161 1 #
coedge $-1 $162 $70 $144 $163 1 $115 $-1 #
coedge $-1 $70 $162 $72 $119 1 $115 $-1 #
loop $-1 $-1 $114 $164 #
vertex $-1 $163 $165 #
straight-curve $-1 -0.01 -0.07 0.01 0 1 0 #
coedge $-1 $73 $72 $166 $167 0 $74 $-1 #
edge $-1 $76 $168 $114 $169 1 #
edge $-1 $75 $170 $73 $171 1 #
face $172 $164 $74 $3 $-1 $173 reversed single #
point $-1 0.00999999999999998 -0.0550999092558236 0.01 #
point $-1 -0.0100000000000001 -0.0550999092558236 0.01 #
point $-1 0.026 -0.062 0.01 #
coedge $-1 $96 $174 $98 $145 1 $83 $-1 #
pid_name-sg-attrib $-1 $-1 $-1 $86 7 114 119 105 108 115 111 110 784252905 1285 1 #
face $175 $159 $154 $3 $-1 $176 forward single #
loop $-1 $-1 $177 $86 #
plane-surface $-1 0.03 -0.07 0 1 0 0 0 0 -1 0 #
coedge $-1 $178 $179 $180 $181 1 $87 $-1 #
coedge $-1 $180 $89 $182 $183 0 $59 $-1 #
coedge $-1 $89 $180 $184 $185 0 $59 $-1 #
coedge $-1 $91 $90 $89 $134 0 $40 $-1 #
edge $-1 $186 $187 $89 $188 1 #
coedge $-1 $94 $182 $90 $136 1 $17 $-1 #
edge $-1 $139 $186 $135 $189 1 #
coedge $-1 $184 $96 $91 $138 1 $83 $-1 #
edge $-1 $187 $140 $137 $190 0 #
vertex $-1 $93 $191 #
vertex $-1 $93 $192 #
straight-curve $-1 -0.03 -0.0698331477354788 0 0 0 1 #
straight-curve $-1 -0.03 -0.0698331477354789 0.01 0 -1 0 #
straight-curve $-1 -0.03 -0.0698331477354789 0 0 -1 0 #
coedge $-1 $99 $98 $113 $163 0 $100 $-1 #
edge $-1 $102 $193 $125 $194 0 #
face $195 $55 $100 $3 $-1 $196 forward single #
point $-1 -0.03 -0.07 0.01 #
point $-1 -0.03 -0.07 0 #
coedge $-1 $182 $104 $178 $197 1 $17 $-1 #
coedge $-1 $198 $177 $104 $151 0 $128 $-1 #
edge $-1 $199 $155 $104 $200 1 #
coedge $-1 $201 $105 $108 $158 0 $154 $-1 #
coedge $-1 $105 $201 $198 $202 1 $154 $-1 #
loop $-1 $-1 $153 $127 #
vertex $-1 $202 $203 #
straight-curve $-1 0.01 -0.07 0.01 1 0 0 #
coedge $-1 $108 $107 $204 $205 0 $109 $-1 #
edge $-1 $110 $206 $108 $207 1 #
face $208 $121 $109 $3 $-1 $209 forward single #
point $-1 0.01 -0.07 0.01 #
straight-curve $-1 -0.03 -0.07 0.01 1 0 0 #
coedge $-1 $114 $113 $174 $210 0 $115 $-1 #
edge $-1 $193 $116 $113 $211 0 #
face $212 $146 $115 $3 $-1 $213 forward single #
point $-1 -0.01 -0.07 0.01 #
coedge $-1 $174 $204 $118 $167 1 $83 $-1 #
edge $-1 $168 $170 $166 $214 0 #
vertex $-1 $119 $215 #
straight-curve $-1 -0.0100000000000001 -0.0550999092558236 0 0 0 1 #
vertex $-1 $120 $216 #
straight-curve $-1 0.00999999999999998 -0.0550999092558236 0 0 0 1 #
pid_name-sg-attrib $-1 $-1 $-1 $121 7 114 119 105 108 115 111 110 784252905 1288 1 #
cone-surface $-1 0 0 0 0 0 1 0.056 0 0 1 0 1 0 #
coedge $-1 $125 $166 $162 $210 1 $83 $-1 #
pid_name-sg-attrib $-1 $-1 $-1 $127 7 114 119 105 108 115 111 110 784252905 1286 1 #
plane-surface $-1 0.01 -0.07 0 0 -1 0 0 0 -1 0 #
coedge $-1 $150 $217 $218 $219 1 $128 $-1 #
coedge $-1 $218 $130 $149 $197 0 $87 $-1 #
coedge $-1 $130 $218 $220 $221 0 $87 $-1 #
coedge $-1 $132 $131 $130 $181 0 $59 $-1 #
edge $-1 $222 $223 $130 $224 1 #
coedge $-1 $135 $149 $131 $183 1 $17 $-1 #
edge $-1 $186 $222 $182 $225 1 #
coedge $-1 $220 $137 $132 $185 1 $83 $-1 #
edge $-1 $223 $187 $184 $226 0 #
vertex $-1 $134 $227 #
vertex $-1 $134 $228 #
straight-curve $-1 -0.0388888888888889 -0.0532035593498169 0 0 0 1 #
ellipse-curve $-1 -0.05 -0.0698331477354788 0.01 0 0 -1 0.0111111111111111 0.016629588385662 0 1 #
ellipse-curve $-1 -0.05 -0.0698331477354788 0 0 0 -1 0.0111111111111111 0.016629588385662 0 1 #
point $-1 -0.03 -0.0698331477354788 0.01 #
point $-1 -0.03 -0.0698331477354788 0 #
vertex $-1 $163 $229 #
straight-curve $-1 -0.03 -0.07 0 1 0 0 #
pid_name-sg-attrib $-1 $-1 $-1 $146 7 114 119 105 108 115 111 110 784252905 1290 1 #
plane-surface $-1 -0.03 -0.07 0 0 -1 0 0 0 -1 0 #
edge $-1 $222 $199 $149 $230 1 #
coedge $-1 $217 $150 $153 $202 0 $128 $-1 #
vertex $-1 $219 $231 #
straight-curve $-1 0.03 -0.07 0.01 0 1 0 #
coedge $-1 $153 $152 $232 $233 0 $154 $-1 #
edge $-1 $155 $234 $153 $235 1 #
point $-1 0.03 -0.07 0.01 #
coedge $-1 $166 $232 $157 $205 1 $83 $-1 #
edge $-1 $170 $206 $204 $236 0 #
vertex $-1 $158 $237 #
straight-curve $-1 0.01 -0.07 0 0 0 1 #
pid_name-sg-attrib $-1 $-1 $-1 $159 7 114 119 105 108 115 111 110 784252905 1287 1 #
plane-surface $-1 0.01 -0.0550999092558236 0 -1 0 0 0 0 1 0 #
edge $-1 $193 $168 $174 $238 0 #
straight-curve $-1 -0.01 -0.07 0 0 0 1 #
pid_name-sg-attrib $-1 $-1 $-1 $164 7 114 119 105 108 115 111 110 784252905 1289 1 #
plane-surface $-1 -0.01 -0.07 0 1 0 0 0 0 -1 0 #
ellipse-curve $-1 0 0 0 0 0 -1 -0.01 -0.0550999092558236 0 1 #
point $-1 -0.0100000000000001 -0.0550999092558236 0 #
point $-1 0.00999999999999998 -0.0550999092558236 0 #
coedge $-1 $177 $198 $239 $240 0 $128 $-1 #
coedge $-1 $179 $178 $177 $219 0 $87 $-1 #
edge $-1 $199 $241 $177 $242 1 #
coedge $-1 $239 $184 $179 $221 1 $83 $-1 #
edge $-1 $241 $223 $220 $243 0 #
vertex $-1 $181 $244 #
vertex $-1 $181 $245 #
straight-curve $-1 0.0388888888888889 -0.0532035593498169 0 0 0 1 #
ellipse-curve $-1 0 0.005 0.01 2.75352932694731e-17 -4.12110533834844e-17 1 0.0388888888888888 -0.0582035593498169 -3.46944695195361e-18 1 #
ellipse-curve $-1 0 0.005 0 0 0 1 0.0388888888888888 -0.0582035593498169 0 1 #
point $-1 -0.0388888888888889 -0.0532035593498169 0.01 #
point $-1 -0.0388888888888889 -0.0532035593498169 0 #
point $-1 -0.01 -0.07 0 #
ellipse-curve $-1 0.05 -0.0698331477354788 0.01 0 0 -1 -0.02 -2.77555756156289e-17 0 1 #
point $-1 0.03 -0.0698331477354788 0.01 #
coedge $-1 $204 $239 $201 $233 1 $83 $-1 #
edge $-1 $206 $234 $232 $246 0 #
vertex $-1 $202 $247 #
straight-curve $-1 0.03 -0.07 0 0 0 1 #
straight-curve $-1 0.01 -0.0550999092558236 0 0 -1 0 #
point $-1 0.01 -0.07 0 #
straight-curve $-1 -0.01 -0.07 0 0 1 0 #
coedge $-1 $232 $220 $217 $240 1 $83 $-1 #
edge $-1 $234 $241 $239 $248 0 #
vertex $-1 $219 $249 #
straight-curve $-1 0.03 -0.0698331477354788 0 0 0 1 #
ellipse-curve $-1 0.05 -0.0698331477354788 0 0 0 -1 -0.02 -2.77555756156289e-17 0 1 #
point $-1 0.0388888888888889 -0.0532035593498169 0.01 #
point $-1 0.0388888888888889 -0.0532035593498169 0 #
straight-curve $-1 0.01 -0.07 0 1 0 0 #
point $-1 0.03 -0.07 0 #
straight-curve $-1 0.03 -0.07 0 0 1 0 #
point $-1 0.03 -0.0698331477354788 0 #
