600 0 2 0           
24 FBMach with ACIS - 6.0.3 13 ACIS 6.0.3 NT 24 Thu May 24 09:28:16 2001 
1 9.9999999999999995e-007 1e-010 
body $2 $3 $-1 $4 #
bdycol-kcp $-1 1 7 $5 $6 $7 $8 $9 $10 $11 #
model_id-kcp-attrib $-1 $12 $-1 $0 1 990710895 110 -949092351 1 #
lump $-1 $-1 $13 $0 #
transform $-1 1 0 0 0 1 0 0 0 1 0 0 0 1 no_rotate no_reflect no_shear #
body $14 $15 $-1 $16 #
body $17 $18 $-1 $19 #
body $20 $21 $-1 $22 #
body $23 $24 $-1 $25 #
body $26 $27 $-1 $28 #
body $29 $30 $-1 $31 #
body $32 $33 $-1 $34 #
brep_non_volatile_id-cdc-attrib $-1 $-1 $2 $0 1 #
shell $-1 $-1 $-1 $35 $-1 $3 #
model_id-kcp-attrib $-1 $-1 $-1 $5 1 990710895 120 -948436990 1 #
lump $-1 $-1 $36 $5 #
transform $-1 1 0 0 0 1 0 0 0 1 120 -3.6415315207705135e-014 -12 1 no_rotate no_reflect no_shear #
rgb_color-st-attrib $-1 $37 $-1 $6 1 1 0.5 #
lump $-1 $-1 $38 $6 #
transform $-1 1 0 0 0 -1 6.123232939432184e-017 0 -6.123232939432184e-017 -1 120 -3.6722935085185702e-014 5.3535533905935049 1 rotate no_reflect no_shear #
rgb_color-st-attrib $-1 $39 $-1 $7 1 1 0.5 #
lump $-1 $-1 $40 $7 #
transform $-1 1 0 0 0 1 -6.1232329394409206e-017 0 6.1232329394409206e-017 1 120 -3.6337606574767698e-014 11.646446609407 1 rotate no_reflect no_shear #
rgb_color-st-attrib $-1 $41 $-1 $8 0.5 1 1 #
lump $-1 $-1 $42 $8 #
transform $-1 1 0 0 0 1 0 0 0 1 120 -3.6415315207705135e-014 -12 1 no_rotate no_reflect no_shear #
rgb_color-st-attrib $-1 $43 $-1 $9 0 0 1 #
lump $-1 $-1 $44 $9 #
transform $-1 1 0 0 0 1 0 0 0 1 120 -3.6415315207705135e-014 -12 1 no_rotate no_reflect no_shear #
rgb_color-st-attrib $-1 $45 $-1 $10 1 0.5 1 #
lump $-1 $-1 $46 $10 #
transform $-1 1 0 0 0 1 0 0 0 1 120 -3.6415315207705135e-014 -12 1 no_rotate no_reflect no_shear #
rgb_color-st-attrib $-1 $47 $-1 $11 1 0.5 1 #
lump $-1 $-1 $48 $11 #
transform $-1 1 0 0 0 1 0 0 0 1 120 -3.6415315207705135e-014 -12 1 no_rotate no_reflect no_shear #
face $49 $50 $51 $13 $-1 $52 reversed single #
shell $-1 $-1 $-1 $53 $-1 $15 #
model_id-kcp-attrib $-1 $-1 $17 $6 1 990710895 130 -947781629 1 #
shell $-1 $-1 $-1 $54 $-1 $18 #
model_id-kcp-attrib $-1 $-1 $20 $7 1 990710895 130 -947781628 1 #
shell $-1 $-1 $-1 $55 $-1 $21 #
model_id-kcp-attrib $-1 $-1 $23 $8 1 990710895 220 -941883387 1 #
shell $-1 $-1 $-1 $56 $-1 $24 #
model_id-kcp-attrib $-1 $-1 $26 $9 1 990710895 400 -946864122 1 #
shell $-1 $-1 $-1 $57 $-1 $27 #
model_id-kcp-attrib $-1 $-1 $29 $10 1 990710895 490 -940965881 1 #
shell $-1 $-1 $-1 $58 $-1 $30 #
model_id-kcp-attrib $-1 $-1 $32 $11 1 990710895 550 -953810936 1 #
shell $-1 $-1 $-1 $59 $-1 $33 #
model_id-kcp-attrib $-1 $60 $-1 $35 1 990710895 110 -949092351 2 #
face $61 $62 $63 $13 $-1 $64 reversed single #
loop $65 $-1 $66 $35 #
plane-surface $67 120 -2.88675134594817 -36 -0.49999999999999989 -0.86602540378443882 5.3028752788419785e-017 0.86602540378443904 -0.5 3.0616164697184302e-017 forward_v I I I I #
face $68 $69 $70 $36 $-1 $71 forward single #
face $-1 $72 $73 $38 $-1 $74 reversed single #
face $-1 $75 $76 $40 $-1 $77 reversed single #
face $-1 $78 $79 $42 $-1 $80 reversed single #
face $-1 $81 $82 $44 $-1 $83 forward single #
face $-1 $84 $85 $46 $-1 $86 forward single #
face $-1 $87 $88 $48 $-1 $89 forward single #
face_name-twe-attrib $-1 $90 $49 $35 1 #
model_id-kcp-attrib $-1 $91 $-1 $50 1 990710895 110 -949092351 3 #
face $92 $93 $94 $13 $-1 $95 reversed single #
loop $96 $-1 $97 $50 #
plane-surface $98 117.5 -1.4433756729741001 -36 -1 -8.3253363382339795e-049 -1.3596308389011999e-032 0 -1 6.1232329394368604e-017 forward_v I I I I #
loop_type-twe-attrib $-1 $-1 $-1 $51 0 #
coedge $-1 $99 $100 $101 $102 reversed $51 $-1 #
surf-twe-attrib $-1 $-1 $-1 $52 5 #
model_id-kcp-attrib $-1 $-1 $-1 $53 1 990710895 120 -948436990 3 #
face $103 $104 $105 $36 $-1 $106 reversed single #
loop $-1 $-1 $107 $53 #
plane-surface $-1 0 0 24 0 0 1 1 0 0 forward_v I I I I #
face $-1 $108 $109 $38 $-1 $110 forward single #
loop $-1 $111 $112 $54 #
cone-surface $-1 0 0 7.1464466094069277 0 0 1 7.5 0 0 1 I I -0.70710678118652714 0.70710678118656789 7.5 forward I I I I #
face $-1 $113 $114 $40 $-1 $115 forward single #
loop $-1 $116 $117 $55 #
cone-surface $-1 0 0 7.1464466094069223 0 0 1 7.5 0 0 1 I I -0.70710678118655113 0.70710678118654391 7.5 forward I I I I #
face $-1 $118 $119 $42 $-1 $80 reversed single #
loop $-1 $-1 $120 $56 #
cone-surface $-1 0 -2.8397942803209871e-015 -24 0 -6.1232329394368604e-017 -1 15 -1.8369095307335659e-015 1.1247824945353276e-031 1 I I 0 1 15 forward I I I I #
face $-1 $121 $122 $44 $-1 $123 forward single #
loop $-1 $-1 $124 $57 #
plane-surface $-1 0 -2.8867513459481335 -20 0.500000000000001 -0.86602540378443804 4.8074067159589065e-017 9.6148134319177932e-017 0 -1 forward_v I I I I #
face $-1 $125 $126 $46 $-1 $127 forward single #
loop $-1 $128 $129 $58 #
cone-surface $-1 3.0616164697184302e-017 -3.2926877515188111e-016 17 0 -6.1232329394368592e-017 -1 -8 -3.0385816786431356e-063 0 1 I I 0 -1 8 forward I I I I #
face $-1 $130 $131 $48 $-1 $132 forward single #
loop $-1 $133 $134 $59 #
cone-surface $-1 1.224646587887372e-015 -3.9050110454629368e-016 16 0 -6.1232329394368592e-017 -1 -5 -6.6848796930148983e-063 0 1 I I 0 -1 5 forward I I I I #
primitive_order-cdc-attrib $-1 $-1 $60 $35 1 10 #
face_name-twe-attrib $-1 $135 $61 $50 2 #
model_id-kcp-attrib $-1 $136 $-1 $62 1 990710895 110 -949092351 4 #
face $137 $138 $139 $13 $-1 $140 reversed single #
loop $141 $-1 $142 $62 #
plane-surface $143 117.5 1.4433756729740199 -36 -0.50000000000000033 0.86602540378443849 -5.3028752788419828e-017 -0.86602540378443804 -0.5 3.0616164697184302e-017 forward_v I I I I #
loop_type-twe-attrib $-1 $-1 $-1 $63 0 #
coedge $-1 $144 $145 $146 $147 reversed $63 $-1 #
surf-twe-attrib $-1 $-1 $-1 $64 7 #
coedge $-1 $148 $66 $149 $150 reversed $51 $-1 #
coedge $-1 $66 $148 $144 $151 forward $51 $-1 #
coedge $-1 $146 $152 $66 $102 forward $153 $-1 #
edge $154 $155 0 $156 2.8867513459481318 $66 $157 forward 7 unknown #
model_id-kcp-attrib $-1 $-1 $-1 $69 1 990710895 120 -948436990 2 #
face $-1 $158 $159 $36 $-1 $160 reversed single #
loop $-1 $-1 $161 $69 #
plane-surface $-1 0 0 -24 0 0 1 1 0 0 forward_v I I I I #
coedge $-1 $162 $163 $164 $165 forward $70 $-1 #
face $-1 $-1 $166 $38 $-1 $167 forward single #
loop $-1 $168 $169 $72 #
cone-surface $-1 0 0 0 0 0 1 15 0 0 1 I I 0 1 15 forward I I I I #
loop $-1 $-1 $170 $54 #
coedge $-1 $112 $112 $171 $172 reversed $73 $-1 #
face $-1 $-1 $173 $40 $-1 $174 forward single #
loop $-1 $175 $176 $75 #
cone-surface $-1 0 0 0 0 0 1 15 0 0 1 I I 0 1 15 forward I I I I #
loop $-1 $-1 $177 $55 #
coedge $-1 $117 $117 $178 $179 reversed $76 $-1 #
face $-1 $180 $181 $42 $-1 $80 reversed single #
loop $-1 $-1 $182 $78 #
coedge $-1 $183 $184 $185 $186 forward $79 $-1 #
face $-1 $187 $188 $44 $-1 $189 forward single #
loop $-1 $-1 $190 $81 #
plane-surface $-1 2.5 -1.4433756729740637 -20 1 6.1534805964273997e-016 -3.41586791986892e-032 -3.41586791986892e-032 0 -1 forward_v I I I I #
coedge $-1 $191 $192 $193 $194 forward $82 $-1 #
face $-1 $195 $196 $46 $-1 $197 reversed single #
loop $-1 $198 $199 $84 #
cone-surface $-1 0 -3.2926877515187441e-016 17 0 -6.1232329394368592e-017 -1 15 -1.8369095307335659e-015 1.1247824945353274e-031 1 I I 0 1 15 forward I I I I #
loop $-1 $-1 $200 $58 #
coedge $-1 $129 $129 $201 $202 forward $85 $-1 #
face $-1 $203 $204 $48 $-1 $205 reversed single #
loop $-1 $206 $207 $87 #
cone-surface $-1 0 -3.90501104546243e-016 16 0 -6.1232329394368592e-017 -1 15 -1.8369095307335659e-015 1.1247824945353274e-031 1 I I 0 1 15 forward I I I I #
loop $-1 $-1 $208 $59 #
coedge $-1 $134 $134 $209 $210 forward $88 $-1 #
primitive_order-cdc-attrib $-1 $-1 $91 $50 1 10 #
face_name-twe-attrib $-1 $211 $92 $62 3 #
model_id-kcp-attrib $-1 $212 $-1 $93 1 990710895 110 -949092351 5 #
face $213 $214 $215 $13 $-1 $216 reversed single #
loop $217 $-1 $218 $93 #
plane-surface $219 120 2.88675134594809 -36 0.49999999999999989 0.86602540378443882 -5.3028752788419785e-017 -0.86602540378443904 0.5 -3.0616164697184302e-017 forward_v I I I I #
loop_type-twe-attrib $-1 $-1 $-1 $94 0 #
coedge $-1 $220 $221 $222 $223 reversed $94 $-1 #
surf-twe-attrib $-1 $-1 $-1 $95 12 #
coedge $-1 $224 $97 $100 $151 reversed $63 $-1 #
coedge $-1 $97 $224 $220 $225 forward $63 $-1 #
coedge $-1 $222 $101 $97 $147 forward $153 $-1 #
edge $226 $156 0 $227 2.8867513459481202 $97 $228 forward 7 unknown #
coedge $-1 $100 $99 $229 $230 reversed $51 $-1 #
coedge $-1 $231 $232 $99 $150 forward $233 $-1 #
edge $234 $235 0 $155 4 $99 $236 forward 7 unknown #
edge $237 $238 0 $156 4 $144 $239 forward 7 unknown #
coedge $-1 $101 $240 $231 $241 forward $153 $-1 #
loop $242 $-1 $101 $243 #
edge_name-twe-attrib $-1 $-1 $-1 $102 1 4608 #
vertex $-1 $150 $244 #
vertex $-1 $151 $245 #
straight-curve $246 120 -2.88675134594817 -32 -0.86602540378443904 0.5 -3.0616164697184302e-017 I I #
face $-1 $247 $248 $36 $-1 $249 reversed single #
loop $-1 $-1 $250 $104 #
plane-surface $-1 0 -15 0 0 1 0 0 0 1 forward_v I I I I #
coedge $-1 $251 $252 $253 $254 forward $105 $-1 #
coedge $-1 $255 $107 $256 $257 forward $70 $-1 #
coedge $-1 $107 $255 $258 $259 forward $70 $-1 #
coedge $-1 $260 $261 $107 $165 reversed $262 $-1 #
edge $-1 $263 -15 $264 15 $164 $265 forward 7 unknown #
loop $-1 $266 $171 $108 #
plane-surface $-1 0 0 0.35355339059350488 0 0 1 1 0 0 forward_v I I I I #
loop $-1 $-1 $267 $72 #
coedge $-1 $169 $169 $170 $268 reversed $109 $-1 #
coedge $-1 $170 $170 $169 $268 forward $111 $-1 #
coedge $-1 $171 $171 $112 $172 forward $166 $-1 #
edge $-1 $269 -3.1415926535897931 $269 3.1415926535897931 $171 $270 forward 7 unknown #
loop $-1 $271 $178 $113 #
plane-surface $-1 0 0 0.35355339059300039 0 0 1 1 0 0 forward_v I I I I #
loop $-1 $-1 $272 $75 #
coedge $-1 $176 $176 $177 $273 reversed $114 $-1 #
coedge $-1 $177 $177 $176 $273 forward $116 $-1 #
coedge $-1 $178 $178 $117 $179 forward $173 $-1 #
edge $-1 $274 -3.1415926535897931 $274 3.1415926535897931 $178 $275 forward 7 unknown #
face $-1 $276 $277 $42 $-1 $80 reversed single #
loop $-1 $-1 $278 $118 #
coedge $-1 $279 $185 $280 $281 reversed $119 $-1 #
coedge $-1 $282 $120 $283 $284 reversed $79 $-1 #
coedge $-1 $120 $282 $285 $286 reversed $79 $-1 #
coedge $-1 $182 $287 $288 $186 reversed $119 $-1 #
edge $-1 $289 -48 $290 0 $288 $291 forward 7 unknown #
face $-1 $292 $293 $44 $-1 $294 forward single #
loop $-1 $-1 $295 $121 #
plane-surface $-1 2.5 1.4433756729740663 -20 0.49999999999999989 0.86602540378443882 -4.8074067159589108e-017 0 5.5511151231257827e-017 1 forward_v I I I I #
coedge $-1 $296 $297 $298 $299 forward $122 $-1 #
coedge $-1 $300 $124 $297 $301 reversed $82 $-1 #
coedge $-1 $124 $300 $302 $303 forward $82 $-1 #
coedge $-1 $304 $298 $124 $194 reversed $305 $-1 #
edge $-1 $306 -2.1650635094610995 $307 0.72168783648703183 $124 $308 forward 7 unknown #
face $-1 $-1 $309 $46 $-1 $310 forward single #
loop $-1 $311 $312 $125 #
plane-surface $-1 -1.1422924901185767 6.4693136078308811e-017 16 0 0 1 1 0 0 forward_v I I I I #
loop $-1 $-1 $313 $84 #
coedge $-1 $199 $199 $312 $314 forward $126 $-1 #
coedge $-1 $200 $200 $315 $316 reversed $128 $-1 #
coedge $-1 $201 $201 $129 $202 reversed $311 $-1 #
edge $-1 $317 1.5777218104418274e-030 $317 6.2831853071795862 $129 $318 forward 7 unknown #
face $-1 $-1 $319 $48 $-1 $320 forward single #
loop $-1 $321 $322 $130 #
plane-surface $-1 -1.1363636363636356 -2.2924163852555662e-015 -24 0 0 1 1 0 0 forward_v I I I I #
loop $-1 $-1 $323 $87 #
coedge $-1 $207 $207 $322 $324 forward $131 $-1 #
coedge $-1 $208 $208 $325 $326 reversed $133 $-1 #
coedge $-1 $209 $209 $134 $210 reversed $321 $-1 #
edge $-1 $327 6.3108872417680937e-030 $327 6.2831853071795862 $134 $328 forward 7 unknown #
primitive_order-cdc-attrib $-1 $-1 $136 $62 1 10 #
face_name-twe-attrib $-1 $329 $137 $93 4 #
model_id-kcp-attrib $-1 $330 $-1 $138 1 990710895 110 -949092351 6 #
face $331 $243 $233 $13 $-1 $332 reversed single #
loop $333 $-1 $334 $138 #
plane-surface $335 122.5 1.4433756729740299 -36 1 6.1534805964273997e-016 -2.40828866912179e-032 -6.1534805964273997e-016 1 -6.1232329394368604e-017 forward_v I I I I #
loop_type-twe-attrib $-1 $-1 $-1 $139 0 #
coedge $-1 $336 $337 $338 $339 reversed $139 $-1 #
surf-twe-attrib $-1 $-1 $-1 $140 20 #
coedge $-1 $340 $142 $145 $225 reversed $94 $-1 #
coedge $-1 $142 $340 $336 $341 forward $94 $-1 #
coedge $-1 $338 $146 $142 $223 forward $153 $-1 #
edge $342 $227 0 $343 2.8867513459481335 $142 $344 forward 7 unknown #
coedge $-1 $145 $144 $345 $346 reversed $63 $-1 #
edge $347 $348 0 $227 4 $220 $349 forward 7 unknown #
edge_name-twe-attrib $-1 $-1 $-1 $147 3 4608 #
vertex $-1 $225 $350 #
straight-curve $351 117.5 -1.4433756729741001 -32 0 1 -6.1232329394368604e-017 I I #
coedge $-1 $352 $345 $148 $230 forward $353 $-1 #
edge $354 $238 -1.0825317547305511 $235 1.80421959121758 $229 $355 forward 7 unknown #
coedge $-1 $356 $149 $152 $241 reversed $233 $-1 #
coedge $-1 $149 $356 $352 $357 reversed $233 $-1 #
loop $358 $-1 $231 $214 #
edge_name-twe-attrib $-1 $-1 $-1 $150 2 4352 #
vertex $-1 $230 $359 #
straight-curve $360 120 -2.88675134594817 -36 1.3596308389011999e-032 6.1232329394368604e-017 1 I I #
edge_name-twe-attrib $-1 $-1 $-1 $151 4 4352 #
vertex $-1 $230 $361 #
straight-curve $362 117.5 -1.4433756729741001 -36 1.3596308389011999e-032 6.1232329394368604e-017 1 I I #
coedge $-1 $152 $338 $334 $363 forward $153 $-1 #
edge $364 $365 0 $155 2.8867513459481313 $231 $366 forward 7 unknown #
loop_type-twe-attrib $-1 $-1 $-1 $153 0 #
face $367 $368 $153 $13 $-1 $369 reversed single #
point $-1 120 -2.88675134594817 -32 #
point $-1 117.5 -1.4433756729741001 -32 #
cur-twe-attrib $-1 $-1 $-1 $157 29 #
face $-1 $370 $371 $36 $-1 $372 reversed single #
loop $-1 $-1 $373 $158 #
plane-surface $-1 -15 0 0 1 0 0 0 0 -1 forward_v I I I I #
coedge $-1 $374 $258 $375 $376 forward $159 $-1 #
coedge $-1 $377 $161 $374 $378 forward $105 $-1 #
coedge $-1 $161 $377 $379 $380 forward $105 $-1 #
coedge $-1 $261 $260 $161 $254 reversed $262 $-1 #
edge $-1 $381 -15 $382 15 $253 $383 forward 7 unknown #
coedge $-1 $163 $162 $384 $385 forward $70 $-1 #
coedge $-1 $386 $387 $162 $257 reversed $371 $-1 #
edge $-1 $264 -15 $388 15 $256 $389 forward 7 unknown #
coedge $-1 $250 $390 $163 $259 reversed $159 $-1 #
edge $-1 $391 -15 $263 15 $258 $392 forward 7 unknown #
coedge $-1 $253 $164 $390 $393 forward $262 $-1 #
coedge $-1 $164 $253 $386 $394 reversed $262 $-1 #
loop $-1 $-1 $260 $370 #
vertex $-1 $165 $395 #
vertex $-1 $165 $396 #
straight-curve $-1 15 0 24 0 1 0 I I #
loop $-1 $-1 $397 $108 #
coedge $-1 $267 $267 $397 $398 reversed $168 $-1 #
edge $-1 $399 0 $399 6.2831853071795862 $169 $400 forward 7 unknown #
vertex $-1 $172 $401 #
ellipse-curve $-1 0 0 0.35355339059350488 0 0 -1 14.292893218813031 0 0 1 I I #
loop $-1 $-1 $402 $113 #
coedge $-1 $272 $272 $402 $403 reversed $175 $-1 #
edge $-1 $404 0 $404 6.2831853071795862 $176 $405 forward 7 unknown #
vertex $-1 $179 $406 #
ellipse-curve $-1 0 0 0.35355339059300039 0 0 -1 14.29289321881399 0 0 1 I I #
face $-1 $407 $408 $42 $-1 $409 reversed single #
loop $-1 $-1 $410 $180 #
coedge $-1 $411 $412 $413 $414 reversed $181 $-1 #
coedge $-1 $287 $182 $415 $416 forward $119 $-1 #
coedge $-1 $417 $418 $182 $281 forward $419 $-1 #
edge $-1 $420 -3.1415926535897931 $289 -1.5707963267948968 $280 $421 forward 7 unknown #
coedge $-1 $184 $183 $422 $423 reversed $79 $-1 #
coedge $-1 $424 $425 $183 $284 forward $426 $-1 #
edge $-1 $427 1.2246063538223773e-016 $290 1.5707963267948968 $283 $428 forward 7 unknown #
coedge $-1 $429 $430 $184 $286 forward $431 $-1 #
edge $-1 $289 -1.5707963267948968 $432 -1.2246063538223773e-016 $285 $421 forward 7 unknown #
coedge $-1 $185 $279 $433 $434 reversed $119 $-1 #
coedge $-1 $435 $436 $437 $186 forward $438 $-1 #
vertex $-1 $439 $440 #
vertex $-1 $441 $442 #
straight-curve $-1 0 15 -24 0 -6.1232329394368604e-017 -1 I I #
face $-1 $443 $444 $44 $-1 $445 forward single #
loop $-1 $-1 $446 $187 #
plane-surface $-1 0 2.8867513459481264 -20 -0.50000000000000033 0.86602540378443849 -4.8074067159589089e-017 -9.6148134319178117e-017 0 1 forward_v I I I I #
coedge $-1 $447 $448 $449 $450 forward $188 $-1 #
coedge $-1 $451 $190 $448 $452 reversed $122 $-1 #
coedge $-1 $190 $451 $191 $301 forward $122 $-1 #
coedge $-1 $193 $449 $190 $299 reversed $305 $-1 #
edge $-1 $307 -2.1650635094610959 $453 0.72168783648703405 $190 $454 forward 7 unknown #
coedge $-1 $192 $191 $455 $456 reversed $82 $-1 #
edge $457 $458 0 $307 4 $297 $459 forward 7 unknown #
coedge $-1 $460 $461 $192 $303 reversed $462 $-1 #
edge $-1 $463 0 $306 4 $192 $464 forward 7 unknown #
coedge $-1 $465 $193 $461 $466 reversed $305 $-1 #
loop $-1 $-1 $193 $467 #
vertex $-1 $303 $468 #
vertex $-1 $301 $469 #
straight-curve $-1 1.8750000000000004 -1.80421959121758 -24 0.86602540378443804 0.500000000000001 -3.0616164697184364e-017 I I #
loop $-1 $470 $471 $195 #
plane-surface $-1 -1.1422924901185767 1.259254654726774e-016 17 0 0 1 1 0 0 forward_v I I I I #
loop $-1 $-1 $201 $125 #
coedge $-1 $312 $312 $199 $314 reversed $196 $-1 #
coedge $-1 $313 $313 $471 $472 reversed $198 $-1 #
edge $-1 $473 -3.1415926535897931 $473 3.1415926535897931 $199 $474 forward 7 unknown #
coedge $-1 $315 $315 $200 $316 forward $470 $-1 #
edge $-1 $475 1.5777218104418274e-030 $475 6.2831853071795862 $200 $476 forward 7 unknown #
vertex $-1 $202 $477 #
ellipse-curve $-1 3.0616164697184302e-017 -3.9050110454624971e-016 16 0 -6.1232329394368604e-017 -1 -8 -3.33013453529359e-048 -5.43852335560478e-032 1 I I #
loop $-1 $478 $479 $203 #
plane-surface $-1 -1.1363636363636356 1.568767905191774e-016 15.999999999999998 0 0 1 1 0 0 forward_v I I I I #
loop $-1 $-1 $209 $130 #
coedge $-1 $322 $322 $207 $324 reversed $204 $-1 #
coedge $-1 $323 $323 $479 $480 reversed $206 $-1 #
edge $-1 $481 -3.1415926535897931 $481 3.1415926535897931 $207 $482 forward 7 unknown #
coedge $-1 $325 $325 $208 $326 forward $478 $-1 #
edge $-1 $483 6.2714441965070433e-030 $483 6.2831853071795862 $208 $484 forward 7 unknown #
vertex $-1 $210 $485 #
ellipse-curve $-1 1.224646587887372e-015 -2.8397942803210376e-015 -24 0 -6.1232329394368604e-017 -1 -5 -2.0813340845584999e-048 -3.39907709725299e-032 1 I I #
primitive_order-cdc-attrib $-1 $-1 $212 $93 1 10 #
face_name-twe-attrib $-1 $486 $213 $138 5 #
model_id-kcp-attrib $-1 $487 $-1 $214 1 990710895 110 -949092351 7 #
plane-surface $488 122.5 -1.4433756729741001 -36 0.500000000000001 -0.86602540378443804 5.3028752788419798e-017 0.86602540378443804 0.500000000000001 -3.0616164697184401e-017 forward_v I I I I #
loop_type-twe-attrib $-1 $-1 $-1 $215 0 #
coedge $-1 $489 $490 $240 $363 reversed $215 $-1 #
surf-twe-attrib $-1 $-1 $-1 $216 32 #
coedge $-1 $491 $218 $221 $341 reversed $139 $-1 #
coedge $-1 $218 $491 $489 $492 forward $139 $-1 #
coedge $-1 $240 $222 $218 $339 forward $153 $-1 #
edge $493 $343 0 $494 2.8867513459481269 $218 $495 forward 7 unknown #
coedge $-1 $221 $220 $496 $497 reversed $94 $-1 #
edge $498 $499 0 $343 4 $336 $500 forward 7 unknown #
edge_name-twe-attrib $-1 $-1 $-1 $223 5 4608 #
vertex $-1 $341 $501 #
straight-curve $502 117.5 1.4433756729740199 -32 0.86602540378443804 0.5 -3.0616164697184302e-017 I I #
coedge $-1 $229 $496 $224 $346 forward $353 $-1 #
edge $503 $348 -2.1650635094610911 $238 0.72168783648702906 $345 $504 forward 7 unknown #
edge_name-twe-attrib $-1 $-1 $-1 $225 6 4352 #
vertex $-1 $346 $505 #
straight-curve $506 117.5 1.4433756729740199 -36 1.3596308389011999e-032 6.1232329394368604e-017 1 I I #
point $-1 117.5 1.4433756729740199 -32 #
cur-twe-attrib $-1 $-1 $-1 $228 41 #
coedge $-1 $507 $229 $232 $357 forward $353 $-1 #
loop $508 $509 $229 $368 #
attrib_edge_convexity-kcp-attrib $-1 $510 $-1 $230 1 #
straight-curve $511 118.4375 -1.9846415503393799 -36 0.86602540378443904 -0.5 -2.2412588091235499e-017 I I #
coedge $-1 $232 $231 $490 $512 reversed $233 $-1 #
edge $513 $235 -1.0825317547305513 $514 1.8042195912175802 $352 $515 forward 7 unknown #
loop_type-twe-attrib $-1 $-1 $-1 $233 0 #
point $-1 120 -2.88675134594817 -36 #
cur-twe-attrib $-1 $-1 $-1 $236 44 #
point $-1 117.5 -1.4433756729741001 -36 #
cur-twe-attrib $-1 $-1 $-1 $239 45 #
edge $516 $494 0 $365 2.88675134594813 $334 $517 forward 7 unknown #
edge_name-twe-attrib $-1 $-1 $-1 $241 11 4608 #
vertex $-1 $512 $518 #
straight-curve $519 122.5 -1.4433756729741001 -32 -0.86602540378443804 -0.500000000000001 3.0616164697184401e-017 I I #
model_id-kcp-attrib $-1 $520 $-1 $243 1 990710895 110 -949092351 8 #
face $521 $522 $353 $13 $-1 $523 forward single #
plane-surface $524 120 -3.8640105828906899e-014 -32 1.3596308389011999e-032 6.1232329394368604e-017 1 0 -1 6.1232329394368604e-017 forward_v I I I I #
face $-1 $-1 $262 $36 $-1 $525 reversed single #
loop $-1 $-1 $386 $247 #
plane-surface $-1 0 15 0 0 -1 0 0 0 -1 forward_v I I I I #
coedge $-1 $526 $384 $387 $527 forward $248 $-1 #
coedge $-1 $390 $250 $251 $378 reversed $159 $-1 #
coedge $-1 $384 $526 $250 $376 reversed $248 $-1 #
edge $-1 $391 -24 $528 24 $375 $529 forward 7 unknown #
coedge $-1 $252 $251 $526 $530 forward $105 $-1 #
edge $-1 $382 -15 $528 15 $374 $531 forward 7 unknown #
coedge $-1 $387 $386 $252 $380 reversed $371 $-1 #
edge $-1 $532 -15 $381 15 $379 $533 forward 7 unknown #
vertex $-1 $254 $534 #
vertex $-1 $393 $535 #
straight-curve $-1 15 0 -24 0 -1 0 I I #
coedge $-1 $373 $375 $255 $385 reversed $248 $-1 #
edge $-1 $388 -15 $391 15 $384 $536 forward 7 unknown #
coedge $-1 $379 $256 $261 $394 forward $371 $-1 #
coedge $-1 $256 $379 $373 $527 reversed $371 $-1 #
vertex $-1 $257 $537 #
straight-curve $-1 0 15 24 -1 0 0 I I #
coedge $-1 $258 $374 $260 $393 reversed $159 $-1 #
vertex $-1 $385 $538 #
straight-curve $-1 0 -15 24 1 0 0 I I #
edge $-1 $263 -24 $382 24 $260 $539 forward 7 unknown #
edge $-1 $264 -24 $381 24 $261 $540 forward 7 unknown #
point $-1 15 -15 24 #
point $-1 15 15 24 #
coedge $-1 $397 $397 $267 $398 forward $266 $-1 #
edge $-1 $541 0 $541 6.2831853071795862 $397 $542 forward 7 unknown #
vertex $-1 $268 $543 #
ellipse-curve $-1 0 0 -0.35355339059350488 0 0 -1 15 0 0 1 I I #
point $-1 -14.292893218813031 1.7503167850263207e-015 0.35355339059350488 #
coedge $-1 $402 $402 $272 $403 forward $271 $-1 #
edge $-1 $544 0 $544 6.2831853071795862 $402 $545 forward 7 unknown #
vertex $-1 $273 $546 #
ellipse-curve $-1 0 0 -0.35355339059300039 0 0 -1 15 0 0 1 I I #
point $-1 -14.29289321881399 1.7503167850264383e-015 0.35355339059300039 #
face $-1 $547 $438 $42 $-1 $548 reversed single #
loop $-1 $-1 $422 $276 #
plane-surface $-1 15 0 0 -1 0 0 0 0 1 forward_v I I I I #
coedge $-1 $415 $549 $550 $551 reversed $277 $-1 #
coedge $-1 $552 $278 $553 $554 reversed $181 $-1 #
coedge $-1 $278 $552 $282 $423 forward $181 $-1 #
coedge $-1 $555 $556 $278 $414 forward $557 $-1 #
edge $-1 $558 -1.5707963267948966 $427 1.2246063538223773e-016 $413 $428 forward 7 unknown #
coedge $-1 $559 $410 $560 $416 reversed $277 $-1 #
edge $-1 $420 -48 $561 0 $560 $562 forward 7 unknown #
coedge $-1 $418 $280 $436 $439 forward $419 $-1 #
coedge $-1 $280 $417 $563 $564 forward $419 $-1 #
loop $-1 $-1 $280 $565 #
vertex $-1 $566 $567 #
ellipse-curve $-1 0 9.9357530608706129e-017 24 0 0 -1 15 -1.8369095307335659e-015 1.1247824945353276e-031 1 I I #
coedge $-1 $568 $569 $570 $423 forward $408 $-1 #
edge $-1 $432 -48 $427 0 $422 $571 forward 7 unknown #
coedge $-1 $425 $283 $572 $441 forward $426 $-1 #
coedge $-1 $283 $424 $568 $573 forward $426 $-1 #
loop $-1 $-1 $283 $574 #
vertex $-1 $575 $576 #
ellipse-curve $-1 0 -2.8397942803209871e-015 -24 0 0 1 15 -1.8369095307335659e-015 1.1247824945353276e-031 1 I I #
coedge $-1 $430 $285 $569 $577 forward $431 $-1 #
coedge $-1 $285 $429 $578 $579 forward $431 $-1 #
loop $-1 $-1 $285 $580 #
vertex $-1 $577 $581 #
coedge $-1 $582 $583 $287 $434 forward $584 $-1 #
edge $-1 $290 1.5707963267948968 $561 3.1415926535897931 $433 $428 forward 7 unknown #
coedge $-1 $585 $288 $583 $586 reversed $438 $-1 #
coedge $-1 $288 $585 $417 $439 reversed $438 $-1 #
coedge $-1 $578 $572 $120 $186 reversed $587 $-1 #
loop $-1 $-1 $288 $407 #
edge $-1 $289 0 $588 15 $436 $589 forward 7 unknown #
point $-1 0 15 24 #
edge $-1 $290 0 $590 15 $572 $591 forward 7 unknown #
point $-1 0 15 -24 #
face $-1 $467 $462 $44 $-1 $592 forward single #
loop $-1 $-1 $593 $292 #
plane-surface $-1 -2.5 1.4433756729740566 -20 -1 1.9750780911180381e-063 -1.0963885860959744e-079 -1.0963885860959744e-079 0 1 forward_v I I I I #
coedge $-1 $594 $595 $596 $597 forward $293 $-1 #
coedge $-1 $598 $295 $595 $599 reversed $188 $-1 #
coedge $-1 $295 $598 $296 $452 forward $188 $-1 #
coedge $-1 $298 $596 $295 $450 reversed $305 $-1 #
edge $-1 $453 -2.1650635094610946 $600 0.72168783648703239 $295 $601 forward 7 unknown #
coedge $-1 $297 $296 $602 $603 reversed $122 $-1 #
edge $-1 $604 0 $453 4 $448 $605 forward 7 unknown #
vertex $-1 $452 $606 #
straight-curve $-1 2.5000000000000004 0.72168783648703205 -24 -6.1534805964273997e-016 1 -6.1232329394368604e-017 I I #
coedge $-1 $602 $607 $300 $456 forward $608 $-1 #
edge $609 $463 -2.1650635094610995 $458 0.72168783648703183 $300 $610 forward 7 unknown #
convexity-sys-attrib $-1 $-1 $-1 $301 #
vertex $-1 $456 $611 #
straight-curve $-1 2.5 -1.4433756729740637 -20 0 -5.5511151231257827e-017 -1 I I #
coedge $-1 $612 $302 $607 $613 reversed $462 $-1 #
coedge $-1 $302 $612 $304 $466 forward $462 $-1 #
loop $-1 $-1 $461 $443 #
vertex $-1 $613 $614 #
straight-curve $-1 0 -2.8867513459481335 -20 0 -5.5511151231257827e-017 -1 I I #
coedge $-1 $596 $304 $593 $615 reversed $305 $-1 #
edge $-1 $616 -2.165063509461099 $306 0.72168783648703239 $461 $617 forward 7 unknown #
face $-1 $618 $305 $44 $-1 $619 reversed single #
point $-1 0 -2.8867513459481335 -24 #
point $-1 2.5 -1.4433756729740639 -24 #
loop $-1 $-1 $315 $195 #
coedge $-1 $471 $471 $313 $472 forward $309 $-1 #
edge $620 $621 -3.1415926535897931 $621 3.1415926535897931 $313 $622 forward 7 unknown #
vertex $-1 $314 $623 #
ellipse-curve $-1 0 -3.90501104546243e-016 16 0 6.1232329394368604e-017 1 15 -1.8369095307335659e-015 1.1247824945353276e-031 1 I I #
vertex $-1 $316 $624 #
ellipse-curve $-1 3.0616164697184302e-017 -3.2926877515188111e-016 17 0 -6.1232329394368604e-017 -1 -8 -3.33013453529359e-048 -5.43852335560478e-032 1 I I #
point $-1 -8.0000000000009948 -3.9050110454623708e-016 16 #
loop $-1 $-1 $325 $203 #
coedge $-1 $479 $479 $323 $480 forward $319 $-1 #
edge $625 $626 -3.1415926535897931 $626 3.1415926535897931 $323 $627 forward 7 unknown #
vertex $-1 $324 $628 #
ellipse-curve $-1 0 -2.8397942803209867e-015 -24 0 6.1232329394368604e-017 1 15 -1.8369095307335659e-015 1.1247824945353276e-031 1 I I #
vertex $-1 $326 $629 #
ellipse-curve $-1 1.224646587887372e-015 -3.9050110454629368e-016 16 0 -6.1232329394368604e-017 -1 -5 -2.0813340845584999e-048 -3.39907709725299e-032 1 I I #
point $-1 -5 -2.839794280321006e-015 -24 #
primitive_order-cdc-attrib $-1 $-1 $330 $138 1 10 #
face_name-twe-attrib $-1 $630 $331 $214 6 #
surf-twe-attrib $-1 $-1 $-1 $332 54 #
coedge $-1 $631 $334 $337 $492 reversed $215 $-1 #
coedge $-1 $334 $631 $356 $512 forward $215 $-1 #
coedge $-1 $337 $336 $632 $633 reversed $139 $-1 #
edge $634 $635 0 $494 4 $489 $636 forward 7 unknown #
edge_name-twe-attrib $-1 $-1 $-1 $339 7 4608 #
vertex $-1 $492 $637 #
straight-curve $638 120 2.88675134594809 -32 0.86602540378443904 -0.5 3.0616164697184302e-017 I I #
coedge $-1 $345 $632 $340 $497 forward $353 $-1 #
edge $639 $499 -3.2475952641916481 $348 -0.36084391824351708 $496 $640 forward 7 unknown #
edge_name-twe-attrib $-1 $-1 $-1 $341 8 4352 #
vertex $-1 $497 $641 #
straight-curve $642 120 2.88675134594809 -36 1.3596308389011999e-032 6.1232329394368604e-017 1 I I #
point $-1 120 2.88675134594809 -32 #
cur-twe-attrib $-1 $-1 $-1 $344 63 #
attrib_edge_convexity-kcp-attrib $-1 $643 $-1 $346 1 #
straight-curve $644 117.5 -0.72168783648707102 -36 0 -1 6.1232329394368604e-017 I I #
point $-1 117.5 1.4433756729740199 -36 #
cur-twe-attrib $-1 $-1 $-1 $349 65 #
coedge $-1 $632 $352 $631 $645 forward $353 $-1 #
loop_type-twe-attrib $-1 $-1 $-1 $353 1 #
loop $646 $-1 $647 $368 #
convexity-sys-attrib $-1 $648 $354 $230 #
cur-twe-attrib $-1 $-1 $-1 $355 70 #
edge $649 $514 0 $365 4 $356 $650 forward 7 unknown #
attrib_edge_convexity-kcp-attrib $-1 $651 $-1 $357 1 #
vertex $-1 $645 $652 #
straight-curve $653 120.9375 -2.3454854685828899 -36 0.86602540378443804 0.500000000000001 -8.3644917485604204e-017 I I #
edge_name-twe-attrib $-1 $-1 $-1 $363 9 4608 #
straight-curve $654 122.5 1.4433756729740299 -32 6.1534805964273997e-016 -1 6.1232329394368604e-017 I I #
point $-1 122.5 -1.4433756729741001 -32 #
cur-twe-attrib $-1 $-1 $-1 $366 81 #
face_name-twe-attrib $-1 $655 $367 $243 7 #
model_id-kcp-attrib $-1 $656 $-1 $368 1 990710895 110 -949092351 19 #
face $657 $658 $659 $13 $-1 $660 forward single #
plane-surface $661 117.5 -3.9255109488026103e-014 -36 -6.1232329394368604e-017 -6.1232329394368604e-017 -1 0 1 -6.1232329394368604e-017 forward_v I I I I #
surf-twe-attrib $-1 $-1 $-1 $369 83 #
plane-surface $-1 15 0 0 -1 0 0 0 0 1 forward_v I I I I #
coedge $-1 $375 $373 $377 $530 reversed $248 $-1 #
edge $-1 $388 -24 $532 24 $387 $662 forward 7 unknown #
vertex $-1 $530 $663 #
straight-curve $-1 -15 -15 0 0 0 -1 I I #
edge $-1 $528 -15 $532 15 $526 $664 forward 7 unknown #
straight-curve $-1 0 -15 -24 -1 0 0 I I #
vertex $-1 $380 $665 #
straight-curve $-1 0 15 -24 1 0 0 I I #
point $-1 15 15 -24 #
point $-1 15 -15 -24 #
straight-curve $-1 -15 0 24 0 -1 0 I I #
point $-1 -15 15 24 #
point $-1 -15 -15 24 #
straight-curve $-1 15 -15 0 0 0 -1 I I #
straight-curve $-1 15 15 0 0 0 -1 I I #
vertex $-1 $398 $666 #
ellipse-curve $-1 0 0 0.35355339059350488 0 0 1 15 0 0 1 I I #
point $-1 15 0 -0.35355339059350488 #
vertex $-1 $403 $667 #
ellipse-curve $-1 0 0 0.35355339059300039 0 0 1 15 0 0 1 I I #
point $-1 15 0 -0.35355339059300039 #
face $-1 $668 $669 $42 $-1 $670 reversed single #
plane-surface $-1 0 15 0 0 -1 0 0 0 -1 forward_v I I I I #
coedge $-1 $410 $559 $411 $554 forward $277 $-1 #
coedge $-1 $671 $672 $410 $551 forward $673 $-1 #
edge $-1 $561 -3.1415926535897931 $558 -1.5707963267948966 $550 $428 forward 7 unknown #
coedge $-1 $412 $411 $674 $675 reversed $181 $-1 #
coedge $-1 $676 $677 $678 $554 forward $679 $-1 #
edge $-1 $680 -48 $558 0 $553 $681 forward 7 unknown #
coedge $-1 $556 $413 $682 $575 forward $557 $-1 #
coedge $-1 $413 $555 $676 $683 forward $557 $-1 #
loop $-1 $-1 $413 $684 #
vertex $-1 $685 $686 #
coedge $-1 $549 $415 $687 $688 reversed $277 $-1 #
coedge $-1 $689 $690 $691 $416 forward $669 $-1 #
vertex $-1 $692 $693 #
straight-curve $-1 -15 -2.8397942803209871e-015 -24 0 -6.1232329394368604e-017 -1 I I #
coedge $-1 $694 $691 $418 $564 reversed $695 $-1 #
edge $-1 $588 -15 $420 -9.9357530608706129e-017 $563 $696 forward 7 unknown #
face $-1 $580 $419 $42 $-1 $697 forward single #
edge $-1 $420 -9.9357530608706129e-017 $698 15 $690 $696 forward 7 unknown #
point $-1 -15 9.9357530608706129e-017 24 #
coedge $-1 $699 $422 $425 $573 reversed $408 $-1 #
coedge $-1 $422 $699 $429 $577 reversed $408 $-1 #
coedge $-1 $700 $682 $412 $423 reversed $701 $-1 #
straight-curve $-1 15 -2.8397942803209871e-015 -24 0 -6.1232329394368604e-017 -1 I I #
coedge $-1 $437 $702 $424 $441 reversed $587 $-1 #
edge $-1 $590 -15 $427 2.8397942803209871e-015 $568 $703 forward 7 unknown #
face $-1 $704 $426 $42 $-1 $705 reversed single #
edge $-1 $427 2.8397942803209871e-015 $706 15 $682 $703 forward 7 unknown #
point $-1 15 -2.8397942803209871e-015 -24 #
edge $-1 $432 9.9357530608706129e-017 $707 15 $569 $708 forward 7 unknown #
coedge $-1 $702 $437 $430 $579 reversed $587 $-1 #
edge $-1 $707 -15 $289 0 $578 $589 forward 7 unknown #
face $-1 $709 $431 $42 $-1 $697 forward single #
point $-1 15 9.9357530608706129e-017 24 #
coedge $-1 $583 $433 $710 $692 forward $584 $-1 #
coedge $-1 $433 $582 $435 $586 forward $584 $-1 #
loop $-1 $-1 $433 $704 #
coedge $-1 $436 $435 $694 $711 reversed $438 $-1 #
edge $-1 $712 -15 $290 0 $435 $591 forward 7 unknown #
loop $-1 $-1 $437 $713 #
vertex $-1 $439 $714 #
straight-curve $-1 0 15 24 -1 0 0 I I #
vertex $-1 $573 $715 #
straight-curve $-1 0 15 -24 1 0 0 I I #
plane-surface $-1 -2.5 -1.4433756729740637 -20 -0.49999999999999989 -0.86602540378443882 4.8074067159589108e-017 0 -5.5511151231257827e-017 -1 forward_v I I I I #
coedge $-1 $716 $717 $465 $615 forward $444 $-1 #
coedge $-1 $718 $446 $717 $719 reversed $293 $-1 #
coedge $-1 $446 $718 $447 $599 forward $293 $-1 #
coedge $-1 $449 $465 $446 $597 reversed $305 $-1 #
edge $-1 $600 -2.1650635094610986 $720 0.72168783648703305 $446 $721 forward 7 unknown #
coedge $-1 $448 $447 $722 $723 reversed $188 $-1 #
edge $-1 $724 0 $600 4 $595 $725 forward 7 unknown #
vertex $-1 $599 $726 #
straight-curve $-1 0.62500000000000022 2.5259074277046105 -24 -0.86602540378443882 0.49999999999999989 -3.0616164697184296e-017 I I #
coedge $-1 $722 $455 $451 $603 forward $608 $-1 #
edge $727 $458 -2.1650635094610959 $604 0.72168783648703405 $451 $728 forward 7 unknown #
vertex $-1 $603 $729 #
straight-curve $-1 2.5 1.4433756729740663 -20 0 -5.5511151231257827e-017 -1 I I #
point $-1 2.5 1.4433756729740661 -24 #
coedge $-1 $455 $730 $460 $613 forward $608 $-1 #
loop $-1 $-1 $607 $618 #
convexity-sys-attrib $-1 $-1 $-1 $456 #
straight-curve $-1 1.8750000000000004 -1.8042195912175798 -20 0.86602540378443804 0.500000000000001 -3.0616164697184364e-017 I I #
point $-1 2.5 -1.4433756729740637 -20 #
coedge $-1 $461 $460 $716 $731 forward $462 $-1 #
edge $732 $733 -2.1650635094610995 $463 0.72168783648703239 $460 $734 forward 7 unknown #
point $-1 0 -2.8867513459481335 -20 #
edge $-1 $720 -2.1650635094610902 $616 0.72168783648703017 $593 $735 forward 7 unknown #
vertex $-1 $731 $736 #
straight-curve $-1 -0.62500000000000022 -2.5259074277046176 -24 0.86602540378443882 -0.49999999999999989 3.0616164697184296e-017 I I #
face $-1 $-1 $608 $44 $-1 $737 forward single #
plane-surface $-1 9.4368957093138306e-016 -3.3861802251067274e-015 -24 0 0 1 1 0 0 forward_v I I I I #
convexity-sys-attrib $-1 $-1 $-1 $472 #
vertex $-1 $472 $738 #
ellipse-curve $-1 0 -3.2926877515187441e-016 17 0 6.1232329394368604e-017 1 15 -1.8369095307335659e-015 1.1247824945353276e-031 1 I I #
point $-1 -15 -3.90501104546243e-016 16 #
point $-1 -8.0000000000009948 -3.2926877515186849e-016 17 #
convexity-sys-attrib $-1 $-1 $-1 $480 #
vertex $-1 $480 $739 #
ellipse-curve $-1 0 -3.90501104546243e-016 16 0 6.1232329394368604e-017 1 15 -1.8369095307335659e-015 1.1247824945353276e-031 1 I I #
point $-1 -15 -2.8397942803209867e-015 -24 #
point $-1 -5 -3.9050110454626233e-016 16 #
primitive_order-cdc-attrib $-1 $-1 $487 $214 1 10 #
coedge $-1 $490 $489 $507 $645 reversed $215 $-1 #
coedge $-1 $496 $507 $491 $633 forward $353 $-1 #
edge $740 $635 -3.2475952641916432 $499 -0.36084391824351719 $632 $741 forward 7 unknown #
edge_name-twe-attrib $-1 $-1 $-1 $492 10 4352 #
vertex $-1 $633 $742 #
straight-curve $743 122.5 1.4433756729740299 -36 1.3596308389011999e-032 6.1232329394368604e-017 1 I I #
point $-1 122.5 1.4433756729740299 -32 #
cur-twe-attrib $-1 $-1 $-1 $495 96 #
attrib_edge_convexity-kcp-attrib $-1 $744 $-1 $497 1 #
straight-curve $745 117.1875 1.26295371385226 -36 -0.86602540378443904 -0.5 8.3644917485604106e-017 I I #
point $-1 120 2.88675134594809 -36 #
cur-twe-attrib $-1 $-1 $-1 $500 98 #
convexity-sys-attrib $-1 $746 $503 $346 #
cur-twe-attrib $-1 $-1 $-1 $504 103 #
edge $747 $514 -2.165063509461095 $635 0.72168783648703494 $507 $748 forward 7 unknown #
loop_type-twe-attrib $-1 $-1 $-1 $509 0 #
coedge $-1 $647 $647 $749 $750 forward $509 $-1 #
edge_name-twe-attrib $-1 $-1 $510 $230 13 8704 #
edge_name-twe-attrib $-1 $-1 $-1 $512 12 4352 #
straight-curve $751 122.5 -1.4433756729741001 -36 1.3596308389011999e-032 6.1232329394368604e-017 1 I I #
convexity-sys-attrib $-1 $752 $513 $357 #
point $-1 122.5 -1.4433756729741001 -36 #
cur-twe-attrib $-1 $-1 $-1 $515 114 #
cur-twe-attrib $-1 $-1 $-1 $517 120 #
primitive_order-cdc-attrib $-1 $-1 $520 $243 1 10 #
model_id-kcp-attrib $-1 $753 $521 $368 1 990710895 110 -949092351 9 #
model_id-kcp-attrib $-1 $754 $-1 $522 1 990710895 110 -949092351 10 #
face $755 $756 $757 $13 $-1 $758 forward single #
loop $759 $760 $749 $522 #
cone-surface $761 120 -3.80304629001388e-014 -16 -6.1232329394368604e-017 -6.1232329394368604e-017 -1 -5 -2.0813340845584999e-048 -3.39907709725299e-032 1 I I 0 1 5 forward I I I I #
surf-twe-attrib $-1 $-1 $-1 $523 125 #
straight-curve $-1 -15 15 0 0 0 -1 I I #
point $-1 -15 -15 -24 #
straight-curve $-1 -15 0 -24 0 1 0 I I #
point $-1 -15 15 -24 #
point $-1 15 0 0.35355339059350488 #
point $-1 15 0 0.35355339059300039 #
face $-1 $565 $762 $42 $-1 $697 forward single #
loop $-1 $-1 $560 $547 #
plane-surface $-1 -15 0 0 1 0 0 0 0 -1 forward_v I I I I #
coedge $-1 $672 $550 $763 $685 forward $673 $-1 #
coedge $-1 $550 $671 $689 $764 forward $673 $-1 #
loop $-1 $-1 $550 $765 #
coedge $-1 $766 $767 $552 $675 forward $768 $-1 #
edge $-1 $432 -1.2246063538223773e-016 $680 1.5707963267948966 $674 $421 forward 7 unknown #
coedge $-1 $769 $553 $556 $683 reversed $679 $-1 #
coedge $-1 $553 $769 $766 $770 reversed $679 $-1 #
coedge $-1 $771 $763 $549 $554 reversed $772 $-1 #
loop $-1 $-1 $553 $773 #
vertex $-1 $770 $774 #
straight-curve $-1 0 -15 -24 0 -6.1232329394368604e-017 -1 I I #
coedge $-1 $570 $775 $555 $575 reversed $701 $-1 #
edge $-1 $706 -15 $558 0 $676 $776 forward 7 unknown #
face $-1 $574 $557 $42 $-1 $705 reversed single #
edge $-1 $558 0 $777 15 $763 $776 forward 7 unknown #
point $-1 0 -15 -24 #
coedge $-1 $778 $779 $559 $688 forward $762 $-1 #
edge $-1 $680 1.5707963267948966 $420 3.1415926535897931 $687 $421 forward 7 unknown #
coedge $-1 $780 $560 $672 $764 reversed $669 $-1 #
coedge $-1 $560 $780 $778 $566 reversed $669 $-1 #
coedge $-1 $563 $710 $279 $416 reversed $695 $-1 #
edge $-1 $561 -2.8397942803209871e-015 $712 15 $710 $781 forward 7 unknown #
point $-1 -15 -2.8397942803209871e-015 -24 #
coedge $-1 $710 $563 $585 $711 forward $695 $-1 #
loop $-1 $-1 $691 $782 #
straight-curve $-1 -15 0 24 0 -1 0 I I #
plane-surface $-1 0 0 24 0 0 1 1 0 0 forward_v I I I I #
vertex $-1 $566 $783 #
coedge $-1 $569 $568 $702 $784 reversed $408 $-1 #
coedge $-1 $775 $570 $767 $785 reversed $701 $-1 #
loop $-1 $-1 $570 $786 #
coedge $-1 $572 $578 $699 $784 forward $587 $-1 #
straight-curve $-1 15 0 -24 0 -1 0 I I #
face $-1 $787 $584 $42 $-1 $705 reversed single #
plane-surface $-1 0 0 -24 0 0 1 1 0 0 forward_v I I I I #
vertex $-1 $788 $789 #
vertex $-1 $577 $790 #
straight-curve $-1 15 0 24 0 1 0 I I #
face $-1 $773 $768 $42 $-1 $697 forward single #
coedge $-1 $691 $694 $582 $692 reversed $695 $-1 #
edge $-1 $588 -24 $712 24 $585 $791 forward 7 unknown #
vertex $-1 $586 $792 #
face $-1 $786 $587 $42 $-1 $548 reversed single #
point $-1 -15 15 24 #
point $-1 15 15 -24 #
coedge $-1 $793 $593 $612 $731 reversed $444 $-1 #
coedge $-1 $593 $793 $594 $719 forward $444 $-1 #
coedge $-1 $595 $594 $794 $795 reversed $293 $-1 #
edge $-1 $796 1.2325951644078309e-032 $720 4 $717 $797 forward 7 unknown #
vertex $-1 $719 $798 #
straight-curve $-1 -1.8749999999999996 1.8042195912175734 -24 -0.86602540378443849 -0.50000000000000033 3.0616164697184321e-017 I I #
coedge $-1 $794 $602 $598 $723 forward $608 $-1 #
edge $799 $604 -2.1650635094610946 $724 0.72168783648703239 $598 $800 forward 7 unknown #
vertex $-1 $723 $801 #
straight-curve $-1 0 2.8867513459481264 -20 0 -5.5511151231257827e-017 -1 I I #
point $-1 0 2.8867513459481264 -24 #
convexity-sys-attrib $-1 $-1 $-1 $603 #
straight-curve $-1 2.5000000000000004 0.72168783648703227 -20 -6.1534805964273997e-016 1 -6.1232329394368604e-017 I I #
point $-1 2.5 1.4433756729740663 -20 #
coedge $-1 $607 $794 $793 $802 forward $608 $-1 #
edge $-1 $733 0 $616 4 $612 $803 forward 7 unknown #
convexity-sys-attrib $-1 $-1 $-1 $613 #
vertex $-1 $613 $804 #
straight-curve $-1 -0.62500000000000022 -2.5259074277046176 -20 0.86602540378443882 -0.49999999999999989 3.0616164697184296e-017 I I #
straight-curve $-1 -2.5 -0.72168783648703372 -24 -1.9750780911180381e-063 -1 6.1232329394368604e-017 I I #
point $-1 -2.5 -1.4433756729740639 -24 #
plane-surface $-1 9.4368957093138306e-016 -3.1641356201816961e-015 -20 0 0 1 1 0 0 forward_v I I I I #
point $-1 -15 -3.2926877515187441e-016 17 #
point $-1 -15 -3.90501104546243e-016 16 #
attrib_edge_convexity-kcp-attrib $-1 $805 $-1 $633 1 #
straight-curve $806 119.6875 3.0671733050698502 -36 -0.86602540378443904 0.5 2.2412588091235499e-017 I I #
point $-1 122.5 1.4433756729740299 -36 #
cur-twe-attrib $-1 $-1 $-1 $636 132 #
convexity-sys-attrib $-1 $807 $639 $497 #
cur-twe-attrib $-1 $-1 $-1 $640 137 #
edge_name-twe-attrib $-1 $-1 $643 $346 18 8704 #
attrib_edge_convexity-kcp-attrib $-1 $808 $-1 $645 1 #
straight-curve $809 122.5 0.72168783648699497 -36 -6.1534805964274095e-016 1 -6.1232329394368604e-017 I I #
coedge $-1 $749 $749 $647 $750 reversed $659 $-1 #
edge $810 $811 -4.3790577010150413e-049 $811 6.2831853071795862 $647 $812 forward 7 unknown #
cur-twe-attrib $-1 $-1 $-1 $650 151 #
edge_name-twe-attrib $-1 $-1 $651 $357 14 8704 #
face_name-twe-attrib $-1 $813 $656 $368 8 #
face_name-twe-attrib $-1 $814 $657 $522 9 #
model_id-kcp-attrib $-1 $815 $-1 $658 1 990710895 110 -949092351 11 #
face $816 $817 $818 $13 $-1 $819 forward single #
loop $820 $821 $822 $658 #
plane-surface $823 113.5 -3.6805816312251397e-014 4 -6.1232329394368604e-017 -6.1232329394368604e-017 -1 0 1 -6.1232329394368604e-017 forward_v I I I I #
loop_type-twe-attrib $-1 $-1 $-1 $659 0 #
loop $824 $-1 $825 $522 #
surf-twe-attrib $-1 $-1 $-1 $660 161 #
loop $-1 $-1 $687 $668 #
coedge $-1 $678 $826 $671 $685 reversed $772 $-1 #
edge $-1 $777 -15 $561 -2.8397942803209871e-015 $689 $781 forward 7 unknown #
face $-1 $684 $673 $42 $-1 $705 reversed single #
coedge $-1 $767 $674 $677 $770 forward $768 $-1 #
coedge $-1 $674 $766 $700 $785 forward $768 $-1 #
loop $-1 $-1 $674 $709 #
coedge $-1 $677 $676 $775 $788 reversed $679 $-1 #
edge $-1 $680 0 $827 15 $677 $828 forward 7 unknown #
coedge $-1 $826 $678 $779 $829 reversed $772 $-1 #
loop $-1 $-1 $678 $787 #
face $-1 $765 $679 $42 $-1 $830 reversed single #
point $-1 0 -15 24 #
coedge $-1 $682 $700 $769 $788 forward $701 $-1 #
straight-curve $-1 0 -15 -24 -1 0 0 I I #
vertex $-1 $764 $831 #
coedge $-1 $779 $687 $690 $566 forward $762 $-1 #
coedge $-1 $687 $778 $771 $829 forward $762 $-1 #
coedge $-1 $690 $689 $826 $832 reversed $669 $-1 #
straight-curve $-1 -15 0 -24 0 1 0 I I #
face $-1 $713 $695 $42 $-1 $670 reversed single #
point $-1 -15 -15 24 #
edge $-1 $707 -24 $590 24 $699 $833 forward 7 unknown #
edge $-1 $827 -15 $432 9.9357530608706129e-017 $700 $708 forward 7 unknown #
face $-1 $-1 $701 $42 $-1 $409 reversed single #
face $-1 $782 $772 $42 $-1 $830 reversed single #
edge $-1 $827 -24 $706 24 $775 $834 forward 7 unknown #
point $-1 15 -15 -24 #
point $-1 15 15 24 #
straight-curve $-1 -15 15 0 0 0 -1 I I #
point $-1 -15 15 -24 #
coedge $-1 $717 $716 $730 $802 reversed $444 $-1 #
coedge $-1 $730 $722 $718 $795 forward $608 $-1 #
edge $835 $724 -2.1650635094610986 $796 0.72168783648703316 $718 $836 forward 7 unknown #
vertex $-1 $795 $837 #
straight-curve $-1 -2.5 1.4433756729740566 -20 0 -5.5511151231257827e-017 -1 I I #
point $-1 -2.5 1.4433756729740563 -24 #
convexity-sys-attrib $-1 $-1 $-1 $723 #
straight-curve $-1 0.62500000000000022 2.5259074277046105 -20 -0.86602540378443882 0.49999999999999989 -3.0616164697184296e-017 I I #
point $-1 0 2.8867513459481264 -20 #
edge $838 $796 -2.1650635094610897 $733 0.72168783648703017 $793 $839 forward 7 unknown #
straight-curve $-1 -2.5 -1.4433756729740637 -20 0 -5.5511151231257827e-017 -1 I I #
point $-1 -2.5 -1.4433756729740637 -20 #
convexity-sys-attrib $-1 $840 $740 $633 #
cur-twe-attrib $-1 $-1 $-1 $741 166 #
edge_name-twe-attrib $-1 $-1 $744 $497 17 8704 #
convexity-sys-attrib $-1 $841 $747 $645 #
cur-twe-attrib $-1 $-1 $-1 $748 177 #
attrib_edge_convexity-kcp-attrib $-1 $842 $-1 $750 1 #
vertex $-1 $750 $843 #
ellipse-curve $844 120 -3.9255109488026103e-014 -36 -6.1232329394368604e-017 -6.1232329394368604e-017 -1 -5 -2.0813340845584999e-048 -3.39907709725299e-032 1 I I #
primitive_order-cdc-attrib $-1 $-1 $753 $368 0 8 #
primitive_order-cdc-attrib $-1 $-1 $754 $522 0 8 #
face_name-twe-attrib $-1 $845 $755 $658 10 #
model_id-kcp-attrib $-1 $846 $-1 $756 1 990710895 110 -949092351 12 #
face $847 $848 $849 $13 $-1 $850 forward single #
loop $851 $852 $853 $756 #
cone-surface $854 120 -3.67752001475542e-014 4.5 -6.1232329394368604e-017 -6.1232329394368604e-017 -1 -8 -3.33013453529359e-048 -5.43852335560478e-032 1 I I 0 1 8 forward I I I I #
loop_type-twe-attrib $-1 $-1 $-1 $757 1 #
loop $855 $-1 $856 $658 #
coedge $-1 $822 $822 $825 $857 reversed $757 $-1 #
surf-twe-attrib $-1 $-1 $-1 $758 187 #
loop_type-twe-attrib $-1 $-1 $-1 $760 1 #
coedge $-1 $825 $825 $822 $857 forward $760 $-1 #
coedge $-1 $763 $771 $780 $832 forward $772 $-1 #
vertex $-1 $785 $858 #
straight-curve $-1 0 -15 24 1 0 0 I I #
edge $-1 $698 -15 $680 0 $771 $828 forward 7 unknown #
plane-surface $-1 0 -15 0 0 1 0 0 0 1 forward_v I I I I #
point $-1 -15 -15 -24 #
edge $-1 $698 -24 $777 24 $780 $859 forward 7 unknown #
straight-curve $-1 15 15 0 0 0 -1 I I #
straight-curve $-1 15 -15 0 0 0 -1 I I #
convexity-sys-attrib $-1 $-1 $-1 $795 #
straight-curve $-1 -1.8749999999999996 1.8042195912175736 -20 -0.86602540378443849 -0.50000000000000033 3.0616164697184321e-017 I I #
point $-1 -2.5 1.4433756729740563 -20 #
convexity-sys-attrib $-1 $-1 $-1 $802 #
straight-curve $-1 -2.5 -0.7216878364870335 -20 -1.9750780911180381e-063 -1 6.1232329394368604e-017 I I #
edge_name-twe-attrib $-1 $-1 $805 $633 16 8704 #
edge_name-twe-attrib $-1 $-1 $808 $645 15 8704 #
convexity-sys-attrib $-1 $860 $810 $750 #
point $-1 115 -3.9255109488026103e-014 -36 #
cur-twe-attrib $-1 $-1 $-1 $812 199 #
primitive_order-cdc-attrib $-1 $-1 $815 $658 0 8 #
face_name-twe-attrib $-1 $861 $816 $756 11 #
model_id-kcp-attrib $-1 $862 $-1 $817 1 990710895 110 -949092351 13 #
face $863 $864 $865 $13 $-1 $866 forward single #
loop $867 $868 $869 $817 #
plane-surface $870 108.85355339059301 -3.6744583982857003e-014 5 -6.1232329394368604e-017 -6.1232329394368604e-017 -1 0 1 -6.1232329394368604e-017 forward_v I I I I #
loop_type-twe-attrib $-1 $-1 $-1 $818 0 #
loop $871 $-1 $872 $756 #
coedge $-1 $853 $853 $856 $873 reversed $818 $-1 #
surf-twe-attrib $-1 $-1 $-1 $819 203 #
loop_type-twe-attrib $-1 $-1 $-1 $821 0 #
coedge $-1 $856 $856 $853 $873 forward $821 $-1 #
edge $874 $875 -4.3790577010150413e-049 $875 6.2831853071795862 $825 $876 forward 7 unknown #
point $-1 15 -15 24 #
straight-curve $-1 -15 -15 0 0 0 -1 I I #
edge_name-twe-attrib $-1 $-1 $842 $750 19 8704 #
primitive_order-cdc-attrib $-1 $-1 $846 $756 0 8 #
face_name-twe-attrib $-1 $877 $847 $817 12 #
model_id-kcp-attrib $-1 $878 $-1 $848 1 990710895 110 -949092351 14 #
face $879 $880 $881 $13 $-1 $882 forward single #
loop $883 $884 $885 $848 #
cone-surface $886 120 -3.6722935085185702e-014 5.3535533905929897 -6.1232329394368604e-017 -6.1232329394368604e-017 -1 -14.6464466094067 -6.0968297091648695e-048 -9.9568802452346106e-032 1 I I -0.70710678118654402 0.70710678118655101 14.6464466094067 forward I I I I #
loop_type-twe-attrib $-1 $-1 $-1 $849 1 #
loop $887 $-1 $888 $817 #
coedge $-1 $869 $869 $872 $889 reversed $849 $-1 #
surf-twe-attrib $-1 $-1 $-1 $850 216 #
loop_type-twe-attrib $-1 $-1 $-1 $852 1 #
coedge $-1 $872 $872 $869 $889 forward $852 $-1 #
edge $890 $891 3.0385816786431356e-064 $891 6.2831853071795862 $856 $892 forward 7 unknown #
edge_name-twe-attrib $-1 $-1 $-1 $857 20 4608 #
vertex $-1 $857 $893 #
ellipse-curve $894 120 -3.6805816312251397e-014 4 -6.1232329394368604e-017 -6.1232329394368604e-017 -1 -5 -2.0813340845584999e-048 -3.39907709725299e-032 1 I I #
primitive_order-cdc-attrib $-1 $-1 $862 $817 0 8 #
face_name-twe-attrib $-1 $895 $863 $848 13 #
model_id-kcp-attrib $-1 $896 $-1 $864 1 990710895 110 -949092351 18 #
face $897 $898 $899 $13 $-1 $900 forward single #
loop $901 $-1 $902 $864 #
plane-surface $903 112.85355339059301 -3.6315957677096398e-014 12 6.1232329394368604e-017 6.1232329394368604e-017 1 0 -1 6.1232329394368604e-017 forward_v I I I I #
loop_type-twe-attrib $-1 $-1 $-1 $865 0 #
loop $904 $-1 $905 $848 #
coedge $-1 $885 $885 $888 $906 reversed $865 $-1 #
surf-twe-attrib $-1 $-1 $-1 $866 229 #
loop_type-twe-attrib $-1 $-1 $-1 $868 0 #
coedge $-1 $888 $888 $885 $906 forward $868 $-1 #
edge $907 $908 3.0385816786431356e-064 $908 6.2831853071795862 $872 $909 forward 7 unknown #
edge_name-twe-attrib $-1 $-1 $-1 $873 21 8704 #
vertex $-1 $873 $910 #
ellipse-curve $911 120 -3.6805816312251397e-014 4 -6.1232329394368604e-017 -6.1232329394368604e-017 -1 -8 -3.33013453529359e-048 -5.43852335560478e-032 1 I I #
point $-1 115 -3.6805816312251397e-014 4 #
cur-twe-attrib $-1 $-1 $-1 $876 238 #
primitive_order-cdc-attrib $-1 $-1 $878 $848 0 8 #
model_id-kcp-attrib $-1 $912 $879 $864 1 990710895 110 -949092351 15 #
model_id-kcp-attrib $-1 $913 $-1 $880 1 990710895 110 -949092351 16 #
face $914 $-1 $915 $13 $-1 $916 forward single #
loop $917 $918 $919 $880 #
cone-surface $920 120 -3.65302708299767e-014 8.5 -6.1232329394368604e-017 -6.1232329394368604e-017 -1 -15 -6.24400225367549e-048 -1.0197231291759e-031 1 I I 0 1 15 forward I I I I #
loop_type-twe-attrib $-1 $-1 $-1 $881 0 #
coedge $-1 $902 $902 $921 $922 reversed $881 $-1 #
surf-twe-attrib $-1 $-1 $-1 $882 241 #
loop_type-twe-attrib $-1 $-1 $-1 $884 1 #
coedge $-1 $905 $905 $919 $923 forward $884 $-1 #
edge $924 $925 4.2871666447952011e-049 $925 6.2831853071795862 $888 $926 forward 7 unknown #
edge_name-twe-attrib $-1 $-1 $-1 $889 22 4608 #
vertex $-1 $889 $927 #
ellipse-curve $928 120 -3.6744583982857003e-014 5 -6.1232329394368604e-017 -6.1232329394368604e-017 -1 -8 -3.33013453529359e-048 -5.43852335560478e-032 1 I I #
point $-1 111.99999999999901 -3.6805816312251397e-014 4 #
cur-twe-attrib $-1 $-1 $-1 $892 250 #
face_name-twe-attrib $-1 $929 $896 $864 14 #
face_name-twe-attrib $-1 $930 $897 $880 15 #
model_id-kcp-attrib $-1 $931 $-1 $898 1 990710895 110 -949092351 17 #
loop $932 $933 $934 $898 #
cone-surface $935 120 -3.6337606574767698e-014 11.646446609407 -6.1232329394368604e-017 -6.1232329394368604e-017 -1 -14.6464466094067 -6.0968297091648695e-048 -9.9568802452346106e-032 1 I I 0.70710678118654402 0.70710678118655101 14.6464466094067 forward I I I I #
loop_type-twe-attrib $-1 $-1 $-1 $899 0 #
loop $936 $-1 $937 $880 #
coedge $-1 $919 $919 $905 $923 reversed $899 $-1 #
surf-twe-attrib $-1 $-1 $-1 $900 256 #
coedge $-1 $921 $921 $902 $922 forward $933 $-1 #
edge $938 $939 4.2871666447952011e-049 $939 6.2831853071795862 $921 $940 forward 7 unknown #
edge $941 $942 -6.4823075811053559e-064 $942 6.2831853071795862 $905 $943 forward 7 unknown #
attrib_edge_convexity-kcp-attrib $-1 $944 $-1 $906 1 #
vertex $-1 $906 $945 #
ellipse-curve $946 120 -3.6744583982857003e-014 5 -6.1232329394368604e-017 -6.1232329394368604e-017 -1 -14.2928932188135 -5.9496571646543001e-048 -9.7165291987103104e-032 1 I I #
point $-1 111.99999999999901 -3.6744583982857003e-014 5 #
cur-twe-attrib $-1 $-1 $-1 $909 265 #
primitive_order-cdc-attrib $-1 $-1 $912 $864 0 8 #
primitive_order-cdc-attrib $-1 $-1 $913 $880 0 8 #
face_name-twe-attrib $-1 $947 $914 $898 16 #
loop_type-twe-attrib $-1 $-1 $-1 $915 0 #
loop $948 $-1 $921 $898 #
coedge $-1 $934 $934 $937 $949 reversed $915 $-1 #
surf-twe-attrib $-1 $-1 $-1 $916 273 #
loop_type-twe-attrib $-1 $-1 $-1 $918 1 #
coedge $-1 $937 $937 $934 $949 forward $918 $-1 #
attrib_edge_convexity-kcp-attrib $-1 $950 $-1 $922 1 #
vertex $-1 $922 $951 #
ellipse-curve $952 120 -3.6315957677096398e-014 12 -6.1232329394368604e-017 -6.1232329394368604e-017 -1 -14.2928932188135 -5.9496571646543001e-048 -9.7165291987103104e-032 1 I I #
attrib_edge_convexity-kcp-attrib $-1 $953 $-1 $923 1 #
vertex $-1 $923 $954 #
ellipse-curve $955 120 -3.6701286187514401e-014 5.7071067811870098 -6.1232329394368604e-017 -6.1232329394368604e-017 -1 -15 -6.24400225367549e-048 -1.0197231291759e-031 1 I I #
convexity-sys-attrib $-1 $956 $924 $906 #
point $-1 105.707106781186 -3.6744583982857003e-014 5 #
cur-twe-attrib $-1 $-1 $-1 $926 281 #
primitive_order-cdc-attrib $-1 $-1 $931 $898 0 8 #
loop_type-twe-attrib $-1 $-1 $-1 $933 1 #
edge $957 $958 -6.4823075811053559e-064 $958 6.2831853071795862 $937 $959 forward 7 unknown #
convexity-sys-attrib $-1 $960 $938 $922 #
point $-1 105.707106781186 -3.6315957677096398e-014 12 #
cur-twe-attrib $-1 $-1 $-1 $940 296 #
convexity-sys-attrib $-1 $961 $941 $923 #
point $-1 104.99999999999901 -3.6701286187514401e-014 5.7071067811870098 #
cur-twe-attrib $-1 $-1 $-1 $943 297 #
edge_name-twe-attrib $-1 $-1 $944 $906 23 8448 #
attrib_edge_convexity-kcp-attrib $-1 $962 $-1 $949 1 #
vertex $-1 $949 $963 #
ellipse-curve $964 120 -3.6359255472438999e-014 11.292893218813999 -6.1232329394368604e-017 -6.1232329394368604e-017 -1 -15 -6.24400225367549e-048 -1.0197231291759e-031 1 I I #
edge_name-twe-attrib $-1 $-1 $950 $922 26 8448 #
edge_name-twe-attrib $-1 $-1 $953 $923 24 8448 #
convexity-sys-attrib $-1 $965 $957 $949 #
point $-1 104.99999999999901 -3.6359255472438999e-014 11.292893218813999 #
cur-twe-attrib $-1 $-1 $-1 $959 319 #
edge_name-twe-attrib $-1 $-1 $962 $949 25 8448 #
End-of-ACIS-data 