600 0 1 0           
104 GICL ACIS Healer - Source: /gicl/data5/repository/ICEM-CDC/demos/STUETZSCHRAUBE/STUETZSCHRAUBE.sat - 6 0 18 ACIS 6.0.3 Solaris 24 Sat Apr 13 23:08:13 2002 
1 9.999999999999999547e-07 1.000000000000000036e-10 
body $1 $2 $-1 $3 #
brep_non_volatile_id-cdc-attrib $-1 $-1 $-1 $0 1 #
lump $-1 $-1 $4 $0 #
transform $-1 1 0 0 0 1 0 0 0 1 0 0 0 1 no_rotate no_reflect no_shear #
shell $-1 $-1 $-1 $5 $-1 $2 #
face $6 $7 $8 $4 $-1 $9 reversed single #
face_name-twe-attrib $-1 $10 $-1 $5 1 #
face $11 $12 $13 $4 $-1 $14 reversed single #
loop $15 $-1 $16 $5 #
plane-surface $17 120 -2.886751345948169956 -36 -0.499999999999999889 -0.8660254037844388186 5.302875278841978528e-17 0.8660254037844390407 -0.5 3.06161646971843021e-17 forward_v I I I I #
primitive_order-cdc-attrib $-1 $-1 $6 $5 1 10 #
face_name-twe-attrib $-1 $18 $-1 $7 2 #
face $19 $20 $21 $4 $-1 $22 reversed single #
loop $23 $-1 $24 $7 #
plane-surface $25 117.5 -1.443375672974100077 -36 -1 -8.32533633823397954e-49 -1.359630838901199936e-32 0 -1 6.12323293943686042e-17 forward_v I I I I #
loop_type-twe-attrib $-1 $-1 $-1 $8 0 #
coedge $-1 $26 $27 $28 $29 reversed $8 $-1 #
surf-twe-attrib $-1 $-1 $-1 $9 5 #
primitive_order-cdc-attrib $-1 $-1 $11 $7 1 10 #
face_name-twe-attrib $-1 $30 $-1 $12 3 #
face $31 $32 $33 $4 $-1 $34 reversed single #
loop $35 $-1 $36 $12 #
plane-surface $37 117.5 1.443375672974019919 -36 -0.5000000000000003331 0.8660254037844384856 -5.302875278841982842e-17 -0.8660254037844380415 -0.5 3.06161646971843021e-17 forward_v I I I I #
loop_type-twe-attrib $-1 $-1 $-1 $13 0 #
coedge $-1 $38 $39 $40 $41 reversed $13 $-1 #
surf-twe-attrib $-1 $-1 $-1 $14 7 #
coedge $-1 $42 $16 $43 $44 reversed $8 $-1 #
coedge $-1 $16 $42 $38 $45 forward $8 $-1 #
coedge $-1 $40 $46 $16 $29 forward $47 $-1 #
edge $48 $49 0 $50 2.886751345948131764 $16 $51 forward 7 unknown #
primitive_order-cdc-attrib $-1 $-1 $19 $12 1 10 #
face_name-twe-attrib $-1 $52 $-1 $20 4 #
face $53 $54 $55 $4 $-1 $56 reversed single #
loop $57 $-1 $58 $20 #
plane-surface $59 120 2.88675134594809002 -36 0.499999999999999889 0.8660254037844388186 -5.302875278841978528e-17 -0.8660254037844390407 0.5 -3.06161646971843021e-17 forward_v I I I I #
loop_type-twe-attrib $-1 $-1 $-1 $21 0 #
coedge $-1 $60 $61 $62 $63 reversed $21 $-1 #
surf-twe-attrib $-1 $-1 $-1 $22 12 #
coedge $-1 $64 $24 $27 $45 reversed $13 $-1 #
coedge $-1 $24 $64 $60 $65 forward $13 $-1 #
coedge $-1 $62 $28 $24 $41 forward $47 $-1 #
edge $66 $50 0 $67 2.886751345948120218 $24 $68 forward 7 unknown #
coedge $-1 $27 $26 $69 $70 reversed $8 $-1 #
coedge $-1 $71 $72 $26 $44 forward $73 $-1 #
edge $74 $75 0 $49 4 $26 $76 forward 7 unknown #
edge $77 $78 0 $50 4 $38 $79 forward 7 unknown #
coedge $-1 $28 $80 $71 $81 forward $47 $-1 #
loop $82 $-1 $28 $83 #
edge_name-twe-attrib $-1 $-1 $-1 $29 1 4608 #
vertex $-1 $44 $84 #
vertex $-1 $45 $85 #
straight-curve $86 120 -2.886751345948169956 -32 -0.8660254037844390407 0.5 -3.06161646971843021e-17 I I #
primitive_order-cdc-attrib $-1 $-1 $31 $20 1 10 #
face_name-twe-attrib $-1 $87 $-1 $32 5 #
face $88 $83 $73 $4 $-1 $89 reversed single #
loop $90 $-1 $91 $32 #
plane-surface $92 122.5 1.443375672974029911 -36 1 6.153480596427399677e-16 -2.40828866912179001e-32 -6.153480596427399677e-16 1 -6.12323293943686042e-17 forward_v I I I I #
loop_type-twe-attrib $-1 $-1 $-1 $33 0 #
coedge $-1 $93 $94 $95 $96 reversed $33 $-1 #
surf-twe-attrib $-1 $-1 $-1 $34 20 #
coedge $-1 $97 $36 $39 $65 reversed $21 $-1 #
coedge $-1 $36 $97 $93 $98 forward $21 $-1 #
coedge $-1 $95 $40 $36 $63 forward $47 $-1 #
edge $99 $67 0 $100 2.88675134594813354 $36 $101 forward 7 unknown #
coedge $-1 $39 $38 $102 $103 reversed $13 $-1 #
edge $104 $105 0 $67 4 $60 $106 forward 7 unknown #
edge_name-twe-attrib $-1 $-1 $-1 $41 3 4608 #
vertex $-1 $65 $107 #
straight-curve $108 117.5 -1.443375672974100077 -32 0 1 -6.12323293943686042e-17 I I #
coedge $-1 $109 $102 $42 $70 forward $110 $-1 #
edge $111 $78 -1.082531754730551077 $75 1.804219591217580021 $69 $112 forward 7 unknown #
coedge $-1 $113 $43 $46 $81 reversed $73 $-1 #
coedge $-1 $43 $113 $109 $114 reversed $73 $-1 #
loop $115 $-1 $71 $54 #
edge_name-twe-attrib $-1 $-1 $-1 $44 2 4352 #
vertex $-1 $70 $116 #
straight-curve $117 120 -2.886751345948169956 -36 1.359630838901199936e-32 6.12323293943686042e-17 1 I I #
edge_name-twe-attrib $-1 $-1 $-1 $45 4 4352 #
vertex $-1 $70 $118 #
straight-curve $119 117.5 -1.443375672974100077 -36 1.359630838901199936e-32 6.12323293943686042e-17 1 I I #
coedge $-1 $46 $95 $91 $120 forward $47 $-1 #
edge $121 $122 0 $49 2.88675134594813132 $71 $123 forward 7 unknown #
loop_type-twe-attrib $-1 $-1 $-1 $47 0 #
face $124 $125 $47 $4 $-1 $126 reversed single #
point $-1 120 -2.886751345948169956 -32 #
point $-1 117.5 -1.443375672974100077 -32 #
cur-twe-attrib $-1 $-1 $-1 $51 29 #
primitive_order-cdc-attrib $-1 $-1 $53 $32 1 10 #
face_name-twe-attrib $-1 $127 $-1 $54 6 #
plane-surface $128 122.5 -1.443375672974100077 -36 0.5000000000000009992 -0.8660254037844380415 5.302875278841979761e-17 0.8660254037844380415 0.5000000000000009992 -3.061616469718440071e-17 forward_v I I I I #
loop_type-twe-attrib $-1 $-1 $-1 $55 0 #
coedge $-1 $129 $130 $80 $120 reversed $55 $-1 #
surf-twe-attrib $-1 $-1 $-1 $56 32 #
coedge $-1 $131 $58 $61 $98 reversed $33 $-1 #
coedge $-1 $58 $131 $129 $132 forward $33 $-1 #
coedge $-1 $80 $62 $58 $96 forward $47 $-1 #
edge $133 $100 0 $134 2.886751345948126879 $58 $135 forward 7 unknown #
coedge $-1 $61 $60 $136 $137 reversed $21 $-1 #
edge $138 $139 0 $100 4 $93 $140 forward 7 unknown #
edge_name-twe-attrib $-1 $-1 $-1 $63 5 4608 #
vertex $-1 $98 $141 #
straight-curve $142 117.5 1.443375672974019919 -32 0.8660254037844380415 0.5 -3.06161646971843021e-17 I I #
coedge $-1 $69 $136 $64 $103 forward $110 $-1 #
edge $143 $105 -2.165063509461091051 $78 0.7216878364870290552 $102 $144 forward 7 unknown #
edge_name-twe-attrib $-1 $-1 $-1 $65 6 4352 #
vertex $-1 $103 $145 #
straight-curve $146 117.5 1.443375672974019919 -36 1.359630838901199936e-32 6.12323293943686042e-17 1 I I #
point $-1 117.5 1.443375672974019919 -32 #
cur-twe-attrib $-1 $-1 $-1 $68 41 #
coedge $-1 $147 $69 $72 $114 forward $110 $-1 #
loop $148 $149 $69 $125 #
edge_name-twe-attrib $-1 $-1 $-1 $70 13 8704 #
straight-curve $150 118.4375 -1.984641550339379945 -36 0.8660254037844390407 -0.5 -2.241258809123549859e-17 I I #
coedge $-1 $72 $71 $130 $151 reversed $73 $-1 #
edge $152 $75 -1.082531754730551299 $153 1.804219591217580243 $109 $154 forward 7 unknown #
loop_type-twe-attrib $-1 $-1 $-1 $73 0 #
point $-1 120 -2.886751345948169956 -36 #
cur-twe-attrib $-1 $-1 $-1 $76 44 #
point $-1 117.5 -1.443375672974100077 -36 #
cur-twe-attrib $-1 $-1 $-1 $79 45 #
edge $155 $134 0 $122 2.886751345948129988 $91 $156 forward 7 unknown #
edge_name-twe-attrib $-1 $-1 $-1 $81 11 4608 #
vertex $-1 $151 $157 #
straight-curve $158 122.5 -1.443375672974100077 -32 -0.8660254037844380415 -0.5000000000000009992 3.061616469718440071e-17 I I #
face_name-twe-attrib $-1 $159 $-1 $83 7 #
face $160 $161 $110 $4 $-1 $162 forward single #
plane-surface $163 120 -3.864010582890689893e-14 -32 1.359630838901199936e-32 6.12323293943686042e-17 1 0 -1 6.12323293943686042e-17 forward_v I I I I #
primitive_order-cdc-attrib $-1 $-1 $88 $54 1 10 #
surf-twe-attrib $-1 $-1 $-1 $89 54 #
coedge $-1 $164 $91 $94 $132 reversed $55 $-1 #
coedge $-1 $91 $164 $113 $151 forward $55 $-1 #
coedge $-1 $94 $93 $165 $166 reversed $33 $-1 #
edge $167 $168 0 $134 4 $129 $169 forward 7 unknown #
edge_name-twe-attrib $-1 $-1 $-1 $96 7 4608 #
vertex $-1 $132 $170 #
straight-curve $171 120 2.88675134594809002 -32 0.8660254037844390407 -0.5 3.06161646971843021e-17 I I #
coedge $-1 $102 $165 $97 $137 forward $110 $-1 #
edge $172 $139 -3.247595264191648123 $105 -0.3608439182435170811 $136 $173 forward 7 unknown #
edge_name-twe-attrib $-1 $-1 $-1 $98 8 4352 #
vertex $-1 $137 $174 #
straight-curve $175 120 2.88675134594809002 -36 1.359630838901199936e-32 6.12323293943686042e-17 1 I I #
point $-1 120 2.88675134594809002 -32 #
cur-twe-attrib $-1 $-1 $-1 $101 63 #
edge_name-twe-attrib $-1 $-1 $-1 $103 18 8704 #
straight-curve $176 117.5 -0.7216878364870710216 -36 0 -1 6.12323293943686042e-17 I I #
point $-1 117.5 1.443375672974019919 -36 #
cur-twe-attrib $-1 $-1 $-1 $106 65 #
coedge $-1 $165 $109 $164 $177 forward $110 $-1 #
loop_type-twe-attrib $-1 $-1 $-1 $110 1 #
loop $178 $-1 $179 $125 #
cur-twe-attrib $-1 $-1 $-1 $112 70 #
edge $180 $153 0 $122 4 $113 $181 forward 7 unknown #
edge_name-twe-attrib $-1 $-1 $-1 $114 14 8704 #
vertex $-1 $177 $182 #
straight-curve $183 120.9375 -2.345485468582889865 -36 0.8660254037844380415 0.5000000000000009992 -8.364491748560420448e-17 I I #
edge_name-twe-attrib $-1 $-1 $-1 $120 9 4608 #
straight-curve $184 122.5 1.443375672974029911 -32 6.153480596427399677e-16 -1 6.12323293943686042e-17 I I #
point $-1 122.5 -1.443375672974100077 -32 #
cur-twe-attrib $-1 $-1 $-1 $123 81 #
primitive_order-cdc-attrib $-1 $-1 $124 $83 1 10 #
face_name-twe-attrib $-1 $185 $-1 $125 8 #
face $186 $187 $188 $4 $-1 $189 forward single #
plane-surface $190 117.5 -3.925510948802610266e-14 -36 -6.12323293943686042e-17 -6.12323293943686042e-17 -1 0 1 -6.12323293943686042e-17 forward_v I I I I #
surf-twe-attrib $-1 $-1 $-1 $126 83 #
coedge $-1 $130 $129 $147 $177 reversed $55 $-1 #
coedge $-1 $136 $147 $131 $166 forward $110 $-1 #
edge $191 $168 -3.247595264191643238 $139 -0.3608439182435171921 $165 $192 forward 7 unknown #
edge_name-twe-attrib $-1 $-1 $-1 $132 10 4352 #
vertex $-1 $166 $193 #
straight-curve $194 122.5 1.443375672974029911 -36 1.359630838901199936e-32 6.12323293943686042e-17 1 I I #
point $-1 122.5 1.443375672974029911 -32 #
cur-twe-attrib $-1 $-1 $-1 $135 96 #
edge_name-twe-attrib $-1 $-1 $-1 $137 17 8704 #
straight-curve $195 117.1875 1.262953713852259963 -36 -0.8660254037844390407 -0.5 8.364491748560410587e-17 I I #
point $-1 120 2.88675134594809002 -36 #
cur-twe-attrib $-1 $-1 $-1 $140 98 #
cur-twe-attrib $-1 $-1 $-1 $144 103 #
edge $196 $153 -2.165063509461095048 $168 0.7216878364870349394 $147 $197 forward 7 unknown #
loop_type-twe-attrib $-1 $-1 $-1 $149 0 #
coedge $-1 $179 $179 $198 $199 forward $149 $-1 #
edge_name-twe-attrib $-1 $-1 $-1 $151 12 4352 #
straight-curve $200 122.5 -1.443375672974100077 -36 1.359630838901199936e-32 6.12323293943686042e-17 1 I I #
point $-1 122.5 -1.443375672974100077 -36 #
cur-twe-attrib $-1 $-1 $-1 $154 114 #
cur-twe-attrib $-1 $-1 $-1 $156 120 #
primitive_order-cdc-attrib $-1 $-1 $160 $125 0 8 #
face_name-twe-attrib $-1 $201 $-1 $161 9 #
face $202 $203 $204 $4 $-1 $205 forward single #
loop $206 $207 $198 $161 #
cone-surface $208 120 -3.803046290013880024e-14 -16 -6.12323293943686042e-17 -6.12323293943686042e-17 -1 -5 -2.081334084558499899e-48 -3.399077097252989987e-32 1 I I 0 1 5 forward I I I I #
surf-twe-attrib $-1 $-1 $-1 $162 125 #
edge_name-twe-attrib $-1 $-1 $-1 $166 16 8704 #
straight-curve $209 119.6875 3.067173305069850198 -36 -0.8660254037844390407 0.5 2.241258809123549859e-17 I I #
point $-1 122.5 1.443375672974029911 -36 #
cur-twe-attrib $-1 $-1 $-1 $169 132 #
cur-twe-attrib $-1 $-1 $-1 $173 137 #
edge_name-twe-attrib $-1 $-1 $-1 $177 15 8704 #
straight-curve $210 122.5 0.7216878364869949714 -36 -6.153480596427409537e-16 1 -6.12323293943686042e-17 I I #
coedge $-1 $198 $198 $179 $199 reversed $188 $-1 #
edge $211 $212 -4.379057701015053438e-49 $212 6.283185307179586232 $179 $213 forward 7 unknown #
cur-twe-attrib $-1 $-1 $-1 $181 151 #
primitive_order-cdc-attrib $-1 $-1 $186 $161 0 8 #
face_name-twe-attrib $-1 $214 $-1 $187 10 #
face $215 $216 $217 $4 $-1 $218 forward single #
loop $219 $220 $221 $187 #
plane-surface $222 113.5 -3.680581631225139685e-14 4 -6.12323293943686042e-17 -6.12323293943686042e-17 -1 0 1 -6.12323293943686042e-17 forward_v I I I I #
loop_type-twe-attrib $-1 $-1 $-1 $188 0 #
loop $223 $-1 $224 $161 #
surf-twe-attrib $-1 $-1 $-1 $189 161 #
cur-twe-attrib $-1 $-1 $-1 $192 166 #
cur-twe-attrib $-1 $-1 $-1 $197 177 #
edge_name-twe-attrib $-1 $-1 $-1 $199 19 8704 #
vertex $-1 $199 $225 #
ellipse-curve $226 120 -3.925510948802610266e-14 -36 -6.12323293943686042e-17 -6.12323293943686042e-17 -1 -5 -2.081334084558499899e-48 -3.399077097252989987e-32 1 I I #
primitive_order-cdc-attrib $-1 $-1 $202 $187 0 8 #
face_name-twe-attrib $-1 $227 $-1 $203 11 #
face $228 $229 $230 $4 $-1 $231 forward single #
loop $232 $233 $234 $203 #
cone-surface $235 120 -3.677520014755419994e-14 4.5 -6.12323293943686042e-17 -6.12323293943686042e-17 -1 -8 -3.330134535293589993e-48 -5.438523355604780038e-32 1 I I 0 1 8 forward I I I I #
loop_type-twe-attrib $-1 $-1 $-1 $204 1 #
loop $236 $-1 $237 $187 #
coedge $-1 $221 $221 $224 $238 reversed $204 $-1 #
surf-twe-attrib $-1 $-1 $-1 $205 187 #
loop_type-twe-attrib $-1 $-1 $-1 $207 1 #
coedge $-1 $224 $224 $221 $238 forward $207 $-1 #
point $-1 115 -3.925510948802610266e-14 -36 #
cur-twe-attrib $-1 $-1 $-1 $213 199 #
primitive_order-cdc-attrib $-1 $-1 $215 $203 0 8 #
face_name-twe-attrib $-1 $239 $-1 $216 12 #
face $240 $241 $242 $4 $-1 $243 forward single #
loop $244 $245 $246 $216 #
plane-surface $247 108.8535533905930066 -3.674458398285700302e-14 5 -6.12323293943686042e-17 -6.12323293943686042e-17 -1 0 1 -6.12323293943686042e-17 forward_v I I I I #
loop_type-twe-attrib $-1 $-1 $-1 $217 0 #
loop $248 $-1 $249 $203 #
coedge $-1 $234 $234 $237 $250 reversed $217 $-1 #
surf-twe-attrib $-1 $-1 $-1 $218 203 #
loop_type-twe-attrib $-1 $-1 $-1 $220 0 #
coedge $-1 $237 $237 $234 $250 forward $220 $-1 #
edge $251 $252 -4.379057701015053438e-49 $252 6.283185307179586232 $224 $253 forward 7 unknown #
primitive_order-cdc-attrib $-1 $-1 $228 $216 0 8 #
face_name-twe-attrib $-1 $254 $-1 $229 13 #
face $255 $256 $257 $4 $-1 $258 forward single #
loop $259 $260 $261 $229 #
cone-surface $262 120 -3.67229350851857022e-14 5.353553390592989736 -6.12323293943686042e-17 -6.12323293943686042e-17 -1 -14.64644660940670029 -6.09682970916486952e-48 -9.95688024523461062e-32 1 I I -0.70710678118654402 0.7071067811865510144 14.64644660940670029 forward I I I I #
loop_type-twe-attrib $-1 $-1 $-1 $230 1 #
loop $263 $-1 $264 $216 #
coedge $-1 $246 $246 $249 $265 reversed $230 $-1 #
surf-twe-attrib $-1 $-1 $-1 $231 216 #
loop_type-twe-attrib $-1 $-1 $-1 $233 1 #
coedge $-1 $249 $249 $246 $265 forward $233 $-1 #
edge $266 $267 0 $267 6.283185307179586232 $237 $268 forward 7 unknown #
edge_name-twe-attrib $-1 $-1 $-1 $238 20 4608 #
vertex $-1 $238 $269 #
ellipse-curve $270 120 -3.680581631225139685e-14 4 -6.12323293943686042e-17 -6.12323293943686042e-17 -1 -5 -2.081334084558499899e-48 -3.399077097252989987e-32 1 I I #
primitive_order-cdc-attrib $-1 $-1 $240 $229 0 8 #
face_name-twe-attrib $-1 $271 $-1 $241 14 #
face $272 $273 $274 $4 $-1 $275 forward single #
loop $276 $-1 $277 $241 #
plane-surface $278 112.8535533905930066 -3.631595767709639763e-14 12 6.12323293943686042e-17 6.12323293943686042e-17 1 0 -1 6.12323293943686042e-17 forward_v I I I I #
loop_type-twe-attrib $-1 $-1 $-1 $242 0 #
loop $279 $-1 $280 $229 #
coedge $-1 $261 $261 $264 $281 reversed $242 $-1 #
surf-twe-attrib $-1 $-1 $-1 $243 229 #
loop_type-twe-attrib $-1 $-1 $-1 $245 0 #
coedge $-1 $264 $264 $261 $281 forward $245 $-1 #
edge $282 $283 0 $283 6.283185307179586232 $249 $284 forward 7 unknown #
edge_name-twe-attrib $-1 $-1 $-1 $250 21 8704 #
vertex $-1 $250 $285 #
ellipse-curve $286 120 -3.680581631225139685e-14 4 -6.12323293943686042e-17 -6.12323293943686042e-17 -1 -8 -3.330134535293589993e-48 -5.438523355604780038e-32 1 I I #
point $-1 115 -3.680581631225139685e-14 4 #
cur-twe-attrib $-1 $-1 $-1 $253 238 #
primitive_order-cdc-attrib $-1 $-1 $255 $241 0 8 #
face_name-twe-attrib $-1 $287 $-1 $256 15 #
face $288 $-1 $289 $4 $-1 $290 forward single #
loop $291 $292 $293 $256 #
cone-surface $294 120 -3.653027082997670032e-14 8.5 -6.12323293943686042e-17 -6.12323293943686042e-17 -1 -15 -6.244002253675489972e-48 -1.019723129175899952e-31 1 I I 0 1 15 forward I I I I #
loop_type-twe-attrib $-1 $-1 $-1 $257 0 #
coedge $-1 $277 $277 $295 $296 reversed $257 $-1 #
surf-twe-attrib $-1 $-1 $-1 $258 241 #
loop_type-twe-attrib $-1 $-1 $-1 $260 1 #
coedge $-1 $280 $280 $293 $297 forward $260 $-1 #
edge $298 $299 4.287166644795202576e-49 $299 6.283185307179586232 $264 $300 forward 7 unknown #
edge_name-twe-attrib $-1 $-1 $-1 $265 22 4608 #
vertex $-1 $265 $301 #
ellipse-curve $302 120 -3.674458398285700302e-14 5 -6.12323293943686042e-17 -6.12323293943686042e-17 -1 -8 -3.330134535293589993e-48 -5.438523355604780038e-32 1 I I #
point $-1 111.9999999999990052 -3.680581631225139685e-14 4 #
cur-twe-attrib $-1 $-1 $-1 $268 250 #
primitive_order-cdc-attrib $-1 $-1 $272 $256 0 8 #
face_name-twe-attrib $-1 $303 $-1 $273 16 #
loop $304 $305 $306 $273 #
cone-surface $307 120 -3.633760657476769845e-14 11.64644660940700049 -6.12323293943686042e-17 -6.12323293943686042e-17 -1 -14.64644660940670029 -6.09682970916486952e-48 -9.95688024523461062e-32 1 I I 0.70710678118654402 0.7071067811865510144 14.64644660940670029 forward I I I I #
loop_type-twe-attrib $-1 $-1 $-1 $274 0 #
loop $308 $-1 $309 $256 #
coedge $-1 $293 $293 $280 $297 reversed $274 $-1 #
surf-twe-attrib $-1 $-1 $-1 $275 256 #
coedge $-1 $295 $295 $277 $296 forward $305 $-1 #
edge $310 $311 4.287166644795202576e-49 $311 6.283185307179586232 $295 $312 forward 7 unknown #
edge $313 $314 0 $314 6.283185307179586232 $280 $315 forward 7 unknown #
edge_name-twe-attrib $-1 $-1 $-1 $281 23 8448 #
vertex $-1 $281 $316 #
ellipse-curve $317 120 -3.674458398285700302e-14 5 -6.12323293943686042e-17 -6.12323293943686042e-17 -1 -14.29289321881350006 -5.949657164654300116e-48 -9.716529198710310397e-32 1 I I #
point $-1 111.9999999999990052 -3.674458398285700302e-14 5 #
cur-twe-attrib $-1 $-1 $-1 $284 265 #
primitive_order-cdc-attrib $-1 $-1 $288 $273 0 8 #
loop_type-twe-attrib $-1 $-1 $-1 $289 0 #
loop $318 $-1 $295 $273 #
coedge $-1 $306 $306 $309 $319 reversed $289 $-1 #
surf-twe-attrib $-1 $-1 $-1 $290 273 #
loop_type-twe-attrib $-1 $-1 $-1 $292 1 #
coedge $-1 $309 $309 $306 $319 forward $292 $-1 #
edge_name-twe-attrib $-1 $-1 $-1 $296 26 8448 #
vertex $-1 $296 $320 #
ellipse-curve $321 120 -3.631595767709639763e-14 12 -6.12323293943686042e-17 -6.12323293943686042e-17 -1 -14.29289321881350006 -5.949657164654300116e-48 -9.716529198710310397e-32 1 I I #
edge_name-twe-attrib $-1 $-1 $-1 $297 24 8448 #
vertex $-1 $297 $322 #
ellipse-curve $323 120 -3.670128618751440138e-14 5.707106781187009759 -6.12323293943686042e-17 -6.12323293943686042e-17 -1 -15 -6.244002253675489972e-48 -1.019723129175899952e-31 1 I I #
point $-1 105.707106781185999 -3.674458398285700302e-14 5 #
cur-twe-attrib $-1 $-1 $-1 $300 281 #
loop_type-twe-attrib $-1 $-1 $-1 $305 1 #
edge $324 $325 0 $325 6.283185307179586232 $309 $326 forward 7 unknown #
point $-1 105.707106781185999 -3.631595767709639763e-14 12 #
cur-twe-attrib $-1 $-1 $-1 $312 296 #
point $-1 104.9999999999990052 -3.670128618751440138e-14 5.707106781187009759 #
cur-twe-attrib $-1 $-1 $-1 $315 297 #
edge_name-twe-attrib $-1 $-1 $-1 $319 25 8448 #
vertex $-1 $319 $327 #
ellipse-curve $328 120 -3.635925547243899927e-14 11.29289321881399921 -6.12323293943686042e-17 -6.12323293943686042e-17 -1 -15 -6.244002253675489972e-48 -1.019723129175899952e-31 1 I I #
point $-1 104.9999999999990052 -3.635925547243899927e-14 11.29289321881399921 #
cur-twe-attrib $-1 $-1 $-1 $326 319 #
End-of-ACIS-data 