  0
SECTION
  2
HEADER
  9
$ACADVER
  1
AC1009
  9
$INSBASE
 10
0.0
 20
0.0
 30
0.0
  9
$EXTMIN
 10
0.0
 20
0.0
 30
0.0
  9
$EXTMAX
 10
5.0
 20
4.0
 30
5.0
  9
$LIMMIN
 10
0.0
 20
0.0
  9
$LIMMAX
 10
12.0
 20
9.0
  9
$ORTHOMODE
 70
     0
  9
$REGENMODE
 70
     1
  9
$FILLMODE
 70
     1
  9
$QTEXTMODE
 70
     0
  9
$MIRRTEXT
 70
     1
  9
$DRAGMODE
 70
     2
  9
$LTSCALE
 40
1.0
  9
$OSMODE
 70
     0
  9
$ATTMODE
 70
     1
  9
$TEXTSIZE
 40
0.2
  9
$TRACEWID
 40
0.05
  9
$TEXTSTYLE
  7
STANDARD
  9
$CLAYER
  8
0
  9
$CELTYPE
  6
BYLAYER
  9
$CECOLOR
 62
   256
  9
$DIMSCALE
 40
1.0
  9
$DIMASZ
 40
0.18
  9
$DIMEXO
 40
0.0625
  9
$DIMDLI
 40
0.38
  9
$DIMRND
 40
0.0
  9
$DIMDLE
 40
0.0
  9
$DIMEXE
 40
0.18
  9
$DIMTP
 40
0.0
  9
$DIMTM
 40
0.0
  9
$DIMTXT
 40
0.18
  9
$DIMCEN
 40
0.09
  9
$DIMTSZ
 40
0.0
  9
$DIMTOL
 70
     0
  9
$DIMLIM
 70
     0
  9
$DIMTIH
 70
     1
  9
$DIMTOH
 70
     1
  9
$DIMSE1
 70
     0
  9
$DIMSE2
 70
     0
  9
$DIMTAD
 70
     0
  9
$DIMZIN
 70
     0
  9
$DIMBLK
  1

  9
$DIMASO
 70
     1
  9
$DIMSHO
 70
     1
  9
$DIMPOST
  1

  9
$DIMAPOST
  1

  9
$DIMALT
 70
     0
  9
$DIMALTD
 70
     2
  9
$DIMALTF
 40
25.4
  9
$DIMLFAC
 40
1.0
  9
$DIMTOFL
 70
     0
  9
$DIMTVP
 40
0.0
  9
$DIMTIX
 70
     0
  9
$DIMSOXD
 70
     0
  9
$DIMSAH
 70
     0
  9
$DIMBLK1
  1

  9
$DIMBLK2
  1

  9
$DIMSTYLE
  2
*UNNAMED
  9
$DIMCLRD
 70
     0
  9
$DIMCLRE
 70
     0
  9
$DIMCLRT
 70
     0
  9
$DIMTFAC
 40
1.0
  9
$DIMGAP
 40
0.09
  9
$LUNITS
 70
     2
  9
$LUPREC
 70
     4
  9
$SKETCHINC
 40
0.1
  9
$FILLETRAD
 40
0.0
  9
$AUNITS
 70
     0
  9
$AUPREC
 70
     0
  9
$MENU
  1
acad
  9
$ELEVATION
 40
0.0
  9
$PELEVATION
 40
0.0
  9
$THICKNESS
 40
0.0
  9
$LIMCHECK
 70
     0
  9
$BLIPMODE
 70
     1
  9
$CHAMFERA
 40
0.0
  9
$CHAMFERB
 40
0.0
  9
$SKPOLY
 70
     0
  9
$TDCREATE
 40
2448850.865962974
  9
$TDUPDATE
 40
2448850.870166921
  9
$TDINDWG
 40
0.0042039468
  9
$TDUSRTIMER
 40
0.0042039468
  9
$USRTIMER
 70
     1
  9
$ANGBASE
 50
0.0
  9
$ANGDIR
 70
     0
  9
$PDMODE
 70
     0
  9
$PDSIZE
 40
0.0
  9
$PLINEWID
 40
0.0
  9
$COORDS
 70
     0
  9
$SPLFRAME
 70
     0
  9
$SPLINETYPE
 70
     6
  9
$SPLINESEGS
 70
     8
  9
$ATTDIA
 70
     0
  9
$ATTREQ
 70
     1
  9
$HANDLING
 70
     1
  9
$HANDSEED
  5
13F
  9
$SURFTAB1
 70
     6
  9
$SURFTAB2
 70
     6
  9
$SURFTYPE
 70
     6
  9
$SURFU
 70
     6
  9
$SURFV
 70
     6
  9
$UCSNAME
  2

  9
$UCSORG
 10
0.0
 20
0.0
 30
0.0
  9
$UCSXDIR
 10
1.0
 20
0.0
 30
0.0
  9
$UCSYDIR
 10
0.0
 20
1.0
 30
0.0
  9
$PUCSNAME
  2

  9
$PUCSORG
 10
0.0
 20
0.0
 30
0.0
  9
$PUCSXDIR
 10
1.0
 20
0.0
 30
0.0
  9
$PUCSYDIR
 10
0.0
 20
1.0
 30
0.0
  9
$USERI1
 70
     0
  9
$USERI2
 70
     0
  9
$USERI3
 70
     0
  9
$USERI4
 70
     0
  9
$USERI5
 70
     0
  9
$USERR1
 40
0.0
  9
$USERR2
 40
0.0
  9
$USERR3
 40
0.0
  9
$USERR4
 40
0.0
  9
$USERR5
 40
0.0
  9
$WORLDVIEW
 70
     1
  9
$SHADEDGE
 70
     3
  9
$SHADEDIF
 70
    70
  9
$TILEMODE
 70
     1
  9
$MAXACTVP
 70
    16
  9
$PINSBASE
 10
0.0
 20
0.0
 30
0.0
  9
$PLIMCHECK
 70
     0
  9
$PEXTMIN
 10
1.000000E+20
 20
1.000000E+20
 30
1.000000E+20
  9
$PEXTMAX
 10
-1.000000E+20
 20
-1.000000E+20
 30
-1.000000E+20
  9
$PLIMMIN
 10
0.0
 20
0.0
  9
$PLIMMAX
 10
12.0
 20
9.0
  9
$UNITMODE
 70
     0
  9
$VISRETAIN
 70
     0
  9
$PLINEGEN
 70
     0
  9
$PSLTSCALE
 70
     0
  9
$TREEDEPTH
 70
  3020
  9
$DWGCODEPAGE
  3
undefined
  0
ENDSEC
  0
SECTION
  2
TABLES
  0
TABLE
  2
VPORT
 70
     2
  0
VPORT
  2
*ACTIVE
 70
     0
 10
0.0
 20
0.0
 11
1.0
 21
1.0
 12
4.033328
 22
0.859853
 13
0.0
 23
0.0
 14
1.0
 24
1.0
 15
0.0
 25
0.0
 16
1.2
 26
0.9
 36
1.0
 17
0.0
 27
0.0
 37
0.0
 40
8.819868
 41
1.594883
 42
50.0
 43
0.0
 44
0.0
 50
0.0
 51
0.0
 71
     0
 72
   100
 73
     1
 74
     1
 75
     0
 76
     0
 77
     0
 78
     0
  0
ENDTAB
  0
TABLE
  2
LTYPE
 70
     1
  0
LTYPE
  2
CONTINUOUS
 70
    64
  3
Solid line
 72
    65
 73
     0
 40
0.0
  0
ENDTAB
  0
TABLE
  2
LAYER
 70
     2
  0
LAYER
  2
0
 70
    64
 62
     7
  6
CONTINUOUS
  0
LAYER
  2
AME_FRZ
 70
    65
 62
     7
  6
CONTINUOUS
  0
ENDTAB
  0
TABLE
  2
STYLE
 70
     1
  0
STYLE
  2
STANDARD
 70
     0
 40
0.0
 41
1.0
 50
0.0
 71
     0
 42
0.2
  3
txt
  4

  0
ENDTAB
  0
TABLE
  2
VIEW
 70
     0
  0
ENDTAB
  0
TABLE
  2
UCS
 70
     0
  0
ENDTAB
  0
TABLE
  2
APPID
 70
     2
  0
APPID
  2
ACAD
 70
    64
  0
APPID
  2
AME_SOL
 70
    64
  0
ENDTAB
  0
TABLE
  2
DIMSTYLE
 70
     0
  0
ENDTAB
  0
ENDSEC
  0
SECTION
  2
BLOCKS
  0
BLOCK
  8
0
  5
1
  2
AME_NIL
 70
    64
 10
0.0
 20
0.0
 30
0.0
  1
AME_NIL
  3
AME_NIL
  0
ENDBLK
  8
0
  5
2
  0
BLOCK
  8
0
  5
4
  2
AME_SOL
 70
    64
 10
0.0
 20
0.0
 30
0.0
  1
AME_SOL
  3
AME_SOL
  0
ENDBLK
  8
0
  5
5
  0
BLOCK
  8
0
  5
18
  2
*U2
 70
    65
 10
0.0
 20
0.0
 30
0.0
  1
*U
  3
*U
  0
LINE
  8
0
 62
     0
  5
19
 10
5.0
 20
1.0
 30
0.0
 11
5.0
 21
1.0
 31
5.0
1001
AME_SOL
1070
     1
1071
       18
  0
LINE
  8
0
 62
     0
  5
1A
 10
5.0
 20
1.0
 30
5.0
 11
5.0
 21
0.0
 31
5.0
1001
AME_SOL
1070
     1
1071
       17
  0
LINE
  8
0
 62
     0
  5
1B
 10
0.0
 20
1.0
 30
5.0
 11
5.0
 21
1.0
 31
5.0
1001
AME_SOL
1070
     1
1071
       16
  0
LINE
  8
0
 62
     0
  5
1C
 10
0.0
 20
1.0
 30
0.0
 11
0.0
 21
1.0
 31
5.0
1001
AME_SOL
1070
     1
1071
       15
  0
LINE
  8
0
 62
     0
  5
1D
 10
0.0
 20
1.0
 30
5.0
 11
0.0
 21
0.0
 31
5.0
1001
AME_SOL
1070
     1
1071
       14
  0
LINE
  8
0
 62
     0
  5
1E
 10
0.0
 20
0.0
 30
0.0
 11
0.0
 21
0.0
 31
5.0
1001
AME_SOL
1070
     1
1071
       13
  0
LINE
  8
0
 62
     0
  5
1F
 10
5.0
 20
0.0
 30
5.0
 11
5.0
 21
0.0
 31
0.0
1001
AME_SOL
1070
     1
1071
       12
  0
LINE
  8
0
 62
     0
  5
20
 10
0.0
 20
0.0
 30
5.0
 11
5.0
 21
0.0
 31
5.0
1001
AME_SOL
1070
     1
1071
       11
  0
LINE
  8
0
 62
     0
  5
21
 10
0.0
 20
0.0
 30
0.0
 11
5.0
 21
0.0
 31
0.0
1001
AME_SOL
1070
     1
1071
       10
  0
LINE
  8
0
 62
     0
  5
22
 10
0.0
 20
1.0
 30
0.0
 11
0.0
 21
0.0
 31
0.0
1001
AME_SOL
1070
     1
1071
        9
  0
LINE
  8
0
 62
     0
  5
23
 10
5.0
 20
0.0
 30
0.0
 11
5.0
 21
1.0
 31
0.0
1001
AME_SOL
1070
     1
1071
        8
  0
LINE
  8
0
 62
     0
  5
24
 10
5.0
 20
1.0
 30
0.0
 11
0.0
 21
1.0
 31
0.0
1001
AME_SOL
1070
     1
1071
        7
  0
ENDBLK
  8
0
  5
25
  0
BLOCK
  8
0
  5
29
  2
*U3
 70
    65
 10
0.0
 20
0.0
 30
0.0
  1
*U
  3
*U
  0
LINE
  8
0
 62
     0
  5
2A
 10
1.0
 20
3.0
 30
0.0
 11
1.0
 21
3.0
 31
1.0
1001
AME_SOL
1070
     1
1071
       18
  0
LINE
  8
0
 62
     0
  5
2B
 10
1.0
 20
3.0
 30
1.0
 11
1.0
 21
0.0
 31
1.0
1001
AME_SOL
1070
     1
1071
       17
  0
LINE
  8
0
 62
     0
  5
2C
 10
0.0
 20
3.0
 30
1.0
 11
1.0
 21
3.0
 31
1.0
1001
AME_SOL
1070
     1
1071
       16
  0
LINE
  8
0
 62
     0
  5
2D
 10
0.0
 20
3.0
 30
0.0
 11
0.0
 21
3.0
 31
1.0
1001
AME_SOL
1070
     1
1071
       15
  0
LINE
  8
0
 62
     0
  5
2E
 10
0.0
 20
3.0
 30
1.0
 11
0.0
 21
0.0
 31
1.0
1001
AME_SOL
1070
     1
1071
       14
  0
LINE
  8
0
 62
     0
  5
2F
 10
0.0
 20
0.0
 30
0.0
 11
0.0
 21
0.0
 31
1.0
1001
AME_SOL
1070
     1
1071
       13
  0
LINE
  8
0
 62
     0
  5
30
 10
1.0
 20
0.0
 30
1.0
 11
1.0
 21
0.0
 31
0.0
1001
AME_SOL
1070
     1
1071
       12
  0
LINE
  8
0
 62
     0
  5
31
 10
0.0
 20
0.0
 30
1.0
 11
1.0
 21
0.0
 31
1.0
1001
AME_SOL
1070
     1
1071
       11
  0
LINE
  8
0
 62
     0
  5
32
 10
0.0
 20
0.0
 30
0.0
 11
1.0
 21
0.0
 31
0.0
1001
AME_SOL
1070
     1
1071
       10
  0
LINE
  8
0
 62
     0
  5
33
 10
0.0
 20
3.0
 30
0.0
 11
0.0
 21
0.0
 31
0.0
1001
AME_SOL
1070
     1
1071
        9
  0
LINE
  8
0
 62
     0
  5
34
 10
1.0
 20
0.0
 30
0.0
 11
1.0
 21
3.0
 31
0.0
1001
AME_SOL
1070
     1
1071
        8
  0
LINE
  8
0
 62
     0
  5
35
 10
1.0
 20
3.0
 30
0.0
 11
0.0
 21
3.0
 31
0.0
1001
AME_SOL
1070
     1
1071
        7
  0
ENDBLK
  8
0
  5
36
  0
BLOCK
  8
0
  5
3A
  2
*U4
 70
    65
 10
0.0
 20
0.0
 30
0.0
  1
*U
  3
*U
  0
LINE
  8
0
 62
     0
  5
3B
 10
1.0
 20
2.0
 30
0.0
 11
1.0
 21
2.0
 31
1.0
1001
AME_SOL
1070
     1
1071
       18
  0
LINE
  8
0
 62
     0
  5
3C
 10
1.0
 20
2.0
 30
1.0
 11
1.0
 21
0.0
 31
1.0
1001
AME_SOL
1070
     1
1071
       17
  0
LINE
  8
0
 62
     0
  5
3D
 10
0.0
 20
2.0
 30
1.0
 11
1.0
 21
2.0
 31
1.0
1001
AME_SOL
1070
     1
1071
       16
  0
LINE
  8
0
 62
     0
  5
3E
 10
0.0
 20
2.0
 30
0.0
 11
0.0
 21
2.0
 31
1.0
1001
AME_SOL
1070
     1
1071
       15
  0
LINE
  8
0
 62
     0
  5
3F
 10
0.0
 20
2.0
 30
1.0
 11
0.0
 21
0.0
 31
1.0
1001
AME_SOL
1070
     1
1071
       14
  0
LINE
  8
0
 62
     0
  5
40
 10
0.0
 20
0.0
 30
0.0
 11
0.0
 21
0.0
 31
1.0
1001
AME_SOL
1070
     1
1071
       13
  0
LINE
  8
0
 62
     0
  5
41
 10
1.0
 20
0.0
 30
1.0
 11
1.0
 21
0.0
 31
0.0
1001
AME_SOL
1070
     1
1071
       12
  0
LINE
  8
0
 62
     0
  5
42
 10
0.0
 20
0.0
 30
1.0
 11
1.0
 21
0.0
 31
1.0
1001
AME_SOL
1070
     1
1071
       11
  0
LINE
  8
0
 62
     0
  5
43
 10
0.0
 20
0.0
 30
0.0
 11
1.0
 21
0.0
 31
0.0
1001
AME_SOL
1070
     1
1071
       10
  0
LINE
  8
0
 62
     0
  5
44
 10
0.0
 20
2.0
 30
0.0
 11
0.0
 21
0.0
 31
0.0
1001
AME_SOL
1070
     1
1071
        9
  0
LINE
  8
0
 62
     0
  5
45
 10
1.0
 20
0.0
 30
0.0
 11
1.0
 21
2.0
 31
0.0
1001
AME_SOL
1070
     1
1071
        8
  0
LINE
  8
0
 62
     0
  5
46
 10
1.0
 20
2.0
 30
0.0
 11
0.0
 21
2.0
 31
0.0
1001
AME_SOL
1070
     1
1071
        7
  0
ENDBLK
  8
0
  5
47
  0
BLOCK
  8
0
  5
4B
  2
*U5
 70
    65
 10
0.0
 20
0.0
 30
0.0
  1
*U
  3
*U
  0
LINE
  8
0
 62
     0
  5
4C
 10
1.0
 20
1.0
 30
0.0
 11
1.0
 21
1.0
 31
1.0
1001
AME_SOL
1070
     1
1071
       18
  0
LINE
  8
0
 62
     0
  5
4D
 10
1.0
 20
1.0
 30
1.0
 11
1.0
 21
0.0
 31
1.0
1001
AME_SOL
1070
     1
1071
       17
  0
LINE
  8
0
 62
     0
  5
4E
 10
0.0
 20
1.0
 30
1.0
 11
1.0
 21
1.0
 31
1.0
1001
AME_SOL
1070
     1
1071
       16
  0
LINE
  8
0
 62
     0
  5
4F
 10
0.0
 20
1.0
 30
0.0
 11
0.0
 21
1.0
 31
1.0
1001
AME_SOL
1070
     1
1071
       15
  0
LINE
  8
0
 62
     0
  5
50
 10
0.0
 20
1.0
 30
1.0
 11
0.0
 21
0.0
 31
1.0
1001
AME_SOL
1070
     1
1071
       14
  0
LINE
  8
0
 62
     0
  5
51
 10
0.0
 20
0.0
 30
0.0
 11
0.0
 21
0.0
 31
1.0
1001
AME_SOL
1070
     1
1071
       13
  0
LINE
  8
0
 62
     0
  5
52
 10
1.0
 20
0.0
 30
1.0
 11
1.0
 21
0.0
 31
0.0
1001
AME_SOL
1070
     1
1071
       12
  0
LINE
  8
0
 62
     0
  5
53
 10
0.0
 20
0.0
 30
1.0
 11
1.0
 21
0.0
 31
1.0
1001
AME_SOL
1070
     1
1071
       11
  0
LINE
  8
0
 62
     0
  5
54
 10
0.0
 20
0.0
 30
0.0
 11
1.0
 21
0.0
 31
0.0
1001
AME_SOL
1070
     1
1071
       10
  0
LINE
  8
0
 62
     0
  5
55
 10
0.0
 20
1.0
 30
0.0
 11
0.0
 21
0.0
 31
0.0
1001
AME_SOL
1070
     1
1071
        9
  0
LINE
  8
0
 62
     0
  5
56
 10
1.0
 20
0.0
 30
0.0
 11
1.0
 21
1.0
 31
0.0
1001
AME_SOL
1070
     1
1071
        8
  0
LINE
  8
0
 62
     0
  5
57
 10
1.0
 20
1.0
 30
0.0
 11
0.0
 21
1.0
 31
0.0
1001
AME_SOL
1070
     1
1071
        7
  0
ENDBLK
  8
0
  5
58
  0
BLOCK
  8
0
  5
5F
  2
*U6
 70
    65
 10
0.0
 20
0.0
 30
0.0
  1
*U
  3
*U
  0
LINE
  8
0
 62
     7
  5
60
 10
1.0
 20
4.0
 30
0.0
 11
1.0
 21
4.0
 31
1.0
1001
AME_SOL
1070
     1
1071
       59
  0
LINE
  8
0
 62
     7
  5
61
 10
1.0
 20
4.0
 30
1.0
 11
1.0
 21
1.0
 31
1.0
1001
AME_SOL
1070
     1
1071
       58
  0
LINE
  8
0
 62
     7
  5
62
 10
0.0
 20
4.0
 30
1.0
 11
1.0
 21
4.0
 31
1.0
1001
AME_SOL
1070
     1
1071
       57
  0
LINE
  8
0
 62
     7
  5
63
 10
0.0
 20
4.0
 30
0.0
 11
0.0
 21
4.0
 31
1.0
1001
AME_SOL
1070
     1
1071
       56
  0
LINE
  8
0
 62
     7
  5
64
 10
0.0
 20
4.0
 30
1.0
 11
0.0
 21
1.0
 31
1.0
1001
AME_SOL
1070
     1
1071
       55
  0
LINE
  8
0
 62
     7
  5
65
 10
1.0
 20
1.0
 30
0.0
 11
1.0
 21
4.0
 31
0.0
1001
AME_SOL
1070
     1
1071
       54
  0
LINE
  8
0
 62
     7
  5
66
 10
1.0
 20
4.0
 30
0.0
 11
0.0
 21
4.0
 31
0.0
1001
AME_SOL
1070
     1
1071
       53
  0
LINE
  8
0
 62
     7
  5
67
 10
0.0
 20
4.0
 30
0.0
 11
0.0
 21
0.0
 31
0.0
1001
AME_SOL
1070
     1
1071
       52
  0
LINE
  8
0
 62
     7
  5
68
 10
3.0
 20
3.0
 30
2.0
 11
3.0
 21
3.0
 31
3.0
1001
AME_SOL
1070
     1
1071
       51
  0
LINE
  8
0
 62
     7
  5
69
 10
3.0
 20
3.0
 30
3.0
 11
3.0
 21
1.0
 31
3.0
1001
AME_SOL
1070
     1
1071
       50
  0
LINE
  8
0
 62
     7
  5
6A
 10
2.0
 20
3.0
 30
3.0
 11
3.0
 21
3.0
 31
3.0
1001
AME_SOL
1070
     1
1071
       49
  0
LINE
  8
0
 62
     7
  5
6B
 10
2.0
 20
3.0
 30
2.0
 11
2.0
 21
3.0
 31
3.0
1001
AME_SOL
1070
     1
1071
       48
  0
LINE
  8
0
 62
     7
  5
6C
 10
2.0
 20
3.0
 30
3.0
 11
2.0
 21
1.0
 31
3.0
1001
AME_SOL
1070
     1
1071
       47
  0
LINE
  8
0
 62
     7
  5
6D
 10
2.0
 20
3.0
 30
2.0
 11
2.0
 21
1.0
 31
2.0
1001
AME_SOL
1070
     1
1071
       46
  0
LINE
  8
0
 62
     7
  5
6E
 10
3.0
 20
1.0
 30
2.0
 11
3.0
 21
3.0
 31
2.0
1001
AME_SOL
1070
     1
1071
       45
  0
LINE
  8
0
 62
     7
  5
6F
 10
3.0
 20
3.0
 30
2.0
 11
2.0
 21
3.0
 31
2.0
1001
AME_SOL
1070
     1
1071
       44
  0
LINE
  8
0
 62
     7
  5
70
 10
5.0
 20
1.0
 30
0.0
 11
5.0
 21
0.0
 31
0.0
1001
AME_SOL
1070
     1
1071
       43
  0
LINE
  8
0
 62
     7
  5
71
 10
1.0
 20
1.0
 30
0.0
 11
1.0
 21
1.0
 31
1.0
1001
AME_SOL
1070
     1
1071
       42
  0
LINE
  8
0
 62
     7
  5
72
 10
1.0
 20
1.0
 30
1.0
 11
0.0
 21
1.0
 31
1.0
1001
AME_SOL
1070
     1
1071
       41
  0
LINE
  8
0
 62
     7
  5
73
 10
2.0
 20
1.0
 30
2.0
 11
3.0
 21
1.0
 31
2.0
1001
AME_SOL
1070
     1
1071
       40
  0
LINE
  8
0
 62
     7
  5
74
 10
1.0
 20
1.0
 30
0.0
 11
5.0
 21
1.0
 31
0.0
1001
AME_SOL
1070
     1
1071
       39
  0
LINE
  8
0
 62
     7
  5
75
 10
2.0
 20
1.0
 30
3.0
 11
2.0
 21
1.0
 31
2.0
1001
AME_SOL
1070
     1
1071
       38
  0
LINE
  8
0
 62
     7
  5
76
 10
0.0
 20
1.0
 30
5.0
 11
0.0
 21
1.0
 31
1.0
1001
AME_SOL
1070
     1
1071
       37
  0
LINE
  8
0
 62
     7
  5
77
 10
3.0
 20
1.0
 30
2.0
 11
3.0
 21
1.0
 31
3.0
1001
AME_SOL
1070
     1
1071
       36
  0
LINE
  8
0
 62
     7
  5
78
 10
3.0
 20
1.0
 30
3.0
 11
2.0
 21
1.0
 31
3.0
1001
AME_SOL
1070
     1
1071
       35
  0
LINE
  8
0
 62
     7
  5
79
 10
5.0
 20
1.0
 30
0.0
 11
5.0
 21
1.0
 31
4.0
1001
AME_SOL
1070
     1
1071
       34
  0
LINE
  8
0
 62
     7
  5
7A
 10
0.0
 20
0.0
 30
5.0
 11
0.0
 21
1.0
 31
5.0
1001
AME_SOL
1070
     1
1071
       33
  0
LINE
  8
0
 62
     7
  5
7B
 10
0.0
 20
1.0
 30
5.0
 11
4.0
 21
1.0
 31
5.0
1001
AME_SOL
1070
     1
1071
       32
  0
LINE
  8
0
 62
     7
  5
7C
 10
5.0
 20
2.0
 30
5.0
 11
5.0
 21
0.0
 31
5.0
1001
AME_SOL
1070
     1
1071
       31
  0
LINE
  8
0
 62
     7
  5
7D
 10
5.0
 20
0.0
 30
0.0
 11
0.0
 21
0.0
 31
0.0
1001
AME_SOL
1070
     1
1071
       30
  0
LINE
  8
0
 62
     7
  5
7E
 10
0.0
 20
0.0
 30
0.0
 11
0.0
 21
0.0
 31
5.0
1001
AME_SOL
1070
     1
1071
       29
  0
LINE
  8
0
 62
     7
  5
7F
 10
5.0
 20
0.0
 30
5.0
 11
5.0
 21
0.0
 31
0.0
1001
AME_SOL
1070
     1
1071
       28
  0
LINE
  8
0
 62
     7
  5
80
 10
0.0
 20
0.0
 30
5.0
 11
5.0
 21
0.0
 31
5.0
1001
AME_SOL
1070
     1
1071
       27
  0
LINE
  8
0
 62
     7
  5
81
 10
5.0
 20
2.0
 30
4.0
 11
5.0
 21
2.0
 31
5.0
1001
AME_SOL
1070
     1
1071
       26
  0
LINE
  8
0
 62
     7
  5
82
 10
5.0
 20
2.0
 30
5.0
 11
4.0
 21
2.0
 31
5.0
1001
AME_SOL
1070
     1
1071
       25
  0
LINE
  8
0
 62
     7
  5
83
 10
4.0
 20
1.0
 30
4.0
 11
4.0
 21
1.0
 31
5.0
1001
AME_SOL
1070
     1
1071
       24
  0
LINE
  8
0
 62
     7
  5
84
 10
4.0
 20
2.0
 30
4.0
 11
4.0
 21
2.0
 31
5.0
1001
AME_SOL
1070
     1
1071
       23
  0
LINE
  8
0
 62
     7
  5
85
 10
4.0
 20
2.0
 30
5.0
 11
4.0
 21
1.0
 31
5.0
1001
AME_SOL
1070
     1
1071
       22
  0
LINE
  8
0
 62
     7
  5
86
 10
5.0
 20
1.0
 30
4.0
 11
4.0
 21
1.0
 31
4.0
1001
AME_SOL
1070
     1
1071
       21
  0
LINE
  8
0
 62
     7
  5
87
 10
5.0
 20
1.0
 30
4.0
 11
5.0
 21
2.0
 31
4.0
1001
AME_SOL
1070
     1
1071
       20
  0
LINE
  8
0
 62
     7
  5
88
 10
5.0
 20
2.0
 30
4.0
 11
4.0
 21
2.0
 31
4.0
1001
AME_SOL
1070
     1
1071
       19
  0
LINE
  8
0
 62
     7
  5
89
 10
4.0
 20
2.0
 30
4.0
 11
4.0
 21
1.0
 31
4.0
1001
AME_SOL
1070
     1
1071
       18
  0
ENDBLK
  8
0
  5
8A
  0
BLOCK
  8
0
  5
8E
  2
AME_MAT
 70
    64
 10
0.0
 20
0.0
 30
0.0
  1
AME_MAT
  3
AME_MAT
  0
ENDBLK
  8
0
  5
8F
  0
BLOCK
  8
0
  5
91
  2
*U8
 70
    65
 10
0.0
 20
0.0
 30
0.0
  1
*U
  3
*U
  0
POLYLINE
  8
0
 62
     7
  5
92
 66
     1
 10
0.0
 20
0.0
 30
0.0
 70
    64
  0
VERTEX
  8
0
  5
93
 10
1.0
 20
1.0
 30
0.0
 70
   192
  0
VERTEX
  8
0
  5
94
 10
1.0
 20
4.0
 30
0.0
 70
   192
  0
VERTEX
  8
0
  5
95
 10
1.0
 20
1.0
 30
1.0
 70
   192
  0
VERTEX
  8
0
  5
96
 10
1.0
 20
4.0
 30
1.0
 70
   192
  0
VERTEX
  8
0
 62
     7
  5
97
 10
0.0
 20
0.0
 30
0.0
 70
   128
 71
     1
 72
    -2
 73
     3
  0
VERTEX
  8
0
 62
     7
  5
98
 10
0.0
 20
0.0
 30
0.0
 70
   128
 71
     2
 72
     4
 73
    -3
  0
SEQEND
  8
0
 62
     7
  5
99
  0
POLYLINE
  8
0
 62
     7
  5
9A
 66
     1
 10
0.0
 20
0.0
 30
0.0
 70
    64
  0
VERTEX
  8
0
  5
9B
 10
0.0
 20
4.0
 30
0.0
 70
   192
  0
VERTEX
  8
0
  5
9C
 10
1.0
 20
4.0
 30
1.0
 70
   192
  0
VERTEX
  8
0
  5
9D
 10
1.0
 20
4.0
 30
0.0
 70
   192
  0
VERTEX
  8
0
  5
9E
 10
0.0
 20
4.0
 30
1.0
 70
   192
  0
VERTEX
  8
0
 62
     7
  5
9F
 10
0.0
 20
0.0
 30
0.0
 70
   128
 71
    -1
 72
     2
 73
     3
  0
VERTEX
  8
0
 62
     7
  5
A0
 10
0.0
 20
0.0
 30
0.0
 70
   128
 71
     1
 72
     4
 73
    -2
  0
SEQEND
  8
0
 62
     7
  5
A1
  0
POLYLINE
  8
0
 62
     7
  5
A2
 66
     1
 10
0.0
 20
0.0
 30
0.0
 70
    64
  0
VERTEX
  8
0
  5
A3
 10
1.0
 20
4.0
 30
1.0
 70
   192
  0
VERTEX
  8
0
  5
A4
 10
0.0
 20
4.0
 30
1.0
 70
   192
  0
VERTEX
  8
0
  5
A5
 10
0.0
 20
1.0
 30
1.0
 70
   192
  0
VERTEX
  8
0
  5
A6
 10
1.0
 20
1.0
 30
1.0
 70
   192
  0
VERTEX
  8
0
 62
     7
  5
A7
 10
0.0
 20
0.0
 30
0.0
 70
   128
 71
     1
 72
     2
 73
    -3
  0
VERTEX
  8
0
 62
     7
  5
A8
 10
0.0
 20
0.0
 30
0.0
 70
   128
 71
     3
 72
     4
 73
    -1
  0
SEQEND
  8
0
 62
     7
  5
A9
  0
POLYLINE
  8
0
 62
     7
  5
AA
 66
     1
 10
0.0
 20
0.0
 30
0.0
 70
    64
  0
VERTEX
  8
0
  5
AB
 10
0.0
 20
1.0
 30
1.0
 70
   192
  0
VERTEX
  8
0
  5
AC
 10
0.0
 20
4.0
 30
0.0
 70
   192
  0
VERTEX
  8
0
  5
AD
 10
0.0
 20
0.0
 30
0.0
 70
   192
  0
VERTEX
  8
0
  5
AE
 10
0.0
 20
0.0
 30
5.0
 70
   192
  0
VERTEX
  8
0
  5
AF
 10
0.0
 20
4.0
 30
1.0
 70
   192
  0
VERTEX
  8
0
  5
B0
 10
0.0
 20
1.0
 30
5.0
 70
   192
  0
VERTEX
  8
0
 62
     7
  5
B1
 10
0.0
 20
0.0
 30
0.0
 70
   128
 71
    -1
 72
     2
 73
    -3
  0
VERTEX
  8
0
 62
     7
  5
B2
 10
0.0
 20
0.0
 30
0.0
 70
   128
 71
     3
 72
    -4
 73
    -1
  0
VERTEX
  8
0
 62
     7
  5
B3
 10
0.0
 20
0.0
 30
0.0
 70
   128
 71
     1
 72
     5
 73
    -2
  0
VERTEX
  8
0
 62
     7
  5
B4
 10
0.0
 20
0.0
 30
0.0
 70
   128
 71
     4
 72
     6
 73
    -1
  0
SEQEND
  8
0
 62
     7
  5
B5
  0
POLYLINE
  8
0
 62
     7
  5
B6
 66
     1
 10
0.0
 20
0.0
 30
0.0
 70
    64
  0
VERTEX
  8
0
  5
B7
 10
0.0
 20
4.0
 30
0.0
 70
   192
  0
VERTEX
  8
0
  5
B8
 10
1.0
 20
4.0
 30
0.0
 70
   192
  0
VERTEX
  8
0
  5
B9
 10
1.0
 20
1.0
 30
0.0
 70
   192
  0
VERTEX
  8
0
  5
BA
 10
0.0
 20
0.0
 30
0.0
 70
   192
  0
VERTEX
  8
0
  5
BB
 10
5.0
 20
0.0
 30
0.0
 70
   192
  0
VERTEX
  8
0
  5
BC
 10
5.0
 20
1.0
 30
0.0
 70
   192
  0
VERTEX
  8
0
 62
     7
  5
BD
 10
0.0
 20
0.0
 30
0.0
 70
   128
 71
     1
 72
     2
 73
    -3
  0
VERTEX
  8
0
 62
     7
  5
BE
 10
0.0
 20
0.0
 30
0.0
 70
   128
 71
    -3
 72
     4
 73
    -1
  0
VERTEX
  8
0
 62
     7
  5
BF
 10
0.0
 20
0.0
 30
0.0
 70
   128
 71
    -3
 72
     5
 73
    -4
  0
VERTEX
  8
0
 62
     7
  5
C0
 10
0.0
 20
0.0
 30
0.0
 70
   128
 71
     3
 72
     6
 73
    -5
  0
SEQEND
  8
0
 62
     7
  5
C1
  0
POLYLINE
  8
0
 62
     7
  5
C2
 66
     1
 10
0.0
 20
0.0
 30
0.0
 70
    64
  0
VERTEX
  8
0
  5
C3
 10
3.0
 20
1.0
 30
2.0
 70
   192
  0
VERTEX
  8
0
  5
C4
 10
3.0
 20
3.0
 30
2.0
 70
   192
  0
VERTEX
  8
0
  5
C5
 10
3.0
 20
1.0
 30
3.0
 70
   192
  0
VERTEX
  8
0
  5
C6
 10
3.0
 20
3.0
 30
3.0
 70
   192
  0
VERTEX
  8
0
 62
     7
  5
C7
 10
0.0
 20
0.0
 30
0.0
 70
   128
 71
     1
 72
    -2
 73
     3
  0
VERTEX
  8
0
 62
     7
  5
C8
 10
0.0
 20
0.0
 30
0.0
 70
   128
 71
     2
 72
     4
 73
    -3
  0
SEQEND
  8
0
 62
     7
  5
C9
  0
POLYLINE
  8
0
 62
     7
  5
CA
 66
     1
 10
0.0
 20
0.0
 30
0.0
 70
    64
  0
VERTEX
  8
0
  5
CB
 10
2.0
 20
3.0
 30
2.0
 70
   192
  0
VERTEX
  8
0
  5
CC
 10
3.0
 20
3.0
 30
3.0
 70
   192
  0
VERTEX
  8
0
  5
CD
 10
3.0
 20
3.0
 30
2.0
 70
   192
  0
VERTEX
  8
0
  5
CE
 10
2.0
 20
3.0
 30
3.0
 70
   192
  0
VERTEX
  8
0
 62
     7
  5
CF
 10
0.0
 20
0.0
 30
0.0
 70
   128
 71
    -1
 72
     2
 73
     3
  0
VERTEX
  8
0
 62
     7
  5
D0
 10
0.0
 20
0.0
 30
0.0
 70
   128
 71
     1
 72
     4
 73
    -2
  0
SEQEND
  8
0
 62
     7
  5
D1
  0
POLYLINE
  8
0
 62
     7
  5
D2
 66
     1
 10
0.0
 20
0.0
 30
0.0
 70
    64
  0
VERTEX
  8
0
  5
D3
 10
3.0
 20
3.0
 30
3.0
 70
   192
  0
VERTEX
  8
0
  5
D4
 10
2.0
 20
3.0
 30
3.0
 70
   192
  0
VERTEX
  8
0
  5
D5
 10
2.0
 20
1.0
 30
3.0
 70
   192
  0
VERTEX
  8
0
  5
D6
 10
3.0
 20
1.0
 30
3.0
 70
   192
  0
VERTEX
  8
0
 62
     7
  5
D7
 10
0.0
 20
0.0
 30
0.0
 70
   128
 71
     1
 72
     2
 73
    -3
  0
VERTEX
  8
0
 62
     7
  5
D8
 10
0.0
 20
0.0
 30
0.0
 70
   128
 71
     3
 72
     4
 73
    -1
  0
SEQEND
  8
0
 62
     7
  5
D9
  0
POLYLINE
  8
0
 62
     7
  5
DA
 66
     1
 10
0.0
 20
0.0
 30
0.0
 70
    64
  0
VERTEX
  8
0
  5
DB
 10
2.0
 20
1.0
 30
3.0
 70
   192
  0
VERTEX
  8
0
  5
DC
 10
2.0
 20
3.0
 30
3.0
 70
   192
  0
VERTEX
  8
0
  5
DD
 10
2.0
 20
3.0
 30
2.0
 70
   192
  0
VERTEX
  8
0
  5
DE
 10
2.0
 20
1.0
 30
2.0
 70
   192
  0
VERTEX
  8
0
 62
     7
  5
DF
 10
0.0
 20
0.0
 30
0.0
 70
   128
 71
     1
 72
     2
 73
    -3
  0
VERTEX
  8
0
 62
     7
  5
E0
 10
0.0
 20
0.0
 30
0.0
 70
   128
 71
     3
 72
     4
 73
    -1
  0
SEQEND
  8
0
 62
     7
  5
E1
  0
POLYLINE
  8
0
 62
     7
  5
E2
 66
     1
 10
0.0
 20
0.0
 30
0.0
 70
    64
  0
VERTEX
  8
0
  5
E3
 10
3.0
 20
3.0
 30
2.0
 70
   192
  0
VERTEX
  8
0
  5
E4
 10
3.0
 20
1.0
 30
2.0
 70
   192
  0
VERTEX
  8
0
  5
E5
 10
2.0
 20
3.0
 30
2.0
 70
   192
  0
VERTEX
  8
0
  5
E6
 10
2.0
 20
1.0
 30
2.0
 70
   192
  0
VERTEX
  8
0
 62
     7
  5
E7
 10
0.0
 20
0.0
 30
0.0
 70
   128
 71
     1
 72
    -2
 73
     3
  0
VERTEX
  8
0
 62
     7
  5
E8
 10
0.0
 20
0.0
 30
0.0
 70
   128
 71
     2
 72
     4
 73
    -3
  0
SEQEND
  8
0
 62
     7
  5
E9
  0
POLYLINE
  8
0
 62
     7
  5
EA
 66
     1
 10
0.0
 20
0.0
 30
0.0
 70
    64
  0
VERTEX
  8
0
  5
EB
 10
5.0
 20
2.0
 30
5.0
 70
   192
  0
VERTEX
  8
0
  5
EC
 10
5.0
 20
0.0
 30
5.0
 70
   192
  0
VERTEX
  8
0
  5
ED
 10
5.0
 20
1.0
 30
4.0
 70
   192
  0
VERTEX
  8
0
  5
EE
 10
5.0
 20
0.0
 30
0.0
 70
   192
  0
VERTEX
  8
0
  5
EF
 10
5.0
 20
2.0
 30
4.0
 70
   192
  0
VERTEX
  8
0
  5
F0
 10
5.0
 20
1.0
 30
0.0
 70
   192
  0
VERTEX
  8
0
 62
     7
  5
F1
 10
0.0
 20
0.0
 30
0.0
 70
   128
 71
     1
 72
    -2
 73
    -3
  0
VERTEX
  8
0
 62
     7
  5
F2
 10
0.0
 20
0.0
 30
0.0
 70
   128
 71
     2
 72
    -4
 73
    -3
  0
VERTEX
  8
0
 62
     7
  5
F3
 10
0.0
 20
0.0
 30
0.0
 70
   128
 71
     3
 72
     5
 73
    -1
  0
VERTEX
  8
0
 62
     7
  5
F4
 10
0.0
 20
0.0
 30
0.0
 70
   128
 71
     4
 72
     6
 73
    -3
  0
SEQEND
  8
0
 62
     7
  5
F5
  0
POLYLINE
  8
0
 62
     7
  5
F6
 66
     1
 10
0.0
 20
0.0
 30
0.0
 70
    64
  0
VERTEX
  8
0
  5
F7
 10
2.0
 20
1.0
 30
3.0
 70
   192
  0
VERTEX
  8
0
  5
F8
 10
1.0
 20
1.0
 30
0.0
 70
   192
  0
VERTEX
  8
0
  5
F9
 10
1.0
 20
1.0
 30
1.0
 70
   192
  0
VERTEX
  8
0
  5
FA
 10
0.0
 20
1.0
 30
5.0
 70
   192
  0
VERTEX
  8
0
  5
FB
 10
4.0
 20
1.0
 30
4.0
 70
   192
  0
VERTEX
  8
0
  5
FC
 10
2.0
 20
1.0
 30
2.0
 70
   192
  0
VERTEX
  8
0
  5
FD
 10
3.0
 20
1.0
 30
2.0
 70
   192
  0
VERTEX
  8
0
  5
FE
 10
5.0
 20
1.0
 30
4.0
 70
   192
  0
VERTEX
  8
0
  5
FF
 10
4.0
 20
1.0
 30
5.0
 70
   192
  0
VERTEX
  8
0
  5
100
 10
0.0
 20
1.0
 30
1.0
 70
   192
  0
VERTEX
  8
0
  5
101
 10
5.0
 20
1.0
 30
0.0
 70
   192
  0
VERTEX
  8
0
  5
102
 10
3.0
 20
1.0
 30
3.0
 70
   192
  0
VERTEX
  8
0
 62
     7
  5
103
 10
0.0
 20
0.0
 30
0.0
 70
   128
 71
    -1
 72
     2
 73
    -3
  0
VERTEX
  8
0
 62
     7
  5
104
 10
0.0
 20
0.0
 30
0.0
 70
   128
 71
    -3
 72
    -4
 73
    -1
  0
VERTEX
  8
0
 62
     7
  5
105
 10
0.0
 20
0.0
 30
0.0
 70
   128
 71
    -4
 72
    -5
 73
    -1
  0
VERTEX
  8
0
 62
     7
  5
106
 10
0.0
 20
0.0
 30
0.0
 70
   128
 71
     1
 72
    -6
 73
    -2
  0
VERTEX
  8
0
 62
     7
  5
107
 10
0.0
 20
0.0
 30
0.0
 70
   128
 71
     6
 72
    -7
 73
    -2
  0
VERTEX
  8
0
 62
     7
  5
108
 10
0.0
 20
0.0
 30
0.0
 70
   128
 71
     5
 72
    -8
 73
    -1
  0
VERTEX
  8
0
 62
     7
  5
109
 10
0.0
 20
0.0
 30
0.0
 70
   128
 71
     4
 72
     9
 73
    -5
  0
VERTEX
  8
0
 62
     7
  5
10A
 10
0.0
 20
0.0
 30
0.0
 70
   128
 71
     3
 72
    10
 73
    -4
  0
VERTEX
  8
0
 62
     7
  5
10B
 10
0.0
 20
0.0
 30
0.0
 70
   128
 71
    -7
 72
    11
 73
    -2
  0
VERTEX
  8
0
 62
     7
  5
10C
 10
0.0
 20
0.0
 30
0.0
 70
   128
 71
    -7
 72
     8
 73
   -11
  0
VERTEX
  8
0
 62
     7
  5
10D
 10
0.0
 20
0.0
 30
0.0
 70
   128
 71
     7
 72
   -12
 73
    -8
  0
VERTEX
  8
0
 62
     7
  5
10E
 10
0.0
 20
0.0
 30
0.0
 70
   128
 71
    -8
 72
    12
 73
    -1
  0
SEQEND
  8
0
 62
     7
  5
10F
  0
POLYLINE
  8
0
 62
     7
  5
110
 66
     1
 10
0.0
 20
0.0
 30
0.0
 70
    64
  0
VERTEX
  8
0
  5
111
 10
0.0
 20
1.0
 30
5.0
 70
   192
  0
VERTEX
  8
0
  5
112
 10
0.0
 20
0.0
 30
5.0
 70
   192
  0
VERTEX
  8
0
  5
113
 10
5.0
 20
0.0
 30
5.0
 70
   192
  0
VERTEX
  8
0
  5
114
 10
4.0
 20
1.0
 30
5.0
 70
   192
  0
VERTEX
  8
0
  5
115
 10
4.0
 20
2.0
 30
5.0
 70
   192
  0
VERTEX
  8
0
  5
116
 10
5.0
 20
2.0
 30
5.0
 70
   192
  0
VERTEX
  8
0
 62
     7
  5
117
 10
0.0
 20
0.0
 30
0.0
 70
   128
 71
     1
 72
     2
 73
    -3
  0
VERTEX
  8
0
 62
     7
  5
118
 10
0.0
 20
0.0
 30
0.0
 70
   128
 71
    -3
 72
     4
 73
    -1
  0
VERTEX
  8
0
 62
     7
  5
119
 10
0.0
 20
0.0
 30
0.0
 70
   128
 71
    -3
 72
     5
 73
    -4
  0
VERTEX
  8
0
 62
     7
  5
11A
 10
0.0
 20
0.0
 30
0.0
 70
   128
 71
     3
 72
     6
 73
    -5
  0
SEQEND
  8
0
 62
     7
  5
11B
  0
POLYLINE
  8
0
 62
     7
  5
11C
 66
     1
 10
0.0
 20
0.0
 30
0.0
 70
    64
  0
VERTEX
  8
0
  5
11D
 10
0.0
 20
0.0
 30
5.0
 70
   192
  0
VERTEX
  8
0
  5
11E
 10
0.0
 20
0.0
 30
0.0
 70
   192
  0
VERTEX
  8
0
  5
11F
 10
5.0
 20
0.0
 30
5.0
 70
   192
  0
VERTEX
  8
0
  5
120
 10
5.0
 20
0.0
 30
0.0
 70
   192
  0
VERTEX
  8
0
 62
     7
  5
121
 10
0.0
 20
0.0
 30
0.0
 70
   128
 71
     1
 72
    -2
 73
     3
  0
VERTEX
  8
0
 62
     7
  5
122
 10
0.0
 20
0.0
 30
0.0
 70
   128
 71
     2
 72
     4
 73
    -3
  0
SEQEND
  8
0
 62
     7
  5
123
  0
POLYLINE
  8
0
 62
     7
  5
124
 66
     1
 10
0.0
 20
0.0
 30
0.0
 70
    64
  0
VERTEX
  8
0
  5
125
 10
4.0
 20
2.0
 30
4.0
 70
   192
  0
VERTEX
  8
0
  5
126
 10
5.0
 20
2.0
 30
5.0
 70
   192
  0
VERTEX
  8
0
  5
127
 10
5.0
 20
2.0
 30
4.0
 70
   192
  0
VERTEX
  8
0
  5
128
 10
4.0
 20
2.0
 30
5.0
 70
   192
  0
VERTEX
  8
0
 62
     7
  5
129
 10
0.0
 20
0.0
 30
0.0
 70
   128
 71
    -1
 72
     2
 73
     3
  0
VERTEX
  8
0
 62
     7
  5
12A
 10
0.0
 20
0.0
 30
0.0
 70
   128
 71
     1
 72
     4
 73
    -2
  0
SEQEND
  8
0
 62
     7
  5
12B
  0
POLYLINE
  8
0
 62
     7
  5
12C
 66
     1
 10
0.0
 20
0.0
 30
0.0
 70
    64
  0
VERTEX
  8
0
  5
12D
 10
4.0
 20
2.0
 30
4.0
 70
   192
  0
VERTEX
  8
0
  5
12E
 10
4.0
 20
1.0
 30
4.0
 70
   192
  0
VERTEX
  8
0
  5
12F
 10
4.0
 20
1.0
 30
5.0
 70
   192
  0
VERTEX
  8
0
  5
130
 10
4.0
 20
2.0
 30
5.0
 70
   192
  0
VERTEX
  8
0
 62
     7
  5
131
 10
0.0
 20
0.0
 30
0.0
 70
   128
 71
     1
 72
     2
 73
    -3
  0
VERTEX
  8
0
 62
     7
  5
132
 10
0.0
 20
0.0
 30
0.0
 70
   128
 71
     3
 72
     4
 73
    -1
  0
SEQEND
  8
0
 62
     7
  5
133
  0
POLYLINE
  8
0
 62
     7
  5
134
 66
     1
 10
0.0
 20
0.0
 30
0.0
 70
    64
  0
VERTEX
  8
0
  5
135
 10
4.0
 20
2.0
 30
4.0
 70
   192
  0
VERTEX
  8
0
  5
136
 10
5.0
 20
2.0
 30
4.0
 70
   192
  0
VERTEX
  8
0
  5
137
 10
5.0
 20
1.0
 30
4.0
 70
   192
  0
VERTEX
  8
0
  5
138
 10
4.0
 20
1.0
 30
4.0
 70
   192
  0
VERTEX
  8
0
 62
     7
  5
139
 10
0.0
 20
0.0
 30
0.0
 70
   128
 71
     1
 72
     2
 73
    -3
  0
VERTEX
  8
0
 62
     7
  5
13A
 10
0.0
 20
0.0
 30
0.0
 70
   128
 71
     3
 72
     4
 73
    -1
  0
SEQEND
  8
0
 62
     7
  5
13B
  0
ENDBLK
  8
0
  5
13C
  0
ENDSEC
  0
SECTION
  2
ENTITIES
  0
INSERT
  8
AME_FRZ
  5
3
  2
AME_NIL
 10
0.0
 20
0.0
 30
0.0
  0
INSERT
  8
AME_FRZ
  5
6
  2
AME_SOL
 10
0.0
 20
0.0
 30
0.0
1001
AME_SOL
1000
1.0
1000
sq cm
1070
     3
1070
     0
1070
     3
1000
wire
1040
0.0
1000
NONE
1040
1.0
1000
cm
1000
gm
1000
MILD_STEEL
1070
    25
1000
CSG
1070
     3
1070
     2
1070
     3
1000
cu cm
1070
     4
1070
     0
1005
3
  0
INSERT
  8
AME_FRZ
  5
26
  2
*U2
 10
0.0
 20
0.0
 30
0.0
1001
AME_SOL
1002
{
1070
     0
1071
  1985184
1070
  1536
1010
5.0
1020
1.0
1030
5.0
1005
0
1005
0
1005
5D
1040
0.0
1040
1.0
1000
MILD_STEEL
1000
0
1010
0.0
1020
0.0
1030
0.0
1010
0.0
1020
0.0
1030
1.0
1040
0.0
1002
}
  0
INSERT
  8
AME_FRZ
  5
37
  2
*U3
 10
0.0
 20
1.0
 30
0.0
1001
AME_SOL
1002
{
1070
     0
1071
  1998752
1070
  1536
1010
1.0
1020
3.0
1030
1.0
1005
0
1005
0
1005
5C
1040
0.0
1040
1.0
1000
MILD_STEEL
1000
0
1010
0.0
1020
1.0
1030
0.0
1010
0.0
1020
0.0
1030
1.0
1040
0.0
1002
}
  0
INSERT
  8
AME_FRZ
  5
48
  2
*U4
 10
2.0
 20
1.0
 30
2.0
1001
AME_SOL
1002
{
1070
     0
1071
  1932336
1070
  1536
1010
1.0
1020
2.0
1030
1.0
1005
0
1005
0
1005
5C
1040
0.0
1040
1.0
1000
MILD_STEEL
1000
0
1010
2.0
1020
1.0
1030
2.0
1010
0.0
1020
0.0
1030
1.0
1040
0.0
1002
}
  0
INSERT
  8
AME_FRZ
  5
59
  2
*U5
 10
4.0
 20
1.0
 30
4.0
1001
AME_SOL
1002
{
1070
     0
1071
  1944136
1070
  1536
1010
1.0
1020
1.0
1030
1.0
1005
0
1005
0
1005
5D
1040
0.0
1040
1.0
1000
MILD_STEEL
1000
0
1010
4.0
1020
1.0
1030
4.0
1010
0.0
1020
0.0
1030
1.0
1040
0.0
1002
}
  0
INSERT
  8
AME_FRZ
  5
5C
  2
AME_NIL
 10
0.0
 20
0.0
 30
0.0
1001
AME_SOL
1002
{
1070
     0
1071
  1961424
1070
   775
1070
     2
1005
37
1005
48
1005
0
1005
0
1005
8B
1040
0.0
1040
1.0
1000
MILD_STEEL
1000
0
1010
0.0
1020
0.0
1030
0.0
1010
0.0
1020
0.0
1030
1.0
1040
0.0
1002
}
  0
INSERT
  8
AME_FRZ
  5
5D
  2
AME_NIL
 10
0.0
 20
0.0
 30
0.0
1001
AME_SOL
1002
{
1070
     0
1071
  1974456
1070
   775
1070
     2
1005
26
1005
59
1005
0
1005
0
1005
8B
1040
0.0
1040
1.0
1000
MILD_STEEL
1000
0
1010
0.0
1020
0.0
1030
0.0
1010
0.0
1020
0.0
1030
1.0
1040
0.0
1002
}
  0
INSERT
  8
0
  5
8B
  2
*U8
 10
0.0
 20
0.0
 30
0.0
1001
AME_SOL
1002
{
1070
     0
1071
  2016472
1070
  9223
1070
     2
1005
5C
1005
5D
1005
13D
1005
8C
1005
0
1040
94.0
1040
1.0
1000
MILD_STEEL
1000
0
1002
}
  0
INSERT
  8
AME_FRZ
  5
8C
  2
AME_NIL
 10
1.0
 20
1.0
 30
1.0
1001
AME_SOL
1004
E903A9FB0100F0FFFFFF000052F7110001000000958664BA958664BA958664BA2507A040000580402507A04001000000FBF2040000F67F4000D87F3F00F67F400005A040000A0040000580400100844ED0751D0001000000010032010000844E0000000000000000803F000000000000803F000000000000
1004
0000000080400000803F0000804005000000000000000000000000000000000000000000844E0000000000000000803F000000000000803F0000000000000000000080400000803F0000804005000000000000000000000000000000000001000000FBF2040000F67F4000D87F3F00F67F4000058040000A
1004
00400005A0400100844EC0761D0001000000010030010000844E000000000000000000000000803F000000000000803F00000000000080400000803F0000804005000000000000000000000000000000000000000000844E000000000000000000000000803F000000000000803F00000000000080400000
1004
803F0000804005000000000000000000000000000000000001000000FBF2040000F67F4000ECFF3F00F67F400005A040000A00400005A0400100844EB0771D000100000001002E010000844E00000000008000000080000080BF000080BF00000080000000800000A040000000400000A040050000000000
1004
00000000000000000000000000000000844E00000000008000000080000080BF000080BF00000080000000800000A040000000400000A04005000000000000000000000000000000000001000000FBF20400958664BA958664BA958664BA2507A0409586643A2507A0400100844EA0781D00010000000100
1004
95010000844E00000000803F000000000000000000000000000000000000803F00000000000000000000000005000000000000000000000000000000000000000000844E00000000803F000000000000000000000000000000000000803F0000000000000000000000000500000000000000000000000000
1004
0000000001000000FBF2060000F67F4000D87F3F00FB9F400005A040000A00400005A0400100844EF8961D000100000002002F010000844E0000000080BF000000800000008000000080000080BF000000800000A040000000400000A0400500000000000000000000000000000000000000000093010000
1004
844E0000000080BF000000800000008000000080000080BF000000800000A0400000803F0000A04005000000000000000000000000000000000000000000844E0000000080BF000000800000008000000080000080BF000000800000A0400000803F0000A040050000000000000000000000000000000000
1004
01000000FBF20C00958664BADEC67F3F958664BA2507A040911C803F2507A0400100844EE8971D0001000000010092010000844E00000000008000000080000080BF000080BF00000080000000800000A0400000803F0000A04005000000000000000000000000000000000000000000844E0000000080BF
1004
000000800000008000000000000000000000803F000000000000803F0000000005000000000000000000000000000000000001000000FBF2060000FB9F4000D87F3F00F67F400005A040000A00400005A0400100844E20CE1D000100000002002D010000844E000000000080000080BF0000008000000080
1004
00000080000080BF0000A040000000400000A0400500000000000000000000000000000000000000000091010000844E000000000080000080BF000000800000008000000080000080BF0000A0400000803F0000A04005000000000000000000000000000000000000000000844E000000000080000080BF
1004
000000800000008000000080000080BF0000A0400000803F0000A04005000000000000000000000000000000000001000000FBF2040000ECFF3F00D87F3F00ECFF3F000A4040000A4040000A00400100844EE0CB1D000100000001005E020000844E0000000000000000803F000000000000803F00000000
1004
00000000000000400000803F0000004005000000000000000000000000000000000000000000844E0000000000000000803F000000000000803F0000000000000000000000400000803F0000004005000000000000000000000000000000000001000000FBF2040000ECFF3F00D87F3F00ECFF3F000A0040
1004
000A4040000A40400100844EA8D11D000100000001005C020000844E000000000000000000000000803F000000000000803F00000000000000400000803F0000004005000000000000000000000000000000000000000000844E000000000000000000000000803F000000000000803F0000000000000040
1004
0000803F0000004005000000000000000000000000000000000001000000FBF2040000ECFF3F00D87F3F00F63F40000A4040000A4040000A40400100844E58D31D000100000001005B020000844E0000000080BF000000800000008000000080000080BF0000008000004040000040400000404005000000
1004
000000000000000000000000000000000000844E0000000080BF000000800000008000000080000080BF0000008000004040000040400000404005000000000000000000000000000000000001000000FBF2040000ECFF3F00F63F4000ECFF3F000A4040000A4040000A40400100844E98D51D0001000000
1004
01005A020000844E00000000008000000080000080BF000080BF000000800000008000004040000040400000404005000000000000000000000000000000000000000000844E00000000008000000080000080BF000080BF0000008000000080000040400000404000004040050000000000000000000000
1004
00000000000001000000FBF2040000F63F4000D87F3F00ECFF3F000A4040000A4040000A40400100844E70E71D0001000000010059020000844E000000000080000080BF000000800000008000000080000080BF00004040000040400000404005000000000000000000000000000000000000000000844E
1004
000000000080000080BF000000800000008000000080000080BF00004040000040400000404005000000000000000000000000000000000001000000FBF20600958664BA958664BA958664BA2507A040911C803F9586643A0100844EE0E61D0001000000020096010000844E0000000000000000803F0000
1004
00000000803F000000000000000000000000000000000000000005000000000000000000000000000000000000000000C2020000844E0000000000000000803F000000000000803F0000000000000000000000000000803F0000000005000000000000000000000000000000000000000000844E00000000
1004
00000000803F000000000000803F0000000000000000000000000000803F0000000005000000000000000000000000000000000001000000FBF20600958664BA958664BA958664BA9586643A911C803F2507A0400100844E50E61D0001000000020094010000844E000000000000000000000000803F0000
1004
00000000803F0000000000000000000000000000000005000000000000000000000000000000000000000000C0020000844E000000000000000000000000803F000000000000803F00000000000000000000803F0000000005000000000000000000000000000000000000000000844E0000000000000000
1004
00000000803F000000000000803F00000000000000000000803F0000000005000000000000000000000000000000000001000000FBF20400000020BA00D87F3F00D87F3F0014803F000580400014803F0100844EE8451E00010000000100BF020000844E0000000080BF0000008000000080000000800000
1004
80BF000000800000803F000080400000803F05000000000000000000000000000000000000000000844E0000000080BF000000800000008000000080000080BF000000800000803F000080400000803F05000000000000000000000000000000000001000000FBF20400000020BA00F67F40000020BA0014
1004
803F000580400014803F0100844E70501E00010000000100BE020000844E00000000008000000080000080BF000080BF00000080000000800000803F000080400000803F05000000000000000000000000000000000000000000844E00000000008000000080000080BF000080BF00000080000000800000
1004
803F000080400000803F05000000000000000000000000000000000001000000FBF2040000D87F3F00D87F3F000020BA0014803F000580400014803F0100844E40541E00010000000100BD020000844E000000000080000080BF000000800000008000000080000080BF0000803F000080400000803F0500
1004
0000000000000000000000000000000000000000844E000000000080000080BF000000800000008000000080000080BF0000803F000080400000803F05000000000000000000000000000000000001000000A4EE00F67F4000D87F3F00F67F4000058040000A004000058040000080BF0000000002009675
1004
A8561E000000FFFF0100D0751D00C0761D0000000200D0751D00C0761D00010000000100000096750000000080BF00000000000000000000000000000000000080BF000080400000803F000080400200000080BF00000000A4EE00F67F4000ECFF3F00F67F400005A040000A004000058040020000BFFAFF
1004
FF3E02009675E8561E000000FFFF0100D0751D00B0771D0000000200D0751D00B0771D00010000000100000096750000000000000000803F000000000000000000000000000080BF0000904000000040000080400200020000BFFAFFFF3EA4EEDCF89F4000D87F3F00F67F400005A040000A004000058040
1004
000000000000803F02009675C0591E000000FFFF0100D0751D0020CE1D0000000200D0751D0020CE1D000100000001000000967500000000803F00000000000000000000000000000000000080BF0000A0400000803F000080400200000000000000803FA4EE00F67F4000D87F3F00F67F400005A040911C
1004
803F00058040000040C0000000C00200967598611E0000000100FFFFD0751D00E8971D0000000200E8971D00D0751D00010000000100000096750000000000000000803F000000000000000000000000000080BF000000400000803F000080400200000040C0000000C0A4EE00F67F4000D87F3FDCF89F40
1004
00058040000A00400005A040000080BF000000000200967518671E000000FFFF0100C0761D00F8961D0000000200C0761D00F8961D0001000000010000009675000000000000000000000000803F000080BF0000000000000000000080400000803F0000A0400200000080BF00000000A4EE00F67F4000EC
1004
FF3F00F67F4000058040000A00400005A040FAFFFFBE0200003F0200967510691E000000FFFF0100C0761D00B0771D0000000200C0761D00B0771D00010000000100000096750000000000000000803F00000000000080BF00000000000000000000804000000040000090400200FAFFFFBE0200003FA4EE
1004
00F67F4000D87F3F00F67F4000058040911C803F0005A040000000400000404002009675387F1E0000000100FFFFC0761D00E8971D0000000200E8971D00C0761D00010000000100000096750000000000000000803F00000000000080BF0000000000000000000080400000803F00000040020000000040
1004
00004040A4EE00F67F4000ECFF3F00FB9F400005A040000A00400005A04000000000FFFF7F3F02009675D8801E000000FFFF0100B0771D00F8961D0000000200B0771D00F8961D0001000000010000009675000000000000000000000000803F000000000000803F000000800000A040000000400000A040
1004
020000000000FFFF7F3FA4EE00FB9F4000ECFF3F00F67F400005A040000A00400005A040FFFF7FBF000000800200967550721E000000FFFF0100B0771D0020CE1D0000000200B0771D0020CE1D000100000001000000967500000000803F0000000000000000000000000000803F000000000000A0400000
1004
00400000A0400200FFFF7FBF00000080A4EE958664BA958664BADCF89F402507A0409586643A2507A040000020C00000204002009675188F1E000000FFFF0100A0781D00F8961D0000000200A0781D00F8961D0001000000010000009675000000000000000000000000803F00000000000080BF00000000
1004
00002040000000000000A0400200000020C000002040A4EEDCF89F40958664BA958664BA2507A0409586643A2507A040000020C0000020400200967510971E000000FFFF0100A0781D0020CE1D0000000200A0781D0020CE1D000100000001000000967500000000803F0000000000000000000000000000
1004
80BF000000000000A04000000000000020400200000020C000002040A4EE958664BA958664BA958664BA9586643A9586643A2507A040000000000000A04002009675E0991E000000FFFF0100A0781D0050E61D0000000200A0781D0050E61D00010000000100000096750000000080BF0000000000000000
1004
00000000000080BF000000000000000000000000000000000200000000000000A040A4EE958664BA958664BA958664BA2507A0409586643A9586643A0000A0C00000008002009675B89A1E000000FFFF0100A0781D00E0E61D0000000200A0781D00E0E61D00010000000100000096750000000000000000
1004
0000000080BF00000000000080BF0000000000000000000000000000000002000000A0C000000080A4EEDCF89F40958664BADCF89F402507A040000A00402507A040000080BF0000803F0200967510A01E000000FFFF0100F8961D0020CE1D0000000200F8961D0020CE1D00010000000100000096750000
1004
0000803F000000000000000000000080000000000000803F0000A0400000803F0000A0400200000080BF0000803FA4EE958664BADEC67F3FDCF89F402507A040911C803F2507A040000020C00000C03F02009675289A1E000000FFFF0100F8961D00E8971D0000000200F8961D00E8971D00010000000100
1004
000096750000000000000000803F0000000000000000000000000000803F000020400000803F0000A0400200000020C00000C03FA4EE958664BA958664BADCF89F409586643A911C803F2507A040000080BF000000800200967548D21E000000FFFF0100F8961D0050E61D0000000200F8961D0050E61D00
1004
010000000100000096750000000080BF000000000000000000000000000000000000803F000000000000803F0000A0400200000080BF00000080A4EEDCF89F40DEC67F3F958664BA2507A040911C803F2507A040000020C00000C03F0200967548D01E000000FFFF0100E8971D0020CE1D0000000200E897
1004
1D0020CE1D000100000001000000967500000000803F0000000000000000000000000000803F000000000000A0400000803F000020400200000020C00000C03FA4EE00ECFF3F00D87F3F00F63F40000A4040911C803F000A40400000C0BFFFFFFFBE0200967520CE1E0000000100FFFFE8971D0058D31D00
1004
0000020058D31D00E8971D0001000000010000009675000000000000000000000000803F000000000000803F000000800000C03FFFFF7F3F0000404002000000C0BFFFFFFFBEA4EE00F63F4000D87F3F00ECFF3F000A4040911C803F000A4040FFFFFF3E0000C03F0200967598DA1E0000000100FFFFE897
1004
1D0070E71D000000020070E71D00E8971D000100000001000000967500000000803F0000000000000000000000000000803F0000000000004040FFFF7F3F0000C03F0200FFFFFF3E0000C03FA4EE958664BADEC67F3F958664BA9586643A911C803F2507A0400000A0C0000080BF0200967598A41E000000
1004
FFFF0100E8971D0050E61D0000000200E8971D0050E61D00010000000100000096750000000080BF0000000000000000000000000000803F00000000000000000000803F0000000002000000A0C0000080BFA4EE00ECFF3F00D87F3F00ECFF3F000A0040911C803F000A4040010000C0000080BF02009675
1004
D0881E0000000100FFFFE8971D00A8D11D0000000200A8D11D00E8971D00010000000100000096750000000080BF0000000000000000000000000000803F00000000000000400000803F0000803F0200010000C0000080BFA4EE958664BADEC67F3F958664BA2507A040911C803F9586643A0000803F0000
1004
A04002009675B8621E000000FFFF0100E8971D00E0E61D0000000200E8971D00E0E61D000100000001000000967500000000000000000000000080BF000000000000803F00000000000000000000803F0000000002000000803F0000A040A4EE00ECFF3F00D87F3F00ECFF3F000A4040911C803F000A0040
1004
0000803F010000400200967528501E0000000100FFFFE8971D00E0CB1D0000000200E0CB1D00E8971D000100000001000000967500000000000000000000000080BF000000000000803F000000000000803F0000803F0000004002000000803F01000040A4EE000020BA00D87F3F00D87F3F0014803F911C
1004
803F0014803F000000BF0000003F0200967578461E0000000100FFFFE8971D00E8451E0000000200E8451E00E8971D0001000000010000009675000000000000000000000000803F000000000000803F000000800000003F0000803F0000803F0200000000BF0000003FA4EE00D87F3F00D87F3F000020BA
1004
0014803F911C803F0014803F000000BF0000003F02009675B8D61D0000000100FFFFE8971D0040541E000000020040541E00E8971D000100000001000000967500000000803F0000000000000000000000000000803F000000000000803F0000803F0000003F0200000000BF0000003FA4EEDCF89F409586
1004
64BA958664BA2507A040911C803F9586643A000000000000803F0200967588D01D000000FFFF010020CE1D00E0E61D000000020020CE1D00E0E61D000100000001000000967500000000000000000000000080BF0000803F00000000000000000000A0400000803F000000000200000000000000803FA4EE
1004
00ECFF3F00F63F4000ECFF3F000A4040000A4040000A0040020000BFFFFFFF3E02009675E8921D000000FFFF0100E0CB1D0098D51D0000000200E0CB1D0098D51D00010000000100000096750000000000000000803F000000000000000000000000000080BF0000204000004040000000400200020000BF
1004
FFFFFF3EA4EE00F63F4000D87F3F00ECFF3F000A4040000A4040000A0040000080BF0100803F02009675D8931D000000FFFF0100E0CB1D0070E71D0000000200E0CB1D0070E71D000100000001000000967500000000803F00000000000000000000000000000000000080BF000040400000004000000040
1004
0200000080BF0100803FA4EE00ECFF3F00D87F3F00ECFF3F000A0040000A4040000A0040010000C00000000002009675C8941D000000FFFF0100E0CB1D00A8D11D0000000200E0CB1D00A8D11D00010000000100000096750000000080BF00000000000000000000000000000000000080BF000000400000
1004
803F000000400200010000C000000000A4EE00ECFF3F00D87F3F00F63F40000A0040000A4040000A4040010080BF0000803F02009675B8951D000000FFFF0100A8D11D0058D31D0000000200A8D11D0058D31D0001000000010000009675000000000000000000000000803F000080BF0000000000000000
1004
0000004000000040000040400200010080BF0000803FA4EE00ECFF3F00F63F4000ECFF3F000A0040000A4040000A4040FFFFFFBE0200003F02009675F85F1D000000FFFF0100A8D11D0098D51D0000000200A8D11D0098D51D00010000000100000096750000000000000000803F00000000000080BF0000
1004
0000000000000000004000004040000020400200FFFFFFBE0200003FA4EE00ECFF3F00F63F4000F63F40000A4040000A4040000A4040010080BF0000008002009675E8601D000000FFFF010058D31D0098D51D000000020058D31D0098D51D00010000000100000096750000000000000000803F00000000
1004
00000000000000000000803F0000404000004040000040400200010080BF00000080A4EE00F63F4000D87F3F00F63F40000A4040000A4040000A4040000000000100004002009675D8611D000000FFFF010058D31D0070E71D000000020058D31D0070E71D000100000001000000967500000000803F0000
1004
00000000000000000080000000000000803F00004040000040400000404002000000000001000040A4EE00F63F4000F63F4000ECFF3F000A4040000A4040000A4040010080BF0000008002009675C8621D000000FFFF010098D51D0070E71D000000020098D51D0070E71D00010000000100000096750000
1004
0000803F0000000000000000000000000000803F000000000000404000004040000040400200010080BF00000080A4EE958664BA958664BA958664BA9586643A000580409586643A000040C00000803F02009675B8631D000000FFFF0100E0E61D0050E61D0000000200E0E61D0050E61D00010000000100
1004
000096750000000080BF00000000000000000000000000000000000080BF000000000000803F000000000200000040C00000803FA4EE000020BA00F67F40000020BA0014803F000580400000203A000000BF0000003F02009675A8641D000000FFFF0100E0E61D0070501E0000000200E0E61D0070501E00
1004
010000000100000096750000000000000000803F000000000000000000000000000080BF0000003F00008040000000000200000000BF0000003FA4EE00D87F3F00D87F3F000020BA0014803F000580409586643A0000C0BF0000C03F0200967598651D000000FFFF0100E0E61D0040541E0000000200E0E6
1004
1D0040541E000100000001000000967500000000803F00000000000000000000000000000000000080BF0000803F000020400000000002000000C0BF0000C03FA4EE000020BA00D87F3F00D87F3F9586643A000580400014803F0000C0BF0000C03F0200967588661D000000FFFF010050E61D00E8451E00
1004
0000020050E61D00E8451E0001000000010000009675000000000000000000000000803F000080BF000000000000000000000000000020400000803F02000000C0BF0000C03FA4EE000020BA00F67F40000020BA0000203A000580400014803F000000BF0000003F0200967578671D000000FFFF010050E6
1004
1D0070501E000000020050E61D0070501E00010000000100000096750000000000000000803F00000000000080BF000000000000000000000000000080400000003F0200000000BF0000003FA4EE000020BA00F67F4000D87F3F0014803F000580400014803F000080BF000000800200967568681D000000
1004
FFFF0100E8451E0070501E0000000200E8451E0070501E00010000000100000096750000000000000000803F0000000000000000000000000000803F0000803F000080400000803F0200000080BF00000080A4EE00D87F3F00D87F3F00D87F3F0014803F000580400014803F000000000000404002009675
1004
900D1F000000FFFF0100E8451E0040541E0000000200E8451E0040541E000100000001000000967500000000803F000000000000000000000080000000000000803F0000803F000080400000803F02000000000000004040A4EE00D87F3F00F67F40000020BA0014803F000580400014803F000080BF0000
1004
008002009675800E1F000000FFFF010070501E0040541E000000020070501E0040541E000100000001000000967500000000803F0000000000000000000000000000803F000000000000803F000080400000803F0200000080BF0000008019FC
1005
8D
  0
INSERT
  8
AME_FRZ
  5
8D
  2
AME_NIL
 10
1.0
 20
1.0
 30
1.0
1001
AME_SOL
1004

1005
0
  0
INSERT
  8
AME_FRZ
  5
13D
  2
*U6
 10
0.0
 20
0.0
 30
0.0
  0
INSERT
  8
AME_FRZ
  5
13E
  2
AME_MAT
 10
0.0
 20
0.0
 30
0.0
1001
AME_SOL
1000
MILD_STEEL
1040
7860.0
1040
220.0
1040
0.275
1040
207.0
1040
345.0
1040
56.0
1040
12.0
1040
0.46
  0
ENDSEC
  0
EOF
