105 787 1 0                             
body $-1 $1 $-1 $-1 #
lump $-1 $-1 $2 $0 #
shell $-1 $-1 $-1 $3 $1 #
face $-1 $4 $5 $2 $-1 $6 reversed single #
face $-1 $7 $8 $2 $-1 $9 reversed single #
loop $-1 $-1 $10 $3 #
plane-surface $-1 0 -172.244094488189 0 0 -1 0 0 0 -1 0 #
face $-1 $11 $12 $2 $-1 $13 reversed single #
loop $-1 $-1 $14 $4 #
plane-surface $-1 0 172.244094488189 0 0 1 0 0 0 1 0 #
coedge $-1 $15 $16 $17 $18 1 $5 $-1 #
face $-1 $19 $20 $2 $-1 $21 reversed single #
loop $-1 $-1 $22 $7 #
plane-surface $-1 0 0 39.3700787401575 0 0 1 1 0 0 0 #
coedge $-1 $23 $24 $25 $26 1 $8 $-1 #
coedge $-1 $27 $10 $28 $29 0 $5 $-1 #
coedge $-1 $10 $27 $30 $31 1 $5 $-1 #
coedge $-1 $32 $33 $10 $18 0 $34 $-1 #
edge $-1 $35 $36 $10 $37 0 #
face $-1 $38 $39 $2 $-1 $40 reversed single #
loop $-1 $-1 $41 $11 #
plane-surface $-1 0 0 39.3700787401575 0 0 1 1 0 0 0 #
coedge $-1 $42 $43 $27 $44 0 $12 $-1 #
coedge $-1 $45 $14 $46 $47 0 $8 $-1 #
coedge $-1 $14 $45 $48 $49 1 $8 $-1 #
coedge $-1 $43 $42 $14 $26 0 $12 $-1 #
edge $-1 $50 $51 $14 $52 0 #
coedge $-1 $16 $15 $22 $44 1 $5 $-1 #
coedge $-1 $53 $54 $15 $29 1 $55 $-1 #
edge $-1 $35 $56 $15 $57 0 #
coedge $-1 $58 $59 $16 $31 0 $60 $-1 #
edge $-1 $36 $61 $16 $62 0 #
coedge $-1 $63 $17 $59 $64 1 $34 $-1 #
coedge $-1 $17 $65 $53 $66 0 $34 $-1 #
loop $-1 $-1 $33 $67 #
vertex $-1 $18 $68 #
vertex $-1 $18 $69 #
straight-curve $-1 0 -172.244094488189 0 1 0 0 #
face $-1 $67 $70 $2 $-1 $71 reversed single #
loop $-1 $-1 $72 $19 #
plane-surface $-1 0 172.244094488189 0 0 1 0 0 0 1 0 #
coedge $-1 $73 $74 $75 $76 0 $20 $-1 #
coedge $-1 $25 $22 $54 $77 0 $12 $-1 #
coedge $-1 $22 $25 $58 $78 1 $12 $-1 #
edge $-1 $61 $56 $27 $79 0 #
coedge $-1 $24 $23 $80 $81 1 $8 $-1 #
coedge $-1 $54 $82 $23 $47 1 $55 $-1 #
edge $-1 $50 $83 $23 $84 0 #
coedge $-1 $85 $58 $24 $49 0 $60 $-1 #
edge $-1 $51 $86 $24 $87 0 #
vertex $-1 $26 $88 #
vertex $-1 $26 $89 #
straight-curve $-1 0 172.244094488189 39.3700787401575 1 0 0 #
coedge $-1 $90 $28 $33 $66 1 $55 $-1 #
coedge $-1 $28 $46 $42 $77 1 $55 $-1 #
loop $-1 $91 $92 $93 #
vertex $-1 $29 $94 #
ellipse-curve $-1 0 -172.244094488189 0 0 1 0 -420.804129691087 0 19.7066134548689 1 #
coedge $-1 $48 $30 $43 $78 0 $60 $-1 #
coedge $-1 $30 $95 $32 $64 0 $60 $-1 #
loop $-1 $96 $59 $97 #
vertex $-1 $44 $98 #
ellipse-curve $-1 0 -172.244094488189 0 0 1 0 -377.875432354192 0 19.7118043295865 1 #
coedge $-1 $99 $32 $100 $101 0 $34 $-1 #
edge $-1 $102 $36 $32 $103 0 #
coedge $-1 $33 $104 $105 $106 1 $34 $-1 #
edge $-1 $107 $35 $33 $108 0 #
face $-1 $109 $34 $2 $-1 $110 reversed single #
point $-1 -421.265315660965 -172.244094488189 0 #
point $-1 -378.389214443006 -172.244094488189 0 #
loop $-1 $-1 $111 $38 #
plane-surface $-1 0 -172.244094488189 0 0 -1 0 0 0 -1 0 #
coedge $-1 $112 $113 $114 $115 1 $39 $-1 #
coedge $-1 $116 $41 $117 $118 0 $20 $-1 #
coedge $-1 $41 $116 $119 $120 1 $20 $-1 #
coedge $-1 $113 $112 $41 $76 1 $39 $-1 #
edge $-1 $121 $122 $41 $123 0 #
edge $-1 $56 $50 $42 $124 0 #
edge $-1 $61 $51 $43 $125 0 #
straight-curve $-1 0 -172.244094488189 39.3700787401575 -1 0 0 #
coedge $-1 $126 $127 $45 $81 0 $128 $-1 #
edge $-1 $86 $83 $45 $129 0 #
coedge $-1 $46 $130 $126 $131 1 $55 $-1 #
vertex $-1 $47 $132 #
ellipse-curve $-1 0 172.244094488189 0 0 -1 0 -420.804129691087 0 19.7066134548688 1 #
coedge $-1 $133 $48 $127 $134 0 $60 $-1 #
vertex $-1 $81 $135 #
ellipse-curve $-1 0 172.244094488189 0 0 -1 0 -377.875432354192 0 19.7118043295865 1 #
point $-1 -419.421581560756 172.244094488189 39.3700787401575 #
point $-1 -376.335481328547 172.244094488189 39.3700787401575 #
coedge $-1 $136 $53 $137 $138 0 $55 $-1 #
loop $-1 $-1 $139 $93 #
coedge $-1 $140 $141 $142 $143 1 $55 $-1 #
face $-1 $-1 $55 $2 $-1 $144 forward single #
point $-1 -419.421581560756 -172.244094488189 39.3700787401575 #
coedge $-1 $59 $145 $146 $147 0 $60 $-1 #
loop $-1 $-1 $148 $97 #
face $-1 $149 $60 $2 $-1 $150 reversed single #
point $-1 -376.335481328547 -172.244094488189 39.3700787401575 #
coedge $-1 $151 $63 $141 $152 0 $34 $-1 #
coedge $-1 $146 $142 $63 $101 1 $153 $-1 #
edge $-1 $102 $154 $63 $155 0 #
vertex $-1 $64 $156 #
ellipse-curve $-1 0 0 0 0 0 -1 -293.978252335824 -293.978252335824 0 1 #
coedge $-1 $65 $151 $157 $158 1 $34 $-1 #
coedge $-1 $159 $137 $65 $106 0 $160 $-1 #
edge $-1 $107 $161 $65 $162 0 #
vertex $-1 $66 $163 #
ellipse-curve $-1 0 0 0 0 0 -1 -408.629844449796 -200.384990680252 0 1 #
face $-1 $164 $165 $2 $-1 $166 reversed single #
plane-surface $-1 0 0 0 0 0 1 1 0 0 0 #
coedge $-1 $167 $168 $116 $169 1 $70 $-1 #
coedge $-1 $75 $72 $170 $171 0 $39 $-1 #
coedge $-1 $72 $75 $172 $173 1 $39 $-1 #
coedge $-1 $174 $175 $72 $115 0 $176 $-1 #
edge $-1 $177 $178 $72 $179 0 #
coedge $-1 $74 $73 $111 $169 0 $20 $-1 #
coedge $-1 $170 $180 $73 $118 1 $55 $-1 #
edge $-1 $122 $181 $73 $182 0 #
coedge $-1 $183 $172 $74 $120 0 $60 $-1 #
edge $-1 $121 $184 $74 $185 0 #
vertex $-1 $76 $186 #
vertex $-1 $76 $187 #
straight-curve $-1 0 172.244094488189 39.3700787401575 1 0 0 #
ellipse-curve $-1 0 0 39.3700787401575 0 0 -1 -453.412054498976 -5.55269621236996e-14 0 1 #
ellipse-curve $-1 0 0 39.3700787401575 0 0 -1 -413.879719958402 -5.0685647427906e-14 0 1 #
coedge $-1 $188 $80 $82 $131 0 $128 $-1 #
coedge $-1 $80 $189 $85 $134 1 $128 $-1 #
loop $-1 $-1 $127 $190 #
straight-curve $-1 0 172.244094488189 0 -1 0 0 #
coedge $-1 $82 $191 $192 $193 0 $55 $-1 #
edge $-1 $83 $194 $126 $195 0 #
point $-1 -421.265315660965 172.244094488189 0 #
coedge $-1 $196 $85 $197 $198 0 $60 $-1 #
edge $-1 $86 $199 $127 $200 0 #
point $-1 -378.389214443006 172.244094488189 0 #
coedge $-1 $201 $90 $202 $203 0 $55 $-1 #
coedge $-1 $105 $204 $90 $138 1 $160 $-1 #
edge $-1 $107 $205 $137 $206 0 #
coedge $-1 $139 $139 $207 $208 1 $91 $-1 #
coedge $-1 $209 $92 $210 $211 1 $55 $-1 #
coedge $-1 $92 $212 $99 $152 1 $55 $-1 #
coedge $-1 $100 $213 $92 $143 0 $153 $-1 #
edge $-1 $214 $154 $142 $215 0 #
sphere-surface $-1 0 0 0 455.118110236221 1 0 0 0 0 1 0 #
coedge $-1 $95 $216 $217 $218 0 $60 $-1 #
coedge $-1 $213 $100 $95 $147 1 $153 $-1 #
edge $-1 $219 $102 $146 $220 0 #
coedge $-1 $148 $148 $221 $222 0 $96 $-1 #
face $-1 $223 $224 $2 $-1 $225 reversed single #
sphere-surface $-1 0 0 0 415.748031496063 1 0 0 0 0 1 0 #
coedge $-1 $104 $99 $226 $227 0 $34 $-1 #
edge $-1 $154 $228 $99 $229 0 #
loop $-1 $-1 $213 $230 #
vertex $-1 $101 $231 #
straight-curve $-1 -172.244094488189 0 0 0 -1 0 #
point $-1 -172.244094488189 -378.389214443006 0 #
coedge $-1 $232 $233 $104 $158 0 $234 $-1 #
edge $-1 $161 $235 $104 $236 0 #
coedge $-1 $237 $105 $233 $238 1 $160 $-1 #
loop $-1 $-1 $237 $239 #
vertex $-1 $158 $240 #
straight-curve $-1 -393.972440944882 -227.46062992126 0 -0.707106781186548 -0.707106781186548 0 #
point $-1 -394.117130707079 -227.605319683456 0 #
face $-1 $230 $241 $2 $-1 $242 reversed single #
loop $-1 $-1 $243 $109 #
plane-surface $-1 0 0 0 0 0 1 1 0 0 0 #
coedge $-1 $244 $111 $180 $245 0 $70 $-1 #
coedge $-1 $111 $244 $183 $246 1 $70 $-1 #
edge $-1 $181 $184 $116 $247 0 #
coedge $-1 $248 $117 $112 $171 1 $55 $-1 #
edge $-1 $177 $122 $112 $249 0 #
coedge $-1 $119 $250 $113 $173 0 $60 $-1 #
edge $-1 $178 $121 $113 $251 0 #
coedge $-1 $252 $114 $250 $253 1 $176 $-1 #
coedge $-1 $114 $254 $248 $255 0 $176 $-1 #
loop $-1 $-1 $256 $257 #
vertex $-1 $115 $258 #
vertex $-1 $115 $259 #
straight-curve $-1 0 172.244094488189 0 -1 0 0 #
coedge $-1 $117 $260 $167 $245 1 $55 $-1 #
vertex $-1 $118 $261 #
ellipse-curve $-1 0 0 39.3700787401575 0 0 -1 453.412054498976 0 0 1 #
coedge $-1 $262 $119 $168 $246 0 $60 $-1 #
vertex $-1 $169 $263 #
ellipse-curve $-1 0 0 39.3700787401575 0 0 -1 413.879719958402 0 0 1 #
point $-1 376.335481328547 172.244094488189 39.3700787401575 #
point $-1 419.421581560756 172.244094488189 39.3700787401575 #
coedge $-1 $264 $126 $265 $266 0 $128 $-1 #
coedge $-1 $127 $267 $268 $269 0 $128 $-1 #
face $-1 $97 $128 $2 $-1 $270 reversed single #
coedge $-1 $130 $271 $272 $273 0 $55 $-1 #
coedge $-1 $274 $265 $130 $193 1 $275 $-1 #
edge $-1 $276 $194 $192 $277 0 #
vertex $-1 $131 $278 #
ellipse-curve $-1 0 0 0 0 0 -1 -408.629612161134 200.385464368128 0 1 #
coedge $-1 $279 $133 $280 $281 0 $60 $-1 #
coedge $-1 $268 $282 $133 $198 1 $283 $-1 #
edge $-1 $199 $284 $197 $285 0 #
vertex $-1 $269 $286 #
ellipse-curve $-1 0 0 0 0 0 -1 -293.978252335824 293.978252335824 0 1 #
coedge $-1 $287 $136 $288 $289 1 $55 $-1 #
coedge $-1 $290 $291 $136 $203 1 $292 $-1 #
edge $-1 $205 $293 $202 $294 0 #
coedge $-1 $137 $237 $290 $295 1 $160 $-1 #
vertex $-1 $295 $296 #
ellipse-curve $-1 -83.255905511811 83.255905511811 0 -0.707106781186548 0.707106781186548 0 -310.825050649924 -310.825050649924 6.7065965101243 1 #
coedge $-1 $207 $207 $139 $208 0 $224 $-1 #
edge $-1 $297 $297 $207 $298 0 #
coedge $-1 $299 $140 $300 $301 1 $55 $-1 #
coedge $-1 $302 $303 $140 $211 0 $241 $-1 #
edge $-1 $304 $214 $210 $305 0 #
coedge $-1 $141 $287 $306 $307 0 $55 $-1 #
coedge $-1 $142 $146 $302 $308 1 $153 $-1 #
vertex $-1 $211 $309 #
ellipse-curve $-1 -172.244094488189 0 0 1 0 0 0 -409.406621197562 99.2506156078073 1 #
coedge $-1 $145 $262 $310 $311 0 $60 $-1 #
coedge $-1 $303 $302 $145 $218 1 $241 $-1 #
edge $-1 $312 $219 $217 $313 0 #
vertex $-1 $308 $314 #
ellipse-curve $-1 -172.244094488189 0 0 1 0 0 0 -364.932455916118 100.013500217848 1 #
coedge $-1 $221 $221 $148 $222 1 $315 $-1 #
edge $-1 $316 $316 $148 $317 0 #
face $-1 $318 $319 $2 $-1 $320 forward single #
loop $-1 $315 $207 $149 #
plane-surface $-1 0 0 227.55905511811 0 0 -1 -1 0 0 0 #
coedge $-1 $306 $321 $151 $227 1 $322 $-1 #
edge $-1 $228 $235 $151 $323 0 #
vertex $-1 $152 $324 #
ellipse-curve $-1 0 0 0 0 0 -1 -200.385464368128 -408.629612161134 0 1 #
face $-1 $325 $153 $2 $-1 $326 reversed single #
point $-1 -172.244094488189 -421.265315660965 0 #
coedge $-1 $327 $157 $321 $328 0 $234 $-1 #
coedge $-1 $157 $327 $159 $238 0 $234 $-1 #
loop $-1 $-1 $157 $329 #
vertex $-1 $227 $330 #
ellipse-curve $-1 0 0 0 0 0 1 -349.450875549445 -349.304235354301 0 1 #
coedge $-1 $204 $159 $331 $332 1 $160 $-1 #
edge $-1 $333 $161 $233 $334 0 #
face $-1 $335 $160 $2 $-1 $336 forward single #
point $-1 -422.568645954565 -256.056834930943 0 #
loop $-1 $-1 $303 $164 #
plane-surface $-1 0 0 192.913385826772 0 0 1 1 0 0 0 #
coedge $-1 $337 $338 $262 $339 1 $165 $-1 #
coedge $-1 $168 $167 $337 $340 1 $70 $-1 #
edge $-1 $181 $341 $167 $342 0 #
edge $-1 $184 $343 $168 $344 0 #
straight-curve $-1 0 -172.244094488189 39.3700787401575 -1 0 0 #
coedge $-1 $345 $170 $175 $255 1 $55 $-1 #
ellipse-curve $-1 0 172.244094488189 0 0 -1 0 420.804129691087 0 19.7066134548688 1 #
coedge $-1 $172 $279 $174 $253 0 $60 $-1 #
ellipse-curve $-1 0 172.244094488189 0 0 -1 0 377.875432354192 0 19.7118043295865 1 #
coedge $-1 $346 $174 $347 $348 0 $176 $-1 #
edge $-1 $349 $178 $250 $350 0 #
coedge $-1 $175 $256 $351 $352 1 $176 $-1 #
edge $-1 $353 $177 $175 $354 0 #
coedge $-1 $254 $355 $356 $357 1 $176 $-1 #
face $-1 $358 $176 $2 $-1 $359 forward single #
point $-1 421.265315660965 172.244094488189 0 #
point $-1 378.389214443006 172.244094488189 0 #
coedge $-1 $180 $360 $361 $362 1 $55 $-1 #
point $-1 419.421581560756 -172.244094488189 39.3700787401575 #
coedge $-1 $216 $183 $243 $339 0 $60 $-1 #
point $-1 376.335481328547 -172.244094488189 39.3700787401575 #
coedge $-1 $363 $188 $364 $365 1 $128 $-1 #
coedge $-1 $192 $366 $188 $266 1 $275 $-1 #
edge $-1 $194 $367 $188 $368 0 #
coedge $-1 $189 $363 $369 $370 0 $128 $-1 #
coedge $-1 $371 $197 $189 $269 1 $283 $-1 #
edge $-1 $372 $199 $268 $373 0 #
plane-surface $-1 0 0 0 0 0 1 1 0 0 0 #
coedge $-1 $191 $374 $375 $376 1 $55 $-1 #
coedge $-1 $377 $378 $191 $273 1 $379 $-1 #
edge $-1 $380 $276 $272 $381 0 #
coedge $-1 $382 $192 $378 $383 0 $275 $-1 #
loop $-1 $-1 $265 $384 #
vertex $-1 $383 $385 #
ellipse-curve $-1 -85.2212686723278 -84.3776130639183 0 -0.710615433405788 -0.703580632056841 0 -308.859291726921 311.947443479654 6.70659861302079 1 #
point $-1 -394.116603021061 227.606233412285 0 #
coedge $-1 $250 $196 $386 $387 0 $60 $-1 #
coedge $-1 $388 $389 $196 $281 1 $390 $-1 #
edge $-1 $284 $391 $280 $392 0 #
coedge $-1 $197 $371 $388 $393 1 $283 $-1 #
loop $-1 $-1 $268 $394 #
vertex $-1 $393 $395 #
ellipse-curve $-1 -172.244094488189 0 0 1 0 0 0 364.932455916118 100.013500217848 1 #
point $-1 -172.244094488189 378.389214443006 0 #
coedge $-1 $212 $201 $396 $397 0 $55 $-1 #
coedge $-1 $398 $399 $201 $289 0 $400 $-1 #
edge $-1 $401 $293 $288 $402 0 #
coedge $-1 $291 $202 $204 $295 0 $292 $-1 #
coedge $-1 $202 $290 $398 $403 1 $292 $-1 #
loop $-1 $-1 $290 $404 #
vertex $-1 $289 $405 #
ellipse-curve $-1 -393.972440944882 2.41230577206007e-14 0 -1 6.12303176911189e-17 0 -1.38574685773967e-14 -226.317110541575 26.4343624290974 1 #
edge $-1 $205 $406 $290 $407 0 #
point $-1 -393.972440944882 -227.46062992126 13.4116321431762 #
vertex $-1 $208 $408 #
ellipse-curve $-1 0 0 227.55905511811 0 0 1 -394.143845186933 0 0 1 #
coedge $-1 $409 $209 $410 $411 1 $55 $-1 #
coedge $-1 $412 $413 $209 $301 0 $414 $-1 #
edge $-1 $415 $304 $300 $416 0 #
coedge $-1 $217 $210 $213 $308 0 $241 $-1 #
coedge $-1 $210 $217 $412 $417 0 $241 $-1 #
vertex $-1 $417 $418 #
ellipse-curve $-1 0 0 192.913385826772 0 0 -1 2.52405706532445e-14 -412.209800749375 0 1 #
coedge $-1 $419 $226 $212 $307 1 $322 $-1 #
edge $-1 $420 $228 $306 $421 0 #
edge $-1 $214 $219 $302 $422 0 #
point $-1 -172.244094488189 -374.498186574759 192.913385826772 #
coedge $-1 $413 $412 $216 $311 1 $414 $-1 #
edge $-1 $423 $312 $310 $424 0 #
vertex $-1 $417 $425 #
ellipse-curve $-1 0 0 192.913385826772 0 0 -1 2.25507037590013e-14 -368.280940671252 0 1 #
point $-1 -172.244094488189 -325.519313060909 192.913385826772 #
loop $-1 $-1 $221 $149 #
vertex $-1 $222 $426 #
ellipse-curve $-1 0 0 227.55905511811 0 0 1 -347.941521130497 0 0 1 #
face $-1 $427 $428 $2 $-1 $429 forward single #
loop $-1 $-1 $430 $223 #
plane-surface $-1 393.972440944882 -7.2369173161802e-14 0 1 -1.83690953073356e-16 0 0 0 -1 0 #
coedge $-1 $226 $431 $232 $328 1 $322 $-1 #
loop $-1 $-1 $226 $432 #
straight-curve $-1 84.3776130639183 -85.2212686723278 0 -0.710615433405788 -0.703580632056841 0 #
point $-1 -227.606233412285 -394.116603021061 0 #
face $-1 $433 $414 $2 $-1 $434 reversed single #
plane-surface $-1 -172.244094488189 0 0 -1 0 0 0 -0 1 0 #
coedge $-1 $233 $232 $435 $436 0 $234 $-1 #
edge $-1 $235 $437 $321 $438 0 #
face $-1 $439 $234 $2 $-1 $440 forward single #
point $-1 -256.234172213113 -422.461136968819 0 #
coedge $-1 $435 $398 $237 $332 0 $400 $-1 #
edge $-1 $406 $333 $331 $441 0 #
vertex $-1 $332 $442 #
straight-curve $-1 -422.568645954565 -256.056834930943 0 0 0 -1 #
face $-1 $443 $444 $2 $-1 $445 forward single #
plane-surface $-1 -533.165354330709 -366.653543307087 0 -0.707106781186548 0.707106781186548 0 0 -0 1 0 #
coedge $-1 $361 $243 $244 $340 0 $165 $-1 #
coedge $-1 $243 $410 $413 $446 0 $165 $-1 #
edge $-1 $343 $423 $243 $447 0 #
edge $-1 $343 $341 $244 $448 0 #
vertex $-1 $245 $449 #
ellipse-curve $-1 0 -172.244094488189 0 0 1 0 420.804129691087 0 19.7066134548689 1 #
vertex $-1 $340 $450 #
ellipse-curve $-1 0 -172.244094488189 0 0 1 0 377.875432354192 0 19.7118043295865 1 #
coedge $-1 $451 $248 $452 $453 0 $55 $-1 #
coedge $-1 $355 $252 $454 $455 0 $176 $-1 #
coedge $-1 $386 $456 $252 $348 1 $457 $-1 #
edge $-1 $349 $458 $347 $459 0 #
vertex $-1 $348 $460 #
ellipse-curve $-1 0 0 0 0 0 -1 293.978252335824 293.978252335824 0 1 #
coedge $-1 $461 $452 $254 $352 0 $462 $-1 #
edge $-1 $353 $463 $351 $464 0 #
vertex $-1 $453 $465 #
ellipse-curve $-1 0 0 0 0 0 -1 408.629844449796 200.384990680252 0 1 #
coedge $-1 $256 $346 $466 $467 1 $176 $-1 #
coedge $-1 $468 $469 $256 $357 0 $470 $-1 #
edge $-1 $463 $471 $256 $472 0 #
face $-1 $473 $474 $2 $-1 $475 forward single #
plane-surface $-1 0 0 0 0 0 -1 -1 0 0 0 #
coedge $-1 $260 $476 $477 $478 0 $55 $-1 #
coedge $-1 $479 $337 $260 $362 0 $165 $-1 #
edge $-1 $341 $480 $361 $481 0 #
coedge $-1 $267 $264 $482 $483 0 $128 $-1 #
coedge $-1 $484 $485 $264 $365 0 $486 $-1 #
edge $-1 $487 $367 $264 $488 0 #
coedge $-1 $265 $382 $484 $489 1 $275 $-1 #
vertex $-1 $266 $490 #
straight-curve $-1 -85.2212686723278 -84.3776130639183 0 -0.703580632056841 0.710615433405788 0 #
coedge $-1 $491 $492 $267 $370 1 $55 $-1 #
edge $-1 $493 $372 $267 $494 0 #
coedge $-1 $282 $268 $492 $495 0 $283 $-1 #
vertex $-1 $269 $496 #
straight-curve $-1 -172.244094488189 0 0 0 -1 0 #
coedge $-1 $271 $491 $497 $498 0 $55 $-1 #
coedge $-1 $499 $500 $271 $376 0 $444 $-1 #
edge $-1 $380 $501 $375 $502 0 #
coedge $-1 $378 $272 $500 $503 1 $379 $-1 #
coedge $-1 $272 $377 $274 $383 1 $379 $-1 #
loop $-1 $-1 $377 $439 #
vertex $-1 $503 $504 #
ellipse-curve $-1 -393.972440944882 2.41230577206007e-14 0 -1 6.12303176911189e-17 0 1.38574685773967e-14 226.317110541575 26.4343624290974 1 #
coedge $-1 $366 $274 $505 $506 1 $275 $-1 #
edge $-1 $276 $507 $378 $508 0 #
face $-1 $239 $275 $2 $-1 $509 forward single #
point $-1 -393.972440944882 227.46062992126 13.4116321431762 #
coedge $-1 $510 $347 $279 $387 1 $457 $-1 #
edge $-1 $391 $349 $386 $511 0 #
coedge $-1 $512 $280 $282 $393 0 $390 $-1 #
coedge $-1 $280 $512 $510 $513 0 $390 $-1 #
loop $-1 $-1 $388 $514 #
vertex $-1 $513 $515 #
ellipse-curve $-1 0 0 192.913385826772 0 0 -1 2.25507037590013e-14 368.280940671252 0 1 #
edge $-1 $284 $516 $282 $517 0 #
face $-1 $514 $283 $2 $-1 $518 reversed single #
point $-1 -172.244094488189 325.519313060909 192.913385826772 #
coedge $-1 $519 $520 $287 $397 1 $521 $-1 #
edge $-1 $401 $420 $396 $522 0 #
coedge $-1 $331 $288 $291 $403 0 $400 $-1 #
coedge $-1 $288 $523 $519 $524 0 $400 $-1 #
loop $-1 $-1 $523 $525 #
vertex $-1 $524 $526 #
ellipse-curve $-1 0 0 39.3700787401575 0 0 -1 -320.610738407951 -320.61073840795 0 1 #
edge $-1 $293 $406 $398 $527 0 #
face $-1 $384 $292 $2 $-1 $528 forward single #
point $-1 -393.972440944882 -224.428623265647 39.3700787401575 #
vertex $-1 $403 $529 #
straight-curve $-1 -393.972440944882 -227.46062992126 0 0 0 1 #
point $-1 -394.143845186933 0 227.55905511811 #
coedge $-1 $530 $299 $531 $532 0 $55 $-1 #
coedge $-1 $338 $533 $299 $411 0 $165 $-1 #
edge $-1 $534 $415 $410 $535 0 #
coedge $-1 $310 $300 $303 $417 1 $414 $-1 #
coedge $-1 $300 $310 $338 $446 1 $414 $-1 #
loop $-1 $-1 $413 $325 #
vertex $-1 $411 $536 #
ellipse-curve $-1 172.244094488189 0 0 -1 0 0 0 -409.406621197562 99.2506156078074 1 #
edge $-1 $312 $304 $303 $537 0 #
point $-1 172.244094488189 -374.498186574759 192.913385826772 #
coedge $-1 $431 $306 $520 $538 0 $322 $-1 #
vertex $-1 $538 $539 #
ellipse-curve $-1 84.3776130639183 -85.2212686723278 0 0.703580632056841 -0.710615433405788 0 -311.947443479654 -308.859291726921 6.70659861302079 1 #
straight-curve $-1 -172.244094488189 0 192.913385826772 0 1 0 #
vertex $-1 $339 $540 #
ellipse-curve $-1 172.244094488189 0 0 -1 0 0 0 -364.932455916118 100.013500217848 1 #
point $-1 172.244094488189 -325.519313060909 192.913385826772 #
point $-1 -347.941521130497 0 227.55905511811 #
face $-1 $541 $542 $2 $-1 $543 forward single #
loop $-1 $-1 $544 $318 #
plane-surface $-1 393.972440944882 -7.2369173161802e-14 0 1 -1.83690953073356e-16 0 0 0 -1 0 #
coedge $-1 $545 $546 $547 $548 1 $319 $-1 #
coedge $-1 $321 $419 $523 $549 1 $322 $-1 #
face $-1 $550 $322 $2 $-1 $551 forward single #
face $-1 $394 $457 $2 $-1 $552 reversed single #
plane-surface $-1 172.244094488189 0 0 1 0 0 0 0 -1 0 #
coedge $-1 $523 $331 $327 $436 1 $400 $-1 #
edge $-1 $437 $333 $435 $553 0 #
vertex $-1 $549 $554 #
straight-curve $-1 -256.234172213113 -422.461136968819 0 0 0 1 #
face $-1 $404 $379 $2 $-1 $555 forward single #
cone-surface $-1 0 0 0 0 0 1 494.094488188976 0 0 1 0 1 0 #
straight-curve $-1 -393.972440944882 -227.46062992126 39.3700787401575 -0.707106781186548 -0.707106781186548 0 #
point $-1 -422.568645954565 -256.056834930943 39.3700787401575 #
face $-1 $556 $486 $2 $-1 $557 forward single #
loop $-1 $-1 $505 $335 #
plane-surface $-1 0 0 39.3700787401575 0 0 1 1 0 0 0 #
edge $-1 $415 $423 $338 $558 0 #
ellipse-curve $-1 0 0 0 0 0 -1 293.978252335824 -293.978252335824 0 1 #
straight-curve $-1 0 -172.244094488189 0 1 0 0 #
point $-1 421.265315660965 -172.244094488189 0 #
point $-1 378.389214443006 -172.244094488189 0 #
coedge $-1 $559 $345 $560 $561 0 $55 $-1 #
coedge $-1 $351 $562 $345 $453 1 $462 $-1 #
edge $-1 $353 $563 $452 $564 0 #
coedge $-1 $565 $566 $346 $455 1 $55 $-1 #
edge $-1 $458 $567 $346 $568 0 #
coedge $-1 $347 $510 $565 $569 0 $457 $-1 #
loop $-1 $-1 $510 $433 #
vertex $-1 $569 $570 #
straight-curve $-1 172.244094488189 0 0 0 1 0 #
point $-1 172.244094488189 378.389214443006 0 #
coedge $-1 $571 $351 $469 $572 1 $462 $-1 #
loop $-1 $-1 $571 $541 #
vertex $-1 $352 $573 #
straight-curve $-1 393.972440944882 227.46062992126 0 0.707106781186548 0.707106781186548 0 #
point $-1 394.117130707079 227.605319683456 0 #
coedge $-1 $574 $575 $355 $467 0 $576 $-1 #
edge $-1 $471 $567 $355 $577 0 #
coedge $-1 $578 $356 $575 $579 0 $470 $-1 #
coedge $-1 $356 $578 $461 $572 0 $470 $-1 #
loop $-1 $-1 $578 $473 #
vertex $-1 $357 $580 #
ellipse-curve $-1 0 0 0 0 0 1 349.450875549445 349.304235354301 0 1 #
face $-1 $581 $470 $2 $-1 $582 forward single #
loop $-1 $-1 $583 $358 #
cone-surface $-1 0 0 0 0 0 1 494.094488188976 0 0 1 0 1 0 #
coedge $-1 $360 $584 $546 $585 0 $55 $-1 #
coedge $-1 $586 $587 $360 $478 1 $542 $-1 #
edge $-1 $588 $480 $477 $589 0 #
coedge $-1 $590 $361 $587 $591 0 $165 $-1 #
vertex $-1 $362 $592 #
ellipse-curve $-1 0 0 0 0 0 -1 408.629612161134 -200.385464368128 0 1 #
coedge $-1 $593 $594 $363 $483 1 $595 $-1 #
edge $-1 $487 $493 $363 $596 0 #
coedge $-1 $597 $364 $366 $489 0 $486 $-1 #
coedge $-1 $364 $597 $593 $598 0 $486 $-1 #
loop $-1 $-1 $364 $443 #
vertex $-1 $365 $599 #
ellipse-curve $-1 0 0 0 0 0 1 -349.304235354301 349.450875549444 0 1 #
edge $-1 $367 $600 $366 $601 0 #
point $-1 -422.461136968819 256.234172213113 0 #
coedge $-1 $374 $369 $594 $602 0 $55 $-1 #
coedge $-1 $369 $603 $371 $495 1 $55 $-1 #
vertex $-1 $483 $604 #
ellipse-curve $-1 0 0 0 0 0 -1 -200.384990680252 408.629844449796 0 1 #
edge $-1 $372 $516 $371 $605 0 #
point $-1 -172.244094488189 421.265315660965 0 #
coedge $-1 $606 $607 $374 $498 1 $608 $-1 #
edge $-1 $609 $501 $497 $610 0 #
coedge $-1 $611 $375 $607 $612 0 $444 $-1 #
coedge $-1 $375 $505 $377 $503 0 $444 $-1 #
vertex $-1 $376 $613 #
ellipse-curve $-1 0 0 39.3700787401575 0 0 -1 -320.61073840795 320.610738407951 0 1 #
edge $-1 $507 $380 $377 $614 0 #
point $-1 -393.972440944882 224.428623265648 39.3700787401575 #
coedge $-1 $500 $615 $382 $506 0 $444 $-1 #
edge $-1 $600 $507 $382 $616 0 #
vertex $-1 $503 $617 #
straight-curve $-1 -393.972440944882 227.46062992126 0 0 0 1 #
plane-surface $-1 -531.787401574803 366.653543307087 0 -0.710615433405788 -0.703580632056841 0 0 -0 1 0 #
coedge $-1 $456 $386 $389 $513 1 $457 $-1 #
ellipse-curve $-1 172.244094488189 0 0 -1 0 0 0 364.932455916118 100.013500217848 1 #
coedge $-1 $389 $388 $603 $618 0 $390 $-1 #
edge $-1 $619 $391 $510 $620 0 #
face $-1 $190 $390 $2 $-1 $621 reversed single #
point $-1 172.244094488189 325.519313060909 192.913385826772 #
vertex $-1 $495 $622 #
straight-curve $-1 -172.244094488189 0 192.913385826772 0 1 0 #
plane-surface $-1 -172.244094488189 0 0 -1 0 0 0 -0 1 0 #
coedge $-1 $520 $396 $399 $524 1 $521 $-1 #
coedge $-1 $396 $519 $419 $538 1 $521 $-1 #
loop $-1 $-1 $519 $581 #
ellipse-curve $-1 -4.82461154412013e-14 -393.972440944882 0 -1.22460635382238e-16 -1 0 -226.317110541575 2.77149371547934e-14 26.4343624290974 1 #
coedge $-1 $399 $435 $431 $549 0 $400 $-1 #
edge $-1 $623 $401 $519 $624 0 #
face $-1 $329 $400 $2 $-1 $625 forward single #
point $-1 -224.428623265648 -393.972440944882 39.3700787401575 #
straight-curve $-1 -393.972440944882 227.46062992126 39.3700787401575 -6.12303176911189e-17 -1 0 #
plane-surface $-1 -393.972440944882 2.41230577206007e-14 0 -1 6.12303176911189e-17 0 0 -0 1 0 #
point $-1 -393.972440944882 -227.46062992126 39.3700787401575 #
coedge $-1 $584 $409 $626 $627 0 $55 $-1 #
coedge $-1 $628 $629 $409 $532 1 $630 $-1 #
edge $-1 $534 $631 $531 $632 0 #
coedge $-1 $410 $590 $628 $633 1 $165 $-1 #
vertex $-1 $633 $634 #
ellipse-curve $-1 0 0 0 0 0 -1 200.384990680252 -408.629844449796 0 1 #
point $-1 172.244094488189 -421.265315660965 0 #
straight-curve $-1 172.244094488189 0 192.913385826772 0 -1 0 #
edge $-1 $420 $623 $520 $635 0 #
point $-1 -227.46062992126 -393.972440944882 13.4116321431762 #
point $-1 172.244094488189 -378.389214443006 0 #
face $-1 $636 $462 $2 $-1 $637 forward single #
loop $-1 $-1 $587 $427 #
plane-surface $-1 531.787401574803 -366.653543307087 0 0.710615433405788 0.703580632056841 0 0 0 -1 0 #
coedge $-1 $638 $560 $562 $639 0 $428 $-1 #
coedge $-1 $546 $430 $586 $640 1 $319 $-1 #
coedge $-1 $430 $545 $476 $585 1 $319 $-1 #
coedge $-1 $641 $642 $430 $548 0 $643 $-1 #
edge $-1 $644 $645 $430 $646 0 #
edge $-1 $437 $623 $431 $647 0 #
face $-1 $525 $630 $2 $-1 $648 forward single #
plane-surface $-1 -366.653543307087 -531.787401574803 0 0.703580632056841 -0.710615433405788 0 0 0 -1 0 #
plane-surface $-1 172.244094488189 0 0 1 0 0 0 0 -1 0 #
ellipse-curve $-1 0 0 39.3700787401575 0 0 -1 -349.450875549445 -349.304235354301 0 1 #
point $-1 -256.234172213113 -422.461136968819 39.3700787401575 #
plane-surface $-1 -393.972440944882 2.41230577206007e-14 0 -1 6.12303176911189e-17 0 0 -0 1 0 #
face $-1 $649 $650 $2 $-1 $651 forward single #
cone-surface $-1 0 0 0 0 0 1 494.094488188976 0 0 1 0 1 0 #
straight-curve $-1 172.244094488189 0 0 0 1 0 #
coedge $-1 $652 $451 $653 $654 1 $55 $-1 #
coedge $-1 $544 $638 $451 $561 1 $428 $-1 #
edge $-1 $563 $655 $560 $656 0 #
coedge $-1 $452 $571 $544 $639 1 $462 $-1 #
vertex $-1 $639 $657 #
ellipse-curve $-1 83.255905511811 -83.255905511811 0 0.707106781186548 -0.707106781186548 0 310.825050649924 310.825050649924 6.7065965101243 1 #
coedge $-1 $603 $454 $456 $569 1 $55 $-1 #
coedge $-1 $454 $652 $574 $658 0 $55 $-1 #
vertex $-1 $455 $659 #
ellipse-curve $-1 0 0 0 0 0 -1 200.385464368128 408.629612161134 0 1 #
edge $-1 $619 $458 $456 $660 0 #
point $-1 172.244094488189 421.265315660965 0 #
coedge $-1 $562 $461 $661 $662 1 $462 $-1 #
edge $-1 $663 $463 $461 $664 0 #
point $-1 422.568645954565 256.056834930943 0 #
coedge $-1 $665 $466 $566 $658 1 $576 $-1 #
coedge $-1 $466 $666 $468 $579 1 $576 $-1 #
loop $-1 $-1 $466 $667 #
straight-curve $-1 505.846456692913 669.602362204724 0 -0.710615433405788 -0.703580632056841 0 #
coedge $-1 $469 $468 $668 $669 0 $470 $-1 #
edge $-1 $471 $670 $468 $671 0 #
point $-1 256.234172213113 422.461136968819 0 #
face $-1 $672 $521 $2 $-1 $673 forward single #
cone-surface $-1 0 0 0 0 0 1 494.094488188976 0 0 1 0 1 0 #
coedge $-1 $674 $675 $590 $676 0 $474 $-1 #
coedge $-1 $476 $530 $641 $677 1 $55 $-1 #
edge $-1 $645 $588 $546 $678 0 #
coedge $-1 $679 $477 $545 $640 0 $542 $-1 #
coedge $-1 $477 $680 $479 $591 1 $542 $-1 #
vertex $-1 $640 $681 #
ellipse-curve $-1 85.2212686723278 84.3776130639183 0 0.710615433405788 0.703580632056841 0 308.859291726921 -311.947443479654 6.70659861302079 1 #
coedge $-1 $533 $479 $583 $676 1 $165 $-1 #
edge $-1 $480 $682 $479 $683 0 #
point $-1 394.116603021061 -227.606233412285 0 #
coedge $-1 $684 $482 $485 $598 1 $595 $-1 #
coedge $-1 $482 $685 $491 $602 1 $595 $-1 #
loop $-1 $-1 $684 $686 #
straight-curve $-1 83.255905511811 83.255905511811 0 0.707106781186548 -0.707106781186548 0 #
coedge $-1 $485 $484 $615 $687 0 $486 $-1 #
edge $-1 $688 $487 $485 $689 0 #
point $-1 -256.056834930943 422.568645954565 0 #
vertex $-1 $506 $690 #
straight-curve $-1 -422.461136968819 256.234172213113 0 0 0 1 #
edge $-1 $493 $609 $594 $691 0 #
coedge $-1 $492 $565 $512 $618 1 $55 $-1 #
point $-1 -227.605319683456 394.117130707079 0 #
ellipse-curve $-1 -172.244094488189 0 0 1 0 0 0 409.406621197562 99.2506156078073 1 #
coedge $-1 $607 $497 $685 $692 0 $608 $-1 #
coedge $-1 $497 $606 $499 $612 1 $608 $-1 #
loop $-1 $-1 $606 $649 #
vertex $-1 $692 $693 #
ellipse-curve $-1 0 393.972440944882 0 0 1 0 -226.317110541575 0 26.4343624290974 1 #
coedge $-1 $615 $499 $684 $694 0 $444 $-1 #
edge $-1 $501 $695 $499 $696 0 #
point $-1 -224.428623265647 393.972440944882 39.3700787401575 #
straight-curve $-1 -393.972440944882 227.46062992126 39.3700787401575 -6.12303176911189e-17 -1 0 #
coedge $-1 $505 $611 $597 $687 1 $444 $-1 #
straight-curve $-1 -669.602362204724 505.846456692913 39.3700787401575 0.703580632056841 -0.710615433405788 0 #
point $-1 -393.972440944882 227.46062992126 39.3700787401575 #
edge $-1 $516 $619 $512 $697 0 #
vertex $-1 $513 $698 #
straight-curve $-1 172.244094488189 0 192.913385826772 0 -1 0 #
plane-surface $-1 0 0 192.913385826772 0 0 1 1 0 0 0 #
point $-1 -172.244094488189 374.498186574759 192.913385826772 #
vertex $-1 $524 $699 #
straight-curve $-1 -227.46062992126 -393.972440944882 39.3700787401575 1 -1.22460635382238e-16 0 #
plane-surface $-1 0 0 39.3700787401575 0 0 1 1 0 0 0 #
coedge $-1 $700 $701 $530 $627 1 $702 $-1 #
edge $-1 $631 $703 $626 $704 0 #
coedge $-1 $705 $531 $533 $633 0 $630 $-1 #
coedge $-1 $531 $706 $700 $707 1 $630 $-1 #
loop $-1 $-1 $706 $550 #
vertex $-1 $707 $708 #
ellipse-curve $-1 -83.255905511811 -83.255905511811 0 -0.707106781186548 -0.707106781186548 0 310.825050649924 -310.825050649924 6.7065965101243 1 #
edge $-1 $534 $709 $533 $710 0 #
point $-1 227.605319683456 -394.117130707079 0 #
straight-curve $-1 -227.46062992126 -393.972440944882 0 0 0 1 #
face $-1 $711 $643 $2 $-1 $712 forward single #
plane-surface $-1 533.165354330709 366.653543307087 0 0.707106781186548 -0.707106781186548 0 0 0 -1 0 #
coedge $-1 $560 $544 $713 $714 1 $428 $-1 #
edge $-1 $563 $715 $544 $716 0 #
edge $-1 $588 $644 $545 $717 0 #
coedge $-1 $718 $547 $584 $677 0 $643 $-1 #
coedge $-1 $547 $719 $679 $720 0 $643 $-1 #
loop $-1 $-1 $642 $636 #
vertex $-1 $548 $721 #
vertex $-1 $548 $722 #
straight-curve $-1 393.972440944882 -227.46062992126 39.3700787401575 1.83690953073356e-16 1 0 #
straight-curve $-1 -505.846456692913 -669.602362204724 39.3700787401575 0.710615433405788 0.703580632056841 0 #
plane-surface $-1 366.653543307087 -533.165354330709 0 -0.707106781186548 -0.707106781186548 0 0 -0 1 0 #
face $-1 $667 $608 $2 $-1 $723 forward single #
loop $-1 $-1 $724 $556 #
plane-surface $-1 0 393.972440944882 0 0 1 0 0 0 1 0 #
coedge $-1 $566 $559 $725 $726 0 $55 $-1 #
coedge $-1 $713 $727 $559 $654 0 $728 $-1 #
edge $-1 $729 $655 $653 $730 0 #
vertex $-1 $714 $731 #
ellipse-curve $-1 393.972440944882 -7.2369173161802e-14 0 1 -1.83690953073356e-16 0 4.15724057321899e-14 226.317110541575 26.4343624290974 1 #
point $-1 393.972440944882 227.46062992126 13.4116321431762 #
edge $-1 $732 $567 $574 $733 0 #
point $-1 227.606233412285 394.116603021061 0 #
ellipse-curve $-1 172.244094488189 0 0 -1 0 0 0 409.406621197562 99.2506156078074 1 #
coedge $-1 $668 $713 $571 $662 0 $728 $-1 #
edge $-1 $715 $663 $571 $734 0 #
vertex $-1 $662 $735 #
straight-curve $-1 422.568645954565 256.056834930943 0 0 0 -1 #
coedge $-1 $666 $574 $736 $737 0 $576 $-1 #
coedge $-1 $575 $665 $738 $739 1 $576 $-1 #
face $-1 $686 $576 $2 $-1 $740 forward single #
coedge $-1 $738 $661 $578 $669 1 $728 $-1 #
edge $-1 $670 $663 $668 $741 0 #
vertex $-1 $669 $742 #
straight-curve $-1 256.234172213113 422.461136968819 0 0 0 1 #
face $-1 $432 $702 $2 $-1 $743 forward single #
plane-surface $-1 -4.82461154412013e-14 -393.972440944882 0 -1.22460635382238e-16 -1 0 0 -0 -1 0 #
coedge $-1 $744 $583 $680 $745 0 $474 $-1 #
coedge $-1 $583 $744 $705 $746 0 $474 $-1 #
edge $-1 $709 $682 $590 $747 0 #
edge $-1 $645 $703 $641 $748 0 #
ellipse-curve $-1 393.972440944882 -7.2369173161802e-14 0 1 -1.83690953073356e-16 0 -4.15724057321899e-14 -226.317110541575 26.4343624290974 1 #
coedge $-1 $680 $586 $642 $720 1 $542 $-1 #
coedge $-1 $587 $679 $674 $745 1 $542 $-1 #
point $-1 393.972440944882 -227.46062992126 13.4116321431762 #
vertex $-1 $591 $749 #
straight-curve $-1 85.2212686723278 84.3776130639183 0 0.703580632056841 -0.710615433405788 0 #
coedge $-1 $685 $593 $611 $694 1 $595 $-1 #
coedge $-1 $594 $684 $606 $692 1 $595 $-1 #
face $-1 $93 $595 $2 $-1 $750 forward single #
edge $-1 $600 $688 $615 $751 0 #
vertex $-1 $694 $752 #
straight-curve $-1 -256.056834930943 422.568645954565 0 0 0 -1 #
point $-1 -422.461136968819 256.234172213113 39.3700787401575 #
ellipse-curve $-1 83.255905511811 83.255905511811 0 0.707106781186548 0.707106781186548 0 -310.825050649924 310.825050649924 6.7065965101243 1 #
edge $-1 $609 $695 $606 $753 0 #
point $-1 -227.46062992126 393.972440944882 13.4116321431762 #
edge $-1 $695 $688 $611 $754 0 #
vertex $-1 $612 $755 #
straight-curve $-1 227.46062992126 393.972440944882 39.3700787401575 -1 0 0 #
ellipse-curve $-1 0 0 192.913385826772 0 0 -1 2.52405706532445e-14 412.209800749375 0 1 #
point $-1 172.244094488189 374.498186574759 192.913385826772 #
point $-1 -227.46062992126 -393.972440944882 39.3700787401575 #
coedge $-1 $701 $626 $629 $707 0 $702 $-1 #
coedge $-1 $626 $700 $718 $756 1 $702 $-1 #
loop $-1 $-1 $700 $672 #
vertex $-1 $677 $757 #
ellipse-curve $-1 -4.82461154412013e-14 -393.972440944882 0 -1.22460635382238e-16 -1 0 226.317110541575 -2.77149371547934e-14 26.4343624290974 1 #
coedge $-1 $706 $628 $675 $746 1 $630 $-1 #
coedge $-1 $629 $705 $758 $759 1 $630 $-1 #
edge $-1 $631 $760 $700 $761 0 #
point $-1 227.46062992126 -393.972440944882 13.4116321431762 #
vertex $-1 $676 $762 #
straight-curve $-1 227.46062992126 -393.972440944882 0 0.707106781186548 -0.707106781186548 0 #
face $-1 $257 $728 $2 $-1 $763 forward single #
plane-surface $-1 0 0 39.3700787401575 0 0 1 1 0 0 0 #
coedge $-1 $661 $653 $638 $714 0 $728 $-1 #
edge $-1 $655 $715 $638 $764 0 #
vertex $-1 $639 $765 #
straight-curve $-1 393.972440944882 227.46062992126 0 0 0 1 #
straight-curve $-1 393.972440944882 -227.46062992126 0 0 0 1 #
coedge $-1 $758 $641 $701 $756 0 $643 $-1 #
coedge $-1 $642 $758 $744 $766 1 $643 $-1 #
edge $-1 $767 $644 $679 $768 0 #
point $-1 393.972440944882 -227.46062992126 39.3700787401575 #
point $-1 393.972440944882 -224.428623265648 39.3700787401575 #
plane-surface $-1 0 393.972440944882 0 0 1 0 0 0 1 0 #
coedge $-1 $736 $725 $727 $769 1 $650 $-1 #
coedge $-1 $724 $736 $652 $726 1 $650 $-1 #
edge $-1 $729 $732 $725 $770 0 #
coedge $-1 $653 $738 $724 $769 0 $728 $-1 #
loop $-1 $-1 $653 $711 #
vertex $-1 $654 $771 #
ellipse-curve $-1 0 0 39.3700787401575 0 0 -1 320.610738407951 320.61073840795 0 1 #
point $-1 393.972440944882 224.428623265647 39.3700787401575 #
vertex $-1 $737 $772 #
ellipse-curve $-1 -84.3776130639183 85.2212686723278 0 -0.703580632056841 0.710615433405788 0 311.947443479654 308.859291726921 6.70659861302079 1 #
straight-curve $-1 393.972440944882 227.46062992126 39.3700787401575 0.707106781186548 0.707106781186548 0 #
point $-1 422.568645954565 256.056834930943 39.3700787401575 #
coedge $-1 $725 $724 $665 $737 1 $650 $-1 #
edge $-1 $732 $773 $736 $774 0 #
coedge $-1 $727 $668 $666 $739 0 $728 $-1 #
edge $-1 $670 $773 $738 $775 0 #
plane-surface $-1 366.653543307087 531.787401574803 0 -0.703580632056841 0.710615433405788 0 0 -0 1 0 #
ellipse-curve $-1 0 0 39.3700787401575 0 0 -1 349.450875549445 349.304235354301 0 1 #
point $-1 256.234172213113 422.461136968819 39.3700787401575 #
plane-surface $-1 -4.82461154412013e-14 -393.972440944882 0 -1.22460635382238e-16 -1 0 0 -0 -1 0 #
coedge $-1 $675 $674 $719 $766 0 $474 $-1 #
edge $-1 $682 $767 $680 $776 0 #
edge $-1 $777 $709 $675 $778 0 #
ellipse-curve $-1 0 0 0 0 0 1 349.304235354301 -349.450875549445 0 1 #
ellipse-curve $-1 0 0 39.3700787401575 0 0 -1 320.61073840795 -320.610738407951 0 1 #
point $-1 422.461136968819 -256.234172213113 0 #
plane-surface $-1 -366.653543307087 533.165354330709 0 0.707106781186548 0.707106781186548 0 0 0 -1 0 #
ellipse-curve $-1 0 0 39.3700787401575 0 0 -1 -349.304235354301 349.450875549445 0 1 #
point $-1 -256.056834930943 422.568645954565 39.3700787401575 #
straight-curve $-1 -227.46062992126 393.972440944882 0 0 0 1 #
straight-curve $-1 -227.46062992126 393.972440944882 39.3700787401575 -0.707106781186548 0.707106781186548 0 #
point $-1 -227.46062992126 393.972440944882 39.3700787401575 #
edge $-1 $703 $760 $718 $779 0 #
point $-1 224.428623265647 -393.972440944882 39.3700787401575 #
coedge $-1 $719 $718 $706 $759 0 $643 $-1 #
edge $-1 $760 $777 $758 $780 0 #
vertex $-1 $756 $781 #
straight-curve $-1 227.46062992126 -393.972440944882 0 0 0 1 #
point $-1 256.056834930943 -422.568645954565 0 #
plane-surface $-1 0 0 39.3700787401575 0 0 1 1 0 0 0 #
straight-curve $-1 393.972440944882 -227.46062992126 39.3700787401575 1.83690953073356e-16 1 0 #
point $-1 393.972440944882 227.46062992126 39.3700787401575 #
edge $-1 $767 $777 $719 $782 0 #
vertex $-1 $720 $783 #
straight-curve $-1 669.602362204724 -505.846456692913 39.3700787401575 -0.703580632056841 0.710615433405788 0 #
edge $-1 $773 $729 $727 $784 0 #
ellipse-curve $-1 0 393.972440944882 0 0 1 0 226.317110541575 0 26.4343624290974 1 #
point $-1 224.428623265648 393.972440944882 39.3700787401575 #
point $-1 227.46062992126 393.972440944882 13.4116321431762 #
vertex $-1 $739 $785 #
straight-curve $-1 227.46062992126 393.972440944882 0 0 0 1 #
straight-curve $-1 505.846456692913 669.602362204724 39.3700787401575 -0.710615433405788 -0.703580632056841 0 #
straight-curve $-1 422.461136968819 -256.234172213113 0 0 0 1 #
vertex $-1 $759 $786 #
straight-curve $-1 256.056834930943 -422.568645954565 0 0 0 -1 #
straight-curve $-1 -227.46062992126 -393.972440944882 39.3700787401575 1 -1.22460635382238e-16 0 #
straight-curve $-1 227.46062992126 -393.972440944882 39.3700787401575 0.707106781186548 -0.707106781186548 0 #
point $-1 227.46062992126 -393.972440944882 39.3700787401575 #
ellipse-curve $-1 0 0 39.3700787401575 0 0 -1 349.304235354301 -349.450875549444 0 1 #
point $-1 422.461136968819 -256.234172213113 39.3700787401575 #
straight-curve $-1 227.46062992126 393.972440944882 39.3700787401575 -1 0 0 #
point $-1 227.46062992126 393.972440944882 39.3700787401575 #
point $-1 256.056834930943 -422.568645954565 39.3700787401575 #
