600 0 1 0           
120 GICL ACIS Healer - Source: /gicl/data5/repository/Parasolid/NIST/Pete_Brown/inner_malloctb/inner_malloctb.step.sat - 6 0 18 ACIS 6.0.3 Solaris 24 Sun Apr 14 00:32:09 2002 
1 9.999999999999999547e-07 1.000000000000000036e-10 
body $-1 $1 $-1 $-1 #
lump $-1 $-1 $2 $0 #
shell $-1 $-1 $-1 $3 $-1 $1 #
face $-1 $4 $5 $2 $-1 $6 reversed single #
face $-1 $7 $8 $2 $-1 $9 reversed single #
loop $-1 $-1 $10 $3 #
plane-surface $-1 0 -4375.000000000000909 0 0 -1 0 0 0 -25.39999999999999858 forward_v I I I I #
face $-1 $11 $12 $2 $-1 $13 reversed single #
loop $-1 $-1 $14 $4 #
plane-surface $-1 0 4375.000000000000909 0 0 1 0 0 0 25.39999999999999858 forward_v I I I I #
coedge $-1 $15 $16 $17 $18 reversed $5 $-1 #
face $-1 $19 $20 $2 $-1 $21 reversed single #
loop $-1 $-1 $22 $7 #
plane-surface $-1 0 0 1000.000000000000568 0 0 1 25.39999999999999858 0 0 forward_v I I I I #
coedge $-1 $23 $24 $25 $26 reversed $8 $-1 #
coedge $-1 $27 $10 $28 $29 forward $5 $-1 #
coedge $-1 $10 $27 $30 $31 reversed $5 $-1 #
coedge $-1 $32 $33 $10 $18 forward $34 $-1 #
edge $-1 $35 -421.2653156609649727 $36 -378.389214443005983 $10 $37 forward 7 unknown #
face $-1 $38 $39 $2 $-1 $40 reversed single #
loop $-1 $-1 $41 $11 #
plane-surface $-1 0 0 1000.000000000000568 0 0 1 25.39999999999999858 0 0 forward_v I I I I #
coedge $-1 $42 $43 $27 $44 forward $12 $-1 #
coedge $-1 $45 $14 $46 $47 forward $8 $-1 #
coedge $-1 $14 $45 $48 $49 reversed $8 $-1 #
coedge $-1 $43 $42 $14 $26 forward $12 $-1 #
edge $-1 $50 -419.4215815607560103 $51 -376.3354813285470755 $14 $52 forward 7 unknown #
coedge $-1 $16 $15 $22 $44 reversed $5 $-1 #
coedge $-1 $53 $54 $15 $29 reversed $55 $-1 #
edge $-1 $35 1.570796326794896558 $56 1.664389638345597167 $15 $57 forward 7 unknown #
coedge $-1 $58 $59 $16 $31 forward $60 $-1 #
edge $-1 $36 1.570796326794896558 $61 1.675031490369439213 $16 $62 forward 7 unknown #
coedge $-1 $63 $17 $59 $64 reversed $34 $-1 #
coedge $-1 $17 $65 $53 $66 forward $34 $-1 #
loop $-1 $-1 $33 $67 #
vertex $-1 $18 $68 #
vertex $-1 $18 $69 #
straight-curve $-1 0 -4375.000000000000909 0 25.39999999999999858 0 0 I I #
face $-1 $67 $70 $2 $-1 $71 reversed single #
loop $-1 $-1 $72 $19 #
plane-surface $-1 0 4375.000000000000909 0 0 1 0 0 0 25.39999999999999858 forward_v I I I I #
coedge $-1 $73 $74 $75 $76 forward $20 $-1 #
coedge $-1 $25 $22 $54 $77 forward $12 $-1 #
coedge $-1 $22 $25 $58 $78 reversed $12 $-1 #
edge $-1 $61 376.3354813285470755 $56 419.4215815607560103 $27 $79 forward 7 unknown #
coedge $-1 $24 $23 $80 $81 reversed $8 $-1 #
coedge $-1 $54 $82 $23 $47 reversed $55 $-1 #
edge $-1 $50 1.477203015244196171 $83 1.570796326794896558 $23 $84 forward 7 unknown #
coedge $-1 $85 $58 $24 $49 forward $60 $-1 #
edge $-1 $51 1.466561163220354125 $86 1.570796326794896558 $24 $87 forward 7 unknown #
vertex $-1 $26 $88 #
vertex $-1 $26 $89 #
straight-curve $-1 0 4375.000000000000909 1000.000000000000568 25.39999999999999858 0 0 I I #
coedge $-1 $90 $28 $33 $66 reversed $55 $-1 #
coedge $-1 $28 $46 $42 $77 reversed $55 $-1 #
loop $-1 $91 $92 $93 #
vertex $-1 $29 $94 #
ellipse-curve $-1 0 -4375.000000000000909 0 0 1 0 0 0 -10700.13901778850959 1 I I #
coedge $-1 $48 $30 $43 $78 forward $60 $-1 #
coedge $-1 $30 $95 $32 $64 forward $60 $-1 #
loop $-1 $96 $59 $97 #
vertex $-1 $44 $98 #
ellipse-curve $-1 0 -4375.000000000000909 0 0 1 0 0 0 -9611.086046852351501 1 I I #
coedge $-1 $99 $32 $100 $101 forward $34 $-1 #
edge $-1 $102 1.997969050515014722 $36 2.714419929869675396 $32 $103 forward 7 unknown #
coedge $-1 $33 $104 $105 $106 reversed $34 $-1 #
edge $-1 $107 2.617876494113040131 $35 2.753460453801663377 $33 $108 forward 7 unknown #
face $-1 $109 $34 $2 $-1 $110 reversed single #
point $-1 -10700.13901778850959 -4375.000000000000909 0 #
point $-1 -9611.086046852351501 -4375.000000000000909 0 #
loop $-1 $-1 $111 $38 #
plane-surface $-1 0 -4375.000000000000909 0 0 -1 0 0 0 -25.39999999999999858 forward_v I I I I #
coedge $-1 $112 $113 $114 $115 reversed $39 $-1 #
coedge $-1 $116 $41 $117 $118 forward $20 $-1 #
coedge $-1 $41 $116 $119 $120 reversed $20 $-1 #
coedge $-1 $113 $112 $41 $76 reversed $39 $-1 #
edge $-1 $121 376.3354813285470755 $122 419.4215815607560103 $41 $123 forward 7 unknown #
edge $-1 $56 2.751921499865926268 $50 3.531263807313659964 $42 $124 forward 7 unknown #
edge $-1 $61 2.712364113573842328 $51 3.570821193605743904 $43 $125 forward 7 unknown #
straight-curve $-1 0 -4375.000000000000909 1000.000000000000568 -25.39999999999999858 0 0 I I #
coedge $-1 $126 $127 $45 $81 forward $128 $-1 #
edge $-1 $86 378.389214443005983 $83 421.2653156609649727 $45 $129 forward 7 unknown #
coedge $-1 $46 $130 $126 $131 reversed $55 $-1 #
vertex $-1 $47 $132 #
ellipse-curve $-1 0 4375.000000000000909 0 0 -1 0 0 0 10700.13901778850959 1 I I #
coedge $-1 $133 $48 $127 $134 forward $60 $-1 #
vertex $-1 $81 $135 #
ellipse-curve $-1 0 4375.000000000000909 0 0 -1 0 0 0 9611.086046852351501 1 I I #
point $-1 -10653.30817164320251 4375.000000000000909 1000.000000000000568 #
point $-1 -9558.921225745094489 4375.000000000000909 1000.000000000000568 #
coedge $-1 $136 $53 $137 $138 forward $55 $-1 #
loop $-1 $-1 $139 $93 #
coedge $-1 $140 $141 $142 $143 reversed $55 $-1 #
face $-1 $-1 $55 $2 $-1 $144 forward single #
point $-1 -10653.30817164320251 -4375.000000000000909 1000.000000000000568 #
coedge $-1 $59 $145 $146 $147 forward $60 $-1 #
loop $-1 $-1 $148 $97 #
face $-1 $149 $60 $2 $-1 $150 reversed single #
point $-1 -9558.921225745094489 -4375.000000000000909 1000.000000000000568 #
coedge $-1 $151 $63 $141 $152 forward $34 $-1 #
coedge $-1 $146 $142 $63 $101 reversed $153 $-1 #
edge $-1 $102 378.389214443005983 $154 421.2653156609649727 $63 $155 forward 7 unknown #
vertex $-1 $64 $156 #
ellipse-curve $-1 0 0 0 0 0 -1 10560 0 0 1 I I #
coedge $-1 $65 $151 $157 $158 reversed $34 $-1 #
coedge $-1 $159 $137 $65 $106 forward $160 $-1 #
edge $-1 $107 0.2046222240348291033 $161 40.44114095709505108 $65 $162 forward 7 unknown #
vertex $-1 $66 $163 #
ellipse-curve $-1 0 0 0 0 0 -1 11560.00000000001273 0 0 1 I I #
face $-1 $164 $165 $2 $-1 $166 reversed single #
plane-surface $-1 0 0 0 0 0 1 25.39999999999999858 0 0 forward_v I I I I #
coedge $-1 $167 $168 $116 $169 reversed $70 $-1 #
coedge $-1 $75 $72 $170 $171 forward $39 $-1 #
coedge $-1 $72 $75 $172 $173 reversed $39 $-1 #
coedge $-1 $174 $175 $72 $115 forward $176 $-1 #
edge $-1 $177 -421.2653156609649727 $178 -378.389214443005983 $72 $179 forward 7 unknown #
coedge $-1 $74 $73 $111 $169 forward $20 $-1 #
coedge $-1 $170 $180 $73 $118 reversed $55 $-1 #
edge $-1 $122 -0.3896711537238669032 $181 0.3896711537238669032 $73 $182 forward 7 unknown #
coedge $-1 $183 $172 $74 $120 forward $60 $-1 #
edge $-1 $121 -0.4292285400159510655 $184 0.4292285400159510655 $74 $185 forward 7 unknown #
vertex $-1 $76 $186 #
vertex $-1 $76 $187 #
straight-curve $-1 0 4375.000000000000909 1000.000000000000568 25.39999999999999858 0 0 I I #
ellipse-curve $-1 0 0 1000.000000000000568 0 0 -1 11516.66618427398862 0 0 1 I I #
ellipse-curve $-1 0 0 1000.000000000000568 0 0 -1 10512.54488694341126 0 0 1 I I #
coedge $-1 $188 $80 $82 $131 forward $128 $-1 #
coedge $-1 $80 $189 $85 $134 reversed $128 $-1 #
loop $-1 $-1 $127 $190 #
straight-curve $-1 0 4375.000000000000909 0 -25.39999999999999858 0 0 I I #
coedge $-1 $82 $191 $192 $193 forward $55 $-1 #
edge $-1 $83 -2.753460453801663377 $194 -2.617874175692017413 $126 $195 forward 7 unknown #
point $-1 -10700.13901778850959 4375.000000000000909 0 #
coedge $-1 $196 $85 $197 $198 forward $60 $-1 #
edge $-1 $86 -2.714419929869675396 $199 -1.997969050515014722 $127 $200 forward 7 unknown #
point $-1 -9611.086046852351501 4375.000000000000909 0 #
coedge $-1 $201 $90 $202 $203 forward $55 $-1 #
coedge $-1 $105 $204 $90 $138 reversed $160 $-1 #
edge $-1 $107 0 $205 0.03051177468468079315 $137 $206 forward 7 unknown #
coedge $-1 $139 $139 $207 $208 reversed $91 $-1 #
coedge $-1 $209 $92 $210 $211 reversed $55 $-1 #
coedge $-1 $92 $212 $99 $152 reversed $55 $-1 #
coedge $-1 $100 $213 $92 $143 forward $153 $-1 #
edge $-1 $214 1.095122046689320339 $154 1.570796326794896558 $142 $215 forward 7 unknown #
sphere-surface $-1 0 0 0 11560.00000000001273 1 0 0 0 0 1 forward_v I I I I #
coedge $-1 $95 $216 $217 $218 forward $60 $-1 #
coedge $-1 $213 $100 $95 $147 reversed $153 $-1 #
edge $-1 $219 1.035811578104711028 $102 1.570796326794896558 $146 $220 forward 7 unknown #
coedge $-1 $148 $148 $221 $222 forward $96 $-1 #
face $-1 $223 $224 $2 $-1 $225 reversed single #
sphere-surface $-1 0 0 0 10560 1 0 0 0 0 1 forward_v I I I I #
coedge $-1 $104 $99 $226 $227 forward $34 $-1 #
edge $-1 $154 1.958928526583026297 $228 2.094514804692672705 $99 $229 forward 7 unknown #
loop $-1 $-1 $213 $230 #
vertex $-1 $101 $231 #
straight-curve $-1 -4375.000000000000909 0 0 0 -25.39999999999999858 0 I I #
point $-1 -4375.000000000000909 -9611.086046852351501 0 #
coedge $-1 $232 $233 $104 $158 forward $234 $-1 #
edge $-1 $161 -2.596807274488951212 $235 -2.116001424308392664 $104 $236 forward 7 unknown #
coedge $-1 $237 $105 $233 $238 reversed $160 $-1 #
loop $-1 $-1 $237 $239 #
vertex $-1 $158 $240 #
straight-curve $-1 -10006.90000000000327 -5777.500000000003638 0 -17.96051224213831787 -17.96051224213831787 0 I I #
point $-1 -10010.57511995980713 -5781.175119959782023 0 #
face $-1 $230 $241 $2 $-1 $242 reversed single #
loop $-1 $-1 $243 $109 #
plane-surface $-1 0 0 0 0 0 1 25.39999999999999858 0 0 forward_v I I I I #
coedge $-1 $244 $111 $180 $245 forward $70 $-1 #
coedge $-1 $111 $244 $183 $246 reversed $70 $-1 #
edge $-1 $181 -419.4215815607560103 $184 -376.3354813285470755 $116 $247 forward 7 unknown #
coedge $-1 $248 $117 $112 $171 reversed $55 $-1 #
edge $-1 $177 -1.570796326794896558 $122 -1.477203015244196171 $112 $249 forward 7 unknown #
coedge $-1 $119 $250 $113 $173 forward $60 $-1 #
edge $-1 $178 -1.570796326794896558 $121 -1.466561163220354125 $113 $251 forward 7 unknown #
coedge $-1 $252 $114 $250 $253 reversed $176 $-1 #
coedge $-1 $114 $254 $248 $255 forward $176 $-1 #
loop $-1 $-1 $256 $257 #
vertex $-1 $115 $258 #
vertex $-1 $115 $259 #
straight-curve $-1 0 4375.000000000000909 0 -25.39999999999999858 0 0 I I #
coedge $-1 $117 $260 $167 $245 reversed $55 $-1 #
vertex $-1 $118 $261 #
ellipse-curve $-1 0 0 1000.000000000000568 0 0 -1 11516.66618427398862 0 0 1 I I #
coedge $-1 $262 $119 $168 $246 forward $60 $-1 #
vertex $-1 $169 $263 #
ellipse-curve $-1 0 0 1000.000000000000568 0 0 -1 10512.54488694341126 0 0 1 I I #
point $-1 9558.921225745094489 4375.000000000000909 1000.000000000000568 #
point $-1 10653.30817164320251 4375.000000000000909 1000.000000000000568 #
coedge $-1 $264 $126 $265 $266 forward $128 $-1 #
coedge $-1 $127 $267 $268 $269 forward $128 $-1 #
face $-1 $97 $128 $2 $-1 $270 reversed single #
coedge $-1 $130 $271 $272 $273 forward $55 $-1 #
coedge $-1 $274 $265 $130 $193 reversed $275 $-1 #
edge $-1 $276 3.111039803469124454 $194 3.141592653589793116 $192 $277 forward 7 unknown #
vertex $-1 $131 $278 #
ellipse-curve $-1 0 0 0 0 0 -1 11560.00000000001273 0 0 1 I I #
coedge $-1 $279 $133 $280 $281 forward $60 $-1 #
coedge $-1 $268 $282 $133 $198 reversed $283 $-1 #
edge $-1 $199 -1.570796326794896558 $284 -1.035811578104711028 $197 $285 forward 7 unknown #
vertex $-1 $269 $286 #
ellipse-curve $-1 0 0 0 0 0 -1 10560 0 0 1 I I #
coedge $-1 $287 $136 $288 $289 reversed $55 $-1 #
coedge $-1 $290 $291 $136 $203 reversed $292 $-1 #
edge $-1 $205 -1.511902080634932588 $293 -1.397139669826253039 $202 $294 forward 7 unknown #
coedge $-1 $137 $237 $290 $295 reversed $160 $-1 #
vertex $-1 $295 $296 #
ellipse-curve $-1 -2114.699999999998909 2114.699999999998909 0 -0.7071067811865475727 0.7071067811865475727 0 -7895.875119959790936 -7895.875119959790936 0 1 I I #
coedge $-1 $207 $207 $139 $208 forward $224 $-1 #
edge $-1 $297 0 $297 6.283185307179586232 $207 $298 forward 7 unknown #
coedge $-1 $299 $140 $300 $301 reversed $55 $-1 #
coedge $-1 $302 $303 $140 $211 forward $241 $-1 #
edge $-1 $304 1.13971284208784418 $214 2.001879811501948936 $210 $305 forward 7 unknown #
coedge $-1 $141 $287 $306 $307 forward $55 $-1 #
coedge $-1 $142 $146 $302 $308 reversed $153 $-1 #
vertex $-1 $211 $309 #
ellipse-curve $-1 -4375.000000000000909 0 0 1 0 0 0 0 10700.13901778850959 1 I I #
coedge $-1 $145 $262 $310 $311 forward $60 $-1 #
coedge $-1 $303 $302 $145 $218 reversed $241 $-1 #
edge $-1 $312 1.084112256729717672 $219 2.057480396860075444 $217 $313 forward 7 unknown #
vertex $-1 $308 $314 #
ellipse-curve $-1 -4375.000000000000909 0 0 1 0 0 0 0 9611.086046852351501 1 I I #
coedge $-1 $221 $221 $148 $222 reversed $315 $-1 #
edge $-1 $316 0 $316 6.283185307179586232 $148 $317 forward 7 unknown #
face $-1 $318 $319 $2 $-1 $320 forward single #
loop $-1 $315 $207 $149 #
plane-surface $-1 0 0 5779.999999999993634 0 0 -1 -25.39999999999999858 0 0 forward_v I I I I #
coedge $-1 $306 $321 $151 $227 reversed $322 $-1 #
edge $-1 $228 439.0333108597830574 $235 479.3194311085680965 $151 $323 forward 7 unknown #
vertex $-1 $152 $324 #
ellipse-curve $-1 0 0 0 0 0 -1 11560.00000000001273 0 0 1 I I #
face $-1 $325 $153 $2 $-1 $326 reversed single #
point $-1 -4375.000000000000909 -10700.13901778850959 0 #
coedge $-1 $327 $157 $321 $328 forward $234 $-1 #
coedge $-1 $157 $327 $159 $238 forward $234 $-1 #
loop $-1 $-1 $157 $329 #
vertex $-1 $227 $330 #
ellipse-curve $-1 0 0 0 0 0 1 12549.99999999999091 0 0 1 I I #
coedge $-1 $204 $159 $331 $332 reversed $160 $-1 #
edge $-1 $333 -39.37007874015750275 $161 0 $233 $334 forward 7 unknown #
face $-1 $335 $160 $2 $-1 $336 forward single #
point $-1 -10733.24360724594953 -6503.843607245951716 0 #
loop $-1 $-1 $303 $164 #
plane-surface $-1 0 0 4900.000000000008185 0 0 1 25.39999999999999858 0 0 forward_v I I I I #
coedge $-1 $337 $338 $262 $339 reversed $165 $-1 #
coedge $-1 $168 $167 $337 $340 reversed $70 $-1 #
edge $-1 $181 -1.664389638345597167 $341 -1.570796326794896558 $167 $342 forward 7 unknown #
edge $-1 $184 -1.675031490369439213 $343 -1.570796326794896558 $168 $344 forward 7 unknown #
straight-curve $-1 0 -4375.000000000000909 1000.000000000000568 -25.39999999999999858 0 0 I I #
coedge $-1 $345 $170 $175 $255 reversed $55 $-1 #
ellipse-curve $-1 0 4375.000000000000909 0 0 -1 0 0 0 10700.13901778850959 1 I I #
coedge $-1 $172 $279 $174 $253 forward $60 $-1 #
ellipse-curve $-1 0 4375.000000000000909 0 0 -1 0 0 0 9611.086046852351501 1 I I #
coedge $-1 $346 $174 $347 $348 forward $176 $-1 #
edge $-1 $349 -1.143623603074778616 $178 -0.4271727237201179417 $250 $350 forward 7 unknown #
coedge $-1 $175 $256 $351 $352 reversed $176 $-1 #
edge $-1 $353 -0.5237161594767533179 $177 -0.3881321997881296282 $175 $354 forward 7 unknown #
coedge $-1 $254 $355 $356 $357 reversed $176 $-1 #
face $-1 $358 $176 $2 $-1 $359 forward single #
point $-1 10700.13901778850959 4375.000000000000909 0 #
point $-1 9611.086046852351501 4375.000000000000909 0 #
coedge $-1 $180 $360 $361 $362 reversed $55 $-1 #
point $-1 10653.30817164320251 -4375.000000000000909 1000.000000000000568 #
coedge $-1 $216 $183 $243 $339 forward $60 $-1 #
point $-1 9558.921225745094489 -4375.000000000000909 1000.000000000000568 #
coedge $-1 $363 $188 $364 $365 reversed $128 $-1 #
coedge $-1 $192 $366 $188 $266 reversed $275 $-1 #
edge $-1 $194 439.0333108597830574 $367 479.3194311085680965 $188 $368 forward 7 unknown #
coedge $-1 $189 $363 $369 $370 forward $128 $-1 #
coedge $-1 $371 $197 $189 $269 reversed $283 $-1 #
edge $-1 $372 -421.2653156609649727 $199 -378.389214443005983 $268 $373 forward 7 unknown #
plane-surface $-1 0 0 0 0 0 1 25.39999999999999858 0 0 forward_v I I I I #
coedge $-1 $191 $374 $375 $376 reversed $55 $-1 #
coedge $-1 $377 $378 $191 $273 reversed $379 $-1 #
edge $-1 $380 1.397139669826253705 $276 1.511902080634932588 $272 $381 forward 7 unknown #
coedge $-1 $382 $192 $378 $383 forward $275 $-1 #
loop $-1 $-1 $265 $384 #
vertex $-1 $383 $385 #
ellipse-curve $-1 -2164.620224277125999 -2143.191371823524605 0 -0.7106154334057881439 -0.703580632056841071 0 7845.941492457835011 -7924.389700495550642 0 1 I I #
point $-1 -10010.56171673494828 5781.19832867203877 0 #
coedge $-1 $250 $196 $386 $387 forward $60 $-1 #
coedge $-1 $388 $389 $196 $281 reversed $390 $-1 #
edge $-1 $284 -2.057480396860075444 $391 -1.084112256729717672 $280 $392 forward 7 unknown #
coedge $-1 $197 $371 $388 $393 reversed $283 $-1 #
loop $-1 $-1 $268 $394 #
vertex $-1 $393 $395 #
ellipse-curve $-1 -4375.000000000000909 0 0 1 0 0 0 0 9611.086046852351501 1 I I #
point $-1 -4375.000000000000909 9611.086046852351501 0 #
coedge $-1 $212 $201 $396 $397 forward $55 $-1 #
coedge $-1 $398 $399 $201 $289 forward $400 $-1 #
edge $-1 $401 2.088604903320003814 $293 2.623784077064688081 $288 $402 forward 7 unknown #
coedge $-1 $291 $202 $204 $295 forward $292 $-1 #
coedge $-1 $202 $290 $398 $403 reversed $292 $-1 #
loop $-1 $-1 $290 $404 #
vertex $-1 $289 $405 #
ellipse-curve $-1 -10006.90000000000327 6.127256661032576926e-13 0 -1 6.123031769111889989e-17 0 0 0 5787.534223656916765 1 I I #
edge $-1 $205 13.41163214317620067 $406 39.37007874015750275 $290 $407 forward 7 unknown #
point $-1 -10006.90000000000327 -5777.500000000003638 340.6554564366754789 #
vertex $-1 $208 $408 #
ellipse-curve $-1 0 0 5779.999999999993634 0 0 1 -10011.25366774809663 0 0 1 I I #
coedge $-1 $409 $209 $410 $411 reversed $55 $-1 #
coedge $-1 $412 $413 $209 $301 forward $414 $-1 #
edge $-1 $415 1.570796326794896558 $304 2.046470606900473221 $300 $416 forward 7 unknown #
coedge $-1 $217 $210 $213 $308 forward $241 $-1 #
coedge $-1 $210 $217 $412 $417 forward $241 $-1 #
vertex $-1 $417 $418 #
ellipse-curve $-1 0 0 4900.000000000008185 0 0 -1 10470.12893903412441 0 0 1 I I #
coedge $-1 $419 $226 $212 $307 reversed $322 $-1 #
edge $-1 $420 3.111039803469124454 $228 3.141592653589793116 $306 $421 forward 7 unknown #
edge $-1 $214 -374.4981865747590177 $219 -325.5193130609089849 $302 $422 forward 7 unknown #
point $-1 -4375.000000000000909 -9512.253938998877857 4900.000000000008185 #
coedge $-1 $413 $412 $216 $311 reversed $414 $-1 #
edge $-1 $423 1.570796326794896558 $312 2.105781075485082532 $310 $424 forward 7 unknown #
vertex $-1 $417 $425 #
ellipse-curve $-1 0 0 4900.000000000008185 0 0 -1 9354.335893049799779 0 0 1 I I #
point $-1 -4375.000000000000909 -8268.190551747087738 4900.000000000008185 #
loop $-1 $-1 $221 $149 #
vertex $-1 $222 $426 #
ellipse-curve $-1 0 0 5779.999999999993634 0 0 1 -8837.714636714623339 0 0 1 I I #
face $-1 $427 $428 $2 $-1 $429 forward single #
loop $-1 $-1 $430 $223 #
plane-surface $-1 10006.90000000000327 -1.838176998309770755e-12 0 1 -1.836909530733559971e-16 0 0 0 -25.39999999999999858 forward_v I I I I #
coedge $-1 $226 $431 $232 $328 reversed $322 $-1 #
loop $-1 $-1 $226 $432 #
straight-curve $-1 2143.191371823524605 -2164.620224277125999 0 -18.04963200850701455 -17.87094805424375821 0 I I #
point $-1 -5781.19832867203877 -10010.56171673494828 0 #
face $-1 $433 $414 $2 $-1 $434 reversed single #
plane-surface $-1 -4375.000000000000909 0 0 -1 0 0 0 0 25.39999999999999858 forward_v I I I I #
coedge $-1 $233 $232 $435 $436 forward $234 $-1 #
edge $-1 $235 0 $437 39.37007874015750275 $321 $438 forward 7 unknown #
face $-1 $439 $234 $2 $-1 $440 forward single #
point $-1 -6508.347974213070302 -10730.51287900800162 0 #
coedge $-1 $435 $398 $237 $332 forward $400 $-1 #
edge $-1 $406 0 $333 40.44114095709505108 $331 $441 forward 7 unknown #
vertex $-1 $332 $442 #
straight-curve $-1 -10733.24360724594953 -6503.843607245951716 0 0 0 -25.39999999999999858 I I #
face $-1 $443 $444 $2 $-1 $445 forward single #
plane-surface $-1 -13542.40000000000691 -9313.000000000009095 0 -0.7071067811865475727 0.7071067811865475727 0 0 0 25.39999999999999858 forward_v I I I I #
coedge $-1 $361 $243 $244 $340 forward $165 $-1 #
coedge $-1 $243 $410 $413 $446 forward $165 $-1 #
edge $-1 $343 0.4271727237201179417 $423 1.143623603074778616 $243 $447 forward 7 unknown #
edge $-1 $343 378.389214443005983 $341 421.2653156609649727 $244 $448 forward 7 unknown #
vertex $-1 $245 $449 #
ellipse-curve $-1 0 -4375.000000000000909 0 0 1 0 0 0 -10700.13901778850959 1 I I #
vertex $-1 $340 $450 #
ellipse-curve $-1 0 -4375.000000000000909 0 0 1 0 0 0 -9611.086046852351501 1 I I #
coedge $-1 $451 $248 $452 $453 forward $55 $-1 #
coedge $-1 $355 $252 $454 $455 forward $176 $-1 #
coedge $-1 $386 $456 $252 $348 reversed $457 $-1 #
edge $-1 $349 378.389214443005983 $458 421.2653156609649727 $347 $459 forward 7 unknown #
vertex $-1 $348 $460 #
ellipse-curve $-1 0 0 0 0 0 -1 10560 0 0 1 I I #
coedge $-1 $461 $452 $254 $352 forward $462 $-1 #
edge $-1 $353 0.2046222240348291033 $463 40.44114095709505108 $351 $464 forward 7 unknown #
vertex $-1 $453 $465 #
ellipse-curve $-1 0 0 0 0 0 -1 11560.00000000001273 0 0 1 I I #
coedge $-1 $256 $346 $466 $467 reversed $176 $-1 #
coedge $-1 $468 $469 $256 $357 forward $470 $-1 #
edge $-1 $463 0.5447853791008421265 $471 1.025591229281400896 $256 $472 forward 7 unknown #
face $-1 $473 $474 $2 $-1 $475 forward single #
plane-surface $-1 0 0 0 0 0 -1 -25.39999999999999858 0 0 forward_v I I I I #
coedge $-1 $260 $476 $477 $478 forward $55 $-1 #
coedge $-1 $479 $337 $260 $362 forward $165 $-1 #
edge $-1 $341 0.3881321997881296282 $480 0.5237184778977759247 $361 $481 forward 7 unknown #
coedge $-1 $267 $264 $482 $483 forward $128 $-1 #
coedge $-1 $484 $485 $264 $365 forward $486 $-1 #
edge $-1 $487 2.115581705895738907 $367 2.596387556076297454 $264 $488 forward 7 unknown #
coedge $-1 $265 $382 $484 $489 reversed $275 $-1 #
vertex $-1 $266 $490 #
straight-curve $-1 -2164.620224277125999 -2143.191371823524605 0 -17.87094805424375821 18.04963200850701455 0 I I #
coedge $-1 $491 $492 $267 $370 reversed $55 $-1 #
edge $-1 $493 -2.094512486271649987 $372 -1.958928526583026297 $267 $494 forward 7 unknown #
coedge $-1 $282 $268 $492 $495 forward $283 $-1 #
vertex $-1 $269 $496 #
straight-curve $-1 -4375.000000000000909 0 0 0 -25.39999999999999858 0 I I #
coedge $-1 $271 $491 $497 $498 forward $55 $-1 #
coedge $-1 $499 $500 $271 $376 forward $444 $-1 #
edge $-1 $380 -2.62378407706468586 $501 -2.088604903320002038 $375 $502 forward 7 unknown #
coedge $-1 $378 $272 $500 $503 reversed $379 $-1 #
coedge $-1 $272 $377 $274 $383 reversed $379 $-1 #
loop $-1 $-1 $377 $439 #
vertex $-1 $503 $504 #
ellipse-curve $-1 -10006.90000000000327 6.127256661032576926e-13 0 -1 6.123031769111889989e-17 0 0 0 5787.534223656916765 1 I I #
coedge $-1 $366 $274 $505 $506 reversed $275 $-1 #
edge $-1 $276 13.41163214317620067 $507 39.37007874015750275 $378 $508 forward 7 unknown #
face $-1 $239 $275 $2 $-1 $509 forward single #
point $-1 -10006.90000000000327 5777.500000000003638 340.6554564366754789 #
coedge $-1 $510 $347 $279 $387 reversed $457 $-1 #
edge $-1 $391 -2.105781075485082532 $349 -1.570796326794896558 $386 $511 forward 7 unknown #
coedge $-1 $512 $280 $282 $393 forward $390 $-1 #
coedge $-1 $280 $512 $510 $513 forward $390 $-1 #
loop $-1 $-1 $388 $514 #
vertex $-1 $513 $515 #
ellipse-curve $-1 0 0 4900.000000000008185 0 0 -1 9354.335893049799779 0 0 1 I I #
edge $-1 $284 325.5193130609089849 $516 374.4981865747590177 $282 $517 forward 7 unknown #
face $-1 $514 $283 $2 $-1 $518 reversed single #
point $-1 -4375.000000000000909 8268.190551747087738 4900.000000000008185 #
coedge $-1 $519 $520 $287 $397 reversed $521 $-1 #
edge $-1 $401 1.397139669826253705 $420 1.511902080634932588 $396 $522 forward 7 unknown #
coedge $-1 $331 $288 $291 $403 forward $400 $-1 #
coedge $-1 $288 $523 $519 $524 forward $400 $-1 #
loop $-1 $-1 $523 $525 #
vertex $-1 $524 $526 #
ellipse-curve $-1 0 0 1000.000000000000568 0 0 -1 11516.66618427398862 0 0 1 I I #
edge $-1 $293 451.8892531869070126 $406 454.9212598425199872 $398 $527 forward 7 unknown #
face $-1 $384 $292 $2 $-1 $528 forward single #
point $-1 -10006.90000000000327 -5700.487030947433595 1000.000000000000568 #
vertex $-1 $403 $529 #
straight-curve $-1 -10006.90000000000327 -5777.500000000003638 0 0 0 25.39999999999999858 I I #
point $-1 -10011.25366774809663 0 5779.999999999993634 #
coedge $-1 $530 $299 $531 $532 forward $55 $-1 #
coedge $-1 $338 $533 $299 $411 forward $165 $-1 #
edge $-1 $534 1.047080167318143351 $415 1.182664127006767041 $410 $535 forward 7 unknown #
coedge $-1 $310 $300 $303 $417 reversed $414 $-1 #
coedge $-1 $300 $310 $338 $446 reversed $414 $-1 #
loop $-1 $-1 $413 $325 #
vertex $-1 $411 $536 #
ellipse-curve $-1 4375.000000000000909 0 0 -1 0 0 0 0 -10700.13901778850959 1 I I #
edge $-1 $312 325.5193130609089849 $304 374.4981865747590177 $303 $537 forward 7 unknown #
point $-1 4375.000000000000909 -9512.253938998877857 4900.000000000008185 #
coedge $-1 $431 $306 $520 $538 forward $322 $-1 #
vertex $-1 $538 $539 #
ellipse-curve $-1 2143.191371823524605 -2164.620224277125999 0 0.703580632056841071 -0.7106154334057881439 0 7924.389700495550642 7845.941492457835011 0 1 I I #
straight-curve $-1 -4375.000000000000909 0 4900.000000000008185 0 25.39999999999999858 0 I I #
vertex $-1 $339 $540 #
ellipse-curve $-1 4375.000000000000909 0 0 -1 0 0 0 0 -9611.086046852351501 1 I I #
point $-1 4375.000000000000909 -8268.190551747087738 4900.000000000008185 #
point $-1 -8837.714636714623339 0 5779.999999999993634 #
face $-1 $541 $542 $2 $-1 $543 forward single #
loop $-1 $-1 $544 $318 #
plane-surface $-1 10006.90000000000327 -1.838176998309770755e-12 0 1 -1.836909530733559971e-16 0 0 0 -25.39999999999999858 forward_v I I I I #
coedge $-1 $545 $546 $547 $548 reversed $319 $-1 #
coedge $-1 $321 $419 $523 $549 reversed $322 $-1 #
face $-1 $550 $322 $2 $-1 $551 forward single #
face $-1 $394 $457 $2 $-1 $552 reversed single #
plane-surface $-1 4375.000000000000909 0 0 1 0 0 0 0 -25.39999999999999858 forward_v I I I I #
coedge $-1 $523 $331 $327 $436 reversed $400 $-1 #
edge $-1 $437 -1.025591229281400896 $333 -0.5447853791008421265 $435 $553 forward 7 unknown #
vertex $-1 $549 $554 #
straight-curve $-1 -6508.347974213070302 -10730.51287900800162 0 0 0 25.39999999999999858 I I #
face $-1 $404 $379 $2 $-1 $555 forward single #
cone-surface $-1 0 0 0 0 0 1 12549.99999999999091 0 0 1 I I 0 1 12549.99999999999091 forward I I I I #
straight-curve $-1 -10006.90000000000327 -5777.500000000003638 1000.000000000000568 -17.96051224213831787 -17.96051224213831787 0 I I #
point $-1 -10733.24360724594953 -6503.843607245951716 1000.000000000000568 #
face $-1 $556 $486 $2 $-1 $557 forward single #
loop $-1 $-1 $505 $335 #
plane-surface $-1 0 0 1000.000000000000568 0 0 1 25.39999999999999858 0 0 forward_v I I I I #
edge $-1 $415 -421.2653156609649727 $423 -378.389214443005983 $338 $558 forward 7 unknown #
ellipse-curve $-1 0 0 0 0 0 -1 10560 0 0 1 I I #
straight-curve $-1 0 -4375.000000000000909 0 25.39999999999999858 0 0 I I #
point $-1 10700.13901778850959 -4375.000000000000909 0 #
point $-1 9611.086046852351501 -4375.000000000000909 0 #
coedge $-1 $559 $345 $560 $561 forward $55 $-1 #
coedge $-1 $351 $562 $345 $453 reversed $462 $-1 #
edge $-1 $353 0 $563 0.03051177468468079315 $452 $564 forward 7 unknown #
coedge $-1 $565 $566 $346 $455 reversed $55 $-1 #
edge $-1 $458 -1.182664127006767041 $567 -1.047077848897120633 $346 $568 forward 7 unknown #
coedge $-1 $347 $510 $565 $569 forward $457 $-1 #
loop $-1 $-1 $510 $433 #
vertex $-1 $569 $570 #
straight-curve $-1 4375.000000000000909 0 0 0 25.39999999999999858 0 I I #
point $-1 4375.000000000000909 9611.086046852351501 0 #
coedge $-1 $571 $351 $469 $572 reversed $462 $-1 #
loop $-1 $-1 $571 $541 #
vertex $-1 $352 $573 #
straight-curve $-1 10006.90000000000327 5777.500000000003638 0 17.96051224213831787 17.96051224213831787 0 I I #
point $-1 10010.57511995980713 5781.175119959782023 0 #
coedge $-1 $574 $575 $355 $467 forward $576 $-1 #
edge $-1 $471 351.2621211778021575 $567 391.5482414265871398 $355 $577 forward 7 unknown #
coedge $-1 $578 $356 $575 $579 forward $470 $-1 #
coedge $-1 $356 $578 $461 $572 forward $470 $-1 #
loop $-1 $-1 $578 $473 #
vertex $-1 $357 $580 #
ellipse-curve $-1 0 0 0 0 0 1 12549.99999999999091 0 0 1 I I #
face $-1 $581 $470 $2 $-1 $582 forward single #
loop $-1 $-1 $583 $358 #
cone-surface $-1 0 0 0 0 0 1 12549.99999999999091 0 0 1 I I 0 1 12549.99999999999091 forward I I I I #
coedge $-1 $360 $584 $546 $585 forward $55 $-1 #
coedge $-1 $586 $587 $360 $478 reversed $542 $-1 #
edge $-1 $588 3.111039803469124454 $480 3.141592653589793116 $477 $589 forward 7 unknown #
coedge $-1 $590 $361 $587 $591 forward $165 $-1 #
vertex $-1 $362 $592 #
ellipse-curve $-1 0 0 0 0 0 -1 11560.00000000001273 0 0 1 I I #
coedge $-1 $593 $594 $363 $483 reversed $595 $-1 #
edge $-1 $487 -479.8606794201240859 $493 -439.6241606870638066 $363 $596 forward 7 unknown #
coedge $-1 $597 $364 $366 $489 forward $486 $-1 #
coedge $-1 $364 $597 $593 $598 forward $486 $-1 #
loop $-1 $-1 $364 $443 #
vertex $-1 $365 $599 #
ellipse-curve $-1 0 0 0 0 0 1 12549.99999999999091 0 0 1 I I #
edge $-1 $367 0 $600 39.37007874015750275 $366 $601 forward 7 unknown #
point $-1 -10730.51287900800162 6508.347974213070302 0 #
coedge $-1 $374 $369 $594 $602 forward $55 $-1 #
coedge $-1 $369 $603 $371 $495 reversed $55 $-1 #
vertex $-1 $483 $604 #
ellipse-curve $-1 0 0 0 0 0 -1 11560.00000000001273 0 0 1 I I #
edge $-1 $372 -1.570796326794896558 $516 -1.095122046689320339 $371 $605 forward 7 unknown #
point $-1 -4375.000000000000909 10700.13901778850959 0 #
coedge $-1 $606 $607 $374 $498 reversed $608 $-1 #
edge $-1 $609 -1.511902080634932588 $501 -1.397139669826253039 $497 $610 forward 7 unknown #
coedge $-1 $611 $375 $607 $612 forward $444 $-1 #
coedge $-1 $375 $505 $377 $503 forward $444 $-1 #
vertex $-1 $376 $613 #
ellipse-curve $-1 0 0 1000.000000000000568 0 0 -1 11516.66618427398862 0 0 1 I I #
edge $-1 $507 0 $380 3.032006655611991341 $377 $614 forward 7 unknown #
point $-1 -10006.90000000000327 5700.487030947459061 1000.000000000000568 #
coedge $-1 $500 $615 $382 $506 forward $444 $-1 #
edge $-1 $600 351.2621211778021575 $507 391.7531391591439274 $382 $616 forward 7 unknown #
vertex $-1 $503 $617 #
straight-curve $-1 -10006.90000000000327 5777.500000000003638 0 0 0 25.39999999999999858 I I #
plane-surface $-1 -13507.39999999999418 9313.000000000009095 0 -0.7106154334057881439 -0.703580632056841071 0 0 0 25.39999999999999858 forward_v I I I I #
coedge $-1 $456 $386 $389 $513 reversed $457 $-1 #
ellipse-curve $-1 4375.000000000000909 0 0 -1 0 0 0 0 -9611.086046852351501 1 I I #
coedge $-1 $389 $388 $603 $618 forward $390 $-1 #
edge $-1 $619 -374.4981865747590177 $391 -325.5193130609089849 $510 $620 forward 7 unknown #
face $-1 $190 $390 $2 $-1 $621 reversed single #
point $-1 4375.000000000000909 8268.190551747087738 4900.000000000008185 #
vertex $-1 $495 $622 #
straight-curve $-1 -4375.000000000000909 0 4900.000000000008185 0 25.39999999999999858 0 I I #
plane-surface $-1 -4375.000000000000909 0 0 -1 0 0 0 0 25.39999999999999858 forward_v I I I I #
coedge $-1 $520 $396 $399 $524 reversed $521 $-1 #
coedge $-1 $396 $519 $419 $538 reversed $521 $-1 #
loop $-1 $-1 $519 $581 #
ellipse-curve $-1 -1.225451332206512962e-12 -10006.90000000000327 0 -1.22460635382237997e-16 -1 0 0 0 5787.534223656916765 1 I I #
coedge $-1 $399 $435 $431 $549 forward $400 $-1 #
edge $-1 $623 0 $401 3.032006655611991341 $519 $624 forward 7 unknown #
face $-1 $329 $400 $2 $-1 $625 forward single #
point $-1 -5700.487030947459061 -10006.90000000000327 1000.000000000000568 #
straight-curve $-1 -10006.90000000000327 5777.500000000003638 1000.000000000000568 -1.555250069354420065e-15 -25.39999999999999858 0 I I #
plane-surface $-1 -10006.90000000000327 6.127256661032576926e-13 0 -1 6.123031769111889989e-17 0 0 0 25.39999999999999858 forward_v I I I I #
point $-1 -10006.90000000000327 -5777.500000000003638 1000.000000000000568 #
coedge $-1 $584 $409 $626 $627 forward $55 $-1 #
coedge $-1 $628 $629 $409 $532 reversed $630 $-1 #
edge $-1 $534 0 $631 0.03051177468468079315 $531 $632 forward 7 unknown #
coedge $-1 $410 $590 $628 $633 reversed $165 $-1 #
vertex $-1 $633 $634 #
ellipse-curve $-1 0 0 0 0 0 -1 11560.00000000001273 0 0 1 I I #
point $-1 4375.000000000000909 -10700.13901778850959 0 #
straight-curve $-1 4375.000000000000909 0 4900.000000000008185 0 -25.39999999999999858 0 I I #
edge $-1 $420 13.41163214317620067 $623 39.37007874015750275 $520 $635 forward 7 unknown #
point $-1 -5777.500000000003638 -10006.90000000000327 340.6554564366754789 #
point $-1 4375.000000000000909 -9611.086046852351501 0 #
face $-1 $636 $462 $2 $-1 $637 forward single #
loop $-1 $-1 $587 $427 #
plane-surface $-1 13507.39999999999418 -9313.000000000009095 0 0.7106154334057881439 0.703580632056841071 0 0 0 -25.39999999999999858 forward_v I I I I #
coedge $-1 $638 $560 $562 $639 forward $428 $-1 #
coedge $-1 $546 $430 $586 $640 reversed $319 $-1 #
coedge $-1 $430 $545 $476 $585 reversed $319 $-1 #
coedge $-1 $641 $642 $430 $548 forward $643 $-1 #
edge $-1 $644 0 $645 3.032006655611991341 $430 $646 forward 7 unknown #
edge $-1 $437 351.2621211778021575 $623 391.7531391591439274 $431 $647 forward 7 unknown #
face $-1 $525 $630 $2 $-1 $648 forward single #
plane-surface $-1 -9313.000000000009095 -13507.39999999999418 0 0.703580632056841071 -0.7106154334057881439 0 0 0 -25.39999999999999858 forward_v I I I I #
plane-surface $-1 4375.000000000000909 0 0 1 0 0 0 0 -25.39999999999999858 forward_v I I I I #
ellipse-curve $-1 0 0 1000.000000000000568 0 0 -1 -12549.99999999999091 0 0 1 I I #
point $-1 -6508.347974213070302 -10730.51287900800162 1000.000000000000568 #
plane-surface $-1 -10006.90000000000327 6.127256661032576926e-13 0 -1 6.123031769111889989e-17 0 0 0 25.39999999999999858 forward_v I I I I #
face $-1 $649 $650 $2 $-1 $651 forward single #
cone-surface $-1 0 0 0 0 0 1 12549.99999999999091 0 0 1 I I 0 1 12549.99999999999091 forward I I I I #
straight-curve $-1 4375.000000000000909 0 0 0 25.39999999999999858 0 I I #
coedge $-1 $652 $451 $653 $654 reversed $55 $-1 #
coedge $-1 $544 $638 $451 $561 reversed $428 $-1 #
edge $-1 $563 -1.51190208063493281 $655 -1.397139669826253039 $560 $656 forward 7 unknown #
coedge $-1 $452 $571 $544 $639 reversed $462 $-1 #
vertex $-1 $639 $657 #
ellipse-curve $-1 2114.699999999998909 -2114.699999999998909 0 0.7071067811865475727 -0.7071067811865475727 0 7895.875119959790936 7895.875119959790936 0 1 I I #
coedge $-1 $603 $454 $456 $569 reversed $55 $-1 #
coedge $-1 $454 $652 $574 $658 forward $55 $-1 #
vertex $-1 $455 $659 #
ellipse-curve $-1 0 0 0 0 0 -1 11560.00000000001273 0 0 1 I I #
edge $-1 $619 -2.046470606900473221 $458 -1.570796326794896558 $456 $660 forward 7 unknown #
point $-1 4375.000000000000909 10700.13901778850959 0 #
coedge $-1 $562 $461 $661 $662 reversed $462 $-1 #
edge $-1 $663 -39.37007874015750275 $463 0 $461 $664 forward 7 unknown #
point $-1 10733.24360724594953 6503.843607245951716 0 #
coedge $-1 $665 $466 $566 $658 reversed $576 $-1 #
coedge $-1 $466 $666 $468 $579 reversed $576 $-1 #
loop $-1 $-1 $466 $667 #
straight-curve $-1 12848.49999999999091 17007.89999999999054 0 -18.04963200850701455 -17.87094805424375821 0 I I #
coedge $-1 $469 $468 $668 $669 forward $470 $-1 #
edge $-1 $471 0 $670 39.37007874015750275 $468 $671 forward 7 unknown #
point $-1 6508.347974213070302 10730.51287900800162 0 #
face $-1 $672 $521 $2 $-1 $673 forward single #
cone-surface $-1 0 0 0 0 0 1 12549.99999999999091 0 0 1 I I 0 1 12549.99999999999091 forward I I I I #
coedge $-1 $674 $675 $590 $676 forward $474 $-1 #
coedge $-1 $476 $530 $641 $677 reversed $55 $-1 #
edge $-1 $645 1.397139669826253705 $588 1.511902080634932588 $546 $678 forward 7 unknown #
coedge $-1 $679 $477 $545 $640 forward $542 $-1 #
coedge $-1 $477 $680 $479 $591 reversed $542 $-1 #
vertex $-1 $640 $681 #
ellipse-curve $-1 2164.620224277125999 2143.191371823524605 0 0.7106154334057881439 0.703580632056841071 0 -7845.941492457835011 7924.389700495550642 0 1 I I #
coedge $-1 $533 $479 $583 $676 reversed $165 $-1 #
edge $-1 $480 439.0333108597830574 $682 479.3194311085680965 $479 $683 forward 7 unknown #
point $-1 10010.56171673494828 -5781.19832867203877 0 #
coedge $-1 $684 $482 $485 $598 reversed $595 $-1 #
coedge $-1 $482 $685 $491 $602 reversed $595 $-1 #
loop $-1 $-1 $684 $686 #
straight-curve $-1 2114.699999999998909 2114.699999999998909 0 17.96051224213831787 -17.96051224213831787 0 I I #
coedge $-1 $485 $484 $615 $687 forward $486 $-1 #
edge $-1 $688 -39.37007874015750275 $487 0 $485 $689 forward 7 unknown #
point $-1 -6503.843607245951716 10733.24360724594953 0 #
vertex $-1 $506 $690 #
straight-curve $-1 -10730.51287900800162 6508.347974213070302 0 0 0 25.39999999999999858 I I #
edge $-1 $493 0 $609 0.03051177468468079315 $594 $691 forward 7 unknown #
coedge $-1 $492 $565 $512 $618 reversed $55 $-1 #
point $-1 -5781.175119959782023 10010.57511995980713 0 #
ellipse-curve $-1 -4375.000000000000909 0 0 1 0 0 0 0 10700.13901778850959 1 I I #
coedge $-1 $607 $497 $685 $692 forward $608 $-1 #
coedge $-1 $497 $606 $499 $612 reversed $608 $-1 #
loop $-1 $-1 $606 $649 #
vertex $-1 $692 $693 #
ellipse-curve $-1 0 10006.90000000000327 0 0 1 0 0 0 5787.534223656916765 1 I I #
coedge $-1 $615 $499 $684 $694 forward $444 $-1 #
edge $-1 $501 451.8892531869070126 $695 454.9212598425199872 $499 $696 forward 7 unknown #
point $-1 -5700.487030947433595 10006.90000000000327 1000.000000000000568 #
straight-curve $-1 -10006.90000000000327 5777.500000000003638 1000.000000000000568 -1.555250069354420065e-15 -25.39999999999999858 0 I I #
coedge $-1 $505 $611 $597 $687 reversed $444 $-1 #
straight-curve $-1 -17007.89999999999054 12848.49999999999091 1000.000000000000568 17.87094805424375821 -18.04963200850701455 0 I I #
point $-1 -10006.90000000000327 5777.500000000003638 1000.000000000000568 #
edge $-1 $516 -2.001879811501948936 $619 -1.13971284208784418 $512 $697 forward 7 unknown #
vertex $-1 $513 $698 #
straight-curve $-1 4375.000000000000909 0 4900.000000000008185 0 -25.39999999999999858 0 I I #
plane-surface $-1 0 0 4900.000000000008185 0 0 1 25.39999999999999858 0 0 forward_v I I I I #
point $-1 -4375.000000000000909 9512.253938998877857 4900.000000000008185 #
vertex $-1 $524 $699 #
straight-curve $-1 -5777.500000000003638 -10006.90000000000327 1000.000000000000568 25.39999999999999858 -3.110500138708844862e-15 0 I I #
plane-surface $-1 0 0 1000.000000000000568 0 0 1 25.39999999999999858 0 0 forward_v I I I I #
coedge $-1 $700 $701 $530 $627 reversed $702 $-1 #
edge $-1 $631 -1.511902080634932588 $703 -1.397139669826253039 $626 $704 forward 7 unknown #
coedge $-1 $705 $531 $533 $633 forward $630 $-1 #
coedge $-1 $531 $706 $700 $707 reversed $630 $-1 #
loop $-1 $-1 $706 $550 #
vertex $-1 $707 $708 #
ellipse-curve $-1 -2114.699999999998909 -2114.699999999998909 0 -0.7071067811865475727 -0.7071067811865475727 0 7895.875119959790936 -7895.875119959790936 0 1 I I #
edge $-1 $534 0.2046222240348291033 $709 40.44114095709505108 $533 $710 forward 7 unknown #
point $-1 5781.175119959782023 -10010.57511995980713 0 #
straight-curve $-1 -5777.500000000003638 -10006.90000000000327 0 0 0 25.39999999999999858 I I #
face $-1 $711 $643 $2 $-1 $712 forward single #
plane-surface $-1 13542.40000000000691 9313.000000000009095 0 0.7071067811865475727 -0.7071067811865475727 0 0 0 -25.39999999999999858 forward_v I I I I #
coedge $-1 $560 $544 $713 $714 reversed $428 $-1 #
edge $-1 $563 13.41163214317620067 $715 39.37007874015750275 $544 $716 forward 7 unknown #
edge $-1 $588 13.41163214317620067 $644 39.37007874015750275 $545 $717 forward 7 unknown #
coedge $-1 $718 $547 $584 $677 forward $643 $-1 #
coedge $-1 $547 $719 $679 $720 forward $643 $-1 #
loop $-1 $-1 $642 $636 #
vertex $-1 $548 $721 #
vertex $-1 $548 $722 #
straight-curve $-1 10006.90000000000327 -5777.500000000003638 1000.000000000000568 4.66575020806324205e-15 25.39999999999999858 0 I I #
straight-curve $-1 -12848.49999999999091 -17007.89999999999054 1000.000000000000568 18.04963200850701455 17.87094805424375821 0 I I #
plane-surface $-1 9313.000000000009095 -13542.40000000000691 0 -0.7071067811865475727 -0.7071067811865475727 0 0 0 25.39999999999999858 forward_v I I I I #
face $-1 $667 $608 $2 $-1 $723 forward single #
loop $-1 $-1 $724 $556 #
plane-surface $-1 0 10006.90000000000327 0 0 1 0 0 0 25.39999999999999858 forward_v I I I I #
coedge $-1 $566 $559 $725 $726 forward $55 $-1 #
coedge $-1 $713 $727 $559 $654 forward $728 $-1 #
edge $-1 $729 -1.052987750269789524 $655 -0.5178085765251052575 $653 $730 forward 7 unknown #
vertex $-1 $714 $731 #
ellipse-curve $-1 10006.90000000000327 -1.838176998309770755e-12 0 1 -1.836909530733559971e-16 0 0 0 5787.534223656916765 1 I I #
point $-1 10006.90000000000327 5777.500000000003638 340.6554564366754789 #
edge $-1 $732 3.111039803469124454 $567 3.141592653589793116 $574 $733 forward 7 unknown #
point $-1 5781.19832867203877 10010.56171673494828 0 #
ellipse-curve $-1 4375.000000000000909 0 0 -1 0 0 0 0 -10700.13901778850959 1 I I #
coedge $-1 $668 $713 $571 $662 forward $728 $-1 #
edge $-1 $715 0 $663 40.44114095709505108 $571 $734 forward 7 unknown #
vertex $-1 $662 $735 #
straight-curve $-1 10733.24360724594953 6503.843607245951716 0 0 0 -25.39999999999999858 I I #
coedge $-1 $666 $574 $736 $737 forward $576 $-1 #
coedge $-1 $575 $665 $738 $739 reversed $576 $-1 #
face $-1 $686 $576 $2 $-1 $740 forward single #
coedge $-1 $738 $661 $578 $669 reversed $728 $-1 #
edge $-1 $670 2.116001424308392664 $663 2.596807274488951212 $668 $741 forward 7 unknown #
vertex $-1 $669 $742 #
straight-curve $-1 6508.347974213070302 10730.51287900800162 0 0 0 25.39999999999999858 I I #
face $-1 $432 $702 $2 $-1 $743 forward single #
plane-surface $-1 -1.225451332206512962e-12 -10006.90000000000327 0 -1.22460635382237997e-16 -1 0 0 0 -25.39999999999999858 forward_v I I I I #
coedge $-1 $744 $583 $680 $745 forward $474 $-1 #
coedge $-1 $583 $744 $705 $746 forward $474 $-1 #
edge $-1 $709 -1.026010947694054432 $682 -0.5452050975134956623 $590 $747 forward 7 unknown #
edge $-1 $645 0.5178085765251071448 $703 1.052987750269791523 $641 $748 forward 7 unknown #
ellipse-curve $-1 10006.90000000000327 -1.838176998309770755e-12 0 1 -1.836909530733559971e-16 0 0 0 5787.534223656916765 1 I I #
coedge $-1 $680 $586 $642 $720 reversed $542 $-1 #
coedge $-1 $587 $679 $674 $745 reversed $542 $-1 #
point $-1 10006.90000000000327 -5777.500000000003638 340.6554564366754789 #
vertex $-1 $591 $749 #
straight-curve $-1 2164.620224277125999 2143.191371823524605 0 17.87094805424375821 -18.04963200850701455 0 I I #
coedge $-1 $685 $593 $611 $694 reversed $595 $-1 #
coedge $-1 $594 $684 $606 $692 reversed $595 $-1 #
face $-1 $93 $595 $2 $-1 $750 forward single #
edge $-1 $600 0.5452050975134956623 $688 1.026010947694054432 $615 $751 forward 7 unknown #
vertex $-1 $694 $752 #
straight-curve $-1 -6503.843607245951716 10733.24360724594953 0 0 0 -25.39999999999999858 I I #
point $-1 -10730.51287900800162 6508.347974213070302 1000.000000000000568 #
ellipse-curve $-1 2114.699999999998909 2114.699999999998909 0 0.7071067811865475727 0.7071067811865475727 0 -7895.875119959790936 7895.875119959790936 0 1 I I #
edge $-1 $609 13.41163214317620067 $695 39.37007874015750275 $606 $753 forward 7 unknown #
point $-1 -5777.500000000003638 10006.90000000000327 340.6554564366754789 #
edge $-1 $695 0 $688 40.44114095709505108 $611 $754 forward 7 unknown #
vertex $-1 $612 $755 #
straight-curve $-1 5777.500000000003638 10006.90000000000327 1000.000000000000568 -25.39999999999999858 0 0 I I #
ellipse-curve $-1 0 0 4900.000000000008185 0 0 -1 10470.12893903412441 0 0 1 I I #
point $-1 4375.000000000000909 9512.253938998877857 4900.000000000008185 #
point $-1 -5777.500000000003638 -10006.90000000000327 1000.000000000000568 #
coedge $-1 $701 $626 $629 $707 forward $702 $-1 #
coedge $-1 $626 $700 $718 $756 reversed $702 $-1 #
loop $-1 $-1 $700 $672 #
vertex $-1 $677 $757 #
ellipse-curve $-1 -1.225451332206512962e-12 -10006.90000000000327 0 -1.22460635382237997e-16 -1 0 0 0 5787.534223656916765 1 I I #
coedge $-1 $706 $628 $675 $746 reversed $630 $-1 #
coedge $-1 $629 $705 $758 $759 reversed $630 $-1 #
edge $-1 $631 13.41163214317620067 $760 39.37007874015750275 $700 $761 forward 7 unknown #
point $-1 5777.500000000003638 -10006.90000000000327 340.6554564366754789 #
vertex $-1 $676 $762 #
straight-curve $-1 5777.500000000003638 -10006.90000000000327 0 17.96051224213831787 -17.96051224213831787 0 I I #
face $-1 $257 $728 $2 $-1 $763 forward single #
plane-surface $-1 0 0 1000.000000000000568 0 0 1 25.39999999999999858 0 0 forward_v I I I I #
coedge $-1 $661 $653 $638 $714 forward $728 $-1 #
edge $-1 $655 451.8892531869070126 $715 454.9212598425199872 $638 $764 forward 7 unknown #
vertex $-1 $639 $765 #
straight-curve $-1 10006.90000000000327 5777.500000000003638 0 0 0 25.39999999999999858 I I #
straight-curve $-1 10006.90000000000327 -5777.500000000003638 0 0 0 25.39999999999999858 I I #
coedge $-1 $758 $641 $701 $756 forward $643 $-1 #
coedge $-1 $642 $758 $744 $766 reversed $643 $-1 #
edge $-1 $767 351.2621211778021575 $644 391.7531391591439274 $679 $768 forward 7 unknown #
point $-1 10006.90000000000327 -5777.500000000003638 1000.000000000000568 #
point $-1 10006.90000000000327 -5700.487030947459061 1000.000000000000568 #
plane-surface $-1 0 10006.90000000000327 0 0 1 0 0 0 25.39999999999999858 forward_v I I I I #
coedge $-1 $736 $725 $727 $769 reversed $650 $-1 #
coedge $-1 $724 $736 $652 $726 reversed $650 $-1 #
edge $-1 $729 1.397139669826253705 $732 1.511902080634932588 $725 $770 forward 7 unknown #
coedge $-1 $653 $738 $724 $769 forward $728 $-1 #
loop $-1 $-1 $653 $711 #
vertex $-1 $654 $771 #
ellipse-curve $-1 0 0 1000.000000000000568 0 0 -1 11516.66618427398862 0 0 1 I I #
point $-1 10006.90000000000327 5700.487030947433595 1000.000000000000568 #
vertex $-1 $737 $772 #
ellipse-curve $-1 -2143.191371823524605 2164.620224277125999 0 -0.703580632056841071 0.7106154334057881439 0 -7924.389700495550642 -7845.941492457835011 0 1 I I #
straight-curve $-1 10006.90000000000327 5777.500000000003638 1000.000000000000568 17.96051224213831787 17.96051224213831787 0 I I #
point $-1 10733.24360724594953 6503.843607245951716 1000.000000000000568 #
coedge $-1 $725 $724 $665 $737 reversed $650 $-1 #
edge $-1 $732 13.41163214317620067 $773 39.37007874015750275 $736 $774 forward 7 unknown #
coedge $-1 $727 $668 $666 $739 forward $728 $-1 #
edge $-1 $670 351.2621211778021575 $773 391.7531391591439274 $738 $775 forward 7 unknown #
plane-surface $-1 9313.000000000009095 13507.39999999999418 0 -0.703580632056841071 0.7106154334057881439 0 0 0 25.39999999999999858 forward_v I I I I #
ellipse-curve $-1 0 0 1000.000000000000568 0 0 -1 -12549.99999999999091 0 0 1 I I #
point $-1 6508.347974213070302 10730.51287900800162 1000.000000000000568 #
plane-surface $-1 -1.225451332206512962e-12 -10006.90000000000327 0 -1.22460635382237997e-16 -1 0 0 0 -25.39999999999999858 forward_v I I I I #
coedge $-1 $675 $674 $719 $766 forward $474 $-1 #
edge $-1 $682 0 $767 39.37007874015750275 $680 $776 forward 7 unknown #
edge $-1 $777 -39.37007874015750275 $709 0 $675 $778 forward 7 unknown #
ellipse-curve $-1 0 0 0 0 0 1 12549.99999999999091 0 0 1 I I #
ellipse-curve $-1 0 0 1000.000000000000568 0 0 -1 11516.66618427398862 0 0 1 I I #
point $-1 10730.51287900800162 -6508.347974213070302 0 #
plane-surface $-1 -9313.000000000009095 13542.40000000000691 0 0.7071067811865475727 0.7071067811865475727 0 0 0 -25.39999999999999858 forward_v I I I I #
ellipse-curve $-1 0 0 1000.000000000000568 0 0 -1 -12549.99999999999091 0 0 1 I I #
point $-1 -6503.843607245951716 10733.24360724594953 1000.000000000000568 #
straight-curve $-1 -5777.500000000003638 10006.90000000000327 0 0 0 25.39999999999999858 I I #
straight-curve $-1 -5777.500000000003638 10006.90000000000327 1000.000000000000568 -17.96051224213831787 17.96051224213831787 0 I I #
point $-1 -5777.500000000003638 10006.90000000000327 1000.000000000000568 #
edge $-1 $703 451.8892531869070126 $760 454.9212598425199872 $718 $779 forward 7 unknown #
point $-1 5700.487030947433595 -10006.90000000000327 1000.000000000000568 #
coedge $-1 $719 $718 $706 $759 forward $643 $-1 #
edge $-1 $760 0 $777 40.44114095709505108 $758 $780 forward 7 unknown #
vertex $-1 $756 $781 #
straight-curve $-1 5777.500000000003638 -10006.90000000000327 0 0 0 25.39999999999999858 I I #
point $-1 6503.843607245951716 -10733.24360724594953 0 #
plane-surface $-1 0 0 1000.000000000000568 0 0 1 25.39999999999999858 0 0 forward_v I I I I #
straight-curve $-1 10006.90000000000327 -5777.500000000003638 1000.000000000000568 4.66575020806324205e-15 25.39999999999999858 0 I I #
point $-1 10006.90000000000327 5777.500000000003638 1000.000000000000568 #
edge $-1 $767 -2.596387556076297454 $777 -2.115581705895738907 $719 $782 forward 7 unknown #
vertex $-1 $720 $783 #
straight-curve $-1 17007.89999999999054 -12848.49999999999091 1000.000000000000568 -17.87094805424375821 18.04963200850701455 0 I I #
edge $-1 $773 0 $729 3.032006655611991341 $727 $784 forward 7 unknown #
ellipse-curve $-1 0 10006.90000000000327 0 0 1 0 0 0 5787.534223656916765 1 I I #
point $-1 5700.487030947459061 10006.90000000000327 1000.000000000000568 #
point $-1 5777.500000000003638 10006.90000000000327 340.6554564366754789 #
vertex $-1 $739 $785 #
straight-curve $-1 5777.500000000003638 10006.90000000000327 0 0 0 25.39999999999999858 I I #
straight-curve $-1 12848.49999999999091 17007.89999999999054 1000.000000000000568 -18.04963200850701455 -17.87094805424375821 0 I I #
straight-curve $-1 10730.51287900800162 -6508.347974213070302 0 0 0 25.39999999999999858 I I #
vertex $-1 $759 $786 #
straight-curve $-1 6503.843607245951716 -10733.24360724594953 0 0 0 -25.39999999999999858 I I #
straight-curve $-1 -5777.500000000003638 -10006.90000000000327 1000.000000000000568 25.39999999999999858 -3.110500138708844862e-15 0 I I #
straight-curve $-1 5777.500000000003638 -10006.90000000000327 1000.000000000000568 17.96051224213831787 -17.96051224213831787 0 I I #
point $-1 5777.500000000003638 -10006.90000000000327 1000.000000000000568 #
ellipse-curve $-1 0 0 1000.000000000000568 0 0 -1 -12549.99999999999091 0 0 1 I I #
point $-1 10730.51287900800162 -6508.347974213070302 1000.000000000000568 #
straight-curve $-1 5777.500000000003638 10006.90000000000327 1000.000000000000568 -25.39999999999999858 0 0 I I #
point $-1 5777.500000000003638 10006.90000000000327 1000.000000000000568 #
point $-1 6503.843607245951716 -10733.24360724594953 1000.000000000000568 #
End-of-ACIS-data 