**ABCDEFGHIJKLMNOPQRSTUVWXYZabcdefghijklmnopqrstuvwxyz**************************
**PARASOLID !"#$%&'()*+,-./:;<=>?@[\]^_`{|}~0123456789**************************
**PART1;MC=sparc;MC_MODEL=sun4c;MC_ID=chaos;OS=SunOS;OS_RELEASE=4.1.2;FRU=sdl_pa
rasolid_test_sparc;APPL=unknown;SITE=sdl-cambridge-u.k.;USER=brown;FORMAT=text;G
UISE=transmit;KEY=inner_malloctb;FILE=inner_malloctb.xmt_txt;DATE=14-feb-1992;
**PART2;SCH=SCH_401021_4039;USFLD_SIZE=0;
**PART3;
**END_OF_HEADER*****************************************************************
T50 : TRANSMIT FILE created by modeller version 40102115 SCH_401021_40390 12 1 1
749 2 3 0 0 0 1e3 1e-8 4 2 0 5 6 1 7 1e-8 0 0 81 2 2 1749 8 1 0 0 0 0 9 10 70 3
 0 1 0 0 4 1 20 4 11 11 1 102 14 4 inner_malloctb13 7 16 0 1 0 12 13 14 15 16 17
 14 12 1538 0 18 0 19 7 15 -16 13 1582 0 20 0 21 16 18 14 1626 0 22 0 23 17 50 1
5 1650 0 12 24 0 0 +0 -4.375 0 0 -1 0 0 0 -1 31 16 1672 0 13 25 0 0 -1e-8 0 -4.3
75 0 0 -1 0 0 0 -1 9.61108604685235 29 17 1716 0 14 26 0 -10.7001390177885 4.375
 0 29 26 1717 0 23 27 17 -9.61108604685235 4.375 0 18 23 1627 0 28 14 29 26 29 2
7 1722 0 29 30 26 -9.61108604685235 -4.375 0 18 29 1632 0 31 23 32 27 29 30 1723
 0 32 33 27 -10.7001390177885 -4.375 0 18 32 1633 0 34 29 35 30 29 33 1726 0 35
 36 30 -9.55892122574509 4.375 1 18 35 1636 0 37 32 38 33 29 36 1727 0 38 39 33
 -10.6533081716432 4.375 1 18 38 1637 0 40 35 41 36 29 39 1729 0 41 42 36 -9.558
92122574509 -4.375 1 18 41 1639 0 20 38 43 39 29 42 1731 0 44 45 39 10.653308171
6432 -4.375 1 18 44 1641 0 46 47 48 42 29 45 1730 0 49 50 42 9.55892122574509 -4
.375 1 18 49 1640 0 51 52 53 45 29 50 1725 0 54 55 45 9.55892122574509 4.375 1 1
8 54 1635 0 56 43 47 50 29 55 1721 0 52 57 50 9.61108604685235 -4.375 0 18 52 16
31 0 58 48 49 55 29 57 1720 0 48 59 55 10.7001390177885 -4.375 0 18 48 1630 0 60
 44 52 57 29 59 1719 0 43 61 57 10.7001390177885 4.375 0 18 43 1629 0 62 41 54 5
9 29 61 1718 0 47 63 59 9.61108604685235 4.375 0 18 47 1628 0 64 54 44 61 29 63
 1437 0 53 65 61 -10.6533081716432 -4.375 1 18 53 1435 0 66 49 67 63 29 65 1429
 0 67 68 63 10.6533081716432 4.375 1 18 67 1427 0 69 53 70 65 29 68 1387 0 70 71
 65 -4.375 -10.7001390177885 0 18 70 1289 0 72 67 73 68 29 71 1388 0 73 74 68 -4
.375 -9.61108604685235 0 18 73 1290 0 75 70 76 71 29 74 1393 0 76 77 71 -4.375 -
8.2681905517471 4.9 18 76 1295 0 78 73 79 74 29 77 1394 0 79 80 74 -4.375 -9.512
25393899889 4.9 18 79 1296 0 81 76 82 77 29 80 1397 0 82 83 77 4.375 -9.51225393
899889 4.9 18 82 1299 0 84 79 85 80 29 83 1398 0 85 86 80 4.375 -8.2681905517471
 4.9 18 85 1300 0 87 82 88 83 29 86 1403 0 88 89 83 4.375 -9.61108604685235 0 18
 88 1305 0 90 85 91 86 29 89 1404 0 91 92 86 4.375 -10.7001390177885 0 18 91 130
6 0 93 88 94 89 29 92 1402 0 95 96 89 4.375 9.61108604685235 0 18 95 1304 0 97 9
4 98 92 29 96 1401 0 94 99 92 4.375 10.7001390177885 0 18 94 1303 0 100 91 95 96
 29 99 1399 0 101 102 96 4.375 8.2681905517471 4.9 18 101 1301 0 103 104 105 99
 29 102 1392 0 105 106 99 -4.375 8.2681905517471 4.9 18 105 1294 0 107 101 108 1
02 29 106 1391 0 104 109 102 -4.375 9.51225393899889 4.9 18 104 1293 0 110 111 1
01 106 29 109 1390 0 98 112 106 -4.375 10.7001390177885 0 18 98 1292 0 113 95 11
1 109 29 112 1389 0 111 114 109 -4.375 9.61108604685235 0 18 111 1291 0 115 98 1
04 112 29 114 1077 0 108 116 112 4.375 9.51225393899889 4.9 18 108 1075 0 117 10
5 118 114 29 116 1036 0 118 119 114 5.78117511995978 -10.0105751199598 0 18 118
 967 0 120 108 121 116 29 119 1037 0 121 122 116 -5.78119832867204 -10.010561716
73496 0 18 121 968 0 123 118 124 119 29 122 1038 0 124 125 119 -10.0105751199598
 -5.78117511995979 0 18 124 969 0 126 121 127 122 29 125 1039 0 127 128 122 -10.
01056171673496 5.78119832867204 0 18 127 970 0 129 124 130 125 29 128 1040 0 130
 131 125 -5.78117511995979 10.0105751199598 0 18 130 971 0 132 127 133 128 29 13
1 1041 0 133 134 128 5.78119832867204 10.01056171673496 0 18 133 972 0 135 130 1
36 131 29 134 1042 0 136 137 131 10.01056171673496 -5.78119832867204 0 18 136 97
3 0 138 133 139 134 29 137 786 0 139 140 134 10.73324360724594 6.50384360724595
 1 18 139 732 0 141 136 142 137 29 140 787 0 142 143 137 10.730512879008 -6.5083
4797421307 1 18 142 733 0 144 139 145 140 29 143 788 0 145 146 140 10.7332436072
4594 6.50384360724595 0 18 145 734 0 147 142 148 143 29 146 789 0 148 149 143 10
.730512879008 -6.50834797421307 0 18 148 735 0 150 145 151 146 29 149 791 0 151
 152 146 10.0105751199598 5.78117511995978 0 18 151 737 0 153 148 154 149 29 152
 792 0 154 155 149 10.0069 -5.7775 .3406554564366755 18 154 738 0 156 151 157 15
2 29 155 793 0 157 158 152 10.0069 5.7775 .3406554564366755 18 157 739 0 159 154
 160 155 29 158 794 0 160 161 155 10.0069 5.70048703094744 1 18 160 740 0 162 15
7 163 158 29 161 795 0 163 164 158 10.0069 -5.70048703094745 1 18 163 741 0 165
 160 166 161 29 164 798 0 166 167 161 10.0069 -5.7775 1 18 166 744 0 168 163 169
 164 29 167 801 0 169 170 164 10.0069 5.7775 1 18 169 747 0 171 166 172 167 29 1
70 592 0 172 173 167 6.50384360724595 -10.73324360724594 1 18 172 538 0 174 169
 175 170 29 173 593 0 175 176 170 -6.50834797421306 -10.730512879008 1 18 175 53
9 0 177 172 178 173 29 176 594 0 178 179 173 6.50384360724595 -10.73324360724594
 0 18 178 540 0 180 175 181 176 29 179 595 0 181 182 176 -6.50834797421306 -10.7
30512879008 0 18 181 541 0 183 178 184 179 29 182 598 0 184 185 179 -5.7775 -10.
0069 .3406554564366755 18 184 544 0 186 181 187 182 29 185 599 0 187 188 182 5.7
775 -10.0069 .3406554564366755 18 187 545 0 189 184 190 185 29 188 600 0 190 191
 185 5.70048703094744 -10.0069 1 18 190 546 0 192 187 193 188 29 191 601 0 193 1
94 188 -5.70048703094745 -10.0069 1 18 193 547 0 195 190 196 191 29 194 604 0 19
6 197 191 -5.7775 -10.0069 1 18 196 550 0 198 193 199 194 29 197 607 0 199 200 1
94 5.7775 -10.0069 1 18 199 553 0 201 196 202 197 29 200 398 0 202 203 197 -10.7
3324360724594 -6.50384360724595 1 18 202 344 0 204 199 205 200 29 203 399 0 205
 206 200 -10.730512879008 6.50834797421306 1 18 205 345 0 207 202 208 203 29 206
 400 0 208 209 203 -10.73324360724594 -6.50384360724595 0 18 208 346 0 210 205 2
11 206 29 209 401 0 211 212 206 -10.730512879008 6.50834797421306 0 18 211 347 0
 213 208 214 209 29 212 404 0 214 215 209 -10.0069 5.7775 .3406554564366755 18 2
14 350 0 216 211 217 212 29 215 405 0 217 218 212 -10.0069 -5.7775 .340655456436
6755 18 217 351 0 219 214 220 215 29 218 406 0 220 221 215 -10.0069 -5.700487030
94744 1 18 220 352 0 222 217 223 218 29 221 407 0 223 224 218 -10.0069 5.7004870
3094745 1 18 223 353 0 225 220 226 221 29 224 410 0 226 227 221 -10.0069 5.7775
 1 18 226 356 0 228 223 229 224 29 227 413 0 229 230 224 -10.0069 -5.7775 1 18 2
29 359 0 231 226 232 227 29 230 204 0 232 233 227 6.50834797421306 10.7305128790
08 0 18 232 150 0 234 229 235 230 29 233 206 0 235 236 230 -6.50384360724595 10.
73324360724594 1 18 235 152 0 237 232 238 233 29 236 207 0 238 239 233 6.5083479
7421306 10.730512879008 1 18 238 153 0 240 235 241 236 29 239 210 0 241 242 236
 5.7775 10.0069 .3406554564366755 18 241 156 0 243 238 244 239 29 242 211 0 244
 245 239 -5.7775 10.0069 .3406554564366755 18 244 157 0 246 241 247 242 29 245 2
12 0 247 248 242 -5.70048703094744 10.0069 1 18 247 158 0 249 244 250 245 29 248
 213 0 250 251 245 5.70048703094745 10.0069 1 18 250 159 0 252 247 253 248 29 25
1 216 0 253 254 248 5.7775 10.0069 1 18 253 162 0 255 250 256 251 29 254 219 0 2
56 257 251 -5.7775 10.0069 1 18 256 165 0 258 253 259 254 29 257 56 0 259 0 254
 -6.50384360724595 10.73324360724594 0 18 259 54 0 260 256 0 257 17 260 261 262
 263 259 264 265 0 15 261 256 0 262 266 0 17 262 261 207 260 211 267 268 0 17 26
3 261 260 207 235 269 270 0 17 264 271 272 273 235 260 265 0 16 265 127 0 260 27
4 275 276 16 274 126 0 277 278 265 279 16 275 131 0 255 265 280 281 30 276 181 0
 265 281 279 0 -1e-8 -6.50384360724595 10.73324360724594 0 0 0 1 30 281 185 0 27
5 282 276 0 +1e-8 12.8485 17.0079 1 -.710615433405788 -.703580632056841 0 30 279
 180 0 274 276 283 0 +1e-8 12.8485 17.0079 0 -.710615433405788 -.703580632056841
 0 30 283 178 0 278 279 284 0 +1e-8 6.50834797421306 10.730512879008 0 0 0 1 16
 278 124 0 240 285 274 283 31 284 238 0 285 283 286 0 -1e-8 0 0 1 0 0 1 1 0 0 11
.516666184274 16 285 236 0 287 288 278 284 31 286 246 0 288 284 289 0 +1e-8 0 0
 0 0 0 1 1 0 0 12.55 16 288 244 0 290 270 285 286 31 289 254 0 270 286 291 0 +1e
-8 0 0 1 0 0 -1 -1 0 0 12.55 16 270 252 0 263 292 288 289 30 291 272 0 292 289 2
93 0 +1e-8 -2.164620224277125 -2.143191371823525 0 -.703580632056841 .7106154334
05788 0 16 292 270 0 294 295 270 291 30 293 397 0 295 291 296 0 +1e-8 -10.0069 -
5.7775 1 -.707106781186548 -.707106781186548 0 16 295 343 0 204 297 292 293 30 2
96 394 0 297 293 298 0 +1e-8 -10.0069 5.7775 1 -612303176911189e-31 -1 0 16 297
 340 0 225 299 295 296 30 298 389 0 299 296 300 0 +1e-8 -10.0069 5.7775 1 -61230
3176911189e-31 -1 0 16 299 335 0 231 301 297 298 30 300 388 0 301 298 302 0 +1e-
8 -10.0069 -5.7775 0 -.707106781186548 -.707106781186548 0 16 301 334 0 303 304
 299 300 30 302 387 0 304 300 305 0 +1e-8 -10.0069 -5.7775 0 0 0 1 16 304 333 0
 306 307 301 302 30 305 386 0 307 302 308 0 +1e-8 -10.0069 5.7775 0 0 0 1 16 307
 332 0 309 310 304 305 31 308 385 0 310 305 311 0 +1e-8 -10.0069 612725666103257
e-30 0 -1 612303176911189e-31 0 0 0 1 5.78753422365692 16 310 331 0 216 312 307
 308 31 311 383 0 312 308 313 0 +1e-8 -10.0069 612725666103257e-30 0 -1 61230317
6911189e-31 0 0 0 1 5.78753422365692 16 312 329 0 222 314 310 311 31 313 382 0 3
14 311 315 0 +1e-8 -2.1147 2.1147 0 -.707106781186548 .707106781186548 0 -.70710
6781186548 -.707106781186548 0 11.16645368145142 16 314 328 0 219 316 312 313 31
 315 380 0 316 313 317 0 +1e-8 -2.164620224277125 -2.143191371823525 0 -.7106154
33405788 -.703580632056841 0 .703580632056841 -.710615433405788 0 11.15144609583
85 16 316 326 0 318 319 314 315 30 317 376 0 319 315 320 0 +1e-8 -17.0079 12.848
5 1 .703580632056841 -.710615433405788 0 16 319 322 0 228 321 316 317 30 320 373
 0 321 317 322 0 -1e-8 -10.73324360724594 -6.50384360724595 0 0 0 1 16 321 319 0
 210 323 319 320 30 322 372 0 323 320 324 0 +1e-8 -10.730512879008 6.50834797421
306 0 0 0 1 16 323 318 0 207 325 321 322 31 324 432 0 325 322 326 0 -1e-8 0 0 1
 0 0 1 1 0 0 11.516666184274 16 325 430 0 327 328 323 324 31 326 440 0 328 324 3
29 0 +1e-8 0 0 1 0 0 -1 -1 0 0 12.55 16 328 438 0 330 331 325 326 31 329 448 0 3
31 326 332 0 +1e-8 0 0 0 0 0 1 1 0 0 12.55 16 331 446 0 333 334 328 329 30 332 4
66 0 334 329 335 0 +1e-8 2.143191371823525 -2.164620224277125 0 -.71061543340578
8 -.703580632056841 0 16 334 464 0 336 337 331 332 30 335 591 0 337 332 338 0 +1
e-8 5.7775 -10.0069 1 .707106781186548 -.707106781186548 0 16 337 537 0 174 339
 334 335 30 338 588 0 339 335 340 0 +1e-8 -5.7775 -10.0069 1 1 -1224606353822376
e-31 0 16 339 534 0 195 341 337 338 30 340 583 0 341 338 342 0 +1e-8 -5.7775 -10
.0069 1 1 -1224606353822376e-31 0 16 341 529 0 201 343 339 340 30 342 582 0 343
 340 344 0 +1e-8 5.7775 -10.0069 0 .707106781186548 -.707106781186548 0 16 343 5
28 0 345 346 341 342 30 344 581 0 346 342 347 0 +1e-8 5.7775 -10.0069 0 0 0 1 16
 346 527 0 348 349 343 344 30 347 580 0 349 344 350 0 +1e-8 -5.7775 -10.0069 0 0
 0 1 16 349 526 0 351 352 346 347 31 350 579 0 352 347 353 0 +1e-8 -122545133220
6514e-30 -10.0069 0 -1224606353822376e-31 -1 0 0 0 1 5.78753422365692 16 352 525
 0 186 354 349 350 31 353 577 0 354 350 355 0 +1e-8 -1225451332206514e-30 -10.00
69 0 -1224606353822376e-31 -1 0 0 0 1 5.78753422365692 16 354 523 0 192 356 352
 353 31 355 576 0 356 353 357 0 +1e-8 -2.1147 -2.1147 0 -.707106781186548 -.7071
06781186548 0 .707106781186548 -.707106781186548 0 11.16645368145142 16 356 522
 0 189 358 354 355 31 357 574 0 358 355 359 0 +1e-8 2.143191371823525 -2.1646202
24277125 0 .703580632056841 -.710615433405788 0 .710615433405788 .70358063205684
1 0 11.1514460958385 16 358 520 0 360 361 356 357 30 359 570 0 361 357 362 0 +1e
-8 -12.8485 -17.0079 1 .710615433405788 .703580632056841 0 16 361 516 0 198 363
 358 359 30 362 567 0 363 359 364 0 -1e-8 6.50384360724595 -10.73324360724594 0
 0 0 1 16 363 513 0 180 365 361 362 30 364 566 0 365 362 366 0 +1e-8 -6.50834797
421306 -10.730512879008 0 0 0 1 16 365 512 0 177 367 363 364 31 366 626 0 367 36
4 368 0 -1e-8 0 0 1 0 0 1 1 0 0 11.516666184274 16 367 624 0 369 370 365 366 31
 368 634 0 370 366 371 0 +1e-8 0 0 1 0 0 -1 -1 0 0 12.55 16 370 632 0 372 373 36
7 368 31 371 642 0 373 368 374 0 +1e-8 0 0 0 0 0 1 1 0 0 12.55 16 373 640 0 375
 376 370 371 30 374 660 0 376 371 377 0 +1e-8 2.164620224277125 2.14319137182352
5 0 .703580632056841 -.710615433405788 0 16 376 658 0 378 379 373 374 30 377 785
 0 379 374 380 0 +1e-8 10.0069 5.7775 1 .707106781186548 .707106781186548 0 16 3
79 731 0 141 381 376 377 30 380 782 0 381 377 382 0 +1e-8 10.0069 -5.7775 1 1836
909530733565e-31 1 0 16 381 728 0 165 383 379 380 30 382 777 0 383 380 384 0 +1e
-8 10.0069 -5.7775 1 1836909530733565e-31 1 0 16 383 723 0 171 385 381 382 30 38
4 776 0 385 382 386 0 +1e-8 10.0069 5.7775 0 .707106781186548 .707106781186548 0
 16 385 722 0 387 388 383 384 30 386 775 0 388 384 389 0 +1e-8 10.0069 5.7775 0
 0 0 1 16 388 721 0 390 391 385 386 30 389 774 0 391 386 392 0 +1e-8 10.0069 -5.
7775 0 0 0 1 16 391 720 0 393 394 388 389 31 392 773 0 394 389 395 0 +1e-8 10.00
69 -183817699830977e-29 0 1 -1836909530733565e-31 0 0 0 1 5.78753422365692 16 39
4 719 0 156 396 391 392 31 395 771 0 396 392 397 0 +1e-8 10.0069 -18381769983097
7e-29 0 1 -1836909530733565e-31 0 0 0 1 5.78753422365692 16 396 717 0 162 398 39
4 395 31 397 770 0 398 395 399 0 +1e-8 2.1147 -2.1147 0 .707106781186548 -.70710
6781186548 0 .707106781186548 .707106781186548 0 11.16645368145142 16 398 716 0
 159 400 396 397 31 399 768 0 400 397 401 0 +1e-8 2.164620224277125 2.1431913718
23525 0 .710615433405788 .703580632056841 0 -.703580632056841 .710615433405788 0
 11.1514460958385 16 400 714 0 402 403 398 399 30 401 764 0 403 399 404 0 +1e-8
 17.0079 -12.8485 1 -.703580632056841 .710615433405788 0 16 403 710 0 168 405 40
0 401 30 404 761 0 405 401 406 0 -1e-8 10.73324360724594 6.50384360724595 0 0 0
 1 16 405 707 0 147 407 403 404 30 406 760 0 407 404 408 0 +1e-8 10.730512879008
 -6.50834797421306 0 0 0 1 16 407 706 0 144 409 405 406 31 408 817 0 409 406 410
 0 -1e-8 0 0 5.78 0 0 -1 -1 0 0 10.0112536677481 16 409 814 0 411 412 407 408 31
 410 811 0 412 408 413 0 -1e-8 0 0 5.78 0 0 -1 -1 0 0 8.83771463671463 16 412 80
8 0 414 415 409 410 31 413 1015 0 415 410 416 0 -1e-8 0 0 0 0 0 1 1 0 0 11.56 16
 415 946 0 417 418 412 413 31 416 1013 0 418 413 419 0 -1e-8 0 0 0 0 0 1 1 0 0 1
1.56 16 418 944 0 420 421 415 416 31 419 1011 0 421 416 422 0 -1e-8 0 0 0 0 0 1
 1 0 0 11.56 16 421 942 0 423 424 418 419 31 422 1009 0 424 419 425 0 -1e-8 0 0
 0 0 0 1 1 0 0 11.56 16 424 940 0 426 427 421 422 31 425 1082 0 427 422 428 0 -1
e-8 0 0 4.9 0 0 1 1 0 0 10.47012893903412 16 427 1080 0 429 430 424 425 31 428 1
108 0 430 425 431 0 -1e-8 0 0 0 0 0 1 1 0 0 11.56 16 430 1106 0 135 432 427 428
 31 431 1126 0 432 428 433 0 -1e-8 0 0 0 0 0 1 1 0 0 11.56 16 432 1124 0 123 434
 430 431 31 433 1129 0 434 431 435 0 -1e-8 4.375 0 0 1 0 0 0 0 -1 10.70013901778
85 16 434 1127 0 436 437 432 433 31 435 1142 0 437 433 438 0 -1e-8 0 0 0 0 0 1 1
 0 0 10.56 16 437 1140 0 439 440 434 435 31 438 1150 0 440 435 441 0 -1e-8 0 0 0
 0 0 1 1 0 0 10.56 16 440 1148 0 442 443 437 438 31 441 1342 0 444 438 445 0 -1e
-8 0 0 4.9 0 0 1 1 0 0 9.35433589304981 16 444 1244 0 103 446 443 441 31 445 134
6 0 447 441 448 0 -1e-8 -4.375 0 0 -1 0 0 0 0 1 9.61108604685235 16 447 1248 0 1
07 449 450 445 31 448 1349 0 449 445 451 0 -1e-8 -4.375 0 0 -1 0 0 0 0 1 10.7001
390177885 16 449 1251 0 452 453 447 448 30 451 1354 0 450 448 454 0 +1e-8 -4.375
 0 0 0 -1 0 16 450 1256 0 115 447 446 451 30 454 1356 0 443 451 455 0 +1e-8 -4.3
75 0 4.9 0 1 0 16 443 1258 0 110 444 440 454 31 455 1360 0 453 454 456 0 -1e-8 4
.375 0 0 1 0 0 0 0 -1 9.61108604685235 16 453 1262 0 97 457 449 455 31 456 1364
 0 458 455 459 0 -1e-8 4.375 0 0 1 0 0 0 0 -1 10.7001390177885 16 458 1266 0 460
 461 457 456 30 459 1368 0 446 456 462 0 +1e-8 4.375 0 4.9 0 -1 0 16 446 1270 0
 463 450 444 459 30 462 1370 0 457 459 464 0 +1e-8 4.375 0 0 0 1 0 16 457 1272 0
 100 458 453 462 30 464 1372 0 461 462 465 0 +1e-8 4.375 0 0 0 1 0 16 461 1274 0
 90 466 458 464 30 465 1366 0 466 464 467 0 +1e-8 4.375 0 4.9 0 -1 0 16 466 1268
 0 468 469 461 465 31 467 1359 0 469 465 470 0 -1e-8 4.375 0 0 1 0 0 0 0 -1 9.61
108604685235 16 469 1261 0 87 471 466 467 30 470 1358 0 471 467 472 0 +1e-8 -4.3
75 0 4.9 0 1 0 16 471 1260 0 473 474 469 470 30 472 1352 0 474 470 475 0 +1e-8 -
4.375 0 0 0 -1 0 16 474 1254 0 72 476 471 472 31 475 1348 0 476 472 477 0 -1e-8
 -4.375 0 0 -1 0 0 0 0 1 10.7001390177885 16 476 1250 0 478 479 474 475 31 477 1
345 0 479 475 480 0 -1e-8 -4.375 0 0 -1 0 0 0 0 1 9.61108604685235 16 479 1247 0
 75 481 476 477 31 480 1343 0 481 477 482 0 -1e-8 0 0 4.9 0 0 1 1 0 0 10.4701289
3903412 16 481 1245 0 483 484 479 480 31 482 1341 0 484 480 485 0 -1e-8 0 0 4.9
 0 0 1 1 0 0 9.35433589304981 16 484 1243 0 78 486 481 482 31 485 1446 0 486 482
 487 0 -1e-8 0 0 0 0 0 1 1 0 0 11.56 16 486 1444 0 129 488 484 485 31 487 1454 0
 488 485 489 0 -1e-8 0 -4.375 0 0 -1 0 0 0 -1 10.7001390177885 16 488 1452 0 490
 491 486 487 31 489 1464 0 491 487 492 0 -1e-8 0 0 0 0 0 1 1 0 0 11.56 16 491 14
62 0 138 493 488 489 31 492 1467 0 493 489 494 0 -1e-8 0 4.375 0 0 1 0 0 0 1 10.
7001390177885 16 493 1465 0 495 496 491 492 31 494 1482 0 496 492 497 0 -1e-8 0
 0 0 0 0 1 1 0 0 10.56 16 496 1480 0 498 499 493 494 31 497 1490 0 499 494 500 0
 -1e-8 0 0 0 0 0 1 1 0 0 10.56 16 499 1488 0 501 502 496 497 31 500 1673 0 503 4
97 504 0 -1e-8 0 -4.375 0 0 -1 0 0 0 -1 9.61108604685235 16 503 1583 0 58 505 50
2 500 31 504 1674 0 506 500 507 0 -1e-8 0 -4.375 0 0 -1 0 0 0 -1 10.700139017788
5 16 506 1584 0 508 509 505 504 31 507 1677 0 510 504 511 0 -1e-8 0 4.375 0 0 1
 0 0 0 1 9.61108604685235 16 510 1587 0 56 512 509 507 30 511 1687 0 509 507 513
 0 +1e-8 0 4.375 0 -1 0 0 16 509 1597 0 64 510 506 511 30 513 1689 0 505 511 514
 0 +1e-8 0 -4.375 0 1 0 0 16 505 1599 0 60 506 503 513 31 514 1693 0 515 513 516
 0 -1e-8 0 0 1 0 0 1 1 0 0 10.5125448869434 16 515 1603 0 51 517 512 514 31 516
 1695 0 517 514 518 0 -1e-8 0 0 1 0 0 1 1 0 0 11.516666184274 16 517 1605 0 519
 520 515 516 30 518 1697 0 512 516 521 0 +1e-8 0 4.375 1 1 0 0 16 512 1607 0 522
 515 510 518 30 521 1703 0 502 518 523 0 +1e-8 0 -4.375 1 -1 0 0 16 502 1613 0 5
24 503 499 521 30 523 1701 0 520 521 525 0 +1e-8 0 -4.375 1 -1 0 0 16 520 1611 0
 526 527 517 523 30 525 1699 0 527 523 528 0 +1e-8 0 4.375 1 1 0 0 16 527 1609 0
 529 530 520 525 31 528 1694 0 530 525 531 0 -1e-8 0 0 1 0 0 1 1 0 0 11.51666618
4274 16 530 1604 0 532 533 527 528 31 531 1692 0 533 528 534 0 -1e-8 0 0 1 0 0 1
 1 0 0 10.5125448869434 16 533 1602 0 37 535 530 531 30 534 1691 0 535 531 536 0
 +1e-8 0 -4.375 0 1 0 0 16 535 1601 0 31 537 533 534 30 536 1685 0 537 534 538 0
 +1e-8 0 4.375 0 -1 0 0 16 537 1595 0 22 539 535 536 31 538 1679 0 539 536 25 0
 -1e-8 0 4.375 0 0 1 0 0 0 1 10.7001390177885 16 539 1589 0 540 21 537 538 31 25
 1676 0 21 538 16 0 -1e-8 0 4.375 0 0 1 0 0 0 1 9.61108604685235 16 21 1586 0 28
 13 539 25 17 28 541 498 37 23 542 21 0 15 541 894 0 439 543 544 17 498 541 107
 28 111 545 496 0 17 37 541 28 20 35 546 533 0 17 542 547 548 549 35 28 21 0 15
 547 1547 0 548 18 0 17 548 547 540 542 38 529 527 0 17 549 547 542 540 23 22 53
7 0 17 540 547 549 548 14 40 539 0 17 22 550 129 545 14 549 537 0 15 550 1180 0
 545 551 0 17 129 550 294 22 127 552 486 0 17 545 550 22 115 23 498 496 0 17 115
 550 545 420 111 553 450 0 17 420 550 115 554 98 132 418 0 17 553 555 452 556 98
 115 450 0 15 555 1214 0 553 557 0 17 452 555 558 553 104 113 449 0 17 556 555 5
53 558 111 107 447 0 17 558 555 556 452 105 110 443 0 17 107 541 103 498 105 556
 447 0 17 103 541 97 107 101 559 444 0 17 97 541 442 103 95 560 453 0 17 559 561
 110 463 105 103 444 0 15 561 1206 0 110 562 0 17 110 561 429 559 104 558 443 0
 17 463 561 559 429 101 563 446 0 17 429 561 463 110 108 564 427 0 17 563 565 46
0 560 108 463 446 0 15 565 1222 0 563 566 0 17 460 565 567 563 94 117 458 0 17 5
60 565 563 567 101 97 453 0 17 567 565 560 460 95 100 457 0 17 100 568 135 569 9
4 567 457 0 15 568 21 0 570 571 0 17 135 568 234 100 133 572 430 0 17 569 568 10
0 64 95 442 440 0 17 64 568 569 417 47 62 509 0 17 442 541 56 97 47 569 440 0 17
 56 541 51 442 54 573 510 0 17 51 541 58 56 49 574 515 0 17 573 575 62 576 47 56
 510 0 15 575 1549 0 62 577 0 17 62 575 495 573 43 64 509 0 17 576 575 573 495 5
4 522 512 0 17 495 575 576 62 67 578 493 0 17 522 579 519 574 67 576 512 0 15 57
9 1565 0 522 580 0 17 519 579 524 522 44 69 517 0 17 574 579 522 524 54 51 515 0
 17 524 579 574 519 49 581 502 0 17 581 582 508 583 44 524 502 0 15 582 1541 0 5
81 584 0 17 508 582 585 581 48 46 506 0 17 583 582 581 585 49 58 503 0 17 585 58
2 583 508 52 60 505 0 17 58 541 501 51 52 583 503 0 17 501 541 87 58 88 586 499
 0 17 87 541 78 501 85 587 469 0 17 586 588 60 90 52 501 499 0 15 588 1518 0 586
 589 0 17 60 588 138 586 48 585 505 0 17 90 588 586 426 88 93 461 0 17 426 588 9
0 590 91 120 424 0 17 93 591 436 587 91 90 461 0 15 591 1220 0 93 592 0 17 436 5
91 593 93 82 594 434 0 17 587 591 93 593 88 87 469 0 17 593 591 587 436 85 468 4
66 0 17 468 595 483 596 82 593 466 0 15 595 1204 0 468 597 0 17 483 595 473 468
 79 84 481 0 17 596 595 468 473 85 78 484 0 17 473 595 596 483 76 598 471 0 17 7
8 541 75 87 76 596 484 0 17 75 541 439 78 73 599 479 0 17 439 541 20 75 29 600 4
37 0 17 599 601 598 602 76 75 479 0 15 601 1212 0 598 603 0 17 598 601 478 599 7
9 473 471 0 17 602 601 599 478 73 72 474 0 17 478 601 602 598 70 81 476 0 17 72
 604 123 600 70 602 474 0 15 604 1528 0 423 605 0 17 123 604 336 72 121 606 432
 0 17 600 604 72 31 73 439 437 0 17 31 604 600 423 29 34 535 0 17 423 604 31 607
 32 126 421 0 17 34 19 490 608 32 31 535 0 15 19 1539 0 34 12 0 17 490 19 609 34
 53 610 488 0 17 608 19 34 609 29 20 13 0 17 609 19 608 490 41 526 520 0 17 20 5
41 37 439 41 608 13 0 17 526 611 532 546 53 609 520 0 15 611 1563 0 526 612 0 17
 532 611 529 526 38 66 530 0 17 546 611 526 529 41 37 533 0 17 529 611 546 532 3
5 548 527 0 17 66 613 610 40 53 532 530 0 15 613 1097 0 81 614 615 17 610 613 12
6 66 32 490 488 0 17 40 613 66 552 38 540 539 0 17 552 613 40 318 14 129 486 0 1
7 318 613 552 216 127 616 316 0 17 216 613 318 617 214 618 310 0 17 616 619 309
 620 214 318 316 0 15 619 309 0 620 621 0 17 309 619 622 616 226 623 307 0 17 62
0 619 616 213 127 294 292 0 17 213 619 620 622 211 207 323 0 17 294 550 267 129
 211 620 292 0 17 267 550 554 294 259 262 268 0 17 554 550 420 267 130 273 624 0
 16 268 55 0 262 624 625 626 16 624 71 0 554 627 268 628 16 625 49 0 629 268 0 6
30 31 626 57 0 268 630 628 0 +1e-8 0 0 0 0 0 1 1 0 0 12.55 31 630 51 0 625 0 626
 0 +1e-8 0 0 1 0 0 -1 -1 0 0 12.55 30 628 72 0 624 626 631 0 +1e-8 2.1147 2.1147
 0 .707106781186548 -.707106781186548 0 31 631 83 0 627 628 632 0 -1e-8 0 0 1 0
 0 1 1 0 0 11.516666184274 16 627 81 0 633 634 624 631 30 632 203 0 634 631 635
 0 +1e-8 -5.7775 10.0069 1 -.707106781186548 .707106781186548 0 16 634 149 0 237
 636 627 632 30 635 200 0 636 632 637 0 +1e-8 5.7775 10.0069 1 -1 0 0 16 636 146
 0 252 638 634 635 30 637 195 0 638 635 639 0 +1e-8 5.7775 10.0069 1 -1 0 0 16 6
38 141 0 258 640 636 637 30 639 193 0 640 637 641 0 +1e-8 -5.7775 10.0069 0 0 0
 1 16 640 139 0 642 643 638 639 30 641 192 0 643 639 644 0 +1e-8 5.7775 10.0069
 0 0 0 1 16 643 138 0 645 646 640 641 31 644 191 0 646 641 647 0 +1e-8 0 10.0069
 0 0 1 0 0 0 1 5.78753422365692 16 646 137 0 243 648 643 644 31 647 189 0 648 64
4 649 0 +1e-8 0 10.0069 0 0 1 0 0 0 1 5.78753422365692 16 648 135 0 249 650 646
 647 31 649 188 0 650 647 282 0 +1e-8 2.1147 2.1147 0 .707106781186548 .70710678
1186548 0 -.707106781186548 .707106781186548 0 11.16645368145142 16 650 134 0 24
6 280 648 649 31 282 186 0 280 649 281 0 +1e-8 -2.143191371823525 2.164620224277
125 0 -.703580632056841 .710615433405788 0 -.710615433405788 -.703580632056841 0
 11.1514460958385 16 280 132 0 651 275 650 282 17 651 613 572 243 133 652 280 0
 17 572 613 117 651 94 135 430 0 17 243 613 651 653 241 654 646 0 17 652 655 645
 277 241 651 280 0 15 655 115 0 277 656 0 17 645 655 657 652 253 658 643 0 17 27
7 655 652 659 133 234 274 0 17 659 655 277 657 232 240 278 0 17 234 568 570 135
 232 277 274 0 17 570 568 660 234 145 375 373 0 17 660 568 417 570 151 387 385 0
 17 375 661 240 147 232 570 373 0 15 661 28 0 629 662 0 17 240 661 629 375 238 6
59 278 0 17 147 661 375 629 145 663 405 0 17 629 661 147 240 139 664 625 0 17 66
3 665 666 387 139 147 405 0 15 665 703 0 666 667 0 17 666 665 668 663 169 141 37
9 0 17 387 665 663 669 145 660 385 0 17 669 665 387 668 151 159 398 0 17 668 665
 669 666 157 390 388 0 17 159 613 162 153 157 669 398 0 17 162 613 653 159 160 6
70 396 0 17 153 613 159 578 151 417 415 0 17 578 613 153 69 43 495 493 0 17 417
 568 64 660 43 153 415 0 17 69 613 578 46 67 519 517 0 17 46 613 69 671 44 508 5
06 0 17 671 613 46 402 48 138 491 0 17 402 613 671 156 136 672 400 0 17 138 588
 378 60 136 671 491 0 17 378 588 673 138 148 674 376 0 17 673 588 590 378 178 33
3 331 0 17 674 675 672 150 136 378 376 0 15 675 697 0 674 676 0 17 672 675 393 6
74 154 402 400 0 17 150 675 674 677 148 144 407 0 17 677 675 150 393 142 168 403
 0 17 144 678 372 333 142 150 407 0 15 678 644 0 333 679 0 17 372 678 180 144 17
2 680 370 0 17 333 678 144 180 148 673 331 0 17 180 678 333 372 178 681 363 0 17
 681 682 683 345 172 180 363 0 15 682 509 0 683 684 0 17 683 682 685 681 199 174
 337 0 17 345 682 681 686 178 590 343 0 17 686 682 345 685 118 189 356 0 17 590
 588 426 673 118 345 343 0 17 685 682 686 683 187 348 346 0 17 189 613 192 120 1
87 686 356 0 17 192 613 687 189 190 688 354 0 17 120 613 189 594 118 426 424 0 1
7 594 613 120 84 91 436 434 0 17 84 613 594 81 82 483 481 0 17 81 613 84 606 79
 478 476 0 17 606 613 81 360 70 123 432 0 17 360 613 606 186 121 689 358 0 17 18
6 613 360 690 184 691 352 0 17 689 692 351 693 184 360 358 0 15 692 503 0 693 69
4 0 17 351 692 695 689 196 696 349 0 17 693 692 689 183 121 336 334 0 17 183 692
 693 695 181 177 365 0 17 336 604 697 123 181 693 334 0 17 697 604 607 336 208 2
90 288 0 17 607 604 423 697 124 303 301 0 17 290 698 177 210 181 697 288 0 15 69
8 450 0 290 699 0 17 177 698 330 290 175 183 365 0 17 210 698 290 330 208 700 32
1 0 17 330 698 210 177 202 701 328 0 17 700 702 703 303 202 210 321 0 15 702 315
 0 703 704 0 17 703 702 705 700 229 204 295 0 17 303 702 700 706 208 607 301 0 1
7 706 702 303 705 124 219 314 0 17 705 702 706 703 217 306 304 0 17 219 613 222
 126 217 706 314 0 17 222 613 690 219 220 707 312 0 17 126 613 219 610 124 423 4
21 0 17 690 613 186 222 193 327 325 0 17 707 708 306 709 217 222 312 0 15 708 30
7 0 306 710 0 17 306 708 709 707 229 705 304 0 17 709 708 707 306 220 231 299 0
 17 231 711 204 327 229 709 299 0 15 711 474 0 198 712 0 17 204 711 701 231 202
 703 295 0 17 327 711 231 195 220 690 325 0 17 195 711 327 198 193 713 339 0 17
 198 711 195 701 196 695 361 0 17 713 714 696 691 196 195 339 0 15 714 499 0 713
 715 0 17 696 714 691 713 184 351 349 0 17 691 714 713 696 193 186 352 0 14 715
 498 0 716 662 714 7 717 +14 716 500 0 694 715 718 7 719 +14 662 646 0 715 679 6
61 7 720 +50 717 559 0 715 719 720 0 +-1225451332206514e-30 -10.0069 0 -12246063
53822376e-31 -1 0 0 0 1 50 719 560 0 716 721 717 0 +-1225451332206514e-30 -10.00
69 0 -1224606353822376e-31 -1 0 0 0 1 51 720 647 0 662 717 722 0 +0 0 0 0 0 1 12
.55 1 0 0 51 722 652 0 679 720 723 0 +0 0 0 0 0 1 12.55 1 0 0 14 679 651 0 662 5
71 678 7 722 +50 723 657 0 571 722 724 0 +0 0 0 0 0 -1 -1 0 0 14 571 656 0 679 7
25 568 7 723 +50 724 671 0 725 723 726 0 +0 0 1 0 0 1 1 0 0 14 725 670 0 571 727
 728 7 724 +50 726 680 0 727 724 729 0 +0 0 1 0 0 1 1 0 0 14 727 679 0 725 667 7
30 7 726 +50 729 757 0 667 726 731 0 +13.5424 9.313 0 .707106781186548 -.7071067
81186548 0 .707106781186548 .707106781186548 0 14 667 702 0 727 676 665 7 729 +5
0 731 755 0 676 729 732 0 +13.5074 -9.313 0 .710615433405788 .703580632056841 0
 -.703580632056841 .710615433405788 0 14 676 696 0 667 733 675 7 731 +50 732 754
 0 733 731 734 0 +10.0069 -183817699830977e-29 0 1 -1836909530733565e-31 0 0 0 1
 14 733 694 0 676 735 736 7 732 +50 734 753 0 735 732 737 0 +10.0069 -1838176998
30977e-29 0 1 -1836909530733565e-31 0 0 0 1 14 735 692 0 733 738 739 7 734 +50 7
37 862 0 738 734 740 0 +0 0 5.78 0 0 -1 -1 0 0 14 738 824 0 735 543 741 7 737 -5
3 740 807 0 543 737 742 0 +0 0 0 10.56 0 0 1 1 0 0 14 543 806 0 738 551 541 7 74
0 -50 742 1183 0 551 740 743 0 +0 0 0 0 0 1 1 0 0 14 551 1182 0 543 562 550 7 74
2 -50 743 1320 0 562 742 744 0 +0 0 4.9 0 0 1 1 0 0 14 562 1205 0 551 557 561 7
 743 -50 744 1324 0 557 743 745 0 +-4.375 0 0 -1 0 0 0 0 1 14 557 1213 0 562 566
 555 7 744 -50 745 1328 0 566 744 746 0 +4.375 0 0 1 0 0 0 0 -1 14 566 1221 0 55
7 592 565 7 745 -50 746 1327 0 592 745 747 0 +4.375 0 0 1 0 0 0 0 -1 14 592 1219
 0 566 603 591 7 746 -50 747 1323 0 603 746 748 0 +-4.375 0 0 -1 0 0 0 0 1 14 60
3 1211 0 592 597 601 7 747 -50 748 1319 0 597 747 749 0 +0 0 4.9 0 0 1 1 0 0 14
 597 1203 0 603 589 595 7 748 -50 749 1521 0 589 748 750 0 +0 0 0 0 0 1 1 0 0 14
 589 1520 0 597 605 588 7 749 -50 750 1531 0 605 749 751 0 +0 0 0 0 0 1 1 0 0 14
 605 1530 0 589 584 604 7 750 -50 751 1651 0 584 750 752 0 +0 -4.375 0 0 -1 0 0
 0 -1 14 584 1540 0 605 577 582 7 751 -50 752 1655 0 577 751 753 0 +0 4.375 0 0
 1 0 0 0 1 14 577 1548 0 584 580 575 7 752 -50 753 1663 0 580 752 754 0 +0 0 1 0
 0 1 1 0 0 14 580 1564 0 577 612 579 7 753 -50 754 1662 0 612 753 24 0 +0 0 1 0
 0 1 1 0 0 14 612 1562 0 580 18 611 7 754 -50 24 1654 0 18 754 15 0 +0 4.375 0 0
 1 0 0 0 1 14 18 1546 0 612 12 547 7 24 -15 741 825 0 411 738 755 17 411 741 411
 411 0 756 409 0 15 755 826 0 757 738 0 17 757 755 757 757 0 414 412 0 17 414 54
4 414 414 0 757 412 0 15 544 809 0 414 543 0 17 756 615 756 756 0 411 409 0 15 6
15 816 0 756 614 0 14 614 8 0 0 758 613 7 759 +14 758 120 0 614 656 271 7 760 +5
3 759 9 0 614 0 760 0 +0 0 0 11.56 0 0 1 1 0 0 50 760 175 0 758 759 761 0 +-9.31
3 13.5424 0 .707106781186548 .707106781186548 0 -.707106781186548 .7071067811865
48 0 50 761 173 0 656 760 762 0 +9.313 13.5074 0 -.703580632056841 .710615433405
788 0 -.710615433405788 -.703580632056841 0 14 656 114 0 758 763 655 7 761 +50 7
62 172 0 763 761 764 0 +0 10.0069 0 0 1 0 0 0 1 14 763 112 0 656 765 766 7 762 +
50 764 171 0 765 762 767 0 +0 10.0069 0 0 1 0 0 0 1 14 765 110 0 763 266 768 7 7
64 +51 767 264 0 266 764 769 0 +0 0 0 0 0 1 12.55 1 0 0 14 266 263 0 765 770 261
 7 767 +50 769 292 0 770 767 771 0 +0 0 1 0 0 1 1 0 0 14 770 291 0 266 704 772 7
 769 +50 771 369 0 704 769 773 0 +-13.5424 -9.313 0 -.707106781186548 .707106781
186548 0 -.707106781186548 -.707106781186548 0 14 704 314 0 770 621 702 7 771 +5
0 773 367 0 621 771 774 0 +-13.5074 9.313 0 -.710615433405788 -.703580632056841
 0 .703580632056841 -.710615433405788 0 14 621 308 0 704 710 619 7 773 +50 774 3
66 0 710 773 775 0 +-10.0069 612725666103257e-30 0 -1 612303176911189e-31 0 0 0
 1 14 710 306 0 621 776 708 7 774 +50 775 365 0 776 774 777 0 +-10.0069 61272566
6103257e-30 0 -1 612303176911189e-31 0 0 0 1 14 776 304 0 710 699 778 7 775 +51
 777 458 0 699 775 779 0 +0 0 0 0 0 1 12.55 1 0 0 14 699 457 0 776 712 698 7 777
 +50 779 486 0 712 777 780 0 +0 0 1 0 0 1 1 0 0 14 712 485 0 699 684 711 7 779 +
50 780 563 0 684 779 721 0 +9.313 -13.5424 0 -.707106781186548 -.707106781186548
 0 .707106781186548 -.707106781186548 0 14 684 508 0 712 694 682 7 780 +50 721 5
61 0 694 780 719 0 +-9.313 -13.5074 0 .703580632056841 -.710615433405788 0 .7106
15433405788 .703580632056841 0 14 694 502 0 684 716 692 7 721 +15 778 305 0 781
 776 0 17 781 778 623 618 226 225 297 0 17 623 778 618 781 214 309 307 0 17 618
 778 781 623 223 216 310 0 17 225 772 287 228 223 781 297 0 15 772 280 0 228 770
 0 17 287 772 258 225 247 617 285 0 17 228 772 225 269 226 622 319 0 17 269 772
 228 237 205 263 270 0 17 622 619 213 309 205 228 319 0 17 237 772 269 258 235 2
72 634 0 17 258 772 237 287 256 782 638 0 17 272 271 783 264 256 237 634 0 15 27
1 121 0 272 758 0 17 783 271 784 272 244 642 640 0 17 784 271 273 783 130 246 65
0 0 17 642 766 782 785 256 783 640 0 15 766 113 0 642 763 0 17 782 766 785 642 2
47 258 638 0 17 785 766 642 782 244 249 648 0 17 249 613 617 246 247 785 648 0 1
7 617 613 216 249 223 287 285 0 17 246 613 249 132 244 784 650 0 17 132 613 246
 113 130 420 418 0 17 113 613 132 564 98 452 449 0 17 564 613 113 117 104 429 42
7 0 17 117 613 564 572 108 460 458 0 17 273 271 264 784 259 554 624 0 15 768 111
 0 786 765 0 17 786 768 658 654 253 252 636 0 17 658 768 654 786 241 645 643 0 1
7 654 768 786 658 250 243 646 0 17 252 728 633 255 250 786 636 0 15 728 19 0 633
 725 0 17 633 728 171 252 160 653 627 0 17 255 728 252 664 253 657 275 0 17 664
 728 255 141 238 629 625 0 17 657 655 659 645 238 255 275 0 17 141 728 664 171 1
39 666 379 0 17 171 728 141 633 169 787 383 0 17 787 736 670 390 160 171 383 0 1
5 736 695 0 390 733 0 17 670 736 390 787 157 162 396 0 17 390 736 787 670 169 66
8 388 0 17 653 613 243 162 250 633 627 0 15 739 693 0 788 735 0 17 788 739 789 7
90 166 165 381 0 17 789 739 790 788 154 393 391 0 17 790 739 788 789 163 156 394
 0 17 165 730 369 168 163 788 381 0 15 730 668 0 168 727 0 17 369 730 201 165 19
0 687 367 0 17 168 730 165 680 166 677 403 0 17 680 730 168 174 142 372 370 0 17
 174 730 680 201 172 683 337 0 17 201 730 174 369 199 791 341 0 17 791 718 688 3
48 190 201 341 0 15 718 501 0 348 716 0 17 688 718 348 791 187 192 354 0 17 348
 718 791 688 199 685 346 0 17 687 613 156 192 163 369 367 0 17 156 613 402 687 1
54 790 394 0 17 393 675 677 672 166 789 391 0 17 701 711 198 204 175 330 328 0 1
7 695 692 183 351 175 198 361 0 17 207 261 263 262 205 213 323 0 74 20 11 1 0 2
 0 0 0 0 0 0 0 0 0 0 0 0 0 0 0 0 0 0 0 80 2 8 792 8004 793 0 0 0 0 3 5 0 0 FFTFF
FFFFFFF2 3 83 1 9 .098 84 7 10 density79 16 793 SDL/TYSA_DENSITY1 0 
