600 0 1 0           
122 GICL ACIS STEP Translator - Source: f:/data5/repository/Parasolid/NIST/Pete_Brown/inner_malloctb/inner_malloctb.step - 6 0 13 ACIS 6.0.3 NT 24 Mon Apr 08 10:55:02 2002 
1 9.9999999999999995e-007 1e-010 
body $-1 $1 $-1 $-1 #
lump $-1 $-1 $2 $0 #
shell $-1 $-1 $-1 $3 $-1 $1 #
face $-1 $4 $5 $2 $-1 $6 reversed single #
face $-1 $7 $8 $2 $-1 $9 reversed single #
loop $-1 $-1 $10 $3 #
plane-surface $-1 0 -4375.0000000000009 0 0 -1 0 0 0 -25.399999999999999 forward_v I I I I #
face $-1 $11 $12 $2 $-1 $13 reversed single #
loop $-1 $-1 $14 $4 #
plane-surface $-1 0 4375.0000000000009 0 0 1 0 0 0 25.399999999999999 forward_v I I I I #
coedge $-1 $15 $16 $17 $18 reversed $5 $-1 #
face $-1 $19 $20 $2 $-1 $21 reversed single #
loop $-1 $-1 $22 $7 #
plane-surface $-1 0 0 1000.0000000000006 0 0 1 25.399999999999999 0 0 forward_v I I I I #
coedge $-1 $23 $24 $25 $26 reversed $8 $-1 #
coedge $-1 $27 $10 $28 $29 forward $5 $-1 #
coedge $-1 $10 $27 $30 $31 reversed $5 $-1 #
coedge $-1 $32 $33 $10 $18 forward $34 $-1 #
edge $-1 $35 -421.26531566096497 $36 -378.38921444300598 $10 $37 forward 7 unknown #
face $-1 $38 $39 $2 $-1 $40 reversed single #
loop $-1 $-1 $41 $11 #
plane-surface $-1 0 0 1000.0000000000006 0 0 1 25.399999999999999 0 0 forward_v I I I I #
coedge $-1 $42 $43 $27 $44 forward $12 $-1 #
coedge $-1 $45 $14 $46 $47 forward $8 $-1 #
coedge $-1 $14 $45 $48 $49 reversed $8 $-1 #
coedge $-1 $43 $42 $14 $26 forward $12 $-1 #
edge $-1 $50 -419.42158156075601 $51 -376.33548132854702 $14 $52 forward 7 unknown #
coedge $-1 $16 $15 $22 $44 reversed $5 $-1 #
coedge $-1 $53 $54 $15 $29 reversed $55 $-1 #
edge $-1 $35 1.5707963267948966 $56 1.6643896383455972 $15 $57 forward 7 unknown #
coedge $-1 $58 $59 $16 $31 forward $60 $-1 #
edge $-1 $36 1.5707963267948966 $61 1.6750314903694392 $16 $62 forward 7 unknown #
coedge $-1 $63 $17 $59 $64 reversed $34 $-1 #
coedge $-1 $17 $65 $53 $66 forward $34 $-1 #
loop $-1 $-1 $33 $67 #
vertex $-1 $18 $68 #
vertex $-1 $18 $69 #
straight-curve $-1 0 -4375.0000000000009 0 25.399999999999999 0 0 I I #
face $-1 $67 $70 $2 $-1 $71 reversed single #
loop $-1 $-1 $72 $19 #
plane-surface $-1 0 4375.0000000000009 0 0 1 0 0 0 25.399999999999999 forward_v I I I I #
coedge $-1 $73 $74 $75 $76 forward $20 $-1 #
coedge $-1 $25 $22 $54 $77 forward $12 $-1 #
coedge $-1 $22 $25 $58 $78 reversed $12 $-1 #
edge $-1 $61 376.33548132854702 $56 419.42158156075601 $27 $79 forward 7 unknown #
coedge $-1 $24 $23 $80 $81 reversed $8 $-1 #
coedge $-1 $54 $82 $23 $47 reversed $55 $-1 #
edge $-1 $50 1.4772030152441962 $83 1.5707963267948966 $23 $84 forward 7 unknown #
coedge $-1 $85 $58 $24 $49 forward $60 $-1 #
edge $-1 $51 1.4665611632203541 $86 1.5707963267948966 $24 $87 forward 7 unknown #
vertex $-1 $26 $88 #
vertex $-1 $26 $89 #
straight-curve $-1 0 4375.0000000000009 1000.0000000000006 25.399999999999999 0 0 I I #
coedge $-1 $90 $28 $33 $66 reversed $55 $-1 #
coedge $-1 $28 $46 $42 $77 reversed $55 $-1 #
loop $-1 $91 $92 $93 #
vertex $-1 $29 $94 #
ellipse-curve $-1 0 -4375.0000000000009 0 0 1 0 0 0 -10700.13901778851 1 I I #
coedge $-1 $48 $30 $43 $78 forward $60 $-1 #
coedge $-1 $30 $95 $32 $64 forward $60 $-1 #
loop $-1 $96 $59 $97 #
vertex $-1 $44 $98 #
ellipse-curve $-1 0 -4375.0000000000009 0 0 1 0 0 0 -9611.0860468523515 1 I I #
coedge $-1 $99 $32 $100 $101 forward $34 $-1 #
edge $-1 $102 1.9979690505150147 $36 2.7144199298696754 $32 $103 forward 7 unknown #
coedge $-1 $33 $104 $105 $106 reversed $34 $-1 #
edge $-1 $107 2.6178764941130397 $35 2.7534604538016638 $33 $108 forward 7 unknown #
face $-1 $109 $34 $2 $-1 $110 reversed single #
point $-1 -10700.13901778851 -4375.0000000000009 0 #
point $-1 -9611.0860468523515 -4375.0000000000009 0 #
loop $-1 $-1 $111 $38 #
plane-surface $-1 0 -4375.0000000000009 0 0 -1 0 0 0 -25.399999999999999 forward_v I I I I #
coedge $-1 $112 $113 $114 $115 reversed $39 $-1 #
coedge $-1 $116 $41 $117 $118 forward $20 $-1 #
coedge $-1 $41 $116 $119 $120 reversed $20 $-1 #
coedge $-1 $113 $112 $41 $76 reversed $39 $-1 #
edge $-1 $121 376.33548132854702 $122 419.42158156075601 $41 $123 forward 7 unknown #
edge $-1 $56 2.7519214998659263 $50 3.53126380731366 $42 $124 forward 7 unknown #
edge $-1 $61 2.7123641135738423 $51 3.5708211936057439 $43 $125 forward 7 unknown #
straight-curve $-1 0 -4375.0000000000009 1000.0000000000006 -25.399999999999999 0 0 I I #
coedge $-1 $126 $127 $45 $81 forward $128 $-1 #
edge $-1 $86 378.38921444300598 $83 421.26531566096497 $45 $129 forward 7 unknown #
coedge $-1 $46 $130 $126 $131 reversed $55 $-1 #
vertex $-1 $47 $132 #
ellipse-curve $-1 0 4375.0000000000009 0 0 -1 0 0 0 10700.13901778851 1 I I #
coedge $-1 $133 $48 $127 $134 forward $60 $-1 #
vertex $-1 $81 $135 #
ellipse-curve $-1 0 4375.0000000000009 0 0 -1 0 0 0 9611.0860468523515 1 I I #
point $-1 -10653.308171643203 4375.0000000000009 1000.0000000000006 #
point $-1 -9558.9212257450945 4375.0000000000009 1000.0000000000006 #
coedge $-1 $136 $53 $137 $138 forward $55 $-1 #
loop $-1 $-1 $139 $93 #
coedge $-1 $140 $141 $142 $143 reversed $55 $-1 #
face $-1 $-1 $55 $2 $-1 $144 forward single #
point $-1 -10653.308171643203 -4375.0000000000009 1000.0000000000006 #
coedge $-1 $59 $145 $146 $147 forward $60 $-1 #
loop $-1 $-1 $148 $97 #
face $-1 $149 $60 $2 $-1 $150 reversed single #
point $-1 -9558.9212257450945 -4375.0000000000009 1000.0000000000006 #
coedge $-1 $151 $63 $141 $152 forward $34 $-1 #
coedge $-1 $146 $142 $63 $101 reversed $153 $-1 #
edge $-1 $102 378.38921444300598 $154 421.26531566096497 $63 $155 forward 7 unknown #
vertex $-1 $64 $156 #
ellipse-curve $-1 0 0 0 0 0 -1 10560 0 0 1 I I #
coedge $-1 $65 $151 $157 $158 reversed $34 $-1 #
coedge $-1 $159 $137 $65 $106 forward $160 $-1 #
edge $-1 $107 0.20462222403483718 $161 40.441140957095122 $65 $162 forward 7 unknown #
vertex $-1 $66 $163 #
ellipse-curve $-1 0 0 0 0 0 -1 11560.000000000013 0 0 1 I I #
face $-1 $164 $165 $2 $-1 $166 reversed single #
plane-surface $-1 0 0 0 0 0 1 25.399999999999999 0 0 forward_v I I I I #
coedge $-1 $167 $168 $116 $169 reversed $70 $-1 #
coedge $-1 $75 $72 $170 $171 forward $39 $-1 #
coedge $-1 $72 $75 $172 $173 reversed $39 $-1 #
coedge $-1 $174 $175 $72 $115 forward $176 $-1 #
edge $-1 $177 -421.26531566096497 $178 -378.38921444300598 $72 $179 forward 7 unknown #
coedge $-1 $74 $73 $111 $169 forward $20 $-1 #
coedge $-1 $170 $180 $73 $118 reversed $55 $-1 #
edge $-1 $122 -0.38967115372386696 $181 0.38967115372386696 $73 $182 forward 7 unknown #
coedge $-1 $183 $172 $74 $120 forward $60 $-1 #
edge $-1 $121 -0.42922854001595112 $184 0.42922854001595112 $74 $185 forward 7 unknown #
vertex $-1 $76 $186 #
vertex $-1 $76 $187 #
straight-curve $-1 0 4375.0000000000009 1000.0000000000006 25.399999999999999 0 0 I I #
ellipse-curve $-1 0 0 1000.0000000000006 0 0 -1 11516.666184273989 0 0 1 I I #
ellipse-curve $-1 0 0 1000.0000000000006 0 0 -1 10512.544886943411 0 0 1 I I #
coedge $-1 $188 $80 $82 $131 forward $128 $-1 #
coedge $-1 $80 $189 $85 $134 reversed $128 $-1 #
loop $-1 $-1 $127 $190 #
straight-curve $-1 0 4375.0000000000009 0 -25.399999999999999 0 0 I I #
coedge $-1 $82 $191 $192 $193 forward $55 $-1 #
edge $-1 $83 -2.7534604538016638 $194 -2.6178741756920174 $126 $195 forward 7 unknown #
point $-1 -10700.13901778851 4375.0000000000009 0 #
coedge $-1 $196 $85 $197 $198 forward $60 $-1 #
edge $-1 $86 -2.7144199298696754 $199 -1.9979690505150147 $127 $200 forward 7 unknown #
point $-1 -9611.0860468523515 4375.0000000000009 0 #
coedge $-1 $201 $90 $202 $203 forward $55 $-1 #
coedge $-1 $105 $204 $90 $138 reversed $160 $-1 #
edge $-1 $107 0 $205 0.030511774684680786 $137 $206 forward 7 unknown #
coedge $-1 $139 $139 $207 $208 reversed $91 $-1 #
coedge $-1 $209 $92 $210 $211 reversed $55 $-1 #
coedge $-1 $92 $212 $99 $152 reversed $55 $-1 #
coedge $-1 $100 $213 $92 $143 forward $153 $-1 #
edge $-1 $214 1.0951220466893203 $154 1.5707963267948966 $142 $215 forward 7 unknown #
sphere-surface $-1 0 0 0 11560.000000000013 1 0 0 0 0 1 forward_v I I I I #
coedge $-1 $95 $216 $217 $218 forward $60 $-1 #
coedge $-1 $213 $100 $95 $147 reversed $153 $-1 #
edge $-1 $219 1.035811578104711 $102 1.5707963267948966 $146 $220 forward 7 unknown #
coedge $-1 $148 $148 $221 $222 forward $96 $-1 #
face $-1 $223 $224 $2 $-1 $225 reversed single #
sphere-surface $-1 0 0 0 10560 1 0 0 0 0 1 forward_v I I I I #
coedge $-1 $104 $99 $226 $227 forward $34 $-1 #
edge $-1 $154 1.9589285265830263 $228 2.0945148046926727 $99 $229 forward 7 unknown #
loop $-1 $-1 $213 $230 #
vertex $-1 $101 $231 #
straight-curve $-1 -4375.0000000000009 0 0 0 -25.399999999999999 0 I I #
point $-1 -4375.0000000000009 -9611.0860468523515 0 #
coedge $-1 $232 $233 $104 $158 forward $234 $-1 #
edge $-1 $161 -2.5968072744889512 $235 -2.1160014243083922 $104 $236 forward 7 unknown #
coedge $-1 $237 $105 $233 $238 reversed $160 $-1 #
loop $-1 $-1 $237 $239 #
vertex $-1 $158 $240 #
straight-curve $-1 -10006.900000000003 -5777.5000000000036 0 -17.960512242138318 -17.960512242138318 0 I I #
point $-1 -10010.575119959807 -5781.175119959782 0 #
face $-1 $230 $241 $2 $-1 $242 reversed single #
loop $-1 $-1 $243 $109 #
plane-surface $-1 0 0 0 0 0 1 25.399999999999999 0 0 forward_v I I I I #
coedge $-1 $244 $111 $180 $245 forward $70 $-1 #
coedge $-1 $111 $244 $183 $246 reversed $70 $-1 #
edge $-1 $181 -419.42158156075601 $184 -376.33548132854702 $116 $247 forward 7 unknown #
coedge $-1 $248 $117 $112 $171 reversed $55 $-1 #
edge $-1 $177 -1.5707963267948966 $122 -1.4772030152441962 $112 $249 forward 7 unknown #
coedge $-1 $119 $250 $113 $173 forward $60 $-1 #
edge $-1 $178 -1.5707963267948966 $121 -1.4665611632203541 $113 $251 forward 7 unknown #
coedge $-1 $252 $114 $250 $253 reversed $176 $-1 #
coedge $-1 $114 $254 $248 $255 forward $176 $-1 #
loop $-1 $-1 $256 $257 #
vertex $-1 $115 $258 #
vertex $-1 $115 $259 #
straight-curve $-1 0 4375.0000000000009 0 -25.399999999999999 0 0 I I #
coedge $-1 $117 $260 $167 $245 reversed $55 $-1 #
vertex $-1 $118 $261 #
ellipse-curve $-1 0 0 1000.0000000000006 0 0 -1 11516.666184273989 0 0 1 I I #
coedge $-1 $262 $119 $168 $246 forward $60 $-1 #
vertex $-1 $169 $263 #
ellipse-curve $-1 0 0 1000.0000000000006 0 0 -1 10512.544886943411 0 0 1 I I #
point $-1 9558.9212257450945 4375.0000000000009 1000.0000000000006 #
point $-1 10653.308171643203 4375.0000000000009 1000.0000000000006 #
coedge $-1 $264 $126 $265 $266 forward $128 $-1 #
coedge $-1 $127 $267 $268 $269 forward $128 $-1 #
face $-1 $97 $128 $2 $-1 $270 reversed single #
coedge $-1 $130 $271 $272 $273 forward $55 $-1 #
coedge $-1 $274 $265 $130 $193 reversed $275 $-1 #
edge $-1 $276 3.1110398034691245 $194 3.1415926535897931 $192 $277 forward 7 unknown #
vertex $-1 $131 $278 #
ellipse-curve $-1 0 0 0 0 0 -1 11560.000000000013 0 0 1 I I #
coedge $-1 $279 $133 $280 $281 forward $60 $-1 #
coedge $-1 $268 $282 $133 $198 reversed $283 $-1 #
edge $-1 $199 -1.5707963267948966 $284 -1.035811578104711 $197 $285 forward 7 unknown #
vertex $-1 $269 $286 #
ellipse-curve $-1 0 0 0 0 0 -1 10560 0 0 1 I I #
coedge $-1 $287 $136 $288 $289 reversed $55 $-1 #
coedge $-1 $290 $291 $136 $203 reversed $292 $-1 #
edge $-1 $205 -1.5119020806349328 $293 -1.397139669826253 $202 $294 forward 7 unknown #
coedge $-1 $137 $237 $290 $295 reversed $160 $-1 #
vertex $-1 $295 $296 #
ellipse-curve $-1 -2114.6999999999989 2114.6999999999989 0 -0.70710678118654757 0.70710678118654757 0 -7895.8751199597909 -7895.8751199597909 0 1 I I #
coedge $-1 $207 $207 $139 $208 forward $224 $-1 #
edge $-1 $297 0 $297 6.2831853071795862 $207 $298 forward 7 unknown #
coedge $-1 $299 $140 $300 $301 reversed $55 $-1 #
coedge $-1 $302 $303 $140 $211 forward $241 $-1 #
edge $-1 $304 1.1397128420878442 $214 2.0018798115019489 $210 $305 forward 7 unknown #
coedge $-1 $141 $287 $306 $307 forward $55 $-1 #
coedge $-1 $142 $146 $302 $308 reversed $153 $-1 #
vertex $-1 $211 $309 #
ellipse-curve $-1 -4375.0000000000009 0 0 1 0 0 0 0 10700.13901778851 1 I I #
coedge $-1 $145 $262 $310 $311 forward $60 $-1 #
coedge $-1 $303 $302 $145 $218 reversed $241 $-1 #
edge $-1 $312 1.0841122567297179 $219 2.0574803968600754 $217 $313 forward 7 unknown #
vertex $-1 $308 $314 #
ellipse-curve $-1 -4375.0000000000009 0 0 1 0 0 0 0 9611.0860468523515 1 I I #
coedge $-1 $221 $221 $148 $222 reversed $315 $-1 #
edge $-1 $316 0 $316 6.2831853071795862 $148 $317 forward 7 unknown #
face $-1 $318 $319 $2 $-1 $320 forward single #
loop $-1 $315 $207 $149 #
plane-surface $-1 0 0 5779.9999999999936 0 0 -1 -25.399999999999999 0 0 forward_v I I I I #
coedge $-1 $306 $321 $151 $227 reversed $322 $-1 #
edge $-1 $228 439.03331085978306 $235 479.31943110856804 $151 $323 forward 7 unknown #
vertex $-1 $152 $324 #
ellipse-curve $-1 0 0 0 0 0 -1 11560.000000000013 0 0 1 I I #
face $-1 $325 $153 $2 $-1 $326 reversed single #
point $-1 -4375.0000000000009 -10700.13901778851 0 #
coedge $-1 $327 $157 $321 $328 forward $234 $-1 #
coedge $-1 $157 $327 $159 $238 forward $234 $-1 #
loop $-1 $-1 $157 $329 #
vertex $-1 $227 $330 #
ellipse-curve $-1 0 0 0 0 0 1 12549.999999999991 0 0 1 I I #
coedge $-1 $204 $159 $331 $332 reversed $160 $-1 #
edge $-1 $333 -39.370078740157503 $161 0 $233 $334 forward 7 unknown #
face $-1 $335 $160 $2 $-1 $336 forward single #
point $-1 -10733.24360724595 -6503.8436072459517 0 #
loop $-1 $-1 $303 $164 #
plane-surface $-1 0 0 4900.0000000000082 0 0 1 25.399999999999999 0 0 forward_v I I I I #
coedge $-1 $337 $338 $262 $339 reversed $165 $-1 #
coedge $-1 $168 $167 $337 $340 reversed $70 $-1 #
edge $-1 $181 -1.6643896383455972 $341 -1.5707963267948966 $167 $342 forward 7 unknown #
edge $-1 $184 -1.6750314903694392 $343 -1.5707963267948966 $168 $344 forward 7 unknown #
straight-curve $-1 0 -4375.0000000000009 1000.0000000000006 -25.399999999999999 0 0 I I #
coedge $-1 $345 $170 $175 $255 reversed $55 $-1 #
ellipse-curve $-1 0 4375.0000000000009 0 0 -1 0 0 0 10700.13901778851 1 I I #
coedge $-1 $172 $279 $174 $253 forward $60 $-1 #
ellipse-curve $-1 0 4375.0000000000009 0 0 -1 0 0 0 9611.0860468523515 1 I I #
coedge $-1 $346 $174 $347 $348 forward $176 $-1 #
edge $-1 $349 -1.1436236030747786 $178 -0.427172723720118 $250 $350 forward 7 unknown #
coedge $-1 $175 $256 $351 $352 reversed $176 $-1 #
edge $-1 $353 -0.52371615947675332 $177 -0.38813219978812963 $175 $354 forward 7 unknown #
coedge $-1 $254 $355 $356 $357 reversed $176 $-1 #
face $-1 $358 $176 $2 $-1 $359 forward single #
point $-1 10700.13901778851 4375.0000000000009 0 #
point $-1 9611.0860468523515 4375.0000000000009 0 #
coedge $-1 $180 $360 $361 $362 reversed $55 $-1 #
point $-1 10653.308171643203 -4375.0000000000009 1000.0000000000006 #
coedge $-1 $216 $183 $243 $339 forward $60 $-1 #
point $-1 9558.9212257450945 -4375.0000000000009 1000.0000000000006 #
coedge $-1 $363 $188 $364 $365 reversed $128 $-1 #
coedge $-1 $192 $366 $188 $266 reversed $275 $-1 #
edge $-1 $194 439.03331085978306 $367 479.31943110856804 $188 $368 forward 7 unknown #
coedge $-1 $189 $363 $369 $370 forward $128 $-1 #
coedge $-1 $371 $197 $189 $269 reversed $283 $-1 #
edge $-1 $372 -421.26531566096497 $199 -378.38921444300598 $268 $373 forward 7 unknown #
plane-surface $-1 0 0 0 0 0 1 25.399999999999999 0 0 forward_v I I I I #
coedge $-1 $191 $374 $375 $376 reversed $55 $-1 #
coedge $-1 $377 $378 $191 $273 reversed $379 $-1 #
edge $-1 $380 1.3971396698262537 $276 1.5119020806349326 $272 $381 forward 7 unknown #
coedge $-1 $382 $192 $378 $383 forward $275 $-1 #
loop $-1 $-1 $265 $384 #
vertex $-1 $383 $385 #
ellipse-curve $-1 -2164.620224277126 -2143.1913718235246 0 -0.71061543340578814 -0.70358063205684107 0 7845.941492457835 -7924.3897004955506 0 1 I I #
point $-1 -10010.561716734948 5781.1983286720388 0 #
coedge $-1 $250 $196 $386 $387 forward $60 $-1 #
coedge $-1 $388 $389 $196 $281 reversed $390 $-1 #
edge $-1 $284 -2.0574803968600754 $391 -1.0841122567297179 $280 $392 forward 7 unknown #
coedge $-1 $197 $371 $388 $393 reversed $283 $-1 #
loop $-1 $-1 $268 $394 #
vertex $-1 $393 $395 #
ellipse-curve $-1 -4375.0000000000009 0 0 1 0 0 0 0 9611.0860468523515 1 I I #
point $-1 -4375.0000000000009 9611.0860468523515 0 #
coedge $-1 $212 $201 $396 $397 forward $55 $-1 #
coedge $-1 $398 $399 $201 $289 forward $400 $-1 #
edge $-1 $401 2.0886049033200038 $293 2.6237840770646881 $288 $402 forward 7 unknown #
coedge $-1 $291 $202 $204 $295 forward $292 $-1 #
coedge $-1 $202 $290 $398 $403 reversed $292 $-1 #
loop $-1 $-1 $290 $404 #
vertex $-1 $289 $405 #
ellipse-curve $-1 -10006.900000000003 6.1272566610325769e-013 0 -1 6.12303176911189e-017 0 0 0 5787.5342236569168 1 I I #
edge $-1 $205 13.411632143176201 $406 39.370078740157503 $290 $407 forward 7 unknown #
point $-1 -10006.900000000003 -5777.5000000000036 340.65545643667548 #
vertex $-1 $208 $408 #
ellipse-curve $-1 0 0 5779.9999999999936 0 0 1 -10011.253667748097 0 0 1 I I #
coedge $-1 $409 $209 $410 $411 reversed $55 $-1 #
coedge $-1 $412 $413 $209 $301 forward $414 $-1 #
edge $-1 $415 1.5707963267948966 $304 2.0464706069004728 $300 $416 forward 7 unknown #
coedge $-1 $217 $210 $213 $308 forward $241 $-1 #
coedge $-1 $210 $217 $412 $417 forward $241 $-1 #
vertex $-1 $417 $418 #
ellipse-curve $-1 0 0 4900.0000000000082 0 0 -1 10470.128939034124 0 0 1 I I #
coedge $-1 $419 $226 $212 $307 reversed $322 $-1 #
edge $-1 $420 3.1110398034691245 $228 3.1415926535897931 $306 $421 forward 7 unknown #
edge $-1 $214 -374.49818657475902 $219 -325.51931306090898 $302 $422 forward 7 unknown #
point $-1 -4375.0000000000009 -9512.2539389988779 4900.0000000000082 #
coedge $-1 $413 $412 $216 $311 reversed $414 $-1 #
edge $-1 $423 1.5707963267948966 $312 2.1057810754850821 $310 $424 forward 7 unknown #
vertex $-1 $417 $425 #
ellipse-curve $-1 0 0 4900.0000000000082 0 0 -1 9354.3358930497998 0 0 1 I I #
point $-1 -4375.0000000000009 -8268.1905517470877 4900.0000000000082 #
loop $-1 $-1 $221 $149 #
vertex $-1 $222 $426 #
ellipse-curve $-1 0 0 5779.9999999999936 0 0 1 -8837.7146367146233 0 0 1 I I #
face $-1 $427 $428 $2 $-1 $429 forward single #
loop $-1 $-1 $430 $223 #
plane-surface $-1 10006.900000000003 -1.8381769983097708e-012 0 1 -1.83690953073356e-016 0 0 0 -25.399999999999999 forward_v I I I I #
coedge $-1 $226 $431 $232 $328 reversed $322 $-1 #
loop $-1 $-1 $226 $432 #
straight-curve $-1 2143.1913718235246 -2164.620224277126 0 -18.049632008507015 -17.870948054243758 0 I I #
point $-1 -5781.1983286720388 -10010.561716734948 0 #
face $-1 $433 $414 $2 $-1 $434 reversed single #
plane-surface $-1 -4375.0000000000009 0 0 -1 0 0 0 0 25.399999999999999 forward_v I I I I #
coedge $-1 $233 $232 $435 $436 forward $234 $-1 #
edge $-1 $235 0 $437 39.370078740157503 $321 $438 forward 7 unknown #
face $-1 $439 $234 $2 $-1 $440 forward single #
point $-1 -6508.3479742130703 -10730.512879008002 0 #
coedge $-1 $435 $398 $237 $332 forward $400 $-1 #
edge $-1 $406 0 $333 40.441140957095122 $331 $441 forward 7 unknown #
vertex $-1 $332 $442 #
straight-curve $-1 -10733.24360724595 -6503.8436072459517 0 0 0 -25.399999999999999 I I #
face $-1 $443 $444 $2 $-1 $445 forward single #
plane-surface $-1 -13542.400000000007 -9313.0000000000091 0 -0.70710678118654757 0.70710678118654757 0 0 0 25.399999999999999 forward_v I I I I #
coedge $-1 $361 $243 $244 $340 forward $165 $-1 #
coedge $-1 $243 $410 $413 $446 forward $165 $-1 #
edge $-1 $343 0.427172723720118 $423 1.1436236030747786 $243 $447 forward 7 unknown #
edge $-1 $343 378.38921444300598 $341 421.26531566096497 $244 $448 forward 7 unknown #
vertex $-1 $245 $449 #
ellipse-curve $-1 0 -4375.0000000000009 0 0 1 0 0 0 -10700.13901778851 1 I I #
vertex $-1 $340 $450 #
ellipse-curve $-1 0 -4375.0000000000009 0 0 1 0 0 0 -9611.0860468523515 1 I I #
coedge $-1 $451 $248 $452 $453 forward $55 $-1 #
coedge $-1 $355 $252 $454 $455 forward $176 $-1 #
coedge $-1 $386 $456 $252 $348 reversed $457 $-1 #
edge $-1 $349 378.38921444300598 $458 421.26531566096497 $347 $459 forward 7 unknown #
vertex $-1 $348 $460 #
ellipse-curve $-1 0 0 0 0 0 -1 10560 0 0 1 I I #
coedge $-1 $461 $452 $254 $352 forward $462 $-1 #
edge $-1 $353 0.20462222403483718 $463 40.441140957095122 $351 $464 forward 7 unknown #
vertex $-1 $453 $465 #
ellipse-curve $-1 0 0 0 0 0 -1 11560.000000000013 0 0 1 I I #
coedge $-1 $256 $346 $466 $467 reversed $176 $-1 #
coedge $-1 $468 $469 $256 $357 forward $470 $-1 #
edge $-1 $463 0.54478537910084202 $471 1.0255912292814011 $256 $472 forward 7 unknown #
face $-1 $473 $474 $2 $-1 $475 forward single #
plane-surface $-1 0 0 0 0 0 -1 -25.399999999999999 0 0 forward_v I I I I #
coedge $-1 $260 $476 $477 $478 forward $55 $-1 #
coedge $-1 $479 $337 $260 $362 forward $165 $-1 #
edge $-1 $341 0.38813219978812963 $480 0.52371847789777592 $361 $481 forward 7 unknown #
coedge $-1 $267 $264 $482 $483 forward $128 $-1 #
coedge $-1 $484 $485 $264 $365 forward $486 $-1 #
edge $-1 $487 2.1155817058957385 $367 2.5963875560762979 $264 $488 forward 7 unknown #
coedge $-1 $265 $382 $484 $489 reversed $275 $-1 #
vertex $-1 $266 $490 #
straight-curve $-1 -2164.620224277126 -2143.1913718235246 0 -17.870948054243758 18.049632008507015 0 I I #
coedge $-1 $491 $492 $267 $370 reversed $55 $-1 #
edge $-1 $493 -2.09451248627165 $372 -1.9589285265830263 $267 $494 forward 7 unknown #
coedge $-1 $282 $268 $492 $495 forward $283 $-1 #
vertex $-1 $269 $496 #
straight-curve $-1 -4375.0000000000009 0 0 0 -25.399999999999999 0 I I #
coedge $-1 $271 $491 $497 $498 forward $55 $-1 #
coedge $-1 $499 $500 $271 $376 forward $444 $-1 #
edge $-1 $380 -2.6237840770646863 $501 -2.0886049033200016 $375 $502 forward 7 unknown #
coedge $-1 $378 $272 $500 $503 reversed $379 $-1 #
coedge $-1 $272 $377 $274 $383 reversed $379 $-1 #
loop $-1 $-1 $377 $439 #
vertex $-1 $503 $504 #
ellipse-curve $-1 -10006.900000000003 6.1272566610325769e-013 0 -1 6.12303176911189e-017 0 0 0 5787.5342236569168 1 I I #
coedge $-1 $366 $274 $505 $506 reversed $275 $-1 #
edge $-1 $276 13.411632143176201 $507 39.370078740157503 $378 $508 forward 7 unknown #
face $-1 $239 $275 $2 $-1 $509 forward single #
point $-1 -10006.900000000003 5777.5000000000036 340.65545643667548 #
coedge $-1 $510 $347 $279 $387 reversed $457 $-1 #
edge $-1 $391 -2.1057810754850821 $349 -1.5707963267948966 $386 $511 forward 7 unknown #
coedge $-1 $512 $280 $282 $393 forward $390 $-1 #
coedge $-1 $280 $512 $510 $513 forward $390 $-1 #
loop $-1 $-1 $388 $514 #
vertex $-1 $513 $515 #
ellipse-curve $-1 0 0 4900.0000000000082 0 0 -1 9354.3358930497998 0 0 1 I I #
edge $-1 $284 325.51931306090898 $516 374.49818657475902 $282 $517 forward 7 unknown #
face $-1 $514 $283 $2 $-1 $518 reversed single #
point $-1 -4375.0000000000009 8268.1905517470877 4900.0000000000082 #
coedge $-1 $519 $520 $287 $397 reversed $521 $-1 #
edge $-1 $401 1.3971396698262537 $420 1.5119020806349326 $396 $522 forward 7 unknown #
coedge $-1 $331 $288 $291 $403 forward $400 $-1 #
coedge $-1 $288 $523 $519 $524 forward $400 $-1 #
loop $-1 $-1 $523 $525 #
vertex $-1 $524 $526 #
ellipse-curve $-1 0 0 1000.0000000000006 0 0 -1 11516.666184273989 0 0 1 I I #
edge $-1 $293 451.88925318690701 $406 454.92125984251999 $398 $527 forward 7 unknown #
face $-1 $384 $292 $2 $-1 $528 forward single #
point $-1 -10006.900000000003 -5700.4870309474336 1000.0000000000006 #
vertex $-1 $403 $529 #
straight-curve $-1 -10006.900000000003 -5777.5000000000036 0 0 0 25.399999999999999 I I #
point $-1 -10011.253667748097 0 5779.9999999999936 #
coedge $-1 $530 $299 $531 $532 forward $55 $-1 #
coedge $-1 $338 $533 $299 $411 forward $165 $-1 #
edge $-1 $534 1.0470801673181434 $415 1.182664127006767 $410 $535 forward 7 unknown #
coedge $-1 $310 $300 $303 $417 reversed $414 $-1 #
coedge $-1 $300 $310 $338 $446 reversed $414 $-1 #
loop $-1 $-1 $413 $325 #
vertex $-1 $411 $536 #
ellipse-curve $-1 4375.0000000000009 0 0 -1 0 0 0 0 -10700.13901778851 1 I I #
edge $-1 $312 325.51931306090898 $304 374.49818657475902 $303 $537 forward 7 unknown #
point $-1 4375.0000000000009 -9512.2539389988779 4900.0000000000082 #
coedge $-1 $431 $306 $520 $538 forward $322 $-1 #
vertex $-1 $538 $539 #
ellipse-curve $-1 2143.1913718235246 -2164.620224277126 0 0.70358063205684107 -0.71061543340578814 0 7924.3897004955506 7845.941492457835 0 1 I I #
straight-curve $-1 -4375.0000000000009 0 4900.0000000000082 0 25.399999999999999 0 I I #
vertex $-1 $339 $540 #
ellipse-curve $-1 4375.0000000000009 0 0 -1 0 0 0 0 -9611.0860468523515 1 I I #
point $-1 4375.0000000000009 -8268.1905517470877 4900.0000000000082 #
point $-1 -8837.7146367146233 0 5779.9999999999936 #
face $-1 $541 $542 $2 $-1 $543 forward single #
loop $-1 $-1 $544 $318 #
plane-surface $-1 10006.900000000003 -1.8381769983097708e-012 0 1 -1.83690953073356e-016 0 0 0 -25.399999999999999 forward_v I I I I #
coedge $-1 $545 $546 $547 $548 reversed $319 $-1 #
coedge $-1 $321 $419 $523 $549 reversed $322 $-1 #
face $-1 $550 $322 $2 $-1 $551 forward single #
face $-1 $394 $457 $2 $-1 $552 reversed single #
plane-surface $-1 4375.0000000000009 0 0 1 0 0 0 0 -25.399999999999999 forward_v I I I I #
coedge $-1 $523 $331 $327 $436 reversed $400 $-1 #
edge $-1 $437 -1.0255912292814011 $333 -0.54478537910084202 $435 $553 forward 7 unknown #
vertex $-1 $549 $554 #
straight-curve $-1 -6508.3479742130703 -10730.512879008002 0 0 0 25.399999999999999 I I #
face $-1 $404 $379 $2 $-1 $555 forward single #
cone-surface $-1 0 0 0 0 0 1 12549.999999999991 0 0 1 I I 0 1 12549.999999999991 forward I I I I #
straight-curve $-1 -10006.900000000003 -5777.5000000000036 1000.0000000000006 -17.960512242138318 -17.960512242138318 0 I I #
point $-1 -10733.24360724595 -6503.8436072459517 1000.0000000000006 #
face $-1 $556 $486 $2 $-1 $557 forward single #
loop $-1 $-1 $505 $335 #
plane-surface $-1 0 0 1000.0000000000006 0 0 1 25.399999999999999 0 0 forward_v I I I I #
edge $-1 $415 -421.26531566096497 $423 -378.38921444300598 $338 $558 forward 7 unknown #
ellipse-curve $-1 0 0 0 0 0 -1 10560 0 0 1 I I #
straight-curve $-1 0 -4375.0000000000009 0 25.399999999999999 0 0 I I #
point $-1 10700.13901778851 -4375.0000000000009 0 #
point $-1 9611.0860468523515 -4375.0000000000009 0 #
coedge $-1 $559 $345 $560 $561 forward $55 $-1 #
coedge $-1 $351 $562 $345 $453 reversed $462 $-1 #
edge $-1 $353 0 $563 0.030511774684680786 $452 $564 forward 7 unknown #
coedge $-1 $565 $566 $346 $455 reversed $55 $-1 #
edge $-1 $458 -1.182664127006767 $567 -1.0470778488971206 $346 $568 forward 7 unknown #
coedge $-1 $347 $510 $565 $569 forward $457 $-1 #
loop $-1 $-1 $510 $433 #
vertex $-1 $569 $570 #
straight-curve $-1 4375.0000000000009 0 0 0 25.399999999999999 0 I I #
point $-1 4375.0000000000009 9611.0860468523515 0 #
coedge $-1 $571 $351 $469 $572 reversed $462 $-1 #
loop $-1 $-1 $571 $541 #
vertex $-1 $352 $573 #
straight-curve $-1 10006.900000000003 5777.5000000000036 0 17.960512242138318 17.960512242138318 0 I I #
point $-1 10010.575119959807 5781.175119959782 0 #
coedge $-1 $574 $575 $355 $467 forward $576 $-1 #
edge $-1 $471 351.26212117780221 $567 391.54824142658714 $355 $577 forward 7 unknown #
coedge $-1 $578 $356 $575 $579 forward $470 $-1 #
coedge $-1 $356 $578 $461 $572 forward $470 $-1 #
loop $-1 $-1 $578 $473 #
vertex $-1 $357 $580 #
ellipse-curve $-1 0 0 0 0 0 1 12549.999999999991 0 0 1 I I #
face $-1 $581 $470 $2 $-1 $582 forward single #
loop $-1 $-1 $583 $358 #
cone-surface $-1 0 0 0 0 0 1 12549.999999999991 0 0 1 I I 0 1 12549.999999999991 forward I I I I #
coedge $-1 $360 $584 $546 $585 forward $55 $-1 #
coedge $-1 $586 $587 $360 $478 reversed $542 $-1 #
edge $-1 $588 3.1110398034691245 $480 3.1415926535897931 $477 $589 forward 7 unknown #
coedge $-1 $590 $361 $587 $591 forward $165 $-1 #
vertex $-1 $362 $592 #
ellipse-curve $-1 0 0 0 0 0 -1 11560.000000000013 0 0 1 I I #
coedge $-1 $593 $594 $363 $483 reversed $595 $-1 #
edge $-1 $487 -479.86067942012426 $493 -439.62416068706398 $363 $596 forward 7 unknown #
coedge $-1 $597 $364 $366 $489 forward $486 $-1 #
coedge $-1 $364 $597 $593 $598 forward $486 $-1 #
loop $-1 $-1 $364 $443 #
vertex $-1 $365 $599 #
ellipse-curve $-1 0 0 0 0 0 1 12549.999999999991 0 0 1 I I #
edge $-1 $367 0 $600 39.370078740157503 $366 $601 forward 7 unknown #
point $-1 -10730.512879008002 6508.3479742130703 0 #
coedge $-1 $374 $369 $594 $602 forward $55 $-1 #
coedge $-1 $369 $603 $371 $495 reversed $55 $-1 #
vertex $-1 $483 $604 #
ellipse-curve $-1 0 0 0 0 0 -1 11560.000000000013 0 0 1 I I #
edge $-1 $372 -1.5707963267948966 $516 -1.0951220466893203 $371 $605 forward 7 unknown #
point $-1 -4375.0000000000009 10700.13901778851 0 #
coedge $-1 $606 $607 $374 $498 reversed $608 $-1 #
edge $-1 $609 -1.5119020806349326 $501 -1.397139669826253 $497 $610 forward 7 unknown #
coedge $-1 $611 $375 $607 $612 forward $444 $-1 #
coedge $-1 $375 $505 $377 $503 forward $444 $-1 #
vertex $-1 $376 $613 #
ellipse-curve $-1 0 0 1000.0000000000006 0 0 -1 11516.666184273989 0 0 1 I I #
edge $-1 $507 0 $380 3.0320066556119798 $377 $614 forward 7 unknown #
point $-1 -10006.900000000003 5700.4870309474591 1000.0000000000006 #
coedge $-1 $500 $615 $382 $506 forward $444 $-1 #
edge $-1 $600 351.26212117780221 $507 391.75313915914393 $382 $616 forward 7 unknown #
vertex $-1 $503 $617 #
straight-curve $-1 -10006.900000000003 5777.5000000000036 0 0 0 25.399999999999999 I I #
plane-surface $-1 -13507.399999999994 9313.0000000000091 0 -0.71061543340578814 -0.70358063205684107 0 0 0 25.399999999999999 forward_v I I I I #
coedge $-1 $456 $386 $389 $513 reversed $457 $-1 #
ellipse-curve $-1 4375.0000000000009 0 0 -1 0 0 0 0 -9611.0860468523515 1 I I #
coedge $-1 $389 $388 $603 $618 forward $390 $-1 #
edge $-1 $619 -374.49818657475902 $391 -325.51931306090898 $510 $620 forward 7 unknown #
face $-1 $190 $390 $2 $-1 $621 reversed single #
point $-1 4375.0000000000009 8268.1905517470877 4900.0000000000082 #
vertex $-1 $495 $622 #
straight-curve $-1 -4375.0000000000009 0 4900.0000000000082 0 25.399999999999999 0 I I #
plane-surface $-1 -4375.0000000000009 0 0 -1 0 0 0 0 25.399999999999999 forward_v I I I I #
coedge $-1 $520 $396 $399 $524 reversed $521 $-1 #
coedge $-1 $396 $519 $419 $538 reversed $521 $-1 #
loop $-1 $-1 $519 $581 #
ellipse-curve $-1 -1.225451332206513e-012 -10006.900000000003 0 -1.22460635382238e-016 -1 0 0 0 5787.5342236569168 1 I I #
coedge $-1 $399 $435 $431 $549 forward $400 $-1 #
edge $-1 $623 0 $401 3.0320066556119798 $519 $624 forward 7 unknown #
face $-1 $329 $400 $2 $-1 $625 forward single #
point $-1 -5700.4870309474591 -10006.900000000003 1000.0000000000006 #
straight-curve $-1 -10006.900000000003 5777.5000000000036 1000.0000000000006 -1.5552500693544201e-015 -25.399999999999999 0 I I #
plane-surface $-1 -10006.900000000003 6.1272566610325769e-013 0 -1 6.12303176911189e-017 0 0 0 25.399999999999999 forward_v I I I I #
point $-1 -10006.900000000003 -5777.5000000000036 1000.0000000000006 #
coedge $-1 $584 $409 $626 $627 forward $55 $-1 #
coedge $-1 $628 $629 $409 $532 reversed $630 $-1 #
edge $-1 $534 0 $631 0.030511774684680786 $531 $632 forward 7 unknown #
coedge $-1 $410 $590 $628 $633 reversed $165 $-1 #
vertex $-1 $633 $634 #
ellipse-curve $-1 0 0 0 0 0 -1 11560.000000000013 0 0 1 I I #
point $-1 4375.0000000000009 -10700.13901778851 0 #
straight-curve $-1 4375.0000000000009 0 4900.0000000000082 0 -25.399999999999999 0 I I #
edge $-1 $420 13.411632143176201 $623 39.370078740157503 $520 $635 forward 7 unknown #
point $-1 -5777.5000000000036 -10006.900000000003 340.65545643667548 #
point $-1 4375.0000000000009 -9611.0860468523515 0 #
face $-1 $636 $462 $2 $-1 $637 forward single #
loop $-1 $-1 $587 $427 #
plane-surface $-1 13507.399999999994 -9313.0000000000091 0 0.71061543340578814 0.70358063205684107 0 0 0 -25.399999999999999 forward_v I I I I #
coedge $-1 $638 $560 $562 $639 forward $428 $-1 #
coedge $-1 $546 $430 $586 $640 reversed $319 $-1 #
coedge $-1 $430 $545 $476 $585 reversed $319 $-1 #
coedge $-1 $641 $642 $430 $548 forward $643 $-1 #
edge $-1 $644 0 $645 3.0320066556119798 $430 $646 forward 7 unknown #
edge $-1 $437 351.26212117780221 $623 391.75313915914393 $431 $647 forward 7 unknown #
face $-1 $525 $630 $2 $-1 $648 forward single #
plane-surface $-1 -9313.0000000000091 -13507.399999999994 0 0.70358063205684107 -0.71061543340578814 0 0 0 -25.399999999999999 forward_v I I I I #
plane-surface $-1 4375.0000000000009 0 0 1 0 0 0 0 -25.399999999999999 forward_v I I I I #
ellipse-curve $-1 0 0 1000.0000000000006 0 0 -1 -12549.999999999991 0 0 1 I I #
point $-1 -6508.3479742130703 -10730.512879008002 1000.0000000000006 #
plane-surface $-1 -10006.900000000003 6.1272566610325769e-013 0 -1 6.12303176911189e-017 0 0 0 25.399999999999999 forward_v I I I I #
face $-1 $649 $650 $2 $-1 $651 forward single #
cone-surface $-1 0 0 0 0 0 1 12549.999999999991 0 0 1 I I 0 1 12549.999999999991 forward I I I I #
straight-curve $-1 4375.0000000000009 0 0 0 25.399999999999999 0 I I #
coedge $-1 $652 $451 $653 $654 reversed $55 $-1 #
coedge $-1 $544 $638 $451 $561 reversed $428 $-1 #
edge $-1 $563 -1.5119020806349328 $655 -1.397139669826253 $560 $656 forward 7 unknown #
coedge $-1 $452 $571 $544 $639 reversed $462 $-1 #
vertex $-1 $639 $657 #
ellipse-curve $-1 2114.6999999999989 -2114.6999999999989 0 0.70710678118654757 -0.70710678118654757 0 7895.8751199597909 7895.8751199597909 0 1 I I #
coedge $-1 $603 $454 $456 $569 reversed $55 $-1 #
coedge $-1 $454 $652 $574 $658 forward $55 $-1 #
vertex $-1 $455 $659 #
ellipse-curve $-1 0 0 0 0 0 -1 11560.000000000013 0 0 1 I I #
edge $-1 $619 -2.0464706069004728 $458 -1.5707963267948966 $456 $660 forward 7 unknown #
point $-1 4375.0000000000009 10700.13901778851 0 #
coedge $-1 $562 $461 $661 $662 reversed $462 $-1 #
edge $-1 $663 -39.370078740157503 $463 0 $461 $664 forward 7 unknown #
point $-1 10733.24360724595 6503.8436072459517 0 #
coedge $-1 $665 $466 $566 $658 reversed $576 $-1 #
coedge $-1 $466 $666 $468 $579 reversed $576 $-1 #
loop $-1 $-1 $466 $667 #
straight-curve $-1 12848.499999999991 17007.899999999991 0 -18.049632008507015 -17.870948054243758 0 I I #
coedge $-1 $469 $468 $668 $669 forward $470 $-1 #
edge $-1 $471 0 $670 39.370078740157503 $468 $671 forward 7 unknown #
point $-1 6508.3479742130703 10730.512879008002 0 #
face $-1 $672 $521 $2 $-1 $673 forward single #
cone-surface $-1 0 0 0 0 0 1 12549.999999999991 0 0 1 I I 0 1 12549.999999999991 forward I I I I #
coedge $-1 $674 $675 $590 $676 forward $474 $-1 #
coedge $-1 $476 $530 $641 $677 reversed $55 $-1 #
edge $-1 $645 1.3971396698262537 $588 1.5119020806349326 $546 $678 forward 7 unknown #
coedge $-1 $679 $477 $545 $640 forward $542 $-1 #
coedge $-1 $477 $680 $479 $591 reversed $542 $-1 #
vertex $-1 $640 $681 #
ellipse-curve $-1 2164.620224277126 2143.1913718235246 0 0.71061543340578814 0.70358063205684107 0 -7845.941492457835 7924.3897004955506 0 1 I I #
coedge $-1 $533 $479 $583 $676 reversed $165 $-1 #
edge $-1 $480 439.03331085978306 $682 479.31943110856804 $479 $683 forward 7 unknown #
point $-1 10010.561716734948 -5781.1983286720388 0 #
coedge $-1 $684 $482 $485 $598 reversed $595 $-1 #
coedge $-1 $482 $685 $491 $602 reversed $595 $-1 #
loop $-1 $-1 $684 $686 #
straight-curve $-1 2114.6999999999989 2114.6999999999989 0 17.960512242138318 -17.960512242138318 0 I I #
coedge $-1 $485 $484 $615 $687 forward $486 $-1 #
edge $-1 $688 -39.370078740157503 $487 0 $485 $689 forward 7 unknown #
point $-1 -6503.8436072459517 10733.24360724595 0 #
vertex $-1 $506 $690 #
straight-curve $-1 -10730.512879008002 6508.3479742130703 0 0 0 25.399999999999999 I I #
edge $-1 $493 0 $609 0.030511774684680786 $594 $691 forward 7 unknown #
coedge $-1 $492 $565 $512 $618 reversed $55 $-1 #
point $-1 -5781.175119959782 10010.575119959807 0 #
ellipse-curve $-1 -4375.0000000000009 0 0 1 0 0 0 0 10700.13901778851 1 I I #
coedge $-1 $607 $497 $685 $692 forward $608 $-1 #
coedge $-1 $497 $606 $499 $612 reversed $608 $-1 #
loop $-1 $-1 $606 $649 #
vertex $-1 $692 $693 #
ellipse-curve $-1 0 10006.900000000003 0 0 1 0 0 0 5787.5342236569168 1 I I #
coedge $-1 $615 $499 $684 $694 forward $444 $-1 #
edge $-1 $501 451.88925318690701 $695 454.92125984251999 $499 $696 forward 7 unknown #
point $-1 -5700.4870309474336 10006.900000000003 1000.0000000000006 #
straight-curve $-1 -10006.900000000003 5777.5000000000036 1000.0000000000006 -1.5552500693544201e-015 -25.399999999999999 0 I I #
coedge $-1 $505 $611 $597 $687 reversed $444 $-1 #
straight-curve $-1 -17007.899999999991 12848.499999999991 1000.0000000000006 17.870948054243758 -18.049632008507015 0 I I #
point $-1 -10006.900000000003 5777.5000000000036 1000.0000000000006 #
edge $-1 $516 -2.0018798115019489 $619 -1.1397128420878442 $512 $697 forward 7 unknown #
vertex $-1 $513 $698 #
straight-curve $-1 4375.0000000000009 0 4900.0000000000082 0 -25.399999999999999 0 I I #
plane-surface $-1 0 0 4900.0000000000082 0 0 1 25.399999999999999 0 0 forward_v I I I I #
point $-1 -4375.0000000000009 9512.2539389988779 4900.0000000000082 #
vertex $-1 $524 $699 #
straight-curve $-1 -5777.5000000000036 -10006.900000000003 1000.0000000000006 25.399999999999999 -3.1105001387088449e-015 0 I I #
plane-surface $-1 0 0 1000.0000000000006 0 0 1 25.399999999999999 0 0 forward_v I I I I #
coedge $-1 $700 $701 $530 $627 reversed $702 $-1 #
edge $-1 $631 -1.5119020806349328 $703 -1.397139669826253 $626 $704 forward 7 unknown #
coedge $-1 $705 $531 $533 $633 forward $630 $-1 #
coedge $-1 $531 $706 $700 $707 reversed $630 $-1 #
loop $-1 $-1 $706 $550 #
vertex $-1 $707 $708 #
ellipse-curve $-1 -2114.6999999999989 -2114.6999999999989 0 -0.70710678118654757 -0.70710678118654757 0 7895.8751199597909 -7895.8751199597909 0 1 I I #
edge $-1 $534 0.20462222403483718 $709 40.441140957095122 $533 $710 forward 7 unknown #
point $-1 5781.175119959782 -10010.575119959807 0 #
straight-curve $-1 -5777.5000000000036 -10006.900000000003 0 0 0 25.399999999999999 I I #
face $-1 $711 $643 $2 $-1 $712 forward single #
plane-surface $-1 13542.400000000007 9313.0000000000091 0 0.70710678118654757 -0.70710678118654757 0 0 0 -25.399999999999999 forward_v I I I I #
coedge $-1 $560 $544 $713 $714 reversed $428 $-1 #
edge $-1 $563 13.411632143176201 $715 39.370078740157503 $544 $716 forward 7 unknown #
edge $-1 $588 13.411632143176201 $644 39.370078740157503 $545 $717 forward 7 unknown #
coedge $-1 $718 $547 $584 $677 forward $643 $-1 #
coedge $-1 $547 $719 $679 $720 forward $643 $-1 #
loop $-1 $-1 $642 $636 #
vertex $-1 $548 $721 #
vertex $-1 $548 $722 #
straight-curve $-1 10006.900000000003 -5777.5000000000036 1000.0000000000006 4.665750208063242e-015 25.399999999999999 0 I I #
straight-curve $-1 -12848.499999999991 -17007.899999999991 1000.0000000000006 18.049632008507015 17.870948054243758 0 I I #
plane-surface $-1 9313.0000000000091 -13542.400000000007 0 -0.70710678118654757 -0.70710678118654757 0 0 0 25.399999999999999 forward_v I I I I #
face $-1 $667 $608 $2 $-1 $723 forward single #
loop $-1 $-1 $724 $556 #
plane-surface $-1 0 10006.900000000003 0 0 1 0 0 0 25.399999999999999 forward_v I I I I #
coedge $-1 $566 $559 $725 $726 forward $55 $-1 #
coedge $-1 $713 $727 $559 $654 forward $728 $-1 #
edge $-1 $729 -1.0529877502697895 $655 -0.51780857652510515 $653 $730 forward 7 unknown #
vertex $-1 $714 $731 #
ellipse-curve $-1 10006.900000000003 -1.8381769983097708e-012 0 1 -1.83690953073356e-016 0 0 0 5787.5342236569168 1 I I #
point $-1 10006.900000000003 5777.5000000000036 340.65545643667548 #
edge $-1 $732 3.1110398034691245 $567 3.1415926535897931 $574 $733 forward 7 unknown #
point $-1 5781.1983286720388 10010.561716734948 0 #
ellipse-curve $-1 4375.0000000000009 0 0 -1 0 0 0 0 -10700.13901778851 1 I I #
coedge $-1 $668 $713 $571 $662 forward $728 $-1 #
edge $-1 $715 0 $663 40.441140957095122 $571 $734 forward 7 unknown #
vertex $-1 $662 $735 #
straight-curve $-1 10733.24360724595 6503.8436072459517 0 0 0 -25.399999999999999 I I #
coedge $-1 $666 $574 $736 $737 forward $576 $-1 #
coedge $-1 $575 $665 $738 $739 reversed $576 $-1 #
face $-1 $686 $576 $2 $-1 $740 forward single #
coedge $-1 $738 $661 $578 $669 reversed $728 $-1 #
edge $-1 $670 2.1160014243083922 $663 2.5968072744889512 $668 $741 forward 7 unknown #
vertex $-1 $669 $742 #
straight-curve $-1 6508.3479742130703 10730.512879008002 0 0 0 25.399999999999999 I I #
face $-1 $432 $702 $2 $-1 $743 forward single #
plane-surface $-1 -1.225451332206513e-012 -10006.900000000003 0 -1.22460635382238e-016 -1 0 0 0 -25.399999999999999 forward_v I I I I #
coedge $-1 $744 $583 $680 $745 forward $474 $-1 #
coedge $-1 $583 $744 $705 $746 forward $474 $-1 #
edge $-1 $709 -1.0260109476940547 $682 -0.54520509751349555 $590 $747 forward 7 unknown #
edge $-1 $645 0.51780857652510714 $703 1.0529877502697915 $641 $748 forward 7 unknown #
ellipse-curve $-1 10006.900000000003 -1.8381769983097708e-012 0 1 -1.83690953073356e-016 0 0 0 5787.5342236569168 1 I I #
coedge $-1 $680 $586 $642 $720 reversed $542 $-1 #
coedge $-1 $587 $679 $674 $745 reversed $542 $-1 #
point $-1 10006.900000000003 -5777.5000000000036 340.65545643667548 #
vertex $-1 $591 $749 #
straight-curve $-1 2164.620224277126 2143.1913718235246 0 17.870948054243758 -18.049632008507015 0 I I #
coedge $-1 $685 $593 $611 $694 reversed $595 $-1 #
coedge $-1 $594 $684 $606 $692 reversed $595 $-1 #
face $-1 $93 $595 $2 $-1 $750 forward single #
edge $-1 $600 0.54520509751349555 $688 1.0260109476940547 $615 $751 forward 7 unknown #
vertex $-1 $694 $752 #
straight-curve $-1 -6503.8436072459517 10733.24360724595 0 0 0 -25.399999999999999 I I #
point $-1 -10730.512879008002 6508.3479742130703 1000.0000000000006 #
ellipse-curve $-1 2114.6999999999989 2114.6999999999989 0 0.70710678118654757 0.70710678118654757 0 -7895.8751199597909 7895.8751199597909 0 1 I I #
edge $-1 $609 13.411632143176201 $695 39.370078740157503 $606 $753 forward 7 unknown #
point $-1 -5777.5000000000036 10006.900000000003 340.65545643667548 #
edge $-1 $695 0 $688 40.441140957095122 $611 $754 forward 7 unknown #
vertex $-1 $612 $755 #
straight-curve $-1 5777.5000000000036 10006.900000000003 1000.0000000000006 -25.399999999999999 0 0 I I #
ellipse-curve $-1 0 0 4900.0000000000082 0 0 -1 10470.128939034124 0 0 1 I I #
point $-1 4375.0000000000009 9512.2539389988779 4900.0000000000082 #
point $-1 -5777.5000000000036 -10006.900000000003 1000.0000000000006 #
coedge $-1 $701 $626 $629 $707 forward $702 $-1 #
coedge $-1 $626 $700 $718 $756 reversed $702 $-1 #
loop $-1 $-1 $700 $672 #
vertex $-1 $677 $757 #
ellipse-curve $-1 -1.225451332206513e-012 -10006.900000000003 0 -1.22460635382238e-016 -1 0 0 0 5787.5342236569168 1 I I #
coedge $-1 $706 $628 $675 $746 reversed $630 $-1 #
coedge $-1 $629 $705 $758 $759 reversed $630 $-1 #
edge $-1 $631 13.411632143176201 $760 39.370078740157503 $700 $761 forward 7 unknown #
point $-1 5777.5000000000036 -10006.900000000003 340.65545643667548 #
vertex $-1 $676 $762 #
straight-curve $-1 5777.5000000000036 -10006.900000000003 0 17.960512242138318 -17.960512242138318 0 I I #
face $-1 $257 $728 $2 $-1 $763 forward single #
plane-surface $-1 0 0 1000.0000000000006 0 0 1 25.399999999999999 0 0 forward_v I I I I #
coedge $-1 $661 $653 $638 $714 forward $728 $-1 #
edge $-1 $655 451.88925318690701 $715 454.92125984251999 $638 $764 forward 7 unknown #
vertex $-1 $639 $765 #
straight-curve $-1 10006.900000000003 5777.5000000000036 0 0 0 25.399999999999999 I I #
straight-curve $-1 10006.900000000003 -5777.5000000000036 0 0 0 25.399999999999999 I I #
coedge $-1 $758 $641 $701 $756 forward $643 $-1 #
coedge $-1 $642 $758 $744 $766 reversed $643 $-1 #
edge $-1 $767 351.26212117780221 $644 391.75313915914393 $679 $768 forward 7 unknown #
point $-1 10006.900000000003 -5777.5000000000036 1000.0000000000006 #
point $-1 10006.900000000003 -5700.4870309474591 1000.0000000000006 #
plane-surface $-1 0 10006.900000000003 0 0 1 0 0 0 25.399999999999999 forward_v I I I I #
coedge $-1 $736 $725 $727 $769 reversed $650 $-1 #
coedge $-1 $724 $736 $652 $726 reversed $650 $-1 #
edge $-1 $729 1.3971396698262537 $732 1.5119020806349326 $725 $770 forward 7 unknown #
coedge $-1 $653 $738 $724 $769 forward $728 $-1 #
loop $-1 $-1 $653 $711 #
vertex $-1 $654 $771 #
ellipse-curve $-1 0 0 1000.0000000000006 0 0 -1 11516.666184273989 0 0 1 I I #
point $-1 10006.900000000003 5700.4870309474336 1000.0000000000006 #
vertex $-1 $737 $772 #
ellipse-curve $-1 -2143.1913718235246 2164.620224277126 0 -0.70358063205684107 0.71061543340578814 0 -7924.3897004955506 -7845.941492457835 0 1 I I #
straight-curve $-1 10006.900000000003 5777.5000000000036 1000.0000000000006 17.960512242138318 17.960512242138318 0 I I #
point $-1 10733.24360724595 6503.8436072459517 1000.0000000000006 #
coedge $-1 $725 $724 $665 $737 reversed $650 $-1 #
edge $-1 $732 13.411632143176201 $773 39.370078740157503 $736 $774 forward 7 unknown #
coedge $-1 $727 $668 $666 $739 forward $728 $-1 #
edge $-1 $670 351.26212117780221 $773 391.75313915914393 $738 $775 forward 7 unknown #
plane-surface $-1 9313.0000000000091 13507.399999999994 0 -0.70358063205684107 0.71061543340578814 0 0 0 25.399999999999999 forward_v I I I I #
ellipse-curve $-1 0 0 1000.0000000000006 0 0 -1 -12549.999999999991 0 0 1 I I #
point $-1 6508.3479742130703 10730.512879008002 1000.0000000000006 #
plane-surface $-1 -1.225451332206513e-012 -10006.900000000003 0 -1.22460635382238e-016 -1 0 0 0 -25.399999999999999 forward_v I I I I #
coedge $-1 $675 $674 $719 $766 forward $474 $-1 #
edge $-1 $682 0 $767 39.370078740157503 $680 $776 forward 7 unknown #
edge $-1 $777 -39.370078740157503 $709 0 $675 $778 forward 7 unknown #
ellipse-curve $-1 0 0 0 0 0 1 12549.999999999991 0 0 1 I I #
ellipse-curve $-1 0 0 1000.0000000000006 0 0 -1 11516.666184273989 0 0 1 I I #
point $-1 10730.512879008002 -6508.3479742130703 0 #
plane-surface $-1 -9313.0000000000091 13542.400000000007 0 0.70710678118654757 0.70710678118654757 0 0 0 -25.399999999999999 forward_v I I I I #
ellipse-curve $-1 0 0 1000.0000000000006 0 0 -1 -12549.999999999991 0 0 1 I I #
point $-1 -6503.8436072459517 10733.24360724595 1000.0000000000006 #
straight-curve $-1 -5777.5000000000036 10006.900000000003 0 0 0 25.399999999999999 I I #
straight-curve $-1 -5777.5000000000036 10006.900000000003 1000.0000000000006 -17.960512242138318 17.960512242138318 0 I I #
point $-1 -5777.5000000000036 10006.900000000003 1000.0000000000006 #
edge $-1 $703 451.88925318690701 $760 454.92125984251999 $718 $779 forward 7 unknown #
point $-1 5700.4870309474336 -10006.900000000003 1000.0000000000006 #
coedge $-1 $719 $718 $706 $759 forward $643 $-1 #
edge $-1 $760 0 $777 40.441140957095122 $758 $780 forward 7 unknown #
vertex $-1 $756 $781 #
straight-curve $-1 5777.5000000000036 -10006.900000000003 0 0 0 25.399999999999999 I I #
point $-1 6503.8436072459517 -10733.24360724595 0 #
plane-surface $-1 0 0 1000.0000000000006 0 0 1 25.399999999999999 0 0 forward_v I I I I #
straight-curve $-1 10006.900000000003 -5777.5000000000036 1000.0000000000006 4.665750208063242e-015 25.399999999999999 0 I I #
point $-1 10006.900000000003 5777.5000000000036 1000.0000000000006 #
edge $-1 $767 -2.5963875560762979 $777 -2.1155817058957385 $719 $782 forward 7 unknown #
vertex $-1 $720 $783 #
straight-curve $-1 17007.899999999991 -12848.499999999991 1000.0000000000006 -17.870948054243758 18.049632008507015 0 I I #
edge $-1 $773 0 $729 3.0320066556119798 $727 $784 forward 7 unknown #
ellipse-curve $-1 0 10006.900000000003 0 0 1 0 0 0 5787.5342236569168 1 I I #
point $-1 5700.4870309474591 10006.900000000003 1000.0000000000006 #
point $-1 5777.5000000000036 10006.900000000003 340.65545643667548 #
vertex $-1 $739 $785 #
straight-curve $-1 5777.5000000000036 10006.900000000003 0 0 0 25.399999999999999 I I #
straight-curve $-1 12848.499999999991 17007.899999999991 1000.0000000000006 -18.049632008507015 -17.870948054243758 0 I I #
straight-curve $-1 10730.512879008002 -6508.3479742130703 0 0 0 25.399999999999999 I I #
vertex $-1 $759 $786 #
straight-curve $-1 6503.8436072459517 -10733.24360724595 0 0 0 -25.399999999999999 I I #
straight-curve $-1 -5777.5000000000036 -10006.900000000003 1000.0000000000006 25.399999999999999 -3.1105001387088449e-015 0 I I #
straight-curve $-1 5777.5000000000036 -10006.900000000003 1000.0000000000006 17.960512242138318 -17.960512242138318 0 I I #
point $-1 5777.5000000000036 -10006.900000000003 1000.0000000000006 #
ellipse-curve $-1 0 0 1000.0000000000006 0 0 -1 -12549.999999999991 0 0 1 I I #
point $-1 10730.512879008002 -6508.3479742130703 1000.0000000000006 #
straight-curve $-1 5777.5000000000036 10006.900000000003 1000.0000000000006 -25.399999999999999 0 0 I I #
point $-1 5777.5000000000036 10006.900000000003 1000.0000000000006 #
point $-1 6503.8436072459517 -10733.24360724595 1000.0000000000006 #
End-of-ACIS-data 