  0
SECTION
  2
HEADER
  9
$ACADVER
  1
AC1009
  9
$INSBASE
 10
0.0
 20
0.0
 30
0.0
  9
$EXTMIN
 10
-1.0
 20
-1.0
 30
-1.0
  9
$EXTMAX
 10
4.0
 20
5.0
 30
4.0
  9
$LIMMIN
 10
0.0
 20
0.0
  9
$LIMMAX
 10
12.0
 20
9.0
  9
$ORTHOMODE
 70
     0
  9
$REGENMODE
 70
     1
  9
$FILLMODE
 70
     1
  9
$QTEXTMODE
 70
     0
  9
$MIRRTEXT
 70
     1
  9
$DRAGMODE
 70
     2
  9
$LTSCALE
 40
1.0
  9
$OSMODE
 70
     0
  9
$ATTMODE
 70
     1
  9
$TEXTSIZE
 40
0.2
  9
$TRACEWID
 40
0.05
  9
$TEXTSTYLE
  7
STANDARD
  9
$CLAYER
  8
0
  9
$CELTYPE
  6
BYLAYER
  9
$CECOLOR
 62
   256
  9
$DIMSCALE
 40
1.0
  9
$DIMASZ
 40
0.18
  9
$DIMEXO
 40
0.0625
  9
$DIMDLI
 40
0.38
  9
$DIMRND
 40
0.0
  9
$DIMDLE
 40
0.0
  9
$DIMEXE
 40
0.18
  9
$DIMTP
 40
0.0
  9
$DIMTM
 40
0.0
  9
$DIMTXT
 40
0.18
  9
$DIMCEN
 40
0.09
  9
$DIMTSZ
 40
0.0
  9
$DIMTOL
 70
     0
  9
$DIMLIM
 70
     0
  9
$DIMTIH
 70
     1
  9
$DIMTOH
 70
     1
  9
$DIMSE1
 70
     0
  9
$DIMSE2
 70
     0
  9
$DIMTAD
 70
     0
  9
$DIMZIN
 70
     0
  9
$DIMBLK
  1

  9
$DIMASO
 70
     1
  9
$DIMSHO
 70
     1
  9
$DIMPOST
  1

  9
$DIMAPOST
  1

  9
$DIMALT
 70
     0
  9
$DIMALTD
 70
     2
  9
$DIMALTF
 40
25.4
  9
$DIMLFAC
 40
1.0
  9
$DIMTOFL
 70
     0
  9
$DIMTVP
 40
0.0
  9
$DIMTIX
 70
     0
  9
$DIMSOXD
 70
     0
  9
$DIMSAH
 70
     0
  9
$DIMBLK1
  1

  9
$DIMBLK2
  1

  9
$DIMSTYLE
  2
*UNNAMED
  9
$DIMCLRD
 70
     0
  9
$DIMCLRE
 70
     0
  9
$DIMCLRT
 70
     0
  9
$DIMTFAC
 40
1.0
  9
$DIMGAP
 40
0.09
  9
$LUNITS
 70
     2
  9
$LUPREC
 70
     4
  9
$SKETCHINC
 40
0.1
  9
$FILLETRAD
 40
0.0
  9
$AUNITS
 70
     0
  9
$AUPREC
 70
     0
  9
$MENU
  1
acad
  9
$ELEVATION
 40
0.0
  9
$PELEVATION
 40
0.0
  9
$THICKNESS
 40
0.0
  9
$LIMCHECK
 70
     0
  9
$BLIPMODE
 70
     1
  9
$CHAMFERA
 40
0.0
  9
$CHAMFERB
 40
0.0
  9
$SKPOLY
 70
     0
  9
$TDCREATE
 40
2449366.454387974
  9
$TDUPDATE
 40
2449366.458663009
  9
$TDINDWG
 40
0.0042750347
  9
$TDUSRTIMER
 40
0.0042750347
  9
$USRTIMER
 70
     1
  9
$ANGBASE
 50
0.0
  9
$ANGDIR
 70
     0
  9
$PDMODE
 70
     0
  9
$PDSIZE
 40
0.0
  9
$PLINEWID
 40
0.0
  9
$COORDS
 70
     1
  9
$SPLFRAME
 70
     0
  9
$SPLINETYPE
 70
     6
  9
$SPLINESEGS
 70
     8
  9
$ATTDIA
 70
     0
  9
$ATTREQ
 70
     1
  9
$HANDLING
 70
     1
  9
$HANDSEED
  5
5E
  9
$SURFTAB1
 70
     6
  9
$SURFTAB2
 70
     6
  9
$SURFTYPE
 70
     6
  9
$SURFU
 70
     6
  9
$SURFV
 70
     6
  9
$UCSNAME
  2

  9
$UCSORG
 10
0.0
 20
0.0
 30
0.0
  9
$UCSXDIR
 10
1.0
 20
0.0
 30
0.0
  9
$UCSYDIR
 10
0.0
 20
1.0
 30
0.0
  9
$PUCSNAME
  2

  9
$PUCSORG
 10
0.0
 20
0.0
 30
0.0
  9
$PUCSXDIR
 10
1.0
 20
0.0
 30
0.0
  9
$PUCSYDIR
 10
0.0
 20
1.0
 30
0.0
  9
$USERI1
 70
     0
  9
$USERI2
 70
     0
  9
$USERI3
 70
     0
  9
$USERI4
 70
     0
  9
$USERI5
 70
     0
  9
$USERR1
 40
0.0
  9
$USERR2
 40
0.0
  9
$USERR3
 40
0.0
  9
$USERR4
 40
0.0
  9
$USERR5
 40
0.0
  9
$WORLDVIEW
 70
     1
  9
$SHADEDGE
 70
     3
  9
$SHADEDIF
 70
    70
  9
$TILEMODE
 70
     1
  9
$MAXACTVP
 70
    16
  9
$PINSBASE
 10
0.0
 20
0.0
 30
0.0
  9
$PLIMCHECK
 70
     0
  9
$PEXTMIN
 10
1.000000E+20
 20
1.000000E+20
 30
1.000000E+20
  9
$PEXTMAX
 10
-1.000000E+20
 20
-1.000000E+20
 30
-1.000000E+20
  9
$PLIMMIN
 10
0.0
 20
0.0
  9
$PLIMMAX
 10
12.0
 20
9.0
  9
$UNITMODE
 70
     0
  9
$VISRETAIN
 70
     0
  9
$PLINEGEN
 70
     0
  9
$PSLTSCALE
 70
     1
  9
$TREEDEPTH
 70
  3020
  9
$DWGCODEPAGE
  3
ascii
  0
ENDSEC
  0
SECTION
  2
TABLES
  0
TABLE
  2
VPORT
 70
     2
  0
VPORT
  2
*ACTIVE
 70
     0
 10
0.0
 20
0.0
 11
1.0
 21
1.0
 12
2.08995
 22
0.365148
 13
0.0
 23
0.0
 14
1.0
 24
1.0
 15
0.0
 25
0.0
 16
1.0
 26
2.0
 36
1.0
 17
0.0
 27
0.0
 37
0.0
 40
7.668116
 41
1.594883
 42
50.0
 43
0.0
 44
0.0
 50
0.0
 51
0.0
 71
     0
 72
   100
 73
     1
 74
     1
 75
     0
 76
     0
 77
     0
 78
     0
  0
ENDTAB
  0
TABLE
  2
LTYPE
 70
     1
  0
LTYPE
  2
CONTINUOUS
 70
    64
  3
Solid line
 72
    65
 73
     0
 40
0.0
  0
ENDTAB
  0
TABLE
  2
LAYER
 70
     2
  0
LAYER
  2
0
 70
    64
 62
     7
  6
CONTINUOUS
  0
LAYER
  2
AME_FRZ
 70
    65
 62
     7
  6
CONTINUOUS
  0
ENDTAB
  0
TABLE
  2
STYLE
 70
     1
  0
STYLE
  2
STANDARD
 70
     0
 40
0.0
 41
1.0
 50
0.0
 71
     0
 42
0.2
  3
txt
  4

  0
ENDTAB
  0
TABLE
  2
VIEW
 70
     0
  0
ENDTAB
  0
TABLE
  2
UCS
 70
     0
  0
ENDTAB
  0
TABLE
  2
APPID
 70
     3
  0
APPID
  2
ACAD
 70
    64
  0
APPID
  2
AME_SOL
 70
    64
  0
APPID
  2
AVE_INVOKE
 70
    64
  0
ENDTAB
  0
TABLE
  2
DIMSTYLE
 70
     0
  0
ENDTAB
  0
ENDSEC
  0
SECTION
  2
BLOCKS
  0
BLOCK
  8
0
  5
1
  2
AME_NIL
 70
    64
 10
0.0
 20
0.0
 30
0.0
  1
AME_NIL
  3
AME_NIL
  0
ENDBLK
  8
0
  5
2
  0
BLOCK
  8
0
  5
4
  2
AME_SOL
 70
    64
 10
0.0
 20
0.0
 30
0.0
  1
AME_SOL
  3
AME_SOL
  0
ENDBLK
  8
0
  5
5
  0
BLOCK
  8
0
  5
20
  2
SOLAXES
 70
     0
 10
0.0
 20
0.0
 30
0.0
  1
SOLAXES
  3
SOLAXES
  0
LINE
  8
0
 62
     0
  5
21
 10
0.0
 20
0.0
 30
0.0
 11
2.970759
 21
0.0
 31
0.0
  0
LINE
  8
0
 62
     0
  5
22
 10
0.0
 20
0.0
 30
0.0
 11
0.0
 21
2.970759
 31
0.0
  0
LINE
  8
0
 62
     0
  5
23
 10
0.0
 20
0.0
 30
0.0
 11
0.0
 21
0.0
 31
2.970759
  0
CIRCLE
  8
0
 62
     0
  5
24
 10
0.0
 20
0.0
 30
2.673683
 40
0.148538
210
1.0
220
0.0
230
0.0
  0
LINE
  8
0
 62
     0
  5
25
 10
2.673683
 20
0.148538
 30
0.0
 11
2.970759
 21
0.0
 31
0.0
  0
LINE
  8
0
 62
     0
  5
26
 10
2.673683
 20
0.0
 30
0.148538
 11
2.970759
 21
0.0
 31
0.0
  0
LINE
  8
0
 62
     0
  5
27
 10
2.673683
 20
-0.148538
 30
0.0
 11
2.970759
 21
0.0
 31
0.0
  0
LINE
  8
0
 62
     0
  5
28
 10
2.673683
 20
0.0
 30
-0.148538
 11
2.970759
 21
0.0
 31
0.0
  0
CIRCLE
  8
0
 62
     0
  5
29
 10
0.0
 20
0.0
 30
2.673683
 40
0.148538
210
0.0
220
1.0
230
0.0
  0
LINE
  8
0
 62
     0
  5
2A
 10
0.148538
 20
2.673683
 30
0.0
 11
0.0
 21
2.970759
 31
0.0
  0
LINE
  8
0
 62
     0
  5
2B
 10
0.0
 20
2.673683
 30
0.148538
 11
0.0
 21
2.970759
 31
0.0
  0
LINE
  8
0
 62
     0
  5
2C
 10
-0.148538
 20
2.673683
 30
0.0
 11
0.0
 21
2.970759
 31
0.0
  0
LINE
  8
0
 62
     0
  5
2D
 10
0.0
 20
2.673683
 30
-0.148538
 11
0.0
 21
2.970759
 31
0.0
  0
CIRCLE
  8
0
 62
     0
  5
2E
 10
0.0
 20
0.0
 30
2.376607
 40
0.148538
210
0.0
220
1.0
230
0.0
  0
LINE
  8
0
 62
     0
  5
2F
 10
0.148538
 20
2.376607
 30
0.0
 11
0.0
 21
2.673683
 31
0.0
  0
LINE
  8
0
 62
     0
  5
30
 10
0.0
 20
2.376607
 30
0.148538
 11
0.0
 21
2.673683
 31
0.0
  0
LINE
  8
0
 62
     0
  5
31
 10
-0.148538
 20
2.376607
 30
0.0
 11
0.0
 21
2.673683
 31
0.0
  0
LINE
  8
0
 62
     0
  5
32
 10
0.0
 20
2.376607
 30
-0.148538
 11
0.0
 21
2.673683
 31
0.0
  0
CIRCLE
  8
0
 62
     0
  5
33
 10
0.0
 20
0.0
 30
2.673683
 40
0.148538
  0
LINE
  8
0
 62
     0
  5
34
 10
0.148538
 20
0.0
 30
2.673683
 11
0.0
 21
0.0
 31
2.970759
  0
LINE
  8
0
 62
     0
  5
35
 10
0.0
 20
0.148538
 30
2.673683
 11
0.0
 21
0.0
 31
2.970759
  0
LINE
  8
0
 62
     0
  5
36
 10
-0.148538
 20
0.0
 30
2.673683
 11
0.0
 21
0.0
 31
2.970759
  0
LINE
  8
0
 62
     0
  5
37
 10
0.0
 20
-0.148538
 30
2.673683
 11
0.0
 21
0.0
 31
2.970759
  0
CIRCLE
  8
0
 62
     0
  5
38
 10
0.0
 20
0.0
 30
2.376607
 40
0.148538
  0
LINE
  8
0
 62
     0
  5
39
 10
0.148538
 20
0.0
 30
2.376607
 11
0.0
 21
0.0
 31
2.673683
  0
LINE
  8
0
 62
     0
  5
3A
 10
0.0
 20
0.148538
 30
2.376607
 11
0.0
 21
0.0
 31
2.673683
  0
LINE
  8
0
 62
     0
  5
3B
 10
-0.148538
 20
0.0
 30
2.376607
 11
0.0
 21
0.0
 31
2.673683
  0
LINE
  8
0
 62
     0
  5
3C
 10
0.0
 20
-0.148538
 30
2.376607
 11
0.0
 21
0.0
 31
2.673683
  0
CIRCLE
  8
0
 62
     0
  5
3D
 10
0.0
 20
0.0
 30
2.079531
 40
0.148538
  0
LINE
  8
0
 62
     0
  5
3E
 10
0.148538
 20
0.0
 30
2.079531
 11
0.0
 21
0.0
 31
2.376607
  0
LINE
  8
0
 62
     0
  5
3F
 10
0.0
 20
0.148538
 30
2.079531
 11
0.0
 21
0.0
 31
2.376607
  0
LINE
  8
0
 62
     0
  5
40
 10
-0.148538
 20
0.0
 30
2.079531
 11
0.0
 21
0.0
 31
2.376607
  0
LINE
  8
0
 62
     0
  5
41
 10
0.0
 20
-0.148538
 30
2.079531
 11
0.0
 21
0.0
 31
2.376607
  0
ENDBLK
  8
0
  5
42
  0
BLOCK
  8
0
  5
45
  2
*U5
 70
    65
 10
0.0
 20
0.0
 30
0.0
  1
*U
  3
*U
  0
LINE
  8
0
 62
     7
  5
46
 10
4.0
 20
4.0
 30
0.0
 11
4.0
 21
4.0
 31
4.0
1001
AME_SOL
1070
     1
1071
       20
  0
LINE
  8
0
 62
     7
  5
47
 10
4.0
 20
4.0
 30
4.0
 11
4.0
 21
0.0
 31
4.0
1001
AME_SOL
1070
     1
1071
       19
  0
LINE
  8
0
 62
     7
  5
48
 10
0.0
 20
4.0
 30
4.0
 11
4.0
 21
4.0
 31
4.0
1001
AME_SOL
1070
     1
1071
       18
  0
LINE
  8
0
 62
     7
  5
49
 10
0.0
 20
4.0
 30
0.0
 11
0.0
 21
4.0
 31
4.0
1001
AME_SOL
1070
     1
1071
       17
  0
LINE
  8
0
 62
     7
  5
4A
 10
0.0
 20
4.0
 30
4.0
 11
0.0
 21
0.0
 31
4.0
1001
AME_SOL
1070
     1
1071
       16
  0
LINE
  8
0
 62
     7
  5
4B
 10
0.0
 20
0.0
 30
0.0
 11
0.0
 21
0.0
 31
4.0
1001
AME_SOL
1070
     1
1071
       15
  0
LINE
  8
0
 62
     7
  5
4C
 10
4.0
 20
0.0
 30
4.0
 11
4.0
 21
0.0
 31
0.0
1001
AME_SOL
1070
     1
1071
       14
  0
LINE
  8
0
 62
     7
  5
4D
 10
0.0
 20
0.0
 30
4.0
 11
4.0
 21
0.0
 31
4.0
1001
AME_SOL
1070
     1
1071
       13
  0
LINE
  8
0
 62
     7
  5
4E
 10
0.0
 20
0.0
 30
0.0
 11
4.0
 21
0.0
 31
0.0
1001
AME_SOL
1070
     1
1071
       12
  0
LINE
  8
0
 62
     7
  5
4F
 10
0.0
 20
4.0
 30
0.0
 11
0.0
 21
0.0
 31
0.0
1001
AME_SOL
1070
     1
1071
       11
  0
LINE
  8
0
 62
     7
  5
50
 10
4.0
 20
0.0
 30
0.0
 11
4.0
 21
4.0
 31
0.0
1001
AME_SOL
1070
     1
1071
       10
  0
LINE
  8
0
 62
     7
  5
51
 10
4.0
 20
4.0
 30
0.0
 11
0.0
 21
4.0
 31
0.0
1001
AME_SOL
1070
     1
1071
        9
  0
CIRCLE
  8
0
 62
     7
  5
52
 10
-2.0
 20
2.0
 30
4.0
 40
1.0
210
0.0
220
1.0
230
0.0
1001
AME_SOL
1070
     1
1071
        8
  0
ARC
  8
0
 62
     7
  5
53
 10
-4.0
 20
2.0
 30
-2.0
 40
1.0
 50
270.0
 51
90.0
210
-1.0
220
0.0000000000000035
230
0.0
1001
AME_SOL
1070
     0
1071
        1
  0
CIRCLE
  8
0
 62
     7
  5
54
 10
2.0
 20
2.0
 30
-4.0
 40
1.0
210
0.0
220
-1.0
230
0.0000000000000001
1001
AME_SOL
1070
     0
1071
        1
  0
ARC
  8
0
 62
     7
  5
55
 10
2.0
 20
4.0
 30
2.0
 40
1.0
 50
180.0
 51
270.0
1001
AME_SOL
1070
     0
1071
        1
  0
ARC
  8
0
 62
     7
  5
56
 10
2.0
 20
4.0
 30
2.0
 40
1.0
 50
270.0
 51
0.0
1001
AME_SOL
1070
     0
1071
        1
  0
ENDBLK
  8
0
  5
57
  0
BLOCK
  8
0
  5
5B
  2
AME_JNK
 70
     0
 10
0.0
 20
0.0
 30
0.0
  1
AME_JNK
  3
AME_JNK
  0
ENDBLK
  8
0
  5
5C
  0
ENDSEC
  0
SECTION
  2
ENTITIES
  0
INSERT
  8
AME_FRZ
  5
3
  2
AME_NIL
 10
0.0
 20
0.0
 30
0.0
  0
INSERT
  8
AME_FRZ
  5
6
  2
AME_SOL
 10
0.0
 20
0.0
 30
0.0
1001
AME_SOL
1000
R2.1
1000
AME2
1000
sq cm
1070
     3
1070
     0
1070
     3
1000
wire
1040
45.0
1000
U
1040
1.0
1000
cm
1000
gm
1000
MILD_STEEL
1070
    25
1000
CSG
1070
     1
1070
     3
1070
     3
1070
     3
1070
     0
1000
cu cm
1070
     1
1070
     0
1005
3
  0
INSERT
  8
AME_FRZ
  5
15
  2
AME_NIL
 10
0.0
 20
0.0
 30
0.0
1001
AME_SOL
1002
{
1070
     1
1071
  2482632
1070
  1536
1070
     1
1010
4.0
1020
4.0
1030
4.0
1005
0
1005
0
1005
58
1040
0.0
1040
1.0
1070
     0
1000
MILD_STEEL
1000
0
1010
0.0
1020
0.0
1030
0.0
1010
0.0
1020
0.0
1030
1.0
1040
0.0
1002
}
1001
AVE_INVOKE
1000
SOLAVEMESH
  0
INSERT
  8
AME_FRZ
  5
1D
  2
AME_NIL
 10
2.0
 20
2.0
 30
-4.0
210
0.0
220
-1.0
230
0.0000000000000001
1001
AME_SOL
1002
{
1070
     1
1071
  2388480
1070
  1539
1070
     1
1010
1.0
1020
0.0
1030
0.0
1005
0
1005
0
1005
58
1040
0.0
1040
1.0
1070
     0
1000
MILD_STEEL
1000
0
1010
2.0
1020
2.0
1030
-4.0
1010
0.0
1020
-1.0
1030
0.0
1040
0.0
1002
}
  0
INSERT
  8
0
  5
58
  2
*U5
 10
0.0
 20
0.0
 30
0.0
1001
AME_SOL
1002
{
1070
     1
1071
  2407152
1070
  1543
1070
     1
1070
     0
1005
15
1005
1D
1005
0
1005
59
1005
0
1040
0.0
1040
1.0
1070
     0
1000
MILD_STEEL
1000
0
1002
}
1001
AVE_INVOKE
1000
SOLAVEMESH
  0
INSERT
  8
AME_FRZ
  5
59
  2
AME_NIL
 10
1.0
 20
1.0
 30
1.0
1001
AME_SOL
1004
C7CF0100CB006501640162015E0156014A013E019600310125014D001901E3004F00D0003F013201A400EE004400020057014B0180004001210054004C0141013301200026013700F2002D0074005F0158013F004D01FE004201C000750059014E0105004301340108000F003501FC0027011A010C001500
1004
1B01B0007F004F014401360128011C01CE0050001D010F010300070010011400E80029011E0111012E0001010001680012010201700072000301F70019001F01130104012700E7000501E600E500140106012F0030000701310032003701F500ED00A000630160015A015001240045013801F300AF00FB00
1004
5101460139012A01200115010801E200E1000901DC00380016010A01DB00A9000B015200DA00040084003A014E002B01D100A60018005B01520147013B012C019100F8002D01E00078003C012E018F00210117010C01D800D6000D01C900C800BC002F0190002201EF003C000100400061015C015301F000
1004
2800FF005D015401BF0048013D01090030012301EA0018010E014800B80025002401F900D700060055014901A8000A0010000000750E23A87112151AB366B5BA431CB1C5ABC2C9E53531DC0B2794D4C7702C9E53531DC7AF1A47663EB7AF1A47661C65BD78D23B31F5ABD18CD59BCE06703AEA710ED16222
1004
1D1C559BCE06703AEA710DD385A6F9B8F4D16F5E348ECC38CB374E169BE6E3D345AB0201630053ABB5BAB52AE0402FFD827FFFFF13E975029FFB04FEBFDF5FF599FD827FFFFFFF8100BFF609FFFFFC4FA5D40A7FEC13FAFF7D7FD667F609FFFFFFFB0E011D40F362FFFFEC13E9750297FB0E7FFFFF5FEFAC
1004
D3F5A47FB04FD82323418B4629D0B323418B4629D17FEAF4C683168C53ACE263418B4629D6207B23418B4629D0B263418B4629D67031935AD1935AD4C683168C53AC464683168C53A2C31935AD1935AD0F64683168C53A164C683168C53ACE263418B4629D62323418B4629D16047515E6C5FFFFA5D40A7F
1004
EC13F61CFFFFFEBFDF5FF5A47FB04FD82323418B4629D0B323418B4629D17FFEAF64683168C53A1664683168C53A2C31935AD390AEAF64683168C53A1664683168C53A2C08EA79B17FFFE975029FFB04F033955394FFD827D2EA052FFAFF7D7FD691FEC13F608C8D062D18A742CC8D062D18A745FFABFE97
1004
50296C8D062D18A745ABD91A0C5A314E85BE975029618C9AD68C9AD6ABD91A0C5A314E85BE97502968C66918593CA6A63B8164F29A98EE0593CA6A63B8F5E348ECC7D6F5E348ECC7D6164F29A98E45692949A8D0ABD59CFABA4A57FFFB04FFFD827FFFFFFFFF99FFFFFFFFFF494AFFFF609FFFB04FFFFFFF
1004
FFF33FFFFFFFFFB04463348C2C9E53531DC0B2794D4C7702C9E53531DC7AF1A47663EB0B2794D4C723D78D23B31F5AB494A3CD90ABD59CF2BA4A57FB04FFFFFFFFFD827FFFFF99FFFFFFFFFF494AFF609FFFFFFFFFB04FFFFFF33FFFFFFFFFB04463348C2C9E53531DC0B2794D4C7702C9E53531DC0B2794
1004
D4C723D78D23B31F5BD78D23B31F5AB494A512910ABD59CEABA4A57FFFFFB04FFFD827FFFFFFF99FFFFFFFFFF494AFFFFFF609FFFB04FFFFFFFF33FFFFFFFFFB04463348C2C9E53531DC0B2794D4C770ED162221D1AADEBC691D98FADEBC691D98FADEBC691D98FAD5A4A52854C855EACE715D252BFD873F
1004
89FC4FE27EC39FC4FDF5FEFAFF7D667FFFFFFFFFD252BFD873F89FC4FE27EC39FC4FDF5FEFAFF7D667FFFFFFFFF6088C66642C9E53531DC3B458888746AB0B2794D4C771EBC691D98FADEBC691D98FADEBC691D98FAD5A4A51A01A157AB390AE9295FF13F89FB0E7EC39FC4FE27EFAFF7D7FBEB33FFFFFFF
1004
FFE9295FF13F89FB0E7EC39FC4FE27EFAFF7D7FBEB33FFFFFFFFFB04463348CED162221D1AAC2C9E53531DC0B2794D4C771EBC691D98FADEBC691D98FADEBC691D98FAD5A4A50C2590ABD58D57494AFF89FB0E7F13F89FC4FD873F7D7FBEBFDF599FFFFFFFFFF494AFF89FB0E7F13F89FC4FD873F7D7FBEB
1004
FDF599FFFFFFFFFD8202029BCE06703AEA710ED162221D1AACDE703381D753886E9C2D37CDC7A68B7AF1A47663EB374E169BE6E3D345B23418B4629D0B323418B4629D1619B17533AE731D5B5A30053AB9A01A1C334034230053ABABDAD6B4D8BFFC4FE27EC39FB0E7F13F89FD7FBEBFEB48FF609FB04646
1004
83168C53A1664683168C53A2C10142C9E53531DC3B458888746AB0B2794D4C771EBC691D98FADEBC691D98FAC2C9E53531C9FCB7F58600B8C24121DAD569A8D09A01A1C34D4684D00D0ABD5E00BFFFFB04FFFFFFFD873FAFF7D7FE1FF2DFD6080A768B1110E8D56164F29A98EE0593CA6A63B8F5E348ECC7
1004
D6F5E348ECC7D6164F29A98E4FE5BFAC3005D20D2050ED6AB4D4684612C870D351A1184B2157ABC017FF609FFFFFFFFFB0E7EFAFFAFFC3FE5BFAC10142C9E53531DC0B2794D4C7702C9E53531DC0B2794D4C723D78D23B31F58593CA6A6393F7CB7F103005CE4D2010ED6AB4D468544A443869A8D0A89488
1004
55EAF005FFD873FFFFFFFFF61CFFFFFF0FF7CB7F1010142C9E53531DC0B2794D4C7702C9E53531DC7AF1A47663EB0B2794D4C720593CA6A6393FFF7D61802EA56A52876B55A6A34279B21C34D4684F3642AF57802FFFFEC39FFFFFFFB0E7FFFFF87FFFBEB04050B2794D4C7702C9E53531DC3B458888746A
1004
B7AF1A47663EB0B2794D4C723D78D23B31F5FF2DFD61802EEAAEBA1DAD5679B2150A990E19E6C8542A642AF57802FFFFFFEC13FFF61CFFFEBFFFDF587FCB7F582029DA2C4443A3558593CA6A63B8164F29A98EE3D78D23B31F58593CA6A6391EBC691D98FAFF96FEB0C01738EA50876B559E6C84612C870C
1004
F3642309642AF57802FFEC13FFFFFFF61CFFFDF5FFFF587FCB7F582028593CA6A63B8164F29A98EE0593CA6A63B8164F29A98E40B2794D4C723D78D23B31F5FFFEFAC3005D348743B5AACF3642A25221C33CD90A8948855EAF005FFD873FFFFFFF61CFFFFFFFF0FFFF7D6080A164F29A98EE0593CA6A63B8
1004
768B1110E8D56164F29A98E47AF1A47663EB7AF1A47663EBFE5BFAC3005DD512110ED6AB512910A854C870D44A442A1532157ABC017FFFFFF609FB0E7FFFFFFF5FEFAC3FE5BFAC10142C9E53531DC3B458888746AB0B2794D4C7702C9E53531C8F5E348ECC7D6F5E348ECC7D7FCB7F58600BACE6D0ED6AB5
1004
129109A01A1C35129109A01A157ABC017FFFF609FFFB0E7FFFFFFEFAFFAC3FE5BFAC10142C9E53531DC3B458888746AB3B458888746AB7AF1A47663EB7AF1A47663EB7AF1A47663EBFDF2DFC40C01739439A43B5AAD42A6426806870D42A6426806855EAF005FFFFD827FFFFFFEC13F7D7FBEBFDF587FBE5
1004
BF88080A768B1110E8D56164F29A98EE1DA2C4443A355BD78D23B31F5BD78D23B31F5BD78D23B31F5FFFEFAC3005CF39943B5AAD42A64230964386A15321184B2157ABC017FF609FFFFFC4FFFD827EFAFF7D7FBEB0FFFF7D6080A768B1110E8D56768B1110E8D56164F29A98EE3D78D23B31F5BD78D23B31
1004
F5BD78D23B31F5FEF96FE20600B819C743B5AACD00D08C2590E19A01A1184B2157ABC017FF609FFFFFFFB04FFFDF5FEFAFF7D61FEF96FE21CB9B1C90
1005
5A
  0
INSERT
  8
AME_FRZ
  5
5A
  2
AME_NIL
 10
1.0
 20
1.0
 30
1.0
1001
AME_SOL
1004

1005
0
  0
ENDSEC
  0
EOF
