  0
SECTION
  2
HEADER
  9
$ACADVER
  1
AC1009
  9
$INSBASE
 10
0.0
 20
0.0
 30
0.0
  9
$EXTMIN
 10
-0.5
 20
-4.0
 30
0.0
  9
$EXTMAX
 10
12.0
 20
8.0
 30
3.0
  9
$LIMMIN
 10
0.0
 20
0.0
  9
$LIMMAX
 10
12.0
 20
9.0
  9
$ORTHOMODE
 70
     0
  9
$REGENMODE
 70
     1
  9
$FILLMODE
 70
     1
  9
$QTEXTMODE
 70
     0
  9
$MIRRTEXT
 70
     1
  9
$DRAGMODE
 70
     2
  9
$LTSCALE
 40
1.0
  9
$OSMODE
 70
     0
  9
$ATTMODE
 70
     1
  9
$TEXTSIZE
 40
0.2
  9
$TRACEWID
 40
0.05
  9
$TEXTSTYLE
  7
STANDARD
  9
$CLAYER
  8
0
  9
$CELTYPE
  6
BYLAYER
  9
$CECOLOR
 62
   256
  9
$DIMSCALE
 40
1.0
  9
$DIMASZ
 40
0.18
  9
$DIMEXO
 40
0.0625
  9
$DIMDLI
 40
0.38
  9
$DIMRND
 40
0.0
  9
$DIMDLE
 40
0.0
  9
$DIMEXE
 40
0.18
  9
$DIMTP
 40
0.0
  9
$DIMTM
 40
0.0
  9
$DIMTXT
 40
0.18
  9
$DIMCEN
 40
0.09
  9
$DIMTSZ
 40
0.0
  9
$DIMTOL
 70
     0
  9
$DIMLIM
 70
     0
  9
$DIMTIH
 70
     1
  9
$DIMTOH
 70
     1
  9
$DIMSE1
 70
     0
  9
$DIMSE2
 70
     0
  9
$DIMTAD
 70
     0
  9
$DIMZIN
 70
     0
  9
$DIMBLK
  1

  9
$DIMASO
 70
     1
  9
$DIMSHO
 70
     1
  9
$DIMPOST
  1

  9
$DIMAPOST
  1

  9
$DIMALT
 70
     0
  9
$DIMALTD
 70
     2
  9
$DIMALTF
 40
25.4
  9
$DIMLFAC
 40
1.0
  9
$DIMTOFL
 70
     0
  9
$DIMTVP
 40
0.0
  9
$DIMTIX
 70
     0
  9
$DIMSOXD
 70
     0
  9
$DIMSAH
 70
     0
  9
$DIMBLK1
  1

  9
$DIMBLK2
  1

  9
$DIMSTYLE
  2
*UNNAMED
  9
$DIMCLRD
 70
     0
  9
$DIMCLRE
 70
     0
  9
$DIMCLRT
 70
     0
  9
$DIMTFAC
 40
1.0
  9
$DIMGAP
 40
0.09
  9
$LUNITS
 70
     2
  9
$LUPREC
 70
     4
  9
$SKETCHINC
 40
0.1
  9
$FILLETRAD
 40
0.0
  9
$AUNITS
 70
     0
  9
$AUPREC
 70
     0
  9
$MENU
  1
acad
  9
$ELEVATION
 40
0.0
  9
$PELEVATION
 40
0.0
  9
$THICKNESS
 40
0.0
  9
$LIMCHECK
 70
     0
  9
$BLIPMODE
 70
     1
  9
$CHAMFERA
 40
0.0
  9
$CHAMFERB
 40
0.0
  9
$SKPOLY
 70
     0
  9
$TDCREATE
 40
2449408.794910902
  9
$TDUPDATE
 40
2449408.795467465
  9
$TDINDWG
 40
0.0005565625
  9
$TDUSRTIMER
 40
0.0005565625
  9
$USRTIMER
 70
     1
  9
$ANGBASE
 50
0.0
  9
$ANGDIR
 70
     0
  9
$PDMODE
 70
     0
  9
$PDSIZE
 40
0.0
  9
$PLINEWID
 40
0.0
  9
$COORDS
 70
     1
  9
$SPLFRAME
 70
     0
  9
$SPLINETYPE
 70
     6
  9
$SPLINESEGS
 70
     8
  9
$ATTDIA
 70
     0
  9
$ATTREQ
 70
     1
  9
$HANDLING
 70
     1
  9
$HANDSEED
  5
46
  9
$SURFTAB1
 70
     6
  9
$SURFTAB2
 70
     6
  9
$SURFTYPE
 70
     6
  9
$SURFU
 70
     6
  9
$SURFV
 70
     6
  9
$UCSNAME
  2

  9
$UCSORG
 10
0.0
 20
0.0
 30
0.0
  9
$UCSXDIR
 10
1.0
 20
0.0
 30
0.0
  9
$UCSYDIR
 10
0.0
 20
1.0
 30
0.0
  9
$PUCSNAME
  2

  9
$PUCSORG
 10
0.0
 20
0.0
 30
0.0
  9
$PUCSXDIR
 10
1.0
 20
0.0
 30
0.0
  9
$PUCSYDIR
 10
0.0
 20
1.0
 30
0.0
  9
$USERI1
 70
     0
  9
$USERI2
 70
     0
  9
$USERI3
 70
     0
  9
$USERI4
 70
     0
  9
$USERI5
 70
     0
  9
$USERR1
 40
0.0
  9
$USERR2
 40
0.0
  9
$USERR3
 40
0.0
  9
$USERR4
 40
0.0
  9
$USERR5
 40
0.0
  9
$WORLDVIEW
 70
     1
  9
$SHADEDGE
 70
     3
  9
$SHADEDIF
 70
    70
  9
$TILEMODE
 70
     1
  9
$MAXACTVP
 70
    16
  9
$PINSBASE
 10
0.0
 20
0.0
 30
0.0
  9
$PLIMCHECK
 70
     0
  9
$PEXTMIN
 10
1.000000E+20
 20
1.000000E+20
 30
1.000000E+20
  9
$PEXTMAX
 10
-1.000000E+20
 20
-1.000000E+20
 30
-1.000000E+20
  9
$PLIMMIN
 10
0.0
 20
0.0
  9
$PLIMMAX
 10
12.0
 20
9.0
  9
$UNITMODE
 70
     0
  9
$VISRETAIN
 70
     0
  9
$PLINEGEN
 70
     0
  9
$PSLTSCALE
 70
     1
  9
$TREEDEPTH
 70
  3020
  9
$DWGCODEPAGE
  3
ascii
  0
ENDSEC
  0
SECTION
  2
TABLES
  0
TABLE
  2
VPORT
 70
     2
  0
VPORT
  2
*ACTIVE
 70
     0
 10
0.0
 20
0.0
 11
1.0
 21
1.0
 12
-4.248529
 22
0.075421
 13
0.0
 23
0.0
 14
1.0
 24
1.0
 15
0.0
 25
0.0
 16
1.0
 26
2.0
 36
1.0
 17
0.0
 27
0.0
 37
0.0
 40
10.374997
 41
1.594883
 42
50.0
 43
0.0
 44
0.0
 50
0.0
 51
0.0
 71
     0
 72
   100
 73
     1
 74
     1
 75
     0
 76
     0
 77
     0
 78
     0
  0
ENDTAB
  0
TABLE
  2
LTYPE
 70
     1
  0
LTYPE
  2
CONTINUOUS
 70
    64
  3
Solid line
 72
    65
 73
     0
 40
0.0
  0
ENDTAB
  0
TABLE
  2
LAYER
 70
     2
  0
LAYER
  2
0
 70
    64
 62
     7
  6
CONTINUOUS
  0
LAYER
  2
AME_FRZ
 70
    65
 62
     7
  6
CONTINUOUS
  0
ENDTAB
  0
TABLE
  2
STYLE
 70
     1
  0
STYLE
  2
STANDARD
 70
     0
 40
0.0
 41
1.0
 50
0.0
 71
     0
 42
0.2
  3
txt
  4

  0
ENDTAB
  0
TABLE
  2
VIEW
 70
     0
  0
ENDTAB
  0
TABLE
  2
UCS
 70
     0
  0
ENDTAB
  0
TABLE
  2
APPID
 70
     3
  0
APPID
  2
ACAD
 70
    64
  0
APPID
  2
AME_SOL
 70
    64
  0
APPID
  2
AVE_INVOKE
 70
    64
  0
ENDTAB
  0
TABLE
  2
DIMSTYLE
 70
     0
  0
ENDTAB
  0
ENDSEC
  0
SECTION
  2
BLOCKS
  0
BLOCK
  8
0
  5
1
  2
AME_NIL
 70
    64
 10
0.0
 20
0.0
 30
0.0
  1
AME_NIL
  3
AME_NIL
  0
ENDBLK
  8
0
  5
2
  0
BLOCK
  8
0
  5
4
  2
AME_SOL
 70
    64
 10
0.0
 20
0.0
 30
0.0
  1
AME_SOL
  3
AME_SOL
  0
ENDBLK
  8
0
  5
5
  0
BLOCK
  8
0
  5
25
  2
*U4
 70
    65
 10
0.0
 20
0.0
 30
0.0
  1
*U
  3
*U
  0
LINE
  8
0
 62
     7
  5
26
 10
12.0
 20
5.0
 30
0.0
 11
12.0
 21
5.0
 31
3.0
1001
AME_SOL
1070
     1
1071
       32
  0
LINE
  8
0
 62
     7
  5
27
 10
12.0
 20
5.0
 30
3.0
 11
12.0
 21
0.0
 31
3.0
1001
AME_SOL
1070
     1
1071
       31
  0
LINE
  8
0
 62
     7
  5
28
 10
10.696152
 20
5.0
 30
3.0
 11
12.0
 21
5.0
 31
3.0
1001
AME_SOL
1070
     1
1071
       30
  0
LINE
  8
0
 62
     7
  5
29
 10
0.0
 20
5.0
 30
3.0
 11
0.303848
 21
5.0
 31
3.0
1001
AME_SOL
1070
     1
1071
       29
  0
LINE
  8
0
 62
     7
  5
2A
 10
0.0
 20
5.0
 30
0.0
 11
0.0
 21
5.0
 31
3.0
1001
AME_SOL
1070
     1
1071
       28
  0
LINE
  8
0
 62
     7
  5
2B
 10
0.0
 20
5.0
 30
3.0
 11
0.0
 21
4.397916
 31
3.0
1001
AME_SOL
1070
     1
1071
       27
  0
LINE
  8
0
 62
     7
  5
2C
 10
0.0
 20
0.0
 30
0.0
 11
0.0
 21
0.0
 31
1.0
1001
AME_SOL
1070
     1
1071
       26
  0
LINE
  8
0
 62
     7
  5
2D
 10
12.0
 20
0.0
 30
3.0
 11
12.0
 21
0.0
 31
0.0
1001
AME_SOL
1070
     1
1071
       25
  0
LINE
  8
0
 62
     7
  5
2E
 10
11.156854
 20
0.0
 30
3.0
 11
12.0
 21
0.0
 31
3.0
1001
AME_SOL
1070
     1
1071
       24
  0
LINE
  8
0
 62
     7
  5
2F
 10
0.0
 20
0.0
 30
0.0
 11
12.0
 21
0.0
 31
0.0
1001
AME_SOL
1070
     1
1071
       23
  0
LINE
  8
0
 62
     7
  5
30
 10
0.0
 20
5.0
 30
0.0
 11
0.0
 21
0.0
 31
0.0
1001
AME_SOL
1070
     1
1071
       22
  0
LINE
  8
0
 62
     7
  5
31
 10
12.0
 20
0.0
 30
0.0
 11
12.0
 21
5.0
 31
0.0
1001
AME_SOL
1070
     1
1071
       21
  0
LINE
  8
0
 62
     7
  5
32
 10
12.0
 20
5.0
 30
0.0
 11
0.0
 21
5.0
 31
0.0
1001
AME_SOL
1070
     1
1071
       20
  0
LINE
  8
0
 62
     7
  5
33
 10
0.0
 20
0.0
 30
1.0
 11
11.156854
 21
0.0
 31
1.0
1001
AME_SOL
1070
     1
1071
       19
  0
LINE
  8
0
 62
     7
  5
34
 10
0.0
 20
4.397916
 30
1.0
 11
0.0
 21
0.0
 31
1.0
1001
AME_SOL
1070
     1
1071
       18
  0
LINE
  8
0
 62
     7
  5
35
 10
10.696152
 20
5.0
 30
1.0
 11
0.303848
 21
5.0
 31
1.0
1001
AME_SOL
1070
     1
1071
       17
  0
ARC
  8
0
 62
     7
  5
36
 10
5.5
 20
2.0
 30
1.0
 40
6.0
 50
150.0
 51
156.443536
1001
AME_SOL
1070
     1
1071
       16
  0
ARC
  8
0
 62
     7
  5
37
 10
5.5
 20
2.0
 30
1.0
 40
6.0
 50
340.528779
 51
30.0
1001
AME_SOL
1070
     1
1071
       15
  0
LINE
  8
0
 62
     7
  5
38
 10
11.156854
 20
0.0
 30
1.0
 11
11.156854
 21
0.0
 31
3.0
1001
AME_SOL
1070
     1
1071
       14
  0
LINE
  8
0
 62
     7
  5
39
 10
0.0
 20
4.397916
 30
1.0
 11
0.0
 21
4.397916
 31
3.0
1001
AME_SOL
1070
     1
1071
       13
  0
LINE
  8
0
 62
     7
  5
3A
 10
10.696152
 20
5.0
 30
1.0
 11
10.696152
 21
5.0
 31
3.0
1001
AME_SOL
1070
     1
1071
       12
  0
LINE
  8
0
 62
     7
  5
3B
 10
0.303848
 20
5.0
 30
1.0
 11
0.303848
 21
5.0
 31
3.0
1001
AME_SOL
1070
     1
1071
       11
  0
ARC
  8
0
 62
     7
  5
3C
 10
5.5
 20
2.0
 30
3.0
 40
6.0
 50
150.0
 51
156.443536
1001
AME_SOL
1070
     1
1071
       10
  0
ARC
  8
0
 62
     7
  5
3D
 10
5.5
 20
2.0
 30
3.0
 40
6.0
 50
340.528779
 51
30.0
1001
AME_SOL
1070
     1
1071
        9
  0
LINE
  8
0
 62
     7
  5
3E
 10
11.5
 20
2.0
 30
1.0
 11
11.5
 21
2.0
 31
3.0
1001
AME_SOL
1070
     0
1071
        1
  0
ENDBLK
  8
0
  5
3F
  0
BLOCK
  8
0
  5
43
  2
AME_JNK
 70
     0
 10
0.0
 20
0.0
 30
0.0
  1
AME_JNK
  3
AME_JNK
  0
ENDBLK
  8
0
  5
44
  0
ENDSEC
  0
SECTION
  2
ENTITIES
  0
INSERT
  8
AME_FRZ
  5
3
  2
AME_NIL
 10
0.0
 20
0.0
 30
0.0
  0
INSERT
  8
AME_FRZ
  5
6
  2
AME_SOL
 10
0.0
 20
0.0
 30
0.0
1001
AME_SOL
1000
R2.1
1000
AME2
1000
sq cm
1070
     3
1070
     0
1070
     3
1000
wire
1040
45.0
1000
U
1040
1.0
1000
cm
1000
gm
1000
MILD_STEEL
1070
    25
1000
CSG
1070
     1
1070
     3
1070
     3
1070
     3
1070
     0
1000
cu cm
1070
     1
1070
     0
1005
3
  0
INSERT
  8
AME_FRZ
  5
15
  2
AME_NIL
 10
0.0
 20
0.0
 30
0.0
1001
AME_SOL
1002
{
1070
     1
1071
  2479768
1070
  1536
1070
     1
1010
12.0
1020
5.0
1030
3.0
1005
0
1005
0
1005
40
1040
0.0
1040
1.0
1070
     0
1000
MILD_STEEL
1000
0
1010
0.0
1020
0.0
1030
0.0
1010
0.0
1020
0.0
1030
1.0
1040
0.0
1002
}
1001
AVE_INVOKE
1000
SOLAVEMESH
  0
INSERT
  8
AME_FRZ
  5
21
  2
AME_NIL
 10
5.5
 20
2.0
 30
1.0
1001
AME_SOL
1002
{
1070
     1
1071
  2462784
1070
  1538
1070
     1
1010
6.0
1020
6.0
1030
2.0
1005
0
1005
0
1005
40
1040
0.0
1040
1.0
1070
     0
1000
MILD_STEEL
1000
0
1010
5.5
1020
2.0
1030
1.0
1010
0.0
1020
0.0
1030
1.0
1040
0.0
1002
}
1001
AVE_INVOKE
1000
SOLAVEMESH
  0
INSERT
  8
0
  5
40
  2
*U4
 10
0.0
 20
0.0
 30
0.0
1001
AME_SOL
1002
{
1070
     1
1071
  2432776
1070
  1543
1070
     1
1070
     0
1005
15
1005
21
1005
0
1005
41
1005
0
1040
0.0
1040
1.0
1070
     0
1000
MILD_STEEL
1000
0
1002
}
1001
AVE_INVOKE
1000
SOLAVEMESH
  0
INSERT
  8
AME_FRZ
  5
41
  2
AME_NIL
 10
1.0
 20
1.0
 30
1.0
1001
AME_SOL
1004
C7CF01004B01A501A401A2019E01960125008A017901630148011000DB0049012000FC0064014A014400ED004B0161006B003C0097018B017A0165014C01310117002D0032017600AE004D013301F600DC0034018300950014007B0166010400180067011D0084008C0102007C0168014E0135015200DF00
1004
0E00A80096009F019801FF008D017D0169014F01EA008700500158006A00F8007E0180006A015101780072003D0099018E017F016B01520136011E010D01BC00BB002E002100EF004E006C01A400530137016E004A0038011F0177009D002001B00033007F008F01FD00800107006D0105001200A301A001
1004
9A01900181016E0154015500F20055015B00390121013A00E60006007500820124006F011E00EE0040009B01910183010800280084017001560150003A011C004F00C0007101FE0057012300FB00F000A1019C0192010100850172017C008900730158013B0122019800A600DA00E00059013C011600F700
1004
3D01C100C4009301860174015A013E01E1002301FA0073003F012401F100D50025014D00E3005B0140012601D700C600270199007D004101280165000E010B00150029010F011A00A900100188009E000F00870175015C0142012A01110135003B001201EC0046002B011301E800E5001401E4005D004301
1004
2C011501660070001601CD008F002D0117019000B9001801010100010D00020119001B005D0144012E01190103012600AA0004012F00AC001A010501300031000601AD0032002F011B010701600067000801D30097001C010901CE00CB000A01B100B700F40076015E01DD0038005F014501DE0013004601
1004
A000E2009D019401BF003F00950188018E0077015F006001D000D800890178016101540027006201470130011D010B01B800CA000C01C800820011008D00640003000000283F283F69D57B1099084C70675458E222AB3A411CB8CD7118AAB387ED420AAFC359C681E38D5908F4CA794A5AB211E994F04925
1004
EB38D023284B1D5E8151111559D208E5C66B88C5559C3F6A10556AEA894CA2617472C847A653CF94B56423D329E0924BD671A0465096250311D7D82426C5B5BCA063FEB77FFFFFFF5BBFFFB389FE9FD6E9F7F154FE2A9FFFFFF2818FFADDFFFFFFFD6EFFFECE27FA7F5BA7DFC553F8AA7FFFFF5B8D18A0FF
1004
8F43FEB77FFFFFFF5BBFE83FD9AE3D7E9FD6E8D0A3EA1708859F05D1C428FA85C22167C175E98FED18A0371E87FD6EFFFFFFFEB77FDB10842108D36963E1055FD6E8D0A3EA1708859F05D1C428FA85C22167C175E98FED18A0C71E87FD6EFFFFFFFEB77FFF7CA7FA7F5BA3428FA85C22167C174710A3EA17
1004
08859F05D7AF63FEB73FC6E147D42E110B3E0BA38FEB718FD2147D42E110B3E0BAF4C7FF63F48D6C02108D8042118FFEC7E968C50F1E87FD6EFFFFFFFEB77FDB10842108D369FC249FD6E8D0A3EA1708859F05D1C428FA85C22167C175E98FEAF409F444556748239719AE23155670FDA84155ABAA253289
1004
85D1CB211E994F3E52D5908F4CA782492E3355E433435BAC45CC54948121362FA1E2E63FEB77FFFFF96FD6E7F2DFB389FE9FD6E9F7FFFFFFFFFC5CC7FD6EFFFFFF2DFADCFE5BF6713FD3FADD3EFFFFFFFFFEB715E8114BF0D671A078E3F0D671A078E3F0D671A078E356423D329E529162AACE1FB51297E1
1004
ACE340F1D622E62DD7C02C762DA7631731FFFF5BBFFFADDFFFFFFFFFF3EFFFFFFFFFF8B98FFFFADDFFFD6EFFFFFFFFFF9F7FFFFFFFFF5BAAF40A0F7E1ACE340F1C7E1ACE340F1C7E1ACE340F1C6AC847A653CA52FC359C681E3A5EB38D023284B1173154200163B16D2B18B98FFADDFFFFFFFFFD6EFFFFFF
1004
9F7FFFFFFFFFC5CC7FD6EFFFFFFFFFEB77FFFFFCFBFFFFFFFFFADD57A0507BF0D671A078E3F0D671A078E3F0D671A078E3F0D671A078E8B155670FDA89497ACE3408CA12C45CC5EC825758EC5B48C62E63FFFFFEB77FFF5BBFFFFFFFE7DFFFFFFFFFF1731FFFFFF5BBFFFADDFFFFFFFF3EFFFFFFFFFEB755
1004
E813D7E1ACE340F1C7E1ACE340F1C67DA8C5999680F25AB211E994F2948B155670FDA89497ACE3408CA12C45CC54B6D158EC5B44C62E63FEB73F96FE5BF96FD6E7F2DFA94FE253FA849F7FFFFFFFFFC5CC7FD6E7F2DFCB7F2DFADCFE5BF529FC4A7F5093EFFFFFFFFFEB755E81517E1ACE340F1C6FCF3090
1004
AADBD4BF0D671A078E356423D329E529162AACE1FB51292F59C6811942588B98BDDB88AC7626058C5CC7FE5BF96FD6E7EB73F96FE5BF529FC4A7F5093EFFFFFFFFFF8B98FFCB7F2DFADCFD6E7F2DFCB7EA53F894FEA127DFFFFFFFFFD6EABD02294088D6F8422AF94BF0D671A078E3F0D671A078E356423D
1004
329E529162AACE1FB51292F59C6811942588B98ADBC4563B11058C5CC7FE5BF5B9FCB7F2DFCB7EB73F529FC4A7F5093EFFFFFFFFFF8B98FFCB7EB73F96FE5BF96FD6E7EA53F894FEA127DFFFFFFFFFD6E9923BF0D671A078E3F0D671A078E33ED462CCCB40792396423D329E7CA458AAB387ED44A4BD671A
1004
046509083E93E54DA3B8D15C698D0C416E8E0CF335D1A1342CC1E81D89083AFB054B6D171AA5B68A3AFB058E421081343FEB77FFFFFFF5BBFFFB389FE9FD42453F8AA7F154841F49F2A6D1DC68AE34C68620B74706799AE9923BF0D671A078E3F0D671A078E33ED462CCCB40792396423D329E7CA458AAB3
1004
87ED44A4BD671A04650975ECDD692CC5A20A25A134A69621956907C91A1342B3301D89083AFB054B6D171AA5B68A3AFB058E421081343FEB77FFFFFFF5BBFFFB389FE9FD42453F8AA7F154BAF66EB49662D10512D09A534B10CAB483E49923BF0D671A078E37E79848556DEA5ABAA25328985D1CB211E994
1004
F3E522C5559C3F6A2525EB38D023284FFB1FA468F437BA2EC4841D7D82F76E22E35EEDC451D7D82C7210841E87FD6EFFFFFFFEB77FDB09B5222B67CBCBADAA77F129FD6E8DFF63F49923BF0D671A078E37E79848556DEA5ABAA25328985D1CB211E994F3E522C5559C3F6A2525EB38D023284FFB1FA468F4
1004
2B7BA2E42311D7D82F76E22E3475F60BDDB88A42108C71E87FD6EFFFFFFFEB77FD555230440331F604FE253FADD1BFEC7E932477E1ACE340F1C7E1ACE340F1C6AEA894CA26175F86B38D03C7458AAB387ED44A4BD671A046509FF63F48D1E8475B091721188EBEC17B2095DC68EBEC17B2095D21084638F4
1004
3FEB77FFFFFFF5BBFFFB6B0C01B3AFA3301418671B56FA53FADD1BFEC7E932477E1ACE340F1C7E1ACE340F1C6AEA894CA2617472C847A653CF94BF0D671A078E97ACE3408CA13FEC7E91A3D08E8551762420EBEC1542001C6AA10008EBEC163908420F43FEB77FFFFFFF5BBFE834CEBA67D535436813FFFA
1004
DD1BFEC7E93247111559D208E5C66B88C5559C3F6A10556AEA894CA2617472C847A653CF94B56423D329E0924B8CD5790CD0D6E841F49F2A6D1DC68AE34C68620B74706799AE8D09A169E6D7A2E42311D7D82A4A40E3475F60A9290242108421081343FEB77FFFFFFF5BBFFFB389FE9FD6E8A7F154FE2A90
1004
83E93E54DA3B8D15C698D0C416E8E0CF335D3247111559D208E5C66B88C5559C3F6A10556AEA894CA2617472C847A653CF94B56423D329E0924B8CD5790CD0D6EBAF66EB49662D10512D09A534B10CAB483E48D09A11D6D403908C475F60A929038D1D7D82A4A40908421084204D0FFADDFFFFFFFD6EFFFE
1004
CE27FA7F5BA29FC553F8AA5D7B375A4B31688289684D29A588655A41F24C91DF86B38D03C71BF3CC242AB6F52D5D5129944C2E8E5908F4CA79F29162AACE1FB51292E3355E433435BA7362A86CD6C95711C6795230440331B182491A3D0965645D8908A4A40BDDB88B8D7BB71154948163908420F43FFFEB
1004
77FFFFFFF5B9F2C60A7F12956210842185D1A7362A86CD6C95711C6795230440331B1824932477E1ACE340F1C7E1ACE340F1C6AEA894CA26175F86B38D03C7458AAB387ED44A4B8CD5790CD0D6EAA4286710A398169A55FD6E8D1E85B3088BB1211494817B2095DC6BD904AEA92902C7210841E87FD6E7FF
1004
FFFFFFEB73FFF5BBFADD1AA90A19C428E605A6957F5BA648EFC359C681E38FC359C681E38D5D5129944C2E8E5908F4CA79F297E1ACE340F1D2E3355E433435BBFA0EAA834CEBA67D537B0492347A16FA0EC4845252055080071AA84002A4A40B1C842107A1FFFF5B9FFFFFFFADCFD074FFFEB746FE83AAA0
1004
D33AE99F54DEC1249923BF0D671A078E37E79848556DEA5F86B38D03C71AB211E994F2948B155670FDA894BF0D671A078EFE2AABF8AA468F426798072118B75F00BDDB88B8D6EBE017BB71158EC71E87FFFD6EFFFFFFFEB73F154FE253FE37F1555FC552648E8111ADF08455F297E1ACE340F1C7E1ACE340
1004
F1C6AC847A653CA522C5559C3F6A252FC359C681E3BF8A2AFE2891A3D08E8A03908C5BAF8056DE22E35BAF8056DE22B1D8E3D0FFADDFFFFFFFFFD6E7EA53F8A27FC6FE28ABF8A24C91DF86B38D03C71F86B38D03C71F86B38D03C71F86B38D03C7458AAB387ED44A5F86B38D03C77F12ABFCB0D1E85981F0
1004
3908C5BAF805EC825771ADD7C02F6412BAC7638F43FEB73FFFFFFFFF5B9FFFFFE37F12ABFCB1923BF0D671A078E3F0D671A078E3F0D671A078E356423D329E5297E1ACE340F1D7E1ACE340F1DFFFD4A468F423A8383908C5BAF8055080071ADD7C02A84002C7638F43FFFEB73FFFFFFF5B9FFFFFE37FFF52
1004
932477E1ACE340F1C7E1ACE340F1C67DA8C5999680F25AB211E994F294BF0D671A078E97ACE3408CA12D94D826B6434FB7C253F8AA468F42FA03C0E423154200152DB45C6AA1000A96DA2B1D8E3D0FFFFFFADDFFFD6E7FFE2A9FFFD4246B653609AD90D3EDF094FE2A932474088D6F8422AF94BF0D671A07
1004
8E3F0D671A078E356423D329E5297E1ACE340F1D2F59C68119427F2AE7E55D1A3D0BE89403908C55080056DE22E355080056DE22B1D8E3D0FFADDFFFFFFFD6E7FFEA53FFF95746FE55CFCABA648EFC359C681E38FC359C681E38FC359C681E38FC359C681E3AFC359C681E3A5EB38D023284FFFEB7468F42
1004
D3C679172118AA1000BD904AEE35508005EC825758EC71E87FD6E7FFFFFFEB73FFFFFFFC6FFFEB74C91DF86B38D03C71F86B38D03C719F6A316665A03C97E1ACE340F1D162AACE1FB51292F59C68119427F1455418A11CA022B63AB38347A11569D45C8462F6412BAA5B68B8D7B2095D52DB4563B1C7A1FF
1004
FFFF5BBFADCFFFFFFFC513FA848DFC51550628472808AD8EACE1923BF0D671A078E37E79848556DEA5F86B38D03C71F86B38D03C7458AAB387ED44A4BD671A046509FCAB9F957468F42A5B428B908C5EC82575EEDC45C6BD904AEBDDB88AC7638F43FFFEB77FFF5B9FFFFFFF894FE55D1BF9573F2AE9923B
1004
F0D671A078E37E79848556DEA59F6A316665A03C96AC847A653CA522C5559C3F6A2525EB38D023284FEA5559E548C1100CC7DBE55468F42D98DA345C8462A5B68AF76E22E354B6D15EEDC4563B1C7A1FFFF5BBFFFFFFFADDFD4A7F129FD4246FEA5559E548C1100CC7DBE554C91DF86B38D03C71BF3CC242
1004
AB6F52CFB518B332D01E4B56423D329E529162AACE1FB51292F59C68119424669C675B0DB2C456DB9FCB0D1E85BE6D322E423152DB457BB71171AA5B68AF76E22B1D8E3D0FFFFADDFFFFFFFD6EFEA53F894FEA1234669C675B0DB2C456DB9FCB1923A0446B7C21157CA5F86B38D03C719F6A316665A03C96
1004
AC847A653CA522C5559C3F6A2525EB38D023284FFFE252347A133C21A2E423152DB455B788B8D52DB455B788AC7638F43FEB77FFFFF96FFFD6EFEA53F894FEA1237FFF12932474088D6F8422AF94B7E79848556DEA5F86B38D03C71AB211E994F2948B155670FDA89497ACE3408CA13FA855FE5868F42CC1
1004
B5C8B908C5EEDC455B788B8D7BB71156DE22B1D8E3D0FFADDFFFFFFFD6EFFFEA53F894FEA1237F50ABFCB367826D9C51
1005
42
  0
INSERT
  8
AME_FRZ
  5
42
  2
AME_NIL
 10
1.0
 20
1.0
 30
1.0
1001
AME_SOL
1004

1005
0
  0
ENDSEC
  0
EOF
