700 0 2 0           
24 FBMach with ACIS - 7.0.3 13 ACIS 7.0.3 NT 24 Tue May 14 14:31:18 2002 
1 9.9999999999999995e-007 1e-010 
body $2 -1 $-1 $3 $-1 $4 #
bdycol-kcp $-1 -1 1 6 $5 $6 $7 $8 $9 $10 #
model_id-kcp-attrib $-1 -1 $-1 $-1 $0 1 1021401077 1021401077 1941504001 1 #
lump $-1 -1 $-1 $-1 $11 $0 #
transform $-1 -1 1 0 0 0 1 0 0 0 1 0 0 0 1 rotate no_reflect no_shear #
body $12 -1 $-1 $13 $-1 $14 #
body $15 -1 $-1 $16 $-1 $17 #
body $18 -1 $-1 $19 $-1 $20 #
body $21 -1 $-1 $22 $-1 $23 #
body $24 -1 $-1 $25 $-1 $26 #
body $27 -1 $-1 $28 $-1 $29 #
shell $-1 -1 $-1 $-1 $-1 $30 $-1 $3 #
model_id-kcp-attrib $-1 -1 $-1 $-1 $5 1 1021401077 1021401077 1941504002 1 #
lump $-1 -1 $-1 $-1 $31 $5 #
transform $-1 -1 1 0 0 0 1 0 0 0 1 0 0 -8.4124999999999996 1 no_rotate no_reflect no_shear #
rgb_color-st-attrib $-1 -1 $32 $-1 $6 1 1 0.5 #
lump $-1 -1 $-1 $-1 $33 $6 #
transform $-1 -1 1 0 0 0 -1 0 0 0 -1 0 0 -9.2650000000000006 1 rotate no_reflect no_shear #
rgb_color-st-attrib $-1 -1 $34 $-1 $7 1 1 0.5 #
lump $-1 -1 $-1 $-1 $35 $7 #
transform $-1 -1 1 0 0 0 1 0 0 0 1 0 0 -7.5455000000000005 1 rotate no_reflect no_shear #
rgb_color-st-attrib $-1 -1 $36 $-1 $8 1 0.5 1 #
lump $-1 -1 $-1 $-1 $37 $8 #
transform $-1 -1 1 0 0 0 1 0 0 0 1 0 0 -8.4124999999999996 1 no_rotate no_reflect no_shear #
rgb_color-st-attrib $-1 -1 $38 $-1 $9 0.5 1 1 #
lump $-1 -1 $-1 $-1 $39 $9 #
transform $-1 -1 1 0 0 0 1 0 0 0 1 0 0 -8.4124999999999996 1 no_rotate no_reflect no_shear #
rgb_color-st-attrib $-1 -1 $40 $-1 $10 1 0.5 1 #
lump $-1 -1 $-1 $-1 $41 $10 #
transform $-1 -1 1 0 0 0 1 0 0 0 1 0 0 -8.4124999999999996 1 no_rotate no_reflect no_shear #
face $42 -1 $-1 $43 $44 $11 $-1 $45 reversed single #
shell $-1 -1 $-1 $-1 $-1 $46 $-1 $13 #
model_id-kcp-attrib $-1 -1 $-1 $15 $6 1 1021401077 1021401077 1942814723 1 #
shell $-1 -1 $-1 $-1 $-1 $47 $-1 $16 #
model_id-kcp-attrib $-1 -1 $-1 $18 $7 1 1021401077 1021401077 1942814724 1 #
shell $-1 -1 $-1 $-1 $-1 $48 $-1 $19 #
model_id-kcp-attrib $-1 -1 $-1 $21 $8 1 1021401077 1021401078 1932460039 1 #
shell $-1 -1 $-1 $-1 $-1 $49 $-1 $22 #
model_id-kcp-attrib $-1 -1 $-1 $24 $9 1 1021401077 1021401078 1933508613 1 #
shell $-1 -1 $-1 $-1 $-1 $50 $-1 $25 #
model_id-kcp-attrib $-1 -1 $-1 $27 $10 1 1021401077 1021401078 1945305094 1 #
shell $-1 -1 $-1 $-1 $-1 $51 $-1 $28 #
model_id-kcp-attrib $-1 -1 $-1 $-1 $30 1 1021401077 1021401077 1941504001 2 #
face $52 -1 $-1 $53 $54 $11 $-1 $55 reversed single #
loop $-1 -1 $-1 $-1 $56 $30 #
plane-surface $-1 -1 $-1 0 0 -9.2949999999999999 0 0 1 1 0 0 forward_v I I I I #
face $57 -1 $-1 $58 $59 $31 $-1 $60 forward single #
face $-1 -1 $-1 $61 $62 $33 $-1 $63 reversed single #
face $-1 -1 $-1 $64 $65 $35 $-1 $66 reversed single #
face $-1 -1 $-1 $67 $68 $37 $-1 $69 forward single #
face $-1 -1 $-1 $70 $71 $39 $-1 $72 reversed single #
face $-1 -1 $-1 $73 $74 $41 $-1 $75 forward single #
model_id-kcp-attrib $-1 -1 $-1 $-1 $43 1 1021401077 1021401077 1941504001 3 #
face $76 -1 $-1 $77 $78 $11 $-1 $79 reversed single #
loop $-1 -1 $-1 $80 $81 $43 #
plane-surface $-1 -1 $-1 0 0 -8.7159999999999993 0 0 1 1 0 0 forward_v I I I I #
coedge $-1 -1 $-1 $56 $56 $82 $83 reversed $44 $-1 #
model_id-kcp-attrib $-1 -1 $-1 $-1 $46 1 1021401077 1021401077 1941504002 3 #
face $84 -1 $-1 $85 $86 $31 $-1 $87 reversed single #
loop $-1 -1 $-1 $-1 $88 $46 #
plane-surface $-1 -1 $-1 0 0 0.88249999999999984 0 0 1 1 0 0 forward_v I I I I #
face $-1 -1 $-1 $89 $90 $33 $-1 $91 forward single #
loop $-1 -1 $-1 $92 $93 $47 #
cone-surface $-1 -1 $-1 0 0 0.032499999999998863 0 0 1 0.0625 0 0 1 I I -0.70710678118654746 0.70710678118654746 0.0625 forward I I I I #
face $-1 -1 $-1 $94 $95 $35 $-1 $96 forward single #
loop $-1 -1 $-1 $97 $98 $48 #
cone-surface $-1 -1 $-1 0 0 0.1172500000000003 0 0 1 0.13275000000000001 0 0 1 I I -0.70710678118654946 0.70710678118654546 0.13275000000000001 forward I I I I #
face $-1 -1 $-1 $99 $100 $37 $-1 $101 forward single #
loop $-1 -1 $-1 $102 $103 $49 #
cone-surface $-1 -1 $-1 0 0 0.36849999999999827 0 0 -1 -0.1875 0 0 1 I I 0 -1 0.1875 forward I I I I #
face $-1 -1 $-1 $104 $105 $39 $-1 $72 reversed single #
loop $-1 -1 $-1 $-1 $106 $50 #
cone-surface $-1 -1 $-1 -9.953998041094437e-034 0 -0.88250000000000028 0 0 -1 0.26550000000000001 0 0 1 I I 0 1 0.26550000000000001 forward I I I I #
face $-1 -1 $-1 $107 $108 $41 $-1 $109 forward single #
loop $-1 -1 $-1 $110 $111 $51 #
cone-surface $-1 -1 $-1 0 0 0.83650000000000002 0 0 -1 -0.2185 0 0 1 I I 0 -1 0.2185 forward I I I I #
model_id-kcp-attrib $-1 -1 $-1 $-1 $53 1 1021401077 1021401077 1941504001 4 #
face $112 -1 $-1 $113 $114 $11 $-1 $115 reversed single #
loop $-1 -1 $-1 $116 $117 $53 #
plane-surface $-1 -1 $-1 0 0 -8.0440000000000005 0 0 1 1 0 0 forward_v I I I I #
loop $-1 -1 $-1 $-1 $118 $43 #
coedge $-1 -1 $-1 $81 $81 $119 $120 forward $54 $-1 #
coedge $-1 -1 $-1 $82 $82 $56 $83 forward $121 $-1 #
edge $122 -1 $-1 $123 0 $123 6.2831853071795862 $82 $124 forward @7 unknown #
model_id-kcp-attrib $-1 -1 $-1 $-1 $58 1 1021401077 1021401077 1941504002 2 #
face $-1 -1 $-1 $125 $126 $31 $-1 $127 reversed single #
loop $-1 -1 $-1 $-1 $128 $58 #
plane-surface $-1 -1 $-1 0 0 -0.88249999999999984 0 0 1 1 0 0 forward_v I I I I #
coedge $-1 -1 $-1 $129 $130 $131 $132 forward $59 $-1 #
face $-1 -1 $-1 $-1 $133 $33 $-1 $134 forward single #
loop $-1 -1 $-1 $135 $136 $61 #
cone-surface $-1 -1 $-1 0 0 0 0 0 1 0.125 0 0 1 I I 0 1 0.125 forward I I I I #
loop $-1 -1 $-1 $-1 $137 $47 #
coedge $-1 -1 $-1 $93 $93 $138 $139 reversed $62 $-1 #
face $-1 -1 $-1 $-1 $140 $35 $-1 $141 forward single #
loop $-1 -1 $-1 $142 $143 $64 #
cone-surface $-1 -1 $-1 0 0 0 0 0 1 0.26550000000000001 0 0 1 I I 0 1 0.26550000000000001 forward I I I I #
loop $-1 -1 $-1 $-1 $144 $48 #
coedge $-1 -1 $-1 $98 $98 $145 $146 reversed $65 $-1 #
face $-1 -1 $-1 $147 $148 $37 $-1 $149 reversed single #
loop $-1 -1 $-1 $150 $151 $67 #
cone-surface $-1 -1 $-1 -9.953998041094437e-034 0 0.36849999999999827 0 0 -1 0.26550000000000001 0 0 1 I I 0 1 0.26550000000000001 forward I I I I #
loop $-1 -1 $-1 $-1 $152 $49 #
coedge $-1 -1 $-1 $103 $103 $153 $154 forward $68 $-1 #
face $-1 -1 $-1 $155 $156 $39 $-1 $72 reversed single #
loop $-1 -1 $-1 $-1 $157 $70 #
coedge $-1 -1 $-1 $158 $159 $160 $161 forward $71 $-1 #
face $-1 -1 $-1 $162 $163 $41 $-1 $164 reversed single #
loop $-1 -1 $-1 $165 $166 $73 #
cone-surface $-1 -1 $-1 -9.953998041094437e-034 0 0.83650000000000002 0 0 -1 0.26550000000000001 0 0 1 I I 0 1 0.26550000000000001 forward I I I I #
loop $-1 -1 $-1 $-1 $167 $51 #
coedge $-1 -1 $-1 $111 $111 $168 $169 forward $74 $-1 #
model_id-kcp-attrib $-1 -1 $-1 $-1 $77 1 1021401077 1021401077 1941504001 5 #
face $170 -1 $-1 $171 $172 $11 $-1 $173 forward single #
loop $-1 -1 $-1 $174 $175 $77 #
plane-surface $-1 -1 $-1 0 0 -7.5759999999999996 0 0 1 1 0 0 forward_v I I I I #
loop $-1 -1 $-1 $-1 $176 $53 #
coedge $-1 -1 $-1 $117 $117 $177 $178 forward $78 $-1 #
coedge $-1 -1 $-1 $118 $118 $179 $180 reversed $80 $-1 #
coedge $-1 -1 $-1 $119 $119 $81 $120 reversed $181 $-1 #
edge $-1 -1 $-1 $182 -3.1415926535897931 $182 3.1415926535897931 $119 $183 forward @7 unknown #
loop $-1 -1 $-1 $184 $82 $171 #
attrib_edge_convexity-kcp-attrib $-1 -1 $185 $-1 $83 1 #
vertex $-1 -1 $-1 $83 $186 #
ellipse-curve $-1 -1 $-1 0 0 -9.2949999999999999 0 0 1 0.065000000000000002 0 0 1 I I #
face $-1 -1 $-1 $187 $188 $31 $-1 $189 reversed single #
loop $-1 -1 $-1 $-1 $190 $85 #
plane-surface $-1 -1 $-1 0 -0.26550000000000001 0 0 1 0 0 0 1 forward_v I I I I #
coedge $-1 -1 $-1 $191 $192 $193 $194 forward $86 $-1 #
coedge $-1 -1 $-1 $195 $88 $196 $197 forward $59 $-1 #
coedge $-1 -1 $-1 $88 $195 $198 $199 forward $59 $-1 #
coedge $-1 -1 $-1 $200 $201 $88 $132 reversed $202 $-1 #
edge $-1 -1 $-1 $203 -0.26550000000000001 $204 0.26550000000000001 $131 $205 forward @7 unknown #
loop $-1 -1 $-1 $206 $138 $89 #
plane-surface $-1 -1 $-1 0 0 0.030000000000000249 0 0 1 1 0 0 forward_v I I I I #
loop $-1 -1 $-1 $-1 $207 $61 #
coedge $-1 -1 $-1 $136 $136 $137 $208 reversed $90 $-1 #
coedge $-1 -1 $-1 $137 $137 $136 $208 forward $92 $-1 #
coedge $-1 -1 $-1 $138 $138 $93 $139 forward $133 $-1 #
edge $-1 -1 $-1 $209 -3.1415926535897931 $209 3.1415926535897931 $138 $210 forward @7 unknown #
loop $-1 -1 $-1 $211 $145 $94 #
plane-surface $-1 -1 $-1 0 0 0.015499999999999847 0 0 1 1 0 0 forward_v I I I I #
loop $-1 -1 $-1 $-1 $212 $64 #
coedge $-1 -1 $-1 $143 $143 $144 $213 reversed $95 $-1 #
coedge $-1 -1 $-1 $144 $144 $143 $213 forward $97 $-1 #
coedge $-1 -1 $-1 $145 $145 $98 $146 forward $140 $-1 #
edge $-1 -1 $-1 $214 -3.1415926535897931 $214 3.1415926535897931 $145 $215 forward @7 unknown #
face $-1 -1 $-1 $-1 $216 $37 $-1 $217 forward single #
loop $-1 -1 $-1 $218 $219 $99 #
plane-surface $-1 -1 $-1 -0.021201384708007216 1.4832174802104493e-018 -0.30350000000000055 0 0 1 1 0 0 forward_v I I I I #
loop $-1 -1 $-1 $-1 $220 $67 #
coedge $-1 -1 $-1 $151 $151 $219 $221 forward $100 $-1 #
coedge $-1 -1 $-1 $152 $152 $222 $223 reversed $102 $-1 #
coedge $-1 -1 $-1 $153 $153 $103 $154 reversed $218 $-1 #
edge $-1 -1 $-1 $224 0 $224 6.2831853071795862 $103 $225 forward @7 unknown #
face $-1 -1 $-1 $226 $227 $39 $-1 $72 reversed single #
loop $-1 -1 $-1 $-1 $228 $104 #
coedge $-1 -1 $-1 $229 $160 $230 $231 reversed $105 $-1 #
coedge $-1 -1 $-1 $232 $106 $233 $234 reversed $71 $-1 #
coedge $-1 -1 $-1 $106 $232 $235 $236 reversed $71 $-1 #
coedge $-1 -1 $-1 $157 $237 $238 $161 reversed $105 $-1 #
edge $-1 -1 $-1 $239 -1.7650000000000003 $240 -4.4408920985006262e-016 $238 $241 forward @7 unknown #
face $-1 -1 $-1 $-1 $242 $41 $-1 $243 forward single #
loop $-1 -1 $-1 $244 $245 $107 #
plane-surface $-1 -1 $-1 -0.022207456799398943 4.2265352002426253e-018 0.36849999999999916 1.0425180592542922e-031 -2.0850361185085848e-032 1 1 0 -1.0425180592542922e-031 forward_v I I I I #
loop $-1 -1 $-1 $-1 $246 $73 #
coedge $-1 -1 $-1 $166 $166 $245 $247 forward $108 $-1 #
coedge $-1 -1 $-1 $167 $167 $248 $249 reversed $110 $-1 #
coedge $-1 -1 $-1 $168 $168 $111 $169 reversed $244 $-1 #
edge $-1 -1 $-1 $250 0 $250 6.2831853071795862 $111 $251 forward @7 unknown #
model_id-kcp-attrib $-1 -1 $-1 $-1 $113 1 1021401077 1021401077 1941504001 6 #
face $252 -1 $-1 $253 $121 $11 $-1 $254 forward single #
loop $-1 -1 $-1 $-1 $255 $113 #
plane-surface $-1 -1 $-1 0 0 -7.5300000000000002 0 0 1 1 0 0 forward_v I I I I #
loop $-1 -1 $-1 $-1 $256 $77 #
coedge $-1 -1 $-1 $175 $175 $257 $258 forward $114 $-1 #
coedge $-1 -1 $-1 $176 $176 $259 $260 reversed $116 $-1 #
coedge $-1 -1 $-1 $177 $177 $117 $178 reversed $261 $-1 #
edge $262 -1 $-1 $263 -3.1415926535897931 $263 3.1415926535897931 $177 $264 forward @7 unknown #
coedge $-1 -1 $-1 $179 $179 $118 $180 forward $265 $-1 #
edge $-1 -1 $-1 $266 0 $266 6.2831853071795862 $179 $267 forward @7 unknown #
loop $-1 -1 $-1 $-1 $119 $268 #
vertex $-1 -1 $-1 $120 $269 #
ellipse-curve $-1 -1 $-1 0 0 -8.7159999999999993 0 0 1 0.095000000000000001 0 0 1 I I #
loop $-1 -1 $-1 $-1 $270 $171 #
convexity-sys-attrib $-1 -1 $-1 $122 $83 #
point $-1 -1 $-1 0.065000000000000002 0 -9.2949999999999999 #
face $-1 -1 $-1 $271 $272 $31 $-1 $273 reversed single #
loop $-1 -1 $-1 $-1 $274 $125 #
plane-surface $-1 -1 $-1 -0.26550000000000001 0 0 1 0 0 0 0 -1 forward_v I I I I #
coedge $-1 -1 $-1 $275 $198 $276 $277 forward $126 $-1 #
coedge $-1 -1 $-1 $278 $128 $275 $279 forward $86 $-1 #
coedge $-1 -1 $-1 $128 $278 $280 $281 forward $86 $-1 #
coedge $-1 -1 $-1 $201 $200 $128 $194 reversed $202 $-1 #
edge $-1 -1 $-1 $282 -0.26550000000000001 $283 0.26550000000000001 $193 $284 forward @7 unknown #
coedge $-1 -1 $-1 $130 $129 $285 $286 forward $59 $-1 #
coedge $-1 -1 $-1 $287 $288 $129 $197 reversed $272 $-1 #
edge $-1 -1 $-1 $204 -0.26550000000000001 $289 0.26550000000000001 $196 $290 forward @7 unknown #
coedge $-1 -1 $-1 $190 $291 $130 $199 reversed $126 $-1 #
edge $-1 -1 $-1 $292 -0.26550000000000001 $203 0.26550000000000001 $198 $293 forward @7 unknown #
coedge $-1 -1 $-1 $193 $131 $291 $294 forward $202 $-1 #
coedge $-1 -1 $-1 $131 $193 $287 $295 reversed $202 $-1 #
loop $-1 -1 $-1 $-1 $200 $271 #
vertex $-1 -1 $-1 $132 $296 #
vertex $-1 -1 $-1 $132 $297 #
straight-curve $-1 -1 $-1 0.26550000000000001 0 0.88249999999999984 0 1 0 I I #
loop $-1 -1 $-1 $-1 $298 $89 #
coedge $-1 -1 $-1 $207 $207 $298 $299 reversed $135 $-1 #
edge $-1 -1 $-1 $300 0 $300 6.2831853071795862 $136 $301 forward @7 unknown #
vertex $-1 -1 $-1 $139 $302 #
ellipse-curve $-1 -1 $-1 0 0 0.030000000000000249 0 0 -1 0.064999999999998614 0 0 1 I I #
loop $-1 -1 $-1 $-1 $303 $94 #
coedge $-1 -1 $-1 $212 $212 $303 $304 reversed $142 $-1 #
edge $-1 -1 $-1 $305 0 $305 6.2831853071795862 $143 $306 forward @7 unknown #
vertex $-1 -1 $-1 $146 $307 #
ellipse-curve $-1 -1 $-1 0 0 0.015499999999999847 0 0 -1 0.23450000000000104 0 0 1 I I #
loop $-1 -1 $-1 $308 $309 $147 #
plane-surface $-1 -1 $-1 -0.021201384708007216 1.4832174802104493e-018 0.36849999999999827 0 0 1 1 0 0 forward_v I I I I #
loop $-1 -1 $-1 $-1 $153 $99 #
coedge $-1 -1 $-1 $219 $219 $151 $221 reversed $148 $-1 #
coedge $-1 -1 $-1 $220 $220 $309 $310 reversed $150 $-1 #
edge $-1 -1 $-1 $311 -3.1415926535897931 $311 3.1415926535897931 $151 $312 forward @7 unknown #
coedge $-1 -1 $-1 $222 $222 $152 $223 forward $308 $-1 #
edge $313 -1 $-1 $314 0 $314 6.2831853071795862 $152 $315 forward @7 unknown #
vertex $-1 -1 $-1 $154 $316 #
ellipse-curve $-1 -1 $-1 0 0 -0.30350000000000055 0 0 -1 -0.1875 0 0 1 I I #
face $-1 -1 $-1 $317 $318 $39 $-1 $319 reversed single #
loop $-1 -1 $-1 $-1 $320 $155 #
coedge $-1 -1 $-1 $321 $322 $323 $324 reversed $156 $-1 #
coedge $-1 -1 $-1 $237 $157 $325 $326 forward $105 $-1 #
coedge $-1 -1 $-1 $327 $328 $157 $231 forward $329 $-1 #
edge $-1 -1 $-1 $330 -3.1415926535897931 $239 -1.5707963267948966 $230 $331 forward @7 unknown #
coedge $-1 -1 $-1 $159 $158 $332 $333 reversed $71 $-1 #
coedge $-1 -1 $-1 $334 $335 $158 $234 forward $336 $-1 #
edge $-1 -1 $-1 $337 0 $240 1.5707963267948966 $233 $338 forward @7 unknown #
coedge $-1 -1 $-1 $339 $340 $159 $236 forward $341 $-1 #
edge $-1 -1 $-1 $239 -1.5707963267948966 $342 0 $235 $331 forward @7 unknown #
coedge $-1 -1 $-1 $160 $229 $343 $344 reversed $105 $-1 #
coedge $-1 -1 $-1 $345 $346 $347 $161 forward $348 $-1 #
vertex $-1 -1 $-1 $349 $350 #
vertex $-1 -1 $-1 $351 $352 #
straight-curve $-1 -1 $-1 -9.953998041094437e-034 0.26550000000000001 -0.88250000000000028 0 0 -1 I I #
loop $-1 -1 $-1 $353 $354 $162 #
plane-surface $-1 -1 $-1 -0.022207456799398943 4.2265352002426253e-018 0.83650000000000002 1.0425180592542922e-031 -2.0850361185085848e-032 1 1 0 -1.0425180592542922e-031 forward_v I I I I #
loop $-1 -1 $-1 $-1 $168 $107 #
coedge $-1 -1 $-1 $245 $245 $166 $247 reversed $163 $-1 #
coedge $-1 -1 $-1 $246 $246 $354 $355 reversed $165 $-1 #
edge $-1 -1 $-1 $356 -3.1415926535897931 $356 3.1415926535897931 $166 $357 forward @7 unknown #
coedge $-1 -1 $-1 $248 $248 $167 $249 forward $353 $-1 #
edge $358 -1 $-1 $359 0 $359 6.2831853071795862 $167 $360 forward @7 unknown #
vertex $-1 -1 $-1 $169 $361 #
ellipse-curve $-1 -1 $-1 0 0 0.36849999999999916 0 0 -1 -0.2185 0 0 1 I I #
model_id-kcp-attrib $-1 -1 $-1 $-1 $171 1 1021401077 1021401077 1941504001 7 #
face $362 -1 $-1 $363 $364 $11 $-1 $365 forward single #
cone-surface $-1 -1 $-1 0 0 -9.2349999999999994 0 0 1 0.125 0 0 1 I I 0.70710678118654702 0.70710678118654802 0.125 forward I I I I #
coedge $-1 -1 $-1 $255 $255 $366 $367 forward $172 $-1 #
coedge $-1 -1 $-1 $256 $256 $368 $369 reversed $174 $-1 #
coedge $-1 -1 $-1 $257 $257 $175 $258 reversed $370 $-1 #
edge $371 -1 $-1 $372 -3.1415926535897931 $372 3.1415926535897931 $257 $373 forward @7 unknown #
coedge $-1 -1 $-1 $259 $259 $176 $260 forward $374 $-1 #
edge $375 -1 $-1 $376 0 $376 6.2831853071795862 $259 $377 forward @7 unknown #
loop $-1 -1 $-1 $-1 $177 $378 #
attrib_edge_convexity-kcp-attrib $-1 -1 $379 $-1 $178 2 #
vertex $-1 -1 $-1 $178 $380 #
ellipse-curve $-1 -1 $-1 0 0 -8.0440000000000005 0 0 1 0.1875 0 0 1 I I #
loop $-1 -1 $-1 $261 $179 $378 #
vertex $-1 -1 $-1 $180 $381 #
ellipse-curve $-1 -1 $-1 0 0 -8.7159999999999993 0 0 1 0.1875 0 0 1 I I #
face $382 -1 $-1 $378 $383 $11 $-1 $384 forward single #
point $-1 -1 $-1 -0.095000000000000001 0 -8.7159999999999993 #
coedge $-1 -1 $-1 $270 $270 $385 $386 reversed $184 $-1 #
face $-1 -1 $-1 $-1 $202 $31 $-1 $387 reversed single #
loop $-1 -1 $-1 $-1 $287 $187 #
plane-surface $-1 -1 $-1 0 0.26550000000000001 0 0 -1 0 0 0 -1 forward_v I I I I #
coedge $-1 -1 $-1 $388 $285 $288 $389 forward $188 $-1 #
coedge $-1 -1 $-1 $291 $190 $191 $279 reversed $126 $-1 #
coedge $-1 -1 $-1 $285 $388 $190 $277 reversed $188 $-1 #
edge $-1 -1 $-1 $292 -0.88249999999999984 $390 0.88249999999999984 $276 $391 forward @7 unknown #
coedge $-1 -1 $-1 $192 $191 $388 $392 forward $86 $-1 #
edge $-1 -1 $-1 $283 -0.26550000000000001 $390 0.26550000000000001 $275 $393 forward @7 unknown #
coedge $-1 -1 $-1 $288 $287 $192 $281 reversed $272 $-1 #
edge $-1 -1 $-1 $394 -0.26550000000000001 $282 0.26550000000000001 $280 $395 forward @7 unknown #
vertex $-1 -1 $-1 $194 $396 #
vertex $-1 -1 $-1 $294 $397 #
straight-curve $-1 -1 $-1 0.26550000000000001 0 -0.88249999999999984 0 -1 0 I I #
coedge $-1 -1 $-1 $274 $276 $195 $286 reversed $188 $-1 #
edge $-1 -1 $-1 $289 -0.26550000000000001 $292 0.26550000000000001 $285 $398 forward @7 unknown #
coedge $-1 -1 $-1 $280 $196 $201 $295 forward $272 $-1 #
coedge $-1 -1 $-1 $196 $280 $274 $389 reversed $272 $-1 #
vertex $-1 -1 $-1 $197 $399 #
straight-curve $-1 -1 $-1 0 0.26550000000000001 0.88249999999999984 -1 0 0 I I #
coedge $-1 -1 $-1 $198 $275 $200 $294 reversed $126 $-1 #
vertex $-1 -1 $-1 $286 $400 #
straight-curve $-1 -1 $-1 0 -0.26550000000000001 0.88249999999999984 1 0 0 I I #
edge $-1 -1 $-1 $203 -0.88249999999999984 $283 0.88249999999999984 $200 $401 forward @7 unknown #
edge $-1 -1 $-1 $204 -0.88249999999999984 $282 0.88249999999999984 $201 $402 forward @7 unknown #
point $-1 -1 $-1 0.26550000000000001 -0.26550000000000001 0.88249999999999984 #
point $-1 -1 $-1 0.26550000000000001 0.26550000000000001 0.88249999999999984 #
coedge $-1 -1 $-1 $298 $298 $207 $299 forward $206 $-1 #
edge $-1 -1 $-1 $403 0 $403 6.2831853071795862 $298 $404 forward @7 unknown #
vertex $-1 -1 $-1 $208 $405 #
ellipse-curve $-1 -1 $-1 0 0 -0.030000000000000249 0 0 -1 0.125 0 0 1 I I #
point $-1 -1 $-1 -0.064999999999998614 7.9599412998452831e-018 0.030000000000000249 #
coedge $-1 -1 $-1 $303 $303 $212 $304 forward $211 $-1 #
edge $-1 -1 $-1 $406 0 $406 6.2831853071795862 $303 $407 forward @7 unknown #
vertex $-1 -1 $-1 $213 $408 #
ellipse-curve $-1 -1 $-1 0 0 -0.015499999999999847 0 0 -1 0.26550000000000001 0 0 1 I I #
point $-1 -1 $-1 -0.23450000000000104 2.8717018997134876e-017 0.015499999999999847 #
loop $-1 -1 $-1 $-1 $222 $147 #
coedge $-1 -1 $-1 $309 $309 $220 $310 forward $216 $-1 #
edge $409 -1 $-1 $410 -3.1415926535897931 $410 3.1415926535897931 $220 $411 forward @7 unknown #
vertex $-1 -1 $-1 $221 $412 #
ellipse-curve $-1 -1 $-1 -9.953998041094437e-034 0 -0.30350000000000055 0 0 1 0.26550000000000001 0 0 1 I I #
convexity-sys-attrib $-1 -1 $-1 $-1 $223 #
vertex $-1 -1 $-1 $223 $413 #
ellipse-curve $-1 -1 $-1 0 0 0.36849999999999827 0 0 -1 -0.1875 0 0 1 I I #
point $-1 -1 $-1 -0.1875 0 -0.30349999999999966 #
face $-1 -1 $-1 $414 $348 $39 $-1 $415 reversed single #
loop $-1 -1 $-1 $-1 $332 $226 #
plane-surface $-1 -1 $-1 0.26550000000000001 0 0 -1 0 0 0 0 1 forward_v I I I I #
coedge $-1 -1 $-1 $325 $416 $417 $418 reversed $227 $-1 #
coedge $-1 -1 $-1 $419 $228 $420 $421 reversed $156 $-1 #
coedge $-1 -1 $-1 $228 $419 $232 $333 forward $156 $-1 #
coedge $-1 -1 $-1 $422 $423 $228 $324 forward $424 $-1 #
edge $-1 -1 $-1 $425 -1.5707963267948966 $337 0 $323 $338 forward @7 unknown #
coedge $-1 -1 $-1 $426 $320 $427 $326 reversed $227 $-1 #
edge $-1 -1 $-1 $330 -1.7650000000000003 $428 -4.4408920985006262e-016 $427 $429 forward @7 unknown #
coedge $-1 -1 $-1 $328 $230 $346 $349 forward $329 $-1 #
coedge $-1 -1 $-1 $230 $327 $430 $431 forward $329 $-1 #
loop $-1 -1 $-1 $-1 $230 $432 #
vertex $-1 -1 $-1 $433 $434 #
ellipse-curve $-1 -1 $-1 -9.953998041094437e-034 0 0.88249999999999984 0 0 -1 0.26550000000000001 0 0 1 I I #
coedge $-1 -1 $-1 $435 $436 $437 $333 forward $318 $-1 #
edge $-1 -1 $-1 $342 -1.7650000000000003 $337 -4.4408920985006262e-016 $332 $438 forward @7 unknown #
coedge $-1 -1 $-1 $335 $233 $439 $351 forward $336 $-1 #
coedge $-1 -1 $-1 $233 $334 $435 $440 forward $336 $-1 #
loop $-1 -1 $-1 $-1 $233 $441 #
vertex $-1 -1 $-1 $442 $443 #
ellipse-curve $-1 -1 $-1 -9.953998041094437e-034 0 -0.88249999999999984 0 0 1 0.26550000000000001 0 0 1 I I #
coedge $-1 -1 $-1 $340 $235 $436 $444 forward $341 $-1 #
coedge $-1 -1 $-1 $235 $339 $445 $446 forward $341 $-1 #
loop $-1 -1 $-1 $-1 $235 $447 #
vertex $-1 -1 $-1 $444 $448 #
coedge $-1 -1 $-1 $449 $450 $237 $344 forward $451 $-1 #
edge $-1 -1 $-1 $240 1.5707963267948966 $428 3.1415926535897931 $343 $338 forward @7 unknown #
coedge $-1 -1 $-1 $452 $238 $450 $453 reversed $348 $-1 #
coedge $-1 -1 $-1 $238 $452 $327 $349 reversed $348 $-1 #
coedge $-1 -1 $-1 $445 $439 $106 $161 reversed $454 $-1 #
loop $-1 -1 $-1 $-1 $238 $317 #
edge $-1 -1 $-1 $239 9.953998041094437e-034 $455 0.26550000000000001 $346 $456 forward @7 unknown #
point $-1 -1 $-1 -9.953998041094437e-034 0.26550000000000001 0.88250000000000006 #
edge $-1 -1 $-1 $240 -9.953998041094437e-034 $457 0.26550000000000001 $439 $458 forward @7 unknown #
point $-1 -1 $-1 -9.953998041094437e-034 0.26550000000000001 -0.88249999999999984 #
loop $-1 -1 $-1 $-1 $248 $162 #
coedge $-1 -1 $-1 $354 $354 $246 $355 forward $242 $-1 #
edge $459 -1 $-1 $460 -3.1415926535897931 $460 3.1415926535897931 $246 $461 forward @7 unknown #
vertex $-1 -1 $-1 $247 $462 #
ellipse-curve $-1 -1 $-1 -9.953998041094437e-034 0 0.36849999999999916 0 0 1 0.26550000000000001 0 0 1 I I #
convexity-sys-attrib $-1 -1 $-1 $-1 $249 #
vertex $-1 -1 $-1 $249 $463 #
ellipse-curve $-1 -1 $-1 0 0 0.83650000000000002 0 0 -1 -0.2185 0 0 1 I I #
point $-1 -1 $-1 -0.2185 0 0.36849999999999916 #
model_id-kcp-attrib $-1 -1 $-1 $-1 $253 1 1021401077 1021401077 1941504001 8 #
face $464 -1 $-1 $268 $465 $11 $-1 $466 forward single #
loop $-1 -1 $-1 $467 $385 $253 #
cone-surface $-1 -1 $-1 0 0 -7.4417499999999999 0 0 1 -0.125 0 0 1 I I 0 1 0.125 forward I I I I #
coedge $-1 -1 $-1 $366 $366 $255 $367 reversed $468 $-1 #
edge $469 -1 $-1 $470 -3.1415926535897931 $470 3.1415926535897931 $366 $471 forward @7 unknown #
coedge $-1 -1 $-1 $368 $368 $256 $369 forward $472 $-1 #
edge $473 -1 $-1 $474 0 $474 6.2831853071795862 $368 $475 forward @7 unknown #
loop $-1 -1 $-1 $-1 $257 $476 #
attrib_edge_convexity-kcp-attrib $-1 -1 $477 $-1 $258 2 #
vertex $-1 -1 $-1 $258 $478 #
ellipse-curve $-1 -1 $-1 0 0 -7.5759999999999996 0 0 1 0.2185 0 0 1 I I #
loop $-1 -1 $-1 $370 $259 $476 #
attrib_edge_convexity-kcp-attrib $-1 -1 $479 $-1 $260 1 #
vertex $-1 -1 $-1 $260 $480 #
ellipse-curve $-1 -1 $-1 0 0 -8.0440000000000005 0 0 1 0.2185 0 0 1 I I #
face $481 -1 $-1 $476 $265 $11 $-1 $482 forward single #
convexity-sys-attrib $-1 -1 $-1 $262 $178 #
point $-1 -1 $-1 -0.1875 0 -8.0440000000000005 #
point $-1 -1 $-1 0.1875 0 -8.7159999999999993 #
model_id-kcp-attrib $-1 -1 $-1 $-1 $268 1 1021401077 1021401077 1941504001 10 #
loop $-1 -1 $-1 $181 $483 $268 #
cone-surface $-1 -1 $-1 0 0 -7.4417499999999999 0 0 1 -0.095000000000000001 0 0 1 I I 0 1 0.095000000000000001 forward I I I I #
coedge $-1 -1 $-1 $385 $385 $270 $386 forward $364 $-1 #
edge $484 -1 $-1 $485 -3.1415926535897931 $485 3.1415926535897931 $385 $486 forward @7 unknown #
plane-surface $-1 -1 $-1 0.26550000000000001 0 0 -1 0 0 0 0 1 forward_v I I I I #
coedge $-1 -1 $-1 $276 $274 $278 $392 reversed $188 $-1 #
edge $-1 -1 $-1 $289 -0.88249999999999984 $394 0.88249999999999984 $288 $487 forward @7 unknown #
vertex $-1 -1 $-1 $392 $488 #
straight-curve $-1 -1 $-1 -0.26550000000000001 -0.26550000000000001 0 0 0 -1 I I #
edge $-1 -1 $-1 $390 -0.26550000000000001 $394 0.26550000000000001 $388 $489 forward @7 unknown #
straight-curve $-1 -1 $-1 0 -0.26550000000000001 -0.88249999999999984 -1 0 0 I I #
vertex $-1 -1 $-1 $281 $490 #
straight-curve $-1 -1 $-1 0 0.26550000000000001 -0.88249999999999984 1 0 0 I I #
point $-1 -1 $-1 0.26550000000000001 0.26550000000000001 -0.88249999999999984 #
point $-1 -1 $-1 0.26550000000000001 -0.26550000000000001 -0.88249999999999984 #
straight-curve $-1 -1 $-1 -0.26550000000000001 0 0.88249999999999984 0 -1 0 I I #
point $-1 -1 $-1 -0.26550000000000001 0.26550000000000001 0.88249999999999984 #
point $-1 -1 $-1 -0.26550000000000001 -0.26550000000000001 0.88249999999999984 #
straight-curve $-1 -1 $-1 0.26550000000000001 -0.26550000000000001 0 0 0 -1 I I #
straight-curve $-1 -1 $-1 0.26550000000000001 0.26550000000000001 0 0 0 -1 I I #
vertex $-1 -1 $-1 $299 $491 #
ellipse-curve $-1 -1 $-1 0 0 0.030000000000000249 0 0 1 0.125 0 0 1 I I #
point $-1 -1 $-1 0.125 0 -0.030000000000000249 #
vertex $-1 -1 $-1 $304 $492 #
ellipse-curve $-1 -1 $-1 0 0 0.015499999999999847 0 0 1 0.26550000000000001 0 0 1 I I #
point $-1 -1 $-1 0.26550000000000001 0 -0.015499999999999847 #
convexity-sys-attrib $-1 -1 $-1 $-1 $310 #
vertex $-1 -1 $-1 $310 $493 #
ellipse-curve $-1 -1 $-1 -9.953998041094437e-034 0 0.36849999999999827 0 0 1 0.26550000000000001 0 0 1 I I #
point $-1 -1 $-1 -0.26550000000000001 -3.2513298693984116e-017 -0.30350000000000055 #
point $-1 -1 $-1 -0.1875 0 0.36849999999999916 #
face $-1 -1 $-1 $494 $495 $39 $-1 $496 reversed single #
plane-surface $-1 -1 $-1 0 0.26550000000000001 0 0 -1 0 0 0 -1 forward_v I I I I #
coedge $-1 -1 $-1 $320 $426 $321 $421 forward $227 $-1 #
coedge $-1 -1 $-1 $497 $498 $320 $418 forward $499 $-1 #
edge $-1 -1 $-1 $428 -3.1415926535897931 $425 -1.5707963267948966 $417 $338 forward @7 unknown #
coedge $-1 -1 $-1 $322 $321 $500 $501 reversed $156 $-1 #
coedge $-1 -1 $-1 $502 $503 $504 $421 forward $505 $-1 #
edge $-1 -1 $-1 $506 -1.7650000000000003 $425 -4.4408920985006262e-016 $420 $507 forward @7 unknown #
coedge $-1 -1 $-1 $423 $323 $508 $442 forward $424 $-1 #
coedge $-1 -1 $-1 $323 $422 $502 $509 forward $424 $-1 #
loop $-1 -1 $-1 $-1 $323 $510 #
vertex $-1 -1 $-1 $511 $512 #
coedge $-1 -1 $-1 $416 $325 $513 $514 reversed $227 $-1 #
coedge $-1 -1 $-1 $515 $516 $517 $326 forward $495 $-1 #
vertex $-1 -1 $-1 $518 $519 #
straight-curve $-1 -1 $-1 -0.26550000000000001 0 -0.88250000000000028 0 0 -1 I I #
coedge $-1 -1 $-1 $520 $517 $328 $431 reversed $521 $-1 #
edge $-1 -1 $-1 $455 -0.26550000000000001 $330 0 $430 $522 forward @7 unknown #
face $-1 -1 $-1 $447 $329 $39 $-1 $523 forward single #
edge $-1 -1 $-1 $330 0 $524 0.26550000000000001 $516 $522 forward @7 unknown #
point $-1 -1 $-1 -0.26550000000000001 0 0.88250000000000006 #
coedge $-1 -1 $-1 $525 $332 $335 $440 reversed $318 $-1 #
coedge $-1 -1 $-1 $332 $525 $339 $444 reversed $318 $-1 #
coedge $-1 -1 $-1 $526 $508 $322 $333 reversed $527 $-1 #
straight-curve $-1 -1 $-1 0.26550000000000001 0 -0.88250000000000028 0 0 -1 I I #
coedge $-1 -1 $-1 $347 $528 $334 $351 reversed $454 $-1 #
edge $-1 -1 $-1 $457 -0.26550000000000001 $337 0 $435 $529 forward @7 unknown #
face $-1 -1 $-1 $530 $336 $39 $-1 $531 reversed single #
edge $-1 -1 $-1 $337 0 $532 0.26550000000000001 $508 $529 forward @7 unknown #
point $-1 -1 $-1 0.26550000000000001 0 -0.88249999999999984 #
edge $-1 -1 $-1 $342 0 $533 0.26550000000000001 $436 $534 forward @7 unknown #
coedge $-1 -1 $-1 $528 $347 $340 $446 reversed $454 $-1 #
edge $-1 -1 $-1 $533 -0.26550000000000001 $239 9.953998041094437e-034 $445 $456 forward @7 unknown #
face $-1 -1 $-1 $535 $341 $39 $-1 $523 forward single #
point $-1 -1 $-1 0.26550000000000001 0 0.88250000000000006 #
coedge $-1 -1 $-1 $450 $343 $536 $518 forward $451 $-1 #
coedge $-1 -1 $-1 $343 $449 $345 $453 forward $451 $-1 #
loop $-1 -1 $-1 $-1 $343 $530 #
coedge $-1 -1 $-1 $346 $345 $520 $537 reversed $348 $-1 #
edge $-1 -1 $-1 $538 -0.26550000000000001 $240 -9.953998041094437e-034 $345 $458 forward @7 unknown #
loop $-1 -1 $-1 $-1 $347 $539 #
vertex $-1 -1 $-1 $349 $540 #
straight-curve $-1 -1 $-1 0 0.26550000000000001 0.88249999999999984 -1 0 0 I I #
vertex $-1 -1 $-1 $440 $541 #
straight-curve $-1 -1 $-1 0 0.26550000000000001 -0.88249999999999984 1 0 0 I I #
convexity-sys-attrib $-1 -1 $-1 $-1 $355 #
vertex $-1 -1 $-1 $355 $542 #
ellipse-curve $-1 -1 $-1 -9.953998041094437e-034 0 0.83650000000000002 0 0 1 0.26550000000000001 0 0 1 I I #
point $-1 -1 $-1 -0.26550000000000001 -3.2513298693984116e-017 0.36849999999999916 #
point $-1 -1 $-1 -0.2185 0 0.83650000000000002 #
model_id-kcp-attrib $-1 -1 $-1 $-1 $363 1 1021401077 1021401077 1941504001 9 #
loop $-1 -1 $-1 $543 $544 $363 #
cone-surface $-1 -1 $-1 0 0 -8.7959999999999994 0 0 -1 0.125 0 0 1 I I 0.70710678118654702 0.70710678118654802 0.125 forward I I I I #
loop $-1 -1 $-1 $-1 $545 $253 #
loop $-1 -1 $-1 $-1 $366 $546 #
attrib_edge_convexity-kcp-attrib $-1 -1 $547 $-1 $367 1 #
vertex $-1 -1 $-1 $367 $548 #
ellipse-curve $-1 -1 $-1 0 0 -7.5300000000000002 0 0 1 0.23449999999999999 0 0 1 I I #
loop $-1 -1 $-1 $549 $368 $550 #
attrib_edge_convexity-kcp-attrib $-1 -1 $551 $-1 $369 1 #
vertex $-1 -1 $-1 $369 $552 #
ellipse-curve $-1 -1 $-1 0 0 -7.5759999999999996 0 0 1 0.26550000000000001 0 0 1 I I #
face $553 -1 $-1 $550 $374 $11 $-1 $554 forward single #
convexity-sys-attrib $-1 -1 $-1 $371 $258 #
point $-1 -1 $-1 -0.2185 0 -7.5759999999999996 #
convexity-sys-attrib $-1 -1 $-1 $375 $260 #
point $-1 -1 $-1 0.2185 0 -8.0440000000000005 #
model_id-kcp-attrib $-1 -1 $-1 $-1 $378 1 1021401077 1021401077 1941504001 11 #
cone-surface $-1 -1 $-1 0 0 -7.4417499999999999 0 0 1 -0.1875 0 0 1 I I 0 1 0.1875 forward I I I I #
coedge $-1 -1 $-1 $483 $483 $555 $556 forward $383 $-1 #
attrib_edge_convexity-kcp-attrib $-1 -1 $557 $-1 $386 1 #
vertex $-1 -1 $-1 $386 $558 #
ellipse-curve $-1 -1 $-1 0 0 -9.2349999999999994 0 0 1 0.125 0 0 1 I I #
straight-curve $-1 -1 $-1 -0.26550000000000001 0.26550000000000001 0 0 0 -1 I I #
point $-1 -1 $-1 -0.26550000000000001 -0.26550000000000001 -0.88249999999999984 #
straight-curve $-1 -1 $-1 -0.26550000000000001 0 -0.88249999999999984 0 1 0 I I #
point $-1 -1 $-1 -0.26550000000000001 0.26550000000000001 -0.88249999999999984 #
point $-1 -1 $-1 0.125 0 0.030000000000000249 #
point $-1 -1 $-1 0.26550000000000001 0 0.015499999999999847 #
point $-1 -1 $-1 -0.26550000000000001 -3.2513298693984116e-017 0.36849999999999827 #
face $-1 -1 $-1 $432 $559 $39 $-1 $523 forward single #
loop $-1 -1 $-1 $-1 $427 $414 #
plane-surface $-1 -1 $-1 -0.26550000000000001 0 0 1 0 0 0 0 -1 forward_v I I I I #
coedge $-1 -1 $-1 $498 $417 $560 $511 forward $499 $-1 #
coedge $-1 -1 $-1 $417 $497 $515 $561 forward $499 $-1 #
loop $-1 -1 $-1 $-1 $417 $562 #
coedge $-1 -1 $-1 $563 $564 $419 $501 forward $565 $-1 #
edge $-1 -1 $-1 $342 0 $506 1.5707963267948966 $500 $331 forward @7 unknown #
coedge $-1 -1 $-1 $566 $420 $423 $509 reversed $505 $-1 #
coedge $-1 -1 $-1 $420 $566 $563 $567 reversed $505 $-1 #
coedge $-1 -1 $-1 $568 $560 $416 $421 reversed $569 $-1 #
loop $-1 -1 $-1 $-1 $420 $570 #
vertex $-1 -1 $-1 $567 $571 #
straight-curve $-1 -1 $-1 -9.953998041094437e-034 -0.26550000000000001 -0.88250000000000028 0 0 -1 I I #
coedge $-1 -1 $-1 $437 $572 $422 $442 reversed $527 $-1 #
edge $-1 -1 $-1 $532 -0.26550000000000001 $425 9.953998041094437e-034 $502 $573 forward @7 unknown #
face $-1 -1 $-1 $441 $424 $39 $-1 $531 reversed single #
edge $-1 -1 $-1 $425 9.953998041094437e-034 $574 0.26550000000000001 $560 $573 forward @7 unknown #
point $-1 -1 $-1 -9.953998041094437e-034 -0.26550000000000001 -0.88249999999999984 #
coedge $-1 -1 $-1 $575 $576 $426 $514 forward $559 $-1 #
edge $-1 -1 $-1 $506 1.5707963267948966 $330 3.1415926535897931 $513 $331 forward @7 unknown #
coedge $-1 -1 $-1 $577 $427 $498 $561 reversed $495 $-1 #
coedge $-1 -1 $-1 $427 $577 $575 $433 reversed $495 $-1 #
coedge $-1 -1 $-1 $430 $536 $229 $326 reversed $521 $-1 #
edge $-1 -1 $-1 $428 0 $538 0.26550000000000001 $536 $578 forward @7 unknown #
point $-1 -1 $-1 -0.26550000000000001 0 -0.88249999999999984 #
coedge $-1 -1 $-1 $536 $430 $452 $537 forward $521 $-1 #
loop $-1 -1 $-1 $-1 $517 $579 #
straight-curve $-1 -1 $-1 -0.26550000000000001 0 0.88249999999999984 0 -1 0 I I #
plane-surface $-1 -1 $-1 0 0 0.88249999999999984 0 0 1 1 0 0 forward_v I I I I #
vertex $-1 -1 $-1 $433 $580 #
coedge $-1 -1 $-1 $436 $435 $528 $581 reversed $318 $-1 #
coedge $-1 -1 $-1 $572 $437 $564 $582 reversed $527 $-1 #
loop $-1 -1 $-1 $-1 $437 $583 #
coedge $-1 -1 $-1 $439 $445 $525 $581 forward $454 $-1 #
straight-curve $-1 -1 $-1 0.26550000000000001 0 -0.88249999999999984 0 -1 0 I I #
face $-1 -1 $-1 $584 $451 $39 $-1 $531 reversed single #
plane-surface $-1 -1 $-1 0 0 -0.88249999999999984 0 0 1 1 0 0 forward_v I I I I #
vertex $-1 -1 $-1 $585 $586 #
vertex $-1 -1 $-1 $444 $587 #
straight-curve $-1 -1 $-1 0.26550000000000001 0 0.88249999999999984 0 1 0 I I #
face $-1 -1 $-1 $570 $565 $39 $-1 $523 forward single #
coedge $-1 -1 $-1 $517 $520 $449 $518 reversed $521 $-1 #
edge $-1 -1 $-1 $455 -0.88249999999999984 $538 0.88249999999999984 $452 $588 forward @7 unknown #
vertex $-1 -1 $-1 $453 $589 #
face $-1 -1 $-1 $583 $454 $39 $-1 $415 reversed single #
point $-1 -1 $-1 -0.26550000000000001 0.26550000000000001 0.88249999999999984 #
point $-1 -1 $-1 0.26550000000000001 0.26550000000000001 -0.88249999999999984 #
point $-1 -1 $-1 -0.26550000000000001 -3.2513298693984116e-017 0.83650000000000002 #
loop $-1 -1 $-1 $-1 $555 $363 #
coedge $-1 -1 $-1 $544 $544 $545 $590 forward $465 $-1 #
coedge $-1 -1 $-1 $545 $545 $544 $590 reversed $467 $-1 #
face $591 -1 $-1 $-1 $592 $11 $-1 $593 forward single #
convexity-sys-attrib $-1 -1 $-1 $469 $367 #
point $-1 -1 $-1 -0.23449999999999999 0 -7.5300000000000002 #
loop $-1 -1 $-1 $-1 $594 $550 #
face $595 -1 $-1 $546 $472 $11 $-1 $596 forward single #
convexity-sys-attrib $-1 -1 $-1 $473 $369 #
point $-1 -1 $-1 0.26550000000000001 0 -7.5759999999999996 #
model_id-kcp-attrib $-1 -1 $-1 $-1 $476 1 1021401077 1021401077 1941504001 12 #
cone-surface $-1 -1 $-1 0 0 -7.4417499999999999 0 0 1 -0.2185 0 0 1 I I 0 1 0.2185 forward I I I I #
coedge $-1 -1 $-1 $555 $555 $483 $556 reversed $543 $-1 #
edge $-1 -1 $-1 $597 -3.1415926535897931 $597 3.1415926535897931 $483 $598 forward @7 unknown #
convexity-sys-attrib $-1 -1 $-1 $484 $386 #
point $-1 -1 $-1 -0.125 0 -9.2349999999999994 #
loop $-1 -1 $-1 $-1 $513 $494 #
coedge $-1 -1 $-1 $504 $599 $497 $511 reversed $569 $-1 #
edge $-1 -1 $-1 $574 -0.26550000000000001 $428 0 $515 $578 forward @7 unknown #
face $-1 -1 $-1 $510 $499 $39 $-1 $531 reversed single #
coedge $-1 -1 $-1 $564 $500 $503 $567 forward $565 $-1 #
coedge $-1 -1 $-1 $500 $563 $526 $582 forward $565 $-1 #
loop $-1 -1 $-1 $-1 $500 $535 #
coedge $-1 -1 $-1 $503 $502 $572 $585 reversed $505 $-1 #
edge $-1 -1 $-1 $506 -9.953998041094437e-034 $600 0.26550000000000001 $503 $601 forward @7 unknown #
coedge $-1 -1 $-1 $599 $504 $576 $602 reversed $569 $-1 #
loop $-1 -1 $-1 $-1 $504 $584 #
face $-1 -1 $-1 $562 $505 $39 $-1 $603 reversed single #
point $-1 -1 $-1 -9.953998041094437e-034 -0.26550000000000001 0.88250000000000006 #
coedge $-1 -1 $-1 $508 $526 $566 $585 forward $527 $-1 #
straight-curve $-1 -1 $-1 0 -0.26550000000000001 -0.88249999999999984 -1 0 0 I I #
vertex $-1 -1 $-1 $561 $604 #
coedge $-1 -1 $-1 $576 $513 $516 $433 forward $559 $-1 #
coedge $-1 -1 $-1 $513 $575 $568 $602 forward $559 $-1 #
coedge $-1 -1 $-1 $516 $515 $599 $605 reversed $495 $-1 #
straight-curve $-1 -1 $-1 -0.26550000000000001 0 -0.88249999999999984 0 1 0 I I #
face $-1 -1 $-1 $539 $521 $39 $-1 $496 reversed single #
point $-1 -1 $-1 -0.26550000000000001 -0.26550000000000001 0.88249999999999984 #
edge $-1 -1 $-1 $533 -0.88249999999999984 $457 0.88249999999999984 $525 $606 forward @7 unknown #
edge $-1 -1 $-1 $600 -0.26550000000000001 $342 0 $526 $534 forward @7 unknown #
face $-1 -1 $-1 $-1 $527 $39 $-1 $319 reversed single #
face $-1 -1 $-1 $579 $569 $39 $-1 $603 reversed single #
edge $-1 -1 $-1 $600 -0.88249999999999984 $532 0.88249999999999984 $572 $607 forward @7 unknown #
point $-1 -1 $-1 0.26550000000000001 -0.26550000000000001 -0.88249999999999984 #
point $-1 -1 $-1 0.26550000000000001 0.26550000000000001 0.88249999999999984 #
straight-curve $-1 -1 $-1 -0.26550000000000001 0.26550000000000001 0 0 0 -1 I I #
point $-1 -1 $-1 -0.26550000000000001 0.26550000000000001 -0.88249999999999984 #
edge $-1 -1 $-1 $608 -3.1415926535897931 $608 3.1415926535897931 $544 $609 forward @7 unknown #
model_id-kcp-attrib $-1 -1 $-1 $-1 $546 1 1021401077 1021401077 1941504001 14 #
loop $-1 -1 $-1 $468 $610 $546 #
cone-surface $-1 -1 $-1 0 0 -7.5609999999999999 0 0 -1 0.26550000000000001 0 0 1 I I 0.70710678118654902 0.70710678118654602 0.26550000000000001 forward I I I I #
coedge $-1 -1 $-1 $594 $594 $610 $611 reversed $549 $-1 #
model_id-kcp-attrib $-1 -1 $-1 $-1 $550 1 1021401077 1021401077 1941504001 13 #
cone-surface $-1 -1 $-1 0 0 -7.4417499999999999 0 0 1 -0.26550000000000001 0 0 1 I I 0 1 0.26550000000000001 forward I I I I #
vertex $-1 -1 $-1 $556 $612 #
ellipse-curve $-1 -1 $-1 0 0 -8.766 0 0 1 0.095000000000000001 0 0 1 I I #
coedge $-1 -1 $-1 $560 $568 $577 $605 forward $569 $-1 #
vertex $-1 -1 $-1 $582 $613 #
straight-curve $-1 -1 $-1 0 -0.26550000000000001 0.88249999999999984 1 0 0 I I #
edge $-1 -1 $-1 $524 -0.26550000000000001 $506 -9.953998041094437e-034 $568 $601 forward @7 unknown #
plane-surface $-1 -1 $-1 0 -0.26550000000000001 0 0 1 0 0 0 1 forward_v I I I I #
point $-1 -1 $-1 -0.26550000000000001 -0.26550000000000001 -0.88249999999999984 #
edge $-1 -1 $-1 $524 -0.88249999999999984 $574 0.88249999999999984 $577 $614 forward @7 unknown #
straight-curve $-1 -1 $-1 0.26550000000000001 0.26550000000000001 0 0 0 -1 I I #
straight-curve $-1 -1 $-1 0.26550000000000001 -0.26550000000000001 0 0 0 -1 I I #
vertex $-1 -1 $-1 $590 $615 #
ellipse-curve $-1 -1 $-1 0 0 -8.7959999999999994 0 0 1 0.125 0 0 1 I I #
coedge $-1 -1 $-1 $610 $610 $594 $611 forward $592 $-1 #
edge $616 -1 $-1 $617 -3.1415926535897931 $617 3.1415926535897931 $610 $618 forward @7 unknown #
point $-1 -1 $-1 -0.095000000000000001 0 -8.766 #
point $-1 -1 $-1 0.26550000000000001 -0.26550000000000001 0.88249999999999984 #
straight-curve $-1 -1 $-1 -0.26550000000000001 -0.26550000000000001 0 0 0 -1 I I #
point $-1 -1 $-1 -0.125 0 -8.7959999999999994 #
attrib_edge_convexity-kcp-attrib $-1 -1 $619 $-1 $611 1 #
vertex $-1 -1 $-1 $611 $620 #
ellipse-curve $-1 -1 $-1 0 0 -7.5609999999999999 0 0 1 0.26550000000000001 0 0 1 I I #
convexity-sys-attrib $-1 -1 $-1 $616 $611 #
point $-1 -1 $-1 -0.26550000000000001 0 -7.5609999999999999 #
End-of-ACIS-data 