600 0 2 0           
24 FBMach with ACIS - 6.0.3 13 ACIS 6.0.3 NT 24 Tue May 22 15:35:19 2001 
1 9.9999999999999995e-007 1e-010 
body $2 $3 $-1 $4 #
bdycol-kcp $-1 1 6 $5 $6 $7 $8 $9 $10 #
model_id-kcp-attrib $-1 $-1 $-1 $0 1 990560119 80 1263534081 1 #
lump $-1 $-1 $11 $0 #
transform $-1 1 0 0 0 1 0 0 0 1 0 0 0 1 no_rotate no_reflect no_shear #
body $12 $13 $-1 $14 #
body $15 $16 $-1 $17 #
body $18 $19 $-1 $20 #
body $21 $22 $-1 $23 #
body $24 $25 $-1 $26 #
body $27 $28 $-1 $29 #
shell $-1 $-1 $-1 $30 $-1 $3 #
model_id-kcp-attrib $-1 $-1 $-1 $5 1 990560119 80 1263534082 1 #
lump $-1 $-1 $31 $5 #
transform $-1 1 0 0 0 1 0 0 0 1 0 0 -8.4124999999999996 1 no_rotate no_reflect no_shear #
rgb_color-st-attrib $-1 $32 $-1 $6 1 1 0.5 #
lump $-1 $-1 $33 $6 #
transform $-1 1 0 0 0 -1 0 0 0 -1 0 0 -9.2650000000000006 1 rotate no_reflect no_shear #
rgb_color-st-attrib $-1 $34 $-1 $7 1 1 0.5 #
lump $-1 $-1 $35 $7 #
transform $-1 1 0 0 0 1 0 0 0 1 0 0 -7.5455000000000005 1 rotate no_reflect no_shear #
rgb_color-st-attrib $-1 $36 $-1 $8 0.5 1 1 #
lump $-1 $-1 $37 $8 #
transform $-1 1 0 0 0 1 0 0 0 1 0 0 -8.4124999999999996 1 no_rotate no_reflect no_shear #
rgb_color-st-attrib $-1 $38 $-1 $9 1 0.5 1 #
lump $-1 $-1 $39 $9 #
transform $-1 1 0 0 0 1 0 0 0 1 0 0 -8.4124999999999996 1 no_rotate no_reflect no_shear #
rgb_color-st-attrib $-1 $40 $-1 $10 1 0.5 1 #
lump $-1 $-1 $41 $10 #
transform $-1 1 0 0 0 1 0 0 0 1 0 0 -8.4124999999999996 1 no_rotate no_reflect no_shear #
face $42 $43 $44 $11 $-1 $45 reversed single #
shell $-1 $-1 $-1 $46 $-1 $13 #
model_id-kcp-attrib $-1 $-1 $15 $6 1 990560119 90 1264189443 1 #
shell $-1 $-1 $-1 $47 $-1 $16 #
model_id-kcp-attrib $-1 $-1 $18 $7 1 990560119 90 1264189444 1 #
shell $-1 $-1 $-1 $48 $-1 $19 #
model_id-kcp-attrib $-1 $-1 $21 $8 1 990560119 190 1270743045 1 #
shell $-1 $-1 $-1 $49 $-1 $22 #
model_id-kcp-attrib $-1 $-1 $24 $9 1 990560119 340 1263796230 1 #
shell $-1 $-1 $-1 $50 $-1 $25 #
model_id-kcp-attrib $-1 $-1 $27 $10 1 990560119 400 1267728391 1 #
shell $-1 $-1 $-1 $51 $-1 $28 #
model_id-kcp-attrib $-1 $52 $-1 $30 1 990560119 80 1263534081 15 #
face $53 $54 $55 $11 $-1 $56 reversed single #
loop $-1 $-1 $57 $30 #
plane-surface $-1 0 0 -9.2949999999999999 0 0 1 1 0 0 forward_v I I I I #
face $58 $59 $60 $31 $-1 $61 forward single #
face $-1 $62 $63 $33 $-1 $64 reversed single #
face $-1 $65 $66 $35 $-1 $67 reversed single #
face $-1 $68 $69 $37 $-1 $70 reversed single #
face $-1 $71 $72 $39 $-1 $73 forward single #
face $-1 $74 $75 $41 $-1 $76 forward single #
model_id-kcp-attrib $-1 $-1 $42 $30 1 990560119 80 1263534081 2 #
model_id-kcp-attrib $-1 $-1 $-1 $43 1 990560119 80 1263534081 3 #
face $77 $78 $79 $11 $-1 $80 reversed single #
loop $-1 $81 $82 $43 #
plane-surface $-1 0 0 -8.7159999999999993 0 0 1 1 0 0 forward_v I I I I #
coedge $-1 $57 $57 $83 $84 reversed $44 $-1 #
model_id-kcp-attrib $-1 $-1 $-1 $46 1 990560119 80 1263534082 3 #
face $85 $86 $87 $31 $-1 $88 reversed single #
loop $-1 $-1 $89 $46 #
plane-surface $-1 0 0 0.88249999999999984 0 0 1 1 0 0 forward_v I I I I #
face $-1 $90 $91 $33 $-1 $92 forward single #
loop $-1 $93 $94 $47 #
cone-surface $-1 0 0 0.032499999999998863 0 0 1 0.0625 0 0 1 I I -0.70710678118654746 0.70710678118654746 0.0625 forward I I I I #
face $-1 $95 $96 $35 $-1 $97 forward single #
loop $-1 $98 $99 $48 #
cone-surface $-1 0 0 0.1172500000000003 0 0 1 0.13275000000000001 0 0 1 I I -0.70710678118654946 0.70710678118654546 0.13275000000000001 forward I I I I #
face $-1 $100 $101 $37 $-1 $70 reversed single #
loop $-1 $-1 $102 $49 #
cone-surface $-1 -9.953998041094437e-034 0 -0.88250000000000028 0 0 -1 0.26550000000000001 0 0 1 I I 0 1 0.26550000000000001 forward I I I I #
face $-1 $103 $104 $39 $-1 $105 forward single #
loop $-1 $106 $107 $50 #
cone-surface $-1 0 0 0.83650000000000002 0 0 -1 -0.2185 0 0 1 I I 0 -1 0.2185 forward I I I I #
face $-1 $108 $109 $41 $-1 $110 forward single #
loop $-1 $111 $112 $51 #
cone-surface $-1 0 0 0.36849999999999827 0 0 -1 -0.1875 0 0 1 I I 0 -1 0.1875 forward I I I I #
model_id-kcp-attrib $-1 $-1 $-1 $54 1 990560119 80 1263534081 4 #
face $113 $114 $115 $11 $-1 $116 reversed single #
loop $-1 $117 $118 $54 #
plane-surface $-1 0 0 -8.0440000000000005 0 0 1 1 0 0 forward_v I I I I #
loop $-1 $-1 $119 $43 #
coedge $-1 $82 $82 $120 $121 forward $55 $-1 #
coedge $-1 $83 $83 $57 $84 forward $122 $-1 #
edge $123 $124 0 $124 6.2831853071795862 $83 $125 forward 7 unknown #
model_id-kcp-attrib $-1 $-1 $-1 $59 1 990560119 80 1263534082 2 #
face $-1 $126 $127 $31 $-1 $128 reversed single #
loop $-1 $-1 $129 $59 #
plane-surface $-1 0 0 -0.88249999999999984 0 0 1 1 0 0 forward_v I I I I #
coedge $-1 $130 $131 $132 $133 forward $60 $-1 #
face $-1 $-1 $134 $33 $-1 $135 forward single #
loop $-1 $136 $137 $62 #
cone-surface $-1 0 0 0 0 0 1 0.125 0 0 1 I I 0 1 0.125 forward I I I I #
loop $-1 $-1 $138 $47 #
coedge $-1 $94 $94 $139 $140 reversed $63 $-1 #
face $-1 $-1 $141 $35 $-1 $142 forward single #
loop $-1 $143 $144 $65 #
cone-surface $-1 0 0 0 0 0 1 0.26550000000000001 0 0 1 I I 0 1 0.26550000000000001 forward I I I I #
loop $-1 $-1 $145 $48 #
coedge $-1 $99 $99 $146 $147 reversed $66 $-1 #
face $-1 $148 $149 $37 $-1 $70 reversed single #
loop $-1 $-1 $150 $68 #
coedge $-1 $151 $152 $153 $154 forward $69 $-1 #
face $-1 $155 $156 $39 $-1 $157 reversed single #
loop $-1 $158 $159 $71 #
cone-surface $-1 -9.953998041094437e-034 0 0.83650000000000002 0 0 -1 0.26550000000000001 0 0 1 I I 0 1 0.26550000000000001 forward I I I I #
loop $-1 $-1 $160 $50 #
coedge $-1 $107 $107 $161 $162 forward $72 $-1 #
face $-1 $163 $164 $41 $-1 $165 reversed single #
loop $-1 $166 $167 $74 #
cone-surface $-1 -9.953998041094437e-034 0 0.36849999999999827 0 0 -1 0.26550000000000001 0 0 1 I I 0 1 0.26550000000000001 forward I I I I #
loop $-1 $-1 $168 $51 #
coedge $-1 $112 $112 $169 $170 forward $75 $-1 #
model_id-kcp-attrib $-1 $-1 $-1 $78 1 990560119 80 1263534081 5 #
face $171 $172 $173 $11 $-1 $174 forward single #
loop $-1 $175 $176 $78 #
plane-surface $-1 0 0 -7.5759999999999996 0 0 1 1 0 0 forward_v I I I I #
loop $-1 $-1 $177 $54 #
coedge $-1 $118 $118 $178 $179 forward $79 $-1 #
coedge $-1 $119 $119 $180 $181 reversed $81 $-1 #
coedge $-1 $120 $120 $82 $121 reversed $182 $-1 #
edge $-1 $183 -3.1415926535897931 $183 3.1415926535897931 $120 $184 forward 7 unknown #
loop $-1 $185 $83 $172 #
attrib_edge_convexity-kcp-attrib $-1 $186 $-1 $84 1 #
vertex $-1 $84 $187 #
ellipse-curve $-1 0 0 -9.2949999999999999 0 0 1 0.065000000000000002 0 0 1 I I #
face $-1 $188 $189 $31 $-1 $190 reversed single #
loop $-1 $-1 $191 $86 #
plane-surface $-1 0 -0.26550000000000001 0 0 1 0 0 0 1 forward_v I I I I #
coedge $-1 $192 $193 $194 $195 forward $87 $-1 #
coedge $-1 $196 $89 $197 $198 forward $60 $-1 #
coedge $-1 $89 $196 $199 $200 forward $60 $-1 #
coedge $-1 $201 $202 $89 $133 reversed $203 $-1 #
edge $-1 $204 -0.26550000000000001 $205 0.26550000000000001 $132 $206 forward 7 unknown #
loop $-1 $207 $139 $90 #
plane-surface $-1 0 0 0.030000000000000249 0 0 1 1 0 0 forward_v I I I I #
loop $-1 $-1 $208 $62 #
coedge $-1 $137 $137 $138 $209 reversed $91 $-1 #
coedge $-1 $138 $138 $137 $209 forward $93 $-1 #
coedge $-1 $139 $139 $94 $140 forward $134 $-1 #
edge $-1 $210 -3.1415926535897931 $210 3.1415926535897931 $139 $211 forward 7 unknown #
loop $-1 $212 $146 $95 #
plane-surface $-1 0 0 0.015499999999999847 0 0 1 1 0 0 forward_v I I I I #
loop $-1 $-1 $213 $65 #
coedge $-1 $144 $144 $145 $214 reversed $96 $-1 #
coedge $-1 $145 $145 $144 $214 forward $98 $-1 #
coedge $-1 $146 $146 $99 $147 forward $141 $-1 #
edge $-1 $215 -3.1415926535897931 $215 3.1415926535897931 $146 $216 forward 7 unknown #
face $-1 $217 $218 $37 $-1 $70 reversed single #
loop $-1 $-1 $219 $100 #
coedge $-1 $220 $153 $221 $222 reversed $101 $-1 #
coedge $-1 $223 $102 $224 $225 reversed $69 $-1 #
coedge $-1 $102 $223 $226 $227 reversed $69 $-1 #
coedge $-1 $150 $228 $229 $154 reversed $101 $-1 #
edge $-1 $230 -1.7650000000000003 $231 -4.4408920985006262e-016 $229 $232 forward 7 unknown #
face $-1 $-1 $233 $39 $-1 $234 forward single #
loop $-1 $235 $236 $103 #
plane-surface $-1 -0.022207456799398943 4.2265352002426253e-018 0.36849999999999916 1.0425180592542922e-031 -2.0850361185085848e-032 1 1 0 -1.0425180592542922e-031 forward_v I I I I #
loop $-1 $-1 $237 $71 #
coedge $-1 $159 $159 $236 $238 forward $104 $-1 #
coedge $-1 $160 $160 $239 $240 reversed $106 $-1 #
coedge $-1 $161 $161 $107 $162 reversed $235 $-1 #
edge $-1 $241 0 $241 6.2831853071795862 $107 $242 forward 7 unknown #
face $-1 $-1 $243 $41 $-1 $244 forward single #
loop $-1 $245 $246 $108 #
plane-surface $-1 -0.021201384708007216 1.4832174802104493e-018 -0.30350000000000055 0 0 1 1 0 0 forward_v I I I I #
loop $-1 $-1 $247 $74 #
coedge $-1 $167 $167 $246 $248 forward $109 $-1 #
coedge $-1 $168 $168 $249 $250 reversed $111 $-1 #
coedge $-1 $169 $169 $112 $170 reversed $245 $-1 #
edge $-1 $251 0 $251 6.2831853071795862 $112 $252 forward 7 unknown #
model_id-kcp-attrib $-1 $253 $-1 $114 1 990560119 80 1263534081 16 #
face $254 $255 $122 $11 $-1 $256 forward single #
loop $-1 $-1 $257 $114 #
plane-surface $-1 0 0 -7.5300000000000002 0 0 1 1 0 0 forward_v I I I I #
loop $-1 $-1 $258 $78 #
coedge $-1 $176 $176 $259 $260 forward $115 $-1 #
coedge $-1 $177 $177 $261 $262 reversed $117 $-1 #
coedge $-1 $178 $178 $118 $179 reversed $263 $-1 #
edge $-1 $264 -3.1415926535897931 $264 3.1415926535897931 $178 $265 forward 7 unknown #
coedge $-1 $180 $180 $119 $181 forward $266 $-1 #
edge $-1 $267 0 $267 6.2831853071795862 $180 $268 forward 7 unknown #
loop $-1 $-1 $120 $269 #
vertex $-1 $121 $270 #
ellipse-curve $-1 0 0 -8.7159999999999993 0 0 1 0.095000000000000001 0 0 1 I I #
loop $-1 $-1 $271 $172 #
convexity-sys-attrib $-1 $-1 $123 $84 #
point $-1 0.065000000000000002 0 -9.2949999999999999 #
face $-1 $272 $273 $31 $-1 $274 reversed single #
loop $-1 $-1 $275 $126 #
plane-surface $-1 -0.26550000000000001 0 0 1 0 0 0 0 -1 forward_v I I I I #
coedge $-1 $276 $199 $277 $278 forward $127 $-1 #
coedge $-1 $279 $129 $276 $280 forward $87 $-1 #
coedge $-1 $129 $279 $281 $282 forward $87 $-1 #
coedge $-1 $202 $201 $129 $195 reversed $203 $-1 #
edge $-1 $283 -0.26550000000000001 $284 0.26550000000000001 $194 $285 forward 7 unknown #
coedge $-1 $131 $130 $286 $287 forward $60 $-1 #
coedge $-1 $288 $289 $130 $198 reversed $273 $-1 #
edge $-1 $205 -0.26550000000000001 $290 0.26550000000000001 $197 $291 forward 7 unknown #
coedge $-1 $191 $292 $131 $200 reversed $127 $-1 #
edge $-1 $293 -0.26550000000000001 $204 0.26550000000000001 $199 $294 forward 7 unknown #
coedge $-1 $194 $132 $292 $295 forward $203 $-1 #
coedge $-1 $132 $194 $288 $296 reversed $203 $-1 #
loop $-1 $-1 $201 $272 #
vertex $-1 $133 $297 #
vertex $-1 $133 $298 #
straight-curve $-1 0.26550000000000001 0 0.88249999999999984 0 1 0 I I #
loop $-1 $-1 $299 $90 #
coedge $-1 $208 $208 $299 $300 reversed $136 $-1 #
edge $-1 $301 0 $301 6.2831853071795862 $137 $302 forward 7 unknown #
vertex $-1 $140 $303 #
ellipse-curve $-1 0 0 0.030000000000000249 0 0 -1 0.064999999999998614 0 0 1 I I #
loop $-1 $-1 $304 $95 #
coedge $-1 $213 $213 $304 $305 reversed $143 $-1 #
edge $-1 $306 0 $306 6.2831853071795862 $144 $307 forward 7 unknown #
vertex $-1 $147 $308 #
ellipse-curve $-1 0 0 0.015499999999999847 0 0 -1 0.23450000000000104 0 0 1 I I #
face $-1 $309 $310 $37 $-1 $311 reversed single #
loop $-1 $-1 $312 $148 #
coedge $-1 $313 $314 $315 $316 reversed $149 $-1 #
coedge $-1 $228 $150 $317 $318 forward $101 $-1 #
coedge $-1 $319 $320 $150 $222 forward $321 $-1 #
edge $-1 $322 -3.1415926535897931 $230 -1.5707963267948966 $221 $323 forward 7 unknown #
coedge $-1 $152 $151 $324 $325 reversed $69 $-1 #
coedge $-1 $326 $327 $151 $225 forward $328 $-1 #
edge $-1 $329 0 $231 1.5707963267948966 $224 $330 forward 7 unknown #
coedge $-1 $331 $332 $152 $227 forward $333 $-1 #
edge $-1 $230 -1.5707963267948966 $334 0 $226 $323 forward 7 unknown #
coedge $-1 $153 $220 $335 $336 reversed $101 $-1 #
coedge $-1 $337 $338 $339 $154 forward $340 $-1 #
vertex $-1 $341 $342 #
vertex $-1 $343 $344 #
straight-curve $-1 -9.953998041094437e-034 0.26550000000000001 -0.88250000000000028 0 0 -1 I I #
loop $-1 $345 $346 $155 #
plane-surface $-1 -0.022207456799398943 4.2265352002426253e-018 0.83650000000000002 1.0425180592542922e-031 -2.0850361185085848e-032 1 1 0 -1.0425180592542922e-031 forward_v I I I I #
loop $-1 $-1 $161 $103 #
coedge $-1 $236 $236 $159 $238 reversed $156 $-1 #
coedge $-1 $237 $237 $346 $347 reversed $158 $-1 #
edge $-1 $348 -3.1415926535897931 $348 3.1415926535897931 $159 $349 forward 7 unknown #
coedge $-1 $239 $239 $160 $240 forward $345 $-1 #
edge $-1 $350 0 $350 6.2831853071795862 $160 $351 forward 7 unknown #
vertex $-1 $162 $352 #
ellipse-curve $-1 0 0 0.36849999999999916 0 0 -1 -0.2185 0 0 1 I I #
loop $-1 $353 $354 $163 #
plane-surface $-1 -0.021201384708007216 1.4832174802104493e-018 0.36849999999999827 0 0 1 1 0 0 forward_v I I I I #
loop $-1 $-1 $169 $108 #
coedge $-1 $246 $246 $167 $248 reversed $164 $-1 #
coedge $-1 $247 $247 $354 $355 reversed $166 $-1 #
edge $-1 $356 -3.1415926535897931 $356 3.1415926535897931 $167 $357 forward 7 unknown #
coedge $-1 $249 $249 $168 $250 forward $353 $-1 #
edge $-1 $358 0 $358 6.2831853071795862 $168 $359 forward 7 unknown #
vertex $-1 $170 $360 #
ellipse-curve $-1 0 0 -0.30350000000000055 0 0 -1 -0.1875 0 0 1 I I #
model_id-kcp-attrib $-1 $-1 $171 $114 1 990560119 80 1263534081 6 #
model_id-kcp-attrib $-1 $-1 $-1 $172 1 990560119 80 1263534081 7 #
face $361 $362 $363 $11 $-1 $364 forward single #
cone-surface $-1 0 0 -9.2349999999999994 0 0 1 0.125 0 0 1 I I 0.70710678118654702 0.70710678118654802 0.125 forward I I I I #
coedge $-1 $257 $257 $365 $366 forward $173 $-1 #
coedge $-1 $258 $258 $367 $368 reversed $175 $-1 #
coedge $-1 $259 $259 $176 $260 reversed $369 $-1 #
edge $-1 $370 -3.1415926535897931 $370 3.1415926535897931 $259 $371 forward 7 unknown #
coedge $-1 $261 $261 $177 $262 forward $372 $-1 #
edge $-1 $373 0 $373 6.2831853071795862 $261 $374 forward 7 unknown #
loop $-1 $-1 $178 $375 #
vertex $-1 $179 $376 #
ellipse-curve $-1 0 0 -8.0440000000000005 0 0 1 0.1875 0 0 1 I I #
loop $-1 $263 $180 $375 #
vertex $-1 $181 $377 #
ellipse-curve $-1 0 0 -8.7159999999999993 0 0 1 0.1875 0 0 1 I I #
face $378 $375 $379 $11 $-1 $380 forward single #
point $-1 -0.095000000000000001 0 -8.7159999999999993 #
coedge $-1 $271 $271 $381 $382 reversed $185 $-1 #
face $-1 $-1 $203 $31 $-1 $383 reversed single #
loop $-1 $-1 $288 $188 #
plane-surface $-1 0 0.26550000000000001 0 0 -1 0 0 0 -1 forward_v I I I I #
coedge $-1 $384 $286 $289 $385 forward $189 $-1 #
coedge $-1 $292 $191 $192 $280 reversed $127 $-1 #
coedge $-1 $286 $384 $191 $278 reversed $189 $-1 #
edge $-1 $293 -0.88249999999999984 $386 0.88249999999999984 $277 $387 forward 7 unknown #
coedge $-1 $193 $192 $384 $388 forward $87 $-1 #
edge $-1 $284 -0.26550000000000001 $386 0.26550000000000001 $276 $389 forward 7 unknown #
coedge $-1 $289 $288 $193 $282 reversed $273 $-1 #
edge $-1 $390 -0.26550000000000001 $283 0.26550000000000001 $281 $391 forward 7 unknown #
vertex $-1 $195 $392 #
vertex $-1 $295 $393 #
straight-curve $-1 0.26550000000000001 0 -0.88249999999999984 0 -1 0 I I #
coedge $-1 $275 $277 $196 $287 reversed $189 $-1 #
edge $-1 $290 -0.26550000000000001 $293 0.26550000000000001 $286 $394 forward 7 unknown #
coedge $-1 $281 $197 $202 $296 forward $273 $-1 #
coedge $-1 $197 $281 $275 $385 reversed $273 $-1 #
vertex $-1 $198 $395 #
straight-curve $-1 0 0.26550000000000001 0.88249999999999984 -1 0 0 I I #
coedge $-1 $199 $276 $201 $295 reversed $127 $-1 #
vertex $-1 $287 $396 #
straight-curve $-1 0 -0.26550000000000001 0.88249999999999984 1 0 0 I I #
edge $-1 $204 -0.88249999999999984 $284 0.88249999999999984 $201 $397 forward 7 unknown #
edge $-1 $205 -0.88249999999999984 $283 0.88249999999999984 $202 $398 forward 7 unknown #
point $-1 0.26550000000000001 -0.26550000000000001 0.88249999999999984 #
point $-1 0.26550000000000001 0.26550000000000001 0.88249999999999984 #
coedge $-1 $299 $299 $208 $300 forward $207 $-1 #
edge $-1 $399 0 $399 6.2831853071795862 $299 $400 forward 7 unknown #
vertex $-1 $209 $401 #
ellipse-curve $-1 0 0 -0.030000000000000249 0 0 -1 0.125 0 0 1 I I #
point $-1 -0.064999999999998614 7.9599412998452831e-018 0.030000000000000249 #
coedge $-1 $304 $304 $213 $305 forward $212 $-1 #
edge $-1 $402 0 $402 6.2831853071795862 $304 $403 forward 7 unknown #
vertex $-1 $214 $404 #
ellipse-curve $-1 0 0 -0.015499999999999847 0 0 -1 0.26550000000000001 0 0 1 I I #
point $-1 -0.23450000000000104 2.8717018997134876e-017 0.015499999999999847 #
face $-1 $405 $340 $37 $-1 $406 reversed single #
loop $-1 $-1 $324 $217 #
plane-surface $-1 0.26550000000000001 0 0 -1 0 0 0 0 1 forward_v I I I I #
coedge $-1 $317 $407 $408 $409 reversed $218 $-1 #
coedge $-1 $410 $219 $411 $412 reversed $149 $-1 #
coedge $-1 $219 $410 $223 $325 forward $149 $-1 #
coedge $-1 $413 $414 $219 $316 forward $415 $-1 #
edge $-1 $416 -1.5707963267948966 $329 0 $315 $330 forward 7 unknown #
coedge $-1 $417 $312 $418 $318 reversed $218 $-1 #
edge $-1 $322 -1.7650000000000003 $419 -4.4408920985006262e-016 $418 $420 forward 7 unknown #
coedge $-1 $320 $221 $338 $341 forward $321 $-1 #
coedge $-1 $221 $319 $421 $422 forward $321 $-1 #
loop $-1 $-1 $221 $423 #
vertex $-1 $424 $425 #
ellipse-curve $-1 -9.953998041094437e-034 0 0.88249999999999984 0 0 -1 0.26550000000000001 0 0 1 I I #
coedge $-1 $426 $427 $428 $325 forward $310 $-1 #
edge $-1 $334 -1.7650000000000003 $329 -4.4408920985006262e-016 $324 $429 forward 7 unknown #
coedge $-1 $327 $224 $430 $343 forward $328 $-1 #
coedge $-1 $224 $326 $426 $431 forward $328 $-1 #
loop $-1 $-1 $224 $432 #
vertex $-1 $433 $434 #
ellipse-curve $-1 -9.953998041094437e-034 0 -0.88249999999999984 0 0 1 0.26550000000000001 0 0 1 I I #
coedge $-1 $332 $226 $427 $435 forward $333 $-1 #
coedge $-1 $226 $331 $436 $437 forward $333 $-1 #
loop $-1 $-1 $226 $438 #
vertex $-1 $435 $439 #
coedge $-1 $440 $441 $228 $336 forward $442 $-1 #
edge $-1 $231 1.5707963267948966 $419 3.1415926535897931 $335 $330 forward 7 unknown #
coedge $-1 $443 $229 $441 $444 reversed $340 $-1 #
coedge $-1 $229 $443 $319 $341 reversed $340 $-1 #
coedge $-1 $436 $430 $102 $154 reversed $445 $-1 #
loop $-1 $-1 $229 $309 #
edge $-1 $230 9.953998041094437e-034 $446 0.26550000000000001 $338 $447 forward 7 unknown #
point $-1 -9.953998041094437e-034 0.26550000000000001 0.88250000000000006 #
edge $-1 $231 -9.953998041094437e-034 $448 0.26550000000000001 $430 $449 forward 7 unknown #
point $-1 -9.953998041094437e-034 0.26550000000000001 -0.88249999999999984 #
loop $-1 $-1 $239 $155 #
coedge $-1 $346 $346 $237 $347 forward $233 $-1 #
edge $450 $451 -3.1415926535897931 $451 3.1415926535897931 $237 $452 forward 7 unknown #
vertex $-1 $238 $453 #
ellipse-curve $-1 -9.953998041094437e-034 0 0.36849999999999916 0 0 1 0.26550000000000001 0 0 1 I I #
vertex $-1 $240 $454 #
ellipse-curve $-1 0 0 0.83650000000000002 0 0 -1 -0.2185 0 0 1 I I #
point $-1 -0.2185 0 0.36849999999999916 #
loop $-1 $-1 $249 $163 #
coedge $-1 $354 $354 $247 $355 forward $243 $-1 #
edge $455 $456 -3.1415926535897931 $456 3.1415926535897931 $247 $457 forward 7 unknown #
vertex $-1 $248 $458 #
ellipse-curve $-1 -9.953998041094437e-034 0 -0.30350000000000055 0 0 1 0.26550000000000001 0 0 1 I I #
vertex $-1 $250 $459 #
ellipse-curve $-1 0 0 0.36849999999999827 0 0 -1 -0.1875 0 0 1 I I #
point $-1 -0.1875 0 -0.30349999999999966 #
model_id-kcp-attrib $-1 $-1 $-1 $255 1 990560119 80 1263534081 8 #
face $460 $269 $461 $11 $-1 $462 forward single #
loop $-1 $463 $381 $255 #
cone-surface $-1 0 0 -7.4417499999999999 0 0 1 -0.125 0 0 1 I I 0 1 0.125 forward I I I I #
coedge $-1 $365 $365 $257 $366 reversed $464 $-1 #
edge $465 $466 -3.1415926535897931 $466 3.1415926535897931 $365 $467 forward 7 unknown #
coedge $-1 $367 $367 $258 $368 forward $468 $-1 #
edge $-1 $469 0 $469 6.2831853071795862 $367 $470 forward 7 unknown #
loop $-1 $-1 $259 $471 #
vertex $-1 $260 $472 #
ellipse-curve $-1 0 0 -7.5759999999999996 0 0 1 0.2185 0 0 1 I I #
loop $-1 $369 $261 $471 #
vertex $-1 $262 $473 #
ellipse-curve $-1 0 0 -8.0440000000000005 0 0 1 0.2185 0 0 1 I I #
face $474 $471 $266 $11 $-1 $475 forward single #
point $-1 -0.1875 0 -8.0440000000000005 #
point $-1 0.1875 0 -8.7159999999999993 #
model_id-kcp-attrib $-1 $-1 $-1 $269 1 990560119 80 1263534081 10 #
loop $-1 $182 $476 $269 #
cone-surface $-1 0 0 -7.4417499999999999 0 0 1 -0.095000000000000001 0 0 1 I I 0 1 0.095000000000000001 forward I I I I #
coedge $-1 $381 $381 $271 $382 forward $363 $-1 #
edge $477 $478 -3.1415926535897931 $478 3.1415926535897931 $381 $479 forward 7 unknown #
plane-surface $-1 0.26550000000000001 0 0 -1 0 0 0 0 1 forward_v I I I I #
coedge $-1 $277 $275 $279 $388 reversed $189 $-1 #
edge $-1 $290 -0.88249999999999984 $390 0.88249999999999984 $289 $480 forward 7 unknown #
vertex $-1 $388 $481 #
straight-curve $-1 -0.26550000000000001 -0.26550000000000001 0 0 0 -1 I I #
edge $-1 $386 -0.26550000000000001 $390 0.26550000000000001 $384 $482 forward 7 unknown #
straight-curve $-1 0 -0.26550000000000001 -0.88249999999999984 -1 0 0 I I #
vertex $-1 $282 $483 #
straight-curve $-1 0 0.26550000000000001 -0.88249999999999984 1 0 0 I I #
point $-1 0.26550000000000001 0.26550000000000001 -0.88249999999999984 #
point $-1 0.26550000000000001 -0.26550000000000001 -0.88249999999999984 #
straight-curve $-1 -0.26550000000000001 0 0.88249999999999984 0 -1 0 I I #
point $-1 -0.26550000000000001 0.26550000000000001 0.88249999999999984 #
point $-1 -0.26550000000000001 -0.26550000000000001 0.88249999999999984 #
straight-curve $-1 0.26550000000000001 -0.26550000000000001 0 0 0 -1 I I #
straight-curve $-1 0.26550000000000001 0.26550000000000001 0 0 0 -1 I I #
vertex $-1 $300 $484 #
ellipse-curve $-1 0 0 0.030000000000000249 0 0 1 0.125 0 0 1 I I #
point $-1 0.125 0 -0.030000000000000249 #
vertex $-1 $305 $485 #
ellipse-curve $-1 0 0 0.015499999999999847 0 0 1 0.26550000000000001 0 0 1 I I #
point $-1 0.26550000000000001 0 -0.015499999999999847 #
face $-1 $486 $487 $37 $-1 $488 reversed single #
plane-surface $-1 0 0.26550000000000001 0 0 -1 0 0 0 -1 forward_v I I I I #
coedge $-1 $312 $417 $313 $412 forward $218 $-1 #
coedge $-1 $489 $490 $312 $409 forward $491 $-1 #
edge $-1 $419 -3.1415926535897931 $416 -1.5707963267948966 $408 $330 forward 7 unknown #
coedge $-1 $314 $313 $492 $493 reversed $149 $-1 #
coedge $-1 $494 $495 $496 $412 forward $497 $-1 #
edge $-1 $498 -1.7650000000000003 $416 -4.4408920985006262e-016 $411 $499 forward 7 unknown #
coedge $-1 $414 $315 $500 $433 forward $415 $-1 #
coedge $-1 $315 $413 $494 $501 forward $415 $-1 #
loop $-1 $-1 $315 $502 #
vertex $-1 $503 $504 #
coedge $-1 $407 $317 $505 $506 reversed $218 $-1 #
coedge $-1 $507 $508 $509 $318 forward $487 $-1 #
vertex $-1 $510 $511 #
straight-curve $-1 -0.26550000000000001 0 -0.88250000000000028 0 0 -1 I I #
coedge $-1 $512 $509 $320 $422 reversed $513 $-1 #
edge $-1 $446 -0.26550000000000001 $322 0 $421 $514 forward 7 unknown #
face $-1 $438 $321 $37 $-1 $515 forward single #
edge $-1 $322 0 $516 0.26550000000000001 $508 $514 forward 7 unknown #
point $-1 -0.26550000000000001 0 0.88250000000000006 #
coedge $-1 $517 $324 $327 $431 reversed $310 $-1 #
coedge $-1 $324 $517 $331 $435 reversed $310 $-1 #
coedge $-1 $518 $500 $314 $325 reversed $519 $-1 #
straight-curve $-1 0.26550000000000001 0 -0.88250000000000028 0 0 -1 I I #
coedge $-1 $339 $520 $326 $343 reversed $445 $-1 #
edge $-1 $448 -0.26550000000000001 $329 0 $426 $521 forward 7 unknown #
face $-1 $522 $328 $37 $-1 $523 reversed single #
edge $-1 $329 0 $524 0.26550000000000001 $500 $521 forward 7 unknown #
point $-1 0.26550000000000001 0 -0.88249999999999984 #
edge $-1 $334 0 $525 0.26550000000000001 $427 $526 forward 7 unknown #
coedge $-1 $520 $339 $332 $437 reversed $445 $-1 #
edge $-1 $525 -0.26550000000000001 $230 9.953998041094437e-034 $436 $447 forward 7 unknown #
face $-1 $527 $333 $37 $-1 $515 forward single #
point $-1 0.26550000000000001 0 0.88250000000000006 #
coedge $-1 $441 $335 $528 $510 forward $442 $-1 #
coedge $-1 $335 $440 $337 $444 forward $442 $-1 #
loop $-1 $-1 $335 $522 #
coedge $-1 $338 $337 $512 $529 reversed $340 $-1 #
edge $-1 $530 -0.26550000000000001 $231 -9.953998041094437e-034 $337 $449 forward 7 unknown #
loop $-1 $-1 $339 $531 #
vertex $-1 $341 $532 #
straight-curve $-1 0 0.26550000000000001 0.88249999999999984 -1 0 0 I I #
vertex $-1 $431 $533 #
straight-curve $-1 0 0.26550000000000001 -0.88249999999999984 1 0 0 I I #
convexity-sys-attrib $-1 $-1 $-1 $347 #
vertex $-1 $347 $534 #
ellipse-curve $-1 -9.953998041094437e-034 0 0.83650000000000002 0 0 1 0.26550000000000001 0 0 1 I I #
point $-1 -0.26550000000000001 -3.2513298693984116e-017 0.36849999999999916 #
point $-1 -0.2185 0 0.83650000000000002 #
convexity-sys-attrib $-1 $-1 $-1 $355 #
vertex $-1 $355 $535 #
ellipse-curve $-1 -9.953998041094437e-034 0 0.36849999999999827 0 0 1 0.26550000000000001 0 0 1 I I #
point $-1 -0.26550000000000001 -3.2513298693984116e-017 -0.30350000000000055 #
point $-1 -0.1875 0 0.36849999999999916 #
model_id-kcp-attrib $-1 $-1 $-1 $362 1 990560119 80 1263534081 9 #
loop $-1 $536 $537 $362 #
cone-surface $-1 0 0 -8.7959999999999994 0 0 -1 0.125 0 0 1 I I 0.70710678118654702 0.70710678118654802 0.125 forward I I I I #
loop $-1 $-1 $538 $255 #
loop $-1 $-1 $365 $539 #
attrib_edge_convexity-kcp-attrib $-1 $540 $-1 $366 1 #
vertex $-1 $366 $541 #
ellipse-curve $-1 0 0 -7.5300000000000002 0 0 1 0.23449999999999999 0 0 1 I I #
loop $-1 $542 $367 $543 #
vertex $-1 $368 $544 #
ellipse-curve $-1 0 0 -7.5759999999999996 0 0 1 0.26550000000000001 0 0 1 I I #
face $545 $543 $372 $11 $-1 $546 forward single #
point $-1 -0.2185 0 -7.5759999999999996 #
point $-1 0.2185 0 -8.0440000000000005 #
model_id-kcp-attrib $-1 $-1 $-1 $375 1 990560119 80 1263534081 11 #
cone-surface $-1 0 0 -7.4417499999999999 0 0 1 -0.1875 0 0 1 I I 0 1 0.1875 forward I I I I #
coedge $-1 $476 $476 $547 $548 forward $379 $-1 #
attrib_edge_convexity-kcp-attrib $-1 $549 $-1 $382 1 #
vertex $-1 $382 $550 #
ellipse-curve $-1 0 0 -9.2349999999999994 0 0 1 0.125 0 0 1 I I #
straight-curve $-1 -0.26550000000000001 0.26550000000000001 0 0 0 -1 I I #
point $-1 -0.26550000000000001 -0.26550000000000001 -0.88249999999999984 #
straight-curve $-1 -0.26550000000000001 0 -0.88249999999999984 0 1 0 I I #
point $-1 -0.26550000000000001 0.26550000000000001 -0.88249999999999984 #
point $-1 0.125 0 0.030000000000000249 #
point $-1 0.26550000000000001 0 0.015499999999999847 #
face $-1 $423 $551 $37 $-1 $515 forward single #
loop $-1 $-1 $418 $405 #
plane-surface $-1 -0.26550000000000001 0 0 1 0 0 0 0 -1 forward_v I I I I #
coedge $-1 $490 $408 $552 $503 forward $491 $-1 #
coedge $-1 $408 $489 $507 $553 forward $491 $-1 #
loop $-1 $-1 $408 $554 #
coedge $-1 $555 $556 $410 $493 forward $557 $-1 #
edge $-1 $334 0 $498 1.5707963267948966 $492 $323 forward 7 unknown #
coedge $-1 $558 $411 $414 $501 reversed $497 $-1 #
coedge $-1 $411 $558 $555 $559 reversed $497 $-1 #
coedge $-1 $560 $552 $407 $412 reversed $561 $-1 #
loop $-1 $-1 $411 $562 #
vertex $-1 $559 $563 #
straight-curve $-1 -9.953998041094437e-034 -0.26550000000000001 -0.88250000000000028 0 0 -1 I I #
coedge $-1 $428 $564 $413 $433 reversed $519 $-1 #
edge $-1 $524 -0.26550000000000001 $416 9.953998041094437e-034 $494 $565 forward 7 unknown #
face $-1 $432 $415 $37 $-1 $523 reversed single #
edge $-1 $416 9.953998041094437e-034 $566 0.26550000000000001 $552 $565 forward 7 unknown #
point $-1 -9.953998041094437e-034 -0.26550000000000001 -0.88249999999999984 #
coedge $-1 $567 $568 $417 $506 forward $551 $-1 #
edge $-1 $498 1.5707963267948966 $322 3.1415926535897931 $505 $323 forward 7 unknown #
coedge $-1 $569 $418 $490 $553 reversed $487 $-1 #
coedge $-1 $418 $569 $567 $424 reversed $487 $-1 #
coedge $-1 $421 $528 $220 $318 reversed $513 $-1 #
edge $-1 $419 0 $530 0.26550000000000001 $528 $570 forward 7 unknown #
point $-1 -0.26550000000000001 0 -0.88249999999999984 #
coedge $-1 $528 $421 $443 $529 forward $513 $-1 #
loop $-1 $-1 $509 $571 #
straight-curve $-1 -0.26550000000000001 0 0.88249999999999984 0 -1 0 I I #
plane-surface $-1 0 0 0.88249999999999984 0 0 1 1 0 0 forward_v I I I I #
vertex $-1 $424 $572 #
coedge $-1 $427 $426 $520 $573 reversed $310 $-1 #
coedge $-1 $564 $428 $556 $574 reversed $519 $-1 #
loop $-1 $-1 $428 $575 #
coedge $-1 $430 $436 $517 $573 forward $445 $-1 #
straight-curve $-1 0.26550000000000001 0 -0.88249999999999984 0 -1 0 I I #
face $-1 $576 $442 $37 $-1 $523 reversed single #
plane-surface $-1 0 0 -0.88249999999999984 0 0 1 1 0 0 forward_v I I I I #
vertex $-1 $577 $578 #
vertex $-1 $435 $579 #
straight-curve $-1 0.26550000000000001 0 0.88249999999999984 0 1 0 I I #
face $-1 $562 $557 $37 $-1 $515 forward single #
coedge $-1 $509 $512 $440 $510 reversed $513 $-1 #
edge $-1 $446 -0.88249999999999984 $530 0.88249999999999984 $443 $580 forward 7 unknown #
vertex $-1 $444 $581 #
face $-1 $575 $445 $37 $-1 $406 reversed single #
point $-1 -0.26550000000000001 0.26550000000000001 0.88249999999999984 #
point $-1 0.26550000000000001 0.26550000000000001 -0.88249999999999984 #
point $-1 -0.26550000000000001 -3.2513298693984116e-017 0.83650000000000002 #
point $-1 -0.26550000000000001 -3.2513298693984116e-017 0.36849999999999827 #
loop $-1 $-1 $547 $362 #
coedge $-1 $537 $537 $538 $582 forward $461 $-1 #
coedge $-1 $538 $538 $537 $582 reversed $463 $-1 #
face $583 $-1 $584 $11 $-1 $585 forward single #
convexity-sys-attrib $-1 $-1 $465 $366 #
point $-1 -0.23449999999999999 0 -7.5300000000000002 #
loop $-1 $-1 $586 $543 #
face $587 $539 $468 $11 $-1 $588 forward single #
point $-1 0.26550000000000001 0 -7.5759999999999996 #
model_id-kcp-attrib $-1 $-1 $-1 $471 1 990560119 80 1263534081 12 #
cone-surface $-1 0 0 -7.4417499999999999 0 0 1 -0.2185 0 0 1 I I 0 1 0.2185 forward I I I I #
coedge $-1 $547 $547 $476 $548 reversed $536 $-1 #
edge $-1 $589 -3.1415926535897931 $589 3.1415926535897931 $476 $590 forward 7 unknown #
convexity-sys-attrib $-1 $-1 $477 $382 #
point $-1 -0.125 0 -9.2349999999999994 #
loop $-1 $-1 $505 $486 #
coedge $-1 $496 $591 $489 $503 reversed $561 $-1 #
edge $-1 $566 -0.26550000000000001 $419 0 $507 $570 forward 7 unknown #
face $-1 $502 $491 $37 $-1 $523 reversed single #
coedge $-1 $556 $492 $495 $559 forward $557 $-1 #
coedge $-1 $492 $555 $518 $574 forward $557 $-1 #
loop $-1 $-1 $492 $527 #
coedge $-1 $495 $494 $564 $577 reversed $497 $-1 #
edge $-1 $498 -9.953998041094437e-034 $592 0.26550000000000001 $495 $593 forward 7 unknown #
coedge $-1 $591 $496 $568 $594 reversed $561 $-1 #
loop $-1 $-1 $496 $576 #
face $-1 $554 $497 $37 $-1 $595 reversed single #
point $-1 -9.953998041094437e-034 -0.26550000000000001 0.88250000000000006 #
coedge $-1 $500 $518 $558 $577 forward $519 $-1 #
straight-curve $-1 0 -0.26550000000000001 -0.88249999999999984 -1 0 0 I I #
vertex $-1 $553 $596 #
coedge $-1 $568 $505 $508 $424 forward $551 $-1 #
coedge $-1 $505 $567 $560 $594 forward $551 $-1 #
coedge $-1 $508 $507 $591 $597 reversed $487 $-1 #
straight-curve $-1 -0.26550000000000001 0 -0.88249999999999984 0 1 0 I I #
face $-1 $531 $513 $37 $-1 $488 reversed single #
point $-1 -0.26550000000000001 -0.26550000000000001 0.88249999999999984 #
edge $-1 $525 -0.88249999999999984 $448 0.88249999999999984 $517 $598 forward 7 unknown #
edge $-1 $592 -0.26550000000000001 $334 0 $518 $526 forward 7 unknown #
face $-1 $-1 $519 $37 $-1 $311 reversed single #
face $-1 $571 $561 $37 $-1 $595 reversed single #
edge $-1 $592 -0.88249999999999984 $524 0.88249999999999984 $564 $599 forward 7 unknown #
point $-1 0.26550000000000001 -0.26550000000000001 -0.88249999999999984 #
point $-1 0.26550000000000001 0.26550000000000001 0.88249999999999984 #
straight-curve $-1 -0.26550000000000001 0.26550000000000001 0 0 0 -1 I I #
point $-1 -0.26550000000000001 0.26550000000000001 -0.88249999999999984 #
edge $-1 $600 -3.1415926535897931 $600 3.1415926535897931 $537 $601 forward 7 unknown #
model_id-kcp-attrib $-1 $-1 $-1 $539 1 990560119 80 1263534081 14 #
loop $-1 $464 $602 $539 #
cone-surface $-1 0 0 -7.5609999999999999 0 0 -1 0.26550000000000001 0 0 1 I I 0.70710678118654902 0.70710678118654602 0.26550000000000001 forward I I I I #
coedge $-1 $586 $586 $602 $603 reversed $542 $-1 #
model_id-kcp-attrib $-1 $-1 $-1 $543 1 990560119 80 1263534081 13 #
cone-surface $-1 0 0 -7.4417499999999999 0 0 1 -0.26550000000000001 0 0 1 I I 0 1 0.26550000000000001 forward I I I I #
vertex $-1 $548 $604 #
ellipse-curve $-1 0 0 -8.766 0 0 1 0.095000000000000001 0 0 1 I I #
coedge $-1 $552 $560 $569 $597 forward $561 $-1 #
vertex $-1 $574 $605 #
straight-curve $-1 0 -0.26550000000000001 0.88249999999999984 1 0 0 I I #
edge $-1 $516 -0.26550000000000001 $498 -9.953998041094437e-034 $560 $593 forward 7 unknown #
plane-surface $-1 0 -0.26550000000000001 0 0 1 0 0 0 1 forward_v I I I I #
point $-1 -0.26550000000000001 -0.26550000000000001 -0.88249999999999984 #
edge $-1 $516 -0.88249999999999984 $566 0.88249999999999984 $569 $606 forward 7 unknown #
straight-curve $-1 0.26550000000000001 0.26550000000000001 0 0 0 -1 I I #
straight-curve $-1 0.26550000000000001 -0.26550000000000001 0 0 0 -1 I I #
vertex $-1 $582 $607 #
ellipse-curve $-1 0 0 -8.7959999999999994 0 0 1 0.125 0 0 1 I I #
coedge $-1 $602 $602 $586 $603 forward $584 $-1 #
edge $608 $609 -3.1415926535897931 $609 3.1415926535897931 $602 $610 forward 7 unknown #
point $-1 -0.095000000000000001 0 -8.766 #
point $-1 0.26550000000000001 -0.26550000000000001 0.88249999999999984 #
straight-curve $-1 -0.26550000000000001 -0.26550000000000001 0 0 0 -1 I I #
point $-1 -0.125 0 -8.7959999999999994 #
attrib_edge_convexity-kcp-attrib $-1 $611 $-1 $603 1 #
vertex $-1 $603 $612 #
ellipse-curve $-1 0 0 -7.5609999999999999 0 0 1 0.26550000000000001 0 0 1 I I #
convexity-sys-attrib $-1 $-1 $608 $603 #
point $-1 -0.26550000000000001 0 -7.5609999999999999 #
End-of-ACIS-data 