600 0 1 0           
94 GICL Pro/E ACIS Translator - Source: f:/data5/repository/PTC/V18/asmdes18/parts/ball.prt - 6 0 13 ACIS 6.0.3 NT 24 Thu Apr 04 13:45:51 2002 
1 9.9999999999999995e-007 1e-010 
body $-1 $1 $-1 $2 #
lump $-1 $-1 $3 $0 #
transform $-1 1 0 0 0 1 0 0 0 1 0 0 0 10 no_rotate no_reflect no_shear #
shell $-1 $-1 $-1 $4 $-1 $1 #
face $-1 $5 $6 $3 $-1 $7 forward single #
face $-1 $-1 $8 $3 $-1 $9 forward single #
loop $-1 $-1 $10 $4 #
sphere-surface $-1 0 0 0 1.25 1 0 0 0 0 1 forward_v I I I I #
loop $-1 $-1 $11 $5 #
sphere-surface $-1 0 0 0 1.25 1 0 0 0 0 1 forward_v I I I I #
coedge $-1 $12 $12 $11 $13 reversed $6 $-1 #
coedge $-1 $14 $14 $10 $13 forward $8 $-1 #
coedge $-1 $10 $10 $14 $15 forward $6 $-1 #
edge $-1 $16 -1.2246063538223773e-016 $17 3.1415926535897931 $10 $18 forward 7 unknown #
coedge $-1 $11 $11 $12 $15 reversed $8 $-1 #
edge $-1 $16 0 $17 3.1415926535897931 $12 $19 forward 7 unknown #
vertex $-1 $15 $20 #
vertex $-1 $15 $21 #
ellipse-curve $-1 0 0 0 2.449212707644754e-016 1.7516230804060214e-048 -1 -7.6537897113898579e-017 -1.25 -1.8745759022776718e-032 1 I I #
ellipse-curve $-1 0 0 0 -1.224606353822377e-016 8.7581154020301069e-049 1 7.6537897113898579e-017 -1.25 9.372879511388359e-033 1 I I #
point $-1 7.6537897113898579e-017 -1.25 9.372879511388359e-033 #
point $-1 7.6537897113898579e-017 1.25 9.372879511388359e-033 #
End-of-ACIS-data 