600 0 1 0           
91 GICL ACIS Healer - Source: /gicl/data5/repository/PTC/V18/asmdes18/parts/ball.prt.sat - 6 0 18 ACIS 6.0.3 Solaris 24 Sat Apr 13 23:04:59 2002 
1 9.999999999999999547e-07 1.000000000000000036e-10 
body $-1 $1 $-1 $-1 #
lump $-1 $-1 $2 $0 #
shell $-1 $-1 $-1 $3 $-1 $1 #
face $-1 $4 $5 $2 $-1 $6 forward single #
face $-1 $-1 $7 $2 $-1 $6 forward single #
loop $-1 $-1 $8 $3 #
sphere-surface $-1 0 0 0 12.5 1 0 0 0 0 1 forward_v I I I I #
loop $-1 $-1 $9 $4 #
coedge $-1 $10 $10 $9 $11 reversed $5 $-1 #
coedge $-1 $12 $12 $8 $11 forward $7 $-1 #
coedge $-1 $8 $8 $12 $13 forward $5 $-1 #
edge $-1 $14 -1.224606353822377258e-16 $15 3.141592653589793116 $8 $16 forward 7 unknown #
coedge $-1 $9 $9 $10 $13 reversed $7 $-1 #
edge $-1 $14 9.182470242606207548e-49 $15 3.141592653589793116 $10 $17 forward 7 unknown #
vertex $-1 $13 $18 #
vertex $-1 $13 $19 #
ellipse-curve $-1 0 0 0 2.449212707644754023e-16 1.751623080406021375e-48 -1 -7.653789711389857864e-16 -12.5 -1.8745759022776718e-31 1 I I #
ellipse-curve $-1 0 0 0 -1.224606353822377012e-16 8.758115402030106876e-49 1 7.653789711389857864e-16 -12.5 9.372879511388358998e-32 1 I I #
point $-1 7.653789711389857864e-16 -12.5 9.372879511388358998e-32 #
point $-1 7.653789711389857864e-16 12.5 9.372879511388358998e-32 #
End-of-ACIS-data 