700 0 2 0           
24 FBMach with ACIS - 7.0.3 13 ACIS 7.0.3 NT 24 Thu May 16 15:50:38 2002 
1 9.9999999999999995e-007 1e-010 
body $2 -1 $-1 $3 $-1 $-1 #
bdycol-kcp $-1 -1 1 1 $4 #
model_id-kcp-attrib $-1 -1 $-1 $-1 $0 1 1021578638 1021578638 -61472767 1 #
lump $-1 -1 $-1 $-1 $5 $0 #
body $6 -1 $-1 $7 $-1 $8 #
shell $-1 -1 $-1 $-1 $-1 $9 $-1 $3 #
model_id-kcp-attrib $-1 -1 $-1 $-1 $4 1 1021578638 1021578638 -61472766 1 #
lump $-1 -1 $-1 $-1 $10 $4 #
transform $-1 -1 1 0 0 0 1 0 0 0 1 0 0 0 1 no_rotate no_reflect no_shear #
face $11 -1 $-1 $12 $13 $5 $-1 $14 forward single #
shell $-1 -1 $-1 $-1 $-1 $15 $-1 $7 #
model_id-kcp-attrib $-1 -1 $-1 $-1 $9 1 1021578638 1021578638 -61472767 2 #
face $16 -1 $-1 $-1 $17 $5 $-1 $14 forward single #
loop $-1 -1 $-1 $-1 $18 $9 #
sphere-surface $-1 -1 $-1 0 0 0 12.5 1 0 0 0 0 1 forward_v I I I I #
face $-1 -1 $-1 $19 $20 $10 $-1 $21 forward single #
model_id-kcp-attrib $-1 -1 $-1 $-1 $12 1 1021578638 1021578638 -61472767 3 #
loop $-1 -1 $-1 $-1 $22 $12 #
coedge $-1 -1 $-1 $23 $23 $22 $24 reversed $13 $-1 #
face $-1 -1 $-1 $25 $26 $10 $-1 $27 reversed single #
loop $-1 -1 $-1 $-1 $28 $15 #
plane-surface $-1 -1 $-1 0 0 12.5 0 0 1 1 0 0 forward_v I I I I #
coedge $-1 -1 $-1 $29 $29 $18 $24 forward $17 $-1 #
coedge $-1 -1 $-1 $18 $18 $29 $30 forward $13 $-1 #
edge $-1 -1 $-1 $31 -1.2246063538223773e-016 $32 3.1415926535897931 $18 $33 forward @7 unknown #
face $-1 -1 $-1 $34 $35 $10 $-1 $36 reversed single #
loop $-1 -1 $-1 $-1 $37 $19 #
plane-surface $-1 -1 $-1 0 0 -12.5 0 0 1 1 0 0 forward_v I I I I #
coedge $-1 -1 $-1 $38 $39 $40 $41 forward $20 $-1 #
coedge $-1 -1 $-1 $22 $22 $23 $30 reversed $17 $-1 #
edge $-1 -1 $-1 $31 9.1824702426062075e-049 $32 3.1415926535897931 $23 $42 forward @7 unknown #
vertex $-1 -1 $-1 $30 $43 #
vertex $-1 -1 $-1 $30 $44 #
ellipse-curve $-1 -1 $-1 0 0 0 2.449212707644754e-016 1.7516230804060214e-048 -1 -7.6537897113898579e-016 -12.5 -1.8745759022776718e-031 1 I I #
face $-1 -1 $-1 $45 $46 $10 $-1 $47 reversed single #
loop $-1 -1 $-1 $-1 $48 $25 #
plane-surface $-1 -1 $-1 0 -12.5 0 0 1 0 0 0 1 forward_v I I I I #
coedge $-1 -1 $-1 $49 $50 $51 $52 forward $26 $-1 #
coedge $-1 -1 $-1 $53 $28 $54 $55 forward $20 $-1 #
coedge $-1 -1 $-1 $28 $53 $56 $57 forward $20 $-1 #
coedge $-1 -1 $-1 $58 $59 $28 $41 reversed $60 $-1 #
edge $-1 -1 $-1 $61 -12.5 $62 12.5 $40 $63 forward @7 unknown #
ellipse-curve $-1 -1 $-1 0 0 0 -1.224606353822377e-016 8.7581154020301069e-049 1 7.6537897113898579e-016 -12.5 9.372879511388359e-032 1 I I #
point $-1 -1 $-1 7.6537897113898579e-016 -12.5 9.372879511388359e-032 #
point $-1 -1 $-1 7.6537897113898579e-016 12.5 9.372879511388359e-032 #
face $-1 -1 $-1 $64 $65 $10 $-1 $66 reversed single #
loop $-1 -1 $-1 $-1 $67 $34 #
plane-surface $-1 -1 $-1 -12.5 0 0 1 0 0 0 0 -1 forward_v I I I I #
coedge $-1 -1 $-1 $68 $56 $69 $70 forward $35 $-1 #
coedge $-1 -1 $-1 $71 $37 $68 $72 forward $26 $-1 #
coedge $-1 -1 $-1 $37 $71 $73 $74 forward $26 $-1 #
coedge $-1 -1 $-1 $59 $58 $37 $52 reversed $60 $-1 #
edge $-1 -1 $-1 $75 -12.5 $76 12.5 $51 $77 forward @7 unknown #
coedge $-1 -1 $-1 $39 $38 $78 $79 forward $20 $-1 #
coedge $-1 -1 $-1 $80 $81 $38 $55 reversed $65 $-1 #
edge $-1 -1 $-1 $62 -12.5 $82 12.5 $54 $83 forward @7 unknown #
coedge $-1 -1 $-1 $48 $84 $39 $57 reversed $35 $-1 #
edge $-1 -1 $-1 $85 -12.5 $61 12.5 $56 $86 forward @7 unknown #
coedge $-1 -1 $-1 $51 $40 $84 $87 forward $60 $-1 #
coedge $-1 -1 $-1 $40 $51 $80 $88 reversed $60 $-1 #
loop $-1 -1 $-1 $-1 $58 $64 #
vertex $-1 -1 $-1 $41 $89 #
vertex $-1 -1 $-1 $41 $90 #
straight-curve $-1 -1 $-1 12.5 0 12.5 0 1 0 I I #
face $-1 -1 $-1 $-1 $60 $10 $-1 $91 reversed single #
loop $-1 -1 $-1 $-1 $80 $45 #
plane-surface $-1 -1 $-1 0 12.5 0 0 -1 0 0 0 -1 forward_v I I I I #
coedge $-1 -1 $-1 $92 $78 $81 $93 forward $46 $-1 #
coedge $-1 -1 $-1 $84 $48 $49 $72 reversed $35 $-1 #
coedge $-1 -1 $-1 $78 $92 $48 $70 reversed $46 $-1 #
edge $-1 -1 $-1 $85 -12.5 $94 12.5 $69 $95 forward @7 unknown #
coedge $-1 -1 $-1 $50 $49 $92 $96 forward $26 $-1 #
edge $-1 -1 $-1 $76 -12.5 $94 12.5 $68 $97 forward @7 unknown #
coedge $-1 -1 $-1 $81 $80 $50 $74 reversed $65 $-1 #
edge $-1 -1 $-1 $98 -12.5 $75 12.5 $73 $99 forward @7 unknown #
vertex $-1 -1 $-1 $52 $100 #
vertex $-1 -1 $-1 $87 $101 #
straight-curve $-1 -1 $-1 12.5 0 -12.5 0 -1 0 I I #
coedge $-1 -1 $-1 $67 $69 $53 $79 reversed $46 $-1 #
edge $-1 -1 $-1 $82 -12.5 $85 12.5 $78 $102 forward @7 unknown #
coedge $-1 -1 $-1 $73 $54 $59 $88 forward $65 $-1 #
coedge $-1 -1 $-1 $54 $73 $67 $93 reversed $65 $-1 #
vertex $-1 -1 $-1 $55 $103 #
straight-curve $-1 -1 $-1 0 12.5 12.5 -1 0 0 I I #
coedge $-1 -1 $-1 $56 $68 $58 $87 reversed $35 $-1 #
vertex $-1 -1 $-1 $79 $104 #
straight-curve $-1 -1 $-1 0 -12.5 12.5 1 0 0 I I #
edge $-1 -1 $-1 $61 -12.5 $76 12.5 $58 $105 forward @7 unknown #
edge $-1 -1 $-1 $62 -12.5 $75 12.5 $59 $106 forward @7 unknown #
point $-1 -1 $-1 12.5 -12.5 12.5 #
point $-1 -1 $-1 12.5 12.5 12.5 #
plane-surface $-1 -1 $-1 12.5 0 0 -1 0 0 0 0 1 forward_v I I I I #
coedge $-1 -1 $-1 $69 $67 $71 $96 reversed $46 $-1 #
edge $-1 -1 $-1 $82 -12.5 $98 12.5 $81 $107 forward @7 unknown #
vertex $-1 -1 $-1 $96 $108 #
straight-curve $-1 -1 $-1 -12.5 -12.5 0 0 0 -1 I I #
edge $-1 -1 $-1 $94 -12.5 $98 12.5 $92 $109 forward @7 unknown #
straight-curve $-1 -1 $-1 0 -12.5 -12.5 -1 0 0 I I #
vertex $-1 -1 $-1 $74 $110 #
straight-curve $-1 -1 $-1 0 12.5 -12.5 1 0 0 I I #
point $-1 -1 $-1 12.5 12.5 -12.5 #
point $-1 -1 $-1 12.5 -12.5 -12.5 #
straight-curve $-1 -1 $-1 -12.5 0 12.5 0 -1 0 I I #
point $-1 -1 $-1 -12.5 12.5 12.5 #
point $-1 -1 $-1 -12.5 -12.5 12.5 #
straight-curve $-1 -1 $-1 12.5 -12.5 0 0 0 -1 I I #
straight-curve $-1 -1 $-1 12.5 12.5 0 0 0 -1 I I #
straight-curve $-1 -1 $-1 -12.5 12.5 0 0 0 -1 I I #
point $-1 -1 $-1 -12.5 -12.5 -12.5 #
straight-curve $-1 -1 $-1 -12.5 0 -12.5 0 1 0 I I #
point $-1 -1 $-1 -12.5 12.5 -12.5 #
End-of-ACIS-data 