600 0 1 0           
94 GICL Pro/E ACIS Translator - Source: f:/data5/repository/PTC/V18/asmdes18/parts/bolt.prt - 6 0 13 ACIS 6.0.3 NT 24 Thu Apr 04 13:45:52 2002 
1 9.9999999999999995e-007 1e-010 
body $-1 $1 $-1 $2 #
lump $-1 $-1 $3 $0 #
transform $-1 1 0 0 0 1 0 0 0 1 0 0 0 10 no_rotate no_reflect no_shear #
shell $-1 $-1 $-1 $4 $-1 $1 #
face $-1 $5 $6 $3 $-1 $7 reversed single #
face $-1 $8 $9 $3 $-1 $10 forward single #
loop $-1 $-1 $11 $4 #
plane-surface $-1 0 0 0 0 1 0 -1 0 0 forward_v I I I I #
face $-1 $12 $13 $3 $-1 $14 forward single #
loop $-1 $-1 $15 $5 #
cone-surface $-1 0 0 0 0 1 0 -1 0 0 1 I I 0 1 1 forward I I I I #
coedge $-1 $16 $16 $17 $18 reversed $6 $-1 #
face $-1 $19 $20 $3 $-1 $21 reversed single #
loop $-1 $-1 $22 $8 #
cone-surface $-1 0 0 0 0 1 0 -1 0 0 1 I I 0 1 1 forward I I I I #
coedge $-1 $17 $23 $24 $25 reversed $9 $-1 #
coedge $-1 $11 $11 $26 $27 reversed $6 $-1 #
coedge $-1 $28 $15 $11 $18 forward $9 $-1 #
edge $-1 $29 0 $30 3.1415926535897931 $11 $31 forward 7 unknown #
face $-1 $32 $33 $3 $-1 $34 forward single #
loop $-1 $35 $36 $12 #
plane-surface $-1 0 6 0 0 1 0 -1 0 0 forward_v I I I I #
coedge $-1 $26 $37 $28 $38 reversed $13 $-1 #
coedge $-1 $15 $28 $39 $40 reversed $9 $-1 #
coedge $-1 $37 $26 $15 $25 forward $13 $-1 #
edge $-1 $29 0 $41 6 $24 $42 forward 7 unknown #
coedge $-1 $24 $22 $16 $27 forward $13 $-1 #
edge $-1 $30 0 $29 3.1415926535897931 $16 $43 forward 7 unknown #
coedge $-1 $23 $17 $22 $38 forward $9 $-1 #
vertex $-1 $27 $44 #
vertex $-1 $27 $45 #
ellipse-curve $-1 0 0 0 0 1 0 1 0 0 1 I I #
face $-1 $46 $47 $3 $-1 $48 forward single #
loop $-1 $-1 $49 $19 #
cone-surface $-1 0.52144660940672616 6 1.2588834764831847 0 -1 0 0.17677669529663684 0 0.17677669529663695 1 I I 0 1 0.25 forward I I I I #
loop $-1 $-1 $39 $12 #
coedge $-1 $50 $51 $52 $53 forward $20 $-1 #
coedge $-1 $22 $24 $54 $55 reversed $13 $-1 #
edge $-1 $30 0 $56 6 $22 $57 forward 7 unknown #
coedge $-1 $54 $54 $23 $40 forward $35 $-1 #
edge $-1 $41 0 $56 3.1415926535897931 $23 $58 forward 7 unknown #
vertex $-1 $55 $59 #
straight-curve $-1 1 0 1.2246063538223773e-016 0 1 0 I I #
ellipse-curve $-1 0 0 0 0 1 0 -1 0 0 1 I I #
point $-1 1 0 0 #
point $-1 -1 0 0 #
face $-1 $60 $61 $3 $-1 $62 forward single #
loop $-1 $-1 $63 $32 #
sphere-surface $-1 0.52144660940672627 7.25 1.2588834764831847 0.25 1 0 0 0 0 1 forward_v I I I I #
coedge $-1 $64 $65 $63 $66 forward $33 $-1 #
coedge $-1 $67 $36 $68 $69 reversed $20 $-1 #
coedge $-1 $36 $70 $71 $72 reversed $20 $-1 #
coedge $-1 $65 $64 $36 $53 reversed $33 $-1 #
edge $-1 $73 -6.1062266354383896e-016 $74 0.78539816339744961 $36 $75 forward 7 unknown #
coedge $-1 $39 $39 $37 $55 forward $35 $-1 #
edge $-1 $56 0 $41 3.1415926535897931 $37 $76 forward 7 unknown #
vertex $-1 $55 $77 #
straight-curve $-1 -1 0 0 0 1 0 I I #
ellipse-curve $-1 -2.7755575615628914e-017 6 5.5511151231257827e-017 0 1 0 1 0 -5.5511151231257827e-017 1 I I #
point $-1 1 6 0 #
face $-1 $78 $79 $3 $-1 $80 forward single #
loop $-1 $-1 $81 $46 #
cone-surface $-1 0.44822330470336308 7.25 1.3321067811865479 0.70710678118654735 0 -0.70710678118654779 0 0.25 0 1 I I 0 1 0.25 forward I I I I #
coedge $-1 $82 $83 $49 $66 reversed $47 $-1 #
coedge $-1 $52 $49 $84 $85 reversed $33 $-1 #
coedge $-1 $49 $52 $86 $87 forward $33 $-1 #
edge $-1 $88 0 $89 0.78539816339744828 $63 $90 forward 7 unknown #
coedge $-1 $91 $50 $92 $93 forward $20 $-1 #
coedge $-1 $84 $94 $50 $69 forward $95 $-1 #
edge $-1 $96 0 $74 1.0428932188134523 $50 $97 forward 7 unknown #
coedge $-1 $51 $98 $99 $100 forward $20 $-1 #
coedge $-1 $101 $86 $51 $72 forward $79 $-1 #
edge $-1 $73 -7.8504622934188758e-017 $102 1.0428932188134528 $51 $103 forward 7 unknown #
vertex $-1 $72 $104 #
vertex $-1 $69 $105 #
ellipse-curve $-1 0.52144660940672649 6 1.2588834764831851 0 -1 0 0.17677669529663653 0 0.17677669529663653 1 I I #
ellipse-curve $-1 2.7755575615628914e-017 6 -5.5511151231257827e-017 0 1 0 -1 0 5.5511151231257827e-017 1 I I #
point $-1 -1 6 0 #
face $-1 $106 $107 $3 $-1 $108 forward single #
loop $-1 $-1 $101 $60 #
plane-surface $-1 0.625 6 1.5088834764831847 0.70710678118654768 0 0.70710678118654735 0.70710678118654735 0 -0.70710678118654768 forward_v I I I I #
coedge $-1 $109 $110 $82 $111 forward $61 $-1 #
coedge $-1 $83 $63 $81 $111 reversed $47 $-1 #
coedge $-1 $63 $82 $112 $113 reversed $47 $-1 #
coedge $-1 $114 $68 $64 $85 forward $95 $-1 #
edge $-1 $74 0 $89 1.25 $84 $115 forward 7 unknown #
coedge $-1 $71 $116 $65 $87 reversed $79 $-1 #
edge $-1 $73 0 $88 1.25 $86 $117 forward 7 unknown #
vertex $-1 $87 $118 #
vertex $-1 $119 $120 #
ellipse-curve $-1 0.52144660940672627 7.25 1.2588834764831847 0 -1 0 0.17677669529663709 0 0.17677669529663675 1 I I #
coedge $-1 $121 $67 $122 $123 reversed $20 $-1 #
coedge $-1 $124 $125 $67 $93 reversed $126 $-1 #
edge $-1 $96 0 $127 0.78539816339745094 $67 $128 forward 7 unknown #
coedge $-1 $68 $114 $124 $129 reversed $95 $-1 #
loop $-1 $-1 $84 $130 #
vertex $-1 $93 $131 #
straight-curve $-1 -0.52144660940672616 6 1.5088834764831847 1 0 0 I I #
coedge $-1 $70 $132 $133 $134 reversed $20 $-1 #
coedge $-1 $135 $136 $70 $100 reversed $107 $-1 #
edge $-1 $137 0 $102 0.78539816339744961 $70 $138 forward 7 unknown #
coedge $-1 $116 $71 $136 $139 forward $79 $-1 #
vertex $-1 $72 $140 #
straight-curve $-1 0.69822330470336313 6 1.4356601717798214 0.70710678118654735 0 -0.70710678118654757 I I #
point $-1 0.69822330470336302 6 1.4356601717798214 #
point $-1 0.52144660940672616 6 1.5088834764831847 #
face $-1 $141 $142 $3 $-1 $143 forward single #
loop $-1 $-1 $144 $78 #
cone-surface $-1 1.2588834764831842 6 0.52144660940672649 0 -1 0 0.25 0 0 1 I I 0 1 0.25 forward I I I I #
coedge $-1 $145 $81 $116 $146 forward $61 $-1 #
coedge $-1 $81 $145 $147 $148 reversed $61 $-1 #
edge $-1 $149 0 $88 1.5707963267948966 $82 $150 forward 7 unknown #
coedge $-1 $151 $152 $83 $113 forward $153 $-1 #
edge $-1 $89 0 $149 1.5707963267948966 $83 $154 forward 7 unknown #
coedge $-1 $94 $84 $152 $119 reversed $95 $-1 #
straight-curve $-1 0.52144660940672605 6 1.5088834764831847 0 1 0 I I #
coedge $-1 $86 $101 $109 $146 reversed $79 $-1 #
straight-curve $-1 0.69822330470336302 6 1.4356601717798216 0 1 0 I I #
point $-1 0.69822330470336336 7.25 1.4356601717798214 #
edge $-1 $155 0 $89 1.0428932188134525 $114 $156 forward 7 unknown #
point $-1 0.52144660940672649 7.25 1.5088834764831847 #
coedge $-1 $157 $91 $158 $159 forward $20 $-1 #
coedge $-1 $160 $161 $91 $123 forward $162 $-1 #
edge $-1 $163 -7.8504622934188771e-017 $127 1.0428932188134525 $91 $164 forward 7 unknown #
coedge $-1 $165 $92 $94 $129 forward $126 $-1 #
coedge $-1 $92 $165 $160 $166 reversed $126 $-1 #
loop $-1 $-1 $165 $167 #
vertex $-1 $123 $168 #
ellipse-curve $-1 -0.5214466094067266 6 1.2588834764831853 0 -1 0 4.4408920985006262e-016 0 0.24999999999999933 1 I I #
edge $-1 $96 0 $155 1.25 $94 $169 forward 7 unknown #
face $-1 $170 $95 $3 $-1 $171 forward single #
point $-1 -0.52144660940672616 6 1.5088834764831847 #
coedge $-1 $98 $172 $173 $174 forward $20 $-1 #
coedge $-1 $175 $176 $98 $134 forward $177 $-1 #
edge $-1 $137 0 $178 1.042893218813453 $98 $179 forward 7 unknown #
coedge $-1 $144 $99 $176 $180 forward $107 $-1 #
coedge $-1 $99 $144 $101 $139 reversed $107 $-1 #
vertex $-1 $100 $181 #
ellipse-curve $-1 1.2588834764831847 6 0.52144660940672671 0 -1 0 0.24999999999999956 0 -2.2204460492503131e-016 1 I I #
edge $-1 $102 0 $182 1.25 $101 $183 forward 7 unknown #
point $-1 1.4356601717798212 6 0.69822330470336336 #
face $-1 $184 $185 $3 $-1 $186 forward single #
loop $-1 $-1 $187 $106 #
sphere-surface $-1 1.2588834764831842 7.25 0.52144660940672649 0.25 1 0 0 0 0 1 forward_v I I I I #
coedge $-1 $136 $135 $187 $188 forward $107 $-1 #
coedge $-1 $110 $109 $189 $190 forward $61 $-1 #
edge $-1 $88 7.8504622934188734e-017 $182 1.0428932188134521 $116 $191 forward 7 unknown #
coedge $-1 $192 $193 $110 $148 forward $194 $-1 #
edge $-1 $149 0 $195 1.0428932188134528 $147 $196 forward 7 unknown #
vertex $-1 $148 $197 #
ellipse-curve $-1 0.52144660940672627 7.25 1.2588834764831847 0.70710678118654735 0 -0.70710678118654779 0 0.25 0 1 I I #
coedge $-1 $198 $112 $193 $199 reversed $153 $-1 #
coedge $-1 $112 $198 $114 $119 forward $153 $-1 #
loop $-1 $-1 $198 $200 #
ellipse-curve $-1 0.52144660940672627 7.25 1.2588834764831847 -1 0 4.4408920985006262e-016 1.1102230246251565e-016 0 0.25 1 I I #
vertex $-1 $201 $202 #
straight-curve $-1 -0.52144660940672616 7.25 1.5088834764831847 1 0 0 I I #
coedge $-1 $203 $121 $204 $205 reversed $20 $-1 #
coedge $-1 $206 $207 $121 $159 reversed $208 $-1 #
edge $-1 $163 2.7755575615628983e-016 $209 0.78539816339744795 $121 $210 forward 7 unknown #
coedge $-1 $211 $122 $125 $166 forward $162 $-1 #
coedge $-1 $122 $211 $206 $212 reversed $162 $-1 #
loop $-1 $-1 $160 $213 #
vertex $-1 $159 $214 #
straight-curve $-1 -1.4356601717798212 6 0.69822330470336302 0.70710678118654735 0 0.70710678118654768 I I #
coedge $-1 $125 $124 $215 $216 forward $126 $-1 #
edge $-1 $127 6.9025329206838529e-032 $217 1.25 $160 $218 forward 7 unknown #
face $-1 $219 $126 $3 $-1 $220 forward single #
point $-1 -0.69822330470336302 6 1.4356601717798214 #
straight-curve $-1 -0.52144660940672616 6 1.5088834764831847 0 1 0 I I #
face $-1 $221 $194 $3 $-1 $222 forward single #
plane-surface $-1 -0.625 6 1.5088834764831847 0 0 1 1 0 0 forward_v I I I I #
coedge $-1 $132 $223 $224 $225 reversed $20 $-1 #
coedge $-1 $226 $227 $132 $174 reversed $228 $-1 #
edge $-1 $229 2.7755575615628983e-016 $178 0.78539816339744795 $132 $230 forward 7 unknown #
coedge $-1 $231 $133 $227 $232 forward $177 $-1 #
coedge $-1 $133 $231 $135 $180 reversed $177 $-1 #
loop $-1 $-1 $175 $184 #
vertex $-1 $134 $233 #
straight-curve $-1 1.5088834764831842 6 0.52144660940672649 0 0 -1 I I #
edge $-1 $137 0 $234 1.25 $176 $235 forward 7 unknown #
point $-1 1.5088834764831842 6 0.52144660940672649 #
vertex $-1 $146 $236 #
straight-curve $-1 1.435660171779821 6 0.69822330470336336 0 1 -1.7763568394002506e-016 I I #
face $-1 $237 $177 $3 $-1 $238 forward single #
loop $-1 $-1 $239 $141 #
cone-surface $-1 1.2588834764831842 7.25 0.625 0 0 -1 0 0.25 0 1 I I 0 1 0.25 forward I I I I #
coedge $-1 $240 $189 $144 $188 reversed $142 $-1 #
edge $-1 $234 0 $182 0.78539816339744828 $187 $241 forward 7 unknown #
coedge $-1 $187 $240 $145 $190 reversed $142 $-1 #
edge $-1 $182 0 $195 1.570796326794897 $189 $242 forward 7 unknown #
straight-curve $-1 0.69822330470336325 7.25 1.4356601717798214 0.70710678118654735 0 -0.70710678118654768 I I #
coedge $-1 $243 $147 $244 $245 forward $194 $-1 #
coedge $-1 $147 $246 $151 $199 forward $194 $-1 #
loop $-1 $247 $192 $170 #
vertex $-1 $148 $248 #
straight-curve $-1 0.52144660940672627 7.5 1.2588834764831847 0.70710678118654735 0 -0.70710678118654768 I I #
point $-1 0.52144660940672627 7.5 1.2588834764831847 #
coedge $-1 $152 $151 $249 $201 forward $153 $-1 #
edge $-1 $250 0 $149 1.0428932188134525 $193 $251 forward 7 unknown #
face $-1 $130 $153 $3 $-1 $252 forward single #
edge $-1 $250 0 $155 1.5707963267948966 $249 $253 forward 7 unknown #
point $-1 -0.52144660940672616 7.25 1.5088834764831847 #
coedge $-1 $254 $157 $255 $256 forward $20 $-1 #
coedge $-1 $257 $258 $157 $205 forward $259 $-1 #
edge $-1 $260 0 $209 1.042893218813453 $157 $261 forward 7 unknown #
coedge $-1 $262 $158 $161 $212 forward $208 $-1 #
coedge $-1 $158 $262 $257 $263 reversed $208 $-1 #
loop $-1 $-1 $262 $264 #
vertex $-1 $205 $265 #
ellipse-curve $-1 -1.2588834764831844 6 0.52144660940672638 0 -1 0 -0.17677669529663675 0 0.17677669529663664 1 I I #
coedge $-1 $161 $160 $266 $267 reversed $162 $-1 #
edge $-1 $163 0 $268 1.25 $161 $269 forward 7 unknown #
face $-1 $167 $162 $3 $-1 $270 forward single #
point $-1 -1.4356601717798212 6 0.69822330470336291 #
coedge $-1 $249 $271 $165 $216 reversed $272 $-1 #
edge $-1 $155 0 $217 0.78539816339744706 $215 $273 forward 7 unknown #
vertex $-1 $267 $274 #
straight-curve $-1 -0.69822330470336291 6 1.4356601717798216 -2.6645352591003756e-016 1 -1.7763568394002506e-016 I I #
face $-1 $200 $272 $3 $-1 $275 forward single #
cone-surface $-1 -0.52144660940672616 6 1.2588834764831847 0 -1 0 0 0 0.25 1 I I 0 1 0.25 forward I I I I #
face $-1 $276 $277 $3 $-1 $278 reversed single #
plane-surface $-1 0 7.5 0 0 1 0 -1 0 0 forward_v I I I I #
coedge $-1 $172 $279 $280 $281 forward $20 $-1 #
coedge $-1 $282 $283 $172 $225 forward $284 $-1 #
edge $-1 $229 -7.8504622934188771e-017 $285 1.0428932188134525 $172 $286 forward 7 unknown #
coedge $-1 $287 $173 $283 $288 forward $228 $-1 #
coedge $-1 $173 $287 $175 $232 reversed $228 $-1 #
loop $-1 $-1 $287 $237 #
vertex $-1 $174 $289 #
ellipse-curve $-1 1.2588834764831844 6 -0.52144660940672638 0 -1 0 0.17677669529663675 0 -0.17677669529663664 1 I I #
coedge $-1 $176 $175 $290 $291 reversed $177 $-1 #
edge $-1 $178 -1.9721522630525296e-032 $292 1.25 $175 $293 forward 7 unknown #
point $-1 1.5088834764831842 6 -0.52144660940672638 #
vertex $-1 $294 $295 #
straight-curve $-1 1.5088834764831842 6 0.52144660940672649 0 1 0 I I #
point $-1 1.435660171779821 7.25 0.69822330470336325 #
face $-1 $296 $228 $3 $-1 $297 forward single #
plane-surface $-1 1.5088834764831842 6 0.625 1 0 0 0 0 -1 forward_v I I I I #
coedge $-1 $290 $244 $240 $294 forward $185 $-1 #
coedge $-1 $189 $187 $239 $294 reversed $142 $-1 #
ellipse-curve $-1 1.2588834764831842 7.25 0.52144660940672649 0 -1 0 0.25 0 0 1 I I #
ellipse-curve $-1 1.2588834764831842 7.25 0.52144660940672649 -0.70710678118654802 0 0.70710678118654713 0.17677669529663675 0 0.17677669529663698 1 I I #
coedge $-1 $298 $192 $299 $300 forward $194 $-1 #
coedge $-1 $239 $301 $192 $245 reversed $185 $-1 #
edge $-1 $195 3.3306690738754696e-016 $302 1.0428932188134525 $192 $303 forward 7 unknown #
coedge $-1 $193 $304 $305 $306 forward $194 $-1 #
loop $-1 $-1 $307 $170 #
point $-1 1.2588834764831844 7.5 0.52144660940672616 #
coedge $-1 $271 $215 $198 $201 reversed $272 $-1 #
vertex $-1 $199 $308 #
straight-curve $-1 -0.52144660940672616 7.5 1.2588834764831847 1 0 0 I I #
cone-surface $-1 -0.625 7.25 1.2588834764831847 1 0 0 0 0.25 0 1 I I 0 1 0.25 forward I I I I #
ellipse-curve $-1 -0.52144660940672616 7.25 1.2588834764831847 1 0 0 0 0.25 0 1 I I #
coedge $-1 $309 $203 $310 $311 reversed $20 $-1 #
coedge $-1 $312 $313 $203 $256 reversed $314 $-1 #
edge $-1 $260 0 $315 0.78539816339744961 $203 $316 forward 7 unknown #
coedge $-1 $317 $204 $207 $263 forward $259 $-1 #
coedge $-1 $204 $317 $312 $318 reversed $259 $-1 #
loop $-1 $-1 $257 $319 #
vertex $-1 $256 $320 #
straight-curve $-1 -1.5088834764831842 6 -0.52144660940672649 0 0 1 I I #
coedge $-1 $207 $206 $321 $322 forward $208 $-1 #
edge $-1 $209 -1.9721522630525296e-032 $323 1.25 $257 $324 forward 7 unknown #
face $-1 $325 $208 $3 $-1 $326 forward single #
point $-1 -1.5088834764831842 6 0.52144660940672638 #
coedge $-1 $327 $328 $211 $267 forward $329 $-1 #
edge $-1 $268 0 $217 1.0428932188134532 $211 $330 forward 7 unknown #
vertex $-1 $331 $332 #
straight-curve $-1 -1.4356601717798212 6 0.69822330470336302 0 1 0 I I #
plane-surface $-1 -1.5088834764831842 6 0.625 -0.70710678118654768 0 0.70710678118654735 0.70710678118654735 0 0.70710678118654768 forward_v I I I I #
coedge $-1 $215 $249 $327 $333 reversed $272 $-1 #
loop $-1 $-1 $215 $219 #
ellipse-curve $-1 -0.52144660940672616 7.25 1.2588834764831847 0 -1 0 0 0 0.25 1 I I #
point $-1 -0.69822330470336291 7.25 1.4356601717798219 #
sphere-surface $-1 -0.52144660940672616 7.25 1.2588834764831847 0.25 1 0 0 0 0 1 forward_v I I I I #
face $-1 $334 $335 $3 $-1 $336 reversed single #
loop $-1 $-1 $337 $221 #
plane-surface $-1 -0.31433982822017875 7.5 0.75888347648318466 0 0 1 1 0 0 forward_v I I I I #
coedge $-1 $223 $309 $338 $339 reversed $20 $-1 #
coedge $-1 $340 $341 $223 $281 reversed $342 $-1 #
edge $-1 $343 0 $285 0.78539816339745228 $223 $344 forward 7 unknown #
coedge $-1 $345 $224 $341 $346 forward $284 $-1 #
coedge $-1 $224 $345 $226 $288 reversed $284 $-1 #
loop $-1 $-1 $282 $347 #
vertex $-1 $225 $348 #
straight-curve $-1 1.4356601717798212 6 -0.69822330470336302 -0.70710678118654735 0 -0.70710678118654768 I I #
coedge $-1 $227 $226 $349 $350 forward $228 $-1 #
edge $-1 $229 0 $351 1.25 $283 $352 forward 7 unknown #
point $-1 1.4356601717798212 6 -0.69822330470336291 #
coedge $-1 $301 $239 $231 $291 forward $185 $-1 #
edge $-1 $234 0 $292 1.0428932188134525 $231 $353 forward 7 unknown #
vertex $-1 $291 $354 #
straight-curve $-1 1.5088834764831842 6 -0.52144660940672627 0 1 1.7763568394002506e-016 I I #
edge $-1 $195 8.8817841970012523e-016 $234 1.5707963267948966 $240 $355 forward 7 unknown #
point $-1 1.5088834764831842 7.25 0.52144660940672649 #
face $-1 $356 $357 $3 $-1 $358 forward single #
cone-surface $-1 1.2588834764831842 6 -0.52144660940672616 0 -1 0 0.17677669529663695 0 -0.17677669529663684 1 I I 0 1 0.25 forward I I I I #
coedge $-1 $359 $243 $360 $361 forward $194 $-1 #
coedge $-1 $362 $363 $243 $300 reversed $364 $-1 #
edge $-1 $302 0 $365 1.042893218813453 $243 $366 forward 7 unknown #
coedge $-1 $244 $290 $367 $368 forward $185 $-1 #
vertex $-1 $300 $369 #
straight-curve $-1 1.2588834764831842 7.5 0.52144660940672649 0 0 -1 I I #
coedge $-1 $246 $359 $370 $371 forward $194 $-1 #
coedge $-1 $328 $327 $246 $306 reversed $329 $-1 #
edge $-1 $372 0 $250 1.042893218813453 $246 $373 forward 7 unknown #
coedge $-1 $374 $375 $376 $377 reversed $247 $-1 #
point $-1 -0.52144660940672616 7.5 1.2588834764831847 #
coedge $-1 $279 $254 $378 $379 forward $20 $-1 #
coedge $-1 $380 $381 $254 $311 forward $382 $-1 #
edge $-1 $383 -7.8504622934188758e-017 $315 1.0428932188134528 $254 $384 forward 7 unknown #
coedge $-1 $385 $255 $258 $318 forward $314 $-1 #
coedge $-1 $255 $385 $380 $386 reversed $314 $-1 #
loop $-1 $-1 $385 $387 #
vertex $-1 $311 $388 #
ellipse-curve $-1 -1.2588834764831847 6 -0.52144660940672671 0 -1 0 -0.24999999999999956 0 2.2204460492503131e-016 1 I I #
coedge $-1 $258 $257 $389 $390 reversed $259 $-1 #
edge $-1 $260 0 $391 1.25 $258 $392 forward 7 unknown #
face $-1 $264 $259 $3 $-1 $393 forward single #
point $-1 -1.5088834764831842 6 -0.52144660940672649 #
coedge $-1 $394 $395 $262 $322 reversed $396 $-1 #
edge $-1 $268 -3.3306690738754686e-016 $323 0.78539816339744817 $321 $397 forward 7 unknown #
vertex $-1 $390 $398 #
straight-curve $-1 -1.5088834764831842 6 0.52144660940672627 0 1 -1.7763568394002506e-016 I I #
face $-1 $399 $396 $3 $-1 $400 forward single #
cone-surface $-1 -1.2588834764831842 6 0.52144660940672616 0 -1 0 -0.17677669529663695 0 0.17677669529663684 1 I I 0 1 0.25 forward I I I I #
coedge $-1 $305 $266 $271 $333 forward $329 $-1 #
coedge $-1 $266 $305 $394 $331 forward $329 $-1 #
loop $-1 $-1 $328 $399 #
straight-curve $-1 -1.4356601717798212 7.25 0.69822330470336302 0.70710678118654724 0 0.70710678118654768 I I #
edge $-1 $372 0 $268 1.5707963267948966 $394 $401 forward 7 unknown #
point $-1 -1.4356601717798212 7.25 0.69822330470336302 #
edge $-1 $217 0 $250 1.5707963267948966 $271 $402 forward 7 unknown #
face $-1 $403 $404 $3 $-1 $405 reversed single #
loop $-1 $-1 $406 $276 #
plane-surface $-1 0.3143398282201787 7.5 0.75888347648318466 0.70710678118654779 0 0.70710678118654735 0.70710678118654724 0 -0.70710678118654768 forward_v I I I I #
coedge $-1 $407 $376 $408 $409 forward $277 $-1 #
coedge $-1 $410 $411 $279 $339 forward $412 $-1 #
edge $-1 $343 0 $413 1.0428932188134523 $279 $414 forward 7 unknown #
coedge $-1 $415 $280 $411 $416 forward $342 $-1 #
coedge $-1 $280 $415 $282 $346 reversed $342 $-1 #
loop $-1 $-1 $415 $417 #
vertex $-1 $281 $418 #
ellipse-curve $-1 0.5214466094067266 6 -1.2588834764831858 0 -1 0 -4.4408920985006262e-016 0 -0.24999999999999889 1 I I #
coedge $-1 $283 $282 $419 $420 reversed $284 $-1 #
edge $-1 $285 5.9164567891575894e-032 $421 1.25 $282 $422 forward 7 unknown #
face $-1 $417 $284 $3 $-1 $423 forward single #
point $-1 0.69822330470336302 6 -1.4356601717798214 #
coedge $-1 $424 $367 $287 $350 reversed $357 $-1 #
edge $-1 $351 -3.3306690738754686e-016 $292 0.78539816339744817 $349 $425 forward 7 unknown #
vertex $-1 $426 $427 #
straight-curve $-1 1.4356601717798212 6 -0.69822330470336302 0 1 0 I I #
straight-curve $-1 1.5088834764831842 7.25 0.52144660940672649 0 0 -1 I I #
point $-1 1.5088834764831842 7.25 -0.52144660940672605 #
ellipse-curve $-1 1.2588834764831842 7.25 0.52144660940672649 0 0 -1 0 0.25 0 1 I I #
face $-1 $347 $364 $3 $-1 $428 forward single #
loop $-1 $-1 $349 $296 #
sphere-surface $-1 1.2588834764831842 7.25 -0.52144660940672616 0.25 1 0 0 0 0 1 forward_v I I I I #
coedge $-1 $304 $298 $429 $430 forward $194 $-1 #
coedge $-1 $431 $432 $298 $361 reversed $433 $-1 #
edge $-1 $365 0 $434 1.0428932188134525 $298 $435 forward 7 unknown #
coedge $-1 $419 $299 $424 $426 forward $364 $-1 #
coedge $-1 $299 $419 $436 $437 forward $364 $-1 #
loop $-1 $-1 $362 $356 #
vertex $-1 $361 $438 #
straight-curve $-1 1.2588834764831842 7.5 -0.52144660940672616 -0.70710678118654724 0 -0.70710678118654768 I I #
coedge $-1 $349 $424 $301 $368 reversed $357 $-1 #
edge $-1 $292 0 $302 1.5707963267948966 $367 $439 forward 7 unknown #
point $-1 1.2588834764831842 7.5 -0.52144660940672616 #
coedge $-1 $440 $441 $304 $371 reversed $442 $-1 #
edge $-1 $443 0 $372 1.0428932188134525 $304 $444 forward 7 unknown #
vertex $-1 $306 $445 #
straight-curve $-1 -1.2588834764831842 7.5 0.52144660940672616 0.70710678118654724 0 0.70710678118654768 I I #
coedge $-1 $446 $307 $447 $448 reversed $247 $-1 #
coedge $-1 $307 $449 $450 $451 reversed $247 $-1 #
coedge $-1 $337 $452 $307 $377 forward $277 $-1 #
edge $-1 $453 0 $454 0.62867965644035739 $307 $455 forward 7 unknown #
coedge $-1 $456 $457 $309 $379 reversed $458 $-1 #
edge $-1 $383 -6.1062266354383896e-016 $413 0.78539816339744961 $309 $459 forward 7 unknown #
coedge $-1 $460 $310 $313 $386 forward $382 $-1 #
coedge $-1 $310 $460 $456 $461 reversed $382 $-1 #
loop $-1 $-1 $380 $462 #
vertex $-1 $379 $463 #
straight-curve $-1 -0.69822330470336313 6 -1.4356601717798214 -0.70710678118654735 0 0.70710678118654757 I I #
coedge $-1 $313 $312 $464 $465 forward $314 $-1 #
edge $-1 $315 0 $466 1.25 $380 $467 forward 7 unknown #
face $-1 $468 $314 $3 $-1 $469 forward single #
point $-1 -1.4356601717798212 6 -0.69822330470336336 #
coedge $-1 $441 $440 $317 $390 forward $442 $-1 #
edge $-1 $391 0 $323 1.0428932188134525 $317 $470 forward 7 unknown #
vertex $-1 $471 $472 #
straight-curve $-1 -1.5088834764831842 6 -0.52144660940672649 0 1 0 I I #
plane-surface $-1 -1.5088834764831842 6 -0.625 -1 0 0 0 0 1 forward_v I I I I #
coedge $-1 $395 $321 $328 $331 reversed $396 $-1 #
coedge $-1 $321 $394 $441 $473 reversed $396 $-1 #
loop $-1 $-1 $321 $325 #
ellipse-curve $-1 -1.2588834764831842 7.25 0.52144660940672616 0 -1 0 -0.17677669529663698 0 0.17677669529663675 1 I I #
point $-1 -1.5088834764831842 7.25 0.52144660940672605 #
face $-1 $213 $329 $3 $-1 $474 forward single #
sphere-surface $-1 -1.2588834764831842 7.25 0.52144660940672616 0.25 1 0 0 0 0 1 forward_v I I I I #
ellipse-curve $-1 -1.2588834764831842 7.25 0.52144660940672616 0.70710678118654735 0 0.70710678118654779 0 0.25 0 1 I I #
ellipse-curve $-1 -0.52144660940672616 7.25 1.2588834764831847 -0.70710678118654713 0 -0.70710678118654802 -0.17677669529663698 0 0.17677669529663675 1 I I #
face $-1 $475 $476 $3 $-1 $477 reversed single #
loop $-1 $-1 $478 $334 #
plane-surface $-1 0.75888347648318422 7.5 0.31433982822017892 1 0 0 0 0 -1 forward_v I I I I #
coedge $-1 $479 $450 $480 $481 forward $335 $-1 #
coedge $-1 $452 $337 $482 $483 reversed $277 $-1 #
coedge $-1 $450 $479 $337 $409 reversed $335 $-1 #
edge $-1 $454 0 $484 1.25 $408 $485 forward 7 unknown #
coedge $-1 $486 $338 $457 $487 forward $412 $-1 #
coedge $-1 $338 $486 $340 $416 reversed $412 $-1 #
loop $-1 $-1 $410 $488 #
vertex $-1 $339 $489 #
straight-curve $-1 0.52144660940672616 6 -1.5088834764831847 -1 0 0 I I #
coedge $-1 $341 $340 $490 $491 forward $342 $-1 #
edge $-1 $343 0 $492 1.25 $411 $493 forward 7 unknown #
face $-1 $494 $342 $3 $-1 $495 forward single #
point $-1 0.52144660940672616 6 -1.5088834764831847 #
coedge $-1 $363 $362 $345 $420 forward $364 $-1 #
edge $-1 $351 0 $421 1.0428932188134532 $345 $496 forward 7 unknown #
vertex $-1 $420 $497 #
straight-curve $-1 0.69822330470336291 6 -1.4356601717798216 1.7763568394002506e-016 1 1.7763568394002506e-016 I I #
plane-surface $-1 1.5088834764831842 6 -0.625 0.70710678118654768 0 -0.70710678118654735 -0.70710678118654735 0 -0.70710678118654768 forward_v I I I I #
coedge $-1 $367 $349 $362 $426 reversed $357 $-1 #
ellipse-curve $-1 1.2588834764831842 7.25 -0.52144660940672616 0 -1 0 0.17677669529663698 0 -0.17677669529663675 1 I I #
edge $-1 $302 0 $351 1.5707963267948966 $424 $498 forward 7 unknown #
point $-1 1.4356601717798212 7.25 -0.69822330470336302 #
cone-surface $-1 1.3321067811865472 7.25 -0.44822330470336313 -0.70710678118654735 0 -0.70710678118654779 0 0.25 0 1 I I 0 1 0.25 forward I I I I #
coedge $-1 $499 $500 $359 $430 reversed $501 $-1 #
edge $-1 $434 0 $443 1.0428932188134523 $359 $502 forward 7 unknown #
coedge $-1 $503 $360 $504 $505 forward $433 $-1 #
coedge $-1 $360 $503 $506 $507 forward $433 $-1 #
loop $-1 $-1 $431 $508 #
vertex $-1 $430 $509 #
straight-curve $-1 0.52144660940672616 7.5 -1.2588834764831847 -1 0 0 I I #
coedge $-1 $490 $504 $363 $437 reversed $510 $-1 #
edge $-1 $421 0 $365 1.5707963267948966 $436 $511 forward 7 unknown #
point $-1 0.52144660940672616 7.5 -1.2588834764831847 #
ellipse-curve $-1 1.2588834764831842 7.25 -0.52144660940672616 -4.4408920985006262e-016 0 1 0.25 0 1.1102230246251565e-016 1 I I #
coedge $-1 $389 $370 $512 $471 forward $442 $-1 #
coedge $-1 $370 $389 $395 $473 forward $442 $-1 #
loop $-1 $-1 $440 $513 #
vertex $-1 $371 $514 #
straight-curve $-1 -1.2588834764831842 7.5 -0.52144660940672649 0 0 1 I I #
point $-1 -1.2588834764831842 7.5 0.52144660940672616 #
coedge $-1 $515 $374 $516 $517 reversed $247 $-1 #
coedge $-1 $518 $519 $374 $448 forward $520 $-1 #
edge $-1 $521 0 $453 0.62867965644035739 $374 $522 forward 7 unknown #
coedge $-1 $375 $523 $524 $525 reversed $247 $-1 #
coedge $-1 $406 $408 $375 $451 forward $335 $-1 #
edge $-1 $454 -3.9252311467094373e-017 $526 0.6286796564403575 $375 $527 forward 7 unknown #
coedge $-1 $376 $407 $518 $528 reversed $277 $-1 #
vertex $-1 $448 $529 #
vertex $-1 $451 $530 #
straight-curve $-1 -0.31433982822017881 7.5 0.75888347648318466 1 0 0 I I #
coedge $-1 $531 $378 $381 $461 forward $458 $-1 #
coedge $-1 $378 $531 $410 $487 reversed $458 $-1 #
loop $-1 $-1 $531 $532 #
ellipse-curve $-1 -0.52144660940672649 6 -1.2588834764831851 0 -1 0 -0.17677669529663653 0 -0.17677669529663653 1 I I #
coedge $-1 $381 $380 $533 $534 reversed $382 $-1 #
edge $-1 $383 0 $535 1.25 $381 $536 forward 7 unknown #
face $-1 $387 $382 $3 $-1 $537 forward single #
point $-1 -0.69822330470336302 6 -1.4356601717798214 #
coedge $-1 $512 $538 $385 $465 reversed $539 $-1 #
edge $-1 $391 0 $466 0.78539816339744828 $464 $540 forward 7 unknown #
vertex $-1 $534 $541 #
straight-curve $-1 -1.435660171779821 6 -0.69822330470336336 0 1 1.7763568394002506e-016 I I #
face $-1 $513 $539 $3 $-1 $542 forward single #
cone-surface $-1 -1.2588834764831842 6 -0.52144660940672649 0 -1 0 -0.25 0 0 1 I I 0 1 0.25 forward I I I I #
straight-curve $-1 -1.5088834764831842 7.25 -0.52144660940672649 0 0 1 I I #
edge $-1 $443 0 $391 1.5707963267948966 $512 $543 forward 7 unknown #
point $-1 -1.5088834764831842 7.25 -0.52144660940672649 #
edge $-1 $323 0 $372 1.5707963267948966 $395 $544 forward 7 unknown #
cone-surface $-1 -1.3321067811865472 7.25 0.44822330470336313 0.70710678118654735 0 0.70710678118654779 0 0.25 0 1 I I 0 1 0.25 forward I I I I #
face $-1 $545 $546 $3 $-1 $547 reversed single #
loop $-1 $-1 $548 $403 #
plane-surface $-1 0.75888347648318422 7.5 -0.31433982822017892 0.70710678118654779 0 -0.70710678118654735 -0.70710678118654724 0 -0.70710678118654768 forward_v I I I I #
coedge $-1 $549 $524 $550 $551 forward $404 $-1 #
coedge $-1 $408 $406 $552 $553 reversed $335 $-1 #
coedge $-1 $524 $549 $406 $481 reversed $404 $-1 #
edge $-1 $526 0 $554 1.25 $406 $555 forward 7 unknown #
coedge $-1 $552 $556 $407 $483 forward $557 $-1 #
edge $-1 $558 0 $484 0.62867965644035739 $482 $559 forward 7 unknown #
vertex $-1 $553 $560 #
straight-curve $-1 0.31433982822017864 7.5 0.75888347648318466 0 -1 0 I I #
coedge $-1 $411 $410 $503 $561 reversed $412 $-1 #
edge $-1 $413 0 $562 1.25 $410 $563 forward 7 unknown #
face $-1 $532 $412 $3 $-1 $564 forward single #
point $-1 -0.52144660940672616 6 -1.5088834764831847 #
coedge $-1 $504 $436 $415 $491 reversed $510 $-1 #
edge $-1 $492 0 $421 0.78539816339744706 $490 $565 forward 7 unknown #
vertex $-1 $505 $566 #
straight-curve $-1 0.52144660940672616 6 -1.5088834764831847 0 1 0 I I #
face $-1 $508 $510 $3 $-1 $567 forward single #
cone-surface $-1 0.52144660940672616 6 -1.2588834764831847 0 -1 0 0 0 -0.25 1 I I 0 1 0.25 forward I I I I #
straight-curve $-1 1.4356601717798212 7.25 -0.69822330470336302 -0.70710678118654724 0 -0.70710678118654768 I I #
point $-1 0.69822330470336291 7.25 -1.4356601717798219 #
ellipse-curve $-1 1.2588834764831842 7.25 -0.52144660940672616 -0.70710678118654735 0 -0.70710678118654779 0 0.25 0 1 I I #
coedge $-1 $533 $429 $568 $569 forward $501 $-1 #
coedge $-1 $429 $533 $538 $570 forward $501 $-1 #
loop $-1 $-1 $499 $571 #
straight-curve $-1 -0.52144660940672627 7.5 -1.2588834764831847 -0.70710678118654735 0 0.70710678118654768 I I #
coedge $-1 $432 $431 $486 $561 forward $433 $-1 #
coedge $-1 $436 $490 $431 $505 reversed $510 $-1 #
edge $-1 $365 0 $492 1.5707963267948966 $504 $572 forward 7 unknown #
coedge $-1 $573 $568 $432 $507 reversed $574 $-1 #
edge $-1 $562 0 $434 1.5707963267948966 $506 $575 forward 7 unknown #
face $-1 $488 $433 $3 $-1 $576 forward single #
point $-1 -0.52144660940672627 7.5 -1.2588834764831847 #
loop $-1 $-1 $490 $494 #
ellipse-curve $-1 0.52144660940672616 7.25 -1.2588834764831847 0.70710678118654713 0 0.70710678118654802 0.17677669529663698 0 -0.17677669529663675 1 I I #
coedge $-1 $538 $464 $440 $471 reversed $539 $-1 #
face $-1 $319 $442 $3 $-1 $577 forward single #
point $-1 -1.2588834764831842 7.5 -0.52144660940672649 #
coedge $-1 $578 $446 $579 $580 reversed $247 $-1 #
coedge $-1 $581 $582 $446 $517 forward $583 $-1 #
edge $-1 $584 0 $521 0.62867965644035784 $446 $585 forward 7 unknown #
coedge $-1 $586 $447 $452 $528 forward $520 $-1 #
coedge $-1 $447 $586 $581 $587 reversed $520 $-1 #
loop $-1 $-1 $518 $588 #
vertex $-1 $517 $589 #
straight-curve $-1 -0.75888347648318422 7.5 0.31433982822017886 0.70710678118654724 0 0.70710678118654791 I I #
coedge $-1 $449 $578 $590 $591 reversed $247 $-1 #
coedge $-1 $478 $480 $449 $525 forward $404 $-1 #
edge $-1 $526 0 $592 0.62867965644035784 $449 $593 forward 7 unknown #
vertex $-1 $451 $594 #
straight-curve $-1 0.3143398282201787 7.5 0.75888347648318466 0.70710678118654724 0 -0.70710678118654768 I I #
edge $-1 $453 0 $558 1.25 $518 $595 forward 7 unknown #
point $-1 -0.31433982822017881 7.5 0.75888347648318466 #
point $-1 0.31433982822017864 7.5 0.75888347648318466 #
coedge $-1 $457 $456 $573 $596 forward $458 $-1 #
face $-1 $597 $458 $3 $-1 $598 forward single #
coedge $-1 $500 $499 $460 $534 forward $501 $-1 #
edge $-1 $535 7.8504622934188734e-017 $466 1.0428932188134521 $460 $599 forward 7 unknown #
vertex $-1 $569 $600 #
straight-curve $-1 -0.69822330470336302 6 -1.4356601717798216 0 1 0 I I #
plane-surface $-1 -0.625 6 -1.5088834764831847 -0.70710678118654768 0 -0.70710678118654735 -0.70710678118654735 0 0.70710678118654768 forward_v I I I I #
coedge $-1 $464 $512 $500 $570 reversed $539 $-1 #
loop $-1 $-1 $464 $468 #
ellipse-curve $-1 -1.2588834764831842 7.25 -0.52144660940672649 0 -1 0 -0.25 0 0 1 I I #
point $-1 -1.435660171779821 7.25 -0.69822330470336325 #
sphere-surface $-1 -1.2588834764831842 7.25 -0.52144660940672649 0.25 1 0 0 0 0 1 forward_v I I I I #
ellipse-curve $-1 -1.2588834764831842 7.25 -0.52144660940672649 0 0 1 0 0.25 0 1 I I #
ellipse-curve $-1 -1.2588834764831842 7.25 0.52144660940672616 4.4408920985006262e-016 0 -1 -0.25 0 -1.1102230246251565e-016 1 I I #
face $-1 $601 $602 $3 $-1 $603 reversed single #
loop $-1 $-1 $604 $475 #
plane-surface $-1 0.31433982822017875 7.5 -0.75888347648318466 0 0 -1 -1 0 0 forward_v I I I I #
coedge $-1 $605 $590 $606 $607 forward $476 $-1 #
coedge $-1 $480 $478 $608 $609 reversed $404 $-1 #
coedge $-1 $590 $605 $478 $551 reversed $476 $-1 #
edge $-1 $592 0 $610 1.25 $478 $611 forward 7 unknown #
coedge $-1 $608 $482 $479 $553 forward $557 $-1 #
edge $-1 $484 0 $554 0.6286796564403575 $552 $612 forward 7 unknown #
vertex $-1 $553 $613 #
straight-curve $-1 0.75888347648318422 7.5 0.31433982822017892 0 -1 0 I I #
coedge $-1 $482 $614 $586 $615 forward $557 $-1 #
loop $-1 $-1 $608 $616 #
vertex $-1 $483 $617 #
straight-curve $-1 -0.3143398282201787 6.25 0.75888347648318466 1 0 0 I I #
point $-1 0.3143398282201787 6.25 0.75888347648318466 #
edge $-1 $492 0 $562 1.0428932188134525 $486 $618 forward 7 unknown #
vertex $-1 $561 $619 #
straight-curve $-1 -0.52144660940672605 6 -1.5088834764831847 0 1 0 I I #
plane-surface $-1 0.625 6 -1.5088834764831847 0 0 -1 -1 0 0 forward_v I I I I #
ellipse-curve $-1 0.52144660940672616 7.25 -1.2588834764831847 0 -1 0 0 0 -0.25 1 I I #
point $-1 0.52144660940672616 7.25 -1.5088834764831847 #
sphere-surface $-1 0.52144660940672616 7.25 -1.2588834764831847 0.25 1 0 0 0 0 1 forward_v I I I I #
coedge $-1 $506 $573 $499 $569 reversed $574 $-1 #
edge $-1 $434 0 $535 1.5707963267948966 $568 $620 forward 7 unknown #
edge $-1 $466 0 $443 1.5707963267948966 $538 $621 forward 7 unknown #
face $-1 $462 $501 $3 $-1 $622 forward single #
ellipse-curve $-1 0.52144660940672616 7.25 -1.2588834764831847 -1 0 0 0 0.25 0 1 I I #
coedge $-1 $568 $506 $531 $596 reversed $574 $-1 #
loop $-1 $-1 $573 $597 #
ellipse-curve $-1 -0.52144660940672627 7.25 -1.2588834764831847 1 0 -4.4408920985006262e-016 -1.1102230246251565e-016 0 -0.25 1 I I #
cone-surface $-1 0.625 7.25 -1.2588834764831847 -1 0 0 0 0.25 0 1 I I 0 1 0.25 forward I I I I #
cone-surface $-1 -1.2588834764831842 7.25 -0.625 0 0 1 0 0.25 0 1 I I 0 1 0.25 forward I I I I #
coedge $-1 $523 $515 $623 $624 reversed $247 $-1 #
coedge $-1 $625 $626 $515 $580 forward $602 $-1 #
edge $-1 $627 -3.9252311467094373e-017 $584 0.6286796564403575 $515 $628 forward 7 unknown #
coedge $-1 $629 $516 $519 $587 forward $583 $-1 #
coedge $-1 $516 $629 $625 $630 reversed $583 $-1 #
loop $-1 $-1 $581 $601 #
vertex $-1 $580 $631 #
straight-curve $-1 -0.75888347648318422 7.5 -0.31433982822017892 0 0 1 I I #
coedge $-1 $519 $518 $556 $615 reversed $520 $-1 #
edge $-1 $521 0 $632 1.25 $581 $633 forward 7 unknown #
face $-1 $616 $520 $3 $-1 $634 reversed single #
point $-1 -0.75888347648318422 7.5 0.31433982822017886 #
coedge $-1 $548 $550 $523 $591 forward $476 $-1 #
edge $-1 $592 0 $635 0.62867965644035739 $523 $636 forward 7 unknown #
vertex $-1 $525 $637 #
straight-curve $-1 0.75888347648318422 7.5 0.31433982822017892 0 0 -1 I I #
point $-1 0.75888347648318422 7.5 0.31433982822017892 #
straight-curve $-1 -0.31433982822017881 7.5 0.75888347648318466 0 -1 0 I I #
edge $-1 $535 0 $562 0.78539816339744828 $573 $638 forward 7 unknown #
face $-1 $571 $574 $3 $-1 $639 forward single #
cone-surface $-1 -0.52144660940672616 6 -1.2588834764831847 0 -1 0 -0.17677669529663684 0 -0.17677669529663695 1 I I 0 1 0.25 forward I I I I #
straight-curve $-1 -0.69822330470336325 7.25 -1.4356601717798214 -0.70710678118654735 0 0.70710678118654768 I I #
point $-1 -0.69822330470336336 7.25 -1.4356601717798214 #
face $-1 $588 $583 $3 $-1 $640 reversed single #
loop $-1 $-1 $625 $545 #
plane-surface $-1 -0.3143398282201787 7.5 -0.75888347648318466 -0.70710678118654779 0 -0.70710678118654735 -0.70710678118654724 0 0.70710678118654768 forward_v I I I I #
coedge $-1 $641 $623 $626 $642 forward $546 $-1 #
coedge $-1 $550 $548 $643 $644 reversed $476 $-1 #
coedge $-1 $623 $641 $548 $607 reversed $546 $-1 #
edge $-1 $635 0 $645 1.25 $548 $646 forward 7 unknown #
coedge $-1 $643 $552 $549 $609 forward $557 $-1 #
edge $-1 $554 0 $610 0.62867965644035784 $608 $647 forward 7 unknown #
vertex $-1 $644 $648 #
straight-curve $-1 0.75888347648318422 7.5 -0.31433982822017892 0 -1 0 I I #
straight-curve $-1 0.3143398282201787 6.25 0.75888347648318466 0.70710678118654724 0 -0.70710678118654768 I I #
point $-1 0.75888347648318422 6.25 0.31433982822017892 #
coedge $-1 $556 $649 $629 $650 forward $557 $-1 #
edge $-1 $632 0 $558 0.62867965644035739 $556 $651 forward 7 unknown #
face $-1 $-1 $557 $3 $-1 $652 forward single #
point $-1 -0.3143398282201787 6.25 0.75888347648318466 #
straight-curve $-1 0.52144660940672616 7.25 -1.5088834764831847 -1 0 0 I I #
point $-1 -0.52144660940672649 7.25 -1.5088834764831847 #
ellipse-curve $-1 -0.52144660940672627 7.25 -1.2588834764831847 -0.70710678118654735 0 0.70710678118654779 0 0.25 0 1 I I #
ellipse-curve $-1 -1.2588834764831842 7.25 -0.52144660940672649 0.70710678118654802 0 -0.70710678118654713 -0.17677669529663675 0 -0.17677669529663698 1 I I #
cone-surface $-1 -0.44822330470336308 7.25 -1.3321067811865479 -0.70710678118654735 0 0.70710678118654779 0 0.25 0 1 I I 0 1 0.25 forward I I I I #
coedge $-1 $604 $606 $578 $624 forward $546 $-1 #
edge $-1 $635 0 $627 0.62867965644035739 $578 $653 forward 7 unknown #
coedge $-1 $654 $579 $582 $630 forward $602 $-1 #
coedge $-1 $579 $654 $604 $642 reversed $602 $-1 #
vertex $-1 $624 $655 #
straight-curve $-1 -0.3143398282201787 7.5 -0.75888347648318466 -0.70710678118654724 0 0.70710678118654768 I I #
coedge $-1 $582 $581 $614 $650 reversed $583 $-1 #
edge $-1 $584 0 $656 1.25 $625 $657 forward 7 unknown #
point $-1 -0.75888347648318422 7.5 -0.31433982822017892 #
vertex $-1 $615 $658 #
straight-curve $-1 -0.75888347648318422 7.5 0.31433982822017892 0 -1 0 I I #
plane-surface $-1 -0.75888347648318422 7.5 0.31433982822017892 -0.70710678118654779 0 0.70710678118654735 0.70710678118654724 0 0.70710678118654768 forward_v I I I I #
vertex $-1 $591 $659 #
straight-curve $-1 0.75888347648318422 7.5 -0.31433982822017886 -0.70710678118654724 0 -0.70710678118654791 I I #
point $-1 0.75888347648318422 7.5 -0.31433982822017886 #
ellipse-curve $-1 -0.52144660940672627 7.25 -1.2588834764831847 0 -1 0 -0.17677669529663709 0 -0.17677669529663675 1 I I #
sphere-surface $-1 -0.52144660940672627 7.25 -1.2588834764831847 0.25 1 0 0 0 0 1 forward_v I I I I #
plane-surface $-1 -0.75888347648318422 7.5 -0.31433982822017892 -1 0 0 0 0 1 forward_v I I I I #
coedge $-1 $606 $604 $660 $661 reversed $546 $-1 #
edge $-1 $627 0 $662 1.25 $604 $663 forward 7 unknown #
coedge $-1 $660 $608 $605 $644 forward $557 $-1 #
edge $-1 $610 0 $645 0.62867965644035739 $643 $664 forward 7 unknown #
vertex $-1 $661 $665 #
straight-curve $-1 0.31433982822017881 7.5 -0.75888347648318466 0 -1 0 I I #
straight-curve $-1 0.75888347648318422 6.25 0.31433982822017892 0 0 -1 I I #
point $-1 0.75888347648318422 6.25 -0.31433982822017892 #
coedge $-1 $614 $660 $654 $666 forward $557 $-1 #
edge $-1 $656 0 $632 0.62867965644035784 $614 $667 forward 7 unknown #
straight-curve $-1 -0.75888347648318422 6.25 0.31433982822017892 0.70710678118654735 0 0.70710678118654779 I I #
plane-surface $-1 0 6.25 0 0 1 0 -1 0 0 forward_v I I I I #
straight-curve $-1 0.31433982822017881 7.5 -0.75888347648318466 -1 0 0 I I #
coedge $-1 $626 $625 $649 $666 reversed $602 $-1 #
point $-1 -0.31433982822017864 7.5 -0.75888347648318466 #
vertex $-1 $650 $668 #
straight-curve $-1 -0.75888347648318422 7.5 -0.31433982822017892 0 -1 0 I I #
point $-1 -0.75888347648318422 6.25 0.31433982822017892 #
point $-1 0.31433982822017881 7.5 -0.75888347648318466 #
coedge $-1 $649 $643 $641 $661 forward $557 $-1 #
edge $-1 $645 0 $662 0.62867965644035739 $660 $669 forward 7 unknown #
vertex $-1 $666 $670 #
straight-curve $-1 -0.31433982822017864 7.5 -0.75888347648318466 0 -1 0 I I #
straight-curve $-1 0.75888347648318422 6.25 -0.31433982822017892 -0.70710678118654735 0 -0.70710678118654779 I I #
point $-1 0.3143398282201787 6.25 -0.75888347648318466 #
edge $-1 $662 0 $656 0.6286796564403575 $649 $671 forward 7 unknown #
straight-curve $-1 -0.75888347648318422 6.25 -0.31433982822017892 0 0 1 I I #
point $-1 -0.75888347648318422 6.25 -0.31433982822017892 #
straight-curve $-1 0.3143398282201787 6.25 -0.75888347648318466 -1 0 0 I I #
point $-1 -0.3143398282201787 6.25 -0.75888347648318466 #
straight-curve $-1 -0.3143398282201787 6.25 -0.75888347648318466 -0.70710678118654724 0 0.70710678118654768 I I #
End-of-ACIS-data 