600 0 1 0           
87 GICL ACIS Healer - Source: /gicl/data5/repository/PTC/V18/asmdes18/parts/bolt.sat - 6 0 18 ACIS 6.0.3 Solaris 24 Sat Apr 13 23:02:27 2002 
1 9.999999999999999547e-07 1.000000000000000036e-10 
body $-1 $1 $-1 $-1 #
lump $-1 $-1 $2 $0 #
shell $-1 $-1 $-1 $3 $-1 $1 #
face $-1 $4 $5 $2 $-1 $6 reversed single #
face $-1 $7 $8 $2 $-1 $9 forward single #
loop $-1 $-1 $10 $3 #
plane-surface $-1 0 0 0 0 1 0 -10 0 0 forward_v I I I I #
face $-1 $11 $12 $2 $-1 $13 forward single #
loop $-1 $-1 $14 $4 #
cone-surface $-1 0 0 0 0 1 0 -10 0 0 1 I I 0 1 10 forward I I I I #
coedge $-1 $15 $15 $16 $17 reversed $5 $-1 #
face $-1 $18 $19 $2 $-1 $20 reversed single #
loop $-1 $-1 $21 $7 #
cone-surface $-1 0 0 0 0 1 0 -10 0 0 1 I I 0 1 10 forward I I I I #
coedge $-1 $16 $22 $23 $24 reversed $8 $-1 #
coedge $-1 $10 $10 $25 $26 reversed $5 $-1 #
coedge $-1 $27 $14 $10 $17 forward $8 $-1 #
edge $-1 $28 0 $29 3.141592653589793116 $10 $30 forward 7 unknown #
face $-1 $31 $32 $2 $-1 $33 forward single #
loop $-1 $34 $35 $11 #
plane-surface $-1 0 60 0 0 1 0 -10 0 0 forward_v I I I I #
coedge $-1 $25 $36 $27 $37 reversed $12 $-1 #
coedge $-1 $14 $27 $38 $39 reversed $8 $-1 #
coedge $-1 $36 $25 $14 $24 forward $12 $-1 #
edge $-1 $28 0 $40 6 $23 $41 forward 7 unknown #
coedge $-1 $23 $21 $15 $26 forward $12 $-1 #
edge $-1 $29 0 $28 3.141592653589793116 $15 $42 forward 7 unknown #
coedge $-1 $22 $16 $21 $37 forward $8 $-1 #
vertex $-1 $26 $43 #
vertex $-1 $26 $44 #
ellipse-curve $-1 0 0 0 0 1 0 10 0 0 1 I I #
face $-1 $45 $46 $2 $-1 $47 forward single #
loop $-1 $-1 $48 $18 #
cone-surface $-1 5.214466094067261359 60 12.58883476483184616 0 -1 0 1.767766952966368432 0 1.767766952966369542 1 I I 0 1 2.5 forward I I I I #
loop $-1 $-1 $38 $11 #
coedge $-1 $49 $50 $51 $52 forward $19 $-1 #
coedge $-1 $21 $23 $53 $54 reversed $12 $-1 #
edge $-1 $29 0 $55 6 $21 $56 forward 7 unknown #
coedge $-1 $53 $53 $22 $39 forward $34 $-1 #
edge $-1 $40 0 $55 3.141592653589793116 $22 $57 forward 7 unknown #
vertex $-1 $54 $58 #
straight-curve $-1 10 0 1.224606353822377258e-15 0 10 0 I I #
ellipse-curve $-1 0 0 0 0 1 0 -10 0 0 1 I I #
point $-1 10 0 0 #
point $-1 -10 0 0 #
face $-1 $59 $60 $2 $-1 $61 forward single #
loop $-1 $-1 $62 $31 #
sphere-surface $-1 5.214466094067262247 72.5 12.58883476483184616 2.5 1 0 0 0 0 1 forward_v I I I I #
coedge $-1 $63 $64 $62 $65 forward $32 $-1 #
coedge $-1 $66 $35 $67 $68 reversed $19 $-1 #
coedge $-1 $35 $69 $70 $71 reversed $19 $-1 #
coedge $-1 $64 $63 $35 $52 reversed $32 $-1 #
edge $-1 $72 -9.947598300641452853e-16 $73 0.7853981633974497223 $35 $74 forward 7 unknown #
coedge $-1 $38 $38 $36 $54 forward $34 $-1 #
edge $-1 $55 0 $40 3.141592653589793116 $36 $75 forward 7 unknown #
vertex $-1 $54 $76 #
straight-curve $-1 -10 0 0 0 10 0 I I #
ellipse-curve $-1 -2.775557561562891351e-16 60 5.551115123125782702e-16 0 1 0 10 0 -5.551115123125782702e-16 1 I I #
point $-1 10 60 0 #
face $-1 $77 $78 $2 $-1 $79 forward single #
loop $-1 $-1 $80 $45 #
cone-surface $-1 4.482233047033631124 72.5 13.32106781186547906 0.7071067811865473507 0 -0.7071067811865477948 0 2.5 0 1 I I 0 1 2.5 forward I I I I #
coedge $-1 $81 $82 $48 $65 reversed $46 $-1 #
coedge $-1 $51 $48 $83 $84 reversed $32 $-1 #
coedge $-1 $48 $51 $85 $86 forward $32 $-1 #
edge $-1 $87 -3.552713678800499154e-16 $88 0.785398163397448279 $62 $89 forward 7 unknown #
coedge $-1 $90 $49 $91 $92 forward $19 $-1 #
coedge $-1 $83 $93 $49 $68 forward $94 $-1 #
edge $-1 $95 0 $73 1.042893218813452316 $49 $96 forward 7 unknown #
coedge $-1 $50 $97 $98 $99 forward $19 $-1 #
coedge $-1 $100 $85 $50 $71 forward $78 $-1 #
edge $-1 $72 -6.280369834735098941e-17 $101 1.042893218813452094 $50 $102 forward 7 unknown #
vertex $-1 $71 $103 #
vertex $-1 $68 $104 #
ellipse-curve $-1 5.214466094067264912 60 12.58883476483185149 0 -1 0 1.767766952966365324 0 1.767766952966365324 1 I I #
ellipse-curve $-1 2.775557561562891351e-16 60 -5.551115123125782702e-16 0 1 0 -10 0 5.551115123125782702e-16 1 I I #
point $-1 -10 60 0 #
face $-1 $105 $106 $2 $-1 $107 forward single #
loop $-1 $-1 $100 $59 #
plane-surface $-1 6.25 60 15.08883476483184616 0.7071067811865476838 0 0.7071067811865473507 7.071067811865473729 0 -7.071067811865477282 forward_v I I I I #
coedge $-1 $108 $109 $81 $110 forward $60 $-1 #
coedge $-1 $82 $62 $80 $110 reversed $46 $-1 #
coedge $-1 $62 $81 $111 $112 reversed $46 $-1 #
coedge $-1 $113 $67 $63 $84 forward $94 $-1 #
edge $-1 $73 0 $88 1.25 $83 $114 forward 7 unknown #
coedge $-1 $70 $115 $64 $86 reversed $78 $-1 #
edge $-1 $72 0 $87 1.25 $85 $116 forward 7 unknown #
vertex $-1 $86 $117 #
vertex $-1 $118 $119 #
ellipse-curve $-1 5.214466094067262247 72.5 12.58883476483184616 0 -1 0 1.767766952966370875 0 1.767766952966367544 1 I I #
coedge $-1 $120 $66 $121 $122 reversed $19 $-1 #
coedge $-1 $123 $124 $66 $92 reversed $125 $-1 #
edge $-1 $95 -2.524354896707251843e-31 $126 0.7853981633974512766 $66 $127 forward 7 unknown #
coedge $-1 $67 $113 $123 $128 reversed $94 $-1 #
loop $-1 $-1 $83 $129 #
vertex $-1 $92 $130 #
straight-curve $-1 -5.214466094067261359 60 15.08883476483184616 10 0 0 I I #
coedge $-1 $69 $131 $132 $133 reversed $19 $-1 #
coedge $-1 $134 $135 $69 $99 reversed $106 $-1 #
edge $-1 $136 -1.776356839400249824e-16 $101 0.7853981633974493892 $69 $137 forward 7 unknown #
coedge $-1 $115 $70 $135 $138 forward $78 $-1 #
vertex $-1 $71 $139 #
straight-curve $-1 6.982233047033631124 60 14.35660171779821326 7.071067811865473729 0 -7.071067811865475505 I I #
point $-1 6.982233047033630235 60 14.35660171779821326 #
point $-1 5.214466094067261359 60 15.08883476483184616 #
face $-1 $140 $141 $2 $-1 $142 forward single #
loop $-1 $-1 $143 $77 #
cone-surface $-1 12.58883476483184261 60 5.214466094067264912 0 -1 0 2.5 0 0 1 I I 0 1 2.5 forward I I I I #
coedge $-1 $144 $80 $115 $145 forward $60 $-1 #
coedge $-1 $80 $144 $146 $147 reversed $60 $-1 #
edge $-1 $148 0 $87 1.570796326794896558 $81 $149 forward 7 unknown #
coedge $-1 $150 $151 $82 $112 forward $152 $-1 #
edge $-1 $88 0 $148 1.570796326794896558 $82 $153 forward 7 unknown #
coedge $-1 $93 $83 $151 $118 reversed $94 $-1 #
straight-curve $-1 5.214466094067260471 60 15.08883476483184616 0 10 0 I I #
coedge $-1 $85 $100 $108 $145 reversed $78 $-1 #
straight-curve $-1 6.982233047033630235 60 14.35660171779821681 0 10 0 I I #
point $-1 6.982233047033633788 72.5 14.35660171779821326 #
edge $-1 $154 0 $88 1.042893218813452538 $113 $155 forward 7 unknown #
point $-1 5.214466094067264912 72.5 15.08883476483184616 #
coedge $-1 $156 $90 $157 $158 forward $19 $-1 #
coedge $-1 $159 $160 $90 $122 forward $161 $-1 #
edge $-1 $162 -6.280369834735101406e-17 $126 1.042893218813452538 $90 $163 forward 7 unknown #
coedge $-1 $164 $91 $93 $128 forward $125 $-1 #
coedge $-1 $91 $164 $159 $165 reversed $125 $-1 #
loop $-1 $-1 $164 $166 #
vertex $-1 $122 $167 #
ellipse-curve $-1 -5.2144660940672658 60 12.58883476483185326 0 -1 0 4.440892098500626162e-15 0 2.499999999999993339 1 I I #
edge $-1 $95 0 $154 1.25 $93 $168 forward 7 unknown #
face $-1 $169 $94 $2 $-1 $170 forward single #
point $-1 -5.214466094067261359 60 15.08883476483184616 #
coedge $-1 $97 $171 $172 $173 forward $19 $-1 #
coedge $-1 $174 $175 $97 $133 forward $176 $-1 #
edge $-1 $136 0 $177 1.04289321881345276 $97 $178 forward 7 unknown #
coedge $-1 $143 $98 $175 $179 forward $106 $-1 #
coedge $-1 $98 $143 $100 $138 reversed $106 $-1 #
vertex $-1 $99 $180 #
ellipse-curve $-1 12.58883476483184616 60 5.214466094067267576 0 -1 0 2.499999999999995559 0 -2.220446049250313081e-15 1 I I #
edge $-1 $101 0 $181 1.25 $100 $182 forward 7 unknown #
point $-1 14.35660171779821148 60 6.982233047033633788 #
face $-1 $183 $184 $2 $-1 $185 forward single #
loop $-1 $-1 $186 $105 #
sphere-surface $-1 12.58883476483184261 72.5 5.214466094067264912 2.5 1 0 0 0 0 1 forward_v I I I I #
coedge $-1 $135 $134 $186 $187 forward $106 $-1 #
coedge $-1 $109 $108 $188 $189 forward $60 $-1 #
edge $-1 $87 6.280369834735098941e-17 $181 1.042893218813452094 $115 $190 forward 7 unknown #
coedge $-1 $191 $192 $109 $147 forward $193 $-1 #
edge $-1 $148 0 $194 1.04289321881345276 $146 $195 forward 7 unknown #
vertex $-1 $147 $196 #
ellipse-curve $-1 5.214466094067262247 72.5 12.58883476483184616 0.7071067811865473507 0 -0.7071067811865477948 0 2.5 0 1 I I #
coedge $-1 $197 $111 $192 $198 reversed $152 $-1 #
coedge $-1 $111 $197 $113 $118 forward $152 $-1 #
loop $-1 $-1 $197 $199 #
ellipse-curve $-1 5.214466094067262247 72.5 12.58883476483184616 -1 0 4.440892098500626162e-16 1.11022302462515654e-15 0 2.5 1 I I #
vertex $-1 $200 $201 #
straight-curve $-1 -5.214466094067261359 72.5 15.08883476483184616 10 0 0 I I #
coedge $-1 $202 $120 $203 $204 reversed $19 $-1 #
coedge $-1 $205 $206 $120 $158 reversed $207 $-1 #
edge $-1 $162 2.131628207280305902e-16 $208 0.785398163397448057 $120 $209 forward 7 unknown #
coedge $-1 $210 $121 $124 $165 forward $161 $-1 #
coedge $-1 $121 $210 $205 $211 reversed $161 $-1 #
loop $-1 $-1 $159 $212 #
vertex $-1 $158 $213 #
straight-curve $-1 -14.35660171779821148 60 6.982233047033630235 7.071067811865473729 0 7.071067811865477282 I I #
coedge $-1 $124 $123 $214 $215 forward $125 $-1 #
edge $-1 $126 8.677469957431130998e-32 $216 1.25 $159 $217 forward 7 unknown #
face $-1 $218 $125 $2 $-1 $219 forward single #
point $-1 -6.982233047033630235 60 14.35660171779821326 #
straight-curve $-1 -5.214466094067261359 60 15.08883476483184616 0 10 0 I I #
face $-1 $220 $193 $2 $-1 $221 forward single #
plane-surface $-1 -6.25 60 15.08883476483184616 0 0 1 10 0 0 forward_v I I I I #
coedge $-1 $131 $222 $223 $224 reversed $19 $-1 #
coedge $-1 $225 $226 $131 $173 reversed $227 $-1 #
edge $-1 $228 2.131628207280305902e-16 $177 0.785398163397448057 $131 $229 forward 7 unknown #
coedge $-1 $230 $132 $226 $231 forward $176 $-1 #
coedge $-1 $132 $230 $134 $179 reversed $176 $-1 #
loop $-1 $-1 $174 $183 #
vertex $-1 $133 $232 #
straight-curve $-1 15.08883476483184261 60 5.214466094067264912 0 0 -10 I I #
edge $-1 $136 0 $233 1.25 $175 $234 forward 7 unknown #
point $-1 15.08883476483184261 60 5.214466094067264912 #
vertex $-1 $145 $235 #
straight-curve $-1 14.35660171779820971 60 6.982233047033633788 0 10 -1.776356839400250465e-15 I I #
face $-1 $236 $176 $2 $-1 $237 forward single #
loop $-1 $-1 $238 $140 #
cone-surface $-1 12.58883476483184261 72.5 6.25 0 0 -1 0 2.5 0 1 I I 0 1 2.5 forward I I I I #
coedge $-1 $239 $188 $143 $187 reversed $141 $-1 #
edge $-1 $233 0 $181 0.7853981633974486121 $186 $240 forward 7 unknown #
coedge $-1 $186 $239 $144 $189 reversed $141 $-1 #
edge $-1 $181 0 $194 1.570796326794897224 $188 $241 forward 7 unknown #
straight-curve $-1 6.9822330470336329 72.5 14.35660171779821326 7.071067811865473729 0 -7.071067811865477282 I I #
coedge $-1 $242 $146 $243 $244 forward $193 $-1 #
coedge $-1 $146 $245 $150 $198 forward $193 $-1 #
loop $-1 $246 $191 $169 #
vertex $-1 $147 $247 #
straight-curve $-1 5.214466094067262247 75 12.58883476483184616 7.071067811865473729 0 -7.071067811865477282 I I #
point $-1 5.214466094067262247 75 12.58883476483184616 #
coedge $-1 $151 $150 $248 $200 forward $152 $-1 #
edge $-1 $249 0 $148 1.042893218813452538 $192 $250 forward 7 unknown #
face $-1 $129 $152 $2 $-1 $251 forward single #
edge $-1 $249 0 $154 1.570796326794896558 $248 $252 forward 7 unknown #
point $-1 -5.214466094067261359 72.5 15.08883476483184616 #
coedge $-1 $253 $156 $254 $255 forward $19 $-1 #
coedge $-1 $256 $257 $156 $204 forward $258 $-1 #
edge $-1 $259 0 $208 1.04289321881345276 $156 $260 forward 7 unknown #
coedge $-1 $261 $157 $160 $211 forward $207 $-1 #
coedge $-1 $157 $261 $256 $262 reversed $207 $-1 #
loop $-1 $-1 $261 $263 #
vertex $-1 $204 $264 #
ellipse-curve $-1 -12.58883476483184438 60 5.214466094067264024 0 -1 0 -1.767766952966367544 0 1.767766952966366434 1 I I #
coedge $-1 $160 $159 $265 $266 reversed $161 $-1 #
edge $-1 $162 0 $267 1.25 $160 $268 forward 7 unknown #
face $-1 $166 $161 $2 $-1 $269 forward single #
point $-1 -14.35660171779821148 60 6.982233047033629347 #
coedge $-1 $248 $270 $164 $215 reversed $271 $-1 #
edge $-1 $154 0 $216 0.7853981633974470578 $214 $272 forward 7 unknown #
vertex $-1 $266 $273 #
straight-curve $-1 -6.982233047033629347 60 14.35660171779821681 -2.664535259100375697e-15 10 -1.776356839400250465e-15 I I #
face $-1 $199 $271 $2 $-1 $274 forward single #
cone-surface $-1 -5.214466094067261359 60 12.58883476483184616 0 -1 0 0 0 2.5 1 I I 0 1 2.5 forward I I I I #
face $-1 $275 $276 $2 $-1 $277 reversed single #
plane-surface $-1 0 75 0 0 1 0 -10 0 0 forward_v I I I I #
coedge $-1 $171 $278 $279 $280 forward $19 $-1 #
coedge $-1 $281 $282 $171 $224 forward $283 $-1 #
edge $-1 $228 -6.280369834735101406e-17 $284 1.042893218813452538 $171 $285 forward 7 unknown #
coedge $-1 $286 $172 $282 $287 forward $227 $-1 #
coedge $-1 $172 $286 $174 $231 reversed $227 $-1 #
loop $-1 $-1 $286 $236 #
vertex $-1 $173 $288 #
ellipse-curve $-1 12.58883476483184438 60 -5.214466094067264024 0 -1 0 1.767766952966367544 0 -1.767766952966366434 1 I I #
coedge $-1 $175 $174 $289 $290 reversed $176 $-1 #
edge $-1 $177 -3.155443620884047287e-32 $291 1.25 $174 $292 forward 7 unknown #
point $-1 15.08883476483184261 60 -5.214466094067264024 #
vertex $-1 $293 $294 #
straight-curve $-1 15.08883476483184261 60 5.214466094067264912 0 10 0 I I #
point $-1 14.35660171779820971 72.5 6.9822330470336329 #
face $-1 $295 $227 $2 $-1 $296 forward single #
plane-surface $-1 15.08883476483184261 60 6.25 1 0 0 0 0 -10 forward_v I I I I #
coedge $-1 $289 $243 $239 $293 forward $184 $-1 #
coedge $-1 $188 $186 $238 $293 reversed $141 $-1 #
ellipse-curve $-1 12.58883476483184261 72.5 5.214466094067264912 0 -1 0 2.5 0 0 1 I I #
ellipse-curve $-1 12.58883476483184261 72.5 5.214466094067264912 -0.7071067811865480168 0 0.7071067811865471286 1.767766952966367544 0 1.767766952966369765 1 I I #
coedge $-1 $297 $191 $298 $299 forward $193 $-1 #
coedge $-1 $238 $300 $191 $244 reversed $184 $-1 #
edge $-1 $194 3.552713678800501127e-16 $301 1.042893218813452538 $191 $302 forward 7 unknown #
coedge $-1 $192 $303 $304 $305 forward $193 $-1 #
loop $-1 $-1 $306 $169 #
point $-1 12.58883476483184438 75 5.214466094067261359 #
coedge $-1 $270 $214 $197 $200 reversed $271 $-1 #
vertex $-1 $198 $307 #
straight-curve $-1 -5.214466094067261359 75 12.58883476483184616 10 0 0 I I #
cone-surface $-1 -6.25 72.5 12.58883476483184616 1 0 0 0 2.5 0 1 I I 0 1 2.5 forward I I I I #
ellipse-curve $-1 -5.214466094067261359 72.5 12.58883476483184616 1 0 0 0 2.5 0 1 I I #
coedge $-1 $308 $202 $309 $310 reversed $19 $-1 #
coedge $-1 $311 $312 $202 $255 reversed $313 $-1 #
edge $-1 $259 -1.776356839400249824e-16 $314 0.7853981633974493892 $202 $315 forward 7 unknown #
coedge $-1 $316 $203 $206 $262 forward $258 $-1 #
coedge $-1 $203 $316 $311 $317 reversed $258 $-1 #
loop $-1 $-1 $256 $318 #
vertex $-1 $255 $319 #
straight-curve $-1 -15.08883476483184261 60 -5.214466094067264912 0 0 10 I I #
coedge $-1 $206 $205 $320 $321 forward $207 $-1 #
edge $-1 $208 -3.155443620884047287e-32 $322 1.25 $256 $323 forward 7 unknown #
face $-1 $324 $207 $2 $-1 $325 forward single #
point $-1 -15.08883476483184261 60 5.214466094067264024 #
coedge $-1 $326 $327 $210 $266 forward $328 $-1 #
edge $-1 $267 0 $216 1.042893218813453426 $210 $329 forward 7 unknown #
vertex $-1 $330 $331 #
straight-curve $-1 -14.35660171779821148 60 6.982233047033630235 0 10 0 I I #
plane-surface $-1 -15.08883476483184261 60 6.25 -0.7071067811865476838 0 0.7071067811865473507 7.071067811865473729 0 7.071067811865477282 forward_v I I I I #
coedge $-1 $214 $248 $326 $332 reversed $271 $-1 #
loop $-1 $-1 $214 $218 #
ellipse-curve $-1 -5.214466094067261359 72.5 12.58883476483184616 0 -1 0 0 0 2.5 1 I I #
point $-1 -6.982233047033629347 72.5 14.35660171779821859 #
sphere-surface $-1 -5.214466094067261359 72.5 12.58883476483184616 2.5 1 0 0 0 0 1 forward_v I I I I #
face $-1 $333 $334 $2 $-1 $335 reversed single #
loop $-1 $-1 $336 $220 #
plane-surface $-1 -3.14339828220178763 75 7.588834764831846158 0 0 1 10 0 0 forward_v I I I I #
coedge $-1 $222 $308 $337 $338 reversed $19 $-1 #
coedge $-1 $339 $340 $222 $280 reversed $341 $-1 #
edge $-1 $342 -1.009741958682904591e-30 $284 0.7853981633974528309 $222 $343 forward 7 unknown #
coedge $-1 $344 $223 $340 $345 forward $283 $-1 #
coedge $-1 $223 $344 $225 $287 reversed $283 $-1 #
loop $-1 $-1 $281 $346 #
vertex $-1 $224 $347 #
straight-curve $-1 14.35660171779821148 60 -6.982233047033630235 -7.071067811865473729 0 -7.071067811865477282 I I #
coedge $-1 $226 $225 $348 $349 forward $227 $-1 #
edge $-1 $228 0 $350 1.25 $282 $351 forward 7 unknown #
point $-1 14.35660171779821148 60 -6.982233047033629347 #
coedge $-1 $300 $238 $230 $290 forward $184 $-1 #
edge $-1 $233 0 $291 1.042893218813452538 $230 $352 forward 7 unknown #
vertex $-1 $290 $353 #
straight-curve $-1 15.08883476483184261 60 -5.214466094067262247 0 10 1.776356839400250465e-15 I I #
edge $-1 $194 7.105427357601002253e-16 $233 1.570796326794896558 $239 $354 forward 7 unknown #
point $-1 15.08883476483184261 72.5 5.214466094067264912 #
face $-1 $355 $356 $2 $-1 $357 forward single #
cone-surface $-1 12.58883476483184261 60 -5.214466094067261359 0 -1 0 1.767766952966369542 0 -1.767766952966368432 1 I I 0 1 2.5 forward I I I I #
coedge $-1 $358 $242 $359 $360 forward $193 $-1 #
coedge $-1 $361 $362 $242 $299 reversed $363 $-1 #
edge $-1 $301 0 $364 1.042893218813452982 $242 $365 forward 7 unknown #
coedge $-1 $243 $289 $366 $367 forward $184 $-1 #
vertex $-1 $299 $368 #
straight-curve $-1 12.58883476483184261 75 5.214466094067264912 0 0 -10 I I #
coedge $-1 $245 $358 $369 $370 forward $193 $-1 #
coedge $-1 $327 $326 $245 $305 reversed $328 $-1 #
edge $-1 $371 0 $249 1.042893218813452982 $245 $372 forward 7 unknown #
coedge $-1 $373 $374 $375 $376 reversed $246 $-1 #
point $-1 -5.214466094067261359 75 12.58883476483184616 #
coedge $-1 $278 $253 $377 $378 forward $19 $-1 #
coedge $-1 $379 $380 $253 $310 forward $381 $-1 #
edge $-1 $382 -6.280369834735098941e-17 $314 1.042893218813452094 $253 $383 forward 7 unknown #
coedge $-1 $384 $254 $257 $317 forward $313 $-1 #
coedge $-1 $254 $384 $379 $385 reversed $313 $-1 #
loop $-1 $-1 $384 $386 #
vertex $-1 $310 $387 #
ellipse-curve $-1 -12.58883476483184616 60 -5.214466094067267576 0 -1 0 -2.499999999999995559 0 2.220446049250313081e-15 1 I I #
coedge $-1 $257 $256 $388 $389 reversed $258 $-1 #
edge $-1 $259 0 $390 1.25 $257 $391 forward 7 unknown #
face $-1 $263 $258 $2 $-1 $392 forward single #
point $-1 -15.08883476483184261 60 -5.214466094067264912 #
coedge $-1 $393 $394 $261 $321 reversed $395 $-1 #
edge $-1 $267 -6.394884621840901436e-16 $322 0.785398163397448057 $320 $396 forward 7 unknown #
vertex $-1 $389 $397 #
straight-curve $-1 -15.08883476483184261 60 5.214466094067262247 0 10 -1.776356839400250465e-15 I I #
face $-1 $398 $395 $2 $-1 $399 forward single #
cone-surface $-1 -12.58883476483184261 60 5.214466094067261359 0 -1 0 -1.767766952966369542 0 1.767766952966368432 1 I I 0 1 2.5 forward I I I I #
coedge $-1 $304 $265 $270 $332 forward $328 $-1 #
coedge $-1 $265 $304 $393 $330 forward $328 $-1 #
loop $-1 $-1 $327 $398 #
straight-curve $-1 -14.35660171779821148 72.5 6.982233047033630235 7.071067811865471953 0 7.07106781186547817 I I #
edge $-1 $371 0 $267 1.570796326794896558 $393 $400 forward 7 unknown #
point $-1 -14.35660171779821148 72.5 6.982233047033630235 #
edge $-1 $216 0 $249 1.570796326794896558 $270 $401 forward 7 unknown #
face $-1 $402 $403 $2 $-1 $404 reversed single #
loop $-1 $-1 $405 $275 #
plane-surface $-1 3.143398282201786742 75 7.588834764831846158 0.7071067811865477948 0 0.7071067811865473507 7.071067811865471953 0 -7.071067811865477282 forward_v I I I I #
coedge $-1 $406 $375 $407 $408 forward $276 $-1 #
coedge $-1 $409 $410 $278 $338 forward $411 $-1 #
edge $-1 $342 0 $412 1.042893218813452316 $278 $413 forward 7 unknown #
coedge $-1 $414 $279 $410 $415 forward $341 $-1 #
coedge $-1 $279 $414 $281 $345 reversed $341 $-1 #
loop $-1 $-1 $414 $416 #
vertex $-1 $280 $417 #
ellipse-curve $-1 5.2144660940672658 60 -12.58883476483185859 0 -1 0 -4.440892098500626162e-15 0 -2.499999999999988898 1 I I #
coedge $-1 $282 $281 $418 $419 reversed $283 $-1 #
edge $-1 $284 7.888609052210118492e-32 $420 1.25 $281 $421 forward 7 unknown #
face $-1 $416 $283 $2 $-1 $422 forward single #
point $-1 6.982233047033630235 60 -14.35660171779821326 #
coedge $-1 $423 $366 $286 $349 reversed $356 $-1 #
edge $-1 $350 -6.394884621840901436e-16 $291 0.785398163397448057 $348 $424 forward 7 unknown #
vertex $-1 $425 $426 #
straight-curve $-1 14.35660171779821148 60 -6.982233047033630235 0 10 0 I I #
straight-curve $-1 15.08883476483184261 72.5 5.214466094067264912 0 0 -10 I I #
point $-1 15.08883476483184261 72.5 -5.214466094067260471 #
ellipse-curve $-1 12.58883476483184261 72.5 5.214466094067264912 0 0 -1 0 2.5 0 1 I I #
face $-1 $346 $363 $2 $-1 $427 forward single #
loop $-1 $-1 $348 $295 #
sphere-surface $-1 12.58883476483184261 72.5 -5.214466094067261359 2.5 1 0 0 0 0 1 forward_v I I I I #
coedge $-1 $303 $297 $428 $429 forward $193 $-1 #
coedge $-1 $430 $431 $297 $360 reversed $432 $-1 #
edge $-1 $364 0 $433 1.042893218813452538 $297 $434 forward 7 unknown #
coedge $-1 $418 $298 $423 $425 forward $363 $-1 #
coedge $-1 $298 $418 $435 $436 forward $363 $-1 #
loop $-1 $-1 $361 $355 #
vertex $-1 $360 $437 #
straight-curve $-1 12.58883476483184261 75 -5.214466094067261359 -7.071067811865471953 0 -7.07106781186547817 I I #
coedge $-1 $348 $423 $300 $367 reversed $356 $-1 #
edge $-1 $291 0 $301 1.570796326794896558 $366 $438 forward 7 unknown #
point $-1 12.58883476483184261 75 -5.214466094067261359 #
coedge $-1 $439 $440 $303 $370 reversed $441 $-1 #
edge $-1 $442 0 $371 1.042893218813452538 $303 $443 forward 7 unknown #
vertex $-1 $305 $444 #
straight-curve $-1 -12.58883476483184261 75 5.214466094067261359 7.071067811865471953 0 7.07106781186547817 I I #
coedge $-1 $445 $306 $446 $447 reversed $246 $-1 #
coedge $-1 $306 $448 $449 $450 reversed $246 $-1 #
coedge $-1 $336 $451 $306 $376 forward $276 $-1 #
edge $-1 $452 0 $453 0.6286796564403573928 $306 $454 forward 7 unknown #
coedge $-1 $455 $456 $308 $378 reversed $457 $-1 #
edge $-1 $382 -9.947598300641452853e-16 $412 0.7853981633974497223 $308 $458 forward 7 unknown #
coedge $-1 $459 $309 $312 $385 forward $381 $-1 #
coedge $-1 $309 $459 $455 $460 reversed $381 $-1 #
loop $-1 $-1 $379 $461 #
vertex $-1 $378 $462 #
straight-curve $-1 -6.982233047033631124 60 -14.35660171779821326 -7.071067811865473729 0 7.071067811865475505 I I #
coedge $-1 $312 $311 $463 $464 forward $313 $-1 #
edge $-1 $314 0 $465 1.25 $379 $466 forward 7 unknown #
face $-1 $467 $313 $2 $-1 $468 forward single #
point $-1 -14.35660171779821148 60 -6.982233047033633788 #
coedge $-1 $440 $439 $316 $389 forward $441 $-1 #
edge $-1 $390 0 $322 1.042893218813452538 $316 $469 forward 7 unknown #
vertex $-1 $470 $471 #
straight-curve $-1 -15.08883476483184261 60 -5.214466094067264912 0 10 0 I I #
plane-surface $-1 -15.08883476483184261 60 -6.25 -1 0 0 0 0 10 forward_v I I I I #
coedge $-1 $394 $320 $327 $330 reversed $395 $-1 #
coedge $-1 $320 $393 $440 $472 reversed $395 $-1 #
loop $-1 $-1 $320 $324 #
ellipse-curve $-1 -12.58883476483184261 72.5 5.214466094067261359 0 -1 0 -1.767766952966369765 0 1.767766952966367544 1 I I #
point $-1 -15.08883476483184261 72.5 5.214466094067260471 #
face $-1 $212 $328 $2 $-1 $473 forward single #
sphere-surface $-1 -12.58883476483184261 72.5 5.214466094067261359 2.5 1 0 0 0 0 1 forward_v I I I I #
ellipse-curve $-1 -12.58883476483184261 72.5 5.214466094067261359 0.7071067811865473507 0 0.7071067811865477948 0 2.5 0 1 I I #
ellipse-curve $-1 -5.214466094067261359 72.5 12.58883476483184616 -0.7071067811865471286 0 -0.7071067811865480168 -1.767766952966369765 0 1.767766952966367544 1 I I #
face $-1 $474 $475 $2 $-1 $476 reversed single #
loop $-1 $-1 $477 $333 #
plane-surface $-1 7.588834764831842605 75 3.143398282201789407 1 0 0 0 0 -10 forward_v I I I I #
coedge $-1 $478 $449 $479 $480 forward $334 $-1 #
coedge $-1 $451 $336 $481 $482 reversed $276 $-1 #
coedge $-1 $449 $478 $336 $408 reversed $334 $-1 #
edge $-1 $453 0 $483 1.25 $407 $484 forward 7 unknown #
coedge $-1 $485 $337 $456 $486 forward $411 $-1 #
coedge $-1 $337 $485 $339 $415 reversed $411 $-1 #
loop $-1 $-1 $409 $487 #
vertex $-1 $338 $488 #
straight-curve $-1 5.214466094067261359 60 -15.08883476483184616 -10 0 0 I I #
coedge $-1 $340 $339 $489 $490 forward $341 $-1 #
edge $-1 $342 0 $491 1.25 $410 $492 forward 7 unknown #
face $-1 $493 $341 $2 $-1 $494 forward single #
point $-1 5.214466094067261359 60 -15.08883476483184616 #
coedge $-1 $362 $361 $344 $419 forward $363 $-1 #
edge $-1 $350 0 $420 1.042893218813453426 $344 $495 forward 7 unknown #
vertex $-1 $419 $496 #
straight-curve $-1 6.982233047033629347 60 -14.35660171779821681 1.776356839400250465e-15 10 1.776356839400250465e-15 I I #
plane-surface $-1 15.08883476483184261 60 -6.25 0.7071067811865476838 0 -0.7071067811865473507 -7.071067811865473729 0 -7.071067811865477282 forward_v I I I I #
coedge $-1 $366 $348 $361 $425 reversed $356 $-1 #
ellipse-curve $-1 12.58883476483184261 72.5 -5.214466094067261359 0 -1 0 1.767766952966369765 0 -1.767766952966367544 1 I I #
edge $-1 $301 0 $350 1.570796326794896558 $423 $497 forward 7 unknown #
point $-1 14.35660171779821148 72.5 -6.982233047033630235 #
cone-surface $-1 13.32106781186547195 72.5 -4.482233047033631124 -0.7071067811865473507 0 -0.7071067811865477948 0 2.5 0 1 I I 0 1 2.5 forward I I I I #
coedge $-1 $498 $499 $358 $429 reversed $500 $-1 #
edge $-1 $433 0 $442 1.042893218813452538 $358 $501 forward 7 unknown #
coedge $-1 $502 $359 $503 $504 forward $432 $-1 #
coedge $-1 $359 $502 $505 $506 forward $432 $-1 #
loop $-1 $-1 $430 $507 #
vertex $-1 $429 $508 #
straight-curve $-1 5.214466094067261359 75 -12.58883476483184616 -10 0 0 I I #
coedge $-1 $489 $503 $362 $436 reversed $509 $-1 #
edge $-1 $420 0 $364 1.570796326794896558 $435 $510 forward 7 unknown #
point $-1 5.214466094067261359 75 -12.58883476483184616 #
ellipse-curve $-1 12.58883476483184261 72.5 -5.214466094067261359 -4.440892098500626162e-16 0 1 2.5 0 1.11022302462515654e-15 1 I I #
coedge $-1 $388 $369 $511 $470 forward $441 $-1 #
coedge $-1 $369 $388 $394 $472 forward $441 $-1 #
loop $-1 $-1 $439 $512 #
vertex $-1 $370 $513 #
straight-curve $-1 -12.58883476483184261 75 -5.214466094067264912 0 0 10 I I #
point $-1 -12.58883476483184261 75 5.214466094067261359 #
coedge $-1 $514 $373 $515 $516 reversed $246 $-1 #
coedge $-1 $517 $518 $373 $447 forward $519 $-1 #
edge $-1 $520 0 $452 0.6286796564403573928 $373 $521 forward 7 unknown #
coedge $-1 $374 $522 $523 $524 reversed $246 $-1 #
coedge $-1 $405 $407 $374 $450 forward $334 $-1 #
edge $-1 $453 -3.140184917367550087e-17 $525 0.6286796564403575038 $374 $526 forward 7 unknown #
coedge $-1 $375 $406 $517 $527 reversed $276 $-1 #
vertex $-1 $447 $528 #
vertex $-1 $450 $529 #
straight-curve $-1 -3.143398282201788074 75 7.588834764831846158 10 0 0 I I #
coedge $-1 $530 $377 $380 $460 forward $457 $-1 #
coedge $-1 $377 $530 $409 $486 reversed $457 $-1 #
loop $-1 $-1 $530 $531 #
ellipse-curve $-1 -5.214466094067264912 60 -12.58883476483185149 0 -1 0 -1.767766952966365324 0 -1.767766952966365324 1 I I #
coedge $-1 $380 $379 $532 $533 reversed $381 $-1 #
edge $-1 $382 0 $534 1.25 $380 $535 forward 7 unknown #
face $-1 $386 $381 $2 $-1 $536 forward single #
point $-1 -6.982233047033630235 60 -14.35660171779821326 #
coedge $-1 $511 $537 $384 $464 reversed $538 $-1 #
edge $-1 $390 0 $465 0.7853981633974486121 $463 $539 forward 7 unknown #
vertex $-1 $533 $540 #
straight-curve $-1 -14.35660171779820971 60 -6.982233047033633788 0 10 1.776356839400250465e-15 I I #
face $-1 $512 $538 $2 $-1 $541 forward single #
cone-surface $-1 -12.58883476483184261 60 -5.214466094067264912 0 -1 0 -2.5 0 0 1 I I 0 1 2.5 forward I I I I #
straight-curve $-1 -15.08883476483184261 72.5 -5.214466094067264912 0 0 10 I I #
edge $-1 $442 0 $390 1.570796326794896558 $511 $542 forward 7 unknown #
point $-1 -15.08883476483184261 72.5 -5.214466094067264912 #
edge $-1 $322 0 $371 1.570796326794896558 $394 $543 forward 7 unknown #
cone-surface $-1 -13.32106781186547195 72.5 4.482233047033631124 0.7071067811865473507 0 0.7071067811865477948 0 2.5 0 1 I I 0 1 2.5 forward I I I I #
face $-1 $544 $545 $2 $-1 $546 reversed single #
loop $-1 $-1 $547 $402 #
plane-surface $-1 7.588834764831842605 75 -3.143398282201789407 0.7071067811865477948 0 -0.7071067811865473507 -7.071067811865471953 0 -7.071067811865477282 forward_v I I I I #
coedge $-1 $548 $523 $549 $550 forward $403 $-1 #
coedge $-1 $407 $405 $551 $552 reversed $334 $-1 #
coedge $-1 $523 $548 $405 $480 reversed $403 $-1 #
edge $-1 $525 0 $553 1.25 $405 $554 forward 7 unknown #
coedge $-1 $551 $555 $406 $482 forward $556 $-1 #
edge $-1 $557 0 $483 0.6286796564403573928 $481 $558 forward 7 unknown #
vertex $-1 $552 $559 #
straight-curve $-1 3.143398282201786298 75 7.588834764831846158 0 -10 0 I I #
coedge $-1 $410 $409 $502 $560 reversed $411 $-1 #
edge $-1 $412 0 $561 1.25 $409 $562 forward 7 unknown #
face $-1 $531 $411 $2 $-1 $563 forward single #
point $-1 -5.214466094067261359 60 -15.08883476483184616 #
coedge $-1 $503 $435 $414 $490 reversed $509 $-1 #
edge $-1 $491 0 $420 0.7853981633974470578 $489 $564 forward 7 unknown #
vertex $-1 $504 $565 #
straight-curve $-1 5.214466094067261359 60 -15.08883476483184616 0 10 0 I I #
face $-1 $507 $509 $2 $-1 $566 forward single #
cone-surface $-1 5.214466094067261359 60 -12.58883476483184616 0 -1 0 0 0 -2.5 1 I I 0 1 2.5 forward I I I I #
straight-curve $-1 14.35660171779821148 72.5 -6.982233047033630235 -7.071067811865471953 0 -7.07106781186547817 I I #
point $-1 6.982233047033629347 72.5 -14.35660171779821859 #
ellipse-curve $-1 12.58883476483184261 72.5 -5.214466094067261359 -0.7071067811865473507 0 -0.7071067811865477948 0 2.5 0 1 I I #
coedge $-1 $532 $428 $567 $568 forward $500 $-1 #
coedge $-1 $428 $532 $537 $569 forward $500 $-1 #
loop $-1 $-1 $498 $570 #
straight-curve $-1 -5.214466094067262247 75 -12.58883476483184616 -7.071067811865473729 0 7.071067811865477282 I I #
coedge $-1 $431 $430 $485 $560 forward $432 $-1 #
coedge $-1 $435 $489 $430 $504 reversed $509 $-1 #
edge $-1 $364 0 $491 1.570796326794896558 $503 $571 forward 7 unknown #
coedge $-1 $572 $567 $431 $506 reversed $573 $-1 #
edge $-1 $561 0 $433 1.570796326794896558 $505 $574 forward 7 unknown #
face $-1 $487 $432 $2 $-1 $575 forward single #
point $-1 -5.214466094067262247 75 -12.58883476483184616 #
loop $-1 $-1 $489 $493 #
ellipse-curve $-1 5.214466094067261359 72.5 -12.58883476483184616 0.7071067811865471286 0 0.7071067811865480168 1.767766952966369765 0 -1.767766952966367544 1 I I #
coedge $-1 $537 $463 $439 $470 reversed $538 $-1 #
face $-1 $318 $441 $2 $-1 $576 forward single #
point $-1 -12.58883476483184261 75 -5.214466094067264912 #
coedge $-1 $577 $445 $578 $579 reversed $246 $-1 #
coedge $-1 $580 $581 $445 $516 forward $582 $-1 #
edge $-1 $583 0 $520 0.6286796564403578369 $445 $584 forward 7 unknown #
coedge $-1 $585 $446 $451 $527 forward $519 $-1 #
coedge $-1 $446 $585 $580 $586 reversed $519 $-1 #
loop $-1 $-1 $517 $587 #
vertex $-1 $516 $588 #
straight-curve $-1 -7.588834764831842605 75 3.143398282201788518 7.071067811865471953 0 7.071067811865479058 I I #
coedge $-1 $448 $577 $589 $590 reversed $246 $-1 #
coedge $-1 $477 $479 $448 $524 forward $403 $-1 #
edge $-1 $525 0 $591 0.6286796564403578369 $448 $592 forward 7 unknown #
vertex $-1 $450 $593 #
straight-curve $-1 3.143398282201786742 75 7.588834764831846158 7.071067811865471953 0 -7.07106781186547817 I I #
edge $-1 $452 0 $557 1.25 $517 $594 forward 7 unknown #
point $-1 -3.143398282201788074 75 7.588834764831846158 #
point $-1 3.143398282201786298 75 7.588834764831846158 #
coedge $-1 $456 $455 $572 $595 forward $457 $-1 #
face $-1 $596 $457 $2 $-1 $597 forward single #
coedge $-1 $499 $498 $459 $533 forward $500 $-1 #
edge $-1 $534 6.280369834735098941e-17 $465 1.042893218813452094 $459 $598 forward 7 unknown #
vertex $-1 $568 $599 #
straight-curve $-1 -6.982233047033630235 60 -14.35660171779821681 0 10 0 I I #
plane-surface $-1 -6.25 60 -15.08883476483184616 -0.7071067811865476838 0 -0.7071067811865473507 -7.071067811865473729 0 7.071067811865477282 forward_v I I I I #
coedge $-1 $463 $511 $499 $569 reversed $538 $-1 #
loop $-1 $-1 $463 $467 #
ellipse-curve $-1 -12.58883476483184261 72.5 -5.214466094067264912 0 -1 0 -2.5 0 0 1 I I #
point $-1 -14.35660171779820971 72.5 -6.9822330470336329 #
sphere-surface $-1 -12.58883476483184261 72.5 -5.214466094067264912 2.5 1 0 0 0 0 1 forward_v I I I I #
ellipse-curve $-1 -12.58883476483184261 72.5 -5.214466094067264912 0 0 1 0 2.5 0 1 I I #
ellipse-curve $-1 -12.58883476483184261 72.5 5.214466094067261359 4.440892098500626162e-16 0 -1 -2.5 0 -1.11022302462515654e-15 1 I I #
face $-1 $600 $601 $2 $-1 $602 reversed single #
loop $-1 $-1 $603 $474 #
plane-surface $-1 3.14339828220178763 75 -7.588834764831846158 0 0 -1 -10 0 0 forward_v I I I I #
coedge $-1 $604 $589 $605 $606 forward $475 $-1 #
coedge $-1 $479 $477 $607 $608 reversed $403 $-1 #
coedge $-1 $589 $604 $477 $550 reversed $475 $-1 #
edge $-1 $591 0 $609 1.25 $477 $610 forward 7 unknown #
coedge $-1 $607 $481 $478 $552 forward $556 $-1 #
edge $-1 $483 0 $553 0.6286796564403575038 $551 $611 forward 7 unknown #
vertex $-1 $552 $612 #
straight-curve $-1 7.588834764831842605 75 3.143398282201789407 0 -10 0 I I #
coedge $-1 $481 $613 $585 $614 forward $556 $-1 #
loop $-1 $-1 $607 $615 #
vertex $-1 $482 $616 #
straight-curve $-1 -3.143398282201786742 62.5 7.588834764831846158 10 0 0 I I #
point $-1 3.143398282201786742 62.5 7.588834764831846158 #
edge $-1 $491 0 $561 1.042893218813452538 $485 $617 forward 7 unknown #
vertex $-1 $560 $618 #
straight-curve $-1 -5.214466094067260471 60 -15.08883476483184616 0 10 0 I I #
plane-surface $-1 6.25 60 -15.08883476483184616 0 0 -1 -10 0 0 forward_v I I I I #
ellipse-curve $-1 5.214466094067261359 72.5 -12.58883476483184616 0 -1 0 0 0 -2.5 1 I I #
point $-1 5.214466094067261359 72.5 -15.08883476483184616 #
sphere-surface $-1 5.214466094067261359 72.5 -12.58883476483184616 2.5 1 0 0 0 0 1 forward_v I I I I #
coedge $-1 $505 $572 $498 $568 reversed $573 $-1 #
edge $-1 $433 0 $534 1.570796326794896558 $567 $619 forward 7 unknown #
edge $-1 $465 0 $442 1.570796326794896558 $537 $620 forward 7 unknown #
face $-1 $461 $500 $2 $-1 $621 forward single #
ellipse-curve $-1 5.214466094067261359 72.5 -12.58883476483184616 -1 0 0 0 2.5 0 1 I I #
coedge $-1 $567 $505 $530 $595 reversed $573 $-1 #
loop $-1 $-1 $572 $596 #
ellipse-curve $-1 -5.214466094067262247 72.5 -12.58883476483184616 1 0 -4.440892098500626162e-16 -1.11022302462515654e-15 0 -2.5 1 I I #
cone-surface $-1 6.25 72.5 -12.58883476483184616 -1 0 0 0 2.5 0 1 I I 0 1 2.5 forward I I I I #
cone-surface $-1 -12.58883476483184261 72.5 -6.25 0 0 1 0 2.5 0 1 I I 0 1 2.5 forward I I I I #
coedge $-1 $522 $514 $622 $623 reversed $246 $-1 #
coedge $-1 $624 $625 $514 $579 forward $601 $-1 #
edge $-1 $626 -3.140184917367550087e-17 $583 0.6286796564403575038 $514 $627 forward 7 unknown #
coedge $-1 $628 $515 $518 $586 forward $582 $-1 #
coedge $-1 $515 $628 $624 $629 reversed $582 $-1 #
loop $-1 $-1 $580 $600 #
vertex $-1 $579 $630 #
straight-curve $-1 -7.588834764831842605 75 -3.143398282201789407 0 0 10 I I #
coedge $-1 $518 $517 $555 $614 reversed $519 $-1 #
edge $-1 $520 0 $631 1.25 $580 $632 forward 7 unknown #
face $-1 $615 $519 $2 $-1 $633 reversed single #
point $-1 -7.588834764831842605 75 3.143398282201788518 #
coedge $-1 $547 $549 $522 $590 forward $475 $-1 #
edge $-1 $591 0 $634 0.6286796564403573928 $522 $635 forward 7 unknown #
vertex $-1 $524 $636 #
straight-curve $-1 7.588834764831842605 75 3.143398282201789407 0 0 -10 I I #
point $-1 7.588834764831842605 75 3.143398282201789407 #
straight-curve $-1 -3.143398282201788074 75 7.588834764831846158 0 -10 0 I I #
edge $-1 $534 -3.552713678800499154e-16 $561 0.785398163397448279 $572 $637 forward 7 unknown #
face $-1 $570 $573 $2 $-1 $638 forward single #
cone-surface $-1 -5.214466094067261359 60 -12.58883476483184616 0 -1 0 -1.767766952966368432 0 -1.767766952966369542 1 I I 0 1 2.5 forward I I I I #
straight-curve $-1 -6.9822330470336329 72.5 -14.35660171779821326 -7.071067811865473729 0 7.071067811865477282 I I #
point $-1 -6.982233047033633788 72.5 -14.35660171779821326 #
face $-1 $587 $582 $2 $-1 $639 reversed single #
loop $-1 $-1 $624 $544 #
plane-surface $-1 -3.143398282201786742 75 -7.588834764831846158 -0.7071067811865477948 0 -0.7071067811865473507 -7.071067811865471953 0 7.071067811865477282 forward_v I I I I #
coedge $-1 $640 $622 $625 $641 forward $545 $-1 #
coedge $-1 $549 $547 $642 $643 reversed $475 $-1 #
coedge $-1 $622 $640 $547 $606 reversed $545 $-1 #
edge $-1 $634 0 $644 1.25 $547 $645 forward 7 unknown #
coedge $-1 $642 $551 $548 $608 forward $556 $-1 #
edge $-1 $553 0 $609 0.6286796564403578369 $607 $646 forward 7 unknown #
vertex $-1 $643 $647 #
straight-curve $-1 7.588834764831842605 75 -3.143398282201789407 0 -10 0 I I #
straight-curve $-1 3.143398282201786742 62.5 7.588834764831846158 7.071067811865471953 0 -7.07106781186547817 I I #
point $-1 7.588834764831842605 62.5 3.143398282201789407 #
coedge $-1 $555 $648 $628 $649 forward $556 $-1 #
edge $-1 $631 0 $557 0.6286796564403571708 $555 $650 forward 7 unknown #
face $-1 $-1 $556 $2 $-1 $651 forward single #
point $-1 -3.143398282201786742 62.5 7.588834764831846158 #
straight-curve $-1 5.214466094067261359 72.5 -15.08883476483184616 -10 0 0 I I #
point $-1 -5.214466094067264912 72.5 -15.08883476483184616 #
ellipse-curve $-1 -5.214466094067262247 72.5 -12.58883476483184616 -0.7071067811865473507 0 0.7071067811865477948 0 2.5 0 1 I I #
ellipse-curve $-1 -12.58883476483184261 72.5 -5.214466094067264912 0.7071067811865480168 0 -0.7071067811865471286 -1.767766952966367544 0 -1.767766952966369765 1 I I #
cone-surface $-1 -4.482233047033631124 72.5 -13.32106781186547906 -0.7071067811865473507 0 0.7071067811865477948 0 2.5 0 1 I I 0 1 2.5 forward I I I I #
coedge $-1 $603 $605 $577 $623 forward $545 $-1 #
edge $-1 $634 0 $626 0.6286796564403573928 $577 $652 forward 7 unknown #
coedge $-1 $653 $578 $581 $629 forward $601 $-1 #
coedge $-1 $578 $653 $603 $641 reversed $601 $-1 #
vertex $-1 $623 $654 #
straight-curve $-1 -3.143398282201786742 75 -7.588834764831846158 -7.071067811865471953 0 7.07106781186547817 I I #
coedge $-1 $581 $580 $613 $649 reversed $582 $-1 #
edge $-1 $583 0 $655 1.25 $624 $656 forward 7 unknown #
point $-1 -7.588834764831842605 75 -3.143398282201789407 #
vertex $-1 $614 $657 #
straight-curve $-1 -7.588834764831842605 75 3.143398282201789407 0 -10 0 I I #
plane-surface $-1 -7.588834764831842605 75 3.143398282201789407 -0.7071067811865477948 0 0.7071067811865473507 7.071067811865471953 0 7.071067811865477282 forward_v I I I I #
vertex $-1 $590 $658 #
straight-curve $-1 7.588834764831842605 75 -3.143398282201788518 -7.071067811865471953 0 -7.071067811865479058 I I #
point $-1 7.588834764831842605 75 -3.143398282201788518 #
ellipse-curve $-1 -5.214466094067262247 72.5 -12.58883476483184616 0 -1 0 -1.767766952966370875 0 -1.767766952966367544 1 I I #
sphere-surface $-1 -5.214466094067262247 72.5 -12.58883476483184616 2.5 1 0 0 0 0 1 forward_v I I I I #
plane-surface $-1 -7.588834764831842605 75 -3.143398282201789407 -1 0 0 0 0 10 forward_v I I I I #
coedge $-1 $605 $603 $659 $660 reversed $545 $-1 #
edge $-1 $626 0 $661 1.25 $603 $662 forward 7 unknown #
coedge $-1 $659 $607 $604 $643 forward $556 $-1 #
edge $-1 $609 0 $644 0.6286796564403571708 $642 $663 forward 7 unknown #
vertex $-1 $660 $664 #
straight-curve $-1 3.143398282201788074 75 -7.588834764831846158 0 -10 0 I I #
straight-curve $-1 7.588834764831842605 62.5 3.143398282201789407 0 0 -10 I I #
point $-1 7.588834764831842605 62.5 -3.143398282201789407 #
coedge $-1 $613 $659 $653 $665 forward $556 $-1 #
edge $-1 $655 0 $631 0.6286796564403578369 $613 $666 forward 7 unknown #
straight-curve $-1 -7.588834764831842605 62.5 3.143398282201789407 7.071067811865473729 0 7.07106781186547817 I I #
plane-surface $-1 0 62.5 0 0 1 0 -10 0 0 forward_v I I I I #
straight-curve $-1 3.143398282201788074 75 -7.588834764831846158 -10 0 0 I I #
coedge $-1 $625 $624 $648 $665 reversed $601 $-1 #
point $-1 -3.143398282201786298 75 -7.588834764831846158 #
vertex $-1 $649 $667 #
straight-curve $-1 -7.588834764831842605 75 -3.143398282201789407 0 -10 0 I I #
point $-1 -7.588834764831842605 62.5 3.143398282201789407 #
point $-1 3.143398282201788074 75 -7.588834764831846158 #
coedge $-1 $648 $642 $640 $660 forward $556 $-1 #
edge $-1 $644 0 $661 0.6286796564403573928 $659 $668 forward 7 unknown #
vertex $-1 $665 $669 #
straight-curve $-1 -3.143398282201786298 75 -7.588834764831846158 0 -10 0 I I #
straight-curve $-1 7.588834764831842605 62.5 -3.143398282201789407 -7.071067811865473729 0 -7.07106781186547817 I I #
point $-1 3.143398282201786742 62.5 -7.588834764831846158 #
edge $-1 $661 0 $655 0.6286796564403575038 $648 $670 forward 7 unknown #
straight-curve $-1 -7.588834764831842605 62.5 -3.143398282201789407 0 0 10 I I #
point $-1 -7.588834764831842605 62.5 -3.143398282201789407 #
straight-curve $-1 3.143398282201786742 62.5 -7.588834764831846158 -10 0 0 I I #
point $-1 -3.143398282201786742 62.5 -7.588834764831846158 #
straight-curve $-1 -3.143398282201786742 62.5 -7.588834764831846158 -7.071067811865471953 0 7.07106781186547817 I I #
End-of-ACIS-data 