600 0 1 0           
98 GICL ACIS Healer - Source: /gicl/data5/repository/PTC/V18/asmdes18/parts/boot_smooth.prt.sat - 6 0 18 ACIS 6.0.3 Solaris 24 Sat Apr 13 23:05:10 2002 
1 9.999999999999999547e-07 1.000000000000000036e-10 
body $-1 $1 $-1 $-1 #
lump $-1 $-1 $2 $0 #
shell $-1 $-1 $-1 $3 $-1 $1 #
face $-1 $4 $5 $2 $-1 $6 forward single #
face $-1 $7 $8 $2 $-1 $9 reversed single #
loop $-1 $-1 $10 $3 #
cone-surface $-1 0 167.9999999999999716 0 0 -1 0 -115 0 0 1 I I 0 1 115 forward I I I I #
face $-1 $11 $12 $2 $-1 $13 forward single #
loop $-1 $-1 $14 $4 #
torus-surface $-1 0 7.5 0 0 -1 0 122.5 7.5 -1 0 0 forward_v I I I I #
coedge $-1 $15 $16 $17 $18 forward $5 $-1 #
face $-1 $19 $20 $2 $-1 $21 forward single #
loop $-1 $22 $23 $7 #
plane-surface $-1 0 15 0 0 -1 0 -10 0 0 forward_v I I I I #
coedge $-1 $24 $25 $26 $27 forward $8 $-1 #
coedge $-1 $28 $10 $29 $30 reversed $5 $-1 #
coedge $-1 $10 $28 $31 $32 forward $5 $-1 #
coedge $-1 $25 $24 $10 $18 reversed $8 $-1 #
edge $-1 $33 0 $34 3.141592653589793116 $10 $35 forward 7 unknown #
face $-1 $36 $37 $2 $-1 $38 forward single #
loop $-1 $-1 $39 $11 #
torus-surface $-1 0 22.5 0 0 -1 0 125 7.5 -1 0 0 forward_v I I I I #
loop $-1 $-1 $26 $7 #
coedge $-1 $40 $40 $39 $41 reversed $12 $-1 #
coedge $-1 $17 $14 $42 $43 reversed $8 $-1 #
coedge $-1 $14 $17 $44 $45 forward $8 $-1 #
coedge $-1 $46 $46 $14 $27 reversed $22 $-1 #
edge $-1 $47 1.224606353822377258e-16 $48 3.141592653589793116 $14 $49 forward 7 unknown #
coedge $-1 $16 $15 $50 $51 reversed $5 $-1 #
coedge $-1 $52 $53 $15 $30 forward $54 $-1 #
edge $-1 $55 0 $34 0.749999999999999889 $15 $56 forward 7 unknown #
coedge $-1 $53 $52 $16 $32 reversed $54 $-1 #
edge $-1 $57 0 $33 0.75 $16 $58 forward 7 unknown #
vertex $-1 $32 $59 #
vertex $-1 $30 $60 #
ellipse-curve $-1 0 7.499999999999999112 0 0 -1 0 115 0 1.408297306895733847e-14 1 I I #
face $-1 $61 $62 $2 $-1 $63 forward single #
loop $-1 $-1 $64 $19 #
torus-surface $-1 0 22.5 0 0 -1 0 125 7.5 -1 0 0 forward_v I I I I #
coedge $-1 $65 $66 $23 $41 forward $20 $-1 #
coedge $-1 $23 $23 $67 $68 forward $12 $-1 #
edge $-1 $69 0 $70 3.141592653589793116 $23 $71 forward 7 unknown #
coedge $-1 $72 $73 $24 $43 forward $74 $-1 #
edge $-1 $34 8.8817841970013354e-17 $48 1.570796326794900333 $24 $75 forward 7 unknown #
coedge $-1 $73 $72 $25 $45 reversed $74 $-1 #
edge $-1 $33 2.072416312633636668e-16 $47 1.570796326794900333 $25 $76 forward 7 unknown #
coedge $-1 $26 $26 $72 $77 forward $22 $-1 #
vertex $-1 $45 $78 #
vertex $-1 $43 $79 #
ellipse-curve $-1 0 15 0 0 -1 0 122.5 0 0 1 I I #
coedge $-1 $80 $80 $28 $51 forward $81 $-1 #
edge $-1 $57 0 $55 3.141592653589793116 $28 $82 forward 7 unknown #
coedge $-1 $31 $29 $73 $83 reversed $54 $-1 #
coedge $-1 $29 $31 $80 $84 forward $54 $-1 #
loop $-1 $-1 $53 $85 #
vertex $-1 $51 $86 #
straight-curve $-1 -115 0 -2.816594613791467694e-14 0 10 0 I I #
vertex $-1 $32 $87 #
straight-curve $-1 115 0 1.408297306895733847e-14 0 10 0 I I #
point $-1 115 7.5 1.408297306895733847e-14 #
point $-1 -115 7.499999999999999112 -2.816594613791467694e-14 #
face $-1 $88 $89 $2 $-1 $90 forward single #
loop $-1 $-1 $91 $36 #
cone-surface $-1 0 311.6940467548341189 0 0 1 0 -4.4522868530853561 0 0 1 I I -0.4067366430757998197 0.9135454576426010886 4.4522868530853561 forward I I I I #
coedge $-1 $92 $93 $94 $95 forward $37 $-1 #
coedge $-1 $96 $39 $92 $97 forward $20 $-1 #
coedge $-1 $39 $96 $93 $98 reversed $20 $-1 #
coedge $-1 $93 $92 $40 $68 reversed $37 $-1 #
edge $-1 $69 2.584939414228211914e-32 $70 3.141592653589793116 $40 $99 forward 7 unknown #
vertex $-1 $68 $100 #
vertex $-1 $68 $101 #
ellipse-curve $-1 0 15 8.881784197001252323e-15 0 1 0 125 0 6.425795225778463404e-15 1 I I #
coedge $-1 $44 $42 $46 $77 reversed $74 $-1 #
coedge $-1 $42 $44 $52 $83 forward $74 $-1 #
loop $-1 $-1 $73 $102 #
ellipse-curve $-1 -122.4999999999999858 7.500000000000010658 -3.000285566864823652e-14 -2.449212707644750079e-16 6.083751390672366624e-31 1 7.499999999999982236 -1.221245327087672194e-14 1.836909530733557999e-15 1 I I #
ellipse-curve $-1 122.4999999999999858 7.500000000000010658 1.500142783432411826e-14 1.22460635382237504e-16 3.041875695336183312e-31 -1 -7.499999999999982236 -1.221245327087672194e-14 -9.184547653667789994e-16 1 I I #
edge $-1 $47 -1.224606353822377258e-16 $48 3.141592653589793116 $46 $103 forward 7 unknown #
point $-1 122.5 15 1.500142783432412141e-14 #
point $-1 -122.5 15 0 #
coedge $-1 $50 $50 $53 $84 reversed $81 $-1 #
loop $-1 $104 $80 $105 #
ellipse-curve $-1 0 0 4.440892098500626162e-15 0 -1 0 115 0 9.642080970456712308e-15 1 I I #
edge $-1 $33 0 $34 3.141592653589793116 $52 $106 forward 7 unknown #
edge $-1 $57 0 $55 3.141592653589793116 $80 $107 forward 7 unknown #
face $-1 $102 $54 $2 $-1 $108 forward single #
point $-1 -115 0 0 #
point $-1 115 0 1.408297306895733847e-14 #
face $-1 $109 $110 $2 $-1 $111 reversed single #
loop $-1 $-1 $112 $61 #
torus-surface $-1 0 110 0 0 -1 0 39.52044819899616357 50 -1 0 0 forward_v I I I I #
coedge $-1 $113 $114 $115 $116 forward $62 $-1 #
coedge $-1 $67 $64 $65 $97 reversed $37 $-1 #
coedge $-1 $64 $67 $66 $98 forward $37 $-1 #
coedge $-1 $114 $113 $64 $95 reversed $62 $-1 #
edge $-1 $117 2.323269792984195505e-32 $118 3.141592653589793116 $64 $119 forward 7 unknown #
coedge $-1 $66 $65 $120 $121 reversed $20 $-1 #
edge $-1 $70 -4.736951571734002159e-16 $118 1.989675347273523798 $92 $122 forward 7 unknown #
edge $-1 $69 -4.736951571733991313e-16 $117 1.989675347273531791 $93 $123 forward 7 unknown #
ellipse-curve $-1 8.881784197001252323e-15 15 -8.881784197001252323e-15 0 -1 0 125 0 2.418936361978096805e-14 1 I I #
point $-1 125 15 1.530757942277971573e-14 #
point $-1 -125 15 0 #
face $-1 $124 $74 $2 $-1 $125 reversed single #
ellipse-curve $-1 0 15 0 0 1 0 122.5 0 0 1 I I #
loop $-1 $-1 $126 $105 #
face $-1 $85 $81 $2 $-1 $127 forward single #
ellipse-curve $-1 0 7.499999999999999112 0 0 1 0 115 0 1.408297306895733847e-14 1 I I #
ellipse-curve $-1 -4.440892098500626162e-15 0 -4.440892098500626162e-15 0 1 0 115 0 1.852386516745796463e-14 1 I I #
cone-surface $-1 0 167.9999999999999716 0 0 -1 0 -115 0 0 1 I I 0 1 115 forward I I I I #
face $-1 $128 $129 $2 $-1 $130 reversed single #
loop $-1 $131 $132 $88 #
plane-surface $-1 0 160 0 0 -1 0 -10 0 0 forward_v I I I I #
coedge $-1 $133 $134 $135 $136 forward $89 $-1 #
coedge $-1 $94 $91 $137 $138 reversed $62 $-1 #
coedge $-1 $91 $94 $139 $140 forward $62 $-1 #
coedge $-1 $134 $133 $91 $116 reversed $89 $-1 #
edge $-1 $141 -2.782174992152704497e-32 $142 3.141592653589793116 $91 $143 forward 7 unknown #
vertex $-1 $98 $144 #
vertex $-1 $97 $145 #
ellipse-curve $-1 0 25.55052482306845008 0 0 -1 0 131.8515909323195388 0 1.61466296017307422e-14 1 I I #
coedge $-1 $137 $139 $96 $121 forward $146 $-1 #
edge $-1 $117 -2.323269792984195505e-32 $118 3.141592653589793116 $96 $147 forward 7 unknown #
ellipse-curve $-1 -124.9999999999999858 22.50000000000000711 -3.061515884555942514e-14 2.449212707644763391e-16 4.717244410452442825e-31 -1 -1.776356839400250465e-14 -7.500000000000008882 -7.888609052210118054e-30 1 I I #
ellipse-curve $-1 124.9999999999999858 22.50000000000000711 1.530757942277971257e-14 -1.224606353822381696e-16 2.358622205226221412e-31 1 1.776356839400250465e-14 -7.500000000000008882 3.944304526105059027e-30 1 I I #
face $-1 $148 $149 $2 $-1 $150 reversed single #
torus-surface $-1 0 7.5 0 0 -1 0 122.5 7.5 -1 0 0 forward_v I I I I #
coedge $-1 $151 $151 $152 $153 reversed $104 $-1 #
plane-surface $-1 0 0 0 0 -1 0 -10 0 0 forward_v I I I I #
face $-1 $154 $155 $2 $-1 $156 reversed single #
loop $-1 $-1 $157 $109 #
cone-surface $-1 0 167.9999999999999716 0 0 -1 0 -35 0 0 1 I I 0 1 35 forward I I I I #
loop $-1 $-1 $135 $88 #
coedge $-1 $158 $158 $157 $159 reversed $110 $-1 #
coedge $-1 $115 $112 $160 $161 reversed $89 $-1 #
coedge $-1 $112 $115 $162 $163 forward $89 $-1 #
coedge $-1 $164 $164 $112 $136 reversed $131 $-1 #
edge $-1 $165 1.224606353822377505e-16 $166 3.141592653589793116 $112 $167 forward 7 unknown #
coedge $-1 $168 $120 $113 $138 forward $146 $-1 #
edge $-1 $118 0 $142 11.47028934948918888 $113 $169 forward 7 unknown #
coedge $-1 $120 $168 $114 $140 reversed $146 $-1 #
edge $-1 $117 6.024363233779231584e-15 $141 11.47028934948918888 $114 $170 forward 7 unknown #
vertex $-1 $140 $171 #
vertex $-1 $138 $172 #
ellipse-curve $-1 0 130.3368321537899988 0 0 -1 0 85.19772108112620401 0 1.043336705671338686e-14 1 I I #
point $-1 131.8515909323195103 25.55052482306850337 1.61466296017307422e-14 #
point $-1 -131.8515909323195388 25.55052482306845008 -3.22932592034614844e-14 #
loop $-1 $-1 $120 $173 #
ellipse-curve $-1 0 25.55052482306845008 0 0 1 0 131.8515909323195388 0 1.61466296017307422e-14 1 I I #
face $-1 $174 $175 $2 $-1 $176 reversed single #
loop $-1 $-1 $177 $124 #
cone-surface $-1 0 167.9999999999999716 0 0 -1 0 -111 0 0 1 I I 0 1 111 forward I I I I #
coedge $-1 $126 $126 $178 $179 forward $104 $-1 #
coedge $-1 $180 $181 $126 $153 forward $182 $-1 #
edge $-1 $183 1.224606353822377258e-16 $184 3.141592653589793116 $152 $185 forward 7 unknown #
face $-1 $186 $187 $2 $-1 $188 forward single #
loop $-1 $-1 $189 $128 #
cone-surface $-1 0 167.9999999999999716 0 0 -1 0 -35 0 0 1 I I 0 1 35 forward I I I I #
coedge $-1 $190 $191 $132 $159 forward $129 $-1 #
coedge $-1 $132 $132 $192 $193 forward $110 $-1 #
edge $-1 $194 0 $195 3.141592653589793116 $132 $196 forward 7 unknown #
coedge $-1 $197 $198 $133 $161 forward $199 $-1 #
edge $-1 $142 2.273736754432323107e-16 $166 1.15191730631625866 $133 $200 forward 7 unknown #
coedge $-1 $198 $197 $134 $163 reversed $199 $-1 #
edge $-1 $141 3.183231456205253238e-16 $165 1.151917306316258882 $134 $201 forward 7 unknown #
coedge $-1 $135 $135 $197 $202 forward $131 $-1 #
vertex $-1 $163 $203 #
vertex $-1 $161 $204 #
ellipse-curve $-1 0 160 0 0 -1 0 39.52044819899616357 0 0 1 I I #
coedge $-1 $139 $137 $198 $205 reversed $146 $-1 #
straight-curve $-1 -131.8515909323195388 25.55052482306845008 -3.22932592034614844e-14 4.067366430757998863 9.13545457642601022 9.961845548860177996e-16 I I #
straight-curve $-1 131.8515909323195388 25.55052482306845008 1.61466296017307422e-14 -4.067366430757998863 9.13545457642601022 -4.980922774430088998e-16 I I #
point $-1 85.1977210811261898 130.3368321537899988 1.04333670567133837e-14 #
point $-1 -85.19772108112620401 130.3368321537899988 -2.086673411342677372e-14 #
face $-1 $-1 $146 $2 $-1 $206 forward single #
face $-1 $207 $208 $2 $-1 $209 reversed single #
loop $-1 $-1 $210 $148 #
torus-surface $-1 0 22.5 0 0 -1 0 125 3.5 -1 0 0 forward_v I I I I #
coedge $-1 $211 $212 $213 $214 forward $149 $-1 #
coedge $-1 $212 $211 $151 $179 reversed $149 $-1 #
edge $-1 $183 -1.224606353822377012e-16 $184 3.141592653589793116 $151 $215 forward 7 unknown #
coedge $-1 $216 $152 $211 $217 reversed $182 $-1 #
coedge $-1 $152 $216 $212 $218 forward $182 $-1 #
loop $-1 $-1 $152 $219 #
vertex $-1 $218 $220 #
vertex $-1 $217 $221 #
ellipse-curve $-1 0 0 -8.881784197001252323e-15 0 -1 0 111 0 8.881784197001252323e-15 1 I I #
face $-1 $222 $223 $2 $-1 $224 reversed single #
loop $-1 $225 $226 $154 #
plane-surface $-1 0 156 0 0 -1 0 -10 0 0 forward_v I I I I #
coedge $-1 $227 $228 $229 $230 forward $155 $-1 #
coedge $-1 $231 $157 $227 $232 forward $129 $-1 #
coedge $-1 $157 $231 $228 $233 reversed $129 $-1 #
coedge $-1 $228 $227 $158 $193 reversed $155 $-1 #
edge $-1 $194 0 $195 3.141592653589793116 $158 $234 forward 7 unknown #
vertex $-1 $193 $235 #
vertex $-1 $193 $236 #
ellipse-curve $-1 0 160 -1.11022302462515654e-15 1.015061051085857352e-15 1 1.565034255624713363e-31 35 -3.552713678800500929e-14 5.396345263003476944e-15 1 I I #
coedge $-1 $162 $160 $164 $202 reversed $199 $-1 #
coedge $-1 $160 $162 $168 $205 forward $199 $-1 #
loop $-1 $-1 $198 $207 #
ellipse-curve $-1 -39.52044819899617778 110.0000000000000284 -9.679398394079788782e-15 2.449212707644752544e-16 4.259848888193469284e-31 -1 -45.67727288213003334 20.33683215378996323 -1.118733571934698494e-14 1 I I #
ellipse-curve $-1 39.52044819899617778 110.0000000000000284 4.839699197039894391e-15 -1.224606353822376272e-16 2.129924444096734642e-31 1 45.67727288213003334 20.33683215378996323 5.593667859673492469e-15 1 I I #
edge $-1 $165 -1.224606353822377505e-16 $166 3.141592653589793116 $164 $237 forward 7 unknown #
point $-1 39.52044819899614936 160 4.839699197039881769e-15 #
point $-1 -39.52044819899616357 160 0 #
edge $-1 $141 2.782174992152704497e-32 $142 3.141592653589793116 $168 $238 forward 7 unknown #
cone-surface $-1 0 311.6940467548341189 0 0 1 0 -4.4522868530853561 0 0 1 I I -0.4067366430757998197 0.9135454576426010886 4.4522868530853561 forward I I I I #
face $-1 $173 $199 $2 $-1 $239 forward single #
loop $-1 $-1 $240 $174 #
cone-surface $-1 0 301.8596734125372336 0 0 1 0 -4.4522868530853561 0 0 1 I I -0.4067366430757998197 0.9135454576426010886 4.4522868530853561 forward I I I I #
coedge $-1 $241 $242 $243 $244 forward $175 $-1 #
coedge $-1 $178 $177 $180 $217 forward $149 $-1 #
coedge $-1 $177 $178 $181 $218 reversed $149 $-1 #
coedge $-1 $245 $246 $177 $214 reversed $247 $-1 #
edge $-1 $248 -1.639058450909658458e-32 $249 3.141592653589793116 $213 $250 forward 7 unknown #
ellipse-curve $-1 0 0 8.881784197001252323e-15 0 1 0 111 0 -8.881784197001252323e-15 1 I I #
coedge $-1 $181 $180 $251 $252 reversed $182 $-1 #
edge $-1 $249 0 $184 0.75 $180 $253 forward 7 unknown #
edge $-1 $248 8.881784197001252816e-17 $183 0.75 $181 $254 forward 7 unknown #
face $-1 $105 $182 $2 $-1 $255 reversed single #
point $-1 111 0 1.359313052742838599e-14 #
point $-1 -111 0 0 #
face $-1 $256 $257 $2 $-1 $258 reversed single #
loop $-1 $-1 $259 $186 #
torus-surface $-1 0 110 0 0 -1 0 39.52044819899616357 46 -1 0 0 forward_v I I I I #
loop $-1 $-1 $229 $154 #
coedge $-1 $260 $260 $259 $261 reversed $187 $-1 #
coedge $-1 $192 $189 $190 $232 reversed $155 $-1 #
coedge $-1 $189 $192 $191 $233 forward $155 $-1 #
coedge $-1 $262 $262 $189 $230 reversed $225 $-1 #
edge $-1 $263 1.224606353822377258e-16 $264 3.141592653589793116 $189 $265 forward 7 unknown #
coedge $-1 $191 $190 $262 $266 reversed $129 $-1 #
edge $-1 $195 0 $264 0.3999999999999971356 $227 $267 forward 7 unknown #
edge $-1 $194 0 $263 0.4000000000000000222 $228 $268 forward 7 unknown #
ellipse-curve $-1 0 160 1.11022302462515654e-15 -1.015061051085857352e-15 -1 -9.210661697300098998e-32 35 -3.552713678800500929e-14 3.175899213753163863e-15 1 I I #
point $-1 35 159.9999999999999716 4.286122238378320404e-15 #
point $-1 -35 159.9999999999999716 0 #
ellipse-curve $-1 0 160 0 0 1 0 39.52044819899616357 0 0 1 I I #
ellipse-curve $-1 0 130.3368321537899988 0 0 1 0 85.19772108112620401 0 1.043336705671338686e-14 1 I I #
torus-surface $-1 0 110 0 0 -1 0 39.52044819899616357 50 -1 0 0 forward_v I I I I #
coedge $-1 $269 $270 $271 $272 forward $208 $-1 #
coedge $-1 $273 $210 $274 $275 forward $175 $-1 #
coedge $-1 $210 $273 $276 $277 reversed $175 $-1 #
coedge $-1 $270 $269 $210 $244 reversed $208 $-1 #
edge $-1 $278 -2.457603961526657994e-32 $279 3.141592653589793116 $243 $280 forward 7 unknown #
coedge $-1 $281 $213 $282 $283 reversed $247 $-1 #
coedge $-1 $213 $281 $284 $285 forward $247 $-1 #
loop $-1 $-1 $281 $286 #
vertex $-1 $283 $287 #
vertex $-1 $285 $288 #
ellipse-curve $-1 0 7.5 0 0 1 0 111 0 1.359313052742838599e-14 1 I I #
coedge $-1 $284 $282 $216 $252 forward $289 $-1 #
edge $-1 $248 1.639058450909658458e-32 $249 3.141592653589793116 $251 $290 forward 7 unknown #
straight-curve $-1 -111 7.5 -2.718626105485677198e-14 0 -10 0 I I #
straight-curve $-1 111 7.5 1.359313052742838599e-14 0 -10 0 I I #
cone-surface $-1 0 167.9999999999999716 0 0 -1 0 -111 0 0 1 I I 0 1 111 forward I I I I #
face $-1 $291 $292 $2 $-1 $293 reversed single #
loop $-1 $-1 $294 $222 #
torus-surface $-1 0 110 0 0 -1 0 39.52044819899616357 46 -1 0 0 forward_v I I I I #
coedge $-1 $295 $296 $226 $261 forward $223 $-1 #
coedge $-1 $226 $226 $297 $298 forward $187 $-1 #
edge $-1 $299 0 $300 3.141592653589793116 $226 $301 forward 7 unknown #
coedge $-1 $229 $229 $231 $266 forward $225 $-1 #
vertex $-1 $233 $302 #
vertex $-1 $232 $303 #
ellipse-curve $-1 0 156 0 0 -1 0 35 0 0 1 I I #
edge $-1 $263 -1.224606353822377258e-16 $264 3.141592653589793116 $262 $304 forward 7 unknown #
straight-curve $-1 -35 159.9999999999999716 -8.572244476756640807e-15 0 -10 0 I I #
straight-curve $-1 35 159.9999999999999716 4.286122238378320404e-15 0 -10 0 I I #
coedge $-1 $243 $240 $305 $306 forward $208 $-1 #
coedge $-1 $240 $243 $307 $308 reversed $208 $-1 #
coedge $-1 $296 $295 $240 $272 reversed $223 $-1 #
edge $-1 $309 0 $310 3.141592653589793116 $271 $311 forward 7 unknown #
coedge $-1 $242 $241 $312 $313 reversed $175 $-1 #
coedge $-1 $314 $315 $241 $275 reversed $316 $-1 #
edge $-1 $279 3.625218039592334656e-16 $317 1.989675347273533346 $274 $318 forward 7 unknown #
coedge $-1 $315 $314 $242 $277 forward $316 $-1 #
edge $-1 $278 -5.800348863347733477e-16 $319 1.989675347273533346 $276 $320 forward 7 unknown #
vertex $-1 $308 $321 #
vertex $-1 $306 $322 #
ellipse-curve $-1 0 23.9235782507652992 0 0 1 0 128.1974091017491162 0 1.569913617295686015e-14 1 I I #
coedge $-1 $246 $245 $323 $324 forward $247 $-1 #
coedge $-1 $251 $325 $245 $283 forward $289 $-1 #
edge $-1 $326 -3.089316242435216635e-16 $248 1.570796326794893893 $282 $327 forward 7 unknown #
coedge $-1 $325 $251 $246 $285 reversed $289 $-1 #
edge $-1 $328 -3.089316242435210718e-16 $249 1.570796326794893893 $284 $329 forward 7 unknown #
face $-1 $330 $247 $2 $-1 $331 forward single #
point $-1 111 7.499999999999999112 1.359313052742838757e-14 #
point $-1 -111 7.5 -2.718626105485677198e-14 #
loop $-1 $-1 $251 $330 #
ellipse-curve $-1 0 7.5 0 0 -1 0 111 0 1.359313052742838599e-14 1 I I #
face $-1 $332 $316 $2 $-1 $333 reversed single #
loop $-1 $-1 $334 $256 #
cone-surface $-1 0 301.8596734125372336 0 0 1 0 -4.4522868530853561 0 0 1 I I -0.4067366430757998197 0.9135454576426010886 4.4522868530853561 forward I I I I #
coedge $-1 $335 $336 $337 $338 forward $257 $-1 #
coedge $-1 $271 $259 $335 $339 forward $223 $-1 #
coedge $-1 $259 $271 $336 $340 reversed $223 $-1 #
coedge $-1 $336 $335 $260 $298 reversed $257 $-1 #
edge $-1 $299 0 $300 3.141592653589793116 $260 $341 forward 7 unknown #
vertex $-1 $298 $342 #
vertex $-1 $298 $343 #
ellipse-curve $-1 0 156 1.11022302462515654e-15 0 1 0 39.52044819899614936 0 3.729476172414725229e-15 1 I I #
point $-1 35 155.9999999999999716 4.286122238378320404e-15 #
point $-1 -35 156 0 #
ellipse-curve $-1 0 156 0 0 1 0 35 0 0 1 I I #
coedge $-1 $337 $334 $269 $306 reversed $292 $-1 #
edge $-1 $310 -0 $279 11.47028934948918355 $305 $344 forward 7 unknown #
coedge $-1 $334 $337 $270 $308 forward $292 $-1 #
edge $-1 $309 2.018444820648429501e-15 $278 11.47028934948918355 $307 $345 forward 7 unknown #
vertex $-1 $340 $346 #
vertex $-1 $339 $347 #
ellipse-curve $-1 0 128.7098855814868159 0 0 1 0 81.54353925055582408 0 9.98587362793950639e-15 1 I I #
coedge $-1 $348 $348 $273 $313 forward $349 $-1 #
edge $-1 $319 -1.224606353822377258e-16 $317 3.141592653589793116 $312 $350 forward 7 unknown #
coedge $-1 $276 $274 $334 $351 reversed $316 $-1 #
coedge $-1 $274 $276 $348 $352 forward $316 $-1 #
loop $-1 $-1 $315 $291 #
vertex $-1 $275 $353 #
ellipse-curve $-1 -125 22.50000000000000355 -3.061515884555942514e-14 -2.449212707644763884e-16 -7.546501006578546141e-31 1 -3.197409101749109084 1.423578250765293873 -7.831135003542935841e-16 1 I I #
vertex $-1 $277 $354 #
ellipse-curve $-1 125 22.50000000000000355 1.530757942277971257e-14 1.224606353822381942e-16 -3.773250503289273071e-31 -1 3.197409101749109084 1.423578250765293873 3.915567501771467921e-16 1 I I #
point $-1 128.1974091017491162 23.92357825076530276 1.569913617295686331e-14 #
point $-1 -128.1974091017491162 23.9235782507652992 -3.139827234591372031e-14 #
coedge $-1 $355 $355 $281 $324 reversed $356 $-1 #
edge $-1 $326 0 $328 3.141592653589793116 $323 $357 forward 7 unknown #
coedge $-1 $282 $284 $355 $358 reversed $289 $-1 #
vertex $-1 $358 $359 #
ellipse-curve $-1 122.5000000000000142 7.499999999999986677 1.500142783432412457e-14 -1.22460635382237997e-16 1.53823187297362543e-31 1 -1.776356839400250465e-14 11.50000000000001243 -3.944304526105059027e-30 1 I I #
vertex $-1 $358 $360 #
ellipse-curve $-1 -122.5000000000000142 7.499999999999986677 -3.000285566864824914e-14 2.44921270764475994e-16 3.076463745947250861e-31 -1 1.776356839400250465e-14 11.50000000000001243 7.888609052210118054e-30 1 I I #
face $-1 $219 $289 $2 $-1 $361 forward single #
torus-surface $-1 0 7.5 0 0 -1 0 122.5 11.5 -1 0 0 forward_v I I I I #
face $-1 $286 $356 $2 $-1 $362 reversed single #
torus-surface $-1 0 22.5 0 0 -1 0 125 3.5 -1 0 0 forward_v I I I I #
coedge $-1 $305 $307 $314 $351 forward $292 $-1 #
coedge $-1 $297 $294 $295 $339 reversed $257 $-1 #
coedge $-1 $294 $297 $296 $340 forward $257 $-1 #
coedge $-1 $307 $305 $294 $338 reversed $292 $-1 #
edge $-1 $309 0 $310 3.141592653589793116 $294 $363 forward 7 unknown #
edge $-1 $300 -9.654113257610055373e-17 $310 1.151917306316256884 $335 $364 forward 7 unknown #
edge $-1 $299 -9.654113257610050442e-17 $309 1.15191730631625755 $336 $365 forward 7 unknown #
ellipse-curve $-1 3.330669073875469621e-15 156 1.11022302462515654e-15 0 -1 0 39.52044819899614936 0 3.729476172414725229e-15 1 I I #
point $-1 39.52044819899614936 156 4.839699197039881769e-15 #
point $-1 -39.52044819899614936 156 0 #
straight-curve $-1 -81.54353925055582408 128.7098855814868159 -1.997174725587901278e-14 -4.067366430757997975 -9.13545457642601022 -9.961845548860177996e-16 I I #
straight-curve $-1 81.54353925055582408 128.7098855814868159 9.98587362793950639e-15 4.067366430757997975 -9.13545457642601022 4.980922774430088998e-16 I I #
point $-1 81.54353925055580987 128.7098855814867875 9.985873627939504812e-15 #
point $-1 -81.54353925055582408 128.7098855814868159 -1.997174725587901278e-14 #
coedge $-1 $312 $312 $315 $352 reversed $349 $-1 #
loop $-1 $-1 $348 $332 #
ellipse-curve $-1 0 19 0 0 1 0 125 0 0 1 I I #
edge $-1 $278 2.457603961526657994e-32 $279 3.141592653589793116 $334 $366 forward 7 unknown #
edge $-1 $319 1.224606353822377258e-16 $317 3.141592653589793116 $315 $367 forward 7 unknown #
point $-1 -125 19 0 #
point $-1 125 19 1.530757942277971573e-14 #
coedge $-1 $323 $323 $325 $358 forward $356 $-1 #
loop $-1 $349 $323 $332 #
ellipse-curve $-1 0 19 8.881784197001252323e-15 0 1 0 122.5 0 6.11964363732286909e-15 1 I I #
edge $-1 $326 0 $328 3.141592653589793116 $355 $368 forward 7 unknown #
point $-1 122.5 19 1.500142783432412141e-14 #
point $-1 -122.5 19 0 #
torus-surface $-1 0 7.5 0 0 -1 0 122.5 11.5 -1 0 0 forward_v I I I I #
plane-surface $-1 0 19 0 0 -1 0 -10 0 0 forward_v I I I I #
ellipse-curve $-1 0 128.7098855814868159 0 0 -1 0 81.54353925055582408 0 9.98587362793950639e-15 1 I I #
ellipse-curve $-1 -39.52044819899614936 109.9999999999999716 -9.679398394079754072e-15 -2.449212707644755009e-16 1.90719399547172822e-31 1 -4.440892098500626162e-15 46.00000000000002842 -9.860761315262647568e-30 1 I I #
ellipse-curve $-1 39.52044819899614936 109.9999999999999716 4.839699197039877036e-15 1.224606353822377505e-16 9.535969977358641102e-32 -1 4.440892098500626162e-15 46.00000000000002842 4.930380657631323784e-30 1 I I #
ellipse-curve $-1 0 23.9235782507652992 0 0 -1 0 128.1974091017491162 0 1.569913617295686015e-14 1 I I #
ellipse-curve $-1 0 19 0 0 -1 0 125 0 0 1 I I #
ellipse-curve $-1 0 19 -4.440892098500626162e-15 0 -1 0 122.5 0 1.944231993282474757e-14 1 I I #
End-of-ACIS-data 