600 0 1 0           
94 GICL Pro/E ACIS Translator - Source: f:/data5/repository/PTC/V18/asmdes18/parts/boot.prt - 6 0 13 ACIS 6.0.3 NT 24 Thu Apr 04 13:45:06 2002 
1 9.9999999999999995e-007 1e-010 
body $-1 $1 $-1 $2 #
lump $-1 $-1 $3 $0 #
transform $-1 1 0 0 0 1 0 0 0 1 0 0 0 10 no_rotate no_reflect no_shear #
shell $-1 $-1 $-1 $4 $-1 $1 #
face $-1 $5 $6 $3 $-1 $7 forward single #
face $-1 $8 $9 $3 $-1 $10 reversed single #
loop $-1 $-1 $11 $4 #
cone-surface $-1 0 16.799999999999997 0 0 -1 0 -11.5 0 0 1 I I 0 1 11.5 forward I I I I #
face $-1 $12 $13 $3 $-1 $14 forward single #
loop $-1 $-1 $15 $5 #
torus-surface $-1 0 2.5 0 0 -1 0 12.5 1 -1 0 0 forward_v I I I I #
coedge $-1 $16 $17 $18 $19 forward $6 $-1 #
face $-1 $20 $21 $3 $-1 $22 reversed single #
loop $-1 $23 $24 $8 #
plane-surface $-1 0 3.5 0 0 -1 0 -1 0 0 forward_v I I I I #
coedge $-1 $25 $26 $27 $28 forward $9 $-1 #
coedge $-1 $29 $11 $30 $31 forward $6 $-1 #
coedge $-1 $11 $29 $32 $33 forward $6 $-1 #
coedge $-1 $26 $25 $11 $19 reversed $9 $-1 #
edge $-1 $34 0 $35 3.1415926535897931 $11 $36 forward 7 unknown #
face $-1 $37 $38 $3 $-1 $39 forward single #
loop $-1 $-1 $40 $12 #
torus-surface $-1 0 2.5 0 0 -1 0 12.5 1 -1 0 0 forward_v I I I I #
loop $-1 $-1 $41 $8 #
coedge $-1 $27 $27 $42 $43 forward $13 $-1 #
coedge $-1 $18 $15 $44 $45 reversed $9 $-1 #
coedge $-1 $15 $18 $46 $47 forward $9 $-1 #
coedge $-1 $24 $24 $15 $28 reversed $13 $-1 #
edge $-1 $48 1.2246063538223773e-016 $49 3.1415926535897931 $15 $50 forward 7 unknown #
coedge $-1 $17 $16 $51 $52 reversed $6 $-1 #
coedge $-1 $53 $54 $16 $31 reversed $38 $-1 #
edge $-1 $35 0 $55 2.8300000000000001 $16 $56 forward 7 unknown #
coedge $-1 $54 $53 $17 $33 reversed $38 $-1 #
edge $-1 $57 0 $34 2.8300000000000001 $17 $58 forward 7 unknown #
vertex $-1 $33 $59 #
vertex $-1 $31 $60 #
ellipse-curve $-1 0 2.5 0 0 -1 0 11.5 0 1.4082973068957338e-015 1 I I #
face $-1 $61 $62 $3 $-1 $63 forward single #
loop $-1 $-1 $53 $20 #
cone-surface $-1 0 16.799999999999997 0 0 -1 0 -11.5 0 0 1 I I 0 1 11.5 forward I I I I #
coedge $-1 $44 $46 $53 $64 forward $21 $-1 #
coedge $-1 $65 $65 $66 $67 forward $23 $-1 #
coedge $-1 $46 $44 $24 $43 reversed $21 $-1 #
edge $-1 $48 -1.2246063538223773e-016 $49 3.1415926535897931 $24 $68 forward 7 unknown #
coedge $-1 $42 $40 $25 $45 forward $21 $-1 #
edge $-1 $35 -1.7763568394002505e-015 $49 1.5707963267948974 $25 $69 forward 7 unknown #
coedge $-1 $40 $42 $26 $47 reversed $21 $-1 #
edge $-1 $34 -1.7763568394002505e-015 $48 1.5707963267948974 $26 $70 forward 7 unknown #
vertex $-1 $47 $71 #
vertex $-1 $45 $72 #
ellipse-curve $-1 0 3.5 0 0 -1 0 12.5 0 0 1 I I #
coedge $-1 $73 $73 $29 $52 forward $62 $-1 #
edge $-1 $57 2.4492529417097491e-016 $55 3.1415926535897936 $29 $74 forward 7 unknown #
coedge $-1 $32 $30 $40 $64 reversed $38 $-1 #
coedge $-1 $30 $32 $73 $75 reversed $38 $-1 #
vertex $-1 $52 $76 #
straight-curve $-1 -11.5 2.4999999999999982 -2.8165946137914677e-015 0 -1 0 I I #
vertex $-1 $33 $77 #
straight-curve $-1 11.5 -0.33000000000000185 1.4082973068957338e-015 0 1 0 I I #
point $-1 11.5 2.4999999999999982 1.4082973068957338e-015 #
point $-1 -11.5 2.4999999999999982 -2.8165946137914677e-015 #
face $-1 $78 $79 $3 $-1 $80 reversed single #
loop $-1 $81 $73 $37 #
plane-surface $-1 0 -0.33000000000000002 0 0 -1 0 -1 0 0 forward_v I I I I #
edge $-1 $34 0 $35 3.1415926535897931 $53 $82 forward 7 unknown #
coedge $-1 $41 $41 $83 $84 reversed $23 $-1 #
coedge $-1 $85 $86 $41 $67 reversed $87 $-1 #
edge $-1 $88 0 $89 3.1415926535897931 $41 $90 forward 7 unknown #
ellipse-curve $-1 0 3.5 0 0 1 0 12.5 0 0 1 I I #
ellipse-curve $-1 -12.5 2.5000000000000009 -3.0615158845559428e-015 -2.4492127076447506e-016 5.6539211293748696e-031 1 1 -8.8817841970012523e-016 2.4492127076447506e-016 1 I I #
ellipse-curve $-1 12.5 2.5000000000000009 1.5307579422779714e-015 1.2246063538223753e-016 2.8269605646874348e-031 -1 -1 -8.8817841970012523e-016 -1.2246063538223753e-016 1 I I #
point $-1 12.5 3.5 1.5307579422779716e-015 #
point $-1 -12.5 3.5 0 #
coedge $-1 $51 $51 $54 $75 forward $62 $-1 #
ellipse-curve $-1 0 -0.33000000000000002 0 0 -1 0 11.5 0 -1.4083435760704776e-015 1 I I #
edge $-1 $55 3.6738592955321337e-016 $57 3.1415926535897931 $54 $91 forward 7 unknown #
point $-1 -11.5 -0.33000000000000185 -2.8165946137914677e-015 #
point $-1 11.5 -0.33000000000000185 1.4082973068957338e-015 #
face $-1 $92 $93 $3 $-1 $94 reversed single #
loop $-1 $-1 $95 $61 #
cone-surface $-1 0 -0.32999999999999829 0 0 1 0 -9 0 0 1 I I 0 1 9 forward I I I I #
loop $-1 $-1 $96 $37 #
ellipse-curve $-1 0 2.5 0 0 1 0 11.5 0 1.4082973068957338e-015 1 I I #
coedge $-1 $97 $98 $65 $84 forward $99 $-1 #
edge $-1 $88 0 $89 3.1415926535897931 $65 $100 forward 7 unknown #
coedge $-1 $101 $66 $98 $102 forward $87 $-1 #
coedge $-1 $66 $101 $97 $103 reversed $87 $-1 #
loop $-1 $-1 $101 $104 #
vertex $-1 $84 $105 #
vertex $-1 $84 $106 #
ellipse-curve $-1 0 3.5 -1.3322676295501878e-015 0 -1 0 13 0 2.9242558895192783e-015 1 I I #
ellipse-curve $-1 0 -0.33000000000000002 0 0 -1 0 -11.5 0 1.4083435760704867e-015 1 I I #
face $-1 $107 $108 $3 $-1 $109 reversed single #
loop $-1 $-1 $110 $78 #
cone-surface $-1 0 -0.32999999999999829 0 0 1 0 -9 0 0 1 I I 0 1 9 forward I I I I #
coedge $-1 $111 $112 $113 $114 reversed $79 $-1 #
coedge $-1 $115 $115 $111 $116 forward $81 $-1 #
coedge $-1 $117 $83 $86 $103 forward $99 $-1 #
coedge $-1 $83 $117 $85 $102 reversed $99 $-1 #
loop $-1 $-1 $83 $118 #
ellipse-curve $-1 -8.8817841970012523e-016 3.5 8.8817841970012523e-016 0 1 0 13 0 7.038098402689652e-016 1 I I #
coedge $-1 $86 $85 $119 $120 forward $87 $-1 #
edge $-1 $88 0 $121 3.1415926535897931 $85 $122 forward 7 unknown #
edge $-1 $89 0 $123 3.1415926535897931 $86 $124 forward 7 unknown #
face $-1 $125 $87 $3 $-1 $126 forward single #
point $-1 13 3.5 1.5919882599690904e-015 #
point $-1 -13 3.5 -3.1839765199381809e-015 #
face $-1 $127 $128 $3 $-1 $129 reversed single #
loop $-1 $130 $131 $92 #
plane-surface $-1 0 0 0 0 -1 0 -1 0 0 forward_v I I I I #
coedge $-1 $132 $133 $134 $135 reversed $93 $-1 #
coedge $-1 $134 $95 $96 $116 reversed $79 $-1 #
coedge $-1 $95 $134 $136 $137 forward $79 $-1 #
coedge $-1 $133 $132 $95 $114 forward $93 $-1 #
edge $-1 $138 -1.7208456881689926e-015 $139 0.32999999999999829 $113 $140 forward 7 unknown #
coedge $-1 $96 $96 $132 $141 forward $81 $-1 #
edge $-1 $142 0 $138 3.1415926535897931 $96 $143 forward 7 unknown #
coedge $-1 $98 $97 $144 $145 reversed $99 $-1 #
face $-1 $104 $99 $3 $-1 $146 forward single #
coedge $-1 $144 $144 $101 $120 reversed $147 $-1 #
edge $-1 $121 1.2246063538223773e-016 $123 3.1415926535897931 $101 $148 forward 7 unknown #
vertex $-1 $102 $149 #
ellipse-curve $-1 13 5.5 1.5919882599690904e-015 -1.2246063538223773e-016 0 1 0 -2 0 1 I I #
vertex $-1 $103 $150 #
ellipse-curve $-1 -13 5.5 -3.1839765199381809e-015 2.4492127076447545e-016 0 -1 0 -2 0 1 I I #
face $-1 $151 $152 $3 $-1 $153 reversed single #
torus-surface $-1 0 5.5 0 0 -1 0 13 2 -1 0 0 forward_v I I I I #
face $-1 $154 $155 $3 $-1 $156 reversed single #
loop $-1 $-1 $157 $107 #
cone-surface $-1 0 16.799999999999997 0 0 -1 0 -11.17 0 0 1 I I 0 1 11.17 forward I I I I #
loop $-1 $-1 $136 $92 #
coedge $-1 $158 $158 $159 $160 reversed $108 $-1 #
coedge $-1 $113 $110 $115 $141 reversed $93 $-1 #
coedge $-1 $110 $113 $161 $162 forward $93 $-1 #
coedge $-1 $112 $111 $110 $135 forward $79 $-1 #
edge $-1 $142 -1.7208456881689926e-015 $163 0.32999999999999829 $110 $164 forward 7 unknown #
coedge $-1 $161 $161 $112 $137 reversed $130 $-1 #
edge $-1 $163 0 $139 3.1415926535897931 $136 $165 forward 7 unknown #
vertex $-1 $141 $166 #
vertex $-1 $162 $167 #
straight-curve $-1 -9 -0.32999999999999829 0 0 1 0 I I #
edge $-1 $138 0 $142 3.1415926535897931 $115 $168 forward 7 unknown #
vertex $-1 $141 $169 #
ellipse-curve $-1 0 -0.32999999999999829 0 1.9120507646322142e-016 1 0 9 -1.7208456881689926e-015 0 1 I I #
coedge $-1 $119 $119 $117 $145 forward $147 $-1 #
edge $-1 $121 -1.2246063538223773e-016 $123 3.1415926535897931 $144 $170 forward 7 unknown #
torus-surface $-1 0 5.5 0 0 -1 0 13 2 -1 0 0 forward_v I I I I #
loop $-1 $171 $144 $172 #
ellipse-curve $-1 0 7.5 0 0 -1 0 13 0 0 1 I I #
point $-1 13 7.5 1.5919882599690904e-015 #
point $-1 -13 7.5 0 #
face $-1 $173 $174 $3 $-1 $175 forward single #
loop $-1 $-1 $176 $125 #
torus-surface $-1 0 8.5 0 0 -1 0 10 1 -1 0 0 forward_v I I I I #
face $-1 $177 $178 $3 $-1 $179 forward single #
loop $-1 $-1 $180 $127 #
cone-surface $-1 0 16.799999999999997 0 0 -1 0 -11.17 0 0 1 I I 0 1 11.17 forward I I I I #
coedge $-1 $181 $159 $182 $183 forward $128 $-1 #
coedge $-1 $131 $131 $184 $185 reversed $108 $-1 #
coedge $-1 $157 $186 $131 $160 forward $128 $-1 #
edge $-1 $187 0 $188 3.1415926535897931 $159 $189 forward 7 unknown #
coedge $-1 $136 $136 $133 $162 reversed $130 $-1 #
edge $-1 $139 0 $163 3.1415926535897931 $161 $190 forward 7 unknown #
vertex $-1 $162 $191 #
straight-curve $-1 9 -0.32999999999999829 1.1021457184401395e-015 0 1 0 I I #
ellipse-curve $-1 0 0 -4.4408920985006262e-016 0 1 0 9 0 1.5462711389486973e-015 1 I I #
point $-1 -9 -0.33000000000000002 -1.1021819290986433e-015 #
point $-1 -9 0 -1.1021819290986437e-015 #
ellipse-curve $-1 0 -0.32999999999999829 0 -1.9120507646322142e-016 1 -2.3415864447742999e-032 -9 -1.7208456881689926e-015 -1.1021819290986433e-015 1 I I #
point $-1 9 -0.33000000000000002 0 #
ellipse-curve $-1 0 7.5 0 0 1 0 13 0 0 1 I I #
loop $-1 $-1 $192 $172 #
face $-1 $118 $147 $3 $-1 $193 reversed single #
face $-1 $-1 $194 $3 $-1 $195 reversed single #
loop $-1 $-1 $196 $151 #
torus-surface $-1 0 11.5 0 0 -1 0 11 2 -1 0 0 forward_v I I I I #
coedge $-1 $197 $198 $199 $200 forward $152 $-1 #
face $-1 $201 $202 $3 $-1 $203 forward single #
loop $-1 $-1 $204 $154 #
torus-surface $-1 0 2.5 0 0 -1 0 12.5 1.3300000000000001 -1 0 0 forward_v I I I I #
coedge $-1 $205 $184 $186 $206 forward $155 $-1 #
coedge $-1 $186 $157 $207 $208 forward $128 $-1 #
coedge $-1 $184 $205 $157 $183 reversed $155 $-1 #
edge $-1 $188 -3.5527136788005009e-015 $209 2.4999999999999964 $182 $210 forward 7 unknown #
coedge $-1 $180 $182 $158 $185 forward $155 $-1 #
edge $-1 $188 0 $187 3.1415926535897931 $184 $211 forward 7 unknown #
coedge $-1 $159 $181 $180 $206 reversed $128 $-1 #
vertex $-1 $185 $212 #
vertex $-1 $185 $213 #
ellipse-curve $-1 0 0 4.4408920985006262e-016 0 -1 0 -11.17 0 -1.812019448520259e-015 1 I I #
ellipse-curve $-1 0 0 4.4408920985006262e-016 0 1 0 -9 0 -1.5462711389487063e-015 1 I I #
point $-1 9 0 1.1021819290986347e-015 #
coedge $-1 $214 $214 $215 $216 forward $171 $-1 #
plane-surface $-1 0 7.5 0 0 -1 0 -1 0 0 forward_v I I I I #
loop $-1 $-1 $217 $173 #
torus-surface $-1 0 14.5 0 0 -1 0 9 1 -1 0 0 forward_v I I I I #
coedge $-1 $218 $219 $220 $221 forward $174 $-1 #
coedge $-1 $215 $176 $222 $223 reversed $152 $-1 #
coedge $-1 $176 $215 $224 $225 forward $152 $-1 #
coedge $-1 $226 $226 $176 $200 reversed $227 $-1 #
edge $-1 $228 1.2246063538223773e-016 $229 3.1415926535897931 $176 $230 forward 7 unknown #
face $-1 $231 $232 $3 $-1 $233 reversed single #
loop $-1 $-1 $234 $177 #
torus-surface $-1 0 2.5 0 0 -1 0 12.5 1.3300000000000001 -1 0 0 forward_v I I I I #
coedge $-1 $235 $236 $205 $237 forward $178 $-1 #
coedge $-1 $182 $180 $204 $237 reversed $155 $-1 #
edge $-1 $187 -3.5527136788005009e-015 $238 2.4999999999999964 $180 $239 forward 7 unknown #
coedge $-1 $240 $241 $181 $208 reversed $202 $-1 #
edge $-1 $209 0 $238 3.1415926535897931 $181 $242 forward 7 unknown #
vertex $-1 $183 $243 #
straight-curve $-1 11.17 3.5527136788005009e-015 1.3678852972195953e-015 0 1 0 I I #
ellipse-curve $-1 0 0 -8.8817841970012523e-016 0 -1 0 11.17 0 2.4628855538221893e-015 1 I I #
point $-1 -11.17 0 -1.3679302386701963e-015 #
point $-1 11.17 0 1.5747071341220641e-015 #
coedge $-1 $192 $192 $244 $245 reversed $171 $-1 #
coedge $-1 $198 $197 $192 $216 reversed $152 $-1 #
edge $-1 $246 0 $247 3.1415926535897931 $192 $248 forward 7 unknown #
coedge $-1 $249 $250 $251 $252 forward $194 $-1 #
coedge $-1 $253 $196 $254 $255 reversed $174 $-1 #
coedge $-1 $196 $253 $256 $257 forward $174 $-1 #
coedge $-1 $258 $258 $196 $221 reversed $259 $-1 #
edge $-1 $260 1.2246063538223773e-016 $261 3.1415926535897931 $196 $262 forward 7 unknown #
coedge $-1 $263 $244 $197 $223 forward $264 $-1 #
edge $-1 $247 0 $229 3.1415926535897967 $197 $265 forward 7 unknown #
coedge $-1 $244 $263 $198 $225 reversed $264 $-1 #
edge $-1 $246 0 $228 3.1415926535897967 $198 $266 forward 7 unknown #
coedge $-1 $199 $199 $263 $267 forward $227 $-1 #
loop $-1 $268 $226 $269 #
vertex $-1 $225 $270 #
vertex $-1 $223 $271 #
ellipse-curve $-1 0 9.5 0 0 -1 0 10 0 0 1 I I #
face $-1 $272 $273 $3 $-1 $274 reversed single #
loop $-1 $275 $276 $201 #
plane-surface $-1 0 3.8300000000000001 0 0 -1 0 -1 0 0 forward_v I I I I #
coedge $-1 $241 $240 $276 $277 forward $202 $-1 #
coedge $-1 $278 $204 $241 $279 forward $178 $-1 #
coedge $-1 $204 $278 $240 $280 reversed $178 $-1 #
edge $-1 $209 0 $238 3.1415926535897931 $205 $281 forward 7 unknown #
vertex $-1 $237 $282 #
straight-curve $-1 -11.17 3.5527136788005009e-015 -2.7357705944391907e-015 0 1 0 I I #
coedge $-1 $234 $207 $236 $280 forward $202 $-1 #
coedge $-1 $207 $234 $235 $279 reversed $202 $-1 #
ellipse-curve $-1 0 2.5 0 0 1 0 11.17 0 1.3678852972195953e-015 1 I I #
point $-1 11.17 2.5 1.3678852972195953e-015 #
coedge $-1 $222 $224 $214 $245 forward $264 $-1 #
edge $-1 $246 0 $247 3.1415926535897931 $214 $283 forward 7 unknown #
vertex $-1 $245 $284 #
vertex $-1 $245 $285 #
ellipse-curve $-1 0 7.5 0 0 -1 0 10 0 1.2246063538223773e-015 1 I I #
coedge $-1 $286 $217 $287 $288 reversed $194 $-1 #
coedge $-1 $217 $286 $289 $290 forward $194 $-1 #
coedge $-1 $291 $292 $217 $252 reversed $293 $-1 #
edge $-1 $294 0 $295 3.1415926535897931 $217 $296 forward 7 unknown #
coedge $-1 $219 $218 $297 $298 reversed $174 $-1 #
coedge $-1 $299 $300 $218 $255 forward $301 $-1 #
edge $-1 $302 0 $261 3.1415926535897931 $218 $303 forward 7 unknown #
coedge $-1 $300 $299 $219 $257 reversed $301 $-1 #
edge $-1 $304 0 $260 3.1415926535897931 $219 $305 forward 7 unknown #
coedge $-1 $220 $220 $299 $306 forward $259 $-1 #
loop $-1 $307 $258 $308 #
vertex $-1 $257 $309 #
vertex $-1 $255 $310 #
ellipse-curve $-1 0 13.5 0 0 -1 0 11 0 0 1 I I #
coedge $-1 $224 $222 $226 $267 reversed $264 $-1 #
loop $-1 $-1 $244 $311 #
ellipse-curve $-1 -9.9999999999999982 8.5 -2.4492127076447545e-015 -2.4492127076447525e-016 4.3506757443707623e-031 1 -1.7763568394002505e-015 -1 0 1 I I #
ellipse-curve $-1 9.9999999999999982 8.5 1.2246063538223773e-015 1.2246063538223763e-016 2.1753378721853811e-031 -1 1.7763568394002505e-015 -1 0 1 I I #
edge $-1 $228 -1.2246063538223773e-016 $229 3.1415926535897931 $226 $312 forward 7 unknown #
loop $-1 $-1 $297 $269 #
face $-1 $311 $227 $3 $-1 $313 forward single #
point $-1 10 9.5 1.2246063538223773e-015 #
point $-1 -10 9.5 0 #
face $-1 $314 $315 $3 $-1 $316 reversed single #
loop $-1 $-1 $317 $231 #
torus-surface $-1 0 5.5 0 0 -1 0 13 1.6699999999999999 -1 0 0 forward_v I I I I #
loop $-1 $-1 $318 $201 #
coedge $-1 $319 $319 $234 $277 reversed $232 $-1 #
edge $-1 $320 -1.2246063538223773e-016 $321 3.1415926535897931 $276 $322 forward 7 unknown #
coedge $-1 $236 $235 $319 $323 reversed $178 $-1 #
edge $-1 $238 0 $321 1.5707963267948966 $235 $324 forward 7 unknown #
edge $-1 $209 0 $320 1.5707963267948966 $236 $325 forward 7 unknown #
ellipse-curve $-1 0 2.5 0 0 -1 0 11.17 0 1.3678852972195953e-015 1 I I #
point $-1 -11.17 2.5 -2.7357705944391907e-015 #
ellipse-curve $-1 0 7.5 -4.4408920985006262e-016 0 1 0 10 0 1.6686955636724399e-015 1 I I #
point $-1 10 7.5 1.2246063538223773e-015 #
point $-1 -10 7.5 -2.4492127076447545e-015 #
coedge $-1 $250 $249 $326 $327 reversed $194 $-1 #
coedge $-1 $328 $329 $249 $288 forward $330 $-1 #
edge $-1 $331 0 $295 1.570796326794893 $249 $332 forward 7 unknown #
coedge $-1 $329 $328 $250 $290 reversed $330 $-1 #
edge $-1 $333 0 $294 1.5707963267948966 $250 $334 forward 7 unknown #
coedge $-1 $335 $251 $336 $337 forward $293 $-1 #
coedge $-1 $251 $335 $338 $339 reversed $293 $-1 #
loop $-1 $-1 $335 $340 #
vertex $-1 $290 $341 #
vertex $-1 $288 $342 #
ellipse-curve $-1 0 14.499999999999996 0 0 -1 0 8 0 9.7968508305790181e-016 1 I I #
coedge $-1 $343 $343 $253 $298 forward $268 $-1 #
edge $-1 $304 0 $302 3.1415926535897931 $297 $344 forward 7 unknown #
coedge $-1 $256 $254 $258 $306 reversed $301 $-1 #
coedge $-1 $254 $256 $343 $345 forward $301 $-1 #
loop $-1 $-1 $300 $346 #
vertex $-1 $345 $347 #
ellipse-curve $-1 -11 11.5 -2.69413397840923e-015 2.4492127076447545e-016 0 -1 0 -2 0 1 I I #
vertex $-1 $345 $348 #
ellipse-curve $-1 11 11.5 1.347066989204615e-015 -1.2246063538223773e-016 0 1 0 -2 0 1 I I #
edge $-1 $260 -1.2246063538223773e-016 $261 3.1415926535897931 $258 $349 forward 7 unknown #
loop $-1 $-1 $326 $308 #
face $-1 $346 $259 $3 $-1 $350 reversed single #
point $-1 11 13.5 1.347066989204615e-015 #
point $-1 -11 13.5 0 #
face $-1 $172 $264 $3 $-1 $351 reversed single #
ellipse-curve $-1 0 9.5 0 0 1 0 10 0 0 1 I I #
plane-surface $-1 0 9.5 0 0 -1 0 -1 0 0 forward_v I I I I #
face $-1 $352 $353 $3 $-1 $354 forward single #
loop $-1 $-1 $355 $272 #
torus-surface $-1 0 5.5 0 0 -1 0 13 1.6699999999999999 -1 0 0 forward_v I I I I #
coedge $-1 $356 $357 $318 $358 forward $273 $-1 #
coedge $-1 $359 $359 $317 $358 reversed $275 $-1 #
coedge $-1 $276 $276 $278 $323 forward $232 $-1 #
vertex $-1 $280 $360 #
vertex $-1 $323 $361 #
ellipse-curve $-1 0 3.8300000000000001 0 0 1 0 12.5 0 0 1 I I #
edge $-1 $320 1.2246063538223773e-016 $321 3.1415926535897931 $278 $362 forward 7 unknown #
ellipse-curve $-1 -12.5 2.5 -3.0615158845559431e-015 -2.4492127076447555e-016 -3.4383316362627272e-032 1 1.3300000000000001 0 3.2574529011675248e-016 1 I I #
ellipse-curve $-1 12.5 2.5 1.5307579422779716e-015 1.2246063538223778e-016 -1.7191658181313636e-032 -1 -1.3300000000000001 0 -1.6287264505837624e-016 1 I I #
coedge $-1 $363 $363 $286 $327 forward $307 $-1 #
edge $-1 $333 0 $331 3.1415926535897931 $326 $364 forward 7 unknown #
coedge $-1 $289 $287 $365 $366 reversed $330 $-1 #
coedge $-1 $287 $289 $363 $367 forward $330 $-1 #
loop $-1 $-1 $329 $368 #
vertex $-1 $367 $369 #
ellipse-curve $-1 -9 14.5 -2.2042914368802783e-015 -2.4492127076447491e-016 -7.8886090522101181e-031 1 0 -1 -7.8886090522101181e-031 1 I I #
vertex $-1 $367 $370 #
ellipse-curve $-1 9 14.5 1.1021457184401391e-015 1.2246063538223745e-016 -3.944304526105059e-031 -1 0 -1 3.944304526105059e-031 1 I I #
coedge $-1 $292 $291 $371 $372 forward $293 $-1 #
coedge $-1 $365 $373 $291 $337 reversed $374 $-1 #
edge $-1 $294 3.5527136788005009e-015 $375 1.5 $291 $376 forward 7 unknown #
coedge $-1 $373 $365 $292 $339 forward $374 $-1 #
edge $-1 $295 0 $377 1.5000000000000036 $292 $378 forward 7 unknown #
face $-1 $379 $293 $3 $-1 $380 forward single #
point $-1 8 14.5 9.7968508305790181e-016 #
point $-1 -8 14.499999999999996 -1.9593701661158036e-015 #
coedge $-1 $297 $297 $300 $345 reversed $268 $-1 #
ellipse-curve $-1 0 9.5 0 0 -1 0 11 0 1.347066989204615e-015 1 I I #
edge $-1 $304 0 $302 3.1415926535897931 $343 $381 forward 7 unknown #
face $-1 $269 $301 $3 $-1 $382 forward single #
point $-1 -11 9.5 -2.69413397840923e-015 #
point $-1 11 9.5 1.347066989204615e-015 #
ellipse-curve $-1 0 13.5 0 0 1 0 11 0 0 1 I I #
plane-surface $-1 0 13.5 0 0 -1 0 -1 0 0 forward_v I I I I #
torus-surface $-1 0 8.5 0 0 -1 0 10 1 -1 0 0 forward_v I I I I #
face $-1 $383 $384 $3 $-1 $385 forward single #
loop $-1 $386 $387 $314 #
plane-surface $-1 0 7.1699999999999999 0 0 -1 0 -1 0 0 forward_v I I I I #
coedge $-1 $388 $389 $387 $390 forward $315 $-1 #
coedge $-1 $391 $317 $388 $392 forward $273 $-1 #
coedge $-1 $317 $391 $389 $393 reversed $273 $-1 #
edge $-1 $394 0 $395 3.1415926535897931 $318 $396 forward 7 unknown #
coedge $-1 $318 $318 $397 $398 forward $275 $-1 #
point $-1 12.5 3.8300000000000001 1.5307579422779716e-015 #
point $-1 -12.5 3.8300000000000001 0 #
ellipse-curve $-1 0 3.8300000000000001 0 0 -1 0 12.5 0 0 1 I I #
coedge $-1 $326 $326 $329 $367 reversed $307 $-1 #
ellipse-curve $-1 4.4408920985006262e-016 13.5 -1.7763568394002505e-015 0 -1 0 9 0 2.87850255784039e-015 1 I I #
coedge $-1 $338 $336 $328 $366 forward $374 $-1 #
edge $-1 $294 0 $295 3.1415926535897931 $328 $399 forward 7 unknown #
edge $-1 $333 0 $331 3.1415926535897931 $363 $400 forward 7 unknown #
face $-1 $308 $330 $3 $-1 $401 reversed single #
point $-1 -9 13.5 -2.2042914368802791e-015 #
point $-1 9 13.5 1.1021457184401395e-015 #
coedge $-1 $402 $402 $335 $372 reversed $403 $-1 #
edge $-1 $375 1.2246063538223773e-016 $377 3.1415926535897931 $335 $404 forward 7 unknown #
coedge $-1 $336 $338 $402 $405 reversed $374 $-1 #
loop $-1 $-1 $365 $379 #
vertex $-1 $337 $406 #
straight-curve $-1 8 14.499999999999996 9.7968508305790181e-016 0 1 0 I I #
vertex $-1 $339 $407 #
straight-curve $-1 -8 14.499999999999996 -1.9593701661158036e-015 0 1 0 I I #
face $-1 $368 $374 $3 $-1 $408 forward single #
cone-surface $-1 0 16.799999999999997 0 0 -1 0 -8 0 0 1 I I 0 1 8 forward I I I I #
ellipse-curve $-1 0 9.5 0 0 1 0 11 0 1.347066989204615e-015 1 I I #
torus-surface $-1 0 11.5 0 0 -1 0 11 2 -1 0 0 forward_v I I I I #
face $-1 $409 $410 $3 $-1 $411 forward single #
loop $-1 $-1 $412 $352 #
torus-surface $-1 0 8.5 0 0 -1 0 10 1.3300000000000001 -1 0 0 forward_v I I I I #
loop $-1 $-1 $413 $314 #
coedge $-1 $414 $414 $355 $390 reversed $353 $-1 #
coedge $-1 $397 $355 $356 $392 reversed $315 $-1 #
coedge $-1 $355 $397 $357 $393 forward $315 $-1 #
edge $-1 $415 -1.2246063538223773e-016 $416 3.1415926535897931 $387 $417 forward 7 unknown #
coedge $-1 $357 $356 $414 $418 reversed $273 $-1 #
edge $-1 $395 0 $416 3.1415926535897931 $356 $419 forward 7 unknown #
edge $-1 $394 0 $415 3.1415926535897931 $357 $420 forward 7 unknown #
vertex $-1 $398 $421 #
vertex $-1 $398 $422 #
ellipse-curve $-1 0 3.8300000000000001 -8.8817841970012523e-016 0 -1 0 13 0 2.4801666796692157e-015 1 I I #
coedge $-1 $389 $388 $359 $398 reversed $315 $-1 #
edge $-1 $394 0 $395 3.1415926535897931 $359 $423 forward 7 unknown #
ellipse-curve $-1 0 14.499999999999996 0 0 1 0 8 0 9.7968508305790181e-016 1 I I #
ellipse-curve $-1 -4.4408920985006262e-016 13.5 8.8817841970012523e-016 0 1 0 9 0 2.139672987400143e-016 1 I I #
torus-surface $-1 0 14.5 0 0 -1 0 9 1 -1 0 0 forward_v I I I I #
coedge $-1 $371 $371 $373 $405 forward $403 $-1 #
loop $-1 $424 $371 $425 #
ellipse-curve $-1 0 16 0 0 -1 0 8 0 0 1 I I #
edge $-1 $375 -1.2246063538223773e-016 $377 3.1415926535897931 $402 $426 forward 7 unknown #
point $-1 8 15.999999999999996 9.7968508305790181e-016 #
point $-1 -8 16 0 #
cone-surface $-1 0 16.799999999999997 0 0 -1 0 -8 0 0 1 I I 0 1 8 forward I I I I #
face $-1 $427 $428 $3 $-1 $429 reversed single #
loop $-1 $-1 $430 $383 #
torus-surface $-1 0 8.5 0 0 -1 0 10 1.3300000000000001 -1 0 0 forward_v I I I I #
coedge $-1 $431 $432 $413 $433 forward $384 $-1 #
coedge $-1 $434 $434 $412 $433 reversed $386 $-1 #
coedge $-1 $387 $387 $391 $418 forward $353 $-1 #
vertex $-1 $393 $435 #
vertex $-1 $418 $436 #
ellipse-curve $-1 0 7.1699999999999999 0 0 1 0 13 0 0 1 I I #
edge $-1 $415 1.2246063538223773e-016 $416 3.1415926535897931 $391 $437 forward 7 unknown #
ellipse-curve $-1 -13 5.5 -3.1839765199381809e-015 2.449212707644753e-016 0 -1 0 -1.6699999999999999 0 1 I I #
ellipse-curve $-1 13 5.5 1.5919882599690904e-015 -1.2246063538223765e-016 0 1 0 -1.6699999999999999 0 1 I I #
point $-1 13 3.8300000000000001 1.5919882599690904e-015 #
point $-1 -13 3.8300000000000001 -3.1839765199381809e-015 #
ellipse-curve $-1 4.4408920985006262e-016 3.8300000000000001 -8.8817841970012523e-016 0 1 0 13 0 2.4801666796692157e-015 1 I I #
loop $-1 $-1 $438 $425 #
face $-1 $340 $403 $3 $-1 $439 reversed single #
ellipse-curve $-1 0 16 0 0 1 0 8 0 0 1 I I #
face $-1 $440 $441 $3 $-1 $442 reversed single #
loop $-1 $443 $444 $409 #
plane-surface $-1 0 9.8300000000000001 0 0 -1 0 -1 0 0 forward_v I I I I #
coedge $-1 $445 $446 $444 $447 forward $410 $-1 #
coedge $-1 $448 $412 $445 $449 forward $384 $-1 #
coedge $-1 $412 $448 $446 $450 reversed $384 $-1 #
edge $-1 $451 0 $452 3.1415926535897931 $413 $453 forward 7 unknown #
coedge $-1 $413 $413 $454 $455 forward $386 $-1 #
point $-1 13 7.1699999999999999 1.5919882599690904e-015 #
point $-1 -13 7.1699999999999999 0 #
ellipse-curve $-1 0 7.1699999999999999 0 0 -1 0 13 0 0 1 I I #
coedge $-1 $456 $456 $457 $458 forward $424 $-1 #
plane-surface $-1 0 16 0 0 -1 0 -1 0 0 forward_v I I I I #
face $-1 $459 $460 $3 $-1 $461 reversed single #
loop $-1 $-1 $462 $427 #
torus-surface $-1 0 11.5 0 0 -1 0 11 1.6699999999999999 -1 0 0 forward_v I I I I #
loop $-1 $-1 $463 $409 #
coedge $-1 $464 $464 $430 $447 reversed $428 $-1 #
coedge $-1 $454 $430 $431 $449 reversed $410 $-1 #
coedge $-1 $430 $454 $432 $450 forward $410 $-1 #
edge $-1 $465 -1.2246063538223773e-016 $466 3.1415926535897931 $444 $467 forward 7 unknown #
coedge $-1 $432 $431 $464 $468 reversed $384 $-1 #
edge $-1 $452 0 $466 3.1415926535897931 $431 $469 forward 7 unknown #
edge $-1 $451 0 $465 3.1415926535897931 $432 $470 forward 7 unknown #
vertex $-1 $455 $471 #
vertex $-1 $455 $472 #
ellipse-curve $-1 4.4408920985006262e-016 7.1699999999999999 0 0 -1 0 10 0 1.2246063538223773e-015 1 I I #
coedge $-1 $446 $445 $434 $455 reversed $410 $-1 #
edge $-1 $451 0 $452 3.1415926535897931 $434 $473 forward 7 unknown #
coedge $-1 $438 $438 $474 $475 forward $424 $-1 #
coedge $-1 $476 $477 $438 $458 reversed $478 $-1 #
edge $-1 $479 0 $480 3.1415926535897931 $438 $481 forward 7 unknown #
face $-1 $482 $483 $3 $-1 $484 forward single #
loop $-1 $-1 $485 $440 #
torus-surface $-1 0 11.5 0 0 -1 0 11 1.6699999999999999 -1 0 0 forward_v I I I I #
coedge $-1 $486 $487 $463 $488 forward $441 $-1 #
coedge $-1 $489 $489 $462 $488 reversed $443 $-1 #
coedge $-1 $444 $444 $448 $468 forward $428 $-1 #
vertex $-1 $450 $490 #
vertex $-1 $468 $491 #
ellipse-curve $-1 0 9.8300000000000001 0 0 1 0 10 0 0 1 I I #
edge $-1 $465 1.2246063538223773e-016 $466 3.1415926535897931 $448 $492 forward 7 unknown #
ellipse-curve $-1 -10 8.5 -2.4492127076447545e-015 -2.449212707644756e-016 0 1 0 -1.3300000000000001 0 1 I I #
ellipse-curve $-1 10 8.5 1.2246063538223773e-015 1.224606353822378e-016 0 -1 0 -1.3300000000000001 0 1 I I #
point $-1 10 7.1699999999999999 1.2246063538223773e-015 #
point $-1 -10 7.1699999999999999 -2.4492127076447545e-015 #
ellipse-curve $-1 0 7.1699999999999999 -4.4408920985006262e-016 0 1 0 10 0 1.6686955636724399e-015 1 I I #
coedge $-1 $493 $494 $456 $475 reversed $495 $-1 #
edge $-1 $480 0 $479 3.1415926535897931 $456 $496 forward 7 unknown #
coedge $-1 $497 $457 $494 $498 forward $478 $-1 #
coedge $-1 $457 $497 $493 $499 reversed $478 $-1 #
loop $-1 $-1 $476 $500 #
vertex $-1 $475 $501 #
vertex $-1 $475 $502 #
ellipse-curve $-1 0 16 0 0 -1 0 -4.25 0 0 1 I I #
face $-1 $503 $504 $3 $-1 $505 forward single #
loop $-1 $506 $507 $459 #
plane-surface $-1 0 13.17 0 0 -1 0 -1 0 0 forward_v I I I I #
coedge $-1 $508 $509 $507 $510 forward $460 $-1 #
coedge $-1 $511 $462 $508 $512 forward $441 $-1 #
coedge $-1 $462 $511 $509 $513 reversed $441 $-1 #
edge $-1 $514 0 $515 3.1415926535897931 $463 $516 forward 7 unknown #
coedge $-1 $463 $463 $517 $518 forward $443 $-1 #
point $-1 10 9.8300000000000001 1.2246063538223773e-015 #
point $-1 -10 9.8300000000000001 0 #
ellipse-curve $-1 0 9.8300000000000001 0 0 -1 0 10 0 0 1 I I #
coedge $-1 $519 $474 $477 $499 forward $495 $-1 #
coedge $-1 $474 $519 $476 $498 reversed $495 $-1 #
loop $-1 $-1 $493 $520 #
ellipse-curve $-1 0 16 0 0 -1 0 4.25 0 0 1 I I #
coedge $-1 $477 $476 $521 $522 forward $478 $-1 #
edge $-1 $479 0 $523 0.33000000000000007 $494 $524 forward 7 unknown #
edge $-1 $480 0 $525 0.33000000000000007 $493 $526 forward 7 unknown #
face $-1 $520 $478 $3 $-1 $527 reversed single #
point $-1 -4.25 16 0 #
point $-1 4.25 16 0 #
face $-1 $528 $529 $3 $-1 $530 forward single #
loop $-1 $-1 $531 $482 #
torus-surface $-1 0 14.5 0 0 -1 0 9 1.3300000000000001 -1 0 0 forward_v I I I I #
loop $-1 $-1 $532 $459 #
coedge $-1 $533 $533 $485 $510 reversed $483 $-1 #
coedge $-1 $517 $485 $486 $512 reversed $460 $-1 #
coedge $-1 $485 $517 $487 $513 forward $460 $-1 #
edge $-1 $534 -1.2246063538223773e-016 $535 3.1415926535897931 $507 $536 forward 7 unknown #
coedge $-1 $487 $486 $533 $537 reversed $441 $-1 #
edge $-1 $515 0 $535 3.1415926535897909 $486 $538 forward 7 unknown #
edge $-1 $514 0 $534 3.1415926535897909 $487 $539 forward 7 unknown #
vertex $-1 $518 $540 #
vertex $-1 $518 $541 #
ellipse-curve $-1 4.4408920985006262e-016 9.8300000000000001 4.4408920985006262e-016 0 -1 0 11 0 9.0297777935455237e-016 1 I I #
coedge $-1 $509 $508 $489 $518 reversed $460 $-1 #
edge $-1 $514 0 $515 3.1415926535897931 $489 $542 forward 7 unknown #
coedge $-1 $494 $493 $543 $544 forward $495 $-1 #
face $-1 $425 $495 $3 $-1 $545 reversed single #
coedge $-1 $543 $543 $497 $522 reversed $546 $-1 #
edge $-1 $523 0 $525 3.1415926535897931 $521 $547 forward 7 unknown #
vertex $-1 $544 $548 #
straight-curve $-1 -4.25 16 5.2045770037451033e-016 0 -1 0 I I #
vertex $-1 $544 $549 #
straight-curve $-1 4.25 16 0 0 -1 0 I I #
cone-surface $-1 0 16 0 0 -1 0 4.25 0 0 1 I I 0 1 4.25 forward I I I I #
face $-1 $550 $551 $3 $-1 $552 reversed single #
loop $-1 $-1 $553 $503 #
torus-surface $-1 0 14.5 0 0 -1 0 9 1.3300000000000001 -1 0 0 forward_v I I I I #
coedge $-1 $554 $555 $532 $556 forward $504 $-1 #
coedge $-1 $557 $557 $531 $556 reversed $506 $-1 #
coedge $-1 $507 $507 $511 $537 forward $483 $-1 #
vertex $-1 $513 $558 #
vertex $-1 $537 $559 #
ellipse-curve $-1 0 13.17 0 0 1 0 11 0 0 1 I I #
edge $-1 $534 1.2246063538223773e-016 $535 3.1415926535897931 $511 $560 forward 7 unknown #
ellipse-curve $-1 -10.999999999999998 11.5 -2.6941339784092296e-015 2.4492127076447555e-016 -2.4333605884174176e-032 -1 -1.7763568394002505e-015 -1.6699999999999999 -3.944304526105059e-031 1 I I #
ellipse-curve $-1 10.999999999999998 11.5 1.3470669892046148e-015 -1.2246063538223778e-016 -1.2166802942087088e-032 1 1.7763568394002505e-015 -1.6699999999999999 1.9721522630525295e-031 1 I I #
point $-1 11 9.8300000000000001 1.347066989204615e-015 #
point $-1 -11 9.8300000000000001 -2.69413397840923e-015 #
ellipse-curve $-1 0 9.8300000000000001 -8.8817841970012523e-016 0 1 0 11 0 2.2352454089047402e-015 1 I I #
coedge $-1 $521 $521 $519 $544 reversed $546 $-1 #
edge $-1 $525 0 $523 3.1415926535897931 $543 $561 forward 7 unknown #
cone-surface $-1 0 16 0 0 -1 0 4.25 0 0 1 I I 0 1 4.25 forward I I I I #
loop $-1 $-1 $521 $550 #
ellipse-curve $-1 -1.1102230246251565e-016 15.67 -6.6613381477509392e-016 0 -1 0 -4.25 0 6.6613381477509392e-016 1 I I #
point $-1 -4.25 15.67 0 #
point $-1 4.25 15.67 0 #
face $-1 $562 $563 $3 $-1 $564 forward single #
loop $-1 $-1 $565 $528 #
cone-surface $-1 0 16.799999999999997 0 0 -1 0 -7.6699999999999999 0 0 1 I I 0 1 7.6699999999999999 forward I I I I #
coedge $-1 $566 $567 $568 $569 forward $529 $-1 #
coedge $-1 $570 $531 $566 $571 forward $504 $-1 #
coedge $-1 $531 $570 $567 $572 reversed $504 $-1 #
edge $-1 $573 0 $574 3.1415926535897931 $532 $575 forward 7 unknown #
coedge $-1 $532 $532 $576 $577 forward $506 $-1 #
point $-1 11 13.17 1.347066989204615e-015 #
point $-1 -11 13.17 0 #
ellipse-curve $-1 0 13.17 0 0 -1 0 11 0 0 1 I I #
ellipse-curve $-1 -1.1102230246251565e-016 15.67 4.4408920985006262e-016 0 -1 0 4.25 0 -4.4408920985006262e-016 1 I I #
face $-1 $500 $578 $3 $-1 $579 reversed single #
loop $-1 $546 $580 $550 #
plane-surface $-1 0 15.67 0 0 -1 0 -1 0 0 forward_v I I I I #
coedge $-1 $581 $582 $583 $584 forward $551 $-1 #
coedge $-1 $576 $553 $554 $571 reversed $529 $-1 #
coedge $-1 $553 $576 $555 $572 forward $529 $-1 #
coedge $-1 $582 $581 $553 $569 reversed $551 $-1 #
edge $-1 $585 0 $586 3.1415926535897931 $553 $587 forward 7 unknown #
coedge $-1 $555 $554 $588 $589 reversed $504 $-1 #
edge $-1 $574 0 $586 1.5707963267948912 $554 $590 forward 7 unknown #
edge $-1 $573 0 $585 1.5707963267948939 $555 $591 forward 7 unknown #
vertex $-1 $577 $592 #
vertex $-1 $577 $593 #
ellipse-curve $-1 0 13.17 0 0 -1 0 9 0 1.1021457184401395e-015 1 I I #
coedge $-1 $567 $566 $557 $577 reversed $529 $-1 #
edge $-1 $573 0 $574 3.1415926535897931 $557 $594 forward 7 unknown #
loop $-1 $-1 $588 $562 #
cone-surface $-1 0 16.799999999999997 0 0 -1 0 -7.6699999999999999 0 0 1 I I 0 1 7.6699999999999999 forward I I I I #
coedge $-1 $583 $583 $595 $596 forward $563 $-1 #
coedge $-1 $568 $565 $597 $598 reversed $551 $-1 #
coedge $-1 $565 $568 $599 $600 forward $551 $-1 #
coedge $-1 $580 $580 $565 $584 reversed $563 $-1 #
edge $-1 $601 -1.2246063538223773e-016 $602 3.1415926535897931 $583 $603 forward 7 unknown #
vertex $-1 $572 $604 #
vertex $-1 $589 $605 #
ellipse-curve $-1 0 14.499999999999996 0 0 1 0 7.6699999999999999 0 9.3927307338176329e-016 1 I I #
coedge $-1 $597 $599 $570 $589 forward $578 $-1 #
edge $-1 $585 0 $586 3.1415926535897931 $570 $606 forward 7 unknown #
ellipse-curve $-1 -9.0000000000000018 14.500000000000002 -2.2042914368802791e-015 -2.4492127076447535e-016 -3.2711847702035773e-031 1 1.7763568394002505e-015 -1.3300000000000018 0 1 I I #
ellipse-curve $-1 9.0000000000000018 14.500000000000002 1.1021457184401395e-015 1.2246063538223768e-016 -1.6355923851017886e-031 -1 -1.7763568394002505e-015 -1.3300000000000018 0 1 I I #
point $-1 9 13.17 1.1021457184401395e-015 #
point $-1 -9 13.17 -2.2042914368802791e-015 #
ellipse-curve $-1 0 13.17 -4.4408920985006262e-016 0 1 0 9 0 1.5462349282902021e-015 1 I I #
coedge $-1 $599 $597 $580 $596 reversed $578 $-1 #
edge $-1 $601 1.2246063538223773e-016 $602 3.1415926535897931 $595 $607 forward 7 unknown #
coedge $-1 $595 $588 $581 $598 forward $578 $-1 #
edge $-1 $586 0 $602 1.1700000000000035 $597 $608 forward 7 unknown #
coedge $-1 $588 $595 $582 $600 reversed $578 $-1 #
edge $-1 $585 3.5527136788005009e-015 $601 1.1700000000000017 $599 $609 forward 7 unknown #
vertex $-1 $600 $610 #
vertex $-1 $596 $611 #
ellipse-curve $-1 0 15.67 0 0 1 0 7.6699999999999999 0 0 1 I I #
point $-1 7.6699999999999999 14.5 9.3927307338176329e-016 #
point $-1 -7.6699999999999999 14.499999999999996 0 #
ellipse-curve $-1 0 14.499999999999996 0 0 -1 0 7.6699999999999999 0 9.3927307338176329e-016 1 I I #
ellipse-curve $-1 -4.4408920985006262e-016 15.67 2.2204460492503131e-016 0 -1 0 7.6699999999999999 0 -2.2204460492503131e-016 1 I I #
straight-curve $-1 -7.6699999999999999 14.499999999999996 -1.8785461467635266e-015 0 1 0 I I #
straight-curve $-1 7.6699999999999999 14.499999999999996 9.3927307338176329e-016 0 1 0 I I #
point $-1 7.6699999999999999 15.669999999999998 9.3927307338176329e-016 #
point $-1 -7.6699999999999999 15.67 0 #
End-of-ACIS-data 