600 0 1 0           
101 GICL Pro/E ACIS Translator - Source: f:/data5/repository/PTC/V18/asmdes18/parts/boot_smooth.prt - 6 0 13 ACIS 6.0.3 NT 24 Thu Apr 04 10:07:08 2002 
1 9.9999999999999995e-007 1e-010 
body $-1 $1 $-1 $2 #
lump $-1 $-1 $3 $0 #
transform $-1 1 0 0 0 1 0 0 0 1 0 0 0 10 no_rotate no_reflect no_shear #
shell $-1 $-1 $-1 $4 $-1 $1 #
face $-1 $5 $6 $3 $-1 $7 forward single #
face $-1 $8 $9 $3 $-1 $10 reversed single #
loop $-1 $-1 $11 $4 #
cone-surface $-1 0 16.799999999999997 0 0 -1 0 -11.5 0 0 1 I I 0 1 11.5 forward I I I I #
face $-1 $12 $13 $3 $-1 $14 forward single #
loop $-1 $-1 $15 $5 #
torus-surface $-1 0 0.75 0 0 -1 0 12.25 0.75 -1 0 0 forward_v I I I I #
coedge $-1 $16 $17 $18 $19 forward $6 $-1 #
face $-1 $20 $21 $3 $-1 $22 forward single #
loop $-1 $23 $24 $8 #
plane-surface $-1 0 1.5 0 0 -1 0 -1 0 0 forward_v I I I I #
coedge $-1 $25 $26 $27 $28 forward $9 $-1 #
coedge $-1 $29 $11 $30 $31 reversed $6 $-1 #
coedge $-1 $11 $29 $32 $33 forward $6 $-1 #
coedge $-1 $26 $25 $11 $19 reversed $9 $-1 #
edge $-1 $34 0 $35 3.1415926535897931 $11 $36 forward 7 unknown #
face $-1 $37 $38 $3 $-1 $39 forward single #
loop $-1 $-1 $40 $12 #
torus-surface $-1 0 2.25 0 0 -1 0 12.5 0.75 -1 0 0 forward_v I I I I #
loop $-1 $-1 $27 $8 #
coedge $-1 $41 $41 $40 $42 reversed $13 $-1 #
coedge $-1 $18 $15 $43 $44 reversed $9 $-1 #
coedge $-1 $15 $18 $45 $46 forward $9 $-1 #
coedge $-1 $47 $47 $15 $28 reversed $23 $-1 #
edge $-1 $48 1.2246063538223773e-016 $49 3.1415926535897931 $15 $50 forward 7 unknown #
coedge $-1 $17 $16 $51 $52 reversed $6 $-1 #
coedge $-1 $53 $54 $16 $31 forward $55 $-1 #
edge $-1 $56 0 $35 0.74999999999999989 $16 $57 forward 7 unknown #
coedge $-1 $54 $53 $17 $33 reversed $55 $-1 #
edge $-1 $58 0 $34 0.75 $17 $59 forward 7 unknown #
vertex $-1 $33 $60 #
vertex $-1 $31 $61 #
ellipse-curve $-1 0 0.74999999999999989 0 0 -1 0 11.5 0 1.4082973068957338e-015 1 I I #
face $-1 $62 $63 $3 $-1 $64 forward single #
loop $-1 $-1 $65 $20 #
torus-surface $-1 0 2.25 0 0 -1 0 12.5 0.75 -1 0 0 forward_v I I I I #
coedge $-1 $66 $67 $24 $42 forward $21 $-1 #
coedge $-1 $24 $24 $68 $69 forward $13 $-1 #
edge $-1 $70 0 $71 3.1415926535897931 $24 $72 forward 7 unknown #
coedge $-1 $73 $74 $25 $44 forward $75 $-1 #
edge $-1 $35 0 $49 1.5707963267949006 $25 $76 forward 7 unknown #
coedge $-1 $74 $73 $26 $46 reversed $75 $-1 #
edge $-1 $34 1.480297366166879e-016 $48 1.5707963267949006 $26 $77 forward 7 unknown #
coedge $-1 $27 $27 $73 $78 forward $23 $-1 #
vertex $-1 $46 $79 #
vertex $-1 $44 $80 #
ellipse-curve $-1 0 1.5 0 0 -1 0 12.25 0 0 1 I I #
coedge $-1 $81 $81 $29 $52 forward $82 $-1 #
edge $-1 $58 0 $56 3.1415926535897931 $29 $83 forward 7 unknown #
coedge $-1 $32 $30 $74 $84 reversed $55 $-1 #
coedge $-1 $30 $32 $81 $85 forward $55 $-1 #
loop $-1 $-1 $54 $86 #
vertex $-1 $52 $87 #
straight-curve $-1 -11.5 0 -2.8165946137914677e-015 0 1 0 I I #
vertex $-1 $33 $88 #
straight-curve $-1 11.5 0 1.4082973068957338e-015 0 1 0 I I #
point $-1 11.5 0.75 1.4082973068957338e-015 #
point $-1 -11.5 0.74999999999999989 -2.8165946137914677e-015 #
face $-1 $89 $90 $3 $-1 $91 forward single #
loop $-1 $-1 $92 $37 #
cone-surface $-1 0 31.169404675483413 0 0 1 0 -0.44522868530853565 0 0 1 I I -0.40673664307579982 0.91354545764260109 0.44522868530853565 forward I I I I #
coedge $-1 $93 $94 $95 $96 forward $38 $-1 #
coedge $-1 $97 $40 $93 $98 forward $21 $-1 #
coedge $-1 $40 $97 $94 $99 reversed $21 $-1 #
coedge $-1 $94 $93 $41 $69 reversed $38 $-1 #
edge $-1 $70 0 $71 3.1415926535897931 $41 $100 forward 7 unknown #
vertex $-1 $69 $101 #
vertex $-1 $69 $102 #
ellipse-curve $-1 0 1.5 8.8817841970012523e-016 0 1 0 12.5 0 6.4257952257784634e-016 1 I I #
coedge $-1 $45 $43 $47 $78 reversed $75 $-1 #
coedge $-1 $43 $45 $53 $84 forward $75 $-1 #
loop $-1 $-1 $74 $103 #
ellipse-curve $-1 -12.249999999999998 0.75000000000000111 -3.0002855668648235e-015 -2.4492127076447501e-016 6.0837513906723666e-031 1 0.74999999999999822 -1.2212453270876722e-015 1.836909530733558e-016 1 I I #
ellipse-curve $-1 12.249999999999998 0.75000000000000111 1.5001427834324117e-015 1.224606353822375e-016 3.0418756953361833e-031 -1 -0.74999999999999822 -1.2212453270876722e-015 -9.18454765366779e-017 1 I I #
edge $-1 $48 -1.2246063538223773e-016 $49 3.1415926535897931 $47 $104 forward 7 unknown #
point $-1 12.25 1.5 1.5001427834324121e-015 #
point $-1 -12.25 1.5 0 #
coedge $-1 $51 $51 $54 $85 reversed $82 $-1 #
loop $-1 $105 $81 $106 #
ellipse-curve $-1 0 0 4.4408920985006262e-016 0 -1 0 11.5 0 9.6420809704567123e-016 1 I I #
edge $-1 $34 0 $35 3.1415926535897931 $53 $107 forward 7 unknown #
edge $-1 $58 0 $56 3.1415926535897931 $81 $108 forward 7 unknown #
face $-1 $103 $55 $3 $-1 $109 forward single #
point $-1 -11.5 0 0 #
point $-1 11.5 0 1.4082973068957338e-015 #
face $-1 $110 $111 $3 $-1 $112 reversed single #
loop $-1 $-1 $113 $62 #
torus-surface $-1 0 11 0 0 -1 0 3.9520448198996161 5 -1 0 0 forward_v I I I I #
coedge $-1 $114 $115 $116 $117 forward $63 $-1 #
coedge $-1 $68 $65 $66 $98 reversed $38 $-1 #
coedge $-1 $65 $68 $67 $99 forward $38 $-1 #
coedge $-1 $115 $114 $65 $96 reversed $63 $-1 #
edge $-1 $118 0 $119 3.1415926535897931 $65 $120 forward 7 unknown #
coedge $-1 $67 $66 $121 $122 reversed $21 $-1 #
edge $-1 $71 -1.0518145402946799e-030 $119 1.989675347273524 $93 $123 forward 7 unknown #
edge $-1 $70 0 $118 1.9896753472735316 $94 $124 forward 7 unknown #
ellipse-curve $-1 8.8817841970012523e-016 1.5 -8.8817841970012523e-016 0 -1 0 12.5 0 2.4189363619780968e-015 1 I I #
point $-1 12.5 1.5 1.5307579422779716e-015 #
point $-1 -12.5 1.5 0 #
face $-1 $125 $75 $3 $-1 $126 reversed single #
ellipse-curve $-1 0 1.5 0 0 1 0 12.25 0 0 1 I I #
loop $-1 $-1 $127 $106 #
face $-1 $86 $82 $3 $-1 $128 forward single #
ellipse-curve $-1 0 0.74999999999999989 0 0 1 0 11.5 0 1.4082973068957338e-015 1 I I #
ellipse-curve $-1 -4.4408920985006262e-016 0 -4.4408920985006262e-016 0 1 0 11.5 0 1.8523865167457965e-015 1 I I #
cone-surface $-1 0 16.799999999999997 0 0 -1 0 -11.5 0 0 1 I I 0 1 11.5 forward I I I I #
face $-1 $129 $130 $3 $-1 $131 reversed single #
loop $-1 $132 $133 $89 #
plane-surface $-1 0 16 0 0 -1 0 -1 0 0 forward_v I I I I #
coedge $-1 $134 $135 $136 $137 forward $90 $-1 #
coedge $-1 $95 $92 $138 $139 reversed $63 $-1 #
coedge $-1 $92 $95 $140 $141 forward $63 $-1 #
coedge $-1 $135 $134 $92 $117 reversed $90 $-1 #
edge $-1 $142 -2.1735742126193004e-032 $143 3.1415926535897931 $92 $144 forward 7 unknown #
vertex $-1 $99 $145 #
vertex $-1 $98 $146 #
ellipse-curve $-1 0 2.555052482306845 0 0 -1 0 13.185159093231952 0 1.6146629601730743e-015 1 I I #
coedge $-1 $138 $140 $97 $122 forward $147 $-1 #
edge $-1 $118 0 $119 3.1415926535897931 $97 $148 forward 7 unknown #
ellipse-curve $-1 -12.499999999999998 2.2500000000000009 -3.0615158845559424e-015 2.4492127076447634e-016 4.7172444104524428e-031 -1 -1.7763568394002505e-015 -0.75000000000000089 -7.8886090522101181e-031 1 I I #
ellipse-curve $-1 12.499999999999998 2.2500000000000009 1.5307579422779712e-015 -1.2246063538223817e-016 2.3586222052262214e-031 1 1.7763568394002505e-015 -0.75000000000000089 3.944304526105059e-031 1 I I #
face $-1 $149 $150 $3 $-1 $151 reversed single #
torus-surface $-1 0 0.75 0 0 -1 0 12.25 0.75 -1 0 0 forward_v I I I I #
coedge $-1 $152 $152 $153 $154 reversed $105 $-1 #
plane-surface $-1 0 0 0 0 -1 0 -1 0 0 forward_v I I I I #
face $-1 $155 $156 $3 $-1 $157 reversed single #
loop $-1 $-1 $158 $110 #
cone-surface $-1 0 16.799999999999997 0 0 -1 0 -3.5 0 0 1 I I 0 1 3.5 forward I I I I #
loop $-1 $-1 $136 $89 #
coedge $-1 $159 $159 $158 $160 reversed $111 $-1 #
coedge $-1 $116 $113 $161 $162 reversed $90 $-1 #
coedge $-1 $113 $116 $163 $164 forward $90 $-1 #
coedge $-1 $165 $165 $113 $137 reversed $132 $-1 #
edge $-1 $166 1.2246063538223775e-016 $167 3.1415926535897931 $113 $168 forward 7 unknown #
coedge $-1 $169 $121 $114 $139 forward $147 $-1 #
edge $-1 $119 0 $143 11.470289349489192 $114 $170 forward 7 unknown #
coedge $-1 $121 $169 $115 $141 reversed $147 $-1 #
edge $-1 $118 5.5908575831217947e-015 $142 11.470289349489194 $115 $171 forward 7 unknown #
vertex $-1 $141 $172 #
vertex $-1 $139 $173 #
ellipse-curve $-1 0 13.033683215379 0 0 -1 0 8.5197721081126208 0 1.0433367056713387e-015 1 I I #
point $-1 13.185159093231951 2.5550524823068503 1.6146629601730741e-015 #
point $-1 -13.185159093231952 2.555052482306845 -3.2293259203461485e-015 #
loop $-1 $-1 $121 $174 #
ellipse-curve $-1 0 2.555052482306845 0 0 1 0 13.185159093231952 0 1.6146629601730743e-015 1 I I #
face $-1 $175 $176 $3 $-1 $177 reversed single #
loop $-1 $-1 $178 $125 #
cone-surface $-1 0 16.799999999999997 0 0 -1 0 -11.1 0 0 1 I I 0 1 11.1 forward I I I I #
coedge $-1 $127 $127 $179 $180 forward $105 $-1 #
coedge $-1 $181 $182 $127 $154 forward $183 $-1 #
edge $-1 $184 1.2246063538223768e-016 $185 3.1415926535897931 $153 $186 forward 7 unknown #
face $-1 $187 $188 $3 $-1 $189 forward single #
loop $-1 $-1 $190 $129 #
cone-surface $-1 0 16.799999999999997 0 0 -1 0 -3.5 0 0 1 I I 0 1 3.5 forward I I I I #
coedge $-1 $191 $192 $133 $160 forward $130 $-1 #
coedge $-1 $133 $133 $193 $194 forward $111 $-1 #
edge $-1 $195 0 $196 3.1415926535897931 $133 $197 forward 7 unknown #
coedge $-1 $198 $199 $134 $162 forward $200 $-1 #
edge $-1 $143 0 $167 1.1519173063162584 $134 $201 forward 7 unknown #
coedge $-1 $199 $198 $135 $164 reversed $200 $-1 #
edge $-1 $142 1.4210854715202026e-016 $166 1.1519173063162587 $135 $202 forward 7 unknown #
coedge $-1 $136 $136 $198 $203 forward $132 $-1 #
vertex $-1 $164 $204 #
vertex $-1 $162 $205 #
ellipse-curve $-1 0 16 0 0 -1 0 3.9520448198996161 0 0 1 I I #
coedge $-1 $140 $138 $199 $206 reversed $147 $-1 #
straight-curve $-1 -13.185159093231952 2.555052482306845 -3.2293259203461485e-015 0.40673664307579988 0.91354545764260098 9.961845548860177e-017 I I #
straight-curve $-1 13.185159093231952 2.555052482306845 1.6146629601730743e-015 -0.40673664307579988 0.91354545764260098 -4.9809227744300885e-017 I I #
point $-1 8.519772108112619 13.033683215379 1.0433367056713383e-015 #
point $-1 -8.5197721081126208 13.033683215379 -2.0866734113426774e-015 #
face $-1 $-1 $147 $3 $-1 $207 forward single #
face $-1 $208 $209 $3 $-1 $210 reversed single #
loop $-1 $-1 $211 $149 #
torus-surface $-1 0 2.25 0 0 -1 0 12.5 0.34999999999999998 -1 0 0 forward_v I I I I #
coedge $-1 $212 $213 $214 $215 forward $150 $-1 #
coedge $-1 $213 $212 $152 $180 reversed $150 $-1 #
edge $-1 $184 -1.224606353822377e-016 $185 3.1415926535897931 $152 $216 forward 7 unknown #
coedge $-1 $217 $153 $212 $218 reversed $183 $-1 #
coedge $-1 $153 $217 $213 $219 forward $183 $-1 #
loop $-1 $-1 $153 $220 #
vertex $-1 $219 $221 #
vertex $-1 $218 $222 #
ellipse-curve $-1 0 0 -8.8817841970012523e-016 0 -1 0 11.1 0 8.8817841970012523e-016 1 I I #
face $-1 $223 $224 $3 $-1 $225 reversed single #
loop $-1 $226 $227 $155 #
plane-surface $-1 0 15.6 0 0 -1 0 -1 0 0 forward_v I I I I #
coedge $-1 $228 $229 $230 $231 forward $156 $-1 #
coedge $-1 $232 $158 $228 $233 forward $130 $-1 #
coedge $-1 $158 $232 $229 $234 reversed $130 $-1 #
coedge $-1 $229 $228 $159 $194 reversed $156 $-1 #
edge $-1 $195 0 $196 3.1415926535897931 $159 $235 forward 7 unknown #
vertex $-1 $194 $236 #
vertex $-1 $194 $237 #
ellipse-curve $-1 0 16 -1.1102230246251565e-016 1.0150610510858574e-015 1 1.5650342556247134e-031 3.5 -3.5527136788005009e-015 5.3963452630034769e-016 1 I I #
coedge $-1 $163 $161 $165 $203 reversed $200 $-1 #
coedge $-1 $161 $163 $169 $206 forward $200 $-1 #
loop $-1 $-1 $199 $208 #
ellipse-curve $-1 -3.9520448198996174 11.000000000000004 -9.6793983940797896e-016 2.4492127076447525e-016 4.2598488881934693e-031 -1 -4.5677272882130033 2.0336832153789963 -1.1187335719346984e-015 1 I I #
ellipse-curve $-1 3.9520448198996174 11.000000000000004 4.8396991970398948e-016 -1.2246063538223763e-016 2.1299244440967346e-031 1 4.5677272882130033 2.0336832153789963 5.5936678596734921e-016 1 I I #
edge $-1 $166 -1.2246063538223775e-016 $167 3.1415926535897931 $165 $238 forward 7 unknown #
point $-1 3.9520448198996152 16 4.839699197039882e-016 #
point $-1 -3.9520448198996161 16 0 #
edge $-1 $142 2.1735742126193004e-032 $143 3.1415926535897931 $169 $239 forward 7 unknown #
cone-surface $-1 0 31.169404675483413 0 0 1 0 -0.44522868530853565 0 0 1 I I -0.40673664307579982 0.91354545764260109 0.44522868530853565 forward I I I I #
face $-1 $174 $200 $3 $-1 $240 forward single #
loop $-1 $-1 $241 $175 #
cone-surface $-1 0 30.185967341253722 0 0 1 0 -0.44522868530853565 0 0 1 I I -0.40673664307579982 0.91354545764260109 0.44522868530853565 forward I I I I #
coedge $-1 $242 $243 $244 $245 forward $176 $-1 #
coedge $-1 $179 $178 $181 $218 forward $150 $-1 #
coedge $-1 $178 $179 $182 $219 reversed $150 $-1 #
coedge $-1 $246 $247 $178 $215 reversed $248 $-1 #
edge $-1 $249 -2.5610288295463415e-032 $250 3.1415926535897931 $214 $251 forward 7 unknown #
ellipse-curve $-1 0 0 8.8817841970012523e-016 0 1 0 11.1 0 -8.8817841970012523e-016 1 I I #
coedge $-1 $182 $181 $252 $253 reversed $183 $-1 #
edge $-1 $250 0 $185 0.75 $181 $254 forward 7 unknown #
edge $-1 $249 1.1102230246251565e-016 $184 0.75 $182 $255 forward 7 unknown #
face $-1 $106 $183 $3 $-1 $256 reversed single #
point $-1 11.1 0 1.3593130527428386e-015 #
point $-1 -11.1 0 0 #
face $-1 $257 $258 $3 $-1 $259 reversed single #
loop $-1 $-1 $260 $187 #
torus-surface $-1 0 11 0 0 -1 0 3.9520448198996161 4.5999999999999996 -1 0 0 forward_v I I I I #
loop $-1 $-1 $230 $155 #
coedge $-1 $261 $261 $260 $262 reversed $188 $-1 #
coedge $-1 $193 $190 $191 $233 reversed $156 $-1 #
coedge $-1 $190 $193 $192 $234 forward $156 $-1 #
coedge $-1 $263 $263 $190 $231 reversed $226 $-1 #
edge $-1 $264 1.2246063538223773e-016 $265 3.1415926535897931 $190 $266 forward 7 unknown #
coedge $-1 $192 $191 $263 $267 reversed $130 $-1 #
edge $-1 $196 0 $265 0.3999999999999968 $228 $268 forward 7 unknown #
edge $-1 $195 0 $264 0.39999999999999858 $229 $269 forward 7 unknown #
ellipse-curve $-1 0 16 1.1102230246251565e-016 -1.0150610510858574e-015 -1 -9.210661697300099e-032 3.5 -3.5527136788005009e-015 3.1758992137531639e-016 1 I I #
point $-1 3.5 15.999999999999996 4.2861222383783204e-016 #
point $-1 -3.5 15.999999999999996 0 #
ellipse-curve $-1 0 16 0 0 1 0 3.9520448198996161 0 0 1 I I #
ellipse-curve $-1 0 13.033683215379 0 0 1 0 8.5197721081126208 0 1.0433367056713387e-015 1 I I #
torus-surface $-1 0 11 0 0 -1 0 3.9520448198996161 5 -1 0 0 forward_v I I I I #
coedge $-1 $270 $271 $272 $273 forward $209 $-1 #
coedge $-1 $274 $211 $275 $276 forward $176 $-1 #
coedge $-1 $211 $274 $277 $278 reversed $176 $-1 #
coedge $-1 $271 $270 $211 $245 reversed $209 $-1 #
edge $-1 $279 -1.9200030949427014e-032 $280 3.1415926535897931 $244 $281 forward 7 unknown #
coedge $-1 $282 $214 $283 $284 reversed $248 $-1 #
coedge $-1 $214 $282 $285 $286 forward $248 $-1 #
loop $-1 $-1 $282 $287 #
vertex $-1 $284 $288 #
vertex $-1 $286 $289 #
ellipse-curve $-1 0 0.75 0 0 1 0 11.1 0 1.3593130527428386e-015 1 I I #
coedge $-1 $285 $283 $217 $253 forward $290 $-1 #
edge $-1 $249 2.5610288295463415e-032 $250 3.1415926535897931 $252 $291 forward 7 unknown #
straight-curve $-1 -11.1 0.75 -2.7186261054856773e-015 0 -1 0 I I #
straight-curve $-1 11.1 0.75 1.3593130527428386e-015 0 -1 0 I I #
cone-surface $-1 0 16.799999999999997 0 0 -1 0 -11.1 0 0 1 I I 0 1 11.1 forward I I I I #
face $-1 $292 $293 $3 $-1 $294 reversed single #
loop $-1 $-1 $295 $223 #
torus-surface $-1 0 11 0 0 -1 0 3.9520448198996161 4.5999999999999996 -1 0 0 forward_v I I I I #
coedge $-1 $296 $297 $227 $262 forward $224 $-1 #
coedge $-1 $227 $227 $298 $299 forward $188 $-1 #
edge $-1 $300 0 $301 3.1415926535897931 $227 $302 forward 7 unknown #
coedge $-1 $230 $230 $232 $267 forward $226 $-1 #
vertex $-1 $234 $303 #
vertex $-1 $233 $304 #
ellipse-curve $-1 0 15.6 0 0 -1 0 3.5 0 0 1 I I #
edge $-1 $264 -1.2246063538223773e-016 $265 3.1415926535897931 $263 $305 forward 7 unknown #
straight-curve $-1 -3.5 15.999999999999996 -8.5722444767566408e-016 0 -1 0 I I #
straight-curve $-1 3.5 15.999999999999996 4.2861222383783204e-016 0 -1 0 I I #
coedge $-1 $244 $241 $306 $307 forward $209 $-1 #
coedge $-1 $241 $244 $308 $309 reversed $209 $-1 #
coedge $-1 $297 $296 $241 $273 reversed $224 $-1 #
edge $-1 $310 0 $311 3.1415926535897931 $272 $312 forward 7 unknown #
coedge $-1 $243 $242 $313 $314 reversed $176 $-1 #
coedge $-1 $315 $316 $242 $276 reversed $317 $-1 #
edge $-1 $280 0 $318 1.9896753472735333 $275 $319 forward 7 unknown #
coedge $-1 $316 $315 $243 $278 forward $317 $-1 #
edge $-1 $279 9.0630450989808088e-016 $320 1.9896753472735333 $277 $321 forward 7 unknown #
vertex $-1 $309 $322 #
vertex $-1 $307 $323 #
ellipse-curve $-1 0 2.3923578250765298 0 0 1 0 12.819740910174911 0 1.5699136172956861e-015 1 I I #
coedge $-1 $247 $246 $324 $325 forward $248 $-1 #
coedge $-1 $252 $326 $246 $284 forward $290 $-1 #
edge $-1 $327 0 $249 1.5707963267948941 $283 $328 forward 7 unknown #
coedge $-1 $326 $252 $247 $286 reversed $290 $-1 #
edge $-1 $329 5.9649217786087718e-031 $250 1.5707963267948939 $285 $330 forward 7 unknown #
face $-1 $331 $248 $3 $-1 $332 forward single #
point $-1 11.1 0.74999999999999989 1.3593130527428388e-015 #
point $-1 -11.1 0.75 -2.7186261054856773e-015 #
loop $-1 $-1 $252 $331 #
ellipse-curve $-1 0 0.75 0 0 -1 0 11.1 0 1.3593130527428386e-015 1 I I #
face $-1 $333 $317 $3 $-1 $334 reversed single #
loop $-1 $-1 $335 $257 #
cone-surface $-1 0 30.185967341253722 0 0 1 0 -0.44522868530853565 0 0 1 I I -0.40673664307579982 0.91354545764260109 0.44522868530853565 forward I I I I #
coedge $-1 $336 $337 $338 $339 forward $258 $-1 #
coedge $-1 $272 $260 $336 $340 forward $224 $-1 #
coedge $-1 $260 $272 $337 $341 reversed $224 $-1 #
coedge $-1 $337 $336 $261 $299 reversed $258 $-1 #
edge $-1 $300 0 $301 3.1415926535897931 $261 $342 forward 7 unknown #
vertex $-1 $299 $343 #
vertex $-1 $299 $344 #
ellipse-curve $-1 0 15.6 1.1102230246251565e-016 0 1 0 3.9520448198996152 0 3.7294761724147254e-016 1 I I #
point $-1 3.5 15.599999999999998 4.2861222383783204e-016 #
point $-1 -3.5 15.6 0 #
ellipse-curve $-1 0 15.6 0 0 1 0 3.5 0 0 1 I I #
coedge $-1 $338 $335 $270 $307 reversed $293 $-1 #
edge $-1 $311 0 $280 11.470289349489185 $306 $345 forward 7 unknown #
coedge $-1 $335 $338 $271 $309 forward $293 $-1 #
edge $-1 $310 9.0027330402407072e-016 $279 11.470289349489185 $308 $346 forward 7 unknown #
vertex $-1 $341 $347 #
vertex $-1 $340 $348 #
ellipse-curve $-1 0 12.870988558148682 0 0 1 0 8.1543539250555828 0 9.9858736279395068e-016 1 I I #
coedge $-1 $349 $349 $274 $314 forward $350 $-1 #
edge $-1 $320 -1.2246063538223773e-016 $318 3.1415926535897931 $313 $351 forward 7 unknown #
coedge $-1 $277 $275 $335 $352 reversed $317 $-1 #
coedge $-1 $275 $277 $349 $353 forward $317 $-1 #
loop $-1 $-1 $316 $292 #
vertex $-1 $276 $354 #
ellipse-curve $-1 -12.5 2.2500000000000004 -3.0615158845559428e-015 -2.4492127076447639e-016 -7.5465010065785461e-031 1 -0.31974091017491091 0.14235782507652939 -7.8311350035429358e-017 1 I I #
vertex $-1 $278 $355 #
ellipse-curve $-1 12.5 2.2500000000000004 1.5307579422779714e-015 1.2246063538223819e-016 -3.7732505032892731e-031 -1 0.31974091017491091 0.14235782507652939 3.9155675017714679e-017 1 I I #
point $-1 12.819740910174913 2.3923578250765303 1.5699136172956864e-015 #
point $-1 -12.819740910174911 2.3923578250765298 -3.1398272345913721e-015 #
coedge $-1 $356 $356 $282 $325 reversed $357 $-1 #
edge $-1 $327 0 $329 3.1415926535897931 $324 $358 forward 7 unknown #
coedge $-1 $283 $285 $356 $359 reversed $290 $-1 #
vertex $-1 $359 $360 #
ellipse-curve $-1 12.250000000000002 0.74999999999999867 1.5001427834324125e-015 -1.22460635382238e-016 1.5382318729736254e-031 1 -1.7763568394002505e-015 1.1500000000000012 -3.944304526105059e-031 1 I I #
vertex $-1 $359 $361 #
ellipse-curve $-1 -12.250000000000002 0.74999999999999867 -3.0002855668648251e-015 2.4492127076447599e-016 3.0764637459472509e-031 -1 1.7763568394002505e-015 1.1500000000000012 7.8886090522101181e-031 1 I I #
face $-1 $220 $290 $3 $-1 $362 forward single #
torus-surface $-1 0 0.75 0 0 -1 0 12.25 1.1499999999999999 -1 0 0 forward_v I I I I #
face $-1 $287 $357 $3 $-1 $363 reversed single #
torus-surface $-1 0 2.25 0 0 -1 0 12.5 0.34999999999999998 -1 0 0 forward_v I I I I #
coedge $-1 $306 $308 $315 $352 forward $293 $-1 #
coedge $-1 $298 $295 $296 $340 reversed $258 $-1 #
coedge $-1 $295 $298 $297 $341 forward $258 $-1 #
coedge $-1 $308 $306 $295 $339 reversed $293 $-1 #
edge $-1 $310 0 $311 3.1415926535897931 $295 $364 forward 7 unknown #
edge $-1 $301 -5.5921141674457279e-032 $311 1.1519173063162569 $336 $365 forward 7 unknown #
edge $-1 $300 0 $310 1.1519173063162571 $337 $366 forward 7 unknown #
ellipse-curve $-1 3.3306690738754696e-016 15.6 1.1102230246251565e-016 0 -1 0 3.9520448198996148 0 3.7294761724147254e-016 1 I I #
point $-1 3.9520448198996152 15.6 4.839699197039882e-016 #
point $-1 -3.9520448198996152 15.6 0 #
straight-curve $-1 -8.1543539250555828 12.870988558148682 -1.9971747255879014e-015 -0.40673664307579976 -0.91354545764260109 -9.9618455488601782e-017 I I #
straight-curve $-1 8.1543539250555828 12.870988558148682 9.9858736279395068e-016 0.40673664307579976 -0.91354545764260109 4.9809227744300891e-017 I I #
point $-1 8.154353925055581 12.87098855814868 9.9858736279395048e-016 #
point $-1 -8.1543539250555828 12.870988558148682 -1.9971747255879014e-015 #
coedge $-1 $313 $313 $316 $353 reversed $350 $-1 #
loop $-1 $-1 $349 $333 #
ellipse-curve $-1 0 1.8999999999999999 0 0 1 0 12.5 0 0 1 I I #
edge $-1 $279 1.9200030949427014e-032 $280 3.1415926535897931 $335 $367 forward 7 unknown #
edge $-1 $320 1.2246063538223773e-016 $318 3.1415926535897931 $316 $368 forward 7 unknown #
point $-1 -12.5 1.8999999999999999 0 #
point $-1 12.5 1.8999999999999999 1.5307579422779716e-015 #
coedge $-1 $324 $324 $326 $359 forward $357 $-1 #
loop $-1 $350 $324 $333 #
ellipse-curve $-1 0 1.8999999999999999 8.8817841970012523e-016 0 1 0 12.25 0 6.1196436373228691e-016 1 I I #
edge $-1 $327 0 $329 3.1415926535897931 $356 $369 forward 7 unknown #
point $-1 12.25 1.8999999999999999 1.5001427834324121e-015 #
point $-1 -12.25 1.8999999999999999 0 #
torus-surface $-1 0 0.75 0 0 -1 0 12.25 1.1499999999999999 -1 0 0 forward_v I I I I #
plane-surface $-1 0 1.8999999999999999 0 0 -1 0 -1 0 0 forward_v I I I I #
ellipse-curve $-1 0 12.870988558148682 0 0 -1 0 8.1543539250555828 0 9.9858736279395068e-016 1 I I #
ellipse-curve $-1 -3.9520448198996148 10.999999999999996 -9.6793983940797541e-016 -2.449212707644755e-016 1.9071939954717282e-031 1 -4.4408920985006262e-016 4.6000000000000032 -9.8607613152626476e-031 1 I I #
ellipse-curve $-1 3.9520448198996148 10.999999999999996 4.839699197039877e-016 1.2246063538223775e-016 9.5359699773586411e-032 -1 4.4408920985006262e-016 4.6000000000000032 4.9303806576313238e-031 1 I I #
ellipse-curve $-1 0 2.3923578250765298 0 0 -1 0 12.819740910174911 0 1.5699136172956861e-015 1 I I #
ellipse-curve $-1 0 1.8999999999999999 0 0 -1 0 12.5 0 0 1 I I #
ellipse-curve $-1 0 1.8999999999999999 -4.4408920985006262e-016 0 -1 0 12.25 0 1.9442319932824748e-015 1 I I #
End-of-ACIS-data 