700 0 2 0           
24 FBMach with ACIS - 7.0.3 13 ACIS 7.0.3 NT 24 Thu May 16 15:52:52 2002 
1 9.9999999999999995e-007 1e-010 
body $2 -1 $-1 $3 $-1 $4 #
bdycol-kcp $-1 -1 1 3 $5 $6 $7 #
model_id-kcp-attrib $-1 -1 $-1 $-1 $0 1 1021578770 1021578770 -936574975 1 #
lump $-1 -1 $-1 $-1 $8 $0 #
transform $-1 -1 1 0 0 0 1 0 0 0 1 0 0 0 1 rotate no_reflect no_shear #
body $9 -1 $-1 $10 $-1 $11 #
body $12 -1 $-1 $13 $-1 $14 #
body $15 -1 $-1 $16 $-1 $17 #
shell $-1 -1 $-1 $-1 $-1 $18 $-1 $3 #
model_id-kcp-attrib $-1 -1 $-1 $-1 $5 1 1021578770 1021578770 -935919614 1 #
lump $-1 -1 $-1 $-1 $19 $5 #
transform $-1 -1 1 0 0 0 1 0 0 0 1 0 80.000000000000014 0 1 no_rotate no_reflect no_shear #
rgb_color-st-attrib $-1 -1 $20 $-1 $6 0.5 1 1 #
lump $-1 -1 $-1 $-1 $21 $6 #
transform $-1 -1 1 0 0 0 1 0 0 0 1 0 0 0 1 no_rotate no_reflect no_shear #
rgb_color-st-attrib $-1 -1 $22 $-1 $7 1 0.5 1 #
lump $-1 -1 $-1 $-1 $23 $7 #
transform $-1 -1 1 0 0 0 1 0 0 0 1 0 80.000000000000014 0 1 no_rotate no_reflect no_shear #
face $24 -1 $-1 $25 $26 $8 $-1 $27 forward single #
shell $-1 -1 $-1 $-1 $-1 $28 $-1 $10 #
model_id-kcp-attrib $-1 -1 $-1 $12 $6 1 1021578770 1021578770 -926089213 1 #
shell $-1 -1 $-1 $-1 $-1 $29 $-1 $13 #
model_id-kcp-attrib $-1 -1 $-1 $15 $7 1 1021578770 1021578772 -937623548 1 #
shell $-1 -1 $-1 $-1 $-1 $30 $-1 $16 #
model_id-kcp-attrib $-1 -1 $-1 $-1 $18 1 1021578770 1021578770 -936574975 2 #
face $31 -1 $-1 $32 $33 $8 $-1 $34 reversed single #
loop $-1 -1 $-1 $-1 $35 $18 #
cone-surface $-1 -1 $-1 0 167.99999999999997 0 0 -1 0 -115 0 0 1 I I 0 1 115 forward I I I I #
face $-1 -1 $-1 $36 $37 $19 $-1 $38 forward single #
face $-1 -1 $-1 $39 $40 $21 $-1 $41 forward single #
face $-1 -1 $-1 $42 $43 $23 $-1 $44 reversed single #
model_id-kcp-attrib $-1 -1 $-1 $-1 $25 1 1021578770 1021578770 -936574975 3 #
face $45 -1 $-1 $46 $47 $8 $-1 $48 forward single #
loop $-1 -1 $-1 $-1 $49 $25 #
torus-surface $-1 -1 $-1 0 7.5 0 0 -1 0 122.5 7.5 -1 0 0 forward_v I I I I #
coedge $-1 -1 $-1 $50 $51 $52 $53 forward $26 $-1 #
face $-1 -1 $-1 $54 $55 $19 $-1 $56 reversed single #
loop $-1 -1 $-1 $-1 $57 $28 #
plane-surface $-1 -1 $-1 0 0 132.5 0 0 1 1 0 0 forward_v I I I I #
face $-1 -1 $-1 $58 $59 $21 $-1 $60 reversed single #
loop $-1 -1 $-1 $61 $62 $29 #
cone-surface $-1 -1 $-1 0 160 -1.1102230246251565e-015 0 -1 0 35 0 5.3963452630034769e-015 1 I I 0 1 35 forward I I I I #
face $-1 -1 $-1 $63 $64 $23 $-1 $65 forward single #
loop $-1 -1 $-1 $66 $67 $30 #
plane-surface $-1 -1 $-1 0 -80.000000000000014 0 0 1 0 0 0 1 forward_v I I I I #
model_id-kcp-attrib $-1 -1 $-1 $-1 $32 1 1021578770 1021578770 -936574975 4 #
face $68 -1 $-1 $69 $70 $8 $-1 $71 forward single #
loop $-1 -1 $-1 $72 $73 $32 #
plane-surface $-1 -1 $-1 0 15 0 0 -1 0 -10 0 0 forward_v I I I I #
coedge $-1 -1 $-1 $74 $75 $76 $77 forward $33 $-1 #
coedge $-1 -1 $-1 $78 $35 $79 $80 reversed $26 $-1 #
coedge $-1 -1 $-1 $35 $78 $81 $82 forward $26 $-1 #
coedge $-1 -1 $-1 $75 $74 $35 $53 reversed $33 $-1 #
edge $83 -1 $-1 $84 0 $85 3.1415926535897931 $35 $86 forward @7 unknown #
face $87 -1 $-1 $88 $89 $19 $-1 $90 reversed single #
loop $-1 -1 $-1 $-1 $91 $36 #
plane-surface $-1 -1 $-1 0 0 -132.5 0 0 1 1 0 0 forward_v I I I I #
coedge $-1 -1 $-1 $92 $93 $94 $95 forward $37 $-1 #
face $-1 -1 $-1 $-1 $96 $21 $-1 $97 forward single #
loop $-1 -1 $-1 $-1 $98 $39 #
plane-surface $-1 -1 $-1 3.2297397080004557e-015 156.00000000000003 1.7763568394002505e-015 9.2504016296859512e-016 1 1.1093558768953547e-031 0 -1.1093558768953547e-031 1 forward_v I I I I #
loop $-1 -1 $-1 $-1 $99 $29 #
coedge $-1 -1 $-1 $62 $62 $98 $100 forward $40 $-1 #
face $-1 -1 $-1 $101 $102 $23 $-1 $103 reversed single #
loop $-1 -1 $-1 $104 $105 $42 #
cone-surface $-1 -1 $-1 0 79.999999999999986 0 0 1 0 -132.5 0 -1.6226034188146499e-014 1 I I 0 1 132.5 forward I I I I #
loop $-1 -1 $-1 $-1 $106 $30 #
coedge $-1 -1 $-1 $107 $107 $108 $109 forward $43 $-1 #
model_id-kcp-attrib $-1 -1 $-1 $-1 $46 1 1021578770 1021578770 -936574975 5 #
face $110 -1 $-1 $111 $112 $8 $-1 $113 forward single #
loop $-1 -1 $-1 $-1 $114 $46 #
torus-surface $-1 -1 $-1 0 22.5 0 0 -1 0 125 7.5 -1 0 0 forward_v I I I I #
loop $-1 -1 $-1 $-1 $76 $32 #
coedge $-1 -1 $-1 $115 $115 $114 $116 reversed $47 $-1 #
coedge $-1 -1 $-1 $52 $49 $117 $118 reversed $33 $-1 #
coedge $-1 -1 $-1 $49 $52 $119 $120 forward $33 $-1 #
coedge $-1 -1 $-1 $121 $121 $49 $77 reversed $72 $-1 #
edge $122 -1 $-1 $123 1.2246063538223773e-016 $124 3.1415926535897931 $49 $125 forward @7 unknown #
coedge $-1 -1 $-1 $51 $50 $126 $127 reversed $26 $-1 #
coedge $-1 -1 $-1 $128 $129 $50 $80 forward $130 $-1 #
edge $-1 -1 $-1 $131 0 $85 0.74999999999999989 $50 $132 forward @7 unknown #
coedge $-1 -1 $-1 $129 $128 $51 $82 reversed $130 $-1 #
edge $-1 -1 $-1 $133 0 $84 0.75 $51 $134 forward @7 unknown #
attrib_edge_convexity-kcp-attrib $-1 -1 $135 $-1 $53 4 #
vertex $-1 -1 $-1 $82 $136 #
vertex $-1 -1 $-1 $80 $137 #
ellipse-curve $-1 -1 $-1 0 7.4999999999999991 0 0 -1 0 115 0 1.4082973068957338e-014 1 I I #
model_id-kcp-attrib $-1 -1 $-1 $-1 $54 1 1021578770 1021578770 -935919614 3 #
face $-1 -1 $-1 $138 $139 $19 $-1 $140 reversed single #
loop $-1 -1 $-1 $-1 $141 $54 #
plane-surface $-1 -1 $-1 0 -80.000000000000014 0 0 1 0 0 0 1 forward_v I I I I #
coedge $-1 -1 $-1 $142 $143 $144 $145 forward $55 $-1 #
coedge $-1 -1 $-1 $146 $57 $147 $148 forward $37 $-1 #
coedge $-1 -1 $-1 $57 $146 $149 $150 forward $37 $-1 #
coedge $-1 -1 $-1 $151 $152 $57 $95 reversed $153 $-1 #
edge $-1 -1 $-1 $154 -80.000000000000014 $155 80.000000000000014 $94 $156 forward @7 unknown #
loop $-1 -1 $-1 $-1 $157 $58 #
plane-surface $-1 -1 $-1 3.2297397080004557e-015 160 1.7763568394002505e-015 9.2504016296859512e-016 1 1.1093558768953547e-031 0 -1.1093558768953547e-031 1 forward_v I I I I #
coedge $-1 -1 $-1 $98 $98 $62 $100 reversed $59 $-1 #
coedge $-1 -1 $-1 $99 $99 $157 $158 reversed $61 $-1 #
edge $-1 -1 $-1 $159 0 $159 6.2831853071795862 $62 $160 forward @7 unknown #
face $-1 -1 $-1 $161 $162 $23 $-1 $163 forward single #
loop $-1 -1 $-1 $164 $165 $63 #
plane-surface $-1 -1 $-1 7.1054273576010019e-015 -65 0 0 -1 0 1 0 0 forward_v I I I I #
loop $-1 -1 $-1 $-1 $166 $42 #
coedge $-1 -1 $-1 $105 $105 $106 $167 reversed $64 $-1 #
coedge $-1 -1 $-1 $106 $106 $105 $167 forward $66 $-1 #
coedge $-1 -1 $-1 $67 $67 $168 $169 forward $43 $-1 #
coedge $-1 -1 $-1 $170 $171 $67 $109 reversed $172 $-1 #
edge $-1 -1 $-1 $173 0 $174 3.1415926535897931 $67 $175 forward @7 unknown #
model_id-kcp-attrib $-1 -1 $-1 $-1 $69 1 1021578770 1021578770 -936574975 6 #
face $176 -1 $-1 $177 $178 $8 $-1 $179 forward single #
loop $-1 -1 $-1 $-1 $180 $69 #
torus-surface $-1 -1 $-1 0 22.5 0 0 -1 0 125 7.5 -1 0 0 forward_v I I I I #
coedge $-1 -1 $-1 $181 $182 $73 $116 forward $70 $-1 #
coedge $-1 -1 $-1 $73 $73 $183 $184 forward $47 $-1 #
edge $185 -1 $-1 $186 0 $187 3.1415926535897931 $73 $188 forward @7 unknown #
coedge $-1 -1 $-1 $189 $190 $74 $118 forward $191 $-1 #
edge $192 -1 $-1 $85 8.8817841970013354e-017 $124 1.5707963267949003 $74 $193 forward @7 unknown #
coedge $-1 -1 $-1 $190 $189 $75 $120 reversed $191 $-1 #
edge $194 -1 $-1 $84 2.0724163126336367e-016 $123 1.5707963267949003 $75 $195 forward @7 unknown #
coedge $-1 -1 $-1 $76 $76 $189 $196 forward $72 $-1 #
attrib_edge_convexity-kcp-attrib $-1 -1 $197 $-1 $77 4 #
vertex $-1 -1 $-1 $120 $198 #
vertex $-1 -1 $-1 $118 $199 #
ellipse-curve $-1 -1 $-1 0 15 0 0 -1 0 122.5 0 0 1 I I #
coedge $-1 -1 $-1 $200 $200 $78 $127 forward $201 $-1 #
edge $-1 -1 $-1 $133 0 $131 3.1415926535897931 $78 $202 forward @7 unknown #
coedge $-1 -1 $-1 $81 $79 $190 $203 reversed $130 $-1 #
coedge $-1 -1 $-1 $79 $81 $200 $204 forward $130 $-1 #
loop $-1 -1 $-1 $-1 $129 $205 #
vertex $-1 -1 $-1 $127 $206 #
straight-curve $-1 -1 $-1 -115 0 -2.8165946137914677e-014 0 10 0 I I #
vertex $-1 -1 $-1 $82 $207 #
straight-curve $-1 -1 $-1 115 0 1.4082973068957338e-014 0 10 0 I I #
convexity-sys-attrib $-1 -1 $-1 $83 $53 #
point $-1 -1 $-1 115 7.5 1.4082973068957338e-014 #
point $-1 -1 $-1 -115 7.4999999999999991 -2.8165946137914677e-014 #
face $208 -1 $-1 $209 $210 $19 $-1 $211 reversed single #
loop $-1 -1 $-1 $-1 $212 $88 #
plane-surface $-1 -1 $-1 -132.5 0 0 1 0 0 0 0 -1 forward_v I I I I #
coedge $-1 -1 $-1 $213 $149 $214 $215 forward $89 $-1 #
coedge $-1 -1 $-1 $216 $91 $213 $217 forward $55 $-1 #
coedge $-1 -1 $-1 $91 $216 $218 $219 forward $55 $-1 #
coedge $-1 -1 $-1 $152 $151 $91 $145 reversed $153 $-1 #
edge $-1 -1 $-1 $220 -80.000000000000014 $221 80.000000000000014 $144 $222 forward @7 unknown #
coedge $-1 -1 $-1 $93 $92 $223 $224 forward $37 $-1 #
coedge $-1 -1 $-1 $225 $226 $92 $148 reversed $210 $-1 #
edge $-1 -1 $-1 $155 -132.5 $227 132.5 $147 $228 forward @7 unknown #
coedge $-1 -1 $-1 $141 $229 $93 $150 reversed $89 $-1 #
edge $-1 -1 $-1 $230 -132.5 $154 132.5 $149 $231 forward @7 unknown #
coedge $-1 -1 $-1 $144 $94 $229 $232 forward $153 $-1 #
coedge $-1 -1 $-1 $94 $144 $225 $233 reversed $153 $-1 #
loop $-1 -1 $-1 $-1 $151 $209 #
vertex $-1 -1 $-1 $95 $234 #
vertex $-1 -1 $-1 $95 $235 #
straight-curve $-1 -1 $-1 132.5 0 132.5 0 1 0 I I #
coedge $-1 -1 $-1 $157 $157 $99 $158 forward $96 $-1 #
edge $-1 -1 $-1 $236 -3.1415926535897931 $236 3.1415926535897931 $99 $237 forward @7 unknown #
vertex $-1 -1 $-1 $100 $238 #
ellipse-curve $-1 -1 $-1 0 156.00000000000003 1.1102230246251565e-015 1.0150610510858574e-015 1 9.210661697300099e-032 35 -3.5527136788005009e-014 3.1758992137531639e-015 1 I I #
face $-1 -1 $-1 $239 $240 $23 $-1 $241 reversed single #
loop $-1 -1 $-1 $-1 $242 $101 #
torus-surface $-1 -1 $-1 0 -72.500000000000014 0 0 -1 0 122.5 7.5 -1 0 0 forward_v I I I I #
loop $-1 -1 $-1 $-1 $243 $63 #
coedge $-1 -1 $-1 $244 $244 $245 $246 reversed $102 $-1 #
coedge $-1 -1 $-1 $166 $166 $243 $247 reversed $104 $-1 #
edge $-1 -1 $-1 $248 -1.5707963267948968 $248 4.7123889803846897 $106 $249 forward @7 unknown #
coedge $-1 -1 $-1 $250 $251 $107 $169 reversed $240 $-1 #
edge $-1 -1 $-1 $174 -3.1415926535897931 $173 0 $107 $252 forward @7 unknown #
coedge $-1 -1 $-1 $253 $108 $251 $254 forward $172 $-1 #
coedge $-1 -1 $-1 $108 $253 $250 $255 reversed $172 $-1 #
loop $-1 -1 $-1 $-1 $253 $256 #
vertex $-1 -1 $-1 $109 $257 #
vertex $-1 -1 $-1 $109 $258 #
ellipse-curve $-1 -1 $-1 0 -80.000000000000014 0 0 1 0 -115 0 0 1 I I #
model_id-kcp-attrib $-1 -1 $-1 $-1 $111 1 1021578770 1021578770 -936574975 7 #
face $259 -1 $-1 $260 $261 $8 $-1 $262 forward single #
loop $-1 -1 $-1 $-1 $263 $111 #
cone-surface $-1 -1 $-1 0 311.69404675483412 0 0 1 0 -4.4522868530853561 0 0 1 I I -0.40673664307579982 0.91354545764260109 4.4522868530853561 forward I I I I #
coedge $-1 -1 $-1 $264 $265 $266 $267 forward $112 $-1 #
coedge $-1 -1 $-1 $268 $114 $264 $269 forward $70 $-1 #
coedge $-1 -1 $-1 $114 $268 $265 $270 reversed $70 $-1 #
coedge $-1 -1 $-1 $265 $264 $115 $184 reversed $112 $-1 #
edge $271 -1 $-1 $186 2.5849394142282119e-032 $187 3.1415926535897931 $115 $272 forward @7 unknown #
attrib_edge_convexity-kcp-attrib $-1 -1 $273 $-1 $116 3 #
vertex $-1 -1 $-1 $184 $274 #
vertex $-1 -1 $-1 $184 $275 #
ellipse-curve $-1 -1 $-1 0 15 8.8817841970012523e-015 0 1 0 125 0 6.4257952257784634e-015 1 I I #
coedge $-1 -1 $-1 $119 $117 $121 $196 reversed $191 $-1 #
coedge $-1 -1 $-1 $117 $119 $128 $203 forward $191 $-1 #
loop $-1 -1 $-1 $-1 $190 $276 #
attrib_edge_convexity-kcp-attrib $-1 -1 $277 $-1 $118 3 #
ellipse-curve $-1 -1 $-1 -122.49999999999999 7.5000000000000107 -3.0002855668648237e-014 -2.4492127076447501e-016 6.0837513906723666e-031 1 7.4999999999999822 -1.2212453270876722e-014 1.836909530733558e-015 1 I I #
attrib_edge_convexity-kcp-attrib $-1 -1 $278 $-1 $120 3 #
ellipse-curve $-1 -1 $-1 122.49999999999999 7.5000000000000107 1.5001427834324118e-014 1.224606353822375e-016 3.0418756953361833e-031 -1 -7.4999999999999822 -1.2212453270876722e-014 -9.18454765366779e-016 1 I I #
edge $279 -1 $-1 $123 -1.2246063538223773e-016 $124 3.1415926535897931 $121 $280 forward @7 unknown #
convexity-sys-attrib $-1 -1 $-1 $122 $77 #
point $-1 -1 $-1 122.5 15 1.5001427834324121e-014 #
point $-1 -1 $-1 -122.5 15 0 #
coedge $-1 -1 $-1 $126 $126 $129 $204 reversed $201 $-1 #
loop $-1 -1 $-1 $281 $200 $282 #
ellipse-curve $-1 -1 $-1 0 0 4.4408920985006262e-015 0 -1 0 115 0 9.6420809704567123e-015 1 I I #
edge $283 -1 $-1 $84 0 $85 3.1415926535897931 $128 $284 forward @7 unknown #
edge $-1 -1 $-1 $133 0 $131 3.1415926535897931 $200 $285 forward @7 unknown #
face $286 -1 $-1 $276 $130 $8 $-1 $287 forward single #
point $-1 -1 $-1 -115 0 0 #
point $-1 -1 $-1 115 0 1.4082973068957338e-014 #
model_id-kcp-attrib $-1 -1 $-1 $-1 $138 1 1021578770 1021578770 -935919614 2 #
face $-1 -1 $-1 $-1 $153 $19 $-1 $288 reversed single #
loop $-1 -1 $-1 $-1 $225 $138 #
plane-surface $-1 -1 $-1 0 80.000000000000014 0 0 -1 0 0 0 -1 forward_v I I I I #
coedge $-1 -1 $-1 $289 $223 $226 $290 forward $139 $-1 #
coedge $-1 -1 $-1 $229 $141 $142 $217 reversed $89 $-1 #
coedge $-1 -1 $-1 $223 $289 $141 $215 reversed $139 $-1 #
edge $-1 -1 $-1 $230 -132.5 $291 132.5 $214 $292 forward @7 unknown #
coedge $-1 -1 $-1 $143 $142 $289 $293 forward $55 $-1 #
edge $-1 -1 $-1 $221 -132.5 $291 132.5 $213 $294 forward @7 unknown #
coedge $-1 -1 $-1 $226 $225 $143 $219 reversed $210 $-1 #
edge $-1 -1 $-1 $295 -132.5 $220 132.5 $218 $296 forward @7 unknown #
vertex $-1 -1 $-1 $145 $297 #
vertex $-1 -1 $-1 $232 $298 #
straight-curve $-1 -1 $-1 132.5 0 -132.5 0 -1 0 I I #
coedge $-1 -1 $-1 $212 $214 $146 $224 reversed $139 $-1 #
edge $-1 -1 $-1 $227 -80.000000000000014 $230 80.000000000000014 $223 $299 forward @7 unknown #
coedge $-1 -1 $-1 $218 $147 $152 $233 forward $210 $-1 #
coedge $-1 -1 $-1 $147 $218 $212 $290 reversed $210 $-1 #
vertex $-1 -1 $-1 $148 $300 #
straight-curve $-1 -1 $-1 0 80.000000000000014 132.5 -1 0 0 I I #
coedge $-1 -1 $-1 $149 $213 $151 $232 reversed $89 $-1 #
vertex $-1 -1 $-1 $224 $301 #
straight-curve $-1 -1 $-1 0 -80.000000000000014 132.5 1 0 0 I I #
edge $-1 -1 $-1 $154 -132.5 $221 132.5 $151 $302 forward @7 unknown #
edge $-1 -1 $-1 $155 -132.5 $220 132.5 $152 $303 forward @7 unknown #
point $-1 -1 $-1 132.5 -80.000000000000014 132.5 #
point $-1 -1 $-1 132.5 80.000000000000014 132.5 #
vertex $-1 -1 $-1 $158 $304 #
ellipse-curve $-1 -1 $-1 0 160 -1.1102230246251565e-015 1.0150610510858574e-015 1 1.5650342556247134e-031 35 -3.5527136788005009e-014 5.3963452630034769e-015 1 I I #
point $-1 -1 $-1 35 156 4.2861222383783204e-015 #
face $-1 -1 $-1 $256 $305 $23 $-1 $306 forward single #
loop $-1 -1 $-1 $-1 $168 $161 #
cone-surface $-1 -1 $-1 0 87.999999999999957 0 0 -1 0 -115 0 0 1 I I 0 1 115 forward I I I I #
coedge $-1 -1 $-1 $307 $308 $309 $310 reversed $162 $-1 #
coedge $-1 -1 $-1 $243 $243 $166 $247 forward $164 $-1 #
coedge $-1 -1 $-1 $165 $165 $311 $312 reversed $102 $-1 #
coedge $-1 -1 $-1 $313 $314 $165 $246 forward $305 $-1 #
edge $315 -1 $-1 $316 1.5707963267948966 $317 4.7123889803846897 $165 $318 forward @7 unknown #
edge $319 -1 $-1 $320 -3.1415926535897931 $320 3.1415926535897931 $166 $321 forward @7 unknown #
vertex $-1 -1 $-1 $167 $322 #
ellipse-curve $-1 -1 $-1 0 -80.000000000000014 0 0 -1 0 -132.5 0 -1.6226034188146499e-014 1 I I #
coedge $-1 -1 $-1 $309 $168 $171 $255 forward $240 $-1 #
coedge $-1 -1 $-1 $168 $309 $170 $254 reversed $240 $-1 #
ellipse-curve $-1 -1 $-1 0 -80.000000000000014 0 0 1 0 -115 0 0 1 I I #
coedge $-1 -1 $-1 $171 $170 $323 $324 reversed $172 $-1 #
edge $325 -1 $-1 $173 0 $326 0.75 $170 $327 forward @7 unknown #
edge $328 -1 $-1 $174 0 $329 0.75 $171 $330 forward @7 unknown #
face $-1 -1 $-1 $-1 $172 $23 $-1 $331 reversed single #
point $-1 -1 $-1 -115 -80.000000000000014 0 #
point $-1 -1 $-1 115 -80.000000000000014 1.4082973068957338e-014 #
model_id-kcp-attrib $-1 -1 $-1 $-1 $177 1 1021578770 1021578770 -936574975 8 #
face $332 -1 $-1 $333 $334 $8 $-1 $335 reversed single #
loop $-1 -1 $-1 $-1 $336 $177 #
torus-surface $-1 -1 $-1 0 110 0 0 -1 0 39.520448198996164 50 -1 0 0 forward_v I I I I #
coedge $-1 -1 $-1 $337 $338 $339 $340 forward $178 $-1 #
coedge $-1 -1 $-1 $183 $180 $181 $269 reversed $112 $-1 #
coedge $-1 -1 $-1 $180 $183 $182 $270 forward $112 $-1 #
coedge $-1 -1 $-1 $338 $337 $180 $267 reversed $178 $-1 #
edge $-1 -1 $-1 $341 2.3232697929841955e-032 $342 3.1415926535897931 $180 $343 forward @7 unknown #
coedge $-1 -1 $-1 $182 $181 $344 $345 reversed $70 $-1 #
edge $-1 -1 $-1 $187 -4.7369515717340022e-016 $342 1.9896753472735238 $264 $346 forward @7 unknown #
edge $-1 -1 $-1 $186 -4.7369515717339913e-016 $341 1.9896753472735318 $265 $347 forward @7 unknown #
attrib_edge_convexity-kcp-attrib $-1 -1 $348 $-1 $184 3 #
ellipse-curve $-1 -1 $-1 8.8817841970012523e-015 15 -8.8817841970012523e-015 0 -1 0 125 0 2.4189363619780968e-014 1 I I #
convexity-sys-attrib $-1 -1 $-1 $185 $116 #
point $-1 -1 $-1 125 15 1.5307579422779716e-014 #
point $-1 -1 $-1 -125 15 0 #
face $349 -1 $-1 $350 $191 $8 $-1 $351 reversed single #
convexity-sys-attrib $-1 -1 $-1 $192 $118 #
convexity-sys-attrib $-1 -1 $-1 $194 $120 #
attrib_edge_convexity-kcp-attrib $-1 -1 $352 $-1 $196 4 #
ellipse-curve $-1 -1 $-1 0 15 0 0 1 0 122.5 0 0 1 I I #
loop $-1 -1 $-1 $-1 $353 $282 #
face $354 -1 $-1 $205 $201 $8 $-1 $355 forward single #
attrib_edge_convexity-kcp-attrib $-1 -1 $356 $-1 $203 4 #
ellipse-curve $-1 -1 $-1 0 7.4999999999999991 0 0 1 0 115 0 1.4082973068957338e-014 1 I I #
ellipse-curve $-1 -1 $-1 -4.4408920985006262e-015 0 -4.4408920985006262e-015 0 1 0 115 0 1.8523865167457965e-014 1 I I #
model_id-kcp-attrib $-1 -1 $-1 $-1 $205 1 1021578770 1021578770 -936574975 22 #
cone-surface $-1 -1 $-1 0 167.99999999999997 0 0 -1 0 -115 0 0 1 I I 0 1 115 forward I I I I #
plane-surface $-1 -1 $-1 132.5 0 0 -1 0 0 0 0 1 forward_v I I I I #
coedge $-1 -1 $-1 $214 $212 $216 $293 reversed $139 $-1 #
edge $-1 -1 $-1 $227 -132.5 $295 132.5 $226 $357 forward @7 unknown #
vertex $-1 -1 $-1 $293 $358 #
straight-curve $-1 -1 $-1 -132.5 -80.000000000000014 0 0 0 -1 I I #
edge $-1 -1 $-1 $291 -80.000000000000014 $295 80.000000000000014 $289 $359 forward @7 unknown #
straight-curve $-1 -1 $-1 0 -80.000000000000014 -132.5 -1 0 0 I I #
vertex $-1 -1 $-1 $219 $360 #
straight-curve $-1 -1 $-1 0 80.000000000000014 -132.5 1 0 0 I I #
point $-1 -1 $-1 132.5 80.000000000000014 -132.5 #
point $-1 -1 $-1 132.5 -80.000000000000014 -132.5 #
straight-curve $-1 -1 $-1 -132.5 0 132.5 0 -1 0 I I #
point $-1 -1 $-1 -132.5 80.000000000000014 132.5 #
point $-1 -1 $-1 -132.5 -80.000000000000014 132.5 #
straight-curve $-1 -1 $-1 132.5 -80.000000000000014 0 0 0 -1 I I #
straight-curve $-1 -1 $-1 132.5 80.000000000000014 0 0 0 -1 I I #
point $-1 -1 $-1 -35 159.99999999999997 0 #
loop $-1 -1 $-1 $-1 $245 $239 #
torus-surface $-1 -1 $-1 0 -72.500000000000014 0 0 -1 0 122.5 7.5 -1 0 0 forward_v I I I I #
coedge $-1 -1 $-1 $311 $242 $313 $361 forward $162 $-1 #
coedge $-1 -1 $-1 $242 $311 $314 $362 reversed $162 $-1 #
coedge $-1 -1 $-1 $251 $250 $242 $310 forward $240 $-1 #
edge $363 -1 $-1 $329 0 $326 3.1415926535897931 $309 $364 forward @7 unknown #
coedge $-1 -1 $-1 $308 $307 $244 $312 forward $162 $-1 #
edge $365 -1 $-1 $317 -1.5707963267948968 $316 1.5707963267948966 $244 $366 forward @7 unknown #
coedge $-1 -1 $-1 $323 $245 $307 $361 reversed $305 $-1 #
coedge $-1 -1 $-1 $245 $323 $308 $362 forward $305 $-1 #
convexity-sys-attrib $-1 -1 $-1 $-1 $246 #
vertex $-1 -1 $-1 $246 $367 #
vertex $-1 -1 $-1 $246 $368 #
ellipse-curve $-1 -1 $-1 0 -65 0 0 1 0 0 0 -122.5 1 I I #
convexity-sys-attrib $-1 -1 $-1 $-1 $247 #
vertex $-1 -1 $-1 $247 $369 #
ellipse-curve $-1 -1 $-1 0 -65.000000000000014 0 0 1 0 -132.5 0 -1.6226034188146499e-014 1 I I #
point $-1 -1 $-1 0 -80.000000000000014 132.5 #
coedge $-1 -1 $-1 $314 $313 $253 $324 forward $305 $-1 #
edge $370 -1 $-1 $329 0 $326 3.1415926535897931 $253 $371 forward @7 unknown #
convexity-sys-attrib $-1 -1 $-1 $-1 $254 #
vertex $-1 -1 $-1 $254 $372 #
straight-curve $-1 -1 $-1 -115 -80.000000000000014 -2.8165946137914677e-014 0 10 0 I I #
convexity-sys-attrib $-1 -1 $-1 $-1 $255 #
vertex $-1 -1 $-1 $255 $373 #
straight-curve $-1 -1 $-1 115 -80.000000000000014 1.4082973068957338e-014 0 10 0 I I #
cone-surface $-1 -1 $-1 0 87.999999999999957 0 0 -1 0 -115 0 0 1 I I 0 1 115 forward I I I I #
model_id-kcp-attrib $-1 -1 $-1 $-1 $260 1 1021578770 1021578770 -936574975 9 #
face $374 -1 $-1 $375 $376 $8 $-1 $377 reversed single #
loop $-1 -1 $-1 $378 $379 $260 #
plane-surface $-1 -1 $-1 0 160 0 0 -1 0 -10 0 0 forward_v I I I I #
coedge $-1 -1 $-1 $380 $381 $382 $383 forward $261 $-1 #
coedge $-1 -1 $-1 $266 $263 $384 $385 reversed $178 $-1 #
coedge $-1 -1 $-1 $263 $266 $386 $387 forward $178 $-1 #
coedge $-1 -1 $-1 $381 $380 $263 $340 reversed $261 $-1 #
edge $-1 -1 $-1 $388 -2.7821749921527045e-032 $389 3.1415926535897931 $263 $390 forward @7 unknown #
vertex $-1 -1 $-1 $270 $391 #
vertex $-1 -1 $-1 $269 $392 #
ellipse-curve $-1 -1 $-1 0 25.55052482306845 0 0 -1 0 131.85159093231954 0 1.6146629601730742e-014 1 I I #
coedge $-1 -1 $-1 $384 $386 $268 $345 forward $393 $-1 #
edge $-1 -1 $-1 $341 -2.3232697929841955e-032 $342 3.1415926535897931 $268 $394 forward @7 unknown #
ellipse-curve $-1 -1 $-1 -124.99999999999999 22.500000000000007 -3.0615158845559425e-014 2.4492127076447634e-016 4.7172444104524428e-031 -1 -1.7763568394002505e-014 -7.5000000000000089 -7.8886090522101181e-030 1 I I #
ellipse-curve $-1 -1 $-1 124.99999999999999 22.500000000000007 1.5307579422779713e-014 -1.2246063538223817e-016 2.3586222052262214e-031 1 1.7763568394002505e-014 -7.5000000000000089 3.944304526105059e-030 1 I I #
convexity-sys-attrib $-1 -1 $-1 $271 $184 #
model_id-kcp-attrib $-1 -1 $-1 $-1 $276 1 1021578770 1021578770 -936574975 23 #
face $395 -1 $-1 $396 $397 $8 $-1 $398 reversed single #
torus-surface $-1 -1 $-1 0 7.5 0 0 -1 0 122.5 7.5 -1 0 0 forward_v I I I I #
convexity-sys-attrib $-1 -1 $-1 $279 $196 #
coedge $-1 -1 $-1 $399 $399 $400 $401 reversed $281 $-1 #
model_id-kcp-attrib $-1 -1 $-1 $-1 $282 1 1021578770 1021578770 -936574975 21 #
plane-surface $-1 -1 $-1 0 0 0 0 -1 0 -10 0 0 forward_v I I I I #
convexity-sys-attrib $-1 -1 $-1 $283 $203 #
straight-curve $-1 -1 $-1 -132.5 80.000000000000014 0 0 0 -1 I I #
point $-1 -1 $-1 -132.5 -80.000000000000014 -132.5 #
straight-curve $-1 -1 $-1 -132.5 0 -132.5 0 1 0 I I #
point $-1 -1 $-1 -132.5 80.000000000000014 -132.5 #
edge $402 -1 $-1 $329 -2.6645352591003736e-016 $317 1.5707963267949001 $313 $403 forward @7 unknown #
edge $404 -1 $-1 $326 -2.6645352591003736e-016 $316 1.5707963267949001 $314 $405 forward @7 unknown #
convexity-sys-attrib $-1 -1 $-1 $-1 $310 #
ellipse-curve $-1 -1 $-1 0 -72.500000000000014 0 0 1 0 115 0 1.4082973068957338e-014 1 I I #
convexity-sys-attrib $-1 -1 $-1 $-1 $312 #
ellipse-curve $-1 -1 $-1 0 -65 0 0 1 0 0 0 -122.5 1 I I #
point $-1 -1 $-1 -122.5 -65.000000000000014 0 #
point $-1 -1 $-1 122.5 -65.000000000000014 1.5001427834324121e-014 #
point $-1 -1 $-1 132.5 -65.000000000000014 0 #
convexity-sys-attrib $-1 -1 $-1 $-1 $324 #
ellipse-curve $-1 -1 $-1 0 -72.500000000000014 0 0 -1 0 115 0 1.4082973068957338e-014 1 I I #
point $-1 -1 $-1 -115 -72.500000000000014 -2.8165946137914677e-014 #
point $-1 -1 $-1 115 -72.500000000000014 1.4082973068957338e-014 #
model_id-kcp-attrib $-1 -1 $-1 $-1 $333 1 1021578770 1021578770 -936574975 10 #
face $406 -1 $-1 $407 $408 $8 $-1 $409 reversed single #
loop $-1 -1 $-1 $-1 $410 $333 #
cone-surface $-1 -1 $-1 0 167.99999999999997 0 0 -1 0 -35 0 0 1 I I 0 1 35 forward I I I I #
loop $-1 -1 $-1 $-1 $382 $260 #
coedge $-1 -1 $-1 $411 $411 $410 $412 reversed $334 $-1 #
coedge $-1 -1 $-1 $339 $336 $413 $414 reversed $261 $-1 #
coedge $-1 -1 $-1 $336 $339 $415 $416 forward $261 $-1 #
coedge $-1 -1 $-1 $417 $417 $336 $383 reversed $378 $-1 #
edge $418 -1 $-1 $419 1.2246063538223775e-016 $420 3.1415926535897931 $336 $421 forward @7 unknown #
coedge $-1 -1 $-1 $422 $344 $337 $385 forward $393 $-1 #
edge $-1 -1 $-1 $342 0 $389 11.470289349489189 $337 $423 forward @7 unknown #
coedge $-1 -1 $-1 $344 $422 $338 $387 reversed $393 $-1 #
edge $-1 -1 $-1 $341 6.0243632337792316e-015 $388 11.470289349489189 $338 $424 forward @7 unknown #
vertex $-1 -1 $-1 $387 $425 #
vertex $-1 -1 $-1 $385 $426 #
ellipse-curve $-1 -1 $-1 0 130.33683215379 0 0 -1 0 85.197721081126204 0 1.0433367056713387e-014 1 I I #
point $-1 -1 $-1 131.85159093231951 25.550524823068503 1.6146629601730742e-014 #
point $-1 -1 $-1 -131.85159093231954 25.55052482306845 -3.2293259203461484e-014 #
loop $-1 -1 $-1 $-1 $344 $427 #
ellipse-curve $-1 -1 $-1 0 25.55052482306845 0 0 1 0 131.85159093231954 0 1.6146629601730742e-014 1 I I #
model_id-kcp-attrib $-1 -1 $-1 $-1 $350 1 1021578770 1021578770 -936574975 24 #
face $428 -1 $-1 $429 $430 $8 $-1 $431 reversed single #
loop $-1 -1 $-1 $-1 $432 $350 #
cone-surface $-1 -1 $-1 0 167.99999999999997 0 0 -1 0 -111 0 0 1 I I 0 1 111 forward I I I I #
coedge $-1 -1 $-1 $353 $353 $433 $434 forward $281 $-1 #
coedge $-1 -1 $-1 $435 $436 $353 $401 forward $437 $-1 #
edge $-1 -1 $-1 $438 1.2246063538223773e-016 $439 3.1415926535897931 $400 $440 forward @7 unknown #
convexity-sys-attrib $-1 -1 $-1 $-1 $361 #
ellipse-curve $-1 -1 $-1 122.49999999999999 -72.5 1.5001427834324118e-014 1.224606353822375e-016 3.0418756953361833e-031 -1 -7.4999999999999822 -1.2212453270876722e-014 -9.18454765366779e-016 1 I I #
convexity-sys-attrib $-1 -1 $-1 $-1 $362 #
ellipse-curve $-1 -1 $-1 -122.49999999999999 -72.5 -3.0002855668648237e-014 -2.4492127076447501e-016 6.0837513906723666e-031 1 7.4999999999999822 -1.2212453270876722e-014 1.836909530733558e-015 1 I I #
model_id-kcp-attrib $-1 -1 $-1 $-1 $375 1 1021578770 1021578770 -936574975 11 #
face $441 -1 $-1 $442 $443 $8 $-1 $444 forward single #
loop $-1 -1 $-1 $-1 $445 $375 #
cone-surface $-1 -1 $-1 0 167.99999999999997 0 0 -1 0 -35 0 0 1 I I 0 1 35 forward I I I I #
coedge $-1 -1 $-1 $446 $447 $379 $412 forward $376 $-1 #
coedge $-1 -1 $-1 $379 $379 $448 $449 forward $334 $-1 #
edge $450 -1 $-1 $451 0 $452 3.1415926535897931 $379 $453 forward @7 unknown #
coedge $-1 -1 $-1 $454 $455 $380 $414 forward $456 $-1 #
edge $-1 -1 $-1 $389 2.2737367544323231e-016 $420 1.1519173063162587 $380 $457 forward @7 unknown #
coedge $-1 -1 $-1 $455 $454 $381 $416 reversed $456 $-1 #
edge $-1 -1 $-1 $388 3.1832314562052532e-016 $419 1.1519173063162589 $381 $458 forward @7 unknown #
coedge $-1 -1 $-1 $382 $382 $454 $459 forward $378 $-1 #
attrib_edge_convexity-kcp-attrib $-1 -1 $460 $-1 $383 3 #
vertex $-1 -1 $-1 $416 $461 #
vertex $-1 -1 $-1 $414 $462 #
ellipse-curve $-1 -1 $-1 0 160 0 0 -1 0 39.520448198996164 0 0 1 I I #
coedge $-1 -1 $-1 $386 $384 $455 $463 reversed $393 $-1 #
straight-curve $-1 -1 $-1 -131.85159093231954 25.55052482306845 -3.2293259203461484e-014 4.0673664307579989 9.1354545764260102 9.961845548860178e-016 I I #
straight-curve $-1 -1 $-1 131.85159093231954 25.55052482306845 1.6146629601730742e-014 -4.0673664307579989 9.1354545764260102 -4.980922774430089e-016 I I #
point $-1 -1 $-1 85.19772108112619 130.33683215379 1.0433367056713384e-014 #
point $-1 -1 $-1 -85.197721081126204 130.33683215379 -2.0866734113426774e-014 #
face $464 -1 $-1 $-1 $393 $8 $-1 $465 forward single #
model_id-kcp-attrib $-1 -1 $-1 $-1 $396 1 1021578770 1021578770 -936574975 25 #
face $466 -1 $-1 $467 $468 $8 $-1 $469 reversed single #
loop $-1 -1 $-1 $-1 $470 $396 #
torus-surface $-1 -1 $-1 0 22.5 0 0 -1 0 125 3.5 -1 0 0 forward_v I I I I #
coedge $-1 -1 $-1 $471 $472 $473 $474 forward $397 $-1 #
coedge $-1 -1 $-1 $472 $471 $399 $434 reversed $397 $-1 #
edge $-1 -1 $-1 $438 -1.224606353822377e-016 $439 3.1415926535897931 $399 $475 forward @7 unknown #
coedge $-1 -1 $-1 $476 $400 $471 $477 reversed $437 $-1 #
coedge $-1 -1 $-1 $400 $476 $472 $478 forward $437 $-1 #
loop $-1 -1 $-1 $-1 $400 $479 #
vertex $-1 -1 $-1 $478 $480 #
vertex $-1 -1 $-1 $477 $481 #
ellipse-curve $-1 -1 $-1 0 0 -8.8817841970012523e-015 0 -1 0 111 0 8.8817841970012523e-015 1 I I #
model_id-kcp-attrib $-1 -1 $-1 $-1 $407 1 1021578770 1021578770 -936574975 12 #
face $482 -1 $-1 $483 $484 $8 $-1 $485 reversed single #
loop $-1 -1 $-1 $486 $487 $407 #
plane-surface $-1 -1 $-1 0 156 0 0 -1 0 -10 0 0 forward_v I I I I #
coedge $-1 -1 $-1 $488 $489 $490 $491 forward $408 $-1 #
coedge $-1 -1 $-1 $492 $410 $488 $493 forward $376 $-1 #
coedge $-1 -1 $-1 $410 $492 $489 $494 reversed $376 $-1 #
coedge $-1 -1 $-1 $489 $488 $411 $449 reversed $408 $-1 #
edge $495 -1 $-1 $451 0 $452 3.1415926535897931 $411 $496 forward @7 unknown #
attrib_edge_convexity-kcp-attrib $-1 -1 $497 $-1 $412 1 #
vertex $-1 -1 $-1 $449 $498 #
vertex $-1 -1 $-1 $449 $499 #
ellipse-curve $-1 -1 $-1 0 160 -1.1102230246251565e-015 1.0150610510858574e-015 1 1.5650342556247134e-031 35 -3.5527136788005009e-014 5.3963452630034769e-015 1 I I #
coedge $-1 -1 $-1 $415 $413 $417 $459 reversed $456 $-1 #
coedge $-1 -1 $-1 $413 $415 $422 $463 forward $456 $-1 #
loop $-1 -1 $-1 $-1 $455 $467 #
ellipse-curve $-1 -1 $-1 -39.520448198996178 110.00000000000003 -9.6793983940797888e-015 2.4492127076447525e-016 4.2598488881934693e-031 -1 -45.677272882130033 20.336832153789963 -1.1187335719346985e-014 1 I I #
ellipse-curve $-1 -1 $-1 39.520448198996178 110.00000000000003 4.8396991970398944e-015 -1.2246063538223763e-016 2.1299244440967346e-031 1 45.677272882130033 20.336832153789963 5.5936678596734925e-015 1 I I #
edge $500 -1 $-1 $419 -1.2246063538223775e-016 $420 3.1415926535897931 $417 $501 forward @7 unknown #
convexity-sys-attrib $-1 -1 $-1 $418 $383 #
point $-1 -1 $-1 39.520448198996149 160 4.8396991970398818e-015 #
point $-1 -1 $-1 -39.520448198996164 160 0 #
edge $-1 -1 $-1 $388 2.7821749921527045e-032 $389 3.1415926535897931 $422 $502 forward @7 unknown #
model_id-kcp-attrib $-1 -1 $-1 $-1 $427 1 1021578770 1021578770 -936574975 28 #
cone-surface $-1 -1 $-1 0 311.69404675483412 0 0 1 0 -4.4522868530853561 0 0 1 I I -0.40673664307579982 0.91354545764260109 4.4522868530853561 forward I I I I #
model_id-kcp-attrib $-1 -1 $-1 $-1 $429 1 1021578770 1021578770 -936574975 26 #
face $503 -1 $-1 $427 $456 $8 $-1 $504 forward single #
loop $-1 -1 $-1 $-1 $505 $429 #
cone-surface $-1 -1 $-1 0 301.85967341253723 0 0 1 0 -4.4522868530853561 0 0 1 I I -0.40673664307579982 0.91354545764260109 4.4522868530853561 forward I I I I #
coedge $-1 -1 $-1 $506 $507 $508 $509 forward $430 $-1 #
coedge $-1 -1 $-1 $433 $432 $435 $477 forward $397 $-1 #
coedge $-1 -1 $-1 $432 $433 $436 $478 reversed $397 $-1 #
coedge $-1 -1 $-1 $510 $511 $432 $474 reversed $512 $-1 #
edge $-1 -1 $-1 $513 -1.6390584509096585e-032 $514 3.1415926535897931 $473 $515 forward @7 unknown #
ellipse-curve $-1 -1 $-1 0 0 8.8817841970012523e-015 0 1 0 111 0 -8.8817841970012523e-015 1 I I #
coedge $-1 -1 $-1 $436 $435 $516 $517 reversed $437 $-1 #
edge $-1 -1 $-1 $514 0 $439 0.75 $435 $518 forward @7 unknown #
edge $-1 -1 $-1 $513 8.8817841970012528e-017 $438 0.75 $436 $519 forward @7 unknown #
face $520 -1 $-1 $282 $437 $8 $-1 $521 reversed single #
point $-1 -1 $-1 111 0 1.3593130527428386e-014 #
point $-1 -1 $-1 -111 0 0 #
model_id-kcp-attrib $-1 -1 $-1 $-1 $442 1 1021578770 1021578770 -936574975 13 #
face $522 -1 $-1 $523 $524 $8 $-1 $525 reversed single #
loop $-1 -1 $-1 $-1 $526 $442 #
torus-surface $-1 -1 $-1 0 110 0 0 -1 0 39.520448198996164 46 -1 0 0 forward_v I I I I #
loop $-1 -1 $-1 $-1 $490 $407 #
coedge $-1 -1 $-1 $527 $527 $526 $528 reversed $443 $-1 #
coedge $-1 -1 $-1 $448 $445 $446 $493 reversed $408 $-1 #
coedge $-1 -1 $-1 $445 $448 $447 $494 forward $408 $-1 #
coedge $-1 -1 $-1 $529 $529 $445 $491 reversed $486 $-1 #
edge $530 -1 $-1 $531 1.2246063538223773e-016 $532 3.1415926535897931 $445 $533 forward @7 unknown #
coedge $-1 -1 $-1 $447 $446 $529 $534 reversed $376 $-1 #
edge $-1 -1 $-1 $452 0 $532 0.39999999999999714 $488 $535 forward @7 unknown #
edge $-1 -1 $-1 $451 0 $531 0.40000000000000002 $489 $536 forward @7 unknown #
attrib_edge_convexity-kcp-attrib $-1 -1 $537 $-1 $449 1 #
ellipse-curve $-1 -1 $-1 0 160 1.1102230246251565e-015 -1.0150610510858574e-015 -1 -9.210661697300099e-032 35 -3.5527136788005009e-014 3.1758992137531639e-015 1 I I #
convexity-sys-attrib $-1 -1 $-1 $450 $412 #
point $-1 -1 $-1 35 159.99999999999997 4.2861222383783204e-015 #
point $-1 -1 $-1 -35 159.99999999999997 0 #
attrib_edge_convexity-kcp-attrib $-1 -1 $538 $-1 $459 3 #
ellipse-curve $-1 -1 $-1 0 160 0 0 1 0 39.520448198996164 0 0 1 I I #
ellipse-curve $-1 -1 $-1 0 130.33683215379 0 0 1 0 85.197721081126204 0 1.0433367056713387e-014 1 I I #
model_id-kcp-attrib $-1 -1 $-1 $-1 $467 1 1021578770 1021578770 -936574975 27 #
torus-surface $-1 -1 $-1 0 110 0 0 -1 0 39.520448198996164 50 -1 0 0 forward_v I I I I #
coedge $-1 -1 $-1 $539 $540 $541 $542 forward $468 $-1 #
coedge $-1 -1 $-1 $543 $470 $544 $545 forward $430 $-1 #
coedge $-1 -1 $-1 $470 $543 $546 $547 reversed $430 $-1 #
coedge $-1 -1 $-1 $540 $539 $470 $509 reversed $468 $-1 #
edge $-1 -1 $-1 $548 -2.457603961526658e-032 $549 3.1415926535897931 $508 $550 forward @7 unknown #
coedge $-1 -1 $-1 $551 $473 $552 $553 reversed $512 $-1 #
coedge $-1 -1 $-1 $473 $551 $554 $555 forward $512 $-1 #
loop $-1 -1 $-1 $-1 $551 $556 #
vertex $-1 -1 $-1 $553 $557 #
vertex $-1 -1 $-1 $555 $558 #
ellipse-curve $-1 -1 $-1 0 7.5 0 0 1 0 111 0 1.3593130527428386e-014 1 I I #
coedge $-1 -1 $-1 $554 $552 $476 $517 forward $559 $-1 #
edge $-1 -1 $-1 $513 1.6390584509096585e-032 $514 3.1415926535897931 $516 $560 forward @7 unknown #
straight-curve $-1 -1 $-1 -111 7.5 -2.7186261054856772e-014 0 -10 0 I I #
straight-curve $-1 -1 $-1 111 7.5 1.3593130527428386e-014 0 -10 0 I I #
model_id-kcp-attrib $-1 -1 $-1 $-1 $479 1 1021578770 1021578770 -936574975 20 #
cone-surface $-1 -1 $-1 0 167.99999999999997 0 0 -1 0 -111 0 0 1 I I 0 1 111 forward I I I I #
model_id-kcp-attrib $-1 -1 $-1 $-1 $483 1 1021578770 1021578770 -936574975 14 #
face $561 -1 $-1 $562 $563 $8 $-1 $564 reversed single #
loop $-1 -1 $-1 $-1 $565 $483 #
torus-surface $-1 -1 $-1 0 110 0 0 -1 0 39.520448198996164 46 -1 0 0 forward_v I I I I #
coedge $-1 -1 $-1 $566 $567 $487 $528 forward $484 $-1 #
coedge $-1 -1 $-1 $487 $487 $568 $569 forward $443 $-1 #
edge $570 -1 $-1 $571 0 $572 3.1415926535897931 $487 $573 forward @7 unknown #
coedge $-1 -1 $-1 $490 $490 $492 $534 forward $486 $-1 #
attrib_edge_convexity-kcp-attrib $-1 -1 $574 $-1 $491 1 #
vertex $-1 -1 $-1 $494 $575 #
vertex $-1 -1 $-1 $493 $576 #
ellipse-curve $-1 -1 $-1 0 156 0 0 -1 0 35 0 0 1 I I #
edge $577 -1 $-1 $531 -1.2246063538223773e-016 $532 3.1415926535897931 $529 $578 forward @7 unknown #
straight-curve $-1 -1 $-1 -35 159.99999999999997 -8.5722444767566408e-015 0 -10 0 I I #
straight-curve $-1 -1 $-1 35 159.99999999999997 4.2861222383783204e-015 0 -10 0 I I #
convexity-sys-attrib $-1 -1 $-1 $495 $449 #
convexity-sys-attrib $-1 -1 $-1 $500 $459 #
coedge $-1 -1 $-1 $508 $505 $579 $580 forward $468 $-1 #
coedge $-1 -1 $-1 $505 $508 $581 $582 reversed $468 $-1 #
coedge $-1 -1 $-1 $567 $566 $505 $542 reversed $484 $-1 #
edge $583 -1 $-1 $584 0 $585 3.1415926535897931 $541 $586 forward @7 unknown #
coedge $-1 -1 $-1 $507 $506 $587 $588 reversed $430 $-1 #
coedge $-1 -1 $-1 $589 $590 $506 $545 reversed $591 $-1 #
edge $-1 -1 $-1 $549 3.6252180395923347e-016 $592 1.9896753472735333 $544 $593 forward @7 unknown #
coedge $-1 -1 $-1 $590 $589 $507 $547 forward $591 $-1 #
edge $-1 -1 $-1 $548 -5.8003488633477335e-016 $594 1.9896753472735333 $546 $595 forward @7 unknown #
vertex $-1 -1 $-1 $582 $596 #
vertex $-1 -1 $-1 $580 $597 #
ellipse-curve $-1 -1 $-1 0 23.923578250765299 0 0 1 0 128.19740910174912 0 1.569913617295686e-014 1 I I #
coedge $-1 -1 $-1 $511 $510 $598 $599 forward $512 $-1 #
coedge $-1 -1 $-1 $516 $600 $510 $553 forward $559 $-1 #
edge $-1 -1 $-1 $601 -3.0893162424352166e-016 $513 1.5707963267948939 $552 $602 forward @7 unknown #
coedge $-1 -1 $-1 $600 $516 $511 $555 reversed $559 $-1 #
edge $-1 -1 $-1 $603 -3.0893162424352107e-016 $514 1.5707963267948939 $554 $604 forward @7 unknown #
face $605 -1 $-1 $606 $512 $8 $-1 $607 forward single #
point $-1 -1 $-1 111 7.4999999999999991 1.3593130527428388e-014 #
point $-1 -1 $-1 -111 7.5 -2.7186261054856772e-014 #
loop $-1 -1 $-1 $-1 $516 $606 #
ellipse-curve $-1 -1 $-1 0 7.5 0 0 -1 0 111 0 1.3593130527428386e-014 1 I I #
model_id-kcp-attrib $-1 -1 $-1 $-1 $523 1 1021578770 1021578770 -936574975 15 #
face $608 -1 $-1 $609 $591 $8 $-1 $610 reversed single #
loop $-1 -1 $-1 $-1 $611 $523 #
cone-surface $-1 -1 $-1 0 301.85967341253723 0 0 1 0 -4.4522868530853561 0 0 1 I I -0.40673664307579982 0.91354545764260109 4.4522868530853561 forward I I I I #
coedge $-1 -1 $-1 $612 $613 $614 $615 forward $524 $-1 #
coedge $-1 -1 $-1 $541 $526 $612 $616 forward $484 $-1 #
coedge $-1 -1 $-1 $526 $541 $613 $617 reversed $484 $-1 #
coedge $-1 -1 $-1 $613 $612 $527 $569 reversed $524 $-1 #
edge $618 -1 $-1 $571 0 $572 3.1415926535897931 $527 $619 forward @7 unknown #
attrib_edge_convexity-kcp-attrib $-1 -1 $620 $-1 $528 4 #
vertex $-1 -1 $-1 $569 $621 #
vertex $-1 -1 $-1 $569 $622 #
ellipse-curve $-1 -1 $-1 0 156 1.1102230246251565e-015 0 1 0 39.520448198996149 0 3.7294761724147252e-015 1 I I #
convexity-sys-attrib $-1 -1 $-1 $530 $491 #
point $-1 -1 $-1 35 155.99999999999997 4.2861222383783204e-015 #
point $-1 -1 $-1 -35 156 0 #
attrib_edge_convexity-kcp-attrib $-1 -1 $623 $-1 $534 1 #
ellipse-curve $-1 -1 $-1 0 156 0 0 1 0 35 0 0 1 I I #
coedge $-1 -1 $-1 $614 $611 $539 $580 reversed $563 $-1 #
edge $-1 -1 $-1 $585 0 $549 11.470289349489184 $579 $624 forward @7 unknown #
coedge $-1 -1 $-1 $611 $614 $540 $582 forward $563 $-1 #
edge $-1 -1 $-1 $584 2.0184448206484295e-015 $548 11.470289349489184 $581 $625 forward @7 unknown #
attrib_edge_convexity-kcp-attrib $-1 -1 $626 $-1 $542 4 #
vertex $-1 -1 $-1 $617 $627 #
vertex $-1 -1 $-1 $616 $628 #
ellipse-curve $-1 -1 $-1 0 128.70988558148682 0 0 1 0 81.543539250555824 0 9.9858736279395064e-015 1 I I #
coedge $-1 -1 $-1 $629 $629 $543 $588 forward $630 $-1 #
edge $-1 -1 $-1 $594 -1.2246063538223773e-016 $592 3.1415926535897931 $587 $631 forward @7 unknown #
coedge $-1 -1 $-1 $546 $544 $611 $632 reversed $591 $-1 #
coedge $-1 -1 $-1 $544 $546 $629 $633 forward $591 $-1 #
loop $-1 -1 $-1 $-1 $590 $562 #
vertex $-1 -1 $-1 $545 $634 #
ellipse-curve $-1 -1 $-1 -125 22.500000000000004 -3.0615158845559425e-014 -2.4492127076447639e-016 -7.5465010065785461e-031 1 -3.1974091017491091 1.4235782507652939 -7.8311350035429358e-016 1 I I #
vertex $-1 -1 $-1 $547 $635 #
ellipse-curve $-1 -1 $-1 125 22.500000000000004 1.5307579422779713e-014 1.2246063538223819e-016 -3.7732505032892731e-031 -1 3.1974091017491091 1.4235782507652939 3.9155675017714679e-016 1 I I #
point $-1 -1 $-1 128.19740910174912 23.923578250765303 1.5699136172956863e-014 #
point $-1 -1 $-1 -128.19740910174912 23.923578250765299 -3.139827234591372e-014 #
coedge $-1 -1 $-1 $636 $636 $551 $599 reversed $637 $-1 #
edge $-1 -1 $-1 $601 0 $603 3.1415926535897931 $598 $638 forward @7 unknown #
coedge $-1 -1 $-1 $552 $554 $636 $639 reversed $559 $-1 #
vertex $-1 -1 $-1 $639 $640 #
ellipse-curve $-1 -1 $-1 122.50000000000001 7.4999999999999867 1.5001427834324125e-014 -1.22460635382238e-016 1.5382318729736254e-031 1 -1.7763568394002505e-014 11.500000000000012 -3.944304526105059e-030 1 I I #
vertex $-1 -1 $-1 $639 $641 #
ellipse-curve $-1 -1 $-1 -122.50000000000001 7.4999999999999867 -3.0002855668648249e-014 2.4492127076447599e-016 3.0764637459472509e-031 -1 1.7763568394002505e-014 11.500000000000012 7.8886090522101181e-030 1 I I #
model_id-kcp-attrib $-1 -1 $-1 $-1 $556 1 1021578770 1021578770 -936574975 18 #
face $642 -1 $-1 $479 $559 $8 $-1 $643 forward single #
torus-surface $-1 -1 $-1 0 7.5 0 0 -1 0 122.5 11.5 -1 0 0 forward_v I I I I #
model_id-kcp-attrib $-1 -1 $-1 $-1 $562 1 1021578770 1021578770 -936574975 16 #
face $644 -1 $-1 $556 $637 $8 $-1 $645 reversed single #
torus-surface $-1 -1 $-1 0 22.5 0 0 -1 0 125 3.5 -1 0 0 forward_v I I I I #
coedge $-1 -1 $-1 $579 $581 $589 $632 forward $563 $-1 #
coedge $-1 -1 $-1 $568 $565 $566 $616 reversed $524 $-1 #
coedge $-1 -1 $-1 $565 $568 $567 $617 forward $524 $-1 #
coedge $-1 -1 $-1 $581 $579 $565 $615 reversed $563 $-1 #
edge $646 -1 $-1 $584 0 $585 3.1415926535897931 $565 $647 forward @7 unknown #
edge $648 -1 $-1 $572 -9.6541132576100554e-017 $585 1.1519173063162569 $612 $649 forward @7 unknown #
edge $650 -1 $-1 $571 -9.6541132576100504e-017 $584 1.1519173063162575 $613 $651 forward @7 unknown #
attrib_edge_convexity-kcp-attrib $-1 -1 $652 $-1 $569 4 #
ellipse-curve $-1 -1 $-1 3.3306690738754696e-015 156 1.1102230246251565e-015 0 -1 0 39.520448198996149 0 3.7294761724147252e-015 1 I I #
convexity-sys-attrib $-1 -1 $-1 $570 $528 #
point $-1 -1 $-1 39.520448198996149 156 4.8396991970398818e-015 #
point $-1 -1 $-1 -39.520448198996149 156 0 #
convexity-sys-attrib $-1 -1 $-1 $577 $534 #
straight-curve $-1 -1 $-1 -81.543539250555824 128.70988558148682 -1.9971747255879013e-014 -4.067366430757998 -9.1354545764260102 -9.961845548860178e-016 I I #
straight-curve $-1 -1 $-1 81.543539250555824 128.70988558148682 9.9858736279395064e-015 4.067366430757998 -9.1354545764260102 4.980922774430089e-016 I I #
convexity-sys-attrib $-1 -1 $-1 $583 $542 #
point $-1 -1 $-1 81.54353925055581 128.70988558148679 9.9858736279395048e-015 #
point $-1 -1 $-1 -81.543539250555824 128.70988558148682 -1.9971747255879013e-014 #
coedge $-1 -1 $-1 $587 $587 $590 $633 reversed $630 $-1 #
loop $-1 -1 $-1 $-1 $629 $609 #
ellipse-curve $-1 -1 $-1 0 19 0 0 1 0 125 0 0 1 I I #
edge $-1 -1 $-1 $548 2.457603961526658e-032 $549 3.1415926535897931 $611 $653 forward @7 unknown #
edge $-1 -1 $-1 $594 1.2246063538223773e-016 $592 3.1415926535897931 $590 $654 forward @7 unknown #
point $-1 -1 $-1 -125 19 0 #
point $-1 -1 $-1 125 19 1.5307579422779716e-014 #
coedge $-1 -1 $-1 $598 $598 $600 $639 forward $637 $-1 #
loop $-1 -1 $-1 $630 $598 $609 #
ellipse-curve $-1 -1 $-1 0 19 8.8817841970012523e-015 0 1 0 122.5 0 6.1196436373228691e-015 1 I I #
edge $-1 -1 $-1 $601 0 $603 3.1415926535897931 $636 $655 forward @7 unknown #
point $-1 -1 $-1 122.5 19 1.5001427834324121e-014 #
point $-1 -1 $-1 -122.5 19 0 #
model_id-kcp-attrib $-1 -1 $-1 $-1 $606 1 1021578770 1021578770 -936574975 19 #
torus-surface $-1 -1 $-1 0 7.5 0 0 -1 0 122.5 11.5 -1 0 0 forward_v I I I I #
model_id-kcp-attrib $-1 -1 $-1 $-1 $609 1 1021578770 1021578770 -936574975 17 #
plane-surface $-1 -1 $-1 0 19 0 0 -1 0 -10 0 0 forward_v I I I I #
attrib_edge_convexity-kcp-attrib $-1 -1 $656 $-1 $615 4 #
ellipse-curve $-1 -1 $-1 0 128.70988558148682 0 0 -1 0 81.543539250555824 0 9.9858736279395064e-015 1 I I #
attrib_edge_convexity-kcp-attrib $-1 -1 $657 $-1 $616 4 #
ellipse-curve $-1 -1 $-1 -39.520448198996149 109.99999999999997 -9.6793983940797541e-015 -2.449212707644755e-016 1.9071939954717282e-031 1 -4.4408920985006262e-015 46.000000000000028 -9.8607613152626476e-030 1 I I #
attrib_edge_convexity-kcp-attrib $-1 -1 $658 $-1 $617 4 #
ellipse-curve $-1 -1 $-1 39.520448198996149 109.99999999999997 4.839699197039877e-015 1.2246063538223775e-016 9.5359699773586411e-032 -1 4.4408920985006262e-015 46.000000000000028 4.9303806576313238e-030 1 I I #
convexity-sys-attrib $-1 -1 $-1 $618 $569 #
ellipse-curve $-1 -1 $-1 0 23.923578250765299 0 0 -1 0 128.19740910174912 0 1.569913617295686e-014 1 I I #
ellipse-curve $-1 -1 $-1 0 19 0 0 -1 0 125 0 0 1 I I #
ellipse-curve $-1 -1 $-1 0 19 -4.4408920985006262e-015 0 -1 0 122.5 0 1.9442319932824748e-014 1 I I #
convexity-sys-attrib $-1 -1 $-1 $646 $615 #
convexity-sys-attrib $-1 -1 $-1 $648 $616 #
convexity-sys-attrib $-1 -1 $-1 $650 $617 #
End-of-ACIS-data 