600 0 1 0           
96 GICL Pro/E ACIS Translator - Source: f:/data5/repository/PTC/V18/asmdes18/parts/boot_2.prt - 6 0 13 ACIS 6.0.3 NT 24 Thu Apr 04 13:45:07 2002 
1 9.9999999999999995e-007 1e-010 
body $-1 $1 $-1 $2 #
lump $-1 $-1 $3 $0 #
transform $-1 1 0 0 0 1 0 0 0 1 0 0 0 10 no_rotate no_reflect no_shear #
shell $-1 $-1 $-1 $4 $-1 $1 #
face $-1 $5 $6 $3 $-1 $7 forward single #
face $-1 $8 $9 $3 $-1 $10 reversed single #
loop $-1 $-1 $11 $4 #
cone-surface $-1 0 16.799999999999997 0 0 -1 0 -11.5 0 0 1 I I 0 1 11.5 forward I I I I #
face $-1 $12 $13 $3 $-1 $14 forward single #
loop $-1 $-1 $15 $5 #
torus-surface $-1 0 2.5 0 0 -1 0 12 0.5 -1 0 0 forward_v I I I I #
coedge $-1 $16 $17 $18 $19 forward $6 $-1 #
face $-1 $20 $21 $3 $-1 $22 reversed single #
loop $-1 $23 $24 $8 #
plane-surface $-1 0 3 0 0 -1 0 -1 0 0 forward_v I I I I #
coedge $-1 $25 $26 $27 $28 forward $9 $-1 #
coedge $-1 $29 $11 $30 $31 reversed $6 $-1 #
coedge $-1 $11 $29 $32 $33 forward $6 $-1 #
coedge $-1 $26 $25 $11 $19 reversed $9 $-1 #
edge $-1 $34 0 $35 3.1415926535897931 $11 $36 forward 7 unknown #
face $-1 $37 $38 $3 $-1 $39 forward single #
loop $-1 $-1 $40 $12 #
torus-surface $-1 0 2.5 0 0 -1 0 12 0.5 -1 0 0 forward_v I I I I #
loop $-1 $-1 $41 $8 #
coedge $-1 $27 $27 $42 $43 forward $13 $-1 #
coedge $-1 $18 $15 $44 $45 reversed $9 $-1 #
coedge $-1 $15 $18 $46 $47 forward $9 $-1 #
coedge $-1 $24 $24 $15 $28 reversed $13 $-1 #
edge $-1 $48 1.2246063538223773e-016 $49 3.1415926535897931 $15 $50 forward 7 unknown #
coedge $-1 $17 $16 $51 $52 reversed $6 $-1 #
coedge $-1 $53 $54 $16 $31 forward $38 $-1 #
edge $-1 $55 0 $35 2.5 $16 $56 forward 7 unknown #
coedge $-1 $54 $53 $17 $33 reversed $38 $-1 #
edge $-1 $57 0 $34 2.4999999999999982 $17 $58 forward 7 unknown #
vertex $-1 $33 $59 #
vertex $-1 $31 $60 #
ellipse-curve $-1 0 2.5 0 0 -1 0 11.5 0 1.4082973068957338e-015 1 I I #
face $-1 $61 $62 $3 $-1 $63 forward single #
loop $-1 $-1 $54 $20 #
cone-surface $-1 0 16.799999999999997 0 0 -1 0 -11.5 0 0 1 I I 0 1 11.5 forward I I I I #
coedge $-1 $44 $46 $53 $64 forward $21 $-1 #
coedge $-1 $65 $65 $66 $67 forward $23 $-1 #
coedge $-1 $46 $44 $24 $43 reversed $21 $-1 #
edge $-1 $48 -1.2246063538223773e-016 $49 3.1415926535897931 $24 $68 forward 7 unknown #
coedge $-1 $42 $40 $25 $45 forward $21 $-1 #
edge $-1 $35 0 $49 1.5707963267948948 $25 $69 forward 7 unknown #
coedge $-1 $40 $42 $26 $47 reversed $21 $-1 #
edge $-1 $34 -3.5527136788005009e-015 $48 1.5707963267948948 $26 $70 forward 7 unknown #
vertex $-1 $47 $71 #
vertex $-1 $45 $72 #
ellipse-curve $-1 0 3 0 0 -1 0 12 0 0 1 I I #
coedge $-1 $73 $73 $29 $52 forward $62 $-1 #
edge $-1 $57 0 $55 3.1415926535897931 $29 $74 forward 7 unknown #
coedge $-1 $32 $30 $40 $64 reversed $38 $-1 #
coedge $-1 $30 $32 $73 $75 forward $38 $-1 #
vertex $-1 $52 $76 #
straight-curve $-1 -11.5 0 -2.8165946137914677e-015 0 1 0 I I #
vertex $-1 $33 $77 #
straight-curve $-1 11.5 0 1.4082973068957338e-015 0 1 0 I I #
point $-1 11.5 2.4999999999999982 1.4082973068957338e-015 #
point $-1 -11.5 2.5 -2.8165946137914677e-015 #
face $-1 $78 $79 $3 $-1 $80 reversed single #
loop $-1 $81 $51 $37 #
plane-surface $-1 0 0 0 0 -1 0 -1 0 0 forward_v I I I I #
edge $-1 $34 0 $35 3.1415926535897931 $53 $82 forward 7 unknown #
coedge $-1 $41 $41 $83 $84 reversed $23 $-1 #
coedge $-1 $85 $86 $41 $67 reversed $87 $-1 #
edge $-1 $88 0 $89 3.1415926535897931 $41 $90 forward 7 unknown #
ellipse-curve $-1 0 3 0 0 1 0 12 0 0 1 I I #
ellipse-curve $-1 -12 2.4999999999999991 -2.9390552491737062e-015 -2.4492127076447703e-016 -1.0250859405932439e-030 1 0.5 8.8817841970012523e-016 1.2246063538223851e-016 1 I I #
ellipse-curve $-1 12 2.4999999999999991 1.4695276245868531e-015 1.2246063538223851e-016 -5.1254297029662194e-031 -1 -0.5 8.8817841970012523e-016 -6.1230317691119257e-017 1 I I #
point $-1 12 3 1.4695276245868527e-015 #
point $-1 -12 3 0 #
coedge $-1 $51 $51 $54 $75 reversed $62 $-1 #
ellipse-curve $-1 0 0 4.4408920985006262e-016 0 -1 0 11.5 0 9.6420809704567123e-016 1 I I #
edge $-1 $57 0 $55 3.1415926535897931 $54 $91 forward 7 unknown #
point $-1 -11.5 0 -2.8165946137914677e-015 #
point $-1 11.5 0 1.4082973068957338e-015 #
face $-1 $92 $93 $3 $-1 $94 reversed single #
loop $-1 $-1 $95 $61 #
cone-surface $-1 0 0.33000000000000007 0 0 -1 0 9 0 0 1 I I 0 1 9 forward I I I I #
loop $-1 $-1 $96 $37 #
ellipse-curve $-1 0 2.5 0 0 1 0 11.5 0 1.4082973068957338e-015 1 I I #
coedge $-1 $97 $98 $65 $84 forward $99 $-1 #
edge $-1 $88 0 $89 3.1415926535897931 $65 $100 forward 7 unknown #
coedge $-1 $101 $66 $98 $102 forward $87 $-1 #
coedge $-1 $66 $101 $97 $103 reversed $87 $-1 #
loop $-1 $-1 $101 $104 #
vertex $-1 $84 $105 #
vertex $-1 $84 $106 #
ellipse-curve $-1 0 3 -1.3322676295501878e-015 0 -1 0 13 0 2.9242558895192783e-015 1 I I #
ellipse-curve $-1 -4.4408920985006262e-016 0 -4.4408920985006262e-016 0 1 0 11.5 0 1.8523865167457965e-015 1 I I #
face $-1 $107 $108 $3 $-1 $109 reversed single #
loop $-1 $-1 $110 $78 #
cone-surface $-1 0 0.33000000000000007 0 0 -1 0 9 0 0 1 I I 0 1 9 forward I I I I #
coedge $-1 $111 $112 $113 $114 forward $79 $-1 #
coedge $-1 $115 $115 $111 $116 reversed $81 $-1 #
coedge $-1 $117 $83 $86 $103 forward $99 $-1 #
coedge $-1 $83 $117 $85 $102 reversed $99 $-1 #
loop $-1 $-1 $83 $118 #
ellipse-curve $-1 -8.8817841970012523e-016 3 8.8817841970012523e-016 0 1 0 13 0 7.038098402689652e-016 1 I I #
coedge $-1 $86 $85 $119 $120 forward $87 $-1 #
edge $-1 $88 0 $121 3.1415926535897967 $85 $122 forward 7 unknown #
edge $-1 $89 0 $123 3.1415926535897967 $86 $124 forward 7 unknown #
face $-1 $125 $87 $3 $-1 $126 forward single #
point $-1 13 3 1.5919882599690904e-015 #
point $-1 -13 3 -3.1839765199381809e-015 #
face $-1 $127 $128 $3 $-1 $129 reversed single #
loop $-1 $130 $131 $92 #
plane-surface $-1 0 0.33000000000000002 0 0 -1 0 -1 0 0 forward_v I I I I #
coedge $-1 $132 $133 $134 $135 forward $93 $-1 #
coedge $-1 $134 $95 $96 $116 forward $79 $-1 #
coedge $-1 $95 $134 $136 $137 reversed $79 $-1 #
coedge $-1 $133 $132 $95 $114 reversed $93 $-1 #
edge $-1 $138 5.5511151231257827e-017 $139 0.33000000000000007 $113 $140 forward 7 unknown #
coedge $-1 $96 $96 $132 $141 reversed $81 $-1 #
edge $-1 $139 0 $142 3.1415926535897931 $96 $143 forward 7 unknown #
coedge $-1 $98 $97 $144 $145 reversed $99 $-1 #
face $-1 $104 $99 $3 $-1 $146 forward single #
coedge $-1 $144 $144 $101 $120 reversed $147 $-1 #
edge $-1 $121 1.2246063538223773e-016 $123 3.1415926535897931 $101 $148 forward 7 unknown #
vertex $-1 $102 $149 #
ellipse-curve $-1 13.000000000000002 4 1.5919882599690904e-015 -1.2246063538223763e-016 2.1753378721853811e-031 1 -1.7763568394002505e-015 -1 0 1 I I #
vertex $-1 $103 $150 #
ellipse-curve $-1 -13.000000000000002 4 -3.1839765199381809e-015 2.4492127076447525e-016 4.3506757443707623e-031 -1 1.7763568394002505e-015 -1 0 1 I I #
face $-1 $151 $152 $3 $-1 $153 reversed single #
torus-surface $-1 0 4 0 0 -1 0 13 1 -1 0 0 forward_v I I I I #
face $-1 $154 $155 $3 $-1 $156 reversed single #
loop $-1 $-1 $157 $107 #
cone-surface $-1 0 16.799999999999997 0 0 -1 0 -11.17 0 0 1 I I 0 1 11.17 forward I I I I #
loop $-1 $-1 $136 $92 #
coedge $-1 $158 $158 $159 $160 reversed $108 $-1 #
coedge $-1 $113 $110 $115 $141 forward $93 $-1 #
coedge $-1 $110 $113 $161 $162 reversed $93 $-1 #
coedge $-1 $112 $111 $110 $135 reversed $79 $-1 #
edge $-1 $163 5.5511151231257827e-017 $142 0.33000000000000007 $110 $164 forward 7 unknown #
coedge $-1 $161 $161 $112 $137 forward $130 $-1 #
edge $-1 $138 0 $163 3.1415926535897931 $136 $165 forward 7 unknown #
vertex $-1 $162 $166 #
vertex $-1 $141 $167 #
straight-curve $-1 -9 0.33000000000000007 1.1021457184401395e-015 0 -1 0 I I #
edge $-1 $142 0 $139 3.1415926535897931 $115 $168 forward 7 unknown #
vertex $-1 $141 $169 #
ellipse-curve $-1 0 0 -4.4408920985006262e-016 0 -1 0 -9 0 1.5462711389486973e-015 1 I I #
coedge $-1 $119 $119 $117 $145 forward $147 $-1 #
edge $-1 $121 -1.2246063538223773e-016 $123 3.1415926535897931 $144 $170 forward 7 unknown #
torus-surface $-1 0 4 0 0 -1 0 13 1 -1 0 0 forward_v I I I I #
loop $-1 $171 $144 $172 #
ellipse-curve $-1 0 5 0 0 -1 0 13 0 0 1 I I #
point $-1 13 5 1.5919882599690904e-015 #
point $-1 -13 5 0 #
face $-1 $173 $174 $3 $-1 $175 forward single #
loop $-1 $-1 $176 $125 #
torus-surface $-1 0 5.5 0 0 -1 0 11.5 0.5 -1 0 0 forward_v I I I I #
face $-1 $177 $178 $3 $-1 $179 forward single #
loop $-1 $-1 $180 $127 #
cone-surface $-1 0 16.799999999999997 0 0 -1 0 -11.17 0 0 1 I I 0 1 11.17 forward I I I I #
coedge $-1 $181 $159 $182 $183 forward $128 $-1 #
coedge $-1 $131 $131 $184 $185 reversed $108 $-1 #
coedge $-1 $157 $186 $131 $160 forward $128 $-1 #
edge $-1 $187 0 $188 3.1415926535897931 $159 $189 forward 7 unknown #
coedge $-1 $136 $136 $133 $162 forward $130 $-1 #
edge $-1 $163 0 $138 3.1415926535897931 $161 $190 forward 7 unknown #
vertex $-1 $162 $191 #
straight-curve $-1 9 0.33000000000000007 0 0 -1 0 I I #
ellipse-curve $-1 0 0.33000000000000007 0 6.1679056923619804e-018 -1 -6.9619813565426108e-034 -9 -5.5511151231257827e-017 1.0158688432359748e-015 1 I I #
point $-1 -9 0.33000000000000002 1.0158688432359748e-015 #
point $-1 -9 0 1.1021819290986347e-015 #
ellipse-curve $-1 -4.4408920985006262e-016 0 4.4408920985006262e-016 0 -1 0 9 0 -1.5462711389487048e-015 1 I I #
point $-1 9 0 -1.1021819290986421e-015 #
ellipse-curve $-1 0 5 0 0 1 0 13 0 0 1 I I #
loop $-1 $-1 $192 $172 #
face $-1 $118 $147 $3 $-1 $193 reversed single #
face $-1 $194 $195 $3 $-1 $196 reversed single #
loop $-1 $-1 $197 $151 #
torus-surface $-1 0 7 0 0 -1 0 13 1 -1 0 0 forward_v I I I I #
coedge $-1 $198 $199 $200 $201 forward $152 $-1 #
face $-1 $202 $203 $3 $-1 $204 forward single #
loop $-1 $-1 $205 $154 #
torus-surface $-1 0 2.5 0 0 -1 0 12 0.83000000000000007 -1 0 0 forward_v I I I I #
coedge $-1 $206 $184 $186 $207 forward $155 $-1 #
coedge $-1 $186 $157 $208 $209 forward $128 $-1 #
coedge $-1 $184 $206 $157 $183 reversed $155 $-1 #
edge $-1 $188 1.7208456881689926e-015 $210 2.1700000000000017 $182 $211 forward 7 unknown #
coedge $-1 $180 $182 $158 $185 forward $155 $-1 #
edge $-1 $188 0 $187 3.1415926535897931 $184 $212 forward 7 unknown #
coedge $-1 $159 $181 $180 $207 reversed $128 $-1 #
vertex $-1 $185 $213 #
vertex $-1 $185 $214 #
ellipse-curve $-1 -4.4408920985006262e-016 0.33000000000000002 -4.4408920985006262e-016 0 -1 0 -11.17 0 -9.2384102882014241e-016 1 I I #
ellipse-curve $-1 0 0.33000000000000007 0 -6.1679056923619804e-018 -1 7.5535046605622478e-034 9 -5.5511151231257827e-017 -1.102181929098642e-015 1 I I #
point $-1 9 0.33000000000000002 -1.102181929098642e-015 #
coedge $-1 $215 $215 $216 $217 forward $171 $-1 #
plane-surface $-1 0 5 0 0 -1 0 -1 0 0 forward_v I I I I #
face $-1 $218 $219 $3 $-1 $220 reversed single #
loop $-1 $-1 $221 $173 #
torus-surface $-1 0 8.5 0 0 -1 0 11.5 0.5 -1 0 0 forward_v I I I I #
coedge $-1 $222 $223 $224 $225 forward $174 $-1 #
coedge $-1 $216 $176 $226 $227 reversed $152 $-1 #
coedge $-1 $176 $216 $228 $229 forward $152 $-1 #
coedge $-1 $230 $230 $176 $201 reversed $231 $-1 #
edge $-1 $232 1.2246063538223773e-016 $233 3.1415926535897931 $176 $234 forward 7 unknown #
face $-1 $235 $236 $3 $-1 $237 reversed single #
loop $-1 $-1 $238 $177 #
torus-surface $-1 0 2.5 0 0 -1 0 12 0.83000000000000007 -1 0 0 forward_v I I I I #
coedge $-1 $239 $240 $206 $241 forward $178 $-1 #
coedge $-1 $182 $180 $205 $241 reversed $155 $-1 #
edge $-1 $187 1.7208456881689926e-015 $242 2.1700000000000017 $180 $243 forward 7 unknown #
coedge $-1 $244 $245 $181 $209 reversed $203 $-1 #
edge $-1 $210 0 $242 3.1415926535897931 $181 $246 forward 7 unknown #
vertex $-1 $183 $247 #
straight-curve $-1 11.17 0.32999999999999829 1.3678852972195953e-015 0 1 0 I I #
ellipse-curve $-1 0 0.33000000000000002 0 0 -1 0 11.17 0 1.3679302386701944e-015 1 I I #
point $-1 -11.17 0.33000000000000002 -1.367930238670205e-015 #
point $-1 11.17 0.33000000000000002 1.3679302386701944e-015 #
coedge $-1 $192 $192 $248 $249 reversed $171 $-1 #
coedge $-1 $199 $198 $192 $217 reversed $152 $-1 #
edge $-1 $250 0 $251 3.1415926535897931 $192 $252 forward 7 unknown #
face $-1 $253 $254 $3 $-1 $255 forward single #
loop $-1 $-1 $256 $194 #
torus-surface $-1 0 8.5 0 0 -1 0 11.5 0.5 -1 0 0 forward_v I I I I #
coedge $-1 $257 $258 $259 $260 forward $195 $-1 #
coedge $-1 $261 $197 $262 $263 reversed $174 $-1 #
coedge $-1 $197 $261 $264 $265 forward $174 $-1 #
coedge $-1 $266 $266 $197 $225 reversed $267 $-1 #
edge $-1 $268 1.2246063538223773e-016 $269 3.1415926535897931 $197 $270 forward 7 unknown #
coedge $-1 $271 $248 $198 $227 forward $272 $-1 #
edge $-1 $251 0 $233 3.1415926535897931 $198 $273 forward 7 unknown #
coedge $-1 $248 $271 $199 $229 reversed $272 $-1 #
edge $-1 $250 0 $232 3.1415926535897931 $199 $274 forward 7 unknown #
coedge $-1 $200 $200 $271 $275 forward $231 $-1 #
loop $-1 $276 $230 $277 #
vertex $-1 $229 $278 #
vertex $-1 $227 $279 #
ellipse-curve $-1 0 6 0 0 -1 0 11.5 0 0 1 I I #
face $-1 $280 $281 $3 $-1 $282 reversed single #
loop $-1 $283 $284 $202 #
plane-surface $-1 0 3.3300000000000001 0 0 -1 0 -1 0 0 forward_v I I I I #
coedge $-1 $245 $244 $284 $285 forward $203 $-1 #
coedge $-1 $286 $205 $245 $287 forward $178 $-1 #
coedge $-1 $205 $286 $244 $288 reversed $178 $-1 #
edge $-1 $210 0 $242 3.1415926535897931 $206 $289 forward 7 unknown #
vertex $-1 $241 $290 #
straight-curve $-1 -11.17 0.32999999999999829 -2.7357705944391907e-015 0 1 0 I I #
coedge $-1 $238 $208 $240 $288 forward $203 $-1 #
coedge $-1 $208 $238 $239 $287 reversed $203 $-1 #
ellipse-curve $-1 0 2.5 0 0 1 0 11.17 0 1.3678852972195953e-015 1 I I #
point $-1 11.17 2.5 1.3678852972195953e-015 #
coedge $-1 $226 $228 $215 $249 forward $272 $-1 #
edge $-1 $250 0 $251 3.1415926535897931 $215 $291 forward 7 unknown #
vertex $-1 $249 $292 #
vertex $-1 $249 $293 #
ellipse-curve $-1 0 5 4.4408920985006262e-016 0 -1 0 11.5 0 9.6420809704567123e-016 1 I I #
face $-1 $294 $295 $3 $-1 $296 reversed single #
loop $-1 $-1 $297 $218 #
torus-surface $-1 0 10 0 0 -1 0 13 1 -1 0 0 forward_v I I I I #
coedge $-1 $298 $299 $300 $301 forward $219 $-1 #
coedge $-1 $302 $221 $303 $304 reversed $195 $-1 #
coedge $-1 $221 $302 $305 $306 forward $195 $-1 #
coedge $-1 $299 $298 $221 $260 reversed $219 $-1 #
edge $-1 $307 0 $308 3.1415926535897931 $221 $309 forward 7 unknown #
coedge $-1 $223 $222 $310 $311 reversed $174 $-1 #
coedge $-1 $312 $313 $222 $263 forward $314 $-1 #
edge $-1 $315 0 $269 3.1415926535897967 $222 $316 forward 7 unknown #
coedge $-1 $313 $312 $223 $265 reversed $314 $-1 #
edge $-1 $317 0 $268 3.1415926535897967 $223 $318 forward 7 unknown #
coedge $-1 $224 $224 $312 $319 forward $267 $-1 #
loop $-1 $320 $266 $321 #
vertex $-1 $265 $322 #
vertex $-1 $263 $323 #
ellipse-curve $-1 0 8 0 0 -1 0 13 0 0 1 I I #
coedge $-1 $228 $226 $230 $275 reversed $272 $-1 #
loop $-1 $-1 $248 $324 #
ellipse-curve $-1 -11.5 5.5 -2.8165946137914677e-015 -2.4492127076447614e-016 0 1 0 -0.5 0 1 I I #
ellipse-curve $-1 11.5 5.5 1.4082973068957338e-015 1.2246063538223807e-016 0 -1 0 -0.5 0 1 I I #
edge $-1 $232 -1.2246063538223773e-016 $233 3.1415926535897931 $230 $325 forward 7 unknown #
loop $-1 $-1 $310 $277 #
face $-1 $324 $231 $3 $-1 $326 forward single #
point $-1 11.5 6 1.4082973068957338e-015 #
point $-1 -11.5 6 0 #
face $-1 $327 $328 $3 $-1 $329 reversed single #
loop $-1 $-1 $330 $235 #
torus-surface $-1 0 4 0 0 -1 0 13 0.66999999999999993 -1 0 0 forward_v I I I I #
loop $-1 $-1 $331 $202 #
coedge $-1 $332 $332 $238 $285 reversed $236 $-1 #
edge $-1 $333 -1.2246063538223773e-016 $334 3.1415926535897931 $284 $335 forward 7 unknown #
coedge $-1 $240 $239 $332 $336 reversed $178 $-1 #
edge $-1 $242 0 $334 1.5707963267948961 $239 $337 forward 7 unknown #
edge $-1 $210 0 $333 1.5707963267949037 $240 $338 forward 7 unknown #
ellipse-curve $-1 0 2.5 0 0 -1 0 11.17 0 1.3678852972195953e-015 1 I I #
point $-1 -11.17 2.5 -2.7357705944391907e-015 #
ellipse-curve $-1 -4.4408920985006262e-016 5 -4.4408920985006262e-016 0 1 0 11.5 0 1.8523865167457965e-015 1 I I #
point $-1 11.5 5 1.4082973068957338e-015 #
point $-1 -11.5 5 -2.8165946137914677e-015 #
face $-1 $339 $340 $3 $-1 $341 forward single #
loop $-1 $-1 $342 $253 #
torus-surface $-1 0 11.5 0 0 -1 0 10 0.5 -1 0 0 forward_v I I I I #
coedge $-1 $343 $344 $345 $346 forward $254 $-1 #
coedge $-1 $259 $256 $347 $348 reversed $219 $-1 #
coedge $-1 $256 $259 $349 $350 forward $219 $-1 #
coedge $-1 $351 $351 $256 $301 reversed $352 $-1 #
edge $-1 $353 1.2246063538223773e-016 $354 3.1415926535897931 $256 $355 forward 7 unknown #
coedge $-1 $258 $257 $356 $357 reversed $195 $-1 #
coedge $-1 $358 $359 $257 $304 forward $360 $-1 #
edge $-1 $361 0 $308 1.570796326794893 $257 $362 forward 7 unknown #
coedge $-1 $359 $358 $258 $306 reversed $360 $-1 #
edge $-1 $363 0 $307 1.570796326794893 $258 $364 forward 7 unknown #
vertex $-1 $306 $365 #
vertex $-1 $304 $366 #
ellipse-curve $-1 0 8.5 0 0 -1 0 11 0 1.347066989204615e-015 1 I I #
coedge $-1 $367 $367 $261 $311 forward $276 $-1 #
edge $-1 $317 0 $315 3.1415926535897931 $310 $368 forward 7 unknown #
coedge $-1 $264 $262 $266 $319 reversed $314 $-1 #
coedge $-1 $262 $264 $367 $369 forward $314 $-1 #
loop $-1 $-1 $313 $370 #
vertex $-1 $369 $371 #
ellipse-curve $-1 -13.000000000000002 7 -3.1839765199381809e-015 2.4492127076447525e-016 4.3506757443707623e-031 -1 1.7763568394002505e-015 -1 0 1 I I #
vertex $-1 $369 $372 #
ellipse-curve $-1 13.000000000000002 7 1.5919882599690904e-015 -1.2246063538223763e-016 2.1753378721853811e-031 1 -1.7763568394002505e-015 -1 0 1 I I #
edge $-1 $268 -1.2246063538223773e-016 $269 3.1415926535897931 $266 $373 forward 7 unknown #
loop $-1 $-1 $356 $321 #
face $-1 $370 $267 $3 $-1 $374 reversed single #
point $-1 13 8 1.5919882599690904e-015 #
point $-1 -13 8 0 #
face $-1 $172 $272 $3 $-1 $375 reversed single #
ellipse-curve $-1 0 6 0 0 1 0 11.5 0 0 1 I I #
plane-surface $-1 0 6 0 0 -1 0 -1 0 0 forward_v I I I I #
face $-1 $376 $377 $3 $-1 $378 forward single #
loop $-1 $-1 $379 $280 #
torus-surface $-1 0 4 0 0 -1 0 13 0.66999999999999993 -1 0 0 forward_v I I I I #
coedge $-1 $380 $381 $331 $382 forward $281 $-1 #
coedge $-1 $383 $383 $330 $382 reversed $283 $-1 #
coedge $-1 $284 $284 $286 $336 forward $236 $-1 #
vertex $-1 $288 $384 #
vertex $-1 $336 $385 #
ellipse-curve $-1 0 3.3300000000000001 0 0 1 0 12 0 0 1 I I #
edge $-1 $333 1.2246063538223773e-016 $334 3.1415926535897931 $286 $386 forward 7 unknown #
ellipse-curve $-1 -12 2.4999999999999996 -2.9390552491737058e-015 -2.4492127076447609e-016 -3.4556515753565161e-031 1 0.83000000000000007 4.4408920985006262e-016 2.0328465473451515e-016 1 I I #
ellipse-curve $-1 11.999999999999996 2.5000000000000022 1.4695276245868519e-015 1.2246063538223738e-016 4.6435318043853064e-031 -1 -0.82999999999999652 -2.2204460492503131e-015 -1.0164232736725659e-016 1 I I #
face $-1 $-1 $387 $3 $-1 $388 reversed single #
loop $-1 $-1 $389 $294 #
torus-surface $-1 0 13 0 0 -1 0 11 1 -1 0 0 forward_v I I I I #
coedge $-1 $390 $391 $392 $393 forward $295 $-1 #
coedge $-1 $394 $297 $395 $396 reversed $254 $-1 #
coedge $-1 $297 $394 $397 $398 forward $254 $-1 #
coedge $-1 $399 $399 $297 $346 reversed $400 $-1 #
edge $-1 $401 1.2246063538223773e-016 $402 3.1415926535897931 $297 $403 forward 7 unknown #
coedge $-1 $404 $405 $298 $348 forward $406 $-1 #
edge $-1 $308 0 $354 1.570796326794893 $298 $407 forward 7 unknown #
coedge $-1 $405 $404 $299 $350 reversed $406 $-1 #
edge $-1 $307 0 $353 1.570796326794893 $299 $408 forward 7 unknown #
coedge $-1 $300 $300 $404 $409 forward $352 $-1 #
loop $-1 $410 $351 $411 #
vertex $-1 $350 $412 #
vertex $-1 $348 $413 #
ellipse-curve $-1 0 9 0 0 -1 0 11.5 0 0 1 I I #
coedge $-1 $414 $414 $302 $357 forward $320 $-1 #
edge $-1 $363 0 $361 3.1415926535897931 $356 $415 forward 7 unknown #
coedge $-1 $305 $303 $405 $416 reversed $360 $-1 #
coedge $-1 $303 $305 $414 $417 forward $360 $-1 #
loop $-1 $-1 $359 $418 #
vertex $-1 $417 $419 #
ellipse-curve $-1 -11.500000000000002 8.5 -2.8165946137914681e-015 -2.4492127076447614e-016 -8.1274243653143805e-032 1 1.7763568394002505e-015 -0.5 3.944304526105059e-031 1 I I #
vertex $-1 $417 $420 #
ellipse-curve $-1 11.500000000000002 8.5 1.408297306895734e-015 1.2246063538223807e-016 -4.0637121826571903e-032 -1 -1.7763568394002505e-015 -0.5 -1.9721522630525295e-031 1 I I #
point $-1 11 8.5 1.347066989204615e-015 #
point $-1 -11 8.5 0 #
coedge $-1 $310 $310 $313 $369 reversed $276 $-1 #
ellipse-curve $-1 0 6 -1.3322676295501878e-015 0 -1 0 13 0 2.9242558895192783e-015 1 I I #
edge $-1 $317 0 $315 3.1415926535897931 $367 $421 forward 7 unknown #
face $-1 $277 $314 $3 $-1 $422 forward single #
point $-1 -13 6 -3.1839765199381809e-015 #
point $-1 13 6 1.5919882599690904e-015 #
ellipse-curve $-1 0 8 0 0 1 0 13 0 0 1 I I #
plane-surface $-1 0 8 0 0 -1 0 -1 0 0 forward_v I I I I #
torus-surface $-1 0 5.5 0 0 -1 0 11.5 0.5 -1 0 0 forward_v I I I I #
face $-1 $423 $424 $3 $-1 $425 forward single #
loop $-1 $426 $427 $327 #
plane-surface $-1 0 4.6699999999999999 0 0 -1 0 -1 0 0 forward_v I I I I #
coedge $-1 $428 $429 $427 $430 forward $328 $-1 #
coedge $-1 $431 $330 $428 $432 forward $281 $-1 #
coedge $-1 $330 $431 $429 $433 reversed $281 $-1 #
edge $-1 $434 0 $435 3.1415926535897931 $331 $436 forward 7 unknown #
coedge $-1 $331 $331 $437 $438 forward $283 $-1 #
point $-1 12 3.3300000000000001 1.4695276245868527e-015 #
point $-1 -12 3.3300000000000001 0 #
ellipse-curve $-1 0 3.3300000000000001 0 0 -1 0 12 0 0 1 I I #
loop $-1 $-1 $439 $339 #
torus-surface $-1 0 14.5 0 0 -1 0 8.5 0.5 -1 0 0 forward_v I I I I #
coedge $-1 $440 $441 $442 $443 forward $340 $-1 #
coedge $-1 $444 $342 $445 $446 reversed $295 $-1 #
coedge $-1 $342 $444 $447 $448 forward $295 $-1 #
coedge $-1 $449 $449 $342 $393 reversed $450 $-1 #
edge $-1 $451 1.2246063538223773e-016 $452 3.1415926535897931 $342 $453 forward 7 unknown #
coedge $-1 $344 $343 $454 $455 reversed $254 $-1 #
coedge $-1 $456 $457 $343 $396 forward $458 $-1 #
edge $-1 $459 0 $402 3.1415926535897967 $343 $460 forward 7 unknown #
coedge $-1 $457 $456 $344 $398 reversed $458 $-1 #
edge $-1 $461 0 $401 3.1415926535897967 $344 $462 forward 7 unknown #
coedge $-1 $345 $345 $456 $463 forward $400 $-1 #
loop $-1 $464 $399 $465 #
vertex $-1 $398 $466 #
vertex $-1 $396 $467 #
ellipse-curve $-1 0 11 0 0 -1 0 13 0 0 1 I I #
coedge $-1 $349 $347 $351 $409 reversed $406 $-1 #
coedge $-1 $347 $349 $358 $416 forward $406 $-1 #
loop $-1 $-1 $405 $468 #
ellipse-curve $-1 -11.5 8.4999999999999982 -2.8165946137914685e-015 -2.4492127076447703e-016 -1.0250859405932449e-030 1 0.5 1.7763568394002505e-015 1.2246063538223851e-016 1 I I #
ellipse-curve $-1 11.5 8.4999999999999982 1.4082973068957342e-015 1.2246063538223851e-016 -5.1254297029662247e-031 -1 -0.5 1.7763568394002505e-015 -6.1230317691119257e-017 1 I I #
edge $-1 $353 -1.2246063538223773e-016 $354 3.1415926535897931 $351 $469 forward 7 unknown #
loop $-1 $-1 $454 $411 #
face $-1 $468 $352 $3 $-1 $470 forward single #
point $-1 11.5 9 1.4082973068957338e-015 #
point $-1 -11.5 9 0 #
coedge $-1 $356 $356 $359 $417 reversed $320 $-1 #
ellipse-curve $-1 0 8 4.4408920985006262e-016 0 -1 0 11.5 0 9.6420809704567123e-016 1 I I #
edge $-1 $307 0 $308 3.1415926535897931 $358 $471 forward 7 unknown #
edge $-1 $363 0 $361 3.1415926535897931 $414 $472 forward 7 unknown #
face $-1 $321 $360 $3 $-1 $473 reversed single #
point $-1 -11.5 8 -2.8165946137914677e-015 #
point $-1 11.5 8 1.4082973068957338e-015 #
ellipse-curve $-1 -8.8817841970012523e-016 6 8.8817841970012523e-016 0 1 0 13 0 7.038098402689652e-016 1 I I #
torus-surface $-1 0 7 0 0 -1 0 13 1 -1 0 0 forward_v I I I I #
face $-1 $474 $475 $3 $-1 $476 forward single #
loop $-1 $-1 $477 $376 #
torus-surface $-1 0 5.5 0 0 -1 0 11.5 0.83000000000000007 -1 0 0 forward_v I I I I #
loop $-1 $-1 $478 $327 #
coedge $-1 $479 $479 $379 $430 reversed $377 $-1 #
coedge $-1 $437 $379 $380 $432 reversed $328 $-1 #
coedge $-1 $379 $437 $381 $433 forward $328 $-1 #
edge $-1 $480 -1.2246063538223773e-016 $481 3.1415926535897931 $427 $482 forward 7 unknown #
coedge $-1 $381 $380 $479 $483 reversed $281 $-1 #
edge $-1 $435 0 $481 3.1415926535897931 $380 $484 forward 7 unknown #
edge $-1 $434 0 $480 3.1415926535897931 $381 $485 forward 7 unknown #
vertex $-1 $438 $486 #
vertex $-1 $438 $487 #
ellipse-curve $-1 0 3.3300000000000001 -8.8817841970012523e-016 0 -1 0 13 0 2.4801666796692157e-015 1 I I #
coedge $-1 $429 $428 $383 $438 reversed $328 $-1 #
edge $-1 $434 0 $435 3.1415926535897931 $383 $488 forward 7 unknown #
coedge $-1 $489 $490 $491 $492 forward $387 $-1 #
coedge $-1 $493 $389 $494 $495 reversed $340 $-1 #
coedge $-1 $389 $493 $496 $497 forward $340 $-1 #
coedge $-1 $498 $498 $389 $443 reversed $499 $-1 #
edge $-1 $500 1.2246063538223773e-016 $501 3.1415926535897931 $389 $502 forward 7 unknown #
coedge $-1 $391 $390 $503 $504 reversed $295 $-1 #
coedge $-1 $505 $506 $390 $446 forward $507 $-1 #
edge $-1 $508 0 $452 3.1415926535897931 $390 $509 forward 7 unknown #
coedge $-1 $506 $505 $391 $448 reversed $507 $-1 #
edge $-1 $510 0 $451 3.1415926535897931 $391 $511 forward 7 unknown #
coedge $-1 $392 $392 $505 $512 forward $450 $-1 #
loop $-1 $513 $449 $514 #
vertex $-1 $448 $515 #
vertex $-1 $446 $516 #
ellipse-curve $-1 0 12 0 0 -1 0 10 0 0 1 I I #
coedge $-1 $517 $517 $394 $455 forward $410 $-1 #
edge $-1 $461 0 $459 3.1415926535897931 $454 $518 forward 7 unknown #
coedge $-1 $397 $395 $399 $463 reversed $458 $-1 #
coedge $-1 $395 $397 $517 $519 forward $458 $-1 #
loop $-1 $-1 $457 $520 #
vertex $-1 $519 $521 #
ellipse-curve $-1 -13.000000000000002 10 -3.1839765199381809e-015 2.4492127076447525e-016 4.3506757443707623e-031 -1 1.7763568394002505e-015 -1 0 1 I I #
vertex $-1 $519 $522 #
ellipse-curve $-1 13.000000000000002 10 1.5919882599690904e-015 -1.2246063538223763e-016 2.1753378721853811e-031 1 -1.7763568394002505e-015 -1 0 1 I I #
edge $-1 $401 -1.2246063538223773e-016 $402 3.1415926535897931 $399 $523 forward 7 unknown #
loop $-1 $-1 $503 $465 #
face $-1 $520 $400 $3 $-1 $524 reversed single #
point $-1 13 11 1.5919882599690904e-015 #
point $-1 -13 11 0 #
face $-1 $418 $406 $3 $-1 $525 reversed single #
ellipse-curve $-1 0 9 0 0 1 0 11.5 0 0 1 I I #
plane-surface $-1 0 9 0 0 -1 0 -1 0 0 forward_v I I I I #
ellipse-curve $-1 0 8.5 0 0 1 0 11 0 1.347066989204615e-015 1 I I #
ellipse-curve $-1 -4.4408920985006262e-016 8 -4.4408920985006262e-016 0 1 0 11.5 0 1.8523865167457965e-015 1 I I #
torus-surface $-1 0 8.5 0 0 -1 0 11.5 0.5 -1 0 0 forward_v I I I I #
face $-1 $526 $527 $3 $-1 $528 reversed single #
loop $-1 $-1 $529 $423 #
torus-surface $-1 0 5.5 0 0 -1 0 11.5 0.83000000000000007 -1 0 0 forward_v I I I I #
coedge $-1 $530 $531 $478 $532 forward $424 $-1 #
coedge $-1 $533 $533 $477 $532 reversed $426 $-1 #
coedge $-1 $427 $427 $431 $483 forward $377 $-1 #
vertex $-1 $433 $534 #
vertex $-1 $483 $535 #
ellipse-curve $-1 0 4.6699999999999999 0 0 1 0 13 0 0 1 I I #
edge $-1 $480 1.2246063538223773e-016 $481 3.1415926535897931 $431 $536 forward 7 unknown #
ellipse-curve $-1 -13 4 -3.1839765199381809e-015 2.449212707644753e-016 0 -1 0 -0.66999999999999993 0 1 I I #
ellipse-curve $-1 13 4 1.5919882599690904e-015 -1.2246063538223765e-016 0 1 0 -0.66999999999999993 0 1 I I #
point $-1 13 3.3300000000000001 1.5919882599690904e-015 #
point $-1 -13 3.3300000000000001 -3.1839765199381809e-015 #
ellipse-curve $-1 4.4408920985006262e-016 3.3300000000000001 -8.8817841970012523e-016 0 1 0 13 0 2.4801666796692157e-015 1 I I #
coedge $-1 $537 $439 $538 $539 reversed $387 $-1 #
coedge $-1 $439 $537 $540 $541 forward $387 $-1 #
coedge $-1 $542 $543 $439 $492 reversed $544 $-1 #
edge $-1 $545 0 $546 3.1415926535897931 $439 $547 forward 7 unknown #
coedge $-1 $441 $440 $548 $549 reversed $340 $-1 #
coedge $-1 $550 $551 $440 $495 forward $552 $-1 #
edge $-1 $553 0 $501 3.1415926535897967 $440 $554 forward 7 unknown #
coedge $-1 $551 $550 $441 $497 reversed $552 $-1 #
edge $-1 $555 0 $500 3.1415926535897967 $441 $556 forward 7 unknown #
coedge $-1 $442 $442 $550 $557 forward $499 $-1 #
loop $-1 $558 $498 $559 #
vertex $-1 $497 $560 #
vertex $-1 $495 $561 #
ellipse-curve $-1 0 14 0 0 -1 0 11 0 0 1 I I #
coedge $-1 $562 $562 $444 $504 forward $464 $-1 #
edge $-1 $510 0 $508 3.1415926535897931 $503 $563 forward 7 unknown #
coedge $-1 $447 $445 $449 $512 reversed $507 $-1 #
coedge $-1 $445 $447 $562 $564 forward $507 $-1 #
loop $-1 $-1 $506 $565 #
vertex $-1 $564 $566 #
ellipse-curve $-1 -10 11.5 -2.4492127076447545e-015 -2.4492127076447614e-016 0 1 0 -0.5 0 1 I I #
vertex $-1 $564 $567 #
ellipse-curve $-1 10 11.5 1.2246063538223773e-015 1.2246063538223807e-016 0 -1 0 -0.5 0 1 I I #
edge $-1 $451 -1.2246063538223773e-016 $452 3.1415926535897931 $449 $568 forward 7 unknown #
loop $-1 $-1 $548 $514 #
face $-1 $565 $450 $3 $-1 $569 forward single #
point $-1 10 12 1.2246063538223773e-015 #
point $-1 -10 12 0 #
coedge $-1 $454 $454 $457 $519 reversed $410 $-1 #
ellipse-curve $-1 0 9 -1.3322676295501878e-015 0 -1 0 13 0 2.9242558895192783e-015 1 I I #
edge $-1 $461 0 $459 3.1415926535897931 $517 $570 forward 7 unknown #
face $-1 $411 $458 $3 $-1 $571 forward single #
point $-1 -13 9 -3.1839765199381809e-015 #
point $-1 13 9 1.5919882599690904e-015 #
ellipse-curve $-1 0 11 0 0 1 0 13 0 0 1 I I #
plane-surface $-1 0 11 0 0 -1 0 -1 0 0 forward_v I I I I #
torus-surface $-1 0 8.5 0 0 -1 0 11.5 0.5 -1 0 0 forward_v I I I I #
face $-1 $572 $573 $3 $-1 $574 reversed single #
loop $-1 $575 $576 $474 #
plane-surface $-1 0 6.3300000000000001 0 0 -1 0 -1 0 0 forward_v I I I I #
coedge $-1 $577 $578 $576 $579 forward $475 $-1 #
coedge $-1 $580 $477 $577 $581 forward $424 $-1 #
coedge $-1 $477 $580 $578 $582 reversed $424 $-1 #
edge $-1 $583 0 $584 3.1415926535897931 $478 $585 forward 7 unknown #
coedge $-1 $478 $478 $586 $587 forward $426 $-1 #
point $-1 13 4.6699999999999999 1.5919882599690904e-015 #
point $-1 -13 4.6699999999999999 0 #
ellipse-curve $-1 0 4.6699999999999999 0 0 -1 0 13 0 0 1 I I #
coedge $-1 $490 $489 $588 $589 reversed $387 $-1 #
coedge $-1 $590 $591 $489 $539 forward $592 $-1 #
edge $-1 $593 0 $546 1.5707963267948859 $489 $594 forward 7 unknown #
coedge $-1 $591 $590 $490 $541 reversed $592 $-1 #
edge $-1 $595 0 $545 1.570796326794893 $490 $596 forward 7 unknown #
coedge $-1 $597 $491 $598 $599 forward $544 $-1 #
coedge $-1 $491 $597 $600 $601 reversed $544 $-1 #
loop $-1 $-1 $597 $602 #
vertex $-1 $541 $603 #
vertex $-1 $539 $604 #
ellipse-curve $-1 0 14.499999999999996 0 0 -1 0 8 0 9.7968508305790181e-016 1 I I #
coedge $-1 $605 $605 $493 $549 forward $513 $-1 #
edge $-1 $555 0 $553 3.1415926535897931 $548 $606 forward 7 unknown #
coedge $-1 $496 $494 $498 $557 reversed $552 $-1 #
coedge $-1 $494 $496 $605 $607 forward $552 $-1 #
loop $-1 $-1 $551 $608 #
vertex $-1 $607 $609 #
ellipse-curve $-1 -11.000000000000002 13 -2.69413397840923e-015 2.4492127076447525e-016 4.3506757443707623e-031 -1 1.7763568394002505e-015 -1 0 1 I I #
vertex $-1 $607 $610 #
ellipse-curve $-1 11.000000000000002 13 1.347066989204615e-015 -1.2246063538223763e-016 2.1753378721853811e-031 1 -1.7763568394002505e-015 -1 0 1 I I #
edge $-1 $500 -1.2246063538223773e-016 $501 3.1415926535897931 $498 $611 forward 7 unknown #
loop $-1 $-1 $588 $559 #
face $-1 $608 $499 $3 $-1 $612 reversed single #
point $-1 11 14 1.347066989204615e-015 #
point $-1 -11 14 0 #
coedge $-1 $503 $503 $506 $564 reversed $464 $-1 #
ellipse-curve $-1 0 11 0 0 -1 0 10 0 1.2246063538223773e-015 1 I I #
edge $-1 $510 0 $508 3.1415926535897931 $562 $613 forward 7 unknown #
face $-1 $465 $507 $3 $-1 $614 reversed single #
point $-1 -10 11 -2.4492127076447545e-015 #
point $-1 10 11 1.2246063538223773e-015 #
ellipse-curve $-1 0 12 0 0 1 0 10 0 0 1 I I #
plane-surface $-1 0 12 0 0 -1 0 -1 0 0 forward_v I I I I #
ellipse-curve $-1 -8.8817841970012523e-016 9 8.8817841970012523e-016 0 1 0 13 0 7.038098402689652e-016 1 I I #
torus-surface $-1 0 10 0 0 -1 0 13 1 -1 0 0 forward_v I I I I #
face $-1 $615 $616 $3 $-1 $617 reversed single #
loop $-1 $-1 $618 $526 #
torus-surface $-1 0 7 0 0 -1 0 13 0.66999999999999993 -1 0 0 forward_v I I I I #
loop $-1 $-1 $619 $474 #
coedge $-1 $620 $620 $529 $579 reversed $527 $-1 #
coedge $-1 $586 $529 $530 $581 reversed $475 $-1 #
coedge $-1 $529 $586 $531 $582 forward $475 $-1 #
edge $-1 $621 -1.2246063538223773e-016 $622 3.1415926535897931 $576 $623 forward 7 unknown #
coedge $-1 $531 $530 $620 $624 reversed $424 $-1 #
edge $-1 $584 0 $622 3.1415926535897971 $530 $625 forward 7 unknown #
edge $-1 $583 0 $621 3.1415926535897971 $531 $626 forward 7 unknown #
vertex $-1 $587 $627 #
vertex $-1 $587 $628 #
ellipse-curve $-1 4.4408920985006262e-016 4.6699999999999999 4.4408920985006262e-016 0 -1 0 11.5 0 9.6420809704567123e-016 1 I I #
coedge $-1 $578 $577 $533 $587 reversed $475 $-1 #
edge $-1 $583 0 $584 3.1415926535897931 $533 $629 forward 7 unknown #
coedge $-1 $630 $630 $537 $589 forward $558 $-1 #
edge $-1 $595 0 $593 3.1415926535897931 $588 $631 forward 7 unknown #
coedge $-1 $540 $538 $632 $633 reversed $592 $-1 #
coedge $-1 $538 $540 $630 $634 forward $592 $-1 #
loop $-1 $-1 $591 $635 #
vertex $-1 $634 $636 #
ellipse-curve $-1 -8.5000000000000018 14.5 -2.0818308014980417e-015 -2.4492127076447614e-016 -8.1274243653143805e-032 1 1.7763568394002505e-015 -0.5 3.944304526105059e-031 1 I I #
vertex $-1 $634 $637 #
ellipse-curve $-1 8.5000000000000018 14.5 1.0409154007490209e-015 1.2246063538223807e-016 -4.0637121826571903e-032 -1 -1.7763568394002505e-015 -0.5 -1.9721522630525295e-031 1 I I #
coedge $-1 $543 $542 $638 $639 forward $544 $-1 #
coedge $-1 $632 $640 $542 $599 reversed $641 $-1 #
edge $-1 $545 3.5527136788005009e-015 $642 1.5 $542 $643 forward 7 unknown #
coedge $-1 $640 $632 $543 $601 forward $641 $-1 #
edge $-1 $546 0 $644 1.5000000000000036 $543 $645 forward 7 unknown #
face $-1 $646 $544 $3 $-1 $647 forward single #
point $-1 8 14.5 9.7968508305790181e-016 #
point $-1 -8 14.499999999999996 -1.9593701661158036e-015 #
coedge $-1 $548 $548 $551 $607 reversed $513 $-1 #
ellipse-curve $-1 0 12 0 0 -1 0 11 0 1.347066989204615e-015 1 I I #
edge $-1 $555 0 $553 3.1415926535897931 $605 $648 forward 7 unknown #
face $-1 $514 $552 $3 $-1 $649 forward single #
point $-1 -11 12 -2.69413397840923e-015 #
point $-1 11 12 1.347066989204615e-015 #
ellipse-curve $-1 0 14 0 0 1 0 11 0 0 1 I I #
plane-surface $-1 0 14 0 0 -1 0 -1 0 0 forward_v I I I I #
ellipse-curve $-1 0 11 -4.4408920985006262e-016 0 1 0 10 0 1.6686955636724399e-015 1 I I #
torus-surface $-1 0 11.5 0 0 -1 0 10 0.5 -1 0 0 forward_v I I I I #
face $-1 $650 $651 $3 $-1 $652 forward single #
loop $-1 $-1 $653 $572 #
torus-surface $-1 0 7 0 0 -1 0 13 0.66999999999999993 -1 0 0 forward_v I I I I #
coedge $-1 $654 $655 $619 $656 forward $573 $-1 #
coedge $-1 $657 $657 $618 $656 reversed $575 $-1 #
coedge $-1 $576 $576 $580 $624 forward $527 $-1 #
vertex $-1 $582 $658 #
vertex $-1 $624 $659 #
ellipse-curve $-1 0 6.3300000000000001 0 0 1 0 11.5 0 0 1 I I #
edge $-1 $621 1.2246063538223773e-016 $622 3.1415926535897931 $580 $660 forward 7 unknown #
ellipse-curve $-1 -11.499999999999998 5.5 -2.8165946137914677e-015 -2.4492127076447511e-016 5.2417780052659756e-031 1 -1.7763568394002505e-015 -0.83000000000000007 0 1 I I #
ellipse-curve $-1 11.499999999999998 5.5 1.4082973068957338e-015 1.2246063538223755e-016 2.6208890026329878e-031 -1 1.7763568394002505e-015 -0.83000000000000007 0 1 I I #
point $-1 11.5 4.6699999999999999 1.4082973068957338e-015 #
point $-1 -11.5 4.6699999999999999 -2.8165946137914677e-015 #
ellipse-curve $-1 -4.4408920985006262e-016 4.6699999999999999 -4.4408920985006262e-016 0 1 0 11.5 0 1.8523865167457965e-015 1 I I #
coedge $-1 $588 $588 $591 $634 reversed $558 $-1 #
ellipse-curve $-1 6.6613381477509392e-016 14 -8.8817841970012523e-016 0 -1 0 8.5 0 1.9290938204491459e-015 1 I I #
coedge $-1 $600 $598 $590 $633 forward $641 $-1 #
edge $-1 $545 0 $546 3.1415926535897931 $590 $661 forward 7 unknown #
edge $-1 $595 0 $593 3.1415926535897931 $630 $662 forward 7 unknown #
face $-1 $559 $592 $3 $-1 $663 reversed single #
point $-1 -8.5 14 -2.0818308014980413e-015 #
point $-1 8.5 14 1.0409154007490207e-015 #
coedge $-1 $664 $664 $597 $639 reversed $665 $-1 #
edge $-1 $642 1.2246063538223773e-016 $644 3.1415926535897931 $597 $666 forward 7 unknown #
coedge $-1 $598 $600 $664 $667 reversed $641 $-1 #
loop $-1 $-1 $632 $646 #
vertex $-1 $599 $668 #
straight-curve $-1 8 14.499999999999996 9.7968508305790181e-016 0 1 0 I I #
vertex $-1 $601 $669 #
straight-curve $-1 -8 14.499999999999996 -1.9593701661158036e-015 0 1 0 I I #
face $-1 $635 $641 $3 $-1 $670 forward single #
cone-surface $-1 0 16.799999999999997 0 0 -1 0 -8 0 0 1 I I 0 1 8 forward I I I I #
ellipse-curve $-1 0 12 0 0 1 0 11 0 1.347066989204615e-015 1 I I #
torus-surface $-1 0 13 0 0 -1 0 11 1 -1 0 0 forward_v I I I I #
face $-1 $671 $672 $3 $-1 $673 forward single #
loop $-1 $674 $675 $615 #
plane-surface $-1 0 7.6699999999999999 0 0 -1 0 -1 0 0 forward_v I I I I #
coedge $-1 $676 $677 $675 $678 forward $616 $-1 #
coedge $-1 $679 $618 $676 $680 forward $573 $-1 #
coedge $-1 $618 $679 $677 $681 reversed $573 $-1 #
edge $-1 $682 0 $683 3.1415926535897931 $619 $684 forward 7 unknown #
coedge $-1 $619 $619 $685 $686 forward $575 $-1 #
point $-1 11.5 6.3300000000000001 1.4082973068957338e-015 #
point $-1 -11.5 6.3300000000000001 0 #
ellipse-curve $-1 0 6.3300000000000001 0 0 -1 0 11.5 0 0 1 I I #
ellipse-curve $-1 0 14.499999999999996 0 0 1 0 8 0 9.7968508305790181e-016 1 I I #
ellipse-curve $-1 0 14 0 0 1 0 8.5 0 1.0409154007490207e-015 1 I I #
torus-surface $-1 0 14.5 0 0 -1 0 8.5 0.5 -1 0 0 forward_v I I I I #
coedge $-1 $638 $638 $640 $667 forward $665 $-1 #
loop $-1 $687 $638 $688 #
ellipse-curve $-1 0 16 0 0 -1 0 8 0 0 1 I I #
edge $-1 $642 -1.2246063538223773e-016 $644 3.1415926535897931 $664 $689 forward 7 unknown #
point $-1 8 15.999999999999996 9.7968508305790181e-016 #
point $-1 -8 16 0 #
cone-surface $-1 0 16.799999999999997 0 0 -1 0 -8 0 0 1 I I 0 1 8 forward I I I I #
face $-1 $690 $691 $3 $-1 $692 forward single #
loop $-1 $-1 $693 $650 #
torus-surface $-1 0 8.5 0 0 -1 0 11.5 0.83000000000000007 -1 0 0 forward_v I I I I #
loop $-1 $-1 $694 $615 #
coedge $-1 $695 $695 $653 $678 reversed $651 $-1 #
coedge $-1 $685 $653 $654 $680 reversed $616 $-1 #
coedge $-1 $653 $685 $655 $681 forward $616 $-1 #
edge $-1 $696 -1.2246063538223773e-016 $697 3.1415926535897931 $675 $698 forward 7 unknown #
coedge $-1 $655 $654 $695 $699 reversed $573 $-1 #
edge $-1 $683 0 $697 3.1415926535897931 $654 $700 forward 7 unknown #
edge $-1 $682 0 $696 3.1415926535897931 $655 $701 forward 7 unknown #
vertex $-1 $686 $702 #
vertex $-1 $686 $703 #
ellipse-curve $-1 0 6.3300000000000001 -8.8817841970012523e-016 0 -1 0 13 0 2.4801666796692157e-015 1 I I #
coedge $-1 $677 $676 $657 $686 reversed $616 $-1 #
edge $-1 $682 0 $683 3.1415926535897931 $657 $704 forward 7 unknown #
loop $-1 $-1 $705 $688 #
face $-1 $602 $665 $3 $-1 $706 reversed single #
ellipse-curve $-1 0 16 0 0 1 0 8 0 0 1 I I #
face $-1 $707 $708 $3 $-1 $709 forward single #
loop $-1 $-1 $710 $671 #
torus-surface $-1 0 8.5 0 0 -1 0 11.5 0.83000000000000007 -1 0 0 forward_v I I I I #
coedge $-1 $711 $712 $694 $713 forward $672 $-1 #
coedge $-1 $714 $714 $693 $713 reversed $674 $-1 #
coedge $-1 $675 $675 $679 $699 forward $651 $-1 #
vertex $-1 $681 $715 #
vertex $-1 $699 $716 #
ellipse-curve $-1 0 7.6699999999999999 0 0 1 0 13 0 0 1 I I #
edge $-1 $696 1.2246063538223773e-016 $697 3.1415926535897931 $679 $717 forward 7 unknown #
ellipse-curve $-1 -13 7 -3.1839765199381809e-015 2.449212707644753e-016 0 -1 0 -0.66999999999999993 0 1 I I #
ellipse-curve $-1 13 7 1.5919882599690904e-015 -1.2246063538223765e-016 0 1 0 -0.66999999999999993 0 1 I I #
point $-1 13 6.3300000000000001 1.5919882599690904e-015 #
point $-1 -13 6.3300000000000001 -3.1839765199381809e-015 #
ellipse-curve $-1 4.4408920985006262e-016 6.3300000000000001 -8.8817841970012523e-016 0 1 0 13 0 2.4801666796692157e-015 1 I I #
coedge $-1 $718 $718 $719 $720 forward $687 $-1 #
plane-surface $-1 0 16 0 0 -1 0 -1 0 0 forward_v I I I I #
face $-1 $721 $722 $3 $-1 $723 reversed single #
loop $-1 $-1 $724 $690 #
torus-surface $-1 0 8.5 0 0 -1 0 11.5 0.83000000000000007 -1 0 0 forward_v I I I I #
coedge $-1 $725 $726 $727 $728 forward $691 $-1 #
coedge $-1 $729 $693 $725 $730 forward $672 $-1 #
coedge $-1 $693 $729 $726 $731 reversed $672 $-1 #
edge $-1 $732 0 $733 3.1415926535897931 $694 $734 forward 7 unknown #
coedge $-1 $694 $694 $735 $736 forward $674 $-1 #
point $-1 13 7.6699999999999999 1.5919882599690904e-015 #
point $-1 -13 7.6699999999999999 0 #
ellipse-curve $-1 0 7.6699999999999999 0 0 -1 0 13 0 0 1 I I #
coedge $-1 $705 $705 $737 $738 forward $687 $-1 #
coedge $-1 $739 $740 $705 $720 reversed $741 $-1 #
edge $-1 $742 0 $743 3.1415926535897931 $705 $744 forward 7 unknown #
face $-1 $745 $746 $3 $-1 $747 forward single #
loop $-1 $748 $749 $707 #
plane-surface $-1 0 9.3300000000000001 0 0 -1 0 -1 0 0 forward_v I I I I #
coedge $-1 $750 $751 $749 $752 forward $708 $-1 #
coedge $-1 $735 $710 $711 $730 reversed $691 $-1 #
coedge $-1 $710 $735 $712 $731 forward $691 $-1 #
coedge $-1 $751 $750 $710 $728 reversed $708 $-1 #
edge $-1 $753 0 $754 3.1415926535897931 $710 $755 forward 7 unknown #
coedge $-1 $712 $711 $756 $757 reversed $672 $-1 #
edge $-1 $733 0 $754 1.5707963267948988 $711 $758 forward 7 unknown #
edge $-1 $732 0 $753 1.5707963267948923 $712 $759 forward 7 unknown #
vertex $-1 $736 $760 #
vertex $-1 $736 $761 #
ellipse-curve $-1 4.4408920985006262e-016 7.6699999999999999 4.4408920985006262e-016 0 -1 0 11.5 0 9.6420809704567123e-016 1 I I #
coedge $-1 $726 $725 $714 $736 reversed $691 $-1 #
edge $-1 $732 0 $733 3.1415926535897931 $714 $762 forward 7 unknown #
coedge $-1 $763 $764 $718 $738 reversed $765 $-1 #
edge $-1 $743 0 $742 3.1415926535897931 $718 $766 forward 7 unknown #
coedge $-1 $767 $719 $764 $768 forward $741 $-1 #
coedge $-1 $719 $767 $763 $769 reversed $741 $-1 #
loop $-1 $-1 $739 $770 #
vertex $-1 $738 $771 #
vertex $-1 $738 $772 #
ellipse-curve $-1 0 16 0 0 -1 0 -4.25 0 0 1 I I #
face $-1 $773 $774 $3 $-1 $775 reversed single #
loop $-1 $-1 $756 $721 #
torus-surface $-1 0 8.5 0 0 -1 0 11.5 0.83000000000000007 -1 0 0 forward_v I I I I #
loop $-1 $-1 $776 $707 #
coedge $-1 $777 $777 $724 $752 reversed $722 $-1 #
coedge $-1 $727 $724 $778 $779 reversed $708 $-1 #
coedge $-1 $724 $727 $780 $781 forward $708 $-1 #
edge $-1 $782 -1.2246063538223773e-016 $783 3.1415926535897931 $749 $784 forward 7 unknown #
vertex $-1 $731 $785 #
vertex $-1 $757 $786 #
ellipse-curve $-1 0 8.5 0 0 1 0 10.67 0 1.3066549795284765e-015 1 I I #
coedge $-1 $778 $780 $729 $757 forward $746 $-1 #
edge $-1 $753 0 $754 3.1415926535897931 $729 $787 forward 7 unknown #
ellipse-curve $-1 -11.499999999999998 8.5 -2.8165946137914669e-015 -2.4492127076447471e-016 -4.262570250408875e-031 1 -1.7763568394002505e-015 -0.83000000000000007 -7.8886090522101181e-031 1 I I #
ellipse-curve $-1 11.500000000000002 8.5000000000000018 1.4082973068957342e-015 1.2246063538223797e-016 2.1312851252044191e-031 -1 -1.7763568394002505e-015 -0.83000000000000185 -3.944304526105059e-031 1 I I #
point $-1 11.5 7.6699999999999999 1.4082973068957338e-015 #
point $-1 -11.5 7.6699999999999999 -2.8165946137914677e-015 #
ellipse-curve $-1 -4.4408920985006262e-016 7.6699999999999999 -4.4408920985006262e-016 0 1 0 11.5 0 1.8523865167457965e-015 1 I I #
coedge $-1 $788 $737 $740 $769 forward $765 $-1 #
coedge $-1 $737 $788 $739 $768 reversed $765 $-1 #
loop $-1 $-1 $763 $789 #
ellipse-curve $-1 0 16 0 0 -1 0 4.25 0 0 1 I I #
coedge $-1 $740 $739 $790 $791 forward $741 $-1 #
edge $-1 $742 0 $792 0.33000000000000007 $764 $793 forward 7 unknown #
edge $-1 $743 0 $794 0.33000000000000007 $763 $795 forward 7 unknown #
face $-1 $789 $741 $3 $-1 $796 reversed single #
point $-1 -4.25 16 0 #
point $-1 4.25 16 0 #
face $-1 $797 $798 $3 $-1 $799 reversed single #
loop $-1 $-1 $800 $745 #
torus-surface $-1 0 10 0 0 -1 0 13 0.66999999999999993 -1 0 0 forward_v I I I I #
coedge $-1 $801 $801 $800 $802 reversed $748 $-1 #
coedge $-1 $749 $749 $803 $804 forward $722 $-1 #
coedge $-1 $803 $756 $750 $779 forward $746 $-1 #
edge $-1 $754 -1.4114474338304592e-062 $783 1.5707963267948966 $778 $805 forward 7 unknown #
coedge $-1 $756 $803 $751 $781 reversed $746 $-1 #
edge $-1 $753 7.0572371691522959e-063 $782 1.5707963267948966 $780 $806 forward 7 unknown #
vertex $-1 $781 $807 #
vertex $-1 $804 $808 #
ellipse-curve $-1 0 9.3300000000000001 0 0 1 0 11.5 0 0 1 I I #
point $-1 10.67 8.5 1.3066549795284765e-015 #
point $-1 -10.67 8.5 -2.6133099590569529e-015 #
ellipse-curve $-1 0 8.5 0 0 -1 0 10.67 0 1.3066549795284765e-015 1 I I #
coedge $-1 $764 $763 $809 $810 forward $765 $-1 #
face $-1 $688 $765 $3 $-1 $811 reversed single #
coedge $-1 $809 $809 $767 $791 reversed $812 $-1 #
edge $-1 $792 0 $794 3.1415926535897931 $790 $813 forward 7 unknown #
vertex $-1 $810 $814 #
straight-curve $-1 -4.25 16 5.2045770037451033e-016 0 -1 0 I I #
vertex $-1 $810 $815 #
straight-curve $-1 4.25 16 0 0 -1 0 I I #
cone-surface $-1 0 16 0 0 -1 0 4.25 0 0 1 I I 0 1 4.25 forward I I I I #
face $-1 $816 $817 $3 $-1 $818 forward single #
loop $-1 $-1 $819 $773 #
torus-surface $-1 0 10 0 0 -1 0 13 0.66999999999999993 -1 0 0 forward_v I I I I #
coedge $-1 $820 $821 $776 $802 forward $774 $-1 #
coedge $-1 $776 $776 $822 $823 forward $748 $-1 #
edge $-1 $824 0 $825 3.1415926535897931 $776 $826 forward 7 unknown #
coedge $-1 $780 $778 $777 $804 reversed $746 $-1 #
edge $-1 $782 1.2246063538223773e-016 $783 3.1415926535897931 $803 $827 forward 7 unknown #
ellipse-curve $-1 -11.5 8.5 -2.8165946137914677e-015 -2.449212707644756e-016 -3.4556515753565153e-031 1 0.83000000000000007 0 2.0328465473451475e-016 1 I I #
ellipse-curve $-1 11.5 8.5 1.4082973068957335e-015 1.2246063538223733e-016 4.6435318043853187e-031 -1 -0.83000000000000007 0 -1.0164232736725698e-016 1 I I #
point $-1 11.5 9.3300000000000001 1.4082973068957338e-015 #
point $-1 -11.5 9.3300000000000001 0 #
coedge $-1 $790 $790 $788 $810 reversed $812 $-1 #
edge $-1 $794 0 $792 3.1415926535897931 $809 $828 forward 7 unknown #
cone-surface $-1 0 16 0 0 -1 0 4.25 0 0 1 I I 0 1 4.25 forward I I I I #
loop $-1 $-1 $790 $829 #
ellipse-curve $-1 -1.1102230246251565e-016 15.67 -6.6613381477509392e-016 0 -1 0 -4.25 0 6.6613381477509392e-016 1 I I #
point $-1 -4.25 15.67 0 #
point $-1 4.25 15.67 0 #
face $-1 $830 $831 $3 $-1 $832 forward single #
loop $-1 $833 $834 $797 #
plane-surface $-1 0 10.67 0 0 -1 0 -1 0 0 forward_v I I I I #
coedge $-1 $835 $836 $834 $837 forward $798 $-1 #
coedge $-1 $838 $800 $835 $839 forward $774 $-1 #
coedge $-1 $800 $838 $836 $840 reversed $774 $-1 #
coedge $-1 $836 $835 $801 $823 reversed $798 $-1 #
edge $-1 $824 0 $825 3.1415926535897931 $801 $841 forward 7 unknown #
vertex $-1 $823 $842 #
vertex $-1 $823 $843 #
ellipse-curve $-1 0 9.3300000000000001 -8.8817841970012523e-016 0 -1 0 13 0 2.4801666796692157e-015 1 I I #
ellipse-curve $-1 0 9.3300000000000001 0 0 -1 0 11.5 0 0 1 I I #
ellipse-curve $-1 -1.1102230246251565e-016 15.67 4.4408920985006262e-016 0 -1 0 4.25 0 -4.4408920985006262e-016 1 I I #
face $-1 $844 $845 $3 $-1 $846 forward single #
face $-1 $847 $848 $3 $-1 $849 forward single #
loop $-1 $-1 $850 $816 #
torus-surface $-1 0 11.5 0 0 -1 0 10 0.83000000000000007 -1 0 0 forward_v I I I I #
loop $-1 $-1 $851 $797 #
coedge $-1 $852 $852 $819 $837 reversed $817 $-1 #
coedge $-1 $822 $819 $820 $839 reversed $798 $-1 #
coedge $-1 $819 $822 $821 $840 forward $798 $-1 #
edge $-1 $853 -1.2246063538223773e-016 $854 3.1415926535897931 $834 $855 forward 7 unknown #
coedge $-1 $821 $820 $852 $856 reversed $774 $-1 #
edge $-1 $825 0 $854 3.1415926535897931 $820 $857 forward 7 unknown #
edge $-1 $824 0 $853 3.1415926535897931 $821 $858 forward 7 unknown #
ellipse-curve $-1 4.4408920985006262e-016 9.3300000000000001 -8.8817841970012523e-016 0 1 0 13 0 2.4801666796692157e-015 1 I I #
point $-1 13 9.3300000000000001 1.5919882599690904e-015 #
point $-1 -13 9.3300000000000001 -3.1839765199381809e-015 #
face $-1 $770 $859 $3 $-1 $860 reversed single #
loop $-1 $812 $861 $829 #
plane-surface $-1 0 15.67 0 0 -1 0 -1 0 0 forward_v I I I I #
face $-1 $862 $863 $3 $-1 $864 reversed single #
loop $-1 $-1 $865 $830 #
torus-surface $-1 0 11.5 0 0 -1 0 10 0.83000000000000007 -1 0 0 forward_v I I I I #
coedge $-1 $866 $867 $851 $868 forward $831 $-1 #
coedge $-1 $869 $869 $850 $868 reversed $833 $-1 #
coedge $-1 $834 $834 $838 $856 forward $817 $-1 #
vertex $-1 $840 $870 #
vertex $-1 $856 $871 #
ellipse-curve $-1 0 10.67 0 0 1 0 13 0 0 1 I I #
edge $-1 $853 1.2246063538223773e-016 $854 3.1415926535897931 $838 $872 forward 7 unknown #
ellipse-curve $-1 -13 10 -3.1839765199381805e-015 2.449212707644753e-016 5.8870216807538198e-031 -1 0 -0.66999999999999993 -3.944304526105059e-031 1 I I #
ellipse-curve $-1 13 10 1.5919882599690902e-015 -1.2246063538223765e-016 2.9435108403769099e-031 1 0 -0.66999999999999993 1.9721522630525295e-031 1 I I #
loop $-1 $-1 $873 $844 #
cone-surface $-1 0 16.799999999999997 0 0 -1 0 -7.6699999999999999 0 0 1 I I 0 1 7.6699999999999999 forward I I I I #
coedge $-1 $874 $874 $875 $876 forward $845 $-1 #
face $-1 $877 $878 $3 $-1 $879 reversed single #
loop $-1 $880 $881 $847 #
plane-surface $-1 0 12.33 0 0 -1 0 -1 0 0 forward_v I I I I #
coedge $-1 $882 $883 $881 $884 forward $848 $-1 #
coedge $-1 $885 $850 $882 $886 forward $831 $-1 #
coedge $-1 $850 $885 $883 $887 reversed $831 $-1 #
edge $-1 $888 0 $889 3.1415926535897931 $851 $890 forward 7 unknown #
coedge $-1 $851 $851 $891 $892 forward $833 $-1 #
point $-1 13 10.67 1.5919882599690904e-015 #
point $-1 -13 10.67 0 #
ellipse-curve $-1 0 10.67 0 0 -1 0 13 0 0 1 I I #
coedge $-1 $893 $894 $895 $896 forward $859 $-1 #
coedge $-1 $861 $861 $897 $898 reversed $845 $-1 #
coedge $-1 $894 $893 $861 $876 reversed $859 $-1 #
edge $-1 $899 1.2246063538223773e-016 $900 3.1415926535897931 $875 $901 forward 7 unknown #
face $-1 $902 $903 $3 $-1 $904 reversed single #
loop $-1 $-1 $905 $862 #
torus-surface $-1 0 13 0 0 -1 0 11 0.66999999999999993 -1 0 0 forward_v I I I I #
loop $-1 $-1 $906 $847 #
coedge $-1 $907 $907 $865 $884 reversed $863 $-1 #
coedge $-1 $891 $865 $866 $886 reversed $848 $-1 #
coedge $-1 $865 $891 $867 $887 forward $848 $-1 #
edge $-1 $908 -1.2246063538223773e-016 $909 3.1415926535897931 $881 $910 forward 7 unknown #
coedge $-1 $867 $866 $907 $911 reversed $831 $-1 #
edge $-1 $889 0 $909 3.1415926535897931 $866 $912 forward 7 unknown #
edge $-1 $888 0 $908 3.1415926535897931 $867 $913 forward 7 unknown #
vertex $-1 $892 $914 #
vertex $-1 $892 $915 #
ellipse-curve $-1 4.4408920985006262e-016 10.67 8.8817841970012523e-016 0 -1 0 10 0 3.3642793412225203e-016 1 I I #
coedge $-1 $883 $882 $869 $892 reversed $848 $-1 #
edge $-1 $888 0 $889 3.1415926535897931 $869 $916 forward 7 unknown #
coedge $-1 $875 $873 $917 $918 forward $859 $-1 #
coedge $-1 $873 $875 $919 $920 reversed $859 $-1 #
coedge $-1 $921 $922 $873 $896 reversed $923 $-1 #
edge $-1 $924 0 $925 3.1415926535897931 $895 $926 forward 7 unknown #
coedge $-1 $917 $919 $874 $898 forward $927 $-1 #
edge $-1 $899 -1.2246063538223773e-016 $900 3.1415926535897931 $874 $928 forward 7 unknown #
vertex $-1 $920 $929 #
vertex $-1 $876 $930 #
ellipse-curve $-1 0 15.67 0 0 -1 0 7.6699999999999999 0 0 1 I I #
face $-1 $931 $932 $3 $-1 $933 forward single #
loop $-1 $-1 $934 $877 #
torus-surface $-1 0 13 0 0 -1 0 11 0.66999999999999993 -1 0 0 forward_v I I I I #
coedge $-1 $935 $936 $906 $937 forward $878 $-1 #
coedge $-1 $938 $938 $905 $937 reversed $880 $-1 #
coedge $-1 $881 $881 $885 $911 forward $863 $-1 #
vertex $-1 $887 $939 #
vertex $-1 $911 $940 #
ellipse-curve $-1 0 12.33 0 0 1 0 10 0 0 1 I I #
edge $-1 $908 1.2246063538223773e-016 $909 3.1415926535897931 $885 $941 forward 7 unknown #
ellipse-curve $-1 -10 11.5 -2.4492127076447549e-015 -2.4492127076447521e-016 4.7521741278374201e-031 1 0 -0.83000000000000007 3.944304526105059e-031 1 I I #
ellipse-curve $-1 10 11.5 1.2246063538223775e-015 1.224606353822376e-016 2.37608706391871e-031 -1 0 -0.83000000000000007 -1.9721522630525295e-031 1 I I #
point $-1 10 10.67 1.2246063538223773e-015 #
point $-1 -10 10.67 -2.4492127076447545e-015 #
ellipse-curve $-1 0 10.67 0 0 1 0 10 0 1.2246063538223773e-015 1 I I #
coedge $-1 $942 $897 $893 $918 reversed $927 $-1 #
edge $-1 $925 0 $900 1.1700000000000035 $893 $943 forward 7 unknown #
coedge $-1 $897 $942 $894 $920 forward $927 $-1 #
edge $-1 $924 3.5527136788005009e-015 $899 1.1700000000000017 $894 $944 forward 7 unknown #
coedge $-1 $945 $895 $946 $947 reversed $923 $-1 #
coedge $-1 $895 $945 $948 $949 forward $923 $-1 #
loop $-1 $-1 $945 $931 #
vertex $-1 $947 $950 #
vertex $-1 $896 $951 #
ellipse-curve $-1 0 14.499999999999996 0 0 -1 0 7.6699999999999999 0 9.3927307338176329e-016 1 I I #
loop $-1 $-1 $897 $952 #
ellipse-curve $-1 0 15.67 0 0 1 0 7.6699999999999999 0 0 1 I I #
point $-1 7.6699999999999999 15.669999999999998 9.3927307338176329e-016 #
point $-1 -7.6699999999999999 15.67 0 #
face $-1 $953 $923 $3 $-1 $954 forward single #
loop $-1 $955 $956 $902 #
plane-surface $-1 0 13.67 0 0 -1 0 -1 0 0 forward_v I I I I #
coedge $-1 $957 $958 $956 $959 forward $903 $-1 #
coedge $-1 $960 $905 $957 $961 forward $878 $-1 #
coedge $-1 $905 $960 $958 $962 reversed $878 $-1 #
edge $-1 $963 0 $964 3.1415926535897931 $906 $965 forward 7 unknown #
coedge $-1 $906 $906 $966 $967 forward $880 $-1 #
point $-1 10 12.33 1.2246063538223773e-015 #
point $-1 -10 12.33 0 #
ellipse-curve $-1 0 12.33 0 0 -1 0 10 0 0 1 I I #
coedge $-1 $919 $917 $968 $969 reversed $927 $-1 #
straight-curve $-1 -7.6699999999999999 14.499999999999996 -1.8785461467635266e-015 0 1 0 I I #
straight-curve $-1 7.6699999999999999 14.499999999999996 9.3927307338176329e-016 0 1 0 I I #
coedge $-1 $922 $921 $970 $971 forward $923 $-1 #
coedge $-1 $968 $972 $921 $947 forward $973 $-1 #
edge $-1 $974 0 $924 1.5707963267948923 $921 $975 forward 7 unknown #
coedge $-1 $972 $968 $922 $949 reversed $973 $-1 #
edge $-1 $976 0 $925 1.5707963267948881 $922 $977 forward 7 unknown #
point $-1 7.6699999999999999 14.5 9.3927307338176329e-016 #
point $-1 -7.6699999999999999 14.499999999999996 0 #
face $-1 $829 $927 $3 $-1 $978 reversed single #
face $-1 $952 $973 $3 $-1 $979 forward single #
torus-surface $-1 0 14.5 0 0 -1 0 8.5 0.83000000000000007 -1 0 0 forward_v I I I I #
loop $-1 $-1 $970 $902 #
coedge $-1 $980 $980 $934 $959 reversed $932 $-1 #
coedge $-1 $966 $934 $935 $961 reversed $903 $-1 #
coedge $-1 $934 $966 $936 $962 forward $903 $-1 #
edge $-1 $981 -1.2246063538223773e-016 $982 3.1415926535897931 $956 $983 forward 7 unknown #
coedge $-1 $936 $935 $980 $984 reversed $878 $-1 #
edge $-1 $964 0 $982 3.1415926535897931 $935 $985 forward 7 unknown #
edge $-1 $963 0 $981 3.1415926535897931 $936 $986 forward 7 unknown #
vertex $-1 $967 $987 #
vertex $-1 $967 $988 #
ellipse-curve $-1 -4.4408920985006262e-016 12.33 -8.8817841970012523e-016 0 -1 0 11 0 2.2352454089047402e-015 1 I I #
coedge $-1 $958 $957 $938 $967 reversed $903 $-1 #
edge $-1 $963 0 $964 3.1415926535897931 $938 $989 forward 7 unknown #
coedge $-1 $948 $946 $942 $969 forward $973 $-1 #
edge $-1 $924 0 $925 3.1415926535897931 $968 $990 forward 7 unknown #
coedge $-1 $991 $991 $945 $971 reversed $955 $-1 #
edge $-1 $974 0 $976 3.1415926535897931 $970 $992 forward 7 unknown #
coedge $-1 $946 $948 $991 $993 reversed $973 $-1 #
loop $-1 $-1 $968 $953 #
vertex $-1 $993 $994 #
ellipse-curve $-1 8.5000000000000018 14.500000000000002 1.0409154007490209e-015 1.2246063538223763e-016 -2.4480193871427865e-032 -1 -1.7763568394002505e-015 -0.83000000000000185 -1.9721522630525295e-031 1 I I #
vertex $-1 $993 $995 #
ellipse-curve $-1 -8.5000000000000018 14.500000000000002 -2.0818308014980417e-015 -2.4492127076447525e-016 -4.896038774285573e-032 1 1.7763568394002505e-015 -0.83000000000000185 3.944304526105059e-031 1 I I #
cone-surface $-1 0 16.799999999999997 0 0 -1 0 -7.6699999999999999 0 0 1 I I 0 1 7.6699999999999999 forward I I I I #
torus-surface $-1 0 14.5 0 0 -1 0 8.5 0.83000000000000007 -1 0 0 forward_v I I I I #
coedge $-1 $956 $956 $960 $984 forward $932 $-1 #
vertex $-1 $962 $996 #
vertex $-1 $984 $997 #
ellipse-curve $-1 0 13.67 0 0 1 0 11 0 0 1 I I #
edge $-1 $981 1.2246063538223773e-016 $982 3.1415926535897931 $960 $998 forward 7 unknown #
ellipse-curve $-1 -11 13 -2.6941339784092296e-015 2.449212707644753e-016 5.8870216807538198e-031 -1 0 -0.66999999999999993 -3.944304526105059e-031 1 I I #
ellipse-curve $-1 11 13 1.3470669892046148e-015 -1.2246063538223765e-016 2.9435108403769099e-031 1 0 -0.66999999999999993 1.9721522630525295e-031 1 I I #
point $-1 11 12.33 1.347066989204615e-015 #
point $-1 -11 12.33 -2.69413397840923e-015 #
ellipse-curve $-1 0 12.33 -8.8817841970012523e-016 0 1 0 11 0 2.2352454089047402e-015 1 I I #
ellipse-curve $-1 0 14.499999999999996 0 0 1 0 7.6699999999999999 0 9.3927307338176329e-016 1 I I #
coedge $-1 $970 $970 $972 $993 forward $955 $-1 #
ellipse-curve $-1 0 13.67 0 0 -1 0 8.5 0 1.0409154007490207e-015 1 I I #
edge $-1 $974 0 $976 3.1415926535897931 $991 $999 forward 7 unknown #
point $-1 8.5 13.67 1.0409154007490207e-015 #
point $-1 -8.5 13.67 -2.0818308014980413e-015 #
point $-1 11 13.67 1.347066989204615e-015 #
point $-1 -11 13.67 0 #
ellipse-curve $-1 0 13.67 0 0 -1 0 11 0 0 1 I I #
ellipse-curve $-1 0 13.67 -4.4408920985006262e-016 0 1 0 8.5 0 1.4850046105990833e-015 1 I I #
End-of-ACIS-data 