600 0 1 0           
87 GICL ACIS Healer - Source: /gicl/data5/repository/PTC/V18/asmdes18/parts/boot.sat - 6 0 18 ACIS 6.0.3 Solaris 24 Sat Apr 13 22:59:49 2002 
1 9.999999999999999547e-07 1.000000000000000036e-10 
body $-1 $1 $-1 $-1 #
lump $-1 $-1 $2 $0 #
shell $-1 $-1 $-1 $3 $-1 $1 #
face $-1 $4 $5 $2 $-1 $6 forward single #
face $-1 $7 $8 $2 $-1 $9 reversed single #
loop $-1 $-1 $10 $3 #
cone-surface $-1 0 167.9999999999999716 0 0 -1 0 -115 0 0 1 I I 0 1 115 forward I I I I #
face $-1 $11 $12 $2 $-1 $13 forward single #
loop $-1 $-1 $14 $4 #
torus-surface $-1 0 25 0 0 -1 0 125 10 -1 0 0 forward_v I I I I #
coedge $-1 $15 $16 $17 $18 forward $5 $-1 #
face $-1 $19 $20 $2 $-1 $21 reversed single #
loop $-1 $22 $23 $7 #
plane-surface $-1 0 35 0 0 -1 0 -10 0 0 forward_v I I I I #
coedge $-1 $24 $25 $26 $27 forward $8 $-1 #
coedge $-1 $28 $10 $29 $30 forward $5 $-1 #
coedge $-1 $10 $28 $31 $32 forward $5 $-1 #
coedge $-1 $25 $24 $10 $18 reversed $8 $-1 #
edge $-1 $33 0 $34 3.141592653589793116 $10 $35 forward 7 unknown #
face $-1 $36 $37 $2 $-1 $38 forward single #
loop $-1 $-1 $39 $11 #
torus-surface $-1 0 25 0 0 -1 0 125 10 -1 0 0 forward_v I I I I #
loop $-1 $-1 $40 $7 #
coedge $-1 $26 $26 $41 $42 forward $12 $-1 #
coedge $-1 $17 $14 $43 $44 reversed $8 $-1 #
coedge $-1 $14 $17 $45 $46 forward $8 $-1 #
coedge $-1 $23 $23 $14 $27 reversed $12 $-1 #
edge $-1 $47 1.224606353822377258e-16 $48 3.141592653589793116 $14 $49 forward 7 unknown #
coedge $-1 $16 $15 $50 $51 reversed $5 $-1 #
coedge $-1 $52 $53 $15 $30 reversed $37 $-1 #
edge $-1 $34 0 $54 2.830000000000000071 $15 $55 forward 7 unknown #
coedge $-1 $53 $52 $16 $32 reversed $37 $-1 #
edge $-1 $56 0 $33 2.830000000000000071 $16 $57 forward 7 unknown #
vertex $-1 $32 $58 #
vertex $-1 $30 $59 #
ellipse-curve $-1 0 25 0 0 -1 0 115 0 1.408297306895733847e-14 1 I I #
face $-1 $60 $61 $2 $-1 $62 forward single #
loop $-1 $-1 $52 $19 #
cone-surface $-1 0 167.9999999999999716 0 0 -1 0 -115 0 0 1 I I 0 1 115 forward I I I I #
coedge $-1 $43 $45 $52 $63 forward $20 $-1 #
coedge $-1 $64 $64 $65 $66 forward $22 $-1 #
coedge $-1 $45 $43 $23 $42 reversed $20 $-1 #
edge $-1 $47 -1.224606353822377258e-16 $48 3.141592653589793116 $23 $67 forward 7 unknown #
coedge $-1 $41 $39 $24 $44 forward $20 $-1 #
edge $-1 $34 -1.598721155460225458e-15 $48 1.570796326794897668 $24 $68 forward 7 unknown #
coedge $-1 $39 $41 $25 $46 reversed $20 $-1 #
edge $-1 $33 -1.598721155460225458e-15 $47 1.570796326794897668 $25 $69 forward 7 unknown #
vertex $-1 $46 $70 #
vertex $-1 $44 $71 #
ellipse-curve $-1 0 35 0 0 -1 0 125 0 0 1 I I #
coedge $-1 $72 $72 $28 $51 forward $61 $-1 #
edge $-1 $56 2.449252941709749096e-16 $54 3.14159265358979356 $28 $73 forward 7 unknown #
coedge $-1 $31 $29 $39 $63 reversed $37 $-1 #
coedge $-1 $29 $31 $72 $74 reversed $37 $-1 #
vertex $-1 $51 $75 #
straight-curve $-1 -115 24.99999999999998224 -2.816594613791467694e-14 0 -10 0 I I #
vertex $-1 $32 $76 #
straight-curve $-1 115 -3.300000000000018474 1.408297306895733847e-14 0 10 0 I I #
point $-1 115 24.99999999999998224 1.408297306895733847e-14 #
point $-1 -115 24.99999999999998224 -2.816594613791467694e-14 #
face $-1 $77 $78 $2 $-1 $79 reversed single #
loop $-1 $80 $72 $36 #
plane-surface $-1 0 -3.300000000000000266 0 0 -1 0 -10 0 0 forward_v I I I I #
edge $-1 $33 0 $34 3.141592653589793116 $52 $81 forward 7 unknown #
coedge $-1 $40 $40 $82 $83 reversed $22 $-1 #
coedge $-1 $84 $85 $40 $66 reversed $86 $-1 #
edge $-1 $87 0 $88 3.141592653589793116 $40 $89 forward 7 unknown #
ellipse-curve $-1 0 35 0 0 1 0 125 0 0 1 I I #
ellipse-curve $-1 -125 25.00000000000000711 -3.061515884555942514e-14 -2.449212707644750572e-16 5.653921129374869581e-31 1 10 -8.881784197001252323e-15 2.449212707644750572e-15 1 I I #
ellipse-curve $-1 125 25.00000000000000711 1.530757942277971257e-14 1.224606353822375286e-16 2.82696056468743479e-31 -1 -10 -8.881784197001252323e-15 -1.224606353822375286e-15 1 I I #
point $-1 125 35 1.530757942277971573e-14 #
point $-1 -125 35 0 #
coedge $-1 $50 $50 $53 $74 forward $61 $-1 #
ellipse-curve $-1 0 -3.300000000000000266 0 0 -1 0 115 0 -1.408343576070477613e-14 1 I I #
edge $-1 $54 3.673859295532134243e-16 $56 3.141592653589793116 $53 $90 forward 7 unknown #
point $-1 -115 -3.300000000000018474 -2.816594613791467694e-14 #
point $-1 115 -3.300000000000018474 1.408297306895733847e-14 #
face $-1 $91 $92 $2 $-1 $93 reversed single #
loop $-1 $-1 $94 $60 #
cone-surface $-1 0 -3.299999999999982947 0 0 1 0 -90 0 0 1 I I 0 1 90 forward I I I I #
loop $-1 $-1 $95 $36 #
ellipse-curve $-1 0 25 0 0 1 0 115 0 1.408297306895733847e-14 1 I I #
coedge $-1 $96 $97 $64 $83 forward $98 $-1 #
edge $-1 $87 0 $88 3.141592653589793116 $64 $99 forward 7 unknown #
coedge $-1 $100 $65 $97 $101 forward $86 $-1 #
coedge $-1 $65 $100 $96 $102 reversed $86 $-1 #
loop $-1 $-1 $100 $103 #
vertex $-1 $83 $104 #
vertex $-1 $83 $105 #
ellipse-curve $-1 0 35 -1.332267629550187849e-14 0 -1 0 130 0 2.924255889519278284e-14 1 I I #
ellipse-curve $-1 0 -3.300000000000000266 0 0 -1 0 -115 0 1.408343576070486764e-14 1 I I #
face $-1 $106 $107 $2 $-1 $108 reversed single #
loop $-1 $-1 $109 $77 #
cone-surface $-1 0 -3.299999999999982947 0 0 1 0 -90 0 0 1 I I 0 1 90 forward I I I I #
coedge $-1 $110 $111 $112 $113 reversed $78 $-1 #
coedge $-1 $114 $114 $110 $115 forward $80 $-1 #
coedge $-1 $116 $82 $85 $102 forward $98 $-1 #
coedge $-1 $82 $116 $84 $101 reversed $98 $-1 #
loop $-1 $-1 $82 $117 #
ellipse-curve $-1 -8.881784197001252323e-15 35 8.881784197001252323e-15 0 1 0 130 0 7.038098402689652033e-15 1 I I #
coedge $-1 $85 $84 $118 $119 forward $86 $-1 #
edge $-1 $87 0 $120 3.141592653589793116 $84 $121 forward 7 unknown #
edge $-1 $88 0 $122 3.141592653589793116 $85 $123 forward 7 unknown #
face $-1 $124 $86 $2 $-1 $125 forward single #
point $-1 130 35 1.591988259969090436e-14 #
point $-1 -130 35 -3.183976519938180871e-14 #
face $-1 $126 $127 $2 $-1 $128 reversed single #
loop $-1 $129 $130 $91 #
plane-surface $-1 0 0 0 0 -1 0 -10 0 0 forward_v I I I I #
coedge $-1 $131 $132 $133 $134 reversed $92 $-1 #
coedge $-1 $133 $94 $95 $115 reversed $78 $-1 #
coedge $-1 $94 $133 $135 $136 forward $78 $-1 #
coedge $-1 $132 $131 $94 $113 forward $92 $-1 #
edge $-1 $137 -1.731947918415244164e-15 $138 0.3299999999999982947 $112 $139 forward 7 unknown #
coedge $-1 $95 $95 $131 $140 forward $80 $-1 #
edge $-1 $141 0 $137 3.141592653589793116 $95 $142 forward 7 unknown #
coedge $-1 $97 $96 $143 $144 reversed $98 $-1 #
face $-1 $103 $98 $2 $-1 $145 forward single #
coedge $-1 $143 $143 $100 $119 reversed $146 $-1 #
edge $-1 $120 1.224606353822377258e-16 $122 3.141592653589793116 $100 $147 forward 7 unknown #
vertex $-1 $101 $148 #
ellipse-curve $-1 130 55 1.591988259969090436e-14 -1.224606353822377258e-16 0 1 0 -20 0 1 I I #
vertex $-1 $102 $149 #
ellipse-curve $-1 -130 55 -3.183976519938180871e-14 2.449212707644754516e-16 0 -1 0 -20 0 1 I I #
face $-1 $150 $151 $2 $-1 $152 reversed single #
torus-surface $-1 0 55 0 0 -1 0 130 20 -1 0 0 forward_v I I I I #
face $-1 $153 $154 $2 $-1 $155 reversed single #
loop $-1 $-1 $156 $106 #
cone-surface $-1 0 167.9999999999999716 0 0 -1 0 -111.7000000000000028 0 0 1 I I 0 1 111.7000000000000028 forward I I I I #
loop $-1 $-1 $135 $91 #
coedge $-1 $157 $157 $158 $159 reversed $107 $-1 #
coedge $-1 $112 $109 $114 $140 reversed $92 $-1 #
coedge $-1 $109 $112 $160 $161 forward $92 $-1 #
coedge $-1 $111 $110 $109 $134 forward $78 $-1 #
edge $-1 $141 -1.731947918415244164e-15 $162 0.3299999999999982947 $109 $163 forward 7 unknown #
coedge $-1 $160 $160 $111 $136 reversed $129 $-1 #
edge $-1 $162 0 $138 3.141592653589793116 $135 $164 forward 7 unknown #
vertex $-1 $140 $165 #
vertex $-1 $161 $166 #
straight-curve $-1 -90 -3.299999999999982947 0 0 10 0 I I #
edge $-1 $137 0 $141 3.141592653589793116 $114 $167 forward 7 unknown #
vertex $-1 $140 $168 #
ellipse-curve $-1 0 -3.299999999999982947 0 1.912050764632214151e-16 1 0 90 -1.720845688168992638e-14 0 1 I I #
coedge $-1 $118 $118 $116 $144 forward $146 $-1 #
edge $-1 $120 -1.224606353822377258e-16 $122 3.141592653589793116 $143 $169 forward 7 unknown #
torus-surface $-1 0 55 0 0 -1 0 130 20 -1 0 0 forward_v I I I I #
loop $-1 $170 $143 $171 #
ellipse-curve $-1 0 75 0 0 -1 0 130 0 0 1 I I #
point $-1 130 75 1.591988259969090436e-14 #
point $-1 -130 75 0 #
face $-1 $172 $173 $2 $-1 $174 forward single #
loop $-1 $-1 $175 $124 #
torus-surface $-1 0 85 0 0 -1 0 100 10 -1 0 0 forward_v I I I I #
face $-1 $176 $177 $2 $-1 $178 forward single #
loop $-1 $-1 $179 $126 #
cone-surface $-1 0 167.9999999999999716 0 0 -1 0 -111.7000000000000028 0 0 1 I I 0 1 111.7000000000000028 forward I I I I #
coedge $-1 $180 $158 $181 $182 forward $127 $-1 #
coedge $-1 $130 $130 $183 $184 reversed $107 $-1 #
coedge $-1 $156 $185 $130 $159 forward $127 $-1 #
edge $-1 $186 0 $187 3.141592653589793116 $158 $188 forward 7 unknown #
coedge $-1 $135 $135 $132 $161 reversed $129 $-1 #
edge $-1 $138 0 $162 3.141592653589793116 $160 $189 forward 7 unknown #
vertex $-1 $161 $190 #
straight-curve $-1 90 -3.299999999999982947 1.102145718440139532e-14 0 10 0 I I #
ellipse-curve $-1 0 0 -4.440892098500626162e-15 0 1 0 90 0 1.54627113894869727e-14 1 I I #
point $-1 -90 -3.300000000000000266 -1.102181929098643331e-14 #
point $-1 -90 0 -1.102181929098643805e-14 #
ellipse-curve $-1 0 -3.299999999999982947 0 -1.912050764632214151e-16 1 -2.341586444774299909e-32 -90 -1.720845688168992638e-14 -1.102181929098643331e-14 1 I I #
point $-1 90 -3.300000000000000266 0 #
ellipse-curve $-1 0 75 0 0 1 0 130 0 0 1 I I #
loop $-1 $-1 $191 $171 #
face $-1 $117 $146 $2 $-1 $192 reversed single #
face $-1 $-1 $193 $2 $-1 $194 reversed single #
loop $-1 $-1 $195 $150 #
torus-surface $-1 0 115 0 0 -1 0 110 20 -1 0 0 forward_v I I I I #
coedge $-1 $196 $197 $198 $199 forward $151 $-1 #
face $-1 $200 $201 $2 $-1 $202 forward single #
loop $-1 $-1 $203 $153 #
torus-surface $-1 0 25 0 0 -1 0 125 13.30000000000000071 -1 0 0 forward_v I I I I #
coedge $-1 $204 $183 $185 $205 forward $154 $-1 #
coedge $-1 $185 $156 $206 $207 forward $127 $-1 #
coedge $-1 $183 $204 $156 $182 reversed $154 $-1 #
edge $-1 $187 -3.552713678800500929e-15 $208 2.499999999999996447 $181 $209 forward 7 unknown #
coedge $-1 $179 $181 $157 $184 forward $154 $-1 #
edge $-1 $187 0 $186 3.141592653589793116 $183 $210 forward 7 unknown #
coedge $-1 $158 $180 $179 $205 reversed $127 $-1 #
vertex $-1 $184 $211 #
vertex $-1 $184 $212 #
ellipse-curve $-1 0 0 4.440892098500626162e-15 0 -1 0 -111.7000000000000028 0 -1.812019448520259041e-14 1 I I #
ellipse-curve $-1 0 0 4.440892098500626162e-15 0 1 0 -90 0 -1.546271138948706421e-14 1 I I #
point $-1 90 0 1.102181929098634654e-14 #
coedge $-1 $213 $213 $214 $215 forward $170 $-1 #
plane-surface $-1 0 75 0 0 -1 0 -10 0 0 forward_v I I I I #
loop $-1 $-1 $216 $172 #
torus-surface $-1 0 145 0 0 -1 0 90 10 -1 0 0 forward_v I I I I #
coedge $-1 $217 $218 $219 $220 forward $173 $-1 #
coedge $-1 $214 $175 $221 $222 reversed $151 $-1 #
coedge $-1 $175 $214 $223 $224 forward $151 $-1 #
coedge $-1 $225 $225 $175 $199 reversed $226 $-1 #
edge $-1 $227 1.224606353822377258e-16 $228 3.141592653589793116 $175 $229 forward 7 unknown #
face $-1 $230 $231 $2 $-1 $232 reversed single #
loop $-1 $-1 $233 $176 #
torus-surface $-1 0 25 0 0 -1 0 125 13.30000000000000071 -1 0 0 forward_v I I I I #
coedge $-1 $234 $235 $204 $236 forward $177 $-1 #
coedge $-1 $181 $179 $203 $236 reversed $154 $-1 #
edge $-1 $186 -3.552713678800500929e-15 $237 2.499999999999996447 $179 $238 forward 7 unknown #
coedge $-1 $239 $240 $180 $207 reversed $201 $-1 #
edge $-1 $208 0 $237 3.141592653589793116 $180 $241 forward 7 unknown #
vertex $-1 $182 $242 #
straight-curve $-1 111.7000000000000028 3.552713678800500929e-14 1.367885297219595334e-14 0 10 0 I I #
ellipse-curve $-1 0 0 -8.881784197001252323e-15 0 -1 0 111.7000000000000028 0 2.462885553822189414e-14 1 I I #
point $-1 -111.7000000000000028 0 -1.367930238670196425e-14 #
point $-1 111.7000000000000028 0 1.574707134122064182e-14 #
coedge $-1 $191 $191 $243 $244 reversed $170 $-1 #
coedge $-1 $197 $196 $191 $215 reversed $151 $-1 #
edge $-1 $245 0 $246 3.141592653589793116 $191 $247 forward 7 unknown #
coedge $-1 $248 $249 $250 $251 forward $193 $-1 #
coedge $-1 $252 $195 $253 $254 reversed $173 $-1 #
coedge $-1 $195 $252 $255 $256 forward $173 $-1 #
coedge $-1 $257 $257 $195 $220 reversed $258 $-1 #
edge $-1 $259 1.224606353822377258e-16 $260 3.141592653589793116 $195 $261 forward 7 unknown #
coedge $-1 $262 $243 $196 $222 forward $263 $-1 #
edge $-1 $246 3.552713678800501127e-16 $228 3.141592653589796225 $196 $264 forward 7 unknown #
coedge $-1 $243 $262 $197 $224 reversed $263 $-1 #
edge $-1 $245 3.552713678800501127e-16 $227 3.141592653589796225 $197 $265 forward 7 unknown #
coedge $-1 $198 $198 $262 $266 forward $226 $-1 #
loop $-1 $267 $225 $268 #
vertex $-1 $224 $269 #
vertex $-1 $222 $270 #
ellipse-curve $-1 0 95 0 0 -1 0 100 0 0 1 I I #
face $-1 $271 $272 $2 $-1 $273 reversed single #
loop $-1 $274 $275 $200 #
plane-surface $-1 0 38.29999999999999716 0 0 -1 0 -10 0 0 forward_v I I I I #
coedge $-1 $240 $239 $275 $276 forward $201 $-1 #
coedge $-1 $277 $203 $240 $278 forward $177 $-1 #
coedge $-1 $203 $277 $239 $279 reversed $177 $-1 #
edge $-1 $208 0 $237 3.141592653589793116 $204 $280 forward 7 unknown #
vertex $-1 $236 $281 #
straight-curve $-1 -111.7000000000000028 3.552713678800500929e-14 -2.735770594439190669e-14 0 10 0 I I #
coedge $-1 $233 $206 $235 $279 forward $201 $-1 #
coedge $-1 $206 $233 $234 $278 reversed $201 $-1 #
ellipse-curve $-1 0 25 0 0 1 0 111.7000000000000028 0 1.367885297219595334e-14 1 I I #
point $-1 111.7000000000000028 25 1.367885297219595334e-14 #
coedge $-1 $221 $223 $213 $244 forward $263 $-1 #
edge $-1 $245 0 $246 3.141592653589793116 $213 $282 forward 7 unknown #
vertex $-1 $244 $283 #
vertex $-1 $244 $284 #
ellipse-curve $-1 0 75 0 0 -1 0 100 0 1.224606353822377258e-14 1 I I #
coedge $-1 $285 $216 $286 $287 reversed $193 $-1 #
coedge $-1 $216 $285 $288 $289 forward $193 $-1 #
coedge $-1 $290 $291 $216 $251 reversed $292 $-1 #
edge $-1 $293 0 $294 3.141592653589793116 $216 $295 forward 7 unknown #
coedge $-1 $218 $217 $296 $297 reversed $173 $-1 #
coedge $-1 $298 $299 $217 $254 forward $300 $-1 #
edge $-1 $301 0 $260 3.141592653589793116 $217 $302 forward 7 unknown #
coedge $-1 $299 $298 $218 $256 reversed $300 $-1 #
edge $-1 $303 0 $259 3.141592653589793116 $218 $304 forward 7 unknown #
coedge $-1 $219 $219 $298 $305 forward $258 $-1 #
loop $-1 $306 $257 $307 #
vertex $-1 $256 $308 #
vertex $-1 $254 $309 #
ellipse-curve $-1 0 135 0 0 -1 0 110 0 0 1 I I #
coedge $-1 $223 $221 $225 $266 reversed $263 $-1 #
loop $-1 $-1 $243 $310 #
ellipse-curve $-1 -99.99999999999998579 85 -2.449212707644754516e-14 -2.449212707644752544e-16 4.350675744370762289e-31 1 -1.776356839400250465e-14 -10 0 1 I I #
ellipse-curve $-1 99.99999999999998579 85 1.224606353822377258e-14 1.224606353822376272e-16 2.175337872185381144e-31 -1 1.776356839400250465e-14 -10 0 1 I I #
edge $-1 $227 -1.224606353822377258e-16 $228 3.141592653589793116 $225 $311 forward 7 unknown #
loop $-1 $-1 $296 $268 #
face $-1 $310 $226 $2 $-1 $312 forward single #
point $-1 100 95 1.224606353822377258e-14 #
point $-1 -100 95 0 #
face $-1 $313 $314 $2 $-1 $315 reversed single #
loop $-1 $-1 $316 $230 #
torus-surface $-1 0 55 0 0 -1 0 130 16.69999999999999929 -1 0 0 forward_v I I I I #
loop $-1 $-1 $317 $200 #
coedge $-1 $318 $318 $233 $276 reversed $231 $-1 #
edge $-1 $319 -1.224606353822377258e-16 $320 3.141592653589793116 $275 $321 forward 7 unknown #
coedge $-1 $235 $234 $318 $322 reversed $177 $-1 #
edge $-1 $237 1.759007088546877423e-63 $320 1.570796326794896558 $234 $323 forward 7 unknown #
edge $-1 $208 4.397517721367193558e-64 $319 1.570796326794896558 $235 $324 forward 7 unknown #
ellipse-curve $-1 0 25 0 0 -1 0 111.7000000000000028 0 1.367885297219595334e-14 1 I I #
point $-1 -111.7000000000000028 25 -2.735770594439190669e-14 #
ellipse-curve $-1 0 75 -4.440892098500626162e-15 0 1 0 100 0 1.668695563672439874e-14 1 I I #
point $-1 100 75 1.224606353822377258e-14 #
point $-1 -100 75 -2.449212707644754516e-14 #
coedge $-1 $249 $248 $325 $326 reversed $193 $-1 #
coedge $-1 $327 $328 $248 $287 forward $329 $-1 #
edge $-1 $330 3.864176307262882665e-47 $294 1.570796326794893671 $248 $331 forward 7 unknown #
coedge $-1 $328 $327 $249 $289 reversed $329 $-1 #
edge $-1 $332 9.660440768157206662e-48 $293 1.57079632679489678 $249 $333 forward 7 unknown #
coedge $-1 $334 $250 $335 $336 forward $292 $-1 #
coedge $-1 $250 $334 $337 $338 reversed $292 $-1 #
loop $-1 $-1 $334 $339 #
vertex $-1 $289 $340 #
vertex $-1 $287 $341 #
ellipse-curve $-1 0 144.9999999999999716 0 0 -1 0 80 0 9.796850830579018066e-15 1 I I #
coedge $-1 $342 $342 $252 $297 forward $267 $-1 #
edge $-1 $303 0 $301 3.141592653589793116 $296 $343 forward 7 unknown #
coedge $-1 $255 $253 $257 $305 reversed $300 $-1 #
coedge $-1 $253 $255 $342 $344 forward $300 $-1 #
loop $-1 $-1 $299 $345 #
vertex $-1 $344 $346 #
ellipse-curve $-1 -110 115 -2.694133978409229968e-14 2.449212707644754516e-16 0 -1 0 -20 0 1 I I #
vertex $-1 $344 $347 #
ellipse-curve $-1 110 115 1.347066989204614984e-14 -1.224606353822377258e-16 0 1 0 -20 0 1 I I #
edge $-1 $259 -1.224606353822377258e-16 $260 3.141592653589793116 $257 $348 forward 7 unknown #
loop $-1 $-1 $325 $307 #
face $-1 $345 $258 $2 $-1 $349 reversed single #
point $-1 110 135 1.347066989204614984e-14 #
point $-1 -110 135 0 #
face $-1 $171 $263 $2 $-1 $350 reversed single #
ellipse-curve $-1 0 95 0 0 1 0 100 0 0 1 I I #
plane-surface $-1 0 95 0 0 -1 0 -10 0 0 forward_v I I I I #
face $-1 $351 $352 $2 $-1 $353 forward single #
loop $-1 $-1 $354 $271 #
torus-surface $-1 0 55 0 0 -1 0 130 16.69999999999999929 -1 0 0 forward_v I I I I #
coedge $-1 $355 $356 $317 $357 forward $272 $-1 #
coedge $-1 $358 $358 $316 $357 reversed $274 $-1 #
coedge $-1 $275 $275 $277 $322 forward $231 $-1 #
vertex $-1 $279 $359 #
vertex $-1 $322 $360 #
ellipse-curve $-1 0 38.29999999999999716 0 0 1 0 125 0 0 1 I I #
edge $-1 $319 1.224606353822377258e-16 $320 3.141592653589793116 $277 $361 forward 7 unknown #
ellipse-curve $-1 -125 25 -3.061515884555943146e-14 -2.449212707644755502e-16 -3.438331636262727243e-32 1 13.30000000000000071 0 3.257452901167524769e-15 1 I I #
ellipse-curve $-1 125 25 1.530757942277971573e-14 1.224606353822377751e-16 -1.719165818131363622e-32 -1 -13.30000000000000071 0 -1.628726450583762385e-15 1 I I #
coedge $-1 $362 $362 $285 $326 forward $306 $-1 #
edge $-1 $332 0 $330 3.141592653589793116 $325 $363 forward 7 unknown #
coedge $-1 $288 $286 $364 $365 reversed $329 $-1 #
coedge $-1 $286 $288 $362 $366 forward $329 $-1 #
loop $-1 $-1 $328 $367 #
vertex $-1 $366 $368 #
ellipse-curve $-1 -90 145 -2.204291436880278434e-14 -2.449212707644749093e-16 -7.888609052210118054e-31 1 0 -10 -7.888609052210118054e-30 1 I I #
vertex $-1 $366 $369 #
ellipse-curve $-1 90 145 1.102145718440139217e-14 1.224606353822374547e-16 -3.944304526105059027e-31 -1 0 -10 3.944304526105059027e-30 1 I I #
coedge $-1 $291 $290 $370 $371 forward $292 $-1 #
coedge $-1 $364 $372 $290 $336 reversed $373 $-1 #
edge $-1 $293 2.842170943040400901e-15 $374 1.5 $290 $375 forward 7 unknown #
coedge $-1 $372 $364 $291 $338 forward $373 $-1 #
edge $-1 $294 0 $376 1.500000000000002887 $291 $377 forward 7 unknown #
face $-1 $378 $292 $2 $-1 $379 forward single #
point $-1 80 145 9.796850830579018066e-15 #
point $-1 -80 144.9999999999999716 -1.959370166115803613e-14 #
coedge $-1 $296 $296 $299 $344 reversed $267 $-1 #
ellipse-curve $-1 0 95 0 0 -1 0 110 0 1.347066989204614984e-14 1 I I #
edge $-1 $303 0 $301 3.141592653589793116 $342 $380 forward 7 unknown #
face $-1 $268 $300 $2 $-1 $381 forward single #
point $-1 -110 95 -2.694133978409229968e-14 #
point $-1 110 95 1.347066989204614984e-14 #
ellipse-curve $-1 0 135 0 0 1 0 110 0 0 1 I I #
plane-surface $-1 0 135 0 0 -1 0 -10 0 0 forward_v I I I I #
torus-surface $-1 0 85 0 0 -1 0 100 10 -1 0 0 forward_v I I I I #
face $-1 $382 $383 $2 $-1 $384 forward single #
loop $-1 $385 $386 $313 #
plane-surface $-1 0 71.70000000000000284 0 0 -1 0 -10 0 0 forward_v I I I I #
coedge $-1 $387 $388 $386 $389 forward $314 $-1 #
coedge $-1 $390 $316 $387 $391 forward $272 $-1 #
coedge $-1 $316 $390 $388 $392 reversed $272 $-1 #
edge $-1 $393 0 $394 3.141592653589793116 $317 $395 forward 7 unknown #
coedge $-1 $317 $317 $396 $397 forward $274 $-1 #
point $-1 125 38.29999999999999716 1.530757942277971573e-14 #
point $-1 -125 38.29999999999999716 0 #
ellipse-curve $-1 0 38.29999999999999716 0 0 -1 0 125 0 0 1 I I #
coedge $-1 $325 $325 $328 $366 reversed $306 $-1 #
ellipse-curve $-1 4.440892098500626162e-15 135 -1.776356839400250465e-14 0 -1 0 90 0 2.878502557840389997e-14 1 I I #
coedge $-1 $337 $335 $327 $365 forward $373 $-1 #
edge $-1 $293 0 $294 3.141592653589793116 $327 $398 forward 7 unknown #
edge $-1 $332 0 $330 3.141592653589793116 $362 $399 forward 7 unknown #
face $-1 $307 $329 $2 $-1 $400 reversed single #
point $-1 -90 135 -2.204291436880279065e-14 #
point $-1 90 135 1.102145718440139532e-14 #
coedge $-1 $401 $401 $334 $371 reversed $402 $-1 #
edge $-1 $374 1.224606353822377258e-16 $376 3.141592653589793116 $334 $403 forward 7 unknown #
coedge $-1 $335 $337 $401 $404 reversed $373 $-1 #
loop $-1 $-1 $364 $378 #
vertex $-1 $336 $405 #
straight-curve $-1 80 144.9999999999999716 9.796850830579018066e-15 0 10 0 I I #
vertex $-1 $338 $406 #
straight-curve $-1 -80 144.9999999999999716 -1.959370166115803613e-14 0 10 0 I I #
face $-1 $367 $373 $2 $-1 $407 forward single #
cone-surface $-1 0 167.9999999999999716 0 0 -1 0 -80 0 0 1 I I 0 1 80 forward I I I I #
ellipse-curve $-1 0 95 0 0 1 0 110 0 1.347066989204614984e-14 1 I I #
torus-surface $-1 0 115 0 0 -1 0 110 20 -1 0 0 forward_v I I I I #
face $-1 $408 $409 $2 $-1 $410 forward single #
loop $-1 $-1 $411 $351 #
torus-surface $-1 0 85 0 0 -1 0 100 13.30000000000000071 -1 0 0 forward_v I I I I #
loop $-1 $-1 $412 $313 #
coedge $-1 $413 $413 $354 $389 reversed $352 $-1 #
coedge $-1 $396 $354 $355 $391 reversed $314 $-1 #
coedge $-1 $354 $396 $356 $392 forward $314 $-1 #
edge $-1 $414 -1.224606353822377258e-16 $415 3.141592653589793116 $386 $416 forward 7 unknown #
coedge $-1 $356 $355 $413 $417 reversed $272 $-1 #
edge $-1 $394 0 $415 3.141592653589793116 $355 $418 forward 7 unknown #
edge $-1 $393 0 $414 3.141592653589793116 $356 $419 forward 7 unknown #
vertex $-1 $397 $420 #
vertex $-1 $397 $421 #
ellipse-curve $-1 0 38.29999999999999716 -8.881784197001252323e-15 0 -1 0 130 0 2.480166679669215668e-14 1 I I #
coedge $-1 $388 $387 $358 $397 reversed $314 $-1 #
edge $-1 $393 0 $394 3.141592653589793116 $358 $422 forward 7 unknown #
ellipse-curve $-1 0 144.9999999999999716 0 0 1 0 80 0 9.796850830579018066e-15 1 I I #
ellipse-curve $-1 -4.440892098500626162e-15 135 8.881784197001252323e-15 0 1 0 90 0 2.139672987400143001e-15 1 I I #
torus-surface $-1 0 145 0 0 -1 0 90 10 -1 0 0 forward_v I I I I #
coedge $-1 $370 $370 $372 $404 forward $402 $-1 #
loop $-1 $423 $370 $424 #
ellipse-curve $-1 0 160 0 0 -1 0 80 0 0 1 I I #
edge $-1 $374 -1.224606353822377258e-16 $376 3.141592653589793116 $401 $425 forward 7 unknown #
point $-1 80 159.9999999999999716 9.796850830579018066e-15 #
point $-1 -80 160 0 #
cone-surface $-1 0 167.9999999999999716 0 0 -1 0 -80 0 0 1 I I 0 1 80 forward I I I I #
face $-1 $426 $427 $2 $-1 $428 reversed single #
loop $-1 $-1 $429 $382 #
torus-surface $-1 0 85 0 0 -1 0 100 13.30000000000000071 -1 0 0 forward_v I I I I #
coedge $-1 $430 $431 $412 $432 forward $383 $-1 #
coedge $-1 $433 $433 $411 $432 reversed $385 $-1 #
coedge $-1 $386 $386 $390 $417 forward $352 $-1 #
vertex $-1 $392 $434 #
vertex $-1 $417 $435 #
ellipse-curve $-1 0 71.70000000000000284 0 0 1 0 130 0 0 1 I I #
edge $-1 $414 1.224606353822377258e-16 $415 3.141592653589793116 $390 $436 forward 7 unknown #
ellipse-curve $-1 -130 55 -3.183976519938180871e-14 2.449212707644753037e-16 0 -1 0 -16.69999999999999929 0 1 I I #
ellipse-curve $-1 130 55 1.591988259969090436e-14 -1.224606353822376519e-16 0 1 0 -16.69999999999999929 0 1 I I #
point $-1 130 38.29999999999999716 1.591988259969090436e-14 #
point $-1 -130 38.29999999999999716 -3.183976519938180871e-14 #
ellipse-curve $-1 4.440892098500626162e-15 38.29999999999999716 -8.881784197001252323e-15 0 1 0 130 0 2.480166679669215668e-14 1 I I #
loop $-1 $-1 $437 $424 #
face $-1 $339 $402 $2 $-1 $438 reversed single #
ellipse-curve $-1 0 160 0 0 1 0 80 0 0 1 I I #
face $-1 $439 $440 $2 $-1 $441 reversed single #
loop $-1 $442 $443 $408 #
plane-surface $-1 0 98.29999999999999716 0 0 -1 0 -10 0 0 forward_v I I I I #
coedge $-1 $444 $445 $443 $446 forward $409 $-1 #
coedge $-1 $447 $411 $444 $448 forward $383 $-1 #
coedge $-1 $411 $447 $445 $449 reversed $383 $-1 #
edge $-1 $450 0 $451 3.141592653589793116 $412 $452 forward 7 unknown #
coedge $-1 $412 $412 $453 $454 forward $385 $-1 #
point $-1 130 71.70000000000000284 1.591988259969090436e-14 #
point $-1 -130 71.70000000000000284 0 #
ellipse-curve $-1 0 71.70000000000000284 0 0 -1 0 130 0 0 1 I I #
coedge $-1 $455 $455 $456 $457 forward $423 $-1 #
plane-surface $-1 0 160 0 0 -1 0 -10 0 0 forward_v I I I I #
face $-1 $458 $459 $2 $-1 $460 reversed single #
loop $-1 $-1 $461 $426 #
torus-surface $-1 0 115 0 0 -1 0 110 16.69999999999999929 -1 0 0 forward_v I I I I #
loop $-1 $-1 $462 $408 #
coedge $-1 $463 $463 $429 $446 reversed $427 $-1 #
coedge $-1 $453 $429 $430 $448 reversed $409 $-1 #
coedge $-1 $429 $453 $431 $449 forward $409 $-1 #
edge $-1 $464 -1.224606353822377258e-16 $465 3.141592653589793116 $443 $466 forward 7 unknown #
coedge $-1 $431 $430 $463 $467 reversed $383 $-1 #
edge $-1 $451 0 $465 3.141592653589793116 $430 $468 forward 7 unknown #
edge $-1 $450 0 $464 3.141592653589793116 $431 $469 forward 7 unknown #
vertex $-1 $454 $470 #
vertex $-1 $454 $471 #
ellipse-curve $-1 4.440892098500626162e-15 71.70000000000000284 0 0 -1 0 100 0 1.224606353822377258e-14 1 I I #
coedge $-1 $445 $444 $433 $454 reversed $409 $-1 #
edge $-1 $450 0 $451 3.141592653589793116 $433 $472 forward 7 unknown #
coedge $-1 $437 $437 $473 $474 forward $423 $-1 #
coedge $-1 $475 $476 $437 $457 reversed $477 $-1 #
edge $-1 $478 0 $479 3.141592653589793116 $437 $480 forward 7 unknown #
face $-1 $481 $482 $2 $-1 $483 forward single #
loop $-1 $-1 $484 $439 #
torus-surface $-1 0 115 0 0 -1 0 110 16.69999999999999929 -1 0 0 forward_v I I I I #
coedge $-1 $485 $486 $462 $487 forward $440 $-1 #
coedge $-1 $488 $488 $461 $487 reversed $442 $-1 #
coedge $-1 $443 $443 $447 $467 forward $427 $-1 #
vertex $-1 $449 $489 #
vertex $-1 $467 $490 #
ellipse-curve $-1 0 98.29999999999999716 0 0 1 0 100 0 0 1 I I #
edge $-1 $464 1.224606353822377258e-16 $465 3.141592653589793116 $447 $491 forward 7 unknown #
ellipse-curve $-1 -100 85 -2.449212707644754516e-14 -2.449212707644755996e-16 0 1 0 -13.30000000000000071 0 1 I I #
ellipse-curve $-1 100 85 1.224606353822377258e-14 1.224606353822377998e-16 0 -1 0 -13.30000000000000071 0 1 I I #
point $-1 100 71.70000000000000284 1.224606353822377258e-14 #
point $-1 -100 71.70000000000000284 -2.449212707644754516e-14 #
ellipse-curve $-1 0 71.70000000000000284 -4.440892098500626162e-15 0 1 0 100 0 1.668695563672439874e-14 1 I I #
coedge $-1 $492 $493 $455 $474 reversed $494 $-1 #
edge $-1 $479 0 $478 3.141592653589793116 $455 $495 forward 7 unknown #
coedge $-1 $496 $456 $493 $497 forward $477 $-1 #
coedge $-1 $456 $496 $492 $498 reversed $477 $-1 #
loop $-1 $-1 $475 $499 #
vertex $-1 $474 $500 #
vertex $-1 $474 $501 #
ellipse-curve $-1 0 160 0 0 -1 0 -42.5 0 0 1 I I #
face $-1 $502 $503 $2 $-1 $504 forward single #
loop $-1 $505 $506 $458 #
plane-surface $-1 0 131.6999999999999886 0 0 -1 0 -10 0 0 forward_v I I I I #
coedge $-1 $507 $508 $506 $509 forward $459 $-1 #
coedge $-1 $510 $461 $507 $511 forward $440 $-1 #
coedge $-1 $461 $510 $508 $512 reversed $440 $-1 #
edge $-1 $513 0 $514 3.141592653589793116 $462 $515 forward 7 unknown #
coedge $-1 $462 $462 $516 $517 forward $442 $-1 #
point $-1 100 98.29999999999999716 1.224606353822377258e-14 #
point $-1 -100 98.29999999999999716 0 #
ellipse-curve $-1 0 98.29999999999999716 0 0 -1 0 100 0 0 1 I I #
coedge $-1 $518 $473 $476 $498 forward $494 $-1 #
coedge $-1 $473 $518 $475 $497 reversed $494 $-1 #
loop $-1 $-1 $492 $519 #
ellipse-curve $-1 0 160 0 0 -1 0 42.5 0 0 1 I I #
coedge $-1 $476 $475 $520 $521 forward $477 $-1 #
edge $-1 $478 0 $522 0.3300000000000011258 $493 $523 forward 7 unknown #
edge $-1 $479 0 $524 0.3300000000000011258 $492 $525 forward 7 unknown #
face $-1 $519 $477 $2 $-1 $526 reversed single #
point $-1 -42.5 160 0 #
point $-1 42.5 160 0 #
face $-1 $527 $528 $2 $-1 $529 forward single #
loop $-1 $-1 $530 $481 #
torus-surface $-1 0 145 0 0 -1 0 90 13.30000000000000071 -1 0 0 forward_v I I I I #
loop $-1 $-1 $531 $458 #
coedge $-1 $532 $532 $484 $509 reversed $482 $-1 #
coedge $-1 $516 $484 $485 $511 reversed $459 $-1 #
coedge $-1 $484 $516 $486 $512 forward $459 $-1 #
edge $-1 $533 -1.224606353822377258e-16 $534 3.141592653589793116 $506 $535 forward 7 unknown #
coedge $-1 $486 $485 $532 $536 reversed $440 $-1 #
edge $-1 $514 -2.127373460359583126e-16 $534 3.14159265358979134 $485 $537 forward 7 unknown #
edge $-1 $513 -2.127373460359583126e-16 $533 3.14159265358979134 $486 $538 forward 7 unknown #
vertex $-1 $517 $539 #
vertex $-1 $517 $540 #
ellipse-curve $-1 4.440892098500626162e-15 98.29999999999999716 4.440892098500626162e-15 0 -1 0 110 0 9.029777793545523679e-15 1 I I #
coedge $-1 $508 $507 $488 $517 reversed $459 $-1 #
edge $-1 $513 0 $514 3.141592653589793116 $488 $541 forward 7 unknown #
coedge $-1 $493 $492 $542 $543 forward $494 $-1 #
face $-1 $424 $494 $2 $-1 $544 reversed single #
coedge $-1 $542 $542 $496 $521 reversed $545 $-1 #
edge $-1 $522 0 $524 3.141592653589793116 $520 $546 forward 7 unknown #
vertex $-1 $543 $547 #
straight-curve $-1 -42.5 160 5.204577003745103347e-15 0 -10 0 I I #
vertex $-1 $543 $548 #
straight-curve $-1 42.5 160 0 0 -10 0 I I #
cone-surface $-1 0 160 0 0 -1 0 42.5 0 0 1 I I 0 1 42.5 forward I I I I #
face $-1 $549 $550 $2 $-1 $551 reversed single #
loop $-1 $-1 $552 $502 #
torus-surface $-1 0 145 0 0 -1 0 90 13.30000000000000071 -1 0 0 forward_v I I I I #
coedge $-1 $553 $554 $531 $555 forward $503 $-1 #
coedge $-1 $556 $556 $530 $555 reversed $505 $-1 #
coedge $-1 $506 $506 $510 $536 forward $482 $-1 #
vertex $-1 $512 $557 #
vertex $-1 $536 $558 #
ellipse-curve $-1 0 131.6999999999999886 0 0 1 0 110 0 0 1 I I #
edge $-1 $533 1.224606353822377258e-16 $534 3.141592653589793116 $510 $559 forward 7 unknown #
ellipse-curve $-1 -109.9999999999999858 115 -2.694133978409229653e-14 2.449212707644755502e-16 -2.433360588417417613e-32 -1 -1.776356839400250465e-14 -16.69999999999999929 -3.944304526105059027e-30 1 I I #
ellipse-curve $-1 109.9999999999999858 115 1.347066989204614826e-14 -1.224606353822377751e-16 -1.216680294208708806e-32 1 1.776356839400250465e-14 -16.69999999999999929 1.972152263052529514e-30 1 I I #
point $-1 110 98.29999999999999716 1.347066989204614984e-14 #
point $-1 -110 98.29999999999999716 -2.694133978409229968e-14 #
ellipse-curve $-1 0 98.29999999999999716 -8.881784197001252323e-15 0 1 0 110 0 2.235245408904740216e-14 1 I I #
coedge $-1 $520 $520 $518 $543 reversed $545 $-1 #
edge $-1 $524 0 $522 3.141592653589793116 $542 $560 forward 7 unknown #
cone-surface $-1 0 160 0 0 -1 0 42.5 0 0 1 I I 0 1 42.5 forward I I I I #
loop $-1 $-1 $520 $549 #
ellipse-curve $-1 -1.11022302462515654e-15 156.6999999999999886 -6.661338147750939243e-15 0 -1 0 -42.5 0 6.661338147750939243e-15 1 I I #
point $-1 -42.5 156.6999999999999886 0 #
point $-1 42.5 156.6999999999999886 0 #
face $-1 $561 $562 $2 $-1 $563 forward single #
loop $-1 $-1 $564 $527 #
cone-surface $-1 0 167.9999999999999716 0 0 -1 0 -76.70000000000000284 0 0 1 I I 0 1 76.70000000000000284 forward I I I I #
coedge $-1 $565 $566 $567 $568 forward $528 $-1 #
coedge $-1 $569 $530 $565 $570 forward $503 $-1 #
coedge $-1 $530 $569 $566 $571 reversed $503 $-1 #
edge $-1 $572 0 $573 3.141592653589793116 $531 $574 forward 7 unknown #
coedge $-1 $531 $531 $575 $576 forward $505 $-1 #
point $-1 110 131.6999999999999886 1.347066989204614984e-14 #
point $-1 -110 131.6999999999999886 0 #
ellipse-curve $-1 0 131.6999999999999886 0 0 -1 0 110 0 0 1 I I #
ellipse-curve $-1 -1.11022302462515654e-15 156.6999999999999886 4.440892098500626162e-15 0 -1 0 42.5 0 -4.440892098500626162e-15 1 I I #
face $-1 $499 $577 $2 $-1 $578 reversed single #
loop $-1 $545 $579 $549 #
plane-surface $-1 0 156.6999999999999886 0 0 -1 0 -10 0 0 forward_v I I I I #
coedge $-1 $580 $581 $582 $583 forward $550 $-1 #
coedge $-1 $575 $552 $553 $570 reversed $528 $-1 #
coedge $-1 $552 $575 $554 $571 forward $528 $-1 #
coedge $-1 $581 $580 $552 $568 reversed $550 $-1 #
edge $-1 $584 0 $585 3.141592653589793116 $552 $586 forward 7 unknown #
coedge $-1 $554 $553 $587 $588 reversed $503 $-1 #
edge $-1 $573 -2.67121329233121687e-16 $585 1.570796326794891007 $553 $589 forward 7 unknown #
edge $-1 $572 -2.67121329233121687e-16 $584 1.570796326794893227 $554 $590 forward 7 unknown #
vertex $-1 $576 $591 #
vertex $-1 $576 $592 #
ellipse-curve $-1 0 131.6999999999999886 0 0 -1 0 90 0 1.102145718440139532e-14 1 I I #
coedge $-1 $566 $565 $556 $576 reversed $528 $-1 #
edge $-1 $572 0 $573 3.141592653589793116 $556 $593 forward 7 unknown #
loop $-1 $-1 $587 $561 #
cone-surface $-1 0 167.9999999999999716 0 0 -1 0 -76.70000000000000284 0 0 1 I I 0 1 76.70000000000000284 forward I I I I #
coedge $-1 $582 $582 $594 $595 forward $562 $-1 #
coedge $-1 $567 $564 $596 $597 reversed $550 $-1 #
coedge $-1 $564 $567 $598 $599 forward $550 $-1 #
coedge $-1 $579 $579 $564 $583 reversed $562 $-1 #
edge $-1 $600 -1.224606353822377258e-16 $601 3.141592653589793116 $582 $602 forward 7 unknown #
vertex $-1 $571 $603 #
vertex $-1 $588 $604 #
ellipse-curve $-1 0 144.9999999999999716 0 0 1 0 76.70000000000000284 0 9.392730733817632939e-15 1 I I #
coedge $-1 $596 $598 $569 $588 forward $577 $-1 #
edge $-1 $584 0 $585 3.141592653589793116 $569 $605 forward 7 unknown #
ellipse-curve $-1 -90.00000000000001421 145.0000000000000284 -2.204291436880279065e-14 -2.44921270764475353e-16 -3.271184770203577277e-31 1 1.776356839400250465e-14 -13.30000000000001847 0 1 I I #
ellipse-curve $-1 90.00000000000001421 145.0000000000000284 1.102145718440139532e-14 1.224606353822376765e-16 -1.635592385101788638e-31 -1 -1.776356839400250465e-14 -13.30000000000001847 0 1 I I #
point $-1 90 131.6999999999999886 1.102145718440139532e-14 #
point $-1 -90 131.6999999999999886 -2.204291436880279065e-14 #
ellipse-curve $-1 0 131.6999999999999886 -4.440892098500626162e-15 0 1 0 90 0 1.546234928290202149e-14 1 I I #
coedge $-1 $598 $596 $579 $595 reversed $577 $-1 #
edge $-1 $600 1.224606353822377258e-16 $601 3.141592653589793116 $594 $606 forward 7 unknown #
coedge $-1 $594 $587 $580 $597 forward $577 $-1 #
edge $-1 $585 0 $601 1.170000000000001705 $596 $607 forward 7 unknown #
coedge $-1 $587 $594 $581 $599 reversed $577 $-1 #
edge $-1 $584 2.842170943040400901e-15 $600 1.170000000000001705 $598 $608 forward 7 unknown #
vertex $-1 $599 $609 #
vertex $-1 $595 $610 #
ellipse-curve $-1 0 156.6999999999999886 0 0 1 0 76.70000000000000284 0 0 1 I I #
point $-1 76.70000000000000284 145 9.392730733817632939e-15 #
point $-1 -76.70000000000000284 144.9999999999999716 0 #
ellipse-curve $-1 0 144.9999999999999716 0 0 -1 0 76.70000000000000284 0 9.392730733817632939e-15 1 I I #
ellipse-curve $-1 -4.440892098500626162e-15 156.6999999999999886 2.220446049250313081e-15 0 -1 0 76.70000000000000284 0 -2.220446049250313081e-15 1 I I #
straight-curve $-1 -76.70000000000000284 144.9999999999999716 -1.878546146763526588e-14 0 10 0 I I #
straight-curve $-1 76.70000000000000284 144.9999999999999716 9.392730733817632939e-15 0 10 0 I I #
point $-1 76.70000000000000284 156.6999999999999886 9.392730733817632939e-15 #
point $-1 -76.70000000000000284 156.6999999999999886 0 #
End-of-ACIS-data 