700 0 2 0           
24 FBMach with ACIS - 7.0.3 13 ACIS 7.0.3 NT 24 Thu May 16 15:58:12 2002 
1 9.9999999999999995e-007 1e-010 
body $2 -1 $-1 $3 $-1 $4 #
bdycol-kcp $-1 -1 1 7 $5 $6 $7 $8 $9 $10 $11 #
model_id-kcp-attrib $-1 -1 $-1 $-1 $0 1 1021579091 1021579091 1236074497 1 #
lump $-1 -1 $-1 $-1 $12 $0 #
transform $-1 -1 1 0 0 0 1 0 0 0 1 0 0 0 1 rotate no_reflect no_shear #
body $13 -1 $-1 $14 $-1 $15 #
body $16 -1 $-1 $17 $-1 $18 #
body $19 -1 $-1 $20 $-1 $21 #
body $22 -1 $-1 $23 $-1 $24 #
body $25 -1 $-1 $26 $-1 $27 #
body $28 -1 $-1 $29 $-1 $30 #
body $31 -1 $-1 $32 $-1 $33 #
shell $-1 -1 $-1 $-1 $-1 $34 $-1 $3 #
rgb_color-st-attrib $-1 -1 $35 $-1 $5 0.5 1 1 #
lump $-1 -1 $-1 $-1 $36 $5 #
transform $-1 -1 1 0 0 0 1 0 0 0 1 -3.5527136788005009e-015 175 -3.5527136788005009e-015 1 no_rotate no_reflect no_shear #
rgb_color-st-attrib $-1 -1 $37 $-1 $6 1 0.5 1 #
lump $-1 -1 $-1 $-1 $38 $6 #
transform $-1 -1 1 0 0 0 1 0 0 0 1 -3.5527136788005009e-015 175 -3.5527136788005009e-015 1 no_rotate no_reflect no_shear #
rgb_color-st-attrib $-1 -1 $39 $-1 $7 1 0.5 1 #
lump $-1 -1 $-1 $-1 $40 $7 #
transform $-1 -1 1 0 0 0 1 0 0 0 1 -3.5527136788005009e-015 175 -3.5527136788005009e-015 1 no_rotate no_reflect no_shear #
rgb_color-st-attrib $-1 -1 $41 $-1 $8 0.5 1 1 #
lump $-1 -1 $-1 $-1 $42 $8 #
transform $-1 -1 1 0 0 0 1 0 0 0 1 0 0 0 1 no_rotate no_reflect no_shear #
model_id-kcp-attrib $-1 -1 $-1 $-1 $9 1 1021579091 1021579091 1236074498 1 #
lump $-1 -1 $-1 $-1 $43 $9 #
transform $-1 -1 1 0 0 0 1 0 0 0 1 -3.5527136788005009e-015 175 -3.5527136788005009e-015 1 no_rotate no_reflect no_shear #
rgb_color-st-attrib $-1 -1 $44 $-1 $10 1 0.5 1 #
lump $-1 -1 $-1 $-1 $45 $10 #
transform $-1 -1 1 0 0 0 1 0 0 0 1 -3.5527136788005009e-015 175 -3.5527136788005009e-015 1 no_rotate no_reflect no_shear #
rgb_color-st-attrib $-1 -1 $46 $-1 $11 1 0.5 1 #
lump $-1 -1 $-1 $-1 $47 $11 #
transform $-1 -1 1 0 0 0 1 0 0 0 1 -3.5527136788005009e-015 175 -3.5527136788005009e-015 1 no_rotate no_reflect no_shear #
face $48 -1 $-1 $49 $50 $12 $-1 $51 forward single #
model_id-kcp-attrib $-1 -1 $-1 $13 $5 1 1021579091 1021579091 1226506243 1 #
shell $-1 -1 $-1 $-1 $-1 $52 $-1 $14 #
model_id-kcp-attrib $-1 -1 $-1 $16 $6 1 1021579091 1021579091 1229717511 1 #
shell $-1 -1 $-1 $-1 $-1 $53 $-1 $17 #
model_id-kcp-attrib $-1 -1 $-1 $19 $7 1 1021579091 1021579091 1231421445 1 #
shell $-1 -1 $-1 $-1 $-1 $54 $-1 $20 #
model_id-kcp-attrib $-1 -1 $-1 $22 $8 1 1021579091 1021579091 1231749124 1 #
shell $-1 -1 $-1 $-1 $-1 $55 $-1 $23 #
shell $-1 -1 $-1 $-1 $-1 $56 $-1 $26 #
model_id-kcp-attrib $-1 -1 $-1 $28 $10 1 1021579091 1021579091 1239285766 1 #
shell $-1 -1 $-1 $-1 $-1 $57 $-1 $29 #
model_id-kcp-attrib $-1 -1 $-1 $31 $11 1 1021579091 1021579091 1239547912 1 #
shell $-1 -1 $-1 $-1 $-1 $58 $-1 $32 #
model_id-kcp-attrib $-1 -1 $-1 $-1 $34 1 1021579091 1021579091 1236074497 2 #
face $59 -1 $-1 $60 $61 $12 $-1 $62 forward single #
loop $-1 -1 $-1 $-1 $63 $34 #
cone-surface $-1 -1 $-1 0 367.5 0 0 -1 0 -17.5 0 0 1 I I 0 1 17.5 forward I I I I #
face $-1 -1 $-1 $64 $65 $36 $-1 $66 reversed single #
face $-1 -1 $-1 $67 $68 $38 $-1 $69 forward single #
face $-1 -1 $-1 $70 $71 $40 $-1 $72 forward single #
face $-1 -1 $-1 $73 $74 $42 $-1 $75 forward single #
face $-1 -1 $-1 $76 $77 $43 $-1 $78 forward single #
face $-1 -1 $-1 $79 $80 $45 $-1 $81 forward single #
face $-1 -1 $-1 $82 $83 $47 $-1 $84 forward single #
model_id-kcp-attrib $-1 -1 $-1 $-1 $49 1 1021579091 1021579091 1236074497 3 #
face $85 -1 $-1 $86 $87 $12 $-1 $88 forward single #
loop $-1 -1 $-1 $89 $90 $49 #
plane-surface $-1 -1 $-1 0 10 0 0 -1 0 -10 0 0 forward_v I I I I #
coedge $-1 -1 $-1 $91 $92 $93 $94 forward $50 $-1 #
face $-1 -1 $-1 $95 $96 $36 $-1 $66 reversed single #
loop $-1 -1 $-1 $-1 $97 $52 #
cone-surface $-1 -1 $-1 -3.5527136788005009e-015 175 -8.8817841970012602e-016 0 1 0 45 0 9.9516206907013238e-015 1 I I 0 1 45 forward I I I I #
face $-1 -1 $-1 $98 $99 $38 $-1 $100 forward single #
loop $-1 -1 $-1 $101 $102 $53 #
cone-surface $-1 -1 $-1 3.5527136788005009e-015 170 3.5527136788005009e-015 0 1 0 -17.5 0 0 1 I I 0 -1 17.5 forward I I I I #
face $-1 -1 $-1 $103 $104 $40 $-1 $105 forward single #
loop $-1 -1 $-1 $106 $107 $54 #
cone-surface $-1 -1 $-1 3.5527136788005009e-015 5 3.5527136788005009e-015 0 1 0 -30 0 0 1 I I 0 -1 30 forward I I I I #
face $-1 -1 $-1 $108 $109 $42 $-1 $110 reversed single #
loop $-1 -1 $-1 $111 $112 $55 #
cone-surface $-1 -1 $-1 0 350 0 0 -1 0 -15 0 0 1 I I 0 1 15 forward I I I I #
face $-1 -1 $-1 $113 $114 $43 $-1 $115 reversed single #
loop $-1 -1 $-1 $-1 $116 $56 #
plane-surface $-1 -1 $-1 0 0 45 0 0 1 1 0 0 forward_v I I I I #
face $-1 -1 $-1 $117 $118 $45 $-1 $119 forward single #
loop $-1 -1 $-1 $120 $121 $57 #
cone-surface $-1 -1 $-1 3.5527136788005009e-015 60 3.5527136788005009e-015 0 1 0 -25 0 0 1 I I 0 -1 25 forward I I I I #
face $-1 -1 $-1 $122 $123 $47 $-1 $124 forward single #
loop $-1 -1 $-1 $125 $126 $58 #
cone-surface $-1 -1 $-1 3.5527136788005009e-015 -165 3.5527136788005009e-015 0 -1 0 -17.5 0 0 1 I I 0 -1 17.5 forward I I I I #
model_id-kcp-attrib $-1 -1 $-1 $-1 $60 1 1021579091 1021579091 1236074497 4 #
face $127 -1 $-1 $128 $129 $12 $-1 $130 forward single #
loop $-1 -1 $-1 $-1 $131 $60 #
cone-surface $-1 -1 $-1 0 367.5 0 0 -1 0 -45 0 0 1 I I 0 1 45 forward I I I I #
loop $-1 -1 $-1 $-1 $93 $49 #
coedge $-1 -1 $-1 $132 $132 $131 $133 reversed $61 $-1 #
coedge $-1 -1 $-1 $134 $63 $135 $136 reversed $50 $-1 #
coedge $-1 -1 $-1 $63 $134 $137 $138 forward $50 $-1 #
coedge $-1 -1 $-1 $139 $139 $63 $94 reversed $89 $-1 #
edge $140 -1 $-1 $141 1.2246063538223773e-016 $142 3.1415926535897931 $63 $143 forward @7 unknown #
face $-1 -1 $-1 $144 $145 $36 $-1 $66 reversed single #
loop $-1 -1 $-1 $-1 $146 $64 #
coedge $-1 -1 $-1 $147 $148 $149 $150 reversed $65 $-1 #
face $-1 -1 $-1 $151 $152 $38 $-1 $153 forward single #
loop $-1 -1 $-1 $154 $155 $67 #
cone-surface $-1 -1 $-1 -3.5527136788005009e-015 170 -8.8817841970012602e-016 0 1 0 45 0 9.9516206907013238e-015 1 I I 0 1 45 forward I I I I #
loop $-1 -1 $-1 $-1 $156 $53 #
coedge $-1 -1 $-1 $102 $102 $157 $158 forward $68 $-1 #
face $-1 -1 $-1 $159 $160 $40 $-1 $161 forward single #
loop $-1 -1 $-1 $162 $163 $70 #
cone-surface $-1 -1 $-1 -3.5527136788005009e-015 5 -8.8817841970012602e-016 0 1 0 45 0 9.9516206907013238e-015 1 I I 0 1 45 forward I I I I #
loop $-1 -1 $-1 $-1 $164 $54 #
coedge $-1 -1 $-1 $107 $107 $165 $166 forward $71 $-1 #
face $-1 -1 $-1 $-1 $167 $42 $-1 $168 forward single #
loop $-1 -1 $-1 $-1 $169 $73 #
plane-surface $-1 -1 $-1 0 0 0 0 1 0 0 0 1 forward_v I I I I #
loop $-1 -1 $-1 $-1 $170 $55 #
coedge $-1 -1 $-1 $112 $112 $169 $171 forward $74 $-1 #
face $172 -1 $-1 $173 $174 $43 $-1 $175 reversed single #
loop $-1 -1 $-1 $-1 $176 $76 #
plane-surface $-1 -1 $-1 0 0 -45 0 0 1 1 0 0 forward_v I I I I #
coedge $-1 -1 $-1 $177 $178 $179 $180 forward $77 $-1 #
face $-1 -1 $-1 $181 $182 $45 $-1 $183 forward single #
loop $-1 -1 $-1 $184 $185 $79 #
cone-surface $-1 -1 $-1 -3.5527136788005009e-015 60 -8.8817841970012602e-016 0 1 0 45 0 9.9516206907013238e-015 1 I I 0 1 45 forward I I I I #
loop $-1 -1 $-1 $-1 $186 $57 #
coedge $-1 -1 $-1 $121 $121 $187 $188 forward $80 $-1 #
face $-1 -1 $-1 $189 $190 $47 $-1 $191 reversed single #
loop $-1 -1 $-1 $192 $193 $82 #
cone-surface $-1 -1 $-1 -3.5527136788005009e-015 -165 -8.8817841970012602e-016 0 -1 0 45 0 9.9516206907013238e-015 1 I I 0 1 45 forward I I I I #
loop $-1 -1 $-1 $-1 $194 $58 #
coedge $-1 -1 $-1 $126 $126 $195 $196 forward $83 $-1 #
model_id-kcp-attrib $-1 -1 $-1 $-1 $86 1 1021579091 1021579091 1236074497 5 #
face $197 -1 $-1 $198 $199 $12 $-1 $200 reversed single #
loop $-1 -1 $-1 $-1 $201 $86 #
cone-surface $-1 -1 $-1 0 367.5 0 0 -1 0 -45 0 0 1 I I 0 1 45 forward I I I I #
coedge $-1 -1 $-1 $202 $203 $90 $133 forward $87 $-1 #
coedge $-1 -1 $-1 $90 $90 $204 $205 forward $61 $-1 #
edge $206 -1 $-1 $207 2.4931900214392467e-032 $208 3.1415926535897931 $90 $209 forward @7 unknown #
coedge $-1 -1 $-1 $92 $91 $210 $211 reversed $50 $-1 #
coedge $-1 -1 $-1 $212 $213 $91 $136 forward $214 $-1 #
edge $-1 -1 $-1 $215 0 $142 1 $91 $216 forward @7 unknown #
coedge $-1 -1 $-1 $213 $212 $92 $138 reversed $214 $-1 #
edge $-1 -1 $-1 $217 0 $141 1 $92 $218 forward @7 unknown #
coedge $-1 -1 $-1 $93 $93 $212 $219 forward $89 $-1 #
attrib_edge_convexity-kcp-attrib $-1 -1 $220 $-1 $94 2 #
vertex $-1 -1 $-1 $138 $221 #
vertex $-1 -1 $-1 $136 $222 #
ellipse-curve $-1 -1 $-1 0 10 -1.1102230246251565e-015 0 -1 0 17.5 0 1.1102230246251565e-015 1 I I #
face $-1 -1 $-1 $223 $224 $36 $-1 $66 reversed single #
loop $-1 -1 $-1 $-1 $225 $95 #
coedge $-1 -1 $-1 $226 $227 $228 $229 reversed $96 $-1 #
coedge $-1 -1 $-1 $230 $97 $231 $232 forward $65 $-1 #
coedge $-1 -1 $-1 $97 $230 $233 $234 reversed $65 $-1 #
coedge $-1 -1 $-1 $235 $236 $97 $150 forward $237 $-1 #
edge $-1 -1 $-1 $238 -3.1415926535897931 $239 -1.5707963267948963 $149 $240 forward @7 unknown #
face $-1 -1 $-1 $-1 $241 $38 $-1 $242 reversed single #
loop $-1 -1 $-1 $243 $244 $98 #
plane-surface $-1 -1 $-1 -2.9454545454545449 175.00000000000003 -1.5543122344752192e-015 0 1 0 0 0 1 forward_v I I I I #
loop $-1 -1 $-1 $-1 $245 $67 #
coedge $-1 -1 $-1 $155 $155 $244 $246 forward $99 $-1 #
coedge $-1 -1 $-1 $156 $156 $247 $248 reversed $101 $-1 #
coedge $-1 -1 $-1 $157 $157 $102 $158 reversed $243 $-1 #
edge $-1 -1 $-1 $249 -3.1415926535897931 $249 3.1415926535897931 $102 $250 forward @7 unknown #
face $-1 -1 $-1 $-1 $251 $40 $-1 $252 reversed single #
loop $-1 -1 $-1 $253 $254 $103 #
plane-surface $-1 -1 $-1 -2.4545454545454537 60 -4.4408920985006262e-016 0 1 0 0 0 1 forward_v I I I I #
loop $-1 -1 $-1 $-1 $255 $70 #
coedge $-1 -1 $-1 $163 $163 $254 $256 forward $104 $-1 #
coedge $-1 -1 $-1 $164 $164 $257 $258 reversed $106 $-1 #
coedge $-1 -1 $-1 $165 $165 $107 $166 reversed $253 $-1 #
edge $-1 -1 $-1 $259 -3.1415926535897931 $259 3.1415926535897931 $107 $260 forward @7 unknown #
loop $-1 -1 $-1 $-1 $261 $108 #
plane-surface $-1 -1 $-1 0 350 0 0 1 0 0 0 1 forward_v I I I I #
coedge $-1 -1 $-1 $169 $169 $112 $171 reversed $109 $-1 #
coedge $-1 -1 $-1 $170 $170 $261 $262 forward $111 $-1 #
edge $-1 -1 $-1 $263 0 $263 6.2831853071795862 $112 $264 forward @7 unknown #
model_id-kcp-attrib $-1 -1 $-1 $-1 $113 1 1021579091 1021579091 1236074498 3 #
face $-1 -1 $-1 $265 $266 $43 $-1 $267 reversed single #
loop $-1 -1 $-1 $-1 $268 $113 #
plane-surface $-1 -1 $-1 0 -175 0 0 1 0 0 0 1 forward_v I I I I #
coedge $-1 -1 $-1 $269 $270 $271 $272 forward $114 $-1 #
coedge $-1 -1 $-1 $273 $116 $274 $275 forward $77 $-1 #
coedge $-1 -1 $-1 $116 $273 $276 $277 forward $77 $-1 #
coedge $-1 -1 $-1 $278 $279 $116 $180 reversed $280 $-1 #
edge $-1 -1 $-1 $281 -175 $282 175 $179 $283 forward @7 unknown #
face $-1 -1 $-1 $-1 $284 $45 $-1 $285 reversed single #
loop $-1 -1 $-1 $286 $287 $117 #
plane-surface $-1 -1 $-1 -2.6298701298701288 170 0 0 1 0 0 0 1 forward_v I I I I #
loop $-1 -1 $-1 $-1 $288 $79 #
coedge $-1 -1 $-1 $185 $185 $287 $289 forward $118 $-1 #
coedge $-1 -1 $-1 $186 $186 $290 $291 reversed $120 $-1 #
coedge $-1 -1 $-1 $187 $187 $121 $188 reversed $286 $-1 #
edge $-1 -1 $-1 $292 -3.1415926535897931 $292 3.1415926535897931 $121 $293 forward @7 unknown #
face $-1 -1 $-1 $-1 $294 $47 $-1 $295 forward single #
loop $-1 -1 $-1 $296 $297 $122 #
plane-surface $-1 -1 $-1 -2.9454545454545462 -175 -1.1102230246251565e-015 0 1 0 0 0 1 forward_v I I I I #
loop $-1 -1 $-1 $-1 $298 $82 #
coedge $-1 -1 $-1 $193 $193 $297 $299 forward $123 $-1 #
coedge $-1 -1 $-1 $194 $194 $300 $301 reversed $125 $-1 #
coedge $-1 -1 $-1 $195 $195 $126 $196 reversed $296 $-1 #
edge $-1 -1 $-1 $302 -3.1415926535897931 $302 3.1415926535897931 $126 $303 forward @7 unknown #
model_id-kcp-attrib $-1 -1 $-1 $-1 $128 1 1021579091 1021579091 1236074497 6 #
face $304 -1 $-1 $305 $306 $12 $-1 $307 forward single #
loop $-1 -1 $-1 $308 $309 $128 #
plane-surface $-1 -1 $-1 0 180 0 0 -1 0 -10 0 0 forward_v I I I I #
coedge $-1 -1 $-1 $310 $311 $312 $313 forward $129 $-1 #
coedge $-1 -1 $-1 $314 $131 $310 $315 forward $87 $-1 #
coedge $-1 -1 $-1 $131 $314 $311 $316 reversed $87 $-1 #
coedge $-1 -1 $-1 $311 $310 $132 $205 reversed $129 $-1 #
edge $317 -1 $-1 $207 0 $208 3.1415926535897927 $132 $318 forward @7 unknown #
attrib_edge_convexity-kcp-attrib $-1 -1 $319 $-1 $133 1 #
vertex $-1 -1 $-1 $205 $320 #
vertex $-1 -1 $-1 $205 $321 #
ellipse-curve $-1 -1 $-1 -4.4408920985006262e-015 10 -4.4408920985006262e-015 0 1 0 45 0 9.9516206907013238e-015 1 I I #
coedge $-1 -1 $-1 $322 $322 $134 $211 forward $323 $-1 #
edge $-1 -1 $-1 $217 0 $215 3.1415926535897931 $134 $324 forward @7 unknown #
coedge $-1 -1 $-1 $137 $135 $139 $219 reversed $214 $-1 #
coedge $-1 -1 $-1 $135 $137 $322 $325 forward $214 $-1 #
loop $-1 -1 $-1 $-1 $213 $326 #
vertex $-1 -1 $-1 $211 $327 #
straight-curve $-1 -1 $-1 -17.5 0 -4.2861222383783204e-015 0 10 0 I I #
vertex $-1 -1 $-1 $138 $328 #
straight-curve $-1 -1 $-1 17.5 0 2.1430611191891602e-015 0 10 0 I I #
edge $329 -1 $-1 $141 -1.2246063538223773e-016 $142 3.1415926535897931 $139 $330 forward @7 unknown #
convexity-sys-attrib $-1 -1 $-1 $140 $94 #
point $-1 -1 $-1 17.5 10 2.1430611191891602e-015 #
point $-1 -1 $-1 -17.5 10 0 #
face $-1 -1 $-1 $331 $332 $36 $-1 $333 forward single #
loop $-1 -1 $-1 $-1 $334 $144 #
coedge $-1 -1 $-1 $335 $336 $334 $337 forward $145 $-1 #
coedge $-1 -1 $-1 $338 $146 $339 $340 reversed $96 $-1 #
coedge $-1 -1 $-1 $146 $338 $148 $234 forward $96 $-1 #
coedge $-1 -1 $-1 $341 $342 $146 $229 forward $343 $-1 #
edge $-1 -1 $-1 $344 -2.2114712646002941e-016 $345 1.5707963267948963 $228 $346 forward @7 unknown #
coedge $-1 -1 $-1 $148 $147 $347 $348 reversed $65 $-1 #
coedge $-1 -1 $-1 $336 $335 $349 $232 reversed $145 $-1 #
edge $-1 -1 $-1 $238 -350 $350 0 $349 $351 forward @7 unknown #
coedge $-1 -1 $-1 $352 $353 $354 $234 forward $355 $-1 #
edge $-1 -1 $-1 $239 -350 $345 0 $233 $356 forward @7 unknown #
coedge $-1 -1 $-1 $236 $149 $353 $357 reversed $237 $-1 #
coedge $-1 -1 $-1 $149 $235 $358 $359 forward $237 $-1 #
loop $-1 -1 $-1 $-1 $149 $360 #
vertex $-1 -1 $-1 $361 $362 #
vertex $-1 -1 $-1 $363 $364 #
ellipse-curve $-1 -1 $-1 -3.5527136788005009e-015 -175 -8.8817841970012602e-016 0 1 0 45 0 9.9516206907013238e-015 1 I I #
loop $-1 -1 $-1 $365 $366 $151 #
plane-surface $-1 -1 $-1 -2.9454545454545449 170.00000000000003 -1.5543122344752192e-015 0 1 0 0 0 1 forward_v I I I I #
loop $-1 -1 $-1 $-1 $157 $98 #
coedge $-1 -1 $-1 $244 $244 $155 $246 reversed $152 $-1 #
coedge $-1 -1 $-1 $245 $245 $366 $367 reversed $154 $-1 #
edge $-1 -1 $-1 $368 -3.1415926535897931 $368 3.1415926535897931 $155 $369 forward @7 unknown #
coedge $-1 -1 $-1 $247 $247 $156 $248 forward $365 $-1 #
edge $370 -1 $-1 $371 0 $371 6.2831853071795862 $156 $372 forward @7 unknown #
vertex $-1 -1 $-1 $158 $373 #
ellipse-curve $-1 -1 $-1 3.5527136788005009e-015 175 3.5527136788005009e-015 0 1 0 -17.5 0 0 1 I I #
loop $-1 -1 $-1 $374 $375 $159 #
plane-surface $-1 -1 $-1 -2.4545454545454537 5 -4.4408920985006262e-016 0 1 0 0 0 1 forward_v I I I I #
loop $-1 -1 $-1 $-1 $165 $103 #
coedge $-1 -1 $-1 $254 $254 $163 $256 reversed $160 $-1 #
coedge $-1 -1 $-1 $255 $255 $375 $376 reversed $162 $-1 #
edge $-1 -1 $-1 $377 -3.1415926535897931 $377 3.1415926535897931 $163 $378 forward @7 unknown #
coedge $-1 -1 $-1 $257 $257 $164 $258 forward $374 $-1 #
edge $379 -1 $-1 $380 0 $380 6.2831853071795862 $164 $381 forward @7 unknown #
vertex $-1 -1 $-1 $166 $382 #
ellipse-curve $-1 -1 $-1 3.5527136788005009e-015 60 3.5527136788005009e-015 0 1 0 -30 0 0 1 I I #
coedge $-1 -1 $-1 $261 $261 $170 $262 reversed $167 $-1 #
edge $-1 -1 $-1 $383 0 $383 6.2831853071795862 $170 $384 forward @7 unknown #
vertex $-1 -1 $-1 $171 $385 #
ellipse-curve $-1 -1 $-1 0 0 0 0 1 0 15 0 0 1 I I #
face $386 -1 $-1 $387 $388 $43 $-1 $389 reversed single #
loop $-1 -1 $-1 $-1 $390 $173 #
plane-surface $-1 -1 $-1 -45 0 0 1 0 0 0 0 -1 forward_v I I I I #
coedge $-1 -1 $-1 $391 $276 $392 $393 forward $174 $-1 #
coedge $-1 -1 $-1 $394 $176 $391 $395 forward $114 $-1 #
coedge $-1 -1 $-1 $176 $394 $396 $397 forward $114 $-1 #
coedge $-1 -1 $-1 $279 $278 $176 $272 reversed $280 $-1 #
edge $-1 -1 $-1 $398 -175 $399 175 $271 $400 forward @7 unknown #
coedge $-1 -1 $-1 $178 $177 $401 $402 forward $77 $-1 #
coedge $-1 -1 $-1 $403 $404 $177 $275 reversed $388 $-1 #
edge $-1 -1 $-1 $282 -45 $405 45 $274 $406 forward @7 unknown #
coedge $-1 -1 $-1 $268 $407 $178 $277 reversed $174 $-1 #
edge $-1 -1 $-1 $408 -45 $281 45 $276 $409 forward @7 unknown #
coedge $-1 -1 $-1 $271 $179 $407 $410 forward $280 $-1 #
coedge $-1 -1 $-1 $179 $271 $403 $411 reversed $280 $-1 #
loop $-1 -1 $-1 $-1 $278 $387 #
vertex $-1 -1 $-1 $180 $412 #
vertex $-1 -1 $-1 $180 $413 #
straight-curve $-1 -1 $-1 45 0 45 0 1 0 I I #
loop $-1 -1 $-1 $414 $415 $181 #
plane-surface $-1 -1 $-1 -2.6298701298701288 60 0 0 1 0 0 0 1 forward_v I I I I #
loop $-1 -1 $-1 $-1 $187 $117 #
coedge $-1 -1 $-1 $287 $287 $185 $289 reversed $182 $-1 #
coedge $-1 -1 $-1 $288 $288 $415 $416 reversed $184 $-1 #
edge $-1 -1 $-1 $417 -3.1415926535897931 $417 3.1415926535897931 $185 $418 forward @7 unknown #
coedge $-1 -1 $-1 $290 $290 $186 $291 forward $414 $-1 #
edge $419 -1 $-1 $420 0 $420 6.2831853071795862 $186 $421 forward @7 unknown #
vertex $-1 -1 $-1 $188 $422 #
ellipse-curve $-1 -1 $-1 3.5527136788005009e-015 170 3.5527136788005009e-015 0 1 0 -25 0 0 1 I I #
loop $-1 -1 $-1 $423 $424 $189 #
plane-surface $-1 -1 $-1 -2.9454545454545462 -165 -1.1102230246251565e-015 0 1 0 0 0 1 forward_v I I I I #
loop $-1 -1 $-1 $-1 $195 $122 #
coedge $-1 -1 $-1 $297 $297 $193 $299 reversed $190 $-1 #
coedge $-1 -1 $-1 $298 $298 $424 $425 reversed $192 $-1 #
edge $-1 -1 $-1 $426 -3.1415926535897931 $426 3.1415926535897931 $193 $427 forward @7 unknown #
coedge $-1 -1 $-1 $300 $300 $194 $301 forward $423 $-1 #
edge $428 -1 $-1 $429 0 $429 6.2831853071795862 $194 $430 forward @7 unknown #
vertex $-1 -1 $-1 $196 $431 #
ellipse-curve $-1 -1 $-1 3.5527136788005009e-015 -175 3.5527136788005009e-015 0 -1 0 -17.5 0 0 1 I I #
model_id-kcp-attrib $-1 -1 $-1 $-1 $198 1 1021579091 1021579091 1236074497 7 #
face $432 -1 $-1 $433 $434 $12 $-1 $435 forward single #
loop $-1 -1 $-1 $-1 $436 $198 #
cone-surface $-1 -1 $-1 0 367.5 0 0 -1 0 -30 0 0 1 I I 0 1 30 forward I I I I #
loop $-1 -1 $-1 $-1 $312 $128 #
coedge $-1 -1 $-1 $437 $437 $436 $438 reversed $199 $-1 #
coedge $-1 -1 $-1 $204 $201 $202 $315 reversed $129 $-1 #
coedge $-1 -1 $-1 $201 $204 $203 $316 forward $129 $-1 #
coedge $-1 -1 $-1 $439 $439 $201 $313 reversed $308 $-1 #
edge $440 -1 $-1 $441 1.224606353822377e-016 $442 3.1415926535897931 $201 $443 forward @7 unknown #
coedge $-1 -1 $-1 $203 $202 $439 $444 reversed $87 $-1 #
edge $-1 -1 $-1 $208 0 $442 17 $310 $445 forward @7 unknown #
edge $-1 -1 $-1 $207 0 $441 17 $311 $446 forward @7 unknown #
attrib_edge_convexity-kcp-attrib $-1 -1 $447 $-1 $205 1 #
ellipse-curve $-1 -1 $-1 6.6613381477509392e-015 10 -6.6613381477509392e-015 0 -1 0 44.999999999999993 0 1.2172066739951637e-014 1 I I #
convexity-sys-attrib $-1 -1 $-1 $206 $133 #
point $-1 -1 $-1 45 10 5.5107285922006977e-015 #
point $-1 -1 $-1 -45 10 0 #
coedge $-1 -1 $-1 $210 $210 $213 $325 reversed $323 $-1 #
loop $-1 -1 $-1 $448 $210 $449 #
ellipse-curve $-1 -1 $-1 0 0 -5.5511151231257827e-016 0 -1 0 17.5 0 2.6981726315017385e-015 1 I I #
edge $-1 -1 $-1 $217 0 $215 3.1415926535897931 $322 $450 forward @7 unknown #
face $451 -1 $-1 $-1 $214 $12 $-1 $452 forward single #
point $-1 -1 $-1 -17.5 0 -4.2861222383783204e-015 #
point $-1 -1 $-1 17.5 0 2.1430611191891602e-015 #
attrib_edge_convexity-kcp-attrib $-1 -1 $453 $-1 $219 2 #
ellipse-curve $-1 -1 $-1 0 10 1.1102230246251565e-015 0 1 0 17.5 0 -1.1102230246251565e-015 1 I I #
face $-1 -1 $-1 $454 $455 $36 $-1 $456 reversed single #
loop $-1 -1 $-1 $-1 $354 $223 #
plane-surface $-1 -1 $-1 0 0 45 0 0 1 1 0 0 forward_v I I I I #
coedge $-1 -1 $-1 $457 $458 $459 $337 reversed $224 $-1 #
coedge $-1 -1 $-1 $231 $225 $460 $461 reversed $145 $-1 #
coedge $-1 -1 $-1 $225 $231 $462 $463 reversed $145 $-1 #
edge $-1 -1 $-1 $464 -350 $465 0 $459 $466 forward @7 unknown #
coedge $-1 -1 $-1 $227 $226 $467 $468 reversed $96 $-1 #
coedge $-1 -1 $-1 $469 $470 $471 $340 forward $472 $-1 #
edge $-1 -1 $-1 $473 -350 $344 0 $339 $474 forward @7 unknown #
coedge $-1 -1 $-1 $342 $228 $475 $476 reversed $343 $-1 #
coedge $-1 -1 $-1 $228 $341 $469 $477 forward $343 $-1 #
loop $-1 -1 $-1 $-1 $228 $478 #
vertex $-1 -1 $-1 $479 $480 #
vertex $-1 -1 $-1 $481 $482 #
ellipse-curve $-1 -1 $-1 -3.5527136788005009e-015 175 -8.8817841970012602e-016 0 -1 0 45 0 9.9516206907013238e-015 1 I I #
coedge $-1 -1 $-1 $483 $484 $230 $348 forward $485 $-1 #
edge $-1 -1 $-1 $345 1.5707963267948963 $350 3.1415926535897931 $347 $346 forward @7 unknown #
coedge $-1 -1 $-1 $486 $487 $488 $232 forward $455 $-1 #
vertex $-1 -1 $-1 $489 $490 #
straight-curve $-1 -1 $-1 -45 175 -8.8817841970012602e-016 0 1 0 I I #
coedge $-1 -1 $-1 $491 $233 $484 $481 forward $355 $-1 #
coedge $-1 -1 $-1 $233 $491 $235 $357 forward $355 $-1 #
coedge $-1 -1 $-1 $492 $475 $227 $234 reversed $332 $-1 #
loop $-1 -1 $-1 $-1 $233 $493 #
straight-curve $-1 -1 $-1 -3.5527136788005009e-015 175 45 0 1 0 I I #
edge $-1 -1 $-1 $494 -45 $239 -3.5527136788005009e-015 $235 $495 forward @7 unknown #
coedge $-1 -1 $-1 $496 $488 $236 $359 reversed $497 $-1 #
edge $-1 -1 $-1 $494 -45 $238 8.8817841970012602e-016 $358 $498 forward @7 unknown #
face $-1 -1 $-1 $499 $237 $36 $-1 $500 reversed single #
edge $-1 -1 $-1 $238 8.8817841970012602e-016 $501 45 $487 $498 forward @7 unknown #
point $-1 -1 $-1 -45 -175 -8.8817841970012602e-016 #
edge $-1 -1 $-1 $239 -3.5527136788005009e-015 $502 45 $503 $495 forward @7 unknown #
point $-1 -1 $-1 -3.5527136788005009e-015 -175 45 #
loop $-1 -1 $-1 $-1 $247 $151 #
coedge $-1 -1 $-1 $366 $366 $245 $367 forward $241 $-1 #
edge $504 -1 $-1 $505 -3.1415926535897931 $505 3.1415926535897931 $245 $506 forward @7 unknown #
vertex $-1 -1 $-1 $246 $507 #
ellipse-curve $-1 -1 $-1 -3.5527136788005009e-015 175 -8.8817841970012602e-016 0 -1 0 45 0 9.9516206907013238e-015 1 I I #
convexity-sys-attrib $-1 -1 $-1 $-1 $248 #
vertex $-1 -1 $-1 $248 $508 #
ellipse-curve $-1 -1 $-1 3.5527136788005009e-015 170 3.5527136788005009e-015 0 1 0 -17.5 0 0 1 I I #
point $-1 -1 $-1 17.5 175 5.6957747979896611e-015 #
loop $-1 -1 $-1 $-1 $257 $159 #
coedge $-1 -1 $-1 $375 $375 $255 $376 forward $251 $-1 #
edge $509 -1 $-1 $510 -3.1415926535897931 $510 3.1415926535897931 $255 $511 forward @7 unknown #
vertex $-1 -1 $-1 $256 $512 #
ellipse-curve $-1 -1 $-1 -3.5527136788005009e-015 60 -8.8817841970012602e-016 0 -1 0 45 0 9.9516206907013238e-015 1 I I #
convexity-sys-attrib $-1 -1 $-1 $-1 $258 #
vertex $-1 -1 $-1 $258 $513 #
ellipse-curve $-1 -1 $-1 3.5527136788005009e-015 5 3.5527136788005009e-015 0 1 0 -30 0 0 1 I I #
point $-1 -1 $-1 30 60 7.2265327402676327e-015 #
vertex $-1 -1 $-1 $262 $514 #
ellipse-curve $-1 -1 $-1 0 350 0 0 -1 0 -15 0 0 1 I I #
point $-1 -1 $-1 15 0 0 #
model_id-kcp-attrib $-1 -1 $-1 $-1 $265 1 1021579091 1021579091 1236074498 2 #
face $-1 -1 $-1 $-1 $280 $43 $-1 $515 reversed single #
loop $-1 -1 $-1 $-1 $403 $265 #
plane-surface $-1 -1 $-1 0 175 0 0 -1 0 0 0 -1 forward_v I I I I #
coedge $-1 -1 $-1 $516 $401 $404 $517 forward $266 $-1 #
coedge $-1 -1 $-1 $407 $268 $269 $395 reversed $174 $-1 #
coedge $-1 -1 $-1 $401 $516 $268 $393 reversed $266 $-1 #
edge $-1 -1 $-1 $408 -45 $518 45 $392 $519 forward @7 unknown #
coedge $-1 -1 $-1 $270 $269 $516 $520 forward $114 $-1 #
edge $-1 -1 $-1 $399 -45 $518 45 $391 $521 forward @7 unknown #
coedge $-1 -1 $-1 $404 $403 $270 $397 reversed $388 $-1 #
edge $-1 -1 $-1 $522 -45 $398 45 $396 $523 forward @7 unknown #
vertex $-1 -1 $-1 $272 $524 #
vertex $-1 -1 $-1 $410 $525 #
straight-curve $-1 -1 $-1 45 0 -45 0 -1 0 I I #
coedge $-1 -1 $-1 $390 $392 $273 $402 reversed $266 $-1 #
edge $-1 -1 $-1 $405 -175 $408 175 $401 $526 forward @7 unknown #
coedge $-1 -1 $-1 $396 $274 $279 $411 forward $388 $-1 #
coedge $-1 -1 $-1 $274 $396 $390 $517 reversed $388 $-1 #
vertex $-1 -1 $-1 $275 $527 #
straight-curve $-1 -1 $-1 0 175 45 -1 0 0 I I #
coedge $-1 -1 $-1 $276 $391 $278 $410 reversed $174 $-1 #
vertex $-1 -1 $-1 $402 $528 #
straight-curve $-1 -1 $-1 0 -175 45 1 0 0 I I #
edge $-1 -1 $-1 $281 -45 $399 45 $278 $529 forward @7 unknown #
edge $-1 -1 $-1 $282 -45 $398 45 $279 $530 forward @7 unknown #
point $-1 -1 $-1 45 -175 45 #
point $-1 -1 $-1 45 175 45 #
loop $-1 -1 $-1 $-1 $290 $181 #
coedge $-1 -1 $-1 $415 $415 $288 $416 forward $284 $-1 #
edge $531 -1 $-1 $532 -3.1415926535897931 $532 3.1415926535897931 $288 $533 forward @7 unknown #
vertex $-1 -1 $-1 $289 $534 #
ellipse-curve $-1 -1 $-1 -3.5527136788005009e-015 170 -8.8817841970012602e-016 0 -1 0 45 0 9.9516206907013238e-015 1 I I #
convexity-sys-attrib $-1 -1 $-1 $-1 $291 #
vertex $-1 -1 $-1 $291 $535 #
ellipse-curve $-1 -1 $-1 3.5527136788005009e-015 60 3.5527136788005009e-015 0 1 0 -25 0 0 1 I I #
point $-1 -1 $-1 25 170 6.6142295633564441e-015 #
loop $-1 -1 $-1 $-1 $300 $189 #
coedge $-1 -1 $-1 $424 $424 $298 $425 forward $294 $-1 #
edge $536 -1 $-1 $537 -3.1415926535897931 $537 3.1415926535897931 $298 $538 forward @7 unknown #
vertex $-1 -1 $-1 $299 $539 #
ellipse-curve $-1 -1 $-1 -3.5527136788005009e-015 -175 -8.8817841970012602e-016 0 1 0 45 0 9.9516206907013238e-015 1 I I #
convexity-sys-attrib $-1 -1 $-1 $-1 $301 #
vertex $-1 -1 $-1 $301 $540 #
ellipse-curve $-1 -1 $-1 3.5527136788005009e-015 -165 3.5527136788005009e-015 0 -1 0 -17.5 0 0 1 I I #
point $-1 -1 $-1 17.5 -175 5.6957747979896611e-015 #
model_id-kcp-attrib $-1 -1 $-1 $-1 $305 1 1021579091 1021579091 1236074497 8 #
face $541 -1 $-1 $542 $543 $12 $-1 $544 reversed single #
loop $-1 -1 $-1 $-1 $545 $305 #
cone-surface $-1 -1 $-1 0 367.5 0 0 -1 0 -30 0 0 1 I I 0 1 30 forward I I I I #
coedge $-1 -1 $-1 $546 $547 $309 $438 forward $306 $-1 #
coedge $-1 -1 $-1 $309 $309 $548 $549 forward $199 $-1 #
edge $550 -1 $-1 $551 0 $552 3.1415926535897931 $309 $553 forward @7 unknown #
coedge $-1 -1 $-1 $312 $312 $314 $444 forward $308 $-1 #
attrib_edge_convexity-kcp-attrib $-1 -1 $554 $-1 $313 1 #
vertex $-1 -1 $-1 $316 $555 #
vertex $-1 -1 $-1 $315 $556 #
ellipse-curve $-1 -1 $-1 -4.4408920985006262e-015 180 2.2204460492503131e-015 0 -1 0 45 0 -2.2204460492503131e-015 1 I I #
edge $557 -1 $-1 $441 -1.224606353822377e-016 $442 3.1415926535897931 $439 $558 forward @7 unknown #
straight-curve $-1 -1 $-1 -45 10 -1.1021457184401395e-014 0 10 0 I I #
straight-curve $-1 -1 $-1 45 10 5.5107285922006977e-015 0 10 0 I I #
convexity-sys-attrib $-1 -1 $-1 $317 $205 #
loop $-1 -1 $-1 $-1 $559 $449 #
face $560 -1 $-1 $326 $323 $12 $-1 $561 forward single #
ellipse-curve $-1 -1 $-1 0 0 5.5511151231257827e-016 0 1 0 17.5 0 1.5879496068765819e-015 1 I I #
model_id-kcp-attrib $-1 -1 $-1 $-1 $326 1 1021579091 1021579091 1236074497 19 #
cone-surface $-1 -1 $-1 0 367.5 0 0 -1 0 -17.5 0 0 1 I I 0 1 17.5 forward I I I I #
convexity-sys-attrib $-1 -1 $-1 $329 $219 #
face $-1 -1 $-1 $562 $563 $36 $-1 $564 reversed single #
loop $-1 -1 $-1 $-1 $349 $331 #
plane-surface $-1 -1 $-1 -45 0 0 1 0 0 0 0 -1 forward_v I I I I #
coedge $-1 -1 $-1 $565 $334 $566 $567 reversed $224 $-1 #
coedge $-1 -1 $-1 $334 $565 $568 $569 reversed $224 $-1 #
coedge $-1 -1 $-1 $570 $571 $572 $337 forward $573 $-1 #
coedge $-1 -1 $-1 $574 $575 $335 $461 forward $576 $-1 #
edge $-1 -1 $-1 $350 -3.1415926535897931 $465 -1.5707963267948968 $460 $346 forward @7 unknown #
coedge $-1 -1 $-1 $577 $578 $336 $463 forward $579 $-1 #
edge $-1 -1 $-1 $464 1.5707963267948968 $238 3.1415926535897931 $462 $240 forward @7 unknown #
vertex $-1 -1 $-1 $580 $581 #
vertex $-1 -1 $-1 $582 $583 #
straight-curve $-1 -1 $-1 -3.5527136788005009e-015 175 -45 0 1 0 I I #
coedge $-1 -1 $-1 $584 $503 $338 $468 forward $585 $-1 #
edge $-1 -1 $-1 $239 -1.5707963267948963 $473 2.2114712646002941e-016 $467 $240 forward @7 unknown #
coedge $-1 -1 $-1 $586 $339 $342 $477 reversed $472 $-1 #
coedge $-1 -1 $-1 $339 $586 $584 $587 forward $472 $-1 #
coedge $-1 -1 $-1 $588 $589 $565 $340 reversed $563 $-1 #
loop $-1 -1 $-1 $-1 $339 $590 #
vertex $-1 -1 $-1 $591 $592 #
straight-curve $-1 -1 $-1 45 175 -8.8817841970012602e-016 0 1 0 I I #
coedge $-1 -1 $-1 $354 $593 $341 $476 forward $332 $-1 #
edge $-1 -1 $-1 $594 -45 $345 3.5527136788005009e-015 $341 $595 forward @7 unknown #
edge $-1 -1 $-1 $594 -45 $344 8.8817841970012602e-016 $469 $596 forward @7 unknown #
face $-1 -1 $-1 $597 $343 $36 $-1 $598 reversed single #
edge $-1 -1 $-1 $344 8.8817841970012602e-016 $599 45 $589 $596 forward @7 unknown #
point $-1 -1 $-1 45 175 -8.8817841970012602e-016 #
edge $-1 -1 $-1 $345 3.5527136788005009e-015 $600 45 $484 $595 forward @7 unknown #
point $-1 -1 $-1 -3.5527136788005009e-015 175 45 #
coedge $-1 -1 $-1 $484 $347 $601 $602 reversed $485 $-1 #
coedge $-1 -1 $-1 $347 $483 $352 $481 reversed $485 $-1 #
loop $-1 -1 $-1 $-1 $347 $597 #
coedge $-1 -1 $-1 $603 $349 $575 $489 forward $455 $-1 #
coedge $-1 -1 $-1 $349 $603 $577 $361 reversed $455 $-1 #
coedge $-1 -1 $-1 $358 $601 $147 $232 reversed $497 $-1 #
edge $-1 -1 $-1 $350 8.8817841970012602e-016 $604 45 $575 $605 forward @7 unknown #
point $-1 -1 $-1 -45 175 -8.8817841970012602e-016 #
coedge $-1 -1 $-1 $353 $352 $496 $606 forward $355 $-1 #
coedge $-1 -1 $-1 $593 $354 $503 $363 forward $332 $-1 #
face $-1 -1 $-1 $607 $355 $36 $-1 $333 forward single #
vertex $-1 -1 $-1 $606 $608 #
straight-curve $-1 -1 $-1 0 -175 45 1 0 0 I I #
coedge $-1 -1 $-1 $601 $358 $491 $606 reversed $497 $-1 #
loop $-1 -1 $-1 $-1 $488 $609 #
straight-curve $-1 -1 $-1 -45 -175 0 0 0 -1 I I #
face $-1 -1 $-1 $610 $585 $36 $-1 $500 reversed single #
plane-surface $-1 -1 $-1 0 -175 0 0 1 0 0 0 1 forward_v I I I I #
vertex $-1 -1 $-1 $611 $612 #
vertex $-1 -1 $-1 $613 $614 #
coedge $-1 -1 $-1 $467 $584 $492 $363 reversed $585 $-1 #
convexity-sys-attrib $-1 -1 $-1 $-1 $367 #
vertex $-1 -1 $-1 $367 $615 #
ellipse-curve $-1 -1 $-1 -3.5527136788005009e-015 170 -8.8817841970012602e-016 0 -1 0 45 0 9.9516206907013238e-015 1 I I #
point $-1 -1 $-1 -45 175 -1.6350527702602147e-014 #
point $-1 -1 $-1 -17.499999999999996 170 3.5527136788005009e-015 #
convexity-sys-attrib $-1 -1 $-1 $-1 $376 #
vertex $-1 -1 $-1 $376 $616 #
ellipse-curve $-1 -1 $-1 -3.5527136788005009e-015 5 -8.8817841970012602e-016 0 -1 0 45 0 9.9516206907013238e-015 1 I I #
point $-1 -1 $-1 -45 60 -1.6350527702602147e-014 #
point $-1 -1 $-1 -29.999999999999996 5 3.5527136788005009e-015 #
point $-1 -1 $-1 -15 350 0 #
plane-surface $-1 -1 $-1 45 0 0 -1 0 0 0 0 1 forward_v I I I I #
coedge $-1 -1 $-1 $392 $390 $394 $520 reversed $266 $-1 #
edge $-1 -1 $-1 $405 -45 $522 45 $404 $617 forward @7 unknown #
vertex $-1 -1 $-1 $520 $618 #
straight-curve $-1 -1 $-1 -45 -175 0 0 0 -1 I I #
edge $-1 -1 $-1 $518 -175 $522 175 $516 $619 forward @7 unknown #
straight-curve $-1 -1 $-1 0 -175 -45 -1 0 0 I I #
vertex $-1 -1 $-1 $397 $620 #
straight-curve $-1 -1 $-1 0 175 -45 1 0 0 I I #
point $-1 -1 $-1 45 175 -45 #
point $-1 -1 $-1 45 -175 -45 #
straight-curve $-1 -1 $-1 -45 0 45 0 -1 0 I I #
point $-1 -1 $-1 -45 175 45 #
point $-1 -1 $-1 -45 -175 45 #
straight-curve $-1 -1 $-1 45 -175 0 0 0 -1 I I #
straight-curve $-1 -1 $-1 45 175 0 0 0 -1 I I #
convexity-sys-attrib $-1 -1 $-1 $-1 $416 #
vertex $-1 -1 $-1 $416 $621 #
ellipse-curve $-1 -1 $-1 -3.5527136788005009e-015 60 -8.8817841970012602e-016 0 -1 0 45 0 9.9516206907013238e-015 1 I I #
point $-1 -1 $-1 -45 170 -1.6350527702602147e-014 #
point $-1 -1 $-1 -24.999999999999996 60 3.5527136788005009e-015 #
convexity-sys-attrib $-1 -1 $-1 $-1 $425 #
vertex $-1 -1 $-1 $425 $622 #
ellipse-curve $-1 -1 $-1 -3.5527136788005009e-015 -165 -8.8817841970012602e-016 0 1 0 45 0 9.9516206907013238e-015 1 I I #
point $-1 -1 $-1 -45 -175 -5.3290705182007514e-015 #
point $-1 -1 $-1 -17.499999999999996 -165 3.5527136788005009e-015 #
model_id-kcp-attrib $-1 -1 $-1 $-1 $433 1 1021579091 1021579091 1236074497 9 #
face $623 -1 $-1 $624 $625 $12 $-1 $626 forward single #
loop $-1 -1 $-1 $627 $628 $433 #
plane-surface $-1 -1 $-1 0 235 0 0 -1 0 -10 0 0 forward_v I I I I #
coedge $-1 -1 $-1 $629 $630 $631 $632 forward $434 $-1 #
coedge $-1 -1 $-1 $633 $436 $629 $634 forward $306 $-1 #
coedge $-1 -1 $-1 $436 $633 $630 $635 reversed $306 $-1 #
coedge $-1 -1 $-1 $630 $629 $437 $549 reversed $434 $-1 #
edge $636 -1 $-1 $551 0 $552 3.1415926535897927 $437 $637 forward @7 unknown #
attrib_edge_convexity-kcp-attrib $-1 -1 $638 $-1 $438 2 #
vertex $-1 -1 $-1 $549 $639 #
vertex $-1 -1 $-1 $549 $640 #
ellipse-curve $-1 -1 $-1 -1.1102230246251565e-015 180 2.2204460492503131e-015 0 1 0 30 0 1.4533730122168187e-015 1 I I #
convexity-sys-attrib $-1 -1 $-1 $440 $313 #
point $-1 -1 $-1 45 180 5.5107285922006977e-015 #
point $-1 -1 $-1 -45 180 0 #
attrib_edge_convexity-kcp-attrib $-1 -1 $641 $-1 $444 1 #
ellipse-curve $-1 -1 $-1 -4.4408920985006262e-015 180 -2.2204460492503131e-015 0 1 0 45 0 2.2204460492503131e-015 1 I I #
coedge $-1 -1 $-1 $642 $642 $643 $644 reversed $448 $-1 #
model_id-kcp-attrib $-1 -1 $-1 $-1 $449 1 1021579091 1021579091 1236074497 18 #
plane-surface $-1 -1 $-1 0 0 0 0 -1 0 -10 0 0 forward_v I I I I #
face $-1 -1 $-1 $478 $645 $36 $-1 $598 reversed single #
loop $-1 -1 $-1 $-1 $471 $454 #
plane-surface $-1 -1 $-1 45 0 0 -1 0 0 0 0 1 forward_v I I I I #
coedge $-1 -1 $-1 $458 $457 $226 $340 forward $224 $-1 #
coedge $-1 -1 $-1 $646 $647 $457 $567 forward $648 $-1 #
edge $-1 -1 $-1 $473 2.2114712646002941e-016 $464 1.5707963267948968 $566 $240 forward @7 unknown #
coedge $-1 -1 $-1 $649 $650 $458 $569 forward $645 $-1 #
edge $-1 -1 $-1 $465 -1.5707963267948968 $344 -2.2114712646002941e-016 $568 $346 forward @7 unknown #
coedge $-1 -1 $-1 $651 $459 $650 $582 forward $573 $-1 #
coedge $-1 -1 $-1 $459 $651 $646 $652 forward $573 $-1 #
coedge $-1 -1 $-1 $653 $654 $225 $337 reversed $655 $-1 #
loop $-1 -1 $-1 $-1 $459 $607 #
coedge $-1 -1 $-1 $575 $460 $654 $656 reversed $576 $-1 #
coedge $-1 -1 $-1 $460 $574 $486 $489 reversed $576 $-1 #
loop $-1 -1 $-1 $-1 $460 $657 #
coedge $-1 -1 $-1 $578 $462 $487 $361 forward $579 $-1 #
coedge $-1 -1 $-1 $462 $577 $653 $580 reversed $579 $-1 #
loop $-1 -1 $-1 $-1 $462 $658 #
edge $-1 -1 $-1 $464 3.5527136788005009e-015 $501 45 $578 $659 forward @7 unknown #
point $-1 -1 $-1 -3.5527136788005009e-015 -175 -45 #
edge $-1 -1 $-1 $465 -3.5527136788005009e-015 $599 45 $650 $660 forward @7 unknown #
point $-1 -1 $-1 -3.5527136788005009e-015 175 -45 #
coedge $-1 -1 $-1 $503 $467 $470 $587 reversed $585 $-1 #
loop $-1 -1 $-1 $-1 $467 $499 #
coedge $-1 -1 $-1 $470 $469 $593 $613 reversed $472 $-1 #
edge $-1 -1 $-1 $502 -45 $473 8.8817841970012602e-016 $470 $661 forward @7 unknown #
coedge $-1 -1 $-1 $662 $471 $647 $591 forward $563 $-1 #
coedge $-1 -1 $-1 $471 $662 $649 $479 reversed $563 $-1 #
face $-1 -1 $-1 $-1 $472 $36 $-1 $564 reversed single #
edge $-1 -1 $-1 $473 8.8817841970012602e-016 $663 45 $588 $661 forward @7 unknown #
point $-1 -1 $-1 45 -175 -8.8817841970012602e-016 #
coedge $-1 -1 $-1 $475 $492 $586 $613 forward $332 $-1 #
vertex $-1 -1 $-1 $613 $664 #
straight-curve $-1 -1 $-1 0 175 45 -1 0 0 I I #
straight-curve $-1 -1 $-1 45 175 0 0 0 -1 I I #
face $-1 -1 $-1 $657 $485 $36 $-1 $598 reversed single #
plane-surface $-1 -1 $-1 0 175 0 0 -1 0 0 0 -1 forward_v I I I I #
vertex $-1 -1 $-1 $665 $666 #
vertex $-1 -1 $-1 $481 $667 #
coedge $-1 -1 $-1 $488 $496 $483 $602 forward $497 $-1 #
edge $-1 -1 $-1 $600 -45 $350 8.8817841970012602e-016 $483 $605 forward @7 unknown #
coedge $-1 -1 $-1 $487 $486 $668 $611 reversed $455 $-1 #
vertex $-1 -1 $-1 $656 $669 #
straight-curve $-1 -1 $-1 -45 175 0 0 0 -1 I I #
edge $-1 -1 $-1 $600 -175 $494 175 $496 $670 forward @7 unknown #
face $-1 -1 $-1 $609 $573 $36 $-1 $671 reversed single #
point $-1 -1 $-1 -45 -175 45 #
face $-1 -1 $-1 $590 $497 $36 $-1 $456 reversed single #
face $-1 -1 $-1 $672 $648 $36 $-1 $500 reversed single #
edge $-1 -1 $-1 $501 -175 $604 175 $603 $673 forward @7 unknown #
point $-1 -1 $-1 -45 -175 -45 #
edge $-1 -1 $-1 $502 -175 $594 175 $586 $674 forward @7 unknown #
point $-1 -1 $-1 45 -175 45 #
point $-1 -1 $-1 -45 170 -1.6350527702602147e-014 #
point $-1 -1 $-1 -45 5 -1.6350527702602147e-014 #
straight-curve $-1 -1 $-1 -45 175 0 0 0 -1 I I #
point $-1 -1 $-1 -45 -175 -45 #
straight-curve $-1 -1 $-1 -45 0 -45 0 1 0 I I #
point $-1 -1 $-1 -45 175 -45 #
point $-1 -1 $-1 -45 60 -1.6350527702602147e-014 #
point $-1 -1 $-1 -45 -165 -5.3290705182007514e-015 #
model_id-kcp-attrib $-1 -1 $-1 $-1 $542 1 1021579091 1021579091 1236074497 10 #
face $675 -1 $-1 $676 $677 $12 $-1 $678 forward single #
loop $-1 -1 $-1 $-1 $679 $542 #
cone-surface $-1 -1 $-1 0 367.5 0 0 -1 0 -25 0 0 1 I I 0 1 25 forward I I I I #
loop $-1 -1 $-1 $-1 $631 $433 #
coedge $-1 -1 $-1 $680 $680 $679 $681 reversed $543 $-1 #
coedge $-1 -1 $-1 $548 $545 $546 $634 reversed $434 $-1 #
coedge $-1 -1 $-1 $545 $548 $547 $635 forward $434 $-1 #
coedge $-1 -1 $-1 $682 $682 $545 $632 reversed $627 $-1 #
edge $683 -1 $-1 $684 1.2246063538223775e-016 $685 3.1415926535897931 $545 $686 forward @7 unknown #
coedge $-1 -1 $-1 $547 $546 $682 $687 reversed $306 $-1 #
edge $-1 -1 $-1 $552 0 $685 5.5 $629 $688 forward @7 unknown #
edge $-1 -1 $-1 $551 0 $684 5.5 $630 $689 forward @7 unknown #
attrib_edge_convexity-kcp-attrib $-1 -1 $690 $-1 $549 2 #
ellipse-curve $-1 -1 $-1 1.1102230246251565e-015 180 -4.4408920985006262e-015 0 -1 0 30 0 8.1147111599677579e-015 1 I I #
convexity-sys-attrib $-1 -1 $-1 $550 $438 #
point $-1 -1 $-1 30 180 3.6738190614671318e-015 #
point $-1 -1 $-1 -30 180 0 #
convexity-sys-attrib $-1 -1 $-1 $557 $444 #
coedge $-1 -1 $-1 $559 $559 $691 $692 reversed $448 $-1 #
coedge $-1 -1 $-1 $693 $694 $559 $644 forward $695 $-1 #
edge $-1 -1 $-1 $696 0 $697 3.1415926535897931 $559 $698 forward @7 unknown #
loop $-1 -1 $-1 $-1 $568 $562 #
coedge $-1 -1 $-1 $647 $566 $571 $652 reversed $648 $-1 #
coedge $-1 -1 $-1 $566 $646 $588 $591 reversed $648 $-1 #
loop $-1 -1 $-1 $-1 $566 $610 #
coedge $-1 -1 $-1 $650 $568 $589 $479 forward $645 $-1 #
coedge $-1 -1 $-1 $568 $649 $570 $582 reversed $645 $-1 #
coedge $-1 -1 $-1 $571 $570 $662 $665 forward $573 $-1 #
edge $-1 -1 $-1 $663 -45 $464 3.5527136788005009e-015 $646 $659 forward @7 unknown #
coedge $-1 -1 $-1 $668 $572 $578 $580 forward $655 $-1 #
coedge $-1 -1 $-1 $572 $668 $574 $656 forward $655 $-1 #
loop $-1 -1 $-1 $-1 $572 $672 #
edge $-1 -1 $-1 $604 -45 $465 -3.5527136788005009e-015 $574 $660 forward @7 unknown #
face $-1 -1 $-1 $658 $576 $36 $-1 $598 reversed single #
face $-1 -1 $-1 $360 $579 $36 $-1 $500 reversed single #
straight-curve $-1 -1 $-1 0 -175 -45 -1 0 0 I I #
straight-curve $-1 -1 $-1 0 175 -45 1 0 0 I I #
straight-curve $-1 -1 $-1 45 -175 0 0 0 -1 I I #
coedge $-1 -1 $-1 $589 $588 $651 $665 reversed $563 $-1 #
vertex $-1 -1 $-1 $591 $699 #
point $-1 -1 $-1 45 175 45 #
edge $-1 -1 $-1 $599 -175 $663 175 $662 $700 forward @7 unknown #
point $-1 -1 $-1 45 175 -45 #
point $-1 -1 $-1 -45 175 45 #
coedge $-1 -1 $-1 $654 $653 $603 $611 forward $655 $-1 #
point $-1 -1 $-1 -45 175 -45 #
straight-curve $-1 -1 $-1 -45 0 45 0 -1 0 I I #
plane-surface $-1 -1 $-1 0 0 -45 0 0 1 1 0 0 forward_v I I I I #
face $-1 -1 $-1 $493 $655 $36 $-1 $671 reversed single #
straight-curve $-1 -1 $-1 -45 0 -45 0 1 0 I I #
straight-curve $-1 -1 $-1 45 0 45 0 1 0 I I #
model_id-kcp-attrib $-1 -1 $-1 $-1 $624 1 1021579091 1021579091 1236074497 11 #
face $701 -1 $-1 $702 $703 $12 $-1 $704 reversed single #
loop $-1 -1 $-1 $-1 $705 $624 #
cone-surface $-1 -1 $-1 0 367.5 0 0 -1 0 -25 0 0 1 I I 0 1 25 forward I I I I #
coedge $-1 -1 $-1 $706 $707 $628 $681 forward $625 $-1 #
coedge $-1 -1 $-1 $628 $628 $708 $709 forward $543 $-1 #
edge $710 -1 $-1 $711 0 $712 3.1415926535897931 $628 $713 forward @7 unknown #
coedge $-1 -1 $-1 $631 $631 $633 $687 forward $627 $-1 #
attrib_edge_convexity-kcp-attrib $-1 -1 $714 $-1 $632 1 #
vertex $-1 -1 $-1 $635 $715 #
vertex $-1 -1 $-1 $634 $716 #
ellipse-curve $-1 -1 $-1 2.2204460492503131e-015 235 -3.3306690738754696e-015 0 -1 0 30 0 3.3306690738754696e-015 1 I I #
edge $717 -1 $-1 $684 -1.2246063538223773e-016 $685 3.1415926535897931 $682 $718 forward @7 unknown #
straight-curve $-1 -1 $-1 -30 180 -7.3476381229342635e-015 0 10 0 I I #
straight-curve $-1 -1 $-1 30 180 3.6738190614671318e-015 0 10 0 I I #
convexity-sys-attrib $-1 -1 $-1 $636 $549 #
coedge $-1 -1 $-1 $719 $720 $642 $692 forward $721 $-1 #
edge $-1 -1 $-1 $697 0 $696 3.1415926535897931 $642 $722 forward @7 unknown #
coedge $-1 -1 $-1 $723 $643 $720 $724 reversed $695 $-1 #
coedge $-1 -1 $-1 $643 $723 $719 $725 forward $695 $-1 #
loop $-1 -1 $-1 $-1 $694 $726 #
vertex $-1 -1 $-1 $692 $727 #
vertex $-1 -1 $-1 $692 $728 #
ellipse-curve $-1 -1 $-1 0 0 0 0 -1 0 -15 0 0 1 I I #
point $-1 -1 $-1 45 -175 -45 #
straight-curve $-1 -1 $-1 45 0 -45 0 -1 0 I I #
model_id-kcp-attrib $-1 -1 $-1 $-1 $676 1 1021579091 1021579091 1236074497 12 #
face $729 -1 $-1 $730 $731 $12 $-1 $732 forward single #
loop $-1 -1 $-1 $733 $734 $676 #
plane-surface $-1 -1 $-1 0 345 0 0 -1 0 -10 0 0 forward_v I I I I #
coedge $-1 -1 $-1 $735 $736 $737 $738 forward $677 $-1 #
coedge $-1 -1 $-1 $739 $679 $735 $740 forward $625 $-1 #
coedge $-1 -1 $-1 $679 $739 $736 $741 reversed $625 $-1 #
coedge $-1 -1 $-1 $736 $735 $680 $709 reversed $677 $-1 #
edge $742 -1 $-1 $711 0 $712 3.1415926535897931 $680 $743 forward @7 unknown #
attrib_edge_convexity-kcp-attrib $-1 -1 $744 $-1 $681 2 #
vertex $-1 -1 $-1 $709 $745 #
vertex $-1 -1 $-1 $709 $746 #
ellipse-curve $-1 -1 $-1 0 235 -1.1102230246251565e-015 0 1 0 25 0 4.1717389091810997e-015 1 I I #
convexity-sys-attrib $-1 -1 $-1 $683 $632 #
point $-1 -1 $-1 30 235 3.6738190614671318e-015 #
point $-1 -1 $-1 -30 235 0 #
attrib_edge_convexity-kcp-attrib $-1 -1 $747 $-1 $687 1 #
ellipse-curve $-1 -1 $-1 2.2204460492503131e-015 235 3.3306690738754696e-015 0 1 0 30 0 -3.3306690738754696e-015 1 I I #
coedge $-1 -1 $-1 $748 $691 $694 $725 reversed $721 $-1 #
coedge $-1 -1 $-1 $691 $748 $693 $724 forward $721 $-1 #
loop $-1 -1 $-1 $-1 $720 $749 #
ellipse-curve $-1 -1 $-1 0 0 0 0 -1 0 15 0 0 1 I I #
coedge $-1 -1 $-1 $694 $693 $750 $751 reversed $695 $-1 #
edge $-1 -1 $-1 $752 0 $697 35 $720 $753 forward @7 unknown #
edge $-1 -1 $-1 $754 0 $696 35 $719 $755 forward @7 unknown #
face $756 -1 $-1 $749 $695 $12 $-1 $757 reversed single #
point $-1 -1 $-1 -15 0 0 #
point $-1 -1 $-1 15 0 0 #
model_id-kcp-attrib $-1 -1 $-1 $-1 $702 1 1021579091 1021579091 1236074497 13 #
face $758 -1 $-1 $759 $760 $12 $-1 $761 forward single #
loop $-1 -1 $-1 $-1 $762 $702 #
cone-surface $-1 -1 $-1 0 367.5 0 0 -1 0 -17.5 0 0 1 I I 0 1 17.5 forward I I I I #
loop $-1 -1 $-1 $-1 $737 $676 #
coedge $-1 -1 $-1 $763 $763 $762 $764 reversed $703 $-1 #
coedge $-1 -1 $-1 $708 $705 $706 $740 reversed $677 $-1 #
coedge $-1 -1 $-1 $705 $708 $707 $741 forward $677 $-1 #
coedge $-1 -1 $-1 $765 $765 $705 $738 reversed $733 $-1 #
edge $766 -1 $-1 $767 1.2246063538223773e-016 $768 3.1415926535897931 $705 $769 forward @7 unknown #
coedge $-1 -1 $-1 $707 $706 $765 $770 reversed $625 $-1 #
edge $-1 -1 $-1 $712 0 $768 11 $735 $771 forward @7 unknown #
edge $-1 -1 $-1 $711 0 $767 11 $736 $772 forward @7 unknown #
attrib_edge_convexity-kcp-attrib $-1 -1 $773 $-1 $709 2 #
ellipse-curve $-1 -1 $-1 0 235 0 0 -1 0 25 0 3.0615158845559431e-015 1 I I #
convexity-sys-attrib $-1 -1 $-1 $710 $681 #
point $-1 -1 $-1 25 235 3.0615158845559431e-015 #
point $-1 -1 $-1 -25 235 0 #
convexity-sys-attrib $-1 -1 $-1 $717 $687 #
coedge $-1 -1 $-1 $720 $719 $774 $775 reversed $721 $-1 #
face $776 -1 $-1 $449 $721 $12 $-1 $777 reversed single #
coedge $-1 -1 $-1 $774 $774 $723 $751 forward $778 $-1 #
edge $779 -1 $-1 $754 0 $752 3.1415926535897931 $750 $780 forward @7 unknown #
vertex $-1 -1 $-1 $775 $781 #
straight-curve $-1 -1 $-1 15 350 0 0 -10 0 I I #
vertex $-1 -1 $-1 $775 $782 #
straight-curve $-1 -1 $-1 -15 350 1.8369095307335659e-015 0 -10 0 I I #
model_id-kcp-attrib $-1 -1 $-1 $-1 $726 1 1021579091 1021579091 1236074497 16 #
cone-surface $-1 -1 $-1 0 350 0 0 -1 0 15 0 0 1 I I 0 1 15 forward I I I I #
model_id-kcp-attrib $-1 -1 $-1 $-1 $730 1 1021579091 1021579091 1236074497 14 #
face $783 -1 $-1 $726 $784 $12 $-1 $785 reversed single #
loop $-1 -1 $-1 $-1 $786 $730 #
cone-surface $-1 -1 $-1 0 367.5 0 0 -1 0 -17.5 0 0 1 I I 0 1 17.5 forward I I I I #
coedge $-1 -1 $-1 $787 $788 $734 $764 forward $731 $-1 #
coedge $-1 -1 $-1 $734 $734 $789 $790 forward $703 $-1 #
edge $791 -1 $-1 $792 0 $793 3.1415926535897931 $734 $794 forward @7 unknown #
coedge $-1 -1 $-1 $737 $737 $739 $770 forward $733 $-1 #
attrib_edge_convexity-kcp-attrib $-1 -1 $795 $-1 $738 1 #
vertex $-1 -1 $-1 $741 $796 #
vertex $-1 -1 $-1 $740 $797 #
ellipse-curve $-1 -1 $-1 0 345 0 0 -1 0 25 0 0 1 I I #
edge $798 -1 $-1 $767 -1.2246063538223773e-016 $768 3.1415926535897931 $765 $799 forward @7 unknown #
straight-curve $-1 -1 $-1 -25 235 -6.1230317691118863e-015 0 10 0 I I #
straight-curve $-1 -1 $-1 25 235 3.0615158845559431e-015 0 10 0 I I #
convexity-sys-attrib $-1 -1 $-1 $742 $709 #
coedge $-1 -1 $-1 $750 $750 $748 $775 forward $778 $-1 #
edge $800 -1 $-1 $752 0 $754 3.1415926535897931 $774 $801 forward @7 unknown #
model_id-kcp-attrib $-1 -1 $-1 $-1 $749 1 1021579091 1021579091 1236074497 17 #
cone-surface $-1 -1 $-1 0 350 0 0 -1 0 15 0 0 1 I I 0 1 15 forward I I I I #
loop $-1 -1 $-1 $-1 $750 $759 #
attrib_edge_convexity-kcp-attrib $-1 -1 $802 $-1 $751 1 #
ellipse-curve $-1 -1 $-1 0 350 0 0 -1 0 -15 0 0 1 I I #
point $-1 -1 $-1 15 350 0 #
point $-1 -1 $-1 -15 350 0 #
model_id-kcp-attrib $-1 -1 $-1 $-1 $759 1 1021579091 1021579091 1236074497 15 #
loop $-1 -1 $-1 $778 $803 $759 #
plane-surface $-1 -1 $-1 0 350 0 0 -1 0 -10 0 0 forward_v I I I I #
coedge $-1 -1 $-1 $804 $805 $803 $806 forward $760 $-1 #
coedge $-1 -1 $-1 $807 $762 $804 $808 forward $731 $-1 #
coedge $-1 -1 $-1 $762 $807 $805 $809 reversed $731 $-1 #
coedge $-1 -1 $-1 $805 $804 $763 $790 reversed $760 $-1 #
edge $810 -1 $-1 $792 0 $793 3.1415926535897931 $763 $811 forward @7 unknown #
attrib_edge_convexity-kcp-attrib $-1 -1 $812 $-1 $764 2 #
vertex $-1 -1 $-1 $790 $813 #
vertex $-1 -1 $-1 $790 $814 #
ellipse-curve $-1 -1 $-1 0 345 5.5511151231257827e-016 0 1 0 17.5 0 1.5879496068765819e-015 1 I I #
convexity-sys-attrib $-1 -1 $-1 $766 $738 #
point $-1 -1 $-1 25 345 3.0615158845559431e-015 #
point $-1 -1 $-1 -25 345 0 #
attrib_edge_convexity-kcp-attrib $-1 -1 $815 $-1 $770 1 #
ellipse-curve $-1 -1 $-1 0 345 0 0 1 0 25 0 0 1 I I #
attrib_edge_convexity-kcp-attrib $-1 -1 $816 $-1 $775 1 #
ellipse-curve $-1 -1 $-1 0 350 0 0 -1 0 15 0 0 1 I I #
convexity-sys-attrib $-1 -1 $-1 $779 $751 #
coedge $-1 -1 $-1 $817 $817 $786 $806 reversed $784 $-1 #
coedge $-1 -1 $-1 $789 $786 $787 $808 reversed $760 $-1 #
coedge $-1 -1 $-1 $786 $789 $788 $809 forward $760 $-1 #
edge $818 -1 $-1 $819 1.2246063538223773e-016 $820 3.1415926535897931 $786 $821 forward @7 unknown #
coedge $-1 -1 $-1 $788 $787 $817 $822 reversed $731 $-1 #
edge $-1 -1 $-1 $793 0 $820 0.5 $804 $823 forward @7 unknown #
edge $-1 -1 $-1 $792 0 $819 0.5 $805 $824 forward @7 unknown #
attrib_edge_convexity-kcp-attrib $-1 -1 $825 $-1 $790 2 #
ellipse-curve $-1 -1 $-1 0 345 -5.5511151231257827e-016 0 -1 0 17.5 0 2.6981726315017385e-015 1 I I #
convexity-sys-attrib $-1 -1 $-1 $791 $764 #
point $-1 -1 $-1 17.5 345 2.1430611191891602e-015 #
point $-1 -1 $-1 -17.5 345 0 #
convexity-sys-attrib $-1 -1 $-1 $798 $770 #
convexity-sys-attrib $-1 -1 $-1 $800 $775 #
coedge $-1 -1 $-1 $803 $803 $807 $822 forward $784 $-1 #
attrib_edge_convexity-kcp-attrib $-1 -1 $826 $-1 $806 1 #
vertex $-1 -1 $-1 $809 $827 #
vertex $-1 -1 $-1 $808 $828 #
ellipse-curve $-1 -1 $-1 0 350 -1.1102230246251565e-015 0 -1 0 17.5 0 1.1102230246251565e-015 1 I I #
edge $829 -1 $-1 $819 -1.2246063538223773e-016 $820 3.1415926535897931 $817 $830 forward @7 unknown #
straight-curve $-1 -1 $-1 -17.5 345 -4.2861222383783204e-015 0 10 0 I I #
straight-curve $-1 -1 $-1 17.5 345 2.1430611191891602e-015 0 10 0 I I #
convexity-sys-attrib $-1 -1 $-1 $810 $790 #
convexity-sys-attrib $-1 -1 $-1 $818 $806 #
point $-1 -1 $-1 17.5 350 2.1430611191891602e-015 #
point $-1 -1 $-1 -17.5 350 0 #
attrib_edge_convexity-kcp-attrib $-1 -1 $831 $-1 $822 1 #
ellipse-curve $-1 -1 $-1 0 350 1.1102230246251565e-015 0 1 0 17.5 0 -1.1102230246251565e-015 1 I I #
convexity-sys-attrib $-1 -1 $-1 $829 $822 #
End-of-ACIS-data 