600 0 1 0           
103 GICL ACIS Healer - Source: /gicl/data5/repository/PTC/V18/asmdes18/parts/cluster_countershaft.sat - 6 0 18 ACIS 6.0.3 Solaris 24 Sat Apr 13 23:02:30 2002 
1 9.999999999999999547e-07 1.000000000000000036e-10 
body $-1 $1 $-1 $-1 #
lump $-1 $-1 $2 $0 #
shell $-1 $-1 $-1 $3 $-1 $1 #
face $-1 $4 $5 $2 $-1 $6 forward single #
face $-1 $7 $8 $2 $-1 $9 forward single #
loop $-1 $-1 $10 $3 #
cone-surface $-1 0 367.5 0 0 -1 0 -17.5 0 0 1 I I 0 1 17.5 forward I I I I #
face $-1 $11 $12 $2 $-1 $13 forward single #
loop $-1 $14 $15 $4 #
plane-surface $-1 0 10 0 0 -1 0 -10 0 0 forward_v I I I I #
coedge $-1 $16 $17 $18 $19 forward $5 $-1 #
face $-1 $20 $21 $2 $-1 $22 forward single #
loop $-1 $-1 $23 $7 #
cone-surface $-1 0 367.5 0 0 -1 0 -45 0 0 1 I I 0 1 45 forward I I I I #
loop $-1 $-1 $18 $4 #
coedge $-1 $24 $24 $23 $25 reversed $8 $-1 #
coedge $-1 $26 $10 $27 $28 reversed $5 $-1 #
coedge $-1 $10 $26 $29 $30 forward $5 $-1 #
coedge $-1 $31 $31 $10 $19 reversed $14 $-1 #
edge $-1 $32 1.224606353822377258e-16 $33 3.141592653589793116 $10 $34 forward 7 unknown #
face $-1 $35 $36 $2 $-1 $37 reversed single #
loop $-1 $-1 $38 $11 #
cone-surface $-1 0 367.5 0 0 -1 0 -45 0 0 1 I I 0 1 45 forward I I I I #
coedge $-1 $39 $40 $15 $25 forward $12 $-1 #
coedge $-1 $15 $15 $41 $42 forward $8 $-1 #
edge $-1 $43 2.493190021439246699e-32 $44 3.141592653589793116 $15 $45 forward 7 unknown #
coedge $-1 $17 $16 $46 $47 reversed $5 $-1 #
coedge $-1 $48 $49 $16 $28 forward $50 $-1 #
edge $-1 $51 0 $33 1 $16 $52 forward 7 unknown #
coedge $-1 $49 $48 $17 $30 reversed $50 $-1 #
edge $-1 $53 0 $32 1 $17 $54 forward 7 unknown #
coedge $-1 $18 $18 $48 $55 forward $14 $-1 #
vertex $-1 $30 $56 #
vertex $-1 $28 $57 #
ellipse-curve $-1 0 10 -1.11022302462515654e-15 0 -1 0 17.5 0 1.11022302462515654e-15 1 I I #
face $-1 $58 $59 $2 $-1 $60 forward single #
loop $-1 $61 $62 $20 #
plane-surface $-1 0 180 0 0 -1 0 -10 0 0 forward_v I I I I #
coedge $-1 $63 $64 $65 $66 forward $21 $-1 #
coedge $-1 $67 $23 $63 $68 forward $12 $-1 #
coedge $-1 $23 $67 $64 $69 reversed $12 $-1 #
coedge $-1 $64 $63 $24 $42 reversed $21 $-1 #
edge $-1 $43 0 $44 3.141592653589792672 $24 $70 forward 7 unknown #
vertex $-1 $42 $71 #
vertex $-1 $42 $72 #
ellipse-curve $-1 -4.440892098500626162e-15 10 -4.440892098500626162e-15 0 1 0 45 0 9.951620690701323824e-15 1 I I #
coedge $-1 $73 $73 $26 $47 forward $74 $-1 #
edge $-1 $53 0 $51 3.141592653589793116 $26 $75 forward 7 unknown #
coedge $-1 $29 $27 $31 $55 reversed $50 $-1 #
coedge $-1 $27 $29 $73 $76 forward $50 $-1 #
loop $-1 $-1 $49 $77 #
vertex $-1 $47 $78 #
straight-curve $-1 -17.5 0 -4.286122238378320404e-15 0 10 0 I I #
vertex $-1 $30 $79 #
straight-curve $-1 17.5 0 2.143061119189160202e-15 0 10 0 I I #
edge $-1 $32 -1.224606353822377258e-16 $33 3.141592653589793116 $31 $80 forward 7 unknown #
point $-1 17.5 10 2.143061119189160202e-15 #
point $-1 -17.5 10 0 #
face $-1 $81 $82 $2 $-1 $83 forward single #
loop $-1 $-1 $84 $35 #
cone-surface $-1 0 367.5 0 0 -1 0 -30 0 0 1 I I 0 1 30 forward I I I I #
loop $-1 $-1 $65 $20 #
coedge $-1 $85 $85 $84 $86 reversed $36 $-1 #
coedge $-1 $41 $38 $39 $68 reversed $21 $-1 #
coedge $-1 $38 $41 $40 $69 forward $21 $-1 #
coedge $-1 $87 $87 $38 $66 reversed $61 $-1 #
edge $-1 $88 1.224606353822377012e-16 $89 3.141592653589793116 $38 $90 forward 7 unknown #
coedge $-1 $40 $39 $87 $91 reversed $12 $-1 #
edge $-1 $44 0 $89 17 $63 $92 forward 7 unknown #
edge $-1 $43 0 $88 17 $64 $93 forward 7 unknown #
ellipse-curve $-1 6.661338147750939243e-15 10 -6.661338147750939243e-15 0 -1 0 44.99999999999999289 0 1.21720667399516369e-14 1 I I #
point $-1 45 10 5.510728592200697662e-15 #
point $-1 -45 10 0 #
coedge $-1 $46 $46 $49 $76 reversed $74 $-1 #
loop $-1 $94 $46 $95 #
ellipse-curve $-1 0 0 -5.551115123125782702e-16 0 -1 0 17.5 0 2.698172631501738472e-15 1 I I #
edge $-1 $53 0 $51 3.141592653589793116 $73 $96 forward 7 unknown #
face $-1 $-1 $50 $2 $-1 $97 forward single #
point $-1 -17.5 0 -4.286122238378320404e-15 #
point $-1 17.5 0 2.143061119189160202e-15 #
ellipse-curve $-1 0 10 1.11022302462515654e-15 0 1 0 17.5 0 -1.11022302462515654e-15 1 I I #
face $-1 $98 $99 $2 $-1 $100 reversed single #
loop $-1 $-1 $101 $58 #
cone-surface $-1 0 367.5 0 0 -1 0 -30 0 0 1 I I 0 1 30 forward I I I I #
coedge $-1 $102 $103 $62 $86 forward $59 $-1 #
coedge $-1 $62 $62 $104 $105 forward $36 $-1 #
edge $-1 $106 0 $107 3.141592653589793116 $62 $108 forward 7 unknown #
coedge $-1 $65 $65 $67 $91 forward $61 $-1 #
vertex $-1 $69 $109 #
vertex $-1 $68 $110 #
ellipse-curve $-1 -4.440892098500626162e-15 180 2.220446049250313081e-15 0 -1 0 45 0 -2.220446049250313081e-15 1 I I #
edge $-1 $88 -1.224606353822377012e-16 $89 3.141592653589793116 $87 $111 forward 7 unknown #
straight-curve $-1 -45 10 -1.102145718440139532e-14 0 10 0 I I #
straight-curve $-1 45 10 5.510728592200697662e-15 0 10 0 I I #
loop $-1 $-1 $112 $95 #
face $-1 $77 $74 $2 $-1 $113 forward single #
ellipse-curve $-1 0 0 5.551115123125782702e-16 0 1 0 17.5 0 1.587949606876581932e-15 1 I I #
cone-surface $-1 0 367.5 0 0 -1 0 -17.5 0 0 1 I I 0 1 17.5 forward I I I I #
face $-1 $114 $115 $2 $-1 $116 forward single #
loop $-1 $117 $118 $81 #
plane-surface $-1 0 235 0 0 -1 0 -10 0 0 forward_v I I I I #
coedge $-1 $119 $120 $121 $122 forward $82 $-1 #
coedge $-1 $123 $84 $119 $124 forward $59 $-1 #
coedge $-1 $84 $123 $120 $125 reversed $59 $-1 #
coedge $-1 $120 $119 $85 $105 reversed $82 $-1 #
edge $-1 $106 0 $107 3.141592653589792672 $85 $126 forward 7 unknown #
vertex $-1 $105 $127 #
vertex $-1 $105 $128 #
ellipse-curve $-1 -1.11022302462515654e-15 180 2.220446049250313081e-15 0 1 0 30 0 1.453373012216818694e-15 1 I I #
point $-1 45 180 5.510728592200697662e-15 #
point $-1 -45 180 0 #
ellipse-curve $-1 -4.440892098500626162e-15 180 -2.220446049250313081e-15 0 1 0 45 0 2.220446049250313081e-15 1 I I #
coedge $-1 $129 $129 $130 $131 reversed $94 $-1 #
plane-surface $-1 0 0 0 0 -1 0 -10 0 0 forward_v I I I I #
face $-1 $132 $133 $2 $-1 $134 forward single #
loop $-1 $-1 $135 $98 #
cone-surface $-1 0 367.5 0 0 -1 0 -25 0 0 1 I I 0 1 25 forward I I I I #
loop $-1 $-1 $121 $81 #
coedge $-1 $136 $136 $135 $137 reversed $99 $-1 #
coedge $-1 $104 $101 $102 $124 reversed $82 $-1 #
coedge $-1 $101 $104 $103 $125 forward $82 $-1 #
coedge $-1 $138 $138 $101 $122 reversed $117 $-1 #
edge $-1 $139 1.224606353822377505e-16 $140 3.141592653589793116 $101 $141 forward 7 unknown #
coedge $-1 $103 $102 $138 $142 reversed $59 $-1 #
edge $-1 $107 0 $140 5.5 $119 $143 forward 7 unknown #
edge $-1 $106 0 $139 5.5 $120 $144 forward 7 unknown #
ellipse-curve $-1 1.11022302462515654e-15 180 -4.440892098500626162e-15 0 -1 0 30 0 8.114711159967757936e-15 1 I I #
point $-1 30 180 3.673819061467131775e-15 #
point $-1 -30 180 0 #
coedge $-1 $112 $112 $145 $146 reversed $94 $-1 #
coedge $-1 $147 $148 $112 $131 forward $149 $-1 #
edge $-1 $150 0 $151 3.141592653589793116 $112 $152 forward 7 unknown #
face $-1 $153 $154 $2 $-1 $155 reversed single #
loop $-1 $-1 $156 $114 #
cone-surface $-1 0 367.5 0 0 -1 0 -25 0 0 1 I I 0 1 25 forward I I I I #
coedge $-1 $157 $158 $118 $137 forward $115 $-1 #
coedge $-1 $118 $118 $159 $160 forward $99 $-1 #
edge $-1 $161 0 $162 3.141592653589793116 $118 $163 forward 7 unknown #
coedge $-1 $121 $121 $123 $142 forward $117 $-1 #
vertex $-1 $125 $164 #
vertex $-1 $124 $165 #
ellipse-curve $-1 2.220446049250313081e-15 235 -3.330669073875469621e-15 0 -1 0 30 0 3.330669073875469621e-15 1 I I #
edge $-1 $139 -1.224606353822377258e-16 $140 3.141592653589793116 $138 $166 forward 7 unknown #
straight-curve $-1 -30 180 -7.347638122934263549e-15 0 10 0 I I #
straight-curve $-1 30 180 3.673819061467131775e-15 0 10 0 I I #
coedge $-1 $167 $168 $129 $146 forward $169 $-1 #
edge $-1 $151 0 $150 3.141592653589793116 $129 $170 forward 7 unknown #
coedge $-1 $171 $130 $168 $172 reversed $149 $-1 #
coedge $-1 $130 $171 $167 $173 forward $149 $-1 #
loop $-1 $-1 $148 $174 #
vertex $-1 $146 $175 #
vertex $-1 $146 $176 #
ellipse-curve $-1 0 0 0 0 -1 0 -15 0 0 1 I I #
face $-1 $177 $178 $2 $-1 $179 forward single #
loop $-1 $180 $181 $132 #
plane-surface $-1 0 345 0 0 -1 0 -10 0 0 forward_v I I I I #
coedge $-1 $182 $183 $184 $185 forward $133 $-1 #
coedge $-1 $186 $135 $182 $187 forward $115 $-1 #
coedge $-1 $135 $186 $183 $188 reversed $115 $-1 #
coedge $-1 $183 $182 $136 $160 reversed $133 $-1 #
edge $-1 $161 0 $162 3.141592653589793116 $136 $189 forward 7 unknown #
vertex $-1 $160 $190 #
vertex $-1 $160 $191 #
ellipse-curve $-1 0 235 -1.11022302462515654e-15 0 1 0 25 0 4.171738909181099686e-15 1 I I #
point $-1 30 235 3.673819061467131775e-15 #
point $-1 -30 235 0 #
ellipse-curve $-1 2.220446049250313081e-15 235 3.330669073875469621e-15 0 1 0 30 0 -3.330669073875469621e-15 1 I I #
coedge $-1 $192 $145 $148 $173 reversed $169 $-1 #
coedge $-1 $145 $192 $147 $172 forward $169 $-1 #
loop $-1 $-1 $168 $193 #
ellipse-curve $-1 0 0 0 0 -1 0 15 0 0 1 I I #
coedge $-1 $148 $147 $194 $195 reversed $149 $-1 #
edge $-1 $196 0 $151 35 $168 $197 forward 7 unknown #
edge $-1 $198 0 $150 35 $167 $199 forward 7 unknown #
face $-1 $193 $149 $2 $-1 $200 reversed single #
point $-1 -15 0 0 #
point $-1 15 0 0 #
face $-1 $201 $202 $2 $-1 $203 forward single #
loop $-1 $-1 $204 $153 #
cone-surface $-1 0 367.5 0 0 -1 0 -17.5 0 0 1 I I 0 1 17.5 forward I I I I #
loop $-1 $-1 $184 $132 #
coedge $-1 $205 $205 $204 $206 reversed $154 $-1 #
coedge $-1 $159 $156 $157 $187 reversed $133 $-1 #
coedge $-1 $156 $159 $158 $188 forward $133 $-1 #
coedge $-1 $207 $207 $156 $185 reversed $180 $-1 #
edge $-1 $208 1.224606353822377258e-16 $209 3.141592653589793116 $156 $210 forward 7 unknown #
coedge $-1 $158 $157 $207 $211 reversed $115 $-1 #
edge $-1 $162 0 $209 11 $182 $212 forward 7 unknown #
edge $-1 $161 0 $208 11 $183 $213 forward 7 unknown #
ellipse-curve $-1 0 235 0 0 -1 0 25 0 3.061515884555943146e-15 1 I I #
point $-1 25 235 3.061515884555943146e-15 #
point $-1 -25 235 0 #
coedge $-1 $168 $167 $214 $215 reversed $169 $-1 #
face $-1 $95 $169 $2 $-1 $216 reversed single #
coedge $-1 $214 $214 $171 $195 forward $217 $-1 #
edge $-1 $198 0 $196 3.141592653589793116 $194 $218 forward 7 unknown #
vertex $-1 $215 $219 #
straight-curve $-1 15 350 0 0 -10 0 I I #
vertex $-1 $215 $220 #
straight-curve $-1 -15 350 1.836909530733565887e-15 0 -10 0 I I #
cone-surface $-1 0 350 0 0 -1 0 15 0 0 1 I I 0 1 15 forward I I I I #
face $-1 $174 $221 $2 $-1 $222 reversed single #
loop $-1 $-1 $223 $177 #
cone-surface $-1 0 367.5 0 0 -1 0 -17.5 0 0 1 I I 0 1 17.5 forward I I I I #
coedge $-1 $224 $225 $181 $206 forward $178 $-1 #
coedge $-1 $181 $181 $226 $227 forward $154 $-1 #
edge $-1 $228 0 $229 3.141592653589793116 $181 $230 forward 7 unknown #
coedge $-1 $184 $184 $186 $211 forward $180 $-1 #
vertex $-1 $188 $231 #
vertex $-1 $187 $232 #
ellipse-curve $-1 0 345 0 0 -1 0 25 0 0 1 I I #
edge $-1 $208 -1.224606353822377258e-16 $209 3.141592653589793116 $207 $233 forward 7 unknown #
straight-curve $-1 -25 235 -6.123031769111886291e-15 0 10 0 I I #
straight-curve $-1 25 235 3.061515884555943146e-15 0 10 0 I I #
coedge $-1 $194 $194 $192 $215 forward $217 $-1 #
edge $-1 $196 0 $198 3.141592653589793116 $214 $234 forward 7 unknown #
cone-surface $-1 0 350 0 0 -1 0 15 0 0 1 I I 0 1 15 forward I I I I #
loop $-1 $-1 $194 $201 #
ellipse-curve $-1 0 350 0 0 -1 0 -15 0 0 1 I I #
point $-1 15 350 0 #
point $-1 -15 350 0 #
loop $-1 $217 $235 $201 #
plane-surface $-1 0 350 0 0 -1 0 -10 0 0 forward_v I I I I #
coedge $-1 $236 $237 $235 $238 forward $202 $-1 #
coedge $-1 $239 $204 $236 $240 forward $178 $-1 #
coedge $-1 $204 $239 $237 $241 reversed $178 $-1 #
coedge $-1 $237 $236 $205 $227 reversed $202 $-1 #
edge $-1 $228 0 $229 3.141592653589793116 $205 $242 forward 7 unknown #
vertex $-1 $227 $243 #
vertex $-1 $227 $244 #
ellipse-curve $-1 0 345 5.551115123125782702e-16 0 1 0 17.5 0 1.587949606876581932e-15 1 I I #
point $-1 25 345 3.061515884555943146e-15 #
point $-1 -25 345 0 #
ellipse-curve $-1 0 345 0 0 1 0 25 0 0 1 I I #
ellipse-curve $-1 0 350 0 0 -1 0 15 0 0 1 I I #
coedge $-1 $245 $245 $223 $238 reversed $221 $-1 #
coedge $-1 $226 $223 $224 $240 reversed $202 $-1 #
coedge $-1 $223 $226 $225 $241 forward $202 $-1 #
edge $-1 $246 1.224606353822377258e-16 $247 3.141592653589793116 $223 $248 forward 7 unknown #
coedge $-1 $225 $224 $245 $249 reversed $178 $-1 #
edge $-1 $229 0 $247 0.5 $236 $250 forward 7 unknown #
edge $-1 $228 0 $246 0.5 $237 $251 forward 7 unknown #
ellipse-curve $-1 0 345 -5.551115123125782702e-16 0 -1 0 17.5 0 2.698172631501738472e-15 1 I I #
point $-1 17.5 345 2.143061119189160202e-15 #
point $-1 -17.5 345 0 #
coedge $-1 $235 $235 $239 $249 forward $221 $-1 #
vertex $-1 $241 $252 #
vertex $-1 $240 $253 #
ellipse-curve $-1 0 350 -1.11022302462515654e-15 0 -1 0 17.5 0 1.11022302462515654e-15 1 I I #
edge $-1 $246 -1.224606353822377258e-16 $247 3.141592653589793116 $245 $254 forward 7 unknown #
straight-curve $-1 -17.5 345 -4.286122238378320404e-15 0 10 0 I I #
straight-curve $-1 17.5 345 2.143061119189160202e-15 0 10 0 I I #
point $-1 17.5 350 2.143061119189160202e-15 #
point $-1 -17.5 350 0 #
ellipse-curve $-1 0 350 1.11022302462515654e-15 0 1 0 17.5 0 -1.11022302462515654e-15 1 I I #
End-of-ACIS-data 