700 0 2 0           
24 FBMach with ACIS - 7.0.3 13 ACIS 7.0.3 NT 24 Thu May 16 15:52:55 2002 
1 9.9999999999999995e-007 1e-010 
body $2 -1 $-1 $3 $-1 $4 #
bdycol-kcp $-1 -1 1 7 $5 $6 $7 $8 $9 $10 $11 #
model_id-kcp-attrib $-1 -1 $-1 $-1 $0 1 1021578773 1021578774 -1457848319 1 #
lump $-1 -1 $-1 $-1 $12 $0 #
transform $-1 -1 1 0 0 0 1 0 0 0 1 0 0 0 1 rotate no_reflect no_shear #
body $13 -1 $-1 $14 $-1 $15 #
body $16 -1 $-1 $17 $-1 $18 #
body $19 -1 $-1 $20 $-1 $21 #
body $22 -1 $-1 $23 $-1 $24 #
body $25 -1 $-1 $26 $-1 $27 #
body $28 -1 $-1 $29 $-1 $30 #
body $31 -1 $-1 $32 $-1 $33 #
shell $-1 -1 $-1 $-1 $-1 $34 $-1 $3 #
rgb_color-st-attrib $-1 -1 $35 $-1 $5 1 0.5 1 #
lump $-1 -1 $-1 $-1 $36 $5 #
transform $-1 -1 1 0 0 0 1 0 0 0 1 -3.5527136788005009e-015 175 -3.5527136788005009e-015 1 no_rotate no_reflect no_shear #
model_id-kcp-attrib $-1 -1 $-1 $-1 $6 1 1021578773 1021578774 -1457848318 1 #
lump $-1 -1 $-1 $-1 $37 $6 #
transform $-1 -1 1 0 0 0 1 0 0 0 1 -3.5527136788005009e-015 175 -3.5527136788005009e-015 1 no_rotate no_reflect no_shear #
rgb_color-st-attrib $-1 -1 $38 $-1 $7 1 0.5 1 #
lump $-1 -1 $-1 $-1 $39 $7 #
transform $-1 -1 1 0 0 0 1 0 0 0 1 -3.5527136788005009e-015 175 -3.5527136788005009e-015 1 no_rotate no_reflect no_shear #
rgb_color-st-attrib $-1 -1 $40 $-1 $8 1 0.5 1 #
lump $-1 -1 $-1 $-1 $41 $8 #
transform $-1 -1 1 0 0 0 1 0 0 0 1 -3.5527136788005009e-015 175 -3.5527136788005009e-015 1 no_rotate no_reflect no_shear #
rgb_color-st-attrib $-1 -1 $42 $-1 $9 0.5 1 1 #
lump $-1 -1 $-1 $-1 $43 $9 #
transform $-1 -1 1 0 0 0 1 0 0 0 1 -3.5527136788005009e-015 175 -3.5527136788005009e-015 1 no_rotate no_reflect no_shear #
rgb_color-st-attrib $-1 -1 $44 $-1 $10 1 0.5 1 #
lump $-1 -1 $-1 $-1 $45 $10 #
transform $-1 -1 1 0 0 0 1 0 0 0 1 -3.5527136788005009e-015 175 -3.5527136788005009e-015 1 no_rotate no_reflect no_shear #
rgb_color-st-attrib $-1 -1 $46 $-1 $11 0.5 1 1 #
lump $-1 -1 $-1 $-1 $47 $11 #
transform $-1 -1 1 0 0 0 1 0 0 0 1 0 0 0 1 no_rotate no_reflect no_shear #
face $48 -1 $-1 $49 $50 $12 $-1 $51 forward single #
model_id-kcp-attrib $-1 -1 $-1 $13 $5 1 1021578773 1021578774 -1459617784 1 #
shell $-1 -1 $-1 $-1 $-1 $52 $-1 $14 #
shell $-1 -1 $-1 $-1 $-1 $53 $-1 $17 #
model_id-kcp-attrib $-1 -1 $-1 $19 $7 1 1021578773 1021578774 -1457258490 1 #
shell $-1 -1 $-1 $-1 $-1 $54 $-1 $20 #
model_id-kcp-attrib $-1 -1 $-1 $22 $8 1 1021578773 1021578774 -1451360249 1 #
shell $-1 -1 $-1 $-1 $-1 $55 $-1 $23 #
model_id-kcp-attrib $-1 -1 $-1 $25 $9 1 1021578773 1021578774 -1450639357 1 #
shell $-1 -1 $-1 $-1 $-1 $56 $-1 $26 #
model_id-kcp-attrib $-1 -1 $-1 $28 $10 1 1021578773 1021578774 -1447690235 1 #
shell $-1 -1 $-1 $-1 $-1 $57 $-1 $29 #
model_id-kcp-attrib $-1 -1 $-1 $31 $11 1 1021578773 1021578774 -1446051836 1 #
shell $-1 -1 $-1 $-1 $-1 $58 $-1 $32 #
model_id-kcp-attrib $-1 -1 $-1 $-1 $34 1 1021578773 1021578774 -1457848319 2 #
face $59 -1 $-1 $60 $61 $12 $-1 $62 forward single #
loop $-1 -1 $-1 $-1 $63 $34 #
cone-surface $-1 -1 $-1 0 367.5 0 0 -1 0 -17.5 0 0 1 I I 0 1 17.5 forward I I I I #
face $-1 -1 $-1 $64 $65 $36 $-1 $66 forward single #
face $-1 -1 $-1 $67 $68 $37 $-1 $69 forward single #
face $-1 -1 $-1 $70 $71 $39 $-1 $72 forward single #
face $-1 -1 $-1 $73 $74 $41 $-1 $75 forward single #
face $-1 -1 $-1 $76 $77 $43 $-1 $78 reversed single #
face $-1 -1 $-1 $79 $80 $45 $-1 $81 forward single #
face $-1 -1 $-1 $82 $83 $47 $-1 $84 forward single #
model_id-kcp-attrib $-1 -1 $-1 $-1 $49 1 1021578773 1021578774 -1457848319 3 #
face $85 -1 $-1 $86 $87 $12 $-1 $88 forward single #
loop $-1 -1 $-1 $89 $90 $49 #
plane-surface $-1 -1 $-1 0 10 0 0 -1 0 -10 0 0 forward_v I I I I #
coedge $-1 -1 $-1 $91 $92 $93 $94 forward $50 $-1 #
face $-1 -1 $-1 $95 $96 $36 $-1 $97 forward single #
loop $-1 -1 $-1 $98 $99 $52 #
cone-surface $-1 -1 $-1 3.5527136788005009e-015 -165 3.5527136788005009e-015 0 -1 0 -17.5 0 0 1 I I 0 -1 17.5 forward I I I I #
face $-1 -1 $-1 $100 $101 $37 $-1 $102 reversed single #
loop $-1 -1 $-1 $-1 $103 $53 #
plane-surface $-1 -1 $-1 0 0 45 0 0 1 1 0 0 forward_v I I I I #
face $-1 -1 $-1 $104 $105 $39 $-1 $106 forward single #
loop $-1 -1 $-1 $107 $108 $54 #
cone-surface $-1 -1 $-1 3.5527136788005009e-015 60 3.5527136788005009e-015 0 1 0 -25 0 0 1 I I 0 -1 25 forward I I I I #
face $-1 -1 $-1 $109 $110 $41 $-1 $111 forward single #
loop $-1 -1 $-1 $112 $113 $55 #
cone-surface $-1 -1 $-1 3.5527136788005009e-015 170 3.5527136788005009e-015 0 1 0 -17.5 0 0 1 I I 0 -1 17.5 forward I I I I #
face $-1 -1 $-1 $114 $115 $43 $-1 $78 reversed single #
loop $-1 -1 $-1 $-1 $116 $56 #
cone-surface $-1 -1 $-1 -3.5527136788005009e-015 175 -8.8817841970012602e-016 0 1 0 45 0 9.9516206907013238e-015 1 I I 0 1 45 forward I I I I #
face $-1 -1 $-1 $117 $118 $45 $-1 $119 forward single #
loop $-1 -1 $-1 $120 $121 $57 #
cone-surface $-1 -1 $-1 3.5527136788005009e-015 5 3.5527136788005009e-015 0 1 0 -30 0 0 1 I I 0 -1 30 forward I I I I #
face $-1 -1 $-1 $122 $123 $47 $-1 $124 reversed single #
loop $-1 -1 $-1 $125 $126 $58 #
cone-surface $-1 -1 $-1 0 350 0 0 -1 0 -15 0 0 1 I I 0 1 15 forward I I I I #
model_id-kcp-attrib $-1 -1 $-1 $-1 $60 1 1021578773 1021578774 -1457848319 4 #
face $127 -1 $-1 $128 $129 $12 $-1 $130 forward single #
loop $-1 -1 $-1 $-1 $131 $60 #
cone-surface $-1 -1 $-1 0 367.5 0 0 -1 0 -45 0 0 1 I I 0 1 45 forward I I I I #
loop $-1 -1 $-1 $-1 $93 $49 #
coedge $-1 -1 $-1 $132 $132 $131 $133 reversed $61 $-1 #
coedge $-1 -1 $-1 $134 $63 $135 $136 reversed $50 $-1 #
coedge $-1 -1 $-1 $63 $134 $137 $138 forward $50 $-1 #
coedge $-1 -1 $-1 $139 $139 $63 $94 reversed $89 $-1 #
edge $140 -1 $-1 $141 1.2246063538223773e-016 $142 3.1415926535897931 $63 $143 forward @7 unknown #
face $-1 -1 $-1 $144 $145 $36 $-1 $146 reversed single #
loop $-1 -1 $-1 $147 $148 $64 #
cone-surface $-1 -1 $-1 -3.5527136788005009e-015 -165 -8.8817841970012602e-016 0 -1 0 45 0 9.9516206907013238e-015 1 I I 0 1 45 forward I I I I #
loop $-1 -1 $-1 $-1 $149 $52 #
coedge $-1 -1 $-1 $99 $99 $150 $151 forward $65 $-1 #
face $152 -1 $-1 $153 $154 $37 $-1 $155 reversed single #
loop $-1 -1 $-1 $-1 $156 $67 #
plane-surface $-1 -1 $-1 0 0 -45 0 0 1 1 0 0 forward_v I I I I #
coedge $-1 -1 $-1 $157 $158 $159 $160 forward $68 $-1 #
face $-1 -1 $-1 $161 $162 $39 $-1 $163 forward single #
loop $-1 -1 $-1 $164 $165 $70 #
cone-surface $-1 -1 $-1 -3.5527136788005009e-015 60 -8.8817841970012602e-016 0 1 0 45 0 9.9516206907013238e-015 1 I I 0 1 45 forward I I I I #
loop $-1 -1 $-1 $-1 $166 $54 #
coedge $-1 -1 $-1 $108 $108 $167 $168 forward $71 $-1 #
face $-1 -1 $-1 $169 $170 $41 $-1 $171 forward single #
loop $-1 -1 $-1 $172 $173 $73 #
cone-surface $-1 -1 $-1 -3.5527136788005009e-015 170 -8.8817841970012602e-016 0 1 0 45 0 9.9516206907013238e-015 1 I I 0 1 45 forward I I I I #
loop $-1 -1 $-1 $-1 $174 $55 #
coedge $-1 -1 $-1 $113 $113 $175 $176 forward $74 $-1 #
face $-1 -1 $-1 $177 $178 $43 $-1 $78 reversed single #
loop $-1 -1 $-1 $-1 $179 $76 #
coedge $-1 -1 $-1 $180 $181 $182 $183 reversed $77 $-1 #
face $-1 -1 $-1 $184 $185 $45 $-1 $186 forward single #
loop $-1 -1 $-1 $187 $188 $79 #
cone-surface $-1 -1 $-1 -3.5527136788005009e-015 5 -8.8817841970012602e-016 0 1 0 45 0 9.9516206907013238e-015 1 I I 0 1 45 forward I I I I #
loop $-1 -1 $-1 $-1 $189 $57 #
coedge $-1 -1 $-1 $121 $121 $190 $191 forward $80 $-1 #
face $-1 -1 $-1 $-1 $192 $47 $-1 $193 forward single #
loop $-1 -1 $-1 $-1 $194 $82 #
plane-surface $-1 -1 $-1 0 0 0 0 1 0 0 0 1 forward_v I I I I #
loop $-1 -1 $-1 $-1 $195 $58 #
coedge $-1 -1 $-1 $126 $126 $194 $196 forward $83 $-1 #
model_id-kcp-attrib $-1 -1 $-1 $-1 $86 1 1021578773 1021578774 -1457848319 5 #
face $197 -1 $-1 $198 $199 $12 $-1 $200 reversed single #
loop $-1 -1 $-1 $-1 $201 $86 #
cone-surface $-1 -1 $-1 0 367.5 0 0 -1 0 -45 0 0 1 I I 0 1 45 forward I I I I #
coedge $-1 -1 $-1 $202 $203 $90 $133 forward $87 $-1 #
coedge $-1 -1 $-1 $90 $90 $204 $205 forward $61 $-1 #
edge $206 -1 $-1 $207 2.4931900214392467e-032 $208 3.1415926535897931 $90 $209 forward @7 unknown #
coedge $-1 -1 $-1 $92 $91 $210 $211 reversed $50 $-1 #
coedge $-1 -1 $-1 $212 $213 $91 $136 forward $214 $-1 #
edge $-1 -1 $-1 $215 0 $142 1 $91 $216 forward @7 unknown #
coedge $-1 -1 $-1 $213 $212 $92 $138 reversed $214 $-1 #
edge $-1 -1 $-1 $217 0 $141 1 $92 $218 forward @7 unknown #
coedge $-1 -1 $-1 $93 $93 $212 $219 forward $89 $-1 #
attrib_edge_convexity-kcp-attrib $-1 -1 $220 $-1 $94 2 #
vertex $-1 -1 $-1 $138 $221 #
vertex $-1 -1 $-1 $136 $222 #
ellipse-curve $-1 -1 $-1 0 10 -1.1102230246251565e-015 0 -1 0 17.5 0 1.1102230246251565e-015 1 I I #
face $-1 -1 $-1 $-1 $223 $36 $-1 $224 forward single #
loop $-1 -1 $-1 $225 $226 $95 #
plane-surface $-1 -1 $-1 -2.9454545454545462 -175 -1.1102230246251565e-015 0 1 0 0 0 1 forward_v I I I I #
loop $-1 -1 $-1 $-1 $227 $64 #
coedge $-1 -1 $-1 $148 $148 $226 $228 forward $96 $-1 #
coedge $-1 -1 $-1 $149 $149 $229 $230 reversed $98 $-1 #
coedge $-1 -1 $-1 $150 $150 $99 $151 reversed $225 $-1 #
edge $-1 -1 $-1 $231 -3.1415926535897931 $231 3.1415926535897931 $99 $232 forward @7 unknown #
model_id-kcp-attrib $-1 -1 $-1 $-1 $100 1 1021578773 1021578774 -1457848318 3 #
face $-1 -1 $-1 $233 $234 $37 $-1 $235 reversed single #
loop $-1 -1 $-1 $-1 $236 $100 #
plane-surface $-1 -1 $-1 0 -175 0 0 1 0 0 0 1 forward_v I I I I #
coedge $-1 -1 $-1 $237 $238 $239 $240 forward $101 $-1 #
coedge $-1 -1 $-1 $241 $103 $242 $243 forward $68 $-1 #
coedge $-1 -1 $-1 $103 $241 $244 $245 forward $68 $-1 #
coedge $-1 -1 $-1 $246 $247 $103 $160 reversed $248 $-1 #
edge $-1 -1 $-1 $249 -175 $250 175 $159 $251 forward @7 unknown #
face $-1 -1 $-1 $-1 $252 $39 $-1 $253 reversed single #
loop $-1 -1 $-1 $254 $255 $104 #
plane-surface $-1 -1 $-1 -2.6298701298701288 170 0 0 1 0 0 0 1 forward_v I I I I #
loop $-1 -1 $-1 $-1 $256 $70 #
coedge $-1 -1 $-1 $165 $165 $255 $257 forward $105 $-1 #
coedge $-1 -1 $-1 $166 $166 $258 $259 reversed $107 $-1 #
coedge $-1 -1 $-1 $167 $167 $108 $168 reversed $254 $-1 #
edge $-1 -1 $-1 $260 -3.1415926535897931 $260 3.1415926535897931 $108 $261 forward @7 unknown #
face $-1 -1 $-1 $-1 $262 $41 $-1 $263 reversed single #
loop $-1 -1 $-1 $264 $265 $109 #
plane-surface $-1 -1 $-1 -2.9454545454545449 175.00000000000003 -1.5543122344752192e-015 0 1 0 0 0 1 forward_v I I I I #
loop $-1 -1 $-1 $-1 $266 $73 #
coedge $-1 -1 $-1 $173 $173 $265 $267 forward $110 $-1 #
coedge $-1 -1 $-1 $174 $174 $268 $269 reversed $112 $-1 #
coedge $-1 -1 $-1 $175 $175 $113 $176 reversed $264 $-1 #
edge $-1 -1 $-1 $270 -3.1415926535897931 $270 3.1415926535897931 $113 $271 forward @7 unknown #
face $-1 -1 $-1 $272 $273 $43 $-1 $78 reversed single #
loop $-1 -1 $-1 $-1 $274 $114 #
coedge $-1 -1 $-1 $275 $276 $277 $278 reversed $115 $-1 #
coedge $-1 -1 $-1 $279 $116 $280 $281 forward $77 $-1 #
coedge $-1 -1 $-1 $116 $279 $282 $283 reversed $77 $-1 #
coedge $-1 -1 $-1 $284 $285 $116 $183 forward $286 $-1 #
edge $-1 -1 $-1 $287 -3.1415926535897931 $288 -1.5707963267948963 $182 $289 forward @7 unknown #
face $-1 -1 $-1 $-1 $290 $45 $-1 $291 reversed single #
loop $-1 -1 $-1 $292 $293 $117 #
plane-surface $-1 -1 $-1 -2.4545454545454537 60 -4.4408920985006262e-016 0 1 0 0 0 1 forward_v I I I I #
loop $-1 -1 $-1 $-1 $294 $79 #
coedge $-1 -1 $-1 $188 $188 $293 $295 forward $118 $-1 #
coedge $-1 -1 $-1 $189 $189 $296 $297 reversed $120 $-1 #
coedge $-1 -1 $-1 $190 $190 $121 $191 reversed $292 $-1 #
edge $-1 -1 $-1 $298 -3.1415926535897931 $298 3.1415926535897931 $121 $299 forward @7 unknown #
loop $-1 -1 $-1 $-1 $300 $122 #
plane-surface $-1 -1 $-1 0 350 0 0 1 0 0 0 1 forward_v I I I I #
coedge $-1 -1 $-1 $194 $194 $126 $196 reversed $123 $-1 #
coedge $-1 -1 $-1 $195 $195 $300 $301 forward $125 $-1 #
edge $-1 -1 $-1 $302 0 $302 6.2831853071795862 $126 $303 forward @7 unknown #
model_id-kcp-attrib $-1 -1 $-1 $-1 $128 1 1021578773 1021578774 -1457848319 6 #
face $304 -1 $-1 $305 $306 $12 $-1 $307 forward single #
loop $-1 -1 $-1 $308 $309 $128 #
plane-surface $-1 -1 $-1 0 180 0 0 -1 0 -10 0 0 forward_v I I I I #
coedge $-1 -1 $-1 $310 $311 $312 $313 forward $129 $-1 #
coedge $-1 -1 $-1 $314 $131 $310 $315 forward $87 $-1 #
coedge $-1 -1 $-1 $131 $314 $311 $316 reversed $87 $-1 #
coedge $-1 -1 $-1 $311 $310 $132 $205 reversed $129 $-1 #
edge $317 -1 $-1 $207 0 $208 3.1415926535897927 $132 $318 forward @7 unknown #
attrib_edge_convexity-kcp-attrib $-1 -1 $319 $-1 $133 1 #
vertex $-1 -1 $-1 $205 $320 #
vertex $-1 -1 $-1 $205 $321 #
ellipse-curve $-1 -1 $-1 -4.4408920985006262e-015 10 -4.4408920985006262e-015 0 1 0 45 0 9.9516206907013238e-015 1 I I #
coedge $-1 -1 $-1 $322 $322 $134 $211 forward $323 $-1 #
edge $-1 -1 $-1 $217 0 $215 3.1415926535897931 $134 $324 forward @7 unknown #
coedge $-1 -1 $-1 $137 $135 $139 $219 reversed $214 $-1 #
coedge $-1 -1 $-1 $135 $137 $322 $325 forward $214 $-1 #
loop $-1 -1 $-1 $-1 $213 $326 #
vertex $-1 -1 $-1 $211 $327 #
straight-curve $-1 -1 $-1 -17.5 0 -4.2861222383783204e-015 0 10 0 I I #
vertex $-1 -1 $-1 $138 $328 #
straight-curve $-1 -1 $-1 17.5 0 2.1430611191891602e-015 0 10 0 I I #
edge $329 -1 $-1 $141 -1.2246063538223773e-016 $142 3.1415926535897931 $139 $330 forward @7 unknown #
convexity-sys-attrib $-1 -1 $-1 $140 $94 #
point $-1 -1 $-1 17.5 10 2.1430611191891602e-015 #
point $-1 -1 $-1 -17.5 10 0 #
loop $-1 -1 $-1 $331 $332 $144 #
plane-surface $-1 -1 $-1 -2.9454545454545462 -165 -1.1102230246251565e-015 0 1 0 0 0 1 forward_v I I I I #
loop $-1 -1 $-1 $-1 $150 $95 #
coedge $-1 -1 $-1 $226 $226 $148 $228 reversed $145 $-1 #
coedge $-1 -1 $-1 $227 $227 $332 $333 reversed $147 $-1 #
edge $-1 -1 $-1 $334 -3.1415926535897931 $334 3.1415926535897931 $148 $335 forward @7 unknown #
coedge $-1 -1 $-1 $229 $229 $149 $230 forward $331 $-1 #
edge $336 -1 $-1 $337 0 $337 6.2831853071795862 $149 $338 forward @7 unknown #
vertex $-1 -1 $-1 $151 $339 #
ellipse-curve $-1 -1 $-1 3.5527136788005009e-015 -175 3.5527136788005009e-015 0 -1 0 -17.5 0 0 1 I I #
face $340 -1 $-1 $341 $342 $37 $-1 $343 reversed single #
loop $-1 -1 $-1 $-1 $344 $153 #
plane-surface $-1 -1 $-1 -45 0 0 1 0 0 0 0 -1 forward_v I I I I #
coedge $-1 -1 $-1 $345 $244 $346 $347 forward $154 $-1 #
coedge $-1 -1 $-1 $348 $156 $345 $349 forward $101 $-1 #
coedge $-1 -1 $-1 $156 $348 $350 $351 forward $101 $-1 #
coedge $-1 -1 $-1 $247 $246 $156 $240 reversed $248 $-1 #
edge $-1 -1 $-1 $352 -175 $353 175 $239 $354 forward @7 unknown #
coedge $-1 -1 $-1 $158 $157 $355 $356 forward $68 $-1 #
coedge $-1 -1 $-1 $357 $358 $157 $243 reversed $342 $-1 #
edge $-1 -1 $-1 $250 -45 $359 45 $242 $360 forward @7 unknown #
coedge $-1 -1 $-1 $236 $361 $158 $245 reversed $154 $-1 #
edge $-1 -1 $-1 $362 -45 $249 45 $244 $363 forward @7 unknown #
coedge $-1 -1 $-1 $239 $159 $361 $364 forward $248 $-1 #
coedge $-1 -1 $-1 $159 $239 $357 $365 reversed $248 $-1 #
loop $-1 -1 $-1 $-1 $246 $341 #
vertex $-1 -1 $-1 $160 $366 #
vertex $-1 -1 $-1 $160 $367 #
straight-curve $-1 -1 $-1 45 0 45 0 1 0 I I #
loop $-1 -1 $-1 $368 $369 $161 #
plane-surface $-1 -1 $-1 -2.6298701298701288 60 0 0 1 0 0 0 1 forward_v I I I I #
loop $-1 -1 $-1 $-1 $167 $104 #
coedge $-1 -1 $-1 $255 $255 $165 $257 reversed $162 $-1 #
coedge $-1 -1 $-1 $256 $256 $369 $370 reversed $164 $-1 #
edge $-1 -1 $-1 $371 -3.1415926535897931 $371 3.1415926535897931 $165 $372 forward @7 unknown #
coedge $-1 -1 $-1 $258 $258 $166 $259 forward $368 $-1 #
edge $373 -1 $-1 $374 0 $374 6.2831853071795862 $166 $375 forward @7 unknown #
vertex $-1 -1 $-1 $168 $376 #
ellipse-curve $-1 -1 $-1 3.5527136788005009e-015 170 3.5527136788005009e-015 0 1 0 -25 0 0 1 I I #
loop $-1 -1 $-1 $377 $378 $169 #
plane-surface $-1 -1 $-1 -2.9454545454545449 170.00000000000003 -1.5543122344752192e-015 0 1 0 0 0 1 forward_v I I I I #
loop $-1 -1 $-1 $-1 $175 $109 #
coedge $-1 -1 $-1 $265 $265 $173 $267 reversed $170 $-1 #
coedge $-1 -1 $-1 $266 $266 $378 $379 reversed $172 $-1 #
edge $-1 -1 $-1 $380 -3.1415926535897931 $380 3.1415926535897931 $173 $381 forward @7 unknown #
coedge $-1 -1 $-1 $268 $268 $174 $269 forward $377 $-1 #
edge $382 -1 $-1 $383 0 $383 6.2831853071795862 $174 $384 forward @7 unknown #
vertex $-1 -1 $-1 $176 $385 #
ellipse-curve $-1 -1 $-1 3.5527136788005009e-015 175 3.5527136788005009e-015 0 1 0 -17.5 0 0 1 I I #
face $-1 -1 $-1 $386 $387 $43 $-1 $388 forward single #
loop $-1 -1 $-1 $-1 $389 $177 #
coedge $-1 -1 $-1 $390 $391 $389 $392 forward $178 $-1 #
coedge $-1 -1 $-1 $393 $179 $394 $395 reversed $115 $-1 #
coedge $-1 -1 $-1 $179 $393 $181 $283 forward $115 $-1 #
coedge $-1 -1 $-1 $396 $397 $179 $278 forward $398 $-1 #
edge $-1 -1 $-1 $399 -2.2114712646002941e-016 $400 1.5707963267948963 $277 $401 forward @7 unknown #
coedge $-1 -1 $-1 $181 $180 $402 $403 reversed $77 $-1 #
coedge $-1 -1 $-1 $391 $390 $404 $281 reversed $178 $-1 #
edge $-1 -1 $-1 $287 -350 $405 0 $404 $406 forward @7 unknown #
coedge $-1 -1 $-1 $407 $408 $409 $283 forward $410 $-1 #
edge $-1 -1 $-1 $288 -350 $400 0 $282 $411 forward @7 unknown #
coedge $-1 -1 $-1 $285 $182 $408 $412 reversed $286 $-1 #
coedge $-1 -1 $-1 $182 $284 $413 $414 forward $286 $-1 #
loop $-1 -1 $-1 $-1 $182 $415 #
vertex $-1 -1 $-1 $416 $417 #
vertex $-1 -1 $-1 $418 $419 #
ellipse-curve $-1 -1 $-1 -3.5527136788005009e-015 -175 -8.8817841970012602e-016 0 1 0 45 0 9.9516206907013238e-015 1 I I #
loop $-1 -1 $-1 $420 $421 $184 #
plane-surface $-1 -1 $-1 -2.4545454545454537 5 -4.4408920985006262e-016 0 1 0 0 0 1 forward_v I I I I #
loop $-1 -1 $-1 $-1 $190 $117 #
coedge $-1 -1 $-1 $293 $293 $188 $295 reversed $185 $-1 #
coedge $-1 -1 $-1 $294 $294 $421 $422 reversed $187 $-1 #
edge $-1 -1 $-1 $423 -3.1415926535897931 $423 3.1415926535897931 $188 $424 forward @7 unknown #
coedge $-1 -1 $-1 $296 $296 $189 $297 forward $420 $-1 #
edge $425 -1 $-1 $426 0 $426 6.2831853071795862 $189 $427 forward @7 unknown #
vertex $-1 -1 $-1 $191 $428 #
ellipse-curve $-1 -1 $-1 3.5527136788005009e-015 60 3.5527136788005009e-015 0 1 0 -30 0 0 1 I I #
coedge $-1 -1 $-1 $300 $300 $195 $301 reversed $192 $-1 #
edge $-1 -1 $-1 $429 0 $429 6.2831853071795862 $195 $430 forward @7 unknown #
vertex $-1 -1 $-1 $196 $431 #
ellipse-curve $-1 -1 $-1 0 0 0 0 1 0 15 0 0 1 I I #
model_id-kcp-attrib $-1 -1 $-1 $-1 $198 1 1021578773 1021578774 -1457848319 7 #
face $432 -1 $-1 $433 $434 $12 $-1 $435 forward single #
loop $-1 -1 $-1 $-1 $436 $198 #
cone-surface $-1 -1 $-1 0 367.5 0 0 -1 0 -30 0 0 1 I I 0 1 30 forward I I I I #
loop $-1 -1 $-1 $-1 $312 $128 #
coedge $-1 -1 $-1 $437 $437 $436 $438 reversed $199 $-1 #
coedge $-1 -1 $-1 $204 $201 $202 $315 reversed $129 $-1 #
coedge $-1 -1 $-1 $201 $204 $203 $316 forward $129 $-1 #
coedge $-1 -1 $-1 $439 $439 $201 $313 reversed $308 $-1 #
edge $440 -1 $-1 $441 1.224606353822377e-016 $442 3.1415926535897931 $201 $443 forward @7 unknown #
coedge $-1 -1 $-1 $203 $202 $439 $444 reversed $87 $-1 #
edge $-1 -1 $-1 $208 0 $442 17 $310 $445 forward @7 unknown #
edge $-1 -1 $-1 $207 0 $441 17 $311 $446 forward @7 unknown #
attrib_edge_convexity-kcp-attrib $-1 -1 $447 $-1 $205 1 #
ellipse-curve $-1 -1 $-1 6.6613381477509392e-015 10 -6.6613381477509392e-015 0 -1 0 44.999999999999993 0 1.2172066739951637e-014 1 I I #
convexity-sys-attrib $-1 -1 $-1 $206 $133 #
point $-1 -1 $-1 45 10 5.5107285922006977e-015 #
point $-1 -1 $-1 -45 10 0 #
coedge $-1 -1 $-1 $210 $210 $213 $325 reversed $323 $-1 #
loop $-1 -1 $-1 $448 $210 $449 #
ellipse-curve $-1 -1 $-1 0 0 -5.5511151231257827e-016 0 -1 0 17.5 0 2.6981726315017385e-015 1 I I #
edge $-1 -1 $-1 $217 0 $215 3.1415926535897931 $322 $450 forward @7 unknown #
face $451 -1 $-1 $-1 $214 $12 $-1 $452 forward single #
point $-1 -1 $-1 -17.5 0 -4.2861222383783204e-015 #
point $-1 -1 $-1 17.5 0 2.1430611191891602e-015 #
attrib_edge_convexity-kcp-attrib $-1 -1 $453 $-1 $219 2 #
ellipse-curve $-1 -1 $-1 0 10 1.1102230246251565e-015 0 1 0 17.5 0 -1.1102230246251565e-015 1 I I #
loop $-1 -1 $-1 $-1 $229 $144 #
coedge $-1 -1 $-1 $332 $332 $227 $333 forward $223 $-1 #
edge $454 -1 $-1 $455 -3.1415926535897931 $455 3.1415926535897931 $227 $456 forward @7 unknown #
vertex $-1 -1 $-1 $228 $457 #
ellipse-curve $-1 -1 $-1 -3.5527136788005009e-015 -175 -8.8817841970012602e-016 0 1 0 45 0 9.9516206907013238e-015 1 I I #
convexity-sys-attrib $-1 -1 $-1 $-1 $230 #
vertex $-1 -1 $-1 $230 $458 #
ellipse-curve $-1 -1 $-1 3.5527136788005009e-015 -165 3.5527136788005009e-015 0 -1 0 -17.5 0 0 1 I I #
point $-1 -1 $-1 17.5 -175 5.6957747979896611e-015 #
model_id-kcp-attrib $-1 -1 $-1 $-1 $233 1 1021578773 1021578774 -1457848318 2 #
face $-1 -1 $-1 $-1 $248 $37 $-1 $459 reversed single #
loop $-1 -1 $-1 $-1 $357 $233 #
plane-surface $-1 -1 $-1 0 175 0 0 -1 0 0 0 -1 forward_v I I I I #
coedge $-1 -1 $-1 $460 $355 $358 $461 forward $234 $-1 #
coedge $-1 -1 $-1 $361 $236 $237 $349 reversed $154 $-1 #
coedge $-1 -1 $-1 $355 $460 $236 $347 reversed $234 $-1 #
edge $-1 -1 $-1 $362 -45 $462 45 $346 $463 forward @7 unknown #
coedge $-1 -1 $-1 $238 $237 $460 $464 forward $101 $-1 #
edge $-1 -1 $-1 $353 -45 $462 45 $345 $465 forward @7 unknown #
coedge $-1 -1 $-1 $358 $357 $238 $351 reversed $342 $-1 #
edge $-1 -1 $-1 $466 -45 $352 45 $350 $467 forward @7 unknown #
vertex $-1 -1 $-1 $240 $468 #
vertex $-1 -1 $-1 $364 $469 #
straight-curve $-1 -1 $-1 45 0 -45 0 -1 0 I I #
coedge $-1 -1 $-1 $344 $346 $241 $356 reversed $234 $-1 #
edge $-1 -1 $-1 $359 -175 $362 175 $355 $470 forward @7 unknown #
coedge $-1 -1 $-1 $350 $242 $247 $365 forward $342 $-1 #
coedge $-1 -1 $-1 $242 $350 $344 $461 reversed $342 $-1 #
vertex $-1 -1 $-1 $243 $471 #
straight-curve $-1 -1 $-1 0 175 45 -1 0 0 I I #
coedge $-1 -1 $-1 $244 $345 $246 $364 reversed $154 $-1 #
vertex $-1 -1 $-1 $356 $472 #
straight-curve $-1 -1 $-1 0 -175 45 1 0 0 I I #
edge $-1 -1 $-1 $249 -45 $353 45 $246 $473 forward @7 unknown #
edge $-1 -1 $-1 $250 -45 $352 45 $247 $474 forward @7 unknown #
point $-1 -1 $-1 45 -175 45 #
point $-1 -1 $-1 45 175 45 #
loop $-1 -1 $-1 $-1 $258 $161 #
coedge $-1 -1 $-1 $369 $369 $256 $370 forward $252 $-1 #
edge $475 -1 $-1 $476 -3.1415926535897931 $476 3.1415926535897931 $256 $477 forward @7 unknown #
vertex $-1 -1 $-1 $257 $478 #
ellipse-curve $-1 -1 $-1 -3.5527136788005009e-015 170 -8.8817841970012602e-016 0 -1 0 45 0 9.9516206907013238e-015 1 I I #
convexity-sys-attrib $-1 -1 $-1 $-1 $259 #
vertex $-1 -1 $-1 $259 $479 #
ellipse-curve $-1 -1 $-1 3.5527136788005009e-015 60 3.5527136788005009e-015 0 1 0 -25 0 0 1 I I #
point $-1 -1 $-1 25 170 6.6142295633564441e-015 #
loop $-1 -1 $-1 $-1 $268 $169 #
coedge $-1 -1 $-1 $378 $378 $266 $379 forward $262 $-1 #
edge $480 -1 $-1 $481 -3.1415926535897931 $481 3.1415926535897931 $266 $482 forward @7 unknown #
vertex $-1 -1 $-1 $267 $483 #
ellipse-curve $-1 -1 $-1 -3.5527136788005009e-015 175 -8.8817841970012602e-016 0 -1 0 45 0 9.9516206907013238e-015 1 I I #
convexity-sys-attrib $-1 -1 $-1 $-1 $269 #
vertex $-1 -1 $-1 $269 $484 #
ellipse-curve $-1 -1 $-1 3.5527136788005009e-015 170 3.5527136788005009e-015 0 1 0 -17.5 0 0 1 I I #
point $-1 -1 $-1 17.5 175 5.6957747979896611e-015 #
face $-1 -1 $-1 $485 $486 $43 $-1 $487 reversed single #
loop $-1 -1 $-1 $-1 $409 $272 #
plane-surface $-1 -1 $-1 0 0 45 0 0 1 1 0 0 forward_v I I I I #
coedge $-1 -1 $-1 $488 $489 $490 $392 reversed $273 $-1 #
coedge $-1 -1 $-1 $280 $274 $491 $492 reversed $178 $-1 #
coedge $-1 -1 $-1 $274 $280 $493 $494 reversed $178 $-1 #
edge $-1 -1 $-1 $495 -350 $496 0 $490 $497 forward @7 unknown #
coedge $-1 -1 $-1 $276 $275 $498 $499 reversed $115 $-1 #
coedge $-1 -1 $-1 $500 $501 $502 $395 forward $503 $-1 #
edge $-1 -1 $-1 $504 -350 $399 0 $394 $505 forward @7 unknown #
coedge $-1 -1 $-1 $397 $277 $506 $507 reversed $398 $-1 #
coedge $-1 -1 $-1 $277 $396 $500 $508 forward $398 $-1 #
loop $-1 -1 $-1 $-1 $277 $509 #
vertex $-1 -1 $-1 $510 $511 #
vertex $-1 -1 $-1 $512 $513 #
ellipse-curve $-1 -1 $-1 -3.5527136788005009e-015 175 -8.8817841970012602e-016 0 -1 0 45 0 9.9516206907013238e-015 1 I I #
coedge $-1 -1 $-1 $514 $515 $279 $403 forward $516 $-1 #
edge $-1 -1 $-1 $400 1.5707963267948963 $405 3.1415926535897931 $402 $401 forward @7 unknown #
coedge $-1 -1 $-1 $517 $518 $519 $281 forward $486 $-1 #
vertex $-1 -1 $-1 $520 $521 #
straight-curve $-1 -1 $-1 -45 175 -8.8817841970012602e-016 0 1 0 I I #
coedge $-1 -1 $-1 $522 $282 $515 $512 forward $410 $-1 #
coedge $-1 -1 $-1 $282 $522 $284 $412 forward $410 $-1 #
coedge $-1 -1 $-1 $523 $506 $276 $283 reversed $387 $-1 #
loop $-1 -1 $-1 $-1 $282 $524 #
straight-curve $-1 -1 $-1 -3.5527136788005009e-015 175 45 0 1 0 I I #
edge $-1 -1 $-1 $525 -45 $288 -3.5527136788005009e-015 $284 $526 forward @7 unknown #
coedge $-1 -1 $-1 $527 $519 $285 $414 reversed $528 $-1 #
edge $-1 -1 $-1 $525 -45 $287 8.8817841970012602e-016 $413 $529 forward @7 unknown #
face $-1 -1 $-1 $530 $286 $43 $-1 $531 reversed single #
edge $-1 -1 $-1 $287 8.8817841970012602e-016 $532 45 $518 $529 forward @7 unknown #
point $-1 -1 $-1 -45 -175 -8.8817841970012602e-016 #
edge $-1 -1 $-1 $288 -3.5527136788005009e-015 $533 45 $534 $526 forward @7 unknown #
point $-1 -1 $-1 -3.5527136788005009e-015 -175 45 #
loop $-1 -1 $-1 $-1 $296 $184 #
coedge $-1 -1 $-1 $421 $421 $294 $422 forward $290 $-1 #
edge $535 -1 $-1 $536 -3.1415926535897931 $536 3.1415926535897931 $294 $537 forward @7 unknown #
vertex $-1 -1 $-1 $295 $538 #
ellipse-curve $-1 -1 $-1 -3.5527136788005009e-015 60 -8.8817841970012602e-016 0 -1 0 45 0 9.9516206907013238e-015 1 I I #
convexity-sys-attrib $-1 -1 $-1 $-1 $297 #
vertex $-1 -1 $-1 $297 $539 #
ellipse-curve $-1 -1 $-1 3.5527136788005009e-015 5 3.5527136788005009e-015 0 1 0 -30 0 0 1 I I #
point $-1 -1 $-1 30 60 7.2265327402676327e-015 #
vertex $-1 -1 $-1 $301 $540 #
ellipse-curve $-1 -1 $-1 0 350 0 0 -1 0 -15 0 0 1 I I #
point $-1 -1 $-1 15 0 0 #
model_id-kcp-attrib $-1 -1 $-1 $-1 $305 1 1021578773 1021578774 -1457848319 8 #
face $541 -1 $-1 $542 $543 $12 $-1 $544 reversed single #
loop $-1 -1 $-1 $-1 $545 $305 #
cone-surface $-1 -1 $-1 0 367.5 0 0 -1 0 -30 0 0 1 I I 0 1 30 forward I I I I #
coedge $-1 -1 $-1 $546 $547 $309 $438 forward $306 $-1 #
coedge $-1 -1 $-1 $309 $309 $548 $549 forward $199 $-1 #
edge $550 -1 $-1 $551 0 $552 3.1415926535897931 $309 $553 forward @7 unknown #
coedge $-1 -1 $-1 $312 $312 $314 $444 forward $308 $-1 #
attrib_edge_convexity-kcp-attrib $-1 -1 $554 $-1 $313 1 #
vertex $-1 -1 $-1 $316 $555 #
vertex $-1 -1 $-1 $315 $556 #
ellipse-curve $-1 -1 $-1 -4.4408920985006262e-015 180 2.2204460492503131e-015 0 -1 0 45 0 -2.2204460492503131e-015 1 I I #
edge $557 -1 $-1 $441 -1.224606353822377e-016 $442 3.1415926535897931 $439 $558 forward @7 unknown #
straight-curve $-1 -1 $-1 -45 10 -1.1021457184401395e-014 0 10 0 I I #
straight-curve $-1 -1 $-1 45 10 5.5107285922006977e-015 0 10 0 I I #
convexity-sys-attrib $-1 -1 $-1 $317 $205 #
loop $-1 -1 $-1 $-1 $559 $449 #
face $560 -1 $-1 $326 $323 $12 $-1 $561 forward single #
ellipse-curve $-1 -1 $-1 0 0 5.5511151231257827e-016 0 1 0 17.5 0 1.5879496068765819e-015 1 I I #
model_id-kcp-attrib $-1 -1 $-1 $-1 $326 1 1021578773 1021578774 -1457848319 19 #
cone-surface $-1 -1 $-1 0 367.5 0 0 -1 0 -17.5 0 0 1 I I 0 1 17.5 forward I I I I #
convexity-sys-attrib $-1 -1 $-1 $329 $219 #
convexity-sys-attrib $-1 -1 $-1 $-1 $333 #
vertex $-1 -1 $-1 $333 $562 #
ellipse-curve $-1 -1 $-1 -3.5527136788005009e-015 -165 -8.8817841970012602e-016 0 1 0 45 0 9.9516206907013238e-015 1 I I #
point $-1 -1 $-1 -45 -175 -5.3290705182007514e-015 #
point $-1 -1 $-1 -17.499999999999996 -165 3.5527136788005009e-015 #
plane-surface $-1 -1 $-1 45 0 0 -1 0 0 0 0 1 forward_v I I I I #
coedge $-1 -1 $-1 $346 $344 $348 $464 reversed $234 $-1 #
edge $-1 -1 $-1 $359 -45 $466 45 $358 $563 forward @7 unknown #
vertex $-1 -1 $-1 $464 $564 #
straight-curve $-1 -1 $-1 -45 -175 0 0 0 -1 I I #
edge $-1 -1 $-1 $462 -175 $466 175 $460 $565 forward @7 unknown #
straight-curve $-1 -1 $-1 0 -175 -45 -1 0 0 I I #
vertex $-1 -1 $-1 $351 $566 #
straight-curve $-1 -1 $-1 0 175 -45 1 0 0 I I #
point $-1 -1 $-1 45 175 -45 #
point $-1 -1 $-1 45 -175 -45 #
straight-curve $-1 -1 $-1 -45 0 45 0 -1 0 I I #
point $-1 -1 $-1 -45 175 45 #
point $-1 -1 $-1 -45 -175 45 #
straight-curve $-1 -1 $-1 45 -175 0 0 0 -1 I I #
straight-curve $-1 -1 $-1 45 175 0 0 0 -1 I I #
convexity-sys-attrib $-1 -1 $-1 $-1 $370 #
vertex $-1 -1 $-1 $370 $567 #
ellipse-curve $-1 -1 $-1 -3.5527136788005009e-015 60 -8.8817841970012602e-016 0 -1 0 45 0 9.9516206907013238e-015 1 I I #
point $-1 -1 $-1 -45 170 -1.6350527702602147e-014 #
point $-1 -1 $-1 -24.999999999999996 60 3.5527136788005009e-015 #
convexity-sys-attrib $-1 -1 $-1 $-1 $379 #
vertex $-1 -1 $-1 $379 $568 #
ellipse-curve $-1 -1 $-1 -3.5527136788005009e-015 170 -8.8817841970012602e-016 0 -1 0 45 0 9.9516206907013238e-015 1 I I #
point $-1 -1 $-1 -45 175 -1.6350527702602147e-014 #
point $-1 -1 $-1 -17.499999999999996 170 3.5527136788005009e-015 #
face $-1 -1 $-1 $569 $570 $43 $-1 $571 reversed single #
loop $-1 -1 $-1 $-1 $404 $386 #
plane-surface $-1 -1 $-1 -45 0 0 1 0 0 0 0 -1 forward_v I I I I #
coedge $-1 -1 $-1 $572 $389 $573 $574 reversed $273 $-1 #
coedge $-1 -1 $-1 $389 $572 $575 $576 reversed $273 $-1 #
coedge $-1 -1 $-1 $577 $578 $579 $392 forward $580 $-1 #
coedge $-1 -1 $-1 $581 $582 $390 $492 forward $583 $-1 #
edge $-1 -1 $-1 $405 -3.1415926535897931 $496 -1.5707963267948968 $491 $401 forward @7 unknown #
coedge $-1 -1 $-1 $584 $585 $391 $494 forward $586 $-1 #
edge $-1 -1 $-1 $495 1.5707963267948968 $287 3.1415926535897931 $493 $289 forward @7 unknown #
vertex $-1 -1 $-1 $587 $588 #
vertex $-1 -1 $-1 $589 $590 #
straight-curve $-1 -1 $-1 -3.5527136788005009e-015 175 -45 0 1 0 I I #
coedge $-1 -1 $-1 $591 $534 $393 $499 forward $592 $-1 #
edge $-1 -1 $-1 $288 -1.5707963267948963 $504 2.2114712646002941e-016 $498 $289 forward @7 unknown #
coedge $-1 -1 $-1 $593 $394 $397 $508 reversed $503 $-1 #
coedge $-1 -1 $-1 $394 $593 $591 $594 forward $503 $-1 #
coedge $-1 -1 $-1 $595 $596 $572 $395 reversed $570 $-1 #
loop $-1 -1 $-1 $-1 $394 $597 #
vertex $-1 -1 $-1 $598 $599 #
straight-curve $-1 -1 $-1 45 175 -8.8817841970012602e-016 0 1 0 I I #
coedge $-1 -1 $-1 $409 $600 $396 $507 forward $387 $-1 #
edge $-1 -1 $-1 $601 -45 $400 3.5527136788005009e-015 $396 $602 forward @7 unknown #
edge $-1 -1 $-1 $601 -45 $399 8.8817841970012602e-016 $500 $603 forward @7 unknown #
face $-1 -1 $-1 $604 $398 $43 $-1 $605 reversed single #
edge $-1 -1 $-1 $399 8.8817841970012602e-016 $606 45 $596 $603 forward @7 unknown #
point $-1 -1 $-1 45 175 -8.8817841970012602e-016 #
edge $-1 -1 $-1 $400 3.5527136788005009e-015 $607 45 $515 $602 forward @7 unknown #
point $-1 -1 $-1 -3.5527136788005009e-015 175 45 #
coedge $-1 -1 $-1 $515 $402 $608 $609 reversed $516 $-1 #
coedge $-1 -1 $-1 $402 $514 $407 $512 reversed $516 $-1 #
loop $-1 -1 $-1 $-1 $402 $604 #
coedge $-1 -1 $-1 $610 $404 $582 $520 forward $486 $-1 #
coedge $-1 -1 $-1 $404 $610 $584 $416 reversed $486 $-1 #
coedge $-1 -1 $-1 $413 $608 $180 $281 reversed $528 $-1 #
edge $-1 -1 $-1 $405 8.8817841970012602e-016 $611 45 $582 $612 forward @7 unknown #
point $-1 -1 $-1 -45 175 -8.8817841970012602e-016 #
coedge $-1 -1 $-1 $408 $407 $527 $613 forward $410 $-1 #
coedge $-1 -1 $-1 $600 $409 $534 $418 forward $387 $-1 #
face $-1 -1 $-1 $614 $410 $43 $-1 $388 forward single #
vertex $-1 -1 $-1 $613 $615 #
straight-curve $-1 -1 $-1 0 -175 45 1 0 0 I I #
coedge $-1 -1 $-1 $608 $413 $522 $613 reversed $528 $-1 #
loop $-1 -1 $-1 $-1 $519 $616 #
straight-curve $-1 -1 $-1 -45 -175 0 0 0 -1 I I #
face $-1 -1 $-1 $617 $592 $43 $-1 $531 reversed single #
plane-surface $-1 -1 $-1 0 -175 0 0 1 0 0 0 1 forward_v I I I I #
vertex $-1 -1 $-1 $618 $619 #
vertex $-1 -1 $-1 $620 $621 #
coedge $-1 -1 $-1 $498 $591 $523 $418 reversed $592 $-1 #
convexity-sys-attrib $-1 -1 $-1 $-1 $422 #
vertex $-1 -1 $-1 $422 $622 #
ellipse-curve $-1 -1 $-1 -3.5527136788005009e-015 5 -8.8817841970012602e-016 0 -1 0 45 0 9.9516206907013238e-015 1 I I #
point $-1 -1 $-1 -45 60 -1.6350527702602147e-014 #
point $-1 -1 $-1 -29.999999999999996 5 3.5527136788005009e-015 #
point $-1 -1 $-1 -15 350 0 #
model_id-kcp-attrib $-1 -1 $-1 $-1 $433 1 1021578773 1021578774 -1457848319 9 #
face $623 -1 $-1 $624 $625 $12 $-1 $626 forward single #
loop $-1 -1 $-1 $627 $628 $433 #
plane-surface $-1 -1 $-1 0 235 0 0 -1 0 -10 0 0 forward_v I I I I #
coedge $-1 -1 $-1 $629 $630 $631 $632 forward $434 $-1 #
coedge $-1 -1 $-1 $633 $436 $629 $634 forward $306 $-1 #
coedge $-1 -1 $-1 $436 $633 $630 $635 reversed $306 $-1 #
coedge $-1 -1 $-1 $630 $629 $437 $549 reversed $434 $-1 #
edge $636 -1 $-1 $551 0 $552 3.1415926535897927 $437 $637 forward @7 unknown #
attrib_edge_convexity-kcp-attrib $-1 -1 $638 $-1 $438 2 #
vertex $-1 -1 $-1 $549 $639 #
vertex $-1 -1 $-1 $549 $640 #
ellipse-curve $-1 -1 $-1 -1.1102230246251565e-015 180 2.2204460492503131e-015 0 1 0 30 0 1.4533730122168187e-015 1 I I #
convexity-sys-attrib $-1 -1 $-1 $440 $313 #
point $-1 -1 $-1 45 180 5.5107285922006977e-015 #
point $-1 -1 $-1 -45 180 0 #
attrib_edge_convexity-kcp-attrib $-1 -1 $641 $-1 $444 1 #
ellipse-curve $-1 -1 $-1 -4.4408920985006262e-015 180 -2.2204460492503131e-015 0 1 0 45 0 2.2204460492503131e-015 1 I I #
coedge $-1 -1 $-1 $642 $642 $643 $644 reversed $448 $-1 #
model_id-kcp-attrib $-1 -1 $-1 $-1 $449 1 1021578773 1021578774 -1457848319 18 #
plane-surface $-1 -1 $-1 0 0 0 0 -1 0 -10 0 0 forward_v I I I I #
point $-1 -1 $-1 -45 -165 -5.3290705182007514e-015 #
straight-curve $-1 -1 $-1 -45 175 0 0 0 -1 I I #
point $-1 -1 $-1 -45 -175 -45 #
straight-curve $-1 -1 $-1 -45 0 -45 0 1 0 I I #
point $-1 -1 $-1 -45 175 -45 #
point $-1 -1 $-1 -45 60 -1.6350527702602147e-014 #
point $-1 -1 $-1 -45 170 -1.6350527702602147e-014 #
face $-1 -1 $-1 $509 $645 $43 $-1 $605 reversed single #
loop $-1 -1 $-1 $-1 $502 $485 #
plane-surface $-1 -1 $-1 45 0 0 -1 0 0 0 0 1 forward_v I I I I #
coedge $-1 -1 $-1 $489 $488 $275 $395 forward $273 $-1 #
coedge $-1 -1 $-1 $646 $647 $488 $574 forward $648 $-1 #
edge $-1 -1 $-1 $504 2.2114712646002941e-016 $495 1.5707963267948968 $573 $289 forward @7 unknown #
coedge $-1 -1 $-1 $649 $650 $489 $576 forward $645 $-1 #
edge $-1 -1 $-1 $496 -1.5707963267948968 $399 -2.2114712646002941e-016 $575 $401 forward @7 unknown #
coedge $-1 -1 $-1 $651 $490 $650 $589 forward $580 $-1 #
coedge $-1 -1 $-1 $490 $651 $646 $652 forward $580 $-1 #
coedge $-1 -1 $-1 $653 $654 $274 $392 reversed $655 $-1 #
loop $-1 -1 $-1 $-1 $490 $614 #
coedge $-1 -1 $-1 $582 $491 $654 $656 reversed $583 $-1 #
coedge $-1 -1 $-1 $491 $581 $517 $520 reversed $583 $-1 #
loop $-1 -1 $-1 $-1 $491 $657 #
coedge $-1 -1 $-1 $585 $493 $518 $416 forward $586 $-1 #
coedge $-1 -1 $-1 $493 $584 $653 $587 reversed $586 $-1 #
loop $-1 -1 $-1 $-1 $493 $658 #
edge $-1 -1 $-1 $495 3.5527136788005009e-015 $532 45 $585 $659 forward @7 unknown #
point $-1 -1 $-1 -3.5527136788005009e-015 -175 -45 #
edge $-1 -1 $-1 $496 -3.5527136788005009e-015 $606 45 $650 $660 forward @7 unknown #
point $-1 -1 $-1 -3.5527136788005009e-015 175 -45 #
coedge $-1 -1 $-1 $534 $498 $501 $594 reversed $592 $-1 #
loop $-1 -1 $-1 $-1 $498 $530 #
coedge $-1 -1 $-1 $501 $500 $600 $620 reversed $503 $-1 #
edge $-1 -1 $-1 $533 -45 $504 8.8817841970012602e-016 $501 $661 forward @7 unknown #
coedge $-1 -1 $-1 $662 $502 $647 $598 forward $570 $-1 #
coedge $-1 -1 $-1 $502 $662 $649 $510 reversed $570 $-1 #
face $-1 -1 $-1 $-1 $503 $43 $-1 $571 reversed single #
edge $-1 -1 $-1 $504 8.8817841970012602e-016 $663 45 $595 $661 forward @7 unknown #
point $-1 -1 $-1 45 -175 -8.8817841970012602e-016 #
coedge $-1 -1 $-1 $506 $523 $593 $620 forward $387 $-1 #
vertex $-1 -1 $-1 $620 $664 #
straight-curve $-1 -1 $-1 0 175 45 -1 0 0 I I #
straight-curve $-1 -1 $-1 45 175 0 0 0 -1 I I #
face $-1 -1 $-1 $657 $516 $43 $-1 $605 reversed single #
plane-surface $-1 -1 $-1 0 175 0 0 -1 0 0 0 -1 forward_v I I I I #
vertex $-1 -1 $-1 $665 $666 #
vertex $-1 -1 $-1 $512 $667 #
coedge $-1 -1 $-1 $519 $527 $514 $609 forward $528 $-1 #
edge $-1 -1 $-1 $607 -45 $405 8.8817841970012602e-016 $514 $612 forward @7 unknown #
coedge $-1 -1 $-1 $518 $517 $668 $618 reversed $486 $-1 #
vertex $-1 -1 $-1 $656 $669 #
straight-curve $-1 -1 $-1 -45 175 0 0 0 -1 I I #
edge $-1 -1 $-1 $607 -175 $525 175 $527 $670 forward @7 unknown #
face $-1 -1 $-1 $616 $580 $43 $-1 $671 reversed single #
point $-1 -1 $-1 -45 -175 45 #
face $-1 -1 $-1 $597 $528 $43 $-1 $487 reversed single #
face $-1 -1 $-1 $672 $648 $43 $-1 $531 reversed single #
edge $-1 -1 $-1 $532 -175 $611 175 $610 $673 forward @7 unknown #
point $-1 -1 $-1 -45 -175 -45 #
edge $-1 -1 $-1 $533 -175 $601 175 $593 $674 forward @7 unknown #
point $-1 -1 $-1 45 -175 45 #
point $-1 -1 $-1 -45 5 -1.6350527702602147e-014 #
model_id-kcp-attrib $-1 -1 $-1 $-1 $542 1 1021578773 1021578774 -1457848319 10 #
face $675 -1 $-1 $676 $677 $12 $-1 $678 forward single #
loop $-1 -1 $-1 $-1 $679 $542 #
cone-surface $-1 -1 $-1 0 367.5 0 0 -1 0 -25 0 0 1 I I 0 1 25 forward I I I I #
loop $-1 -1 $-1 $-1 $631 $433 #
coedge $-1 -1 $-1 $680 $680 $679 $681 reversed $543 $-1 #
coedge $-1 -1 $-1 $548 $545 $546 $634 reversed $434 $-1 #
coedge $-1 -1 $-1 $545 $548 $547 $635 forward $434 $-1 #
coedge $-1 -1 $-1 $682 $682 $545 $632 reversed $627 $-1 #
edge $683 -1 $-1 $684 1.2246063538223775e-016 $685 3.1415926535897931 $545 $686 forward @7 unknown #
coedge $-1 -1 $-1 $547 $546 $682 $687 reversed $306 $-1 #
edge $-1 -1 $-1 $552 0 $685 5.5 $629 $688 forward @7 unknown #
edge $-1 -1 $-1 $551 0 $684 5.5 $630 $689 forward @7 unknown #
attrib_edge_convexity-kcp-attrib $-1 -1 $690 $-1 $549 2 #
ellipse-curve $-1 -1 $-1 1.1102230246251565e-015 180 -4.4408920985006262e-015 0 -1 0 30 0 8.1147111599677579e-015 1 I I #
convexity-sys-attrib $-1 -1 $-1 $550 $438 #
point $-1 -1 $-1 30 180 3.6738190614671318e-015 #
point $-1 -1 $-1 -30 180 0 #
convexity-sys-attrib $-1 -1 $-1 $557 $444 #
coedge $-1 -1 $-1 $559 $559 $691 $692 reversed $448 $-1 #
coedge $-1 -1 $-1 $693 $694 $559 $644 forward $695 $-1 #
edge $-1 -1 $-1 $696 0 $697 3.1415926535897931 $559 $698 forward @7 unknown #
loop $-1 -1 $-1 $-1 $575 $569 #
coedge $-1 -1 $-1 $647 $573 $578 $652 reversed $648 $-1 #
coedge $-1 -1 $-1 $573 $646 $595 $598 reversed $648 $-1 #
loop $-1 -1 $-1 $-1 $573 $617 #
coedge $-1 -1 $-1 $650 $575 $596 $510 forward $645 $-1 #
coedge $-1 -1 $-1 $575 $649 $577 $589 reversed $645 $-1 #
coedge $-1 -1 $-1 $578 $577 $662 $665 forward $580 $-1 #
edge $-1 -1 $-1 $663 -45 $495 3.5527136788005009e-015 $646 $659 forward @7 unknown #
coedge $-1 -1 $-1 $668 $579 $585 $587 forward $655 $-1 #
coedge $-1 -1 $-1 $579 $668 $581 $656 forward $655 $-1 #
loop $-1 -1 $-1 $-1 $579 $672 #
edge $-1 -1 $-1 $611 -45 $496 -3.5527136788005009e-015 $581 $660 forward @7 unknown #
face $-1 -1 $-1 $658 $583 $43 $-1 $605 reversed single #
face $-1 -1 $-1 $415 $586 $43 $-1 $531 reversed single #
straight-curve $-1 -1 $-1 0 -175 -45 -1 0 0 I I #
straight-curve $-1 -1 $-1 0 175 -45 1 0 0 I I #
straight-curve $-1 -1 $-1 45 -175 0 0 0 -1 I I #
coedge $-1 -1 $-1 $596 $595 $651 $665 reversed $570 $-1 #
vertex $-1 -1 $-1 $598 $699 #
point $-1 -1 $-1 45 175 45 #
edge $-1 -1 $-1 $606 -175 $663 175 $662 $700 forward @7 unknown #
point $-1 -1 $-1 45 175 -45 #
point $-1 -1 $-1 -45 175 45 #
coedge $-1 -1 $-1 $654 $653 $610 $618 forward $655 $-1 #
point $-1 -1 $-1 -45 175 -45 #
straight-curve $-1 -1 $-1 -45 0 45 0 -1 0 I I #
plane-surface $-1 -1 $-1 0 0 -45 0 0 1 1 0 0 forward_v I I I I #
face $-1 -1 $-1 $524 $655 $43 $-1 $671 reversed single #
straight-curve $-1 -1 $-1 -45 0 -45 0 1 0 I I #
straight-curve $-1 -1 $-1 45 0 45 0 1 0 I I #
model_id-kcp-attrib $-1 -1 $-1 $-1 $624 1 1021578773 1021578774 -1457848319 11 #
face $701 -1 $-1 $702 $703 $12 $-1 $704 reversed single #
loop $-1 -1 $-1 $-1 $705 $624 #
cone-surface $-1 -1 $-1 0 367.5 0 0 -1 0 -25 0 0 1 I I 0 1 25 forward I I I I #
coedge $-1 -1 $-1 $706 $707 $628 $681 forward $625 $-1 #
coedge $-1 -1 $-1 $628 $628 $708 $709 forward $543 $-1 #
edge $710 -1 $-1 $711 0 $712 3.1415926535897931 $628 $713 forward @7 unknown #
coedge $-1 -1 $-1 $631 $631 $633 $687 forward $627 $-1 #
attrib_edge_convexity-kcp-attrib $-1 -1 $714 $-1 $632 1 #
vertex $-1 -1 $-1 $635 $715 #
vertex $-1 -1 $-1 $634 $716 #
ellipse-curve $-1 -1 $-1 2.2204460492503131e-015 235 -3.3306690738754696e-015 0 -1 0 30 0 3.3306690738754696e-015 1 I I #
edge $717 -1 $-1 $684 -1.2246063538223773e-016 $685 3.1415926535897931 $682 $718 forward @7 unknown #
straight-curve $-1 -1 $-1 -30 180 -7.3476381229342635e-015 0 10 0 I I #
straight-curve $-1 -1 $-1 30 180 3.6738190614671318e-015 0 10 0 I I #
convexity-sys-attrib $-1 -1 $-1 $636 $549 #
coedge $-1 -1 $-1 $719 $720 $642 $692 forward $721 $-1 #
edge $-1 -1 $-1 $697 0 $696 3.1415926535897931 $642 $722 forward @7 unknown #
coedge $-1 -1 $-1 $723 $643 $720 $724 reversed $695 $-1 #
coedge $-1 -1 $-1 $643 $723 $719 $725 forward $695 $-1 #
loop $-1 -1 $-1 $-1 $694 $726 #
vertex $-1 -1 $-1 $692 $727 #
vertex $-1 -1 $-1 $692 $728 #
ellipse-curve $-1 -1 $-1 0 0 0 0 -1 0 -15 0 0 1 I I #
point $-1 -1 $-1 45 -175 -45 #
straight-curve $-1 -1 $-1 45 0 -45 0 -1 0 I I #
model_id-kcp-attrib $-1 -1 $-1 $-1 $676 1 1021578773 1021578774 -1457848319 12 #
face $729 -1 $-1 $730 $731 $12 $-1 $732 forward single #
loop $-1 -1 $-1 $733 $734 $676 #
plane-surface $-1 -1 $-1 0 345 0 0 -1 0 -10 0 0 forward_v I I I I #
coedge $-1 -1 $-1 $735 $736 $737 $738 forward $677 $-1 #
coedge $-1 -1 $-1 $739 $679 $735 $740 forward $625 $-1 #
coedge $-1 -1 $-1 $679 $739 $736 $741 reversed $625 $-1 #
coedge $-1 -1 $-1 $736 $735 $680 $709 reversed $677 $-1 #
edge $742 -1 $-1 $711 0 $712 3.1415926535897931 $680 $743 forward @7 unknown #
attrib_edge_convexity-kcp-attrib $-1 -1 $744 $-1 $681 2 #
vertex $-1 -1 $-1 $709 $745 #
vertex $-1 -1 $-1 $709 $746 #
ellipse-curve $-1 -1 $-1 0 235 -1.1102230246251565e-015 0 1 0 25 0 4.1717389091810997e-015 1 I I #
convexity-sys-attrib $-1 -1 $-1 $683 $632 #
point $-1 -1 $-1 30 235 3.6738190614671318e-015 #
point $-1 -1 $-1 -30 235 0 #
attrib_edge_convexity-kcp-attrib $-1 -1 $747 $-1 $687 1 #
ellipse-curve $-1 -1 $-1 2.2204460492503131e-015 235 3.3306690738754696e-015 0 1 0 30 0 -3.3306690738754696e-015 1 I I #
coedge $-1 -1 $-1 $748 $691 $694 $725 reversed $721 $-1 #
coedge $-1 -1 $-1 $691 $748 $693 $724 forward $721 $-1 #
loop $-1 -1 $-1 $-1 $720 $749 #
ellipse-curve $-1 -1 $-1 0 0 0 0 -1 0 15 0 0 1 I I #
coedge $-1 -1 $-1 $694 $693 $750 $751 reversed $695 $-1 #
edge $-1 -1 $-1 $752 0 $697 35 $720 $753 forward @7 unknown #
edge $-1 -1 $-1 $754 0 $696 35 $719 $755 forward @7 unknown #
face $756 -1 $-1 $749 $695 $12 $-1 $757 reversed single #
point $-1 -1 $-1 -15 0 0 #
point $-1 -1 $-1 15 0 0 #
model_id-kcp-attrib $-1 -1 $-1 $-1 $702 1 1021578773 1021578774 -1457848319 13 #
face $758 -1 $-1 $759 $760 $12 $-1 $761 forward single #
loop $-1 -1 $-1 $-1 $762 $702 #
cone-surface $-1 -1 $-1 0 367.5 0 0 -1 0 -17.5 0 0 1 I I 0 1 17.5 forward I I I I #
loop $-1 -1 $-1 $-1 $737 $676 #
coedge $-1 -1 $-1 $763 $763 $762 $764 reversed $703 $-1 #
coedge $-1 -1 $-1 $708 $705 $706 $740 reversed $677 $-1 #
coedge $-1 -1 $-1 $705 $708 $707 $741 forward $677 $-1 #
coedge $-1 -1 $-1 $765 $765 $705 $738 reversed $733 $-1 #
edge $766 -1 $-1 $767 1.2246063538223773e-016 $768 3.1415926535897931 $705 $769 forward @7 unknown #
coedge $-1 -1 $-1 $707 $706 $765 $770 reversed $625 $-1 #
edge $-1 -1 $-1 $712 0 $768 11 $735 $771 forward @7 unknown #
edge $-1 -1 $-1 $711 0 $767 11 $736 $772 forward @7 unknown #
attrib_edge_convexity-kcp-attrib $-1 -1 $773 $-1 $709 2 #
ellipse-curve $-1 -1 $-1 0 235 0 0 -1 0 25 0 3.0615158845559431e-015 1 I I #
convexity-sys-attrib $-1 -1 $-1 $710 $681 #
point $-1 -1 $-1 25 235 3.0615158845559431e-015 #
point $-1 -1 $-1 -25 235 0 #
convexity-sys-attrib $-1 -1 $-1 $717 $687 #
coedge $-1 -1 $-1 $720 $719 $774 $775 reversed $721 $-1 #
face $776 -1 $-1 $449 $721 $12 $-1 $777 reversed single #
coedge $-1 -1 $-1 $774 $774 $723 $751 forward $778 $-1 #
edge $779 -1 $-1 $754 0 $752 3.1415926535897931 $750 $780 forward @7 unknown #
vertex $-1 -1 $-1 $775 $781 #
straight-curve $-1 -1 $-1 15 350 0 0 -10 0 I I #
vertex $-1 -1 $-1 $775 $782 #
straight-curve $-1 -1 $-1 -15 350 1.8369095307335659e-015 0 -10 0 I I #
model_id-kcp-attrib $-1 -1 $-1 $-1 $726 1 1021578773 1021578774 -1457848319 16 #
cone-surface $-1 -1 $-1 0 350 0 0 -1 0 15 0 0 1 I I 0 1 15 forward I I I I #
model_id-kcp-attrib $-1 -1 $-1 $-1 $730 1 1021578773 1021578774 -1457848319 14 #
face $783 -1 $-1 $726 $784 $12 $-1 $785 reversed single #
loop $-1 -1 $-1 $-1 $786 $730 #
cone-surface $-1 -1 $-1 0 367.5 0 0 -1 0 -17.5 0 0 1 I I 0 1 17.5 forward I I I I #
coedge $-1 -1 $-1 $787 $788 $734 $764 forward $731 $-1 #
coedge $-1 -1 $-1 $734 $734 $789 $790 forward $703 $-1 #
edge $791 -1 $-1 $792 0 $793 3.1415926535897931 $734 $794 forward @7 unknown #
coedge $-1 -1 $-1 $737 $737 $739 $770 forward $733 $-1 #
attrib_edge_convexity-kcp-attrib $-1 -1 $795 $-1 $738 1 #
vertex $-1 -1 $-1 $741 $796 #
vertex $-1 -1 $-1 $740 $797 #
ellipse-curve $-1 -1 $-1 0 345 0 0 -1 0 25 0 0 1 I I #
edge $798 -1 $-1 $767 -1.2246063538223773e-016 $768 3.1415926535897931 $765 $799 forward @7 unknown #
straight-curve $-1 -1 $-1 -25 235 -6.1230317691118863e-015 0 10 0 I I #
straight-curve $-1 -1 $-1 25 235 3.0615158845559431e-015 0 10 0 I I #
convexity-sys-attrib $-1 -1 $-1 $742 $709 #
coedge $-1 -1 $-1 $750 $750 $748 $775 forward $778 $-1 #
edge $800 -1 $-1 $752 0 $754 3.1415926535897931 $774 $801 forward @7 unknown #
model_id-kcp-attrib $-1 -1 $-1 $-1 $749 1 1021578773 1021578774 -1457848319 17 #
cone-surface $-1 -1 $-1 0 350 0 0 -1 0 15 0 0 1 I I 0 1 15 forward I I I I #
loop $-1 -1 $-1 $-1 $750 $759 #
attrib_edge_convexity-kcp-attrib $-1 -1 $802 $-1 $751 1 #
ellipse-curve $-1 -1 $-1 0 350 0 0 -1 0 -15 0 0 1 I I #
point $-1 -1 $-1 15 350 0 #
point $-1 -1 $-1 -15 350 0 #
model_id-kcp-attrib $-1 -1 $-1 $-1 $759 1 1021578773 1021578774 -1457848319 15 #
loop $-1 -1 $-1 $778 $803 $759 #
plane-surface $-1 -1 $-1 0 350 0 0 -1 0 -10 0 0 forward_v I I I I #
coedge $-1 -1 $-1 $804 $805 $803 $806 forward $760 $-1 #
coedge $-1 -1 $-1 $807 $762 $804 $808 forward $731 $-1 #
coedge $-1 -1 $-1 $762 $807 $805 $809 reversed $731 $-1 #
coedge $-1 -1 $-1 $805 $804 $763 $790 reversed $760 $-1 #
edge $810 -1 $-1 $792 0 $793 3.1415926535897931 $763 $811 forward @7 unknown #
attrib_edge_convexity-kcp-attrib $-1 -1 $812 $-1 $764 2 #
vertex $-1 -1 $-1 $790 $813 #
vertex $-1 -1 $-1 $790 $814 #
ellipse-curve $-1 -1 $-1 0 345 5.5511151231257827e-016 0 1 0 17.5 0 1.5879496068765819e-015 1 I I #
convexity-sys-attrib $-1 -1 $-1 $766 $738 #
point $-1 -1 $-1 25 345 3.0615158845559431e-015 #
point $-1 -1 $-1 -25 345 0 #
attrib_edge_convexity-kcp-attrib $-1 -1 $815 $-1 $770 1 #
ellipse-curve $-1 -1 $-1 0 345 0 0 1 0 25 0 0 1 I I #
attrib_edge_convexity-kcp-attrib $-1 -1 $816 $-1 $775 1 #
ellipse-curve $-1 -1 $-1 0 350 0 0 -1 0 15 0 0 1 I I #
convexity-sys-attrib $-1 -1 $-1 $779 $751 #
coedge $-1 -1 $-1 $817 $817 $786 $806 reversed $784 $-1 #
coedge $-1 -1 $-1 $789 $786 $787 $808 reversed $760 $-1 #
coedge $-1 -1 $-1 $786 $789 $788 $809 forward $760 $-1 #
edge $818 -1 $-1 $819 1.2246063538223773e-016 $820 3.1415926535897931 $786 $821 forward @7 unknown #
coedge $-1 -1 $-1 $788 $787 $817 $822 reversed $731 $-1 #
edge $-1 -1 $-1 $793 0 $820 0.5 $804 $823 forward @7 unknown #
edge $-1 -1 $-1 $792 0 $819 0.5 $805 $824 forward @7 unknown #
attrib_edge_convexity-kcp-attrib $-1 -1 $825 $-1 $790 2 #
ellipse-curve $-1 -1 $-1 0 345 -5.5511151231257827e-016 0 -1 0 17.5 0 2.6981726315017385e-015 1 I I #
convexity-sys-attrib $-1 -1 $-1 $791 $764 #
point $-1 -1 $-1 17.5 345 2.1430611191891602e-015 #
point $-1 -1 $-1 -17.5 345 0 #
convexity-sys-attrib $-1 -1 $-1 $798 $770 #
convexity-sys-attrib $-1 -1 $-1 $800 $775 #
coedge $-1 -1 $-1 $803 $803 $807 $822 forward $784 $-1 #
attrib_edge_convexity-kcp-attrib $-1 -1 $826 $-1 $806 1 #
vertex $-1 -1 $-1 $809 $827 #
vertex $-1 -1 $-1 $808 $828 #
ellipse-curve $-1 -1 $-1 0 350 -1.1102230246251565e-015 0 -1 0 17.5 0 1.1102230246251565e-015 1 I I #
edge $829 -1 $-1 $819 -1.2246063538223773e-016 $820 3.1415926535897931 $817 $830 forward @7 unknown #
straight-curve $-1 -1 $-1 -17.5 345 -4.2861222383783204e-015 0 10 0 I I #
straight-curve $-1 -1 $-1 17.5 345 2.1430611191891602e-015 0 10 0 I I #
convexity-sys-attrib $-1 -1 $-1 $810 $790 #
convexity-sys-attrib $-1 -1 $-1 $818 $806 #
point $-1 -1 $-1 17.5 350 2.1430611191891602e-015 #
point $-1 -1 $-1 -17.5 350 0 #
attrib_edge_convexity-kcp-attrib $-1 -1 $831 $-1 $822 1 #
ellipse-curve $-1 -1 $-1 0 350 1.1102230246251565e-015 0 1 0 17.5 0 -1.1102230246251565e-015 1 I I #
convexity-sys-attrib $-1 -1 $-1 $829 $822 #
End-of-ACIS-data 