600 0 1 0           
95 GICL ACIS Healer - Source: /gicl/data5/repository/PTC/V18/asmdes18/parts/countershaft.sat - 6 0 18 ACIS 6.0.3 Solaris 24 Sat Apr 13 22:59:52 2002 
1 9.999999999999999547e-07 1.000000000000000036e-10 
body $-1 $1 $-1 $-1 #
lump $-1 $-1 $2 $0 #
shell $-1 $-1 $-1 $3 $-1 $1 #
face $-1 $4 $5 $2 $-1 $6 reversed single #
face $-1 $7 $8 $2 $-1 $9 forward single #
loop $-1 $-1 $10 $3 #
plane-surface $-1 0 0 0 0 1 0 10 0 0 forward_v I I I I #
face $-1 $11 $12 $2 $-1 $13 forward single #
loop $-1 $-1 $14 $4 #
cone-surface $-1 0 0 0 0 -1 0 9.999999999999998224 0 0 1 I I -0.7071067811865474617 0.7071067811865475727 9.999999999999998224 forward I I I I #
coedge $-1 $15 $15 $16 $17 reversed $5 $-1 #
face $-1 $18 $19 $2 $-1 $20 forward single #
loop $-1 $-1 $21 $7 #
cone-surface $-1 0 0 0 0 -1 0 9.999999999999998224 0 0 1 I I -0.7071067811865474617 0.7071067811865475727 9.999999999999998224 forward I I I I #
coedge $-1 $22 $16 $23 $24 forward $8 $-1 #
coedge $-1 $10 $10 $25 $26 reversed $5 $-1 #
coedge $-1 $14 $27 $10 $17 forward $8 $-1 #
edge $-1 $28 -3.155443620884048382e-32 $29 3.141592653589793116 $10 $30 forward 7 unknown #
face $-1 $31 $32 $2 $-1 $33 forward single #
loop $-1 $-1 $34 $11 #
cone-surface $-1 0 0 0 0 1 0 15 0 0 1 I I 0 1 15 forward I I I I #
coedge $-1 $35 $25 $27 $36 forward $12 $-1 #
coedge $-1 $27 $14 $37 $38 reversed $8 $-1 #
coedge $-1 $25 $35 $14 $24 reversed $12 $-1 #
edge $-1 $29 0 $39 0.7071067811865475727 $14 $40 forward 7 unknown #
coedge $-1 $21 $23 $15 $26 forward $12 $-1 #
edge $-1 $29 0 $28 3.141592653589793116 $15 $41 forward 7 unknown #
coedge $-1 $16 $22 $21 $36 reversed $8 $-1 #
vertex $-1 $26 $42 #
vertex $-1 $26 $43 #
ellipse-curve $-1 2.775557561562891351e-16 0 5.551115123125782702e-16 0 1 0 -9.999999999999998224 0 -1.779717866134955134e-15 1 I I #
face $-1 $44 $45 $2 $-1 $46 forward single #
loop $-1 $-1 $47 $18 #
cone-surface $-1 0 0 0 0 1 0 15 0 0 1 I I 0 1 15 forward I I I I #
coedge $-1 $48 $49 $50 $51 forward $19 $-1 #
coedge $-1 $23 $21 $49 $52 reversed $12 $-1 #
edge $-1 $28 -1.246873975311752595e-31 $53 0.7071067811865475727 $27 $54 forward 7 unknown #
coedge $-1 $47 $50 $22 $38 forward $32 $-1 #
edge $-1 $53 4.440892098500627148e-16 $39 3.141592653589793116 $37 $55 forward 7 unknown #
vertex $-1 $52 $56 #
straight-curve $-1 9.999999999999998224 0 0 7.071067811865474617 7.071067811865475505 0 I I #
ellipse-curve $-1 -2.775557561562891351e-16 0 2.775557561562891351e-16 0 1 0 9.999999999999998224 0 -2.775557561562891351e-16 1 I I #
point $-1 -9.999999999999998224 0 -1.224606353822377061e-15 #
point $-1 9.999999999999998224 0 0 #
face $-1 $57 $58 $2 $-1 $59 forward single #
loop $-1 $-1 $60 $31 #
cone-surface $-1 0 440 0 0 1 0 10.00000000000000178 0 0 1 I I -0.7071067811865475727 0.7071067811865474617 10.00000000000000178 forward I I I I #
coedge $-1 $61 $37 $62 $63 forward $32 $-1 #
coedge $-1 $62 $34 $64 $65 reversed $19 $-1 #
coedge $-1 $34 $62 $35 $52 forward $19 $-1 #
coedge $-1 $37 $61 $34 $51 reversed $32 $-1 #
edge $-1 $53 0 $66 43 $34 $67 forward 7 unknown #
edge $-1 $39 0 $53 3.141592653589793116 $49 $68 forward 7 unknown #
vertex $-1 $52 $69 #
straight-curve $-1 -9.999999999999998224 0 1.224606353822377061e-15 -7.071067811865474617 7.071067811865475505 5.090917466742971568e-15 I I #
ellipse-curve $-1 -1.11022302462515654e-15 5 0 0 1 0 -14.99999999999999645 0 -1.836909530733565493e-15 1 I I #
point $-1 14.99999999999999822 5 0 #
face $-1 $-1 $70 $2 $-1 $71 forward single #
loop $-1 $-1 $72 $44 #
cone-surface $-1 0 440 0 0 1 0 10.00000000000000178 0 0 1 I I -0.7071067811865475727 0.7071067811865474617 10.00000000000000178 forward I I I I #
coedge $-1 $73 $74 $75 $76 forward $45 $-1 #
coedge $-1 $50 $47 $73 $77 reversed $32 $-1 #
coedge $-1 $49 $48 $47 $63 reversed $19 $-1 #
edge $-1 $39 0 $78 43 $62 $79 forward 7 unknown #
coedge $-1 $75 $72 $48 $65 forward $58 $-1 #
edge $-1 $78 0 $66 3.141592653589793116 $48 $80 forward 7 unknown #
vertex $-1 $65 $81 #
straight-curve $-1 -15 5 -1.836909530733565887e-15 0 10 0 I I #
ellipse-curve $-1 -5.551115123125782702e-16 5 5.551115123125782702e-16 0 1 0 14.99999999999999822 0 -5.551115123125782702e-16 1 I I #
point $-1 -14.99999999999999822 5 4.824428617017372566e-15 #
loop $-1 $-1 $82 $57 #
plane-surface $-1 0 440 0 0 1 0 10 0 0 forward_v I I I I #
coedge $-1 $64 $83 $84 $85 forward $58 $-1 #
coedge $-1 $84 $60 $61 $77 forward $45 $-1 #
coedge $-1 $60 $84 $82 $86 reversed $45 $-1 #
coedge $-1 $83 $64 $60 $76 reversed $58 $-1 #
edge $-1 $87 0 $66 0.7071067811865476838 $60 $88 forward 7 unknown #
edge $-1 $66 0 $78 3.141592653589793116 $61 $89 forward 7 unknown #
vertex $-1 $63 $90 #
straight-curve $-1 15 5 0 0 10 0 I I #
ellipse-curve $-1 -5.551115123125782702e-16 435 5.551115123125782702e-16 0 1 0 15.00000000000000355 0 -5.551115123125782702e-16 1 I I #
point $-1 -15.00000000000000355 435 -1.836909530733566282e-15 #
coedge $-1 $91 $91 $74 $86 forward $70 $-1 #
coedge $-1 $72 $75 $91 $92 reversed $58 $-1 #
coedge $-1 $74 $73 $72 $85 reversed $45 $-1 #
edge $-1 $93 0 $78 0.7071067811865476838 $84 $94 forward 7 unknown #
edge $-1 $87 3.155443620884045645e-32 $93 3.141592653589793116 $82 $95 forward 7 unknown #
vertex $-1 $92 $96 #
straight-curve $-1 -10.00000000000000178 440 -1.224606353822377455e-15 -7.071067811865477282 -7.071067811865473729 8.554627295030714719e-15 I I #
ellipse-curve $-1 0 435 -5.551115123125782702e-16 0 1 0 -15.00000000000000355 0 -1.281798018420988012e-15 1 I I #
point $-1 15.00000000000000355 435 0 #
coedge $-1 $82 $82 $83 $92 forward $70 $-1 #
edge $-1 $93 0 $87 3.141592653589793116 $91 $97 forward 7 unknown #
vertex $-1 $92 $98 #
straight-curve $-1 10.00000000000000178 440 0 7.071067811865477282 -7.071067811865473729 0 I I #
ellipse-curve $-1 0 440 5.551115123125782702e-16 0 1 0 -10.00000000000000178 0 -1.779717866134955923e-15 1 I I #
point $-1 -10.00000000000000178 440 -1.224606353822377455e-15 #
ellipse-curve $-1 1.11022302462515654e-15 440 -1.665334536937734811e-15 0 1 0 10 0 1.665334536937734811e-15 1 I I #
point $-1 10.00000000000000178 440 0 #
End-of-ACIS-data 