700 0 2 0           
24 FBMach with ACIS - 7.0.3 13 ACIS 7.0.3 NT 24 Thu May 16 15:47:57 2002 
1 9.9999999999999995e-007 1e-010 
body $2 -1 $-1 $3 $-1 $4 #
bdycol-kcp $-1 -1 1 2 $5 $6 #
model_id-kcp-attrib $-1 -1 $-1 $-1 $0 1 1021578477 1021578477 1689518081 1 #
lump $-1 -1 $-1 $-1 $7 $0 #
transform $-1 -1 1 0 0 0 1 0 0 0 1 0 0 0 1 rotate no_reflect no_shear #
body $8 -1 $-1 $9 $-1 $10 #
body $11 -1 $-1 $12 $-1 $13 #
shell $-1 -1 $-1 $-1 $-1 $14 $-1 $3 #
rgb_color-st-attrib $-1 -1 $15 $-1 $5 0.5 1 1 #
lump $-1 -1 $-1 $-1 $16 $5 #
transform $-1 -1 1 0 0 0 1 0 0 0 1 0 220 0 1 no_rotate no_reflect no_shear #
model_id-kcp-attrib $-1 -1 $-1 $-1 $6 1 1021578477 1021578477 1689518082 1 #
lump $-1 -1 $-1 $-1 $17 $6 #
transform $-1 -1 1 0 0 0 1 0 0 0 1 0 220 0 1 no_rotate no_reflect no_shear #
face $18 -1 $-1 $19 $20 $7 $-1 $21 reversed single #
model_id-kcp-attrib $-1 -1 $-1 $8 $5 1 1021578477 1021578477 1679294467 1 #
shell $-1 -1 $-1 $-1 $-1 $22 $-1 $9 #
shell $-1 -1 $-1 $-1 $-1 $23 $-1 $12 #
model_id-kcp-attrib $-1 -1 $-1 $-1 $14 1 1021578477 1021578477 1689518081 2 #
face $24 -1 $-1 $25 $26 $7 $-1 $27 forward single #
loop $-1 -1 $-1 $-1 $28 $14 #
plane-surface $-1 -1 $-1 0 0 0 0 1 0 10 0 0 forward_v I I I I #
face $-1 -1 $-1 $29 $30 $16 $-1 $31 reversed single #
face $-1 -1 $-1 $32 $33 $17 $-1 $34 forward single #
model_id-kcp-attrib $-1 -1 $-1 $-1 $19 1 1021578477 1021578477 1689518081 3 #
face $35 -1 $-1 $36 $37 $7 $-1 $38 forward single #
loop $-1 -1 $-1 $-1 $39 $19 #
cone-surface $-1 -1 $-1 0 0 0 0 -1 0 9.9999999999999982 0 0 1 I I -0.70710678118654746 0.70710678118654757 9.9999999999999982 forward I I I I #
coedge $-1 -1 $-1 $40 $40 $41 $42 reversed $20 $-1 #
face $-1 -1 $-1 $43 $44 $16 $-1 $31 reversed single #
loop $-1 -1 $-1 $-1 $45 $22 #
cone-surface $-1 -1 $-1 -2.224762281543356e-032 -220 5.5511151231257827e-016 0 -1 0 15.000000000000004 0 -5.5511151231257827e-016 1 I I 0 1 15.000000000000004 forward I I I I #
face $-1 -1 $-1 $46 $47 $17 $-1 $48 reversed single #
loop $-1 -1 $-1 $-1 $49 $23 #
plane-surface $-1 -1 $-1 0 0 15.000000000000004 0 0 1 1 0 0 forward_v I I I I #
model_id-kcp-attrib $-1 -1 $-1 $-1 $25 1 1021578477 1021578477 1689518081 4 #
face $50 -1 $-1 $51 $52 $7 $-1 $53 forward single #
loop $-1 -1 $-1 $-1 $54 $25 #
cone-surface $-1 -1 $-1 0 0 0 0 -1 0 9.9999999999999982 0 0 1 I I -0.70710678118654746 0.70710678118654757 9.9999999999999982 forward I I I I #
coedge $-1 -1 $-1 $55 $41 $56 $57 forward $26 $-1 #
coedge $-1 -1 $-1 $28 $28 $58 $59 reversed $20 $-1 #
coedge $-1 -1 $-1 $39 $60 $28 $42 forward $26 $-1 #
edge $61 -1 $-1 $62 -3.1554436208840484e-032 $63 3.1415926535897931 $28 $64 forward @7 unknown #
face $-1 -1 $-1 $65 $66 $16 $-1 $31 reversed single #
loop $-1 -1 $-1 $-1 $67 $29 #
coedge $-1 -1 $-1 $68 $69 $70 $71 reversed $30 $-1 #
face $72 -1 $-1 $73 $74 $17 $-1 $75 reversed single #
loop $-1 -1 $-1 $-1 $76 $32 #
plane-surface $-1 -1 $-1 0 0 -15.000000000000004 0 0 1 1 0 0 forward_v I I I I #
coedge $-1 -1 $-1 $77 $78 $79 $80 forward $33 $-1 #
model_id-kcp-attrib $-1 -1 $-1 $-1 $36 1 1021578477 1021578477 1689518081 5 #
face $81 -1 $-1 $82 $83 $7 $-1 $84 forward single #
loop $-1 -1 $-1 $-1 $85 $36 #
cone-surface $-1 -1 $-1 0 0 0 0 1 0 15 0 0 1 I I 0 1 15 forward I I I I #
coedge $-1 -1 $-1 $86 $58 $60 $87 forward $37 $-1 #
coedge $-1 -1 $-1 $60 $39 $88 $89 reversed $26 $-1 #
coedge $-1 -1 $-1 $58 $86 $39 $57 reversed $37 $-1 #
edge $-1 -1 $-1 $63 0 $90 0.70710678118654757 $39 $91 forward @7 unknown #
coedge $-1 -1 $-1 $54 $56 $40 $59 forward $37 $-1 #
edge $92 -1 $-1 $63 0 $62 3.1415926535897931 $40 $93 forward @7 unknown #
coedge $-1 -1 $-1 $41 $55 $54 $87 reversed $26 $-1 #
attrib_edge_convexity-kcp-attrib $-1 -1 $94 $-1 $42 1 #
vertex $-1 -1 $-1 $59 $95 #
vertex $-1 -1 $-1 $59 $96 #
ellipse-curve $-1 -1 $-1 2.7755575615628914e-016 0 5.5511151231257827e-016 0 1 0 -9.9999999999999982 0 -1.7797178661349551e-015 1 I I #
face $-1 -1 $-1 $97 $98 $16 $-1 $31 reversed single #
loop $-1 -1 $-1 $-1 $99 $43 #
coedge $-1 -1 $-1 $100 $101 $102 $103 reversed $44 $-1 #
coedge $-1 -1 $-1 $104 $45 $105 $106 forward $30 $-1 #
coedge $-1 -1 $-1 $45 $104 $107 $108 reversed $30 $-1 #
coedge $-1 -1 $-1 $109 $110 $45 $71 forward $111 $-1 #
edge $-1 -1 $-1 $112 3.700743415417187e-017 $113 1.5707963267948966 $70 $114 forward @7 unknown #
model_id-kcp-attrib $-1 -1 $-1 $-1 $46 1 1021578477 1021578477 1689518082 2 #
face $-1 -1 $-1 $115 $116 $17 $-1 $117 reversed single #
loop $-1 -1 $-1 $-1 $118 $46 #
plane-surface $-1 -1 $-1 0 -220 0 0 1 0 0 0 1 forward_v I I I I #
coedge $-1 -1 $-1 $119 $120 $121 $122 forward $47 $-1 #
coedge $-1 -1 $-1 $123 $49 $124 $125 forward $33 $-1 #
coedge $-1 -1 $-1 $49 $123 $126 $127 forward $33 $-1 #
coedge $-1 -1 $-1 $128 $129 $49 $80 reversed $130 $-1 #
edge $-1 -1 $-1 $131 -220 $132 220 $79 $133 forward @7 unknown #
model_id-kcp-attrib $-1 -1 $-1 $-1 $51 1 1021578477 1021578477 1689518081 6 #
face $134 -1 $-1 $135 $136 $7 $-1 $137 forward single #
loop $-1 -1 $-1 $-1 $138 $51 #
cone-surface $-1 -1 $-1 0 0 0 0 1 0 15 0 0 1 I I 0 1 15 forward I I I I #
coedge $-1 -1 $-1 $139 $140 $141 $142 forward $52 $-1 #
coedge $-1 -1 $-1 $56 $54 $140 $143 reversed $37 $-1 #
edge $-1 -1 $-1 $62 -1.2468739753117526e-031 $144 0.70710678118654757 $60 $145 forward @7 unknown #
coedge $-1 -1 $-1 $138 $141 $55 $89 forward $83 $-1 #
edge $-1 -1 $-1 $144 4.4408920985006271e-016 $90 3.1415926535897931 $88 $146 forward @7 unknown #
vertex $-1 -1 $-1 $143 $147 #
straight-curve $-1 -1 $-1 9.9999999999999982 0 0 7.0710678118654746 7.0710678118654755 0 I I #
attrib_edge_convexity-kcp-attrib $-1 -1 $148 $-1 $59 1 #
ellipse-curve $-1 -1 $-1 -2.7755575615628914e-016 0 2.7755575615628914e-016 0 1 0 9.9999999999999982 0 -2.7755575615628914e-016 1 I I #
convexity-sys-attrib $-1 -1 $-1 $61 $42 #
point $-1 -1 $-1 -9.9999999999999982 0 -1.2246063538223771e-015 #
point $-1 -1 $-1 9.9999999999999982 0 0 #
face $-1 -1 $-1 $149 $150 $16 $-1 $151 forward single #
loop $-1 -1 $-1 $-1 $152 $65 #
coedge $-1 -1 $-1 $153 $154 $152 $155 forward $66 $-1 #
coedge $-1 -1 $-1 $156 $67 $157 $158 reversed $44 $-1 #
coedge $-1 -1 $-1 $67 $156 $69 $108 forward $44 $-1 #
coedge $-1 -1 $-1 $159 $160 $67 $103 forward $161 $-1 #
edge $-1 -1 $-1 $162 -3.1415926535897931 $163 -1.5707963267948966 $102 $164 forward @7 unknown #
coedge $-1 -1 $-1 $69 $68 $165 $166 reversed $30 $-1 #
coedge $-1 -1 $-1 $154 $153 $167 $106 reversed $66 $-1 #
edge $-1 -1 $-1 $112 -440 $168 0 $167 $169 forward @7 unknown #
coedge $-1 -1 $-1 $170 $171 $172 $108 forward $173 $-1 #
edge $-1 -1 $-1 $113 -440 $163 0 $107 $174 forward @7 unknown #
coedge $-1 -1 $-1 $110 $70 $171 $175 reversed $111 $-1 #
coedge $-1 -1 $-1 $70 $109 $176 $177 forward $111 $-1 #
loop $-1 -1 $-1 $-1 $70 $178 #
vertex $-1 -1 $-1 $179 $180 #
vertex $-1 -1 $-1 $181 $182 #
ellipse-curve $-1 -1 $-1 -2.224762281543356e-032 220 5.5511151231257827e-016 0 -1 0 15.000000000000004 0 -5.5511151231257827e-016 1 I I #
face $183 -1 $-1 $184 $185 $17 $-1 $186 reversed single #
loop $-1 -1 $-1 $-1 $187 $73 #
plane-surface $-1 -1 $-1 -15.000000000000004 0 0 1 0 0 0 0 -1 forward_v I I I I #
coedge $-1 -1 $-1 $188 $126 $189 $190 forward $74 $-1 #
coedge $-1 -1 $-1 $191 $76 $188 $192 forward $47 $-1 #
coedge $-1 -1 $-1 $76 $191 $193 $194 forward $47 $-1 #
coedge $-1 -1 $-1 $129 $128 $76 $122 reversed $130 $-1 #
edge $-1 -1 $-1 $195 -220 $196 220 $121 $197 forward @7 unknown #
coedge $-1 -1 $-1 $78 $77 $198 $199 forward $33 $-1 #
coedge $-1 -1 $-1 $200 $201 $77 $125 reversed $185 $-1 #
edge $-1 -1 $-1 $132 -15.000000000000004 $202 15.000000000000004 $124 $203 forward @7 unknown #
coedge $-1 -1 $-1 $118 $204 $78 $127 reversed $74 $-1 #
edge $-1 -1 $-1 $205 -15.000000000000004 $131 15.000000000000004 $126 $206 forward @7 unknown #
coedge $-1 -1 $-1 $121 $79 $204 $207 forward $130 $-1 #
coedge $-1 -1 $-1 $79 $121 $200 $208 reversed $130 $-1 #
loop $-1 -1 $-1 $-1 $128 $184 #
vertex $-1 -1 $-1 $80 $209 #
vertex $-1 -1 $-1 $80 $210 #
straight-curve $-1 -1 $-1 15.000000000000004 0 15.000000000000004 0 1 0 I I #
model_id-kcp-attrib $-1 -1 $-1 $-1 $82 1 1021578477 1021578477 1689518081 7 #
face $211 -1 $-1 $212 $213 $7 $-1 $214 forward single #
loop $-1 -1 $-1 $-1 $215 $82 #
cone-surface $-1 -1 $-1 0 440 0 0 1 0 10.000000000000002 0 0 1 I I -0.70710678118654757 0.70710678118654746 10.000000000000002 forward I I I I #
coedge $-1 -1 $-1 $216 $88 $217 $218 forward $83 $-1 #
coedge $-1 -1 $-1 $217 $85 $219 $220 reversed $52 $-1 #
coedge $-1 -1 $-1 $85 $217 $86 $143 forward $52 $-1 #
coedge $-1 -1 $-1 $88 $216 $85 $142 reversed $83 $-1 #
edge $-1 -1 $-1 $144 0 $221 43 $85 $222 forward @7 unknown #
edge $-1 -1 $-1 $90 0 $144 3.1415926535897931 $140 $223 forward @7 unknown #
vertex $-1 -1 $-1 $143 $224 #
straight-curve $-1 -1 $-1 -9.9999999999999982 0 1.2246063538223771e-015 -7.0710678118654746 7.0710678118654755 5.0909174667429716e-015 I I #
ellipse-curve $-1 -1 $-1 -1.1102230246251565e-015 5 0 0 1 0 -14.999999999999996 0 -1.8369095307335655e-015 1 I I #
point $-1 -1 $-1 14.999999999999998 5 0 #
convexity-sys-attrib $-1 -1 $-1 $92 $59 #
face $-1 -1 $-1 $225 $226 $16 $-1 $227 reversed single #
loop $-1 -1 $-1 $-1 $172 $97 #
plane-surface $-1 -1 $-1 0 0 15.000000000000004 0 0 1 1 0 0 forward_v I I I I #
coedge $-1 -1 $-1 $228 $229 $230 $155 reversed $98 $-1 #
coedge $-1 -1 $-1 $105 $99 $231 $232 reversed $66 $-1 #
coedge $-1 -1 $-1 $99 $105 $233 $234 reversed $66 $-1 #
edge $-1 -1 $-1 $235 -440 $236 0 $230 $237 forward @7 unknown #
coedge $-1 -1 $-1 $101 $100 $238 $239 reversed $44 $-1 #
coedge $-1 -1 $-1 $240 $241 $242 $158 forward $243 $-1 #
edge $-1 -1 $-1 $244 -440 $162 0 $157 $245 forward @7 unknown #
coedge $-1 -1 $-1 $160 $102 $246 $247 reversed $161 $-1 #
coedge $-1 -1 $-1 $102 $159 $240 $248 forward $161 $-1 #
loop $-1 -1 $-1 $-1 $102 $249 #
vertex $-1 -1 $-1 $250 $251 #
vertex $-1 -1 $-1 $252 $253 #
ellipse-curve $-1 -1 $-1 -2.224762281543356e-032 -220 5.5511151231257827e-016 0 1 0 15.000000000000004 0 -5.5511151231257827e-016 1 I I #
coedge $-1 -1 $-1 $254 $255 $104 $166 forward $256 $-1 #
edge $-1 -1 $-1 $163 -1.5707963267948966 $168 -3.700743415417187e-017 $165 $164 forward @7 unknown #
coedge $-1 -1 $-1 $257 $258 $259 $106 forward $226 $-1 #
vertex $-1 -1 $-1 $260 $261 #
straight-curve $-1 -1 $-1 15.000000000000004 -220 5.5511151231257827e-016 0 -1 0 I I #
coedge $-1 -1 $-1 $262 $107 $255 $252 forward $173 $-1 #
coedge $-1 -1 $-1 $107 $262 $109 $175 forward $173 $-1 #
coedge $-1 -1 $-1 $263 $246 $101 $108 reversed $150 $-1 #
loop $-1 -1 $-1 $-1 $107 $264 #
straight-curve $-1 -1 $-1 -2.224762281543356e-032 -220 15.000000000000004 0 -1 0 I I #
edge $-1 -1 $-1 $265 -15.000000000000004 $113 2.224762281543356e-032 $109 $266 forward @7 unknown #
coedge $-1 -1 $-1 $267 $259 $110 $177 reversed $268 $-1 #
edge $-1 -1 $-1 $265 -15.000000000000004 $112 -5.5511151231257827e-016 $176 $269 forward @7 unknown #
face $-1 -1 $-1 $270 $111 $16 $-1 $271 reversed single #
edge $-1 -1 $-1 $112 -5.5511151231257827e-016 $272 15.000000000000004 $258 $269 forward @7 unknown #
point $-1 -1 $-1 15.000000000000004 220 5.5511151231257827e-016 #
edge $-1 -1 $-1 $113 2.224762281543356e-032 $273 15.000000000000004 $274 $266 forward @7 unknown #
point $-1 -1 $-1 -2.224762281543356e-032 220 15.000000000000004 #
model_id-kcp-attrib $-1 -1 $-1 $-1 $115 1 1021578477 1021578477 1689518082 3 #
face $-1 -1 $-1 $-1 $130 $17 $-1 $275 reversed single #
loop $-1 -1 $-1 $-1 $200 $115 #
plane-surface $-1 -1 $-1 0 220 0 0 -1 0 0 0 -1 forward_v I I I I #
coedge $-1 -1 $-1 $276 $198 $201 $277 forward $116 $-1 #
coedge $-1 -1 $-1 $204 $118 $119 $192 reversed $74 $-1 #
coedge $-1 -1 $-1 $198 $276 $118 $190 reversed $116 $-1 #
edge $-1 -1 $-1 $205 -15.000000000000004 $278 15.000000000000004 $189 $279 forward @7 unknown #
coedge $-1 -1 $-1 $120 $119 $276 $280 forward $47 $-1 #
edge $-1 -1 $-1 $196 -15.000000000000004 $278 15.000000000000004 $188 $281 forward @7 unknown #
coedge $-1 -1 $-1 $201 $200 $120 $194 reversed $185 $-1 #
edge $-1 -1 $-1 $282 -15.000000000000004 $195 15.000000000000004 $193 $283 forward @7 unknown #
vertex $-1 -1 $-1 $122 $284 #
vertex $-1 -1 $-1 $207 $285 #
straight-curve $-1 -1 $-1 15.000000000000004 0 -15.000000000000004 0 -1 0 I I #
coedge $-1 -1 $-1 $187 $189 $123 $199 reversed $116 $-1 #
edge $-1 -1 $-1 $202 -220 $205 220 $198 $286 forward @7 unknown #
coedge $-1 -1 $-1 $193 $124 $129 $208 forward $185 $-1 #
coedge $-1 -1 $-1 $124 $193 $187 $277 reversed $185 $-1 #
vertex $-1 -1 $-1 $125 $287 #
straight-curve $-1 -1 $-1 0 220 15.000000000000004 -1 0 0 I I #
coedge $-1 -1 $-1 $126 $188 $128 $207 reversed $74 $-1 #
vertex $-1 -1 $-1 $199 $288 #
straight-curve $-1 -1 $-1 0 -220 15.000000000000004 1 0 0 I I #
edge $-1 -1 $-1 $131 -15.000000000000004 $196 15.000000000000004 $128 $289 forward @7 unknown #
edge $-1 -1 $-1 $132 -15.000000000000004 $195 15.000000000000004 $129 $290 forward @7 unknown #
point $-1 -1 $-1 15.000000000000004 -220 15.000000000000004 #
point $-1 -1 $-1 15.000000000000004 220 15.000000000000004 #
model_id-kcp-attrib $-1 -1 $-1 $-1 $135 1 1021578477 1021578477 1689518081 8 #
face $291 -1 $-1 $-1 $292 $7 $-1 $293 forward single #
loop $-1 -1 $-1 $-1 $294 $135 #
cone-surface $-1 -1 $-1 0 440 0 0 1 0 10.000000000000002 0 0 1 I I -0.70710678118654757 0.70710678118654746 10.000000000000002 forward I I I I #
coedge $-1 -1 $-1 $295 $296 $297 $298 forward $136 $-1 #
coedge $-1 -1 $-1 $141 $138 $295 $299 reversed $83 $-1 #
coedge $-1 -1 $-1 $140 $139 $138 $218 reversed $52 $-1 #
edge $-1 -1 $-1 $90 0 $300 43 $217 $301 forward @7 unknown #
coedge $-1 -1 $-1 $297 $294 $139 $220 forward $213 $-1 #
edge $-1 -1 $-1 $300 0 $221 3.1415926535897931 $139 $302 forward @7 unknown #
vertex $-1 -1 $-1 $220 $303 #
straight-curve $-1 -1 $-1 -15 5 -1.8369095307335659e-015 0 10 0 I I #
ellipse-curve $-1 -1 $-1 -5.5511151231257827e-016 5 5.5511151231257827e-016 0 1 0 14.999999999999998 0 -5.5511151231257827e-016 1 I I #
point $-1 -1 $-1 -14.999999999999998 5 4.8244286170173726e-015 #
face $-1 -1 $-1 $304 $305 $16 $-1 $306 reversed single #
loop $-1 -1 $-1 $-1 $167 $149 #
plane-surface $-1 -1 $-1 15.000000000000004 0 0 -1 0 0 0 0 1 forward_v I I I I #
coedge $-1 -1 $-1 $307 $152 $308 $309 reversed $98 $-1 #
coedge $-1 -1 $-1 $152 $307 $310 $311 reversed $98 $-1 #
coedge $-1 -1 $-1 $312 $313 $314 $155 forward $315 $-1 #
coedge $-1 -1 $-1 $316 $317 $153 $232 forward $318 $-1 #
edge $-1 -1 $-1 $168 -3.700743415417187e-017 $236 1.5707963267948966 $231 $164 forward @7 unknown #
coedge $-1 -1 $-1 $319 $320 $154 $234 forward $321 $-1 #
edge $-1 -1 $-1 $235 -1.5707963267948966 $112 3.700743415417187e-017 $233 $114 forward @7 unknown #
vertex $-1 -1 $-1 $322 $323 #
vertex $-1 -1 $-1 $324 $325 #
straight-curve $-1 -1 $-1 -2.224762281543356e-032 -220 -15.000000000000004 0 -1 0 I I #
coedge $-1 -1 $-1 $326 $274 $156 $239 forward $327 $-1 #
edge $-1 -1 $-1 $113 1.5707963267948966 $244 3.1415926535897931 $238 $114 forward @7 unknown #
coedge $-1 -1 $-1 $328 $157 $160 $248 reversed $243 $-1 #
coedge $-1 -1 $-1 $157 $328 $326 $329 forward $243 $-1 #
coedge $-1 -1 $-1 $330 $331 $307 $158 reversed $305 $-1 #
loop $-1 -1 $-1 $-1 $157 $332 #
vertex $-1 -1 $-1 $333 $334 #
straight-curve $-1 -1 $-1 -15.000000000000004 -220 5.5511151231257827e-016 0 -1 0 I I #
coedge $-1 -1 $-1 $172 $335 $159 $247 forward $150 $-1 #
edge $-1 -1 $-1 $336 -15.000000000000004 $163 -2.224762281543356e-032 $159 $337 forward @7 unknown #
edge $-1 -1 $-1 $336 -15.000000000000004 $162 -5.5511151231257827e-016 $240 $338 forward @7 unknown #
face $-1 -1 $-1 $339 $161 $16 $-1 $340 reversed single #
edge $-1 -1 $-1 $162 -5.5511151231257827e-016 $341 15.000000000000004 $331 $338 forward @7 unknown #
point $-1 -1 $-1 -15.000000000000004 -220 5.5511151231257827e-016 #
edge $-1 -1 $-1 $163 -2.224762281543356e-032 $342 15.000000000000004 $255 $337 forward @7 unknown #
point $-1 -1 $-1 -2.224762281543356e-032 -220 15.000000000000004 #
coedge $-1 -1 $-1 $255 $165 $343 $344 reversed $256 $-1 #
coedge $-1 -1 $-1 $165 $254 $170 $252 reversed $256 $-1 #
loop $-1 -1 $-1 $-1 $165 $339 #
coedge $-1 -1 $-1 $345 $167 $317 $260 forward $226 $-1 #
coedge $-1 -1 $-1 $167 $345 $319 $179 reversed $226 $-1 #
coedge $-1 -1 $-1 $176 $343 $68 $106 reversed $268 $-1 #
edge $-1 -1 $-1 $168 -5.5511151231257827e-016 $346 15.000000000000004 $257 $347 forward @7 unknown #
point $-1 -1 $-1 15.000000000000004 -220 5.5511151231257827e-016 #
coedge $-1 -1 $-1 $171 $170 $267 $348 forward $173 $-1 #
coedge $-1 -1 $-1 $335 $172 $274 $181 forward $150 $-1 #
face $-1 -1 $-1 $349 $173 $16 $-1 $151 forward single #
vertex $-1 -1 $-1 $348 $350 #
straight-curve $-1 -1 $-1 0 220 15.000000000000004 -1 0 0 I I #
coedge $-1 -1 $-1 $343 $176 $262 $348 reversed $268 $-1 #
loop $-1 -1 $-1 $-1 $259 $351 #
straight-curve $-1 -1 $-1 15.000000000000004 220 0 0 0 -1 I I #
face $-1 -1 $-1 $352 $327 $16 $-1 $271 reversed single #
plane-surface $-1 -1 $-1 0 220 0 0 -1 0 0 0 -1 forward_v I I I I #
vertex $-1 -1 $-1 $353 $354 #
vertex $-1 -1 $-1 $181 $355 #
coedge $-1 -1 $-1 $238 $326 $263 $181 reversed $327 $-1 #
plane-surface $-1 -1 $-1 15.000000000000004 0 0 -1 0 0 0 0 1 forward_v I I I I #
coedge $-1 -1 $-1 $189 $187 $191 $280 reversed $116 $-1 #
edge $-1 -1 $-1 $202 -15.000000000000004 $282 15.000000000000004 $201 $356 forward @7 unknown #
vertex $-1 -1 $-1 $280 $357 #
straight-curve $-1 -1 $-1 -15.000000000000004 -220 0 0 0 -1 I I #
edge $-1 -1 $-1 $278 -220 $282 220 $276 $358 forward @7 unknown #
straight-curve $-1 -1 $-1 0 -220 -15.000000000000004 -1 0 0 I I #
vertex $-1 -1 $-1 $194 $359 #
straight-curve $-1 -1 $-1 0 220 -15.000000000000004 1 0 0 I I #
point $-1 -1 $-1 15.000000000000004 220 -15.000000000000004 #
point $-1 -1 $-1 15.000000000000004 -220 -15.000000000000004 #
straight-curve $-1 -1 $-1 -15.000000000000004 0 15.000000000000004 0 -1 0 I I #
point $-1 -1 $-1 -15.000000000000004 220 15.000000000000004 #
point $-1 -1 $-1 -15.000000000000004 -220 15.000000000000004 #
straight-curve $-1 -1 $-1 15.000000000000004 -220 0 0 0 -1 I I #
straight-curve $-1 -1 $-1 15.000000000000004 220 0 0 0 -1 I I #
model_id-kcp-attrib $-1 -1 $-1 $-1 $212 1 1021578477 1021578477 1689518081 9 #
loop $-1 -1 $-1 $-1 $360 $212 #
plane-surface $-1 -1 $-1 0 440 0 0 1 0 10 0 0 forward_v I I I I #
coedge $-1 -1 $-1 $219 $361 $362 $363 forward $213 $-1 #
coedge $-1 -1 $-1 $362 $215 $216 $299 forward $136 $-1 #
coedge $-1 -1 $-1 $215 $362 $360 $364 reversed $136 $-1 #
coedge $-1 -1 $-1 $361 $219 $215 $298 reversed $213 $-1 #
edge $-1 -1 $-1 $365 0 $221 0.70710678118654768 $215 $366 forward @7 unknown #
edge $-1 -1 $-1 $221 0 $300 3.1415926535897931 $216 $367 forward @7 unknown #
vertex $-1 -1 $-1 $218 $368 #
straight-curve $-1 -1 $-1 15 5 0 0 10 0 I I #
ellipse-curve $-1 -1 $-1 -5.5511151231257827e-016 435 5.5511151231257827e-016 0 1 0 15.000000000000004 0 -5.5511151231257827e-016 1 I I #
point $-1 -1 $-1 -15.000000000000004 435 -1.8369095307335663e-015 #
face $-1 -1 $-1 $249 $369 $16 $-1 $340 reversed single #
loop $-1 -1 $-1 $-1 $242 $225 #
plane-surface $-1 -1 $-1 -15.000000000000004 0 0 1 0 0 0 0 -1 forward_v I I I I #
coedge $-1 -1 $-1 $229 $228 $100 $158 forward $98 $-1 #
coedge $-1 -1 $-1 $370 $371 $228 $309 forward $372 $-1 #
edge $-1 -1 $-1 $244 -3.1415926535897931 $235 -1.5707963267948966 $308 $114 forward @7 unknown #
coedge $-1 -1 $-1 $373 $374 $229 $311 forward $369 $-1 #
edge $-1 -1 $-1 $236 1.5707963267948966 $162 3.1415926535897931 $310 $164 forward @7 unknown #
coedge $-1 -1 $-1 $375 $230 $374 $324 forward $315 $-1 #
coedge $-1 -1 $-1 $230 $375 $370 $376 forward $315 $-1 #
coedge $-1 -1 $-1 $377 $378 $99 $155 reversed $379 $-1 #
loop $-1 -1 $-1 $-1 $230 $349 #
coedge $-1 -1 $-1 $317 $231 $378 $380 reversed $318 $-1 #
coedge $-1 -1 $-1 $231 $316 $257 $260 reversed $318 $-1 #
loop $-1 -1 $-1 $-1 $231 $381 #
coedge $-1 -1 $-1 $320 $233 $258 $179 forward $321 $-1 #
coedge $-1 -1 $-1 $233 $319 $377 $322 reversed $321 $-1 #
loop $-1 -1 $-1 $-1 $233 $382 #
edge $-1 -1 $-1 $235 -2.224762281543356e-032 $272 15.000000000000004 $320 $383 forward @7 unknown #
point $-1 -1 $-1 -2.224762281543356e-032 220 -15.000000000000004 #
edge $-1 -1 $-1 $236 2.224762281543356e-032 $341 15.000000000000004 $374 $384 forward @7 unknown #
point $-1 -1 $-1 -2.224762281543356e-032 -220 -15.000000000000004 #
coedge $-1 -1 $-1 $274 $238 $241 $329 reversed $327 $-1 #
loop $-1 -1 $-1 $-1 $238 $270 #
coedge $-1 -1 $-1 $241 $240 $335 $385 reversed $243 $-1 #
edge $-1 -1 $-1 $273 -15.000000000000004 $244 -5.5511151231257827e-016 $326 $386 forward @7 unknown #
coedge $-1 -1 $-1 $387 $242 $371 $333 forward $305 $-1 #
coedge $-1 -1 $-1 $242 $387 $373 $250 reversed $305 $-1 #
face $-1 -1 $-1 $351 $243 $16 $-1 $306 reversed single #
edge $-1 -1 $-1 $244 -5.5511151231257827e-016 $388 15.000000000000004 $371 $386 forward @7 unknown #
point $-1 -1 $-1 -15.000000000000004 220 5.5511151231257827e-016 #
coedge $-1 -1 $-1 $246 $263 $328 $385 forward $150 $-1 #
vertex $-1 -1 $-1 $385 $389 #
straight-curve $-1 -1 $-1 0 -220 15.000000000000004 1 0 0 I I #
straight-curve $-1 -1 $-1 -15.000000000000004 -220 0 0 0 -1 I I #
face $-1 -1 $-1 $381 $256 $16 $-1 $340 reversed single #
plane-surface $-1 -1 $-1 0 -220 0 0 1 0 0 0 1 forward_v I I I I #
vertex $-1 -1 $-1 $390 $391 #
vertex $-1 -1 $-1 $348 $392 #
coedge $-1 -1 $-1 $259 $267 $254 $344 forward $268 $-1 #
edge $-1 -1 $-1 $342 -15.000000000000004 $168 -5.5511151231257827e-016 $343 $347 forward @7 unknown #
coedge $-1 -1 $-1 $258 $257 $393 $353 reversed $226 $-1 #
vertex $-1 -1 $-1 $260 $394 #
straight-curve $-1 -1 $-1 15.000000000000004 -220 0 0 0 -1 I I #
edge $-1 -1 $-1 $342 -220 $265 220 $267 $395 forward @7 unknown #
face $-1 -1 $-1 $332 $315 $16 $-1 $396 reversed single #
point $-1 -1 $-1 15.000000000000004 220 15.000000000000004 #
face $-1 -1 $-1 $-1 $268 $16 $-1 $227 reversed single #
face $-1 -1 $-1 $397 $372 $16 $-1 $271 reversed single #
edge $-1 -1 $-1 $272 -220 $346 220 $345 $398 forward @7 unknown #
point $-1 -1 $-1 15.000000000000004 220 -15.000000000000004 #
point $-1 -1 $-1 -15.000000000000004 220 15.000000000000004 #
straight-curve $-1 -1 $-1 -15.000000000000004 220 0 0 0 -1 I I #
point $-1 -1 $-1 -15.000000000000004 -220 -15.000000000000004 #
straight-curve $-1 -1 $-1 -15.000000000000004 0 -15.000000000000004 0 1 0 I I #
point $-1 -1 $-1 -15.000000000000004 220 -15.000000000000004 #
coedge $-1 -1 $-1 $399 $399 $296 $364 forward $292 $-1 #
coedge $-1 -1 $-1 $294 $297 $399 $400 reversed $213 $-1 #
coedge $-1 -1 $-1 $296 $295 $294 $363 reversed $136 $-1 #
edge $-1 -1 $-1 $401 0 $300 0.70710678118654768 $362 $402 forward @7 unknown #
edge $-1 -1 $-1 $365 3.1554436208840456e-032 $401 3.1415926535897931 $360 $403 forward @7 unknown #
vertex $-1 -1 $-1 $400 $404 #
straight-curve $-1 -1 $-1 -10.000000000000002 440 -1.2246063538223775e-015 -7.0710678118654773 -7.0710678118654737 8.5546272950307147e-015 I I #
ellipse-curve $-1 -1 $-1 0 435 -5.5511151231257827e-016 0 1 0 -15.000000000000004 0 -1.281798018420988e-015 1 I I #
point $-1 -1 $-1 15.000000000000004 435 0 #
loop $-1 -1 $-1 $-1 $310 $304 #
coedge $-1 -1 $-1 $371 $308 $313 $376 reversed $372 $-1 #
coedge $-1 -1 $-1 $308 $370 $330 $333 reversed $372 $-1 #
loop $-1 -1 $-1 $-1 $308 $352 #
coedge $-1 -1 $-1 $374 $310 $331 $250 forward $369 $-1 #
coedge $-1 -1 $-1 $310 $373 $312 $324 reversed $369 $-1 #
coedge $-1 -1 $-1 $313 $312 $387 $390 forward $315 $-1 #
edge $-1 -1 $-1 $388 -15.000000000000004 $235 -2.224762281543356e-032 $370 $383 forward @7 unknown #
coedge $-1 -1 $-1 $393 $314 $320 $322 forward $379 $-1 #
coedge $-1 -1 $-1 $314 $393 $316 $380 forward $379 $-1 #
loop $-1 -1 $-1 $-1 $314 $397 #
edge $-1 -1 $-1 $346 -15.000000000000004 $236 2.224762281543356e-032 $316 $384 forward @7 unknown #
face $-1 -1 $-1 $382 $318 $16 $-1 $340 reversed single #
face $-1 -1 $-1 $178 $321 $16 $-1 $271 reversed single #
straight-curve $-1 -1 $-1 0 220 -15.000000000000004 1 0 0 I I #
straight-curve $-1 -1 $-1 0 -220 -15.000000000000004 -1 0 0 I I #
edge $-1 -1 $-1 $273 -220 $336 220 $328 $405 forward @7 unknown #
straight-curve $-1 -1 $-1 -15.000000000000004 220 0 0 0 -1 I I #
coedge $-1 -1 $-1 $331 $330 $375 $390 reversed $305 $-1 #
vertex $-1 -1 $-1 $376 $406 #
point $-1 -1 $-1 -15.000000000000004 -220 15.000000000000004 #
edge $-1 -1 $-1 $341 -220 $388 220 $387 $407 forward @7 unknown #
point $-1 -1 $-1 -15.000000000000004 -220 -15.000000000000004 #
point $-1 -1 $-1 15.000000000000004 -220 15.000000000000004 #
coedge $-1 -1 $-1 $378 $377 $345 $353 forward $379 $-1 #
point $-1 -1 $-1 15.000000000000004 -220 -15.000000000000004 #
straight-curve $-1 -1 $-1 15.000000000000004 0 15.000000000000004 0 1 0 I I #
plane-surface $-1 -1 $-1 0 0 -15.000000000000004 0 0 1 1 0 0 forward_v I I I I #
face $-1 -1 $-1 $264 $379 $16 $-1 $396 reversed single #
straight-curve $-1 -1 $-1 15.000000000000004 0 -15.000000000000004 0 -1 0 I I #
coedge $-1 -1 $-1 $360 $360 $361 $400 forward $292 $-1 #
edge $-1 -1 $-1 $401 0 $365 3.1415926535897931 $399 $408 forward @7 unknown #
vertex $-1 -1 $-1 $400 $409 #
straight-curve $-1 -1 $-1 10.000000000000002 440 0 7.0710678118654773 -7.0710678118654737 0 I I #
ellipse-curve $-1 -1 $-1 0 440 5.5511151231257827e-016 0 1 0 -10.000000000000002 0 -1.7797178661349559e-015 1 I I #
point $-1 -1 $-1 -10.000000000000002 440 -1.2246063538223775e-015 #
straight-curve $-1 -1 $-1 -15.000000000000004 0 15.000000000000004 0 -1 0 I I #
point $-1 -1 $-1 -15.000000000000004 220 -15.000000000000004 #
straight-curve $-1 -1 $-1 -15.000000000000004 0 -15.000000000000004 0 1 0 I I #
ellipse-curve $-1 -1 $-1 1.1102230246251565e-015 440 -1.6653345369377348e-015 0 1 0 10 0 1.6653345369377348e-015 1 I I #
point $-1 -1 $-1 10.000000000000002 440 0 #
End-of-ACIS-data 