600 0 1 0           
102 GICL Pro/E ACIS Translator - Source: f:/data5/repository/PTC/V18/asmdes18/parts/countershaft.prt - 6 0 13 ACIS 6.0.3 NT 24 Thu Apr 04 10:06:22 2002 
1 9.9999999999999995e-007 1e-010 
body $-1 $1 $-1 $2 #
lump $-1 $-1 $3 $0 #
transform $-1 1 0 0 0 1 0 0 0 1 0 0 0 10 no_rotate no_reflect no_shear #
shell $-1 $-1 $-1 $4 $-1 $1 #
face $-1 $5 $6 $3 $-1 $7 reversed single #
face $-1 $8 $9 $3 $-1 $10 forward single #
loop $-1 $-1 $11 $4 #
plane-surface $-1 0 0 0 0 1 0 1 0 0 forward_v I I I I #
face $-1 $12 $13 $3 $-1 $14 forward single #
loop $-1 $-1 $15 $5 #
cone-surface $-1 0 0 0 0 -1 0 0.99999999999999989 0 0 1 I I -0.70710678118654746 0.70710678118654757 0.99999999999999989 forward I I I I #
coedge $-1 $16 $16 $17 $18 reversed $6 $-1 #
face $-1 $19 $20 $3 $-1 $21 forward single #
loop $-1 $-1 $22 $8 #
cone-surface $-1 0 0 0 0 -1 0 0.99999999999999989 0 0 1 I I -0.70710678118654746 0.70710678118654757 0.99999999999999989 forward I I I I #
coedge $-1 $23 $17 $24 $25 forward $9 $-1 #
coedge $-1 $11 $11 $26 $27 reversed $6 $-1 #
coedge $-1 $15 $28 $11 $18 forward $9 $-1 #
edge $-1 $29 0 $30 3.1415926535897931 $11 $31 forward 7 unknown #
face $-1 $32 $33 $3 $-1 $34 forward single #
loop $-1 $-1 $35 $12 #
cone-surface $-1 0 0 0 0 1 0 1.5 0 0 1 I I 0 1 1.5 forward I I I I #
coedge $-1 $36 $26 $28 $37 forward $13 $-1 #
coedge $-1 $28 $15 $38 $39 reversed $9 $-1 #
coedge $-1 $26 $36 $15 $25 reversed $13 $-1 #
edge $-1 $30 0 $40 0.70710678118654746 $15 $41 forward 7 unknown #
coedge $-1 $22 $24 $16 $27 forward $13 $-1 #
edge $-1 $30 0 $29 3.1415926535897931 $16 $42 forward 7 unknown #
coedge $-1 $17 $23 $22 $37 reversed $9 $-1 #
vertex $-1 $27 $43 #
vertex $-1 $27 $44 #
ellipse-curve $-1 2.7755575615628914e-017 0 5.5511151231257827e-017 0 1 0 -0.99999999999999989 0 -1.7797178661349553e-016 1 I I #
face $-1 $45 $46 $3 $-1 $47 forward single #
loop $-1 $-1 $48 $19 #
cone-surface $-1 0 0 0 0 1 0 1.5 0 0 1 I I 0 1 1.5 forward I I I I #
coedge $-1 $49 $50 $51 $52 forward $20 $-1 #
coedge $-1 $24 $22 $50 $53 reversed $13 $-1 #
edge $-1 $29 -1.2468739753117526e-031 $54 0.70710678118654746 $28 $55 forward 7 unknown #
coedge $-1 $48 $51 $23 $39 forward $33 $-1 #
edge $-1 $54 4.4408920985006262e-016 $40 3.1415926535897931 $38 $56 forward 7 unknown #
vertex $-1 $53 $57 #
straight-curve $-1 0.99999999999999989 0 0 0.70710678118654746 0.70710678118654757 0 I I #
ellipse-curve $-1 -2.7755575615628914e-017 0 2.7755575615628914e-017 0 1 0 0.99999999999999989 0 -2.7755575615628914e-017 1 I I #
point $-1 -0.99999999999999989 0 -1.224606353822377e-016 #
point $-1 0.99999999999999989 0 0 #
face $-1 $58 $59 $3 $-1 $60 forward single #
loop $-1 $-1 $61 $32 #
cone-surface $-1 0 44 0 0 1 0 1.0000000000000002 0 0 1 I I -0.70710678118654757 0.70710678118654746 1.0000000000000002 forward I I I I #
coedge $-1 $62 $38 $63 $64 forward $33 $-1 #
coedge $-1 $63 $35 $65 $66 reversed $20 $-1 #
coedge $-1 $35 $63 $36 $53 forward $20 $-1 #
coedge $-1 $38 $62 $35 $52 reversed $33 $-1 #
edge $-1 $54 0 $67 43 $35 $68 forward 7 unknown #
edge $-1 $40 0 $54 3.1415926535897931 $50 $69 forward 7 unknown #
vertex $-1 $53 $70 #
straight-curve $-1 -0.99999999999999989 0 1.224606353822377e-016 -0.70710678118654746 0.70710678118654757 5.0909174667429716e-016 I I #
ellipse-curve $-1 -1.1102230246251565e-016 0.5 0 0 1 0 -1.4999999999999996 0 -1.8369095307335654e-016 1 I I #
point $-1 1.4999999999999998 0.5 0 #
face $-1 $-1 $71 $3 $-1 $72 forward single #
loop $-1 $-1 $73 $45 #
cone-surface $-1 0 44 0 0 1 0 1.0000000000000002 0 0 1 I I -0.70710678118654757 0.70710678118654746 1.0000000000000002 forward I I I I #
coedge $-1 $74 $75 $76 $77 forward $46 $-1 #
coedge $-1 $51 $48 $74 $78 reversed $33 $-1 #
coedge $-1 $50 $49 $48 $64 reversed $20 $-1 #
edge $-1 $40 0 $79 43 $63 $80 forward 7 unknown #
coedge $-1 $76 $73 $49 $66 forward $59 $-1 #
edge $-1 $79 0 $67 3.1415926535897931 $49 $81 forward 7 unknown #
vertex $-1 $66 $82 #
straight-curve $-1 -1.5 0.5 -1.8369095307335659e-016 0 1 0 I I #
ellipse-curve $-1 -5.5511151231257827e-017 0.5 5.5511151231257827e-017 0 1 0 1.4999999999999998 0 -5.5511151231257827e-017 1 I I #
point $-1 -1.4999999999999998 0.5 4.8244286170173724e-016 #
loop $-1 $-1 $83 $58 #
plane-surface $-1 0 44 0 0 1 0 1 0 0 forward_v I I I I #
coedge $-1 $65 $84 $85 $86 forward $59 $-1 #
coedge $-1 $85 $61 $62 $78 forward $46 $-1 #
coedge $-1 $61 $85 $83 $87 reversed $46 $-1 #
coedge $-1 $84 $65 $61 $77 reversed $59 $-1 #
edge $-1 $88 0 $67 0.70710678118654768 $61 $89 forward 7 unknown #
edge $-1 $67 0 $79 3.1415926535897931 $62 $90 forward 7 unknown #
vertex $-1 $64 $91 #
straight-curve $-1 1.5 0.5 0 0 1 0 I I #
ellipse-curve $-1 -5.5511151231257827e-017 43.5 5.5511151231257827e-017 0 1 0 1.5000000000000004 0 -5.5511151231257827e-017 1 I I #
point $-1 -1.5000000000000004 43.5 -1.8369095307335664e-016 #
coedge $-1 $92 $92 $75 $87 forward $71 $-1 #
coedge $-1 $73 $76 $92 $93 reversed $59 $-1 #
coedge $-1 $75 $74 $73 $86 reversed $46 $-1 #
edge $-1 $94 0 $79 0.70710678118654768 $85 $95 forward 7 unknown #
edge $-1 $88 0 $94 3.1415926535897931 $83 $96 forward 7 unknown #
vertex $-1 $93 $97 #
straight-curve $-1 -1.0000000000000002 44 -1.2246063538223775e-016 -0.70710678118654768 -0.70710678118654735 8.5546272950307147e-016 I I #
ellipse-curve $-1 0 43.5 -5.5511151231257827e-017 0 1 0 -1.5000000000000004 0 -1.2817980184209881e-016 1 I I #
point $-1 1.5000000000000004 43.5 0 #
coedge $-1 $83 $83 $84 $93 forward $71 $-1 #
edge $-1 $94 0 $88 3.1415926535897931 $92 $98 forward 7 unknown #
vertex $-1 $93 $99 #
straight-curve $-1 1.0000000000000002 44 0 0.70710678118654768 -0.70710678118654735 0 I I #
ellipse-curve $-1 0 44 5.5511151231257827e-017 0 1 0 -1.0000000000000002 0 -1.7797178661349558e-016 1 I I #
point $-1 -1.0000000000000002 44 -1.2246063538223775e-016 #
ellipse-curve $-1 1.1102230246251565e-016 44 -1.6653345369377348e-016 0 1 0 1 0 1.6653345369377348e-016 1 I I #
point $-1 1.0000000000000002 44 0 #
End-of-ACIS-data 