600 0 1 0           
98 GICL Pro/E ACIS Translator - Source: f:/data5/repository/PTC/V18/asmdes18/parts/fork_2_h.prt - 6 0 13 ACIS 6.0.3 NT 24 Thu Apr 04 10:06:27 2002 
1 9.9999999999999995e-007 1e-010 
body $-1 $1 $-1 $2 #
lump $-1 $-1 $3 $0 #
transform $-1 1 0 0 0 1 0 0 0 1 0 0 0 10 no_rotate no_reflect no_shear #
shell $-1 $-1 $-1 $4 $-1 $1 #
face $-1 $5 $6 $3 $-1 $7 forward single #
face $-1 $8 $9 $3 $-1 $10 forward single #
loop $-1 $-1 $11 $4 #
plane-surface $-1 0 0 0 0 -1 0 -1 0 0 forward_v I I I I #
face $-1 $12 $13 $3 $-1 $14 reversed single #
loop $-1 $-1 $15 $5 #
cone-surface $-1 0 21 0 0 -1 0 -2 0 0 1 I I 0 1 2 forward I I I I #
coedge $-1 $16 $16 $17 $18 forward $6 $-1 #
face $-1 $19 $20 $3 $-1 $21 forward single #
loop $-1 $22 $23 $8 #
plane-surface $-1 0 6 0 0 -1 0 -1 0 0 forward_v I I I I #
coedge $-1 $24 $25 $26 $27 forward $9 $-1 #
coedge $-1 $11 $11 $28 $29 reversed $6 $-1 #
coedge $-1 $25 $24 $11 $18 reversed $9 $-1 #
edge $-1 $30 0 $31 3.1415926535897931 $11 $32 forward 7 unknown #
face $-1 $33 $34 $3 $-1 $35 forward single #
loop $-1 $-1 $28 $12 #
cone-surface $-1 0 21 0 0 -1 0 -2 0 0 1 I I 0 1 2 forward I I I I #
loop $-1 $-1 $36 $8 #
coedge $-1 $26 $26 $37 $38 forward $13 $-1 #
coedge $-1 $17 $15 $39 $40 reversed $9 $-1 #
coedge $-1 $15 $17 $41 $42 forward $9 $-1 #
coedge $-1 $23 $23 $15 $27 reversed $13 $-1 #
edge $-1 $43 1.2246063538223773e-016 $44 3.1415926535897931 $15 $45 forward 7 unknown #
coedge $-1 $39 $41 $16 $29 forward $20 $-1 #
edge $-1 $30 0 $31 3.1415926535897931 $16 $46 forward 7 unknown #
vertex $-1 $29 $47 #
vertex $-1 $29 $48 #
ellipse-curve $-1 0 0 5.5511151231257827e-017 0 -1 0 2 0 1.8941011953321762e-016 1 I I #
face $-1 $49 $50 $3 $-1 $51 forward single #
loop $-1 $-1 $52 $19 #
cone-surface $-1 0 21 0 0 -1 0 -1.75 0 0 1 I I 0 1 1.75 forward I I I I #
coedge $-1 $53 $53 $54 $55 forward $22 $-1 #
coedge $-1 $41 $39 $23 $38 reversed $20 $-1 #
edge $-1 $43 -1.2246063538223773e-016 $44 3.1415926535897931 $23 $56 forward 7 unknown #
coedge $-1 $37 $28 $24 $40 forward $20 $-1 #
edge $-1 $31 0 $44 6 $24 $57 forward 7 unknown #
coedge $-1 $28 $37 $25 $42 reversed $20 $-1 #
edge $-1 $30 0 $43 6 $25 $58 forward 7 unknown #
vertex $-1 $42 $59 #
vertex $-1 $40 $60 #
ellipse-curve $-1 0 6 0 0 -1 0 2 0 0 1 I I #
ellipse-curve $-1 -2.2204460492503131e-016 0 -1.1102230246251565e-016 0 1 0 2 0 3.5594357322699111e-016 1 I I #
point $-1 2 0 2.4492127076447545e-016 #
point $-1 -2 0 -4.898425415289509e-016 #
face $-1 $61 $62 $3 $-1 $63 forward single #
loop $-1 $64 $65 $33 #
plane-surface $-1 0 6.5 0 0 -1 0 -1 0 0 forward_v I I I I #
coedge $-1 $66 $67 $68 $69 forward $34 $-1 #
coedge $-1 $36 $36 $70 $71 reversed $22 $-1 #
coedge $-1 $67 $66 $36 $55 reversed $34 $-1 #
edge $-1 $72 0 $73 3.1415926535897931 $36 $74 forward 7 unknown #
ellipse-curve $-1 0 6 0 0 1 0 2 0 0 1 I I #
straight-curve $-1 -2 0 -4.898425415289509e-016 0 1 0 I I #
straight-curve $-1 2 0 2.4492127076447545e-016 0 1 0 I I #
point $-1 2 6 2.4492127076447545e-016 #
point $-1 -2 6 0 #
face $-1 $75 $76 $3 $-1 $77 forward single #
loop $-1 $-1 $70 $49 #
cone-surface $-1 0 21 0 0 -1 0 -1.75 0 0 1 I I 0 1 1.75 forward I I I I #
loop $-1 $-1 $78 $33 #
coedge $-1 $68 $68 $79 $80 forward $50 $-1 #
coedge $-1 $54 $52 $81 $82 reversed $34 $-1 #
coedge $-1 $52 $54 $83 $84 forward $34 $-1 #
coedge $-1 $65 $65 $52 $69 reversed $50 $-1 #
edge $-1 $85 1.2246063538223773e-016 $86 3.1415926535897931 $52 $87 forward 7 unknown #
coedge $-1 $81 $83 $53 $71 forward $62 $-1 #
edge $-1 $72 0 $73 3.1415926535897931 $53 $88 forward 7 unknown #
vertex $-1 $71 $89 #
vertex $-1 $71 $90 #
ellipse-curve $-1 0 6 -1.1102230246251565e-016 0 -1 0 1.75 0 3.2532841438143167e-016 1 I I #
face $-1 $91 $92 $3 $-1 $93 forward single #
loop $-1 $-1 $94 $61 #
cone-surface $-1 0 21 0 0 -1 0 -2 0 0 1 I I 0 1 2 forward I I I I #
coedge $-1 $95 $95 $96 $97 forward $64 $-1 #
coedge $-1 $83 $81 $65 $80 reversed $62 $-1 #
edge $-1 $85 -1.2246063538223773e-016 $86 3.1415926535897931 $65 $98 forward 7 unknown #
coedge $-1 $79 $70 $66 $82 forward $62 $-1 #
edge $-1 $73 0 $86 0.5 $66 $99 forward 7 unknown #
coedge $-1 $70 $79 $67 $84 reversed $62 $-1 #
edge $-1 $72 0 $85 0.5 $67 $100 forward 7 unknown #
vertex $-1 $84 $101 #
vertex $-1 $82 $102 #
ellipse-curve $-1 5.5511151231257827e-017 6.5 0 0 -1 0 1.75 0 0 1 I I #
ellipse-curve $-1 -1.1102230246251565e-016 6 5.5511151231257827e-017 0 1 0 1.75 0 1.5879496068765819e-016 1 I I #
point $-1 1.75 6 2.1430611191891602e-016 #
point $-1 -1.75 6 -4.2861222383783204e-016 #
face $-1 $103 $104 $3 $-1 $105 forward single #
loop $-1 $-1 $106 $75 #
cone-surface $-1 0 20.5 0 0 1 0 -0.99999999999999989 0 0 1 I I -0.70710678118654746 0.70710678118654757 0.99999999999999989 forward I I I I #
coedge $-1 $107 $108 $109 $110 forward $76 $-1 #
coedge $-1 $78 $78 $111 $112 reversed $64 $-1 #
coedge $-1 $108 $107 $78 $97 reversed $76 $-1 #
edge $-1 $113 0 $114 3.1415926535897931 $78 $115 forward 7 unknown #
ellipse-curve $-1 5.5511151231257827e-017 6.5 0 0 1 0 1.75 0 0 1 I I #
straight-curve $-1 -1.75 6 -4.2861222383783204e-016 0 1 0 I I #
straight-curve $-1 1.75 6 2.1430611191891602e-016 0 1 0 I I #
point $-1 1.75 6.5 2.1430611191891602e-016 #
point $-1 -1.75 6.5 0 #
face $-1 $116 $117 $3 $-1 $118 forward single #
loop $-1 $-1 $119 $91 #
cone-surface $-1 0 20.5 0 0 1 0 -0.99999999999999989 0 0 1 I I -0.70710678118654746 0.70710678118654757 0.99999999999999989 forward I I I I #
coedge $-1 $109 $120 $121 $122 forward $92 $-1 #
coedge $-1 $96 $94 $123 $124 reversed $76 $-1 #
coedge $-1 $94 $96 $125 $126 forward $76 $-1 #
coedge $-1 $127 $106 $94 $110 reversed $92 $-1 #
edge $-1 $128 4.4408920985006262e-016 $129 3.141592653589794 $94 $130 forward 7 unknown #
coedge $-1 $123 $125 $95 $112 forward $117 $-1 #
edge $-1 $113 0 $114 3.1415926535897931 $95 $131 forward 7 unknown #
vertex $-1 $112 $132 #
vertex $-1 $112 $133 #
ellipse-curve $-1 0 6.5 5.5511151231257827e-017 0 -1 0 2 0 1.8941011953321762e-016 1 I I #
face $-1 $-1 $134 $3 $-1 $135 reversed single #
loop $-1 $-1 $111 $103 #
cone-surface $-1 0 21 0 0 -1 0 -2 0 0 1 I I 0 1 2 forward I I I I #
coedge $-1 $136 $137 $127 $138 forward $104 $-1 #
coedge $-1 $106 $127 $139 $140 forward $92 $-1 #
coedge $-1 $137 $136 $106 $122 reversed $104 $-1 #
edge $-1 $141 0 $129 0.70710678118654768 $106 $142 forward 7 unknown #
coedge $-1 $143 $111 $107 $124 forward $117 $-1 #
edge $-1 $114 0 $129 13 $107 $144 forward 7 unknown #
coedge $-1 $111 $143 $108 $126 reversed $117 $-1 #
edge $-1 $113 0 $128 13 $108 $145 forward 7 unknown #
coedge $-1 $120 $109 $119 $138 reversed $92 $-1 #
vertex $-1 $126 $146 #
vertex $-1 $124 $147 #
ellipse-curve $-1 0 19.5 1.6653345369377348e-016 0 -1 0 1.9999999999999996 0 7.8387817070701921e-017 1 I I #
ellipse-curve $-1 -2.2204460492503131e-016 6.5 -1.1102230246251565e-016 0 1 0 2 0 3.5594357322699111e-016 1 I I #
point $-1 2 6.5 2.4492127076447545e-016 #
point $-1 -2 6.5 -4.898425415289509e-016 #
loop $-1 $-1 $139 $116 #
plane-surface $-1 0 20 0 0 -1 0 -1 0 0 forward_v I I I I #
coedge $-1 $121 $119 $143 $148 forward $104 $-1 #
coedge $-1 $119 $121 $149 $150 reversed $104 $-1 #
edge $-1 $151 0 $128 0.70710678118654768 $127 $152 forward 7 unknown #
coedge $-1 $149 $149 $120 $140 reversed $134 $-1 #
edge $-1 $151 0 $141 3.1415926535897931 $139 $153 forward 7 unknown #
vertex $-1 $150 $154 #
straight-curve $-1 -1.4999999999999998 20 -3.6738190614671308e-016 -0.70710678118654735 -0.70710678118654768 7.3632583102677346e-015 I I #
coedge $-1 $125 $123 $136 $148 reversed $117 $-1 #
straight-curve $-1 -2 6.5 -4.898425415289509e-016 0 1 -1.3664283380001927e-016 I I #
straight-curve $-1 2 6.5 2.4492127076447545e-016 0 1 6.8321416900009637e-017 I I #
point $-1 2 19.5 1.1330996904646007e-015 #
point $-1 -2 19.5 -2.2661993809292014e-015 #
edge $-1 $128 -4.4408920985006262e-016 $129 3.1415926535897922 $143 $155 forward 7 unknown #
coedge $-1 $139 $139 $137 $150 forward $134 $-1 #
edge $-1 $151 0 $141 3.1415926535897931 $149 $156 forward 7 unknown #
vertex $-1 $150 $157 #
straight-curve $-1 1.4999999999999998 20 1.8369095307335654e-016 0.70710678118654735 -0.70710678118654768 8.6592745707193566e-017 I I #
ellipse-curve $-1 0 20 -5.5511151231257827e-017 0 -1 0 1.4999999999999998 0 2.3920210430461437e-016 1 I I #
point $-1 -1.4999999999999998 20 -3.6738190614671308e-016 #
ellipse-curve $-1 0 19.5 -1.6653345369377348e-016 0 1 0 1.9999999999999996 0 4.1145472445824888e-016 1 I I #
ellipse-curve $-1 0 20 5.5511151231257827e-017 0 1 0 1.4999999999999998 0 1.2817980184209871e-016 1 I I #
point $-1 1.4999999999999998 20 1.8369095307335654e-016 #
End-of-ACIS-data 