700 0 2 0           
24 FBMach with ACIS - 7.0.3 13 ACIS 7.0.3 NT 24 Thu May 16 15:53:23 2002 
1 9.9999999999999995e-007 1e-010 
body $2 -1 $-1 $3 $-1 $4 #
bdycol-kcp $-1 -1 1 2 $5 $6 #
model_id-kcp-attrib $-1 -1 $-1 $-1 $0 1 1021578802 1021578802 1455030273 1 #
lump $-1 -1 $-1 $-1 $7 $0 #
transform $-1 -1 1 0 0 0 1 0 0 0 1 0 0 0 1 rotate no_reflect no_shear #
body $8 -1 $-1 $9 $-1 $10 #
body $11 -1 $-1 $12 $-1 $13 #
shell $-1 -1 $-1 $-1 $-1 $14 $-1 $3 #
rgb_color-st-attrib $-1 -1 $15 $-1 $5 0.5 1 1 #
lump $-1 -1 $-1 $-1 $16 $5 #
transform $-1 -1 1 0 0 0 1 0 0 0 1 -1.7763568394002505e-015 100 0 1 no_rotate no_reflect no_shear #
model_id-kcp-attrib $-1 -1 $-1 $-1 $6 1 1021578802 1021578802 1455030274 1 #
lump $-1 -1 $-1 $-1 $17 $6 #
transform $-1 -1 1 0 0 0 1 0 0 0 1 -1.7763568394002505e-015 100 0 1 no_rotate no_reflect no_shear #
face $18 -1 $-1 $19 $20 $7 $-1 $21 forward single #
model_id-kcp-attrib $-1 -1 $-1 $8 $5 1 1021578802 1021578802 1449459715 1 #
shell $-1 -1 $-1 $-1 $-1 $22 $-1 $9 #
shell $-1 -1 $-1 $-1 $-1 $23 $-1 $12 #
model_id-kcp-attrib $-1 -1 $-1 $-1 $14 1 1021578802 1021578802 1455030273 2 #
face $24 -1 $-1 $25 $26 $7 $-1 $27 forward single #
loop $-1 -1 $-1 $-1 $28 $14 #
plane-surface $-1 -1 $-1 0 0 0 0 -1 0 -10 0 0 forward_v I I I I #
face $-1 -1 $-1 $29 $30 $16 $-1 $31 reversed single #
face $-1 -1 $-1 $32 $33 $17 $-1 $34 forward single #
model_id-kcp-attrib $-1 -1 $-1 $-1 $19 1 1021578802 1021578802 1455030273 3 #
face $35 -1 $-1 $36 $37 $7 $-1 $38 reversed single #
loop $-1 -1 $-1 $-1 $39 $19 #
cone-surface $-1 -1 $-1 0 210 0 0 -1 0 -20 0 0 1 I I 0 1 20 forward I I I I #
coedge $-1 -1 $-1 $40 $40 $41 $42 forward $20 $-1 #
face $-1 -1 $-1 $43 $44 $16 $-1 $31 reversed single #
loop $-1 -1 $-1 $-1 $45 $22 #
cone-surface $-1 -1 $-1 3.5527136788004958e-015 -100 -1.6653345369377332e-015 0 -1 0 19.999999999999996 0 1.2996331441583737e-014 1 I I 0 1 19.999999999999996 forward I I I I #
face $-1 -1 $-1 $46 $47 $17 $-1 $48 reversed single #
loop $-1 -1 $-1 $-1 $49 $23 #
plane-surface $-1 -1 $-1 0 0 20 0 0 1 1 0 0 forward_v I I I I #
model_id-kcp-attrib $-1 -1 $-1 $-1 $25 1 1021578802 1021578802 1455030273 4 #
face $50 -1 $-1 $51 $52 $7 $-1 $53 forward single #
loop $-1 -1 $-1 $54 $55 $25 #
plane-surface $-1 -1 $-1 0 60 0 0 -1 0 -10 0 0 forward_v I I I I #
coedge $-1 -1 $-1 $56 $57 $58 $59 forward $26 $-1 #
coedge $-1 -1 $-1 $28 $28 $60 $61 reversed $20 $-1 #
coedge $-1 -1 $-1 $57 $56 $28 $42 reversed $26 $-1 #
edge $62 -1 $-1 $63 0 $64 3.1415926535897931 $28 $65 forward @7 unknown #
face $-1 -1 $-1 $66 $67 $16 $-1 $31 reversed single #
loop $-1 -1 $-1 $-1 $68 $29 #
coedge $-1 -1 $-1 $69 $70 $71 $72 reversed $30 $-1 #
face $73 -1 $-1 $74 $75 $17 $-1 $76 reversed single #
loop $-1 -1 $-1 $-1 $77 $32 #
plane-surface $-1 -1 $-1 0 0 -20 0 0 1 1 0 0 forward_v I I I I #
coedge $-1 -1 $-1 $78 $79 $80 $81 forward $33 $-1 #
model_id-kcp-attrib $-1 -1 $-1 $-1 $36 1 1021578802 1021578802 1455030273 5 #
face $82 -1 $-1 $83 $84 $7 $-1 $85 forward single #
loop $-1 -1 $-1 $-1 $60 $36 #
cone-surface $-1 -1 $-1 0 210 0 0 -1 0 -20 0 0 1 I I 0 1 20 forward I I I I #
loop $-1 -1 $-1 $-1 $86 $25 #
coedge $-1 -1 $-1 $58 $58 $87 $88 forward $37 $-1 #
coedge $-1 -1 $-1 $41 $39 $89 $90 reversed $26 $-1 #
coedge $-1 -1 $-1 $39 $41 $91 $92 forward $26 $-1 #
coedge $-1 -1 $-1 $55 $55 $39 $59 reversed $37 $-1 #
edge $-1 -1 $-1 $93 1.2246063538223773e-016 $94 3.1415926535897931 $39 $95 forward @7 unknown #
coedge $-1 -1 $-1 $89 $91 $40 $61 forward $52 $-1 #
edge $96 -1 $-1 $63 3.1554436208840467e-032 $64 3.1415926535897931 $40 $97 forward @7 unknown #
attrib_edge_convexity-kcp-attrib $-1 -1 $98 $-1 $42 1 #
vertex $-1 -1 $-1 $61 $99 #
vertex $-1 -1 $-1 $61 $100 #
ellipse-curve $-1 -1 $-1 0 0 5.5511151231257827e-016 0 -1 0 20 0 1.8941011953321762e-015 1 I I #
face $-1 -1 $-1 $101 $102 $16 $-1 $31 reversed single #
loop $-1 -1 $-1 $-1 $103 $43 #
coedge $-1 -1 $-1 $104 $105 $106 $107 reversed $44 $-1 #
coedge $-1 -1 $-1 $108 $45 $109 $110 forward $30 $-1 #
coedge $-1 -1 $-1 $45 $108 $111 $112 reversed $30 $-1 #
coedge $-1 -1 $-1 $113 $114 $45 $72 forward $115 $-1 #
edge $-1 -1 $-1 $116 -6.4981657207918689e-016 $117 1.5707963267948959 $71 $118 forward @7 unknown #
model_id-kcp-attrib $-1 -1 $-1 $-1 $46 1 1021578802 1021578802 1455030274 2 #
face $-1 -1 $-1 $119 $120 $17 $-1 $121 reversed single #
loop $-1 -1 $-1 $-1 $122 $46 #
plane-surface $-1 -1 $-1 0 -100 0 0 1 0 0 0 1 forward_v I I I I #
coedge $-1 -1 $-1 $123 $124 $125 $126 forward $47 $-1 #
coedge $-1 -1 $-1 $127 $49 $128 $129 forward $33 $-1 #
coedge $-1 -1 $-1 $49 $127 $130 $131 forward $33 $-1 #
coedge $-1 -1 $-1 $132 $133 $49 $81 reversed $134 $-1 #
edge $-1 -1 $-1 $135 -100 $136 100 $80 $137 forward @7 unknown #
model_id-kcp-attrib $-1 -1 $-1 $-1 $51 1 1021578802 1021578802 1455030273 6 #
face $138 -1 $-1 $139 $140 $7 $-1 $141 forward single #
loop $-1 -1 $-1 $-1 $142 $51 #
cone-surface $-1 -1 $-1 0 210 0 0 -1 0 -17.5 0 0 1 I I 0 1 17.5 forward I I I I #
coedge $-1 -1 $-1 $143 $143 $144 $145 forward $54 $-1 #
coedge $-1 -1 $-1 $91 $89 $55 $88 reversed $52 $-1 #
edge $-1 -1 $-1 $93 -1.2246063538223773e-016 $94 3.1415926535897931 $55 $146 forward @7 unknown #
coedge $-1 -1 $-1 $87 $60 $56 $90 forward $52 $-1 #
edge $-1 -1 $-1 $64 0 $94 6 $56 $147 forward @7 unknown #
coedge $-1 -1 $-1 $60 $87 $57 $92 reversed $52 $-1 #
edge $-1 -1 $-1 $63 0 $93 6 $57 $148 forward @7 unknown #
vertex $-1 -1 $-1 $92 $149 #
vertex $-1 -1 $-1 $90 $150 #
ellipse-curve $-1 -1 $-1 0 60 0 0 -1 0 20 0 0 1 I I #
attrib_edge_convexity-kcp-attrib $-1 -1 $151 $-1 $61 1 #
ellipse-curve $-1 -1 $-1 -2.2204460492503131e-015 0 -1.1102230246251565e-015 0 1 0 20 0 3.5594357322699111e-015 1 I I #
convexity-sys-attrib $-1 -1 $-1 $62 $42 #
point $-1 -1 $-1 20 0 2.4492127076447545e-015 #
point $-1 -1 $-1 -20 0 -4.898425415289509e-015 #
face $-1 -1 $-1 $152 $153 $16 $-1 $154 forward single #
loop $-1 -1 $-1 $-1 $155 $66 #
coedge $-1 -1 $-1 $156 $157 $155 $158 forward $67 $-1 #
coedge $-1 -1 $-1 $159 $68 $160 $161 reversed $44 $-1 #
coedge $-1 -1 $-1 $68 $159 $70 $112 forward $44 $-1 #
coedge $-1 -1 $-1 $162 $163 $68 $107 forward $164 $-1 #
edge $-1 -1 $-1 $165 -3.1415926535897927 $166 -1.5707963267948959 $106 $167 forward @7 unknown #
coedge $-1 -1 $-1 $70 $69 $168 $169 reversed $30 $-1 #
coedge $-1 -1 $-1 $157 $156 $170 $110 reversed $67 $-1 #
edge $-1 -1 $-1 $116 -200 $171 0 $170 $172 forward @7 unknown #
coedge $-1 -1 $-1 $173 $174 $175 $112 forward $176 $-1 #
edge $-1 -1 $-1 $117 -200 $166 0 $111 $177 forward @7 unknown #
coedge $-1 -1 $-1 $114 $71 $174 $178 reversed $115 $-1 #
coedge $-1 -1 $-1 $71 $113 $179 $180 forward $115 $-1 #
loop $-1 -1 $-1 $-1 $71 $181 #
vertex $-1 -1 $-1 $182 $183 #
vertex $-1 -1 $-1 $184 $185 #
ellipse-curve $-1 -1 $-1 3.5527136788004958e-015 100 -1.6653345369377332e-015 0 -1 0 19.999999999999996 0 1.2996331441583737e-014 1 I I #
face $186 -1 $-1 $187 $188 $17 $-1 $189 reversed single #
loop $-1 -1 $-1 $-1 $190 $74 #
plane-surface $-1 -1 $-1 -20 0 0 1 0 0 0 0 -1 forward_v I I I I #
coedge $-1 -1 $-1 $191 $130 $192 $193 forward $75 $-1 #
coedge $-1 -1 $-1 $194 $77 $191 $195 forward $47 $-1 #
coedge $-1 -1 $-1 $77 $194 $196 $197 forward $47 $-1 #
coedge $-1 -1 $-1 $133 $132 $77 $126 reversed $134 $-1 #
edge $-1 -1 $-1 $198 -100 $199 100 $125 $200 forward @7 unknown #
coedge $-1 -1 $-1 $79 $78 $201 $202 forward $33 $-1 #
coedge $-1 -1 $-1 $203 $204 $78 $129 reversed $188 $-1 #
edge $-1 -1 $-1 $136 -20 $205 20 $128 $206 forward @7 unknown #
coedge $-1 -1 $-1 $122 $207 $79 $131 reversed $75 $-1 #
edge $-1 -1 $-1 $208 -20 $135 20 $130 $209 forward @7 unknown #
coedge $-1 -1 $-1 $125 $80 $207 $210 forward $134 $-1 #
coedge $-1 -1 $-1 $80 $125 $203 $211 reversed $134 $-1 #
loop $-1 -1 $-1 $-1 $132 $187 #
vertex $-1 -1 $-1 $81 $212 #
vertex $-1 -1 $-1 $81 $213 #
straight-curve $-1 -1 $-1 20 0 20 0 1 0 I I #
model_id-kcp-attrib $-1 -1 $-1 $-1 $83 1 1021578802 1021578802 1455030273 7 #
face $214 -1 $-1 $215 $216 $7 $-1 $217 forward single #
loop $-1 -1 $-1 $218 $219 $83 #
plane-surface $-1 -1 $-1 0 65 0 0 -1 0 -10 0 0 forward_v I I I I #
coedge $-1 -1 $-1 $220 $221 $222 $223 forward $84 $-1 #
coedge $-1 -1 $-1 $86 $86 $224 $225 reversed $54 $-1 #
coedge $-1 -1 $-1 $221 $220 $86 $145 reversed $84 $-1 #
edge $-1 -1 $-1 $226 0 $227 3.1415926535897931 $86 $228 forward @7 unknown #
ellipse-curve $-1 -1 $-1 0 60 0 0 1 0 20 0 0 1 I I #
straight-curve $-1 -1 $-1 -20 0 -4.898425415289509e-015 0 10 0 I I #
straight-curve $-1 -1 $-1 20 0 2.4492127076447545e-015 0 10 0 I I #
point $-1 -1 $-1 20 60 2.4492127076447545e-015 #
point $-1 -1 $-1 -20 60 0 #
convexity-sys-attrib $-1 -1 $-1 $96 $61 #
face $-1 -1 $-1 $229 $230 $16 $-1 $231 reversed single #
loop $-1 -1 $-1 $-1 $175 $101 #
plane-surface $-1 -1 $-1 0 0 20 0 0 1 1 0 0 forward_v I I I I #
coedge $-1 -1 $-1 $232 $233 $234 $158 reversed $102 $-1 #
coedge $-1 -1 $-1 $109 $103 $235 $236 reversed $67 $-1 #
coedge $-1 -1 $-1 $103 $109 $237 $238 reversed $67 $-1 #
edge $-1 -1 $-1 $239 -200 $240 0 $234 $241 forward @7 unknown #
coedge $-1 -1 $-1 $105 $104 $242 $243 reversed $44 $-1 #
coedge $-1 -1 $-1 $244 $245 $246 $161 forward $247 $-1 #
edge $-1 -1 $-1 $248 -200 $165 0 $160 $249 forward @7 unknown #
coedge $-1 -1 $-1 $163 $106 $250 $251 reversed $164 $-1 #
coedge $-1 -1 $-1 $106 $162 $244 $252 forward $164 $-1 #
loop $-1 -1 $-1 $-1 $106 $253 #
vertex $-1 -1 $-1 $254 $255 #
vertex $-1 -1 $-1 $256 $257 #
ellipse-curve $-1 -1 $-1 3.5527136788004958e-015 -100 -1.6653345369377332e-015 0 1 0 19.999999999999996 0 1.2996331441583737e-014 1 I I #
coedge $-1 -1 $-1 $258 $259 $108 $169 forward $260 $-1 #
edge $-1 -1 $-1 $166 -1.5707963267948959 $171 6.4981657207918689e-016 $168 $167 forward @7 unknown #
coedge $-1 -1 $-1 $261 $262 $263 $110 forward $230 $-1 #
vertex $-1 -1 $-1 $264 $265 #
straight-curve $-1 -1 $-1 20 -100 -1.6653345369377332e-015 0 -1 0 I I #
coedge $-1 -1 $-1 $266 $111 $259 $256 forward $176 $-1 #
coedge $-1 -1 $-1 $111 $266 $113 $178 forward $176 $-1 #
coedge $-1 -1 $-1 $267 $250 $105 $112 reversed $153 $-1 #
loop $-1 -1 $-1 $-1 $111 $268 #
straight-curve $-1 -1 $-1 3.5527136788004958e-015 -100 20 0 -1 0 I I #
edge $-1 -1 $-1 $269 -20 $117 -3.5527136788004958e-015 $113 $270 forward @7 unknown #
coedge $-1 -1 $-1 $271 $263 $114 $180 reversed $272 $-1 #
edge $-1 -1 $-1 $269 -20 $116 1.6653345369377332e-015 $179 $273 forward @7 unknown #
face $-1 -1 $-1 $274 $115 $16 $-1 $275 reversed single #
edge $-1 -1 $-1 $116 1.6653345369377332e-015 $276 20 $262 $273 forward @7 unknown #
point $-1 -1 $-1 20 100 -1.6653345369377332e-015 #
edge $-1 -1 $-1 $117 -3.5527136788004958e-015 $277 20 $278 $270 forward @7 unknown #
point $-1 -1 $-1 3.5527136788004958e-015 100 20 #
model_id-kcp-attrib $-1 -1 $-1 $-1 $119 1 1021578802 1021578802 1455030274 3 #
face $-1 -1 $-1 $-1 $134 $17 $-1 $279 reversed single #
loop $-1 -1 $-1 $-1 $203 $119 #
plane-surface $-1 -1 $-1 0 100 0 0 -1 0 0 0 -1 forward_v I I I I #
coedge $-1 -1 $-1 $280 $201 $204 $281 forward $120 $-1 #
coedge $-1 -1 $-1 $207 $122 $123 $195 reversed $75 $-1 #
coedge $-1 -1 $-1 $201 $280 $122 $193 reversed $120 $-1 #
edge $-1 -1 $-1 $208 -20 $282 20 $192 $283 forward @7 unknown #
coedge $-1 -1 $-1 $124 $123 $280 $284 forward $47 $-1 #
edge $-1 -1 $-1 $199 -20 $282 20 $191 $285 forward @7 unknown #
coedge $-1 -1 $-1 $204 $203 $124 $197 reversed $188 $-1 #
edge $-1 -1 $-1 $286 -20 $198 20 $196 $287 forward @7 unknown #
vertex $-1 -1 $-1 $126 $288 #
vertex $-1 -1 $-1 $210 $289 #
straight-curve $-1 -1 $-1 20 0 -20 0 -1 0 I I #
coedge $-1 -1 $-1 $190 $192 $127 $202 reversed $120 $-1 #
edge $-1 -1 $-1 $205 -100 $208 100 $201 $290 forward @7 unknown #
coedge $-1 -1 $-1 $196 $128 $133 $211 forward $188 $-1 #
coedge $-1 -1 $-1 $128 $196 $190 $281 reversed $188 $-1 #
vertex $-1 -1 $-1 $129 $291 #
straight-curve $-1 -1 $-1 0 100 20 -1 0 0 I I #
coedge $-1 -1 $-1 $130 $191 $132 $210 reversed $75 $-1 #
vertex $-1 -1 $-1 $202 $292 #
straight-curve $-1 -1 $-1 0 -100 20 1 0 0 I I #
edge $-1 -1 $-1 $135 -20 $199 20 $132 $293 forward @7 unknown #
edge $-1 -1 $-1 $136 -20 $198 20 $133 $294 forward @7 unknown #
point $-1 -1 $-1 20 -100 20 #
point $-1 -1 $-1 20 100 20 #
model_id-kcp-attrib $-1 -1 $-1 $-1 $139 1 1021578802 1021578802 1455030273 8 #
face $295 -1 $-1 $296 $297 $7 $-1 $298 forward single #
loop $-1 -1 $-1 $-1 $224 $139 #
cone-surface $-1 -1 $-1 0 210 0 0 -1 0 -17.5 0 0 1 I I 0 1 17.5 forward I I I I #
loop $-1 -1 $-1 $-1 $299 $83 #
coedge $-1 -1 $-1 $222 $222 $300 $301 forward $140 $-1 #
coedge $-1 -1 $-1 $144 $142 $302 $303 reversed $84 $-1 #
coedge $-1 -1 $-1 $142 $144 $304 $305 forward $84 $-1 #
coedge $-1 -1 $-1 $219 $219 $142 $223 reversed $140 $-1 #
edge $-1 -1 $-1 $306 1.2246063538223773e-016 $307 3.1415926535897931 $142 $308 forward @7 unknown #
coedge $-1 -1 $-1 $302 $304 $143 $225 forward $216 $-1 #
edge $-1 -1 $-1 $226 0 $227 3.1415926535897931 $143 $309 forward @7 unknown #
vertex $-1 -1 $-1 $225 $310 #
vertex $-1 -1 $-1 $225 $311 #
ellipse-curve $-1 -1 $-1 0 60 -1.1102230246251565e-015 0 -1 0 17.5 0 3.2532841438143167e-015 1 I I #
face $-1 -1 $-1 $312 $313 $16 $-1 $314 reversed single #
loop $-1 -1 $-1 $-1 $170 $152 #
plane-surface $-1 -1 $-1 20 0 0 -1 0 0 0 0 1 forward_v I I I I #
coedge $-1 -1 $-1 $315 $155 $316 $317 reversed $102 $-1 #
coedge $-1 -1 $-1 $155 $315 $318 $319 reversed $102 $-1 #
coedge $-1 -1 $-1 $320 $321 $322 $158 forward $323 $-1 #
coedge $-1 -1 $-1 $324 $325 $156 $236 forward $326 $-1 #
edge $-1 -1 $-1 $171 6.4981657207918689e-016 $240 1.5707963267948972 $235 $167 forward @7 unknown #
coedge $-1 -1 $-1 $327 $328 $157 $238 forward $329 $-1 #
edge $-1 -1 $-1 $239 -1.5707963267948972 $116 -6.4981657207918689e-016 $237 $118 forward @7 unknown #
vertex $-1 -1 $-1 $330 $331 #
vertex $-1 -1 $-1 $332 $333 #
straight-curve $-1 -1 $-1 3.5527136788004958e-015 -100 -20 0 -1 0 I I #
coedge $-1 -1 $-1 $334 $278 $159 $243 forward $335 $-1 #
edge $-1 -1 $-1 $117 1.5707963267948959 $248 3.1415926535897927 $242 $118 forward @7 unknown #
coedge $-1 -1 $-1 $336 $160 $163 $252 reversed $247 $-1 #
coedge $-1 -1 $-1 $160 $336 $334 $337 forward $247 $-1 #
coedge $-1 -1 $-1 $338 $339 $315 $161 reversed $313 $-1 #
loop $-1 -1 $-1 $-1 $160 $340 #
vertex $-1 -1 $-1 $341 $342 #
straight-curve $-1 -1 $-1 -20 -100 -1.6653345369377332e-015 0 -1 0 I I #
coedge $-1 -1 $-1 $175 $343 $162 $251 forward $153 $-1 #
edge $-1 -1 $-1 $344 -20 $166 3.5527136788004958e-015 $162 $345 forward @7 unknown #
edge $-1 -1 $-1 $344 -20 $165 1.6653345369377332e-015 $244 $346 forward @7 unknown #
face $-1 -1 $-1 $347 $164 $16 $-1 $348 reversed single #
edge $-1 -1 $-1 $165 1.6653345369377332e-015 $349 20 $339 $346 forward @7 unknown #
point $-1 -1 $-1 -20 -100 -1.6653345369377332e-015 #
edge $-1 -1 $-1 $166 3.5527136788004958e-015 $350 20 $259 $345 forward @7 unknown #
point $-1 -1 $-1 3.5527136788004958e-015 -100 20 #
coedge $-1 -1 $-1 $259 $168 $351 $352 reversed $260 $-1 #
coedge $-1 -1 $-1 $168 $258 $173 $256 reversed $260 $-1 #
loop $-1 -1 $-1 $-1 $168 $347 #
coedge $-1 -1 $-1 $353 $170 $325 $264 forward $230 $-1 #
coedge $-1 -1 $-1 $170 $353 $327 $182 reversed $230 $-1 #
coedge $-1 -1 $-1 $179 $351 $69 $110 reversed $272 $-1 #
edge $-1 -1 $-1 $171 1.6653345369377332e-015 $354 20 $261 $355 forward @7 unknown #
point $-1 -1 $-1 20 -100 -1.6653345369377332e-015 #
coedge $-1 -1 $-1 $174 $173 $271 $356 forward $176 $-1 #
coedge $-1 -1 $-1 $343 $175 $278 $184 forward $153 $-1 #
face $-1 -1 $-1 $357 $176 $16 $-1 $154 forward single #
vertex $-1 -1 $-1 $356 $358 #
straight-curve $-1 -1 $-1 0 100 20 -1 0 0 I I #
coedge $-1 -1 $-1 $351 $179 $266 $356 reversed $272 $-1 #
loop $-1 -1 $-1 $-1 $263 $359 #
straight-curve $-1 -1 $-1 20 100 0 0 0 -1 I I #
face $-1 -1 $-1 $360 $335 $16 $-1 $275 reversed single #
plane-surface $-1 -1 $-1 0 100 0 0 -1 0 0 0 -1 forward_v I I I I #
vertex $-1 -1 $-1 $361 $362 #
vertex $-1 -1 $-1 $184 $363 #
coedge $-1 -1 $-1 $242 $334 $267 $184 reversed $335 $-1 #
plane-surface $-1 -1 $-1 20 0 0 -1 0 0 0 0 1 forward_v I I I I #
coedge $-1 -1 $-1 $192 $190 $194 $284 reversed $120 $-1 #
edge $-1 -1 $-1 $205 -20 $286 20 $204 $364 forward @7 unknown #
vertex $-1 -1 $-1 $284 $365 #
straight-curve $-1 -1 $-1 -20 -100 0 0 0 -1 I I #
edge $-1 -1 $-1 $282 -100 $286 100 $280 $366 forward @7 unknown #
straight-curve $-1 -1 $-1 0 -100 -20 -1 0 0 I I #
vertex $-1 -1 $-1 $197 $367 #
straight-curve $-1 -1 $-1 0 100 -20 1 0 0 I I #
point $-1 -1 $-1 20 100 -20 #
point $-1 -1 $-1 20 -100 -20 #
straight-curve $-1 -1 $-1 -20 0 20 0 -1 0 I I #
point $-1 -1 $-1 -20 100 20 #
point $-1 -1 $-1 -20 -100 20 #
straight-curve $-1 -1 $-1 20 -100 0 0 0 -1 I I #
straight-curve $-1 -1 $-1 20 100 0 0 0 -1 I I #
model_id-kcp-attrib $-1 -1 $-1 $-1 $215 1 1021578802 1021578802 1455030273 9 #
face $368 -1 $-1 $369 $370 $7 $-1 $371 forward single #
loop $-1 -1 $-1 $-1 $372 $215 #
cone-surface $-1 -1 $-1 0 210 0 0 -1 0 -20 0 0 1 I I 0 1 20 forward I I I I #
coedge $-1 -1 $-1 $373 $373 $374 $375 forward $218 $-1 #
coedge $-1 -1 $-1 $304 $302 $219 $301 reversed $216 $-1 #
edge $-1 -1 $-1 $306 -1.2246063538223773e-016 $307 3.1415926535897931 $219 $376 forward @7 unknown #
coedge $-1 -1 $-1 $300 $224 $220 $303 forward $216 $-1 #
edge $-1 -1 $-1 $227 0 $307 0.5 $220 $377 forward @7 unknown #
coedge $-1 -1 $-1 $224 $300 $221 $305 reversed $216 $-1 #
edge $-1 -1 $-1 $226 0 $306 0.5 $221 $378 forward @7 unknown #
vertex $-1 -1 $-1 $305 $379 #
vertex $-1 -1 $-1 $303 $380 #
ellipse-curve $-1 -1 $-1 5.5511151231257827e-016 65 0 0 -1 0 17.5 0 0 1 I I #
ellipse-curve $-1 -1 $-1 -1.1102230246251565e-015 60 5.5511151231257827e-016 0 1 0 17.5 0 1.5879496068765819e-015 1 I I #
point $-1 -1 $-1 17.5 60 2.1430611191891602e-015 #
point $-1 -1 $-1 -17.5 60 -4.2861222383783204e-015 #
face $-1 -1 $-1 $253 $381 $16 $-1 $348 reversed single #
loop $-1 -1 $-1 $-1 $246 $229 #
plane-surface $-1 -1 $-1 -20 0 0 1 0 0 0 0 -1 forward_v I I I I #
coedge $-1 -1 $-1 $233 $232 $104 $161 forward $102 $-1 #
coedge $-1 -1 $-1 $382 $383 $232 $317 forward $384 $-1 #
edge $-1 -1 $-1 $248 -3.1415926535897936 $239 -1.5707963267948972 $316 $118 forward @7 unknown #
coedge $-1 -1 $-1 $385 $386 $233 $319 forward $381 $-1 #
edge $-1 -1 $-1 $240 1.5707963267948972 $165 3.1415926535897936 $318 $167 forward @7 unknown #
coedge $-1 -1 $-1 $387 $234 $386 $332 forward $323 $-1 #
coedge $-1 -1 $-1 $234 $387 $382 $388 forward $323 $-1 #
coedge $-1 -1 $-1 $389 $390 $103 $158 reversed $391 $-1 #
loop $-1 -1 $-1 $-1 $234 $357 #
coedge $-1 -1 $-1 $325 $235 $390 $392 reversed $326 $-1 #
coedge $-1 -1 $-1 $235 $324 $261 $264 reversed $326 $-1 #
loop $-1 -1 $-1 $-1 $235 $393 #
coedge $-1 -1 $-1 $328 $237 $262 $182 forward $329 $-1 #
coedge $-1 -1 $-1 $237 $327 $389 $330 reversed $329 $-1 #
loop $-1 -1 $-1 $-1 $237 $394 #
edge $-1 -1 $-1 $239 3.5527136788004958e-015 $276 20 $328 $395 forward @7 unknown #
point $-1 -1 $-1 3.5527136788004958e-015 100 -20 #
edge $-1 -1 $-1 $240 -3.5527136788004958e-015 $349 20 $386 $396 forward @7 unknown #
point $-1 -1 $-1 3.5527136788004958e-015 -100 -20 #
coedge $-1 -1 $-1 $278 $242 $245 $337 reversed $335 $-1 #
loop $-1 -1 $-1 $-1 $242 $274 #
coedge $-1 -1 $-1 $245 $244 $343 $397 reversed $247 $-1 #
edge $-1 -1 $-1 $277 -20 $248 1.6653345369377332e-015 $334 $398 forward @7 unknown #
coedge $-1 -1 $-1 $399 $246 $383 $341 forward $313 $-1 #
coedge $-1 -1 $-1 $246 $399 $385 $254 reversed $313 $-1 #
face $-1 -1 $-1 $359 $247 $16 $-1 $314 reversed single #
edge $-1 -1 $-1 $248 1.6653345369377332e-015 $400 20 $383 $398 forward @7 unknown #
point $-1 -1 $-1 -20 100 -1.6653345369377332e-015 #
coedge $-1 -1 $-1 $250 $267 $336 $397 forward $153 $-1 #
vertex $-1 -1 $-1 $397 $401 #
straight-curve $-1 -1 $-1 0 -100 20 1 0 0 I I #
straight-curve $-1 -1 $-1 -20 -100 0 0 0 -1 I I #
face $-1 -1 $-1 $393 $260 $16 $-1 $348 reversed single #
plane-surface $-1 -1 $-1 0 -100 0 0 1 0 0 0 1 forward_v I I I I #
vertex $-1 -1 $-1 $402 $403 #
vertex $-1 -1 $-1 $356 $404 #
coedge $-1 -1 $-1 $263 $271 $258 $352 forward $272 $-1 #
edge $-1 -1 $-1 $350 -20 $171 1.6653345369377332e-015 $351 $355 forward @7 unknown #
coedge $-1 -1 $-1 $262 $261 $405 $361 reversed $230 $-1 #
vertex $-1 -1 $-1 $264 $406 #
straight-curve $-1 -1 $-1 20 -100 0 0 0 -1 I I #
edge $-1 -1 $-1 $350 -100 $269 100 $271 $407 forward @7 unknown #
face $-1 -1 $-1 $340 $323 $16 $-1 $408 reversed single #
point $-1 -1 $-1 20 100 20 #
face $-1 -1 $-1 $-1 $272 $16 $-1 $231 reversed single #
face $-1 -1 $-1 $409 $384 $16 $-1 $275 reversed single #
edge $-1 -1 $-1 $276 -100 $354 100 $353 $410 forward @7 unknown #
point $-1 -1 $-1 20 100 -20 #
point $-1 -1 $-1 -20 100 20 #
straight-curve $-1 -1 $-1 -20 100 0 0 0 -1 I I #
point $-1 -1 $-1 -20 -100 -20 #
straight-curve $-1 -1 $-1 -20 0 -20 0 1 0 I I #
point $-1 -1 $-1 -20 100 -20 #
model_id-kcp-attrib $-1 -1 $-1 $-1 $296 1 1021578802 1021578802 1455030273 10 #
face $411 -1 $-1 $412 $413 $7 $-1 $414 forward single #
loop $-1 -1 $-1 $-1 $415 $296 #
cone-surface $-1 -1 $-1 0 205 0 0 1 0 -9.9999999999999982 0 0 1 I I -0.70710678118654746 0.70710678118654757 9.9999999999999982 forward I I I I #
coedge $-1 -1 $-1 $416 $417 $418 $419 forward $297 $-1 #
coedge $-1 -1 $-1 $299 $299 $420 $421 reversed $218 $-1 #
coedge $-1 -1 $-1 $417 $416 $299 $375 reversed $297 $-1 #
edge $-1 -1 $-1 $422 0 $423 3.1415926535897931 $299 $424 forward @7 unknown #
ellipse-curve $-1 -1 $-1 5.5511151231257827e-016 65 0 0 1 0 17.5 0 0 1 I I #
straight-curve $-1 -1 $-1 -17.5 60 -4.2861222383783204e-015 0 10 0 I I #
straight-curve $-1 -1 $-1 17.5 60 2.1430611191891602e-015 0 10 0 I I #
point $-1 -1 $-1 17.5 65 2.1430611191891602e-015 #
point $-1 -1 $-1 -17.5 65 0 #
loop $-1 -1 $-1 $-1 $318 $312 #
coedge $-1 -1 $-1 $383 $316 $321 $388 reversed $384 $-1 #
coedge $-1 -1 $-1 $316 $382 $338 $341 reversed $384 $-1 #
loop $-1 -1 $-1 $-1 $316 $360 #
coedge $-1 -1 $-1 $386 $318 $339 $254 forward $381 $-1 #
coedge $-1 -1 $-1 $318 $385 $320 $332 reversed $381 $-1 #
coedge $-1 -1 $-1 $321 $320 $399 $402 forward $323 $-1 #
edge $-1 -1 $-1 $400 -20 $239 3.5527136788004958e-015 $382 $395 forward @7 unknown #
coedge $-1 -1 $-1 $405 $322 $328 $330 forward $391 $-1 #
coedge $-1 -1 $-1 $322 $405 $324 $392 forward $391 $-1 #
loop $-1 -1 $-1 $-1 $322 $409 #
edge $-1 -1 $-1 $354 -20 $240 -3.5527136788004958e-015 $324 $396 forward @7 unknown #
face $-1 -1 $-1 $394 $326 $16 $-1 $348 reversed single #
face $-1 -1 $-1 $181 $329 $16 $-1 $275 reversed single #
straight-curve $-1 -1 $-1 0 100 -20 1 0 0 I I #
straight-curve $-1 -1 $-1 0 -100 -20 -1 0 0 I I #
edge $-1 -1 $-1 $277 -100 $344 100 $336 $425 forward @7 unknown #
straight-curve $-1 -1 $-1 -20 100 0 0 0 -1 I I #
coedge $-1 -1 $-1 $339 $338 $387 $402 reversed $313 $-1 #
vertex $-1 -1 $-1 $388 $426 #
point $-1 -1 $-1 -20 -100 20 #
edge $-1 -1 $-1 $349 -100 $400 100 $399 $427 forward @7 unknown #
point $-1 -1 $-1 -20 -100 -20 #
point $-1 -1 $-1 20 -100 20 #
coedge $-1 -1 $-1 $390 $389 $353 $361 forward $391 $-1 #
point $-1 -1 $-1 20 -100 -20 #
straight-curve $-1 -1 $-1 20 0 20 0 1 0 I I #
plane-surface $-1 -1 $-1 0 0 -20 0 0 1 1 0 0 forward_v I I I I #
face $-1 -1 $-1 $268 $391 $16 $-1 $408 reversed single #
straight-curve $-1 -1 $-1 20 0 -20 0 -1 0 I I #
model_id-kcp-attrib $-1 -1 $-1 $-1 $369 1 1021578802 1021578802 1455030273 11 #
face $428 -1 $-1 $429 $430 $7 $-1 $431 forward single #
loop $-1 -1 $-1 $-1 $432 $369 #
cone-surface $-1 -1 $-1 0 205 0 0 1 0 -9.9999999999999982 0 0 1 I I -0.70710678118654746 0.70710678118654757 9.9999999999999982 forward I I I I #
coedge $-1 -1 $-1 $418 $433 $434 $435 forward $370 $-1 #
coedge $-1 -1 $-1 $374 $372 $436 $437 reversed $297 $-1 #
coedge $-1 -1 $-1 $372 $374 $438 $439 forward $297 $-1 #
coedge $-1 -1 $-1 $440 $415 $372 $419 reversed $370 $-1 #
edge $-1 -1 $-1 $441 4.4408920985006262e-016 $442 3.141592653589794 $372 $443 forward @7 unknown #
coedge $-1 -1 $-1 $436 $438 $373 $421 forward $430 $-1 #
edge $-1 -1 $-1 $422 3.1554436208840467e-032 $423 3.1415926535897931 $373 $444 forward @7 unknown #
vertex $-1 -1 $-1 $421 $445 #
vertex $-1 -1 $-1 $421 $446 #
ellipse-curve $-1 -1 $-1 0 65 5.5511151231257827e-016 0 -1 0 20 0 1.8941011953321762e-015 1 I I #
straight-curve $-1 -1 $-1 -20 0 20 0 -1 0 I I #
point $-1 -1 $-1 -20 100 -20 #
straight-curve $-1 -1 $-1 -20 0 -20 0 1 0 I I #
model_id-kcp-attrib $-1 -1 $-1 $-1 $412 1 1021578802 1021578802 1455030273 12 #
face $447 -1 $-1 $-1 $448 $7 $-1 $449 reversed single #
loop $-1 -1 $-1 $-1 $420 $412 #
cone-surface $-1 -1 $-1 0 210 0 0 -1 0 -20 0 0 1 I I 0 1 20 forward I I I I #
coedge $-1 -1 $-1 $450 $451 $440 $452 forward $413 $-1 #
coedge $-1 -1 $-1 $415 $440 $453 $454 forward $370 $-1 #
coedge $-1 -1 $-1 $451 $450 $415 $435 reversed $413 $-1 #
edge $-1 -1 $-1 $455 0 $442 0.70710678118654768 $415 $456 forward @7 unknown #
coedge $-1 -1 $-1 $457 $420 $416 $437 forward $430 $-1 #
edge $-1 -1 $-1 $423 0 $442 13 $416 $458 forward @7 unknown #
coedge $-1 -1 $-1 $420 $457 $417 $439 reversed $430 $-1 #
edge $-1 -1 $-1 $422 0 $441 13 $417 $459 forward @7 unknown #
coedge $-1 -1 $-1 $433 $418 $432 $452 reversed $370 $-1 #
vertex $-1 -1 $-1 $439 $460 #
vertex $-1 -1 $-1 $437 $461 #
ellipse-curve $-1 -1 $-1 0 195 1.6653345369377348e-015 0 -1 0 19.999999999999996 0 7.8387817070701921e-016 1 I I #
ellipse-curve $-1 -1 $-1 -2.2204460492503131e-015 65 -1.1102230246251565e-015 0 1 0 20 0 3.5594357322699111e-015 1 I I #
point $-1 -1 $-1 20 65 2.4492127076447545e-015 #
point $-1 -1 $-1 -20 65 -4.898425415289509e-015 #
model_id-kcp-attrib $-1 -1 $-1 $-1 $429 1 1021578802 1021578802 1455030273 13 #
loop $-1 -1 $-1 $-1 $453 $429 #
plane-surface $-1 -1 $-1 0 200 0 0 -1 0 -10 0 0 forward_v I I I I #
coedge $-1 -1 $-1 $434 $432 $457 $462 forward $413 $-1 #
coedge $-1 -1 $-1 $432 $434 $463 $464 reversed $413 $-1 #
edge $-1 -1 $-1 $465 0 $441 0.70710678118654768 $440 $466 forward @7 unknown #
coedge $-1 -1 $-1 $463 $463 $433 $454 reversed $448 $-1 #
edge $-1 -1 $-1 $465 0 $455 3.1415926535897931 $453 $467 forward @7 unknown #
vertex $-1 -1 $-1 $464 $468 #
straight-curve $-1 -1 $-1 -14.999999999999998 200 -3.673819061467131e-015 -7.0710678118654737 -7.0710678118654773 7.3632583102677346e-014 I I #
coedge $-1 -1 $-1 $438 $436 $450 $462 reversed $430 $-1 #
straight-curve $-1 -1 $-1 -20 65 -4.898425415289509e-015 0 10 -1.3664283380001927e-015 I I #
straight-curve $-1 -1 $-1 20 65 2.4492127076447545e-015 0 10 6.8321416900009637e-016 I I #
point $-1 -1 $-1 20 195 1.1330996904646007e-014 #
point $-1 -1 $-1 -20 195 -2.2661993809292014e-014 #
edge $-1 -1 $-1 $441 -4.4408920985006257e-016 $442 3.1415926535897922 $457 $469 forward @7 unknown #
coedge $-1 -1 $-1 $453 $453 $451 $464 forward $448 $-1 #
edge $-1 -1 $-1 $465 0 $455 3.1415926535897931 $463 $470 forward @7 unknown #
vertex $-1 -1 $-1 $464 $471 #
straight-curve $-1 -1 $-1 14.999999999999998 200 1.8369095307335655e-015 7.0710678118654737 -7.0710678118654773 8.6592745707193569e-016 I I #
ellipse-curve $-1 -1 $-1 0 200 -5.5511151231257827e-016 0 -1 0 14.999999999999998 0 2.3920210430461438e-015 1 I I #
point $-1 -1 $-1 -14.999999999999998 200 -3.673819061467131e-015 #
ellipse-curve $-1 -1 $-1 0 195 -1.6653345369377348e-015 0 1 0 19.999999999999996 0 4.1145472445824885e-015 1 I I #
ellipse-curve $-1 -1 $-1 0 200 5.5511151231257827e-016 0 1 0 14.999999999999998 0 1.2817980184209872e-015 1 I I #
point $-1 -1 $-1 14.999999999999998 200 1.8369095307335655e-015 #
End-of-ACIS-data 