600 0 1 0           
95 GICL ACIS Healer - Source: /gicl/data5/repository/PTC/V18/asmdes18/parts/fork_2_h.prt.sat - 6 0 18 ACIS 6.0.3 Solaris 24 Sat Apr 13 23:02:50 2002 
1 9.999999999999999547e-07 1.000000000000000036e-10 
body $-1 $1 $-1 $-1 #
lump $-1 $-1 $2 $0 #
shell $-1 $-1 $-1 $3 $-1 $1 #
face $-1 $4 $5 $2 $-1 $6 forward single #
face $-1 $7 $8 $2 $-1 $9 forward single #
loop $-1 $-1 $10 $3 #
plane-surface $-1 0 0 0 0 -1 0 -10 0 0 forward_v I I I I #
face $-1 $11 $12 $2 $-1 $13 reversed single #
loop $-1 $-1 $14 $4 #
cone-surface $-1 0 210 0 0 -1 0 -20 0 0 1 I I 0 1 20 forward I I I I #
coedge $-1 $15 $15 $16 $17 forward $5 $-1 #
face $-1 $18 $19 $2 $-1 $20 forward single #
loop $-1 $21 $22 $7 #
plane-surface $-1 0 60 0 0 -1 0 -10 0 0 forward_v I I I I #
coedge $-1 $23 $24 $25 $26 forward $8 $-1 #
coedge $-1 $10 $10 $27 $28 reversed $5 $-1 #
coedge $-1 $24 $23 $10 $17 reversed $8 $-1 #
edge $-1 $29 0 $30 3.141592653589793116 $10 $31 forward 7 unknown #
face $-1 $32 $33 $2 $-1 $34 forward single #
loop $-1 $-1 $27 $11 #
cone-surface $-1 0 210 0 0 -1 0 -20 0 0 1 I I 0 1 20 forward I I I I #
loop $-1 $-1 $35 $7 #
coedge $-1 $25 $25 $36 $37 forward $12 $-1 #
coedge $-1 $16 $14 $38 $39 reversed $8 $-1 #
coedge $-1 $14 $16 $40 $41 forward $8 $-1 #
coedge $-1 $22 $22 $14 $26 reversed $12 $-1 #
edge $-1 $42 1.224606353822377258e-16 $43 3.141592653589793116 $14 $44 forward 7 unknown #
coedge $-1 $38 $40 $15 $28 forward $19 $-1 #
edge $-1 $29 3.15544362088404674e-32 $30 3.141592653589793116 $15 $45 forward 7 unknown #
vertex $-1 $28 $46 #
vertex $-1 $28 $47 #
ellipse-curve $-1 0 0 5.551115123125782702e-16 0 -1 0 20 0 1.894101195332176246e-15 1 I I #
face $-1 $48 $49 $2 $-1 $50 forward single #
loop $-1 $-1 $51 $18 #
cone-surface $-1 0 210 0 0 -1 0 -17.5 0 0 1 I I 0 1 17.5 forward I I I I #
coedge $-1 $52 $52 $53 $54 forward $21 $-1 #
coedge $-1 $40 $38 $22 $37 reversed $19 $-1 #
edge $-1 $42 -1.224606353822377258e-16 $43 3.141592653589793116 $22 $55 forward 7 unknown #
coedge $-1 $36 $27 $23 $39 forward $19 $-1 #
edge $-1 $30 0 $43 6 $23 $56 forward 7 unknown #
coedge $-1 $27 $36 $24 $41 reversed $19 $-1 #
edge $-1 $29 0 $42 6 $24 $57 forward 7 unknown #
vertex $-1 $41 $58 #
vertex $-1 $39 $59 #
ellipse-curve $-1 0 60 0 0 -1 0 20 0 0 1 I I #
ellipse-curve $-1 -2.220446049250313081e-15 0 -1.11022302462515654e-15 0 1 0 20 0 3.559435732269911057e-15 1 I I #
point $-1 20 0 2.449212707644754516e-15 #
point $-1 -20 0 -4.898425415289509033e-15 #
face $-1 $60 $61 $2 $-1 $62 forward single #
loop $-1 $63 $64 $32 #
plane-surface $-1 0 65 0 0 -1 0 -10 0 0 forward_v I I I I #
coedge $-1 $65 $66 $67 $68 forward $33 $-1 #
coedge $-1 $35 $35 $69 $70 reversed $21 $-1 #
coedge $-1 $66 $65 $35 $54 reversed $33 $-1 #
edge $-1 $71 0 $72 3.141592653589793116 $35 $73 forward 7 unknown #
ellipse-curve $-1 0 60 0 0 1 0 20 0 0 1 I I #
straight-curve $-1 -20 0 -4.898425415289509033e-15 0 10 0 I I #
straight-curve $-1 20 0 2.449212707644754516e-15 0 10 0 I I #
point $-1 20 60 2.449212707644754516e-15 #
point $-1 -20 60 0 #
face $-1 $74 $75 $2 $-1 $76 forward single #
loop $-1 $-1 $69 $48 #
cone-surface $-1 0 210 0 0 -1 0 -17.5 0 0 1 I I 0 1 17.5 forward I I I I #
loop $-1 $-1 $77 $32 #
coedge $-1 $67 $67 $78 $79 forward $49 $-1 #
coedge $-1 $53 $51 $80 $81 reversed $33 $-1 #
coedge $-1 $51 $53 $82 $83 forward $33 $-1 #
coedge $-1 $64 $64 $51 $68 reversed $49 $-1 #
edge $-1 $84 1.224606353822377258e-16 $85 3.141592653589793116 $51 $86 forward 7 unknown #
coedge $-1 $80 $82 $52 $70 forward $61 $-1 #
edge $-1 $71 0 $72 3.141592653589793116 $52 $87 forward 7 unknown #
vertex $-1 $70 $88 #
vertex $-1 $70 $89 #
ellipse-curve $-1 0 60 -1.11022302462515654e-15 0 -1 0 17.5 0 3.253284143814316742e-15 1 I I #
face $-1 $90 $91 $2 $-1 $92 forward single #
loop $-1 $-1 $93 $60 #
cone-surface $-1 0 210 0 0 -1 0 -20 0 0 1 I I 0 1 20 forward I I I I #
coedge $-1 $94 $94 $95 $96 forward $63 $-1 #
coedge $-1 $82 $80 $64 $79 reversed $61 $-1 #
edge $-1 $84 -1.224606353822377258e-16 $85 3.141592653589793116 $64 $97 forward 7 unknown #
coedge $-1 $78 $69 $65 $81 forward $61 $-1 #
edge $-1 $72 0 $85 0.5 $65 $98 forward 7 unknown #
coedge $-1 $69 $78 $66 $83 reversed $61 $-1 #
edge $-1 $71 0 $84 0.5 $66 $99 forward 7 unknown #
vertex $-1 $83 $100 #
vertex $-1 $81 $101 #
ellipse-curve $-1 5.551115123125782702e-16 65 0 0 -1 0 17.5 0 0 1 I I #
ellipse-curve $-1 -1.11022302462515654e-15 60 5.551115123125782702e-16 0 1 0 17.5 0 1.587949606876581932e-15 1 I I #
point $-1 17.5 60 2.143061119189160202e-15 #
point $-1 -17.5 60 -4.286122238378320404e-15 #
face $-1 $102 $103 $2 $-1 $104 forward single #
loop $-1 $-1 $105 $74 #
cone-surface $-1 0 205 0 0 1 0 -9.999999999999998224 0 0 1 I I -0.7071067811865474617 0.7071067811865475727 9.999999999999998224 forward I I I I #
coedge $-1 $106 $107 $108 $109 forward $75 $-1 #
coedge $-1 $77 $77 $110 $111 reversed $63 $-1 #
coedge $-1 $107 $106 $77 $96 reversed $75 $-1 #
edge $-1 $112 0 $113 3.141592653589793116 $77 $114 forward 7 unknown #
ellipse-curve $-1 5.551115123125782702e-16 65 0 0 1 0 17.5 0 0 1 I I #
straight-curve $-1 -17.5 60 -4.286122238378320404e-15 0 10 0 I I #
straight-curve $-1 17.5 60 2.143061119189160202e-15 0 10 0 I I #
point $-1 17.5 65 2.143061119189160202e-15 #
point $-1 -17.5 65 0 #
face $-1 $115 $116 $2 $-1 $117 forward single #
loop $-1 $-1 $118 $90 #
cone-surface $-1 0 205 0 0 1 0 -9.999999999999998224 0 0 1 I I -0.7071067811865474617 0.7071067811865475727 9.999999999999998224 forward I I I I #
coedge $-1 $108 $119 $120 $121 forward $91 $-1 #
coedge $-1 $95 $93 $122 $123 reversed $75 $-1 #
coedge $-1 $93 $95 $124 $125 forward $75 $-1 #
coedge $-1 $126 $105 $93 $109 reversed $91 $-1 #
edge $-1 $127 4.440892098500626162e-16 $128 3.141592653589794004 $93 $129 forward 7 unknown #
coedge $-1 $122 $124 $94 $111 forward $116 $-1 #
edge $-1 $112 3.15544362088404674e-32 $113 3.141592653589793116 $94 $130 forward 7 unknown #
vertex $-1 $111 $131 #
vertex $-1 $111 $132 #
ellipse-curve $-1 0 65 5.551115123125782702e-16 0 -1 0 20 0 1.894101195332176246e-15 1 I I #
face $-1 $-1 $133 $2 $-1 $134 reversed single #
loop $-1 $-1 $110 $102 #
cone-surface $-1 0 210 0 0 -1 0 -20 0 0 1 I I 0 1 20 forward I I I I #
coedge $-1 $135 $136 $126 $137 forward $103 $-1 #
coedge $-1 $105 $126 $138 $139 forward $91 $-1 #
coedge $-1 $136 $135 $105 $121 reversed $103 $-1 #
edge $-1 $140 0 $128 0.7071067811865476838 $105 $141 forward 7 unknown #
coedge $-1 $142 $110 $106 $123 forward $116 $-1 #
edge $-1 $113 0 $128 13 $106 $143 forward 7 unknown #
coedge $-1 $110 $142 $107 $125 reversed $116 $-1 #
edge $-1 $112 0 $127 13 $107 $144 forward 7 unknown #
coedge $-1 $119 $108 $118 $137 reversed $91 $-1 #
vertex $-1 $125 $145 #
vertex $-1 $123 $146 #
ellipse-curve $-1 0 195 1.665334536937734811e-15 0 -1 0 19.99999999999999645 0 7.838781707070192127e-16 1 I I #
ellipse-curve $-1 -2.220446049250313081e-15 65 -1.11022302462515654e-15 0 1 0 20 0 3.559435732269911057e-15 1 I I #
point $-1 20 65 2.449212707644754516e-15 #
point $-1 -20 65 -4.898425415289509033e-15 #
loop $-1 $-1 $138 $115 #
plane-surface $-1 0 200 0 0 -1 0 -10 0 0 forward_v I I I I #
coedge $-1 $120 $118 $142 $147 forward $103 $-1 #
coedge $-1 $118 $120 $148 $149 reversed $103 $-1 #
edge $-1 $150 0 $127 0.7071067811865476838 $126 $151 forward 7 unknown #
coedge $-1 $148 $148 $119 $139 reversed $133 $-1 #
edge $-1 $150 0 $140 3.141592653589793116 $138 $152 forward 7 unknown #
vertex $-1 $149 $153 #
straight-curve $-1 -14.99999999999999822 200 -3.673819061467130986e-15 -7.071067811865473729 -7.071067811865477282 7.363258310267734629e-14 I I #
coedge $-1 $124 $122 $135 $147 reversed $116 $-1 #
straight-curve $-1 -20 65 -4.898425415289509033e-15 0 10 -1.366428338000192741e-15 I I #
straight-curve $-1 20 65 2.449212707644754516e-15 0 10 6.832141690000963705e-16 I I #
point $-1 20 195 1.133099690464600684e-14 #
point $-1 -20 195 -2.266199380929201368e-14 #
edge $-1 $127 -4.440892098500625669e-16 $128 3.141592653589792228 $142 $154 forward 7 unknown #
coedge $-1 $138 $138 $136 $149 forward $133 $-1 #
edge $-1 $150 0 $140 3.141592653589793116 $148 $155 forward 7 unknown #
vertex $-1 $149 $156 #
straight-curve $-1 14.99999999999999822 200 1.836909530733565493e-15 7.071067811865473729 -7.071067811865477282 8.659274570719356893e-16 I I #
ellipse-curve $-1 0 200 -5.551115123125782702e-16 0 -1 0 14.99999999999999822 0 2.392021043046143763e-15 1 I I #
point $-1 -14.99999999999999822 200 -3.673819061467130986e-15 #
ellipse-curve $-1 0 195 -1.665334536937734811e-15 0 1 0 19.99999999999999645 0 4.114547244582488538e-15 1 I I #
ellipse-curve $-1 0 200 5.551115123125782702e-16 0 1 0 14.99999999999999822 0 1.281798018420987223e-15 1 I I #
point $-1 14.99999999999999822 200 1.836909530733565493e-15 #
End-of-ACIS-data 