700 0 2 0           
24 FBMach with ACIS - 7.0.3 13 ACIS 7.0.3 NT 24 Thu May 16 15:48:22 2002 
1 9.9999999999999995e-007 1e-010 
body $2 -1 $-1 $3 $-1 $4 #
bdycol-kcp $-1 -1 1 2 $5 $6 #
model_id-kcp-attrib $-1 -1 $-1 $-1 $0 1 1021578501 1021578502 -1306263551 1 #
lump $-1 -1 $-1 $-1 $7 $0 #
transform $-1 -1 1 0 0 0 1 0 0 0 1 0 0 0 1 rotate no_reflect no_shear #
body $8 -1 $-1 $9 $-1 $10 #
body $11 -1 $-1 $12 $-1 $13 #
shell $-1 -1 $-1 $-1 $-1 $14 $-1 $3 #
model_id-kcp-attrib $-1 -1 $-1 $-1 $5 1 1021578501 1021578502 -1305608190 1 #
lump $-1 -1 $-1 $-1 $15 $5 #
transform $-1 -1 1 0 0 0 1 0 0 0 1 -1.7763568394002505e-015 100 0 1 no_rotate no_reflect no_shear #
rgb_color-st-attrib $-1 -1 $16 $-1 $6 0.5 1 1 #
lump $-1 -1 $-1 $-1 $17 $6 #
transform $-1 -1 1 0 0 0 1 0 0 0 1 -1.7763568394002505e-015 100 0 1 no_rotate no_reflect no_shear #
face $18 -1 $-1 $19 $20 $7 $-1 $21 forward single #
shell $-1 -1 $-1 $-1 $-1 $22 $-1 $9 #
model_id-kcp-attrib $-1 -1 $-1 $11 $6 1 1021578501 1021578502 -1295122429 1 #
shell $-1 -1 $-1 $-1 $-1 $23 $-1 $12 #
model_id-kcp-attrib $-1 -1 $-1 $-1 $14 1 1021578501 1021578502 -1306263551 2 #
face $24 -1 $-1 $25 $26 $7 $-1 $27 forward single #
loop $-1 -1 $-1 $-1 $28 $14 #
plane-surface $-1 -1 $-1 0 0 0 0 -1 0 -10 0 0 forward_v I I I I #
face $-1 -1 $-1 $29 $30 $15 $-1 $31 forward single #
face $-1 -1 $-1 $32 $33 $17 $-1 $34 reversed single #
model_id-kcp-attrib $-1 -1 $-1 $-1 $19 1 1021578501 1021578502 -1306263551 3 #
face $35 -1 $-1 $36 $37 $7 $-1 $38 reversed single #
loop $-1 -1 $-1 $-1 $39 $19 #
cone-surface $-1 -1 $-1 0 210 0 0 -1 0 -20 0 0 1 I I 0 1 20 forward I I I I #
coedge $-1 -1 $-1 $40 $40 $41 $42 forward $20 $-1 #
face $-1 -1 $-1 $43 $44 $15 $-1 $45 reversed single #
loop $-1 -1 $-1 $-1 $46 $22 #
plane-surface $-1 -1 $-1 0 0 20 0 0 1 1 0 0 forward_v I I I I #
face $-1 -1 $-1 $47 $48 $17 $-1 $34 reversed single #
loop $-1 -1 $-1 $-1 $49 $23 #
cone-surface $-1 -1 $-1 3.5527136788004958e-015 -100 -1.6653345369377332e-015 0 -1 0 19.999999999999996 0 1.2996331441583737e-014 1 I I 0 1 19.999999999999996 forward I I I I #
model_id-kcp-attrib $-1 -1 $-1 $-1 $25 1 1021578501 1021578502 -1306263551 4 #
face $50 -1 $-1 $51 $52 $7 $-1 $53 forward single #
loop $-1 -1 $-1 $54 $55 $25 #
plane-surface $-1 -1 $-1 0 60 0 0 -1 0 -10 0 0 forward_v I I I I #
coedge $-1 -1 $-1 $56 $57 $58 $59 forward $26 $-1 #
coedge $-1 -1 $-1 $28 $28 $60 $61 reversed $20 $-1 #
coedge $-1 -1 $-1 $57 $56 $28 $42 reversed $26 $-1 #
edge $62 -1 $-1 $63 0 $64 3.1415926535897931 $28 $65 forward @7 unknown #
face $66 -1 $-1 $67 $68 $15 $-1 $69 reversed single #
loop $-1 -1 $-1 $-1 $70 $29 #
plane-surface $-1 -1 $-1 0 0 -20 0 0 1 1 0 0 forward_v I I I I #
coedge $-1 -1 $-1 $71 $72 $73 $74 forward $30 $-1 #
face $-1 -1 $-1 $75 $76 $17 $-1 $34 reversed single #
loop $-1 -1 $-1 $-1 $77 $32 #
coedge $-1 -1 $-1 $78 $79 $80 $81 reversed $33 $-1 #
model_id-kcp-attrib $-1 -1 $-1 $-1 $36 1 1021578501 1021578502 -1306263551 5 #
face $82 -1 $-1 $83 $84 $7 $-1 $85 forward single #
loop $-1 -1 $-1 $-1 $60 $36 #
cone-surface $-1 -1 $-1 0 210 0 0 -1 0 -20 0 0 1 I I 0 1 20 forward I I I I #
loop $-1 -1 $-1 $-1 $86 $25 #
coedge $-1 -1 $-1 $58 $58 $87 $88 forward $37 $-1 #
coedge $-1 -1 $-1 $41 $39 $89 $90 reversed $26 $-1 #
coedge $-1 -1 $-1 $39 $41 $91 $92 forward $26 $-1 #
coedge $-1 -1 $-1 $55 $55 $39 $59 reversed $37 $-1 #
edge $-1 -1 $-1 $93 1.2246063538223773e-016 $94 3.1415926535897931 $39 $95 forward @7 unknown #
coedge $-1 -1 $-1 $89 $91 $40 $61 forward $52 $-1 #
edge $96 -1 $-1 $63 3.1554436208840467e-032 $64 3.1415926535897931 $40 $97 forward @7 unknown #
attrib_edge_convexity-kcp-attrib $-1 -1 $98 $-1 $42 1 #
vertex $-1 -1 $-1 $61 $99 #
vertex $-1 -1 $-1 $61 $100 #
ellipse-curve $-1 -1 $-1 0 0 5.5511151231257827e-016 0 -1 0 20 0 1.8941011953321762e-015 1 I I #
model_id-kcp-attrib $-1 -1 $-1 $-1 $43 1 1021578501 1021578502 -1305608190 2 #
face $-1 -1 $-1 $101 $102 $15 $-1 $103 reversed single #
loop $-1 -1 $-1 $-1 $104 $43 #
plane-surface $-1 -1 $-1 0 -100 0 0 1 0 0 0 1 forward_v I I I I #
coedge $-1 -1 $-1 $105 $106 $107 $108 forward $44 $-1 #
coedge $-1 -1 $-1 $109 $46 $110 $111 forward $30 $-1 #
coedge $-1 -1 $-1 $46 $109 $112 $113 forward $30 $-1 #
coedge $-1 -1 $-1 $114 $115 $46 $74 reversed $116 $-1 #
edge $-1 -1 $-1 $117 -100 $118 100 $73 $119 forward @7 unknown #
face $-1 -1 $-1 $120 $121 $17 $-1 $34 reversed single #
loop $-1 -1 $-1 $-1 $122 $47 #
coedge $-1 -1 $-1 $123 $124 $125 $126 reversed $48 $-1 #
coedge $-1 -1 $-1 $127 $49 $128 $129 forward $33 $-1 #
coedge $-1 -1 $-1 $49 $127 $130 $131 reversed $33 $-1 #
coedge $-1 -1 $-1 $132 $133 $49 $81 forward $134 $-1 #
edge $-1 -1 $-1 $135 -6.4981657207918689e-016 $136 1.5707963267948959 $80 $137 forward @7 unknown #
model_id-kcp-attrib $-1 -1 $-1 $-1 $51 1 1021578501 1021578502 -1306263551 6 #
face $138 -1 $-1 $139 $140 $7 $-1 $141 forward single #
loop $-1 -1 $-1 $-1 $142 $51 #
cone-surface $-1 -1 $-1 0 210 0 0 -1 0 -17.5 0 0 1 I I 0 1 17.5 forward I I I I #
coedge $-1 -1 $-1 $143 $143 $144 $145 forward $54 $-1 #
coedge $-1 -1 $-1 $91 $89 $55 $88 reversed $52 $-1 #
edge $-1 -1 $-1 $93 -1.2246063538223773e-016 $94 3.1415926535897931 $55 $146 forward @7 unknown #
coedge $-1 -1 $-1 $87 $60 $56 $90 forward $52 $-1 #
edge $-1 -1 $-1 $64 0 $94 6 $56 $147 forward @7 unknown #
coedge $-1 -1 $-1 $60 $87 $57 $92 reversed $52 $-1 #
edge $-1 -1 $-1 $63 0 $93 6 $57 $148 forward @7 unknown #
vertex $-1 -1 $-1 $92 $149 #
vertex $-1 -1 $-1 $90 $150 #
ellipse-curve $-1 -1 $-1 0 60 0 0 -1 0 20 0 0 1 I I #
attrib_edge_convexity-kcp-attrib $-1 -1 $151 $-1 $61 1 #
ellipse-curve $-1 -1 $-1 -2.2204460492503131e-015 0 -1.1102230246251565e-015 0 1 0 20 0 3.5594357322699111e-015 1 I I #
convexity-sys-attrib $-1 -1 $-1 $62 $42 #
point $-1 -1 $-1 20 0 2.4492127076447545e-015 #
point $-1 -1 $-1 -20 0 -4.898425415289509e-015 #
face $152 -1 $-1 $153 $154 $15 $-1 $155 reversed single #
loop $-1 -1 $-1 $-1 $156 $67 #
plane-surface $-1 -1 $-1 -20 0 0 1 0 0 0 0 -1 forward_v I I I I #
coedge $-1 -1 $-1 $157 $112 $158 $159 forward $68 $-1 #
coedge $-1 -1 $-1 $160 $70 $157 $161 forward $44 $-1 #
coedge $-1 -1 $-1 $70 $160 $162 $163 forward $44 $-1 #
coedge $-1 -1 $-1 $115 $114 $70 $108 reversed $116 $-1 #
edge $-1 -1 $-1 $164 -100 $165 100 $107 $166 forward @7 unknown #
coedge $-1 -1 $-1 $72 $71 $167 $168 forward $30 $-1 #
coedge $-1 -1 $-1 $169 $170 $71 $111 reversed $154 $-1 #
edge $-1 -1 $-1 $118 -20 $171 20 $110 $172 forward @7 unknown #
coedge $-1 -1 $-1 $104 $173 $72 $113 reversed $68 $-1 #
edge $-1 -1 $-1 $174 -20 $117 20 $112 $175 forward @7 unknown #
coedge $-1 -1 $-1 $107 $73 $173 $176 forward $116 $-1 #
coedge $-1 -1 $-1 $73 $107 $169 $177 reversed $116 $-1 #
loop $-1 -1 $-1 $-1 $114 $153 #
vertex $-1 -1 $-1 $74 $178 #
vertex $-1 -1 $-1 $74 $179 #
straight-curve $-1 -1 $-1 20 0 20 0 1 0 I I #
face $-1 -1 $-1 $180 $181 $17 $-1 $182 forward single #
loop $-1 -1 $-1 $-1 $183 $75 #
coedge $-1 -1 $-1 $184 $185 $183 $186 forward $76 $-1 #
coedge $-1 -1 $-1 $187 $77 $188 $189 reversed $48 $-1 #
coedge $-1 -1 $-1 $77 $187 $79 $131 forward $48 $-1 #
coedge $-1 -1 $-1 $190 $191 $77 $126 forward $192 $-1 #
edge $-1 -1 $-1 $193 -3.1415926535897927 $194 -1.5707963267948959 $125 $195 forward @7 unknown #
coedge $-1 -1 $-1 $79 $78 $196 $197 reversed $33 $-1 #
coedge $-1 -1 $-1 $185 $184 $198 $129 reversed $76 $-1 #
edge $-1 -1 $-1 $135 -200 $199 0 $198 $200 forward @7 unknown #
coedge $-1 -1 $-1 $201 $202 $203 $131 forward $204 $-1 #
edge $-1 -1 $-1 $136 -200 $194 0 $130 $205 forward @7 unknown #
coedge $-1 -1 $-1 $133 $80 $202 $206 reversed $134 $-1 #
coedge $-1 -1 $-1 $80 $132 $207 $208 forward $134 $-1 #
loop $-1 -1 $-1 $-1 $80 $209 #
vertex $-1 -1 $-1 $210 $211 #
vertex $-1 -1 $-1 $212 $213 #
ellipse-curve $-1 -1 $-1 3.5527136788004958e-015 100 -1.6653345369377332e-015 0 -1 0 19.999999999999996 0 1.2996331441583737e-014 1 I I #
model_id-kcp-attrib $-1 -1 $-1 $-1 $83 1 1021578501 1021578502 -1306263551 7 #
face $214 -1 $-1 $215 $216 $7 $-1 $217 forward single #
loop $-1 -1 $-1 $218 $219 $83 #
plane-surface $-1 -1 $-1 0 65 0 0 -1 0 -10 0 0 forward_v I I I I #
coedge $-1 -1 $-1 $220 $221 $222 $223 forward $84 $-1 #
coedge $-1 -1 $-1 $86 $86 $224 $225 reversed $54 $-1 #
coedge $-1 -1 $-1 $221 $220 $86 $145 reversed $84 $-1 #
edge $-1 -1 $-1 $226 0 $227 3.1415926535897931 $86 $228 forward @7 unknown #
ellipse-curve $-1 -1 $-1 0 60 0 0 1 0 20 0 0 1 I I #
straight-curve $-1 -1 $-1 -20 0 -4.898425415289509e-015 0 10 0 I I #
straight-curve $-1 -1 $-1 20 0 2.4492127076447545e-015 0 10 0 I I #
point $-1 -1 $-1 20 60 2.4492127076447545e-015 #
point $-1 -1 $-1 -20 60 0 #
convexity-sys-attrib $-1 -1 $-1 $96 $61 #
model_id-kcp-attrib $-1 -1 $-1 $-1 $101 1 1021578501 1021578502 -1305608190 3 #
face $-1 -1 $-1 $-1 $116 $15 $-1 $229 reversed single #
loop $-1 -1 $-1 $-1 $169 $101 #
plane-surface $-1 -1 $-1 0 100 0 0 -1 0 0 0 -1 forward_v I I I I #
coedge $-1 -1 $-1 $230 $167 $170 $231 forward $102 $-1 #
coedge $-1 -1 $-1 $173 $104 $105 $161 reversed $68 $-1 #
coedge $-1 -1 $-1 $167 $230 $104 $159 reversed $102 $-1 #
edge $-1 -1 $-1 $174 -20 $232 20 $158 $233 forward @7 unknown #
coedge $-1 -1 $-1 $106 $105 $230 $234 forward $44 $-1 #
edge $-1 -1 $-1 $165 -20 $232 20 $157 $235 forward @7 unknown #
coedge $-1 -1 $-1 $170 $169 $106 $163 reversed $154 $-1 #
edge $-1 -1 $-1 $236 -20 $164 20 $162 $237 forward @7 unknown #
vertex $-1 -1 $-1 $108 $238 #
vertex $-1 -1 $-1 $176 $239 #
straight-curve $-1 -1 $-1 20 0 -20 0 -1 0 I I #
coedge $-1 -1 $-1 $156 $158 $109 $168 reversed $102 $-1 #
edge $-1 -1 $-1 $171 -100 $174 100 $167 $240 forward @7 unknown #
coedge $-1 -1 $-1 $162 $110 $115 $177 forward $154 $-1 #
coedge $-1 -1 $-1 $110 $162 $156 $231 reversed $154 $-1 #
vertex $-1 -1 $-1 $111 $241 #
straight-curve $-1 -1 $-1 0 100 20 -1 0 0 I I #
coedge $-1 -1 $-1 $112 $157 $114 $176 reversed $68 $-1 #
vertex $-1 -1 $-1 $168 $242 #
straight-curve $-1 -1 $-1 0 -100 20 1 0 0 I I #
edge $-1 -1 $-1 $117 -20 $165 20 $114 $243 forward @7 unknown #
edge $-1 -1 $-1 $118 -20 $164 20 $115 $244 forward @7 unknown #
point $-1 -1 $-1 20 -100 20 #
point $-1 -1 $-1 20 100 20 #
face $-1 -1 $-1 $245 $246 $17 $-1 $247 reversed single #
loop $-1 -1 $-1 $-1 $203 $120 #
plane-surface $-1 -1 $-1 0 0 20 0 0 1 1 0 0 forward_v I I I I #
coedge $-1 -1 $-1 $248 $249 $250 $186 reversed $121 $-1 #
coedge $-1 -1 $-1 $128 $122 $251 $252 reversed $76 $-1 #
coedge $-1 -1 $-1 $122 $128 $253 $254 reversed $76 $-1 #
edge $-1 -1 $-1 $255 -200 $256 0 $250 $257 forward @7 unknown #
coedge $-1 -1 $-1 $124 $123 $258 $259 reversed $48 $-1 #
coedge $-1 -1 $-1 $260 $261 $262 $189 forward $263 $-1 #
edge $-1 -1 $-1 $264 -200 $193 0 $188 $265 forward @7 unknown #
coedge $-1 -1 $-1 $191 $125 $266 $267 reversed $192 $-1 #
coedge $-1 -1 $-1 $125 $190 $260 $268 forward $192 $-1 #
loop $-1 -1 $-1 $-1 $125 $269 #
vertex $-1 -1 $-1 $270 $271 #
vertex $-1 -1 $-1 $272 $273 #
ellipse-curve $-1 -1 $-1 3.5527136788004958e-015 -100 -1.6653345369377332e-015 0 1 0 19.999999999999996 0 1.2996331441583737e-014 1 I I #
coedge $-1 -1 $-1 $274 $275 $127 $197 forward $276 $-1 #
edge $-1 -1 $-1 $194 -1.5707963267948959 $199 6.4981657207918689e-016 $196 $195 forward @7 unknown #
coedge $-1 -1 $-1 $277 $278 $279 $129 forward $246 $-1 #
vertex $-1 -1 $-1 $280 $281 #
straight-curve $-1 -1 $-1 20 -100 -1.6653345369377332e-015 0 -1 0 I I #
coedge $-1 -1 $-1 $282 $130 $275 $272 forward $204 $-1 #
coedge $-1 -1 $-1 $130 $282 $132 $206 forward $204 $-1 #
coedge $-1 -1 $-1 $283 $266 $124 $131 reversed $181 $-1 #
loop $-1 -1 $-1 $-1 $130 $284 #
straight-curve $-1 -1 $-1 3.5527136788004958e-015 -100 20 0 -1 0 I I #
edge $-1 -1 $-1 $285 -20 $136 -3.5527136788004958e-015 $132 $286 forward @7 unknown #
coedge $-1 -1 $-1 $287 $279 $133 $208 reversed $288 $-1 #
edge $-1 -1 $-1 $285 -20 $135 1.6653345369377332e-015 $207 $289 forward @7 unknown #
face $-1 -1 $-1 $290 $134 $17 $-1 $291 reversed single #
edge $-1 -1 $-1 $135 1.6653345369377332e-015 $292 20 $278 $289 forward @7 unknown #
point $-1 -1 $-1 20 100 -1.6653345369377332e-015 #
edge $-1 -1 $-1 $136 -3.5527136788004958e-015 $293 20 $294 $286 forward @7 unknown #
point $-1 -1 $-1 3.5527136788004958e-015 100 20 #
model_id-kcp-attrib $-1 -1 $-1 $-1 $139 1 1021578501 1021578502 -1306263551 8 #
face $295 -1 $-1 $296 $297 $7 $-1 $298 forward single #
loop $-1 -1 $-1 $-1 $224 $139 #
cone-surface $-1 -1 $-1 0 210 0 0 -1 0 -17.5 0 0 1 I I 0 1 17.5 forward I I I I #
loop $-1 -1 $-1 $-1 $299 $83 #
coedge $-1 -1 $-1 $222 $222 $300 $301 forward $140 $-1 #
coedge $-1 -1 $-1 $144 $142 $302 $303 reversed $84 $-1 #
coedge $-1 -1 $-1 $142 $144 $304 $305 forward $84 $-1 #
coedge $-1 -1 $-1 $219 $219 $142 $223 reversed $140 $-1 #
edge $-1 -1 $-1 $306 1.2246063538223773e-016 $307 3.1415926535897931 $142 $308 forward @7 unknown #
coedge $-1 -1 $-1 $302 $304 $143 $225 forward $216 $-1 #
edge $-1 -1 $-1 $226 0 $227 3.1415926535897931 $143 $309 forward @7 unknown #
vertex $-1 -1 $-1 $225 $310 #
vertex $-1 -1 $-1 $225 $311 #
ellipse-curve $-1 -1 $-1 0 60 -1.1102230246251565e-015 0 -1 0 17.5 0 3.2532841438143167e-015 1 I I #
plane-surface $-1 -1 $-1 20 0 0 -1 0 0 0 0 1 forward_v I I I I #
coedge $-1 -1 $-1 $158 $156 $160 $234 reversed $102 $-1 #
edge $-1 -1 $-1 $171 -20 $236 20 $170 $312 forward @7 unknown #
vertex $-1 -1 $-1 $234 $313 #
straight-curve $-1 -1 $-1 -20 -100 0 0 0 -1 I I #
edge $-1 -1 $-1 $232 -100 $236 100 $230 $314 forward @7 unknown #
straight-curve $-1 -1 $-1 0 -100 -20 -1 0 0 I I #
vertex $-1 -1 $-1 $163 $315 #
straight-curve $-1 -1 $-1 0 100 -20 1 0 0 I I #
point $-1 -1 $-1 20 100 -20 #
point $-1 -1 $-1 20 -100 -20 #
straight-curve $-1 -1 $-1 -20 0 20 0 -1 0 I I #
point $-1 -1 $-1 -20 100 20 #
point $-1 -1 $-1 -20 -100 20 #
straight-curve $-1 -1 $-1 20 -100 0 0 0 -1 I I #
straight-curve $-1 -1 $-1 20 100 0 0 0 -1 I I #
face $-1 -1 $-1 $316 $317 $17 $-1 $318 reversed single #
loop $-1 -1 $-1 $-1 $198 $180 #
plane-surface $-1 -1 $-1 20 0 0 -1 0 0 0 0 1 forward_v I I I I #
coedge $-1 -1 $-1 $319 $183 $320 $321 reversed $121 $-1 #
coedge $-1 -1 $-1 $183 $319 $322 $323 reversed $121 $-1 #
coedge $-1 -1 $-1 $324 $325 $326 $186 forward $327 $-1 #
coedge $-1 -1 $-1 $328 $329 $184 $252 forward $330 $-1 #
edge $-1 -1 $-1 $199 6.4981657207918689e-016 $256 1.5707963267948972 $251 $195 forward @7 unknown #
coedge $-1 -1 $-1 $331 $332 $185 $254 forward $333 $-1 #
edge $-1 -1 $-1 $255 -1.5707963267948972 $135 -6.4981657207918689e-016 $253 $137 forward @7 unknown #
vertex $-1 -1 $-1 $334 $335 #
vertex $-1 -1 $-1 $336 $337 #
straight-curve $-1 -1 $-1 3.5527136788004958e-015 -100 -20 0 -1 0 I I #
coedge $-1 -1 $-1 $338 $294 $187 $259 forward $339 $-1 #
edge $-1 -1 $-1 $136 1.5707963267948959 $264 3.1415926535897927 $258 $137 forward @7 unknown #
coedge $-1 -1 $-1 $340 $188 $191 $268 reversed $263 $-1 #
coedge $-1 -1 $-1 $188 $340 $338 $341 forward $263 $-1 #
coedge $-1 -1 $-1 $342 $343 $319 $189 reversed $317 $-1 #
loop $-1 -1 $-1 $-1 $188 $344 #
vertex $-1 -1 $-1 $345 $346 #
straight-curve $-1 -1 $-1 -20 -100 -1.6653345369377332e-015 0 -1 0 I I #
coedge $-1 -1 $-1 $203 $347 $190 $267 forward $181 $-1 #
edge $-1 -1 $-1 $348 -20 $194 3.5527136788004958e-015 $190 $349 forward @7 unknown #
edge $-1 -1 $-1 $348 -20 $193 1.6653345369377332e-015 $260 $350 forward @7 unknown #
face $-1 -1 $-1 $351 $192 $17 $-1 $352 reversed single #
edge $-1 -1 $-1 $193 1.6653345369377332e-015 $353 20 $343 $350 forward @7 unknown #
point $-1 -1 $-1 -20 -100 -1.6653345369377332e-015 #
edge $-1 -1 $-1 $194 3.5527136788004958e-015 $354 20 $275 $349 forward @7 unknown #
point $-1 -1 $-1 3.5527136788004958e-015 -100 20 #
coedge $-1 -1 $-1 $275 $196 $355 $356 reversed $276 $-1 #
coedge $-1 -1 $-1 $196 $274 $201 $272 reversed $276 $-1 #
loop $-1 -1 $-1 $-1 $196 $351 #
coedge $-1 -1 $-1 $357 $198 $329 $280 forward $246 $-1 #
coedge $-1 -1 $-1 $198 $357 $331 $210 reversed $246 $-1 #
coedge $-1 -1 $-1 $207 $355 $78 $129 reversed $288 $-1 #
edge $-1 -1 $-1 $199 1.6653345369377332e-015 $358 20 $277 $359 forward @7 unknown #
point $-1 -1 $-1 20 -100 -1.6653345369377332e-015 #
coedge $-1 -1 $-1 $202 $201 $287 $360 forward $204 $-1 #
coedge $-1 -1 $-1 $347 $203 $294 $212 forward $181 $-1 #
face $-1 -1 $-1 $361 $204 $17 $-1 $182 forward single #
vertex $-1 -1 $-1 $360 $362 #
straight-curve $-1 -1 $-1 0 100 20 -1 0 0 I I #
coedge $-1 -1 $-1 $355 $207 $282 $360 reversed $288 $-1 #
loop $-1 -1 $-1 $-1 $279 $363 #
straight-curve $-1 -1 $-1 20 100 0 0 0 -1 I I #
face $-1 -1 $-1 $364 $339 $17 $-1 $291 reversed single #
plane-surface $-1 -1 $-1 0 100 0 0 -1 0 0 0 -1 forward_v I I I I #
vertex $-1 -1 $-1 $365 $366 #
vertex $-1 -1 $-1 $212 $367 #
coedge $-1 -1 $-1 $258 $338 $283 $212 reversed $339 $-1 #
model_id-kcp-attrib $-1 -1 $-1 $-1 $215 1 1021578501 1021578502 -1306263551 9 #
face $368 -1 $-1 $369 $370 $7 $-1 $371 forward single #
loop $-1 -1 $-1 $-1 $372 $215 #
cone-surface $-1 -1 $-1 0 210 0 0 -1 0 -20 0 0 1 I I 0 1 20 forward I I I I #
coedge $-1 -1 $-1 $373 $373 $374 $375 forward $218 $-1 #
coedge $-1 -1 $-1 $304 $302 $219 $301 reversed $216 $-1 #
edge $-1 -1 $-1 $306 -1.2246063538223773e-016 $307 3.1415926535897931 $219 $376 forward @7 unknown #
coedge $-1 -1 $-1 $300 $224 $220 $303 forward $216 $-1 #
edge $-1 -1 $-1 $227 0 $307 0.5 $220 $377 forward @7 unknown #
coedge $-1 -1 $-1 $224 $300 $221 $305 reversed $216 $-1 #
edge $-1 -1 $-1 $226 0 $306 0.5 $221 $378 forward @7 unknown #
vertex $-1 -1 $-1 $305 $379 #
vertex $-1 -1 $-1 $303 $380 #
ellipse-curve $-1 -1 $-1 5.5511151231257827e-016 65 0 0 -1 0 17.5 0 0 1 I I #
ellipse-curve $-1 -1 $-1 -1.1102230246251565e-015 60 5.5511151231257827e-016 0 1 0 17.5 0 1.5879496068765819e-015 1 I I #
point $-1 -1 $-1 17.5 60 2.1430611191891602e-015 #
point $-1 -1 $-1 -17.5 60 -4.2861222383783204e-015 #
straight-curve $-1 -1 $-1 -20 100 0 0 0 -1 I I #
point $-1 -1 $-1 -20 -100 -20 #
straight-curve $-1 -1 $-1 -20 0 -20 0 1 0 I I #
point $-1 -1 $-1 -20 100 -20 #
face $-1 -1 $-1 $269 $381 $17 $-1 $352 reversed single #
loop $-1 -1 $-1 $-1 $262 $245 #
plane-surface $-1 -1 $-1 -20 0 0 1 0 0 0 0 -1 forward_v I I I I #
coedge $-1 -1 $-1 $249 $248 $123 $189 forward $121 $-1 #
coedge $-1 -1 $-1 $382 $383 $248 $321 forward $384 $-1 #
edge $-1 -1 $-1 $264 -3.1415926535897936 $255 -1.5707963267948972 $320 $137 forward @7 unknown #
coedge $-1 -1 $-1 $385 $386 $249 $323 forward $381 $-1 #
edge $-1 -1 $-1 $256 1.5707963267948972 $193 3.1415926535897936 $322 $195 forward @7 unknown #
coedge $-1 -1 $-1 $387 $250 $386 $336 forward $327 $-1 #
coedge $-1 -1 $-1 $250 $387 $382 $388 forward $327 $-1 #
coedge $-1 -1 $-1 $389 $390 $122 $186 reversed $391 $-1 #
loop $-1 -1 $-1 $-1 $250 $361 #
coedge $-1 -1 $-1 $329 $251 $390 $392 reversed $330 $-1 #
coedge $-1 -1 $-1 $251 $328 $277 $280 reversed $330 $-1 #
loop $-1 -1 $-1 $-1 $251 $393 #
coedge $-1 -1 $-1 $332 $253 $278 $210 forward $333 $-1 #
coedge $-1 -1 $-1 $253 $331 $389 $334 reversed $333 $-1 #
loop $-1 -1 $-1 $-1 $253 $394 #
edge $-1 -1 $-1 $255 3.5527136788004958e-015 $292 20 $332 $395 forward @7 unknown #
point $-1 -1 $-1 3.5527136788004958e-015 100 -20 #
edge $-1 -1 $-1 $256 -3.5527136788004958e-015 $353 20 $386 $396 forward @7 unknown #
point $-1 -1 $-1 3.5527136788004958e-015 -100 -20 #
coedge $-1 -1 $-1 $294 $258 $261 $341 reversed $339 $-1 #
loop $-1 -1 $-1 $-1 $258 $290 #
coedge $-1 -1 $-1 $261 $260 $347 $397 reversed $263 $-1 #
edge $-1 -1 $-1 $293 -20 $264 1.6653345369377332e-015 $338 $398 forward @7 unknown #
coedge $-1 -1 $-1 $399 $262 $383 $345 forward $317 $-1 #
coedge $-1 -1 $-1 $262 $399 $385 $270 reversed $317 $-1 #
face $-1 -1 $-1 $363 $263 $17 $-1 $318 reversed single #
edge $-1 -1 $-1 $264 1.6653345369377332e-015 $400 20 $383 $398 forward @7 unknown #
point $-1 -1 $-1 -20 100 -1.6653345369377332e-015 #
coedge $-1 -1 $-1 $266 $283 $340 $397 forward $181 $-1 #
vertex $-1 -1 $-1 $397 $401 #
straight-curve $-1 -1 $-1 0 -100 20 1 0 0 I I #
straight-curve $-1 -1 $-1 -20 -100 0 0 0 -1 I I #
face $-1 -1 $-1 $393 $276 $17 $-1 $352 reversed single #
plane-surface $-1 -1 $-1 0 -100 0 0 1 0 0 0 1 forward_v I I I I #
vertex $-1 -1 $-1 $402 $403 #
vertex $-1 -1 $-1 $360 $404 #
coedge $-1 -1 $-1 $279 $287 $274 $356 forward $288 $-1 #
edge $-1 -1 $-1 $354 -20 $199 1.6653345369377332e-015 $355 $359 forward @7 unknown #
coedge $-1 -1 $-1 $278 $277 $405 $365 reversed $246 $-1 #
vertex $-1 -1 $-1 $280 $406 #
straight-curve $-1 -1 $-1 20 -100 0 0 0 -1 I I #
edge $-1 -1 $-1 $354 -100 $285 100 $287 $407 forward @7 unknown #
face $-1 -1 $-1 $344 $327 $17 $-1 $408 reversed single #
point $-1 -1 $-1 20 100 20 #
face $-1 -1 $-1 $-1 $288 $17 $-1 $247 reversed single #
face $-1 -1 $-1 $409 $384 $17 $-1 $291 reversed single #
edge $-1 -1 $-1 $292 -100 $358 100 $357 $410 forward @7 unknown #
point $-1 -1 $-1 20 100 -20 #
point $-1 -1 $-1 -20 100 20 #
model_id-kcp-attrib $-1 -1 $-1 $-1 $296 1 1021578501 1021578502 -1306263551 10 #
face $411 -1 $-1 $412 $413 $7 $-1 $414 forward single #
loop $-1 -1 $-1 $-1 $415 $296 #
cone-surface $-1 -1 $-1 0 205 0 0 1 0 -9.9999999999999982 0 0 1 I I -0.70710678118654746 0.70710678118654757 9.9999999999999982 forward I I I I #
coedge $-1 -1 $-1 $416 $417 $418 $419 forward $297 $-1 #
coedge $-1 -1 $-1 $299 $299 $420 $421 reversed $218 $-1 #
coedge $-1 -1 $-1 $417 $416 $299 $375 reversed $297 $-1 #
edge $-1 -1 $-1 $422 0 $423 3.1415926535897931 $299 $424 forward @7 unknown #
ellipse-curve $-1 -1 $-1 5.5511151231257827e-016 65 0 0 1 0 17.5 0 0 1 I I #
straight-curve $-1 -1 $-1 -17.5 60 -4.2861222383783204e-015 0 10 0 I I #
straight-curve $-1 -1 $-1 17.5 60 2.1430611191891602e-015 0 10 0 I I #
point $-1 -1 $-1 17.5 65 2.1430611191891602e-015 #
point $-1 -1 $-1 -17.5 65 0 #
loop $-1 -1 $-1 $-1 $322 $316 #
coedge $-1 -1 $-1 $383 $320 $325 $388 reversed $384 $-1 #
coedge $-1 -1 $-1 $320 $382 $342 $345 reversed $384 $-1 #
loop $-1 -1 $-1 $-1 $320 $364 #
coedge $-1 -1 $-1 $386 $322 $343 $270 forward $381 $-1 #
coedge $-1 -1 $-1 $322 $385 $324 $336 reversed $381 $-1 #
coedge $-1 -1 $-1 $325 $324 $399 $402 forward $327 $-1 #
edge $-1 -1 $-1 $400 -20 $255 3.5527136788004958e-015 $382 $395 forward @7 unknown #
coedge $-1 -1 $-1 $405 $326 $332 $334 forward $391 $-1 #
coedge $-1 -1 $-1 $326 $405 $328 $392 forward $391 $-1 #
loop $-1 -1 $-1 $-1 $326 $409 #
edge $-1 -1 $-1 $358 -20 $256 -3.5527136788004958e-015 $328 $396 forward @7 unknown #
face $-1 -1 $-1 $394 $330 $17 $-1 $352 reversed single #
face $-1 -1 $-1 $209 $333 $17 $-1 $291 reversed single #
straight-curve $-1 -1 $-1 0 100 -20 1 0 0 I I #
straight-curve $-1 -1 $-1 0 -100 -20 -1 0 0 I I #
edge $-1 -1 $-1 $293 -100 $348 100 $340 $425 forward @7 unknown #
straight-curve $-1 -1 $-1 -20 100 0 0 0 -1 I I #
coedge $-1 -1 $-1 $343 $342 $387 $402 reversed $317 $-1 #
vertex $-1 -1 $-1 $388 $426 #
point $-1 -1 $-1 -20 -100 20 #
edge $-1 -1 $-1 $353 -100 $400 100 $399 $427 forward @7 unknown #
point $-1 -1 $-1 -20 -100 -20 #
point $-1 -1 $-1 20 -100 20 #
coedge $-1 -1 $-1 $390 $389 $357 $365 forward $391 $-1 #
point $-1 -1 $-1 20 -100 -20 #
straight-curve $-1 -1 $-1 20 0 20 0 1 0 I I #
plane-surface $-1 -1 $-1 0 0 -20 0 0 1 1 0 0 forward_v I I I I #
face $-1 -1 $-1 $284 $391 $17 $-1 $408 reversed single #
straight-curve $-1 -1 $-1 20 0 -20 0 -1 0 I I #
model_id-kcp-attrib $-1 -1 $-1 $-1 $369 1 1021578501 1021578502 -1306263551 11 #
face $428 -1 $-1 $429 $430 $7 $-1 $431 forward single #
loop $-1 -1 $-1 $-1 $432 $369 #
cone-surface $-1 -1 $-1 0 205 0 0 1 0 -9.9999999999999982 0 0 1 I I -0.70710678118654746 0.70710678118654757 9.9999999999999982 forward I I I I #
coedge $-1 -1 $-1 $418 $433 $434 $435 forward $370 $-1 #
coedge $-1 -1 $-1 $374 $372 $436 $437 reversed $297 $-1 #
coedge $-1 -1 $-1 $372 $374 $438 $439 forward $297 $-1 #
coedge $-1 -1 $-1 $440 $415 $372 $419 reversed $370 $-1 #
edge $-1 -1 $-1 $441 4.4408920985006262e-016 $442 3.141592653589794 $372 $443 forward @7 unknown #
coedge $-1 -1 $-1 $436 $438 $373 $421 forward $430 $-1 #
edge $-1 -1 $-1 $422 3.1554436208840467e-032 $423 3.1415926535897931 $373 $444 forward @7 unknown #
vertex $-1 -1 $-1 $421 $445 #
vertex $-1 -1 $-1 $421 $446 #
ellipse-curve $-1 -1 $-1 0 65 5.5511151231257827e-016 0 -1 0 20 0 1.8941011953321762e-015 1 I I #
straight-curve $-1 -1 $-1 -20 0 20 0 -1 0 I I #
point $-1 -1 $-1 -20 100 -20 #
straight-curve $-1 -1 $-1 -20 0 -20 0 1 0 I I #
model_id-kcp-attrib $-1 -1 $-1 $-1 $412 1 1021578501 1021578502 -1306263551 12 #
face $447 -1 $-1 $-1 $448 $7 $-1 $449 reversed single #
loop $-1 -1 $-1 $-1 $420 $412 #
cone-surface $-1 -1 $-1 0 210 0 0 -1 0 -20 0 0 1 I I 0 1 20 forward I I I I #
coedge $-1 -1 $-1 $450 $451 $440 $452 forward $413 $-1 #
coedge $-1 -1 $-1 $415 $440 $453 $454 forward $370 $-1 #
coedge $-1 -1 $-1 $451 $450 $415 $435 reversed $413 $-1 #
edge $-1 -1 $-1 $455 0 $442 0.70710678118654768 $415 $456 forward @7 unknown #
coedge $-1 -1 $-1 $457 $420 $416 $437 forward $430 $-1 #
edge $-1 -1 $-1 $423 0 $442 13 $416 $458 forward @7 unknown #
coedge $-1 -1 $-1 $420 $457 $417 $439 reversed $430 $-1 #
edge $-1 -1 $-1 $422 0 $441 13 $417 $459 forward @7 unknown #
coedge $-1 -1 $-1 $433 $418 $432 $452 reversed $370 $-1 #
vertex $-1 -1 $-1 $439 $460 #
vertex $-1 -1 $-1 $437 $461 #
ellipse-curve $-1 -1 $-1 0 195 1.6653345369377348e-015 0 -1 0 19.999999999999996 0 7.8387817070701921e-016 1 I I #
ellipse-curve $-1 -1 $-1 -2.2204460492503131e-015 65 -1.1102230246251565e-015 0 1 0 20 0 3.5594357322699111e-015 1 I I #
point $-1 -1 $-1 20 65 2.4492127076447545e-015 #
point $-1 -1 $-1 -20 65 -4.898425415289509e-015 #
model_id-kcp-attrib $-1 -1 $-1 $-1 $429 1 1021578501 1021578502 -1306263551 13 #
loop $-1 -1 $-1 $-1 $453 $429 #
plane-surface $-1 -1 $-1 0 200 0 0 -1 0 -10 0 0 forward_v I I I I #
coedge $-1 -1 $-1 $434 $432 $457 $462 forward $413 $-1 #
coedge $-1 -1 $-1 $432 $434 $463 $464 reversed $413 $-1 #
edge $-1 -1 $-1 $465 0 $441 0.70710678118654768 $440 $466 forward @7 unknown #
coedge $-1 -1 $-1 $463 $463 $433 $454 reversed $448 $-1 #
edge $-1 -1 $-1 $465 0 $455 3.1415926535897931 $453 $467 forward @7 unknown #
vertex $-1 -1 $-1 $464 $468 #
straight-curve $-1 -1 $-1 -14.999999999999998 200 -3.673819061467131e-015 -7.0710678118654737 -7.0710678118654773 7.3632583102677346e-014 I I #
coedge $-1 -1 $-1 $438 $436 $450 $462 reversed $430 $-1 #
straight-curve $-1 -1 $-1 -20 65 -4.898425415289509e-015 0 10 -1.3664283380001927e-015 I I #
straight-curve $-1 -1 $-1 20 65 2.4492127076447545e-015 0 10 6.8321416900009637e-016 I I #
point $-1 -1 $-1 20 195 1.1330996904646007e-014 #
point $-1 -1 $-1 -20 195 -2.2661993809292014e-014 #
edge $-1 -1 $-1 $441 -4.4408920985006257e-016 $442 3.1415926535897922 $457 $469 forward @7 unknown #
coedge $-1 -1 $-1 $453 $453 $451 $464 forward $448 $-1 #
edge $-1 -1 $-1 $465 0 $455 3.1415926535897931 $463 $470 forward @7 unknown #
vertex $-1 -1 $-1 $464 $471 #
straight-curve $-1 -1 $-1 14.999999999999998 200 1.8369095307335655e-015 7.0710678118654737 -7.0710678118654773 8.6592745707193569e-016 I I #
ellipse-curve $-1 -1 $-1 0 200 -5.5511151231257827e-016 0 -1 0 14.999999999999998 0 2.3920210430461438e-015 1 I I #
point $-1 -1 $-1 -14.999999999999998 200 -3.673819061467131e-015 #
ellipse-curve $-1 -1 $-1 0 195 -1.6653345369377348e-015 0 1 0 19.999999999999996 0 4.1145472445824885e-015 1 I I #
ellipse-curve $-1 -1 $-1 0 200 5.5511151231257827e-016 0 1 0 14.999999999999998 0 1.2817980184209872e-015 1 I I #
point $-1 -1 $-1 14.999999999999998 200 1.8369095307335655e-015 #
End-of-ACIS-data 