700 0 2 0           
24 FBMach with ACIS - 7.0.3 13 ACIS 7.0.3 NT 24 Thu May 16 15:53:24 2002 
1 9.9999999999999995e-007 1e-010 
body $2 -1 $-1 $3 $-1 $4 #
bdycol-kcp $-1 -1 1 2 $5 $6 #
model_id-kcp-attrib $-1 -1 $-1 $-1 $0 1 1021578804 1021578804 -515571711 1 #
lump $-1 -1 $-1 $-1 $7 $0 #
transform $-1 -1 1 0 0 0 1 0 0 0 1 0 0 0 1 rotate no_reflect no_shear #
body $8 -1 $-1 $9 $-1 $10 #
body $11 -1 $-1 $12 $-1 $13 #
shell $-1 -1 $-1 $-1 $-1 $14 $-1 $3 #
rgb_color-st-attrib $-1 -1 $15 $-1 $5 0.5 0.5 1 #
lump $-1 -1 $-1 $-1 $16 $5 #
transform $-1 -1 1 0 0 0 1 0 0 0 1 0.81334856531585586 27.626140182264862 0 1 no_rotate no_reflect no_shear #
model_id-kcp-attrib $-1 -1 $-1 $-1 $6 1 1021578804 1021578804 -515571710 1 #
lump $-1 -1 $-1 $-1 $17 $6 #
transform $-1 -1 1 0 0 0 1 0 0 0 1 0.81334856531585586 27.626140182264862 0 1 no_rotate no_reflect no_shear #
face $18 -1 $-1 $19 $20 $7 $-1 $21 forward single #
model_id-kcp-attrib $-1 -1 $-1 $8 $5 1 1021578804 1021578804 -519241725 1 #
shell $-1 -1 $-1 $-1 $-1 $22 $-1 $9 #
shell $-1 -1 $-1 $-1 $-1 $23 $-1 $12 #
model_id-kcp-attrib $-1 -1 $-1 $-1 $14 1 1021578804 1021578804 -515571711 2 #
face $24 -1 $-1 $25 $26 $7 $-1 $21 forward single #
loop $-1 -1 $-1 $-1 $27 $14 #
sphere-surface $-1 -1 $-1 0 0 0 30 1 0 0 0 0 1 forward_v I I I I #
face $-1 -1 $-1 $28 $29 $16 $-1 $30 reversed single #
face $-1 -1 $-1 $31 $32 $17 $-1 $33 forward single #
model_id-kcp-attrib $-1 -1 $-1 $-1 $19 1 1021578804 1021578804 -515571711 3 #
face $34 -1 $-1 $35 $36 $7 $-1 $37 forward single #
loop $-1 -1 $-1 $-1 $38 $19 #
coedge $-1 -1 $-1 $39 $40 $41 $42 reversed $20 $-1 #
face $-1 -1 $-1 $43 $44 $16 $-1 $45 reversed single #
loop $-1 -1 $-1 $-1 $46 $22 #
plane-surface $-1 -1 $-1 18.360914839169034 266.53669339791929 0 0.087155742747658568 0.99619469809174555 0 -0.99619469809174555 0.087155742747658568 0 forward_v I I I I #
face $-1 -1 $-1 $47 $48 $17 $-1 $49 reversed single #
loop $-1 -1 $-1 $-1 $50 $23 #
plane-surface $-1 -1 $-1 0 0 30 0 0 1 1 0 0 forward_v I I I I #
model_id-kcp-attrib $-1 -1 $-1 $-1 $25 1 1021578804 1021578804 -515571711 4 #
face $51 -1 $-1 $52 $53 $7 $-1 $54 forward single #
loop $-1 -1 $-1 $-1 $55 $25 #
cone-surface $-1 -1 $-1 0 -303.56884964197843 0 0 -1 0 -0.43660942908512185 0 0 1 I I -0.043619387365336125 0.9990482215818578 0.43660942908512185 forward I I I I #
coedge $-1 -1 $-1 $56 $57 $58 $59 reversed $26 $-1 #
coedge $-1 -1 $-1 $58 $27 $60 $61 reversed $20 $-1 #
coedge $-1 -1 $-1 $27 $58 $62 $63 forward $20 $-1 #
coedge $-1 -1 $-1 $57 $56 $27 $42 forward $26 $-1 #
edge $-1 -1 $-1 $64 -3.7895612573871973e-016 $65 2.2820417909807382 $27 $66 forward @7 unknown #
face $-1 -1 $-1 $67 $68 $16 $-1 $69 reversed single #
loop $-1 -1 $-1 $-1 $70 $28 #
plane-surface $-1 -1 $-1 30.813348565315856 0 0 -1 0 0 0 0 1 forward_v I I I I #
coedge $-1 -1 $-1 $71 $72 $73 $74 forward $29 $-1 #
face $-1 -1 $-1 $75 $76 $17 $-1 $77 reversed single #
loop $-1 -1 $-1 $-1 $78 $31 #
plane-surface $-1 -1 $-1 0 0 -30 0 0 1 1 0 0 forward_v I I I I #
coedge $-1 -1 $-1 $79 $80 $81 $82 forward $32 $-1 #
model_id-kcp-attrib $-1 -1 $-1 $-1 $35 1 1021578804 1021578804 -515571711 5 #
face $83 -1 $-1 $84 $85 $7 $-1 $54 forward single #
loop $-1 -1 $-1 $-1 $86 $35 #
sphere-surface $-1 -1 $-1 0 -220 0 20 1 0 0 0 0 1 forward_v I I I I #
coedge $-1 -1 $-1 $87 $88 $89 $90 forward $36 $-1 #
coedge $-1 -1 $-1 $41 $38 $91 $92 forward $26 $-1 #
coedge $-1 -1 $-1 $38 $41 $93 $94 forward $26 $-1 #
coedge $-1 -1 $-1 $40 $39 $38 $59 forward $20 $-1 #
edge $-1 -1 $-1 $95 -3.7895612573871973e-016 $96 2.2820417909807382 $58 $97 forward @7 unknown #
coedge $-1 -1 $-1 $98 $99 $39 $61 forward $100 $-1 #
edge $-1 -1 $-1 $95 -3.1415926535897931 $64 2.4492127076447545e-016 $39 $101 forward @7 unknown #
coedge $-1 -1 $-1 $102 $103 $40 $63 reversed $104 $-1 #
edge $-1 -1 $-1 $96 1.2246063538223773e-016 $65 3.1415926535897931 $40 $105 reversed @7 unknown #
vertex $-1 -1 $-1 $61 $106 #
vertex $-1 -1 $-1 $63 $107 #
ellipse-curve $-1 -1 $-1 0 0 0 2.4492127076447545e-016 1.0956401461402941e-032 -1 -12.499999999999996 -27.271780286589291 -3.0615158845559424e-015 1 I I #
face $-1 -1 $-1 $108 $109 $16 $-1 $110 forward single #
loop $-1 -1 $-1 $-1 $73 $43 #
plane-surface $-1 -1 $-1 0 0 -30 0 0 1 1 0 0 forward_v I I I I #
coedge $-1 -1 $-1 $111 $112 $71 $113 reversed $44 $-1 #
coedge $-1 -1 $-1 $114 $46 $70 $113 forward $29 $-1 #
coedge $-1 -1 $-1 $46 $114 $115 $116 forward $29 $-1 #
coedge $-1 -1 $-1 $117 $118 $46 $74 reversed $68 $-1 #
edge $119 -1 $-1 $120 -14.969578733851302 $121 10.030421266146824 $73 $122 forward @7 unknown #
face $-1 -1 $-1 $123 $124 $17 $-1 $125 reversed single #
loop $-1 -1 $-1 $-1 $126 $47 #
plane-surface $-1 -1 $-1 0 -267.62614018226486 0 0 1 0 0 0 1 forward_v I I I I #
coedge $-1 -1 $-1 $127 $128 $129 $130 forward $48 $-1 #
coedge $-1 -1 $-1 $131 $50 $132 $133 forward $32 $-1 #
coedge $-1 -1 $-1 $50 $131 $134 $135 forward $32 $-1 #
coedge $-1 -1 $-1 $136 $137 $50 $82 reversed $138 $-1 #
edge $-1 -1 $-1 $139 -267.62614018226486 $140 267.62614018226486 $81 $141 forward @7 unknown #
model_id-kcp-attrib $-1 -1 $-1 $-1 $52 1 1021578804 1021578804 -515571711 6 #
face $142 -1 $-1 $143 $100 $7 $-1 $37 forward single #
loop $-1 -1 $-1 $-1 $144 $52 #
coedge $-1 -1 $-1 $89 $145 $146 $147 forward $53 $-1 #
coedge $-1 -1 $-1 $91 $55 $98 $148 forward $36 $-1 #
coedge $-1 -1 $-1 $55 $91 $99 $149 reversed $36 $-1 #
coedge $-1 -1 $-1 $145 $86 $55 $90 reversed $53 $-1 #
edge $-1 -1 $-1 $150 -3.1415926535897931 $151 -2.449212707644754e-016 $89 $152 forward @7 unknown #
coedge $-1 -1 $-1 $88 $87 $56 $92 reversed $36 $-1 #
edge $-1 -1 $-1 $95 -3.1415926535897931 $64 -2.4492127076447545e-016 $56 $153 reversed @7 unknown #
coedge $-1 -1 $-1 $154 $155 $57 $94 reversed $156 $-1 #
edge $-1 -1 $-1 $65 -3.1415926535897931 $96 1.2246063538223773e-016 $57 $157 reversed @7 unknown #
vertex $-1 -1 $-1 $59 $158 #
vertex $-1 -1 $-1 $63 $159 #
ellipse-curve $-1 -1 $-1 0 0 0 -1.2246063538223773e-016 5.4782007307014706e-033 1 12.499999999999996 -27.271780286589291 1.5307579422779712e-015 1 I I #
coedge $-1 -1 $-1 $160 $60 $87 $148 reversed $100 $-1 #
coedge $-1 -1 $-1 $60 $160 $88 $149 forward $100 $-1 #
loop $-1 -1 $-1 $-1 $60 $84 #
ellipse-curve $-1 -1 $-1 0 -27.271780286589319 0 0 -1 0 -12.499999999999996 3.5527136788005009e-015 0 1 I I #
coedge $-1 -1 $-1 $161 $62 $155 $162 reversed $104 $-1 #
coedge $-1 -1 $-1 $62 $161 $154 $163 forward $104 $-1 #
loop $-1 -1 $-1 $-1 $102 $164 #
ellipse-curve $-1 -1 $-1 0 27.271780286589287 0 0 1 0 12.5 0 0 1 I I #
point $-1 -1 $-1 -12.499999999999996 -27.271780286589319 -3.0615158845559424e-015 #
point $-1 -1 $-1 -12.5 27.271780286589287 0 #
face $-1 -1 $-1 $-1 $165 $16 $-1 $166 reversed single #
loop $-1 -1 $-1 $-1 $167 $67 #
plane-surface $-1 -1 $-1 0 0 30 0 0 1 1 0 0 forward_v I I I I #
coedge $-1 -1 $-1 $168 $70 $118 $169 reversed $44 $-1 #
coedge $-1 -1 $-1 $70 $168 $170 $171 reversed $44 $-1 #
edge $172 -1 $-1 $121 -30 $173 30 $70 $174 forward @7 unknown #
coedge $-1 -1 $-1 $72 $71 $167 $175 forward $29 $-1 #
coedge $-1 -1 $-1 $176 $177 $72 $116 reversed $165 $-1 #
edge $178 -1 $-1 $179 -30 $120 30 $115 $180 forward @7 unknown #
coedge $-1 -1 $-1 $118 $73 $177 $181 forward $68 $-1 #
coedge $-1 -1 $-1 $73 $117 $111 $169 forward $68 $-1 #
convexity-sys-attrib $-1 -1 $-1 $-1 $74 #
vertex $-1 -1 $-1 $181 $182 #
vertex $-1 -1 $-1 $74 $183 #
straight-curve $-1 -1 $-1 20.821096080353698 266.32145542909655 -30 0.99619469809174555 -0.087155742747658568 0 I I #
face $-1 -1 $-1 $184 $185 $17 $-1 $186 reversed single #
loop $-1 -1 $-1 $-1 $187 $75 #
plane-surface $-1 -1 $-1 -30.813348565315856 0 0 1 0 0 0 0 -1 forward_v I I I I #
coedge $-1 -1 $-1 $188 $134 $189 $190 forward $76 $-1 #
coedge $-1 -1 $-1 $191 $78 $188 $192 forward $48 $-1 #
coedge $-1 -1 $-1 $78 $191 $193 $194 forward $48 $-1 #
coedge $-1 -1 $-1 $137 $136 $78 $130 reversed $138 $-1 #
edge $-1 -1 $-1 $195 -267.62614018226486 $196 267.62614018226486 $129 $197 forward @7 unknown #
coedge $-1 -1 $-1 $80 $79 $198 $199 forward $32 $-1 #
coedge $-1 -1 $-1 $200 $201 $79 $133 reversed $185 $-1 #
edge $-1 -1 $-1 $140 -30.813348565315856 $202 30.813348565315856 $132 $203 forward @7 unknown #
coedge $-1 -1 $-1 $126 $204 $80 $135 reversed $76 $-1 #
edge $-1 -1 $-1 $205 -30.813348565315856 $139 30.813348565315856 $134 $206 forward @7 unknown #
coedge $-1 -1 $-1 $129 $81 $204 $207 forward $138 $-1 #
coedge $-1 -1 $-1 $81 $129 $200 $208 reversed $138 $-1 #
loop $-1 -1 $-1 $-1 $136 $184 #
vertex $-1 -1 $-1 $82 $209 #
vertex $-1 -1 $-1 $82 $210 #
straight-curve $-1 -1 $-1 30.813348565315856 0 30 0 1 0 I I #
model_id-kcp-attrib $-1 -1 $-1 $-1 $84 1 1021578804 1021578804 -515571711 7 #
face $211 -1 $-1 $164 $156 $7 $-1 $212 forward single #
coedge $-1 -1 $-1 $146 $213 $160 $214 forward $85 $-1 #
coedge $-1 -1 $-1 $86 $89 $213 $215 reversed $53 $-1 #
coedge $-1 -1 $-1 $213 $144 $86 $147 reversed $85 $-1 #
edge $-1 -1 $-1 $216 -1.2246063538223773e-016 $151 2.892444988608347 $146 $217 forward @7 unknown #
edge $-1 -1 $-1 $151 -2.8627109051992025e-015 $64 17.35109048319817 $98 $218 forward @7 unknown #
edge $-1 -1 $-1 $150 -2.8665850850530462e-015 $95 17.35109048319817 $99 $219 forward @7 unknown #
vertex $-1 -1 $-1 $215 $220 #
vertex $-1 -1 $-1 $147 $221 #
ellipse-curve $-1 -1 $-1 0 -200.61754118403965 0 0 1 0 -4.9315606300238137 0 0 1 I I #
ellipse-curve $-1 -1 $-1 0 -27.271780286589319 0 0 -1 0 -12.499999999999996 3.5527136788005009e-015 0 1 I I #
coedge $-1 -1 $-1 $222 $93 $103 $163 reversed $156 $-1 #
coedge $-1 -1 $-1 $93 $222 $102 $162 forward $156 $-1 #
loop $-1 -1 $-1 $-1 $154 $143 #
ellipse-curve $-1 -1 $-1 0 27.271780286589287 0 0 1 0 12.5 0 0 1 I I #
point $-1 -1 $-1 12.499999999999996 -27.271780286589319 1.5307579422779712e-015 #
point $-1 -1 $-1 12.5 27.271780286589287 1.5307579422779716e-015 #
coedge $-1 -1 $-1 $99 $98 $144 $214 reversed $100 $-1 #
coedge $-1 -1 $-1 $103 $102 $223 $224 forward $104 $-1 #
edge $-1 -1 $-1 $225 7.1054273576010023e-016 $96 2.7728219713410711 $102 $226 forward @7 unknown #
edge $-1 -1 $-1 $227 7.1054273576010023e-016 $65 2.7728219713410711 $103 $228 forward @7 unknown #
face $229 -1 $-1 $230 $104 $7 $-1 $212 forward single #
loop $-1 -1 $-1 $-1 $115 $108 #
plane-surface $-1 -1 $-1 0 267.62614018226486 0 0 -1 0 0 0 -1 forward_v I I I I #
coedge $-1 -1 $-1 $170 $231 $114 $175 reversed $109 $-1 #
coedge $-1 -1 $-1 $112 $111 $232 $233 reversed $44 $-1 #
edge $-1 -1 $-1 $234 -267.62614018226486 $121 -265.44724661357361 $111 $235 forward @7 unknown #
coedge $-1 -1 $-1 $231 $167 $112 $171 forward $109 $-1 #
edge $-1 -1 $-1 $173 265.44724661357361 $236 267.62614018226486 $112 $237 forward @7 unknown #
convexity-sys-attrib $-1 -1 $-1 $-1 $113 #
vertex $-1 -1 $-1 $171 $238 #
straight-curve $-1 -1 $-1 30.813348565315856 265.44724661357361 0 0 0 1 I I #
edge $239 -1 $-1 $173 -10.030421266146824 $179 14.969578733851302 $167 $240 forward @7 unknown #
coedge $-1 -1 $-1 $232 $115 $231 $241 reversed $165 $-1 #
coedge $-1 -1 $-1 $115 $232 $117 $181 reversed $165 $-1 #
convexity-sys-attrib $-1 -1 $-1 $-1 $116 #
vertex $-1 -1 $-1 $116 $242 #
straight-curve $-1 -1 $-1 5.9084811130241253 267.62614018226486 0 0 0 -1 I I #
edge $-1 -1 $-1 $120 5.9084811130240853 $234 30.813348565315856 $177 $243 forward @7 unknown #
point $-1 -1 $-1 5.9084811130240853 267.62614018226486 -30 #
point $-1 -1 $-1 30.813348565315856 265.44724661357361 -30 #
face $-1 -1 $-1 $-1 $138 $17 $-1 $244 reversed single #
loop $-1 -1 $-1 $-1 $200 $123 #
plane-surface $-1 -1 $-1 0 267.62614018226486 0 0 -1 0 0 0 -1 forward_v I I I I #
coedge $-1 -1 $-1 $245 $198 $201 $246 forward $124 $-1 #
coedge $-1 -1 $-1 $204 $126 $127 $192 reversed $76 $-1 #
coedge $-1 -1 $-1 $198 $245 $126 $190 reversed $124 $-1 #
edge $-1 -1 $-1 $205 -30 $247 30 $189 $248 forward @7 unknown #
coedge $-1 -1 $-1 $128 $127 $245 $249 forward $48 $-1 #
edge $-1 -1 $-1 $196 -30.813348565315856 $247 30.813348565315856 $188 $250 forward @7 unknown #
coedge $-1 -1 $-1 $201 $200 $128 $194 reversed $185 $-1 #
edge $-1 -1 $-1 $251 -30.813348565315856 $195 30.813348565315856 $193 $252 forward @7 unknown #
vertex $-1 -1 $-1 $130 $253 #
vertex $-1 -1 $-1 $207 $254 #
straight-curve $-1 -1 $-1 30.813348565315856 0 -30 0 -1 0 I I #
coedge $-1 -1 $-1 $187 $189 $131 $199 reversed $124 $-1 #
edge $-1 -1 $-1 $202 -267.62614018226486 $205 267.62614018226486 $198 $255 forward @7 unknown #
coedge $-1 -1 $-1 $193 $132 $137 $208 forward $185 $-1 #
coedge $-1 -1 $-1 $132 $193 $187 $246 reversed $185 $-1 #
vertex $-1 -1 $-1 $133 $256 #
straight-curve $-1 -1 $-1 0 267.62614018226486 30 -1 0 0 I I #
coedge $-1 -1 $-1 $134 $188 $136 $207 reversed $76 $-1 #
vertex $-1 -1 $-1 $199 $257 #
straight-curve $-1 -1 $-1 0 -267.62614018226486 30 1 0 0 I I #
edge $-1 -1 $-1 $139 -30 $196 30 $136 $258 forward @7 unknown #
edge $-1 -1 $-1 $140 -30 $195 30 $137 $259 forward @7 unknown #
point $-1 -1 $-1 30.813348565315856 -267.62614018226486 30 #
point $-1 -1 $-1 30.813348565315856 267.62614018226486 30 #
model_id-kcp-attrib $-1 -1 $-1 $-1 $143 1 1021578804 1021578804 -515571711 8 #
cone-surface $-1 -1 $-1 0 55 0 0 -1 0 12.5 0 0 1 I I 0 1 12.5 forward I I I I #
coedge $-1 -1 $-1 $144 $146 $145 $215 forward $85 $-1 #
edge $-1 -1 $-1 $150 -3.1415926535897931 $151 2.449212707644754e-016 $144 $260 reversed @7 unknown #
edge $-1 -1 $-1 $216 9.1824702426062121e-049 $150 2.892444988608347 $213 $261 forward @7 unknown #
vertex $-1 -1 $-1 $215 $262 #
ellipse-curve $-1 -1 $-1 0 -220 0 2.449212707644755e-016 -2.7369110631344083e-048 -1 -1.2246063538223773e-015 -20 -2.9993214436442749e-031 1 I I #
straight-curve $-1 -1 $-1 -4.9315606300238191 -200.61754118403962 -1.2078440963574908e-015 -0.43619387365336115 9.9904822158185773 -1.0683315783486028e-016 I I #
straight-curve $-1 -1 $-1 4.9315606300238191 -200.61754118403962 6.0392204817874538e-016 0.43619387365336115 9.9904822158185773 5.3416578917430138e-017 I I #
point $-1 -1 $-1 4.9315606300238128 -200.61754118403965 6.0392204817874469e-016 #
point $-1 -1 $-1 -4.9315606300238137 -200.61754118403965 -1.2078440963574894e-015 #
coedge $-1 -1 $-1 $155 $154 $263 $264 forward $156 $-1 #
coedge $-1 -1 $-1 $265 $266 $161 $224 reversed $267 $-1 #
edge $-1 -1 $-1 $225 -3.1415926535897931 $227 0 $223 $268 forward @7 unknown #
vertex $-1 -1 $-1 $269 $270 #
straight-curve $-1 -1 $-1 12.5 55 0 0 -10 0 I I #
vertex $-1 -1 $-1 $224 $271 #
straight-curve $-1 -1 $-1 -12.5 55 1.5307579422779716e-015 0 -10 0 I I #
model_id-kcp-attrib $-1 -1 $-1 $-1 $164 1 1021578804 1021578804 -515571711 9 #
face $272 -1 $-1 $273 $267 $7 $-1 $274 forward single #
coedge $-1 -1 $-1 $167 $170 $176 $241 forward $109 $-1 #
coedge $-1 -1 $-1 $177 $176 $168 $233 forward $165 $-1 #
edge $-1 -1 $-1 $236 -30 $234 30 $168 $275 forward @7 unknown #
vertex $-1 -1 $-1 $169 $276 #
straight-curve $-1 -1 $-1 30.813348565315856 0 -30 0 -1 0 I I #
vertex $-1 -1 $-1 $171 $277 #
straight-curve $-1 -1 $-1 30.813348565315856 0 30 0 1 0 I I #
point $-1 -1 $-1 30.813348565315856 265.44724661357361 30 #
convexity-sys-attrib $-1 -1 $-1 $-1 $175 #
straight-curve $-1 -1 $-1 20.821096080353698 266.32145542909655 30 -0.99619469809174555 0.087155742747658568 0 I I #
edge $-1 -1 $-1 $236 -30.813348565315856 $179 -5.9084811130240853 $176 $278 forward @7 unknown #
point $-1 -1 $-1 5.9084811130240853 267.62614018226486 30 #
straight-curve $-1 -1 $-1 0 267.62614018226486 -30 1 0 0 I I #
plane-surface $-1 -1 $-1 30.813348565315856 0 0 -1 0 0 0 0 1 forward_v I I I I #
coedge $-1 -1 $-1 $189 $187 $191 $249 reversed $124 $-1 #
edge $-1 -1 $-1 $202 -30 $251 30 $201 $279 forward @7 unknown #
vertex $-1 -1 $-1 $249 $280 #
straight-curve $-1 -1 $-1 -30.813348565315856 -267.62614018226486 0 0 0 -1 I I #
edge $-1 -1 $-1 $247 -267.62614018226486 $251 267.62614018226486 $245 $281 forward @7 unknown #
straight-curve $-1 -1 $-1 0 -267.62614018226486 -30 -1 0 0 I I #
vertex $-1 -1 $-1 $194 $282 #
straight-curve $-1 -1 $-1 0 267.62614018226486 -30 1 0 0 I I #
point $-1 -1 $-1 30.813348565315856 267.62614018226486 -30 #
point $-1 -1 $-1 30.813348565315856 -267.62614018226486 -30 #
straight-curve $-1 -1 $-1 -30.813348565315856 0 30 0 -1 0 I I #
point $-1 -1 $-1 -30.813348565315856 267.62614018226486 30 #
point $-1 -1 $-1 -30.813348565315856 -267.62614018226486 30 #
straight-curve $-1 -1 $-1 30.813348565315856 -267.62614018226486 0 0 0 -1 I I #
straight-curve $-1 -1 $-1 30.813348565315856 267.62614018226486 0 0 0 -1 I I #
ellipse-curve $-1 -1 $-1 0 -200.61754118403965 0 0 1 0 -4.9315606300238137 0 0 1 I I #
ellipse-curve $-1 -1 $-1 0 -220 0 -1.2246063538223775e-016 -1.3684555315672042e-048 1 1.2246063538223773e-015 -20 1.4996607218221374e-031 1 I I #
point $-1 -1 $-1 1.2246063538223773e-015 -240 1.4996607218221374e-031 #
coedge $-1 -1 $-1 $283 $284 $222 $264 reversed $285 $-1 #
edge $-1 -1 $-1 $227 0 $225 3.1415926535897931 $263 $286 forward @7 unknown #
coedge $-1 -1 $-1 $287 $223 $284 $269 reversed $267 $-1 #
coedge $-1 -1 $-1 $223 $287 $283 $288 forward $267 $-1 #
loop $-1 -1 $-1 $-1 $266 $230 #
ellipse-curve $-1 -1 $-1 0 55 0 0 -1 0 -12.5 0 0 1 I I #
edge $-1 -1 $-1 $289 0 $225 0.087266462599716835 $265 $290 forward @7 unknown #
point $-1 -1 $-1 12.499999999999947 54.999999999999993 1.5307579422779716e-015 #
point $-1 -1 $-1 -12.500000000000057 54.999999999999993 0 #
model_id-kcp-attrib $-1 -1 $-1 $-1 $230 1 1021578804 1021578804 -515571711 10 #
face $291 -1 $-1 $292 $285 $7 $-1 $274 forward single #
torus-surface $-1 -1 $-1 458.0753109686213 55 0 0 0 1 458.0753109686213 12.5 0.99619469809174555 -0.087155742747658638 0 forward_v I I I I #
straight-curve $-1 -1 $-1 30.813348565315856 267.62614018226486 0 0 0 -1 I I #
point $-1 -1 $-1 30.813348565315856 267.62614018226486 -30 #
point $-1 -1 $-1 30.813348565315856 267.62614018226486 30 #
straight-curve $-1 -1 $-1 0 267.62614018226486 30 -1 0 0 I I #
straight-curve $-1 -1 $-1 -30.813348565315856 267.62614018226486 0 0 0 -1 I I #
point $-1 -1 $-1 -30.813348565315856 -267.62614018226486 -30 #
straight-curve $-1 -1 $-1 -30.813348565315856 0 -30 0 1 0 I I #
point $-1 -1 $-1 -30.813348565315856 267.62614018226486 -30 #
coedge $-1 -1 $-1 $293 $263 $266 $288 reversed $285 $-1 #
coedge $-1 -1 $-1 $263 $293 $265 $269 forward $285 $-1 #
loop $-1 -1 $-1 $-1 $284 $273 #
ellipse-curve $-1 -1 $-1 0 55 0 0 -1 0 -12.5 0 0 1 I I #
coedge $-1 -1 $-1 $266 $265 $294 $295 forward $267 $-1 #
edge $-1 -1 $-1 $296 1.6428650437591001e-017 $227 0.087266462599716862 $266 $297 forward @7 unknown #
vertex $-1 -1 $-1 $298 $299 #
ellipse-curve $-1 -1 $-1 458.0753109686213 55 1.5307579422779716e-015 0 0 1 -443.87976238752128 38.834447177489096 0 1 I I #
model_id-kcp-attrib $-1 -1 $-1 $-1 $273 1 1021578804 1021578804 -515571711 11 #
face $300 -1 $-1 $301 $302 $7 $-1 $303 forward single #
coedge $-1 -1 $-1 $284 $283 $304 $305 forward $285 $-1 #
coedge $-1 -1 $-1 $306 $307 $287 $295 reversed $308 $-1 #
edge $-1 -1 $-1 $289 -3.1415926535897931 $296 0 $294 $309 forward @7 unknown #
vertex $-1 -1 $-1 $295 $310 #
ellipse-curve $-1 -1 $-1 458.0753109686213 55 0 0 0 1 -468.7846298398149 41.013340746180575 0 1 I I #
edge $-1 -1 $-1 $311 0 $289 20.000000000000011 $306 $312 forward @7 unknown #
point $-1 -1 $-1 14.195548581099978 93.834447177489096 1.5307579422779716e-015 #
model_id-kcp-attrib $-1 -1 $-1 $-1 $292 1 1021578804 1021578804 -515571711 12 #
face $313 -1 $-1 $314 $308 $7 $-1 $303 forward single #
loop $-1 -1 $-1 $-1 $315 $292 #
cone-surface $-1 -1 $-1 19.174263404484893 294.16283358018399 0 -0.087155742747658582 -0.99619469809174555 0 12.452433726146818 -1.0894467843457321 0 1 I I 0 1 12.5 forward I I I I #
coedge $-1 -1 $-1 $316 $315 $293 $305 reversed $302 $-1 #
edge $-1 -1 $-1 $296 0 $289 3.1415926535897931 $304 $317 forward @7 unknown #
coedge $-1 -1 $-1 $318 $294 $315 $298 reversed $308 $-1 #
coedge $-1 -1 $-1 $294 $318 $316 $319 forward $308 $-1 #
loop $-1 -1 $-1 $-1 $307 $301 #
ellipse-curve $-1 -1 $-1 1.7431148549531734 94.923893961834807 0 -0.087155742747658457 -0.99619469809174555 0 -12.45243372614682 1.0894467843457307 0 1 I I #
point $-1 -1 $-1 -10.709318871193661 96.013340746180575 0 #
vertex $-1 -1 $-1 $320 $321 #
straight-curve $-1 -1 $-1 31.626697130631712 293.0733867958383 0 -0.87155742747658582 -9.961946980917455 0 I I #
model_id-kcp-attrib $-1 -1 $-1 $-1 $301 1 1021578804 1021578804 -515571711 13 #
face $322 -1 $-1 $-1 $323 $7 $-1 $324 reversed single #
coedge $-1 -1 $-1 $304 $325 $306 $298 forward $302 $-1 #
coedge $-1 -1 $-1 $325 $304 $307 $319 reversed $302 $-1 #
ellipse-curve $-1 -1 $-1 1.7431148549531734 94.923893961834807 0 -0.087155742747658457 -0.99619469809174555 0 -12.45243372614682 1.0894467843457307 0 1 I I #
coedge $-1 -1 $-1 $307 $306 $326 $320 forward $308 $-1 #
edge $-1 -1 $-1 $327 0 $296 20.000000000000007 $307 $328 forward @7 unknown #
edge $329 -1 $-1 $311 0 $327 3.1415926535897931 $326 $330 forward @7 unknown #
point $-1 -1 $-1 31.626697130631712 293.0733867958383 0 #
model_id-kcp-attrib $-1 -1 $-1 $-1 $314 1 1021578804 1021578804 -515571711 14 #
loop $-1 -1 $-1 $-1 $331 $314 #
plane-surface $-1 -1 $-1 19.174263404484893 294.16283358018399 0 -0.087155742747658568 -0.99619469809174555 0 9.961946980917455 -0.87155742747658571 0 forward_v I I I I #
coedge $-1 -1 $-1 $315 $316 $331 $332 forward $302 $-1 #
coedge $-1 -1 $-1 $331 $331 $318 $320 reversed $323 $-1 #
vertex $-1 -1 $-1 $320 $333 #
straight-curve $-1 -1 $-1 6.721829678338076 295.25228036452972 1.5307579422779716e-015 -0.87155742747658582 -9.961946980917455 0 I I #
attrib_edge_convexity-kcp-attrib $-1 -1 $334 $-1 $320 1 #
ellipse-curve $-1 -1 $-1 19.174263404484893 294.16283358018399 0 -0.087155742747658568 -0.99619469809174555 0 12.452433726146818 -1.0894467843457321 0 1 I I #
coedge $-1 -1 $-1 $326 $326 $325 $332 reversed $323 $-1 #
edge $335 -1 $-1 $327 -3.1415926535897931 $311 0 $331 $336 forward @7 unknown #
point $-1 -1 $-1 6.721829678338076 295.25228036452972 0 #
convexity-sys-attrib $-1 -1 $-1 $329 $320 #
attrib_edge_convexity-kcp-attrib $-1 -1 $337 $-1 $332 1 #
ellipse-curve $-1 -1 $-1 19.174263404484893 294.16283358018399 0 -0.087155742747658568 -0.99619469809174555 0 12.452433726146818 -1.0894467843457321 0 1 I I #
convexity-sys-attrib $-1 -1 $-1 $335 $332 #
End-of-ACIS-data 