600 0 1 0           
96 GICL ACIS Healer - Source: /gicl/data5/repository/PTC/V18/asmdes18/parts/gear_lever_st.sat - 6 0 18 ACIS 6.0.3 Solaris 24 Sat Apr 13 23:00:13 2002 
1 9.999999999999999547e-07 1.000000000000000036e-10 
body $-1 $1 $-1 $-1 #
lump $-1 $-1 $2 $0 #
shell $-1 $-1 $-1 $3 $-1 $1 #
face $-1 $4 $5 $2 $-1 $6 forward single #
face $-1 $7 $8 $2 $-1 $6 forward single #
loop $-1 $-1 $9 $3 #
sphere-surface $-1 0 0 0 30 1 0 0 0 0 1 forward_v I I I I #
face $-1 $10 $11 $2 $-1 $12 forward single #
loop $-1 $-1 $13 $4 #
coedge $-1 $14 $15 $16 $17 reversed $5 $-1 #
face $-1 $18 $19 $2 $-1 $20 forward single #
loop $-1 $-1 $21 $7 #
cone-surface $-1 0 -303.5688496419784315 0 0 -1 0 -0.4366094290851218473 0 0 1 I I -0.04361938736533612498 0.9990482215818577982 0.4366094290851218473 forward I I I I #
coedge $-1 $22 $23 $24 $25 reversed $8 $-1 #
coedge $-1 $24 $9 $26 $27 reversed $5 $-1 #
coedge $-1 $9 $24 $28 $29 forward $5 $-1 #
coedge $-1 $23 $22 $9 $17 forward $8 $-1 #
edge $-1 $30 -3.78956125738719729e-16 $31 2.282041790980738227 $9 $32 forward 7 unknown #
face $-1 $33 $34 $2 $-1 $20 forward single #
loop $-1 $-1 $35 $10 #
sphere-surface $-1 0 -220 0 20 1 0 0 0 0 1 forward_v I I I I #
coedge $-1 $36 $37 $38 $39 forward $11 $-1 #
coedge $-1 $16 $13 $40 $41 forward $8 $-1 #
coedge $-1 $13 $16 $42 $43 forward $8 $-1 #
coedge $-1 $15 $14 $13 $25 forward $5 $-1 #
edge $-1 $44 -3.78956125738719729e-16 $45 2.282041790980738227 $24 $46 forward 7 unknown #
coedge $-1 $47 $48 $14 $27 forward $49 $-1 #
edge $-1 $44 -3.141592653589793116 $30 2.449212707644754516e-16 $14 $50 forward 7 unknown #
coedge $-1 $51 $52 $15 $29 reversed $53 $-1 #
edge $-1 $45 1.224606353822377258e-16 $31 3.141592653589793116 $15 $54 reversed 7 unknown #
vertex $-1 $27 $55 #
vertex $-1 $29 $56 #
ellipse-curve $-1 0 0 0 2.449212707644754516e-16 1.095640146140294113e-32 -1 -12.49999999999999645 -27.27178028658929065 -3.061515884555942357e-15 1 I I #
face $-1 $57 $49 $2 $-1 $12 forward single #
loop $-1 $-1 $58 $18 #
coedge $-1 $38 $59 $60 $61 forward $19 $-1 #
coedge $-1 $40 $21 $47 $62 forward $11 $-1 #
coedge $-1 $21 $40 $48 $63 reversed $11 $-1 #
coedge $-1 $59 $35 $21 $39 reversed $19 $-1 #
edge $-1 $64 -3.141592653589793116 $65 -2.449212707644754023e-16 $38 $66 forward 7 unknown #
coedge $-1 $37 $36 $22 $41 reversed $11 $-1 #
edge $-1 $44 -3.141592653589793116 $30 -2.449212707644754516e-16 $22 $67 reversed 7 unknown #
coedge $-1 $68 $69 $23 $43 reversed $70 $-1 #
edge $-1 $31 -3.141592653589793116 $45 1.224606353822377258e-16 $23 $71 reversed 7 unknown #
vertex $-1 $25 $72 #
vertex $-1 $29 $73 #
ellipse-curve $-1 0 0 0 -1.224606353822377258e-16 5.478200730701470567e-33 1 12.49999999999999645 -27.27178028658929065 1.530757942277971178e-15 1 I I #
coedge $-1 $74 $26 $36 $62 reversed $49 $-1 #
coedge $-1 $26 $74 $37 $63 forward $49 $-1 #
loop $-1 $-1 $26 $33 #
ellipse-curve $-1 0 -27.27178028658931908 0 0 -1 0 -12.49999999999999645 3.552713678800500929e-15 0 1 I I #
coedge $-1 $75 $28 $69 $76 reversed $53 $-1 #
coedge $-1 $28 $75 $68 $77 forward $53 $-1 #
loop $-1 $-1 $51 $78 #
ellipse-curve $-1 0 27.2717802865892871 0 -0 1 -0 12.5 0 0 1 I I #
point $-1 -12.49999999999999645 -27.27178028658931908 -3.061515884555942357e-15 #
point $-1 -12.5 27.2717802865892871 0 #
face $-1 $78 $70 $2 $-1 $79 forward single #
coedge $-1 $60 $80 $74 $81 forward $34 $-1 #
coedge $-1 $35 $38 $80 $82 reversed $19 $-1 #
coedge $-1 $80 $58 $35 $61 reversed $34 $-1 #
edge $-1 $83 -1.224606353822377258e-16 $65 2.892444988608346979 $60 $84 forward 7 unknown #
edge $-1 $65 -2.862710905199202527e-15 $30 17.35109048319817049 $47 $85 forward 7 unknown #
edge $-1 $64 -2.866585085053046164e-15 $44 17.35109048319817049 $48 $86 forward 7 unknown #
vertex $-1 $82 $87 #
vertex $-1 $61 $88 #
ellipse-curve $-1 0 -200.6175411840396521 0 -0 1 -0 -4.931560630023813729 0 0 1 I I #
ellipse-curve $-1 0 -27.27178028658931908 0 0 -1 0 -12.49999999999999645 3.552713678800500929e-15 0 1 I I #
coedge $-1 $89 $42 $52 $77 reversed $70 $-1 #
coedge $-1 $42 $89 $51 $76 forward $70 $-1 #
loop $-1 $-1 $68 $57 #
ellipse-curve $-1 0 27.2717802865892871 0 -0 1 -0 12.5 0 0 1 I I #
point $-1 12.49999999999999645 -27.27178028658931908 1.530757942277971178e-15 #
point $-1 12.5 27.2717802865892871 1.530757942277971573e-15 #
coedge $-1 $48 $47 $58 $81 reversed $49 $-1 #
coedge $-1 $52 $51 $90 $91 forward $53 $-1 #
edge $-1 $92 7.105427357601002253e-16 $45 2.772821971341071112 $51 $93 forward 7 unknown #
edge $-1 $94 7.105427357601002253e-16 $31 2.772821971341071112 $52 $95 forward 7 unknown #
face $-1 $96 $53 $2 $-1 $79 forward single #
cone-surface $-1 0 55 0 0 -1 0 12.5 0 0 1 I I 0 1 12.5 forward I I I I #
coedge $-1 $58 $60 $59 $82 forward $34 $-1 #
edge $-1 $64 -3.141592653589793116 $65 2.449212707644754023e-16 $58 $97 reversed 7 unknown #
edge $-1 $83 9.182470242606212106e-49 $64 2.892444988608346979 $80 $98 forward 7 unknown #
vertex $-1 $82 $99 #
ellipse-curve $-1 0 -220 0 2.449212707644755009e-16 -2.736911063134408342e-48 -1 -1.224606353822377258e-15 -20 -2.999321443644274879e-31 1 I I #
straight-curve $-1 -4.931560630023819058 -200.6175411840396237 -1.207844096357490751e-15 -0.4361938736533611527 9.990482215818577316 -1.068331578348602755e-16 I I #
straight-curve $-1 4.931560630023819058 -200.6175411840396237 6.039220481787453754e-16 0.4361938736533611527 9.990482215818577316 5.341657891743013777e-17 I I #
point $-1 4.931560630023812841 -200.6175411840396521 6.039220481787446852e-16 #
point $-1 -4.931560630023813729 -200.6175411840396521 -1.20784409635748937e-15 #
coedge $-1 $69 $68 $100 $101 forward $70 $-1 #
coedge $-1 $102 $103 $75 $91 reversed $104 $-1 #
edge $-1 $92 -3.141592653589793116 $94 0 $90 $105 forward 7 unknown #
vertex $-1 $106 $107 #
straight-curve $-1 12.5 55 0 0 -10 0 I I #
vertex $-1 $91 $108 #
straight-curve $-1 -12.5 55 1.530757942277971573e-15 0 -10 0 I I #
face $-1 $109 $104 $2 $-1 $110 forward single #
ellipse-curve $-1 0 -200.6175411840396521 0 -0 1 -0 -4.931560630023813729 0 0 1 I I #
ellipse-curve $-1 0 -220 0 -1.224606353822377505e-16 -1.368455531567204171e-48 1 1.224606353822377258e-15 -20 1.49966072182213744e-31 1 I I #
point $-1 1.224606353822377258e-15 -240 1.49966072182213744e-31 #
coedge $-1 $111 $112 $89 $101 reversed $113 $-1 #
edge $-1 $94 0 $92 3.141592653589793116 $100 $114 forward 7 unknown #
coedge $-1 $115 $90 $112 $106 reversed $104 $-1 #
coedge $-1 $90 $115 $111 $116 forward $104 $-1 #
loop $-1 $-1 $103 $96 #
ellipse-curve $-1 0 55 0 0 -1 0 -12.5 0 0 1 I I #
edge $-1 $117 0 $92 0.08726646259971683472 $102 $118 forward 7 unknown #
point $-1 12.49999999999994671 54.99999999999999289 1.530757942277971573e-15 #
point $-1 -12.50000000000005684 54.99999999999999289 0 #
face $-1 $119 $113 $2 $-1 $110 forward single #
torus-surface $-1 458.0753109686212952 55 0 0 0 1 458.0753109686212952 12.5 0.9961946980917455452 -0.08715574274765863771 0 forward_v I I I I #
coedge $-1 $120 $100 $103 $116 reversed $113 $-1 #
coedge $-1 $100 $120 $102 $106 forward $113 $-1 #
loop $-1 $-1 $112 $109 #
ellipse-curve $-1 0 55 0 0 -1 0 -12.5 0 0 1 I I #
coedge $-1 $103 $102 $121 $122 forward $104 $-1 #
edge $-1 $123 1.642865043759100105e-17 $94 0.08726646259971686248 $103 $124 forward 7 unknown #
vertex $-1 $125 $126 #
ellipse-curve $-1 458.0753109686212952 55 1.530757942277971573e-15 0 0 1 -443.8797623875212821 38.83444717748909625 0 1 I I #
face $-1 $127 $128 $2 $-1 $129 forward single #
coedge $-1 $112 $111 $130 $131 forward $113 $-1 #
coedge $-1 $132 $133 $115 $122 reversed $134 $-1 #
edge $-1 $117 -3.141592653589793116 $123 0 $121 $135 forward 7 unknown #
vertex $-1 $122 $136 #
ellipse-curve $-1 458.0753109686212952 55 0 0 0 1 -468.7846298398148974 41.01334074618057457 0 1 I I #
edge $-1 $137 0 $117 20.00000000000001066 $132 $138 forward 7 unknown #
point $-1 14.19554858109997753 93.83444717748909625 1.530757942277971573e-15 #
face $-1 $139 $134 $2 $-1 $129 forward single #
loop $-1 $-1 $140 $119 #
cone-surface $-1 19.17426340448489341 294.1628335801839853 0 -0.0871557427476585822 -0.9961946980917455452 0 12.45243372614681832 -1.089446784345732055 0 1 I I 0 1 12.5 forward I I I I #
coedge $-1 $141 $140 $120 $131 reversed $128 $-1 #
edge $-1 $123 0 $117 3.141592653589793116 $130 $142 forward 7 unknown #
coedge $-1 $143 $121 $140 $125 reversed $134 $-1 #
coedge $-1 $121 $143 $141 $144 forward $134 $-1 #
loop $-1 $-1 $133 $127 #
ellipse-curve $-1 1.74311485495317342 94.92389396183480699 0 -0.0871557427476584573 -0.9961946980917455452 0 -12.45243372614682009 1.089446784345730723 0 1 I I #
point $-1 -10.70931887119366088 96.01334074618057457 0 #
vertex $-1 $145 $146 #
straight-curve $-1 31.62669713063171173 293.073386795838303 0 -0.871557427476585822 -9.961946980917455008 0 I I #
face $-1 $-1 $147 $2 $-1 $148 reversed single #
coedge $-1 $130 $149 $132 $125 forward $128 $-1 #
coedge $-1 $149 $130 $133 $144 reversed $128 $-1 #
ellipse-curve $-1 1.74311485495317342 94.92389396183480699 0 -0.0871557427476584573 -0.9961946980917455452 0 -12.45243372614682009 1.089446784345730723 0 1 I I #
coedge $-1 $133 $132 $150 $145 forward $134 $-1 #
edge $-1 $151 -0 $123 20.00000000000000711 $133 $152 forward 7 unknown #
edge $-1 $137 0 $151 3.141592653589793116 $150 $153 forward 7 unknown #
point $-1 31.62669713063171173 293.073386795838303 0 #
loop $-1 $-1 $154 $139 #
plane-surface $-1 19.17426340448489341 294.1628335801839853 0 -0.08715574274765856833 -0.9961946980917455452 0 9.961946980917455008 -0.871557427476585711 0 forward_v I I I I #
coedge $-1 $140 $141 $154 $155 forward $128 $-1 #
coedge $-1 $154 $154 $143 $145 reversed $147 $-1 #
vertex $-1 $145 $156 #
straight-curve $-1 6.721829678338075986 295.2522803645297245 1.530757942277971573e-15 -0.871557427476585822 -9.961946980917455008 0 I I #
ellipse-curve $-1 19.17426340448489341 294.1628335801839853 0 -0.08715574274765856833 -0.9961946980917455452 0 12.45243372614681832 -1.089446784345732055 0 1 I I #
coedge $-1 $150 $150 $149 $155 reversed $147 $-1 #
edge $-1 $151 -3.141592653589793116 $137 0 $154 $157 forward 7 unknown #
point $-1 6.721829678338075986 295.2522803645297245 0 #
ellipse-curve $-1 19.17426340448489341 294.1628335801839853 0 -0.08715574274765856833 -0.9961946980917455452 0 12.45243372614681832 -1.089446784345732055 0 1 I I #
End-of-ACIS-data 