600 0 1 0           
103 GICL Pro/E ACIS Translator - Source: f:/data5/repository/PTC/V18/asmdes18/parts/gear_lever_st.prt - 6 0 13 ACIS 6.0.3 NT 24 Thu Apr 04 10:06:27 2002 
1 9.9999999999999995e-007 1e-010 
body $-1 $1 $-1 $2 #
lump $-1 $-1 $3 $0 #
transform $-1 1 0 0 0 1 0 0 0 1 0 0 0 10 no_rotate no_reflect no_shear #
shell $-1 $-1 $-1 $4 $-1 $1 #
face $-1 $5 $6 $3 $-1 $7 forward single #
face $-1 $8 $9 $3 $-1 $10 forward single #
loop $-1 $-1 $11 $4 #
sphere-surface $-1 0 0 0 3 1 0 0 0 0 1 forward_v I I I I #
face $-1 $12 $13 $3 $-1 $14 forward single #
loop $-1 $-1 $15 $5 #
sphere-surface $-1 0 0 0 3 1 0 0 0 0 1 forward_v I I I I #
coedge $-1 $16 $17 $18 $19 reversed $6 $-1 #
face $-1 $20 $21 $3 $-1 $22 forward single #
loop $-1 $-1 $23 $8 #
cone-surface $-1 0 -30.356884964197846 0 0 -1 0 -0.043660942908512183 0 0 1 I I -0.043619387365336125 0.9990482215818578 0.043660942908512183 forward I I I I #
coedge $-1 $24 $25 $26 $27 reversed $9 $-1 #
coedge $-1 $26 $11 $28 $29 reversed $6 $-1 #
coedge $-1 $11 $26 $30 $31 forward $6 $-1 #
coedge $-1 $25 $24 $11 $19 forward $9 $-1 #
edge $-1 $32 0 $33 2.2820417909807378 $11 $34 forward 7 unknown #
face $-1 $35 $36 $3 $-1 $37 forward single #
loop $-1 $-1 $38 $12 #
sphere-surface $-1 0 -22 0 2 1 0 0 0 0 1 forward_v I I I I #
coedge $-1 $39 $40 $41 $42 forward $13 $-1 #
coedge $-1 $18 $15 $43 $44 forward $9 $-1 #
coedge $-1 $15 $18 $45 $46 forward $9 $-1 #
coedge $-1 $17 $16 $15 $27 forward $6 $-1 #
edge $-1 $47 -1.0362081563168103e-015 $48 2.2820417909807378 $26 $49 forward 7 unknown #
coedge $-1 $50 $51 $16 $29 forward $52 $-1 #
edge $-1 $47 -3.1554436208840489e-032 $32 3.1415926535897931 $16 $53 forward 7 unknown #
coedge $-1 $54 $55 $17 $31 reversed $56 $-1 #
edge $-1 $48 0 $33 3.1415926535897927 $17 $57 forward 7 unknown #
vertex $-1 $29 $58 #
vertex $-1 $31 $59 #
ellipse-curve $-1 0 0 0 2.4492127076447545e-016 1.0956401461402941e-032 -1 -1.2499999999999996 -2.7271780286589289 -3.0615158845559422e-016 1 I I #
face $-1 $60 $52 $3 $-1 $61 forward single #
loop $-1 $-1 $62 $20 #
sphere-surface $-1 0 -22 0 2 1 0 0 0 0 1 forward_v I I I I #
coedge $-1 $41 $63 $64 $65 forward $21 $-1 #
coedge $-1 $43 $23 $50 $66 forward $13 $-1 #
coedge $-1 $23 $43 $51 $67 reversed $13 $-1 #
coedge $-1 $63 $38 $23 $42 reversed $21 $-1 #
edge $-1 $68 1.393748457609762e-031 $69 3.1415926535897931 $41 $70 forward 7 unknown #
coedge $-1 $40 $39 $24 $44 reversed $13 $-1 #
edge $-1 $47 0 $32 3.1415926535897931 $24 $71 forward 7 unknown #
coedge $-1 $72 $73 $25 $46 reversed $74 $-1 #
edge $-1 $33 -2.449212707644754e-016 $48 3.1415926535897931 $25 $75 forward 7 unknown #
vertex $-1 $27 $76 #
vertex $-1 $31 $77 #
ellipse-curve $-1 0 0 0 -1.2246063538223773e-016 5.4782007307014706e-033 1 1.2499999999999996 -2.7271780286589289 1.5307579422779711e-016 1 I I #
coedge $-1 $78 $28 $39 $66 reversed $52 $-1 #
coedge $-1 $28 $78 $40 $67 forward $52 $-1 #
loop $-1 $-1 $28 $35 #
ellipse-curve $-1 5.5511151231257827e-017 -2.7271780286589289 -5.5511151231257827e-017 0 -1 0 1.2499999999999996 0 2.0858694545905493e-016 1 I I #
coedge $-1 $79 $30 $73 $80 reversed $56 $-1 #
coedge $-1 $30 $79 $72 $81 forward $56 $-1 #
loop $-1 $-1 $54 $82 #
ellipse-curve $-1 -2.2204460492503131e-016 2.727178028658928 -3.8857805861880479e-016 3.5527136788005001e-016 -1 1.5394728417464925e-031 1.2500000000000002 4.4408920985006262e-016 5.4165385284660195e-016 1 I I #
point $-1 -1.2499999999999996 -2.7271780286589289 -3.0615158845559422e-016 #
point $-1 -1.2500000000000007 2.727178028658928 0 #
face $-1 $82 $74 $3 $-1 $83 forward single #
cone-surface $-1 0 -30.356884964197846 0 0 -1 0 -0.043660942908512183 0 0 1 I I -0.043619387365336125 0.9990482215818578 0.043660942908512183 forward I I I I #
coedge $-1 $64 $84 $78 $85 forward $36 $-1 #
coedge $-1 $38 $41 $84 $86 reversed $21 $-1 #
coedge $-1 $84 $62 $38 $65 reversed $36 $-1 #
edge $-1 $87 -1.2246063538223773e-016 $69 2.8924449886083474 $64 $88 forward 7 unknown #
edge $-1 $69 0 $32 17.351090483198178 $50 $89 forward 7 unknown #
edge $-1 $68 -3.6631363158018247e-015 $47 17.35109048319817 $51 $90 forward 7 unknown #
vertex $-1 $86 $91 #
vertex $-1 $65 $92 #
ellipse-curve $-1 -2.7755575615628914e-017 -20.061754118403961 1.3877787807814457e-017 0 1 0 0.49315606300238191 0 4.6514417010060083e-017 1 I I #
ellipse-curve $-1 0 -2.7271780286589289 -1.6653345369377348e-016 0 1 0 1.2499999999999996 0 3.1960924792157059e-016 1 I I #
coedge $-1 $93 $45 $55 $81 reversed $74 $-1 #
coedge $-1 $45 $93 $54 $80 forward $74 $-1 #
loop $-1 $-1 $72 $60 #
ellipse-curve $-1 -1.6653345369377348e-016 2.7271780286589289 -2.2204460492503131e-016 3.5527136788005011e-016 -1 2.3904642469734378e-032 -1.2499999999999998 -4.4408920985006262e-016 -8.4106983530563006e-017 1 I I #
point $-1 1.2499999999999998 -2.7271780286589369 1.5307579422779713e-016 #
point $-1 1.25 2.7271780286589284 1.5307579422779716e-016 #
coedge $-1 $51 $50 $62 $85 reversed $52 $-1 #
coedge $-1 $55 $54 $94 $95 forward $56 $-1 #
edge $-1 $96 8.8817841970012523e-016 $48 2.7728219713410716 $54 $97 forward 7 unknown #
edge $-1 $98 8.8817841970012523e-016 $33 2.772821971341072 $55 $99 forward 7 unknown #
face $-1 $100 $56 $3 $-1 $101 forward single #
cone-surface $-1 0 5.5 0 0 -1 0 1.25 0 0 1 I I 0 1 1.25 forward I I I I #
coedge $-1 $62 $64 $63 $86 forward $36 $-1 #
edge $-1 $68 2.5340881047450226e-032 $69 3.1415926535897931 $62 $102 forward 7 unknown #
edge $-1 $87 0 $68 2.8924449886083483 $84 $103 forward 7 unknown #
vertex $-1 $86 $104 #
ellipse-curve $-1 0 -22 0 2.449212707644755e-016 -2.7369110631344083e-048 -1 -1.2246063538223773e-016 -2 -2.9993214436442749e-032 1 I I #
straight-curve $-1 -0.49315606300238191 -20.061754118403961 -1.2078440963574908e-016 -0.043619387365336118 0.99904822158185769 -1.0683315783486027e-017 I I #
straight-curve $-1 0.49315606300238191 -20.061754118403961 6.039220481787454e-017 0.043619387365336118 0.99904822158185769 5.3416578917430136e-018 I I #
point $-1 0.4931560630023793 -20.061754118403964 6.0392204817874232e-017 #
point $-1 -0.49315606300238191 -20.061754118403961 -1.2078440963574908e-016 #
coedge $-1 $73 $72 $105 $106 forward $74 $-1 #
coedge $-1 $107 $108 $79 $95 reversed $109 $-1 #
edge $-1 $96 1.2246063538223824e-016 $98 3.1415926535897931 $94 $110 forward 7 unknown #
vertex $-1 $111 $112 #
straight-curve $-1 1.25 5.5 0 0 -1 0 I I #
vertex $-1 $95 $113 #
straight-curve $-1 -1.25 5.5 1.5307579422779716e-016 0 -1 0 I I #
face $-1 $114 $109 $3 $-1 $115 forward single #
cone-surface $-1 0 5.5 0 0 -1 0 1.25 0 0 1 I I 0 1 1.25 forward I I I I #
ellipse-curve $-1 4.163336342344337e-017 -20.061754118403961 0 0 -1 0 0.49315606300238185 0 6.039220481787454e-017 1 I I #
ellipse-curve $-1 0 -22 0 -1.2246063538223775e-016 -1.3684555315672042e-048 1 1.2246063538223773e-016 -2 1.4996607218221374e-032 1 I I #
point $-1 1.2246063538223773e-016 -24 1.4996607218221374e-032 #
coedge $-1 $116 $117 $93 $106 reversed $118 $-1 #
edge $-1 $98 1.2246063538223773e-016 $96 3.1415926535897931 $105 $119 forward 7 unknown #
coedge $-1 $120 $94 $117 $111 reversed $109 $-1 #
coedge $-1 $94 $120 $116 $121 forward $109 $-1 #
loop $-1 $-1 $108 $100 #
ellipse-curve $-1 0 5.5 0 0 -1 0 1.25 0 0 1 I I #
edge $-1 $122 0 $96 0.087266462599716821 $107 $123 forward 7 unknown #
point $-1 1.2499999999999947 5.4999999999999991 1.5307579422779716e-016 #
point $-1 -1.2500000000000058 5.4999999999999991 0 #
face $-1 $124 $118 $3 $-1 $125 forward single #
torus-surface $-1 45.807531096862128 5.5 0 0 0 1 45.807531096862128 1.25 0.99619469809174555 -0.087155742747658638 0 forward_v I I I I #
coedge $-1 $126 $105 $108 $121 reversed $118 $-1 #
coedge $-1 $105 $126 $107 $111 forward $118 $-1 #
loop $-1 $-1 $117 $114 #
ellipse-curve $-1 0 5.5 0 0 -1 0 -1.25 0 1.5307579422779716e-016 1 I I #
coedge $-1 $108 $107 $127 $128 forward $109 $-1 #
edge $-1 $129 0 $98 0.087266462599716849 $108 $130 forward 7 unknown #
vertex $-1 $131 $132 #
ellipse-curve $-1 45.807531096862128 5.5 1.5307579422779716e-016 0 0 1 -44.387976238752131 3.88344471774891 0 1 I I #
face $-1 $133 $134 $3 $-1 $135 forward single #
torus-surface $-1 45.807531096862128 5.5 0 0 0 1 45.807531096862128 1.25 0.99619469809174555 -0.087155742747658638 0 forward_v I I I I #
coedge $-1 $117 $116 $136 $137 forward $118 $-1 #
coedge $-1 $138 $139 $120 $128 reversed $140 $-1 #
edge $-1 $122 0 $129 3.1415926535897931 $127 $141 forward 7 unknown #
vertex $-1 $128 $142 #
ellipse-curve $-1 45.807531096862128 5.5 0 0 0 1 -46.878462983981493 4.1013340746180571 0 1 I I #
edge $-1 $143 0 $122 20.000000000000011 $138 $144 forward 7 unknown #
point $-1 1.4195548581099977 9.38344471774891 1.5307579422779716e-016 #
face $-1 $145 $140 $3 $-1 $146 forward single #
loop $-1 $-1 $147 $124 #
cone-surface $-1 1.9174263404484895 29.416283358018401 0 -0.087155742747658582 -0.99619469809174555 0 1.2452433726146819 -0.10894467843457321 0 1 I I 0 1 1.25 forward I I I I #
coedge $-1 $148 $147 $126 $137 reversed $134 $-1 #
edge $-1 $129 0 $122 3.1415926535897931 $136 $149 forward 7 unknown #
coedge $-1 $150 $127 $147 $131 reversed $140 $-1 #
coedge $-1 $127 $150 $148 $151 forward $140 $-1 #
loop $-1 $-1 $139 $133 #
ellipse-curve $-1 0.17431148549531589 9.4923893961834835 5.5511151231257827e-017 -0.08715574274765886 -0.99619469809174555 -2.1693674893577827e-032 1.2452433726146819 -0.10894467843457356 9.756464299653933e-017 1 I I #
point $-1 -1.070931887119366 9.6013340746180571 0 #
vertex $-1 $152 $153 #
straight-curve $-1 3.1626697130631714 29.307338679583829 0 -0.087155742747658582 -0.99619469809174555 0 I I #
face $-1 $-1 $154 $3 $-1 $155 reversed single #
cone-surface $-1 1.9174263404484895 29.416283358018401 0 -0.087155742747658582 -0.99619469809174555 0 1.2452433726146819 -0.10894467843457321 0 1 I I 0 1 1.25 forward I I I I #
coedge $-1 $136 $156 $138 $131 forward $134 $-1 #
coedge $-1 $156 $136 $139 $151 reversed $134 $-1 #
ellipse-curve $-1 0.17431148549531572 9.4923893961834835 5.5511151231257827e-017 -0.087155742747658874 -0.99619469809174555 -1.2818989709841448e-032 -1.2452433726146817 0.10894467843457356 -5.5511151231257827e-017 1 I I #
coedge $-1 $139 $138 $157 $152 forward $140 $-1 #
edge $-1 $158 0 $129 20.000000000000004 $139 $159 forward 7 unknown #
edge $-1 $143 0 $158 3.1415926535897931 $157 $160 forward 7 unknown #
point $-1 3.1626697130631714 29.307338679583829 0 #
loop $-1 $-1 $161 $145 #
plane-surface $-1 1.9174263404484895 29.416283358018401 0 -0.087155742747658568 -0.99619469809174555 0 0.99619469809174555 -0.087155742747658568 0 forward_v I I I I #
coedge $-1 $147 $148 $161 $162 forward $134 $-1 #
coedge $-1 $161 $161 $150 $152 reversed $154 $-1 #
vertex $-1 $152 $163 #
straight-curve $-1 0.6721829678338076 29.525228036452972 1.5307579422779716e-016 -0.087155742747658582 -0.99619469809174555 0 I I #
ellipse-curve $-1 1.9174263404484895 29.416283358018401 0 -0.087155742747657444 -0.99619469809174566 0 1.2452433726146819 -0.10894467843457178 0 1 I I #
coedge $-1 $157 $157 $156 $162 reversed $154 $-1 #
edge $-1 $158 0 $143 3.1415926535897931 $161 $164 forward 7 unknown #
point $-1 0.6721829678338076 29.525228036452972 0 #
ellipse-curve $-1 1.9174263404484895 29.416283358018401 0 -0.087155742747657444 -0.99619469809174566 0 -1.2452433726146819 0.10894467843457178 0 1 I I #
End-of-ACIS-data 