600 0 1 0           
93 GICL ACIS Healer - Source: /gicl/data5/repository/PTC/V18/asmdes18/parts/gear_lever.sat - 6 0 18 ACIS 6.0.3 Solaris 24 Sat Apr 13 23:00:11 2002 
1 9.999999999999999547e-07 1.000000000000000036e-10 
body $-1 $1 $-1 $-1 #
lump $-1 $-1 $2 $0 #
shell $-1 $-1 $-1 $3 $-1 $1 #
face $-1 $4 $5 $2 $-1 $6 forward single #
face $-1 $7 $8 $2 $-1 $6 forward single #
loop $-1 $-1 $9 $3 #
sphere-surface $-1 -3.552713678800500929e-14 0 0 30 1 0 0 0 0 1 forward_v I I I I #
face $-1 $10 $11 $2 $-1 $12 forward single #
loop $-1 $-1 $13 $4 #
coedge $-1 $14 $15 $16 $17 reversed $5 $-1 #
face $-1 $18 $19 $2 $-1 $20 forward single #
loop $-1 $-1 $21 $7 #
cone-surface $-1 0 -303.5688496419797957 0 0 -1 0 -0.4366094290851200155 0 0 1 I I -0.04361938736533594457 0.9990482215818577982 0.4366094290851200155 forward I I I I #
coedge $-1 $22 $23 $24 $25 reversed $8 $-1 #
coedge $-1 $24 $9 $26 $27 reversed $5 $-1 #
coedge $-1 $9 $24 $28 $29 forward $5 $-1 #
coedge $-1 $23 $22 $9 $17 forward $8 $-1 #
edge $-1 $30 -6.315935428978672011e-17 $31 2.282041790980740892 $9 $32 forward 7 unknown #
face $-1 $33 $34 $2 $-1 $20 forward single #
loop $-1 $-1 $35 $10 #
sphere-surface $-1 0 -220 0 20 1 0 0 0 0 1 forward_v I I I I #
coedge $-1 $36 $37 $38 $39 forward $11 $-1 #
coedge $-1 $16 $13 $40 $41 forward $8 $-1 #
coedge $-1 $13 $16 $42 $43 forward $8 $-1 #
coedge $-1 $15 $14 $13 $25 forward $5 $-1 #
edge $-1 $44 2.084258691562960556e-15 $45 2.282041790980734675 $24 $46 forward 7 unknown #
coedge $-1 $47 $48 $14 $27 forward $49 $-1 #
edge $-1 $44 -3.141592653589793116 $30 2.449212707644747614e-16 $14 $50 forward 7 unknown #
coedge $-1 $51 $52 $15 $29 reversed $53 $-1 #
edge $-1 $45 1.224606353822387612e-16 $31 3.141592653589793116 $15 $54 reversed 7 unknown #
vertex $-1 $27 $55 #
vertex $-1 $29 $56 #
ellipse-curve $-1 -3.552713678800500929e-14 0 0 2.449212707644754516e-16 0 -1 -12.49999999999998934 -27.27178028658929421 -3.06151588455593999e-15 1 I I #
face $-1 $57 $49 $2 $-1 $12 forward single #
loop $-1 $-1 $58 $18 #
coedge $-1 $38 $59 $60 $61 forward $19 $-1 #
coedge $-1 $40 $21 $47 $62 forward $11 $-1 #
coedge $-1 $21 $40 $48 $63 reversed $11 $-1 #
coedge $-1 $59 $35 $21 $39 reversed $19 $-1 #
edge $-1 $64 -3.141592653589793116 $65 -2.449212707644754516e-16 $38 $66 forward 7 unknown #
coedge $-1 $37 $36 $22 $41 reversed $11 $-1 #
edge $-1 $44 -3.141592653589793116 $30 -2.449212707644747614e-16 $22 $67 reversed 7 unknown #
coedge $-1 $68 $69 $23 $43 reversed $70 $-1 #
edge $-1 $31 -3.141592653589793116 $45 1.224606353822387612e-16 $23 $71 reversed 7 unknown #
vertex $-1 $25 $72 #
vertex $-1 $29 $73 #
ellipse-curve $-1 -3.552713678800500929e-14 0 0 -1.224606353822377258e-16 0 1 12.49999999999998934 -27.27178028658929421 1.530757942277969995e-15 1 I I #
coedge $-1 $74 $26 $36 $62 reversed $49 $-1 #
coedge $-1 $26 $74 $37 $63 forward $49 $-1 #
loop $-1 $-1 $26 $33 #
ellipse-curve $-1 0 -27.27178028658926223 0 0 -1 0 -12.50000000000000711 -2.131628207280300558e-14 0 1 I I #
coedge $-1 $75 $28 $69 $76 reversed $53 $-1 #
coedge $-1 $28 $75 $68 $77 forward $53 $-1 #
loop $-1 $-1 $51 $78 #
ellipse-curve $-1 7.105427357601001859e-14 27.27178028658923736 0 -0 1 -0 12.5 0 0 1 I I #
point $-1 -12.50000000000000711 -27.27178028658926223 -3.061515884555935651e-15 #
point $-1 -12.49999999999992895 27.27178028658923736 0 #
face $-1 $78 $70 $2 $-1 $79 forward single #
coedge $-1 $60 $80 $74 $81 forward $34 $-1 #
coedge $-1 $35 $38 $80 $82 reversed $19 $-1 #
coedge $-1 $80 $58 $35 $61 reversed $34 $-1 #
edge $-1 $83 3.673819061467131775e-16 $65 2.892444988608345202 $60 $84 forward 7 unknown #
edge $-1 $65 8.526145837936118074e-15 $30 17.3510904831981847 $47 $85 forward 7 unknown #
edge $-1 $64 8.526145837936118074e-15 $44 17.3510904831981847 $48 $86 forward 7 unknown #
vertex $-1 $82 $87 #
vertex $-1 $61 $88 #
ellipse-curve $-1 0 -200.6175411840396521 0 -0 1 -0 -4.931560630023853697 0 0 1 I I #
ellipse-curve $-1 0 -27.27178028658926223 0 0 -1 0 -12.50000000000000711 -2.131628207280300558e-14 0 1 I I #
coedge $-1 $89 $42 $52 $77 reversed $70 $-1 #
coedge $-1 $42 $89 $51 $76 forward $70 $-1 #
loop $-1 $-1 $68 $57 #
ellipse-curve $-1 7.105427357601001859e-14 27.27178028658923736 0 -0 1 -0 12.5 0 0 1 I I #
point $-1 12.50000000000000711 -27.27178028658926223 1.530757942277972362e-15 #
point $-1 12.50000000000006928 27.27178028658923736 1.530757942277984195e-15 #
coedge $-1 $48 $47 $58 $81 reversed $49 $-1 #
coedge $-1 $52 $51 $90 $91 forward $53 $-1 #
edge $-1 $92 -1.421085471520200451e-15 $45 2.772821971341076441 $51 $93 forward 7 unknown #
edge $-1 $94 -1.421085471520200451e-15 $31 2.772821971341076441 $52 $95 forward 7 unknown #
face $-1 $96 $53 $2 $-1 $79 forward single #
cone-surface $-1 7.105427357601001859e-14 55 0 0 -1 0 12.5 0 0 1 I I 0 1 12.5 forward I I I I #
coedge $-1 $58 $60 $59 $82 forward $34 $-1 #
edge $-1 $64 -3.141592653589793116 $65 2.449212707644754516e-16 $58 $97 reversed 7 unknown #
edge $-1 $83 -2.754741072781863784e-48 $64 2.892444988608345202 $80 $98 forward 7 unknown #
vertex $-1 $82 $99 #
ellipse-curve $-1 0 -220 0 2.449212707644755009e-16 1.094764425253763337e-47 -1 3.673819061467131775e-15 -20 8.997964330932824638e-31 1 I I #
straight-curve $-1 -4.931560630023851033 -200.6175411840397373 -1.207844096357498639e-15 -0.4361938736533593208 9.990482215818577316 -1.068331578348598195e-16 I I #
straight-curve $-1 4.931560630023851033 -200.6175411840397373 6.039220481787493197e-16 0.4361938736533593208 9.990482215818577316 5.341657891742990974e-17 I I #
point $-1 4.931560630023852809 -200.6175411840396521 6.039220481787496155e-16 #
point $-1 -4.931560630023852809 -200.6175411840396521 -1.207844096357499231e-15 #
coedge $-1 $69 $68 $100 $101 forward $70 $-1 #
coedge $-1 $102 $103 $75 $91 reversed $104 $-1 #
edge $-1 $92 -3.141592653589793116 $94 0 $90 $105 forward 7 unknown #
vertex $-1 $106 $107 #
straight-curve $-1 12.50000000000007105 55 0 0 -10 0 I I #
vertex $-1 $91 $108 #
straight-curve $-1 -12.49999999999992895 55 1.530757942277971573e-15 0 -10 0 I I #
face $-1 $109 $104 $2 $-1 $110 forward single #
ellipse-curve $-1 0 -200.6175411840396521 0 -0 1 -0 -4.931560630023853697 0 0 1 I I #
ellipse-curve $-1 0 -220 0 -1.224606353822377505e-16 5.473822126268816683e-48 1 -3.673819061467131775e-15 -20 -4.498982165466412319e-31 1 I I #
point $-1 -3.673819061467131775e-15 -240 -4.498982165466412319e-31 #
coedge $-1 $111 $112 $89 $101 reversed $113 $-1 #
edge $-1 $94 0 $92 3.141592653589793116 $100 $114 forward 7 unknown #
coedge $-1 $115 $90 $112 $106 reversed $104 $-1 #
coedge $-1 $90 $115 $111 $116 forward $104 $-1 #
loop $-1 $-1 $103 $96 #
ellipse-curve $-1 7.105427357601001859e-14 55 0 0 -1 0 -12.5 0 0 1 I I #
edge $-1 $117 1.17764251573788514e-16 $92 0.5235987755982983716 $102 $118 forward 7 unknown #
point $-1 12.49999999999999289 55.00000000000001421 1.530757942277971573e-15 #
point $-1 -12.50000000000000711 55.00000000000001421 0 #
face $-1 $119 $113 $2 $-1 $110 forward single #
torus-surface $-1 74.64101615137775525 55 0 0 0 1 74.64101615137775525 12.5 0.8660254037844388186 -0.499999999999999889 0 forward_v I I I I #
coedge $-1 $120 $100 $103 $116 reversed $113 $-1 #
coedge $-1 $100 $120 $102 $106 forward $113 $-1 #
loop $-1 $-1 $112 $109 #
ellipse-curve $-1 7.105427357601001859e-14 55 0 0 -1 0 -12.5 0 0 1 I I #
coedge $-1 $103 $102 $121 $122 forward $104 $-1 #
edge $-1 $123 1.197718984918661982e-16 $94 0.5235987755982984826 $103 $124 forward 7 unknown #
vertex $-1 $125 $126 #
ellipse-curve $-1 74.64101615137775525 55 1.530757942277971573e-15 0 0 1 -53.81569860407225292 31.07050807568885631 0 1 I I #
face $-1 $127 $128 $2 $-1 $129 forward single #
coedge $-1 $112 $111 $130 $131 forward $113 $-1 #
coedge $-1 $132 $133 $115 $122 reversed $134 $-1 #
edge $-1 $117 -3.141592653589793116 $123 0 $121 $135 forward 7 unknown #
vertex $-1 $122 $136 #
ellipse-curve $-1 74.64101615137775525 55 0 0 0 1 -75.46633369868321495 43.57050807568885631 0 1 I I #
edge $-1 $137 0 $117 33.00000000000002132 $132 $138 forward 7 unknown #
point $-1 20.82531754730549522 86.0705080756888492 1.530757942277971573e-15 #
face $-1 $139 $134 $2 $-1 $129 forward single #
loop $-1 $-1 $140 $119 #
cone-surface $-1 175 378.1088913245539516 0 -0.4999999999999999445 -0.8660254037844388186 0 10.82531754730548457 -6.249999999999999112 0 1 I I 0 1 12.50000000000000178 forward I I I I #
coedge $-1 $141 $140 $120 $131 reversed $128 $-1 #
edge $-1 $123 0 $117 3.141592653589793116 $130 $142 forward 7 unknown #
coedge $-1 $143 $121 $140 $125 reversed $134 $-1 #
coedge $-1 $121 $143 $141 $144 forward $134 $-1 #
loop $-1 $-1 $133 $127 #
ellipse-curve $-1 9.999999999999886313 92.32050807568890605 0 -0.4999999999999995004 -0.8660254037844390407 0 -10.82531754730548634 6.249999999999992895 0 1 I I #
point $-1 -0.8253175473054708 98.5705080756888492 0 #
vertex $-1 $145 $146 #
straight-curve $-1 185.8253175473055023 371.8588913245539516 0 -4.999999999999999112 -8.660254037844389075 0 I I #
face $-1 $-1 $147 $2 $-1 $148 reversed single #
coedge $-1 $130 $149 $132 $125 forward $128 $-1 #
coedge $-1 $149 $130 $133 $144 reversed $128 $-1 #
ellipse-curve $-1 9.999999999999886313 92.32050807568890605 0 -0.4999999999999995004 -0.8660254037844390407 0 -10.82531754730548634 6.249999999999992895 0 1 I I #
coedge $-1 $133 $132 $150 $145 forward $134 $-1 #
edge $-1 $151 -0 $123 33.00000000000002132 $133 $152 forward 7 unknown #
edge $-1 $137 0 $151 3.141592653589793116 $150 $153 forward 7 unknown #
point $-1 185.8253175473055023 371.8588913245539516 0 #
loop $-1 $-1 $154 $139 #
plane-surface $-1 175 378.1088913245539516 0 -0.499999999999999889 -0.8660254037844387076 0 8.660254037844389075 -5 0 forward_v I I I I #
coedge $-1 $140 $141 $154 $155 forward $128 $-1 #
coedge $-1 $154 $154 $143 $145 reversed $147 $-1 #
vertex $-1 $145 $156 #
straight-curve $-1 164.1746824526944977 384.3588913245539516 1.530757942277971573e-15 -4.999999999999999112 -8.660254037844389075 0 I I #
ellipse-curve $-1 175 378.1088913245539516 0 -0.499999999999999889 -0.8660254037844387076 0 10.82531754730548457 -6.249999999999999112 0 1 I I #
coedge $-1 $150 $150 $149 $155 reversed $147 $-1 #
edge $-1 $151 -3.141592653589793116 $137 0 $154 $157 forward 7 unknown #
point $-1 164.1746824526944977 384.3588913245539516 0 #
ellipse-curve $-1 175 378.1088913245539516 0 -0.499999999999999889 -0.8660254037844387076 0 10.82531754730548457 -6.249999999999999112 0 1 I I #
End-of-ACIS-data 