700 0 2 0           
24 FBMach with ACIS - 7.0.3 13 ACIS 7.0.3 NT 24 Thu May 16 15:57:16 2002 
1 9.9999999999999995e-007 1e-010 
body $2 -1 $-1 $3 $-1 $4 #
bdycol-kcp $-1 -1 1 2 $5 $6 #
model_id-kcp-attrib $-1 -1 $-1 $-1 $0 1 1021579035 1021579035 -1998454783 1 #
lump $-1 -1 $-1 $-1 $7 $0 #
transform $-1 -1 1 0 0 0 1 0 0 0 1 0 0 0 1 rotate no_reflect no_shear #
body $8 -1 $-1 $9 $-1 $10 #
body $11 -1 $-1 $12 $-1 $13 #
shell $-1 -1 $-1 $-1 $-1 $14 $-1 $3 #
model_id-kcp-attrib $-1 -1 $-1 $-1 $5 1 1021579035 1021579035 -1998454782 1 #
lump $-1 -1 $-1 $-1 $15 $5 #
transform $-1 -1 1 0 0 0 1 0 0 0 1 77.912658773652737 72.179445662276976 0 1 no_rotate no_reflect no_shear #
rgb_color-st-attrib $-1 -1 $16 $-1 $6 0.5 0.5 1 #
lump $-1 -1 $-1 $-1 $17 $6 #
transform $-1 -1 1 0 0 0 1 0 0 0 1 77.912658773652737 72.179445662276976 0 1 no_rotate no_reflect no_shear #
face $18 -1 $-1 $19 $20 $7 $-1 $21 forward single #
shell $-1 -1 $-1 $-1 $-1 $22 $-1 $9 #
model_id-kcp-attrib $-1 -1 $-1 $11 $6 1 1021579035 1021579036 -1997930493 1 #
shell $-1 -1 $-1 $-1 $-1 $23 $-1 $12 #
model_id-kcp-attrib $-1 -1 $-1 $-1 $14 1 1021579035 1021579035 -1998454783 2 #
face $24 -1 $-1 $25 $26 $7 $-1 $21 forward single #
loop $-1 -1 $-1 $-1 $27 $14 #
sphere-surface $-1 -1 $-1 -3.5527136788005009e-014 0 0 30 1 0 0 0 0 1 forward_v I I I I #
face $-1 -1 $-1 $28 $29 $15 $-1 $30 forward single #
face $-1 -1 $-1 $31 $32 $17 $-1 $33 reversed single #
model_id-kcp-attrib $-1 -1 $-1 $-1 $19 1 1021579035 1021579035 -1998454783 3 #
face $34 -1 $-1 $35 $36 $7 $-1 $37 forward single #
loop $-1 -1 $-1 $-1 $38 $19 #
coedge $-1 -1 $-1 $39 $40 $41 $42 reversed $20 $-1 #
face $-1 -1 $-1 $43 $44 $15 $-1 $45 reversed single #
loop $-1 -1 $-1 $-1 $46 $22 #
plane-surface $-1 -1 $-1 0 0 30 0 0 1 1 0 0 forward_v I I I I #
face $-1 -1 $-1 $47 $48 $17 $-1 $49 reversed single #
loop $-1 -1 $-1 $-1 $50 $23 #
plane-surface $-1 -1 $-1 97.087341226347235 305.92944566227698 0 0.49999999999999989 0.86602540378443871 0 -0.86602540378443871 0.49999999999999989 0 forward_v I I I I #
model_id-kcp-attrib $-1 -1 $-1 $-1 $25 1 1021579035 1021579035 -1998454783 4 #
face $51 -1 $-1 $52 $53 $7 $-1 $54 forward single #
loop $-1 -1 $-1 $-1 $55 $25 #
cone-surface $-1 -1 $-1 0 -303.5688496419798 0 0 -1 0 -0.43660942908512002 0 0 1 I I -0.043619387365335945 0.9990482215818578 0.43660942908512002 forward I I I I #
coedge $-1 -1 $-1 $56 $57 $58 $59 reversed $26 $-1 #
coedge $-1 -1 $-1 $58 $27 $60 $61 reversed $20 $-1 #
coedge $-1 -1 $-1 $27 $58 $62 $63 forward $20 $-1 #
coedge $-1 -1 $-1 $57 $56 $27 $42 forward $26 $-1 #
edge $-1 -1 $-1 $64 -6.315935428978672e-017 $65 2.2820417909807409 $27 $66 forward @7 unknown #
face $-1 -1 $-1 $67 $68 $15 $-1 $69 reversed single #
loop $-1 -1 $-1 $-1 $70 $28 #
plane-surface $-1 -1 $-1 0 0 -30 0 0 1 1 0 0 forward_v I I I I #
coedge $-1 -1 $-1 $71 $72 $73 $74 forward $29 $-1 #
face $-1 -1 $-1 $75 $76 $17 $-1 $77 reversed single #
loop $-1 -1 $-1 $-1 $78 $31 #
plane-surface $-1 -1 $-1 107.91265877365277 0 0 -1 0 0 0 0 1 forward_v I I I I #
coedge $-1 -1 $-1 $79 $80 $81 $82 forward $32 $-1 #
model_id-kcp-attrib $-1 -1 $-1 $-1 $35 1 1021579035 1021579035 -1998454783 5 #
face $83 -1 $-1 $84 $85 $7 $-1 $54 forward single #
loop $-1 -1 $-1 $-1 $86 $35 #
sphere-surface $-1 -1 $-1 0 -220 0 20 1 0 0 0 0 1 forward_v I I I I #
coedge $-1 -1 $-1 $87 $88 $89 $90 forward $36 $-1 #
coedge $-1 -1 $-1 $41 $38 $91 $92 forward $26 $-1 #
coedge $-1 -1 $-1 $38 $41 $93 $94 forward $26 $-1 #
coedge $-1 -1 $-1 $40 $39 $38 $59 forward $20 $-1 #
edge $-1 -1 $-1 $95 2.0842586915629606e-015 $96 2.2820417909807347 $58 $97 forward @7 unknown #
coedge $-1 -1 $-1 $98 $99 $39 $61 forward $100 $-1 #
edge $-1 -1 $-1 $95 -3.1415926535897931 $64 2.4492127076447476e-016 $39 $101 forward @7 unknown #
coedge $-1 -1 $-1 $102 $103 $40 $63 reversed $104 $-1 #
edge $-1 -1 $-1 $96 1.2246063538223876e-016 $65 3.1415926535897931 $40 $105 reversed @7 unknown #
vertex $-1 -1 $-1 $61 $106 #
vertex $-1 -1 $-1 $63 $107 #
ellipse-curve $-1 -1 $-1 -3.5527136788005009e-014 0 0 2.4492127076447545e-016 0 -1 -12.499999999999989 -27.271780286589294 -3.06151588455594e-015 1 I I #
face $-1 -1 $-1 $108 $109 $15 $-1 $110 reversed single #
loop $-1 -1 $-1 $-1 $111 $43 #
plane-surface $-1 -1 $-1 0 -312.17944566227698 0 0 1 0 0 0 1 forward_v I I I I #
coedge $-1 -1 $-1 $112 $113 $114 $115 forward $44 $-1 #
coedge $-1 -1 $-1 $116 $46 $117 $118 forward $29 $-1 #
coedge $-1 -1 $-1 $46 $116 $119 $120 forward $29 $-1 #
coedge $-1 -1 $-1 $121 $122 $46 $74 reversed $123 $-1 #
edge $-1 -1 $-1 $124 -312.17944566227698 $125 312.17944566227698 $73 $126 forward @7 unknown #
face $-1 -1 $-1 $127 $128 $17 $-1 $129 forward single #
loop $-1 -1 $-1 $-1 $81 $47 #
plane-surface $-1 -1 $-1 0 0 -30 0 0 1 1 0 0 forward_v I I I I #
coedge $-1 -1 $-1 $130 $131 $79 $132 reversed $48 $-1 #
coedge $-1 -1 $-1 $133 $50 $78 $132 forward $32 $-1 #
coedge $-1 -1 $-1 $50 $133 $134 $135 forward $32 $-1 #
coedge $-1 -1 $-1 $136 $137 $50 $82 reversed $76 $-1 #
edge $138 -1 $-1 $139 -46.94230947161676 $140 -21.942309471616671 $81 $141 forward @7 unknown #
model_id-kcp-attrib $-1 -1 $-1 $-1 $52 1 1021579035 1021579035 -1998454783 6 #
face $142 -1 $-1 $143 $100 $7 $-1 $37 forward single #
loop $-1 -1 $-1 $-1 $144 $52 #
coedge $-1 -1 $-1 $89 $145 $146 $147 forward $53 $-1 #
coedge $-1 -1 $-1 $91 $55 $98 $148 forward $36 $-1 #
coedge $-1 -1 $-1 $55 $91 $99 $149 reversed $36 $-1 #
coedge $-1 -1 $-1 $145 $86 $55 $90 reversed $53 $-1 #
edge $-1 -1 $-1 $150 -3.1415926535897931 $151 -2.4492127076447545e-016 $89 $152 forward @7 unknown #
coedge $-1 -1 $-1 $88 $87 $56 $92 reversed $36 $-1 #
edge $-1 -1 $-1 $95 -3.1415926535897931 $64 -2.4492127076447476e-016 $56 $153 reversed @7 unknown #
coedge $-1 -1 $-1 $154 $155 $57 $94 reversed $156 $-1 #
edge $-1 -1 $-1 $65 -3.1415926535897931 $96 1.2246063538223876e-016 $57 $157 reversed @7 unknown #
vertex $-1 -1 $-1 $59 $158 #
vertex $-1 -1 $-1 $63 $159 #
ellipse-curve $-1 -1 $-1 -3.5527136788005009e-014 0 0 -1.2246063538223773e-016 0 1 12.499999999999989 -27.271780286589294 1.53075794227797e-015 1 I I #
coedge $-1 -1 $-1 $160 $60 $87 $148 reversed $100 $-1 #
coedge $-1 -1 $-1 $60 $160 $88 $149 forward $100 $-1 #
loop $-1 -1 $-1 $-1 $60 $84 #
ellipse-curve $-1 -1 $-1 0 -27.271780286589262 0 0 -1 0 -12.500000000000007 -2.1316282072803006e-014 0 1 I I #
coedge $-1 -1 $-1 $161 $62 $155 $162 reversed $104 $-1 #
coedge $-1 -1 $-1 $62 $161 $154 $163 forward $104 $-1 #
loop $-1 -1 $-1 $-1 $102 $164 #
ellipse-curve $-1 -1 $-1 7.1054273576010019e-014 27.271780286589237 0 0 1 0 12.5 0 0 1 I I #
point $-1 -1 $-1 -12.500000000000007 -27.271780286589262 -3.0615158845559357e-015 #
point $-1 -1 $-1 -12.499999999999929 27.271780286589237 0 #
face $-1 -1 $-1 $165 $166 $15 $-1 $167 reversed single #
loop $-1 -1 $-1 $-1 $168 $67 #
plane-surface $-1 -1 $-1 -107.91265877365277 0 0 1 0 0 0 0 -1 forward_v I I I I #
coedge $-1 -1 $-1 $169 $119 $170 $171 forward $68 $-1 #
coedge $-1 -1 $-1 $172 $70 $169 $173 forward $44 $-1 #
coedge $-1 -1 $-1 $70 $172 $174 $175 forward $44 $-1 #
coedge $-1 -1 $-1 $122 $121 $70 $115 reversed $123 $-1 #
edge $-1 -1 $-1 $176 -312.17944566227698 $177 312.17944566227698 $114 $178 forward @7 unknown #
coedge $-1 -1 $-1 $72 $71 $179 $180 forward $29 $-1 #
coedge $-1 -1 $-1 $181 $182 $71 $118 reversed $166 $-1 #
edge $-1 -1 $-1 $125 -107.91265877365277 $183 107.91265877365277 $117 $184 forward @7 unknown #
coedge $-1 -1 $-1 $111 $185 $72 $120 reversed $68 $-1 #
edge $-1 -1 $-1 $186 -107.91265877365277 $124 107.91265877365277 $119 $187 forward @7 unknown #
coedge $-1 -1 $-1 $114 $73 $185 $188 forward $123 $-1 #
coedge $-1 -1 $-1 $73 $114 $181 $189 reversed $123 $-1 #
loop $-1 -1 $-1 $-1 $121 $165 #
vertex $-1 -1 $-1 $74 $190 #
vertex $-1 -1 $-1 $74 $191 #
straight-curve $-1 -1 $-1 107.91265877365277 0 30 0 1 0 I I #
face $-1 -1 $-1 $-1 $192 $17 $-1 $193 reversed single #
loop $-1 -1 $-1 $-1 $194 $75 #
plane-surface $-1 -1 $-1 0 0 30 0 0 1 1 0 0 forward_v I I I I #
coedge $-1 -1 $-1 $195 $78 $137 $196 reversed $48 $-1 #
coedge $-1 -1 $-1 $78 $195 $197 $198 reversed $48 $-1 #
edge $199 -1 $-1 $140 -30 $200 30 $78 $201 forward @7 unknown #
coedge $-1 -1 $-1 $80 $79 $194 $202 forward $32 $-1 #
coedge $-1 -1 $-1 $203 $204 $80 $135 reversed $192 $-1 #
edge $205 -1 $-1 $206 -30 $139 30 $134 $207 forward @7 unknown #
coedge $-1 -1 $-1 $137 $81 $204 $208 forward $76 $-1 #
coedge $-1 -1 $-1 $81 $136 $130 $196 forward $76 $-1 #
convexity-sys-attrib $-1 -1 $-1 $-1 $82 #
vertex $-1 -1 $-1 $208 $209 #
vertex $-1 -1 $-1 $82 $210 #
straight-curve $-1 -1 $-1 126.91525619377273 288.70829092646864 -30 0.86602540378443871 -0.49999999999999989 0 I I #
model_id-kcp-attrib $-1 -1 $-1 $-1 $84 1 1021579035 1021579035 -1998454783 7 #
face $211 -1 $-1 $164 $156 $7 $-1 $212 forward single #
coedge $-1 -1 $-1 $146 $213 $160 $214 forward $85 $-1 #
coedge $-1 -1 $-1 $86 $89 $213 $215 reversed $53 $-1 #
coedge $-1 -1 $-1 $213 $144 $86 $147 reversed $85 $-1 #
edge $-1 -1 $-1 $216 3.6738190614671318e-016 $151 2.8924449886083452 $146 $217 forward @7 unknown #
edge $-1 -1 $-1 $151 8.5261458379361181e-015 $64 17.351090483198185 $98 $218 forward @7 unknown #
edge $-1 -1 $-1 $150 8.5261458379361181e-015 $95 17.351090483198185 $99 $219 forward @7 unknown #
vertex $-1 -1 $-1 $215 $220 #
vertex $-1 -1 $-1 $147 $221 #
ellipse-curve $-1 -1 $-1 0 -200.61754118403965 0 0 1 0 -4.9315606300238537 0 0 1 I I #
ellipse-curve $-1 -1 $-1 0 -27.271780286589262 0 0 -1 0 -12.500000000000007 -2.1316282072803006e-014 0 1 I I #
coedge $-1 -1 $-1 $222 $93 $103 $163 reversed $156 $-1 #
coedge $-1 -1 $-1 $93 $222 $102 $162 forward $156 $-1 #
loop $-1 -1 $-1 $-1 $154 $143 #
ellipse-curve $-1 -1 $-1 7.1054273576010019e-014 27.271780286589237 0 0 1 0 12.5 0 0 1 I I #
point $-1 -1 $-1 12.500000000000007 -27.271780286589262 1.5307579422779724e-015 #
point $-1 -1 $-1 12.500000000000069 27.271780286589237 1.5307579422779842e-015 #
coedge $-1 -1 $-1 $99 $98 $144 $214 reversed $100 $-1 #
coedge $-1 -1 $-1 $103 $102 $223 $224 forward $104 $-1 #
edge $-1 -1 $-1 $225 -1.4210854715202005e-015 $96 2.7728219713410764 $102 $226 forward @7 unknown #
edge $-1 -1 $-1 $227 -1.4210854715202005e-015 $65 2.7728219713410764 $103 $228 forward @7 unknown #
face $229 -1 $-1 $230 $104 $7 $-1 $212 forward single #
face $-1 -1 $-1 $-1 $123 $15 $-1 $231 reversed single #
loop $-1 -1 $-1 $-1 $181 $108 #
plane-surface $-1 -1 $-1 0 312.17944566227698 0 0 -1 0 0 0 -1 forward_v I I I I #
coedge $-1 -1 $-1 $232 $179 $182 $233 forward $109 $-1 #
coedge $-1 -1 $-1 $185 $111 $112 $173 reversed $68 $-1 #
coedge $-1 -1 $-1 $179 $232 $111 $171 reversed $109 $-1 #
edge $-1 -1 $-1 $186 -30 $234 30 $170 $235 forward @7 unknown #
coedge $-1 -1 $-1 $113 $112 $232 $236 forward $44 $-1 #
edge $-1 -1 $-1 $177 -107.91265877365277 $234 107.91265877365277 $169 $237 forward @7 unknown #
coedge $-1 -1 $-1 $182 $181 $113 $175 reversed $166 $-1 #
edge $-1 -1 $-1 $238 -107.91265877365277 $176 107.91265877365277 $174 $239 forward @7 unknown #
vertex $-1 -1 $-1 $115 $240 #
vertex $-1 -1 $-1 $188 $241 #
straight-curve $-1 -1 $-1 107.91265877365277 0 -30 0 -1 0 I I #
coedge $-1 -1 $-1 $168 $170 $116 $180 reversed $109 $-1 #
edge $-1 -1 $-1 $183 -312.17944566227698 $186 312.17944566227698 $179 $242 forward @7 unknown #
coedge $-1 -1 $-1 $174 $117 $122 $189 forward $166 $-1 #
coedge $-1 -1 $-1 $117 $174 $168 $233 reversed $166 $-1 #
vertex $-1 -1 $-1 $118 $243 #
straight-curve $-1 -1 $-1 0 312.17944566227698 30 -1 0 0 I I #
coedge $-1 -1 $-1 $119 $169 $121 $188 reversed $68 $-1 #
vertex $-1 -1 $-1 $180 $244 #
straight-curve $-1 -1 $-1 0 -312.17944566227698 30 1 0 0 I I #
edge $-1 -1 $-1 $124 -30 $177 30 $121 $245 forward @7 unknown #
edge $-1 -1 $-1 $125 -30 $176 30 $122 $246 forward @7 unknown #
point $-1 -1 $-1 107.91265877365277 -312.17944566227698 30 #
point $-1 -1 $-1 107.91265877365277 312.17944566227698 30 #
loop $-1 -1 $-1 $-1 $134 $127 #
plane-surface $-1 -1 $-1 0 312.17944566227698 0 0 -1 0 0 0 -1 forward_v I I I I #
coedge $-1 -1 $-1 $197 $247 $133 $202 reversed $128 $-1 #
coedge $-1 -1 $-1 $131 $130 $248 $249 reversed $48 $-1 #
edge $-1 -1 $-1 $250 -312.17944566227698 $140 -299.67944566227692 $130 $251 forward @7 unknown #
coedge $-1 -1 $-1 $247 $194 $131 $198 forward $128 $-1 #
edge $-1 -1 $-1 $200 299.67944566227692 $252 312.17944566227698 $131 $253 forward @7 unknown #
convexity-sys-attrib $-1 -1 $-1 $-1 $132 #
vertex $-1 -1 $-1 $198 $254 #
straight-curve $-1 -1 $-1 107.91265877365277 299.67944566227692 0 0 0 1 I I #
edge $255 -1 $-1 $200 21.942309471616671 $206 46.94230947161676 $194 $256 forward @7 unknown #
coedge $-1 -1 $-1 $248 $134 $247 $257 reversed $192 $-1 #
coedge $-1 -1 $-1 $134 $248 $136 $208 reversed $192 $-1 #
convexity-sys-attrib $-1 -1 $-1 $-1 $135 #
vertex $-1 -1 $-1 $135 $258 #
straight-curve $-1 -1 $-1 86.262023679041732 312.17944566227698 0 0 0 -1 I I #
edge $-1 -1 $-1 $139 86.262023679041732 $250 107.91265877365277 $204 $259 forward @7 unknown #
point $-1 -1 $-1 86.262023679041732 312.17944566227698 -30 #
point $-1 -1 $-1 107.91265877365277 299.67944566227692 -30 #
model_id-kcp-attrib $-1 -1 $-1 $-1 $143 1 1021579035 1021579035 -1998454783 8 #
cone-surface $-1 -1 $-1 7.1054273576010019e-014 55 0 0 -1 0 12.5 0 0 1 I I 0 1 12.5 forward I I I I #
coedge $-1 -1 $-1 $144 $146 $145 $215 forward $85 $-1 #
edge $-1 -1 $-1 $150 -3.1415926535897931 $151 2.4492127076447545e-016 $144 $260 reversed @7 unknown #
edge $-1 -1 $-1 $216 -2.7547410727818638e-048 $150 2.8924449886083452 $213 $261 forward @7 unknown #
vertex $-1 -1 $-1 $215 $262 #
ellipse-curve $-1 -1 $-1 0 -220 0 2.449212707644755e-016 1.0947644252537633e-047 -1 3.6738190614671318e-015 -20 8.9979643309328246e-031 1 I I #
straight-curve $-1 -1 $-1 -4.931560630023851 -200.61754118403974 -1.2078440963574986e-015 -0.43619387365335932 9.9904822158185773 -1.0683315783485982e-016 I I #
straight-curve $-1 -1 $-1 4.931560630023851 -200.61754118403974 6.0392204817874932e-016 0.43619387365335932 9.9904822158185773 5.341657891742991e-017 I I #
point $-1 -1 $-1 4.9315606300238528 -200.61754118403965 6.0392204817874962e-016 #
point $-1 -1 $-1 -4.9315606300238528 -200.61754118403965 -1.2078440963574992e-015 #
coedge $-1 -1 $-1 $155 $154 $263 $264 forward $156 $-1 #
coedge $-1 -1 $-1 $265 $266 $161 $224 reversed $267 $-1 #
edge $-1 -1 $-1 $225 -3.1415926535897931 $227 0 $223 $268 forward @7 unknown #
vertex $-1 -1 $-1 $269 $270 #
straight-curve $-1 -1 $-1 12.500000000000071 55 0 0 -10 0 I I #
vertex $-1 -1 $-1 $224 $271 #
straight-curve $-1 -1 $-1 -12.499999999999929 55 1.5307579422779716e-015 0 -10 0 I I #
model_id-kcp-attrib $-1 -1 $-1 $-1 $164 1 1021579035 1021579035 -1998454783 9 #
face $272 -1 $-1 $273 $267 $7 $-1 $274 forward single #
plane-surface $-1 -1 $-1 107.91265877365277 0 0 -1 0 0 0 0 1 forward_v I I I I #
coedge $-1 -1 $-1 $170 $168 $172 $236 reversed $109 $-1 #
edge $-1 -1 $-1 $183 -30 $238 30 $182 $275 forward @7 unknown #
vertex $-1 -1 $-1 $236 $276 #
straight-curve $-1 -1 $-1 -107.91265877365277 -312.17944566227698 0 0 0 -1 I I #
edge $-1 -1 $-1 $234 -312.17944566227698 $238 312.17944566227698 $232 $277 forward @7 unknown #
straight-curve $-1 -1 $-1 0 -312.17944566227698 -30 -1 0 0 I I #
vertex $-1 -1 $-1 $175 $278 #
straight-curve $-1 -1 $-1 0 312.17944566227698 -30 1 0 0 I I #
point $-1 -1 $-1 107.91265877365277 312.17944566227698 -30 #
point $-1 -1 $-1 107.91265877365277 -312.17944566227698 -30 #
straight-curve $-1 -1 $-1 -107.91265877365277 0 30 0 -1 0 I I #
point $-1 -1 $-1 -107.91265877365277 312.17944566227698 30 #
point $-1 -1 $-1 -107.91265877365277 -312.17944566227698 30 #
straight-curve $-1 -1 $-1 107.91265877365277 -312.17944566227698 0 0 0 -1 I I #
straight-curve $-1 -1 $-1 107.91265877365277 312.17944566227698 0 0 0 -1 I I #
coedge $-1 -1 $-1 $194 $197 $203 $257 forward $128 $-1 #
coedge $-1 -1 $-1 $204 $203 $195 $249 forward $192 $-1 #
edge $-1 -1 $-1 $252 -30 $250 30 $195 $279 forward @7 unknown #
vertex $-1 -1 $-1 $196 $280 #
straight-curve $-1 -1 $-1 107.91265877365277 0 -30 0 -1 0 I I #
vertex $-1 -1 $-1 $198 $281 #
straight-curve $-1 -1 $-1 107.91265877365277 0 30 0 1 0 I I #
point $-1 -1 $-1 107.91265877365277 299.67944566227692 30 #
convexity-sys-attrib $-1 -1 $-1 $-1 $202 #
straight-curve $-1 -1 $-1 126.91525619377273 288.70829092646864 30 -0.86602540378443871 0.49999999999999989 0 I I #
edge $-1 -1 $-1 $252 -107.91265877365277 $206 -86.262023679041732 $203 $282 forward @7 unknown #
point $-1 -1 $-1 86.262023679041732 312.17944566227698 30 #
straight-curve $-1 -1 $-1 0 312.17944566227698 -30 1 0 0 I I #
ellipse-curve $-1 -1 $-1 0 -200.61754118403965 0 0 1 0 -4.9315606300238537 0 0 1 I I #
ellipse-curve $-1 -1 $-1 0 -220 0 -1.2246063538223775e-016 5.4738221262688167e-048 1 -3.6738190614671318e-015 -20 -4.4989821654664123e-031 1 I I #
point $-1 -1 $-1 -3.6738190614671318e-015 -240 -4.4989821654664123e-031 #
coedge $-1 -1 $-1 $283 $284 $222 $264 reversed $285 $-1 #
edge $-1 -1 $-1 $227 0 $225 3.1415926535897931 $263 $286 forward @7 unknown #
coedge $-1 -1 $-1 $287 $223 $284 $269 reversed $267 $-1 #
coedge $-1 -1 $-1 $223 $287 $283 $288 forward $267 $-1 #
loop $-1 -1 $-1 $-1 $266 $230 #
ellipse-curve $-1 -1 $-1 7.1054273576010019e-014 55 0 0 -1 0 -12.5 0 0 1 I I #
edge $-1 -1 $-1 $289 1.1776425157378851e-016 $225 0.52359877559829837 $265 $290 forward @7 unknown #
point $-1 -1 $-1 12.499999999999993 55.000000000000014 1.5307579422779716e-015 #
point $-1 -1 $-1 -12.500000000000007 55.000000000000014 0 #
model_id-kcp-attrib $-1 -1 $-1 $-1 $230 1 1021579035 1021579035 -1998454783 10 #
face $291 -1 $-1 $292 $285 $7 $-1 $274 forward single #
torus-surface $-1 -1 $-1 74.641016151377755 55 0 0 0 1 74.641016151377755 12.5 0.86602540378443882 -0.49999999999999989 0 forward_v I I I I #
straight-curve $-1 -1 $-1 -107.91265877365277 312.17944566227698 0 0 0 -1 I I #
point $-1 -1 $-1 -107.91265877365277 -312.17944566227698 -30 #
straight-curve $-1 -1 $-1 -107.91265877365277 0 -30 0 1 0 I I #
point $-1 -1 $-1 -107.91265877365277 312.17944566227698 -30 #
straight-curve $-1 -1 $-1 107.91265877365277 312.17944566227698 0 0 0 -1 I I #
point $-1 -1 $-1 107.91265877365277 312.17944566227698 -30 #
point $-1 -1 $-1 107.91265877365277 312.17944566227698 30 #
straight-curve $-1 -1 $-1 0 312.17944566227698 30 -1 0 0 I I #
coedge $-1 -1 $-1 $293 $263 $266 $288 reversed $285 $-1 #
coedge $-1 -1 $-1 $263 $293 $265 $269 forward $285 $-1 #
loop $-1 -1 $-1 $-1 $284 $273 #
ellipse-curve $-1 -1 $-1 7.1054273576010019e-014 55 0 0 -1 0 -12.5 0 0 1 I I #
coedge $-1 -1 $-1 $266 $265 $294 $295 forward $267 $-1 #
edge $-1 -1 $-1 $296 1.197718984918662e-016 $227 0.52359877559829848 $266 $297 forward @7 unknown #
vertex $-1 -1 $-1 $298 $299 #
ellipse-curve $-1 -1 $-1 74.641016151377755 55 1.5307579422779716e-015 0 0 1 -53.815698604072253 31.070508075688856 0 1 I I #
model_id-kcp-attrib $-1 -1 $-1 $-1 $273 1 1021579035 1021579035 -1998454783 11 #
face $300 -1 $-1 $301 $302 $7 $-1 $303 forward single #
coedge $-1 -1 $-1 $284 $283 $304 $305 forward $285 $-1 #
coedge $-1 -1 $-1 $306 $307 $287 $295 reversed $308 $-1 #
edge $-1 -1 $-1 $289 -3.1415926535897931 $296 0 $294 $309 forward @7 unknown #
vertex $-1 -1 $-1 $295 $310 #
ellipse-curve $-1 -1 $-1 74.641016151377755 55 0 0 0 1 -75.466333698683215 43.570508075688856 0 1 I I #
edge $-1 -1 $-1 $311 0 $289 33.000000000000021 $306 $312 forward @7 unknown #
point $-1 -1 $-1 20.825317547305495 86.070508075688849 1.5307579422779716e-015 #
model_id-kcp-attrib $-1 -1 $-1 $-1 $292 1 1021579035 1021579035 -1998454783 12 #
face $313 -1 $-1 $314 $308 $7 $-1 $303 forward single #
loop $-1 -1 $-1 $-1 $315 $292 #
cone-surface $-1 -1 $-1 175 378.10889132455395 0 -0.49999999999999994 -0.86602540378443882 0 10.825317547305485 -6.2499999999999991 0 1 I I 0 1 12.500000000000002 forward I I I I #
coedge $-1 -1 $-1 $316 $315 $293 $305 reversed $302 $-1 #
edge $-1 -1 $-1 $296 0 $289 3.1415926535897931 $304 $317 forward @7 unknown #
coedge $-1 -1 $-1 $318 $294 $315 $298 reversed $308 $-1 #
coedge $-1 -1 $-1 $294 $318 $316 $319 forward $308 $-1 #
loop $-1 -1 $-1 $-1 $307 $301 #
ellipse-curve $-1 -1 $-1 9.9999999999998863 92.320508075688906 0 -0.4999999999999995 -0.86602540378443904 0 -10.825317547305486 6.2499999999999929 0 1 I I #
point $-1 -1 $-1 -0.8253175473054708 98.570508075688849 0 #
vertex $-1 -1 $-1 $320 $321 #
straight-curve $-1 -1 $-1 185.8253175473055 371.85889132455395 0 -4.9999999999999991 -8.6602540378443891 0 I I #
model_id-kcp-attrib $-1 -1 $-1 $-1 $301 1 1021579035 1021579035 -1998454783 13 #
face $322 -1 $-1 $-1 $323 $7 $-1 $324 reversed single #
coedge $-1 -1 $-1 $304 $325 $306 $298 forward $302 $-1 #
coedge $-1 -1 $-1 $325 $304 $307 $319 reversed $302 $-1 #
ellipse-curve $-1 -1 $-1 9.9999999999998863 92.320508075688906 0 -0.4999999999999995 -0.86602540378443904 0 -10.825317547305486 6.2499999999999929 0 1 I I #
coedge $-1 -1 $-1 $307 $306 $326 $320 forward $308 $-1 #
edge $-1 -1 $-1 $327 0 $296 33.000000000000021 $307 $328 forward @7 unknown #
edge $329 -1 $-1 $311 0 $327 3.1415926535897931 $326 $330 forward @7 unknown #
point $-1 -1 $-1 185.8253175473055 371.85889132455395 0 #
model_id-kcp-attrib $-1 -1 $-1 $-1 $314 1 1021579035 1021579035 -1998454783 14 #
loop $-1 -1 $-1 $-1 $331 $314 #
plane-surface $-1 -1 $-1 175 378.10889132455395 0 -0.49999999999999989 -0.86602540378443871 0 8.6602540378443891 -5 0 forward_v I I I I #
coedge $-1 -1 $-1 $315 $316 $331 $332 forward $302 $-1 #
coedge $-1 -1 $-1 $331 $331 $318 $320 reversed $323 $-1 #
vertex $-1 -1 $-1 $320 $333 #
straight-curve $-1 -1 $-1 164.1746824526945 384.35889132455395 1.5307579422779716e-015 -4.9999999999999991 -8.6602540378443891 0 I I #
attrib_edge_convexity-kcp-attrib $-1 -1 $334 $-1 $320 1 #
ellipse-curve $-1 -1 $-1 175 378.10889132455395 0 -0.49999999999999989 -0.86602540378443871 0 10.825317547305485 -6.2499999999999991 0 1 I I #
coedge $-1 -1 $-1 $326 $326 $325 $332 reversed $323 $-1 #
edge $335 -1 $-1 $327 -3.1415926535897931 $311 0 $331 $336 forward @7 unknown #
point $-1 -1 $-1 164.1746824526945 384.35889132455395 0 #
convexity-sys-attrib $-1 -1 $-1 $329 $320 #
attrib_edge_convexity-kcp-attrib $-1 -1 $337 $-1 $332 1 #
ellipse-curve $-1 -1 $-1 175 378.10889132455395 0 -0.49999999999999989 -0.86602540378443871 0 10.825317547305485 -6.2499999999999991 0 1 I I #
convexity-sys-attrib $-1 -1 $-1 $335 $332 #
End-of-ACIS-data 