600 0 1 0           
97 GICL Pro/E ACIS Translator - Source: f:/data5/repository/PTC/V18/asmdes18/parts/hex_nut.prt - 6 0 13 ACIS 6.0.3 NT 24 Thu Apr 04 13:45:15 2002 
1 9.9999999999999995e-007 1e-010 
body $-1 $1 $-1 $2 #
lump $-1 $-1 $3 $0 #
transform $-1 1 0 0 0 1 0 0 0 1 0 0 0 10 no_rotate no_reflect no_shear #
shell $-1 $-1 $-1 $4 $-1 $1 #
face $-1 $5 $6 $3 $-1 $7 reversed single #
face $-1 $8 $9 $3 $-1 $10 reversed single #
loop $-1 $11 $12 $4 #
plane-surface $-1 0 0 0 0 1 0 1 0 0 forward_v I I I I #
face $-1 $13 $14 $3 $-1 $15 reversed single #
loop $-1 $-1 $16 $5 #
cone-surface $-1 0 0.19999999999999996 0 0 1 0 0 0 1.0000000000000002 1 I I -0.70710678118654757 0.70710678118654746 1.0000000000000002 forward I I I I #
loop $-1 $-1 $17 $4 #
coedge $-1 $18 $18 $19 $20 reversed $6 $-1 #
face $-1 $21 $22 $3 $-1 $23 reversed single #
loop $-1 $-1 $24 $8 #
cone-surface $-1 0 0.19999999999999996 0 0 1 0 0 0 1.0000000000000002 1 I I -0.70710678118654757 0.70710678118654746 1.0000000000000002 forward I I I I #
coedge $-1 $25 $19 $26 $27 forward $9 $-1 #
coedge $-1 $28 $29 $30 $31 forward $11 $-1 #
coedge $-1 $12 $12 $32 $33 reversed $6 $-1 #
coedge $-1 $16 $34 $12 $20 forward $9 $-1 #
edge $-1 $35 -2.4492127076447545e-016 $36 3.1415926535897931 $12 $37 forward 7 unknown #
face $-1 $38 $39 $3 $-1 $40 reversed single #
loop $-1 $-1 $41 $13 #
cone-surface $-1 0 1.0499999999999998 0 0 -1 0 0 0 1 1 I I 0 1 1 forward I I I I #
coedge $-1 $42 $32 $34 $43 forward $14 $-1 #
coedge $-1 $34 $16 $44 $45 reversed $9 $-1 #
coedge $-1 $32 $42 $16 $27 reversed $14 $-1 #
edge $-1 $36 0 $46 0.2828427124746189 $16 $47 forward 7 unknown #
coedge $-1 $48 $17 $49 $50 forward $11 $-1 #
coedge $-1 $17 $51 $52 $53 forward $11 $-1 #
coedge $-1 $54 $55 $17 $31 reversed $56 $-1 #
edge $-1 $57 0 $58 1.0471975510651834 $17 $59 forward 7 unknown #
coedge $-1 $24 $26 $18 $33 forward $14 $-1 #
edge $-1 $36 0 $35 3.1415926535897931 $18 $60 forward 7 unknown #
coedge $-1 $19 $25 $24 $43 reversed $9 $-1 #
vertex $-1 $33 $61 #
vertex $-1 $33 $62 #
ellipse-curve $-1 -5.5511151231257827e-017 0 -5.5511151231257827e-017 7.8048645359130279e-033 -1 -4.6259292692714852e-017 2.0246391368994311e-016 5.5511151231257827e-017 -1.2000000000000002 1 I I #
face $-1 $63 $64 $3 $-1 $65 reversed single #
loop $-1 $-1 $66 $21 #
cone-surface $-1 0 1.0499999999999998 0 0 -1 0 0 0 1 1 I I 0 1 1 forward I I I I #
coedge $-1 $67 $68 $69 $70 reversed $22 $-1 #
coedge $-1 $26 $24 $68 $71 reversed $14 $-1 #
edge $-1 $35 0 $72 0.2828427124746189 $34 $73 forward 7 unknown #
coedge $-1 $66 $69 $25 $45 forward $39 $-1 #
edge $-1 $72 -1.5771889003146633e-015 $46 3.1415926535897931 $44 $74 forward 7 unknown #
vertex $-1 $71 $75 #
straight-curve $-1 0 5.5511151231257827e-017 1.2000000000000002 0 0.70710678118654746 -0.70710678118654768 I I #
coedge $-1 $76 $28 $77 $78 forward $11 $-1 #
coedge $-1 $79 $80 $28 $50 reversed $81 $-1 #
edge $-1 $58 1.3141908423682821e-010 $82 1.047197551336196 $28 $83 forward 7 unknown #
coedge $-1 $29 $76 $84 $85 forward $11 $-1 #
coedge $-1 $86 $87 $29 $53 reversed $88 $-1 #
edge $-1 $89 0 $57 1.0471975513473144 $29 $90 forward 7 unknown #
coedge $-1 $55 $30 $91 $92 forward $56 $-1 #
coedge $-1 $30 $54 $93 $94 forward $56 $-1 #
loop $-1 $-1 $30 $95 #
vertex $-1 $53 $96 #
vertex $-1 $50 $97 #
ellipse-curve $-1 -1.4432899320127035e-014 0 0 0 -1 0 -1.5155444567377447 0 0.87499999980082499 1 I I #
ellipse-curve $-1 1.1102230246251565e-016 0 1.1102230246251565e-016 -4.2798443208605233e-033 -1 4.6259292692714852e-017 -1.1102230246251565e-016 5.5511151231257827e-017 1.2000000000000002 1 I I #
point $-1 -1.4695276245868528e-016 5.5511151231257827e-017 -1.2000000000000002 #
point $-1 0 5.5511151231257827e-017 1.2000000000000002 #
face $-1 $98 $99 $3 $-1 $100 reversed single #
loop $-1 $-1 $101 $38 #
cone-surface $-1 0 0.79999999999999938 0 0 -1 0 0 0 0.99999999999999956 1 I I -0.70710678118654735 0.70710678118654768 0.99999999999999956 forward I I I I #
coedge $-1 $102 $44 $103 $104 reversed $39 $-1 #
coedge $-1 $103 $41 $105 $106 reversed $22 $-1 #
coedge $-1 $41 $103 $42 $71 forward $22 $-1 #
coedge $-1 $44 $102 $41 $70 forward $39 $-1 #
edge $-1 $107 4.4408920985006262e-016 $72 0.59999999999999987 $41 $108 forward 7 unknown #
edge $-1 $46 0 $72 3.1415926535897918 $68 $109 forward 7 unknown #
vertex $-1 $71 $110 #
straight-curve $-1 -1.4695276245868528e-016 5.5511151231257827e-017 -1.2000000000000002 -3.7577571732721985e-015 0.70710678118654746 0.70710678118654768 I I #
ellipse-curve $-1 0 0.19999999999999996 0 0 -1 0 1.2246063538223775e-016 0 -1.0000000000000002 1 I I #
point $-1 0 0.19999999999999996 1.0000000000000002 #
coedge $-1 $51 $48 $111 $112 forward $11 $-1 #
coedge $-1 $113 $114 $48 $78 reversed $115 $-1 #
edge $-1 $82 -1.1118344340521585e-011 $116 1.0471975512158942 $48 $117 forward 7 unknown #
coedge $-1 $80 $49 $118 $119 forward $81 $-1 #
coedge $-1 $49 $79 $120 $121 forward $81 $-1 #
loop $-1 $-1 $49 $122 #
vertex $-1 $78 $123 #
ellipse-curve $-1 -2.4717755620073945e-011 0 -2.4720892000118511e-011 0 -1 0 -1.5155444567130414 0 -0.8749999997761041 1 I I #
coedge $-1 $124 $125 $51 $85 reversed $126 $-1 #
edge $-1 $127 1.3141959176735374e-010 $89 1.0471975513473144 $51 $128 forward 7 unknown #
coedge $-1 $87 $52 $129 $130 forward $88 $-1 #
coedge $-1 $52 $86 $131 $132 forward $88 $-1 #
loop $-1 $-1 $52 $133 #
vertex $-1 $53 $134 #
ellipse-curve $-1 -2.4717616842195866e-011 0 2.4720780977816048e-011 0 -1 0 2.4717616842195866e-011 0 1.7499999999662315 1 I I #
coedge $-1 $131 $135 $54 $92 reversed $136 $-1 #
edge $-1 $57 0 $137 0.99999999999999989 $91 $138 forward 7 unknown #
coedge $-1 $139 $118 $55 $94 reversed $140 $-1 #
edge $-1 $137 0 $58 1 $93 $141 forward 7 unknown #
face $-1 $133 $56 $3 $-1 $142 forward single #
point $-1 -1.5155444567377592 0 0.87499999980082499 #
point $-1 -1.5155444566227683 0 -0.874999999999997 #
face $-1 $143 $144 $3 $-1 $145 forward single #
loop $-1 $-1 $146 $63 #
cone-surface $-1 0 0.79999999999999938 0 0 -1 0 0 0 0.99999999999999956 1 I I -0.70710678118654735 0.70710678118654768 0.99999999999999956 forward I I I I #
coedge $-1 $147 $148 $149 $150 forward $64 $-1 #
coedge $-1 $69 $66 $147 $151 reversed $39 $-1 #
coedge $-1 $68 $67 $66 $104 forward $22 $-1 #
edge $-1 $152 4.4408920985006262e-016 $46 0.59999999999999987 $103 $153 forward 7 unknown #
coedge $-1 $149 $146 $67 $106 forward $99 $-1 #
edge $-1 $152 0 $107 3.1415926535897931 $67 $154 forward 7 unknown #
vertex $-1 $106 $155 #
straight-curve $-1 1.2246063538223773e-016 0.79999999999999982 -1 0 -1 0 I I #
ellipse-curve $-1 0 0.19999999999999996 0 0 -1 0 0 0 1.0000000000000002 1 I I #
point $-1 -1.454728264932426e-015 0.19999999999999996 -1.0000000000000002 #
coedge $-1 $156 $157 $76 $112 reversed $158 $-1 #
edge $-1 $116 -1.3141966426664499e-010 $127 1.0471975510651841 $76 $159 forward 7 unknown #
coedge $-1 $114 $77 $160 $161 forward $115 $-1 #
coedge $-1 $77 $113 $162 $163 forward $115 $-1 #
loop $-1 $-1 $77 $164 #
vertex $-1 $112 $165 #
ellipse-curve $-1 2.4717422553166557e-011 0 -2.4720336888606198e-011 0 -1 0 -2.4717422553166557e-011 0 -1.7499999999662319 1 I I #
coedge $-1 $93 $166 $79 $119 reversed $140 $-1 #
edge $-1 $58 0 $167 0.99999999999999989 $118 $168 forward 7 unknown #
coedge $-1 $169 $160 $80 $121 reversed $170 $-1 #
edge $-1 $167 0 $82 0.99999999999999989 $120 $171 forward 7 unknown #
face $-1 $172 $81 $3 $-1 $173 forward single #
point $-1 -1.9457102595765718e-011 4.3430360502422591e-012 -1.75 #
coedge $-1 $125 $84 $174 $175 forward $126 $-1 #
coedge $-1 $84 $124 $176 $177 forward $126 $-1 #
loop $-1 $-1 $84 $178 #
vertex $-1 $85 $179 #
ellipse-curve $-1 2.4717755620073945e-011 0 2.4720892000118511e-011 0 -1 0 1.5155444567130414 0 0.8749999997761041 1 I I #
coedge $-1 $176 $180 $86 $130 reversed $181 $-1 #
edge $-1 $89 0 $182 0.99999999999999989 $129 $183 forward 7 unknown #
coedge $-1 $184 $91 $87 $132 reversed $136 $-1 #
edge $-1 $182 0 $57 0.99999999999999989 $131 $185 forward 7 unknown #
face $-1 $186 $88 $3 $-1 $187 forward single #
point $-1 0 0 1.7499999999909523 #
coedge $-1 $91 $188 $139 $189 reversed $136 $-1 #
loop $-1 $-1 $184 $190 #
vertex $-1 $94 $191 #
intcurve-curve $-1 forward { surfintcur full nurbs 3 open 6 
	0 3 0.19958180934129652 1 0.39912483533096788 1 0.59876378930740992 1 0.79895903518258649 1 
	0.99999999999999989 3 
	-1.515544456622766 0 0.87499999999999778 1 
	-1.5490400806049283 3.3896121732920892e-005 0.81698387743167011 1 
	-1.6159336860701048 0.0027914352269064881 0.7011207540645169 1.0000000000000002 
	-1.7160341527086833 0.01523015945528962 0.52774165998514599 0.99999999999999978 
	-1.815922112572552 0.035295212861226138 0.35473063843652447 1.0000000000000002 
	-1.9171850761574023 0.06283607104336085 0.17933804058256689 0.99999999999999978 
	-1.985989558177881 0.085828888768375411 0.060165181934637997 1 
	-2.0207259421636872 0.098536184591255835 0 1 
	0.001 
	cone 0 0.36305209003414629 0 0 -1 0 0 0 2.7474774194546234 1 I I -0.93969262078590843 0.3420201433256686 2.7474774194546234 forward I I I I 
	plane -2.0207259421636872 0 0 -0.86602540378443871 0 0.49999999999999989 0.5 0 0.86602540378443893 forward_v I I I I 
	nullbs 
	nullbs 
	I I 
	0 
	0 
	0 
	} I I #
coedge $-1 $192 $93 $135 $189 forward $140 $-1 #
loop $-1 $-1 $139 $193 #
intcurve-curve $-1 forward { surfintcur full nurbs 3 open 6 
	0 3 0.20104096481741246 1 0.40123621069258836 1 0.60087516466903068 1 0.80041819065870312 1 
	1 3 
	-2.0207259421636889 0.098536184591255835 0 1 
	-1.9859895581778837 0.085828888768375883 -0.060165181934635742 1.0000000000000002 
	-1.9171850761574072 0.06283607104336196 -0.17933804058256103 1.0000000000000002 
	-1.81592211257256 0.035295212861227804 -0.35473063843651398 0.99999999999999978 
	-1.7160341527086891 0.015230159455290196 -0.52774165998513778 1.0000000000000002 
	-1.6159336860701081 0.0027914352269065496 -0.70112075406451468 0.99999999999999978 
	-1.5490400806049307 3.3896121732890968e-005 -0.81698387743166911 1 
	-1.5155444566227683 0 -0.874999999999997 1 
	0.001 
	cone 0 0.36305209003414629 0 0 -1 0 0 0 2.7474774194546234 1 I I -0.93969262078590843 0.3420201433256686 2.7474774194546234 forward I I I I 
	plane -1.010362971081844 0 -1.75 -0.86602540378443871 0 -0.49999999999999989 -0.5 0 0.86602540378443893 forward_v I I I I 
	nullbs 
	nullbs 
	I I 
	0 
	0 
	0 
	} I I #
cone-surface $-1 0 0.36305209003414629 0 0 -1 0 0 0 2.7474774194546234 1 I I -0.93969262078590843 0.3420201433256686 2.7474774194546234 forward I I I I #
face $-1 $194 $195 $3 $-1 $196 forward single #
loop $-1 $197 $198 $98 #
plane-surface $-1 0 1 0 0 1 0 1 0 0 forward_v I I I I #
coedge $-1 $105 $199 $200 $201 forward $99 $-1 #
coedge $-1 $200 $101 $102 $151 forward $64 $-1 #
coedge $-1 $101 $200 $198 $202 reversed $64 $-1 #
coedge $-1 $199 $105 $101 $150 reversed $99 $-1 #
edge $-1 $203 2.7995095019220001e-031 $107 0.28284271247461901 $149 $204 forward 7 unknown #
edge $-1 $107 0 $152 3.1415926535897931 $102 $205 forward 7 unknown #
vertex $-1 $104 $206 #
straight-curve $-1 0 0.79999999999999982 1 0 -1 0 I I #
ellipse-curve $-1 0 0.79999999999999938 0 0 -1 0 0 0 0.99999999999999956 1 I I #
point $-1 1.2246063538223768e-016 0.79999999999999938 -0.99999999999999956 #
coedge $-1 $157 $111 $207 $208 forward $158 $-1 #
coedge $-1 $111 $156 $209 $210 forward $158 $-1 #
loop $-1 $-1 $111 $211 #
ellipse-curve $-1 1.4432899320127035e-014 0 0 0 -1 0 1.5155444567377447 0 -0.87499999980082499 1 I I #
coedge $-1 $120 $212 $113 $161 reversed $170 $-1 #
edge $-1 $82 0 $213 0.99999999999999989 $160 $214 forward 7 unknown #
coedge $-1 $215 $207 $114 $163 reversed $216 $-1 #
edge $-1 $213 0 $116 0.99999999999999989 $162 $217 forward 7 unknown #
face $-1 $218 $115 $3 $-1 $219 forward single #
point $-1 1.5155444566227665 0 -0.87499999999999711 #
coedge $-1 $118 $220 $169 $221 reversed $140 $-1 #
vertex $-1 $119 $222 #
intcurve-curve $-1 forward { surfintcur full nurbs 3 open 6 
	0 3 0.1995818093412968 1 0.39912483533096854 1 0.59876378930741103 1 0.79895903518258782 1 
	0.99999999999999989 3 
	-1.5155444566227683 0 -0.874999999999997 1 
	-1.4820488326406054 3.3896121732917863e-005 -0.93301612256832556 0.99999999999999978 
	-1.415155227175428 0.0027914352269065761 -1.0488792459354805 1.0000000000000002 
	-1.3150547605368479 0.015230159455289879 -1.2222583400148541 0.99999999999999978 
	-1.2151668006729768 0.035295212861227367 -1.3952693615634797 1.0000000000000002 
	-1.1139038370881253 0.062836071043362682 -1.5706619594174396 0.99999999999999978 
	-1.0450993550676486 0.085828888768376785 -1.6898348180653648 0.99999999999999989 
	-1.010362971081844 0.098536184591256723 -1.75 1 
	0.001 
	cone 0 0.36305209003414629 0 0 -1 0 0 0 2.7474774194546234 1 I I -0.93969262078590843 0.3420201433256686 2.7474774194546234 forward I I I I 
	plane -1.010362971081844 0 -1.75 -0.86602540378443871 0 -0.49999999999999989 -0.5 0 0.86602540378443893 forward_v I I I I 
	nullbs 
	nullbs 
	I I 
	0 
	0 
	0 
	} I I #
coedge $-1 $223 $120 $166 $221 forward $170 $-1 #
loop $-1 $-1 $169 $224 #
intcurve-curve $-1 forward { surfintcur full nurbs 3 open 6 
	0 3 0.20090347378239151 1 0.40108267229574568 1 0.60076092629103561 1 0.80046956890131238 1 
	0.99999999999999989 3 
	-1.010362971081844 0.098536184591256723 -1.75 1 
	-0.94126776209147711 0.085892173552956891 -1.7499999999999998 0.99999999999999989 
	-0.80420480273832839 0.062981912434398435 -1.7499999999999998 1.0000000000000002 
	-0.60164223478506773 0.035402704984982956 -1.75 1 
	-0.40187587041353023 0.015289625870566072 -1.7500000000000004 0.99999999999999978 
	-0.20023205579586928 0.0027637226262064709 -1.7499999999999998 1 
	-0.066703143140689758 1.8814392698106048e-005 -1.7500000000000004 1 
	-1.9457102595765718e-011 4.3430360502422591e-012 -1.75 1 
	0.001 
	cone 0 0.36305209003414629 0 0 -1 0 0 0 2.7474774194546234 1 I I -0.93969262078590843 0.3420201433256686 2.7474774194546234 forward I I I I 
	plane 1.010362971081844 0 -1.75 0 0 -1 -1 0 0 forward_v I I I I 
	nullbs 
	nullbs 
	I I 
	0 
	0 
	0 
	} I I #
face $-1 $164 $225 $3 $-1 $226 forward single #
cone-surface $-1 0 0.36305209003414629 0 0 -1 0 0 0 2.7474774194546234 1 I I -0.93969262078590843 0.3420201433256686 2.7474774194546234 forward I I I I #
coedge $-1 $209 $227 $124 $175 reversed $228 $-1 #
edge $-1 $127 0 $229 0.99999999999999989 $174 $230 forward 7 unknown #
coedge $-1 $231 $129 $125 $177 reversed $181 $-1 #
edge $-1 $229 0 $89 0.99999999999999989 $176 $232 forward 7 unknown #
face $-1 $233 $126 $3 $-1 $234 forward single #
point $-1 1.5155444566227678 0 0.87499999999999778 #
coedge $-1 $129 $235 $184 $236 reversed $181 $-1 #
loop $-1 $-1 $176 $194 #
vertex $-1 $132 $237 #
intcurve-curve $-1 forward { surfintcur full nurbs 3 open 6 
	0 3 0.19966734394272986 1 0.39947547310984177 1 0.59918611684815126 1 0.79929885908136933 1 
	0.99999999999999989 3 
	1.9457324640370643e-011 4.3430383610915565e-012 1.75 1 
	-0.067013669376660701 2.1862219677231801e-005 1.75 0.99999999999999989 
	-0.20107857931542694 0.0027872989934030735 1.7500000000000002 0.99999999999999978 
	-0.40335070711512105 0.015405449857414702 1.7499999999999996 1.0000000000000002 
	-0.6033170974586094 0.03560206914081715 1.7500000000000002 1 
	-0.80549906160459217 0.06319072815944346 1.75 1 
	-0.94178706705154491 0.085981067105555267 1.75 1 
	-1.010362971081844 0.098536184591256723 1.75 1 
	0.001 
	cone 0 0.36305209003414629 0 0 -1 0 0 0 2.7474774194546234 1 I I -0.93969262078590843 0.3420201433256686 2.7474774194546234 forward I I I I 
	plane -1.010362971081844 0 1.75 0 0 1 1 0 0 forward_v I I I I 
	nullbs 
	nullbs 
	I I 
	0 
	0 
	0 
	} I I #
coedge $-1 $238 $131 $180 $236 forward $136 $-1 #
intcurve-curve $-1 forward { surfintcur full nurbs 3 open 6 
	0 3 0.2010409648174131 1 0.40123621069258986 1 0.60087516466903157 1 0.80041819065870257 1 
	0.99999999999999989 3 
	-1.0103629710818425 0.098536184591256723 1.75 1 
	-1.045099355067648 0.085828888768376438 1.6898348180653628 1 
	-1.1139038370881262 0.062836071043361946 1.5706619594174351 1 
	-1.2151668006729786 0.035295212861226562 1.3952693615634746 0.99999999999999989 
	-1.3150547605368461 0.015230159455290052 1.2222583400148541 1.0000000000000002 
	-1.4151552271754233 0.0027914352269068281 1.048879245935485 0.99999999999999989 
	-1.4820488326406021 3.3896121733047527e-005 0.93301612256832822 1 
	-1.515544456622766 0 0.87499999999999778 1 
	0.001 
	cone 0 0.36305209003414629 0 0 -1 0 0 0 2.7474774194546234 1 I I -0.93969262078590843 0.3420201433256686 2.7474774194546234 forward I I I I 
	plane -2.0207259421636872 0 0 -0.86602540378443871 0 0.49999999999999989 0.5 0 0.86602540378443893 forward_v I I I I 
	nullbs 
	nullbs 
	I I 
	0 
	0 
	0 
	} I I #
face $-1 $122 $239 $3 $-1 $240 forward single #
cone-surface $-1 0 0.36305209003414629 0 0 -1 0 0 0 2.7474774194546234 1 I I -0.93969262078590843 0.3420201433256686 2.7474774194546234 forward I I I I #
coedge $-1 $135 $238 $241 $242 forward $136 $-1 #
edge $-1 $137 0 $243 0.80292763081748841 $139 $244 forward 7 unknown #
face $-1 $245 $136 $3 $-1 $246 forward single #
point $-1 -2.0207259421636889 0.098536184591255835 0 #
coedge $-1 $220 $139 $247 $248 forward $140 $-1 #
face $-1 $190 $140 $3 $-1 $249 forward single #
face $-1 $178 $181 $3 $-1 $250 forward single #
loop $-1 $-1 $251 $143 #
cone-surface $-1 0 0.63694790996585371 0 0 1 0 0 0 2.7474774194546234 1 I I -0.93969262078590843 0.3420201433256686 2.7474774194546234 forward I I I I #
loop $-1 $-1 $252 $98 #
coedge $-1 $253 $253 $148 $202 forward $144 $-1 #
coedge $-1 $146 $149 $253 $254 reversed $99 $-1 #
coedge $-1 $148 $147 $146 $201 reversed $64 $-1 #
edge $-1 $255 0 $152 0.28284271247461901 $146 $256 forward 7 unknown #
edge $-1 $203 -2.449212707644755e-016 $255 3.1415926535897931 $198 $257 forward 7 unknown #
vertex $-1 $254 $258 #
straight-curve $-1 1.4695276245868521e-016 0.99999999999999933 -1.1999999999999995 -9.5252020277912868e-016 -0.70710678118654746 0.70710678118654746 I I #
ellipse-curve $-1 0 0.79999999999999938 0 0 -1 0 1.2246063538223768e-016 0 -0.99999999999999956 1 I I #
point $-1 0 0.79999999999999938 0.99999999999999956 #
coedge $-1 $162 $259 $156 $208 reversed $216 $-1 #
edge $-1 $116 0 $260 0.99999999999999989 $207 $261 forward 7 unknown #
coedge $-1 $262 $174 $157 $210 reversed $228 $-1 #
edge $-1 $260 0 $127 0.99999999999999989 $209 $263 forward 7 unknown #
face $-1 $-1 $158 $3 $-1 $264 forward single #
coedge $-1 $160 $265 $215 $266 reversed $170 $-1 #
vertex $-1 $163 $267 #
intcurve-curve $-1 forward { surfintcur full nurbs 3 open 6 
	0 3 0.19966734394273181 1 0.39947547310984399 1 0.59918611684815259 1 0.79929885908136944 1 
	0.99999999999999989 3 
	-1.9457102595765718e-011 4.3430360502422591e-012 -1.75 1 
	0.067013669376666085 2.1862219677294247e-005 -1.75 1 
	0.20107857931543943 0.0027872989934033233 -1.7500000000000002 0.99999999999999967 
	0.4033507071151351 0.015405449857415909 -1.75 1.0000000000000004 
	0.6033170974586175 0.035602069140818107 -1.75 0.99999999999999967 
	0.80549906160459195 0.063190728159443432 -1.7500000000000002 1.0000000000000002 
	0.94178706705154414 0.085981067105555142 -1.7499999999999998 1 
	1.010362971081844 0.098536184591256612 -1.75 1 
	0.001 
	cone 0 0.36305209003414629 0 0 -1 0 0 0 2.7474774194546234 1 I I -0.93969262078590843 0.3420201433256686 2.7474774194546234 forward I I I I 
	plane 1.010362971081844 0 -1.75 0 0 -1 -1 0 0 forward_v I I I I 
	nullbs 
	nullbs 
	I I 
	0 
	0 
	0 
	} I I #
coedge $-1 $268 $162 $212 $266 forward $216 $-1 #
loop $-1 $-1 $215 $269 #
intcurve-curve $-1 forward { surfintcur full nurbs 3 open 6 
	0 3 0.20104096481741326 1 0.40123621069259019 1 0.6008751646690319 1 0.80041819065870312 1 
	0.99999999999999989 3 
	1.0103629710818425 0.098536184591256723 -1.75 1 
	1.0450993550676482 0.085828888768376424 -1.6898348180653626 1 
	1.1139038370881265 0.062836071043361905 -1.5706619594174338 1.0000000000000002 
	1.215166800672979 0.035295212861226402 -1.395269361563473 0.99999999999999978 
	1.3150547605368474 0.015230159455289882 -1.2222583400148528 1 
	1.4151552271754249 0.0027914352269065149 -1.048879245935481 1 
	1.4820488326406034 3.3896121732921326e-005 -0.93301612256832633 1 
	1.5155444566227665 0 -0.87499999999999711 1 
	0.001 
	cone 0 0.36305209003414629 0 0 -1 0 0 0 2.7474774194546234 1 I I -0.93969262078590843 0.3420201433256686 2.7474774194546234 forward I I I I 
	plane 2.0207259421636872 0 0 0.86602540378443871 0 -0.49999999999999989 -0.5 0 -0.86602540378443893 forward_v I I I I 
	nullbs 
	nullbs 
	I I 
	0 
	0 
	0 
	} I I #
face $-1 $211 $270 $3 $-1 $271 forward single #
cone-surface $-1 0 0.36305209003414629 0 0 -1 0 0 0 2.7474774194546234 1 I I -0.93969262078590843 0.3420201433256686 2.7474774194546234 forward I I I I #
coedge $-1 $166 $192 $272 $273 forward $140 $-1 #
edge $-1 $167 0 $274 0.80292763081748664 $166 $275 forward 7 unknown #
point $-1 -1.010362971081844 0.098536184591256723 -1.75 #
coedge $-1 $265 $169 $276 $277 forward $170 $-1 #
face $-1 $193 $170 $3 $-1 $278 forward single #
loop $-1 $-1 $279 $172 #
cone-surface $-1 0 0.63694790996585371 0 0 1 0 0 0 2.7474774194546234 1 I I -0.93969262078590843 0.3420201433256686 2.7474774194546234 forward I I I I #
coedge $-1 $174 $280 $231 $281 reversed $228 $-1 #
loop $-1 $-1 $262 $233 #
vertex $-1 $281 $282 #
intcurve-curve $-1 forward { surfintcur full nurbs 3 open 6 
	0 3 0.19958180934129657 1 0.39912483533096754 1 0.59876378930740959 1 0.79895903518258715 1 
	0.99999999999999989 3 
	1.5155444566227678 0 0.87499999999999778 1 
	1.4820488326406052 3.3896121732929139e-005 0.93301612256832644 0.99999999999999978 
	1.4151552271754273 0.0027914352269064963 1.0488792459354803 1 
	1.3150547605368506 0.015230159455289709 1.2222583400148492 1 
	1.2151668006729817 0.035295212861226 1.3952693615634717 0.99999999999999978 
	1.1139038370881265 0.062836071043362515 1.5706619594174378 1 
	1.0450993550676488 0.085828888768376729 1.6898348180653642 1 
	1.010362971081844 0.098536184591256751 1.75 1 
	0.001 
	cone 0 0.36305209003414629 0 0 -1 0 0 0 2.7474774194546234 1 I I -0.93969262078590843 0.3420201433256686 2.7474774194546234 forward I I I I 
	plane 1.010362971081844 0 1.75 0.86602540378443871 0 0.49999999999999989 0.5 0 -0.86602540378443893 forward_v I I I I 
	nullbs 
	nullbs 
	I I 
	0 
	0 
	0 
	} I I #
coedge $-1 $283 $176 $227 $281 forward $181 $-1 #
intcurve-curve $-1 forward { surfintcur full nurbs 3 open 6 
	0 3 0.20090347378239062 1 0.40108267229574468 1 0.60076092629103517 1 0.80046956890131249 1 
	0.99999999999999989 3 
	1.010362971081844 0.098536184591256723 1.75 1 
	0.941267762091479 0.085892173552957168 1.75 1 
	0.80420480273833395 0.062981912434399101 1.7499999999999998 1 
	0.6016422347850745 0.035402704984983865 1.7500000000000007 0.99999999999999989 
	0.40187587041353229 0.015289625870566073 1.7499999999999996 1.0000000000000002 
	0.20023205579586856 0.0027637226262064831 1.7500000000000002 0.99999999999999978 
	0.066703143140689286 1.8814392698085231e-005 1.7500000000000002 1 
	1.9457324640370643e-011 4.3430383610915565e-012 1.75 1 
	0.001 
	cone 0 0.36305209003414629 0 0 -1 0 0 0 2.7474774194546234 1 I I -0.93969262078590843 0.3420201433256686 2.7474774194546234 forward I I I I 
	plane -1.010362971081844 0 1.75 0 0 1 1 0 0 forward_v I I I I 
	nullbs 
	nullbs 
	I I 
	0 
	0 
	0 
	} I I #
face $-1 $269 $228 $3 $-1 $284 forward single #
cone-surface $-1 0 0.36305209003414629 0 0 -1 0 0 0 2.7474774194546234 1 I I -0.93969262078590843 0.3420201433256686 2.7474774194546234 forward I I I I #
coedge $-1 $180 $283 $285 $286 forward $181 $-1 #
edge $-1 $182 0 $287 0.80292763081748664 $184 $288 forward 7 unknown #
point $-1 -1.0103629710818425 0.098536184591256723 1.75 #
coedge $-1 $188 $184 $289 $290 forward $136 $-1 #
loop $-1 $-1 $291 $186 #
cone-surface $-1 0 0.63694790996585371 0 0 1 0 0 0 2.7474774194546234 1 I I -0.93969262078590843 0.3420201433256686 2.7474774194546234 forward I I I I #
coedge $-1 $292 $247 $188 $242 reversed $293 $-1 #
edge $-1 $294 0 $243 0.99999999999999989 $188 $295 forward 7 unknown #
vertex $-1 $248 $296 #
straight-curve $-1 -2.0207259421636885 0.098536184591255835 -4.4408920985006262e-016 0 1 0 I I #
face $-1 $297 $298 $3 $-1 $299 forward single #
plane-surface $-1 -2.0207259421636872 0 0 -0.86602540378443871 0 0.49999999999999989 0.5 0 0.86602540378443893 forward_v I I I I #
coedge $-1 $241 $292 $192 $248 reversed $293 $-1 #
edge $-1 $243 0 $300 0.99999999999999989 $192 $301 forward 7 unknown #
plane-surface $-1 -1.010362971081844 0 -1.75 -0.86602540378443871 0 -0.49999999999999989 -0.5 0 0.86602540378443893 forward_v I I I I #
plane-surface $-1 -1.010362971081844 0 1.75 0 0 1 1 0 0 forward_v I I I I #
coedge $-1 $302 $303 $252 $304 forward $195 $-1 #
coedge $-1 $305 $306 $251 $304 reversed $197 $-1 #
coedge $-1 $198 $198 $199 $254 forward $144 $-1 #
edge $-1 $255 0 $203 3.1415926535897931 $253 $307 forward 7 unknown #
vertex $-1 $254 $308 #
straight-curve $-1 0 0.99999999999999933 1.1999999999999995 0 -0.70710678118654746 -0.70710678118654746 I I #
ellipse-curve $-1 0 1 -1.1102230246251565e-016 -6.7979308505793259e-032 -1 5.5511151231257857e-016 1.4695276245868521e-016 -6.6613381477509392e-016 -1.1999999999999993 1 I I #
point $-1 -1.4695276245868521e-016 0.99999999999999933 -1.1999999999999995 #
coedge $-1 $207 $309 $262 $310 reversed $216 $-1 #
vertex $-1 $210 $311 #
intcurve-curve $-1 forward { surfintcur full nurbs 3 open 6 
	0 3 0.19958180934129541 1 0.39912483533096665 1 0.59876378930741014 1 0.79895903518258737 1 
	0.99999999999999989 3 
	1.5155444566227665 0 -0.87499999999999711 1 
	1.5490400806049274 3.3896121732830253e-005 -0.81698387743167233 1 
	1.6159336860701015 0.0027914352269062782 -0.70112075406452246 1.0000000000000002 
	1.7160341527086789 0.01523015945528872 -0.52774165998515388 1 
	1.8159221125725538 0.03529521286122643 -0.35473063843652197 0.99999999999999978 
	1.917185076157405 0.062836071043361738 -0.17933804058256214 1.0000000000000002 
	1.9859895581778824 0.085828888768375841 -0.060165181934635617 0.99999999999999989 
	2.0207259421636872 0.098536184591255779 0 1 
	0.001 
	cone 0 0.36305209003414629 0 0 -1 0 0 0 2.7474774194546234 1 I I -0.93969262078590843 0.3420201433256686 2.7474774194546234 forward I I I I 
	plane 2.0207259421636872 0 0 0.86602540378443871 0 -0.49999999999999989 -0.5 0 -0.86602540378443893 forward_v I I I I 
	nullbs 
	nullbs 
	I I 
	0 
	0 
	0 
	} I I #
coedge $-1 $312 $209 $259 $310 forward $228 $-1 #
intcurve-curve $-1 forward { surfintcur full nurbs 3 open 6 
	0 3 0.20104096481741238 1 0.40123621069258897 1 0.6008751646690319 1 0.80041819065870357 1 
	0.99999999999999989 3 
	2.0207259421636889 0.098536184591255835 0 1 
	1.9859895581778844 0.085828888768376008 0.060165181934635305 1 
	1.9171850761574074 0.062836071043362141 0.17933804058256064 1 
	1.8159221125725573 0.035295212861227054 0.35473063843651725 1 
	1.716034152708686 0.015230159455289733 0.52774165998514477 1.0000000000000002 
	1.6159336860701068 0.0027914352269065284 0.7011207540645169 1 
	1.5490400806049298 3.3896121732910484e-005 0.81698387743167045 1 
	1.5155444566227678 0 0.87499999999999778 1 
	0.001 
	cone 0 0.36305209003414629 0 0 -1 0 0 0 2.7474774194546234 1 I I -0.93969262078590843 0.3420201433256686 2.7474774194546234 forward I I I I 
	plane 1.010362971081844 0 1.75 0.86602540378443871 0 0.49999999999999989 0.5 0 -0.86602540378443893 forward_v I I I I 
	nullbs 
	nullbs 
	I I 
	0 
	0 
	0 
	} I I #
cone-surface $-1 0 0.36305209003414629 0 0 -1 0 0 0 2.7474774194546234 1 I I -0.93969262078590843 0.3420201433256686 2.7474774194546234 forward I I I I #
coedge $-1 $212 $223 $313 $314 forward $170 $-1 #
edge $-1 $213 1.1102230246251565e-016 $315 0.80292763081748686 $215 $316 forward 7 unknown #
point $-1 1.0103629710818425 0.098536184591256723 -1.75 #
coedge $-1 $309 $215 $317 $318 forward $216 $-1 #
face $-1 $224 $216 $3 $-1 $319 forward single #
loop $-1 $-1 $320 $218 #
cone-surface $-1 0 0.63694790996585371 0 0 1 0 0 0 2.7474774194546234 1 I I -0.93969262078590843 0.3420201433256686 2.7474774194546234 forward I I I I #
coedge $-1 $291 $276 $220 $273 reversed $239 $-1 #
edge $-1 $300 0 $274 1 $220 $321 forward 7 unknown #
vertex $-1 $221 $322 #
straight-curve $-1 -1.010362971081844 0.098536184591256723 -1.75 0 1 0 I I #
coedge $-1 $272 $291 $223 $277 reversed $239 $-1 #
edge $-1 $274 0 $323 0.99999999999999989 $223 $324 forward 7 unknown #
plane-surface $-1 1.010362971081844 0 -1.75 0 0 -1 -1 0 0 forward_v I I I I #
coedge $-1 $317 $313 $325 $326 forward $225 $-1 #
coedge $-1 $227 $312 $303 $327 forward $228 $-1 #
edge $-1 $229 -2.7755575615628914e-017 $328 0.80292763081748642 $231 $329 forward 7 unknown #
point $-1 1.010362971081844 0.098536184591256723 1.75 #
coedge $-1 $235 $231 $302 $330 forward $181 $-1 #
plane-surface $-1 1.010362971081844 0 1.75 0.86602540378443871 0 0.49999999999999989 0.5 0 -0.86602540378443893 forward_v I I I I #
coedge $-1 $331 $289 $235 $286 reversed $298 $-1 #
edge $-1 $332 0 $287 0.99999999999999989 $235 $333 forward 7 unknown #
vertex $-1 $290 $334 #
straight-curve $-1 -1.0103629710818427 0.098536184591256723 1.7499999999999996 0 1 0 I I #
coedge $-1 $285 $331 $238 $290 reversed $298 $-1 #
edge $-1 $287 0 $294 0.99999999999999989 $238 $335 forward 7 unknown #
coedge $-1 $276 $272 $336 $337 forward $239 $-1 #
coedge $-1 $247 $241 $338 $339 forward $293 $-1 #
loop $-1 $-1 $292 $297 #
vertex $-1 $340 $341 #
intcurve-curve $-1 forward { surfintcur full nurbs 3 open 6 
	0 3 0.19958180934129671 1 0.39912483533096799 1 0.59876378930740992 1 0.79895903518258637 1 
	0.99999999999999989 3 
	-1.5155444566227656 1 0.87499999999999845 1 
	-1.5490400806049285 0.99996610387826712 0.81698387743167034 0.99999999999999989 
	-1.6159336860701055 0.9972085647730935 0.70112075406451613 1 
	-1.7160341527086838 0.98476984054471028 0.52774165998514599 0.99999999999999978 
	-1.8159221125725524 0.96470478713877394 0.35473063843652408 1 
	-1.9171850761574019 0.93716392895663903 0.17933804058256694 1 
	-1.985989558177881 0.91417111123162453 0.060165181934638053 1 
	-2.0207259421636872 0.90146381540874421 0 1 
	0.001 
	plane -2.0207259421636872 0 0 -0.86602540378443871 0 0.49999999999999989 0.5 0 0.86602540378443893 forward_v I I I I 
	cone 0 0.63694790996585371 0 0 1 0 0 0 2.7474774194546234 1 I I -0.93969262078590843 0.3420201433256686 2.7474774194546234 forward I I I I 
	nullbs 
	nullbs 
	I I 
	0 
	0 
	0 
	} I I #
point $-1 -2.0207259421636872 0.90146381540874421 0 #
face $-1 $95 $293 $3 $-1 $342 forward single #
loop $-1 $-1 $331 $245 #
cone-surface $-1 0 0.63694790996585371 0 0 1 0 0 0 2.7474774194546234 1 I I -0.93969262078590843 0.3420201433256686 2.7474774194546234 forward I I I I #
vertex $-1 $339 $343 #
intcurve-curve $-1 forward { surfintcur full nurbs 3 open 6 
	0 3 0.20104096481741238 1 0.4012362106925883 1 0.60087516466903068 1 0.80041819065870312 1 
	0.99999999999999989 3 
	-2.0207259421636889 0.90146381540874421 0 1 
	-1.9859895581778844 0.9141711112316242 -0.060165181934635728 1 
	-1.9171850761574076 0.93716392895663814 -0.17933804058256095 1 
	-1.8159221125725595 0.9647047871387725 -0.35473063843651448 0.99999999999999967 
	-1.71603415270869 0.98476984054470973 -0.527741659985137 1.0000000000000002 
	-1.6159336860701083 0.9972085647730935 -0.70112075406451502 1 
	-1.5490400806049305 0.99996610387826701 -0.81698387743166923 1 
	-1.515544456622768 1 -0.87499999999999711 1 
	0.001 
	plane -1.010362971081844 0 -1.75 -0.86602540378443871 0 -0.49999999999999989 -0.5 0 0.86602540378443893 forward_v I I I I 
	cone 0 0.63694790996585371 0 0 1 0 0 0 2.7474774194546234 1 I I -0.93969262078590843 0.3420201433256686 2.7474774194546234 forward I I I I 
	nullbs 
	nullbs 
	I I 
	0 
	0 
	0 
	} I I #
coedge $-1 $303 $251 $283 $330 reversed $195 $-1 #
coedge $-1 $251 $302 $280 $327 reversed $195 $-1 #
edge $-1 $344 1.3141973677607535e-010 $332 1.0471975513473144 $252 $345 forward 7 unknown #
coedge $-1 $325 $252 $320 $346 reversed $197 $-1 #
coedge $-1 $252 $338 $331 $340 reversed $197 $-1 #
ellipse-curve $-1 5.5511151231257827e-017 1 1.1102230246251565e-016 2.5679065925163174e-032 -1 -5.5511151231257857e-016 -5.5511151231257827e-017 -6.6613381477509392e-016 1.1999999999999993 1 I I #
point $-1 0 0.99999999999999933 1.1999999999999995 #
coedge $-1 $259 $268 $347 $348 forward $216 $-1 #
edge $-1 $260 5.5511151231257827e-017 $349 0.80292763081748841 $262 $350 forward 7 unknown #
point $-1 2.0207259421636889 0.098536184591255835 0 #
coedge $-1 $280 $262 $351 $352 forward $228 $-1 #
coedge $-1 $279 $317 $265 $314 reversed $225 $-1 #
edge $-1 $323 0 $315 0.99999999999999989 $265 $353 forward 7 unknown #
vertex $-1 $318 $354 #
straight-curve $-1 1.0103629710818427 0.098536184591256612 -1.7499999999999996 0 1 0 I I #
coedge $-1 $313 $279 $268 $318 reversed $225 $-1 #
edge $-1 $315 0 $355 0.99999999999999989 $268 $356 forward 7 unknown #
plane-surface $-1 2.0207259421636872 0 0 0.86602540378443871 0 -0.49999999999999989 -0.5 0 -0.86602540378443893 forward_v I I I I #
coedge $-1 $351 $347 $305 $346 forward $270 $-1 #
intcurve-curve $-1 forward { surfintcur full nurbs 3 open 6 
	0 3 0.19958180934129677 1 0.39912483533096849 1 0.59876378930741092 1 0.79895903518258771 1 
	1 3 
	-1.515544456622768 1 -0.87499999999999711 1 
	-1.4820488326406054 0.99996610387826723 -0.93301612256832556 0.99999999999999989 
	-1.4151552271754277 0.9972085647730935 -1.0488792459354805 1 
	-1.3150547605368479 0.98476984054471017 -1.2222583400148543 1 
	-1.2151668006729772 0.9647047871387725 -1.3952693615634797 0.99999999999999989 
	-1.1139038370881253 0.93716392895663725 -1.5706619594174394 1 
	-1.0450993550676486 0.91417111123162342 -1.6898348180653648 0.99999999999999989 
	-1.010362971081844 0.90146381540874332 -1.75 1 
	0.001 
	plane -1.010362971081844 0 -1.75 -0.86602540378443871 0 -0.49999999999999989 -0.5 0 0.86602540378443893 forward_v I I I I 
	cone 0 0.63694790996585371 0 0 1 0 0 0 2.7474774194546234 1 I I -0.93969262078590843 0.3420201433256686 2.7474774194546234 forward I I I I 
	nullbs 
	nullbs 
	I I 
	0 
	0 
	0 
	} I I #
point $-1 -1.010362971081844 0.90146381540874332 -1.75 #
vertex $-1 $337 $357 #
intcurve-curve $-1 forward { surfintcur full nurbs 3 open 6 
	0 3 0.20090347378239151 1 0.40108267229574568 1 0.6007609262910355 1 0.80046956890131238 1 
	0.99999999999999989 3 
	-1.010362971081844 0.90146381540874332 -1.75 1 
	-0.94126776209147711 0.91410782644704314 -1.7499999999999998 0.99999999999999989 
	-0.80420480273832839 0.93701808756560145 -1.7499999999999998 1.0000000000000002 
	-0.60164223478506784 0.96459729501501712 -1.75 0.99999999999999989 
	-0.40187587041353062 0.98471037412943374 -1.7499999999999998 1.0000000000000002 
	-0.2002320557958692 0.99723627737379372 -1.7500000000000007 0.99999999999999978 
	-0.066703143140689702 0.99998118560730187 -1.7499999999999998 1 
	-1.9457102595765718e-011 0.99999999999565703 -1.75 1 
	0.001 
	plane 1.010362971081844 0 -1.75 0 0 -1 -1 0 0 forward_v I I I I 
	cone 0 0.63694790996585371 0 0 1 0 0 0 2.7474774194546234 1 I I -0.93969262078590843 0.3420201433256686 2.7474774194546234 forward I I I I 
	nullbs 
	nullbs 
	I I 
	0 
	0 
	0 
	} I I #
coedge $-1 $336 $305 $279 $326 reversed $197 $-1 #
edge $-1 $323 -1.1118344340521585e-011 $355 1.0471975512158942 $325 $358 forward 7 unknown #
edge $-1 $344 0 $328 0.99999999999999989 $280 $359 forward 7 unknown #
vertex $-1 $330 $360 #
straight-curve $-1 1.010362971081844 0.098536184591256751 1.75 0 1 0 I I #
edge $-1 $328 0 $332 0.99999999999999989 $283 $361 forward 7 unknown #
coedge $-1 $289 $285 $306 $340 forward $298 $-1 #
vertex $-1 $340 $362 #
intcurve-curve $-1 forward { surfintcur full nurbs 3 open 6 
	0 3 0.19966734394272997 1 0.39947547310984188 1 0.59918611684815148 1 0.79929885908136933 1 
	0.99999999999999989 3 
	1.9457324640370643e-011 0.99999999999565703 1.75 1 
	-0.067013669376660784 0.99997813778032285 1.7500000000000004 0.99999999999999978 
	-0.20107857931542703 0.99721270100659687 1.7499999999999998 1.0000000000000002 
	-0.40335070711512117 0.98459455014258535 1.75 0.99999999999999978 
	-0.6033170974586094 0.96439793085918291 1.7499999999999998 1.0000000000000002 
	-0.80549906160459239 0.93680927184055662 1.7500000000000002 0.99999999999999978 
	-0.94178706705154491 0.91401893289444491 1.7500000000000002 0.99999999999999989 
	-1.010362971081844 0.90146381540874332 1.75 1 
	0.001 
	plane -1.010362971081844 0 1.75 0 0 1 1 0 0 forward_v I I I I 
	cone 0 0.63694790996585371 0 0 1 0 0 0 2.7474774194546234 1 I I -0.93969262078590843 0.3420201433256686 2.7474774194546234 forward I I I I 
	nullbs 
	nullbs 
	I I 
	0 
	0 
	0 
	} I I #
point $-1 -1.010362971081844 0.90146381540874332 1.75 #
intcurve-curve $-1 forward { surfintcur full nurbs 3 open 6 
	0 3 0.20104096481741307 1 0.40123621069258986 1 0.60087516466903157 1 0.80041819065870268 1 
	0.99999999999999989 3 
	-1.0103629710818425 0.90146381540874332 1.75 1 
	-1.045099355067648 0.91417111123162353 1.6898348180653628 1 
	-1.1139038370881256 0.9371639289566378 1.5706619594174354 1 
	-1.2151668006729788 0.96470478713877383 1.3952693615634744 0.99999999999999989 
	-1.3150547605368463 0.98476984054470995 1.2222583400148541 0.99999999999999978 
	-1.4151552271754233 0.99720856477309339 1.048879245935485 1 
	-1.4820488326406018 0.99996610387826701 0.93301612256832855 1 
	-1.5155444566227656 1 0.87499999999999845 1 
	0.001 
	plane -2.0207259421636872 0 0 -0.86602540378443871 0 0.49999999999999989 0.5 0 0.86602540378443893 forward_v I I I I 
	cone 0 0.63694790996585371 0 0 1 0 0 0 2.7474774194546234 1 I I -0.93969262078590843 0.3420201433256686 2.7474774194546234 forward I I I I 
	nullbs 
	nullbs 
	I I 
	0 
	0 
	0 
	} I I #
coedge $-1 $338 $325 $291 $337 reversed $197 $-1 #
edge $-1 $300 1.3141922924554982e-010 $323 1.047197551336196 $336 $363 forward 7 unknown #
coedge $-1 $306 $336 $292 $339 reversed $197 $-1 #
edge $-1 $294 0 $300 1.0471975510651836 $338 $364 forward 7 unknown #
edge $-1 $332 0 $294 1.0471975513473135 $306 $365 forward 7 unknown #
point $-1 -1.5155444567377592 1 0.87499999980082499 #
cone-surface $-1 0 0.63694790996585371 0 0 1 0 0 0 2.7474774194546234 1 I I -0.93969262078590843 0.3420201433256686 2.7474774194546234 forward I I I I #
point $-1 -1.515544456622768 1 -0.87499999999999711 #
vertex $-1 $346 $366 #
ellipse-curve $-1 2.4717755620073945e-011 1 2.4720892000118511e-011 0 -1 0 1.5155444567130414 0 0.8749999997761041 1 I I #
edge $-1 $355 -1.3141995428408816e-010 $344 1.0471975510651843 $305 $367 forward 7 unknown #
coedge $-1 $320 $351 $309 $348 reversed $270 $-1 #
edge $-1 $355 0 $349 0.99999999999999989 $309 $368 forward 7 unknown #
vertex $-1 $352 $369 #
straight-curve $-1 2.0207259421636885 0.098536184591255779 4.4408920985006262e-016 0 1 0 I I #
coedge $-1 $347 $320 $312 $352 reversed $270 $-1 #
edge $-1 $349 0 $344 0.99999999999999989 $312 $370 forward 7 unknown #
intcurve-curve $-1 forward { surfintcur full nurbs 3 open 6 
	0 3 0.19966734394273175 1 0.39947547310984388 1 0.59918611684815259 1 0.79929885908136944 1 
	0.99999999999999989 3 
	-1.9457102595765718e-011 0.99999999999565703 -1.75 1 
	0.067013669376666071 0.99997813778032263 -1.7499999999999998 1 
	0.20107857931543943 0.99721270100659654 -1.7499999999999996 1 
	0.40335070711513515 0.98459455014258412 -1.7500000000000002 1.0000000000000002 
	0.60331709745861728 0.96439793085918191 -1.75 1 
	0.80549906160459195 0.93680927184055629 -1.7499999999999998 1.0000000000000002 
	0.94178706705154414 0.91401893289444491 -1.7499999999999998 1 
	1.010362971081844 0.90146381540874343 -1.75 1 
	0.001 
	plane 1.010362971081844 0 -1.75 0 0 -1 -1 0 0 forward_v I I I I 
	cone 0 0.63694790996585371 0 0 1 0 0 0 2.7474774194546234 1 I I -0.93969262078590843 0.3420201433256686 2.7474774194546234 forward I I I I 
	nullbs 
	nullbs 
	I I 
	0 
	0 
	0 
	} I I #
point $-1 1.010362971081844 0.90146381540874343 -1.75 #
vertex $-1 $326 $371 #
intcurve-curve $-1 forward { surfintcur full nurbs 3 open 6 
	0 3 0.20104096481741326 1 0.40123621069259019 1 0.60087516466903201 1 0.80041819065870323 1 
	0.99999999999999989 3 
	1.0103629710818425 0.90146381540874332 -1.75 1 
	1.0450993550676482 0.91417111123162353 -1.6898348180653626 1 
	1.1139038370881265 0.93716392895663791 -1.570661959417434 1.0000000000000002 
	1.2151668006729792 0.96470478713877361 -1.3952693615634726 0.99999999999999989 
	1.315054760536847 0.98476984054471006 -1.2222583400148523 1.0000000000000002 
	1.4151552271754257 0.99720856477309361 -1.0488792459354812 0.99999999999999978 
	1.4820488326406036 0.99996610387826723 -0.93301612256832644 1 
	1.5155444566227663 1 -0.87499999999999745 1 
	0.001 
	plane 2.0207259421636872 0 0 0.86602540378443871 0 -0.49999999999999989 -0.5 0 -0.86602540378443893 forward_v I I I I 
	cone 0 0.63694790996585371 0 0 1 0 0 0 2.7474774194546234 1 I I -0.93969262078590843 0.3420201433256686 2.7474774194546234 forward I I I I 
	nullbs 
	nullbs 
	I I 
	0 
	0 
	0 
	} I I #
point $-1 -1.9457102595765718e-011 0.99999999999565703 -1.75 #
ellipse-curve $-1 2.4717422553166557e-011 1 -2.4720336888606198e-011 0 -1 0 -2.4717422553166557e-011 0 -1.7499999999662319 1 I I #
intcurve-curve $-1 forward { surfintcur full nurbs 3 open 6 
	0 3 0.19958180934129657 1 0.39912483533096765 1 0.5987637893074097 1 0.79895903518258715 1 
	0.99999999999999989 3 
	1.5155444566227676 1 0.87499999999999789 1 
	1.4820488326406049 0.9999661038782669 0.933016122568326 1.0000000000000002 
	1.4151552271754273 0.99720856477309328 1.0488792459354805 1 
	1.3150547605368503 0.98476984054471017 1.2222583400148499 1 
	1.2151668006729812 0.96470478713877394 1.3952693615634721 1 
	1.1139038370881265 0.93716392895663736 1.5706619594174374 1 
	1.0450993550676488 0.91417111123162331 1.6898348180653644 1 
	1.010362971081844 0.90146381540874321 1.75 1 
	0.001 
	plane 1.010362971081844 0 1.75 0.86602540378443871 0 0.49999999999999989 0.5 0 -0.86602540378443893 forward_v I I I I 
	cone 0 0.63694790996585371 0 0 1 0 0 0 2.7474774194546234 1 I I -0.93969262078590843 0.3420201433256686 2.7474774194546234 forward I I I I 
	nullbs 
	nullbs 
	I I 
	0 
	0 
	0 
	} I I #
point $-1 1.010362971081844 0.90146381540874321 1.75 #
intcurve-curve $-1 forward { surfintcur full nurbs 3 open 6 
	0 3 0.20090347378239062 1 0.40108267229574468 1 0.60076092629103517 1 0.80046956890131249 1 
	0.99999999999999989 3 
	1.010362971081844 0.90146381540874332 1.75 1 
	0.941267762091479 0.91410782644704291 1.75 1 
	0.80420480273833395 0.93701808756560045 1.7499999999999998 1 
	0.6016422347850745 0.96459729501501645 1.7500000000000007 0.99999999999999989 
	0.40187587041353229 0.98471037412943407 1.7499999999999996 1.0000000000000002 
	0.20023205579586856 0.9972362773737935 1.7500000000000002 0.99999999999999978 
	0.066703143140689286 0.99998118560730198 1.7500000000000002 1 
	1.9457324640370643e-011 0.99999999999565703 1.75 1 
	0.001 
	plane -1.010362971081844 0 1.75 0 0 1 1 0 0 forward_v I I I I 
	cone 0 0.63694790996585371 0 0 1 0 0 0 2.7474774194546234 1 I I -0.93969262078590843 0.3420201433256686 2.7474774194546234 forward I I I I 
	nullbs 
	nullbs 
	I I 
	0 
	0 
	0 
	} I I #
point $-1 0 1 1.7499999999909523 #
ellipse-curve $-1 -2.4717755620073945e-011 1 -2.4720892000118511e-011 0 -1 0 -1.5155444567130414 0 -0.8749999997761041 1 I I #
ellipse-curve $-1 -1.4432899320127035e-014 1 0 0 -1 0 -1.5155444567377447 0 0.87499999980082499 1 I I #
ellipse-curve $-1 -2.4716978463956707e-011 1 2.4719448710186498e-011 0 -1 0 2.4716978463956707e-011 0 1.7499999999662328 1 I I #
point $-1 1.5155444566227676 1 0.87499999999999789 #
ellipse-curve $-1 1.4432899320127035e-014 1 0 0 -1 0 1.5155444567377447 0 -0.87499999980082499 1 I I #
intcurve-curve $-1 forward { surfintcur full nurbs 3 open 6 
	0 3 0.19958180934129541 1 0.39912483533096665 1 0.59876378930741014 1 0.79895903518258737 1 
	0.99999999999999989 3 
	1.5155444566227663 1 -0.87499999999999745 1 
	1.5490400806049271 0.99996610387826712 -0.81698387743167256 1 
	1.6159336860701015 0.9972085647730935 -0.70112075406452223 1.0000000000000002 
	1.7160341527086789 0.98476984054471151 -0.52774165998515399 1 
	1.8159221125725538 0.9647047871387735 -0.35473063843652181 0.99999999999999978 
	1.917185076157405 0.93716392895663825 -0.17933804058256222 1.0000000000000002 
	1.9859895581778824 0.91417111123162431 -0.060165181934635652 0.99999999999999989 
	2.0207259421636872 0.90146381540874421 0 1 
	0.001 
	plane 2.0207259421636872 0 0 0.86602540378443871 0 -0.49999999999999989 -0.5 0 -0.86602540378443893 forward_v I I I I 
	cone 0 0.63694790996585371 0 0 1 0 0 0 2.7474774194546234 1 I I -0.93969262078590843 0.3420201433256686 2.7474774194546234 forward I I I I 
	nullbs 
	nullbs 
	I I 
	0 
	0 
	0 
	} I I #
point $-1 2.0207259421636872 0.90146381540874421 0 #
intcurve-curve $-1 forward { surfintcur full nurbs 3 open 6 
	0 3 0.20104096481741235 1 0.40123621069258886 1 0.60087516466903168 1 0.80041819065870334 1 
	0.99999999999999989 3 
	2.0207259421636889 0.90146381540874421 0 1 
	1.9859895581778844 0.9141711112316242 0.060165181934635256 1 
	1.9171850761574072 0.9371639289566378 0.1793380405825605 1 
	1.8159221125725578 0.96470478713877306 0.3547306384365177 1 
	1.716034152708686 0.98476984054471028 0.52774165998514477 1 
	1.6159336860701066 0.99720856477309361 0.70112075406451679 1 
	1.5490400806049298 0.99996610387826701 0.81698387743167056 1 
	1.5155444566227676 1 0.87499999999999789 1 
	0.001 
	plane 1.010362971081844 0 1.75 0.86602540378443871 0 0.49999999999999989 0.5 0 -0.86602540378443893 forward_v I I I I 
	cone 0 0.63694790996585371 0 0 1 0 0 0 2.7474774194546234 1 I I -0.93969262078590843 0.3420201433256686 2.7474774194546234 forward I I I I 
	nullbs 
	nullbs 
	I I 
	0 
	0 
	0 
	} I I #
point $-1 1.5155444566227663 1 -0.87499999999999745 #
End-of-ACIS-data 