600 0 1 0           
100 GICL ACIS Healer - Source: /gicl/data5/repository/PTC/V18/asmdes18/parts/hex_cap_screw.prt.sat - 6 0 18 ACIS 6.0.3 Solaris 24 Sat Apr 13 23:02:53 2002 
1 9.999999999999999547e-07 1.000000000000000036e-10 
body $-1 $1 $-1 $-1 #
lump $-1 $-1 $2 $0 #
shell $-1 $-1 $-1 $3 $-1 $1 #
face $-1 $4 $5 $2 $-1 $6 forward single #
face $-1 $7 $8 $2 $-1 $9 forward single #
loop $-1 $-1 $10 $3 #
plane-surface $-1 60 0 0 1 0 0 0 0 10 forward_v I I I I #
face $-1 $11 $12 $2 $-1 $13 forward single #
loop $-1 $-1 $14 $4 #
cone-surface $-1 57.5 0 0 1 0 0 0 0 9.999999999999998224 1 I I -0.7071067811865474617 0.7071067811865475727 9.999999999999998224 forward I I I I #
coedge $-1 $15 $15 $16 $17 forward $5 $-1 #
face $-1 $18 $19 $2 $-1 $20 forward single #
loop $-1 $-1 $21 $7 #
cone-surface $-1 44.25 0 0 1 0 0 0 0 10 1 I I 0 1 10 forward I I I I #
coedge $-1 $22 $23 $24 $25 forward $8 $-1 #
coedge $-1 $10 $10 $26 $27 reversed $5 $-1 #
coedge $-1 $23 $22 $10 $17 reversed $8 $-1 #
edge $-1 $28 5.609677548238306167e-32 $29 3.141592653589793116 $10 $30 forward 7 unknown #
face $-1 $31 $32 $2 $-1 $33 forward single #
loop $-1 $-1 $34 $11 #
cone-surface $-1 44.25 0 0 1 0 0 0 0 10 1 I I 0 1 10 forward I I I I #
coedge $-1 $24 $35 $36 $37 forward $12 $-1 #
coedge $-1 $16 $14 $38 $39 reversed $8 $-1 #
coedge $-1 $14 $16 $40 $41 forward $8 $-1 #
coedge $-1 $42 $21 $14 $25 reversed $12 $-1 #
edge $-1 $43 0 $44 3.141592653589793116 $14 $45 forward 7 unknown #
coedge $-1 $38 $40 $15 $27 forward $32 $-1 #
edge $-1 $28 -3.506048467648941354e-33 $29 3.141592653589792672 $15 $46 forward 7 unknown #
vertex $-1 $27 $47 #
vertex $-1 $27 $48 #
ellipse-curve $-1 60 -1.11022302462515654e-15 0 1 0 0 0 2.02867778999193909e-15 -7.5 1 I I #
face $-1 $49 $50 $2 $-1 $51 reversed single #
loop $-1 $-1 $26 $18 #
cone-surface $-1 57.5 0 0 1 0 0 0 0 9.999999999999998224 1 I I -0.7071067811865474617 0.7071067811865475727 9.999999999999998224 forward I I I I #
coedge $-1 $52 $53 $42 $54 reversed $19 $-1 #
coedge $-1 $21 $42 $55 $56 forward $12 $-1 #
coedge $-1 $53 $52 $21 $37 reversed $19 $-1 #
edge $-1 $57 0 $44 5.75 $21 $58 forward 7 unknown #
coedge $-1 $59 $26 $22 $39 forward $32 $-1 #
edge $-1 $29 0 $44 0.3535533905932737864 $22 $60 forward 7 unknown #
coedge $-1 $26 $59 $23 $41 reversed $32 $-1 #
edge $-1 $28 -0 $43 0.3535533905932736198 $23 $61 forward 7 unknown #
coedge $-1 $35 $24 $34 $54 forward $12 $-1 #
vertex $-1 $41 $62 #
vertex $-1 $39 $63 #
ellipse-curve $-1 57.5 0 0 1 0 0 0 1.224606353822377258e-15 -10 1 I I #
ellipse-curve $-1 60 1.11022302462515654e-15 2.775557561562891351e-16 -1 0 0 0 -1.917682592583738433e-16 -7.5 1 I I #
point $-1 60 9.184547653667827464e-16 -7.5 #
point $-1 60 -1.836909530733565493e-15 7.5 #
face $-1 $64 $65 $2 $-1 $66 forward single #
loop $-1 $67 $68 $31 #
plane-surface $-1 0 0 0 -1 0 0 0 10 0 forward_v I I I I #
coedge $-1 $36 $34 $59 $69 forward $19 $-1 #
coedge $-1 $34 $36 $68 $70 forward $19 $-1 #
edge $-1 $43 0 $71 5.75 $42 $72 forward 7 unknown #
coedge $-1 $68 $68 $35 $56 reversed $50 $-1 #
edge $-1 $71 0 $57 3.141592653589793116 $35 $73 forward 7 unknown #
vertex $-1 $56 $74 #
straight-curve $-1 0 -2.449212707644754516e-15 10 10 0 0 I I #
coedge $-1 $40 $38 $52 $69 reversed $32 $-1 #
straight-curve $-1 60 -1.836909530733565493e-15 7.5 -7.071067811865477282 5.195564742431612755e-15 7.071067811865473729 I I #
straight-curve $-1 60 9.184547653667827464e-16 -7.5 -7.071067811865477282 -6.061492199503548741e-15 -7.071067811865473729 I I #
point $-1 57.5 1.224606353822377061e-15 -9.999999999999998224 #
point $-1 57.5 -2.449212707644754516e-15 10 #
face $-1 $75 $76 $2 $-1 $77 forward single #
loop $-1 $-1 $78 $49 #
cone-surface $-1 0.04999999999999893419 0 0 -1 0 0 0 0 -12.5 1 I I 0 1 12.5 forward I I I I #
loop $-1 $-1 $79 $31 #
coedge $-1 $55 $55 $53 $70 reversed $50 $-1 #
edge $-1 $43 0 $44 3.141592653589793116 $59 $80 forward 7 unknown #
edge $-1 $57 0 $71 3.141592653589793116 $53 $81 forward 7 unknown #
vertex $-1 $56 $82 #
straight-curve $-1 57.5 1.224606353822377258e-15 -10 -10 0 0 I I #
ellipse-curve $-1 0 -5.551115123125782702e-16 2.775557561562891351e-16 1 0 0 0 5.551115123125782702e-16 -10 1 I I #
point $-1 0 0 10 #
face $-1 $83 $84 $2 $-1 $85 reversed single #
loop $-1 $-1 $86 $64 #
cone-surface $-1 0.04999999999999893419 0 0 -1 0 0 0 0 -12.5 1 I I 0 1 12.5 forward I I I I #
coedge $-1 $87 $88 $89 $90 reversed $65 $-1 #
coedge $-1 $91 $91 $88 $92 reversed $67 $-1 #
ellipse-curve $-1 57.5 0 0 -1 0 0 0 1.224606353822377258e-15 -10 1 I I #
ellipse-curve $-1 0 -2.775557561562891351e-16 0 1 0 0 0 2.775557561562891351e-16 10 1 I I #
point $-1 0 0 -10 #
face $-1 $93 $94 $2 $-1 $95 forward single #
loop $-1 $96 $97 $75 #
plane-surface $-1 -0.999999999999999889 0 0 -1 0 0 0 0 -10 forward_v I I I I #
coedge $-1 $98 $99 $100 $101 reversed $76 $-1 #
coedge $-1 $100 $78 $102 $103 forward $65 $-1 #
coedge $-1 $78 $100 $79 $92 forward $65 $-1 #
coedge $-1 $99 $98 $78 $90 forward $76 $-1 #
edge $-1 $104 0 $105 0.09999999999999999167 $89 $106 forward 7 unknown #
coedge $-1 $79 $79 $99 $107 reversed $67 $-1 #
edge $-1 $108 0 $105 3.141592653589793116 $79 $109 forward 7 unknown #
face $-1 $110 $111 $2 $-1 $112 forward single #
loop $-1 $-1 $113 $83 #
plane-surface $-1 0 8.66025403784437664 -15 0 0 -1 0 -10 0 forward_v I I I I #
loop $-1 $-1 $114 $75 #
coedge $-1 $102 $102 $98 $115 forward $84 $-1 #
coedge $-1 $89 $86 $97 $115 reversed $76 $-1 #
coedge $-1 $86 $89 $91 $107 forward $76 $-1 #
coedge $-1 $88 $87 $86 $101 forward $65 $-1 #
edge $-1 $116 0 $108 0.09999999999999999167 $86 $117 forward 7 unknown #
coedge $-1 $97 $97 $87 $103 reversed $84 $-1 #
edge $-1 $104 -5.048709793414476481e-33 $116 3.141592653589793116 $102 $118 forward 7 unknown #
vertex $-1 $103 $119 #
vertex $-1 $107 $120 #
straight-curve $-1 -0.999999999999999889 0 -12.5 10 0 0 I I #
edge $-1 $105 0 $108 3.141592653589793116 $91 $121 forward 7 unknown #
vertex $-1 $107 $122 #
ellipse-curve $-1 0 -1.11022302462515654e-15 5.551115123125782702e-16 -1 0 0 0 1.11022302462515654e-15 12.5 1 I I #
face $-1 $123 $124 $2 $-1 $125 forward single #
loop $-1 $-1 $126 $93 #
cone-surface $-1 -8.660254037844383745 0 0 -1 0 0 0 0 -17.32050807568877815 1 I I -0.8660254037844387076 0.499999999999999889 17.32050807568877815 forward I I I I #
coedge $-1 $127 $128 $129 $130 reversed $94 $-1 #
coedge $-1 $131 $132 $133 $134 reversed $96 $-1 #
edge $-1 $104 -5.048709793414476481e-33 $116 3.141592653589793116 $97 $135 forward 7 unknown #
vertex $-1 $103 $136 #
straight-curve $-1 -0.999999999999999889 1.530757942277971573e-15 12.5 10 0 0 I I #
ellipse-curve $-1 -0.999999999999999889 5.551115123125782702e-16 -1.11022302462515654e-15 1 0 0 0 -5.551115123125782702e-16 -12.5 1 I I #
point $-1 -0.999999999999999889 0 -12.5 #
point $-1 0 0 -12.5 #
ellipse-curve $-1 0 1.11022302462515654e-15 -5.551115123125782702e-16 -1 0 0 0 -1.11022302462515654e-15 -12.5 1 I I #
point $-1 0 0 12.5 #
face $-1 $137 $138 $2 $-1 $139 forward single #
loop $-1 $-1 $140 $110 #
plane-surface $-1 -10 0 0 -1 0 0 0 10 0 forward_v I I I I #
coedge $-1 $129 $141 $142 $143 reversed $111 $-1 #
coedge $-1 $144 $113 $145 $146 reversed $94 $-1 #
coedge $-1 $113 $133 $147 $148 forward $94 $-1 #
coedge $-1 $141 $126 $113 $130 forward $111 $-1 #
edge $-1 $149 2.147739818368383754e-10 $150 0.999999999999999889 $113 $151 forward 7 unknown #
coedge $-1 $152 $114 $153 $154 reversed $96 $-1 #
coedge $-1 $114 $155 $156 $157 reversed $96 $-1 #
coedge $-1 $128 $144 $114 $134 forward $94 $-1 #
edge $-1 $158 1.243449787580175246e-15 $159 1.732050807568875417 $133 $160 forward 7 unknown #
ellipse-curve $-1 -0.999999999999999889 -5.551115123125782702e-16 -1.11022302462515654e-15 -1 0 0 0 5.551115123125782702e-16 -12.5 1 I I #
point $-1 -0.999999999999999889 1.530757942277971573e-15 12.5 #
face $-1 $161 $162 $2 $-1 $163 forward single #
loop $-1 $-1 $164 $123 #
cone-surface $-1 -8.660254037844383745 0 0 -1 0 0 0 0 -17.32050807568877815 1 I I -0.8660254037844387076 0.499999999999999889 17.32050807568877815 forward I I I I #
coedge $-1 $165 $142 $164 $166 forward $124 $-1 #
coedge $-1 $126 $129 $167 $168 forward $111 $-1 #
coedge $-1 $140 $169 $126 $143 forward $124 $-1 #
edge $-1 $149 0 $170 1.04719755128612757 $142 $171 forward 7 unknown #
coedge $-1 $133 $127 $172 $173 reversed $94 $-1 #
coedge $-1 $174 $175 $127 $146 forward $176 $-1 #
edge $-1 $177 0 $149 0.999999999999999889 $127 $178 forward 7 unknown #
coedge $-1 $156 $167 $128 $148 reversed $162 $-1 #
edge $-1 $159 0 $150 0.7660254037844389519 $147 $179 forward 7 unknown #
vertex $-1 $143 $180 #
vertex $-1 $148 $181 #
intcurve-curve $-1 forward { surfintcur full nurbs 3 open 6 
	0 3 0.1989627992287847646 1 0.3982940125067687687 1 0.597862815766385669 1 0.7982789389003800418 1 
	0.999999999999999889 3 
	-9.999999999940420992 1.833138085771679471e-09 -15 1 
	-9.99984582002737632 -0.5660571248303609693 -15.00000000000000178 1 
	-9.963103116872055409 -1.701179050227877854 -14.99999999999999645 1 
	-9.795130138901585681 -3.420706430037142809 -15 1 
	-9.523534152433688504 -5.130757655850118226 -15 1.000000000000000222 
	-9.149487016759380253 -6.870266306747311091 -14.99999999999999645 0.999999999999999778 
	-8.834724489307143713 -8.058575030607585177 -15.00000000000000178 1 
	-8.660254037844389075 -8.66025403784437664 -15 1 
	0.01000000000000000021 
	cone -8.660254037844383745 0 0 -1 0 0 0 0 -17.32050807568877815 1 I I -0.8660254037844387076 0.499999999999999889 17.32050807568877815 forward I I I I 
	plane 0 8.66025403784437664 -15 0 0 -1 0 -10 0 forward_v I I I I 
	nullbs 
	nullbs 
	I I 
	0 
	0 
	0 
	} I I #
coedge $-1 $182 $131 $183 $184 reversed $96 $-1 #
coedge $-1 $172 $185 $131 $154 forward $186 $-1 #
edge $-1 $187 0 $158 1.732050807568876749 $153 $188 forward 7 unknown #
coedge $-1 $132 $182 $189 $190 reversed $96 $-1 #
coedge $-1 $191 $147 $132 $157 forward $162 $-1 #
edge $-1 $159 0 $192 1.732050807568876305 $156 $193 forward 7 unknown #
vertex $-1 $173 $194 #
vertex $-1 $148 $195 #
straight-curve $-1 -0.999999999999999889 8.66025403784437664 -15 0 -10 0 I I #
face $-1 $196 $197 $2 $-1 $198 forward single #
loop $-1 $-1 $156 $137 #
plane-surface $-1 0 -8.66025403784437664 -15 0 -0.8660254037844388186 -0.499999999999999889 0 -5 8.660254037844390851 forward_v I I I I #
coedge $-1 $199 $200 $140 $166 reversed $138 $-1 #
coedge $-1 $201 $140 $202 $203 forward $124 $-1 #
edge $-1 $170 0 $204 1.047197551113543179 $140 $205 forward 7 unknown #
coedge $-1 $147 $206 $141 $168 reversed $162 $-1 #
edge $-1 $150 0 $170 0.999999999999999889 $167 $207 forward 7 unknown #
coedge $-1 $142 $208 $174 $209 forward $124 $-1 #
vertex $-1 $143 $210 #
ellipse-curve $-1 -10 -7.439521221286327091e-11 -6.907141525402948901e-11 -1 0 0 0 7.439521221286327091e-11 -14.99999999990101962 1 I I #
coedge $-1 $211 $153 $144 $173 forward $186 $-1 #
edge $-1 $158 -0 $177 0.7660254037844389519 $172 $212 forward 7 unknown #
coedge $-1 $175 $145 $169 $209 reversed $176 $-1 #
coedge $-1 $145 $174 $211 $213 forward $176 $-1 #
loop $-1 $-1 $174 $214 #
vertex $-1 $213 $215 #
intcurve-curve $-1 forward { surfintcur full nurbs 3 open 6 
	0 3 0.201967191965601256 1 0.4024604135752303247 1 0.601987650083729231 1 0.8011999675395036213 1 
	0.999999999999999889 3 
	-8.660254037844389075 8.66025403784437664 -15 1 
	-8.836182165433200453 8.053193140009188511 -15 1 
	-9.152897546546261864 6.856899363361554478 -15 1 
	-9.526765555075154879 5.11350680928281065 -15.00000000000000178 0.999999999999999778 
	-9.796993820479128701 3.405580921281068374 -15 1 
	-9.9634835884858024 1.692463441210553476 -15 1 
	-9.999894920969584433 0.562861432847572174 -15 1 
	-9.999999999940420992 1.833138085771679471e-09 -15 1 
	0.01000000000000000021 
	cone -8.660254037844383745 0 0 -1 0 0 0 0 -17.32050807568877815 1 I I -0.8660254037844387076 0.499999999999999889 17.32050807568877815 forward I I I I 
	plane 0 8.66025403784437664 -15 0 0 -1 0 -10 0 forward_v I I I I 
	nullbs 
	nullbs 
	I I 
	0 
	0 
	0 
	} I I #
straight-curve $-1 -0.999999999999999889 -8.66025403784437664 -15 -10 0 0 I I #
point $-1 -10 0 -14.9999999999700897 #
point $-1 -8.660254037844389075 -8.66025403784437664 -15 #
coedge $-1 $155 $152 $216 $217 reversed $96 $-1 #
coedge $-1 $218 $219 $152 $184 forward $220 $-1 #
edge $-1 $221 0 $187 1.732050807568876305 $183 $222 forward 7 unknown #
coedge $-1 $153 $223 $218 $224 reversed $186 $-1 #
loop $-1 $-1 $153 $225 #
vertex $-1 $224 $226 #
straight-curve $-1 -0.999999999999999889 17.32050807568874617 0 0 -4.999999999999999112 -8.660254037844389075 I I #
coedge $-1 $227 $228 $155 $190 forward $197 $-1 #
edge $-1 $192 0 $229 1.732050807568876083 $189 $230 forward 7 unknown #
coedge $-1 $206 $156 $228 $231 forward $162 $-1 #
vertex $-1 $231 $232 #
straight-curve $-1 -0.999999999999999889 -8.66025403784437664 -15 0 -4.999999999999998224 8.660254037844387298 I I #
point $-1 -0.999999999999999889 8.660254037844364206 -15 #
point $-1 -0.999999999999999889 -8.66025403784437664 -15 #
face $-1 $233 $234 $2 $-1 $235 forward single #
loop $-1 $-1 $189 $161 #
plane-surface $-1 0 -17.32050807568874617 0 0 -0.8660254037844388186 0.499999999999999889 0 5 8.660254037844390851 forward_v I I I I #
coedge $-1 $200 $164 $206 $236 forward $138 $-1 #
coedge $-1 $164 $199 $237 $238 forward $138 $-1 #
coedge $-1 $208 $165 $239 $240 forward $124 $-1 #
coedge $-1 $241 $242 $165 $203 reversed $243 $-1 #
edge $-1 $204 8.306156158081861728e-11 $244 1.047197551166189289 $165 $245 forward 7 unknown #
vertex $-1 $203 $246 #
ellipse-curve $-1 -10 -1.210143096841420629e-13 -5.551115123125782702e-16 -1 0 0 0 -12.99038105738940985 -7.499999998920983124 1 I I #
coedge $-1 $167 $191 $199 $236 reversed $162 $-1 #
intcurve-curve $-1 forward { surfintcur full nurbs 3 open 6 
	0 3 0.2020512004612879386 1 0.4026090273640692274 1 0.6020960830054723489 1 0.8011407656405840072 1 
	0.999999999999999889 3 
	-8.660254037844389075 -8.66025403784437664 -15 1 
	-8.836627521740821223 -8.964563358445957419 -14.47292079550130062 0.999999999999999889 
	-9.153979485646663861 -9.564035517150092147 -13.43460455890273586 0.999999999999999889 
	-9.528356007125026395 -10.43765864325065529 -11.92144491782941529 1 
	-9.797703894797834323 -11.29121436735647244 -10.44304303658689292 1 
	-9.963096890772678904 -12.14157076233171395 -8.970182555948664316 0.999999999999999889 
	-9.999681275673550473 -12.70760158321427191 -7.989788415530158616 1 
	-10 -12.99038105676658006 -7.499999999999981348 1 
	0.01000000000000000021 
	cone -8.660254037844383745 0 0 -1 0 0 0 0 -17.32050807568877815 1 I I -0.8660254037844387076 0.499999999999999889 17.32050807568877815 forward I I I I 
	plane 0 -8.66025403784437664 -15 0 -0.8660254037844388186 -0.499999999999999889 0 -5 8.660254037844390851 forward_v I I I I 
	nullbs 
	nullbs 
	I I 
	0 
	0 
	0 
	} I I #
coedge $-1 $169 $201 $247 $248 forward $124 $-1 #
edge $-1 $249 8.306149842146434909e-11 $149 1.047197551288398643 $169 $250 forward 7 unknown #
point $-1 -10 -12.99038105738953064 -7.499999998920984012 #
coedge $-1 $223 $172 $175 $213 reversed $186 $-1 #
straight-curve $-1 -0.999999999999999889 8.660254037844367758 -14.99999999999999289 -10 0 0 I I #
edge $-1 $249 0 $177 0.999999999999999889 $211 $251 forward 7 unknown #
face $-1 $252 $176 $2 $-1 $253 forward single #
point $-1 -8.660254037844389075 8.66025403784437664 -15 #
coedge $-1 $254 $255 $182 $217 forward $234 $-1 #
edge $-1 $229 0 $221 1.732050807568875417 $216 $256 forward 7 unknown #
coedge $-1 $257 $183 $185 $224 forward $220 $-1 #
coedge $-1 $183 $258 $254 $259 reversed $220 $-1 #
loop $-1 $-1 $183 $233 #
vertex $-1 $259 $260 #
straight-curve $-1 -0.999999999999999889 8.66025403784437664 15 0 4.999999999999998224 -8.660254037844387298 I I #
coedge $-1 $185 $211 $261 $262 reversed $186 $-1 #
edge $-1 $187 -0 $263 0.7660254037844399511 $218 $264 forward 7 unknown #
face $-1 $214 $186 $2 $-1 $265 forward single #
point $-1 -0.999999999999999889 17.32050807568874617 0 #
coedge $-1 $266 $189 $255 $267 forward $197 $-1 #
coedge $-1 $189 $237 $191 $231 reversed $197 $-1 #
vertex $-1 $267 $268 #
straight-curve $-1 -0.999999999999999889 -17.32050807568874617 0 0 4.999999999999999112 8.660254037844389075 I I #
edge $-1 $192 0 $269 0.7660254037844399511 $191 $270 forward 7 unknown #
point $-1 -0.999999999999999889 -17.32050807568874617 0 #
face $-1 $225 $220 $2 $-1 $271 forward single #
loop $-1 $-1 $216 $196 #
plane-surface $-1 0 -8.66025403784437664 15 0 0 1 0 10 0 forward_v I I I I #
edge $-1 $170 1.460275154666217396e-10 $269 1 $206 $272 forward 7 unknown #
coedge $-1 $228 $266 $200 $238 reversed $197 $-1 #
edge $-1 $269 0 $204 0.999999999999999889 $237 $273 forward 7 unknown #
coedge $-1 $274 $275 $201 $240 reversed $276 $-1 #
edge $-1 $244 -1.222092797335331313e-10 $277 1.047197551203066679 $201 $278 forward 7 unknown #
coedge $-1 $242 $202 $266 $279 forward $243 $-1 #
coedge $-1 $202 $241 $280 $281 forward $243 $-1 #
loop $-1 $-1 $202 $282 #
vertex $-1 $240 $283 #
ellipse-curve $-1 -10 -9.142825385666242255e-11 9.857448191041839891e-11 -1 0 0 0 -12.99038105729810155 7.499999998822408642 1 I I #
point $-1 -10 -12.99038105676656585 7.499999999999982236 #
coedge $-1 $284 $261 $208 $248 reversed $285 $-1 #
edge $-1 $277 -8.306105630456257415e-11 $249 1.047197551113542735 $208 $286 forward 7 unknown #
vertex $-1 $209 $287 #
ellipse-curve $-1 -10 9.143047430271167286e-11 -9.857559213344302407e-11 -1 0 0 0 12.99038105729809978 -7.499999998822408642 1 I I #
intcurve-curve $-1 forward { surfintcur full nurbs 3 open 6 
	0 3 0.1988592343594152434 1 0.3979039169945263188 1 0.5973909726359295513 1 0.7979487995387112287 1 
	0.999999999999999889 3 
	-10 12.99038105676656585 -7.499999999999982236 1 
	-9.99968127567355225 12.70760158321427014 -7.989788415530149734 0.999999999999999889 
	-9.963096890772677128 12.14157076233172106 -8.970182555948634118 1.000000000000000222 
	-9.797703894797841428 11.29121436735649553 -10.44304303658683253 1.000000000000000222 
	-9.528356007125040605 10.43765864325067483 -11.92144491782936022 0.999999999999999889 
	-9.153979485646674519 9.564035517150099253 -13.43460455890270566 1 
	-8.836627521740822999 8.964563358445948538 -14.47292079550128463 1.000000000000000222 
	-8.660254037844389075 8.660254037844364206 -15 1 
	0.01000000000000000021 
	cone -8.660254037844383745 0 0 -1 0 0 0 0 -17.32050807568877815 1 I I -0.8660254037844387076 0.499999999999999889 17.32050807568877815 forward I I I I 
	plane 0 17.32050807568874617 0 0 0.8660254037844388186 -0.499999999999999889 0 -5 -8.660254037844390851 forward_v I I I I 
	nullbs 
	nullbs 
	I I 
	0 
	0 
	0 
	} I I #
face $-1 $288 $285 $2 $-1 $289 forward single #
cone-surface $-1 -8.660254037844383745 0 0 -1 0 0 0 0 -17.32050807568877815 1 I I -0.8660254037844387076 0.499999999999999889 17.32050807568877815 forward I I I I #
coedge $-1 $290 $216 $219 $259 forward $234 $-1 #
coedge $-1 $216 $280 $227 $267 reversed $234 $-1 #
straight-curve $-1 -0.999999999999999889 -8.66025403784437664 15 0 10 0 I I #
coedge $-1 $258 $218 $284 $291 reversed $220 $-1 #
coedge $-1 $219 $257 $275 $292 reversed $220 $-1 #
edge $-1 $221 0 $293 0.7660254037844389519 $254 $294 forward 7 unknown #
point $-1 -0.999999999999999889 8.66025403784437664 15 #
coedge $-1 $247 $284 $223 $262 forward $285 $-1 #
edge $-1 $263 0 $249 0.999999999999999889 $223 $295 forward 7 unknown #
vertex $-1 $291 $296 #
straight-curve $-1 -0.999999999999999889 17.32050807568875683 6.661338147750939243e-15 -10 0 0 I I #
plane-surface $-1 0 17.32050807568874617 0 0 0.8660254037844388186 -0.499999999999999889 0 -5 -8.660254037844390851 forward_v I I I I #
coedge $-1 $237 $227 $241 $279 reversed $197 $-1 #
edge $-1 $229 0 $297 0.7660254037844389519 $227 $298 forward 7 unknown #
point $-1 -0.999999999999999889 -8.66025403784437664 15 #
vertex $-1 $236 $299 #
straight-curve $-1 -0.999999999999999889 -17.32050807568875683 -6.661338147750939243e-15 -10 0 0 I I #
plane-surface $-1 0 8.66025403784437664 15 0 0.8660254037844388186 0.499999999999999889 0 5 -8.660254037844390851 forward_v I I I I #
intcurve-curve $-1 forward { surfintcur full nurbs 3 open 6 
	0 3 0.1988592343594157708 1 0.3979039169945272625 1 0.5973909726359298844 1 0.7979487995387104515 1 
	1 3 
	-10 -12.99038105676658006 -7.499999999999981348 1 
	-9.999681275673554026 -13.27316053031888643 -7.010211584469807633 1 
	-9.96309689077268068 -13.83919135120143196 -6.029817444051310815 1 
	-9.797703894797837876 -14.68954774617666992 -4.556956963413105299 1 
	-9.528356007125040605 -15.54310347028247108 -3.078555082170600254 1.000000000000000222 
	-9.153979485646694059 -16.41672659638300047 -1.565395441097338303 0.999999999999999778 
	-8.836627521740842539 -17.01619875508716007 -0.5270792044987361313 1 
	-8.660254037844399733 -17.32050807568875683 0 1 
	0.01000000000000000021 
	cone -8.660254037844383745 0 0 -1 0 0 0 0 -17.32050807568877815 1 I I -0.8660254037844387076 0.499999999999999889 17.32050807568877815 forward I I I I 
	plane 0 -8.66025403784437664 -15 0 -0.8660254037844388186 -0.499999999999999889 0 -5 8.660254037844390851 forward_v I I I I 
	nullbs 
	nullbs 
	I I 
	0 
	0 
	0 
	} I I #
intcurve-curve $-1 forward { surfintcur full nurbs 3 open 6 
	0 3 0.2020512004612892987 1 0.4026090273640705597 1 0.6020960830054736812 1 0.8011407656405847844 1 
	0.999999999999999889 3 
	-8.660254037844399733 -17.32050807568874617 0 1 
	-8.836627521740840763 -17.01619875508715296 0.5270792044987281377 0.999999999999999889 
	-9.153979485646694059 -16.41672659638299692 1.565395441097326978 1 
	-9.528356007125040605 -15.54310347028244621 3.078555082170628676 1.000000000000000222 
	-9.797703894797848534 -14.68954774617662196 4.556956963413154149 0.999999999999999778 
	-9.96309689077268068 -13.83919135120140709 6.029817444051339237 1.000000000000000222 
	-9.999681275673550473 -13.27316053031886511 7.010211584469818291 1 
	-10 -12.99038105676656585 7.499999999999982236 1 
	0.01000000000000000021 
	cone -8.660254037844383745 0 0 -1 0 0 0 0 -17.32050807568877815 1 I I -0.8660254037844387076 0.499999999999999889 17.32050807568877815 forward I I I I 
	plane 0 -17.32050807568874617 0 0 -0.8660254037844388186 0.499999999999999889 0 5 8.660254037844390851 forward_v I I I I 
	nullbs 
	nullbs 
	I I 
	0 
	0 
	0 
	} I I #
coedge $-1 $275 $239 $290 $300 forward $276 $-1 #
coedge $-1 $239 $274 $258 $292 forward $276 $-1 #
loop $-1 $-1 $239 $288 #
vertex $-1 $248 $301 #
ellipse-curve $-1 -10 7.439604488013173977e-11 6.907308058856642674e-11 -1 0 0 0 -7.439604488013173977e-11 14.99999999990101784 1 I I #
edge $-1 $204 0 $297 0.999999999999999889 $266 $302 forward 7 unknown #
coedge $-1 $255 $290 $242 $281 reversed $234 $-1 #
edge $-1 $297 0 $244 1 $280 $303 forward 7 unknown #
face $-1 $-1 $243 $2 $-1 $304 forward single #
point $-1 -9.999999999940420992 -1.833139195994704096e-09 15 #
coedge $-1 $261 $247 $257 $291 forward $285 $-1 #
loop $-1 $-1 $247 $252 #
ellipse-curve $-1 -10 1.154631945610162802e-13 -8.326672684688674053e-16 -1 0 0 0 12.99038105738941518 7.499999998920984012 1 I I #
point $-1 -10 12.99038105676656585 -7.499999999999982236 #
face $-1 $282 $276 $2 $-1 $305 forward single #
cone-surface $-1 -8.660254037844383745 0 0 -1 0 0 0 0 -17.32050807568877815 1 I I -0.8660254037844387076 0.499999999999999889 17.32050807568877815 forward I I I I #
coedge $-1 $280 $254 $274 $300 reversed $234 $-1 #
edge $-1 $277 0 $263 1 $257 $306 forward 7 unknown #
edge $-1 $293 0 $277 0.999999999999999889 $258 $307 forward 7 unknown #
vertex $-1 $300 $308 #
straight-curve $-1 -0.999999999999999889 8.66025403784437664 15 -10 0 0 I I #
intcurve-curve $-1 forward { surfintcur full nurbs 3 open 6 
	0 3 0.2020512004612890211 1 0.4026090273640698936 1 0.6020960830054731261 1 0.8011407656405845623 1 
	0.999999999999999889 3 
	-8.660254037844399733 17.32050807568874617 0 1 
	-8.83662752174083721 17.01619875508715651 -0.5270792044987241409 1 
	-9.153979485646686953 16.41672659638300047 -1.565395441097313878 1.000000000000000222 
	-9.5283560071250335 15.5431034702824622 -3.078555082170593149 1.000000000000000222 
	-9.797703894797844981 14.68954774617664505 -4.556956963413123063 0.999999999999999889 
	-9.96309689077268068 13.83919135120141064 -6.029817444051337461 1 
	-9.999681275673550473 13.27316053031886511 -7.010211584469818291 1.000000000000000222 
	-10 12.99038105676656585 -7.499999999999982236 1 
	0.01000000000000000021 
	cone -8.660254037844383745 0 0 -1 0 0 0 0 -17.32050807568877815 1 I I -0.8660254037844387076 0.499999999999999889 17.32050807568877815 forward I I I I 
	plane 0 17.32050807568874617 0 0 0.8660254037844388186 -0.499999999999999889 0 -5 -8.660254037844390851 forward_v I I I I 
	nullbs 
	nullbs 
	I I 
	0 
	0 
	0 
	} I I #
point $-1 -8.660254037844399733 17.32050807568874617 0 #
vertex $-1 $279 $309 #
straight-curve $-1 -0.999999999999999889 -8.660254037844367758 14.99999999999999289 -10 0 0 I I #
point $-1 -8.660254037844399733 -17.32050807568874617 0 #
edge $-1 $244 0 $293 1 $290 $310 forward 7 unknown #
point $-1 -10 12.99038105676658006 7.499999999999981348 #
intcurve-curve $-1 forward { surfintcur full nurbs 3 open 6 
	0 3 0.1988592343594148548 1 0.3979039169945259857 1 0.5973909726359291072 1 0.7979487995387103405 1 
	0.999999999999999889 3 
	-10 -12.99038105676656585 7.499999999999982236 1 
	-9.999681275673550473 -12.70760158321427191 7.989788415530139076 1 
	-9.96309689077268068 -12.14157076233173171 8.970182555948616354 1 
	-9.797703894797844981 -11.29121436735650086 10.44304303658681654 1 
	-9.528356007125044158 -10.43765864325068726 11.92144491782934779 0.999999999999999778 
	-9.153979485646686953 -9.564035517150129451 13.43460455890265237 1.000000000000000222 
	-8.836627521740833657 -8.964563358445966301 14.47292079550126509 0.999999999999999778 
	-8.660254037844389075 -8.660254037844364206 15 1 
	0.01000000000000000021 
	cone -8.660254037844383745 0 0 -1 0 0 0 0 -17.32050807568877815 1 I I -0.8660254037844387076 0.499999999999999889 17.32050807568877815 forward I I I I 
	plane 0 -17.32050807568874617 0 0 -0.8660254037844388186 0.499999999999999889 0 5 8.660254037844390851 forward_v I I I I 
	nullbs 
	nullbs 
	I I 
	0 
	0 
	0 
	} I I #
intcurve-curve $-1 forward { surfintcur full nurbs 3 open 6 
	0 3 0.2019671919656002568 1 0.4024604135752291589 1 0.60198765008372912 1 0.8011999675395038434 1 
	1 3 
	-8.660254037844389075 -8.66025403784437664 15 1 
	-8.836182165433195124 -8.053193140009209827 15 1 
	-9.15289754654624943 -6.856899363361607769 15.00000000000000355 0.999999999999999778 
	-9.526765555075138892 -5.113506809282889698 15 1 
	-9.796993820479132253 -3.405580921281065265 15.00000000000000178 0.999999999999999889 
	-9.963483588485800624 -1.692463441210540154 14.99999999999999645 1.000000000000000222 
	-9.999894920969586209 -0.5628614328475644024 15.00000000000000178 1 
	-9.999999999940420992 -1.833139195994704096e-09 15 1 
	0.01000000000000000021 
	cone -8.660254037844383745 0 0 -1 0 0 0 0 -17.32050807568877815 1 I I -0.8660254037844387076 0.499999999999999889 17.32050807568877815 forward I I I I 
	plane 0 -8.66025403784437664 15 0 0 1 0 10 0 forward_v I I I I 
	nullbs 
	nullbs 
	I I 
	0 
	0 
	0 
	} I I #
cone-surface $-1 -8.660254037844383745 0 0 -1 0 0 0 0 -17.32050807568877815 1 I I -0.8660254037844387076 0.499999999999999889 17.32050807568877815 forward I I I I #
cone-surface $-1 -8.660254037844383745 0 0 -1 0 0 0 0 -17.32050807568877815 1 I I -0.8660254037844387076 0.499999999999999889 17.32050807568877815 forward I I I I #
intcurve-curve $-1 forward { surfintcur full nurbs 3 open 6 
	0 3 0.1988592343594152156 1 0.3979039169945271515 1 0.5973909726359312167 1 0.7979487995387120058 1 
	1 3 
	-10 12.99038105676658006 7.499999999999981348 1 
	-9.999681275673554026 13.27316053031887755 7.010211584469824508 1 
	-9.963096890772678904 13.83919135120141419 6.02981744405134279 1 
	-9.797703894797844981 14.68954774617665926 4.556956963413115069 0.999999999999999778 
	-9.528356007125021065 15.54310347028250483 3.078555082170540302 1.000000000000000222 
	-9.153979485646679848 16.4167265963830431 1.565395441097265028 1 
	-8.836627521740833657 17.01619875508718138 0.5270792044987026026 0.999999999999999889 
	-8.660254037844399733 17.32050807568875683 0 1 
	0.01000000000000000021 
	cone -8.660254037844383745 0 0 -1 0 0 0 0 -17.32050807568877815 1 I I -0.8660254037844387076 0.499999999999999889 17.32050807568877815 forward I I I I 
	plane 0 8.66025403784437664 15 0 0.8660254037844388186 0.499999999999999889 0 5 -8.660254037844390851 forward_v I I I I 
	nullbs 
	nullbs 
	I I 
	0 
	0 
	0 
	} I I #
intcurve-curve $-1 forward { surfintcur full nurbs 3 open 6 
	0 3 0.2020512004612894652 1 0.4026090273640706707 1 0.6020960830054735702 1 0.8011407656405848954 1 
	0.999999999999999889 3 
	-8.660254037844389075 8.66025403784437664 15 1 
	-8.836627521740830105 8.964563358445973407 14.47292079550126509 1 
	-9.15397948564668873 9.564035517150136556 13.43460455890266481 1 
	-9.528356007125037053 10.43765864325068904 11.92144491782935312 1 
	-9.797703894797844981 11.29121436735650086 10.44304303658684141 1 
	-9.96309689077268068 12.14157076233173882 8.97018255594862346 1 
	-9.99968127567355225 12.70760158321428079 7.989788415530143517 1 
	-10 12.99038105676658006 7.499999999999981348 1 
	0.01000000000000000021 
	cone -8.660254037844383745 0 0 -1 0 0 0 0 -17.32050807568877815 1 I I -0.8660254037844387076 0.499999999999999889 17.32050807568877815 forward I I I I 
	plane 0 8.66025403784437664 15 0 0.8660254037844388186 0.499999999999999889 0 5 -8.660254037844390851 forward_v I I I I 
	nullbs 
	nullbs 
	I I 
	0 
	0 
	0 
	} I I #
point $-1 -8.660254037844389075 8.66025403784437664 15 #
point $-1 -8.660254037844389075 -8.66025403784437664 15 #
intcurve-curve $-1 forward { surfintcur full nurbs 3 open 6 
	0 3 0.1989627992287851255 1 0.3982940125067687132 1 0.5978628157663850029 1 0.7982789389003794867 1 
	1 3 
	-9.999999999940420992 -1.833139195994704096e-09 15 1 
	-9.999845820027374543 0.5660571248303719605 15 1 
	-9.963103116872060738 1.701179050227901612 15 1 
	-9.795130138901583905 3.420706430037135259 15.00000000000000178 0.999999999999999778 
	-9.523534152433700939 5.130757655850079146 15.00000000000000355 1 
	-9.149487016759389135 6.870266306747275564 15 1.000000000000000222 
	-8.834724489307147266 8.05857503060756919 15.00000000000000178 0.999999999999999889 
	-8.660254037844389075 8.66025403784437664 15 1 
	0.01000000000000000021 
	cone -8.660254037844383745 0 0 -1 0 0 0 0 -17.32050807568877815 1 I I -0.8660254037844387076 0.499999999999999889 17.32050807568877815 forward I I I I 
	plane 0 -8.66025403784437664 15 0 0 1 0 10 0 forward_v I I I I 
	nullbs 
	nullbs 
	I I 
	0 
	0 
	0 
	} I I #
End-of-ACIS-data 