600 0 1 0           
103 GICL Pro/E ACIS Translator - Source: f:/data5/repository/PTC/V18/asmdes18/parts/hex_cap_screw.prt - 6 0 13 ACIS 6.0.3 NT 24 Thu Apr 04 13:45:14 2002 
1 9.9999999999999995e-007 1e-010 
body $-1 $1 $-1 $2 #
lump $-1 $-1 $3 $0 #
transform $-1 1 0 0 0 1 0 0 0 1 0 0 0 10 no_rotate no_reflect no_shear #
shell $-1 $-1 $-1 $4 $-1 $1 #
face $-1 $5 $6 $3 $-1 $7 forward single #
face $-1 $8 $9 $3 $-1 $10 forward single #
loop $-1 $-1 $11 $4 #
plane-surface $-1 6 0 0 1 0 0 0 0 1 forward_v I I I I #
face $-1 $12 $13 $3 $-1 $14 forward single #
loop $-1 $-1 $15 $5 #
cone-surface $-1 5.75 0 0 1 0 0 0 0 0.99999999999999989 1 I I -0.70710678118654746 0.70710678118654757 0.99999999999999989 forward I I I I #
coedge $-1 $16 $16 $17 $18 forward $6 $-1 #
face $-1 $19 $20 $3 $-1 $21 forward single #
loop $-1 $-1 $22 $8 #
cone-surface $-1 4.4249999999999998 0 0 1 0 0 0 0 1 1 I I 0 1 1 forward I I I I #
coedge $-1 $23 $24 $25 $26 forward $9 $-1 #
coedge $-1 $11 $11 $27 $28 reversed $6 $-1 #
coedge $-1 $24 $23 $11 $18 reversed $9 $-1 #
edge $-1 $29 0 $30 3.1415926535897931 $11 $31 forward 7 unknown #
face $-1 $32 $33 $3 $-1 $34 forward single #
loop $-1 $-1 $35 $12 #
cone-surface $-1 4.4249999999999998 0 0 1 0 0 0 0 1 1 I I 0 1 1 forward I I I I #
coedge $-1 $25 $36 $37 $38 forward $13 $-1 #
coedge $-1 $17 $15 $39 $40 reversed $9 $-1 #
coedge $-1 $15 $17 $41 $42 forward $9 $-1 #
coedge $-1 $43 $22 $15 $26 reversed $13 $-1 #
edge $-1 $44 0 $45 3.1415926535897931 $15 $46 forward 7 unknown #
coedge $-1 $39 $41 $16 $28 forward $33 $-1 #
edge $-1 $29 0 $30 3.1415926535897927 $16 $47 forward 7 unknown #
vertex $-1 $28 $48 #
vertex $-1 $28 $49 #
ellipse-curve $-1 6 -1.1102230246251565e-016 0 1 0 0 0 2.0286777899919392e-016 -0.75 1 I I #
face $-1 $50 $51 $3 $-1 $52 reversed single #
loop $-1 $-1 $27 $19 #
cone-surface $-1 5.75 0 0 1 0 0 0 0 0.99999999999999989 1 I I -0.70710678118654746 0.70710678118654757 0.99999999999999989 forward I I I I #
coedge $-1 $53 $54 $43 $55 reversed $20 $-1 #
coedge $-1 $22 $43 $56 $57 forward $13 $-1 #
coedge $-1 $54 $53 $22 $38 reversed $20 $-1 #
edge $-1 $58 0 $45 5.75 $22 $59 forward 7 unknown #
coedge $-1 $60 $27 $23 $40 forward $33 $-1 #
edge $-1 $30 0 $45 0.35355339059327373 $23 $61 forward 7 unknown #
coedge $-1 $27 $60 $24 $42 reversed $33 $-1 #
edge $-1 $29 0 $44 0.35355339059327368 $24 $62 forward 7 unknown #
coedge $-1 $36 $25 $35 $55 forward $13 $-1 #
vertex $-1 $42 $63 #
vertex $-1 $40 $64 #
ellipse-curve $-1 5.75 0 0 1 0 0 0 1.2246063538223773e-016 -1 1 I I #
ellipse-curve $-1 6 1.1102230246251565e-016 2.7755575615628914e-017 -1 0 0 0 -1.9176825925837384e-017 -0.75 1 I I #
point $-1 6 9.184547653667827e-017 -0.75 #
point $-1 6 -1.8369095307335654e-016 0.75 #
face $-1 $65 $66 $3 $-1 $67 forward single #
loop $-1 $68 $69 $32 #
plane-surface $-1 0 0 0 -1 0 0 0 1 0 forward_v I I I I #
coedge $-1 $37 $35 $60 $70 forward $20 $-1 #
coedge $-1 $35 $37 $69 $71 forward $20 $-1 #
edge $-1 $44 0 $72 5.75 $43 $73 forward 7 unknown #
coedge $-1 $69 $69 $36 $57 reversed $51 $-1 #
edge $-1 $72 0 $58 3.1415926535897931 $36 $74 forward 7 unknown #
vertex $-1 $57 $75 #
straight-curve $-1 0 -2.4492127076447545e-016 1 1 0 0 I I #
coedge $-1 $41 $39 $53 $70 reversed $33 $-1 #
straight-curve $-1 6 -1.8369095307335654e-016 0.75 -0.70710678118654768 5.1955647424316128e-016 0.70710678118654735 I I #
straight-curve $-1 6 9.184547653667827e-017 -0.75 -0.70710678118654768 -6.0614921995035485e-016 -0.70710678118654735 I I #
point $-1 5.75 1.224606353822377e-016 -0.99999999999999989 #
point $-1 5.75 -2.4492127076447545e-016 1 #
face $-1 $76 $77 $3 $-1 $78 forward single #
loop $-1 $-1 $79 $50 #
cone-surface $-1 0.0049999999999998934 0 0 -1 0 0 0 0 -1.25 1 I I 0 1 1.25 forward I I I I #
loop $-1 $-1 $80 $32 #
coedge $-1 $56 $56 $54 $71 reversed $51 $-1 #
edge $-1 $44 0 $45 3.1415926535897931 $60 $81 forward 7 unknown #
edge $-1 $58 0 $72 3.1415926535897931 $54 $82 forward 7 unknown #
vertex $-1 $57 $83 #
straight-curve $-1 5.75 1.2246063538223773e-016 -1 -1 0 0 I I #
ellipse-curve $-1 0 -5.5511151231257827e-017 2.7755575615628914e-017 1 0 0 0 5.5511151231257827e-017 -1 1 I I #
point $-1 0 0 1 #
face $-1 $84 $85 $3 $-1 $86 reversed single #
loop $-1 $-1 $87 $65 #
cone-surface $-1 0.0049999999999998934 0 0 -1 0 0 0 0 -1.25 1 I I 0 1 1.25 forward I I I I #
coedge $-1 $88 $89 $90 $91 reversed $66 $-1 #
coedge $-1 $92 $92 $89 $93 reversed $68 $-1 #
ellipse-curve $-1 5.75 0 0 -1 0 0 0 1.2246063538223773e-016 -1 1 I I #
ellipse-curve $-1 0 -2.7755575615628914e-017 0 1 0 0 0 2.7755575615628914e-017 1 1 I I #
point $-1 0 0 -1 #
face $-1 $94 $95 $3 $-1 $96 forward single #
loop $-1 $97 $98 $76 #
plane-surface $-1 -0.099999999999999992 0 0 -1 0 0 0 0 -1 forward_v I I I I #
coedge $-1 $99 $100 $101 $102 reversed $77 $-1 #
coedge $-1 $101 $79 $103 $104 forward $66 $-1 #
coedge $-1 $79 $101 $80 $93 forward $66 $-1 #
coedge $-1 $100 $99 $79 $91 forward $77 $-1 #
edge $-1 $105 0 $106 0.099999999999999992 $90 $107 forward 7 unknown #
coedge $-1 $80 $80 $100 $108 reversed $68 $-1 #
edge $-1 $109 0 $106 3.1415926535897931 $80 $110 forward 7 unknown #
face $-1 $111 $112 $3 $-1 $113 forward single #
loop $-1 $-1 $114 $84 #
plane-surface $-1 0 0.86602540378443771 -1.5 0 0 -1 0 -1 0 forward_v I I I I #
loop $-1 $-1 $115 $76 #
coedge $-1 $103 $103 $99 $116 forward $85 $-1 #
coedge $-1 $90 $87 $98 $116 reversed $77 $-1 #
coedge $-1 $87 $90 $92 $108 forward $77 $-1 #
coedge $-1 $89 $88 $87 $102 forward $66 $-1 #
edge $-1 $117 0 $109 0.099999999999999992 $87 $118 forward 7 unknown #
coedge $-1 $98 $98 $88 $104 reversed $85 $-1 #
edge $-1 $105 0 $117 3.1415926535897931 $103 $119 forward 7 unknown #
vertex $-1 $104 $120 #
vertex $-1 $108 $121 #
straight-curve $-1 -0.099999999999999992 0 -1.25 1 0 0 I I #
edge $-1 $106 0 $109 3.1415926535897931 $92 $122 forward 7 unknown #
vertex $-1 $108 $123 #
ellipse-curve $-1 0 -1.1102230246251565e-016 5.5511151231257827e-017 -1 0 0 0 1.1102230246251565e-016 1.25 1 I I #
face $-1 $124 $125 $3 $-1 $126 forward single #
loop $-1 $-1 $127 $94 #
cone-surface $-1 -0.86602540378443837 0 0 -1 0 0 0 0 -1.7320508075688779 1 I I -0.86602540378443871 0.49999999999999989 1.7320508075688779 forward I I I I #
coedge $-1 $128 $129 $130 $131 reversed $95 $-1 #
coedge $-1 $132 $133 $134 $135 reversed $97 $-1 #
edge $-1 $105 0 $117 3.1415926535897931 $98 $136 forward 7 unknown #
vertex $-1 $104 $137 #
straight-curve $-1 -0.099999999999999992 1.5307579422779716e-016 1.25 1 0 0 I I #
ellipse-curve $-1 -0.099999999999999992 5.5511151231257827e-017 -1.1102230246251565e-016 1 0 0 0 -5.5511151231257827e-017 -1.25 1 I I #
point $-1 -0.099999999999999992 0 -1.25 #
point $-1 0 0 -1.25 #
ellipse-curve $-1 0 1.1102230246251565e-016 -5.5511151231257827e-017 -1 0 0 0 -1.1102230246251565e-016 -1.25 1 I I #
point $-1 0 0 1.25 #
face $-1 $138 $139 $3 $-1 $140 forward single #
loop $-1 $-1 $141 $111 #
plane-surface $-1 -1 0 0 -1 0 0 0 1 0 forward_v I I I I #
coedge $-1 $130 $142 $143 $144 reversed $112 $-1 #
coedge $-1 $145 $114 $146 $147 reversed $95 $-1 #
coedge $-1 $114 $134 $148 $149 forward $95 $-1 #
coedge $-1 $142 $127 $114 $131 forward $112 $-1 #
edge $-1 $150 0 $151 0.99999999999999989 $114 $152 forward 7 unknown #
coedge $-1 $153 $115 $154 $155 reversed $97 $-1 #
coedge $-1 $115 $156 $157 $158 reversed $97 $-1 #
coedge $-1 $129 $145 $115 $135 forward $95 $-1 #
edge $-1 $159 1.2212453270876722e-015 $160 1.7320508075688754 $134 $161 forward 7 unknown #
ellipse-curve $-1 -0.099999999999999992 -5.5511151231257827e-017 -1.1102230246251565e-016 -1 0 0 0 5.5511151231257827e-017 -1.25 1 I I #
point $-1 -0.099999999999999992 1.5307579422779716e-016 1.25 #
face $-1 $162 $163 $3 $-1 $164 forward single #
loop $-1 $-1 $165 $124 #
cone-surface $-1 -0.86602540378443837 0 0 -1 0 0 0 0 -1.7320508075688779 1 I I -0.86602540378443871 0.49999999999999989 1.7320508075688779 forward I I I I #
coedge $-1 $166 $143 $165 $167 forward $125 $-1 #
coedge $-1 $127 $130 $168 $169 forward $112 $-1 #
coedge $-1 $141 $170 $127 $144 forward $125 $-1 #
edge $-1 $150 0 $171 1.0471975512861273 $143 $172 forward 7 unknown #
coedge $-1 $134 $128 $173 $174 reversed $95 $-1 #
coedge $-1 $175 $176 $128 $147 forward $177 $-1 #
edge $-1 $178 0 $150 0.99999999999999989 $128 $179 forward 7 unknown #
coedge $-1 $157 $168 $129 $149 reversed $163 $-1 #
edge $-1 $160 0 $151 0.76602540378443884 $148 $180 forward 7 unknown #
vertex $-1 $144 $181 #
vertex $-1 $149 $182 #
intcurve-curve $-1 forward { surfintcur full nurbs 3 open 6 
	0 3 0.19896279922878476 1 0.39829401250676877 1 0.59786281576638567 1 0.79827893890038004 1 
	0.99999999999999989 3 
	-0.9999999999940421 1.8331380857716795e-010 -1.5 1 
	-0.99998458200273765 -0.056605712483036093 -1.5000000000000002 1 
	-0.99631031168720563 -0.17011790502278779 -1.4999999999999996 1 
	-0.97951301389015855 -0.34207064300371426 -1.5 1 
	-0.95235341524336881 -0.51307576558501178 -1.5 1.0000000000000002 
	-0.914948701675938 -0.68702663067473113 -1.4999999999999996 0.99999999999999978 
	-0.88347244893071442 -0.80585750306075854 -1.5000000000000002 1 
	-0.86602540378443882 -0.86602540378443771 -1.5 1 
	0.001 
	cone -0.86602540378443837 0 0 -1 0 0 0 0 -1.7320508075688779 1 I I -0.86602540378443871 0.49999999999999989 1.7320508075688779 forward I I I I 
	plane 0 0.86602540378443771 -1.5 0 0 -1 0 -1 0 forward_v I I I I 
	nullbs 
	nullbs 
	I I 
	0 
	0 
	0 
	} I I #
coedge $-1 $183 $132 $184 $185 reversed $97 $-1 #
coedge $-1 $173 $186 $132 $155 forward $187 $-1 #
edge $-1 $188 0 $159 1.7320508075688772 $154 $189 forward 7 unknown #
coedge $-1 $133 $183 $190 $191 reversed $97 $-1 #
coedge $-1 $192 $148 $133 $158 forward $163 $-1 #
edge $-1 $160 0 $193 1.7320508075688763 $157 $194 forward 7 unknown #
vertex $-1 $174 $195 #
vertex $-1 $149 $196 #
straight-curve $-1 -0.099999999999999992 0.86602540378443771 -1.5 0 -1 0 I I #
face $-1 $197 $198 $3 $-1 $199 forward single #
loop $-1 $-1 $157 $138 #
plane-surface $-1 0 -0.86602540378443771 -1.5 0 -0.86602540378443882 -0.49999999999999989 0 -0.5 0.86602540378443904 forward_v I I I I #
coedge $-1 $200 $201 $141 $167 reversed $139 $-1 #
coedge $-1 $202 $141 $203 $204 forward $125 $-1 #
edge $-1 $171 0 $205 1.047197551113543 $141 $206 forward 7 unknown #
coedge $-1 $148 $207 $142 $169 reversed $163 $-1 #
edge $-1 $151 0 $171 0.99999999999999989 $168 $208 forward 7 unknown #
coedge $-1 $143 $209 $175 $210 forward $125 $-1 #
vertex $-1 $144 $211 #
ellipse-curve $-1 -1 -7.4395212212863271e-012 -6.9071415254029489e-012 -1 0 0 0 7.4395212212863271e-012 -1.4999999999901019 1 I I #
coedge $-1 $212 $154 $145 $174 forward $187 $-1 #
edge $-1 $159 0 $178 0.76602540378443895 $173 $213 forward 7 unknown #
coedge $-1 $176 $146 $170 $210 reversed $177 $-1 #
coedge $-1 $146 $175 $212 $214 forward $177 $-1 #
loop $-1 $-1 $175 $215 #
vertex $-1 $214 $216 #
intcurve-curve $-1 forward { surfintcur full nurbs 3 open 6 
	0 3 0.20196719196560126 1 0.40246041357523032 1 0.60198765008372923 1 0.80119996753950362 1 
	0.99999999999999989 3 
	-0.86602540378443893 0.86602540378443771 -1.5 1 
	-0.88361821654331996 0.80531931400091883 -1.5 1 
	-0.91528975465462614 0.68568993633615549 -1.5 1 
	-0.9526765555075154 0.51135068092828107 -1.5000000000000002 0.99999999999999978 
	-0.97969938204791285 0.34055809212810684 -1.5 1 
	-0.99634835884858031 0.16924634412105535 -1.5 1 
	-0.99998949209695853 0.056286143284757215 -1.5 1 
	-0.9999999999940421 1.8331380857716795e-010 -1.5 1 
	0.001 
	cone -0.86602540378443837 0 0 -1 0 0 0 0 -1.7320508075688779 1 I I -0.86602540378443871 0.49999999999999989 1.7320508075688779 forward I I I I 
	plane 0 0.86602540378443771 -1.5 0 0 -1 0 -1 0 forward_v I I I I 
	nullbs 
	nullbs 
	I I 
	0 
	0 
	0 
	} I I #
straight-curve $-1 -0.099999999999999992 -0.86602540378443771 -1.5 -1 0 0 I I #
point $-1 -1 0 -1.4999999999970091 #
point $-1 -0.86602540378443882 -0.86602540378443771 -1.5 #
coedge $-1 $156 $153 $217 $218 reversed $97 $-1 #
coedge $-1 $219 $220 $153 $185 forward $221 $-1 #
edge $-1 $222 0 $188 1.7320508075688763 $184 $223 forward 7 unknown #
coedge $-1 $154 $224 $219 $225 reversed $187 $-1 #
loop $-1 $-1 $154 $226 #
vertex $-1 $225 $227 #
straight-curve $-1 -0.099999999999999992 1.7320508075688748 0 0 -0.49999999999999989 -0.86602540378443882 I I #
coedge $-1 $228 $229 $156 $191 forward $198 $-1 #
edge $-1 $193 0 $230 1.7320508075688767 $190 $231 forward 7 unknown #
coedge $-1 $207 $157 $229 $232 forward $163 $-1 #
vertex $-1 $232 $233 #
straight-curve $-1 -0.099999999999999992 -0.86602540378443771 -1.5 0 -0.49999999999999983 0.86602540378443871 I I #
point $-1 -0.099999999999999992 0.86602540378443649 -1.5 #
point $-1 -0.099999999999999992 -0.86602540378443771 -1.5 #
face $-1 $234 $235 $3 $-1 $236 forward single #
loop $-1 $-1 $190 $162 #
plane-surface $-1 0 -1.7320508075688748 0 0 -0.86602540378443882 0.49999999999999989 0 0.5 0.86602540378443904 forward_v I I I I #
coedge $-1 $201 $165 $207 $237 forward $139 $-1 #
coedge $-1 $165 $200 $238 $239 forward $139 $-1 #
coedge $-1 $209 $166 $240 $241 forward $125 $-1 #
coedge $-1 $242 $243 $166 $204 reversed $244 $-1 #
edge $-1 $205 8.3061508290113437e-011 $245 1.0471975511661893 $166 $246 forward 7 unknown #
vertex $-1 $204 $247 #
ellipse-curve $-1 -1 -1.2101430968414206e-014 -5.5511151231257827e-017 -1 0 0 0 -1.2990381057389411 -0.74999999989209831 1 I I #
coedge $-1 $168 $192 $200 $237 reversed $163 $-1 #
intcurve-curve $-1 forward { surfintcur full nurbs 3 open 6 
	0 3 0.20205120046128794 1 0.40260902736406923 1 0.60209608300547235 1 0.80114076564058401 1 
	0.99999999999999989 3 
	-0.86602540378443882 -0.86602540378443771 -1.5 1 
	-0.88366275217408219 -0.89645633584459572 -1.4472920795501301 0.99999999999999989 
	-0.91539794856466639 -0.95640355171500924 -1.3434604558902736 0.99999999999999989 
	-0.95283560071250262 -1.0437658643250656 -1.1921444917829416 1 
	-0.97977038947978345 -1.1291214367356472 -1.0443043036586892 1 
	-0.99630968907726791 -1.2141570762331715 -0.89701825559486648 0.99999999999999989 
	-0.99996812756735509 -1.2707601583214272 -0.79897884155301591 1 
	-1 -1.299038105676658 -0.74999999999999811 1 
	0.001 
	cone -0.86602540378443837 0 0 -1 0 0 0 0 -1.7320508075688779 1 I I -0.86602540378443871 0.49999999999999989 1.7320508075688779 forward I I I I 
	plane 0 -0.86602540378443771 -1.5 0 -0.86602540378443882 -0.49999999999999989 0 -0.5 0.86602540378443904 forward_v I I I I 
	nullbs 
	nullbs 
	I I 
	0 
	0 
	0 
	} I I #
coedge $-1 $170 $202 $248 $249 forward $125 $-1 #
edge $-1 $250 8.3061409603622387e-011 $150 1.0471975512883986 $170 $251 forward 7 unknown #
point $-1 -1 -1.2990381057389531 -0.74999999989209842 #
coedge $-1 $224 $173 $176 $214 reversed $187 $-1 #
straight-curve $-1 -0.099999999999999992 0.86602540378443682 -1.4999999999999993 -1 0 0 I I #
edge $-1 $250 0 $178 0.99999999999999989 $212 $252 forward 7 unknown #
face $-1 $253 $177 $3 $-1 $254 forward single #
point $-1 -0.86602540378443893 0.86602540378443771 -1.5 #
coedge $-1 $255 $256 $183 $218 forward $235 $-1 #
edge $-1 $230 0 $222 1.7320508075688754 $217 $257 forward 7 unknown #
coedge $-1 $258 $184 $186 $225 forward $221 $-1 #
coedge $-1 $184 $259 $255 $260 reversed $221 $-1 #
loop $-1 $-1 $184 $234 #
vertex $-1 $260 $261 #
straight-curve $-1 -0.099999999999999992 0.86602540378443771 1.5 0 0.49999999999999983 -0.86602540378443871 I I #
coedge $-1 $186 $212 $262 $263 reversed $187 $-1 #
edge $-1 $188 0 $264 0.76602540378444006 $219 $265 forward 7 unknown #
face $-1 $215 $187 $3 $-1 $266 forward single #
point $-1 -0.099999999999999992 1.7320508075688748 0 #
coedge $-1 $267 $190 $256 $268 forward $198 $-1 #
coedge $-1 $190 $238 $192 $232 reversed $198 $-1 #
vertex $-1 $268 $269 #
straight-curve $-1 -0.099999999999999992 -1.7320508075688748 0 0 0.49999999999999989 0.86602540378443882 I I #
edge $-1 $193 0 $270 0.76602540378444006 $192 $271 forward 7 unknown #
point $-1 -0.099999999999999992 -1.7320508075688748 0 #
face $-1 $226 $221 $3 $-1 $272 forward single #
loop $-1 $-1 $217 $197 #
plane-surface $-1 0 -0.86602540378443771 1.5 0 0 1 0 1 0 forward_v I I I I #
edge $-1 $171 0 $270 1 $207 $273 forward 7 unknown #
coedge $-1 $229 $267 $201 $239 reversed $198 $-1 #
edge $-1 $270 0 $205 0.99999999999999989 $238 $274 forward 7 unknown #
coedge $-1 $275 $276 $202 $241 reversed $277 $-1 #
edge $-1 $245 -1.2220927973353313e-010 $278 1.0471975512030665 $202 $279 forward 7 unknown #
coedge $-1 $243 $203 $267 $280 forward $244 $-1 #
coedge $-1 $203 $242 $281 $282 forward $244 $-1 #
loop $-1 $-1 $203 $283 #
vertex $-1 $241 $284 #
ellipse-curve $-1 -1 -9.1428253856662423e-012 9.8574481910418399e-012 -1 0 0 0 -1.2990381057298102 0.74999999988224086 1 I I #
point $-1 -1 -1.2990381056766567 0.74999999999999822 #
coedge $-1 $285 $262 $209 $249 reversed $286 $-1 #
edge $-1 $278 -8.3060965512990794e-011 $250 1.0471975511135427 $209 $287 forward 7 unknown #
vertex $-1 $210 $288 #
ellipse-curve $-1 -1 9.1430474302711673e-012 -9.8575592133443024e-012 -1 0 0 0 1.2990381057298099 -0.74999999988224086 1 I I #
intcurve-curve $-1 forward { surfintcur full nurbs 3 open 6 
	0 3 0.19885923435941524 1 0.39790391699452632 1 0.59739097263592955 1 0.79794879953871123 1 
	0.99999999999999989 3 
	-1 1.2990381056766567 -0.74999999999999822 1 
	-0.9999681275673552 1.270760158321427 -0.79897884155301502 0.99999999999999989 
	-0.99630968907726769 1.2141570762331722 -0.89701825559486348 1.0000000000000002 
	-0.97977038947978423 1.1291214367356495 -1.0443043036586832 1.0000000000000002 
	-0.95283560071250406 1.0437658643250676 -1.192144491782936 0.99999999999999989 
	-0.91539794856466739 0.95640355171501001 -1.3434604558902705 1 
	-0.8836627521740823 0.89645633584459483 -1.4472920795501285 1.0000000000000002 
	-0.86602540378443893 0.86602540378443649 -1.5 1 
	0.001 
	cone -0.86602540378443837 0 0 -1 0 0 0 0 -1.7320508075688779 1 I I -0.86602540378443871 0.49999999999999989 1.7320508075688779 forward I I I I 
	plane 0 1.7320508075688748 0 0 0.86602540378443882 -0.49999999999999989 0 -0.5 -0.86602540378443904 forward_v I I I I 
	nullbs 
	nullbs 
	I I 
	0 
	0 
	0 
	} I I #
face $-1 $289 $286 $3 $-1 $290 forward single #
cone-surface $-1 -0.86602540378443837 0 0 -1 0 0 0 0 -1.7320508075688779 1 I I -0.86602540378443871 0.49999999999999989 1.7320508075688779 forward I I I I #
coedge $-1 $291 $217 $220 $260 forward $235 $-1 #
coedge $-1 $217 $281 $228 $268 reversed $235 $-1 #
straight-curve $-1 -0.099999999999999992 -0.86602540378443771 1.5 0 1 0 I I #
coedge $-1 $259 $219 $285 $292 reversed $221 $-1 #
coedge $-1 $220 $258 $276 $293 reversed $221 $-1 #
edge $-1 $222 0 $294 0.76602540378443895 $255 $295 forward 7 unknown #
point $-1 -0.099999999999999992 0.86602540378443771 1.5 #
coedge $-1 $248 $285 $224 $263 forward $286 $-1 #
edge $-1 $264 0 $250 0.99999999999999989 $224 $296 forward 7 unknown #
vertex $-1 $292 $297 #
straight-curve $-1 -0.099999999999999992 1.7320508075688756 6.6613381477509392e-016 -1 0 0 I I #
plane-surface $-1 0 1.7320508075688748 0 0 0.86602540378443882 -0.49999999999999989 0 -0.5 -0.86602540378443904 forward_v I I I I #
coedge $-1 $238 $228 $242 $280 reversed $198 $-1 #
edge $-1 $230 0 $298 0.76602540378443895 $228 $299 forward 7 unknown #
point $-1 -0.099999999999999992 -0.86602540378443771 1.5 #
vertex $-1 $237 $300 #
straight-curve $-1 -0.099999999999999992 -1.7320508075688756 -6.6613381477509392e-016 -1 0 0 I I #
plane-surface $-1 0 0.86602540378443771 1.5 0 0.86602540378443882 0.49999999999999989 0 0.5 -0.86602540378443904 forward_v I I I I #
intcurve-curve $-1 forward { surfintcur full nurbs 3 open 6 
	0 3 0.19885923435941577 1 0.39790391699452726 1 0.59739097263592988 1 0.79794879953871045 1 
	1 3 
	-1 -1.299038105676658 -0.74999999999999811 1 
	-0.99996812756735542 -1.3273160530318886 -0.70102115844698076 1 
	-0.99630968907726813 -1.3839191351201432 -0.60298174440513108 1 
	-0.97977038947978379 -1.468954774617667 -0.45569569634131052 1 
	-0.95283560071250406 -1.5543103470282471 -0.30785550821706004 1.0000000000000002 
	-0.91539794856466949 -1.6416726596383002 -0.15653954410973384 0.99999999999999978 
	-0.88366275217408419 -1.7016198755087162 -0.052707920449873609 1 
	-0.86602540378444004 -1.7320508075688759 0 1 
	0.001 
	cone -0.86602540378443837 0 0 -1 0 0 0 0 -1.7320508075688779 1 I I -0.86602540378443871 0.49999999999999989 1.7320508075688779 forward I I I I 
	plane 0 -0.86602540378443771 -1.5 0 -0.86602540378443882 -0.49999999999999989 0 -0.5 0.86602540378443904 forward_v I I I I 
	nullbs 
	nullbs 
	I I 
	0 
	0 
	0 
	} I I #
intcurve-curve $-1 forward { surfintcur full nurbs 3 open 6 
	0 3 0.2020512004612893 1 0.40260902736407056 1 0.60209608300547368 1 0.80114076564058478 1 
	0.99999999999999989 3 
	-0.86602540378444004 -1.7320508075688748 0 1 
	-0.88366275217408408 -1.7016198755087153 0.052707920449872818 0.99999999999999989 
	-0.91539794856466938 -1.6416726596382996 0.1565395441097327 1 
	-0.95283560071250406 -1.5543103470282447 0.30785550821706287 1.0000000000000002 
	-0.97977038947978479 -1.4689547746176621 0.4556956963413154 0.99999999999999978 
	-0.99630968907726802 -1.3839191351201408 0.60298174440513397 1.0000000000000002 
	-0.99996812756735509 -1.3273160530318866 0.70102115844698187 1 
	-1 -1.2990381056766567 0.74999999999999822 1 
	0.001 
	cone -0.86602540378443837 0 0 -1 0 0 0 0 -1.7320508075688779 1 I I -0.86602540378443871 0.49999999999999989 1.7320508075688779 forward I I I I 
	plane 0 -1.7320508075688748 0 0 -0.86602540378443882 0.49999999999999989 0 0.5 0.86602540378443904 forward_v I I I I 
	nullbs 
	nullbs 
	I I 
	0 
	0 
	0 
	} I I #
coedge $-1 $276 $240 $291 $301 forward $277 $-1 #
coedge $-1 $240 $275 $259 $293 forward $277 $-1 #
loop $-1 $-1 $240 $289 #
vertex $-1 $249 $302 #
ellipse-curve $-1 -1 7.439604488013174e-012 6.9073080588566427e-012 -1 0 0 0 -7.439604488013174e-012 1.4999999999901017 1 I I #
edge $-1 $205 0 $298 0.99999999999999989 $267 $303 forward 7 unknown #
coedge $-1 $256 $291 $243 $282 reversed $235 $-1 #
edge $-1 $298 0 $245 1 $281 $304 forward 7 unknown #
face $-1 $-1 $244 $3 $-1 $305 forward single #
point $-1 -0.9999999999940421 -1.8331391959947041e-010 1.5 #
coedge $-1 $262 $248 $258 $292 forward $286 $-1 #
loop $-1 $-1 $248 $253 #
ellipse-curve $-1 -1 1.1546319456101628e-014 -8.3266726846886741e-017 -1 0 0 0 1.2990381057389415 0.74999999989209842 1 I I #
point $-1 -1 1.2990381056766567 -0.74999999999999822 #
face $-1 $283 $277 $3 $-1 $306 forward single #
cone-surface $-1 -0.86602540378443837 0 0 -1 0 0 0 0 -1.7320508075688779 1 I I -0.86602540378443871 0.49999999999999989 1.7320508075688779 forward I I I I #
coedge $-1 $281 $255 $275 $301 reversed $235 $-1 #
edge $-1 $278 0 $264 1 $258 $307 forward 7 unknown #
edge $-1 $294 0 $278 0.99999999999999989 $259 $308 forward 7 unknown #
vertex $-1 $301 $309 #
straight-curve $-1 -0.099999999999999992 0.86602540378443771 1.5 -1 0 0 I I #
intcurve-curve $-1 forward { surfintcur full nurbs 3 open 6 
	0 3 0.20205120046128902 1 0.40260902736406989 1 0.60209608300547313 1 0.80114076564058456 1 
	0.99999999999999989 3 
	-0.86602540378444004 1.7320508075688748 0 1 
	-0.88366275217408363 1.7016198755087155 -0.052707920449872415 1 
	-0.91539794856466872 1.6416726596383002 -0.15653954410973139 1.0000000000000002 
	-0.95283560071250339 1.5543103470282462 -0.30785550821705931 1.0000000000000002 
	-0.97977038947978456 1.4689547746176645 -0.45569569634131235 0.99999999999999989 
	-0.99630968907726813 1.383919135120141 -0.60298174440513375 1 
	-0.99996812756735509 1.3273160530318866 -0.70102115844698187 1.0000000000000002 
	-1 1.2990381056766567 -0.74999999999999822 1 
	0.001 
	cone -0.86602540378443837 0 0 -1 0 0 0 0 -1.7320508075688779 1 I I -0.86602540378443871 0.49999999999999989 1.7320508075688779 forward I I I I 
	plane 0 1.7320508075688748 0 0 0.86602540378443882 -0.49999999999999989 0 -0.5 -0.86602540378443904 forward_v I I I I 
	nullbs 
	nullbs 
	I I 
	0 
	0 
	0 
	} I I #
point $-1 -0.86602540378444004 1.7320508075688748 0 #
vertex $-1 $280 $310 #
straight-curve $-1 -0.099999999999999992 -0.86602540378443682 1.4999999999999993 -1 0 0 I I #
point $-1 -0.86602540378444004 -1.7320508075688748 0 #
edge $-1 $245 0 $294 1 $291 $311 forward 7 unknown #
point $-1 -1 1.299038105676658 0.74999999999999811 #
intcurve-curve $-1 forward { surfintcur full nurbs 3 open 6 
	0 3 0.19885923435941485 1 0.39790391699452599 1 0.59739097263592911 1 0.79794879953871034 1 
	0.99999999999999989 3 
	-1 -1.2990381056766567 0.74999999999999822 1 
	-0.99996812756735509 -1.2707601583214272 0.79897884155301391 1 
	-0.99630968907726813 -1.2141570762331733 0.8970182555948617 1 
	-0.97977038947978445 -1.1291214367356501 1.0443043036586817 1 
	-0.95283560071250439 -1.0437658643250687 1.1921444917829347 0.99999999999999978 
	-0.91539794856466861 -0.9564035517150129 1.3434604558902652 1.0000000000000002 
	-0.8836627521740833 -0.89645633584459661 1.4472920795501265 0.99999999999999978 
	-0.86602540378443893 -0.86602540378443649 1.5 1 
	0.001 
	cone -0.86602540378443837 0 0 -1 0 0 0 0 -1.7320508075688779 1 I I -0.86602540378443871 0.49999999999999989 1.7320508075688779 forward I I I I 
	plane 0 -1.7320508075688748 0 0 -0.86602540378443882 0.49999999999999989 0 0.5 0.86602540378443904 forward_v I I I I 
	nullbs 
	nullbs 
	I I 
	0 
	0 
	0 
	} I I #
intcurve-curve $-1 forward { surfintcur full nurbs 3 open 6 
	0 3 0.20196719196560026 1 0.40246041357522916 1 0.60198765008372912 1 0.80119996753950384 1 
	1 3 
	-0.86602540378443893 -0.86602540378443771 1.5 1 
	-0.88361821654331951 -0.80531931400092094 1.5 1 
	-0.91528975465462503 -0.68568993633616082 1.5000000000000004 0.99999999999999978 
	-0.95267655550751396 -0.51135068092828895 1.5 1 
	-0.97969938204791318 -0.3405580921281065 1.5000000000000002 0.99999999999999989 
	-0.99634835884858008 -0.16924634412105402 1.4999999999999996 1.0000000000000002 
	-0.99998949209695864 -0.056286143284756444 1.5000000000000002 1 
	-0.9999999999940421 -1.8331391959947041e-010 1.5 1 
	0.001 
	cone -0.86602540378443837 0 0 -1 0 0 0 0 -1.7320508075688779 1 I I -0.86602540378443871 0.49999999999999989 1.7320508075688779 forward I I I I 
	plane 0 -0.86602540378443771 1.5 0 0 1 0 1 0 forward_v I I I I 
	nullbs 
	nullbs 
	I I 
	0 
	0 
	0 
	} I I #
cone-surface $-1 -0.86602540378443837 0 0 -1 0 0 0 0 -1.7320508075688779 1 I I -0.86602540378443871 0.49999999999999989 1.7320508075688779 forward I I I I #
cone-surface $-1 -0.86602540378443837 0 0 -1 0 0 0 0 -1.7320508075688779 1 I I -0.86602540378443871 0.49999999999999989 1.7320508075688779 forward I I I I #
intcurve-curve $-1 forward { surfintcur full nurbs 3 open 6 
	0 3 0.19885923435941522 1 0.39790391699452715 1 0.59739097263593122 1 0.79794879953871201 1 
	1 3 
	-1 1.299038105676658 0.74999999999999811 1 
	-0.99996812756735542 1.3273160530318877 0.70102115844698243 1 
	-0.99630968907726791 1.3839191351201414 0.6029817444051343 1 
	-0.97977038947978445 1.4689547746176659 0.45569569634131152 0.99999999999999978 
	-0.95283560071250206 1.5543103470282504 0.30785550821705404 1.0000000000000002 
	-0.91539794856466794 1.6416726596383042 0.15653954410972651 1 
	-0.8836627521740833 1.7016198755087182 0.052707920449870264 0.99999999999999989 
	-0.86602540378444004 1.7320508075688759 0 1 
	0.001 
	cone -0.86602540378443837 0 0 -1 0 0 0 0 -1.7320508075688779 1 I I -0.86602540378443871 0.49999999999999989 1.7320508075688779 forward I I I I 
	plane 0 0.86602540378443771 1.5 0 0.86602540378443882 0.49999999999999989 0 0.5 -0.86602540378443904 forward_v I I I I 
	nullbs 
	nullbs 
	I I 
	0 
	0 
	0 
	} I I #
intcurve-curve $-1 forward { surfintcur full nurbs 3 open 6 
	0 3 0.20205120046128947 1 0.40260902736407067 1 0.60209608300547357 1 0.8011407656405849 1 
	0.99999999999999989 3 
	-0.86602540378443893 0.86602540378443771 1.5 1 
	-0.88366275217408297 0.89645633584459727 1.4472920795501265 1 
	-0.91539794856466883 0.95640355171501368 1.3434604558902665 1 
	-0.95283560071250373 1.0437658643250689 1.1921444917829354 1 
	-0.97977038947978445 1.1291214367356501 1.0443043036586841 1 
	-0.99630968907726813 1.2141570762331739 0.89701825559486237 1 
	-0.9999681275673552 1.2707601583214281 0.79897884155301435 1 
	-1 1.299038105676658 0.74999999999999811 1 
	0.001 
	cone -0.86602540378443837 0 0 -1 0 0 0 0 -1.7320508075688779 1 I I -0.86602540378443871 0.49999999999999989 1.7320508075688779 forward I I I I 
	plane 0 0.86602540378443771 1.5 0 0.86602540378443882 0.49999999999999989 0 0.5 -0.86602540378443904 forward_v I I I I 
	nullbs 
	nullbs 
	I I 
	0 
	0 
	0 
	} I I #
point $-1 -0.86602540378443893 0.86602540378443771 1.5 #
point $-1 -0.86602540378443893 -0.86602540378443771 1.5 #
intcurve-curve $-1 forward { surfintcur full nurbs 3 open 6 
	0 3 0.19896279922878513 1 0.39829401250676871 1 0.597862815766385 1 0.79827893890037949 1 
	1 3 
	-0.9999999999940421 -1.8331391959947041e-010 1.5 1 
	-0.99998458200273754 0.056605712483037196 1.5 1 
	-0.99631031168720607 0.17011790502279017 1.5 1 
	-0.97951301389015843 0.34207064300371354 1.5000000000000002 0.99999999999999978 
	-0.95235341524337003 0.51307576558500789 1.5000000000000004 1 
	-0.91494870167593889 0.68702663067472758 1.5 1.0000000000000002 
	-0.88347244893071475 0.80585750306075699 1.5000000000000002 0.99999999999999989 
	-0.86602540378443893 0.86602540378443771 1.5 1 
	0.001 
	cone -0.86602540378443837 0 0 -1 0 0 0 0 -1.7320508075688779 1 I I -0.86602540378443871 0.49999999999999989 1.7320508075688779 forward I I I I 
	plane 0 -0.86602540378443771 1.5 0 0 1 0 1 0 forward_v I I I I 
	nullbs 
	nullbs 
	I I 
	0 
	0 
	0 
	} I I #
End-of-ACIS-data 