600 0 1 0           
90 GICL ACIS Healer - Source: /gicl/data5/repository/PTC/V18/asmdes18/parts/hex_nut.sat - 6 0 18 ACIS 6.0.3 Solaris 24 Sat Apr 13 23:00:17 2002 
1 9.999999999999999547e-07 1.000000000000000036e-10 
body $-1 $1 $-1 $-1 #
lump $-1 $-1 $2 $0 #
shell $-1 $-1 $-1 $3 $-1 $1 #
face $-1 $4 $5 $2 $-1 $6 reversed single #
face $-1 $7 $8 $2 $-1 $9 reversed single #
loop $-1 $10 $11 $3 #
plane-surface $-1 0 0 0 0 1 0 10 0 0 forward_v I I I I #
face $-1 $12 $13 $2 $-1 $14 reversed single #
loop $-1 $-1 $15 $4 #
cone-surface $-1 0 1.999999999999999556 0 0 1 0 0 0 10.00000000000000178 1 I I -0.7071067811865475727 0.7071067811865474617 10.00000000000000178 forward I I I I #
loop $-1 $-1 $16 $3 #
coedge $-1 $17 $17 $18 $19 reversed $5 $-1 #
face $-1 $20 $21 $2 $-1 $22 reversed single #
loop $-1 $-1 $23 $7 #
cone-surface $-1 0 1.999999999999999556 0 0 1 0 0 0 10.00000000000000178 1 I I -0.7071067811865475727 0.7071067811865474617 10.00000000000000178 forward I I I I #
coedge $-1 $24 $18 $25 $26 forward $8 $-1 #
coedge $-1 $27 $28 $29 $30 forward $10 $-1 #
coedge $-1 $11 $11 $31 $32 reversed $5 $-1 #
coedge $-1 $15 $33 $11 $19 forward $8 $-1 #
edge $-1 $34 -2.449212707644754023e-16 $35 3.141592653589793116 $11 $36 forward 7 unknown #
face $-1 $37 $38 $2 $-1 $39 reversed single #
loop $-1 $-1 $40 $12 #
cone-surface $-1 0 10.49999999999999822 0 0 -1 0 0 0 10 1 I I 0 1 10 forward I I I I #
coedge $-1 $41 $31 $33 $42 forward $13 $-1 #
coedge $-1 $33 $15 $43 $44 reversed $8 $-1 #
coedge $-1 $31 $41 $15 $26 reversed $13 $-1 #
edge $-1 $35 0 $45 0.2828427124746188404 $15 $46 forward 7 unknown #
coedge $-1 $47 $16 $48 $49 forward $10 $-1 #
coedge $-1 $16 $50 $51 $52 forward $10 $-1 #
coedge $-1 $53 $54 $16 $30 reversed $55 $-1 #
edge $-1 $56 0 $57 1.047197551065183418 $16 $58 forward 7 unknown #
coedge $-1 $23 $25 $17 $32 forward $13 $-1 #
edge $-1 $35 1.095640146140293977e-32 $34 3.141592653589793116 $17 $59 forward 7 unknown #
coedge $-1 $18 $24 $23 $42 reversed $8 $-1 #
vertex $-1 $32 $60 #
vertex $-1 $32 $61 #
ellipse-curve $-1 -5.551115123125782702e-16 0 -5.551115123125782702e-16 7.804864535913027889e-33 -1 -4.625929269271485174e-17 2.02463913689943098e-15 5.551115123125782702e-16 -12.00000000000000178 1 I I #
face $-1 $62 $63 $2 $-1 $64 reversed single #
loop $-1 $-1 $65 $20 #
cone-surface $-1 0 10.49999999999999822 0 0 -1 0 0 0 10 1 I I 0 1 10 forward I I I I #
coedge $-1 $66 $67 $68 $69 reversed $21 $-1 #
coedge $-1 $25 $23 $67 $70 reversed $13 $-1 #
edge $-1 $34 0 $71 0.2828427124746188404 $33 $72 forward 7 unknown #
coedge $-1 $65 $68 $24 $44 forward $38 $-1 #
edge $-1 $71 -1.577188900314663103e-15 $45 3.141592653589793116 $43 $73 forward 7 unknown #
vertex $-1 $70 $74 #
straight-curve $-1 0 5.551115123125782702e-16 12.00000000000000178 0 7.071067811865474617 -7.071067811865477282 I I #
coedge $-1 $75 $27 $76 $77 forward $10 $-1 #
coedge $-1 $78 $79 $27 $49 reversed $80 $-1 #
edge $-1 $57 1.31419200243805489e-10 $81 1.047197551336196186 $27 $82 forward 7 unknown #
coedge $-1 $28 $75 $83 $84 forward $10 $-1 #
coedge $-1 $85 $86 $28 $52 reversed $87 $-1 #
edge $-1 $88 0 $56 1.047197551347314404 $28 $89 forward 7 unknown #
coedge $-1 $54 $29 $90 $91 forward $55 $-1 #
coedge $-1 $29 $53 $92 $93 forward $55 $-1 #
loop $-1 $-1 $29 $94 #
vertex $-1 $52 $95 #
vertex $-1 $49 $96 #
ellipse-curve $-1 -1.443289932012703503e-13 0 0 0 -1 0 -15.15544456737744738 0 8.749999998008249236 1 I I #
ellipse-curve $-1 1.11022302462515654e-15 0 1.11022302462515654e-15 -4.279844320860523282e-33 -1 4.625929269271485174e-17 -1.11022302462515654e-15 5.551115123125782702e-16 12.00000000000000178 1 I I #
point $-1 -1.46952762458685271e-15 5.551115123125782702e-16 -12.00000000000000178 #
point $-1 0 5.551115123125782702e-16 12.00000000000000178 #
face $-1 $97 $98 $2 $-1 $99 reversed single #
loop $-1 $-1 $100 $37 #
cone-surface $-1 0 7.999999999999993783 0 0 -1 0 0 0 9.999999999999996447 1 I I -0.7071067811865473507 0.7071067811865476838 9.999999999999996447 forward I I I I #
coedge $-1 $101 $43 $102 $103 reversed $38 $-1 #
coedge $-1 $102 $40 $104 $105 reversed $21 $-1 #
coedge $-1 $40 $102 $41 $70 forward $21 $-1 #
coedge $-1 $43 $101 $40 $69 forward $38 $-1 #
edge $-1 $106 4.440892098500626162e-16 $71 0.5999999999999998668 $40 $107 forward 7 unknown #
edge $-1 $45 0 $71 3.141592653589791784 $67 $108 forward 7 unknown #
vertex $-1 $70 $109 #
straight-curve $-1 -1.46952762458685271e-15 5.551115123125782702e-16 -12.00000000000000178 -3.757757173272198293e-14 7.071067811865474617 7.071067811865477282 I I #
ellipse-curve $-1 0 1.999999999999999556 0 0 -1 0 1.224606353822377455e-15 0 -10.00000000000000178 1 I I #
point $-1 0 1.999999999999999556 10.00000000000000178 #
coedge $-1 $50 $47 $110 $111 forward $10 $-1 #
coedge $-1 $112 $113 $47 $77 reversed $114 $-1 #
edge $-1 $81 -1.111834434052158954e-11 $115 1.047197551215894418 $47 $116 forward 7 unknown #
coedge $-1 $79 $48 $117 $118 forward $80 $-1 #
coedge $-1 $48 $78 $119 $120 forward $80 $-1 #
loop $-1 $-1 $48 $121 #
vertex $-1 $77 $122 #
ellipse-curve $-1 -2.471775562007394456e-10 0 -2.472089200011851062e-10 0 -1 0 -15.15544456713041299 0 -8.74999999776104076 1 I I #
coedge $-1 $123 $124 $50 $84 reversed $125 $-1 #
edge $-1 $126 1.314196642717145463e-10 $88 1.047197551347314404 $50 $127 forward 7 unknown #
coedge $-1 $86 $51 $128 $129 forward $87 $-1 #
coedge $-1 $51 $85 $130 $131 forward $87 $-1 #
loop $-1 $-1 $51 $132 #
vertex $-1 $52 $133 #
ellipse-curve $-1 -2.471761684219586641e-10 0 2.472078097781604811e-10 0 -1 0 2.471761684219586641e-10 0 17.49999999966231456 1 I I #
coedge $-1 $130 $134 $53 $91 reversed $135 $-1 #
edge $-1 $56 2.28392400541129267e-10 $136 0.999999999999999889 $90 $137 forward 7 unknown #
coedge $-1 $138 $117 $54 $93 reversed $139 $-1 #
edge $-1 $136 0 $57 1 $92 $140 forward 7 unknown #
face $-1 $132 $55 $2 $-1 $141 forward single #
point $-1 -15.15544456737759127 0 8.749999998008249236 #
point $-1 -15.15544456622768266 0 -8.749999999999969802 #
face $-1 $142 $143 $2 $-1 $144 forward single #
loop $-1 $-1 $145 $62 #
cone-surface $-1 0 7.999999999999993783 0 0 -1 0 0 0 9.999999999999996447 1 I I -0.7071067811865473507 0.7071067811865476838 9.999999999999996447 forward I I I I #
coedge $-1 $146 $147 $148 $149 forward $63 $-1 #
coedge $-1 $68 $65 $146 $150 reversed $38 $-1 #
coedge $-1 $67 $66 $65 $103 forward $21 $-1 #
edge $-1 $151 4.440892098500626162e-16 $45 0.5999999999999998668 $102 $152 forward 7 unknown #
coedge $-1 $148 $145 $66 $105 forward $98 $-1 #
edge $-1 $151 0 $106 3.141592653589793116 $66 $153 forward 7 unknown #
vertex $-1 $105 $154 #
straight-curve $-1 1.224606353822377258e-15 7.999999999999998224 -10 0 -10 0 I I #
ellipse-curve $-1 0 1.999999999999999556 0 0 -1 0 0 0 10.00000000000000178 1 I I #
point $-1 -1.45472826493242589e-14 1.999999999999999556 -10.00000000000000178 #
coedge $-1 $155 $156 $75 $111 reversed $157 $-1 #
edge $-1 $115 -1.314197570722268056e-10 $126 1.047197551065183863 $75 $158 forward 7 unknown #
coedge $-1 $113 $76 $159 $160 forward $114 $-1 #
coedge $-1 $76 $112 $161 $162 forward $114 $-1 #
loop $-1 $-1 $76 $163 #
vertex $-1 $111 $164 #
ellipse-curve $-1 2.471742255316655701e-10 0 -2.472033688860619804e-10 0 -1 0 -2.471742255316655701e-10 0 -17.49999999966231812 1 I I #
coedge $-1 $92 $165 $78 $118 reversed $139 $-1 #
edge $-1 $57 0 $166 0.999999999999999889 $117 $167 forward 7 unknown #
coedge $-1 $168 $159 $79 $120 reversed $169 $-1 #
edge $-1 $166 0 $81 0.999999999999999889 $119 $170 forward 7 unknown #
face $-1 $171 $80 $2 $-1 $172 forward single #
point $-1 -1.945710259576571843e-10 4.343036050242258929e-11 -17.5 #
coedge $-1 $124 $83 $173 $174 forward $125 $-1 #
coedge $-1 $83 $123 $175 $176 forward $125 $-1 #
loop $-1 $-1 $83 $177 #
vertex $-1 $84 $178 #
ellipse-curve $-1 2.471775562007394456e-10 0 2.472089200011851062e-10 0 -1 0 15.15544456713041299 0 8.74999999776104076 1 I I #
coedge $-1 $175 $179 $85 $129 reversed $180 $-1 #
edge $-1 $88 0 $181 0.999999999999999889 $128 $182 forward 7 unknown #
coedge $-1 $183 $90 $86 $131 reversed $135 $-1 #
edge $-1 $181 0 $56 0.999999999999999889 $130 $184 forward 7 unknown #
face $-1 $185 $87 $2 $-1 $186 forward single #
point $-1 0 0 17.49999999990952304 #
coedge $-1 $90 $187 $138 $188 reversed $135 $-1 #
loop $-1 $-1 $183 $189 #
vertex $-1 $93 $190 #
intcurve-curve $-1 forward { surfintcur full nurbs 3 open 6 
	0 3 0.1995818093412965177 1 0.3991248353309678754 1 0.5987637893074099216 1 0.7989590351825864856 1 
	0.999999999999999889 3 
	-15.15544456622766134 0 8.749999999999978684 1 
	-15.49040080604928349 0.0003389612173292089192 8.169838774316701802 1 
	-16.15933686070104613 0.0279143522690648814 7.011207540645169267 1.000000000000000222 
	-17.1603415270868318 0.1523015945528962134 5.277416599851459722 0.999999999999999778 
	-18.15922112572551939 0.3529521286122613843 3.547306384365244813 1.000000000000000222 
	-19.17185076157402435 0.6283607104336085269 1.793380405825668822 0.999999999999999778 
	-19.85989558177881165 0.8582888876837541092 0.6016518193463800124 1 
	-20.20725942163686994 0.9853618459125583762 0 1 
	0.01000000000000000021 
	cone 0 3.630520900341462909 0 0 -1 0 0 0 27.47477419454623515 1 I I -0.9396926207859084279 0.3420201433256686019 27.47477419454623515 forward I I I I 
	plane -20.20725942163686994 0 0 -0.8660254037844387076 0 0.499999999999999889 5 0 8.660254037844389075 forward_v I I I I 
	nullbs 
	nullbs 
	I I 
	0 
	0 
	0 
	} I I #
coedge $-1 $191 $92 $134 $188 forward $139 $-1 #
loop $-1 $-1 $138 $192 #
intcurve-curve $-1 forward { surfintcur full nurbs 3 open 6 
	0 3 0.2010409648174124597 1 0.4012362106925883576 1 0.6008751646690306814 1 0.8004181906587031214 1 
	1 3 
	-20.20725942163689126 0.9853618459125583762 0 1 
	-19.85989558177883652 0.8582888876837588832 -0.6016518193463573638 1.000000000000000222 
	-19.17185076157407053 0.6283607104336196292 -1.793380405825610424 1.000000000000000222 
	-18.1592211257256011 0.3529521286122780377 -3.547306384365139564 0.999999999999999778 
	-17.1603415270868922 0.1523015945529019588 -5.27741659985137801 1.000000000000000222 
	-16.15933686070108166 0.02791435226906549549 -7.011207540645147063 0.999999999999999778 
	-15.49040080604930658 0.0003389612173289096794 -8.169838774316691143 1 
	-15.15544456622768266 0 -8.749999999999969802 1 
	0.01000000000000000021 
	cone 0 3.630520900341462909 0 0 -1 0 0 0 27.47477419454623515 1 I I -0.9396926207859084279 0.3420201433256686019 27.47477419454623515 forward I I I I 
	plane -10.1036297108184403 0 -17.5 -0.8660254037844387076 0 -0.499999999999999889 -5 0 8.660254037844389075 forward_v I I I I 
	nullbs 
	nullbs 
	I I 
	0 
	0 
	0 
	} I I #
cone-surface $-1 0 3.630520900341462909 0 0 -1 0 0 0 27.47477419454623515 1 I I -0.9396926207859084279 0.3420201433256686019 27.47477419454623515 forward I I I I #
face $-1 $193 $194 $2 $-1 $195 forward single #
loop $-1 $196 $197 $97 #
plane-surface $-1 0 10 0 0 1 0 10 0 0 forward_v I I I I #
coedge $-1 $104 $198 $199 $200 forward $98 $-1 #
coedge $-1 $199 $100 $101 $150 forward $63 $-1 #
coedge $-1 $100 $199 $197 $201 reversed $63 $-1 #
coedge $-1 $198 $104 $100 $149 reversed $98 $-1 #
edge $-1 $202 2.79950950192199924e-31 $106 0.2828427124746187848 $148 $203 forward 7 unknown #
edge $-1 $106 0 $151 3.141592653589793116 $101 $204 forward 7 unknown #
vertex $-1 $103 $205 #
straight-curve $-1 0 7.999999999999998224 10 0 -10 0 I I #
ellipse-curve $-1 0 7.999999999999993783 0 0 -1 0 0 0 9.999999999999996447 1 I I #
point $-1 1.224606353822376864e-15 7.999999999999993783 -9.999999999999996447 #
coedge $-1 $156 $110 $206 $207 forward $157 $-1 #
coedge $-1 $110 $155 $208 $209 forward $157 $-1 #
loop $-1 $-1 $110 $210 #
ellipse-curve $-1 1.443289932012703503e-13 0 0 0 -1 0 15.15544456737744738 0 -8.749999998008249236 1 I I #
coedge $-1 $119 $211 $112 $160 reversed $169 $-1 #
edge $-1 $81 0 $212 0.999999999999999889 $159 $213 forward 7 unknown #
coedge $-1 $214 $206 $113 $162 reversed $215 $-1 #
edge $-1 $212 0 $115 0.999999999999999889 $161 $216 forward 7 unknown #
face $-1 $217 $114 $2 $-1 $218 forward single #
point $-1 15.15544456622766489 0 -8.749999999999971578 #
coedge $-1 $117 $219 $168 $220 reversed $139 $-1 #
vertex $-1 $118 $221 #
intcurve-curve $-1 forward { surfintcur full nurbs 3 open 6 
	0 3 0.1995818093412967953 1 0.3991248353309685415 1 0.5987637893074110318 1 0.7989590351825878178 1 
	0.999999999999999889 3 
	-15.15544456622768266 0 -8.749999999999969802 1 
	-14.8204883264060534 0.0003389612173291786158 -9.330161225683255566 0.999999999999999778 
	-14.1515522717542801 0.02791435226906575917 -10.48879245935480498 1.000000000000000222 
	-13.15054760536847844 0.1523015945528987947 -12.22258340014854028 0.999999999999999778 
	-12.15166800672976777 0.3529521286122736523 -13.95269361563479649 1.000000000000000222 
	-11.13903837088125393 0.6283607104336268456 -15.7066195941743949 0.999999999999999778 
	-10.45099355067648617 0.858288887683767876 -16.89834818065364885 0.999999999999999889 
	-10.1036297108184403 0.985361845912567258 -17.5 1 
	0.01000000000000000021 
	cone 0 3.630520900341462909 0 0 -1 0 0 0 27.47477419454623515 1 I I -0.9396926207859084279 0.3420201433256686019 27.47477419454623515 forward I I I I 
	plane -10.1036297108184403 0 -17.5 -0.8660254037844387076 0 -0.499999999999999889 -5 0 8.660254037844389075 forward_v I I I I 
	nullbs 
	nullbs 
	I I 
	0 
	0 
	0 
	} I I #
coedge $-1 $222 $119 $165 $220 forward $169 $-1 #
loop $-1 $-1 $168 $223 #
intcurve-curve $-1 forward { surfintcur full nurbs 3 open 6 
	0 3 0.2009034737823915118 1 0.4010826722957456791 1 0.6007609262910356129 1 0.8004695689013123783 1 
	0.999999999999999889 3 
	-10.1036297108184403 0.985361845912567258 -17.5 1 
	-9.412677620914770671 0.8589217355295688527 -17.49999999999999645 0.999999999999999889 
	-8.042048027383284392 0.629819124343984349 -17.49999999999999645 1.000000000000000222 
	-6.016422347850677532 0.3540270498498295781 -17.5 1 
	-4.018758704135302118 0.1528962587056607036 -17.50000000000000355 0.999999999999999778 
	-2.002320557958692682 0.02763722626206471106 -17.49999999999999645 1 
	-0.6670314314068975792 0.0001881439269810604789 -17.50000000000000355 1 
	-1.945710259576571843e-10 4.343036050242258929e-11 -17.5 1 
	0.01000000000000000021 
	cone 0 3.630520900341462909 0 0 -1 0 0 0 27.47477419454623515 1 I I -0.9396926207859084279 0.3420201433256686019 27.47477419454623515 forward I I I I 
	plane 10.1036297108184403 0 -17.5 0 0 -1 -10 0 0 forward_v I I I I 
	nullbs 
	nullbs 
	I I 
	0 
	0 
	0 
	} I I #
face $-1 $163 $224 $2 $-1 $225 forward single #
cone-surface $-1 0 3.630520900341462909 0 0 -1 0 0 0 27.47477419454623515 1 I I -0.9396926207859084279 0.3420201433256686019 27.47477419454623515 forward I I I I #
coedge $-1 $208 $226 $123 $174 reversed $227 $-1 #
edge $-1 $126 0 $228 0.999999999999999889 $173 $229 forward 7 unknown #
coedge $-1 $230 $128 $124 $176 reversed $180 $-1 #
edge $-1 $228 0 $88 0.999999999999999889 $175 $231 forward 7 unknown #
face $-1 $232 $125 $2 $-1 $233 forward single #
point $-1 15.1554445662276791 0 8.749999999999978684 #
coedge $-1 $128 $234 $183 $235 reversed $180 $-1 #
loop $-1 $-1 $175 $193 #
vertex $-1 $131 $236 #
intcurve-curve $-1 forward { surfintcur full nurbs 3 open 6 
	0 3 0.1996673439427298635 1 0.3994754731098417722 1 0.5991861168481512623 1 0.7992988590813693284 1 
	0.999999999999999889 3 
	1.945732464037064346e-10 4.343038361091556647e-11 17.5 1 
	-0.6701366937666070056 0.0002186221967723179984 17.5 0.999999999999999889 
	-2.010785793154269641 0.02787298993403073549 17.50000000000000355 0.999999999999999778 
	-4.033507071151210432 0.1540544985741470196 17.49999999999999645 1.000000000000000222 
	-6.033170974586093749 0.3560206914081714968 17.50000000000000355 1 
	-8.054990616045921925 0.6319072815944346555 17.5 1 
	-9.417870670515448239 0.8598106710555526444 17.5 1 
	-10.1036297108184403 0.985361845912567258 17.5 1 
	0.01000000000000000021 
	cone 0 3.630520900341462909 0 0 -1 0 0 0 27.47477419454623515 1 I I -0.9396926207859084279 0.3420201433256686019 27.47477419454623515 forward I I I I 
	plane -10.1036297108184403 0 17.5 0 0 1 10 0 0 forward_v I I I I 
	nullbs 
	nullbs 
	I I 
	0 
	0 
	0 
	} I I #
coedge $-1 $237 $130 $179 $235 forward $135 $-1 #
intcurve-curve $-1 forward { surfintcur full nurbs 3 open 6 
	0 3 0.2010409648174130981 1 0.4012362106925898564 1 0.6008751646690315695 1 0.8004181906587025663 1 
	0.999999999999999889 3 
	-10.10362971081842431 0.985361845912567258 17.5 1 
	-10.45099355067647906 0.8582888876837644343 16.89834818065362754 1 
	-11.13903837088126281 0.6283607104336195182 15.70661959417435227 1 
	-12.15166800672978553 0.3529521286122656032 13.95269361563474675 0.999999999999999889 
	-13.15054760536846068 0.1523015945529005155 12.22258340014854028 1.000000000000000222 
	-14.15155227175423391 0.02791435226906828146 10.48879245935484938 0.999999999999999889 
	-14.82048832640602143 0.0003389612173304752674 9.330161225683282211 1 
	-15.15544456622766134 0 8.749999999999978684 1 
	0.01000000000000000021 
	cone 0 3.630520900341462909 0 0 -1 0 0 0 27.47477419454623515 1 I I -0.9396926207859084279 0.3420201433256686019 27.47477419454623515 forward I I I I 
	plane -20.20725942163686994 0 0 -0.8660254037844387076 0 0.499999999999999889 5 0 8.660254037844389075 forward_v I I I I 
	nullbs 
	nullbs 
	I I 
	0 
	0 
	0 
	} I I #
face $-1 $121 $238 $2 $-1 $239 forward single #
cone-surface $-1 0 3.630520900341462909 0 0 -1 0 0 0 27.47477419454623515 1 I I -0.9396926207859084279 0.3420201433256686019 27.47477419454623515 forward I I I I #
coedge $-1 $134 $237 $240 $241 forward $135 $-1 #
edge $-1 $136 0 $242 0.8029276308174884136 $138 $243 forward 7 unknown #
face $-1 $244 $135 $2 $-1 $245 forward single #
point $-1 -20.20725942163689126 0.9853618459125583762 0 #
coedge $-1 $219 $138 $246 $247 forward $139 $-1 #
face $-1 $189 $139 $2 $-1 $248 forward single #
face $-1 $177 $180 $2 $-1 $249 forward single #
loop $-1 $-1 $250 $142 #
cone-surface $-1 0 6.369479099658537535 0 0 1 0 0 0 27.47477419454623515 1 I I -0.9396926207859084279 0.3420201433256686019 27.47477419454623515 forward I I I I #
loop $-1 $-1 $251 $97 #
coedge $-1 $252 $252 $147 $201 forward $143 $-1 #
coedge $-1 $145 $148 $252 $253 reversed $98 $-1 #
coedge $-1 $147 $146 $145 $200 reversed $63 $-1 #
edge $-1 $254 0 $151 0.2828427124746187848 $145 $255 forward 7 unknown #
edge $-1 $202 -2.449212707644755009e-16 $254 3.141592653589793116 $197 $256 forward 7 unknown #
vertex $-1 $253 $257 #
straight-curve $-1 1.469527624586852118e-15 9.999999999999992895 -11.99999999999999467 -9.52520202779128637e-15 -7.071067811865474617 7.071067811865474617 I I #
ellipse-curve $-1 0 7.999999999999993783 0 0 -1 0 1.224606353822376864e-15 0 -9.999999999999996447 1 I I #
point $-1 0 7.999999999999993783 9.999999999999996447 #
coedge $-1 $161 $258 $155 $207 reversed $215 $-1 #
edge $-1 $115 0 $259 0.999999999999999889 $206 $260 forward 7 unknown #
coedge $-1 $261 $173 $156 $209 reversed $227 $-1 #
edge $-1 $259 0 $126 0.999999999999999889 $208 $262 forward 7 unknown #
face $-1 $-1 $157 $2 $-1 $263 forward single #
coedge $-1 $159 $264 $214 $265 reversed $169 $-1 #
vertex $-1 $162 $266 #
intcurve-curve $-1 forward { surfintcur full nurbs 3 open 6 
	0 3 0.1996673439427318064 1 0.3994754731098439926 1 0.5991861168481525945 1 0.7992988590813694394 1 
	0.999999999999999889 3 
	-1.945710259576571843e-10 4.343036050242258929e-11 -17.5 1 
	0.6701366937666608514 0.0002186221967729424717 -17.5 1 
	2.01078579315439443 0.02787298993403323349 -17.50000000000000355 0.9999999999999996669 
	4.033507071151350765 0.1540544985741590933 -17.5 1.000000000000000444 
	6.033170974586175461 0.3560206914081810448 -17.5 0.9999999999999996669 
	8.054990616045920149 0.6319072815944343224 -17.50000000000000355 1.000000000000000222 
	9.417870670515441134 0.8598106710555514232 -17.49999999999999645 1 
	10.1036297108184403 0.9853618459125661477 -17.5 1 
	0.01000000000000000021 
	cone 0 3.630520900341462909 0 0 -1 0 0 0 27.47477419454623515 1 I I -0.9396926207859084279 0.3420201433256686019 27.47477419454623515 forward I I I I 
	plane 10.1036297108184403 0 -17.5 0 0 -1 -10 0 0 forward_v I I I I 
	nullbs 
	nullbs 
	I I 
	0 
	0 
	0 
	} I I #
coedge $-1 $267 $161 $211 $265 forward $215 $-1 #
loop $-1 $-1 $214 $268 #
intcurve-curve $-1 forward { surfintcur full nurbs 3 open 6 
	0 3 0.2010409648174132646 1 0.4012362106925901895 1 0.6008751646690319026 1 0.8004181906587031214 1 
	0.999999999999999889 3 
	10.10362971081842431 0.985361845912567258 -17.5 1 
	10.45099355067648261 0.8582888876837642123 -16.89834818065362754 1 
	11.13903837088126458 0.6283607104336190741 -15.70661959417433806 1.000000000000000222 
	12.15166800672978908 0.3529521286122639934 -13.95269361563473076 0.999999999999999778 
	13.15054760536847489 0.1523015945528988224 -12.22258340014852784 1 
	14.15155227175424812 0.02791435226906514855 -10.4887924593548103 1 
	14.82048832640603386 0.000338961217329213256 -9.330161225683262671 1 
	15.15544456622766489 0 -8.749999999999971578 1 
	0.01000000000000000021 
	cone 0 3.630520900341462909 0 0 -1 0 0 0 27.47477419454623515 1 I I -0.9396926207859084279 0.3420201433256686019 27.47477419454623515 forward I I I I 
	plane 20.20725942163686994 0 0 0.8660254037844387076 0 -0.499999999999999889 -5 0 -8.660254037844389075 forward_v I I I I 
	nullbs 
	nullbs 
	I I 
	0 
	0 
	0 
	} I I #
face $-1 $210 $269 $2 $-1 $270 forward single #
cone-surface $-1 0 3.630520900341462909 0 0 -1 0 0 0 27.47477419454623515 1 I I -0.9396926207859084279 0.3420201433256686019 27.47477419454623515 forward I I I I #
coedge $-1 $165 $191 $271 $272 forward $139 $-1 #
edge $-1 $166 0 $273 0.8029276308174864152 $165 $274 forward 7 unknown #
point $-1 -10.1036297108184403 0.985361845912567258 -17.5 #
coedge $-1 $264 $168 $275 $276 forward $169 $-1 #
face $-1 $192 $169 $2 $-1 $277 forward single #
loop $-1 $-1 $278 $171 #
cone-surface $-1 0 6.369479099658537535 0 0 1 0 0 0 27.47477419454623515 1 I I -0.9396926207859084279 0.3420201433256686019 27.47477419454623515 forward I I I I #
coedge $-1 $173 $279 $230 $280 reversed $227 $-1 #
loop $-1 $-1 $261 $232 #
vertex $-1 $280 $281 #
intcurve-curve $-1 forward { surfintcur full nurbs 3 open 6 
	0 3 0.1995818093412965732 1 0.3991248353309675423 1 0.5987637893074095885 1 0.7989590351825871517 1 
	0.999999999999999889 3 
	15.1554445662276791 0 8.749999999999978684 1 
	14.82048832640605163 0.0003389612173292913728 9.330161225683264448 0.999999999999999778 
	14.15155227175427299 0.0279143522690649612 10.4887924593548032 1 
	13.15054760536850509 0.1523015945528971016 12.22258340014849232 1 
	12.15166800672981751 0.3529521286122599966 13.95269361563471655 0.999999999999999778 
	11.13903837088126458 0.6283607104336251803 15.70661959417437714 1 
	10.45099355067648794 0.8582888876837673209 16.89834818065364175 1 
	10.1036297108184403 0.98536184591256748 17.5 1 
	0.01000000000000000021 
	cone 0 3.630520900341462909 0 0 -1 0 0 0 27.47477419454623515 1 I I -0.9396926207859084279 0.3420201433256686019 27.47477419454623515 forward I I I I 
	plane 10.1036297108184403 0 17.5 0.8660254037844387076 0 0.499999999999999889 5 0 -8.660254037844389075 forward_v I I I I 
	nullbs 
	nullbs 
	I I 
	0 
	0 
	0 
	} I I #
coedge $-1 $282 $175 $226 $280 forward $180 $-1 #
intcurve-curve $-1 forward { surfintcur full nurbs 3 open 6 
	0 3 0.2009034737823906236 1 0.4010826722957446799 1 0.6007609262910351688 1 0.8004695689013124893 1 
	0.999999999999999889 3 
	10.1036297108184403 0.985361845912567258 17.5 1 
	9.412677620914790211 0.8589217355295717393 17.5 1 
	8.042048027383339459 0.6298191243439910103 17.49999999999999645 1 
	6.016422347850745034 0.354027049849838682 17.50000000000000711 0.999999999999999889 
	4.018758704135322546 0.1528962587056607314 17.49999999999999645 1.000000000000000222 
	2.002320557958685576 0.02763722626206482902 17.50000000000000355 0.999999999999999778 
	0.6670314314068928052 0.0001881439269808523121 17.50000000000000355 1 
	1.945732464037064346e-10 4.343038361091556647e-11 17.5 1 
	0.01000000000000000021 
	cone 0 3.630520900341462909 0 0 -1 0 0 0 27.47477419454623515 1 I I -0.9396926207859084279 0.3420201433256686019 27.47477419454623515 forward I I I I 
	plane -10.1036297108184403 0 17.5 0 0 1 10 0 0 forward_v I I I I 
	nullbs 
	nullbs 
	I I 
	0 
	0 
	0 
	} I I #
face $-1 $268 $227 $2 $-1 $283 forward single #
cone-surface $-1 0 3.630520900341462909 0 0 -1 0 0 0 27.47477419454623515 1 I I -0.9396926207859084279 0.3420201433256686019 27.47477419454623515 forward I I I I #
coedge $-1 $179 $282 $284 $285 forward $180 $-1 #
edge $-1 $181 0 $286 0.8029276308174864152 $183 $287 forward 7 unknown #
point $-1 -10.10362971081842431 0.985361845912567258 17.5 #
coedge $-1 $187 $183 $288 $289 forward $135 $-1 #
loop $-1 $-1 $290 $185 #
cone-surface $-1 0 6.369479099658537535 0 0 1 0 0 0 27.47477419454623515 1 I I -0.9396926207859084279 0.3420201433256686019 27.47477419454623515 forward I I I I #
coedge $-1 $291 $246 $187 $241 reversed $292 $-1 #
edge $-1 $293 2.283931234636647435e-10 $242 0.999999999999999889 $187 $294 forward 7 unknown #
vertex $-1 $247 $295 #
straight-curve $-1 -20.20725942163688416 0.9853618459125583762 -4.440892098500626162e-15 0 10 0 I I #
face $-1 $296 $297 $2 $-1 $298 forward single #
plane-surface $-1 -20.20725942163686994 0 0 -0.8660254037844387076 0 0.499999999999999889 5 0 8.660254037844389075 forward_v I I I I #
coedge $-1 $240 $291 $191 $247 reversed $292 $-1 #
edge $-1 $242 0 $299 0.999999999999999889 $191 $300 forward 7 unknown #
plane-surface $-1 -10.1036297108184403 0 -17.5 -0.8660254037844387076 0 -0.499999999999999889 -5 0 8.660254037844389075 forward_v I I I I #
plane-surface $-1 -10.1036297108184403 0 17.5 0 0 1 10 0 0 forward_v I I I I #
coedge $-1 $301 $302 $251 $303 forward $194 $-1 #
coedge $-1 $304 $305 $250 $303 reversed $196 $-1 #
coedge $-1 $197 $197 $198 $253 forward $143 $-1 #
edge $-1 $254 0 $202 3.141592653589793116 $252 $306 forward 7 unknown #
vertex $-1 $253 $307 #
straight-curve $-1 0 9.999999999999992895 11.99999999999999467 0 -7.071067811865474617 -7.071067811865474617 I I #
ellipse-curve $-1 0 10 -1.11022302462515654e-15 -6.797930850579325929e-32 -1 5.55111512312578566e-16 1.469527624586852118e-15 -6.661338147750939243e-15 -11.99999999999999289 1 I I #
point $-1 -1.469527624586852118e-15 9.999999999999992895 -11.99999999999999467 #
coedge $-1 $206 $308 $261 $309 reversed $215 $-1 #
vertex $-1 $209 $310 #
intcurve-curve $-1 forward { surfintcur full nurbs 3 open 6 
	0 3 0.1995818093412954075 1 0.3991248353309666541 1 0.5987637893074101436 1 0.7989590351825873737 1 
	0.999999999999999889 3 
	15.15544456622766489 0 -8.749999999999971578 1 
	15.49040080604927283 0.0003389612173283025262 -8.169838774316723118 1 
	16.15933686070101416 0.02791435226906278239 -7.011207540645224334 1.000000000000000222 
	17.16034152708678917 0.1523015945528871928 -5.27741659985153877 1 
	18.15922112572553715 0.3529521286122643264 -3.5473063843652195 0.999999999999999778 
	19.17185076157404922 0.6283607104336174087 -1.793380405825621526 1.000000000000000222 
	19.8598955817788223 0.8582888876837584391 -0.6016518193463561426 0.999999999999999889 
	20.20725942163686994 0.9853618459125578211 0 1 
	0.01000000000000000021 
	cone 0 3.630520900341462909 0 0 -1 0 0 0 27.47477419454623515 1 I I -0.9396926207859084279 0.3420201433256686019 27.47477419454623515 forward I I I I 
	plane 20.20725942163686994 0 0 0.8660254037844387076 0 -0.499999999999999889 -5 0 -8.660254037844389075 forward_v I I I I 
	nullbs 
	nullbs 
	I I 
	0 
	0 
	0 
	} I I #
coedge $-1 $311 $208 $258 $309 forward $227 $-1 #
intcurve-curve $-1 forward { surfintcur full nurbs 3 open 6 
	0 3 0.2010409648174123765 1 0.4012362106925889682 1 0.6008751646690319026 1 0.8004181906587035655 1 
	0.999999999999999889 3 
	20.20725942163689126 0.9853618459125583762 0 1 
	19.85989558177884362 0.8582888876837601044 0.601651819346353034 1 
	19.17185076157407408 0.6283607104336214055 1.793380405825606427 1 
	18.15922112572557268 0.3529521286122705437 3.547306384365172427 1 
	17.16034152708686022 0.1523015945528973236 5.277416599851447288 1.000000000000000222 
	16.15933686070106745 0.02791435226906528386 7.011207540645169267 1 
	15.4904008060492977 0.0003389612173291048358 8.169838774316705354 1 
	15.1554445662276791 0 8.749999999999978684 1 
	0.01000000000000000021 
	cone 0 3.630520900341462909 0 0 -1 0 0 0 27.47477419454623515 1 I I -0.9396926207859084279 0.3420201433256686019 27.47477419454623515 forward I I I I 
	plane 10.1036297108184403 0 17.5 0.8660254037844387076 0 0.499999999999999889 5 0 -8.660254037844389075 forward_v I I I I 
	nullbs 
	nullbs 
	I I 
	0 
	0 
	0 
	} I I #
cone-surface $-1 0 3.630520900341462909 0 0 -1 0 0 0 27.47477419454623515 1 I I -0.9396926207859084279 0.3420201433256686019 27.47477419454623515 forward I I I I #
coedge $-1 $211 $222 $312 $313 forward $169 $-1 #
edge $-1 $212 1.11022302462515654e-16 $314 0.8029276308174868593 $214 $315 forward 7 unknown #
point $-1 10.10362971081842431 0.985361845912567258 -17.5 #
coedge $-1 $308 $214 $316 $317 forward $215 $-1 #
face $-1 $223 $215 $2 $-1 $318 forward single #
loop $-1 $-1 $319 $217 #
cone-surface $-1 0 6.369479099658537535 0 0 1 0 0 0 27.47477419454623515 1 I I -0.9396926207859084279 0.3420201433256686019 27.47477419454623515 forward I I I I #
coedge $-1 $290 $275 $219 $272 reversed $238 $-1 #
edge $-1 $299 0 $273 1 $219 $320 forward 7 unknown #
vertex $-1 $220 $321 #
straight-curve $-1 -10.1036297108184403 0.985361845912567258 -17.5 0 10 0 I I #
coedge $-1 $271 $290 $222 $276 reversed $238 $-1 #
edge $-1 $273 0 $322 0.999999999999999889 $222 $323 forward 7 unknown #
plane-surface $-1 10.1036297108184403 0 -17.5 0 0 -1 -10 0 0 forward_v I I I I #
coedge $-1 $316 $312 $324 $325 forward $224 $-1 #
coedge $-1 $226 $311 $302 $326 forward $227 $-1 #
edge $-1 $228 -2.220446049250313204e-17 $327 0.8029276308174864152 $230 $328 forward 7 unknown #
point $-1 10.1036297108184403 0.985361845912567258 17.5 #
coedge $-1 $234 $230 $301 $329 forward $180 $-1 #
plane-surface $-1 10.1036297108184403 0 17.5 0.8660254037844387076 0 0.499999999999999889 5 0 -8.660254037844389075 forward_v I I I I #
coedge $-1 $330 $288 $234 $285 reversed $297 $-1 #
edge $-1 $331 0 $286 0.999999999999999889 $234 $332 forward 7 unknown #
vertex $-1 $289 $333 #
straight-curve $-1 -10.10362971081842787 0.985361845912567258 17.49999999999999645 0 10 0 I I #
coedge $-1 $284 $330 $237 $289 reversed $297 $-1 #
edge $-1 $286 0 $293 0.999999999999999889 $237 $334 forward 7 unknown #
coedge $-1 $275 $271 $335 $336 forward $238 $-1 #
coedge $-1 $246 $240 $337 $338 forward $292 $-1 #
loop $-1 $-1 $291 $296 #
vertex $-1 $339 $340 #
intcurve-curve $-1 forward { surfintcur full nurbs 3 open 6 
	0 3 0.199581809341296712 1 0.3991248353309679864 1 0.5987637893074099216 1 0.7989590351825863745 1 
	0.999999999999999889 3 
	-15.15544456622765601 10 8.749999999999984013 1 
	-15.49040080604928526 9.999661038782670985 8.169838774316703578 0.999999999999999889 
	-16.15933686070105324 9.97208564773093542 7.011207540645161274 1 
	-17.16034152708683891 9.847698405447102843 5.277416599851459722 0.999999999999999778 
	-18.15922112572552294 9.647047871387739448 3.547306384365240817 1 
	-19.17185076157401724 9.371639289566390474 1.793380405825669488 1 
	-19.85989558177881165 9.141711112316246002 0.6016518193463805675 1 
	-20.20725942163686994 9.014638154087442956 0 1 
	0.01000000000000000021 
	plane -20.20725942163686994 0 0 -0.8660254037844387076 0 0.499999999999999889 5 0 8.660254037844389075 forward_v I I I I 
	cone 0 6.369479099658537535 0 0 1 0 0 0 27.47477419454623515 1 I I -0.9396926207859084279 0.3420201433256686019 27.47477419454623515 forward I I I I 
	nullbs 
	nullbs 
	I I 
	0 
	0 
	0 
	} I I #
point $-1 -20.20725942163686994 9.014638154087442956 0 #
face $-1 $94 $292 $2 $-1 $341 forward single #
loop $-1 $-1 $330 $244 #
cone-surface $-1 0 6.369479099658537535 0 0 1 0 0 0 27.47477419454623515 1 I I -0.9396926207859084279 0.3420201433256686019 27.47477419454623515 forward I I I I #
vertex $-1 $338 $342 #
intcurve-curve $-1 forward { surfintcur full nurbs 3 open 6 
	0 3 0.2010409648174123765 1 0.4012362106925883021 1 0.6008751646690306814 1 0.8004181906587031214 1 
	0.999999999999999889 3 
	-20.20725942163689126 9.014638154087442956 0 1 
	-19.85989558177884362 9.141711112316242449 -0.6016518193463572528 1 
	-19.17185076157407764 9.371639289566381592 -1.793380405825609536 1 
	-18.15922112572559399 9.647047871387725237 -3.547306384365144893 0.9999999999999996669 
	-17.1603415270868993 9.847698405447097514 -5.277416599851370016 1.000000000000000222 
	-16.15933686070108166 9.97208564773093542 -7.011207540645150615 1 
	-15.4904008060493048 9.999661038782669209 -8.16983877431669292 1 
	-15.15544456622768088 10 -8.749999999999971578 1 
	0.01000000000000000021 
	plane -10.1036297108184403 0 -17.5 -0.8660254037844387076 0 -0.499999999999999889 -5 0 8.660254037844389075 forward_v I I I I 
	cone 0 6.369479099658537535 0 0 1 0 0 0 27.47477419454623515 1 I I -0.9396926207859084279 0.3420201433256686019 27.47477419454623515 forward I I I I 
	nullbs 
	nullbs 
	I I 
	0 
	0 
	0 
	} I I #
coedge $-1 $302 $250 $282 $329 reversed $194 $-1 #
coedge $-1 $250 $301 $279 $326 reversed $194 $-1 #
edge $-1 $343 1.314197570772963888e-10 $331 1.047197551347314404 $251 $344 forward 7 unknown #
coedge $-1 $324 $251 $319 $345 reversed $196 $-1 #
coedge $-1 $251 $337 $330 $339 reversed $196 $-1 #
ellipse-curve $-1 5.551115123125782702e-16 10 1.11022302462515654e-15 2.56790659251631739e-32 -1 -5.55111512312578566e-16 -5.551115123125782702e-16 -6.661338147750939243e-15 11.99999999999999289 1 I I #
point $-1 0 9.999999999999992895 11.99999999999999467 #
coedge $-1 $258 $267 $346 $347 forward $215 $-1 #
edge $-1 $259 5.551115123125782702e-17 $348 0.8029276308174886356 $261 $349 forward 7 unknown #
point $-1 20.20725942163689126 0.9853618459125583762 0 #
coedge $-1 $279 $261 $350 $351 forward $227 $-1 #
coedge $-1 $278 $316 $264 $313 reversed $224 $-1 #
edge $-1 $322 0 $314 0.999999999999999889 $264 $352 forward 7 unknown #
vertex $-1 $317 $353 #
straight-curve $-1 10.10362971081842787 0.9853618459125661477 -17.49999999999999645 0 10 0 I I #
coedge $-1 $312 $278 $267 $317 reversed $224 $-1 #
edge $-1 $314 0 $354 0.999999999999999889 $267 $355 forward 7 unknown #
plane-surface $-1 20.20725942163686994 0 0 0.8660254037844387076 0 -0.499999999999999889 -5 0 -8.660254037844389075 forward_v I I I I #
coedge $-1 $350 $346 $304 $345 forward $269 $-1 #
intcurve-curve $-1 forward { surfintcur full nurbs 3 open 6 
	0 3 0.1995818093412967675 1 0.399124835330968486 1 0.5987637893074109208 1 0.7989590351825877068 1 
	1 3 
	-15.15544456622768088 10 -8.749999999999971578 1 
	-14.8204883264060534 9.999661038782672762 -9.330161225683255566 0.999999999999999889 
	-14.15155227175427655 9.97208564773093542 -10.48879245935480498 1 
	-13.15054760536847844 9.847698405447101067 -12.22258340014854383 1 
	-12.15166800672977132 9.647047871387725237 -13.95269361563479649 0.999999999999999889 
	-11.13903837088125393 9.37163928956637271 -15.70661959417439313 1 
	-10.45099355067648617 9.141711112316233567 -16.89834818065364885 0.999999999999999889 
	-10.1036297108184403 9.014638154087432298 -17.5 1 
	0.01000000000000000021 
	plane -10.1036297108184403 0 -17.5 -0.8660254037844387076 0 -0.499999999999999889 -5 0 8.660254037844389075 forward_v I I I I 
	cone 0 6.369479099658537535 0 0 1 0 0 0 27.47477419454623515 1 I I -0.9396926207859084279 0.3420201433256686019 27.47477419454623515 forward I I I I 
	nullbs 
	nullbs 
	I I 
	0 
	0 
	0 
	} I I #
point $-1 -10.1036297108184403 9.014638154087432298 -17.5 #
vertex $-1 $336 $356 #
intcurve-curve $-1 forward { surfintcur full nurbs 3 open 6 
	0 3 0.2009034737823915118 1 0.4010826722957456791 1 0.6007609262910355019 1 0.8004695689013123783 1 
	0.999999999999999889 3 
	-10.1036297108184403 9.014638154087432298 -17.5 1 
	-9.412677620914770671 9.141078264470431591 -17.49999999999999645 0.999999999999999889 
	-8.042048027383284392 9.370180875656014763 -17.49999999999999645 1.000000000000000222 
	-6.01642234785067842 9.645972950150170533 -17.5 0.999999999999999889 
	-4.018758704135306559 9.847103741294336743 -17.49999999999999645 1.000000000000000222 
	-2.002320557958691793 9.972362773737938113 -17.50000000000000711 0.999999999999999778 
	-0.6670314314068970241 9.999811856073018035 -17.49999999999999645 1 
	-1.945710259576571843e-10 9.999999999956569852 -17.5 1 
	0.01000000000000000021 
	plane 10.1036297108184403 0 -17.5 0 0 -1 -10 0 0 forward_v I I I I 
	cone 0 6.369479099658537535 0 0 1 0 0 0 27.47477419454623515 1 I I -0.9396926207859084279 0.3420201433256686019 27.47477419454623515 forward I I I I 
	nullbs 
	nullbs 
	I I 
	0 
	0 
	0 
	} I I #
coedge $-1 $335 $304 $278 $325 reversed $196 $-1 #
edge $-1 $322 -1.111834434052158954e-11 $354 1.047197551215894196 $324 $357 forward 7 unknown #
edge $-1 $343 0 $327 0.999999999999999889 $279 $358 forward 7 unknown #
vertex $-1 $329 $359 #
straight-curve $-1 10.1036297108184403 0.98536184591256748 17.5 0 10 0 I I #
edge $-1 $327 0 $331 0.999999999999999889 $282 $360 forward 7 unknown #
coedge $-1 $288 $284 $305 $339 forward $297 $-1 #
vertex $-1 $339 $361 #
intcurve-curve $-1 forward { surfintcur full nurbs 3 open 6 
	0 3 0.1996673439427299745 1 0.3994754731098418832 1 0.5991861168481514843 1 0.7992988590813693284 1 
	0.999999999999999889 3 
	1.945732464037064346e-10 9.999999999956569852 17.5 1 
	-0.6701366937666077828 9.999781377803229176 17.50000000000000355 0.999999999999999778 
	-2.010785793154270085 9.972127010065968022 17.49999999999999645 1.000000000000000222 
	-4.033507071151211321 9.845945501425854118 17.5 0.999999999999999778 
	-6.033170974586093749 9.64397930859182928 17.49999999999999645 1.000000000000000222 
	-8.054990616045923701 9.368092718405566899 17.50000000000000355 0.999999999999999778 
	-9.417870670515448239 9.140189328944449798 17.50000000000000355 0.999999999999999889 
	-10.1036297108184403 9.014638154087432298 17.5 1 
	0.01000000000000000021 
	plane -10.1036297108184403 0 17.5 0 0 1 10 0 0 forward_v I I I I 
	cone 0 6.369479099658537535 0 0 1 0 0 0 27.47477419454623515 1 I I -0.9396926207859084279 0.3420201433256686019 27.47477419454623515 forward I I I I 
	nullbs 
	nullbs 
	I I 
	0 
	0 
	0 
	} I I #
point $-1 -10.1036297108184403 9.014638154087432298 17.5 #
intcurve-curve $-1 forward { surfintcur full nurbs 3 open 6 
	0 3 0.2010409648174130703 1 0.4012362106925898564 1 0.6008751646690315695 1 0.8004181906587026774 1 
	0.999999999999999889 3 
	-10.10362971081842431 9.014638154087432298 17.5 1 
	-10.45099355067647906 9.141711112316235344 16.89834818065362754 1 
	-11.1390383708812557 9.371639289566378039 15.70661959417435405 1 
	-12.15166800672978731 9.647047871387737672 13.9526936156347432 0.999999999999999889 
	-13.15054760536846246 9.84769840544709929 12.22258340014854028 0.999999999999999778 
	-14.15155227175423391 9.972085647730933644 10.48879245935484938 1 
	-14.82048832640601788 9.999661038782669209 9.330161225683285764 1 
	-15.15544456622765601 10 8.749999999999984013 1 
	0.01000000000000000021 
	plane -20.20725942163686994 0 0 -0.8660254037844387076 0 0.499999999999999889 5 0 8.660254037844389075 forward_v I I I I 
	cone 0 6.369479099658537535 0 0 1 0 0 0 27.47477419454623515 1 I I -0.9396926207859084279 0.3420201433256686019 27.47477419454623515 forward I I I I 
	nullbs 
	nullbs 
	I I 
	0 
	0 
	0 
	} I I #
coedge $-1 $337 $324 $290 $336 reversed $196 $-1 #
edge $-1 $299 1.314192930493873056e-10 $322 1.047197551336196186 $335 $362 forward 7 unknown #
coedge $-1 $305 $335 $291 $338 reversed $196 $-1 #
edge $-1 $293 0 $299 1.047197551065183641 $337 $363 forward 7 unknown #
edge $-1 $331 0 $293 1.047197551347313516 $305 $364 forward 7 unknown #
point $-1 -15.15544456737759127 10 8.749999998008249236 #
cone-surface $-1 0 6.369479099658537535 0 0 1 0 0 0 27.47477419454623515 1 I I -0.9396926207859084279 0.3420201433256686019 27.47477419454623515 forward I I I I #
point $-1 -15.15544456622768088 10 -8.749999999999971578 #
vertex $-1 $345 $365 #
ellipse-curve $-1 2.471775562007394456e-10 10 2.472089200011851062e-10 0 -1 0 15.15544456713041299 0 8.74999999776104076 1 I I #
edge $-1 $354 -1.314199426833904389e-10 $343 1.047197551065184085 $304 $366 forward 7 unknown #
coedge $-1 $319 $350 $308 $347 reversed $269 $-1 #
edge $-1 $354 0 $348 0.999999999999999889 $308 $367 forward 7 unknown #
vertex $-1 $351 $368 #
straight-curve $-1 20.20725942163688416 0.9853618459125578211 4.440892098500626162e-15 0 10 0 I I #
coedge $-1 $346 $319 $311 $351 reversed $269 $-1 #
edge $-1 $348 0 $343 0.999999999999999889 $311 $369 forward 7 unknown #
intcurve-curve $-1 forward { surfintcur full nurbs 3 open 6 
	0 3 0.1996673439427317509 1 0.3994754731098438816 1 0.5991861168481525945 1 0.7992988590813694394 1 
	0.999999999999999889 3 
	-1.945710259576571843e-10 9.999999999956569852 -17.5 1 
	0.6701366937666607404 9.999781377803225624 -17.49999999999999645 1 
	2.01078579315439443 9.97212701006596447 -17.49999999999999645 1 
	4.033507071151351653 9.845945501425841684 -17.50000000000000355 1.000000000000000222 
	6.033170974586172797 9.643979308591818622 -17.5 1 
	8.054990616045920149 9.368092718405563346 -17.49999999999999645 1.000000000000000222 
	9.417870670515441134 9.140189328944449798 -17.49999999999999645 1 
	10.1036297108184403 9.014638154087434074 -17.5 1 
	0.01000000000000000021 
	plane 10.1036297108184403 0 -17.5 0 0 -1 -10 0 0 forward_v I I I I 
	cone 0 6.369479099658537535 0 0 1 0 0 0 27.47477419454623515 1 I I -0.9396926207859084279 0.3420201433256686019 27.47477419454623515 forward I I I I 
	nullbs 
	nullbs 
	I I 
	0 
	0 
	0 
	} I I #
point $-1 10.1036297108184403 9.014638154087434074 -17.5 #
vertex $-1 $325 $370 #
intcurve-curve $-1 forward { surfintcur full nurbs 3 open 6 
	0 3 0.2010409648174132646 1 0.4012362106925901895 1 0.6008751646690320136 1 0.8004181906587032325 1 
	0.999999999999999889 3 
	10.10362971081842431 9.014638154087432298 -17.5 1 
	10.45099355067648261 9.141711112316235344 -16.89834818065362754 1 
	11.13903837088126458 9.371639289566379816 -15.70661959417433984 1.000000000000000222 
	12.15166800672979264 9.647047871387735896 -13.95269361563472543 0.999999999999999889 
	13.15054760536846956 9.847698405447101067 -12.22258340014852251 1.000000000000000222 
	14.15155227175425701 9.97208564773093542 -10.48879245935481208 0.999999999999999778 
	14.82048832640603564 9.999661038782672762 -9.330161225683264448 1 
	15.15544456622766312 10 -8.749999999999975131 1 
	0.01000000000000000021 
	plane 20.20725942163686994 0 0 0.8660254037844387076 0 -0.499999999999999889 -5 0 -8.660254037844389075 forward_v I I I I 
	cone 0 6.369479099658537535 0 0 1 0 0 0 27.47477419454623515 1 I I -0.9396926207859084279 0.3420201433256686019 27.47477419454623515 forward I I I I 
	nullbs 
	nullbs 
	I I 
	0 
	0 
	0 
	} I I #
point $-1 -1.945710259576571843e-10 9.999999999956569852 -17.5 #
ellipse-curve $-1 2.471742255316655701e-10 10 -2.472033688860619804e-10 0 -1 0 -2.471742255316655701e-10 0 -17.49999999966231812 1 I I #
intcurve-curve $-1 forward { surfintcur full nurbs 3 open 6 
	0 3 0.1995818093412965732 1 0.3991248353309676533 1 0.5987637893074096995 1 0.7989590351825871517 1 
	0.999999999999999889 3 
	15.15544456622767555 10 8.749999999999978684 1 
	14.82048832640604985 9.999661038782669209 9.330161225683259119 1.000000000000000222 
	14.15155227175427299 9.972085647730931868 10.48879245935480498 1 
	13.15054760536850331 9.847698405447101067 12.22258340014849942 1 
	12.15166800672981218 9.647047871387739448 13.95269361563472188 1 
	11.13903837088126458 9.371639289566374487 15.70661959417437359 1 
	10.45099355067648794 9.141711112316233567 16.8983481806536453 1 
	10.1036297108184403 9.014638154087432298 17.5 1 
	0.01000000000000000021 
	plane 10.1036297108184403 0 17.5 0.8660254037844387076 0 0.499999999999999889 5 0 -8.660254037844389075 forward_v I I I I 
	cone 0 6.369479099658537535 0 0 1 0 0 0 27.47477419454623515 1 I I -0.9396926207859084279 0.3420201433256686019 27.47477419454623515 forward I I I I 
	nullbs 
	nullbs 
	I I 
	0 
	0 
	0 
	} I I #
point $-1 10.1036297108184403 9.014638154087432298 17.5 #
intcurve-curve $-1 forward { surfintcur full nurbs 3 open 6 
	0 3 0.2009034737823906236 1 0.4010826722957446799 1 0.6007609262910351688 1 0.8004695689013124893 1 
	0.999999999999999889 3 
	10.1036297108184403 9.014638154087432298 17.5 1 
	9.412677620914790211 9.141078264470429815 17.5 1 
	8.042048027383339459 9.370180875656004105 17.49999999999999645 1 
	6.016422347850745034 9.645972950150165204 17.50000000000000711 0.999999999999999889 
	4.018758704135322546 9.847103741294340296 17.49999999999999645 1.000000000000000222 
	2.002320557958685576 9.97236277373793456 17.50000000000000355 0.999999999999999778 
	0.6670314314068928052 9.999811856073019811 17.50000000000000355 1 
	1.945732464037064346e-10 9.999999999956569852 17.5 1 
	0.01000000000000000021 
	plane -10.1036297108184403 0 17.5 0 0 1 10 0 0 forward_v I I I I 
	cone 0 6.369479099658537535 0 0 1 0 0 0 27.47477419454623515 1 I I -0.9396926207859084279 0.3420201433256686019 27.47477419454623515 forward I I I I 
	nullbs 
	nullbs 
	I I 
	0 
	0 
	0 
	} I I #
point $-1 0 10 17.49999999990952304 #
ellipse-curve $-1 -2.471775562007394456e-10 10 -2.472089200011851062e-10 0 -1 0 -15.15544456713041299 0 -8.74999999776104076 1 I I #
ellipse-curve $-1 -1.443289932012703503e-13 10 0 0 -1 0 -15.15544456737744738 0 8.749999998008249236 1 I I #
ellipse-curve $-1 -2.471697846395670695e-10 10 2.471944871018649792e-10 0 -1 0 2.471697846395670695e-10 0 17.49999999966232878 1 I I #
point $-1 15.15544456622767555 10 8.749999999999978684 #
ellipse-curve $-1 1.443289932012703503e-13 10 0 0 -1 0 15.15544456737744738 0 -8.749999998008249236 1 I I #
intcurve-curve $-1 forward { surfintcur full nurbs 3 open 6 
	0 3 0.1995818093412954075 1 0.3991248353309666541 1 0.5987637893074101436 1 0.7989590351825873737 1 
	0.999999999999999889 3 
	15.15544456622766312 10 -8.749999999999975131 1 
	15.49040080604927105 9.999661038782670985 -8.169838774316724894 1 
	16.15933686070101416 9.97208564773093542 -7.011207540645222558 1.000000000000000222 
	17.16034152708678917 9.847698405447115277 -5.277416599851539658 1 
	18.15922112572553715 9.647047871387734119 -3.547306384365218168 0.999999999999999778 
	19.17185076157404922 9.371639289566381592 -1.793380405825622192 1.000000000000000222 
	19.8598955817788223 9.141711112316242449 -0.6016518193463564756 0.999999999999999889 
	20.20725942163686994 9.014638154087442956 0 1 
	0.01000000000000000021 
	plane 20.20725942163686994 0 0 0.8660254037844387076 0 -0.499999999999999889 -5 0 -8.660254037844389075 forward_v I I I I 
	cone 0 6.369479099658537535 0 0 1 0 0 0 27.47477419454623515 1 I I -0.9396926207859084279 0.3420201433256686019 27.47477419454623515 forward I I I I 
	nullbs 
	nullbs 
	I I 
	0 
	0 
	0 
	} I I #
point $-1 20.20725942163686994 9.014638154087442956 0 #
intcurve-curve $-1 forward { surfintcur full nurbs 3 open 6 
	0 3 0.2010409648174123487 1 0.4012362106925888572 1 0.6008751646690316806 1 0.8004181906587033435 1 
	0.999999999999999889 3 
	20.20725942163689126 9.014638154087442956 0 1 
	19.85989558177884362 9.141711112316242449 0.6016518193463525899 1 
	19.17185076157407053 9.371639289566378039 1.793380405825605095 1 
	18.15922112572557623 9.647047871387730567 3.547306384365176868 1 
	17.16034152708686022 9.847698405447102843 5.277416599851447288 1 
	16.15933686070106745 9.97208564773093542 7.011207540645168379 1 
	15.4904008060492977 9.999661038782669209 8.169838774316705354 1 
	15.15544456622767555 10 8.749999999999978684 1 
	0.01000000000000000021 
	plane 10.1036297108184403 0 17.5 0.8660254037844387076 0 0.499999999999999889 5 0 -8.660254037844389075 forward_v I I I I 
	cone 0 6.369479099658537535 0 0 1 0 0 0 27.47477419454623515 1 I I -0.9396926207859084279 0.3420201433256686019 27.47477419454623515 forward I I I I 
	nullbs 
	nullbs 
	I I 
	0 
	0 
	0 
	} I I #
point $-1 15.15544456622766312 10 -8.749999999999975131 #
End-of-ACIS-data 