700 0 2 0           
24 FBMach with ACIS - 7.0.3 13 ACIS 7.0.3 NT 24 Thu May 16 15:48:34 2002 
1 9.9999999999999995e-007 1e-010 
body $2 -1 $-1 $3 $-1 $4 #
bdycol-kcp $-1 -1 1 3 $5 $6 $7 #
model_id-kcp-attrib $-1 -1 $-1 $-1 $0 1 1021578514 1021578514 1909194753 1 #
lump $-1 -1 $-1 $-1 $8 $0 #
transform $-1 -1 1 0 0 0 1 0 0 0 1 0 0 0 1 rotate no_reflect no_shear #
body $9 -1 $-1 $10 $-1 $11 #
body $12 -1 $-1 $13 $-1 $14 #
body $15 -1 $-1 $16 $-1 $17 #
shell $-1 -1 $-1 $-1 $-1 $18 $-1 $3 #
rgb_color-st-attrib $-1 -1 $19 $-1 $5 0.5 1 1 #
lump $-1 -1 $-1 $-1 $20 $5 #
transform $-1 -1 1 0 0 0 1 0 0 0 1 3.5527136788005009e-015 20 0 1 no_rotate no_reflect no_shear #
model_id-kcp-attrib $-1 -1 $-1 $-1 $6 1 1021578514 1021578514 1909194754 1 #
lump $-1 -1 $-1 $-1 $21 $6 #
transform $-1 -1 1 0 0 0 1 0 0 0 1 3.5527136788005009e-015 20 0 1 no_rotate no_reflect no_shear #
rgb_color-st-attrib $-1 -1 $22 $-1 $7 0.5 1 1 #
lump $-1 -1 $-1 $-1 $23 $7 #
transform $-1 -1 1 0 0 0 1 0 0 0 1 0 0 0 1 no_rotate no_reflect no_shear #
face $24 -1 $-1 $25 $26 $8 $-1 $27 reversed single #
model_id-kcp-attrib $-1 -1 $-1 $9 $5 1 1021578514 1021578514 1907490819 1 #
shell $-1 -1 $-1 $-1 $-1 $28 $-1 $10 #
shell $-1 -1 $-1 $-1 $-1 $29 $-1 $13 #
model_id-kcp-attrib $-1 -1 $-1 $15 $7 1 1021578514 1021578514 1911422980 1 #
shell $-1 -1 $-1 $-1 $-1 $30 $-1 $16 #
model_id-kcp-attrib $-1 -1 $-1 $-1 $18 1 1021578514 1021578514 1909194753 2 #
face $31 -1 $-1 $32 $33 $8 $-1 $34 forward single #
loop $-1 -1 $-1 $-1 $35 $18 #
cone-surface $-1 -1 $-1 0 41.999999999999993 0 0 -1 0 -20 0 0 1 I I 0 1 20 forward I I I I #
face $-1 -1 $-1 $36 $37 $20 $-1 $38 reversed single #
face $-1 -1 $-1 $39 $40 $21 $-1 $41 forward single #
face $-1 -1 $-1 $42 $43 $23 $-1 $44 forward single #
model_id-kcp-attrib $-1 -1 $-1 $-1 $25 1 1021578514 1021578514 1909194753 3 #
face $45 -1 $-1 $46 $47 $8 $-1 $48 forward single #
loop $-1 -1 $-1 $49 $50 $25 #
plane-surface $-1 -1 $-1 0 0 0 0 -1 0 -10 0 0 forward_v I I I I #
coedge $-1 -1 $-1 $51 $52 $53 $54 forward $26 $-1 #
face $-1 -1 $-1 $55 $56 $20 $-1 $38 reversed single #
loop $-1 -1 $-1 $-1 $57 $28 #
cone-surface $-1 -1 $-1 -3.5527136788005017e-015 -20 -4.4408920985006262e-015 0 -1 0 55 0 1.1176227044523701e-014 1 I I 0 1 55 forward I I I I #
face $-1 -1 $-1 $58 $59 $21 $-1 $60 reversed single #
loop $-1 -1 $-1 $-1 $61 $29 #
plane-surface $-1 -1 $-1 0 0 55.000000000000007 0 0 1 1 0 0 forward_v I I I I #
face $-1 -1 $-1 $62 $63 $23 $-1 $64 forward single #
loop $-1 -1 $-1 $65 $66 $30 #
cone-surface $-1 -1 $-1 0 0 -5.5511151231257827e-016 0 1 0 20 0 5.5511151231257827e-016 1 I I 0 1 20 forward I I I I #
model_id-kcp-attrib $-1 -1 $-1 $-1 $32 1 1021578514 1021578514 1909194753 4 #
face $67 -1 $-1 $68 $69 $8 $-1 $70 forward single #
loop $-1 -1 $-1 $-1 $71 $32 #
cone-surface $-1 -1 $-1 0 -10.983844616974929 0 0 -1 0 -21.445069205095585 0 0 1 I I -0.90630778703664994 0.42261826174069944 21.445069205095585 forward I I I I #
loop $-1 -1 $-1 $-1 $53 $25 #
coedge $-1 -1 $-1 $72 $72 $71 $73 reversed $33 $-1 #
coedge $-1 -1 $-1 $74 $35 $75 $76 reversed $26 $-1 #
coedge $-1 -1 $-1 $35 $74 $77 $78 forward $26 $-1 #
coedge $-1 -1 $-1 $79 $79 $35 $54 reversed $49 $-1 #
edge $80 -1 $-1 $81 1.2246063538223773e-016 $82 3.1415926535897931 $35 $83 forward @7 unknown #
face $-1 -1 $-1 $84 $85 $20 $-1 $38 reversed single #
loop $-1 -1 $-1 $-1 $86 $36 #
coedge $-1 -1 $-1 $87 $88 $89 $90 reversed $37 $-1 #
face $91 -1 $-1 $92 $93 $21 $-1 $94 reversed single #
loop $-1 -1 $-1 $-1 $95 $39 #
plane-surface $-1 -1 $-1 0 0 -55.000000000000007 0 0 1 1 0 0 forward_v I I I I #
coedge $-1 -1 $-1 $96 $97 $98 $99 forward $40 $-1 #
face $-1 -1 $-1 $-1 $100 $23 $-1 $101 reversed single #
loop $-1 -1 $-1 $-1 $102 $42 #
plane-surface $-1 -1 $-1 9.6892191240013655e-016 39.999999999999993 8.8817841970012523e-016 0 1 0 0 0 1 forward_v I I I I #
loop $-1 -1 $-1 $-1 $103 $30 #
coedge $-1 -1 $-1 $66 $66 $102 $104 forward $43 $-1 #
model_id-kcp-attrib $-1 -1 $-1 $-1 $46 1 1021578514 1021578514 1909194753 5 #
face $105 -1 $-1 $106 $107 $8 $-1 $108 forward single #
loop $-1 -1 $-1 $-1 $109 $46 #
cone-surface $-1 -1 $-1 0 -10.983844616974929 0 0 -1 0 -21.445069205095585 0 0 1 I I -0.90630778703664994 0.42261826174069944 21.445069205095585 forward I I I I #
coedge $-1 -1 $-1 $110 $111 $50 $73 forward $47 $-1 #
coedge $-1 -1 $-1 $50 $50 $112 $113 forward $33 $-1 #
edge $114 -1 $-1 $115 0 $116 3.1415926535897931 $50 $117 forward @7 unknown #
coedge $-1 -1 $-1 $52 $51 $118 $119 reversed $26 $-1 #
coedge $-1 -1 $-1 $120 $121 $51 $76 forward $122 $-1 #
edge $-1 -1 $-1 $123 0 $82 3.9999999999999991 $51 $124 forward @7 unknown #
coedge $-1 -1 $-1 $121 $120 $52 $78 reversed $122 $-1 #
edge $-1 -1 $-1 $125 0 $81 3.9999999999999991 $52 $126 forward @7 unknown #
coedge $-1 -1 $-1 $53 $53 $120 $127 forward $49 $-1 #
attrib_edge_convexity-kcp-attrib $-1 -1 $128 $-1 $54 1 #
vertex $-1 -1 $-1 $78 $129 #
vertex $-1 -1 $-1 $76 $130 #
ellipse-curve $-1 -1 $-1 0 0 -5.5511151231257827e-016 0 -1 0 20 0 5.5511151231257827e-016 1 I I #
face $-1 -1 $-1 $131 $132 $20 $-1 $38 reversed single #
loop $-1 -1 $-1 $-1 $133 $55 #
coedge $-1 -1 $-1 $134 $135 $136 $137 reversed $56 $-1 #
coedge $-1 -1 $-1 $138 $57 $139 $140 forward $37 $-1 #
coedge $-1 -1 $-1 $57 $138 $141 $142 reversed $37 $-1 #
coedge $-1 -1 $-1 $143 $144 $57 $90 forward $145 $-1 #
edge $-1 -1 $-1 $146 -2.0320412808224911e-016 $147 1.5707963267948963 $89 $148 forward @7 unknown #
model_id-kcp-attrib $-1 -1 $-1 $-1 $58 1 1021578514 1021578514 1909194754 2 #
face $-1 -1 $-1 $149 $150 $21 $-1 $151 reversed single #
loop $-1 -1 $-1 $-1 $152 $58 #
plane-surface $-1 -1 $-1 0 -20.000000000000007 0 0 1 0 0 0 1 forward_v I I I I #
coedge $-1 -1 $-1 $153 $154 $155 $156 forward $59 $-1 #
coedge $-1 -1 $-1 $157 $61 $158 $159 forward $40 $-1 #
coedge $-1 -1 $-1 $61 $157 $160 $161 forward $40 $-1 #
coedge $-1 -1 $-1 $162 $163 $61 $99 reversed $164 $-1 #
edge $-1 -1 $-1 $165 -20.000000000000007 $166 20.000000000000007 $98 $167 forward @7 unknown #
loop $-1 -1 $-1 $-1 $168 $62 #
plane-surface $-1 -1 $-1 9.6892191240013655e-016 0 8.8817841970012523e-016 0 1 0 0 0 1 forward_v I I I I #
coedge $-1 -1 $-1 $102 $102 $66 $104 reversed $63 $-1 #
coedge $-1 -1 $-1 $103 $103 $168 $169 reversed $65 $-1 #
edge $-1 -1 $-1 $170 1.2246063538223773e-016 $170 6.2831853071795862 $66 $171 forward @7 unknown #
model_id-kcp-attrib $-1 -1 $-1 $-1 $68 1 1021578514 1021578514 1909194753 6 #
face $172 -1 $-1 $173 $174 $8 $-1 $175 reversed single #
loop $-1 -1 $-1 $-1 $176 $68 #
cone-surface $-1 -1 $-1 0 41.999999999999993 0 0 -1 0 -55 0 0 1 I I 0 1 55 forward I I I I #
coedge $-1 -1 $-1 $177 $178 $179 $180 forward $69 $-1 #
coedge $-1 -1 $-1 $181 $71 $177 $182 forward $47 $-1 #
coedge $-1 -1 $-1 $71 $181 $178 $183 reversed $47 $-1 #
coedge $-1 -1 $-1 $178 $177 $72 $113 reversed $69 $-1 #
edge $184 -1 $-1 $115 0 $116 3.1415926535897931 $72 $185 forward @7 unknown #
attrib_edge_convexity-kcp-attrib $-1 -1 $186 $-1 $73 1 #
vertex $-1 -1 $-1 $113 $187 #
vertex $-1 -1 $-1 $113 $188 #
ellipse-curve $-1 -1 $-1 0 0 -2.2204460492503131e-015 -1.4802973661668753e-016 1 -2.5432083242480152e-032 45 6.6613381477509392e-015 7.7311746414510107e-015 1 I I #
coedge $-1 -1 $-1 $189 $189 $74 $119 forward $190 $-1 #
edge $-1 -1 $-1 $125 0 $123 3.1415926535897931 $74 $191 forward @7 unknown #
coedge $-1 -1 $-1 $77 $75 $79 $127 reversed $122 $-1 #
coedge $-1 -1 $-1 $75 $77 $189 $192 forward $122 $-1 #
loop $-1 -1 $-1 $-1 $121 $193 #
vertex $-1 -1 $-1 $119 $194 #
straight-curve $-1 -1 $-1 -20 39.999999999999993 -4.898425415289509e-015 0 -10 0 I I #
vertex $-1 -1 $-1 $78 $195 #
straight-curve $-1 -1 $-1 20 39.999999999999993 2.4492127076447545e-015 0 -10 0 I I #
edge $196 -1 $-1 $81 -1.2246063538223773e-016 $82 3.1415926535897931 $79 $197 forward @7 unknown #
convexity-sys-attrib $-1 -1 $-1 $80 $54 #
point $-1 -1 $-1 20 0 2.4492127076447545e-015 #
point $-1 -1 $-1 -20 0 0 #
face $-1 -1 $-1 $198 $199 $20 $-1 $200 forward single #
loop $-1 -1 $-1 $-1 $201 $84 #
coedge $-1 -1 $-1 $202 $203 $201 $204 forward $85 $-1 #
coedge $-1 -1 $-1 $205 $86 $206 $207 reversed $56 $-1 #
coedge $-1 -1 $-1 $86 $205 $88 $142 forward $56 $-1 #
coedge $-1 -1 $-1 $208 $209 $86 $137 forward $210 $-1 #
edge $-1 -1 $-1 $211 -3.1415926535897931 $212 -1.5707963267948963 $136 $213 forward @7 unknown #
coedge $-1 -1 $-1 $88 $87 $214 $215 reversed $37 $-1 #
coedge $-1 -1 $-1 $203 $202 $216 $140 reversed $85 $-1 #
edge $-1 -1 $-1 $146 -40.000000000000007 $217 7.1054273576010019e-015 $216 $218 forward @7 unknown #
coedge $-1 -1 $-1 $219 $220 $221 $142 forward $222 $-1 #
edge $-1 -1 $-1 $147 -40.000000000000007 $212 7.1054273576010019e-015 $141 $223 forward @7 unknown #
coedge $-1 -1 $-1 $144 $89 $220 $224 reversed $145 $-1 #
coedge $-1 -1 $-1 $89 $143 $225 $226 forward $145 $-1 #
loop $-1 -1 $-1 $-1 $89 $227 #
vertex $-1 -1 $-1 $228 $229 #
vertex $-1 -1 $-1 $230 $231 #
ellipse-curve $-1 -1 $-1 -3.5527136788005017e-015 20.000000000000007 -4.4408920985006262e-015 0 -1 0 55 0 1.1176227044523701e-014 1 I I #
face $232 -1 $-1 $233 $234 $21 $-1 $235 reversed single #
loop $-1 -1 $-1 $-1 $236 $92 #
plane-surface $-1 -1 $-1 -55 0 0 1 0 0 0 0 -1 forward_v I I I I #
coedge $-1 -1 $-1 $237 $160 $238 $239 forward $93 $-1 #
coedge $-1 -1 $-1 $240 $95 $237 $241 forward $59 $-1 #
coedge $-1 -1 $-1 $95 $240 $242 $243 forward $59 $-1 #
coedge $-1 -1 $-1 $163 $162 $95 $156 reversed $164 $-1 #
edge $-1 -1 $-1 $244 -20.000000000000007 $245 20.000000000000007 $155 $246 forward @7 unknown #
coedge $-1 -1 $-1 $97 $96 $247 $248 forward $40 $-1 #
coedge $-1 -1 $-1 $249 $250 $96 $159 reversed $234 $-1 #
edge $-1 -1 $-1 $166 -55 $251 55 $158 $252 forward @7 unknown #
coedge $-1 -1 $-1 $152 $253 $97 $161 reversed $93 $-1 #
edge $-1 -1 $-1 $254 -55 $165 55 $160 $255 forward @7 unknown #
coedge $-1 -1 $-1 $155 $98 $253 $256 forward $164 $-1 #
coedge $-1 -1 $-1 $98 $155 $249 $257 reversed $164 $-1 #
loop $-1 -1 $-1 $-1 $162 $233 #
vertex $-1 -1 $-1 $99 $258 #
vertex $-1 -1 $-1 $99 $259 #
straight-curve $-1 -1 $-1 55 0 55.000000000000007 0 1 0 I I #
coedge $-1 -1 $-1 $168 $168 $103 $169 forward $100 $-1 #
edge $-1 -1 $-1 $260 -3.1415926535897931 $260 3.1415926535897931 $103 $261 forward @7 unknown #
vertex $-1 -1 $-1 $104 $262 #
ellipse-curve $-1 -1 $-1 0 39.999999999999993 5.5511151231257827e-016 0 -1 0 20 0 -5.5511151231257827e-016 1 I I #
model_id-kcp-attrib $-1 -1 $-1 $-1 $106 1 1021578514 1021578514 1909194753 7 #
face $263 -1 $-1 $264 $265 $8 $-1 $266 forward single #
loop $-1 -1 $-1 $-1 $267 $106 #
torus-surface $-1 -1 $-1 0 20 0 0 -1 0 60 12.5 -1 0 0 forward_v I I I I #
coedge $-1 -1 $-1 $268 $269 $270 $271 forward $107 $-1 #
coedge $-1 -1 $-1 $112 $109 $110 $182 reversed $69 $-1 #
coedge $-1 -1 $-1 $109 $112 $111 $183 forward $69 $-1 #
coedge $-1 -1 $-1 $269 $268 $109 $180 reversed $107 $-1 #
edge $-1 -1 $-1 $272 0 $273 3.1415926535897931 $109 $274 forward @7 unknown #
coedge $-1 -1 $-1 $111 $110 $275 $276 reversed $47 $-1 #
edge $-1 -1 $-1 $116 -2.4464775421807312e-031 $273 1.1033779189624908 $177 $277 forward @7 unknown #
edge $-1 -1 $-1 $115 0 $272 1.1033779189624915 $178 $278 forward @7 unknown #
attrib_edge_convexity-kcp-attrib $-1 -1 $279 $-1 $113 1 #
ellipse-curve $-1 -1 $-1 0 0 0 1.4802973661668753e-016 -1 1.8127815601544857e-032 45 6.6613381477509392e-015 5.5107285922006977e-015 1 I I #
convexity-sys-attrib $-1 -1 $-1 $114 $73 #
point $-1 -1 $-1 45 6.6613381477509392e-015 5.5107285922006977e-015 #
point $-1 -1 $-1 -45 6.6613381477509392e-015 0 #
coedge $-1 -1 $-1 $118 $118 $121 $192 reversed $190 $-1 #
loop $-1 -1 $-1 $280 $189 $281 #
ellipse-curve $-1 -1 $-1 5.5511151231257827e-016 40 5.5511151231257827e-016 -4.4408920985006262e-016 -1 -4.2057495160556263e-032 20 -8.8817841970012523e-015 1.8941011953321762e-015 1 I I #
edge $-1 -1 $-1 $125 0 $123 3.1415926535897931 $189 $282 forward @7 unknown #
face $283 -1 $-1 $284 $122 $8 $-1 $285 reversed single #
point $-1 -1 $-1 -20 39.999999999999993 0 #
point $-1 -1 $-1 20 39.999999999999993 2.4492127076447545e-015 #
attrib_edge_convexity-kcp-attrib $-1 -1 $286 $-1 $127 1 #
ellipse-curve $-1 -1 $-1 0 0 5.5511151231257827e-016 0 1 0 20 0 -5.5511151231257827e-016 1 I I #
face $-1 -1 $-1 $287 $288 $20 $-1 $289 reversed single #
loop $-1 -1 $-1 $-1 $221 $131 #
plane-surface $-1 -1 $-1 0 0 55.000000000000007 0 0 1 1 0 0 forward_v I I I I #
coedge $-1 -1 $-1 $290 $291 $292 $204 reversed $132 $-1 #
coedge $-1 -1 $-1 $139 $133 $293 $294 reversed $85 $-1 #
coedge $-1 -1 $-1 $133 $139 $295 $296 reversed $85 $-1 #
edge $-1 -1 $-1 $297 -40.000000000000007 $298 7.1054273576010019e-015 $292 $299 forward @7 unknown #
coedge $-1 -1 $-1 $135 $134 $300 $301 reversed $56 $-1 #
coedge $-1 -1 $-1 $302 $303 $304 $207 forward $305 $-1 #
edge $-1 -1 $-1 $306 -40.000000000000007 $211 7.1054273576010019e-015 $206 $307 forward @7 unknown #
coedge $-1 -1 $-1 $209 $136 $308 $309 reversed $210 $-1 #
coedge $-1 -1 $-1 $136 $208 $302 $310 forward $210 $-1 #
loop $-1 -1 $-1 $-1 $136 $311 #
vertex $-1 -1 $-1 $312 $313 #
vertex $-1 -1 $-1 $314 $315 #
ellipse-curve $-1 -1 $-1 -3.5527136788005017e-015 -20.000000000000007 -4.4408920985006262e-015 0 1 0 55 0 1.1176227044523701e-014 1 I I #
coedge $-1 -1 $-1 $316 $317 $138 $215 forward $318 $-1 #
edge $-1 -1 $-1 $212 -1.5707963267948963 $217 2.0320412808224911e-016 $214 $213 forward @7 unknown #
coedge $-1 -1 $-1 $319 $320 $321 $140 forward $288 $-1 #
vertex $-1 -1 $-1 $322 $323 #
straight-curve $-1 -1 $-1 55 -20 -4.4408920985006262e-015 0 -1 0 I I #
coedge $-1 -1 $-1 $324 $141 $317 $314 forward $222 $-1 #
coedge $-1 -1 $-1 $141 $324 $143 $224 forward $222 $-1 #
coedge $-1 -1 $-1 $325 $308 $135 $142 reversed $199 $-1 #
loop $-1 -1 $-1 $-1 $141 $326 #
straight-curve $-1 -1 $-1 -3.5527136788005017e-015 -20 55.000000000000007 0 -1 0 I I #
edge $-1 -1 $-1 $327 -55 $147 3.5527136788005017e-015 $143 $328 forward @7 unknown #
coedge $-1 -1 $-1 $329 $321 $144 $226 reversed $330 $-1 #
edge $-1 -1 $-1 $327 -55.000000000000007 $146 4.4408920985006262e-015 $225 $331 forward @7 unknown #
face $-1 -1 $-1 $332 $145 $20 $-1 $333 reversed single #
edge $-1 -1 $-1 $146 4.4408920985006262e-015 $334 55.000000000000007 $320 $331 forward @7 unknown #
point $-1 -1 $-1 55 20.000000000000007 -4.4408920985006262e-015 #
edge $-1 -1 $-1 $147 3.5527136788005017e-015 $335 55 $336 $328 forward @7 unknown #
point $-1 -1 $-1 -3.5527136788005017e-015 20.000000000000007 55.000000000000007 #
model_id-kcp-attrib $-1 -1 $-1 $-1 $149 1 1021578514 1021578514 1909194754 3 #
face $-1 -1 $-1 $-1 $164 $21 $-1 $337 reversed single #
loop $-1 -1 $-1 $-1 $249 $149 #
plane-surface $-1 -1 $-1 0 20.000000000000007 0 0 -1 0 0 0 -1 forward_v I I I I #
coedge $-1 -1 $-1 $338 $247 $250 $339 forward $150 $-1 #
coedge $-1 -1 $-1 $253 $152 $153 $241 reversed $93 $-1 #
coedge $-1 -1 $-1 $247 $338 $152 $239 reversed $150 $-1 #
edge $-1 -1 $-1 $254 -55.000000000000007 $340 55.000000000000007 $238 $341 forward @7 unknown #
coedge $-1 -1 $-1 $154 $153 $338 $342 forward $59 $-1 #
edge $-1 -1 $-1 $245 -55 $340 55 $237 $343 forward @7 unknown #
coedge $-1 -1 $-1 $250 $249 $154 $243 reversed $234 $-1 #
edge $-1 -1 $-1 $344 -55 $244 55 $242 $345 forward @7 unknown #
vertex $-1 -1 $-1 $156 $346 #
vertex $-1 -1 $-1 $256 $347 #
straight-curve $-1 -1 $-1 55 0 -55.000000000000007 0 -1 0 I I #
coedge $-1 -1 $-1 $236 $238 $157 $248 reversed $150 $-1 #
edge $-1 -1 $-1 $251 -20.000000000000007 $254 20.000000000000007 $247 $348 forward @7 unknown #
coedge $-1 -1 $-1 $242 $158 $163 $257 forward $234 $-1 #
coedge $-1 -1 $-1 $158 $242 $236 $339 reversed $234 $-1 #
vertex $-1 -1 $-1 $159 $349 #
straight-curve $-1 -1 $-1 0 20.000000000000007 55.000000000000007 -1 0 0 I I #
coedge $-1 -1 $-1 $160 $237 $162 $256 reversed $93 $-1 #
vertex $-1 -1 $-1 $248 $350 #
straight-curve $-1 -1 $-1 0 -20.000000000000007 55.000000000000007 1 0 0 I I #
edge $-1 -1 $-1 $165 -55.000000000000007 $245 55.000000000000007 $162 $351 forward @7 unknown #
edge $-1 -1 $-1 $166 -55.000000000000007 $244 55.000000000000007 $163 $352 forward @7 unknown #
point $-1 -1 $-1 55 -20.000000000000007 55.000000000000007 #
point $-1 -1 $-1 55 20.000000000000007 55.000000000000007 #
vertex $-1 -1 $-1 $169 $353 #
ellipse-curve $-1 -1 $-1 0 0 -5.5511151231257827e-016 0 -1 0 20 0 5.5511151231257827e-016 1 I I #
point $-1 -1 $-1 20 39.999999999999993 2.4492127076447545e-015 #
model_id-kcp-attrib $-1 -1 $-1 $-1 $173 1 1021578514 1021578514 1909194753 8 #
face $354 -1 $-1 $281 $355 $8 $-1 $356 forward single #
loop $-1 -1 $-1 $-1 $357 $173 #
cone-surface $-1 -1 $-1 0 41.999999999999993 0 0 -1 0 -55 0 0 1 I I 0 1 55 forward I I I I #
coedge $-1 -1 $-1 $358 $359 $360 $361 forward $174 $-1 #
coedge $-1 -1 $-1 $179 $176 $362 $363 reversed $107 $-1 #
coedge $-1 -1 $-1 $176 $179 $364 $365 forward $107 $-1 #
coedge $-1 -1 $-1 $359 $358 $176 $271 reversed $174 $-1 #
edge $-1 -1 $-1 $366 0 $367 3.1415926535897931 $176 $368 forward @7 unknown #
vertex $-1 -1 $-1 $183 $369 #
vertex $-1 -1 $-1 $182 $370 #
ellipse-curve $-1 -1 $-1 0 4.6630765815499764 -6.6613381477509392e-015 0 -1 0 55 0 1.3396673093774014e-014 1 I I #
coedge $-1 -1 $-1 $362 $364 $181 $276 forward $371 $-1 #
edge $-1 -1 $-1 $272 0 $273 3.1415926535897931 $181 $372 forward @7 unknown #
straight-curve $-1 -1 $-1 -45 6.6613381477509392e-015 -1.1021457184401395e-014 -9.0630778703665005 4.2261826174069963 -2.2197405490475593e-015 I I #
straight-curve $-1 -1 $-1 45 6.6613381477509392e-015 5.5107285922006977e-015 9.0630778703665005 4.2261826174069963 1.1098702745237796e-015 I I #
convexity-sys-attrib $-1 -1 $-1 $184 $113 #
loop $-1 -1 $-1 $-1 $373 $281 #
face $374 -1 $-1 $193 $190 $8 $-1 $375 reversed single #
ellipse-curve $-1 -1 $-1 0 40 0 4.4408920985006262e-016 1 5.4383446804634572e-032 20 -8.8817841970012523e-015 2.4492127076447545e-015 1 I I #
model_id-kcp-attrib $-1 -1 $-1 $-1 $193 1 1021578514 1021578514 1909194753 11 #
face $376 -1 $-1 $377 $378 $8 $-1 $379 forward single #
cone-surface $-1 -1 $-1 0 41.999999999999993 0 0 -1 0 -20 0 0 1 I I 0 1 20 forward I I I I #
convexity-sys-attrib $-1 -1 $-1 $196 $127 #
face $-1 -1 $-1 $380 $381 $20 $-1 $382 reversed single #
loop $-1 -1 $-1 $-1 $216 $198 #
plane-surface $-1 -1 $-1 55 0 0 -1 0 0 0 0 1 forward_v I I I I #
coedge $-1 -1 $-1 $383 $201 $384 $385 reversed $132 $-1 #
coedge $-1 -1 $-1 $201 $383 $386 $387 reversed $132 $-1 #
coedge $-1 -1 $-1 $388 $389 $390 $204 forward $391 $-1 #
coedge $-1 -1 $-1 $392 $393 $202 $294 forward $394 $-1 #
edge $-1 -1 $-1 $217 2.0320412808224911e-016 $298 1.5707963267948968 $293 $213 forward @7 unknown #
coedge $-1 -1 $-1 $395 $396 $203 $296 forward $397 $-1 #
edge $-1 -1 $-1 $297 -1.5707963267948968 $146 -2.0320412808224911e-016 $295 $148 forward @7 unknown #
vertex $-1 -1 $-1 $398 $399 #
vertex $-1 -1 $-1 $400 $401 #
straight-curve $-1 -1 $-1 -3.5527136788005017e-015 -20 -55.000000000000007 0 -1 0 I I #
coedge $-1 -1 $-1 $402 $336 $205 $301 forward $403 $-1 #
edge $-1 -1 $-1 $147 1.5707963267948963 $306 3.1415926535897931 $300 $148 forward @7 unknown #
coedge $-1 -1 $-1 $404 $206 $209 $310 reversed $305 $-1 #
coedge $-1 -1 $-1 $206 $404 $402 $405 forward $305 $-1 #
coedge $-1 -1 $-1 $406 $407 $383 $207 reversed $381 $-1 #
loop $-1 -1 $-1 $-1 $206 $408 #
vertex $-1 -1 $-1 $409 $410 #
straight-curve $-1 -1 $-1 -55 -20 -4.4408920985006262e-015 0 -1 0 I I #
coedge $-1 -1 $-1 $221 $411 $208 $309 forward $199 $-1 #
edge $-1 -1 $-1 $412 -55 $212 -3.5527136788005017e-015 $208 $413 forward @7 unknown #
edge $-1 -1 $-1 $412 -55.000000000000007 $211 4.4408920985006262e-015 $302 $414 forward @7 unknown #
face $-1 -1 $-1 $415 $210 $20 $-1 $416 reversed single #
edge $-1 -1 $-1 $211 4.4408920985006262e-015 $417 55.000000000000007 $407 $414 forward @7 unknown #
point $-1 -1 $-1 -55 -20.000000000000007 -4.4408920985006262e-015 #
edge $-1 -1 $-1 $212 -3.5527136788005017e-015 $418 55 $317 $413 forward @7 unknown #
point $-1 -1 $-1 -3.5527136788005017e-015 -20.000000000000007 55.000000000000007 #
coedge $-1 -1 $-1 $317 $214 $419 $420 reversed $318 $-1 #
coedge $-1 -1 $-1 $214 $316 $219 $314 reversed $318 $-1 #
loop $-1 -1 $-1 $-1 $214 $415 #
coedge $-1 -1 $-1 $421 $216 $393 $322 forward $288 $-1 #
coedge $-1 -1 $-1 $216 $421 $395 $228 reversed $288 $-1 #
coedge $-1 -1 $-1 $225 $419 $87 $140 reversed $330 $-1 #
edge $-1 -1 $-1 $217 4.4408920985006262e-015 $422 55.000000000000007 $319 $423 forward @7 unknown #
point $-1 -1 $-1 55 -20.000000000000007 -4.4408920985006262e-015 #
coedge $-1 -1 $-1 $220 $219 $329 $424 forward $222 $-1 #
coedge $-1 -1 $-1 $411 $221 $336 $230 forward $199 $-1 #
face $-1 -1 $-1 $425 $222 $20 $-1 $200 forward single #
vertex $-1 -1 $-1 $424 $426 #
straight-curve $-1 -1 $-1 0 20.000000000000007 55.000000000000007 -1 0 0 I I #
coedge $-1 -1 $-1 $419 $225 $324 $424 reversed $330 $-1 #
loop $-1 -1 $-1 $-1 $321 $427 #
straight-curve $-1 -1 $-1 55 20.000000000000007 0 0 0 -1 I I #
face $-1 -1 $-1 $428 $403 $20 $-1 $333 reversed single #
plane-surface $-1 -1 $-1 0 20.000000000000007 0 0 -1 0 0 0 -1 forward_v I I I I #
vertex $-1 -1 $-1 $429 $430 #
vertex $-1 -1 $-1 $230 $431 #
coedge $-1 -1 $-1 $300 $402 $325 $230 reversed $403 $-1 #
plane-surface $-1 -1 $-1 55 0 0 -1 0 0 0 0 1 forward_v I I I I #
coedge $-1 -1 $-1 $238 $236 $240 $342 reversed $150 $-1 #
edge $-1 -1 $-1 $251 -55.000000000000007 $344 55.000000000000007 $250 $432 forward @7 unknown #
vertex $-1 -1 $-1 $342 $433 #
straight-curve $-1 -1 $-1 -55 -20.000000000000007 0 0 0 -1 I I #
edge $-1 -1 $-1 $340 -20.000000000000007 $344 20.000000000000007 $338 $434 forward @7 unknown #
straight-curve $-1 -1 $-1 0 -20.000000000000007 -55.000000000000007 -1 0 0 I I #
vertex $-1 -1 $-1 $243 $435 #
straight-curve $-1 -1 $-1 0 20.000000000000007 -55.000000000000007 1 0 0 I I #
point $-1 -1 $-1 55 20.000000000000007 -55.000000000000007 #
point $-1 -1 $-1 55 -20.000000000000007 -55.000000000000007 #
straight-curve $-1 -1 $-1 -55 0 55.000000000000007 0 -1 0 I I #
point $-1 -1 $-1 -55 20.000000000000007 55.000000000000007 #
point $-1 -1 $-1 -55 -20.000000000000007 55.000000000000007 #
straight-curve $-1 -1 $-1 55 -20.000000000000007 0 0 0 -1 I I #
straight-curve $-1 -1 $-1 55 20.000000000000007 0 0 0 -1 I I #
point $-1 -1 $-1 -20 0 0 #
model_id-kcp-attrib $-1 -1 $-1 $-1 $264 1 1021578514 1021578514 1909194753 9 #
loop $-1 -1 $-1 $-1 $436 $264 #
cone-surface $-1 -1 $-1 0 50.983844616974935 0 0 1 0 -21.445069205095585 0 0 1 I I -0.90630778703664994 0.42261826174069944 21.445069205095585 forward I I I I #
coedge $-1 -1 $-1 $437 $438 $439 $440 forward $265 $-1 #
coedge $-1 -1 $-1 $270 $267 $441 $442 reversed $174 $-1 #
coedge $-1 -1 $-1 $267 $270 $443 $444 forward $174 $-1 #
coedge $-1 -1 $-1 $438 $437 $267 $361 reversed $265 $-1 #
edge $-1 -1 $-1 $445 0 $446 3.1415926535897931 $267 $447 forward @7 unknown #
coedge $-1 -1 $-1 $448 $275 $268 $363 forward $371 $-1 #
edge $-1 -1 $-1 $273 0 $367 0.38804841810604279 $268 $449 forward @7 unknown #
coedge $-1 -1 $-1 $275 $448 $269 $365 reversed $371 $-1 #
edge $-1 -1 $-1 $272 1.7763568394002505e-015 $366 0.38804841810604174 $269 $450 forward @7 unknown #
vertex $-1 -1 $-1 $365 $451 #
vertex $-1 -1 $-1 $363 $452 #
ellipse-curve $-1 -1 $-1 0 8.5435607626104044 0 0 -1 0 54.999999999999993 0 6.7353349460230741e-015 1 I I #
point $-1 -1 $-1 55 4.6630765815499942 6.7353349460230749e-015 #
point $-1 -1 $-1 -55 4.6630765815499764 -1.347066989204615e-014 #
loop $-1 -1 $-1 $-1 $275 $453 #
ellipse-curve $-1 -1 $-1 -2.2204460492503131e-015 4.6630765815499764 -4.4408920985006262e-015 0 1 0 55 0 1.1176227044523701e-014 1 I I #
coedge $-1 -1 $-1 $454 $454 $436 $455 reversed $280 $-1 #
model_id-kcp-attrib $-1 -1 $-1 $-1 $281 1 1021578514 1021578514 1909194753 10 #
plane-surface $-1 -1 $-1 0 40 0 0 -1 0 -10 0 0 forward_v I I I I #
model_id-kcp-attrib $-1 -1 $-1 $-1 $284 1 1021578514 1021578514 1909194753 12 #
face $456 -1 $-1 $457 $458 $8 $-1 $459 forward single #
loop $-1 -1 $-1 $-1 $460 $284 #
cone-surface $-1 -1 $-1 0 50.983844616974935 0 0 1 0 -21.445069205095585 0 0 1 I I -0.90630778703664994 0.42261826174069944 21.445069205095585 forward I I I I #
face $-1 -1 $-1 $311 $461 $20 $-1 $416 reversed single #
loop $-1 -1 $-1 $-1 $304 $287 #
plane-surface $-1 -1 $-1 -55 0 0 1 0 0 0 0 -1 forward_v I I I I #
coedge $-1 -1 $-1 $291 $290 $134 $207 forward $132 $-1 #
coedge $-1 -1 $-1 $462 $463 $290 $385 forward $464 $-1 #
edge $-1 -1 $-1 $306 -3.1415926535897931 $297 -1.5707963267948968 $384 $148 forward @7 unknown #
coedge $-1 -1 $-1 $465 $466 $291 $387 forward $461 $-1 #
edge $-1 -1 $-1 $298 1.5707963267948968 $211 3.1415926535897931 $386 $213 forward @7 unknown #
coedge $-1 -1 $-1 $467 $292 $466 $400 forward $391 $-1 #
coedge $-1 -1 $-1 $292 $467 $462 $468 forward $391 $-1 #
coedge $-1 -1 $-1 $469 $470 $133 $204 reversed $471 $-1 #
loop $-1 -1 $-1 $-1 $292 $425 #
coedge $-1 -1 $-1 $393 $293 $470 $472 reversed $394 $-1 #
coedge $-1 -1 $-1 $293 $392 $319 $322 reversed $394 $-1 #
loop $-1 -1 $-1 $-1 $293 $473 #
coedge $-1 -1 $-1 $396 $295 $320 $228 forward $397 $-1 #
coedge $-1 -1 $-1 $295 $395 $469 $398 reversed $397 $-1 #
loop $-1 -1 $-1 $-1 $295 $474 #
edge $-1 -1 $-1 $297 -3.5527136788005017e-015 $334 55 $396 $475 forward @7 unknown #
point $-1 -1 $-1 -3.5527136788005017e-015 20.000000000000007 -55.000000000000007 #
edge $-1 -1 $-1 $298 3.5527136788005017e-015 $417 55 $466 $476 forward @7 unknown #
point $-1 -1 $-1 -3.5527136788005017e-015 -20.000000000000007 -55.000000000000007 #
coedge $-1 -1 $-1 $336 $300 $303 $405 reversed $403 $-1 #
loop $-1 -1 $-1 $-1 $300 $332 #
coedge $-1 -1 $-1 $303 $302 $411 $477 reversed $305 $-1 #
edge $-1 -1 $-1 $335 -55.000000000000007 $306 4.4408920985006262e-015 $402 $478 forward @7 unknown #
coedge $-1 -1 $-1 $479 $304 $463 $409 forward $381 $-1 #
coedge $-1 -1 $-1 $304 $479 $465 $312 reversed $381 $-1 #
face $-1 -1 $-1 $427 $305 $20 $-1 $382 reversed single #
edge $-1 -1 $-1 $306 4.4408920985006262e-015 $480 55.000000000000007 $463 $478 forward @7 unknown #
point $-1 -1 $-1 -55 20.000000000000007 -4.4408920985006262e-015 #
coedge $-1 -1 $-1 $308 $325 $404 $477 forward $199 $-1 #
vertex $-1 -1 $-1 $477 $481 #
straight-curve $-1 -1 $-1 0 -20.000000000000007 55.000000000000007 1 0 0 I I #
straight-curve $-1 -1 $-1 -55 -20.000000000000007 0 0 0 -1 I I #
face $-1 -1 $-1 $473 $318 $20 $-1 $416 reversed single #
plane-surface $-1 -1 $-1 0 -20.000000000000007 0 0 1 0 0 0 1 forward_v I I I I #
vertex $-1 -1 $-1 $482 $483 #
vertex $-1 -1 $-1 $424 $484 #
coedge $-1 -1 $-1 $321 $329 $316 $420 forward $330 $-1 #
edge $-1 -1 $-1 $418 -55.000000000000007 $217 4.4408920985006262e-015 $419 $423 forward @7 unknown #
coedge $-1 -1 $-1 $320 $319 $485 $429 reversed $288 $-1 #
vertex $-1 -1 $-1 $322 $486 #
straight-curve $-1 -1 $-1 55 -20.000000000000007 0 0 0 -1 I I #
edge $-1 -1 $-1 $418 -20.000000000000007 $327 20.000000000000007 $329 $487 forward @7 unknown #
face $-1 -1 $-1 $408 $391 $20 $-1 $488 reversed single #
point $-1 -1 $-1 55 20.000000000000007 55.000000000000007 #
face $-1 -1 $-1 $-1 $330 $20 $-1 $289 reversed single #
face $-1 -1 $-1 $489 $464 $20 $-1 $333 reversed single #
edge $-1 -1 $-1 $334 -20.000000000000007 $422 20.000000000000007 $421 $490 forward @7 unknown #
point $-1 -1 $-1 55 20.000000000000007 -55.000000000000007 #
point $-1 -1 $-1 -55 20.000000000000007 55.000000000000007 #
straight-curve $-1 -1 $-1 -55 20.000000000000007 0 0 0 -1 I I #
point $-1 -1 $-1 -55 -20.000000000000007 -55.000000000000007 #
straight-curve $-1 -1 $-1 -55 0 -55.000000000000007 0 1 0 I I #
point $-1 -1 $-1 -55 20.000000000000007 -55.000000000000007 #
coedge $-1 -1 $-1 $491 $492 $373 $455 forward $355 $-1 #
coedge $-1 -1 $-1 $360 $357 $493 $494 reversed $265 $-1 #
coedge $-1 -1 $-1 $357 $360 $495 $496 forward $265 $-1 #
coedge $-1 -1 $-1 $492 $491 $357 $440 reversed $355 $-1 #
edge $-1 -1 $-1 $497 0 $498 3.1415926535897931 $357 $499 forward @7 unknown #
coedge $-1 -1 $-1 $500 $501 $358 $442 forward $502 $-1 #
edge $-1 -1 $-1 $367 -1.8189894035458575e-016 $446 2.3185589614548161 $358 $503 forward @7 unknown #
coedge $-1 -1 $-1 $501 $500 $359 $444 reversed $502 $-1 #
edge $-1 -1 $-1 $366 -1.0459189070388679e-015 $445 2.3185589614548161 $359 $504 forward @7 unknown #
vertex $-1 -1 $-1 $444 $505 #
vertex $-1 -1 $-1 $442 $506 #
ellipse-curve $-1 -1 $-1 0 31.456439237389588 0 0 -1 0 55 0 6.7353349460230749e-015 1 I I #
coedge $-1 -1 $-1 $364 $362 $501 $507 reversed $371 $-1 #
straight-curve $-1 -1 $-1 -55 4.6630765815499764 -1.347066989204615e-014 0 10 0 I I #
straight-curve $-1 -1 $-1 55 4.6630765815499764 6.7353349460230749e-015 0 10 0 I I #
point $-1 -1 $-1 55 8.5435607626103938 6.7353349460230749e-015 #
point $-1 -1 $-1 -54.999999999999993 8.5435607626104044 -1.3470669892046148e-014 #
face $508 -1 $-1 $-1 $371 $8 $-1 $509 forward single #
coedge $-1 -1 $-1 $373 $373 $510 $511 forward $280 $-1 #
edge $-1 -1 $-1 $512 1.2246063538223773e-016 $513 3.1415926535897931 $436 $514 forward @7 unknown #
model_id-kcp-attrib $-1 -1 $-1 $-1 $377 1 1021578514 1021578514 1909194753 13 #
face $515 -1 $-1 $453 $502 $8 $-1 $516 reversed single #
loop $-1 -1 $-1 $-1 $517 $377 #
cone-surface $-1 -1 $-1 0 41.999999999999993 0 0 -1 0 -55 0 0 1 I I 0 1 55 forward I I I I #
coedge $-1 -1 $-1 $518 $519 $520 $521 forward $378 $-1 #
loop $-1 -1 $-1 $-1 $386 $380 #
coedge $-1 -1 $-1 $463 $384 $389 $468 reversed $464 $-1 #
coedge $-1 -1 $-1 $384 $462 $406 $409 reversed $464 $-1 #
loop $-1 -1 $-1 $-1 $384 $428 #
coedge $-1 -1 $-1 $466 $386 $407 $312 forward $461 $-1 #
coedge $-1 -1 $-1 $386 $465 $388 $400 reversed $461 $-1 #
coedge $-1 -1 $-1 $389 $388 $479 $482 forward $391 $-1 #
edge $-1 -1 $-1 $480 -55 $297 -3.5527136788005017e-015 $462 $475 forward @7 unknown #
coedge $-1 -1 $-1 $485 $390 $396 $398 forward $471 $-1 #
coedge $-1 -1 $-1 $390 $485 $392 $472 forward $471 $-1 #
loop $-1 -1 $-1 $-1 $390 $489 #
edge $-1 -1 $-1 $422 -55 $298 3.5527136788005017e-015 $392 $476 forward @7 unknown #
face $-1 -1 $-1 $474 $394 $20 $-1 $416 reversed single #
face $-1 -1 $-1 $227 $397 $20 $-1 $333 reversed single #
straight-curve $-1 -1 $-1 0 20.000000000000007 -55.000000000000007 1 0 0 I I #
straight-curve $-1 -1 $-1 0 -20.000000000000007 -55.000000000000007 -1 0 0 I I #
edge $-1 -1 $-1 $335 -20.000000000000007 $412 20.000000000000007 $404 $522 forward @7 unknown #
straight-curve $-1 -1 $-1 -55 20.000000000000007 0 0 0 -1 I I #
coedge $-1 -1 $-1 $407 $406 $467 $482 reversed $381 $-1 #
vertex $-1 -1 $-1 $468 $523 #
point $-1 -1 $-1 -55 -20.000000000000007 55.000000000000007 #
edge $-1 -1 $-1 $417 -20.000000000000007 $480 20.000000000000007 $479 $524 forward @7 unknown #
point $-1 -1 $-1 -55 -20.000000000000007 -55.000000000000007 #
point $-1 -1 $-1 55 -20.000000000000007 55.000000000000007 #
coedge $-1 -1 $-1 $470 $469 $421 $429 forward $471 $-1 #
point $-1 -1 $-1 55 -20.000000000000007 -55.000000000000007 #
straight-curve $-1 -1 $-1 55 0 55.000000000000007 0 1 0 I I #
plane-surface $-1 -1 $-1 0 0 -55.000000000000007 0 0 1 1 0 0 forward_v I I I I #
face $-1 -1 $-1 $326 $471 $20 $-1 $488 reversed single #
straight-curve $-1 -1 $-1 55 0 -55.000000000000007 0 -1 0 I I #
coedge $-1 -1 $-1 $439 $436 $518 $525 reversed $355 $-1 #
coedge $-1 -1 $-1 $436 $439 $519 $526 forward $355 $-1 #
coedge $-1 -1 $-1 $520 $517 $437 $494 forward $458 $-1 #
edge $-1 -1 $-1 $446 0 $498 0.38804841810604246 $437 $527 forward @7 unknown #
coedge $-1 -1 $-1 $517 $520 $438 $496 reversed $458 $-1 #
edge $-1 -1 $-1 $445 7.1054273576010023e-016 $497 0.38804841810604174 $438 $528 forward @7 unknown #
vertex $-1 -1 $-1 $496 $529 #
vertex $-1 -1 $-1 $494 $530 #
ellipse-curve $-1 -1 $-1 2.2204460492503131e-015 35.336923418450013 4.4408920985006262e-015 0 -1 0 55 0 2.2944428475224488e-015 1 I I #
coedge $-1 -1 $-1 $443 $441 $517 $531 reversed $502 $-1 #
coedge $-1 -1 $-1 $441 $443 $448 $507 forward $502 $-1 #
loop $-1 -1 $-1 $-1 $501 $457 #
ellipse-curve $-1 -1 $-1 -60 19.999999999999996 -1.4695276245868527e-014 -2.4492127076447545e-016 -1.577721810442025e-032 1 5.0000000000000089 -11.45643923738959 1.2246063538223792e-015 1 I I #
ellipse-curve $-1 -1 $-1 60 19.999999999999996 7.3476381229342635e-015 1.2246063538223773e-016 -7.8886090522101251e-033 -1 -5.0000000000000089 -11.45643923738959 -6.1230317691118962e-016 1 I I #
point $-1 -1 $-1 55 31.456439237389596 6.7353349460230749e-015 #
point $-1 -1 $-1 -55 31.456439237389588 -1.347066989204615e-014 #
edge $-1 -1 $-1 $366 0 $367 3.1415926535897931 $448 $532 forward @7 unknown #
model_id-kcp-attrib $-1 -1 $-1 $-1 $453 1 1021578514 1021578514 1909194753 15 #
cone-surface $-1 -1 $-1 0 41.999999999999993 0 0 -1 0 -55 0 0 1 I I 0 1 55 forward I I I I #
coedge $-1 -1 $-1 $519 $518 $454 $511 reversed $378 $-1 #
edge $-1 -1 $-1 $512 -1.2246063538223773e-016 $513 3.1415926535897931 $454 $533 forward @7 unknown #
vertex $-1 -1 $-1 $526 $534 #
vertex $-1 -1 $-1 $525 $535 #
ellipse-curve $-1 -1 $-1 0 40 0 0 -1 0 45 0 0 1 I I #
model_id-kcp-attrib $-1 -1 $-1 $-1 $457 1 1021578514 1021578514 1909194753 14 #
torus-surface $-1 -1 $-1 0 20 0 0 -1 0 60 12.5 -1 0 0 forward_v I I I I #
coedge $-1 -1 $-1 $493 $495 $500 $531 forward $458 $-1 #
coedge $-1 -1 $-1 $510 $460 $491 $525 forward $378 $-1 #
coedge $-1 -1 $-1 $460 $510 $492 $526 reversed $378 $-1 #
coedge $-1 -1 $-1 $495 $493 $460 $521 reversed $458 $-1 #
edge $-1 -1 $-1 $497 0 $498 3.1415926535897931 $520 $536 forward @7 unknown #
straight-curve $-1 -1 $-1 -55 0 55.000000000000007 0 -1 0 I I #
point $-1 -1 $-1 -55 20.000000000000007 -55.000000000000007 #
straight-curve $-1 -1 $-1 -55 0 -55.000000000000007 0 1 0 I I #
edge $-1 -1 $-1 $498 0 $513 1.1033779189624919 $491 $537 forward @7 unknown #
edge $-1 -1 $-1 $497 -3.0028833587941464e-016 $512 1.1033779189624919 $492 $538 forward @7 unknown #
straight-curve $-1 -1 $-1 -55 31.456439237389588 -1.347066989204615e-014 0 10 0 I I #
straight-curve $-1 -1 $-1 55 31.456439237389588 6.7353349460230749e-015 0 10 0 I I #
point $-1 -1 $-1 55 35.336923418450006 6.7353349460230749e-015 #
point $-1 -1 $-1 -55 35.336923418450013 -1.347066989204615e-014 #
edge $-1 -1 $-1 $445 0 $446 3.1415926535897931 $500 $539 forward @7 unknown #
ellipse-curve $-1 -1 $-1 0 8.5435607626104044 0 0 1 0 54.999999999999993 0 6.7353349460230741e-015 1 I I #
ellipse-curve $-1 -1 $-1 0 40 0 0 1 0 45 0 0 1 I I #
point $-1 -1 $-1 45 40 5.5107285922006977e-015 #
point $-1 -1 $-1 -45 40 0 #
ellipse-curve $-1 -1 $-1 -2.2204460492503131e-015 35.336923418450013 -4.4408920985006262e-015 0 1 0 55 0 1.1176227044523701e-014 1 I I #
straight-curve $-1 -1 $-1 -55 35.336923418450013 -1.347066989204615e-014 9.0630778703665005 4.2261826174069936 2.2197405490475593e-015 I I #
straight-curve $-1 -1 $-1 55 35.336923418450013 6.7353349460230749e-015 -9.0630778703665005 4.2261826174069936 -1.1098702745237796e-015 I I #
ellipse-curve $-1 -1 $-1 0 31.456439237389588 0 0 1 0 55 0 6.7353349460230749e-015 1 I I #
End-of-ACIS-data 