700 0 2 0           
24 FBMach with ACIS - 7.0.3 13 ACIS 7.0.3 NT 24 Thu May 16 15:53:33 2002 
1 9.9999999999999995e-007 1e-010 
body $2 -1 $-1 $3 $-1 $4 #
bdycol-kcp $-1 -1 1 3 $5 $6 $7 #
model_id-kcp-attrib $-1 -1 $-1 $-1 $0 1 1021578813 1021578813 1993998337 1 #
lump $-1 -1 $-1 $-1 $8 $0 #
transform $-1 -1 1 0 0 0 1 0 0 0 1 0 0 0 1 rotate no_reflect no_shear #
body $9 -1 $-1 $10 $-1 $11 #
body $12 -1 $-1 $13 $-1 $14 #
body $15 -1 $-1 $16 $-1 $17 #
shell $-1 -1 $-1 $-1 $-1 $18 $-1 $3 #
rgb_color-st-attrib $-1 -1 $19 $-1 $5 0.5 1 1 #
lump $-1 -1 $-1 $-1 $20 $5 #
transform $-1 -1 1 0 0 0 1 0 0 0 1 0 0 0 1 no_rotate no_reflect no_shear #
rgb_color-st-attrib $-1 -1 $21 $-1 $6 0.5 1 1 #
lump $-1 -1 $-1 $-1 $22 $6 #
transform $-1 -1 1 0 0 0 1 0 0 0 1 3.5527136788005009e-015 20 0 1 no_rotate no_reflect no_shear #
model_id-kcp-attrib $-1 -1 $-1 $-1 $7 1 1021578813 1021578813 1994653698 1 #
lump $-1 -1 $-1 $-1 $23 $7 #
transform $-1 -1 1 0 0 0 1 0 0 0 1 3.5527136788005009e-015 20 0 1 no_rotate no_reflect no_shear #
face $24 -1 $-1 $25 $26 $8 $-1 $27 reversed single #
model_id-kcp-attrib $-1 -1 $-1 $9 $5 1 1021578813 1021578813 1980104708 1 #
shell $-1 -1 $-1 $-1 $-1 $28 $-1 $10 #
model_id-kcp-attrib $-1 -1 $-1 $12 $6 1 1021578813 1021578813 1992294403 1 #
shell $-1 -1 $-1 $-1 $-1 $29 $-1 $13 #
shell $-1 -1 $-1 $-1 $-1 $30 $-1 $16 #
model_id-kcp-attrib $-1 -1 $-1 $-1 $18 1 1021578813 1021578813 1993998337 2 #
face $31 -1 $-1 $32 $33 $8 $-1 $34 forward single #
loop $-1 -1 $-1 $-1 $35 $18 #
cone-surface $-1 -1 $-1 0 41.999999999999993 0 0 -1 0 -20 0 0 1 I I 0 1 20 forward I I I I #
face $-1 -1 $-1 $36 $37 $20 $-1 $38 forward single #
face $-1 -1 $-1 $39 $40 $22 $-1 $41 reversed single #
face $-1 -1 $-1 $42 $43 $23 $-1 $44 forward single #
model_id-kcp-attrib $-1 -1 $-1 $-1 $25 1 1021578813 1021578813 1993998337 3 #
face $45 -1 $-1 $46 $47 $8 $-1 $48 forward single #
loop $-1 -1 $-1 $49 $50 $25 #
plane-surface $-1 -1 $-1 0 0 0 0 -1 0 -10 0 0 forward_v I I I I #
coedge $-1 -1 $-1 $51 $52 $53 $54 forward $26 $-1 #
face $-1 -1 $-1 $55 $56 $20 $-1 $57 forward single #
loop $-1 -1 $-1 $58 $59 $28 #
cone-surface $-1 -1 $-1 0 0 -5.5511151231257827e-016 0 1 0 20 0 5.5511151231257827e-016 1 I I 0 1 20 forward I I I I #
face $-1 -1 $-1 $60 $61 $22 $-1 $41 reversed single #
loop $-1 -1 $-1 $-1 $62 $29 #
cone-surface $-1 -1 $-1 -3.5527136788005017e-015 -20 -4.4408920985006262e-015 0 -1 0 55 0 1.1176227044523701e-014 1 I I 0 1 55 forward I I I I #
face $-1 -1 $-1 $63 $64 $23 $-1 $65 reversed single #
loop $-1 -1 $-1 $-1 $66 $30 #
plane-surface $-1 -1 $-1 0 0 55.000000000000007 0 0 1 1 0 0 forward_v I I I I #
model_id-kcp-attrib $-1 -1 $-1 $-1 $32 1 1021578813 1021578813 1993998337 4 #
face $67 -1 $-1 $68 $69 $8 $-1 $70 forward single #
loop $-1 -1 $-1 $-1 $71 $32 #
cone-surface $-1 -1 $-1 0 -10.983844616974929 0 0 -1 0 -21.445069205095585 0 0 1 I I -0.90630778703664994 0.42261826174069944 21.445069205095585 forward I I I I #
loop $-1 -1 $-1 $-1 $53 $25 #
coedge $-1 -1 $-1 $72 $72 $71 $73 reversed $33 $-1 #
coedge $-1 -1 $-1 $74 $35 $75 $76 reversed $26 $-1 #
coedge $-1 -1 $-1 $35 $74 $77 $78 forward $26 $-1 #
coedge $-1 -1 $-1 $79 $79 $35 $54 reversed $49 $-1 #
edge $80 -1 $-1 $81 1.2246063538223773e-016 $82 3.1415926535897931 $35 $83 forward @7 unknown #
face $-1 -1 $-1 $-1 $84 $20 $-1 $85 reversed single #
loop $-1 -1 $-1 $-1 $86 $36 #
plane-surface $-1 -1 $-1 9.6892191240013655e-016 39.999999999999993 8.8817841970012523e-016 0 1 0 0 0 1 forward_v I I I I #
loop $-1 -1 $-1 $-1 $87 $28 #
coedge $-1 -1 $-1 $59 $59 $86 $88 forward $37 $-1 #
face $-1 -1 $-1 $89 $90 $22 $-1 $41 reversed single #
loop $-1 -1 $-1 $-1 $91 $39 #
coedge $-1 -1 $-1 $92 $93 $94 $95 reversed $40 $-1 #
face $96 -1 $-1 $97 $98 $23 $-1 $99 reversed single #
loop $-1 -1 $-1 $-1 $100 $42 #
plane-surface $-1 -1 $-1 0 0 -55.000000000000007 0 0 1 1 0 0 forward_v I I I I #
coedge $-1 -1 $-1 $101 $102 $103 $104 forward $43 $-1 #
model_id-kcp-attrib $-1 -1 $-1 $-1 $46 1 1021578813 1021578813 1993998337 5 #
face $105 -1 $-1 $106 $107 $8 $-1 $108 forward single #
loop $-1 -1 $-1 $-1 $109 $46 #
cone-surface $-1 -1 $-1 0 -10.983844616974929 0 0 -1 0 -21.445069205095585 0 0 1 I I -0.90630778703664994 0.42261826174069944 21.445069205095585 forward I I I I #
coedge $-1 -1 $-1 $110 $111 $50 $73 forward $47 $-1 #
coedge $-1 -1 $-1 $50 $50 $112 $113 forward $33 $-1 #
edge $114 -1 $-1 $115 0 $116 3.1415926535897931 $50 $117 forward @7 unknown #
coedge $-1 -1 $-1 $52 $51 $118 $119 reversed $26 $-1 #
coedge $-1 -1 $-1 $120 $121 $51 $76 forward $122 $-1 #
edge $-1 -1 $-1 $123 0 $82 3.9999999999999991 $51 $124 forward @7 unknown #
coedge $-1 -1 $-1 $121 $120 $52 $78 reversed $122 $-1 #
edge $-1 -1 $-1 $125 0 $81 3.9999999999999991 $52 $126 forward @7 unknown #
coedge $-1 -1 $-1 $53 $53 $120 $127 forward $49 $-1 #
attrib_edge_convexity-kcp-attrib $-1 -1 $128 $-1 $54 1 #
vertex $-1 -1 $-1 $78 $129 #
vertex $-1 -1 $-1 $76 $130 #
ellipse-curve $-1 -1 $-1 0 0 -5.5511151231257827e-016 0 -1 0 20 0 5.5511151231257827e-016 1 I I #
loop $-1 -1 $-1 $-1 $131 $55 #
plane-surface $-1 -1 $-1 9.6892191240013655e-016 0 8.8817841970012523e-016 0 1 0 0 0 1 forward_v I I I I #
coedge $-1 -1 $-1 $86 $86 $59 $88 reversed $56 $-1 #
coedge $-1 -1 $-1 $87 $87 $131 $132 reversed $58 $-1 #
edge $-1 -1 $-1 $133 1.2246063538223773e-016 $133 6.2831853071795862 $59 $134 forward @7 unknown #
face $-1 -1 $-1 $135 $136 $22 $-1 $41 reversed single #
loop $-1 -1 $-1 $-1 $137 $60 #
coedge $-1 -1 $-1 $138 $139 $140 $141 reversed $61 $-1 #
coedge $-1 -1 $-1 $142 $62 $143 $144 forward $40 $-1 #
coedge $-1 -1 $-1 $62 $142 $145 $146 reversed $40 $-1 #
coedge $-1 -1 $-1 $147 $148 $62 $95 forward $149 $-1 #
edge $-1 -1 $-1 $150 -2.0320412808224911e-016 $151 1.5707963267948963 $94 $152 forward @7 unknown #
model_id-kcp-attrib $-1 -1 $-1 $-1 $63 1 1021578813 1021578813 1994653698 2 #
face $-1 -1 $-1 $153 $154 $23 $-1 $155 reversed single #
loop $-1 -1 $-1 $-1 $156 $63 #
plane-surface $-1 -1 $-1 0 -20.000000000000007 0 0 1 0 0 0 1 forward_v I I I I #
coedge $-1 -1 $-1 $157 $158 $159 $160 forward $64 $-1 #
coedge $-1 -1 $-1 $161 $66 $162 $163 forward $43 $-1 #
coedge $-1 -1 $-1 $66 $161 $164 $165 forward $43 $-1 #
coedge $-1 -1 $-1 $166 $167 $66 $104 reversed $168 $-1 #
edge $-1 -1 $-1 $169 -20.000000000000007 $170 20.000000000000007 $103 $171 forward @7 unknown #
model_id-kcp-attrib $-1 -1 $-1 $-1 $68 1 1021578813 1021578813 1993998337 6 #
face $172 -1 $-1 $173 $174 $8 $-1 $175 reversed single #
loop $-1 -1 $-1 $-1 $176 $68 #
cone-surface $-1 -1 $-1 0 41.999999999999993 0 0 -1 0 -55 0 0 1 I I 0 1 55 forward I I I I #
coedge $-1 -1 $-1 $177 $178 $179 $180 forward $69 $-1 #
coedge $-1 -1 $-1 $181 $71 $177 $182 forward $47 $-1 #
coedge $-1 -1 $-1 $71 $181 $178 $183 reversed $47 $-1 #
coedge $-1 -1 $-1 $178 $177 $72 $113 reversed $69 $-1 #
edge $184 -1 $-1 $115 0 $116 3.1415926535897931 $72 $185 forward @7 unknown #
attrib_edge_convexity-kcp-attrib $-1 -1 $186 $-1 $73 1 #
vertex $-1 -1 $-1 $113 $187 #
vertex $-1 -1 $-1 $113 $188 #
ellipse-curve $-1 -1 $-1 0 0 -2.2204460492503131e-015 -1.4802973661668753e-016 1 -2.5432083242480152e-032 45 6.6613381477509392e-015 7.7311746414510107e-015 1 I I #
coedge $-1 -1 $-1 $189 $189 $74 $119 forward $190 $-1 #
edge $-1 -1 $-1 $125 0 $123 3.1415926535897931 $74 $191 forward @7 unknown #
coedge $-1 -1 $-1 $77 $75 $79 $127 reversed $122 $-1 #
coedge $-1 -1 $-1 $75 $77 $189 $192 forward $122 $-1 #
loop $-1 -1 $-1 $-1 $121 $193 #
vertex $-1 -1 $-1 $119 $194 #
straight-curve $-1 -1 $-1 -20 39.999999999999993 -4.898425415289509e-015 0 -10 0 I I #
vertex $-1 -1 $-1 $78 $195 #
straight-curve $-1 -1 $-1 20 39.999999999999993 2.4492127076447545e-015 0 -10 0 I I #
edge $196 -1 $-1 $81 -1.2246063538223773e-016 $82 3.1415926535897931 $79 $197 forward @7 unknown #
convexity-sys-attrib $-1 -1 $-1 $80 $54 #
point $-1 -1 $-1 20 0 2.4492127076447545e-015 #
point $-1 -1 $-1 -20 0 0 #
coedge $-1 -1 $-1 $131 $131 $87 $132 forward $84 $-1 #
edge $-1 -1 $-1 $198 -3.1415926535897931 $198 3.1415926535897931 $87 $199 forward @7 unknown #
vertex $-1 -1 $-1 $88 $200 #
ellipse-curve $-1 -1 $-1 0 39.999999999999993 5.5511151231257827e-016 0 -1 0 20 0 -5.5511151231257827e-016 1 I I #
face $-1 -1 $-1 $201 $202 $22 $-1 $203 forward single #
loop $-1 -1 $-1 $-1 $204 $89 #
coedge $-1 -1 $-1 $205 $206 $204 $207 forward $90 $-1 #
coedge $-1 -1 $-1 $208 $91 $209 $210 reversed $61 $-1 #
coedge $-1 -1 $-1 $91 $208 $93 $146 forward $61 $-1 #
coedge $-1 -1 $-1 $211 $212 $91 $141 forward $213 $-1 #
edge $-1 -1 $-1 $214 -3.1415926535897931 $215 -1.5707963267948963 $140 $216 forward @7 unknown #
coedge $-1 -1 $-1 $93 $92 $217 $218 reversed $40 $-1 #
coedge $-1 -1 $-1 $206 $205 $219 $144 reversed $90 $-1 #
edge $-1 -1 $-1 $150 -40.000000000000007 $220 7.1054273576010019e-015 $219 $221 forward @7 unknown #
coedge $-1 -1 $-1 $222 $223 $224 $146 forward $225 $-1 #
edge $-1 -1 $-1 $151 -40.000000000000007 $215 7.1054273576010019e-015 $145 $226 forward @7 unknown #
coedge $-1 -1 $-1 $148 $94 $223 $227 reversed $149 $-1 #
coedge $-1 -1 $-1 $94 $147 $228 $229 forward $149 $-1 #
loop $-1 -1 $-1 $-1 $94 $230 #
vertex $-1 -1 $-1 $231 $232 #
vertex $-1 -1 $-1 $233 $234 #
ellipse-curve $-1 -1 $-1 -3.5527136788005017e-015 20.000000000000007 -4.4408920985006262e-015 0 -1 0 55 0 1.1176227044523701e-014 1 I I #
face $235 -1 $-1 $236 $237 $23 $-1 $238 reversed single #
loop $-1 -1 $-1 $-1 $239 $97 #
plane-surface $-1 -1 $-1 -55 0 0 1 0 0 0 0 -1 forward_v I I I I #
coedge $-1 -1 $-1 $240 $164 $241 $242 forward $98 $-1 #
coedge $-1 -1 $-1 $243 $100 $240 $244 forward $64 $-1 #
coedge $-1 -1 $-1 $100 $243 $245 $246 forward $64 $-1 #
coedge $-1 -1 $-1 $167 $166 $100 $160 reversed $168 $-1 #
edge $-1 -1 $-1 $247 -20.000000000000007 $248 20.000000000000007 $159 $249 forward @7 unknown #
coedge $-1 -1 $-1 $102 $101 $250 $251 forward $43 $-1 #
coedge $-1 -1 $-1 $252 $253 $101 $163 reversed $237 $-1 #
edge $-1 -1 $-1 $170 -55 $254 55 $162 $255 forward @7 unknown #
coedge $-1 -1 $-1 $156 $256 $102 $165 reversed $98 $-1 #
edge $-1 -1 $-1 $257 -55 $169 55 $164 $258 forward @7 unknown #
coedge $-1 -1 $-1 $159 $103 $256 $259 forward $168 $-1 #
coedge $-1 -1 $-1 $103 $159 $252 $260 reversed $168 $-1 #
loop $-1 -1 $-1 $-1 $166 $236 #
vertex $-1 -1 $-1 $104 $261 #
vertex $-1 -1 $-1 $104 $262 #
straight-curve $-1 -1 $-1 55 0 55.000000000000007 0 1 0 I I #
model_id-kcp-attrib $-1 -1 $-1 $-1 $106 1 1021578813 1021578813 1993998337 7 #
face $263 -1 $-1 $264 $265 $8 $-1 $266 forward single #
loop $-1 -1 $-1 $-1 $267 $106 #
torus-surface $-1 -1 $-1 0 20 0 0 -1 0 60 12.5 -1 0 0 forward_v I I I I #
coedge $-1 -1 $-1 $268 $269 $270 $271 forward $107 $-1 #
coedge $-1 -1 $-1 $112 $109 $110 $182 reversed $69 $-1 #
coedge $-1 -1 $-1 $109 $112 $111 $183 forward $69 $-1 #
coedge $-1 -1 $-1 $269 $268 $109 $180 reversed $107 $-1 #
edge $-1 -1 $-1 $272 0 $273 3.1415926535897931 $109 $274 forward @7 unknown #
coedge $-1 -1 $-1 $111 $110 $275 $276 reversed $47 $-1 #
edge $-1 -1 $-1 $116 -2.4464775421807312e-031 $273 1.1033779189624908 $177 $277 forward @7 unknown #
edge $-1 -1 $-1 $115 0 $272 1.1033779189624915 $178 $278 forward @7 unknown #
attrib_edge_convexity-kcp-attrib $-1 -1 $279 $-1 $113 1 #
ellipse-curve $-1 -1 $-1 0 0 0 1.4802973661668753e-016 -1 1.8127815601544857e-032 45 6.6613381477509392e-015 5.5107285922006977e-015 1 I I #
convexity-sys-attrib $-1 -1 $-1 $114 $73 #
point $-1 -1 $-1 45 6.6613381477509392e-015 5.5107285922006977e-015 #
point $-1 -1 $-1 -45 6.6613381477509392e-015 0 #
coedge $-1 -1 $-1 $118 $118 $121 $192 reversed $190 $-1 #
loop $-1 -1 $-1 $280 $189 $281 #
ellipse-curve $-1 -1 $-1 5.5511151231257827e-016 40 5.5511151231257827e-016 -4.4408920985006262e-016 -1 -4.2057495160556263e-032 20 -8.8817841970012523e-015 1.8941011953321762e-015 1 I I #
edge $-1 -1 $-1 $125 0 $123 3.1415926535897931 $189 $282 forward @7 unknown #
face $283 -1 $-1 $284 $122 $8 $-1 $285 reversed single #
point $-1 -1 $-1 -20 39.999999999999993 0 #
point $-1 -1 $-1 20 39.999999999999993 2.4492127076447545e-015 #
attrib_edge_convexity-kcp-attrib $-1 -1 $286 $-1 $127 1 #
ellipse-curve $-1 -1 $-1 0 0 5.5511151231257827e-016 0 1 0 20 0 -5.5511151231257827e-016 1 I I #
vertex $-1 -1 $-1 $132 $287 #
ellipse-curve $-1 -1 $-1 0 0 -5.5511151231257827e-016 0 -1 0 20 0 5.5511151231257827e-016 1 I I #
point $-1 -1 $-1 20 39.999999999999993 2.4492127076447545e-015 #
face $-1 -1 $-1 $288 $289 $22 $-1 $290 reversed single #
loop $-1 -1 $-1 $-1 $224 $135 #
plane-surface $-1 -1 $-1 0 0 55.000000000000007 0 0 1 1 0 0 forward_v I I I I #
coedge $-1 -1 $-1 $291 $292 $293 $207 reversed $136 $-1 #
coedge $-1 -1 $-1 $143 $137 $294 $295 reversed $90 $-1 #
coedge $-1 -1 $-1 $137 $143 $296 $297 reversed $90 $-1 #
edge $-1 -1 $-1 $298 -40.000000000000007 $299 7.1054273576010019e-015 $293 $300 forward @7 unknown #
coedge $-1 -1 $-1 $139 $138 $301 $302 reversed $61 $-1 #
coedge $-1 -1 $-1 $303 $304 $305 $210 forward $306 $-1 #
edge $-1 -1 $-1 $307 -40.000000000000007 $214 7.1054273576010019e-015 $209 $308 forward @7 unknown #
coedge $-1 -1 $-1 $212 $140 $309 $310 reversed $213 $-1 #
coedge $-1 -1 $-1 $140 $211 $303 $311 forward $213 $-1 #
loop $-1 -1 $-1 $-1 $140 $312 #
vertex $-1 -1 $-1 $313 $314 #
vertex $-1 -1 $-1 $315 $316 #
ellipse-curve $-1 -1 $-1 -3.5527136788005017e-015 -20.000000000000007 -4.4408920985006262e-015 0 1 0 55 0 1.1176227044523701e-014 1 I I #
coedge $-1 -1 $-1 $317 $318 $142 $218 forward $319 $-1 #
edge $-1 -1 $-1 $215 -1.5707963267948963 $220 2.0320412808224911e-016 $217 $216 forward @7 unknown #
coedge $-1 -1 $-1 $320 $321 $322 $144 forward $289 $-1 #
vertex $-1 -1 $-1 $323 $324 #
straight-curve $-1 -1 $-1 55 -20 -4.4408920985006262e-015 0 -1 0 I I #
coedge $-1 -1 $-1 $325 $145 $318 $315 forward $225 $-1 #
coedge $-1 -1 $-1 $145 $325 $147 $227 forward $225 $-1 #
coedge $-1 -1 $-1 $326 $309 $139 $146 reversed $202 $-1 #
loop $-1 -1 $-1 $-1 $145 $327 #
straight-curve $-1 -1 $-1 -3.5527136788005017e-015 -20 55.000000000000007 0 -1 0 I I #
edge $-1 -1 $-1 $328 -55 $151 3.5527136788005017e-015 $147 $329 forward @7 unknown #
coedge $-1 -1 $-1 $330 $322 $148 $229 reversed $331 $-1 #
edge $-1 -1 $-1 $328 -55.000000000000007 $150 4.4408920985006262e-015 $228 $332 forward @7 unknown #
face $-1 -1 $-1 $333 $149 $22 $-1 $334 reversed single #
edge $-1 -1 $-1 $150 4.4408920985006262e-015 $335 55.000000000000007 $321 $332 forward @7 unknown #
point $-1 -1 $-1 55 20.000000000000007 -4.4408920985006262e-015 #
edge $-1 -1 $-1 $151 3.5527136788005017e-015 $336 55 $337 $329 forward @7 unknown #
point $-1 -1 $-1 -3.5527136788005017e-015 20.000000000000007 55.000000000000007 #
model_id-kcp-attrib $-1 -1 $-1 $-1 $153 1 1021578813 1021578813 1994653698 3 #
face $-1 -1 $-1 $-1 $168 $23 $-1 $338 reversed single #
loop $-1 -1 $-1 $-1 $252 $153 #
plane-surface $-1 -1 $-1 0 20.000000000000007 0 0 -1 0 0 0 -1 forward_v I I I I #
coedge $-1 -1 $-1 $339 $250 $253 $340 forward $154 $-1 #
coedge $-1 -1 $-1 $256 $156 $157 $244 reversed $98 $-1 #
coedge $-1 -1 $-1 $250 $339 $156 $242 reversed $154 $-1 #
edge $-1 -1 $-1 $257 -55.000000000000007 $341 55.000000000000007 $241 $342 forward @7 unknown #
coedge $-1 -1 $-1 $158 $157 $339 $343 forward $64 $-1 #
edge $-1 -1 $-1 $248 -55 $341 55 $240 $344 forward @7 unknown #
coedge $-1 -1 $-1 $253 $252 $158 $246 reversed $237 $-1 #
edge $-1 -1 $-1 $345 -55 $247 55 $245 $346 forward @7 unknown #
vertex $-1 -1 $-1 $160 $347 #
vertex $-1 -1 $-1 $259 $348 #
straight-curve $-1 -1 $-1 55 0 -55.000000000000007 0 -1 0 I I #
coedge $-1 -1 $-1 $239 $241 $161 $251 reversed $154 $-1 #
edge $-1 -1 $-1 $254 -20.000000000000007 $257 20.000000000000007 $250 $349 forward @7 unknown #
coedge $-1 -1 $-1 $245 $162 $167 $260 forward $237 $-1 #
coedge $-1 -1 $-1 $162 $245 $239 $340 reversed $237 $-1 #
vertex $-1 -1 $-1 $163 $350 #
straight-curve $-1 -1 $-1 0 20.000000000000007 55.000000000000007 -1 0 0 I I #
coedge $-1 -1 $-1 $164 $240 $166 $259 reversed $98 $-1 #
vertex $-1 -1 $-1 $251 $351 #
straight-curve $-1 -1 $-1 0 -20.000000000000007 55.000000000000007 1 0 0 I I #
edge $-1 -1 $-1 $169 -55.000000000000007 $248 55.000000000000007 $166 $352 forward @7 unknown #
edge $-1 -1 $-1 $170 -55.000000000000007 $247 55.000000000000007 $167 $353 forward @7 unknown #
point $-1 -1 $-1 55 -20.000000000000007 55.000000000000007 #
point $-1 -1 $-1 55 20.000000000000007 55.000000000000007 #
model_id-kcp-attrib $-1 -1 $-1 $-1 $173 1 1021578813 1021578813 1993998337 8 #
face $354 -1 $-1 $281 $355 $8 $-1 $356 forward single #
loop $-1 -1 $-1 $-1 $357 $173 #
cone-surface $-1 -1 $-1 0 41.999999999999993 0 0 -1 0 -55 0 0 1 I I 0 1 55 forward I I I I #
coedge $-1 -1 $-1 $358 $359 $360 $361 forward $174 $-1 #
coedge $-1 -1 $-1 $179 $176 $362 $363 reversed $107 $-1 #
coedge $-1 -1 $-1 $176 $179 $364 $365 forward $107 $-1 #
coedge $-1 -1 $-1 $359 $358 $176 $271 reversed $174 $-1 #
edge $-1 -1 $-1 $366 0 $367 3.1415926535897931 $176 $368 forward @7 unknown #
vertex $-1 -1 $-1 $183 $369 #
vertex $-1 -1 $-1 $182 $370 #
ellipse-curve $-1 -1 $-1 0 4.6630765815499764 -6.6613381477509392e-015 0 -1 0 55 0 1.3396673093774014e-014 1 I I #
coedge $-1 -1 $-1 $362 $364 $181 $276 forward $371 $-1 #
edge $-1 -1 $-1 $272 0 $273 3.1415926535897931 $181 $372 forward @7 unknown #
straight-curve $-1 -1 $-1 -45 6.6613381477509392e-015 -1.1021457184401395e-014 -9.0630778703665005 4.2261826174069963 -2.2197405490475593e-015 I I #
straight-curve $-1 -1 $-1 45 6.6613381477509392e-015 5.5107285922006977e-015 9.0630778703665005 4.2261826174069963 1.1098702745237796e-015 I I #
convexity-sys-attrib $-1 -1 $-1 $184 $113 #
loop $-1 -1 $-1 $-1 $373 $281 #
face $374 -1 $-1 $193 $190 $8 $-1 $375 reversed single #
ellipse-curve $-1 -1 $-1 0 40 0 4.4408920985006262e-016 1 5.4383446804634572e-032 20 -8.8817841970012523e-015 2.4492127076447545e-015 1 I I #
model_id-kcp-attrib $-1 -1 $-1 $-1 $193 1 1021578813 1021578813 1993998337 11 #
face $376 -1 $-1 $377 $378 $8 $-1 $379 forward single #
cone-surface $-1 -1 $-1 0 41.999999999999993 0 0 -1 0 -20 0 0 1 I I 0 1 20 forward I I I I #
convexity-sys-attrib $-1 -1 $-1 $196 $127 #
point $-1 -1 $-1 -20 0 0 #
face $-1 -1 $-1 $380 $381 $22 $-1 $382 reversed single #
loop $-1 -1 $-1 $-1 $219 $201 #
plane-surface $-1 -1 $-1 55 0 0 -1 0 0 0 0 1 forward_v I I I I #
coedge $-1 -1 $-1 $383 $204 $384 $385 reversed $136 $-1 #
coedge $-1 -1 $-1 $204 $383 $386 $387 reversed $136 $-1 #
coedge $-1 -1 $-1 $388 $389 $390 $207 forward $391 $-1 #
coedge $-1 -1 $-1 $392 $393 $205 $295 forward $394 $-1 #
edge $-1 -1 $-1 $220 2.0320412808224911e-016 $299 1.5707963267948968 $294 $216 forward @7 unknown #
coedge $-1 -1 $-1 $395 $396 $206 $297 forward $397 $-1 #
edge $-1 -1 $-1 $298 -1.5707963267948968 $150 -2.0320412808224911e-016 $296 $152 forward @7 unknown #
vertex $-1 -1 $-1 $398 $399 #
vertex $-1 -1 $-1 $400 $401 #
straight-curve $-1 -1 $-1 -3.5527136788005017e-015 -20 -55.000000000000007 0 -1 0 I I #
coedge $-1 -1 $-1 $402 $337 $208 $302 forward $403 $-1 #
edge $-1 -1 $-1 $151 1.5707963267948963 $307 3.1415926535897931 $301 $152 forward @7 unknown #
coedge $-1 -1 $-1 $404 $209 $212 $311 reversed $306 $-1 #
coedge $-1 -1 $-1 $209 $404 $402 $405 forward $306 $-1 #
coedge $-1 -1 $-1 $406 $407 $383 $210 reversed $381 $-1 #
loop $-1 -1 $-1 $-1 $209 $408 #
vertex $-1 -1 $-1 $409 $410 #
straight-curve $-1 -1 $-1 -55 -20 -4.4408920985006262e-015 0 -1 0 I I #
coedge $-1 -1 $-1 $224 $411 $211 $310 forward $202 $-1 #
edge $-1 -1 $-1 $412 -55 $215 -3.5527136788005017e-015 $211 $413 forward @7 unknown #
edge $-1 -1 $-1 $412 -55.000000000000007 $214 4.4408920985006262e-015 $303 $414 forward @7 unknown #
face $-1 -1 $-1 $415 $213 $22 $-1 $416 reversed single #
edge $-1 -1 $-1 $214 4.4408920985006262e-015 $417 55.000000000000007 $407 $414 forward @7 unknown #
point $-1 -1 $-1 -55 -20.000000000000007 -4.4408920985006262e-015 #
edge $-1 -1 $-1 $215 -3.5527136788005017e-015 $418 55 $318 $413 forward @7 unknown #
point $-1 -1 $-1 -3.5527136788005017e-015 -20.000000000000007 55.000000000000007 #
coedge $-1 -1 $-1 $318 $217 $419 $420 reversed $319 $-1 #
coedge $-1 -1 $-1 $217 $317 $222 $315 reversed $319 $-1 #
loop $-1 -1 $-1 $-1 $217 $415 #
coedge $-1 -1 $-1 $421 $219 $393 $323 forward $289 $-1 #
coedge $-1 -1 $-1 $219 $421 $395 $231 reversed $289 $-1 #
coedge $-1 -1 $-1 $228 $419 $92 $144 reversed $331 $-1 #
edge $-1 -1 $-1 $220 4.4408920985006262e-015 $422 55.000000000000007 $320 $423 forward @7 unknown #
point $-1 -1 $-1 55 -20.000000000000007 -4.4408920985006262e-015 #
coedge $-1 -1 $-1 $223 $222 $330 $424 forward $225 $-1 #
coedge $-1 -1 $-1 $411 $224 $337 $233 forward $202 $-1 #
face $-1 -1 $-1 $425 $225 $22 $-1 $203 forward single #
vertex $-1 -1 $-1 $424 $426 #
straight-curve $-1 -1 $-1 0 20.000000000000007 55.000000000000007 -1 0 0 I I #
coedge $-1 -1 $-1 $419 $228 $325 $424 reversed $331 $-1 #
loop $-1 -1 $-1 $-1 $322 $427 #
straight-curve $-1 -1 $-1 55 20.000000000000007 0 0 0 -1 I I #
face $-1 -1 $-1 $428 $403 $22 $-1 $334 reversed single #
plane-surface $-1 -1 $-1 0 20.000000000000007 0 0 -1 0 0 0 -1 forward_v I I I I #
vertex $-1 -1 $-1 $429 $430 #
vertex $-1 -1 $-1 $233 $431 #
coedge $-1 -1 $-1 $301 $402 $326 $233 reversed $403 $-1 #
plane-surface $-1 -1 $-1 55 0 0 -1 0 0 0 0 1 forward_v I I I I #
coedge $-1 -1 $-1 $241 $239 $243 $343 reversed $154 $-1 #
edge $-1 -1 $-1 $254 -55.000000000000007 $345 55.000000000000007 $253 $432 forward @7 unknown #
vertex $-1 -1 $-1 $343 $433 #
straight-curve $-1 -1 $-1 -55 -20.000000000000007 0 0 0 -1 I I #
edge $-1 -1 $-1 $341 -20.000000000000007 $345 20.000000000000007 $339 $434 forward @7 unknown #
straight-curve $-1 -1 $-1 0 -20.000000000000007 -55.000000000000007 -1 0 0 I I #
vertex $-1 -1 $-1 $246 $435 #
straight-curve $-1 -1 $-1 0 20.000000000000007 -55.000000000000007 1 0 0 I I #
point $-1 -1 $-1 55 20.000000000000007 -55.000000000000007 #
point $-1 -1 $-1 55 -20.000000000000007 -55.000000000000007 #
straight-curve $-1 -1 $-1 -55 0 55.000000000000007 0 -1 0 I I #
point $-1 -1 $-1 -55 20.000000000000007 55.000000000000007 #
point $-1 -1 $-1 -55 -20.000000000000007 55.000000000000007 #
straight-curve $-1 -1 $-1 55 -20.000000000000007 0 0 0 -1 I I #
straight-curve $-1 -1 $-1 55 20.000000000000007 0 0 0 -1 I I #
model_id-kcp-attrib $-1 -1 $-1 $-1 $264 1 1021578813 1021578813 1993998337 9 #
loop $-1 -1 $-1 $-1 $436 $264 #
cone-surface $-1 -1 $-1 0 50.983844616974935 0 0 1 0 -21.445069205095585 0 0 1 I I -0.90630778703664994 0.42261826174069944 21.445069205095585 forward I I I I #
coedge $-1 -1 $-1 $437 $438 $439 $440 forward $265 $-1 #
coedge $-1 -1 $-1 $270 $267 $441 $442 reversed $174 $-1 #
coedge $-1 -1 $-1 $267 $270 $443 $444 forward $174 $-1 #
coedge $-1 -1 $-1 $438 $437 $267 $361 reversed $265 $-1 #
edge $-1 -1 $-1 $445 0 $446 3.1415926535897931 $267 $447 forward @7 unknown #
coedge $-1 -1 $-1 $448 $275 $268 $363 forward $371 $-1 #
edge $-1 -1 $-1 $273 0 $367 0.38804841810604279 $268 $449 forward @7 unknown #
coedge $-1 -1 $-1 $275 $448 $269 $365 reversed $371 $-1 #
edge $-1 -1 $-1 $272 1.7763568394002505e-015 $366 0.38804841810604174 $269 $450 forward @7 unknown #
vertex $-1 -1 $-1 $365 $451 #
vertex $-1 -1 $-1 $363 $452 #
ellipse-curve $-1 -1 $-1 0 8.5435607626104044 0 0 -1 0 54.999999999999993 0 6.7353349460230741e-015 1 I I #
point $-1 -1 $-1 55 4.6630765815499942 6.7353349460230749e-015 #
point $-1 -1 $-1 -55 4.6630765815499764 -1.347066989204615e-014 #
loop $-1 -1 $-1 $-1 $275 $453 #
ellipse-curve $-1 -1 $-1 -2.2204460492503131e-015 4.6630765815499764 -4.4408920985006262e-015 0 1 0 55 0 1.1176227044523701e-014 1 I I #
coedge $-1 -1 $-1 $454 $454 $436 $455 reversed $280 $-1 #
model_id-kcp-attrib $-1 -1 $-1 $-1 $281 1 1021578813 1021578813 1993998337 10 #
plane-surface $-1 -1 $-1 0 40 0 0 -1 0 -10 0 0 forward_v I I I I #
model_id-kcp-attrib $-1 -1 $-1 $-1 $284 1 1021578813 1021578813 1993998337 12 #
face $456 -1 $-1 $457 $458 $8 $-1 $459 forward single #
loop $-1 -1 $-1 $-1 $460 $284 #
cone-surface $-1 -1 $-1 0 50.983844616974935 0 0 1 0 -21.445069205095585 0 0 1 I I -0.90630778703664994 0.42261826174069944 21.445069205095585 forward I I I I #
face $-1 -1 $-1 $312 $461 $22 $-1 $416 reversed single #
loop $-1 -1 $-1 $-1 $305 $288 #
plane-surface $-1 -1 $-1 -55 0 0 1 0 0 0 0 -1 forward_v I I I I #
coedge $-1 -1 $-1 $292 $291 $138 $210 forward $136 $-1 #
coedge $-1 -1 $-1 $462 $463 $291 $385 forward $464 $-1 #
edge $-1 -1 $-1 $307 -3.1415926535897931 $298 -1.5707963267948968 $384 $152 forward @7 unknown #
coedge $-1 -1 $-1 $465 $466 $292 $387 forward $461 $-1 #
edge $-1 -1 $-1 $299 1.5707963267948968 $214 3.1415926535897931 $386 $216 forward @7 unknown #
coedge $-1 -1 $-1 $467 $293 $466 $400 forward $391 $-1 #
coedge $-1 -1 $-1 $293 $467 $462 $468 forward $391 $-1 #
coedge $-1 -1 $-1 $469 $470 $137 $207 reversed $471 $-1 #
loop $-1 -1 $-1 $-1 $293 $425 #
coedge $-1 -1 $-1 $393 $294 $470 $472 reversed $394 $-1 #
coedge $-1 -1 $-1 $294 $392 $320 $323 reversed $394 $-1 #
loop $-1 -1 $-1 $-1 $294 $473 #
coedge $-1 -1 $-1 $396 $296 $321 $231 forward $397 $-1 #
coedge $-1 -1 $-1 $296 $395 $469 $398 reversed $397 $-1 #
loop $-1 -1 $-1 $-1 $296 $474 #
edge $-1 -1 $-1 $298 -3.5527136788005017e-015 $335 55 $396 $475 forward @7 unknown #
point $-1 -1 $-1 -3.5527136788005017e-015 20.000000000000007 -55.000000000000007 #
edge $-1 -1 $-1 $299 3.5527136788005017e-015 $417 55 $466 $476 forward @7 unknown #
point $-1 -1 $-1 -3.5527136788005017e-015 -20.000000000000007 -55.000000000000007 #
coedge $-1 -1 $-1 $337 $301 $304 $405 reversed $403 $-1 #
loop $-1 -1 $-1 $-1 $301 $333 #
coedge $-1 -1 $-1 $304 $303 $411 $477 reversed $306 $-1 #
edge $-1 -1 $-1 $336 -55.000000000000007 $307 4.4408920985006262e-015 $402 $478 forward @7 unknown #
coedge $-1 -1 $-1 $479 $305 $463 $409 forward $381 $-1 #
coedge $-1 -1 $-1 $305 $479 $465 $313 reversed $381 $-1 #
face $-1 -1 $-1 $427 $306 $22 $-1 $382 reversed single #
edge $-1 -1 $-1 $307 4.4408920985006262e-015 $480 55.000000000000007 $463 $478 forward @7 unknown #
point $-1 -1 $-1 -55 20.000000000000007 -4.4408920985006262e-015 #
coedge $-1 -1 $-1 $309 $326 $404 $477 forward $202 $-1 #
vertex $-1 -1 $-1 $477 $481 #
straight-curve $-1 -1 $-1 0 -20.000000000000007 55.000000000000007 1 0 0 I I #
straight-curve $-1 -1 $-1 -55 -20.000000000000007 0 0 0 -1 I I #
face $-1 -1 $-1 $473 $319 $22 $-1 $416 reversed single #
plane-surface $-1 -1 $-1 0 -20.000000000000007 0 0 1 0 0 0 1 forward_v I I I I #
vertex $-1 -1 $-1 $482 $483 #
vertex $-1 -1 $-1 $424 $484 #
coedge $-1 -1 $-1 $322 $330 $317 $420 forward $331 $-1 #
edge $-1 -1 $-1 $418 -55.000000000000007 $220 4.4408920985006262e-015 $419 $423 forward @7 unknown #
coedge $-1 -1 $-1 $321 $320 $485 $429 reversed $289 $-1 #
vertex $-1 -1 $-1 $323 $486 #
straight-curve $-1 -1 $-1 55 -20.000000000000007 0 0 0 -1 I I #
edge $-1 -1 $-1 $418 -20.000000000000007 $328 20.000000000000007 $330 $487 forward @7 unknown #
face $-1 -1 $-1 $408 $391 $22 $-1 $488 reversed single #
point $-1 -1 $-1 55 20.000000000000007 55.000000000000007 #
face $-1 -1 $-1 $-1 $331 $22 $-1 $290 reversed single #
face $-1 -1 $-1 $489 $464 $22 $-1 $334 reversed single #
edge $-1 -1 $-1 $335 -20.000000000000007 $422 20.000000000000007 $421 $490 forward @7 unknown #
point $-1 -1 $-1 55 20.000000000000007 -55.000000000000007 #
point $-1 -1 $-1 -55 20.000000000000007 55.000000000000007 #
straight-curve $-1 -1 $-1 -55 20.000000000000007 0 0 0 -1 I I #
point $-1 -1 $-1 -55 -20.000000000000007 -55.000000000000007 #
straight-curve $-1 -1 $-1 -55 0 -55.000000000000007 0 1 0 I I #
point $-1 -1 $-1 -55 20.000000000000007 -55.000000000000007 #
coedge $-1 -1 $-1 $491 $492 $373 $455 forward $355 $-1 #
coedge $-1 -1 $-1 $360 $357 $493 $494 reversed $265 $-1 #
coedge $-1 -1 $-1 $357 $360 $495 $496 forward $265 $-1 #
coedge $-1 -1 $-1 $492 $491 $357 $440 reversed $355 $-1 #
edge $-1 -1 $-1 $497 0 $498 3.1415926535897931 $357 $499 forward @7 unknown #
coedge $-1 -1 $-1 $500 $501 $358 $442 forward $502 $-1 #
edge $-1 -1 $-1 $367 -1.8189894035458575e-016 $446 2.3185589614548161 $358 $503 forward @7 unknown #
coedge $-1 -1 $-1 $501 $500 $359 $444 reversed $502 $-1 #
edge $-1 -1 $-1 $366 -1.0459189070388679e-015 $445 2.3185589614548161 $359 $504 forward @7 unknown #
vertex $-1 -1 $-1 $444 $505 #
vertex $-1 -1 $-1 $442 $506 #
ellipse-curve $-1 -1 $-1 0 31.456439237389588 0 0 -1 0 55 0 6.7353349460230749e-015 1 I I #
coedge $-1 -1 $-1 $364 $362 $501 $507 reversed $371 $-1 #
straight-curve $-1 -1 $-1 -55 4.6630765815499764 -1.347066989204615e-014 0 10 0 I I #
straight-curve $-1 -1 $-1 55 4.6630765815499764 6.7353349460230749e-015 0 10 0 I I #
point $-1 -1 $-1 55 8.5435607626103938 6.7353349460230749e-015 #
point $-1 -1 $-1 -54.999999999999993 8.5435607626104044 -1.3470669892046148e-014 #
face $508 -1 $-1 $-1 $371 $8 $-1 $509 forward single #
coedge $-1 -1 $-1 $373 $373 $510 $511 forward $280 $-1 #
edge $-1 -1 $-1 $512 1.2246063538223773e-016 $513 3.1415926535897931 $436 $514 forward @7 unknown #
model_id-kcp-attrib $-1 -1 $-1 $-1 $377 1 1021578813 1021578813 1993998337 13 #
face $515 -1 $-1 $453 $502 $8 $-1 $516 reversed single #
loop $-1 -1 $-1 $-1 $517 $377 #
cone-surface $-1 -1 $-1 0 41.999999999999993 0 0 -1 0 -55 0 0 1 I I 0 1 55 forward I I I I #
coedge $-1 -1 $-1 $518 $519 $520 $521 forward $378 $-1 #
loop $-1 -1 $-1 $-1 $386 $380 #
coedge $-1 -1 $-1 $463 $384 $389 $468 reversed $464 $-1 #
coedge $-1 -1 $-1 $384 $462 $406 $409 reversed $464 $-1 #
loop $-1 -1 $-1 $-1 $384 $428 #
coedge $-1 -1 $-1 $466 $386 $407 $313 forward $461 $-1 #
coedge $-1 -1 $-1 $386 $465 $388 $400 reversed $461 $-1 #
coedge $-1 -1 $-1 $389 $388 $479 $482 forward $391 $-1 #
edge $-1 -1 $-1 $480 -55 $298 -3.5527136788005017e-015 $462 $475 forward @7 unknown #
coedge $-1 -1 $-1 $485 $390 $396 $398 forward $471 $-1 #
coedge $-1 -1 $-1 $390 $485 $392 $472 forward $471 $-1 #
loop $-1 -1 $-1 $-1 $390 $489 #
edge $-1 -1 $-1 $422 -55 $299 3.5527136788005017e-015 $392 $476 forward @7 unknown #
face $-1 -1 $-1 $474 $394 $22 $-1 $416 reversed single #
face $-1 -1 $-1 $230 $397 $22 $-1 $334 reversed single #
straight-curve $-1 -1 $-1 0 20.000000000000007 -55.000000000000007 1 0 0 I I #
straight-curve $-1 -1 $-1 0 -20.000000000000007 -55.000000000000007 -1 0 0 I I #
edge $-1 -1 $-1 $336 -20.000000000000007 $412 20.000000000000007 $404 $522 forward @7 unknown #
straight-curve $-1 -1 $-1 -55 20.000000000000007 0 0 0 -1 I I #
coedge $-1 -1 $-1 $407 $406 $467 $482 reversed $381 $-1 #
vertex $-1 -1 $-1 $468 $523 #
point $-1 -1 $-1 -55 -20.000000000000007 55.000000000000007 #
edge $-1 -1 $-1 $417 -20.000000000000007 $480 20.000000000000007 $479 $524 forward @7 unknown #
point $-1 -1 $-1 -55 -20.000000000000007 -55.000000000000007 #
point $-1 -1 $-1 55 -20.000000000000007 55.000000000000007 #
coedge $-1 -1 $-1 $470 $469 $421 $429 forward $471 $-1 #
point $-1 -1 $-1 55 -20.000000000000007 -55.000000000000007 #
straight-curve $-1 -1 $-1 55 0 55.000000000000007 0 1 0 I I #
plane-surface $-1 -1 $-1 0 0 -55.000000000000007 0 0 1 1 0 0 forward_v I I I I #
face $-1 -1 $-1 $327 $471 $22 $-1 $488 reversed single #
straight-curve $-1 -1 $-1 55 0 -55.000000000000007 0 -1 0 I I #
coedge $-1 -1 $-1 $439 $436 $518 $525 reversed $355 $-1 #
coedge $-1 -1 $-1 $436 $439 $519 $526 forward $355 $-1 #
coedge $-1 -1 $-1 $520 $517 $437 $494 forward $458 $-1 #
edge $-1 -1 $-1 $446 0 $498 0.38804841810604246 $437 $527 forward @7 unknown #
coedge $-1 -1 $-1 $517 $520 $438 $496 reversed $458 $-1 #
edge $-1 -1 $-1 $445 7.1054273576010023e-016 $497 0.38804841810604174 $438 $528 forward @7 unknown #
vertex $-1 -1 $-1 $496 $529 #
vertex $-1 -1 $-1 $494 $530 #
ellipse-curve $-1 -1 $-1 2.2204460492503131e-015 35.336923418450013 4.4408920985006262e-015 0 -1 0 55 0 2.2944428475224488e-015 1 I I #
coedge $-1 -1 $-1 $443 $441 $517 $531 reversed $502 $-1 #
coedge $-1 -1 $-1 $441 $443 $448 $507 forward $502 $-1 #
loop $-1 -1 $-1 $-1 $501 $457 #
ellipse-curve $-1 -1 $-1 -60 19.999999999999996 -1.4695276245868527e-014 -2.4492127076447545e-016 -1.577721810442025e-032 1 5.0000000000000089 -11.45643923738959 1.2246063538223792e-015 1 I I #
ellipse-curve $-1 -1 $-1 60 19.999999999999996 7.3476381229342635e-015 1.2246063538223773e-016 -7.8886090522101251e-033 -1 -5.0000000000000089 -11.45643923738959 -6.1230317691118962e-016 1 I I #
point $-1 -1 $-1 55 31.456439237389596 6.7353349460230749e-015 #
point $-1 -1 $-1 -55 31.456439237389588 -1.347066989204615e-014 #
edge $-1 -1 $-1 $366 0 $367 3.1415926535897931 $448 $532 forward @7 unknown #
model_id-kcp-attrib $-1 -1 $-1 $-1 $453 1 1021578813 1021578813 1993998337 15 #
cone-surface $-1 -1 $-1 0 41.999999999999993 0 0 -1 0 -55 0 0 1 I I 0 1 55 forward I I I I #
coedge $-1 -1 $-1 $519 $518 $454 $511 reversed $378 $-1 #
edge $-1 -1 $-1 $512 -1.2246063538223773e-016 $513 3.1415926535897931 $454 $533 forward @7 unknown #
vertex $-1 -1 $-1 $526 $534 #
vertex $-1 -1 $-1 $525 $535 #
ellipse-curve $-1 -1 $-1 0 40 0 0 -1 0 45 0 0 1 I I #
model_id-kcp-attrib $-1 -1 $-1 $-1 $457 1 1021578813 1021578813 1993998337 14 #
torus-surface $-1 -1 $-1 0 20 0 0 -1 0 60 12.5 -1 0 0 forward_v I I I I #
coedge $-1 -1 $-1 $493 $495 $500 $531 forward $458 $-1 #
coedge $-1 -1 $-1 $510 $460 $491 $525 forward $378 $-1 #
coedge $-1 -1 $-1 $460 $510 $492 $526 reversed $378 $-1 #
coedge $-1 -1 $-1 $495 $493 $460 $521 reversed $458 $-1 #
edge $-1 -1 $-1 $497 0 $498 3.1415926535897931 $520 $536 forward @7 unknown #
straight-curve $-1 -1 $-1 -55 0 55.000000000000007 0 -1 0 I I #
point $-1 -1 $-1 -55 20.000000000000007 -55.000000000000007 #
straight-curve $-1 -1 $-1 -55 0 -55.000000000000007 0 1 0 I I #
edge $-1 -1 $-1 $498 0 $513 1.1033779189624919 $491 $537 forward @7 unknown #
edge $-1 -1 $-1 $497 -3.0028833587941464e-016 $512 1.1033779189624919 $492 $538 forward @7 unknown #
straight-curve $-1 -1 $-1 -55 31.456439237389588 -1.347066989204615e-014 0 10 0 I I #
straight-curve $-1 -1 $-1 55 31.456439237389588 6.7353349460230749e-015 0 10 0 I I #
point $-1 -1 $-1 55 35.336923418450006 6.7353349460230749e-015 #
point $-1 -1 $-1 -55 35.336923418450013 -1.347066989204615e-014 #
edge $-1 -1 $-1 $445 0 $446 3.1415926535897931 $500 $539 forward @7 unknown #
ellipse-curve $-1 -1 $-1 0 8.5435607626104044 0 0 1 0 54.999999999999993 0 6.7353349460230741e-015 1 I I #
ellipse-curve $-1 -1 $-1 0 40 0 0 1 0 45 0 0 1 I I #
point $-1 -1 $-1 45 40 5.5107285922006977e-015 #
point $-1 -1 $-1 -45 40 0 #
ellipse-curve $-1 -1 $-1 -2.2204460492503131e-015 35.336923418450013 -4.4408920985006262e-015 0 1 0 55 0 1.1176227044523701e-014 1 I I #
straight-curve $-1 -1 $-1 -55 35.336923418450013 -1.347066989204615e-014 9.0630778703665005 4.2261826174069936 2.2197405490475593e-015 I I #
straight-curve $-1 -1 $-1 55 35.336923418450013 6.7353349460230749e-015 -9.0630778703665005 4.2261826174069936 -1.1098702745237796e-015 I I #
ellipse-curve $-1 -1 $-1 0 31.456439237389588 0 0 1 0 55 0 6.7353349460230749e-015 1 I I #
End-of-ACIS-data 