600 0 1 0           
98 GICL Pro/E ACIS Translator - Source: f:/data5/repository/PTC/V18/asmdes18/parts/inner_bb.prt - 6 0 13 ACIS 6.0.3 NT 24 Thu Apr 04 13:45:16 2002 
1 9.9999999999999995e-007 1e-010 
body $-1 $1 $-1 $2 #
lump $-1 $-1 $3 $0 #
transform $-1 1 0 0 0 1 0 0 0 1 0 0 0 10 no_rotate no_reflect no_shear #
shell $-1 $-1 $-1 $4 $-1 $1 #
face $-1 $5 $6 $3 $-1 $7 reversed single #
face $-1 $8 $9 $3 $-1 $10 forward single #
loop $-1 $-1 $11 $4 #
cone-surface $-1 0 4.1999999999999993 0 0 -1 0 -2 0 0 1 I I 0 1 2 forward I I I I #
face $-1 $12 $13 $3 $-1 $14 forward single #
loop $-1 $15 $16 $5 #
plane-surface $-1 0 0 0 0 -1 0 -1 0 0 forward_v I I I I #
coedge $-1 $17 $18 $19 $20 forward $6 $-1 #
face $-1 $21 $22 $3 $-1 $23 forward single #
loop $-1 $-1 $24 $8 #
cone-surface $-1 0 -1.0983844616974929 0 0 -1 0 -2.1445069205095586 0 0 1 I I -0.90630778703664994 0.42261826174069944 2.1445069205095586 forward I I I I #
loop $-1 $-1 $19 $5 #
coedge $-1 $25 $25 $24 $26 reversed $9 $-1 #
coedge $-1 $27 $11 $28 $29 reversed $6 $-1 #
coedge $-1 $11 $27 $30 $31 forward $6 $-1 #
coedge $-1 $32 $32 $11 $20 reversed $15 $-1 #
edge $-1 $33 1.2246063538223773e-016 $34 3.1415926535897931 $11 $35 forward 7 unknown #
face $-1 $36 $37 $3 $-1 $38 forward single #
loop $-1 $-1 $39 $12 #
cone-surface $-1 0 -1.0983844616974929 0 0 -1 0 -2.1445069205095586 0 0 1 I I -0.90630778703664994 0.42261826174069944 2.1445069205095586 forward I I I I #
coedge $-1 $40 $41 $16 $26 forward $13 $-1 #
coedge $-1 $16 $16 $42 $43 forward $9 $-1 #
edge $-1 $44 0 $45 3.1415926535897931 $16 $46 forward 7 unknown #
coedge $-1 $18 $17 $47 $48 reversed $6 $-1 #
coedge $-1 $49 $50 $17 $29 forward $51 $-1 #
edge $-1 $52 0 $34 3.9999999999999991 $17 $53 forward 7 unknown #
coedge $-1 $50 $49 $18 $31 reversed $51 $-1 #
edge $-1 $54 0 $33 3.9999999999999991 $18 $55 forward 7 unknown #
coedge $-1 $19 $19 $49 $56 forward $15 $-1 #
vertex $-1 $31 $57 #
vertex $-1 $29 $58 #
ellipse-curve $-1 0 0 -5.5511151231257827e-017 0 -1 0 2 0 5.5511151231257827e-017 1 I I #
face $-1 $59 $60 $3 $-1 $61 reversed single #
loop $-1 $-1 $62 $21 #
cone-surface $-1 0 4.1999999999999993 0 0 -1 0 -5.5 0 0 1 I I 0 1 5.5 forward I I I I #
coedge $-1 $63 $64 $65 $66 forward $22 $-1 #
coedge $-1 $67 $24 $63 $68 forward $13 $-1 #
coedge $-1 $24 $67 $64 $69 reversed $13 $-1 #
coedge $-1 $64 $63 $25 $43 reversed $22 $-1 #
edge $-1 $44 0 $45 3.1415926535897931 $25 $70 forward 7 unknown #
vertex $-1 $43 $71 #
vertex $-1 $43 $72 #
ellipse-curve $-1 0 0 -2.2204460492503131e-016 -1.4802973661668753e-016 1 -2.5432083242480152e-032 4.5 6.6613381477509392e-016 7.7311746414510107e-016 1 I I #
coedge $-1 $73 $73 $27 $48 forward $74 $-1 #
edge $-1 $54 0 $52 3.1415926535897931 $27 $75 forward 7 unknown #
coedge $-1 $30 $28 $32 $56 reversed $51 $-1 #
coedge $-1 $28 $30 $73 $76 forward $51 $-1 #
loop $-1 $-1 $50 $77 #
vertex $-1 $48 $78 #
straight-curve $-1 -2 3.9999999999999991 -4.898425415289509e-016 0 -1 0 I I #
vertex $-1 $31 $79 #
straight-curve $-1 2 3.9999999999999991 2.4492127076447545e-016 0 -1 0 I I #
edge $-1 $33 -1.2246063538223773e-016 $34 3.1415926535897931 $32 $80 forward 7 unknown #
point $-1 2 0 2.4492127076447545e-016 #
point $-1 -2 0 0 #
face $-1 $81 $82 $3 $-1 $83 forward single #
loop $-1 $-1 $84 $36 #
torus-surface $-1 0 2 0 0 -1 0 6 1.25 -1 0 0 forward_v I I I I #
coedge $-1 $85 $86 $87 $88 forward $37 $-1 #
coedge $-1 $42 $39 $40 $68 reversed $22 $-1 #
coedge $-1 $39 $42 $41 $69 forward $22 $-1 #
coedge $-1 $86 $85 $39 $66 reversed $37 $-1 #
edge $-1 $89 0 $90 3.1415926535897931 $39 $91 forward 7 unknown #
coedge $-1 $41 $40 $92 $93 reversed $13 $-1 #
edge $-1 $45 -2.4464775421807308e-031 $90 1.1033779189624908 $63 $94 forward 7 unknown #
edge $-1 $44 0 $89 1.1033779189624915 $64 $95 forward 7 unknown #
ellipse-curve $-1 0 0 0 1.4802973661668753e-016 -1 1.8127815601544857e-032 4.5 6.6613381477509392e-016 5.5107285922006977e-016 1 I I #
point $-1 4.5 6.6613381477509392e-016 5.5107285922006977e-016 #
point $-1 -4.5 6.6613381477509392e-016 0 #
coedge $-1 $47 $47 $50 $76 reversed $74 $-1 #
loop $-1 $96 $73 $97 #
ellipse-curve $-1 5.5511151231257827e-017 4 5.5511151231257827e-017 -4.4408920985006262e-016 -1 -4.2057495160556263e-032 2 -8.8817841970012523e-016 1.8941011953321762e-016 1 I I #
edge $-1 $54 0 $52 3.1415926535897931 $73 $98 forward 7 unknown #
face $-1 $99 $51 $3 $-1 $100 reversed single #
point $-1 -2 3.9999999999999991 0 #
point $-1 2 3.9999999999999991 2.4492127076447545e-016 #
ellipse-curve $-1 0 0 5.5511151231257827e-017 0 1 0 2 0 -5.5511151231257827e-017 1 I I #
face $-1 $97 $101 $3 $-1 $102 forward single #
loop $-1 $-1 $103 $59 #
cone-surface $-1 0 4.1999999999999993 0 0 -1 0 -5.5 0 0 1 I I 0 1 5.5 forward I I I I #
coedge $-1 $104 $105 $106 $107 forward $60 $-1 #
coedge $-1 $65 $62 $108 $109 reversed $37 $-1 #
coedge $-1 $62 $65 $110 $111 forward $37 $-1 #
coedge $-1 $105 $104 $62 $88 reversed $60 $-1 #
edge $-1 $112 0 $113 3.1415926535897931 $62 $114 forward 7 unknown #
vertex $-1 $69 $115 #
vertex $-1 $68 $116 #
ellipse-curve $-1 0 0.46630765815499764 -6.6613381477509392e-016 0 -1 0 5.5 0 1.3396673093774014e-015 1 I I #
coedge $-1 $108 $110 $67 $93 forward $117 $-1 #
edge $-1 $89 0 $90 3.1415926535897931 $67 $118 forward 7 unknown #
straight-curve $-1 -4.5 6.6613381477509392e-016 -1.1021457184401395e-015 -0.90630778703665005 0.42261826174069961 -2.2197405490475591e-016 I I #
straight-curve $-1 4.5 6.6613381477509392e-016 5.5107285922006977e-016 0.90630778703665005 0.42261826174069961 1.1098702745237796e-016 I I #
loop $-1 $-1 $119 $97 #
face $-1 $77 $74 $3 $-1 $120 reversed single #
ellipse-curve $-1 0 4 0 4.4408920985006262e-016 1 5.4383446804634572e-032 2 -8.8817841970012523e-016 2.4492127076447545e-016 1 I I #
face $-1 $121 $122 $3 $-1 $123 forward single #
cone-surface $-1 0 4.1999999999999993 0 0 -1 0 -2 0 0 1 I I 0 1 2 forward I I I I #
loop $-1 $-1 $124 $81 #
cone-surface $-1 0 5.0983844616974938 0 0 1 0 -2.1445069205095586 0 0 1 I I -0.90630778703664994 0.42261826174069944 2.1445069205095586 forward I I I I #
coedge $-1 $125 $126 $127 $128 forward $82 $-1 #
coedge $-1 $87 $84 $129 $130 reversed $60 $-1 #
coedge $-1 $84 $87 $131 $132 forward $60 $-1 #
coedge $-1 $126 $125 $84 $107 reversed $82 $-1 #
edge $-1 $133 0 $134 3.1415926535897931 $84 $135 forward 7 unknown #
coedge $-1 $136 $92 $85 $109 forward $117 $-1 #
edge $-1 $90 0 $113 0.38804841810604285 $85 $137 forward 7 unknown #
coedge $-1 $92 $136 $86 $111 reversed $117 $-1 #
edge $-1 $89 1.7763568394002505e-015 $112 0.38804841810604174 $86 $138 forward 7 unknown #
vertex $-1 $111 $139 #
vertex $-1 $109 $140 #
ellipse-curve $-1 0 0.85435607626104049 0 0 -1 0 5.4999999999999991 0 6.7353349460230739e-016 1 I I #
point $-1 5.5 0.46630765815499942 6.7353349460230749e-016 #
point $-1 -5.5 0.46630765815499764 -1.347066989204615e-015 #
loop $-1 $-1 $92 $141 #
ellipse-curve $-1 -2.2204460492503131e-016 0.46630765815499764 -4.4408920985006262e-016 0 1 0 5.5 0 1.1176227044523701e-015 1 I I #
coedge $-1 $142 $142 $124 $143 reversed $96 $-1 #
plane-surface $-1 0 4 0 0 -1 0 -1 0 0 forward_v I I I I #
face $-1 $144 $145 $3 $-1 $146 forward single #
loop $-1 $-1 $147 $99 #
cone-surface $-1 0 5.0983844616974938 0 0 1 0 -2.1445069205095586 0 0 1 I I -0.90630778703664994 0.42261826174069944 2.1445069205095586 forward I I I I #
coedge $-1 $148 $149 $119 $143 forward $101 $-1 #
coedge $-1 $106 $103 $150 $151 reversed $82 $-1 #
coedge $-1 $103 $106 $152 $153 forward $82 $-1 #
coedge $-1 $149 $148 $103 $128 reversed $101 $-1 #
edge $-1 $154 0 $155 3.1415926535897931 $103 $156 forward 7 unknown #
coedge $-1 $157 $158 $104 $130 forward $159 $-1 #
edge $-1 $113 0 $134 2.3185589614548161 $104 $160 forward 7 unknown #
coedge $-1 $158 $157 $105 $132 reversed $159 $-1 #
edge $-1 $112 -9.9475983006414055e-016 $133 2.3185589614548161 $105 $161 forward 7 unknown #
vertex $-1 $132 $162 #
vertex $-1 $130 $163 #
ellipse-curve $-1 0 3.1456439237389588 0 0 -1 0 5.5 0 6.7353349460230749e-016 1 I I #
coedge $-1 $110 $108 $158 $164 reversed $117 $-1 #
straight-curve $-1 -5.5 0.46630765815499764 -1.347066989204615e-015 0 1 0 I I #
straight-curve $-1 5.5 0.46630765815499764 6.7353349460230749e-016 0 1 0 I I #
point $-1 5.5 0.85435607626103938 6.7353349460230749e-016 #
point $-1 -5.4999999999999991 0.85435607626104049 -1.3470669892046148e-015 #
face $-1 $-1 $117 $3 $-1 $165 forward single #
coedge $-1 $119 $119 $166 $167 forward $96 $-1 #
edge $-1 $168 1.2246063538223773e-016 $169 3.1415926535897931 $124 $170 forward 7 unknown #
face $-1 $141 $159 $3 $-1 $171 reversed single #
loop $-1 $-1 $172 $121 #
cone-surface $-1 0 4.1999999999999993 0 0 -1 0 -5.5 0 0 1 I I 0 1 5.5 forward I I I I #
coedge $-1 $173 $174 $175 $176 forward $122 $-1 #
coedge $-1 $127 $124 $173 $177 reversed $101 $-1 #
coedge $-1 $124 $127 $174 $178 forward $101 $-1 #
coedge $-1 $175 $172 $125 $151 forward $145 $-1 #
edge $-1 $134 0 $155 0.38804841810604263 $125 $179 forward 7 unknown #
coedge $-1 $172 $175 $126 $153 reversed $145 $-1 #
edge $-1 $133 8.8817841970012523e-016 $154 0.38804841810604174 $126 $180 forward 7 unknown #
vertex $-1 $153 $181 #
vertex $-1 $151 $182 #
ellipse-curve $-1 2.2204460492503131e-016 3.5336923418450015 4.4408920985006262e-016 0 -1 0 5.5 0 2.2944428475224488e-016 1 I I #
coedge $-1 $131 $129 $172 $183 reversed $159 $-1 #
coedge $-1 $129 $131 $136 $164 forward $159 $-1 #
loop $-1 $-1 $158 $144 #
ellipse-curve $-1 -6 1.9999999999999996 -1.4695276245868527e-015 -2.4492127076447545e-016 -1.577721810442025e-032 1 0.50000000000000089 -1.1456439237389591 1.2246063538223792e-016 1 I I #
ellipse-curve $-1 6 1.9999999999999996 7.3476381229342635e-016 1.2246063538223773e-016 -7.8886090522101251e-033 -1 -0.50000000000000089 -1.1456439237389591 -6.1230317691118962e-017 1 I I #
point $-1 5.5 3.1456439237389597 6.7353349460230749e-016 #
point $-1 -5.5 3.1456439237389588 -1.347066989204615e-015 #
edge $-1 $112 0 $113 3.1415926535897931 $136 $184 forward 7 unknown #
cone-surface $-1 0 4.1999999999999993 0 0 -1 0 -5.5 0 0 1 I I 0 1 5.5 forward I I I I #
coedge $-1 $174 $173 $142 $167 reversed $122 $-1 #
edge $-1 $168 -1.2246063538223773e-016 $169 3.1415926535897931 $142 $185 forward 7 unknown #
vertex $-1 $178 $186 #
vertex $-1 $177 $187 #
ellipse-curve $-1 0 4 0 0 -1 0 4.5 0 0 1 I I #
torus-surface $-1 0 2 0 0 -1 0 6 1.25 -1 0 0 forward_v I I I I #
coedge $-1 $150 $152 $157 $183 forward $145 $-1 #
coedge $-1 $166 $147 $148 $177 forward $122 $-1 #
coedge $-1 $147 $166 $149 $178 reversed $122 $-1 #
coedge $-1 $152 $150 $147 $176 reversed $145 $-1 #
edge $-1 $154 0 $155 3.1415926535897931 $175 $188 forward 7 unknown #
edge $-1 $155 0 $169 1.1033779189624917 $148 $189 forward 7 unknown #
edge $-1 $154 -3.7536041984926828e-016 $168 1.1033779189624917 $149 $190 forward 7 unknown #
straight-curve $-1 -5.5 3.1456439237389588 -1.347066989204615e-015 0 1 0 I I #
straight-curve $-1 5.5 3.1456439237389588 6.7353349460230749e-016 0 1 0 I I #
point $-1 5.5 3.5336923418450006 6.7353349460230749e-016 #
point $-1 -5.5 3.5336923418450015 -1.347066989204615e-015 #
edge $-1 $133 0 $134 3.1415926535897931 $157 $191 forward 7 unknown #
ellipse-curve $-1 0 0.85435607626104049 0 0 1 0 5.4999999999999991 0 6.7353349460230739e-016 1 I I #
ellipse-curve $-1 0 4 0 0 1 0 4.5 0 0 1 I I #
point $-1 4.5 4 5.5107285922006977e-016 #
point $-1 -4.5 4 0 #
ellipse-curve $-1 -2.2204460492503131e-016 3.5336923418450015 -4.4408920985006262e-016 0 1 0 5.5 0 1.1176227044523701e-015 1 I I #
straight-curve $-1 -5.5 3.5336923418450015 -1.347066989204615e-015 0.90630778703665005 0.42261826174069939 2.2197405490475591e-016 I I #
straight-curve $-1 5.5 3.5336923418450015 6.7353349460230749e-016 -0.90630778703665005 0.42261826174069939 -1.1098702745237796e-016 I I #
ellipse-curve $-1 0 3.1456439237389588 0 0 1 0 5.5 0 6.7353349460230749e-016 1 I I #
End-of-ACIS-data 