600 0 1 0           
91 GICL ACIS Healer - Source: /gicl/data5/repository/PTC/V18/asmdes18/parts/inner_bb.sat - 6 0 18 ACIS 6.0.3 Solaris 24 Sat Apr 13 23:00:18 2002 
1 9.999999999999999547e-07 1.000000000000000036e-10 
body $-1 $1 $-1 $-1 #
lump $-1 $-1 $2 $0 #
shell $-1 $-1 $-1 $3 $-1 $1 #
face $-1 $4 $5 $2 $-1 $6 reversed single #
face $-1 $7 $8 $2 $-1 $9 forward single #
loop $-1 $-1 $10 $3 #
cone-surface $-1 0 41.99999999999999289 0 0 -1 0 -20 0 0 1 I I 0 1 20 forward I I I I #
face $-1 $11 $12 $2 $-1 $13 forward single #
loop $-1 $14 $15 $4 #
plane-surface $-1 0 0 0 0 -1 0 -10 0 0 forward_v I I I I #
coedge $-1 $16 $17 $18 $19 forward $5 $-1 #
face $-1 $20 $21 $2 $-1 $22 forward single #
loop $-1 $-1 $23 $7 #
cone-surface $-1 0 -10.98384461697492931 0 0 -1 0 -21.44506920509558512 0 0 1 I I -0.9063077870366499367 0.4226182617406994413 21.44506920509558512 forward I I I I #
loop $-1 $-1 $18 $4 #
coedge $-1 $24 $24 $23 $25 reversed $8 $-1 #
coedge $-1 $26 $10 $27 $28 reversed $5 $-1 #
coedge $-1 $10 $26 $29 $30 forward $5 $-1 #
coedge $-1 $31 $31 $10 $19 reversed $14 $-1 #
edge $-1 $32 1.224606353822377258e-16 $33 3.141592653589793116 $10 $34 forward 7 unknown #
face $-1 $35 $36 $2 $-1 $37 forward single #
loop $-1 $-1 $38 $11 #
cone-surface $-1 0 -10.98384461697492931 0 0 -1 0 -21.44506920509558512 0 0 1 I I -0.9063077870366499367 0.4226182617406994413 21.44506920509558512 forward I I I I #
coedge $-1 $39 $40 $15 $25 forward $12 $-1 #
coedge $-1 $15 $15 $41 $42 forward $8 $-1 #
edge $-1 $43 0 $44 3.141592653589793116 $15 $45 forward 7 unknown #
coedge $-1 $17 $16 $46 $47 reversed $5 $-1 #
coedge $-1 $48 $49 $16 $28 forward $50 $-1 #
edge $-1 $51 0 $33 3.999999999999999112 $16 $52 forward 7 unknown #
coedge $-1 $49 $48 $17 $30 reversed $50 $-1 #
edge $-1 $53 0 $32 3.999999999999999112 $17 $54 forward 7 unknown #
coedge $-1 $18 $18 $48 $55 forward $14 $-1 #
vertex $-1 $30 $56 #
vertex $-1 $28 $57 #
ellipse-curve $-1 0 0 -5.551115123125782702e-16 0 -1 0 20 0 5.551115123125782702e-16 1 I I #
face $-1 $58 $59 $2 $-1 $60 reversed single #
loop $-1 $-1 $61 $20 #
cone-surface $-1 0 41.99999999999999289 0 0 -1 0 -55 0 0 1 I I 0 1 55 forward I I I I #
coedge $-1 $62 $63 $64 $65 forward $21 $-1 #
coedge $-1 $66 $23 $62 $67 forward $12 $-1 #
coedge $-1 $23 $66 $63 $68 reversed $12 $-1 #
coedge $-1 $63 $62 $24 $42 reversed $21 $-1 #
edge $-1 $43 0 $44 3.141592653589793116 $24 $69 forward 7 unknown #
vertex $-1 $42 $70 #
vertex $-1 $42 $71 #
ellipse-curve $-1 0 0 -2.220446049250313081e-15 -1.480297366166875305e-16 1 -2.543208324248015156e-32 45 6.661338147750939243e-15 7.731174641451010743e-15 1 I I #
coedge $-1 $72 $72 $26 $47 forward $73 $-1 #
edge $-1 $53 0 $51 3.141592653589793116 $26 $74 forward 7 unknown #
coedge $-1 $29 $27 $31 $55 reversed $50 $-1 #
coedge $-1 $27 $29 $72 $75 forward $50 $-1 #
loop $-1 $-1 $49 $76 #
vertex $-1 $47 $77 #
straight-curve $-1 -20 39.99999999999999289 -4.898425415289509033e-15 0 -10 0 I I #
vertex $-1 $30 $78 #
straight-curve $-1 20 39.99999999999999289 2.449212707644754516e-15 0 -10 0 I I #
edge $-1 $32 -1.224606353822377258e-16 $33 3.141592653589793116 $31 $79 forward 7 unknown #
point $-1 20 0 2.449212707644754516e-15 #
point $-1 -20 0 0 #
face $-1 $80 $81 $2 $-1 $82 forward single #
loop $-1 $-1 $83 $35 #
torus-surface $-1 0 20 0 0 -1 0 60 12.5 -1 0 0 forward_v I I I I #
coedge $-1 $84 $85 $86 $87 forward $36 $-1 #
coedge $-1 $41 $38 $39 $67 reversed $21 $-1 #
coedge $-1 $38 $41 $40 $68 forward $21 $-1 #
coedge $-1 $85 $84 $38 $65 reversed $36 $-1 #
edge $-1 $88 0 $89 3.141592653589793116 $38 $90 forward 7 unknown #
coedge $-1 $40 $39 $91 $92 reversed $12 $-1 #
edge $-1 $44 -2.446477542180731202e-31 $89 1.103377918962490822 $62 $93 forward 7 unknown #
edge $-1 $43 0 $88 1.103377918962491488 $63 $94 forward 7 unknown #
ellipse-curve $-1 0 0 0 1.480297366166875305e-16 -1 1.812781560154485747e-32 45 6.661338147750939243e-15 5.510728592200697662e-15 1 I I #
point $-1 45 6.661338147750939243e-15 5.510728592200697662e-15 #
point $-1 -45 6.661338147750939243e-15 0 #
coedge $-1 $46 $46 $49 $75 reversed $73 $-1 #
loop $-1 $95 $72 $96 #
ellipse-curve $-1 5.551115123125782702e-16 40 5.551115123125782702e-16 -4.440892098500626162e-16 -1 -4.205749516055626294e-32 20 -8.881784197001252323e-15 1.894101195332176246e-15 1 I I #
edge $-1 $53 0 $51 3.141592653589793116 $72 $97 forward 7 unknown #
face $-1 $98 $50 $2 $-1 $99 reversed single #
point $-1 -20 39.99999999999999289 0 #
point $-1 20 39.99999999999999289 2.449212707644754516e-15 #
ellipse-curve $-1 0 0 5.551115123125782702e-16 0 1 0 20 0 -5.551115123125782702e-16 1 I I #
face $-1 $96 $100 $2 $-1 $101 forward single #
loop $-1 $-1 $102 $58 #
cone-surface $-1 0 41.99999999999999289 0 0 -1 0 -55 0 0 1 I I 0 1 55 forward I I I I #
coedge $-1 $103 $104 $105 $106 forward $59 $-1 #
coedge $-1 $64 $61 $107 $108 reversed $36 $-1 #
coedge $-1 $61 $64 $109 $110 forward $36 $-1 #
coedge $-1 $104 $103 $61 $87 reversed $59 $-1 #
edge $-1 $111 0 $112 3.141592653589793116 $61 $113 forward 7 unknown #
vertex $-1 $68 $114 #
vertex $-1 $67 $115 #
ellipse-curve $-1 0 4.663076581549976396 -6.661338147750939243e-15 0 -1 0 55 0 1.339667309377401416e-14 1 I I #
coedge $-1 $107 $109 $66 $92 forward $116 $-1 #
edge $-1 $88 0 $89 3.141592653589793116 $66 $117 forward 7 unknown #
straight-curve $-1 -45 6.661338147750939243e-15 -1.102145718440139532e-14 -9.063077870366500477 4.2261826174069963 -2.219740549047559275e-15 I I #
straight-curve $-1 45 6.661338147750939243e-15 5.510728592200697662e-15 9.063077870366500477 4.2261826174069963 1.109870274523779637e-15 I I #
loop $-1 $-1 $118 $96 #
face $-1 $76 $73 $2 $-1 $119 reversed single #
ellipse-curve $-1 0 40 0 4.440892098500626162e-16 1 5.43834468046345724e-32 20 -8.881784197001252323e-15 2.449212707644754516e-15 1 I I #
face $-1 $120 $121 $2 $-1 $122 forward single #
cone-surface $-1 0 41.99999999999999289 0 0 -1 0 -20 0 0 1 I I 0 1 20 forward I I I I #
loop $-1 $-1 $123 $80 #
cone-surface $-1 0 50.98384461697493464 0 0 1 0 -21.44506920509558512 0 0 1 I I -0.9063077870366499367 0.4226182617406994413 21.44506920509558512 forward I I I I #
coedge $-1 $124 $125 $126 $127 forward $81 $-1 #
coedge $-1 $86 $83 $128 $129 reversed $59 $-1 #
coedge $-1 $83 $86 $130 $131 forward $59 $-1 #
coedge $-1 $125 $124 $83 $106 reversed $81 $-1 #
edge $-1 $132 0 $133 3.141592653589793116 $83 $134 forward 7 unknown #
coedge $-1 $135 $91 $84 $108 forward $116 $-1 #
edge $-1 $89 0 $112 0.3880484181060427917 $84 $136 forward 7 unknown #
coedge $-1 $91 $135 $85 $110 reversed $116 $-1 #
edge $-1 $88 1.776356839400250465e-15 $111 0.388048418106041737 $85 $137 forward 7 unknown #
vertex $-1 $110 $138 #
vertex $-1 $108 $139 #
ellipse-curve $-1 0 8.543560762610404424 0 0 -1 0 54.99999999999999289 0 6.735334946023074131e-15 1 I I #
point $-1 55 4.66307658154999416 6.73533494602307492e-15 #
point $-1 -55 4.663076581549976396 -1.347066989204614984e-14 #
loop $-1 $-1 $91 $140 #
ellipse-curve $-1 -2.220446049250313081e-15 4.663076581549976396 -4.440892098500626162e-15 0 1 0 55 0 1.117622704452370108e-14 1 I I #
coedge $-1 $141 $141 $123 $142 reversed $95 $-1 #
plane-surface $-1 0 40 0 0 -1 0 -10 0 0 forward_v I I I I #
face $-1 $143 $144 $2 $-1 $145 forward single #
loop $-1 $-1 $146 $98 #
cone-surface $-1 0 50.98384461697493464 0 0 1 0 -21.44506920509558512 0 0 1 I I -0.9063077870366499367 0.4226182617406994413 21.44506920509558512 forward I I I I #
coedge $-1 $147 $148 $118 $142 forward $100 $-1 #
coedge $-1 $105 $102 $149 $150 reversed $81 $-1 #
coedge $-1 $102 $105 $151 $152 forward $81 $-1 #
coedge $-1 $148 $147 $102 $127 reversed $100 $-1 #
edge $-1 $153 0 $154 3.141592653589793116 $102 $155 forward 7 unknown #
coedge $-1 $156 $157 $103 $129 forward $158 $-1 #
edge $-1 $112 -1.818989403545857549e-16 $133 2.318558961454816103 $103 $159 forward 7 unknown #
coedge $-1 $157 $156 $104 $131 reversed $158 $-1 #
edge $-1 $111 -1.04591890703886785e-15 $132 2.318558961454816103 $104 $160 forward 7 unknown #
vertex $-1 $131 $161 #
vertex $-1 $129 $162 #
ellipse-curve $-1 0 31.45643923738958847 0 0 -1 0 55 0 6.73533494602307492e-15 1 I I #
coedge $-1 $109 $107 $157 $163 reversed $116 $-1 #
straight-curve $-1 -55 4.663076581549976396 -1.347066989204614984e-14 0 10 0 I I #
straight-curve $-1 55 4.663076581549976396 6.73533494602307492e-15 0 10 0 I I #
point $-1 55 8.543560762610393766 6.73533494602307492e-15 #
point $-1 -54.99999999999999289 8.543560762610404424 -1.347066989204614826e-14 #
face $-1 $-1 $116 $2 $-1 $164 forward single #
coedge $-1 $118 $118 $165 $166 forward $95 $-1 #
edge $-1 $167 1.224606353822377258e-16 $168 3.141592653589793116 $123 $169 forward 7 unknown #
face $-1 $140 $158 $2 $-1 $170 reversed single #
loop $-1 $-1 $171 $120 #
cone-surface $-1 0 41.99999999999999289 0 0 -1 0 -55 0 0 1 I I 0 1 55 forward I I I I #
coedge $-1 $172 $173 $174 $175 forward $121 $-1 #
coedge $-1 $126 $123 $172 $176 reversed $100 $-1 #
coedge $-1 $123 $126 $173 $177 forward $100 $-1 #
coedge $-1 $174 $171 $124 $150 forward $144 $-1 #
edge $-1 $133 0 $154 0.3880484181060424587 $124 $178 forward 7 unknown #
coedge $-1 $171 $174 $125 $152 reversed $144 $-1 #
edge $-1 $132 7.105427357601002253e-16 $153 0.388048418106041737 $125 $179 forward 7 unknown #
vertex $-1 $152 $180 #
vertex $-1 $150 $181 #
ellipse-curve $-1 2.220446049250313081e-15 35.33692341845001295 4.440892098500626162e-15 0 -1 0 55 0 2.294442847522448758e-15 1 I I #
coedge $-1 $130 $128 $171 $182 reversed $158 $-1 #
coedge $-1 $128 $130 $135 $163 forward $158 $-1 #
loop $-1 $-1 $157 $143 #
ellipse-curve $-1 -60 19.99999999999999645 -1.46952762458685271e-14 -2.449212707644754516e-16 -1.577721810442025012e-32 1 5.000000000000008882 -11.45643923738959025 1.22460635382237923e-15 1 I I #
ellipse-curve $-1 60 19.99999999999999645 7.347638122934263549e-15 1.224606353822377258e-16 -7.888609052210125061e-33 -1 -5.000000000000008882 -11.45643923738959025 -6.123031769111896152e-16 1 I I #
point $-1 55 31.45643923738959558 6.73533494602307492e-15 #
point $-1 -55 31.45643923738958847 -1.347066989204614984e-14 #
edge $-1 $111 0 $112 3.141592653589793116 $135 $183 forward 7 unknown #
cone-surface $-1 0 41.99999999999999289 0 0 -1 0 -55 0 0 1 I I 0 1 55 forward I I I I #
coedge $-1 $173 $172 $141 $166 reversed $121 $-1 #
edge $-1 $167 -1.224606353822377258e-16 $168 3.141592653589793116 $141 $184 forward 7 unknown #
vertex $-1 $177 $185 #
vertex $-1 $176 $186 #
ellipse-curve $-1 0 40 0 0 -1 0 45 0 0 1 I I #
torus-surface $-1 0 20 0 0 -1 0 60 12.5 -1 0 0 forward_v I I I I #
coedge $-1 $149 $151 $156 $182 forward $144 $-1 #
coedge $-1 $165 $146 $147 $176 forward $121 $-1 #
coedge $-1 $146 $165 $148 $177 reversed $121 $-1 #
coedge $-1 $151 $149 $146 $175 reversed $144 $-1 #
edge $-1 $153 0 $154 3.141592653589793116 $174 $187 forward 7 unknown #
edge $-1 $154 0 $168 1.103377918962491933 $147 $188 forward 7 unknown #
edge $-1 $153 -3.002883358794146414e-16 $167 1.103377918962491933 $148 $189 forward 7 unknown #
straight-curve $-1 -55 31.45643923738958847 -1.347066989204614984e-14 0 10 0 I I #
straight-curve $-1 55 31.45643923738958847 6.73533494602307492e-15 0 10 0 I I #
point $-1 55 35.33692341845000584 6.73533494602307492e-15 #
point $-1 -55 35.33692341845001295 -1.347066989204614984e-14 #
edge $-1 $132 0 $133 3.141592653589793116 $156 $190 forward 7 unknown #
ellipse-curve $-1 0 8.543560762610404424 0 0 1 0 54.99999999999999289 0 6.735334946023074131e-15 1 I I #
ellipse-curve $-1 0 40 0 0 1 0 45 0 0 1 I I #
point $-1 45 40 5.510728592200697662e-15 #
point $-1 -45 40 0 #
ellipse-curve $-1 -2.220446049250313081e-15 35.33692341845001295 -4.440892098500626162e-15 0 1 0 55 0 1.117622704452370108e-14 1 I I #
straight-curve $-1 -55 35.33692341845001295 -1.347066989204614984e-14 9.063077870366500477 4.226182617406993636 2.219740549047559275e-15 I I #
straight-curve $-1 55 35.33692341845001295 6.73533494602307492e-15 -9.063077870366500477 4.226182617406993636 -1.109870274523779637e-15 I I #
ellipse-curve $-1 0 31.45643923738958847 0 0 1 0 55 0 6.73533494602307492e-15 1 I I #
End-of-ACIS-data 