600 0 1 0           
94 GICL Pro/E ACIS Translator - Source: f:/data5/repository/PTC/V18/asmdes18/parts/knob.prt - 6 0 13 ACIS 6.0.3 NT 24 Thu Apr 04 13:45:16 2002 
1 9.9999999999999995e-007 1e-010 
body $-1 $1 $-1 $2 #
lump $-1 $-1 $3 $0 #
transform $-1 1 0 0 0 1 0 0 0 1 0 0 0 10 no_rotate no_reflect no_shear #
shell $-1 $-1 $-1 $4 $-1 $1 #
face $-1 $5 $6 $3 $-1 $7 forward single #
face $-1 $8 $9 $3 $-1 $10 forward single #
loop $-1 $11 $12 $4 #
plane-surface $-1 0 0 0 0 -1 0 -1 0 0 forward_v I I I I #
face $-1 $13 $14 $3 $-1 $15 forward single #
loop $-1 $-1 $16 $5 #
torus-surface $-1 1.7763568394002505e-015 1.7500000000000142 0 0 -1 0 2.6500453458963014 1.75 -1 0 0 forward_v I I I I #
loop $-1 $-1 $17 $4 #
coedge $-1 $18 $18 $19 $20 forward $6 $-1 #
face $-1 $21 $22 $3 $-1 $23 forward single #
loop $-1 $-1 $24 $8 #
cone-surface $-1 0 -47.619155088206014 -1.7763568394002505e-015 0 -1 0 -0.087488663525924423 0 0 1 I I -0.087155742747658596 0.99619469809174555 0.087488663525924423 forward I I I I #
coedge $-1 $25 $26 $27 $28 forward $9 $-1 #
coedge $-1 $29 $29 $30 $31 forward $11 $-1 #
coedge $-1 $12 $12 $32 $33 reversed $6 $-1 #
coedge $-1 $26 $25 $12 $20 reversed $9 $-1 #
edge $-1 $34 0 $35 3.1415926535897931 $12 $36 forward 7 unknown #
face $-1 $37 $38 $3 $-1 $39 reversed single #
loop $-1 $-1 $40 $13 #
torus-surface $-1 3.5527136788005009e-015 5.75 0 0 -1 0 3 1.75 -1 0 0 forward_v I I I I #
coedge $-1 $41 $42 $43 $44 forward $14 $-1 #
coedge $-1 $19 $16 $45 $46 reversed $9 $-1 #
coedge $-1 $16 $19 $47 $48 forward $9 $-1 #
coedge $-1 $42 $41 $16 $28 reversed $14 $-1 #
edge $-1 $49 4.0432523162893365e-016 $50 3.141592653589794 $16 $51 forward 7 unknown #
coedge $-1 $17 $17 $52 $53 forward $11 $-1 #
coedge $-1 $54 $55 $17 $31 reversed $56 $-1 #
edge $-1 $57 0 $58 3.1415926535897931 $17 $59 forward 7 unknown #
coedge $-1 $45 $47 $18 $33 forward $60 $-1 #
edge $-1 $34 0 $35 3.1415926535897931 $18 $61 forward 7 unknown #
vertex $-1 $33 $62 #
vertex $-1 $33 $63 #
ellipse-curve $-1 1.7763568394002505e-015 0 -1.1102230246251565e-016 5.362494923797462e-015 -1 8.8135353410033611e-031 2.6500453458963014 1.4210854715202004e-014 4.3554853931271866e-016 1 I I #
face $-1 $64 $65 $3 $-1 $66 forward single #
loop $-1 $-1 $67 $21 #
plane-surface $-1 -3.5527136788005009e-015 7.5 -2.6645352591003757e-015 0 -1 0 -1 0 0 forward_v I I I I #
coedge $-1 $68 $69 $67 $70 forward $22 $-1 #
coedge $-1 $27 $24 $71 $72 reversed $14 $-1 #
coedge $-1 $24 $27 $73 $74 forward $14 $-1 #
coedge $-1 $69 $68 $24 $44 reversed $22 $-1 #
edge $-1 $75 -3.7449488527958577e-016 $76 3.1415926535897931 $24 $77 forward 7 unknown #
coedge $-1 $78 $32 $25 $46 forward $60 $-1 #
edge $-1 $35 0 $50 1.4835298641951582 $25 $79 forward 7 unknown #
coedge $-1 $32 $78 $26 $48 reversed $60 $-1 #
edge $-1 $34 0 $49 1.4835298641951791 $26 $80 forward 7 unknown #
vertex $-1 $48 $81 #
vertex $-1 $46 $82 #
ellipse-curve $-1 1.7763568394002505e-015 1.5974774501915761 0 0 -1 0 4.393386067556853 0 -1.2383399900877717e-015 1 I I #
coedge $-1 $83 $84 $29 $53 reversed $85 $-1 #
edge $-1 $58 0 $57 3.1415926535897931 $29 $86 forward 7 unknown #
coedge $-1 $87 $30 $84 $88 forward $56 $-1 #
coedge $-1 $30 $87 $83 $89 reversed $56 $-1 #
loop $-1 $-1 $54 $90 #
vertex $-1 $53 $91 #
vertex $-1 $53 $92 #
ellipse-curve $-1 0 0 0 0 1 0 1.25 0 0 1 I I #
loop $-1 $-1 $32 $93 #
ellipse-curve $-1 1.5543122344752192e-015 0 -2.2204460492503131e-016 -5.362494923797462e-015 1 -1.1060125325984108e-030 2.6500453458963014 1.4210854715202004e-014 5.4657084177523431e-016 1 I I #
point $-1 2.6500453458963031 1.4210854715202004e-014 3.24526236850203e-016 #
point $-1 -2.6500453458962996 1.4210854715202004e-014 -6.49052473700406e-016 #
face $-1 $93 $94 $3 $-1 $95 forward single #
loop $-1 $-1 $96 $37 #
torus-surface $-1 3.5527136788005009e-015 5.75 0 0 -1 0 3 1.75 -1 0 0 forward_v I I I I #
coedge $-1 $97 $97 $40 $70 reversed $38 $-1 #
coedge $-1 $43 $40 $98 $99 reversed $22 $-1 #
coedge $-1 $40 $43 $100 $101 forward $22 $-1 #
edge $-1 $102 1.0106390550823651e-015 $103 3.1415926535897949 $40 $104 forward 7 unknown #
coedge $-1 $105 $106 $41 $72 forward $94 $-1 #
edge $-1 $50 0 $76 4.0152793501734099 $41 $107 forward 7 unknown #
coedge $-1 $106 $105 $42 $74 reversed $94 $-1 #
edge $-1 $49 3.6586383338701191e-014 $75 4.0152793501733903 $42 $108 forward 7 unknown #
vertex $-1 $74 $109 #
vertex $-1 $72 $110 #
ellipse-curve $-1 3.5527136788005009e-015 5.5974774501915965 0 0 -1 0 4.7433407216605543 0 5.8087251860899353e-016 1 I I #
coedge $-1 $47 $45 $106 $111 reversed $60 $-1 #
ellipse-curve $-1 -2.6500453458962987 1.7500000000000155 -6.4905247370040541e-016 2.449212707644756e-016 2.1377822382698292e-031 -1 -8.8817841970012523e-016 -1.7500000000000013 -5.9164567891575885e-031 1 I I #
ellipse-curve $-1 2.6500453458963023 1.7500000000000155 3.2452623685020271e-016 -1.224606353822378e-016 1.0688911191349146e-031 1 8.8817841970012523e-016 -1.7500000000000013 2.9582283945787943e-031 1 I I #
point $-1 4.3933860675568583 1.5974774501916125 5.3801684931248335e-016 #
point $-1 -4.3933860675568548 1.5974774501915761 -2.8523905380252079e-015 #
coedge $-1 $112 $52 $55 $89 forward $85 $-1 #
coedge $-1 $52 $112 $54 $88 reversed $85 $-1 #
loop $-1 $-1 $83 $113 #
ellipse-curve $-1 0 0 0 0 1 0 -1.25 0 0 1 I I #
coedge $-1 $55 $54 $114 $115 forward $56 $-1 #
edge $-1 $57 0 $116 3.5000000000000142 $84 $117 forward 7 unknown #
edge $-1 $58 0 $118 3.5000000000000142 $83 $119 forward 7 unknown #
face $-1 $113 $56 $3 $-1 $120 reversed single #
point $-1 1.25 0 0 #
point $-1 -1.25 0 0 #
face $-1 $90 $60 $3 $-1 $121 forward single #
loop $-1 $-1 $106 $64 #
cone-surface $-1 0 -47.619155088206014 -1.7763568394002505e-015 0 -1 0 -0.087488663525924423 0 0 1 I I -0.087155742747658596 0.99619469809174555 0.087488663525924423 forward I I I I #
coedge $-1 $98 $100 $105 $122 forward $65 $-1 #
coedge $-1 $67 $67 $123 $124 forward $38 $-1 #
coedge $-1 $123 $96 $68 $99 forward $65 $-1 #
edge $-1 $76 0 $103 1.65806278939461 $68 $125 forward 7 unknown #
coedge $-1 $96 $123 $69 $101 reversed $65 $-1 #
edge $-1 $75 -1.1890715169862928e-014 $102 1.6580627893946138 $69 $126 forward 7 unknown #
vertex $-1 $101 $127 #
vertex $-1 $99 $128 #
ellipse-curve $-1 3.5527136788005009e-015 7.5 0 0 -1 0 2.9999999999999929 0 -2.6645352591003757e-015 1 I I #
coedge $-1 $73 $71 $96 $122 reversed $94 $-1 #
coedge $-1 $71 $73 $78 $111 forward $94 $-1 #
straight-curve $-1 -4.3933860675568548 1.5974774501915761 -2.8523905380252079e-015 -0.08715574274765861 0.99619469809174555 -2.1346295268178078e-017 I I #
straight-curve $-1 4.3933860675568548 1.5974774501915761 -1.2383399900877717e-015 0.08715574274765861 0.99619469809174555 1.0673147634089039e-017 I I #
point $-1 4.7433407216605525 5.5974774501915761 -1.1954843207912621e-015 #
point $-1 -4.7433407216605508 5.5974774501915965 -1.1617450372179871e-015 #
edge $-1 $49 -4.0432523162893365e-016 $50 3.1415926535897922 $78 $129 forward 7 unknown #
coedge $-1 $84 $83 $130 $131 forward $85 $-1 #
face $-1 $132 $85 $3 $-1 $133 reversed single #
coedge $-1 $130 $130 $87 $115 reversed $134 $-1 #
edge $-1 $116 0 $118 3.1415926535897922 $114 $135 forward 7 unknown #
vertex $-1 $131 $136 #
straight-curve $-1 1.25 0 1.5307579422779716e-016 0 1 0 I I #
vertex $-1 $131 $137 #
straight-curve $-1 -1.25 0 0 0 1 0 I I #
cone-surface $-1 0 0 0 0 1 0 -1.25 0 0 1 I I 0 1 1.25 forward I I I I #
torus-surface $-1 1.7763568394002505e-015 1.7500000000000142 0 0 -1 0 2.6500453458963014 1.75 -1 0 0 forward_v I I I I #
edge $-1 $75 3.7449488527958577e-016 $76 3.1415926535897931 $105 $138 forward 7 unknown #
coedge $-1 $100 $98 $97 $124 reversed $65 $-1 #
edge $-1 $102 -1.0106390550823651e-015 $103 3.1415926535897913 $97 $139 forward 7 unknown #
ellipse-curve $-1 -2.9999999999999964 5.75 -7.3476381229342616e-016 2.449212707644756e-016 -6.4396808589470368e-032 -1 -1.7433407216605543 -0.15252254980840352 -4.269812249245609e-016 1 I I #
ellipse-curve $-1 3.0000000000000036 5.75 3.6738190614671308e-016 -1.224606353822378e-016 -3.2198404294735184e-032 1 1.7433407216605543 -0.15252254980840352 2.1349061246228045e-016 1 I I #
point $-1 3.000000000000004 7.5 3.6738190614671323e-016 #
point $-1 -3.0000000000000036 7.5 -2.6645352591003757e-015 #
ellipse-curve $-1 1.7763568394002505e-015 1.5974774501915761 0 0 1 0 4.393386067556853 0 -1.2383399900877717e-015 1 I I #
coedge $-1 $114 $114 $112 $131 reversed $134 $-1 #
edge $-1 $118 0 $116 3.1415926535897922 $130 $140 forward 7 unknown #
face $-1 $-1 $134 $3 $-1 $141 reversed single #
cone-surface $-1 0 0 0 0 1 0 -1.25 0 0 1 I I 0 1 1.25 forward I I I I #
loop $-1 $-1 $114 $132 #
ellipse-curve $-1 0 3.5000000000000142 4.9960036108132044e-016 0 1 0 1.25 0 -4.9960036108132044e-016 1 I I #
point $-1 1.25 3.5000000000000142 0 #
point $-1 -1.25 3.5000000000000142 0 #
ellipse-curve $-1 3.5527136788005009e-015 5.5974774501915965 0 0 1 0 4.7433407216605543 0 5.8087251860899353e-016 1 I I #
ellipse-curve $-1 3.5527136788005009e-015 7.5 0 0 1 0 2.9999999999999929 0 -2.6645352591003757e-015 1 I I #
ellipse-curve $-1 0 3.5000000000000142 -5.5511151231257827e-016 0 1 0 -1.25 0 5.5511151231257827e-016 1 I I #
plane-surface $-1 0 3.5000000000000142 0 0 1 0 -1 0 0 forward_v I I I I #
End-of-ACIS-data 