600 0 1 0           
91 GICL ACIS Healer - Source: /gicl/data5/repository/PTC/V18/asmdes18/parts/knob.prt.sat - 6 0 18 ACIS 6.0.3 Solaris 24 Sat Apr 13 23:02:48 2002 
1 9.999999999999999547e-07 1.000000000000000036e-10 
body $-1 $1 $-1 $-1 #
lump $-1 $-1 $2 $0 #
shell $-1 $-1 $-1 $3 $-1 $1 #
face $-1 $4 $5 $2 $-1 $6 forward single #
face $-1 $7 $8 $2 $-1 $9 forward single #
loop $-1 $10 $11 $3 #
plane-surface $-1 0 0 0 0 -1 0 -10 0 0 forward_v I I I I #
face $-1 $12 $13 $2 $-1 $14 forward single #
loop $-1 $-1 $15 $4 #
torus-surface $-1 1.776356839400250465e-14 17.50000000000014211 0 0 -1 0 26.50045345896301541 17.5 -1 0 0 forward_v I I I I #
loop $-1 $-1 $16 $3 #
coedge $-1 $17 $17 $18 $19 forward $5 $-1 #
face $-1 $20 $21 $2 $-1 $22 forward single #
loop $-1 $-1 $23 $7 #
cone-surface $-1 0 -476.1915508820601417 -1.776356839400250465e-14 0 -1 0 -0.8748866352592442608 0 0 1 I I -0.08715574274765859608 0.9961946980917455452 0.8748866352592442608 forward I I I I #
coedge $-1 $24 $25 $26 $27 forward $8 $-1 #
coedge $-1 $28 $28 $29 $30 forward $10 $-1 #
coedge $-1 $11 $11 $31 $32 reversed $5 $-1 #
coedge $-1 $25 $24 $11 $19 reversed $8 $-1 #
edge $-1 $33 3.594543975969192643e-32 $34 3.141592653589793116 $11 $35 forward 7 unknown #
face $-1 $36 $37 $2 $-1 $38 reversed single #
loop $-1 $-1 $39 $12 #
torus-surface $-1 3.552713678800500929e-14 57.5 0 0 -1 0 30 17.5 -1 0 0 forward_v I I I I #
coedge $-1 $40 $41 $42 $43 forward $13 $-1 #
coedge $-1 $18 $15 $44 $45 reversed $8 $-1 #
coedge $-1 $15 $18 $46 $47 forward $8 $-1 #
coedge $-1 $41 $40 $15 $27 reversed $13 $-1 #
edge $-1 $48 4.043252316289337491e-16 $49 3.141592653589794004 $15 $50 forward 7 unknown #
coedge $-1 $16 $16 $51 $52 forward $10 $-1 #
coedge $-1 $53 $54 $16 $30 reversed $55 $-1 #
edge $-1 $56 0 $57 3.141592653589793116 $16 $58 forward 7 unknown #
coedge $-1 $44 $46 $17 $32 forward $59 $-1 #
edge $-1 $33 0 $34 3.141592653589793116 $17 $60 forward 7 unknown #
vertex $-1 $32 $61 #
vertex $-1 $32 $62 #
ellipse-curve $-1 1.776356839400250465e-14 0 -1.11022302462515654e-15 5.362494923797462008e-15 -1 8.813535341003361131e-31 26.50045345896301541 1.421085471520200372e-13 4.355485393127186762e-15 1 I I #
face $-1 $63 $64 $2 $-1 $65 forward single #
loop $-1 $-1 $66 $20 #
plane-surface $-1 -3.552713678800500929e-14 75 -2.664535259100375697e-14 0 -1 0 -10 0 0 forward_v I I I I #
coedge $-1 $67 $68 $66 $69 forward $21 $-1 #
coedge $-1 $26 $23 $70 $71 reversed $13 $-1 #
coedge $-1 $23 $26 $72 $73 forward $13 $-1 #
coedge $-1 $68 $67 $23 $43 reversed $21 $-1 #
edge $-1 $74 -3.744948852795858192e-16 $75 3.141592653589793116 $23 $76 forward 7 unknown #
coedge $-1 $77 $31 $24 $45 forward $59 $-1 #
edge $-1 $34 -1.015061051085856514e-16 $49 1.483529864195158199 $24 $78 forward 7 unknown #
coedge $-1 $31 $77 $25 $47 reversed $59 $-1 #
edge $-1 $33 -1.015061051085856514e-16 $48 1.483529864195178849 $25 $79 forward 7 unknown #
vertex $-1 $47 $80 #
vertex $-1 $45 $81 #
ellipse-curve $-1 1.776356839400250465e-14 15.97477450191576054 0 0 -1 0 43.93386067556853192 0 -1.238339990087771824e-14 1 I I #
coedge $-1 $82 $83 $28 $52 reversed $84 $-1 #
edge $-1 $57 0 $56 3.141592653589793116 $28 $85 forward 7 unknown #
coedge $-1 $86 $29 $83 $87 forward $55 $-1 #
coedge $-1 $29 $86 $82 $88 reversed $55 $-1 #
loop $-1 $-1 $53 $89 #
vertex $-1 $52 $90 #
vertex $-1 $52 $91 #
ellipse-curve $-1 0 0 0 0 1 0 12.5 0 0 1 I I #
loop $-1 $-1 $31 $92 #
ellipse-curve $-1 1.554312234475219157e-14 0 -2.220446049250313081e-15 -5.362494923797462008e-15 1 -1.106012532598410763e-30 26.50045345896301541 1.421085471520200372e-13 5.465708417752343303e-15 1 I I #
point $-1 26.50045345896302962 1.421085471520200372e-13 3.245262368502030222e-15 #
point $-1 -26.50045345896299409 1.421085471520200372e-13 -6.490524737004060444e-15 #
face $-1 $92 $93 $2 $-1 $94 forward single #
loop $-1 $-1 $95 $36 #
torus-surface $-1 3.552713678800500929e-14 57.5 0 0 -1 0 30 17.5 -1 0 0 forward_v I I I I #
coedge $-1 $96 $96 $39 $69 reversed $37 $-1 #
coedge $-1 $42 $39 $97 $98 reversed $21 $-1 #
coedge $-1 $39 $42 $99 $100 forward $21 $-1 #
edge $-1 $101 1.010639055082365128e-15 $102 3.141592653589794892 $39 $103 forward 7 unknown #
coedge $-1 $104 $105 $40 $71 forward $93 $-1 #
edge $-1 $49 0 $75 4.015279350173409867 $40 $106 forward 7 unknown #
coedge $-1 $105 $104 $41 $73 reversed $93 $-1 #
edge $-1 $48 3.658638333870119071e-14 $74 4.015279350173389439 $41 $107 forward 7 unknown #
vertex $-1 $73 $108 #
vertex $-1 $71 $109 #
ellipse-curve $-1 3.552713678800500929e-14 55.9747745019159666 0 0 -1 0 47.43340721660554493 0 5.808725186089935292e-15 1 I I #
coedge $-1 $46 $44 $105 $110 reversed $59 $-1 #
ellipse-curve $-1 -26.50045345896298699 17.50000000000015632 -6.490524737004054133e-15 2.449212707644755996e-16 2.137782238269829169e-31 -1 -8.881784197001252323e-15 -17.50000000000001421 -5.916456789157588541e-30 1 I I #
ellipse-curve $-1 26.50045345896302251 17.50000000000015632 3.245262368502027066e-15 -1.224606353822377998e-16 1.068891119134914585e-31 1 8.881784197001252323e-15 -17.50000000000001421 2.95822839457879427e-30 1 I I #
point $-1 43.93386067556858166 15.97477450191612469 5.38016849312483374e-15 #
point $-1 -43.93386067556854613 15.97477450191576054 -2.852390538025207746e-14 #
coedge $-1 $111 $51 $54 $88 forward $84 $-1 #
coedge $-1 $51 $111 $53 $87 reversed $84 $-1 #
loop $-1 $-1 $82 $112 #
ellipse-curve $-1 0 0 0 0 1 0 -12.5 0 0 1 I I #
coedge $-1 $54 $53 $113 $114 forward $55 $-1 #
edge $-1 $56 0 $115 3.500000000000014211 $83 $116 forward 7 unknown #
edge $-1 $57 0 $117 3.500000000000014211 $82 $118 forward 7 unknown #
face $-1 $112 $55 $2 $-1 $119 reversed single #
point $-1 12.5 0 0 #
point $-1 -12.5 0 0 #
face $-1 $89 $59 $2 $-1 $120 forward single #
loop $-1 $-1 $105 $63 #
cone-surface $-1 0 -476.1915508820601417 -1.776356839400250465e-14 0 -1 0 -0.8748866352592442608 0 0 1 I I -0.08715574274765859608 0.9961946980917455452 0.8748866352592442608 forward I I I I #
coedge $-1 $97 $99 $104 $121 forward $64 $-1 #
coedge $-1 $66 $66 $122 $123 forward $37 $-1 #
coedge $-1 $122 $95 $67 $98 forward $64 $-1 #
edge $-1 $75 1.044062795402596138e-16 $102 1.658062789394610048 $67 $124 forward 7 unknown #
coedge $-1 $95 $122 $68 $100 reversed $64 $-1 #
edge $-1 $74 -1.19139165653163182e-14 $101 1.658062789394614045 $68 $125 forward 7 unknown #
vertex $-1 $100 $126 #
vertex $-1 $98 $127 #
ellipse-curve $-1 3.552713678800500929e-14 75 0 0 -1 0 29.99999999999992895 0 -2.664535259100375697e-14 1 I I #
coedge $-1 $72 $70 $95 $121 reversed $93 $-1 #
coedge $-1 $70 $72 $77 $110 forward $93 $-1 #
straight-curve $-1 -43.93386067556854613 15.97477450191576054 -2.852390538025207746e-14 -0.8715574274765860441 9.961946980917455008 -2.134629526817807756e-16 I I #
straight-curve $-1 43.93386067556854613 15.97477450191576054 -1.238339990087771824e-14 0.8715574274765860441 9.961946980917455008 1.067314763408903878e-16 I I #
point $-1 47.43340721660552362 55.97477450191576054 -1.195484320791261984e-14 #
point $-1 -47.4334072166055094 55.9747745019159666 -1.161745037217987058e-14 #
edge $-1 $48 -4.043252316289337491e-16 $49 3.141592653589792228 $77 $128 forward 7 unknown #
coedge $-1 $83 $82 $129 $130 forward $84 $-1 #
face $-1 $131 $84 $2 $-1 $132 reversed single #
coedge $-1 $129 $129 $86 $114 reversed $133 $-1 #
edge $-1 $115 0 $117 3.141592653589792228 $113 $134 forward 7 unknown #
vertex $-1 $130 $135 #
straight-curve $-1 12.5 0 1.530757942277971573e-15 0 10 0 I I #
vertex $-1 $130 $136 #
straight-curve $-1 -12.5 0 0 0 10 0 I I #
cone-surface $-1 0 0 0 0 1 0 -12.5 0 0 1 I I 0 1 12.5 forward I I I I #
torus-surface $-1 1.776356839400250465e-14 17.50000000000014211 0 0 -1 0 26.50045345896301541 17.5 -1 0 0 forward_v I I I I #
edge $-1 $74 3.744948852795858192e-16 $75 3.141592653589793116 $104 $137 forward 7 unknown #
coedge $-1 $99 $97 $96 $123 reversed $64 $-1 #
edge $-1 $101 -1.010639055082365128e-15 $102 3.14159265358979134 $96 $138 forward 7 unknown #
ellipse-curve $-1 -29.99999999999996447 57.5 -7.347638122934261972e-15 2.449212707644755996e-16 -6.439680858947036822e-32 -1 -17.43340721660554493 -1.525225498084035181 -4.269812249245608613e-15 1 I I #
ellipse-curve $-1 30.00000000000003553 57.5 3.673819061467130986e-15 -1.224606353822377998e-16 -3.219840429473518411e-32 1 17.43340721660554493 -1.525225498084035181 2.134906124622804307e-15 1 I I #
point $-1 30.00000000000003908 75 3.673819061467132563e-15 #
point $-1 -30.00000000000003553 75 -2.664535259100375697e-14 #
ellipse-curve $-1 1.776356839400250465e-14 15.97477450191576054 0 0 1 0 43.93386067556853192 0 -1.238339990087771824e-14 1 I I #
coedge $-1 $113 $113 $111 $130 reversed $133 $-1 #
edge $-1 $117 0 $115 3.141592653589792228 $129 $139 forward 7 unknown #
face $-1 $-1 $133 $2 $-1 $140 reversed single #
cone-surface $-1 0 0 0 0 1 0 -12.5 0 0 1 I I 0 1 12.5 forward I I I I #
loop $-1 $-1 $113 $131 #
ellipse-curve $-1 0 35.00000000000014211 4.996003610813204432e-15 0 1 0 12.5 0 -4.996003610813204432e-15 1 I I #
point $-1 12.5 35.00000000000014211 0 #
point $-1 -12.5 35.00000000000014211 0 #
ellipse-curve $-1 3.552713678800500929e-14 55.9747745019159666 0 0 1 0 47.43340721660554493 0 5.808725186089935292e-15 1 I I #
ellipse-curve $-1 3.552713678800500929e-14 75 0 0 1 0 29.99999999999992895 0 -2.664535259100375697e-14 1 I I #
ellipse-curve $-1 0 35.00000000000014211 -5.551115123125782702e-15 0 1 0 -12.5 0 5.551115123125782702e-15 1 I I #
plane-surface $-1 0 35.00000000000014211 0 0 1 0 -10 0 0 forward_v I I I I #
End-of-ACIS-data 