700 0 2 0           
24 FBMach with ACIS - 7.0.3 13 ACIS 7.0.3 NT 24 Thu May 16 15:48:36 2002 
1 9.9999999999999995e-007 1e-010 
body $2 -1 $-1 $3 $-1 $4 #
bdycol-kcp $-1 -1 1 2 $5 $6 #
model_id-kcp-attrib $-1 -1 $-1 $-1 $0 1 1021578515 1021578516 -1811546111 1 #
lump $-1 -1 $-1 $-1 $7 $0 #
transform $-1 -1 1 0 0 0 1 0 0 0 1 0 0 0 1 rotate no_reflect no_shear #
body $8 -1 $-1 $9 $-1 $10 #
body $11 -1 $-1 $12 $-1 $13 #
shell $-1 -1 $-1 $-1 $-1 $14 $-1 $3 #
model_id-kcp-attrib $-1 -1 $-1 $-1 $5 1 1021578515 1021578516 -1811546110 1 #
lump $-1 -1 $-1 $-1 $15 $5 #
transform $-1 -1 1 0 0 0 1 0 0 0 1 3.5527136788005009e-014 37.499999999999929 0 1 no_rotate no_reflect no_shear #
rgb_color-st-attrib $-1 -1 $16 $-1 $6 0 0 1 #
lump $-1 -1 $-1 $-1 $17 $6 #
transform $-1 -1 1 0 0 0 1 0 0 0 1 3.5527136788005009e-014 37.499999999999929 0 1 no_rotate no_reflect no_shear #
face $18 -1 $-1 $19 $20 $7 $-1 $21 forward single #
shell $-1 -1 $-1 $-1 $-1 $22 $-1 $9 #
model_id-kcp-attrib $-1 -1 $-1 $11 $6 1 1021578515 1021578516 -1798438909 1 #
shell $-1 -1 $-1 $-1 $-1 $23 $-1 $12 #
model_id-kcp-attrib $-1 -1 $-1 $-1 $14 1 1021578515 1021578516 -1811546111 2 #
face $24 -1 $-1 $25 $26 $7 $-1 $27 forward single #
loop $-1 -1 $-1 $28 $29 $14 #
plane-surface $-1 -1 $-1 0 0 0 0 -1 0 -10 0 0 forward_v I I I I #
face $-1 -1 $-1 $30 $31 $15 $-1 $32 forward single #
face $-1 -1 $-1 $33 $34 $17 $-1 $35 forward single #
model_id-kcp-attrib $-1 -1 $-1 $-1 $19 1 1021578515 1021578516 -1811546111 3 #
face $36 -1 $-1 $37 $38 $7 $-1 $39 forward single #
loop $-1 -1 $-1 $-1 $40 $19 #
torus-surface $-1 -1 $-1 1.7763568394002505e-014 17.500000000000142 0 0 -1 0 26.500453458963015 17.5 -1 0 0 forward_v I I I I #
loop $-1 -1 $-1 $-1 $41 $14 #
coedge $-1 -1 $-1 $42 $42 $43 $44 forward $20 $-1 #
face $-1 -1 $-1 $45 $46 $15 $-1 $47 reversed single #
loop $-1 -1 $-1 $-1 $48 $22 #
plane-surface $-1 -1 $-1 0 0 47.5 0 0 1 1 0 0 forward_v I I I I #
face $-1 -1 $-1 $49 $50 $17 $-1 $51 reversed single #
loop $-1 -1 $-1 $52 $53 $23 #
cone-surface $-1 -1 $-1 -3.5527136788005009e-014 -2.4999999999997726 0 0 -1 0 -12.5 0 0 1 I I 0 1 12.5 forward I I I I #
model_id-kcp-attrib $-1 -1 $-1 $-1 $25 1 1021578515 1021578516 -1811546111 4 #
face $54 -1 $-1 $55 $56 $7 $-1 $57 forward single #
loop $-1 -1 $-1 $-1 $58 $25 #
cone-surface $-1 -1 $-1 0 -476.19155088206014 -1.7763568394002505e-014 0 -1 0 -0.87488663525924426 0 0 1 I I -0.087155742747658596 0.99619469809174555 0.87488663525924426 forward I I I I #
coedge $-1 -1 $-1 $59 $60 $61 $62 forward $26 $-1 #
coedge $-1 -1 $-1 $63 $63 $64 $65 forward $28 $-1 #
coedge $-1 -1 $-1 $29 $29 $66 $67 reversed $20 $-1 #
coedge $-1 -1 $-1 $60 $59 $29 $44 reversed $26 $-1 #
edge $68 -1 $-1 $69 3.5945439759691926e-032 $70 3.1415926535897931 $29 $71 forward @7 unknown #
face $72 -1 $-1 $73 $74 $15 $-1 $75 reversed single #
loop $-1 -1 $-1 $-1 $76 $30 #
plane-surface $-1 -1 $-1 0 0 -47.5 0 0 1 1 0 0 forward_v I I I I #
coedge $-1 -1 $-1 $77 $78 $79 $80 forward $31 $-1 #
face $-1 -1 $-1 $-1 $81 $17 $-1 $82 forward single #
loop $-1 -1 $-1 $-1 $83 $33 #
plane-surface $-1 -1 $-1 -3.5688623773405037e-014 -37.499999999999915 0 0 1 0 0 0 1 forward_v I I I I #
loop $-1 -1 $-1 $-1 $84 $23 #
coedge $-1 -1 $-1 $53 $53 $83 $85 forward $34 $-1 #
model_id-kcp-attrib $-1 -1 $-1 $-1 $37 1 1021578515 1021578516 -1811546111 5 #
face $86 -1 $-1 $87 $88 $7 $-1 $89 reversed single #
loop $-1 -1 $-1 $-1 $90 $37 #
torus-surface $-1 -1 $-1 3.5527136788005009e-014 57.5 0 0 -1 0 30 17.5 -1 0 0 forward_v I I I I #
coedge $-1 -1 $-1 $91 $92 $93 $94 forward $38 $-1 #
coedge $-1 -1 $-1 $43 $40 $95 $96 reversed $26 $-1 #
coedge $-1 -1 $-1 $40 $43 $97 $98 forward $26 $-1 #
coedge $-1 -1 $-1 $92 $91 $40 $62 reversed $38 $-1 #
edge $-1 -1 $-1 $99 4.0432523162893375e-016 $100 3.141592653589794 $40 $101 forward @7 unknown #
coedge $-1 -1 $-1 $41 $41 $102 $103 forward $28 $-1 #
coedge $-1 -1 $-1 $104 $105 $41 $65 reversed $106 $-1 #
edge $107 -1 $-1 $108 0 $109 3.1415926535897931 $41 $110 forward @7 unknown #
coedge $-1 -1 $-1 $95 $97 $42 $67 forward $111 $-1 #
edge $112 -1 $-1 $69 0 $70 3.1415926535897931 $42 $113 forward @7 unknown #
attrib_edge_convexity-kcp-attrib $-1 -1 $114 $-1 $44 3 #
vertex $-1 -1 $-1 $67 $115 #
vertex $-1 -1 $-1 $67 $116 #
ellipse-curve $-1 -1 $-1 1.7763568394002505e-014 0 -1.1102230246251565e-015 5.362494923797462e-015 -1 8.8135353410033611e-031 26.500453458963015 1.4210854715202004e-013 4.3554853931271868e-015 1 I I #
model_id-kcp-attrib $-1 -1 $-1 $-1 $45 1 1021578515 1021578516 -1811546110 2 #
face $-1 -1 $-1 $117 $118 $15 $-1 $119 reversed single #
loop $-1 -1 $-1 $-1 $120 $45 #
plane-surface $-1 -1 $-1 0 -37.500000000000071 0 0 1 0 0 0 1 forward_v I I I I #
coedge $-1 -1 $-1 $121 $122 $123 $124 forward $46 $-1 #
coedge $-1 -1 $-1 $125 $48 $126 $127 forward $31 $-1 #
coedge $-1 -1 $-1 $48 $125 $128 $129 forward $31 $-1 #
coedge $-1 -1 $-1 $130 $131 $48 $80 reversed $132 $-1 #
edge $-1 -1 $-1 $133 -37.500000000000071 $134 37.500000000000071 $79 $135 forward @7 unknown #
loop $-1 -1 $-1 $-1 $136 $49 #
plane-surface $-1 -1 $-1 -3.5688623773405037e-014 -2.4999999999997726 0 0 1 0 0 0 1 forward_v I I I I #
coedge $-1 -1 $-1 $83 $83 $53 $85 reversed $50 $-1 #
coedge $-1 -1 $-1 $84 $84 $136 $137 reversed $52 $-1 #
edge $-1 -1 $-1 $138 -3.1415926535897931 $138 3.1415926535897931 $53 $139 forward @7 unknown #
model_id-kcp-attrib $-1 -1 $-1 $-1 $55 1 1021578515 1021578516 -1811546111 6 #
face $140 -1 $-1 $141 $142 $7 $-1 $143 forward single #
loop $-1 -1 $-1 $-1 $144 $55 #
plane-surface $-1 -1 $-1 -3.5527136788005009e-014 75 -2.6645352591003757e-014 0 -1 0 -10 0 0 forward_v I I I I #
coedge $-1 -1 $-1 $145 $146 $144 $147 forward $56 $-1 #
coedge $-1 -1 $-1 $61 $58 $148 $149 reversed $38 $-1 #
coedge $-1 -1 $-1 $58 $61 $150 $151 forward $38 $-1 #
coedge $-1 -1 $-1 $146 $145 $58 $94 reversed $56 $-1 #
edge $-1 -1 $-1 $152 -3.7449488527958582e-016 $153 3.1415926535897931 $58 $154 forward @7 unknown #
coedge $-1 -1 $-1 $155 $66 $59 $96 forward $111 $-1 #
edge $-1 -1 $-1 $70 -1.0150610510858565e-016 $100 1.4835298641951582 $59 $156 forward @7 unknown #
coedge $-1 -1 $-1 $66 $155 $60 $98 reversed $111 $-1 #
edge $-1 -1 $-1 $69 -1.0150610510858565e-016 $99 1.4835298641951788 $60 $157 forward @7 unknown #
vertex $-1 -1 $-1 $98 $158 #
vertex $-1 -1 $-1 $96 $159 #
ellipse-curve $-1 -1 $-1 1.7763568394002505e-014 15.974774501915761 0 0 -1 0 43.933860675568532 0 -1.2383399900877718e-014 1 I I #
coedge $-1 -1 $-1 $160 $161 $63 $103 reversed $162 $-1 #
edge $163 -1 $-1 $109 0 $108 3.1415926535897931 $63 $164 forward @7 unknown #
coedge $-1 -1 $-1 $165 $64 $161 $166 forward $106 $-1 #
coedge $-1 -1 $-1 $64 $165 $160 $167 reversed $106 $-1 #
loop $-1 -1 $-1 $-1 $104 $168 #
attrib_edge_convexity-kcp-attrib $-1 -1 $169 $-1 $65 1 #
vertex $-1 -1 $-1 $103 $170 #
vertex $-1 -1 $-1 $103 $171 #
ellipse-curve $-1 -1 $-1 0 0 0 0 1 0 12.5 0 0 1 I I #
loop $-1 -1 $-1 $-1 $66 $172 #
attrib_edge_convexity-kcp-attrib $-1 -1 $173 $-1 $67 3 #
ellipse-curve $-1 -1 $-1 1.5543122344752192e-014 0 -2.2204460492503131e-015 -5.362494923797462e-015 1 -1.1060125325984108e-030 26.500453458963015 1.4210854715202004e-013 5.4657084177523433e-015 1 I I #
convexity-sys-attrib $-1 -1 $-1 $68 $44 #
point $-1 -1 $-1 26.50045345896303 1.4210854715202004e-013 3.2452623685020302e-015 #
point $-1 -1 $-1 -26.500453458962994 1.4210854715202004e-013 -6.4905247370040604e-015 #
face $174 -1 $-1 $175 $176 $15 $-1 $177 reversed single #
loop $-1 -1 $-1 $-1 $178 $73 #
plane-surface $-1 -1 $-1 -47.5 0 0 1 0 0 0 0 -1 forward_v I I I I #
coedge $-1 -1 $-1 $179 $128 $180 $181 forward $74 $-1 #
coedge $-1 -1 $-1 $182 $76 $179 $183 forward $46 $-1 #
coedge $-1 -1 $-1 $76 $182 $184 $185 forward $46 $-1 #
coedge $-1 -1 $-1 $131 $130 $76 $124 reversed $132 $-1 #
edge $-1 -1 $-1 $186 -37.500000000000071 $187 37.500000000000071 $123 $188 forward @7 unknown #
coedge $-1 -1 $-1 $78 $77 $189 $190 forward $31 $-1 #
coedge $-1 -1 $-1 $191 $192 $77 $127 reversed $176 $-1 #
edge $-1 -1 $-1 $134 -47.5 $193 47.5 $126 $194 forward @7 unknown #
coedge $-1 -1 $-1 $120 $195 $78 $129 reversed $74 $-1 #
edge $-1 -1 $-1 $196 -47.5 $133 47.5 $128 $197 forward @7 unknown #
coedge $-1 -1 $-1 $123 $79 $195 $198 forward $132 $-1 #
coedge $-1 -1 $-1 $79 $123 $191 $199 reversed $132 $-1 #
loop $-1 -1 $-1 $-1 $130 $175 #
vertex $-1 -1 $-1 $80 $200 #
vertex $-1 -1 $-1 $80 $201 #
straight-curve $-1 -1 $-1 47.5 0 47.5 0 1 0 I I #
coedge $-1 -1 $-1 $136 $136 $84 $137 forward $81 $-1 #
edge $202 -1 $-1 $203 0 $203 6.2831853071795862 $84 $204 forward @7 unknown #
vertex $-1 -1 $-1 $85 $205 #
ellipse-curve $-1 -1 $-1 -3.5527136788005009e-014 -37.499999999999915 0 0 1 0 -12.5 0 0 1 I I #
model_id-kcp-attrib $-1 -1 $-1 $-1 $87 1 1021578515 1021578516 -1811546111 7 #
face $206 -1 $-1 $172 $207 $7 $-1 $208 forward single #
loop $-1 -1 $-1 $-1 $209 $87 #
torus-surface $-1 -1 $-1 3.5527136788005009e-014 57.5 0 0 -1 0 30 17.5 -1 0 0 forward_v I I I I #
coedge $-1 -1 $-1 $210 $210 $90 $147 reversed $88 $-1 #
coedge $-1 -1 $-1 $93 $90 $211 $212 reversed $56 $-1 #
coedge $-1 -1 $-1 $90 $93 $213 $214 forward $56 $-1 #
edge $-1 -1 $-1 $215 1.0106390550823651e-015 $216 3.1415926535897949 $90 $217 forward @7 unknown #
coedge $-1 -1 $-1 $218 $219 $91 $149 forward $207 $-1 #
edge $-1 -1 $-1 $100 0 $153 4.0152793501734099 $91 $220 forward @7 unknown #
coedge $-1 -1 $-1 $219 $218 $92 $151 reversed $207 $-1 #
edge $-1 -1 $-1 $99 3.6586383338701191e-014 $152 4.0152793501733894 $92 $221 forward @7 unknown #
vertex $-1 -1 $-1 $151 $222 #
vertex $-1 -1 $-1 $149 $223 #
ellipse-curve $-1 -1 $-1 3.5527136788005009e-014 55.974774501915967 0 0 -1 0 47.433407216605545 0 5.8087251860899353e-015 1 I I #
coedge $-1 -1 $-1 $97 $95 $219 $224 reversed $111 $-1 #
ellipse-curve $-1 -1 $-1 -26.500453458962987 17.500000000000156 -6.4905247370040541e-015 2.449212707644756e-016 2.1377822382698292e-031 -1 -8.8817841970012523e-015 -17.500000000000014 -5.9164567891575885e-030 1 I I #
ellipse-curve $-1 -1 $-1 26.500453458963023 17.500000000000156 3.2452623685020271e-015 -1.224606353822378e-016 1.0688911191349146e-031 1 8.8817841970012523e-015 -17.500000000000014 2.9582283945787943e-030 1 I I #
point $-1 -1 $-1 43.933860675568582 15.974774501916125 5.3801684931248337e-015 #
point $-1 -1 $-1 -43.933860675568546 15.974774501915761 -2.8523905380252077e-014 #
coedge $-1 -1 $-1 $225 $102 $105 $167 forward $162 $-1 #
coedge $-1 -1 $-1 $102 $225 $104 $166 reversed $162 $-1 #
loop $-1 -1 $-1 $-1 $160 $226 #
attrib_edge_convexity-kcp-attrib $-1 -1 $227 $-1 $103 1 #
ellipse-curve $-1 -1 $-1 0 0 0 0 1 0 -12.5 0 0 1 I I #
coedge $-1 -1 $-1 $105 $104 $228 $229 forward $106 $-1 #
edge $-1 -1 $-1 $108 0 $230 3.5000000000000142 $161 $231 forward @7 unknown #
edge $-1 -1 $-1 $109 0 $232 3.5000000000000142 $160 $233 forward @7 unknown #
face $234 -1 $-1 $226 $106 $7 $-1 $235 reversed single #
convexity-sys-attrib $-1 -1 $-1 $107 $65 #
point $-1 -1 $-1 12.5 0 0 #
point $-1 -1 $-1 -12.5 0 0 #
face $236 -1 $-1 $168 $111 $7 $-1 $237 forward single #
convexity-sys-attrib $-1 -1 $-1 $112 $67 #
model_id-kcp-attrib $-1 -1 $-1 $-1 $117 1 1021578515 1021578516 -1811546110 3 #
face $-1 -1 $-1 $-1 $132 $15 $-1 $238 reversed single #
loop $-1 -1 $-1 $-1 $191 $117 #
plane-surface $-1 -1 $-1 0 37.500000000000071 0 0 -1 0 0 0 -1 forward_v I I I I #
coedge $-1 -1 $-1 $239 $189 $192 $240 forward $118 $-1 #
coedge $-1 -1 $-1 $195 $120 $121 $183 reversed $74 $-1 #
coedge $-1 -1 $-1 $189 $239 $120 $181 reversed $118 $-1 #
edge $-1 -1 $-1 $196 -47.5 $241 47.5 $180 $242 forward @7 unknown #
coedge $-1 -1 $-1 $122 $121 $239 $243 forward $46 $-1 #
edge $-1 -1 $-1 $187 -47.5 $241 47.5 $179 $244 forward @7 unknown #
coedge $-1 -1 $-1 $192 $191 $122 $185 reversed $176 $-1 #
edge $-1 -1 $-1 $245 -47.5 $186 47.5 $184 $246 forward @7 unknown #
vertex $-1 -1 $-1 $124 $247 #
vertex $-1 -1 $-1 $198 $248 #
straight-curve $-1 -1 $-1 47.5 0 -47.5 0 -1 0 I I #
coedge $-1 -1 $-1 $178 $180 $125 $190 reversed $118 $-1 #
edge $-1 -1 $-1 $193 -37.500000000000071 $196 37.500000000000071 $189 $249 forward @7 unknown #
coedge $-1 -1 $-1 $184 $126 $131 $199 forward $176 $-1 #
coedge $-1 -1 $-1 $126 $184 $178 $240 reversed $176 $-1 #
vertex $-1 -1 $-1 $127 $250 #
straight-curve $-1 -1 $-1 0 37.500000000000071 47.5 -1 0 0 I I #
coedge $-1 -1 $-1 $128 $179 $130 $198 reversed $74 $-1 #
vertex $-1 -1 $-1 $190 $251 #
straight-curve $-1 -1 $-1 0 -37.500000000000071 47.5 1 0 0 I I #
edge $-1 -1 $-1 $133 -47.5 $187 47.5 $130 $252 forward @7 unknown #
edge $-1 -1 $-1 $134 -47.5 $186 47.5 $131 $253 forward @7 unknown #
point $-1 -1 $-1 47.5 -37.500000000000071 47.5 #
point $-1 -1 $-1 47.5 37.500000000000071 47.5 #
convexity-sys-attrib $-1 -1 $-1 $-1 $137 #
vertex $-1 -1 $-1 $137 $254 #
ellipse-curve $-1 -1 $-1 -3.5527136788005009e-014 -2.4999999999997726 0 0 1 0 -12.5 0 0 1 I I #
point $-1 -1 $-1 12.499999999999964 -37.499999999999929 0 #
model_id-kcp-attrib $-1 -1 $-1 $-1 $141 1 1021578515 1021578516 -1811546111 8 #
loop $-1 -1 $-1 $-1 $219 $141 #
cone-surface $-1 -1 $-1 0 -476.19155088206014 -1.7763568394002505e-014 0 -1 0 -0.87488663525924426 0 0 1 I I -0.087155742747658596 0.99619469809174555 0.87488663525924426 forward I I I I #
coedge $-1 -1 $-1 $211 $213 $218 $255 forward $142 $-1 #
coedge $-1 -1 $-1 $144 $144 $256 $257 forward $88 $-1 #
coedge $-1 -1 $-1 $256 $209 $145 $212 forward $142 $-1 #
edge $-1 -1 $-1 $153 1.0440627954025961e-016 $216 1.65806278939461 $145 $258 forward @7 unknown #
coedge $-1 -1 $-1 $209 $256 $146 $214 reversed $142 $-1 #
edge $-1 -1 $-1 $152 -1.1913916565316318e-014 $215 1.658062789394614 $146 $259 forward @7 unknown #
vertex $-1 -1 $-1 $214 $260 #
vertex $-1 -1 $-1 $212 $261 #
ellipse-curve $-1 -1 $-1 3.5527136788005009e-014 75 0 0 -1 0 29.999999999999929 0 -2.6645352591003757e-014 1 I I #
coedge $-1 -1 $-1 $150 $148 $209 $255 reversed $207 $-1 #
coedge $-1 -1 $-1 $148 $150 $155 $224 forward $207 $-1 #
straight-curve $-1 -1 $-1 -43.933860675568546 15.974774501915761 -2.8523905380252077e-014 -0.87155742747658604 9.961946980917455 -2.1346295268178078e-016 I I #
straight-curve $-1 -1 $-1 43.933860675568546 15.974774501915761 -1.2383399900877718e-014 0.87155742747658604 9.961946980917455 1.0673147634089039e-016 I I #
point $-1 -1 $-1 47.433407216605524 55.974774501915761 -1.195484320791262e-014 #
point $-1 -1 $-1 -47.433407216605509 55.974774501915967 -1.1617450372179871e-014 #
edge $-1 -1 $-1 $99 -4.0432523162893375e-016 $100 3.1415926535897922 $155 $262 forward @7 unknown #
coedge $-1 -1 $-1 $161 $160 $263 $264 forward $162 $-1 #
face $265 -1 $-1 $266 $162 $7 $-1 $267 reversed single #
convexity-sys-attrib $-1 -1 $-1 $163 $103 #
coedge $-1 -1 $-1 $263 $263 $165 $229 reversed $268 $-1 #
edge $269 -1 $-1 $230 0 $232 3.1415926535897922 $228 $270 forward @7 unknown #
vertex $-1 -1 $-1 $264 $271 #
straight-curve $-1 -1 $-1 12.5 0 1.5307579422779716e-015 0 10 0 I I #
vertex $-1 -1 $-1 $264 $272 #
straight-curve $-1 -1 $-1 -12.5 0 0 0 10 0 I I #
model_id-kcp-attrib $-1 -1 $-1 $-1 $168 1 1021578515 1021578516 -1811546111 10 #
cone-surface $-1 -1 $-1 0 0 0 0 1 0 -12.5 0 0 1 I I 0 1 12.5 forward I I I I #
model_id-kcp-attrib $-1 -1 $-1 $-1 $172 1 1021578515 1021578516 -1811546111 9 #
torus-surface $-1 -1 $-1 1.7763568394002505e-014 17.500000000000142 0 0 -1 0 26.500453458963015 17.5 -1 0 0 forward_v I I I I #
plane-surface $-1 -1 $-1 47.5 0 0 -1 0 0 0 0 1 forward_v I I I I #
coedge $-1 -1 $-1 $180 $178 $182 $243 reversed $118 $-1 #
edge $-1 -1 $-1 $193 -47.5 $245 47.5 $192 $273 forward @7 unknown #
vertex $-1 -1 $-1 $243 $274 #
straight-curve $-1 -1 $-1 -47.5 -37.500000000000071 0 0 0 -1 I I #
edge $-1 -1 $-1 $241 -37.500000000000071 $245 37.500000000000071 $239 $275 forward @7 unknown #
straight-curve $-1 -1 $-1 0 -37.500000000000071 -47.5 -1 0 0 I I #
vertex $-1 -1 $-1 $185 $276 #
straight-curve $-1 -1 $-1 0 37.500000000000071 -47.5 1 0 0 I I #
point $-1 -1 $-1 47.5 37.500000000000071 -47.5 #
point $-1 -1 $-1 47.5 -37.500000000000071 -47.5 #
straight-curve $-1 -1 $-1 -47.5 0 47.5 0 -1 0 I I #
point $-1 -1 $-1 -47.5 37.500000000000071 47.5 #
point $-1 -1 $-1 -47.5 -37.500000000000071 47.5 #
straight-curve $-1 -1 $-1 47.5 -37.500000000000071 0 0 0 -1 I I #
straight-curve $-1 -1 $-1 47.5 37.500000000000071 0 0 0 -1 I I #
point $-1 -1 $-1 -12.500000000000036 -2.4999999999997868 0 #
edge $-1 -1 $-1 $152 3.7449488527958582e-016 $153 3.1415926535897931 $218 $277 forward @7 unknown #
coedge $-1 -1 $-1 $213 $211 $210 $257 reversed $142 $-1 #
edge $-1 -1 $-1 $215 -1.0106390550823651e-015 $216 3.1415926535897913 $210 $278 forward @7 unknown #
ellipse-curve $-1 -1 $-1 -29.999999999999964 57.5 -7.347638122934262e-015 2.449212707644756e-016 -6.4396808589470368e-032 -1 -17.433407216605545 -1.5252254980840352 -4.2698122492456086e-015 1 I I #
ellipse-curve $-1 -1 $-1 30.000000000000036 57.5 3.673819061467131e-015 -1.224606353822378e-016 -3.2198404294735184e-032 1 17.433407216605545 -1.5252254980840352 2.1349061246228043e-015 1 I I #
point $-1 -1 $-1 30.000000000000039 75 3.6738190614671326e-015 #
point $-1 -1 $-1 -30.000000000000036 75 -2.6645352591003757e-014 #
ellipse-curve $-1 -1 $-1 1.7763568394002505e-014 15.974774501915761 0 0 1 0 43.933860675568532 0 -1.2383399900877718e-014 1 I I #
coedge $-1 -1 $-1 $228 $228 $225 $264 reversed $268 $-1 #
edge $279 -1 $-1 $232 0 $230 3.1415926535897922 $263 $280 forward @7 unknown #
model_id-kcp-attrib $-1 -1 $-1 $-1 $226 1 1021578515 1021578516 -1811546111 11 #
face $281 -1 $-1 $-1 $268 $7 $-1 $282 reversed single #
cone-surface $-1 -1 $-1 0 0 0 0 1 0 -12.5 0 0 1 I I 0 1 12.5 forward I I I I #
loop $-1 -1 $-1 $-1 $228 $266 #
attrib_edge_convexity-kcp-attrib $-1 -1 $283 $-1 $229 2 #
ellipse-curve $-1 -1 $-1 0 35.000000000000142 4.9960036108132044e-015 0 1 0 12.5 0 -4.9960036108132044e-015 1 I I #
point $-1 -1 $-1 12.5 35.000000000000142 0 #
point $-1 -1 $-1 -12.5 35.000000000000142 0 #
straight-curve $-1 -1 $-1 -47.5 37.500000000000071 0 0 0 -1 I I #
point $-1 -1 $-1 -47.5 -37.500000000000071 -47.5 #
straight-curve $-1 -1 $-1 -47.5 0 -47.5 0 1 0 I I #
point $-1 -1 $-1 -47.5 37.500000000000071 -47.5 #
ellipse-curve $-1 -1 $-1 3.5527136788005009e-014 55.974774501915967 0 0 1 0 47.433407216605545 0 5.8087251860899353e-015 1 I I #
ellipse-curve $-1 -1 $-1 3.5527136788005009e-014 75 0 0 1 0 29.999999999999929 0 -2.6645352591003757e-014 1 I I #
attrib_edge_convexity-kcp-attrib $-1 -1 $284 $-1 $264 2 #
ellipse-curve $-1 -1 $-1 0 35.000000000000142 -5.5511151231257827e-015 0 1 0 -12.5 0 5.5511151231257827e-015 1 I I #
model_id-kcp-attrib $-1 -1 $-1 $-1 $266 1 1021578515 1021578516 -1811546111 12 #
plane-surface $-1 -1 $-1 0 35.000000000000142 0 0 1 0 -10 0 0 forward_v I I I I #
convexity-sys-attrib $-1 -1 $-1 $269 $229 #
convexity-sys-attrib $-1 -1 $-1 $279 $264 #
End-of-ACIS-data 