600 0 1 0           
95 GICL ACIS Healer - Source: /gicl/data5/repository/PTC/V18/asmdes18/parts/outer_bb.prt.sat - 6 0 18 ACIS 6.0.3 Solaris 24 Sat Apr 13 23:03:45 2002 
1 9.999999999999999547e-07 1.000000000000000036e-10 
body $-1 $1 $-1 $-1 #
lump $-1 $-1 $2 $0 #
shell $-1 $-1 $-1 $3 $-1 $1 #
face $-1 $4 $5 $2 $-1 $6 forward single #
face $-1 $7 $8 $2 $-1 $9 forward single #
loop $-1 $10 $11 $3 #
plane-surface $-1 0 0 0 0 -1 0 -10 0 0 forward_v I I I I #
face $-1 $12 $13 $2 $-1 $14 forward single #
loop $-1 $-1 $15 $4 #
cone-surface $-1 0 -115.573683548743702 0 0 -1 0 -5.77350269189625287 0 0 1 I I -0.4999999999999996669 0.8660254037844388186 5.77350269189625287 forward I I I I #
loop $-1 $-1 $16 $3 #
coedge $-1 $17 $17 $15 $18 reversed $5 $-1 #
face $-1 $19 $20 $2 $-1 $21 forward single #
loop $-1 $-1 $22 $7 #
cone-surface $-1 0 -115.573683548743702 0 0 -1 0 -5.77350269189625287 0 0 1 I I -0.4999999999999996669 0.8660254037844388186 5.77350269189625287 forward I I I I #
coedge $-1 $23 $24 $11 $18 forward $8 $-1 #
coedge $-1 $25 $25 $26 $27 reversed $10 $-1 #
coedge $-1 $11 $11 $28 $29 forward $5 $-1 #
edge $-1 $30 0 $31 3.141592653589793116 $11 $32 forward 7 unknown #
face $-1 $33 $34 $2 $-1 $35 forward single #
loop $-1 $-1 $36 $12 #
cone-surface $-1 0 41.99999999999999289 0 0 -1 0 -77.5 0 0 1 I I 0 1 77.5 forward I I I I #
coedge $-1 $37 $38 $39 $40 forward $13 $-1 #
coedge $-1 $41 $15 $37 $42 forward $8 $-1 #
coedge $-1 $15 $41 $38 $43 reversed $8 $-1 #
coedge $-1 $16 $16 $44 $45 forward $10 $-1 #
coedge $-1 $46 $47 $16 $27 forward $48 $-1 #
edge $-1 $49 0 $50 3.141592653589793116 $16 $51 forward 7 unknown #
coedge $-1 $38 $37 $17 $29 reversed $13 $-1 #
edge $-1 $30 0 $31 3.141592653589793116 $17 $52 forward 7 unknown #
vertex $-1 $29 $53 #
vertex $-1 $29 $54 #
ellipse-curve $-1 0 0 -6.661338147750939243e-15 0 1 0 72.49999999999998579 0 1.553973421296317436e-14 1 I I #
face $-1 $55 $56 $2 $-1 $57 reversed single #
loop $-1 $-1 $58 $19 #
cone-surface $-1 0 155.573683548743702 0 0 1 0 -5.77350269189625287 0 0 1 I I -0.4999999999999996669 0.8660254037844388186 5.77350269189625287 forward I I I I #
coedge $-1 $59 $60 $61 $62 forward $20 $-1 #
coedge $-1 $28 $22 $23 $42 reversed $13 $-1 #
coedge $-1 $22 $28 $24 $43 forward $13 $-1 #
coedge $-1 $60 $59 $22 $40 reversed $20 $-1 #
edge $-1 $63 0 $64 3.141592653589793116 $22 $65 forward 7 unknown #
coedge $-1 $24 $23 $66 $67 reversed $8 $-1 #
edge $-1 $31 -2.17450804664209666e-31 $64 1.000000000000000222 $37 $68 forward 7 unknown #
edge $-1 $30 0 $63 1.000000000000000888 $38 $69 forward 7 unknown #
coedge $-1 $70 $71 $25 $45 reversed $72 $-1 #
edge $-1 $49 0 $50 3.141592653589793116 $25 $73 forward 7 unknown #
coedge $-1 $74 $26 $71 $75 reversed $48 $-1 #
coedge $-1 $26 $74 $70 $76 forward $48 $-1 #
loop $-1 $-1 $47 $77 #
vertex $-1 $45 $78 #
vertex $-1 $45 $79 #
ellipse-curve $-1 0 0 0 0 -1 0 62.5 0 0 1 I I #
ellipse-curve $-1 0 0 -6.661338147750939243e-15 0 -1 0 72.49999999999998579 0 1.553973421296317436e-14 1 I I #
point $-1 72.49999999999998579 0 8.878396065212235122e-15 #
point $-1 -72.49999999999998579 0 0 #
face $-1 $80 $81 $2 $-1 $82 reversed single #
loop $-1 $83 $84 $33 #
plane-surface $-1 0 40 0 0 -1 0 -10 0 0 forward_v I I I I #
coedge $-1 $85 $86 $87 $88 forward $34 $-1 #
coedge $-1 $39 $36 $89 $90 reversed $20 $-1 #
coedge $-1 $36 $39 $91 $92 forward $20 $-1 #
coedge $-1 $86 $85 $36 $62 reversed $34 $-1 #
edge $-1 $93 0 $94 3.141592653589793116 $36 $95 forward 7 unknown #
vertex $-1 $43 $96 #
vertex $-1 $42 $97 #
ellipse-curve $-1 4.440892098500626162e-15 8.660254037844383745 0 0 -1 0 77.5 0 9.490699242123423751e-15 1 I I #
coedge $-1 $89 $91 $41 $67 forward $98 $-1 #
edge $-1 $63 0 $64 3.141592653589793116 $41 $99 forward 7 unknown #
straight-curve $-1 -72.49999999999998579 0 -1.775679213042447024e-14 -5.000000000000004441 8.660254037844385522 -1.224606353822376272e-15 I I #
straight-curve $-1 72.49999999999998579 0 8.878396065212235122e-15 5.000000000000004441 8.660254037844385522 6.123031769111881361e-16 I I #
coedge $-1 $100 $44 $47 $76 reversed $72 $-1 #
coedge $-1 $44 $100 $46 $75 forward $72 $-1 #
loop $-1 $-1 $71 $101 #
ellipse-curve $-1 0 0 0 0 1 0 62.5 0 0 1 I I #
coedge $-1 $47 $46 $102 $103 reversed $48 $-1 #
edge $-1 $104 -6.217248937900876232e-16 $50 0.7752551286084101712 $46 $105 forward 7 unknown #
edge $-1 $106 -6.217248937900876232e-16 $49 0.7752551286084101712 $47 $107 forward 7 unknown #
face $-1 $108 $48 $2 $-1 $109 reversed single #
point $-1 62.5 0 0 #
point $-1 -62.5 0 0 #
face $-1 $110 $111 $2 $-1 $112 reversed single #
loop $-1 $-1 $113 $55 #
cone-surface $-1 0 -211.2435565298217455 0 0 -1 0 -2.679491924311223627 0 0 1 I I -0.2588190451025204619 0.9659258262890683122 2.679491924311223627 forward I I I I #
loop $-1 $-1 $87 $33 #
coedge $-1 $114 $114 $115 $116 reversed $56 $-1 #
coedge $-1 $61 $58 $117 $118 reversed $34 $-1 #
coedge $-1 $58 $61 $119 $120 forward $34 $-1 #
coedge $-1 $121 $121 $58 $88 reversed $83 $-1 #
edge $-1 $122 1.224606353822377505e-16 $123 3.141592653589793116 $58 $124 forward 7 unknown #
coedge $-1 $125 $66 $59 $90 forward $98 $-1 #
edge $-1 $64 0 $94 2.267949192431122363 $59 $126 forward 7 unknown #
coedge $-1 $66 $125 $60 $92 reversed $98 $-1 #
edge $-1 $63 8.881784197001252323e-16 $93 2.267949192431121475 $60 $127 forward 7 unknown #
vertex $-1 $92 $128 #
vertex $-1 $90 $129 #
ellipse-curve $-1 4.440892098500626162e-15 31.33974596215559671 0 1.14603667058080672e-16 -1 1.403443788506698713e-32 77.5 8.881784197001252323e-15 9.490699242123423751e-15 1 I I #
point $-1 77.5 8.660254037844392627 9.490699242123423751e-15 #
point $-1 -77.5 8.660254037844383745 -1.89813984842468475e-14 #
loop $-1 $-1 $66 $130 #
ellipse-curve $-1 -2.220446049250313081e-15 8.660254037844383745 -2.220446049250313081e-15 0 1 0 77.5 0 1.171114529137373683e-14 1 I I #
coedge $-1 $71 $70 $131 $132 reversed $72 $-1 #
face $-1 $77 $72 $2 $-1 $133 reversed single #
coedge $-1 $134 $135 $74 $103 forward $136 $-1 #
edge $-1 $106 0 $104 3.141592653589793116 $74 $137 forward 7 unknown #
vertex $-1 $103 $138 #
straight-curve $-1 -62.5 7.752551286084101712 -1.530757942277971573e-14 0 -10 0 I I #
vertex $-1 $103 $139 #
straight-curve $-1 62.5 7.752551286084101712 7.653789711389857864e-15 0 -10 0 I I #
face $-1 $130 $140 $2 $-1 $141 forward single #
cone-surface $-1 0 41.99999999999999289 0 0 -1 0 -62.5 0 0 1 I I 0 1 62.5 forward I I I I #
face $-1 $142 $136 $2 $-1 $143 reversed single #
loop $-1 $-1 $144 $80 #
cone-surface $-1 0 -211.2435565298217455 0 0 -1 0 -2.679491924311223627 0 0 1 I I -0.2588190451025204619 0.9659258262890683122 2.679491924311223627 forward I I I I #
coedge $-1 $115 $145 $146 $147 reversed $81 $-1 #
coedge $-1 $84 $84 $148 $149 forward $56 $-1 #
coedge $-1 $150 $113 $84 $116 forward $81 $-1 #
edge $-1 $151 0 $152 3.141592653589793116 $84 $153 forward 7 unknown #
coedge $-1 $154 $155 $85 $118 forward $140 $-1 #
edge $-1 $94 0 $123 1.000000000000000222 $85 $156 forward 7 unknown #
coedge $-1 $155 $154 $86 $120 reversed $140 $-1 #
edge $-1 $93 -9.23022089464110198e-16 $122 1.000000000000000888 $86 $157 forward 7 unknown #
coedge $-1 $87 $87 $154 $158 forward $83 $-1 #
vertex $-1 $120 $159 #
vertex $-1 $118 $160 #
ellipse-curve $-1 0 40 0 0 -1 0 72.5 0 0 1 I I #
coedge $-1 $91 $89 $155 $161 reversed $98 $-1 #
straight-curve $-1 -77.5 8.660254037844383745 -1.89813984842468475e-14 0 10 0 I I #
straight-curve $-1 77.5 8.660254037844383745 9.490699242123423751e-15 0 10 0 I I #
point $-1 77.5 31.33974596215559671 9.490699242123423751e-15 #
point $-1 -77.5 31.33974596215560737 -1.89813984842468475e-14 #
face $-1 $-1 $98 $2 $-1 $162 forward single #
coedge $-1 $163 $164 $100 $132 forward $165 $-1 #
edge $-1 $104 -2.449212707644754516e-16 $106 3.141592653589793116 $100 $166 forward 7 unknown #
cone-surface $-1 0 41.99999999999999289 0 0 -1 0 -62.5 0 0 1 I I 0 1 62.5 forward I I I I #
coedge $-1 $167 $102 $164 $168 forward $136 $-1 #
coedge $-1 $102 $167 $163 $169 reversed $136 $-1 #
loop $-1 $-1 $135 $110 #
ellipse-curve $-1 0 7.752551286084107929 0 0 -1 0 62.5 0 0 1 I I #
point $-1 -62.5 7.752551286084107929 7.653789711389857864e-15 #
point $-1 62.5 7.752551286084107929 0 #
loop $-1 $-1 $155 $108 #
cone-surface $-1 0 155.573683548743702 0 0 1 0 -5.77350269189625287 0 0 1 I I -0.4999999999999996669 0.8660254037844388186 5.77350269189625287 forward I I I I #
face $-1 $101 $165 $2 $-1 $170 reversed single #
torus-surface $-1 0 20 0 0 1 0 60 12.5 1 0 0 forward_v I I I I #
coedge $-1 $148 $171 $150 $172 reversed $111 $-1 #
coedge $-1 $113 $150 $173 $174 forward $81 $-1 #
coedge $-1 $171 $148 $113 $147 forward $111 $-1 #
edge $-1 $151 -0 $175 1.02382104769284199 $146 $176 forward 7 unknown #
coedge $-1 $146 $144 $114 $149 reversed $111 $-1 #
edge $-1 $151 0 $152 3.141592653589793116 $114 $177 forward 7 unknown #
coedge $-1 $145 $115 $144 $172 forward $81 $-1 #
vertex $-1 $149 $178 #
vertex $-1 $149 $179 #
ellipse-curve $-1 0 40 -6.661338147750939243e-15 5.075305255429285774e-16 1 1.104501170759708249e-31 70.00000000000001421 -3.552713678800500929e-14 1.523358262450758005e-14 1 I I #
coedge $-1 $119 $117 $121 $158 reversed $140 $-1 #
coedge $-1 $117 $119 $125 $161 forward $140 $-1 #
straight-curve $-1 -77.5 31.33974596215560737 -1.89813984842468475e-14 5.000000000000004441 8.660254037844385522 1.224606353822376272e-15 I I #
straight-curve $-1 77.5 31.33974596215560737 9.490699242123423751e-15 -5.000000000000004441 8.660254037844385522 -6.123031769111881361e-16 I I #
edge $-1 $122 -1.224606353822377505e-16 $123 3.141592653589793116 $121 $180 forward 7 unknown #
point $-1 72.49999999999998579 40 8.878396065212235122e-15 #
point $-1 -72.5 40 0 #
edge $-1 $93 0 $94 3.141592653589793116 $125 $181 forward 7 unknown #
cone-surface $-1 0 41.99999999999999289 0 0 -1 0 -77.5 0 0 1 I I 0 1 77.5 forward I I I I #
coedge $-1 $173 $131 $135 $169 forward $165 $-1 #
coedge $-1 $131 $173 $134 $168 reversed $165 $-1 #
loop $-1 $-1 $164 $142 #
ellipse-curve $-1 0 7.752551286084107929 0 0 -1 0 -62.5 0 -7.653789711389857864e-15 1 I I #
coedge $-1 $135 $134 $171 $182 reversed $136 $-1 #
edge $-1 $104 2.938722844606513113e-33 $183 2.311635290595400072 $164 $184 forward 7 unknown #
edge $-1 $106 -2.27373675443232132e-17 $175 2.311635290595422276 $163 $185 forward 7 unknown #
torus-surface $-1 0 20 0 0 1 0 60 12.5 1 0 0 forward_v I I I I #
coedge $-1 $144 $146 $167 $182 forward $111 $-1 #
edge $-1 $152 1.086794116799334228e-31 $183 1.023821047692851094 $144 $186 forward 7 unknown #
coedge $-1 $164 $163 $145 $174 reversed $165 $-1 #
edge $-1 $183 -2.449212707644755009e-16 $175 3.141592653589793116 $145 $187 forward 7 unknown #
vertex $-1 $182 $188 #
straight-curve $-1 70.00000000000001421 39.99999999999996447 8.572244476756642385e-15 -2.588190451025209171 -9.6592582628906829 -3.169514471227872636e-16 I I #
ellipse-curve $-1 0 40 -6.661338147750939243e-15 -5.075305255429285774e-16 -1 -1.104501170759708249e-31 70.00000000000001421 -3.552713678800500929e-14 1.523358262450758005e-14 1 I I #
point $-1 70.00000000000001421 39.99999999999996447 8.572244476756642385e-15 #
point $-1 -70.00000000000001421 39.99999999999996447 0 #
ellipse-curve $-1 0 40 0 0 1 0 72.5 0 0 1 I I #
ellipse-curve $-1 -2.220446049250313081e-15 31.33974596215559671 -2.220446049250313081e-15 -1.14603667058080672e-16 1 -1.73179380108568375e-32 77.5 8.881784197001252323e-15 1.171114529137373683e-14 1 I I #
edge $-1 $175 0 $183 3.141592653589793116 $171 $189 forward 7 unknown #
vertex $-1 $182 $190 #
ellipse-curve $-1 -60 20.00000000000000355 7.347638122934263549e-15 -1.224606353822377258e-16 0 -1 -2.5 -12.24744871391589562 3.061515884555943146e-16 1 I I #
ellipse-curve $-1 60 19.99999999999999645 0 0 0 1 2.5 -12.24744871391588674 0 1 I I #
straight-curve $-1 -70.00000000000001421 39.99999999999996447 -1.714448895351328477e-14 2.58819045102520473 -9.659258262890684676 6.339028942455739356e-16 I I #
ellipse-curve $-1 0 30.11064808535143911 0 -1.714371594323084766e-15 -1 -2.099430347220648301e-31 -67.35015614080251112 1.154631945610162802e-13 -8.247742914095595877e-15 1 I I #
point $-1 67.35015614080251112 30.11064808535155635 0 #
ellipse-curve $-1 0 30.11064808535143911 0 1.714371594323084766e-15 -1 0 67.35015614080251112 1.154631945610162802e-13 0 1 I I #
point $-1 -67.35015614080273849 30.11064808535140003 8.247742914095622698e-15 #
End-of-ACIS-data 