700 0 2 0           
24 FBMach with ACIS - 7.0.3 13 ACIS 7.0.3 NT 24 Thu May 16 15:49:53 2002 
1 9.9999999999999995e-007 1e-010 
body $2 -1 $-1 $3 $-1 $4 #
bdycol-kcp $-1 -1 1 2 $5 $6 #
model_id-kcp-attrib $-1 -1 $-1 $-1 $0 1 1021578593 1021578593 965935105 1 #
lump $-1 -1 $-1 $-1 $7 $0 #
transform $-1 -1 1 0 0 0 1 0 0 0 1 0 0 0 1 rotate no_reflect no_shear #
body $8 -1 $-1 $9 $-1 $10 #
body $11 -1 $-1 $12 $-1 $13 #
shell $-1 -1 $-1 $-1 $-1 $14 $-1 $3 #
rgb_color-st-attrib $-1 -1 $15 $-1 $5 0.5 1 1 #
lump $-1 -1 $-1 $-1 $16 $5 #
transform $-1 -1 1 0 0 0 1 0 0 0 1 0 20.000000000000018 0 1 no_rotate no_reflect no_shear #
model_id-kcp-attrib $-1 -1 $-1 $-1 $6 1 1021578593 1021578593 966590466 1 #
lump $-1 -1 $-1 $-1 $17 $6 #
transform $-1 -1 1 0 0 0 1 0 0 0 1 0 20.000000000000018 0 1 no_rotate no_reflect no_shear #
face $18 -1 $-1 $19 $20 $7 $-1 $21 forward single #
model_id-kcp-attrib $-1 -1 $-1 $8 $5 1 1021578593 1021578593 957022211 1 #
shell $-1 -1 $-1 $-1 $-1 $22 $-1 $9 #
shell $-1 -1 $-1 $-1 $-1 $23 $-1 $12 #
model_id-kcp-attrib $-1 -1 $-1 $-1 $14 1 1021578593 1021578593 965935105 2 #
face $24 -1 $-1 $25 $26 $7 $-1 $27 forward single #
loop $-1 -1 $-1 $28 $29 $14 #
plane-surface $-1 -1 $-1 0 0 0 0 -1 0 -10 0 0 forward_v I I I I #
face $-1 -1 $-1 $30 $31 $16 $-1 $32 reversed single #
face $-1 -1 $-1 $33 $34 $17 $-1 $35 forward single #
model_id-kcp-attrib $-1 -1 $-1 $-1 $19 1 1021578593 1021578593 965935105 3 #
face $36 -1 $-1 $37 $38 $7 $-1 $39 forward single #
loop $-1 -1 $-1 $-1 $40 $19 #
cone-surface $-1 -1 $-1 0 -115.5736835487437 0 0 -1 0 -5.7735026918962529 0 0 1 I I -0.49999999999999967 0.86602540378443882 5.7735026918962529 forward I I I I #
loop $-1 -1 $-1 $-1 $41 $14 #
coedge $-1 -1 $-1 $42 $42 $40 $43 reversed $20 $-1 #
face $-1 -1 $-1 $44 $45 $16 $-1 $32 reversed single #
loop $-1 -1 $-1 $-1 $46 $22 #
cone-surface $-1 -1 $-1 -1.007636411570704e-030 -20.000000000000018 -2.2204460492503123e-015 0 -1 0 77.5 0 1.1711145291373737e-014 1 I I 0 1 77.5 forward I I I I #
face $-1 -1 $-1 $47 $48 $17 $-1 $49 reversed single #
loop $-1 -1 $-1 $-1 $50 $23 #
plane-surface $-1 -1 $-1 0 0 77.5 0 0 1 1 0 0 forward_v I I I I #
model_id-kcp-attrib $-1 -1 $-1 $-1 $25 1 1021578593 1021578593 965935105 4 #
face $51 -1 $-1 $52 $53 $7 $-1 $54 forward single #
loop $-1 -1 $-1 $-1 $55 $25 #
cone-surface $-1 -1 $-1 0 -115.5736835487437 0 0 -1 0 -5.7735026918962529 0 0 1 I I -0.49999999999999967 0.86602540378443882 5.7735026918962529 forward I I I I #
coedge $-1 -1 $-1 $56 $57 $29 $43 forward $26 $-1 #
coedge $-1 -1 $-1 $58 $58 $59 $60 reversed $28 $-1 #
coedge $-1 -1 $-1 $29 $29 $61 $62 forward $20 $-1 #
edge $63 -1 $-1 $64 0 $65 3.1415926535897931 $29 $66 forward @7 unknown #
face $-1 -1 $-1 $67 $68 $16 $-1 $32 reversed single #
loop $-1 -1 $-1 $-1 $69 $30 #
coedge $-1 -1 $-1 $70 $71 $72 $73 reversed $31 $-1 #
face $74 -1 $-1 $75 $76 $17 $-1 $77 reversed single #
loop $-1 -1 $-1 $-1 $78 $33 #
plane-surface $-1 -1 $-1 0 0 -77.5 0 0 1 1 0 0 forward_v I I I I #
coedge $-1 -1 $-1 $79 $80 $81 $82 forward $34 $-1 #
model_id-kcp-attrib $-1 -1 $-1 $-1 $37 1 1021578593 1021578593 965935105 5 #
face $83 -1 $-1 $84 $85 $7 $-1 $86 forward single #
loop $-1 -1 $-1 $-1 $87 $37 #
cone-surface $-1 -1 $-1 0 41.999999999999993 0 0 -1 0 -77.5 0 0 1 I I 0 1 77.5 forward I I I I #
coedge $-1 -1 $-1 $88 $89 $90 $91 forward $38 $-1 #
coedge $-1 -1 $-1 $92 $40 $88 $93 forward $26 $-1 #
coedge $-1 -1 $-1 $40 $92 $89 $94 reversed $26 $-1 #
coedge $-1 -1 $-1 $41 $41 $95 $96 forward $28 $-1 #
coedge $-1 -1 $-1 $97 $98 $41 $60 forward $99 $-1 #
edge $100 -1 $-1 $101 0 $102 3.1415926535897931 $41 $103 forward @7 unknown #
coedge $-1 -1 $-1 $89 $88 $42 $62 reversed $38 $-1 #
edge $104 -1 $-1 $64 0 $65 3.1415926535897931 $42 $105 forward @7 unknown #
attrib_edge_convexity-kcp-attrib $-1 -1 $106 $-1 $43 1 #
vertex $-1 -1 $-1 $62 $107 #
vertex $-1 -1 $-1 $62 $108 #
ellipse-curve $-1 -1 $-1 0 0 -6.6613381477509392e-015 0 1 0 72.499999999999986 0 1.5539734212963174e-014 1 I I #
face $-1 -1 $-1 $109 $110 $16 $-1 $32 reversed single #
loop $-1 -1 $-1 $-1 $111 $44 #
coedge $-1 -1 $-1 $112 $113 $114 $115 reversed $45 $-1 #
coedge $-1 -1 $-1 $116 $46 $117 $118 forward $31 $-1 #
coedge $-1 -1 $-1 $46 $116 $119 $120 reversed $31 $-1 #
coedge $-1 -1 $-1 $121 $122 $46 $73 forward $123 $-1 #
edge $-1 -1 $-1 $124 -1.5111155214675789e-016 $125 1.5707963267948966 $72 $126 forward @7 unknown #
model_id-kcp-attrib $-1 -1 $-1 $-1 $47 1 1021578593 1021578593 966590466 2 #
face $-1 -1 $-1 $127 $128 $17 $-1 $129 reversed single #
loop $-1 -1 $-1 $-1 $130 $47 #
plane-surface $-1 -1 $-1 0 -20.000000000000018 0 0 1 0 0 0 1 forward_v I I I I #
coedge $-1 -1 $-1 $131 $132 $133 $134 forward $48 $-1 #
coedge $-1 -1 $-1 $135 $50 $136 $137 forward $34 $-1 #
coedge $-1 -1 $-1 $50 $135 $138 $139 forward $34 $-1 #
coedge $-1 -1 $-1 $140 $141 $50 $82 reversed $142 $-1 #
edge $-1 -1 $-1 $143 -20.000000000000018 $144 20.000000000000018 $81 $145 forward @7 unknown #
model_id-kcp-attrib $-1 -1 $-1 $-1 $52 1 1021578593 1021578593 965935105 6 #
face $146 -1 $-1 $147 $148 $7 $-1 $149 reversed single #
loop $-1 -1 $-1 $-1 $150 $52 #
cone-surface $-1 -1 $-1 0 155.5736835487437 0 0 1 0 -5.7735026918962529 0 0 1 I I -0.49999999999999967 0.86602540378443882 5.7735026918962529 forward I I I I #
coedge $-1 -1 $-1 $151 $152 $153 $154 forward $53 $-1 #
coedge $-1 -1 $-1 $61 $55 $56 $93 reversed $38 $-1 #
coedge $-1 -1 $-1 $55 $61 $57 $94 forward $38 $-1 #
coedge $-1 -1 $-1 $152 $151 $55 $91 reversed $53 $-1 #
edge $-1 -1 $-1 $155 0 $156 3.1415926535897931 $55 $157 forward @7 unknown #
coedge $-1 -1 $-1 $57 $56 $158 $159 reversed $26 $-1 #
edge $-1 -1 $-1 $65 -2.1745080466420967e-031 $156 1.0000000000000002 $88 $160 forward @7 unknown #
edge $-1 -1 $-1 $64 0 $155 1.0000000000000009 $89 $161 forward @7 unknown #
coedge $-1 -1 $-1 $162 $163 $58 $96 reversed $164 $-1 #
edge $165 -1 $-1 $101 0 $102 3.1415926535897931 $58 $166 forward @7 unknown #
coedge $-1 -1 $-1 $167 $59 $163 $168 reversed $99 $-1 #
coedge $-1 -1 $-1 $59 $167 $162 $169 forward $99 $-1 #
loop $-1 -1 $-1 $-1 $98 $170 #
attrib_edge_convexity-kcp-attrib $-1 -1 $171 $-1 $60 1 #
vertex $-1 -1 $-1 $96 $172 #
vertex $-1 -1 $-1 $96 $173 #
ellipse-curve $-1 -1 $-1 0 0 0 0 -1 0 62.5 0 0 1 I I #
attrib_edge_convexity-kcp-attrib $-1 -1 $174 $-1 $62 1 #
ellipse-curve $-1 -1 $-1 0 0 -6.6613381477509392e-015 0 -1 0 72.499999999999986 0 1.5539734212963174e-014 1 I I #
convexity-sys-attrib $-1 -1 $-1 $63 $43 #
point $-1 -1 $-1 72.499999999999986 0 8.8783960652122351e-015 #
point $-1 -1 $-1 -72.499999999999986 0 0 #
face $-1 -1 $-1 $175 $176 $16 $-1 $177 forward single #
loop $-1 -1 $-1 $-1 $178 $67 #
coedge $-1 -1 $-1 $179 $180 $178 $181 forward $68 $-1 #
coedge $-1 -1 $-1 $182 $69 $183 $184 reversed $45 $-1 #
coedge $-1 -1 $-1 $69 $182 $71 $120 forward $45 $-1 #
coedge $-1 -1 $-1 $185 $186 $69 $115 forward $187 $-1 #
edge $-1 -1 $-1 $188 -3.1415926535897931 $189 -1.5707963267948966 $114 $190 forward @7 unknown #
coedge $-1 -1 $-1 $71 $70 $191 $192 reversed $31 $-1 #
coedge $-1 -1 $-1 $180 $179 $193 $118 reversed $68 $-1 #
edge $-1 -1 $-1 $124 -40.000000000000036 $194 0 $193 $195 forward @7 unknown #
coedge $-1 -1 $-1 $196 $197 $198 $120 forward $199 $-1 #
edge $-1 -1 $-1 $125 -40.000000000000036 $189 0 $119 $200 forward @7 unknown #
coedge $-1 -1 $-1 $122 $72 $197 $201 reversed $123 $-1 #
coedge $-1 -1 $-1 $72 $121 $202 $203 forward $123 $-1 #
loop $-1 -1 $-1 $-1 $72 $204 #
vertex $-1 -1 $-1 $205 $206 #
vertex $-1 -1 $-1 $207 $208 #
ellipse-curve $-1 -1 $-1 -1.007636411570704e-030 20.000000000000018 -2.2204460492503123e-015 0 -1 0 77.5 0 1.1711145291373737e-014 1 I I #
face $209 -1 $-1 $210 $211 $17 $-1 $212 reversed single #
loop $-1 -1 $-1 $-1 $213 $75 #
plane-surface $-1 -1 $-1 -77.5 0 0 1 0 0 0 0 -1 forward_v I I I I #
coedge $-1 -1 $-1 $214 $138 $215 $216 forward $76 $-1 #
coedge $-1 -1 $-1 $217 $78 $214 $218 forward $48 $-1 #
coedge $-1 -1 $-1 $78 $217 $219 $220 forward $48 $-1 #
coedge $-1 -1 $-1 $141 $140 $78 $134 reversed $142 $-1 #
edge $-1 -1 $-1 $221 -20.000000000000018 $222 20.000000000000018 $133 $223 forward @7 unknown #
coedge $-1 -1 $-1 $80 $79 $224 $225 forward $34 $-1 #
coedge $-1 -1 $-1 $226 $227 $79 $137 reversed $211 $-1 #
edge $-1 -1 $-1 $144 -77.5 $228 77.5 $136 $229 forward @7 unknown #
coedge $-1 -1 $-1 $130 $230 $80 $139 reversed $76 $-1 #
edge $-1 -1 $-1 $231 -77.5 $143 77.5 $138 $232 forward @7 unknown #
coedge $-1 -1 $-1 $133 $81 $230 $233 forward $142 $-1 #
coedge $-1 -1 $-1 $81 $133 $226 $234 reversed $142 $-1 #
loop $-1 -1 $-1 $-1 $140 $210 #
vertex $-1 -1 $-1 $82 $235 #
vertex $-1 -1 $-1 $82 $236 #
straight-curve $-1 -1 $-1 77.5 0 77.5 0 1 0 I I #
model_id-kcp-attrib $-1 -1 $-1 $-1 $84 1 1021578593 1021578593 965935105 7 #
face $237 -1 $-1 $238 $239 $7 $-1 $240 reversed single #
loop $-1 -1 $-1 $241 $242 $84 #
plane-surface $-1 -1 $-1 0 40 0 0 -1 0 -10 0 0 forward_v I I I I #
coedge $-1 -1 $-1 $243 $244 $245 $246 forward $85 $-1 #
coedge $-1 -1 $-1 $90 $87 $247 $248 reversed $53 $-1 #
coedge $-1 -1 $-1 $87 $90 $249 $250 forward $53 $-1 #
coedge $-1 -1 $-1 $244 $243 $87 $154 reversed $85 $-1 #
edge $-1 -1 $-1 $251 0 $252 3.1415926535897931 $87 $253 forward @7 unknown #
vertex $-1 -1 $-1 $94 $254 #
vertex $-1 -1 $-1 $93 $255 #
ellipse-curve $-1 -1 $-1 4.4408920985006262e-015 8.6602540378443837 0 0 -1 0 77.5 0 9.4906992421234238e-015 1 I I #
coedge $-1 -1 $-1 $247 $249 $92 $159 forward $256 $-1 #
edge $-1 -1 $-1 $155 0 $156 3.1415926535897931 $92 $257 forward @7 unknown #
straight-curve $-1 -1 $-1 -72.499999999999986 0 -1.775679213042447e-014 -5.0000000000000044 8.6602540378443855 -1.2246063538223763e-015 I I #
straight-curve $-1 -1 $-1 72.499999999999986 0 8.8783960652122351e-015 5.0000000000000044 8.6602540378443855 6.1230317691118814e-016 I I #
coedge $-1 -1 $-1 $258 $95 $98 $169 reversed $164 $-1 #
coedge $-1 -1 $-1 $95 $258 $97 $168 forward $164 $-1 #
loop $-1 -1 $-1 $-1 $163 $259 #
attrib_edge_convexity-kcp-attrib $-1 -1 $260 $-1 $96 1 #
ellipse-curve $-1 -1 $-1 0 0 0 0 1 0 62.5 0 0 1 I I #
coedge $-1 -1 $-1 $98 $97 $261 $262 reversed $99 $-1 #
edge $-1 -1 $-1 $263 -6.2172489379008762e-016 $102 0.77525512860841017 $97 $264 forward @7 unknown #
edge $-1 -1 $-1 $265 -6.2172489379008762e-016 $101 0.77525512860841017 $98 $266 forward @7 unknown #
face $267 -1 $-1 $268 $99 $7 $-1 $269 reversed single #
convexity-sys-attrib $-1 -1 $-1 $100 $60 #
point $-1 -1 $-1 62.5 0 0 #
point $-1 -1 $-1 -62.5 0 0 #
convexity-sys-attrib $-1 -1 $-1 $104 $62 #
face $-1 -1 $-1 $270 $271 $16 $-1 $272 reversed single #
loop $-1 -1 $-1 $-1 $198 $109 #
plane-surface $-1 -1 $-1 0 0 77.5 0 0 1 1 0 0 forward_v I I I I #
coedge $-1 -1 $-1 $273 $274 $275 $181 reversed $110 $-1 #
coedge $-1 -1 $-1 $117 $111 $276 $277 reversed $68 $-1 #
coedge $-1 -1 $-1 $111 $117 $278 $279 reversed $68 $-1 #
edge $-1 -1 $-1 $280 -40.000000000000036 $281 0 $275 $282 forward @7 unknown #
coedge $-1 -1 $-1 $113 $112 $283 $284 reversed $45 $-1 #
coedge $-1 -1 $-1 $285 $286 $287 $184 forward $288 $-1 #
edge $-1 -1 $-1 $289 -40.000000000000036 $188 0 $183 $290 forward @7 unknown #
coedge $-1 -1 $-1 $186 $114 $291 $292 reversed $187 $-1 #
coedge $-1 -1 $-1 $114 $185 $285 $293 forward $187 $-1 #
loop $-1 -1 $-1 $-1 $114 $294 #
vertex $-1 -1 $-1 $295 $296 #
vertex $-1 -1 $-1 $297 $298 #
ellipse-curve $-1 -1 $-1 -1.007636411570704e-030 -20.000000000000018 -2.2204460492503123e-015 0 1 0 77.5 0 1.1711145291373737e-014 1 I I #
coedge $-1 -1 $-1 $299 $300 $116 $192 forward $301 $-1 #
edge $-1 -1 $-1 $189 -1.5707963267948966 $194 1.5111155214675789e-016 $191 $190 forward @7 unknown #
coedge $-1 -1 $-1 $302 $303 $304 $118 forward $271 $-1 #
vertex $-1 -1 $-1 $305 $306 #
straight-curve $-1 -1 $-1 77.5 -20.000000000000018 -2.2204460492503123e-015 0 -1 0 I I #
coedge $-1 -1 $-1 $307 $119 $300 $297 forward $199 $-1 #
coedge $-1 -1 $-1 $119 $307 $121 $201 forward $199 $-1 #
coedge $-1 -1 $-1 $308 $291 $113 $120 reversed $176 $-1 #
loop $-1 -1 $-1 $-1 $119 $309 #
straight-curve $-1 -1 $-1 -1.007636411570704e-030 -20.000000000000018 77.5 0 -1 0 I I #
edge $-1 -1 $-1 $310 -77.5 $125 1.007636411570704e-030 $121 $311 forward @7 unknown #
coedge $-1 -1 $-1 $312 $304 $122 $203 reversed $313 $-1 #
edge $-1 -1 $-1 $310 -77.5 $124 2.2204460492503123e-015 $202 $314 forward @7 unknown #
face $-1 -1 $-1 $315 $123 $16 $-1 $316 reversed single #
edge $-1 -1 $-1 $124 2.2204460492503123e-015 $317 77.5 $303 $314 forward @7 unknown #
point $-1 -1 $-1 77.5 20.000000000000018 -2.2204460492503123e-015 #
edge $-1 -1 $-1 $125 1.007636411570704e-030 $318 77.5 $319 $311 forward @7 unknown #
point $-1 -1 $-1 -1.007636411570704e-030 20.000000000000018 77.5 #
model_id-kcp-attrib $-1 -1 $-1 $-1 $127 1 1021578593 1021578593 966590466 3 #
face $-1 -1 $-1 $-1 $142 $17 $-1 $320 reversed single #
loop $-1 -1 $-1 $-1 $226 $127 #
plane-surface $-1 -1 $-1 0 20.000000000000018 0 0 -1 0 0 0 -1 forward_v I I I I #
coedge $-1 -1 $-1 $321 $224 $227 $322 forward $128 $-1 #
coedge $-1 -1 $-1 $230 $130 $131 $218 reversed $76 $-1 #
coedge $-1 -1 $-1 $224 $321 $130 $216 reversed $128 $-1 #
edge $-1 -1 $-1 $231 -77.5 $323 77.5 $215 $324 forward @7 unknown #
coedge $-1 -1 $-1 $132 $131 $321 $325 forward $48 $-1 #
edge $-1 -1 $-1 $222 -77.5 $323 77.5 $214 $326 forward @7 unknown #
coedge $-1 -1 $-1 $227 $226 $132 $220 reversed $211 $-1 #
edge $-1 -1 $-1 $327 -77.5 $221 77.5 $219 $328 forward @7 unknown #
vertex $-1 -1 $-1 $134 $329 #
vertex $-1 -1 $-1 $233 $330 #
straight-curve $-1 -1 $-1 77.5 0 -77.5 0 -1 0 I I #
coedge $-1 -1 $-1 $213 $215 $135 $225 reversed $128 $-1 #
edge $-1 -1 $-1 $228 -20.000000000000018 $231 20.000000000000018 $224 $331 forward @7 unknown #
coedge $-1 -1 $-1 $219 $136 $141 $234 forward $211 $-1 #
coedge $-1 -1 $-1 $136 $219 $213 $322 reversed $211 $-1 #
vertex $-1 -1 $-1 $137 $332 #
straight-curve $-1 -1 $-1 0 20.000000000000018 77.5 -1 0 0 I I #
coedge $-1 -1 $-1 $138 $214 $140 $233 reversed $76 $-1 #
vertex $-1 -1 $-1 $225 $333 #
straight-curve $-1 -1 $-1 0 -20.000000000000018 77.5 1 0 0 I I #
edge $-1 -1 $-1 $143 -77.5 $222 77.5 $140 $334 forward @7 unknown #
edge $-1 -1 $-1 $144 -77.5 $221 77.5 $141 $335 forward @7 unknown #
point $-1 -1 $-1 77.5 -20.000000000000018 77.5 #
point $-1 -1 $-1 77.5 20.000000000000018 77.5 #
model_id-kcp-attrib $-1 -1 $-1 $-1 $147 1 1021578593 1021578593 965935105 8 #
face $336 -1 $-1 $337 $338 $7 $-1 $339 reversed single #
loop $-1 -1 $-1 $-1 $340 $147 #
cone-surface $-1 -1 $-1 0 -211.24355652982175 0 0 -1 0 -2.6794919243112236 0 0 1 I I -0.25881904510252046 0.96592582628906831 2.6794919243112236 forward I I I I #
loop $-1 -1 $-1 $-1 $245 $84 #
coedge $-1 -1 $-1 $341 $341 $342 $343 reversed $148 $-1 #
coedge $-1 -1 $-1 $153 $150 $344 $345 reversed $85 $-1 #
coedge $-1 -1 $-1 $150 $153 $346 $347 forward $85 $-1 #
coedge $-1 -1 $-1 $348 $348 $150 $246 reversed $241 $-1 #
edge $-1 -1 $-1 $349 1.2246063538223775e-016 $350 3.1415926535897931 $150 $351 forward @7 unknown #
coedge $-1 -1 $-1 $352 $158 $151 $248 forward $256 $-1 #
edge $-1 -1 $-1 $156 0 $252 2.2679491924311224 $151 $353 forward @7 unknown #
coedge $-1 -1 $-1 $158 $352 $152 $250 reversed $256 $-1 #
edge $-1 -1 $-1 $155 8.8817841970012523e-016 $251 2.2679491924311215 $152 $354 forward @7 unknown #
vertex $-1 -1 $-1 $250 $355 #
vertex $-1 -1 $-1 $248 $356 #
ellipse-curve $-1 -1 $-1 4.4408920985006262e-015 31.339745962155597 0 1.1460366705808067e-016 -1 1.4034437885066987e-032 77.5 8.8817841970012523e-015 9.4906992421234238e-015 1 I I #
point $-1 -1 $-1 77.5 8.6602540378443926 9.4906992421234238e-015 #
point $-1 -1 $-1 -77.5 8.6602540378443837 -1.8981398484246848e-014 #
loop $-1 -1 $-1 $-1 $158 $357 #
ellipse-curve $-1 -1 $-1 -2.2204460492503131e-015 8.6602540378443837 -2.2204460492503131e-015 0 1 0 77.5 0 1.1711145291373737e-014 1 I I #
coedge $-1 -1 $-1 $163 $162 $358 $359 reversed $164 $-1 #
face $360 -1 $-1 $170 $164 $7 $-1 $361 reversed single #
convexity-sys-attrib $-1 -1 $-1 $165 $96 #
coedge $-1 -1 $-1 $362 $363 $167 $262 forward $364 $-1 #
edge $-1 -1 $-1 $265 0 $263 3.1415926535897931 $167 $365 forward @7 unknown #
vertex $-1 -1 $-1 $262 $366 #
straight-curve $-1 -1 $-1 -62.5 7.7525512860841017 -1.5307579422779716e-014 0 -10 0 I I #
vertex $-1 -1 $-1 $262 $367 #
straight-curve $-1 -1 $-1 62.5 7.7525512860841017 7.6537897113898579e-015 0 -10 0 I I #
model_id-kcp-attrib $-1 -1 $-1 $-1 $170 1 1021578593 1021578593 965935105 13 #
face $368 -1 $-1 $357 $369 $7 $-1 $370 forward single #
cone-surface $-1 -1 $-1 0 41.999999999999993 0 0 -1 0 -62.5 0 0 1 I I 0 1 62.5 forward I I I I #
face $-1 -1 $-1 $371 $372 $16 $-1 $373 reversed single #
loop $-1 -1 $-1 $-1 $193 $175 #
plane-surface $-1 -1 $-1 77.5 0 0 -1 0 0 0 0 1 forward_v I I I I #
coedge $-1 -1 $-1 $374 $178 $375 $376 reversed $110 $-1 #
coedge $-1 -1 $-1 $178 $374 $377 $378 reversed $110 $-1 #
coedge $-1 -1 $-1 $379 $380 $381 $181 forward $382 $-1 #
coedge $-1 -1 $-1 $383 $384 $179 $277 forward $385 $-1 #
edge $-1 -1 $-1 $194 1.5111155214675789e-016 $281 1.5707963267948968 $276 $190 forward @7 unknown #
coedge $-1 -1 $-1 $386 $387 $180 $279 forward $388 $-1 #
edge $-1 -1 $-1 $280 -1.5707963267948968 $124 -1.5111155214675789e-016 $278 $126 forward @7 unknown #
vertex $-1 -1 $-1 $389 $390 #
vertex $-1 -1 $-1 $391 $392 #
straight-curve $-1 -1 $-1 -1.007636411570704e-030 -20.000000000000018 -77.5 0 -1 0 I I #
coedge $-1 -1 $-1 $393 $319 $182 $284 forward $394 $-1 #
edge $-1 -1 $-1 $125 1.5707963267948966 $289 3.1415926535897931 $283 $126 forward @7 unknown #
coedge $-1 -1 $-1 $395 $183 $186 $293 reversed $288 $-1 #
coedge $-1 -1 $-1 $183 $395 $393 $396 forward $288 $-1 #
coedge $-1 -1 $-1 $397 $398 $374 $184 reversed $372 $-1 #
loop $-1 -1 $-1 $-1 $183 $399 #
vertex $-1 -1 $-1 $400 $401 #
straight-curve $-1 -1 $-1 -77.5 -20.000000000000018 -2.2204460492503123e-015 0 -1 0 I I #
coedge $-1 -1 $-1 $198 $402 $185 $292 forward $176 $-1 #
edge $-1 -1 $-1 $403 -77.5 $189 -1.007636411570704e-030 $185 $404 forward @7 unknown #
edge $-1 -1 $-1 $403 -77.5 $188 2.2204460492503123e-015 $285 $405 forward @7 unknown #
face $-1 -1 $-1 $406 $187 $16 $-1 $407 reversed single #
edge $-1 -1 $-1 $188 2.2204460492503123e-015 $408 77.5 $398 $405 forward @7 unknown #
point $-1 -1 $-1 -77.5 -20.000000000000018 -2.2204460492503123e-015 #
edge $-1 -1 $-1 $189 -1.007636411570704e-030 $409 77.5 $300 $404 forward @7 unknown #
point $-1 -1 $-1 -1.007636411570704e-030 -20.000000000000018 77.5 #
coedge $-1 -1 $-1 $300 $191 $410 $411 reversed $301 $-1 #
coedge $-1 -1 $-1 $191 $299 $196 $297 reversed $301 $-1 #
loop $-1 -1 $-1 $-1 $191 $406 #
coedge $-1 -1 $-1 $412 $193 $384 $305 forward $271 $-1 #
coedge $-1 -1 $-1 $193 $412 $386 $205 reversed $271 $-1 #
coedge $-1 -1 $-1 $202 $410 $70 $118 reversed $313 $-1 #
edge $-1 -1 $-1 $194 2.2204460492503123e-015 $413 77.5 $302 $414 forward @7 unknown #
point $-1 -1 $-1 77.5 -20.000000000000018 -2.2204460492503123e-015 #
coedge $-1 -1 $-1 $197 $196 $312 $415 forward $199 $-1 #
coedge $-1 -1 $-1 $402 $198 $319 $207 forward $176 $-1 #
face $-1 -1 $-1 $416 $199 $16 $-1 $177 forward single #
vertex $-1 -1 $-1 $415 $417 #
straight-curve $-1 -1 $-1 0 20.000000000000018 77.5 -1 0 0 I I #
coedge $-1 -1 $-1 $410 $202 $307 $415 reversed $313 $-1 #
loop $-1 -1 $-1 $-1 $304 $418 #
straight-curve $-1 -1 $-1 77.5 20.000000000000018 0 0 0 -1 I I #
face $-1 -1 $-1 $419 $394 $16 $-1 $316 reversed single #
plane-surface $-1 -1 $-1 0 20.000000000000018 0 0 -1 0 0 0 -1 forward_v I I I I #
vertex $-1 -1 $-1 $420 $421 #
vertex $-1 -1 $-1 $207 $422 #
coedge $-1 -1 $-1 $283 $393 $308 $207 reversed $394 $-1 #
plane-surface $-1 -1 $-1 77.5 0 0 -1 0 0 0 0 1 forward_v I I I I #
coedge $-1 -1 $-1 $215 $213 $217 $325 reversed $128 $-1 #
edge $-1 -1 $-1 $228 -77.5 $327 77.5 $227 $423 forward @7 unknown #
vertex $-1 -1 $-1 $325 $424 #
straight-curve $-1 -1 $-1 -77.5 -20.000000000000018 0 0 0 -1 I I #
edge $-1 -1 $-1 $323 -20.000000000000018 $327 20.000000000000018 $321 $425 forward @7 unknown #
straight-curve $-1 -1 $-1 0 -20.000000000000018 -77.5 -1 0 0 I I #
vertex $-1 -1 $-1 $220 $426 #
straight-curve $-1 -1 $-1 0 20.000000000000018 -77.5 1 0 0 I I #
point $-1 -1 $-1 77.5 20.000000000000018 -77.5 #
point $-1 -1 $-1 77.5 -20.000000000000018 -77.5 #
straight-curve $-1 -1 $-1 -77.5 0 77.5 0 -1 0 I I #
point $-1 -1 $-1 -77.5 20.000000000000018 77.5 #
point $-1 -1 $-1 -77.5 -20.000000000000018 77.5 #
straight-curve $-1 -1 $-1 77.5 -20.000000000000018 0 0 0 -1 I I #
straight-curve $-1 -1 $-1 77.5 20.000000000000018 0 0 0 -1 I I #
model_id-kcp-attrib $-1 -1 $-1 $-1 $238 1 1021578593 1021578593 965935105 9 #
face $427 -1 $-1 $428 $364 $7 $-1 $429 reversed single #
loop $-1 -1 $-1 $-1 $430 $238 #
cone-surface $-1 -1 $-1 0 -211.24355652982175 0 0 -1 0 -2.6794919243112236 0 0 1 I I -0.25881904510252046 0.96592582628906831 2.6794919243112236 forward I I I I #
coedge $-1 -1 $-1 $342 $431 $432 $433 reversed $239 $-1 #
coedge $-1 -1 $-1 $242 $242 $434 $435 forward $148 $-1 #
coedge $-1 -1 $-1 $436 $340 $242 $343 forward $239 $-1 #
edge $-1 -1 $-1 $437 0 $438 3.1415926535897931 $242 $439 forward @7 unknown #
coedge $-1 -1 $-1 $440 $441 $243 $345 forward $369 $-1 #
edge $-1 -1 $-1 $252 0 $350 1.0000000000000002 $243 $442 forward @7 unknown #
coedge $-1 -1 $-1 $441 $440 $244 $347 reversed $369 $-1 #
edge $-1 -1 $-1 $251 -9.230220894641102e-016 $349 1.0000000000000009 $244 $443 forward @7 unknown #
coedge $-1 -1 $-1 $245 $245 $440 $444 forward $241 $-1 #
vertex $-1 -1 $-1 $347 $445 #
vertex $-1 -1 $-1 $345 $446 #
ellipse-curve $-1 -1 $-1 0 40 0 0 -1 0 72.5 0 0 1 I I #
coedge $-1 -1 $-1 $249 $247 $441 $447 reversed $256 $-1 #
straight-curve $-1 -1 $-1 -77.5 8.6602540378443837 -1.8981398484246848e-014 0 10 0 I I #
straight-curve $-1 -1 $-1 77.5 8.6602540378443837 9.4906992421234238e-015 0 10 0 I I #
point $-1 -1 $-1 77.5 31.339745962155597 9.4906992421234238e-015 #
point $-1 -1 $-1 -77.5 31.339745962155607 -1.8981398484246848e-014 #
face $448 -1 $-1 $-1 $256 $7 $-1 $449 forward single #
coedge $-1 -1 $-1 $450 $451 $258 $359 forward $452 $-1 #
edge $-1 -1 $-1 $263 -2.4492127076447545e-016 $265 3.1415926535897931 $258 $453 forward @7 unknown #
model_id-kcp-attrib $-1 -1 $-1 $-1 $259 1 1021578593 1021578593 965935105 12 #
cone-surface $-1 -1 $-1 0 41.999999999999993 0 0 -1 0 -62.5 0 0 1 I I 0 1 62.5 forward I I I I #
coedge $-1 -1 $-1 $454 $261 $451 $455 forward $364 $-1 #
coedge $-1 -1 $-1 $261 $454 $450 $456 reversed $364 $-1 #
loop $-1 -1 $-1 $-1 $363 $337 #
ellipse-curve $-1 -1 $-1 0 7.7525512860841079 0 0 -1 0 62.5 0 0 1 I I #
point $-1 -1 $-1 -62.5 7.7525512860841079 7.6537897113898579e-015 #
point $-1 -1 $-1 62.5 7.7525512860841079 0 #
model_id-kcp-attrib $-1 -1 $-1 $-1 $268 1 1021578593 1021578593 965935105 14 #
loop $-1 -1 $-1 $-1 $441 $268 #
cone-surface $-1 -1 $-1 0 155.5736835487437 0 0 1 0 -5.7735026918962529 0 0 1 I I -0.49999999999999967 0.86602540378443882 5.7735026918962529 forward I I I I #
face $-1 -1 $-1 $294 $457 $16 $-1 $407 reversed single #
loop $-1 -1 $-1 $-1 $287 $270 #
plane-surface $-1 -1 $-1 -77.5 0 0 1 0 0 0 0 -1 forward_v I I I I #
coedge $-1 -1 $-1 $274 $273 $112 $184 forward $110 $-1 #
coedge $-1 -1 $-1 $458 $459 $273 $376 forward $460 $-1 #
edge $-1 -1 $-1 $289 -3.1415926535897931 $280 -1.5707963267948968 $375 $126 forward @7 unknown #
coedge $-1 -1 $-1 $461 $462 $274 $378 forward $457 $-1 #
edge $-1 -1 $-1 $281 1.5707963267948968 $188 3.1415926535897931 $377 $190 forward @7 unknown #
coedge $-1 -1 $-1 $463 $275 $462 $391 forward $382 $-1 #
coedge $-1 -1 $-1 $275 $463 $458 $464 forward $382 $-1 #
coedge $-1 -1 $-1 $465 $466 $111 $181 reversed $467 $-1 #
loop $-1 -1 $-1 $-1 $275 $416 #
coedge $-1 -1 $-1 $384 $276 $466 $468 reversed $385 $-1 #
coedge $-1 -1 $-1 $276 $383 $302 $305 reversed $385 $-1 #
loop $-1 -1 $-1 $-1 $276 $469 #
coedge $-1 -1 $-1 $387 $278 $303 $205 forward $388 $-1 #
coedge $-1 -1 $-1 $278 $386 $465 $389 reversed $388 $-1 #
loop $-1 -1 $-1 $-1 $278 $470 #
edge $-1 -1 $-1 $280 -1.007636411570704e-030 $317 77.5 $387 $471 forward @7 unknown #
point $-1 -1 $-1 -1.007636411570704e-030 20.000000000000018 -77.5 #
edge $-1 -1 $-1 $281 1.007636411570704e-030 $408 77.5 $462 $472 forward @7 unknown #
point $-1 -1 $-1 -1.007636411570704e-030 -20.000000000000018 -77.5 #
coedge $-1 -1 $-1 $319 $283 $286 $396 reversed $394 $-1 #
loop $-1 -1 $-1 $-1 $283 $315 #
coedge $-1 -1 $-1 $286 $285 $402 $473 reversed $288 $-1 #
edge $-1 -1 $-1 $318 -77.5 $289 2.2204460492503123e-015 $393 $474 forward @7 unknown #
coedge $-1 -1 $-1 $475 $287 $459 $400 forward $372 $-1 #
coedge $-1 -1 $-1 $287 $475 $461 $295 reversed $372 $-1 #
face $-1 -1 $-1 $418 $288 $16 $-1 $373 reversed single #
edge $-1 -1 $-1 $289 2.2204460492503123e-015 $476 77.5 $459 $474 forward @7 unknown #
point $-1 -1 $-1 -77.5 20.000000000000018 -2.2204460492503123e-015 #
coedge $-1 -1 $-1 $291 $308 $395 $473 forward $176 $-1 #
vertex $-1 -1 $-1 $473 $477 #
straight-curve $-1 -1 $-1 0 -20.000000000000018 77.5 1 0 0 I I #
straight-curve $-1 -1 $-1 -77.5 -20.000000000000018 0 0 0 -1 I I #
face $-1 -1 $-1 $469 $301 $16 $-1 $407 reversed single #
plane-surface $-1 -1 $-1 0 -20.000000000000018 0 0 1 0 0 0 1 forward_v I I I I #
vertex $-1 -1 $-1 $478 $479 #
vertex $-1 -1 $-1 $415 $480 #
coedge $-1 -1 $-1 $304 $312 $299 $411 forward $313 $-1 #
edge $-1 -1 $-1 $409 -77.5 $194 2.2204460492503123e-015 $410 $414 forward @7 unknown #
coedge $-1 -1 $-1 $303 $302 $481 $420 reversed $271 $-1 #
vertex $-1 -1 $-1 $305 $482 #
straight-curve $-1 -1 $-1 77.5 -20.000000000000018 0 0 0 -1 I I #
edge $-1 -1 $-1 $409 -20.000000000000018 $310 20.000000000000018 $312 $483 forward @7 unknown #
face $-1 -1 $-1 $399 $382 $16 $-1 $484 reversed single #
point $-1 -1 $-1 77.5 20.000000000000018 77.5 #
face $-1 -1 $-1 $-1 $313 $16 $-1 $272 reversed single #
face $-1 -1 $-1 $485 $460 $16 $-1 $316 reversed single #
edge $-1 -1 $-1 $317 -20.000000000000018 $413 20.000000000000018 $412 $486 forward @7 unknown #
point $-1 -1 $-1 77.5 20.000000000000018 -77.5 #
point $-1 -1 $-1 -77.5 20.000000000000018 77.5 #
straight-curve $-1 -1 $-1 -77.5 20.000000000000018 0 0 0 -1 I I #
point $-1 -1 $-1 -77.5 -20.000000000000018 -77.5 #
straight-curve $-1 -1 $-1 -77.5 0 -77.5 0 1 0 I I #
point $-1 -1 $-1 -77.5 20.000000000000018 -77.5 #
model_id-kcp-attrib $-1 -1 $-1 $-1 $337 1 1021578593 1021578593 965935105 10 #
face $487 -1 $-1 $259 $452 $7 $-1 $488 reversed single #
torus-surface $-1 -1 $-1 0 20 0 0 1 0 60 12.5 1 0 0 forward_v I I I I #
coedge $-1 -1 $-1 $434 $489 $436 $490 reversed $338 $-1 #
coedge $-1 -1 $-1 $340 $436 $491 $492 forward $239 $-1 #
coedge $-1 -1 $-1 $489 $434 $340 $433 forward $338 $-1 #
edge $-1 -1 $-1 $437 0 $493 1.023821047692842 $432 $494 forward @7 unknown #
coedge $-1 -1 $-1 $432 $430 $341 $435 reversed $338 $-1 #
edge $-1 -1 $-1 $437 0 $438 3.1415926535897931 $341 $495 forward @7 unknown #
coedge $-1 -1 $-1 $431 $342 $430 $490 forward $239 $-1 #
vertex $-1 -1 $-1 $435 $496 #
vertex $-1 -1 $-1 $435 $497 #
ellipse-curve $-1 -1 $-1 0 40 -6.6613381477509392e-015 5.0753052554292858e-016 1 1.1045011707597082e-031 70.000000000000014 -3.5527136788005009e-014 1.523358262450758e-014 1 I I #
coedge $-1 -1 $-1 $346 $344 $348 $444 reversed $369 $-1 #
coedge $-1 -1 $-1 $344 $346 $352 $447 forward $369 $-1 #
straight-curve $-1 -1 $-1 -77.5 31.339745962155607 -1.8981398484246848e-014 5.0000000000000044 8.6602540378443855 1.2246063538223763e-015 I I #
straight-curve $-1 -1 $-1 77.5 31.339745962155607 9.4906992421234238e-015 -5.0000000000000044 8.6602540378443855 -6.1230317691118814e-016 I I #
edge $-1 -1 $-1 $349 -1.2246063538223775e-016 $350 3.1415926535897931 $348 $498 forward @7 unknown #
point $-1 -1 $-1 72.499999999999986 40 8.8783960652122351e-015 #
point $-1 -1 $-1 -72.5 40 0 #
edge $-1 -1 $-1 $251 0 $252 3.1415926535897931 $352 $499 forward @7 unknown #
model_id-kcp-attrib $-1 -1 $-1 $-1 $357 1 1021578593 1021578593 965935105 15 #
cone-surface $-1 -1 $-1 0 41.999999999999993 0 0 -1 0 -77.5 0 0 1 I I 0 1 77.5 forward I I I I #
coedge $-1 -1 $-1 $491 $358 $363 $456 forward $452 $-1 #
coedge $-1 -1 $-1 $358 $491 $362 $455 reversed $452 $-1 #
loop $-1 -1 $-1 $-1 $451 $428 #
ellipse-curve $-1 -1 $-1 0 7.7525512860841079 0 0 -1 0 -62.5 0 -7.6537897113898579e-015 1 I I #
coedge $-1 -1 $-1 $363 $362 $489 $500 reversed $364 $-1 #
edge $-1 -1 $-1 $263 2.9387228446065131e-033 $501 2.3116352905954001 $451 $502 forward @7 unknown #
edge $-1 -1 $-1 $265 -2.2737367544323213e-017 $493 2.3116352905954223 $450 $503 forward @7 unknown #
loop $-1 -1 $-1 $-1 $377 $371 #
coedge $-1 -1 $-1 $459 $375 $380 $464 reversed $460 $-1 #
coedge $-1 -1 $-1 $375 $458 $397 $400 reversed $460 $-1 #
loop $-1 -1 $-1 $-1 $375 $419 #
coedge $-1 -1 $-1 $462 $377 $398 $295 forward $457 $-1 #
coedge $-1 -1 $-1 $377 $461 $379 $391 reversed $457 $-1 #
coedge $-1 -1 $-1 $380 $379 $475 $478 forward $382 $-1 #
edge $-1 -1 $-1 $476 -77.5 $280 -1.007636411570704e-030 $458 $471 forward @7 unknown #
coedge $-1 -1 $-1 $481 $381 $387 $389 forward $467 $-1 #
coedge $-1 -1 $-1 $381 $481 $383 $468 forward $467 $-1 #
loop $-1 -1 $-1 $-1 $381 $485 #
edge $-1 -1 $-1 $413 -77.5 $281 1.007636411570704e-030 $383 $472 forward @7 unknown #
face $-1 -1 $-1 $470 $385 $16 $-1 $407 reversed single #
face $-1 -1 $-1 $204 $388 $16 $-1 $316 reversed single #
straight-curve $-1 -1 $-1 0 20.000000000000018 -77.5 1 0 0 I I #
straight-curve $-1 -1 $-1 0 -20.000000000000018 -77.5 -1 0 0 I I #
edge $-1 -1 $-1 $318 -20.000000000000018 $403 20.000000000000018 $395 $504 forward @7 unknown #
straight-curve $-1 -1 $-1 -77.5 20.000000000000018 0 0 0 -1 I I #
coedge $-1 -1 $-1 $398 $397 $463 $478 reversed $372 $-1 #
vertex $-1 -1 $-1 $464 $505 #
point $-1 -1 $-1 -77.5 -20.000000000000018 77.5 #
edge $-1 -1 $-1 $408 -20.000000000000018 $476 20.000000000000018 $475 $506 forward @7 unknown #
point $-1 -1 $-1 -77.5 -20.000000000000018 -77.5 #
point $-1 -1 $-1 77.5 -20.000000000000018 77.5 #
coedge $-1 -1 $-1 $466 $465 $412 $420 forward $467 $-1 #
point $-1 -1 $-1 77.5 -20.000000000000018 -77.5 #
straight-curve $-1 -1 $-1 77.5 0 77.5 0 1 0 I I #
plane-surface $-1 -1 $-1 0 0 -77.5 0 0 1 1 0 0 forward_v I I I I #
face $-1 -1 $-1 $309 $467 $16 $-1 $484 reversed single #
straight-curve $-1 -1 $-1 77.5 0 -77.5 0 -1 0 I I #
model_id-kcp-attrib $-1 -1 $-1 $-1 $428 1 1021578593 1021578593 965935105 11 #
torus-surface $-1 -1 $-1 0 20 0 0 1 0 60 12.5 1 0 0 forward_v I I I I #
coedge $-1 -1 $-1 $430 $432 $454 $500 forward $338 $-1 #
edge $-1 -1 $-1 $438 1.0867941167993342e-031 $501 1.0238210476928511 $430 $507 forward @7 unknown #
coedge $-1 -1 $-1 $451 $450 $431 $492 reversed $452 $-1 #
edge $-1 -1 $-1 $501 -2.449212707644755e-016 $493 3.1415926535897931 $431 $508 forward @7 unknown #
vertex $-1 -1 $-1 $500 $509 #
straight-curve $-1 -1 $-1 70.000000000000014 39.999999999999964 8.5722444767566424e-015 -2.5881904510252092 -9.6592582628906829 -3.1695144712278726e-016 I I #
ellipse-curve $-1 -1 $-1 0 40 -6.6613381477509392e-015 -5.0753052554292858e-016 -1 -1.1045011707597082e-031 70.000000000000014 -3.5527136788005009e-014 1.523358262450758e-014 1 I I #
point $-1 -1 $-1 70.000000000000014 39.999999999999964 8.5722444767566424e-015 #
point $-1 -1 $-1 -70.000000000000014 39.999999999999964 0 #
ellipse-curve $-1 -1 $-1 0 40 0 0 1 0 72.5 0 0 1 I I #
ellipse-curve $-1 -1 $-1 -2.2204460492503131e-015 31.339745962155597 -2.2204460492503131e-015 -1.1460366705808067e-016 1 -1.7317938010856837e-032 77.5 8.8817841970012523e-015 1.1711145291373737e-014 1 I I #
edge $-1 -1 $-1 $493 0 $501 3.1415926535897931 $489 $510 forward @7 unknown #
vertex $-1 -1 $-1 $500 $511 #
ellipse-curve $-1 -1 $-1 -60 20.000000000000004 7.3476381229342635e-015 -1.2246063538223773e-016 0 -1 -2.5 -12.247448713915896 3.0615158845559431e-016 1 I I #
ellipse-curve $-1 -1 $-1 60 19.999999999999996 0 0 0 1 2.5 -12.247448713915887 0 1 I I #
straight-curve $-1 -1 $-1 -77.5 0 77.5 0 -1 0 I I #
point $-1 -1 $-1 -77.5 20.000000000000018 -77.5 #
straight-curve $-1 -1 $-1 -77.5 0 -77.5 0 1 0 I I #
straight-curve $-1 -1 $-1 -70.000000000000014 39.999999999999964 -1.7144488953513285e-014 2.5881904510252047 -9.6592582628906847 6.3390289424557394e-016 I I #
ellipse-curve $-1 -1 $-1 0 30.110648085351439 0 -1.7143715943230848e-015 -1 -2.0994303472206483e-031 -67.350156140802511 1.1546319456101628e-013 -8.2477429140955959e-015 1 I I #
point $-1 -1 $-1 67.350156140802511 30.110648085351556 0 #
ellipse-curve $-1 -1 $-1 0 30.110648085351439 0 1.7143715943230848e-015 -1 0 67.350156140802511 1.1546319456101628e-013 0 1 I I #
point $-1 -1 $-1 -67.350156140802738 30.1106480853514 8.2477429140956227e-015 #
End-of-ACIS-data 