600 0 1 0           
98 GICL Pro/E ACIS Translator - Source: f:/data5/repository/PTC/V18/asmdes18/parts/outer_bb.prt - 6 0 13 ACIS 6.0.3 NT 24 Thu Apr 04 13:45:27 2002 
1 9.9999999999999995e-007 1e-010 
body $-1 $1 $-1 $2 #
lump $-1 $-1 $3 $0 #
transform $-1 1 0 0 0 1 0 0 0 1 0 0 0 10 no_rotate no_reflect no_shear #
shell $-1 $-1 $-1 $4 $-1 $1 #
face $-1 $5 $6 $3 $-1 $7 forward single #
face $-1 $8 $9 $3 $-1 $10 forward single #
loop $-1 $11 $12 $4 #
plane-surface $-1 0 0 0 0 -1 0 -1 0 0 forward_v I I I I #
face $-1 $13 $14 $3 $-1 $15 forward single #
loop $-1 $-1 $16 $5 #
cone-surface $-1 0 -11.55736835487437 0 0 -1 0 -0.57735026918962529 0 0 1 I I -0.49999999999999967 0.86602540378443882 0.57735026918962529 forward I I I I #
loop $-1 $-1 $17 $4 #
coedge $-1 $18 $18 $16 $19 reversed $6 $-1 #
face $-1 $20 $21 $3 $-1 $22 forward single #
loop $-1 $-1 $23 $8 #
cone-surface $-1 0 -11.55736835487437 0 0 -1 0 -0.57735026918962529 0 0 1 I I -0.49999999999999967 0.86602540378443882 0.57735026918962529 forward I I I I #
coedge $-1 $24 $25 $12 $19 forward $9 $-1 #
coedge $-1 $26 $26 $27 $28 reversed $11 $-1 #
coedge $-1 $12 $12 $29 $30 forward $6 $-1 #
edge $-1 $31 0 $32 3.1415926535897931 $12 $33 forward 7 unknown #
face $-1 $34 $35 $3 $-1 $36 forward single #
loop $-1 $-1 $37 $13 #
cone-surface $-1 0 4.1999999999999993 0 0 -1 0 -7.75 0 0 1 I I 0 1 7.75 forward I I I I #
coedge $-1 $38 $39 $40 $41 forward $14 $-1 #
coedge $-1 $42 $16 $38 $43 forward $9 $-1 #
coedge $-1 $16 $42 $39 $44 reversed $9 $-1 #
coedge $-1 $17 $17 $45 $46 forward $11 $-1 #
coedge $-1 $47 $48 $17 $28 forward $49 $-1 #
edge $-1 $50 0 $51 3.1415926535897931 $17 $52 forward 7 unknown #
coedge $-1 $39 $38 $18 $30 reversed $14 $-1 #
edge $-1 $31 0 $32 3.1415926535897931 $18 $53 forward 7 unknown #
vertex $-1 $30 $54 #
vertex $-1 $30 $55 #
ellipse-curve $-1 0 0 -6.6613381477509392e-016 0 1 0 7.2499999999999991 0 1.5539734212963174e-015 1 I I #
face $-1 $56 $57 $3 $-1 $58 reversed single #
loop $-1 $-1 $59 $20 #
cone-surface $-1 0 15.55736835487437 0 0 1 0 -0.57735026918962529 0 0 1 I I -0.49999999999999967 0.86602540378443882 0.57735026918962529 forward I I I I #
coedge $-1 $60 $61 $62 $63 forward $21 $-1 #
coedge $-1 $29 $23 $24 $43 reversed $14 $-1 #
coedge $-1 $23 $29 $25 $44 forward $14 $-1 #
coedge $-1 $61 $60 $23 $41 reversed $21 $-1 #
edge $-1 $64 0 $65 3.1415926535897931 $23 $66 forward 7 unknown #
coedge $-1 $25 $24 $67 $68 reversed $9 $-1 #
edge $-1 $32 -2.1745080466420975e-031 $65 1.0000000000000004 $38 $69 forward 7 unknown #
edge $-1 $31 0 $64 1.0000000000000011 $39 $70 forward 7 unknown #
coedge $-1 $71 $72 $26 $46 reversed $73 $-1 #
edge $-1 $50 0 $51 3.1415926535897931 $26 $74 forward 7 unknown #
coedge $-1 $75 $27 $72 $76 reversed $49 $-1 #
coedge $-1 $27 $75 $71 $77 forward $49 $-1 #
loop $-1 $-1 $48 $78 #
vertex $-1 $46 $79 #
vertex $-1 $46 $80 #
ellipse-curve $-1 0 0 0 0 -1 0 6.25 0 0 1 I I #
ellipse-curve $-1 0 0 -6.6613381477509392e-016 0 -1 0 7.2499999999999991 0 1.5539734212963174e-015 1 I I #
point $-1 7.2499999999999991 0 8.8783960652122351e-016 #
point $-1 -7.2499999999999991 0 0 #
face $-1 $81 $82 $3 $-1 $83 reversed single #
loop $-1 $84 $85 $34 #
plane-surface $-1 0 4 0 0 -1 0 -1 0 0 forward_v I I I I #
coedge $-1 $86 $87 $88 $89 forward $35 $-1 #
coedge $-1 $40 $37 $90 $91 reversed $21 $-1 #
coedge $-1 $37 $40 $92 $93 forward $21 $-1 #
coedge $-1 $87 $86 $37 $63 reversed $35 $-1 #
edge $-1 $94 0 $95 3.1415926535897931 $37 $96 forward 7 unknown #
vertex $-1 $44 $97 #
vertex $-1 $43 $98 #
ellipse-curve $-1 4.4408920985006262e-016 0.86602540378443837 0 0 -1 0 7.75 0 9.4906992421234238e-016 1 I I #
coedge $-1 $90 $92 $42 $68 forward $99 $-1 #
edge $-1 $64 0 $65 3.1415926535897931 $42 $100 forward 7 unknown #
straight-curve $-1 -7.2499999999999991 0 -1.775679213042447e-015 -0.50000000000000044 0.86602540378443849 -1.2246063538223763e-016 I I #
straight-curve $-1 7.2499999999999991 0 8.8783960652122351e-016 0.50000000000000044 0.86602540378443849 6.1230317691118814e-017 I I #
coedge $-1 $101 $45 $48 $77 reversed $73 $-1 #
coedge $-1 $45 $101 $47 $76 forward $73 $-1 #
loop $-1 $-1 $72 $102 #
ellipse-curve $-1 0 0 0 0 1 0 6.25 0 0 1 I I #
coedge $-1 $48 $47 $103 $104 reversed $49 $-1 #
edge $-1 $105 -6.6613381477509392e-016 $51 0.77525512860841017 $47 $106 forward 7 unknown #
edge $-1 $107 -6.6613381477509392e-016 $50 0.77525512860841017 $48 $108 forward 7 unknown #
face $-1 $109 $49 $3 $-1 $110 reversed single #
point $-1 6.25 0 0 #
point $-1 -6.25 0 0 #
face $-1 $111 $112 $3 $-1 $113 reversed single #
loop $-1 $-1 $114 $56 #
cone-surface $-1 0 -21.124355652982175 0 0 -1 0 -0.26794919243112236 0 0 1 I I -0.25881904510252046 0.96592582628906831 0.26794919243112236 forward I I I I #
loop $-1 $-1 $88 $34 #
coedge $-1 $115 $115 $116 $117 reversed $57 $-1 #
coedge $-1 $62 $59 $118 $119 reversed $35 $-1 #
coedge $-1 $59 $62 $120 $121 forward $35 $-1 #
coedge $-1 $122 $122 $59 $89 reversed $84 $-1 #
edge $-1 $123 1.2246063538223775e-016 $124 3.1415926535897931 $59 $125 forward 7 unknown #
coedge $-1 $126 $67 $60 $91 forward $99 $-1 #
edge $-1 $65 0 $95 2.2679491924311224 $60 $127 forward 7 unknown #
coedge $-1 $67 $126 $61 $93 reversed $99 $-1 #
edge $-1 $64 8.8817841970012523e-016 $94 2.2679491924311215 $61 $128 forward 7 unknown #
vertex $-1 $93 $129 #
vertex $-1 $91 $130 #
ellipse-curve $-1 4.4408920985006262e-016 3.1339745962155598 0 1.1460366705808067e-016 -1 1.4034437885066987e-032 7.75 8.8817841970012523e-016 9.4906992421234238e-016 1 I I #
point $-1 7.75 0.86602540378443926 9.4906992421234238e-016 #
point $-1 -7.75 0.86602540378443837 -1.8981398484246848e-015 #
loop $-1 $-1 $67 $131 #
ellipse-curve $-1 -2.2204460492503131e-016 0.86602540378443837 -2.2204460492503131e-016 0 1 0 7.75 0 1.1711145291373737e-015 1 I I #
coedge $-1 $72 $71 $132 $133 reversed $73 $-1 #
face $-1 $78 $73 $3 $-1 $134 reversed single #
coedge $-1 $135 $136 $75 $104 forward $137 $-1 #
edge $-1 $107 0 $105 3.1415926535897931 $75 $138 forward 7 unknown #
vertex $-1 $104 $139 #
straight-curve $-1 -6.25 0.77525512860841017 -1.5307579422779716e-015 0 -1 0 I I #
vertex $-1 $104 $140 #
straight-curve $-1 6.25 0.77525512860841017 7.6537897113898579e-016 0 -1 0 I I #
face $-1 $131 $141 $3 $-1 $142 forward single #
cone-surface $-1 0 4.1999999999999993 0 0 -1 0 -6.25 0 0 1 I I 0 1 6.25 forward I I I I #
face $-1 $143 $137 $3 $-1 $144 reversed single #
loop $-1 $-1 $145 $81 #
cone-surface $-1 0 -21.124355652982175 0 0 -1 0 -0.26794919243112236 0 0 1 I I -0.25881904510252046 0.96592582628906831 0.26794919243112236 forward I I I I #
coedge $-1 $116 $146 $147 $148 reversed $82 $-1 #
coedge $-1 $85 $85 $149 $150 forward $57 $-1 #
coedge $-1 $151 $114 $85 $117 forward $82 $-1 #
edge $-1 $152 0 $153 3.1415926535897931 $85 $154 forward 7 unknown #
coedge $-1 $155 $156 $86 $119 forward $141 $-1 #
edge $-1 $95 0 $124 1.0000000000000007 $86 $157 forward 7 unknown #
coedge $-1 $156 $155 $87 $121 reversed $141 $-1 #
edge $-1 $94 -7.6918507455342543e-016 $123 1.0000000000000011 $87 $158 forward 7 unknown #
coedge $-1 $88 $88 $155 $159 forward $84 $-1 #
vertex $-1 $121 $160 #
vertex $-1 $119 $161 #
ellipse-curve $-1 0 4 0 0 -1 0 7.25 0 0 1 I I #
coedge $-1 $92 $90 $156 $162 reversed $99 $-1 #
straight-curve $-1 -7.75 0.86602540378443837 -1.8981398484246848e-015 0 1 0 I I #
straight-curve $-1 7.75 0.86602540378443837 9.4906992421234238e-016 0 1 0 I I #
point $-1 7.75 3.1339745962155598 9.4906992421234238e-016 #
point $-1 -7.75 3.1339745962155607 -1.8981398484246848e-015 #
face $-1 $-1 $99 $3 $-1 $163 forward single #
coedge $-1 $164 $165 $101 $133 forward $166 $-1 #
edge $-1 $105 -2.4492127076447545e-016 $107 3.1415926535897931 $101 $167 forward 7 unknown #
cone-surface $-1 0 4.1999999999999993 0 0 -1 0 -6.25 0 0 1 I I 0 1 6.25 forward I I I I #
coedge $-1 $168 $103 $165 $169 forward $137 $-1 #
coedge $-1 $103 $168 $164 $170 reversed $137 $-1 #
loop $-1 $-1 $136 $111 #
ellipse-curve $-1 0 0.77525512860841084 0 0 -1 0 6.25 0 0 1 I I #
point $-1 -6.25 0.77525512860841084 7.6537897113898579e-016 #
point $-1 6.25 0.77525512860841084 0 #
loop $-1 $-1 $156 $109 #
cone-surface $-1 0 15.55736835487437 0 0 1 0 -0.57735026918962529 0 0 1 I I -0.49999999999999967 0.86602540378443882 0.57735026918962529 forward I I I I #
face $-1 $102 $166 $3 $-1 $171 reversed single #
torus-surface $-1 0 2 0 0 1 0 6 1.25 1 0 0 forward_v I I I I #
coedge $-1 $149 $172 $151 $173 reversed $112 $-1 #
coedge $-1 $114 $151 $174 $175 forward $82 $-1 #
coedge $-1 $172 $149 $114 $148 forward $112 $-1 #
edge $-1 $152 0 $176 1.023821047692842 $147 $177 forward 7 unknown #
coedge $-1 $147 $145 $115 $150 reversed $112 $-1 #
edge $-1 $152 0 $153 3.1415926535897931 $115 $178 forward 7 unknown #
coedge $-1 $146 $116 $145 $173 forward $82 $-1 #
vertex $-1 $150 $179 #
vertex $-1 $150 $180 #
ellipse-curve $-1 0 4 -6.6613381477509392e-016 5.0753052554292858e-016 1 1.1045011707597082e-031 7.0000000000000009 -3.5527136788005009e-015 1.523358262450758e-015 1 I I #
coedge $-1 $120 $118 $122 $159 reversed $141 $-1 #
coedge $-1 $118 $120 $126 $162 forward $141 $-1 #
straight-curve $-1 -7.75 3.1339745962155607 -1.8981398484246848e-015 0.50000000000000044 0.86602540378443849 1.2246063538223763e-016 I I #
straight-curve $-1 7.75 3.1339745962155607 9.4906992421234238e-016 -0.50000000000000044 0.86602540378443849 -6.1230317691118814e-017 I I #
edge $-1 $123 -1.2246063538223775e-016 $124 3.1415926535897931 $122 $181 forward 7 unknown #
point $-1 7.2499999999999991 4 8.8783960652122351e-016 #
point $-1 -7.25 4 0 #
edge $-1 $94 0 $95 3.1415926535897931 $126 $182 forward 7 unknown #
cone-surface $-1 0 4.1999999999999993 0 0 -1 0 -7.75 0 0 1 I I 0 1 7.75 forward I I I I #
coedge $-1 $174 $132 $136 $170 forward $166 $-1 #
coedge $-1 $132 $174 $135 $169 reversed $166 $-1 #
loop $-1 $-1 $165 $143 #
ellipse-curve $-1 0 0.77525512860841084 0 0 -1 0 -6.25 0 -7.6537897113898579e-016 1 I I #
coedge $-1 $136 $135 $172 $183 reversed $137 $-1 #
edge $-1 $105 0 $184 2.3116352905954005 $165 $185 forward 7 unknown #
edge $-1 $107 0 $176 2.3116352905954223 $164 $186 forward 7 unknown #
torus-surface $-1 0 2 0 0 1 0 6 1.25 1 0 0 forward_v I I I I #
coedge $-1 $145 $147 $168 $183 forward $112 $-1 #
edge $-1 $153 1.086794116799334e-031 $184 1.0238210476928513 $145 $187 forward 7 unknown #
coedge $-1 $165 $164 $146 $175 reversed $166 $-1 #
edge $-1 $184 -2.449212707644754e-016 $176 3.1415926535897931 $146 $188 forward 7 unknown #
vertex $-1 $183 $189 #
straight-curve $-1 7.0000000000000009 3.9999999999999964 8.5722444767566418e-016 -0.25881904510252091 -0.96592582628906831 -3.1695144712278726e-017 I I #
ellipse-curve $-1 0 4 -6.6613381477509392e-016 -5.0753052554292858e-016 -1 -1.1045011707597082e-031 7.0000000000000009 -3.5527136788005009e-015 1.523358262450758e-015 1 I I #
point $-1 7.0000000000000009 3.9999999999999964 8.5722444767566418e-016 #
point $-1 -7.0000000000000009 3.9999999999999964 0 #
ellipse-curve $-1 0 4 0 0 1 0 7.25 0 0 1 I I #
ellipse-curve $-1 -2.2204460492503131e-016 3.1339745962155598 -2.2204460492503131e-016 -1.1460366705808067e-016 1 -1.7317938010856837e-032 7.75 8.8817841970012523e-016 1.1711145291373737e-015 1 I I #
edge $-1 $176 0 $184 3.1415926535897931 $172 $190 forward 7 unknown #
vertex $-1 $183 $191 #
ellipse-curve $-1 -6 2.0000000000000004 7.3476381229342635e-016 -1.2246063538223773e-016 0 -1 -0.25 -1.2247448713915896 3.0615158845559431e-017 1 I I #
ellipse-curve $-1 6 1.9999999999999996 0 0 0 1 0.25 -1.2247448713915887 0 1 I I #
straight-curve $-1 -7.0000000000000009 3.9999999999999964 -1.7144488953513284e-015 0.25881904510252046 -0.96592582628906842 6.3390289424557391e-017 I I #
ellipse-curve $-1 0 3.0110648085351439 0 -1.7143715943230848e-015 -1 -2.0994303472206483e-031 -6.7350156140802513 1.1546319456101628e-014 -8.2477429140955955e-016 1 I I #
point $-1 6.7350156140802513 3.0110648085351555 0 #
ellipse-curve $-1 0 3.0110648085351439 0 1.7143715943230848e-015 -1 0 6.7350156140802513 1.1546319456101628e-014 0 1 I I #
point $-1 -6.7350156140802735 3.0110648085351399 8.2477429140956221e-016 #
End-of-ACIS-data 