700 0 2 0           
24 FBMach with ACIS - 7.0.3 13 ACIS 7.0.3 NT 24 Thu May 16 15:55:42 2002 
1 9.9999999999999995e-007 1e-010 
body $2 -1 $-1 $3 $-1 $4 #
bdycol-kcp $-1 -1 1 2 $5 $6 #
model_id-kcp-attrib $-1 -1 $-1 $-1 $0 1 1021578942 1021578942 982122497 1 #
lump $-1 -1 $-1 $-1 $7 $0 #
transform $-1 -1 1 0 0 0 1 0 0 0 1 0 0 0 1 rotate no_reflect no_shear #
body $8 -1 $-1 $9 $-1 $10 #
body $11 -1 $-1 $12 $-1 $13 #
shell $-1 -1 $-1 $-1 $-1 $14 $-1 $3 #
model_id-kcp-attrib $-1 -1 $-1 $-1 $5 1 1021578942 1021578942 982122498 1 #
lump $-1 -1 $-1 $-1 $15 $5 #
transform $-1 -1 1 0 0 0 1 0 0 0 1 -8.8817841970012523e-016 85 0 1 no_rotate no_reflect no_shear #
rgb_color-st-attrib $-1 -1 $16 $-1 $6 0.5 1 1 #
lump $-1 -1 $-1 $-1 $17 $6 #
transform $-1 -1 1 0 0 0 1 0 0 0 1 -8.8817841970012523e-016 85 0 1 no_rotate no_reflect no_shear #
face $18 -1 $-1 $19 $20 $7 $-1 $21 reversed single #
shell $-1 -1 $-1 $-1 $-1 $22 $-1 $9 #
model_id-kcp-attrib $-1 -1 $-1 $11 $6 1 1021578942 1021578942 988676099 1 #
shell $-1 -1 $-1 $-1 $-1 $23 $-1 $12 #
model_id-kcp-attrib $-1 -1 $-1 $-1 $14 1 1021578942 1021578942 982122497 2 #
face $24 -1 $-1 $25 $26 $7 $-1 $27 forward single #
loop $-1 -1 $-1 $-1 $28 $14 #
plane-surface $-1 -1 $-1 0 0 0 0 1 0 10 0 0 forward_v I I I I #
face $-1 -1 $-1 $29 $30 $15 $-1 $31 forward single #
face $-1 -1 $-1 $32 $33 $17 $-1 $34 reversed single #
model_id-kcp-attrib $-1 -1 $-1 $-1 $19 1 1021578942 1021578942 982122497 3 #
face $35 -1 $-1 $36 $37 $7 $-1 $38 forward single #
loop $-1 -1 $-1 $-1 $39 $19 #
cone-surface $-1 -1 $-1 0 0 0 0 -1 0 9.9999999999999982 0 0 1 I I -0.70710678118654746 0.70710678118654757 9.9999999999999982 forward I I I I #
coedge $-1 -1 $-1 $40 $40 $41 $42 reversed $20 $-1 #
face $-1 -1 $-1 $43 $44 $15 $-1 $45 reversed single #
loop $-1 -1 $-1 $-1 $46 $22 #
plane-surface $-1 -1 $-1 0 0 15.000000000000002 0 0 1 1 0 0 forward_v I I I I #
face $-1 -1 $-1 $47 $48 $17 $-1 $34 reversed single #
loop $-1 -1 $-1 $-1 $49 $23 #
cone-surface $-1 -1 $-1 -8.8817841970012563e-016 -85 2.2204460492503131e-015 0 -1 0 15.000000000000004 0 -2.2204460492503127e-015 1 I I 0 1 15.000000000000004 forward I I I I #
model_id-kcp-attrib $-1 -1 $-1 $-1 $25 1 1021578942 1021578942 982122497 4 #
face $50 -1 $-1 $51 $52 $7 $-1 $53 forward single #
loop $-1 -1 $-1 $-1 $54 $25 #
cone-surface $-1 -1 $-1 0 0 0 0 -1 0 9.9999999999999982 0 0 1 I I -0.70710678118654746 0.70710678118654757 9.9999999999999982 forward I I I I #
coedge $-1 -1 $-1 $55 $41 $56 $57 forward $26 $-1 #
coedge $-1 -1 $-1 $28 $28 $58 $59 reversed $20 $-1 #
coedge $-1 -1 $-1 $39 $60 $28 $42 forward $26 $-1 #
edge $61 -1 $-1 $62 -8.8817841970012523e-016 $63 3.1415926535897931 $28 $64 forward @7 unknown #
face $65 -1 $-1 $66 $67 $15 $-1 $68 reversed single #
loop $-1 -1 $-1 $-1 $69 $29 #
plane-surface $-1 -1 $-1 0 0 -15.000000000000002 0 0 1 1 0 0 forward_v I I I I #
coedge $-1 -1 $-1 $70 $71 $72 $73 forward $30 $-1 #
face $-1 -1 $-1 $74 $75 $17 $-1 $34 reversed single #
loop $-1 -1 $-1 $-1 $76 $32 #
coedge $-1 -1 $-1 $77 $78 $79 $80 reversed $33 $-1 #
model_id-kcp-attrib $-1 -1 $-1 $-1 $36 1 1021578942 1021578942 982122497 5 #
face $81 -1 $-1 $82 $83 $7 $-1 $84 forward single #
loop $-1 -1 $-1 $-1 $85 $36 #
cone-surface $-1 -1 $-1 0 0 0 0 1 0 15 0 0 1 I I 0 1 15 forward I I I I #
coedge $-1 -1 $-1 $86 $58 $60 $87 forward $37 $-1 #
coedge $-1 -1 $-1 $60 $39 $88 $89 reversed $26 $-1 #
coedge $-1 -1 $-1 $58 $86 $39 $57 reversed $37 $-1 #
edge $-1 -1 $-1 $63 0 $90 0.70710678118654757 $39 $91 forward @7 unknown #
coedge $-1 -1 $-1 $54 $56 $40 $59 forward $37 $-1 #
edge $92 -1 $-1 $63 0 $62 3.1415926535897922 $40 $93 forward @7 unknown #
coedge $-1 -1 $-1 $41 $55 $54 $87 reversed $26 $-1 #
attrib_edge_convexity-kcp-attrib $-1 -1 $94 $-1 $42 1 #
vertex $-1 -1 $-1 $59 $95 #
vertex $-1 -1 $-1 $59 $96 #
ellipse-curve $-1 -1 $-1 5.5511151231257827e-016 0 0 0 1 0 -10 0 -1.2246063538223771e-015 1 I I #
model_id-kcp-attrib $-1 -1 $-1 $-1 $43 1 1021578942 1021578942 982122498 2 #
face $-1 -1 $-1 $97 $98 $15 $-1 $99 reversed single #
loop $-1 -1 $-1 $-1 $100 $43 #
plane-surface $-1 -1 $-1 0 -85 0 0 1 0 0 0 1 forward_v I I I I #
coedge $-1 -1 $-1 $101 $102 $103 $104 forward $44 $-1 #
coedge $-1 -1 $-1 $105 $46 $106 $107 forward $30 $-1 #
coedge $-1 -1 $-1 $46 $105 $108 $109 forward $30 $-1 #
coedge $-1 -1 $-1 $110 $111 $46 $73 reversed $112 $-1 #
edge $-1 -1 $-1 $113 -85 $114 85 $72 $115 forward @7 unknown #
face $-1 -1 $-1 $116 $117 $17 $-1 $34 reversed single #
loop $-1 -1 $-1 $-1 $118 $47 #
coedge $-1 -1 $-1 $119 $120 $121 $122 reversed $48 $-1 #
coedge $-1 -1 $-1 $123 $49 $124 $125 forward $33 $-1 #
coedge $-1 -1 $-1 $49 $123 $126 $127 reversed $33 $-1 #
coedge $-1 -1 $-1 $128 $129 $49 $80 forward $130 $-1 #
edge $-1 -1 $-1 $131 1.4802973661668748e-016 $132 1.5707963267948968 $79 $133 forward @7 unknown #
model_id-kcp-attrib $-1 -1 $-1 $-1 $51 1 1021578942 1021578942 982122497 6 #
face $134 -1 $-1 $135 $136 $7 $-1 $137 forward single #
loop $-1 -1 $-1 $-1 $138 $51 #
cone-surface $-1 -1 $-1 0 0 0 0 1 0 15 0 0 1 I I 0 1 15 forward I I I I #
coedge $-1 -1 $-1 $139 $140 $141 $142 forward $52 $-1 #
coedge $-1 -1 $-1 $56 $54 $140 $143 reversed $37 $-1 #
edge $-1 -1 $-1 $62 2.9132218548244601e-032 $144 0.70710678118654757 $60 $145 forward @7 unknown #
coedge $-1 -1 $-1 $138 $141 $55 $89 forward $83 $-1 #
edge $-1 -1 $-1 $144 -4.4408920985006257e-016 $90 3.1415926535897936 $88 $146 forward @7 unknown #
vertex $-1 -1 $-1 $143 $147 #
straight-curve $-1 -1 $-1 9.9999999999999982 0 0 7.0710678118654746 7.0710678118654755 0 I I #
attrib_edge_convexity-kcp-attrib $-1 -1 $148 $-1 $59 1 #
ellipse-curve $-1 -1 $-1 -2.7755575615628914e-016 0 2.7755575615628914e-016 0 1 0 9.9999999999999982 0 -2.7755575615628914e-016 1 I I #
convexity-sys-attrib $-1 -1 $-1 $61 $42 #
point $-1 -1 $-1 -9.9999999999999982 0 -1.0106390550823628e-014 #
point $-1 -1 $-1 9.9999999999999982 0 0 #
face $149 -1 $-1 $150 $151 $15 $-1 $152 reversed single #
loop $-1 -1 $-1 $-1 $153 $66 #
plane-surface $-1 -1 $-1 -15.000000000000004 0 0 1 0 0 0 0 -1 forward_v I I I I #
coedge $-1 -1 $-1 $154 $108 $155 $156 forward $67 $-1 #
coedge $-1 -1 $-1 $157 $69 $154 $158 forward $44 $-1 #
coedge $-1 -1 $-1 $69 $157 $159 $160 forward $44 $-1 #
coedge $-1 -1 $-1 $111 $110 $69 $104 reversed $112 $-1 #
edge $-1 -1 $-1 $161 -85 $162 85 $103 $163 forward @7 unknown #
coedge $-1 -1 $-1 $71 $70 $164 $165 forward $30 $-1 #
coedge $-1 -1 $-1 $166 $167 $70 $107 reversed $151 $-1 #
edge $-1 -1 $-1 $114 -15.000000000000004 $168 15.000000000000004 $106 $169 forward @7 unknown #
coedge $-1 -1 $-1 $100 $170 $71 $109 reversed $67 $-1 #
edge $-1 -1 $-1 $171 -15.000000000000004 $113 15.000000000000004 $108 $172 forward @7 unknown #
coedge $-1 -1 $-1 $103 $72 $170 $173 forward $112 $-1 #
coedge $-1 -1 $-1 $72 $103 $166 $174 reversed $112 $-1 #
loop $-1 -1 $-1 $-1 $110 $150 #
vertex $-1 -1 $-1 $73 $175 #
vertex $-1 -1 $-1 $73 $176 #
straight-curve $-1 -1 $-1 15.000000000000004 0 15.000000000000002 0 1 0 I I #
face $-1 -1 $-1 $177 $178 $17 $-1 $179 forward single #
loop $-1 -1 $-1 $-1 $180 $74 #
coedge $-1 -1 $-1 $181 $182 $180 $183 forward $75 $-1 #
coedge $-1 -1 $-1 $184 $76 $185 $186 reversed $48 $-1 #
coedge $-1 -1 $-1 $76 $184 $78 $127 forward $48 $-1 #
coedge $-1 -1 $-1 $187 $188 $76 $122 forward $189 $-1 #
edge $-1 -1 $-1 $190 -3.1415926535897931 $191 -1.5707963267948968 $121 $192 forward @7 unknown #
coedge $-1 -1 $-1 $78 $77 $193 $194 reversed $33 $-1 #
coedge $-1 -1 $-1 $182 $181 $195 $125 reversed $75 $-1 #
edge $-1 -1 $-1 $131 -170 $196 0 $195 $197 forward @7 unknown #
coedge $-1 -1 $-1 $198 $199 $200 $127 forward $201 $-1 #
edge $-1 -1 $-1 $132 -170 $191 0 $126 $202 forward @7 unknown #
coedge $-1 -1 $-1 $129 $79 $199 $203 reversed $130 $-1 #
coedge $-1 -1 $-1 $79 $128 $204 $205 forward $130 $-1 #
loop $-1 -1 $-1 $-1 $79 $206 #
vertex $-1 -1 $-1 $207 $208 #
vertex $-1 -1 $-1 $209 $210 #
ellipse-curve $-1 -1 $-1 -8.8817841970012563e-016 85 2.2204460492503131e-015 0 -1 0 15.000000000000004 0 -2.2204460492503127e-015 1 I I #
model_id-kcp-attrib $-1 -1 $-1 $-1 $82 1 1021578942 1021578942 982122497 7 #
face $211 -1 $-1 $212 $213 $7 $-1 $214 forward single #
loop $-1 -1 $-1 $-1 $215 $82 #
cone-surface $-1 -1 $-1 0 170 0 0 1 0 10.000000000000002 0 0 1 I I -0.70710678118654757 0.70710678118654746 10.000000000000002 forward I I I I #
coedge $-1 -1 $-1 $216 $88 $217 $218 forward $83 $-1 #
coedge $-1 -1 $-1 $217 $85 $219 $220 reversed $52 $-1 #
coedge $-1 -1 $-1 $85 $217 $86 $143 forward $52 $-1 #
coedge $-1 -1 $-1 $88 $216 $85 $142 reversed $83 $-1 #
edge $-1 -1 $-1 $144 0 $221 16 $85 $222 forward @7 unknown #
edge $-1 -1 $-1 $90 0 $144 3.1415926535897927 $140 $223 forward @7 unknown #
vertex $-1 -1 $-1 $143 $224 #
straight-curve $-1 -1 $-1 -9.9999999999999982 0 -7.6571778431788735e-015 -7.0710678118654746 7.0710678118654755 -1.1894523679921261e-015 I I #
ellipse-curve $-1 -1 $-1 5.5511151231257827e-016 5 2.7755575615628914e-015 0 1 0 -14.999999999999998 0 -4.6124670922964572e-015 1 I I #
point $-1 -1 $-1 14.999999999999998 5 0 #
convexity-sys-attrib $-1 -1 $-1 $92 $59 #
model_id-kcp-attrib $-1 -1 $-1 $-1 $97 1 1021578942 1021578942 982122498 3 #
face $-1 -1 $-1 $-1 $112 $15 $-1 $225 reversed single #
loop $-1 -1 $-1 $-1 $166 $97 #
plane-surface $-1 -1 $-1 0 85 0 0 -1 0 0 0 -1 forward_v I I I I #
coedge $-1 -1 $-1 $226 $164 $167 $227 forward $98 $-1 #
coedge $-1 -1 $-1 $170 $100 $101 $158 reversed $67 $-1 #
coedge $-1 -1 $-1 $164 $226 $100 $156 reversed $98 $-1 #
edge $-1 -1 $-1 $171 -15.000000000000002 $228 15.000000000000002 $155 $229 forward @7 unknown #
coedge $-1 -1 $-1 $102 $101 $226 $230 forward $44 $-1 #
edge $-1 -1 $-1 $162 -15.000000000000004 $228 15.000000000000004 $154 $231 forward @7 unknown #
coedge $-1 -1 $-1 $167 $166 $102 $160 reversed $151 $-1 #
edge $-1 -1 $-1 $232 -15.000000000000004 $161 15.000000000000004 $159 $233 forward @7 unknown #
vertex $-1 -1 $-1 $104 $234 #
vertex $-1 -1 $-1 $173 $235 #
straight-curve $-1 -1 $-1 15.000000000000004 0 -15.000000000000002 0 -1 0 I I #
coedge $-1 -1 $-1 $153 $155 $105 $165 reversed $98 $-1 #
edge $-1 -1 $-1 $168 -85 $171 85 $164 $236 forward @7 unknown #
coedge $-1 -1 $-1 $159 $106 $111 $174 forward $151 $-1 #
coedge $-1 -1 $-1 $106 $159 $153 $227 reversed $151 $-1 #
vertex $-1 -1 $-1 $107 $237 #
straight-curve $-1 -1 $-1 0 85 15.000000000000002 -1 0 0 I I #
coedge $-1 -1 $-1 $108 $154 $110 $173 reversed $67 $-1 #
vertex $-1 -1 $-1 $165 $238 #
straight-curve $-1 -1 $-1 0 -85 15.000000000000002 1 0 0 I I #
edge $-1 -1 $-1 $113 -15.000000000000002 $162 15.000000000000002 $110 $239 forward @7 unknown #
edge $-1 -1 $-1 $114 -15.000000000000002 $161 15.000000000000002 $111 $240 forward @7 unknown #
point $-1 -1 $-1 15.000000000000004 -85 15.000000000000002 #
point $-1 -1 $-1 15.000000000000004 85 15.000000000000002 #
face $-1 -1 $-1 $241 $242 $17 $-1 $243 reversed single #
loop $-1 -1 $-1 $-1 $200 $116 #
plane-surface $-1 -1 $-1 0 0 15.000000000000002 0 0 1 1 0 0 forward_v I I I I #
coedge $-1 -1 $-1 $244 $245 $246 $183 reversed $117 $-1 #
coedge $-1 -1 $-1 $124 $118 $247 $248 reversed $75 $-1 #
coedge $-1 -1 $-1 $118 $124 $249 $250 reversed $75 $-1 #
edge $-1 -1 $-1 $251 -170 $252 0 $246 $253 forward @7 unknown #
coedge $-1 -1 $-1 $120 $119 $254 $255 reversed $48 $-1 #
coedge $-1 -1 $-1 $256 $257 $258 $186 forward $259 $-1 #
edge $-1 -1 $-1 $260 -170 $190 0 $185 $261 forward @7 unknown #
coedge $-1 -1 $-1 $188 $121 $262 $263 reversed $189 $-1 #
coedge $-1 -1 $-1 $121 $187 $256 $264 forward $189 $-1 #
loop $-1 -1 $-1 $-1 $121 $265 #
vertex $-1 -1 $-1 $266 $267 #
vertex $-1 -1 $-1 $268 $269 #
ellipse-curve $-1 -1 $-1 -8.8817841970012563e-016 -85 2.2204460492503131e-015 0 1 0 15.000000000000004 0 -2.2204460492503127e-015 1 I I #
coedge $-1 -1 $-1 $270 $271 $123 $194 forward $272 $-1 #
edge $-1 -1 $-1 $191 -1.5707963267948968 $196 -1.4802973661668748e-016 $193 $192 forward @7 unknown #
coedge $-1 -1 $-1 $273 $274 $275 $125 forward $242 $-1 #
vertex $-1 -1 $-1 $276 $277 #
straight-curve $-1 -1 $-1 15.000000000000004 -85 2.2204460492503131e-015 0 -1 0 I I #
coedge $-1 -1 $-1 $278 $126 $271 $268 forward $201 $-1 #
coedge $-1 -1 $-1 $126 $278 $128 $203 forward $201 $-1 #
coedge $-1 -1 $-1 $279 $262 $120 $127 reversed $178 $-1 #
loop $-1 -1 $-1 $-1 $126 $280 #
straight-curve $-1 -1 $-1 -8.8817841970012563e-016 -85 15.000000000000002 0 -1 0 I I #
edge $-1 -1 $-1 $281 -15.000000000000004 $132 8.8817841970012563e-016 $128 $282 forward @7 unknown #
coedge $-1 -1 $-1 $283 $275 $129 $205 reversed $284 $-1 #
edge $-1 -1 $-1 $281 -15.000000000000002 $131 -2.2204460492503131e-015 $204 $285 forward @7 unknown #
face $-1 -1 $-1 $286 $130 $17 $-1 $287 reversed single #
edge $-1 -1 $-1 $131 -2.2204460492503131e-015 $288 15.000000000000002 $274 $285 forward @7 unknown #
point $-1 -1 $-1 15.000000000000004 85 2.2204460492503131e-015 #
edge $-1 -1 $-1 $132 8.8817841970012563e-016 $289 15.000000000000004 $290 $282 forward @7 unknown #
point $-1 -1 $-1 -8.8817841970012563e-016 85 15.000000000000002 #
model_id-kcp-attrib $-1 -1 $-1 $-1 $135 1 1021578942 1021578942 982122497 8 #
face $291 -1 $-1 $-1 $292 $7 $-1 $293 forward single #
loop $-1 -1 $-1 $-1 $294 $135 #
cone-surface $-1 -1 $-1 0 170 0 0 1 0 10.000000000000002 0 0 1 I I -0.70710678118654757 0.70710678118654746 10.000000000000002 forward I I I I #
coedge $-1 -1 $-1 $295 $296 $297 $298 forward $136 $-1 #
coedge $-1 -1 $-1 $141 $138 $295 $299 reversed $83 $-1 #
coedge $-1 -1 $-1 $140 $139 $138 $218 reversed $52 $-1 #
edge $-1 -1 $-1 $90 0 $300 16 $217 $301 forward @7 unknown #
coedge $-1 -1 $-1 $297 $294 $139 $220 forward $213 $-1 #
edge $-1 -1 $-1 $300 -2.8048387741191514e-032 $221 3.1415926535897927 $139 $302 forward @7 unknown #
vertex $-1 -1 $-1 $220 $303 #
straight-curve $-1 -1 $-1 -15 5 -1.8369095307335659e-015 0 10 0 I I #
ellipse-curve $-1 -1 $-1 0 5 0 0 1 0 14.999999999999998 0 0 1 I I #
point $-1 -1 $-1 -14.999999999999998 5 -8.4982476784845036e-015 #
plane-surface $-1 -1 $-1 15.000000000000004 0 0 -1 0 0 0 0 1 forward_v I I I I #
coedge $-1 -1 $-1 $155 $153 $157 $230 reversed $98 $-1 #
edge $-1 -1 $-1 $168 -15.000000000000002 $232 15.000000000000002 $167 $304 forward @7 unknown #
vertex $-1 -1 $-1 $230 $305 #
straight-curve $-1 -1 $-1 -15.000000000000004 -85 0 0 0 -1 I I #
edge $-1 -1 $-1 $228 -85 $232 85 $226 $306 forward @7 unknown #
straight-curve $-1 -1 $-1 0 -85 -15.000000000000002 -1 0 0 I I #
vertex $-1 -1 $-1 $160 $307 #
straight-curve $-1 -1 $-1 0 85 -15.000000000000002 1 0 0 I I #
point $-1 -1 $-1 15.000000000000004 85 -15.000000000000002 #
point $-1 -1 $-1 15.000000000000004 -85 -15.000000000000002 #
straight-curve $-1 -1 $-1 -15.000000000000004 0 15.000000000000002 0 -1 0 I I #
point $-1 -1 $-1 -15.000000000000004 85 15.000000000000002 #
point $-1 -1 $-1 -15.000000000000004 -85 15.000000000000002 #
straight-curve $-1 -1 $-1 15.000000000000004 -85 0 0 0 -1 I I #
straight-curve $-1 -1 $-1 15.000000000000004 85 0 0 0 -1 I I #
face $-1 -1 $-1 $308 $309 $17 $-1 $310 reversed single #
loop $-1 -1 $-1 $-1 $195 $177 #
plane-surface $-1 -1 $-1 15.000000000000004 0 0 -1 0 0 0 0 1 forward_v I I I I #
coedge $-1 -1 $-1 $311 $180 $312 $313 reversed $117 $-1 #
coedge $-1 -1 $-1 $180 $311 $314 $315 reversed $117 $-1 #
coedge $-1 -1 $-1 $316 $317 $318 $183 forward $319 $-1 #
coedge $-1 -1 $-1 $320 $321 $181 $248 forward $322 $-1 #
edge $-1 -1 $-1 $196 -1.4802973661668748e-016 $252 1.5707963267948966 $247 $192 forward @7 unknown #
coedge $-1 -1 $-1 $323 $324 $182 $250 forward $325 $-1 #
edge $-1 -1 $-1 $251 -1.5707963267948966 $131 1.4802973661668748e-016 $249 $133 forward @7 unknown #
vertex $-1 -1 $-1 $326 $327 #
vertex $-1 -1 $-1 $328 $329 #
straight-curve $-1 -1 $-1 -8.8817841970012563e-016 -85 -15.000000000000002 0 -1 0 I I #
coedge $-1 -1 $-1 $330 $290 $184 $255 forward $331 $-1 #
edge $-1 -1 $-1 $132 1.5707963267948968 $260 3.1415926535897931 $254 $133 forward @7 unknown #
coedge $-1 -1 $-1 $332 $185 $188 $264 reversed $259 $-1 #
coedge $-1 -1 $-1 $185 $332 $330 $333 forward $259 $-1 #
coedge $-1 -1 $-1 $334 $335 $311 $186 reversed $309 $-1 #
loop $-1 -1 $-1 $-1 $185 $336 #
vertex $-1 -1 $-1 $337 $338 #
straight-curve $-1 -1 $-1 -15.000000000000004 -85 2.2204460492503131e-015 0 -1 0 I I #
coedge $-1 -1 $-1 $200 $339 $187 $263 forward $178 $-1 #
edge $-1 -1 $-1 $340 -15.000000000000004 $191 -8.8817841970012563e-016 $187 $341 forward @7 unknown #
edge $-1 -1 $-1 $340 -15.000000000000002 $190 -2.2204460492503131e-015 $256 $342 forward @7 unknown #
face $-1 -1 $-1 $343 $189 $17 $-1 $344 reversed single #
edge $-1 -1 $-1 $190 -2.2204460492503131e-015 $345 15.000000000000002 $335 $342 forward @7 unknown #
point $-1 -1 $-1 -15.000000000000004 -85 2.2204460492503131e-015 #
edge $-1 -1 $-1 $191 -8.8817841970012563e-016 $346 15.000000000000004 $271 $341 forward @7 unknown #
point $-1 -1 $-1 -8.8817841970012563e-016 -85 15.000000000000002 #
coedge $-1 -1 $-1 $271 $193 $347 $348 reversed $272 $-1 #
coedge $-1 -1 $-1 $193 $270 $198 $268 reversed $272 $-1 #
loop $-1 -1 $-1 $-1 $193 $343 #
coedge $-1 -1 $-1 $349 $195 $321 $276 forward $242 $-1 #
coedge $-1 -1 $-1 $195 $349 $323 $207 reversed $242 $-1 #
coedge $-1 -1 $-1 $204 $347 $77 $125 reversed $284 $-1 #
edge $-1 -1 $-1 $196 -2.2204460492503131e-015 $350 15.000000000000002 $273 $351 forward @7 unknown #
point $-1 -1 $-1 15.000000000000004 -85 2.2204460492503131e-015 #
coedge $-1 -1 $-1 $199 $198 $283 $352 forward $201 $-1 #
coedge $-1 -1 $-1 $339 $200 $290 $209 forward $178 $-1 #
face $-1 -1 $-1 $353 $201 $17 $-1 $179 forward single #
vertex $-1 -1 $-1 $352 $354 #
straight-curve $-1 -1 $-1 0 85 15.000000000000002 -1 0 0 I I #
coedge $-1 -1 $-1 $347 $204 $278 $352 reversed $284 $-1 #
loop $-1 -1 $-1 $-1 $275 $355 #
straight-curve $-1 -1 $-1 15.000000000000004 85 0 0 0 -1 I I #
face $-1 -1 $-1 $356 $331 $17 $-1 $287 reversed single #
plane-surface $-1 -1 $-1 0 85 0 0 -1 0 0 0 -1 forward_v I I I I #
vertex $-1 -1 $-1 $357 $358 #
vertex $-1 -1 $-1 $209 $359 #
coedge $-1 -1 $-1 $254 $330 $279 $209 reversed $331 $-1 #
model_id-kcp-attrib $-1 -1 $-1 $-1 $212 1 1021578942 1021578942 982122497 9 #
loop $-1 -1 $-1 $-1 $360 $212 #
plane-surface $-1 -1 $-1 0 170 0 0 1 0 10 0 0 forward_v I I I I #
coedge $-1 -1 $-1 $219 $361 $362 $363 forward $213 $-1 #
coedge $-1 -1 $-1 $362 $215 $216 $299 forward $136 $-1 #
coedge $-1 -1 $-1 $215 $362 $360 $364 reversed $136 $-1 #
coedge $-1 -1 $-1 $361 $219 $215 $298 reversed $213 $-1 #
edge $-1 -1 $-1 $365 0 $221 0.70710678118654768 $215 $366 forward @7 unknown #
edge $-1 -1 $-1 $221 5.2590727014734096e-033 $300 3.1415926535897931 $216 $367 forward @7 unknown #
vertex $-1 -1 $-1 $218 $368 #
straight-curve $-1 -1 $-1 15 5 0 0 10 0 I I #
ellipse-curve $-1 -1 $-1 -1.1102230246251565e-015 165 2.2204460492503131e-015 0 1 0 15.000000000000004 0 -2.2204460492503131e-015 1 I I #
point $-1 -1 $-1 -15.000000000000004 165 -1.8369095307335663e-015 #
straight-curve $-1 -1 $-1 -15.000000000000004 85 0 0 0 -1 I I #
point $-1 -1 $-1 -15.000000000000004 -85 -15.000000000000002 #
straight-curve $-1 -1 $-1 -15.000000000000004 0 -15.000000000000002 0 1 0 I I #
point $-1 -1 $-1 -15.000000000000004 85 -15.000000000000002 #
face $-1 -1 $-1 $265 $369 $17 $-1 $344 reversed single #
loop $-1 -1 $-1 $-1 $258 $241 #
plane-surface $-1 -1 $-1 -15.000000000000004 0 0 1 0 0 0 0 -1 forward_v I I I I #
coedge $-1 -1 $-1 $245 $244 $119 $186 forward $117 $-1 #
coedge $-1 -1 $-1 $370 $371 $244 $313 forward $372 $-1 #
edge $-1 -1 $-1 $260 -3.1415926535897931 $251 -1.5707963267948966 $312 $133 forward @7 unknown #
coedge $-1 -1 $-1 $373 $374 $245 $315 forward $369 $-1 #
edge $-1 -1 $-1 $252 1.5707963267948966 $190 3.1415926535897931 $314 $192 forward @7 unknown #
coedge $-1 -1 $-1 $375 $246 $374 $328 forward $319 $-1 #
coedge $-1 -1 $-1 $246 $375 $370 $376 forward $319 $-1 #
coedge $-1 -1 $-1 $377 $378 $118 $183 reversed $379 $-1 #
loop $-1 -1 $-1 $-1 $246 $353 #
coedge $-1 -1 $-1 $321 $247 $378 $380 reversed $322 $-1 #
coedge $-1 -1 $-1 $247 $320 $273 $276 reversed $322 $-1 #
loop $-1 -1 $-1 $-1 $247 $381 #
coedge $-1 -1 $-1 $324 $249 $274 $207 forward $325 $-1 #
coedge $-1 -1 $-1 $249 $323 $377 $326 reversed $325 $-1 #
loop $-1 -1 $-1 $-1 $249 $382 #
edge $-1 -1 $-1 $251 -8.8817841970012563e-016 $288 15.000000000000004 $324 $383 forward @7 unknown #
point $-1 -1 $-1 -8.8817841970012563e-016 85 -15.000000000000002 #
edge $-1 -1 $-1 $252 8.8817841970012563e-016 $345 15.000000000000004 $374 $384 forward @7 unknown #
point $-1 -1 $-1 -8.8817841970012563e-016 -85 -15.000000000000002 #
coedge $-1 -1 $-1 $290 $254 $257 $333 reversed $331 $-1 #
loop $-1 -1 $-1 $-1 $254 $286 #
coedge $-1 -1 $-1 $257 $256 $339 $385 reversed $259 $-1 #
edge $-1 -1 $-1 $289 -15.000000000000002 $260 -2.2204460492503131e-015 $330 $386 forward @7 unknown #
coedge $-1 -1 $-1 $387 $258 $371 $337 forward $309 $-1 #
coedge $-1 -1 $-1 $258 $387 $373 $266 reversed $309 $-1 #
face $-1 -1 $-1 $355 $259 $17 $-1 $310 reversed single #
edge $-1 -1 $-1 $260 -2.2204460492503131e-015 $388 15.000000000000002 $371 $386 forward @7 unknown #
point $-1 -1 $-1 -15.000000000000004 85 2.2204460492503131e-015 #
coedge $-1 -1 $-1 $262 $279 $332 $385 forward $178 $-1 #
vertex $-1 -1 $-1 $385 $389 #
straight-curve $-1 -1 $-1 0 -85 15.000000000000002 1 0 0 I I #
straight-curve $-1 -1 $-1 -15.000000000000004 -85 0 0 0 -1 I I #
face $-1 -1 $-1 $381 $272 $17 $-1 $344 reversed single #
plane-surface $-1 -1 $-1 0 -85 0 0 1 0 0 0 1 forward_v I I I I #
vertex $-1 -1 $-1 $390 $391 #
vertex $-1 -1 $-1 $352 $392 #
coedge $-1 -1 $-1 $275 $283 $270 $348 forward $284 $-1 #
edge $-1 -1 $-1 $346 -15.000000000000002 $196 -2.2204460492503131e-015 $347 $351 forward @7 unknown #
coedge $-1 -1 $-1 $274 $273 $393 $357 reversed $242 $-1 #
vertex $-1 -1 $-1 $276 $394 #
straight-curve $-1 -1 $-1 15.000000000000004 -85 0 0 0 -1 I I #
edge $-1 -1 $-1 $346 -85 $281 85 $283 $395 forward @7 unknown #
face $-1 -1 $-1 $336 $319 $17 $-1 $396 reversed single #
point $-1 -1 $-1 15.000000000000004 85 15.000000000000002 #
face $-1 -1 $-1 $-1 $284 $17 $-1 $243 reversed single #
face $-1 -1 $-1 $397 $372 $17 $-1 $287 reversed single #
edge $-1 -1 $-1 $288 -85 $350 85 $349 $398 forward @7 unknown #
point $-1 -1 $-1 15.000000000000004 85 -15.000000000000002 #
point $-1 -1 $-1 -15.000000000000004 85 15.000000000000002 #
coedge $-1 -1 $-1 $399 $399 $296 $364 forward $292 $-1 #
coedge $-1 -1 $-1 $294 $297 $399 $400 reversed $213 $-1 #
coedge $-1 -1 $-1 $296 $295 $294 $363 reversed $136 $-1 #
edge $-1 -1 $-1 $401 0 $300 0.70710678118654768 $362 $402 forward @7 unknown #
edge $-1 -1 $-1 $365 -8.8817841970012523e-016 $401 3.1415926535897931 $360 $403 forward @7 unknown #
vertex $-1 -1 $-1 $400 $404 #
straight-curve $-1 -1 $-1 -10.000000000000002 170 -1.0106390550823631e-014 -7.0710678118654773 -7.0710678118654737 2.2742574602956142e-015 I I #
ellipse-curve $-1 -1 $-1 5.5511151231257827e-016 165 -1.6653345369377348e-015 0 1 0 -15.000000000000004 0 -1.7157499379583157e-016 1 I I #
point $-1 -1 $-1 15.000000000000004 165 0 #
loop $-1 -1 $-1 $-1 $314 $308 #
coedge $-1 -1 $-1 $371 $312 $317 $376 reversed $372 $-1 #
coedge $-1 -1 $-1 $312 $370 $334 $337 reversed $372 $-1 #
loop $-1 -1 $-1 $-1 $312 $356 #
coedge $-1 -1 $-1 $374 $314 $335 $266 forward $369 $-1 #
coedge $-1 -1 $-1 $314 $373 $316 $328 reversed $369 $-1 #
coedge $-1 -1 $-1 $317 $316 $387 $390 forward $319 $-1 #
edge $-1 -1 $-1 $388 -15.000000000000004 $251 -8.8817841970012563e-016 $370 $383 forward @7 unknown #
coedge $-1 -1 $-1 $393 $318 $324 $326 forward $379 $-1 #
coedge $-1 -1 $-1 $318 $393 $320 $380 forward $379 $-1 #
loop $-1 -1 $-1 $-1 $318 $397 #
edge $-1 -1 $-1 $350 -15.000000000000004 $252 8.8817841970012563e-016 $320 $384 forward @7 unknown #
face $-1 -1 $-1 $382 $322 $17 $-1 $344 reversed single #
face $-1 -1 $-1 $206 $325 $17 $-1 $287 reversed single #
straight-curve $-1 -1 $-1 0 85 -15.000000000000002 1 0 0 I I #
straight-curve $-1 -1 $-1 0 -85 -15.000000000000002 -1 0 0 I I #
edge $-1 -1 $-1 $289 -85 $340 85 $332 $405 forward @7 unknown #
straight-curve $-1 -1 $-1 -15.000000000000004 85 0 0 0 -1 I I #
coedge $-1 -1 $-1 $335 $334 $375 $390 reversed $309 $-1 #
vertex $-1 -1 $-1 $376 $406 #
point $-1 -1 $-1 -15.000000000000004 -85 15.000000000000002 #
edge $-1 -1 $-1 $345 -85 $388 85 $387 $407 forward @7 unknown #
point $-1 -1 $-1 -15.000000000000004 -85 -15.000000000000002 #
point $-1 -1 $-1 15.000000000000004 -85 15.000000000000002 #
coedge $-1 -1 $-1 $378 $377 $349 $357 forward $379 $-1 #
point $-1 -1 $-1 15.000000000000004 -85 -15.000000000000002 #
straight-curve $-1 -1 $-1 15.000000000000004 0 15.000000000000002 0 1 0 I I #
plane-surface $-1 -1 $-1 0 0 -15.000000000000002 0 0 1 1 0 0 forward_v I I I I #
face $-1 -1 $-1 $280 $379 $17 $-1 $396 reversed single #
straight-curve $-1 -1 $-1 15.000000000000004 0 -15.000000000000002 0 -1 0 I I #
coedge $-1 -1 $-1 $360 $360 $361 $400 forward $292 $-1 #
edge $-1 -1 $-1 $401 0 $365 3.1415926535897922 $399 $408 forward @7 unknown #
vertex $-1 -1 $-1 $400 $409 #
straight-curve $-1 -1 $-1 10.000000000000002 170 0 7.0710678118654773 -7.0710678118654737 0 I I #
ellipse-curve $-1 -1 $-1 -2.7755575615628914e-016 170 -5.5511151231257827e-016 0 1 0 -10.000000000000002 0 -6.6949484150979919e-016 1 I I #
point $-1 -1 $-1 -10.000000000000002 170 -1.0106390550823631e-014 #
straight-curve $-1 -1 $-1 -15.000000000000004 0 15.000000000000002 0 -1 0 I I #
point $-1 -1 $-1 -15.000000000000004 85 -15.000000000000002 #
straight-curve $-1 -1 $-1 -15.000000000000004 0 -15.000000000000002 0 1 0 I I #
ellipse-curve $-1 -1 $-1 -5.5511151231257827e-016 170 2.7755575615628914e-016 0 1 0 10.000000000000002 0 -2.7755575615628914e-016 1 I I #
point $-1 -1 $-1 10.000000000000002 170 0 #
End-of-ACIS-data 