600 0 1 0           
92 GICL ACIS Healer - Source: /gicl/data5/repository/PTC/V18/asmdes18/parts/rev_shaft.sat - 6 0 18 ACIS 6.0.3 Solaris 24 Sat Apr 13 23:01:41 2002 
1 9.999999999999999547e-07 1.000000000000000036e-10 
body $-1 $1 $-1 $-1 #
lump $-1 $-1 $2 $0 #
shell $-1 $-1 $-1 $3 $-1 $1 #
face $-1 $4 $5 $2 $-1 $6 reversed single #
face $-1 $7 $8 $2 $-1 $9 forward single #
loop $-1 $-1 $10 $3 #
plane-surface $-1 0 0 0 0 1 0 10 0 0 forward_v I I I I #
face $-1 $11 $12 $2 $-1 $13 forward single #
loop $-1 $-1 $14 $4 #
cone-surface $-1 0 0 0 0 -1 0 9.999999999999998224 0 0 1 I I -0.7071067811865474617 0.7071067811865475727 9.999999999999998224 forward I I I I #
coedge $-1 $15 $15 $16 $17 reversed $5 $-1 #
face $-1 $18 $19 $2 $-1 $20 forward single #
loop $-1 $-1 $21 $7 #
cone-surface $-1 0 0 0 0 -1 0 9.999999999999998224 0 0 1 I I -0.7071067811865474617 0.7071067811865475727 9.999999999999998224 forward I I I I #
coedge $-1 $22 $16 $23 $24 forward $8 $-1 #
coedge $-1 $10 $10 $25 $26 reversed $5 $-1 #
coedge $-1 $14 $27 $10 $17 forward $8 $-1 #
edge $-1 $28 -8.881784197001252323e-16 $29 3.141592653589793116 $10 $30 forward 7 unknown #
face $-1 $31 $32 $2 $-1 $33 forward single #
loop $-1 $-1 $34 $11 #
cone-surface $-1 0 0 0 0 1 0 15 0 0 1 I I 0 1 15 forward I I I I #
coedge $-1 $35 $25 $27 $36 forward $12 $-1 #
coedge $-1 $27 $14 $37 $38 reversed $8 $-1 #
coedge $-1 $25 $35 $14 $24 reversed $12 $-1 #
edge $-1 $29 0 $39 0.7071067811865475727 $14 $40 forward 7 unknown #
coedge $-1 $21 $23 $15 $26 forward $12 $-1 #
edge $-1 $29 0 $28 3.141592653589792228 $15 $41 forward 7 unknown #
coedge $-1 $16 $22 $21 $36 reversed $8 $-1 #
vertex $-1 $26 $42 #
vertex $-1 $26 $43 #
ellipse-curve $-1 5.551115123125782702e-16 0 0 0 1 0 -10 0 -1.224606353822377061e-15 1 I I #
face $-1 $44 $45 $2 $-1 $46 forward single #
loop $-1 $-1 $47 $18 #
cone-surface $-1 0 0 0 0 1 0 15 0 0 1 I I 0 1 15 forward I I I I #
coedge $-1 $48 $49 $50 $51 forward $19 $-1 #
coedge $-1 $23 $21 $49 $52 reversed $12 $-1 #
edge $-1 $28 2.913221854824460102e-32 $53 0.7071067811865475727 $27 $54 forward 7 unknown #
coedge $-1 $47 $50 $22 $38 forward $32 $-1 #
edge $-1 $53 -4.440892098500625669e-16 $39 3.14159265358979356 $37 $55 forward 7 unknown #
vertex $-1 $52 $56 #
straight-curve $-1 9.999999999999998224 0 0 7.071067811865474617 7.071067811865475505 0 I I #
ellipse-curve $-1 -2.775557561562891351e-16 0 2.775557561562891351e-16 0 1 0 9.999999999999998224 0 -2.775557561562891351e-16 1 I I #
point $-1 -9.999999999999998224 0 -1.0106390550823628e-14 #
point $-1 9.999999999999998224 0 0 #
face $-1 $57 $58 $2 $-1 $59 forward single #
loop $-1 $-1 $60 $31 #
cone-surface $-1 0 170 0 0 1 0 10.00000000000000178 0 0 1 I I -0.7071067811865475727 0.7071067811865474617 10.00000000000000178 forward I I I I #
coedge $-1 $61 $37 $62 $63 forward $32 $-1 #
coedge $-1 $62 $34 $64 $65 reversed $19 $-1 #
coedge $-1 $34 $62 $35 $52 forward $19 $-1 #
coedge $-1 $37 $61 $34 $51 reversed $32 $-1 #
edge $-1 $53 0 $66 16 $34 $67 forward 7 unknown #
edge $-1 $39 0 $53 3.141592653589792672 $49 $68 forward 7 unknown #
vertex $-1 $52 $69 #
straight-curve $-1 -9.999999999999998224 0 -7.657177843178873487e-15 -7.071067811865474617 7.071067811865475505 -1.189452367992126141e-15 I I #
ellipse-curve $-1 5.551115123125782702e-16 5 2.775557561562891351e-15 0 1 0 -14.99999999999999822 0 -4.612467092296457238e-15 1 I I #
point $-1 14.99999999999999822 5 0 #
face $-1 $-1 $70 $2 $-1 $71 forward single #
loop $-1 $-1 $72 $44 #
cone-surface $-1 0 170 0 0 1 0 10.00000000000000178 0 0 1 I I -0.7071067811865475727 0.7071067811865474617 10.00000000000000178 forward I I I I #
coedge $-1 $73 $74 $75 $76 forward $45 $-1 #
coedge $-1 $50 $47 $73 $77 reversed $32 $-1 #
coedge $-1 $49 $48 $47 $63 reversed $19 $-1 #
edge $-1 $39 0 $78 16 $62 $79 forward 7 unknown #
coedge $-1 $75 $72 $48 $65 forward $58 $-1 #
edge $-1 $78 -2.804838774119151441e-32 $66 3.141592653589792672 $48 $80 forward 7 unknown #
vertex $-1 $65 $81 #
straight-curve $-1 -15 5 -1.836909530733565887e-15 0 10 0 I I #
ellipse-curve $-1 0 5 0 0 1 0 14.99999999999999822 0 0 1 I I #
point $-1 -14.99999999999999822 5 -8.498247678484503552e-15 #
loop $-1 $-1 $82 $57 #
plane-surface $-1 0 170 0 0 1 0 10 0 0 forward_v I I I I #
coedge $-1 $64 $83 $84 $85 forward $58 $-1 #
coedge $-1 $84 $60 $61 $77 forward $45 $-1 #
coedge $-1 $60 $84 $82 $86 reversed $45 $-1 #
coedge $-1 $83 $64 $60 $76 reversed $58 $-1 #
edge $-1 $87 0 $66 0.7071067811865476838 $60 $88 forward 7 unknown #
edge $-1 $66 5.259072701473409637e-33 $78 3.141592653589793116 $61 $89 forward 7 unknown #
vertex $-1 $63 $90 #
straight-curve $-1 15 5 0 0 10 0 I I #
ellipse-curve $-1 -1.11022302462515654e-15 165 2.220446049250313081e-15 0 1 0 15.00000000000000355 0 -2.220446049250313081e-15 1 I I #
point $-1 -15.00000000000000355 165 -1.836909530733566282e-15 #
coedge $-1 $91 $91 $74 $86 forward $70 $-1 #
coedge $-1 $72 $75 $91 $92 reversed $58 $-1 #
coedge $-1 $74 $73 $72 $85 reversed $45 $-1 #
edge $-1 $93 0 $78 0.7071067811865476838 $84 $94 forward 7 unknown #
edge $-1 $87 -8.881784197001252323e-16 $93 3.141592653589793116 $82 $95 forward 7 unknown #
vertex $-1 $92 $96 #
straight-curve $-1 -10.00000000000000178 170 -1.010639055082363116e-14 -7.071067811865477282 -7.071067811865473729 2.27425746029561425e-15 I I #
ellipse-curve $-1 5.551115123125782702e-16 165 -1.665334536937734811e-15 0 1 0 -15.00000000000000355 0 -1.715749937958315697e-16 1 I I #
point $-1 15.00000000000000355 165 0 #
coedge $-1 $82 $82 $83 $92 forward $70 $-1 #
edge $-1 $93 0 $87 3.141592653589792228 $91 $97 forward 7 unknown #
vertex $-1 $92 $98 #
straight-curve $-1 10.00000000000000178 170 0 7.071067811865477282 -7.071067811865473729 0 I I #
ellipse-curve $-1 -2.775557561562891351e-16 170 -5.551115123125782702e-16 0 1 0 -10.00000000000000178 0 -6.694948415097991852e-16 1 I I #
point $-1 -10.00000000000000178 170 -1.010639055082363116e-14 #
ellipse-curve $-1 -5.551115123125782702e-16 170 2.775557561562891351e-16 0 1 0 10.00000000000000178 0 -2.775557561562891351e-16 1 I I #
point $-1 10.00000000000000178 170 0 #
End-of-ACIS-data 