600 0 1 0           
100 GICL Pro/E ACIS Translator - Source: f:/data5/repository/PTC/V18/asmdes18/parts/shift_fork.prt - 6 0 13 ACIS 6.0.3 NT 24 Thu Apr 04 13:45:39 2002 
1 9.9999999999999995e-007 1e-010 
body $-1 $1 $-1 $2 #
lump $-1 $-1 $3 $0 #
transform $-1 1 0 0 0 1 0 0 0 1 0 0 0 10 no_rotate no_reflect no_shear #
shell $-1 $-1 $-1 $4 $-1 $1 #
face $-1 $5 $6 $3 $-1 $7 reversed single #
face $-1 $8 $9 $3 $-1 $10 reversed single #
loop $-1 $11 $12 $4 #
plane-surface $-1 0 0 0 0 0 1 1 0 0 forward_v I I I I #
face $-1 $13 $14 $3 $-1 $15 reversed single #
loop $-1 $-1 $16 $5 #
cone-surface $-1 0 0 7.75 0 0 -1 -2 0 0 1 I I 0 1 2 forward I I I I #
loop $-1 $-1 $17 $4 #
coedge $-1 $18 $18 $19 $20 reversed $6 $-1 #
face $-1 $21 $22 $3 $-1 $23 forward single #
loop $-1 $-1 $24 $8 #
cone-surface $-1 0 0 7.75 0 0 -1 -2 0 0 1 I I 0 1 2 forward I I I I #
coedge $-1 $25 $19 $26 $27 reversed $9 $-1 #
coedge $-1 $28 $29 $30 $31 forward $11 $-1 #
coedge $-1 $12 $12 $32 $33 reversed $6 $-1 #
coedge $-1 $16 $34 $12 $20 forward $9 $-1 #
edge $-1 $35 0 $36 3.1415926535897927 $12 $37 forward 7 unknown #
face $-1 $38 $39 $3 $-1 $40 forward single #
loop $-1 $41 $42 $13 #
plane-surface $-1 0 0 7.75 0 0 1 1 0 0 forward_v I I I I #
coedge $-1 $43 $32 $34 $44 reversed $14 $-1 #
coedge $-1 $34 $16 $45 $46 reversed $9 $-1 #
coedge $-1 $32 $43 $16 $27 forward $14 $-1 #
edge $-1 $47 0 $36 7.75 $26 $48 forward 7 unknown #
coedge $-1 $49 $17 $50 $51 forward $11 $-1 #
coedge $-1 $17 $52 $53 $54 forward $11 $-1 #
coedge $-1 $55 $56 $17 $31 reversed $57 $-1 #
edge $-1 $58 4.9343245538895829e-016 $59 4.7123889803846906 $17 $60 forward 7 unknown #
coedge $-1 $24 $26 $18 $33 forward $14 $-1 #
edge $-1 $36 0 $35 3.1415926535897936 $18 $61 forward 7 unknown #
coedge $-1 $19 $25 $24 $44 forward $9 $-1 #
vertex $-1 $33 $62 #
vertex $-1 $33 $63 #
ellipse-curve $-1 -1.1102230246251565e-016 6.6613381477509392e-016 0 0 0 -1 2 -6.6613381477509392e-016 0 1 I I #
face $-1 $64 $65 $3 $-1 $66 forward single #
loop $-1 $-1 $67 $21 #
cone-surface $-1 0 0 0 0 0 1 3.75 0 0 1 I I 0 1 3.75 forward I I I I #
loop $-1 $-1 $45 $13 #
coedge $-1 $68 $68 $69 $70 forward $22 $-1 #
coedge $-1 $26 $24 $71 $72 reversed $14 $-1 #
edge $-1 $73 0 $35 7.75 $24 $74 forward 7 unknown #
coedge $-1 $71 $71 $25 $46 forward $41 $-1 #
edge $-1 $73 0 $47 3.1415926535897931 $45 $75 forward 7 unknown #
vertex $-1 $72 $76 #
straight-curve $-1 -2 0 7.75 0 0 -1 I I #
coedge $-1 $77 $28 $78 $79 reversed $11 $-1 #
coedge $-1 $80 $81 $28 $51 reversed $82 $-1 #
edge $-1 $59 -6.2803698347351056e-016 $83 1.4999999999999991 $28 $84 forward 7 unknown #
coedge $-1 $29 $85 $86 $87 reversed $11 $-1 #
coedge $-1 $88 $89 $29 $54 reversed $90 $-1 #
edge $-1 $91 0 $58 1.5000000000000018 $29 $92 forward 7 unknown #
coedge $-1 $93 $30 $89 $94 reversed $57 $-1 #
coedge $-1 $30 $93 $80 $95 forward $57 $-1 #
loop $-1 $-1 $55 $96 #
vertex $-1 $54 $97 #
vertex $-1 $51 $98 #
ellipse-curve $-1 -1.9984014443252818e-015 -14.5602 0 0 0 1 4.2426406871192839 -4.2426406871192892 0 1 I I #
ellipse-curve $-1 0 7.2164496600635175e-016 0 0 0 -1 -2 -7.2164496600635175e-016 0 1 I I #
point $-1 2 0 0 #
point $-1 -2 0 0 #
face $-1 $99 $100 $3 $-1 $101 forward single #
loop $-1 $-1 $102 $38 #
cone-surface $-1 0 0 0 0 0 1 3.75 0 0 1 I I 0 1 3.75 forward I I I I #
coedge $-1 $69 $103 $104 $105 forward $39 $-1 #
coedge $-1 $42 $42 $106 $107 forward $22 $-1 #
coedge $-1 $108 $67 $42 $70 reversed $39 $-1 #
edge $-1 $109 0 $110 3.1415926535897931 $42 $111 forward 7 unknown #
coedge $-1 $45 $45 $43 $72 forward $41 $-1 #
edge $-1 $47 0 $73 3.1415926535897931 $71 $112 forward 7 unknown #
vertex $-1 $72 $113 #
straight-curve $-1 2 2.4492127076447545e-016 7.75 0 0 -1 I I #
ellipse-curve $-1 0 0 7.75 0 0 -1 2 0 0 1 I I #
point $-1 -2 0 7.75 #
coedge $-1 $114 $49 $115 $116 reversed $11 $-1 #
coedge $-1 $117 $118 $49 $79 forward $119 $-1 #
edge $-1 $120 -9.7896999149169358e-016 $83 1.0458854262175337 $49 $121 forward 7 unknown #
coedge $-1 $122 $50 $56 $95 reversed $82 $-1 #
coedge $-1 $50 $122 $117 $123 reversed $82 $-1 #
loop $-1 $-1 $80 $124 #
vertex $-1 $79 $125 #
straight-curve $-1 -4.2426406871192865 -18.802840687119286 0 -0.70710678118654813 -0.70710678118654702 0 I I #
coedge $-1 $52 $114 $126 $127 reversed $11 $-1 #
coedge $-1 $128 $129 $52 $87 forward $130 $-1 #
edge $-1 $91 0 $131 1.045885426217535 $52 $132 forward 7 unknown #
coedge $-1 $133 $53 $129 $134 forward $90 $-1 #
coedge $-1 $53 $133 $55 $94 forward $90 $-1 #
loop $-1 $-1 $88 $135 #
vertex $-1 $54 $136 #
straight-curve $-1 5.3033008588991049 -19.863500858899108 0 -0.70710678118654713 0.70710678118654779 0 I I #
coedge $-1 $56 $55 $137 $138 reversed $57 $-1 #
edge $-1 $139 3.1554436208840472e-030 $58 1.5 $55 $140 forward 7 unknown #
edge $-1 $141 3.1554436208840472e-030 $59 1.5 $56 $142 forward 7 unknown #
face $-1 $124 $57 $3 $-1 $143 reversed single #
point $-1 4.242640687119283 -18.802840687119286 0 #
point $-1 -4.2426406871192857 -18.802840687119286 0 #
face $-1 $144 $145 $3 $-1 $146 forward single #
loop $-1 $-1 $147 $64 #
plane-surface $-1 7.2469844821662806 -12.628564445543331 0 0.96626459762217076 0.25755140726088926 0 -0.25755140726088926 0.96626459762217076 0 forward_v I I I I #
coedge $-1 $148 $149 $150 $151 reversed $65 $-1 #
coedge $-1 $67 $108 $152 $153 forward $39 $-1 #
coedge $-1 $149 $106 $67 $105 reversed $65 $-1 #
edge $-1 $154 0 $110 6.25 $104 $155 forward 7 unknown #
coedge $-1 $104 $156 $68 $107 reversed $65 $-1 #
edge $-1 $110 0 $109 3.1415926535897931 $68 $157 forward 7 unknown #
coedge $-1 $103 $69 $156 $158 reversed $39 $-1 #
vertex $-1 $107 $159 #
vertex $-1 $107 $160 #
ellipse-curve $-1 0 0 7.75 0 0 1 -3.75 0 0 1 I I #
ellipse-curve $-1 0 0 7.75 0 0 -1 -2 0 0 1 I I #
point $-1 2 0 7.75 #
coedge $-1 $85 $77 $148 $161 reversed $11 $-1 #
coedge $-1 $162 $163 $77 $116 forward $164 $-1 #
edge $-1 $165 4.4806509955872163e-011 $120 1 $77 $166 forward 7 unknown #
coedge $-1 $167 $78 $81 $123 forward $119 $-1 #
coedge $-1 $78 $167 $162 $168 reversed $119 $-1 #
loop $-1 $-1 $167 $169 #
vertex $-1 $116 $170 #
ellipse-curve $-1 0 -14.5602 0 0 0 1 -7.2469844821662823 1.9316355544566637 0 1 I I #
coedge $-1 $81 $80 $171 $172 forward $82 $-1 #
edge $-1 $83 9.4663308626521417e-030 $173 1.5 $117 $174 forward 7 unknown #
face $-1 $169 $82 $3 $-1 $175 reversed single #
point $-1 -5.3033008588991084 -19.863500858899105 0 #
coedge $-1 $150 $176 $85 $127 forward $100 $-1 #
edge $-1 $131 0 $177 0.9999999999551924 $85 $178 forward 7 unknown #
coedge $-1 $179 $86 $176 $180 forward $130 $-1 #
coedge $-1 $86 $179 $88 $134 reversed $130 $-1 #
loop $-1 $-1 $86 $144 #
vertex $-1 $87 $181 #
ellipse-curve $-1 0 -14.5602 0 0 0 1 5.3033008588991049 -5.3033008588991084 0 1 I I #
coedge $-1 $89 $88 $182 $183 forward $90 $-1 #
edge $-1 $91 0 $184 1.5 $129 $185 forward 7 unknown #
face $-1 $96 $90 $3 $-1 $186 reversed single #
point $-1 5.3033008588991049 -19.863500858899108 0 #
coedge $-1 $182 $171 $93 $138 forward $145 $-1 #
edge $-1 $141 0 $139 4.7123889803846897 $137 $187 forward 7 unknown #
vertex $-1 $183 $188 #
straight-curve $-1 4.2426406871192857 -18.802840687119286 1.5 -1.7763568394002505e-015 0 -1 I I #
vertex $-1 $138 $189 #
straight-curve $-1 -4.2426406871192839 -18.802840687119286 1.5 -1.7763568394002505e-015 0 -1 I I #
cone-surface $-1 0 -14.5602 1.5 0 0 -1 -6 0 0 1 I I 0 1 6 forward I I I I #
face $-1 $135 $130 $3 $-1 $190 forward single #
loop $-1 $-1 $191 $99 #
plane-surface $-1 0 0 1.5 0 0 1 1 0 0 forward_v I I I I #
coedge $-1 $176 $150 $192 $193 reversed $100 $-1 #
coedge $-1 $194 $102 $114 $161 forward $65 $-1 #
coedge $-1 $102 $104 $195 $196 forward $65 $-1 #
coedge $-1 $147 $126 $102 $151 forward $100 $-1 #
edge $-1 $177 0 $197 1.5 $102 $198 forward 7 unknown #
coedge $-1 $199 $195 $103 $153 reversed $145 $-1 #
edge $-1 $200 0 $154 3.1415926535897931 $103 $201 forward 7 unknown #
vertex $-1 $196 $202 #
straight-curve $-1 3.75 0 1.5 0 0 1 I I #
coedge $-1 $106 $203 $108 $158 forward $65 $-1 #
ellipse-curve $-1 0 0 7.75 0 0 1 3.75 0 0 1 I I #
edge $-1 $200 0 $109 6.25 $156 $204 forward 7 unknown #
point $-1 -3.75 0 7.75 #
point $-1 3.75 0 7.75 #
edge $-1 $177 0 $165 1 $114 $205 forward 7 unknown #
coedge $-1 $206 $115 $118 $168 forward $164 $-1 #
coedge $-1 $115 $206 $194 $207 reversed $164 $-1 #
loop $-1 $-1 $115 $208 #
vertex $-1 $161 $209 #
intcurve-curve $-1 forward { surfintcur full nurbs 3 open 2 
	0 3 1 3 
	-3.6234892725538788 0.96581698663828475 0 1 
	-4.8313210090913463 -3.5656434907555883 0 1 
	-6.0391527456288143 -8.0971039681494617 0 1 
	-7.2469844821662823 -12.628564445543336 0 1 
	0.001 
	plane 0 0 0 0 0 1 1 0 0 forward_v I I I I 
	plane -3.6234922410831403 0.96581777722833473 0 -0.96626459762217076 0.25755140726088926 0 -0.25755140726088926 -0.96626459762217076 0 forward_v I I I I 
	nullbs 
	nullbs 
	I I 
	0 
	0 
	0 
	} I I #
coedge $-1 $118 $117 $210 $211 reversed $119 $-1 #
edge $-1 $120 0 $212 1.5 $162 $213 forward 7 unknown #
face $-1 $208 $119 $3 $-1 $214 forward single #
point $-1 -7.2469844821662806 -12.628564445543329 0 #
coedge $-1 $137 $210 $122 $172 reversed $145 $-1 #
edge $-1 $141 0 $173 1.4999999999999996 $171 $215 forward 7 unknown #
vertex $-1 $172 $216 #
straight-curve $-1 -5.3033008588991093 -19.863500858899101 0 1.1842378929335002e-015 -2.3684757858670005e-015 1 I I #
plane-surface $-1 0 -14.560200000000002 1.5 -0.70710678118654724 0.70710678118654779 0 -0.70710678118654779 -0.70710678118654724 0 forward_v I I I I #
coedge $-1 $126 $147 $128 $180 reversed $100 $-1 #
vertex $-1 $127 $217 #
intcurve-curve $-1 forward { surfintcur full nurbs 3 open 2 
	0 3 1 3 
	7.2469844821662814 -12.628564445543333 0 1 
	6.0391527456288134 -8.0971039681494599 0 1 
	4.8313210090913454 -3.5656434907555883 0 1 
	3.6234892725538783 0.96581698663828464 0 1 
	0.001 
	plane 0 0 0 0 0 1 1 0 0 forward_v I I I I 
	plane 7.2469844821662806 -12.628564445543331 0 0.96626459762217076 0.25755140726088926 0 -0.25755140726088926 0.96626459762217076 0 forward_v I I I I 
	nullbs 
	nullbs 
	I I 
	0 
	0 
	0 
	} I I #
coedge $-1 $129 $128 $191 $218 reversed $130 $-1 #
edge $-1 $131 0 $219 1.5 $176 $220 forward 7 unknown #
point $-1 7.2469844821662806 -12.628564445543331 0 #
coedge $-1 $191 $137 $133 $183 reversed $145 $-1 #
edge $-1 $184 0 $139 1.5000000000000011 $182 $221 forward 7 unknown #
vertex $-1 $183 $222 #
straight-curve $-1 5.3033008588991049 -19.863500858899108 0 0 0 1 I I #
plane-surface $-1 5.3033008588991049 -19.863500858899108 1.5 0.70710678118654768 0.70710678118654735 0 -0.70710678118654735 0.70710678118654768 0 forward_v I I I I #
ellipse-curve $-1 -8.8817841970012523e-016 -14.560200000000002 1.5 0 0 -1 -4.2426406871192848 -4.2426406871192839 0 1 I I #
point $-1 4.2426406871192839 -18.802840687119286 1.5 #
point $-1 -4.2426406871192857 -18.802840687119286 1.5 #
cone-surface $-1 0 -14.5602 0 0 0 1 7.5 0 0 1 I I 0 1 7.5 forward I I I I #
coedge $-1 $192 $182 $179 $218 forward $145 $-1 #
coedge $-1 $195 $191 $147 $193 forward $145 $-1 #
edge $-1 $219 1.9451823285489939e-015 $197 14.069005794298334 $192 $223 forward 7 unknown #
coedge $-1 $203 $148 $163 $207 forward $65 $-1 #
coedge $-1 $152 $192 $149 $196 reversed $145 $-1 #
edge $-1 $154 0 $197 0.26048726282008799 $149 $224 forward 7 unknown #
vertex $-1 $196 $225 #
straight-curve $-1 3.6234922410831403 0.96581777722833451 0 0 0 1 I I #
coedge $-1 $226 $152 $203 $227 reversed $145 $-1 #
vertex $-1 $158 $228 #
ellipse-curve $-1 0 0 1.5 0 0 1 -3.75 0 0 1 I I #
point $-1 3.75 0 1.5 #
coedge $-1 $156 $194 $199 $227 forward $65 $-1 #
straight-curve $-1 -3.75 4.5922738268339147e-016 1.5 0 0 1 I I #
intcurve-curve $-1 forward { surfintcur full nurbs 3 open 20 
	0 3 0.052631690348530033 1 0.10526334435570613 1 0.15789496532928055 1 0.21052655765469069 1 
	0.26315812572552255 1 0.31578967394226659 1 0.36842120671106909 1 0.42105272844247993 1 0.47368424355019617 1 
	0.52631575644980411 1 0.57894727155752024 1 0.63157879328893107 1 0.68421032605773369 1 0.73684187427447756 1 
	0.78947344234530947 1 0.84210503467071951 1 0.89473665564429383 1 0.94736830965147001 1 1 3 
	3.6234892725538783 0.96581698663828464 0 1 
	3.5786953582585115 1.1334387978773663 0 1.0000000000000002 
	3.4674387644430364 1.4590091681603943 0 0.99999999999999989 
	3.2336081862357231 1.9224759173423334 0 1 
	2.9386502811594424 2.3486615495997993 0 1.0000000000000002 
	2.5878008626943352 2.7304351911620688 0 0.99999999999999989 
	2.1878236445592294 3.060289739032354 0 1.0000000000000002 
	1.7462896748652335 3.3320310750998936 0 1 
	1.2715922574786147 3.5404810956206454 0 0.99999999999999989 
	0.77274511376295307 3.6816869805363686 0 1 
	0.25922269574421225 3.7529664199259329 0 1 
	-0.25922269574421131 3.7529664199259321 0 1.0000000000000002 
	-0.77274511376295407 3.6816869805363681 0 1 
	-1.2715922574786145 3.5404810956206445 0 1 
	-1.7462896748652343 3.3320310750998927 0 0.99999999999999978 
	-2.1878236445592267 3.0602897390323567 0 0.99999999999999989 
	-2.5878008626943352 2.7304351911620679 0 1 
	-2.9386502811594415 2.3486615495997998 0 1.0000000000000002 
	-3.233608186235724 1.9224759173423311 0 1 
	-3.4674387644430351 1.4590091681603952 0 1.0000000000000004 
	-3.5786953582585128 1.133438797877367 0 0.99999999999999989 
	-3.6234892725538788 0.96581698663828475 0 1 
	0.001 
	plane 0 0 0 0 0 1 1 0 0 forward_v I I I I 
	cone 0 0 0 0 0 1 3.75 0 0 1 I I 0 1 3.75 forward I I I I 
	nullbs 
	nullbs 
	I I 
	0 
	0 
	0 
	} I I #
coedge $-1 $163 $162 $226 $229 reversed $164 $-1 #
edge $-1 $165 2.9582283945787943e-031 $230 1.5 $194 $231 forward 7 unknown #
face $-1 $-1 $164 $3 $-1 $232 forward single #
point $-1 -3.6234922410831403 0.96581777722833473 0 #
coedge $-1 $171 $226 $167 $211 forward $145 $-1 #
edge $-1 $212 -9.7896999149169339e-016 $173 1.0458854262175337 $210 $233 forward 7 unknown #
vertex $-1 $211 $234 #
straight-curve $-1 -7.2469844821662797 -12.628564445543329 0 0 0 1 I I #
cone-surface $-1 0 -14.5602 0 0 0 1 7.5 0 0 1 I I 0 1 7.5 forward I I I I #
straight-curve $-1 -4.2426406871192857 -18.802840687119286 1.5 -0.70710678118654791 -0.70710678118654724 0 I I #
point $-1 -5.3033008588991084 -19.863500858899105 1.5 #
point $-1 3.6234922410831403 0.96581777722833451 0 #
edge $-1 $184 0 $219 1.0458854262175348 $191 $235 forward 7 unknown #
vertex $-1 $193 $236 #
straight-curve $-1 7.2469844821662806 -12.628564445543331 0 0 0 1 I I #
straight-curve $-1 5.3033008588991049 -19.863500858899108 1.5 -0.70710678118654713 0.70710678118654779 0 I I #
point $-1 5.3033008588991049 -19.863500858899108 1.5 #
straight-curve $-1 7.2469844821662814 -12.628564445543333 1.5 -0.25755140726088932 0.96626459762217076 0 I I #
ellipse-curve $-1 2.4646951146678475e-014 2.4841240175987878e-015 1.5 0 0 1 3.7499999999999751 -2.4841240175987878e-015 0 1 I I #
point $-1 3.6234922410831403 0.96581777722833417 1.5 #
coedge $-1 $210 $199 $206 $229 forward $145 $-1 #
edge $-1 $230 0 $200 0.26048726282008444 $203 $237 forward 7 unknown #
point $-1 -3.75 0 1.5 #
edge $-1 $230 0 $212 14.069005794298331 $226 $238 forward 7 unknown #
vertex $-1 $227 $239 #
straight-curve $-1 -3.6234922410831403 0.96581777722833539 0 0 -4.4408920985006262e-016 1 I I #
plane-surface $-1 -3.6234922410831403 0.96581777722833473 0 -0.96626459762217076 0.25755140726088926 0 -0.25755140726088926 -0.96626459762217076 0 forward_v I I I I #
ellipse-curve $-1 4.4408920985006262e-016 -14.560199999999998 1.5 0 0 1 -7.2469844821662832 1.9316355544566619 0 1 I I #
point $-1 -7.2469844821662806 -12.628564445543329 1.5 #
ellipse-curve $-1 -3.1086244689504383e-015 -14.5602 1.5 0 0 1 5.3033008588991084 -5.3033008588991084 0 1 I I #
point $-1 7.2469844821662806 -12.628564445543331 1.5 #
ellipse-curve $-1 2.8643754035329039e-014 -3.9135361618036768e-015 1.5 0 0 1 -3.6234922410831691 0.96581777722833861 0 1 I I #
straight-curve $-1 -3.6234922410831403 0.96581777722833473 1.5 -0.25755140726088921 -0.96626459762217065 0 I I #
point $-1 -3.6234922410831403 0.96581777722833473 1.5 #
End-of-ACIS-data 