600 0 1 0           
97 GICL ACIS Healer - Source: /gicl/data5/repository/PTC/V18/asmdes18/parts/shift_fork.prt.sat - 6 0 18 ACIS 6.0.3 Solaris 24 Sat Apr 13 23:04:32 2002 
1 9.999999999999999547e-07 1.000000000000000036e-10 
body $-1 $1 $-1 $-1 #
lump $-1 $-1 $2 $0 #
shell $-1 $-1 $-1 $3 $-1 $1 #
face $-1 $4 $5 $2 $-1 $6 reversed single #
face $-1 $7 $8 $2 $-1 $9 reversed single #
loop $-1 $10 $11 $3 #
plane-surface $-1 0 0 0 0 0 1 10 0 0 forward_v I I I I #
face $-1 $12 $13 $2 $-1 $14 reversed single #
loop $-1 $-1 $15 $4 #
cone-surface $-1 0 0 77.5 0 0 -1 -20 0 0 1 I I 0 1 20 forward I I I I #
loop $-1 $-1 $16 $3 #
coedge $-1 $17 $17 $18 $19 reversed $5 $-1 #
face $-1 $20 $21 $2 $-1 $22 forward single #
loop $-1 $-1 $23 $7 #
cone-surface $-1 0 0 77.5 0 0 -1 -20 0 0 1 I I 0 1 20 forward I I I I #
coedge $-1 $24 $18 $25 $26 reversed $8 $-1 #
coedge $-1 $27 $28 $29 $30 forward $10 $-1 #
coedge $-1 $11 $11 $31 $32 reversed $5 $-1 #
coedge $-1 $15 $33 $11 $19 forward $8 $-1 #
edge $-1 $34 0 $35 3.141592653589792672 $11 $36 forward 7 unknown #
face $-1 $37 $38 $2 $-1 $39 forward single #
loop $-1 $40 $41 $12 #
plane-surface $-1 0 0 77.5 0 0 1 10 0 0 forward_v I I I I #
coedge $-1 $42 $31 $33 $43 reversed $13 $-1 #
coedge $-1 $33 $15 $44 $45 reversed $8 $-1 #
coedge $-1 $31 $42 $15 $26 forward $13 $-1 #
edge $-1 $46 0 $35 7.75 $25 $47 forward 7 unknown #
coedge $-1 $48 $16 $49 $50 forward $10 $-1 #
coedge $-1 $16 $51 $52 $53 forward $10 $-1 #
coedge $-1 $54 $55 $16 $30 reversed $56 $-1 #
edge $-1 $57 6.94752897187653157e-16 $58 4.712388980384690562 $16 $59 forward 7 unknown #
coedge $-1 $23 $25 $17 $32 forward $13 $-1 #
edge $-1 $35 0 $34 3.14159265358979356 $17 $60 forward 7 unknown #
coedge $-1 $18 $24 $23 $43 forward $8 $-1 #
vertex $-1 $32 $61 #
vertex $-1 $32 $62 #
ellipse-curve $-1 -1.11022302462515654e-15 6.661338147750939243e-15 0 0 0 -1 20 -6.661338147750939243e-15 0 1 I I #
face $-1 $63 $64 $2 $-1 $65 forward single #
loop $-1 $-1 $66 $20 #
cone-surface $-1 0 0 0 0 0 1 37.5 0 0 1 I I 0 1 37.5 forward I I I I #
loop $-1 $-1 $44 $12 #
coedge $-1 $67 $67 $68 $69 forward $21 $-1 #
coedge $-1 $25 $23 $70 $71 reversed $13 $-1 #
edge $-1 $72 0 $34 7.75 $23 $73 forward 7 unknown #
coedge $-1 $70 $70 $24 $45 forward $40 $-1 #
edge $-1 $72 0 $46 3.141592653589793116 $44 $74 forward 7 unknown #
vertex $-1 $71 $75 #
straight-curve $-1 -20 0 77.5 0 0 -10 I I #
coedge $-1 $76 $27 $77 $78 reversed $10 $-1 #
coedge $-1 $79 $80 $27 $50 reversed $81 $-1 #
edge $-1 $58 -1.004859173557616817e-15 $82 1.499999999999998224 $27 $83 forward 7 unknown #
coedge $-1 $28 $84 $85 $86 reversed $10 $-1 #
coedge $-1 $87 $88 $28 $53 reversed $89 $-1 #
edge $-1 $90 0 $57 1.500000000000000444 $28 $91 forward 7 unknown #
coedge $-1 $92 $29 $88 $93 reversed $56 $-1 #
coedge $-1 $29 $92 $79 $94 forward $56 $-1 #
loop $-1 $-1 $54 $95 #
vertex $-1 $53 $96 #
vertex $-1 $50 $97 #
ellipse-curve $-1 -1.998401444325281773e-14 -145.6020000000000039 0 0 0 1 42.42640687119283882 -42.42640687119289566 0 1 I I #
ellipse-curve $-1 0 7.216449660063517513e-15 0 0 0 -1 -20 -7.216449660063517513e-15 0 1 I I #
point $-1 20 0 0 #
point $-1 -20 0 0 #
face $-1 $98 $99 $2 $-1 $100 forward single #
loop $-1 $-1 $101 $37 #
cone-surface $-1 0 0 0 0 0 1 37.5 0 0 1 I I 0 1 37.5 forward I I I I #
coedge $-1 $68 $102 $103 $104 forward $38 $-1 #
coedge $-1 $41 $41 $105 $106 forward $21 $-1 #
coedge $-1 $107 $66 $41 $69 reversed $38 $-1 #
edge $-1 $108 0 $109 3.141592653589793116 $41 $110 forward 7 unknown #
coedge $-1 $44 $44 $42 $71 forward $40 $-1 #
edge $-1 $46 0 $72 3.141592653589793116 $70 $111 forward 7 unknown #
vertex $-1 $71 $112 #
straight-curve $-1 20 2.449212707644754516e-15 77.5 0 0 -10 I I #
ellipse-curve $-1 0 0 77.5 0 0 -1 20 0 0 1 I I #
point $-1 -20 0 77.5 #
coedge $-1 $113 $48 $114 $115 reversed $10 $-1 #
coedge $-1 $116 $117 $48 $78 forward $118 $-1 #
edge $-1 $119 -9.297056951456600704e-16 $82 1.045885426217533665 $48 $120 forward 7 unknown #
coedge $-1 $121 $49 $55 $94 reversed $81 $-1 #
coedge $-1 $49 $121 $116 $122 reversed $81 $-1 #
loop $-1 $-1 $79 $123 #
vertex $-1 $78 $124 #
straight-curve $-1 -42.42640687119286724 -188.0284068711928569 0 -7.071067811865480834 -7.071067811865470176 0 I I #
coedge $-1 $51 $113 $125 $126 reversed $10 $-1 #
coedge $-1 $127 $128 $51 $86 forward $129 $-1 #
edge $-1 $90 8.084397349092695836e-17 $130 1.045885426217534997 $51 $131 forward 7 unknown #
coedge $-1 $132 $52 $128 $133 forward $89 $-1 #
coedge $-1 $52 $132 $54 $93 forward $89 $-1 #
loop $-1 $-1 $87 $134 #
vertex $-1 $53 $135 #
straight-curve $-1 53.03300858899105208 -198.6350085889910702 0 -7.071067811865471064 7.07106781186547817 0 I I #
coedge $-1 $55 $54 $136 $137 reversed $56 $-1 #
edge $-1 $138 2.524354896707237917e-30 $57 1.5 $54 $139 forward 7 unknown #
edge $-1 $140 2.524354896707237917e-30 $58 1.5 $55 $141 forward 7 unknown #
face $-1 $123 $56 $2 $-1 $142 reversed single #
point $-1 42.42640687119283172 -188.0284068711928569 0 #
point $-1 -42.42640687119285303 -188.0284068711928569 0 #
face $-1 $143 $144 $2 $-1 $145 forward single #
loop $-1 $-1 $146 $63 #
plane-surface $-1 72.46984482166280372 -126.2856444554333137 0 0.9662645976221707622 0.2575514072608892646 0 -2.575514072608892757 9.6626459762217074 0 forward_v I I I I #
coedge $-1 $147 $148 $149 $150 reversed $64 $-1 #
coedge $-1 $66 $107 $151 $152 forward $38 $-1 #
coedge $-1 $148 $105 $66 $104 reversed $64 $-1 #
edge $-1 $153 0 $109 6.25 $103 $154 forward 7 unknown #
coedge $-1 $103 $155 $67 $106 reversed $64 $-1 #
edge $-1 $109 0 $108 3.141592653589793116 $67 $156 forward 7 unknown #
coedge $-1 $102 $68 $155 $157 reversed $38 $-1 #
vertex $-1 $106 $158 #
vertex $-1 $106 $159 #
ellipse-curve $-1 0 0 77.5 0 0 1 -37.5 0 0 1 I I #
ellipse-curve $-1 0 0 77.5 0 0 -1 -20 0 0 1 I I #
point $-1 20 0 77.5 #
coedge $-1 $84 $76 $147 $160 reversed $10 $-1 #
coedge $-1 $161 $162 $76 $115 forward $163 $-1 #
edge $-1 $164 4.480651473276715667e-11 $119 1 $76 $165 forward 7 unknown #
coedge $-1 $166 $77 $80 $122 forward $118 $-1 #
coedge $-1 $77 $166 $161 $167 reversed $118 $-1 #
loop $-1 $-1 $166 $168 #
vertex $-1 $115 $169 #
ellipse-curve $-1 0 -145.6020000000000039 0 0 0 1 -72.46984482166281794 19.31635554456663684 0 1 I I #
coedge $-1 $80 $79 $170 $171 forward $81 $-1 #
edge $-1 $82 8.414516322357458791e-30 $172 1.5 $116 $173 forward 7 unknown #
face $-1 $168 $81 $2 $-1 $174 reversed single #
point $-1 -53.0330085889910805 -198.6350085889910417 0 #
coedge $-1 $149 $175 $84 $126 forward $99 $-1 #
edge $-1 $130 0 $176 0.9999999999551930641 $84 $177 forward 7 unknown #
coedge $-1 $178 $85 $175 $179 forward $129 $-1 #
coedge $-1 $85 $178 $87 $133 reversed $129 $-1 #
loop $-1 $-1 $85 $143 #
vertex $-1 $86 $180 #
ellipse-curve $-1 0 -145.6020000000000039 0 0 0 1 53.03300858899105208 -53.0330085889910805 0 1 I I #
coedge $-1 $88 $87 $181 $182 forward $89 $-1 #
edge $-1 $90 0 $183 1.5 $128 $184 forward 7 unknown #
face $-1 $95 $89 $2 $-1 $185 reversed single #
point $-1 53.03300858899105208 -198.6350085889910702 0 #
coedge $-1 $181 $170 $92 $137 forward $144 $-1 #
edge $-1 $140 1.894780628693601357e-16 $138 4.712388980384689674 $136 $186 forward 7 unknown #
vertex $-1 $182 $187 #
straight-curve $-1 42.42640687119285303 -188.0284068711928569 15 -1.776356839400250465e-14 0 -10 I I #
vertex $-1 $137 $188 #
straight-curve $-1 -42.42640687119283882 -188.0284068711928569 15 -1.776356839400250465e-14 0 -10 I I #
cone-surface $-1 0 -145.6020000000000039 15 0 0 -1 -60 0 0 1 I I 0 1 60 forward I I I I #
face $-1 $134 $129 $2 $-1 $189 forward single #
loop $-1 $-1 $190 $98 #
plane-surface $-1 0 0 15 0 0 1 10 0 0 forward_v I I I I #
coedge $-1 $175 $149 $191 $192 reversed $99 $-1 #
coedge $-1 $193 $101 $113 $160 forward $64 $-1 #
coedge $-1 $101 $103 $194 $195 forward $64 $-1 #
coedge $-1 $146 $125 $101 $150 forward $99 $-1 #
edge $-1 $176 0 $196 1.5 $101 $197 forward 7 unknown #
coedge $-1 $198 $194 $102 $152 reversed $144 $-1 #
edge $-1 $199 0 $153 3.141592653589793116 $102 $200 forward 7 unknown #
vertex $-1 $195 $201 #
straight-curve $-1 37.5 0 15 0 0 10 I I #
coedge $-1 $105 $202 $107 $157 forward $64 $-1 #
ellipse-curve $-1 0 0 77.5 0 0 1 37.5 0 0 1 I I #
edge $-1 $199 0 $108 6.25 $155 $203 forward 7 unknown #
point $-1 -37.5 0 77.5 #
point $-1 37.5 0 77.5 #
edge $-1 $176 0 $164 1 $113 $204 forward 7 unknown #
coedge $-1 $205 $114 $117 $167 forward $163 $-1 #
coedge $-1 $114 $205 $193 $206 reversed $163 $-1 #
loop $-1 $-1 $114 $207 #
vertex $-1 $160 $208 #
intcurve-curve $-1 forward { surfintcur full nurbs 3 open 2 
	0 3 1 3 
	-36.23489272553878493 9.658169866382847246 0 1 
	-48.31321009091346497 -35.65643490755588374 0 1 
	-60.391527456288145 -80.9710396814946165 0 1 
	-72.46984482166281794 -126.2856444554333564 0 1 
	0.01000000000000000021 
	plane 0 0 0 0 0 1 10 0 0 forward_v I I I I 
	plane -36.23492241083140186 9.65817777228334684 0 -0.9662645976221707622 0.2575514072608892646 0 -2.575514072608892757 -9.6626459762217074 0 forward_v I I I I 
	nullbs 
	nullbs 
	I I 
	0 
	0 
	0 
	} I I #
coedge $-1 $117 $116 $209 $210 reversed $118 $-1 #
edge $-1 $119 0 $211 1.5 $161 $212 forward 7 unknown #
face $-1 $207 $118 $2 $-1 $213 forward single #
point $-1 -72.46984482166280372 -126.2856444554332995 0 #
coedge $-1 $136 $209 $121 $171 reversed $144 $-1 #
edge $-1 $140 0 $172 1.499999999999999112 $170 $214 forward 7 unknown #
vertex $-1 $171 $215 #
straight-curve $-1 -53.03300858899109471 -198.6350085889910133 0 1.184237892933500205e-14 -2.368475785867000409e-14 10 I I #
plane-surface $-1 0 -145.6020000000000323 15 -0.7071067811865472397 0.7071067811865477948 0 -7.07106781186547817 -7.071067811865471953 0 forward_v I I I I #
coedge $-1 $125 $146 $127 $179 reversed $99 $-1 #
vertex $-1 $126 $216 #
intcurve-curve $-1 forward { surfintcur full nurbs 3 open 2 
	0 3 1 3 
	72.46984482166281794 -126.2856444554333279 0 1 
	60.39152745628813079 -80.97103968149460229 0 1 
	48.31321009091345786 -35.65643490755588374 0 1 
	36.23489272553878493 9.65816986638284547 0 1 
	0.01000000000000000021 
	plane 0 0 0 0 0 1 10 0 0 forward_v I I I I 
	plane 72.46984482166280372 -126.2856444554333137 0 0.9662645976221707622 0.2575514072608892646 0 -2.575514072608892757 9.6626459762217074 0 forward_v I I I I 
	nullbs 
	nullbs 
	I I 
	0 
	0 
	0 
	} I I #
coedge $-1 $128 $127 $190 $217 reversed $129 $-1 #
edge $-1 $130 0 $218 1.5 $175 $219 forward 7 unknown #
point $-1 72.46984482166280372 -126.2856444554333137 0 #
coedge $-1 $190 $136 $132 $182 reversed $144 $-1 #
edge $-1 $183 0 $138 1.5 $181 $220 forward 7 unknown #
vertex $-1 $182 $221 #
straight-curve $-1 53.03300858899105208 -198.6350085889910702 0 0 0 10 I I #
plane-surface $-1 53.03300858899105208 -198.6350085889910702 15 0.7071067811865476838 0.7071067811865473507 0 -7.071067811865473729 7.071067811865477282 0 forward_v I I I I #
ellipse-curve $-1 -8.881784197001252323e-15 -145.6020000000000323 15 0 0 -1 -42.42640687119284593 -42.42640687119283882 0 1 I I #
point $-1 42.42640687119283882 -188.0284068711928569 15 #
point $-1 -42.42640687119285303 -188.0284068711928569 15 #
cone-surface $-1 0 -145.6020000000000039 0 0 0 1 75 0 0 1 I I 0 1 75 forward I I I I #
coedge $-1 $191 $181 $178 $217 forward $144 $-1 #
coedge $-1 $194 $190 $146 $192 forward $144 $-1 #
edge $-1 $218 1.739147144353211159e-15 $196 14.06900579429833087 $191 $222 forward 7 unknown #
coedge $-1 $202 $147 $162 $206 forward $64 $-1 #
coedge $-1 $151 $191 $148 $195 reversed $144 $-1 #
edge $-1 $153 0 $196 0.2604872628200879947 $148 $223 forward 7 unknown #
vertex $-1 $195 $224 #
straight-curve $-1 36.23492241083140186 9.658177772283345064 0 0 0 10 I I #
coedge $-1 $225 $151 $202 $226 reversed $144 $-1 #
vertex $-1 $157 $227 #
ellipse-curve $-1 0 0 15 0 0 1 -37.5 0 0 1 I I #
point $-1 37.5 0 15 #
coedge $-1 $155 $193 $198 $226 forward $64 $-1 #
straight-curve $-1 -37.5 4.592273826833914718e-15 15 0 0 10 I I #
intcurve-curve $-1 forward { surfintcur full nurbs 3 open 20 
	0 3 0.05263169034853003303 1 0.105263344355706126 1 0.1578949653292805455 1 0.2105265576546906936 1 
	0.2631581257255225514 1 0.315789673942266591 1 0.3684212067110690936 1 0.4210527284424799288 1 0.4736842435501961712 1 
	0.5263157564498041063 1 0.5789472715575202377 1 0.631578793288931073 1 0.6842103260577336865 1 0.7368418742744775596 1 
	0.7894734423453094729 1 0.84210503467071951 1 0.8947366556442938323 1 0.9473683096514700086 1 1 3 
	36.23489272553878493 9.65816986638284547 0 1 
	35.78695358258511305 11.33438797877366255 0 1.000000000000000222 
	34.67438764443036803 14.59009168160394232 0 0.999999999999999889 
	32.33608186235723281 19.22475917342333318 0 1 
	29.38650281159442557 23.48661549599799514 0 1.000000000000000222 
	25.8780086269433518 27.30435191162068875 0 0.999999999999999889 
	21.87823644559229308 30.60289739032354106 0 1.000000000000000222 
	17.46289674865233366 33.32031075099893513 0 1 
	12.71592257478614663 35.40481095620645391 0 0.999999999999999889 
	7.727451137629531175 36.81686980536368736 0 1 
	2.592226957442122615 37.52966419925932939 0 1 
	-2.592226957442113289 37.52966419925932229 0 1.000000000000000222 
	-7.727451137629540945 36.81686980536368026 0 1 
	-12.71592257478614485 35.4048109562064468 0 1 
	-17.46289674865234431 33.32031075099892803 0 0.999999999999999778 
	-21.87823644559226821 30.60289739032356593 0 0.999999999999999889 
	-25.8780086269433518 27.3043519116206781 0 1 
	-29.38650281159441491 23.48661549599799869 0 1.000000000000000222 
	-32.33608186235723991 19.22475917342331186 0 1 
	-34.67438764443035382 14.5900916816039512 0 1.000000000000000444 
	-35.78695358258512726 11.33438797877366966 0 0.999999999999999889 
	-36.23489272553878493 9.658169866382847246 0 1 
	0.01000000000000000021 
	plane 0 0 0 0 0 1 10 0 0 forward_v I I I I 
	cone 0 0 0 0 0 1 37.5 0 0 1 I I 0 1 37.5 forward I I I I 
	nullbs 
	nullbs 
	I I 
	0 
	0 
	0 
	} I I #
coedge $-1 $162 $161 $225 $228 reversed $163 $-1 #
edge $-1 $164 3.155443620884047397e-31 $229 1.5 $193 $230 forward 7 unknown #
face $-1 $-1 $163 $2 $-1 $231 forward single #
point $-1 -36.23492241083140186 9.65817777228334684 0 #
coedge $-1 $170 $225 $166 $210 forward $144 $-1 #
edge $-1 $211 -8.084397349092695836e-16 $172 1.045885426217533443 $209 $232 forward 7 unknown #
vertex $-1 $210 $233 #
straight-curve $-1 -72.46984482166280372 -126.2856444554332995 0 0 0 10 I I #
cone-surface $-1 0 -145.6020000000000039 0 0 0 1 75 0 0 1 I I 0 1 75 forward I I I I #
straight-curve $-1 -42.42640687119285303 -188.0284068711928569 15 -7.071067811865479058 -7.071067811865471953 0 I I #
point $-1 -53.0330085889910805 -198.6350085889910417 15 #
point $-1 36.23492241083140186 9.658177772283345064 0 #
edge $-1 $183 1.616879469818538428e-16 $218 1.045885426217534553 $190 $234 forward 7 unknown #
vertex $-1 $192 $235 #
straight-curve $-1 72.46984482166280372 -126.2856444554333137 0 0 0 10 I I #
straight-curve $-1 53.03300858899105208 -198.6350085889910702 15 -7.071067811865471064 7.07106781186547817 0 I I #
point $-1 53.03300858899105208 -198.6350085889910702 15 #
straight-curve $-1 72.46984482166281794 -126.2856444554333279 15 -2.575514072608893201 9.6626459762217074 0 I I #
ellipse-curve $-1 2.46469511466784752e-13 2.484124017598787759e-14 15 0 0 1 37.49999999999975131 -2.484124017598787759e-14 0 1 I I #
point $-1 36.23492241083140186 9.658177772283341511 15 #
coedge $-1 $209 $198 $205 $228 forward $144 $-1 #
edge $-1 $229 -4.042198674546285672e-17 $199 0.260487262820084442 $202 $236 forward 7 unknown #
point $-1 -37.5 0 15 #
edge $-1 $229 0 $211 14.06900579429833087 $225 $237 forward 7 unknown #
vertex $-1 $226 $238 #
straight-curve $-1 -36.23492241083140186 9.658177772283353946 0 0 -4.440892098500626162e-15 10 I I #
plane-surface $-1 -36.23492241083140186 9.65817777228334684 0 -0.9662645976221707622 0.2575514072608892646 0 -2.575514072608892757 -9.6626459762217074 0 forward_v I I I I #
ellipse-curve $-1 4.440892098500626162e-15 -145.6019999999999754 15 0 0 1 -72.46984482166283215 19.31635554456661907 0 1 I I #
point $-1 -72.46984482166280372 -126.2856444554332995 15 #
ellipse-curve $-1 -3.108624468950438313e-14 -145.6020000000000039 15 0 0 1 53.0330085889910805 -53.0330085889910805 0 1 I I #
point $-1 72.46984482166280372 -126.2856444554333137 15 #
ellipse-curve $-1 2.864375403532903874e-13 -3.913536161803676805e-14 15 0 0 1 -36.23492241083169318 9.65817777228338592 0 1 I I #
straight-curve $-1 -36.23492241083140186 9.65817777228334684 15 -2.575514072608892313 -9.6626459762217074 0 I I #
point $-1 -36.23492241083140186 9.65817777228334684 15 #
End-of-ACIS-data 