600 0 1 0           
100 GICL ACIS Healer - Source: /gicl/data5/repository/PTC/V18/asmdes18/parts/shift_rod_end.prt.sat - 6 0 18 ACIS 6.0.3 Solaris 24 Sat Apr 13 23:05:08 2002 
1 9.999999999999999547e-07 1.000000000000000036e-10 
body $-1 $1 $-1 $-1 #
lump $-1 $-1 $2 $0 #
shell $-1 $-1 $-1 $3 $-1 $1 #
face $-1 $4 $5 $2 $-1 $6 forward single #
face $-1 $7 $8 $2 $-1 $9 forward single #
loop $-1 $-1 $10 $3 #
cone-surface $-1 0 0 0 -1 0 0 0 0 20 1 I I 0 1 20 forward I I I I #
face $-1 $11 $12 $2 $-1 $13 forward single #
loop $-1 $-1 $14 $4 #
cone-surface $-1 0 0 0 -1 0 0 0 0 20 1 I I 0 1 20 forward I I I I #
coedge $-1 $15 $16 $17 $18 reversed $5 $-1 #
face $-1 $19 $20 $2 $-1 $21 reversed single #
loop $-1 $-1 $22 $7 #
plane-surface $-1 0 30 -20 -1 0 0 0 -10 0 forward_v I I I I #
coedge $-1 $23 $24 $25 $26 reversed $8 $-1 #
coedge $-1 $25 $10 $27 $28 forward $5 $-1 #
coedge $-1 $10 $25 $29 $30 reversed $5 $-1 #
coedge $-1 $24 $23 $10 $18 forward $8 $-1 #
edge $-1 $31 0 $32 4 $10 $33 forward 7 unknown #
face $-1 $34 $35 $2 $-1 $36 forward single #
loop $-1 $-1 $37 $11 #
plane-surface $-1 0 0 -20 0 0 1 10 0 0 forward_v I I I I #
coedge $-1 $38 $39 $40 $41 forward $12 $-1 #
coedge $-1 $17 $14 $39 $42 forward $8 $-1 #
coedge $-1 $14 $17 $43 $44 reversed $8 $-1 #
coedge $-1 $16 $15 $14 $26 forward $5 $-1 #
edge $-1 $45 0 $46 4 $25 $47 forward 7 unknown #
coedge $-1 $48 $49 $15 $28 reversed $50 $-1 #
edge $-1 $31 0 $45 3.141592653589793116 $15 $51 forward 7 unknown #
coedge $-1 $43 $43 $16 $30 forward $52 $-1 #
edge $-1 $32 0 $46 3.141592653589793116 $16 $53 forward 7 unknown #
vertex $-1 $28 $54 #
vertex $-1 $30 $55 #
straight-curve $-1 0 0 20 -10 0 0 I I #
face $-1 $56 $57 $2 $-1 $58 forward single #
loop $-1 $-1 $59 $19 #
plane-surface $-1 70 -35 -20 1 0 0 0 10 0 forward_v I I I I #
coedge $-1 $60 $61 $62 $63 reversed $20 $-1 #
coedge $-1 $64 $22 $65 $66 forward $12 $-1 #
coedge $-1 $22 $64 $23 $42 reversed $12 $-1 #
coedge $-1 $67 $68 $22 $41 reversed $20 $-1 #
edge $-1 $45 0 $69 3.25 $40 $70 forward 7 unknown #
edge $-1 $45 0 $31 3.141592653589793116 $23 $71 forward 7 unknown #
coedge $-1 $29 $29 $24 $44 forward $52 $-1 #
edge $-1 $46 3.15544362088404674e-32 $32 3.141592653589793116 $24 $72 forward 7 unknown #
vertex $-1 $26 $73 #
vertex $-1 $30 $74 #
straight-curve $-1 0 2.449212707644754516e-15 -20 -10 0 0 I I #
coedge $-1 $75 $27 $76 $77 reversed $50 $-1 #
coedge $-1 $27 $75 $67 $78 forward $50 $-1 #
loop $-1 $-1 $48 $79 #
ellipse-curve $-1 0 0 0 -1 0 0 0 0 20 1 I I #
loop $-1 $-1 $43 $80 #
ellipse-curve $-1 -40 0 -1.665334536937734811e-15 -1 0 0 0 0 20 1 I I #
point $-1 0 0 20 #
point $-1 -40 0 20 #
face $-1 $81 $82 $2 $-1 $83 forward single #
loop $-1 $-1 $84 $34 #
cone-surface $-1 27.5 0 0 1 0 0 0 -22.5 0 1 I I 0 1 22.5 forward I I I I #
coedge $-1 $85 $86 $87 $88 reversed $35 $-1 #
coedge $-1 $89 $37 $90 $91 forward $20 $-1 #
coedge $-1 $37 $92 $93 $94 forward $20 $-1 #
coedge $-1 $86 $95 $37 $63 forward $35 $-1 #
edge $-1 $96 0 $97 2.219223593595584632 $37 $98 forward 7 unknown #
coedge $-1 $39 $38 $99 $100 reversed $12 $-1 #
coedge $-1 $101 $102 $38 $66 reversed $103 $-1 #
edge $-1 $69 0 $104 4 $38 $105 forward 7 unknown #
coedge $-1 $106 $40 $49 $78 reversed $20 $-1 #
coedge $-1 $40 $89 $101 $107 forward $20 $-1 #
vertex $-1 $41 $108 #
straight-curve $-1 0 0 -20 0 -10 0 I I #
ellipse-curve $-1 0 0 0 -1 0 0 0 0 -20 1 I I #
ellipse-curve $-1 -40 -1.11022302462515654e-15 2.220446049250313081e-15 -1 0 0 0 3.559435732269911057e-15 -20 1 I I #
point $-1 0 0 -20 #
point $-1 -40 2.449212707644754516e-15 -20 #
coedge $-1 $49 $48 $109 $110 reversed $50 $-1 #
coedge $-1 $99 $111 $48 $77 forward $112 $-1 #
edge $-1 $113 0 $31 2.75 $76 $114 forward 7 unknown #
edge $-1 $115 0 $45 2.75 $67 $116 forward 7 unknown #
face $-1 $117 $50 $2 $-1 $118 forward single #
face $-1 $-1 $52 $2 $-1 $119 reversed single #
face $-1 $120 $121 $2 $-1 $122 reversed single #
loop $-1 $-1 $123 $56 #
cone-surface $-1 27.5 0 0 1 0 0 0 -22.5 0 1 I I 0 1 22.5 forward I I I I #
coedge $-1 $124 $125 $126 $127 forward $57 $-1 #
coedge $-1 $95 $59 $128 $129 reversed $35 $-1 #
coedge $-1 $59 $62 $130 $131 reversed $35 $-1 #
coedge $-1 $132 $133 $59 $88 forward $57 $-1 #
edge $-1 $134 1.122832965151762297e-16 $135 1.094914077134479635 $59 $136 forward 7 unknown #
coedge $-1 $68 $60 $137 $138 reversed $20 $-1 #
coedge $-1 $139 $140 $60 $91 reversed $141 $-1 #
edge $-1 $96 1.065814103640150239e-15 $142 1.570796326794894782 $60 $143 forward 7 unknown #
coedge $-1 $61 $144 $145 $146 reversed $20 $-1 #
coedge $-1 $147 $147 $61 $94 reversed $121 $-1 #
edge $-1 $148 0 $97 2.061552812808830293 $61 $149 forward 7 unknown #
coedge $-1 $62 $85 $139 $150 reversed $35 $-1 #
vertex $-1 $91 $151 #
vertex $-1 $94 $152 #
straight-curve $-1 70 -32.5 -20 0 10 0 I I #
coedge $-1 $153 $76 $64 $100 forward $112 $-1 #
edge $-1 $31 0 $104 3.25 $99 $154 forward 7 unknown #
coedge $-1 $155 $65 $68 $107 reversed $103 $-1 #
coedge $-1 $65 $155 $153 $156 forward $103 $-1 #
loop $-1 $-1 $102 $117 #
vertex $-1 $156 $157 #
straight-curve $-1 0 -32.5 -20 0 0 10 I I #
coedge $-1 $158 $67 $159 $160 forward $20 $-1 #
edge $-1 $161 4.440892098500626408e-17 $69 1.57079632679489789 $68 $162 forward 7 unknown #
point $-1 0 -32.5 -20 #
coedge $-1 $163 $159 $75 $110 forward $164 $-1 #
edge $-1 $115 0 $113 4 $75 $165 forward 7 unknown #
coedge $-1 $76 $166 $163 $167 reversed $112 $-1 #
loop $-1 $-1 $168 $169 #
vertex $-1 $77 $170 #
straight-curve $-1 0 27.5 20 0 -10 0 I I #
vertex $-1 $160 $171 #
straight-curve $-1 0 27.5 -20 0 -10 0 I I #
face $-1 $172 $103 $2 $-1 $173 forward single #
plane-surface $-1 0 30 -20 -1 0 0 0 -10 0 forward_v I I I I #
plane-surface $-1 -40 0 0 1 0 0 0 10 0 forward_v I I I I #
face $-1 $174 $175 $2 $-1 $176 forward single #
loop $-1 $-1 $147 $81 #
plane-surface $-1 70 0 0 1 0 0 0 -10 0 forward_v I I I I #
coedge $-1 $130 $177 $132 $178 forward $82 $-1 #
coedge $-1 $133 $84 $179 $180 forward $57 $-1 #
coedge $-1 $84 $132 $181 $182 reversed $57 $-1 #
coedge $-1 $177 $183 $84 $127 reversed $82 $-1 #
edge $-1 $184 0 $185 2.03175416344814419 $84 $186 forward 7 unknown #
coedge $-1 $187 $188 $85 $129 forward $112 $-1 #
edge $-1 $189 0 $134 2.219223593595585076 $128 $190 forward 7 unknown #
coedge $-1 $191 $123 $86 $131 forward $82 $-1 #
edge $-1 $135 0 $97 1.094914077134479635 $86 $192 forward 7 unknown #
coedge $-1 $125 $87 $123 $178 reversed $57 $-1 #
coedge $-1 $87 $124 $193 $194 forward $57 $-1 #
vertex $-1 $195 $196 #
vertex $-1 $131 $197 #
ellipse-curve $-1 70 8.881784197001252323e-15 -6.661338147750939243e-15 1 0 0 0 -10.30776406404415724 20.00000000000000711 1 I I #
coedge $-1 $198 $199 $89 $138 forward $200 $-1 #
edge $-1 $161 0 $142 6.5 $89 $201 forward 7 unknown #
coedge $-1 $202 $90 $95 $150 forward $141 $-1 #
coedge $-1 $90 $202 $198 $203 reversed $141 $-1 #
loop $-1 $-1 $202 $204 #
vertex $-1 $138 $205 #
ellipse-curve $-1 67.5 -32.49999999999999289 -20 0 0 -1 2.5 -4.440892098500626162e-15 0 1 I I #
coedge $-1 $92 $206 $207 $208 forward $20 $-1 #
coedge $-1 $209 $210 $92 $146 forward $175 $-1 #
edge $-1 $148 -3.552713678800501127e-16 $211 1.719223593595584632 $92 $212 forward 7 unknown #
coedge $-1 $93 $93 $191 $213 forward $121 $-1 #
vertex $-1 $94 $214 #
straight-curve $-1 70 10.30776406404415013 -20 0 -10 0 I I #
edge $-1 $96 0 $189 4 $95 $215 forward 7 unknown #
point $-1 70 -32.5 -20 #
point $-1 70 -10.30776406404415368 -20 #
coedge $-1 $216 $99 $102 $156 reversed $112 $-1 #
straight-curve $-1 0 0 20 0 -10 0 I I #
coedge $-1 $102 $101 $199 $217 forward $103 $-1 #
edge $-1 $218 4.440892098500626408e-17 $104 1.57079632679489789 $153 $219 forward 7 unknown #
point $-1 0 -32.5 20 #
coedge $-1 $220 $106 $221 $222 reversed $20 $-1 #
coedge $-1 $109 $223 $106 $160 reversed $164 $-1 #
edge $-1 $115 0 $224 1.57079632679489789 $106 $225 forward 7 unknown #
vertex $-1 $107 $226 #
ellipse-curve $-1 2.499999999999997335 -32.5 -20 0 0 -1 2.775557561562891351e-15 -2.5 0 1 I I #
coedge $-1 $223 $109 $111 $167 forward $164 $-1 #
loop $-1 $-1 $163 $227 #
straight-curve $-1 0 27.5 -20 0 0 10 I I #
coedge $-1 $111 $228 $229 $230 forward $112 $-1 #
edge $-1 $113 0 $231 1.570796326794897668 $111 $232 forward 7 unknown #
coedge $-1 $233 $187 $234 $235 forward $112 $-1 #
face $-1 $236 $112 $2 $-1 $237 forward single #
point $-1 0 27.5 20 #
point $-1 0 27.5 -20 #
face $-1 $204 $200 $2 $-1 $238 forward single #
cone-surface $-1 2.5 -32.5 -20 0 0 -1 0 -2.5 0 1 I I 0 1 2.5 forward I I I I #
face $-1 $169 $239 $2 $-1 $240 forward single #
loop $-1 $-1 $210 $120 #
plane-surface $-1 70 -35 -20 1 0 0 0 10 0 forward_v I I I I #
coedge $-1 $123 $126 $241 $242 reversed $82 $-1 #
edge $-1 $243 0 $135 2.03175416344814419 $132 $244 forward 7 unknown #
coedge $-1 $210 $234 $124 $180 reversed $175 $-1 #
edge $-1 $185 0 $245 1.094914077134479857 $179 $246 forward 7 unknown #
coedge $-1 $247 $248 $125 $182 forward $249 $-1 #
edge $-1 $184 0 $243 3.141592653589793116 $125 $250 forward 7 unknown #
coedge $-1 $126 $191 $210 $251 forward $82 $-1 #
vertex $-1 $182 $252 #
vertex $-1 $180 $253 #
straight-curve $-1 90.31754163448144368 22.5 2.755364296100348831e-15 -10 0 0 I I #
coedge $-1 $168 $128 $254 $195 reversed $112 $-1 #
coedge $-1 $128 $216 $202 $255 reversed $112 $-1 #
vertex $-1 $129 $256 #
straight-curve $-1 70 -32.5 20 0 10 0 I I #
coedge $-1 $183 $130 $147 $213 reversed $82 $-1 #
ellipse-curve $-1 70 8.881784197001252323e-15 0 1 0 0 0 -22.50000000000000711 0 1 I I #
coedge $-1 $254 $254 $133 $194 reversed $257 $-1 #
edge $-1 $245 5.61416482575881395e-17 $134 0.9517644993208330684 $133 $258 forward 7 unknown #
edge $-1 $245 0 $134 2.061552812808830737 $187 $259 forward 7 unknown #
point $-1 70 -10.30776406404415191 20 #
point $-1 70 -22.5 0 #
coedge $-1 $260 $137 $140 $203 forward $200 $-1 #
coedge $-1 $137 $260 $155 $217 reversed $200 $-1 #
loop $-1 $-1 $198 $172 #
straight-curve $-1 2.5 -35 -20 10 0 0 I I #
coedge $-1 $140 $139 $188 $255 forward $141 $-1 #
edge $-1 $142 0 $261 4 $198 $262 forward 7 unknown #
face $-1 $263 $141 $2 $-1 $264 forward single #
point $-1 67.5 -35 -20 #
coedge $-1 $144 $265 $266 $267 reversed $20 $-1 #
coedge $-1 $268 $269 $144 $208 reversed $239 $-1 #
edge $-1 $270 0 $211 1.570796326794895226 $144 $271 forward 7 unknown #
coedge $-1 $234 $145 $269 $272 forward $175 $-1 #
coedge $-1 $145 $179 $183 $251 reversed $175 $-1 #
vertex $-1 $146 $273 #
straight-curve $-1 70 10.30776406404415368 -20 0 10 0 I I #
edge $-1 $148 0 $97 0.9517644993208330684 $147 $274 forward 7 unknown #
point $-1 70 10.30776406404415013 -20 #
straight-curve $-1 70 -32.5 -20 0 0 10 I I #
coedge $-1 $188 $153 $260 $275 forward $112 $-1 #
edge $-1 $161 0 $218 4 $199 $276 forward 7 unknown #
vertex $-1 $275 $277 #
ellipse-curve $-1 2.499999999999997335 -32.5 20 0 0 -1 2.775557561562891351e-15 -2.5 0 1 I I #
coedge $-1 $278 $158 $279 $280 forward $20 $-1 #
coedge $-1 $281 $282 $158 $222 forward $283 $-1 #
edge $-1 $284 0 $224 1 $158 $285 forward 7 unknown #
coedge $-1 $159 $163 $281 $286 reversed $164 $-1 #
vertex $-1 $222 $287 #
ellipse-curve $-1 2.499999999999997335 27.5 -20 0 0 -1 -2.499999999999997335 0 0 1 I I #
point $-1 2.5 -35 -20 #
face $-1 $79 $164 $2 $-1 $288 forward single #
coedge $-1 $166 $289 $290 $291 reversed $112 $-1 #
coedge $-1 $282 $281 $166 $230 reversed $283 $-1 #
edge $-1 $292 0 $231 1 $166 $293 forward 7 unknown #
vertex $-1 $167 $294 #
ellipse-curve $-1 2.499999999999997335 27.5 20 0 0 -1 -2.499999999999997335 0 0 1 I I #
coedge $-1 $295 $168 $296 $297 reversed $112 $-1 #
coedge $-1 $179 $209 $168 $235 reversed $175 $-1 #
edge $-1 $245 0 $298 1.719223593595584632 $168 $299 forward 7 unknown #
face $-1 $300 $301 $2 $-1 $302 forward single #
plane-surface $-1 0 0 20 0 0 1 10 0 0 forward_v I I I I #
plane-surface $-1 0 -35 -20 0 -1 0 10 0 0 forward_v I I I I #
loop $-1 $-1 $296 $174 #
cone-surface $-1 67.5 27.5 -20 0 0 -1 0 2.5 0 1 I I 0 1 2.5 forward I I I I #
coedge $-1 $303 $304 $177 $242 forward $305 $-1 #
edge $-1 $243 -2.449212707644754516e-16 $184 3.141592653589793116 $177 $306 forward 7 unknown #
vertex $-1 $182 $307 #
straight-curve $-1 90.31754163448144368 -22.5 -5.510728592200697662e-15 -10 0 0 I I #
vertex $-1 $195 $308 #
ellipse-curve $-1 70 -4.440892098500626162e-15 0 1 0 0 0 22.50000000000000355 0 1 I I #
coedge $-1 $309 $181 $304 $310 forward $249 $-1 #
coedge $-1 $181 $309 $303 $311 reversed $249 $-1 #
loop $-1 $-1 $248 $312 #
ellipse-curve $-1 90.31754163448144368 0 0 1 0 0 0 22.50000000000000355 0 1 I I #
edge $-1 $148 -1.684249447727645541e-16 $185 1.094914077134480301 $210 $313 forward 7 unknown #
point $-1 90.31754163448144368 22.50000000000000355 0 #
point $-1 70 22.5 0 #
coedge $-1 $193 $193 $187 $195 forward $257 $-1 #
edge $-1 $189 1.065814103640150239e-15 $261 1.570796326794894782 $188 $314 forward 7 unknown #
point $-1 70 -32.5 20 #
loop $-1 $-1 $193 $263 #
ellipse-curve $-1 70 1.11022302462515654e-15 -4.440892098500626162e-15 1 0 0 0 10.30776406404415368 20.00000000000000355 1 I I #
straight-curve $-1 70 10.30776406404415368 20 0 -10 0 I I #
coedge $-1 $199 $198 $216 $275 reversed $200 $-1 #
vertex $-1 $255 $315 #
straight-curve $-1 67.5 -35 -20 0 0 10 I I #
face $-1 $316 $257 $2 $-1 $317 reversed single #
cone-surface $-1 67.5 -32.5 -20 0 0 -1 2.5 0 0 1 I I 0 1 2.5 forward I I I I #
coedge $-1 $206 $318 $319 $320 forward $20 $-1 #
coedge $-1 $321 $322 $206 $267 forward $301 $-1 #
edge $-1 $270 0 $323 1 $206 $324 forward 7 unknown #
coedge $-1 $296 $207 $322 $325 forward $239 $-1 #
coedge $-1 $207 $296 $209 $272 reversed $239 $-1 #
vertex $-1 $208 $326 #
ellipse-curve $-1 67.5 27.49999999999999645 -20 0 0 -1 0 2.500000000000004441 0 1 I I #
edge $-1 $211 0 $298 4 $209 $327 forward 7 unknown #
point $-1 70 27.5 -20 #
ellipse-curve $-1 70 -1.665334536937734811e-15 0 -1 0 0 0 10.30776406404415191 -20 1 I I #
edge $-1 $218 0 $261 6.5 $216 $328 forward 7 unknown #
straight-curve $-1 2.5 -35 -20 0 0 10 I I #
point $-1 2.5 -35 20 #
coedge $-1 $329 $220 $330 $331 reversed $20 $-1 #
coedge $-1 $332 $333 $220 $280 reversed $334 $-1 #
edge $-1 $284 3.552713678800501127e-16 $335 1.570796326794898556 $220 $336 forward 7 unknown #
coedge $-1 $229 $221 $223 $286 forward $283 $-1 #
coedge $-1 $221 $229 $332 $337 reversed $283 $-1 #
loop $-1 $-1 $281 $338 #
vertex $-1 $280 $339 #
straight-curve $-1 12.5 30 -20 -10 0 0 I I #
edge $-1 $224 0 $231 4 $281 $340 forward 7 unknown #
point $-1 2.5 30 -20 #
cone-surface $-1 2.5 27.5 -20 0 0 -1 -2.5 0 0 1 I I 0 1 2.5 forward I I I I #
coedge $-1 $228 $341 $342 $343 forward $112 $-1 #
coedge $-1 $333 $332 $228 $291 forward $334 $-1 #
edge $-1 $292 3.552713678800501127e-16 $344 1.570796326794898556 $228 $345 forward 7 unknown #
vertex $-1 $230 $346 #
straight-curve $-1 12.5 30 20 -10 0 0 I I #
point $-1 2.499999999999999556 30 20 #
coedge $-1 $347 $233 $348 $349 forward $112 $-1 #
coedge $-1 $269 $268 $233 $297 forward $239 $-1 #
edge $-1 $350 0 $298 1.570796326794895226 $233 $351 forward 7 unknown #
vertex $-1 $297 $352 #
straight-curve $-1 70 10.30776406404415368 20 0 10 0 I I #
face $-1 $353 $354 $2 $-1 $355 forward single #
loop $-1 $-1 $321 $236 #
plane-surface $-1 70 30 -20 0 1 0 -10 0 0 forward_v I I I I #
coedge $-1 $356 $241 $248 $311 forward $305 $-1 #
coedge $-1 $241 $356 $247 $310 reversed $305 $-1 #
loop $-1 $-1 $304 $316 #
ellipse-curve $-1 90.31754163448144368 0 0 1 0 0 0 -22.5 -2.755364296100348831e-15 1 I I #
point $-1 90.31754163448144368 -22.5 2.755364296100348831e-15 #
point $-1 70 10.30776406404415368 20 #
coedge $-1 $248 $247 $357 $358 reversed $249 $-1 #
edge $-1 $243 -3.552713678800492252e-16 $359 2.636232143305634601 $304 $360 forward 7 unknown #
edge $-1 $184 -2.486899575160345464e-16 $361 2.636232143305635045 $303 $362 forward 7 unknown #
face $-1 $363 $249 $2 $-1 $364 reversed single #
ellipse-curve $-1 70 4.440892098500626162e-15 -4.440892098500626162e-15 1 0 0 0 10.30776406404415013 -19.99999999999999645 1 I I #
ellipse-curve $-1 67.5 -32.49999999999999289 20 0 0 -1 2.5 -4.440892098500626162e-15 0 1 I I #
point $-1 67.5 -35 20 #
face $-1 $312 $305 $2 $-1 $365 reversed single #
plane-surface $-1 70 0 0 1 0 0 0 -10 0 forward_v I I I I #
coedge $-1 $265 $366 $367 $368 reversed $20 $-1 #
coedge $-1 $369 $370 $265 $320 reversed $354 $-1 #
edge $-1 $371 -3.552713678800501127e-16 $323 1.570796326794894782 $265 $372 forward 7 unknown #
coedge $-1 $348 $266 $370 $373 forward $301 $-1 #
coedge $-1 $266 $348 $268 $325 reversed $301 $-1 #
vertex $-1 $267 $374 #
straight-curve $-1 67.5 30 -20 -10 0 0 I I #
edge $-1 $270 0 $350 4 $322 $375 forward 7 unknown #
point $-1 67.5 30 -20 #
straight-curve $-1 70 27.5 -20 0 0 10 I I #
straight-curve $-1 2.5 -35 20 10 0 0 I I #
coedge $-1 $376 $278 $377 $378 forward $20 $-1 #
coedge $-1 $379 $380 $278 $331 forward $381 $-1 #
edge $-1 $382 0 $335 4.5 $278 $383 forward 7 unknown #
coedge $-1 $290 $279 $282 $337 forward $334 $-1 #
coedge $-1 $279 $290 $379 $384 reversed $334 $-1 #
loop $-1 $-1 $290 $385 #
vertex $-1 $331 $386 #
ellipse-curve $-1 12.50000000000000355 27.5 -20 0 0 -1 -4.440892098500626162e-15 2.5 0 1 I I #
edge $-1 $284 0 $292 4 $282 $387 forward 7 unknown #
face $-1 $227 $283 $2 $-1 $388 forward single #
point $-1 12.5 30 -20 #
straight-curve $-1 2.5 30 -20 0 0 10 I I #
coedge $-1 $289 $389 $390 $391 reversed $112 $-1 #
coedge $-1 $380 $379 $289 $343 reversed $381 $-1 #
edge $-1 $392 0 $344 4.5 $289 $393 forward 7 unknown #
vertex $-1 $291 $394 #
ellipse-curve $-1 12.50000000000000355 27.5 20 0 0 -1 -4.440892098500626162e-15 2.5 0 1 I I #
point $-1 12.5 30 20 #
coedge $-1 $395 $295 $396 $397 reversed $112 $-1 #
coedge $-1 $322 $321 $295 $349 reversed $301 $-1 #
edge $-1 $350 0 $398 1 $295 $399 forward 7 unknown #
vertex $-1 $349 $400 #
ellipse-curve $-1 67.5 27.49999999999999645 20 0 0 -1 0 2.500000000000004441 0 1 I I #
point $-1 70 27.5 20 #
face $-1 $401 $402 $2 $-1 $403 forward single #
loop $-1 $-1 $396 $300 #
cone-surface $-1 57.5 27.5 -20 0 0 -1 -2.5 0 0 1 I I 0 1 2.5 forward I I I I #
coedge $-1 $304 $303 $404 $405 reversed $305 $-1 #
coedge $-1 $406 $407 $309 $358 forward $408 $-1 #
edge $-1 $361 0 $359 3.141592653589793116 $357 $409 forward 7 unknown #
vertex $-1 $410 $411 #
ellipse-curve $-1 100 -25.00000000000000711 3.061515884555944723e-15 3.697785493223486269e-32 -1.224606353822377505e-16 -1 -9.682458365518549215 2.500000000000008882 -3.061515884555957937e-16 1 I I #
vertex $-1 $358 $412 #
ellipse-curve $-1 100 25.00000000000000711 0 0 0 1 -9.682458365518549215 -2.500000000000004441 0 1 I I #
face $-1 $413 $408 $2 $-1 $414 forward single #
torus-surface $-1 100 0 0 -1 0 0 25 10 0 1 0 forward_v I I I I #
torus-surface $-1 100 0 0 -1 0 0 25 10 0 1 0 forward_v I I I I #
coedge $-1 $318 $376 $415 $416 forward $20 $-1 #
coedge $-1 $417 $418 $318 $368 forward $402 $-1 #
edge $-1 $371 0 $419 4.5 $318 $420 forward 7 unknown #
coedge $-1 $396 $319 $418 $421 forward $354 $-1 #
coedge $-1 $319 $396 $321 $373 reversed $354 $-1 #
vertex $-1 $320 $422 #
ellipse-curve $-1 57.5 27.49999999999999645 -20 0 0 -1 -2.5 4.440892098500626162e-15 0 1 I I #
edge $-1 $323 0 $398 4 $321 $423 forward 7 unknown #
point $-1 57.5 30 -20 #
straight-curve $-1 67.5 30 -20 0 0 10 I I #
coedge $-1 $366 $329 $424 $425 reversed $20 $-1 #
coedge $-1 $426 $427 $329 $378 reversed $428 $-1 #
edge $-1 $382 0 $429 1.570796326794896558 $329 $430 forward 7 unknown #
coedge $-1 $342 $330 $333 $384 forward $381 $-1 #
coedge $-1 $330 $342 $426 $431 reversed $381 $-1 #
loop $-1 $-1 $379 $432 #
vertex $-1 $378 $433 #
straight-curve $-1 15 -17.5 -20 0 10 0 I I #
edge $-1 $335 0 $344 4 $379 $434 forward 7 unknown #
face $-1 $338 $334 $2 $-1 $435 forward single #
point $-1 15 27.5 -20 #
straight-curve $-1 12.5 30 -20 0 0 10 I I #
plane-surface $-1 15 30 -20 0 1 0 -10 0 0 forward_v I I I I #
coedge $-1 $341 $436 $437 $438 forward $112 $-1 #
coedge $-1 $427 $426 $341 $391 forward $428 $-1 #
edge $-1 $392 0 $439 1.570796326794898112 $341 $440 forward 7 unknown #
vertex $-1 $343 $441 #
straight-curve $-1 15 -17.5 20 0 10 0 I I #
point $-1 15 27.5 20 #
coedge $-1 $436 $347 $442 $443 forward $112 $-1 #
coedge $-1 $370 $369 $347 $397 forward $354 $-1 #
edge $-1 $444 -3.552713678800501127e-16 $398 1.570796326794894782 $347 $445 forward 7 unknown #
vertex $-1 $397 $446 #
straight-curve $-1 67.5 30 20 -10 0 0 I I #
point $-1 67.5 30 20 #
face $-1 $447 $448 $2 $-1 $449 reversed single #
loop $-1 $-1 $417 $353 #
plane-surface $-1 55 30 -20 -1 0 0 0 -10 0 forward_v I I I I #
coedge $-1 $450 $451 $356 $405 forward $452 $-1 #
edge $-1 $359 0 $361 3.141592653589793116 $404 $453 forward 7 unknown #
coedge $-1 $454 $357 $451 $410 reversed $408 $-1 #
coedge $-1 $357 $454 $450 $455 forward $408 $-1 #
loop $-1 $-1 $407 $363 #
ellipse-curve $-1 109.6824583655185563 0 0 1 0 0 0 22.50000000000000355 0 1 I I #
edge $-1 $456 0 $359 1.063508326896288825 $406 $457 forward 7 unknown #
point $-1 109.6824583655185563 -22.49999999999999645 -2.755364296100348437e-15 #
point $-1 109.6824583655185563 22.49999999999999645 0 #
face $-1 $458 $452 $2 $-1 $459 forward single #
cone-surface $-1 27.5 0 0 1 0 0 0 -22.5 0 1 I I 0 1 22.5 forward I I I I #
coedge $-1 $460 $461 $366 $416 reversed $448 $-1 #
edge $-1 $462 0 $419 1.570796326794896558 $366 $463 forward 7 unknown #
coedge $-1 $442 $367 $461 $464 forward $402 $-1 #
coedge $-1 $367 $442 $369 $421 reversed $402 $-1 #
vertex $-1 $368 $465 #
straight-curve $-1 55 27.5 -20 0 -10 0 I I #
edge $-1 $371 0 $444 4 $418 $466 forward 7 unknown #
point $-1 55 27.5 -20 #
straight-curve $-1 57.5 30 -20 0 0 10 I I #
coedge $-1 $467 $468 $376 $425 forward $469 $-1 #
edge $-1 $462 0 $429 3.5 $376 $470 forward 7 unknown #
coedge $-1 $390 $377 $380 $431 forward $428 $-1 #
coedge $-1 $377 $390 $467 $471 reversed $428 $-1 #
loop $-1 $-1 $390 $472 #
vertex $-1 $425 $473 #
ellipse-curve $-1 17.5 -17.5 -20 0 0 1 -2.5 0 0 1 I I #
edge $-1 $382 0 $392 4 $380 $474 forward 7 unknown #
face $-1 $385 $381 $2 $-1 $475 forward single #
point $-1 15 -17.5 -20 #
straight-curve $-1 15 27.5 -20 0 0 10 I I #
cone-surface $-1 12.5 27.5 -20 0 0 -1 0 2.5 0 1 I I 0 1 2.5 forward I I I I #
coedge $-1 $389 $395 $476 $477 reversed $112 $-1 #
coedge $-1 $468 $467 $389 $438 reversed $469 $-1 #
edge $-1 $478 0 $439 3.5 $389 $479 forward 7 unknown #
vertex $-1 $391 $480 #
ellipse-curve $-1 17.5 -17.5 20 0 0 1 -2.5 0 0 1 I I #
point $-1 15 -17.5 20 #
coedge $-1 $418 $417 $395 $443 reversed $402 $-1 #
edge $-1 $444 0 $481 4.5 $395 $482 forward 7 unknown #
vertex $-1 $443 $483 #
ellipse-curve $-1 57.5 27.49999999999999645 20 0 0 -1 -2.5 4.440892098500626162e-15 0 1 I I #
point $-1 57.5 30 20 #
face $-1 $472 $469 $2 $-1 $484 forward single #
loop $-1 $-1 $476 $401 #
cone-surface $-1 52.5 -17.5 -20 0 0 1 0 -2.5 0 1 I I 0 1 2.5 forward I I I I #
coedge $-1 $485 $404 $407 $455 reversed $452 $-1 #
coedge $-1 $404 $485 $406 $410 forward $452 $-1 #
loop $-1 $-1 $451 $413 #
ellipse-curve $-1 109.6824583655185563 0 0 1 0 0 0 -22.49999999999999645 -2.755364296100348437e-15 1 I I #
coedge $-1 $407 $406 $486 $487 reversed $408 $-1 #
edge $-1 $488 0 $361 1.063508326896288825 $407 $489 forward 7 unknown #
vertex $-1 $487 $490 #
straight-curve $-1 120.3175416344814437 -22.5 -5.510728592200697662e-15 -10 0 0 I I #
face $-1 $491 $492 $2 $-1 $493 reversed single #
cone-surface $-1 27.5 0 0 1 0 0 0 -22.5 0 1 I I 0 1 22.5 forward I I I I #
coedge $-1 $476 $415 $468 $494 forward $448 $-1 #
coedge $-1 $415 $476 $417 $464 reversed $448 $-1 #
vertex $-1 $416 $495 #
ellipse-curve $-1 52.5 -17.5 -20 0 0 1 0 -2.5 0 1 I I #
edge $-1 $419 0 $481 4 $417 $496 forward 7 unknown #
point $-1 55 -17.5 -20 #
straight-curve $-1 55 27.5 -20 0 0 10 I I #
coedge $-1 $437 $424 $427 $471 forward $469 $-1 #
coedge $-1 $424 $437 $460 $494 reversed $469 $-1 #
loop $-1 $-1 $467 $447 #
straight-curve $-1 52.5 -20 -20 -10 0 0 I I #
edge $-1 $429 0 $439 4 $467 $497 forward 7 unknown #
face $-1 $432 $428 $2 $-1 $498 reversed single #
point $-1 17.5 -20 -20 #
straight-curve $-1 15 -17.5 -20 0 0 10 I I #
plane-surface $-1 15 -20 -20 1 0 0 0 10 0 forward_v I I I I #
coedge $-1 $461 $460 $436 $477 forward $448 $-1 #
edge $-1 $478 0 $481 1.570796326794895226 $436 $499 forward 7 unknown #
vertex $-1 $438 $500 #
straight-curve $-1 52.5 -20 20 -10 0 0 I I #
point $-1 17.50000000000000355 -20 20 #
vertex $-1 $477 $501 #
straight-curve $-1 55 27.5 20 0 -10 0 I I #
point $-1 55 27.5 20 #
plane-surface $-1 55 -20 -20 0 1 0 -10 0 0 forward_v I I I I #
coedge $-1 $451 $450 $502 $503 reversed $452 $-1 #
coedge $-1 $504 $505 $454 $487 forward $506 $-1 #
edge $-1 $488 0 $456 3.141592653589793116 $454 $507 forward 7 unknown #
vertex $-1 $487 $508 #
straight-curve $-1 120.3175416344814437 22.5 2.755364296100348831e-15 -10 0 0 I I #
point $-1 120.3175416344814437 -22.5 2.755364296100348831e-15 #
face $-1 $509 $506 $2 $-1 $510 reversed single #
loop $-1 $-1 $511 $458 #
torus-surface $-1 130 0 0 -1 0 0 25 10 0 1 0 forward_v I I I I #
edge $-1 $462 0 $478 4 $468 $512 forward 7 unknown #
point $-1 52.5 -20 -20 #
straight-curve $-1 55 -17.5 -20 0 0 10 I I #
straight-curve $-1 17.5 -20 -20 0 0 10 I I #
cone-surface $-1 17.5 -17.5 -20 0 0 1 -2.5 0 0 1 I I 0 1 2.5 forward I I I I #
ellipse-curve $-1 52.5 -17.5 20 0 0 1 0 -2.5 0 1 I I #
point $-1 52.5 -20 20 #
point $-1 55 -17.50000000000000355 20 #
coedge $-1 $513 $511 $485 $503 forward $492 $-1 #
edge $-1 $456 -2.449212707644754516e-16 $488 3.141592653589793116 $485 $514 forward 7 unknown #
coedge $-1 $515 $486 $511 $516 forward $506 $-1 #
coedge $-1 $486 $515 $513 $517 reversed $506 $-1 #
loop $-1 $-1 $505 $491 #
ellipse-curve $-1 120.3175416344814437 0 0 1 0 0 0 22.50000000000000355 0 1 I I #
point $-1 120.3175416344814437 22.50000000000000355 0 #
face $-1 $518 $519 $2 $-1 $520 forward single #
torus-surface $-1 130 0 0 -1 0 0 25 10 0 1 0 forward_v I I I I #
coedge $-1 $502 $521 $504 $516 reversed $492 $-1 #
straight-curve $-1 52.5 -20 -20 0 0 10 I I #
coedge $-1 $521 $502 $505 $517 forward $492 $-1 #
ellipse-curve $-1 120.3175416344814437 0 0 1 0 0 0 -22.5 -2.755364296100348831e-15 1 I I #
coedge $-1 $505 $504 $522 $523 reversed $506 $-1 #
edge $-1 $456 -3.552713678800492252e-16 $524 2.636232143305634601 $511 $525 forward 7 unknown #
edge $-1 $488 -2.486899575160345464e-16 $526 2.636232143305635489 $513 $527 forward 7 unknown #
face $-1 $528 $529 $2 $-1 $530 forward single #
loop $-1 $-1 $531 $509 #
cone-surface $-1 27.5 0 0 1 0 0 0 -22.5 0 1 I I 0 1 22.5 forward I I I I #
coedge $-1 $511 $513 $532 $533 reversed $492 $-1 #
coedge $-1 $531 $534 $515 $523 forward $519 $-1 #
edge $-1 $526 0 $524 3.141592653589793116 $522 $535 forward 7 unknown #
vertex $-1 $523 $536 #
ellipse-curve $-1 130 -25.00000000000000711 3.061515884555944723e-15 3.697785493223486269e-32 -1.224606353822377505e-16 -1 -9.682458365518549215 2.500000000000008882 -3.061515884555957937e-16 1 I I #
vertex $-1 $523 $537 #
ellipse-curve $-1 130 25.00000000000000711 0 0 0 1 -9.682458365518549215 -2.500000000000004441 0 1 I I #
face $-1 $538 $539 $2 $-1 $540 reversed single #
loop $-1 $-1 $541 $518 #
cone-surface $-1 27.5 0 0 1 0 0 0 -22.5 0 1 I I 0 1 22.5 forward I I I I #
coedge $-1 $542 $522 $543 $544 reversed $519 $-1 #
coedge $-1 $541 $543 $521 $533 forward $529 $-1 #
edge $-1 $524 -2.449212707644755009e-16 $526 3.141592653589793116 $532 $545 forward 7 unknown #
coedge $-1 $522 $542 $541 $546 forward $519 $-1 #
ellipse-curve $-1 139.6824583655185563 0 0 1 0 0 0 22.50000000000000355 0 1 I I #
point $-1 139.6824583655185563 -22.49999999999999645 2.755364296100348437e-15 #
point $-1 139.6824583655185563 22.50000000000000355 0 #
face $-1 $547 $548 $2 $-1 $549 reversed single #
loop $-1 $-1 $550 $528 #
torus-surface $-1 160 0 0 -1 0 0 25 10 0 1 0 forward_v I I I I #
coedge $-1 $551 $532 $534 $546 reversed $529 $-1 #
coedge $-1 $534 $531 $552 $553 reversed $519 $-1 #
coedge $-1 $532 $551 $531 $544 forward $529 $-1 #
edge $-1 $554 0 $524 1.063508326896288825 $531 $555 forward 7 unknown #
ellipse-curve $-1 139.6824583655185563 0 0 1 0 0 0 -22.49999999999999645 -2.755364296100348437e-15 1 I I #
edge $-1 $556 0 $526 1.063508326896288825 $534 $557 forward 7 unknown #
face $-1 $558 $559 $2 $-1 $560 forward single #
loop $-1 $-1 $561 $538 #
torus-surface $-1 160 0 0 -1 0 0 25 10 0 1 0 forward_v I I I I #
coedge $-1 $562 $563 $564 $565 reversed $539 $-1 #
coedge $-1 $543 $541 $562 $566 reversed $529 $-1 #
coedge $-1 $564 $561 $542 $553 forward $548 $-1 #
edge $-1 $556 1.224606353822377258e-16 $554 3.141592653589793116 $542 $567 forward 7 unknown #
vertex $-1 $553 $568 #
straight-curve $-1 150.3175416344814437 -22.5 -5.510728592200697662e-15 -10 0 0 I I #
vertex $-1 $546 $569 #
straight-curve $-1 150.3175416344814437 22.5 2.755364296100348831e-15 -10 0 0 I I #
face $-1 $570 $571 $2 $-1 $572 forward single #
loop $-1 $-1 $573 $547 #
cone-surface $-1 27.5 0 0 1 0 0 0 -22.5 0 1 I I 0 1 22.5 forward I I I I #
coedge $-1 $552 $574 $575 $576 reversed $548 $-1 #
coedge $-1 $575 $550 $551 $566 forward $539 $-1 #
coedge $-1 $550 $575 $577 $578 reversed $539 $-1 #
coedge $-1 $574 $552 $550 $565 forward $548 $-1 #
edge $-1 $554 -2.842170943040391928e-16 $579 2.636232143305631936 $550 $580 forward 7 unknown #
edge $-1 $554 -2.449212707644754516e-16 $556 3.141592653589793116 $551 $581 forward 7 unknown #
ellipse-curve $-1 150.3175416344814437 0 0 1 0 0 0 22.50000000000000355 0 1 I I #
point $-1 150.3175416344814437 -22.5 2.755364296100348831e-15 #
point $-1 150.3175416344814437 22.5 2.755364296100348831e-15 #
face $-1 $80 $582 $2 $-1 $583 forward single #
loop $-1 $-1 $584 $558 #
cone-surface $-1 27.5 0 0 1 0 0 0 -22.5 0 1 I I 0 1 22.5 forward I I I I #
coedge $-1 $585 $586 $587 $588 reversed $559 $-1 #
coedge $-1 $561 $564 $586 $589 reversed $548 $-1 #
coedge $-1 $563 $562 $561 $576 forward $539 $-1 #
edge $-1 $556 2.486899575160343492e-16 $590 2.636232143305634601 $575 $591 forward 7 unknown #
coedge $-1 $584 $587 $563 $578 forward $571 $-1 #
edge $-1 $579 -2.449212707644754516e-16 $590 3.141592653589793116 $577 $592 forward 7 unknown #
vertex $-1 $589 $593 #
ellipse-curve $-1 160 -25.00000000000002132 3.061515884555946301e-15 2.465190328815655871e-32 -1.224606353822377505e-16 -1 -9.682458365518549215 2.500000000000022204 -3.061515884555972728e-16 1 I I #
ellipse-curve $-1 150.3175416344814437 0 0 1 0 0 0 -22.5 -2.755364296100348831e-15 1 I I #
loop $-1 $-1 $594 $570 #
plane-surface $-1 185 0 0 1 0 0 0 -10 0 forward_v I I I I #
coedge $-1 $595 $577 $596 $597 reversed $571 $-1 #
coedge $-1 $596 $573 $594 $598 reversed $559 $-1 #
coedge $-1 $573 $596 $574 $589 forward $559 $-1 #
coedge $-1 $577 $595 $573 $588 forward $571 $-1 #
edge $-1 $599 0 $579 1.531754163448144412 $573 $600 forward 7 unknown #
edge $-1 $590 0 $579 3.141592653589793116 $586 $601 forward 7 unknown #
vertex $-1 $589 $602 #
ellipse-curve $-1 160 25.00000000000001776 0 0 0 1 -9.682458365518549215 -2.500000000000013323 0 1 I I #
ellipse-curve $-1 169.6824583655185563 0 0 1 0 0 0 -22.50000000000000355 -2.755364296100349225e-15 1 I I #
point $-1 169.6824583655185563 -22.49999999999999645 2.755364296100348437e-15 #
coedge $-1 $603 $603 $585 $598 forward $582 $-1 #
coedge $-1 $587 $584 $603 $604 forward $571 $-1 #
coedge $-1 $586 $585 $584 $597 forward $559 $-1 #
edge $-1 $605 0 $590 1.531754163448144412 $596 $606 forward 7 unknown #
edge $-1 $605 0 $599 3.141592653589793116 $594 $607 forward 7 unknown #
vertex $-1 $604 $608 #
straight-curve $-1 185 -22.5 -5.510728592200697662e-15 -10 0 0 I I #
ellipse-curve $-1 169.6824583655185563 0 0 1 0 0 0 22.50000000000001421 0 1 I I #
point $-1 169.6824583655185563 22.50000000000001421 0 #
coedge $-1 $594 $594 $595 $604 reversed $582 $-1 #
edge $-1 $605 0 $599 3.141592653589793116 $603 $609 forward 7 unknown #
vertex $-1 $604 $610 #
straight-curve $-1 185 22.5 2.755364296100348831e-15 -10 0 0 I I #
ellipse-curve $-1 185 0 0 1 0 0 0 22.5 2.755364296100348831e-15 1 I I #
point $-1 185 -22.5 -5.510728592200697662e-15 #
ellipse-curve $-1 185 0 -1.11022302462515654e-15 -1 0 0 0 22.5 3.865587320725505371e-15 1 I I #
point $-1 185 22.5 2.755364296100348831e-15 #
End-of-ACIS-data 