600 0 1 0           
103 GICL Pro/E ACIS Translator - Source: f:/data5/repository/PTC/V18/asmdes18/parts/shift_rod_end.prt - 6 0 13 ACIS 6.0.3 NT 24 Thu Apr 04 13:45:40 2002 
1 9.9999999999999995e-007 1e-010 
body $-1 $1 $-1 $2 #
lump $-1 $-1 $3 $0 #
transform $-1 1 0 0 0 1 0 0 0 1 0 0 0 10 no_rotate no_reflect no_shear #
shell $-1 $-1 $-1 $4 $-1 $1 #
face $-1 $5 $6 $3 $-1 $7 forward single #
face $-1 $8 $9 $3 $-1 $10 forward single #
loop $-1 $-1 $11 $4 #
cone-surface $-1 0 0 0 -1 0 0 0 0 2 1 I I 0 1 2 forward I I I I #
face $-1 $12 $13 $3 $-1 $14 forward single #
loop $-1 $-1 $15 $5 #
cone-surface $-1 0 0 0 -1 0 0 0 0 2 1 I I 0 1 2 forward I I I I #
coedge $-1 $16 $17 $18 $19 reversed $6 $-1 #
face $-1 $20 $21 $3 $-1 $22 reversed single #
loop $-1 $-1 $23 $8 #
plane-surface $-1 0 3 -2 -1 0 0 0 -1 0 forward_v I I I I #
coedge $-1 $24 $25 $26 $27 reversed $9 $-1 #
coedge $-1 $26 $11 $28 $29 forward $6 $-1 #
coedge $-1 $11 $26 $30 $31 reversed $6 $-1 #
coedge $-1 $25 $24 $11 $19 forward $9 $-1 #
edge $-1 $32 0 $33 4 $11 $34 forward 7 unknown #
face $-1 $35 $36 $3 $-1 $37 forward single #
loop $-1 $-1 $38 $12 #
plane-surface $-1 0 0 -2 0 0 1 1 0 0 forward_v I I I I #
coedge $-1 $39 $40 $41 $42 forward $13 $-1 #
coedge $-1 $18 $15 $40 $43 forward $9 $-1 #
coedge $-1 $15 $18 $44 $45 reversed $9 $-1 #
coedge $-1 $17 $16 $15 $27 forward $6 $-1 #
edge $-1 $46 0 $47 4 $26 $48 forward 7 unknown #
coedge $-1 $49 $50 $16 $29 reversed $51 $-1 #
edge $-1 $32 0 $46 3.1415926535897931 $16 $52 forward 7 unknown #
coedge $-1 $44 $44 $17 $31 forward $53 $-1 #
edge $-1 $33 0 $47 3.1415926535897931 $17 $54 forward 7 unknown #
vertex $-1 $29 $55 #
vertex $-1 $31 $56 #
straight-curve $-1 0 0 2 -1 0 0 I I #
face $-1 $57 $58 $3 $-1 $59 forward single #
loop $-1 $-1 $60 $20 #
plane-surface $-1 7 -3.5 -2 1 0 0 0 1 0 forward_v I I I I #
coedge $-1 $61 $62 $63 $64 reversed $21 $-1 #
coedge $-1 $65 $23 $66 $67 forward $13 $-1 #
coedge $-1 $23 $65 $24 $43 reversed $13 $-1 #
coedge $-1 $68 $69 $23 $42 reversed $21 $-1 #
edge $-1 $46 0 $70 3.25 $41 $71 forward 7 unknown #
edge $-1 $46 0 $32 3.1415926535897931 $24 $72 forward 7 unknown #
coedge $-1 $30 $30 $25 $45 forward $53 $-1 #
edge $-1 $47 0 $33 3.1415926535897931 $25 $73 forward 7 unknown #
vertex $-1 $27 $74 #
vertex $-1 $31 $75 #
straight-curve $-1 0 2.4492127076447545e-016 -2 -1 0 0 I I #
coedge $-1 $76 $28 $77 $78 reversed $51 $-1 #
coedge $-1 $28 $76 $68 $79 forward $51 $-1 #
loop $-1 $-1 $49 $80 #
ellipse-curve $-1 0 0 0 -1 0 0 0 0 2 1 I I #
loop $-1 $-1 $44 $81 #
ellipse-curve $-1 -4 0 -1.6653345369377348e-016 -1 0 0 0 0 2 1 I I #
point $-1 0 0 2 #
point $-1 -4 0 2 #
face $-1 $82 $83 $3 $-1 $84 forward single #
loop $-1 $-1 $85 $35 #
cone-surface $-1 2.75 0 0 1 0 0 0 -2.25 0 1 I I 0 1 2.25 forward I I I I #
coedge $-1 $86 $87 $88 $89 reversed $36 $-1 #
coedge $-1 $90 $38 $91 $92 forward $21 $-1 #
coedge $-1 $38 $93 $94 $95 forward $21 $-1 #
coedge $-1 $87 $96 $38 $64 forward $36 $-1 #
edge $-1 $97 0 $98 2.2192235935955846 $38 $99 forward 7 unknown #
coedge $-1 $40 $39 $100 $101 reversed $13 $-1 #
coedge $-1 $102 $103 $39 $67 reversed $104 $-1 #
edge $-1 $70 0 $105 4 $39 $106 forward 7 unknown #
coedge $-1 $107 $41 $50 $79 reversed $21 $-1 #
coedge $-1 $41 $90 $102 $108 forward $21 $-1 #
vertex $-1 $42 $109 #
straight-curve $-1 0 0 -2 0 -1 0 I I #
ellipse-curve $-1 0 0 0 -1 0 0 0 0 -2 1 I I #
ellipse-curve $-1 -4 -1.1102230246251565e-016 2.2204460492503131e-016 -1 0 0 0 3.5594357322699111e-016 -2 1 I I #
point $-1 0 0 -2 #
point $-1 -4 2.4492127076447545e-016 -2 #
coedge $-1 $50 $49 $110 $111 reversed $51 $-1 #
coedge $-1 $100 $112 $49 $78 forward $113 $-1 #
edge $-1 $114 0 $32 2.75 $77 $115 forward 7 unknown #
edge $-1 $116 0 $46 2.75 $68 $117 forward 7 unknown #
face $-1 $118 $51 $3 $-1 $119 forward single #
face $-1 $-1 $53 $3 $-1 $120 reversed single #
face $-1 $121 $122 $3 $-1 $123 reversed single #
loop $-1 $-1 $124 $57 #
cone-surface $-1 2.75 0 0 1 0 0 0 -2.25 0 1 I I 0 1 2.25 forward I I I I #
coedge $-1 $125 $126 $127 $128 forward $58 $-1 #
coedge $-1 $96 $60 $129 $130 reversed $36 $-1 #
coedge $-1 $60 $63 $131 $132 reversed $36 $-1 #
coedge $-1 $133 $134 $60 $89 forward $58 $-1 #
edge $-1 $135 8.7721325402481413e-017 $136 1.0949140771344796 $60 $137 forward 7 unknown #
coedge $-1 $69 $61 $138 $139 reversed $21 $-1 #
coedge $-1 $140 $141 $61 $92 reversed $142 $-1 #
edge $-1 $97 0 $143 1.5707963267948948 $61 $144 forward 7 unknown #
coedge $-1 $62 $145 $146 $147 reversed $21 $-1 #
coedge $-1 $148 $148 $62 $95 reversed $122 $-1 #
edge $-1 $149 0 $98 2.0615528128088303 $62 $150 forward 7 unknown #
coedge $-1 $63 $86 $140 $151 reversed $36 $-1 #
vertex $-1 $92 $152 #
vertex $-1 $95 $153 #
straight-curve $-1 7 -3.25 -2 0 1 0 I I #
coedge $-1 $154 $77 $65 $101 forward $113 $-1 #
edge $-1 $32 0 $105 3.25 $100 $155 forward 7 unknown #
coedge $-1 $156 $66 $69 $108 reversed $104 $-1 #
coedge $-1 $66 $156 $154 $157 forward $104 $-1 #
loop $-1 $-1 $103 $118 #
vertex $-1 $157 $158 #
straight-curve $-1 0 -3.25 -2 0 0 1 I I #
coedge $-1 $159 $68 $160 $161 forward $21 $-1 #
edge $-1 $162 0 $70 1.5707963267948977 $69 $163 forward 7 unknown #
point $-1 0 -3.25 -2 #
coedge $-1 $164 $160 $76 $111 forward $165 $-1 #
edge $-1 $116 0 $114 4 $76 $166 forward 7 unknown #
coedge $-1 $77 $167 $164 $168 reversed $113 $-1 #
loop $-1 $-1 $169 $170 #
vertex $-1 $78 $171 #
straight-curve $-1 0 2.75 2 0 -1 0 I I #
vertex $-1 $161 $172 #
straight-curve $-1 0 2.75 -2 0 -1 0 I I #
face $-1 $173 $104 $3 $-1 $174 forward single #
plane-surface $-1 0 3 -2 -1 0 0 0 -1 0 forward_v I I I I #
plane-surface $-1 -4 0 0 1 0 0 0 1 0 forward_v I I I I #
face $-1 $175 $176 $3 $-1 $177 forward single #
loop $-1 $-1 $148 $82 #
plane-surface $-1 7 0 0 1 0 0 0 -1 0 forward_v I I I I #
coedge $-1 $131 $178 $133 $179 forward $83 $-1 #
coedge $-1 $134 $85 $180 $181 forward $58 $-1 #
coedge $-1 $85 $133 $182 $183 reversed $58 $-1 #
coedge $-1 $178 $184 $85 $128 reversed $83 $-1 #
edge $-1 $185 0 $186 2.0317541634481451 $85 $187 forward 7 unknown #
coedge $-1 $188 $189 $86 $130 forward $113 $-1 #
edge $-1 $190 0 $135 2.2192235935955846 $129 $191 forward 7 unknown #
coedge $-1 $192 $124 $87 $132 forward $83 $-1 #
edge $-1 $136 0 $98 1.0949140771344796 $87 $193 forward 7 unknown #
coedge $-1 $126 $88 $124 $179 reversed $58 $-1 #
coedge $-1 $88 $125 $194 $195 forward $58 $-1 #
vertex $-1 $196 $197 #
vertex $-1 $132 $198 #
ellipse-curve $-1 7 8.8817841970012523e-016 -6.6613381477509392e-016 1 0 0 0 -1.0307764064044158 2.0000000000000009 1 I I #
coedge $-1 $199 $200 $90 $139 forward $201 $-1 #
edge $-1 $162 0 $143 6.5 $90 $202 forward 7 unknown #
coedge $-1 $203 $91 $96 $151 forward $142 $-1 #
coedge $-1 $91 $203 $199 $204 reversed $142 $-1 #
loop $-1 $-1 $203 $205 #
vertex $-1 $139 $206 #
ellipse-curve $-1 6.75 -3.2499999999999996 -2 0 0 -1 0.25 -4.4408920985006262e-016 0 1 I I #
coedge $-1 $93 $207 $208 $209 forward $21 $-1 #
coedge $-1 $210 $211 $93 $147 forward $176 $-1 #
edge $-1 $149 -4.4408920985006262e-016 $212 1.7192235935955846 $93 $213 forward 7 unknown #
coedge $-1 $94 $94 $192 $214 forward $122 $-1 #
vertex $-1 $95 $215 #
straight-curve $-1 7 1.0307764064044149 -2 0 -1 0 I I #
edge $-1 $97 0 $190 4 $96 $216 forward 7 unknown #
point $-1 7 -3.25 -2 #
point $-1 7 -1.0307764064044154 -2 #
coedge $-1 $217 $100 $103 $157 reversed $113 $-1 #
straight-curve $-1 0 0 2 0 -1 0 I I #
coedge $-1 $103 $102 $200 $218 forward $104 $-1 #
edge $-1 $219 0 $105 1.5707963267948977 $154 $220 forward 7 unknown #
point $-1 0 -3.25 2 #
coedge $-1 $221 $107 $222 $223 reversed $21 $-1 #
coedge $-1 $110 $224 $107 $161 reversed $165 $-1 #
edge $-1 $116 0 $225 1.5707963267948977 $107 $226 forward 7 unknown #
vertex $-1 $108 $227 #
ellipse-curve $-1 0.24999999999999972 -3.25 -2 0 0 -1 2.7755575615628914e-016 -0.25 0 1 I I #
coedge $-1 $224 $110 $112 $168 forward $165 $-1 #
loop $-1 $-1 $164 $228 #
straight-curve $-1 0 2.75 -2 0 0 1 I I #
coedge $-1 $112 $229 $230 $231 forward $113 $-1 #
edge $-1 $114 0 $232 1.5707963267948977 $112 $233 forward 7 unknown #
coedge $-1 $234 $188 $235 $236 forward $113 $-1 #
face $-1 $237 $113 $3 $-1 $238 forward single #
point $-1 0 2.75 2 #
point $-1 0 2.75 -2 #
face $-1 $205 $201 $3 $-1 $239 forward single #
cone-surface $-1 0.25 -3.25 -2 0 0 -1 0 -0.25 0 1 I I 0 1 0.25 forward I I I I #
face $-1 $170 $240 $3 $-1 $241 forward single #
loop $-1 $-1 $211 $121 #
plane-surface $-1 7 -3.5 -2 1 0 0 0 1 0 forward_v I I I I #
coedge $-1 $124 $127 $242 $243 reversed $83 $-1 #
edge $-1 $244 0 $136 2.0317541634481451 $133 $245 forward 7 unknown #
coedge $-1 $211 $235 $125 $181 reversed $176 $-1 #
edge $-1 $186 0 $246 1.0949140771344799 $180 $247 forward 7 unknown #
coedge $-1 $248 $249 $126 $183 forward $250 $-1 #
edge $-1 $185 0 $244 3.1415926535897931 $126 $251 forward 7 unknown #
coedge $-1 $127 $192 $211 $252 forward $83 $-1 #
vertex $-1 $183 $253 #
vertex $-1 $181 $254 #
straight-curve $-1 9.0317541634481451 2.25 2.7553642961003488e-016 -1 0 0 I I #
coedge $-1 $169 $129 $255 $196 reversed $113 $-1 #
coedge $-1 $129 $217 $203 $256 reversed $113 $-1 #
vertex $-1 $130 $257 #
straight-curve $-1 7 -3.25 2 0 1 0 I I #
coedge $-1 $184 $131 $148 $214 reversed $83 $-1 #
ellipse-curve $-1 7 8.8817841970012523e-016 0 1 0 0 0 -2.2500000000000009 0 1 I I #
coedge $-1 $255 $255 $134 $195 reversed $258 $-1 #
edge $-1 $246 0 $135 0.95176449932083307 $134 $259 forward 7 unknown #
edge $-1 $246 0 $135 2.0615528128088307 $188 $260 forward 7 unknown #
point $-1 7 -1.0307764064044151 2 #
point $-1 7 -2.25 0 #
coedge $-1 $261 $138 $141 $204 forward $201 $-1 #
coedge $-1 $138 $261 $156 $218 reversed $201 $-1 #
loop $-1 $-1 $199 $173 #
straight-curve $-1 0.25 -3.5 -2 1 0 0 I I #
coedge $-1 $141 $140 $189 $256 forward $142 $-1 #
edge $-1 $143 0 $262 4 $199 $263 forward 7 unknown #
face $-1 $264 $142 $3 $-1 $265 forward single #
point $-1 6.75 -3.5 -2 #
coedge $-1 $145 $266 $267 $268 reversed $21 $-1 #
coedge $-1 $269 $270 $145 $209 reversed $240 $-1 #
edge $-1 $271 0 $212 1.5707963267948948 $145 $272 forward 7 unknown #
coedge $-1 $235 $146 $270 $273 forward $176 $-1 #
coedge $-1 $146 $180 $184 $252 reversed $176 $-1 #
vertex $-1 $147 $274 #
straight-curve $-1 7 1.0307764064044154 -2 0 1 0 I I #
edge $-1 $149 0 $98 0.95176449932083307 $148 $275 forward 7 unknown #
point $-1 7 1.0307764064044149 -2 #
straight-curve $-1 7 -3.25 -2 0 0 1 I I #
coedge $-1 $189 $154 $261 $276 forward $113 $-1 #
edge $-1 $162 0 $219 4 $200 $277 forward 7 unknown #
vertex $-1 $276 $278 #
ellipse-curve $-1 0.24999999999999972 -3.25 2 0 0 -1 2.7755575615628914e-016 -0.25 0 1 I I #
coedge $-1 $279 $159 $280 $281 forward $21 $-1 #
coedge $-1 $282 $283 $159 $223 forward $284 $-1 #
edge $-1 $285 0 $225 1 $159 $286 forward 7 unknown #
coedge $-1 $160 $164 $282 $287 reversed $165 $-1 #
vertex $-1 $223 $288 #
ellipse-curve $-1 0.24999999999999972 2.75 -2 0 0 -1 -0.24999999999999972 0 0 1 I I #
point $-1 0.25 -3.5 -2 #
face $-1 $80 $165 $3 $-1 $289 forward single #
coedge $-1 $167 $290 $291 $292 reversed $113 $-1 #
coedge $-1 $283 $282 $167 $231 reversed $284 $-1 #
edge $-1 $293 0 $232 1 $167 $294 forward 7 unknown #
vertex $-1 $168 $295 #
ellipse-curve $-1 0.24999999999999972 2.75 2 0 0 -1 -0.24999999999999972 0 0 1 I I #
coedge $-1 $296 $169 $297 $298 reversed $113 $-1 #
coedge $-1 $180 $210 $169 $236 reversed $176 $-1 #
edge $-1 $246 0 $299 1.7192235935955846 $169 $300 forward 7 unknown #
face $-1 $301 $302 $3 $-1 $303 forward single #
plane-surface $-1 0 0 2 0 0 1 1 0 0 forward_v I I I I #
plane-surface $-1 0 -3.5 -2 0 -1 0 1 0 0 forward_v I I I I #
loop $-1 $-1 $297 $175 #
cone-surface $-1 6.75 2.75 -2 0 0 -1 0 0.25 0 1 I I 0 1 0.25 forward I I I I #
coedge $-1 $304 $305 $178 $243 forward $306 $-1 #
edge $-1 $244 -2.4492127076447545e-016 $185 3.1415926535897931 $178 $307 forward 7 unknown #
vertex $-1 $183 $308 #
straight-curve $-1 9.0317541634481451 -2.25 -5.5107285922006977e-016 -1 0 0 I I #
vertex $-1 $196 $309 #
ellipse-curve $-1 7 -4.4408920985006262e-016 0 1 0 0 0 2.2500000000000004 0 1 I I #
coedge $-1 $310 $182 $305 $311 forward $250 $-1 #
coedge $-1 $182 $310 $304 $312 reversed $250 $-1 #
loop $-1 $-1 $249 $313 #
ellipse-curve $-1 9.0317541634481451 0 0 1 0 0 0 2.2500000000000004 0 1 I I #
edge $-1 $149 -1.754426508049631e-016 $186 1.0949140771344803 $211 $314 forward 7 unknown #
point $-1 9.0317541634481451 2.2500000000000004 0 #
point $-1 7 2.25 0 #
coedge $-1 $194 $194 $188 $196 forward $258 $-1 #
edge $-1 $190 0 $262 1.5707963267948948 $189 $315 forward 7 unknown #
point $-1 7 -3.25 2 #
loop $-1 $-1 $194 $264 #
ellipse-curve $-1 7 1.1102230246251565e-016 -4.4408920985006262e-016 1 0 0 0 1.0307764064044154 2.0000000000000004 1 I I #
straight-curve $-1 7 1.0307764064044154 2 0 -1 0 I I #
coedge $-1 $200 $199 $217 $276 reversed $201 $-1 #
vertex $-1 $256 $316 #
straight-curve $-1 6.75 -3.5 -2 0 0 1 I I #
face $-1 $317 $258 $3 $-1 $318 reversed single #
cone-surface $-1 6.75 -3.25 -2 0 0 -1 0.25 0 0 1 I I 0 1 0.25 forward I I I I #
coedge $-1 $207 $319 $320 $321 forward $21 $-1 #
coedge $-1 $322 $323 $207 $268 forward $302 $-1 #
edge $-1 $271 0 $324 1 $207 $325 forward 7 unknown #
coedge $-1 $297 $208 $323 $326 forward $240 $-1 #
coedge $-1 $208 $297 $210 $273 reversed $240 $-1 #
vertex $-1 $209 $327 #
ellipse-curve $-1 6.75 2.7499999999999996 -2 0 0 -1 0 0.25000000000000044 0 1 I I #
edge $-1 $212 0 $299 4 $210 $328 forward 7 unknown #
point $-1 7 2.75 -2 #
ellipse-curve $-1 7 -1.6653345369377348e-016 0 -1 0 0 0 1.0307764064044151 -2 1 I I #
edge $-1 $219 0 $262 6.5 $217 $329 forward 7 unknown #
straight-curve $-1 0.25 -3.5 -2 0 0 1 I I #
point $-1 0.25 -3.5 2 #
coedge $-1 $330 $221 $331 $332 reversed $21 $-1 #
coedge $-1 $333 $334 $221 $281 reversed $335 $-1 #
edge $-1 $285 0 $336 1.5707963267948983 $221 $337 forward 7 unknown #
coedge $-1 $230 $222 $224 $287 forward $284 $-1 #
coedge $-1 $222 $230 $333 $338 reversed $284 $-1 #
loop $-1 $-1 $282 $339 #
vertex $-1 $281 $340 #
straight-curve $-1 1.25 3 -2 -1 0 0 I I #
edge $-1 $225 0 $232 4 $282 $341 forward 7 unknown #
point $-1 0.25 3 -2 #
cone-surface $-1 0.25 2.75 -2 0 0 -1 -0.25 0 0 1 I I 0 1 0.25 forward I I I I #
coedge $-1 $229 $342 $343 $344 forward $113 $-1 #
coedge $-1 $334 $333 $229 $292 forward $335 $-1 #
edge $-1 $293 0 $345 1.5707963267948983 $229 $346 forward 7 unknown #
vertex $-1 $231 $347 #
straight-curve $-1 1.25 3 2 -1 0 0 I I #
point $-1 0.24999999999999997 3 2 #
coedge $-1 $348 $234 $349 $350 forward $113 $-1 #
coedge $-1 $270 $269 $234 $298 forward $240 $-1 #
edge $-1 $351 0 $299 1.5707963267948948 $234 $352 forward 7 unknown #
vertex $-1 $298 $353 #
straight-curve $-1 7 1.0307764064044154 2 0 1 0 I I #
face $-1 $354 $355 $3 $-1 $356 forward single #
loop $-1 $-1 $322 $237 #
plane-surface $-1 7 3 -2 0 1 0 -1 0 0 forward_v I I I I #
coedge $-1 $357 $242 $249 $312 forward $306 $-1 #
coedge $-1 $242 $357 $248 $311 reversed $306 $-1 #
loop $-1 $-1 $305 $317 #
ellipse-curve $-1 9.0317541634481451 0 0 1 0 0 0 -2.25 -2.7553642961003488e-016 1 I I #
point $-1 9.0317541634481451 -2.25 2.7553642961003488e-016 #
point $-1 7 1.0307764064044154 2 #
coedge $-1 $249 $248 $358 $359 reversed $250 $-1 #
edge $-1 $244 0 $360 2.6362321433056342 $305 $361 forward 7 unknown #
edge $-1 $185 0 $362 2.6362321433056346 $304 $363 forward 7 unknown #
face $-1 $364 $250 $3 $-1 $365 reversed single #
ellipse-curve $-1 7 4.4408920985006262e-016 -4.4408920985006262e-016 1 0 0 0 1.0307764064044149 -1.9999999999999996 1 I I #
ellipse-curve $-1 6.75 -3.2499999999999996 2 0 0 -1 0.25 -4.4408920985006262e-016 0 1 I I #
point $-1 6.75 -3.5 2 #
face $-1 $313 $306 $3 $-1 $366 reversed single #
plane-surface $-1 7 0 0 1 0 0 0 -1 0 forward_v I I I I #
coedge $-1 $266 $367 $368 $369 reversed $21 $-1 #
coedge $-1 $370 $371 $266 $321 reversed $355 $-1 #
edge $-1 $372 0 $324 1.5707963267948948 $266 $373 forward 7 unknown #
coedge $-1 $349 $267 $371 $374 forward $302 $-1 #
coedge $-1 $267 $349 $269 $326 reversed $302 $-1 #
vertex $-1 $268 $375 #
straight-curve $-1 6.75 3 -2 -1 0 0 I I #
edge $-1 $271 0 $351 4 $323 $376 forward 7 unknown #
point $-1 6.75 3 -2 #
straight-curve $-1 7 2.75 -2 0 0 1 I I #
straight-curve $-1 0.25 -3.5 2 1 0 0 I I #
coedge $-1 $377 $279 $378 $379 forward $21 $-1 #
coedge $-1 $380 $381 $279 $332 forward $382 $-1 #
edge $-1 $383 0 $336 4.5 $279 $384 forward 7 unknown #
coedge $-1 $291 $280 $283 $338 forward $335 $-1 #
coedge $-1 $280 $291 $380 $385 reversed $335 $-1 #
loop $-1 $-1 $291 $386 #
vertex $-1 $332 $387 #
ellipse-curve $-1 1.2500000000000004 2.75 -2 0 0 -1 -4.4408920985006262e-016 0.25 0 1 I I #
edge $-1 $285 0 $293 4 $283 $388 forward 7 unknown #
face $-1 $228 $284 $3 $-1 $389 forward single #
point $-1 1.25 3 -2 #
straight-curve $-1 0.25 3 -2 0 0 1 I I #
coedge $-1 $290 $390 $391 $392 reversed $113 $-1 #
coedge $-1 $381 $380 $290 $344 reversed $382 $-1 #
edge $-1 $393 0 $345 4.5 $290 $394 forward 7 unknown #
vertex $-1 $292 $395 #
ellipse-curve $-1 1.2500000000000004 2.75 2 0 0 -1 -4.4408920985006262e-016 0.25 0 1 I I #
point $-1 1.25 3 2 #
coedge $-1 $396 $296 $397 $398 reversed $113 $-1 #
coedge $-1 $323 $322 $296 $350 reversed $302 $-1 #
edge $-1 $351 0 $399 1 $296 $400 forward 7 unknown #
vertex $-1 $350 $401 #
ellipse-curve $-1 6.75 2.7499999999999996 2 0 0 -1 0 0.25000000000000044 0 1 I I #
point $-1 7 2.75 2 #
face $-1 $402 $403 $3 $-1 $404 forward single #
loop $-1 $-1 $397 $301 #
cone-surface $-1 5.75 2.75 -2 0 0 -1 -0.25 0 0 1 I I 0 1 0.25 forward I I I I #
coedge $-1 $305 $304 $405 $406 reversed $306 $-1 #
coedge $-1 $407 $408 $310 $359 forward $409 $-1 #
edge $-1 $362 0 $360 3.1415926535897931 $358 $410 forward 7 unknown #
vertex $-1 $411 $412 #
ellipse-curve $-1 10 -2.5000000000000009 3.0615158845559446e-016 3.6977854932234863e-032 -1.2246063538223775e-016 -1 -0.96824583655185492 0.25000000000000089 -3.0615158845559579e-017 1 I I #
vertex $-1 $359 $413 #
ellipse-curve $-1 10 2.5000000000000009 0 0 0 1 -0.96824583655185492 -0.25000000000000044 0 1 I I #
face $-1 $414 $409 $3 $-1 $415 forward single #
torus-surface $-1 10 0 0 -1 0 0 2.5 1 0 1 0 forward_v I I I I #
torus-surface $-1 10 0 0 -1 0 0 2.5 1 0 1 0 forward_v I I I I #
coedge $-1 $319 $377 $416 $417 forward $21 $-1 #
coedge $-1 $418 $419 $319 $369 forward $403 $-1 #
edge $-1 $372 0 $420 4.5 $319 $421 forward 7 unknown #
coedge $-1 $397 $320 $419 $422 forward $355 $-1 #
coedge $-1 $320 $397 $322 $374 reversed $355 $-1 #
vertex $-1 $321 $423 #
ellipse-curve $-1 5.75 2.7499999999999996 -2 0 0 -1 -0.25 4.4408920985006262e-016 0 1 I I #
edge $-1 $324 0 $399 4 $322 $424 forward 7 unknown #
point $-1 5.75 3 -2 #
straight-curve $-1 6.75 3 -2 0 0 1 I I #
coedge $-1 $367 $330 $425 $426 reversed $21 $-1 #
coedge $-1 $427 $428 $330 $379 reversed $429 $-1 #
edge $-1 $383 0 $430 1.5707963267948966 $330 $431 forward 7 unknown #
coedge $-1 $343 $331 $334 $385 forward $382 $-1 #
coedge $-1 $331 $343 $427 $432 reversed $382 $-1 #
loop $-1 $-1 $380 $433 #
vertex $-1 $379 $434 #
straight-curve $-1 1.5 -1.75 -2 0 1 0 I I #
edge $-1 $336 0 $345 4 $380 $435 forward 7 unknown #
face $-1 $339 $335 $3 $-1 $436 forward single #
point $-1 1.5 2.75 -2 #
straight-curve $-1 1.25 3 -2 0 0 1 I I #
plane-surface $-1 1.5 3 -2 0 1 0 -1 0 0 forward_v I I I I #
coedge $-1 $342 $437 $438 $439 forward $113 $-1 #
coedge $-1 $428 $427 $342 $392 forward $429 $-1 #
edge $-1 $393 0 $440 1.5707963267948974 $342 $441 forward 7 unknown #
vertex $-1 $344 $442 #
straight-curve $-1 1.5 -1.75 2 0 1 0 I I #
point $-1 1.5 2.75 2 #
coedge $-1 $437 $348 $443 $444 forward $113 $-1 #
coedge $-1 $371 $370 $348 $398 forward $355 $-1 #
edge $-1 $445 0 $399 1.5707963267948948 $348 $446 forward 7 unknown #
vertex $-1 $398 $447 #
straight-curve $-1 6.75 3 2 -1 0 0 I I #
point $-1 6.75 3 2 #
face $-1 $448 $449 $3 $-1 $450 reversed single #
loop $-1 $-1 $418 $354 #
plane-surface $-1 5.5 3 -2 -1 0 0 0 -1 0 forward_v I I I I #
coedge $-1 $451 $452 $357 $406 forward $453 $-1 #
edge $-1 $360 0 $362 3.1415926535897931 $405 $454 forward 7 unknown #
coedge $-1 $455 $358 $452 $411 reversed $409 $-1 #
coedge $-1 $358 $455 $451 $456 forward $409 $-1 #
loop $-1 $-1 $408 $364 #
ellipse-curve $-1 10.968245836551855 0 0 1 0 0 0 2.2500000000000004 0 1 I I #
edge $-1 $457 0 $360 1.0635083268962902 $407 $458 forward 7 unknown #
point $-1 10.968245836551855 -2.2499999999999996 -2.7553642961003483e-016 #
point $-1 10.968245836551855 2.2499999999999996 0 #
face $-1 $459 $453 $3 $-1 $460 forward single #
cone-surface $-1 2.75 0 0 1 0 0 0 -2.25 0 1 I I 0 1 2.25 forward I I I I #
coedge $-1 $461 $462 $367 $417 reversed $449 $-1 #
edge $-1 $463 0 $420 1.5707963267948966 $367 $464 forward 7 unknown #
coedge $-1 $443 $368 $462 $465 forward $403 $-1 #
coedge $-1 $368 $443 $370 $422 reversed $403 $-1 #
vertex $-1 $369 $466 #
straight-curve $-1 5.5 2.75 -2 0 -1 0 I I #
edge $-1 $372 0 $445 4 $419 $467 forward 7 unknown #
point $-1 5.5 2.75 -2 #
straight-curve $-1 5.75 3 -2 0 0 1 I I #
coedge $-1 $468 $469 $377 $426 forward $470 $-1 #
edge $-1 $463 0 $430 3.5 $377 $471 forward 7 unknown #
coedge $-1 $391 $378 $381 $432 forward $429 $-1 #
coedge $-1 $378 $391 $468 $472 reversed $429 $-1 #
loop $-1 $-1 $391 $473 #
vertex $-1 $426 $474 #
ellipse-curve $-1 1.75 -1.75 -2 0 0 1 -0.25 0 0 1 I I #
edge $-1 $383 0 $393 4 $381 $475 forward 7 unknown #
face $-1 $386 $382 $3 $-1 $476 forward single #
point $-1 1.5 -1.75 -2 #
straight-curve $-1 1.5 2.75 -2 0 0 1 I I #
cone-surface $-1 1.25 2.75 -2 0 0 -1 0 0.25 0 1 I I 0 1 0.25 forward I I I I #
coedge $-1 $390 $396 $477 $478 reversed $113 $-1 #
coedge $-1 $469 $468 $390 $439 reversed $470 $-1 #
edge $-1 $479 0 $440 3.5 $390 $480 forward 7 unknown #
vertex $-1 $392 $481 #
ellipse-curve $-1 1.75 -1.75 2 0 0 1 -0.25 0 0 1 I I #
point $-1 1.5 -1.75 2 #
coedge $-1 $419 $418 $396 $444 reversed $403 $-1 #
edge $-1 $445 0 $482 4.5 $396 $483 forward 7 unknown #
vertex $-1 $444 $484 #
ellipse-curve $-1 5.75 2.7499999999999996 2 0 0 -1 -0.25 4.4408920985006262e-016 0 1 I I #
point $-1 5.75 3 2 #
face $-1 $473 $470 $3 $-1 $485 forward single #
loop $-1 $-1 $477 $402 #
cone-surface $-1 5.25 -1.75 -2 0 0 1 0 -0.25 0 1 I I 0 1 0.25 forward I I I I #
coedge $-1 $486 $405 $408 $456 reversed $453 $-1 #
coedge $-1 $405 $486 $407 $411 forward $453 $-1 #
loop $-1 $-1 $452 $414 #
ellipse-curve $-1 10.968245836551855 0 0 1 0 0 0 -2.2499999999999996 -2.7553642961003483e-016 1 I I #
coedge $-1 $408 $407 $487 $488 reversed $409 $-1 #
edge $-1 $489 0 $362 1.0635083268962902 $408 $490 forward 7 unknown #
vertex $-1 $488 $491 #
straight-curve $-1 12.031754163448145 -2.25 -5.5107285922006977e-016 -1 0 0 I I #
face $-1 $492 $493 $3 $-1 $494 reversed single #
cone-surface $-1 2.75 0 0 1 0 0 0 -2.25 0 1 I I 0 1 2.25 forward I I I I #
coedge $-1 $477 $416 $469 $495 forward $449 $-1 #
coedge $-1 $416 $477 $418 $465 reversed $449 $-1 #
vertex $-1 $417 $496 #
ellipse-curve $-1 5.25 -1.75 -2 0 0 1 0 -0.25 0 1 I I #
edge $-1 $420 0 $482 4 $418 $497 forward 7 unknown #
point $-1 5.5 -1.75 -2 #
straight-curve $-1 5.5 2.75 -2 0 0 1 I I #
coedge $-1 $438 $425 $428 $472 forward $470 $-1 #
coedge $-1 $425 $438 $461 $495 reversed $470 $-1 #
loop $-1 $-1 $468 $448 #
straight-curve $-1 5.25 -2 -2 -1 0 0 I I #
edge $-1 $430 0 $440 4 $468 $498 forward 7 unknown #
face $-1 $433 $429 $3 $-1 $499 reversed single #
point $-1 1.75 -2 -2 #
straight-curve $-1 1.5 -1.75 -2 0 0 1 I I #
plane-surface $-1 1.5 -2 -2 1 0 0 0 1 0 forward_v I I I I #
coedge $-1 $462 $461 $437 $478 forward $449 $-1 #
edge $-1 $479 0 $482 1.5707963267948957 $437 $500 forward 7 unknown #
vertex $-1 $439 $501 #
straight-curve $-1 5.25 -2 2 -1 0 0 I I #
point $-1 1.7500000000000002 -2 2 #
vertex $-1 $478 $502 #
straight-curve $-1 5.5 2.75 2 0 -1 0 I I #
point $-1 5.5 2.75 2 #
plane-surface $-1 5.5 -2 -2 0 1 0 -1 0 0 forward_v I I I I #
coedge $-1 $452 $451 $503 $504 reversed $453 $-1 #
coedge $-1 $505 $506 $455 $488 forward $507 $-1 #
edge $-1 $489 0 $457 3.1415926535897931 $455 $508 forward 7 unknown #
vertex $-1 $488 $509 #
straight-curve $-1 12.031754163448145 2.25 2.7553642961003488e-016 -1 0 0 I I #
point $-1 12.031754163448145 -2.25 2.7553642961003488e-016 #
face $-1 $510 $507 $3 $-1 $511 reversed single #
loop $-1 $-1 $512 $459 #
torus-surface $-1 13 0 0 -1 0 0 2.5 1 0 1 0 forward_v I I I I #
edge $-1 $463 0 $479 4 $469 $513 forward 7 unknown #
point $-1 5.25 -2 -2 #
straight-curve $-1 5.5 -1.75 -2 0 0 1 I I #
straight-curve $-1 1.75 -2 -2 0 0 1 I I #
cone-surface $-1 1.75 -1.75 -2 0 0 1 -0.25 0 0 1 I I 0 1 0.25 forward I I I I #
ellipse-curve $-1 5.25 -1.75 2 0 0 1 0 -0.25 0 1 I I #
point $-1 5.25 -2 2 #
point $-1 5.5 -1.7500000000000002 2 #
coedge $-1 $514 $512 $486 $504 forward $493 $-1 #
edge $-1 $457 -2.4492127076447545e-016 $489 3.1415926535897931 $486 $515 forward 7 unknown #
coedge $-1 $516 $487 $512 $517 forward $507 $-1 #
coedge $-1 $487 $516 $514 $518 reversed $507 $-1 #
loop $-1 $-1 $506 $492 #
ellipse-curve $-1 12.031754163448145 0 0 1 0 0 0 2.2500000000000004 0 1 I I #
point $-1 12.031754163448145 2.2500000000000004 0 #
face $-1 $519 $520 $3 $-1 $521 forward single #
torus-surface $-1 13 0 0 -1 0 0 2.5 1 0 1 0 forward_v I I I I #
coedge $-1 $503 $522 $505 $517 reversed $493 $-1 #
straight-curve $-1 5.25 -2 -2 0 0 1 I I #
coedge $-1 $522 $503 $506 $518 forward $493 $-1 #
ellipse-curve $-1 12.031754163448145 0 0 1 0 0 0 -2.25 -2.7553642961003488e-016 1 I I #
coedge $-1 $506 $505 $523 $524 reversed $507 $-1 #
edge $-1 $457 0 $525 2.6362321433056342 $512 $526 forward 7 unknown #
edge $-1 $489 0 $527 2.6362321433056355 $514 $528 forward 7 unknown #
face $-1 $529 $530 $3 $-1 $531 forward single #
loop $-1 $-1 $532 $510 #
cone-surface $-1 2.75 0 0 1 0 0 0 -2.25 0 1 I I 0 1 2.25 forward I I I I #
coedge $-1 $512 $514 $533 $534 reversed $493 $-1 #
coedge $-1 $532 $535 $516 $524 forward $520 $-1 #
edge $-1 $527 0 $525 3.1415926535897931 $523 $536 forward 7 unknown #
vertex $-1 $524 $537 #
ellipse-curve $-1 13 -2.5000000000000009 3.0615158845559446e-016 3.6977854932234863e-032 -1.2246063538223775e-016 -1 -0.96824583655185492 0.25000000000000089 -3.0615158845559579e-017 1 I I #
vertex $-1 $524 $538 #
ellipse-curve $-1 13 2.5000000000000009 0 0 0 1 -0.96824583655185492 -0.25000000000000044 0 1 I I #
face $-1 $539 $540 $3 $-1 $541 reversed single #
loop $-1 $-1 $542 $519 #
cone-surface $-1 2.75 0 0 1 0 0 0 -2.25 0 1 I I 0 1 2.25 forward I I I I #
coedge $-1 $543 $523 $544 $545 reversed $520 $-1 #
coedge $-1 $542 $544 $522 $534 forward $530 $-1 #
edge $-1 $525 -2.4492127076447545e-016 $527 3.1415926535897931 $533 $546 forward 7 unknown #
coedge $-1 $523 $543 $542 $547 forward $520 $-1 #
ellipse-curve $-1 13.968245836551855 0 0 1 0 0 0 2.2500000000000004 0 1 I I #
point $-1 13.968245836551855 -2.2499999999999996 2.7553642961003483e-016 #
point $-1 13.968245836551855 2.2500000000000004 0 #
face $-1 $548 $549 $3 $-1 $550 reversed single #
loop $-1 $-1 $551 $529 #
torus-surface $-1 16 0 0 -1 0 0 2.5 1 0 1 0 forward_v I I I I #
coedge $-1 $552 $533 $535 $547 reversed $530 $-1 #
coedge $-1 $535 $532 $553 $554 reversed $520 $-1 #
coedge $-1 $533 $552 $532 $545 forward $530 $-1 #
edge $-1 $555 0 $525 1.0635083268962902 $532 $556 forward 7 unknown #
ellipse-curve $-1 13.968245836551855 0 0 1 0 0 0 -2.2499999999999996 -2.7553642961003483e-016 1 I I #
edge $-1 $557 0 $527 1.0635083268962902 $535 $558 forward 7 unknown #
face $-1 $559 $560 $3 $-1 $561 forward single #
loop $-1 $-1 $562 $539 #
torus-surface $-1 16 0 0 -1 0 0 2.5 1 0 1 0 forward_v I I I I #
coedge $-1 $563 $564 $565 $566 reversed $540 $-1 #
coedge $-1 $544 $542 $563 $567 reversed $530 $-1 #
coedge $-1 $565 $562 $543 $554 forward $549 $-1 #
edge $-1 $557 1.2246063538223773e-016 $555 3.1415926535897931 $543 $568 forward 7 unknown #
vertex $-1 $554 $569 #
straight-curve $-1 15.031754163448145 -2.25 -5.5107285922006977e-016 -1 0 0 I I #
vertex $-1 $547 $570 #
straight-curve $-1 15.031754163448145 2.25 2.7553642961003488e-016 -1 0 0 I I #
face $-1 $571 $572 $3 $-1 $573 forward single #
loop $-1 $-1 $574 $548 #
cone-surface $-1 2.75 0 0 1 0 0 0 -2.25 0 1 I I 0 1 2.25 forward I I I I #
coedge $-1 $553 $575 $576 $577 reversed $549 $-1 #
coedge $-1 $576 $551 $552 $567 forward $540 $-1 #
coedge $-1 $551 $576 $578 $579 reversed $540 $-1 #
coedge $-1 $575 $553 $551 $566 forward $549 $-1 #
edge $-1 $555 0 $580 2.6362321433056315 $551 $581 forward 7 unknown #
edge $-1 $555 -2.4492127076447545e-016 $557 3.1415926535897931 $552 $582 forward 7 unknown #
ellipse-curve $-1 15.031754163448145 0 0 1 0 0 0 2.2500000000000004 0 1 I I #
point $-1 15.031754163448145 -2.25 2.7553642961003488e-016 #
point $-1 15.031754163448145 2.25 2.7553642961003488e-016 #
face $-1 $81 $583 $3 $-1 $584 forward single #
loop $-1 $-1 $585 $559 #
cone-surface $-1 2.75 0 0 1 0 0 0 -2.25 0 1 I I 0 1 2.25 forward I I I I #
coedge $-1 $586 $587 $588 $589 reversed $560 $-1 #
coedge $-1 $562 $565 $587 $590 reversed $549 $-1 #
coedge $-1 $564 $563 $562 $577 forward $540 $-1 #
edge $-1 $557 4.4408920985006163e-016 $591 2.6362321433056346 $576 $592 forward 7 unknown #
coedge $-1 $585 $588 $564 $579 forward $572 $-1 #
edge $-1 $580 -2.4492127076447545e-016 $591 3.1415926535897931 $578 $593 forward 7 unknown #
vertex $-1 $590 $594 #
ellipse-curve $-1 16 -2.5000000000000022 3.0615158845559461e-016 2.4651903288156559e-032 -1.2246063538223775e-016 -1 -0.96824583655185492 0.25000000000000222 -3.0615158845559727e-017 1 I I #
ellipse-curve $-1 15.031754163448145 0 0 1 0 0 0 -2.25 -2.7553642961003488e-016 1 I I #
loop $-1 $-1 $595 $571 #
plane-surface $-1 18.5 0 0 1 0 0 0 -1 0 forward_v I I I I #
coedge $-1 $596 $578 $597 $598 reversed $572 $-1 #
coedge $-1 $597 $574 $595 $599 reversed $560 $-1 #
coedge $-1 $574 $597 $575 $590 forward $560 $-1 #
coedge $-1 $578 $596 $574 $589 forward $572 $-1 #
edge $-1 $600 0 $580 1.5317541634481451 $574 $601 forward 7 unknown #
edge $-1 $591 0 $580 3.1415926535897931 $587 $602 forward 7 unknown #
vertex $-1 $590 $603 #
ellipse-curve $-1 16 2.5000000000000018 0 0 0 1 -0.96824583655185492 -0.25000000000000133 0 1 I I #
ellipse-curve $-1 16.968245836551855 0 0 1 0 0 0 -2.2500000000000004 -2.7553642961003493e-016 1 I I #
point $-1 16.968245836551855 -2.2499999999999996 2.7553642961003483e-016 #
coedge $-1 $604 $604 $586 $599 forward $583 $-1 #
coedge $-1 $588 $585 $604 $605 forward $572 $-1 #
coedge $-1 $587 $586 $585 $598 forward $560 $-1 #
edge $-1 $606 0 $591 1.5317541634481451 $597 $607 forward 7 unknown #
edge $-1 $606 0 $600 3.1415926535897931 $595 $608 forward 7 unknown #
vertex $-1 $605 $609 #
straight-curve $-1 18.5 -2.25 -5.5107285922006977e-016 -1 0 0 I I #
ellipse-curve $-1 16.968245836551855 0 0 1 0 0 0 2.2500000000000013 0 1 I I #
point $-1 16.968245836551855 2.2500000000000013 0 #
coedge $-1 $595 $595 $596 $605 reversed $583 $-1 #
edge $-1 $606 0 $600 3.1415926535897931 $604 $610 forward 7 unknown #
vertex $-1 $605 $611 #
straight-curve $-1 18.5 2.25 2.7553642961003488e-016 -1 0 0 I I #
ellipse-curve $-1 18.5 0 0 1 0 0 0 2.25 2.7553642961003488e-016 1 I I #
point $-1 18.5 -2.25 -5.5107285922006977e-016 #
ellipse-curve $-1 18.5 0 -1.1102230246251565e-016 -1 0 0 0 2.25 3.8655873207255054e-016 1 I I #
point $-1 18.5 2.25 2.7553642961003488e-016 #
End-of-ACIS-data 