600 0 1 0           
98 GICL Pro/E ACIS Translator - Source: f:/data5/repository/PTC/V18/asmdes18/parts/shifter2.prt - 6 0 13 ACIS 6.0.3 NT 24 Thu Apr 04 10:06:58 2002 
1 9.9999999999999995e-007 1e-010 
body $-1 $1 $-1 $2 #
lump $-1 $-1 $3 $0 #
transform $-1 1 0 0 0 1 0 0 0 1 0 0 0 10 no_rotate no_reflect no_shear #
shell $-1 $-1 $-1 $4 $-1 $1 #
face $-1 $5 $6 $3 $-1 $7 reversed single #
face $-1 $8 $9 $3 $-1 $10 forward single #
loop $-1 $-1 $11 $4 #
plane-surface $-1 4 0 4 0.17364817766693033 0.98480775301220813 0 -0.98480775301220813 0.17364817766693033 0 forward_v I I I I #
face $-1 $12 $13 $3 $-1 $14 forward single #
loop $-1 $-1 $15 $5 #
cone-surface $-1 4 0 4 0.17364817766693033 0.98480775301220813 0 -0.7386058147591561 0.13023613325019776 0 1 I I 0 1 0.75 forward I I I I #
coedge $-1 $16 $16 $17 $18 reversed $6 $-1 #
face $-1 $19 $20 $3 $-1 $21 forward single #
loop $-1 $-1 $22 $8 #
cone-surface $-1 4 0 4 0.17364817766693033 0.98480775301220813 0 -0.7386058147591561 0.13023613325019776 0 1 I I 0 1 0.75 forward I I I I #
coedge $-1 $23 $17 $24 $25 forward $9 $-1 #
coedge $-1 $11 $11 $26 $27 reversed $6 $-1 #
coedge $-1 $15 $28 $11 $18 forward $9 $-1 #
edge $-1 $29 0 $30 3.1415926535897931 $11 $31 forward 7 unknown #
face $-1 $32 $33 $3 $-1 $34 forward single #
loop $-1 $-1 $35 $12 #
torus-surface $-1 13.814015561370535 26.864195614927841 4 0 0 -1 5 0.75 0.98480775301220813 -0.17364817766693005 0 forward_v I I I I #
coedge $-1 $36 $26 $28 $37 forward $13 $-1 #
coedge $-1 $28 $15 $38 $39 reversed $9 $-1 #
coedge $-1 $26 $36 $15 $25 reversed $13 $-1 #
edge $-1 $30 0 $40 28.160254037844393 $24 $41 forward 7 unknown #
coedge $-1 $22 $24 $16 $27 forward $13 $-1 #
edge $-1 $30 0 $29 3.1415926535897931 $16 $42 forward 7 unknown #
coedge $-1 $17 $23 $22 $37 reversed $9 $-1 #
vertex $-1 $27 $43 #
vertex $-1 $27 $44 #
ellipse-curve $-1 4 0 4 0.17364817766693039 0.98480775301220813 0 0.73860581475915588 -0.13023613325019776 0 1 I I #
face $-1 $45 $46 $3 $-1 $47 forward single #
loop $-1 $-1 $48 $19 #
torus-surface $-1 13.814015561370535 26.864195614927841 4 0 0 -1 5 0.75 0.98480775301220813 -0.17364817766693005 0 forward_v I I I I #
coedge $-1 $49 $50 $51 $52 forward $20 $-1 #
coedge $-1 $24 $22 $50 $53 reversed $13 $-1 #
edge $-1 $29 0 $54 28.160254037844393 $22 $55 forward 7 unknown #
coedge $-1 $48 $51 $23 $39 forward $33 $-1 #
edge $-1 $54 0 $40 3.141592653589794 $23 $56 forward 7 unknown #
vertex $-1 $25 $57 #
straight-curve $-1 3.2613941852408441 0.13023613325019776 4 0.17364817766693033 0.98480775301220802 0 I I #
ellipse-curve $-1 4 0 4 0.17364817766693039 0.98480775301220813 0 -0.73860581475915588 0.13023613325019776 0 1 I I #
point $-1 4.7386058147591559 -0.13023613325019776 4 #
point $-1 3.2613941852408441 0.13023613325019776 4 #
face $-1 $58 $59 $3 $-1 $60 forward single #
loop $-1 $-1 $61 $32 #
cone-surface $-1 9.9837933457756414 30.078133663360536 4 0.64278760968653881 0.76604444311897857 0 -0.57453333233923387 0.48209070726490399 0 1 I I 0 1 0.74999999999999989 forward I I I I #
coedge $-1 $62 $38 $63 $64 forward $33 $-1 #
coedge $-1 $63 $35 $65 $66 reversed $20 $-1 #
coedge $-1 $35 $63 $36 $53 forward $20 $-1 #
coedge $-1 $38 $62 $35 $52 reversed $33 $-1 #
edge $-1 $54 0 $67 0.52359877559829793 $35 $68 forward 7 unknown #
edge $-1 $40 0 $54 3.1415926535897931 $36 $69 forward 7 unknown #
vertex $-1 $53 $70 #
straight-curve $-1 4.7386058147591559 -0.13023613325019776 4 0.17364817766693033 0.98480775301220802 0 I I #
ellipse-curve $-1 8.8899767963094938 27.732436503262491 3.9999999999999996 0.173648177666929 0.98480775301220835 -8.1077370814381849e-031 0.73860581475915588 -0.13023613325019667 4.4408920985006262e-016 1 I I #
point $-1 8.1513709815503379 27.862672636512688 4 #
face $-1 $-1 $71 $3 $-1 $72 forward single #
loop $-1 $-1 $73 $45 #
cone-surface $-1 9.9837933457756414 30.078133663360536 4 0.64278760968653881 0.76604444311897857 0 -0.57453333233923387 0.48209070726490399 0 1 I I 0 1 0.74999999999999989 forward I I I I #
coedge $-1 $74 $75 $76 $77 forward $46 $-1 #
coedge $-1 $51 $48 $75 $78 reversed $33 $-1 #
coedge $-1 $50 $49 $48 $64 reversed $20 $-1 #
edge $-1 $40 0 $79 0.5235987755982987 $63 $80 forward 7 unknown #
coedge $-1 $73 $76 $49 $66 forward $59 $-1 #
edge $-1 $79 0 $67 3.1415926535897931 $49 $81 forward 7 unknown #
vertex $-1 $66 $82 #
ellipse-curve $-1 13.814015561370535 26.864195614927841 4 0 0 -1 -4.1854329503018857 0.73800475508445373 0 1 I I #
ellipse-curve $-1 8.8899767963094938 27.732436503262491 4 0.173648177666929 0.98480775301220835 0 -0.73860581475915588 0.13023613325019667 0 1 I I #
point $-1 9.6285826110686497 27.602200370012294 4 #
loop $-1 $-1 $83 $58 #
plane-surface $-1 31.6201875802033 55.86338422302439 4 0.6427876096865387 0.76604444311897857 0 -0.76604444311897857 0.6427876096865387 0 forward_v I I I I #
coedge $-1 $84 $65 $85 $86 forward $59 $-1 #
coedge $-1 $85 $61 $83 $87 reversed $46 $-1 #
coedge $-1 $61 $85 $62 $78 forward $46 $-1 #
coedge $-1 $65 $84 $61 $77 reversed $59 $-1 #
edge $-1 $79 0 $88 33.660254037844396 $76 $89 forward 7 unknown #
edge $-1 $67 0 $79 3.1415926535897931 $62 $90 forward 7 unknown #
vertex $-1 $64 $91 #
ellipse-curve $-1 13.814015561370535 26.864195614927841 4 0 0 -1 -5.6626445798201974 0.99847702158484708 0 1 I I #
ellipse-curve $-1 9.9837933457756414 30.078133663360536 4 0.64278760968653992 0.76604444311897757 0 -0.57453333233923409 0.48209070726490566 0 1 I I #
point $-1 10.558326678114875 29.59604295609563 4 #
coedge $-1 $92 $92 $74 $87 forward $71 $-1 #
coedge $-1 $76 $73 $92 $93 reversed $59 $-1 #
coedge $-1 $75 $74 $73 $86 reversed $46 $-1 #
edge $-1 $67 0 $94 33.660254037844396 $73 $95 forward 7 unknown #
edge $-1 $94 0 $88 3.1415926535897931 $83 $96 forward 7 unknown #
vertex $-1 $93 $97 #
straight-curve $-1 9.4092600134364073 30.560224370625441 4 0.64278760968653881 0.76604444311897857 0 I I #
ellipse-curve $-1 9.9837933457756414 30.078133663360536 4 0.64278760968653992 0.76604444311897757 0 0.57453333233923409 -0.48209070726490566 0 1 I I #
point $-1 9.4092600134364073 30.560224370625441 4 #
coedge $-1 $83 $83 $84 $93 forward $71 $-1 #
edge $-1 $88 0 $94 3.1415926535897976 $92 $98 forward 7 unknown #
vertex $-1 $93 $99 #
straight-curve $-1 10.558326678114875 29.59604295609563 4 0.64278760968653881 0.76604444311897857 0 I I #
ellipse-curve $-1 31.620187580203304 55.86338422302439 4 0.64278760968653825 0.76604444311897901 0 0.57453333233923232 -0.48209070726490211 0 1 I I #
point $-1 31.045654247864068 56.345474930289292 4 #
ellipse-curve $-1 31.6201875802033 55.86338422302439 4.0000000000000018 0.64278760968653825 0.76604444311897901 -1.5777218104420341e-030 -0.57453333233923232 0.48209070726490211 -1.7763568394002505e-015 1 I I #
point $-1 32.194720912542536 55.381293515759488 4 #
End-of-ACIS-data 