600 0 1 0           
95 GICL ACIS Healer - Source: /gicl/data5/repository/PTC/V18/asmdes18/parts/shifter2.prt.sat - 6 0 18 ACIS 6.0.3 Solaris 24 Sat Apr 13 23:05:07 2002 
1 9.999999999999999547e-07 1.000000000000000036e-10 
body $-1 $1 $-1 $-1 #
lump $-1 $-1 $2 $0 #
shell $-1 $-1 $-1 $3 $-1 $1 #
face $-1 $4 $5 $2 $-1 $6 reversed single #
face $-1 $7 $8 $2 $-1 $9 forward single #
loop $-1 $-1 $10 $3 #
plane-surface $-1 40 0 40 0.1736481776669303312 0.9848077530122081313 0 -9.848077530122081313 1.736481776669303256 0 forward_v I I I I #
face $-1 $11 $12 $2 $-1 $13 forward single #
loop $-1 $-1 $14 $4 #
cone-surface $-1 40 0 40 0.1736481776669303312 0.9848077530122081313 0 -7.386058147591560541 1.302361332501977609 0 1 I I 0 1 7.5 forward I I I I #
coedge $-1 $15 $15 $16 $17 reversed $5 $-1 #
face $-1 $18 $19 $2 $-1 $20 forward single #
loop $-1 $-1 $21 $7 #
cone-surface $-1 40 0 40 0.1736481776669303312 0.9848077530122081313 0 -7.386058147591560541 1.302361332501977609 0 1 I I 0 1 7.5 forward I I I I #
coedge $-1 $22 $16 $23 $24 forward $8 $-1 #
coedge $-1 $10 $10 $25 $26 reversed $5 $-1 #
coedge $-1 $14 $27 $10 $17 forward $8 $-1 #
edge $-1 $28 0 $29 3.141592653589793116 $10 $30 forward 7 unknown #
face $-1 $31 $32 $2 $-1 $33 forward single #
loop $-1 $-1 $34 $11 #
torus-surface $-1 138.1401556137053603 268.6419561492784283 40 0 0 -1 50 7.5 0.9848077530122081313 -0.1736481776669300536 0 forward_v I I I I #
coedge $-1 $35 $25 $27 $36 forward $12 $-1 #
coedge $-1 $27 $14 $37 $38 reversed $8 $-1 #
coedge $-1 $25 $35 $14 $24 reversed $12 $-1 #
edge $-1 $29 0 $39 28.16025403784439618 $23 $40 forward 7 unknown #
coedge $-1 $21 $23 $15 $26 forward $12 $-1 #
edge $-1 $29 0 $28 3.141592653589793116 $15 $41 forward 7 unknown #
coedge $-1 $16 $22 $21 $36 reversed $8 $-1 #
vertex $-1 $26 $42 #
vertex $-1 $26 $43 #
ellipse-curve $-1 40 0 40 0.1736481776669303867 0.9848077530122081313 0 7.386058147591558765 -1.302361332501977609 0 1 I I #
face $-1 $44 $45 $2 $-1 $46 forward single #
loop $-1 $-1 $47 $18 #
torus-surface $-1 138.1401556137053603 268.6419561492784283 40 0 0 -1 50 7.5 0.9848077530122081313 -0.1736481776669300536 0 forward_v I I I I #
coedge $-1 $48 $49 $50 $51 forward $19 $-1 #
coedge $-1 $23 $21 $49 $52 reversed $12 $-1 #
edge $-1 $28 0 $53 28.16025403784438907 $21 $54 forward 7 unknown #
coedge $-1 $47 $50 $22 $38 forward $32 $-1 #
edge $-1 $53 -3.552713678800509508e-16 $39 3.141592653589794448 $22 $55 forward 7 unknown #
vertex $-1 $24 $56 #
straight-curve $-1 32.61394185240844479 1.302361332501977609 40 1.736481776669303256 9.848077530122079537 0 I I #
ellipse-curve $-1 40 0 40 0.1736481776669303867 0.9848077530122081313 0 -7.386058147591558765 1.302361332501977609 0 1 I I #
point $-1 47.38605814759155521 -1.302361332501977609 40 #
point $-1 32.61394185240844479 1.302361332501977609 40 #
face $-1 $57 $58 $2 $-1 $59 forward single #
loop $-1 $-1 $60 $31 #
cone-surface $-1 99.8379334577564066 300.7813366336053491 40 0.6427876096865388078 0.7660444431189785686 0 -5.745333323392339153 4.820907072649039726 0 1 I I 0 1 7.499999999999999112 forward I I I I #
coedge $-1 $61 $37 $62 $63 forward $32 $-1 #
coedge $-1 $62 $34 $64 $65 reversed $19 $-1 #
coedge $-1 $34 $62 $35 $52 forward $19 $-1 #
coedge $-1 $37 $61 $34 $51 reversed $32 $-1 #
edge $-1 $53 -9.755825520747666021e-16 $66 0.5235987755982974834 $34 $67 forward 7 unknown #
edge $-1 $39 0 $53 3.141592653589793116 $35 $68 forward 7 unknown #
vertex $-1 $52 $69 #
straight-curve $-1 47.38605814759155521 -1.302361332501977609 40 1.736481776669303256 9.848077530122079537 0 I I #
ellipse-curve $-1 88.89976796309494489 277.3243650326248826 39.99999999999999289 0.1736481776669289989 0.9848077530122083534 -8.107737081438184869e-31 7.386058147591558765 -1.302361332501966729 4.440892098500626162e-15 1 I I #
point $-1 81.51370981550337547 278.6267263651268991 40 #
face $-1 $-1 $70 $2 $-1 $71 forward single #
loop $-1 $-1 $72 $44 #
cone-surface $-1 99.8379334577564066 300.7813366336053491 40 0.6427876096865388078 0.7660444431189785686 0 -5.745333323392339153 4.820907072649039726 0 1 I I 0 1 7.499999999999999112 forward I I I I #
coedge $-1 $73 $74 $75 $76 forward $45 $-1 #
coedge $-1 $50 $47 $74 $77 reversed $32 $-1 #
coedge $-1 $49 $48 $47 $63 reversed $19 $-1 #
edge $-1 $39 -3.438543295927894122e-17 $78 0.5235987755982981495 $62 $79 forward 7 unknown #
coedge $-1 $72 $75 $48 $65 forward $58 $-1 #
edge $-1 $78 0 $66 3.141592653589793116 $48 $80 forward 7 unknown #
vertex $-1 $65 $81 #
ellipse-curve $-1 138.1401556137053603 268.6419561492784283 40 0 0 -1 -41.85432950301886024 7.380047550844537341 0 1 I I #
ellipse-curve $-1 88.89976796309494489 277.3243650326248826 40 0.1736481776669289989 0.9848077530122083534 0 -7.386058147591558765 1.302361332501966729 0 1 I I #
point $-1 96.2858261106865001 276.022003700122923 40 #
loop $-1 $-1 $82 $57 #
plane-surface $-1 316.2018758020329869 558.6338422302438858 40 0.6427876096865386968 0.7660444431189785686 0 -7.66044443118978613 6.42787609686538719 0 forward_v I I I I #
coedge $-1 $83 $64 $84 $85 forward $58 $-1 #
coedge $-1 $84 $60 $82 $86 reversed $45 $-1 #
coedge $-1 $60 $84 $61 $77 forward $45 $-1 #
coedge $-1 $64 $83 $60 $76 reversed $58 $-1 #
edge $-1 $78 0 $87 33.66025403784438197 $75 $88 forward 7 unknown #
edge $-1 $66 0 $78 3.141592653589793116 $61 $89 forward 7 unknown #
vertex $-1 $63 $90 #
ellipse-curve $-1 138.1401556137053603 268.6419561492784283 40 0 0 -1 -56.62644579820197066 9.984770215848470798 0 1 I I #
ellipse-curve $-1 99.8379334577564066 300.7813366336053491 40 0.642787609686539918 0.7660444431189775694 0 -5.74533332339234093 4.820907072649056602 0 1 I I #
point $-1 105.5832667811487511 295.9604295609562996 40 #
coedge $-1 $91 $91 $73 $86 forward $70 $-1 #
coedge $-1 $75 $72 $91 $92 reversed $58 $-1 #
coedge $-1 $74 $73 $72 $85 reversed $45 $-1 #
edge $-1 $66 0 $93 33.66025403784438907 $72 $94 forward 7 unknown #
edge $-1 $93 0 $87 3.141592653589793116 $82 $95 forward 7 unknown #
vertex $-1 $92 $96 #
straight-curve $-1 94.09260013436407633 305.6022437062543986 40 6.427876096865388078 7.66044443118978613 0 I I #
ellipse-curve $-1 99.8379334577564066 300.7813366336053491 40 0.642787609686539918 0.7660444431189775694 0 5.74533332339234093 -4.820907072649056602 0 1 I I #
point $-1 94.09260013436407633 305.6022437062543986 40 #
coedge $-1 $82 $82 $83 $92 forward $70 $-1 #
edge $-1 $87 4.73695157173390158e-16 $93 3.141592653589797113 $91 $97 forward 7 unknown #
vertex $-1 $92 $98 #
straight-curve $-1 105.5832667811487511 295.9604295609562996 40 6.427876096865388078 7.66044443118978613 0 I I #
ellipse-curve $-1 316.2018758020330438 558.6338422302438858 40 0.6427876096865382527 0.7660444431189790127 0 5.745333323392323166 -4.820907072649021075 0 1 I I #
point $-1 310.4565424786406993 563.4547493028928784 40 #
ellipse-curve $-1 316.2018758020329869 558.6338422302438858 40.00000000000001421 0.6427876096865382527 0.7660444431189790127 -1.577721810442034121e-30 -5.745333323392323166 4.820907072649021075 -1.776356839400250465e-14 1 I I #
point $-1 321.9472091254253883 553.8129351575948931 40 #
End-of-ACIS-data 