600 0 1 0           
103 GICL Pro/E ACIS Translator - Source: f:/data5/repository/PTC/V18/asmdes18/parts/shift_rod_r_l.prt - 6 0 13 ACIS 6.0.3 NT 24 Thu Apr 04 13:45:41 2002 
1 9.9999999999999995e-007 1e-010 
body $-1 $1 $-1 $2 #
lump $-1 $-1 $3 $0 #
transform $-1 1 0 0 0 1 0 0 0 1 0 0 0 10 no_rotate no_reflect no_shear #
shell $-1 $-1 $-1 $4 $-1 $1 #
face $-1 $5 $6 $3 $-1 $7 reversed single #
face $-1 $8 $9 $3 $-1 $10 reversed single #
loop $-1 $-1 $11 $4 #
plane-surface $-1 0 -3 0 0 1 0 1 0 0 forward_v I I I I #
face $-1 $12 $13 $3 $-1 $14 forward single #
loop $-1 $-1 $15 $5 #
cone-surface $-1 1.25 -3 1.25 0 1 0 0 0 0.25 1 I I 0 1 0.25 forward I I I I #
coedge $-1 $16 $17 $18 $19 forward $6 $-1 #
face $-1 $20 $21 $3 $-1 $22 forward single #
loop $-1 $-1 $23 $8 #
plane-surface $-1 0 3 0 0 1 0 1 0 0 forward_v I I I I #
coedge $-1 $24 $25 $26 $27 forward $9 $-1 #
coedge $-1 $28 $11 $29 $30 reversed $6 $-1 #
coedge $-1 $11 $31 $32 $33 reversed $6 $-1 #
coedge $-1 $25 $24 $11 $19 reversed $9 $-1 #
edge $-1 $34 0 $35 1.5707963267948966 $11 $36 forward 7 unknown #
face $-1 $37 $38 $3 $-1 $39 reversed single #
loop $-1 $-1 $40 $12 #
plane-surface $-1 -3 -3 3 0 0 1 1 0 0 forward_v I I I I #
coedge $-1 $41 $42 $43 $44 forward $13 $-1 #
coedge $-1 $18 $15 $45 $46 reversed $9 $-1 #
coedge $-1 $15 $18 $47 $48 forward $9 $-1 #
coedge $-1 $49 $50 $15 $27 reversed $13 $-1 #
edge $-1 $51 0 $52 1.5707963267948966 $26 $53 forward 7 unknown #
coedge $-1 $54 $16 $55 $56 forward $6 $-1 #
coedge $-1 $45 $57 $16 $30 forward $58 $-1 #
edge $-1 $59 0 $35 4 $16 $60 forward 7 unknown #
coedge $-1 $17 $61 $62 $63 forward $6 $-1 #
coedge $-1 $64 $47 $17 $33 forward $65 $-1 #
edge $-1 $34 0 $66 2.5 $17 $67 forward 7 unknown #
vertex $-1 $33 $68 #
vertex $-1 $30 $69 #
ellipse-curve $-1 1.25 -3 1.25 0 1 0 0 0 0.25 1 I I #
face $-1 $70 $71 $3 $-1 $72 forward single #
loop $-1 $-1 $73 $20 #
plane-surface $-1 -1 14 -4 1 0 0 0 0.17364817766693041 0.98480775301220813 forward_v I I I I #
coedge $-1 $74 $75 $73 $76 forward $21 $-1 #
coedge $-1 $77 $23 $78 $79 reversed $13 $-1 #
coedge $-1 $23 $49 $80 $81 reversed $13 $-1 #
coedge $-1 $82 $83 $23 $44 reversed $21 $-1 #
edge $-1 $84 0 $85 2.25 $23 $86 forward 7 unknown #
coedge $-1 $87 $29 $24 $46 forward $58 $-1 #
edge $-1 $35 0 $52 6 $45 $88 forward 7 unknown #
coedge $-1 $32 $89 $25 $48 reversed $65 $-1 #
edge $-1 $34 0 $51 6 $47 $90 forward 7 unknown #
coedge $-1 $42 $26 $89 $91 forward $13 $-1 #
coedge $-1 $26 $92 $87 $93 forward $13 $-1 #
vertex $-1 $91 $94 #
vertex $-1 $27 $95 #
ellipse-curve $-1 1.25 3 1.25 0 1 0 0 0 0.25 1 I I #
coedge $-1 $96 $28 $97 $98 reversed $6 $-1 #
coedge $-1 $99 $100 $28 $56 reversed $101 $-1 #
edge $-1 $59 0 $102 1.5707963267948957 $28 $103 forward 7 unknown #
coedge $-1 $29 $87 $99 $104 reversed $58 $-1 #
loop $-1 $-1 $45 $105 #
vertex $-1 $56 $106 #
straight-curve $-1 1.5 -3 -2.75 0 0 1 I I #
coedge $-1 $31 $107 $108 $109 reversed $6 $-1 #
coedge $-1 $110 $111 $31 $63 reversed $112 $-1 #
edge $-1 $113 0 $66 1.5707963267948966 $31 $114 forward 7 unknown #
coedge $-1 $115 $32 $111 $116 forward $65 $-1 #
loop $-1 $-1 $89 $117 #
vertex $-1 $33 $118 #
straight-curve $-1 1.25 -3 1.5 -1 0 0 I I #
point $-1 1.25 -3 1.5 #
point $-1 1.5 -3 1.25 #
face $-1 $119 $120 $3 $-1 $121 reversed single #
loop $-1 $-1 $122 $37 #
cone-surface $-1 -1 14 -4 1 0 0 0 1.3023613325019781 7.3860581475915605 1 I I 0 1 7.5000000000000009 forward I I I I #
coedge $-1 $123 $124 $40 $76 reversed $38 $-1 #
coedge $-1 $125 $40 $126 $127 reversed $21 $-1 #
coedge $-1 $40 $82 $128 $129 reversed $21 $-1 #
edge $-1 $130 1.7763568394002505e-015 $131 8.3074175964327299 $40 $132 forward 7 unknown #
coedge $-1 $133 $41 $134 $135 forward $13 $-1 #
coedge $-1 $136 $137 $41 $79 forward $138 $-1 #
edge $-1 $139 0 $85 1.5707963267949001 $41 $140 forward 7 unknown #
coedge $-1 $141 $142 $42 $81 forward $143 $-1 #
edge $-1 $84 0 $144 1.5 $42 $145 forward 7 unknown #
coedge $-1 $75 $43 $142 $146 reversed $21 $-1 #
coedge $-1 $43 $147 $136 $148 forward $21 $-1 #
vertex $-1 $81 $149 #
vertex $-1 $79 $150 #
straight-curve $-1 0.5 3 3 1 0 0 I I #
coedge $-1 $57 $45 $50 $93 reversed $58 $-1 #
straight-curve $-1 1.5 -3 1.25 0 1 0 I I #
coedge $-1 $47 $151 $49 $91 reversed $65 $-1 #
straight-curve $-1 1.25 -3 1.5 0 1 0 I I #
edge $-1 $51 0 $144 0.75 $49 $152 forward 7 unknown #
coedge $-1 $50 $153 $154 $155 reversed $13 $-1 #
edge $-1 $156 0 $52 4 $50 $157 forward 7 unknown #
point $-1 1.25 3 1.5 #
point $-1 1.5 3 1.25 #
coedge $-1 $158 $54 $159 $160 forward $6 $-1 #
coedge $-1 $161 $162 $54 $98 forward $163 $-1 #
edge $-1 $164 0 $102 1 $54 $165 forward 7 unknown #
coedge $-1 $154 $55 $57 $104 forward $101 $-1 #
coedge $-1 $55 $154 $161 $166 reversed $101 $-1 #
loop $-1 $-1 $154 $167 #
vertex $-1 $98 $168 #
ellipse-curve $-1 1.7500000000000002 -3 -2.75 0 -1 0 -0.25000000000000022 0 0 1 I I #
edge $-1 $59 0 $156 6 $57 $169 forward 7 unknown #
face $-1 $170 $58 $3 $-1 $171 forward single #
point $-1 1.5 -3 -2.75 #
coedge $-1 $61 $172 $173 $174 forward $6 $-1 #
coedge $-1 $175 $176 $61 $109 forward $177 $-1 #
edge $-1 $113 0 $178 4 $61 $179 forward 7 unknown #
coedge $-1 $180 $62 $176 $181 forward $112 $-1 #
coedge $-1 $62 $180 $64 $116 reversed $112 $-1 #
loop $-1 $-1 $180 $182 #
vertex $-1 $63 $183 #
ellipse-curve $-1 -1.25 -3 1.25 0 1 0 -0.25 0 0 1 I I #
coedge $-1 $151 $64 $184 $185 reversed $65 $-1 #
edge $-1 $66 0 $186 6 $64 $187 forward 7 unknown #
face $-1 $182 $65 $3 $-1 $188 forward single #
point $-1 -1.25 -3 1.5 #
face $-1 $189 $190 $3 $-1 $191 reversed single #
loop $-1 $-1 $192 $70 #
plane-surface $-1 -3 -3 3 0 0 1 1 0 0 forward_v I I I I #
coedge $-1 $128 $193 $123 $194 forward $71 $-1 #
coedge $-1 $195 $73 $122 $194 reversed $38 $-1 #
coedge $-1 $73 $196 $197 $198 reversed $38 $-1 #
coedge $-1 $147 $74 $199 $200 reversed $21 $-1 #
coedge $-1 $197 $201 $74 $127 forward $202 $-1 #
edge $-1 $203 0 $131 1.75 $126 $204 forward 7 unknown #
coedge $-1 $205 $122 $75 $129 forward $71 $-1 #
edge $-1 $130 3.3658065289429835e-029 $206 1.5 $75 $207 forward 7 unknown #
vertex $-1 $129 $208 #
vertex $-1 $198 $209 #
straight-curve $-1 -1 11.30741759643273 3 0 -1 0 I I #
coedge $-1 $153 $77 $210 $211 reversed $13 $-1 #
coedge $-1 $212 $213 $77 $135 reversed $214 $-1 #
edge $-1 $139 0 $215 5.5 $77 $216 forward 7 unknown #
coedge $-1 $217 $78 $83 $148 reversed $138 $-1 #
coedge $-1 $78 $217 $212 $218 forward $138 $-1 #
loop $-1 $-1 $78 $219 #
vertex $-1 $135 $220 #
ellipse-curve $-1 2.7500000000000004 3 2.7500000000000004 0 -1 0 0.24999999999999956 0 -4.4408920985006262e-016 1 I I #
coedge $-1 $221 $80 $222 $223 forward $143 $-1 #
coedge $-1 $80 $224 $82 $146 forward $143 $-1 #
loop $-1 $-1 $142 $225 #
vertex $-1 $81 $226 #
straight-curve $-1 0.5 3 3 0 2.3684757858669985e-015 -1 I I #
edge $-1 $206 1.0658141036401503e-014 $84 8.3074175964327388 $82 $227 forward 7 unknown #
coedge $-1 $83 $125 $228 $229 forward $21 $-1 #
edge $-1 $230 0 $85 6 $83 $231 forward 7 unknown #
point $-1 0.5 3 3 #
point $-1 2.75 3 3 #
coedge $-1 $89 $115 $232 $233 forward $65 $-1 #
straight-curve $-1 1.25 3 1.5 -1 0 0 I I #
coedge $-1 $92 $133 $234 $235 forward $13 $-1 #
coedge $-1 $100 $99 $92 $155 forward $101 $-1 #
edge $-1 $156 0 $236 1.5707963267948957 $92 $237 forward 7 unknown #
vertex $-1 $93 $238 #
straight-curve $-1 1.5 3 -2.75 0 0 1 I I #
coedge $-1 $239 $96 $240 $241 reversed $6 $-1 #
coedge $-1 $242 $243 $96 $160 reversed $244 $-1 #
edge $-1 $164 0 $245 1.5707963267949001 $96 $246 forward 7 unknown #
coedge $-1 $234 $97 $100 $166 forward $163 $-1 #
coedge $-1 $97 $234 $242 $247 reversed $163 $-1 #
loop $-1 $-1 $161 $248 #
vertex $-1 $160 $249 #
straight-curve $-1 2.75 -3 -3 -1 0 0 I I #
edge $-1 $102 0 $236 6 $161 $250 forward 7 unknown #
face $-1 $105 $101 $3 $-1 $251 forward single #
point $-1 1.75 -3 -3 #
straight-curve $-1 1.5 -3 -2.75 0 1 0 I I #
face $-1 $252 $253 $3 $-1 $254 forward single #
plane-surface $-1 1.5 -3 -3 -1 0 0 0 0 1 forward_v I I I I #
coedge $-1 $107 $255 $256 $257 reversed $6 $-1 #
coedge $-1 $258 $259 $107 $174 reversed $260 $-1 #
edge $-1 $261 0 $178 1.5707963267948992 $107 $262 forward 7 unknown #
coedge $-1 $263 $108 $259 $264 forward $177 $-1 #
coedge $-1 $108 $263 $110 $181 reversed $177 $-1 #
loop $-1 $-1 $175 $265 #
vertex $-1 $109 $266 #
straight-curve $-1 -1.5 -3 1.25 0 0 -1 I I #
coedge $-1 $111 $110 $267 $268 forward $112 $-1 #
edge $-1 $113 0 $269 6 $176 $270 forward 7 unknown #
face $-1 $271 $112 $3 $-1 $272 reversed single #
point $-1 -1.5 -3 1.25 #
coedge $-1 $267 $197 $115 $185 forward $202 $-1 #
edge $-1 $273 0 $186 0.25 $184 $274 forward 7 unknown #
vertex $-1 $268 $275 #
straight-curve $-1 -1.25 -3 1.5 0 1 0 I I #
plane-surface $-1 1.5 -3 1.5 0 0 -1 -1 0 0 forward_v I I I I #
face $-1 $276 $277 $3 $-1 $278 forward single #
loop $-1 $-1 $279 $119 #
cone-surface $-1 0.5 14 -4 1 0 0 0 -1.2155372436685128 -6.8936542710854569 1 I I 0 1 7.0000000000000009 forward I I I I #
coedge $-1 $280 $281 $282 $283 forward $120 $-1 #
coedge $-1 $122 $284 $285 $286 forward $71 $-1 #
edge $-1 $287 7.5791225147744025e-016 $130 0.89080679615613945 $123 $288 forward 7 unknown #
coedge $-1 $289 $123 $290 $291 reversed $38 $-1 #
coedge $-1 $124 $292 $293 $294 reversed $38 $-1 #
coedge $-1 $184 $126 $124 $198 forward $202 $-1 #
edge $-1 $131 0 $273 1.5 $197 $295 forward 7 unknown #
coedge $-1 $296 $297 $125 $200 forward $298 $-1 #
edge $-1 $299 0 $203 6 $125 $300 forward 7 unknown #
coedge $-1 $126 $301 $296 $302 reversed $202 $-1 #
loop $-1 $-1 $184 $271 #
vertex $-1 $127 $303 #
straight-curve $-1 -2.75 3 3 1 0 0 I I #
coedge $-1 $284 $128 $304 $305 forward $71 $-1 #
vertex $-1 $129 $306 #
straight-curve $-1 -1 11.307417596432728 2.9999999999999929 1 0 4.736951571734001e-015 I I #
point $-1 -1 11.307417596432728 3 #
point $-1 -1 3 3 #
coedge $-1 $243 $242 $133 $211 forward $244 $-1 #
edge $-1 $307 0 $215 1.5707963267949001 $133 $308 forward 7 unknown #
coedge $-1 $240 $134 $137 $218 reversed $214 $-1 #
coedge $-1 $134 $240 $243 $309 forward $214 $-1 #
loop $-1 $310 $213 $311 #
vertex $-1 $211 $312 #
straight-curve $-1 3 3 2.75 0 0 -1 I I #
coedge $-1 $137 $136 $239 $313 reversed $138 $-1 #
edge $-1 $314 0 $139 6 $212 $315 forward 7 unknown #
face $-1 $311 $138 $3 $-1 $316 forward single #
point $-1 3 3 2.75 #
coedge $-1 $317 $141 $318 $319 forward $143 $-1 #
coedge $-1 $232 $320 $141 $223 reversed $321 $-1 #
edge $-1 $144 4.4408920985006262e-016 $322 2.0000000000000027 $141 $323 forward 7 unknown #
coedge $-1 $142 $324 $281 $325 reversed $143 $-1 #
face $-1 $326 $143 $3 $-1 $327 forward single #
point $-1 0.5 3 1.5 #
straight-curve $-1 0.5 11.307417596432739 3 0 -1 0 I I #
coedge $-1 $328 $239 $147 $229 reversed $6 $-1 #
edge $-1 $299 0 $230 5.5 $228 $329 forward 7 unknown #
vertex $-1 $229 $330 #
straight-curve $-1 2.75 -3 3 0 1 0 I I #
coedge $-1 $293 $222 $151 $233 reversed $321 $-1 #
edge $-1 $273 0 $144 1.5 $151 $331 forward 7 unknown #
coedge $-1 $162 $161 $153 $235 reversed $163 $-1 #
edge $-1 $307 0 $236 1 $153 $332 forward 7 unknown #
vertex $-1 $155 $333 #
ellipse-curve $-1 1.7500000000000002 3 -2.75 0 -1 0 -0.25000000000000022 0 0 1 I I #
point $-1 1.5 3 -2.75 #
coedge $-1 $228 $158 $217 $313 forward $6 $-1 #
coedge $-1 $213 $212 $158 $241 forward $214 $-1 #
edge $-1 $314 0 $245 5.5 $158 $334 forward 7 unknown #
coedge $-1 $210 $159 $162 $247 forward $244 $-1 #
coedge $-1 $159 $210 $213 $309 reversed $244 $-1 #
loop $-1 $-1 $210 $335 #
vertex $-1 $241 $336 #
ellipse-curve $-1 2.7500000000000004 -3 -2.7500000000000004 0 -1 0 -4.4408920985006262e-016 0 -0.24999999999999956 1 I I #
edge $-1 $164 0 $307 6 $162 $337 forward 7 unknown #
face $-1 $167 $163 $3 $-1 $338 forward single #
point $-1 2.75 -3 -3 #
straight-curve $-1 1.75 -3 -3 0 1 0 I I #
cone-surface $-1 1.75 -3 -2.75 0 -1 0 -0.25 0 0 1 I I 0 1 0.25 forward I I I I #
face $-1 $339 $340 $3 $-1 $341 forward single #
loop $-1 $-1 $342 $170 #
cone-surface $-1 3 0 0 1 0 0 0 0 -2 1 I I 0 1 2 forward I I I I #
coedge $-1 $172 $343 $344 $345 forward $6 $-1 #
coedge $-1 $346 $347 $172 $257 forward $348 $-1 #
edge $-1 $261 0 $349 1 $172 $350 forward 7 unknown #
coedge $-1 $351 $173 $347 $352 forward $260 $-1 #
coedge $-1 $173 $351 $175 $264 reversed $260 $-1 #
loop $-1 $-1 $351 $353 #
vertex $-1 $174 $354 #
ellipse-curve $-1 -1.7499999999999998 -3 -2.7500000000000004 0 -1 0 -2.2204460492503131e-016 0 -0.24999999999999956 1 I I #
coedge $-1 $176 $175 $355 $356 reversed $177 $-1 #
edge $-1 $178 0 $357 6 $175 $358 forward 7 unknown #
face $-1 $353 $177 $3 $-1 $359 forward single #
point $-1 -1.5 -3 -2.75 #
coedge $-1 $355 $184 $180 $268 reversed $202 $-1 #
edge $-1 $269 0 $186 1.5707963267948966 $267 $360 forward 7 unknown #
vertex $-1 $356 $361 #
straight-curve $-1 -1.5 -3 1.25 0 1 0 I I #
face $-1 $265 $202 $3 $-1 $362 forward single #
cone-surface $-1 -1.25 -3 1.25 0 1 0 -0.25 0 0 1 I I 0 1 0.25 forward I I I I #
vertex $-1 $198 $363 #
straight-curve $-1 -1 3 1.5 -1 0 0 I I #
point $-1 -1.25 3 1.5 #
face $-1 $225 $364 $3 $-1 $365 reversed single #
loop $-1 $-1 $366 $189 #
plane-surface $-1 -1 15.75 -0.96891108675446702 0 0.8660254037844386 -0.50000000000000011 0 0.5 0.86602540378443837 forward_v I I I I #
coedge $-1 $367 $368 $369 $370 forward $190 $-1 #
coedge $-1 $304 $192 $371 $372 reversed $120 $-1 #
coedge $-1 $192 $304 $224 $325 forward $120 $-1 #
coedge $-1 $368 $367 $192 $283 reversed $190 $-1 #
edge $-1 $373 0 $374 1 $192 $375 forward 7 unknown #
coedge $-1 $193 $205 $376 $377 reversed $71 $-1 #
coedge $-1 $378 $290 $193 $286 reversed $277 $-1 #
edge $-1 $379 4.4408920985006262e-016 $287 2.5000000000000004 $285 $380 forward 7 unknown #
vertex $-1 $291 $381 #
ellipse-curve $-1 -1 14 -4 1 0 0 0 3.7500000000000071 6.4951905283832874 1 I I #
coedge $-1 $382 $195 $383 $384 reversed $38 $-1 #
coedge $-1 $285 $366 $195 $291 forward $277 $-1 #
edge $-1 $385 3.1128961378505584e-016 $287 3.9999999999999982 $195 $386 forward 7 unknown #
coedge $-1 $196 $387 $388 $389 reversed $38 $-1 #
coedge $-1 $320 $232 $196 $294 forward $321 $-1 #
edge $-1 $273 4.4408920985006262e-016 $390 2.0000000000000027 $196 $391 forward 7 unknown #
straight-curve $-1 -1 3 3 0 2.3684757858669985e-015 -1 I I #
coedge $-1 $392 $199 $201 $302 forward $298 $-1 #
coedge $-1 $199 $392 $328 $393 reversed $298 $-1 #
loop $-1 $-1 $296 $394 #
vertex $-1 $393 $395 #
straight-curve $-1 -2.75 -3 3 0 1 0 I I #
coedge $-1 $201 $396 $397 $398 forward $202 $-1 #
edge $-1 $203 0 $399 1.5707963267949001 $201 $400 forward 7 unknown #
point $-1 -2.75 3 3 #
coedge $-1 $281 $280 $205 $305 reversed $120 $-1 #
edge $-1 $206 0 $401 1 $205 $402 forward 7 unknown #
point $-1 0.5 11.307417596432728 3 #
vertex $-1 $235 $403 #
ellipse-curve $-1 2.7500000000000004 3 -2.7500000000000004 0 -1 0 -4.4408920985006262e-016 0 -0.24999999999999956 1 I I #
edge $-1 $245 0 $215 6 $213 $404 forward 7 unknown #
loop $-1 $-1 $405 $311 #
face $-1 $335 $214 $3 $-1 $406 forward single #
point $-1 3 3 -2.75 #
edge $-1 $314 0 $230 1.5707963267949001 $239 $407 forward 7 unknown #
vertex $-1 $313 $408 #
straight-curve $-1 3 -3 2.75 0 1 0 I I #
cone-surface $-1 2.75 -3 2.75 0 -1 0 0.25 0 0 1 I I 0 1 0.25 forward I I I I #
coedge $-1 $409 $221 $410 $411 reversed $143 $-1 #
coedge $-1 $412 $413 $221 $319 reversed $414 $-1 #
edge $-1 $322 0 $415 4.3667504176380838 $221 $416 forward 7 unknown #
coedge $-1 $222 $293 $412 $417 forward $321 $-1 #
loop $-1 $-1 $293 $326 #
vertex $-1 $319 $418 #
straight-curve $-1 0.5 3 1.5000000000000004 0 0 -1 I I #
coedge $-1 $224 $419 $368 $420 forward $143 $-1 #
edge $-1 $206 -1.0658141036401503e-014 $373 2.6925824035672719 $224 $421 forward 7 unknown #
face $-1 $422 $321 $3 $-1 $423 forward single #
plane-surface $-1 0.5 14 -4 1 0 0 0 0.17364817766693041 0.98480775301220813 forward_v I I I I #
coedge $-1 $343 $228 $297 $393 forward $6 $-1 #
straight-curve $-1 -2.75 -3 3 1 0 0 I I #
point $-1 2.75 -3 3 #
straight-curve $-1 -1 3 1.5 1 0 0 I I #
straight-curve $-1 2.75 3 -3 -1 0 0 I I #
point $-1 1.75 3 -3 #
straight-curve $-1 3 -3 2.75 0 0 -1 I I #
face $-1 $248 $244 $3 $-1 $424 forward single #
point $-1 3 -3 -2.75 #
straight-curve $-1 2.75 -3 -3 0 1 0 I I #
plane-surface $-1 3 -3 -3 0 0 -1 -1 0 0 forward_v I I I I #
face $-1 $425 $426 $3 $-1 $427 reversed single #
loop $-1 $-1 $428 $252 #
cone-surface $-1 3 0 0 1 0 0 0 0 -2 1 I I 0 1 2 forward I I I I #
coedge $-1 $429 $430 $431 $432 reversed $253 $-1 #
coedge $-1 $255 $328 $433 $434 reversed $6 $-1 #
coedge $-1 $435 $436 $255 $345 reversed $437 $-1 #
edge $-1 $438 0 $349 1.5707963267949001 $255 $439 forward 7 unknown #
coedge $-1 $440 $256 $436 $441 forward $348 $-1 #
coedge $-1 $256 $440 $258 $352 reversed $348 $-1 #
loop $-1 $-1 $346 $442 #
vertex $-1 $257 $443 #
straight-curve $-1 -1.75 -3 -3 -1 0 0 I I #
coedge $-1 $259 $258 $444 $445 forward $260 $-1 #
edge $-1 $261 0 $446 6 $347 $447 forward 7 unknown #
face $-1 $442 $260 $3 $-1 $448 forward single #
point $-1 -1.75 -3 -3 #
coedge $-1 $444 $267 $263 $356 forward $202 $-1 #
edge $-1 $269 0 $357 4 $355 $449 forward 7 unknown #
vertex $-1 $445 $450 #
straight-curve $-1 -1.5 -3 -2.75 0 1 0 I I #
plane-surface $-1 -1.5 -3 1.5 1 0 0 0 0 -1 forward_v I I I I #
ellipse-curve $-1 -1.25 3 1.25 0 1 0 -0.25 0 0 1 I I #
point $-1 -1.5 3 1.25 #
plane-surface $-1 0 3 0 0 1 0 1 0 0 forward_v I I I I #
point $-1 -1 3 1.5 #
loop $-1 $-1 $451 $276 #
cone-surface $-1 -1 14 -4 1 0 0 0 0.6077686218342564 3.4468271355427285 1 I I 0 1 3.5000000000000004 forward I I I I #
coedge $-1 $290 $452 $451 $453 reversed $277 $-1 #
coedge $-1 $282 $279 $454 $455 reversed $190 $-1 #
coedge $-1 $279 $282 $324 $420 reversed $190 $-1 #
coedge $-1 $452 $378 $279 $370 reversed $277 $-1 #
edge $-1 $456 -7.8886090522101153e-030 $457 1 $369 $458 forward 7 unknown #
coedge $-1 $454 $376 $280 $372 forward $459 $-1 #
edge $-1 $401 0 $374 2.6925824035672541 $371 $460 forward 7 unknown #
vertex $-1 $325 $461 #
vertex $-1 $455 $462 #
straight-curve $-1 0.5 14 3 1 0 0 I I #
coedge $-1 $371 $463 $284 $377 forward $459 $-1 #
edge $-1 $379 3.1579677144893377e-016 $401 0.89080679615613723 $284 $464 forward 7 unknown #
coedge $-1 $369 $285 $463 $465 reversed $277 $-1 #
vertex $-1 $465 $466 #
straight-curve $-1 1.5000000000000004 17.75 2.4951905283832865 -1 2.8421709430404001e-015 3.5527136788005001e-016 I I #
point $-1 -1 17.75 2.4951905283832865 #
coedge $-1 $387 $289 $467 $468 reversed $38 $-1 #
coedge $-1 $451 $469 $289 $384 forward $364 $-1 #
edge $-1 $470 0 $385 4.1887902047863914 $289 $471 forward 7 unknown #
vertex $-1 $384 $472 #
straight-curve $-1 -1 15.75 -0.96891108675446613 0 0.49999999999999989 0.86602540378443871 I I #
coedge $-1 $292 $382 $473 $474 reversed $38 $-1 #
coedge $-1 $413 $412 $292 $389 forward $414 $-1 #
edge $-1 $390 0 $475 4.3667504192891986 $292 $476 forward 7 unknown #
vertex $-1 $294 $477 #
straight-curve $-1 -1 3 1.5000000000000004 0 0 -1 I I #
coedge $-1 $297 $296 $478 $479 reversed $298 $-1 #
edge $-1 $299 0 $480 1.5707963267949001 $328 $481 forward 7 unknown #
face $-1 $482 $298 $3 $-1 $483 forward single #
point $-1 -2.75 -3 3 #
coedge $-1 $301 $484 $485 $486 reversed $202 $-1 #
coedge $-1 $487 $478 $301 $398 reversed $488 $-1 #
edge $-1 $489 0 $399 5.5 $301 $490 forward 7 unknown #
vertex $-1 $302 $491 #
ellipse-curve $-1 -2.7500000000000004 3 2.7500000000000004 0 -1 0 4.4408920985006262e-016 0 0.24999999999999956 1 I I #
vertex $-1 $377 $492 #
straight-curve $-1 0.5 11.307417596432746 3 1 0 0 I I #
point $-1 2.75 3 -3 #
straight-curve $-1 3 -3 -2.75 0 1 0 I I #
coedge $-1 $493 $493 $429 $494 reversed $310 $-1 #
plane-surface $-1 3 -3 3 1 0 0 0 0 -1 forward_v I I I I #
ellipse-curve $-1 2.7500000000000004 -3 2.7500000000000004 0 -1 0 0.24999999999999956 0 -4.4408920985006262e-016 1 I I #
point $-1 3 -3 2.75 #
coedge $-1 $495 $317 $496 $497 reversed $143 $-1 #
coedge $-1 $498 $499 $317 $411 forward $500 $-1 #
edge $-1 $501 0 $415 0.5616794276258571 $317 $502 forward 7 unknown #
coedge $-1 $388 $318 $320 $417 reversed $414 $-1 #
coedge $-1 $318 $388 $498 $503 forward $414 $-1 #
loop $-1 $-1 $412 $422 #
vertex $-1 $411 $504 #
straight-curve $-1 0.5 2.9999999999999982 -0.50000000000000178 0 1 0 I I #
edge $-1 $390 0 $322 1.5 $320 $505 forward 7 unknown #
point $-1 0.5 2.9999999999999982 -0.500000000000002 #
coedge $-1 $324 $506 $452 $507 forward $143 $-1 #
edge $-1 $456 0 $373 0.52359877559829826 $324 $508 forward 7 unknown #
straight-curve $-1 0.5 11.307417596432739 3 0 1 0 I I #
face $-1 $509 $414 $3 $-1 $510 forward single #
plane-surface $-1 -1 3 3 0 -1 0 0 0 -1 forward_v I I I I #
cone-surface $-1 2.75 -3 -2.75 0 -1 0 0 0 -0.25 1 I I 0 1 0.25 forward I I I I #
face $-1 $511 $512 $3 $-1 $513 forward single #
loop $-1 $-1 $514 $339 #
torus-surface $-1 6 0 0 -1 0 0 2.5 1 0 1 0 forward_v I I I I #
coedge $-1 $515 $516 $517 $518 reversed $340 $-1 #
coedge $-1 $519 $342 $405 $494 forward $253 $-1 #
coedge $-1 $342 $520 $521 $522 reversed $253 $-1 #
coedge $-1 $516 $523 $342 $432 forward $340 $-1 #
edge $-1 $524 0 $525 2.1339745962155616 $431 $526 forward 7 unknown #
coedge $-1 $478 $487 $343 $434 forward $488 $-1 #
edge $-1 $438 0 $480 5.5 $343 $527 forward 7 unknown #
coedge $-1 $485 $344 $487 $528 forward $437 $-1 #
coedge $-1 $344 $485 $346 $441 reversed $437 $-1 #
loop $-1 $-1 $485 $529 #
vertex $-1 $345 $530 #
ellipse-curve $-1 -2.7500000000000004 -3 -2.7500000000000004 0 -1 0 -0.24999999999999956 0 4.4408920985006262e-016 1 I I #
coedge $-1 $347 $346 $484 $531 reversed $348 $-1 #
edge $-1 $349 0 $532 6 $346 $533 forward 7 unknown #
face $-1 $529 $348 $3 $-1 $534 forward single #
point $-1 -2.75 -3 -3 #
coedge $-1 $484 $355 $351 $445 reversed $202 $-1 #
edge $-1 $446 0 $357 1.5707963267948992 $444 $535 forward 7 unknown #
vertex $-1 $531 $536 #
straight-curve $-1 -1.75 -3 -3 0 1 0 I I #
cone-surface $-1 -1.75 -3 -2.75 0 -1 0 0 0 -0.25 1 I I 0 1 0.25 forward I I I I #
straight-curve $-1 -1.5 3 1.25 0 0 -1 I I #
point $-1 -1.5 3 -2.75 #
coedge $-1 $537 $383 $366 $453 forward $364 $-1 #
coedge $-1 $366 $369 $419 $507 reversed $277 $-1 #
edge $-1 $385 5.17689969051289e-031 $538 1.5 $366 $539 forward 7 unknown #
coedge $-1 $463 $371 $367 $455 forward $459 $-1 #
edge $-1 $374 0 $457 0.52359877559830525 $454 $540 forward 7 unknown #
vertex $-1 $420 $541 #
vertex $-1 $370 $542 #
straight-curve $-1 0.5 17.500000000000004 2.0621778264910704 1 -3.5527136788004994e-015 -3.5527136788004994e-015 I I #
loop $-1 $-1 $371 $543 #
straight-curve $-1 1.5 11.307417596432744 3 0 1 0 I I #
point $-1 0.5 14.000000000000011 3 #
point $-1 1.5 13.999999999999998 2.9999999999999996 #
coedge $-1 $376 $454 $378 $465 forward $459 $-1 #
ellipse-curve $-1 1.5 14 -3.9999999999999969 1 0 0 0 3.7500000000000036 6.4951905283832847 1 I I #
edge $-1 $457 6.2257922757010932e-016 $379 0.49999999999999795 $378 $544 forward 7 unknown #
point $-1 1.5 17.75 2.4951905283832865 #
coedge $-1 $545 $546 $382 $468 forward $547 $-1 #
edge $-1 $548 0 $470 4.0000000000000018 $382 $549 forward 7 unknown #
coedge $-1 $383 $537 $545 $550 reversed $364 $-1 #
vertex $-1 $468 $551 #
ellipse-curve $-1 -1 14 -4 -1 0 0 0 1.7499999999999982 -3.0310889132455356 1 I I #
point $-1 -1 15.750000000000002 -0.9689110867544668 #
coedge $-1 $552 $498 $387 $474 forward $500 $-1 #
edge $-1 $475 6.3159354289786671e-017 $548 2.5799132246887861 $387 $553 forward 7 unknown #
vertex $-1 $389 $554 #
straight-curve $-1 -1 2.9999999999999982 -0.50000000000000178 0 1 0 I I #
point $-1 -1 2.9999999999999982 -0.500000000000002 #
coedge $-1 $397 $433 $392 $479 forward $488 $-1 #
edge $-1 $480 0 $399 6 $478 $555 forward 7 unknown #
vertex $-1 $434 $556 #
ellipse-curve $-1 -2.7500000000000004 -3 2.7500000000000004 0 -1 0 4.4408920985006262e-016 0 0.24999999999999956 1 I I #
face $-1 $557 $558 $3 $-1 $559 forward single #
cone-surface $-1 -2.75 -3 2.75 0 -1 0 0 0 0.25 1 I I 0 1 0.25 forward I I I I #
coedge $-1 $396 $444 $440 $531 forward $202 $-1 #
coedge $-1 $436 $435 $396 $486 forward $437 $-1 #
edge $-1 $489 0 $532 1.5707963267949001 $396 $560 forward 7 unknown #
coedge $-1 $433 $397 $435 $528 reversed $488 $-1 #
loop $-1 $561 $478 $562 #
vertex $-1 $398 $563 #
straight-curve $-1 -3 3 -2.75 0 0 1 I I #
point $-1 -3 3 2.75 #
point $-1 1.5 11.307417596432744 2.9999999999999996 #
coedge $-1 $405 $405 $523 $564 reversed $310 $-1 #
edge $-1 $524 0 $565 3.1415926535897931 $405 $566 forward 7 unknown #
coedge $-1 $567 $409 $568 $569 forward $143 $-1 #
coedge $-1 $570 $571 $409 $497 forward $572 $-1 #
edge $-1 $573 -1.6573634942535482e-015 $501 0.49999999999999822 $409 $574 forward 7 unknown #
coedge $-1 $473 $410 $413 $503 reversed $500 $-1 #
coedge $-1 $410 $575 $570 $576 reversed $500 $-1 #
loop $-1 $-1 $473 $509 #
vertex $-1 $497 $577 #
ellipse-curve $-1 0.5 14.00000001160403 -4.0000000148269663 1 0 0 0 -3.7500000116040262 6.4951905432102581 1 I I #
edge $-1 $475 0 $415 1.5 $413 $578 forward 7 unknown #
point $-1 0.5 7.366750417638082 -0.50000000000000377 #
straight-curve $-1 -1 3 -0.50000000000000178 1 0 0 I I #
coedge $-1 $419 $567 $537 $579 forward $143 $-1 #
edge $-1 $538 3.1128961378505702e-016 $456 3.5000000000000036 $419 $580 forward 7 unknown #
ellipse-curve $-1 0.5 14 -4 1 0 0 0 3.5000000000000071 6.0621778264910695 1 I I #
face $-1 $581 $500 $3 $-1 $582 forward single #
plane-surface $-1 -1 3 -0.50000000000000178 0 0 -1 0 1 0 forward_v I I I I #
face $-1 $583 $584 $3 $-1 $585 forward single #
loop $-1 $-1 $586 $425 #
cone-surface $-1 3 0 0 1 0 0 0 0 -2 1 I I 0 1 2 forward I I I I #
coedge $-1 $587 $588 $589 $590 reversed $426 $-1 #
coedge $-1 $523 $428 $519 $591 reversed $340 $-1 #
coedge $-1 $428 $431 $592 $593 reversed $340 $-1 #
coedge $-1 $594 $595 $428 $518 forward $426 $-1 #
edge $-1 $596 -6.1230317691118863e-017 $597 1.5707963267948968 $428 $598 forward 7 unknown #
coedge $-1 $520 $429 $515 $591 forward $253 $-1 #
coedge $-1 $430 $519 $595 $599 reversed $253 $-1 #
coedge $-1 $600 $592 $430 $522 forward $601 $-1 #
edge $-1 $525 0 $602 1.5707963267948963 $430 $603 forward 7 unknown #
coedge $-1 $431 $515 $493 $564 forward $340 $-1 #
vertex $-1 $564 $604 #
vertex $-1 $593 $605 #
straight-curve $-1 3 0 -2 1 0 0 I I #
straight-curve $-1 -3 -3 -2.75 0 0 1 I I #
edge $-1 $438 0 $489 6 $487 $606 forward 7 unknown #
face $-1 $562 $437 $3 $-1 $607 forward single #
point $-1 -3 -3 -2.75 #
edge $-1 $446 0 $532 1 $484 $608 forward 7 unknown #
vertex $-1 $486 $609 #
straight-curve $-1 -2.75 -3 -3 0 1 0 I I #
plane-surface $-1 -1.5 -3 -3 0 0 -1 -1 0 0 forward_v I I I I #
ellipse-curve $-1 -1.7499999999999998 3 -2.7500000000000004 0 -1 0 -2.2204460492503131e-016 0 -0.24999999999999956 1 I I #
point $-1 -1.75 3 -3 #
coedge $-1 $469 $451 $506 $579 reversed $364 $-1 #
vertex $-1 $507 $610 #
straight-curve $-1 -1 15.750000000000002 -0.96891108675446602 1 -1.1842378929335002e-015 -6.6613381477509392e-016 I I #
ellipse-curve $-1 1.5 14.00000000000002 -3.9999999999999272 -1 0 0 0 -2.1316282072803006e-014 6.9999999999999272 1 I I #
point $-1 0.5 17.500000000000007 2.0621778264910691 #
point $-1 1.5 17.500000000000004 2.0621778264910682 #
face $-1 $219 $459 $3 $-1 $611 forward single #
straight-curve $-1 1.5000000000000004 17.5 2.0621778264910695 0 0.49999999999999933 0.86602540378443904 I I #
coedge $-1 $612 $467 $469 $550 forward $547 $-1 #
coedge $-1 $467 $613 $552 $614 reversed $547 $-1 #
loop $-1 $-1 $467 $581 #
vertex $-1 $474 $615 #
straight-curve $-1 -1 17.75 -10.49519052838329 0 -0.49999999999999989 0.8660254037844386 I I #
edge $-1 $470 0 $616 1.5 $545 $617 forward 7 unknown #
point $-1 -1 15.749999999999998 -7.0310889132455356 #
coedge $-1 $575 $473 $546 $614 forward $500 $-1 #
ellipse-curve $-1 -1 14 -4 1 0 0 0 -6.6332495807108032 3.4999999999999964 1 I I #
point $-1 -1 7.3667504192891968 -0.50000000000000422 #
straight-curve $-1 -3 -3 2.75 0 1 0 I I #
point $-1 -3 -3 2.75 #
face $-1 $618 $619 $3 $-1 $620 forward single #
loop $-1 $-1 $621 $482 #
cone-surface $-1 -3 0 0 -1 0 0 0 0 2 1 I I 0 1 2 forward I I I I #
ellipse-curve $-1 -2.7500000000000004 3 -2.7500000000000004 0 -1 0 -0.24999999999999956 0 4.4408920985006262e-016 1 I I #
loop $-1 $-1 $622 $562 #
face $-1 $394 $488 $3 $-1 $623 forward single #
point $-1 -3 3 -2.75 #
edge $-1 $565 0 $524 3.1415926535897931 $493 $624 forward 7 unknown #
vertex $-1 $564 $625 #
ellipse-curve $-1 3 0 0 1 0 0 0 0 -2 1 I I #
coedge $-1 $506 $495 $612 $626 forward $143 $-1 #
coedge $-1 $627 $628 $495 $569 reversed $629 $-1 #
edge $-1 $573 0 $630 3.1415926535897936 $495 $631 forward 7 unknown #
coedge $-1 $632 $496 $499 $576 forward $572 $-1 #
coedge $-1 $496 $632 $627 $633 reversed $572 $-1 #
loop $-1 $-1 $570 $634 #
vertex $-1 $569 $635 #
straight-curve $-1 0.5 10.500000000000002 2.0621778264910731 0 -0.49999999999999784 0.86602540378443993 I I #
coedge $-1 $499 $552 $636 $637 reversed $500 $-1 #
edge $-1 $501 0 $638 1 $499 $639 forward 7 unknown #
point $-1 0.5 10.250000000000004 2.4951905283832914 #
straight-curve $-1 -1 7.3667504192891968 -0.50000000000000178 1 0 0 I I #
edge $-1 $616 6.5253924712662325e-016 $538 4.1887902047863914 $506 $640 forward 7 unknown #
straight-curve $-1 0.5 15.75 -0.96891108675446613 0 0.50000000000000044 0.86602540378443837 I I #
face $-1 $641 $547 $3 $-1 $642 forward single #
cone-surface $-1 -1 14 -4 1 0 0 0 1.3023613325019781 7.3860581475915605 1 I I 0 1 7.5000000000000009 forward I I I I #
face $-1 $643 $644 $3 $-1 $645 reversed single #
loop $-1 $-1 $646 $511 #
cone-surface $-1 3 0 0 1 0 0 0 0 -2 1 I I 0 1 2 forward I I I I #
coedge $-1 $647 $648 $649 $650 reversed $512 $-1 #
coedge $-1 $595 $514 $600 $651 reversed $426 $-1 #
coedge $-1 $514 $594 $652 $653 reversed $426 $-1 #
coedge $-1 $654 $647 $514 $590 forward $512 $-1 #
edge $-1 $655 0 $656 1.5707963267948966 $589 $657 forward 7 unknown #
edge $-1 $565 0 $596 2.1339745962155607 $515 $658 forward 7 unknown #
coedge $-1 $521 $659 $516 $593 forward $601 $-1 #
edge $-1 $597 0 $525 1.5707963267948968 $516 $660 forward 7 unknown #
coedge $-1 $588 $517 $659 $661 forward $426 $-1 #
coedge $-1 $517 $587 $520 $599 forward $426 $-1 #
vertex $-1 $591 $662 #
vertex $-1 $593 $663 #
ellipse-curve $-1 5.1339745962155616 0 0 1 0 0 0 1.2246063538223773e-016 2 1 I I #
edge $-1 $602 0 $596 1.5707963267948966 $520 $664 forward 7 unknown #
coedge $-1 $665 $521 $587 $651 forward $601 $-1 #
loop $-1 $-1 $659 $666 #
vertex $-1 $522 $667 #
ellipse-curve $-1 5.1339745962155616 0 0 1 0 0 0 5.6654984523230044e-016 -2 1 I I #
point $-1 3 0 -2 #
point $-1 5.1339745962155616 5.6654984523230044e-016 -2 #
straight-curve $-1 -3 -3 -2.75 0 1 0 I I #
cone-surface $-1 -2.75 -3 -2.75 0 -1 0 -0.25 0 0 1 I I 0 1 0.25 forward I I I I #
straight-curve $-1 -1.75 3 -3 -1 0 0 I I #
point $-1 -2.75 3 -3 #
point $-1 0.5 15.750000000000002 -0.9689110867544668 #
plane-surface $-1 1.5 14 -4 1 0 0 0 -0.17364817766693041 -0.98480775301220813 forward_v I I I I #
coedge $-1 $668 $545 $567 $626 reversed $547 $-1 #
coedge $-1 $546 $668 $669 $670 reversed $547 $-1 #
edge $-1 $548 6.3108872417680944e-030 $671 2.5 $552 $672 forward 7 unknown #
point $-1 -1 17.75 -10.49519052838329 #
vertex $-1 $579 $673 #
straight-curve $-1 -1 15.75 -7.0310889132455348 1 0 0 I I #
face $-1 $674 $675 $3 $-1 $676 forward single #
loop $-1 $-1 $677 $557 #
cone-surface $-1 -3 0 0 -1 0 0 0 0 2 1 I I 0 1 2 forward I I I I #
coedge $-1 $678 $679 $680 $681 forward $558 $-1 #
coedge $-1 $682 $682 $679 $683 reversed $561 $-1 #
plane-surface $-1 -3 -3 -3 -1 0 0 0 0 1 forward_v I I I I #
ellipse-curve $-1 3 0 0 1 0 0 0 0 2 1 I I #
point $-1 3 0 2 #
edge $-1 $630 0 $616 3.5000000000000009 $567 $684 forward 7 unknown #
coedge $-1 $685 $568 $571 $633 forward $629 $-1 #
coedge $-1 $568 $685 $668 $686 reversed $629 $-1 #
loop $-1 $-1 $627 $641 #
vertex $-1 $626 $687 #
ellipse-curve $-1 0.5 14 -4 1 0 0 0 -3.4999999999999964 6.0621778264910722 1 I I #
coedge $-1 $571 $570 $688 $689 reversed $572 $-1 #
edge $-1 $573 -4.7331654313260708e-030 $690 1 $627 $691 forward 7 unknown #
face $-1 $692 $572 $3 $-1 $693 forward single #
point $-1 0.5 10.500000000000004 2.0621778264910722 #
coedge $-1 $669 $688 $575 $637 forward $694 $-1 #
edge $-1 $638 0 $671 3.1415926535897936 $575 $695 forward 7 unknown #
vertex $-1 $576 $696 #
straight-curve $-1 0.5 10.250000000000002 2.4951905283832918 1 0 0 I I #
ellipse-curve $-1 0.5 14 -4.0000000000000018 -1 0 0 0 1.7499999999999982 -3.0310889132455339 1 I I #
face $-1 $634 $629 $3 $-1 $697 reversed single #
plane-surface $-1 -1 17.75 -10.49519052838329 0 0.86602540378443882 0.49999999999999989 0 -0.5 0.86602540378443904 forward_v I I I I #
face $-1 $698 $699 $3 $-1 $700 forward single #
loop $-1 $-1 $701 $583 #
torus-surface $-1 9 0 0 -1 0 0 2.5 1 0 1 0 forward_v I I I I #
coedge $-1 $702 $703 $704 $705 reversed $584 $-1 #
coedge $-1 $589 $586 $665 $706 forward $512 $-1 #
coedge $-1 $586 $707 $708 $709 reversed $512 $-1 #
coedge $-1 $703 $710 $586 $650 forward $584 $-1 #
edge $-1 $711 1.7763568394002505e-015 $712 1.2679491924311233 $649 $713 forward 7 unknown #
edge $-1 $602 0 $655 2.0943951023931948 $600 $714 forward 7 unknown #
coedge $-1 $710 $702 $588 $653 forward $584 $-1 #
edge $-1 $656 0 $715 1.5707963267948968 $652 $716 forward 7 unknown #
coedge $-1 $707 $589 $702 $717 forward $512 $-1 #
vertex $-1 $590 $718 #
vertex $-1 $653 $719 #
ellipse-curve $-1 6.8660254037844393 0 0 1 0 0 0 2.0000000000000004 0 1 I I #
straight-curve $-1 3 2.4492127076447545e-016 2 1 0 0 I I #
coedge $-1 $592 $720 $594 $661 reversed $601 $-1 #
ellipse-curve $-1 5.1339745962155616 0 0 1 0 0 0 -1.9999999999999998 -2.4492127076447545e-016 1 I I #
edge $-1 $597 0 $715 2.0943951023931962 $659 $721 forward 7 unknown #
point $-1 5.1339745962155607 2.4492127076447545e-016 2 #
point $-1 5.1339745962155616 -1.9999999999999998 -2.4492127076447545e-016 #
ellipse-curve $-1 5.1339745962155616 0 0 1 0 0 0 1.9999999999999998 0 1 I I #
coedge $-1 $720 $600 $647 $706 reversed $601 $-1 #
face $-1 $-1 $601 $3 $-1 $722 reversed single #
point $-1 5.1339745962155616 1.9999999999999998 0 #
coedge $-1 $613 $612 $628 $686 forward $547 $-1 #
coedge $-1 $723 $636 $613 $670 forward $694 $-1 #
edge $-1 $671 -6.391467286720804e-015 $724 0.50000000000000155 $613 $725 forward 7 unknown #
vertex $-1 $637 $726 #
straight-curve $-1 -1 17.75 -10.495190528383288 1 1.4210854715202005e-015 -3.5527136788005009e-015 I I #
point $-1 0.5 15.749999999999996 -7.0310889132455374 #
face $-1 $727 $728 $3 $-1 $729 forward single #
loop $-1 $-1 $730 $618 #
cone-surface $-1 -27.5 0 0 -1 0 0 0 0 1.0000000000000002 1 I I -0.70710678118654757 0.70710678118654746 1.0000000000000002 forward I I I I #
coedge $-1 $731 $732 $733 $734 forward $619 $-1 #
coedge $-1 $733 $621 $735 $736 reversed $558 $-1 #
coedge $-1 $621 $733 $622 $683 forward $558 $-1 #
coedge $-1 $732 $731 $621 $681 reversed $619 $-1 #
edge $-1 $737 0 $738 23.5 $680 $739 forward 7 unknown #
coedge $-1 $622 $622 $732 $740 reversed $561 $-1 #
edge $-1 $741 0 $737 3.1415926535897931 $622 $742 forward 7 unknown #
straight-curve $-1 0.5 17.5 -10.062177826491071 0 -0.49999999999999989 0.86602540378443882 I I #
coedge $-1 $628 $627 $723 $743 reversed $629 $-1 #
edge $-1 $630 0 $724 1 $668 $744 forward 7 unknown #
point $-1 0.5 17.5 -10.062177826491071 #
coedge $-1 $636 $723 $632 $689 forward $694 $-1 #
edge $-1 $690 -3.1957336433604012e-015 $638 0.49999999999999584 $688 $745 forward 7 unknown #
vertex $-1 $689 $746 #
straight-curve $-1 0.5 10.500000000000004 2.0621778264910731 1 -3.5527136788005009e-015 5.3290705182007514e-015 I I #
face $-1 $117 $694 $3 $-1 $747 forward single #
plane-surface $-1 -1 17.75 -10.49519052838329 0 0.86602540378443882 0.49999999999999989 0 -0.5 0.86602540378443904 forward_v I I I I #
loop $-1 $-1 $669 $692 #
ellipse-curve $-1 1.5 14 -4.0000000000000018 1 0 0 0 -3.7499999999999964 6.4951905283832936 1 I I #
point $-1 1.5 10.250000000000004 2.4951905283832914 #
cone-surface $-1 0.5 14 -4 1 0 0 0 -1.2155372436685128 -6.8936542710854569 1 I I 0 1 7.0000000000000009 forward I I I I #
face $-1 $748 $749 $3 $-1 $750 forward single #
loop $-1 $-1 $751 $643 #
cone-surface $-1 3 0 0 1 0 0 0 0 -2 1 I I 0 1 2 forward I I I I #
coedge $-1 $752 $753 $751 $754 reversed $644 $-1 #
coedge $-1 $652 $646 $654 $717 reversed $584 $-1 #
coedge $-1 $646 $649 $755 $756 reversed $584 $-1 #
coedge $-1 $757 $758 $646 $705 forward $644 $-1 #
edge $-1 $759 -6.1230317691118851e-017 $760 1.5707963267948968 $646 $761 forward 7 unknown #
edge $-1 $711 0 $655 1.5707963267948966 $647 $762 forward 7 unknown #
coedge $-1 $648 $654 $758 $763 reversed $512 $-1 #
coedge $-1 $764 $755 $648 $709 forward $765 $-1 #
edge $-1 $712 1.9446922743316072e-062 $766 1.5707963267948968 $648 $767 forward 7 unknown #
coedge $-1 $649 $652 $720 $768 forward $584 $-1 #
vertex $-1 $650 $769 #
vertex $-1 $756 $770 #
straight-curve $-1 6.8660254037844375 0 -2 1 0 0 I I #
ellipse-curve $-1 6 2.5 0 0 0 1 -0.86602540378443837 -0.50000000000000022 0 1 I I #
vertex $-1 $768 $771 #
ellipse-curve $-1 6.8660254037844393 0 0 1 0 0 0 1.2246063538223775e-016 2.0000000000000004 1 I I #
edge $-1 $656 -1.7763568394002505e-015 $759 1.2679491924311179 $702 $772 forward 7 unknown #
point $-1 6.8660254037844384 1.9999999999999996 0 #
point $-1 6.8660254037844393 1.2246063538223775e-016 2.0000000000000004 #
coedge $-1 $659 $665 $710 $768 reversed $601 $-1 #
ellipse-curve $-1 6 -2.4999999999999991 3.0615158845559422e-016 -5.5466782398352458e-032 -1.224606353822378e-016 -1 -0.86602540378443837 0.49999999999999933 -6.1230317691118764e-017 1 I I #
torus-surface $-1 6 0 0 -1 0 0 2.5 1 0 1 0 forward_v I I I I #
coedge $-1 $688 $669 $685 $743 forward $694 $-1 #
vertex $-1 $670 $773 #
straight-curve $-1 1.5 17.75 -10.495190528383292 0 -0.499999999999999 0.86602540378443926 I I #
point $-1 1.5 17.750000000000004 -10.495190528383297 #
face $-1 $543 $774 $3 $-1 $775 forward single #
loop $-1 $-1 $776 $674 #
cone-surface $-1 -27.5 0 0 -1 0 0 0 0 1.0000000000000002 1 I I -0.70710678118654757 0.70710678118654746 1.0000000000000002 forward I I I I #
coedge $-1 $777 $778 $779 $780 forward $675 $-1 #
coedge $-1 $680 $677 $777 $781 reversed $619 $-1 #
coedge $-1 $677 $680 $682 $740 forward $619 $-1 #
coedge $-1 $679 $678 $677 $734 reversed $558 $-1 #
edge $-1 $741 0 $782 23.5 $677 $783 forward 7 unknown #
coedge $-1 $779 $776 $678 $736 forward $728 $-1 #
edge $-1 $782 -2.4651903288156613e-032 $738 3.1415926535897931 $678 $784 forward 7 unknown #
vertex $-1 $740 $785 #
vertex $-1 $681 $786 #
straight-curve $-1 -3 0 2 -1 0 0 I I #
edge $-1 $737 0 $741 3.1415926535897931 $682 $787 forward 7 unknown #
vertex $-1 $740 $788 #
ellipse-curve $-1 -3 0 0 -1 0 0 0 0 -2 1 I I #
edge $-1 $724 0 $690 3.1415926535897927 $723 $789 forward 7 unknown #
straight-curve $-1 0.5 17.5 -10.062177826491071 1 0 0 I I #
straight-curve $-1 1.5 10.5 2.0621778264910748 0 -0.49999999999999672 0.86602540378444059 I I #
point $-1 1.5 10.500000000000002 2.0621778264910722 #
plane-surface $-1 1.5 14 -4 1 0 0 0 -0.17364817766693041 -0.98480775301220813 forward_v I I I I #
face $-1 $790 $791 $3 $-1 $792 reversed single #
loop $-1 $-1 $793 $698 #
cone-surface $-1 3 0 0 1 0 0 0 0 -2 1 I I 0 1 2 forward I I I I #
coedge $-1 $794 $795 $701 $754 forward $699 $-1 #
coedge $-1 $758 $701 $764 $796 reversed $644 $-1 #
coedge $-1 $701 $757 $797 $798 reversed $644 $-1 #
edge $-1 $799 0 $800 1.5707963267948966 $751 $801 forward 7 unknown #
coedge $-1 $708 $802 $703 $756 forward $765 $-1 #
edge $-1 $760 0 $712 1.5707963267948963 $703 $803 forward 7 unknown #
coedge $-1 $753 $704 $802 $804 forward $644 $-1 #
coedge $-1 $704 $752 $707 $763 forward $644 $-1 #
vertex $-1 $717 $805 #
vertex $-1 $756 $806 #
ellipse-curve $-1 8.1339745962155625 0 0 1 5.4383446804634572e-032 8.8817841970012504e-016 -1.7763568394002505e-015 1.2246063538223778e-016 2.0000000000000004 1 I I #
ellipse-curve $-1 6.8660254037844393 0 0 1 0 0 0 1.2246063538223775e-016 -2.0000000000000004 1 I I #
edge $-1 $766 0 $759 1.5707963267948966 $707 $807 forward 7 unknown #
coedge $-1 $808 $708 $752 $796 forward $765 $-1 #
loop $-1 $-1 $802 $809 #
vertex $-1 $709 $810 #
ellipse-curve $-1 8.1339745962155625 0 0 1 -1.4283177950061838e-031 -8.8817841970012543e-016 -1.7763568394002505e-015 -3.2162857446782484e-016 -1.9999999999999998 1 I I #
edge $-1 $715 0 $711 1.5707963267948966 $710 $811 forward 7 unknown #
point $-1 6.8660254037844393 1.2246063538223775e-016 -2.0000000000000004 #
point $-1 8.1339745962155607 -3.2162857446782484e-016 -1.9999999999999998 #
point $-1 6.8660254037844384 -1.9999999999999996 -2.449212707644754e-016 #
straight-curve $-1 6.866025403784441 2.4492127076447545e-016 2 1 0 0 I I #
point $-1 1.5 17.499999999999993 -10.062177826491075 #
loop $-1 $-1 $812 $727 #
plane-surface $-1 -27 -3 -3 -1 0 0 0 0 1 forward_v I I I I #
coedge $-1 $735 $813 $814 $815 forward $728 $-1 #
coedge $-1 $814 $730 $731 $781 forward $675 $-1 #
coedge $-1 $730 $814 $816 $817 reversed $675 $-1 #
coedge $-1 $813 $735 $730 $780 reversed $728 $-1 #
edge $-1 $818 -1.1950020727811065e-029 $738 0.70710678118654735 $730 $819 forward 7 unknown #
edge $-1 $738 6.1629758220391534e-033 $782 3.1415926535897931 $731 $820 forward 7 unknown #
vertex $-1 $781 $821 #
straight-curve $-1 -3 2.4492127076447545e-016 -2 -1 0 0 I I #
ellipse-curve $-1 -26.5 -1.6653345369377348e-016 -5.5511151231257827e-017 -1 0 0 0 4.1145472445824898e-016 -2.0000000000000004 1 I I #
point $-1 -3 0 2 #
point $-1 -26.5 0 2 #
ellipse-curve $-1 -3 0 0 -1 0 0 0 0 2 1 I I #
point $-1 -3 0 -2 #
ellipse-curve $-1 1.5 14 -4.0000000000000009 -1 0 0 0 3.4999999999999929 -6.062177826491074 1 I I #
face $-1 $822 $823 $3 $-1 $824 reversed single #
loop $-1 $-1 $825 $748 #
torus-surface $-1 12 0 0 -1 0 0 2.5 1 0 1 0 forward_v I I I I #
coedge $-1 $826 $827 $828 $829 forward $749 $-1 #
coedge $-1 $830 $751 $831 $832 forward $699 $-1 #
coedge $-1 $751 $828 $808 $833 forward $699 $-1 #
edge $-1 $766 1.1102230246251601e-015 $799 2.0943951023931939 $764 $834 forward 7 unknown #
coedge $-1 $827 $831 $753 $798 forward $749 $-1 #
edge $-1 $800 0 $835 1.5707963267948968 $797 $836 forward 7 unknown #
vertex $-1 $833 $837 #
vertex $-1 $798 $838 #
ellipse-curve $-1 9.8660254037844375 0 0 1 0 0 0 1.9999999999999996 0 1 I I #
coedge $-1 $755 $839 $757 $804 reversed $765 $-1 #
ellipse-curve $-1 8.1339745962155607 0 0 1 0 0 0 -1.9999999999999998 -2.4492127076447545e-016 1 I I #
edge $-1 $760 -1.0547118733938997e-015 $835 2.0943951023931953 $802 $840 forward 7 unknown #
point $-1 8.133974596215559 2.4492127076447545e-016 2 #
point $-1 8.1339745962155607 -1.9999999999999998 -2.4492127076447545e-016 #
ellipse-curve $-1 8.1339745962155607 0 0 1 0 0 0 1.9999999999999998 0 1 I I #
coedge $-1 $839 $764 $795 $833 reversed $765 $-1 #
face $-1 $666 $765 $3 $-1 $841 reversed single #
point $-1 8.1339745962155625 1.9999999999999996 0 #
ellipse-curve $-1 6.8660254037844393 0 0 1 -4.4408920985006271e-016 -5.4383446804634583e-032 -8.8817841970012523e-016 -1.9999999999999996 -2.449212707644754e-016 1 I I #
coedge $-1 $816 $816 $813 $842 forward $774 $-1 #
coedge $-1 $776 $779 $812 $842 reversed $728 $-1 #
coedge $-1 $778 $777 $776 $815 reversed $675 $-1 #
edge $-1 $843 -5.7682356029782508e-032 $782 0.70710678118654735 $814 $844 forward 7 unknown #
coedge $-1 $812 $812 $778 $817 forward $774 $-1 #
edge $-1 $818 0 $843 3.1415926535897931 $816 $845 forward 7 unknown #
vertex $-1 $817 $846 #
straight-curve $-1 -27 -3.0319171652470897e-015 1.5000000000000004 0.70710678118654746 -3.941407392255448e-015 0.70710678118654746 I I #
ellipse-curve $-1 -26.5 -5.5511151231257827e-017 -1.1102230246251565e-016 -1 0 0 0 5.5511151231257827e-017 2.0000000000000004 1 I I #
point $-1 -26.5 2.4492127076447545e-016 -2 #
face $-1 $847 $848 $3 $-1 $849 forward single #
loop $-1 $-1 $850 $790 #
torus-surface $-1 12 0 0 -1 0 0 2.5 1 0 1 0 forward_v I I I I #
coedge $-1 $851 $852 $853 $854 reversed $791 $-1 #
coedge $-1 $855 $793 $851 $856 reversed $749 $-1 #
coedge $-1 $793 $797 $839 $857 forward $749 $-1 #
coedge $-1 $795 $858 $793 $829 reversed $699 $-1 #
edge $-1 $859 -1.7763568394002505e-015 $860 1.2679491924311197 $793 $861 forward 7 unknown #
coedge $-1 $858 $794 $862 $863 reversed $699 $-1 #
coedge $-1 $797 $855 $794 $832 reversed $749 $-1 #
edge $-1 $800 0 $864 1.2679491924311233 $831 $865 forward 7 unknown #
edge $-1 $859 0 $799 1.5707963267948966 $795 $866 forward 7 unknown #
ellipse-curve $-1 8.9999999999999982 2.5 0 0 0 1 -0.86602540378443749 -0.50000000000000022 0 1 I I #
vertex $-1 $857 $867 #
ellipse-curve $-1 9.8660254037844375 0 0 1 0 0 0 1.2246063538223765e-016 1.9999999999999987 1 I I #
point $-1 9.8660254037844375 1.9999999999999987 0 #
point $-1 9.8660254037844375 1.2246063538223765e-016 1.9999999999999987 #
coedge $-1 $802 $808 $827 $857 reversed $765 $-1 #
ellipse-curve $-1 9 -2.4999999999999991 3.0615158845559417e-016 1.232595164407834e-032 -1.2246063538223773e-016 -1 -0.86602540378443749 0.49999999999999956 -6.1230317691118814e-017 1 I I #
torus-surface $-1 9 0 0 -1 0 0 2.5 1 0 1 0 forward_v I I I I #
edge $-1 $843 4.4408920985006262e-016 $818 3.1415926535897931 $812 $868 forward 7 unknown #
vertex $-1 $817 $869 #
straight-curve $-1 -27 1.8369095307335664e-016 -1.5000000000000004 0.70710678118654746 8.6592745707193542e-017 -0.70710678118654746 I I #
ellipse-curve $-1 -27 0 0 -1 0 0 0 0 1.5000000000000004 1 I I #
point $-1 -27 0 1.5000000000000004 #
face $-1 $870 $871 $3 $-1 $872 forward single #
loop $-1 $-1 $873 $822 #
cone-surface $-1 3 0 0 1 0 0 0 0 -2 1 I I 0 1 2 forward I I I I #
coedge $-1 $874 $875 $873 $876 reversed $823 $-1 #
coedge $-1 $877 $825 $826 $856 forward $791 $-1 #
coedge $-1 $825 $878 $879 $880 reversed $791 $-1 #
coedge $-1 $875 $881 $825 $854 forward $823 $-1 #
edge $-1 $882 0 $883 2.0943951023931926 $825 $884 forward 7 unknown #
coedge $-1 $831 $826 $881 $885 reversed $749 $-1 #
edge $-1 $882 0 $860 1.5707963267948966 $826 $886 forward 7 unknown #
edge $-1 $835 0 $859 1.5707963267948966 $827 $887 forward 7 unknown #
coedge $-1 $828 $830 $877 $888 reversed $699 $-1 #
vertex $-1 $857 $889 #
vertex $-1 $856 $890 #
straight-curve $-1 9.866025403784441 0 -2 1 0 0 I I #
coedge $-1 $881 $874 $830 $863 forward $823 $-1 #
edge $-1 $891 0 $864 1.5707963267948966 $830 $892 forward 7 unknown #
vertex $-1 $832 $893 #
straight-curve $-1 9.8660254037844375 2.4492127076447545e-016 2 1 0 0 I I #
ellipse-curve $-1 9.8660254037844375 0 0 1 -5.4383446804634561e-032 8.8817841970012504e-016 1.7763568394002505e-015 1.2246063538223775e-016 -2.0000000000000004 1 I I #
point $-1 9.8660254037844375 -1.9999999999999996 -2.449212707644754e-016 #
ellipse-curve $-1 -27 0 0 -1 0 0 0 1.8369095307335664e-016 -1.5000000000000004 1 I I #
point $-1 -27 -4.8244286170173743e-016 -1.5000000000000004 #
face $-1 $809 $894 $3 $-1 $895 forward single #
loop $-1 $-1 $896 $847 #
cone-surface $-1 3 0 0 1 0 0 0 0 -2 1 I I 0 1 2 forward I I I I #
coedge $-1 $897 $898 $850 $876 forward $848 $-1 #
coedge $-1 $862 $850 $899 $900 reversed $823 $-1 #
coedge $-1 $850 $853 $901 $902 reversed $823 $-1 #
edge $-1 $903 0 $904 1.5707963267948966 $873 $905 forward 7 unknown #
coedge $-1 $899 $851 $858 $888 forward $791 $-1 #
coedge $-1 $852 $899 $898 $906 reversed $791 $-1 #
coedge $-1 $896 $901 $852 $880 forward $871 $-1 #
edge $-1 $883 0 $907 1.5707963267948966 $879 $908 forward 7 unknown #
coedge $-1 $853 $862 $855 $885 forward $823 $-1 #
vertex $-1 $885 $909 #
vertex $-1 $880 $910 #
ellipse-curve $-1 12 -2.5000000000000022 3.0615158845559461e-016 1.8488927466117404e-032 -1.2246063538223773e-016 -1 -0.86602540378443926 0.50000000000000222 -6.1230317691119159e-017 1 I I #
edge $-1 $864 -6.1230317691118863e-017 $882 1.5707963267948968 $855 $911 forward 7 unknown #
ellipse-curve $-1 11.133974596215561 0 0 1 0 0 0 -2 -2.4492127076447545e-016 1 I I #
ellipse-curve $-1 9.8660254037844375 0 0 1 0 0 0 -1.9999999999999996 -2.449212707644754e-016 1 I I #
edge $-1 $860 0 $891 1.5707963267948966 $858 $912 forward 7 unknown #
point $-1 9.8660254037844393 1.2246063538223775e-016 -2.0000000000000004 #
point $-1 11.133974596215561 1.2246063538223773e-016 -2 #
vertex $-1 $888 $913 #
ellipse-curve $-1 11.133974596215561 0 0 1 0 0 0 2 0 1 I I #
point $-1 11.133974596215561 2.4492127076447545e-016 2 #
loop $-1 $-1 $914 $870 #
plane-surface $-1 14.5 -3 3 1 0 0 0 0 -1 forward_v I I I I #
coedge $-1 $915 $879 $916 $917 forward $871 $-1 #
coedge $-1 $918 $873 $919 $920 forward $848 $-1 #
coedge $-1 $873 $916 $878 $906 forward $848 $-1 #
coedge $-1 $878 $877 $874 $900 forward $791 $-1 #
edge $-1 $891 0 $903 2.0943951023931926 $899 $921 forward 7 unknown #
coedge $-1 $879 $919 $875 $902 forward $871 $-1 #
edge $-1 $904 -6.1230317691118863e-017 $883 1.5707963267948968 $901 $922 forward 7 unknown #
vertex $-1 $906 $923 #
vertex $-1 $902 $924 #
ellipse-curve $-1 12.866025403784437 0 0 1 -8.8817841970012504e-016 0 1.7763568394002505e-015 2.0000000000000004 0 1 I I #
edge $-1 $907 0 $903 1.5707963267948966 $898 $925 forward 7 unknown #
vertex $-1 $880 $926 #
ellipse-curve $-1 12.866025403784437 0 0 1 8.8817841970012504e-016 1.0876689360926912e-031 1.7763568394002505e-015 -2.0000000000000004 -2.449212707644755e-016 1 I I #
point $-1 11.133974596215561 -2 -2.4492127076447545e-016 #
point $-1 12.866025403784439 -2.0000000000000004 -2.449212707644755e-016 #
ellipse-curve $-1 11.133974596215561 0 0 1 0 0 0 1.2246063538223773e-016 2 1 I I #
ellipse-curve $-1 11.133974596215561 0 0 1 0 0 0 1.2246063538223773e-016 -2 1 I I #
point $-1 11.133974596215561 2 0 #
coedge $-1 $927 $927 $918 $928 forward $894 $-1 #
coedge $-1 $919 $896 $927 $929 reversed $871 $-1 #
coedge $-1 $898 $918 $896 $917 reversed $848 $-1 #
edge $-1 $907 0 $930 1.6339745962155607 $896 $931 forward 7 unknown #
coedge $-1 $916 $897 $914 $928 reversed $848 $-1 #
coedge $-1 $901 $915 $897 $920 reversed $871 $-1 #
edge $-1 $904 0 $932 1.6339745962155607 $919 $933 forward 7 unknown #
ellipse-curve $-1 12 2.5000000000000022 0 0 0 1 -0.86602540378443926 -0.50000000000000222 0 1 I I #
ellipse-curve $-1 12.866025403784437 0 0 1 -5.4383446804634561e-032 -8.8817841970012504e-016 1.7763568394002505e-015 1.2246063538223775e-016 2.0000000000000004 1 I I #
point $-1 12.866025403784439 2.0000000000000004 0 #
point $-1 12.866025403784439 2.4492127076447545e-016 2 #
ellipse-curve $-1 12.866025403784437 0 0 1 -5.4383446804634561e-032 8.8817841970012504e-016 1.7763568394002505e-015 1.2246063538223775e-016 -2.0000000000000004 1 I I #
point $-1 12.866025403784439 1.2246063538223775e-016 -2.0000000000000004 #
coedge $-1 $914 $914 $915 $929 forward $894 $-1 #
edge $-1 $930 0 $932 3.1415926535897931 $914 $934 forward 7 unknown #
edge $-1 $932 0 $930 3.1415926535897931 $927 $935 forward 7 unknown #
vertex $-1 $929 $936 #
straight-curve $-1 12.866025403784439 0 -2 1 0 0 I I #
vertex $-1 $929 $937 #
straight-curve $-1 12.866025403784439 2.4492127076447545e-016 2 1 0 0 I I #
ellipse-curve $-1 14.5 0 0 1 0 0 0 0 -2 1 I I #
ellipse-curve $-1 14.5 0 0 1 0 0 0 0 2 1 I I #
point $-1 14.5 0 -2 #
point $-1 14.5 0 2 #
End-of-ACIS-data 