600 0 1 0           
96 GICL ACIS Healer - Source: /gicl/data5/repository/PTC/V18/asmdes18/parts/shift_rod_r_l.sat - 6 0 18 ACIS 6.0.3 Solaris 24 Sat Apr 13 23:01:58 2002 
1 9.999999999999999547e-07 1.000000000000000036e-10 
body $-1 $1 $-1 $-1 #
lump $-1 $-1 $2 $0 #
shell $-1 $-1 $-1 $3 $-1 $1 #
face $-1 $4 $5 $2 $-1 $6 reversed single #
face $-1 $7 $8 $2 $-1 $9 reversed single #
loop $-1 $-1 $10 $3 #
plane-surface $-1 0 -30 0 0 1 0 10 0 0 forward_v I I I I #
face $-1 $11 $12 $2 $-1 $13 forward single #
loop $-1 $-1 $14 $4 #
cone-surface $-1 12.5 -30 12.5 0 1 0 0 0 2.5 1 I I 0 1 2.5 forward I I I I #
coedge $-1 $15 $16 $17 $18 forward $5 $-1 #
face $-1 $19 $20 $2 $-1 $21 forward single #
loop $-1 $-1 $22 $7 #
plane-surface $-1 0 30 0 0 1 0 10 0 0 forward_v I I I I #
coedge $-1 $23 $24 $25 $26 forward $8 $-1 #
coedge $-1 $27 $10 $28 $29 reversed $5 $-1 #
coedge $-1 $10 $30 $31 $32 reversed $5 $-1 #
coedge $-1 $24 $23 $10 $18 reversed $8 $-1 #
edge $-1 $33 0 $34 1.570796326794896558 $10 $35 forward 7 unknown #
face $-1 $36 $37 $2 $-1 $38 reversed single #
loop $-1 $-1 $39 $11 #
plane-surface $-1 -30 -30 30 0 0 1 10 0 0 forward_v I I I I #
coedge $-1 $40 $41 $42 $43 forward $12 $-1 #
coedge $-1 $17 $14 $44 $45 reversed $8 $-1 #
coedge $-1 $14 $17 $46 $47 forward $8 $-1 #
coedge $-1 $48 $49 $14 $26 reversed $12 $-1 #
edge $-1 $50 0 $51 1.570796326794896558 $25 $52 forward 7 unknown #
coedge $-1 $53 $15 $54 $55 forward $5 $-1 #
coedge $-1 $44 $56 $15 $29 forward $57 $-1 #
edge $-1 $58 0 $34 4 $15 $59 forward 7 unknown #
coedge $-1 $16 $60 $61 $62 forward $5 $-1 #
coedge $-1 $63 $46 $16 $32 forward $64 $-1 #
edge $-1 $33 0 $65 2.5 $16 $66 forward 7 unknown #
vertex $-1 $32 $67 #
vertex $-1 $29 $68 #
ellipse-curve $-1 12.5 -30 12.5 0 1 0 0 0 2.5 1 I I #
face $-1 $69 $70 $2 $-1 $71 forward single #
loop $-1 $-1 $72 $19 #
plane-surface $-1 -10 140 -40 1 0 0 0 1.736481776669304145 9.848077530122081313 forward_v I I I I #
coedge $-1 $73 $74 $72 $75 forward $20 $-1 #
coedge $-1 $76 $22 $77 $78 reversed $12 $-1 #
coedge $-1 $22 $48 $79 $80 reversed $12 $-1 #
coedge $-1 $81 $82 $22 $43 reversed $20 $-1 #
edge $-1 $83 0 $84 2.25 $22 $85 forward 7 unknown #
coedge $-1 $86 $28 $23 $45 forward $57 $-1 #
edge $-1 $34 0 $51 6 $44 $87 forward 7 unknown #
coedge $-1 $31 $88 $24 $47 reversed $64 $-1 #
edge $-1 $33 0 $50 6 $46 $89 forward 7 unknown #
coedge $-1 $41 $25 $88 $90 forward $12 $-1 #
coedge $-1 $25 $91 $86 $92 forward $12 $-1 #
vertex $-1 $90 $93 #
vertex $-1 $26 $94 #
ellipse-curve $-1 12.5 30 12.5 0 1 0 0 0 2.5 1 I I #
coedge $-1 $95 $27 $96 $97 reversed $5 $-1 #
coedge $-1 $98 $99 $27 $55 reversed $100 $-1 #
edge $-1 $58 0 $101 1.570796326794895226 $27 $102 forward 7 unknown #
coedge $-1 $28 $86 $98 $103 reversed $57 $-1 #
loop $-1 $-1 $44 $104 #
vertex $-1 $55 $105 #
straight-curve $-1 15 -30 -27.5 0 0 10 I I #
coedge $-1 $30 $106 $107 $108 reversed $5 $-1 #
coedge $-1 $109 $110 $30 $62 reversed $111 $-1 #
edge $-1 $112 0 $65 1.570796326794896558 $30 $113 forward 7 unknown #
coedge $-1 $114 $31 $110 $115 forward $64 $-1 #
loop $-1 $-1 $88 $116 #
vertex $-1 $32 $117 #
straight-curve $-1 12.5 -30 15 -10 0 0 I I #
point $-1 12.5 -30 15 #
point $-1 15 -30 12.5 #
face $-1 $118 $119 $2 $-1 $120 reversed single #
loop $-1 $-1 $121 $36 #
cone-surface $-1 -10 140 -40 1 0 0 0 13.02361332501978097 73.86058147591560896 1 I I 0 1 75.00000000000001421 forward I I I I #
coedge $-1 $122 $123 $39 $75 reversed $37 $-1 #
coedge $-1 $124 $39 $125 $126 reversed $20 $-1 #
coedge $-1 $39 $81 $127 $128 reversed $20 $-1 #
edge $-1 $129 1.421085471520200451e-15 $130 8.307417596432729923 $39 $131 forward 7 unknown #
coedge $-1 $132 $40 $133 $134 forward $12 $-1 #
coedge $-1 $135 $136 $40 $78 forward $137 $-1 #
edge $-1 $138 3.552713678800511973e-16 $84 1.570796326794899889 $40 $139 forward 7 unknown #
coedge $-1 $140 $141 $41 $80 forward $142 $-1 #
edge $-1 $83 0 $143 1.5 $41 $144 forward 7 unknown #
coedge $-1 $74 $42 $141 $145 reversed $20 $-1 #
coedge $-1 $42 $146 $135 $147 forward $20 $-1 #
vertex $-1 $80 $148 #
vertex $-1 $78 $149 #
straight-curve $-1 5 30 30 10 0 0 I I #
coedge $-1 $56 $44 $49 $92 reversed $57 $-1 #
straight-curve $-1 15 -30 12.5 0 10 0 I I #
coedge $-1 $46 $150 $48 $90 reversed $64 $-1 #
straight-curve $-1 12.5 -30 15 0 10 0 I I #
edge $-1 $50 0 $143 0.75 $48 $151 forward 7 unknown #
coedge $-1 $49 $152 $153 $154 reversed $12 $-1 #
edge $-1 $155 0 $51 4 $49 $156 forward 7 unknown #
point $-1 12.5 30 15 #
point $-1 15 30 12.5 #
coedge $-1 $157 $53 $158 $159 forward $5 $-1 #
coedge $-1 $160 $161 $53 $97 forward $162 $-1 #
edge $-1 $163 0 $101 1 $53 $164 forward 7 unknown #
coedge $-1 $153 $54 $56 $103 forward $100 $-1 #
coedge $-1 $54 $153 $160 $165 reversed $100 $-1 #
loop $-1 $-1 $153 $166 #
vertex $-1 $97 $167 #
ellipse-curve $-1 17.50000000000000355 -30 -27.5 0 -1 0 -2.50000000000000222 0 0 1 I I #
edge $-1 $58 0 $155 6 $56 $168 forward 7 unknown #
face $-1 $169 $57 $2 $-1 $170 forward single #
point $-1 15 -30 -27.5 #
coedge $-1 $60 $171 $172 $173 forward $5 $-1 #
coedge $-1 $174 $175 $60 $108 forward $176 $-1 #
edge $-1 $112 0 $177 4 $60 $178 forward 7 unknown #
coedge $-1 $179 $61 $175 $180 forward $111 $-1 #
coedge $-1 $61 $179 $63 $115 reversed $111 $-1 #
loop $-1 $-1 $179 $181 #
vertex $-1 $62 $182 #
ellipse-curve $-1 -12.5 -30 12.5 0 1 0 -2.5 0 0 1 I I #
coedge $-1 $150 $63 $183 $184 reversed $64 $-1 #
edge $-1 $65 0 $185 6 $63 $186 forward 7 unknown #
face $-1 $181 $64 $2 $-1 $187 forward single #
point $-1 -12.5 -30 15 #
face $-1 $188 $189 $2 $-1 $190 reversed single #
loop $-1 $-1 $191 $69 #
plane-surface $-1 -30 -30 30 0 0 1 10 0 0 forward_v I I I I #
coedge $-1 $127 $192 $122 $193 forward $70 $-1 #
coedge $-1 $194 $72 $121 $193 reversed $37 $-1 #
coedge $-1 $72 $195 $196 $197 reversed $37 $-1 #
coedge $-1 $146 $73 $198 $199 reversed $20 $-1 #
coedge $-1 $196 $200 $73 $126 forward $201 $-1 #
edge $-1 $202 0 $130 1.75 $125 $203 forward 7 unknown #
coedge $-1 $204 $121 $74 $128 forward $70 $-1 #
edge $-1 $129 3.365806528942983516e-29 $205 1.5 $74 $206 forward 7 unknown #
vertex $-1 $128 $207 #
vertex $-1 $197 $208 #
straight-curve $-1 -10 113.0741759643272957 30 0 -10 0 I I #
coedge $-1 $152 $76 $209 $210 reversed $12 $-1 #
coedge $-1 $211 $212 $76 $134 reversed $213 $-1 #
edge $-1 $138 0 $214 5.5 $76 $215 forward 7 unknown #
coedge $-1 $216 $77 $82 $147 reversed $137 $-1 #
coedge $-1 $77 $216 $211 $217 forward $137 $-1 #
loop $-1 $-1 $77 $218 #
vertex $-1 $134 $219 #
ellipse-curve $-1 27.50000000000000355 30 27.50000000000000355 0 -1 0 2.499999999999995559 0 -4.440892098500626162e-15 1 I I #
coedge $-1 $220 $79 $221 $222 forward $142 $-1 #
coedge $-1 $79 $223 $81 $145 forward $142 $-1 #
loop $-1 $-1 $141 $224 #
vertex $-1 $80 $225 #
straight-curve $-1 5 30 30 0 2.368475785866998516e-14 -10 I I #
edge $-1 $205 1.136868377216160361e-14 $83 8.307417596432738804 $81 $226 forward 7 unknown #
coedge $-1 $82 $124 $227 $228 forward $20 $-1 #
edge $-1 $229 0 $84 6 $82 $230 forward 7 unknown #
point $-1 5 30 30 #
point $-1 27.5 30 30 #
coedge $-1 $88 $114 $231 $232 forward $64 $-1 #
straight-curve $-1 12.5 30 15 -10 0 0 I I #
coedge $-1 $91 $132 $233 $234 forward $12 $-1 #
coedge $-1 $99 $98 $91 $154 forward $100 $-1 #
edge $-1 $155 0 $235 1.570796326794895226 $91 $236 forward 7 unknown #
vertex $-1 $92 $237 #
straight-curve $-1 15 30 -27.5 0 0 10 I I #
coedge $-1 $238 $95 $239 $240 reversed $5 $-1 #
coedge $-1 $241 $242 $95 $159 reversed $243 $-1 #
edge $-1 $163 3.552713678800511973e-16 $244 1.570796326794899889 $95 $245 forward 7 unknown #
coedge $-1 $233 $96 $99 $165 forward $162 $-1 #
coedge $-1 $96 $233 $241 $246 reversed $162 $-1 #
loop $-1 $-1 $160 $247 #
vertex $-1 $159 $248 #
straight-curve $-1 27.5 -30 -30 -10 0 0 I I #
edge $-1 $101 0 $235 6 $160 $249 forward 7 unknown #
face $-1 $104 $100 $2 $-1 $250 forward single #
point $-1 17.5 -30 -30 #
straight-curve $-1 15 -30 -27.5 0 10 0 I I #
face $-1 $251 $252 $2 $-1 $253 forward single #
plane-surface $-1 15 -30 -30 -1 0 0 0 0 10 forward_v I I I I #
coedge $-1 $106 $254 $255 $256 reversed $5 $-1 #
coedge $-1 $257 $258 $106 $173 reversed $259 $-1 #
edge $-1 $260 -5.329070518200755141e-16 $177 1.570796326794899 $106 $261 forward 7 unknown #
coedge $-1 $262 $107 $258 $263 forward $176 $-1 #
coedge $-1 $107 $262 $109 $180 reversed $176 $-1 #
loop $-1 $-1 $174 $264 #
vertex $-1 $108 $265 #
straight-curve $-1 -15 -30 12.5 0 0 -10 I I #
coedge $-1 $110 $109 $266 $267 forward $111 $-1 #
edge $-1 $112 0 $268 6 $175 $269 forward 7 unknown #
face $-1 $270 $111 $2 $-1 $271 reversed single #
point $-1 -15 -30 12.5 #
coedge $-1 $266 $196 $114 $184 forward $201 $-1 #
edge $-1 $272 0 $185 0.25 $183 $273 forward 7 unknown #
vertex $-1 $267 $274 #
straight-curve $-1 -12.5 -30 15 0 10 0 I I #
plane-surface $-1 15 -30 15 0 0 -1 -10 0 0 forward_v I I I I #
face $-1 $275 $276 $2 $-1 $277 forward single #
loop $-1 $-1 $278 $118 #
cone-surface $-1 5 140 -40 1 0 0 0 -12.15537243668512701 -68.93654271085456742 1 I I 0 1 70.00000000000001421 forward I I I I #
coedge $-1 $279 $280 $281 $282 forward $119 $-1 #
coedge $-1 $121 $283 $284 $285 forward $70 $-1 #
edge $-1 $286 8.084397349092696822e-16 $129 0.8908067961561394466 $122 $287 forward 7 unknown #
coedge $-1 $288 $122 $289 $290 reversed $37 $-1 #
coedge $-1 $123 $291 $292 $293 reversed $37 $-1 #
coedge $-1 $183 $125 $123 $197 forward $201 $-1 #
edge $-1 $130 0 $272 1.5 $196 $294 forward 7 unknown #
coedge $-1 $295 $296 $124 $199 forward $297 $-1 #
edge $-1 $298 0 $202 6 $124 $299 forward 7 unknown #
coedge $-1 $125 $300 $295 $301 reversed $201 $-1 #
loop $-1 $-1 $183 $270 #
vertex $-1 $126 $302 #
straight-curve $-1 -27.5 30 30 10 0 0 I I #
coedge $-1 $283 $127 $303 $304 forward $70 $-1 #
vertex $-1 $128 $305 #
straight-curve $-1 -10 113.0741759643272815 29.99999999999992895 10 0 4.736951571734000818e-14 I I #
point $-1 -10 113.0741759643272815 30 #
point $-1 -10 30 30 #
coedge $-1 $242 $241 $132 $210 forward $243 $-1 #
edge $-1 $306 3.552713678800511973e-16 $214 1.570796326794899889 $132 $307 forward 7 unknown #
coedge $-1 $239 $133 $136 $217 reversed $213 $-1 #
coedge $-1 $133 $239 $242 $308 forward $213 $-1 #
loop $-1 $309 $212 $310 #
vertex $-1 $210 $311 #
straight-curve $-1 30 30 27.5 0 0 -10 I I #
coedge $-1 $136 $135 $238 $312 reversed $137 $-1 #
edge $-1 $313 0 $138 6 $211 $314 forward 7 unknown #
face $-1 $310 $137 $2 $-1 $315 forward single #
point $-1 30 30 27.5 #
coedge $-1 $316 $140 $317 $318 forward $142 $-1 #
coedge $-1 $231 $319 $140 $222 reversed $320 $-1 #
edge $-1 $143 3.552713678800501127e-16 $321 2.00000000000000222 $140 $322 forward 7 unknown #
coedge $-1 $141 $323 $280 $324 reversed $142 $-1 #
face $-1 $325 $142 $2 $-1 $326 forward single #
point $-1 5 30 15 #
straight-curve $-1 5 113.0741759643273951 30 0 -10 0 I I #
coedge $-1 $327 $238 $146 $228 reversed $5 $-1 #
edge $-1 $298 0 $229 5.5 $227 $328 forward 7 unknown #
vertex $-1 $228 $329 #
straight-curve $-1 27.5 -30 30 0 10 0 I I #
coedge $-1 $292 $221 $150 $232 reversed $320 $-1 #
edge $-1 $272 0 $143 1.5 $150 $330 forward 7 unknown #
coedge $-1 $161 $160 $152 $234 reversed $162 $-1 #
edge $-1 $306 0 $235 1 $152 $331 forward 7 unknown #
vertex $-1 $154 $332 #
ellipse-curve $-1 17.50000000000000355 30 -27.5 0 -1 0 -2.50000000000000222 0 0 1 I I #
point $-1 15 30 -27.5 #
coedge $-1 $227 $157 $216 $312 forward $5 $-1 #
coedge $-1 $212 $211 $157 $240 forward $213 $-1 #
edge $-1 $313 0 $244 5.5 $157 $333 forward 7 unknown #
coedge $-1 $209 $158 $161 $246 forward $243 $-1 #
coedge $-1 $158 $209 $212 $308 reversed $243 $-1 #
loop $-1 $-1 $209 $334 #
vertex $-1 $240 $335 #
ellipse-curve $-1 27.50000000000000355 -30 -27.50000000000000355 0 -1 0 -4.440892098500626162e-15 0 -2.499999999999995559 1 I I #
edge $-1 $163 0 $306 6 $161 $336 forward 7 unknown #
face $-1 $166 $162 $2 $-1 $337 forward single #
point $-1 27.5 -30 -30 #
straight-curve $-1 17.5 -30 -30 0 10 0 I I #
cone-surface $-1 17.5 -30 -27.5 0 -1 0 -2.5 0 0 1 I I 0 1 2.5 forward I I I I #
face $-1 $338 $339 $2 $-1 $340 forward single #
loop $-1 $-1 $341 $169 #
cone-surface $-1 30 0 0 1 0 0 0 0 -20 1 I I 0 1 20 forward I I I I #
coedge $-1 $171 $342 $343 $344 forward $5 $-1 #
coedge $-1 $345 $346 $171 $256 forward $347 $-1 #
edge $-1 $260 0 $348 1 $171 $349 forward 7 unknown #
coedge $-1 $350 $172 $346 $351 forward $259 $-1 #
coedge $-1 $172 $350 $174 $263 reversed $259 $-1 #
loop $-1 $-1 $350 $352 #
vertex $-1 $173 $353 #
ellipse-curve $-1 -17.49999999999999645 -30 -27.50000000000000355 0 -1 0 -2.220446049250313081e-15 0 -2.499999999999995559 1 I I #
coedge $-1 $175 $174 $354 $355 reversed $176 $-1 #
edge $-1 $177 0 $356 6 $174 $357 forward 7 unknown #
face $-1 $352 $176 $2 $-1 $358 forward single #
point $-1 -15 -30 -27.5 #
coedge $-1 $354 $183 $179 $267 reversed $201 $-1 #
edge $-1 $268 0 $185 1.570796326794896558 $266 $359 forward 7 unknown #
vertex $-1 $355 $360 #
straight-curve $-1 -15 -30 12.5 0 10 0 I I #
face $-1 $264 $201 $2 $-1 $361 forward single #
cone-surface $-1 -12.5 -30 12.5 0 1 0 -2.5 0 0 1 I I 0 1 2.5 forward I I I I #
vertex $-1 $197 $362 #
straight-curve $-1 -10 30 15 -10 0 0 I I #
point $-1 -12.5 30 15 #
face $-1 $224 $363 $2 $-1 $364 reversed single #
loop $-1 $-1 $365 $188 #
plane-surface $-1 -10 157.5 -9.689110867544670214 0 0.8660254037844385966 -0.500000000000000111 0 5 8.660254037844383745 forward_v I I I I #
coedge $-1 $366 $367 $368 $369 forward $189 $-1 #
coedge $-1 $303 $191 $370 $371 reversed $119 $-1 #
coedge $-1 $191 $303 $223 $324 forward $119 $-1 #
coedge $-1 $367 $366 $191 $282 reversed $189 $-1 #
edge $-1 $372 0 $373 1 $191 $374 forward 7 unknown #
coedge $-1 $192 $204 $375 $376 reversed $70 $-1 #
coedge $-1 $377 $289 $192 $285 reversed $276 $-1 #
edge $-1 $378 3.552713678800501127e-16 $286 2.500000000000000444 $284 $379 forward 7 unknown #
vertex $-1 $290 $380 #
ellipse-curve $-1 -10 140 -40 1 0 0 0 37.50000000000007105 64.95190528383287187 1 I I #
coedge $-1 $381 $194 $382 $383 reversed $37 $-1 #
coedge $-1 $284 $365 $194 $290 forward $276 $-1 #
edge $-1 $384 8.057374118774594969e-16 $286 3.999999999999998668 $194 $385 forward 7 unknown #
coedge $-1 $195 $386 $387 $388 reversed $37 $-1 #
coedge $-1 $319 $231 $195 $293 forward $320 $-1 #
edge $-1 $272 3.552713678800501127e-16 $389 2.00000000000000222 $195 $390 forward 7 unknown #
straight-curve $-1 -10 30 30 0 2.368475785866998516e-14 -10 I I #
coedge $-1 $391 $198 $200 $301 forward $297 $-1 #
coedge $-1 $198 $391 $327 $392 reversed $297 $-1 #
loop $-1 $-1 $295 $393 #
vertex $-1 $392 $394 #
straight-curve $-1 -27.5 -30 30 0 10 0 I I #
coedge $-1 $200 $395 $396 $397 forward $201 $-1 #
edge $-1 $202 3.552713678800511973e-16 $398 1.570796326794899889 $200 $399 forward 7 unknown #
point $-1 -27.5 30 30 #
coedge $-1 $280 $279 $204 $304 reversed $119 $-1 #
edge $-1 $205 0 $400 1 $204 $401 forward 7 unknown #
point $-1 5 113.0741759643272815 30 #
vertex $-1 $234 $402 #
ellipse-curve $-1 27.50000000000000355 30 -27.50000000000000355 0 -1 0 -4.440892098500626162e-15 0 -2.499999999999995559 1 I I #
edge $-1 $244 0 $214 6 $212 $403 forward 7 unknown #
loop $-1 $-1 $404 $310 #
face $-1 $334 $213 $2 $-1 $405 forward single #
point $-1 30 30 -27.5 #
edge $-1 $313 3.552713678800511973e-16 $229 1.570796326794899889 $238 $406 forward 7 unknown #
vertex $-1 $312 $407 #
straight-curve $-1 30 -30 27.5 0 10 0 I I #
cone-surface $-1 27.5 -30 27.5 0 -1 0 2.5 0 0 1 I I 0 1 2.5 forward I I I I #
coedge $-1 $408 $220 $409 $410 reversed $142 $-1 #
coedge $-1 $411 $412 $220 $318 reversed $413 $-1 #
edge $-1 $321 0 $414 4.366750417638082915 $220 $415 forward 7 unknown #
coedge $-1 $221 $292 $411 $416 forward $320 $-1 #
loop $-1 $-1 $292 $325 #
vertex $-1 $318 $417 #
straight-curve $-1 5 30 15.00000000000000355 0 0 -10 I I #
coedge $-1 $223 $418 $367 $419 forward $142 $-1 #
edge $-1 $205 -1.136868377216160361e-14 $372 2.692582403567271854 $223 $420 forward 7 unknown #
face $-1 $421 $320 $2 $-1 $422 forward single #
plane-surface $-1 5 140 -40 1 0 0 0 1.736481776669304145 9.848077530122081313 forward_v I I I I #
coedge $-1 $342 $227 $296 $392 forward $5 $-1 #
straight-curve $-1 -27.5 -30 30 10 0 0 I I #
point $-1 27.5 -30 30 #
straight-curve $-1 -10 30 15 10 0 0 I I #
straight-curve $-1 27.5 30 -30 -10 0 0 I I #
point $-1 17.5 30 -30 #
straight-curve $-1 30 -30 27.5 0 0 -10 I I #
face $-1 $247 $243 $2 $-1 $423 forward single #
point $-1 30 -30 -27.5 #
straight-curve $-1 27.5 -30 -30 0 10 0 I I #
plane-surface $-1 30 -30 -30 0 0 -1 -10 0 0 forward_v I I I I #
face $-1 $424 $425 $2 $-1 $426 reversed single #
loop $-1 $-1 $427 $251 #
cone-surface $-1 30 0 0 1 0 0 0 0 -20 1 I I 0 1 20 forward I I I I #
coedge $-1 $428 $429 $430 $431 reversed $252 $-1 #
coedge $-1 $254 $327 $432 $433 reversed $5 $-1 #
coedge $-1 $434 $435 $254 $344 reversed $436 $-1 #
edge $-1 $437 3.552713678800511973e-16 $348 1.570796326794899889 $254 $438 forward 7 unknown #
coedge $-1 $439 $255 $435 $440 forward $347 $-1 #
coedge $-1 $255 $439 $257 $351 reversed $347 $-1 #
loop $-1 $-1 $345 $441 #
vertex $-1 $256 $442 #
straight-curve $-1 -17.5 -30 -30 -10 0 0 I I #
coedge $-1 $258 $257 $443 $444 forward $259 $-1 #
edge $-1 $260 0 $445 6 $346 $446 forward 7 unknown #
face $-1 $441 $259 $2 $-1 $447 forward single #
point $-1 -17.5 -30 -30 #
coedge $-1 $443 $266 $262 $355 forward $201 $-1 #
edge $-1 $268 0 $356 4 $354 $448 forward 7 unknown #
vertex $-1 $444 $449 #
straight-curve $-1 -15 -30 -27.5 0 10 0 I I #
plane-surface $-1 -15 -30 15 1 0 0 0 0 -10 forward_v I I I I #
ellipse-curve $-1 -12.5 30 12.5 0 1 0 -2.5 0 0 1 I I #
point $-1 -15 30 12.5 #
plane-surface $-1 0 30 0 0 1 0 10 0 0 forward_v I I I I #
point $-1 -10 30 15 #
loop $-1 $-1 $450 $275 #
cone-surface $-1 -10 140 -40 1 0 0 0 6.077686218342563507 34.46827135542728371 1 I I 0 1 35.00000000000000711 forward I I I I #
coedge $-1 $289 $451 $450 $452 reversed $276 $-1 #
coedge $-1 $281 $278 $453 $454 reversed $189 $-1 #
coedge $-1 $278 $281 $323 $419 reversed $189 $-1 #
coedge $-1 $451 $377 $278 $369 reversed $276 $-1 #
edge $-1 $455 -6.310887241768092341e-30 $456 1 $368 $457 forward 7 unknown #
coedge $-1 $453 $375 $279 $371 forward $458 $-1 #
edge $-1 $400 0 $373 2.692582403567253202 $370 $459 forward 7 unknown #
vertex $-1 $324 $460 #
vertex $-1 $454 $461 #
straight-curve $-1 5 140 30 10 0 0 I I #
coedge $-1 $370 $462 $283 $376 forward $458 $-1 #
edge $-1 $378 4.042198674546351862e-16 $400 0.8908067961561373371 $283 $463 forward 7 unknown #
coedge $-1 $368 $284 $462 $464 reversed $276 $-1 #
vertex $-1 $464 $465 #
straight-curve $-1 15.00000000000000355 177.5 24.95190528383286477 -10 2.842170943040400112e-14 3.55271367880050014e-15 I I #
point $-1 -10 177.5 24.95190528383286477 #
coedge $-1 $386 $288 $466 $467 reversed $37 $-1 #
coedge $-1 $450 $468 $288 $383 forward $363 $-1 #
edge $-1 $469 2.78416745440692402e-16 $384 4.188790204786391413 $288 $470 forward 7 unknown #
vertex $-1 $383 $471 #
straight-curve $-1 -10 157.5 -9.689110867544661332 0 4.999999999999999112 8.660254037844387298 I I #
coedge $-1 $291 $381 $472 $473 reversed $37 $-1 #
coedge $-1 $412 $411 $291 $388 forward $413 $-1 #
edge $-1 $389 0 $474 4.366750419289198604 $291 $475 forward 7 unknown #
vertex $-1 $293 $476 #
straight-curve $-1 -10 30 15.00000000000000355 0 0 -10 I I #
coedge $-1 $296 $295 $477 $478 reversed $297 $-1 #
edge $-1 $298 3.552713678800511973e-16 $479 1.570796326794899889 $327 $480 forward 7 unknown #
face $-1 $481 $297 $2 $-1 $482 forward single #
point $-1 -27.5 -30 30 #
coedge $-1 $300 $483 $484 $485 reversed $201 $-1 #
coedge $-1 $486 $477 $300 $397 reversed $487 $-1 #
edge $-1 $488 0 $398 5.5 $300 $489 forward 7 unknown #
vertex $-1 $301 $490 #
ellipse-curve $-1 -27.50000000000000355 30 27.50000000000000355 0 -1 0 4.440892098500626162e-15 0 2.499999999999995559 1 I I #
vertex $-1 $376 $491 #
straight-curve $-1 5 113.074175964327452 30 10 0 0 I I #
point $-1 27.5 30 -30 #
straight-curve $-1 30 -30 -27.5 0 10 0 I I #
coedge $-1 $492 $492 $428 $493 reversed $309 $-1 #
plane-surface $-1 30 -30 30 1 0 0 0 0 -10 forward_v I I I I #
ellipse-curve $-1 27.50000000000000355 -30 27.50000000000000355 0 -1 0 2.499999999999995559 0 -4.440892098500626162e-15 1 I I #
point $-1 30 -30 27.5 #
coedge $-1 $494 $316 $495 $496 reversed $142 $-1 #
coedge $-1 $497 $498 $316 $410 forward $499 $-1 #
edge $-1 $500 8.084397308902365104e-17 $414 0.5616794276258570973 $316 $501 forward 7 unknown #
coedge $-1 $387 $317 $319 $416 reversed $413 $-1 #
coedge $-1 $317 $387 $497 $502 forward $413 $-1 #
loop $-1 $-1 $411 $421 #
vertex $-1 $410 $503 #
straight-curve $-1 5 29.99999999999998224 -5.000000000000017764 0 10 0 I I #
edge $-1 $389 0 $321 1.5 $319 $504 forward 7 unknown #
point $-1 5 29.99999999999998224 -5.00000000000001954 #
coedge $-1 $323 $505 $451 $506 forward $142 $-1 #
edge $-1 $455 1.856111636271281201e-16 $372 0.5235987755982981495 $323 $507 forward 7 unknown #
straight-curve $-1 5 113.0741759643273951 30 0 10 0 I I #
face $-1 $508 $413 $2 $-1 $509 forward single #
plane-surface $-1 -10 30 30 0 -1 0 0 0 -10 forward_v I I I I #
cone-surface $-1 27.5 -30 -27.5 0 -1 0 0 0 -2.5 1 I I 0 1 2.5 forward I I I I #
face $-1 $510 $511 $2 $-1 $512 forward single #
loop $-1 $-1 $513 $338 #
torus-surface $-1 60 0 0 -1 0 0 25 10 0 1 0 forward_v I I I I #
coedge $-1 $514 $515 $516 $517 reversed $339 $-1 #
coedge $-1 $518 $341 $404 $493 forward $252 $-1 #
coedge $-1 $341 $519 $520 $521 reversed $252 $-1 #
coedge $-1 $515 $522 $341 $431 forward $339 $-1 #
edge $-1 $523 0 $524 2.133974596215561625 $430 $525 forward 7 unknown #
coedge $-1 $477 $486 $342 $433 forward $487 $-1 #
edge $-1 $437 0 $479 5.5 $342 $526 forward 7 unknown #
coedge $-1 $484 $343 $486 $527 forward $436 $-1 #
coedge $-1 $343 $484 $345 $440 reversed $436 $-1 #
loop $-1 $-1 $484 $528 #
vertex $-1 $344 $529 #
ellipse-curve $-1 -27.50000000000000355 -30 -27.50000000000000355 0 -1 0 -2.499999999999995559 0 4.440892098500626162e-15 1 I I #
coedge $-1 $346 $345 $483 $530 reversed $347 $-1 #
edge $-1 $348 0 $531 6 $345 $532 forward 7 unknown #
face $-1 $528 $347 $2 $-1 $533 forward single #
point $-1 -27.5 -30 -30 #
coedge $-1 $483 $354 $350 $444 reversed $201 $-1 #
edge $-1 $445 -5.329070518200755141e-16 $356 1.570796326794899 $443 $534 forward 7 unknown #
vertex $-1 $530 $535 #
straight-curve $-1 -17.5 -30 -30 0 10 0 I I #
cone-surface $-1 -17.5 -30 -27.5 0 -1 0 0 0 -2.5 1 I I 0 1 2.5 forward I I I I #
straight-curve $-1 -15 30 12.5 0 0 -10 I I #
point $-1 -15 30 -27.5 #
coedge $-1 $536 $382 $365 $452 forward $363 $-1 #
coedge $-1 $365 $368 $418 $506 reversed $276 $-1 #
edge $-1 $384 5.916456789157588541e-31 $537 1.5 $365 $538 forward 7 unknown #
coedge $-1 $462 $370 $366 $454 forward $458 $-1 #
edge $-1 $373 -2.030122102171737187e-16 $456 0.5235987755983051439 $453 $539 forward 7 unknown #
vertex $-1 $419 $540 #
vertex $-1 $369 $541 #
straight-curve $-1 5 175.0000000000000284 20.62177826491070221 10 -3.552713678800499667e-14 -3.552713678800499667e-14 I I #
loop $-1 $-1 $370 $542 #
straight-curve $-1 15 113.0741759643274378 30 0 10 0 I I #
point $-1 5 140.0000000000001137 30 #
point $-1 15 139.9999999999999716 29.99999999999999645 #
coedge $-1 $375 $453 $377 $464 forward $458 $-1 #
ellipse-curve $-1 15 140 -39.99999999999997158 1 0 0 0 37.50000000000003553 64.95190528383284345 1 I I #
edge $-1 $456 1.903893522347168422e-16 $378 0.4999999999999979461 $377 $543 forward 7 unknown #
point $-1 15 177.5 24.95190528383286477 #
coedge $-1 $544 $545 $381 $467 forward $546 $-1 #
edge $-1 $547 0 $469 4.000000000000001776 $381 $548 forward 7 unknown #
coedge $-1 $382 $536 $544 $549 reversed $363 $-1 #
vertex $-1 $467 $550 #
ellipse-curve $-1 -10 140 -40 -1 0 0 0 17.49999999999998224 -30.31088913245535821 1 I I #
point $-1 -10 157.5000000000000284 -9.689110867544668437 #
coedge $-1 $551 $497 $386 $473 forward $499 $-1 #
edge $-1 $474 8.08439734909269337e-17 $547 2.579913224688786144 $386 $552 forward 7 unknown #
vertex $-1 $388 $553 #
straight-curve $-1 -10 29.99999999999998224 -5.000000000000017764 0 10 0 I I #
point $-1 -10 29.99999999999998224 -5.00000000000001954 #
coedge $-1 $396 $432 $391 $478 forward $487 $-1 #
edge $-1 $479 0 $398 6 $477 $554 forward 7 unknown #
vertex $-1 $433 $555 #
ellipse-curve $-1 -27.50000000000000355 -30 27.50000000000000355 0 -1 0 4.440892098500626162e-15 0 2.499999999999995559 1 I I #
face $-1 $556 $557 $2 $-1 $558 forward single #
cone-surface $-1 -27.5 -30 27.5 0 -1 0 0 0 2.5 1 I I 0 1 2.5 forward I I I I #
coedge $-1 $395 $443 $439 $530 forward $201 $-1 #
coedge $-1 $435 $434 $395 $485 forward $436 $-1 #
edge $-1 $488 3.552713678800511973e-16 $531 1.570796326794899889 $395 $559 forward 7 unknown #
coedge $-1 $432 $396 $434 $527 reversed $487 $-1 #
loop $-1 $560 $477 $561 #
vertex $-1 $397 $562 #
straight-curve $-1 -30 30 -27.5 0 0 10 I I #
point $-1 -30 30 27.5 #
point $-1 15 113.0741759643274378 29.99999999999999645 #
coedge $-1 $404 $404 $522 $563 reversed $309 $-1 #
edge $-1 $523 0 $564 3.141592653589793116 $404 $565 forward 7 unknown #
coedge $-1 $566 $408 $567 $568 forward $142 $-1 #
coedge $-1 $569 $570 $408 $496 forward $571 $-1 #
edge $-1 $572 -1.325890795402838517e-15 $500 0.4999999999999985012 $408 $573 forward 7 unknown #
coedge $-1 $472 $409 $412 $502 reversed $499 $-1 #
coedge $-1 $409 $574 $569 $575 reversed $499 $-1 #
loop $-1 $-1 $472 $508 #
vertex $-1 $496 $576 #
ellipse-curve $-1 5 140.0000001160402974 -40.00000014826966321 1 0 0 0 -37.50000011604026184 64.95190543210257772 1 I I #
edge $-1 $474 0 $414 1.5 $412 $577 forward 7 unknown #
point $-1 5 73.66750417638081672 -5.000000000000037303 #
straight-curve $-1 -10 30 -5.000000000000017764 10 0 0 I I #
coedge $-1 $418 $566 $536 $578 forward $142 $-1 #
edge $-1 $537 8.057374118774613704e-16 $455 3.500000000000002665 $418 $579 forward 7 unknown #
ellipse-curve $-1 5 140 -40 1 0 0 0 35.00000000000007105 60.6217782649106951 1 I I #
face $-1 $580 $499 $2 $-1 $581 forward single #
plane-surface $-1 -10 30 -5.000000000000017764 0 0 -1 0 10 0 forward_v I I I I #
face $-1 $582 $583 $2 $-1 $584 forward single #
loop $-1 $-1 $585 $424 #
cone-surface $-1 30 0 0 1 0 0 0 0 -20 1 I I 0 1 20 forward I I I I #
coedge $-1 $586 $587 $588 $589 reversed $425 $-1 #
coedge $-1 $522 $427 $518 $590 reversed $339 $-1 #
coedge $-1 $427 $430 $591 $592 reversed $339 $-1 #
coedge $-1 $593 $594 $427 $517 forward $425 $-1 #
edge $-1 $595 -6.123031769111886291e-17 $596 1.570796326794897002 $427 $597 forward 7 unknown #
coedge $-1 $519 $428 $514 $590 forward $252 $-1 #
coedge $-1 $429 $518 $594 $598 reversed $252 $-1 #
coedge $-1 $599 $591 $429 $521 forward $600 $-1 #
edge $-1 $524 0 $601 1.570796326794896336 $429 $602 forward 7 unknown #
coedge $-1 $430 $514 $492 $563 forward $339 $-1 #
vertex $-1 $563 $603 #
vertex $-1 $592 $604 #
straight-curve $-1 30 0 -20 10 0 0 I I #
straight-curve $-1 -30 -30 -27.5 0 0 10 I I #
edge $-1 $437 0 $488 6 $486 $605 forward 7 unknown #
face $-1 $561 $436 $2 $-1 $606 forward single #
point $-1 -30 -30 -27.5 #
edge $-1 $445 0 $531 1 $483 $607 forward 7 unknown #
vertex $-1 $485 $608 #
straight-curve $-1 -27.5 -30 -30 0 10 0 I I #
plane-surface $-1 -15 -30 -30 0 0 -1 -10 0 0 forward_v I I I I #
ellipse-curve $-1 -17.49999999999999645 30 -27.50000000000000355 0 -1 0 -2.220446049250313081e-15 0 -2.499999999999995559 1 I I #
point $-1 -17.5 30 -30 #
coedge $-1 $468 $450 $505 $578 reversed $363 $-1 #
vertex $-1 $506 $609 #
straight-curve $-1 -10 157.5000000000000284 -9.689110867544659556 10 -1.184237892933500205e-14 -6.661338147750939243e-15 I I #
ellipse-curve $-1 15 140.000000000000199 -39.99999999999927525 -1 0 0 0 -2.131628207280300558e-13 69.99999999999927525 1 I I #
point $-1 5 175.0000000000000568 20.62177826491069155 #
point $-1 15 175.0000000000000284 20.62177826491068089 #
face $-1 $218 $458 $2 $-1 $610 forward single #
straight-curve $-1 15.00000000000000355 175 20.6217782649106951 0 4.999999999999992895 8.660254037844390851 I I #
coedge $-1 $611 $466 $468 $549 forward $546 $-1 #
coedge $-1 $466 $612 $551 $613 reversed $546 $-1 #
loop $-1 $-1 $466 $580 #
vertex $-1 $473 $614 #
straight-curve $-1 -10 177.5 -104.9519052838329003 0 -4.999999999999999112 8.660254037844385522 I I #
edge $-1 $469 0 $615 1.5 $544 $616 forward 7 unknown #
point $-1 -10 157.4999999999999716 -70.31088913245535821 #
coedge $-1 $574 $472 $545 $613 forward $499 $-1 #
ellipse-curve $-1 -10 140 -40 1 0 0 0 -66.33249580710803173 34.99999999999996447 1 I I #
point $-1 -10 73.66750419289196827 -5.000000000000042633 #
straight-curve $-1 -30 -30 27.5 0 10 0 I I #
point $-1 -30 -30 27.5 #
face $-1 $617 $618 $2 $-1 $619 forward single #
loop $-1 $-1 $620 $481 #
cone-surface $-1 -30 0 0 -1 0 0 0 0 20 1 I I 0 1 20 forward I I I I #
ellipse-curve $-1 -27.50000000000000355 30 -27.50000000000000355 0 -1 0 -2.499999999999995559 0 4.440892098500626162e-15 1 I I #
loop $-1 $-1 $621 $561 #
face $-1 $393 $487 $2 $-1 $622 forward single #
point $-1 -30 30 -27.5 #
edge $-1 $564 0 $523 3.141592653589793116 $492 $623 forward 7 unknown #
vertex $-1 $563 $624 #
ellipse-curve $-1 30 0 0 1 0 0 0 0 -20 1 I I #
coedge $-1 $505 $494 $611 $625 forward $142 $-1 #
coedge $-1 $626 $627 $494 $568 reversed $628 $-1 #
edge $-1 $572 9.280558181356410935e-17 $629 3.14159265358979356 $494 $630 forward 7 unknown #
coedge $-1 $631 $495 $498 $575 forward $571 $-1 #
coedge $-1 $495 $631 $626 $632 reversed $571 $-1 #
loop $-1 $-1 $569 $633 #
vertex $-1 $568 $634 #
straight-curve $-1 5 105.0000000000000142 20.62177826491073063 0 -4.999999999999978684 8.660254037844399733 I I #
coedge $-1 $498 $551 $635 $636 reversed $499 $-1 #
edge $-1 $500 0 $637 1 $498 $638 forward 7 unknown #
point $-1 5 102.5000000000000284 24.95190528383291451 #
straight-curve $-1 -10 73.66750419289196827 -5.000000000000017764 10 0 0 I I #
edge $-1 $615 6.496390726949493325e-16 $537 4.188790204786391413 $505 $639 forward 7 unknown #
straight-curve $-1 5 157.5 -9.689110867544661332 0 5.000000000000004441 8.660254037844383745 I I #
face $-1 $640 $546 $2 $-1 $641 forward single #
cone-surface $-1 -10 140 -40 1 0 0 0 13.02361332501978097 73.86058147591560896 1 I I 0 1 75.00000000000001421 forward I I I I #
face $-1 $642 $643 $2 $-1 $644 reversed single #
loop $-1 $-1 $645 $510 #
cone-surface $-1 30 0 0 1 0 0 0 0 -20 1 I I 0 1 20 forward I I I I #
coedge $-1 $646 $647 $648 $649 reversed $511 $-1 #
coedge $-1 $594 $513 $599 $650 reversed $425 $-1 #
coedge $-1 $513 $593 $651 $652 reversed $425 $-1 #
coedge $-1 $653 $646 $513 $589 forward $511 $-1 #
edge $-1 $654 0 $655 1.570796326794896558 $588 $656 forward 7 unknown #
edge $-1 $564 0 $595 2.133974596215560293 $514 $657 forward 7 unknown #
coedge $-1 $520 $658 $515 $592 forward $600 $-1 #
edge $-1 $596 0 $524 1.57079632679489678 $515 $659 forward 7 unknown #
coedge $-1 $587 $516 $658 $660 forward $425 $-1 #
coedge $-1 $516 $586 $519 $598 forward $425 $-1 #
vertex $-1 $590 $661 #
vertex $-1 $592 $662 #
ellipse-curve $-1 51.33974596215561803 0 0 1 0 0 0 1.224606353822377258e-15 20 1 I I #
edge $-1 $601 0 $595 1.570796326794896558 $519 $663 forward 7 unknown #
coedge $-1 $664 $520 $586 $650 forward $600 $-1 #
loop $-1 $-1 $658 $665 #
vertex $-1 $521 $666 #
ellipse-curve $-1 51.33974596215561803 0 0 1 0 0 0 5.665498452323004209e-15 -20 1 I I #
point $-1 30 0 -20 #
point $-1 51.33974596215561803 5.665498452323004209e-15 -20 #
straight-curve $-1 -30 -30 -27.5 0 10 0 I I #
cone-surface $-1 -27.5 -30 -27.5 0 -1 0 -2.5 0 0 1 I I 0 1 2.5 forward I I I I #
straight-curve $-1 -17.5 30 -30 -10 0 0 I I #
point $-1 -27.5 30 -30 #
point $-1 5 157.5000000000000284 -9.689110867544668437 #
plane-surface $-1 15 140 -40 1 0 0 0 -1.736481776669304145 -9.848077530122081313 forward_v I I I I #
coedge $-1 $667 $544 $566 $625 reversed $546 $-1 #
coedge $-1 $545 $667 $668 $669 reversed $546 $-1 #
edge $-1 $547 5.048709793414475835e-30 $670 2.5 $551 $671 forward 7 unknown #
point $-1 -10 177.5 -104.9519052838329003 #
vertex $-1 $578 $672 #
straight-curve $-1 -10 157.5 -70.310889132455344 10 0 0 I I #
face $-1 $673 $674 $2 $-1 $675 forward single #
loop $-1 $-1 $676 $556 #
cone-surface $-1 -30 0 0 -1 0 0 0 0 20 1 I I 0 1 20 forward I I I I #
coedge $-1 $677 $678 $679 $680 forward $557 $-1 #
coedge $-1 $681 $681 $678 $682 reversed $560 $-1 #
plane-surface $-1 -30 -30 -30 -1 0 0 0 0 10 forward_v I I I I #
ellipse-curve $-1 30 0 0 1 0 0 0 0 20 1 I I #
point $-1 30 0 20 #
edge $-1 $629 0 $615 3.499999999999999556 $566 $683 forward 7 unknown #
coedge $-1 $684 $567 $570 $632 forward $628 $-1 #
coedge $-1 $567 $684 $667 $685 reversed $628 $-1 #
loop $-1 $-1 $626 $640 #
vertex $-1 $625 $686 #
ellipse-curve $-1 5 140 -40 1 0 0 0 -34.99999999999996447 60.62177826491072352 1 I I #
coedge $-1 $570 $569 $687 $688 reversed $571 $-1 #
edge $-1 $572 -3.786532345060856526e-30 $689 1 $626 $690 forward 7 unknown #
face $-1 $691 $571 $2 $-1 $692 forward single #
point $-1 5 105.0000000000000284 20.62177826491072352 #
coedge $-1 $668 $687 $574 $636 forward $693 $-1 #
edge $-1 $637 8.084397349092694603e-17 $670 3.14159265358979356 $574 $694 forward 7 unknown #
vertex $-1 $575 $695 #
straight-curve $-1 5 102.5000000000000142 24.95190528383291806 10 0 0 I I #
ellipse-curve $-1 5 140 -40.00000000000001421 -1 0 0 0 17.49999999999998224 -30.31088913245533689 1 I I #
face $-1 $633 $628 $2 $-1 $696 reversed single #
plane-surface $-1 -10 177.5 -104.9519052838329003 0 0.8660254037844388186 0.499999999999999889 0 -5 8.660254037844390851 forward_v I I I I #
face $-1 $697 $698 $2 $-1 $699 forward single #
loop $-1 $-1 $700 $582 #
torus-surface $-1 90 0 0 -1 0 0 25 10 0 1 0 forward_v I I I I #
coedge $-1 $701 $702 $703 $704 reversed $583 $-1 #
coedge $-1 $588 $585 $664 $705 forward $511 $-1 #
coedge $-1 $585 $706 $707 $708 reversed $511 $-1 #
coedge $-1 $702 $709 $585 $649 forward $583 $-1 #
edge $-1 $710 2.842170943040400901e-15 $711 1.267949192431123695 $648 $712 forward 7 unknown #
edge $-1 $601 2.842170943040401789e-16 $654 2.094395102393194819 $599 $713 forward 7 unknown #
coedge $-1 $709 $701 $587 $652 forward $583 $-1 #
edge $-1 $655 0 $714 1.570796326794897002 $651 $715 forward 7 unknown #
coedge $-1 $706 $588 $701 $716 forward $511 $-1 #
vertex $-1 $589 $717 #
vertex $-1 $652 $718 #
ellipse-curve $-1 68.66025403784439618 0 0 1 0 0 0 20.00000000000000355 0 1 I I #
straight-curve $-1 30 2.449212707644754516e-15 20 10 0 0 I I #
coedge $-1 $591 $719 $593 $660 reversed $600 $-1 #
ellipse-curve $-1 51.33974596215561803 0 0 1 0 0 0 -19.99999999999999645 -2.449212707644754516e-15 1 I I #
edge $-1 $596 4.263256414560605888e-16 $714 2.094395102393196151 $658 $720 forward 7 unknown #
point $-1 51.33974596215560382 2.449212707644754516e-15 20 #
point $-1 51.33974596215561803 -19.99999999999999645 -2.449212707644754516e-15 #
ellipse-curve $-1 51.33974596215561803 0 0 1 0 0 0 19.99999999999999645 0 1 I I #
coedge $-1 $719 $599 $646 $705 reversed $600 $-1 #
face $-1 $-1 $600 $2 $-1 $721 reversed single #
point $-1 51.33974596215561803 19.99999999999999645 0 #
coedge $-1 $612 $611 $627 $685 forward $546 $-1 #
coedge $-1 $722 $635 $612 $669 forward $693 $-1 #
edge $-1 $670 -6.343869948662125319e-15 $723 0.5000000000000007772 $612 $724 forward 7 unknown #
vertex $-1 $636 $725 #
straight-curve $-1 -10 177.5 -104.9519052838328861 10 1.421085471520200372e-14 -3.552713678800500929e-14 I I #
point $-1 5 157.4999999999999716 -70.31088913245537242 #
face $-1 $726 $727 $2 $-1 $728 forward single #
loop $-1 $-1 $729 $617 #
cone-surface $-1 -275 0 0 -1 0 0 0 0 10.00000000000000178 1 I I -0.7071067811865475727 0.7071067811865474617 10.00000000000000178 forward I I I I #
coedge $-1 $730 $731 $732 $733 forward $618 $-1 #
coedge $-1 $732 $620 $734 $735 reversed $557 $-1 #
coedge $-1 $620 $732 $621 $682 forward $557 $-1 #
coedge $-1 $731 $730 $620 $680 reversed $618 $-1 #
edge $-1 $736 0 $737 23.5 $679 $738 forward 7 unknown #
coedge $-1 $621 $621 $731 $739 reversed $560 $-1 #
edge $-1 $740 0 $736 3.141592653589793116 $621 $741 forward 7 unknown #
straight-curve $-1 5 175 -100.6217782649107164 0 -4.999999999999999112 8.660254037844389075 I I #
coedge $-1 $627 $626 $722 $742 reversed $628 $-1 #
edge $-1 $629 0 $723 1 $667 $743 forward 7 unknown #
point $-1 5 175 -100.6217782649107164 #
coedge $-1 $635 $722 $631 $688 forward $693 $-1 #
edge $-1 $689 -2.86426094450969095e-15 $637 0.4999999999999961142 $687 $744 forward 7 unknown #
vertex $-1 $688 $745 #
straight-curve $-1 5 105.0000000000000284 20.62177826491073063 10 -3.552713678800500929e-14 5.329070518200751394e-14 I I #
face $-1 $116 $693 $2 $-1 $746 forward single #
plane-surface $-1 -10 177.5 -104.9519052838329003 0 0.8660254037844388186 0.499999999999999889 0 -5 8.660254037844390851 forward_v I I I I #
loop $-1 $-1 $668 $691 #
ellipse-curve $-1 15 140 -40.00000000000001421 1 0 0 0 -37.49999999999996447 64.95190528383292872 1 I I #
point $-1 15 102.5000000000000284 24.95190528383291451 #
cone-surface $-1 5 140 -40 1 0 0 0 -12.15537243668512701 -68.93654271085456742 1 I I 0 1 70.00000000000001421 forward I I I I #
face $-1 $747 $748 $2 $-1 $749 forward single #
loop $-1 $-1 $750 $642 #
cone-surface $-1 30 0 0 1 0 0 0 0 -20 1 I I 0 1 20 forward I I I I #
coedge $-1 $751 $752 $750 $753 reversed $643 $-1 #
coedge $-1 $651 $645 $653 $716 reversed $583 $-1 #
coedge $-1 $645 $648 $754 $755 reversed $583 $-1 #
coedge $-1 $756 $757 $645 $704 forward $643 $-1 #
edge $-1 $758 -6.123031769111885058e-17 $759 1.570796326794897002 $645 $760 forward 7 unknown #
edge $-1 $710 0 $654 1.570796326794896558 $646 $761 forward 7 unknown #
coedge $-1 $647 $653 $757 $762 reversed $511 $-1 #
coedge $-1 $763 $754 $647 $708 forward $764 $-1 #
edge $-1 $711 0 $765 1.57079632679489678 $647 $766 forward 7 unknown #
coedge $-1 $648 $651 $719 $767 forward $583 $-1 #
vertex $-1 $649 $768 #
vertex $-1 $755 $769 #
straight-curve $-1 68.66025403784436776 0 -20 10 0 0 I I #
ellipse-curve $-1 60 25 0 0 0 1 -8.660254037844383745 -5.000000000000001776 0 1 I I #
vertex $-1 $767 $770 #
ellipse-curve $-1 68.66025403784439618 0 0 1 0 0 0 1.224606353822377455e-15 20.00000000000000355 1 I I #
edge $-1 $655 -1.421085471520200451e-15 $758 1.267949192431117922 $701 $771 forward 7 unknown #
point $-1 68.66025403784438197 19.99999999999999645 0 #
point $-1 68.66025403784439618 1.224606353822377455e-15 20.00000000000000355 #
coedge $-1 $658 $664 $709 $767 reversed $600 $-1 #
ellipse-curve $-1 60 -24.99999999999999289 3.061515884555942357e-15 -5.546678239835245825e-32 -1.224606353822377998e-16 -1 -8.660254037844383745 4.999999999999992895 -6.12303176911187643e-16 1 I I #
torus-surface $-1 60 0 0 -1 0 0 25 10 0 1 0 forward_v I I I I #
coedge $-1 $687 $668 $684 $742 forward $693 $-1 #
vertex $-1 $669 $772 #
straight-curve $-1 15 177.5 -104.9519052838329145 0 -4.99999999999999023 8.660254037844392627 I I #
point $-1 15 177.5000000000000284 -104.9519052838329713 #
face $-1 $542 $773 $2 $-1 $774 forward single #
loop $-1 $-1 $775 $673 #
cone-surface $-1 -275 0 0 -1 0 0 0 0 10.00000000000000178 1 I I -0.7071067811865475727 0.7071067811865474617 10.00000000000000178 forward I I I I #
coedge $-1 $776 $777 $778 $779 forward $674 $-1 #
coedge $-1 $679 $676 $776 $780 reversed $618 $-1 #
coedge $-1 $676 $679 $681 $739 forward $618 $-1 #
coedge $-1 $678 $677 $676 $733 reversed $557 $-1 #
edge $-1 $740 0 $781 23.5 $676 $782 forward 7 unknown #
coedge $-1 $778 $775 $677 $735 forward $727 $-1 #
edge $-1 $781 0 $737 3.141592653589793116 $677 $783 forward 7 unknown #
vertex $-1 $739 $784 #
vertex $-1 $680 $785 #
straight-curve $-1 -30 0 20 -10 0 0 I I #
edge $-1 $736 0 $740 3.141592653589793116 $681 $786 forward 7 unknown #
vertex $-1 $739 $787 #
ellipse-curve $-1 -30 0 0 -1 0 0 0 0 -20 1 I I #
edge $-1 $723 -1.856111636271282187e-16 $689 3.141592653589792672 $722 $788 forward 7 unknown #
straight-curve $-1 5 175 -100.6217782649107164 10 0 0 I I #
straight-curve $-1 15 105 20.62177826491074839 0 -4.999999999999967137 8.660254037844406838 I I #
point $-1 15 105.0000000000000142 20.62177826491072352 #
plane-surface $-1 15 140 -40 1 0 0 0 -1.736481776669304145 -9.848077530122081313 forward_v I I I I #
face $-1 $789 $790 $2 $-1 $791 reversed single #
loop $-1 $-1 $792 $697 #
cone-surface $-1 30 0 0 1 0 0 0 0 -20 1 I I 0 1 20 forward I I I I #
coedge $-1 $793 $794 $700 $753 forward $698 $-1 #
coedge $-1 $757 $700 $763 $795 reversed $643 $-1 #
coedge $-1 $700 $756 $796 $797 reversed $643 $-1 #
edge $-1 $798 0 $799 1.570796326794896558 $750 $800 forward 7 unknown #
coedge $-1 $707 $801 $702 $755 forward $764 $-1 #
edge $-1 $759 0 $711 1.570796326794896336 $702 $802 forward 7 unknown #
coedge $-1 $752 $703 $801 $803 forward $643 $-1 #
coedge $-1 $703 $751 $706 $762 forward $643 $-1 #
vertex $-1 $716 $804 #
vertex $-1 $755 $805 #
ellipse-curve $-1 81.33974596215563224 0 0 1 5.43834468046345724e-32 8.881784197001250351e-16 -1.776356839400250465e-14 1.224606353822377653e-15 20.00000000000000355 1 I I #
ellipse-curve $-1 68.66025403784439618 0 0 1 0 0 0 1.224606353822377455e-15 -20.00000000000000355 1 I I #
edge $-1 $765 0 $758 1.570796326794896558 $706 $806 forward 7 unknown #
coedge $-1 $807 $707 $751 $795 forward $764 $-1 #
loop $-1 $-1 $801 $808 #
vertex $-1 $708 $809 #
ellipse-curve $-1 81.33974596215563224 0 0 1 -1.42831779500618379e-31 -8.881784197001254296e-16 -1.776356839400250465e-14 -3.216285744678248509e-15 -19.99999999999999645 1 I I #
edge $-1 $714 0 $710 1.570796326794896558 $709 $810 forward 7 unknown #
point $-1 68.66025403784439618 1.224606353822377455e-15 -20.00000000000000355 #
point $-1 81.33974596215560382 -3.216285744678248509e-15 -19.99999999999999645 #
point $-1 68.66025403784438197 -19.99999999999999645 -2.449212707644754122e-15 #
straight-curve $-1 68.66025403784441039 2.449212707644754516e-15 20 10 0 0 I I #
point $-1 15 174.9999999999999432 -100.6217782649107448 #
loop $-1 $-1 $811 $726 #
plane-surface $-1 -270 -30 -30 -1 0 0 0 0 10 forward_v I I I I #
coedge $-1 $734 $812 $813 $814 forward $727 $-1 #
coedge $-1 $813 $729 $730 $780 forward $674 $-1 #
coedge $-1 $729 $813 $815 $816 reversed $674 $-1 #
coedge $-1 $812 $734 $729 $779 reversed $727 $-1 #
edge $-1 $817 -1.195002072781106083e-29 $737 0.7071067811865472397 $729 $818 forward 7 unknown #
edge $-1 $737 3.944304526105058425e-33 $781 3.141592653589793116 $730 $819 forward 7 unknown #
vertex $-1 $780 $820 #
straight-curve $-1 -30 2.449212707644754516e-15 -20 -10 0 0 I I #
ellipse-curve $-1 -265 -1.665334536937734811e-15 -5.551115123125782702e-16 -1 0 0 0 4.114547244582490116e-15 -20.00000000000000355 1 I I #
point $-1 -30 0 20 #
point $-1 -265 0 20 #
ellipse-curve $-1 -30 0 0 -1 0 0 0 0 20 1 I I #
point $-1 -30 0 -20 #
ellipse-curve $-1 15 140 -40.00000000000000711 -1 0 0 0 34.99999999999992895 -60.62177826491073773 1 I I #
face $-1 $821 $822 $2 $-1 $823 reversed single #
loop $-1 $-1 $824 $747 #
torus-surface $-1 120 0 0 -1 0 0 25 10 0 1 0 forward_v I I I I #
coedge $-1 $825 $826 $827 $828 forward $748 $-1 #
coedge $-1 $829 $750 $830 $831 forward $698 $-1 #
coedge $-1 $750 $827 $807 $832 forward $698 $-1 #
edge $-1 $765 1.207922650792174544e-15 $798 2.094395102393193042 $763 $833 forward 7 unknown #
coedge $-1 $826 $830 $752 $797 forward $748 $-1 #
edge $-1 $799 0 $834 1.570796326794897002 $796 $835 forward 7 unknown #
vertex $-1 $832 $836 #
vertex $-1 $797 $837 #
ellipse-curve $-1 98.66025403784436776 0 0 1 0 0 0 19.99999999999999645 0 1 I I #
coedge $-1 $754 $838 $756 $803 reversed $764 $-1 #
ellipse-curve $-1 81.33974596215560382 0 0 1 0 0 0 -19.99999999999999645 -2.449212707644754516e-15 1 I I #
edge $-1 $759 -9.947598300641407493e-16 $834 2.094395102393194819 $801 $839 forward 7 unknown #
point $-1 81.33974596215558961 2.449212707644754516e-15 20 #
point $-1 81.33974596215560382 -19.99999999999999645 -2.449212707644754516e-15 #
ellipse-curve $-1 81.33974596215560382 0 0 1 0 0 0 19.99999999999999645 0 1 I I #
coedge $-1 $838 $763 $794 $832 reversed $764 $-1 #
face $-1 $665 $764 $2 $-1 $840 reversed single #
point $-1 81.33974596215563224 19.99999999999999645 0 #
ellipse-curve $-1 68.66025403784439618 0 0 1 -4.440892098500627148e-16 -5.438344680463458335e-32 -8.881784197001252323e-15 -19.99999999999999645 -2.449212707644754122e-15 1 I I #
coedge $-1 $815 $815 $812 $841 forward $773 $-1 #
coedge $-1 $775 $778 $811 $841 reversed $727 $-1 #
coedge $-1 $777 $776 $775 $814 reversed $674 $-1 #
edge $-1 $842 -5.768235602978248601e-32 $781 0.7071067811865472397 $813 $843 forward 7 unknown #
coedge $-1 $811 $811 $777 $816 forward $773 $-1 #
edge $-1 $817 0 $842 3.141592653589793116 $815 $844 forward 7 unknown #
vertex $-1 $816 $845 #
straight-curve $-1 -270 -3.031917165247089506e-14 15.00000000000000355 7.071067811865474617 -3.94140739225544811e-14 7.071067811865474617 I I #
ellipse-curve $-1 -265 -5.551115123125782702e-16 -1.11022302462515654e-15 -1 0 0 0 5.551115123125782702e-16 20.00000000000000355 1 I I #
point $-1 -265 2.449212707644754516e-15 -20 #
face $-1 $846 $847 $2 $-1 $848 forward single #
loop $-1 $-1 $849 $789 #
torus-surface $-1 120 0 0 -1 0 0 25 10 0 1 0 forward_v I I I I #
coedge $-1 $850 $851 $852 $853 reversed $790 $-1 #
coedge $-1 $854 $792 $850 $855 reversed $748 $-1 #
coedge $-1 $792 $796 $838 $856 forward $748 $-1 #
coedge $-1 $794 $857 $792 $828 reversed $698 $-1 #
edge $-1 $858 -1.421085471520200451e-15 $859 1.267949192431119254 $792 $860 forward 7 unknown #
coedge $-1 $857 $793 $861 $862 reversed $698 $-1 #
coedge $-1 $796 $854 $793 $831 reversed $748 $-1 #
edge $-1 $799 0 $863 1.267949192431123695 $830 $864 forward 7 unknown #
edge $-1 $858 0 $798 1.570796326794896558 $794 $865 forward 7 unknown #
ellipse-curve $-1 89.99999999999998579 25 0 0 0 1 -8.660254037844374864 -5.000000000000001776 0 1 I I #
vertex $-1 $856 $866 #
ellipse-curve $-1 98.66025403784436776 0 0 1 0 0 0 1.224606353822376469e-15 19.99999999999998579 1 I I #
point $-1 98.66025403784436776 19.99999999999998579 0 #
point $-1 98.66025403784436776 1.224606353822376469e-15 19.99999999999998579 #
coedge $-1 $801 $807 $826 $856 reversed $764 $-1 #
ellipse-curve $-1 90 -24.99999999999999289 3.061515884555941568e-15 1.232595164407833957e-32 -1.224606353822377258e-16 -1 -8.660254037844374864 4.999999999999995559 -6.123031769111881361e-16 1 I I #
torus-surface $-1 90 0 0 -1 0 0 25 10 0 1 0 forward_v I I I I #
edge $-1 $842 4.440892098500625669e-16 $817 3.141592653589793116 $811 $867 forward 7 unknown #
vertex $-1 $816 $868 #
straight-curve $-1 -270 1.836909530733566282e-15 -15.00000000000000355 7.071067811865474617 8.659274570719353935e-16 -7.071067811865474617 I I #
ellipse-curve $-1 -270 0 0 -1 0 0 0 0 15.00000000000000355 1 I I #
point $-1 -270 0 15.00000000000000355 #
face $-1 $869 $870 $2 $-1 $871 forward single #
loop $-1 $-1 $872 $821 #
cone-surface $-1 30 0 0 1 0 0 0 0 -20 1 I I 0 1 20 forward I I I I #
coedge $-1 $873 $874 $872 $875 reversed $822 $-1 #
coedge $-1 $876 $824 $825 $855 forward $790 $-1 #
coedge $-1 $824 $877 $878 $879 reversed $790 $-1 #
coedge $-1 $874 $880 $824 $853 forward $822 $-1 #
edge $-1 $881 -2.842170943040390449e-16 $882 2.094395102393193042 $824 $883 forward 7 unknown #
coedge $-1 $830 $825 $880 $884 reversed $748 $-1 #
edge $-1 $881 0 $859 1.570796326794896558 $825 $885 forward 7 unknown #
edge $-1 $834 0 $858 1.570796326794896558 $826 $886 forward 7 unknown #
coedge $-1 $827 $829 $876 $887 reversed $698 $-1 #
vertex $-1 $856 $888 #
vertex $-1 $855 $889 #
straight-curve $-1 98.66025403784441039 0 -20 10 0 0 I I #
coedge $-1 $880 $873 $829 $862 forward $822 $-1 #
edge $-1 $890 0 $863 1.570796326794896558 $829 $891 forward 7 unknown #
vertex $-1 $831 $892 #
straight-curve $-1 98.66025403784436776 2.449212707644754516e-15 20 10 0 0 I I #
ellipse-curve $-1 98.66025403784436776 0 0 1 -5.438344680463456145e-32 8.881784197001250351e-16 1.776356839400250465e-14 1.224606353822377455e-15 -20.00000000000000355 1 I I #
point $-1 98.66025403784436776 -19.99999999999999645 -2.449212707644754122e-15 #
ellipse-curve $-1 -270 0 0 -1 0 0 0 1.836909530733566282e-15 -15.00000000000000355 1 I I #
point $-1 -270 -4.824428617017374144e-15 -15.00000000000000355 #
face $-1 $808 $893 $2 $-1 $894 forward single #
loop $-1 $-1 $895 $846 #
cone-surface $-1 30 0 0 1 0 0 0 0 -20 1 I I 0 1 20 forward I I I I #
coedge $-1 $896 $897 $849 $875 forward $847 $-1 #
coedge $-1 $861 $849 $898 $899 reversed $822 $-1 #
coedge $-1 $849 $852 $900 $901 reversed $822 $-1 #
edge $-1 $902 0 $903 1.570796326794896558 $872 $904 forward 7 unknown #
coedge $-1 $898 $850 $857 $887 forward $790 $-1 #
coedge $-1 $851 $898 $897 $905 reversed $790 $-1 #
coedge $-1 $895 $900 $851 $879 forward $870 $-1 #
edge $-1 $882 0 $906 1.570796326794896558 $878 $907 forward 7 unknown #
coedge $-1 $852 $861 $854 $884 forward $822 $-1 #
vertex $-1 $884 $908 #
vertex $-1 $879 $909 #
ellipse-curve $-1 120 -25.00000000000002132 3.061515884555946301e-15 1.848892746611740398e-32 -1.224606353822377258e-16 -1 -8.660254037844392627 5.000000000000022204 -6.123031769111915873e-16 1 I I #
edge $-1 $863 -6.123031769111886291e-17 $881 1.570796326794897002 $854 $910 forward 7 unknown #
ellipse-curve $-1 111.3397459621556038 0 0 1 0 0 0 -20 -2.449212707644754516e-15 1 I I #
ellipse-curve $-1 98.66025403784436776 0 0 1 0 0 0 -19.99999999999999645 -2.449212707644754122e-15 1 I I #
edge $-1 $859 0 $890 1.570796326794896558 $857 $911 forward 7 unknown #
point $-1 98.66025403784439618 1.224606353822377455e-15 -20.00000000000000355 #
point $-1 111.3397459621556038 1.224606353822377258e-15 -20 #
vertex $-1 $887 $912 #
ellipse-curve $-1 111.3397459621556038 0 0 1 0 0 0 20 0 1 I I #
point $-1 111.3397459621556038 2.449212707644754516e-15 20 #
loop $-1 $-1 $913 $869 #
plane-surface $-1 145 -30 30 1 0 0 0 0 -10 forward_v I I I I #
coedge $-1 $914 $878 $915 $916 forward $870 $-1 #
coedge $-1 $917 $872 $918 $919 forward $847 $-1 #
coedge $-1 $872 $915 $877 $905 forward $847 $-1 #
coedge $-1 $877 $876 $873 $899 forward $790 $-1 #
edge $-1 $890 -2.842170943040390449e-16 $902 2.094395102393193042 $898 $920 forward 7 unknown #
coedge $-1 $878 $918 $874 $901 forward $870 $-1 #
edge $-1 $903 -6.123031769111886291e-17 $882 1.570796326794897002 $900 $921 forward 7 unknown #
vertex $-1 $905 $922 #
vertex $-1 $901 $923 #
ellipse-curve $-1 128.6602540378443678 0 0 1 -8.881784197001250351e-16 0 1.776356839400250465e-14 20.00000000000000355 0 1 I I #
edge $-1 $906 0 $902 1.570796326794896558 $897 $924 forward 7 unknown #
vertex $-1 $879 $925 #
ellipse-curve $-1 128.6602540378443678 0 0 1 8.881784197001250351e-16 1.087668936092691229e-31 1.776356839400250465e-14 -20.00000000000000355 -2.449212707644754911e-15 1 I I #
point $-1 111.3397459621556038 -20 -2.449212707644754516e-15 #
point $-1 128.6602540378443962 -20.00000000000000355 -2.449212707644754911e-15 #
ellipse-curve $-1 111.3397459621556038 0 0 1 0 0 0 1.224606353822377258e-15 20 1 I I #
ellipse-curve $-1 111.3397459621556038 0 0 1 0 0 0 1.224606353822377258e-15 -20 1 I I #
point $-1 111.3397459621556038 20 0 #
coedge $-1 $926 $926 $917 $927 forward $893 $-1 #
coedge $-1 $918 $895 $926 $928 reversed $870 $-1 #
coedge $-1 $897 $917 $895 $916 reversed $847 $-1 #
edge $-1 $906 0 $929 1.633974596215560293 $895 $930 forward 7 unknown #
coedge $-1 $915 $896 $913 $927 reversed $847 $-1 #
coedge $-1 $900 $914 $896 $919 reversed $870 $-1 #
edge $-1 $903 0 $931 1.633974596215560293 $918 $932 forward 7 unknown #
ellipse-curve $-1 120 25.00000000000002132 0 0 0 1 -8.660254037844392627 -5.000000000000022204 0 1 I I #
ellipse-curve $-1 128.6602540378443678 0 0 1 -5.438344680463456145e-32 -8.881784197001250351e-16 1.776356839400250465e-14 1.224606353822377455e-15 20.00000000000000355 1 I I #
point $-1 128.6602540378443962 20.00000000000000355 0 #
point $-1 128.6602540378443962 2.449212707644754516e-15 20 #
ellipse-curve $-1 128.6602540378443678 0 0 1 -5.438344680463456145e-32 8.881784197001250351e-16 1.776356839400250465e-14 1.224606353822377455e-15 -20.00000000000000355 1 I I #
point $-1 128.6602540378443962 1.224606353822377455e-15 -20.00000000000000355 #
coedge $-1 $913 $913 $914 $928 forward $893 $-1 #
edge $-1 $929 0 $931 3.141592653589793116 $913 $933 forward 7 unknown #
edge $-1 $931 0 $929 3.141592653589793116 $926 $934 forward 7 unknown #
vertex $-1 $928 $935 #
straight-curve $-1 128.6602540378443962 0 -20 10 0 0 I I #
vertex $-1 $928 $936 #
straight-curve $-1 128.6602540378443962 2.449212707644754516e-15 20 10 0 0 I I #
ellipse-curve $-1 145 0 0 1 0 0 0 0 -20 1 I I #
ellipse-curve $-1 145 0 0 1 0 0 0 0 20 1 I I #
point $-1 145 0 -20 #
point $-1 145 0 20 #
End-of-ACIS-data 