700 0 2 0           
24 FBMach with ACIS - 7.0.3 13 ACIS 7.0.3 NT 24 Thu May 16 15:52:37 2002 
1 9.9999999999999995e-007 1e-010 
body $2 -1 $-1 $3 $-1 $4 #
bdycol-kcp $-1 -1 1 2 $5 $6 #
model_id-kcp-attrib $-1 -1 $-1 $-1 $0 1 1021578756 1021578756 747700225 1 #
lump $-1 -1 $-1 $-1 $7 $0 #
transform $-1 -1 1 0 0 0 1 0 0 0 1 0 0 0 1 rotate no_reflect no_shear #
body $8 -1 $-1 $9 $-1 $10 #
body $11 -1 $-1 $12 $-1 $13 #
shell $-1 -1 $-1 $-1 $-1 $14 $-1 $3 #
model_id-kcp-attrib $-1 -1 $-1 $-1 $5 1 1021578756 1021578756 747700226 1 #
lump $-1 -1 $-1 $-1 $15 $5 #
transform $-1 -1 1 0 0 0 1 0 0 0 1 0 22.5 0 1 no_rotate no_reflect no_shear #
rgb_color-st-attrib $-1 -1 $16 $-1 $6 0.5 1 1 #
lump $-1 -1 $-1 $-1 $17 $6 #
transform $-1 -1 1 0 0 0 1 0 0 0 1 0 22.5 0 1 no_rotate no_reflect no_shear #
face $18 -1 $-1 $19 $20 $7 $-1 $21 forward single #
shell $-1 -1 $-1 $-1 $-1 $22 $-1 $9 #
model_id-kcp-attrib $-1 -1 $-1 $11 $6 1 1021578756 1021578757 739704835 1 #
shell $-1 -1 $-1 $-1 $-1 $23 $-1 $12 #
model_id-kcp-attrib $-1 -1 $-1 $-1 $14 1 1021578756 1021578756 747700225 2 #
face $24 -1 $-1 $25 $26 $7 $-1 $27 reversed single #
loop $-1 -1 $-1 $-1 $28 $14 #
cone-surface $-1 -1 $-1 0 120.41823898251604 0 0 1 0 -5.7735026918962529 0 0 1 I I -0.49999999999999967 0.86602540378443882 5.7735026918962529 forward I I I I #
face $-1 -1 $-1 $29 $30 $15 $-1 $31 forward single #
face $-1 -1 $-1 $32 $33 $17 $-1 $34 reversed single #
model_id-kcp-attrib $-1 -1 $-1 $-1 $19 1 1021578756 1021578756 747700225 3 #
face $35 -1 $-1 $36 $37 $7 $-1 $38 forward single #
loop $-1 -1 $-1 $39 $40 $19 #
plane-surface $-1 -1 $-1 0 45 0 0 -1 0 -10 0 0 forward_v I I I I #
coedge $-1 -1 $-1 $41 $42 $40 $43 forward $20 $-1 #
face $-1 -1 $-1 $44 $45 $15 $-1 $46 reversed single #
loop $-1 -1 $-1 $-1 $47 $22 #
plane-surface $-1 -1 $-1 0 0 75 0 0 1 1 0 0 forward_v I I I I #
face $-1 -1 $-1 $48 $49 $17 $-1 $34 reversed single #
loop $-1 -1 $-1 $-1 $50 $23 #
cone-surface $-1 -1 $-1 -9.7951777303653892e-031 22.5 -2.2204460492503123e-015 0 1 0 75 0 1.1404993702918143e-014 1 I I 0 1 75 forward I I I I #
model_id-kcp-attrib $-1 -1 $-1 $-1 $25 1 1021578756 1021578756 747700225 4 #
face $51 -1 $-1 $52 $53 $7 $-1 $54 reversed single #
loop $-1 -1 $-1 $-1 $55 $25 #
cone-surface $-1 -1 $-1 0 120.41823898251604 0 0 1 0 -5.7735026918962529 0 0 1 I I -0.49999999999999967 0.86602540378443882 5.7735026918962529 forward I I I I #
loop $-1 -1 $-1 $-1 $56 $19 #
coedge $-1 -1 $-1 $57 $57 $28 $43 reversed $26 $-1 #
coedge $-1 -1 $-1 $58 $28 $59 $60 reversed $20 $-1 #
coedge $-1 -1 $-1 $28 $58 $61 $62 forward $20 $-1 #
edge $63 -1 $-1 $64 0 $65 3.1415926535897931 $28 $66 forward @7 unknown #
face $67 -1 $-1 $68 $69 $15 $-1 $70 reversed single #
loop $-1 -1 $-1 $-1 $71 $29 #
plane-surface $-1 -1 $-1 0 0 -75 0 0 1 1 0 0 forward_v I I I I #
coedge $-1 -1 $-1 $72 $73 $74 $75 forward $30 $-1 #
face $-1 -1 $-1 $76 $77 $17 $-1 $34 reversed single #
loop $-1 -1 $-1 $-1 $78 $32 #
coedge $-1 -1 $-1 $79 $80 $81 $82 reversed $33 $-1 #
model_id-kcp-attrib $-1 -1 $-1 $-1 $36 1 1021578756 1021578756 747700225 5 #
face $83 -1 $-1 $84 $85 $7 $-1 $86 forward single #
loop $-1 -1 $-1 $87 $88 $36 #
plane-surface $-1 -1 $-1 0 20 0 0 -1 0 -10 0 0 forward_v I I I I #
coedge $-1 -1 $-1 $59 $61 $89 $90 forward $37 $-1 #
coedge $-1 -1 $-1 $91 $91 $92 $93 reversed $39 $-1 #
coedge $-1 -1 $-1 $40 $40 $94 $95 forward $26 $-1 #
coedge $-1 -1 $-1 $42 $41 $96 $97 reversed $20 $-1 #
coedge $-1 -1 $-1 $94 $55 $41 $60 forward $37 $-1 #
edge $-1 -1 $-1 $98 0 $65 2.8867513459481282 $41 $99 forward @7 unknown #
coedge $-1 -1 $-1 $55 $94 $42 $62 reversed $37 $-1 #
edge $-1 -1 $-1 $100 0 $64 2.8867513459481282 $42 $101 forward @7 unknown #
attrib_edge_convexity-kcp-attrib $-1 -1 $102 $-1 $43 1 #
vertex $-1 -1 $-1 $62 $103 #
vertex $-1 -1 $-1 $60 $104 #
ellipse-curve $-1 -1 $-1 0 45 0 0 -1 0 49.31624327025937 0 0 1 I I #
model_id-kcp-attrib $-1 -1 $-1 $-1 $44 1 1021578756 1021578756 747700226 3 #
face $-1 -1 $-1 $105 $106 $15 $-1 $107 reversed single #
loop $-1 -1 $-1 $-1 $108 $44 #
plane-surface $-1 -1 $-1 0 -22.5 0 0 1 0 0 0 1 forward_v I I I I #
coedge $-1 -1 $-1 $109 $110 $111 $112 forward $45 $-1 #
coedge $-1 -1 $-1 $113 $47 $114 $115 forward $30 $-1 #
coedge $-1 -1 $-1 $47 $113 $116 $117 forward $30 $-1 #
coedge $-1 -1 $-1 $118 $119 $47 $75 reversed $120 $-1 #
edge $-1 -1 $-1 $121 -22.5 $122 22.5 $74 $123 forward @7 unknown #
face $-1 -1 $-1 $124 $125 $17 $-1 $34 reversed single #
loop $-1 -1 $-1 $-1 $126 $48 #
coedge $-1 -1 $-1 $127 $128 $129 $130 reversed $49 $-1 #
coedge $-1 -1 $-1 $131 $50 $132 $133 forward $33 $-1 #
coedge $-1 -1 $-1 $50 $131 $134 $135 reversed $33 $-1 #
coedge $-1 -1 $-1 $136 $137 $50 $82 forward $138 $-1 #
edge $-1 -1 $-1 $139 -3.1415926535897931 $140 -1.5707963267948966 $81 $141 forward @7 unknown #
model_id-kcp-attrib $-1 -1 $-1 $-1 $52 1 1021578756 1021578756 747700225 6 #
face $142 -1 $-1 $143 $144 $7 $-1 $145 forward single #
loop $-1 -1 $-1 $-1 $146 $52 #
cone-surface $-1 -1 $-1 0 47.25 0 0 -1 0 -75 0 0 1 I I 0 1 75 forward I I I I #
loop $-1 -1 $-1 $-1 $96 $36 #
coedge $-1 -1 $-1 $147 $147 $148 $149 forward $53 $-1 #
coedge $-1 -1 $-1 $96 $96 $55 $90 reversed $87 $-1 #
edge $150 -1 $-1 $100 0 $98 3.1415926535897931 $89 $151 forward @7 unknown #
coedge $-1 -1 $-1 $56 $56 $152 $153 reversed $39 $-1 #
coedge $-1 -1 $-1 $154 $155 $56 $93 forward $156 $-1 #
edge $157 -1 $-1 $158 0 $159 3.1415926535897931 $56 $160 forward @7 unknown #
coedge $-1 -1 $-1 $61 $59 $57 $95 reversed $37 $-1 #
edge $161 -1 $-1 $64 0 $65 3.1415926535897931 $57 $162 forward @7 unknown #
coedge $-1 -1 $-1 $89 $89 $58 $97 forward $87 $-1 #
edge $163 -1 $-1 $100 0 $98 3.1415926535897931 $58 $164 forward @7 unknown #
vertex $-1 -1 $-1 $97 $165 #
straight-curve $-1 -1 $-1 -63.750000000000007 20 -1.5613731011235313e-014 4.9999999999999956 8.6602540378443891 1.2246063538223761e-015 I I #
vertex $-1 -1 $-1 $62 $166 #
straight-curve $-1 -1 $-1 63.750000000000007 20 7.8068655056176566e-015 -4.9999999999999956 8.6602540378443891 -6.1230317691118804e-016 I I #
convexity-sys-attrib $-1 -1 $-1 $63 $43 #
point $-1 -1 $-1 49.31624327025937 45 0 #
point $-1 -1 $-1 -49.31624327025937 45 0 #
face $167 -1 $-1 $168 $169 $15 $-1 $170 reversed single #
loop $-1 -1 $-1 $-1 $171 $68 #
plane-surface $-1 -1 $-1 -75 0 0 1 0 0 0 0 -1 forward_v I I I I #
coedge $-1 -1 $-1 $172 $116 $173 $174 forward $69 $-1 #
coedge $-1 -1 $-1 $175 $71 $172 $176 forward $45 $-1 #
coedge $-1 -1 $-1 $71 $175 $177 $178 forward $45 $-1 #
coedge $-1 -1 $-1 $119 $118 $71 $112 reversed $120 $-1 #
edge $-1 -1 $-1 $179 -22.5 $180 22.5 $111 $181 forward @7 unknown #
coedge $-1 -1 $-1 $73 $72 $182 $183 forward $30 $-1 #
coedge $-1 -1 $-1 $184 $185 $72 $115 reversed $169 $-1 #
edge $-1 -1 $-1 $122 -75 $186 75 $114 $187 forward @7 unknown #
coedge $-1 -1 $-1 $108 $188 $73 $117 reversed $69 $-1 #
edge $-1 -1 $-1 $189 -75 $121 75 $116 $190 forward @7 unknown #
coedge $-1 -1 $-1 $111 $74 $188 $191 forward $120 $-1 #
coedge $-1 -1 $-1 $74 $111 $184 $192 reversed $120 $-1 #
loop $-1 -1 $-1 $-1 $118 $168 #
vertex $-1 -1 $-1 $75 $193 #
vertex $-1 -1 $-1 $75 $194 #
straight-curve $-1 -1 $-1 75 0 75 0 1 0 I I #
face $-1 -1 $-1 $195 $196 $17 $-1 $197 forward single #
loop $-1 -1 $-1 $-1 $198 $76 #
coedge $-1 -1 $-1 $199 $200 $198 $201 forward $77 $-1 #
coedge $-1 -1 $-1 $202 $78 $203 $204 reversed $49 $-1 #
coedge $-1 -1 $-1 $78 $202 $80 $135 forward $49 $-1 #
coedge $-1 -1 $-1 $205 $206 $78 $130 forward $207 $-1 #
edge $-1 -1 $-1 $208 -1.5206658270557523e-016 $209 1.5707963267948966 $129 $210 forward @7 unknown #
coedge $-1 -1 $-1 $80 $79 $211 $212 reversed $33 $-1 #
coedge $-1 -1 $-1 $200 $199 $213 $133 reversed $77 $-1 #
edge $-1 -1 $-1 $139 -45 $214 0 $213 $215 forward @7 unknown #
coedge $-1 -1 $-1 $216 $217 $218 $135 forward $219 $-1 #
edge $-1 -1 $-1 $140 -45 $209 0 $134 $220 forward @7 unknown #
coedge $-1 -1 $-1 $137 $81 $217 $221 reversed $138 $-1 #
coedge $-1 -1 $-1 $81 $136 $222 $223 forward $138 $-1 #
loop $-1 -1 $-1 $-1 $81 $224 #
vertex $-1 -1 $-1 $225 $226 #
vertex $-1 -1 $-1 $227 $228 #
ellipse-curve $-1 -1 $-1 -9.7951777303653892e-031 -22.5 -2.2204460492503123e-015 0 1 0 75 0 1.1404993702918143e-014 1 I I #
model_id-kcp-attrib $-1 -1 $-1 $-1 $84 1 1021578756 1021578756 747700225 7 #
face $229 -1 $-1 $230 $231 $7 $-1 $232 forward single #
loop $-1 -1 $-1 $233 $234 $84 #
plane-surface $-1 -1 $-1 0 0 0 0 -1 0 -10 0 0 forward_v I I I I #
coedge $-1 -1 $-1 $235 $236 $237 $238 forward $85 $-1 #
coedge $-1 -1 $-1 $88 $88 $239 $240 reversed $53 $-1 #
coedge $-1 -1 $-1 $236 $235 $88 $149 reversed $85 $-1 #
edge $241 -1 $-1 $242 -1.2246063538223773e-016 $243 3.1415926535897931 $88 $244 forward @7 unknown #
attrib_edge_convexity-kcp-attrib $-1 -1 $245 $-1 $90 2 #
ellipse-curve $-1 -1 $-1 0 20 -2.2204460492503131e-015 0 1 0 63.750000000000007 0 1.002731155486797e-014 1 I I #
coedge $-1 -1 $-1 $246 $247 $91 $153 forward $248 $-1 #
edge $249 -1 $-1 $159 0 $158 3.1415926535897931 $91 $250 forward @7 unknown #
coedge $-1 -1 $-1 $251 $92 $247 $252 reversed $156 $-1 #
coedge $-1 -1 $-1 $92 $251 $246 $253 forward $156 $-1 #
loop $-1 -1 $-1 $-1 $155 $230 #
attrib_edge_convexity-kcp-attrib $-1 -1 $254 $-1 $93 1 #
vertex $-1 -1 $-1 $153 $255 #
vertex $-1 -1 $-1 $153 $256 #
ellipse-curve $-1 -1 $-1 0 45 0 0 1 0 -43.542740578363123 0 0 1 I I #
attrib_edge_convexity-kcp-attrib $-1 -1 $257 $-1 $95 1 #
ellipse-curve $-1 -1 $-1 0 45 0 0 1 0 49.31624327025937 0 0 1 I I #
attrib_edge_convexity-kcp-attrib $-1 -1 $258 $-1 $97 2 #
ellipse-curve $-1 -1 $-1 0 20 2.2204460492503131e-015 0 -1 0 63.750000000000007 0 5.5864194563673435e-015 1 I I #
point $-1 -1 $-1 -63.750000000000007 20 -1.5613731011235313e-014 #
point $-1 -1 $-1 63.750000000000007 20 7.8068655056176566e-015 #
model_id-kcp-attrib $-1 -1 $-1 $-1 $105 1 1021578756 1021578756 747700226 2 #
face $-1 -1 $-1 $-1 $120 $15 $-1 $259 reversed single #
loop $-1 -1 $-1 $-1 $184 $105 #
plane-surface $-1 -1 $-1 0 22.5 0 0 -1 0 0 0 -1 forward_v I I I I #
coedge $-1 -1 $-1 $260 $182 $185 $261 forward $106 $-1 #
coedge $-1 -1 $-1 $188 $108 $109 $176 reversed $69 $-1 #
coedge $-1 -1 $-1 $182 $260 $108 $174 reversed $106 $-1 #
edge $-1 -1 $-1 $189 -75 $262 75 $173 $263 forward @7 unknown #
coedge $-1 -1 $-1 $110 $109 $260 $264 forward $45 $-1 #
edge $-1 -1 $-1 $180 -75 $262 75 $172 $265 forward @7 unknown #
coedge $-1 -1 $-1 $185 $184 $110 $178 reversed $169 $-1 #
edge $-1 -1 $-1 $266 -75 $179 75 $177 $267 forward @7 unknown #
vertex $-1 -1 $-1 $112 $268 #
vertex $-1 -1 $-1 $191 $269 #
straight-curve $-1 -1 $-1 75 0 -75 0 -1 0 I I #
coedge $-1 -1 $-1 $171 $173 $113 $183 reversed $106 $-1 #
edge $-1 -1 $-1 $186 -22.5 $189 22.5 $182 $270 forward @7 unknown #
coedge $-1 -1 $-1 $177 $114 $119 $192 forward $169 $-1 #
coedge $-1 -1 $-1 $114 $177 $171 $261 reversed $169 $-1 #
vertex $-1 -1 $-1 $115 $271 #
straight-curve $-1 -1 $-1 0 22.5 75 -1 0 0 I I #
coedge $-1 -1 $-1 $116 $172 $118 $191 reversed $69 $-1 #
vertex $-1 -1 $-1 $183 $272 #
straight-curve $-1 -1 $-1 0 -22.5 75 1 0 0 I I #
edge $-1 -1 $-1 $121 -75 $180 75 $118 $273 forward @7 unknown #
edge $-1 -1 $-1 $122 -75 $179 75 $119 $274 forward @7 unknown #
point $-1 -1 $-1 75 -22.5 75 #
point $-1 -1 $-1 75 22.5 75 #
face $-1 -1 $-1 $275 $276 $17 $-1 $277 reversed single #
loop $-1 -1 $-1 $-1 $218 $124 #
plane-surface $-1 -1 $-1 0 0 75 0 0 1 1 0 0 forward_v I I I I #
coedge $-1 -1 $-1 $278 $279 $280 $201 reversed $125 $-1 #
coedge $-1 -1 $-1 $132 $126 $281 $282 reversed $77 $-1 #
coedge $-1 -1 $-1 $126 $132 $283 $284 reversed $77 $-1 #
edge $-1 -1 $-1 $285 -45 $286 0 $280 $287 forward @7 unknown #
coedge $-1 -1 $-1 $128 $127 $288 $289 reversed $49 $-1 #
coedge $-1 -1 $-1 $290 $291 $292 $204 forward $293 $-1 #
edge $-1 -1 $-1 $294 -45 $208 0 $203 $295 forward @7 unknown #
coedge $-1 -1 $-1 $206 $129 $296 $297 reversed $207 $-1 #
coedge $-1 -1 $-1 $129 $205 $290 $298 forward $207 $-1 #
loop $-1 -1 $-1 $-1 $129 $299 #
vertex $-1 -1 $-1 $300 $301 #
vertex $-1 -1 $-1 $302 $303 #
ellipse-curve $-1 -1 $-1 -9.7951777303653892e-031 22.5 -2.2204460492503123e-015 0 -1 0 75 0 1.1404993702918143e-014 1 I I #
coedge $-1 -1 $-1 $304 $305 $131 $212 forward $306 $-1 #
edge $-1 -1 $-1 $209 1.5707963267948966 $214 3.1415926535897931 $211 $210 forward @7 unknown #
coedge $-1 -1 $-1 $307 $308 $309 $133 forward $276 $-1 #
vertex $-1 -1 $-1 $310 $311 #
straight-curve $-1 -1 $-1 -75 22.5 -2.2204460492503123e-015 0 1 0 I I #
coedge $-1 -1 $-1 $312 $134 $305 $302 forward $219 $-1 #
coedge $-1 -1 $-1 $134 $312 $136 $221 forward $219 $-1 #
coedge $-1 -1 $-1 $313 $296 $128 $135 reversed $196 $-1 #
loop $-1 -1 $-1 $-1 $134 $314 #
straight-curve $-1 -1 $-1 -9.7951777303653892e-031 22.5 75 0 1 0 I I #
edge $-1 -1 $-1 $315 -75 $140 -9.7951777303653892e-031 $136 $316 forward @7 unknown #
coedge $-1 -1 $-1 $317 $309 $137 $223 reversed $318 $-1 #
edge $-1 -1 $-1 $315 -75 $139 2.2204460492503123e-015 $222 $319 forward @7 unknown #
face $-1 -1 $-1 $320 $138 $17 $-1 $321 reversed single #
edge $-1 -1 $-1 $139 2.2204460492503123e-015 $322 75 $308 $319 forward @7 unknown #
point $-1 -1 $-1 -75 -22.5 -2.2204460492503123e-015 #
edge $-1 -1 $-1 $140 -9.7951777303653892e-031 $323 75 $324 $316 forward @7 unknown #
point $-1 -1 $-1 -9.7951777303653892e-031 -22.5 75 #
model_id-kcp-attrib $-1 -1 $-1 $-1 $143 1 1021578756 1021578756 747700225 8 #
face $325 -1 $-1 $326 $156 $7 $-1 $327 reversed single #
loop $-1 -1 $-1 $-1 $239 $143 #
cone-surface $-1 -1 $-1 0 47.25 0 0 -1 0 -75 0 0 1 I I 0 1 75 forward I I I I #
loop $-1 -1 $-1 $-1 $328 $84 #
coedge $-1 -1 $-1 $237 $237 $329 $330 forward $144 $-1 #
coedge $-1 -1 $-1 $148 $146 $331 $332 forward $85 $-1 #
coedge $-1 -1 $-1 $146 $148 $333 $334 reversed $85 $-1 #
coedge $-1 -1 $-1 $234 $234 $146 $238 reversed $144 $-1 #
edge $-1 -1 $-1 $335 0 $336 3.1415926535897931 $237 $337 forward @7 unknown #
coedge $-1 -1 $-1 $331 $333 $147 $240 forward $231 $-1 #
edge $338 -1 $-1 $242 1.2246063538223773e-016 $243 3.1415926535897931 $239 $339 forward @7 unknown #
attrib_edge_convexity-kcp-attrib $-1 -1 $340 $-1 $149 1 #
vertex $-1 -1 $-1 $334 $341 #
vertex $-1 -1 $-1 $332 $342 #
ellipse-curve $-1 -1 $-1 2.2204460492503131e-015 20 -4.4408920985006262e-015 0 1 0 75 0 4.4408920985006262e-015 1 I I #
convexity-sys-attrib $-1 -1 $-1 $150 $90 #
coedge $-1 -1 $-1 $343 $152 $155 $253 reversed $248 $-1 #
coedge $-1 -1 $-1 $152 $343 $154 $252 forward $248 $-1 #
loop $-1 -1 $-1 $-1 $247 $326 #
attrib_edge_convexity-kcp-attrib $-1 -1 $344 $-1 $153 1 #
ellipse-curve $-1 -1 $-1 0 45 0 0 1 0 43.542740578363123 0 0 1 I I #
coedge $-1 -1 $-1 $155 $154 $328 $345 reversed $156 $-1 #
edge $-1 -1 $-1 $346 3.7872830339738037e-015 $159 5.1961524227066347 $247 $347 forward @7 unknown #
edge $-1 -1 $-1 $348 3.7872830339738037e-015 $158 5.1961524227066347 $246 $349 forward @7 unknown #
convexity-sys-attrib $-1 -1 $-1 $157 $93 #
point $-1 -1 $-1 -43.542740578363123 45 0 #
point $-1 -1 $-1 43.542740578363123 45 0 #
convexity-sys-attrib $-1 -1 $-1 $161 $95 #
convexity-sys-attrib $-1 -1 $-1 $163 $97 #
plane-surface $-1 -1 $-1 75 0 0 -1 0 0 0 0 1 forward_v I I I I #
coedge $-1 -1 $-1 $173 $171 $175 $264 reversed $106 $-1 #
edge $-1 -1 $-1 $186 -75 $266 75 $185 $350 forward @7 unknown #
vertex $-1 -1 $-1 $264 $351 #
straight-curve $-1 -1 $-1 -75 -22.5 0 0 0 -1 I I #
edge $-1 -1 $-1 $262 -22.5 $266 22.5 $260 $352 forward @7 unknown #
straight-curve $-1 -1 $-1 0 -22.5 -75 -1 0 0 I I #
vertex $-1 -1 $-1 $178 $353 #
straight-curve $-1 -1 $-1 0 22.5 -75 1 0 0 I I #
point $-1 -1 $-1 75 22.5 -75 #
point $-1 -1 $-1 75 -22.5 -75 #
straight-curve $-1 -1 $-1 -75 0 75 0 -1 0 I I #
point $-1 -1 $-1 -75 22.5 75 #
point $-1 -1 $-1 -75 -22.5 75 #
straight-curve $-1 -1 $-1 75 -22.5 0 0 0 -1 I I #
straight-curve $-1 -1 $-1 75 22.5 0 0 0 -1 I I #
face $-1 -1 $-1 $354 $355 $17 $-1 $356 reversed single #
loop $-1 -1 $-1 $-1 $213 $195 #
plane-surface $-1 -1 $-1 -75 0 0 1 0 0 0 0 -1 forward_v I I I I #
coedge $-1 -1 $-1 $357 $198 $358 $359 reversed $125 $-1 #
coedge $-1 -1 $-1 $198 $357 $360 $361 reversed $125 $-1 #
coedge $-1 -1 $-1 $362 $363 $364 $201 forward $365 $-1 #
coedge $-1 -1 $-1 $366 $367 $199 $282 forward $368 $-1 #
edge $-1 -1 $-1 $214 -3.1415926535897931 $286 -1.5707963267948968 $281 $210 forward @7 unknown #
coedge $-1 -1 $-1 $369 $370 $200 $284 forward $371 $-1 #
edge $-1 -1 $-1 $285 1.5707963267948968 $139 3.1415926535897931 $283 $141 forward @7 unknown #
vertex $-1 -1 $-1 $372 $373 #
vertex $-1 -1 $-1 $374 $375 #
straight-curve $-1 -1 $-1 -9.7951777303653892e-031 22.5 -75 0 1 0 I I #
coedge $-1 -1 $-1 $376 $324 $202 $289 forward $377 $-1 #
edge $-1 -1 $-1 $140 -1.5707963267948966 $294 1.5206658270557523e-016 $288 $141 forward @7 unknown #
coedge $-1 -1 $-1 $378 $203 $206 $298 reversed $293 $-1 #
coedge $-1 -1 $-1 $203 $378 $376 $379 forward $293 $-1 #
coedge $-1 -1 $-1 $380 $381 $357 $204 reversed $355 $-1 #
loop $-1 -1 $-1 $-1 $203 $382 #
vertex $-1 -1 $-1 $383 $384 #
straight-curve $-1 -1 $-1 75 22.5 -2.2204460492503123e-015 0 1 0 I I #
coedge $-1 -1 $-1 $218 $385 $205 $297 forward $196 $-1 #
edge $-1 -1 $-1 $386 -75 $209 9.7951777303653892e-031 $205 $387 forward @7 unknown #
edge $-1 -1 $-1 $386 -75 $208 2.2204460492503123e-015 $290 $388 forward @7 unknown #
face $-1 -1 $-1 $389 $207 $17 $-1 $390 reversed single #
edge $-1 -1 $-1 $208 2.2204460492503123e-015 $391 75 $381 $388 forward @7 unknown #
point $-1 -1 $-1 75 22.5 -2.2204460492503123e-015 #
edge $-1 -1 $-1 $209 9.7951777303653892e-031 $392 75 $305 $387 forward @7 unknown #
point $-1 -1 $-1 -9.7951777303653892e-031 22.5 75 #
coedge $-1 -1 $-1 $305 $211 $393 $394 reversed $306 $-1 #
coedge $-1 -1 $-1 $211 $304 $216 $302 reversed $306 $-1 #
loop $-1 -1 $-1 $-1 $211 $389 #
coedge $-1 -1 $-1 $395 $213 $367 $310 forward $276 $-1 #
coedge $-1 -1 $-1 $213 $395 $369 $225 reversed $276 $-1 #
coedge $-1 -1 $-1 $222 $393 $79 $133 reversed $318 $-1 #
edge $-1 -1 $-1 $214 2.2204460492503123e-015 $396 75 $367 $397 forward @7 unknown #
point $-1 -1 $-1 -75 22.5 -2.2204460492503123e-015 #
coedge $-1 -1 $-1 $217 $216 $317 $398 forward $219 $-1 #
coedge $-1 -1 $-1 $385 $218 $324 $227 forward $196 $-1 #
face $-1 -1 $-1 $399 $219 $17 $-1 $197 forward single #
vertex $-1 -1 $-1 $398 $400 #
straight-curve $-1 -1 $-1 0 -22.5 75 1 0 0 I I #
coedge $-1 -1 $-1 $393 $222 $312 $398 reversed $318 $-1 #
loop $-1 -1 $-1 $-1 $309 $401 #
straight-curve $-1 -1 $-1 -75 -22.5 0 0 0 -1 I I #
face $-1 -1 $-1 $402 $377 $17 $-1 $321 reversed single #
plane-surface $-1 -1 $-1 0 -22.5 0 0 1 0 0 0 1 forward_v I I I I #
vertex $-1 -1 $-1 $403 $404 #
vertex $-1 -1 $-1 $405 $406 #
coedge $-1 -1 $-1 $288 $376 $313 $227 reversed $377 $-1 #
model_id-kcp-attrib $-1 -1 $-1 $-1 $230 1 1021578756 1021578756 747700225 9 #
face $407 -1 $-1 $-1 $248 $7 $-1 $408 reversed single #
cone-surface $-1 -1 $-1 0 110.41823898251609 0 0 1 0 5.7735026918962484 0 0 1 I I -0.49999999999999939 0.86602540378443904 5.7735026918962484 forward I I I I #
coedge $-1 -1 $-1 $409 $409 $251 $345 forward $233 $-1 #
coedge $-1 -1 $-1 $333 $331 $234 $330 reversed $231 $-1 #
edge $-1 -1 $-1 $335 0 $336 3.1415926535897931 $234 $410 forward @7 unknown #
coedge $-1 -1 $-1 $329 $239 $235 $332 reversed $231 $-1 #
edge $-1 -1 $-1 $336 0 $243 2 $331 $411 forward @7 unknown #
coedge $-1 -1 $-1 $239 $329 $236 $334 forward $231 $-1 #
edge $-1 -1 $-1 $335 0 $242 2 $333 $412 forward @7 unknown #
vertex $-1 -1 $-1 $238 $413 #
vertex $-1 -1 $-1 $238 $414 #
ellipse-curve $-1 -1 $-1 -4.4408920985006262e-015 0 -2.2204460492503131e-015 0 1 0 75 0 1.1404993702918143e-014 1 I I #
attrib_edge_convexity-kcp-attrib $-1 -1 $415 $-1 $240 1 #
ellipse-curve $-1 -1 $-1 2.2204460492503131e-015 20 4.4408920985006262e-015 0 -1 0 75 0 -4.4408920985006262e-015 1 I I #
convexity-sys-attrib $-1 -1 $-1 $241 $149 #
point $-1 -1 $-1 75 20 9.1845476536678294e-015 #
point $-1 -1 $-1 -75 20 0 #
coedge $-1 -1 $-1 $247 $246 $409 $416 reversed $248 $-1 #
convexity-sys-attrib $-1 -1 $-1 $249 $153 #
edge $-1 -1 $-1 $348 0 $346 3.1415926535897931 $328 $417 forward @7 unknown #
vertex $-1 -1 $-1 $416 $418 #
straight-curve $-1 -1 $-1 69.523502691896255 -3.5527136788005009e-014 0 -4.9999999999999929 8.6602540378443891 0 I I #
vertex $-1 -1 $-1 $416 $419 #
straight-curve $-1 -1 $-1 -69.523502691896255 -3.5527136788005009e-014 8.5138923136483314e-015 4.9999999999999929 8.6602540378443891 -6.1230317691118774e-016 I I #
straight-curve $-1 -1 $-1 -75 22.5 0 0 0 -1 I I #
point $-1 -1 $-1 -75 -22.5 -75 #
straight-curve $-1 -1 $-1 -75 0 -75 0 1 0 I I #
point $-1 -1 $-1 -75 22.5 -75 #
face $-1 -1 $-1 $299 $420 $17 $-1 $390 reversed single #
loop $-1 -1 $-1 $-1 $292 $275 #
plane-surface $-1 -1 $-1 75 0 0 -1 0 0 0 0 1 forward_v I I I I #
coedge $-1 -1 $-1 $279 $278 $127 $204 forward $125 $-1 #
coedge $-1 -1 $-1 $421 $422 $278 $359 forward $423 $-1 #
edge $-1 -1 $-1 $294 1.5206658270557523e-016 $285 1.5707963267948968 $358 $141 forward @7 unknown #
coedge $-1 -1 $-1 $424 $425 $279 $361 forward $420 $-1 #
edge $-1 -1 $-1 $286 -1.5707963267948968 $208 -1.5206658270557523e-016 $360 $210 forward @7 unknown #
coedge $-1 -1 $-1 $426 $280 $425 $374 forward $365 $-1 #
coedge $-1 -1 $-1 $280 $426 $421 $427 forward $365 $-1 #
coedge $-1 -1 $-1 $428 $429 $126 $201 reversed $430 $-1 #
loop $-1 -1 $-1 $-1 $280 $399 #
coedge $-1 -1 $-1 $367 $281 $429 $431 reversed $368 $-1 #
coedge $-1 -1 $-1 $281 $366 $307 $310 reversed $368 $-1 #
loop $-1 -1 $-1 $-1 $281 $432 #
coedge $-1 -1 $-1 $370 $283 $308 $225 forward $371 $-1 #
coedge $-1 -1 $-1 $283 $369 $428 $372 reversed $371 $-1 #
loop $-1 -1 $-1 $-1 $283 $433 #
edge $-1 -1 $-1 $285 9.7951777303653892e-031 $322 75 $370 $434 forward @7 unknown #
point $-1 -1 $-1 -9.7951777303653892e-031 -22.5 -75 #
edge $-1 -1 $-1 $286 -9.7951777303653892e-031 $391 75 $425 $435 forward @7 unknown #
point $-1 -1 $-1 -9.7951777303653892e-031 22.5 -75 #
coedge $-1 -1 $-1 $324 $288 $291 $379 reversed $377 $-1 #
loop $-1 -1 $-1 $-1 $288 $320 #
coedge $-1 -1 $-1 $291 $290 $385 $405 reversed $293 $-1 #
edge $-1 -1 $-1 $323 -75 $294 2.2204460492503123e-015 $291 $436 forward @7 unknown #
coedge $-1 -1 $-1 $437 $292 $422 $383 forward $355 $-1 #
coedge $-1 -1 $-1 $292 $437 $424 $300 reversed $355 $-1 #
face $-1 -1 $-1 $-1 $293 $17 $-1 $356 reversed single #
edge $-1 -1 $-1 $294 2.2204460492503123e-015 $438 75 $380 $436 forward @7 unknown #
point $-1 -1 $-1 75 -22.5 -2.2204460492503123e-015 #
coedge $-1 -1 $-1 $296 $313 $378 $405 forward $196 $-1 #
vertex $-1 -1 $-1 $405 $439 #
straight-curve $-1 -1 $-1 0 22.5 75 -1 0 0 I I #
straight-curve $-1 -1 $-1 75 22.5 0 0 0 -1 I I #
face $-1 -1 $-1 $432 $306 $17 $-1 $390 reversed single #
plane-surface $-1 -1 $-1 0 22.5 0 0 -1 0 0 0 -1 forward_v I I I I #
vertex $-1 -1 $-1 $440 $441 #
vertex $-1 -1 $-1 $302 $442 #
coedge $-1 -1 $-1 $309 $317 $304 $394 forward $318 $-1 #
edge $-1 -1 $-1 $392 -75 $214 2.2204460492503123e-015 $304 $397 forward @7 unknown #
coedge $-1 -1 $-1 $308 $307 $443 $403 reversed $276 $-1 #
vertex $-1 -1 $-1 $431 $444 #
straight-curve $-1 -1 $-1 -75 22.5 0 0 0 -1 I I #
edge $-1 -1 $-1 $392 -22.5 $315 22.5 $317 $445 forward @7 unknown #
face $-1 -1 $-1 $401 $365 $17 $-1 $446 reversed single #
point $-1 -1 $-1 -75 -22.5 75 #
face $-1 -1 $-1 $382 $318 $17 $-1 $277 reversed single #
face $-1 -1 $-1 $447 $423 $17 $-1 $321 reversed single #
edge $-1 -1 $-1 $322 -22.5 $396 22.5 $395 $448 forward @7 unknown #
point $-1 -1 $-1 -75 -22.5 -75 #
edge $-1 -1 $-1 $323 -22.5 $386 22.5 $378 $449 forward @7 unknown #
point $-1 -1 $-1 75 -22.5 75 #
model_id-kcp-attrib $-1 -1 $-1 $-1 $326 1 1021578756 1021578756 747700225 10 #
cone-surface $-1 -1 $-1 0 110.41823898251609 0 0 1 0 5.7735026918962484 0 0 1 I I -0.49999999999999939 0.86602540378443904 5.7735026918962484 forward I I I I #
coedge $-1 -1 $-1 $328 $328 $343 $416 forward $233 $-1 #
ellipse-curve $-1 -1 $-1 2.2204460492503131e-015 0 0 0 -1 0 75 0 9.1845476536678294e-015 1 I I #
straight-curve $-1 -1 $-1 -75 0 -1.8369095307335659e-014 0 10 0 I I #
straight-curve $-1 -1 $-1 75 0 9.1845476536678294e-015 0 10 0 I I #
point $-1 -1 $-1 75 0 9.1845476536678294e-015 #
point $-1 -1 $-1 -75 0 -1.8369095307335659e-014 #
convexity-sys-attrib $-1 -1 $-1 $338 $240 #
edge $-1 -1 $-1 $346 0 $348 3.1415926535897931 $409 $450 forward @7 unknown #
ellipse-curve $-1 -1 $-1 0 0 0 0 1 0 -69.52350269189624 0 0 1 I I #
point $-1 -1 $-1 69.52350269189624 0 0 #
point $-1 -1 $-1 -69.52350269189624 0 0 #
loop $-1 -1 $-1 $-1 $360 $354 #
coedge $-1 -1 $-1 $422 $358 $363 $427 reversed $423 $-1 #
coedge $-1 -1 $-1 $358 $421 $380 $383 reversed $423 $-1 #
loop $-1 -1 $-1 $-1 $358 $402 #
coedge $-1 -1 $-1 $425 $360 $381 $300 forward $420 $-1 #
coedge $-1 -1 $-1 $360 $424 $362 $374 reversed $420 $-1 #
coedge $-1 -1 $-1 $363 $362 $437 $440 forward $365 $-1 #
edge $-1 -1 $-1 $438 -75 $285 9.7951777303653892e-031 $421 $434 forward @7 unknown #
coedge $-1 -1 $-1 $443 $364 $370 $372 forward $430 $-1 #
coedge $-1 -1 $-1 $364 $443 $366 $431 forward $430 $-1 #
loop $-1 -1 $-1 $-1 $364 $447 #
edge $-1 -1 $-1 $396 -75 $286 -9.7951777303653892e-031 $366 $435 forward @7 unknown #
face $-1 -1 $-1 $433 $368 $17 $-1 $390 reversed single #
face $-1 -1 $-1 $224 $371 $17 $-1 $321 reversed single #
straight-curve $-1 -1 $-1 0 -22.5 -75 -1 0 0 I I #
straight-curve $-1 -1 $-1 0 22.5 -75 1 0 0 I I #
straight-curve $-1 -1 $-1 75 -22.5 0 0 0 -1 I I #
coedge $-1 -1 $-1 $381 $380 $426 $440 reversed $355 $-1 #
vertex $-1 -1 $-1 $383 $451 #
point $-1 -1 $-1 75 22.5 75 #
edge $-1 -1 $-1 $391 -22.5 $438 22.5 $437 $452 forward @7 unknown #
point $-1 -1 $-1 75 22.5 -75 #
point $-1 -1 $-1 -75 22.5 75 #
coedge $-1 -1 $-1 $429 $428 $395 $403 forward $430 $-1 #
point $-1 -1 $-1 -75 22.5 -75 #
straight-curve $-1 -1 $-1 -75 0 75 0 -1 0 I I #
plane-surface $-1 -1 $-1 0 0 -75 0 0 1 1 0 0 forward_v I I I I #
face $-1 -1 $-1 $314 $430 $17 $-1 $446 reversed single #
straight-curve $-1 -1 $-1 -75 0 -75 0 1 0 I I #
straight-curve $-1 -1 $-1 75 0 75 0 1 0 I I #
ellipse-curve $-1 -1 $-1 6.6613381477509392e-015 0 0 0 1 0 69.52350269189624 0 0 1 I I #
point $-1 -1 $-1 75 -22.5 -75 #
straight-curve $-1 -1 $-1 75 0 -75 0 -1 0 I I #
End-of-ACIS-data 