700 0 2 0           
24 FBMach with ACIS - 7.0.3 13 ACIS 7.0.3 NT 24 Thu May 16 15:56:50 2002 
1 9.9999999999999995e-007 1e-010 
body $2 -1 $-1 $3 $-1 $4 #
bdycol-kcp $-1 -1 1 3 $5 $6 $7 #
model_id-kcp-attrib $-1 -1 $-1 $-1 $0 1 1021579009 1021579009 -2031484927 1 #
lump $-1 -1 $-1 $-1 $8 $0 #
transform $-1 -1 1 0 0 0 1 0 0 0 1 0 0 0 1 rotate no_reflect no_shear #
body $9 -1 $-1 $10 $-1 $11 #
body $12 -1 $-1 $13 $-1 $14 #
body $15 -1 $-1 $16 $-1 $17 #
shell $-1 -1 $-1 $-1 $-1 $18 $-1 $3 #
rgb_color-st-attrib $-1 -1 $19 $-1 $5 0.5 1 1 #
lump $-1 -1 $-1 $-1 $20 $5 #
transform $-1 -1 1 0 0 0 1 0 0 0 1 0 65 0 1 no_rotate no_reflect no_shear #
model_id-kcp-attrib $-1 -1 $-1 $-1 $6 1 1021579009 1021579009 -2031484926 1 #
lump $-1 -1 $-1 $-1 $21 $6 #
transform $-1 -1 1 0 0 0 1 0 0 0 1 0 65 0 1 no_rotate no_reflect no_shear #
rgb_color-st-attrib $-1 -1 $22 $-1 $7 1 0.5 1 #
lump $-1 -1 $-1 $-1 $23 $7 #
transform $-1 -1 1 0 0 0 1 0 0 0 1 0 65 0 1 no_rotate no_reflect no_shear #
face $24 -1 $-1 $25 $26 $8 $-1 $27 forward single #
model_id-kcp-attrib $-1 -1 $-1 $9 $5 1 1021579009 1021579009 -2040397821 1 #
shell $-1 -1 $-1 $-1 $-1 $28 $-1 $10 #
shell $-1 -1 $-1 $-1 $-1 $29 $-1 $13 #
model_id-kcp-attrib $-1 -1 $-1 $15 $7 1 1021579009 1021579010 -2041774076 1 #
shell $-1 -1 $-1 $-1 $-1 $30 $-1 $16 #
model_id-kcp-attrib $-1 -1 $-1 $-1 $18 1 1021579009 1021579009 -2031484927 2 #
face $31 -1 $-1 $32 $33 $8 $-1 $34 forward single #
loop $-1 -1 $-1 $-1 $35 $18 #
cone-surface $-1 -1 $-1 0 147 0 0 -1 0 -90 0 0 1 I I 0 1 90 forward I I I I #
face $-1 -1 $-1 $36 $37 $20 $-1 $38 reversed single #
face $-1 -1 $-1 $39 $40 $21 $-1 $41 forward single #
face $-1 -1 $-1 $42 $43 $23 $-1 $44 forward single #
model_id-kcp-attrib $-1 -1 $-1 $-1 $25 1 1021579009 1021579009 -2031484927 3 #
face $45 -1 $-1 $46 $47 $8 $-1 $48 forward single #
loop $-1 -1 $-1 $-1 $49 $25 #
cone-surface $-1 -1 $-1 0 147 0 0 -1 0 -90 0 0 1 I I 0 1 90 forward I I I I #
coedge $-1 -1 $-1 $50 $51 $52 $53 forward $26 $-1 #
face $-1 -1 $-1 $54 $55 $20 $-1 $38 reversed single #
loop $-1 -1 $-1 $-1 $56 $28 #
cone-surface $-1 -1 $-1 2.0581676724159658e-031 75 1.7763568394002505e-014 0 1 0 -115 0 -3.6801326332976323e-015 1 I I 0 1 115 forward I I I I #
face $-1 -1 $-1 $57 $58 $21 $-1 $59 reversed single #
loop $-1 -1 $-1 $-1 $60 $29 #
plane-surface $-1 -1 $-1 0 0 115 0 0 1 1 0 0 forward_v I I I I #
face $-1 -1 $-1 $61 $62 $23 $-1 $63 forward single #
loop $-1 -1 $-1 $64 $65 $30 #
cone-surface $-1 -1 $-1 2.0581676724159658e-031 -65 1.7763568394002505e-014 0 1 0 -115 0 -3.6801326332976323e-015 1 I I 0 1 115 forward I I I I #
model_id-kcp-attrib $-1 -1 $-1 $-1 $32 1 1021579009 1021579009 -2031484927 4 #
face $66 -1 $-1 $67 $68 $8 $-1 $69 forward single #
loop $-1 -1 $-1 $-1 $70 $32 #
cone-surface $-1 -1 $-1 0 530.41536376559452 0 0 1 0 -1.7632698070846475 0 0 1 I I -0.17364817766693014 0.98480775301220813 1.7632698070846475 forward I I I I #
coedge $-1 -1 $-1 $71 $72 $73 $74 forward $33 $-1 #
coedge $-1 -1 $-1 $73 $35 $75 $76 forward $26 $-1 #
coedge $-1 -1 $-1 $35 $73 $77 $78 reversed $26 $-1 #
coedge $-1 -1 $-1 $72 $71 $35 $53 reversed $33 $-1 #
edge $-1 -1 $-1 $79 0 $80 2.9999999999999858 $35 $81 forward @7 unknown #
face $-1 -1 $-1 $82 $83 $20 $-1 $38 reversed single #
loop $-1 -1 $-1 $-1 $84 $36 #
coedge $-1 -1 $-1 $85 $86 $87 $88 reversed $37 $-1 #
face $89 -1 $-1 $90 $91 $21 $-1 $92 reversed single #
loop $-1 -1 $-1 $-1 $93 $39 #
plane-surface $-1 -1 $-1 0 0 -115 0 0 1 1 0 0 forward_v I I I I #
coedge $-1 -1 $-1 $94 $95 $96 $97 forward $40 $-1 #
face $-1 -1 $-1 $98 $99 $23 $-1 $100 forward single #
loop $-1 -1 $-1 $101 $102 $42 #
cone-surface $-1 -1 $-1 0 -65 0 0 1 0 -90 0 0 1 I I 0 -1 90 forward I I I I #
loop $-1 -1 $-1 $-1 $103 $30 #
coedge $-1 -1 $-1 $65 $65 $104 $105 forward $43 $-1 #
model_id-kcp-attrib $-1 -1 $-1 $-1 $46 1 1021579009 1021579009 -2031484927 5 #
face $106 -1 $-1 $107 $108 $8 $-1 $109 reversed single #
loop $-1 -1 $-1 $-1 $110 $46 #
cone-surface $-1 -1 $-1 0 530.41536376559452 0 0 1 0 -1.7632698070846475 0 0 1 I I -0.17364817766693014 0.98480775301220813 1.7632698070846475 forward I I I I #
coedge $-1 -1 $-1 $111 $112 $71 $113 forward $47 $-1 #
coedge $-1 -1 $-1 $52 $49 $70 $113 reversed $33 $-1 #
coedge $-1 -1 $-1 $49 $52 $114 $115 reversed $33 $-1 #
coedge $-1 -1 $-1 $51 $50 $49 $74 reversed $26 $-1 #
edge $-1 -1 $-1 $116 0 $117 2.9999999999999858 $73 $118 forward @7 unknown #
coedge $-1 -1 $-1 $119 $120 $50 $76 reversed $68 $-1 #
edge $-1 -1 $-1 $80 0 $117 3.1415926535897931 $50 $121 forward @7 unknown #
coedge $-1 -1 $-1 $114 $114 $51 $78 forward $122 $-1 #
edge $123 -1 $-1 $79 0 $116 3.1415926535897927 $51 $124 forward @7 unknown #
vertex $-1 -1 $-1 $78 $125 #
vertex $-1 -1 $-1 $76 $126 #
straight-curve $-1 -1 $-1 90 0 1.1021457184401395e-014 0 10 0 I I #
face $-1 -1 $-1 $127 $128 $20 $-1 $38 reversed single #
loop $-1 -1 $-1 $-1 $129 $54 #
coedge $-1 -1 $-1 $130 $131 $132 $133 reversed $55 $-1 #
coedge $-1 -1 $-1 $134 $56 $135 $136 forward $37 $-1 #
coedge $-1 -1 $-1 $56 $134 $137 $138 reversed $37 $-1 #
coedge $-1 -1 $-1 $139 $140 $56 $88 forward $141 $-1 #
edge $-1 -1 $-1 $142 3.200115333302289e-017 $143 1.5707963267948966 $87 $144 forward @7 unknown #
model_id-kcp-attrib $-1 -1 $-1 $-1 $57 1 1021579009 1021579009 -2031484926 3 #
face $-1 -1 $-1 $145 $146 $21 $-1 $147 reversed single #
loop $-1 -1 $-1 $-1 $148 $57 #
plane-surface $-1 -1 $-1 0 -75 0 0 1 0 0 0 1 forward_v I I I I #
coedge $-1 -1 $-1 $149 $150 $151 $152 forward $58 $-1 #
coedge $-1 -1 $-1 $153 $60 $154 $155 forward $40 $-1 #
coedge $-1 -1 $-1 $60 $153 $156 $157 forward $40 $-1 #
coedge $-1 -1 $-1 $158 $159 $60 $97 reversed $160 $-1 #
edge $-1 -1 $-1 $161 -75 $162 75 $96 $163 forward @7 unknown #
face $-1 -1 $-1 $-1 $164 $23 $-1 $165 reversed single #
loop $-1 -1 $-1 $166 $167 $61 #
plane-surface $-1 -1 $-1 5.8647450110864696 -35.000000000000142 3.672078531307969e-015 0 1 0 0 0 1 forward_v I I I I #
loop $-1 -1 $-1 $-1 $168 $42 #
coedge $-1 -1 $-1 $102 $102 $167 $169 forward $62 $-1 #
coedge $-1 -1 $-1 $103 $103 $170 $171 reversed $64 $-1 #
coedge $-1 -1 $-1 $104 $104 $65 $105 reversed $166 $-1 #
edge $-1 -1 $-1 $172 -3.1415926535897931 $172 3.1415926535897931 $65 $173 forward @7 unknown #
model_id-kcp-attrib $-1 -1 $-1 $-1 $67 1 1021579009 1021579009 -2031484927 6 #
face $174 -1 $-1 $175 $176 $8 $-1 $177 reversed single #
loop $-1 -1 $-1 $178 $179 $67 #
plane-surface $-1 -1 $-1 0 140 0 0 -1 0 -10 0 0 forward_v I I I I #
coedge $-1 -1 $-1 $120 $119 $179 $180 forward $68 $-1 #
coedge $-1 -1 $-1 $181 $70 $120 $182 forward $47 $-1 #
coedge $-1 -1 $-1 $70 $181 $119 $183 reversed $47 $-1 #
edge $-1 -1 $-1 $80 0 $117 3.1415926535897931 $71 $184 forward @7 unknown #
coedge $-1 -1 $-1 $77 $77 $72 $115 forward $122 $-1 #
edge $185 -1 $-1 $116 0 $79 3.1415926535897931 $72 $186 forward @7 unknown #
vertex $-1 -1 $-1 $78 $187 #
vertex $-1 -1 $-1 $74 $188 #
straight-curve $-1 -1 $-1 -90 0 -2.2042914368802791e-014 0 10 0 I I #
coedge $-1 -1 $-1 $110 $75 $112 $183 forward $68 $-1 #
coedge $-1 -1 $-1 $75 $110 $111 $182 reversed $68 $-1 #
ellipse-curve $-1 -1 $-1 4.4408920985006262e-015 29.999999999999858 -8.8817841970012523e-015 0 -1 0 90.000000000000014 0 1.9903241381402648e-014 1 I I #
loop $-1 -1 $-1 $-1 $114 $189 #
attrib_edge_convexity-kcp-attrib $-1 -1 $190 $-1 $78 2 #
ellipse-curve $-1 -1 $-1 0 0 -1.7763568394002505e-014 0 -1 0 90 0 3.1251384334941893e-014 1 I I #
point $-1 -1 $-1 90 0 1.3487815940939391e-014 #
point $-1 -1 $-1 90.000000000000014 29.999999999999858 1.1021457184401397e-014 #
face $-1 -1 $-1 $191 $192 $20 $-1 $193 forward single #
loop $-1 -1 $-1 $-1 $194 $82 #
coedge $-1 -1 $-1 $195 $196 $194 $197 forward $83 $-1 #
coedge $-1 -1 $-1 $198 $84 $199 $200 reversed $55 $-1 #
coedge $-1 -1 $-1 $84 $198 $86 $138 forward $55 $-1 #
coedge $-1 -1 $-1 $201 $202 $84 $133 forward $203 $-1 #
edge $-1 -1 $-1 $204 -3.1415926535897931 $205 -1.5707963267948966 $132 $206 forward @7 unknown #
coedge $-1 -1 $-1 $86 $85 $207 $208 reversed $37 $-1 #
coedge $-1 -1 $-1 $196 $195 $209 $136 reversed $83 $-1 #
edge $-1 -1 $-1 $142 -150 $210 0 $209 $211 forward @7 unknown #
coedge $-1 -1 $-1 $212 $213 $214 $138 forward $215 $-1 #
edge $-1 -1 $-1 $143 -150 $205 0 $137 $216 forward @7 unknown #
coedge $-1 -1 $-1 $140 $87 $213 $217 reversed $141 $-1 #
coedge $-1 -1 $-1 $87 $139 $218 $219 forward $141 $-1 #
loop $-1 -1 $-1 $-1 $87 $220 #
vertex $-1 -1 $-1 $221 $222 #
vertex $-1 -1 $-1 $223 $224 #
ellipse-curve $-1 -1 $-1 2.0581676724159658e-031 -75 1.7763568394002505e-014 0 1 0 -115 0 -3.6801326332976323e-015 1 I I #
face $225 -1 $-1 $226 $227 $21 $-1 $228 reversed single #
loop $-1 -1 $-1 $-1 $229 $90 #
plane-surface $-1 -1 $-1 -115 0 0 1 0 0 0 0 -1 forward_v I I I I #
coedge $-1 -1 $-1 $230 $156 $231 $232 forward $91 $-1 #
coedge $-1 -1 $-1 $233 $93 $230 $234 forward $58 $-1 #
coedge $-1 -1 $-1 $93 $233 $235 $236 forward $58 $-1 #
coedge $-1 -1 $-1 $159 $158 $93 $152 reversed $160 $-1 #
edge $-1 -1 $-1 $237 -75 $238 75 $151 $239 forward @7 unknown #
coedge $-1 -1 $-1 $95 $94 $240 $241 forward $40 $-1 #
coedge $-1 -1 $-1 $242 $243 $94 $155 reversed $227 $-1 #
edge $-1 -1 $-1 $162 -115 $244 115 $154 $245 forward @7 unknown #
coedge $-1 -1 $-1 $148 $246 $95 $157 reversed $91 $-1 #
edge $-1 -1 $-1 $247 -115 $161 115 $156 $248 forward @7 unknown #
coedge $-1 -1 $-1 $151 $96 $246 $249 forward $160 $-1 #
coedge $-1 -1 $-1 $96 $151 $242 $250 reversed $160 $-1 #
loop $-1 -1 $-1 $-1 $158 $226 #
vertex $-1 -1 $-1 $97 $251 #
vertex $-1 -1 $-1 $97 $252 #
straight-curve $-1 -1 $-1 115 0 115 0 1 0 I I #
loop $-1 -1 $-1 $253 $254 $98 #
plane-surface $-1 -1 $-1 5.8647450110864696 -65 3.672078531307969e-015 0 1 0 0 0 1 forward_v I I I I #
loop $-1 -1 $-1 $-1 $104 $61 #
coedge $-1 -1 $-1 $167 $167 $102 $169 reversed $99 $-1 #
coedge $-1 -1 $-1 $168 $168 $254 $255 reversed $101 $-1 #
edge $-1 -1 $-1 $256 -1.2246465878873699e-016 $256 6.2831853071795862 $102 $257 forward @7 unknown #
coedge $-1 -1 $-1 $170 $170 $103 $171 forward $253 $-1 #
edge $258 -1 $-1 $259 -3.1415926535897931 $259 3.1415926535897931 $103 $260 forward @7 unknown #
vertex $-1 -1 $-1 $105 $261 #
ellipse-curve $-1 -1 $-1 2.0581676724159658e-031 -35.000000000000142 1.7763568394002505e-014 0 -1 0 -115 0 -3.6801326332976323e-015 1 I I #
model_id-kcp-attrib $-1 -1 $-1 $-1 $107 1 1021579009 1021579009 -2031484927 7 #
face $262 -1 $-1 $263 $264 $8 $-1 $265 reversed single #
loop $-1 -1 $-1 $-1 $266 $107 #
cone-surface $-1 -1 $-1 0 444.03380651844043 0 0 1 0 1.7632698070846453 0 0 1 I I -0.17364817766692991 0.98480775301220813 1.7632698070846453 forward I I I I #
loop $-1 -1 $-1 $-1 $267 $67 #
coedge $-1 -1 $-1 $268 $268 $110 $180 reversed $108 $-1 #
edge $269 -1 $-1 $270 0 $271 3.1415926535897931 $110 $272 forward @7 unknown #
coedge $-1 -1 $-1 $112 $111 $268 $273 reversed $47 $-1 #
edge $-1 -1 $-1 $117 0 $271 11.169692730743209 $120 $274 forward @7 unknown #
edge $-1 -1 $-1 $80 0 $270 11.169692730743209 $119 $275 forward @7 unknown #
ellipse-curve $-1 -1 $-1 0 29.999999999999858 0 0 1 0 90.000000000000014 0 1.1021457184401397e-014 1 I I #
attrib_edge_convexity-kcp-attrib $-1 -1 $276 $-1 $115 2 #
ellipse-curve $-1 -1 $-1 -4.4408920985006262e-015 0 4.4408920985006262e-015 0 -1 0 -90 0 -1.5462711389486954e-014 1 I I #
point $-1 -1 $-1 -90 0 -1.1021819290986329e-014 #
point $-1 -1 $-1 -90.000000000000014 29.999999999999858 -2.2042914368802794e-014 #
face $277 -1 $-1 $-1 $278 $8 $-1 $279 reversed single #
convexity-sys-attrib $-1 -1 $-1 $123 $78 #
face $-1 -1 $-1 $280 $281 $20 $-1 $282 reversed single #
loop $-1 -1 $-1 $-1 $214 $127 #
plane-surface $-1 -1 $-1 0 0 115 0 0 1 1 0 0 forward_v I I I I #
coedge $-1 -1 $-1 $283 $284 $285 $197 reversed $128 $-1 #
coedge $-1 -1 $-1 $135 $129 $286 $287 reversed $83 $-1 #
coedge $-1 -1 $-1 $129 $135 $288 $289 reversed $83 $-1 #
edge $-1 -1 $-1 $290 -150 $291 0 $285 $292 forward @7 unknown #
coedge $-1 -1 $-1 $131 $130 $293 $294 reversed $55 $-1 #
coedge $-1 -1 $-1 $295 $296 $297 $200 forward $298 $-1 #
edge $-1 -1 $-1 $299 -150 $204 0 $199 $300 forward @7 unknown #
coedge $-1 -1 $-1 $202 $132 $301 $302 reversed $203 $-1 #
coedge $-1 -1 $-1 $132 $201 $295 $303 forward $203 $-1 #
loop $-1 -1 $-1 $-1 $132 $304 #
vertex $-1 -1 $-1 $305 $306 #
vertex $-1 -1 $-1 $307 $308 #
ellipse-curve $-1 -1 $-1 2.0581676724159658e-031 75 1.7763568394002505e-014 0 -1 0 -115 0 -3.6801326332976323e-015 1 I I #
coedge $-1 -1 $-1 $309 $310 $134 $208 forward $311 $-1 #
edge $-1 -1 $-1 $205 -1.5707963267948966 $210 -3.200115333302289e-017 $207 $206 forward @7 unknown #
coedge $-1 -1 $-1 $312 $313 $314 $136 forward $281 $-1 #
vertex $-1 -1 $-1 $315 $316 #
straight-curve $-1 -1 $-1 -115 75 1.7763568394002505e-014 0 1 0 I I #
coedge $-1 -1 $-1 $317 $137 $310 $307 forward $215 $-1 #
coedge $-1 -1 $-1 $137 $317 $139 $217 forward $215 $-1 #
coedge $-1 -1 $-1 $318 $301 $131 $138 reversed $192 $-1 #
loop $-1 -1 $-1 $-1 $137 $319 #
straight-curve $-1 -1 $-1 2.0581676724159658e-031 75 115 0 1 0 I I #
edge $-1 -1 $-1 $320 -115 $143 2.0581676724159658e-031 $139 $321 forward @7 unknown #
coedge $-1 -1 $-1 $322 $314 $140 $219 reversed $323 $-1 #
edge $-1 -1 $-1 $320 -115 $142 -1.7763568394002505e-014 $218 $324 forward @7 unknown #
face $-1 -1 $-1 $325 $141 $20 $-1 $326 reversed single #
edge $-1 -1 $-1 $142 -1.7763568394002505e-014 $327 115 $313 $324 forward @7 unknown #
point $-1 -1 $-1 -115 -75 1.7763568394002505e-014 #
edge $-1 -1 $-1 $143 2.0581676724159658e-031 $328 115 $329 $321 forward @7 unknown #
point $-1 -1 $-1 2.0581676724159658e-031 -75 115 #
model_id-kcp-attrib $-1 -1 $-1 $-1 $145 1 1021579009 1021579009 -2031484926 2 #
face $-1 -1 $-1 $-1 $160 $21 $-1 $330 reversed single #
loop $-1 -1 $-1 $-1 $242 $145 #
plane-surface $-1 -1 $-1 0 75 0 0 -1 0 0 0 -1 forward_v I I I I #
coedge $-1 -1 $-1 $331 $240 $243 $332 forward $146 $-1 #
coedge $-1 -1 $-1 $246 $148 $149 $234 reversed $91 $-1 #
coedge $-1 -1 $-1 $240 $331 $148 $232 reversed $146 $-1 #
edge $-1 -1 $-1 $247 -115 $333 115 $231 $334 forward @7 unknown #
coedge $-1 -1 $-1 $150 $149 $331 $335 forward $58 $-1 #
edge $-1 -1 $-1 $238 -115 $333 115 $230 $336 forward @7 unknown #
coedge $-1 -1 $-1 $243 $242 $150 $236 reversed $227 $-1 #
edge $-1 -1 $-1 $337 -115 $237 115 $235 $338 forward @7 unknown #
vertex $-1 -1 $-1 $152 $339 #
vertex $-1 -1 $-1 $249 $340 #
straight-curve $-1 -1 $-1 115 0 -115 0 -1 0 I I #
coedge $-1 -1 $-1 $229 $231 $153 $241 reversed $146 $-1 #
edge $-1 -1 $-1 $244 -75 $247 75 $240 $341 forward @7 unknown #
coedge $-1 -1 $-1 $235 $154 $159 $250 forward $227 $-1 #
coedge $-1 -1 $-1 $154 $235 $229 $332 reversed $227 $-1 #
vertex $-1 -1 $-1 $155 $342 #
straight-curve $-1 -1 $-1 0 75 115 -1 0 0 I I #
coedge $-1 -1 $-1 $156 $230 $158 $249 reversed $91 $-1 #
vertex $-1 -1 $-1 $241 $343 #
straight-curve $-1 -1 $-1 0 -75 115 1 0 0 I I #
edge $-1 -1 $-1 $161 -115 $238 115 $158 $344 forward @7 unknown #
edge $-1 -1 $-1 $162 -115 $237 115 $159 $345 forward @7 unknown #
point $-1 -1 $-1 115 -75 115 #
point $-1 -1 $-1 115 75 115 #
loop $-1 -1 $-1 $-1 $170 $98 #
coedge $-1 -1 $-1 $254 $254 $168 $255 forward $164 $-1 #
edge $346 -1 $-1 $347 -3.1415926535897931 $347 3.1415926535897931 $168 $348 forward @7 unknown #
vertex $-1 -1 $-1 $169 $349 #
ellipse-curve $-1 -1 $-1 0 -35.000000000000142 0 0 1 0 -90 0 0 1 I I #
convexity-sys-attrib $-1 -1 $-1 $-1 $171 #
vertex $-1 -1 $-1 $171 $350 #
ellipse-curve $-1 -1 $-1 2.0581676724159658e-031 -65 1.7763568394002505e-014 0 -1 0 -115 0 -3.6801326332976323e-015 1 I I #
point $-1 -1 $-1 115 -35.000000000000142 3.5526674096257477e-014 #
model_id-kcp-attrib $-1 -1 $-1 $-1 $175 1 1021579009 1021579009 -2031484927 8 #
face $351 -1 $-1 $352 $353 $8 $-1 $354 reversed single #
loop $-1 -1 $-1 $-1 $355 $175 #
cone-surface $-1 -1 $-1 0 444.03380651844043 0 0 1 0 1.7632698070846453 0 0 1 I I -0.17364817766692991 0.98480775301220813 1.7632698070846453 forward I I I I #
coedge $-1 -1 $-1 $356 $357 $358 $359 reversed $176 $-1 #
coedge $-1 -1 $-1 $360 $360 $357 $361 reversed $178 $-1 #
coedge $-1 -1 $-1 $179 $179 $181 $273 forward $108 $-1 #
attrib_edge_convexity-kcp-attrib $-1 -1 $362 $-1 $180 1 #
vertex $-1 -1 $-1 $183 $363 #
vertex $-1 -1 $-1 $182 $364 #
ellipse-curve $-1 -1 $-1 -2.2204460492503131e-015 140 -6.6613381477509392e-015 0 -1 0 70.604032122068872 0 6.6613381477509392e-015 1 I I #
edge $365 -1 $-1 $270 0 $271 3.1415926535897931 $268 $366 forward @7 unknown #
straight-curve $-1 -1 $-1 -90.000000000000014 29.999999999999858 -2.2042914368802794e-014 1.7364817766693006 9.8480775301220795 4.2530132340119893e-016 I I #
straight-curve $-1 -1 $-1 90.000000000000014 29.999999999999858 1.1021457184401397e-014 -1.7364817766693006 9.8480775301220795 -2.1265066170059946e-016 I I #
convexity-sys-attrib $-1 -1 $-1 $185 $115 #
model_id-kcp-attrib $-1 -1 $-1 $-1 $189 1 1021579009 1021579009 -2031484927 14 #
loop $-1 -1 $-1 $122 $367 $189 #
plane-surface $-1 -1 $-1 0 0 0 0 -1 0 -10 0 0 forward_v I I I I #
face $-1 -1 $-1 $368 $369 $20 $-1 $370 reversed single #
loop $-1 -1 $-1 $-1 $209 $191 #
plane-surface $-1 -1 $-1 -115 0 0 1 0 0 0 0 -1 forward_v I I I I #
coedge $-1 -1 $-1 $371 $194 $372 $373 reversed $128 $-1 #
coedge $-1 -1 $-1 $194 $371 $374 $375 reversed $128 $-1 #
coedge $-1 -1 $-1 $376 $377 $378 $197 forward $379 $-1 #
coedge $-1 -1 $-1 $380 $381 $195 $287 forward $382 $-1 #
edge $-1 -1 $-1 $210 -3.200115333302289e-017 $291 1.5707963267948966 $286 $206 forward @7 unknown #
coedge $-1 -1 $-1 $383 $384 $196 $289 forward $385 $-1 #
edge $-1 -1 $-1 $290 -1.5707963267948966 $142 3.200115333302289e-017 $288 $144 forward @7 unknown #
vertex $-1 -1 $-1 $386 $387 #
vertex $-1 -1 $-1 $388 $389 #
straight-curve $-1 -1 $-1 2.0581676724159658e-031 75 -115 0 1 0 I I #
coedge $-1 -1 $-1 $390 $329 $198 $294 forward $391 $-1 #
edge $-1 -1 $-1 $143 1.5707963267948966 $299 3.1415926535897931 $293 $144 forward @7 unknown #
coedge $-1 -1 $-1 $392 $199 $202 $303 reversed $298 $-1 #
coedge $-1 -1 $-1 $199 $392 $390 $393 forward $298 $-1 #
coedge $-1 -1 $-1 $394 $395 $371 $200 reversed $369 $-1 #
loop $-1 -1 $-1 $-1 $199 $396 #
vertex $-1 -1 $-1 $397 $398 #
straight-curve $-1 -1 $-1 115 75 1.7763568394002505e-014 0 1 0 I I #
coedge $-1 -1 $-1 $214 $399 $201 $302 forward $192 $-1 #
edge $-1 -1 $-1 $400 -115 $205 -2.0581676724159658e-031 $201 $401 forward @7 unknown #
edge $-1 -1 $-1 $400 -115 $204 -1.7763568394002505e-014 $295 $402 forward @7 unknown #
face $-1 -1 $-1 $403 $203 $20 $-1 $404 reversed single #
edge $-1 -1 $-1 $204 -1.7763568394002505e-014 $405 115 $395 $402 forward @7 unknown #
point $-1 -1 $-1 115 75 1.7763568394002505e-014 #
edge $-1 -1 $-1 $205 -2.0581676724159658e-031 $406 115 $310 $401 forward @7 unknown #
point $-1 -1 $-1 2.0581676724159658e-031 75 115 #
coedge $-1 -1 $-1 $310 $207 $407 $408 reversed $311 $-1 #
coedge $-1 -1 $-1 $207 $309 $212 $307 reversed $311 $-1 #
loop $-1 -1 $-1 $-1 $207 $403 #
coedge $-1 -1 $-1 $409 $209 $381 $315 forward $281 $-1 #
coedge $-1 -1 $-1 $209 $409 $383 $221 reversed $281 $-1 #
coedge $-1 -1 $-1 $218 $407 $85 $136 reversed $323 $-1 #
edge $-1 -1 $-1 $210 -1.7763568394002505e-014 $410 115 $381 $411 forward @7 unknown #
point $-1 -1 $-1 -115 75 1.7763568394002505e-014 #
coedge $-1 -1 $-1 $213 $212 $322 $412 forward $215 $-1 #
coedge $-1 -1 $-1 $399 $214 $329 $223 forward $192 $-1 #
face $-1 -1 $-1 $413 $215 $20 $-1 $193 forward single #
vertex $-1 -1 $-1 $412 $414 #
straight-curve $-1 -1 $-1 0 -75 115 1 0 0 I I #
coedge $-1 -1 $-1 $407 $218 $317 $412 reversed $323 $-1 #
loop $-1 -1 $-1 $-1 $314 $415 #
straight-curve $-1 -1 $-1 -115 -75 0 0 0 -1 I I #
face $-1 -1 $-1 $416 $391 $20 $-1 $326 reversed single #
plane-surface $-1 -1 $-1 0 -75 0 0 1 0 0 0 1 forward_v I I I I #
vertex $-1 -1 $-1 $417 $418 #
vertex $-1 -1 $-1 $419 $420 #
coedge $-1 -1 $-1 $293 $390 $318 $223 reversed $391 $-1 #
plane-surface $-1 -1 $-1 115 0 0 -1 0 0 0 0 1 forward_v I I I I #
coedge $-1 -1 $-1 $231 $229 $233 $335 reversed $146 $-1 #
edge $-1 -1 $-1 $244 -115 $337 115 $243 $421 forward @7 unknown #
vertex $-1 -1 $-1 $335 $422 #
straight-curve $-1 -1 $-1 -115 -75 0 0 0 -1 I I #
edge $-1 -1 $-1 $333 -75 $337 75 $331 $423 forward @7 unknown #
straight-curve $-1 -1 $-1 0 -75 -115 -1 0 0 I I #
vertex $-1 -1 $-1 $236 $424 #
straight-curve $-1 -1 $-1 0 75 -115 1 0 0 I I #
point $-1 -1 $-1 115 75 -115 #
point $-1 -1 $-1 115 -75 -115 #
straight-curve $-1 -1 $-1 -115 0 115 0 -1 0 I I #
point $-1 -1 $-1 -115 75 115 #
point $-1 -1 $-1 -115 -75 115 #
straight-curve $-1 -1 $-1 115 -75 0 0 0 -1 I I #
straight-curve $-1 -1 $-1 115 75 0 0 0 -1 I I #
convexity-sys-attrib $-1 -1 $-1 $-1 $255 #
vertex $-1 -1 $-1 $255 $425 #
ellipse-curve $-1 -1 $-1 0 -65 0 0 1 0 -90 0 0 1 I I #
point $-1 -1 $-1 -90 -35.000000000000142 -1.1021819290986329e-014 #
point $-1 -1 $-1 115 -65 3.5526674096257477e-014 #
model_id-kcp-attrib $-1 -1 $-1 $-1 $263 1 1021579009 1021579009 -2031484927 9 #
face $426 -1 $-1 $427 $428 $8 $-1 $429 reversed single #
loop $-1 -1 $-1 $-1 $430 $263 #
cone-surface $-1 -1 $-1 0 -17.5 0 0 1 0 75 0 0 1 I I 0 1 75 forward I I I I #
coedge $-1 -1 $-1 $431 $432 $433 $434 reversed $264 $-1 #
coedge $-1 -1 $-1 $433 $266 $435 $436 forward $176 $-1 #
coedge $-1 -1 $-1 $266 $433 $267 $361 forward $176 $-1 #
coedge $-1 -1 $-1 $432 $431 $266 $359 forward $264 $-1 #
edge $-1 -1 $-1 $437 0 $438 11.302950206517007 $358 $439 forward @7 unknown #
coedge $-1 -1 $-1 $267 $267 $432 $440 reversed $178 $-1 #
edge $441 -1 $-1 $442 0 $438 3.1415926535897931 $267 $443 forward @7 unknown #
convexity-sys-attrib $-1 -1 $-1 $269 $180 #
point $-1 -1 $-1 70.604032122068872 140 0 #
point $-1 -1 $-1 -70.604032122068872 140 0 #
attrib_edge_convexity-kcp-attrib $-1 -1 $444 $-1 $273 1 #
ellipse-curve $-1 -1 $-1 -2.2204460492503131e-015 140 6.6613381477509392e-015 0 1 0 70.604032122068872 0 -6.6613381477509392e-015 1 I I #
coedge $-1 -1 $-1 $445 $445 $446 $447 reversed $278 $-1 #
face $-1 -1 $-1 $304 $448 $20 $-1 $404 reversed single #
loop $-1 -1 $-1 $-1 $297 $280 #
plane-surface $-1 -1 $-1 115 0 0 -1 0 0 0 0 1 forward_v I I I I #
coedge $-1 -1 $-1 $284 $283 $130 $200 forward $128 $-1 #
coedge $-1 -1 $-1 $449 $450 $283 $373 forward $451 $-1 #
edge $-1 -1 $-1 $299 -3.1415926535897931 $290 -1.5707963267948966 $372 $144 forward @7 unknown #
coedge $-1 -1 $-1 $452 $453 $284 $375 forward $448 $-1 #
edge $-1 -1 $-1 $291 1.5707963267948966 $204 3.1415926535897931 $374 $206 forward @7 unknown #
coedge $-1 -1 $-1 $454 $285 $453 $388 forward $379 $-1 #
coedge $-1 -1 $-1 $285 $454 $449 $455 forward $379 $-1 #
coedge $-1 -1 $-1 $456 $457 $129 $197 reversed $458 $-1 #
loop $-1 -1 $-1 $-1 $285 $413 #
coedge $-1 -1 $-1 $381 $286 $457 $459 reversed $382 $-1 #
coedge $-1 -1 $-1 $286 $380 $312 $315 reversed $382 $-1 #
loop $-1 -1 $-1 $-1 $286 $460 #
coedge $-1 -1 $-1 $384 $288 $313 $221 forward $385 $-1 #
coedge $-1 -1 $-1 $288 $383 $456 $386 reversed $385 $-1 #
loop $-1 -1 $-1 $-1 $288 $461 #
edge $-1 -1 $-1 $290 -2.0581676724159658e-031 $327 115 $384 $462 forward @7 unknown #
point $-1 -1 $-1 2.0581676724159658e-031 -75 -115 #
edge $-1 -1 $-1 $291 2.0581676724159658e-031 $405 115 $453 $463 forward @7 unknown #
point $-1 -1 $-1 2.0581676724159658e-031 75 -115 #
coedge $-1 -1 $-1 $329 $293 $296 $393 reversed $391 $-1 #
loop $-1 -1 $-1 $-1 $293 $325 #
coedge $-1 -1 $-1 $296 $295 $399 $419 reversed $298 $-1 #
edge $-1 -1 $-1 $328 -115 $299 -1.7763568394002505e-014 $296 $464 forward @7 unknown #
coedge $-1 -1 $-1 $465 $297 $450 $397 forward $369 $-1 #
coedge $-1 -1 $-1 $297 $465 $452 $305 reversed $369 $-1 #
face $-1 -1 $-1 $-1 $298 $20 $-1 $370 reversed single #
edge $-1 -1 $-1 $299 -1.7763568394002505e-014 $466 115 $394 $464 forward @7 unknown #
point $-1 -1 $-1 115 -75 1.7763568394002505e-014 #
coedge $-1 -1 $-1 $301 $318 $392 $419 forward $192 $-1 #
vertex $-1 -1 $-1 $419 $467 #
straight-curve $-1 -1 $-1 0 75 115 -1 0 0 I I #
straight-curve $-1 -1 $-1 115 75 0 0 0 -1 I I #
face $-1 -1 $-1 $460 $311 $20 $-1 $404 reversed single #
plane-surface $-1 -1 $-1 0 75 0 0 -1 0 0 0 -1 forward_v I I I I #
vertex $-1 -1 $-1 $468 $469 #
vertex $-1 -1 $-1 $307 $470 #
coedge $-1 -1 $-1 $314 $322 $309 $408 forward $323 $-1 #
edge $-1 -1 $-1 $406 -115 $210 -1.7763568394002505e-014 $309 $411 forward @7 unknown #
coedge $-1 -1 $-1 $313 $312 $471 $417 reversed $281 $-1 #
vertex $-1 -1 $-1 $459 $472 #
straight-curve $-1 -1 $-1 -115 75 0 0 0 -1 I I #
edge $-1 -1 $-1 $406 -75 $320 75 $322 $473 forward @7 unknown #
face $-1 -1 $-1 $415 $379 $20 $-1 $474 reversed single #
point $-1 -1 $-1 -115 -75 115 #
face $-1 -1 $-1 $396 $323 $20 $-1 $282 reversed single #
face $-1 -1 $-1 $475 $451 $20 $-1 $326 reversed single #
edge $-1 -1 $-1 $327 -75 $410 75 $409 $476 forward @7 unknown #
point $-1 -1 $-1 -115 -75 -115 #
edge $-1 -1 $-1 $328 -75 $400 75 $392 $477 forward @7 unknown #
point $-1 -1 $-1 115 -75 115 #
straight-curve $-1 -1 $-1 -115 75 0 0 0 -1 I I #
point $-1 -1 $-1 -115 -75 -115 #
straight-curve $-1 -1 $-1 -115 0 -115 0 1 0 I I #
point $-1 -1 $-1 -115 75 -115 #
point $-1 -1 $-1 90 -65 1.3487815940939391e-014 #
model_id-kcp-attrib $-1 -1 $-1 $-1 $352 1 1021579009 1021579009 -2031484927 10 #
face $478 -1 $-1 $479 $480 $8 $-1 $481 forward single #
loop $-1 -1 $-1 $-1 $482 $352 #
cone-surface $-1 -1 $-1 0 -17.5 0 0 1 0 75 0 0 1 I I 0 1 75 forward I I I I #
coedge $-1 -1 $-1 $483 $484 $485 $486 forward $353 $-1 #
coedge $-1 -1 $-1 $358 $355 $483 $487 reversed $264 $-1 #
coedge $-1 -1 $-1 $355 $358 $360 $440 forward $264 $-1 #
coedge $-1 -1 $-1 $357 $356 $355 $434 forward $176 $-1 #
edge $-1 -1 $-1 $488 3.9062002719463035e-032 $442 11.302950206517007 $355 $489 forward @7 unknown #
coedge $-1 -1 $-1 $485 $482 $356 $436 reversed $428 $-1 #
edge $-1 -1 $-1 $437 0 $488 3.1415926535897931 $435 $490 forward @7 unknown #
vertex $-1 -1 $-1 $487 $491 #
vertex $-1 -1 $-1 $440 $492 #
straight-curve $-1 -1 $-1 75.000000000000014 28.687670047111098 0 -1.7364817766692988 9.8480775301220831 0 I I #
edge $493 -1 $-1 $438 0 $442 3.1415926535897931 $360 $494 forward @7 unknown #
attrib_edge_convexity-kcp-attrib $-1 -1 $495 $-1 $361 1 #
vertex $-1 -1 $-1 $440 $496 #
ellipse-curve $-1 -1 $-1 0 140 6.6613381477509392e-015 0 1 0 -55.372632943782719 0 -6.6613381477509392e-015 1 I I #
convexity-sys-attrib $-1 -1 $-1 $365 $273 #
coedge $-1 -1 $-1 $367 $367 $497 $498 reversed $278 $-1 #
coedge $-1 -1 $-1 $499 $500 $367 $447 forward $501 $-1 #
edge $502 -1 $-1 $503 0 $504 3.1415926535897931 $367 $505 forward @7 unknown #
loop $-1 -1 $-1 $-1 $374 $368 #
coedge $-1 -1 $-1 $450 $372 $377 $455 reversed $451 $-1 #
coedge $-1 -1 $-1 $372 $449 $394 $397 reversed $451 $-1 #
loop $-1 -1 $-1 $-1 $372 $416 #
coedge $-1 -1 $-1 $453 $374 $395 $305 forward $448 $-1 #
coedge $-1 -1 $-1 $374 $452 $376 $388 reversed $448 $-1 #
coedge $-1 -1 $-1 $377 $376 $465 $468 forward $379 $-1 #
edge $-1 -1 $-1 $466 -115 $290 -2.0581676724159658e-031 $449 $462 forward @7 unknown #
coedge $-1 -1 $-1 $471 $378 $384 $386 forward $458 $-1 #
coedge $-1 -1 $-1 $378 $471 $380 $459 forward $458 $-1 #
loop $-1 -1 $-1 $-1 $378 $475 #
edge $-1 -1 $-1 $410 -115 $291 2.0581676724159658e-031 $380 $463 forward @7 unknown #
face $-1 -1 $-1 $461 $382 $20 $-1 $404 reversed single #
face $-1 -1 $-1 $220 $385 $20 $-1 $326 reversed single #
straight-curve $-1 -1 $-1 0 -75 -115 -1 0 0 I I #
straight-curve $-1 -1 $-1 0 75 -115 1 0 0 I I #
straight-curve $-1 -1 $-1 115 -75 0 0 0 -1 I I #
coedge $-1 -1 $-1 $395 $394 $454 $468 reversed $369 $-1 #
vertex $-1 -1 $-1 $397 $506 #
point $-1 -1 $-1 115 75 115 #
edge $-1 -1 $-1 $405 -75 $466 75 $465 $507 forward @7 unknown #
point $-1 -1 $-1 115 75 -115 #
point $-1 -1 $-1 -115 75 115 #
coedge $-1 -1 $-1 $457 $456 $409 $417 forward $458 $-1 #
point $-1 -1 $-1 -115 75 -115 #
straight-curve $-1 -1 $-1 -115 0 115 0 -1 0 I I #
plane-surface $-1 -1 $-1 0 0 -115 0 0 1 1 0 0 forward_v I I I I #
face $-1 -1 $-1 $319 $458 $20 $-1 $474 reversed single #
straight-curve $-1 -1 $-1 -115 0 -115 0 1 0 I I #
straight-curve $-1 -1 $-1 115 0 115 0 1 0 I I #
model_id-kcp-attrib $-1 -1 $-1 $-1 $427 1 1021579009 1021579009 -2031484927 11 #
face $508 -1 $-1 $509 $501 $8 $-1 $510 forward single #
loop $-1 -1 $-1 $511 $512 $427 #
plane-surface $-1 -1 $-1 0 -10 0 0 -1 0 -10 0 0 forward_v I I I I #
coedge $-1 -1 $-1 $435 $513 $514 $515 forward $428 $-1 #
coedge $-1 -1 $-1 $514 $430 $431 $487 forward $353 $-1 #
coedge $-1 -1 $-1 $430 $514 $516 $517 reversed $353 $-1 #
coedge $-1 -1 $-1 $513 $435 $430 $486 reversed $428 $-1 #
edge $-1 -1 $-1 $518 0 $437 3.8687670047111098 $430 $519 forward @7 unknown #
edge $-1 -1 $-1 $437 0 $488 3.1415926535897931 $483 $520 forward @7 unknown #
vertex $-1 -1 $-1 $515 $521 #
straight-curve $-1 -1 $-1 -75.000000000000014 28.687670047111098 9.184547653667831e-015 1.7364817766692988 9.8480775301220831 -2.1265066170059946e-016 I I #
ellipse-curve $-1 -1 $-1 -2.2204460492503131e-015 28.687670047111098 -6.6613381477509392e-015 0 -1 0 75.000000000000014 0 6.6613381477509392e-015 1 I I #
point $-1 -1 $-1 75.000000000000014 28.687670047111098 0 #
point $-1 -1 $-1 55.372632943782719 140 0 #
attrib_edge_convexity-kcp-attrib $-1 -1 $522 $-1 $440 1 #
ellipse-curve $-1 -1 $-1 -2.2204460492503131e-015 140 -6.6613381477509392e-015 0 1 0 55.372632943782719 0 6.6613381477509392e-015 1 I I #
convexity-sys-attrib $-1 -1 $-1 $441 $361 #
point $-1 -1 $-1 -55.372632943782719 140 0 #
coedge $-1 -1 $-1 $523 $524 $445 $498 forward $525 $-1 #
edge $526 -1 $-1 $504 0 $503 3.1415926535897931 $445 $527 forward @7 unknown #
coedge $-1 -1 $-1 $528 $446 $524 $529 forward $501 $-1 #
coedge $-1 -1 $-1 $446 $528 $523 $530 reversed $501 $-1 #
loop $-1 -1 $-1 $-1 $499 $479 #
attrib_edge_convexity-kcp-attrib $-1 -1 $531 $-1 $447 1 #
vertex $-1 -1 $-1 $498 $532 #
vertex $-1 -1 $-1 $498 $533 #
ellipse-curve $-1 -1 $-1 0 0 0 0 -1 0 115 0 -1.4083435760704776e-014 1 I I #
point $-1 -1 $-1 115 -75 -115 #
straight-curve $-1 -1 $-1 115 0 -115 0 -1 0 I I #
model_id-kcp-attrib $-1 -1 $-1 $-1 $479 1 1021579009 1021579009 -2031484927 12 #
face $534 -1 $-1 $189 $525 $8 $-1 $535 forward single #
cone-surface $-1 -1 $-1 0 0 0 0 -1 0 -115 0 0 1 I I 0 1 115 forward I I I I #
loop $-1 -1 $-1 $-1 $536 $427 #
coedge $-1 -1 $-1 $537 $537 $528 $538 forward $480 $-1 #
coedge $-1 -1 $-1 $482 $485 $536 $539 reversed $428 $-1 #
coedge $-1 -1 $-1 $484 $483 $482 $515 reversed $353 $-1 #
edge $-1 -1 $-1 $540 0 $488 3.8687670047111098 $514 $541 forward @7 unknown #
coedge $-1 -1 $-1 $536 $536 $484 $517 forward $511 $-1 #
edge $-1 -1 $-1 $518 0 $540 3.1415926535897931 $516 $542 forward @7 unknown #
vertex $-1 -1 $-1 $517 $543 #
straight-curve $-1 -1 $-1 75 -10 0 0 10 0 I I #
ellipse-curve $-1 -1 $-1 -2.2204460492503131e-015 28.687670047111098 6.6613381477509392e-015 0 1 0 75.000000000000014 0 -6.6613381477509392e-015 1 I I #
point $-1 -1 $-1 -75.000000000000014 28.687670047111098 -9.184547653667831e-015 #
convexity-sys-attrib $-1 -1 $-1 $493 $440 #
coedge $-1 -1 $-1 $544 $497 $500 $530 forward $525 $-1 #
coedge $-1 -1 $-1 $497 $544 $499 $529 reversed $525 $-1 #
loop $-1 -1 $-1 $-1 $523 $509 #
attrib_edge_convexity-kcp-attrib $-1 -1 $545 $-1 $498 1 #
ellipse-curve $-1 -1 $-1 0 0 0 0 -1 0 -115 0 1.4083435760704874e-014 1 I I #
coedge $-1 -1 $-1 $500 $499 $512 $538 reversed $501 $-1 #
edge $-1 -1 $-1 $504 0 $546 1 $524 $547 forward @7 unknown #
edge $-1 -1 $-1 $503 0 $548 1 $523 $549 forward @7 unknown #
convexity-sys-attrib $-1 -1 $-1 $502 $447 #
point $-1 -1 $-1 115 0 -1.4083435760704776e-014 #
point $-1 -1 $-1 -115 0 1.4083435760704874e-014 #
model_id-kcp-attrib $-1 -1 $-1 $-1 $509 1 1021579009 1021579009 -2031484927 13 #
cone-surface $-1 -1 $-1 0 0 0 0 -1 0 -115 0 0 1 I I 0 1 115 forward I I I I #
coedge $-1 -1 $-1 $516 $516 $513 $539 forward $511 $-1 #
coedge $-1 -1 $-1 $512 $512 $544 $550 forward $480 $-1 #
edge $-1 -1 $-1 $548 0 $546 3.1415926535897931 $512 $551 forward @7 unknown #
edge $-1 -1 $-1 $540 0 $518 3.1415926535897931 $536 $552 forward @7 unknown #
vertex $-1 -1 $-1 $517 $553 #
straight-curve $-1 -1 $-1 -75 -10 9.1845476536678294e-015 0 10 0 I I #
ellipse-curve $-1 -1 $-1 0 -10 0 0 1 0 75 0 0 1 I I #
point $-1 -1 $-1 75 -10 0 #
coedge $-1 -1 $-1 $524 $523 $537 $550 reversed $525 $-1 #
convexity-sys-attrib $-1 -1 $-1 $526 $498 #
vertex $-1 -1 $-1 $550 $554 #
straight-curve $-1 -1 $-1 -115 0 0 0 -10 0 I I #
vertex $-1 -1 $-1 $550 $555 #
straight-curve $-1 -1 $-1 115 0 -1.4082973068957338e-014 0 -10 0 I I #
edge $-1 -1 $-1 $546 0 $548 3.1415926535897931 $537 $556 forward @7 unknown #
ellipse-curve $-1 -1 $-1 0 -10 -8.8817841970012523e-015 0 -1 0 115 0 -5.2016515637035238e-015 1 I I #
ellipse-curve $-1 -1 $-1 0 -10 0 0 1 0 -75 0 0 1 I I #
point $-1 -1 $-1 -75 -10 0 #
point $-1 -1 $-1 -115 -10 1.4083435760704872e-014 #
point $-1 -1 $-1 115 -10 -1.4083435760704776e-014 #
ellipse-curve $-1 -1 $-1 0 -10 1.7763568394002505e-014 0 -1 0 -115 0 -3.6801326332976323e-015 1 I I #
End-of-ACIS-data 