600 0 1 0           
103 GICL Pro/E ACIS Translator - Source: f:/data5/repository/PTC/V18/asmdes18/parts/spring_seat_2.prt - 6 0 13 ACIS 6.0.3 NT 24 Thu Apr 04 13:45:49 2002 
1 9.9999999999999995e-007 1e-010 
body $-1 $1 $-1 $2 #
lump $-1 $-1 $3 $0 #
transform $-1 1 0 0 0 1 0 0 0 1 0 0 0 10 no_rotate no_reflect no_shear #
shell $-1 $-1 $-1 $4 $-1 $1 #
face $-1 $5 $6 $3 $-1 $7 forward single #
face $-1 $8 $9 $3 $-1 $10 reversed single #
loop $-1 $-1 $11 $4 #
cone-surface $-1 0 12.041823898251604 0 0 1 0 -0.57735026918962529 0 0 1 I I -0.49999999999999967 0.86602540378443882 0.57735026918962529 forward I I I I #
face $-1 $12 $13 $3 $-1 $14 forward single #
loop $-1 $15 $16 $5 #
plane-surface $-1 0 4.5 0 0 -1 0 -1 0 0 forward_v I I I I #
coedge $-1 $17 $18 $16 $19 forward $6 $-1 #
face $-1 $20 $21 $3 $-1 $22 reversed single #
loop $-1 $-1 $23 $8 #
cone-surface $-1 0 12.041823898251604 0 0 1 0 -0.57735026918962529 0 0 1 I I -0.49999999999999967 0.86602540378443882 0.57735026918962529 forward I I I I #
loop $-1 $-1 $24 $5 #
coedge $-1 $25 $25 $11 $19 reversed $9 $-1 #
coedge $-1 $26 $11 $27 $28 reversed $6 $-1 #
coedge $-1 $11 $26 $29 $30 forward $6 $-1 #
edge $-1 $31 0 $32 3.1415926535897931 $11 $33 forward 7 unknown #
face $-1 $34 $35 $3 $-1 $36 forward single #
loop $-1 $37 $38 $12 #
plane-surface $-1 0 2 0 0 -1 0 -1 0 0 forward_v I I I I #
coedge $-1 $27 $29 $39 $40 forward $13 $-1 #
coedge $-1 $41 $41 $42 $43 reversed $15 $-1 #
coedge $-1 $16 $16 $44 $45 forward $9 $-1 #
coedge $-1 $18 $17 $46 $47 reversed $6 $-1 #
coedge $-1 $44 $23 $17 $28 forward $13 $-1 #
edge $-1 $48 0 $32 2.8867513459481291 $17 $49 forward 7 unknown #
coedge $-1 $23 $44 $18 $30 reversed $13 $-1 #
edge $-1 $50 0 $31 2.8867513459481291 $18 $51 forward 7 unknown #
vertex $-1 $30 $52 #
vertex $-1 $28 $53 #
ellipse-curve $-1 0 4.5 0 0 -1 0 4.9316243270259372 0 0 1 I I #
face $-1 $54 $55 $3 $-1 $56 forward single #
loop $-1 $-1 $57 $20 #
cone-surface $-1 0 4.7249999999999996 0 0 -1 0 -7.5 0 0 1 I I 0 1 7.5 forward I I I I #
loop $-1 $-1 $46 $12 #
coedge $-1 $58 $58 $59 $60 forward $21 $-1 #
coedge $-1 $46 $46 $23 $40 reversed $37 $-1 #
edge $-1 $50 0 $48 3.1415926535897931 $39 $61 forward 7 unknown #
coedge $-1 $24 $24 $62 $63 reversed $15 $-1 #
coedge $-1 $64 $65 $24 $43 forward $66 $-1 #
edge $-1 $67 0 $68 3.1415926535897931 $24 $69 forward 7 unknown #
coedge $-1 $29 $27 $25 $45 reversed $13 $-1 #
edge $-1 $31 0 $32 3.1415926535897931 $25 $70 forward 7 unknown #
coedge $-1 $39 $39 $26 $47 forward $37 $-1 #
edge $-1 $50 0 $48 3.1415926535897931 $26 $71 forward 7 unknown #
vertex $-1 $47 $72 #
straight-curve $-1 -6.3750000000000009 2 -1.5613731011235314e-015 0.49999999999999956 0.86602540378443882 1.224606353822376e-016 I I #
vertex $-1 $30 $73 #
straight-curve $-1 6.3750000000000009 2 7.806865505617657e-016 -0.49999999999999956 0.86602540378443882 -6.1230317691118801e-017 I I #
point $-1 4.9316243270259372 4.5 0 #
point $-1 -4.9316243270259372 4.5 0 #
face $-1 $74 $75 $3 $-1 $76 forward single #
loop $-1 $77 $78 $34 #
plane-surface $-1 0 0 0 0 -1 0 -1 0 0 forward_v I I I I #
coedge $-1 $79 $80 $81 $82 forward $35 $-1 #
coedge $-1 $38 $38 $83 $84 reversed $21 $-1 #
coedge $-1 $80 $79 $38 $60 reversed $35 $-1 #
edge $-1 $85 -1.2246063538223773e-016 $86 3.1415926535897931 $38 $87 forward 7 unknown #
ellipse-curve $-1 0 2 -2.2204460492503131e-016 0 1 0 6.3750000000000009 0 1.002731155486797e-015 1 I I #
coedge $-1 $88 $89 $41 $63 forward $90 $-1 #
edge $-1 $68 0 $67 3.1415926535897931 $41 $91 forward 7 unknown #
coedge $-1 $92 $42 $89 $93 reversed $66 $-1 #
coedge $-1 $42 $92 $88 $94 forward $66 $-1 #
loop $-1 $-1 $65 $74 #
vertex $-1 $63 $95 #
vertex $-1 $63 $96 #
ellipse-curve $-1 0 4.5 0 0 1 0 -4.3542740578363119 0 0 1 I I #
ellipse-curve $-1 0 4.5 0 0 1 0 4.9316243270259372 0 0 1 I I #
ellipse-curve $-1 0 2 2.2204460492503131e-016 0 -1 0 6.3750000000000009 0 5.5864194563673439e-016 1 I I #
point $-1 -6.3750000000000009 2 -1.5613731011235314e-015 #
point $-1 6.3750000000000009 2 7.806865505617657e-016 #
face $-1 $97 $66 $3 $-1 $98 reversed single #
loop $-1 $-1 $83 $54 #
cone-surface $-1 0 4.7249999999999996 0 0 -1 0 -7.5 0 0 1 I I 0 1 7.5 forward I I I I #
loop $-1 $-1 $99 $34 #
coedge $-1 $81 $81 $100 $101 forward $55 $-1 #
coedge $-1 $59 $57 $102 $103 forward $35 $-1 #
coedge $-1 $57 $59 $104 $105 reversed $35 $-1 #
coedge $-1 $78 $78 $57 $82 reversed $55 $-1 #
edge $-1 $106 0 $107 3.1415926535897931 $81 $108 forward 7 unknown #
coedge $-1 $102 $104 $58 $84 forward $75 $-1 #
edge $-1 $85 1.2246063538223773e-016 $86 3.1415926535897931 $83 $109 forward 7 unknown #
vertex $-1 $105 $110 #
vertex $-1 $103 $111 #
ellipse-curve $-1 2.2204460492503131e-016 2 -4.4408920985006262e-016 0 1 0 7.5 0 4.4408920985006262e-016 1 I I #
coedge $-1 $112 $62 $65 $94 reversed $90 $-1 #
coedge $-1 $62 $112 $64 $93 forward $90 $-1 #
loop $-1 $-1 $89 $97 #
ellipse-curve $-1 0 4.5 0 0 1 0 4.3542740578363119 0 0 1 I I #
coedge $-1 $65 $64 $99 $113 reversed $66 $-1 #
edge $-1 $114 3.9649187179138289e-015 $68 5.1961524227066356 $89 $115 forward 7 unknown #
edge $-1 $116 3.9649187179138289e-015 $67 5.1961524227066356 $88 $117 forward 7 unknown #
point $-1 -4.3542740578363119 4.5 0 #
point $-1 4.3542740578363119 4.5 0 #
face $-1 $-1 $90 $3 $-1 $118 reversed single #
cone-surface $-1 0 11.041823898251609 0 0 1 0 0.57735026918962484 0 0 1 I I -0.49999999999999939 0.86602540378443904 0.57735026918962484 forward I I I I #
coedge $-1 $119 $119 $92 $113 forward $77 $-1 #
coedge $-1 $104 $102 $78 $101 reversed $75 $-1 #
edge $-1 $106 0 $107 3.1415926535897931 $78 $120 forward 7 unknown #
coedge $-1 $100 $83 $79 $103 reversed $75 $-1 #
edge $-1 $107 0 $86 2 $102 $121 forward 7 unknown #
coedge $-1 $83 $100 $80 $105 forward $75 $-1 #
edge $-1 $106 0 $85 2 $104 $122 forward 7 unknown #
vertex $-1 $82 $123 #
vertex $-1 $82 $124 #
ellipse-curve $-1 -4.4408920985006262e-016 0 -2.2204460492503131e-016 0 1 0 7.5 0 1.1404993702918143e-015 1 I I #
ellipse-curve $-1 2.2204460492503131e-016 2 4.4408920985006262e-016 0 -1 0 7.5 0 -4.4408920985006262e-016 1 I I #
point $-1 7.5 2 9.1845476536678294e-016 #
point $-1 -7.5 2 0 #
coedge $-1 $89 $88 $119 $125 reversed $90 $-1 #
edge $-1 $116 0 $114 3.1415926535897931 $99 $126 forward 7 unknown #
vertex $-1 $125 $127 #
straight-curve $-1 6.9523502691896262 -3.5527136788005009e-015 0 -0.49999999999999933 0.86602540378443893 0 I I #
vertex $-1 $125 $128 #
straight-curve $-1 -6.9523502691896262 -3.5527136788005009e-015 8.5138923136483306e-016 0.49999999999999933 0.86602540378443893 -6.1230317691118777e-017 I I #
cone-surface $-1 0 11.041823898251609 0 0 1 0 0.57735026918962484 0 0 1 I I -0.49999999999999939 0.86602540378443904 0.57735026918962484 forward I I I I #
coedge $-1 $99 $99 $112 $125 forward $77 $-1 #
ellipse-curve $-1 2.2204460492503131e-016 0 0 0 -1 0 7.5 0 9.1845476536678294e-016 1 I I #
straight-curve $-1 -7.5 0 -1.8369095307335659e-015 0 1 0 I I #
straight-curve $-1 7.5 0 9.1845476536678294e-016 0 1 0 I I #
point $-1 7.5 0 9.1845476536678294e-016 #
point $-1 -7.5 0 -1.8369095307335659e-015 #
edge $-1 $114 0 $116 3.1415926535897931 $119 $129 forward 7 unknown #
ellipse-curve $-1 0 0 0 0 1 0 -6.9523502691896244 0 0 1 I I #
point $-1 6.9523502691896244 0 0 #
point $-1 -6.9523502691896244 0 0 #
ellipse-curve $-1 6.6613381477509392e-016 0 0 0 1 0 6.9523502691896235 0 0 1 I I #
End-of-ACIS-data 