600 0 1 0           
95 GICL ACIS Healer - Source: /gicl/data5/repository/PTC/V18/asmdes18/parts/spring_cover.sat - 6 0 18 ACIS 6.0.3 Solaris 24 Sat Apr 13 23:02:21 2002 
1 9.999999999999999547e-07 1.000000000000000036e-10 
body $-1 $1 $-1 $-1 #
lump $-1 $-1 $2 $0 #
shell $-1 $-1 $-1 $3 $-1 $1 #
face $-1 $4 $5 $2 $-1 $6 forward single #
face $-1 $7 $8 $2 $-1 $9 forward single #
loop $-1 $-1 $10 $3 #
cone-surface $-1 0 147 0 0 -1 0 -90 0 0 1 I I 0 1 90 forward I I I I #
face $-1 $11 $12 $2 $-1 $13 forward single #
loop $-1 $-1 $14 $4 #
cone-surface $-1 0 147 0 0 -1 0 -90 0 0 1 I I 0 1 90 forward I I I I #
coedge $-1 $15 $16 $17 $18 forward $5 $-1 #
face $-1 $19 $20 $2 $-1 $21 forward single #
loop $-1 $-1 $22 $7 #
cone-surface $-1 0 530.4153637655945204 0 0 1 0 -1.763269807084647534 0 0 1 I I -0.1736481776669301369 0.9848077530122081313 1.763269807084647534 forward I I I I #
coedge $-1 $23 $24 $25 $26 forward $8 $-1 #
coedge $-1 $25 $10 $27 $28 forward $5 $-1 #
coedge $-1 $10 $25 $29 $30 reversed $5 $-1 #
coedge $-1 $24 $23 $10 $18 reversed $8 $-1 #
edge $-1 $31 0 $32 2.999999999999985789 $10 $33 forward 7 unknown #
face $-1 $34 $35 $2 $-1 $36 reversed single #
loop $-1 $-1 $37 $11 #
cone-surface $-1 0 530.4153637655945204 0 0 1 0 -1.763269807084647534 0 0 1 I I -0.1736481776669301369 0.9848077530122081313 1.763269807084647534 forward I I I I #
coedge $-1 $38 $39 $23 $40 forward $12 $-1 #
coedge $-1 $17 $14 $22 $40 reversed $8 $-1 #
coedge $-1 $14 $17 $41 $42 reversed $8 $-1 #
coedge $-1 $16 $15 $14 $26 reversed $5 $-1 #
edge $-1 $43 0 $44 2.999999999999985789 $25 $45 forward 7 unknown #
coedge $-1 $46 $47 $15 $28 reversed $20 $-1 #
edge $-1 $32 0 $44 3.141592653589793116 $15 $48 forward 7 unknown #
coedge $-1 $41 $41 $16 $30 forward $49 $-1 #
edge $-1 $31 0 $43 3.141592653589792672 $16 $50 forward 7 unknown #
vertex $-1 $30 $51 #
vertex $-1 $28 $52 #
straight-curve $-1 90 0 1.102145718440139532e-14 0 10 0 I I #
face $-1 $53 $54 $2 $-1 $55 reversed single #
loop $-1 $56 $57 $19 #
plane-surface $-1 0 140 0 0 -1 0 -10 0 0 forward_v I I I I #
coedge $-1 $47 $46 $57 $58 forward $20 $-1 #
coedge $-1 $59 $22 $47 $60 forward $12 $-1 #
coedge $-1 $22 $59 $46 $61 reversed $12 $-1 #
edge $-1 $32 0 $44 3.141592653589793116 $23 $62 forward 7 unknown #
coedge $-1 $29 $29 $24 $42 forward $49 $-1 #
edge $-1 $43 0 $31 3.141592653589793116 $24 $63 forward 7 unknown #
vertex $-1 $30 $64 #
vertex $-1 $26 $65 #
straight-curve $-1 -90 0 -2.204291436880279065e-14 0 10 0 I I #
coedge $-1 $37 $27 $39 $61 forward $20 $-1 #
coedge $-1 $27 $37 $38 $60 reversed $20 $-1 #
ellipse-curve $-1 4.440892098500626162e-15 29.99999999999985789 -8.881784197001252323e-15 0 -1 0 90.00000000000001421 0 1.990324138140264765e-14 1 I I #
loop $-1 $-1 $41 $66 #
ellipse-curve $-1 0 0 -1.776356839400250465e-14 0 -1 0 90 0 3.125138433494189271e-14 1 I I #
point $-1 90 0 1.348781594093939122e-14 #
point $-1 90.00000000000001421 29.99999999999985789 1.10214571844013969e-14 #
face $-1 $67 $68 $2 $-1 $69 reversed single #
loop $-1 $-1 $70 $34 #
cone-surface $-1 0 444.0338065184404286 0 0 1 0 1.763269807084645313 0 0 1 I I -0.1736481776669299149 0.9848077530122081313 1.763269807084645313 forward I I I I #
loop $-1 $-1 $71 $19 #
coedge $-1 $72 $72 $37 $58 reversed $35 $-1 #
edge $-1 $73 0 $74 3.141592653589793116 $37 $75 forward 7 unknown #
coedge $-1 $39 $38 $72 $76 reversed $12 $-1 #
edge $-1 $44 0 $74 11.16969273074320945 $47 $77 forward 7 unknown #
edge $-1 $32 0 $73 11.16969273074320945 $46 $78 forward 7 unknown #
ellipse-curve $-1 0 29.99999999999985789 0 0 1 0 90.00000000000001421 0 1.10214571844013969e-14 1 I I #
ellipse-curve $-1 -4.440892098500626162e-15 0 4.440892098500626162e-15 0 -1 0 -90 0 -1.546271138948695377e-14 1 I I #
point $-1 -90 0 -1.102181929098632918e-14 #
point $-1 -90.00000000000001421 29.99999999999985789 -2.20429143688027938e-14 #
face $-1 $-1 $79 $2 $-1 $80 reversed single #
face $-1 $81 $82 $2 $-1 $83 reversed single #
loop $-1 $-1 $84 $53 #
cone-surface $-1 0 444.0338065184404286 0 0 1 0 1.763269807084645313 0 0 1 I I -0.1736481776669299149 0.9848077530122081313 1.763269807084645313 forward I I I I #
coedge $-1 $85 $86 $87 $88 reversed $54 $-1 #
coedge $-1 $89 $89 $86 $90 reversed $56 $-1 #
coedge $-1 $57 $57 $59 $76 forward $35 $-1 #
vertex $-1 $61 $91 #
vertex $-1 $60 $92 #
ellipse-curve $-1 -2.220446049250313081e-15 140 -6.661338147750939243e-15 0 -1 0 70.60403212206887247 0 6.661338147750939243e-15 1 I I #
edge $-1 $73 0 $74 3.141592653589793116 $72 $93 forward 7 unknown #
straight-curve $-1 -90.00000000000001421 29.99999999999985789 -2.20429143688027938e-14 1.736481776669300592 9.848077530122079537 4.253013234011989254e-16 I I #
straight-curve $-1 90.00000000000001421 29.99999999999985789 1.10214571844013969e-14 -1.736481776669300592 9.848077530122079537 -2.126506617005994627e-16 I I #
loop $-1 $49 $94 $66 #
plane-surface $-1 0 0 0 0 -1 0 -10 0 0 forward_v I I I I #
face $-1 $95 $96 $2 $-1 $97 reversed single #
loop $-1 $-1 $98 $67 #
cone-surface $-1 0 -17.5 0 0 1 0 75 0 0 1 I I 0 1 75 forward I I I I #
coedge $-1 $99 $100 $101 $102 reversed $68 $-1 #
coedge $-1 $101 $70 $103 $104 forward $54 $-1 #
coedge $-1 $70 $101 $71 $90 forward $54 $-1 #
coedge $-1 $100 $99 $70 $88 forward $68 $-1 #
edge $-1 $105 0 $106 11.3029502065170071 $87 $107 forward 7 unknown #
coedge $-1 $71 $71 $100 $108 reversed $56 $-1 #
edge $-1 $109 0 $106 3.141592653589793116 $71 $110 forward 7 unknown #
point $-1 70.60403212206887247 140 0 #
point $-1 -70.60403212206887247 140 0 #
ellipse-curve $-1 -2.220446049250313081e-15 140 6.661338147750939243e-15 0 1 0 70.60403212206887247 0 -6.661338147750939243e-15 1 I I #
coedge $-1 $111 $111 $112 $113 reversed $79 $-1 #
face $-1 $114 $115 $2 $-1 $116 forward single #
loop $-1 $-1 $117 $81 #
cone-surface $-1 0 -17.5 0 0 1 0 75 0 0 1 I I 0 1 75 forward I I I I #
coedge $-1 $118 $119 $120 $121 forward $82 $-1 #
coedge $-1 $87 $84 $118 $122 reversed $68 $-1 #
coedge $-1 $84 $87 $89 $108 forward $68 $-1 #
coedge $-1 $86 $85 $84 $102 forward $54 $-1 #
edge $-1 $123 3.906200271946303493e-32 $109 11.3029502065170071 $84 $124 forward 7 unknown #
coedge $-1 $120 $117 $85 $104 reversed $96 $-1 #
edge $-1 $105 0 $123 3.141592653589793116 $103 $125 forward 7 unknown #
vertex $-1 $122 $126 #
vertex $-1 $108 $127 #
straight-curve $-1 75.00000000000001421 28.68767004711109792 0 -1.736481776669298815 9.84807753012208309 0 I I #
edge $-1 $106 0 $109 3.141592653589793116 $89 $128 forward 7 unknown #
vertex $-1 $108 $129 #
ellipse-curve $-1 0 140 6.661338147750939243e-15 0 1 0 -55.37263294378271894 0 -6.661338147750939243e-15 1 I I #
coedge $-1 $94 $94 $130 $131 reversed $79 $-1 #
coedge $-1 $132 $133 $94 $113 forward $134 $-1 #
edge $-1 $135 0 $136 3.141592653589793116 $94 $137 forward 7 unknown #
face $-1 $138 $134 $2 $-1 $139 forward single #
loop $-1 $140 $141 $95 #
plane-surface $-1 0 -10 0 0 -1 0 -10 0 0 forward_v I I I I #
coedge $-1 $103 $142 $143 $144 forward $96 $-1 #
coedge $-1 $143 $98 $99 $122 forward $82 $-1 #
coedge $-1 $98 $143 $145 $146 reversed $82 $-1 #
coedge $-1 $142 $103 $98 $121 reversed $96 $-1 #
edge $-1 $147 0 $105 3.868767004711109792 $98 $148 forward 7 unknown #
edge $-1 $105 0 $123 3.141592653589793116 $118 $149 forward 7 unknown #
vertex $-1 $144 $150 #
straight-curve $-1 -75.00000000000001421 28.68767004711109792 9.184547653667831014e-15 1.736481776669298815 9.84807753012208309 -2.126506617005994627e-16 I I #
ellipse-curve $-1 -2.220446049250313081e-15 28.68767004711109792 -6.661338147750939243e-15 0 -1 0 75.00000000000001421 0 6.661338147750939243e-15 1 I I #
point $-1 75.00000000000001421 28.68767004711109792 0 #
point $-1 55.37263294378271894 140 0 #
ellipse-curve $-1 -2.220446049250313081e-15 140 -6.661338147750939243e-15 0 1 0 55.37263294378271894 0 6.661338147750939243e-15 1 I I #
point $-1 -55.37263294378271894 140 0 #
coedge $-1 $151 $152 $111 $131 forward $153 $-1 #
edge $-1 $136 0 $135 3.141592653589793116 $111 $154 forward 7 unknown #
coedge $-1 $155 $112 $152 $156 forward $134 $-1 #
coedge $-1 $112 $155 $151 $157 reversed $134 $-1 #
loop $-1 $-1 $132 $114 #
vertex $-1 $131 $158 #
vertex $-1 $131 $159 #
ellipse-curve $-1 0 0 0 0 -1 0 115 0 -1.408343576070477613e-14 1 I I #
face $-1 $66 $153 $2 $-1 $160 forward single #
cone-surface $-1 0 0 0 0 -1 0 -115 0 0 1 I I 0 1 115 forward I I I I #
loop $-1 $-1 $161 $95 #
coedge $-1 $162 $162 $155 $163 forward $115 $-1 #
coedge $-1 $117 $120 $161 $164 reversed $96 $-1 #
coedge $-1 $119 $118 $117 $144 reversed $82 $-1 #
edge $-1 $165 0 $123 3.868767004711109792 $143 $166 forward 7 unknown #
coedge $-1 $161 $161 $119 $146 forward $140 $-1 #
edge $-1 $147 0 $165 3.141592653589793116 $145 $167 forward 7 unknown #
vertex $-1 $146 $168 #
straight-curve $-1 75 -10 0 0 10 0 I I #
ellipse-curve $-1 -2.220446049250313081e-15 28.68767004711109792 6.661338147750939243e-15 0 1 0 75.00000000000001421 0 -6.661338147750939243e-15 1 I I #
point $-1 -75.00000000000001421 28.68767004711109792 -9.184547653667831014e-15 #
coedge $-1 $169 $130 $133 $157 forward $153 $-1 #
coedge $-1 $130 $169 $132 $156 reversed $153 $-1 #
loop $-1 $-1 $151 $138 #
ellipse-curve $-1 0 0 0 0 -1 0 -115 0 1.408343576070487395e-14 1 I I #
coedge $-1 $133 $132 $141 $163 reversed $134 $-1 #
edge $-1 $136 0 $170 1 $152 $171 forward 7 unknown #
edge $-1 $135 0 $172 1 $151 $173 forward 7 unknown #
point $-1 115 0 -1.408343576070477613e-14 #
point $-1 -115 0 1.408343576070487395e-14 #
cone-surface $-1 0 0 0 0 -1 0 -115 0 0 1 I I 0 1 115 forward I I I I #
coedge $-1 $145 $145 $142 $164 forward $140 $-1 #
coedge $-1 $141 $141 $169 $174 forward $115 $-1 #
edge $-1 $172 0 $170 3.141592653589793116 $141 $175 forward 7 unknown #
edge $-1 $165 0 $147 3.141592653589793116 $161 $176 forward 7 unknown #
vertex $-1 $146 $177 #
straight-curve $-1 -75 -10 9.184547653667829437e-15 0 10 0 I I #
ellipse-curve $-1 0 -10 0 0 1 0 75 0 0 1 I I #
point $-1 75 -10 0 #
coedge $-1 $152 $151 $162 $174 reversed $153 $-1 #
vertex $-1 $174 $178 #
straight-curve $-1 -115 0 0 0 -10 0 I I #
vertex $-1 $174 $179 #
straight-curve $-1 115 0 -1.408297306895733847e-14 0 -10 0 I I #
edge $-1 $170 0 $172 3.141592653589793116 $162 $180 forward 7 unknown #
ellipse-curve $-1 0 -10 -8.881784197001252323e-15 0 -1 0 115 0 -5.201651563703523808e-15 1 I I #
ellipse-curve $-1 0 -10 0 0 1 0 -75 0 0 1 I I #
point $-1 -75 -10 0 #
point $-1 -115 -10 1.408343576070487237e-14 #
point $-1 115 -10 -1.408343576070477613e-14 #
ellipse-curve $-1 0 -10 1.776356839400250465e-14 0 -1 0 -115 0 -3.680132633297632275e-15 1 I I #
End-of-ACIS-data 