600 0 1 0           
102 GICL Pro/E ACIS Translator - Source: f:/data5/repository/PTC/V18/asmdes18/parts/spring_cover.prt - 6 0 13 ACIS 6.0.3 NT 24 Thu Apr 04 10:07:05 2002 
1 9.9999999999999995e-007 1e-010 
body $-1 $1 $-1 $2 #
lump $-1 $-1 $3 $0 #
transform $-1 1 0 0 0 1 0 0 0 1 0 0 0 10 no_rotate no_reflect no_shear #
shell $-1 $-1 $-1 $4 $-1 $1 #
face $-1 $5 $6 $3 $-1 $7 forward single #
face $-1 $8 $9 $3 $-1 $10 forward single #
loop $-1 $-1 $11 $4 #
cone-surface $-1 0 14.699999999999999 0 0 -1 0 -9 0 0 1 I I 0 1 9 forward I I I I #
face $-1 $12 $13 $3 $-1 $14 forward single #
loop $-1 $-1 $15 $5 #
cone-surface $-1 0 14.699999999999999 0 0 -1 0 -9 0 0 1 I I 0 1 9 forward I I I I #
coedge $-1 $16 $17 $18 $19 forward $6 $-1 #
face $-1 $20 $21 $3 $-1 $22 forward single #
loop $-1 $-1 $23 $8 #
cone-surface $-1 0 53.041536376559449 0 0 1 0 -0.17632698070846475 0 0 1 I I -0.17364817766693014 0.98480775301220813 0.17632698070846475 forward I I I I #
coedge $-1 $24 $25 $26 $27 forward $9 $-1 #
coedge $-1 $26 $11 $28 $29 forward $6 $-1 #
coedge $-1 $11 $26 $30 $31 reversed $6 $-1 #
coedge $-1 $25 $24 $11 $19 reversed $9 $-1 #
edge $-1 $32 0 $33 2.9999999999999858 $11 $34 forward 7 unknown #
face $-1 $35 $36 $3 $-1 $37 reversed single #
loop $-1 $-1 $38 $12 #
cone-surface $-1 0 53.041536376559449 0 0 1 0 -0.17632698070846475 0 0 1 I I -0.17364817766693014 0.98480775301220813 0.17632698070846475 forward I I I I #
coedge $-1 $39 $40 $24 $41 forward $13 $-1 #
coedge $-1 $18 $15 $23 $41 reversed $9 $-1 #
coedge $-1 $15 $18 $42 $43 reversed $9 $-1 #
coedge $-1 $17 $16 $15 $27 reversed $6 $-1 #
edge $-1 $44 0 $45 2.9999999999999858 $26 $46 forward 7 unknown #
coedge $-1 $47 $48 $16 $29 reversed $21 $-1 #
edge $-1 $33 0 $45 3.1415926535897931 $16 $49 forward 7 unknown #
coedge $-1 $42 $42 $17 $31 forward $50 $-1 #
edge $-1 $32 0 $44 3.1415926535897927 $17 $51 forward 7 unknown #
vertex $-1 $31 $52 #
vertex $-1 $29 $53 #
straight-curve $-1 9 0 1.1021457184401395e-015 0 1 0 I I #
face $-1 $54 $55 $3 $-1 $56 reversed single #
loop $-1 $57 $58 $20 #
plane-surface $-1 0 14 0 0 -1 0 -1 0 0 forward_v I I I I #
coedge $-1 $48 $47 $58 $59 forward $21 $-1 #
coedge $-1 $60 $23 $48 $61 forward $13 $-1 #
coedge $-1 $23 $60 $47 $62 reversed $13 $-1 #
edge $-1 $33 0 $45 3.1415926535897931 $24 $63 forward 7 unknown #
coedge $-1 $30 $30 $25 $43 forward $50 $-1 #
edge $-1 $44 0 $32 3.1415926535897931 $25 $64 forward 7 unknown #
vertex $-1 $31 $65 #
vertex $-1 $27 $66 #
straight-curve $-1 -9 0 -2.2042914368802791e-015 0 1 0 I I #
coedge $-1 $38 $28 $40 $62 forward $21 $-1 #
coedge $-1 $28 $38 $39 $61 reversed $21 $-1 #
ellipse-curve $-1 4.4408920985006262e-016 2.9999999999999858 -8.8817841970012523e-016 0 -1 0 9.0000000000000018 0 1.9903241381402648e-015 1 I I #
loop $-1 $-1 $42 $67 #
ellipse-curve $-1 0 0 -1.7763568394002505e-015 0 -1 0 9 0 3.1251384334941896e-015 1 I I #
point $-1 9 0 1.3487815940939391e-015 #
point $-1 9.0000000000000018 2.9999999999999858 1.1021457184401397e-015 #
face $-1 $68 $69 $3 $-1 $70 reversed single #
loop $-1 $-1 $71 $35 #
cone-surface $-1 0 44.403380651844046 0 0 1 0 0.17632698070846453 0 0 1 I I -0.17364817766692991 0.98480775301220813 0.17632698070846453 forward I I I I #
loop $-1 $-1 $72 $20 #
coedge $-1 $73 $73 $38 $59 reversed $36 $-1 #
edge $-1 $74 0 $75 3.1415926535897931 $38 $76 forward 7 unknown #
coedge $-1 $40 $39 $73 $77 reversed $13 $-1 #
edge $-1 $45 0 $75 11.169692730743209 $48 $78 forward 7 unknown #
edge $-1 $33 0 $74 11.169692730743209 $47 $79 forward 7 unknown #
ellipse-curve $-1 0 2.9999999999999858 0 0 1 0 9.0000000000000018 0 1.1021457184401397e-015 1 I I #
ellipse-curve $-1 -4.4408920985006262e-016 0 4.4408920985006262e-016 0 -1 0 -9 0 -1.5462711389486955e-015 1 I I #
point $-1 -9 0 -1.1021819290986329e-015 #
point $-1 -9.0000000000000018 2.9999999999999858 -2.2042914368802795e-015 #
face $-1 $-1 $80 $3 $-1 $81 reversed single #
face $-1 $82 $83 $3 $-1 $84 reversed single #
loop $-1 $-1 $85 $54 #
cone-surface $-1 0 44.403380651844046 0 0 1 0 0.17632698070846453 0 0 1 I I -0.17364817766692991 0.98480775301220813 0.17632698070846453 forward I I I I #
coedge $-1 $86 $87 $88 $89 reversed $55 $-1 #
coedge $-1 $90 $90 $87 $91 reversed $57 $-1 #
coedge $-1 $58 $58 $60 $77 forward $36 $-1 #
vertex $-1 $62 $92 #
vertex $-1 $61 $93 #
ellipse-curve $-1 -2.2204460492503131e-016 14 -6.6613381477509392e-016 0 -1 0 7.0604032122068876 0 6.6613381477509392e-016 1 I I #
edge $-1 $74 0 $75 3.1415926535897931 $73 $94 forward 7 unknown #
straight-curve $-1 -9.0000000000000018 2.9999999999999858 -2.2042914368802795e-015 0.17364817766693003 0.98480775301220802 4.2530132340119895e-017 I I #
straight-curve $-1 9.0000000000000018 2.9999999999999858 1.1021457184401397e-015 -0.17364817766693003 0.98480775301220802 -2.1265066170059948e-017 I I #
loop $-1 $50 $95 $67 #
plane-surface $-1 0 0 0 0 -1 0 -1 0 0 forward_v I I I I #
face $-1 $96 $97 $3 $-1 $98 reversed single #
loop $-1 $-1 $99 $68 #
cone-surface $-1 0 -1.75 0 0 1 0 7.5 0 0 1 I I 0 1 7.5 forward I I I I #
coedge $-1 $100 $101 $102 $103 reversed $69 $-1 #
coedge $-1 $102 $71 $104 $105 forward $55 $-1 #
coedge $-1 $71 $102 $72 $91 forward $55 $-1 #
coedge $-1 $101 $100 $71 $89 forward $69 $-1 #
edge $-1 $106 0 $107 11.302950206517011 $88 $108 forward 7 unknown #
coedge $-1 $72 $72 $101 $109 reversed $57 $-1 #
edge $-1 $110 0 $107 3.1415926535897931 $72 $111 forward 7 unknown #
point $-1 7.0604032122068876 14 0 #
point $-1 -7.0604032122068876 14 0 #
ellipse-curve $-1 -2.2204460492503131e-016 14 6.6613381477509392e-016 0 1 0 7.0604032122068876 0 -6.6613381477509392e-016 1 I I #
coedge $-1 $112 $112 $113 $114 reversed $80 $-1 #
face $-1 $115 $116 $3 $-1 $117 forward single #
loop $-1 $-1 $118 $82 #
cone-surface $-1 0 -1.75 0 0 1 0 7.5 0 0 1 I I 0 1 7.5 forward I I I I #
coedge $-1 $119 $120 $121 $122 forward $83 $-1 #
coedge $-1 $88 $85 $119 $123 reversed $69 $-1 #
coedge $-1 $85 $88 $90 $109 forward $69 $-1 #
coedge $-1 $87 $86 $85 $103 forward $55 $-1 #
edge $-1 $124 3.9062002719463051e-032 $110 11.302950206517011 $85 $125 forward 7 unknown #
coedge $-1 $121 $118 $86 $105 reversed $97 $-1 #
edge $-1 $106 0 $124 3.1415926535897931 $104 $126 forward 7 unknown #
vertex $-1 $123 $127 #
vertex $-1 $109 $128 #
straight-curve $-1 7.5000000000000009 2.8687670047111098 0 -0.17364817766692991 0.98480775301220824 0 I I #
edge $-1 $107 0 $110 3.1415926535897931 $90 $129 forward 7 unknown #
vertex $-1 $109 $130 #
ellipse-curve $-1 0 14 6.6613381477509392e-016 0 1 0 -5.5372632943782722 0 -6.6613381477509392e-016 1 I I #
coedge $-1 $95 $95 $131 $132 reversed $80 $-1 #
coedge $-1 $133 $134 $95 $114 forward $135 $-1 #
edge $-1 $136 0 $137 3.1415926535897931 $95 $138 forward 7 unknown #
face $-1 $139 $135 $3 $-1 $140 forward single #
loop $-1 $141 $142 $96 #
plane-surface $-1 0 -1 0 0 -1 0 -1 0 0 forward_v I I I I #
coedge $-1 $104 $143 $144 $145 forward $97 $-1 #
coedge $-1 $144 $99 $100 $123 forward $83 $-1 #
coedge $-1 $99 $144 $146 $147 reversed $83 $-1 #
coedge $-1 $143 $104 $99 $122 reversed $97 $-1 #
edge $-1 $148 0 $106 3.8687670047111098 $99 $149 forward 7 unknown #
edge $-1 $106 0 $124 3.1415926535897931 $119 $150 forward 7 unknown #
vertex $-1 $145 $151 #
straight-curve $-1 -7.5000000000000009 2.8687670047111098 9.1845476536678314e-016 0.17364817766692991 0.98480775301220824 -2.1265066170059948e-017 I I #
ellipse-curve $-1 -2.2204460492503131e-016 2.8687670047111098 -6.6613381477509392e-016 0 -1 0 7.5000000000000009 0 6.6613381477509392e-016 1 I I #
point $-1 7.5000000000000009 2.8687670047111098 0 #
point $-1 5.5372632943782722 14 0 #
ellipse-curve $-1 -2.2204460492503131e-016 14 -6.6613381477509392e-016 0 1 0 5.5372632943782722 0 6.6613381477509392e-016 1 I I #
point $-1 -5.5372632943782722 14 0 #
coedge $-1 $152 $153 $112 $132 forward $154 $-1 #
edge $-1 $137 0 $136 3.1415926535897931 $112 $155 forward 7 unknown #
coedge $-1 $156 $113 $153 $157 forward $135 $-1 #
coedge $-1 $113 $156 $152 $158 reversed $135 $-1 #
loop $-1 $-1 $133 $115 #
vertex $-1 $132 $159 #
vertex $-1 $132 $160 #
ellipse-curve $-1 0 0 0 0 -1 0 11.5 0 -1.4083435760704776e-015 1 I I #
face $-1 $67 $154 $3 $-1 $161 forward single #
cone-surface $-1 0 0 0 0 -1 0 -11.5 0 0 1 I I 0 1 11.5 forward I I I I #
loop $-1 $-1 $162 $96 #
coedge $-1 $163 $163 $156 $164 forward $116 $-1 #
coedge $-1 $118 $121 $162 $165 reversed $97 $-1 #
coedge $-1 $120 $119 $118 $145 reversed $83 $-1 #
edge $-1 $166 0 $124 3.8687670047111098 $144 $167 forward 7 unknown #
coedge $-1 $162 $162 $120 $147 forward $141 $-1 #
edge $-1 $148 0 $166 3.1415926535897931 $146 $168 forward 7 unknown #
vertex $-1 $147 $169 #
straight-curve $-1 7.5 -1 0 0 1 0 I I #
ellipse-curve $-1 -2.2204460492503131e-016 2.8687670047111098 6.6613381477509392e-016 0 1 0 7.5000000000000009 0 -6.6613381477509392e-016 1 I I #
point $-1 -7.5000000000000009 2.8687670047111098 -9.1845476536678314e-016 #
coedge $-1 $170 $131 $134 $158 forward $154 $-1 #
coedge $-1 $131 $170 $133 $157 reversed $154 $-1 #
loop $-1 $-1 $152 $139 #
ellipse-curve $-1 0 0 0 0 -1 0 -11.5 0 1.4083435760704875e-015 1 I I #
coedge $-1 $134 $133 $142 $164 reversed $135 $-1 #
edge $-1 $137 0 $171 1 $153 $172 forward 7 unknown #
edge $-1 $136 0 $173 1 $152 $174 forward 7 unknown #
point $-1 11.5 0 -1.4083435760704776e-015 #
point $-1 -11.5 0 1.4083435760704875e-015 #
cone-surface $-1 0 0 0 0 -1 0 -11.5 0 0 1 I I 0 1 11.5 forward I I I I #
coedge $-1 $146 $146 $143 $165 forward $141 $-1 #
coedge $-1 $142 $142 $170 $175 forward $116 $-1 #
edge $-1 $173 0 $171 3.1415926535897931 $142 $176 forward 7 unknown #
edge $-1 $166 0 $148 3.1415926535897931 $162 $177 forward 7 unknown #
vertex $-1 $147 $178 #
straight-curve $-1 -7.5 -1 9.1845476536678294e-016 0 1 0 I I #
ellipse-curve $-1 0 -1 0 0 1 0 7.5 0 0 1 I I #
point $-1 7.5 -1 0 #
coedge $-1 $153 $152 $163 $175 reversed $154 $-1 #
vertex $-1 $175 $179 #
straight-curve $-1 -11.5 0 0 0 -1 0 I I #
vertex $-1 $175 $180 #
straight-curve $-1 11.5 0 -1.4082973068957338e-015 0 -1 0 I I #
edge $-1 $171 0 $173 3.1415926535897931 $163 $181 forward 7 unknown #
ellipse-curve $-1 0 -1 -8.8817841970012523e-016 0 -1 0 11.5 0 -5.2016515637035238e-016 1 I I #
ellipse-curve $-1 0 -1 0 0 1 0 -7.5 0 0 1 I I #
point $-1 -7.5 -1 0 #
point $-1 -11.5 -1 1.4083435760704873e-015 #
point $-1 11.5 -1 -1.4083435760704776e-015 #
ellipse-curve $-1 0 -1 1.7763568394002505e-015 0 -1 0 -11.5 0 -3.6801326332976319e-016 1 I I #
End-of-ACIS-data 