700 0 2 0           
24 FBMach with ACIS - 7.0.3 13 ACIS 7.0.3 NT 24 Thu May 16 15:52:35 2002 
1 9.9999999999999995e-007 1e-010 
body $2 -1 $-1 $3 $-1 $4 #
bdycol-kcp $-1 -1 1 3 $5 $6 $7 #
model_id-kcp-attrib $-1 -1 $-1 $-1 $0 1 1021578754 1021578754 713293825 1 #
lump $-1 -1 $-1 $-1 $8 $0 #
transform $-1 -1 1 0 0 0 1 0 0 0 1 0 0 0 1 rotate no_reflect no_shear #
body $9 -1 $-1 $10 $-1 $11 #
body $12 -1 $-1 $13 $-1 $14 #
body $15 -1 $-1 $16 $-1 $17 #
shell $-1 -1 $-1 $-1 $-1 $18 $-1 $3 #
model_id-kcp-attrib $-1 -1 $-1 $-1 $5 1 1021578754 1021578754 713293826 1 #
lump $-1 -1 $-1 $-1 $19 $5 #
transform $-1 -1 1 0 0 0 1 0 0 0 1 0 65 0 1 no_rotate no_reflect no_shear #
rgb_color-st-attrib $-1 -1 $20 $-1 $6 0.5 1 1 #
lump $-1 -1 $-1 $-1 $21 $6 #
transform $-1 -1 1 0 0 0 1 0 0 0 1 0 65 0 1 no_rotate no_reflect no_shear #
rgb_color-st-attrib $-1 -1 $22 $-1 $7 1 0.5 1 #
lump $-1 -1 $-1 $-1 $23 $7 #
transform $-1 -1 1 0 0 0 1 0 0 0 1 0 65 0 1 no_rotate no_reflect no_shear #
face $24 -1 $-1 $25 $26 $8 $-1 $27 forward single #
shell $-1 -1 $-1 $-1 $-1 $28 $-1 $10 #
model_id-kcp-attrib $-1 -1 $-1 $12 $6 1 1021578754 1021578755 706609155 1 #
shell $-1 -1 $-1 $-1 $-1 $29 $-1 $13 #
model_id-kcp-attrib $-1 -1 $-1 $15 $7 1 1021578754 1021578755 719060996 1 #
shell $-1 -1 $-1 $-1 $-1 $30 $-1 $16 #
model_id-kcp-attrib $-1 -1 $-1 $-1 $18 1 1021578754 1021578754 713293825 2 #
face $31 -1 $-1 $32 $33 $8 $-1 $34 forward single #
loop $-1 -1 $-1 $-1 $35 $18 #
cone-surface $-1 -1 $-1 0 147 0 0 -1 0 -90 0 0 1 I I 0 1 90 forward I I I I #
face $-1 -1 $-1 $36 $37 $19 $-1 $38 forward single #
face $-1 -1 $-1 $39 $40 $21 $-1 $41 reversed single #
face $-1 -1 $-1 $42 $43 $23 $-1 $44 forward single #
model_id-kcp-attrib $-1 -1 $-1 $-1 $25 1 1021578754 1021578754 713293825 3 #
face $45 -1 $-1 $46 $47 $8 $-1 $48 forward single #
loop $-1 -1 $-1 $-1 $49 $25 #
cone-surface $-1 -1 $-1 0 147 0 0 -1 0 -90 0 0 1 I I 0 1 90 forward I I I I #
coedge $-1 -1 $-1 $50 $51 $52 $53 forward $26 $-1 #
face $-1 -1 $-1 $54 $55 $19 $-1 $56 reversed single #
loop $-1 -1 $-1 $-1 $57 $28 #
plane-surface $-1 -1 $-1 0 0 115 0 0 1 1 0 0 forward_v I I I I #
face $-1 -1 $-1 $58 $59 $21 $-1 $41 reversed single #
loop $-1 -1 $-1 $-1 $60 $29 #
cone-surface $-1 -1 $-1 2.0581676724159658e-031 75 1.7763568394002505e-014 0 1 0 -115 0 -3.6801326332976323e-015 1 I I 0 1 115 forward I I I I #
face $-1 -1 $-1 $61 $62 $23 $-1 $63 forward single #
loop $-1 -1 $-1 $64 $65 $30 #
cone-surface $-1 -1 $-1 2.0581676724159658e-031 -65 1.7763568394002505e-014 0 1 0 -115 0 -3.6801326332976323e-015 1 I I 0 1 115 forward I I I I #
model_id-kcp-attrib $-1 -1 $-1 $-1 $32 1 1021578754 1021578754 713293825 4 #
face $66 -1 $-1 $67 $68 $8 $-1 $69 forward single #
loop $-1 -1 $-1 $-1 $70 $32 #
cone-surface $-1 -1 $-1 0 530.41536376559452 0 0 1 0 -1.7632698070846475 0 0 1 I I -0.17364817766693014 0.98480775301220813 1.7632698070846475 forward I I I I #
coedge $-1 -1 $-1 $71 $72 $73 $74 forward $33 $-1 #
coedge $-1 -1 $-1 $73 $35 $75 $76 forward $26 $-1 #
coedge $-1 -1 $-1 $35 $73 $77 $78 reversed $26 $-1 #
coedge $-1 -1 $-1 $72 $71 $35 $53 reversed $33 $-1 #
edge $-1 -1 $-1 $79 0 $80 2.9999999999999858 $35 $81 forward @7 unknown #
face $82 -1 $-1 $83 $84 $19 $-1 $85 reversed single #
loop $-1 -1 $-1 $-1 $86 $36 #
plane-surface $-1 -1 $-1 0 0 -115 0 0 1 1 0 0 forward_v I I I I #
coedge $-1 -1 $-1 $87 $88 $89 $90 forward $37 $-1 #
face $-1 -1 $-1 $91 $92 $21 $-1 $41 reversed single #
loop $-1 -1 $-1 $-1 $93 $39 #
coedge $-1 -1 $-1 $94 $95 $96 $97 reversed $40 $-1 #
face $-1 -1 $-1 $98 $99 $23 $-1 $100 forward single #
loop $-1 -1 $-1 $101 $102 $42 #
cone-surface $-1 -1 $-1 0 -65 0 0 1 0 -90 0 0 1 I I 0 -1 90 forward I I I I #
loop $-1 -1 $-1 $-1 $103 $30 #
coedge $-1 -1 $-1 $65 $65 $104 $105 forward $43 $-1 #
model_id-kcp-attrib $-1 -1 $-1 $-1 $46 1 1021578754 1021578754 713293825 5 #
face $106 -1 $-1 $107 $108 $8 $-1 $109 reversed single #
loop $-1 -1 $-1 $-1 $110 $46 #
cone-surface $-1 -1 $-1 0 530.41536376559452 0 0 1 0 -1.7632698070846475 0 0 1 I I -0.17364817766693014 0.98480775301220813 1.7632698070846475 forward I I I I #
coedge $-1 -1 $-1 $111 $112 $71 $113 forward $47 $-1 #
coedge $-1 -1 $-1 $52 $49 $70 $113 reversed $33 $-1 #
coedge $-1 -1 $-1 $49 $52 $114 $115 reversed $33 $-1 #
coedge $-1 -1 $-1 $51 $50 $49 $74 reversed $26 $-1 #
edge $-1 -1 $-1 $116 0 $117 2.9999999999999858 $73 $118 forward @7 unknown #
coedge $-1 -1 $-1 $119 $120 $50 $76 reversed $68 $-1 #
edge $-1 -1 $-1 $80 0 $117 3.1415926535897931 $50 $121 forward @7 unknown #
coedge $-1 -1 $-1 $114 $114 $51 $78 forward $122 $-1 #
edge $123 -1 $-1 $79 0 $116 3.1415926535897927 $51 $124 forward @7 unknown #
vertex $-1 -1 $-1 $78 $125 #
vertex $-1 -1 $-1 $76 $126 #
straight-curve $-1 -1 $-1 90 0 1.1021457184401395e-014 0 10 0 I I #
model_id-kcp-attrib $-1 -1 $-1 $-1 $54 1 1021578754 1021578754 713293826 3 #
face $-1 -1 $-1 $127 $128 $19 $-1 $129 reversed single #
loop $-1 -1 $-1 $-1 $130 $54 #
plane-surface $-1 -1 $-1 0 -75 0 0 1 0 0 0 1 forward_v I I I I #
coedge $-1 -1 $-1 $131 $132 $133 $134 forward $55 $-1 #
coedge $-1 -1 $-1 $135 $57 $136 $137 forward $37 $-1 #
coedge $-1 -1 $-1 $57 $135 $138 $139 forward $37 $-1 #
coedge $-1 -1 $-1 $140 $141 $57 $90 reversed $142 $-1 #
edge $-1 -1 $-1 $143 -75 $144 75 $89 $145 forward @7 unknown #
face $-1 -1 $-1 $146 $147 $21 $-1 $41 reversed single #
loop $-1 -1 $-1 $-1 $148 $58 #
coedge $-1 -1 $-1 $149 $150 $151 $152 reversed $59 $-1 #
coedge $-1 -1 $-1 $153 $60 $154 $155 forward $40 $-1 #
coedge $-1 -1 $-1 $60 $153 $156 $157 reversed $40 $-1 #
coedge $-1 -1 $-1 $158 $159 $60 $97 forward $160 $-1 #
edge $-1 -1 $-1 $161 3.200115333302289e-017 $162 1.5707963267948966 $96 $163 forward @7 unknown #
face $-1 -1 $-1 $-1 $164 $23 $-1 $165 reversed single #
loop $-1 -1 $-1 $166 $167 $61 #
plane-surface $-1 -1 $-1 5.8647450110864696 -35.000000000000142 3.672078531307969e-015 0 1 0 0 0 1 forward_v I I I I #
loop $-1 -1 $-1 $-1 $168 $42 #
coedge $-1 -1 $-1 $102 $102 $167 $169 forward $62 $-1 #
coedge $-1 -1 $-1 $103 $103 $170 $171 reversed $64 $-1 #
coedge $-1 -1 $-1 $104 $104 $65 $105 reversed $166 $-1 #
edge $-1 -1 $-1 $172 -3.1415926535897931 $172 3.1415926535897931 $65 $173 forward @7 unknown #
model_id-kcp-attrib $-1 -1 $-1 $-1 $67 1 1021578754 1021578754 713293825 6 #
face $174 -1 $-1 $175 $176 $8 $-1 $177 reversed single #
loop $-1 -1 $-1 $178 $179 $67 #
plane-surface $-1 -1 $-1 0 140 0 0 -1 0 -10 0 0 forward_v I I I I #
coedge $-1 -1 $-1 $120 $119 $179 $180 forward $68 $-1 #
coedge $-1 -1 $-1 $181 $70 $120 $182 forward $47 $-1 #
coedge $-1 -1 $-1 $70 $181 $119 $183 reversed $47 $-1 #
edge $-1 -1 $-1 $80 0 $117 3.1415926535897931 $71 $184 forward @7 unknown #
coedge $-1 -1 $-1 $77 $77 $72 $115 forward $122 $-1 #
edge $185 -1 $-1 $116 0 $79 3.1415926535897931 $72 $186 forward @7 unknown #
vertex $-1 -1 $-1 $78 $187 #
vertex $-1 -1 $-1 $74 $188 #
straight-curve $-1 -1 $-1 -90 0 -2.2042914368802791e-014 0 10 0 I I #
coedge $-1 -1 $-1 $110 $75 $112 $183 forward $68 $-1 #
coedge $-1 -1 $-1 $75 $110 $111 $182 reversed $68 $-1 #
ellipse-curve $-1 -1 $-1 4.4408920985006262e-015 29.999999999999858 -8.8817841970012523e-015 0 -1 0 90.000000000000014 0 1.9903241381402648e-014 1 I I #
loop $-1 -1 $-1 $-1 $114 $189 #
attrib_edge_convexity-kcp-attrib $-1 -1 $190 $-1 $78 2 #
ellipse-curve $-1 -1 $-1 0 0 -1.7763568394002505e-014 0 -1 0 90 0 3.1251384334941893e-014 1 I I #
point $-1 -1 $-1 90 0 1.3487815940939391e-014 #
point $-1 -1 $-1 90.000000000000014 29.999999999999858 1.1021457184401397e-014 #
face $191 -1 $-1 $192 $193 $19 $-1 $194 reversed single #
loop $-1 -1 $-1 $-1 $195 $83 #
plane-surface $-1 -1 $-1 -115 0 0 1 0 0 0 0 -1 forward_v I I I I #
coedge $-1 -1 $-1 $196 $138 $197 $198 forward $84 $-1 #
coedge $-1 -1 $-1 $199 $86 $196 $200 forward $55 $-1 #
coedge $-1 -1 $-1 $86 $199 $201 $202 forward $55 $-1 #
coedge $-1 -1 $-1 $141 $140 $86 $134 reversed $142 $-1 #
edge $-1 -1 $-1 $203 -75 $204 75 $133 $205 forward @7 unknown #
coedge $-1 -1 $-1 $88 $87 $206 $207 forward $37 $-1 #
coedge $-1 -1 $-1 $208 $209 $87 $137 reversed $193 $-1 #
edge $-1 -1 $-1 $144 -115 $210 115 $136 $211 forward @7 unknown #
coedge $-1 -1 $-1 $130 $212 $88 $139 reversed $84 $-1 #
edge $-1 -1 $-1 $213 -115 $143 115 $138 $214 forward @7 unknown #
coedge $-1 -1 $-1 $133 $89 $212 $215 forward $142 $-1 #
coedge $-1 -1 $-1 $89 $133 $208 $216 reversed $142 $-1 #
loop $-1 -1 $-1 $-1 $140 $192 #
vertex $-1 -1 $-1 $90 $217 #
vertex $-1 -1 $-1 $90 $218 #
straight-curve $-1 -1 $-1 115 0 115 0 1 0 I I #
face $-1 -1 $-1 $219 $220 $21 $-1 $221 forward single #
loop $-1 -1 $-1 $-1 $222 $91 #
coedge $-1 -1 $-1 $223 $224 $222 $225 forward $92 $-1 #
coedge $-1 -1 $-1 $226 $93 $227 $228 reversed $59 $-1 #
coedge $-1 -1 $-1 $93 $226 $95 $157 forward $59 $-1 #
coedge $-1 -1 $-1 $229 $230 $93 $152 forward $231 $-1 #
edge $-1 -1 $-1 $232 -3.1415926535897931 $233 -1.5707963267948966 $151 $234 forward @7 unknown #
coedge $-1 -1 $-1 $95 $94 $235 $236 reversed $40 $-1 #
coedge $-1 -1 $-1 $224 $223 $237 $155 reversed $92 $-1 #
edge $-1 -1 $-1 $161 -150 $238 0 $237 $239 forward @7 unknown #
coedge $-1 -1 $-1 $240 $241 $242 $157 forward $243 $-1 #
edge $-1 -1 $-1 $162 -150 $233 0 $156 $244 forward @7 unknown #
coedge $-1 -1 $-1 $159 $96 $241 $245 reversed $160 $-1 #
coedge $-1 -1 $-1 $96 $158 $246 $247 forward $160 $-1 #
loop $-1 -1 $-1 $-1 $96 $248 #
vertex $-1 -1 $-1 $249 $250 #
vertex $-1 -1 $-1 $251 $252 #
ellipse-curve $-1 -1 $-1 2.0581676724159658e-031 -75 1.7763568394002505e-014 0 1 0 -115 0 -3.6801326332976323e-015 1 I I #
loop $-1 -1 $-1 $253 $254 $98 #
plane-surface $-1 -1 $-1 5.8647450110864696 -65 3.672078531307969e-015 0 1 0 0 0 1 forward_v I I I I #
loop $-1 -1 $-1 $-1 $104 $61 #
coedge $-1 -1 $-1 $167 $167 $102 $169 reversed $99 $-1 #
coedge $-1 -1 $-1 $168 $168 $254 $255 reversed $101 $-1 #
edge $-1 -1 $-1 $256 -1.2246465878873699e-016 $256 6.2831853071795862 $102 $257 forward @7 unknown #
coedge $-1 -1 $-1 $170 $170 $103 $171 forward $253 $-1 #
edge $258 -1 $-1 $259 -3.1415926535897931 $259 3.1415926535897931 $103 $260 forward @7 unknown #
vertex $-1 -1 $-1 $105 $261 #
ellipse-curve $-1 -1 $-1 2.0581676724159658e-031 -35.000000000000142 1.7763568394002505e-014 0 -1 0 -115 0 -3.6801326332976323e-015 1 I I #
model_id-kcp-attrib $-1 -1 $-1 $-1 $107 1 1021578754 1021578754 713293825 7 #
face $262 -1 $-1 $263 $264 $8 $-1 $265 reversed single #
loop $-1 -1 $-1 $-1 $266 $107 #
cone-surface $-1 -1 $-1 0 444.03380651844043 0 0 1 0 1.7632698070846453 0 0 1 I I -0.17364817766692991 0.98480775301220813 1.7632698070846453 forward I I I I #
loop $-1 -1 $-1 $-1 $267 $67 #
coedge $-1 -1 $-1 $268 $268 $110 $180 reversed $108 $-1 #
edge $269 -1 $-1 $270 0 $271 3.1415926535897931 $110 $272 forward @7 unknown #
coedge $-1 -1 $-1 $112 $111 $268 $273 reversed $47 $-1 #
edge $-1 -1 $-1 $117 0 $271 11.169692730743209 $120 $274 forward @7 unknown #
edge $-1 -1 $-1 $80 0 $270 11.169692730743209 $119 $275 forward @7 unknown #
ellipse-curve $-1 -1 $-1 0 29.999999999999858 0 0 1 0 90.000000000000014 0 1.1021457184401397e-014 1 I I #
attrib_edge_convexity-kcp-attrib $-1 -1 $276 $-1 $115 2 #
ellipse-curve $-1 -1 $-1 -4.4408920985006262e-015 0 4.4408920985006262e-015 0 -1 0 -90 0 -1.5462711389486954e-014 1 I I #
point $-1 -1 $-1 -90 0 -1.1021819290986329e-014 #
point $-1 -1 $-1 -90.000000000000014 29.999999999999858 -2.2042914368802794e-014 #
face $277 -1 $-1 $-1 $278 $8 $-1 $279 reversed single #
convexity-sys-attrib $-1 -1 $-1 $123 $78 #
model_id-kcp-attrib $-1 -1 $-1 $-1 $127 1 1021578754 1021578754 713293826 2 #
face $-1 -1 $-1 $-1 $142 $19 $-1 $280 reversed single #
loop $-1 -1 $-1 $-1 $208 $127 #
plane-surface $-1 -1 $-1 0 75 0 0 -1 0 0 0 -1 forward_v I I I I #
coedge $-1 -1 $-1 $281 $206 $209 $282 forward $128 $-1 #
coedge $-1 -1 $-1 $212 $130 $131 $200 reversed $84 $-1 #
coedge $-1 -1 $-1 $206 $281 $130 $198 reversed $128 $-1 #
edge $-1 -1 $-1 $213 -115 $283 115 $197 $284 forward @7 unknown #
coedge $-1 -1 $-1 $132 $131 $281 $285 forward $55 $-1 #
edge $-1 -1 $-1 $204 -115 $283 115 $196 $286 forward @7 unknown #
coedge $-1 -1 $-1 $209 $208 $132 $202 reversed $193 $-1 #
edge $-1 -1 $-1 $287 -115 $203 115 $201 $288 forward @7 unknown #
vertex $-1 -1 $-1 $134 $289 #
vertex $-1 -1 $-1 $215 $290 #
straight-curve $-1 -1 $-1 115 0 -115 0 -1 0 I I #
coedge $-1 -1 $-1 $195 $197 $135 $207 reversed $128 $-1 #
edge $-1 -1 $-1 $210 -75 $213 75 $206 $291 forward @7 unknown #
coedge $-1 -1 $-1 $201 $136 $141 $216 forward $193 $-1 #
coedge $-1 -1 $-1 $136 $201 $195 $282 reversed $193 $-1 #
vertex $-1 -1 $-1 $137 $292 #
straight-curve $-1 -1 $-1 0 75 115 -1 0 0 I I #
coedge $-1 -1 $-1 $138 $196 $140 $215 reversed $84 $-1 #
vertex $-1 -1 $-1 $207 $293 #
straight-curve $-1 -1 $-1 0 -75 115 1 0 0 I I #
edge $-1 -1 $-1 $143 -115 $204 115 $140 $294 forward @7 unknown #
edge $-1 -1 $-1 $144 -115 $203 115 $141 $295 forward @7 unknown #
point $-1 -1 $-1 115 -75 115 #
point $-1 -1 $-1 115 75 115 #
face $-1 -1 $-1 $296 $297 $21 $-1 $298 reversed single #
loop $-1 -1 $-1 $-1 $242 $146 #
plane-surface $-1 -1 $-1 0 0 115 0 0 1 1 0 0 forward_v I I I I #
coedge $-1 -1 $-1 $299 $300 $301 $225 reversed $147 $-1 #
coedge $-1 -1 $-1 $154 $148 $302 $303 reversed $92 $-1 #
coedge $-1 -1 $-1 $148 $154 $304 $305 reversed $92 $-1 #
edge $-1 -1 $-1 $306 -150 $307 0 $301 $308 forward @7 unknown #
coedge $-1 -1 $-1 $150 $149 $309 $310 reversed $59 $-1 #
coedge $-1 -1 $-1 $311 $312 $313 $228 forward $314 $-1 #
edge $-1 -1 $-1 $315 -150 $232 0 $227 $316 forward @7 unknown #
coedge $-1 -1 $-1 $230 $151 $317 $318 reversed $231 $-1 #
coedge $-1 -1 $-1 $151 $229 $311 $319 forward $231 $-1 #
loop $-1 -1 $-1 $-1 $151 $320 #
vertex $-1 -1 $-1 $321 $322 #
vertex $-1 -1 $-1 $323 $324 #
ellipse-curve $-1 -1 $-1 2.0581676724159658e-031 75 1.7763568394002505e-014 0 -1 0 -115 0 -3.6801326332976323e-015 1 I I #
coedge $-1 -1 $-1 $325 $326 $153 $236 forward $327 $-1 #
edge $-1 -1 $-1 $233 -1.5707963267948966 $238 -3.200115333302289e-017 $235 $234 forward @7 unknown #
coedge $-1 -1 $-1 $328 $329 $330 $155 forward $297 $-1 #
vertex $-1 -1 $-1 $331 $332 #
straight-curve $-1 -1 $-1 -115 75 1.7763568394002505e-014 0 1 0 I I #
coedge $-1 -1 $-1 $333 $156 $326 $323 forward $243 $-1 #
coedge $-1 -1 $-1 $156 $333 $158 $245 forward $243 $-1 #
coedge $-1 -1 $-1 $334 $317 $150 $157 reversed $220 $-1 #
loop $-1 -1 $-1 $-1 $156 $335 #
straight-curve $-1 -1 $-1 2.0581676724159658e-031 75 115 0 1 0 I I #
edge $-1 -1 $-1 $336 -115 $162 2.0581676724159658e-031 $158 $337 forward @7 unknown #
coedge $-1 -1 $-1 $338 $330 $159 $247 reversed $339 $-1 #
edge $-1 -1 $-1 $336 -115 $161 -1.7763568394002505e-014 $246 $340 forward @7 unknown #
face $-1 -1 $-1 $341 $160 $21 $-1 $342 reversed single #
edge $-1 -1 $-1 $161 -1.7763568394002505e-014 $343 115 $329 $340 forward @7 unknown #
point $-1 -1 $-1 -115 -75 1.7763568394002505e-014 #
edge $-1 -1 $-1 $162 2.0581676724159658e-031 $344 115 $345 $337 forward @7 unknown #
point $-1 -1 $-1 2.0581676724159658e-031 -75 115 #
loop $-1 -1 $-1 $-1 $170 $98 #
coedge $-1 -1 $-1 $254 $254 $168 $255 forward $164 $-1 #
edge $346 -1 $-1 $347 -3.1415926535897931 $347 3.1415926535897931 $168 $348 forward @7 unknown #
vertex $-1 -1 $-1 $169 $349 #
ellipse-curve $-1 -1 $-1 0 -35.000000000000142 0 0 1 0 -90 0 0 1 I I #
convexity-sys-attrib $-1 -1 $-1 $-1 $171 #
vertex $-1 -1 $-1 $171 $350 #
ellipse-curve $-1 -1 $-1 2.0581676724159658e-031 -65 1.7763568394002505e-014 0 -1 0 -115 0 -3.6801326332976323e-015 1 I I #
point $-1 -1 $-1 115 -35.000000000000142 3.5526674096257477e-014 #
model_id-kcp-attrib $-1 -1 $-1 $-1 $175 1 1021578754 1021578754 713293825 8 #
face $351 -1 $-1 $352 $353 $8 $-1 $354 reversed single #
loop $-1 -1 $-1 $-1 $355 $175 #
cone-surface $-1 -1 $-1 0 444.03380651844043 0 0 1 0 1.7632698070846453 0 0 1 I I -0.17364817766692991 0.98480775301220813 1.7632698070846453 forward I I I I #
coedge $-1 -1 $-1 $356 $357 $358 $359 reversed $176 $-1 #
coedge $-1 -1 $-1 $360 $360 $357 $361 reversed $178 $-1 #
coedge $-1 -1 $-1 $179 $179 $181 $273 forward $108 $-1 #
attrib_edge_convexity-kcp-attrib $-1 -1 $362 $-1 $180 1 #
vertex $-1 -1 $-1 $183 $363 #
vertex $-1 -1 $-1 $182 $364 #
ellipse-curve $-1 -1 $-1 -2.2204460492503131e-015 140 -6.6613381477509392e-015 0 -1 0 70.604032122068872 0 6.6613381477509392e-015 1 I I #
edge $365 -1 $-1 $270 0 $271 3.1415926535897931 $268 $366 forward @7 unknown #
straight-curve $-1 -1 $-1 -90.000000000000014 29.999999999999858 -2.2042914368802794e-014 1.7364817766693006 9.8480775301220795 4.2530132340119893e-016 I I #
straight-curve $-1 -1 $-1 90.000000000000014 29.999999999999858 1.1021457184401397e-014 -1.7364817766693006 9.8480775301220795 -2.1265066170059946e-016 I I #
convexity-sys-attrib $-1 -1 $-1 $185 $115 #
model_id-kcp-attrib $-1 -1 $-1 $-1 $189 1 1021578754 1021578754 713293825 14 #
loop $-1 -1 $-1 $122 $367 $189 #
plane-surface $-1 -1 $-1 0 0 0 0 -1 0 -10 0 0 forward_v I I I I #
plane-surface $-1 -1 $-1 115 0 0 -1 0 0 0 0 1 forward_v I I I I #
coedge $-1 -1 $-1 $197 $195 $199 $285 reversed $128 $-1 #
edge $-1 -1 $-1 $210 -115 $287 115 $209 $368 forward @7 unknown #
vertex $-1 -1 $-1 $285 $369 #
straight-curve $-1 -1 $-1 -115 -75 0 0 0 -1 I I #
edge $-1 -1 $-1 $283 -75 $287 75 $281 $370 forward @7 unknown #
straight-curve $-1 -1 $-1 0 -75 -115 -1 0 0 I I #
vertex $-1 -1 $-1 $202 $371 #
straight-curve $-1 -1 $-1 0 75 -115 1 0 0 I I #
point $-1 -1 $-1 115 75 -115 #
point $-1 -1 $-1 115 -75 -115 #
straight-curve $-1 -1 $-1 -115 0 115 0 -1 0 I I #
point $-1 -1 $-1 -115 75 115 #
point $-1 -1 $-1 -115 -75 115 #
straight-curve $-1 -1 $-1 115 -75 0 0 0 -1 I I #
straight-curve $-1 -1 $-1 115 75 0 0 0 -1 I I #
face $-1 -1 $-1 $372 $373 $21 $-1 $374 reversed single #
loop $-1 -1 $-1 $-1 $237 $219 #
plane-surface $-1 -1 $-1 -115 0 0 1 0 0 0 0 -1 forward_v I I I I #
coedge $-1 -1 $-1 $375 $222 $376 $377 reversed $147 $-1 #
coedge $-1 -1 $-1 $222 $375 $378 $379 reversed $147 $-1 #
coedge $-1 -1 $-1 $380 $381 $382 $225 forward $383 $-1 #
coedge $-1 -1 $-1 $384 $385 $223 $303 forward $386 $-1 #
edge $-1 -1 $-1 $238 -3.200115333302289e-017 $307 1.5707963267948966 $302 $234 forward @7 unknown #
coedge $-1 -1 $-1 $387 $388 $224 $305 forward $389 $-1 #
edge $-1 -1 $-1 $306 -1.5707963267948966 $161 3.200115333302289e-017 $304 $163 forward @7 unknown #
vertex $-1 -1 $-1 $390 $391 #
vertex $-1 -1 $-1 $392 $393 #
straight-curve $-1 -1 $-1 2.0581676724159658e-031 75 -115 0 1 0 I I #
coedge $-1 -1 $-1 $394 $345 $226 $310 forward $395 $-1 #
edge $-1 -1 $-1 $162 1.5707963267948966 $315 3.1415926535897931 $309 $163 forward @7 unknown #
coedge $-1 -1 $-1 $396 $227 $230 $319 reversed $314 $-1 #
coedge $-1 -1 $-1 $227 $396 $394 $397 forward $314 $-1 #
coedge $-1 -1 $-1 $398 $399 $375 $228 reversed $373 $-1 #
loop $-1 -1 $-1 $-1 $227 $400 #
vertex $-1 -1 $-1 $401 $402 #
straight-curve $-1 -1 $-1 115 75 1.7763568394002505e-014 0 1 0 I I #
coedge $-1 -1 $-1 $242 $403 $229 $318 forward $220 $-1 #
edge $-1 -1 $-1 $404 -115 $233 -2.0581676724159658e-031 $229 $405 forward @7 unknown #
edge $-1 -1 $-1 $404 -115 $232 -1.7763568394002505e-014 $311 $406 forward @7 unknown #
face $-1 -1 $-1 $407 $231 $21 $-1 $408 reversed single #
edge $-1 -1 $-1 $232 -1.7763568394002505e-014 $409 115 $399 $406 forward @7 unknown #
point $-1 -1 $-1 115 75 1.7763568394002505e-014 #
edge $-1 -1 $-1 $233 -2.0581676724159658e-031 $410 115 $326 $405 forward @7 unknown #
point $-1 -1 $-1 2.0581676724159658e-031 75 115 #
coedge $-1 -1 $-1 $326 $235 $411 $412 reversed $327 $-1 #
coedge $-1 -1 $-1 $235 $325 $240 $323 reversed $327 $-1 #
loop $-1 -1 $-1 $-1 $235 $407 #
coedge $-1 -1 $-1 $413 $237 $385 $331 forward $297 $-1 #
coedge $-1 -1 $-1 $237 $413 $387 $249 reversed $297 $-1 #
coedge $-1 -1 $-1 $246 $411 $94 $155 reversed $339 $-1 #
edge $-1 -1 $-1 $238 -1.7763568394002505e-014 $414 115 $385 $415 forward @7 unknown #
point $-1 -1 $-1 -115 75 1.7763568394002505e-014 #
coedge $-1 -1 $-1 $241 $240 $338 $416 forward $243 $-1 #
coedge $-1 -1 $-1 $403 $242 $345 $251 forward $220 $-1 #
face $-1 -1 $-1 $417 $243 $21 $-1 $221 forward single #
vertex $-1 -1 $-1 $416 $418 #
straight-curve $-1 -1 $-1 0 -75 115 1 0 0 I I #
coedge $-1 -1 $-1 $411 $246 $333 $416 reversed $339 $-1 #
loop $-1 -1 $-1 $-1 $330 $419 #
straight-curve $-1 -1 $-1 -115 -75 0 0 0 -1 I I #
face $-1 -1 $-1 $420 $395 $21 $-1 $342 reversed single #
plane-surface $-1 -1 $-1 0 -75 0 0 1 0 0 0 1 forward_v I I I I #
vertex $-1 -1 $-1 $421 $422 #
vertex $-1 -1 $-1 $423 $424 #
coedge $-1 -1 $-1 $309 $394 $334 $251 reversed $395 $-1 #
convexity-sys-attrib $-1 -1 $-1 $-1 $255 #
vertex $-1 -1 $-1 $255 $425 #
ellipse-curve $-1 -1 $-1 0 -65 0 0 1 0 -90 0 0 1 I I #
point $-1 -1 $-1 -90 -35.000000000000142 -1.1021819290986329e-014 #
point $-1 -1 $-1 115 -65 3.5526674096257477e-014 #
model_id-kcp-attrib $-1 -1 $-1 $-1 $263 1 1021578754 1021578754 713293825 9 #
face $426 -1 $-1 $427 $428 $8 $-1 $429 reversed single #
loop $-1 -1 $-1 $-1 $430 $263 #
cone-surface $-1 -1 $-1 0 -17.5 0 0 1 0 75 0 0 1 I I 0 1 75 forward I I I I #
coedge $-1 -1 $-1 $431 $432 $433 $434 reversed $264 $-1 #
coedge $-1 -1 $-1 $433 $266 $435 $436 forward $176 $-1 #
coedge $-1 -1 $-1 $266 $433 $267 $361 forward $176 $-1 #
coedge $-1 -1 $-1 $432 $431 $266 $359 forward $264 $-1 #
edge $-1 -1 $-1 $437 0 $438 11.302950206517007 $358 $439 forward @7 unknown #
coedge $-1 -1 $-1 $267 $267 $432 $440 reversed $178 $-1 #
edge $441 -1 $-1 $442 0 $438 3.1415926535897931 $267 $443 forward @7 unknown #
convexity-sys-attrib $-1 -1 $-1 $269 $180 #
point $-1 -1 $-1 70.604032122068872 140 0 #
point $-1 -1 $-1 -70.604032122068872 140 0 #
attrib_edge_convexity-kcp-attrib $-1 -1 $444 $-1 $273 1 #
ellipse-curve $-1 -1 $-1 -2.2204460492503131e-015 140 6.6613381477509392e-015 0 1 0 70.604032122068872 0 -6.6613381477509392e-015 1 I I #
coedge $-1 -1 $-1 $445 $445 $446 $447 reversed $278 $-1 #
straight-curve $-1 -1 $-1 -115 75 0 0 0 -1 I I #
point $-1 -1 $-1 -115 -75 -115 #
straight-curve $-1 -1 $-1 -115 0 -115 0 1 0 I I #
point $-1 -1 $-1 -115 75 -115 #
face $-1 -1 $-1 $320 $448 $21 $-1 $408 reversed single #
loop $-1 -1 $-1 $-1 $313 $296 #
plane-surface $-1 -1 $-1 115 0 0 -1 0 0 0 0 1 forward_v I I I I #
coedge $-1 -1 $-1 $300 $299 $149 $228 forward $147 $-1 #
coedge $-1 -1 $-1 $449 $450 $299 $377 forward $451 $-1 #
edge $-1 -1 $-1 $315 -3.1415926535897931 $306 -1.5707963267948966 $376 $163 forward @7 unknown #
coedge $-1 -1 $-1 $452 $453 $300 $379 forward $448 $-1 #
edge $-1 -1 $-1 $307 1.5707963267948966 $232 3.1415926535897931 $378 $234 forward @7 unknown #
coedge $-1 -1 $-1 $454 $301 $453 $392 forward $383 $-1 #
coedge $-1 -1 $-1 $301 $454 $449 $455 forward $383 $-1 #
coedge $-1 -1 $-1 $456 $457 $148 $225 reversed $458 $-1 #
loop $-1 -1 $-1 $-1 $301 $417 #
coedge $-1 -1 $-1 $385 $302 $457 $459 reversed $386 $-1 #
coedge $-1 -1 $-1 $302 $384 $328 $331 reversed $386 $-1 #
loop $-1 -1 $-1 $-1 $302 $460 #
coedge $-1 -1 $-1 $388 $304 $329 $249 forward $389 $-1 #
coedge $-1 -1 $-1 $304 $387 $456 $390 reversed $389 $-1 #
loop $-1 -1 $-1 $-1 $304 $461 #
edge $-1 -1 $-1 $306 -2.0581676724159658e-031 $343 115 $388 $462 forward @7 unknown #
point $-1 -1 $-1 2.0581676724159658e-031 -75 -115 #
edge $-1 -1 $-1 $307 2.0581676724159658e-031 $409 115 $453 $463 forward @7 unknown #
point $-1 -1 $-1 2.0581676724159658e-031 75 -115 #
coedge $-1 -1 $-1 $345 $309 $312 $397 reversed $395 $-1 #
loop $-1 -1 $-1 $-1 $309 $341 #
coedge $-1 -1 $-1 $312 $311 $403 $423 reversed $314 $-1 #
edge $-1 -1 $-1 $344 -115 $315 -1.7763568394002505e-014 $312 $464 forward @7 unknown #
coedge $-1 -1 $-1 $465 $313 $450 $401 forward $373 $-1 #
coedge $-1 -1 $-1 $313 $465 $452 $321 reversed $373 $-1 #
face $-1 -1 $-1 $-1 $314 $21 $-1 $374 reversed single #
edge $-1 -1 $-1 $315 -1.7763568394002505e-014 $466 115 $398 $464 forward @7 unknown #
point $-1 -1 $-1 115 -75 1.7763568394002505e-014 #
coedge $-1 -1 $-1 $317 $334 $396 $423 forward $220 $-1 #
vertex $-1 -1 $-1 $423 $467 #
straight-curve $-1 -1 $-1 0 75 115 -1 0 0 I I #
straight-curve $-1 -1 $-1 115 75 0 0 0 -1 I I #
face $-1 -1 $-1 $460 $327 $21 $-1 $408 reversed single #
plane-surface $-1 -1 $-1 0 75 0 0 -1 0 0 0 -1 forward_v I I I I #
vertex $-1 -1 $-1 $468 $469 #
vertex $-1 -1 $-1 $323 $470 #
coedge $-1 -1 $-1 $330 $338 $325 $412 forward $339 $-1 #
edge $-1 -1 $-1 $410 -115 $238 -1.7763568394002505e-014 $325 $415 forward @7 unknown #
coedge $-1 -1 $-1 $329 $328 $471 $421 reversed $297 $-1 #
vertex $-1 -1 $-1 $459 $472 #
straight-curve $-1 -1 $-1 -115 75 0 0 0 -1 I I #
edge $-1 -1 $-1 $410 -75 $336 75 $338 $473 forward @7 unknown #
face $-1 -1 $-1 $419 $383 $21 $-1 $474 reversed single #
point $-1 -1 $-1 -115 -75 115 #
face $-1 -1 $-1 $400 $339 $21 $-1 $298 reversed single #
face $-1 -1 $-1 $475 $451 $21 $-1 $342 reversed single #
edge $-1 -1 $-1 $343 -75 $414 75 $413 $476 forward @7 unknown #
point $-1 -1 $-1 -115 -75 -115 #
edge $-1 -1 $-1 $344 -75 $404 75 $396 $477 forward @7 unknown #
point $-1 -1 $-1 115 -75 115 #
point $-1 -1 $-1 90 -65 1.3487815940939391e-014 #
model_id-kcp-attrib $-1 -1 $-1 $-1 $352 1 1021578754 1021578754 713293825 10 #
face $478 -1 $-1 $479 $480 $8 $-1 $481 forward single #
loop $-1 -1 $-1 $-1 $482 $352 #
cone-surface $-1 -1 $-1 0 -17.5 0 0 1 0 75 0 0 1 I I 0 1 75 forward I I I I #
coedge $-1 -1 $-1 $483 $484 $485 $486 forward $353 $-1 #
coedge $-1 -1 $-1 $358 $355 $483 $487 reversed $264 $-1 #
coedge $-1 -1 $-1 $355 $358 $360 $440 forward $264 $-1 #
coedge $-1 -1 $-1 $357 $356 $355 $434 forward $176 $-1 #
edge $-1 -1 $-1 $488 3.9062002719463035e-032 $442 11.302950206517007 $355 $489 forward @7 unknown #
coedge $-1 -1 $-1 $485 $482 $356 $436 reversed $428 $-1 #
edge $-1 -1 $-1 $437 0 $488 3.1415926535897931 $435 $490 forward @7 unknown #
vertex $-1 -1 $-1 $487 $491 #
vertex $-1 -1 $-1 $440 $492 #
straight-curve $-1 -1 $-1 75.000000000000014 28.687670047111098 0 -1.7364817766692988 9.8480775301220831 0 I I #
edge $493 -1 $-1 $438 0 $442 3.1415926535897931 $360 $494 forward @7 unknown #
attrib_edge_convexity-kcp-attrib $-1 -1 $495 $-1 $361 1 #
vertex $-1 -1 $-1 $440 $496 #
ellipse-curve $-1 -1 $-1 0 140 6.6613381477509392e-015 0 1 0 -55.372632943782719 0 -6.6613381477509392e-015 1 I I #
convexity-sys-attrib $-1 -1 $-1 $365 $273 #
coedge $-1 -1 $-1 $367 $367 $497 $498 reversed $278 $-1 #
coedge $-1 -1 $-1 $499 $500 $367 $447 forward $501 $-1 #
edge $502 -1 $-1 $503 0 $504 3.1415926535897931 $367 $505 forward @7 unknown #
loop $-1 -1 $-1 $-1 $378 $372 #
coedge $-1 -1 $-1 $450 $376 $381 $455 reversed $451 $-1 #
coedge $-1 -1 $-1 $376 $449 $398 $401 reversed $451 $-1 #
loop $-1 -1 $-1 $-1 $376 $420 #
coedge $-1 -1 $-1 $453 $378 $399 $321 forward $448 $-1 #
coedge $-1 -1 $-1 $378 $452 $380 $392 reversed $448 $-1 #
coedge $-1 -1 $-1 $381 $380 $465 $468 forward $383 $-1 #
edge $-1 -1 $-1 $466 -115 $306 -2.0581676724159658e-031 $449 $462 forward @7 unknown #
coedge $-1 -1 $-1 $471 $382 $388 $390 forward $458 $-1 #
coedge $-1 -1 $-1 $382 $471 $384 $459 forward $458 $-1 #
loop $-1 -1 $-1 $-1 $382 $475 #
edge $-1 -1 $-1 $414 -115 $307 2.0581676724159658e-031 $384 $463 forward @7 unknown #
face $-1 -1 $-1 $461 $386 $21 $-1 $408 reversed single #
face $-1 -1 $-1 $248 $389 $21 $-1 $342 reversed single #
straight-curve $-1 -1 $-1 0 -75 -115 -1 0 0 I I #
straight-curve $-1 -1 $-1 0 75 -115 1 0 0 I I #
straight-curve $-1 -1 $-1 115 -75 0 0 0 -1 I I #
coedge $-1 -1 $-1 $399 $398 $454 $468 reversed $373 $-1 #
vertex $-1 -1 $-1 $401 $506 #
point $-1 -1 $-1 115 75 115 #
edge $-1 -1 $-1 $409 -75 $466 75 $465 $507 forward @7 unknown #
point $-1 -1 $-1 115 75 -115 #
point $-1 -1 $-1 -115 75 115 #
coedge $-1 -1 $-1 $457 $456 $413 $421 forward $458 $-1 #
point $-1 -1 $-1 -115 75 -115 #
straight-curve $-1 -1 $-1 -115 0 115 0 -1 0 I I #
plane-surface $-1 -1 $-1 0 0 -115 0 0 1 1 0 0 forward_v I I I I #
face $-1 -1 $-1 $335 $458 $21 $-1 $474 reversed single #
straight-curve $-1 -1 $-1 -115 0 -115 0 1 0 I I #
straight-curve $-1 -1 $-1 115 0 115 0 1 0 I I #
model_id-kcp-attrib $-1 -1 $-1 $-1 $427 1 1021578754 1021578754 713293825 11 #
face $508 -1 $-1 $509 $501 $8 $-1 $510 forward single #
loop $-1 -1 $-1 $511 $512 $427 #
plane-surface $-1 -1 $-1 0 -10 0 0 -1 0 -10 0 0 forward_v I I I I #
coedge $-1 -1 $-1 $435 $513 $514 $515 forward $428 $-1 #
coedge $-1 -1 $-1 $514 $430 $431 $487 forward $353 $-1 #
coedge $-1 -1 $-1 $430 $514 $516 $517 reversed $353 $-1 #
coedge $-1 -1 $-1 $513 $435 $430 $486 reversed $428 $-1 #
edge $-1 -1 $-1 $518 0 $437 3.8687670047111098 $430 $519 forward @7 unknown #
edge $-1 -1 $-1 $437 0 $488 3.1415926535897931 $483 $520 forward @7 unknown #
vertex $-1 -1 $-1 $515 $521 #
straight-curve $-1 -1 $-1 -75.000000000000014 28.687670047111098 9.184547653667831e-015 1.7364817766692988 9.8480775301220831 -2.1265066170059946e-016 I I #
ellipse-curve $-1 -1 $-1 -2.2204460492503131e-015 28.687670047111098 -6.6613381477509392e-015 0 -1 0 75.000000000000014 0 6.6613381477509392e-015 1 I I #
point $-1 -1 $-1 75.000000000000014 28.687670047111098 0 #
point $-1 -1 $-1 55.372632943782719 140 0 #
attrib_edge_convexity-kcp-attrib $-1 -1 $522 $-1 $440 1 #
ellipse-curve $-1 -1 $-1 -2.2204460492503131e-015 140 -6.6613381477509392e-015 0 1 0 55.372632943782719 0 6.6613381477509392e-015 1 I I #
convexity-sys-attrib $-1 -1 $-1 $441 $361 #
point $-1 -1 $-1 -55.372632943782719 140 0 #
coedge $-1 -1 $-1 $523 $524 $445 $498 forward $525 $-1 #
edge $526 -1 $-1 $504 0 $503 3.1415926535897931 $445 $527 forward @7 unknown #
coedge $-1 -1 $-1 $528 $446 $524 $529 forward $501 $-1 #
coedge $-1 -1 $-1 $446 $528 $523 $530 reversed $501 $-1 #
loop $-1 -1 $-1 $-1 $499 $479 #
attrib_edge_convexity-kcp-attrib $-1 -1 $531 $-1 $447 1 #
vertex $-1 -1 $-1 $498 $532 #
vertex $-1 -1 $-1 $498 $533 #
ellipse-curve $-1 -1 $-1 0 0 0 0 -1 0 115 0 -1.4083435760704776e-014 1 I I #
point $-1 -1 $-1 115 -75 -115 #
straight-curve $-1 -1 $-1 115 0 -115 0 -1 0 I I #
model_id-kcp-attrib $-1 -1 $-1 $-1 $479 1 1021578754 1021578754 713293825 12 #
face $534 -1 $-1 $189 $525 $8 $-1 $535 forward single #
cone-surface $-1 -1 $-1 0 0 0 0 -1 0 -115 0 0 1 I I 0 1 115 forward I I I I #
loop $-1 -1 $-1 $-1 $536 $427 #
coedge $-1 -1 $-1 $537 $537 $528 $538 forward $480 $-1 #
coedge $-1 -1 $-1 $482 $485 $536 $539 reversed $428 $-1 #
coedge $-1 -1 $-1 $484 $483 $482 $515 reversed $353 $-1 #
edge $-1 -1 $-1 $540 0 $488 3.8687670047111098 $514 $541 forward @7 unknown #
coedge $-1 -1 $-1 $536 $536 $484 $517 forward $511 $-1 #
edge $-1 -1 $-1 $518 0 $540 3.1415926535897931 $516 $542 forward @7 unknown #
vertex $-1 -1 $-1 $517 $543 #
straight-curve $-1 -1 $-1 75 -10 0 0 10 0 I I #
ellipse-curve $-1 -1 $-1 -2.2204460492503131e-015 28.687670047111098 6.6613381477509392e-015 0 1 0 75.000000000000014 0 -6.6613381477509392e-015 1 I I #
point $-1 -1 $-1 -75.000000000000014 28.687670047111098 -9.184547653667831e-015 #
convexity-sys-attrib $-1 -1 $-1 $493 $440 #
coedge $-1 -1 $-1 $544 $497 $500 $530 forward $525 $-1 #
coedge $-1 -1 $-1 $497 $544 $499 $529 reversed $525 $-1 #
loop $-1 -1 $-1 $-1 $523 $509 #
attrib_edge_convexity-kcp-attrib $-1 -1 $545 $-1 $498 1 #
ellipse-curve $-1 -1 $-1 0 0 0 0 -1 0 -115 0 1.4083435760704874e-014 1 I I #
coedge $-1 -1 $-1 $500 $499 $512 $538 reversed $501 $-1 #
edge $-1 -1 $-1 $504 0 $546 1 $524 $547 forward @7 unknown #
edge $-1 -1 $-1 $503 0 $548 1 $523 $549 forward @7 unknown #
convexity-sys-attrib $-1 -1 $-1 $502 $447 #
point $-1 -1 $-1 115 0 -1.4083435760704776e-014 #
point $-1 -1 $-1 -115 0 1.4083435760704874e-014 #
model_id-kcp-attrib $-1 -1 $-1 $-1 $509 1 1021578754 1021578754 713293825 13 #
cone-surface $-1 -1 $-1 0 0 0 0 -1 0 -115 0 0 1 I I 0 1 115 forward I I I I #
coedge $-1 -1 $-1 $516 $516 $513 $539 forward $511 $-1 #
coedge $-1 -1 $-1 $512 $512 $544 $550 forward $480 $-1 #
edge $-1 -1 $-1 $548 0 $546 3.1415926535897931 $512 $551 forward @7 unknown #
edge $-1 -1 $-1 $540 0 $518 3.1415926535897931 $536 $552 forward @7 unknown #
vertex $-1 -1 $-1 $517 $553 #
straight-curve $-1 -1 $-1 -75 -10 9.1845476536678294e-015 0 10 0 I I #
ellipse-curve $-1 -1 $-1 0 -10 0 0 1 0 75 0 0 1 I I #
point $-1 -1 $-1 75 -10 0 #
coedge $-1 -1 $-1 $524 $523 $537 $550 reversed $525 $-1 #
convexity-sys-attrib $-1 -1 $-1 $526 $498 #
vertex $-1 -1 $-1 $550 $554 #
straight-curve $-1 -1 $-1 -115 0 0 0 -10 0 I I #
vertex $-1 -1 $-1 $550 $555 #
straight-curve $-1 -1 $-1 115 0 -1.4082973068957338e-014 0 -10 0 I I #
edge $-1 -1 $-1 $546 0 $548 3.1415926535897931 $537 $556 forward @7 unknown #
ellipse-curve $-1 -1 $-1 0 -10 -8.8817841970012523e-015 0 -1 0 115 0 -5.2016515637035238e-015 1 I I #
ellipse-curve $-1 -1 $-1 0 -10 0 0 1 0 -75 0 0 1 I I #
point $-1 -1 $-1 -75 -10 0 #
point $-1 -1 $-1 -115 -10 1.4083435760704872e-014 #
point $-1 -1 $-1 115 -10 -1.4083435760704776e-014 #
ellipse-curve $-1 -1 $-1 0 -10 1.7763568394002505e-014 0 -1 0 -115 0 -3.6801326332976323e-015 1 I I #
End-of-ACIS-data 