600 0 1 0           
96 GICL ACIS Healer - Source: /gicl/data5/repository/PTC/V18/asmdes18/parts/spring_seat_2.sat - 6 0 18 ACIS 6.0.3 Solaris 24 Sat Apr 13 23:02:22 2002 
1 9.999999999999999547e-07 1.000000000000000036e-10 
body $-1 $1 $-1 $-1 #
lump $-1 $-1 $2 $0 #
shell $-1 $-1 $-1 $3 $-1 $1 #
face $-1 $4 $5 $2 $-1 $6 forward single #
face $-1 $7 $8 $2 $-1 $9 reversed single #
loop $-1 $-1 $10 $3 #
cone-surface $-1 0 120.4182389825160442 0 0 1 0 -5.77350269189625287 0 0 1 I I -0.4999999999999996669 0.8660254037844388186 5.77350269189625287 forward I I I I #
face $-1 $11 $12 $2 $-1 $13 forward single #
loop $-1 $14 $15 $4 #
plane-surface $-1 0 45 0 0 -1 0 -10 0 0 forward_v I I I I #
coedge $-1 $16 $17 $15 $18 forward $5 $-1 #
face $-1 $19 $20 $2 $-1 $21 reversed single #
loop $-1 $-1 $22 $7 #
cone-surface $-1 0 120.4182389825160442 0 0 1 0 -5.77350269189625287 0 0 1 I I -0.4999999999999996669 0.8660254037844388186 5.77350269189625287 forward I I I I #
loop $-1 $-1 $23 $4 #
coedge $-1 $24 $24 $10 $18 reversed $8 $-1 #
coedge $-1 $25 $10 $26 $27 reversed $5 $-1 #
coedge $-1 $10 $25 $28 $29 forward $5 $-1 #
edge $-1 $30 0 $31 3.141592653589793116 $10 $32 forward 7 unknown #
face $-1 $33 $34 $2 $-1 $35 forward single #
loop $-1 $36 $37 $11 #
plane-surface $-1 0 20 0 0 -1 0 -10 0 0 forward_v I I I I #
coedge $-1 $26 $28 $38 $39 forward $12 $-1 #
coedge $-1 $40 $40 $41 $42 reversed $14 $-1 #
coedge $-1 $15 $15 $43 $44 forward $8 $-1 #
coedge $-1 $17 $16 $45 $46 reversed $5 $-1 #
coedge $-1 $43 $22 $16 $27 forward $12 $-1 #
edge $-1 $47 0 $31 2.886751345948128211 $16 $48 forward 7 unknown #
coedge $-1 $22 $43 $17 $29 reversed $12 $-1 #
edge $-1 $49 0 $30 2.886751345948128211 $17 $50 forward 7 unknown #
vertex $-1 $29 $51 #
vertex $-1 $27 $52 #
ellipse-curve $-1 0 45 0 0 -1 0 49.31624327025937049 0 0 1 I I #
face $-1 $53 $54 $2 $-1 $55 forward single #
loop $-1 $-1 $56 $19 #
cone-surface $-1 0 47.25 0 0 -1 0 -75 0 0 1 I I 0 1 75 forward I I I I #
loop $-1 $-1 $45 $11 #
coedge $-1 $57 $57 $58 $59 forward $20 $-1 #
coedge $-1 $45 $45 $22 $39 reversed $36 $-1 #
edge $-1 $49 0 $47 3.141592653589793116 $38 $60 forward 7 unknown #
coedge $-1 $23 $23 $61 $62 reversed $14 $-1 #
coedge $-1 $63 $64 $23 $42 forward $65 $-1 #
edge $-1 $66 0 $67 3.141592653589793116 $23 $68 forward 7 unknown #
coedge $-1 $28 $26 $24 $44 reversed $12 $-1 #
edge $-1 $30 0 $31 3.141592653589793116 $24 $69 forward 7 unknown #
coedge $-1 $38 $38 $25 $46 forward $36 $-1 #
edge $-1 $49 0 $47 3.141592653589793116 $25 $70 forward 7 unknown #
vertex $-1 $46 $71 #
straight-curve $-1 -63.75000000000000711 20 -1.56137310112353132e-14 4.999999999999995559 8.660254037844389075 1.224606353822376075e-15 I I #
vertex $-1 $29 $72 #
straight-curve $-1 63.75000000000000711 20 7.806865505617656599e-15 -4.999999999999995559 8.660254037844389075 -6.123031769111880375e-16 I I #
point $-1 49.31624327025937049 45 0 #
point $-1 -49.31624327025937049 45 0 #
face $-1 $73 $74 $2 $-1 $75 forward single #
loop $-1 $76 $77 $33 #
plane-surface $-1 0 0 0 0 -1 0 -10 0 0 forward_v I I I I #
coedge $-1 $78 $79 $80 $81 forward $34 $-1 #
coedge $-1 $37 $37 $82 $83 reversed $20 $-1 #
coedge $-1 $79 $78 $37 $59 reversed $34 $-1 #
edge $-1 $84 -1.224606353822377258e-16 $85 3.141592653589793116 $37 $86 forward 7 unknown #
ellipse-curve $-1 0 20 -2.220446049250313081e-15 0 1 0 63.75000000000000711 0 1.002731155486796968e-14 1 I I #
coedge $-1 $87 $88 $40 $62 forward $89 $-1 #
edge $-1 $67 0 $66 3.141592653589793116 $40 $90 forward 7 unknown #
coedge $-1 $91 $41 $88 $92 reversed $65 $-1 #
coedge $-1 $41 $91 $87 $93 forward $65 $-1 #
loop $-1 $-1 $64 $73 #
vertex $-1 $62 $94 #
vertex $-1 $62 $95 #
ellipse-curve $-1 0 45 0 0 1 0 -43.54274057836312295 0 0 1 I I #
ellipse-curve $-1 0 45 0 0 1 0 49.31624327025937049 0 0 1 I I #
ellipse-curve $-1 0 20 2.220446049250313081e-15 0 -1 0 63.75000000000000711 0 5.586419456367343518e-15 1 I I #
point $-1 -63.75000000000000711 20 -1.56137310112353132e-14 #
point $-1 63.75000000000000711 20 7.806865505617656599e-15 #
face $-1 $96 $65 $2 $-1 $97 reversed single #
loop $-1 $-1 $82 $53 #
cone-surface $-1 0 47.25 0 0 -1 0 -75 0 0 1 I I 0 1 75 forward I I I I #
loop $-1 $-1 $98 $33 #
coedge $-1 $80 $80 $99 $100 forward $54 $-1 #
coedge $-1 $58 $56 $101 $102 forward $34 $-1 #
coedge $-1 $56 $58 $103 $104 reversed $34 $-1 #
coedge $-1 $77 $77 $56 $81 reversed $54 $-1 #
edge $-1 $105 0 $106 3.141592653589793116 $80 $107 forward 7 unknown #
coedge $-1 $101 $103 $57 $83 forward $74 $-1 #
edge $-1 $84 1.224606353822377258e-16 $85 3.141592653589793116 $82 $108 forward 7 unknown #
vertex $-1 $104 $109 #
vertex $-1 $102 $110 #
ellipse-curve $-1 2.220446049250313081e-15 20 -4.440892098500626162e-15 0 1 0 75 0 4.440892098500626162e-15 1 I I #
coedge $-1 $111 $61 $64 $93 reversed $89 $-1 #
coedge $-1 $61 $111 $63 $92 forward $89 $-1 #
loop $-1 $-1 $88 $96 #
ellipse-curve $-1 0 45 0 0 1 0 43.54274057836312295 0 0 1 I I #
coedge $-1 $64 $63 $98 $112 reversed $65 $-1 #
edge $-1 $113 3.787283033973803712e-15 $67 5.196152422706634688 $88 $114 forward 7 unknown #
edge $-1 $115 3.787283033973803712e-15 $66 5.196152422706634688 $87 $116 forward 7 unknown #
point $-1 -43.54274057836312295 45 0 #
point $-1 43.54274057836312295 45 0 #
face $-1 $-1 $89 $2 $-1 $117 reversed single #
cone-surface $-1 0 110.4182389825160868 0 0 1 0 5.773502691896248429 0 0 1 I I -0.4999999999999993894 0.8660254037844390407 5.773502691896248429 forward I I I I #
coedge $-1 $118 $118 $91 $112 forward $76 $-1 #
coedge $-1 $103 $101 $77 $100 reversed $74 $-1 #
edge $-1 $105 0 $106 3.141592653589793116 $77 $119 forward 7 unknown #
coedge $-1 $99 $82 $78 $102 reversed $74 $-1 #
edge $-1 $106 0 $85 2 $101 $120 forward 7 unknown #
coedge $-1 $82 $99 $79 $104 forward $74 $-1 #
edge $-1 $105 0 $84 2 $103 $121 forward 7 unknown #
vertex $-1 $81 $122 #
vertex $-1 $81 $123 #
ellipse-curve $-1 -4.440892098500626162e-15 0 -2.220446049250313081e-15 0 1 0 75 0 1.140499370291814252e-14 1 I I #
ellipse-curve $-1 2.220446049250313081e-15 20 4.440892098500626162e-15 0 -1 0 75 0 -4.440892098500626162e-15 1 I I #
point $-1 75 20 9.184547653667829437e-15 #
point $-1 -75 20 0 #
coedge $-1 $88 $87 $118 $124 reversed $89 $-1 #
edge $-1 $115 0 $113 3.141592653589793116 $98 $125 forward 7 unknown #
vertex $-1 $124 $126 #
straight-curve $-1 69.52350269189625465 -3.552713678800500929e-14 0 -4.999999999999992895 8.660254037844389075 0 I I #
vertex $-1 $124 $127 #
straight-curve $-1 -69.52350269189625465 -3.552713678800500929e-14 8.513892313648331372e-15 4.999999999999992895 8.660254037844389075 -6.123031769111877416e-16 I I #
cone-surface $-1 0 110.4182389825160868 0 0 1 0 5.773502691896248429 0 0 1 I I -0.4999999999999993894 0.8660254037844390407 5.773502691896248429 forward I I I I #
coedge $-1 $98 $98 $111 $124 forward $76 $-1 #
ellipse-curve $-1 2.220446049250313081e-15 0 0 0 -1 0 75 0 9.184547653667829437e-15 1 I I #
straight-curve $-1 -75 0 -1.836909530733565887e-14 0 10 0 I I #
straight-curve $-1 75 0 9.184547653667829437e-15 0 10 0 I I #
point $-1 75 0 9.184547653667829437e-15 #
point $-1 -75 0 -1.836909530733565887e-14 #
edge $-1 $113 0 $115 3.141592653589793116 $118 $128 forward 7 unknown #
ellipse-curve $-1 0 0 0 0 1 0 -69.52350269189624044 0 0 1 I I #
point $-1 69.52350269189624044 0 0 #
point $-1 -69.52350269189624044 0 0 #
ellipse-curve $-1 6.661338147750939243e-15 0 0 0 1 0 69.52350269189624044 0 0 1 I I #
End-of-ACIS-data 