600 0 1 0           
92 GICL ACIS Healer - Source: /gicl/data5/repository/PTC/V18/asmdes18/parts/top_cover.sat - 6 0 18 ACIS 6.0.3 Solaris 24 Sat Apr 13 23:02:24 2002 
1 9.999999999999999547e-07 1.000000000000000036e-10 
body $-1 $1 $-1 $-1 #
lump $-1 $-1 $2 $0 #
shell $-1 $-1 $-1 $3 $-1 $1 #
face $-1 $4 $5 $2 $-1 $6 reversed single #
face $-1 $7 $8 $2 $-1 $9 forward single #
loop $-1 $10 $11 $3 #
plane-surface $-1 470 180 171.5998905555568399 0 1 0 10 0 0 forward_v I I I I #
face $-1 $12 $13 $2 $-1 $14 forward single #
loop $-1 $-1 $15 $4 #
plane-surface $-1 -65 180 171.5998905555568399 0 0 1 10 0 0 forward_v I I I I #
loop $-1 $-1 $16 $3 #
coedge $-1 $17 $18 $19 $20 reversed $5 $-1 #
face $-1 $21 $22 $2 $-1 $23 forward single #
loop $-1 $-1 $24 $7 #
plane-surface $-1 470 180 171.5998905555568399 1 0 0 0 0 -10 forward_v I I I I #
coedge $-1 $25 $19 $26 $27 forward $8 $-1 #
coedge $-1 $28 $28 $29 $30 forward $10 $-1 #
coedge $-1 $31 $11 $32 $33 reversed $5 $-1 #
coedge $-1 $11 $31 $34 $35 reversed $5 $-1 #
coedge $-1 $15 $36 $11 $20 forward $8 $-1 #
edge $-1 $37 0 $38 53.5 $11 $39 forward 7 unknown #
face $-1 $40 $41 $2 $-1 $42 forward single #
loop $-1 $-1 $43 $12 #
plane-surface $-1 470 180 -171.5998905555568399 0 0 -1 -10 0 0 forward_v I I I I #
coedge $-1 $44 $34 $45 $46 forward $13 $-1 #
coedge $-1 $36 $15 $47 $48 reversed $8 $-1 #
coedge $-1 $34 $44 $15 $27 reversed $13 $-1 #
edge $-1 $38 0 $49 1 $26 $50 forward 7 unknown #
coedge $-1 $16 $16 $51 $52 forward $10 $-1 #
coedge $-1 $53 $54 $16 $30 reversed $55 $-1 #
edge $-1 $56 0 $57 1 $16 $58 forward 7 unknown #
coedge $-1 $18 $17 $59 $60 reversed $5 $-1 #
coedge $-1 $61 $62 $17 $33 forward $41 $-1 #
edge $-1 $63 0 $37 34.31997811111136798 $17 $64 forward 7 unknown #
coedge $-1 $24 $26 $18 $35 forward $13 $-1 #
edge $-1 $38 0 $65 34.31997811111136798 $18 $66 forward 7 unknown #
coedge $-1 $19 $25 $61 $67 reversed $8 $-1 #
vertex $-1 $33 $68 #
vertex $-1 $35 $69 #
straight-curve $-1 -65 180 171.5998905555568399 10 0 0 I I #
face $-1 $70 $71 $2 $-1 $72 forward single #
loop $-1 $-1 $61 $21 #
plane-surface $-1 -65 180 -171.5998905555568399 -1 0 0 0 0 10 forward_v I I I I #
coedge $-1 $73 $59 $62 $74 forward $22 $-1 #
coedge $-1 $26 $24 $75 $76 reversed $13 $-1 #
coedge $-1 $59 $73 $24 $46 reversed $22 $-1 #
edge $-1 $65 0 $77 1 $24 $78 forward 7 unknown #
coedge $-1 $75 $79 $25 $48 forward $71 $-1 #
edge $-1 $80 0 $49 53.5 $47 $81 forward 7 unknown #
vertex $-1 $76 $82 #
straight-curve $-1 470 180 171.5998905555568399 0 10 0 I I #
coedge $-1 $83 $84 $28 $52 reversed $85 $-1 #
edge $-1 $57 0 $56 1 $28 $86 forward 7 unknown #
coedge $-1 $87 $29 $84 $88 reversed $55 $-1 #
coedge $-1 $29 $87 $83 $89 forward $55 $-1 #
loop $-1 $-1 $53 $90 #
vertex $-1 $52 $91 #
vertex $-1 $52 $92 #
intcurve-curve $-1 forward { surfintcur full nurbs 3 open 19 
	0 3 0.05550706393294138619 1 0.1110198910689973173 1 0.1665435889510662737 1 0.2220820169468094019 1 
	0.277637310069709875 1 0.3332095912122212122 1 0.3887969130533707185 1 0.4443954598988556493 1 0.4999999999999999445 1 
	0.5556045401011442397 1 0.6112030869466291705 1 0.6667904087877787322 1 0.7223626899302899584 1 0.7779179830531903761 1 
	0.833456411048933532 1 0.888980108931002766 1 0.9444929360670586416 1 1 3 
	343.2100751197694422 180 0 1 
	343.2051665485804506 180 -4.364153835093534717 1 
	342.4516927862154034 179.9999999999999716 -12.94957277542312113 1.000000000000000222 
	339.0548058050818554 180 -25.56998982036747137 0.999999999999999778 
	333.4959055720194101 180.0000000000000284 -37.4198396080842528 1 
	325.9175448220270255 180 -48.1840332954290318 1 
	316.5292533494449572 180 -57.51959625308845148 1 
	305.5996062112335494 180.0000000000000284 -65.13006733508541402 0.999999999999999778 
	293.454549201727616 179.9999999999999716 -70.76178126016961301 1.000000000000000222 
	280.4687814671479487 180 -74.22190179238890551 0.999999999999999889 
	267.0530792283385608 180 -75.38907007148549155 1.000000000000000222 
	253.6373769895293151 180 -74.22190179238894814 0.999999999999999889 
	240.651609254949733 180.0000000000000284 -70.76178126016964143 1 
	228.5065522454437144 179.9999999999999716 -65.13006733508544244 1.000000000000000222 
	217.5769051072322497 180.0000000000000284 -57.519596253088487 0.999999999999999778 
	208.1886136346501814 179.9999999999999716 -48.1840332954290389 1 
	200.6102528846578252 180.0000000000000284 -37.41983960808418175 1.000000000000000222 
	195.0513526515953799 180 -25.56998982036746071 0.9999999999999996669 
	191.6544656704617466 179.9999999999999716 -12.94957277542306784 1.000000000000000222 
	190.9009919080967848 180.0000000000000284 -4.364153835093514289 0.999999999999999889 
	190.8960833369077648 180 0 1 
	0.01000000000000000021 
	plane 470 180 171.5998905555568399 0 1 0 10 0 0 forward_v I I I I 
	cone 275.6283359900237429 228.6326977710986625 0 0.1736481776669304422 0.9848077530122080203 0 0 0 75 1 I I 0 1 75 forward I I I I 
	nullbs 
	nullbs 
	I I 
	0 
	0 
	0 
	} I I #
coedge $-1 $43 $45 $31 $60 forward $22 $-1 #
edge $-1 $65 0 $63 53.5 $31 $93 forward 7 unknown #
coedge $-1 $94 $32 $36 $67 forward $41 $-1 #
coedge $-1 $32 $94 $43 $74 reversed $41 $-1 #
vertex $-1 $60 $95 #
straight-curve $-1 -65 180 -171.5998905555568399 0 0 10 I I #
vertex $-1 $35 $96 #
straight-curve $-1 470 180 171.5998905555568399 0 0 -10 I I #
edge $-1 $37 0 $80 1 $61 $97 forward 7 unknown #
point $-1 -65 180 171.5998905555568399 #
point $-1 470 180 171.5998905555568399 #
face $-1 $98 $99 $2 $-1 $100 reversed single #
loop $-1 $101 $102 $40 #
plane-surface $-1 470 190 171.5998905555568399 0 1 0 10 0 0 forward_v I I I I #
coedge $-1 $45 $43 $102 $103 reversed $22 $-1 #
edge $-1 $63 0 $104 1 $43 $105 forward 7 unknown #
coedge $-1 $102 $47 $44 $76 forward $71 $-1 #
edge $-1 $49 0 $77 34.31997811111136798 $75 $106 forward 7 unknown #
vertex $-1 $76 $107 #
straight-curve $-1 470 180 -171.5998905555568399 0 10 0 I I #
coedge $-1 $47 $102 $94 $108 forward $71 $-1 #
vertex $-1 $48 $109 #
straight-curve $-1 -65 190 171.5998905555568399 10 0 0 I I #
point $-1 470 190 171.5998905555568399 #
coedge $-1 $110 $51 $54 $89 reversed $85 $-1 #
coedge $-1 $51 $110 $53 $88 forward $85 $-1 #
loop $-1 $-1 $83 $111 #
intcurve-curve $-1 forward { surfintcur full nurbs 3 open 19 
	0 3 0.05550706393294137231 1 0.1110198910689973173 1 0.1665435889510662737 1 0.2220820169468094019 1 
	0.277637310069709875 1 0.3332095912122211567 1 0.3887969130533707185 1 0.4443954598988556493 1 0.4999999999999998335 1 
	0.5556045401011442397 1 0.6112030869466291705 1 0.6667904087877787322 1 0.7223626899302899584 1 0.7779179830531903761 1 
	0.833456411048933532 1 0.888980108931002766 1 0.9444929360670586416 1 1 3 
	190.8960833369077648 180 0 1 
	190.9009919080966995 179.9999999999999716 4.364153835093502742 1.000000000000000222 
	191.6544656704617751 180.0000000000000284 12.94957277542305008 0.999999999999999778 
	195.0513526515954084 179.9999999999999432 25.5699898203675744 1.000000000000000222 
	200.6102528846578252 180.0000000000000284 37.41983960808418175 0.999999999999999778 
	208.1886136346500962 179.9999999999999716 48.18403329542896785 1.000000000000000222 
	217.5769051072322497 180.0000000000000284 57.51959625308841595 1 
	228.5065522454437428 180 65.13006733508544244 1 
	240.6516092549495625 180 70.7617812601695988 1 
	253.6373769895294004 180.0000000000000284 74.22190179238894814 0.999999999999999889 
	267.0530792283386177 180 75.38907007148549155 1 
	280.4687814671479487 180.0000000000000284 74.22190179238893393 0.999999999999999889 
	293.4545492017275023 180 70.76178126016962722 1.000000000000000222 
	305.5996062112335494 180 65.13006733508544244 0.999999999999999889 
	316.529253349445014 180.0000000000000284 57.5195962530884799 0.999999999999999778 
	325.9175448220269118 179.9999999999999716 48.18403329542910996 1 
	333.4959055720194101 180.0000000000000284 37.41983960808416754 1.000000000000000222 
	339.0548058050818554 180 25.56998982036743939 0.9999999999999996669 
	342.4516927862154603 179.9999999999999716 12.94957277542307317 1.000000000000000222 
	343.2051665485804506 180.0000000000000284 4.364153835093516953 0.999999999999999889 
	343.2100751197694422 180 0 1 
	0.01000000000000000021 
	plane 470 180 171.5998905555568399 0 1 0 10 0 0 forward_v I I I I 
	cone 275.6283359900237429 228.6326977710986625 0 0.1736481776669304422 0.9848077530122080203 0 0 0 75 1 I I 0 1 75 forward I I I I 
	nullbs 
	nullbs 
	I I 
	0 
	0 
	0 
	} I I #
coedge $-1 $54 $53 $112 $113 forward $55 $-1 #
edge $-1 $114 -0 $56 3.61584119714352914 $84 $115 forward 7 unknown #
edge $-1 $116 -0 $57 6.260745907770500551 $83 $117 forward 7 unknown #
face $-1 $111 $55 $2 $-1 $118 reversed single #
point $-1 343.2100751197694422 180 0 #
point $-1 190.8960833369077648 180 0 #
straight-curve $-1 470 180 -171.5998905555568399 -10 0 0 I I #
coedge $-1 $62 $61 $79 $108 reversed $41 $-1 #
point $-1 -65 180 -171.5998905555568399 #
point $-1 470 180 -171.5998905555568399 #
straight-curve $-1 -65 180 171.5998905555568399 0 10 0 I I #
face $-1 $119 $120 $2 $-1 $121 forward single #
loop $-1 $-1 $122 $70 #
cone-surface $-1 281.6666666666666288 190 -141.5998905555568399 0 1 0 25 0 0 1 I I 0 1 25 forward I I I I #
loop $-1 $-1 $123 $40 #
coedge $-1 $79 $75 $73 $103 forward $71 $-1 #
edge $-1 $77 0 $104 53.5 $102 $124 forward 7 unknown #
vertex $-1 $108 $125 #
straight-curve $-1 -65 180 -171.5998905555568399 0 10 0 I I #
straight-curve $-1 470 190 171.5998905555568399 0 0 -10 I I #
point $-1 470 190 -171.5998905555568399 #
edge $-1 $104 0 $80 34.31997811111136798 $79 $126 forward 7 unknown #
point $-1 -65 190 171.5998905555568399 #
coedge $-1 $84 $83 $127 $128 forward $85 $-1 #
face $-1 $-1 $85 $2 $-1 $129 reversed single #
coedge $-1 $127 $127 $87 $113 reversed $130 $-1 #
edge $-1 $114 0 $116 3.141592653589790451 $112 $131 forward 7 unknown #
vertex $-1 $128 $132 #
straight-curve $-1 349.4889174659393802 215.6090844460788958 4.592273826833914718e-15 -1.736481776669303478 -9.848077530122081313 0 I I #
vertex $-1 $128 $133 #
straight-curve $-1 201.7677545141081055 241.6563110961184293 -1.377682148050174415e-14 -1.736481776669303256 -9.848077530122079537 0 I I #
cone-surface $-1 275.6283359900237429 228.6326977710986625 0 0.1736481776669304422 0.9848077530122080203 0 0 0 75 1 I I 0 1 75 forward I I I I #
face $-1 $134 $135 $2 $-1 $136 reversed single #
loop $-1 $-1 $137 $98 #
plane-surface $-1 256.6666666666666288 190 -141.5998905555568399 0 0 -1 -10 0 0 forward_v I I I I #
coedge $-1 $138 $139 $140 $141 forward $99 $-1 #
coedge $-1 $142 $143 $139 $144 forward $101 $-1 #
straight-curve $-1 470 190 -171.5998905555568399 -10 0 0 I I #
point $-1 -65 190 -171.5998905555568399 #
straight-curve $-1 -65 190 -171.5998905555568399 0 0 10 I I #
coedge $-1 $112 $112 $110 $128 reversed $130 $-1 #
edge $-1 $116 5.744309809396021416e-31 $114 3.141592653589795781 $127 $145 forward 7 unknown #
cone-surface $-1 275.6283359900237429 228.6326977710986625 0 0.1736481776669304422 0.9848077530122080203 0 0 0 75 1 I I 0 1 75 forward I I I I #
loop $-1 $-1 $112 $146 #
ellipse-curve $-1 275.6283359900237429 228.6326977710986625 0 0.1736481776669302757 0.9848077530122081313 0 73.86058147591562317 -13.02361332501977387 0 1 I I #
point $-1 349.4889174659393802 215.6090844460788958 0 #
point $-1 201.7677545141081055 241.6563110961184293 -1.999938153773766835e-13 #
face $-1 $147 $148 $2 $-1 $149 forward single #
loop $-1 $-1 $150 $119 #
cone-surface $-1 123.3333333333333144 190 -141.5998905555568399 0 1 0 25 0 0 1 I I 0 1 25 forward I I I I #
coedge $-1 $151 $152 $153 $154 forward $120 $-1 #
coedge $-1 $155 $122 $156 $157 reversed $99 $-1 #
coedge $-1 $122 $155 $123 $144 reversed $99 $-1 #
coedge $-1 $152 $151 $122 $141 reversed $120 $-1 #
edge $-1 $158 0 $159 1 $140 $160 forward 7 unknown #
coedge $-1 $161 $123 $162 $163 reversed $101 $-1 #
coedge $-1 $123 $164 $152 $165 reversed $101 $-1 #
edge $-1 $158 0 $166 3.141592653589793116 $123 $167 forward 7 unknown #
ellipse-curve $-1 275.6283359900237429 228.6326977710986625 0 0.1736481776669302757 0.9848077530122081313 -4.487742038590643182e-31 -73.86058147591562317 13.02361332501977387 -1.999938153773766835e-13 1 I I #
face $-1 $90 $168 $2 $-1 $169 forward single #
face $-1 $170 $171 $2 $-1 $172 reversed single #
loop $-1 $-1 $173 $134 #
plane-surface $-1 98.33333333333331439 190 -141.5998905555568399 0 0 -1 -10 0 0 forward_v I I I I #
coedge $-1 $174 $175 $176 $177 forward $135 $-1 #
coedge $-1 $140 $137 $178 $179 reversed $120 $-1 #
coedge $-1 $137 $140 $143 $165 forward $120 $-1 #
coedge $-1 $175 $174 $137 $154 reversed $135 $-1 #
edge $-1 $180 0 $181 1 $137 $182 forward 7 unknown #
coedge $-1 $139 $138 $183 $184 reversed $99 $-1 #
coedge $-1 $178 $185 $138 $157 forward $186 $-1 #
edge $-1 $187 0 $159 3.141592653589793116 $156 $188 forward 7 unknown #
vertex $-1 $165 $189 #
vertex $-1 $179 $190 #
straight-curve $-1 256.6666666666666288 190 -141.5998905555568399 0 10 0 I I #
coedge $-1 $191 $142 $192 $193 forward $101 $-1 #
coedge $-1 $183 $194 $142 $163 forward $195 $-1 #
edge $-1 $196 0 $166 10.83333333333333215 $142 $197 forward 7 unknown #
coedge $-1 $143 $198 $175 $199 forward $101 $-1 #
edge $-1 $158 0 $180 10.83333333333333215 $143 $200 forward 7 unknown #
vertex $-1 $163 $201 #
ellipse-curve $-1 281.6666666666666288 190 -141.5998905555568399 0 1 0 -24.99999999999996447 0 0 1 I I #
loop $-1 $130 $202 $146 #
plane-surface $-1 275.6283359900237429 228.6326977710986625 0 0.1736481776669304422 0.9848077530122080203 0 0 0 10 forward_v I I I I #
face $-1 $203 $204 $2 $-1 $205 forward single #
loop $-1 $-1 $206 $147 #
cone-surface $-1 -35 190 -141.5998905555568399 0 1 0 25 0 0 1 I I 0 1 25 forward I I I I #
coedge $-1 $207 $208 $209 $210 forward $148 $-1 #
coedge $-1 $153 $150 $211 $212 reversed $135 $-1 #
coedge $-1 $150 $153 $164 $199 reversed $135 $-1 #
coedge $-1 $208 $207 $150 $177 reversed $148 $-1 #
edge $-1 $213 0 $214 1 $150 $215 forward 7 unknown #
coedge $-1 $211 $156 $151 $179 forward $186 $-1 #
edge $-1 $159 0 $181 10.83333333333333215 $178 $216 forward 7 unknown #
vertex $-1 $165 $217 #
vertex $-1 $179 $218 #
straight-curve $-1 148.3333333333333144 190 -141.5998905555568399 0 10 0 I I #
coedge $-1 $219 $162 $155 $184 forward $195 $-1 #
edge $-1 $166 0 $187 1 $183 $220 forward 7 unknown #
coedge $-1 $156 $221 $219 $222 forward $186 $-1 #
loop $-1 $223 $211 $224 #
vertex $-1 $157 $225 #
ellipse-curve $-1 281.6666666666666856 200 -141.5998905555568399 0 -1 0 25 0 0 1 I I #
point $-1 256.6666666666666856 190 -141.5998905555568399 #
point $-1 256.6666666666666856 200 -141.5998905555568399 #
coedge $-1 $226 $161 $227 $228 reversed $101 $-1 #
coedge $-1 $229 $230 $161 $193 reversed $231 $-1 #
edge $-1 $196 0 $232 1.570796326794896558 $161 $233 forward 7 unknown #
coedge $-1 $162 $219 $229 $234 reversed $195 $-1 #
loop $-1 $-1 $183 $235 #
vertex $-1 $193 $236 #
straight-curve $-1 415 190 -141.5998905555568399 -10 0 0 I I #
coedge $-1 $164 $237 $208 $238 reversed $101 $-1 #
edge $-1 $213 0 $180 3.141592653589793116 $164 $239 forward 7 unknown #
straight-curve $-1 256.6666666666666856 190 -141.5998905555568399 -10 0 0 I I #
point $-1 306.6666666666666856 190 -141.5998905555568399 #
coedge $-1 $240 $240 $241 $242 forward $168 $-1 #
face $-1 $243 $244 $2 $-1 $245 reversed single #
loop $-1 $-1 $246 $170 #
plane-surface $-1 -35 190 -116.5998905555568399 -1 0 0 0 0 10 forward_v I I I I #
coedge $-1 $247 $248 $249 $250 forward $171 $-1 #
coedge $-1 $176 $173 $251 $252 reversed $148 $-1 #
coedge $-1 $173 $176 $198 $238 forward $148 $-1 #
coedge $-1 $248 $247 $173 $210 reversed $171 $-1 #
edge $-1 $253 0 $254 1 $173 $255 forward 7 unknown #
coedge $-1 $251 $178 $174 $212 forward $186 $-1 #
edge $-1 $181 0 $214 3.141592653589793116 $211 $256 forward 7 unknown #
vertex $-1 $199 $257 #
vertex $-1 $252 $258 #
straight-curve $-1 98.33333333333331439 190 -141.5998905555568399 0 10 0 I I #
straight-curve $-1 256.6666666666666856 200 -141.5998905555568399 -10 0 0 I I #
point $-1 148.3333333333333712 190 -141.5998905555568399 #
point $-1 148.3333333333333712 200 -141.5998905555568399 #
coedge $-1 $194 $183 $185 $222 reversed $195 $-1 #
straight-curve $-1 306.6666666666666288 190 -141.5998905555568399 0 10 0 I I #
coedge $-1 $185 $259 $260 $261 forward $186 $-1 #
edge $-1 $262 0 $187 10.83333333333333215 $185 $263 forward 7 unknown #
loop $-1 $-1 $264 $224 #
face $-1 $265 $186 $2 $-1 $266 forward single #
point $-1 306.6666666666666856 200 -141.5998905555568399 #
coedge $-1 $267 $191 $268 $269 forward $101 $-1 #
coedge $-1 $270 $271 $191 $228 forward $272 $-1 #
edge $-1 $273 0 $232 9.15998905555568399 $191 $274 forward 7 unknown #
coedge $-1 $260 $192 $194 $234 forward $231 $-1 #
coedge $-1 $192 $260 $270 $275 reversed $231 $-1 #
loop $-1 $-1 $229 $276 #
vertex $-1 $228 $277 #
ellipse-curve $-1 440 190 -141.5998905555568399 0 1 0 -25 0 0 1 I I #
edge $-1 $196 0 $262 1 $229 $278 forward 7 unknown #
face $-1 $224 $195 $2 $-1 $279 forward single #
point $-1 415 190 -141.5998905555568399 #
coedge $-1 $198 $280 $248 $281 forward $101 $-1 #
edge $-1 $213 0 $253 10.8333333333333357 $198 $282 forward 7 unknown #
ellipse-curve $-1 123.3333333333333144 190 -141.5998905555568399 0 1 0 -24.99999999999996447 0 0 1 I I #
coedge $-1 $202 $202 $283 $284 forward $168 $-1 #
coedge $-1 $285 $286 $202 $242 reversed $287 $-1 #
edge $-1 $288 -3.054039950647695968e-32 $289 3.141592653589793116 $202 $290 forward 7 unknown #
face $-1 $291 $292 $2 $-1 $293 forward single #
loop $-1 $-1 $294 $203 #
cone-surface $-1 -35 190 0 0 1 0 25 0 0 1 I I 0 1 25 forward I I I I #
coedge $-1 $295 $296 $297 $298 forward $204 $-1 #
coedge $-1 $209 $206 $299 $300 reversed $171 $-1 #
coedge $-1 $206 $209 $237 $281 reversed $171 $-1 #
coedge $-1 $296 $295 $206 $250 reversed $204 $-1 #
edge $-1 $301 3.155443620884047397e-31 $302 1 $206 $303 forward 7 unknown #
coedge $-1 $299 $211 $207 $252 forward $186 $-1 #
edge $-1 $214 0 $254 10.8333333333333357 $251 $304 forward 7 unknown #
vertex $-1 $238 $305 #
vertex $-1 $300 $306 #
straight-curve $-1 -10 190 -141.5998905555568399 0 10 0 I I #
ellipse-curve $-1 123.333333333333357 200 -141.5998905555568399 0 -1 0 25 0 0 1 I I #
point $-1 98.33333333333335702 190 -141.5998905555568399 #
point $-1 98.33333333333335702 200 -141.5998905555568399 #
coedge $-1 $221 $307 $308 $309 forward $186 $-1 #
coedge $-1 $230 $229 $221 $261 reversed $231 $-1 #
edge $-1 $310 0 $262 1.570796326794896558 $221 $311 forward 7 unknown #
vertex $-1 $222 $312 #
straight-curve $-1 415 200 -141.5998905555568399 -10 0 0 I I #
coedge $-1 $313 $313 $314 $315 reversed $223 $-1 #
face $-1 $316 $287 $2 $-1 $317 forward single #
plane-surface $-1 470 200 171.5998905555568399 0 1 0 10 0 0 forward_v I I I I #
coedge $-1 $318 $226 $319 $320 reversed $101 $-1 #
coedge $-1 $321 $322 $226 $269 reversed $323 $-1 #
edge $-1 $273 0 $324 3.141592653589793116 $226 $325 forward 7 unknown #
coedge $-1 $308 $227 $230 $275 forward $272 $-1 #
coedge $-1 $227 $308 $321 $326 reversed $272 $-1 #
loop $-1 $-1 $270 $327 #
vertex $-1 $269 $328 #
straight-curve $-1 440 190 -25 0 0 -10 I I #
edge $-1 $232 0 $310 1 $270 $329 forward 7 unknown #
face $-1 $235 $231 $2 $-1 $330 reversed single #
point $-1 440 190 -116.5998905555568399 #
straight-curve $-1 415 190 -141.5998905555568399 0 10 0 I I #
plane-surface $-1 415 190 -141.5998905555568399 0 0 -1 -10 0 0 forward_v I I I I #
coedge $-1 $237 $331 $296 $332 reversed $101 $-1 #
edge $-1 $301 0 $253 1.570796326794896558 $237 $333 forward 7 unknown #
straight-curve $-1 98.33333333333335702 190 -141.5998905555568399 -10 0 0 I I #
coedge $-1 $334 $335 $240 $284 reversed $336 $-1 #
edge $-1 $289 0 $288 3.141592653589793116 $240 $337 forward 7 unknown #
coedge $-1 $314 $241 $335 $338 forward $287 $-1 #
coedge $-1 $241 $314 $334 $339 reversed $287 $-1 #
loop $-1 $-1 $286 $265 #
vertex $-1 $284 $340 #
vertex $-1 $284 $341 #
ellipse-curve $-1 275.628335990023686 228.6326977710986625 0 0.1736481776669304977 0.9848077530122080203 -1.192984355721756469e-32 113.2528915964039413 -19.96954043169701265 -1.276756478318930021e-14 1 I I #
face $-1 $342 $343 $2 $-1 $344 reversed single #
loop $-1 $-1 $345 $243 #
plane-surface $-1 -35 190 25 -1 0 0 0 0 10 forward_v I I I I #
coedge $-1 $346 $347 $348 $349 forward $244 $-1 #
coedge $-1 $249 $246 $350 $351 reversed $204 $-1 #
coedge $-1 $246 $249 $280 $332 forward $204 $-1 #
coedge $-1 $347 $346 $246 $298 reversed $244 $-1 #
edge $-1 $352 0 $353 1 $246 $354 forward 7 unknown #
coedge $-1 $350 $251 $247 $300 forward $186 $-1 #
edge $-1 $254 0 $302 1.570796326794896558 $299 $355 forward 7 unknown #
vertex $-1 $281 $356 #
vertex $-1 $351 $357 #
straight-curve $-1 -35.00000000000000711 190 -116.5998905555568399 4.440892098500626162e-15 10 0 I I #
straight-curve $-1 98.33333333333335702 200 -141.5998905555568399 -10 0 0 I I #
point $-1 -10 190 -141.5998905555568399 #
point $-1 -10 200 -141.5998905555568399 #
coedge $-1 $259 $358 $359 $360 forward $186 $-1 #
coedge $-1 $271 $270 $259 $309 reversed $272 $-1 #
edge $-1 $361 0 $310 9.15998905555568399 $259 $362 forward 7 unknown #
vertex $-1 $261 $363 #
ellipse-curve $-1 440 200 -141.5998905555568399 0 -1 0 0 0 25 1 I I #
point $-1 415 200 -141.5998905555568399 #
coedge $-1 $264 $264 $364 $365 reversed $223 $-1 #
coedge $-1 $286 $285 $264 $315 forward $287 $-1 #
edge $-1 $366 0 $367 0.999999999999999778 $264 $368 forward 7 unknown #
face $-1 $146 $336 $2 $-1 $369 forward single #
cone-surface $-1 275.628335990023686 228.6326977710986625 0 0.1736481776669304422 0.9848077530122081313 0 0 0 115 1 I I 0 1 115 forward I I I I #
coedge $-1 $370 $267 $371 $372 forward $101 $-1 #
coedge $-1 $373 $374 $267 $320 forward $375 $-1 #
edge $-1 $376 0 $324 9.15998905555568399 $267 $377 forward 7 unknown #
coedge $-1 $359 $268 $271 $326 forward $323 $-1 #
coedge $-1 $268 $359 $373 $378 reversed $323 $-1 #
loop $-1 $-1 $321 $379 #
vertex $-1 $320 $380 #
ellipse-curve $-1 440 190 0 0 1 0 0 0 -25 1 I I #
edge $-1 $273 0 $361 1 $321 $381 forward 7 unknown #
face $-1 $276 $272 $2 $-1 $382 forward single #
point $-1 440 190 -25 #
straight-curve $-1 440 190 -116.5998905555568399 0 10 0 I I #
cone-surface $-1 440 190 -141.5998905555568399 0 1 0 25 0 0 1 I I 0 1 25 forward I I I I #
coedge $-1 $280 $383 $347 $384 forward $101 $-1 #
edge $-1 $301 0 $352 9.15998905555568399 $280 $385 forward 7 unknown #
ellipse-curve $-1 -35 190 -141.5998905555568399 0 1 0 0 0 25 1 I I #
coedge $-1 $364 $283 $286 $339 forward $336 $-1 #
coedge $-1 $283 $364 $285 $338 reversed $336 $-1 #
loop $-1 $-1 $335 $316 #
ellipse-curve $-1 275.628335990023686 228.6326977710986625 0 0.1736481776669305532 0.9848077530122080203 0 -113.2528915964039129 19.96954043169701265 0 1 I I #
edge $-1 $288 1.662151482218966333e-30 $366 0.8796800505381767721 $335 $386 forward 7 unknown #
edge $-1 $289 -4.935378048768669278e-16 $367 4.935200606832872872 $334 $387 forward 7 unknown #
point $-1 388.8812275864276558 208.6631573394016641 -1.276756478318930021e-14 #
point $-1 162.3754443936198015 248.6022382027956894 0 #
face $-1 $388 $389 $2 $-1 $390 forward single #
loop $-1 $-1 $391 $291 #
cone-surface $-1 -35 190 141.5998905555568399 0 1 0 25 0 0 1 I I 0 1 25 forward I I I I #
coedge $-1 $392 $393 $394 $395 forward $292 $-1 #
coedge $-1 $297 $294 $396 $397 reversed $244 $-1 #
coedge $-1 $294 $297 $331 $384 reversed $244 $-1 #
coedge $-1 $393 $392 $294 $349 reversed $292 $-1 #
edge $-1 $398 3.155443620884047397e-31 $399 1 $294 $400 forward 7 unknown #
coedge $-1 $396 $299 $295 $351 forward $186 $-1 #
edge $-1 $302 0 $353 9.15998905555568399 $350 $401 forward 7 unknown #
vertex $-1 $332 $402 #
vertex $-1 $397 $403 #
straight-curve $-1 -35 190 -25 0 10 0 I I #
ellipse-curve $-1 -35 200 -141.5998905555568399 0 -1 0 25 0 0 1 I I #
point $-1 -35 190 -116.5998905555568399 #
point $-1 -35 200 -116.5998905555568399 #
coedge $-1 $307 $404 $405 $406 forward $186 $-1 #
coedge $-1 $322 $321 $307 $360 reversed $323 $-1 #
edge $-1 $407 0 $361 3.141592653589793116 $307 $408 forward 7 unknown #
vertex $-1 $309 $409 #
straight-curve $-1 440 200 -25 0 0 -10 I I #
point $-1 440 200 -116.5998905555568399 #
coedge $-1 $335 $334 $313 $365 forward $336 $-1 #
edge $-1 $367 0 $366 0.999999999999999778 $313 $410 forward 7 unknown #
vertex $-1 $365 $411 #
vertex $-1 $365 $412 #
intcurve-curve $-1 forward { surfintcur full nurbs 3 open 21 
	0 3 0.04996026874710053634 1 0.0999243687503489908 1 0.1498957782175815157 1 0.1998772964236542327 1 
	0.2498707678248381359 1 0.2998768892502543526 1 0.3498951194254230068 1 0.3999237098116560918 1 0.4499598617030661774 1 
	0.4999999999999999445 1 0.5500401382969337671 1 0.6000762901883438527 1 0.6501048805745770487 1 0.7001231107497456474 1 
	0.7501292321751620307 1 0.8001227035763458506 1 0.8501042217824186231 1 0.9000756312496509537 1 0.950039731252899422 1 
	0.999999999999999778 3 
	387.3536792093685222 200 0 1 
	387.3487558844374234 200 -6.011419029062752273 0.999999999999999778 
	386.4117169905850915 199.9999999999999716 -17.87442345569522928 1.000000000000000444 
	382.1888112258463934 200.0000000000000284 -35.38101167984399353 1 
	375.2535789356119267 200 -52.02510887876472623 0.999999999999999778 
	365.7488657615757575 200.0000000000000284 -67.45027049468461655 1.000000000000000222 
	353.884600915292765 199.9999999999999716 -81.26336036373012917 0.999999999999999778 
	339.9306336079887387 200 -93.11459076263491852 1 
	324.216930970246608 199.9999999999999716 -102.6899969962031065 1 
	307.1280349163301935 200.0000000000000284 -109.7288002248403274 1 
	289.094381203736134 199.9999999999999716 -114.034029080879975 1 
	270.5796188425080118 200.0000000000000284 -115.4830046986414374 0.999999999999999778 
	252.064856481279719 199.9999999999999716 -114.0340290808799182 1.000000000000000222 
	234.0312027686855458 200 -109.7288002248403558 1 
	216.9423067147691597 200 -102.6899969962031633 1.000000000000000222 
	201.2286040770267732 200 -93.11459076263477641 1 
	187.2746367697231733 200.0000000000000568 -81.26336036373007232 0.999999999999999889 
	175.4103719234398113 199.9999999999999432 -67.45027049468460234 1.000000000000000222 
	165.9056587494037558 200.0000000000000284 -52.02510887876464096 0.999999999999999889 
	158.9704264591694312 200 -35.3810116798439438 1 
	154.7475206944305057 200 -17.87442345569528612 1 
	153.8104818005784011 200 -6.011419029062778918 1 
	153.8055584756472172 200 0 1 
	0.01000000000000000021 
	plane 470 200 171.5998905555568399 0 1 0 10 0 0 forward_v I I I I 
	cone 275.628335990023686 228.6326977710986625 0 0.1736481776669304422 0.9848077530122081313 0 0 0 115 1 I I 0 1 115 forward I I I I 
	nullbs 
	nullbs 
	I I 
	0 
	0 
	0 
	} I I #
cone-surface $-1 275.628335990023686 228.6326977710986625 0 0.1736481776669304422 0.9848077530122081313 0 0 0 115 1 I I 0 1 115 forward I I I I #
coedge $-1 $413 $318 $414 $415 reversed $101 $-1 #
coedge $-1 $416 $417 $318 $372 reversed $418 $-1 #
edge $-1 $376 0 $419 1.570796326794896558 $318 $420 forward 7 unknown #
coedge $-1 $405 $319 $322 $378 forward $375 $-1 #
coedge $-1 $319 $405 $416 $421 reversed $375 $-1 #
loop $-1 $-1 $373 $422 #
vertex $-1 $372 $423 #
straight-curve $-1 440 190 116.5998905555568399 0 0 -10 I I #
edge $-1 $324 0 $407 1 $373 $424 forward 7 unknown #
face $-1 $327 $323 $2 $-1 $425 reversed single #
point $-1 440 190 25 #
straight-curve $-1 440 190 -25 0 10 0 I I #
plane-surface $-1 440 190 -25 1 0 0 0 0 -10 forward_v I I I I #
coedge $-1 $331 $426 $393 $427 reversed $101 $-1 #
edge $-1 $398 0 $352 3.141592653589793116 $331 $428 forward 7 unknown #
straight-curve $-1 -35 190 -116.5998905555568399 0 0 10 I I #
straight-curve $-1 388.8812275864276558 208.6631573394016641 -1.84936430318999312e-14 -1.736481776669292376 -9.84807753012208309 2.902774656621643754e-14 I I #
straight-curve $-1 162.3754443936197731 248.6022382027956894 -2.11244596034360077e-14 -1.736481776669305477 -9.848077530122081313 0 I I #
face $-1 $429 $430 $2 $-1 $431 reversed single #
loop $-1 $-1 $432 $342 #
plane-surface $-1 -10 190 141.5998905555568399 0 0 1 10 0 0 forward_v I I I I #
coedge $-1 $433 $434 $435 $436 forward $343 $-1 #
coedge $-1 $348 $345 $437 $438 reversed $292 $-1 #
coedge $-1 $345 $348 $383 $427 forward $292 $-1 #
coedge $-1 $434 $433 $345 $395 reversed $343 $-1 #
edge $-1 $439 0 $440 1 $345 $441 forward 7 unknown #
coedge $-1 $437 $350 $346 $397 forward $186 $-1 #
edge $-1 $353 0 $399 3.141592653589793116 $396 $442 forward 7 unknown #
vertex $-1 $384 $443 #
vertex $-1 $438 $444 #
straight-curve $-1 -35.00000000000000711 190 25 4.440892098500626162e-15 10 0 I I #
straight-curve $-1 -35 200 -116.5998905555568399 0 0 10 I I #
point $-1 -35 190 -25 #
point $-1 -35 200 -25 #
coedge $-1 $358 $445 $446 $447 forward $186 $-1 #
coedge $-1 $374 $373 $358 $406 reversed $375 $-1 #
edge $-1 $448 0 $407 9.15998905555568399 $358 $449 forward 7 unknown #
vertex $-1 $360 $450 #
ellipse-curve $-1 440 200 0 0 -1 0 0 0 25 1 I I #
point $-1 440 200 -25 #
intcurve-curve $-1 forward { surfintcur full nurbs 3 open 21 
	0 3 0.04996026874710053634 1 0.0999243687503489908 1 0.1498957782175814879 1 0.1998772964236542049 1 
	0.2498707678248380804 1 0.2998768892502542971 1 0.3498951194254228958 1 0.3999237098116560918 1 0.4499598617030661774 1 
	0.4999999999999999445 1 0.5500401382969337671 1 0.6000762901883438527 1 0.6501048805745770487 1 0.7001231107497456474 1 
	0.7501292321751618086 1 0.8001227035763458506 1 0.8501042217824186231 1 0.9000756312496509537 1 0.950039731252899422 1 
	0.999999999999999778 3 
	153.8055584756472172 200 0 1 
	153.8104818005783727 200 6.011419029062805564 0.999999999999999778 
	154.7475206944304773 199.9999999999999716 17.87442345569535718 1.000000000000000222 
	158.9704264591694596 200 35.38101167984411433 1.000000000000000222 
	165.9056587494037842 200 52.02510887876472623 0.999999999999999778 
	175.410371923439925 200 67.45027049468471603 1.000000000000000444 
	187.274636769723088 200.0000000000000284 81.26336036373010074 0.9999999999999995559 
	201.228604077027029 200 93.11459076263497536 1 
	216.942306714769046 200 102.6899969962030639 1 
	234.0312027686857164 200.0000000000000284 109.7288002248403558 1 
	252.064856481279719 200 114.034029080879975 1 
	270.5796188425078981 200 115.4830046986414516 1.000000000000000222 
	289.094381203736134 199.9999999999999716 114.0340290808799892 0.999999999999999778 
	307.1280349163300798 199.9999999999999716 109.7288002248403274 1.000000000000000222 
	324.216930970246608 200 102.6899969962032202 1 
	339.9306336079888524 200 93.11459076263477641 1 
	353.8846009152928787 200 81.26336036373005811 1 
	365.7488657615756438 200 67.45027049468470182 1 
	375.2535789356121541 200 52.02510887876466938 1.000000000000000222 
	382.1888112258461661 200 35.38101167984396511 0.999999999999999889 
	386.4117169905852052 200 17.87442345569538205 1.000000000000000222 
	387.3487558844374234 200 6.011419029062821551 1 
	387.3536792093685222 200 0 1 
	0.01000000000000000021 
	plane 470 200 171.5998905555568399 0 1 0 10 0 0 forward_v I I I I 
	cone 275.628335990023686 228.6326977710986625 0 0.1736481776669304422 0.9848077530122081313 0 0 0 115 1 I I 0 1 115 forward I I I I 
	nullbs 
	nullbs 
	I I 
	0 
	0 
	0 
	} I I #
point $-1 387.3536792093685222 200 0 #
point $-1 153.8055584756472172 200 0 #
coedge $-1 $451 $370 $452 $453 forward $101 $-1 #
coedge $-1 $454 $455 $370 $415 forward $456 $-1 #
edge $-1 $457 0 $419 10.83333333333333215 $370 $458 forward 7 unknown #
coedge $-1 $446 $371 $374 $421 forward $418 $-1 #
coedge $-1 $371 $446 $454 $459 reversed $418 $-1 #
loop $-1 $-1 $416 $460 #
vertex $-1 $415 $461 #
ellipse-curve $-1 440 190 141.5998905555568399 0 1 0 0 0 -25 1 I I #
edge $-1 $376 0 $448 1 $416 $462 forward 7 unknown #
face $-1 $379 $375 $2 $-1 $463 forward single #
point $-1 440 190 116.5998905555568399 #
straight-curve $-1 440 190 25 0 10 0 I I #
cone-surface $-1 440 190 0 0 1 0 25 0 0 1 I I 0 1 25 forward I I I I #
coedge $-1 $383 $464 $434 $465 forward $101 $-1 #
edge $-1 $398 0 $439 9.15998905555568399 $383 $466 forward 7 unknown #
ellipse-curve $-1 -35 190 0 0 1 0 0 0 25 1 I I #
face $-1 $467 $468 $2 $-1 $469 forward single #
loop $-1 $-1 $470 $388 #
cone-surface $-1 123.3333333333333144 190 141.5998905555568399 0 1 0 25 0 0 1 I I 0 1 25 forward I I I I #
coedge $-1 $471 $472 $473 $474 forward $389 $-1 #
coedge $-1 $394 $391 $475 $476 reversed $343 $-1 #
coedge $-1 $391 $394 $426 $465 reversed $343 $-1 #
coedge $-1 $472 $471 $391 $436 reversed $389 $-1 #
edge $-1 $477 0 $478 1 $391 $479 forward 7 unknown #
coedge $-1 $475 $396 $392 $438 forward $186 $-1 #
edge $-1 $399 0 $440 9.15998905555568399 $437 $480 forward 7 unknown #
vertex $-1 $427 $481 #
vertex $-1 $476 $482 #
straight-curve $-1 -35 190 116.5998905555568399 0 10 0 I I #
ellipse-curve $-1 -35 200 0 0 -1 0 0 0 -25 1 I I #
point $-1 -35 190 25 #
point $-1 -35 200 25 #
coedge $-1 $404 $483 $484 $485 forward $186 $-1 #
coedge $-1 $417 $416 $404 $447 reversed $418 $-1 #
edge $-1 $486 0 $448 1.570796326794896558 $404 $487 forward 7 unknown #
vertex $-1 $406 $488 #
straight-curve $-1 440 200 116.5998905555568399 0 0 -10 I I #
point $-1 440 200 25 #
coedge $-1 $489 $413 $490 $491 reversed $101 $-1 #
coedge $-1 $492 $493 $413 $453 reversed $494 $-1 #
edge $-1 $457 0 $495 3.141592653589793116 $413 $496 forward 7 unknown #
coedge $-1 $484 $414 $417 $459 forward $456 $-1 #
coedge $-1 $414 $484 $492 $497 reversed $456 $-1 #
loop $-1 $-1 $454 $498 #
vertex $-1 $453 $499 #
straight-curve $-1 306.6666666666666856 190 141.5998905555568399 10 0 0 I I #
edge $-1 $419 0 $486 1 $454 $500 forward 7 unknown #
face $-1 $422 $418 $2 $-1 $501 reversed single #
point $-1 415 190 141.5998905555568399 #
straight-curve $-1 440 190 116.5998905555568399 0 10 0 I I #
plane-surface $-1 440 190 116.5998905555568399 1 0 0 0 0 -10 forward_v I I I I #
coedge $-1 $426 $489 $472 $502 reversed $101 $-1 #
edge $-1 $477 0 $439 1.570796326794896558 $426 $503 forward 7 unknown #
straight-curve $-1 -35 190 25 0 0 10 I I #
face $-1 $498 $494 $2 $-1 $504 reversed single #
loop $-1 $-1 $505 $429 #
plane-surface $-1 148.3333333333333144 190 141.5998905555568399 0 0 1 10 0 0 forward_v I I I I #
coedge $-1 $506 $507 $508 $509 forward $430 $-1 #
coedge $-1 $435 $432 $510 $511 reversed $389 $-1 #
coedge $-1 $432 $435 $464 $502 forward $389 $-1 #
coedge $-1 $507 $506 $432 $474 reversed $430 $-1 #
edge $-1 $512 0 $513 1 $432 $514 forward 7 unknown #
coedge $-1 $510 $437 $433 $476 forward $186 $-1 #
edge $-1 $440 0 $478 1.570796326794896558 $475 $515 forward 7 unknown #
vertex $-1 $465 $516 #
vertex $-1 $511 $517 #
straight-curve $-1 -10 190 141.5998905555568399 0 10 0 I I #
straight-curve $-1 -35 200 25 0 0 10 I I #
point $-1 -35 190 116.5998905555568399 #
point $-1 -35 200 116.5998905555568399 #
coedge $-1 $445 $518 $519 $520 forward $186 $-1 #
coedge $-1 $455 $454 $445 $485 reversed $456 $-1 #
edge $-1 $521 0 $486 10.83333333333333215 $445 $522 forward 7 unknown #
vertex $-1 $447 $523 #
ellipse-curve $-1 440 200 141.5998905555568399 0 -1 0 -25 0 0 1 I I #
point $-1 440 200 116.5998905555568399 #
coedge $-1 $464 $451 $507 $524 forward $101 $-1 #
coedge $-1 $505 $508 $451 $491 forward $468 $-1 #
edge $-1 $525 0 $495 10.83333333333333215 $451 $526 forward 7 unknown #
coedge $-1 $519 $452 $455 $497 forward $494 $-1 #
coedge $-1 $452 $519 $505 $527 reversed $494 $-1 #
loop $-1 $-1 $492 $467 #
vertex $-1 $491 $528 #
ellipse-curve $-1 281.6666666666666288 190 141.5998905555568399 0 1 0 25.00000000000003553 0 0 1 I I #
edge $-1 $457 0 $521 1 $492 $529 forward 7 unknown #
face $-1 $460 $456 $2 $-1 $530 forward single #
point $-1 306.6666666666666856 190 141.5998905555568399 #
straight-curve $-1 415 190 141.5998905555568399 0 10 0 I I #
cone-surface $-1 440 190 141.5998905555568399 0 1 0 25 0 0 1 I I 0 1 25 forward I I I I #
edge $-1 $477 0 $512 10.8333333333333357 $464 $531 forward 7 unknown #
ellipse-curve $-1 -35 190 141.5998905555568399 0 1 0 25 0 0 1 I I #
cone-surface $-1 281.6666666666666288 190 141.5998905555568399 0 1 0 25 0 0 1 I I 0 1 25 forward I I I I #
coedge $-1 $532 $490 $493 $527 forward $468 $-1 #
coedge $-1 $473 $470 $533 $534 reversed $430 $-1 #
coedge $-1 $470 $473 $489 $524 reversed $430 $-1 #
coedge $-1 $490 $532 $470 $509 reversed $468 $-1 #
edge $-1 $525 0 $535 1 $470 $536 forward 7 unknown #
coedge $-1 $533 $475 $471 $511 forward $186 $-1 #
edge $-1 $478 0 $513 10.8333333333333357 $510 $537 forward 7 unknown #
vertex $-1 $502 $538 #
vertex $-1 $534 $539 #
straight-curve $-1 98.33333333333331439 190 141.5998905555568399 0 10 0 I I #
ellipse-curve $-1 -35 200 141.5998905555568399 0 -1 0 0 0 -25 1 I I #
point $-1 -10 190 141.5998905555568399 #
point $-1 -10 200 141.5998905555568399 #
coedge $-1 $483 $533 $532 $540 forward $186 $-1 #
coedge $-1 $493 $492 $483 $520 reversed $494 $-1 #
edge $-1 $541 4.263256414560600957e-16 $521 3.14159265358979134 $483 $542 forward 7 unknown #
vertex $-1 $485 $543 #
straight-curve $-1 306.6666666666666856 200 141.5998905555568399 10 0 0 I I #
point $-1 415 200 141.5998905555568399 #
edge $-1 $525 0 $512 3.141592653589793116 $489 $544 forward 7 unknown #
vertex $-1 $524 $545 #
straight-curve $-1 148.3333333333333712 190 141.5998905555568399 10 0 0 I I #
edge $-1 $495 0 $541 1 $505 $546 forward 7 unknown #
point $-1 256.6666666666666856 190 141.5998905555568399 #
straight-curve $-1 306.6666666666666288 190 141.5998905555568399 0 10 0 I I #
plane-surface $-1 306.6666666666666288 190 141.5998905555568399 0 0 1 10 0 0 forward_v I I I I #
straight-curve $-1 -10 190 141.5998905555568399 10 0 0 I I #
coedge $-1 $508 $505 $518 $540 reversed $468 $-1 #
coedge $-1 $518 $510 $506 $534 forward $186 $-1 #
edge $-1 $513 4.263256414560600957e-16 $535 3.14159265358979134 $533 $547 forward 7 unknown #
vertex $-1 $540 $548 #
straight-curve $-1 148.3333333333333144 190 141.5998905555568399 0 10 0 I I #
straight-curve $-1 -10 200 141.5998905555568399 10 0 0 I I #
point $-1 98.33333333333335702 190 141.5998905555568399 #
point $-1 98.33333333333335702 200 141.5998905555568399 #
edge $-1 $535 0 $541 10.83333333333333215 $518 $549 forward 7 unknown #
vertex $-1 $520 $550 #
ellipse-curve $-1 281.6666666666666856 200 141.5998905555568683 0 -1 0 -25 0 -1.776356839400250465e-14 1 I I #
point $-1 306.6666666666666856 200 141.5998905555568399 #
ellipse-curve $-1 123.3333333333333144 190 141.5998905555568399 0 1 0 25.00000000000003553 0 0 1 I I #
point $-1 148.3333333333333712 190 141.5998905555568399 #
straight-curve $-1 256.6666666666666288 190 141.5998905555568399 0 10 0 I I #
ellipse-curve $-1 123.333333333333357 200 141.5998905555568683 0 -1 0 -25 0 -1.776356839400250465e-14 1 I I #
point $-1 148.3333333333333712 200 141.5998905555568399 #
straight-curve $-1 148.3333333333333712 200 141.5998905555568399 10 0 0 I I #
point $-1 256.6666666666666856 200 141.5998905555568399 #
End-of-ACIS-data 