600 0 1 0           
99 GICL Pro/E ACIS Translator - Source: f:/data5/repository/PTC/V18/asmdes18/parts/top_cover.prt - 6 0 13 ACIS 6.0.3 NT 24 Thu Apr 04 13:45:50 2002 
1 9.9999999999999995e-007 1e-010 
body $-1 $1 $-1 $2 #
lump $-1 $-1 $3 $0 #
transform $-1 1 0 0 0 1 0 0 0 1 0 0 0 10 no_rotate no_reflect no_shear #
shell $-1 $-1 $-1 $4 $-1 $1 #
face $-1 $5 $6 $3 $-1 $7 reversed single #
face $-1 $8 $9 $3 $-1 $10 forward single #
loop $-1 $11 $12 $4 #
plane-surface $-1 47 18 17.159989055555684 0 1 0 1 0 0 forward_v I I I I #
face $-1 $13 $14 $3 $-1 $15 forward single #
loop $-1 $-1 $16 $5 #
plane-surface $-1 -6.5 18 17.159989055555684 0 0 1 1 0 0 forward_v I I I I #
loop $-1 $-1 $17 $4 #
coedge $-1 $18 $19 $20 $21 reversed $6 $-1 #
face $-1 $22 $23 $3 $-1 $24 forward single #
loop $-1 $-1 $25 $8 #
plane-surface $-1 47 18 17.159989055555684 1 0 0 0 0 -1 forward_v I I I I #
coedge $-1 $26 $20 $27 $28 forward $9 $-1 #
coedge $-1 $29 $29 $30 $31 forward $11 $-1 #
coedge $-1 $32 $12 $33 $34 reversed $6 $-1 #
coedge $-1 $12 $32 $35 $36 reversed $6 $-1 #
coedge $-1 $16 $37 $12 $21 forward $9 $-1 #
edge $-1 $38 0 $39 53.5 $12 $40 forward 7 unknown #
face $-1 $41 $42 $3 $-1 $43 forward single #
loop $-1 $-1 $44 $13 #
plane-surface $-1 47 18 -17.159989055555684 0 0 -1 -1 0 0 forward_v I I I I #
coedge $-1 $45 $35 $46 $47 forward $14 $-1 #
coedge $-1 $37 $16 $48 $49 reversed $9 $-1 #
coedge $-1 $35 $45 $16 $28 reversed $14 $-1 #
edge $-1 $39 0 $50 1 $27 $51 forward 7 unknown #
coedge $-1 $17 $17 $52 $53 forward $11 $-1 #
coedge $-1 $54 $55 $17 $31 reversed $56 $-1 #
edge $-1 $57 0 $58 1 $17 $59 forward 7 unknown #
coedge $-1 $19 $18 $60 $61 reversed $6 $-1 #
coedge $-1 $62 $63 $18 $34 forward $42 $-1 #
edge $-1 $64 0 $38 34.319978111111368 $18 $65 forward 7 unknown #
coedge $-1 $25 $27 $19 $36 forward $14 $-1 #
edge $-1 $39 0 $66 34.319978111111368 $19 $67 forward 7 unknown #
coedge $-1 $20 $26 $62 $68 reversed $9 $-1 #
vertex $-1 $34 $69 #
vertex $-1 $36 $70 #
straight-curve $-1 -6.5 18 17.159989055555684 1 0 0 I I #
face $-1 $71 $72 $3 $-1 $73 forward single #
loop $-1 $-1 $62 $22 #
plane-surface $-1 -6.5 18 -17.159989055555684 -1 0 0 0 0 1 forward_v I I I I #
coedge $-1 $74 $60 $63 $75 forward $23 $-1 #
coedge $-1 $27 $25 $76 $77 reversed $14 $-1 #
coedge $-1 $60 $74 $25 $47 reversed $23 $-1 #
edge $-1 $66 0 $78 1 $25 $79 forward 7 unknown #
coedge $-1 $76 $80 $26 $49 forward $72 $-1 #
edge $-1 $81 0 $50 53.5 $48 $82 forward 7 unknown #
vertex $-1 $77 $83 #
straight-curve $-1 47 18 17.159989055555684 0 1 0 I I #
coedge $-1 $84 $85 $29 $53 reversed $86 $-1 #
edge $-1 $58 0 $57 1 $29 $87 forward 7 unknown #
coedge $-1 $88 $30 $85 $89 reversed $56 $-1 #
coedge $-1 $30 $88 $84 $90 forward $56 $-1 #
loop $-1 $-1 $54 $91 #
vertex $-1 $53 $92 #
vertex $-1 $53 $93 #
intcurve-curve $-1 forward { surfintcur full nurbs 3 open 19 
	0 3 0.055507063932941386 1 0.11101989106899732 1 0.16654358895106627 1 0.2220820169468094 1 
	0.27763731006970988 1 0.33320959121222121 1 0.38879691305337072 1 0.44439545989885565 1 0.49999999999999994 1 
	0.55560454010114424 1 0.61120308694662917 1 0.66679040878777873 1 0.72236268993028996 1 0.77791798305319038 1 
	0.83345641104893353 1 0.88898010893100277 1 0.94449293606705864 1 1 3 
	34.321007511976944 18 0 1 
	34.320516654858046 18 -0.43641538350935344 1 
	34.245169278621539 17.999999999999996 -1.2949572775423122 1.0000000000000002 
	33.905480580508183 18 -2.5569989820367471 0.99999999999999978 
	33.349590557201942 18.000000000000004 -3.7419839608084251 1 
	32.591754482202703 18 -4.8184033295429032 1 
	31.652925334944499 18 -5.751959625308845 1 
	30.559960621123352 18.000000000000004 -6.5130067335085418 0.99999999999999978 
	29.345454920172759 17.999999999999996 -7.0761781260169609 1.0000000000000002 
	28.046878146714793 18 -7.4221901792388909 0.99999999999999989 
	26.705307922833857 18 -7.5389070071485493 1.0000000000000002 
	25.363737698952932 18 -7.4221901792388945 0.99999999999999989 
	24.065160925494972 18.000000000000004 -7.0761781260169645 1 
	22.850655224544372 17.999999999999996 -6.5130067335085435 1.0000000000000002 
	21.757690510723226 18.000000000000004 -5.7519596253088485 0.99999999999999978 
	20.818861363465018 17.999999999999996 -4.8184033295429041 1 
	20.061025288465782 18.000000000000004 -3.7419839608084184 1.0000000000000002 
	19.505135265159538 18 -2.5569989820367462 0.99999999999999967 
	19.165446567046175 17.999999999999996 -1.2949572775423068 1.0000000000000002 
	19.090099190809678 18.000000000000004 -0.43641538350935144 0.99999999999999989 
	19.089608333690776 18 0 1 
	0.001 
	plane 47 18 17.159989055555684 0 1 0 1 0 0 forward_v I I I I 
	cone 27.562833599002374 22.863269777109867 0 0.17364817766693044 0.98480775301220802 0 0 0 7.5 1 I I 0 1 7.5 forward I I I I 
	nullbs 
	nullbs 
	I I 
	0 
	0 
	0 
	} I I #
coedge $-1 $44 $46 $32 $61 forward $23 $-1 #
edge $-1 $66 0 $64 53.5 $32 $94 forward 7 unknown #
coedge $-1 $95 $33 $37 $68 forward $42 $-1 #
coedge $-1 $33 $95 $44 $75 reversed $42 $-1 #
vertex $-1 $61 $96 #
straight-curve $-1 -6.5 18 -17.159989055555684 0 0 1 I I #
vertex $-1 $36 $97 #
straight-curve $-1 47 18 17.159989055555684 0 0 -1 I I #
edge $-1 $38 0 $81 1 $62 $98 forward 7 unknown #
point $-1 -6.5 18 17.159989055555684 #
point $-1 47 18 17.159989055555684 #
face $-1 $99 $100 $3 $-1 $101 reversed single #
loop $-1 $102 $103 $41 #
plane-surface $-1 47 19 17.159989055555684 0 1 0 1 0 0 forward_v I I I I #
coedge $-1 $46 $44 $103 $104 reversed $23 $-1 #
edge $-1 $64 0 $105 1 $44 $106 forward 7 unknown #
coedge $-1 $103 $48 $45 $77 forward $72 $-1 #
edge $-1 $50 0 $78 34.319978111111368 $76 $107 forward 7 unknown #
vertex $-1 $77 $108 #
straight-curve $-1 47 18 -17.159989055555684 0 1 0 I I #
coedge $-1 $48 $103 $95 $109 forward $72 $-1 #
vertex $-1 $49 $110 #
straight-curve $-1 -6.5 19 17.159989055555684 1 0 0 I I #
point $-1 47 19 17.159989055555684 #
coedge $-1 $111 $52 $55 $90 reversed $86 $-1 #
coedge $-1 $52 $111 $54 $89 forward $86 $-1 #
loop $-1 $-1 $84 $112 #
intcurve-curve $-1 forward { surfintcur full nurbs 3 open 19 
	0 3 0.055507063932941372 1 0.11101989106899732 1 0.16654358895106627 1 0.2220820169468094 1 
	0.27763731006970988 1 0.33320959121222116 1 0.38879691305337072 1 0.44439545989885565 1 0.49999999999999983 1 
	0.55560454010114424 1 0.61120308694662917 1 0.66679040878777873 1 0.72236268993028996 1 0.77791798305319038 1 
	0.83345641104893353 1 0.88898010893100277 1 0.94449293606705864 1 1 3 
	19.089608333690776 18 0 1 
	19.090099190809671 17.999999999999996 0.43641538350935027 1.0000000000000002 
	19.165446567046178 18.000000000000004 1.2949572775423051 0.99999999999999978 
	19.505135265159542 17.999999999999993 2.5569989820367574 1.0000000000000002 
	20.061025288465782 18.000000000000004 3.7419839608084184 0.99999999999999978 
	20.818861363465011 17.999999999999996 4.818403329542897 1.0000000000000002 
	21.757690510723226 18.000000000000004 5.7519596253088414 1 
	22.850655224544376 18 6.5130067335085444 1 
	24.065160925494958 18 7.0761781260169601 1 
	25.363737698952939 18.000000000000004 7.4221901792388945 0.99999999999999989 
	26.70530792283386 18 7.5389070071485493 1 
	28.046878146714793 18.000000000000004 7.4221901792388927 0.99999999999999989 
	29.345454920172749 18 7.0761781260169627 1.0000000000000002 
	30.559960621123352 18 6.5130067335085435 0.99999999999999989 
	31.652925334944502 18.000000000000004 5.7519596253088476 0.99999999999999978 
	32.591754482202688 17.999999999999996 4.8184033295429112 1 
	33.349590557201942 18.000000000000004 3.7419839608084167 1.0000000000000002 
	33.905480580508183 18 2.556998982036744 0.99999999999999967 
	34.245169278621546 17.999999999999996 1.2949572775423073 1.0000000000000002 
	34.320516654858046 18.000000000000004 0.43641538350935172 0.99999999999999989 
	34.321007511976944 18 0 1 
	0.001 
	plane 47 18 17.159989055555684 0 1 0 1 0 0 forward_v I I I I 
	cone 27.562833599002374 22.863269777109867 0 0.17364817766693044 0.98480775301220802 0 0 0 7.5 1 I I 0 1 7.5 forward I I I I 
	nullbs 
	nullbs 
	I I 
	0 
	0 
	0 
	} I I #
coedge $-1 $55 $54 $113 $114 forward $56 $-1 #
edge $-1 $115 0 $57 3.6158411971435287 $85 $116 forward 7 unknown #
edge $-1 $117 0 $58 6.2607459077705014 $84 $118 forward 7 unknown #
face $-1 $112 $56 $3 $-1 $119 reversed single #
point $-1 34.321007511976944 18 0 #
point $-1 19.089608333690776 18 0 #
straight-curve $-1 47 18 -17.159989055555684 -1 0 0 I I #
coedge $-1 $63 $62 $80 $109 reversed $42 $-1 #
point $-1 -6.5 18 -17.159989055555684 #
point $-1 47 18 -17.159989055555684 #
straight-curve $-1 -6.5 18 17.159989055555684 0 1 0 I I #
face $-1 $120 $121 $3 $-1 $122 forward single #
loop $-1 $-1 $123 $71 #
cone-surface $-1 28.166666666666664 19 -14.159989055555684 0 1 0 2.5 0 0 1 I I 0 1 2.5 forward I I I I #
loop $-1 $-1 $124 $41 #
coedge $-1 $80 $76 $74 $104 forward $72 $-1 #
edge $-1 $78 0 $105 53.5 $103 $125 forward 7 unknown #
vertex $-1 $109 $126 #
straight-curve $-1 -6.5 18 -17.159989055555684 0 1 0 I I #
straight-curve $-1 47 19 17.159989055555684 0 0 -1 I I #
point $-1 47 19 -17.159989055555684 #
edge $-1 $105 0 $81 34.319978111111368 $80 $127 forward 7 unknown #
point $-1 -6.5 19 17.159989055555684 #
coedge $-1 $85 $84 $128 $129 forward $86 $-1 #
face $-1 $-1 $86 $3 $-1 $130 reversed single #
coedge $-1 $128 $128 $88 $114 reversed $131 $-1 #
edge $-1 $115 0 $117 3.1415926535897905 $113 $132 forward 7 unknown #
vertex $-1 $129 $133 #
straight-curve $-1 34.948891746593937 21.56090844460789 4.5922738268339147e-016 -0.17364817766693036 -0.98480775301220813 0 I I #
vertex $-1 $129 $134 #
straight-curve $-1 20.176775451410812 24.165631109611844 -1.3776821480501744e-015 -0.17364817766693033 -0.98480775301220802 0 I I #
cone-surface $-1 27.562833599002374 22.863269777109867 0 0.17364817766693044 0.98480775301220802 0 0 0 7.5 1 I I 0 1 7.5 forward I I I I #
face $-1 $135 $136 $3 $-1 $137 reversed single #
loop $-1 $-1 $138 $99 #
plane-surface $-1 25.666666666666664 19 -14.159989055555684 0 0 -1 -1 0 0 forward_v I I I I #
coedge $-1 $139 $140 $141 $142 forward $100 $-1 #
coedge $-1 $143 $144 $140 $145 forward $102 $-1 #
straight-curve $-1 47 19 -17.159989055555684 -1 0 0 I I #
point $-1 -6.5 19 -17.159989055555684 #
straight-curve $-1 -6.5 19 -17.159989055555684 0 0 1 I I #
coedge $-1 $113 $113 $111 $129 reversed $131 $-1 #
edge $-1 $117 -4.4877420385906423e-031 $115 3.1415926535897958 $128 $146 forward 7 unknown #
cone-surface $-1 27.562833599002374 22.863269777109867 0 0.17364817766693044 0.98480775301220802 0 0 0 7.5 1 I I 0 1 7.5 forward I I I I #
loop $-1 $-1 $113 $147 #
ellipse-curve $-1 27.562833599002374 22.863269777109867 0 0.17364817766693028 0.98480775301220813 0 7.3860581475915623 -1.3023613325019774 0 1 I I #
point $-1 34.948891746593937 21.56090844460789 0 #
point $-1 20.176775451410812 24.165631109611844 -1.9999381537737668e-014 #
face $-1 $148 $149 $3 $-1 $150 forward single #
loop $-1 $-1 $151 $120 #
cone-surface $-1 12.333333333333332 19 -14.159989055555684 0 1 0 2.5 0 0 1 I I 0 1 2.5 forward I I I I #
coedge $-1 $152 $153 $154 $155 forward $121 $-1 #
coedge $-1 $156 $123 $157 $158 reversed $100 $-1 #
coedge $-1 $123 $156 $124 $145 reversed $100 $-1 #
coedge $-1 $153 $152 $123 $142 reversed $121 $-1 #
edge $-1 $159 0 $160 1 $141 $161 forward 7 unknown #
coedge $-1 $162 $124 $163 $164 reversed $102 $-1 #
coedge $-1 $124 $165 $153 $166 reversed $102 $-1 #
edge $-1 $159 0 $167 3.1415926535897931 $124 $168 forward 7 unknown #
ellipse-curve $-1 27.562833599002374 22.863269777109867 0 0.17364817766693028 0.98480775301220813 -4.4877420385906432e-031 -7.3860581475915623 1.3023613325019774 -1.9999381537737668e-014 1 I I #
face $-1 $91 $169 $3 $-1 $170 forward single #
face $-1 $171 $172 $3 $-1 $173 reversed single #
loop $-1 $-1 $174 $135 #
plane-surface $-1 9.8333333333333321 19 -14.159989055555684 0 0 -1 -1 0 0 forward_v I I I I #
coedge $-1 $175 $176 $177 $178 forward $136 $-1 #
coedge $-1 $141 $138 $179 $180 reversed $121 $-1 #
coedge $-1 $138 $141 $144 $166 forward $121 $-1 #
coedge $-1 $176 $175 $138 $155 reversed $136 $-1 #
edge $-1 $181 0 $182 1 $138 $183 forward 7 unknown #
coedge $-1 $140 $139 $184 $185 reversed $100 $-1 #
coedge $-1 $179 $186 $139 $158 forward $187 $-1 #
edge $-1 $188 0 $160 3.1415926535897931 $157 $189 forward 7 unknown #
vertex $-1 $166 $190 #
vertex $-1 $180 $191 #
straight-curve $-1 25.666666666666664 19 -14.159989055555684 0 1 0 I I #
coedge $-1 $192 $143 $193 $194 forward $102 $-1 #
coedge $-1 $184 $195 $143 $164 forward $196 $-1 #
edge $-1 $197 0 $167 10.833333333333332 $143 $198 forward 7 unknown #
coedge $-1 $144 $199 $176 $200 forward $102 $-1 #
edge $-1 $159 0 $181 10.833333333333332 $144 $201 forward 7 unknown #
vertex $-1 $164 $202 #
ellipse-curve $-1 28.166666666666664 19 -14.159989055555684 0 1 0 -2.4999999999999964 0 0 1 I I #
loop $-1 $131 $203 $147 #
plane-surface $-1 27.562833599002374 22.863269777109867 0 0.17364817766693044 0.98480775301220802 0 0 0 1 forward_v I I I I #
face $-1 $204 $205 $3 $-1 $206 forward single #
loop $-1 $-1 $207 $148 #
cone-surface $-1 -3.5 19 -14.159989055555684 0 1 0 2.5 0 0 1 I I 0 1 2.5 forward I I I I #
coedge $-1 $208 $209 $210 $211 forward $149 $-1 #
coedge $-1 $154 $151 $212 $213 reversed $136 $-1 #
coedge $-1 $151 $154 $165 $200 reversed $136 $-1 #
coedge $-1 $209 $208 $151 $178 reversed $149 $-1 #
edge $-1 $214 0 $215 1 $151 $216 forward 7 unknown #
coedge $-1 $212 $157 $152 $180 forward $187 $-1 #
edge $-1 $160 0 $182 10.833333333333332 $179 $217 forward 7 unknown #
vertex $-1 $166 $218 #
vertex $-1 $180 $219 #
straight-curve $-1 14.833333333333332 19 -14.159989055555684 0 1 0 I I #
coedge $-1 $220 $163 $156 $185 forward $196 $-1 #
edge $-1 $167 0 $188 1 $184 $221 forward 7 unknown #
coedge $-1 $157 $222 $220 $223 forward $187 $-1 #
loop $-1 $224 $212 $225 #
vertex $-1 $158 $226 #
ellipse-curve $-1 28.166666666666668 20 -14.159989055555684 0 -1 0 2.5 0 0 1 I I #
point $-1 25.666666666666668 19 -14.159989055555684 #
point $-1 25.666666666666668 20 -14.159989055555684 #
coedge $-1 $227 $162 $228 $229 reversed $102 $-1 #
coedge $-1 $230 $231 $162 $194 reversed $232 $-1 #
edge $-1 $197 0 $233 1.5707963267948966 $162 $234 forward 7 unknown #
coedge $-1 $163 $220 $230 $235 reversed $196 $-1 #
loop $-1 $-1 $184 $236 #
vertex $-1 $194 $237 #
straight-curve $-1 41.5 19 -14.159989055555684 -1 0 0 I I #
coedge $-1 $165 $238 $209 $239 reversed $102 $-1 #
edge $-1 $214 0 $181 3.1415926535897931 $165 $240 forward 7 unknown #
straight-curve $-1 25.666666666666668 19 -14.159989055555684 -1 0 0 I I #
point $-1 30.666666666666668 19 -14.159989055555684 #
coedge $-1 $241 $241 $242 $243 forward $169 $-1 #
face $-1 $244 $245 $3 $-1 $246 reversed single #
loop $-1 $-1 $247 $171 #
plane-surface $-1 -3.5 19 -11.659989055555684 -1 0 0 0 0 1 forward_v I I I I #
coedge $-1 $248 $249 $250 $251 forward $172 $-1 #
coedge $-1 $177 $174 $252 $253 reversed $149 $-1 #
coedge $-1 $174 $177 $199 $239 forward $149 $-1 #
coedge $-1 $249 $248 $174 $211 reversed $172 $-1 #
edge $-1 $254 0 $255 1 $174 $256 forward 7 unknown #
coedge $-1 $252 $179 $175 $213 forward $187 $-1 #
edge $-1 $182 0 $215 3.1415926535897931 $212 $257 forward 7 unknown #
vertex $-1 $200 $258 #
vertex $-1 $253 $259 #
straight-curve $-1 9.8333333333333321 19 -14.159989055555684 0 1 0 I I #
straight-curve $-1 25.666666666666668 20 -14.159989055555684 -1 0 0 I I #
point $-1 14.833333333333336 19 -14.159989055555684 #
point $-1 14.833333333333336 20 -14.159989055555684 #
coedge $-1 $195 $184 $186 $223 reversed $196 $-1 #
straight-curve $-1 30.666666666666664 19 -14.159989055555684 0 1 0 I I #
coedge $-1 $186 $260 $261 $262 forward $187 $-1 #
edge $-1 $263 0 $188 10.833333333333332 $186 $264 forward 7 unknown #
loop $-1 $-1 $265 $225 #
face $-1 $266 $187 $3 $-1 $267 forward single #
point $-1 30.666666666666668 20 -14.159989055555684 #
coedge $-1 $268 $192 $269 $270 forward $102 $-1 #
coedge $-1 $271 $272 $192 $229 forward $273 $-1 #
edge $-1 $274 0 $233 9.159989055555684 $192 $275 forward 7 unknown #
coedge $-1 $261 $193 $195 $235 forward $232 $-1 #
coedge $-1 $193 $261 $271 $276 reversed $232 $-1 #
loop $-1 $-1 $230 $277 #
vertex $-1 $229 $278 #
ellipse-curve $-1 44 19 -14.159989055555684 0 1 0 -2.5 0 0 1 I I #
edge $-1 $197 0 $263 1 $230 $279 forward 7 unknown #
face $-1 $225 $196 $3 $-1 $280 forward single #
point $-1 41.5 19 -14.159989055555684 #
coedge $-1 $199 $281 $249 $282 forward $102 $-1 #
edge $-1 $214 0 $254 10.833333333333336 $199 $283 forward 7 unknown #
ellipse-curve $-1 12.333333333333332 19 -14.159989055555684 0 1 0 -2.4999999999999964 0 0 1 I I #
coedge $-1 $203 $203 $284 $285 forward $169 $-1 #
coedge $-1 $286 $287 $203 $243 reversed $288 $-1 #
edge $-1 $289 0 $290 3.1415926535897931 $203 $291 forward 7 unknown #
face $-1 $292 $293 $3 $-1 $294 forward single #
loop $-1 $-1 $295 $204 #
cone-surface $-1 -3.5 19 0 0 1 0 2.5 0 0 1 I I 0 1 2.5 forward I I I I #
coedge $-1 $296 $297 $298 $299 forward $205 $-1 #
coedge $-1 $210 $207 $300 $301 reversed $172 $-1 #
coedge $-1 $207 $210 $238 $282 reversed $172 $-1 #
coedge $-1 $297 $296 $207 $251 reversed $205 $-1 #
edge $-1 $302 1.9721522630525295e-031 $303 1 $207 $304 forward 7 unknown #
coedge $-1 $300 $212 $208 $253 forward $187 $-1 #
edge $-1 $215 0 $255 10.833333333333336 $252 $305 forward 7 unknown #
vertex $-1 $239 $306 #
vertex $-1 $301 $307 #
straight-curve $-1 -1 19 -14.159989055555684 0 1 0 I I #
ellipse-curve $-1 12.333333333333336 20 -14.159989055555684 0 -1 0 2.5 0 0 1 I I #
point $-1 9.8333333333333357 19 -14.159989055555684 #
point $-1 9.8333333333333357 20 -14.159989055555684 #
coedge $-1 $222 $308 $309 $310 forward $187 $-1 #
coedge $-1 $231 $230 $222 $262 reversed $232 $-1 #
edge $-1 $311 0 $263 1.5707963267948966 $222 $312 forward 7 unknown #
vertex $-1 $223 $313 #
straight-curve $-1 41.5 20 -14.159989055555684 -1 0 0 I I #
coedge $-1 $314 $314 $315 $316 reversed $224 $-1 #
face $-1 $317 $288 $3 $-1 $318 forward single #
plane-surface $-1 47 20 17.159989055555684 0 1 0 1 0 0 forward_v I I I I #
coedge $-1 $319 $227 $320 $321 reversed $102 $-1 #
coedge $-1 $322 $323 $227 $270 reversed $324 $-1 #
edge $-1 $274 0 $325 3.1415926535897931 $227 $326 forward 7 unknown #
coedge $-1 $309 $228 $231 $276 forward $273 $-1 #
coedge $-1 $228 $309 $322 $327 reversed $273 $-1 #
loop $-1 $-1 $271 $328 #
vertex $-1 $270 $329 #
straight-curve $-1 44 19 -2.5 0 0 -1 I I #
edge $-1 $233 0 $311 1 $271 $330 forward 7 unknown #
face $-1 $236 $232 $3 $-1 $331 reversed single #
point $-1 44 19 -11.659989055555684 #
straight-curve $-1 41.5 19 -14.159989055555684 0 1 0 I I #
plane-surface $-1 41.5 19 -14.159989055555684 0 0 -1 -1 0 0 forward_v I I I I #
coedge $-1 $238 $332 $297 $333 reversed $102 $-1 #
edge $-1 $302 0 $254 1.5707963267948966 $238 $334 forward 7 unknown #
straight-curve $-1 9.8333333333333357 19 -14.159989055555684 -1 0 0 I I #
coedge $-1 $335 $336 $241 $285 reversed $337 $-1 #
edge $-1 $290 0 $289 3.1415926535897931 $241 $338 forward 7 unknown #
coedge $-1 $315 $242 $336 $339 forward $288 $-1 #
coedge $-1 $242 $315 $335 $340 reversed $288 $-1 #
loop $-1 $-1 $287 $266 #
vertex $-1 $285 $341 #
vertex $-1 $285 $342 #
ellipse-curve $-1 27.562833599002371 22.863269777109867 0 0.1736481776669305 0.98480775301220802 -1.1929843557217565e-032 11.325289159640395 -1.9969540431697013 -1.27675647831893e-015 1 I I #
face $-1 $343 $344 $3 $-1 $345 reversed single #
loop $-1 $-1 $346 $244 #
plane-surface $-1 -3.5 19 2.5 -1 0 0 0 0 1 forward_v I I I I #
coedge $-1 $347 $348 $349 $350 forward $245 $-1 #
coedge $-1 $250 $247 $351 $352 reversed $205 $-1 #
coedge $-1 $247 $250 $281 $333 forward $205 $-1 #
coedge $-1 $348 $347 $247 $299 reversed $245 $-1 #
edge $-1 $353 0 $354 1 $247 $355 forward 7 unknown #
coedge $-1 $351 $252 $248 $301 forward $187 $-1 #
edge $-1 $255 0 $303 1.5707963267948966 $300 $356 forward 7 unknown #
vertex $-1 $282 $357 #
vertex $-1 $352 $358 #
straight-curve $-1 -3.5000000000000004 19 -11.659989055555684 4.4408920985006262e-016 1 0 I I #
straight-curve $-1 9.8333333333333357 20 -14.159989055555684 -1 0 0 I I #
point $-1 -1 19 -14.159989055555684 #
point $-1 -1 20 -14.159989055555684 #
coedge $-1 $260 $359 $360 $361 forward $187 $-1 #
coedge $-1 $272 $271 $260 $310 reversed $273 $-1 #
edge $-1 $362 0 $311 9.159989055555684 $260 $363 forward 7 unknown #
vertex $-1 $262 $364 #
ellipse-curve $-1 44 20 -14.159989055555684 0 -1 0 0 0 2.5 1 I I #
point $-1 41.5 20 -14.159989055555684 #
coedge $-1 $265 $265 $365 $366 reversed $224 $-1 #
coedge $-1 $287 $286 $265 $316 forward $288 $-1 #
edge $-1 $367 0 $368 0.99999999999999978 $265 $369 forward 7 unknown #
face $-1 $147 $337 $3 $-1 $370 forward single #
cone-surface $-1 27.562833599002371 22.863269777109867 0 0.17364817766693044 0.98480775301220813 0 0 0 11.5 1 I I 0 1 11.5 forward I I I I #
coedge $-1 $371 $268 $372 $373 forward $102 $-1 #
coedge $-1 $374 $375 $268 $321 forward $376 $-1 #
edge $-1 $377 0 $325 9.159989055555684 $268 $378 forward 7 unknown #
coedge $-1 $360 $269 $272 $327 forward $324 $-1 #
coedge $-1 $269 $360 $374 $379 reversed $324 $-1 #
loop $-1 $-1 $322 $380 #
vertex $-1 $321 $381 #
ellipse-curve $-1 44 19 0 0 1 0 0 0 -2.5 1 I I #
edge $-1 $274 0 $362 1 $322 $382 forward 7 unknown #
face $-1 $277 $273 $3 $-1 $383 forward single #
point $-1 44 19 -2.5 #
straight-curve $-1 44 19 -11.659989055555684 0 1 0 I I #
cone-surface $-1 44 19 -14.159989055555684 0 1 0 2.5 0 0 1 I I 0 1 2.5 forward I I I I #
coedge $-1 $281 $384 $348 $385 forward $102 $-1 #
edge $-1 $302 0 $353 9.159989055555684 $281 $386 forward 7 unknown #
ellipse-curve $-1 -3.5 19 -14.159989055555684 0 1 0 0 0 2.5 1 I I #
coedge $-1 $365 $284 $287 $340 forward $337 $-1 #
coedge $-1 $284 $365 $286 $339 reversed $337 $-1 #
loop $-1 $-1 $336 $317 #
ellipse-curve $-1 27.562833599002371 22.863269777109867 0 0.17364817766693055 0.98480775301220802 0 -11.325289159640391 1.9969540431697013 0 1 I I #
edge $-1 $289 1.6621514822189663e-030 $367 0.87968005053817611 $336 $387 forward 7 unknown #
edge $-1 $290 -6.1692225609608383e-016 $368 4.9352006068328738 $335 $388 forward 7 unknown #
point $-1 38.888122758642766 20.866315733940166 -1.27675647831893e-015 #
point $-1 16.237544439361979 24.860223820279568 0 #
face $-1 $389 $390 $3 $-1 $391 forward single #
loop $-1 $-1 $392 $292 #
cone-surface $-1 -3.5 19 14.159989055555684 0 1 0 2.5 0 0 1 I I 0 1 2.5 forward I I I I #
coedge $-1 $393 $394 $395 $396 forward $293 $-1 #
coedge $-1 $298 $295 $397 $398 reversed $245 $-1 #
coedge $-1 $295 $298 $332 $385 reversed $245 $-1 #
coedge $-1 $394 $393 $295 $350 reversed $293 $-1 #
edge $-1 $399 1.9721522630525295e-031 $400 1 $295 $401 forward 7 unknown #
coedge $-1 $397 $300 $296 $352 forward $187 $-1 #
edge $-1 $303 0 $354 9.159989055555684 $351 $402 forward 7 unknown #
vertex $-1 $333 $403 #
vertex $-1 $398 $404 #
straight-curve $-1 -3.5 19 -2.5 0 1 0 I I #
ellipse-curve $-1 -3.5 20 -14.159989055555684 0 -1 0 2.5 0 0 1 I I #
point $-1 -3.5 19 -11.659989055555684 #
point $-1 -3.5 20 -11.659989055555684 #
coedge $-1 $308 $405 $406 $407 forward $187 $-1 #
coedge $-1 $323 $322 $308 $361 reversed $324 $-1 #
edge $-1 $408 0 $362 3.1415926535897931 $308 $409 forward 7 unknown #
vertex $-1 $310 $410 #
straight-curve $-1 44 20 -2.5 0 0 -1 I I #
point $-1 44 20 -11.659989055555684 #
coedge $-1 $336 $335 $314 $366 forward $337 $-1 #
edge $-1 $368 0 $367 0.99999999999999978 $314 $411 forward 7 unknown #
vertex $-1 $366 $412 #
vertex $-1 $366 $413 #
intcurve-curve $-1 forward { surfintcur full nurbs 3 open 21 
	0 3 0.049960268747100536 1 0.099924368750348991 1 0.14989577821758152 1 0.19987729642365423 1 
	0.24987076782483814 1 0.29987688925025435 1 0.34989511942542301 1 0.39992370981165609 1 0.44995986170306618 1 
	0.49999999999999994 1 0.55004013829693377 1 0.60007629018834385 1 0.65010488057457705 1 0.70012311074974565 1 
	0.75012923217516203 1 0.80012270357634585 1 0.85010422178241862 1 0.90007563124965095 1 0.95003973125289942 1 
	0.99999999999999978 3 
	38.735367920936852 20 0 1 
	38.734875588443742 20 -0.60114190290627523 0.99999999999999978 
	38.641171699058511 19.999999999999996 -1.787442345569523 1.0000000000000004 
	38.218881122584641 20.000000000000004 -3.5381011679843994 1 
	37.525357893561193 20 -5.202510887876473 0.99999999999999978 
	36.574886576157574 20.000000000000004 -6.7450270494684617 1.0000000000000002 
	35.388460091529275 19.999999999999996 -8.1263360363730133 0.99999999999999978 
	33.993063360798871 20 -9.3114590762634926 1 
	32.421693097024658 19.999999999999996 -10.268999699620311 1 
	30.712803491633018 20.000000000000004 -10.972880022484032 1 
	28.909438120373611 19.999999999999996 -11.403402908087998 1 
	27.057961884250801 20.000000000000004 -11.548300469864143 0.99999999999999978 
	25.206485648127973 19.999999999999996 -11.403402908087992 1.0000000000000002 
	23.403120276868556 20 -10.972880022484036 1 
	21.694230671476916 20 -10.268999699620316 1.0000000000000002 
	20.122860407702678 20 -9.3114590762634784 1 
	18.727463676972317 20.000000000000007 -8.1263360363730079 0.99999999999999989 
	17.541037192343982 19.999999999999993 -6.7450270494684608 1.0000000000000002 
	16.590565874940374 20.000000000000004 -5.2025108878764641 0.99999999999999989 
	15.897042645916942 20 -3.5381011679843941 1 
	15.474752069443051 20 -1.7874423455695287 1 
	15.38104818005784 20 -0.60114190290627789 1 
	15.380555847564722 20 0 1 
	0.001 
	plane 47 20 17.159989055555684 0 1 0 1 0 0 forward_v I I I I 
	cone 27.562833599002371 22.863269777109867 0 0.17364817766693044 0.98480775301220813 0 0 0 11.5 1 I I 0 1 11.5 forward I I I I 
	nullbs 
	nullbs 
	I I 
	0 
	0 
	0 
	} I I #
cone-surface $-1 27.562833599002371 22.863269777109867 0 0.17364817766693044 0.98480775301220813 0 0 0 11.5 1 I I 0 1 11.5 forward I I I I #
coedge $-1 $414 $319 $415 $416 reversed $102 $-1 #
coedge $-1 $417 $418 $319 $373 reversed $419 $-1 #
edge $-1 $377 0 $420 1.5707963267948966 $319 $421 forward 7 unknown #
coedge $-1 $406 $320 $323 $379 forward $376 $-1 #
coedge $-1 $320 $406 $417 $422 reversed $376 $-1 #
loop $-1 $-1 $374 $423 #
vertex $-1 $373 $424 #
straight-curve $-1 44 19 11.659989055555684 0 0 -1 I I #
edge $-1 $325 0 $408 1 $374 $425 forward 7 unknown #
face $-1 $328 $324 $3 $-1 $426 reversed single #
point $-1 44 19 2.5 #
straight-curve $-1 44 19 -2.5 0 1 0 I I #
plane-surface $-1 44 19 -2.5 1 0 0 0 0 -1 forward_v I I I I #
coedge $-1 $332 $427 $394 $428 reversed $102 $-1 #
edge $-1 $399 0 $353 3.1415926535897931 $332 $429 forward 7 unknown #
straight-curve $-1 -3.5 19 -11.659989055555684 0 0 1 I I #
straight-curve $-1 38.888122758642766 20.866315733940166 -1.8493643031899931e-015 -0.17364817766692925 -0.98480775301220835 2.9027746566216436e-015 I I #
straight-curve $-1 16.237544439361976 24.860223820279568 -2.1124459603436008e-015 -0.17364817766693055 -0.98480775301220813 0 I I #
face $-1 $430 $431 $3 $-1 $432 reversed single #
loop $-1 $-1 $433 $343 #
plane-surface $-1 -1 19 14.159989055555684 0 0 1 1 0 0 forward_v I I I I #
coedge $-1 $434 $435 $436 $437 forward $344 $-1 #
coedge $-1 $349 $346 $438 $439 reversed $293 $-1 #
coedge $-1 $346 $349 $384 $428 forward $293 $-1 #
coedge $-1 $435 $434 $346 $396 reversed $344 $-1 #
edge $-1 $440 0 $441 1 $346 $442 forward 7 unknown #
coedge $-1 $438 $351 $347 $398 forward $187 $-1 #
edge $-1 $354 0 $400 3.1415926535897931 $397 $443 forward 7 unknown #
vertex $-1 $385 $444 #
vertex $-1 $439 $445 #
straight-curve $-1 -3.5000000000000004 19 2.5 4.4408920985006262e-016 1 0 I I #
straight-curve $-1 -3.5 20 -11.659989055555684 0 0 1 I I #
point $-1 -3.5 19 -2.5 #
point $-1 -3.5 20 -2.5 #
coedge $-1 $359 $446 $447 $448 forward $187 $-1 #
coedge $-1 $375 $374 $359 $407 reversed $376 $-1 #
edge $-1 $449 0 $408 9.159989055555684 $359 $450 forward 7 unknown #
vertex $-1 $361 $451 #
ellipse-curve $-1 44 20 0 0 -1 0 0 0 2.5 1 I I #
point $-1 44 20 -2.5 #
intcurve-curve $-1 forward { surfintcur full nurbs 3 open 21 
	0 3 0.049960268747100536 1 0.099924368750348991 1 0.14989577821758149 1 0.1998772964236542 1 
	0.24987076782483808 1 0.2998768892502543 1 0.3498951194254229 1 0.39992370981165609 1 0.44995986170306618 1 
	0.49999999999999994 1 0.55004013829693377 1 0.60007629018834385 1 0.65010488057457705 1 0.70012311074974565 1 
	0.75012923217516181 1 0.80012270357634585 1 0.85010422178241862 1 0.90007563124965095 1 0.95003973125289942 1 
	0.99999999999999978 3 
	15.380555847564722 20 0 1 
	15.381048180057839 20 0.60114190290628056 0.99999999999999978 
	15.474752069443047 19.999999999999996 1.7874423455695356 1.0000000000000002 
	15.897042645916946 20 3.5381011679844114 1.0000000000000002 
	16.590565874940378 20 5.202510887876473 0.99999999999999978 
	17.541037192343993 20 6.7450270494684714 1.0000000000000004 
	18.72746367697231 20.000000000000004 8.1263360363730097 0.99999999999999956 
	20.122860407702703 20 9.3114590762634979 1 
	21.694230671476905 20 10.268999699620306 1 
	23.40312027686857 20.000000000000004 10.972880022484036 1 
	25.206485648127973 20 11.403402908087998 1 
	27.057961884250787 20 11.548300469864145 1.0000000000000002 
	28.909438120373615 19.999999999999996 11.403402908087999 0.99999999999999978 
	30.712803491633011 19.999999999999996 10.972880022484032 1.0000000000000002 
	32.421693097024658 20 10.268999699620322 1 
	33.993063360798885 20 9.3114590762634784 1 
	35.388460091529289 20 8.1263360363730062 1 
	36.574886576157567 20 6.7450270494684705 1 
	37.525357893561214 20 5.2025108878764668 1.0000000000000002 
	38.218881122584619 20 3.5381011679843968 0.99999999999999989 
	38.641171699058518 20 1.7874423455695383 1.0000000000000002 
	38.734875588443742 20 0.60114190290628211 1 
	38.735367920936852 20 0 1 
	0.001 
	plane 47 20 17.159989055555684 0 1 0 1 0 0 forward_v I I I I 
	cone 27.562833599002371 22.863269777109867 0 0.17364817766693044 0.98480775301220813 0 0 0 11.5 1 I I 0 1 11.5 forward I I I I 
	nullbs 
	nullbs 
	I I 
	0 
	0 
	0 
	} I I #
point $-1 38.735367920936852 20 0 #
point $-1 15.380555847564722 20 0 #
coedge $-1 $452 $371 $453 $454 forward $102 $-1 #
coedge $-1 $455 $456 $371 $416 forward $457 $-1 #
edge $-1 $458 0 $420 10.833333333333332 $371 $459 forward 7 unknown #
coedge $-1 $447 $372 $375 $422 forward $419 $-1 #
coedge $-1 $372 $447 $455 $460 reversed $419 $-1 #
loop $-1 $-1 $417 $461 #
vertex $-1 $416 $462 #
ellipse-curve $-1 44 19 14.159989055555684 0 1 0 0 0 -2.5 1 I I #
edge $-1 $377 0 $449 1 $417 $463 forward 7 unknown #
face $-1 $380 $376 $3 $-1 $464 forward single #
point $-1 44 19 11.659989055555684 #
straight-curve $-1 44 19 2.5 0 1 0 I I #
cone-surface $-1 44 19 0 0 1 0 2.5 0 0 1 I I 0 1 2.5 forward I I I I #
coedge $-1 $384 $465 $435 $466 forward $102 $-1 #
edge $-1 $399 0 $440 9.159989055555684 $384 $467 forward 7 unknown #
ellipse-curve $-1 -3.5 19 0 0 1 0 0 0 2.5 1 I I #
face $-1 $468 $469 $3 $-1 $470 forward single #
loop $-1 $-1 $471 $389 #
cone-surface $-1 12.333333333333332 19 14.159989055555684 0 1 0 2.5 0 0 1 I I 0 1 2.5 forward I I I I #
coedge $-1 $472 $473 $474 $475 forward $390 $-1 #
coedge $-1 $395 $392 $476 $477 reversed $344 $-1 #
coedge $-1 $392 $395 $427 $466 reversed $344 $-1 #
coedge $-1 $473 $472 $392 $437 reversed $390 $-1 #
edge $-1 $478 0 $479 1 $392 $480 forward 7 unknown #
coedge $-1 $476 $397 $393 $439 forward $187 $-1 #
edge $-1 $400 0 $441 9.159989055555684 $438 $481 forward 7 unknown #
vertex $-1 $428 $482 #
vertex $-1 $477 $483 #
straight-curve $-1 -3.5 19 11.659989055555684 0 1 0 I I #
ellipse-curve $-1 -3.5 20 0 0 -1 0 0 0 -2.5 1 I I #
point $-1 -3.5 19 2.5 #
point $-1 -3.5 20 2.5 #
coedge $-1 $405 $484 $485 $486 forward $187 $-1 #
coedge $-1 $418 $417 $405 $448 reversed $419 $-1 #
edge $-1 $487 0 $449 1.5707963267948966 $405 $488 forward 7 unknown #
vertex $-1 $407 $489 #
straight-curve $-1 44 20 11.659989055555684 0 0 -1 I I #
point $-1 44 20 2.5 #
coedge $-1 $490 $414 $491 $492 reversed $102 $-1 #
coedge $-1 $493 $494 $414 $454 reversed $495 $-1 #
edge $-1 $458 0 $496 3.1415926535897931 $414 $497 forward 7 unknown #
coedge $-1 $485 $415 $418 $460 forward $457 $-1 #
coedge $-1 $415 $485 $493 $498 reversed $457 $-1 #
loop $-1 $-1 $455 $499 #
vertex $-1 $454 $500 #
straight-curve $-1 30.666666666666668 19 14.159989055555684 1 0 0 I I #
edge $-1 $420 0 $487 1 $455 $501 forward 7 unknown #
face $-1 $423 $419 $3 $-1 $502 reversed single #
point $-1 41.5 19 14.159989055555684 #
straight-curve $-1 44 19 11.659989055555684 0 1 0 I I #
plane-surface $-1 44 19 11.659989055555684 1 0 0 0 0 -1 forward_v I I I I #
coedge $-1 $427 $490 $473 $503 reversed $102 $-1 #
edge $-1 $478 0 $440 1.5707963267948966 $427 $504 forward 7 unknown #
straight-curve $-1 -3.5 19 2.5 0 0 1 I I #
face $-1 $499 $495 $3 $-1 $505 reversed single #
loop $-1 $-1 $506 $430 #
plane-surface $-1 14.833333333333332 19 14.159989055555684 0 0 1 1 0 0 forward_v I I I I #
coedge $-1 $507 $508 $509 $510 forward $431 $-1 #
coedge $-1 $436 $433 $511 $512 reversed $390 $-1 #
coedge $-1 $433 $436 $465 $503 forward $390 $-1 #
coedge $-1 $508 $507 $433 $475 reversed $431 $-1 #
edge $-1 $513 0 $514 1 $433 $515 forward 7 unknown #
coedge $-1 $511 $438 $434 $477 forward $187 $-1 #
edge $-1 $441 0 $479 1.5707963267948966 $476 $516 forward 7 unknown #
vertex $-1 $466 $517 #
vertex $-1 $512 $518 #
straight-curve $-1 -1 19 14.159989055555684 0 1 0 I I #
straight-curve $-1 -3.5 20 2.5 0 0 1 I I #
point $-1 -3.5 19 11.659989055555684 #
point $-1 -3.5 20 11.659989055555684 #
coedge $-1 $446 $519 $520 $521 forward $187 $-1 #
coedge $-1 $456 $455 $446 $486 reversed $457 $-1 #
edge $-1 $522 0 $487 10.833333333333332 $446 $523 forward 7 unknown #
vertex $-1 $448 $524 #
ellipse-curve $-1 44 20 14.159989055555684 0 -1 0 -2.5 0 0 1 I I #
point $-1 44 20 11.659989055555684 #
coedge $-1 $465 $452 $508 $525 forward $102 $-1 #
coedge $-1 $506 $509 $452 $492 forward $469 $-1 #
edge $-1 $526 0 $496 10.833333333333332 $452 $527 forward 7 unknown #
coedge $-1 $520 $453 $456 $498 forward $495 $-1 #
coedge $-1 $453 $520 $506 $528 reversed $495 $-1 #
loop $-1 $-1 $493 $468 #
vertex $-1 $492 $529 #
ellipse-curve $-1 28.166666666666664 19 14.159989055555684 0 1 0 2.5000000000000036 0 0 1 I I #
edge $-1 $458 0 $522 1 $493 $530 forward 7 unknown #
face $-1 $461 $457 $3 $-1 $531 forward single #
point $-1 30.666666666666668 19 14.159989055555684 #
straight-curve $-1 41.5 19 14.159989055555684 0 1 0 I I #
cone-surface $-1 44 19 14.159989055555684 0 1 0 2.5 0 0 1 I I 0 1 2.5 forward I I I I #
edge $-1 $478 0 $513 10.833333333333336 $465 $532 forward 7 unknown #
ellipse-curve $-1 -3.5 19 14.159989055555684 0 1 0 2.5 0 0 1 I I #
cone-surface $-1 28.166666666666664 19 14.159989055555684 0 1 0 2.5 0 0 1 I I 0 1 2.5 forward I I I I #
coedge $-1 $533 $491 $494 $528 forward $469 $-1 #
coedge $-1 $474 $471 $534 $535 reversed $431 $-1 #
coedge $-1 $471 $474 $490 $525 reversed $431 $-1 #
coedge $-1 $491 $533 $471 $510 reversed $469 $-1 #
edge $-1 $526 0 $536 1 $471 $537 forward 7 unknown #
coedge $-1 $534 $476 $472 $512 forward $187 $-1 #
edge $-1 $479 0 $514 10.833333333333336 $511 $538 forward 7 unknown #
vertex $-1 $503 $539 #
vertex $-1 $535 $540 #
straight-curve $-1 9.8333333333333321 19 14.159989055555684 0 1 0 I I #
ellipse-curve $-1 -3.5 20 14.159989055555684 0 -1 0 0 0 -2.5 1 I I #
point $-1 -1 19 14.159989055555684 #
point $-1 -1 20 14.159989055555684 #
coedge $-1 $484 $534 $533 $541 forward $187 $-1 #
coedge $-1 $494 $493 $484 $521 reversed $495 $-1 #
edge $-1 $542 0 $522 3.1415926535897918 $484 $543 forward 7 unknown #
vertex $-1 $486 $544 #
straight-curve $-1 30.666666666666668 20 14.159989055555684 1 0 0 I I #
point $-1 41.5 20 14.159989055555684 #
edge $-1 $526 0 $513 3.1415926535897931 $490 $545 forward 7 unknown #
vertex $-1 $525 $546 #
straight-curve $-1 14.833333333333336 19 14.159989055555684 1 0 0 I I #
edge $-1 $496 0 $542 1 $506 $547 forward 7 unknown #
point $-1 25.666666666666668 19 14.159989055555684 #
straight-curve $-1 30.666666666666664 19 14.159989055555684 0 1 0 I I #
plane-surface $-1 30.666666666666664 19 14.159989055555684 0 0 1 1 0 0 forward_v I I I I #
straight-curve $-1 -1 19 14.159989055555684 1 0 0 I I #
coedge $-1 $509 $506 $519 $541 reversed $469 $-1 #
coedge $-1 $519 $511 $507 $535 forward $187 $-1 #
edge $-1 $514 0 $536 3.1415926535897918 $534 $548 forward 7 unknown #
vertex $-1 $541 $549 #
straight-curve $-1 14.833333333333332 19 14.159989055555684 0 1 0 I I #
straight-curve $-1 -1 20 14.159989055555684 1 0 0 I I #
point $-1 9.8333333333333357 19 14.159989055555684 #
point $-1 9.8333333333333357 20 14.159989055555684 #
edge $-1 $536 0 $542 10.833333333333332 $519 $550 forward 7 unknown #
vertex $-1 $521 $551 #
ellipse-curve $-1 28.166666666666668 20 14.159989055555686 0 -1 0 -2.5 0 -1.7763568394002505e-015 1 I I #
point $-1 30.666666666666668 20 14.159989055555684 #
ellipse-curve $-1 12.333333333333332 19 14.159989055555684 0 1 0 2.5000000000000036 0 0 1 I I #
point $-1 14.833333333333336 19 14.159989055555684 #
straight-curve $-1 25.666666666666664 19 14.159989055555684 0 1 0 I I #
ellipse-curve $-1 12.333333333333336 20 14.159989055555686 0 -1 0 -2.5 0 -1.7763568394002505e-015 1 I I #
point $-1 14.833333333333336 20 14.159989055555684 #
straight-curve $-1 14.833333333333336 20 14.159989055555684 1 0 0 I I #
point $-1 25.666666666666668 20 14.159989055555684 #
End-of-ACIS-data 