700 0 2 0           
24 FBMach with ACIS - 7.0.3 13 ACIS 7.0.3 NT 24 Thu May 16 15:52:45 2002 
1 9.9999999999999995e-007 1e-010 
body $2 -1 $-1 $3 $-1 $4 #
bdycol-kcp $-1 -1 1 3 $5 $6 $7 #
model_id-kcp-attrib $-1 -1 $-1 $-1 $0 1 1021578765 1021578765 577241089 1 #
lump $-1 -1 $-1 $-1 $8 $0 #
transform $-1 -1 1 0 0 0 1 0 0 0 1 0 0 0 1 rotate no_reflect no_shear #
body $9 -1 $-1 $10 $-1 $11 #
body $12 -1 $-1 $13 $-1 $14 #
body $15 -1 $-1 $16 $-1 $17 #
shell $-1 -1 $-1 $-1 $-1 $18 $-1 $3 #
rgb_color-st-attrib $-1 -1 $19 $-1 $5 0.5 1 1 #
lump $-1 -1 $-1 $-1 $20 $5 #
transform $-1 -1 1 0 0 0 1 0 0 0 1 0 0 0 1 no_rotate no_reflect no_shear #
model_id-kcp-attrib $-1 -1 $-1 $-1 $6 1 1021578765 1021578765 577241090 1 #
lump $-1 -1 $-1 $-1 $21 $6 #
transform $-1 -1 1 0 0 0 1 0 0 0 1 0 -2.5 0 1 no_rotate no_reflect no_shear #
rgb_color-st-attrib $-1 -1 $22 $-1 $7 0.5 1 1 #
lump $-1 -1 $-1 $-1 $23 $7 #
transform $-1 -1 1 0 0 0 1 0 0 0 1 0 -2.5 0 1 no_rotate no_reflect no_shear #
face $24 -1 $-1 $25 $26 $8 $-1 $27 reversed single #
model_id-kcp-attrib $-1 -1 $-1 $9 $5 1 1021578765 1021578765 571015172 1 #
shell $-1 -1 $-1 $-1 $-1 $28 $-1 $10 #
shell $-1 -1 $-1 $-1 $-1 $29 $-1 $13 #
model_id-kcp-attrib $-1 -1 $-1 $15 $7 1 1021578765 1021578765 583794691 1 #
shell $-1 -1 $-1 $-1 $-1 $30 $-1 $16 #
model_id-kcp-attrib $-1 -1 $-1 $-1 $18 1 1021578765 1021578765 577241089 2 #
face $31 -1 $-1 $32 $33 $8 $-1 $34 forward single #
loop $-1 -1 $-1 $35 $36 $18 #
plane-surface $-1 -1 $-1 0 0 0 0 -1 0 -10 0 0 forward_v I I I I #
face $-1 -1 $-1 $37 $38 $20 $-1 $39 forward single #
face $-1 -1 $-1 $40 $41 $21 $-1 $42 forward single #
face $-1 -1 $-1 $43 $44 $23 $-1 $45 reversed single #
model_id-kcp-attrib $-1 -1 $-1 $-1 $25 1 1021578765 1021578765 577241089 3 #
face $46 -1 $-1 $47 $48 $8 $-1 $49 forward single #
loop $-1 -1 $-1 $-1 $50 $25 #
cone-surface $-1 -1 $-1 0 0 0 0 -1 0 -20 0 0 1 I I 0 1 20 forward I I I I #
loop $-1 -1 $-1 $-1 $51 $18 #
coedge $-1 -1 $-1 $52 $52 $53 $54 reversed $26 $-1 #
face $-1 -1 $-1 $55 $56 $20 $-1 $57 reversed single #
loop $-1 -1 $-1 $58 $59 $28 #
cone-surface $-1 -1 $-1 0 0 0 0 -1 0 10 0 0 1 I I 0 1 10 forward I I I I #
face $-1 -1 $-1 $60 $61 $21 $-1 $62 reversed single #
loop $-1 -1 $-1 $-1 $63 $29 #
plane-surface $-1 -1 $-1 0 0 20 0 0 1 1 0 0 forward_v I I I I #
face $-1 -1 $-1 $64 $65 $23 $-1 $45 reversed single #
loop $-1 -1 $-1 $-1 $66 $30 #
cone-surface $-1 -1 $-1 7.4983036091106872e-032 2.5 0 0 1 0 -20 0 0 1 I I 0 1 20 forward I I I I #
model_id-kcp-attrib $-1 -1 $-1 $-1 $32 1 1021578765 1021578765 577241089 4 #
face $67 -1 $-1 $68 $69 $8 $-1 $70 forward single #
loop $-1 -1 $-1 $-1 $71 $32 #
cone-surface $-1 -1 $-1 0 0 0 0 -1 0 -20 0 0 1 I I 0 1 20 forward I I I I #
coedge $-1 -1 $-1 $72 $53 $73 $74 forward $33 $-1 #
coedge $-1 -1 $-1 $75 $75 $76 $77 reversed $35 $-1 #
coedge $-1 -1 $-1 $36 $36 $78 $79 reversed $26 $-1 #
coedge $-1 -1 $-1 $50 $80 $36 $54 forward $33 $-1 #
edge $81 -1 $-1 $82 0 $83 3.1415926535897931 $36 $84 forward @7 unknown #
face $-1 -1 $-1 $-1 $85 $20 $-1 $86 forward single #
loop $-1 -1 $-1 $-1 $87 $37 #
plane-surface $-1 -1 $-1 0 -5 0 0 1 0 0 0 1 forward_v I I I I #
loop $-1 -1 $-1 $-1 $88 $28 #
coedge $-1 -1 $-1 $59 $59 $87 $89 forward $38 $-1 #
face $90 -1 $-1 $91 $92 $21 $-1 $93 reversed single #
loop $-1 -1 $-1 $-1 $94 $40 #
plane-surface $-1 -1 $-1 0 0 -20 0 0 1 1 0 0 forward_v I I I I #
coedge $-1 -1 $-1 $95 $96 $97 $98 forward $41 $-1 #
face $-1 -1 $-1 $99 $100 $23 $-1 $45 reversed single #
loop $-1 -1 $-1 $-1 $101 $43 #
coedge $-1 -1 $-1 $102 $103 $104 $105 reversed $44 $-1 #
model_id-kcp-attrib $-1 -1 $-1 $-1 $47 1 1021578765 1021578765 577241089 5 #
face $106 -1 $-1 $107 $108 $8 $-1 $109 reversed single #
loop $-1 -1 $-1 $110 $111 $47 #
plane-surface $-1 -1 $-1 0 -5 0 0 -1 0 -10 0 0 forward_v I I I I #
coedge $-1 -1 $-1 $112 $78 $80 $113 forward $48 $-1 #
coedge $-1 -1 $-1 $80 $50 $111 $114 reversed $33 $-1 #
coedge $-1 -1 $-1 $78 $112 $50 $74 reversed $48 $-1 #
edge $-1 -1 $-1 $83 0 $115 0.5 $73 $116 forward @7 unknown #
coedge $-1 -1 $-1 $51 $51 $117 $118 reversed $35 $-1 #
coedge $-1 -1 $-1 $119 $120 $51 $77 forward $108 $-1 #
edge $121 -1 $-1 $122 0 $123 3.1415926535897931 $51 $124 forward @7 unknown #
coedge $-1 -1 $-1 $71 $73 $52 $79 forward $48 $-1 #
edge $125 -1 $-1 $83 0 $82 3.1415926535897931 $52 $126 forward @7 unknown #
coedge $-1 -1 $-1 $53 $72 $71 $113 reversed $33 $-1 #
attrib_edge_convexity-kcp-attrib $-1 -1 $127 $-1 $54 1 #
vertex $-1 -1 $-1 $79 $128 #
vertex $-1 -1 $-1 $79 $129 #
ellipse-curve $-1 -1 $-1 0 0 0 0 -1 0 20 0 0 1 I I #
loop $-1 -1 $-1 $-1 $130 $55 #
plane-surface $-1 -1 $-1 0 0 0 0 1 0 0 0 1 forward_v I I I I #
coedge $-1 -1 $-1 $87 $87 $59 $89 reversed $56 $-1 #
coedge $-1 -1 $-1 $88 $88 $130 $131 reversed $58 $-1 #
edge $-1 -1 $-1 $132 -3.1415926535897931 $132 3.1415926535897931 $59 $133 forward @7 unknown #
model_id-kcp-attrib $-1 -1 $-1 $-1 $60 1 1021578765 1021578765 577241090 3 #
face $-1 -1 $-1 $134 $135 $21 $-1 $136 reversed single #
loop $-1 -1 $-1 $-1 $137 $60 #
plane-surface $-1 -1 $-1 0 -2.5 0 0 1 0 0 0 1 forward_v I I I I #
coedge $-1 -1 $-1 $138 $139 $140 $141 forward $61 $-1 #
coedge $-1 -1 $-1 $142 $63 $143 $144 forward $41 $-1 #
coedge $-1 -1 $-1 $63 $142 $145 $146 forward $41 $-1 #
coedge $-1 -1 $-1 $147 $148 $63 $98 reversed $149 $-1 #
edge $-1 -1 $-1 $150 -2.5 $151 2.5 $97 $152 forward @7 unknown #
face $-1 -1 $-1 $153 $154 $23 $-1 $45 reversed single #
loop $-1 -1 $-1 $-1 $155 $64 #
coedge $-1 -1 $-1 $156 $157 $158 $159 reversed $65 $-1 #
coedge $-1 -1 $-1 $160 $66 $161 $162 forward $44 $-1 #
coedge $-1 -1 $-1 $66 $160 $163 $164 reversed $44 $-1 #
coedge $-1 -1 $-1 $165 $166 $66 $105 forward $167 $-1 #
edge $-1 -1 $-1 $168 0 $169 1.5707963267948966 $104 $170 forward @7 unknown #
model_id-kcp-attrib $-1 -1 $-1 $-1 $68 1 1021578765 1021578765 577241089 6 #
face $171 -1 $-1 $-1 $172 $8 $-1 $173 reversed single #
loop $-1 -1 $-1 $-1 $119 $68 #
cone-surface $-1 -1 $-1 0 0 0 0 -1 0 -10 0 0 1 I I 0 1 10 forward I I I I #
loop $-1 -1 $-1 $-1 $174 $47 #
coedge $-1 -1 $-1 $175 $175 $72 $114 forward $69 $-1 #
coedge $-1 -1 $-1 $73 $71 $175 $176 reversed $48 $-1 #
edge $-1 -1 $-1 $82 0 $177 0.5 $71 $178 forward @7 unknown #
edge $-1 -1 $-1 $177 0 $115 3.1415926535897931 $111 $179 forward @7 unknown #
vertex $-1 -1 $-1 $176 $180 #
straight-curve $-1 -1 $-1 -20 0 0 0 -10 0 I I #
coedge $-1 -1 $-1 $181 $182 $75 $118 forward $172 $-1 #
edge $183 -1 $-1 $123 0 $122 3.1415926535897931 $75 $184 forward @7 unknown #
coedge $-1 -1 $-1 $185 $76 $182 $186 forward $108 $-1 #
coedge $-1 -1 $-1 $76 $185 $181 $187 reversed $108 $-1 #
attrib_edge_convexity-kcp-attrib $-1 -1 $188 $-1 $77 1 #
vertex $-1 -1 $-1 $118 $189 #
vertex $-1 -1 $-1 $118 $190 #
ellipse-curve $-1 -1 $-1 0 0 0 0 1 0 10 0 0 1 I I #
attrib_edge_convexity-kcp-attrib $-1 -1 $191 $-1 $79 1 #
ellipse-curve $-1 -1 $-1 0 0 0 0 -1 0 -20 0 0 1 I I #
convexity-sys-attrib $-1 -1 $-1 $81 $54 #
point $-1 -1 $-1 20 0 0 #
point $-1 -1 $-1 -20 0 0 #
coedge $-1 -1 $-1 $130 $130 $88 $131 forward $85 $-1 #
edge $-1 -1 $-1 $192 -3.1415926535897931 $192 3.1415926535897931 $88 $193 forward @7 unknown #
vertex $-1 -1 $-1 $89 $194 #
ellipse-curve $-1 -1 $-1 0 -5 0 0 1 0 -10 0 0 1 I I #
face $195 -1 $-1 $196 $197 $21 $-1 $198 reversed single #
loop $-1 -1 $-1 $-1 $199 $91 #
plane-surface $-1 -1 $-1 -20 0 0 1 0 0 0 0 -1 forward_v I I I I #
coedge $-1 -1 $-1 $200 $145 $201 $202 forward $92 $-1 #
coedge $-1 -1 $-1 $203 $94 $200 $204 forward $61 $-1 #
coedge $-1 -1 $-1 $94 $203 $205 $206 forward $61 $-1 #
coedge $-1 -1 $-1 $148 $147 $94 $141 reversed $149 $-1 #
edge $-1 -1 $-1 $207 -2.5 $208 2.5 $140 $209 forward @7 unknown #
coedge $-1 -1 $-1 $96 $95 $210 $211 forward $41 $-1 #
coedge $-1 -1 $-1 $212 $213 $95 $144 reversed $197 $-1 #
edge $-1 -1 $-1 $151 -20 $214 20 $143 $215 forward @7 unknown #
coedge $-1 -1 $-1 $137 $216 $96 $146 reversed $92 $-1 #
edge $-1 -1 $-1 $217 -20 $150 20 $145 $218 forward @7 unknown #
coedge $-1 -1 $-1 $140 $97 $216 $219 forward $149 $-1 #
coedge $-1 -1 $-1 $97 $140 $212 $220 reversed $149 $-1 #
loop $-1 -1 $-1 $-1 $147 $196 #
vertex $-1 -1 $-1 $98 $221 #
vertex $-1 -1 $-1 $98 $222 #
straight-curve $-1 -1 $-1 20 0 20 0 1 0 I I #
face $-1 -1 $-1 $223 $224 $23 $-1 $225 forward single #
loop $-1 -1 $-1 $-1 $226 $99 #
coedge $-1 -1 $-1 $227 $228 $226 $229 forward $100 $-1 #
coedge $-1 -1 $-1 $230 $101 $231 $232 reversed $65 $-1 #
coedge $-1 -1 $-1 $101 $230 $103 $164 forward $65 $-1 #
coedge $-1 -1 $-1 $233 $234 $101 $159 forward $235 $-1 #
edge $-1 -1 $-1 $236 -3.1415926535897931 $237 -1.5707963267948966 $158 $238 forward @7 unknown #
coedge $-1 -1 $-1 $103 $102 $239 $240 reversed $44 $-1 #
coedge $-1 -1 $-1 $228 $227 $241 $162 reversed $100 $-1 #
edge $-1 -1 $-1 $168 -5 $242 0 $241 $243 forward @7 unknown #
coedge $-1 -1 $-1 $244 $245 $246 $164 forward $247 $-1 #
edge $-1 -1 $-1 $169 -5 $237 0 $163 $248 forward @7 unknown #
coedge $-1 -1 $-1 $166 $104 $245 $249 reversed $167 $-1 #
coedge $-1 -1 $-1 $104 $165 $250 $251 forward $167 $-1 #
loop $-1 -1 $-1 $-1 $104 $252 #
vertex $-1 -1 $-1 $253 $254 #
vertex $-1 -1 $-1 $255 $256 #
ellipse-curve $-1 -1 $-1 7.4983036091106872e-032 -2.5 0 0 1 0 -20 0 0 1 I I #
model_id-kcp-attrib $-1 -1 $-1 $-1 $107 1 1021578765 1021578765 577241089 7 #
loop $-1 -1 $-1 $-1 $181 $107 #
cone-surface $-1 -1 $-1 0 0 0 0 -1 0 -10 0 0 1 I I 0 1 10 forward I I I I #
coedge $-1 -1 $-1 $257 $257 $185 $258 forward $110 $-1 #
coedge $-1 -1 $-1 $111 $111 $112 $176 forward $69 $-1 #
edge $-1 -1 $-1 $115 0 $177 3.1415926535897931 $175 $259 forward @7 unknown #
vertex $-1 -1 $-1 $176 $260 #
straight-curve $-1 -1 $-1 20 0 -2.4492127076447545e-015 0 -10 0 I I #
ellipse-curve $-1 -1 $-1 0 -5 0 0 -1 0 20 0 0 1 I I #
point $-1 -1 $-1 -20 -5 0 #
coedge $-1 -1 $-1 $261 $117 $120 $187 forward $172 $-1 #
coedge $-1 -1 $-1 $117 $261 $119 $186 reversed $172 $-1 #
attrib_edge_convexity-kcp-attrib $-1 -1 $262 $-1 $118 1 #
ellipse-curve $-1 -1 $-1 0 0 0 0 1 0 -10 0 0 1 I I #
coedge $-1 -1 $-1 $120 $119 $174 $258 reversed $108 $-1 #
edge $-1 -1 $-1 $123 0 $263 0.5 $182 $264 forward @7 unknown #
edge $-1 -1 $-1 $122 0 $265 0.5 $181 $266 forward @7 unknown #
convexity-sys-attrib $-1 -1 $-1 $121 $77 #
point $-1 -1 $-1 10 0 0 #
point $-1 -1 $-1 -10 0 0 #
convexity-sys-attrib $-1 -1 $-1 $125 $79 #
vertex $-1 -1 $-1 $131 $267 #
ellipse-curve $-1 -1 $-1 0 0 0 0 1 0 10 0 0 1 I I #
point $-1 -1 $-1 10 -5 0 #
model_id-kcp-attrib $-1 -1 $-1 $-1 $134 1 1021578765 1021578765 577241090 2 #
face $-1 -1 $-1 $-1 $149 $21 $-1 $268 reversed single #
loop $-1 -1 $-1 $-1 $212 $134 #
plane-surface $-1 -1 $-1 0 2.5 0 0 -1 0 0 0 -1 forward_v I I I I #
coedge $-1 -1 $-1 $269 $210 $213 $270 forward $135 $-1 #
coedge $-1 -1 $-1 $216 $137 $138 $204 reversed $92 $-1 #
coedge $-1 -1 $-1 $210 $269 $137 $202 reversed $135 $-1 #
edge $-1 -1 $-1 $217 -20 $271 20 $201 $272 forward @7 unknown #
coedge $-1 -1 $-1 $139 $138 $269 $273 forward $61 $-1 #
edge $-1 -1 $-1 $208 -20 $271 20 $200 $274 forward @7 unknown #
coedge $-1 -1 $-1 $213 $212 $139 $206 reversed $197 $-1 #
edge $-1 -1 $-1 $275 -20 $207 20 $205 $276 forward @7 unknown #
vertex $-1 -1 $-1 $141 $277 #
vertex $-1 -1 $-1 $219 $278 #
straight-curve $-1 -1 $-1 20 0 -20 0 -1 0 I I #
coedge $-1 -1 $-1 $199 $201 $142 $211 reversed $135 $-1 #
edge $-1 -1 $-1 $214 -2.5 $217 2.5 $210 $279 forward @7 unknown #
coedge $-1 -1 $-1 $205 $143 $148 $220 forward $197 $-1 #
coedge $-1 -1 $-1 $143 $205 $199 $270 reversed $197 $-1 #
vertex $-1 -1 $-1 $144 $280 #
straight-curve $-1 -1 $-1 0 2.5 20 -1 0 0 I I #
coedge $-1 -1 $-1 $145 $200 $147 $219 reversed $92 $-1 #
vertex $-1 -1 $-1 $211 $281 #
straight-curve $-1 -1 $-1 0 -2.5 20 1 0 0 I I #
edge $-1 -1 $-1 $150 -20 $208 20 $147 $282 forward @7 unknown #
edge $-1 -1 $-1 $151 -20 $207 20 $148 $283 forward @7 unknown #
point $-1 -1 $-1 20 -2.5 20 #
point $-1 -1 $-1 20 2.5 20 #
face $-1 -1 $-1 $284 $285 $23 $-1 $286 reversed single #
loop $-1 -1 $-1 $-1 $246 $153 #
plane-surface $-1 -1 $-1 0 0 20 0 0 1 1 0 0 forward_v I I I I #
coedge $-1 -1 $-1 $287 $288 $289 $229 reversed $154 $-1 #
coedge $-1 -1 $-1 $161 $155 $290 $291 reversed $100 $-1 #
coedge $-1 -1 $-1 $155 $161 $292 $293 reversed $100 $-1 #
edge $-1 -1 $-1 $294 -5 $295 0 $289 $296 forward @7 unknown #
coedge $-1 -1 $-1 $157 $156 $297 $298 reversed $65 $-1 #
coedge $-1 -1 $-1 $299 $300 $301 $232 forward $302 $-1 #
edge $-1 -1 $-1 $303 -5 $236 0 $231 $304 forward @7 unknown #
coedge $-1 -1 $-1 $234 $158 $305 $306 reversed $235 $-1 #
coedge $-1 -1 $-1 $158 $233 $299 $307 forward $235 $-1 #
loop $-1 -1 $-1 $-1 $158 $308 #
vertex $-1 -1 $-1 $309 $310 #
vertex $-1 -1 $-1 $311 $312 #
ellipse-curve $-1 -1 $-1 7.4983036091106872e-032 2.5 0 0 -1 0 -20 0 0 1 I I #
coedge $-1 -1 $-1 $313 $314 $160 $240 forward $315 $-1 #
edge $-1 -1 $-1 $237 -1.5707963267948966 $242 0 $239 $238 forward @7 unknown #
coedge $-1 -1 $-1 $316 $317 $318 $162 forward $285 $-1 #
vertex $-1 -1 $-1 $319 $320 #
straight-curve $-1 -1 $-1 -20 2.5 0 0 1 0 I I #
coedge $-1 -1 $-1 $321 $163 $314 $311 forward $247 $-1 #
coedge $-1 -1 $-1 $163 $321 $165 $249 forward $247 $-1 #
coedge $-1 -1 $-1 $322 $305 $157 $164 reversed $224 $-1 #
loop $-1 -1 $-1 $-1 $163 $323 #
straight-curve $-1 -1 $-1 7.4983036091106872e-032 2.5 20 0 1 0 I I #
edge $-1 -1 $-1 $324 -20 $169 7.4983036091106872e-032 $165 $325 forward @7 unknown #
coedge $-1 -1 $-1 $326 $318 $166 $251 reversed $327 $-1 #
edge $-1 -1 $-1 $324 -20 $168 0 $250 $328 forward @7 unknown #
face $-1 -1 $-1 $329 $167 $23 $-1 $330 reversed single #
edge $-1 -1 $-1 $168 0 $331 20 $317 $328 forward @7 unknown #
point $-1 -1 $-1 -20 -2.5 0 #
edge $-1 -1 $-1 $169 7.4983036091106872e-032 $332 20 $333 $325 forward @7 unknown #
point $-1 -1 $-1 7.4983036091106872e-032 -2.5 20 #
coedge $-1 -1 $-1 $174 $174 $261 $334 forward $110 $-1 #
edge $-1 -1 $-1 $265 0 $263 3.1415926535897931 $174 $335 forward @7 unknown #
ellipse-curve $-1 -1 $-1 0 -5 0 0 -1 0 -20 0 0 1 I I #
point $-1 -1 $-1 20 -5 0 #
coedge $-1 -1 $-1 $182 $181 $257 $334 reversed $172 $-1 #
convexity-sys-attrib $-1 -1 $-1 $183 $118 #
vertex $-1 -1 $-1 $334 $336 #
straight-curve $-1 -1 $-1 -10 0 0 0 -10 4.898425415289509e-015 I I #
vertex $-1 -1 $-1 $334 $337 #
straight-curve $-1 -1 $-1 10 0 -1.2246063538223773e-015 0 -10 0 I I #
point $-1 -1 $-1 -10 0 0 #
plane-surface $-1 -1 $-1 20 0 0 -1 0 0 0 0 1 forward_v I I I I #
coedge $-1 -1 $-1 $201 $199 $203 $273 reversed $135 $-1 #
edge $-1 -1 $-1 $214 -20 $275 20 $213 $338 forward @7 unknown #
vertex $-1 -1 $-1 $273 $339 #
straight-curve $-1 -1 $-1 -20 -2.5 0 0 0 -1 I I #
edge $-1 -1 $-1 $271 -2.5 $275 2.5 $269 $340 forward @7 unknown #
straight-curve $-1 -1 $-1 0 -2.5 -20 -1 0 0 I I #
vertex $-1 -1 $-1 $206 $341 #
straight-curve $-1 -1 $-1 0 2.5 -20 1 0 0 I I #
point $-1 -1 $-1 20 2.5 -20 #
point $-1 -1 $-1 20 -2.5 -20 #
straight-curve $-1 -1 $-1 -20 0 20 0 -1 0 I I #
point $-1 -1 $-1 -20 2.5 20 #
point $-1 -1 $-1 -20 -2.5 20 #
straight-curve $-1 -1 $-1 20 -2.5 0 0 0 -1 I I #
straight-curve $-1 -1 $-1 20 2.5 0 0 0 -1 I I #
face $-1 -1 $-1 $342 $343 $23 $-1 $344 reversed single #
loop $-1 -1 $-1 $-1 $241 $223 #
plane-surface $-1 -1 $-1 -20 0 0 1 0 0 0 0 -1 forward_v I I I I #
coedge $-1 -1 $-1 $345 $226 $346 $347 reversed $154 $-1 #
coedge $-1 -1 $-1 $226 $345 $348 $349 reversed $154 $-1 #
coedge $-1 -1 $-1 $350 $351 $352 $229 forward $353 $-1 #
coedge $-1 -1 $-1 $354 $355 $227 $291 forward $356 $-1 #
edge $-1 -1 $-1 $242 0 $295 1.5707963267948966 $290 $238 forward @7 unknown #
coedge $-1 -1 $-1 $357 $358 $228 $293 forward $359 $-1 #
edge $-1 -1 $-1 $294 -1.5707963267948966 $168 0 $292 $170 forward @7 unknown #
vertex $-1 -1 $-1 $360 $361 #
vertex $-1 -1 $-1 $362 $363 #
straight-curve $-1 -1 $-1 7.4983036091106872e-032 2.5 -20 0 1 0 I I #
coedge $-1 -1 $-1 $364 $333 $230 $298 forward $365 $-1 #
edge $-1 -1 $-1 $169 1.5707963267948966 $303 3.1415926535897931 $297 $170 forward @7 unknown #
coedge $-1 -1 $-1 $366 $231 $234 $307 reversed $302 $-1 #
coedge $-1 -1 $-1 $231 $366 $364 $367 forward $302 $-1 #
coedge $-1 -1 $-1 $368 $369 $345 $232 reversed $343 $-1 #
loop $-1 -1 $-1 $-1 $231 $370 #
vertex $-1 -1 $-1 $371 $372 #
straight-curve $-1 -1 $-1 20 2.5 0 0 1 0 I I #
coedge $-1 -1 $-1 $246 $373 $233 $306 forward $224 $-1 #
edge $-1 -1 $-1 $374 -20 $237 -7.4983036091106872e-032 $233 $375 forward @7 unknown #
edge $-1 -1 $-1 $374 -20 $236 0 $299 $376 forward @7 unknown #
face $-1 -1 $-1 $377 $235 $23 $-1 $378 reversed single #
edge $-1 -1 $-1 $236 0 $379 20 $369 $376 forward @7 unknown #
point $-1 -1 $-1 20 2.5 0 #
edge $-1 -1 $-1 $237 -7.4983036091106872e-032 $380 20 $314 $375 forward @7 unknown #
point $-1 -1 $-1 7.4983036091106872e-032 2.5 20 #
coedge $-1 -1 $-1 $314 $239 $381 $382 reversed $315 $-1 #
coedge $-1 -1 $-1 $239 $313 $244 $311 reversed $315 $-1 #
loop $-1 -1 $-1 $-1 $239 $377 #
coedge $-1 -1 $-1 $383 $241 $355 $319 forward $285 $-1 #
coedge $-1 -1 $-1 $241 $383 $357 $253 reversed $285 $-1 #
coedge $-1 -1 $-1 $250 $381 $102 $162 reversed $327 $-1 #
edge $-1 -1 $-1 $242 0 $384 20 $355 $385 forward @7 unknown #
point $-1 -1 $-1 -20 2.5 0 #
coedge $-1 -1 $-1 $245 $244 $326 $386 forward $247 $-1 #
coedge $-1 -1 $-1 $373 $246 $333 $255 forward $224 $-1 #
face $-1 -1 $-1 $387 $247 $23 $-1 $225 forward single #
vertex $-1 -1 $-1 $386 $388 #
straight-curve $-1 -1 $-1 0 -2.5 20 1 0 0 I I #
coedge $-1 -1 $-1 $381 $250 $321 $386 reversed $327 $-1 #
loop $-1 -1 $-1 $-1 $318 $389 #
straight-curve $-1 -1 $-1 -20 -2.5 0 0 0 -1 I I #
face $-1 -1 $-1 $390 $365 $23 $-1 $330 reversed single #
plane-surface $-1 -1 $-1 0 -2.5 0 0 1 0 0 0 1 forward_v I I I I #
vertex $-1 -1 $-1 $391 $392 #
vertex $-1 -1 $-1 $393 $394 #
coedge $-1 -1 $-1 $297 $364 $322 $255 reversed $365 $-1 #
edge $-1 -1 $-1 $263 0 $265 3.1415926535897931 $257 $395 forward @7 unknown #
ellipse-curve $-1 -1 $-1 -2.7755575615628914e-016 -5 5.5511151231257827e-016 0 1 0 10 0 -5.5511151231257827e-016 1 I I #
point $-1 -1 $-1 -10 -5 0 #
point $-1 -1 $-1 10 -5 0 #
straight-curve $-1 -1 $-1 -20 2.5 0 0 0 -1 I I #
point $-1 -1 $-1 -20 -2.5 -20 #
straight-curve $-1 -1 $-1 -20 0 -20 0 1 0 I I #
point $-1 -1 $-1 -20 2.5 -20 #
face $-1 -1 $-1 $308 $396 $23 $-1 $378 reversed single #
loop $-1 -1 $-1 $-1 $301 $284 #
plane-surface $-1 -1 $-1 20 0 0 -1 0 0 0 0 1 forward_v I I I I #
coedge $-1 -1 $-1 $288 $287 $156 $232 forward $154 $-1 #
coedge $-1 -1 $-1 $397 $398 $287 $347 forward $399 $-1 #
edge $-1 -1 $-1 $303 -3.1415926535897931 $294 -1.5707963267948966 $346 $170 forward @7 unknown #
coedge $-1 -1 $-1 $400 $401 $288 $349 forward $396 $-1 #
edge $-1 -1 $-1 $295 1.5707963267948966 $236 3.1415926535897931 $348 $238 forward @7 unknown #
coedge $-1 -1 $-1 $402 $289 $401 $362 forward $353 $-1 #
coedge $-1 -1 $-1 $289 $402 $397 $403 forward $353 $-1 #
coedge $-1 -1 $-1 $404 $405 $155 $229 reversed $406 $-1 #
loop $-1 -1 $-1 $-1 $289 $387 #
coedge $-1 -1 $-1 $355 $290 $405 $407 reversed $356 $-1 #
coedge $-1 -1 $-1 $290 $354 $316 $319 reversed $356 $-1 #
loop $-1 -1 $-1 $-1 $290 $408 #
coedge $-1 -1 $-1 $358 $292 $317 $253 forward $359 $-1 #
coedge $-1 -1 $-1 $292 $357 $404 $360 reversed $359 $-1 #
loop $-1 -1 $-1 $-1 $292 $409 #
edge $-1 -1 $-1 $294 -7.4983036091106872e-032 $331 20 $358 $410 forward @7 unknown #
point $-1 -1 $-1 7.4983036091106872e-032 -2.5 -20 #
edge $-1 -1 $-1 $295 7.4983036091106872e-032 $379 20 $401 $411 forward @7 unknown #
point $-1 -1 $-1 7.4983036091106872e-032 2.5 -20 #
coedge $-1 -1 $-1 $333 $297 $300 $367 reversed $365 $-1 #
loop $-1 -1 $-1 $-1 $297 $329 #
coedge $-1 -1 $-1 $300 $299 $373 $393 reversed $302 $-1 #
edge $-1 -1 $-1 $332 -20 $303 0 $300 $412 forward @7 unknown #
coedge $-1 -1 $-1 $413 $301 $398 $371 forward $343 $-1 #
coedge $-1 -1 $-1 $301 $413 $400 $309 reversed $343 $-1 #
face $-1 -1 $-1 $-1 $302 $23 $-1 $344 reversed single #
edge $-1 -1 $-1 $303 0 $414 20 $368 $412 forward @7 unknown #
point $-1 -1 $-1 20 -2.5 0 #
coedge $-1 -1 $-1 $305 $322 $366 $393 forward $224 $-1 #
vertex $-1 -1 $-1 $393 $415 #
straight-curve $-1 -1 $-1 0 2.5 20 -1 0 0 I I #
straight-curve $-1 -1 $-1 20 2.5 0 0 0 -1 I I #
face $-1 -1 $-1 $408 $315 $23 $-1 $378 reversed single #
plane-surface $-1 -1 $-1 0 2.5 0 0 -1 0 0 0 -1 forward_v I I I I #
vertex $-1 -1 $-1 $416 $417 #
vertex $-1 -1 $-1 $311 $418 #
coedge $-1 -1 $-1 $318 $326 $313 $382 forward $327 $-1 #
edge $-1 -1 $-1 $380 -20 $242 0 $313 $385 forward @7 unknown #
coedge $-1 -1 $-1 $317 $316 $419 $391 reversed $285 $-1 #
vertex $-1 -1 $-1 $407 $420 #
straight-curve $-1 -1 $-1 -20 2.5 0 0 0 -1 I I #
edge $-1 -1 $-1 $380 -2.5 $324 2.5 $326 $421 forward @7 unknown #
face $-1 -1 $-1 $389 $353 $23 $-1 $422 reversed single #
point $-1 -1 $-1 -20 -2.5 20 #
face $-1 -1 $-1 $370 $327 $23 $-1 $286 reversed single #
face $-1 -1 $-1 $423 $399 $23 $-1 $330 reversed single #
edge $-1 -1 $-1 $331 -2.5 $384 2.5 $383 $424 forward @7 unknown #
point $-1 -1 $-1 -20 -2.5 -20 #
edge $-1 -1 $-1 $332 -2.5 $374 2.5 $366 $425 forward @7 unknown #
point $-1 -1 $-1 20 -2.5 20 #
ellipse-curve $-1 -1 $-1 0 -5 2.7755575615628914e-016 0 1 0 -10 0 -2.7755575615628914e-016 1 I I #
loop $-1 -1 $-1 $-1 $348 $342 #
coedge $-1 -1 $-1 $398 $346 $351 $403 reversed $399 $-1 #
coedge $-1 -1 $-1 $346 $397 $368 $371 reversed $399 $-1 #
loop $-1 -1 $-1 $-1 $346 $390 #
coedge $-1 -1 $-1 $401 $348 $369 $309 forward $396 $-1 #
coedge $-1 -1 $-1 $348 $400 $350 $362 reversed $396 $-1 #
coedge $-1 -1 $-1 $351 $350 $413 $416 forward $353 $-1 #
edge $-1 -1 $-1 $414 -20 $294 -7.4983036091106872e-032 $397 $410 forward @7 unknown #
coedge $-1 -1 $-1 $419 $352 $358 $360 forward $406 $-1 #
coedge $-1 -1 $-1 $352 $419 $354 $407 forward $406 $-1 #
loop $-1 -1 $-1 $-1 $352 $423 #
edge $-1 -1 $-1 $384 -20 $295 7.4983036091106872e-032 $354 $411 forward @7 unknown #
face $-1 -1 $-1 $409 $356 $23 $-1 $378 reversed single #
face $-1 -1 $-1 $252 $359 $23 $-1 $330 reversed single #
straight-curve $-1 -1 $-1 0 -2.5 -20 -1 0 0 I I #
straight-curve $-1 -1 $-1 0 2.5 -20 1 0 0 I I #
straight-curve $-1 -1 $-1 20 -2.5 0 0 0 -1 I I #
coedge $-1 -1 $-1 $369 $368 $402 $416 reversed $343 $-1 #
vertex $-1 -1 $-1 $371 $426 #
point $-1 -1 $-1 20 2.5 20 #
edge $-1 -1 $-1 $379 -2.5 $414 2.5 $413 $427 forward @7 unknown #
point $-1 -1 $-1 20 2.5 -20 #
point $-1 -1 $-1 -20 2.5 20 #
coedge $-1 -1 $-1 $405 $404 $383 $391 forward $406 $-1 #
point $-1 -1 $-1 -20 2.5 -20 #
straight-curve $-1 -1 $-1 -20 0 20 0 -1 0 I I #
plane-surface $-1 -1 $-1 0 0 -20 0 0 1 1 0 0 forward_v I I I I #
face $-1 -1 $-1 $323 $406 $23 $-1 $422 reversed single #
straight-curve $-1 -1 $-1 -20 0 -20 0 1 0 I I #
straight-curve $-1 -1 $-1 20 0 20 0 1 0 I I #
point $-1 -1 $-1 20 -2.5 -20 #
straight-curve $-1 -1 $-1 20 0 -20 0 -1 0 I I #
End-of-ACIS-data 