700 0 2 0           
24 FBMach with ACIS - 7.0.3 13 ACIS 7.0.3 NT 24 Thu May 16 15:56:59 2002 
1 9.9999999999999995e-007 1e-010 
body $2 -1 $-1 $3 $-1 $4 #
bdycol-kcp $-1 -1 1 3 $5 $6 $7 #
model_id-kcp-attrib $-1 -1 $-1 $-1 $0 1 1021579018 1021579018 -1493106687 1 #
lump $-1 -1 $-1 $-1 $8 $0 #
transform $-1 -1 1 0 0 0 1 0 0 0 1 0 0 0 1 rotate no_reflect no_shear #
body $9 -1 $-1 $10 $-1 $11 #
body $12 -1 $-1 $13 $-1 $14 #
body $15 -1 $-1 $16 $-1 $17 #
shell $-1 -1 $-1 $-1 $-1 $18 $-1 $3 #
model_id-kcp-attrib $-1 -1 $-1 $-1 $5 1 1021579018 1021579018 -1493106686 1 #
lump $-1 -1 $-1 $-1 $19 $5 #
transform $-1 -1 1 0 0 0 1 0 0 0 1 0 -2.5 0 1 no_rotate no_reflect no_shear #
rgb_color-st-attrib $-1 -1 $20 $-1 $6 0.5 1 1 #
lump $-1 -1 $-1 $-1 $21 $6 #
transform $-1 -1 1 0 0 0 1 0 0 0 1 0 -2.5 0 1 no_rotate no_reflect no_shear #
rgb_color-st-attrib $-1 -1 $22 $-1 $7 0.5 1 1 #
lump $-1 -1 $-1 $-1 $23 $7 #
transform $-1 -1 1 0 0 0 1 0 0 0 1 0 0 0 1 no_rotate no_reflect no_shear #
face $24 -1 $-1 $25 $26 $8 $-1 $27 reversed single #
shell $-1 -1 $-1 $-1 $-1 $28 $-1 $10 #
model_id-kcp-attrib $-1 -1 $-1 $12 $6 1 1021579018 1021579018 -1486553085 1 #
shell $-1 -1 $-1 $-1 $-1 $29 $-1 $13 #
model_id-kcp-attrib $-1 -1 $-1 $15 $7 1 1021579018 1021579018 -1481965564 1 #
shell $-1 -1 $-1 $-1 $-1 $30 $-1 $16 #
model_id-kcp-attrib $-1 -1 $-1 $-1 $18 1 1021579018 1021579018 -1493106687 2 #
face $31 -1 $-1 $32 $33 $8 $-1 $34 forward single #
loop $-1 -1 $-1 $35 $36 $18 #
plane-surface $-1 -1 $-1 0 0 0 0 -1 0 -10 0 0 forward_v I I I I #
face $-1 -1 $-1 $37 $38 $19 $-1 $39 forward single #
face $-1 -1 $-1 $40 $41 $21 $-1 $42 reversed single #
face $-1 -1 $-1 $43 $44 $23 $-1 $45 forward single #
model_id-kcp-attrib $-1 -1 $-1 $-1 $25 1 1021579018 1021579018 -1493106687 3 #
face $46 -1 $-1 $47 $48 $8 $-1 $49 forward single #
loop $-1 -1 $-1 $-1 $50 $25 #
cone-surface $-1 -1 $-1 0 0 0 0 -1 0 -20 0 0 1 I I 0 1 20 forward I I I I #
loop $-1 -1 $-1 $-1 $51 $18 #
coedge $-1 -1 $-1 $52 $52 $53 $54 reversed $26 $-1 #
face $-1 -1 $-1 $55 $56 $19 $-1 $57 reversed single #
loop $-1 -1 $-1 $-1 $58 $28 #
plane-surface $-1 -1 $-1 0 0 20 0 0 1 1 0 0 forward_v I I I I #
face $-1 -1 $-1 $59 $60 $21 $-1 $42 reversed single #
loop $-1 -1 $-1 $-1 $61 $29 #
cone-surface $-1 -1 $-1 7.4983036091106872e-032 2.5 0 0 1 0 -20 0 0 1 I I 0 1 20 forward I I I I #
face $-1 -1 $-1 $62 $63 $23 $-1 $64 reversed single #
loop $-1 -1 $-1 $65 $66 $30 #
cone-surface $-1 -1 $-1 0 0 0 0 -1 0 10 0 0 1 I I 0 1 10 forward I I I I #
model_id-kcp-attrib $-1 -1 $-1 $-1 $32 1 1021579018 1021579018 -1493106687 4 #
face $67 -1 $-1 $68 $69 $8 $-1 $70 forward single #
loop $-1 -1 $-1 $-1 $71 $32 #
cone-surface $-1 -1 $-1 0 0 0 0 -1 0 -20 0 0 1 I I 0 1 20 forward I I I I #
coedge $-1 -1 $-1 $72 $53 $73 $74 forward $33 $-1 #
coedge $-1 -1 $-1 $75 $75 $76 $77 reversed $35 $-1 #
coedge $-1 -1 $-1 $36 $36 $78 $79 reversed $26 $-1 #
coedge $-1 -1 $-1 $50 $80 $36 $54 forward $33 $-1 #
edge $81 -1 $-1 $82 0 $83 3.1415926535897931 $36 $84 forward @7 unknown #
face $85 -1 $-1 $86 $87 $19 $-1 $88 reversed single #
loop $-1 -1 $-1 $-1 $89 $37 #
plane-surface $-1 -1 $-1 0 0 -20 0 0 1 1 0 0 forward_v I I I I #
coedge $-1 -1 $-1 $90 $91 $92 $93 forward $38 $-1 #
face $-1 -1 $-1 $94 $95 $21 $-1 $42 reversed single #
loop $-1 -1 $-1 $-1 $96 $40 #
coedge $-1 -1 $-1 $97 $98 $99 $100 reversed $41 $-1 #
face $-1 -1 $-1 $-1 $101 $23 $-1 $102 forward single #
loop $-1 -1 $-1 $-1 $103 $43 #
plane-surface $-1 -1 $-1 0 -5 0 0 1 0 0 0 1 forward_v I I I I #
loop $-1 -1 $-1 $-1 $104 $30 #
coedge $-1 -1 $-1 $66 $66 $103 $105 forward $44 $-1 #
model_id-kcp-attrib $-1 -1 $-1 $-1 $47 1 1021579018 1021579018 -1493106687 5 #
face $106 -1 $-1 $107 $108 $8 $-1 $109 reversed single #
loop $-1 -1 $-1 $110 $111 $47 #
plane-surface $-1 -1 $-1 0 -5 0 0 -1 0 -10 0 0 forward_v I I I I #
coedge $-1 -1 $-1 $112 $78 $80 $113 forward $48 $-1 #
coedge $-1 -1 $-1 $80 $50 $111 $114 reversed $33 $-1 #
coedge $-1 -1 $-1 $78 $112 $50 $74 reversed $48 $-1 #
edge $-1 -1 $-1 $83 0 $115 0.5 $73 $116 forward @7 unknown #
coedge $-1 -1 $-1 $51 $51 $117 $118 reversed $35 $-1 #
coedge $-1 -1 $-1 $119 $120 $51 $77 forward $108 $-1 #
edge $121 -1 $-1 $122 0 $123 3.1415926535897931 $51 $124 forward @7 unknown #
coedge $-1 -1 $-1 $71 $73 $52 $79 forward $48 $-1 #
edge $125 -1 $-1 $83 0 $82 3.1415926535897931 $52 $126 forward @7 unknown #
coedge $-1 -1 $-1 $53 $72 $71 $113 reversed $33 $-1 #
attrib_edge_convexity-kcp-attrib $-1 -1 $127 $-1 $54 1 #
vertex $-1 -1 $-1 $79 $128 #
vertex $-1 -1 $-1 $79 $129 #
ellipse-curve $-1 -1 $-1 0 0 0 0 -1 0 20 0 0 1 I I #
model_id-kcp-attrib $-1 -1 $-1 $-1 $55 1 1021579018 1021579018 -1493106686 3 #
face $-1 -1 $-1 $130 $131 $19 $-1 $132 reversed single #
loop $-1 -1 $-1 $-1 $133 $55 #
plane-surface $-1 -1 $-1 0 -2.5 0 0 1 0 0 0 1 forward_v I I I I #
coedge $-1 -1 $-1 $134 $135 $136 $137 forward $56 $-1 #
coedge $-1 -1 $-1 $138 $58 $139 $140 forward $38 $-1 #
coedge $-1 -1 $-1 $58 $138 $141 $142 forward $38 $-1 #
coedge $-1 -1 $-1 $143 $144 $58 $93 reversed $145 $-1 #
edge $-1 -1 $-1 $146 -2.5 $147 2.5 $92 $148 forward @7 unknown #
face $-1 -1 $-1 $149 $150 $21 $-1 $42 reversed single #
loop $-1 -1 $-1 $-1 $151 $59 #
coedge $-1 -1 $-1 $152 $153 $154 $155 reversed $60 $-1 #
coedge $-1 -1 $-1 $156 $61 $157 $158 forward $41 $-1 #
coedge $-1 -1 $-1 $61 $156 $159 $160 reversed $41 $-1 #
coedge $-1 -1 $-1 $161 $162 $61 $100 forward $163 $-1 #
edge $-1 -1 $-1 $164 0 $165 1.5707963267948966 $99 $166 forward @7 unknown #
loop $-1 -1 $-1 $-1 $167 $62 #
plane-surface $-1 -1 $-1 0 0 0 0 1 0 0 0 1 forward_v I I I I #
coedge $-1 -1 $-1 $103 $103 $66 $105 reversed $63 $-1 #
coedge $-1 -1 $-1 $104 $104 $167 $168 reversed $65 $-1 #
edge $-1 -1 $-1 $169 -3.1415926535897931 $169 3.1415926535897931 $66 $170 forward @7 unknown #
model_id-kcp-attrib $-1 -1 $-1 $-1 $68 1 1021579018 1021579018 -1493106687 6 #
face $171 -1 $-1 $-1 $172 $8 $-1 $173 reversed single #
loop $-1 -1 $-1 $-1 $119 $68 #
cone-surface $-1 -1 $-1 0 0 0 0 -1 0 -10 0 0 1 I I 0 1 10 forward I I I I #
loop $-1 -1 $-1 $-1 $174 $47 #
coedge $-1 -1 $-1 $175 $175 $72 $114 forward $69 $-1 #
coedge $-1 -1 $-1 $73 $71 $175 $176 reversed $48 $-1 #
edge $-1 -1 $-1 $82 0 $177 0.5 $71 $178 forward @7 unknown #
edge $-1 -1 $-1 $177 0 $115 3.1415926535897931 $111 $179 forward @7 unknown #
vertex $-1 -1 $-1 $176 $180 #
straight-curve $-1 -1 $-1 -20 0 0 0 -10 0 I I #
coedge $-1 -1 $-1 $181 $182 $75 $118 forward $172 $-1 #
edge $183 -1 $-1 $123 0 $122 3.1415926535897931 $75 $184 forward @7 unknown #
coedge $-1 -1 $-1 $185 $76 $182 $186 forward $108 $-1 #
coedge $-1 -1 $-1 $76 $185 $181 $187 reversed $108 $-1 #
attrib_edge_convexity-kcp-attrib $-1 -1 $188 $-1 $77 1 #
vertex $-1 -1 $-1 $118 $189 #
vertex $-1 -1 $-1 $118 $190 #
ellipse-curve $-1 -1 $-1 0 0 0 0 1 0 10 0 0 1 I I #
attrib_edge_convexity-kcp-attrib $-1 -1 $191 $-1 $79 1 #
ellipse-curve $-1 -1 $-1 0 0 0 0 -1 0 -20 0 0 1 I I #
convexity-sys-attrib $-1 -1 $-1 $81 $54 #
point $-1 -1 $-1 20 0 0 #
point $-1 -1 $-1 -20 0 0 #
face $192 -1 $-1 $193 $194 $19 $-1 $195 reversed single #
loop $-1 -1 $-1 $-1 $196 $86 #
plane-surface $-1 -1 $-1 -20 0 0 1 0 0 0 0 -1 forward_v I I I I #
coedge $-1 -1 $-1 $197 $141 $198 $199 forward $87 $-1 #
coedge $-1 -1 $-1 $200 $89 $197 $201 forward $56 $-1 #
coedge $-1 -1 $-1 $89 $200 $202 $203 forward $56 $-1 #
coedge $-1 -1 $-1 $144 $143 $89 $137 reversed $145 $-1 #
edge $-1 -1 $-1 $204 -2.5 $205 2.5 $136 $206 forward @7 unknown #
coedge $-1 -1 $-1 $91 $90 $207 $208 forward $38 $-1 #
coedge $-1 -1 $-1 $209 $210 $90 $140 reversed $194 $-1 #
edge $-1 -1 $-1 $147 -20 $211 20 $139 $212 forward @7 unknown #
coedge $-1 -1 $-1 $133 $213 $91 $142 reversed $87 $-1 #
edge $-1 -1 $-1 $214 -20 $146 20 $141 $215 forward @7 unknown #
coedge $-1 -1 $-1 $136 $92 $213 $216 forward $145 $-1 #
coedge $-1 -1 $-1 $92 $136 $209 $217 reversed $145 $-1 #
loop $-1 -1 $-1 $-1 $143 $193 #
vertex $-1 -1 $-1 $93 $218 #
vertex $-1 -1 $-1 $93 $219 #
straight-curve $-1 -1 $-1 20 0 20 0 1 0 I I #
face $-1 -1 $-1 $220 $221 $21 $-1 $222 forward single #
loop $-1 -1 $-1 $-1 $223 $94 #
coedge $-1 -1 $-1 $224 $225 $223 $226 forward $95 $-1 #
coedge $-1 -1 $-1 $227 $96 $228 $229 reversed $60 $-1 #
coedge $-1 -1 $-1 $96 $227 $98 $160 forward $60 $-1 #
coedge $-1 -1 $-1 $230 $231 $96 $155 forward $232 $-1 #
edge $-1 -1 $-1 $233 -3.1415926535897931 $234 -1.5707963267948966 $154 $235 forward @7 unknown #
coedge $-1 -1 $-1 $98 $97 $236 $237 reversed $41 $-1 #
coedge $-1 -1 $-1 $225 $224 $238 $158 reversed $95 $-1 #
edge $-1 -1 $-1 $164 -5 $239 0 $238 $240 forward @7 unknown #
coedge $-1 -1 $-1 $241 $242 $243 $160 forward $244 $-1 #
edge $-1 -1 $-1 $165 -5 $234 0 $159 $245 forward @7 unknown #
coedge $-1 -1 $-1 $162 $99 $242 $246 reversed $163 $-1 #
coedge $-1 -1 $-1 $99 $161 $247 $248 forward $163 $-1 #
loop $-1 -1 $-1 $-1 $99 $249 #
vertex $-1 -1 $-1 $250 $251 #
vertex $-1 -1 $-1 $252 $253 #
ellipse-curve $-1 -1 $-1 7.4983036091106872e-032 -2.5 0 0 1 0 -20 0 0 1 I I #
coedge $-1 -1 $-1 $167 $167 $104 $168 forward $101 $-1 #
edge $-1 -1 $-1 $254 -3.1415926535897931 $254 3.1415926535897931 $104 $255 forward @7 unknown #
vertex $-1 -1 $-1 $105 $256 #
ellipse-curve $-1 -1 $-1 0 -5 0 0 1 0 -10 0 0 1 I I #
model_id-kcp-attrib $-1 -1 $-1 $-1 $107 1 1021579018 1021579018 -1493106687 7 #
loop $-1 -1 $-1 $-1 $181 $107 #
cone-surface $-1 -1 $-1 0 0 0 0 -1 0 -10 0 0 1 I I 0 1 10 forward I I I I #
coedge $-1 -1 $-1 $257 $257 $185 $258 forward $110 $-1 #
coedge $-1 -1 $-1 $111 $111 $112 $176 forward $69 $-1 #
edge $-1 -1 $-1 $115 0 $177 3.1415926535897931 $175 $259 forward @7 unknown #
vertex $-1 -1 $-1 $176 $260 #
straight-curve $-1 -1 $-1 20 0 -2.4492127076447545e-015 0 -10 0 I I #
ellipse-curve $-1 -1 $-1 0 -5 0 0 -1 0 20 0 0 1 I I #
point $-1 -1 $-1 -20 -5 0 #
coedge $-1 -1 $-1 $261 $117 $120 $187 forward $172 $-1 #
coedge $-1 -1 $-1 $117 $261 $119 $186 reversed $172 $-1 #
attrib_edge_convexity-kcp-attrib $-1 -1 $262 $-1 $118 1 #
ellipse-curve $-1 -1 $-1 0 0 0 0 1 0 -10 0 0 1 I I #
coedge $-1 -1 $-1 $120 $119 $174 $258 reversed $108 $-1 #
edge $-1 -1 $-1 $123 0 $263 0.5 $182 $264 forward @7 unknown #
edge $-1 -1 $-1 $122 0 $265 0.5 $181 $266 forward @7 unknown #
convexity-sys-attrib $-1 -1 $-1 $121 $77 #
point $-1 -1 $-1 10 0 0 #
point $-1 -1 $-1 -10 0 0 #
convexity-sys-attrib $-1 -1 $-1 $125 $79 #
model_id-kcp-attrib $-1 -1 $-1 $-1 $130 1 1021579018 1021579018 -1493106686 2 #
face $-1 -1 $-1 $-1 $145 $19 $-1 $267 reversed single #
loop $-1 -1 $-1 $-1 $209 $130 #
plane-surface $-1 -1 $-1 0 2.5 0 0 -1 0 0 0 -1 forward_v I I I I #
coedge $-1 -1 $-1 $268 $207 $210 $269 forward $131 $-1 #
coedge $-1 -1 $-1 $213 $133 $134 $201 reversed $87 $-1 #
coedge $-1 -1 $-1 $207 $268 $133 $199 reversed $131 $-1 #
edge $-1 -1 $-1 $214 -20 $270 20 $198 $271 forward @7 unknown #
coedge $-1 -1 $-1 $135 $134 $268 $272 forward $56 $-1 #
edge $-1 -1 $-1 $205 -20 $270 20 $197 $273 forward @7 unknown #
coedge $-1 -1 $-1 $210 $209 $135 $203 reversed $194 $-1 #
edge $-1 -1 $-1 $274 -20 $204 20 $202 $275 forward @7 unknown #
vertex $-1 -1 $-1 $137 $276 #
vertex $-1 -1 $-1 $216 $277 #
straight-curve $-1 -1 $-1 20 0 -20 0 -1 0 I I #
coedge $-1 -1 $-1 $196 $198 $138 $208 reversed $131 $-1 #
edge $-1 -1 $-1 $211 -2.5 $214 2.5 $207 $278 forward @7 unknown #
coedge $-1 -1 $-1 $202 $139 $144 $217 forward $194 $-1 #
coedge $-1 -1 $-1 $139 $202 $196 $269 reversed $194 $-1 #
vertex $-1 -1 $-1 $140 $279 #
straight-curve $-1 -1 $-1 0 2.5 20 -1 0 0 I I #
coedge $-1 -1 $-1 $141 $197 $143 $216 reversed $87 $-1 #
vertex $-1 -1 $-1 $208 $280 #
straight-curve $-1 -1 $-1 0 -2.5 20 1 0 0 I I #
edge $-1 -1 $-1 $146 -20 $205 20 $143 $281 forward @7 unknown #
edge $-1 -1 $-1 $147 -20 $204 20 $144 $282 forward @7 unknown #
point $-1 -1 $-1 20 -2.5 20 #
point $-1 -1 $-1 20 2.5 20 #
face $-1 -1 $-1 $283 $284 $21 $-1 $285 reversed single #
loop $-1 -1 $-1 $-1 $243 $149 #
plane-surface $-1 -1 $-1 0 0 20 0 0 1 1 0 0 forward_v I I I I #
coedge $-1 -1 $-1 $286 $287 $288 $226 reversed $150 $-1 #
coedge $-1 -1 $-1 $157 $151 $289 $290 reversed $95 $-1 #
coedge $-1 -1 $-1 $151 $157 $291 $292 reversed $95 $-1 #
edge $-1 -1 $-1 $293 -5 $294 0 $288 $295 forward @7 unknown #
coedge $-1 -1 $-1 $153 $152 $296 $297 reversed $60 $-1 #
coedge $-1 -1 $-1 $298 $299 $300 $229 forward $301 $-1 #
edge $-1 -1 $-1 $302 -5 $233 0 $228 $303 forward @7 unknown #
coedge $-1 -1 $-1 $231 $154 $304 $305 reversed $232 $-1 #
coedge $-1 -1 $-1 $154 $230 $298 $306 forward $232 $-1 #
loop $-1 -1 $-1 $-1 $154 $307 #
vertex $-1 -1 $-1 $308 $309 #
vertex $-1 -1 $-1 $310 $311 #
ellipse-curve $-1 -1 $-1 7.4983036091106872e-032 2.5 0 0 -1 0 -20 0 0 1 I I #
coedge $-1 -1 $-1 $312 $313 $156 $237 forward $314 $-1 #
edge $-1 -1 $-1 $234 -1.5707963267948966 $239 0 $236 $235 forward @7 unknown #
coedge $-1 -1 $-1 $315 $316 $317 $158 forward $284 $-1 #
vertex $-1 -1 $-1 $318 $319 #
straight-curve $-1 -1 $-1 -20 2.5 0 0 1 0 I I #
coedge $-1 -1 $-1 $320 $159 $313 $310 forward $244 $-1 #
coedge $-1 -1 $-1 $159 $320 $161 $246 forward $244 $-1 #
coedge $-1 -1 $-1 $321 $304 $153 $160 reversed $221 $-1 #
loop $-1 -1 $-1 $-1 $159 $322 #
straight-curve $-1 -1 $-1 7.4983036091106872e-032 2.5 20 0 1 0 I I #
edge $-1 -1 $-1 $323 -20 $165 7.4983036091106872e-032 $161 $324 forward @7 unknown #
coedge $-1 -1 $-1 $325 $317 $162 $248 reversed $326 $-1 #
edge $-1 -1 $-1 $323 -20 $164 0 $247 $327 forward @7 unknown #
face $-1 -1 $-1 $328 $163 $21 $-1 $329 reversed single #
edge $-1 -1 $-1 $164 0 $330 20 $316 $327 forward @7 unknown #
point $-1 -1 $-1 -20 -2.5 0 #
edge $-1 -1 $-1 $165 7.4983036091106872e-032 $331 20 $332 $324 forward @7 unknown #
point $-1 -1 $-1 7.4983036091106872e-032 -2.5 20 #
vertex $-1 -1 $-1 $168 $333 #
ellipse-curve $-1 -1 $-1 0 0 0 0 1 0 10 0 0 1 I I #
point $-1 -1 $-1 10 -5 0 #
coedge $-1 -1 $-1 $174 $174 $261 $334 forward $110 $-1 #
edge $-1 -1 $-1 $265 0 $263 3.1415926535897931 $174 $335 forward @7 unknown #
ellipse-curve $-1 -1 $-1 0 -5 0 0 -1 0 -20 0 0 1 I I #
point $-1 -1 $-1 20 -5 0 #
coedge $-1 -1 $-1 $182 $181 $257 $334 reversed $172 $-1 #
convexity-sys-attrib $-1 -1 $-1 $183 $118 #
vertex $-1 -1 $-1 $334 $336 #
straight-curve $-1 -1 $-1 -10 0 0 0 -10 4.898425415289509e-015 I I #
vertex $-1 -1 $-1 $334 $337 #
straight-curve $-1 -1 $-1 10 0 -1.2246063538223773e-015 0 -10 0 I I #
plane-surface $-1 -1 $-1 20 0 0 -1 0 0 0 0 1 forward_v I I I I #
coedge $-1 -1 $-1 $198 $196 $200 $272 reversed $131 $-1 #
edge $-1 -1 $-1 $211 -20 $274 20 $210 $338 forward @7 unknown #
vertex $-1 -1 $-1 $272 $339 #
straight-curve $-1 -1 $-1 -20 -2.5 0 0 0 -1 I I #
edge $-1 -1 $-1 $270 -2.5 $274 2.5 $268 $340 forward @7 unknown #
straight-curve $-1 -1 $-1 0 -2.5 -20 -1 0 0 I I #
vertex $-1 -1 $-1 $203 $341 #
straight-curve $-1 -1 $-1 0 2.5 -20 1 0 0 I I #
point $-1 -1 $-1 20 2.5 -20 #
point $-1 -1 $-1 20 -2.5 -20 #
straight-curve $-1 -1 $-1 -20 0 20 0 -1 0 I I #
point $-1 -1 $-1 -20 2.5 20 #
point $-1 -1 $-1 -20 -2.5 20 #
straight-curve $-1 -1 $-1 20 -2.5 0 0 0 -1 I I #
straight-curve $-1 -1 $-1 20 2.5 0 0 0 -1 I I #
face $-1 -1 $-1 $342 $343 $21 $-1 $344 reversed single #
loop $-1 -1 $-1 $-1 $238 $220 #
plane-surface $-1 -1 $-1 -20 0 0 1 0 0 0 0 -1 forward_v I I I I #
coedge $-1 -1 $-1 $345 $223 $346 $347 reversed $150 $-1 #
coedge $-1 -1 $-1 $223 $345 $348 $349 reversed $150 $-1 #
coedge $-1 -1 $-1 $350 $351 $352 $226 forward $353 $-1 #
coedge $-1 -1 $-1 $354 $355 $224 $290 forward $356 $-1 #
edge $-1 -1 $-1 $239 0 $294 1.5707963267948966 $289 $235 forward @7 unknown #
coedge $-1 -1 $-1 $357 $358 $225 $292 forward $359 $-1 #
edge $-1 -1 $-1 $293 -1.5707963267948966 $164 0 $291 $166 forward @7 unknown #
vertex $-1 -1 $-1 $360 $361 #
vertex $-1 -1 $-1 $362 $363 #
straight-curve $-1 -1 $-1 7.4983036091106872e-032 2.5 -20 0 1 0 I I #
coedge $-1 -1 $-1 $364 $332 $227 $297 forward $365 $-1 #
edge $-1 -1 $-1 $165 1.5707963267948966 $302 3.1415926535897931 $296 $166 forward @7 unknown #
coedge $-1 -1 $-1 $366 $228 $231 $306 reversed $301 $-1 #
coedge $-1 -1 $-1 $228 $366 $364 $367 forward $301 $-1 #
coedge $-1 -1 $-1 $368 $369 $345 $229 reversed $343 $-1 #
loop $-1 -1 $-1 $-1 $228 $370 #
vertex $-1 -1 $-1 $371 $372 #
straight-curve $-1 -1 $-1 20 2.5 0 0 1 0 I I #
coedge $-1 -1 $-1 $243 $373 $230 $305 forward $221 $-1 #
edge $-1 -1 $-1 $374 -20 $234 -7.4983036091106872e-032 $230 $375 forward @7 unknown #
edge $-1 -1 $-1 $374 -20 $233 0 $298 $376 forward @7 unknown #
face $-1 -1 $-1 $377 $232 $21 $-1 $378 reversed single #
edge $-1 -1 $-1 $233 0 $379 20 $369 $376 forward @7 unknown #
point $-1 -1 $-1 20 2.5 0 #
edge $-1 -1 $-1 $234 -7.4983036091106872e-032 $380 20 $313 $375 forward @7 unknown #
point $-1 -1 $-1 7.4983036091106872e-032 2.5 20 #
coedge $-1 -1 $-1 $313 $236 $381 $382 reversed $314 $-1 #
coedge $-1 -1 $-1 $236 $312 $241 $310 reversed $314 $-1 #
loop $-1 -1 $-1 $-1 $236 $377 #
coedge $-1 -1 $-1 $383 $238 $355 $318 forward $284 $-1 #
coedge $-1 -1 $-1 $238 $383 $357 $250 reversed $284 $-1 #
coedge $-1 -1 $-1 $247 $381 $97 $158 reversed $326 $-1 #
edge $-1 -1 $-1 $239 0 $384 20 $355 $385 forward @7 unknown #
point $-1 -1 $-1 -20 2.5 0 #
coedge $-1 -1 $-1 $242 $241 $325 $386 forward $244 $-1 #
coedge $-1 -1 $-1 $373 $243 $332 $252 forward $221 $-1 #
face $-1 -1 $-1 $387 $244 $21 $-1 $222 forward single #
vertex $-1 -1 $-1 $386 $388 #
straight-curve $-1 -1 $-1 0 -2.5 20 1 0 0 I I #
coedge $-1 -1 $-1 $381 $247 $320 $386 reversed $326 $-1 #
loop $-1 -1 $-1 $-1 $317 $389 #
straight-curve $-1 -1 $-1 -20 -2.5 0 0 0 -1 I I #
face $-1 -1 $-1 $390 $365 $21 $-1 $329 reversed single #
plane-surface $-1 -1 $-1 0 -2.5 0 0 1 0 0 0 1 forward_v I I I I #
vertex $-1 -1 $-1 $391 $392 #
vertex $-1 -1 $-1 $393 $394 #
coedge $-1 -1 $-1 $296 $364 $321 $252 reversed $365 $-1 #
point $-1 -1 $-1 -10 0 0 #
edge $-1 -1 $-1 $263 0 $265 3.1415926535897931 $257 $395 forward @7 unknown #
ellipse-curve $-1 -1 $-1 -2.7755575615628914e-016 -5 5.5511151231257827e-016 0 1 0 10 0 -5.5511151231257827e-016 1 I I #
point $-1 -1 $-1 -10 -5 0 #
point $-1 -1 $-1 10 -5 0 #
straight-curve $-1 -1 $-1 -20 2.5 0 0 0 -1 I I #
point $-1 -1 $-1 -20 -2.5 -20 #
straight-curve $-1 -1 $-1 -20 0 -20 0 1 0 I I #
point $-1 -1 $-1 -20 2.5 -20 #
face $-1 -1 $-1 $307 $396 $21 $-1 $378 reversed single #
loop $-1 -1 $-1 $-1 $300 $283 #
plane-surface $-1 -1 $-1 20 0 0 -1 0 0 0 0 1 forward_v I I I I #
coedge $-1 -1 $-1 $287 $286 $152 $229 forward $150 $-1 #
coedge $-1 -1 $-1 $397 $398 $286 $347 forward $399 $-1 #
edge $-1 -1 $-1 $302 -3.1415926535897931 $293 -1.5707963267948966 $346 $166 forward @7 unknown #
coedge $-1 -1 $-1 $400 $401 $287 $349 forward $396 $-1 #
edge $-1 -1 $-1 $294 1.5707963267948966 $233 3.1415926535897931 $348 $235 forward @7 unknown #
coedge $-1 -1 $-1 $402 $288 $401 $362 forward $353 $-1 #
coedge $-1 -1 $-1 $288 $402 $397 $403 forward $353 $-1 #
coedge $-1 -1 $-1 $404 $405 $151 $226 reversed $406 $-1 #
loop $-1 -1 $-1 $-1 $288 $387 #
coedge $-1 -1 $-1 $355 $289 $405 $407 reversed $356 $-1 #
coedge $-1 -1 $-1 $289 $354 $315 $318 reversed $356 $-1 #
loop $-1 -1 $-1 $-1 $289 $408 #
coedge $-1 -1 $-1 $358 $291 $316 $250 forward $359 $-1 #
coedge $-1 -1 $-1 $291 $357 $404 $360 reversed $359 $-1 #
loop $-1 -1 $-1 $-1 $291 $409 #
edge $-1 -1 $-1 $293 -7.4983036091106872e-032 $330 20 $358 $410 forward @7 unknown #
point $-1 -1 $-1 7.4983036091106872e-032 -2.5 -20 #
edge $-1 -1 $-1 $294 7.4983036091106872e-032 $379 20 $401 $411 forward @7 unknown #
point $-1 -1 $-1 7.4983036091106872e-032 2.5 -20 #
coedge $-1 -1 $-1 $332 $296 $299 $367 reversed $365 $-1 #
loop $-1 -1 $-1 $-1 $296 $328 #
coedge $-1 -1 $-1 $299 $298 $373 $393 reversed $301 $-1 #
edge $-1 -1 $-1 $331 -20 $302 0 $299 $412 forward @7 unknown #
coedge $-1 -1 $-1 $413 $300 $398 $371 forward $343 $-1 #
coedge $-1 -1 $-1 $300 $413 $400 $308 reversed $343 $-1 #
face $-1 -1 $-1 $-1 $301 $21 $-1 $344 reversed single #
edge $-1 -1 $-1 $302 0 $414 20 $368 $412 forward @7 unknown #
point $-1 -1 $-1 20 -2.5 0 #
coedge $-1 -1 $-1 $304 $321 $366 $393 forward $221 $-1 #
vertex $-1 -1 $-1 $393 $415 #
straight-curve $-1 -1 $-1 0 2.5 20 -1 0 0 I I #
straight-curve $-1 -1 $-1 20 2.5 0 0 0 -1 I I #
face $-1 -1 $-1 $408 $314 $21 $-1 $378 reversed single #
plane-surface $-1 -1 $-1 0 2.5 0 0 -1 0 0 0 -1 forward_v I I I I #
vertex $-1 -1 $-1 $416 $417 #
vertex $-1 -1 $-1 $310 $418 #
coedge $-1 -1 $-1 $317 $325 $312 $382 forward $326 $-1 #
edge $-1 -1 $-1 $380 -20 $239 0 $312 $385 forward @7 unknown #
coedge $-1 -1 $-1 $316 $315 $419 $391 reversed $284 $-1 #
vertex $-1 -1 $-1 $407 $420 #
straight-curve $-1 -1 $-1 -20 2.5 0 0 0 -1 I I #
edge $-1 -1 $-1 $380 -2.5 $323 2.5 $325 $421 forward @7 unknown #
face $-1 -1 $-1 $389 $353 $21 $-1 $422 reversed single #
point $-1 -1 $-1 -20 -2.5 20 #
face $-1 -1 $-1 $370 $326 $21 $-1 $285 reversed single #
face $-1 -1 $-1 $423 $399 $21 $-1 $329 reversed single #
edge $-1 -1 $-1 $330 -2.5 $384 2.5 $383 $424 forward @7 unknown #
point $-1 -1 $-1 -20 -2.5 -20 #
edge $-1 -1 $-1 $331 -2.5 $374 2.5 $366 $425 forward @7 unknown #
point $-1 -1 $-1 20 -2.5 20 #
ellipse-curve $-1 -1 $-1 0 -5 2.7755575615628914e-016 0 1 0 -10 0 -2.7755575615628914e-016 1 I I #
loop $-1 -1 $-1 $-1 $348 $342 #
coedge $-1 -1 $-1 $398 $346 $351 $403 reversed $399 $-1 #
coedge $-1 -1 $-1 $346 $397 $368 $371 reversed $399 $-1 #
loop $-1 -1 $-1 $-1 $346 $390 #
coedge $-1 -1 $-1 $401 $348 $369 $308 forward $396 $-1 #
coedge $-1 -1 $-1 $348 $400 $350 $362 reversed $396 $-1 #
coedge $-1 -1 $-1 $351 $350 $413 $416 forward $353 $-1 #
edge $-1 -1 $-1 $414 -20 $293 -7.4983036091106872e-032 $397 $410 forward @7 unknown #
coedge $-1 -1 $-1 $419 $352 $358 $360 forward $406 $-1 #
coedge $-1 -1 $-1 $352 $419 $354 $407 forward $406 $-1 #
loop $-1 -1 $-1 $-1 $352 $423 #
edge $-1 -1 $-1 $384 -20 $294 7.4983036091106872e-032 $354 $411 forward @7 unknown #
face $-1 -1 $-1 $409 $356 $21 $-1 $378 reversed single #
face $-1 -1 $-1 $249 $359 $21 $-1 $329 reversed single #
straight-curve $-1 -1 $-1 0 -2.5 -20 -1 0 0 I I #
straight-curve $-1 -1 $-1 0 2.5 -20 1 0 0 I I #
straight-curve $-1 -1 $-1 20 -2.5 0 0 0 -1 I I #
coedge $-1 -1 $-1 $369 $368 $402 $416 reversed $343 $-1 #
vertex $-1 -1 $-1 $371 $426 #
point $-1 -1 $-1 20 2.5 20 #
edge $-1 -1 $-1 $379 -2.5 $414 2.5 $413 $427 forward @7 unknown #
point $-1 -1 $-1 20 2.5 -20 #
point $-1 -1 $-1 -20 2.5 20 #
coedge $-1 -1 $-1 $405 $404 $383 $391 forward $406 $-1 #
point $-1 -1 $-1 -20 2.5 -20 #
straight-curve $-1 -1 $-1 -20 0 20 0 -1 0 I I #
plane-surface $-1 -1 $-1 0 0 -20 0 0 1 1 0 0 forward_v I I I I #
face $-1 -1 $-1 $322 $406 $21 $-1 $422 reversed single #
straight-curve $-1 -1 $-1 -20 0 -20 0 1 0 I I #
straight-curve $-1 -1 $-1 20 0 20 0 1 0 I I #
point $-1 -1 $-1 20 -2.5 -20 #
straight-curve $-1 -1 $-1 20 0 -20 0 -1 0 I I #
End-of-ACIS-data 