**ABCDEFGHIJKLMNOPQRSTUVWXYZabcdefghijklmnopqrstuvwxyz**************************
**PARASOLID !"#$%&'()*+,-./:;<=>?@[\]^_`{|}~0123456789**************************
**PART1;
MC=unknown;
MC_MODEL=unknown;
MC_ID=unknown;
OS=unknown;
OS_RELEASE=unknown;
FRU=sdl_parasolid_customer_support;
APPL=parasolid_acceptance_tests;
SITE=unknown;
USER=unknown;
FORMAT=text;
GUISE=transmit;
KEY=part;
FILE=part.xmt_txt;
DATE=unknown;
**PART2;
SCH=SCH_504068_5059;
USFLD_SIZE=0;
**PART3;
**END_OF_HEADER*****************************************************************
T50 : TRANSMIT FILE created by modeller version 50406815 SCH_504068_50590 12 1 6
23 0 0 0 0 0 1e3 1e-8 2 2 0 3 4 1 5 6 7 8 102 4 2 part13 5 2 0 1 0 9 10 11 51 6
 562 0 12 13 0 0 +7 1.7 4.5 0 1 612303176911189e-31 1.5 1 0 0 30 7 565 0 10 14 0
 0 +6.5 1.7 5.5 1 0 0 29 8 574 0 11 15 0 8.1180339887499 2 5.5 18 11 611 0 16 0
 17 8 ?29 15 576 0 18 19 8 5.88196601125011 2 3.5 18 18 613 0 20 21 22 15 ?29 19
 577 0 17 23 15 8.1180339887499 1.7 5.5 18 17 614 0 24 11 21 19 ?29 23 578 0 21
 25 19 5.88196601125011 1.7 5.5 18 21 615 0 26 17 18 23 ?29 25 579 0 22 27 23 5.
88196601125011 1.7 3.5 18 22 616 0 28 18 29 25 ?29 27 580 0 29 30 25 8.118033988
7499 1.7 3.5 18 29 617 0 31 22 32 27 ?29 30 539 0 32 33 27 5.88196601125011 2 5.
5 18 32 537 0 34 29 35 30 ?29 33 529 0 35 36 30 8.1180339887499 2 3.5 18 35 527
 0 37 32 38 33 ?29 36 461 0 38 39 33 .881966011250105 1.5 3.5 18 38 510 0 40 35
 41 36 ?29 39 462 0 41 42 36 .881966011250105 1.5 5.5 18 41 511 0 43 38 44 39 ?2
9 42 463 0 44 45 39 2 2 6 18 44 512 0 46 41 47 42 ?29 45 464 0 47 48 42 3.118033
988749895 2 5.5 18 47 513 0 49 44 50 45 ?29 48 465 0 50 51 45 3.118033988749895
 1.5 5.5 18 50 514 0 52 47 53 48 ?29 51 466 0 53 54 48 3.118033988749895 1.5 3.5
 18 53 515 0 55 50 56 51 ?29 54 467 0 56 57 51 3.118033988749895 2 3.5 18 56 516
 0 58 53 59 54 ?29 57 468 0 59 60 54 2 2 3 18 59 517 0 61 56 62 57 ?29 60 469 0
 62 63 57 .881966011250105 3 5.5 18 62 518 0 64 59 65 60 ?29 63 470 0 65 66 60 2
 3 6 18 65 519 0 67 62 68 63 ?29 66 472 0 68 69 63 .881966011250105 3 3.5 18 68
 521 0 70 65 71 66 ?29 69 372 0 71 72 66 2 3 3 18 71 370 0 73 68 74 69 ?29 72 28
5 0 74 75 69 11 2 5.5 18 74 346 0 76 71 77 72 ?29 75 286 0 77 78 72 11 3 5.5 18
 77 347 0 79 74 80 75 ?29 78 289 0 80 81 75 11 2 3.5 18 80 350 0 82 77 83 78 ?29
 81 291 0 83 84 78 11 3 3.5 18 83 352 0 85 80 86 81 ?29 84 292 0 86 87 81 0 1.5
 5.5 18 86 353 0 88 83 89 84 ?29 87 293 0 89 90 84 0 3 5.5 18 89 354 0 91 86 92
 87 ?29 90 294 0 92 93 87 13 3 5.5 18 92 355 0 94 89 95 90 ?29 93 295 0 95 96 90
 13 1.5 5.5 18 95 356 0 97 92 98 93 ?29 96 296 0 99 100 93 0 1.5 3.5 18 99 359 0
 101 102 103 96 ?29 100 297 0 102 104 96 0 3 3.5 18 102 358 0 105 98 99 100 ?29
 104 298 0 98 106 100 13 3 3.5 18 98 357 0 107 95 102 104 ?29 106 172 0 103 108
 104 13 1.5 3.5 18 103 170 0 109 99 110 106 ?29 108 122 0 110 111 106 2 2 9 18 1
10 155 0 112 103 113 108 ?29 111 123 0 113 114 108 2 3 9 18 113 156 0 115 110 11
6 111 ?29 114 124 0 116 117 111 11 3 9 18 116 157 0 118 113 119 114 ?29 117 125
 0 119 120 114 11 2 9 18 119 158 0 121 116 122 117 ?29 120 126 0 123 124 117 2 2
 0 18 123 161 0 125 122 126 120 ?29 124 127 0 122 127 120 2 3 0 18 122 160 0 128
 119 123 124 ?29 127 129 0 126 129 124 11 2 0 18 126 162 0 130 123 131 127 ?29 1
29 62 0 131 132 127 11 3 0 18 131 60 0 133 126 134 129 ?29 132 55 0 134 135 129
 0 0 9 18 134 20 0 136 131 137 132 ?29 135 54 0 137 138 132 0 3 9 18 137 18 0 13
9 134 140 135 ?29 138 53 0 140 141 135 13 3 9 18 140 16 0 142 137 143 138 ?29 14
1 52 0 143 144 138 13 0 9 18 143 14 0 145 140 146 141 ?29 144 38 0 147 148 141 0
 0 0 18 147 8 0 149 150 151 144 ?29 148 37 0 150 152 144 0 3 0 18 150 10 0 153 1
46 147 148 ?29 152 36 0 146 154 148 13 3 0 18 146 12 0 155 143 150 152 ?29 154 3
5 0 151 0 152 13 0 0 18 151 7 0 156 147 0 154 ?17 156 157 145 158 151 159 160 0
 15 157 29 0 145 161 0 17 145 157 162 156 143 163 164 0 17 158 157 156 162 147 1
36 165 0 17 159 166 167 168 147 156 160 0 16 160 9 0 156 169 170 171 ?0 0 16 169
 11 0 149 172 160 173 ?0 0 16 170 3 0 155 160 0 174 ?0 0 30 171 39 0 160 0 174 0
 +6.5 0 0 1 0 0 30 174 40 0 170 171 175 0 +13 1.5 0 0 1 0 30 175 41 0 172 174 17
3 0 +6.5 3 0 -1 0 0 16 172 13 0 176 164 169 175 ?177 177 30 173 42 0 169 175 178
 0 +0 1.5 0 0 -1 0 30 178 47 0 164 173 179 0 +13 0 0 0 0 1 16 164 15 0 145 180 1
72 178 ?0 0 30 179 48 0 180 178 181 0 +13 3 0 0 0 1 16 180 17 0 182 183 164 179
 ?184 184 30 181 49 0 183 179 185 0 +0 3 0 0 0 1 16 183 19 0 186 165 180 181 ?18
7 187 30 185 50 0 165 181 188 0 +0 0 0 0 0 1 16 165 21 0 136 189 183 185 ?0 0 30
 188 56 0 189 185 190 0 +13 1.5 9 0 -1 0 16 189 22 0 191 192 165 188 ?0 0 30 190
 57 0 192 188 193 0 +6.5 3 9 1 0 0 16 192 25 0 194 195 189 190 ?196 196 30 193 5
8 0 195 190 197 0 +0 1.5 9 0 1 0 16 195 28 0 198 199 192 193 ?0 0 30 197 59 0 19
9 193 200 0 +6.5 0 9 -1 0 0 16 199 31 0 162 177 195 197 ?0 0 30 200 121 0 201 19
7 202 0 +6.5 2 0 1 0 0 16 201 153 0 130 203 204 200 ?0 0 30 202 120 0 204 200 20
5 0 +11 2.5 0 0 1 0 16 204 154 0 133 201 196 202 ?0 0 30 205 118 0 203 202 206 0
 +2 2.5 0 0 -1 0 16 203 152 0 125 207 201 205 ?0 0 30 206 117 0 207 205 208 0 +1
1 2 0 0 0 1 16 207 150 0 209 210 203 206 ?211 211 30 208 116 0 210 206 212 0 +11
 3 0 0 0 1 16 210 149 0 213 214 207 208 ?215 215 30 212 115 0 214 208 216 0 +2 3
 0 0 0 1 16 214 148 0 217 218 210 212 ?219 219 30 216 114 0 218 212 220 0 +2 2 0
 0 0 1 16 218 147 0 221 222 214 216 ?223 223 30 220 113 0 222 216 224 0 +11 2.5
 9 0 -1 0 16 222 146 0 121 225 218 220 ?0 0 30 224 111 0 225 220 226 0 +2 2.5 9
 0 1 0 16 225 144 0 115 227 222 224 ?0 0 30 226 110 0 227 224 228 0 +6.5 2 9 -1
 0 0 16 227 143 0 112 184 225 226 ?0 0 30 228 283 0 229 226 230 0 +6.5 1.5 3.5 1
 0 0 16 229 343 0 231 232 233 228 ?234 234 30 230 282 0 233 228 235 0 +13 2.25 3
.5 0 1 0 16 233 344 0 236 229 223 230 ?0 0 30 235 281 0 237 230 238 0 +6.5 3 3.5
 -1 0 0 16 237 341 0 239 240 232 235 ?241 241 30 238 280 0 232 235 242 0 +0 2.25
 3.5 0 -1 0 16 232 342 0 243 237 229 238 ?0 0 30 242 279 0 240 238 244 0 +13 1.5
 3.5 0 0 1 16 240 340 0 97 245 237 242 ?0 0 30 244 276 0 245 242 246 0 +0 1.5 3.
5 0 0 1 16 245 337 0 247 248 240 244 ?0 0 30 246 275 0 248 244 249 0 +13 2.25 5.
5 0 -1 0 16 248 336 0 250 251 245 246 ?0 0 30 249 274 0 251 246 252 0 +6.5 3 5.5
 1 0 0 16 251 335 0 253 254 248 249 ?255 255 30 252 273 0 254 249 256 0 +0 2.25
 5.5 0 1 0 16 254 334 0 257 258 251 252 ?0 0 30 256 272 0 258 252 259 0 +6.5 1.5
 5.5 -1 0 0 16 258 333 0 260 241 254 256 ?261 261 30 259 271 0 262 256 263 0 +11
 2.5 3.5 0 1 0 16 262 330 0 85 264 241 259 ?0 0 30 263 270 0 264 259 265 0 +6.5
 2 3.5 1 0 0 16 264 329 0 266 255 262 263 ?267 267 30 265 266 0 268 263 269 0 +1
1 2.5 5.5 0 -1 0 16 268 323 0 76 270 255 265 ?0 0 30 269 265 0 270 265 271 0 +6.
5 2 5.5 -1 0 0 16 270 322 0 272 234 268 269 ?273 273 31 271 458 0 274 269 275 0
 +2 0 4.5 0 1 612303176911189e-31 1 0 0 1.5 16 274 507 0 276 277 261 271 ?0 0 31
 275 457 0 278 271 279 0 +2 3 4.5 0 -1 -612303176911189e-31 -1 0 0 1.5 16 278 50
3 0 64 280 277 275 ?277 277 30 279 456 0 280 275 281 0 -2 918454765366783e-31 3
 0 1 612303176911189e-31 16 280 502 0 61 282 278 279 ?0 0 31 281 455 0 282 279 2
83 0 +2 2 4.5 0 -1 0 0 0 -1 1.5 16 282 501 0 58 284 280 281 ?0 0 30 283 454 0 28
4 281 285 0 -3.118033988749895 0 3.5 0 1 612303176911189e-31 16 284 500 0 55 286
 282 283 ?0 0 31 285 453 0 286 283 287 0 +2 1.5 4.5 0 -1 0 0 0 -1 1.5 16 286 499
 0 52 288 284 285 ?289 289 30 287 452 0 288 285 290 0 +3.118033988749895 0 5.5 0
 1 612303176911189e-31 16 288 498 0 49 291 286 287 ?0 0 31 290 451 0 291 287 292
 0 +2 2 4.5 0 -1 0 0 0 -1 1.5 16 291 497 0 46 293 288 290 ?0 0 30 292 450 0 293
 290 294 0 +2 -918454765366783e-31 6 0 1 612303176911189e-31 16 293 496 0 67 289
 291 292 ?0 0 30 294 449 0 295 292 296 0 +.881966011250105 0 3.5 0 1 61230317691
1189e-31 16 295 494 0 70 297 289 294 ?0 0 30 296 448 0 297 294 298 0 -.881966011
250105 0 5.5 0 1 612303176911189e-31 16 297 493 0 43 267 295 296 ?0 0 31 298 532
 0 299 296 300 0 +7 2 4.5 0 -1 0 0 0 -1 1.5 16 299 530 0 37 273 267 298 ?0 0 30
 300 549 0 301 298 302 0 +6.5 1.7 3.5 -1 0 0 16 301 547 0 28 303 273 300 ?0 0 31
 302 572 0 304 300 305 0 +7 1.7 4.5 0 1 612303176911189e-31 1 0 0 1.5 16 304 605
 0 306 307 308 302 ?303 303 30 305 570 0 308 302 309 0 -8.1180339887499 1.7 3.5
 0 1 612303176911189e-31 16 308 603 0 310 304 311 305 ?0 0 30 309 569 0 311 305
 312 0 +5.88196601125011 1.7 3.5 0 1 612303176911189e-31 16 311 602 0 20 308 303
 309 ?0 0 31 312 568 0 307 309 313 0 +7 2 4.5 0 -1 0 0 0 -1 1.5 16 307 601 0 34
 314 304 312 ?0 0 30 313 567 0 314 312 14 0 -5.88196601125011 1.7 5.5 0 1 612303
176911189e-31 16 314 600 0 315 316 307 313 ?0 0 30 14 566 0 316 313 7 0 +8.11803
39887499 1.7 5.5 0 1 612303176911189e-31 16 316 599 0 16 10 314 14 ?0 0 17 16 31
7 318 24 11 319 316 0 16 10 597 0 24 0 316 7 ?0 0 17 24 317 16 315 17 26 10 0 15
 317 436 0 24 320 0 17 315 317 24 321 21 322 314 0 17 26 323 306 306 21 24 10 0
 15 323 583 0 306 9 0 17 306 323 26 26 17 324 304 0 17 324 325 322 319 21 306 30
4 0 15 325 587 0 324 12 0 17 322 325 326 324 32 315 314 0 17 319 325 324 326 17
 16 316 0 17 326 325 319 322 11 34 307 0 17 34 327 328 272 32 326 307 0 15 327 2
53 0 272 329 0 17 328 327 46 34 47 321 273 0 17 272 327 34 330 11 318 270 0 17 3
30 327 272 331 74 332 211 0 17 318 317 333 16 74 272 270 0 17 333 317 334 318 77
 76 268 0 17 334 317 250 333 92 79 255 0 17 76 335 332 336 74 333 268 0 15 335 2
35 0 336 337 0 17 332 335 338 76 119 330 211 0 17 336 335 76 338 77 118 215 0 17
 338 335 336 332 116 121 222 0 17 118 339 340 79 116 336 215 0 16 215 186 0 118
 187 184 208 ?210 210 16 187 197 0 139 219 215 181 ?183 183 16 184 165 0 142 215
 227 179 ?180 180 17 142 341 191 94 140 342 184 0 15 341 179 0 94 343 0 17 191 3
41 163 142 143 344 189 0 17 94 341 142 97 92 250 248 0 17 342 339 79 340 92 142
 184 0 15 339 193 0 79 345 0 17 79 339 118 342 77 334 255 0 17 340 339 342 118 1
40 346 196 0 17 346 347 121 344 116 340 196 0 16 196 79 0 340 204 177 190 ?192 1
92 16 177 61 0 153 196 199 175 ?172 172 17 153 348 186 128 150 349 177 0 15 348
 374 0 73 350 0 17 186 348 351 153 102 352 183 0 17 128 348 153 73 122 217 214 0
 17 349 166 125 167 122 153 177 0 15 166 75 0 125 353 0 17 125 166 130 349 123 3
54 203 0 17 167 166 349 159 150 149 169 0 17 149 355 136 352 147 167 169 0 15 35
5 211 0 88 356 0 17 136 355 198 149 134 158 165 0 17 352 355 149 105 150 186 183
 0 17 105 355 352 101 102 243 232 0 17 101 355 105 88 99 247 245 0 17 243 357 23
1 358 99 105 232 0 15 357 430 0 231 359 0 17 231 357 70 243 38 360 229 0 17 358
 357 243 70 102 351 241 0 17 70 357 358 231 68 361 295 0 17 351 348 73 186 68 35
8 241 0 16 241 331 0 358 262 258 235 ?237 237 17 73 348 128 351 71 362 277 0 17
 362 363 361 364 68 73 277 0 16 277 506 0 73 278 274 275 ?278 278 15 363 480 0 3
65 366 0 17 361 363 367 362 38 70 295 0 17 364 363 362 368 71 61 280 0 17 368 36
3 364 369 59 58 282 0 17 61 370 371 217 59 364 280 0 15 370 136 0 217 372 0 17 3
71 370 354 61 123 221 218 0 17 217 370 61 354 71 128 214 0 17 354 370 217 371 12
2 125 203 0 17 221 373 58 374 59 371 218 0 15 373 134 0 266 375 0 17 58 373 266
 221 56 368 282 0 17 374 373 221 376 123 130 201 0 17 376 373 374 82 126 209 207
 0 17 130 166 133 125 126 374 201 0 17 133 166 377 130 131 378 204 0 17 377 166
 168 133 146 176 172 0 17 378 379 209 380 126 133 204 0 15 379 142 0 209 381 0 1
7 209 379 85 378 80 376 207 0 17 380 379 378 85 131 213 210 0 17 85 379 380 209
 83 382 262 0 17 213 383 107 176 83 380 210 0 15 383 189 0 107 384 0 17 107 383
 385 213 98 239 237 0 17 176 383 213 385 131 377 172 0 17 385 383 176 107 146 18
2 180 0 17 182 341 109 155 98 385 180 0 17 109 341 97 182 103 236 233 0 17 155 3
41 182 163 146 168 170 0 17 163 341 155 191 151 145 164 0 17 168 166 159 377 151
 155 170 0 17 97 341 94 109 95 386 240 0 17 236 387 239 388 98 109 233 0 15 387
 308 0 28 389 0 17 239 387 382 236 83 107 237 0 17 388 387 236 55 103 390 234 0
 17 55 387 388 391 53 369 284 0 17 390 392 52 386 53 388 234 0 16 234 412 0 388
 261 270 228 ?229 229 16 261 418 0 393 274 234 256 ?258 258 17 393 394 257 43 86
 395 261 0 15 394 302 0 253 396 0 17 257 394 253 393 89 88 254 0 17 43 394 393 2
53 41 397 297 0 17 395 398 40 247 41 393 261 0 15 398 312 0 395 399 0 17 40 398
 360 395 38 367 289 0 17 247 398 395 360 86 101 245 0 17 360 398 247 40 99 231 2
29 0 17 367 363 397 361 41 40 289 0 16 289 495 0 40 295 293 285 ?286 286 17 397
 363 365 367 62 43 297 0 17 365 363 400 397 65 64 278 0 17 400 363 401 365 44 67
 293 0 17 64 402 91 403 62 365 278 0 15 402 396 0 64 404 0 17 91 402 139 64 89 2
53 251 0 17 403 402 64 194 65 405 219 0 17 194 402 403 139 113 406 192 0 17 405
 407 408 67 113 403 219 0 16 219 215 0 405 211 187 212 ?214 214 16 211 229 0 332
 223 219 206 ?207 207 16 223 241 0 409 233 211 216 ?218 218 17 409 327 331 46 11
0 410 223 0 17 331 327 330 409 119 112 227 0 17 46 327 409 328 44 401 291 0 17 4
10 407 67 408 44 409 223 0 15 407 247 0 410 411 0 17 67 407 405 410 65 400 293 0
 17 408 407 410 405 110 115 225 0 17 115 347 406 112 113 408 225 0 15 347 101 0
 115 412 0 17 406 347 413 115 137 194 192 0 17 112 347 115 121 110 331 227 0 17
 121 347 112 346 119 338 222 0 17 413 347 414 406 134 198 195 0 17 414 347 344 4
13 143 162 199 0 17 198 355 415 136 137 413 195 0 17 415 355 88 198 89 139 187 0
 17 88 355 101 415 86 257 254 0 17 139 402 194 91 137 415 187 0 17 344 347 346 4
14 140 191 189 0 17 162 157 158 145 134 414 199 0 14 412 33 0 161 350 347 5 416
 +?0 0 14 161 30 0 356 412 417 5 418 +?0 0 14 350 87 0 412 381 348 5 419 +?384 3
45 50 416 51 0 412 418 420 0 +6.5 1.5 9 0 0 1 1 0 0 50 418 46 0 161 421 416 0 +6
.5 0 0 0 -1 0 0 0 -1 50 420 108 0 381 416 422 0 +11 2.5 0 1 0 0 0 0 -1 14 381 14
1 0 350 372 379 5 420 -?337 337 50 422 106 0 372 420 423 0 +2 2.5 0 -1 0 0 0 0 1
 14 372 135 0 381 375 370 5 422 -?411 411 50 423 105 0 375 422 424 0 +6.5 2 0 0
 -1 0 0 0 -1 14 375 133 0 372 345 373 5 423 -?329 329 50 424 263 0 389 423 425 0
 +6.5 2.25 3.5 0 0 -1 -1 0 0 14 389 317 0 399 396 387 5 424 -?359 359 50 425 259
 0 399 424 426 0 +6.5 1.5 3.5 0 -1 0 0 0 -1 14 399 311 0 329 389 398 5 425 -?427
 427 50 426 258 0 396 425 428 0 +6.5 2.25 5.5 0 0 1 1 0 0 14 396 309 0 389 427 3
94 5 426 -?320 320 51 428 441 0 366 426 13 0 +2 0 4.5 0 1 612303176911189e-31 1.
5 1 0 0 14 366 487 0 320 429 430 5 428 -?0 0 50 13 564 0 9 428 6 0 +7 1.7 4.5 0
 -1 -612303176911189e-31 -1 0 0 14 9 582 0 12 0 323 5 13 -?429 429 14 12 586 0 4
31 9 325 5 6 -?431 431 14 429 592 0 366 431 432 5 13 -?9 9 14 431 594 0 429 12 4
33 5 6 -?12 12 15 432 585 0 434 429 0 17 434 432 31 31 22 435 303 0 17 31 432 43
4 434 29 28 301 0 17 435 433 436 437 29 434 303 0 16 303 609 0 434 311 301 302 ?
304 304 15 433 589 0 435 431 0 17 436 433 438 435 35 310 308 0 17 437 433 435 43
8 22 20 311 0 17 438 433 437 436 18 37 299 0 17 20 387 391 28 18 437 311 0 17 39
1 387 55 20 56 266 264 0 17 28 387 20 310 22 31 301 0 17 310 387 28 439 29 436 3
08 0 17 439 387 310 382 35 82 267 0 17 382 387 439 239 80 85 262 0 17 82 373 376
 37 80 439 267 0 16 267 525 0 82 299 297 263 ?264 264 17 37 373 82 266 35 438 29
9 0 17 266 373 37 58 18 391 264 0 14 320 437 0 359 366 317 5 426 -?396 396 15 43
0 479 0 440 366 363 17 440 430 440 440 0 276 274 0 17 276 417 276 276 0 440 274
 0 15 417 364 0 276 161 157 14 359 431 0 427 320 357 5 424 -?389 389 14 427 425
 0 396 359 392 5 425 -?399 399 15 392 424 0 390 427 0 14 329 254 0 411 399 327 5
 423 -?375 375 14 411 248 0 337 329 407 5 422 -?372 372 14 337 236 0 404 411 335
 5 420 -?381 381 14 404 223 0 345 337 402 5 419 +?345 384 14 345 191 0 375 404 3
39 5 419 +?350 404 50 419 44 0 384 441 421 0 +6.5 3 0 0 1 0 0 0 1 14 384 24 0 35
3 356 383 5 419 +?404 350 14 353 6 0 343 384 166 5 442 +?0 0 14 356 27 0 384 161
 355 5 421 +?0 0 50 421 45 0 356 419 418 0 +0 1.5 0 -1 0 0 0 0 1 14 343 1 0 0 35
3 341 5 441 +?0 0 50 442 34 0 353 0 441 0 +6.5 1.5 0 0 0 -1 -1 0 0 50 441 43 0 3
43 442 419 0 +13 1.5 0 1 0 0 0 0 -1 17 401 363 443 400 47 46 291 0 17 443 363 44
4 401 50 49 288 0 17 444 363 369 443 53 52 286 0 17 49 317 321 260 47 443 288 0
 17 321 317 315 49 32 328 273 0 17 260 317 49 250 50 445 258 0 17 250 317 260 33
4 95 94 248 0 17 445 392 386 52 95 260 258 0 17 386 392 390 445 103 97 240 0 17
 52 392 445 390 50 444 286 0 16 273 535 0 328 301 299 269 ?270 270 17 369 363 36
8 444 56 55 284 0 17 253 394 43 257 62 91 251 0 16 255 326 0 334 268 264 249 ?25
1 251 1 0 


