600 0 2 0           
24 FBMach with ACIS - 6.0.3 13 ACIS 6.0.3 NT 24 Mon Apr 01 16:20:22 2002 
1 9.9999999999999995e-007 1e-010 
body $2 $3 $-1 $4 #
bdycol-kcp $-1 1 3 $5 $6 $7 #
model_id-kcp-attrib $-1 $8 $-1 $0 1 1017696021 80 441450497 1 #
lump $-1 $-1 $9 $0 #
transform $-1 1 0 0 0 1 0 0 0 1 0 0 0 1 rotate no_reflect no_shear #
body $10 $11 $-1 $12 #
body $13 $14 $-1 $15 #
body $16 $17 $-1 $18 #
aggregate_advspl_attribute-aggregate_geombuild_base_attribute-aggregate_body_attribute-attrib_HH-attrib $-1 $19 $2 $0 F #
shell $-1 $-1 $-1 $20 $-1 $3 #
model_id-kcp-attrib $-1 $-1 $-1 $5 1 1017696021 80 441450498 1 #
lump $-1 $-1 $21 $5 #
transform $-1 1 0 0 0 1 0 0 0 1 0 -0.27725 0 1 no_rotate no_reflect no_shear #
rgb_color-st-attrib $-1 $22 $-1 $6 0.5 1 1 #
lump $-1 $-1 $23 $6 #
transform $-1 1 0 0 0 1 0 0 0 1 0 -0.27725 0 1 no_rotate no_reflect no_shear #
rgb_color-st-attrib $-1 $24 $-1 $7 1 0.5 1 #
lump $-1 $-1 $25 $7 #
transform $-1 1 0 0 0 1 0 0 0 1 0 -0.27725 0 1 no_rotate no_reflect no_shear #
aggregate_secndry_attribute-aggregate_geombuild_base_attribute-aggregate_body_attribute-attrib_HH-attrib $-1 $26 $8 $0 F #
face $27 $28 $29 $9 $-1 $30 forward single #
shell $-1 $-1 $-1 $31 $-1 $11 #
model_id-kcp-attrib $-1 $-1 $13 $6 1 1017696021 160 446693379 1 #
shell $-1 $-1 $-1 $32 $-1 $14 #
model_id-kcp-attrib $-1 $-1 $16 $7 1 1017696021 320 440401924 1 #
shell $-1 $-1 $-1 $33 $-1 $17 #
aggregate_sharped_attribute-aggregate_geombuild_base_attribute-aggregate_body_attribute-attrib_HH-attrib $-1 $34 $19 $0 F #
model_id-kcp-attrib $-1 $35 $-1 $20 1 1017696021 80 441450497 2 #
face $36 $37 $38 $9 $-1 $39 forward single #
loop $-1 $40 $41 $20 #
cone-surface $-1 0 0.027725 0 0 -1 0 -0.062324999999999998 0 0 1 I I 0 1 0.062324999999999998 forward I I I I #
face $-1 $42 $43 $21 $-1 $44 forward single #
face $-1 $45 $46 $23 $-1 $47 reversed single #
face $-1 $48 $49 $25 $-1 $50 reversed single #
aggregate_reblend_attribute-aggregate_geombuild_base_attribute-aggregate_body_attribute-attrib_HH-attrib $-1 $51 $26 $0 F #
attrib_hh_face_geombuild-attrib_entity_geombuild-individual_entity_attribute-attrib_HH-attrib $-1 $52 $27 $20 F #
model_id-kcp-attrib $-1 $53 $-1 $28 1 1017696021 80 441450497 15 #
face $54 $55 $56 $9 $-1 $57 reversed single #
loop $-1 $-1 $58 $28 #
plane-surface $-1 0 -0.55449999999999999 0 0 -1 0 0 0 -1 forward_v I I I I #
loop $-1 $-1 $59 $20 #
coedge $60 $41 $41 $61 $62 forward $29 $-1 #
face $-1 $63 $64 $21 $-1 $65 reversed single #
loop $-1 $-1 $66 $31 #
plane-surface $-1 0 0 0.107125 0 0 1 1 0 0 forward_v I I I I #
face $-1 $67 $68 $23 $-1 $47 reversed single #
loop $-1 $-1 $69 $32 #
cone-surface $-1 4.0162788706299122e-034 -0.27725 0 0 -1 0 0.107125 0 -1.3118595565322216e-017 1 I I 0 1 0.107125 forward I I I I #
face $-1 $70 $71 $25 $-1 $72 forward single #
loop $-1 $73 $74 $33 #
plane-surface $-1 -0.008240656267603742 -0.24824999999999992 3.8871363947612184e-019 1.0030773293037269e-032 1 -1.5046159939555901e-032 0 1.5046159939555901e-032 1 forward_v I I I I #
aggregate_isospline_attribute-aggregate_geombuild_base_attribute-aggregate_body_attribute-attrib_HH-attrib $-1 $75 $34 $0 F #
pid_name-sg-attrib $-1 $-1 $35 $20 7 rwilson 784252905 81 1 #
model_id-kcp-attrib $-1 $76 $36 $28 1 1017696021 80 441450497 3 #
model_id-kcp-attrib $-1 $77 $-1 $37 1 1017696021 80 441450497 4 #
face $78 $79 $80 $9 $-1 $81 reversed single #
loop $-1 $82 $83 $37 #
plane-surface $-1 0 -0.53849999999999998 0 0 -1 0 0 0 -1 forward_v I I I I #
coedge $84 $58 $58 $59 $85 reversed $38 $-1 #
coedge $86 $59 $59 $58 $85 forward $40 $-1 #
attrib_hh_coedge_geombuild-attrib_entity_geombuild-individual_entity_attribute-attrib_HH-attrib $-1 $-1 $-1 $41 F #
coedge $87 $61 $61 $41 $62 reversed $82 $-1 #
edge $88 $89 -3.1415926535897931 $89 3.1415926535897931 $61 $90 forward 7 unknown #
face $91 $92 $93 $21 $-1 $94 reversed single #
loop $-1 $-1 $95 $42 #
plane-surface $-1 0 0 -0.107125 0 0 1 1 0 0 forward_v I I I I #
coedge $-1 $96 $97 $98 $99 forward $43 $-1 #
face $-1 $100 $101 $23 $-1 $47 reversed single #
loop $-1 $-1 $102 $45 #
coedge $-1 $103 $104 $105 $106 reversed $46 $-1 #
face $107 $108 $109 $25 $-1 $110 reversed single #
loop $-1 $111 $112 $48 #
cone-surface $-1 4.0162788706299122e-034 -0.27725 0 0 -1 0 0.107125 0 -1.3118595565322216e-017 1 I I 0 1 0.107125 forward I I I I #
loop $-1 $-1 $113 $33 #
coedge $-1 $74 $74 $114 $115 forward $49 $-1 #
aggregate_analytic_solver_attribute-aggregate_geombuild_base_attribute-aggregate_body_attribute-attrib_HH-attrib $-1 $116 $51 $0 F #
attrib_hh_face_geombuild-attrib_entity_geombuild-individual_entity_attribute-attrib_HH-attrib $-1 $117 $53 $28 F #
attrib_hh_face_geombuild-attrib_entity_geombuild-individual_entity_attribute-attrib_HH-attrib $-1 $118 $54 $37 F #
model_id-kcp-attrib $-1 $119 $-1 $55 1 1017696021 80 441450497 5 #
face $120 $121 $122 $9 $-1 $123 forward single #
loop $-1 $124 $125 $55 #
torus-surface $-1 0 -0.53549999999999998 0 0 -1 0 0.061249999999999999 0.0030000000000000001 0 0 -1 forward_v I I I I #
loop $-1 $-1 $61 $37 #
coedge $126 $83 $83 $127 $128 reversed $56 $-1 #
attrib_hh_coedge_geombuild-attrib_entity_geombuild-individual_entity_attribute-attrib_HH-attrib $-1 $-1 $-1 $58 F #
edge $129 $130 0 $130 6.2831853071795862 $58 $131 forward 7 unknown #
attrib_hh_coedge_geombuild-attrib_entity_geombuild-individual_entity_attribute-attrib_HH-attrib $-1 $-1 $-1 $59 F #
attrib_hh_coedge_geombuild-attrib_entity_geombuild-individual_entity_attribute-attrib_HH-attrib $-1 $-1 $-1 $61 F #
attrib_hh_edge_geombuild-attrib_entity_geombuild-individual_entity_attribute-attrib_HH-attrib $-1 $-1 $-1 $62 F #
vertex $132 $62 $133 #
ellipse-curve $-1 0 -0.53849999999999998 0 -1.7813446042922701e-015 -1 0 -0.062324999999999998 1.11022302462516e-016 0 1 I I #
model_id-kcp-attrib $-1 $-1 $-1 $63 1 1017696021 80 441450498 2 #
face $-1 $134 $135 $21 $-1 $136 reversed single #
loop $-1 $-1 $137 $63 #
plane-surface $-1 0 -0.27725 0 0 1 0 0 0 1 forward_v I I I I #
coedge $-1 $138 $139 $140 $141 forward $64 $-1 #
coedge $-1 $142 $66 $143 $144 forward $43 $-1 #
coedge $-1 $66 $142 $145 $146 forward $43 $-1 #
coedge $-1 $147 $148 $66 $99 reversed $149 $-1 #
edge $-1 $150 -0.27725 $151 0.27725 $98 $152 forward 7 unknown #
face $-1 $153 $154 $23 $-1 $47 reversed single #
loop $-1 $-1 $155 $67 #
coedge $-1 $156 $157 $158 $159 reversed $68 $-1 #
coedge $-1 $160 $69 $161 $162 forward $46 $-1 #
coedge $-1 $69 $160 $163 $164 reversed $46 $-1 #
coedge $-1 $165 $166 $69 $106 forward $167 $-1 #
edge $-1 $168 1.2246063538223773e-016 $169 1.5707963267948968 $105 $170 forward 7 unknown #
attrib_hh_face_geombuild-attrib_entity_geombuild-individual_entity_attribute-attrib_HH-attrib $-1 $171 $-1 $70 F #
face $172 $173 $174 $25 $-1 $175 forward single #
loop $-1 $176 $177 $70 #
cone-surface $-1 0 0.304975 0 0 -1 0 -0.062324999999999998 0 0 1 I I 0 1 0.062324999999999998 forward I I I I #
loop $-1 $-1 $178 $48 #
coedge $-1 $112 $112 $179 $180 reversed $71 $-1 #
coedge $-1 $113 $113 $178 $181 forward $73 $-1 #
coedge $-1 $114 $114 $74 $115 reversed $176 $-1 #
edge $-1 $182 -3.1415926535897931 $182 3.1415926535897931 $114 $183 forward 7 unknown #
aggregate_geombuild_attribute-aggregate_geombuild_base_attribute-aggregate_body_attribute-attrib_HH-attrib $-1 $184 $75 $0 #
pid_name-sg-attrib $-1 $-1 $76 $28 7 rwilson 784252905 82 1 #
pid_name-sg-attrib $-1 $-1 $77 $37 7 rwilson 784252905 83 1 #
attrib_hh_face_geombuild-attrib_entity_geombuild-individual_entity_attribute-attrib_HH-attrib $-1 $185 $78 $55 F #
model_id-kcp-attrib $-1 $186 $-1 $79 1 1017696021 80 441450497 6 #
face $187 $188 $189 $9 $-1 $190 reversed single #
loop $-1 $191 $192 $79 #
cone-surface $-1 0 0.027725 0 0 -1 0 -0.058250000000000003 0 0 1 I I 0 1 0.058250000000000003 forward I I I I #
loop $-1 $-1 $127 $55 #
coedge $193 $125 $125 $194 $195 forward $80 $-1 #
attrib_hh_coedge_geombuild-attrib_entity_geombuild-individual_entity_attribute-attrib_HH-attrib $-1 $-1 $-1 $83 F #
coedge $196 $127 $127 $83 $128 forward $124 $-1 #
edge $197 $198 -6.2831853071795862 $198 0 $83 $199 reversed 7 unknown #
attrib_edge_convexity-kcp-attrib $-1 $200 $-1 $85 1 #
vertex $201 $85 $202 #
ellipse-curve $-1 0 -0.55449999999999999 0 0 1 0 -0.062324999999999998 0 0 1 I I #
attrib_hh_vertex_geombuild-attrib_entity_geombuild-individual_entity_attribute-attrib_HH-attrib $-1 $-1 $-1 $89 F #
point $-1 0.062324999999999998 -0.53849999999999998 7.6323591001979701e-018 #
face $203 $204 $205 $21 $-1 $206 reversed single #
loop $-1 $-1 $207 $92 #
plane-surface $-1 -0.107125 0 0 1 0 0 0 0 -1 forward_v I I I I #
coedge $-1 $208 $145 $209 $210 forward $93 $-1 #
coedge $-1 $211 $95 $208 $212 forward $64 $-1 #
coedge $-1 $95 $211 $213 $214 forward $64 $-1 #
coedge $-1 $148 $147 $95 $141 reversed $149 $-1 #
edge $-1 $215 -0.27725 $216 0.27725 $140 $217 forward 7 unknown #
coedge $-1 $97 $96 $218 $219 forward $43 $-1 #
coedge $-1 $220 $221 $96 $144 reversed $205 $-1 #
edge $-1 $151 -0.107125 $222 0.107125 $143 $223 forward 7 unknown #
coedge $-1 $137 $224 $97 $146 reversed $93 $-1 #
edge $-1 $225 -0.107125 $150 0.107125 $145 $226 forward 7 unknown #
coedge $-1 $140 $98 $224 $227 forward $149 $-1 #
coedge $-1 $98 $140 $220 $228 reversed $149 $-1 #
loop $-1 $-1 $147 $204 #
vertex $-1 $99 $229 #
vertex $-1 $99 $230 #
straight-curve $-1 0.107125 0 0.107125 0 1 0 I I #
face $-1 $231 $232 $23 $-1 $233 forward single #
loop $-1 $-1 $234 $100 #
coedge $-1 $235 $236 $234 $237 forward $101 $-1 #
coedge $-1 $238 $102 $239 $240 reversed $68 $-1 #
coedge $-1 $102 $238 $104 $164 forward $68 $-1 #
coedge $-1 $241 $242 $102 $159 forward $243 $-1 #
edge $-1 $244 -3.1415926535897931 $245 -1.5707963267948968 $158 $246 forward 7 unknown #
coedge $-1 $104 $103 $247 $248 reversed $46 $-1 #
coedge $-1 $236 $235 $249 $162 reversed $101 $-1 #
edge $-1 $168 -0.55449999999999999 $250 0 $249 $251 forward 7 unknown #
coedge $-1 $252 $253 $254 $164 forward $255 $-1 #
edge $-1 $169 -0.55449999999999999 $245 0 $163 $256 forward 7 unknown #
coedge $-1 $166 $105 $253 $257 reversed $167 $-1 #
coedge $-1 $105 $165 $258 $259 forward $167 $-1 #
loop $-1 $-1 $105 $260 #
vertex $-1 $261 $262 #
vertex $-1 $263 $264 #
ellipse-curve $-1 4.0162788706299122e-034 0.27725 0 0 -1 0 0.107125 0 -1.3118595565322216e-017 1 I I #
pid_name-sg-attrib $-1 $-1 $107 $70 7 rwilson 784252905 88 1 #
attrib_hh_face_geombuild-attrib_entity_geombuild-individual_entity_attribute-attrib_HH-attrib $-1 $265 $-1 $108 F #
face $-1 $-1 $266 $25 $-1 $267 reversed single #
loop $-1 $268 $269 $108 #
torus-surface $-1 0 0.14874999999999999 0 0 -1 0 0.065324999999999994 0.0030000000000000001 0 0 -1 forward_v I I I I #
loop $-1 $-1 $114 $70 #
coedge $270 $177 $177 $271 $272 forward $109 $-1 #
coedge $-1 $178 $178 $113 $181 reversed $111 $-1 #
coedge $-1 $179 $179 $112 $180 forward $266 $-1 #
edge $273 $274 -3.1415926535897931 $274 3.1415926535897931 $112 $275 forward 7 unknown #
edge $-1 $276 -3.1415926535897931 $276 3.1415926535897931 $178 $277 forward 7 unknown #
vertex $278 $115 $279 #
ellipse-curve $-1 0 -0.24824999999999997 0 1.7813446042922701e-015 1 0 -0.062324999999999998 1.11022302462516e-016 0 1 I I #
aggregate_stitch_attribute-aggregate_stitch_base_attribute-aggregate_body_attribute-attrib_HH-attrib $-1 $280 $116 $0 F #
pid_name-sg-attrib $-1 $-1 $119 $55 7 rwilson 784252905 84 1 #
attrib_hh_face_geombuild-attrib_entity_geombuild-individual_entity_attribute-attrib_HH-attrib $-1 $281 $120 $79 F #
model_id-kcp-attrib $-1 $282 $-1 $121 1 1017696021 80 441450497 7 #
face $283 $284 $285 $9 $-1 $286 forward single #
loop $-1 $287 $288 $121 #
torus-surface $-1 0 -0.52849999999999997 0 0 -1 0 0.061249999999999999 0.0030000000000000001 0 0 -1 forward_v I I I I #
loop $-1 $-1 $194 $79 #
coedge $289 $192 $192 $290 $291 reversed $122 $-1 #
attrib_hh_coedge_geombuild-attrib_entity_geombuild-individual_entity_attribute-attrib_HH-attrib $-1 $-1 $-1 $125 F #
coedge $292 $194 $194 $125 $195 reversed $191 $-1 #
edge $293 $294 -3.1415926535897931 $294 3.1415926535897931 $194 $295 forward 7 unknown #
attrib_hh_coedge_geombuild-attrib_entity_geombuild-individual_entity_attribute-attrib_HH-attrib $-1 $-1 $-1 $127 F #
attrib_hh_edge_geombuild-attrib_entity_geombuild-individual_entity_attribute-attrib_HH-attrib $-1 $-1 $-1 $128 F #
vertex $296 $128 $297 #
ellipse-curve $-1 0 -0.53849999999999998 0 0 -1 0 -0.061249999999999999 0 0 1 I I #
convexity-sys-attrib $-1 $298 $129 $85 #
attrib_hh_vertex_geombuild-attrib_entity_geombuild-individual_entity_attribute-attrib_HH-attrib $-1 $-1 $-1 $130 F #
point $-1 -0.062324999999999998 -0.55449999999999999 0 #
model_id-kcp-attrib $-1 $-1 $-1 $134 1 1017696021 80 441450498 3 #
face $-1 $-1 $149 $21 $-1 $299 reversed single #
loop $-1 $-1 $220 $134 #
plane-surface $-1 0 0.27725 0 0 -1 0 0 0 -1 forward_v I I I I #
coedge $-1 $300 $218 $221 $301 forward $135 $-1 #
coedge $-1 $224 $137 $138 $212 reversed $93 $-1 #
coedge $-1 $218 $300 $137 $210 reversed $135 $-1 #
edge $-1 $225 -0.107125 $302 0.107125 $209 $303 forward 7 unknown #
coedge $-1 $139 $138 $300 $304 forward $64 $-1 #
edge $-1 $216 -0.107125 $302 0.107125 $208 $305 forward 7 unknown #
coedge $-1 $221 $220 $139 $214 reversed $205 $-1 #
edge $-1 $306 -0.107125 $215 0.107125 $213 $307 forward 7 unknown #
vertex $-1 $141 $308 #
vertex $-1 $227 $309 #
straight-curve $-1 0.107125 0 -0.107125 0 -1 0 I I #
coedge $-1 $207 $209 $142 $219 reversed $135 $-1 #
edge $-1 $222 -0.27725 $225 0.27725 $218 $310 forward 7 unknown #
coedge $-1 $213 $143 $148 $228 forward $205 $-1 #
coedge $-1 $143 $213 $207 $301 reversed $205 $-1 #
vertex $-1 $144 $311 #
straight-curve $-1 0 0.27725 0.107125 -1 0 0 I I #
coedge $-1 $145 $208 $147 $227 reversed $93 $-1 #
vertex $-1 $219 $312 #
straight-curve $-1 0 -0.27725 0.107125 1 0 0 I I #
edge $-1 $150 -0.107125 $216 0.107125 $147 $313 forward 7 unknown #
edge $-1 $151 -0.107125 $215 0.107125 $148 $314 forward 7 unknown #
point $-1 0.107125 -0.27725 0.107125 #
point $-1 0.107125 0.27725 0.107125 #
face $-1 $315 $316 $23 $-1 $317 reversed single #
loop $-1 $-1 $254 $153 #
plane-surface $-1 0 0 0.107125 0 0 1 1 0 0 forward_v I I I I #
coedge $-1 $318 $319 $320 $237 reversed $154 $-1 #
coedge $-1 $161 $155 $321 $322 reversed $101 $-1 #
coedge $-1 $155 $161 $323 $324 reversed $101 $-1 #
edge $-1 $325 -0.55449999999999999 $326 0 $320 $327 forward 7 unknown #
coedge $-1 $157 $156 $328 $329 reversed $68 $-1 #
coedge $-1 $330 $331 $332 $240 forward $333 $-1 #
edge $-1 $334 -0.55449999999999999 $244 0 $239 $335 forward 7 unknown #
coedge $-1 $242 $158 $336 $337 reversed $243 $-1 #
coedge $-1 $158 $241 $330 $338 forward $243 $-1 #
loop $-1 $-1 $158 $339 #
vertex $-1 $340 $341 #
vertex $-1 $342 $343 #
ellipse-curve $-1 4.0162788706299122e-034 -0.27725 0 0 1 0 0.107125 0 -1.3118595565322216e-017 1 I I #
coedge $-1 $344 $345 $160 $248 forward $346 $-1 #
edge $-1 $245 -1.5707963267948968 $250 -1.2246063538223773e-016 $247 $246 forward 7 unknown #
coedge $-1 $347 $348 $349 $162 forward $316 $-1 #
vertex $-1 $350 $351 #
straight-curve $-1 0.107125 -0.27725 0 0 -1 0 I I #
coedge $-1 $352 $163 $345 $342 forward $255 $-1 #
coedge $-1 $163 $352 $165 $257 forward $255 $-1 #
coedge $-1 $353 $336 $157 $164 reversed $232 $-1 #
loop $-1 $-1 $163 $354 #
straight-curve $-1 4.0162788706299122e-034 -0.27725 0.107125 0 -1 0 I I #
edge $-1 $355 -0.107125 $169 -4.0162788706299122e-034 $165 $356 forward 7 unknown #
coedge $-1 $357 $349 $166 $259 reversed $358 $-1 #
edge $-1 $355 -0.107125 $168 0 $258 $359 forward 7 unknown #
face $-1 $360 $167 $23 $-1 $361 reversed single #
edge $-1 $168 0 $362 0.107125 $348 $359 forward 7 unknown #
point $-1 0.107125 0.27725 0 #
edge $-1 $169 -4.0162788706299122e-034 $363 0.107125 $364 $356 forward 7 unknown #
point $-1 4.0162788706299122e-034 0.27725 0.107125 #
pid_name-sg-attrib $-1 $-1 $172 $108 7 rwilson 784252905 89 1 #
loop $-1 $365 $179 $173 #
plane-surface $-1 0 0.15174999999999994 0 0 -1 0 1 0 0 forward_v I I I I #
loop $-1 $-1 $271 $108 #
coedge $366 $269 $269 $367 $368 forward $174 $-1 #
attrib_hh_coedge_geombuild-attrib_entity_geombuild-individual_entity_attribute-attrib_HH-attrib $-1 $-1 $-1 $177 F #
coedge $369 $271 $271 $177 $272 reversed $268 $-1 #
edge $370 $371 -6.2831853071795862 $371 0 $177 $372 reversed 7 unknown #
convexity-sys-attrib $-1 $-1 $-1 $180 #
vertex $-1 $180 $373 #
ellipse-curve $-1 4.0162788706299122e-034 0.15174999999999994 0 0 1 0 0.107125 0 -1.3118595565322216e-017 1 I I #
vertex $-1 $181 $374 #
ellipse-curve $-1 4.0162788706299122e-034 -0.24824999999999992 0 -1.0030773293037269e-032 -1 1.5046159939555901e-032 0.107125 0 -1.3118595565322216e-017 1 I I #
attrib_hh_vertex_geombuild-attrib_entity_geombuild-individual_entity_attribute-attrib_HH-attrib $-1 $-1 $-1 $182 F #
point $-1 0.062324999999999998 -0.24824999999999997 7.6326111756858808e-018 #
aggregate_simgeom_attribute-aggregate_simgeom_base_attribute-aggregate_body_attribute-attrib_HH-attrib $-1 $-1 $184 $0 F #
pid_name-sg-attrib $-1 $-1 $186 $79 7 rwilson 784252905 85 1 #
attrib_hh_face_geombuild-attrib_entity_geombuild-individual_entity_attribute-attrib_HH-attrib $-1 $375 $187 $121 F #
model_id-kcp-attrib $-1 $376 $-1 $188 1 1017696021 80 441450497 8 #
face $377 $378 $379 $9 $-1 $380 forward single #
loop $-1 $381 $382 $188 #
plane-surface $-1 0 -0.52549999999999997 0 0 -1 0 0 0 -1 forward_v I I I I #
loop $-1 $-1 $290 $121 #
coedge $383 $288 $288 $384 $385 forward $189 $-1 #
attrib_hh_coedge_geombuild-attrib_entity_geombuild-individual_entity_attribute-attrib_HH-attrib $-1 $-1 $-1 $192 F #
coedge $386 $290 $290 $192 $291 forward $287 $-1 #
edge $387 $388 -6.2831853071795862 $388 0 $192 $389 reversed 7 unknown #
attrib_hh_coedge_geombuild-attrib_entity_geombuild-individual_entity_attribute-attrib_HH-attrib $-1 $-1 $-1 $194 F #
attrib_hh_edge_geombuild-attrib_entity_geombuild-individual_entity_attribute-attrib_HH-attrib $-1 $-1 $-1 $195 F #
vertex $390 $195 $391 #
ellipse-curve $-1 0 -0.53549999999999998 0 0 -1 0 -0.058250000000000003 0 0 1 I I #
attrib_hh_vertex_geombuild-attrib_entity_geombuild-individual_entity_attribute-attrib_HH-attrib $-1 $-1 $-1 $198 F #
point $-1 -0.061249999999999999 -0.53849999999999998 0 #
attrib_hh_edge_geombuild-attrib_entity_geombuild-individual_entity_attribute-attrib_HH-attrib $-1 $-1 $200 $85 F #
plane-surface $-1 0.107125 0 0 -1 0 0 0 0 1 forward_v I I I I #
coedge $-1 $209 $207 $211 $304 reversed $135 $-1 #
edge $-1 $222 -0.107125 $306 0.107125 $221 $392 forward 7 unknown #
vertex $-1 $304 $393 #
straight-curve $-1 -0.107125 -0.27725 0 0 0 -1 I I #
edge $-1 $302 -0.27725 $306 0.27725 $300 $394 forward 7 unknown #
straight-curve $-1 0 -0.27725 -0.107125 -1 0 0 I I #
vertex $-1 $214 $395 #
straight-curve $-1 0 0.27725 -0.107125 1 0 0 I I #
point $-1 0.107125 0.27725 -0.107125 #
point $-1 0.107125 -0.27725 -0.107125 #
straight-curve $-1 -0.107125 0 0.107125 0 -1 0 I I #
point $-1 -0.107125 0.27725 0.107125 #
point $-1 -0.107125 -0.27725 0.107125 #
straight-curve $-1 0.107125 -0.27725 0 0 0 -1 I I #
straight-curve $-1 0.107125 0.27725 0 0 0 -1 I I #
face $-1 $396 $397 $23 $-1 $398 reversed single #
loop $-1 $-1 $249 $231 #
plane-surface $-1 0.107125 0 0 -1 0 0 0 0 1 forward_v I I I I #
coedge $-1 $399 $234 $400 $401 reversed $154 $-1 #
coedge $-1 $234 $399 $402 $403 reversed $154 $-1 #
coedge $-1 $404 $405 $406 $237 forward $407 $-1 #
coedge $-1 $408 $409 $235 $322 forward $410 $-1 #
edge $-1 $250 -1.2246063538223773e-016 $326 1.5707963267948966 $321 $246 forward 7 unknown #
coedge $-1 $411 $412 $236 $324 forward $413 $-1 #
edge $-1 $325 -1.5707963267948966 $168 1.2246063538223773e-016 $323 $170 forward 7 unknown #
vertex $-1 $414 $415 #
vertex $-1 $416 $417 #
straight-curve $-1 4.0162788706299122e-034 -0.27725 -0.107125 0 -1 0 I I #
coedge $-1 $418 $364 $238 $329 forward $419 $-1 #
edge $-1 $169 1.5707963267948968 $334 3.1415926535897931 $328 $170 forward 7 unknown #
coedge $-1 $420 $239 $242 $338 reversed $333 $-1 #
coedge $-1 $239 $420 $418 $421 forward $333 $-1 #
coedge $-1 $422 $423 $399 $240 reversed $397 $-1 #
loop $-1 $-1 $239 $424 #
vertex $-1 $425 $426 #
straight-curve $-1 -0.107125 -0.27725 0 0 -1 0 I I #
coedge $-1 $254 $427 $241 $337 forward $232 $-1 #
edge $-1 $428 -0.107125 $245 4.0162788706299122e-034 $241 $429 forward 7 unknown #
edge $-1 $428 -0.107125 $244 0 $330 $430 forward 7 unknown #
face $-1 $431 $243 $23 $-1 $432 reversed single #
edge $-1 $244 0 $433 0.107125 $423 $430 forward 7 unknown #
point $-1 -0.107125 -0.27725 0 #
edge $-1 $245 4.0162788706299122e-034 $434 0.107125 $345 $429 forward 7 unknown #
point $-1 4.0162788706299122e-034 -0.27725 0.107125 #
coedge $-1 $345 $247 $435 $436 reversed $346 $-1 #
coedge $-1 $247 $344 $252 $342 reversed $346 $-1 #
loop $-1 $-1 $247 $431 #
coedge $-1 $437 $249 $409 $350 forward $316 $-1 #
coedge $-1 $249 $437 $411 $261 reversed $316 $-1 #
coedge $-1 $258 $435 $103 $162 reversed $358 $-1 #
edge $-1 $250 0 $438 0.107125 $347 $439 forward 7 unknown #
point $-1 0.107125 -0.27725 0 #
coedge $-1 $253 $252 $357 $440 forward $255 $-1 #
coedge $-1 $427 $254 $364 $263 forward $232 $-1 #
face $-1 $441 $255 $23 $-1 $233 forward single #
vertex $-1 $440 $442 #
straight-curve $-1 0 0.27725 0.107125 -1 0 0 I I #
coedge $-1 $435 $258 $352 $440 reversed $358 $-1 #
loop $-1 $-1 $349 $443 #
straight-curve $-1 0.107125 0.27725 0 0 0 -1 I I #
face $-1 $444 $419 $23 $-1 $361 reversed single #
plane-surface $-1 0 0.27725 0 0 -1 0 0 0 -1 forward_v I I I I #
vertex $-1 $445 $446 #
vertex $-1 $263 $447 #
coedge $-1 $328 $418 $353 $263 reversed $419 $-1 #
loop $-1 $-1 $367 $173 #
attrib_hh_coedge_geombuild-attrib_entity_geombuild-individual_entity_attribute-attrib_HH-attrib $-1 $-1 $-1 $269 F #
coedge $-1 $367 $367 $269 $368 reversed $365 $-1 #
edge $448 $449 -1.5707963267948966 $449 4.7123889803846897 $367 $450 forward 7 unknown #
attrib_hh_coedge_geombuild-attrib_entity_geombuild-individual_entity_attribute-attrib_HH-attrib $-1 $-1 $-1 $271 F #
convexity-sys-attrib $-1 $451 $-1 $272 #
vertex $452 $272 $453 #
ellipse-curve $-1 0 0.14874999999999999 0 0 -1 0 -0.062324999999999998 0 0 1 I I #
point $-1 -0.107125 0.15174999999999994 2.6237191130644432e-017 #
point $-1 -0.107125 -0.24824999999999992 2.6237191130644432e-017 #
pid_name-sg-attrib $-1 $-1 $282 $121 7 rwilson 784252905 86 1 #
attrib_hh_face_geombuild-attrib_entity_geombuild-individual_entity_attribute-attrib_HH-attrib $-1 $454 $283 $188 F #
model_id-kcp-attrib $-1 $455 $-1 $284 1 1017696021 80 441450497 9 #
face $456 $457 $458 $9 $-1 $459 reversed single #
loop $-1 $460 $461 $284 #
cone-surface $-1 0 0.027725 0 0 -1 0 -0.062324999999999998 0 0 1 I I 0 1 0.062324999999999998 forward I I I I #
loop $-1 $-1 $384 $188 #
coedge $462 $382 $382 $463 $464 reversed $285 $-1 #
attrib_hh_coedge_geombuild-attrib_entity_geombuild-individual_entity_attribute-attrib_HH-attrib $-1 $-1 $-1 $288 F #
coedge $465 $384 $384 $288 $385 reversed $381 $-1 #
edge $466 $467 -3.1415926535897931 $467 3.1415926535897931 $384 $468 forward 7 unknown #
attrib_hh_coedge_geombuild-attrib_entity_geombuild-individual_entity_attribute-attrib_HH-attrib $-1 $-1 $-1 $290 F #
attrib_hh_edge_geombuild-attrib_entity_geombuild-individual_entity_attribute-attrib_HH-attrib $-1 $-1 $-1 $291 F #
vertex $469 $291 $470 #
ellipse-curve $-1 0 -0.52849999999999997 0 0 -1 0 -0.058250000000000003 0 0 1 I I #
attrib_hh_vertex_geombuild-attrib_entity_geombuild-individual_entity_attribute-attrib_HH-attrib $-1 $-1 $-1 $294 F #
point $-1 0.058250000000000003 -0.53549999999999998 -7.1333320110153503e-018 #
straight-curve $-1 -0.107125 0.27725 0 0 0 -1 I I #
point $-1 -0.107125 -0.27725 -0.107125 #
straight-curve $-1 -0.107125 0 -0.107125 0 1 0 I I #
point $-1 -0.107125 0.27725 -0.107125 #
face $-1 $339 $471 $23 $-1 $432 reversed single #
loop $-1 $-1 $332 $315 #
plane-surface $-1 -0.107125 0 0 1 0 0 0 0 -1 forward_v I I I I #
coedge $-1 $319 $318 $156 $240 forward $154 $-1 #
coedge $-1 $472 $473 $318 $401 forward $474 $-1 #
edge $-1 $334 -3.1415926535897931 $325 -1.5707963267948966 $400 $170 forward 7 unknown #
coedge $-1 $475 $476 $319 $403 forward $471 $-1 #
edge $-1 $326 1.5707963267948966 $244 3.1415926535897931 $402 $246 forward 7 unknown #
coedge $-1 $477 $320 $476 $416 forward $407 $-1 #
coedge $-1 $320 $477 $472 $478 forward $407 $-1 #
coedge $-1 $479 $480 $155 $237 reversed $481 $-1 #
loop $-1 $-1 $320 $441 #
coedge $-1 $409 $321 $480 $482 reversed $410 $-1 #
coedge $-1 $321 $408 $347 $350 reversed $410 $-1 #
loop $-1 $-1 $321 $483 #
coedge $-1 $412 $323 $348 $261 forward $413 $-1 #
coedge $-1 $323 $411 $479 $414 reversed $413 $-1 #
loop $-1 $-1 $323 $484 #
edge $-1 $325 4.0162788706299122e-034 $362 0.107125 $412 $485 forward 7 unknown #
point $-1 4.0162788706299122e-034 0.27725 -0.107125 #
edge $-1 $326 -4.0162788706299122e-034 $433 0.107125 $476 $486 forward 7 unknown #
point $-1 4.0162788706299122e-034 -0.27725 -0.107125 #
coedge $-1 $364 $328 $331 $421 reversed $419 $-1 #
loop $-1 $-1 $328 $360 #
coedge $-1 $331 $330 $427 $487 reversed $333 $-1 #
edge $-1 $363 -0.107125 $334 0 $418 $488 forward 7 unknown #
coedge $-1 $489 $332 $473 $425 forward $397 $-1 #
coedge $-1 $332 $489 $475 $340 reversed $397 $-1 #
face $-1 $443 $333 $23 $-1 $398 reversed single #
edge $-1 $334 0 $490 0.107125 $473 $488 forward 7 unknown #
point $-1 -0.107125 0.27725 0 #
coedge $-1 $336 $353 $420 $487 forward $232 $-1 #
vertex $-1 $487 $491 #
straight-curve $-1 0 -0.27725 0.107125 1 0 0 I I #
straight-curve $-1 -0.107125 -0.27725 0 0 0 -1 I I #
face $-1 $483 $346 $23 $-1 $432 reversed single #
plane-surface $-1 0 -0.27725 0 0 1 0 0 0 1 forward_v I I I I #
vertex $-1 $492 $493 #
vertex $-1 $440 $494 #
coedge $-1 $349 $357 $344 $436 forward $358 $-1 #
edge $-1 $434 -0.107125 $250 0 $435 $439 forward 7 unknown #
coedge $-1 $348 $347 $495 $445 reversed $316 $-1 #
vertex $-1 $350 $496 #
straight-curve $-1 0.107125 -0.27725 0 0 0 -1 I I #
edge $-1 $434 -0.27725 $355 0.27725 $357 $497 forward 7 unknown #
face $-1 $424 $407 $23 $-1 $498 reversed single #
point $-1 0.107125 0.27725 0.107125 #
face $-1 $-1 $358 $23 $-1 $317 reversed single #
face $-1 $499 $474 $23 $-1 $361 reversed single #
edge $-1 $362 -0.27725 $438 0.27725 $437 $500 forward 7 unknown #
point $-1 0.107125 0.27725 -0.107125 #
point $-1 -0.107125 0.27725 0.107125 #
convexity-sys-attrib $-1 $-1 $-1 $368 #
vertex $-1 $368 $501 #
ellipse-curve $-1 0 0.15174999999999994 0 0 1 0 0 0 -0.065324999999999994 1 I I #
attrib_hh_edge_geombuild-attrib_entity_geombuild-individual_entity_attribute-attrib_HH-attrib $-1 $-1 $370 $272 F #
attrib_hh_vertex_geombuild-attrib_entity_geombuild-individual_entity_attribute-attrib_HH-attrib $-1 $-1 $-1 $371 F #
point $-1 -0.062324999999999998 0.14874999999999999 0 #
pid_name-sg-attrib $-1 $-1 $376 $188 7 rwilson 784252905 87 1 #
attrib_hh_face_geombuild-attrib_entity_geombuild-individual_entity_attribute-attrib_HH-attrib $-1 $502 $377 $284 F #
model_id-kcp-attrib $-1 $503 $-1 $378 1 1017696021 80 441450497 10 #
face $504 $505 $506 $9 $-1 $507 forward single #
loop $-1 $508 $509 $378 #
torus-surface $-1 0 -0.1285 0 0 -1 0 0.065324999999999994 0.0030000000000000001 0 0 -1 forward_v I I I I #
loop $-1 $-1 $463 $284 #
coedge $510 $461 $461 $511 $512 reversed $379 $-1 #
attrib_hh_coedge_geombuild-attrib_entity_geombuild-individual_entity_attribute-attrib_HH-attrib $-1 $-1 $-1 $382 F #
coedge $513 $463 $463 $382 $464 forward $460 $-1 #
edge $514 $515 -3.1415926535897931 $515 3.1415926535897931 $382 $516 forward 7 unknown #
attrib_hh_coedge_geombuild-attrib_entity_geombuild-individual_entity_attribute-attrib_HH-attrib $-1 $-1 $-1 $384 F #
attrib_hh_edge_geombuild-attrib_entity_geombuild-individual_entity_attribute-attrib_HH-attrib $-1 $-1 $-1 $385 F #
vertex $517 $385 $518 #
ellipse-curve $-1 0 -0.52549999999999997 0 0 -1 0 -0.061249999999999999 0 0 1 I I #
attrib_hh_vertex_geombuild-attrib_entity_geombuild-individual_entity_attribute-attrib_HH-attrib $-1 $-1 $-1 $388 F #
point $-1 -0.058250000000000003 -0.52849999999999997 0 #
loop $-1 $-1 $402 $396 #
coedge $-1 $473 $400 $405 $478 reversed $474 $-1 #
coedge $-1 $400 $472 $422 $425 reversed $474 $-1 #
loop $-1 $-1 $400 $444 #
coedge $-1 $476 $402 $423 $340 forward $471 $-1 #
coedge $-1 $402 $475 $404 $416 reversed $471 $-1 #
coedge $-1 $405 $404 $489 $492 forward $407 $-1 #
edge $-1 $490 -0.107125 $325 4.0162788706299122e-034 $472 $485 forward 7 unknown #
coedge $-1 $495 $406 $412 $414 forward $481 $-1 #
coedge $-1 $406 $495 $408 $482 forward $481 $-1 #
loop $-1 $-1 $406 $499 #
edge $-1 $438 -0.107125 $326 -4.0162788706299122e-034 $408 $486 forward 7 unknown #
face $-1 $484 $410 $23 $-1 $432 reversed single #
face $-1 $260 $413 $23 $-1 $361 reversed single #
straight-curve $-1 0 0.27725 -0.107125 1 0 0 I I #
straight-curve $-1 0 -0.27725 -0.107125 -1 0 0 I I #
edge $-1 $363 -0.27725 $428 0.27725 $420 $519 forward 7 unknown #
straight-curve $-1 -0.107125 0.27725 0 0 0 -1 I I #
coedge $-1 $423 $422 $477 $492 reversed $397 $-1 #
vertex $-1 $478 $520 #
point $-1 -0.107125 -0.27725 0.107125 #
edge $-1 $433 -0.27725 $490 0.27725 $489 $521 forward 7 unknown #
point $-1 -0.107125 -0.27725 -0.107125 #
point $-1 0.107125 -0.27725 0.107125 #
coedge $-1 $480 $479 $437 $445 forward $481 $-1 #
point $-1 0.107125 -0.27725 -0.107125 #
straight-curve $-1 0.107125 0 0.107125 0 1 0 I I #
plane-surface $-1 0 0 -0.107125 0 0 1 1 0 0 forward_v I I I I #
face $-1 $354 $481 $23 $-1 $498 reversed single #
straight-curve $-1 0.107125 0 -0.107125 0 -1 0 I I #
point $-1 0.065324999999999994 0.15175 -7.9997410063446795e-018 #
pid_name-sg-attrib $-1 $-1 $455 $284 7 rwilson 784252905 88 1 #
attrib_hh_face_geombuild-attrib_entity_geombuild-individual_entity_attribute-attrib_HH-attrib $-1 $522 $456 $378 F #
model_id-kcp-attrib $-1 $523 $-1 $457 1 1017696021 80 441450497 11 #
face $524 $525 $526 $9 $-1 $527 forward single #
loop $-1 $528 $529 $457 #
cone-surface $-1 0 0.027725 0 0 -1 0 -0.107125 0 0 1 I I 0 1 0.107125 forward I I I I #
loop $-1 $-1 $511 $378 #
coedge $530 $509 $509 $531 $532 forward $458 $-1 #
attrib_hh_coedge_geombuild-attrib_entity_geombuild-individual_entity_attribute-attrib_HH-attrib $-1 $-1 $-1 $461 F #
coedge $533 $511 $511 $461 $512 forward $508 $-1 #
edge $534 $535 -6.2831853071795862 $535 0 $461 $536 reversed 7 unknown #
attrib_hh_coedge_geombuild-attrib_entity_geombuild-individual_entity_attribute-attrib_HH-attrib $-1 $-1 $-1 $463 F #
attrib_hh_edge_geombuild-attrib_entity_geombuild-individual_entity_attribute-attrib_HH-attrib $-1 $-1 $-1 $464 F #
vertex $537 $464 $538 #
ellipse-curve $-1 0 -0.52549999999999997 0 1.7813446042922701e-015 1 0 -0.062324999999999998 1.11022302462516e-016 0 1 I I #
attrib_hh_vertex_geombuild-attrib_entity_geombuild-individual_entity_attribute-attrib_HH-attrib $-1 $-1 $-1 $467 F #
point $-1 0.061249999999999999 -0.52549999999999997 -7.5007139171620597e-018 #
straight-curve $-1 -0.107125 0 0.107125 0 -1 0 I I #
point $-1 -0.107125 0.27725 -0.107125 #
straight-curve $-1 -0.107125 0 -0.107125 0 1 0 I I #
pid_name-sg-attrib $-1 $-1 $503 $378 7 rwilson 784252905 89 1 #
attrib_hh_face_geombuild-attrib_entity_geombuild-individual_entity_attribute-attrib_HH-attrib $-1 $539 $504 $457 F #
model_id-kcp-attrib $-1 $540 $-1 $505 1 1017696021 80 441450497 12 #
face $541 $542 $543 $9 $-1 $544 forward single #
loop $-1 $545 $546 $505 #
plane-surface $-1 0 -0.1255 0 0 -1 0 0 0 -1 forward_v I I I I #
loop $-1 $-1 $547 $457 #
coedge $548 $529 $529 $549 $550 reversed $506 $-1 #
attrib_hh_coedge_geombuild-attrib_entity_geombuild-individual_entity_attribute-attrib_HH-attrib $-1 $-1 $-1 $509 F #
coedge $551 $531 $531 $509 $532 reversed $545 $-1 #
edge $552 $553 -3.1415926535897931 $553 3.1415926535897931 $531 $554 forward 7 unknown #
attrib_hh_coedge_geombuild-attrib_entity_geombuild-individual_entity_attribute-attrib_HH-attrib $-1 $-1 $-1 $511 F #
attrib_hh_edge_geombuild-attrib_entity_geombuild-individual_entity_attribute-attrib_HH-attrib $-1 $-1 $-1 $512 F #
vertex $555 $512 $556 #
ellipse-curve $-1 0 -0.1285 0 0 -1 0 -0.062324999999999998 0 0 1 I I #
attrib_hh_vertex_geombuild-attrib_entity_geombuild-individual_entity_attribute-attrib_HH-attrib $-1 $-1 $-1 $515 F #
point $-1 0.062324999999999998 -0.52549999999999997 7.6326111756858808e-018 #
pid_name-sg-attrib $-1 $-1 $523 $457 7 rwilson 784252905 90 1 #
attrib_hh_face_geombuild-attrib_entity_geombuild-individual_entity_attribute-attrib_HH-attrib $-1 $557 $524 $505 F #
model_id-kcp-attrib $-1 $558 $-1 $525 1 1017696021 80 441450497 13 #
face $559 $-1 $560 $9 $-1 $561 reversed single #
loop $-1 $562 $549 $525 #
torus-surface $-1 0 -0.0030000000000000001 0 0 -1 0 0.104125 0.0030000000000000001 0 0 -1 forward_v I I I I #
loop $-1 $-1 $531 $505 #
coedge $563 $546 $546 $547 $564 reversed $526 $-1 #
coedge $565 $547 $547 $546 $564 forward $528 $-1 #
attrib_hh_coedge_geombuild-attrib_entity_geombuild-individual_entity_attribute-attrib_HH-attrib $-1 $-1 $-1 $529 F #
coedge $566 $549 $549 $529 $550 forward $543 $-1 #
edge $567 $568 -6.2831853071795862 $568 0 $529 $569 reversed 7 unknown #
attrib_hh_coedge_geombuild-attrib_entity_geombuild-individual_entity_attribute-attrib_HH-attrib $-1 $-1 $-1 $531 F #
attrib_hh_edge_geombuild-attrib_entity_geombuild-individual_entity_attribute-attrib_HH-attrib $-1 $-1 $-1 $532 F #
vertex $570 $532 $571 #
ellipse-curve $-1 0 -0.1255 0 0 -1 0 -0.065324999999999994 0 0 1 I I #
attrib_hh_vertex_geombuild-attrib_entity_geombuild-individual_entity_attribute-attrib_HH-attrib $-1 $-1 $-1 $535 F #
point $-1 -0.062324999999999998 -0.1285 0 #
pid_name-sg-attrib $-1 $-1 $540 $505 7 rwilson 784252905 91 1 #
attrib_hh_face_geombuild-attrib_entity_geombuild-individual_entity_attribute-attrib_HH-attrib $-1 $572 $541 $525 F #
model_id-kcp-attrib $-1 $573 $-1 $542 1 1017696021 80 441450497 14 #
loop $-1 $-1 $574 $542 #
plane-surface $-1 0 0 0 0 -1 0 0 0 -1 forward_v I I I I #
loop $-1 $-1 $575 $525 #
attrib_hh_coedge_geombuild-attrib_entity_geombuild-individual_entity_attribute-attrib_HH-attrib $-1 $-1 $-1 $546 F #
edge $576 $577 0 $577 6.2831853071795862 $546 $578 forward 7 unknown #
attrib_hh_coedge_geombuild-attrib_entity_geombuild-individual_entity_attribute-attrib_HH-attrib $-1 $-1 $-1 $547 F #
attrib_hh_coedge_geombuild-attrib_entity_geombuild-individual_entity_attribute-attrib_HH-attrib $-1 $-1 $-1 $549 F #
attrib_hh_edge_geombuild-attrib_entity_geombuild-individual_entity_attribute-attrib_HH-attrib $-1 $-1 $-1 $550 F #
vertex $579 $550 $580 #
ellipse-curve $-1 0 -0.0030000000000000001 0 0 -1 0 -0.107125 0 0 1 I I #
attrib_hh_vertex_geombuild-attrib_entity_geombuild-individual_entity_attribute-attrib_HH-attrib $-1 $-1 $-1 $553 F #
point $-1 0.065324999999999994 -0.1255 -7.9997410063446795e-018 #
pid_name-sg-attrib $-1 $-1 $558 $525 7 rwilson 784252905 92 1 #
attrib_hh_face_geombuild-attrib_entity_geombuild-individual_entity_attribute-attrib_HH-attrib $-1 $581 $559 $542 F #
coedge $582 $574 $574 $575 $583 reversed $560 $-1 #
coedge $584 $575 $575 $574 $583 forward $562 $-1 #
attrib_hh_edge_geombuild-attrib_entity_geombuild-individual_entity_attribute-attrib_HH-attrib $-1 $-1 $-1 $564 F #
vertex $585 $564 $586 #
ellipse-curve $-1 0 -0.1255 0 -2.5909522161613902e-016 1 0 -0.107125 -2.7755575615628901e-017 0 1 I I #
attrib_hh_vertex_geombuild-attrib_entity_geombuild-individual_entity_attribute-attrib_HH-attrib $-1 $-1 $-1 $568 F #
point $-1 -0.107125 -0.0030000000000000001 0 #
pid_name-sg-attrib $-1 $-1 $573 $542 7 rwilson 784252905 93 1 #
attrib_hh_coedge_geombuild-attrib_entity_geombuild-individual_entity_attribute-attrib_HH-attrib $-1 $-1 $-1 $574 F #
edge $587 $588 -6.2831853071795862 $588 0 $574 $589 reversed 7 unknown #
attrib_hh_coedge_geombuild-attrib_entity_geombuild-individual_entity_attribute-attrib_HH-attrib $-1 $-1 $-1 $575 F #
attrib_hh_vertex_geombuild-attrib_entity_geombuild-individual_entity_attribute-attrib_HH-attrib $-1 $-1 $-1 $577 F #
point $-1 -0.107125 -0.1255 0 #
attrib_hh_edge_geombuild-attrib_entity_geombuild-individual_entity_attribute-attrib_HH-attrib $-1 $-1 $-1 $583 F #
vertex $590 $583 $591 #
ellipse-curve $-1 0 8.6736173798840393e-019 0 -8.3300046865633004e-018 1 0 -0.104125 -8.6736173798840393e-019 0 1 I I #
attrib_hh_vertex_geombuild-attrib_entity_geombuild-individual_entity_attribute-attrib_HH-attrib $-1 $-1 $-1 $588 F #
point $-1 -0.104125 8.6736173798840393e-019 0 #
End-of-ACIS-data 