600 0 1 0           
125 GICL ACIS Healer - Source: /gicl/data5/repository/Sandia/Randy_Wilson/discriminator/sh-r44358-000-u/sh-r44358-000-u.sat - 6 0 18 ACIS 6.0.3 Solaris 24 Sat Apr 13 23:37:59 2002 
1 9.999999999999999547e-07 1.000000000000000036e-10 
body $-1 $1 $-1 $2 #
lump $-1 $-1 $3 $0 #
transform $-1 1 0 0 0 1 0 0 0 1 0 0 0 1 no_rotate no_reflect no_shear #
shell $-1 $-1 $-1 $4 $-1 $1 #
face $5 $6 $7 $3 $-1 $8 forward single #
pid_name-sg-attrib $-1 $-1 $-1 $4 7 rwilson 784252905 81 1 #
face $9 $10 $11 $3 $-1 $12 forward single #
loop $-1 $13 $14 $4 #
cone-surface $-1 0 0.02772499999999999964 0 0 -1 0 -0.06232499999999999846 0 0 1 I I 0 1 0.06232499999999999846 forward I I I I #
pid_name-sg-attrib $-1 $-1 $-1 $6 7 rwilson 784252905 82 1 #
face $15 $16 $17 $3 $-1 $18 reversed single #
loop $-1 $-1 $19 $6 #
plane-surface $-1 0 -0.5544999999999999929 0 0 -1 0 0 0 -1 forward_v I I I I #
loop $-1 $-1 $20 $4 #
coedge $-1 $14 $14 $21 $22 forward $7 $-1 #
pid_name-sg-attrib $-1 $-1 $-1 $10 7 rwilson 784252905 83 1 #
face $23 $24 $25 $3 $-1 $26 reversed single #
loop $-1 $27 $28 $10 #
plane-surface $-1 0 -0.5384999999999999787 0 0 -1 0 0 0 -1 forward_v I I I I #
coedge $-1 $19 $19 $20 $29 reversed $11 $-1 #
coedge $-1 $20 $20 $19 $29 forward $13 $-1 #
coedge $-1 $21 $21 $14 $22 reversed $27 $-1 #
edge $-1 $30 -3.141592653589793116 $30 3.141592653589793116 $21 $31 forward 7 unknown #
pid_name-sg-attrib $-1 $-1 $-1 $16 7 rwilson 784252905 84 1 #
face $32 $33 $34 $3 $-1 $35 forward single #
loop $-1 $36 $37 $16 #
torus-surface $-1 0 -0.535499999999999976 0 0 -1 0 0.06124999999999999889 0.003000000000000000062 0 0 -1 forward_v I I I I #
loop $-1 $-1 $21 $10 #
coedge $-1 $28 $28 $38 $39 reversed $17 $-1 #
edge $-1 $40 0 $40 6.283185307179586232 $19 $41 forward 7 unknown #
vertex $-1 $22 $42 #
ellipse-curve $-1 0 -0.5384999999999999787 0 -1.781344604292270115e-15 -1 0 -0.06232499999999999846 1.110223024625159992e-16 0 1 I I #
pid_name-sg-attrib $-1 $-1 $-1 $24 7 rwilson 784252905 85 1 #
face $43 $44 $45 $3 $-1 $46 reversed single #
loop $-1 $47 $48 $24 #
cone-surface $-1 0 0.02772499999999999964 0 0 -1 0 -0.05825000000000000316 0 0 1 I I 0 1 0.05825000000000000316 forward I I I I #
loop $-1 $-1 $38 $16 #
coedge $-1 $37 $37 $49 $50 forward $25 $-1 #
coedge $-1 $38 $38 $28 $39 forward $36 $-1 #
edge $-1 $51 -6.283185307179586232 $51 -0 $28 $52 reversed 7 unknown #
vertex $-1 $29 $53 #
ellipse-curve $-1 0 -0.5544999999999999929 0 0 1 0 -0.06232499999999999846 0 0 1 I I #
point $-1 0.06232499999999999846 -0.5384999999999999787 7.63235910019797013e-18 #
pid_name-sg-attrib $-1 $-1 $-1 $33 7 rwilson 784252905 86 1 #
face $54 $55 $56 $3 $-1 $57 forward single #
loop $-1 $58 $59 $33 #
torus-surface $-1 0 -0.5284999999999999698 0 0 -1 0 0.06124999999999999889 0.003000000000000000062 0 0 -1 forward_v I I I I #
loop $-1 $-1 $49 $24 #
coedge $-1 $48 $48 $60 $61 reversed $34 $-1 #
coedge $-1 $49 $49 $37 $50 reversed $47 $-1 #
edge $-1 $62 -3.141592653589793116 $62 3.141592653589793116 $49 $63 forward 7 unknown #
vertex $-1 $39 $64 #
ellipse-curve $-1 0 -0.5384999999999999787 0 0 -1 0 -0.06124999999999999889 0 0 1 I I #
point $-1 -0.06232499999999999846 -0.5544999999999999929 0 #
pid_name-sg-attrib $-1 $-1 $-1 $44 7 rwilson 784252905 87 1 #
face $65 $66 $67 $3 $-1 $68 forward single #
loop $-1 $69 $70 $44 #
plane-surface $-1 0 -0.5254999999999999671 0 0 -1 0 0 0 -1 forward_v I I I I #
loop $-1 $-1 $60 $33 #
coedge $-1 $59 $59 $71 $72 forward $45 $-1 #
coedge $-1 $60 $60 $48 $61 forward $58 $-1 #
edge $-1 $73 -6.283185307179586232 $73 -0 $48 $74 reversed 7 unknown #
vertex $-1 $50 $75 #
ellipse-curve $-1 0 -0.535499999999999976 0 0 -1 0 -0.05825000000000000316 0 0 1 I I #
point $-1 -0.06124999999999999889 -0.5384999999999999787 0 #
pid_name-sg-attrib $-1 $-1 $-1 $55 7 rwilson 784252905 88 1 #
face $76 $77 $78 $3 $-1 $79 reversed single #
loop $-1 $80 $81 $55 #
cone-surface $-1 0 0.02772499999999999964 0 0 -1 0 -0.06232499999999999846 0 0 1 I I 0 1 0.06232499999999999846 forward I I I I #
loop $-1 $-1 $71 $44 #
coedge $-1 $70 $70 $82 $83 reversed $56 $-1 #
coedge $-1 $71 $71 $59 $72 reversed $69 $-1 #
edge $-1 $84 -3.141592653589793116 $84 3.141592653589793116 $71 $85 forward 7 unknown #
vertex $-1 $61 $86 #
ellipse-curve $-1 0 -0.5284999999999999698 0 0 -1 0 -0.05825000000000000316 0 0 1 I I #
point $-1 0.05825000000000000316 -0.535499999999999976 -7.133332011015350339e-18 #
pid_name-sg-attrib $-1 $-1 $-1 $66 7 rwilson 784252905 89 1 #
face $87 $88 $89 $3 $-1 $90 forward single #
loop $-1 $91 $92 $66 #
torus-surface $-1 0 -0.1285000000000000031 0 0 -1 0 0.06532499999999999418 0.003000000000000000062 0 0 -1 forward_v I I I I #
loop $-1 $-1 $82 $55 #
coedge $-1 $81 $81 $93 $94 reversed $67 $-1 #
coedge $-1 $82 $82 $70 $83 forward $80 $-1 #
edge $-1 $95 -3.141592653589793116 $95 3.141592653589793116 $70 $96 forward 7 unknown #
vertex $-1 $72 $97 #
ellipse-curve $-1 0 -0.5254999999999999671 0 0 -1 0 -0.06124999999999999889 0 0 1 I I #
point $-1 -0.05825000000000000316 -0.5284999999999999698 0 #
pid_name-sg-attrib $-1 $-1 $-1 $77 7 rwilson 784252905 90 1 #
face $98 $99 $100 $3 $-1 $101 forward single #
loop $-1 $102 $103 $77 #
cone-surface $-1 0 0.02772499999999999964 0 0 -1 0 -0.107124999999999998 0 0 1 I I 0 1 0.107124999999999998 forward I I I I #
loop $-1 $-1 $93 $66 #
coedge $-1 $92 $92 $104 $105 forward $78 $-1 #
coedge $-1 $93 $93 $81 $94 forward $91 $-1 #
edge $-1 $106 -6.283185307179586232 $106 -0 $81 $107 reversed 7 unknown #
vertex $-1 $83 $108 #
ellipse-curve $-1 0 -0.5254999999999999671 0 1.781344604292270115e-15 1 0 -0.06232499999999999846 1.110223024625159992e-16 0 1 I I #
point $-1 0.06124999999999999889 -0.5254999999999999671 -7.50071391716205972e-18 #
pid_name-sg-attrib $-1 $-1 $-1 $88 7 rwilson 784252905 91 1 #
face $109 $110 $111 $3 $-1 $112 forward single #
loop $-1 $113 $114 $88 #
plane-surface $-1 0 -0.1255000000000000004 0 0 -1 0 0 0 -1 forward_v I I I I #
loop $-1 $-1 $115 $77 #
coedge $-1 $103 $103 $116 $117 reversed $89 $-1 #
coedge $-1 $104 $104 $92 $105 reversed $113 $-1 #
edge $-1 $118 -3.141592653589793116 $118 3.141592653589793116 $104 $119 forward 7 unknown #
vertex $-1 $94 $120 #
ellipse-curve $-1 0 -0.1285000000000000031 0 0 -1 0 -0.06232499999999999846 0 0 1 I I #
point $-1 0.06232499999999999846 -0.5254999999999999671 7.63261117568588076e-18 #
pid_name-sg-attrib $-1 $-1 $-1 $99 7 rwilson 784252905 92 1 #
face $121 $-1 $122 $3 $-1 $123 reversed single #
loop $-1 $124 $116 $99 #
torus-surface $-1 0 -0.003000000000000000062 0 0 -1 0 0.1041249999999999953 0.003000000000000000062 0 0 -1 forward_v I I I I #
loop $-1 $-1 $104 $88 #
coedge $-1 $114 $114 $115 $125 reversed $100 $-1 #
coedge $-1 $115 $115 $114 $125 forward $102 $-1 #
coedge $-1 $116 $116 $103 $117 forward $111 $-1 #
edge $-1 $126 -6.283185307179586232 $126 -0 $103 $127 reversed 7 unknown #
vertex $-1 $105 $128 #
ellipse-curve $-1 0 -0.1255000000000000004 0 0 -1 0 -0.06532499999999999418 0 0 1 I I #
point $-1 -0.06232499999999999846 -0.1285000000000000031 0 #
pid_name-sg-attrib $-1 $-1 $-1 $110 7 rwilson 784252905 93 1 #
loop $-1 $-1 $129 $110 #
plane-surface $-1 0 0 0 0 -1 0 0 0 -1 forward_v I I I I #
loop $-1 $-1 $130 $99 #
edge $-1 $131 0 $131 6.283185307179586232 $114 $132 forward 7 unknown #
vertex $-1 $117 $133 #
ellipse-curve $-1 0 -0.003000000000000000062 0 0 -1 0 -0.107124999999999998 0 0 1 I I #
point $-1 0.06532499999999999418 -0.1255000000000000004 -7.999741006344679511e-18 #
coedge $-1 $129 $129 $130 $134 reversed $122 $-1 #
coedge $-1 $130 $130 $129 $134 forward $124 $-1 #
vertex $-1 $125 $135 #
ellipse-curve $-1 0 -0.1255000000000000004 0 -2.590952216161390234e-16 1 0 -0.107124999999999998 -2.775557561562890118e-17 0 1 I I #
point $-1 -0.107124999999999998 -0.003000000000000000062 0 #
edge $-1 $136 -6.283185307179586232 $136 -0 $129 $137 reversed 7 unknown #
point $-1 -0.107124999999999998 -0.1255000000000000004 0 #
vertex $-1 $134 $138 #
ellipse-curve $-1 0 8.673617379884039324e-19 0 -8.330004686563300374e-18 1 0 -0.1041249999999999953 -8.673617379884039324e-19 0 1 I I #
point $-1 -0.1041249999999999953 8.673617379884039324e-19 0 #
End-of-ACIS-data 