105 139 1 0                             
body $-1 $1 $-1 $2 #
lump $-1 $-1 $3 $0 #
transform $-1 1 0 0 0 1 0 0 0 1 0 0 0 1 0 0 0 #
shell $-1 $-1 $-1 $4 $1 #
face $5 $6 $7 $3 $-1 $8 forward single #
pid_name-sg-attrib $-1 $-1 $-1 $4 7 114 119 105 108 115 111 110 784252905 81 1 #
face $9 $10 $11 $3 $-1 $12 forward single #
loop $-1 $13 $14 $4 #
cone-surface $-1 0 0.027725 0 0 -1 0 -0.062325 0 0 1 0 1 0 #
pid_name-sg-attrib $-1 $-1 $-1 $6 7 114 119 105 108 115 111 110 784252905 82 1 #
face $15 $16 $17 $3 $-1 $18 reversed single #
loop $-1 $-1 $19 $6 #
plane-surface $-1 0 -0.5545 0 0 -1 0 0 0 -1 0 #
loop $-1 $-1 $20 $4 #
coedge $-1 $14 $14 $21 $22 0 $7 $-1 #
pid_name-sg-attrib $-1 $-1 $-1 $10 7 114 119 105 108 115 111 110 784252905 83 1 #
face $23 $24 $25 $3 $-1 $26 reversed single #
loop $-1 $27 $28 $10 #
plane-surface $-1 0 -0.5385 0 0 -1 0 0 0 -1 0 #
coedge $-1 $19 $19 $20 $29 1 $11 $-1 #
coedge $-1 $20 $20 $19 $29 0 $13 $-1 #
coedge $-1 $21 $21 $14 $22 1 $27 $-1 #
edge $-1 $30 $30 $21 $31 0 #
pid_name-sg-attrib $-1 $-1 $-1 $16 7 114 119 105 108 115 111 110 784252905 84 1 #
face $32 $33 $34 $3 $-1 $35 forward single #
loop $-1 $36 $37 $16 #
torus-surface $-1 0 -0.5355 0 0 -1 0 0.06125 0.003 0 0 -1 0 #
loop $-1 $-1 $21 $10 #
coedge $-1 $28 $28 $38 $39 1 $17 $-1 #
edge $-1 $40 $40 $19 $41 0 #
vertex $-1 $22 $42 #
ellipse-curve $-1 0 -0.5385 0 -1.78134460429227e-15 -1 0 -0.062325 1.11022302462516e-16 0 1 #
pid_name-sg-attrib $-1 $-1 $-1 $24 7 114 119 105 108 115 111 110 784252905 85 1 #
face $43 $44 $45 $3 $-1 $46 reversed single #
loop $-1 $47 $48 $24 #
cone-surface $-1 0 0.027725 0 0 -1 0 -0.05825 0 0 1 0 1 0 #
loop $-1 $-1 $38 $16 #
coedge $-1 $37 $37 $49 $50 0 $25 $-1 #
coedge $-1 $38 $38 $28 $39 0 $36 $-1 #
edge $-1 $51 $51 $28 $52 1 #
vertex $-1 $29 $53 #
ellipse-curve $-1 0 -0.5545 0 0 1 0 -0.062325 0 0 1 #
point $-1 0.062325 -0.5385 7.63235910019797e-18 #
pid_name-sg-attrib $-1 $-1 $-1 $33 7 114 119 105 108 115 111 110 784252905 86 1 #
face $54 $55 $56 $3 $-1 $57 forward single #
loop $-1 $58 $59 $33 #
torus-surface $-1 0 -0.5285 0 0 -1 0 0.06125 0.003 0 0 -1 0 #
loop $-1 $-1 $49 $24 #
coedge $-1 $48 $48 $60 $61 1 $34 $-1 #
coedge $-1 $49 $49 $37 $50 1 $47 $-1 #
edge $-1 $62 $62 $49 $63 0 #
vertex $-1 $39 $64 #
ellipse-curve $-1 0 -0.5385 0 0 -1 0 -0.06125 0 0 1 #
point $-1 -0.062325 -0.5545 0 #
pid_name-sg-attrib $-1 $-1 $-1 $44 7 114 119 105 108 115 111 110 784252905 87 1 #
face $65 $66 $67 $3 $-1 $68 forward single #
loop $-1 $69 $70 $44 #
plane-surface $-1 0 -0.5255 0 0 -1 0 0 0 -1 0 #
loop $-1 $-1 $60 $33 #
coedge $-1 $59 $59 $71 $72 0 $45 $-1 #
coedge $-1 $60 $60 $48 $61 0 $58 $-1 #
edge $-1 $73 $73 $48 $74 1 #
vertex $-1 $50 $75 #
ellipse-curve $-1 0 -0.5355 0 0 -1 0 -0.05825 0 0 1 #
point $-1 -0.06125 -0.5385 0 #
pid_name-sg-attrib $-1 $-1 $-1 $55 7 114 119 105 108 115 111 110 784252905 88 1 #
face $76 $77 $78 $3 $-1 $79 reversed single #
loop $-1 $80 $81 $55 #
cone-surface $-1 0 0.027725 0 0 -1 0 -0.062325 0 0 1 0 1 0 #
loop $-1 $-1 $71 $44 #
coedge $-1 $70 $70 $82 $83 1 $56 $-1 #
coedge $-1 $71 $71 $59 $72 1 $69 $-1 #
edge $-1 $84 $84 $71 $85 0 #
vertex $-1 $61 $86 #
ellipse-curve $-1 0 -0.5285 0 0 -1 0 -0.05825 0 0 1 #
point $-1 0.05825 -0.5355 -7.13333201101535e-18 #
pid_name-sg-attrib $-1 $-1 $-1 $66 7 114 119 105 108 115 111 110 784252905 89 1 #
face $87 $88 $89 $3 $-1 $90 forward single #
loop $-1 $91 $92 $66 #
torus-surface $-1 0 -0.1285 0 0 -1 0 0.065325 0.003 0 0 -1 0 #
loop $-1 $-1 $82 $55 #
coedge $-1 $81 $81 $93 $94 1 $67 $-1 #
coedge $-1 $82 $82 $70 $83 0 $80 $-1 #
edge $-1 $95 $95 $70 $96 0 #
vertex $-1 $72 $97 #
ellipse-curve $-1 0 -0.5255 0 0 -1 0 -0.06125 0 0 1 #
point $-1 -0.05825 -0.5285 0 #
pid_name-sg-attrib $-1 $-1 $-1 $77 7 114 119 105 108 115 111 110 784252905 90 1 #
face $98 $99 $100 $3 $-1 $101 forward single #
loop $-1 $102 $103 $77 #
cone-surface $-1 0 0.027725 0 0 -1 0 -0.107125 0 0 1 0 1 0 #
loop $-1 $-1 $93 $66 #
coedge $-1 $92 $92 $104 $105 0 $78 $-1 #
coedge $-1 $93 $93 $81 $94 0 $91 $-1 #
edge $-1 $106 $106 $81 $107 1 #
vertex $-1 $83 $108 #
ellipse-curve $-1 0 -0.5255 0 1.78134460429227e-15 1 0 -0.062325 1.11022302462516e-16 0 1 #
point $-1 0.06125 -0.5255 -7.50071391716206e-18 #
pid_name-sg-attrib $-1 $-1 $-1 $88 7 114 119 105 108 115 111 110 784252905 91 1 #
face $109 $110 $111 $3 $-1 $112 forward single #
loop $-1 $113 $114 $88 #
plane-surface $-1 0 -0.1255 0 0 -1 0 0 0 -1 0 #
loop $-1 $-1 $115 $77 #
coedge $-1 $103 $103 $116 $117 1 $89 $-1 #
coedge $-1 $104 $104 $92 $105 1 $113 $-1 #
edge $-1 $118 $118 $104 $119 0 #
vertex $-1 $94 $120 #
ellipse-curve $-1 0 -0.1285 0 0 -1 0 -0.062325 0 0 1 #
point $-1 0.062325 -0.5255 7.63261117568588e-18 #
pid_name-sg-attrib $-1 $-1 $-1 $99 7 114 119 105 108 115 111 110 784252905 92 1 #
face $121 $-1 $122 $3 $-1 $123 reversed single #
loop $-1 $124 $116 $99 #
torus-surface $-1 0 -0.003 0 0 -1 0 0.104125 0.003 0 0 -1 0 #
loop $-1 $-1 $104 $88 #
coedge $-1 $114 $114 $115 $125 1 $100 $-1 #
coedge $-1 $115 $115 $114 $125 0 $102 $-1 #
coedge $-1 $116 $116 $103 $117 0 $111 $-1 #
edge $-1 $126 $126 $103 $127 1 #
vertex $-1 $105 $128 #
ellipse-curve $-1 0 -0.1255 0 0 -1 0 -0.065325 0 0 1 #
point $-1 -0.062325 -0.1285 0 #
pid_name-sg-attrib $-1 $-1 $-1 $110 7 114 119 105 108 115 111 110 784252905 93 1 #
loop $-1 $-1 $129 $110 #
plane-surface $-1 0 0 0 0 -1 0 0 0 -1 0 #
loop $-1 $-1 $130 $99 #
edge $-1 $131 $131 $114 $132 0 #
vertex $-1 $117 $133 #
ellipse-curve $-1 0 -0.003 0 0 -1 0 -0.107125 0 0 1 #
point $-1 0.065325 -0.1255 -7.99974100634468e-18 #
coedge $-1 $129 $129 $130 $134 1 $122 $-1 #
coedge $-1 $130 $130 $129 $134 0 $124 $-1 #
vertex $-1 $125 $135 #
ellipse-curve $-1 0 -0.1255 0 -2.59095221616139e-16 1 0 -0.107125 -2.77555756156289e-17 0 1 #
point $-1 -0.107125 -0.003 0 #
edge $-1 $136 $136 $129 $137 1 #
point $-1 -0.107125 -0.1255 0 #
vertex $-1 $134 $138 #
ellipse-curve $-1 0 8.67361737988404e-19 0 -8.3300046865633e-18 1 0 -0.104125 -8.67361737988404e-19 0 1 #
point $-1 -0.104125 8.67361737988404e-19 0 #
