600 0 2 0           
24 FBMach with ACIS - 6.0.3 13 ACIS 6.0.3 NT 24 Wed May 23 19:35:16 2001 
1 9.9999999999999995e-007 1e-010 
body $2 $3 $-1 $4 #
bdycol-kcp $-1 1 3 $5 $6 $7 #
model_id-kcp-attrib $-1 $-1 $-1 $0 1 990660916 50 -533594111 1 #
lump $-1 $-1 $8 $0 #
transform $-1 1 0 0 0 1 0 0 0 1 0 0 0 1 no_rotate no_reflect no_shear #
body $9 $10 $-1 $11 #
body $12 $13 $-1 $14 #
body $15 $16 $-1 $17 #
shell $-1 $-1 $-1 $18 $-1 $3 #
model_id-kcp-attrib $-1 $-1 $-1 $5 1 990660916 50 -533594110 1 #
lump $-1 $-1 $19 $5 #
transform $-1 1 0 0 0 1 0 0 0 1 0 -0.27725 0 1 no_rotate no_reflect no_shear #
rgb_color-st-attrib $-1 $20 $-1 $6 0.5 1 1 #
lump $-1 $-1 $21 $6 #
transform $-1 1 0 0 0 1 0 0 0 1 0 -0.27725 0 1 no_rotate no_reflect no_shear #
rgb_color-st-attrib $-1 $22 $-1 $7 1 0.5 1 #
lump $-1 $-1 $23 $7 #
transform $-1 1 0 0 0 1 0 0 0 1 0 -0.27725 0 1 no_rotate no_reflect no_shear #
face $24 $25 $26 $8 $-1 $27 forward single #
shell $-1 $-1 $-1 $28 $-1 $10 #
model_id-kcp-attrib $-1 $-1 $12 $6 1 990660916 130 -528351229 1 #
shell $-1 $-1 $-1 $29 $-1 $13 #
model_id-kcp-attrib $-1 $-1 $15 $7 1 990660916 290 -534642684 1 #
shell $-1 $-1 $-1 $30 $-1 $16 #
model_id-kcp-attrib $-1 $31 $-1 $18 1 990660916 50 -533594111 2 #
face $32 $33 $34 $8 $-1 $35 forward single #
loop $-1 $36 $37 $18 #
cone-surface $-1 0 0.027725 0 0 -1 0 -0.062324999999999998 0 0 1 I I 0 1 0.062324999999999998 forward I I I I #
face $-1 $38 $39 $19 $-1 $40 forward single #
face $-1 $41 $42 $21 $-1 $43 reversed single #
face $-1 $44 $45 $23 $-1 $46 reversed single #
pid_name-sg-attrib $-1 $-1 $24 $18 7 114 119 105 108 115 111 110 784252905 81 1 #
model_id-kcp-attrib $-1 $47 $-1 $25 1 990660916 50 -533594111 15 #
face $48 $49 $50 $8 $-1 $51 reversed single #
loop $-1 $-1 $52 $25 #
plane-surface $-1 0 -0.55449999999999999 0 0 -1 0 0 0 -1 forward_v I I I I #
loop $-1 $-1 $53 $18 #
coedge $-1 $37 $37 $54 $55 forward $26 $-1 #
face $-1 $56 $57 $19 $-1 $58 reversed single #
loop $-1 $-1 $59 $28 #
plane-surface $-1 0 0 0.107125 0 0 1 1 0 0 forward_v I I I I #
face $-1 $60 $61 $21 $-1 $43 reversed single #
loop $-1 $-1 $62 $29 #
cone-surface $-1 4.0162788706299122e-034 -0.27725 0 0 -1 0 0.107125 0 -1.3118595565322216e-017 1 I I 0 1 0.107125 forward I I I I #
face $-1 $63 $64 $23 $-1 $65 forward single #
loop $-1 $66 $67 $30 #
plane-surface $-1 -0.008240656267603742 -0.24824999999999992 3.8871363947612184e-019 1.0030773293037269e-032 1 -1.5046159939555901e-032 0 1.5046159939555901e-032 1 forward_v I I I I #
model_id-kcp-attrib $-1 $68 $32 $25 1 990660916 50 -533594111 3 #
model_id-kcp-attrib $-1 $69 $-1 $33 1 990660916 50 -533594111 4 #
face $70 $71 $72 $8 $-1 $73 reversed single #
loop $-1 $74 $75 $33 #
plane-surface $-1 0 -0.53849999999999998 0 0 -1 0 0 0 -1 forward_v I I I I #
coedge $-1 $52 $52 $53 $76 reversed $34 $-1 #
coedge $-1 $53 $53 $52 $76 forward $36 $-1 #
coedge $-1 $54 $54 $37 $55 reversed $74 $-1 #
edge $-1 $77 -3.1415926535897931 $77 3.1415926535897931 $54 $78 forward 7 unknown #
face $79 $80 $81 $19 $-1 $82 reversed single #
loop $-1 $-1 $83 $38 #
plane-surface $-1 0 0 -0.107125 0 0 1 1 0 0 forward_v I I I I #
coedge $-1 $84 $85 $86 $87 forward $39 $-1 #
face $-1 $88 $89 $21 $-1 $43 reversed single #
loop $-1 $-1 $90 $41 #
coedge $-1 $91 $92 $93 $94 reversed $42 $-1 #
face $95 $96 $97 $23 $-1 $98 reversed single #
loop $-1 $99 $100 $44 #
cone-surface $-1 4.0162788706299122e-034 -0.27725 0 0 -1 0 0.107125 0 -1.3118595565322216e-017 1 I I 0 1 0.107125 forward I I I I #
loop $-1 $-1 $101 $30 #
coedge $-1 $67 $67 $102 $103 forward $45 $-1 #
pid_name-sg-attrib $-1 $-1 $47 $25 7 114 119 105 108 115 111 110 784252905 82 1 #
pid_name-sg-attrib $-1 $-1 $48 $33 7 114 119 105 108 115 111 110 784252905 83 1 #
model_id-kcp-attrib $-1 $104 $-1 $49 1 990660916 50 -533594111 5 #
face $105 $106 $107 $8 $-1 $108 forward single #
loop $-1 $109 $110 $49 #
torus-surface $-1 0 -0.53549999999999998 0 0 -1 0 0.061249999999999999 0.0030000000000000001 0 0 -1 forward_v I I I I #
loop $-1 $-1 $54 $33 #
coedge $-1 $75 $75 $111 $112 reversed $50 $-1 #
edge $113 $114 0 $114 6.2831853071795862 $52 $115 forward 7 unknown #
vertex $-1 $55 $116 #
ellipse-curve $-1 0 -0.53849999999999998 0 -1.7813446042922701e-015 -1 0 -0.062324999999999998 1.11022302462516e-016 0 1 I I #
model_id-kcp-attrib $-1 $-1 $-1 $56 1 990660916 50 -533594110 2 #
face $-1 $117 $118 $19 $-1 $119 reversed single #
loop $-1 $-1 $120 $56 #
plane-surface $-1 0 -0.27725 0 0 1 0 0 0 1 forward_v I I I I #
coedge $-1 $121 $122 $123 $124 forward $57 $-1 #
coedge $-1 $125 $59 $126 $127 forward $39 $-1 #
coedge $-1 $59 $125 $128 $129 forward $39 $-1 #
coedge $-1 $130 $131 $59 $87 reversed $132 $-1 #
edge $-1 $133 -0.27725 $134 0.27725 $86 $135 forward 7 unknown #
face $-1 $136 $137 $21 $-1 $43 reversed single #
loop $-1 $-1 $138 $60 #
coedge $-1 $139 $140 $141 $142 reversed $61 $-1 #
coedge $-1 $143 $62 $144 $145 forward $42 $-1 #
coedge $-1 $62 $143 $146 $147 reversed $42 $-1 #
coedge $-1 $148 $149 $62 $94 forward $150 $-1 #
edge $-1 $151 1.2246063538223773e-016 $152 1.5707963267948968 $93 $153 forward 7 unknown #
pid_name-sg-attrib $-1 $-1 $-1 $63 7 114 119 105 108 115 111 110 784252905 88 1 #
face $154 $155 $156 $23 $-1 $157 forward single #
loop $-1 $158 $159 $63 #
cone-surface $-1 0 0.304975 0 0 -1 0 -0.062324999999999998 0 0 1 I I 0 1 0.062324999999999998 forward I I I I #
loop $-1 $-1 $160 $44 #
coedge $-1 $100 $100 $161 $162 reversed $64 $-1 #
coedge $-1 $101 $101 $160 $163 forward $66 $-1 #
coedge $-1 $102 $102 $67 $103 reversed $158 $-1 #
edge $-1 $164 -3.1415926535897931 $164 3.1415926535897931 $102 $165 forward 7 unknown #
pid_name-sg-attrib $-1 $-1 $70 $49 7 114 119 105 108 115 111 110 784252905 84 1 #
model_id-kcp-attrib $-1 $166 $-1 $71 1 990660916 50 -533594111 6 #
face $167 $168 $169 $8 $-1 $170 reversed single #
loop $-1 $171 $172 $71 #
cone-surface $-1 0 0.027725 0 0 -1 0 -0.058250000000000003 0 0 1 I I 0 1 0.058250000000000003 forward I I I I #
loop $-1 $-1 $111 $49 #
coedge $-1 $110 $110 $173 $174 forward $72 $-1 #
coedge $-1 $111 $111 $75 $112 forward $109 $-1 #
edge $-1 $175 -6.2831853071795862 $175 0 $75 $176 reversed 7 unknown #
attrib_edge_convexity-kcp-attrib $-1 $177 $-1 $76 1 #
vertex $-1 $76 $178 #
ellipse-curve $-1 0 -0.55449999999999999 0 0 1 0 -0.062324999999999998 0 0 1 I I #
point $-1 0.062324999999999998 -0.53849999999999998 7.6323591001979701e-018 #
face $179 $180 $181 $19 $-1 $182 reversed single #
loop $-1 $-1 $183 $80 #
plane-surface $-1 -0.107125 0 0 1 0 0 0 0 -1 forward_v I I I I #
coedge $-1 $184 $128 $185 $186 forward $81 $-1 #
coedge $-1 $187 $83 $184 $188 forward $57 $-1 #
coedge $-1 $83 $187 $189 $190 forward $57 $-1 #
coedge $-1 $131 $130 $83 $124 reversed $132 $-1 #
edge $-1 $191 -0.27725 $192 0.27725 $123 $193 forward 7 unknown #
coedge $-1 $85 $84 $194 $195 forward $39 $-1 #
coedge $-1 $196 $197 $84 $127 reversed $181 $-1 #
edge $-1 $134 -0.107125 $198 0.107125 $126 $199 forward 7 unknown #
coedge $-1 $120 $200 $85 $129 reversed $81 $-1 #
edge $-1 $201 -0.107125 $133 0.107125 $128 $202 forward 7 unknown #
coedge $-1 $123 $86 $200 $203 forward $132 $-1 #
coedge $-1 $86 $123 $196 $204 reversed $132 $-1 #
loop $-1 $-1 $130 $180 #
vertex $-1 $87 $205 #
vertex $-1 $87 $206 #
straight-curve $-1 0.107125 0 0.107125 0 1 0 I I #
face $-1 $207 $208 $21 $-1 $209 forward single #
loop $-1 $-1 $210 $88 #
coedge $-1 $211 $212 $210 $213 forward $89 $-1 #
coedge $-1 $214 $90 $215 $216 reversed $61 $-1 #
coedge $-1 $90 $214 $92 $147 forward $61 $-1 #
coedge $-1 $217 $218 $90 $142 forward $219 $-1 #
edge $-1 $220 -3.1415926535897931 $221 -1.5707963267948968 $141 $222 forward 7 unknown #
coedge $-1 $92 $91 $223 $224 reversed $42 $-1 #
coedge $-1 $212 $211 $225 $145 reversed $89 $-1 #
edge $-1 $151 -0.55449999999999999 $226 0 $225 $227 forward 7 unknown #
coedge $-1 $228 $229 $230 $147 forward $231 $-1 #
edge $-1 $152 -0.55449999999999999 $221 0 $146 $232 forward 7 unknown #
coedge $-1 $149 $93 $229 $233 reversed $150 $-1 #
coedge $-1 $93 $148 $234 $235 forward $150 $-1 #
loop $-1 $-1 $93 $236 #
vertex $-1 $237 $238 #
vertex $-1 $239 $240 #
ellipse-curve $-1 4.0162788706299122e-034 0.27725 0 0 -1 0 0.107125 0 -1.3118595565322216e-017 1 I I #
pid_name-sg-attrib $-1 $-1 $-1 $96 7 114 119 105 108 115 111 110 784252905 89 1 #
face $-1 $-1 $241 $23 $-1 $242 reversed single #
loop $-1 $243 $244 $96 #
torus-surface $-1 0 0.14874999999999999 0 0 -1 0 0.065324999999999994 0.0030000000000000001 0 0 -1 forward_v I I I I #
loop $-1 $-1 $102 $63 #
coedge $-1 $159 $159 $245 $246 forward $97 $-1 #
coedge $-1 $160 $160 $101 $163 reversed $99 $-1 #
coedge $-1 $161 $161 $100 $162 forward $241 $-1 #
edge $247 $248 -3.1415926535897931 $248 3.1415926535897931 $100 $249 forward 7 unknown #
edge $-1 $250 -3.1415926535897931 $250 3.1415926535897931 $160 $251 forward 7 unknown #
vertex $-1 $103 $252 #
ellipse-curve $-1 0 -0.24824999999999997 0 1.7813446042922701e-015 1 0 -0.062324999999999998 1.11022302462516e-016 0 1 I I #
pid_name-sg-attrib $-1 $-1 $105 $71 7 114 119 105 108 115 111 110 784252905 85 1 #
model_id-kcp-attrib $-1 $253 $-1 $106 1 990660916 50 -533594111 7 #
face $254 $255 $256 $8 $-1 $257 forward single #
loop $-1 $258 $259 $106 #
torus-surface $-1 0 -0.52849999999999997 0 0 -1 0 0.061249999999999999 0.0030000000000000001 0 0 -1 forward_v I I I I #
loop $-1 $-1 $173 $71 #
coedge $-1 $172 $172 $260 $261 reversed $107 $-1 #
coedge $-1 $173 $173 $110 $174 reversed $171 $-1 #
edge $-1 $262 -3.1415926535897931 $262 3.1415926535897931 $173 $263 forward 7 unknown #
vertex $-1 $112 $264 #
ellipse-curve $-1 0 -0.53849999999999998 0 0 -1 0 -0.061249999999999999 0 0 1 I I #
convexity-sys-attrib $-1 $-1 $113 $76 #
point $-1 -0.062324999999999998 -0.55449999999999999 0 #
model_id-kcp-attrib $-1 $-1 $-1 $117 1 990660916 50 -533594110 3 #
face $-1 $-1 $132 $19 $-1 $265 reversed single #
loop $-1 $-1 $196 $117 #
plane-surface $-1 0 0.27725 0 0 -1 0 0 0 -1 forward_v I I I I #
coedge $-1 $266 $194 $197 $267 forward $118 $-1 #
coedge $-1 $200 $120 $121 $188 reversed $81 $-1 #
coedge $-1 $194 $266 $120 $186 reversed $118 $-1 #
edge $-1 $201 -0.107125 $268 0.107125 $185 $269 forward 7 unknown #
coedge $-1 $122 $121 $266 $270 forward $57 $-1 #
edge $-1 $192 -0.107125 $268 0.107125 $184 $271 forward 7 unknown #
coedge $-1 $197 $196 $122 $190 reversed $181 $-1 #
edge $-1 $272 -0.107125 $191 0.107125 $189 $273 forward 7 unknown #
vertex $-1 $124 $274 #
vertex $-1 $203 $275 #
straight-curve $-1 0.107125 0 -0.107125 0 -1 0 I I #
coedge $-1 $183 $185 $125 $195 reversed $118 $-1 #
edge $-1 $198 -0.27725 $201 0.27725 $194 $276 forward 7 unknown #
coedge $-1 $189 $126 $131 $204 forward $181 $-1 #
coedge $-1 $126 $189 $183 $267 reversed $181 $-1 #
vertex $-1 $127 $277 #
straight-curve $-1 0 0.27725 0.107125 -1 0 0 I I #
coedge $-1 $128 $184 $130 $203 reversed $81 $-1 #
vertex $-1 $195 $278 #
straight-curve $-1 0 -0.27725 0.107125 1 0 0 I I #
edge $-1 $133 -0.107125 $192 0.107125 $130 $279 forward 7 unknown #
edge $-1 $134 -0.107125 $191 0.107125 $131 $280 forward 7 unknown #
point $-1 0.107125 -0.27725 0.107125 #
point $-1 0.107125 0.27725 0.107125 #
face $-1 $281 $282 $21 $-1 $283 reversed single #
loop $-1 $-1 $230 $136 #
plane-surface $-1 0 0 0.107125 0 0 1 1 0 0 forward_v I I I I #
coedge $-1 $284 $285 $286 $213 reversed $137 $-1 #
coedge $-1 $144 $138 $287 $288 reversed $89 $-1 #
coedge $-1 $138 $144 $289 $290 reversed $89 $-1 #
edge $-1 $291 -0.55449999999999999 $292 0 $286 $293 forward 7 unknown #
coedge $-1 $140 $139 $294 $295 reversed $61 $-1 #
coedge $-1 $296 $297 $298 $216 forward $299 $-1 #
edge $-1 $300 -0.55449999999999999 $220 0 $215 $301 forward 7 unknown #
coedge $-1 $218 $141 $302 $303 reversed $219 $-1 #
coedge $-1 $141 $217 $296 $304 forward $219 $-1 #
loop $-1 $-1 $141 $305 #
vertex $-1 $306 $307 #
vertex $-1 $308 $309 #
ellipse-curve $-1 4.0162788706299122e-034 -0.27725 0 0 1 0 0.107125 0 -1.3118595565322216e-017 1 I I #
coedge $-1 $310 $311 $143 $224 forward $312 $-1 #
edge $-1 $221 -1.5707963267948968 $226 -1.2246063538223773e-016 $223 $222 forward 7 unknown #
coedge $-1 $313 $314 $315 $145 forward $282 $-1 #
vertex $-1 $316 $317 #
straight-curve $-1 0.107125 -0.27725 0 0 -1 0 I I #
coedge $-1 $318 $146 $311 $308 forward $231 $-1 #
coedge $-1 $146 $318 $148 $233 forward $231 $-1 #
coedge $-1 $319 $302 $140 $147 reversed $208 $-1 #
loop $-1 $-1 $146 $320 #
straight-curve $-1 4.0162788706299122e-034 -0.27725 0.107125 0 -1 0 I I #
edge $-1 $321 -0.107125 $152 -4.0162788706299122e-034 $148 $322 forward 7 unknown #
coedge $-1 $323 $315 $149 $235 reversed $324 $-1 #
edge $-1 $321 -0.107125 $151 0 $234 $325 forward 7 unknown #
face $-1 $326 $150 $21 $-1 $327 reversed single #
edge $-1 $151 0 $328 0.107125 $314 $325 forward 7 unknown #
point $-1 0.107125 0.27725 0 #
edge $-1 $152 -4.0162788706299122e-034 $329 0.107125 $330 $322 forward 7 unknown #
point $-1 4.0162788706299122e-034 0.27725 0.107125 #
loop $-1 $331 $161 $155 #
plane-surface $-1 0 0.15174999999999994 0 0 -1 0 1 0 0 forward_v I I I I #
loop $-1 $-1 $245 $96 #
coedge $-1 $244 $244 $332 $333 forward $156 $-1 #
coedge $-1 $245 $245 $159 $246 reversed $243 $-1 #
edge $334 $335 -6.2831853071795862 $335 0 $159 $336 reversed 7 unknown #
convexity-sys-attrib $-1 $-1 $-1 $162 #
vertex $-1 $162 $337 #
ellipse-curve $-1 4.0162788706299122e-034 0.15174999999999994 0 0 1 0 0.107125 0 -1.3118595565322216e-017 1 I I #
vertex $-1 $163 $338 #
ellipse-curve $-1 4.0162788706299122e-034 -0.24824999999999992 0 -1.0030773293037269e-032 -1 1.5046159939555901e-032 0.107125 0 -1.3118595565322216e-017 1 I I #
point $-1 0.062324999999999998 -0.24824999999999997 7.6326111756858808e-018 #
pid_name-sg-attrib $-1 $-1 $167 $106 7 114 119 105 108 115 111 110 784252905 86 1 #
model_id-kcp-attrib $-1 $339 $-1 $168 1 990660916 50 -533594111 8 #
face $340 $341 $342 $8 $-1 $343 forward single #
loop $-1 $344 $345 $168 #
plane-surface $-1 0 -0.52549999999999997 0 0 -1 0 0 0 -1 forward_v I I I I #
loop $-1 $-1 $260 $106 #
coedge $-1 $259 $259 $346 $347 forward $169 $-1 #
coedge $-1 $260 $260 $172 $261 forward $258 $-1 #
edge $-1 $348 -6.2831853071795862 $348 0 $172 $349 reversed 7 unknown #
vertex $-1 $174 $350 #
ellipse-curve $-1 0 -0.53549999999999998 0 0 -1 0 -0.058250000000000003 0 0 1 I I #
point $-1 -0.061249999999999999 -0.53849999999999998 0 #
plane-surface $-1 0.107125 0 0 -1 0 0 0 0 1 forward_v I I I I #
coedge $-1 $185 $183 $187 $270 reversed $118 $-1 #
edge $-1 $198 -0.107125 $272 0.107125 $197 $351 forward 7 unknown #
vertex $-1 $270 $352 #
straight-curve $-1 -0.107125 -0.27725 0 0 0 -1 I I #
edge $-1 $268 -0.27725 $272 0.27725 $266 $353 forward 7 unknown #
straight-curve $-1 0 -0.27725 -0.107125 -1 0 0 I I #
vertex $-1 $190 $354 #
straight-curve $-1 0 0.27725 -0.107125 1 0 0 I I #
point $-1 0.107125 0.27725 -0.107125 #
point $-1 0.107125 -0.27725 -0.107125 #
straight-curve $-1 -0.107125 0 0.107125 0 -1 0 I I #
point $-1 -0.107125 0.27725 0.107125 #
point $-1 -0.107125 -0.27725 0.107125 #
straight-curve $-1 0.107125 -0.27725 0 0 0 -1 I I #
straight-curve $-1 0.107125 0.27725 0 0 0 -1 I I #
face $-1 $355 $356 $21 $-1 $357 reversed single #
loop $-1 $-1 $225 $207 #
plane-surface $-1 0.107125 0 0 -1 0 0 0 0 1 forward_v I I I I #
coedge $-1 $358 $210 $359 $360 reversed $137 $-1 #
coedge $-1 $210 $358 $361 $362 reversed $137 $-1 #
coedge $-1 $363 $364 $365 $213 forward $366 $-1 #
coedge $-1 $367 $368 $211 $288 forward $369 $-1 #
edge $-1 $226 -1.2246063538223773e-016 $292 1.5707963267948966 $287 $222 forward 7 unknown #
coedge $-1 $370 $371 $212 $290 forward $372 $-1 #
edge $-1 $291 -1.5707963267948966 $151 1.2246063538223773e-016 $289 $153 forward 7 unknown #
vertex $-1 $373 $374 #
vertex $-1 $375 $376 #
straight-curve $-1 4.0162788706299122e-034 -0.27725 -0.107125 0 -1 0 I I #
coedge $-1 $377 $330 $214 $295 forward $378 $-1 #
edge $-1 $152 1.5707963267948968 $300 3.1415926535897931 $294 $153 forward 7 unknown #
coedge $-1 $379 $215 $218 $304 reversed $299 $-1 #
coedge $-1 $215 $379 $377 $380 forward $299 $-1 #
coedge $-1 $381 $382 $358 $216 reversed $356 $-1 #
loop $-1 $-1 $215 $383 #
vertex $-1 $384 $385 #
straight-curve $-1 -0.107125 -0.27725 0 0 -1 0 I I #
coedge $-1 $230 $386 $217 $303 forward $208 $-1 #
edge $-1 $387 -0.107125 $221 4.0162788706299122e-034 $217 $388 forward 7 unknown #
edge $-1 $387 -0.107125 $220 0 $296 $389 forward 7 unknown #
face $-1 $390 $219 $21 $-1 $391 reversed single #
edge $-1 $220 0 $392 0.107125 $382 $389 forward 7 unknown #
point $-1 -0.107125 -0.27725 0 #
edge $-1 $221 4.0162788706299122e-034 $393 0.107125 $311 $388 forward 7 unknown #
point $-1 4.0162788706299122e-034 -0.27725 0.107125 #
coedge $-1 $311 $223 $394 $395 reversed $312 $-1 #
coedge $-1 $223 $310 $228 $308 reversed $312 $-1 #
loop $-1 $-1 $223 $390 #
coedge $-1 $396 $225 $368 $316 forward $282 $-1 #
coedge $-1 $225 $396 $370 $237 reversed $282 $-1 #
coedge $-1 $234 $394 $91 $145 reversed $324 $-1 #
edge $-1 $226 0 $397 0.107125 $313 $398 forward 7 unknown #
point $-1 0.107125 -0.27725 0 #
coedge $-1 $229 $228 $323 $399 forward $231 $-1 #
coedge $-1 $386 $230 $330 $239 forward $208 $-1 #
face $-1 $400 $231 $21 $-1 $209 forward single #
vertex $-1 $399 $401 #
straight-curve $-1 0 0.27725 0.107125 -1 0 0 I I #
coedge $-1 $394 $234 $318 $399 reversed $324 $-1 #
loop $-1 $-1 $315 $402 #
straight-curve $-1 0.107125 0.27725 0 0 0 -1 I I #
face $-1 $403 $378 $21 $-1 $327 reversed single #
plane-surface $-1 0 0.27725 0 0 -1 0 0 0 -1 forward_v I I I I #
vertex $-1 $404 $405 #
vertex $-1 $239 $406 #
coedge $-1 $294 $377 $319 $239 reversed $378 $-1 #
loop $-1 $-1 $332 $155 #
coedge $-1 $332 $332 $244 $333 reversed $331 $-1 #
edge $407 $408 -1.5707963267948966 $408 4.7123889803846897 $332 $409 forward 7 unknown #
convexity-sys-attrib $-1 $-1 $-1 $246 #
vertex $-1 $246 $410 #
ellipse-curve $-1 0 0.14874999999999999 0 0 -1 0 -0.062324999999999998 0 0 1 I I #
point $-1 -0.107125 0.15174999999999994 2.6237191130644432e-017 #
point $-1 -0.107125 -0.24824999999999992 2.6237191130644432e-017 #
pid_name-sg-attrib $-1 $-1 $254 $168 7 114 119 105 108 115 111 110 784252905 87 1 #
model_id-kcp-attrib $-1 $411 $-1 $255 1 990660916 50 -533594111 9 #
face $412 $413 $414 $8 $-1 $415 reversed single #
loop $-1 $416 $417 $255 #
cone-surface $-1 0 0.027725 0 0 -1 0 -0.062324999999999998 0 0 1 I I 0 1 0.062324999999999998 forward I I I I #
loop $-1 $-1 $346 $168 #
coedge $-1 $345 $345 $418 $419 reversed $256 $-1 #
coedge $-1 $346 $346 $259 $347 reversed $344 $-1 #
edge $-1 $420 -3.1415926535897931 $420 3.1415926535897931 $346 $421 forward 7 unknown #
vertex $-1 $261 $422 #
ellipse-curve $-1 0 -0.52849999999999997 0 0 -1 0 -0.058250000000000003 0 0 1 I I #
point $-1 0.058250000000000003 -0.53549999999999998 -7.1333320110153503e-018 #
straight-curve $-1 -0.107125 0.27725 0 0 0 -1 I I #
point $-1 -0.107125 -0.27725 -0.107125 #
straight-curve $-1 -0.107125 0 -0.107125 0 1 0 I I #
point $-1 -0.107125 0.27725 -0.107125 #
face $-1 $305 $423 $21 $-1 $391 reversed single #
loop $-1 $-1 $298 $281 #
plane-surface $-1 -0.107125 0 0 1 0 0 0 0 -1 forward_v I I I I #
coedge $-1 $285 $284 $139 $216 forward $137 $-1 #
coedge $-1 $424 $425 $284 $360 forward $426 $-1 #
edge $-1 $300 -3.1415926535897931 $291 -1.5707963267948966 $359 $153 forward 7 unknown #
coedge $-1 $427 $428 $285 $362 forward $423 $-1 #
edge $-1 $292 1.5707963267948966 $220 3.1415926535897931 $361 $222 forward 7 unknown #
coedge $-1 $429 $286 $428 $375 forward $366 $-1 #
coedge $-1 $286 $429 $424 $430 forward $366 $-1 #
coedge $-1 $431 $432 $138 $213 reversed $433 $-1 #
loop $-1 $-1 $286 $400 #
coedge $-1 $368 $287 $432 $434 reversed $369 $-1 #
coedge $-1 $287 $367 $313 $316 reversed $369 $-1 #
loop $-1 $-1 $287 $435 #
coedge $-1 $371 $289 $314 $237 forward $372 $-1 #
coedge $-1 $289 $370 $431 $373 reversed $372 $-1 #
loop $-1 $-1 $289 $436 #
edge $-1 $291 4.0162788706299122e-034 $328 0.107125 $371 $437 forward 7 unknown #
point $-1 4.0162788706299122e-034 0.27725 -0.107125 #
edge $-1 $292 -4.0162788706299122e-034 $392 0.107125 $428 $438 forward 7 unknown #
point $-1 4.0162788706299122e-034 -0.27725 -0.107125 #
coedge $-1 $330 $294 $297 $380 reversed $378 $-1 #
loop $-1 $-1 $294 $326 #
coedge $-1 $297 $296 $386 $439 reversed $299 $-1 #
edge $-1 $329 -0.107125 $300 0 $377 $440 forward 7 unknown #
coedge $-1 $441 $298 $425 $384 forward $356 $-1 #
coedge $-1 $298 $441 $427 $306 reversed $356 $-1 #
face $-1 $402 $299 $21 $-1 $357 reversed single #
edge $-1 $300 0 $442 0.107125 $425 $440 forward 7 unknown #
point $-1 -0.107125 0.27725 0 #
coedge $-1 $302 $319 $379 $439 forward $208 $-1 #
vertex $-1 $439 $443 #
straight-curve $-1 0 -0.27725 0.107125 1 0 0 I I #
straight-curve $-1 -0.107125 -0.27725 0 0 0 -1 I I #
face $-1 $435 $312 $21 $-1 $391 reversed single #
plane-surface $-1 0 -0.27725 0 0 1 0 0 0 1 forward_v I I I I #
vertex $-1 $444 $445 #
vertex $-1 $399 $446 #
coedge $-1 $315 $323 $310 $395 forward $324 $-1 #
edge $-1 $393 -0.107125 $226 0 $394 $398 forward 7 unknown #
coedge $-1 $314 $313 $447 $404 reversed $282 $-1 #
vertex $-1 $316 $448 #
straight-curve $-1 0.107125 -0.27725 0 0 0 -1 I I #
edge $-1 $393 -0.27725 $321 0.27725 $323 $449 forward 7 unknown #
face $-1 $383 $366 $21 $-1 $450 reversed single #
point $-1 0.107125 0.27725 0.107125 #
face $-1 $-1 $324 $21 $-1 $283 reversed single #
face $-1 $451 $426 $21 $-1 $327 reversed single #
edge $-1 $328 -0.27725 $397 0.27725 $396 $452 forward 7 unknown #
point $-1 0.107125 0.27725 -0.107125 #
point $-1 -0.107125 0.27725 0.107125 #
convexity-sys-attrib $-1 $-1 $-1 $333 #
vertex $-1 $333 $453 #
ellipse-curve $-1 0 0.15174999999999994 0 0 1 0 0 0 -0.065324999999999994 1 I I #
point $-1 -0.062324999999999998 0.14874999999999999 0 #
pid_name-sg-attrib $-1 $-1 $340 $255 7 114 119 105 108 115 111 110 784252905 88 1 #
model_id-kcp-attrib $-1 $454 $-1 $341 1 990660916 50 -533594111 10 #
face $455 $456 $457 $8 $-1 $458 forward single #
loop $-1 $459 $460 $341 #
torus-surface $-1 0 -0.1285 0 0 -1 0 0.065324999999999994 0.0030000000000000001 0 0 -1 forward_v I I I I #
loop $-1 $-1 $418 $255 #
coedge $-1 $417 $417 $461 $462 reversed $342 $-1 #
coedge $-1 $418 $418 $345 $419 forward $416 $-1 #
edge $-1 $463 -3.1415926535897931 $463 3.1415926535897931 $345 $464 forward 7 unknown #
vertex $-1 $347 $465 #
ellipse-curve $-1 0 -0.52549999999999997 0 0 -1 0 -0.061249999999999999 0 0 1 I I #
point $-1 -0.058250000000000003 -0.52849999999999997 0 #
loop $-1 $-1 $361 $355 #
coedge $-1 $425 $359 $364 $430 reversed $426 $-1 #
coedge $-1 $359 $424 $381 $384 reversed $426 $-1 #
loop $-1 $-1 $359 $403 #
coedge $-1 $428 $361 $382 $306 forward $423 $-1 #
coedge $-1 $361 $427 $363 $375 reversed $423 $-1 #
coedge $-1 $364 $363 $441 $444 forward $366 $-1 #
edge $-1 $442 -0.107125 $291 4.0162788706299122e-034 $424 $437 forward 7 unknown #
coedge $-1 $447 $365 $371 $373 forward $433 $-1 #
coedge $-1 $365 $447 $367 $434 forward $433 $-1 #
loop $-1 $-1 $365 $451 #
edge $-1 $397 -0.107125 $292 -4.0162788706299122e-034 $367 $438 forward 7 unknown #
face $-1 $436 $369 $21 $-1 $391 reversed single #
face $-1 $236 $372 $21 $-1 $327 reversed single #
straight-curve $-1 0 0.27725 -0.107125 1 0 0 I I #
straight-curve $-1 0 -0.27725 -0.107125 -1 0 0 I I #
edge $-1 $329 -0.27725 $387 0.27725 $379 $466 forward 7 unknown #
straight-curve $-1 -0.107125 0.27725 0 0 0 -1 I I #
coedge $-1 $382 $381 $429 $444 reversed $356 $-1 #
vertex $-1 $430 $467 #
point $-1 -0.107125 -0.27725 0.107125 #
edge $-1 $392 -0.27725 $442 0.27725 $441 $468 forward 7 unknown #
point $-1 -0.107125 -0.27725 -0.107125 #
point $-1 0.107125 -0.27725 0.107125 #
coedge $-1 $432 $431 $396 $404 forward $433 $-1 #
point $-1 0.107125 -0.27725 -0.107125 #
straight-curve $-1 0.107125 0 0.107125 0 1 0 I I #
plane-surface $-1 0 0 -0.107125 0 0 1 1 0 0 forward_v I I I I #
face $-1 $320 $433 $21 $-1 $450 reversed single #
straight-curve $-1 0.107125 0 -0.107125 0 -1 0 I I #
point $-1 0.065324999999999994 0.15175 -7.9997410063446795e-018 #
pid_name-sg-attrib $-1 $-1 $412 $341 7 114 119 105 108 115 111 110 784252905 89 1 #
model_id-kcp-attrib $-1 $469 $-1 $413 1 990660916 50 -533594111 11 #
face $470 $471 $472 $8 $-1 $473 forward single #
loop $-1 $474 $475 $413 #
cone-surface $-1 0 0.027725 0 0 -1 0 -0.107125 0 0 1 I I 0 1 0.107125 forward I I I I #
loop $-1 $-1 $461 $341 #
coedge $-1 $460 $460 $476 $477 forward $414 $-1 #
coedge $-1 $461 $461 $417 $462 forward $459 $-1 #
edge $-1 $478 -6.2831853071795862 $478 0 $417 $479 reversed 7 unknown #
vertex $-1 $419 $480 #
ellipse-curve $-1 0 -0.52549999999999997 0 1.7813446042922701e-015 1 0 -0.062324999999999998 1.11022302462516e-016 0 1 I I #
point $-1 0.061249999999999999 -0.52549999999999997 -7.5007139171620597e-018 #
straight-curve $-1 -0.107125 0 0.107125 0 -1 0 I I #
point $-1 -0.107125 0.27725 -0.107125 #
straight-curve $-1 -0.107125 0 -0.107125 0 1 0 I I #
pid_name-sg-attrib $-1 $-1 $455 $413 7 114 119 105 108 115 111 110 784252905 90 1 #
model_id-kcp-attrib $-1 $481 $-1 $456 1 990660916 50 -533594111 12 #
face $482 $483 $484 $8 $-1 $485 forward single #
loop $-1 $486 $487 $456 #
plane-surface $-1 0 -0.1255 0 0 -1 0 0 0 -1 forward_v I I I I #
loop $-1 $-1 $488 $413 #
coedge $-1 $475 $475 $489 $490 reversed $457 $-1 #
coedge $-1 $476 $476 $460 $477 reversed $486 $-1 #
edge $-1 $491 -3.1415926535897931 $491 3.1415926535897931 $476 $492 forward 7 unknown #
vertex $-1 $462 $493 #
ellipse-curve $-1 0 -0.1285 0 0 -1 0 -0.062324999999999998 0 0 1 I I #
point $-1 0.062324999999999998 -0.52549999999999997 7.6326111756858808e-018 #
pid_name-sg-attrib $-1 $-1 $470 $456 7 114 119 105 108 115 111 110 784252905 91 1 #
model_id-kcp-attrib $-1 $494 $-1 $471 1 990660916 50 -533594111 13 #
face $495 $-1 $496 $8 $-1 $497 reversed single #
loop $-1 $498 $489 $471 #
torus-surface $-1 0 -0.0030000000000000001 0 0 -1 0 0.104125 0.0030000000000000001 0 0 -1 forward_v I I I I #
loop $-1 $-1 $476 $456 #
coedge $-1 $487 $487 $488 $499 reversed $472 $-1 #
coedge $-1 $488 $488 $487 $499 forward $474 $-1 #
coedge $-1 $489 $489 $475 $490 forward $484 $-1 #
edge $-1 $500 -6.2831853071795862 $500 0 $475 $501 reversed 7 unknown #
vertex $-1 $477 $502 #
ellipse-curve $-1 0 -0.1255 0 0 -1 0 -0.065324999999999994 0 0 1 I I #
point $-1 -0.062324999999999998 -0.1285 0 #
pid_name-sg-attrib $-1 $-1 $482 $471 7 114 119 105 108 115 111 110 784252905 92 1 #
model_id-kcp-attrib $-1 $503 $-1 $483 1 990660916 50 -533594111 14 #
loop $-1 $-1 $504 $483 #
plane-surface $-1 0 0 0 0 -1 0 0 0 -1 forward_v I I I I #
loop $-1 $-1 $505 $471 #
edge $-1 $506 0 $506 6.2831853071795862 $487 $507 forward 7 unknown #
vertex $-1 $490 $508 #
ellipse-curve $-1 0 -0.0030000000000000001 0 0 -1 0 -0.107125 0 0 1 I I #
point $-1 0.065324999999999994 -0.1255 -7.9997410063446795e-018 #
pid_name-sg-attrib $-1 $-1 $495 $483 7 114 119 105 108 115 111 110 784252905 93 1 #
coedge $-1 $504 $504 $505 $509 reversed $496 $-1 #
coedge $-1 $505 $505 $504 $509 forward $498 $-1 #
vertex $-1 $499 $510 #
ellipse-curve $-1 0 -0.1255 0 -2.5909522161613902e-016 1 0 -0.107125 -2.7755575615628901e-017 0 1 I I #
point $-1 -0.107125 -0.0030000000000000001 0 #
edge $-1 $511 -6.2831853071795862 $511 0 $504 $512 reversed 7 unknown #
point $-1 -0.107125 -0.1255 0 #
vertex $-1 $509 $513 #
ellipse-curve $-1 0 8.6736173798840393e-019 0 -8.3300046865633004e-018 1 0 -0.104125 -8.6736173798840393e-019 0 1 I I #
point $-1 -0.104125 8.6736173798840393e-019 0 #
End-of-ACIS-data 