104 296 0 0                             
body $-1 $1 $-1 $2 #
lump $-1 $-1 $3 $0 #
transform $-1 1 0 0 0 1 0 0 0 1 0 0 0 1 0 0 0 #
shell $-1 $-1 $-1 $4 $1 #
face $5 $6 $7 $3 $-1 $8 0 #
face_name-twe-attrib $-1 $-1 $-1 $4 1 #
face $9 $10 $11 $3 $-1 $12 1 #
loop $13 $14 $15 $4 #
plane-surface $16 0 0 0 0 1 0 0 0 1 0 #
face_name-twe-attrib $-1 $-1 $-1 $6 2 #
face $17 $18 $19 $3 $-1 $20 1 #
loop $21 $22 $23 $6 #
plane-surface $24 0 -0.5 0 0 1 0 0 0 1 0 #
loop_type-twe-attrib $-1 $-1 $-1 $7 0 #
loop $25 $-1 $26 $4 #
coedge $-1 $15 $15 $27 $28 0 $7 $-1 #
surf-twe-attrib $-1 $-1 $-1 $8 4 #
face_name-twe-attrib $-1 $-1 $-1 $10 3 #
face $29 $30 $31 $3 $-1 $32 1 #
loop $33 $34 $35 $10 #
plane-surface $36 0 -1.375 0 0 1 0 0 0 1 0 #
loop_type-twe-attrib $-1 $-1 $-1 $11 1 #
loop $37 $-1 $38 $6 #
coedge $-1 $23 $23 $39 $40 0 $11 $-1 #
surf-twe-attrib $-1 $-1 $-1 $12 6 #
loop_type-twe-attrib $-1 $-1 $-1 $14 1 #
coedge $-1 $41 $42 $43 $44 0 $14 $-1 #
coedge $-1 $27 $27 $15 $28 1 $45 $-1 #
edge $46 $47 $47 $27 $48 0 #
face_name-twe-attrib $-1 $-1 $-1 $18 4 #
face $49 $50 $45 $3 $-1 $51 0 #
loop $52 $-1 $53 $18 #
plane-surface $54 0 -2.25 0 0 1 0 0 0 1 0 #
loop_type-twe-attrib $-1 $-1 $-1 $19 1 #
loop $55 $-1 $56 $10 #
coedge $-1 $35 $35 $57 $58 0 $19 $-1 #
surf-twe-attrib $-1 $-1 $-1 $20 10 #
loop_type-twe-attrib $-1 $-1 $-1 $22 0 #
coedge $-1 $38 $38 $59 $60 0 $22 $-1 #
coedge $-1 $39 $39 $23 $40 1 $61 $-1 #
edge $62 $63 $63 $39 $64 0 #
coedge $-1 $65 $26 $66 $67 0 $14 $-1 #
coedge $-1 $26 $68 $69 $70 0 $14 $-1 #
coedge $-1 $71 $72 $26 $44 1 $73 $-1 #
edge $74 $75 $76 $43 $77 0 #
loop $78 $79 $27 $30 #
edge_name-twe-attrib $-1 $-1 $-1 $28 4 8704 #
vertex $-1 $28 $80 #
ellipse-curve $81 0 -2e-15 0 5e-15 1 0 -0.375 1.875e-15 0 1 #
face_name-twe-attrib $-1 $-1 $-1 $30 5 #
face $82 $83 $61 $3 $-1 $84 0 #
cone-surface $85 0 -2.3625 0 0 1 0 0.375 0 0 1 0 1 0 #
loop_type-twe-attrib $-1 $-1 $-1 $31 0 #
coedge $-1 $53 $53 $86 $87 0 $31 $-1 #
surf-twe-attrib $-1 $-1 $-1 $32 18 #
loop_type-twe-attrib $-1 $-1 $-1 $34 0 #
coedge $-1 $56 $56 $88 $89 0 $34 $-1 #
coedge $-1 $57 $57 $35 $58 1 $90 $-1 #
edge $91 $92 $92 $57 $93 0 #
coedge $-1 $59 $59 $38 $60 1 $79 $-1 #
edge $94 $95 $95 $38 $96 0 #
loop $97 $98 $39 $50 #
edge_name-twe-attrib $-1 $-1 $-1 $40 5 4608 #
vertex $-1 $40 $99 #
ellipse-curve $100 0 -0.500000000000001 0 4e-15 1 0 -0.25015 1.0006e-15 0 1 #
coedge $-1 $101 $41 $102 $103 0 $14 $-1 #
coedge $-1 $104 $105 $41 $67 1 $106 $-1 #
edge $107 $76 $108 $66 $109 0 #
coedge $-1 $42 $101 $110 $111 0 $14 $-1 #
coedge $-1 $112 $113 $42 $70 1 $114 $-1 #
edge $115 $116 $75 $69 $117 0 #
coedge $-1 $118 $43 $113 $119 0 $73 $-1 #
coedge $-1 $43 $118 $104 $120 1 $73 $-1 #
loop $121 $-1 $43 $122 #
edge_name-twe-attrib $-1 $-1 $-1 $44 8 8704 #
vertex $-1 $119 $123 #
vertex $-1 $120 $124 #
straight-curve $125 0.108253175473055 0 0.1875 -0.499999999999997 0 0.86602540378444 #
loop_type-twe-attrib $-1 $-1 $-1 $45 0 #
loop $126 $-1 $59 $30 #
point $-1 -0.375 -1.25e-16 0 #
cur-twe-attrib $-1 $-1 $-1 $48 28 #
face_name-twe-attrib $-1 $-1 $-1 $50 6 #
face $127 $128 $90 $3 $-1 $129 0 #
cone-surface $130 0 -2.3625 0 0 1 0 0.25015 0 0 1 0 1 0 #
surf-twe-attrib $-1 $-1 $-1 $51 30 #
coedge $-1 $86 $86 $53 $87 1 $131 $-1 #
edge $132 $133 $133 $53 $134 0 #
coedge $-1 $88 $88 $56 $89 1 $98 $-1 #
edge $135 $136 $136 $56 $137 0 #
loop $138 $139 $57 $83 #
edge_name-twe-attrib $-1 $-1 $-1 $58 6 4608 #
vertex $-1 $58 $140 #
ellipse-curve $141 0 -1.375 0 0 1 0 -0.25 0 0 1 #
edge_name-twe-attrib $-1 $-1 $-1 $60 1 8704 #
vertex $-1 $60 $142 #
ellipse-curve $143 0 -0.500000000000001 0 -4e-15 -1 0 -0.375 1.5e-15 0 1 #
loop_type-twe-attrib $-1 $-1 $-1 $61 0 #
loop $144 $-1 $88 $50 #
point $-1 -0.25015 -0.5 0 #
cur-twe-attrib $-1 $-1 $-1 $64 40 #
coedge $-1 $68 $65 $145 $146 0 $14 $-1 #
coedge $-1 $147 $148 $65 $103 1 $149 $-1 #
edge $150 $108 $151 $102 $152 0 #
coedge $-1 $153 $66 $72 $120 0 $106 $-1 #
coedge $-1 $66 $153 $147 $154 1 $106 $-1 #
loop $155 $-1 $66 $156 #
edge_name-twe-attrib $-1 $-1 $-1 $67 22 8704 #
vertex $-1 $154 $157 #
straight-curve $158 -0.108253175473055 0 0.1875 -1 0 0 #
coedge $-1 $159 $160 $68 $111 1 $161 $-1 #
edge $162 $163 $116 $110 $164 0 #
coedge $-1 $165 $69 $160 $166 0 $114 $-1 #
coedge $-1 $69 $165 $71 $119 1 $114 $-1 #
loop $167 $-1 $69 $168 #
edge_name-twe-attrib $-1 $-1 $-1 $70 10 8704 #
vertex $-1 $166 $169 #
straight-curve $170 0.216506350946109 0 0 0.499999999999997 0 0.86602540378444 #
coedge $-1 $72 $71 $171 $172 0 $73 $-1 #
edge $173 $75 $174 $113 $175 0 #
edge $176 $76 $177 $104 $178 0 #
loop_type-twe-attrib $-1 $-1 $-1 $73 0 #
face $179 $168 $73 $3 $-1 $180 1 #
point $-1 0.216506350946109 0 0 #
point $-1 0.108253175473055 0 0.1875 #
cur-twe-attrib $-1 $-1 $-1 $77 44 #
loop_type-twe-attrib $-1 $-1 $-1 $79 1 #
face_name-twe-attrib $-1 $-1 $-1 $83 7 #
face $181 $182 $183 $3 $-1 $184 0 #
cone-surface $185 0 -2.3625 0 0 1 0 0.25 0 0 1 0 1 0 #
surf-twe-attrib $-1 $-1 $-1 $84 50 #
loop $186 $-1 $86 $128 #
edge_name-twe-attrib $-1 $-1 $-1 $87 3 8448 #
vertex $-1 $87 $187 #
ellipse-curve $188 0 -2.25 0 0 -1 0 -0.2 0 0 1 #
edge_name-twe-attrib $-1 $-1 $-1 $89 2 8704 #
vertex $-1 $89 $189 #
ellipse-curve $190 0 -1.375 0 0 -1 0 -0.25015 0 0 1 #
loop_type-twe-attrib $-1 $-1 $-1 $90 0 #
loop $191 $-1 $192 $83 #
point $-1 -0.25 -1.375 0 #
cur-twe-attrib $-1 $-1 $-1 $93 58 #
point $-1 0.375 -0.500000000000003 -4.59242470457764e-17 #
cur-twe-attrib $-1 $-1 $-1 $96 60 #
loop_type-twe-attrib $-1 $-1 $-1 $98 1 #
coedge $-1 $193 $194 $101 $146 1 $195 $-1 #
edge $196 $151 $163 $145 $197 0 #
coedge $-1 $198 $102 $105 $154 0 $149 $-1 #
coedge $-1 $102 $198 $193 $199 1 $149 $-1 #
loop $200 $-1 $102 $201 #
edge_name-twe-attrib $-1 $-1 $-1 $103 19 8704 #
vertex $-1 $199 $202 #
straight-curve $203 -0.216506350946109 0 0 -0.499999999999997 0 -0.86602540378444 #
coedge $-1 $105 $104 $204 $205 0 $106 $-1 #
edge $206 $108 $207 $105 $208 0 #
loop_type-twe-attrib $-1 $-1 $-1 $106 0 #
face $209 $-1 $106 $3 $-1 $210 1 #
point $-1 -0.108253175473055 0 0.1875 #
cur-twe-attrib $-1 $-1 $-1 $109 67 #
coedge $-1 $211 $110 $194 $212 0 $161 $-1 #
coedge $-1 $110 $211 $112 $166 1 $161 $-1 #
loop $213 $-1 $110 $214 #
edge_name-twe-attrib $-1 $-1 $-1 $111 13 8704 #
vertex $-1 $212 $215 #
straight-curve $216 0.108253175473055 0 -0.1875 1 0 0 #
coedge $-1 $113 $112 $217 $218 0 $114 $-1 #
edge $219 $116 $220 $160 $221 0 #
loop_type-twe-attrib $-1 $-1 $-1 $114 0 #
face $222 $214 $114 $3 $-1 $223 1 #
point $-1 0.108253175473055 0 -0.1875 #
cur-twe-attrib $-1 $-1 $-1 $117 70 #
coedge $-1 $217 $204 $118 $172 1 $224 $-1 #
edge $225 $174 $177 $118 $226 0 #
edge_name-twe-attrib $-1 $-1 $-1 $119 12 4352 #
vertex $-1 $119 $227 #
straight-curve $228 0.216506350946109 -0.188 0 0 -1 0 #
edge_name-twe-attrib $-1 $-1 $-1 $120 23 4352 #
vertex $-1 $120 $229 #
straight-curve $230 0.108253175473055 -0.188 0.1875 0 -1 0 #
face_name-twe-attrib $-1 $-1 $-1 $122 10 #
plane-surface $231 0.108253175473055 -0.188 0.1875 0.866025403784439 0 0.5 0.5 0 -0.866025403784439 0 #
face_name-twe-attrib $-1 $-1 $-1 $128 8 #
face $232 $122 $224 $3 $-1 $233 0 #
loop $234 $131 $235 $128 #
cone-surface $236 0 -2.2 0 0 1 0 -0.25 0 0 1 0.707106781186549 0.707106781186546 0 #
surf-twe-attrib $-1 $-1 $-1 $129 83 #
loop_type-twe-attrib $-1 $-1 $-1 $131 1 #
point $-1 0.2 -2.25 -2.44929317577474e-17 #
cur-twe-attrib $-1 $-1 $-1 $134 87 #
point $-1 0.25015 -1.375 -3.06345343960026e-17 #
cur-twe-attrib $-1 $-1 $-1 $137 89 #
loop_type-twe-attrib $-1 $-1 $-1 $139 1 #
coedge $-1 $192 $192 $235 $237 0 $139 $-1 #
coedge $-1 $238 $145 $148 $199 0 $195 $-1 #
coedge $-1 $145 $238 $159 $212 1 $195 $-1 #
loop $239 $-1 $145 $240 #
edge_name-twe-attrib $-1 $-1 $-1 $146 16 8704 #
straight-curve $241 -0.108253175473055 0 -0.1875 0.499999999999997 0 -0.86602540378444 #
coedge $-1 $148 $147 $242 $243 0 $149 $-1 #
edge $244 $151 $245 $148 $246 0 #
loop_type-twe-attrib $-1 $-1 $-1 $149 0 #
face $247 $156 $149 $3 $-1 $248 1 #
point $-1 -0.216506350946109 0 0 #
cur-twe-attrib $-1 $-1 $-1 $152 103 #
coedge $-1 $171 $242 $153 $205 1 $224 $-1 #
edge $249 $177 $207 $153 $250 0 #
edge_name-twe-attrib $-1 $-1 $-1 $154 25 4352 #
vertex $-1 $154 $251 #
straight-curve $252 -0.108253175473055 -0.188 0.1875 0 -1 0 #
face_name-twe-attrib $-1 $-1 $-1 $156 15 #
plane-surface $253 -0.108253175473055 -0.188 0.1875 0 0 1 1 0 0 0 #
coedge $-1 $160 $159 $254 $255 0 $161 $-1 #
edge $256 $163 $257 $194 $258 0 #
loop_type-twe-attrib $-1 $-1 $-1 $161 0 #
face $259 $240 $161 $3 $-1 $260 1 #
point $-1 -0.108253175473055 0 -0.1875 #
cur-twe-attrib $-1 $-1 $-1 $164 111 #
coedge $-1 $254 $171 $165 $218 1 $224 $-1 #
edge $261 $220 $174 $165 $262 0 #
edge_name-twe-attrib $-1 $-1 $-1 $166 15 4352 #
vertex $-1 $166 $263 #
straight-curve $264 0.108253175473055 -0.188 -0.1875 0 -1 0 #
face_name-twe-attrib $-1 $-1 $-1 $168 11 #
plane-surface $265 0.216506350946109 -0.188 0 0.866025403784439 0 -0.5 -0.5 0 -0.866025403784439 0 #
loop $266 $-1 $171 $182 #
edge_name-twe-attrib $-1 $-1 $-1 $172 9 4608 #
straight-curve $267 0.108253175473055 -0.188 0.1875 -0.499999999999997 0 0.86602540378444 #
point $-1 0.216506350946109 -0.188 0 #
cur-twe-attrib $-1 $-1 $-1 $175 119 #
point $-1 0.108253175473055 -0.188 0.1875 #
cur-twe-attrib $-1 $-1 $-1 $178 120 #
surf-twe-attrib $-1 $-1 $-1 $180 122 #
face_name-twe-attrib $-1 $-1 $-1 $182 9 #
plane-surface $268 0 -0.188 0 0 1 0 0 0 1 0 #
loop_type-twe-attrib $-1 $-1 $-1 $183 0 #
coedge $-1 $235 $235 $192 $237 1 $183 $-1 #
surf-twe-attrib $-1 $-1 $-1 $184 128 #
edge $269 $270 $270 $235 $271 0 #
coedge $-1 $194 $193 $272 $273 0 $195 $-1 #
loop_type-twe-attrib $-1 $-1 $-1 $195 0 #
face $274 $201 $195 $3 $-1 $275 1 #
cur-twe-attrib $-1 $-1 $-1 $197 146 #
coedge $-1 $204 $272 $198 $243 1 $224 $-1 #
edge $276 $207 $245 $198 $277 0 #
edge_name-twe-attrib $-1 $-1 $-1 $199 21 4352 #
vertex $-1 $199 $278 #
straight-curve $279 -0.216506350946109 -0.188 0 0 -1 0 #
face_name-twe-attrib $-1 $-1 $-1 $201 14 #
plane-surface $280 -0.216506350946109 -0.188 0 -0.866025403784439 0 0.5 0.5 0 0.866025403784439 0 #
edge_name-twe-attrib $-1 $-1 $-1 $205 24 4608 #
straight-curve $281 -0.108253175473055 -0.188 0.1875 -1 0 0 #
point $-1 -0.108253175473055 -0.188 0.1875 #
cur-twe-attrib $-1 $-1 $-1 $208 154 #
surf-twe-attrib $-1 $-1 $-1 $210 156 #
coedge $-1 $272 $217 $211 $255 1 $224 $-1 #
edge $282 $257 $220 $211 $283 0 #
edge_name-twe-attrib $-1 $-1 $-1 $212 18 4352 #
vertex $-1 $212 $284 #
straight-curve $285 -0.108253175473055 -0.188 -0.1875 0 -1 0 #
face_name-twe-attrib $-1 $-1 $-1 $214 12 #
plane-surface $286 0.108253175473055 -0.188 -0.1875 0 0 -1 -1 0 0 0 #
edge_name-twe-attrib $-1 $-1 $-1 $218 11 4608 #
straight-curve $287 0.216506350946109 -0.188 0 0.499999999999997 0 0.86602540378444 #
point $-1 0.108253175473055 -0.188 -0.1875 #
cur-twe-attrib $-1 $-1 $-1 $221 166 #
surf-twe-attrib $-1 $-1 $-1 $223 168 #
loop_type-twe-attrib $-1 $-1 $-1 $224 0 #
cur-twe-attrib $-1 $-1 $-1 $226 172 #
surf-twe-attrib $-1 $-1 $-1 $233 182 #
edge_name-twe-attrib $-1 $-1 $-1 $237 7 8448 #
vertex $-1 $237 $288 #
ellipse-curve $289 0 -2.2 0 0 1 0 -0.25 0 0 1 #
coedge $-1 $242 $254 $238 $273 1 $224 $-1 #
edge $290 $245 $257 $238 $291 0 #
face_name-twe-attrib $-1 $-1 $-1 $240 13 #
plane-surface $292 -0.108253175473055 -0.188 -0.1875 -0.866025403784439 0 -0.5 -0.5 0 0.866025403784439 0 #
edge_name-twe-attrib $-1 $-1 $-1 $243 20 4608 #
straight-curve $293 -0.216506350946109 -0.188 0 -0.499999999999997 0 -0.86602540378444 #
point $-1 -0.216506350946109 -0.188 0 #
cur-twe-attrib $-1 $-1 $-1 $246 199 #
surf-twe-attrib $-1 $-1 $-1 $248 201 #
cur-twe-attrib $-1 $-1 $-1 $250 205 #
edge_name-twe-attrib $-1 $-1 $-1 $255 14 4608 #
straight-curve $294 0.108253175473055 -0.188 -0.1875 1 0 0 #
point $-1 -0.108253175473055 -0.188 -0.1875 #
cur-twe-attrib $-1 $-1 $-1 $258 212 #
surf-twe-attrib $-1 $-1 $-1 $260 214 #
cur-twe-attrib $-1 $-1 $-1 $262 218 #
point $-1 0.25 -2.2 3.06161646971843e-17 #
cur-twe-attrib $-1 $-1 $-1 $271 237 #
edge_name-twe-attrib $-1 $-1 $-1 $273 17 4608 #
straight-curve $295 -0.108253175473055 -0.188 -0.1875 0.499999999999997 0 -0.86602540378444 #
surf-twe-attrib $-1 $-1 $-1 $275 240 #
cur-twe-attrib $-1 $-1 $-1 $277 243 #
cur-twe-attrib $-1 $-1 $-1 $283 255 #
cur-twe-attrib $-1 $-1 $-1 $291 273 #
