600 0 2 0           
24 FBMach with ACIS - 6.0.3 13 ACIS 6.0.3 NT 24 Wed May 23 21:58:27 2001 
1 9.9999999999999995e-007 1e-010 
body $2 $3 $-1 $4 #
bdycol-kcp $-1 1 6 $5 $6 $7 $8 $9 $10 #
model_id-kcp-attrib $-1 $-1 $-1 $0 1 990669507 50 -1926103039 1 #
lump $-1 $-1 $11 $0 #
transform $-1 1 0 0 0 1 0 0 0 1 0 0 0 1 no_rotate no_reflect no_shear #
body $12 $13 $-1 $14 #
body $15 $16 $-1 $17 #
body $18 $19 $-1 $20 #
body $21 $22 $-1 $23 #
body $24 $25 $-1 $26 #
body $27 $28 $-1 $29 #
shell $-1 $-1 $-1 $30 $-1 $3 #
model_id-kcp-attrib $-1 $-1 $-1 $5 1 990669507 50 -1926103038 1 #
lump $-1 $-1 $31 $5 #
transform $-1 1 0 0 0 1 0 0 0 1 0 -1.125 0 1 no_rotate no_reflect no_shear #
rgb_color-st-attrib $-1 $32 $-1 $6 1 1 0.5 #
lump $-1 $-1 $33 $6 #
transform $-1 1 0 0 0 0 1 0 -1 0 0 -2.2250000000000001 0 1 rotate no_reflect no_shear #
rgb_color-st-attrib $-1 $34 $-1 $7 0.5 1 1 #
lump $-1 $-1 $35 $7 #
transform $-1 1 0 0 0 1 0 0 0 1 0 -1.125 0 1 no_rotate no_reflect no_shear #
rgb_color-st-attrib $-1 $36 $-1 $8 0 0 1 #
lump $-1 $-1 $37 $8 #
transform $-1 1 0 0 0 1 0 0 0 1 0 -1.125 0 1 no_rotate no_reflect no_shear #
rgb_color-st-attrib $-1 $38 $-1 $9 1 0.5 1 #
lump $-1 $-1 $39 $9 #
transform $-1 1 0 0 0 1 0 0 0 1 0 -1.125 0 1 no_rotate no_reflect no_shear #
rgb_color-st-attrib $-1 $40 $-1 $10 1 0.5 1 #
lump $-1 $-1 $41 $10 #
transform $-1 1 0 0 0 1 0 0 0 1 0 -1.125 0 1 no_rotate no_reflect no_shear #
face $42 $43 $44 $11 $-1 $45 forward single #
shell $-1 $-1 $-1 $46 $-1 $13 #
model_id-kcp-attrib $-1 $-1 $15 $6 1 990669507 60 -1925447677 1 #
shell $-1 $-1 $-1 $47 $-1 $16 #
model_id-kcp-attrib $-1 $-1 $18 $7 1 990669507 130 -1920860156 1 #
shell $-1 $-1 $-1 $48 $-1 $19 #
model_id-kcp-attrib $-1 $-1 $21 $8 1 990669507 280 -1927806971 1 #
shell $-1 $-1 $-1 $49 $-1 $22 #
model_id-kcp-attrib $-1 $-1 $24 $9 1 990669507 380 -1921253370 1 #
shell $-1 $-1 $-1 $50 $-1 $25 #
model_id-kcp-attrib $-1 $-1 $27 $10 1 990669507 430 -1917976569 1 #
shell $-1 $-1 $-1 $51 $-1 $28 #
model_id-kcp-attrib $-1 $52 $-1 $30 1 990669507 50 -1926103039 18 #
face $53 $54 $55 $11 $-1 $56 reversed single #
loop $57 $58 $59 $30 #
plane-surface $60 0 0 0 0 1 0 0 0 1 forward_v I I I I #
face $-1 $61 $62 $31 $-1 $63 forward single #
face $-1 $64 $65 $33 $-1 $66 reversed single #
face $-1 $67 $68 $35 $-1 $69 reversed single #
face $-1 $70 $71 $37 $-1 $72 forward single #
face $-1 $73 $74 $39 $-1 $75 forward single #
face $-1 $76 $77 $41 $-1 $78 forward single #
model_id-kcp-attrib $-1 $79 $42 $30 1 990669507 50 -1926103039 2 #
model_id-kcp-attrib $-1 $80 $-1 $43 1 990669507 50 -1926103039 3 #
face $81 $82 $83 $11 $-1 $84 reversed single #
loop $85 $86 $87 $43 #
plane-surface $88 0 -0.5 0 0 1 0 0 0 1 forward_v I I I I #
loop_type-twe-attrib $-1 $-1 $-1 $44 0 #
loop $89 $-1 $90 $30 #
coedge $-1 $59 $59 $91 $92 forward $44 $-1 #
surf-twe-attrib $-1 $-1 $-1 $45 4 #
face $-1 $93 $94 $31 $-1 $95 reversed single #
loop $-1 $-1 $96 $46 #
plane-surface $-1 0 0 0.375 0 0 1 1 0 0 forward_v I I I I #
face $-1 $97 $98 $33 $-1 $99 forward single #
loop $-1 $100 $101 $47 #
cone-surface $-1 0 0 0.099999999999999645 0 0 1 0.125 0 0 1 I I -0.70710678118654879 0.70710678118654635 0.125 forward I I I I #
face $-1 $102 $103 $35 $-1 $69 reversed single #
loop $-1 $-1 $104 $48 #
cone-surface $-1 1.4059319267082538e-033 1.125 0 0 1 0 -0.375 0 0 1 I I 0 1 0.375 forward I I I I #
face $-1 $105 $106 $37 $-1 $107 forward single #
loop $-1 $-1 $108 $49 #
plane-surface $-1 0.108253175473055 0.93700000000000006 0.1875 0 0 1 1 0 0 forward_v I I I I #
face $-1 $109 $110 $39 $-1 $111 forward single #
loop $-1 $112 $113 $50 #
cone-surface $-1 0 -0.25 0 0 -1 0 0.25 0 0 1 I I 0 -1 0.25 forward I I I I #
face $-1 $114 $115 $41 $-1 $116 forward single #
loop $-1 $117 $118 $51 #
cone-surface $-1 0 0.625 0 0 -1 0 0.25014999999999998 0 0 1 I I 0 -1 0.25014999999999998 forward I I I I #
face_name-twe-attrib $-1 $-1 $52 $30 1 #
face_name-twe-attrib $-1 $-1 $53 $43 2 #
model_id-kcp-attrib $-1 $119 $-1 $54 1 990669507 50 -1926103039 4 #
face $120 $121 $122 $11 $-1 $123 reversed single #
loop $124 $125 $126 $54 #
plane-surface $127 0 -1.375 0 0 1 0 0 0 1 forward_v I I I I #
loop_type-twe-attrib $-1 $-1 $-1 $55 1 #
loop $128 $-1 $129 $43 #
coedge $-1 $87 $87 $130 $131 forward $55 $-1 #
surf-twe-attrib $-1 $-1 $-1 $56 6 #
loop_type-twe-attrib $-1 $-1 $-1 $58 1 #
coedge $-1 $132 $133 $134 $135 forward $58 $-1 #
coedge $-1 $91 $91 $59 $92 reversed $136 $-1 #
edge $137 $138 0 $138 6.2831853071795862 $91 $139 forward 7 unknown #
face $140 $141 $142 $31 $-1 $143 reversed single #
loop $-1 $-1 $144 $61 #
plane-surface $-1 0 0 -0.375 0 0 1 1 0 0 forward_v I I I I #
coedge $-1 $145 $146 $147 $148 forward $62 $-1 #
face $-1 $-1 $149 $33 $-1 $150 forward single #
loop $-1 $151 $152 $64 #
cone-surface $-1 0 0 0 0 0 1 0.25 0 0 1 I I 0 1 0.25 forward I I I I #
loop $-1 $-1 $153 $47 #
coedge $-1 $101 $101 $154 $155 reversed $65 $-1 #
face $-1 $156 $157 $35 $-1 $69 reversed single #
loop $-1 $-1 $158 $67 #
coedge $-1 $159 $160 $161 $162 reversed $68 $-1 #
face $-1 $163 $164 $37 $-1 $165 forward single #
loop $-1 $-1 $166 $70 #
plane-surface $-1 -0.10825317547305499 0.93700000000000006 0.1875 -0.86602540378443882 0 0.49999999999999989 0.49999999999999989 0 0.86602540378443882 forward_v I I I I #
coedge $-1 $167 $168 $169 $170 forward $71 $-1 #
face $-1 $171 $172 $39 $-1 $173 reversed single #
loop $-1 $174 $175 $73 #
cone-surface $-1 1.4059319267082538e-033 -0.25 0 0 -1 0 -0.375 0 0 1 I I 0 1 0.375 forward I I I I #
loop $-1 $-1 $176 $50 #
coedge $-1 $113 $113 $177 $178 forward $74 $-1 #
face $-1 $179 $180 $41 $-1 $181 reversed single #
loop $-1 $182 $183 $76 #
cone-surface $-1 1.4059319267082538e-033 0.625 0 0 -1 0 -0.375 0 0 1 I I 0 1 0.375 forward I I I I #
loop $-1 $-1 $184 $51 #
coedge $-1 $118 $118 $185 $186 forward $77 $-1 #
face_name-twe-attrib $-1 $-1 $81 $54 3 #
model_id-kcp-attrib $-1 $187 $-1 $82 1 990669507 50 -1926103039 17 #
face $188 $189 $136 $11 $-1 $190 forward single #
loop $191 $-1 $192 $82 #
plane-surface $193 0 -2.25 0 0 1 0 0 0 1 forward_v I I I I #
loop_type-twe-attrib $-1 $-1 $-1 $83 1 #
loop $194 $-1 $195 $54 #
coedge $-1 $126 $126 $196 $197 forward $83 $-1 #
surf-twe-attrib $-1 $-1 $-1 $84 10 #
loop_type-twe-attrib $-1 $-1 $-1 $86 0 #
coedge $-1 $129 $129 $198 $199 forward $86 $-1 #
coedge $-1 $130 $130 $87 $131 reversed $200 $-1 #
edge $201 $202 0 $202 6.2831853071795862 $130 $203 forward 7 unknown #
coedge $-1 $204 $90 $205 $206 forward $58 $-1 #
coedge $-1 $90 $207 $208 $209 forward $58 $-1 #
coedge $-1 $210 $211 $90 $135 reversed $212 $-1 #
edge $213 $214 -0.21650635094610937 $215 0 $134 $216 forward 7 unknown #
loop $217 $218 $91 $121 #
attrib_edge_convexity-kcp-attrib $-1 $219 $-1 $92 1 #
vertex $-1 $92 $220 #
ellipse-curve $221 0 -2.0000000000000002e-015 0 5e-015 1 0 -0.375 1.8749999999999999e-015 0 1 I I #
model_id-kcp-attrib $-1 $-1 $-1 $93 1 990669507 50 -1926103038 3 #
face $-1 $222 $223 $31 $-1 $224 reversed single #
loop $-1 $-1 $225 $93 #
plane-surface $-1 0 -1.125 0 0 1 0 0 0 1 forward_v I I I I #
coedge $-1 $226 $227 $228 $229 forward $94 $-1 #
coedge $-1 $230 $96 $231 $232 forward $62 $-1 #
coedge $-1 $96 $230 $233 $234 forward $62 $-1 #
coedge $-1 $235 $236 $96 $148 reversed $237 $-1 #
edge $-1 $238 -1.125 $239 1.125 $147 $240 forward 7 unknown #
loop $-1 $241 $154 $97 #
plane-surface $-1 0 0 0.024999999999999911 0 0 1 1 0 0 forward_v I I I I #
loop $-1 $-1 $242 $64 #
coedge $-1 $152 $152 $153 $243 reversed $98 $-1 #
coedge $-1 $153 $153 $152 $243 forward $100 $-1 #
coedge $-1 $154 $154 $101 $155 forward $149 $-1 #
edge $-1 $244 -3.1415926535897931 $244 3.1415926535897931 $154 $245 forward 7 unknown #
face $-1 $246 $247 $35 $-1 $69 reversed single #
loop $-1 $-1 $248 $102 #
coedge $-1 $249 $250 $251 $252 reversed $103 $-1 #
coedge $-1 $253 $104 $254 $255 forward $68 $-1 #
coedge $-1 $104 $253 $256 $257 reversed $68 $-1 #
coedge $-1 $258 $259 $104 $162 forward $260 $-1 #
edge $-1 $261 0 $262 1.5707963267948966 $161 $263 forward 7 unknown #
face $-1 $264 $265 $37 $-1 $266 forward single #
loop $-1 $-1 $267 $105 #
plane-surface $-1 -0.21650635094610901 0.93700000000000006 0 -0.86602540378443882 0 -0.49999999999999989 -0.49999999999999989 0 0.86602540378443882 forward_v I I I I #
coedge $-1 $268 $269 $270 $271 forward $106 $-1 #
coedge $-1 $272 $108 $269 $273 reversed $71 $-1 #
coedge $-1 $108 $272 $274 $275 forward $71 $-1 #
coedge $-1 $276 $270 $108 $170 reversed $277 $-1 #
edge $-1 $278 -0.1623797632095825 $279 0.054126587736527489 $108 $280 forward 7 unknown #
face $-1 $-1 $281 $39 $-1 $282 forward single #
loop $-1 $283 $284 $109 #
plane-surface $-1 0.011363636363636352 -1.125 -1.253054340370889e-017 0 1 0 0 0 1 forward_v I I I I #
loop $-1 $-1 $285 $73 #
coedge $-1 $175 $175 $284 $286 forward $110 $-1 #
coedge $-1 $176 $176 $287 $288 reversed $112 $-1 #
coedge $-1 $177 $177 $113 $178 reversed $283 $-1 #
edge $-1 $289 -3.1415926535897931 $289 3.1415926535897931 $113 $290 forward 7 unknown #
face $-1 $-1 $291 $41 $-1 $292 forward single #
loop $-1 $293 $294 $114 #
plane-surface $-1 0.011349999999999994 -0.25 -1.2526806211428967e-017 0 1 0 0 0 1 forward_v I I I I #
loop $-1 $-1 $295 $76 #
coedge $-1 $183 $183 $294 $296 forward $115 $-1 #
coedge $-1 $184 $184 $297 $298 reversed $117 $-1 #
coedge $-1 $185 $185 $118 $186 reversed $293 $-1 #
edge $-1 $299 -3.1415926535897931 $299 3.1415926535897931 $118 $300 forward 7 unknown #
model_id-kcp-attrib $-1 $301 $120 $82 1 990669507 50 -1926103039 5 #
model_id-kcp-attrib $-1 $302 $-1 $121 1 990669507 50 -1926103039 6 #
face $303 $304 $200 $11 $-1 $305 forward single #
cone-surface $306 0 -2.3624999999999998 0 0 1 0 0.375 0 0 1 I I 0 1 0.375 forward I I I I #
loop_type-twe-attrib $-1 $-1 $-1 $122 0 #
coedge $-1 $192 $192 $307 $308 forward $122 $-1 #
surf-twe-attrib $-1 $-1 $-1 $123 18 #
loop_type-twe-attrib $-1 $-1 $-1 $125 0 #
coedge $-1 $195 $195 $309 $310 forward $125 $-1 #
coedge $-1 $196 $196 $126 $197 reversed $311 $-1 #
edge $312 $313 0 $313 6.2831853071795862 $196 $314 forward 7 unknown #
coedge $-1 $198 $198 $129 $199 reversed $218 $-1 #
edge $315 $316 -3.1415926535897931 $316 3.1415926535897931 $129 $317 forward 7 unknown #
loop $318 $319 $130 $189 #
edge_name-twe-attrib $-1 $-1 $-1 $131 5 4608 #
vertex $-1 $131 $320 #
ellipse-curve $321 0 -0.500000000000001 0 4.0000000000000003e-015 1 0 -0.25014999999999998 1.0005999999999999e-015 0 1 I I #
coedge $-1 $322 $132 $323 $324 forward $58 $-1 #
coedge $-1 $325 $326 $132 $206 reversed $327 $-1 #
edge $328 $215 -0.21650635094611001 $329 0 $205 $330 forward 7 unknown #
coedge $-1 $133 $322 $331 $332 forward $58 $-1 #
coedge $-1 $333 $334 $133 $209 reversed $335 $-1 #
edge $336 $337 -0.21650635094610937 $214 0 $208 $338 forward 7 unknown #
coedge $-1 $339 $134 $334 $340 forward $212 $-1 #
coedge $-1 $134 $339 $325 $341 reversed $212 $-1 #
loop $342 $-1 $134 $343 #
attrib_edge_convexity-kcp-attrib $-1 $344 $-1 $135 1 #
vertex $-1 $340 $345 #
vertex $-1 $341 $346 #
straight-curve $347 0.108253175473055 0 0.1875 -0.499999999999997 0 0.86602540378444004 I I #
loop_type-twe-attrib $-1 $-1 $-1 $136 0 #
loop $348 $-1 $198 $121 #
convexity-sys-attrib $-1 $349 $137 $92 #
point $-1 -0.375 -1.2500000000000001e-016 0 #
cur-twe-attrib $-1 $-1 $-1 $139 28 #
face $350 $351 $352 $31 $-1 $353 reversed single #
loop $-1 $-1 $354 $141 #
plane-surface $-1 -0.375 0 0 1 0 0 0 0 -1 forward_v I I I I #
coedge $-1 $355 $233 $356 $357 forward $142 $-1 #
coedge $-1 $358 $144 $355 $359 forward $94 $-1 #
coedge $-1 $144 $358 $360 $361 forward $94 $-1 #
coedge $-1 $236 $235 $144 $229 reversed $237 $-1 #
edge $-1 $362 -1.125 $363 1.125 $228 $364 forward 7 unknown #
coedge $-1 $146 $145 $365 $366 forward $62 $-1 #
coedge $-1 $367 $368 $145 $232 reversed $352 $-1 #
edge $-1 $239 -0.375 $369 0.375 $231 $370 forward 7 unknown #
coedge $-1 $225 $371 $146 $234 reversed $142 $-1 #
edge $-1 $372 -0.375 $238 0.375 $233 $373 forward 7 unknown #
coedge $-1 $228 $147 $371 $374 forward $237 $-1 #
coedge $-1 $147 $228 $367 $375 reversed $237 $-1 #
loop $-1 $-1 $235 $351 #
vertex $-1 $148 $376 #
vertex $-1 $148 $377 #
straight-curve $-1 0.375 0 0.375 0 1 0 I I #
loop $-1 $-1 $378 $97 #
coedge $-1 $242 $242 $378 $379 reversed $151 $-1 #
edge $-1 $380 0 $380 6.2831853071795862 $152 $381 forward 7 unknown #
vertex $-1 $155 $382 #
ellipse-curve $-1 0 0 0.024999999999999911 0 0 -1 0.20000000000000001 0 0 1 I I #
face $-1 $383 $384 $35 $-1 $385 forward single #
loop $-1 $-1 $386 $156 #
coedge $-1 $387 $388 $386 $389 forward $157 $-1 #
coedge $-1 $390 $158 $391 $392 reversed $103 $-1 #
coedge $-1 $158 $390 $160 $257 forward $103 $-1 #
coedge $-1 $393 $394 $158 $252 forward $395 $-1 #
edge $-1 $396 -3.1415926535897931 $397 -1.5707963267948966 $251 $398 forward 7 unknown #
coedge $-1 $160 $159 $399 $400 reversed $68 $-1 #
coedge $-1 $388 $387 $401 $255 reversed $157 $-1 #
edge $-1 $261 -2.25 $402 0 $401 $403 forward 7 unknown #
coedge $-1 $404 $405 $406 $257 forward $407 $-1 #
edge $-1 $262 -2.25 $397 0 $256 $408 forward 7 unknown #
coedge $-1 $259 $161 $405 $409 reversed $260 $-1 #
coedge $-1 $161 $258 $410 $411 forward $260 $-1 #
loop $-1 $-1 $161 $412 #
vertex $-1 $413 $414 #
vertex $-1 $415 $416 #
ellipse-curve $-1 1.4059319267082538e-033 -1.125 0 0 1 0 -0.375 0 0 1 I I #
face $-1 $417 $418 $37 $-1 $419 forward single #
loop $-1 $-1 $420 $163 #
plane-surface $-1 -0.10825317547305499 0.93700000000000006 -0.1875 0 0 -1 -1 0 0 forward_v I I I I #
coedge $-1 $421 $422 $423 $424 forward $164 $-1 #
coedge $-1 $425 $166 $422 $426 reversed $106 $-1 #
coedge $-1 $166 $425 $167 $273 forward $106 $-1 #
coedge $-1 $169 $423 $166 $271 reversed $277 $-1 #
edge $-1 $279 -0.16237976320958203 $427 0.054126587736527246 $166 $428 forward 7 unknown #
coedge $-1 $168 $167 $429 $430 reversed $71 $-1 #
edge $431 $432 0 $279 0.18799999999999994 $269 $433 forward 7 unknown #
coedge $-1 $434 $435 $168 $275 reversed $436 $-1 #
edge $-1 $437 0 $278 0.18799999999999994 $168 $438 forward 7 unknown #
coedge $-1 $439 $169 $435 $440 reversed $277 $-1 #
loop $-1 $-1 $169 $441 #
vertex $-1 $275 $442 #
vertex $-1 $273 $443 #
straight-curve $-1 -0.054126587736527502 1.1249999999999998 0.1875 -1 0 0 I I #
loop $-1 $444 $445 $171 #
plane-surface $-1 0.011363636363636352 -0.25 -1.253054340370889e-017 0 1 0 0 0 1 forward_v I I I I #
loop $-1 $-1 $177 $109 #
coedge $-1 $284 $284 $175 $286 reversed $172 $-1 #
coedge $-1 $285 $285 $445 $446 reversed $174 $-1 #
edge $-1 $447 -3.1415926535897931 $447 3.1415926535897931 $175 $448 forward 7 unknown #
coedge $-1 $287 $287 $176 $288 forward $444 $-1 #
edge $-1 $449 -3.1415926535897931 $449 3.1415926535897931 $176 $450 forward 7 unknown #
vertex $-1 $178 $451 #
ellipse-curve $-1 0 -1.125 0 0 -1 0 0.25 0 0 1 I I #
loop $-1 $452 $453 $179 #
plane-surface $-1 0.011349999999999994 0.625 -1.2526806211428967e-017 0 1 0 0 0 1 forward_v I I I I #
loop $-1 $-1 $185 $114 #
coedge $-1 $294 $294 $183 $296 reversed $180 $-1 #
coedge $-1 $295 $295 $453 $454 reversed $182 $-1 #
edge $-1 $455 -3.1415926535897931 $455 3.1415926535897931 $183 $456 forward 7 unknown #
coedge $-1 $297 $297 $184 $298 forward $452 $-1 #
edge $-1 $457 -3.1415926535897931 $457 3.1415926535897931 $184 $458 forward 7 unknown #
vertex $-1 $186 $459 #
ellipse-curve $-1 0 -0.25 0 0 -1 0 0.25014999999999998 0 0 1 I I #
face_name-twe-attrib $-1 $-1 $187 $82 4 #
face_name-twe-attrib $-1 $-1 $188 $121 5 #
model_id-kcp-attrib $-1 $460 $-1 $189 1 990669507 50 -1926103039 7 #
face $461 $462 $311 $11 $-1 $463 forward single #
cone-surface $464 0 -2.3624999999999998 0 0 1 0 0.25014999999999998 0 0 1 I I 0 1 0.25014999999999998 forward I I I I #
surf-twe-attrib $-1 $-1 $-1 $190 30 #
coedge $-1 $307 $307 $192 $308 reversed $465 $-1 #
edge $466 $467 -3.1415926535897931 $467 3.1415926535897931 $192 $468 forward 7 unknown #
coedge $-1 $309 $309 $195 $310 reversed $319 $-1 #
edge $469 $470 -3.1415926535897931 $470 3.1415926535897931 $195 $471 forward 7 unknown #
loop $472 $473 $196 $304 #
edge_name-twe-attrib $-1 $-1 $-1 $197 6 4608 #
vertex $-1 $197 $474 #
ellipse-curve $475 0 -1.375 0 0 1 0 -0.25 0 0 1 I I #
edge_name-twe-attrib $-1 $-1 $-1 $199 1 8704 #
vertex $-1 $199 $476 #
ellipse-curve $477 0 -0.500000000000001 0 -4.0000000000000003e-015 -1 0 -0.375 1.4999999999999999e-015 0 1 I I #
loop_type-twe-attrib $-1 $-1 $-1 $200 0 #
loop $478 $-1 $309 $189 #
point $-1 -0.25014999999999998 -0.5 0 #
cur-twe-attrib $-1 $-1 $-1 $203 40 #
coedge $-1 $207 $204 $479 $480 forward $58 $-1 #
coedge $-1 $481 $482 $204 $324 reversed $483 $-1 #
edge $484 $329 -0.21650635094610937 $485 0 $323 $486 forward 7 unknown #
coedge $-1 $487 $205 $211 $341 forward $327 $-1 #
coedge $-1 $205 $487 $481 $488 reversed $327 $-1 #
loop $489 $-1 $205 $490 #
attrib_edge_convexity-kcp-attrib $-1 $491 $-1 $206 1 #
vertex $-1 $488 $492 #
straight-curve $493 -0.108253175473055 0 0.1875 -1 0 0 I I #
coedge $-1 $494 $495 $207 $332 reversed $496 $-1 #
edge $497 $498 -0.21650635094611001 $337 0 $331 $499 forward 7 unknown #
coedge $-1 $500 $208 $495 $501 forward $335 $-1 #
coedge $-1 $208 $500 $210 $340 reversed $335 $-1 #
loop $502 $-1 $208 $503 #
attrib_edge_convexity-kcp-attrib $-1 $504 $-1 $209 1 #
vertex $-1 $501 $505 #
straight-curve $506 0.21650635094610901 0 0 0.499999999999997 0 0.86602540378444004 I I #
coedge $-1 $211 $210 $507 $508 forward $212 $-1 #
edge $509 $214 -0.188 $510 0 $334 $511 forward 7 unknown #
edge $512 $215 -0.188 $513 0 $325 $514 forward 7 unknown #
loop_type-twe-attrib $-1 $-1 $-1 $212 0 #
face $515 $503 $212 $11 $-1 $516 reversed single #
convexity-sys-attrib $-1 $517 $213 $135 #
point $-1 0.21650635094610901 0 0 #
point $-1 0.108253175473055 0 0.1875 #
cur-twe-attrib $-1 $-1 $-1 $216 44 #
loop_type-twe-attrib $-1 $-1 $-1 $218 1 #
edge_name-twe-attrib $-1 $-1 $219 $92 4 8704 #
model_id-kcp-attrib $-1 $-1 $-1 $222 1 990669507 50 -1926103038 2 #
face $-1 $-1 $237 $31 $-1 $518 reversed single #
loop $-1 $-1 $367 $222 #
plane-surface $-1 0 1.125 0 0 -1 0 0 0 -1 forward_v I I I I #
coedge $-1 $519 $365 $368 $520 forward $223 $-1 #
coedge $-1 $371 $225 $226 $359 reversed $142 $-1 #
coedge $-1 $365 $519 $225 $357 reversed $223 $-1 #
edge $-1 $372 -0.375 $521 0.375 $356 $522 forward 7 unknown #
coedge $-1 $227 $226 $519 $523 forward $94 $-1 #
edge $-1 $363 -0.375 $521 0.375 $355 $524 forward 7 unknown #
coedge $-1 $368 $367 $227 $361 reversed $352 $-1 #
edge $-1 $525 -0.375 $362 0.375 $360 $526 forward 7 unknown #
vertex $-1 $229 $527 #
vertex $-1 $374 $528 #
straight-curve $-1 0.375 0 -0.375 0 -1 0 I I #
coedge $-1 $354 $356 $230 $366 reversed $223 $-1 #
edge $-1 $369 -1.125 $372 1.125 $365 $529 forward 7 unknown #
coedge $-1 $360 $231 $236 $375 forward $352 $-1 #
coedge $-1 $231 $360 $354 $520 reversed $352 $-1 #
vertex $-1 $232 $530 #
straight-curve $-1 0 1.125 0.375 -1 0 0 I I #
coedge $-1 $233 $355 $235 $374 reversed $142 $-1 #
vertex $-1 $366 $531 #
straight-curve $-1 0 -1.125 0.375 1 0 0 I I #
edge $-1 $238 -0.375 $363 0.375 $235 $532 forward 7 unknown #
edge $-1 $239 -0.375 $362 0.375 $236 $533 forward 7 unknown #
point $-1 0.375 -1.125 0.375 #
point $-1 0.375 1.125 0.375 #
coedge $-1 $378 $378 $242 $379 forward $241 $-1 #
edge $-1 $534 0 $534 6.2831853071795862 $378 $535 forward 7 unknown #
vertex $-1 $243 $536 #
ellipse-curve $-1 0 0 -0.024999999999999911 0 0 -1 0.25 0 0 1 I I #
point $-1 -0.20000000000000001 2.4492127076447546e-017 0.024999999999999911 #
face $-1 $537 $538 $35 $-1 $539 reversed single #
loop $-1 $-1 $406 $246 #
plane-surface $-1 0 0 0.375 0 0 1 1 0 0 forward_v I I I I #
coedge $-1 $540 $541 $542 $389 reversed $247 $-1 #
coedge $-1 $254 $248 $543 $544 reversed $157 $-1 #
coedge $-1 $248 $254 $545 $546 reversed $157 $-1 #
edge $-1 $547 -2.25 $548 0 $542 $549 forward 7 unknown #
coedge $-1 $250 $249 $550 $551 reversed $103 $-1 #
coedge $-1 $552 $553 $554 $392 forward $555 $-1 #
edge $-1 $556 -2.25 $396 0 $391 $557 forward 7 unknown #
coedge $-1 $394 $251 $558 $559 reversed $395 $-1 #
coedge $-1 $251 $393 $552 $560 forward $395 $-1 #
loop $-1 $-1 $251 $561 #
vertex $-1 $562 $563 #
vertex $-1 $564 $565 #
ellipse-curve $-1 1.4059319267082538e-033 1.125 0 0 -1 0 -0.375 0 0 1 I I #
coedge $-1 $566 $567 $253 $400 forward $568 $-1 #
edge $-1 $397 -1.5707963267948966 $402 0 $399 $398 forward 7 unknown #
coedge $-1 $569 $570 $571 $255 forward $538 $-1 #
vertex $-1 $572 $573 #
straight-curve $-1 -0.375 1.125 0 0 1 0 I I #
coedge $-1 $574 $256 $567 $564 forward $407 $-1 #
coedge $-1 $256 $574 $258 $409 forward $407 $-1 #
coedge $-1 $575 $558 $250 $257 reversed $384 $-1 #
loop $-1 $-1 $256 $576 #
straight-curve $-1 1.4059319267082538e-033 1.125 0.375 0 1 0 I I #
edge $-1 $577 -0.375 $262 1.4059319267082538e-033 $258 $578 forward 7 unknown #
coedge $-1 $579 $571 $259 $411 reversed $580 $-1 #
edge $-1 $577 -0.375 $261 0 $410 $581 forward 7 unknown #
face $-1 $582 $260 $35 $-1 $583 reversed single #
edge $-1 $261 0 $584 0.375 $570 $581 forward 7 unknown #
point $-1 -0.375 -1.125 0 #
edge $-1 $262 1.4059319267082538e-033 $585 0.375 $586 $578 forward 7 unknown #
point $-1 1.4059319267082538e-033 -1.125 0.375 #
face $-1 $441 $436 $37 $-1 $587 forward single #
loop $-1 $-1 $588 $264 #
plane-surface $-1 0.108253175473055 0.93700000000000006 -0.1875 0.86602540378443882 0 -0.49999999999999989 -0.49999999999999989 0 -0.86602540378443882 forward_v I I I I #
coedge $-1 $589 $590 $591 $592 forward $265 $-1 #
coedge $-1 $593 $267 $590 $594 reversed $164 $-1 #
coedge $-1 $267 $593 $268 $426 forward $164 $-1 #
coedge $-1 $270 $591 $267 $424 reversed $277 $-1 #
edge $-1 $427 -0.16237976320958189 $595 0.054126587736527398 $267 $596 forward 7 unknown #
coedge $-1 $269 $268 $597 $598 reversed $106 $-1 #
edge $-1 $599 0 $427 0.18799999999999994 $422 $600 forward 7 unknown #
vertex $-1 $426 $601 #
straight-curve $-1 -0.18944305707784542 1.1249999999999998 0.046874999999999861 -0.49999999999999989 0 -0.86602540378443882 I I #
coedge $-1 $597 $602 $272 $430 forward $603 $-1 #
edge $604 $437 -0.1623797632095825 $432 0.054126587736527502 $272 $605 forward 7 unknown #
convexity-sys-attrib $-1 $-1 $-1 $273 #
vertex $-1 $430 $606 #
straight-curve $-1 -0.10825317547305499 0.93700000000000006 0.1875 0 1 0 I I #
coedge $-1 $607 $274 $602 $608 reversed $436 $-1 #
coedge $-1 $274 $607 $276 $440 forward $436 $-1 #
loop $-1 $-1 $435 $417 #
vertex $-1 $608 $609 #
straight-curve $-1 0.108253175473055 0.93700000000000006 0.1875 0 1 0 I I #
coedge $-1 $591 $276 $588 $610 reversed $277 $-1 #
edge $-1 $611 -0.16237976320958189 $278 0.054126587736527385 $435 $612 forward 7 unknown #
face $-1 $613 $277 $37 $-1 $614 forward single #
point $-1 0.108253175473055 1.125 0.1875 #
point $-1 -0.10825317547305499 1.125 0.1875 #
loop $-1 $-1 $287 $171 #
coedge $-1 $445 $445 $285 $446 forward $281 $-1 #
edge $615 $616 -3.1415926535897931 $616 3.1415926535897931 $285 $617 forward 7 unknown #
vertex $-1 $286 $618 #
ellipse-curve $-1 1.4059319267082538e-033 -1.125 0 0 1 0 -0.375 0 0 1 I I #
vertex $-1 $288 $619 #
ellipse-curve $-1 0 -0.25 0 0 -1 0 0.25 0 0 1 I I #
point $-1 -0.25 -1.125 0 #
loop $-1 $-1 $297 $179 #
coedge $-1 $453 $453 $295 $454 forward $291 $-1 #
edge $620 $621 -3.1415926535897931 $621 3.1415926535897931 $295 $622 forward 7 unknown #
vertex $-1 $296 $623 #
ellipse-curve $-1 1.4059319267082538e-033 -0.25 0 0 1 0 -0.375 0 0 1 I I #
vertex $-1 $298 $624 #
ellipse-curve $-1 0 0.625 0 0 -1 0 0.25014999999999998 0 0 1 I I #
point $-1 -0.25014999999999998 -0.25 0 #
face_name-twe-attrib $-1 $-1 $303 $189 6 #
model_id-kcp-attrib $-1 $625 $-1 $304 1 990669507 50 -1926103039 8 #
face $626 $627 $628 $11 $-1 $629 forward single #
cone-surface $630 0 -2.3624999999999998 0 0 1 0 0.25 0 0 1 I I 0 1 0.25 forward I I I I #
surf-twe-attrib $-1 $-1 $-1 $305 50 #
loop $631 $-1 $307 $462 #
attrib_edge_convexity-kcp-attrib $-1 $632 $-1 $308 1 #
vertex $-1 $308 $633 #
ellipse-curve $634 0 -2.25 0 0 -1 0 -0.20000000000000001 0 0 1 I I #
edge_name-twe-attrib $-1 $-1 $-1 $310 2 8704 #
vertex $-1 $310 $635 #
ellipse-curve $636 0 -1.375 0 0 -1 0 -0.25014999999999998 0 0 1 I I #
loop_type-twe-attrib $-1 $-1 $-1 $311 0 #
loop $637 $-1 $638 $304 #
point $-1 -0.25 -1.375 0 #
cur-twe-attrib $-1 $-1 $-1 $314 58 #
point $-1 0.375 -0.500000000000003 -4.5924247045776401e-017 #
cur-twe-attrib $-1 $-1 $-1 $317 60 #
loop_type-twe-attrib $-1 $-1 $-1 $319 1 #
coedge $-1 $639 $640 $322 $480 reversed $641 $-1 #
edge $642 $485 -0.21650635094610937 $498 0 $479 $643 forward 7 unknown #
coedge $-1 $644 $323 $326 $488 forward $483 $-1 #
coedge $-1 $323 $644 $639 $645 reversed $483 $-1 #
loop $646 $-1 $323 $647 #
attrib_edge_convexity-kcp-attrib $-1 $648 $-1 $324 1 #
vertex $-1 $645 $649 #
straight-curve $650 -0.21650635094610901 0 0 -0.499999999999997 0 -0.86602540378444004 I I #
coedge $-1 $326 $325 $651 $652 forward $327 $-1 #
edge $653 $329 -0.188 $654 0 $326 $655 forward 7 unknown #
loop_type-twe-attrib $-1 $-1 $-1 $327 0 #
face $656 $-1 $327 $11 $-1 $657 reversed single #
convexity-sys-attrib $-1 $658 $328 $206 #
point $-1 -0.108253175473055 0 0.1875 #
cur-twe-attrib $-1 $-1 $-1 $330 67 #
coedge $-1 $659 $331 $640 $660 forward $496 $-1 #
coedge $-1 $331 $659 $333 $501 reversed $496 $-1 #
loop $661 $-1 $331 $662 #
attrib_edge_convexity-kcp-attrib $-1 $663 $-1 $332 1 #
vertex $-1 $660 $664 #
straight-curve $665 0.108253175473055 0 -0.1875 1 0 0 I I #
coedge $-1 $334 $333 $666 $667 forward $335 $-1 #
edge $668 $337 -0.188 $669 0 $495 $670 forward 7 unknown #
loop_type-twe-attrib $-1 $-1 $-1 $335 0 #
face $671 $662 $335 $11 $-1 $672 reversed single #
convexity-sys-attrib $-1 $673 $336 $209 #
point $-1 0.108253175473055 0 -0.1875 #
cur-twe-attrib $-1 $-1 $-1 $338 70 #
coedge $-1 $666 $651 $339 $508 reversed $674 $-1 #
edge $675 $510 -0.21650635094610937 $513 0 $339 $676 forward 7 unknown #
edge_name-twe-attrib $-1 $-1 $-1 $340 12 4352 #
vertex $-1 $340 $677 #
straight-curve $678 0.21650635094610901 -0.188 0 0 -1 0 I I #
edge_name-twe-attrib $-1 $-1 $-1 $341 23 4352 #
vertex $-1 $341 $679 #
straight-curve $680 0.108253175473055 -0.188 0.1875 0 -1 0 I I #
model_id-kcp-attrib $-1 $681 $-1 $343 1 990669507 50 -1926103039 11 #
plane-surface $682 0.108253175473055 -0.188 0.1875 0.86602540378443882 0 0.49999999999999989 0.5 0 -0.86602540378443904 forward_v I I I I #
edge_name-twe-attrib $-1 $-1 $344 $135 8 8704 #
plane-surface $-1 0.375 0 0 -1 0 0 0 0 1 forward_v I I I I #
coedge $-1 $356 $354 $358 $523 reversed $223 $-1 #
edge $-1 $369 -0.375 $525 0.375 $368 $683 forward 7 unknown #
vertex $-1 $523 $684 #
straight-curve $-1 -0.375 -1.125 0 0 0 -1 I I #
edge $-1 $521 -1.125 $525 1.125 $519 $685 forward 7 unknown #
straight-curve $-1 0 -1.125 -0.375 -1 0 0 I I #
vertex $-1 $361 $686 #
straight-curve $-1 0 1.125 -0.375 1 0 0 I I #
point $-1 0.375 1.125 -0.375 #
point $-1 0.375 -1.125 -0.375 #
straight-curve $-1 -0.375 0 0.375 0 -1 0 I I #
point $-1 -0.375 1.125 0.375 #
point $-1 -0.375 -1.125 0.375 #
straight-curve $-1 0.375 -1.125 0 0 0 -1 I I #
straight-curve $-1 0.375 1.125 0 0 0 -1 I I #
vertex $-1 $379 $687 #
ellipse-curve $-1 0 0 0.024999999999999911 0 0 1 0.25 0 0 1 I I #
point $-1 0.25 0 -0.024999999999999911 #
face $-1 $688 $689 $35 $-1 $690 reversed single #
loop $-1 $-1 $401 $383 #
plane-surface $-1 -0.375 0 0 1 0 0 0 0 -1 forward_v I I I I #
coedge $-1 $691 $386 $692 $693 reversed $247 $-1 #
coedge $-1 $386 $691 $694 $695 reversed $247 $-1 #
coedge $-1 $696 $697 $698 $389 forward $699 $-1 #
coedge $-1 $700 $701 $387 $544 forward $702 $-1 #
edge $-1 $402 0 $548 1.5707963267948966 $543 $398 forward 7 unknown #
coedge $-1 $703 $704 $388 $546 forward $705 $-1 #
edge $-1 $547 -1.5707963267948966 $261 0 $545 $263 forward 7 unknown #
vertex $-1 $706 $707 #
vertex $-1 $708 $709 #
straight-curve $-1 1.4059319267082538e-033 1.125 -0.375 0 1 0 I I #
coedge $-1 $710 $586 $390 $551 forward $711 $-1 #
edge $-1 $262 1.5707963267948966 $556 3.1415926535897931 $550 $263 forward 7 unknown #
coedge $-1 $712 $391 $394 $560 reversed $555 $-1 #
coedge $-1 $391 $712 $710 $713 forward $555 $-1 #
coedge $-1 $714 $715 $691 $392 reversed $689 $-1 #
loop $-1 $-1 $391 $716 #
vertex $-1 $717 $718 #
straight-curve $-1 0.375 1.125 0 0 1 0 I I #
coedge $-1 $406 $719 $393 $559 forward $384 $-1 #
edge $-1 $720 -0.375 $397 -1.4059319267082538e-033 $393 $721 forward 7 unknown #
edge $-1 $720 -0.375 $396 0 $552 $722 forward 7 unknown #
face $-1 $723 $395 $35 $-1 $724 reversed single #
edge $-1 $396 0 $725 0.375 $715 $722 forward 7 unknown #
point $-1 0.375 1.125 0 #
edge $-1 $397 -1.4059319267082538e-033 $726 0.375 $567 $721 forward 7 unknown #
point $-1 1.4059319267082538e-033 1.125 0.375 #
coedge $-1 $567 $399 $727 $728 reversed $568 $-1 #
coedge $-1 $399 $566 $404 $564 reversed $568 $-1 #
loop $-1 $-1 $399 $723 #
coedge $-1 $729 $401 $701 $572 forward $538 $-1 #
coedge $-1 $401 $729 $703 $413 reversed $538 $-1 #
coedge $-1 $410 $727 $159 $255 reversed $580 $-1 #
edge $-1 $402 0 $730 0.375 $701 $731 forward 7 unknown #
point $-1 -0.375 1.125 0 #
coedge $-1 $405 $404 $579 $732 forward $407 $-1 #
coedge $-1 $719 $406 $586 $415 forward $384 $-1 #
face $-1 $733 $407 $35 $-1 $385 forward single #
vertex $-1 $732 $734 #
straight-curve $-1 0 -1.125 0.375 1 0 0 I I #
coedge $-1 $727 $410 $574 $732 reversed $580 $-1 #
loop $-1 $-1 $571 $735 #
straight-curve $-1 -0.375 -1.125 0 0 0 -1 I I #
face $-1 $736 $711 $35 $-1 $583 reversed single #
plane-surface $-1 0 -1.125 0 0 1 0 0 0 1 forward_v I I I I #
vertex $-1 $737 $738 #
vertex $-1 $739 $740 #
coedge $-1 $550 $710 $575 $415 reversed $711 $-1 #
plane-surface $-1 0.21650635094610901 0.93700000000000006 0 0.86602540378443882 0 0.49999999999999989 0.49999999999999989 0 -0.86602540378443882 forward_v I I I I #
coedge $-1 $741 $742 $439 $610 forward $418 $-1 #
coedge $-1 $743 $420 $742 $744 reversed $265 $-1 #
coedge $-1 $420 $743 $421 $594 forward $265 $-1 #
coedge $-1 $423 $439 $420 $592 reversed $277 $-1 #
edge $-1 $595 -0.1623797632095825 $745 0.054126587736527502 $420 $746 forward 7 unknown #
coedge $-1 $422 $421 $747 $748 reversed $164 $-1 #
edge $-1 $749 0 $595 0.18799999999999994 $590 $750 forward 7 unknown #
vertex $-1 $594 $751 #
straight-curve $-1 -0.13531646934131869 1.1249999999999998 -0.14062500000000003 0.49999999999999989 0 -0.86602540378443882 I I #
coedge $-1 $747 $429 $425 $598 forward $603 $-1 #
edge $752 $432 -0.16237976320958203 $599 0.054126587736527246 $425 $753 forward 7 unknown #
vertex $-1 $598 $754 #
straight-curve $-1 -0.21650635094610901 0.93700000000000006 0 0 1 0 I I #
point $-1 -0.21650635094610901 1.125 0 #
coedge $-1 $429 $755 $434 $608 forward $603 $-1 #
loop $-1 $-1 $602 $613 #
convexity-sys-attrib $-1 $-1 $-1 $430 #
straight-curve $-1 -0.054126587736527502 0.93699999999999983 0.1875 -1 0 0 I I #
point $-1 -0.108253175473055 0.93700000000000006 0.1875 #
coedge $-1 $435 $434 $741 $756 forward $436 $-1 #
edge $757 $758 -0.16237976320958189 $437 0.054126587736527385 $434 $759 forward 7 unknown #
point $-1 0.108253175473055 0.93700000000000006 0.1875 #
edge $-1 $745 -0.16237976320958203 $611 0.054126587736527246 $588 $760 forward 7 unknown #
vertex $-1 $756 $761 #
straight-curve $-1 0.13531646934131869 1.1249999999999998 0.14062500000000003 -0.49999999999999989 0 0.86602540378443882 I I #
face $-1 $-1 $603 $37 $-1 $762 reversed single #
plane-surface $-1 -1.4718865856772942e-018 1.1249999999999991 0 -2.9392023082087001e-031 1 5.911727896370322e-046 0 -5.911727896370322e-046 1 forward_v I I I I #
convexity-sys-attrib $-1 $-1 $-1 $446 #
vertex $-1 $446 $763 #
ellipse-curve $-1 1.4059319267082538e-033 -0.25 0 0 1 0 -0.375 0 0 1 I I #
point $-1 0.375 -1.125 -4.5922738268339147e-017 #
point $-1 -0.25 -0.25 0 #
convexity-sys-attrib $-1 $-1 $-1 $454 #
vertex $-1 $454 $764 #
ellipse-curve $-1 1.4059319267082538e-033 0.625 0 0 1 0 -0.375 0 0 1 I I #
point $-1 0.375 -0.25 -4.5922738268339147e-017 #
point $-1 -0.25014999999999998 0.625 0 #
face_name-twe-attrib $-1 $-1 $461 $304 7 #
model_id-kcp-attrib $-1 $765 $-1 $462 1 990669507 50 -1926103039 9 #
face $766 $343 $674 $11 $-1 $767 forward single #
loop $768 $465 $769 $462 #
cone-surface $770 0 -2.2000000000000002 0 0 1 0 -0.25 0 0 1 I I 0.70710678118654902 0.70710678118654602 0.25 forward I I I I #
surf-twe-attrib $-1 $-1 $-1 $463 83 #
loop_type-twe-attrib $-1 $-1 $-1 $465 1 #
convexity-sys-attrib $-1 $771 $466 $308 #
point $-1 0.20000000000000001 -2.25 -2.4492931757747401e-017 #
cur-twe-attrib $-1 $-1 $-1 $468 87 #
point $-1 0.25014999999999998 -1.375 -3.0634534396002597e-017 #
cur-twe-attrib $-1 $-1 $-1 $471 89 #
loop_type-twe-attrib $-1 $-1 $-1 $473 1 #
coedge $-1 $638 $638 $769 $772 forward $473 $-1 #
coedge $-1 $773 $479 $482 $645 forward $641 $-1 #
coedge $-1 $479 $773 $494 $660 reversed $641 $-1 #
loop $774 $-1 $479 $775 #
attrib_edge_convexity-kcp-attrib $-1 $776 $-1 $480 1 #
straight-curve $777 -0.108253175473055 0 -0.1875 0.499999999999997 0 -0.86602540378444004 I I #
coedge $-1 $482 $481 $778 $779 forward $483 $-1 #
edge $780 $485 -0.188 $781 0 $482 $782 forward 7 unknown #
loop_type-twe-attrib $-1 $-1 $-1 $483 0 #
face $783 $490 $483 $11 $-1 $784 reversed single #
convexity-sys-attrib $-1 $785 $484 $324 #
point $-1 -0.21650635094610901 0 0 #
cur-twe-attrib $-1 $-1 $-1 $486 103 #
coedge $-1 $507 $778 $487 $652 reversed $674 $-1 #
edge $786 $513 -0.21650635094611001 $654 0 $487 $787 forward 7 unknown #
edge_name-twe-attrib $-1 $-1 $-1 $488 25 4352 #
vertex $-1 $488 $788 #
straight-curve $789 -0.108253175473055 -0.188 0.1875 0 -1 0 I I #
model_id-kcp-attrib $-1 $790 $-1 $490 1 990669507 50 -1926103039 16 #
plane-surface $791 -0.108253175473055 -0.188 0.1875 0 0 1 1 0 0 forward_v I I I I #
edge_name-twe-attrib $-1 $-1 $491 $206 22 8704 #
coedge $-1 $495 $494 $792 $793 forward $496 $-1 #
edge $794 $498 -0.188 $795 0 $640 $796 forward 7 unknown #
loop_type-twe-attrib $-1 $-1 $-1 $496 0 #
face $797 $775 $496 $11 $-1 $798 reversed single #
convexity-sys-attrib $-1 $799 $497 $332 #
point $-1 -0.108253175473055 0 -0.1875 #
cur-twe-attrib $-1 $-1 $-1 $499 111 #
coedge $-1 $792 $507 $500 $667 reversed $674 $-1 #
edge $800 $669 -0.21650635094610937 $510 0 $500 $801 forward 7 unknown #
edge_name-twe-attrib $-1 $-1 $-1 $501 15 4352 #
vertex $-1 $501 $802 #
straight-curve $803 0.108253175473055 -0.188 -0.1875 0 -1 0 I I #
model_id-kcp-attrib $-1 $804 $-1 $503 1 990669507 50 -1926103039 12 #
plane-surface $805 0.21650635094610901 -0.188 0 0.86602540378443882 0 -0.49999999999999989 -0.5 0 -0.86602540378443904 forward_v I I I I #
edge_name-twe-attrib $-1 $-1 $504 $209 10 8704 #
loop $806 $-1 $507 $627 #
edge_name-twe-attrib $-1 $-1 $-1 $508 9 4608 #
straight-curve $807 0.108253175473055 -0.188 0.1875 -0.499999999999997 0 0.86602540378444004 I I #
point $-1 0.21650635094610901 -0.188 0 #
cur-twe-attrib $-1 $-1 $-1 $511 119 #
point $-1 0.108253175473055 -0.188 0.1875 #
cur-twe-attrib $-1 $-1 $-1 $514 120 #
face_name-twe-attrib $-1 $-1 $515 $343 10 #
surf-twe-attrib $-1 $-1 $-1 $516 122 #
straight-curve $-1 -0.375 1.125 0 0 0 -1 I I #
point $-1 -0.375 -1.125 -0.375 #
straight-curve $-1 -0.375 0 -0.375 0 1 0 I I #
point $-1 -0.375 1.125 -0.375 #
point $-1 0.25 0 0.024999999999999911 #
face $-1 $561 $808 $35 $-1 $724 reversed single #
loop $-1 $-1 $554 $537 #
plane-surface $-1 0.375 0 0 -1 0 0 0 0 1 forward_v I I I I #
coedge $-1 $541 $540 $249 $392 forward $247 $-1 #
coedge $-1 $809 $810 $540 $693 forward $811 $-1 #
edge $-1 $556 -3.1415926535897931 $547 -1.5707963267948966 $692 $263 forward 7 unknown #
coedge $-1 $812 $813 $541 $695 forward $808 $-1 #
edge $-1 $548 1.5707963267948966 $396 3.1415926535897931 $694 $398 forward 7 unknown #
coedge $-1 $814 $542 $813 $708 forward $699 $-1 #
coedge $-1 $542 $814 $809 $815 forward $699 $-1 #
coedge $-1 $816 $817 $248 $389 reversed $818 $-1 #
loop $-1 $-1 $542 $733 #
coedge $-1 $701 $543 $817 $819 reversed $702 $-1 #
coedge $-1 $543 $700 $569 $572 reversed $702 $-1 #
loop $-1 $-1 $543 $820 #
coedge $-1 $704 $545 $570 $413 forward $705 $-1 #
coedge $-1 $545 $703 $816 $706 reversed $705 $-1 #
loop $-1 $-1 $545 $821 #
edge $-1 $547 -1.4059319267082538e-033 $584 0.375 $704 $822 forward 7 unknown #
point $-1 1.4059319267082538e-033 -1.125 -0.375 #
edge $-1 $548 1.4059319267082538e-033 $725 0.375 $813 $823 forward 7 unknown #
point $-1 1.4059319267082538e-033 1.125 -0.375 #
coedge $-1 $586 $550 $553 $713 reversed $711 $-1 #
loop $-1 $-1 $550 $582 #
coedge $-1 $553 $552 $719 $739 reversed $555 $-1 #
edge $-1 $585 -0.375 $556 0 $553 $824 forward 7 unknown #
coedge $-1 $825 $554 $810 $717 forward $689 $-1 #
coedge $-1 $554 $825 $812 $562 reversed $689 $-1 #
face $-1 $-1 $555 $35 $-1 $690 reversed single #
edge $-1 $556 0 $826 0.375 $714 $824 forward 7 unknown #
point $-1 0.375 -1.125 0 #
coedge $-1 $558 $575 $712 $739 forward $384 $-1 #
vertex $-1 $739 $827 #
straight-curve $-1 0 1.125 0.375 -1 0 0 I I #
straight-curve $-1 0.375 1.125 0 0 0 -1 I I #
face $-1 $820 $568 $35 $-1 $724 reversed single #
plane-surface $-1 0 1.125 0 0 -1 0 0 0 -1 forward_v I I I I #
vertex $-1 $828 $829 #
vertex $-1 $564 $830 #
coedge $-1 $571 $579 $566 $728 forward $580 $-1 #
edge $-1 $726 -0.375 $402 0 $566 $731 forward 7 unknown #
coedge $-1 $570 $569 $831 $737 reversed $538 $-1 #
vertex $-1 $819 $832 #
straight-curve $-1 -0.375 1.125 0 0 0 -1 I I #
edge $-1 $726 -1.125 $577 1.125 $579 $833 forward 7 unknown #
face $-1 $735 $699 $35 $-1 $834 reversed single #
point $-1 -0.375 -1.125 0.375 #
face $-1 $716 $580 $35 $-1 $539 reversed single #
face $-1 $835 $811 $35 $-1 $583 reversed single #
edge $-1 $584 -1.125 $730 1.125 $729 $836 forward 7 unknown #
point $-1 -0.375 -1.125 -0.375 #
edge $-1 $585 -1.125 $720 1.125 $712 $837 forward 7 unknown #
point $-1 0.375 -1.125 0.375 #
coedge $-1 $838 $588 $607 $756 reversed $418 $-1 #
coedge $-1 $588 $838 $589 $744 forward $418 $-1 #
coedge $-1 $590 $589 $839 $840 reversed $265 $-1 #
edge $-1 $841 0 $745 0.18799999999999994 $742 $842 forward 7 unknown #
vertex $-1 $744 $843 #
straight-curve $-1 0.054126587736527502 1.1249999999999998 -0.1875 1 0 0 I I #
coedge $-1 $839 $597 $593 $748 forward $603 $-1 #
edge $844 $599 -0.16237976320958189 $749 0.054126587736527385 $593 $845 forward 7 unknown #
vertex $-1 $748 $846 #
straight-curve $-1 -0.10825317547305499 0.93700000000000006 -0.1875 0 1 0 I I #
point $-1 -0.10825317547305499 1.125 -0.1875 #
convexity-sys-attrib $-1 $-1 $-1 $598 #
straight-curve $-1 -0.18944305707784542 0.93699999999999983 0.046874999999999861 -0.49999999999999989 0 -0.86602540378443882 I I #
point $-1 -0.21650635094610901 0.93700000000000006 0 #
coedge $-1 $602 $839 $838 $847 forward $603 $-1 #
edge $-1 $758 0 $611 0.18799999999999994 $607 $848 forward 7 unknown #
convexity-sys-attrib $-1 $-1 $-1 $608 #
vertex $-1 $608 $849 #
straight-curve $-1 0.13531646934131869 0.93699999999999983 0.14062500000000003 -0.49999999999999989 0 0.86602540378443882 I I #
straight-curve $-1 0.18944305707784542 1.1249999999999998 -0.046874999999999861 0.49999999999999989 0 0.86602540378443882 I I #
point $-1 0.21650635094610901 1.125 0 #
plane-surface $-1 -1.4718865856772942e-018 0.93699999999999928 0 -2.9392023082087001e-031 1 5.911727896370322e-046 0 -5.911727896370322e-046 1 forward_v I I I I #
point $-1 0.375 -0.25 -4.5922738268339147e-017 #
point $-1 0.375 0.625 -4.5922738268339147e-017 #
face_name-twe-attrib $-1 $-1 $626 $462 8 #
model_id-kcp-attrib $-1 $850 $-1 $627 1 990669507 50 -1926103039 10 #
plane-surface $851 0 -0.188 0 0 1 0 0 0 1 forward_v I I I I #
loop_type-twe-attrib $-1 $-1 $-1 $628 0 #
coedge $-1 $769 $769 $638 $772 reversed $628 $-1 #
surf-twe-attrib $-1 $-1 $-1 $629 128 #
edge_name-twe-attrib $-1 $-1 $632 $308 3 8448 #
edge $852 $853 -3.1415926535897931 $853 3.1415926535897931 $769 $854 forward 7 unknown #
coedge $-1 $640 $639 $855 $856 forward $641 $-1 #
loop_type-twe-attrib $-1 $-1 $-1 $641 0 #
face $857 $647 $641 $11 $-1 $858 reversed single #
convexity-sys-attrib $-1 $859 $642 $480 #
cur-twe-attrib $-1 $-1 $-1 $643 146 #
coedge $-1 $651 $855 $644 $779 reversed $674 $-1 #
edge $860 $654 -0.21650635094610937 $781 0 $644 $861 forward 7 unknown #
edge_name-twe-attrib $-1 $-1 $-1 $645 21 4352 #
vertex $-1 $645 $862 #
straight-curve $863 -0.21650635094610901 -0.188 0 0 -1 0 I I #
model_id-kcp-attrib $-1 $864 $-1 $647 1 990669507 50 -1926103039 15 #
plane-surface $865 -0.21650635094610901 -0.188 0 -0.86602540378443882 0 0.49999999999999989 0.5 0 0.86602540378443904 forward_v I I I I #
edge_name-twe-attrib $-1 $-1 $648 $324 19 8704 #
edge_name-twe-attrib $-1 $-1 $-1 $652 24 4608 #
straight-curve $866 -0.108253175473055 -0.188 0.1875 -1 0 0 I I #
point $-1 -0.108253175473055 -0.188 0.1875 #
cur-twe-attrib $-1 $-1 $-1 $655 154 #
face_name-twe-attrib $-1 $-1 $656 $490 15 #
surf-twe-attrib $-1 $-1 $-1 $657 156 #
coedge $-1 $855 $666 $659 $793 reversed $674 $-1 #
edge $867 $795 -0.21650635094611001 $669 0 $659 $868 forward 7 unknown #
edge_name-twe-attrib $-1 $-1 $-1 $660 18 4352 #
vertex $-1 $660 $869 #
straight-curve $870 -0.108253175473055 -0.188 -0.1875 0 -1 0 I I #
model_id-kcp-attrib $-1 $871 $-1 $662 1 990669507 50 -1926103039 13 #
plane-surface $872 0.108253175473055 -0.188 -0.1875 0 0 -1 -1 0 0 forward_v I I I I #
edge_name-twe-attrib $-1 $-1 $663 $332 13 8704 #
edge_name-twe-attrib $-1 $-1 $-1 $667 11 4608 #
straight-curve $873 0.21650635094610901 -0.188 0 0.499999999999997 0 0.86602540378444004 I I #
point $-1 0.108253175473055 -0.188 -0.1875 #
cur-twe-attrib $-1 $-1 $-1 $670 166 #
face_name-twe-attrib $-1 $-1 $671 $503 11 #
surf-twe-attrib $-1 $-1 $-1 $672 168 #
loop_type-twe-attrib $-1 $-1 $-1 $674 0 #
cur-twe-attrib $-1 $-1 $-1 $676 172 #
loop $-1 $-1 $694 $688 #
coedge $-1 $810 $692 $697 $815 reversed $811 $-1 #
coedge $-1 $692 $809 $714 $717 reversed $811 $-1 #
loop $-1 $-1 $692 $736 #
coedge $-1 $813 $694 $715 $562 forward $808 $-1 #
coedge $-1 $694 $812 $696 $708 reversed $808 $-1 #
coedge $-1 $697 $696 $825 $828 forward $699 $-1 #
edge $-1 $826 -0.375 $547 -1.4059319267082538e-033 $809 $822 forward 7 unknown #
coedge $-1 $831 $698 $704 $706 forward $818 $-1 #
coedge $-1 $698 $831 $700 $819 forward $818 $-1 #
loop $-1 $-1 $698 $835 #
edge $-1 $730 -0.375 $548 1.4059319267082538e-033 $700 $823 forward 7 unknown #
face $-1 $821 $702 $35 $-1 $724 reversed single #
face $-1 $412 $705 $35 $-1 $583 reversed single #
straight-curve $-1 0 -1.125 -0.375 -1 0 0 I I #
straight-curve $-1 0 1.125 -0.375 1 0 0 I I #
straight-curve $-1 0.375 -1.125 0 0 0 -1 I I #
coedge $-1 $715 $714 $814 $828 reversed $689 $-1 #
vertex $-1 $717 $874 #
point $-1 0.375 1.125 0.375 #
edge $-1 $725 -1.125 $826 1.125 $825 $875 forward 7 unknown #
point $-1 0.375 1.125 -0.375 #
point $-1 -0.375 1.125 0.375 #
coedge $-1 $817 $816 $729 $737 forward $818 $-1 #
point $-1 -0.375 1.125 -0.375 #
straight-curve $-1 -0.375 0 0.375 0 -1 0 I I #
plane-surface $-1 0 0 -0.375 0 0 1 1 0 0 forward_v I I I I #
face $-1 $576 $818 $35 $-1 $834 reversed single #
straight-curve $-1 -0.375 0 -0.375 0 1 0 I I #
straight-curve $-1 0.375 0 0.375 0 1 0 I I #
coedge $-1 $742 $741 $755 $847 reversed $418 $-1 #
coedge $-1 $755 $747 $743 $840 forward $603 $-1 #
edge $876 $749 -0.1623797632095825 $841 0.054126587736527502 $743 $877 forward 7 unknown #
vertex $-1 $840 $878 #
straight-curve $-1 0.108253175473055 0.93700000000000006 -0.1875 0 1 0 I I #
point $-1 0.108253175473055 1.125 -0.1875 #
convexity-sys-attrib $-1 $-1 $-1 $748 #
straight-curve $-1 -0.13531646934131869 0.93699999999999983 -0.14062500000000003 0.49999999999999989 0 -0.86602540378443882 I I #
point $-1 -0.108253175473055 0.93700000000000006 -0.1875 #
edge $879 $841 -0.16237976320958203 $758 0.054126587736527246 $838 $880 forward 7 unknown #
straight-curve $-1 0.21650635094610901 0.93700000000000006 0 0 1 0 I I #
point $-1 0.21650635094610901 0.93700000000000006 0 #
face_name-twe-attrib $-1 $-1 $766 $627 9 #
surf-twe-attrib $-1 $-1 $-1 $767 182 #
attrib_edge_convexity-kcp-attrib $-1 $881 $-1 $772 1 #
vertex $-1 $772 $882 #
ellipse-curve $883 0 -2.2000000000000002 0 0 1 0 -0.25 0 0 1 I I #
coedge $-1 $778 $792 $773 $856 reversed $674 $-1 #
edge $884 $781 -0.21650635094610937 $795 0 $773 $885 forward 7 unknown #
model_id-kcp-attrib $-1 $886 $-1 $775 1 990669507 50 -1926103039 14 #
plane-surface $887 -0.108253175473055 -0.188 -0.1875 -0.86602540378443882 0 -0.49999999999999989 -0.5 0 0.86602540378443904 forward_v I I I I #
edge_name-twe-attrib $-1 $-1 $776 $480 16 8704 #
edge_name-twe-attrib $-1 $-1 $-1 $779 20 4608 #
straight-curve $888 -0.21650635094610901 -0.188 0 -0.499999999999997 0 -0.86602540378444004 I I #
point $-1 -0.21650635094610901 -0.188 0 #
cur-twe-attrib $-1 $-1 $-1 $782 199 #
face_name-twe-attrib $-1 $-1 $783 $647 14 #
surf-twe-attrib $-1 $-1 $-1 $784 201 #
cur-twe-attrib $-1 $-1 $-1 $787 205 #
edge_name-twe-attrib $-1 $-1 $-1 $793 14 4608 #
straight-curve $889 0.108253175473055 -0.188 -0.1875 1 0 0 I I #
point $-1 -0.108253175473055 -0.188 -0.1875 #
cur-twe-attrib $-1 $-1 $-1 $796 212 #
face_name-twe-attrib $-1 $-1 $797 $662 12 #
surf-twe-attrib $-1 $-1 $-1 $798 214 #
cur-twe-attrib $-1 $-1 $-1 $801 218 #
point $-1 0.375 -1.125 -0.375 #
straight-curve $-1 0.375 0 -0.375 0 -1 0 I I #
convexity-sys-attrib $-1 $-1 $-1 $840 #
straight-curve $-1 0.054126587736527502 0.93699999999999983 -0.1875 1 0 0 I I #
point $-1 0.108253175473055 0.93700000000000006 -0.1875 #
convexity-sys-attrib $-1 $-1 $-1 $847 #
straight-curve $-1 0.18944305707784542 0.93699999999999983 -0.046874999999999861 0.49999999999999989 0 0.86602540378443882 I I #
convexity-sys-attrib $-1 $890 $852 $772 #
point $-1 0.25 -2.2000000000000002 3.0616164697184302e-017 #
cur-twe-attrib $-1 $-1 $-1 $854 237 #
edge_name-twe-attrib $-1 $-1 $-1 $856 17 4608 #
straight-curve $891 -0.108253175473055 -0.188 -0.1875 0.499999999999997 0 -0.86602540378444004 I I #
face_name-twe-attrib $-1 $-1 $857 $775 13 #
surf-twe-attrib $-1 $-1 $-1 $858 240 #
cur-twe-attrib $-1 $-1 $-1 $861 243 #
cur-twe-attrib $-1 $-1 $-1 $868 255 #
edge_name-twe-attrib $-1 $-1 $881 $772 7 8448 #
cur-twe-attrib $-1 $-1 $-1 $885 273 #
End-of-ACIS-data 