600 0 1 0           
111 GICL ACIS Healer - Source: /gicl/data5/repository/ICEM-CDC/Fixture_Models/LocatingBolt1/LocatingBolt1.sat - 6 0 18 ACIS 6.0.3 Solaris 24 Sat Apr 13 23:06:40 2002 
1 9.999999999999999547e-07 1.000000000000000036e-10 
body $-1 $1 $-1 $2 #
lump $-1 $-1 $3 $0 #
transform $-1 1 0 0 0 1 0 0 0 1 0 0 0 1 no_rotate no_reflect no_shear #
shell $-1 $-1 $-1 $4 $-1 $1 #
face $5 $6 $7 $3 $-1 $8 forward single #
face_name-twe-attrib $-1 $-1 $-1 $4 1 #
face $9 $10 $11 $3 $-1 $12 reversed single #
loop $13 $14 $15 $4 #
plane-surface $16 0 0 0 0 1 0 0 0 1 forward_v I I I I #
face_name-twe-attrib $-1 $-1 $-1 $6 2 #
face $17 $18 $19 $3 $-1 $20 reversed single #
loop $21 $22 $23 $6 #
plane-surface $24 0 -0.5 0 0 1 0 0 0 1 forward_v I I I I #
loop_type-twe-attrib $-1 $-1 $-1 $7 0 #
loop $25 $-1 $26 $4 #
coedge $-1 $15 $15 $27 $28 forward $7 $-1 #
surf-twe-attrib $-1 $-1 $-1 $8 4 #
face_name-twe-attrib $-1 $-1 $-1 $10 3 #
face $29 $30 $31 $3 $-1 $32 reversed single #
loop $33 $34 $35 $10 #
plane-surface $36 0 -1.375 0 0 1 0 0 0 1 forward_v I I I I #
loop_type-twe-attrib $-1 $-1 $-1 $11 1 #
loop $37 $-1 $38 $6 #
coedge $-1 $23 $23 $39 $40 forward $11 $-1 #
surf-twe-attrib $-1 $-1 $-1 $12 6 #
loop_type-twe-attrib $-1 $-1 $-1 $14 1 #
coedge $-1 $41 $42 $43 $44 forward $14 $-1 #
coedge $-1 $27 $27 $15 $28 reversed $45 $-1 #
edge $46 $47 0 $47 6.283185307179586232 $27 $48 forward 7 unknown #
face_name-twe-attrib $-1 $-1 $-1 $18 4 #
face $49 $50 $45 $3 $-1 $51 forward single #
loop $52 $-1 $53 $18 #
plane-surface $54 0 -2.25 0 0 1 0 0 0 1 forward_v I I I I #
loop_type-twe-attrib $-1 $-1 $-1 $19 1 #
loop $55 $-1 $56 $10 #
coedge $-1 $35 $35 $57 $58 forward $19 $-1 #
surf-twe-attrib $-1 $-1 $-1 $20 10 #
loop_type-twe-attrib $-1 $-1 $-1 $22 0 #
coedge $-1 $38 $38 $59 $60 forward $22 $-1 #
coedge $-1 $39 $39 $23 $40 reversed $61 $-1 #
edge $62 $63 0 $63 6.283185307179586232 $39 $64 forward 7 unknown #
coedge $-1 $65 $26 $66 $67 forward $14 $-1 #
coedge $-1 $26 $68 $69 $70 forward $14 $-1 #
coedge $-1 $71 $72 $26 $44 reversed $73 $-1 #
edge $74 $75 -0.2165063509461093716 $76 0 $43 $77 forward 7 unknown #
loop $78 $79 $27 $30 #
edge_name-twe-attrib $-1 $-1 $-1 $28 4 8704 #
vertex $-1 $28 $80 #
ellipse-curve $81 0 -2.000000000000000155e-15 0 4.999999999999999994e-15 1 0 -0.375 1.874999999999999899e-15 0 1 I I #
face_name-twe-attrib $-1 $-1 $-1 $30 5 #
face $82 $83 $61 $3 $-1 $84 forward single #
cone-surface $85 0 -2.362499999999999822 0 0 1 0 0.375 0 0 1 I I 0 1 0.375 forward I I I I #
loop_type-twe-attrib $-1 $-1 $-1 $31 0 #
coedge $-1 $53 $53 $86 $87 forward $31 $-1 #
surf-twe-attrib $-1 $-1 $-1 $32 18 #
loop_type-twe-attrib $-1 $-1 $-1 $34 0 #
coedge $-1 $56 $56 $88 $89 forward $34 $-1 #
coedge $-1 $57 $57 $35 $58 reversed $90 $-1 #
edge $91 $92 0 $92 6.283185307179586232 $57 $93 forward 7 unknown #
coedge $-1 $59 $59 $38 $60 reversed $79 $-1 #
edge $94 $95 -3.141592653589793116 $95 3.141592653589793116 $38 $96 forward 7 unknown #
loop $97 $98 $39 $50 #
edge_name-twe-attrib $-1 $-1 $-1 $40 5 4608 #
vertex $-1 $40 $99 #
ellipse-curve $100 0 -0.5000000000000009992 0 4.000000000000000311e-15 1 0 -0.2501499999999999835 1.00059999999999993e-15 0 1 I I #
coedge $-1 $101 $41 $102 $103 forward $14 $-1 #
coedge $-1 $104 $105 $41 $67 reversed $106 $-1 #
edge $107 $76 -0.21650635094611001 $108 0 $66 $109 forward 7 unknown #
coedge $-1 $42 $101 $110 $111 forward $14 $-1 #
coedge $-1 $112 $113 $42 $70 reversed $114 $-1 #
edge $115 $116 -0.2165063509461093716 $75 0 $69 $117 forward 7 unknown #
coedge $-1 $118 $43 $113 $119 forward $73 $-1 #
coedge $-1 $43 $118 $104 $120 reversed $73 $-1 #
loop $121 $-1 $43 $122 #
edge_name-twe-attrib $-1 $-1 $-1 $44 8 8704 #
vertex $-1 $119 $123 #
vertex $-1 $120 $124 #
straight-curve $125 0.108253175473055005 0 0.1875 -0.4999999999999970024 0 0.8660254037844400399 I I #
loop_type-twe-attrib $-1 $-1 $-1 $45 0 #
loop $126 $-1 $59 $30 #
point $-1 -0.375 -1.250000000000000097e-16 0 #
cur-twe-attrib $-1 $-1 $-1 $48 28 #
face_name-twe-attrib $-1 $-1 $-1 $50 6 #
face $127 $128 $90 $3 $-1 $129 forward single #
cone-surface $130 0 -2.362499999999999822 0 0 1 0 0.2501499999999999835 0 0 1 I I 0 1 0.2501499999999999835 forward I I I I #
surf-twe-attrib $-1 $-1 $-1 $51 30 #
coedge $-1 $86 $86 $53 $87 reversed $131 $-1 #
edge $132 $133 -3.141592653589793116 $133 3.141592653589793116 $53 $134 forward 7 unknown #
coedge $-1 $88 $88 $56 $89 reversed $98 $-1 #
edge $135 $136 -3.141592653589793116 $136 3.141592653589793116 $56 $137 forward 7 unknown #
loop $138 $139 $57 $83 #
edge_name-twe-attrib $-1 $-1 $-1 $58 6 4608 #
vertex $-1 $58 $140 #
ellipse-curve $141 0 -1.375 0 0 1 0 -0.25 0 0 1 I I #
edge_name-twe-attrib $-1 $-1 $-1 $60 1 8704 #
vertex $-1 $60 $142 #
ellipse-curve $143 0 -0.5000000000000009992 0 -4.000000000000000311e-15 -1 0 -0.375 1.499999999999999919e-15 0 1 I I #
loop_type-twe-attrib $-1 $-1 $-1 $61 0 #
loop $144 $-1 $88 $50 #
point $-1 -0.2501499999999999835 -0.5 0 #
cur-twe-attrib $-1 $-1 $-1 $64 40 #
coedge $-1 $68 $65 $145 $146 forward $14 $-1 #
coedge $-1 $147 $148 $65 $103 reversed $149 $-1 #
edge $150 $108 -0.2165063509461093716 $151 0 $102 $152 forward 7 unknown #
coedge $-1 $153 $66 $72 $120 forward $106 $-1 #
coedge $-1 $66 $153 $147 $154 reversed $106 $-1 #
loop $155 $-1 $66 $156 #
edge_name-twe-attrib $-1 $-1 $-1 $67 22 8704 #
vertex $-1 $154 $157 #
straight-curve $158 -0.108253175473055005 0 0.1875 -1 0 0 I I #
coedge $-1 $159 $160 $68 $111 reversed $161 $-1 #
edge $162 $163 -0.21650635094611001 $116 0 $110 $164 forward 7 unknown #
coedge $-1 $165 $69 $160 $166 forward $114 $-1 #
coedge $-1 $69 $165 $71 $119 reversed $114 $-1 #
loop $167 $-1 $69 $168 #
edge_name-twe-attrib $-1 $-1 $-1 $70 10 8704 #
vertex $-1 $166 $169 #
straight-curve $170 0.2165063509461090108 0 0 0.4999999999999970024 0 0.8660254037844400399 I I #
coedge $-1 $72 $71 $171 $172 forward $73 $-1 #
edge $173 $75 -0.1880000000000000004 $174 0 $113 $175 forward 7 unknown #
edge $176 $76 -0.1880000000000000004 $177 0 $104 $178 forward 7 unknown #
loop_type-twe-attrib $-1 $-1 $-1 $73 0 #
face $179 $168 $73 $3 $-1 $180 reversed single #
point $-1 0.2165063509461090108 0 0 #
point $-1 0.108253175473055005 0 0.1875 #
cur-twe-attrib $-1 $-1 $-1 $77 44 #
loop_type-twe-attrib $-1 $-1 $-1 $79 1 #
face_name-twe-attrib $-1 $-1 $-1 $83 7 #
face $181 $182 $183 $3 $-1 $184 forward single #
cone-surface $185 0 -2.362499999999999822 0 0 1 0 0.25 0 0 1 I I 0 1 0.25 forward I I I I #
surf-twe-attrib $-1 $-1 $-1 $84 50 #
loop $186 $-1 $86 $128 #
edge_name-twe-attrib $-1 $-1 $-1 $87 3 8448 #
vertex $-1 $87 $187 #
ellipse-curve $188 0 -2.25 0 0 -1 0 -0.2000000000000000111 0 0 1 I I #
edge_name-twe-attrib $-1 $-1 $-1 $89 2 8704 #
vertex $-1 $89 $189 #
ellipse-curve $190 0 -1.375 0 0 -1 0 -0.2501499999999999835 0 0 1 I I #
loop_type-twe-attrib $-1 $-1 $-1 $90 0 #
loop $191 $-1 $192 $83 #
point $-1 -0.25 -1.375 0 #
cur-twe-attrib $-1 $-1 $-1 $93 58 #
point $-1 0.375 -0.5000000000000029976 -4.592424704577640076e-17 #
cur-twe-attrib $-1 $-1 $-1 $96 60 #
loop_type-twe-attrib $-1 $-1 $-1 $98 1 #
coedge $-1 $193 $194 $101 $146 reversed $195 $-1 #
edge $196 $151 -0.2165063509461093716 $163 0 $145 $197 forward 7 unknown #
coedge $-1 $198 $102 $105 $154 forward $149 $-1 #
coedge $-1 $102 $198 $193 $199 reversed $149 $-1 #
loop $200 $-1 $102 $201 #
edge_name-twe-attrib $-1 $-1 $-1 $103 19 8704 #
vertex $-1 $199 $202 #
straight-curve $203 -0.2165063509461090108 0 0 -0.4999999999999970024 0 -0.8660254037844400399 I I #
coedge $-1 $105 $104 $204 $205 forward $106 $-1 #
edge $206 $108 -0.1880000000000000004 $207 0 $105 $208 forward 7 unknown #
loop_type-twe-attrib $-1 $-1 $-1 $106 0 #
face $209 $-1 $106 $3 $-1 $210 reversed single #
point $-1 -0.108253175473055005 0 0.1875 #
cur-twe-attrib $-1 $-1 $-1 $109 67 #
coedge $-1 $211 $110 $194 $212 forward $161 $-1 #
coedge $-1 $110 $211 $112 $166 reversed $161 $-1 #
loop $213 $-1 $110 $214 #
edge_name-twe-attrib $-1 $-1 $-1 $111 13 8704 #
vertex $-1 $212 $215 #
straight-curve $216 0.108253175473055005 0 -0.1875 1 0 0 I I #
coedge $-1 $113 $112 $217 $218 forward $114 $-1 #
edge $219 $116 -0.1880000000000000004 $220 0 $160 $221 forward 7 unknown #
loop_type-twe-attrib $-1 $-1 $-1 $114 0 #
face $222 $214 $114 $3 $-1 $223 reversed single #
point $-1 0.108253175473055005 0 -0.1875 #
cur-twe-attrib $-1 $-1 $-1 $117 70 #
coedge $-1 $217 $204 $118 $172 reversed $224 $-1 #
edge $225 $174 -0.2165063509461093716 $177 0 $118 $226 forward 7 unknown #
edge_name-twe-attrib $-1 $-1 $-1 $119 12 4352 #
vertex $-1 $119 $227 #
straight-curve $228 0.2165063509461090108 -0.1880000000000000004 0 0 -1 0 I I #
edge_name-twe-attrib $-1 $-1 $-1 $120 23 4352 #
vertex $-1 $120 $229 #
straight-curve $230 0.108253175473055005 -0.1880000000000000004 0.1875 0 -1 0 I I #
face_name-twe-attrib $-1 $-1 $-1 $122 10 #
plane-surface $231 0.108253175473055005 -0.1880000000000000004 0.1875 0.8660254037844388186 0 0.499999999999999889 0.5 0 -0.8660254037844390407 forward_v I I I I #
face_name-twe-attrib $-1 $-1 $-1 $128 8 #
face $232 $122 $224 $3 $-1 $233 forward single #
loop $234 $131 $235 $128 #
cone-surface $236 0 -2.200000000000000178 0 0 1 0 -0.25 0 0 1 I I 0.707106781186549016 0.7071067811865460184 0.25 forward I I I I #
surf-twe-attrib $-1 $-1 $-1 $129 83 #
loop_type-twe-attrib $-1 $-1 $-1 $131 1 #
point $-1 0.2000000000000000111 -2.25 -2.4492931757747401e-17 #
cur-twe-attrib $-1 $-1 $-1 $134 87 #
point $-1 0.2501499999999999835 -1.375 -3.063453439600259709e-17 #
cur-twe-attrib $-1 $-1 $-1 $137 89 #
loop_type-twe-attrib $-1 $-1 $-1 $139 1 #
coedge $-1 $192 $192 $235 $237 forward $139 $-1 #
coedge $-1 $238 $145 $148 $199 forward $195 $-1 #
coedge $-1 $145 $238 $159 $212 reversed $195 $-1 #
loop $239 $-1 $145 $240 #
edge_name-twe-attrib $-1 $-1 $-1 $146 16 8704 #
straight-curve $241 -0.108253175473055005 0 -0.1875 0.4999999999999970024 0 -0.8660254037844400399 I I #
coedge $-1 $148 $147 $242 $243 forward $149 $-1 #
edge $244 $151 -0.1880000000000000004 $245 0 $148 $246 forward 7 unknown #
loop_type-twe-attrib $-1 $-1 $-1 $149 0 #
face $247 $156 $149 $3 $-1 $248 reversed single #
point $-1 -0.2165063509461090108 0 0 #
cur-twe-attrib $-1 $-1 $-1 $152 103 #
coedge $-1 $171 $242 $153 $205 reversed $224 $-1 #
edge $249 $177 -0.21650635094611001 $207 0 $153 $250 forward 7 unknown #
edge_name-twe-attrib $-1 $-1 $-1 $154 25 4352 #
vertex $-1 $154 $251 #
straight-curve $252 -0.108253175473055005 -0.1880000000000000004 0.1875 0 -1 0 I I #
face_name-twe-attrib $-1 $-1 $-1 $156 15 #
plane-surface $253 -0.108253175473055005 -0.1880000000000000004 0.1875 0 0 1 1 0 0 forward_v I I I I #
coedge $-1 $160 $159 $254 $255 forward $161 $-1 #
edge $256 $163 -0.1880000000000000004 $257 0 $194 $258 forward 7 unknown #
loop_type-twe-attrib $-1 $-1 $-1 $161 0 #
face $259 $240 $161 $3 $-1 $260 reversed single #
point $-1 -0.108253175473055005 0 -0.1875 #
cur-twe-attrib $-1 $-1 $-1 $164 111 #
coedge $-1 $254 $171 $165 $218 reversed $224 $-1 #
edge $261 $220 -0.2165063509461093716 $174 0 $165 $262 forward 7 unknown #
edge_name-twe-attrib $-1 $-1 $-1 $166 15 4352 #
vertex $-1 $166 $263 #
straight-curve $264 0.108253175473055005 -0.1880000000000000004 -0.1875 0 -1 0 I I #
face_name-twe-attrib $-1 $-1 $-1 $168 11 #
plane-surface $265 0.2165063509461090108 -0.1880000000000000004 0 0.8660254037844388186 0 -0.499999999999999889 -0.5 0 -0.8660254037844390407 forward_v I I I I #
loop $266 $-1 $171 $182 #
edge_name-twe-attrib $-1 $-1 $-1 $172 9 4608 #
straight-curve $267 0.108253175473055005 -0.1880000000000000004 0.1875 -0.4999999999999970024 0 0.8660254037844400399 I I #
point $-1 0.2165063509461090108 -0.1880000000000000004 0 #
cur-twe-attrib $-1 $-1 $-1 $175 119 #
point $-1 0.108253175473055005 -0.1880000000000000004 0.1875 #
cur-twe-attrib $-1 $-1 $-1 $178 120 #
surf-twe-attrib $-1 $-1 $-1 $180 122 #
face_name-twe-attrib $-1 $-1 $-1 $182 9 #
plane-surface $268 0 -0.1880000000000000004 0 0 1 0 0 0 1 forward_v I I I I #
loop_type-twe-attrib $-1 $-1 $-1 $183 0 #
coedge $-1 $235 $235 $192 $237 reversed $183 $-1 #
surf-twe-attrib $-1 $-1 $-1 $184 128 #
edge $269 $270 -3.141592653589793116 $270 3.141592653589793116 $235 $271 forward 7 unknown #
coedge $-1 $194 $193 $272 $273 forward $195 $-1 #
loop_type-twe-attrib $-1 $-1 $-1 $195 0 #
face $274 $201 $195 $3 $-1 $275 reversed single #
cur-twe-attrib $-1 $-1 $-1 $197 146 #
coedge $-1 $204 $272 $198 $243 reversed $224 $-1 #
edge $276 $207 -0.2165063509461093716 $245 0 $198 $277 forward 7 unknown #
edge_name-twe-attrib $-1 $-1 $-1 $199 21 4352 #
vertex $-1 $199 $278 #
straight-curve $279 -0.2165063509461090108 -0.1880000000000000004 0 0 -1 0 I I #
face_name-twe-attrib $-1 $-1 $-1 $201 14 #
plane-surface $280 -0.2165063509461090108 -0.1880000000000000004 0 -0.8660254037844388186 0 0.499999999999999889 0.5 0 0.8660254037844390407 forward_v I I I I #
edge_name-twe-attrib $-1 $-1 $-1 $205 24 4608 #
straight-curve $281 -0.108253175473055005 -0.1880000000000000004 0.1875 -1 0 0 I I #
point $-1 -0.108253175473055005 -0.1880000000000000004 0.1875 #
cur-twe-attrib $-1 $-1 $-1 $208 154 #
surf-twe-attrib $-1 $-1 $-1 $210 156 #
coedge $-1 $272 $217 $211 $255 reversed $224 $-1 #
edge $282 $257 -0.21650635094611001 $220 0 $211 $283 forward 7 unknown #
edge_name-twe-attrib $-1 $-1 $-1 $212 18 4352 #
vertex $-1 $212 $284 #
straight-curve $285 -0.108253175473055005 -0.1880000000000000004 -0.1875 0 -1 0 I I #
face_name-twe-attrib $-1 $-1 $-1 $214 12 #
plane-surface $286 0.108253175473055005 -0.1880000000000000004 -0.1875 0 0 -1 -1 0 0 forward_v I I I I #
edge_name-twe-attrib $-1 $-1 $-1 $218 11 4608 #
straight-curve $287 0.2165063509461090108 -0.1880000000000000004 0 0.4999999999999970024 0 0.8660254037844400399 I I #
point $-1 0.108253175473055005 -0.1880000000000000004 -0.1875 #
cur-twe-attrib $-1 $-1 $-1 $221 166 #
surf-twe-attrib $-1 $-1 $-1 $223 168 #
loop_type-twe-attrib $-1 $-1 $-1 $224 0 #
cur-twe-attrib $-1 $-1 $-1 $226 172 #
surf-twe-attrib $-1 $-1 $-1 $233 182 #
edge_name-twe-attrib $-1 $-1 $-1 $237 7 8448 #
vertex $-1 $237 $288 #
ellipse-curve $289 0 -2.200000000000000178 0 0 1 0 -0.25 0 0 1 I I #
coedge $-1 $242 $254 $238 $273 reversed $224 $-1 #
edge $290 $245 -0.2165063509461093716 $257 0 $238 $291 forward 7 unknown #
face_name-twe-attrib $-1 $-1 $-1 $240 13 #
plane-surface $292 -0.108253175473055005 -0.1880000000000000004 -0.1875 -0.8660254037844388186 0 -0.499999999999999889 -0.5 0 0.8660254037844390407 forward_v I I I I #
edge_name-twe-attrib $-1 $-1 $-1 $243 20 4608 #
straight-curve $293 -0.2165063509461090108 -0.1880000000000000004 0 -0.4999999999999970024 0 -0.8660254037844400399 I I #
point $-1 -0.2165063509461090108 -0.1880000000000000004 0 #
cur-twe-attrib $-1 $-1 $-1 $246 199 #
surf-twe-attrib $-1 $-1 $-1 $248 201 #
cur-twe-attrib $-1 $-1 $-1 $250 205 #
edge_name-twe-attrib $-1 $-1 $-1 $255 14 4608 #
straight-curve $294 0.108253175473055005 -0.1880000000000000004 -0.1875 1 0 0 I I #
point $-1 -0.108253175473055005 -0.1880000000000000004 -0.1875 #
cur-twe-attrib $-1 $-1 $-1 $258 212 #
surf-twe-attrib $-1 $-1 $-1 $260 214 #
cur-twe-attrib $-1 $-1 $-1 $262 218 #
point $-1 0.25 -2.200000000000000178 3.06161646971843021e-17 #
cur-twe-attrib $-1 $-1 $-1 $271 237 #
edge_name-twe-attrib $-1 $-1 $-1 $273 17 4608 #
straight-curve $295 -0.108253175473055005 -0.1880000000000000004 -0.1875 0.4999999999999970024 0 -0.8660254037844400399 I I #
surf-twe-attrib $-1 $-1 $-1 $275 240 #
cur-twe-attrib $-1 $-1 $-1 $277 243 #
cur-twe-attrib $-1 $-1 $-1 $283 255 #
cur-twe-attrib $-1 $-1 $-1 $291 273 #
End-of-ACIS-data 