700 0 2 0           
24 FBMach with ACIS - 7.0.3 13 ACIS 7.0.3 NT 24 Tue May 14 10:17:30 2002 
1 9.9999999999999995e-007 1e-010 
body $2 -1 $-1 $3 $-1 $4 #
bdycol-kcp $-1 -1 1 6 $5 $6 $7 $8 $9 $10 #
model_id-kcp-attrib $-1 -1 $-1 $-1 $0 1 1021385849 1021385849 391970817 1 #
lump $-1 -1 $-1 $-1 $11 $0 #
transform $-1 -1 1 0 0 0 1 0 0 0 1 0 0 0 1 rotate no_reflect no_shear #
body $12 -1 $-1 $13 $-1 $14 #
body $15 -1 $-1 $16 $-1 $17 #
body $18 -1 $-1 $19 $-1 $20 #
body $21 -1 $-1 $22 $-1 $23 #
body $24 -1 $-1 $25 $-1 $26 #
body $27 -1 $-1 $28 $-1 $29 #
shell $-1 -1 $-1 $-1 $-1 $30 $-1 $3 #
model_id-kcp-attrib $-1 -1 $-1 $-1 $5 1 1021385849 1021385849 391970818 1 #
lump $-1 -1 $-1 $-1 $31 $5 #
transform $-1 -1 1 0 0 0 1 0 0 0 1 0 -1.125 0 1 no_rotate no_reflect no_shear #
rgb_color-st-attrib $-1 -1 $32 $-1 $6 1 1 0.5 #
lump $-1 -1 $-1 $-1 $33 $6 #
transform $-1 -1 1 0 0 0 0 1 0 -1 0 0 -2.2250000000000001 0 1 rotate no_reflect no_shear #
rgb_color-st-attrib $-1 -1 $34 $-1 $7 0 0 1 #
lump $-1 -1 $-1 $-1 $35 $7 #
transform $-1 -1 1 0 0 0 1 0 0 0 1 0 -1.125 0 1 no_rotate no_reflect no_shear #
rgb_color-st-attrib $-1 -1 $36 $-1 $8 0.5 1 1 #
lump $-1 -1 $-1 $-1 $37 $8 #
transform $-1 -1 1 0 0 0 1 0 0 0 1 0 -1.125 0 1 no_rotate no_reflect no_shear #
rgb_color-st-attrib $-1 -1 $38 $-1 $9 1 0.5 1 #
lump $-1 -1 $-1 $-1 $39 $9 #
transform $-1 -1 1 0 0 0 1 0 0 0 1 0 -1.125 0 1 no_rotate no_reflect no_shear #
rgb_color-st-attrib $-1 -1 $40 $-1 $10 1 0.5 1 #
lump $-1 -1 $-1 $-1 $41 $10 #
transform $-1 -1 1 0 0 0 1 0 0 0 1 0 -1.125 0 1 no_rotate no_reflect no_shear #
face $42 -1 $-1 $43 $44 $11 $-1 $45 forward single #
shell $-1 -1 $-1 $-1 $-1 $46 $-1 $13 #
model_id-kcp-attrib $-1 -1 $-1 $15 $6 1 1021385849 1021385849 392626179 1 #
shell $-1 -1 $-1 $-1 $-1 $47 $-1 $16 #
model_id-kcp-attrib $-1 -1 $-1 $18 $7 1 1021385849 1021385849 393609221 1 #
shell $-1 -1 $-1 $-1 $-1 $48 $-1 $19 #
model_id-kcp-attrib $-1 -1 $-1 $21 $8 1 1021385849 1021385849 397934596 1 #
shell $-1 -1 $-1 $-1 $-1 $49 $-1 $22 #
model_id-kcp-attrib $-1 -1 $-1 $24 $9 1 1021385849 1021385849 400818182 1 #
shell $-1 -1 $-1 $-1 $-1 $50 $-1 $25 #
model_id-kcp-attrib $-1 -1 $-1 $27 $10 1 1021385849 1021385850 389545991 1 #
shell $-1 -1 $-1 $-1 $-1 $51 $-1 $28 #
model_id-kcp-attrib $-1 -1 $52 $-1 $30 1 1021385849 1021385849 391970817 2 #
face $53 -1 $-1 $54 $55 $11 $-1 $56 reversed single #
loop $57 -1 $-1 $58 $59 $30 #
plane-surface $60 -1 $-1 0 0 0 0 1 0 0 0 1 forward_v I I I I #
face $-1 -1 $-1 $61 $62 $31 $-1 $63 forward single #
face $-1 -1 $-1 $64 $65 $33 $-1 $66 reversed single #
face $-1 -1 $-1 $67 $68 $35 $-1 $69 forward single #
face $-1 -1 $-1 $70 $71 $37 $-1 $72 reversed single #
face $-1 -1 $-1 $73 $74 $39 $-1 $75 forward single #
face $-1 -1 $-1 $76 $77 $41 $-1 $78 forward single #
face_name-twe-attrib $-1 -1 $-1 $42 $30 1 #
model_id-kcp-attrib $-1 -1 $79 $-1 $43 1 1021385849 1021385849 391970817 3 #
face $80 -1 $-1 $81 $82 $11 $-1 $83 reversed single #
loop $84 -1 $-1 $85 $86 $43 #
plane-surface $87 -1 $-1 0 -0.5 0 0 1 0 0 0 1 forward_v I I I I #
loop_type-twe-attrib $-1 -1 $-1 $-1 $44 0 #
loop $88 -1 $-1 $-1 $89 $30 #
coedge $-1 -1 $-1 $59 $59 $90 $91 forward $44 $-1 #
surf-twe-attrib $-1 -1 $-1 $-1 $45 4 #
face $-1 -1 $-1 $92 $93 $31 $-1 $94 reversed single #
loop $-1 -1 $-1 $-1 $95 $46 #
plane-surface $-1 -1 $-1 0 0 0.375 0 0 1 1 0 0 forward_v I I I I #
face $-1 -1 $-1 $96 $97 $33 $-1 $98 forward single #
loop $-1 -1 $-1 $99 $100 $47 #
cone-surface $-1 -1 $-1 0 0 0.099999999999999645 0 0 1 0.125 0 0 1 I I -0.70710678118654879 0.70710678118654635 0.125 forward I I I I #
face $-1 -1 $-1 $101 $102 $35 $-1 $103 forward single #
loop $-1 -1 $-1 $-1 $104 $48 #
plane-surface $-1 -1 $-1 0.108253175473055 0.93700000000000006 0.1875 0 0 1 1 0 0 forward_v I I I I #
face $-1 -1 $-1 $105 $106 $37 $-1 $72 reversed single #
loop $-1 -1 $-1 $-1 $107 $49 #
cone-surface $-1 -1 $-1 1.4059319267082538e-033 1.125 0 0 1 0 -0.375 0 0 1 I I 0 1 0.375 forward I I I I #
face $-1 -1 $-1 $108 $109 $39 $-1 $110 forward single #
loop $-1 -1 $-1 $111 $112 $50 #
cone-surface $-1 -1 $-1 0 0.625 0 0 -1 0 0.25014999999999998 0 0 1 I I 0 -1 0.25014999999999998 forward I I I I #
face $-1 -1 $-1 $113 $114 $41 $-1 $115 forward single #
loop $-1 -1 $-1 $116 $117 $51 #
cone-surface $-1 -1 $-1 0 -0.25 0 0 -1 0 0.25 0 0 1 I I 0 -1 0.25 forward I I I I #
face_name-twe-attrib $-1 -1 $-1 $53 $43 2 #
model_id-kcp-attrib $-1 -1 $118 $-1 $54 1 1021385849 1021385849 391970817 4 #
face $119 -1 $-1 $120 $121 $11 $-1 $122 reversed single #
loop $123 -1 $-1 $124 $125 $54 #
plane-surface $126 -1 $-1 0 -1.375 0 0 1 0 0 0 1 forward_v I I I I #
loop_type-twe-attrib $-1 -1 $-1 $-1 $55 1 #
loop $127 -1 $-1 $-1 $128 $43 #
coedge $-1 -1 $-1 $86 $86 $129 $130 forward $55 $-1 #
surf-twe-attrib $-1 -1 $-1 $-1 $56 6 #
loop_type-twe-attrib $-1 -1 $-1 $-1 $58 1 #
coedge $-1 -1 $-1 $131 $132 $133 $134 forward $58 $-1 #
coedge $-1 -1 $-1 $90 $90 $59 $91 reversed $135 $-1 #
edge $136 -1 $-1 $137 0 $137 6.2831853071795862 $90 $138 forward @7 unknown #
face $139 -1 $-1 $140 $141 $31 $-1 $142 reversed single #
loop $-1 -1 $-1 $-1 $143 $61 #
plane-surface $-1 -1 $-1 0 0 -0.375 0 0 1 1 0 0 forward_v I I I I #
coedge $-1 -1 $-1 $144 $145 $146 $147 forward $62 $-1 #
face $-1 -1 $-1 $-1 $148 $33 $-1 $149 forward single #
loop $-1 -1 $-1 $150 $151 $64 #
cone-surface $-1 -1 $-1 0 0 0 0 0 1 0.25 0 0 1 I I 0 1 0.25 forward I I I I #
loop $-1 -1 $-1 $-1 $152 $47 #
coedge $-1 -1 $-1 $100 $100 $153 $154 reversed $65 $-1 #
face $-1 -1 $-1 $155 $156 $35 $-1 $157 forward single #
loop $-1 -1 $-1 $-1 $158 $67 #
plane-surface $-1 -1 $-1 -0.10825317547305499 0.93700000000000006 0.1875 -0.86602540378443882 0 0.49999999999999989 0.49999999999999989 0 0.86602540378443882 forward_v I I I I #
coedge $-1 -1 $-1 $159 $160 $161 $162 forward $68 $-1 #
face $-1 -1 $-1 $163 $164 $37 $-1 $72 reversed single #
loop $-1 -1 $-1 $-1 $165 $70 #
coedge $-1 -1 $-1 $166 $167 $168 $169 reversed $71 $-1 #
face $-1 -1 $-1 $170 $171 $39 $-1 $172 reversed single #
loop $-1 -1 $-1 $173 $174 $73 #
cone-surface $-1 -1 $-1 1.4059319267082538e-033 0.625 0 0 -1 0 -0.375 0 0 1 I I 0 1 0.375 forward I I I I #
loop $-1 -1 $-1 $-1 $175 $50 #
coedge $-1 -1 $-1 $112 $112 $176 $177 forward $74 $-1 #
face $-1 -1 $-1 $178 $179 $41 $-1 $180 reversed single #
loop $-1 -1 $-1 $181 $182 $76 #
cone-surface $-1 -1 $-1 1.4059319267082538e-033 -0.25 0 0 -1 0 -0.375 0 0 1 I I 0 1 0.375 forward I I I I #
loop $-1 -1 $-1 $-1 $183 $51 #
coedge $-1 -1 $-1 $117 $117 $184 $185 forward $77 $-1 #
face_name-twe-attrib $-1 -1 $-1 $80 $54 3 #
model_id-kcp-attrib $-1 -1 $186 $-1 $81 1 1021385849 1021385849 391970817 5 #
face $187 -1 $-1 $188 $135 $11 $-1 $189 forward single #
loop $190 -1 $-1 $-1 $191 $81 #
plane-surface $192 -1 $-1 0 -2.25 0 0 1 0 0 0 1 forward_v I I I I #
loop_type-twe-attrib $-1 -1 $-1 $-1 $82 1 #
loop $193 -1 $-1 $-1 $194 $54 #
coedge $-1 -1 $-1 $125 $125 $195 $196 forward $82 $-1 #
surf-twe-attrib $-1 -1 $-1 $-1 $83 10 #
loop_type-twe-attrib $-1 -1 $-1 $-1 $85 0 #
coedge $-1 -1 $-1 $128 $128 $197 $198 forward $85 $-1 #
coedge $-1 -1 $-1 $129 $129 $86 $130 reversed $199 $-1 #
edge $200 -1 $-1 $201 0 $201 6.2831853071795862 $129 $202 forward @7 unknown #
coedge $-1 -1 $-1 $203 $89 $204 $205 forward $58 $-1 #
coedge $-1 -1 $-1 $89 $206 $207 $208 forward $58 $-1 #
coedge $-1 -1 $-1 $209 $210 $89 $134 reversed $211 $-1 #
edge $212 -1 $-1 $213 -0.21650635094610937 $214 0 $133 $215 forward @7 unknown #
loop $216 -1 $-1 $217 $90 $120 #
attrib_edge_convexity-kcp-attrib $-1 -1 $218 $-1 $91 1 #
vertex $-1 -1 $-1 $91 $219 #
ellipse-curve $220 -1 $-1 0 -2.0000000000000002e-015 0 5e-015 1 0 -0.375 1.8749999999999999e-015 0 1 I I #
model_id-kcp-attrib $-1 -1 $-1 $-1 $92 1 1021385849 1021385849 391970818 3 #
face $-1 -1 $-1 $221 $222 $31 $-1 $223 reversed single #
loop $-1 -1 $-1 $-1 $224 $92 #
plane-surface $-1 -1 $-1 0 -1.125 0 0 1 0 0 0 1 forward_v I I I I #
coedge $-1 -1 $-1 $225 $226 $227 $228 forward $93 $-1 #
coedge $-1 -1 $-1 $229 $95 $230 $231 forward $62 $-1 #
coedge $-1 -1 $-1 $95 $229 $232 $233 forward $62 $-1 #
coedge $-1 -1 $-1 $234 $235 $95 $147 reversed $236 $-1 #
edge $-1 -1 $-1 $237 -1.125 $238 1.125 $146 $239 forward @7 unknown #
loop $-1 -1 $-1 $240 $153 $96 #
plane-surface $-1 -1 $-1 0 0 0.024999999999999911 0 0 1 1 0 0 forward_v I I I I #
loop $-1 -1 $-1 $-1 $241 $64 #
coedge $-1 -1 $-1 $151 $151 $152 $242 reversed $97 $-1 #
coedge $-1 -1 $-1 $152 $152 $151 $242 forward $99 $-1 #
coedge $-1 -1 $-1 $153 $153 $100 $154 forward $148 $-1 #
edge $-1 -1 $-1 $243 -3.1415926535897931 $243 3.1415926535897931 $153 $244 forward @7 unknown #
face $-1 -1 $-1 $245 $246 $35 $-1 $247 forward single #
loop $-1 -1 $-1 $-1 $248 $101 #
plane-surface $-1 -1 $-1 -0.21650635094610901 0.93700000000000006 0 -0.86602540378443882 0 -0.49999999999999989 -0.49999999999999989 0 0.86602540378443882 forward_v I I I I #
coedge $-1 -1 $-1 $249 $250 $251 $252 forward $102 $-1 #
coedge $-1 -1 $-1 $253 $104 $250 $254 reversed $68 $-1 #
coedge $-1 -1 $-1 $104 $253 $255 $256 forward $68 $-1 #
coedge $-1 -1 $-1 $257 $251 $104 $162 reversed $258 $-1 #
edge $-1 -1 $-1 $259 -0.1623797632095825 $260 0.054126587736527489 $104 $261 forward @7 unknown #
face $-1 -1 $-1 $262 $263 $37 $-1 $72 reversed single #
loop $-1 -1 $-1 $-1 $264 $105 #
coedge $-1 -1 $-1 $265 $266 $267 $268 reversed $106 $-1 #
coedge $-1 -1 $-1 $269 $107 $270 $271 forward $71 $-1 #
coedge $-1 -1 $-1 $107 $269 $272 $273 reversed $71 $-1 #
coedge $-1 -1 $-1 $274 $275 $107 $169 forward $276 $-1 #
edge $-1 -1 $-1 $277 0 $278 1.5707963267948966 $168 $279 forward @7 unknown #
face $-1 -1 $-1 $-1 $280 $39 $-1 $281 forward single #
loop $-1 -1 $-1 $282 $283 $108 #
plane-surface $-1 -1 $-1 0.011349999999999994 -0.25 -1.2526806211428967e-017 0 1 0 0 0 1 forward_v I I I I #
loop $-1 -1 $-1 $-1 $284 $73 #
coedge $-1 -1 $-1 $174 $174 $283 $285 forward $109 $-1 #
coedge $-1 -1 $-1 $175 $175 $286 $287 reversed $111 $-1 #
coedge $-1 -1 $-1 $176 $176 $112 $177 reversed $282 $-1 #
edge $-1 -1 $-1 $288 -3.1415926535897931 $288 3.1415926535897931 $112 $289 forward @7 unknown #
face $-1 -1 $-1 $-1 $290 $41 $-1 $291 forward single #
loop $-1 -1 $-1 $292 $293 $113 #
plane-surface $-1 -1 $-1 0.011363636363636352 -1.125 -1.253054340370889e-017 0 1 0 0 0 1 forward_v I I I I #
loop $-1 -1 $-1 $-1 $294 $76 #
coedge $-1 -1 $-1 $182 $182 $293 $295 forward $114 $-1 #
coedge $-1 -1 $-1 $183 $183 $296 $297 reversed $116 $-1 #
coedge $-1 -1 $-1 $184 $184 $117 $185 reversed $292 $-1 #
edge $-1 -1 $-1 $298 -3.1415926535897931 $298 3.1415926535897931 $117 $299 forward @7 unknown #
face_name-twe-attrib $-1 -1 $-1 $119 $81 4 #
model_id-kcp-attrib $-1 -1 $300 $-1 $120 1 1021385849 1021385849 391970817 6 #
face $301 -1 $-1 $302 $199 $11 $-1 $303 forward single #
cone-surface $304 -1 $-1 0 -2.3624999999999998 0 0 1 0 0.375 0 0 1 I I 0 1 0.375 forward I I I I #
loop_type-twe-attrib $-1 -1 $-1 $-1 $121 0 #
coedge $-1 -1 $-1 $191 $191 $305 $306 forward $121 $-1 #
surf-twe-attrib $-1 -1 $-1 $-1 $122 18 #
loop_type-twe-attrib $-1 -1 $-1 $-1 $124 0 #
coedge $-1 -1 $-1 $194 $194 $307 $308 forward $124 $-1 #
coedge $-1 -1 $-1 $195 $195 $125 $196 reversed $309 $-1 #
edge $310 -1 $-1 $311 0 $311 6.2831853071795862 $195 $312 forward @7 unknown #
coedge $-1 -1 $-1 $197 $197 $128 $198 reversed $217 $-1 #
edge $313 -1 $-1 $314 -3.1415926535897931 $314 3.1415926535897931 $128 $315 forward @7 unknown #
loop $316 -1 $-1 $317 $129 $188 #
attrib_edge_convexity-kcp-attrib $-1 -1 $318 $-1 $130 2 #
vertex $-1 -1 $-1 $130 $319 #
ellipse-curve $320 -1 $-1 0 -0.500000000000001 0 4.0000000000000003e-015 1 0 -0.25014999999999998 1.0005999999999999e-015 0 1 I I #
coedge $-1 -1 $-1 $321 $131 $322 $323 forward $58 $-1 #
coedge $-1 -1 $-1 $324 $325 $131 $205 reversed $326 $-1 #
edge $327 -1 $-1 $214 -0.21650635094611001 $328 0 $204 $329 forward @7 unknown #
coedge $-1 -1 $-1 $132 $321 $330 $331 forward $58 $-1 #
coedge $-1 -1 $-1 $332 $333 $132 $208 reversed $334 $-1 #
edge $335 -1 $-1 $336 -0.21650635094610937 $213 0 $207 $337 forward @7 unknown #
coedge $-1 -1 $-1 $338 $133 $333 $339 forward $211 $-1 #
coedge $-1 -1 $-1 $133 $338 $324 $340 reversed $211 $-1 #
loop $341 -1 $-1 $-1 $133 $342 #
attrib_edge_convexity-kcp-attrib $-1 -1 $343 $-1 $134 1 #
vertex $-1 -1 $-1 $339 $344 #
vertex $-1 -1 $-1 $340 $345 #
straight-curve $346 -1 $-1 0.108253175473055 0 0.1875 -0.499999999999997 0 0.86602540378444004 I I #
loop_type-twe-attrib $-1 -1 $-1 $-1 $135 0 #
loop $347 -1 $-1 $-1 $197 $120 #
convexity-sys-attrib $-1 -1 $348 $136 $91 #
point $-1 -1 $-1 -0.375 -1.2500000000000001e-016 0 #
cur-twe-attrib $-1 -1 $-1 $-1 $138 28 #
face $349 -1 $-1 $350 $351 $31 $-1 $352 reversed single #
loop $-1 -1 $-1 $-1 $353 $140 #
plane-surface $-1 -1 $-1 -0.375 0 0 1 0 0 0 0 -1 forward_v I I I I #
coedge $-1 -1 $-1 $354 $232 $355 $356 forward $141 $-1 #
coedge $-1 -1 $-1 $357 $143 $354 $358 forward $93 $-1 #
coedge $-1 -1 $-1 $143 $357 $359 $360 forward $93 $-1 #
coedge $-1 -1 $-1 $235 $234 $143 $228 reversed $236 $-1 #
edge $-1 -1 $-1 $361 -1.125 $362 1.125 $227 $363 forward @7 unknown #
coedge $-1 -1 $-1 $145 $144 $364 $365 forward $62 $-1 #
coedge $-1 -1 $-1 $366 $367 $144 $231 reversed $351 $-1 #
edge $-1 -1 $-1 $238 -0.375 $368 0.375 $230 $369 forward @7 unknown #
coedge $-1 -1 $-1 $224 $370 $145 $233 reversed $141 $-1 #
edge $-1 -1 $-1 $371 -0.375 $237 0.375 $232 $372 forward @7 unknown #
coedge $-1 -1 $-1 $227 $146 $370 $373 forward $236 $-1 #
coedge $-1 -1 $-1 $146 $227 $366 $374 reversed $236 $-1 #
loop $-1 -1 $-1 $-1 $234 $350 #
vertex $-1 -1 $-1 $147 $375 #
vertex $-1 -1 $-1 $147 $376 #
straight-curve $-1 -1 $-1 0.375 0 0.375 0 1 0 I I #
loop $-1 -1 $-1 $-1 $377 $96 #
coedge $-1 -1 $-1 $241 $241 $377 $378 reversed $150 $-1 #
edge $-1 -1 $-1 $379 0 $379 6.2831853071795862 $151 $380 forward @7 unknown #
vertex $-1 -1 $-1 $154 $381 #
ellipse-curve $-1 -1 $-1 0 0 0.024999999999999911 0 0 -1 0.20000000000000001 0 0 1 I I #
face $-1 -1 $-1 $382 $383 $35 $-1 $384 forward single #
loop $-1 -1 $-1 $-1 $385 $155 #
plane-surface $-1 -1 $-1 -0.10825317547305499 0.93700000000000006 -0.1875 0 0 -1 -1 0 0 forward_v I I I I #
coedge $-1 -1 $-1 $386 $387 $388 $389 forward $156 $-1 #
coedge $-1 -1 $-1 $390 $158 $387 $391 reversed $102 $-1 #
coedge $-1 -1 $-1 $158 $390 $159 $254 forward $102 $-1 #
coedge $-1 -1 $-1 $161 $388 $158 $252 reversed $258 $-1 #
edge $-1 -1 $-1 $260 -0.16237976320958203 $392 0.054126587736527246 $158 $393 forward @7 unknown #
coedge $-1 -1 $-1 $160 $159 $394 $395 reversed $68 $-1 #
edge $396 -1 $-1 $397 0 $260 0.18799999999999994 $250 $398 forward @7 unknown #
coedge $-1 -1 $-1 $399 $400 $160 $256 reversed $401 $-1 #
edge $-1 -1 $-1 $402 0 $259 0.18799999999999994 $160 $403 forward @7 unknown #
coedge $-1 -1 $-1 $404 $161 $400 $405 reversed $258 $-1 #
loop $-1 -1 $-1 $-1 $161 $406 #
vertex $-1 -1 $-1 $256 $407 #
vertex $-1 -1 $-1 $254 $408 #
straight-curve $-1 -1 $-1 -0.054126587736527502 1.1249999999999998 0.1875 -1 0 0 I I #
face $-1 -1 $-1 $409 $410 $37 $-1 $411 forward single #
loop $-1 -1 $-1 $-1 $412 $163 #
coedge $-1 -1 $-1 $413 $414 $412 $415 forward $164 $-1 #
coedge $-1 -1 $-1 $416 $165 $417 $418 reversed $106 $-1 #
coedge $-1 -1 $-1 $165 $416 $167 $273 forward $106 $-1 #
coedge $-1 -1 $-1 $419 $420 $165 $268 forward $421 $-1 #
edge $-1 -1 $-1 $422 -3.1415926535897931 $423 -1.5707963267948966 $267 $424 forward @7 unknown #
coedge $-1 -1 $-1 $167 $166 $425 $426 reversed $71 $-1 #
coedge $-1 -1 $-1 $414 $413 $427 $271 reversed $164 $-1 #
edge $-1 -1 $-1 $277 -2.25 $428 0 $427 $429 forward @7 unknown #
coedge $-1 -1 $-1 $430 $431 $432 $273 forward $433 $-1 #
edge $-1 -1 $-1 $278 -2.25 $423 0 $272 $434 forward @7 unknown #
coedge $-1 -1 $-1 $275 $168 $431 $435 reversed $276 $-1 #
coedge $-1 -1 $-1 $168 $274 $436 $437 forward $276 $-1 #
loop $-1 -1 $-1 $-1 $168 $438 #
vertex $-1 -1 $-1 $439 $440 #
vertex $-1 -1 $-1 $441 $442 #
ellipse-curve $-1 -1 $-1 1.4059319267082538e-033 -1.125 0 0 1 0 -0.375 0 0 1 I I #
loop $-1 -1 $-1 $443 $444 $170 #
plane-surface $-1 -1 $-1 0.011349999999999994 0.625 -1.2526806211428967e-017 0 1 0 0 0 1 forward_v I I I I #
loop $-1 -1 $-1 $-1 $176 $108 #
coedge $-1 -1 $-1 $283 $283 $174 $285 reversed $171 $-1 #
coedge $-1 -1 $-1 $284 $284 $444 $445 reversed $173 $-1 #
edge $-1 -1 $-1 $446 -3.1415926535897931 $446 3.1415926535897931 $174 $447 forward @7 unknown #
coedge $-1 -1 $-1 $286 $286 $175 $287 forward $443 $-1 #
edge $448 -1 $-1 $449 -3.1415926535897931 $449 3.1415926535897931 $175 $450 forward @7 unknown #
vertex $-1 -1 $-1 $177 $451 #
ellipse-curve $-1 -1 $-1 0 -0.25 0 0 -1 0 0.25014999999999998 0 0 1 I I #
loop $-1 -1 $-1 $452 $453 $178 #
plane-surface $-1 -1 $-1 0.011363636363636352 -0.25 -1.253054340370889e-017 0 1 0 0 0 1 forward_v I I I I #
loop $-1 -1 $-1 $-1 $184 $113 #
coedge $-1 -1 $-1 $293 $293 $182 $295 reversed $179 $-1 #
coedge $-1 -1 $-1 $294 $294 $453 $454 reversed $181 $-1 #
edge $-1 -1 $-1 $455 -3.1415926535897931 $455 3.1415926535897931 $182 $456 forward @7 unknown #
coedge $-1 -1 $-1 $296 $296 $183 $297 forward $452 $-1 #
edge $457 -1 $-1 $458 -3.1415926535897931 $458 3.1415926535897931 $183 $459 forward @7 unknown #
vertex $-1 -1 $-1 $185 $460 #
ellipse-curve $-1 -1 $-1 0 -1.125 0 0 -1 0 0.25 0 0 1 I I #
face_name-twe-attrib $-1 -1 $-1 $187 $120 5 #
model_id-kcp-attrib $-1 -1 $461 $-1 $188 1 1021385849 1021385849 391970817 7 #
face $462 -1 $-1 $463 $309 $11 $-1 $464 forward single #
cone-surface $465 -1 $-1 0 -2.3624999999999998 0 0 1 0 0.25014999999999998 0 0 1 I I 0 1 0.25014999999999998 forward I I I I #
surf-twe-attrib $-1 -1 $-1 $-1 $189 30 #
coedge $-1 -1 $-1 $305 $305 $191 $306 reversed $466 $-1 #
edge $467 -1 $-1 $468 -3.1415926535897931 $468 3.1415926535897931 $191 $469 forward @7 unknown #
coedge $-1 -1 $-1 $307 $307 $194 $308 reversed $317 $-1 #
edge $470 -1 $-1 $471 -3.1415926535897931 $471 3.1415926535897931 $194 $472 forward @7 unknown #
loop $473 -1 $-1 $474 $195 $302 #
attrib_edge_convexity-kcp-attrib $-1 -1 $475 $-1 $196 2 #
vertex $-1 -1 $-1 $196 $476 #
ellipse-curve $477 -1 $-1 0 -1.375 0 0 1 0 -0.25 0 0 1 I I #
attrib_edge_convexity-kcp-attrib $-1 -1 $478 $-1 $198 1 #
vertex $-1 -1 $-1 $198 $479 #
ellipse-curve $480 -1 $-1 0 -0.500000000000001 0 -4.0000000000000003e-015 -1 0 -0.375 1.4999999999999999e-015 0 1 I I #
loop_type-twe-attrib $-1 -1 $-1 $-1 $199 0 #
loop $481 -1 $-1 $-1 $307 $188 #
convexity-sys-attrib $-1 -1 $482 $200 $130 #
point $-1 -1 $-1 -0.25014999999999998 -0.5 0 #
cur-twe-attrib $-1 -1 $-1 $-1 $202 40 #
coedge $-1 -1 $-1 $206 $203 $483 $484 forward $58 $-1 #
coedge $-1 -1 $-1 $485 $486 $203 $323 reversed $487 $-1 #
edge $488 -1 $-1 $328 -0.21650635094610937 $489 0 $322 $490 forward @7 unknown #
coedge $-1 -1 $-1 $491 $204 $210 $340 forward $326 $-1 #
coedge $-1 -1 $-1 $204 $491 $485 $492 reversed $326 $-1 #
loop $493 -1 $-1 $-1 $204 $494 #
attrib_edge_convexity-kcp-attrib $-1 -1 $495 $-1 $205 1 #
vertex $-1 -1 $-1 $492 $496 #
straight-curve $497 -1 $-1 -0.108253175473055 0 0.1875 -1 0 0 I I #
coedge $-1 -1 $-1 $498 $499 $206 $331 reversed $500 $-1 #
edge $501 -1 $-1 $502 -0.21650635094611001 $336 0 $330 $503 forward @7 unknown #
coedge $-1 -1 $-1 $504 $207 $499 $505 forward $334 $-1 #
coedge $-1 -1 $-1 $207 $504 $209 $339 reversed $334 $-1 #
loop $506 -1 $-1 $-1 $207 $507 #
attrib_edge_convexity-kcp-attrib $-1 -1 $508 $-1 $208 1 #
vertex $-1 -1 $-1 $505 $509 #
straight-curve $510 -1 $-1 0.21650635094610901 0 0 0.499999999999997 0 0.86602540378444004 I I #
coedge $-1 -1 $-1 $210 $209 $511 $512 forward $211 $-1 #
edge $513 -1 $-1 $213 -0.188 $514 0 $333 $515 forward @7 unknown #
edge $516 -1 $-1 $214 -0.188 $517 0 $324 $518 forward @7 unknown #
loop_type-twe-attrib $-1 -1 $-1 $-1 $211 0 #
face $519 -1 $-1 $507 $211 $11 $-1 $520 reversed single #
convexity-sys-attrib $-1 -1 $521 $212 $134 #
point $-1 -1 $-1 0.21650635094610901 0 0 #
point $-1 -1 $-1 0.108253175473055 0 0.1875 #
cur-twe-attrib $-1 -1 $-1 $-1 $215 44 #
loop_type-twe-attrib $-1 -1 $-1 $-1 $217 1 #
edge_name-twe-attrib $-1 -1 $-1 $218 $91 4 8704 #
model_id-kcp-attrib $-1 -1 $-1 $-1 $221 1 1021385849 1021385849 391970818 2 #
face $-1 -1 $-1 $-1 $236 $31 $-1 $522 reversed single #
loop $-1 -1 $-1 $-1 $366 $221 #
plane-surface $-1 -1 $-1 0 1.125 0 0 -1 0 0 0 -1 forward_v I I I I #
coedge $-1 -1 $-1 $523 $364 $367 $524 forward $222 $-1 #
coedge $-1 -1 $-1 $370 $224 $225 $358 reversed $141 $-1 #
coedge $-1 -1 $-1 $364 $523 $224 $356 reversed $222 $-1 #
edge $-1 -1 $-1 $371 -0.375 $525 0.375 $355 $526 forward @7 unknown #
coedge $-1 -1 $-1 $226 $225 $523 $527 forward $93 $-1 #
edge $-1 -1 $-1 $362 -0.375 $525 0.375 $354 $528 forward @7 unknown #
coedge $-1 -1 $-1 $367 $366 $226 $360 reversed $351 $-1 #
edge $-1 -1 $-1 $529 -0.375 $361 0.375 $359 $530 forward @7 unknown #
vertex $-1 -1 $-1 $228 $531 #
vertex $-1 -1 $-1 $373 $532 #
straight-curve $-1 -1 $-1 0.375 0 -0.375 0 -1 0 I I #
coedge $-1 -1 $-1 $353 $355 $229 $365 reversed $222 $-1 #
edge $-1 -1 $-1 $368 -1.125 $371 1.125 $364 $533 forward @7 unknown #
coedge $-1 -1 $-1 $359 $230 $235 $374 forward $351 $-1 #
coedge $-1 -1 $-1 $230 $359 $353 $524 reversed $351 $-1 #
vertex $-1 -1 $-1 $231 $534 #
straight-curve $-1 -1 $-1 0 1.125 0.375 -1 0 0 I I #
coedge $-1 -1 $-1 $232 $354 $234 $373 reversed $141 $-1 #
vertex $-1 -1 $-1 $365 $535 #
straight-curve $-1 -1 $-1 0 -1.125 0.375 1 0 0 I I #
edge $-1 -1 $-1 $237 -0.375 $362 0.375 $234 $536 forward @7 unknown #
edge $-1 -1 $-1 $238 -0.375 $361 0.375 $235 $537 forward @7 unknown #
point $-1 -1 $-1 0.375 -1.125 0.375 #
point $-1 -1 $-1 0.375 1.125 0.375 #
coedge $-1 -1 $-1 $377 $377 $241 $378 forward $240 $-1 #
edge $-1 -1 $-1 $538 0 $538 6.2831853071795862 $377 $539 forward @7 unknown #
vertex $-1 -1 $-1 $242 $540 #
ellipse-curve $-1 -1 $-1 0 0 -0.024999999999999911 0 0 -1 0.25 0 0 1 I I #
point $-1 -1 $-1 -0.20000000000000001 2.4492127076447546e-017 0.024999999999999911 #
face $-1 -1 $-1 $406 $401 $35 $-1 $541 forward single #
loop $-1 -1 $-1 $-1 $542 $245 #
plane-surface $-1 -1 $-1 0.108253175473055 0.93700000000000006 -0.1875 0.86602540378443882 0 -0.49999999999999989 -0.49999999999999989 0 -0.86602540378443882 forward_v I I I I #
coedge $-1 -1 $-1 $543 $544 $545 $546 forward $246 $-1 #
coedge $-1 -1 $-1 $547 $248 $544 $548 reversed $156 $-1 #
coedge $-1 -1 $-1 $248 $547 $249 $391 forward $156 $-1 #
coedge $-1 -1 $-1 $251 $545 $248 $389 reversed $258 $-1 #
edge $-1 -1 $-1 $392 -0.16237976320958189 $549 0.054126587736527398 $248 $550 forward @7 unknown #
coedge $-1 -1 $-1 $250 $249 $551 $552 reversed $102 $-1 #
edge $-1 -1 $-1 $553 0 $392 0.18799999999999994 $387 $554 forward @7 unknown #
vertex $-1 -1 $-1 $391 $555 #
straight-curve $-1 -1 $-1 -0.18944305707784542 1.1249999999999998 0.046874999999999861 -0.49999999999999989 0 -0.86602540378443882 I I #
coedge $-1 -1 $-1 $551 $556 $253 $395 forward $557 $-1 #
edge $558 -1 $-1 $402 -0.1623797632095825 $397 0.054126587736527502 $253 $559 forward @7 unknown #
convexity-sys-attrib $-1 -1 $-1 $-1 $254 #
vertex $-1 -1 $-1 $395 $560 #
straight-curve $-1 -1 $-1 -0.10825317547305499 0.93700000000000006 0.1875 0 1 0 I I #
coedge $-1 -1 $-1 $561 $255 $556 $562 reversed $401 $-1 #
coedge $-1 -1 $-1 $255 $561 $257 $405 forward $401 $-1 #
loop $-1 -1 $-1 $-1 $400 $382 #
vertex $-1 -1 $-1 $562 $563 #
straight-curve $-1 -1 $-1 0.108253175473055 0.93700000000000006 0.1875 0 1 0 I I #
coedge $-1 -1 $-1 $545 $257 $542 $564 reversed $258 $-1 #
edge $-1 -1 $-1 $565 -0.16237976320958189 $259 0.054126587736527385 $400 $566 forward @7 unknown #
face $-1 -1 $-1 $567 $258 $35 $-1 $568 forward single #
point $-1 -1 $-1 0.108253175473055 1.125 0.1875 #
point $-1 -1 $-1 -0.10825317547305499 1.125 0.1875 #
face $-1 -1 $-1 $569 $570 $37 $-1 $571 reversed single #
loop $-1 -1 $-1 $-1 $432 $262 #
plane-surface $-1 -1 $-1 0 0 0.375 0 0 1 1 0 0 forward_v I I I I #
coedge $-1 -1 $-1 $572 $573 $574 $415 reversed $263 $-1 #
coedge $-1 -1 $-1 $270 $264 $575 $576 reversed $164 $-1 #
coedge $-1 -1 $-1 $264 $270 $577 $578 reversed $164 $-1 #
edge $-1 -1 $-1 $579 -2.25 $580 0 $574 $581 forward @7 unknown #
coedge $-1 -1 $-1 $266 $265 $582 $583 reversed $106 $-1 #
coedge $-1 -1 $-1 $584 $585 $586 $418 forward $587 $-1 #
edge $-1 -1 $-1 $588 -2.25 $422 0 $417 $589 forward @7 unknown #
coedge $-1 -1 $-1 $420 $267 $590 $591 reversed $421 $-1 #
coedge $-1 -1 $-1 $267 $419 $584 $592 forward $421 $-1 #
loop $-1 -1 $-1 $-1 $267 $593 #
vertex $-1 -1 $-1 $594 $595 #
vertex $-1 -1 $-1 $596 $597 #
ellipse-curve $-1 -1 $-1 1.4059319267082538e-033 1.125 0 0 -1 0 -0.375 0 0 1 I I #
coedge $-1 -1 $-1 $598 $599 $269 $426 forward $600 $-1 #
edge $-1 -1 $-1 $423 -1.5707963267948966 $428 0 $425 $424 forward @7 unknown #
coedge $-1 -1 $-1 $601 $602 $603 $271 forward $570 $-1 #
vertex $-1 -1 $-1 $604 $605 #
straight-curve $-1 -1 $-1 -0.375 1.125 0 0 1 0 I I #
coedge $-1 -1 $-1 $606 $272 $599 $596 forward $433 $-1 #
coedge $-1 -1 $-1 $272 $606 $274 $435 forward $433 $-1 #
coedge $-1 -1 $-1 $607 $590 $266 $273 reversed $410 $-1 #
loop $-1 -1 $-1 $-1 $272 $608 #
straight-curve $-1 -1 $-1 1.4059319267082538e-033 1.125 0.375 0 1 0 I I #
edge $-1 -1 $-1 $609 -0.375 $278 1.4059319267082538e-033 $274 $610 forward @7 unknown #
coedge $-1 -1 $-1 $611 $603 $275 $437 reversed $612 $-1 #
edge $-1 -1 $-1 $609 -0.375 $277 0 $436 $613 forward @7 unknown #
face $-1 -1 $-1 $614 $276 $37 $-1 $615 reversed single #
edge $-1 -1 $-1 $277 0 $616 0.375 $602 $613 forward @7 unknown #
point $-1 -1 $-1 -0.375 -1.125 0 #
edge $-1 -1 $-1 $278 1.4059319267082538e-033 $617 0.375 $618 $610 forward @7 unknown #
point $-1 -1 $-1 1.4059319267082538e-033 -1.125 0.375 #
loop $-1 -1 $-1 $-1 $286 $170 #
coedge $-1 -1 $-1 $444 $444 $284 $445 forward $280 $-1 #
edge $619 -1 $-1 $620 -3.1415926535897931 $620 3.1415926535897931 $284 $621 forward @7 unknown #
vertex $-1 -1 $-1 $285 $622 #
ellipse-curve $-1 -1 $-1 1.4059319267082538e-033 -0.25 0 0 1 0 -0.375 0 0 1 I I #
convexity-sys-attrib $-1 -1 $-1 $-1 $287 #
vertex $-1 -1 $-1 $287 $623 #
ellipse-curve $-1 -1 $-1 0 0.625 0 0 -1 0 0.25014999999999998 0 0 1 I I #
point $-1 -1 $-1 -0.25014999999999998 -0.25 0 #
loop $-1 -1 $-1 $-1 $296 $178 #
coedge $-1 -1 $-1 $453 $453 $294 $454 forward $290 $-1 #
edge $624 -1 $-1 $625 -3.1415926535897931 $625 3.1415926535897931 $294 $626 forward @7 unknown #
vertex $-1 -1 $-1 $295 $627 #
ellipse-curve $-1 -1 $-1 1.4059319267082538e-033 -1.125 0 0 1 0 -0.375 0 0 1 I I #
convexity-sys-attrib $-1 -1 $-1 $-1 $297 #
vertex $-1 -1 $-1 $297 $628 #
ellipse-curve $-1 -1 $-1 0 -0.25 0 0 -1 0 0.25 0 0 1 I I #
point $-1 -1 $-1 -0.25 -1.125 0 #
face_name-twe-attrib $-1 -1 $-1 $301 $188 6 #
model_id-kcp-attrib $-1 -1 $629 $-1 $302 1 1021385849 1021385849 391970817 8 #
face $630 -1 $-1 $631 $632 $11 $-1 $633 forward single #
cone-surface $634 -1 $-1 0 -2.3624999999999998 0 0 1 0 0.25 0 0 1 I I 0 1 0.25 forward I I I I #
surf-twe-attrib $-1 -1 $-1 $-1 $303 50 #
loop $635 -1 $-1 $-1 $305 $463 #
attrib_edge_convexity-kcp-attrib $-1 -1 $636 $-1 $306 1 #
vertex $-1 -1 $-1 $306 $637 #
ellipse-curve $638 -1 $-1 0 -2.25 0 0 -1 0 -0.20000000000000001 0 0 1 I I #
attrib_edge_convexity-kcp-attrib $-1 -1 $639 $-1 $308 1 #
vertex $-1 -1 $-1 $308 $640 #
ellipse-curve $641 -1 $-1 0 -1.375 0 0 -1 0 -0.25014999999999998 0 0 1 I I #
loop_type-twe-attrib $-1 -1 $-1 $-1 $309 0 #
loop $642 -1 $-1 $-1 $643 $302 #
convexity-sys-attrib $-1 -1 $644 $310 $196 #
point $-1 -1 $-1 -0.25 -1.375 0 #
cur-twe-attrib $-1 -1 $-1 $-1 $312 58 #
convexity-sys-attrib $-1 -1 $645 $313 $198 #
point $-1 -1 $-1 0.375 -0.500000000000003 -4.5924247045776401e-017 #
cur-twe-attrib $-1 -1 $-1 $-1 $315 60 #
loop_type-twe-attrib $-1 -1 $-1 $-1 $317 1 #
edge_name-twe-attrib $-1 -1 $-1 $318 $130 5 4608 #
coedge $-1 -1 $-1 $646 $647 $321 $484 reversed $648 $-1 #
edge $649 -1 $-1 $489 -0.21650635094610937 $502 0 $483 $650 forward @7 unknown #
coedge $-1 -1 $-1 $651 $322 $325 $492 forward $487 $-1 #
coedge $-1 -1 $-1 $322 $651 $646 $652 reversed $487 $-1 #
loop $653 -1 $-1 $-1 $322 $654 #
attrib_edge_convexity-kcp-attrib $-1 -1 $655 $-1 $323 1 #
vertex $-1 -1 $-1 $652 $656 #
straight-curve $657 -1 $-1 -0.21650635094610901 0 0 -0.499999999999997 0 -0.86602540378444004 I I #
coedge $-1 -1 $-1 $325 $324 $658 $659 forward $326 $-1 #
edge $660 -1 $-1 $328 -0.188 $661 0 $325 $662 forward @7 unknown #
loop_type-twe-attrib $-1 -1 $-1 $-1 $326 0 #
face $663 -1 $-1 $-1 $326 $11 $-1 $664 reversed single #
convexity-sys-attrib $-1 -1 $665 $327 $205 #
point $-1 -1 $-1 -0.108253175473055 0 0.1875 #
cur-twe-attrib $-1 -1 $-1 $-1 $329 67 #
coedge $-1 -1 $-1 $666 $330 $647 $667 forward $500 $-1 #
coedge $-1 -1 $-1 $330 $666 $332 $505 reversed $500 $-1 #
loop $668 -1 $-1 $-1 $330 $669 #
attrib_edge_convexity-kcp-attrib $-1 -1 $670 $-1 $331 1 #
vertex $-1 -1 $-1 $667 $671 #
straight-curve $672 -1 $-1 0.108253175473055 0 -0.1875 1 0 0 I I #
coedge $-1 -1 $-1 $333 $332 $673 $674 forward $334 $-1 #
edge $675 -1 $-1 $336 -0.188 $676 0 $499 $677 forward @7 unknown #
loop_type-twe-attrib $-1 -1 $-1 $-1 $334 0 #
face $678 -1 $-1 $669 $334 $11 $-1 $679 reversed single #
convexity-sys-attrib $-1 -1 $680 $335 $208 #
point $-1 -1 $-1 0.108253175473055 0 -0.1875 #
cur-twe-attrib $-1 -1 $-1 $-1 $337 70 #
coedge $-1 -1 $-1 $673 $658 $338 $512 reversed $681 $-1 #
edge $682 -1 $-1 $514 -0.21650635094610937 $517 0 $338 $683 forward @7 unknown #
edge_name-twe-attrib $-1 -1 $-1 $-1 $339 12 4352 #
vertex $-1 -1 $-1 $339 $684 #
straight-curve $685 -1 $-1 0.21650635094610901 -0.188 0 0 -1 0 I I #
edge_name-twe-attrib $-1 -1 $-1 $-1 $340 23 4352 #
vertex $-1 -1 $-1 $340 $686 #
straight-curve $687 -1 $-1 0.108253175473055 -0.188 0.1875 0 -1 0 I I #
model_id-kcp-attrib $-1 -1 $688 $-1 $342 1 1021385849 1021385849 391970817 11 #
plane-surface $689 -1 $-1 0.108253175473055 -0.188 0.1875 0.86602540378443882 0 0.49999999999999989 0.5 0 -0.86602540378443904 forward_v I I I I #
edge_name-twe-attrib $-1 -1 $-1 $343 $134 8 8704 #
plane-surface $-1 -1 $-1 0.375 0 0 -1 0 0 0 0 1 forward_v I I I I #
coedge $-1 -1 $-1 $355 $353 $357 $527 reversed $222 $-1 #
edge $-1 -1 $-1 $368 -0.375 $529 0.375 $367 $690 forward @7 unknown #
vertex $-1 -1 $-1 $527 $691 #
straight-curve $-1 -1 $-1 -0.375 -1.125 0 0 0 -1 I I #
edge $-1 -1 $-1 $525 -1.125 $529 1.125 $523 $692 forward @7 unknown #
straight-curve $-1 -1 $-1 0 -1.125 -0.375 -1 0 0 I I #
vertex $-1 -1 $-1 $360 $693 #
straight-curve $-1 -1 $-1 0 1.125 -0.375 1 0 0 I I #
point $-1 -1 $-1 0.375 1.125 -0.375 #
point $-1 -1 $-1 0.375 -1.125 -0.375 #
straight-curve $-1 -1 $-1 -0.375 0 0.375 0 -1 0 I I #
point $-1 -1 $-1 -0.375 1.125 0.375 #
point $-1 -1 $-1 -0.375 -1.125 0.375 #
straight-curve $-1 -1 $-1 0.375 -1.125 0 0 0 -1 I I #
straight-curve $-1 -1 $-1 0.375 1.125 0 0 0 -1 I I #
vertex $-1 -1 $-1 $378 $694 #
ellipse-curve $-1 -1 $-1 0 0 0.024999999999999911 0 0 1 0.25 0 0 1 I I #
point $-1 -1 $-1 0.25 0 -0.024999999999999911 #
plane-surface $-1 -1 $-1 0.21650635094610901 0.93700000000000006 0 0.86602540378443882 0 0.49999999999999989 0.49999999999999989 0 -0.86602540378443882 forward_v I I I I #
coedge $-1 -1 $-1 $695 $696 $404 $564 forward $383 $-1 #
coedge $-1 -1 $-1 $697 $385 $696 $698 reversed $246 $-1 #
coedge $-1 -1 $-1 $385 $697 $386 $548 forward $246 $-1 #
coedge $-1 -1 $-1 $388 $404 $385 $546 reversed $258 $-1 #
edge $-1 -1 $-1 $549 -0.1623797632095825 $699 0.054126587736527502 $385 $700 forward @7 unknown #
coedge $-1 -1 $-1 $387 $386 $701 $702 reversed $156 $-1 #
edge $-1 -1 $-1 $703 0 $549 0.18799999999999994 $544 $704 forward @7 unknown #
vertex $-1 -1 $-1 $548 $705 #
straight-curve $-1 -1 $-1 -0.13531646934131869 1.1249999999999998 -0.14062500000000003 0.49999999999999989 0 -0.86602540378443882 I I #
coedge $-1 -1 $-1 $701 $394 $390 $552 forward $557 $-1 #
edge $706 -1 $-1 $397 -0.16237976320958203 $553 0.054126587736527246 $390 $707 forward @7 unknown #
vertex $-1 -1 $-1 $552 $708 #
straight-curve $-1 -1 $-1 -0.21650635094610901 0.93700000000000006 0 0 1 0 I I #
point $-1 -1 $-1 -0.21650635094610901 1.125 0 #
coedge $-1 -1 $-1 $394 $709 $399 $562 forward $557 $-1 #
loop $-1 -1 $-1 $-1 $556 $567 #
convexity-sys-attrib $-1 -1 $-1 $-1 $395 #
straight-curve $-1 -1 $-1 -0.054126587736527502 0.93699999999999983 0.1875 -1 0 0 I I #
point $-1 -1 $-1 -0.108253175473055 0.93700000000000006 0.1875 #
coedge $-1 -1 $-1 $400 $399 $695 $710 forward $401 $-1 #
edge $711 -1 $-1 $712 -0.16237976320958189 $402 0.054126587736527385 $399 $713 forward @7 unknown #
point $-1 -1 $-1 0.108253175473055 0.93700000000000006 0.1875 #
edge $-1 -1 $-1 $699 -0.16237976320958203 $565 0.054126587736527246 $542 $714 forward @7 unknown #
vertex $-1 -1 $-1 $710 $715 #
straight-curve $-1 -1 $-1 0.13531646934131869 1.1249999999999998 0.14062500000000003 -0.49999999999999989 0 0.86602540378443882 I I #
face $-1 -1 $-1 $-1 $557 $35 $-1 $716 reversed single #
plane-surface $-1 -1 $-1 -1.4718865856772942e-018 1.1249999999999991 0 -2.9392023082087001e-031 1 5.911727896370322e-046 0 -5.911727896370322e-046 1 forward_v I I I I #
face $-1 -1 $-1 $717 $718 $37 $-1 $719 reversed single #
loop $-1 -1 $-1 $-1 $427 $409 #
plane-surface $-1 -1 $-1 -0.375 0 0 1 0 0 0 0 -1 forward_v I I I I #
coedge $-1 -1 $-1 $720 $412 $721 $722 reversed $263 $-1 #
coedge $-1 -1 $-1 $412 $720 $723 $724 reversed $263 $-1 #
coedge $-1 -1 $-1 $725 $726 $727 $415 forward $728 $-1 #
coedge $-1 -1 $-1 $729 $730 $413 $576 forward $731 $-1 #
edge $-1 -1 $-1 $428 0 $580 1.5707963267948966 $575 $424 forward @7 unknown #
coedge $-1 -1 $-1 $732 $733 $414 $578 forward $734 $-1 #
edge $-1 -1 $-1 $579 -1.5707963267948966 $277 0 $577 $279 forward @7 unknown #
vertex $-1 -1 $-1 $735 $736 #
vertex $-1 -1 $-1 $737 $738 #
straight-curve $-1 -1 $-1 1.4059319267082538e-033 1.125 -0.375 0 1 0 I I #
coedge $-1 -1 $-1 $739 $618 $416 $583 forward $740 $-1 #
edge $-1 -1 $-1 $278 1.5707963267948966 $588 3.1415926535897931 $582 $279 forward @7 unknown #
coedge $-1 -1 $-1 $741 $417 $420 $592 reversed $587 $-1 #
coedge $-1 -1 $-1 $417 $741 $739 $742 forward $587 $-1 #
coedge $-1 -1 $-1 $743 $744 $720 $418 reversed $718 $-1 #
loop $-1 -1 $-1 $-1 $417 $745 #
vertex $-1 -1 $-1 $746 $747 #
straight-curve $-1 -1 $-1 0.375 1.125 0 0 1 0 I I #
coedge $-1 -1 $-1 $432 $748 $419 $591 forward $410 $-1 #
edge $-1 -1 $-1 $749 -0.375 $423 -1.4059319267082538e-033 $419 $750 forward @7 unknown #
edge $-1 -1 $-1 $749 -0.375 $422 0 $584 $751 forward @7 unknown #
face $-1 -1 $-1 $752 $421 $37 $-1 $753 reversed single #
edge $-1 -1 $-1 $422 0 $754 0.375 $744 $751 forward @7 unknown #
point $-1 -1 $-1 0.375 1.125 0 #
edge $-1 -1 $-1 $423 -1.4059319267082538e-033 $755 0.375 $599 $750 forward @7 unknown #
point $-1 -1 $-1 1.4059319267082538e-033 1.125 0.375 #
coedge $-1 -1 $-1 $599 $425 $756 $757 reversed $600 $-1 #
coedge $-1 -1 $-1 $425 $598 $430 $596 reversed $600 $-1 #
loop $-1 -1 $-1 $-1 $425 $752 #
coedge $-1 -1 $-1 $758 $427 $730 $604 forward $570 $-1 #
coedge $-1 -1 $-1 $427 $758 $732 $439 reversed $570 $-1 #
coedge $-1 -1 $-1 $436 $756 $166 $271 reversed $612 $-1 #
edge $-1 -1 $-1 $428 0 $759 0.375 $730 $760 forward @7 unknown #
point $-1 -1 $-1 -0.375 1.125 0 #
coedge $-1 -1 $-1 $431 $430 $611 $761 forward $433 $-1 #
coedge $-1 -1 $-1 $748 $432 $618 $441 forward $410 $-1 #
face $-1 -1 $-1 $762 $433 $37 $-1 $411 forward single #
vertex $-1 -1 $-1 $761 $763 #
straight-curve $-1 -1 $-1 0 -1.125 0.375 1 0 0 I I #
coedge $-1 -1 $-1 $756 $436 $606 $761 reversed $612 $-1 #
loop $-1 -1 $-1 $-1 $603 $764 #
straight-curve $-1 -1 $-1 -0.375 -1.125 0 0 0 -1 I I #
face $-1 -1 $-1 $765 $740 $37 $-1 $615 reversed single #
plane-surface $-1 -1 $-1 0 -1.125 0 0 1 0 0 0 1 forward_v I I I I #
vertex $-1 -1 $-1 $766 $767 #
vertex $-1 -1 $-1 $768 $769 #
coedge $-1 -1 $-1 $582 $739 $607 $441 reversed $740 $-1 #
convexity-sys-attrib $-1 -1 $-1 $-1 $445 #
vertex $-1 -1 $-1 $445 $770 #
ellipse-curve $-1 -1 $-1 1.4059319267082538e-033 0.625 0 0 1 0 -0.375 0 0 1 I I #
point $-1 -1 $-1 0.375 -0.25 -4.5922738268339147e-017 #
point $-1 -1 $-1 -0.25014999999999998 0.625 0 #
convexity-sys-attrib $-1 -1 $-1 $-1 $454 #
vertex $-1 -1 $-1 $454 $771 #
ellipse-curve $-1 -1 $-1 1.4059319267082538e-033 -0.25 0 0 1 0 -0.375 0 0 1 I I #
point $-1 -1 $-1 0.375 -1.125 -4.5922738268339147e-017 #
point $-1 -1 $-1 -0.25 -0.25 0 #
face_name-twe-attrib $-1 -1 $-1 $462 $302 7 #
model_id-kcp-attrib $-1 -1 $772 $-1 $463 1 1021385849 1021385849 391970817 9 #
face $773 -1 $-1 $342 $681 $11 $-1 $774 forward single #
loop $775 -1 $-1 $466 $776 $463 #
cone-surface $777 -1 $-1 0 -2.2000000000000002 0 0 1 0 -0.25 0 0 1 I I 0.70710678118654902 0.70710678118654602 0.25 forward I I I I #
surf-twe-attrib $-1 -1 $-1 $-1 $464 83 #
loop_type-twe-attrib $-1 -1 $-1 $-1 $466 1 #
convexity-sys-attrib $-1 -1 $778 $467 $306 #
point $-1 -1 $-1 0.20000000000000001 -2.25 -2.4492931757747401e-017 #
cur-twe-attrib $-1 -1 $-1 $-1 $469 87 #
convexity-sys-attrib $-1 -1 $779 $470 $308 #
point $-1 -1 $-1 0.25014999999999998 -1.375 -3.0634534396002597e-017 #
cur-twe-attrib $-1 -1 $-1 $-1 $472 89 #
loop_type-twe-attrib $-1 -1 $-1 $-1 $474 1 #
coedge $-1 -1 $-1 $643 $643 $776 $780 forward $474 $-1 #
edge_name-twe-attrib $-1 -1 $-1 $475 $196 6 4608 #
edge_name-twe-attrib $-1 -1 $-1 $478 $198 1 8704 #
coedge $-1 -1 $-1 $781 $483 $486 $652 forward $648 $-1 #
coedge $-1 -1 $-1 $483 $781 $498 $667 reversed $648 $-1 #
loop $782 -1 $-1 $-1 $483 $783 #
attrib_edge_convexity-kcp-attrib $-1 -1 $784 $-1 $484 1 #
straight-curve $785 -1 $-1 -0.108253175473055 0 -0.1875 0.499999999999997 0 -0.86602540378444004 I I #
coedge $-1 -1 $-1 $486 $485 $786 $787 forward $487 $-1 #
edge $788 -1 $-1 $489 -0.188 $789 0 $486 $790 forward @7 unknown #
loop_type-twe-attrib $-1 -1 $-1 $-1 $487 0 #
face $791 -1 $-1 $494 $487 $11 $-1 $792 reversed single #
convexity-sys-attrib $-1 -1 $793 $488 $323 #
point $-1 -1 $-1 -0.21650635094610901 0 0 #
cur-twe-attrib $-1 -1 $-1 $-1 $490 103 #
coedge $-1 -1 $-1 $511 $786 $491 $659 reversed $681 $-1 #
edge $794 -1 $-1 $517 -0.21650635094611001 $661 0 $491 $795 forward @7 unknown #
edge_name-twe-attrib $-1 -1 $-1 $-1 $492 25 4352 #
vertex $-1 -1 $-1 $492 $796 #
straight-curve $797 -1 $-1 -0.108253175473055 -0.188 0.1875 0 -1 0 I I #
model_id-kcp-attrib $-1 -1 $798 $-1 $494 1 1021385849 1021385849 391970817 16 #
plane-surface $799 -1 $-1 -0.108253175473055 -0.188 0.1875 0 0 1 1 0 0 forward_v I I I I #
edge_name-twe-attrib $-1 -1 $-1 $495 $205 22 8704 #
coedge $-1 -1 $-1 $499 $498 $800 $801 forward $500 $-1 #
edge $802 -1 $-1 $502 -0.188 $803 0 $647 $804 forward @7 unknown #
loop_type-twe-attrib $-1 -1 $-1 $-1 $500 0 #
face $805 -1 $-1 $783 $500 $11 $-1 $806 reversed single #
convexity-sys-attrib $-1 -1 $807 $501 $331 #
point $-1 -1 $-1 -0.108253175473055 0 -0.1875 #
cur-twe-attrib $-1 -1 $-1 $-1 $503 111 #
coedge $-1 -1 $-1 $800 $511 $504 $674 reversed $681 $-1 #
edge $808 -1 $-1 $676 -0.21650635094610937 $514 0 $504 $809 forward @7 unknown #
edge_name-twe-attrib $-1 -1 $-1 $-1 $505 15 4352 #
vertex $-1 -1 $-1 $505 $810 #
straight-curve $811 -1 $-1 0.108253175473055 -0.188 -0.1875 0 -1 0 I I #
model_id-kcp-attrib $-1 -1 $812 $-1 $507 1 1021385849 1021385849 391970817 12 #
plane-surface $813 -1 $-1 0.21650635094610901 -0.188 0 0.86602540378443882 0 -0.49999999999999989 -0.5 0 -0.86602540378443904 forward_v I I I I #
edge_name-twe-attrib $-1 -1 $-1 $508 $208 10 8704 #
loop $814 -1 $-1 $-1 $511 $631 #
attrib_edge_convexity-kcp-attrib $-1 -1 $815 $-1 $512 2 #
straight-curve $816 -1 $-1 0.108253175473055 -0.188 0.1875 -0.499999999999997 0 0.86602540378444004 I I #
point $-1 -1 $-1 0.21650635094610901 -0.188 0 #
cur-twe-attrib $-1 -1 $-1 $-1 $515 119 #
point $-1 -1 $-1 0.108253175473055 -0.188 0.1875 #
cur-twe-attrib $-1 -1 $-1 $-1 $518 120 #
face_name-twe-attrib $-1 -1 $-1 $519 $342 10 #
surf-twe-attrib $-1 -1 $-1 $-1 $520 122 #
straight-curve $-1 -1 $-1 -0.375 1.125 0 0 0 -1 I I #
point $-1 -1 $-1 -0.375 -1.125 -0.375 #
straight-curve $-1 -1 $-1 -0.375 0 -0.375 0 1 0 I I #
point $-1 -1 $-1 -0.375 1.125 -0.375 #
point $-1 -1 $-1 0.25 0 0.024999999999999911 #
coedge $-1 -1 $-1 $817 $542 $561 $710 reversed $383 $-1 #
coedge $-1 -1 $-1 $542 $817 $543 $698 forward $383 $-1 #
coedge $-1 -1 $-1 $544 $543 $818 $819 reversed $246 $-1 #
edge $-1 -1 $-1 $820 0 $699 0.18799999999999994 $696 $821 forward @7 unknown #
vertex $-1 -1 $-1 $698 $822 #
straight-curve $-1 -1 $-1 0.054126587736527502 1.1249999999999998 -0.1875 1 0 0 I I #
coedge $-1 -1 $-1 $818 $551 $547 $702 forward $557 $-1 #
edge $823 -1 $-1 $553 -0.16237976320958189 $703 0.054126587736527385 $547 $824 forward @7 unknown #
vertex $-1 -1 $-1 $702 $825 #
straight-curve $-1 -1 $-1 -0.10825317547305499 0.93700000000000006 -0.1875 0 1 0 I I #
point $-1 -1 $-1 -0.10825317547305499 1.125 -0.1875 #
convexity-sys-attrib $-1 -1 $-1 $-1 $552 #
straight-curve $-1 -1 $-1 -0.18944305707784542 0.93699999999999983 0.046874999999999861 -0.49999999999999989 0 -0.86602540378443882 I I #
point $-1 -1 $-1 -0.21650635094610901 0.93700000000000006 0 #
coedge $-1 -1 $-1 $556 $818 $817 $826 forward $557 $-1 #
edge $-1 -1 $-1 $712 0 $565 0.18799999999999994 $561 $827 forward @7 unknown #
convexity-sys-attrib $-1 -1 $-1 $-1 $562 #
vertex $-1 -1 $-1 $562 $828 #
straight-curve $-1 -1 $-1 0.13531646934131869 0.93699999999999983 0.14062500000000003 -0.49999999999999989 0 0.86602540378443882 I I #
straight-curve $-1 -1 $-1 0.18944305707784542 1.1249999999999998 -0.046874999999999861 0.49999999999999989 0 0.86602540378443882 I I #
point $-1 -1 $-1 0.21650635094610901 1.125 0 #
plane-surface $-1 -1 $-1 -1.4718865856772942e-018 0.93699999999999928 0 -2.9392023082087001e-031 1 5.911727896370322e-046 0 -5.911727896370322e-046 1 forward_v I I I I #
face $-1 -1 $-1 $593 $829 $37 $-1 $753 reversed single #
loop $-1 -1 $-1 $-1 $586 $569 #
plane-surface $-1 -1 $-1 0.375 0 0 -1 0 0 0 0 1 forward_v I I I I #
coedge $-1 -1 $-1 $573 $572 $265 $418 forward $263 $-1 #
coedge $-1 -1 $-1 $830 $831 $572 $722 forward $832 $-1 #
edge $-1 -1 $-1 $588 -3.1415926535897931 $579 -1.5707963267948966 $721 $279 forward @7 unknown #
coedge $-1 -1 $-1 $833 $834 $573 $724 forward $829 $-1 #
edge $-1 -1 $-1 $580 1.5707963267948966 $422 3.1415926535897931 $723 $424 forward @7 unknown #
coedge $-1 -1 $-1 $835 $574 $834 $737 forward $728 $-1 #
coedge $-1 -1 $-1 $574 $835 $830 $836 forward $728 $-1 #
coedge $-1 -1 $-1 $837 $838 $264 $415 reversed $839 $-1 #
loop $-1 -1 $-1 $-1 $574 $762 #
coedge $-1 -1 $-1 $730 $575 $838 $840 reversed $731 $-1 #
coedge $-1 -1 $-1 $575 $729 $601 $604 reversed $731 $-1 #
loop $-1 -1 $-1 $-1 $575 $841 #
coedge $-1 -1 $-1 $733 $577 $602 $439 forward $734 $-1 #
coedge $-1 -1 $-1 $577 $732 $837 $735 reversed $734 $-1 #
loop $-1 -1 $-1 $-1 $577 $842 #
edge $-1 -1 $-1 $579 -1.4059319267082538e-033 $616 0.375 $733 $843 forward @7 unknown #
point $-1 -1 $-1 1.4059319267082538e-033 -1.125 -0.375 #
edge $-1 -1 $-1 $580 1.4059319267082538e-033 $754 0.375 $834 $844 forward @7 unknown #
point $-1 -1 $-1 1.4059319267082538e-033 1.125 -0.375 #
coedge $-1 -1 $-1 $618 $582 $585 $742 reversed $740 $-1 #
loop $-1 -1 $-1 $-1 $582 $614 #
coedge $-1 -1 $-1 $585 $584 $748 $768 reversed $587 $-1 #
edge $-1 -1 $-1 $617 -0.375 $588 0 $585 $845 forward @7 unknown #
coedge $-1 -1 $-1 $846 $586 $831 $746 forward $718 $-1 #
coedge $-1 -1 $-1 $586 $846 $833 $594 reversed $718 $-1 #
face $-1 -1 $-1 $-1 $587 $37 $-1 $719 reversed single #
edge $-1 -1 $-1 $588 0 $847 0.375 $743 $845 forward @7 unknown #
point $-1 -1 $-1 0.375 -1.125 0 #
coedge $-1 -1 $-1 $590 $607 $741 $768 forward $410 $-1 #
vertex $-1 -1 $-1 $768 $848 #
straight-curve $-1 -1 $-1 0 1.125 0.375 -1 0 0 I I #
straight-curve $-1 -1 $-1 0.375 1.125 0 0 0 -1 I I #
face $-1 -1 $-1 $841 $600 $37 $-1 $753 reversed single #
plane-surface $-1 -1 $-1 0 1.125 0 0 -1 0 0 0 -1 forward_v I I I I #
vertex $-1 -1 $-1 $849 $850 #
vertex $-1 -1 $-1 $596 $851 #
coedge $-1 -1 $-1 $603 $611 $598 $757 forward $612 $-1 #
edge $-1 -1 $-1 $755 -0.375 $428 0 $598 $760 forward @7 unknown #
coedge $-1 -1 $-1 $602 $601 $852 $766 reversed $570 $-1 #
vertex $-1 -1 $-1 $840 $853 #
straight-curve $-1 -1 $-1 -0.375 1.125 0 0 0 -1 I I #
edge $-1 -1 $-1 $755 -1.125 $609 1.125 $611 $854 forward @7 unknown #
face $-1 -1 $-1 $764 $728 $37 $-1 $855 reversed single #
point $-1 -1 $-1 -0.375 -1.125 0.375 #
face $-1 -1 $-1 $745 $612 $37 $-1 $571 reversed single #
face $-1 -1 $-1 $856 $832 $37 $-1 $615 reversed single #
edge $-1 -1 $-1 $616 -1.125 $759 1.125 $758 $857 forward @7 unknown #
point $-1 -1 $-1 -0.375 -1.125 -0.375 #
edge $-1 -1 $-1 $617 -1.125 $749 1.125 $741 $858 forward @7 unknown #
point $-1 -1 $-1 0.375 -1.125 0.375 #
point $-1 -1 $-1 0.375 0.625 -4.5922738268339147e-017 #
point $-1 -1 $-1 0.375 -0.25 -4.5922738268339147e-017 #
face_name-twe-attrib $-1 -1 $-1 $630 $463 8 #
model_id-kcp-attrib $-1 -1 $859 $-1 $631 1 1021385849 1021385849 391970817 10 #
plane-surface $860 -1 $-1 0 -0.188 0 0 1 0 0 0 1 forward_v I I I I #
loop_type-twe-attrib $-1 -1 $-1 $-1 $632 0 #
coedge $-1 -1 $-1 $776 $776 $643 $780 reversed $632 $-1 #
surf-twe-attrib $-1 -1 $-1 $-1 $633 128 #
edge_name-twe-attrib $-1 -1 $-1 $636 $306 3 8448 #
edge_name-twe-attrib $-1 -1 $-1 $639 $308 2 8704 #
edge $861 -1 $-1 $862 -3.1415926535897931 $862 3.1415926535897931 $776 $863 forward @7 unknown #
coedge $-1 -1 $-1 $647 $646 $864 $865 forward $648 $-1 #
loop_type-twe-attrib $-1 -1 $-1 $-1 $648 0 #
face $866 -1 $-1 $654 $648 $11 $-1 $867 reversed single #
convexity-sys-attrib $-1 -1 $868 $649 $484 #
cur-twe-attrib $-1 -1 $-1 $-1 $650 146 #
coedge $-1 -1 $-1 $658 $864 $651 $787 reversed $681 $-1 #
edge $869 -1 $-1 $661 -0.21650635094610937 $789 0 $651 $870 forward @7 unknown #
edge_name-twe-attrib $-1 -1 $-1 $-1 $652 21 4352 #
vertex $-1 -1 $-1 $652 $871 #
straight-curve $872 -1 $-1 -0.21650635094610901 -0.188 0 0 -1 0 I I #
model_id-kcp-attrib $-1 -1 $873 $-1 $654 1 1021385849 1021385849 391970817 15 #
plane-surface $874 -1 $-1 -0.21650635094610901 -0.188 0 -0.86602540378443882 0 0.49999999999999989 0.5 0 0.86602540378443904 forward_v I I I I #
edge_name-twe-attrib $-1 -1 $-1 $655 $323 19 8704 #
attrib_edge_convexity-kcp-attrib $-1 -1 $875 $-1 $659 2 #
straight-curve $876 -1 $-1 -0.108253175473055 -0.188 0.1875 -1 0 0 I I #
point $-1 -1 $-1 -0.108253175473055 -0.188 0.1875 #
cur-twe-attrib $-1 -1 $-1 $-1 $662 154 #
face_name-twe-attrib $-1 -1 $-1 $663 $494 15 #
surf-twe-attrib $-1 -1 $-1 $-1 $664 156 #
coedge $-1 -1 $-1 $864 $673 $666 $801 reversed $681 $-1 #
edge $877 -1 $-1 $803 -0.21650635094611001 $676 0 $666 $878 forward @7 unknown #
edge_name-twe-attrib $-1 -1 $-1 $-1 $667 18 4352 #
vertex $-1 -1 $-1 $667 $879 #
straight-curve $880 -1 $-1 -0.108253175473055 -0.188 -0.1875 0 -1 0 I I #
model_id-kcp-attrib $-1 -1 $881 $-1 $669 1 1021385849 1021385849 391970817 13 #
plane-surface $882 -1 $-1 0.108253175473055 -0.188 -0.1875 0 0 -1 -1 0 0 forward_v I I I I #
edge_name-twe-attrib $-1 -1 $-1 $670 $331 13 8704 #
attrib_edge_convexity-kcp-attrib $-1 -1 $883 $-1 $674 2 #
straight-curve $884 -1 $-1 0.21650635094610901 -0.188 0 0.499999999999997 0 0.86602540378444004 I I #
point $-1 -1 $-1 0.108253175473055 -0.188 -0.1875 #
cur-twe-attrib $-1 -1 $-1 $-1 $677 166 #
face_name-twe-attrib $-1 -1 $-1 $678 $507 11 #
surf-twe-attrib $-1 -1 $-1 $-1 $679 168 #
loop_type-twe-attrib $-1 -1 $-1 $-1 $681 0 #
convexity-sys-attrib $-1 -1 $885 $682 $512 #
cur-twe-attrib $-1 -1 $-1 $-1 $683 172 #
coedge $-1 -1 $-1 $696 $695 $709 $826 reversed $383 $-1 #
coedge $-1 -1 $-1 $709 $701 $697 $819 forward $557 $-1 #
edge $886 -1 $-1 $703 -0.1623797632095825 $820 0.054126587736527502 $697 $887 forward @7 unknown #
vertex $-1 -1 $-1 $819 $888 #
straight-curve $-1 -1 $-1 0.108253175473055 0.93700000000000006 -0.1875 0 1 0 I I #
point $-1 -1 $-1 0.108253175473055 1.125 -0.1875 #
convexity-sys-attrib $-1 -1 $-1 $-1 $702 #
straight-curve $-1 -1 $-1 -0.13531646934131869 0.93699999999999983 -0.14062500000000003 0.49999999999999989 0 -0.86602540378443882 I I #
point $-1 -1 $-1 -0.108253175473055 0.93700000000000006 -0.1875 #
edge $889 -1 $-1 $820 -0.16237976320958203 $712 0.054126587736527246 $817 $890 forward @7 unknown #
straight-curve $-1 -1 $-1 0.21650635094610901 0.93700000000000006 0 0 1 0 I I #
point $-1 -1 $-1 0.21650635094610901 0.93700000000000006 0 #
loop $-1 -1 $-1 $-1 $723 $717 #
coedge $-1 -1 $-1 $831 $721 $726 $836 reversed $832 $-1 #
coedge $-1 -1 $-1 $721 $830 $743 $746 reversed $832 $-1 #
loop $-1 -1 $-1 $-1 $721 $765 #
coedge $-1 -1 $-1 $834 $723 $744 $594 forward $829 $-1 #
coedge $-1 -1 $-1 $723 $833 $725 $737 reversed $829 $-1 #
coedge $-1 -1 $-1 $726 $725 $846 $849 forward $728 $-1 #
edge $-1 -1 $-1 $847 -0.375 $579 -1.4059319267082538e-033 $830 $843 forward @7 unknown #
coedge $-1 -1 $-1 $852 $727 $733 $735 forward $839 $-1 #
coedge $-1 -1 $-1 $727 $852 $729 $840 forward $839 $-1 #
loop $-1 -1 $-1 $-1 $727 $856 #
edge $-1 -1 $-1 $759 -0.375 $580 1.4059319267082538e-033 $729 $844 forward @7 unknown #
face $-1 -1 $-1 $842 $731 $37 $-1 $753 reversed single #
face $-1 -1 $-1 $438 $734 $37 $-1 $615 reversed single #
straight-curve $-1 -1 $-1 0 -1.125 -0.375 -1 0 0 I I #
straight-curve $-1 -1 $-1 0 1.125 -0.375 1 0 0 I I #
straight-curve $-1 -1 $-1 0.375 -1.125 0 0 0 -1 I I #
coedge $-1 -1 $-1 $744 $743 $835 $849 reversed $718 $-1 #
vertex $-1 -1 $-1 $746 $891 #
point $-1 -1 $-1 0.375 1.125 0.375 #
edge $-1 -1 $-1 $754 -1.125 $847 1.125 $846 $892 forward @7 unknown #
point $-1 -1 $-1 0.375 1.125 -0.375 #
point $-1 -1 $-1 -0.375 1.125 0.375 #
coedge $-1 -1 $-1 $838 $837 $758 $766 forward $839 $-1 #
point $-1 -1 $-1 -0.375 1.125 -0.375 #
straight-curve $-1 -1 $-1 -0.375 0 0.375 0 -1 0 I I #
plane-surface $-1 -1 $-1 0 0 -0.375 0 0 1 1 0 0 forward_v I I I I #
face $-1 -1 $-1 $608 $839 $37 $-1 $855 reversed single #
straight-curve $-1 -1 $-1 -0.375 0 -0.375 0 1 0 I I #
straight-curve $-1 -1 $-1 0.375 0 0.375 0 1 0 I I #
face_name-twe-attrib $-1 -1 $-1 $773 $631 9 #
surf-twe-attrib $-1 -1 $-1 $-1 $774 182 #
attrib_edge_convexity-kcp-attrib $-1 -1 $893 $-1 $780 1 #
vertex $-1 -1 $-1 $780 $894 #
ellipse-curve $895 -1 $-1 0 -2.2000000000000002 0 0 1 0 -0.25 0 0 1 I I #
coedge $-1 -1 $-1 $786 $800 $781 $865 reversed $681 $-1 #
edge $896 -1 $-1 $789 -0.21650635094610937 $803 0 $781 $897 forward @7 unknown #
model_id-kcp-attrib $-1 -1 $898 $-1 $783 1 1021385849 1021385849 391970817 14 #
plane-surface $899 -1 $-1 -0.108253175473055 -0.188 -0.1875 -0.86602540378443882 0 -0.49999999999999989 -0.5 0 0.86602540378443904 forward_v I I I I #
edge_name-twe-attrib $-1 -1 $-1 $784 $484 16 8704 #
attrib_edge_convexity-kcp-attrib $-1 -1 $900 $-1 $787 2 #
straight-curve $901 -1 $-1 -0.21650635094610901 -0.188 0 -0.499999999999997 0 -0.86602540378444004 I I #
point $-1 -1 $-1 -0.21650635094610901 -0.188 0 #
cur-twe-attrib $-1 -1 $-1 $-1 $790 199 #
face_name-twe-attrib $-1 -1 $-1 $791 $654 14 #
surf-twe-attrib $-1 -1 $-1 $-1 $792 201 #
convexity-sys-attrib $-1 -1 $902 $794 $659 #
cur-twe-attrib $-1 -1 $-1 $-1 $795 205 #
attrib_edge_convexity-kcp-attrib $-1 -1 $903 $-1 $801 2 #
straight-curve $904 -1 $-1 0.108253175473055 -0.188 -0.1875 1 0 0 I I #
point $-1 -1 $-1 -0.108253175473055 -0.188 -0.1875 #
cur-twe-attrib $-1 -1 $-1 $-1 $804 212 #
face_name-twe-attrib $-1 -1 $-1 $805 $669 12 #
surf-twe-attrib $-1 -1 $-1 $-1 $806 214 #
convexity-sys-attrib $-1 -1 $905 $808 $674 #
cur-twe-attrib $-1 -1 $-1 $-1 $809 218 #
edge_name-twe-attrib $-1 -1 $-1 $815 $512 9 4608 #
convexity-sys-attrib $-1 -1 $-1 $-1 $819 #
straight-curve $-1 -1 $-1 0.054126587736527502 0.93699999999999983 -0.1875 1 0 0 I I #
point $-1 -1 $-1 0.108253175473055 0.93700000000000006 -0.1875 #
convexity-sys-attrib $-1 -1 $-1 $-1 $826 #
straight-curve $-1 -1 $-1 0.18944305707784542 0.93699999999999983 -0.046874999999999861 0.49999999999999989 0 0.86602540378443882 I I #
point $-1 -1 $-1 0.375 -1.125 -0.375 #
straight-curve $-1 -1 $-1 0.375 0 -0.375 0 -1 0 I I #
convexity-sys-attrib $-1 -1 $906 $861 $780 #
point $-1 -1 $-1 0.25 -2.2000000000000002 3.0616164697184302e-017 #
cur-twe-attrib $-1 -1 $-1 $-1 $863 237 #
attrib_edge_convexity-kcp-attrib $-1 -1 $907 $-1 $865 2 #
straight-curve $908 -1 $-1 -0.108253175473055 -0.188 -0.1875 0.499999999999997 0 -0.86602540378444004 I I #
face_name-twe-attrib $-1 -1 $-1 $866 $783 13 #
surf-twe-attrib $-1 -1 $-1 $-1 $867 240 #
convexity-sys-attrib $-1 -1 $909 $869 $787 #
cur-twe-attrib $-1 -1 $-1 $-1 $870 243 #
edge_name-twe-attrib $-1 -1 $-1 $875 $659 24 4608 #
convexity-sys-attrib $-1 -1 $910 $877 $801 #
cur-twe-attrib $-1 -1 $-1 $-1 $878 255 #
edge_name-twe-attrib $-1 -1 $-1 $883 $674 11 4608 #
edge_name-twe-attrib $-1 -1 $-1 $893 $780 7 8448 #
convexity-sys-attrib $-1 -1 $911 $896 $865 #
cur-twe-attrib $-1 -1 $-1 $-1 $897 273 #
edge_name-twe-attrib $-1 -1 $-1 $900 $787 20 4608 #
edge_name-twe-attrib $-1 -1 $-1 $903 $801 14 4608 #
edge_name-twe-attrib $-1 -1 $-1 $907 $865 17 4608 #
End-of-ACIS-data 