**ABCDEFGHIJKLMNOPQRSTUVWXYZabcdefghijklmnopqrstuvwxyz**************************
**PARASOLID !"#$%&'()*+,-./:;<=>?@[\]^_`{|}~0123456789**************************
**PART1;MC=sun;MC_MODEL=sun3;MC_ID=cosmos;OS=SunOS;OS_RELEASE=4.1;FRU=sdl_paraso
lid_test_sun;APPL=unknown;SITE=sdl-cambridge-u.k.;USER=kramer;FORMAT=text;GUISE=
transmit;KEY=cone_plain;FILE=cone_plain.xmt_txt;DATE=2-dec-1991;
**PART2;SCH=SCH_301017_3000;USFLD_SIZE=0;
**PART3;
**END_OF_HEADER*****************************************************************
T50 : TRANSMIT FILE created by modeller version 30101715 SCH_301017_30000 12 1 1
2 0 0 0 0 0 1e3 1e-8 2 2 0 0 0 1 3 102 10 2 cone_plain13 3 2 0 1 0 4 5 6 7 8 9 1
4 4 9 0 10 0 11 3 12 +16 5 6 0 13 0 0 8 18 6 3 0 14 0 0 9 52 7 12 0 10 12 0 0 +0
 0 5 0 0 -1 0 .624695047554424 .78086880944303 -1 0 0 31 8 10 0 5 0 0 0 +0 0 0 0
 0 1 1 0 0 4 29 9 5 0 6 0 0 0 0 5 14 10 1 0 0 4 15 3 7 +50 12 11 0 4 0 7 0 +0 0
 0 0 0 -1 -1 0 0 15 15 7 0 13 10 16 17 13 15 13 13 0 17 5 15 16 4 0 14 10 0 17 1
4 16 14 14 6 0 0 17 17 11 17 17 0 13 5 15 11 8 0 17 4 0 1 0 
