**ABCDEFGHIJKLMNOPQRSTUVWXYZabcdefghijklmnopqrstuvwxyz**************************
**PARASOLID !"#$%&'()*+,-./:;<=>?@[\]^_`{|}~0123456789**************************
**PART1;MC=sun;MC_MODEL=Sun-3;MC_ID=unknown;OS=SunOS;OS_RELEASE=unknown;FRU=sdl_
parasolid_test_sun;APPL=unknown;SITE=sdl-cambridge-u.k.;USER=kramer;FORMAT=text;
GUISE=transmit;KEY=intermediate_3;FILE=intermediate_3.xmt_txt;DATE=16-oct-1990;
**PART2;SCH=SCH_210_1012;USFLD_SIZE=0;
**PART3;
**END_OF_HEADER*****************************************************************
T47 : TRANSMIT FILE created by modeller version 22012 SCH_210_10120 12 1 916 0 0
 0 0 0 1e3 1e-8 2 2 0 0 3 1 4 102 14 2 intermediate_313 4 2 0 1 0 5 6 7 8 9 10 1
4 5 648 0 11 0 12 4 8 -16 6 692 0 13 0 14 9 18 7 750 0 13 0 15 10 50 8 788 0 5 1
6 0 0 +3.06 2.495 .4 -1 0 0 30 9 810 0 6 17 0 0 +3.06 3.908257569495585 0 0 0 1
 29 10 868 0 7 18 0 3.06 3.908257569495585 .5 29 18 869 0 15 19 10 3.06 3.537842
71247462 .5 18 15 751 0 20 7 21 18 29 19 870 0 21 22 18 3.06 3.53784271247462 1.
24 18 21 752 0 23 15 24 19 29 22 871 0 24 25 19 3.06 1.45215728752538 1.24 18 24
 753 0 26 21 27 22 29 25 872 0 27 28 22 3.06 1.081742430504416 .5 18 27 754 0 29
 24 30 25 29 28 873 0 30 31 25 3.06 1.45215728752538 .5 18 30 755 0 32 27 33 28
 29 31 876 0 33 34 28 3.26 3.95 .4 18 33 758 0 35 30 36 31 29 34 877 0 36 37 31
 3.26 1.04 .4 18 36 759 0 38 33 39 34 29 37 878 0 39 40 34 3.06 0 .4 18 39 760 0
 41 36 42 37 29 40 879 0 42 43 37 3.06 1.081742430504416 .4 18 42 761 0 44 39 45
 40 29 43 880 0 45 46 40 3.06 3.908257569495585 .4 18 45 762 0 47 42 48 43 29 46
 881 0 48 49 43 3.06 4.99 .4 18 48 763 0 50 45 51 46 29 49 882 0 51 52 46 5.26 4
.99 .4 18 51 764 0 53 48 54 49 29 52 884 0 54 55 49 5.26 1.04 .4 18 54 766 0 56
 51 57 52 29 55 885 0 57 58 52 5.26 0 .4 18 57 767 0 59 54 60 55 29 58 886 0 60
 61 55 3.06 4.99 1.5 18 60 768 0 62 57 63 58 29 61 887 0 63 64 58 3.06 0 1.5 18
 63 769 0 65 60 66 61 29 64 507 0 66 67 61 5.26 3.95 .4 18 66 505 0 68 63 69 64
 29 67 480 0 69 70 64 2.771149307047645 3.555 .5 18 69 398 0 71 66 72 67 29 70 4
81 0 72 73 67 2.771149307047645 3.555 0 18 72 399 0 74 69 75 70 29 73 482 0 75 7
6 70 2.96 3.555 .5 18 75 400 0 77 72 78 73 29 76 483 0 78 79 73 2.77114930704764
5 1.435 .5 18 78 401 0 80 75 81 76 29 79 484 0 81 82 76 2.96 1.435 .5 18 81 402
 0 83 78 84 79 29 82 486 0 84 85 79 .56 3.555 0 18 84 404 0 86 81 87 82 29 85 48
8 0 87 88 82 .26 1.735 0 18 87 406 0 89 84 90 85 29 88 489 0 90 91 85 .26 3.255
 0 18 90 407 0 92 87 93 88 29 91 492 0 93 94 88 .26 3.255 1.24 18 93 410 0 95 90
 96 91 29 94 493 0 96 97 91 .26 1.735 1.24 18 96 411 0 98 93 99 94 29 97 494 0 9
9 100 94 2.96 3.555 1.24 18 99 412 0 101 96 102 97 29 100 495 0 102 103 97 .56 3
.555 1.24 18 102 413 0 104 99 105 100 29 103 499 0 105 106 100 .56 1.435 0 18 10
5 417 0 107 102 108 103 29 106 500 0 108 109 103 .56 1.435 1.24 18 108 418 0 110
 105 111 106 29 109 501 0 111 112 106 2.96 1.435 1.24 18 111 419 0 113 108 114 1
09 29 112 259 0 114 115 109 2.771149307047645 1.435 0 18 114 257 0 116 111 117 1
12 29 115 229 0 117 118 112 5.26 3.95 0 18 117 163 0 119 114 120 115 29 118 232
 0 120 121 115 5.26 1.04 0 18 120 166 0 122 117 123 118 29 121 233 0 123 124 118
 3.26 3.95 0 18 123 167 0 125 120 126 121 29 124 246 0 126 127 121 3.26 1.04 0 1
8 126 180 0 128 123 129 124 29 127 55 0 129 130 124 0 0 1.5 18 129 20 0 131 126
 132 127 29 130 54 0 132 133 127 0 4.99 1.5 18 132 18 0 134 129 135 130 29 133 3
8 0 136 137 130 0 0 0 18 136 8 0 138 139 140 133 29 137 37 0 139 141 133 0 4.99
 0 18 139 10 0 142 135 136 137 29 141 36 0 135 143 137 5.26 4.99 0 18 135 12 0 1
44 132 139 141 29 143 35 0 140 0 141 5.26 0 0 18 140 7 0 145 136 0 143 17 145 14
6 147 148 140 149 150 15 146 553 0 65 151 0 17 147 146 41 145 57 152 153 17 148
 146 145 154 136 131 155 17 149 156 157 158 136 145 150 16 150 9 0 145 159 160 1
61 16 159 11 0 138 162 150 163 16 160 3 0 164 150 0 165 30 161 39 0 150 0 165 0
 +2.63 0 0 1 0 0 30 165 40 0 160 161 166 0 +5.26 2.495 0 0 1 0 30 166 41 0 162 1
65 163 0 +2.63 4.99 0 -1 0 0 16 162 13 0 142 153 159 166 30 163 42 0 159 166 167
 0 +0 2.495 0 0 -1 0 30 167 47 0 153 163 168 0 +5.26 0 0 0 0 1 16 153 15 0 147 1
69 162 167 30 168 48 0 169 167 170 0 +5.26 4.99 0 0 0 1 16 169 17 0 171 172 153
 168 30 170 49 0 172 168 173 0 +0 4.99 0 0 0 1 16 172 19 0 134 155 169 170 30 17
3 50 0 155 170 174 0 +0 0 0 0 0 1 16 155 21 0 131 175 172 173 30 174 57 0 175 17
3 176 0 +2.63 4.99 1.5 1 0 0 16 175 25 0 177 178 155 174 30 176 58 0 178 174 179
 0 +0 2.495 1.5 0 1 0 16 178 28 0 180 181 175 176 30 179 67 0 181 176 182 0 +5.2
6 2.495 0 0 1 0 16 181 65 0 144 183 178 179 30 182 227 0 183 179 184 0 +4.51 1.0
4 0 1 0 0 16 183 161 0 122 185 181 182 31 184 212 0 185 182 186 0 +3.26 1.54 0 0
 0 -1 .5 16 185 146 0 187 188 183 184 30 186 208 0 188 184 189 0 +3.26 3.95 0 0
 0 1 16 188 142 0 190 191 185 186 30 189 199 0 191 186 192 0 +4.51 3.95 0 -1 0 0
 16 191 133 0 125 193 188 189 30 192 197 0 193 189 194 0 +5.26 3.95 0 0 0 1 16 1
93 131 0 195 196 191 192 31 194 256 0 196 192 197 0 +3.26 3.45 0 0 0 -1 .5 16 19
6 254 0 198 199 193 194 31 197 285 0 199 194 200 0 +3.26 1.54 .5 0 0 1 .5 16 199
 283 0 201 202 196 197 30 200 318 0 202 197 203 0 +2.771149307047645 1.435 0 0 0
 1 16 202 316 0 204 205 199 200 30 203 475 0 205 200 206 0 +1.76 1.435 1.24 -1 0
 0 16 205 393 0 207 208 202 203 30 206 474 0 208 203 209 0 +1.76 1.435 0 1 0 0 1
6 208 392 0 116 210 205 206 30 209 473 0 210 206 211 0 +.56 1.435 0 0 0 -1 16 21
0 391 0 212 213 208 209 30 211 470 0 213 209 214 0 +1.76 3.555 1.24 1 0 0 16 213
 388 0 215 216 210 211 30 214 469 0 216 211 217 0 +.26 2.495 1.24 0 1 0 16 216 3
87 0 218 219 213 214 31 217 468 0 219 214 220 0 +.56 1.735 1.24 0 0 1 .3 16 219
 386 0 221 222 216 217 31 220 467 0 222 217 223 0 +.56 3.255 1.24 0 0 1 .3 16 22
2 385 0 224 225 219 220 31 223 465 0 225 220 226 0 +2.96 1.735 1.24 0 0 1 .3 16
 225 383 0 227 228 222 223 30 226 461 0 228 223 229 0 +.26 2.495 0 0 -1 0 16 228
 379 0 89 230 225 226 31 229 459 0 230 226 231 0 +.56 1.735 0 0 0 -1 .3 16 230 3
77 0 232 233 228 229 31 231 458 0 233 229 234 0 +.56 3.255 0 0 0 -1 .3 16 233 37
6 0 235 236 230 231 30 234 455 0 236 231 237 0 +.56 3.555 0 0 0 1 16 236 373 0 2
38 239 233 234 30 237 454 0 239 234 240 0 +2.96 3.555 0 0 0 -1 16 239 372 0 241
 242 236 237 30 240 453 0 242 237 243 0 +.26 1.735 0 0 0 1 16 242 371 0 244 245
 239 240 30 243 452 0 245 240 246 0 +.26 3.255 0 0 0 -1 16 245 370 0 247 248 242
 243 30 246 450 0 248 243 249 0 +2.96 1.435 0 0 0 1 16 248 368 0 250 251 245 246
 30 249 449 0 251 246 252 0 +4.51 1.435 .5 1 0 0 16 251 367 0 83 253 248 249 30
 252 446 0 253 249 254 0 +1.76 3.555 0 -1 0 0 16 253 364 0 86 255 251 252 30 254
 445 0 255 252 256 0 +4.51 3.555 .5 -1 0 0 16 255 363 0 71 257 253 254 30 256 44
4 0 257 254 258 0 -2.771149307047645 3.555 0 0 0 1 16 257 362 0 74 259 255 256 3
1 258 440 0 259 256 260 0 +2.96 1.735 .5 0 0 1 .3 16 259 358 0 261 262 257 258 3
0 260 520 0 262 258 263 0 +5.26 1.04 0 0 0 -1 16 262 518 0 264 265 259 260 30 26
3 547 0 265 260 266 0 +2.63 0 1.5 -1 0 0 16 265 545 0 154 267 262 263 30 266 565
 0 267 263 268 0 +3.26 1.04 0 0 0 -1 16 267 563 0 269 270 265 266 31 268 574 0 2
70 266 271 0 +2.96 3.255 .5 0 0 1 .3 16 270 572 0 77 272 267 268 31 271 578 0 27
2 268 273 0 +3.26 3.45 .5 0 0 1 .5 16 272 576 0 274 275 270 271 30 273 603 0 275
 271 276 0 +4.51 3.95 .4 -1 0 0 16 275 601 0 35 277 272 273 31 276 627 0 277 273
 278 0 +2.96 3.255 1.24 0 0 1 .3 16 277 625 0 279 280 275 276 30 278 841 0 280 2
76 281 0 +3.06 2.495 1.5 0 1 0 16 280 723 0 62 282 277 278 30 281 837 0 282 278
 283 0 +5.26 2.495 .4 0 1 0 16 282 719 0 284 285 280 281 30 283 835 0 285 281 28
6 0 +5.26 2.495 .4 0 1 0 16 285 717 0 287 288 282 283 30 286 833 0 288 283 289 0
 +3.06 2.495 .4 0 -1 0 16 288 715 0 290 291 285 286 30 289 831 0 291 286 292 0 +
3.06 2.495 .4 0 -1 0 16 291 713 0 293 294 288 289 30 292 829 0 294 289 295 0 +2.
63 4.99 .4 -1 0 0 16 294 711 0 296 297 291 292 30 295 828 0 297 292 298 0 +2.63
 0 .4 1 0 0 16 297 710 0 299 300 294 295 30 298 827 0 300 295 301 0 +4.51 1.04 .
4 1 0 0 16 300 709 0 56 302 297 298 31 301 826 0 302 298 303 0 -3.26 1.54 .4 0 0
 -1 .5 16 302 708 0 38 304 300 301 31 303 824 0 304 301 305 0 -3.26 3.45 .4 0 0
 -1 .5 16 304 706 0 47 306 302 303 30 305 818 0 306 303 307 0 +3.06 4.99 0 0 0 1
 16 306 700 0 308 309 304 305 30 307 817 0 309 305 310 0 +3.06 0 0 0 0 -1 16 309
 699 0 311 312 306 307 30 310 816 0 312 307 313 0 +3.06 2.495 .5 0 -1 0 16 312 6
98 0 29 314 309 310 30 313 815 0 314 310 315 0 -3.06 1.081742430504416 0 0 0 1 1
6 314 697 0 44 316 312 313 30 315 814 0 316 313 317 0 -3.06 1.45215728752538 0 0
 0 1 16 316 696 0 32 318 314 315 30 317 813 0 318 315 319 0 +3.06 2.495 1.24 0 -
1 0 16 318 695 0 26 320 316 317 30 319 812 0 320 317 17 0 +3.06 3.53784271247462
 0 0 0 1 16 320 694 0 23 14 318 319 30 17 811 0 14 319 9 0 +3.06 2.495 .5 0 -1 0
 16 14 693 0 20 6 320 17 17 20 321 77 322 15 323 14 15 321 588 0 322 324 0 17 77
 321 71 20 75 325 270 17 322 321 20 71 7 274 272 17 323 12 326 327 7 20 14 15 12
 649 0 328 5 0 17 326 12 328 323 45 13 6 17 327 12 323 329 15 23 320 17 329 12 3
27 330 21 26 318 17 23 331 279 325 21 327 320 15 331 325 0 325 332 0 17 279 331
 241 23 99 333 277 17 325 331 23 241 15 77 270 17 241 331 325 279 75 101 239 17
 101 334 335 336 99 241 239 15 334 331 0 336 337 0 17 335 334 338 101 102 215 21
3 17 336 334 101 339 75 71 255 17 339 334 336 340 69 74 257 17 71 321 322 77 69
 336 255 17 340 334 339 338 72 86 253 17 74 341 198 274 72 339 257 15 341 114 0
 47 342 0 17 198 341 190 74 123 343 196 17 274 341 74 13 69 322 272 17 13 341 27
4 47 7 326 6 17 47 341 13 190 45 344 304 17 190 341 47 198 33 345 188 17 344 346
 347 290 33 47 304 15 346 661 0 347 11 0 17 347 346 287 344 66 35 275 17 290 346
 344 296 45 328 288 17 296 346 290 287 48 53 294 17 328 12 308 326 48 290 288 17
 308 12 348 328 60 50 306 17 348 12 311 308 63 62 280 17 50 349 53 177 48 308 30
6 15 349 540 0 50 350 0 17 53 349 351 50 51 296 294 17 177 349 50 134 60 352 175
 17 134 349 177 142 132 353 172 17 352 354 355 62 132 177 175 15 354 558 0 62 35
6 0 17 355 354 357 352 129 180 178 17 62 354 352 357 60 348 280 17 357 354 62 35
5 63 154 265 17 154 146 148 65 129 357 265 17 65 146 154 41 63 311 309 17 41 146
 65 147 39 299 297 17 311 12 358 348 39 65 309 17 358 12 359 311 42 293 291 17 3
59 12 360 358 27 44 314 17 293 361 299 362 39 358 291 15 361 663 0 293 363 0 17
 299 361 284 293 57 41 297 17 362 361 293 364 42 38 302 17 364 361 362 284 36 56
 300 17 38 365 269 44 36 362 302 15 365 112 0 201 366 0 17 269 365 187 38 126 36
7 267 17 44 365 38 201 42 359 314 17 201 365 44 204 27 368 199 17 204 365 201 18
7 78 369 202 17 368 370 83 29 78 201 199 15 370 128 0 261 371 0 17 83 370 261 36
8 81 80 251 17 29 370 368 261 27 360 312 17 261 370 29 83 30 372 259 17 360 12 3
30 359 30 29 312 17 330 12 329 360 24 32 316 17 32 373 372 227 30 330 316 15 373
 327 0 227 374 0 17 372 373 250 32 81 261 259 17 227 373 32 250 24 113 225 17 25
0 373 227 372 111 375 248 17 113 376 207 26 111 227 225 15 376 351 0 333 377 0 1
7 207 376 98 113 108 378 205 17 26 376 113 333 24 329 318 17 333 376 26 215 21 2
79 277 17 215 376 333 104 99 335 213 17 104 376 215 218 102 224 222 17 218 376 1
04 98 93 379 216 17 224 380 247 238 93 104 222 15 380 337 0 235 381 0 17 247 380
 235 224 90 95 245 17 238 380 224 235 102 338 236 17 235 380 238 247 84 92 233 1
7 338 334 340 335 84 238 236 17 92 156 89 86 90 235 233 15 156 278 0 86 382 0 17
 89 156 107 92 87 383 228 17 86 156 92 343 84 340 253 17 343 156 86 125 72 198 1
96 17 125 156 343 384 123 385 191 17 384 156 125 386 117 144 181 17 385 387 195
 345 117 125 191 15 387 122 0 195 388 0 17 195 387 35 385 66 119 193 17 345 387
 385 35 123 190 188 17 35 387 345 195 33 347 275 17 119 389 144 68 117 195 193 1
5 389 522 0 68 390 0 17 144 389 171 119 135 384 181 17 68 389 119 171 66 287 285
 17 171 389 68 144 51 351 169 17 287 346 296 347 51 68 285 17 351 349 142 53 135
 171 169 17 142 349 134 351 139 386 162 17 386 156 384 157 135 142 162 17 157 15
6 386 149 139 138 159 17 138 391 131 353 136 157 159 15 391 26 0 131 392 0 17 13
1 391 180 138 129 148 155 17 353 391 138 180 139 134 172 17 180 391 353 131 132
 355 178 14 392 27 0 350 151 391 4 393 +14 350 24 0 382 392 349 4 394 +14 151 30
 0 392 356 146 4 395 +50 393 45 0 392 394 395 0 +0 2.495 0 -1 0 0 50 394 44 0 35
0 396 393 0 +2.63 4.99 0 0 1 0 50 395 46 0 151 393 397 0 +2.63 0 0 0 -1 0 50 397
 51 0 356 395 398 0 +2.63 2.495 1.5 0 0 1 14 356 33 0 151 399 354 4 397 +50 398
 196 0 399 397 400 0 +4.51 1.04 0 0 -1 0 14 399 129 0 356 371 401 4 398 -50 400
 195 0 371 398 402 0 +4.51 2.495 .5 0 0 1 14 371 127 0 399 388 370 4 400 -50 402
 192 0 388 400 403 0 +4.51 3.95 0 0 1 0 14 388 121 0 371 342 387 4 402 -51 403 1
88 0 342 402 404 0 +3.26 3.45 0 0 0 1 .5 14 342 113 0 388 366 341 4 403 -51 404
 187 0 366 403 405 0 +3.26 1.54 0 0 0 1 .5 14 366 111 0 342 377 365 4 404 -50 40
5 434 0 377 404 406 0 +1.76 2.495 1.24 0 0 1 14 377 350 0 366 407 376 4 405 -50
 406 430 0 407 405 408 0 +.26 2.495 0 -1 0 0 14 407 342 0 377 381 409 4 406 -51
 408 427 0 381 406 410 0 +.56 3.255 0 0 0 1 .3 14 381 336 0 407 411 380 4 408 -5
1 410 426 0 411 408 412 0 +.56 1.735 0 0 0 1 .3 14 411 334 0 381 413 414 4 410 -
50 412 425 0 413 410 415 0 +1.76 1.435 0 0 -1 0 14 413 332 0 411 337 416 4 412 -
50 415 424 0 337 412 417 0 +1.76 3.555 0 0 1 0 14 337 330 0 413 374 334 4 415 -5
1 417 422 0 374 415 418 0 +2.96 1.735 0 0 0 1 .3 14 374 326 0 337 332 373 4 417
 -51 418 421 0 332 417 419 0 +2.96 3.255 0 0 0 1 .3 14 332 324 0 374 420 331 4 4
18 -50 419 525 0 420 418 421 0 +5.26 2.495 0 1 0 0 14 420 524 0 332 324 422 4 41
9 +50 421 591 0 324 419 423 0 +4.51 2.495 .5 0 0 1 14 324 590 0 420 363 321 4 42
1 -50 423 795 0 363 421 16 0 +4.16 2.495 .4 0 0 -1 14 363 662 0 324 11 361 4 423
 -50 16 794 0 11 423 8 0 +4.16 2.495 .4 0 0 -1 14 11 660 0 363 5 346 4 16 -15 42
2 527 0 59 420 0 17 59 422 152 424 57 284 282 17 152 422 164 59 140 147 153 17 4
24 422 59 164 54 264 262 17 284 361 364 299 54 59 282 17 164 422 424 152 120 158
 160 17 264 401 425 56 120 424 262 15 401 130 0 367 399 0 17 425 401 367 264 126
 122 183 17 56 401 264 367 54 364 300 17 367 401 56 425 36 269 267 17 122 156 15
8 128 120 425 183 17 158 156 149 122 140 164 160 17 128 156 122 116 126 187 185
 17 116 156 128 107 114 426 208 17 187 365 204 269 114 128 185 17 107 156 116 89
 105 232 230 17 426 416 110 369 105 116 208 15 416 333 0 426 413 0 17 110 416 37
8 426 108 212 210 17 369 416 426 80 114 204 202 17 80 416 369 375 78 83 251 17 3
75 416 80 378 81 250 248 17 378 416 375 110 111 207 205 17 212 414 232 221 105 1
10 210 15 414 335 0 232 411 0 17 232 414 244 212 87 107 230 17 221 414 212 244 1
08 98 219 17 244 414 221 232 96 427 242 17 98 376 218 207 96 221 219 17 427 409
 383 379 87 244 242 15 409 343 0 379 407 0 17 383 409 95 427 90 89 228 17 379 40
9 427 95 96 218 216 17 95 409 379 383 93 247 245 50 396 43 0 390 428 394 0 +5.26
 2.495 0 1 0 0 14 390 1 0 0 382 389 4 396 +50 428 34 0 382 0 396 0 +2.63 2.495 0
 0 0 -1 14 382 6 0 390 350 156 4 428 +1 0 
