106 0 1 0           
body $-1 $1 $-1 $2 #
lump $-1 $-1 $3 $0 #
transform $-1 1 0 0 0 -1 0 0 0 -1 0 -0.001 -3.968 0.99999999999999989 0 0 0 #
shell $-1 $-1 $-1 $4 $1 #
face $-1 $5 $6 $3 $-1 $7 forward single #
face $-1 $8 $9 $3 $-1 $10 forward single #
loop $-1 $11 $12 $4 #
plane-surface $-1 0 0 -0.040999999999999925 0 0 1 1 0 0 0 I I I I #
face $-1 $13 $14 $3 $-1 $15 reversed single #
loop $-1 $16 $17 $5 #
plane-surface $-1 0 0 -0.625 0 0 1 1 0 0 0 I I I I #
loop $-1 $-1 $18 $4 #
coedge $-1 $12 $12 $19 $20 1 $6 $-1 #
face $-1 $21 $22 $3 $-1 $23 reversed single #
loop $-1 $24 $25 $8 #
plane-surface $-1 0 0 -0.76000000000000001 0 0 1 1 0 0 0 I I I I #
loop $-1 $-1 $26 $5 #
coedge $-1 $17 $17 $27 $28 0 $9 $-1 #
coedge $-1 $18 $18 $29 $30 1 $11 $-1 #
coedge $-1 $19 $19 $12 $20 0 $31 $-1 #
edge $-1 $32 $32 $19 $33 0 #
face $-1 $34 $31 $3 $-1 $35 forward single #
loop $-1 $36 $37 $13 #
plane-surface $-1 0 0 -0.73999999999999999 0 0 1 1 0 0 0 I I I I #
loop $-1 $-1 $38 $8 #
coedge $-1 $25 $25 $39 $40 0 $14 $-1 #
coedge $-1 $26 $26 $41 $42 0 $16 $-1 #
coedge $-1 $27 $27 $17 $28 1 $43 $-1 #
edge $-1 $44 $44 $27 $45 0 #
coedge $-1 $29 $29 $18 $30 0 $46 $-1 #
edge $-1 $47 $47 $29 $48 0 #
loop $-1 $49 $19 $21 #
vertex $-1 $20 $50 #
ellipse-curve $-1 0 0 -0.040999999999999925 0 0 -1 -1.4684999999999999 0 0 1 I I #
face $-1 $51 $52 $3 $-1 $53 forward single #
cone-surface $-1 0 0 -0.79800000000000004 0 0 1 -1.4684999999999999 0 0 1 I I 0 1 0 I I I I #
loop $-1 $-1 $54 $13 #
coedge $-1 $37 $37 $55 $56 0 $22 $-1 #
coedge $-1 $38 $38 $57 $58 0 $24 $-1 #
coedge $-1 $39 $39 $25 $40 1 $59 $-1 #
edge $-1 $60 $60 $39 $61 0 #
coedge $-1 $41 $41 $26 $42 1 $49 $-1 #
edge $-1 $62 $62 $26 $63 0 #
loop $-1 $-1 $27 $34 #
vertex $-1 $28 $64 #
ellipse-curve $-1 0 0 -0.625 0 0 1 1.9950000000000001 0 0 1 I I #
loop $-1 $65 $29 $66 #
vertex $-1 $30 $67 #
ellipse-curve $-1 0 0 -0.040999999999999925 0 0 1 -1.345 0 0 1 I I #
loop $-1 $-1 $41 $21 #
point $-1 1.4684999999999999 1.0254486631578254e-014 -0.040999999999999925 #
face $-1 $68 $69 $3 $-1 $70 reversed single #
loop $-1 $43 $71 $34 #
cone-surface $-1 0 0 -0.79800000000000004 0 0 1 -1.9950000000000001 0 0 1 I I 0 1 0 I I I I #
coedge $-1 $54 $54 $72 $73 0 $36 $-1 #
coedge $-1 $55 $55 $37 $56 1 $65 $-1 #
edge $-1 $74 $74 $55 $75 0 #
coedge $-1 $57 $57 $38 $58 1 $76 $-1 #
edge $-1 $77 $77 $38 $78 0 #
loop $-1 $-1 $39 $79 #
vertex $-1 $40 $80 #
ellipse-curve $-1 0 0 -0.76000000000000001 0 0 1 1.927 0 0 1 I I #
vertex $-1 $42 $81 #
ellipse-curve $-1 0 0 -0.625 0 0 -1 1.4684999999999999 0 0 1 I I #
point $-1 1.9950000000000001 0 -0.625 #
loop $-1 $-1 $55 $66 #
face $-1 $-1 $46 $3 $-1 $82 reversed single #
point $-1 1.345 -9.392090241384237e-015 -0.040999999999999925 #
face $-1 $79 $76 $3 $-1 $83 forward single #
loop $-1 $84 $85 $51 #
torus-surface $-1 0 0 -0.72499999999999998 0 0 1 1.9950000000000001 0.025000000000000001 1 0 0 0 I I I I #
coedge $-1 $71 $71 $86 $87 0 $52 $-1 #
coedge $-1 $72 $72 $54 $73 1 $88 $-1 #
edge $-1 $89 $89 $54 $90 0 #
vertex $-1 $56 $91 #
ellipse-curve $-1 0 0 -0.73999999999999999 0 0 1 1.345 0 0 1 I I #
loop $-1 $92 $57 $68 #
vertex $-1 $58 $93 #
ellipse-curve $-1 0 0 -0.76000000000000001 0 0 -1 1.9950000000000001 0 0 1 I I #
face $-1 $66 $88 $3 $-1 $94 reversed single #
point $-1 1.927 0 -0.76000000000000001 #
point $-1 -1.4684999999999999 0 -0.625 #
cone-surface $-1 0 0 -0.79800000000000004 0 0 1 -1.345 0 0 1 I I 0 1 0 I I I I #
cone-surface $-1 0 0 -0.79800000000000004 0 0 1 -1.9950000000000001 0 0 1 I I 0 1 0 I I I I #
loop $-1 $-1 $86 $51 #
coedge $-1 $85 $85 $95 $96 0 $69 $-1 #
coedge $-1 $86 $86 $71 $87 1 $84 $-1 #
edge $-1 $97 $97 $86 $98 0 #
loop $-1 $59 $72 $79 #
vertex $-1 $73 $99 #
ellipse-curve $-1 0 0 -0.73999999999999899 0 0 -1 1.8923589838486199 0 0 1 I I #
point $-1 1.345 0 -0.73999999999999999 #
loop $-1 $-1 $95 $68 #
point $-1 -1.9950000000000001 0 -0.76000000000000001 #
cone-surface $-1 0 0 -0.76000000000000001 0 0 -1 1.927 0 0 1 I I 0.86602540378443704 0.500000000000003 0 I I I I #
coedge $-1 $95 $95 $85 $96 1 $92 $-1 #
edge $-1 $100 $100 $95 $101 0 #
vertex $-1 $87 $102 #
ellipse-curve $-1 0 0 -0.69999999999999996 0 0 1 1.9950000000000001 0 0 1 I I #
point $-1 -1.8923589838486199 0 -0.73999999999999899 #
vertex $-1 $96 $103 #
ellipse-curve $-1 0 0 -0.75 0 0 1 1.9950000000000001 0 0 1 I I #
point $-1 -1.9950000000000001 0 -0.69999999999999996 #
point $-1 -1.9950000000000001 0 -0.75 #
End-of-ACIS-data 