600 0 1 0           
62 GICL ACIS Healer - Source: bellows_attach_ring_21_v2.sat - 6 0 18 ACIS 6.0.3 Solaris 24 Fri Mar 29 22:10:25 2002 
1 9.999999999999999547e-07 1.000000000000000036e-10 
body $1 $2 $-1 $-1 #
aggregate_advspl_attribute-aggregate_geombuild_base_attribute-aggregate_body_attribute-attrib_HH-attrib $-1 $3 $-1 $0 F #
lump $-1 $-1 $4 $0 #
aggregate_secndry_attribute-aggregate_geombuild_base_attribute-aggregate_body_attribute-attrib_HH-attrib $-1 $5 $1 $0 F #
shell $-1 $-1 $-1 $6 $-1 $2 #
aggregate_sharped_attribute-aggregate_geombuild_base_attribute-aggregate_body_attribute-attrib_HH-attrib $-1 $7 $3 $0 F #
face $8 $9 $10 $4 $-1 $11 forward single #
aggregate_reblend_attribute-aggregate_geombuild_base_attribute-aggregate_body_attribute-attrib_HH-attrib $-1 $12 $5 $0 F #
attrib_hh_face_geombuild-attrib_entity_geombuild-individual_entity_attribute-attrib_HH-attrib $-1 $-1 $-1 $6 F #
face $13 $14 $15 $4 $-1 $16 forward single #
loop $-1 $17 $18 $6 #
plane-surface $-1 0 -0.001000000000000000021 -3.927000000000000046 0 0 -1 0.999999999999999889 0 0 forward_v I I I I #
aggregate_isospline_attribute-aggregate_geombuild_base_attribute-aggregate_body_attribute-attrib_HH-attrib $-1 $19 $7 $0 F #
attrib_hh_face_geombuild-attrib_entity_geombuild-individual_entity_attribute-attrib_HH-attrib $-1 $-1 $-1 $9 F #
face $20 $21 $22 $4 $-1 $23 reversed single #
loop $-1 $24 $25 $9 #
plane-surface $-1 0 -0.001000000000000000021 -3.342999999999999972 0 0 -1 0.999999999999999889 0 0 forward_v I I I I #
loop $-1 $-1 $26 $6 #
coedge $27 $18 $18 $28 $29 reversed $10 $-1 #
aggregate_analytic_solver_attribute-aggregate_geombuild_base_attribute-aggregate_body_attribute-attrib_HH-attrib $-1 $30 $12 $0 F #
attrib_hh_face_geombuild-attrib_entity_geombuild-individual_entity_attribute-attrib_HH-attrib $-1 $-1 $-1 $14 F #
face $31 $32 $33 $4 $-1 $34 reversed single #
loop $-1 $35 $36 $14 #
plane-surface $-1 0 -0.001000000000000000021 -3.208000000000000185 0 0 -1 0.999999999999999889 0 0 forward_v I I I I #
loop $-1 $-1 $37 $9 #
coedge $38 $25 $25 $39 $40 forward $15 $-1 #
coedge $41 $26 $26 $42 $43 reversed $17 $-1 #
attrib_hh_coedge_geombuild-attrib_entity_geombuild-individual_entity_attribute-attrib_HH-attrib $-1 $-1 $-1 $18 F #
coedge $44 $28 $28 $18 $29 forward $45 $-1 #
edge $46 $47 -3.141592653589799777 $47 3.141592653589786455 $28 $48 forward 7 unknown #
aggregate_geombuild_attribute-aggregate_geombuild_base_attribute-aggregate_body_attribute-attrib_HH-attrib $-1 $49 $19 $0 #
attrib_hh_face_geombuild-attrib_entity_geombuild-individual_entity_attribute-attrib_HH-attrib $-1 $-1 $-1 $21 F #
face $50 $51 $45 $4 $-1 $52 forward single #
loop $-1 $53 $54 $21 #
plane-surface $-1 0 -0.001000000000000000021 -3.228000000000000203 0 0 -1 0.999999999999999889 0 0 forward_v I I I I #
loop $-1 $-1 $55 $14 #
coedge $56 $36 $36 $57 $58 forward $22 $-1 #
coedge $59 $37 $37 $60 $61 forward $24 $-1 #
attrib_hh_coedge_geombuild-attrib_entity_geombuild-individual_entity_attribute-attrib_HH-attrib $-1 $-1 $-1 $25 F #
coedge $62 $39 $39 $25 $40 reversed $63 $-1 #
edge $64 $65 0 $65 6.283185307179586232 $39 $66 forward 7 unknown #
attrib_hh_coedge_geombuild-attrib_entity_geombuild-individual_entity_attribute-attrib_HH-attrib $-1 $-1 $-1 $26 F #
coedge $67 $42 $42 $26 $43 forward $68 $-1 #
edge $69 $70 -3.141592653589799777 $70 3.141592653589786455 $42 $71 forward 7 unknown #
attrib_hh_coedge_geombuild-attrib_entity_geombuild-individual_entity_attribute-attrib_HH-attrib $-1 $-1 $-1 $28 F #
loop $-1 $72 $28 $32 #
attrib_hh_edge_geombuild-attrib_entity_geombuild-individual_entity_attribute-attrib_HH-attrib $-1 $-1 $-1 $29 F #
vertex $73 $29 $74 #
ellipse-curve $-1 0 -0.001000000000000000021 -3.927000000000000046 0 0 1 -1.468499999999999694 0 0 1 I I #
aggregate_stitch_attribute-aggregate_stitch_base_attribute-aggregate_body_attribute-attrib_HH-attrib $-1 $75 $30 $0 F #
attrib_hh_face_geombuild-attrib_entity_geombuild-individual_entity_attribute-attrib_HH-attrib $-1 $-1 $-1 $32 F #
face $76 $77 $78 $4 $-1 $79 forward single #
cone-surface $-1 0 -0.001000000000000000021 -3.169999999999999929 0 0 -1 -1.468499999999999694 0 0 1 I I 0 1 1.468499999999999694 forward I I I I #
loop $-1 $-1 $80 $21 #
coedge $81 $54 $54 $82 $83 forward $33 $-1 #
coedge $84 $55 $55 $85 $86 forward $35 $-1 #
attrib_hh_coedge_geombuild-attrib_entity_geombuild-individual_entity_attribute-attrib_HH-attrib $-1 $-1 $-1 $36 F #
coedge $87 $57 $57 $36 $58 reversed $88 $-1 #
edge $89 $90 0 $90 6.283185307179586232 $57 $91 forward 7 unknown #
attrib_hh_coedge_geombuild-attrib_entity_geombuild-individual_entity_attribute-attrib_HH-attrib $-1 $-1 $-1 $37 F #
coedge $92 $60 $60 $37 $61 reversed $72 $-1 #
edge $93 $94 -3.141592653589793116 $94 3.141592653589793116 $37 $95 forward 7 unknown #
attrib_hh_coedge_geombuild-attrib_entity_geombuild-individual_entity_attribute-attrib_HH-attrib $-1 $-1 $-1 $39 F #
loop $-1 $-1 $39 $51 #
attrib_hh_edge_geombuild-attrib_entity_geombuild-individual_entity_attribute-attrib_HH-attrib $-1 $-1 $-1 $40 F #
vertex $96 $40 $97 #
ellipse-curve $-1 0 -0.001000000000000000021 -3.342999999999999972 0 0 -1 1.994999999999999885 0 0 1 I I #
attrib_hh_coedge_geombuild-attrib_entity_geombuild-individual_entity_attribute-attrib_HH-attrib $-1 $-1 $-1 $42 F #
loop $-1 $98 $42 $99 #
attrib_hh_edge_geombuild-attrib_entity_geombuild-individual_entity_attribute-attrib_HH-attrib $-1 $-1 $-1 $43 F #
vertex $100 $43 $101 #
ellipse-curve $-1 0 -0.001000000000000000021 -3.927000000000000046 0 0 -1 -1.344999999999999751 0 0 1 I I #
loop $-1 $-1 $60 $32 #
attrib_hh_vertex_geombuild-attrib_entity_geombuild-individual_entity_attribute-attrib_HH-attrib $-1 $-1 $-1 $47 F #
point $-1 1.468499999999999694 -0.001000000000010254405 -3.927000000000000046 #
aggregate_simgeom_attribute-aggregate_simgeom_base_attribute-aggregate_body_attribute-attrib_HH-attrib $-1 $-1 $49 $0 F #
attrib_hh_face_geombuild-attrib_entity_geombuild-individual_entity_attribute-attrib_HH-attrib $-1 $-1 $-1 $51 F #
face $102 $103 $104 $4 $-1 $105 reversed single #
loop $-1 $63 $106 $51 #
cone-surface $-1 0 -0.001000000000000000021 -3.169999999999999929 0 0 -1 -1.994999999999999885 0 0 1 I I 0 1 1.994999999999999885 forward I I I I #
coedge $107 $80 $80 $108 $109 forward $53 $-1 #
attrib_hh_coedge_geombuild-attrib_entity_geombuild-individual_entity_attribute-attrib_HH-attrib $-1 $-1 $-1 $54 F #
coedge $110 $82 $82 $54 $83 reversed $98 $-1 #
edge $111 $112 0 $112 6.283185307179586232 $82 $113 forward 7 unknown #
attrib_hh_coedge_geombuild-attrib_entity_geombuild-individual_entity_attribute-attrib_HH-attrib $-1 $-1 $-1 $55 F #
coedge $114 $85 $85 $55 $86 reversed $115 $-1 #
edge $116 $117 -3.141592653589793116 $117 3.141592653589793116 $55 $118 forward 7 unknown #
attrib_hh_coedge_geombuild-attrib_entity_geombuild-individual_entity_attribute-attrib_HH-attrib $-1 $-1 $-1 $57 F #
loop $-1 $-1 $57 $119 #
attrib_hh_edge_geombuild-attrib_entity_geombuild-individual_entity_attribute-attrib_HH-attrib $-1 $-1 $-1 $58 F #
vertex $120 $58 $121 #
ellipse-curve $-1 0 -0.001000000000000000021 -3.208000000000000185 0 0 -1 1.926999999999999824 0 0 1 I I #
attrib_hh_coedge_geombuild-attrib_entity_geombuild-individual_entity_attribute-attrib_HH-attrib $-1 $-1 $-1 $60 F #
attrib_hh_edge_geombuild-attrib_entity_geombuild-individual_entity_attribute-attrib_HH-attrib $-1 $-1 $-1 $61 F #
vertex $122 $61 $123 #
ellipse-curve $-1 0 -0.001000000000000000021 -3.342999999999999972 0 0 1 1.468499999999999694 0 0 1 I I #
attrib_hh_vertex_geombuild-attrib_entity_geombuild-individual_entity_attribute-attrib_HH-attrib $-1 $-1 $-1 $65 F #
point $-1 1.994999999999999885 -0.001000000000000000021 -3.342999999999999972 #
loop $-1 $-1 $82 $99 #
face $124 $-1 $68 $4 $-1 $125 reversed single #
attrib_hh_vertex_geombuild-attrib_entity_geombuild-individual_entity_attribute-attrib_HH-attrib $-1 $-1 $-1 $70 F #
point $-1 1.344999999999999751 -0.0009999999999906080111 -3.927000000000000046 #
attrib_hh_face_geombuild-attrib_entity_geombuild-individual_entity_attribute-attrib_HH-attrib $-1 $-1 $-1 $77 F #
face $126 $119 $115 $4 $-1 $127 forward single #
loop $-1 $128 $129 $77 #
torus-surface $-1 0 -0.001000000000000000021 -3.243000000000000327 0 0 -1 1.994999999999999885 0.02499999999999999792 1 0 0 forward_v I I I I #
coedge $130 $106 $106 $131 $132 forward $78 $-1 #
attrib_hh_coedge_geombuild-attrib_entity_geombuild-individual_entity_attribute-attrib_HH-attrib $-1 $-1 $-1 $80 F #
coedge $133 $108 $108 $80 $109 reversed $134 $-1 #
edge $135 $136 -3.141592653589793116 $136 3.141592653589793116 $80 $137 forward 7 unknown #
attrib_hh_coedge_geombuild-attrib_entity_geombuild-individual_entity_attribute-attrib_HH-attrib $-1 $-1 $-1 $82 F #
attrib_hh_edge_geombuild-attrib_entity_geombuild-individual_entity_attribute-attrib_HH-attrib $-1 $-1 $-1 $83 F #
vertex $138 $83 $139 #
ellipse-curve $-1 0 -0.001000000000000000021 -3.228000000000000203 0 0 -1 1.344999999999999751 0 0 1 I I #
attrib_hh_coedge_geombuild-attrib_entity_geombuild-individual_entity_attribute-attrib_HH-attrib $-1 $-1 $-1 $85 F #
loop $-1 $140 $85 $103 #
attrib_hh_edge_geombuild-attrib_entity_geombuild-individual_entity_attribute-attrib_HH-attrib $-1 $-1 $-1 $86 F #
vertex $141 $86 $142 #
ellipse-curve $-1 0 -0.001000000000000000021 -3.208000000000000185 0 0 1 1.994999999999999885 0 0 1 I I #
face $143 $99 $134 $4 $-1 $144 reversed single #
attrib_hh_vertex_geombuild-attrib_entity_geombuild-individual_entity_attribute-attrib_HH-attrib $-1 $-1 $-1 $90 F #
point $-1 1.926999999999999824 -0.001000000000000000021 -3.208000000000000185 #
attrib_hh_vertex_geombuild-attrib_entity_geombuild-individual_entity_attribute-attrib_HH-attrib $-1 $-1 $-1 $94 F #
point $-1 -1.468499999999999694 -0.001000000000000000021 -3.342999999999999972 #
attrib_hh_face_geombuild-attrib_entity_geombuild-individual_entity_attribute-attrib_HH-attrib $-1 $-1 $-1 $99 F #
cone-surface $-1 0 -0.001000000000000000021 -3.169999999999999929 0 0 -1 -1.344999999999999751 0 0 1 I I 0 1 1.344999999999999751 forward I I I I #
attrib_hh_face_geombuild-attrib_entity_geombuild-individual_entity_attribute-attrib_HH-attrib $-1 $-1 $-1 $103 F #
cone-surface $-1 0 -0.001000000000000000021 -3.169999999999999929 0 0 -1 -1.994999999999999885 0 0 1 I I 0 1 1.994999999999999885 forward I I I I #
loop $-1 $-1 $131 $77 #
coedge $145 $129 $129 $146 $147 forward $104 $-1 #
attrib_hh_coedge_geombuild-attrib_entity_geombuild-individual_entity_attribute-attrib_HH-attrib $-1 $-1 $-1 $106 F #
coedge $148 $131 $131 $106 $132 reversed $128 $-1 #
edge $149 $150 -3.141592653589793116 $150 3.141592653589793116 $131 $151 forward 7 unknown #
attrib_hh_coedge_geombuild-attrib_entity_geombuild-individual_entity_attribute-attrib_HH-attrib $-1 $-1 $-1 $108 F #
loop $-1 $88 $108 $119 #
attrib_hh_edge_geombuild-attrib_entity_geombuild-individual_entity_attribute-attrib_HH-attrib $-1 $-1 $-1 $109 F #
vertex $152 $109 $153 #
ellipse-curve $-1 0 -0.001000000000000000021 -3.228000000000001091 0 0 1 1.892358983848619669 0 0 1 I I #
attrib_hh_vertex_geombuild-attrib_entity_geombuild-individual_entity_attribute-attrib_HH-attrib $-1 $-1 $-1 $112 F #
point $-1 1.344999999999999751 -0.001000000000000000021 -3.228000000000000203 #
loop $-1 $-1 $146 $103 #
attrib_hh_vertex_geombuild-attrib_entity_geombuild-individual_entity_attribute-attrib_HH-attrib $-1 $-1 $-1 $117 F #
point $-1 -1.994999999999999885 -0.001000000000000000021 -3.208000000000000185 #
attrib_hh_face_geombuild-attrib_entity_geombuild-individual_entity_attribute-attrib_HH-attrib $-1 $-1 $-1 $119 F #
cone-surface $-1 0 -0.001000000000000000021 -3.208000000000000185 0 0 1 1.926999999999999824 0 0 1 I I 0.8660254037844370423 0.5000000000000029976 1.926999999999999824 forward I I I I #
attrib_hh_coedge_geombuild-attrib_entity_geombuild-individual_entity_attribute-attrib_HH-attrib $-1 $-1 $-1 $129 F #
coedge $154 $146 $146 $129 $147 reversed $140 $-1 #
edge $155 $156 -3.141592653589793116 $156 3.141592653589793116 $146 $157 forward 7 unknown #
attrib_hh_coedge_geombuild-attrib_entity_geombuild-individual_entity_attribute-attrib_HH-attrib $-1 $-1 $-1 $131 F #
attrib_hh_edge_geombuild-attrib_entity_geombuild-individual_entity_attribute-attrib_HH-attrib $-1 $-1 $-1 $132 F #
vertex $158 $132 $159 #
ellipse-curve $-1 0 -0.001000000000000000021 -3.268000000000000238 0 0 -1 1.994999999999999885 0 0 1 I I #
attrib_hh_vertex_geombuild-attrib_entity_geombuild-individual_entity_attribute-attrib_HH-attrib $-1 $-1 $-1 $136 F #
point $-1 -1.892358983848619669 -0.001000000000000000021 -3.228000000000001091 #
attrib_hh_coedge_geombuild-attrib_entity_geombuild-individual_entity_attribute-attrib_HH-attrib $-1 $-1 $-1 $146 F #
attrib_hh_edge_geombuild-attrib_entity_geombuild-individual_entity_attribute-attrib_HH-attrib $-1 $-1 $-1 $147 F #
vertex $160 $147 $161 #
ellipse-curve $-1 0 -0.001000000000000000021 -3.217999999999999972 0 0 -1 1.994999999999999885 0 0 1 I I #
attrib_hh_vertex_geombuild-attrib_entity_geombuild-individual_entity_attribute-attrib_HH-attrib $-1 $-1 $-1 $150 F #
point $-1 -1.994999999999999885 -0.001000000000000000021 -3.268000000000000238 #
attrib_hh_vertex_geombuild-attrib_entity_geombuild-individual_entity_attribute-attrib_HH-attrib $-1 $-1 $-1 $156 F #
point $-1 -1.994999999999999885 -0.001000000000000000021 -3.217999999999999972 #
End-of-ACIS-data 