600 0 1 0           
127 GICL Pro/E ACIS Translator - Source: f:/data5/repository/NIST/Manfred_Osti/spectrometer/linkage_arm_43/linkage_arm_43.prt - 6 0 13 ACIS 6.0.3 NT 24 Thu Apr 04 13:52:48 2002 
1 9.9999999999999995e-007 1e-010 
body $-1 $1 $-1 $2 #
lump $-1 $-1 $3 $0 #
transform $-1 1 0 0 0 1 0 0 0 1 0 0 0 25.399999999999999 no_rotate no_reflect no_shear #
shell $-1 $-1 $-1 $4 $-1 $1 #
face $-1 $5 $6 $3 $-1 $7 reversed single #
face $-1 $8 $9 $3 $-1 $10 reversed single #
loop $-1 $11 $12 $4 #
plane-surface $-1 0 0 0 0 0 1 1 0 0 forward_v I I I I #
face $-1 $13 $14 $3 $-1 $15 reversed single #
loop $-1 $-1 $16 $5 #
cone-surface $-1 -4.25 0 0 0 0 1 0.4375 0 0 1 I I 0 1 0.4375 forward I I I I #
loop $-1 $17 $18 $4 #
coedge $-1 $19 $19 $20 $21 reversed $6 $-1 #
face $-1 $22 $23 $3 $-1 $24 forward single #
loop $-1 $-1 $25 $8 #
cone-surface $-1 -4.25 0 0 0 0 1 0.4375 0 0 1 I I 0 1 0.4375 forward I I I I #
coedge $-1 $26 $20 $27 $28 forward $9 $-1 #
loop $-1 $29 $30 $4 #
coedge $-1 $31 $31 $32 $33 reversed $11 $-1 #
coedge $-1 $12 $12 $34 $35 reversed $6 $-1 #
coedge $-1 $16 $36 $12 $21 forward $9 $-1 #
edge $-1 $37 0 $38 3.1415926535897931 $12 $39 forward 7 unknown #
face $-1 $40 $41 $3 $-1 $42 reversed single #
loop $-1 $43 $44 $13 #
plane-surface $-1 0 0 0.5 0 0 1 1 0 0 forward_v I I I I #
coedge $-1 $45 $34 $36 $46 forward $14 $-1 #
coedge $-1 $36 $16 $44 $47 reversed $9 $-1 #
coedge $-1 $34 $45 $16 $28 reversed $14 $-1 #
edge $-1 $38 0 $48 0.5 $27 $49 forward 7 unknown #
loop $-1 $50 $51 $4 #
coedge $-1 $52 $52 $53 $54 reversed $17 $-1 #
coedge $-1 $18 $18 $55 $56 reversed $11 $-1 #
coedge $-1 $57 $58 $18 $33 forward $41 $-1 #
edge $-1 $59 0 $60 3.1415926535897931 $18 $61 forward 7 unknown #
coedge $-1 $25 $27 $19 $35 forward $14 $-1 #
edge $-1 $38 0 $37 3.1415926535897931 $19 $62 forward 7 unknown #
coedge $-1 $20 $26 $25 $46 reversed $9 $-1 #
vertex $-1 $35 $63 #
vertex $-1 $35 $64 #
ellipse-curve $-1 -4.25 0 0 0 0 -1 -0.4375 0 0 1 I I #
face $-1 $65 $66 $3 $-1 $67 reversed single #
loop $-1 $-1 $57 $22 #
cone-surface $-1 0 0 0 0 0 1 0.2185 0 0 1 I I 0 1 0.2185 forward I I I I #
loop $-1 $68 $69 $13 #
coedge $-1 $70 $70 $26 $47 forward $23 $-1 #
coedge $-1 $27 $25 $70 $71 reversed $14 $-1 #
edge $-1 $37 0 $72 0.5 $25 $73 forward 7 unknown #
edge $-1 $72 0 $48 3.1415926535897931 $44 $74 forward 7 unknown #
vertex $-1 $71 $75 #
straight-curve $-1 -3.8125 0 0 0 -2.1430611191891602e-016 1 I I #
loop $-1 $76 $77 $4 #
coedge $-1 $78 $78 $79 $80 reversed $29 $-1 #
coedge $-1 $30 $30 $81 $82 reversed $17 $-1 #
coedge $-1 $83 $84 $30 $54 forward $85 $-1 #
edge $-1 $86 0 $87 3.1415926535897931 $30 $88 forward 7 unknown #
coedge $-1 $89 $90 $31 $56 forward $66 $-1 #
edge $-1 $60 0 $59 3.1415926535897931 $31 $91 forward 7 unknown #
coedge $-1 $92 $32 $90 $93 forward $41 $-1 #
coedge $-1 $32 $92 $89 $94 reversed $41 $-1 #
vertex $-1 $56 $95 #
vertex $-1 $56 $96 #
ellipse-curve $-1 0 0 0 0 0 -1 -0.2185 0 0 1 I I #
ellipse-curve $-1 -4.25 0 0 0 0 -1 0.4375 0 0 1 I I #
point $-1 -4.6875 0 0 #
point $-1 -3.8125 0 0 #
face $-1 $97 $85 $3 $-1 $98 reversed single #
loop $-1 $-1 $89 $40 #
cone-surface $-1 0 0 0 0 0 1 0.2185 0 0 1 I I 0 1 0.2185 forward I I I I #
loop $-1 $99 $100 $13 #
coedge $-1 $101 $101 $92 $102 forward $43 $-1 #
coedge $-1 $44 $44 $45 $71 forward $23 $-1 #
edge $-1 $48 0 $72 3.1415926535897931 $70 $103 forward 7 unknown #
vertex $-1 $71 $104 #
straight-curve $-1 -4.6875 5.3576527979729005e-017 0 0 0 1 I I #
ellipse-curve $-1 -4.25 -2.7755575615628914e-017 0.5 0 0 -1 -0.4375 2.7755575615628914e-017 0 1 I I #
point $-1 -3.8125 0 0.5 #
loop $-1 $105 $106 $4 #
coedge $-1 $107 $107 $108 $109 reversed $50 $-1 #
coedge $-1 $51 $51 $110 $111 reversed $29 $-1 #
coedge $-1 $112 $113 $51 $80 forward $114 $-1 #
edge $-1 $115 0 $116 3.1415926535897931 $51 $117 forward 7 unknown #
coedge $-1 $118 $119 $52 $82 forward $120 $-1 #
edge $-1 $87 0 $86 3.1415926535897931 $52 $121 forward 7 unknown #
coedge $-1 $122 $53 $119 $123 forward $85 $-1 #
coedge $-1 $53 $122 $118 $124 reversed $85 $-1 #
loop $-1 $-1 $83 $65 #
vertex $-1 $82 $125 #
vertex $-1 $82 $126 #
ellipse-curve $-1 1.4100000000000001 0 0 0 0 -1 -0.0625 0 0 1 I I #
coedge $-1 $127 $55 $58 $94 forward $66 $-1 #
coedge $-1 $55 $127 $57 $93 reversed $66 $-1 #
ellipse-curve $-1 0 0 0 0 0 -1 0.2185 0 0 1 I I #
coedge $-1 $58 $57 $69 $102 reversed $41 $-1 #
edge $-1 $60 0 $128 0.5 $90 $129 forward 7 unknown #
edge $-1 $59 0 $130 0.5 $89 $131 forward 7 unknown #
point $-1 -0.2185 0 0 #
point $-1 0.2185 0 0 #
face $-1 $132 $120 $3 $-1 $133 reversed single #
cone-surface $-1 1.4100000000000001 0 0 0 0 1 0.0625 0 0 1 I I 0 1 0.0625 forward I I I I #
loop $-1 $134 $135 $13 #
coedge $-1 $136 $136 $122 $137 forward $68 $-1 #
coedge $-1 $69 $69 $127 $138 forward $43 $-1 #
edge $-1 $130 0 $128 3.1415926535897931 $69 $139 forward 7 unknown #
ellipse-curve $-1 -4.25 2.7755575615628914e-017 0.5 0 0 -1 0.4375 -2.7755575615628914e-017 0 1 I I #
point $-1 -4.6875 0 0.5 #
loop $-1 $140 $141 $4 #
coedge $-1 $142 $142 $143 $144 reversed $76 $-1 #
coedge $-1 $77 $77 $145 $146 reversed $50 $-1 #
coedge $-1 $147 $148 $77 $109 forward $149 $-1 #
edge $-1 $150 0 $151 3.1415926535897931 $77 $152 forward 7 unknown #
coedge $-1 $153 $154 $78 $111 forward $155 $-1 #
edge $-1 $116 0 $115 3.1415926535897931 $78 $156 forward 7 unknown #
coedge $-1 $157 $79 $154 $158 forward $114 $-1 #
coedge $-1 $79 $157 $153 $159 reversed $114 $-1 #
loop $-1 $-1 $112 $132 #
vertex $-1 $111 $160 #
vertex $-1 $111 $161 #
ellipse-curve $-1 2.25 0 0 0 0 -1 -0.0625 0 0 1 I I #
coedge $-1 $162 $81 $84 $124 forward $120 $-1 #
coedge $-1 $81 $162 $83 $123 reversed $120 $-1 #
loop $-1 $-1 $118 $97 #
ellipse-curve $-1 1.4100000000000001 0 0 0 0 -1 0.0625 0 0 1 I I #
coedge $-1 $84 $83 $100 $137 reversed $85 $-1 #
edge $-1 $87 0 $163 0.5 $119 $164 forward 7 unknown #
edge $-1 $86 0 $165 0.5 $118 $166 forward 7 unknown #
point $-1 1.3475000000000001 0 0 #
point $-1 1.4725000000000001 0 0 #
coedge $-1 $90 $89 $101 $138 reversed $66 $-1 #
vertex $-1 $138 $167 #
straight-curve $-1 0.2185 0 0 0 -1.0703059532407577e-016 1 I I #
vertex $-1 $138 $168 #
straight-curve $-1 -0.2185 2.6757648831018943e-017 0 0 0 1 I I #
face $-1 $169 $114 $3 $-1 $170 reversed single #
cone-surface $-1 1.4100000000000001 0 0 0 0 1 0.0625 0 0 1 I I 0 1 0.0625 forward I I I I #
loop $-1 $171 $172 $13 #
coedge $-1 $173 $173 $157 $174 forward $99 $-1 #
coedge $-1 $100 $100 $162 $175 forward $68 $-1 #
edge $-1 $165 0 $163 3.1415926535897931 $100 $176 forward 7 unknown #
edge $-1 $128 0 $130 3.1415926535897931 $101 $177 forward 7 unknown #
ellipse-curve $-1 -6.9388939039072284e-018 -6.9388939039072284e-018 0.5 0 0 -1 -0.2185 6.9388939039072284e-018 0 1 I I #
loop $-1 $178 $179 $4 #
coedge $-1 $180 $180 $181 $182 reversed $105 $-1 #
coedge $-1 $106 $106 $183 $184 reversed $76 $-1 #
coedge $-1 $185 $186 $106 $144 forward $187 $-1 #
edge $-1 $188 0 $189 3.1415926535897931 $106 $190 forward 7 unknown #
coedge $-1 $191 $192 $107 $146 forward $193 $-1 #
edge $-1 $151 0 $150 3.1415926535897931 $107 $194 forward 7 unknown #
coedge $-1 $195 $108 $192 $196 forward $149 $-1 #
coedge $-1 $108 $195 $191 $197 reversed $149 $-1 #
loop $-1 $-1 $148 $198 #
vertex $-1 $146 $199 #
vertex $-1 $146 $200 #
ellipse-curve $-1 2.6600000000000001 0 0 0 0 -1 -0.12849999999999984 0 0 1 I I #
coedge $-1 $201 $110 $113 $159 forward $155 $-1 #
coedge $-1 $110 $201 $112 $158 reversed $155 $-1 #
loop $-1 $-1 $153 $169 #
ellipse-curve $-1 2.25 0 0 0 0 -1 0.0625 0 0 1 I I #
coedge $-1 $113 $112 $135 $174 reversed $114 $-1 #
edge $-1 $116 0 $202 0.5 $154 $203 forward 7 unknown #
edge $-1 $115 0 $204 0.5 $153 $205 forward 7 unknown #
point $-1 2.1875 0 0 #
point $-1 2.3125 0 0 #
coedge $-1 $119 $118 $136 $175 reversed $120 $-1 #
vertex $-1 $175 $206 #
straight-curve $-1 1.4725000000000001 0 0 0 -3.0615158845559431e-017 1 I I #
vertex $-1 $175 $207 #
straight-curve $-1 1.3475000000000001 7.6537897113898579e-018 0 0 0 1 I I #
point $-1 0.2185 0 0.5 #
point $-1 -0.2185 0 0.5 #
face $-1 $208 $155 $3 $-1 $209 reversed single #
cone-surface $-1 2.25 0 0 0 0 1 0.0625 0 0 1 I I 0 1 0.0625 forward I I I I #
loop $-1 $210 $211 $13 #
coedge $-1 $212 $212 $213 $214 forward $134 $-1 #
coedge $-1 $135 $135 $201 $215 forward $99 $-1 #
edge $-1 $204 0 $202 3.1415926535897944 $135 $216 forward 7 unknown #
edge $-1 $163 0 $165 3.1415926535897931 $136 $217 forward 7 unknown #
ellipse-curve $-1 1.4100000000000001 -6.9388939039072284e-018 0.5 0 0 -1 -0.0625 6.9388939039072284e-018 0 1 I I #
ellipse-curve $-1 0 2.0816681711721685e-017 0.5 0 0 -1 0.2185 -2.0816681711721685e-017 0 1 I I #
loop $-1 $218 $219 $4 #
coedge $-1 $220 $220 $221 $222 reversed $140 $-1 #
coedge $-1 $141 $141 $223 $224 reversed $105 $-1 #
coedge $-1 $225 $226 $141 $182 forward $227 $-1 #
edge $-1 $228 0 $229 3.1415926535897931 $141 $230 forward 7 unknown #
coedge $-1 $231 $232 $142 $184 forward $233 $-1 #
edge $-1 $189 0 $188 3.1415926535897931 $142 $234 forward 7 unknown #
coedge $-1 $235 $143 $232 $236 forward $187 $-1 #
coedge $-1 $143 $235 $231 $237 reversed $187 $-1 #
loop $-1 $-1 $186 $238 #
vertex $-1 $184 $239 #
vertex $-1 $184 $240 #
ellipse-curve $-1 1.4100000000000001 0.40600000000000003 0 0 0 -1 -0.12850000000000006 0 0 1 I I #
coedge $-1 $241 $145 $148 $197 forward $193 $-1 #
coedge $-1 $145 $241 $147 $196 reversed $193 $-1 #
loop $-1 $-1 $192 $242 #
ellipse-curve $-1 2.6600000000000001 0 0 0 0 -1 0.12849999999999984 0 0 1 I I #
coedge $-1 $148 $147 $243 $244 forward $149 $-1 #
edge $-1 $151 0 $245 0.25 $192 $246 forward 7 unknown #
edge $-1 $150 0 $247 0.25 $191 $248 forward 7 unknown #
face $-1 $242 $149 $3 $-1 $249 reversed single #
point $-1 2.5315000000000003 0 0 #
point $-1 2.7885 0 0 #
coedge $-1 $154 $153 $173 $215 reversed $155 $-1 #
vertex $-1 $215 $250 #
straight-curve $-1 2.3125 0 0 0 -3.0615158845559431e-017 1 I I #
vertex $-1 $215 $251 #
straight-curve $-1 2.1875 7.6537897113898579e-018 0 0 0 1 I I #
point $-1 1.4725000000000001 0 0.5 #
point $-1 1.3475000000000001 0 0.5 #
face $-1 $252 $253 $3 $-1 $254 reversed single #
cone-surface $-1 2.25 0 0 0 0 1 0.0625 0 0 1 I I 0 1 0.0625 forward I I I I #
loop $-1 $255 $256 $13 #
coedge $-1 $257 $257 $258 $259 forward $171 $-1 #
coedge $-1 $172 $172 $260 $261 forward $134 $-1 #
coedge $-1 $262 $263 $172 $214 reversed $253 $-1 #
edge $-1 $264 0 $265 3.1415926535897931 $172 $266 forward 7 unknown #
edge $-1 $202 0 $204 3.1415926535897944 $173 $267 forward 7 unknown #
ellipse-curve $-1 2.25 5.2041704279304213e-017 0.5 0 0 -1 -0.0625 -5.2041704279304213e-017 0 1 I I #
ellipse-curve $-1 1.4100000000000001 6.9388939039072284e-018 0.5 0 0 -1 0.0625 -6.9388939039072284e-018 0 1 I I #
loop $-1 $268 $269 $4 #
coedge $-1 $270 $270 $271 $272 reversed $178 $-1 #
coedge $-1 $179 $179 $273 $274 reversed $140 $-1 #
coedge $-1 $263 $262 $179 $222 forward $253 $-1 #
edge $-1 $275 0 $276 3.1415926535897931 $179 $277 forward 7 unknown #
coedge $-1 $278 $279 $180 $224 forward $280 $-1 #
edge $-1 $229 0 $228 3.1415926535897931 $180 $281 forward 7 unknown #
coedge $-1 $282 $181 $279 $283 forward $227 $-1 #
coedge $-1 $181 $282 $278 $284 reversed $227 $-1 #
loop $-1 $-1 $226 $285 #
vertex $-1 $224 $286 #
vertex $-1 $224 $287 #
ellipse-curve $-1 1.4100000000000001 -0.40600000000000003 0 0 0 -1 -0.12850000000000006 0 0 1 I I #
coedge $-1 $288 $183 $186 $237 forward $233 $-1 #
coedge $-1 $183 $288 $185 $236 reversed $233 $-1 #
loop $-1 $-1 $232 $289 #
ellipse-curve $-1 1.4100000000000001 0.40600000000000003 0 0 0 -1 0.12850000000000006 0 0 1 I I #
coedge $-1 $186 $185 $290 $291 forward $187 $-1 #
edge $-1 $189 0 $292 0.25 $232 $293 forward 7 unknown #
edge $-1 $188 0 $294 0.25 $231 $295 forward 7 unknown #
face $-1 $289 $187 $3 $-1 $296 reversed single #
point $-1 1.2815000000000001 0.40600000000000003 0 #
point $-1 1.5385000000000002 0.40600000000000003 0 #
coedge $-1 $192 $191 $297 $298 forward $193 $-1 #
face $-1 $299 $193 $3 $-1 $300 reversed single #
coedge $-1 $297 $297 $195 $244 reversed $301 $-1 #
edge $-1 $245 0 $247 3.1415926535897953 $195 $302 forward 7 unknown #
vertex $-1 $298 $303 #
straight-curve $-1 2.7885 0 0 0 -1.2588953317294038e-016 1 I I #
vertex $-1 $298 $304 #
straight-curve $-1 2.5315000000000003 1.5736191646617547e-017 0 0 0 1 I I #
cone-surface $-1 2.6600000000000001 0 0 0 0 1 0.1285 0 0 1 I I 0 1 0.1285 forward I I I I #
point $-1 2.3125 0 0.5 #
point $-1 2.1875 0 0.5 #
face $-1 $305 $306 $3 $-1 $307 reversed single #
loop $-1 $-1 $263 $208 #
cone-surface $-1 -6 0.56200000000000006 0 0 0 1 0.125 0 0 1 I I 0 1 0.125 forward I I I I #
loop $-1 $308 $309 $13 #
coedge $-1 $310 $310 $311 $312 forward $210 $-1 #
coedge $-1 $211 $211 $313 $314 forward $171 $-1 #
coedge $-1 $315 $316 $211 $259 reversed $317 $-1 #
edge $-1 $318 0 $319 3.1415926535897931 $211 $320 forward 7 unknown #
coedge $-1 $321 $322 $212 $261 reversed $306 $-1 #
edge $-1 $265 0 $264 3.1415926535897931 $212 $323 forward 7 unknown #
coedge $-1 $221 $213 $322 $324 reversed $253 $-1 #
coedge $-1 $213 $221 $321 $325 forward $253 $-1 #
vertex $-1 $261 $326 #
vertex $-1 $261 $327 #
ellipse-curve $-1 -6 0.56200000000000006 0.5 0 0 -1 -0.125 0 0 1 I I #
ellipse-curve $-1 2.25 -5.2041704279304213e-017 0.5 0 0 -1 0.0625 5.2041704279304213e-017 0 1 I I #
loop $-1 $328 $329 $4 #
coedge $-1 $330 $330 $331 $332 reversed $218 $-1 #
coedge $-1 $219 $219 $333 $334 reversed $178 $-1 #
coedge $-1 $316 $315 $219 $272 forward $317 $-1 #
edge $-1 $335 0 $336 3.1415926535897931 $219 $337 forward 7 unknown #
coedge $-1 $322 $321 $220 $274 forward $306 $-1 #
edge $-1 $276 0 $275 3.1415926535897931 $220 $338 forward 7 unknown #
vertex $-1 $274 $339 #
vertex $-1 $274 $340 #
ellipse-curve $-1 -6 0.56200000000000006 0 0 0 -1 -0.125 0 0 1 I I #
coedge $-1 $341 $223 $226 $284 forward $280 $-1 #
coedge $-1 $223 $341 $225 $283 reversed $280 $-1 #
loop $-1 $-1 $279 $342 #
ellipse-curve $-1 1.4100000000000001 -0.40600000000000003 0 0 0 -1 0.12850000000000006 0 0 1 I I #
coedge $-1 $226 $225 $343 $344 forward $227 $-1 #
edge $-1 $229 0 $345 0.25 $279 $346 forward 7 unknown #
edge $-1 $228 0 $347 0.25 $278 $348 forward 7 unknown #
face $-1 $342 $227 $3 $-1 $349 reversed single #
point $-1 1.2815000000000001 -0.40600000000000003 0 #
point $-1 1.5385000000000002 -0.40600000000000003 0 #
coedge $-1 $232 $231 $350 $351 forward $233 $-1 #
face $-1 $-1 $233 $3 $-1 $352 reversed single #
coedge $-1 $350 $350 $235 $291 reversed $353 $-1 #
edge $-1 $292 0 $294 3.1415926535897905 $235 $354 forward 7 unknown #
vertex $-1 $351 $355 #
straight-curve $-1 1.5385000000000002 0.40600000000000003 0 0 -2.2204460492503131e-016 1 I I #
vertex $-1 $351 $356 #
straight-curve $-1 1.2815000000000001 0.40600000000000003 0 0 0 1 I I #
cone-surface $-1 1.4100000000000001 0.40600000000000003 0 0 0 1 0.1285 0 0 1 I I 0 1 0.1285 forward I I I I #
coedge $-1 $243 $243 $241 $298 reversed $301 $-1 #
edge $-1 $247 0 $245 3.1415926535897953 $241 $357 forward 7 unknown #
face $-1 $358 $359 $3 $-1 $360 reversed single #
cone-surface $-1 2.6600000000000001 0 0 0 0 1 0.1285 0 0 1 I I 0 1 0.1285 forward I I I I #
loop $-1 $-1 $243 $361 #
ellipse-curve $-1 2.6600000000000001 1.5265566588595902e-016 0.25 0 0 1 0.12849999999999984 -1.5265566588595902e-016 0 1 I I #
point $-1 2.7885 0 0.25 #
point $-1 2.5315000000000003 0 0.25 #
face $-1 $362 $317 $3 $-1 $363 reversed single #
loop $-1 $-1 $322 $252 #
cone-surface $-1 -6 0.56200000000000006 0 0 0 1 0.125 0 0 1 I I 0 1 0.125 forward I I I I #
loop $-1 $364 $365 $13 #
coedge $-1 $366 $366 $367 $368 forward $255 $-1 #
coedge $-1 $256 $256 $369 $370 forward $210 $-1 #
coedge $-1 $371 $372 $256 $312 reversed $373 $-1 #
edge $-1 $374 0 $375 3.1415926535897931 $256 $376 forward 7 unknown #
coedge $-1 $377 $378 $257 $314 reversed $379 $-1 #
edge $-1 $319 0 $318 3.1415926535897931 $257 $380 forward 7 unknown #
coedge $-1 $271 $258 $378 $381 reversed $317 $-1 #
coedge $-1 $258 $271 $377 $382 forward $317 $-1 #
loop $-1 $-1 $316 $305 #
vertex $-1 $314 $383 #
vertex $-1 $314 $384 #
ellipse-curve $-1 -5.125 0.56200000000000006 0.5 0 0 -1 -0.125 0 0 1 I I #
coedge $-1 $273 $260 $263 $325 reversed $306 $-1 #
coedge $-1 $260 $273 $262 $324 forward $306 $-1 #
ellipse-curve $-1 -6 0.56200000000000006 0.5 0 0 -1 0.125 0 0 1 I I #
edge $-1 $275 0 $264 0.5 $322 $385 forward 7 unknown #
edge $-1 $276 0 $265 0.5 $321 $386 forward 7 unknown #
point $-1 -6.125 0.56200000000000006 0.5 #
point $-1 -5.875 0.56200000000000006 0.5 #
loop $-1 $387 $388 $4 #
coedge $-1 $389 $389 $390 $391 reversed $268 $-1 #
coedge $-1 $269 $269 $392 $393 reversed $218 $-1 #
coedge $-1 $372 $371 $269 $332 forward $373 $-1 #
edge $-1 $394 0 $395 3.1415926535897931 $269 $396 forward 7 unknown #
coedge $-1 $378 $377 $270 $334 forward $379 $-1 #
edge $-1 $336 0 $335 3.1415926535897931 $270 $397 forward 7 unknown #
vertex $-1 $334 $398 #
vertex $-1 $334 $399 #
ellipse-curve $-1 -5.125 0.56200000000000006 0 0 0 -1 -0.125 0 0 1 I I #
ellipse-curve $-1 -6 0.56200000000000006 0 0 0 -1 0.125 0 0 1 I I #
point $-1 -6.125 0.56200000000000006 0 #
point $-1 -5.875 0.56200000000000006 0 #
coedge $-1 $279 $278 $400 $401 forward $280 $-1 #
face $-1 $402 $280 $3 $-1 $403 reversed single #
coedge $-1 $400 $400 $282 $344 reversed $404 $-1 #
edge $-1 $345 0 $347 3.1415926535897905 $282 $405 forward 7 unknown #
vertex $-1 $401 $406 #
straight-curve $-1 1.5385000000000002 -0.40600000000000003 0 0 -2.2204460492503131e-016 1 I I #
vertex $-1 $401 $407 #
straight-curve $-1 1.2815000000000001 -0.40600000000000003 0 0 0 1 I I #
cone-surface $-1 1.4100000000000001 -0.40600000000000003 0 0 0 1 0.1285 0 0 1 I I 0 1 0.1285 forward I I I I #
coedge $-1 $290 $290 $288 $351 reversed $353 $-1 #
edge $-1 $294 0 $292 3.1415926535897905 $288 $408 forward 7 unknown #
cone-surface $-1 1.4100000000000001 0.40600000000000003 0 0 0 1 0.1285 0 0 1 I I 0 1 0.1285 forward I I I I #
loop $-1 $-1 $290 $409 #
ellipse-curve $-1 1.4100000000000001 0.40599999999999986 0.25 0 0 1 0.12850000000000006 1.6653345369377348e-016 0 1 I I #
point $-1 1.5385000000000002 0.40600000000000003 0.25 #
point $-1 1.2815000000000001 0.40600000000000003 0.25 #
ellipse-curve $-1 2.6600000000000001 -1.5265566588595902e-016 0.25 0 0 1 -0.12849999999999984 1.5265566588595902e-016 0 1 I I #
face $-1 $410 $411 $3 $-1 $412 reversed single #
loop $-1 $-1 $413 $299 #
cone-surface $-1 1.4099999999999999 -0.40600000000000003 0.5 0 0 -1 -0.203125 0 0 1 I I 0 1 0.203125 forward I I I I #
face $-1 $198 $414 $3 $-1 $415 reversed single #
face $-1 $416 $379 $3 $-1 $417 reversed single #
cone-surface $-1 -5.125 0.56200000000000006 0 0 0 1 0.125 0 0 1 I I 0 1 0.125 forward I I I I #
loop $-1 $418 $419 $13 #
coedge $-1 $420 $421 $422 $423 forward $308 $-1 #
coedge $-1 $309 $309 $424 $425 forward $255 $-1 #
coedge $-1 $426 $427 $309 $368 reversed $428 $-1 #
edge $-1 $429 0 $430 3.1415926535897931 $309 $431 forward 7 unknown #
coedge $-1 $432 $433 $310 $370 reversed $434 $-1 #
edge $-1 $375 0 $374 3.1415926535897931 $310 $435 forward 7 unknown #
coedge $-1 $331 $311 $433 $436 reversed $373 $-1 #
coedge $-1 $311 $331 $432 $437 forward $373 $-1 #
loop $-1 $-1 $372 $416 #
vertex $-1 $370 $438 #
vertex $-1 $370 $439 #
ellipse-curve $-1 -5.125 -0.56200000000000006 0.5 0 0 -1 -0.125 0 0 1 I I #
coedge $-1 $333 $313 $316 $382 reversed $379 $-1 #
coedge $-1 $313 $333 $315 $381 forward $379 $-1 #
loop $-1 $-1 $378 $362 #
ellipse-curve $-1 -5.125 0.56200000000000006 0.5 0 0 -1 0.125 0 0 1 I I #
edge $-1 $335 0 $318 0.5 $378 $440 forward 7 unknown #
edge $-1 $336 0 $319 0.5 $377 $441 forward 7 unknown #
point $-1 -5.25 0.56200000000000006 0.5 #
point $-1 -5 0.56200000000000006 0.5 #
straight-curve $-1 -6.125 0.56200000000000006 0 0 0 1 I I #
straight-curve $-1 -5.875 0.56200000000000006 0 0 0 1 I I #
loop $-1 $-1 $442 $4 #
coedge $-1 $443 $444 $445 $446 reversed $328 $-1 #
coedge $-1 $329 $329 $447 $448 reversed $268 $-1 #
coedge $-1 $427 $426 $329 $391 forward $428 $-1 #
edge $-1 $449 0 $450 3.1415926535897931 $329 $451 forward 7 unknown #
coedge $-1 $433 $432 $330 $393 forward $434 $-1 #
edge $-1 $395 0 $394 3.1415926535897931 $330 $452 forward 7 unknown #
vertex $-1 $393 $453 #
vertex $-1 $393 $454 #
ellipse-curve $-1 -5.125 -0.56200000000000006 0 0 0 -1 -0.125 0 0 1 I I #
ellipse-curve $-1 -5.125 0.56200000000000006 0 0 0 -1 0.125 0 0 1 I I #
point $-1 -5.25 0.56200000000000006 0 #
point $-1 -5 0.56200000000000006 0 #
coedge $-1 $343 $343 $341 $401 reversed $404 $-1 #
edge $-1 $347 0 $345 3.1415926535897905 $341 $455 forward 7 unknown #
face $-1 $456 $457 $3 $-1 $458 reversed single #
cone-surface $-1 1.4100000000000001 -0.40600000000000003 0 0 0 1 0.1285 0 0 1 I I 0 1 0.1285 forward I I I I #
loop $-1 $-1 $343 $410 #
ellipse-curve $-1 1.4100000000000001 -0.40600000000000019 0.25 0 0 1 0.12850000000000006 1.6653345369377348e-016 0 1 I I #
point $-1 1.5385000000000002 -0.40600000000000003 0.25 #
point $-1 1.2815000000000001 -0.40600000000000003 0.25 #
ellipse-curve $-1 1.4100000000000001 0.40600000000000019 0.25 0 0 1 -0.12850000000000006 -1.6653345369377348e-016 0 1 I I #
face $-1 $238 $459 $3 $-1 $460 reversed single #
face $-1 $285 $461 $3 $-1 $462 reversed single #
loop $-1 $-1 $463 $358 #
cone-surface $-1 1.4099999999999999 -0.40600000000000003 0.5 0 0 -1 -0.203125 0 0 1 I I 0 1 0.203125 forward I I I I #
coedge $-1 $464 $465 $466 $467 forward $359 $-1 #
loop $-1 $301 $468 $361 #
plane-surface $-1 2.6600000000000001 0 0.25 0 0 -1 -1 0 0 forward_v I I I I #
face $-1 $469 $373 $3 $-1 $470 reversed single #
cone-surface $-1 -5.125 0.56200000000000006 0 0 0 1 0.125 0 0 1 I I 0 1 0.125 forward I I I I #
loop $-1 $471 $472 $13 #
coedge $-1 $473 $474 $475 $476 forward $364 $-1 #
coedge $-1 $477 $365 $478 $479 forward $308 $-1 #
coedge $-1 $365 $477 $480 $481 forward $308 $-1 #
coedge $-1 $482 $483 $365 $423 reversed $484 $-1 #
edge $-1 $485 0 $486 1.5 $365 $487 forward 7 unknown #
coedge $-1 $488 $489 $366 $425 reversed $490 $-1 #
edge $-1 $430 0 $429 3.1415926535897931 $366 $491 forward 7 unknown #
coedge $-1 $390 $367 $489 $492 reversed $428 $-1 #
coedge $-1 $367 $390 $488 $493 forward $428 $-1 #
loop $-1 $-1 $427 $494 #
vertex $-1 $425 $495 #
vertex $-1 $425 $496 #
ellipse-curve $-1 -6 -0.56200000000000006 0.5 0 0 -1 -0.125 0 0 1 I I #
coedge $-1 $392 $369 $372 $437 reversed $434 $-1 #
coedge $-1 $369 $392 $371 $436 forward $434 $-1 #
loop $-1 $-1 $433 $469 #
ellipse-curve $-1 -5.125 -0.56200000000000006 0.5 0 0 -1 0.125 0 0 1 I I #
edge $-1 $394 0 $374 0.5 $433 $497 forward 7 unknown #
edge $-1 $395 0 $375 0.5 $432 $498 forward 7 unknown #
point $-1 -5.25 -0.56200000000000006 0.5 #
point $-1 -5 -0.56200000000000006 0.5 #
straight-curve $-1 -5.25 0.56200000000000006 0 0 0 1 I I #
straight-curve $-1 -5 0.56200000000000006 0 0 0 1 I I #
coedge $-1 $499 $500 $501 $502 reversed $387 $-1 #
coedge $-1 $503 $388 $504 $505 reversed $328 $-1 #
coedge $-1 $388 $503 $506 $507 reversed $328 $-1 #
coedge $-1 $508 $509 $388 $446 forward $510 $-1 #
edge $-1 $511 0 $512 1.5 $388 $513 forward 7 unknown #
coedge $-1 $489 $488 $389 $448 forward $490 $-1 #
edge $-1 $450 0 $449 3.1415926535897931 $389 $514 forward 7 unknown #
vertex $-1 $448 $515 #
vertex $-1 $448 $516 #
ellipse-curve $-1 -6 -0.56200000000000006 0 0 0 -1 -0.125 0 0 1 I I #
ellipse-curve $-1 -5.125 -0.56200000000000006 0 0 0 -1 0.125 0 0 1 I I #
point $-1 -5.25 -0.56200000000000006 0 #
point $-1 -5 -0.56200000000000006 0 #
ellipse-curve $-1 1.4100000000000001 -0.40599999999999986 0.25 0 0 1 -0.12850000000000006 -1.6653345369377348e-016 0 1 I I #
face $-1 $409 $517 $3 $-1 $518 reversed single #
loop $-1 $-1 $519 $402 #
cone-surface $-1 1.4099999999999999 0.40600000000000003 0.5 0 0 -1 -0.203125 0 0 1 I I 0 1 0.203125 forward I I I I #
loop $-1 $353 $520 $409 #
plane-surface $-1 1.4099999999999999 0.40600000000000003 0.25 0 0 -1 -1 0 0 forward_v I I I I #
loop $-1 $404 $521 $410 #
plane-surface $-1 1.4099999999999999 -0.40600000000000003 0.25 0 0 -1 -1 0 0 forward_v I I I I #
coedge $-1 $522 $523 $524 $525 forward $411 $-1 #
coedge $-1 $524 $413 $521 $526 forward $359 $-1 #
coedge $-1 $413 $524 $527 $528 reversed $359 $-1 #
coedge $-1 $523 $522 $413 $467 reversed $411 $-1 #
edge $-1 $529 0 $530 0.25 $466 $531 forward 7 unknown #
coedge $-1 $532 $532 $533 $534 reversed $414 $-1 #
face $-1 $494 $434 $3 $-1 $535 reversed single #
cone-surface $-1 -5.125 -0.56200000000000006 0 0 0 1 0.125 0 0 1 I I 0 1 0.125 forward I I I I #
loop $-1 $536 $527 $13 #
coedge $-1 $537 $537 $538 $539 forward $418 $-1 #
coedge $-1 $540 $419 $541 $542 forward $364 $-1 #
coedge $-1 $419 $540 $543 $544 forward $364 $-1 #
coedge $-1 $545 $546 $419 $476 reversed $547 $-1 #
edge $-1 $548 0 $549 3.1415926535897909 $419 $550 forward 7 unknown #
coedge $-1 $421 $420 $551 $552 forward $308 $-1 #
coedge $-1 $553 $554 $420 $479 reversed $555 $-1 #
edge $-1 $486 0 $556 9.25 $420 $557 forward 7 unknown #
coedge $-1 $558 $559 $421 $481 reversed $560 $-1 #
edge $-1 $561 0 $485 9.25 $421 $562 forward 7 unknown #
coedge $-1 $563 $422 $559 $564 reversed $484 $-1 #
coedge $-1 $422 $563 $553 $565 forward $484 $-1 #
loop $-1 $-1 $483 $566 #
vertex $-1 $481 $567 #
vertex $-1 $479 $568 #
straight-curve $-1 -6.25 0.75 0.5 0 -1 0 I I #
coedge $-1 $447 $424 $427 $493 reversed $490 $-1 #
coedge $-1 $424 $447 $426 $492 forward $490 $-1 #
loop $-1 $-1 $489 $569 #
ellipse-curve $-1 -6 -0.56200000000000006 0.5 0 0 -1 0.125 0 0 1 I I #
edge $-1 $449 0 $429 0.5 $489 $570 forward 7 unknown #
edge $-1 $450 0 $430 0.5 $488 $571 forward 7 unknown #
face $-1 $569 $428 $3 $-1 $572 reversed single #
point $-1 -6.125 -0.56200000000000006 0.5 #
point $-1 -5.875 -0.56200000000000006 0.5 #
straight-curve $-1 -5.25 -0.56200000000000006 0 0 0 1 I I #
straight-curve $-1 -5 -0.56200000000000006 0 0 0 1 I I #
coedge $-1 $573 $442 $574 $575 reversed $387 $-1 #
coedge $-1 $442 $573 $576 $577 reversed $387 $-1 #
coedge $-1 $578 $579 $442 $502 forward $580 $-1 #
edge $-1 $581 0 $582 3.1415926535897922 $442 $583 forward 7 unknown #
coedge $-1 $444 $443 $563 $584 reversed $328 $-1 #
coedge $-1 $554 $553 $443 $505 forward $555 $-1 #
edge $-1 $585 0 $511 9.25 $443 $586 forward 7 unknown #
coedge $-1 $559 $558 $444 $507 forward $560 $-1 #
edge $-1 $512 0 $587 9.25 $444 $588 forward 7 unknown #
coedge $-1 $551 $445 $558 $589 forward $510 $-1 #
coedge $-1 $445 $551 $554 $590 reversed $510 $-1 #
loop $-1 $-1 $508 $591 #
vertex $-1 $505 $592 #
vertex $-1 $507 $593 #
straight-curve $-1 3 -0.75 0 0 1 0 I I #
ellipse-curve $-1 -6 -0.56200000000000006 0 0 0 -1 0.125 0 0 1 I I #
point $-1 -6.125 -0.56200000000000006 0 #
point $-1 -5.875 -0.56200000000000006 0 #
loop $-1 $-1 $594 $456 #
cone-surface $-1 1.4099999999999999 0.40600000000000003 0.5 0 0 -1 -0.203125 0 0 1 I I 0 1 0.203125 forward I I I I #
coedge $-1 $595 $596 $597 $598 forward $457 $-1 #
coedge $-1 $599 $599 $595 $600 reversed $459 $-1 #
coedge $-1 $601 $601 $464 $526 reversed $461 $-1 #
coedge $-1 $466 $463 $601 $602 forward $411 $-1 #
coedge $-1 $463 $466 $603 $604 reversed $411 $-1 #
coedge $-1 $465 $464 $463 $525 reversed $359 $-1 #
edge $-1 $605 0 $606 0.25 $463 $607 forward 7 unknown #
edge $-1 $530 0 $606 3.141592653589794 $521 $608 forward 7 unknown #
coedge $-1 $603 $603 $465 $528 forward $471 $-1 #
edge $-1 $529 0 $605 3.1415926535897931 $527 $609 forward 7 unknown #
vertex $-1 $604 $610 #
vertex $-1 $602 $611 #
straight-curve $-1 1.6131249999999999 -0.40600000000000003 0.5 0 0 -1 I I #
coedge $-1 $468 $468 $612 $613 reversed $414 $-1 #
coedge $-1 $614 $615 $468 $534 forward $616 $-1 #
edge $-1 $617 0 $618 3.1415926535897931 $468 $619 forward 7 unknown #
cone-surface $-1 -5.125 -0.56200000000000006 0 0 0 1 0.125 0 0 1 I I 0 1 0.125 forward I I I I #
loop $-1 $-1 $620 $13 #
coedge $-1 $472 $472 $621 $622 forward $418 $-1 #
coedge $-1 $615 $614 $472 $539 reversed $616 $-1 #
edge $-1 $623 0 $624 3.1415926535897931 $472 $625 forward 7 unknown #
coedge $-1 $474 $473 $626 $627 forward $364 $-1 #
coedge $-1 $628 $629 $473 $542 reversed $630 $-1 #
edge $-1 $549 -4.5178300675313654e-016 $631 1.9457295373665475 $473 $632 forward 7 unknown #
coedge $-1 $633 $634 $474 $544 reversed $635 $-1 #
edge $-1 $636 6.3526076807858381e-018 $548 1.9457295373665482 $474 $637 forward 7 unknown #
coedge $-1 $638 $475 $634 $639 reversed $547 $-1 #
coedge $-1 $475 $638 $628 $640 forward $547 $-1 #
loop $-1 $-1 $546 $641 #
vertex $-1 $544 $642 #
vertex $-1 $542 $643 #
ellipse-curve $-1 -3.2426879847866248 -0.085197122292333033 0.5 0 0 -1 0.042598561146166336 -0.24634399239331242 0 1 I I #
coedge $-1 $509 $508 $477 $552 reversed $510 $-1 #
edge $-1 $556 0 $561 1.5 $477 $644 forward 7 unknown #
coedge $-1 $504 $478 $483 $565 reversed $555 $-1 #
coedge $-1 $478 $504 $509 $590 forward $555 $-1 #
loop $-1 $-1 $554 $645 #
vertex $-1 $552 $646 #
straight-curve $-1 -6.25 -0.75 0.5 1 0 0 I I #
coedge $-1 $506 $480 $508 $589 reversed $560 $-1 #
coedge $-1 $480 $506 $482 $564 forward $560 $-1 #
loop $-1 $-1 $559 $647 #
vertex $-1 $481 $648 #
straight-curve $-1 3 0.75 0.5 -1 0 0 I I #
coedge $-1 $483 $482 $503 $584 forward $484 $-1 #
edge $-1 $587 0 $485 0.5 $559 $649 forward 7 unknown #
edge $-1 $585 0 $486 0.5 $483 $650 forward 7 unknown #
face $-1 $645 $484 $3 $-1 $651 forward single #
point $-1 -6.25 0.75 0.5 #
point $-1 -6.25 -0.75 0.5 #
face $-1 $566 $490 $3 $-1 $652 reversed single #
straight-curve $-1 -6.125 -0.56200000000000006 0 0 0 1 I I #
straight-curve $-1 -5.875 -0.56200000000000006 0 0 0 1 I I #
cone-surface $-1 -6 -0.56200000000000006 0 0 0 1 0.125 0 0 1 I I 0 1 0.125 forward I I I I #
coedge $-1 $500 $499 $638 $653 reversed $387 $-1 #
coedge $-1 $629 $628 $499 $575 forward $630 $-1 #
edge $-1 $654 0 $581 1.9457295373665475 $499 $655 forward 7 unknown #
coedge $-1 $634 $633 $500 $577 forward $635 $-1 #
edge $-1 $582 6.3526076807858381e-018 $656 1.9457295373665482 $500 $657 forward 7 unknown #
coedge $-1 $626 $501 $633 $658 forward $580 $-1 #
coedge $-1 $501 $626 $629 $659 reversed $580 $-1 #
loop $-1 $-1 $578 $660 #
vertex $-1 $575 $661 #
vertex $-1 $577 $662 #
ellipse-curve $-1 -1.3254128553767532 0.24634399239331217 0 0 0 -1 -0.042598561146166558 0.24634399239331217 0 1 I I #
edge $-1 $587 0 $585 1.5 $503 $663 forward 7 unknown #
vertex $-1 $584 $664 #
straight-curve $-1 -6.25 -0.75 0 1 0 0 I I #
vertex $-1 $507 $665 #
straight-curve $-1 3 0.75 0 -1 0 0 I I #
edge $-1 $512 0 $561 0.5 $558 $666 forward 7 unknown #
edge $-1 $511 0 $556 0.5 $554 $667 forward 7 unknown #
face $-1 $647 $510 $3 $-1 $668 forward single #
point $-1 3 -0.75 0 #
point $-1 3 0.75 0 #
coedge $-1 $669 $670 $671 $672 forward $517 $-1 #
coedge $-1 $671 $519 $520 $600 forward $457 $-1 #
coedge $-1 $519 $671 $620 $673 reversed $457 $-1 #
coedge $-1 $670 $669 $519 $598 reversed $517 $-1 #
edge $-1 $674 0 $675 0.25 $597 $676 forward 7 unknown #
coedge $-1 $520 $520 $669 $677 reversed $459 $-1 #
edge $-1 $675 0 $678 3.1415926535897931 $520 $679 forward 7 unknown #
coedge $-1 $521 $521 $522 $602 reversed $461 $-1 #
edge $-1 $606 0 $530 3.1415926535897931 $601 $680 forward 7 unknown #
coedge $-1 $527 $527 $523 $604 forward $471 $-1 #
edge $-1 $605 0 $529 3.1415926535897931 $603 $681 forward 7 unknown #
vertex $-1 $604 $682 #
vertex $-1 $602 $683 #
straight-curve $-1 1.2068749999999999 -0.40600000000000003 0.5 0 0 -1 I I #
ellipse-curve $-1 1.4100000000000001 -0.40600000000000014 0.25 0 0 -1 0.20312499999999978 1.1102230246251565e-016 0 1 I I #
ellipse-curve $-1 1.4099999999999999 -0.40600000000000003 0.5 0 0 -1 0.203125 0 0 1 I I #
point $-1 1.6131249999999999 -0.40600000000000003 0.5 #
point $-1 1.6131249999999999 -0.40600000000000003 0.25 #
coedge $-1 $684 $685 $532 $613 forward $686 $-1 #
edge $-1 $618 0 $617 3.1415926535897931 $532 $687 forward 7 unknown #
coedge $-1 $538 $533 $685 $688 reversed $616 $-1 #
coedge $-1 $533 $538 $684 $689 forward $616 $-1 #
loop $-1 $-1 $615 $690 #
vertex $-1 $613 $691 #
vertex $-1 $613 $692 #
ellipse-curve $-1 2.6600000000000001 -2.0816681711721685e-017 0.25 0 0 -1 0.203125 2.0816681711721685e-017 0 1 I I #
coedge $-1 $693 $693 $596 $673 forward $536 $-1 #
coedge $-1 $685 $684 $537 $622 reversed $686 $-1 #
edge $-1 $624 0 $623 3.1415926535897931 $537 $694 forward 7 unknown #
vertex $-1 $622 $695 #
vertex $-1 $622 $696 #
ellipse-curve $-1 2.6600000000000001 0 0.5 0 0 -1 0.203125 0 0 1 I I #
coedge $-1 $579 $578 $540 $627 reversed $580 $-1 #
edge $-1 $631 5.5511151231257876e-017 $636 3.1415926535897922 $540 $697 forward 7 unknown #
coedge $-1 $574 $541 $546 $640 reversed $630 $-1 #
coedge $-1 $541 $574 $579 $659 forward $630 $-1 #
loop $-1 $-1 $629 $698 #
vertex $-1 $627 $699 #
straight-curve $-1 -3.2852865459327911 0.16114687010097889 0.5 0.98537596957324913 0.17039424458466648 0 I I #
coedge $-1 $576 $543 $578 $658 reversed $635 $-1 #
coedge $-1 $543 $576 $545 $639 forward $635 $-1 #
loop $-1 $-1 $634 $700 #
vertex $-1 $544 $701 #
straight-curve $-1 -1.2828142942305865 3.7281820734439879e-017 0.5 -0.98537596957324913 -0.17039424458466645 0 I I #
coedge $-1 $546 $545 $573 $653 forward $547 $-1 #
edge $-1 $656 0 $548 0.5 $634 $702 forward 7 unknown #
edge $-1 $654 1.5407439555097887e-032 $549 0.5 $546 $703 forward 7 unknown #
face $-1 $698 $547 $3 $-1 $704 reversed single #
point $-1 -3.2000894236404585 -0.33154111468564545 0.5 #
point $-1 -3.2852865459327916 0.16114687010097881 0.5 #
straight-curve $-1 3 -0.75 0.5 0 1 0 I I #
face $-1 $591 $555 $3 $-1 $705 forward single #
point $-1 3 -0.75 0.5 #
face $-1 $641 $560 $3 $-1 $706 forward single #
point $-1 3 0.75 0.5 #
straight-curve $-1 -6.25 0.75 0 0 0 1 I I #
straight-curve $-1 -6.25 -0.75 0 0 0 1 I I #
plane-surface $-1 -6.25 0.75 0 -1 0 0 0 -1 0 forward_v I I I I #
cone-surface $-1 -6 -0.56200000000000006 0 0 0 1 0.125 0 0 1 I I 0 1 0.125 forward I I I I #
edge $-1 $656 0 $654 3.1415926535897931 $573 $707 forward 7 unknown #
vertex $-1 $653 $708 #
straight-curve $-1 -3.2852865459327911 0.16114687010097889 0 0.98537596957324913 0.17039424458466648 0 I I #
vertex $-1 $577 $709 #
straight-curve $-1 -1.2828142942305865 3.7281820734439879e-017 0 -0.98537596957324913 -0.17039424458466645 0 I I #
edge $-1 $582 3.8518598887744717e-032 $636 0.5 $633 $710 forward 7 unknown #
edge $-1 $581 0 $631 0.5 $629 $711 forward 7 unknown #
face $-1 $700 $580 $3 $-1 $712 reversed single #
point $-1 -1.3680114165229198 0.49268798478662434 0 #
point $-1 -1.2828142942305865 0 0 #
straight-curve $-1 -6.25 0.75 0 0 -1 0 I I #
point $-1 -6.25 -0.75 0 #
point $-1 -6.25 0.75 0 #
straight-curve $-1 3 0.75 0 0 0 1 I I #
straight-curve $-1 3 -0.75 0 0 0 1 I I #
plane-surface $-1 3 -0.75 0 1 0 0 0 1 0 forward_v I I I I #
coedge $-1 $597 $594 $599 $677 forward $517 $-1 #
coedge $-1 $594 $597 $693 $713 reversed $517 $-1 #
coedge $-1 $596 $595 $594 $672 reversed $457 $-1 #
edge $-1 $714 0 $678 0.25 $594 $715 forward 7 unknown #
edge $-1 $674 0 $714 3.1415926535897931 $620 $716 forward 7 unknown #
vertex $-1 $713 $717 #
vertex $-1 $677 $718 #
straight-curve $-1 1.6131249999999999 0.40600000000000003 0.5 0 0 -1 I I #
edge $-1 $678 0 $675 3.141592653589794 $599 $719 forward 7 unknown #
vertex $-1 $677 $720 #
ellipse-curve $-1 1.4100000000000001 0.40600000000000003 0.25 0 0 -1 0.20312499999999978 0 0 1 I I #
ellipse-curve $-1 1.4099999999999997 -0.40600000000000003 0.25 0 0 -1 -0.20312499999999978 0 0 1 I I #
ellipse-curve $-1 1.4099999999999999 -0.40600000000000003 0.5 0 0 -1 -0.203125 -5.5511151231257827e-017 0 1 I I #
point $-1 1.2068749999999999 -0.40600000000000008 0.5 #
point $-1 1.2068749999999999 -0.40600000000000003 0.25 #
coedge $-1 $621 $612 $615 $689 reversed $686 $-1 #
coedge $-1 $612 $621 $614 $688 forward $686 $-1 #
loop $-1 $-1 $685 $721 #
ellipse-curve $-1 2.6600000000000001 2.0816681711721685e-017 0.25 0 0 -1 -0.203125 -2.0816681711721685e-017 0 1 I I #
edge $-1 $624 0 $618 0.25 $685 $722 forward 7 unknown #
edge $-1 $623 0 $617 0.25 $684 $723 forward 7 unknown #
face $-1 $721 $616 $3 $-1 $724 reversed single #
point $-1 2.8631250000000001 0 0.25 #
point $-1 2.4568750000000001 0 0.25 #
coedge $-1 $620 $620 $670 $713 forward $536 $-1 #
ellipse-curve $-1 2.6600000000000001 0 0.5 0 0 -1 -0.203125 0 0 1 I I #
point $-1 2.8631250000000001 0 0.5 #
point $-1 2.4568750000000001 0 0.5 #
ellipse-curve $-1 -1.3254128553767532 0.24634399239331223 0.5 0 0 -1 -0.042598561146166558 0.24634399239331212 0 1 I I #
face $-1 $660 $630 $3 $-1 $725 forward single #
point $-1 -1.3680114165229198 0.49268798478662446 0.5 #
face $-1 $690 $635 $3 $-1 $726 forward single #
point $-1 -1.2828142942305865 0 0.5 #
straight-curve $-1 -3.2000894236404585 -0.33154111468564545 0 0 0 1 I I #
straight-curve $-1 -3.2852865459327916 0.16114687010097895 0 0 -2.7755575615628914e-016 1 I I #
cone-surface $-1 -3.2426879847866248 -0.085197122292333324 0 0 0 1 0.25 0 0 1 I I 0 1 0.25 forward I I I I #
plane-surface $-1 -6.25 -0.75 0 0 -1 0 1 0 0 forward_v I I I I #
plane-surface $-1 3 0.75 0 0 1 0 -1 0 0 forward_v I I I I #
ellipse-curve $-1 -3.2426879847866248 -0.085197122292333324 0 0 0 -1 0.042598561146166336 -0.24634399239331212 0 1 I I #
point $-1 -3.2852865459327911 0.16114687010097889 0 #
point $-1 -3.2000894236404585 -0.33154111468564545 0 #
straight-curve $-1 -1.2828142942305867 -1.3877787807814457e-016 0 0 2.7755575615628914e-016 1 I I #
straight-curve $-1 -1.3680114165229198 0.49268798478662434 0 0 0 1 I I #
cone-surface $-1 -1.3254128553767532 0.24634399239331217 0 0 0 1 0.25 0 0 1 I I 0 1 0.25 forward I I I I #
edge $-1 $714 0 $674 3.1415926535897931 $693 $727 forward 7 unknown #
vertex $-1 $713 $728 #
straight-curve $-1 1.2068749999999999 0.40600000000000003 0.5 0 0 -1 I I #
ellipse-curve $-1 1.4099999999999999 0.40600000000000003 0.5 0 0 -1 0.203125 0 0 1 I I #
point $-1 1.6131249999999999 0.40600000000000003 0.5 #
point $-1 1.6131249999999999 0.40600000000000003 0.25 #
ellipse-curve $-1 1.4099999999999997 0.40600000000000014 0.25 0 0 -1 -0.20312499999999978 -1.1102230246251565e-016 0 1 I I #
point $-1 1.2068749999999999 0.40600000000000003 0.25 #
face $-1 $361 $686 $3 $-1 $729 reversed single #
straight-curve $-1 2.4568750000000001 0 0.5 0 0 -1 I I #
straight-curve $-1 2.8631250000000001 2.4874816562017038e-017 0.5 0 0 -1 I I #
cone-surface $-1 2.6600000000000001 0 0.5 0 0 -1 -0.203125 0 0 1 I I 0 1 0.203125 forward I I I I #
plane-surface $-1 -3.2852865459327916 0.16114687010097881 0 0.17039424458466648 -0.98537596957324913 0 0.98537596957324913 0.17039424458466648 0 forward_v I I I I #
plane-surface $-1 -1.2828142942305867 0 0 -0.17039424458466645 0.98537596957324913 0 -0.98537596957324913 -0.17039424458466645 0 forward_v I I I I #
ellipse-curve $-1 1.4099999999999999 0.40600000000000003 0.5 0 0 -1 -0.203125 -5.5511151231257827e-017 0 1 I I #
point $-1 1.2068749999999999 0.40599999999999997 0.5 #
cone-surface $-1 2.6600000000000001 0 0.5 0 0 -1 -0.203125 0 0 1 I I 0 1 0.203125 forward I I I I #
End-of-ACIS-data 