600 0 1 0           
124 GICL ACIS Healer - Source: /gicl/data5/repository/NIST/Manfred_Osti/spectrometer/linkage_arm_43/linkage_arm_43.prt.sat - 6 0 18 ACIS 6.0.3 Solaris 24 Sun Apr 14 00:37:43 2002 
1 9.999999999999999547e-07 1.000000000000000036e-10 
body $-1 $1 $-1 $-1 #
lump $-1 $-1 $2 $0 #
shell $-1 $-1 $-1 $3 $-1 $1 #
face $-1 $4 $5 $2 $-1 $6 reversed single #
face $-1 $7 $8 $2 $-1 $9 reversed single #
loop $-1 $10 $11 $3 #
plane-surface $-1 0 0 0 0 0 1 25.39999999999999858 0 0 forward_v I I I I #
face $-1 $12 $13 $2 $-1 $14 reversed single #
loop $-1 $-1 $15 $4 #
cone-surface $-1 -107.9499999999999886 0 0 0 0 1 11.11249999999999893 0 0 1 I I 0 1 11.11249999999999893 forward I I I I #
loop $-1 $16 $17 $3 #
coedge $-1 $18 $18 $19 $20 reversed $5 $-1 #
face $-1 $21 $22 $2 $-1 $23 forward single #
loop $-1 $-1 $24 $7 #
cone-surface $-1 -107.9499999999999886 0 0 0 0 1 11.11249999999999893 0 0 1 I I 0 1 11.11249999999999893 forward I I I I #
coedge $-1 $25 $19 $26 $27 forward $8 $-1 #
loop $-1 $28 $29 $3 #
coedge $-1 $30 $30 $31 $32 reversed $10 $-1 #
coedge $-1 $11 $11 $33 $34 reversed $5 $-1 #
coedge $-1 $15 $35 $11 $20 forward $8 $-1 #
edge $-1 $36 0 $37 3.141592653589793116 $11 $38 forward 7 unknown #
face $-1 $39 $40 $2 $-1 $41 reversed single #
loop $-1 $42 $43 $12 #
plane-surface $-1 0 0 12.69999999999999929 0 0 1 25.39999999999999858 0 0 forward_v I I I I #
coedge $-1 $44 $33 $35 $45 forward $13 $-1 #
coedge $-1 $35 $15 $43 $46 reversed $8 $-1 #
coedge $-1 $33 $44 $15 $27 reversed $13 $-1 #
edge $-1 $37 0 $47 0.5 $26 $48 forward 7 unknown #
loop $-1 $49 $50 $3 #
coedge $-1 $51 $51 $52 $53 reversed $16 $-1 #
coedge $-1 $17 $17 $54 $55 reversed $10 $-1 #
coedge $-1 $56 $57 $17 $32 forward $40 $-1 #
edge $-1 $58 0 $59 3.141592653589793116 $17 $60 forward 7 unknown #
coedge $-1 $24 $26 $18 $34 forward $13 $-1 #
edge $-1 $37 0 $36 3.141592653589793116 $18 $61 forward 7 unknown #
coedge $-1 $19 $25 $24 $45 reversed $8 $-1 #
vertex $-1 $34 $62 #
vertex $-1 $34 $63 #
ellipse-curve $-1 -107.9499999999999886 0 0 0 0 -1 -11.11249999999999893 0 0 1 I I #
face $-1 $64 $65 $2 $-1 $66 reversed single #
loop $-1 $-1 $56 $21 #
cone-surface $-1 0 0 0 0 0 1 5.549900000000000055 0 0 1 I I 0 1 5.549900000000000055 forward I I I I #
loop $-1 $67 $68 $12 #
coedge $-1 $69 $69 $25 $46 forward $22 $-1 #
coedge $-1 $26 $24 $69 $70 reversed $13 $-1 #
edge $-1 $36 0 $71 0.5 $24 $72 forward 7 unknown #
edge $-1 $71 -7.665811426113395882e-32 $47 3.141592653589793116 $43 $73 forward 7 unknown #
vertex $-1 $70 $74 #
straight-curve $-1 -96.83749999999999147 0 0 0 -5.443375242740466282e-15 25.39999999999999858 I I #
loop $-1 $75 $76 $3 #
coedge $-1 $77 $77 $78 $79 reversed $28 $-1 #
coedge $-1 $29 $29 $80 $81 reversed $16 $-1 #
coedge $-1 $82 $83 $29 $53 forward $84 $-1 #
edge $-1 $85 0 $86 3.141592653589793116 $29 $87 forward 7 unknown #
coedge $-1 $88 $89 $30 $55 forward $65 $-1 #
edge $-1 $59 0 $58 3.141592653589793116 $30 $90 forward 7 unknown #
coedge $-1 $91 $31 $89 $92 forward $40 $-1 #
coedge $-1 $31 $91 $88 $93 reversed $40 $-1 #
vertex $-1 $55 $94 #
vertex $-1 $55 $95 #
ellipse-curve $-1 0 0 0 0 0 -1 -5.549900000000000055 0 0 1 I I #
ellipse-curve $-1 -107.9499999999999886 0 0 0 0 -1 11.11249999999999893 0 0 1 I I #
point $-1 -119.0625 0 0 #
point $-1 -96.83749999999999147 0 0 #
face $-1 $96 $84 $2 $-1 $97 reversed single #
loop $-1 $-1 $88 $39 #
cone-surface $-1 0 0 0 0 0 1 5.549900000000000055 0 0 1 I I 0 1 5.549900000000000055 forward I I I I #
loop $-1 $98 $99 $12 #
coedge $-1 $100 $100 $91 $101 forward $42 $-1 #
coedge $-1 $43 $43 $44 $70 forward $22 $-1 #
edge $-1 $47 0 $71 3.141592653589793116 $69 $102 forward 7 unknown #
vertex $-1 $70 $103 #
straight-curve $-1 -119.0625 1.36084381068511657e-15 0 0 0 25.39999999999999858 I I #
ellipse-curve $-1 -107.9499999999999886 -7.049916206369743637e-16 12.69999999999999929 0 0 -1 -11.11249999999999893 7.049916206369743637e-16 0 1 I I #
point $-1 -96.83749999999999147 0 12.69999999999999929 #
loop $-1 $104 $105 $3 #
coedge $-1 $106 $106 $107 $108 reversed $49 $-1 #
coedge $-1 $50 $50 $109 $110 reversed $28 $-1 #
coedge $-1 $111 $112 $50 $79 forward $113 $-1 #
edge $-1 $114 0 $115 3.141592653589793116 $50 $116 forward 7 unknown #
coedge $-1 $117 $118 $51 $81 forward $119 $-1 #
edge $-1 $86 0 $85 3.141592653589793116 $51 $120 forward 7 unknown #
coedge $-1 $121 $52 $118 $122 forward $84 $-1 #
coedge $-1 $52 $121 $117 $123 reversed $84 $-1 #
loop $-1 $-1 $82 $64 #
vertex $-1 $81 $124 #
vertex $-1 $81 $125 #
ellipse-curve $-1 35.81400000000000006 0 0 0 0 -1 -1.587499999999999911 0 0 1 I I #
coedge $-1 $126 $54 $57 $93 forward $65 $-1 #
coedge $-1 $54 $126 $56 $92 reversed $65 $-1 #
ellipse-curve $-1 0 0 0 0 0 -1 5.549900000000000055 0 0 1 I I #
coedge $-1 $57 $56 $68 $101 reversed $40 $-1 #
edge $-1 $59 0 $127 0.5 $89 $128 forward 7 unknown #
edge $-1 $58 0 $129 0.5 $88 $130 forward 7 unknown #
point $-1 -5.549900000000000055 0 0 #
point $-1 5.549900000000000055 0 0 #
face $-1 $131 $119 $2 $-1 $132 reversed single #
cone-surface $-1 35.81400000000000006 0 0 0 0 1 1.587499999999999911 0 0 1 I I 0 1 1.587499999999999911 forward I I I I #
loop $-1 $133 $134 $12 #
coedge $-1 $135 $135 $121 $136 forward $67 $-1 #
coedge $-1 $68 $68 $126 $137 forward $42 $-1 #
edge $-1 $129 0 $127 3.141592653589793116 $68 $138 forward 7 unknown #
ellipse-curve $-1 -107.9499999999999886 7.049916206369743637e-16 12.69999999999999929 0 0 -1 11.11249999999999893 -7.049916206369743637e-16 0 1 I I #
point $-1 -119.0625 0 12.69999999999999929 #
loop $-1 $139 $140 $3 #
coedge $-1 $141 $141 $142 $143 reversed $75 $-1 #
coedge $-1 $76 $76 $144 $145 reversed $49 $-1 #
coedge $-1 $146 $147 $76 $108 forward $148 $-1 #
edge $-1 $149 0 $150 3.141592653589793116 $76 $151 forward 7 unknown #
coedge $-1 $152 $153 $77 $110 forward $154 $-1 #
edge $-1 $115 0 $114 3.141592653589793116 $77 $155 forward 7 unknown #
coedge $-1 $156 $78 $153 $157 forward $113 $-1 #
coedge $-1 $78 $156 $152 $158 reversed $113 $-1 #
loop $-1 $-1 $111 $131 #
vertex $-1 $110 $159 #
vertex $-1 $110 $160 #
ellipse-curve $-1 57.14999999999999858 0 0 0 0 -1 -1.587499999999999911 0 0 1 I I #
coedge $-1 $161 $80 $83 $123 forward $119 $-1 #
coedge $-1 $80 $161 $82 $122 reversed $119 $-1 #
loop $-1 $-1 $117 $96 #
ellipse-curve $-1 35.81400000000000006 0 0 0 0 -1 1.587499999999999911 0 0 1 I I #
coedge $-1 $83 $82 $99 $136 reversed $84 $-1 #
edge $-1 $86 0 $162 0.5 $118 $163 forward 7 unknown #
edge $-1 $85 0 $164 0.5 $117 $165 forward 7 unknown #
point $-1 34.22650000000000148 0 0 #
point $-1 37.40149999999999864 0 0 #
coedge $-1 $89 $88 $100 $137 reversed $65 $-1 #
vertex $-1 $137 $166 #
straight-curve $-1 5.549900000000000055 0 0 0 -2.718577121231524499e-15 25.39999999999999858 I I #
vertex $-1 $137 $167 #
straight-curve $-1 -5.549900000000000055 6.796442803078811249e-16 0 0 0 25.39999999999999858 I I #
face $-1 $168 $113 $2 $-1 $169 reversed single #
cone-surface $-1 35.81400000000000006 0 0 0 0 1 1.587499999999999911 0 0 1 I I 0 1 1.587499999999999911 forward I I I I #
loop $-1 $170 $171 $12 #
coedge $-1 $172 $172 $156 $173 forward $98 $-1 #
coedge $-1 $99 $99 $161 $174 forward $67 $-1 #
edge $-1 $164 9.781894788530132087e-32 $162 3.141592653589793116 $99 $175 forward 7 unknown #
edge $-1 $127 0 $129 3.141592653589793116 $100 $176 forward 7 unknown #
ellipse-curve $-1 -1.762479051592435909e-16 -1.762479051592435909e-16 12.69999999999999929 0 0 -1 -5.549900000000000055 1.762479051592435909e-16 0 1 I I #
loop $-1 $177 $178 $3 #
coedge $-1 $179 $179 $180 $181 reversed $104 $-1 #
coedge $-1 $105 $105 $182 $183 reversed $75 $-1 #
coedge $-1 $184 $185 $105 $143 forward $186 $-1 #
edge $-1 $187 0 $188 3.141592653589793116 $105 $189 forward 7 unknown #
coedge $-1 $190 $191 $106 $145 forward $192 $-1 #
edge $-1 $150 0 $149 3.141592653589793116 $106 $193 forward 7 unknown #
coedge $-1 $194 $107 $191 $195 forward $148 $-1 #
coedge $-1 $107 $194 $190 $196 reversed $148 $-1 #
loop $-1 $-1 $147 $197 #
vertex $-1 $145 $198 #
vertex $-1 $145 $199 #
ellipse-curve $-1 67.56399999999999295 0 0 0 0 -1 -3.263899999999995583 0 0 1 I I #
coedge $-1 $200 $109 $112 $158 forward $154 $-1 #
coedge $-1 $109 $200 $111 $157 reversed $154 $-1 #
loop $-1 $-1 $152 $168 #
ellipse-curve $-1 57.14999999999999858 0 0 0 0 -1 1.587499999999999911 0 0 1 I I #
coedge $-1 $112 $111 $134 $173 reversed $113 $-1 #
edge $-1 $115 0 $201 0.5 $153 $202 forward 7 unknown #
edge $-1 $114 0 $203 0.5 $152 $204 forward 7 unknown #
point $-1 55.5625 0 0 #
point $-1 58.73749999999999716 0 0 #
coedge $-1 $118 $117 $135 $174 reversed $119 $-1 #
vertex $-1 $174 $205 #
straight-curve $-1 37.40149999999999864 0 0 0 -7.776250346772095392e-16 25.39999999999999858 I I #
vertex $-1 $174 $206 #
straight-curve $-1 34.22650000000000148 1.944062586693023848e-16 0 0 0 25.39999999999999858 I I #
point $-1 5.549900000000000055 0 12.69999999999999929 #
point $-1 -5.549900000000000055 0 12.69999999999999929 #
face $-1 $207 $154 $2 $-1 $208 reversed single #
cone-surface $-1 57.14999999999999858 0 0 0 0 1 1.587499999999999911 0 0 1 I I 0 1 1.587499999999999911 forward I I I I #
loop $-1 $209 $210 $12 #
coedge $-1 $211 $211 $212 $213 forward $133 $-1 #
coedge $-1 $134 $134 $200 $214 forward $98 $-1 #
edge $-1 $203 -7.82551583082410567e-31 $201 3.141592653589794448 $134 $215 forward 7 unknown #
edge $-1 $162 9.781894788530132087e-32 $164 3.141592653589793116 $135 $216 forward 7 unknown #
ellipse-curve $-1 35.81400000000000006 -1.762479051592435909e-16 12.69999999999999929 0 0 -1 -1.587499999999999911 1.762479051592435909e-16 0 1 I I #
ellipse-curve $-1 0 5.287437154777307235e-16 12.69999999999999929 0 0 -1 5.549900000000000055 -5.287437154777307235e-16 0 1 I I #
loop $-1 $217 $218 $3 #
coedge $-1 $219 $219 $220 $221 reversed $139 $-1 #
coedge $-1 $140 $140 $222 $223 reversed $104 $-1 #
coedge $-1 $224 $225 $140 $181 forward $226 $-1 #
edge $-1 $227 0 $228 3.141592653589793116 $140 $229 forward 7 unknown #
coedge $-1 $230 $231 $141 $183 forward $232 $-1 #
edge $-1 $188 0 $187 3.141592653589793116 $141 $233 forward 7 unknown #
coedge $-1 $234 $142 $231 $235 forward $186 $-1 #
coedge $-1 $142 $234 $230 $236 reversed $186 $-1 #
loop $-1 $-1 $185 $237 #
vertex $-1 $183 $238 #
vertex $-1 $183 $239 #
ellipse-curve $-1 35.81400000000000006 10.31240000000000023 0 0 0 -1 -3.263900000000001356 0 0 1 I I #
coedge $-1 $240 $144 $147 $196 forward $192 $-1 #
coedge $-1 $144 $240 $146 $195 reversed $192 $-1 #
loop $-1 $-1 $191 $241 #
ellipse-curve $-1 67.56399999999999295 0 0 0 0 -1 3.263899999999995583 0 0 1 I I #
coedge $-1 $147 $146 $242 $243 forward $148 $-1 #
edge $-1 $150 0 $244 0.25 $191 $245 forward 7 unknown #
edge $-1 $149 0 $246 0.25 $190 $247 forward 7 unknown #
face $-1 $241 $148 $2 $-1 $248 reversed single #
point $-1 64.30010000000000048 0 0 #
point $-1 70.82789999999999964 0 0 #
coedge $-1 $153 $152 $172 $214 reversed $154 $-1 #
vertex $-1 $214 $249 #
straight-curve $-1 58.73749999999999716 0 0 0 -7.776250346772095392e-16 25.39999999999999858 I I #
vertex $-1 $214 $250 #
straight-curve $-1 55.5625 1.944062586693023848e-16 0 0 0 25.39999999999999858 I I #
point $-1 37.40149999999999864 0 12.69999999999999929 #
point $-1 34.22650000000000148 0 12.69999999999999929 #
face $-1 $251 $252 $2 $-1 $253 reversed single #
cone-surface $-1 57.14999999999999858 0 0 0 0 1 1.587499999999999911 0 0 1 I I 0 1 1.587499999999999911 forward I I I I #
loop $-1 $254 $255 $12 #
coedge $-1 $256 $256 $257 $258 forward $170 $-1 #
coedge $-1 $171 $171 $259 $260 forward $133 $-1 #
coedge $-1 $261 $262 $171 $213 reversed $252 $-1 #
edge $-1 $263 0 $264 3.141592653589793116 $171 $265 forward 7 unknown #
edge $-1 $201 -7.82551583082410567e-31 $203 3.141592653589794448 $172 $266 forward 7 unknown #
ellipse-curve $-1 57.14999999999999858 1.321859288694327006e-15 12.69999999999999929 0 0 -1 -1.587499999999999911 -1.321859288694327006e-15 0 1 I I #
ellipse-curve $-1 35.81400000000000006 1.762479051592435909e-16 12.69999999999999929 0 0 -1 1.587499999999999911 -1.762479051592435909e-16 0 1 I I #
loop $-1 $267 $268 $3 #
coedge $-1 $269 $269 $270 $271 reversed $177 $-1 #
coedge $-1 $178 $178 $272 $273 reversed $139 $-1 #
coedge $-1 $262 $261 $178 $221 forward $252 $-1 #
edge $-1 $274 0 $275 3.141592653589793116 $178 $276 forward 7 unknown #
coedge $-1 $277 $278 $179 $223 forward $279 $-1 #
edge $-1 $228 0 $227 3.141592653589793116 $179 $280 forward 7 unknown #
coedge $-1 $281 $180 $278 $282 forward $226 $-1 #
coedge $-1 $180 $281 $277 $283 reversed $226 $-1 #
loop $-1 $-1 $225 $284 #
vertex $-1 $223 $285 #
vertex $-1 $223 $286 #
ellipse-curve $-1 35.81400000000000006 -10.31240000000000023 0 0 0 -1 -3.263900000000001356 0 0 1 I I #
coedge $-1 $287 $182 $185 $236 forward $232 $-1 #
coedge $-1 $182 $287 $184 $235 reversed $232 $-1 #
loop $-1 $-1 $231 $288 #
ellipse-curve $-1 35.81400000000000006 10.31240000000000023 0 0 0 -1 3.263900000000001356 0 0 1 I I #
coedge $-1 $185 $184 $289 $290 forward $186 $-1 #
edge $-1 $188 0 $291 0.25 $231 $292 forward 7 unknown #
edge $-1 $187 0 $293 0.25 $230 $294 forward 7 unknown #
face $-1 $288 $186 $2 $-1 $295 reversed single #
point $-1 32.55010000000000048 10.31240000000000023 0 #
point $-1 39.07789999999999964 10.31240000000000023 0 #
coedge $-1 $191 $190 $296 $297 forward $192 $-1 #
face $-1 $298 $192 $2 $-1 $299 reversed single #
coedge $-1 $296 $296 $194 $243 reversed $300 $-1 #
edge $-1 $244 3.998715488354299815e-30 $246 3.141592653589795336 $194 $301 forward 7 unknown #
vertex $-1 $297 $302 #
straight-curve $-1 70.82789999999999964 0 0 0 -3.197594142592685636e-15 25.39999999999999858 I I #
vertex $-1 $297 $303 #
straight-curve $-1 64.30010000000000048 3.996992678240857046e-16 0 0 0 25.39999999999999858 I I #
cone-surface $-1 67.56399999999999295 0 0 0 0 1 3.263900000000000023 0 0 1 I I 0 1 3.263900000000000023 forward I I I I #
point $-1 58.73749999999999716 0 12.69999999999999929 #
point $-1 55.5625 0 12.69999999999999929 #
face $-1 $304 $305 $2 $-1 $306 reversed single #
loop $-1 $-1 $262 $207 #
cone-surface $-1 -152.3999999999999773 14.27480000000000082 0 0 0 1 3.174999999999999822 0 0 1 I I 0 1 3.174999999999999822 forward I I I I #
loop $-1 $307 $308 $12 #
coedge $-1 $309 $309 $310 $311 forward $209 $-1 #
coedge $-1 $210 $210 $312 $313 forward $170 $-1 #
coedge $-1 $314 $315 $210 $258 reversed $316 $-1 #
edge $-1 $317 0 $318 3.141592653589793116 $210 $319 forward 7 unknown #
coedge $-1 $320 $321 $211 $260 reversed $305 $-1 #
edge $-1 $264 0 $263 3.141592653589793116 $211 $322 forward 7 unknown #
coedge $-1 $220 $212 $321 $323 reversed $252 $-1 #
coedge $-1 $212 $220 $320 $324 forward $252 $-1 #
vertex $-1 $260 $325 #
vertex $-1 $260 $326 #
ellipse-curve $-1 -152.3999999999999773 14.27480000000000082 12.69999999999999929 0 0 -1 -3.174999999999999822 0 0 1 I I #
ellipse-curve $-1 57.14999999999999858 -1.321859288694327006e-15 12.69999999999999929 0 0 -1 1.587499999999999911 1.321859288694327006e-15 0 1 I I #
loop $-1 $327 $328 $3 #
coedge $-1 $329 $329 $330 $331 reversed $217 $-1 #
coedge $-1 $218 $218 $332 $333 reversed $177 $-1 #
coedge $-1 $315 $314 $218 $271 forward $316 $-1 #
edge $-1 $334 0 $335 3.141592653589793116 $218 $336 forward 7 unknown #
coedge $-1 $321 $320 $219 $273 forward $305 $-1 #
edge $-1 $275 0 $274 3.141592653589793116 $219 $337 forward 7 unknown #
vertex $-1 $273 $338 #
vertex $-1 $273 $339 #
ellipse-curve $-1 -152.3999999999999773 14.27480000000000082 0 0 0 -1 -3.174999999999999822 0 0 1 I I #
coedge $-1 $340 $222 $225 $283 forward $279 $-1 #
coedge $-1 $222 $340 $224 $282 reversed $279 $-1 #
loop $-1 $-1 $278 $341 #
ellipse-curve $-1 35.81400000000000006 -10.31240000000000023 0 0 0 -1 3.263900000000001356 0 0 1 I I #
coedge $-1 $225 $224 $342 $343 forward $226 $-1 #
edge $-1 $228 0 $344 0.25 $278 $345 forward 7 unknown #
edge $-1 $227 0 $346 0.25 $277 $347 forward 7 unknown #
face $-1 $341 $226 $2 $-1 $348 reversed single #
point $-1 32.55010000000000048 -10.31240000000000023 0 #
point $-1 39.07789999999999964 -10.31240000000000023 0 #
coedge $-1 $231 $230 $349 $350 forward $232 $-1 #
face $-1 $-1 $232 $2 $-1 $351 reversed single #
coedge $-1 $349 $349 $234 $290 reversed $352 $-1 #
edge $-1 $291 -2.074928904137205103e-16 $293 3.141592653589790896 $234 $353 forward 7 unknown #
vertex $-1 $350 $354 #
straight-curve $-1 39.07789999999999964 10.31240000000000023 0 0 -5.63993296509579491e-15 25.39999999999999858 I I #
vertex $-1 $350 $355 #
straight-curve $-1 32.55010000000000048 10.31240000000000023 0 0 0 25.39999999999999858 I I #
cone-surface $-1 35.81400000000000006 10.31240000000000023 0 0 0 1 3.263900000000000023 0 0 1 I I 0 1 3.263900000000000023 forward I I I I #
coedge $-1 $242 $242 $240 $297 reversed $300 $-1 #
edge $-1 $246 -1.036704015499267528e-30 $244 3.141592653589795336 $240 $356 forward 7 unknown #
face $-1 $357 $358 $2 $-1 $359 reversed single #
cone-surface $-1 67.56399999999999295 0 0 0 0 1 3.263900000000000023 0 0 1 I I 0 1 3.263900000000000023 forward I I I I #
loop $-1 $-1 $242 $360 #
ellipse-curve $-1 67.56399999999999295 3.877453913503358902e-15 6.349999999999999645 0 0 1 3.263899999999995583 -3.877453913503358902e-15 0 1 I I #
point $-1 70.82789999999999964 0 6.349999999999999645 #
point $-1 64.30010000000000048 0 6.349999999999999645 #
face $-1 $361 $316 $2 $-1 $362 reversed single #
loop $-1 $-1 $321 $251 #
cone-surface $-1 -152.3999999999999773 14.27480000000000082 0 0 0 1 3.174999999999999822 0 0 1 I I 0 1 3.174999999999999822 forward I I I I #
loop $-1 $363 $364 $12 #
coedge $-1 $365 $365 $366 $367 forward $254 $-1 #
coedge $-1 $255 $255 $368 $369 forward $209 $-1 #
coedge $-1 $370 $371 $255 $311 reversed $372 $-1 #
edge $-1 $373 0 $374 3.141592653589793116 $255 $375 forward 7 unknown #
coedge $-1 $376 $377 $256 $313 reversed $378 $-1 #
edge $-1 $318 0 $317 3.141592653589793116 $256 $379 forward 7 unknown #
coedge $-1 $270 $257 $377 $380 reversed $316 $-1 #
coedge $-1 $257 $270 $376 $381 forward $316 $-1 #
loop $-1 $-1 $315 $304 #
vertex $-1 $313 $382 #
vertex $-1 $313 $383 #
ellipse-curve $-1 -130.1749999999999829 14.27480000000000082 12.69999999999999929 0 0 -1 -3.174999999999999822 0 0 1 I I #
coedge $-1 $272 $259 $262 $324 reversed $305 $-1 #
coedge $-1 $259 $272 $261 $323 forward $305 $-1 #
ellipse-curve $-1 -152.3999999999999773 14.27480000000000082 12.69999999999999929 0 0 -1 3.174999999999999822 0 0 1 I I #
edge $-1 $274 0 $263 0.5 $321 $384 forward 7 unknown #
edge $-1 $275 0 $264 0.5 $320 $385 forward 7 unknown #
point $-1 -155.5749999999999886 14.27480000000000082 12.69999999999999929 #
point $-1 -149.2249999999999943 14.27480000000000082 12.69999999999999929 #
loop $-1 $386 $387 $3 #
coedge $-1 $388 $388 $389 $390 reversed $267 $-1 #
coedge $-1 $268 $268 $391 $392 reversed $217 $-1 #
coedge $-1 $371 $370 $268 $331 forward $372 $-1 #
edge $-1 $393 0 $394 3.141592653589793116 $268 $395 forward 7 unknown #
coedge $-1 $377 $376 $269 $333 forward $378 $-1 #
edge $-1 $335 0 $334 3.141592653589793116 $269 $396 forward 7 unknown #
vertex $-1 $333 $397 #
vertex $-1 $333 $398 #
ellipse-curve $-1 -130.1749999999999829 14.27480000000000082 0 0 0 -1 -3.174999999999999822 0 0 1 I I #
ellipse-curve $-1 -152.3999999999999773 14.27480000000000082 0 0 0 -1 3.174999999999999822 0 0 1 I I #
point $-1 -155.5749999999999886 14.27480000000000082 0 #
point $-1 -149.2249999999999943 14.27480000000000082 0 #
coedge $-1 $278 $277 $399 $400 forward $279 $-1 #
face $-1 $401 $279 $2 $-1 $402 reversed single #
coedge $-1 $399 $399 $281 $343 reversed $403 $-1 #
edge $-1 $344 -2.074928904137205103e-16 $346 3.141592653589790896 $281 $404 forward 7 unknown #
vertex $-1 $400 $405 #
straight-curve $-1 39.07789999999999964 -10.31240000000000023 0 0 -5.63993296509579491e-15 25.39999999999999858 I I #
vertex $-1 $400 $406 #
straight-curve $-1 32.55010000000000048 -10.31240000000000023 0 0 0 25.39999999999999858 I I #
cone-surface $-1 35.81400000000000006 -10.31240000000000023 0 0 0 1 3.263900000000000023 0 0 1 I I 0 1 3.263900000000000023 forward I I I I #
coedge $-1 $289 $289 $287 $350 reversed $352 $-1 #
edge $-1 $293 -2.074928904137205103e-16 $291 3.141592653589790896 $287 $407 forward 7 unknown #
cone-surface $-1 35.81400000000000006 10.31240000000000023 0 0 0 1 3.263900000000000023 0 0 1 I I 0 1 3.263900000000000023 forward I I I I #
loop $-1 $-1 $289 $408 #
ellipse-curve $-1 35.81400000000000006 10.31239999999999668 6.349999999999999645 0 0 1 3.263900000000001356 4.229949723821845788e-15 0 1 I I #
point $-1 39.07789999999999964 10.31240000000000023 6.349999999999999645 #
point $-1 32.55010000000000048 10.31240000000000023 6.349999999999999645 #
ellipse-curve $-1 67.56399999999999295 -3.877453913503358902e-15 6.349999999999999645 0 0 1 -3.263899999999995583 3.877453913503358902e-15 0 1 I I #
face $-1 $409 $410 $2 $-1 $411 reversed single #
loop $-1 $-1 $412 $298 #
cone-surface $-1 35.81399999999999295 -10.31240000000000023 12.69999999999999929 0 0 -1 -5.159374999999999822 0 0 1 I I 0 1 5.159374999999999822 forward I I I I #
face $-1 $197 $413 $2 $-1 $414 reversed single #
face $-1 $415 $378 $2 $-1 $416 reversed single #
cone-surface $-1 -130.1749999999999829 14.27480000000000082 0 0 0 1 3.174999999999999822 0 0 1 I I 0 1 3.174999999999999822 forward I I I I #
loop $-1 $417 $418 $12 #
coedge $-1 $419 $420 $421 $422 forward $307 $-1 #
coedge $-1 $308 $308 $423 $424 forward $254 $-1 #
coedge $-1 $425 $426 $308 $367 reversed $427 $-1 #
edge $-1 $428 0 $429 3.141592653589793116 $308 $430 forward 7 unknown #
coedge $-1 $431 $432 $309 $369 reversed $433 $-1 #
edge $-1 $374 0 $373 3.141592653589793116 $309 $434 forward 7 unknown #
coedge $-1 $330 $310 $432 $435 reversed $372 $-1 #
coedge $-1 $310 $330 $431 $436 forward $372 $-1 #
loop $-1 $-1 $371 $415 #
vertex $-1 $369 $437 #
vertex $-1 $369 $438 #
ellipse-curve $-1 -130.1749999999999829 -14.27480000000000082 12.69999999999999929 0 0 -1 -3.174999999999999822 0 0 1 I I #
coedge $-1 $332 $312 $315 $381 reversed $378 $-1 #
coedge $-1 $312 $332 $314 $380 forward $378 $-1 #
loop $-1 $-1 $377 $361 #
ellipse-curve $-1 -130.1749999999999829 14.27480000000000082 12.69999999999999929 0 0 -1 3.174999999999999822 0 0 1 I I #
edge $-1 $334 0 $317 0.5 $377 $439 forward 7 unknown #
edge $-1 $335 0 $318 0.5 $376 $440 forward 7 unknown #
point $-1 -133.3499999999999943 14.27480000000000082 12.69999999999999929 #
point $-1 -127 14.27480000000000082 12.69999999999999929 #
straight-curve $-1 -155.5749999999999886 14.27480000000000082 0 0 0 25.39999999999999858 I I #
straight-curve $-1 -149.2249999999999943 14.27480000000000082 0 0 0 25.39999999999999858 I I #
loop $-1 $-1 $441 $3 #
coedge $-1 $442 $443 $444 $445 reversed $327 $-1 #
coedge $-1 $328 $328 $446 $447 reversed $267 $-1 #
coedge $-1 $426 $425 $328 $390 forward $427 $-1 #
edge $-1 $448 0 $449 3.141592653589793116 $328 $450 forward 7 unknown #
coedge $-1 $432 $431 $329 $392 forward $433 $-1 #
edge $-1 $394 0 $393 3.141592653589793116 $329 $451 forward 7 unknown #
vertex $-1 $392 $452 #
vertex $-1 $392 $453 #
ellipse-curve $-1 -130.1749999999999829 -14.27480000000000082 0 0 0 -1 -3.174999999999999822 0 0 1 I I #
ellipse-curve $-1 -130.1749999999999829 14.27480000000000082 0 0 0 -1 3.174999999999999822 0 0 1 I I #
point $-1 -133.3499999999999943 14.27480000000000082 0 #
point $-1 -127 14.27480000000000082 0 #
coedge $-1 $342 $342 $340 $400 reversed $403 $-1 #
edge $-1 $346 -2.074928904137205103e-16 $344 3.141592653589790896 $340 $454 forward 7 unknown #
face $-1 $455 $456 $2 $-1 $457 reversed single #
cone-surface $-1 35.81400000000000006 -10.31240000000000023 0 0 0 1 3.263900000000000023 0 0 1 I I 0 1 3.263900000000000023 forward I I I I #
loop $-1 $-1 $342 $409 #
ellipse-curve $-1 35.81400000000000006 -10.31240000000000379 6.349999999999999645 0 0 1 3.263900000000001356 4.229949723821845788e-15 0 1 I I #
point $-1 39.07789999999999964 -10.31240000000000023 6.349999999999999645 #
point $-1 32.55010000000000048 -10.31240000000000023 6.349999999999999645 #
ellipse-curve $-1 35.81400000000000006 10.31240000000000379 6.349999999999999645 0 0 1 -3.263900000000001356 -4.229949723821845788e-15 0 1 I I #
face $-1 $237 $458 $2 $-1 $459 reversed single #
face $-1 $284 $460 $2 $-1 $461 reversed single #
loop $-1 $-1 $462 $357 #
cone-surface $-1 35.81399999999999295 -10.31240000000000023 12.69999999999999929 0 0 -1 -5.159374999999999822 0 0 1 I I 0 1 5.159374999999999822 forward I I I I #
coedge $-1 $463 $464 $465 $466 forward $358 $-1 #
loop $-1 $300 $467 $360 #
plane-surface $-1 67.56399999999999295 0 6.349999999999999645 0 0 -1 -25.39999999999999858 0 0 forward_v I I I I #
face $-1 $468 $372 $2 $-1 $469 reversed single #
cone-surface $-1 -130.1749999999999829 14.27480000000000082 0 0 0 1 3.174999999999999822 0 0 1 I I 0 1 3.174999999999999822 forward I I I I #
loop $-1 $470 $471 $12 #
coedge $-1 $472 $473 $474 $475 forward $363 $-1 #
coedge $-1 $476 $364 $477 $478 forward $307 $-1 #
coedge $-1 $364 $476 $479 $480 forward $307 $-1 #
coedge $-1 $481 $482 $364 $422 reversed $483 $-1 #
edge $-1 $484 0 $485 1.499999999999999778 $364 $486 forward 7 unknown #
coedge $-1 $487 $488 $365 $424 reversed $489 $-1 #
edge $-1 $429 0 $428 3.141592653589793116 $365 $490 forward 7 unknown #
coedge $-1 $389 $366 $488 $491 reversed $427 $-1 #
coedge $-1 $366 $389 $487 $492 forward $427 $-1 #
loop $-1 $-1 $426 $493 #
vertex $-1 $424 $494 #
vertex $-1 $424 $495 #
ellipse-curve $-1 -152.3999999999999773 -14.27480000000000082 12.69999999999999929 0 0 -1 -3.174999999999999822 0 0 1 I I #
coedge $-1 $391 $368 $371 $436 reversed $433 $-1 #
coedge $-1 $368 $391 $370 $435 forward $433 $-1 #
loop $-1 $-1 $432 $468 #
ellipse-curve $-1 -130.1749999999999829 -14.27480000000000082 12.69999999999999929 0 0 -1 3.174999999999999822 0 0 1 I I #
edge $-1 $393 0 $373 0.5 $432 $496 forward 7 unknown #
edge $-1 $394 0 $374 0.5 $431 $497 forward 7 unknown #
point $-1 -133.3499999999999943 -14.27480000000000082 12.69999999999999929 #
point $-1 -127 -14.27480000000000082 12.69999999999999929 #
straight-curve $-1 -133.3499999999999943 14.27480000000000082 0 0 0 25.39999999999999858 I I #
straight-curve $-1 -127 14.27480000000000082 0 0 0 25.39999999999999858 I I #
coedge $-1 $498 $499 $500 $501 reversed $386 $-1 #
coedge $-1 $502 $387 $503 $504 reversed $327 $-1 #
coedge $-1 $387 $502 $505 $506 reversed $327 $-1 #
coedge $-1 $507 $508 $387 $445 forward $509 $-1 #
edge $-1 $510 0 $511 1.499999999999999778 $387 $512 forward 7 unknown #
coedge $-1 $488 $487 $388 $447 forward $489 $-1 #
edge $-1 $449 0 $448 3.141592653589793116 $388 $513 forward 7 unknown #
vertex $-1 $447 $514 #
vertex $-1 $447 $515 #
ellipse-curve $-1 -152.3999999999999773 -14.27480000000000082 0 0 0 -1 -3.174999999999999822 0 0 1 I I #
ellipse-curve $-1 -130.1749999999999829 -14.27480000000000082 0 0 0 -1 3.174999999999999822 0 0 1 I I #
point $-1 -133.3499999999999943 -14.27480000000000082 0 #
point $-1 -127 -14.27480000000000082 0 #
ellipse-curve $-1 35.81400000000000006 -10.31239999999999668 6.349999999999999645 0 0 1 -3.263900000000001356 -4.229949723821845788e-15 0 1 I I #
face $-1 $408 $516 $2 $-1 $517 reversed single #
loop $-1 $-1 $518 $401 #
cone-surface $-1 35.81399999999999295 10.31240000000000023 12.69999999999999929 0 0 -1 -5.159374999999999822 0 0 1 I I 0 1 5.159374999999999822 forward I I I I #
loop $-1 $352 $519 $408 #
plane-surface $-1 35.81399999999999295 10.31240000000000023 6.349999999999999645 0 0 -1 -25.39999999999999858 0 0 forward_v I I I I #
loop $-1 $403 $520 $409 #
plane-surface $-1 35.81399999999999295 -10.31240000000000023 6.349999999999999645 0 0 -1 -25.39999999999999858 0 0 forward_v I I I I #
coedge $-1 $521 $522 $523 $524 forward $410 $-1 #
coedge $-1 $523 $412 $520 $525 forward $358 $-1 #
coedge $-1 $412 $523 $526 $527 reversed $358 $-1 #
coedge $-1 $522 $521 $412 $466 reversed $410 $-1 #
edge $-1 $528 0 $529 0.25 $465 $530 forward 7 unknown #
coedge $-1 $531 $531 $532 $533 reversed $413 $-1 #
face $-1 $493 $433 $2 $-1 $534 reversed single #
cone-surface $-1 -130.1749999999999829 -14.27480000000000082 0 0 0 1 3.174999999999999822 0 0 1 I I 0 1 3.174999999999999822 forward I I I I #
loop $-1 $535 $526 $12 #
coedge $-1 $536 $536 $537 $538 forward $417 $-1 #
coedge $-1 $539 $418 $540 $541 forward $363 $-1 #
coedge $-1 $418 $539 $542 $543 forward $363 $-1 #
coedge $-1 $544 $545 $418 $475 reversed $546 $-1 #
edge $-1 $547 8.149941479051303635e-16 $548 3.14159265358979134 $418 $549 forward 7 unknown #
coedge $-1 $420 $419 $550 $551 forward $307 $-1 #
coedge $-1 $552 $553 $419 $478 reversed $554 $-1 #
edge $-1 $485 0 $555 9.25 $419 $556 forward 7 unknown #
coedge $-1 $557 $558 $420 $480 reversed $559 $-1 #
edge $-1 $560 0 $484 9.25 $420 $561 forward 7 unknown #
coedge $-1 $562 $421 $558 $563 reversed $483 $-1 #
coedge $-1 $421 $562 $552 $564 forward $483 $-1 #
loop $-1 $-1 $482 $565 #
vertex $-1 $480 $566 #
vertex $-1 $478 $567 #
straight-curve $-1 -158.75 19.04999999999999716 12.69999999999999929 0 -25.39999999999999858 0 I I #
coedge $-1 $446 $423 $426 $492 reversed $489 $-1 #
coedge $-1 $423 $446 $425 $491 forward $489 $-1 #
loop $-1 $-1 $488 $568 #
ellipse-curve $-1 -152.3999999999999773 -14.27480000000000082 12.69999999999999929 0 0 -1 3.174999999999999822 0 0 1 I I #
edge $-1 $448 0 $428 0.5 $488 $569 forward 7 unknown #
edge $-1 $449 0 $429 0.5 $487 $570 forward 7 unknown #
face $-1 $568 $427 $2 $-1 $571 reversed single #
point $-1 -155.5749999999999886 -14.27480000000000082 12.69999999999999929 #
point $-1 -149.2249999999999943 -14.27480000000000082 12.69999999999999929 #
straight-curve $-1 -133.3499999999999943 -14.27480000000000082 0 0 0 25.39999999999999858 I I #
straight-curve $-1 -127 -14.27480000000000082 0 0 0 25.39999999999999858 I I #
coedge $-1 $572 $441 $573 $574 reversed $386 $-1 #
coedge $-1 $441 $572 $575 $576 reversed $386 $-1 #
coedge $-1 $577 $578 $441 $501 forward $579 $-1 #
edge $-1 $580 5.947254592821231965e-16 $581 3.141592653589792672 $441 $582 forward 7 unknown #
coedge $-1 $443 $442 $562 $583 reversed $327 $-1 #
coedge $-1 $553 $552 $442 $504 forward $554 $-1 #
edge $-1 $584 0 $510 9.25 $442 $585 forward 7 unknown #
coedge $-1 $558 $557 $443 $506 forward $559 $-1 #
edge $-1 $511 0 $586 9.25 $443 $587 forward 7 unknown #
coedge $-1 $550 $444 $557 $588 forward $509 $-1 #
coedge $-1 $444 $550 $553 $589 reversed $509 $-1 #
loop $-1 $-1 $507 $590 #
vertex $-1 $504 $591 #
vertex $-1 $506 $592 #
straight-curve $-1 76.19999999999998863 -19.04999999999999716 0 0 25.39999999999999858 0 I I #
ellipse-curve $-1 -152.3999999999999773 -14.27480000000000082 0 0 0 -1 3.174999999999999822 0 0 1 I I #
point $-1 -155.5749999999999886 -14.27480000000000082 0 #
point $-1 -149.2249999999999943 -14.27480000000000082 0 #
loop $-1 $-1 $593 $455 #
cone-surface $-1 35.81399999999999295 10.31240000000000023 12.69999999999999929 0 0 -1 -5.159374999999999822 0 0 1 I I 0 1 5.159374999999999822 forward I I I I #
coedge $-1 $594 $595 $596 $597 forward $456 $-1 #
coedge $-1 $598 $598 $594 $599 reversed $458 $-1 #
coedge $-1 $600 $600 $463 $525 reversed $460 $-1 #
coedge $-1 $465 $462 $600 $601 forward $410 $-1 #
coedge $-1 $462 $465 $602 $603 reversed $410 $-1 #
coedge $-1 $464 $463 $462 $524 reversed $358 $-1 #
edge $-1 $604 0 $605 0.25 $462 $606 forward 7 unknown #
edge $-1 $529 -1.42022472926004129e-16 $605 3.141592653589794448 $520 $607 forward 7 unknown #
coedge $-1 $602 $602 $464 $527 forward $470 $-1 #
edge $-1 $528 0 $604 3.141592653589793116 $526 $608 forward 7 unknown #
vertex $-1 $603 $609 #
vertex $-1 $601 $610 #
straight-curve $-1 40.97337499999999721 -10.31240000000000023 12.69999999999999929 0 0 -25.39999999999999858 I I #
coedge $-1 $467 $467 $611 $612 reversed $413 $-1 #
coedge $-1 $613 $614 $467 $533 forward $615 $-1 #
edge $-1 $616 2.370807162947887435e-31 $617 3.141592653589793116 $467 $618 forward 7 unknown #
cone-surface $-1 -130.1749999999999829 -14.27480000000000082 0 0 0 1 3.174999999999999822 0 0 1 I I 0 1 3.174999999999999822 forward I I I I #
loop $-1 $-1 $619 $12 #
coedge $-1 $471 $471 $620 $621 forward $417 $-1 #
coedge $-1 $614 $613 $471 $538 reversed $615 $-1 #
edge $-1 $622 0 $623 3.141592653589793116 $471 $624 forward 7 unknown #
coedge $-1 $473 $472 $625 $626 forward $363 $-1 #
coedge $-1 $627 $628 $472 $541 reversed $629 $-1 #
edge $-1 $548 -5.691754415787547686e-16 $630 1.945729537366547524 $472 $631 forward 7 unknown #
coedge $-1 $632 $633 $473 $543 reversed $634 $-1 #
edge $-1 $635 6.352607680785837284e-18 $547 1.945729537366548412 $473 $636 forward 7 unknown #
coedge $-1 $637 $474 $633 $638 reversed $546 $-1 #
coedge $-1 $474 $637 $627 $639 forward $546 $-1 #
loop $-1 $-1 $545 $640 #
vertex $-1 $543 $641 #
vertex $-1 $541 $642 #
ellipse-curve $-1 -82.36427481358026625 -2.16400690622525893 12.69999999999999929 0 0 -1 1.082003453112624802 -6.257137406790135081 0 1 I I #
coedge $-1 $508 $507 $476 $551 reversed $509 $-1 #
edge $-1 $555 0 $560 1.499999999999999778 $476 $643 forward 7 unknown #
coedge $-1 $503 $477 $482 $564 reversed $554 $-1 #
coedge $-1 $477 $503 $508 $589 forward $554 $-1 #
loop $-1 $-1 $553 $644 #
vertex $-1 $551 $645 #
straight-curve $-1 -158.75 -19.04999999999999716 12.69999999999999929 25.39999999999999858 0 0 I I #
coedge $-1 $505 $479 $507 $588 reversed $559 $-1 #
coedge $-1 $479 $505 $481 $563 forward $559 $-1 #
loop $-1 $-1 $558 $646 #
vertex $-1 $480 $647 #
straight-curve $-1 76.19999999999998863 19.04999999999999716 12.69999999999999929 -25.39999999999999858 0 0 I I #
coedge $-1 $482 $481 $502 $583 forward $483 $-1 #
edge $-1 $586 0 $484 0.5 $558 $648 forward 7 unknown #
edge $-1 $584 0 $485 0.5 $482 $649 forward 7 unknown #
face $-1 $644 $483 $2 $-1 $650 forward single #
point $-1 -158.75 19.04999999999999716 12.69999999999999929 #
point $-1 -158.75 -19.04999999999999716 12.69999999999999929 #
face $-1 $565 $489 $2 $-1 $651 reversed single #
straight-curve $-1 -155.5749999999999886 -14.27480000000000082 0 0 0 25.39999999999999858 I I #
straight-curve $-1 -149.2249999999999943 -14.27480000000000082 0 0 0 25.39999999999999858 I I #
cone-surface $-1 -152.3999999999999773 -14.27480000000000082 0 0 0 1 3.174999999999999822 0 0 1 I I 0 1 3.174999999999999822 forward I I I I #
coedge $-1 $499 $498 $637 $652 reversed $386 $-1 #
coedge $-1 $628 $627 $498 $574 forward $629 $-1 #
edge $-1 $653 0 $580 1.945729537366547524 $498 $654 forward 7 unknown #
coedge $-1 $633 $632 $499 $576 forward $634 $-1 #
edge $-1 $581 6.352607680785837284e-18 $655 1.945729537366548412 $499 $656 forward 7 unknown #
coedge $-1 $625 $500 $632 $657 forward $579 $-1 #
coedge $-1 $500 $625 $628 $658 reversed $579 $-1 #
loop $-1 $-1 $577 $659 #
vertex $-1 $574 $660 #
vertex $-1 $576 $661 #
ellipse-curve $-1 -33.66548652656953067 6.257137406790128864 0 0 0 -1 -1.082003453112630575 6.257137406790128864 0 1 I I #
edge $-1 $586 0 $584 1.499999999999999778 $502 $662 forward 7 unknown #
vertex $-1 $583 $663 #
straight-curve $-1 -158.75 -19.04999999999999716 0 25.39999999999999858 0 0 I I #
vertex $-1 $506 $664 #
straight-curve $-1 76.19999999999998863 19.04999999999999716 0 -25.39999999999999858 0 0 I I #
edge $-1 $511 0 $560 0.5 $557 $665 forward 7 unknown #
edge $-1 $510 0 $555 0.5 $553 $666 forward 7 unknown #
face $-1 $646 $509 $2 $-1 $667 forward single #
point $-1 76.19999999999998863 -19.04999999999999716 0 #
point $-1 76.19999999999998863 19.04999999999999716 0 #
coedge $-1 $668 $669 $670 $671 forward $516 $-1 #
coedge $-1 $670 $518 $519 $599 forward $456 $-1 #
coedge $-1 $518 $670 $619 $672 reversed $456 $-1 #
coedge $-1 $669 $668 $518 $597 reversed $516 $-1 #
edge $-1 $673 0 $674 0.25 $596 $675 forward 7 unknown #
coedge $-1 $519 $519 $668 $676 reversed $458 $-1 #
edge $-1 $674 0 $677 3.141592653589793116 $519 $678 forward 7 unknown #
coedge $-1 $520 $520 $521 $601 reversed $460 $-1 #
edge $-1 $605 0 $529 3.141592653589793116 $600 $679 forward 7 unknown #
coedge $-1 $526 $526 $522 $603 forward $470 $-1 #
edge $-1 $604 -7.101123646300234801e-17 $528 3.141592653589793116 $602 $680 forward 7 unknown #
vertex $-1 $603 $681 #
vertex $-1 $601 $682 #
straight-curve $-1 30.65462499999999579 -10.31240000000000023 12.69999999999999929 0 0 -25.39999999999999858 I I #
ellipse-curve $-1 35.81400000000000006 -10.31240000000000379 6.349999999999999645 0 0 -1 5.159374999999994493 2.819966482547897455e-15 0 1 I I #
ellipse-curve $-1 35.81399999999999295 -10.31240000000000023 12.69999999999999929 0 0 -1 5.159374999999999822 0 0 1 I I #
point $-1 40.97337499999999721 -10.31240000000000023 12.69999999999999929 #
point $-1 40.97337499999999721 -10.31240000000000023 6.349999999999999645 #
coedge $-1 $683 $684 $531 $612 forward $685 $-1 #
edge $-1 $617 -1.926280819895166423e-31 $616 3.141592653589793116 $531 $686 forward 7 unknown #
coedge $-1 $537 $532 $684 $687 reversed $615 $-1 #
coedge $-1 $532 $537 $683 $688 forward $615 $-1 #
loop $-1 $-1 $614 $689 #
vertex $-1 $612 $690 #
vertex $-1 $612 $691 #
ellipse-curve $-1 67.56399999999999295 -5.287437154777307235e-16 6.349999999999999645 0 0 -1 5.159374999999999822 5.287437154777307235e-16 0 1 I I #
coedge $-1 $692 $692 $595 $672 forward $535 $-1 #
coedge $-1 $684 $683 $536 $621 reversed $685 $-1 #
edge $-1 $623 0 $622 3.141592653589793116 $536 $693 forward 7 unknown #
vertex $-1 $621 $694 #
vertex $-1 $621 $695 #
ellipse-curve $-1 67.56399999999999295 0 12.69999999999999929 0 0 -1 5.159374999999999822 0 0 1 I I #
coedge $-1 $578 $577 $539 $626 reversed $579 $-1 #
edge $-1 $630 6.82832934731326655e-16 $635 3.141592653589792672 $539 $696 forward 7 unknown #
coedge $-1 $573 $540 $545 $639 reversed $629 $-1 #
coedge $-1 $540 $573 $578 $658 forward $629 $-1 #
loop $-1 $-1 $628 $697 #
vertex $-1 $626 $698 #
straight-curve $-1 -83.44627826669288595 4.093130500564863716 12.69999999999999929 25.02854962716052611 4.328013812450528519 0 I I #
coedge $-1 $575 $542 $577 $657 reversed $634 $-1 #
coedge $-1 $542 $575 $544 $638 forward $634 $-1 #
loop $-1 $-1 $633 $699 #
vertex $-1 $543 $700 #
straight-curve $-1 -32.58348307345689676 9.469582466547728421e-16 12.69999999999999929 -25.02854962716052611 -4.328013812450527631 0 I I #
coedge $-1 $545 $544 $572 $652 forward $546 $-1 #
edge $-1 $655 0 $547 0.5 $633 $701 forward 7 unknown #
edge $-1 $653 9.705473735494732407e-33 $548 0.5 $545 $702 forward 7 unknown #
face $-1 $697 $546 $2 $-1 $703 reversed single #
point $-1 -81.28227136046764656 -8.4211443130153949 12.69999999999999929 #
point $-1 -83.44627826669290016 4.093130500564861052 12.69999999999999929 #
straight-curve $-1 76.19999999999998863 -19.04999999999999716 12.69999999999999929 0 25.39999999999999858 0 I I #
face $-1 $590 $554 $2 $-1 $704 forward single #
point $-1 76.19999999999998863 -19.04999999999999716 12.69999999999999929 #
face $-1 $640 $559 $2 $-1 $705 forward single #
point $-1 76.19999999999998863 19.04999999999999716 12.69999999999999929 #
straight-curve $-1 -158.75 19.04999999999999716 0 0 0 25.39999999999999858 I I #
straight-curve $-1 -158.75 -19.04999999999999716 0 0 0 25.39999999999999858 I I #
plane-surface $-1 -158.75 19.04999999999999716 0 -1 0 0 0 -25.39999999999999858 0 forward_v I I I I #
cone-surface $-1 -152.3999999999999773 -14.27480000000000082 0 0 0 1 3.174999999999999822 0 0 1 I I 0 1 3.174999999999999822 forward I I I I #
edge $-1 $655 8.370210167674330524e-16 $653 3.141592653589794004 $572 $706 forward 7 unknown #
vertex $-1 $652 $707 #
straight-curve $-1 -83.44627826669288595 4.093130500564863716 0 25.02854962716052611 4.328013812450528519 0 I I #
vertex $-1 $576 $708 #
straight-curve $-1 -32.58348307345689676 9.469582466547728421e-16 0 -25.02854962716052611 -4.328013812450527631 0 I I #
edge $-1 $581 3.851859888774471706e-32 $635 0.5 $632 $709 forward 7 unknown #
edge $-1 $580 0 $630 0.5 $628 $710 forward 7 unknown #
face $-1 $699 $579 $2 $-1 $711 reversed single #
point $-1 -34.74748997968215747 12.51427481358025773 0 #
point $-1 -32.58348307345689676 0 0 #
straight-curve $-1 -158.75 19.04999999999999716 0 0 -25.39999999999999858 0 I I #
point $-1 -158.75 -19.04999999999999716 0 #
point $-1 -158.75 19.04999999999999716 0 #
straight-curve $-1 76.19999999999998863 19.04999999999999716 0 0 0 25.39999999999999858 I I #
straight-curve $-1 76.19999999999998863 -19.04999999999999716 0 0 0 25.39999999999999858 I I #
plane-surface $-1 76.19999999999998863 -19.04999999999999716 0 1 0 0 0 25.39999999999999858 0 forward_v I I I I #
coedge $-1 $596 $593 $598 $676 forward $516 $-1 #
coedge $-1 $593 $596 $692 $712 reversed $516 $-1 #
coedge $-1 $595 $594 $593 $671 reversed $456 $-1 #
edge $-1 $713 0 $677 0.25 $593 $714 forward 7 unknown #
edge $-1 $673 0 $713 3.141592653589793116 $619 $715 forward 7 unknown #
vertex $-1 $712 $716 #
vertex $-1 $676 $717 #
straight-curve $-1 40.97337499999999721 10.31240000000000023 12.69999999999999929 0 0 -25.39999999999999858 I I #
edge $-1 $677 -1.42022472926004129e-16 $674 3.141592653589794448 $598 $718 forward 7 unknown #
vertex $-1 $676 $719 #
ellipse-curve $-1 35.81400000000000006 10.31240000000000023 6.349999999999999645 0 0 -1 5.159374999999994493 0 0 1 I I #
ellipse-curve $-1 35.81399999999999295 -10.31240000000000023 6.349999999999999645 0 0 -1 -5.159374999999994493 0 0 1 I I #
ellipse-curve $-1 35.81399999999999295 -10.31240000000000023 12.69999999999999929 0 0 -1 -5.159374999999999822 -1.409983241273948727e-15 0 1 I I #
point $-1 30.65462499999999579 -10.31240000000000201 12.69999999999999929 #
point $-1 30.65462499999999579 -10.31240000000000023 6.349999999999999645 #
coedge $-1 $620 $611 $614 $688 reversed $685 $-1 #
coedge $-1 $611 $620 $613 $687 forward $685 $-1 #
loop $-1 $-1 $684 $720 #
ellipse-curve $-1 67.56399999999999295 5.287437154777307235e-16 6.349999999999999645 0 0 -1 -5.159374999999999822 -5.287437154777307235e-16 0 1 I I #
edge $-1 $623 0 $617 0.25 $684 $721 forward 7 unknown #
edge $-1 $622 0 $616 0.25 $683 $722 forward 7 unknown #
face $-1 $720 $615 $2 $-1 $723 reversed single #
point $-1 72.72337500000000432 0 6.349999999999999645 #
point $-1 62.4046250000000029 0 6.349999999999999645 #
coedge $-1 $619 $619 $669 $712 forward $535 $-1 #
ellipse-curve $-1 67.56399999999999295 0 12.69999999999999929 0 0 -1 -5.159374999999999822 0 0 1 I I #
point $-1 72.72337500000000432 0 12.69999999999999929 #
point $-1 62.4046250000000029 0 12.69999999999999929 #
ellipse-curve $-1 -33.66548652656953067 6.25713740679013064 12.69999999999999929 0 0 -1 -1.082003453112630575 6.257137406790127088 0 1 I I #
face $-1 $659 $629 $2 $-1 $724 forward single #
point $-1 -34.74748997968215747 12.51427481358026128 12.69999999999999929 #
face $-1 $689 $634 $2 $-1 $725 forward single #
point $-1 -32.58348307345689676 0 12.69999999999999929 #
straight-curve $-1 -81.28227136046764656 -8.4211443130153949 0 0 0 25.39999999999999858 I I #
straight-curve $-1 -83.44627826669290016 4.093130500564864604 0 0 -7.049916206369744032e-15 25.39999999999999858 I I #
cone-surface $-1 -82.36427481358026625 -2.16400690622526648 0 0 0 1 6.349999999999999645 0 0 1 I I 0 1 6.349999999999999645 forward I I I I #
plane-surface $-1 -158.75 -19.04999999999999716 0 0 -1 0 25.39999999999999858 0 0 forward_v I I I I #
plane-surface $-1 76.19999999999998863 19.04999999999999716 0 0 1 0 -25.39999999999999858 0 0 forward_v I I I I #
ellipse-curve $-1 -82.36427481358026625 -2.16400690622526648 0 0 0 -1 1.082003453112624802 -6.257137406790127088 0 1 I I #
point $-1 -83.44627826669288595 4.093130500564863716 0 #
point $-1 -81.28227136046764656 -8.4211443130153949 0 #
straight-curve $-1 -32.58348307345689676 -3.524958103184872016e-15 0 0 7.049916206369744032e-15 25.39999999999999858 I I #
straight-curve $-1 -34.74748997968215747 12.51427481358025773 0 0 0 25.39999999999999858 I I #
cone-surface $-1 -33.66548652656953067 6.257137406790128864 0 0 0 1 6.349999999999999645 0 0 1 I I 0 1 6.349999999999999645 forward I I I I #
edge $-1 $713 -7.101123646300234801e-17 $673 3.141592653589793116 $692 $726 forward 7 unknown #
vertex $-1 $712 $727 #
straight-curve $-1 30.65462499999999579 10.31240000000000023 12.69999999999999929 0 0 -25.39999999999999858 I I #
ellipse-curve $-1 35.81399999999999295 10.31240000000000023 12.69999999999999929 0 0 -1 5.159374999999999822 0 0 1 I I #
point $-1 40.97337499999999721 10.31240000000000023 12.69999999999999929 #
point $-1 40.97337499999999721 10.31240000000000023 6.349999999999999645 #
ellipse-curve $-1 35.81399999999999295 10.31240000000000379 6.349999999999999645 0 0 -1 -5.159374999999994493 -2.819966482547897455e-15 0 1 I I #
point $-1 30.65462499999999579 10.31240000000000023 6.349999999999999645 #
face $-1 $360 $685 $2 $-1 $728 reversed single #
straight-curve $-1 62.4046250000000029 0 12.69999999999999929 0 0 -25.39999999999999858 I I #
straight-curve $-1 72.72337500000000432 6.318203406752327075e-16 12.69999999999999929 0 0 -25.39999999999999858 I I #
cone-surface $-1 67.56399999999999295 0 12.69999999999999929 0 0 -1 -5.159374999999999822 0 0 1 I I 0 1 5.159374999999999822 forward I I I I #
plane-surface $-1 -83.44627826669290016 4.093130500564861052 0 0.1703942445846664822 -0.985375969573249133 0 25.02854962716052611 4.328013812450528519 0 forward_v I I I I #
plane-surface $-1 -32.58348307345689676 0 0 -0.1703942445846664544 0.985375969573249133 0 -25.02854962716052611 -4.328013812450527631 0 forward_v I I I I #
ellipse-curve $-1 35.81399999999999295 10.31240000000000023 12.69999999999999929 0 0 -1 -5.159374999999999822 -1.409983241273948727e-15 0 1 I I #
point $-1 30.65462499999999579 10.31239999999999846 12.69999999999999929 #
cone-surface $-1 67.56399999999999295 0 12.69999999999999929 0 0 -1 -5.159374999999999822 0 0 1 I I 0 1 5.159374999999999822 forward I I I I #
End-of-ACIS-data 