106 0 1 0           
body $-1 $1 $-1 $-1 #
lump $-1 $-1 $2 $0 #
shell $-1 $-1 $-1 $3 $1 #
face $-1 $4 $5 $2 $-1 $6 reversed single #
face $-1 $7 $8 $2 $-1 $9 forward single #
loop $-1 $-1 $10 $3 #
cone-surface $-1 -10 0 0 0 0 1 5 0 0 1 I I 0 1 0 I I I I #
face $-1 $11 $12 $2 $-1 $13 forward single #
loop $-1 $-1 $14 $4 #
plane-surface $-1 0 0 -10 0 0 1 1 0 0 0 I I I I #
coedge $-1 $15 $16 $17 $18 1 $5 $-1 #
face $-1 $19 $20 $2 $-1 $21 reversed single #
loop $-1 $-1 $22 $7 #
plane-surface $-1 -10 0 0 1 0 0 0 0 -1 0 I I I I #
coedge $-1 $23 $24 $16 $25 0 $8 $-1 #
coedge $-1 $26 $10 $27 $28 0 $5 $-1 #
coedge $-1 $10 $26 $14 $25 1 $5 $-1 #
coedge $-1 $29 $30 $10 $18 0 $31 $-1 #
edge $-1 $32 $33 $17 $34 0 #
face $-1 $35 $36 $2 $-1 $37 forward single #
loop $-1 $-1 $38 $11 #
cone-surface $-1 10 0 0 0 0 1 5 0 0 1 I I 0 1 0 I I I I #
coedge $-1 $39 $40 $26 $41 0 $12 $-1 #
coedge $-1 $42 $14 $40 $43 0 $8 $-1 #
coedge $-1 $14 $44 $29 $45 0 $8 $-1 #
edge $-1 $33 $46 $14 $47 0 #
coedge $-1 $16 $15 $22 $41 1 $5 $-1 #
coedge $-1 $48 $49 $15 $28 1 $50 $-1 #
edge $-1 $32 $51 $27 $52 0 #
coedge $-1 $53 $17 $24 $45 1 $31 $-1 #
coedge $-1 $17 $53 $48 $54 0 $31 $-1 #
loop $-1 $-1 $17 $55 #
vertex $-1 $54 $56 #
vertex $-1 $45 $57 #
straight-curve $-1 -10 -5 0 0 0 1 I I #
face $-1 $58 $59 $2 $-1 $37 forward single #
loop $-1 $-1 $60 $19 #
plane-surface $-1 10 0 0 -1 0 0 0 0 1 0 I I I I #
coedge $-1 $61 $62 $60 $63 1 $20 $-1 #
coedge $-1 $64 $22 $49 $65 0 $12 $-1 #
coedge $-1 $22 $64 $23 $43 1 $12 $-1 #
edge $-1 $46 $51 $22 $66 0 #
coedge $-1 $67 $23 $68 $69 0 $8 $-1 #
edge $-1 $46 $70 $23 $71 0 #
coedge $-1 $24 $72 $73 $74 0 $8 $-1 #
edge $-1 $75 $33 $24 $71 0 #
vertex $-1 $41 $76 #
ellipse-curve $-1 -10 0 -10 0 0 -1 5 0 0 1 I I #
coedge $-1 $77 $27 $30 $54 1 $50 $-1 #
coedge $-1 $27 $78 $39 $65 1 $50 $-1 #
loop $-1 $-1 $48 $58 #
vertex $-1 $28 $79 #
ellipse-curve $-1 -10 0 -15 0 0 -1 5 0 0 1 I I #
coedge $-1 $30 $29 $80 $81 1 $31 $-1 #
edge $-1 $82 $32 $30 $83 0 #
face $-1 $84 $31 $2 $-1 $13 forward single #
point $-1 -10 -5 -15 #
point $-1 -10 -5 -10 #
face $-1 $55 $50 $2 $-1 $85 forward single #
loop $-1 $-1 $86 $35 #
coedge $-1 $87 $88 $38 $63 0 $36 $-1 #
coedge $-1 $89 $38 $90 $91 0 $20 $-1 #
coedge $-1 $38 $89 $92 $93 1 $20 $-1 #
edge $-1 $94 $95 $60 $96 0 #
coedge $-1 $40 $39 $97 $98 1 $12 $-1 #
edge $-1 $51 $99 $39 $83 0 #
straight-curve $-1 -10 5 0 0 0 -1 I I #
coedge $-1 $100 $42 $101 $102 1 $8 $-1 #
coedge $-1 $97 $103 $42 $69 1 $104 $-1 #
edge $-1 $70 $105 $42 $106 0 #
vertex $-1 $98 $107 #
straight-curve $-1 -10 0 -10 0 1 0 I I #
coedge $-1 $44 $108 $109 $110 1 $8 $-1 #
coedge $-1 $111 $80 $44 $74 1 $112 $-1 #
edge $-1 $113 $75 $44 $114 0 #
vertex $-1 $74 $115 #
point $-1 -10 5 -10 #
coedge $-1 $116 $48 $117 $118 1 $50 $-1 #
coedge $-1 $49 $119 $120 $121 1 $50 $-1 #
point $-1 -10 5 -15 #
coedge $-1 $73 $117 $53 $81 0 $112 $-1 #
edge $-1 $82 $75 $80 $122 0 #
vertex $-1 $118 $123 #
straight-curve $-1 -10 0 -15 0 1 0 I I #
face $-1 $124 $112 $2 $-1 $125 forward single #
plane-surface $-1 0 0 -15 0 0 1 1 0 0 0 I I I I #
coedge $-1 $126 $127 $89 $128 0 $59 $-1 #
coedge $-1 $129 $60 $130 $131 1 $36 $-1 #
coedge $-1 $60 $129 $119 $132 0 $36 $-1 #
coedge $-1 $62 $61 $86 $128 1 $20 $-1 #
coedge $-1 $119 $116 $61 $91 1 $50 $-1 #
edge $-1 $94 $133 $90 $134 0 #
coedge $-1 $135 $130 $62 $93 0 $136 $-1 #
edge $-1 $95 $137 $92 $138 0 #
vertex $-1 $132 $139 #
vertex $-1 $131 $140 #
straight-curve $-1 10 5 0 0 0 1 I I #
coedge $-1 $120 $68 $64 $98 0 $104 $-1 #
edge $-1 $70 $99 $97 $141 0 #
vertex $-1 $121 $142 #
coedge $-1 $143 $67 $144 $145 0 $8 $-1 #
coedge $-1 $146 $147 $67 $102 0 $148 $-1 #
edge $-1 $149 $105 $101 $150 0 #
coedge $-1 $68 $151 $146 $152 1 $104 $-1 #
loop $-1 $-1 $153 $154 #
vertex $-1 $102 $155 #
straight-curve $-1 0 20 -10 -1 0 0 I I #
point $-1 -10 20 -10 #
coedge $-1 $72 $143 $156 $157 0 $8 $-1 #
coedge $-1 $158 $159 $72 $110 0 $148 $-1 #
edge $-1 $113 $160 $109 $150 0 #
coedge $-1 $161 $73 $159 $162 0 $112 $-1 #
loop $-1 $-1 $163 $84 #
vertex $-1 $110 $164 #
straight-curve $-1 0 -20 -10 1 0 0 I I #
point $-1 -10 -20 -10 #
coedge $-1 $90 $77 $126 $165 1 $50 $-1 #
coedge $-1 $80 $163 $77 $118 0 $112 $-1 #
edge $-1 $166 $82 $117 $167 0 #
coedge $-1 $78 $90 $88 $132 1 $50 $-1 #
coedge $-1 $153 $97 $78 $121 0 $104 $-1 #
edge $-1 $99 $168 $120 $169 0 #
straight-curve $-1 -10 -20 0 0 0 1 I I #
point $-1 -10 -20 -15 #
face $-1 $170 $171 $2 $-1 $172 forward single #
plane-surface $-1 0 -20 0 0 -1 0 0 0 -1 0 I I I I #
coedge $-1 $173 $86 $116 $165 0 $59 $-1 #
coedge $-1 $86 $173 $135 $174 1 $59 $-1 #
edge $-1 $137 $133 $86 $175 0 #
coedge $-1 $88 $87 $153 $176 1 $36 $-1 #
coedge $-1 $92 $177 $87 $131 0 $136 $-1 #
edge $-1 $178 $95 $130 $179 0 #
edge $-1 $168 $94 $88 $180 0 #
vertex $-1 $91 $181 #
ellipse-curve $-1 10 0 -15 0 0 -1 5 0 0 1 I I #
coedge $-1 $182 $92 $127 $174 0 $136 $-1 #
loop $-1 $-1 $92 $183 #
vertex $-1 $128 $184 #
ellipse-curve $-1 10 0 -10 0 0 -1 5 0 0 1 I I #
point $-1 10 5 -15 #
point $-1 10 5 -10 #
straight-curve $-1 -10 20 0 0 0 -1 I I #
point $-1 -10 20 -15 #
coedge $-1 $108 $100 $185 $186 0 $8 $-1 #
coedge $-1 $187 $188 $100 $145 1 $189 $-1 #
edge $-1 $149 $190 $100 $191 0 #
coedge $-1 $192 $101 $103 $152 0 $148 $-1 #
coedge $-1 $101 $193 $187 $194 1 $148 $-1 #
loop $-1 $-1 $109 $170 #
vertex $-1 $102 $195 #
straight-curve $-1 -30 0 -10 0 1 0 I I #
coedge $-1 $103 $196 $197 $198 1 $104 $-1 #
edge $-1 $105 $199 $146 $200 0 #
coedge $-1 $201 $120 $129 $176 0 $104 $-1 #
face $-1 $202 $104 $2 $-1 $203 forward single #
point $-1 -30 20 -10 #
coedge $-1 $204 $205 $108 $157 1 $206 $-1 #
edge $-1 $207 $160 $108 $208 0 #
coedge $-1 $193 $109 $205 $209 0 $148 $-1 #
coedge $-1 $109 $210 $111 $162 1 $148 $-1 #
vertex $-1 $110 $211 #
coedge $-1 $212 $111 $213 $214 1 $112 $-1 #
edge $-1 $113 $215 $111 $216 0 #
coedge $-1 $117 $217 $173 $218 0 $112 $-1 #
point $-1 -30 -20 -10 #
edge $-1 $133 $166 $126 $180 0 #
vertex $-1 $118 $219 #
straight-curve $-1 0 -20 -15 -1 0 0 I I #
vertex $-1 $121 $220 #
straight-curve $-1 0 20 -15 1 0 0 I I #
face $-1 $183 $148 $2 $-1 $221 forward single #
loop $-1 $-1 $222 $124 #
plane-surface $-1 0 -30 5 0 1 0 0 0 1 0 I I I I #
coedge $-1 $127 $126 $163 $218 1 $59 $-1 #
edge $-1 $137 $223 $135 $179 0 #
straight-curve $-1 10 -5 0 0 0 -1 I I #
edge $-1 $168 $178 $153 $224 0 #
coedge $-1 $130 $225 $201 $226 0 $136 $-1 #
vertex $-1 $226 $227 #
straight-curve $-1 10 0 -10 0 -1 0 I I #
straight-curve $-1 10 0 -15 0 -1 0 I I #
point $-1 10 -5 -15 #
coedge $-1 $228 $135 $217 $229 0 $136 $-1 #
face $-1 $230 $136 $2 $-1 $9 forward single #
point $-1 10 -5 -10 #
coedge $-1 $231 $232 $143 $186 1 $233 $-1 #
edge $-1 $190 $207 $143 $234 0 #
coedge $-1 $235 $144 $147 $194 0 $189 $-1 #
coedge $-1 $144 $235 $231 $236 1 $189 $-1 #
loop $-1 $-1 $144 $202 #
vertex $-1 $145 $237 #
straight-curve $-1 -12.5 10 -10 1 0 0 I I #
coedge $-1 $238 $146 $239 $240 1 $148 $-1 #
coedge $-1 $147 $158 $241 $242 1 $148 $-1 #
edge $-1 $149 $243 $187 $244 0 #
point $-1 -30 10 -10 #
coedge $-1 $151 $201 $245 $246 0 $104 $-1 #
coedge $-1 $247 $239 $151 $198 0 $248 $-1 #
edge $-1 $199 $249 $197 $250 0 #
vertex $-1 $198 $251 #
straight-curve $-1 -30 20 0 0 0 -1 I I #
coedge $-1 $196 $153 $177 $226 1 $104 $-1 #
face $-1 $252 $189 $2 $-1 $253 forward single #
plane-surface $-1 0 20 0 0 1 0 0 0 1 0 I I I I #
coedge $-1 $254 $156 $232 $255 0 $206 $-1 #
coedge $-1 $156 $254 $158 $209 1 $206 $-1 #
loop $-1 $-1 $156 $256 #
vertex $-1 $157 $257 #
straight-curve $-1 -12.5 -10 -10 -1 0 0 I I #
edge $-1 $160 $258 $158 $259 0 #
coedge $-1 $159 $260 $261 $262 1 $148 $-1 #
point $-1 -30 -10 -10 #
coedge $-1 $217 $161 $263 $264 1 $112 $-1 #
coedge $-1 $261 $265 $161 $214 0 $266 $-1 #
edge $-1 $267 $215 $213 $268 0 #
vertex $-1 $262 $269 #
straight-curve $-1 -30 -20 0 0 0 -1 I I #
coedge $-1 $163 $212 $182 $229 1 $112 $-1 #
edge $-1 $223 $166 $163 $270 0 #
point $-1 10 -20 -15 #
point $-1 10 20 -15 #
plane-surface $-1 -30 0 5 1 0 0 0 0 -1 0 I I I I #
coedge $-1 $271 $272 $273 $274 1 $171 $-1 #
vertex $-1 $174 $275 #
straight-curve $-1 10 20 0 0 0 1 I I #
coedge $-1 $177 $276 $277 $278 1 $136 $-1 #
edge $-1 $279 $178 $177 $106 0 #
point $-1 10 20 -10 #
coedge $-1 $280 $182 $281 $282 1 $136 $-1 #
edge $-1 $223 $283 $182 $114 0 #
face $-1 $154 $284 $2 $-1 $285 forward single #
coedge $-1 $286 $185 $188 $236 0 $233 $-1 #
coedge $-1 $185 $286 $204 $255 1 $233 $-1 #
loop $-1 $-1 $185 $252 #
straight-curve $-1 -20 0 -10 0 -1 0 I I #
coedge $-1 $188 $187 $287 $288 1 $189 $-1 #
edge $-1 $190 $289 $231 $290 0 #
point $-1 -20 10 -10 #
coedge $-1 $291 $192 $292 $293 1 $148 $-1 #
coedge $-1 $197 $294 $192 $240 0 $248 $-1 #
edge $-1 $295 $199 $239 $296 0 #
coedge $-1 $297 $287 $193 $242 0 $298 $-1 #
edge $-1 $243 $258 $241 $299 0 #
vertex $-1 $242 $300 #
straight-curve $-1 -30 10 0 0 0 -1 I I #
coedge $-1 $277 $301 $196 $246 1 $284 $-1 #
edge $-1 $279 $249 $245 $302 0 #
coedge $-1 $294 $197 $301 $303 0 $248 $-1 #
loop $-1 $298 $197 $304 #
vertex $-1 $198 $305 #
straight-curve $-1 0 20 -20 1 0 0 I I #
point $-1 -30 20 -20 #
face $-1 $256 $233 $2 $-1 $306 forward single #
plane-surface $-1 -25 10 0 0 -1 0 0 0 -1 0 I I I I #
coedge $-1 $205 $204 $297 $307 1 $206 $-1 #
edge $-1 $207 $308 $232 $309 0 #
face $-1 $310 $206 $2 $-1 $311 forward single #
point $-1 -20 -10 -10 #
vertex $-1 $307 $312 #
straight-curve $-1 -30 -10 0 0 0 -1 I I #
coedge $-1 $210 $313 $272 $314 0 $148 $-1 #
coedge $-1 $315 $213 $210 $262 0 $266 $-1 #
edge $-1 $215 $316 $261 $317 0 #
coedge $-1 $318 $281 $212 $264 0 $284 $-1 #
edge $-1 $283 $267 $263 $319 0 #
coedge $-1 $213 $315 $318 $320 0 $266 $-1 #
loop $-1 $248 $315 $304 #
vertex $-1 $214 $321 #
straight-curve $-1 0 -20 -20 -1 0 0 I I #
point $-1 -30 -20 -20 #
straight-curve $-1 10 -20 0 0 0 -1 I I #
coedge $-1 $322 $222 $323 $324 0 $171 $-1 #
coedge $-1 $222 $322 $260 $314 1 $171 $-1 #
coedge $-1 $325 $326 $222 $274 0 $327 $-1 #
edge $-1 $328 $329 $273 $330 0 #
point $-1 10 -20 -10 #
coedge $-1 $225 $331 $332 $333 0 $136 $-1 #
coedge $-1 $334 $245 $225 $278 0 $284 $-1 #
edge $-1 $279 $335 $277 $336 0 #
vertex $-1 $278 $337 #
coedge $-1 $331 $228 $338 $339 0 $136 $-1 #
coedge $-1 $263 $340 $228 $282 0 $284 $-1 #
edge $-1 $341 $283 $281 $336 0 #
vertex $-1 $282 $342 #
loop $-1 $-1 $343 $230 #
plane-surface $-1 30 0 5 -1 0 0 0 0 1 0 I I I I #
coedge $-1 $232 $231 $344 $345 1 $233 $-1 #
coedge $-1 $241 $344 $235 $288 0 $298 $-1 #
edge $-1 $289 $243 $287 $346 0 #
vertex $-1 $288 $347 #
straight-curve $-1 -20 10 0 0 0 -1 I I #
coedge $-1 $348 $238 $349 $350 1 $148 $-1 #
coedge $-1 $351 $352 $238 $293 0 $353 $-1 #
edge $-1 $354 $295 $292 $355 0 #
coedge $-1 $239 $247 $351 $356 0 $248 $-1 #
vertex $-1 $240 $357 #
straight-curve $-1 -30 12.5 -20 0 -1 0 I I #
coedge $-1 $344 $241 $254 $307 0 $298 $-1 #
loop $-1 $358 $297 $304 #
straight-curve $-1 -30 0 -20 0 -1 0 I I #
point $-1 -30 10 -20 #
coedge $-1 $245 $359 $247 $303 1 $284 $-1 #
straight-curve $-1 30 20 0 0 0 -1 I I #
edge $-1 $249 $360 $247 $361 0 #
face $-1 $362 $266 $2 $-1 $363 reversed single #
point $-1 30 20 -20 #
plane-surface $-1 -20 0 0 -1 0 0 0 0 1 0 I I I I #
edge $-1 $258 $308 $297 $364 0 #
vertex $-1 $307 $365 #
straight-curve $-1 -20 -10 0 0 0 -1 I I #
face $-1 $366 $367 $2 $-1 $368 forward single #
plane-surface $-1 -25 -10 0 0 1 0 0 0 1 0 I I I I #
point $-1 -30 -10 -20 #
coedge $-1 $260 $369 $325 $370 1 $148 $-1 #
edge $-1 $329 $316 $260 $371 0 #
coedge $-1 $265 $261 $322 $372 0 $266 $-1 #
vertex $-1 $372 $373 #
straight-curve $-1 -30 -12.5 -20 0 -1 0 I I #
coedge $-1 $323 $263 $265 $320 1 $284 $-1 #
straight-curve $-1 30 -20 0 0 0 -1 I I #
edge $-1 $374 $267 $265 $375 0 #
point $-1 30 -20 -20 #
coedge $-1 $272 $271 $315 $372 1 $171 $-1 #
coedge $-1 $376 $318 $271 $324 1 $284 $-1 #
edge $-1 $328 $374 $323 $377 0 #
coedge $-1 $378 $273 $313 $370 0 $327 $-1 #
coedge $-1 $273 $379 $376 $380 0 $327 $-1 #
loop $-1 $-1 $378 $381 #
vertex $-1 $274 $382 #
vertex $-1 $274 $383 #
straight-curve $-1 0 -30 0 -1 0 0 I I #
coedge $-1 $276 $280 $384 $385 0 $136 $-1 #
coedge $-1 $386 $387 $276 $333 1 $388 $-1 #
edge $-1 $389 $335 $276 $390 0 #
coedge $-1 $391 $277 $387 $392 0 $284 $-1 #
vertex $-1 $278 $393 #
straight-curve $-1 30 0 -10 0 -1 0 I I #
point $-1 30 20 -10 #
coedge $-1 $394 $395 $280 $339 1 $396 $-1 #
edge $-1 $341 $397 $280 $398 0 #
coedge $-1 $281 $391 $394 $399 1 $284 $-1 #
vertex $-1 $282 $400 #
point $-1 30 -20 -10 #
coedge $-1 $401 $376 $402 $403 0 $284 $-1 #
coedge $-1 $287 $297 $286 $345 0 $298 $-1 #
edge $-1 $308 $289 $344 $404 0 #
straight-curve $-1 -12.5 10 -20 -1 0 0 I I #
point $-1 -20 10 -20 #
coedge $-1 $405 $291 $406 $407 0 $148 $-1 #
coedge $-1 $408 $409 $291 $350 0 $410 $-1 #
edge $-1 $411 $354 $349 $412 0 #
coedge $-1 $413 $292 $294 $356 1 $353 $-1 #
coedge $-1 $292 $413 $408 $414 1 $353 $-1 #
loop $-1 $-1 $352 $415 #
vertex $-1 $350 $416 #
straight-curve $-1 -30 30 0 0 0 -1 I I #
edge $-1 $360 $295 $294 $417 0 #
point $-1 -30 30 -20 #
loop $-1 $418 $419 $304 #
coedge $-1 $301 $420 $413 $421 0 $284 $-1 #
vertex $-1 $356 $422 #
straight-curve $-1 30 12.5 -20 0 1 0 I I #
face $-1 $423 $424 $2 $-1 $425 forward single #
plane-surface $-1 0 0 -20 0 0 1 1 0 0 0 I I I I #
straight-curve $-1 -12.5 -10 -20 1 0 0 I I #
point $-1 -20 -10 -20 #
face $-1 $426 $388 $2 $-1 $427 forward single #
loop $-1 $-1 $384 $310 #
plane-surface $-1 20 3.0616164697184296e-16 0 1 -6.1232329394368592e-17 0 0 0 -1 0 I I I I #
coedge $-1 $313 $405 $428 $429 1 $148 $-1 #
edge $-1 $329 $430 $325 $431 0 #
straight-curve $-1 -30 -30 0 0 0 -1 I I #
edge $-1 $316 $374 $315 $432 0 #
point $-1 -30 -30 -20 #
vertex $-1 $372 $433 #
straight-curve $-1 30 -12.5 -20 0 1 0 I I #
coedge $-1 $343 $323 $326 $380 1 $284 $-1 #
straight-curve $-1 30 -30 5 0 0 -1 I I #
coedge $-1 $434 $325 $435 $436 0 $327 $-1 #
coedge $-1 $326 $437 $438 $439 0 $327 $-1 #
edge $-1 $440 $328 $326 $441 0 #
face $-1 $442 $327 $2 $-1 $443 forward single #
point $-1 30 -30 0 #
point $-1 -30 -30 0 #
coedge $-1 $444 $445 $331 $385 1 $367 $-1 #
edge $-1 $397 $389 $331 $446 0 #
coedge $-1 $447 $332 $445 $448 0 $388 $-1 #
coedge $-1 $332 $447 $334 $392 1 $388 $-1 #
loop $-1 $-1 $332 $366 #
vertex $-1 $385 $449 #
straight-curve $-1 12.5 10 -10 1 -6.1232329394368592e-17 0 I I #
coedge $-1 $340 $334 $419 $450 1 $284 $-1 #
edge $-1 $335 $451 $387 $452 0 #
point $-1 30 10 -10 #
coedge $-1 $453 $338 $340 $399 0 $396 $-1 #
coedge $-1 $338 $453 $444 $454 1 $396 $-1 #
loop $-1 $-1 $338 $426 #
vertex $-1 $339 $455 #
straight-curve $-1 12.5 -10 -10 -1 6.1232329394368592e-17 0 I I #
edge $-1 $341 $456 $394 $457 0 #
point $-1 30 -10 -10 #
coedge $-1 $458 $343 $459 $460 1 $284 $-1 #
coedge $-1 $438 $461 $343 $403 1 $462 $-1 #
edge $-1 $440 $463 $343 $464 1 #
straight-curve $-1 -20 0 -20 0 1 0 I I #
coedge $-1 $369 $348 $465 $466 1 $148 $-1 #
coedge $-1 $467 $468 $348 $407 1 $424 $-1 #
edge $-1 $411 $469 $348 $470 1 #
coedge $-1 $471 $349 $352 $414 0 $410 $-1 #
coedge $-1 $349 $472 $467 $473 0 $410 $-1 #
loop $-1 $-1 $409 $474 #
vertex $-1 $350 $475 #
straight-curve $-1 -30 15 0 0 1 0 I I #
coedge $-1 $352 $351 $359 $421 1 $353 $-1 #
edge $-1 $354 $476 $408 $477 0 #
face $-1 $478 $353 $2 $-1 $479 forward single #
point $-1 -30 30 0 #
straight-curve $-1 0 30 -20 -1 0 0 I I #
loop $-1 $-1 $480 $304 #
coedge $-1 $481 $482 $391 $450 0 $358 $-1 #
coedge $-1 $359 $458 $471 $483 1 $284 $-1 #
edge $-1 $476 $360 $359 $484 0 #
point $-1 30 30 -20 #
face $-1 $485 $462 $2 $-1 $486 forward single #
loop $-1 $-1 $487 $362 #
cone-surface $-1 -35 20 0 0 0 1 5 0 0 1 I I 0 1 0 I I I I #
face $-1 $488 $396 $2 $-1 $489 forward single #
plane-surface $-1 25 10 0 -6.1232329394368592e-17 -1 0 0 0 1 0 I I I I #
coedge $-1 $490 $435 $369 $429 0 $491 $-1 #
edge $-1 $430 $492 $369 $493 0 #
vertex $-1 $436 $494 #
straight-curve $-1 -30 -15 0 0 1 0 I I #
straight-curve $-1 0 -30 -20 1 0 0 I I #
point $-1 30 -30 -20 #
coedge $-1 $495 $378 $496 $497 1 $327 $-1 #
coedge $-1 $428 $498 $378 $436 1 $491 $-1 #
edge $-1 $430 $499 $378 $500 0 #
coedge $-1 $379 $495 $501 $502 1 $327 $-1 #
coedge $-1 $503 $402 $379 $439 1 $462 $-1 #
edge $-1 $504 $440 $379 $505 0 #
vertex $-1 $403 $506 #
straight-curve $-1 30 -15 0 0 -1 0 I I #
face $-1 $304 $507 $2 $-1 $508 reversed single #
plane-surface $-1 0 -30 0 0 0 1 1 0 0 0 I I I I #
coedge $-1 $509 $384 $395 $454 0 $367 $-1 #
coedge $-1 $384 $509 $386 $448 1 $367 $-1 #
straight-curve $-1 20 -4.5924247045776444e-16 -10 6.1232329394368592e-17 1 0 I I #
coedge $-1 $387 $386 $481 $510 1 $388 $-1 #
edge $-1 $389 $511 $386 $512 0 #
point $-1 20 10 -10 #
edge $-1 $456 $451 $419 $513 0 #
vertex $-1 $450 $514 #
straight-curve $-1 30 10 0 0 0 -1 I I #
coedge $-1 $395 $394 $482 $515 1 $396 $-1 #
edge $-1 $397 $516 $444 $517 0 #
point $-1 20 -10 -10 #
vertex $-1 $450 $518 #
straight-curve $-1 30 -10 0 0 0 -1 I I #
coedge $-1 $420 $401 $519 $520 0 $284 $-1 #
coedge $-1 $521 $522 $401 $460 0 $523 $-1 #
edge $-1 $524 $463 $459 $525 0 #
coedge $-1 $402 $503 $521 $526 1 $462 $-1 #
loop $-1 $-1 $503 $423 #
vertex $-1 $460 $527 #
straight-curve $-1 30 -20 7.5 0 0 -1 I I #
coedge $-1 $528 $529 $405 $466 0 $530 $-1 #
edge $-1 $492 $469 $465 $531 0 #
coedge $-1 $487 $406 $409 $473 1 $424 $-1 #
coedge $-1 $406 $487 $528 $532 1 $424 $-1 #
vertex $-1 $407 $533 #
straight-curve $-1 -30 20 7.5 0 0 -1 I I #
coedge $-1 $534 $408 $420 $483 0 $410 $-1 #
coedge $-1 $409 $535 $536 $537 1 $410 $-1 #
edge $-1 $538 $411 $409 $539 0 #
face $-1 $415 $410 $2 $-1 $540 forward single #
point $-1 -30 20 0 #
vertex $-1 $414 $541 #
straight-curve $-1 0 30 0 1 0 0 I I #
face $-1 $542 $543 $2 $-1 $544 reversed single #
plane-surface $-1 0 30 5 0 -1 0 0 0 -1 0 I I I I #
coedge $-1 $545 $546 $547 $548 0 $418 $-1 #
coedge $-1 $549 $419 $447 $510 0 $358 $-1 #
coedge $-1 $419 $549 $453 $515 0 $358 $-1 #
edge $-1 $476 $550 $471 $551 0 #
straight-curve $-1 30 30 0 0 0 -1 I I #
face $-1 $552 $553 $2 $-1 $554 forward single #
cone-surface $-1 35 -20 0 0 0 1 5 0 0 1 I I 0 1 0 I I I I #
coedge $-1 $468 $467 $555 $556 1 $424 $-1 #
face $-1 $557 $491 $2 $-1 $558 forward single #
plane-surface $-1 25 -10 0 6.1232329394368592e-17 1 0 0 0 -1 0 I I I I #
coedge $-1 $498 $428 $529 $559 1 $491 $-1 #
loop $-1 $-1 $428 $488 #
vertex $-1 $466 $560 #
straight-curve $-1 -30 -20 7.5 0 0 1 I I #
point $-1 -30 -20 0 #
coedge $-1 $437 $434 $561 $562 1 $327 $-1 #
coedge $-1 $563 $564 $434 $497 0 $507 $-1 #
edge $-1 $565 $499 $496 $566 0 #
coedge $-1 $435 $490 $563 $567 1 $491 $-1 #
vertex $-1 $497 $568 #
ellipse-curve $-1 -35 -20 0 0 0 -1 5 0 0 1 I I #
coedge $-1 $569 $570 $437 $502 0 $571 $-1 #
edge $-1 $504 $572 $501 $573 0 #
coedge $-1 $461 $438 $570 $574 0 $462 $-1 #
vertex $-1 $502 $575 #
ellipse-curve $-1 35 -20 0 0 0 -1 5 0 0 1 I I #
point $-1 30 -20 0 #
loop $-1 $-1 $576 $442 #
plane-surface $-1 -40 0 0 1 0 0 0 0 -1 0 I I I I #
coedge $-1 $445 $444 $549 $577 1 $367 $-1 #
edge $-1 $451 $511 $481 $578 0 #
vertex $-1 $577 $579 #
straight-curve $-1 20 10 0 0 0 -1 I I #
straight-curve $-1 30 -1.0715657644014504e-15 -20 6.1232329394368592e-17 1 0 I I #
point $-1 30 10 -20 #
edge $-1 $516 $456 $482 $580 0 #
vertex $-1 $515 $581 #
straight-curve $-1 20 -10 0 0 0 -1 I I #
point $-1 30 -10 -20 #
coedge $-1 $582 $583 $458 $520 1 $553 $-1 #
edge $-1 $524 $550 $458 $584 1 #
coedge $-1 $585 $459 $461 $526 0 $523 $-1 #
coedge $-1 $459 $585 $582 $586 0 $523 $-1 #
loop $-1 $-1 $585 $542 #
vertex $-1 $460 $587 #
straight-curve $-1 30 0 20 0 -1 0 I I #
edge $-1 $463 $588 $521 $589 0 #
point $-1 30 -20 20 #
coedge $-1 $590 $465 $468 $532 0 $530 $-1 #
coedge $-1 $465 $590 $490 $559 0 $530 $-1 #
loop $-1 $-1 $465 $557 #
straight-curve $-1 -30 0 20 0 1 0 I I #
edge $-1 $469 $591 $528 $592 0 #
point $-1 -30 20 20 #
coedge $-1 $593 $471 $583 $594 0 $410 $-1 #
coedge $-1 $472 $593 $595 $596 1 $410 $-1 #
coedge $-1 $597 $555 $472 $537 0 $507 $-1 #
edge $-1 $538 $598 $536 $599 0 #
vertex $-1 $537 $600 #
ellipse-curve $-1 -35 20 0 0 0 -1 5 0 0 1 I I #
plane-surface $-1 0 30 0 0 0 1 1 0 0 0 I I I I #
point $-1 30 30 0 #
face $-1 $601 $523 $2 $-1 $602 forward single #
loop $-1 $-1 $561 $478 #
plane-surface $-1 0 -40 0 0 1 0 0 0 1 0 I I I I #
coedge $-1 $603 $480 $604 $605 0 $418 $-1 #
coedge $-1 $480 $603 $606 $607 0 $418 $-1 #
coedge $-1 $608 $569 $480 $548 1 $571 $-1 #
edge $-1 $609 $610 $547 $611 0 #
coedge $-1 $482 $481 $509 $577 0 $358 $-1 #
vertex $-1 $594 $612 #
straight-curve $-1 30 15 0 0 -1 0 I I #
face $-1 $474 $571 $2 $-1 $613 reversed single #
loop $-1 $-1 $519 $485 #
cone-surface $-1 35 20 0 0 0 1 5 0 0 1 I I 0 1 0 I I I I #
coedge $-1 $536 $614 $487 $556 0 $507 $-1 #
edge $-1 $591 $538 $555 $615 0 #
face $-1 $381 $530 $2 $-1 $602 forward single #
cone-surface $-1 -35 -20 0 0 0 1 5 0 0 1 I I 0 1 0 I I I I #
edge $-1 $616 $492 $529 $617 0 #
point $-1 -30 -20 20 #
coedge $-1 $618 $619 $495 $562 0 $543 $-1 #
edge $-1 $572 $565 $561 $620 0 #
coedge $-1 $614 $496 $498 $567 0 $507 $-1 #
coedge $-1 $496 $576 $618 $621 1 $507 $-1 #
vertex $-1 $497 $622 #
straight-curve $-1 -40 -15 0 0 1 0 I I #
edge $-1 $499 $616 $563 $623 0 #
point $-1 -40 -20 0 #
coedge $-1 $547 $501 $619 $624 0 $571 $-1 #
coedge $-1 $501 $625 $503 $574 1 $571 $-1 #
loop $-1 $-1 $547 $552 #
vertex $-1 $562 $626 #
straight-curve $-1 40 -15 0 0 -1 0 I I #
edge $-1 $504 $588 $570 $627 1 #
point $-1 40 -20 0 #
coedge $-1 $564 $597 $603 $628 1 $507 $-1 #
edge $-1 $511 $516 $549 $629 0 #
straight-curve $-1 12.5 10 -20 -1 6.1232329394368592e-17 0 I I #
point $-1 20 10 -20 #
straight-curve $-1 12.5 -10 -20 1 -6.1232329394368592e-17 0 I I #
point $-1 20 -10 -20 #
coedge $-1 $630 $519 $522 $586 1 $553 $-1 #
coedge $-1 $519 $630 $534 $594 1 $553 $-1 #
straight-curve $-1 30 20 7.5 0 0 1 I I #
coedge $-1 $522 $521 $625 $631 0 $523 $-1 #
edge $-1 $632 $524 $522 $633 0 #
point $-1 30 20 20 #
vertex $-1 $631 $634 #
ellipse-curve $-1 35 -20 20 0 0 1 5 0 0 1 I I #
coedge $-1 $529 $528 $614 $635 0 $530 $-1 #
vertex $-1 $556 $636 #
ellipse-curve $-1 -35 20 20 0 0 1 5 0 0 1 I I #
coedge $-1 $535 $534 $637 $638 1 $410 $-1 #
edge $-1 $550 $639 $534 $640 0 #
coedge $-1 $641 $642 $535 $596 0 $643 $-1 #
edge $-1 $598 $644 $595 $645 0 #
coedge $-1 $576 $536 $642 $646 0 $507 $-1 #
vertex $-1 $537 $647 #
straight-curve $-1 -40 15 0 0 1 0 I I #
point $-1 -40 20 0 #
face $-1 $-1 $643 $2 $-1 $648 reversed single #
plane-surface $-1 0 0 20 0 0 1 1 0 0 0 I I I I #
coedge $-1 $546 $545 $576 $628 0 $418 $-1 #
coedge $-1 $619 $618 $545 $605 1 $543 $-1 #
edge $-1 $610 $649 $604 $650 0 #
coedge $-1 $642 $641 $546 $607 1 $643 $-1 #
edge $-1 $651 $609 $606 $652 0 #
coedge $-1 $637 $547 $641 $653 1 $571 $-1 #
vertex $-1 $548 $654 #
vertex $-1 $624 $655 #
straight-curve $-1 40 0 -20 0 -1 0 I I #
point $-1 30 20 0 #
plane-surface $-1 40 0 0 -1 0 0 0 0 1 0 I I I I #
coedge $-1 $555 $563 $590 $635 1 $507 $-1 #
straight-curve $-1 -40 20 5 0 0 -1 I I #
vertex $-1 $635 $656 #
ellipse-curve $-1 -35 -20 20 0 0 1 5 0 0 1 I I #
coedge $-1 $604 $561 $564 $621 0 $543 $-1 #
coedge $-1 $561 $604 $569 $624 1 $543 $-1 #
straight-curve $-1 0 -40 0 -1 0 0 I I #
edge $-1 $565 $649 $564 $657 0 #
point $-1 -40 -40 0 #
straight-curve $-1 -40 -20 5 0 0 1 I I #
edge $-1 $572 $610 $569 $658 0 #
coedge $-1 $570 $659 $585 $631 1 $571 $-1 #
point $-1 40 -40 0 #
straight-curve $-1 40 -20 5 0 0 -1 I I #
edge $-1 $649 $651 $576 $660 0 #
straight-curve $-1 20 -4.5924247045776444e-16 -20 -6.1232329394368592e-17 -1 0 I I #
coedge $-1 $583 $582 $659 $661 1 $553 $-1 #
edge $-1 $588 $632 $625 $662 0 #
vertex $-1 $631 $663 #
ellipse-curve $-1 35 20 20 0 0 1 5 0 0 1 I I #
point $-1 40 -20 20 #
edge $-1 $591 $616 $614 $664 0 #
point $-1 -40 20 20 #
coedge $-1 $659 $608 $593 $638 0 $571 $-1 #
edge $-1 $644 $639 $637 $665 0 #
vertex $-1 $638 $666 #
ellipse-curve $-1 35 20 0 0 0 -1 5 0 0 1 I I #
coedge $-1 $606 $595 $608 $653 0 $643 $-1 #
coedge $-1 $595 $606 $597 $646 1 $643 $-1 #
loop $-1 $-1 $595 $601 #
vertex $-1 $596 $667 #
straight-curve $-1 0 40 0 1 0 0 I I #
edge $-1 $598 $651 $642 $668 0 #
point $-1 -40 40 0 #
plane-surface $-1 0 40 0 0 -1 0 0 0 -1 0 I I I I #
vertex $-1 $628 $669 #
straight-curve $-1 0 -40 -20 -1 0 0 I I #
vertex $-1 $607 $670 #
straight-curve $-1 0 40 -20 1 0 0 I I #
edge $-1 $644 $609 $608 $671 0 #
point $-1 40 40 -20 #
point $-1 40 -40 -20 #
point $-1 -40 -20 20 #
straight-curve $-1 -40 -40 0 0 0 -1 I I #
straight-curve $-1 40 -40 0 0 0 -1 I I #
coedge $-1 $625 $637 $630 $661 0 $571 $-1 #
straight-curve $-1 -40 0 -20 0 1 0 I I #
edge $-1 $639 $632 $659 $672 0 #
straight-curve $-1 40 0 20 0 1 0 I I #
point $-1 40 20 20 #
straight-curve $-1 -40 0 20 0 -1 0 I I #
straight-curve $-1 40 15 0 0 -1 0 I I #
point $-1 40 20 0 #
point $-1 40 40 0 #
straight-curve $-1 -40 40 0 0 0 -1 I I #
point $-1 -40 -40 -20 #
point $-1 -40 40 -20 #
straight-curve $-1 40 40 0 0 0 -1 I I #
straight-curve $-1 40 20 5 0 0 1 I I #
End-of-ACIS-data 