600 0 1 0           
81 GICL ACIS Healer - Source: /gicl/data5/repository/Heriot_Watt/ex18/ex18.sat - 6 0 18 ACIS 6.0.3 Solaris 24 Sat Apr 13 23:38:56 2002 
1 9.999999999999999547e-07 1.000000000000000036e-10 
body $-1 $1 $-1 $-1 #
lump $-1 $-1 $2 $0 #
shell $-1 $-1 $-1 $3 $-1 $1 #
face $-1 $4 $5 $2 $-1 $6 reversed single #
face $-1 $7 $8 $2 $-1 $9 forward single #
loop $-1 $-1 $10 $3 #
cone-surface $-1 -10 0 0 0 0 1 5 0 0 1 I I 0 1 5 forward I I I I #
face $-1 $11 $12 $2 $-1 $13 forward single #
loop $-1 $-1 $14 $4 #
plane-surface $-1 0 0 -10 0 0 1 1 0 0 forward_v I I I I #
coedge $-1 $15 $16 $17 $18 reversed $5 $-1 #
face $-1 $19 $20 $2 $-1 $21 reversed single #
loop $-1 $-1 $22 $7 #
plane-surface $-1 -10 0 0 1 0 0 0 0 -1 forward_v I I I I #
coedge $-1 $23 $24 $16 $25 forward $8 $-1 #
coedge $-1 $26 $10 $27 $28 forward $5 $-1 #
coedge $-1 $10 $26 $14 $25 reversed $5 $-1 #
coedge $-1 $29 $30 $10 $18 forward $31 $-1 #
edge $-1 $32 -15 $33 -10 $17 $34 forward 7 unknown #
face $-1 $35 $36 $2 $-1 $37 forward single #
loop $-1 $-1 $38 $11 #
cone-surface $-1 10 0 0 0 0 1 5 0 0 1 I I 0 1 5 forward I I I I #
coedge $-1 $39 $40 $26 $41 forward $12 $-1 #
coedge $-1 $42 $14 $40 $43 forward $8 $-1 #
coedge $-1 $14 $44 $29 $45 forward $8 $-1 #
edge $-1 $33 1.570796326794896558 $46 4.712388980384689674 $14 $47 forward 7 unknown #
coedge $-1 $16 $15 $22 $41 reversed $5 $-1 #
coedge $-1 $48 $49 $15 $28 reversed $50 $-1 #
edge $-1 $32 1.570796326794896558 $51 4.712388980384689674 $27 $52 forward 7 unknown #
coedge $-1 $53 $17 $24 $45 reversed $31 $-1 #
coedge $-1 $17 $53 $48 $54 forward $31 $-1 #
loop $-1 $-1 $17 $55 #
vertex $-1 $54 $56 #
vertex $-1 $45 $57 #
straight-curve $-1 -10 -5 0 0 0 1 I I #
face $-1 $58 $59 $2 $-1 $37 forward single #
loop $-1 $-1 $60 $19 #
plane-surface $-1 10 0 0 -1 0 0 0 0 1 forward_v I I I I #
coedge $-1 $61 $62 $60 $63 reversed $20 $-1 #
coedge $-1 $64 $22 $49 $65 forward $12 $-1 #
coedge $-1 $22 $64 $23 $43 reversed $12 $-1 #
edge $-1 $46 10 $51 15 $22 $66 forward 7 unknown #
coedge $-1 $67 $23 $68 $69 forward $8 $-1 #
edge $-1 $46 5 $70 20 $23 $71 forward 7 unknown #
coedge $-1 $24 $72 $73 $74 forward $8 $-1 #
edge $-1 $75 -20 $33 -5 $24 $71 forward 7 unknown #
vertex $-1 $41 $76 #
ellipse-curve $-1 -10 0 -10 0 0 -1 5 0 0 1 I I #
coedge $-1 $77 $27 $30 $54 reversed $50 $-1 #
coedge $-1 $27 $78 $39 $65 reversed $50 $-1 #
loop $-1 $-1 $48 $58 #
vertex $-1 $28 $79 #
ellipse-curve $-1 -10 0 -15 0 0 -1 5 0 0 1 I I #
coedge $-1 $30 $29 $80 $81 reversed $31 $-1 #
edge $-1 $82 -20 $32 -5 $30 $83 forward 7 unknown #
face $-1 $84 $31 $2 $-1 $13 forward single #
point $-1 -10 -5 -15 #
point $-1 -10 -5 -10 #
face $-1 $55 $50 $2 $-1 $85 forward single #
loop $-1 $-1 $86 $35 #
coedge $-1 $87 $88 $38 $63 forward $36 $-1 #
coedge $-1 $89 $38 $90 $91 forward $20 $-1 #
coedge $-1 $38 $89 $92 $93 reversed $20 $-1 #
edge $-1 $94 -15 $95 -10 $60 $96 forward 7 unknown #
coedge $-1 $40 $39 $97 $98 reversed $12 $-1 #
edge $-1 $51 5 $99 20 $39 $83 forward 7 unknown #
straight-curve $-1 -10 5 0 0 0 -1 I I #
coedge $-1 $100 $42 $101 $102 reversed $8 $-1 #
coedge $-1 $97 $103 $42 $69 reversed $104 $-1 #
edge $-1 $70 10 $105 30 $42 $106 forward 7 unknown #
vertex $-1 $98 $107 #
straight-curve $-1 -10 0 -10 0 1 0 I I #
coedge $-1 $44 $108 $109 $110 reversed $8 $-1 #
coedge $-1 $111 $80 $44 $74 reversed $112 $-1 #
edge $-1 $113 -30 $75 -10 $44 $114 forward 7 unknown #
vertex $-1 $74 $115 #
point $-1 -10 5 -10 #
coedge $-1 $116 $48 $117 $118 reversed $50 $-1 #
coedge $-1 $49 $119 $120 $121 reversed $50 $-1 #
point $-1 -10 5 -15 #
coedge $-1 $73 $117 $53 $81 forward $112 $-1 #
edge $-1 $82 -15 $75 -10 $80 $122 forward 7 unknown #
vertex $-1 $118 $123 #
straight-curve $-1 -10 0 -15 0 1 0 I I #
face $-1 $124 $112 $2 $-1 $125 forward single #
plane-surface $-1 0 0 -15 0 0 1 1 0 0 forward_v I I I I #
coedge $-1 $126 $127 $89 $128 forward $59 $-1 #
coedge $-1 $129 $60 $130 $131 reversed $36 $-1 #
coedge $-1 $60 $129 $119 $132 forward $36 $-1 #
coedge $-1 $62 $61 $86 $128 reversed $20 $-1 #
coedge $-1 $119 $116 $61 $91 reversed $50 $-1 #
edge $-1 $94 -1.570796326794896558 $133 1.570796326794896558 $90 $134 forward 7 unknown #
coedge $-1 $135 $130 $62 $93 forward $136 $-1 #
edge $-1 $95 -1.570796326794896558 $137 1.570796326794896558 $92 $138 forward 7 unknown #
vertex $-1 $132 $139 #
vertex $-1 $131 $140 #
straight-curve $-1 10 5 0 0 0 1 I I #
coedge $-1 $120 $68 $64 $98 forward $104 $-1 #
edge $-1 $70 10 $99 15 $97 $141 forward 7 unknown #
vertex $-1 $121 $142 #
coedge $-1 $143 $67 $144 $145 forward $8 $-1 #
coedge $-1 $146 $147 $67 $102 forward $148 $-1 #
edge $-1 $149 10 $105 20 $101 $150 forward 7 unknown #
coedge $-1 $68 $151 $146 $152 reversed $104 $-1 #
loop $-1 $-1 $153 $154 #
vertex $-1 $102 $155 #
straight-curve $-1 0 20 -10 -1 0 0 I I #
point $-1 -10 20 -10 #
coedge $-1 $72 $143 $156 $157 forward $8 $-1 #
coedge $-1 $158 $159 $72 $110 forward $148 $-1 #
edge $-1 $113 -20 $160 -10 $109 $150 forward 7 unknown #
coedge $-1 $161 $73 $159 $162 forward $112 $-1 #
loop $-1 $-1 $163 $84 #
vertex $-1 $110 $164 #
straight-curve $-1 0 -20 -10 1 0 0 I I #
point $-1 -10 -20 -10 #
coedge $-1 $90 $77 $126 $165 reversed $50 $-1 #
coedge $-1 $80 $163 $77 $118 forward $112 $-1 #
edge $-1 $166 -10 $82 10 $117 $167 forward 7 unknown #
coedge $-1 $78 $90 $88 $132 reversed $50 $-1 #
coedge $-1 $153 $97 $78 $121 forward $104 $-1 #
edge $-1 $99 -10 $168 10 $120 $169 forward 7 unknown #
straight-curve $-1 -10 -20 0 0 0 1 I I #
point $-1 -10 -20 -15 #
face $-1 $170 $171 $2 $-1 $172 forward single #
plane-surface $-1 0 -20 0 0 -1 0 0 0 -1 forward_v I I I I #
coedge $-1 $173 $86 $116 $165 forward $59 $-1 #
coedge $-1 $86 $173 $135 $174 reversed $59 $-1 #
edge $-1 $137 10 $133 15 $86 $175 forward 7 unknown #
coedge $-1 $88 $87 $153 $176 reversed $36 $-1 #
coedge $-1 $92 $177 $87 $131 forward $136 $-1 #
edge $-1 $178 -20 $95 -5 $130 $179 forward 7 unknown #
edge $-1 $168 -20 $94 -5 $88 $180 forward 7 unknown #
vertex $-1 $91 $181 #
ellipse-curve $-1 10 0 -15 0 0 -1 5 0 0 1 I I #
coedge $-1 $182 $92 $127 $174 forward $136 $-1 #
loop $-1 $-1 $92 $183 #
vertex $-1 $128 $184 #
ellipse-curve $-1 10 0 -10 0 0 -1 5 0 0 1 I I #
point $-1 10 5 -15 #
point $-1 10 5 -10 #
straight-curve $-1 -10 20 0 0 0 -1 I I #
point $-1 -10 20 -15 #
coedge $-1 $108 $100 $185 $186 forward $8 $-1 #
coedge $-1 $187 $188 $100 $145 reversed $189 $-1 #
edge $-1 $149 -17.5 $190 -7.5 $100 $191 forward 7 unknown #
coedge $-1 $192 $101 $103 $152 forward $148 $-1 #
coedge $-1 $101 $193 $187 $194 reversed $148 $-1 #
loop $-1 $-1 $109 $170 #
vertex $-1 $102 $195 #
straight-curve $-1 -30 0 -10 0 1 0 I I #
coedge $-1 $103 $196 $197 $198 reversed $104 $-1 #
edge $-1 $105 10 $199 20 $146 $200 forward 7 unknown #
coedge $-1 $201 $120 $129 $176 forward $104 $-1 #
face $-1 $202 $104 $2 $-1 $203 forward single #
point $-1 -30 20 -10 #
coedge $-1 $204 $205 $108 $157 reversed $206 $-1 #
edge $-1 $207 7.5 $160 17.5 $108 $208 forward 7 unknown #
coedge $-1 $193 $109 $205 $209 forward $148 $-1 #
coedge $-1 $109 $210 $111 $162 reversed $148 $-1 #
vertex $-1 $110 $211 #
coedge $-1 $212 $111 $213 $214 reversed $112 $-1 #
edge $-1 $113 10 $215 20 $111 $216 forward 7 unknown #
coedge $-1 $117 $217 $173 $218 forward $112 $-1 #
point $-1 -30 -20 -10 #
edge $-1 $133 5 $166 20 $126 $180 forward 7 unknown #
vertex $-1 $118 $219 #
straight-curve $-1 0 -20 -15 -1 0 0 I I #
vertex $-1 $121 $220 #
straight-curve $-1 0 20 -15 1 0 0 I I #
face $-1 $183 $148 $2 $-1 $221 forward single #
loop $-1 $-1 $222 $124 #
plane-surface $-1 0 -30 5 0 1 0 0 0 1 forward_v I I I I #
coedge $-1 $127 $126 $163 $218 reversed $59 $-1 #
edge $-1 $137 5 $223 20 $135 $179 forward 7 unknown #
straight-curve $-1 10 -5 0 0 0 -1 I I #
edge $-1 $168 -15 $178 -10 $153 $224 forward 7 unknown #
coedge $-1 $130 $225 $201 $226 forward $136 $-1 #
vertex $-1 $226 $227 #
straight-curve $-1 10 0 -10 0 -1 0 I I #
straight-curve $-1 10 0 -15 0 -1 0 I I #
point $-1 10 -5 -15 #
coedge $-1 $228 $135 $217 $229 forward $136 $-1 #
face $-1 $230 $136 $2 $-1 $9 forward single #
point $-1 10 -5 -10 #
coedge $-1 $231 $232 $143 $186 reversed $233 $-1 #
edge $-1 $190 -10 $207 10 $143 $234 forward 7 unknown #
coedge $-1 $235 $144 $147 $194 forward $189 $-1 #
coedge $-1 $144 $235 $231 $236 reversed $189 $-1 #
loop $-1 $-1 $144 $202 #
vertex $-1 $145 $237 #
straight-curve $-1 -12.5 10 -10 1 0 0 I I #
coedge $-1 $238 $146 $239 $240 reversed $148 $-1 #
coedge $-1 $147 $158 $241 $242 reversed $148 $-1 #
edge $-1 $149 10 $243 20 $187 $244 forward 7 unknown #
point $-1 -30 10 -10 #
coedge $-1 $151 $201 $245 $246 forward $104 $-1 #
coedge $-1 $247 $239 $151 $198 forward $248 $-1 #
edge $-1 $199 -30 $249 30 $197 $250 forward 7 unknown #
vertex $-1 $198 $251 #
straight-curve $-1 -30 20 0 0 0 -1 I I #
coedge $-1 $196 $153 $177 $226 reversed $104 $-1 #
face $-1 $252 $189 $2 $-1 $253 forward single #
plane-surface $-1 0 20 0 0 1 0 0 0 1 forward_v I I I I #
coedge $-1 $254 $156 $232 $255 forward $206 $-1 #
coedge $-1 $156 $254 $158 $209 reversed $206 $-1 #
loop $-1 $-1 $156 $256 #
vertex $-1 $157 $257 #
straight-curve $-1 -12.5 -10 -10 -1 0 0 I I #
edge $-1 $160 10 $258 20 $158 $259 forward 7 unknown #
coedge $-1 $159 $260 $261 $262 reversed $148 $-1 #
point $-1 -30 -10 -10 #
coedge $-1 $217 $161 $263 $264 reversed $112 $-1 #
coedge $-1 $261 $265 $161 $214 forward $266 $-1 #
edge $-1 $267 -30 $215 30 $213 $268 forward 7 unknown #
vertex $-1 $262 $269 #
straight-curve $-1 -30 -20 0 0 0 -1 I I #
coedge $-1 $163 $212 $182 $229 reversed $112 $-1 #
edge $-1 $223 10 $166 15 $163 $270 forward 7 unknown #
point $-1 10 -20 -15 #
point $-1 10 20 -15 #
plane-surface $-1 -30 0 5 1 0 0 0 0 -1 forward_v I I I I #
coedge $-1 $271 $272 $273 $274 reversed $171 $-1 #
vertex $-1 $174 $275 #
straight-curve $-1 10 20 0 0 0 1 I I #
coedge $-1 $177 $276 $277 $278 reversed $136 $-1 #
edge $-1 $279 -30 $178 -10 $177 $106 forward 7 unknown #
point $-1 10 20 -10 #
coedge $-1 $280 $182 $281 $282 reversed $136 $-1 #
edge $-1 $223 10 $283 30 $182 $114 forward 7 unknown #
face $-1 $154 $284 $2 $-1 $285 forward single #
coedge $-1 $286 $185 $188 $236 forward $233 $-1 #
coedge $-1 $185 $286 $204 $255 reversed $233 $-1 #
loop $-1 $-1 $185 $252 #
straight-curve $-1 -20 0 -10 0 -1 0 I I #
coedge $-1 $188 $187 $287 $288 reversed $189 $-1 #
edge $-1 $190 10 $289 20 $231 $290 forward 7 unknown #
point $-1 -20 10 -10 #
coedge $-1 $291 $192 $292 $293 reversed $148 $-1 #
coedge $-1 $197 $294 $192 $240 forward $248 $-1 #
edge $-1 $295 -17.5 $199 -7.5 $239 $296 forward 7 unknown #
coedge $-1 $297 $287 $193 $242 forward $298 $-1 #
edge $-1 $243 -10 $258 10 $241 $299 forward 7 unknown #
vertex $-1 $242 $300 #
straight-curve $-1 -30 10 0 0 0 -1 I I #
coedge $-1 $277 $301 $196 $246 reversed $284 $-1 #
edge $-1 $279 10 $249 20 $245 $302 forward 7 unknown #
coedge $-1 $294 $197 $301 $303 forward $248 $-1 #
loop $-1 $298 $197 $304 #
vertex $-1 $198 $305 #
straight-curve $-1 0 20 -20 1 0 0 I I #
point $-1 -30 20 -20 #
face $-1 $256 $233 $2 $-1 $306 forward single #
plane-surface $-1 -25 10 0 0 -1 0 0 0 -1 forward_v I I I I #
coedge $-1 $205 $204 $297 $307 reversed $206 $-1 #
edge $-1 $207 10 $308 20 $232 $309 forward 7 unknown #
face $-1 $310 $206 $2 $-1 $311 forward single #
point $-1 -20 -10 -10 #
vertex $-1 $307 $312 #
straight-curve $-1 -30 -10 0 0 0 -1 I I #
coedge $-1 $210 $313 $272 $314 forward $148 $-1 #
coedge $-1 $315 $213 $210 $262 forward $266 $-1 #
edge $-1 $215 7.5 $316 17.5 $261 $317 forward 7 unknown #
coedge $-1 $318 $281 $212 $264 forward $284 $-1 #
edge $-1 $283 10 $267 20 $263 $319 forward 7 unknown #
coedge $-1 $213 $315 $318 $320 forward $266 $-1 #
loop $-1 $248 $315 $304 #
vertex $-1 $214 $321 #
straight-curve $-1 0 -20 -20 -1 0 0 I I #
point $-1 -30 -20 -20 #
straight-curve $-1 10 -20 0 0 0 -1 I I #
coedge $-1 $322 $222 $323 $324 forward $171 $-1 #
coedge $-1 $222 $322 $260 $314 reversed $171 $-1 #
coedge $-1 $325 $326 $222 $274 forward $327 $-1 #
edge $-1 $328 -30 $329 30 $273 $330 forward 7 unknown #
point $-1 10 -20 -10 #
coedge $-1 $225 $331 $332 $333 forward $136 $-1 #
coedge $-1 $334 $245 $225 $278 forward $284 $-1 #
edge $-1 $279 -20 $335 -10 $277 $336 forward 7 unknown #
vertex $-1 $278 $337 #
coedge $-1 $331 $228 $338 $339 forward $136 $-1 #
coedge $-1 $263 $340 $228 $282 forward $284 $-1 #
edge $-1 $341 10 $283 20 $281 $336 forward 7 unknown #
vertex $-1 $282 $342 #
loop $-1 $-1 $343 $230 #
plane-surface $-1 30 0 5 -1 0 0 0 0 1 forward_v I I I I #
coedge $-1 $232 $231 $344 $345 reversed $233 $-1 #
coedge $-1 $241 $344 $235 $288 forward $298 $-1 #
edge $-1 $289 7.5 $243 17.5 $287 $346 forward 7 unknown #
vertex $-1 $288 $347 #
straight-curve $-1 -20 10 0 0 0 -1 I I #
coedge $-1 $348 $238 $349 $350 reversed $148 $-1 #
coedge $-1 $351 $352 $238 $293 forward $353 $-1 #
edge $-1 $354 0 $295 20 $292 $355 forward 7 unknown #
coedge $-1 $239 $247 $351 $356 forward $248 $-1 #
vertex $-1 $240 $357 #
straight-curve $-1 -30 12.5 -20 0 -1 0 I I #
coedge $-1 $344 $241 $254 $307 forward $298 $-1 #
loop $-1 $358 $297 $304 #
straight-curve $-1 -30 0 -20 0 -1 0 I I #
point $-1 -30 10 -20 #
coedge $-1 $245 $359 $247 $303 reversed $284 $-1 #
straight-curve $-1 30 20 0 0 0 -1 I I #
edge $-1 $249 7.5 $360 17.5 $247 $361 forward 7 unknown #
face $-1 $362 $266 $2 $-1 $363 reversed single #
point $-1 30 20 -20 #
plane-surface $-1 -20 0 0 -1 0 0 0 0 1 forward_v I I I I #
edge $-1 $258 -17.5 $308 -7.5 $297 $364 forward 7 unknown #
vertex $-1 $307 $365 #
straight-curve $-1 -20 -10 0 0 0 -1 I I #
face $-1 $366 $367 $2 $-1 $368 forward single #
plane-surface $-1 -25 -10 0 0 1 0 0 0 1 forward_v I I I I #
point $-1 -30 -10 -20 #
coedge $-1 $260 $369 $325 $370 reversed $148 $-1 #
edge $-1 $329 0 $316 20 $260 $371 forward 7 unknown #
coedge $-1 $265 $261 $322 $372 forward $266 $-1 #
vertex $-1 $372 $373 #
straight-curve $-1 -30 -12.5 -20 0 -1 0 I I #
coedge $-1 $323 $263 $265 $320 reversed $284 $-1 #
straight-curve $-1 30 -20 0 0 0 -1 I I #
edge $-1 $374 -17.5 $267 -7.5 $265 $375 forward 7 unknown #
point $-1 30 -20 -20 #
coedge $-1 $272 $271 $315 $372 reversed $171 $-1 #
coedge $-1 $376 $318 $271 $324 reversed $284 $-1 #
edge $-1 $328 5 $374 25 $323 $377 forward 7 unknown #
coedge $-1 $378 $273 $313 $370 forward $327 $-1 #
coedge $-1 $273 $379 $376 $380 forward $327 $-1 #
loop $-1 $-1 $378 $381 #
vertex $-1 $274 $382 #
vertex $-1 $274 $383 #
straight-curve $-1 0 -30 0 -1 0 0 I I #
coedge $-1 $276 $280 $384 $385 forward $136 $-1 #
coedge $-1 $386 $387 $276 $333 reversed $388 $-1 #
edge $-1 $389 7.5 $335 17.5 $276 $390 forward 7 unknown #
coedge $-1 $391 $277 $387 $392 forward $284 $-1 #
vertex $-1 $278 $393 #
straight-curve $-1 30 0 -10 0 -1 0 I I #
point $-1 30 20 -10 #
coedge $-1 $394 $395 $280 $339 reversed $396 $-1 #
edge $-1 $341 -17.5 $397 -7.5 $280 $398 forward 7 unknown #
coedge $-1 $281 $391 $394 $399 reversed $284 $-1 #
vertex $-1 $282 $400 #
point $-1 30 -20 -10 #
coedge $-1 $401 $376 $402 $403 forward $284 $-1 #
coedge $-1 $287 $297 $286 $345 forward $298 $-1 #
edge $-1 $308 -10 $289 10 $344 $404 forward 7 unknown #
straight-curve $-1 -12.5 10 -20 -1 0 0 I I #
point $-1 -20 10 -20 #
coedge $-1 $405 $291 $406 $407 forward $148 $-1 #
coedge $-1 $408 $409 $291 $350 forward $410 $-1 #
edge $-1 $411 5 $354 15 $349 $412 forward 7 unknown #
coedge $-1 $413 $292 $294 $356 reversed $353 $-1 #
coedge $-1 $292 $413 $408 $414 reversed $353 $-1 #
loop $-1 $-1 $352 $415 #
vertex $-1 $350 $416 #
straight-curve $-1 -30 30 0 0 0 -1 I I #
edge $-1 $360 -30 $295 30 $294 $417 forward 7 unknown #
point $-1 -30 30 -20 #
loop $-1 $418 $419 $304 #
coedge $-1 $301 $420 $413 $421 forward $284 $-1 #
vertex $-1 $356 $422 #
straight-curve $-1 30 12.5 -20 0 1 0 I I #
face $-1 $423 $424 $2 $-1 $425 forward single #
plane-surface $-1 0 0 -20 0 0 1 1 0 0 forward_v I I I I #
straight-curve $-1 -12.5 -10 -20 1 0 0 I I #
point $-1 -20 -10 -20 #
face $-1 $426 $388 $2 $-1 $427 forward single #
loop $-1 $-1 $384 $310 #
plane-surface $-1 20 3.061616469718429594e-16 0 1 -6.123232939436859187e-17 0 0 0 -1 forward_v I I I I #
coedge $-1 $313 $405 $428 $429 reversed $148 $-1 #
edge $-1 $329 -15 $430 -5 $325 $431 forward 7 unknown #
straight-curve $-1 -30 -30 0 0 0 -1 I I #
edge $-1 $316 -30 $374 30 $315 $432 forward 7 unknown #
point $-1 -30 -30 -20 #
vertex $-1 $372 $433 #
straight-curve $-1 30 -12.5 -20 0 1 0 I I #
coedge $-1 $343 $323 $326 $380 reversed $284 $-1 #
straight-curve $-1 30 -30 5 0 0 -1 I I #
coedge $-1 $434 $325 $435 $436 forward $327 $-1 #
coedge $-1 $326 $437 $438 $439 forward $327 $-1 #
edge $-1 $440 5 $328 15 $326 $441 forward 7 unknown #
face $-1 $442 $327 $2 $-1 $443 forward single #
point $-1 30 -30 0 #
point $-1 -30 -30 0 #
coedge $-1 $444 $445 $331 $385 reversed $367 $-1 #
edge $-1 $397 -10 $389 10 $331 $446 forward 7 unknown #
coedge $-1 $447 $332 $445 $448 forward $388 $-1 #
coedge $-1 $332 $447 $334 $392 reversed $388 $-1 #
loop $-1 $-1 $332 $366 #
vertex $-1 $385 $449 #
straight-curve $-1 12.5 10 -10 1 -6.123232939436859187e-17 0 I I #
coedge $-1 $340 $334 $419 $450 reversed $284 $-1 #
edge $-1 $335 10 $451 20 $387 $452 forward 7 unknown #
point $-1 30 10 -10 #
coedge $-1 $453 $338 $340 $399 forward $396 $-1 #
coedge $-1 $338 $453 $444 $454 reversed $396 $-1 #
loop $-1 $-1 $338 $426 #
vertex $-1 $339 $455 #
straight-curve $-1 12.5 -10 -10 -1 6.123232939436859187e-17 0 I I #
edge $-1 $341 10 $456 20 $394 $457 forward 7 unknown #
point $-1 30 -10 -10 #
coedge $-1 $458 $343 $459 $460 reversed $284 $-1 #
coedge $-1 $438 $461 $343 $403 reversed $462 $-1 #
edge $-1 $440 -7.5 $463 12.5 $343 $464 reversed 7 unknown #
straight-curve $-1 -20 0 -20 0 1 0 I I #
coedge $-1 $369 $348 $465 $466 reversed $148 $-1 #
coedge $-1 $467 $468 $348 $407 reversed $424 $-1 #
edge $-1 $411 -7.5 $469 12.5 $348 $470 reversed 7 unknown #
coedge $-1 $471 $349 $352 $414 forward $410 $-1 #
coedge $-1 $349 $472 $467 $473 forward $410 $-1 #
loop $-1 $-1 $409 $474 #
vertex $-1 $350 $475 #
straight-curve $-1 -30 15 0 0 1 0 I I #
coedge $-1 $352 $351 $359 $421 reversed $353 $-1 #
edge $-1 $354 -30 $476 30 $408 $477 forward 7 unknown #
face $-1 $478 $353 $2 $-1 $479 forward single #
point $-1 -30 30 0 #
straight-curve $-1 0 30 -20 -1 0 0 I I #
loop $-1 $-1 $480 $304 #
coedge $-1 $481 $482 $391 $450 forward $358 $-1 #
coedge $-1 $359 $458 $471 $483 reversed $284 $-1 #
edge $-1 $476 0 $360 20 $359 $484 forward 7 unknown #
point $-1 30 30 -20 #
face $-1 $485 $462 $2 $-1 $486 forward single #
loop $-1 $-1 $487 $362 #
cone-surface $-1 -35 20 0 0 0 1 5 0 0 1 I I 0 1 5 forward I I I I #
face $-1 $488 $396 $2 $-1 $489 forward single #
plane-surface $-1 25 10 0 -6.123232939436859187e-17 -1 0 0 0 1 forward_v I I I I #
coedge $-1 $490 $435 $369 $429 forward $491 $-1 #
edge $-1 $430 -7.5 $492 12.5 $369 $493 forward 7 unknown #
vertex $-1 $436 $494 #
straight-curve $-1 -30 -15 0 0 1 0 I I #
straight-curve $-1 0 -30 -20 1 0 0 I I #
point $-1 30 -30 -20 #
coedge $-1 $495 $378 $496 $497 reversed $327 $-1 #
coedge $-1 $428 $498 $378 $436 reversed $491 $-1 #
edge $-1 $430 0 $499 3.141592653589793116 $378 $500 forward 7 unknown #
coedge $-1 $379 $495 $501 $502 reversed $327 $-1 #
coedge $-1 $503 $402 $379 $439 reversed $462 $-1 #
edge $-1 $504 0 $440 3.141592653589793116 $379 $505 forward 7 unknown #
vertex $-1 $403 $506 #
straight-curve $-1 30 -15 0 0 -1 0 I I #
face $-1 $304 $507 $2 $-1 $508 reversed single #
plane-surface $-1 0 -30 0 0 0 1 1 0 0 forward_v I I I I #
coedge $-1 $509 $384 $395 $454 forward $367 $-1 #
coedge $-1 $384 $509 $386 $448 reversed $367 $-1 #
straight-curve $-1 20 -4.592424704577644391e-16 -10 6.123232939436859187e-17 1 0 I I #
coedge $-1 $387 $386 $481 $510 reversed $388 $-1 #
edge $-1 $389 10 $511 20 $386 $512 forward 7 unknown #
point $-1 20 10 -10 #
edge $-1 $456 -9.999999999999998224 $451 10.00000000000000178 $419 $513 forward 7 unknown #
vertex $-1 $450 $514 #
straight-curve $-1 30 10 0 0 0 -1 I I #
coedge $-1 $395 $394 $482 $515 reversed $396 $-1 #
edge $-1 $397 10 $516 20 $444 $517 forward 7 unknown #
point $-1 20 -10 -10 #
vertex $-1 $450 $518 #
straight-curve $-1 30 -10 0 0 0 -1 I I #
coedge $-1 $420 $401 $519 $520 forward $284 $-1 #
coedge $-1 $521 $522 $401 $460 forward $523 $-1 #
edge $-1 $524 -20 $463 20 $459 $525 forward 7 unknown #
coedge $-1 $402 $503 $521 $526 reversed $462 $-1 #
loop $-1 $-1 $503 $423 #
vertex $-1 $460 $527 #
straight-curve $-1 30 -20 7.5 0 0 -1 I I #
coedge $-1 $528 $529 $405 $466 forward $530 $-1 #
edge $-1 $492 -20 $469 20 $465 $531 forward 7 unknown #
coedge $-1 $487 $406 $409 $473 reversed $424 $-1 #
coedge $-1 $406 $487 $528 $532 reversed $424 $-1 #
vertex $-1 $407 $533 #
straight-curve $-1 -30 20 7.5 0 0 -1 I I #
coedge $-1 $534 $408 $420 $483 forward $410 $-1 #
coedge $-1 $409 $535 $536 $537 reversed $410 $-1 #
edge $-1 $538 -3.141592653589793116 $411 0 $409 $539 forward 7 unknown #
face $-1 $415 $410 $2 $-1 $540 forward single #
point $-1 -30 20 0 #
vertex $-1 $414 $541 #
straight-curve $-1 0 30 0 1 0 0 I I #
face $-1 $542 $543 $2 $-1 $544 reversed single #
plane-surface $-1 0 30 5 0 -1 0 0 0 -1 forward_v I I I I #
coedge $-1 $545 $546 $547 $548 forward $418 $-1 #
coedge $-1 $549 $419 $447 $510 forward $358 $-1 #
coedge $-1 $419 $549 $453 $515 forward $358 $-1 #
edge $-1 $476 -15 $550 -5 $471 $551 forward 7 unknown #
straight-curve $-1 30 30 0 0 0 -1 I I #
face $-1 $552 $553 $2 $-1 $554 forward single #
cone-surface $-1 35 -20 0 0 0 1 5 0 0 1 I I 0 1 5 forward I I I I #
coedge $-1 $468 $467 $555 $556 reversed $424 $-1 #
face $-1 $557 $491 $2 $-1 $558 forward single #
plane-surface $-1 25 -10 0 6.123232939436859187e-17 1 0 0 0 -1 forward_v I I I I #
coedge $-1 $498 $428 $529 $559 reversed $491 $-1 #
loop $-1 $-1 $428 $488 #
vertex $-1 $466 $560 #
straight-curve $-1 -30 -20 7.5 0 0 1 I I #
point $-1 -30 -20 0 #
coedge $-1 $437 $434 $561 $562 reversed $327 $-1 #
coedge $-1 $563 $564 $434 $497 forward $507 $-1 #
edge $-1 $565 -25 $499 -5 $496 $566 forward 7 unknown #
coedge $-1 $435 $490 $563 $567 reversed $491 $-1 #
vertex $-1 $497 $568 #
ellipse-curve $-1 -35 -20 0 0 0 -1 5 0 0 1 I I #
coedge $-1 $569 $570 $437 $502 forward $571 $-1 #
edge $-1 $504 5 $572 25 $501 $573 forward 7 unknown #
coedge $-1 $461 $438 $570 $574 forward $462 $-1 #
vertex $-1 $502 $575 #
ellipse-curve $-1 35 -20 0 0 0 -1 5 0 0 1 I I #
point $-1 30 -20 0 #
loop $-1 $-1 $576 $442 #
plane-surface $-1 -40 0 0 1 0 0 0 0 -1 forward_v I I I I #
coedge $-1 $445 $444 $549 $577 reversed $367 $-1 #
edge $-1 $451 -17.5 $511 -7.5 $481 $578 forward 7 unknown #
vertex $-1 $577 $579 #
straight-curve $-1 20 10 0 0 0 -1 I I #
straight-curve $-1 30 -1.071565764401450358e-15 -20 6.123232939436859187e-17 1 0 I I #
point $-1 30 10 -20 #
edge $-1 $516 7.5 $456 17.5 $482 $580 forward 7 unknown #
vertex $-1 $515 $581 #
straight-curve $-1 20 -10 0 0 0 -1 I I #
point $-1 30 -10 -20 #
coedge $-1 $582 $583 $458 $520 reversed $553 $-1 #
edge $-1 $524 -12.5 $550 7.5 $458 $584 reversed 7 unknown #
coedge $-1 $585 $459 $461 $526 forward $523 $-1 #
coedge $-1 $459 $585 $582 $586 forward $523 $-1 #
loop $-1 $-1 $585 $542 #
vertex $-1 $460 $587 #
straight-curve $-1 30 0 20 0 -1 0 I I #
edge $-1 $463 -3.141592653589793116 $588 0 $521 $589 forward 7 unknown #
point $-1 30 -20 20 #
coedge $-1 $590 $465 $468 $532 forward $530 $-1 #
coedge $-1 $465 $590 $490 $559 forward $530 $-1 #
loop $-1 $-1 $465 $557 #
straight-curve $-1 -30 0 20 0 1 0 I I #
edge $-1 $469 0 $591 3.141592653589793116 $528 $592 forward 7 unknown #
point $-1 -30 20 20 #
coedge $-1 $593 $471 $583 $594 forward $410 $-1 #
coedge $-1 $472 $593 $595 $596 reversed $410 $-1 #
coedge $-1 $597 $555 $472 $537 forward $507 $-1 #
edge $-1 $538 5 $598 25 $536 $599 forward 7 unknown #
vertex $-1 $537 $600 #
ellipse-curve $-1 -35 20 0 0 0 -1 5 0 0 1 I I #
plane-surface $-1 0 30 0 0 0 1 1 0 0 forward_v I I I I #
point $-1 30 30 0 #
face $-1 $601 $523 $2 $-1 $602 forward single #
loop $-1 $-1 $561 $478 #
plane-surface $-1 0 -40 0 0 1 0 0 0 1 forward_v I I I I #
coedge $-1 $603 $480 $604 $605 forward $418 $-1 #
coedge $-1 $480 $603 $606 $607 forward $418 $-1 #
coedge $-1 $608 $569 $480 $548 reversed $571 $-1 #
edge $-1 $609 -40 $610 40 $547 $611 forward 7 unknown #
coedge $-1 $482 $481 $509 $577 forward $358 $-1 #
vertex $-1 $594 $612 #
straight-curve $-1 30 15 0 0 -1 0 I I #
face $-1 $474 $571 $2 $-1 $613 reversed single #
loop $-1 $-1 $519 $485 #
cone-surface $-1 35 20 0 0 0 1 5 0 0 1 I I 0 1 5 forward I I I I #
coedge $-1 $536 $614 $487 $556 forward $507 $-1 #
edge $-1 $591 -15 $538 5 $555 $615 forward 7 unknown #
face $-1 $381 $530 $2 $-1 $602 forward single #
cone-surface $-1 -35 -20 0 0 0 1 5 0 0 1 I I 0 1 5 forward I I I I #
edge $-1 $616 -3.141592653589793116 $492 0 $529 $617 forward 7 unknown #
point $-1 -30 -20 20 #
coedge $-1 $618 $619 $495 $562 forward $543 $-1 #
edge $-1 $572 -40 $565 40 $561 $620 forward 7 unknown #
coedge $-1 $614 $496 $498 $567 forward $507 $-1 #
coedge $-1 $496 $576 $618 $621 reversed $507 $-1 #
vertex $-1 $497 $622 #
straight-curve $-1 -40 -15 0 0 1 0 I I #
edge $-1 $499 -5 $616 15 $563 $623 forward 7 unknown #
point $-1 -40 -20 0 #
coedge $-1 $547 $501 $619 $624 forward $571 $-1 #
coedge $-1 $501 $625 $503 $574 reversed $571 $-1 #
loop $-1 $-1 $547 $552 #
vertex $-1 $562 $626 #
straight-curve $-1 40 -15 0 0 -1 0 I I #
edge $-1 $504 -5 $588 15 $570 $627 reversed 7 unknown #
point $-1 40 -20 0 #
coedge $-1 $564 $597 $603 $628 reversed $507 $-1 #
edge $-1 $511 -10 $516 10 $549 $629 forward 7 unknown #
straight-curve $-1 12.5 10 -20 -1 6.123232939436859187e-17 0 I I #
point $-1 20 10 -20 #
straight-curve $-1 12.5 -10 -20 1 -6.123232939436859187e-17 0 I I #
point $-1 20 -10 -20 #
coedge $-1 $630 $519 $522 $586 reversed $553 $-1 #
coedge $-1 $519 $630 $534 $594 reversed $553 $-1 #
straight-curve $-1 30 20 7.5 0 0 1 I I #
coedge $-1 $522 $521 $625 $631 forward $523 $-1 #
edge $-1 $632 0 $524 3.141592653589793116 $522 $633 forward 7 unknown #
point $-1 30 20 20 #
vertex $-1 $631 $634 #
ellipse-curve $-1 35 -20 20 0 0 1 5 0 0 1 I I #
coedge $-1 $529 $528 $614 $635 forward $530 $-1 #
vertex $-1 $556 $636 #
ellipse-curve $-1 -35 20 20 0 0 1 5 0 0 1 I I #
coedge $-1 $535 $534 $637 $638 reversed $410 $-1 #
edge $-1 $550 -3.141592653589793116 $639 0 $534 $640 forward 7 unknown #
coedge $-1 $641 $642 $535 $596 forward $643 $-1 #
edge $-1 $598 -40 $644 40 $595 $645 forward 7 unknown #
coedge $-1 $576 $536 $642 $646 forward $507 $-1 #
vertex $-1 $537 $647 #
straight-curve $-1 -40 15 0 0 1 0 I I #
point $-1 -40 20 0 #
face $-1 $-1 $643 $2 $-1 $648 reversed single #
plane-surface $-1 0 0 20 0 0 1 1 0 0 forward_v I I I I #
coedge $-1 $546 $545 $576 $628 forward $418 $-1 #
coedge $-1 $619 $618 $545 $605 reversed $543 $-1 #
edge $-1 $610 -40 $649 40 $604 $650 forward 7 unknown #
coedge $-1 $642 $641 $546 $607 reversed $643 $-1 #
edge $-1 $651 -40 $609 40 $606 $652 forward 7 unknown #
coedge $-1 $637 $547 $641 $653 reversed $571 $-1 #
vertex $-1 $548 $654 #
vertex $-1 $624 $655 #
straight-curve $-1 40 0 -20 0 -1 0 I I #
point $-1 30 20 0 #
plane-surface $-1 40 0 0 -1 0 0 0 0 1 forward_v I I I I #
coedge $-1 $555 $563 $590 $635 reversed $507 $-1 #
straight-curve $-1 -40 20 5 0 0 -1 I I #
vertex $-1 $635 $656 #
ellipse-curve $-1 -35 -20 20 0 0 1 5 0 0 1 I I #
coedge $-1 $604 $561 $564 $621 forward $543 $-1 #
coedge $-1 $561 $604 $569 $624 reversed $543 $-1 #
straight-curve $-1 0 -40 0 -1 0 0 I I #
edge $-1 $565 0 $649 20 $564 $657 forward 7 unknown #
point $-1 -40 -40 0 #
straight-curve $-1 -40 -20 5 0 0 1 I I #
edge $-1 $572 0 $610 20 $569 $658 forward 7 unknown #
coedge $-1 $570 $659 $585 $631 reversed $571 $-1 #
point $-1 40 -40 0 #
straight-curve $-1 40 -20 5 0 0 -1 I I #
edge $-1 $649 -40 $651 40 $576 $660 forward 7 unknown #
straight-curve $-1 20 -4.592424704577644391e-16 -20 -6.123232939436859187e-17 -1 0 I I #
coedge $-1 $583 $582 $659 $661 reversed $553 $-1 #
edge $-1 $588 -20 $632 20 $625 $662 forward 7 unknown #
vertex $-1 $631 $663 #
ellipse-curve $-1 35 20 20 0 0 1 5 0 0 1 I I #
point $-1 40 -20 20 #
edge $-1 $591 -20 $616 20 $614 $664 forward 7 unknown #
point $-1 -40 20 20 #
coedge $-1 $659 $608 $593 $638 forward $571 $-1 #
edge $-1 $644 -25 $639 -5 $637 $665 forward 7 unknown #
vertex $-1 $638 $666 #
ellipse-curve $-1 35 20 0 0 0 -1 5 0 0 1 I I #
coedge $-1 $606 $595 $608 $653 forward $643 $-1 #
coedge $-1 $595 $606 $597 $646 reversed $643 $-1 #
loop $-1 $-1 $595 $601 #
vertex $-1 $596 $667 #
straight-curve $-1 0 40 0 1 0 0 I I #
edge $-1 $598 0 $651 20 $642 $668 forward 7 unknown #
point $-1 -40 40 0 #
plane-surface $-1 0 40 0 0 -1 0 0 0 -1 forward_v I I I I #
vertex $-1 $628 $669 #
straight-curve $-1 0 -40 -20 -1 0 0 I I #
vertex $-1 $607 $670 #
straight-curve $-1 0 40 -20 1 0 0 I I #
edge $-1 $644 0 $609 20 $608 $671 forward 7 unknown #
point $-1 40 40 -20 #
point $-1 40 -40 -20 #
point $-1 -40 -20 20 #
straight-curve $-1 -40 -40 0 0 0 -1 I I #
straight-curve $-1 40 -40 0 0 0 -1 I I #
coedge $-1 $625 $637 $630 $661 forward $571 $-1 #
straight-curve $-1 -40 0 -20 0 1 0 I I #
edge $-1 $639 -5 $632 15 $659 $672 forward 7 unknown #
straight-curve $-1 40 0 20 0 1 0 I I #
point $-1 40 20 20 #
straight-curve $-1 -40 0 20 0 -1 0 I I #
straight-curve $-1 40 15 0 0 -1 0 I I #
point $-1 40 20 0 #
point $-1 40 40 0 #
straight-curve $-1 -40 40 0 0 0 -1 I I #
point $-1 -40 -40 -20 #
point $-1 -40 40 -20 #
straight-curve $-1 40 40 0 0 0 -1 I I #
straight-curve $-1 40 20 5 0 0 1 I I #
End-of-ACIS-data 