  0
SECTION
  2
HEADER
  9
$ACADVER
  1
AC1009
  9
$INSBASE
 10
0.0
 20
0.0
 30
0.0
  9
$EXTMIN
 10
0.0
 20
0.0
 30
0.0
  9
$EXTMAX
 10
5.023865
 20
5.00087
 30
3.0
  9
$LIMMIN
 10
0.0
 20
0.0
  9
$LIMMAX
 10
12.0
 20
9.0
  9
$ORTHOMODE
 70
     0
  9
$REGENMODE
 70
     1
  9
$FILLMODE
 70
     1
  9
$QTEXTMODE
 70
     0
  9
$MIRRTEXT
 70
     1
  9
$DRAGMODE
 70
     2
  9
$LTSCALE
 40
1.0
  9
$OSMODE
 70
     0
  9
$ATTMODE
 70
     1
  9
$TEXTSIZE
 40
0.2
  9
$TRACEWID
 40
0.05
  9
$TEXTSTYLE
  7
STANDARD
  9
$CLAYER
  8
0
  9
$CELTYPE
  6
BYLAYER
  9
$CECOLOR
 62
   256
  9
$DIMSCALE
 40
1.0
  9
$DIMASZ
 40
0.18
  9
$DIMEXO
 40
0.0625
  9
$DIMDLI
 40
0.38
  9
$DIMRND
 40
0.0
  9
$DIMDLE
 40
0.0
  9
$DIMEXE
 40
0.18
  9
$DIMTP
 40
0.0
  9
$DIMTM
 40
0.0
  9
$DIMTXT
 40
0.18
  9
$DIMCEN
 40
0.09
  9
$DIMTSZ
 40
0.0
  9
$DIMTOL
 70
     0
  9
$DIMLIM
 70
     0
  9
$DIMTIH
 70
     1
  9
$DIMTOH
 70
     1
  9
$DIMSE1
 70
     0
  9
$DIMSE2
 70
     0
  9
$DIMTAD
 70
     0
  9
$DIMZIN
 70
     0
  9
$DIMBLK
  1

  9
$DIMASO
 70
     1
  9
$DIMSHO
 70
     1
  9
$DIMPOST
  1

  9
$DIMAPOST
  1

  9
$DIMALT
 70
     0
  9
$DIMALTD
 70
     2
  9
$DIMALTF
 40
25.4
  9
$DIMLFAC
 40
1.0
  9
$DIMTOFL
 70
     0
  9
$DIMTVP
 40
0.0
  9
$DIMTIX
 70
     0
  9
$DIMSOXD
 70
     0
  9
$DIMSAH
 70
     0
  9
$DIMBLK1
  1

  9
$DIMBLK2
  1

  9
$DIMSTYLE
  2
*UNNAMED
  9
$DIMCLRD
 70
     0
  9
$DIMCLRE
 70
     0
  9
$DIMCLRT
 70
     0
  9
$DIMTFAC
 40
1.0
  9
$DIMGAP
 40
0.09
  9
$LUNITS
 70
     2
  9
$LUPREC
 70
     4
  9
$SKETCHINC
 40
0.1
  9
$FILLETRAD
 40
0.0
  9
$AUNITS
 70
     0
  9
$AUPREC
 70
     0
  9
$MENU
  1
acad
  9
$ELEVATION
 40
0.0
  9
$PELEVATION
 40
0.0
  9
$THICKNESS
 40
0.0
  9
$LIMCHECK
 70
     0
  9
$BLIPMODE
 70
     1
  9
$CHAMFERA
 40
0.0
  9
$CHAMFERB
 40
0.0
  9
$SKPOLY
 70
     0
  9
$TDCREATE
 40
2448820.895390682
  9
$TDUPDATE
 40
2448820.900159178
  9
$TDINDWG
 40
0.0047684954
  9
$TDUSRTIMER
 40
0.0047684954
  9
$USRTIMER
 70
     1
  9
$ANGBASE
 50
0.0
  9
$ANGDIR
 70
     0
  9
$PDMODE
 70
     0
  9
$PDSIZE
 40
0.0
  9
$PLINEWID
 40
0.0
  9
$COORDS
 70
     0
  9
$SPLFRAME
 70
     0
  9
$SPLINETYPE
 70
     6
  9
$SPLINESEGS
 70
     8
  9
$ATTDIA
 70
     0
  9
$ATTREQ
 70
     1
  9
$HANDLING
 70
     1
  9
$HANDSEED
  5
159
  9
$SURFTAB1
 70
     6
  9
$SURFTAB2
 70
     6
  9
$SURFTYPE
 70
     6
  9
$SURFU
 70
     6
  9
$SURFV
 70
     6
  9
$UCSNAME
  2

  9
$UCSORG
 10
0.0
 20
0.0
 30
0.0
  9
$UCSXDIR
 10
1.0
 20
0.0
 30
0.0
  9
$UCSYDIR
 10
0.0
 20
1.0
 30
0.0
  9
$PUCSNAME
  2

  9
$PUCSORG
 10
0.0
 20
0.0
 30
0.0
  9
$PUCSXDIR
 10
1.0
 20
0.0
 30
0.0
  9
$PUCSYDIR
 10
0.0
 20
1.0
 30
0.0
  9
$USERI1
 70
     0
  9
$USERI2
 70
     0
  9
$USERI3
 70
     0
  9
$USERI4
 70
     0
  9
$USERI5
 70
     0
  9
$USERR1
 40
0.0
  9
$USERR2
 40
0.0
  9
$USERR3
 40
0.0
  9
$USERR4
 40
0.0
  9
$USERR5
 40
0.0
  9
$WORLDVIEW
 70
     1
  9
$SHADEDGE
 70
     3
  9
$SHADEDIF
 70
    70
  9
$TILEMODE
 70
     1
  9
$MAXACTVP
 70
    16
  9
$PINSBASE
 10
0.0
 20
0.0
 30
0.0
  9
$PLIMCHECK
 70
     0
  9
$PEXTMIN
 10
1.000000E+20
 20
1.000000E+20
 30
1.000000E+20
  9
$PEXTMAX
 10
-1.000000E+20
 20
-1.000000E+20
 30
-1.000000E+20
  9
$PLIMMIN
 10
0.0
 20
0.0
  9
$PLIMMAX
 10
12.0
 20
9.0
  9
$UNITMODE
 70
     0
  9
$VISRETAIN
 70
     0
  9
$PLINEGEN
 70
     0
  9
$PSLTSCALE
 70
     0
  9
$TREEDEPTH
 70
  3020
  9
$DWGCODEPAGE
  3
undefined
  0
ENDSEC
  0
SECTION
  2
TABLES
  0
TABLE
  2
VPORT
 70
     2
  0
VPORT
  2
*ACTIVE
 70
     0
 10
0.0
 20
0.0
 11
1.0
 21
1.0
 12
1.664509
 22
-0.821546
 13
0.0
 23
0.0
 14
1.0
 24
1.0
 15
0.0
 25
0.0
 16
1.0
 26
1.0
 36
1.0
 17
0.0
 27
0.0
 37
0.0
 40
6.542071
 41
1.594883
 42
50.0
 43
0.0
 44
0.0
 50
0.0
 51
0.0
 71
     0
 72
   100
 73
     1
 74
     1
 75
     0
 76
     0
 77
     0
 78
     0
  0
ENDTAB
  0
TABLE
  2
LTYPE
 70
     1
  0
LTYPE
  2
CONTINUOUS
 70
    64
  3
Solid line
 72
    65
 73
     0
 40
0.0
  0
ENDTAB
  0
TABLE
  2
LAYER
 70
     2
  0
LAYER
  2
0
 70
    64
 62
     7
  6
CONTINUOUS
  0
LAYER
  2
AME_FRZ
 70
    65
 62
     7
  6
CONTINUOUS
  0
ENDTAB
  0
TABLE
  2
STYLE
 70
     1
  0
STYLE
  2
STANDARD
 70
     0
 40
0.0
 41
1.0
 50
0.0
 71
     0
 42
0.2
  3
txt
  4

  0
ENDTAB
  0
TABLE
  2
VIEW
 70
     0
  0
ENDTAB
  0
TABLE
  2
UCS
 70
     0
  0
ENDTAB
  0
TABLE
  2
APPID
 70
     2
  0
APPID
  2
ACAD
 70
    64
  0
APPID
  2
AME_SOL
 70
    64
  0
ENDTAB
  0
TABLE
  2
DIMSTYLE
 70
     0
  0
ENDTAB
  0
ENDSEC
  0
SECTION
  2
BLOCKS
  0
BLOCK
  8
0
  5
1
  2
AME_NIL
 70
    64
 10
0.0
 20
0.0
 30
0.0
  1
AME_NIL
  3
AME_NIL
  0
ENDBLK
  8
0
  5
2
  0
BLOCK
  8
0
  5
4
  2
AME_SOL
 70
    64
 10
0.0
 20
0.0
 30
0.0
  1
AME_SOL
  3
AME_SOL
  0
ENDBLK
  8
0
  5
5
  0
BLOCK
  8
0
  5
7
  2
*U2
 70
    65
 10
0.0
 20
0.0
 30
0.0
  1
*U
  3
*U
  0
LINE
  8
0
 62
     0
  5
8
 10
5.0
 20
5.0
 30
0.0
 11
5.0
 21
5.0
 31
3.0
1001
AME_SOL
1070
     1
1071
       18
  0
LINE
  8
0
 62
     0
  5
9
 10
5.0
 20
5.0
 30
3.0
 11
5.0
 21
0.0
 31
3.0
1001
AME_SOL
1070
     1
1071
       17
  0
LINE
  8
0
 62
     0
  5
A
 10
0.0
 20
5.0
 30
3.0
 11
5.0
 21
5.0
 31
3.0
1001
AME_SOL
1070
     1
1071
       16
  0
LINE
  8
0
 62
     0
  5
B
 10
0.0
 20
5.0
 30
0.0
 11
0.0
 21
5.0
 31
3.0
1001
AME_SOL
1070
     1
1071
       15
  0
LINE
  8
0
 62
     0
  5
C
 10
0.0
 20
5.0
 30
3.0
 11
0.0
 21
0.0
 31
3.0
1001
AME_SOL
1070
     1
1071
       14
  0
LINE
  8
0
 62
     0
  5
D
 10
0.0
 20
0.0
 30
0.0
 11
0.0
 21
0.0
 31
3.0
1001
AME_SOL
1070
     1
1071
       13
  0
LINE
  8
0
 62
     0
  5
E
 10
5.0
 20
0.0
 30
3.0
 11
5.0
 21
0.0
 31
0.0
1001
AME_SOL
1070
     1
1071
       12
  0
LINE
  8
0
 62
     0
  5
F
 10
0.0
 20
0.0
 30
3.0
 11
5.0
 21
0.0
 31
3.0
1001
AME_SOL
1070
     1
1071
       11
  0
LINE
  8
0
 62
     0
  5
10
 10
0.0
 20
0.0
 30
0.0
 11
5.0
 21
0.0
 31
0.0
1001
AME_SOL
1070
     1
1071
       10
  0
LINE
  8
0
 62
     0
  5
11
 10
0.0
 20
5.0
 30
0.0
 11
0.0
 21
0.0
 31
0.0
1001
AME_SOL
1070
     1
1071
        9
  0
LINE
  8
0
 62
     0
  5
12
 10
5.0
 20
0.0
 30
0.0
 11
5.0
 21
5.0
 31
0.0
1001
AME_SOL
1070
     1
1071
        8
  0
LINE
  8
0
 62
     0
  5
13
 10
5.0
 20
5.0
 30
0.0
 11
0.0
 21
5.0
 31
0.0
1001
AME_SOL
1070
     1
1071
        7
  0
ENDBLK
  8
0
  5
14
  0
BLOCK
  8
0
  5
18
  2
*U3
 70
    65
 10
0.0
 20
0.0
 30
0.0
  1
*U
  3
*U
  0
LINE
  8
0
 62
     0
  5
19
 10
1.0
 20
3.0
 30
0.0
 11
1.0
 21
3.0
 31
3.0
1001
AME_SOL
1070
     1
1071
       18
  0
LINE
  8
0
 62
     0
  5
1A
 10
1.0
 20
3.0
 30
3.0
 11
1.0
 21
0.0
 31
3.0
1001
AME_SOL
1070
     1
1071
       17
  0
LINE
  8
0
 62
     0
  5
1B
 10
0.0
 20
3.0
 30
3.0
 11
1.0
 21
3.0
 31
3.0
1001
AME_SOL
1070
     1
1071
       16
  0
LINE
  8
0
 62
     0
  5
1C
 10
0.0
 20
3.0
 30
0.0
 11
0.0
 21
3.0
 31
3.0
1001
AME_SOL
1070
     1
1071
       15
  0
LINE
  8
0
 62
     0
  5
1D
 10
0.0
 20
3.0
 30
3.0
 11
0.0
 21
0.0
 31
3.0
1001
AME_SOL
1070
     1
1071
       14
  0
LINE
  8
0
 62
     0
  5
1E
 10
0.0
 20
0.0
 30
0.0
 11
0.0
 21
0.0
 31
3.0
1001
AME_SOL
1070
     1
1071
       13
  0
LINE
  8
0
 62
     0
  5
1F
 10
1.0
 20
0.0
 30
3.0
 11
1.0
 21
0.0
 31
0.0
1001
AME_SOL
1070
     1
1071
       12
  0
LINE
  8
0
 62
     0
  5
20
 10
0.0
 20
0.0
 30
3.0
 11
1.0
 21
0.0
 31
3.0
1001
AME_SOL
1070
     1
1071
       11
  0
LINE
  8
0
 62
     0
  5
21
 10
0.0
 20
0.0
 30
0.0
 11
1.0
 21
0.0
 31
0.0
1001
AME_SOL
1070
     1
1071
       10
  0
LINE
  8
0
 62
     0
  5
22
 10
0.0
 20
3.0
 30
0.0
 11
0.0
 21
0.0
 31
0.0
1001
AME_SOL
1070
     1
1071
        9
  0
LINE
  8
0
 62
     0
  5
23
 10
1.0
 20
0.0
 30
0.0
 11
1.0
 21
3.0
 31
0.0
1001
AME_SOL
1070
     1
1071
        8
  0
LINE
  8
0
 62
     0
  5
24
 10
1.0
 20
3.0
 30
0.0
 11
0.0
 21
3.0
 31
0.0
1001
AME_SOL
1070
     1
1071
        7
  0
ENDBLK
  8
0
  5
25
  0
BLOCK
  8
0
  5
29
  2
*U4
 70
    65
 10
0.0
 20
0.0
 30
0.0
  1
*U
  3
*U
  0
LINE
  8
0
 62
     0
  5
2A
 10
1.0
 20
4.0
 30
0.0
 11
1.0
 21
4.0
 31
3.0
1001
AME_SOL
1070
     1
1071
       18
  0
LINE
  8
0
 62
     0
  5
2B
 10
1.0
 20
4.0
 30
3.0
 11
1.0
 21
0.0
 31
3.0
1001
AME_SOL
1070
     1
1071
       17
  0
LINE
  8
0
 62
     0
  5
2C
 10
0.0
 20
4.0
 30
3.0
 11
1.0
 21
4.0
 31
3.0
1001
AME_SOL
1070
     1
1071
       16
  0
LINE
  8
0
 62
     0
  5
2D
 10
0.0
 20
4.0
 30
0.0
 11
0.0
 21
4.0
 31
3.0
1001
AME_SOL
1070
     1
1071
       15
  0
LINE
  8
0
 62
     0
  5
2E
 10
0.0
 20
4.0
 30
3.0
 11
0.0
 21
0.0
 31
3.0
1001
AME_SOL
1070
     1
1071
       14
  0
LINE
  8
0
 62
     0
  5
2F
 10
0.0
 20
0.0
 30
0.0
 11
0.0
 21
0.0
 31
3.0
1001
AME_SOL
1070
     1
1071
       13
  0
LINE
  8
0
 62
     0
  5
30
 10
1.0
 20
0.0
 30
3.0
 11
1.0
 21
0.0
 31
0.0
1001
AME_SOL
1070
     1
1071
       12
  0
LINE
  8
0
 62
     0
  5
31
 10
0.0
 20
0.0
 30
3.0
 11
1.0
 21
0.0
 31
3.0
1001
AME_SOL
1070
     1
1071
       11
  0
LINE
  8
0
 62
     0
  5
32
 10
0.0
 20
0.0
 30
0.0
 11
1.0
 21
0.0
 31
0.0
1001
AME_SOL
1070
     1
1071
       10
  0
LINE
  8
0
 62
     0
  5
33
 10
0.0
 20
4.0
 30
0.0
 11
0.0
 21
0.0
 31
0.0
1001
AME_SOL
1070
     1
1071
        9
  0
LINE
  8
0
 62
     0
  5
34
 10
1.0
 20
0.0
 30
0.0
 11
1.0
 21
4.0
 31
0.0
1001
AME_SOL
1070
     1
1071
        8
  0
LINE
  8
0
 62
     0
  5
35
 10
1.0
 20
4.0
 30
0.0
 11
0.0
 21
4.0
 31
0.0
1001
AME_SOL
1070
     1
1071
        7
  0
ENDBLK
  8
0
  5
36
  0
BLOCK
  8
0
  5
3C
  2
*U5
 70
    65
 10
0.0
 20
0.0
 30
0.0
  1
*U
  3
*U
  0
LINE
  8
0
 62
     7
  5
3D
 10
5.0
 20
5.0
 30
0.0
 11
5.0
 21
5.0
 31
3.0
1001
AME_SOL
1070
     1
1071
       48
  0
LINE
  8
0
 62
     7
  5
3E
 10
5.0
 20
5.0
 30
3.0
 11
5.0
 21
0.0
 31
3.0
1001
AME_SOL
1070
     1
1071
       47
  0
LINE
  8
0
 62
     7
  5
3F
 10
4.0
 20
5.0
 30
3.0
 11
5.0
 21
5.0
 31
3.0
1001
AME_SOL
1070
     1
1071
       46
  0
LINE
  8
0
 62
     7
  5
40
 10
2.0
 20
5.0
 30
3.0
 11
3.0
 21
5.0
 31
3.0
1001
AME_SOL
1070
     1
1071
       45
  0
LINE
  8
0
 62
     7
  5
41
 10
0.0
 20
5.0
 30
3.0
 11
1.0
 21
5.0
 31
3.0
1001
AME_SOL
1070
     1
1071
       44
  0
LINE
  8
0
 62
     7
  5
42
 10
0.0
 20
5.0
 30
0.0
 11
0.0
 21
5.0
 31
3.0
1001
AME_SOL
1070
     1
1071
       43
  0
LINE
  8
0
 62
     7
  5
43
 10
0.0
 20
5.0
 30
3.0
 11
0.0
 21
0.0
 31
3.0
1001
AME_SOL
1070
     1
1071
       42
  0
LINE
  8
0
 62
     7
  5
44
 10
0.0
 20
0.0
 30
0.0
 11
0.0
 21
0.0
 31
3.0
1001
AME_SOL
1070
     1
1071
       41
  0
LINE
  8
0
 62
     7
  5
45
 10
5.0
 20
0.0
 30
3.0
 11
5.0
 21
0.0
 31
0.0
1001
AME_SOL
1070
     1
1071
       40
  0
LINE
  8
0
 62
     7
  5
46
 10
0.0
 20
0.0
 30
3.0
 11
5.0
 21
0.0
 31
3.0
1001
AME_SOL
1070
     1
1071
       39
  0
LINE
  8
0
 62
     7
  5
47
 10
0.0
 20
0.0
 30
0.0
 11
5.0
 21
0.0
 31
0.0
1001
AME_SOL
1070
     1
1071
       38
  0
LINE
  8
0
 62
     7
  5
48
 10
0.0
 20
5.0
 30
0.0
 11
0.0
 21
0.0
 31
0.0
1001
AME_SOL
1070
     1
1071
       37
  0
LINE
  8
0
 62
     7
  5
49
 10
5.0
 20
0.0
 30
0.0
 11
5.0
 21
5.0
 31
0.0
1001
AME_SOL
1070
     1
1071
       36
  0
LINE
  8
0
 62
     7
  5
4A
 10
1.0
 20
5.0
 30
0.0
 11
0.0
 21
5.0
 31
0.0
1001
AME_SOL
1070
     1
1071
       35
  0
LINE
  8
0
 62
     7
  5
4B
 10
3.0
 20
5.0
 30
0.0
 11
2.0
 21
5.0
 31
0.0
1001
AME_SOL
1070
     1
1071
       34
  0
LINE
  8
0
 62
     7
  5
4C
 10
5.0
 20
5.0
 30
0.0
 11
4.0
 21
5.0
 31
0.0
1001
AME_SOL
1070
     1
1071
       33
  0
LINE
  8
0
 62
     7
  5
4D
 10
4.0
 20
5.0
 30
0.0
 11
4.0
 21
1.0
 31
0.0
1001
AME_SOL
1070
     1
1071
       32
  0
LINE
  8
0
 62
     7
  5
4E
 10
4.0
 20
5.0
 30
3.0
 11
4.0
 21
5.0
 31
0.0
1001
AME_SOL
1070
     1
1071
       31
  0
LINE
  8
0
 62
     7
  5
4F
 10
4.0
 20
1.0
 30
3.0
 11
4.0
 21
5.0
 31
3.0
1001
AME_SOL
1070
     1
1071
       30
  0
LINE
  8
0
 62
     7
  5
50
 10
3.0
 20
1.0
 30
0.0
 11
3.0
 21
5.0
 31
0.0
1001
AME_SOL
1070
     1
1071
       29
  0
LINE
  8
0
 62
     7
  5
51
 10
3.0
 20
5.0
 30
0.0
 11
3.0
 21
5.0
 31
3.0
1001
AME_SOL
1070
     1
1071
       28
  0
LINE
  8
0
 62
     7
  5
52
 10
3.0
 20
5.0
 30
3.0
 11
3.0
 21
1.0
 31
3.0
1001
AME_SOL
1070
     1
1071
       27
  0
LINE
  8
0
 62
     7
  5
53
 10
4.0
 20
1.0
 30
0.0
 11
3.0
 21
1.0
 31
0.0
1001
AME_SOL
1070
     1
1071
       26
  0
LINE
  8
0
 62
     7
  5
54
 10
3.0
 20
1.0
 30
3.0
 11
4.0
 21
1.0
 31
3.0
1001
AME_SOL
1070
     1
1071
       25
  0
LINE
  8
0
 62
     7
  5
55
 10
4.0
 20
1.0
 30
3.0
 11
4.0
 21
1.0
 31
0.0
1001
AME_SOL
1070
     1
1071
       24
  0
LINE
  8
0
 62
     7
  5
56
 10
3.0
 20
1.0
 30
0.0
 11
3.0
 21
1.0
 31
3.0
1001
AME_SOL
1070
     1
1071
       23
  0
LINE
  8
0
 62
     7
  5
57
 10
2.0
 20
5.0
 30
0.0
 11
2.0
 21
2.0
 31
0.0
1001
AME_SOL
1070
     1
1071
       22
  0
LINE
  8
0
 62
     7
  5
58
 10
2.0
 20
5.0
 30
3.0
 11
2.0
 21
5.0
 31
0.0
1001
AME_SOL
1070
     1
1071
       21
  0
LINE
  8
0
 62
     7
  5
59
 10
2.0
 20
2.0
 30
3.0
 11
2.0
 21
5.0
 31
3.0
1001
AME_SOL
1070
     1
1071
       20
  0
LINE
  8
0
 62
     7
  5
5A
 10
1.0
 20
2.0
 30
0.0
 11
1.0
 21
5.0
 31
0.0
1001
AME_SOL
1070
     1
1071
       19
  0
LINE
  8
0
 62
     7
  5
5B
 10
1.0
 20
5.0
 30
0.0
 11
1.0
 21
5.0
 31
3.0
1001
AME_SOL
1070
     1
1071
       18
  0
LINE
  8
0
 62
     7
  5
5C
 10
1.0
 20
5.0
 30
3.0
 11
1.0
 21
2.0
 31
3.0
1001
AME_SOL
1070
     1
1071
       17
  0
LINE
  8
0
 62
     7
  5
5D
 10
2.0
 20
2.0
 30
0.0
 11
1.0
 21
2.0
 31
0.0
1001
AME_SOL
1070
     1
1071
       16
  0
LINE
  8
0
 62
     7
  5
5E
 10
1.0
 20
2.0
 30
3.0
 11
2.0
 21
2.0
 31
3.0
1001
AME_SOL
1070
     1
1071
       15
  0
LINE
  8
0
 62
     7
  5
5F
 10
2.0
 20
2.0
 30
3.0
 11
2.0
 21
2.0
 31
0.0
1001
AME_SOL
1070
     1
1071
       14
  0
LINE
  8
0
 62
     7
  5
60
 10
1.0
 20
2.0
 30
0.0
 11
1.0
 21
2.0
 31
3.0
1001
AME_SOL
1070
     1
1071
       13
  0
ENDBLK
  8
0
  5
61
  0
BLOCK
  8
0
  5
76
  2
*U6
 70
    65
 10
0.0
 20
0.0
 30
0.0
  1
*U
  3
*U
  0
LINE
  8
0
 62
     0
  5
77
 10
4.0
 20
1.0
 30
0.0
 11
4.0
 21
1.0
 31
3.0
1001
AME_SOL
1070
     1
1071
       18
  0
LINE
  8
0
 62
     0
  5
78
 10
4.0
 20
1.0
 30
3.0
 11
4.0
 21
0.0
 31
3.0
1001
AME_SOL
1070
     1
1071
       17
  0
LINE
  8
0
 62
     0
  5
79
 10
0.0
 20
1.0
 30
3.0
 11
4.0
 21
1.0
 31
3.0
1001
AME_SOL
1070
     1
1071
       16
  0
LINE
  8
0
 62
     0
  5
7A
 10
0.0
 20
1.0
 30
0.0
 11
0.0
 21
1.0
 31
3.0
1001
AME_SOL
1070
     1
1071
       15
  0
LINE
  8
0
 62
     0
  5
7B
 10
0.0
 20
1.0
 30
3.0
 11
0.0
 21
0.0
 31
3.0
1001
AME_SOL
1070
     1
1071
       14
  0
LINE
  8
0
 62
     0
  5
7C
 10
0.0
 20
0.0
 30
0.0
 11
0.0
 21
0.0
 31
3.0
1001
AME_SOL
1070
     1
1071
       13
  0
LINE
  8
0
 62
     0
  5
7D
 10
4.0
 20
0.0
 30
3.0
 11
4.0
 21
0.0
 31
0.0
1001
AME_SOL
1070
     1
1071
       12
  0
LINE
  8
0
 62
     0
  5
7E
 10
0.0
 20
0.0
 30
3.0
 11
4.0
 21
0.0
 31
3.0
1001
AME_SOL
1070
     1
1071
       11
  0
LINE
  8
0
 62
     0
  5
7F
 10
0.0
 20
0.0
 30
0.0
 11
4.0
 21
0.0
 31
0.0
1001
AME_SOL
1070
     1
1071
       10
  0
LINE
  8
0
 62
     0
  5
80
 10
0.0
 20
1.0
 30
0.0
 11
0.0
 21
0.0
 31
0.0
1001
AME_SOL
1070
     1
1071
        9
  0
LINE
  8
0
 62
     0
  5
81
 10
4.0
 20
0.0
 30
0.0
 11
4.0
 21
1.0
 31
0.0
1001
AME_SOL
1070
     1
1071
        8
  0
LINE
  8
0
 62
     0
  5
82
 10
4.0
 20
1.0
 30
0.0
 11
0.0
 21
1.0
 31
0.0
1001
AME_SOL
1070
     1
1071
        7
  0
ENDBLK
  8
0
  5
83
  0
BLOCK
  8
0
  5
87
  2
*U7
 70
    65
 10
0.0
 20
0.0
 30
0.0
  1
*U
  3
*U
  0
LINE
  8
0
 62
     0
  5
88
 10
2.0
 20
2.0
 30
0.0
 11
2.0
 21
2.0
 31
3.0
1001
AME_SOL
1070
     1
1071
       18
  0
LINE
  8
0
 62
     0
  5
89
 10
2.0
 20
2.0
 30
3.0
 11
2.0
 21
0.0
 31
3.0
1001
AME_SOL
1070
     1
1071
       17
  0
LINE
  8
0
 62
     0
  5
8A
 10
0.0
 20
2.0
 30
3.0
 11
2.0
 21
2.0
 31
3.0
1001
AME_SOL
1070
     1
1071
       16
  0
LINE
  8
0
 62
     0
  5
8B
 10
0.0
 20
2.0
 30
0.0
 11
0.0
 21
2.0
 31
3.0
1001
AME_SOL
1070
     1
1071
       15
  0
LINE
  8
0
 62
     0
  5
8C
 10
0.0
 20
2.0
 30
3.0
 11
0.0
 21
0.0
 31
3.0
1001
AME_SOL
1070
     1
1071
       14
  0
LINE
  8
0
 62
     0
  5
8D
 10
0.0
 20
0.0
 30
0.0
 11
0.0
 21
0.0
 31
3.0
1001
AME_SOL
1070
     1
1071
       13
  0
LINE
  8
0
 62
     0
  5
8E
 10
2.0
 20
0.0
 30
3.0
 11
2.0
 21
0.0
 31
0.0
1001
AME_SOL
1070
     1
1071
       12
  0
LINE
  8
0
 62
     0
  5
8F
 10
0.0
 20
0.0
 30
3.0
 11
2.0
 21
0.0
 31
3.0
1001
AME_SOL
1070
     1
1071
       11
  0
LINE
  8
0
 62
     0
  5
90
 10
0.0
 20
0.0
 30
0.0
 11
2.0
 21
0.0
 31
0.0
1001
AME_SOL
1070
     1
1071
       10
  0
LINE
  8
0
 62
     0
  5
91
 10
0.0
 20
2.0
 30
0.0
 11
0.0
 21
0.0
 31
0.0
1001
AME_SOL
1070
     1
1071
        9
  0
LINE
  8
0
 62
     0
  5
92
 10
2.0
 20
0.0
 30
0.0
 11
2.0
 21
2.0
 31
0.0
1001
AME_SOL
1070
     1
1071
        8
  0
LINE
  8
0
 62
     0
  5
93
 10
2.0
 20
2.0
 30
0.0
 11
0.0
 21
2.0
 31
0.0
1001
AME_SOL
1070
     1
1071
        7
  0
ENDBLK
  8
0
  5
94
  0
BLOCK
  8
0
  5
9A
  2
*U8
 70
    65
 10
0.0
 20
0.0
 30
0.0
  1
*U
  3
*U
  0
LINE
  8
0
 62
     7
  5
9B
 10
5.0
 20
3.0
 30
3.0
 11
5.0
 21
0.0
 31
3.0
1001
AME_SOL
1070
     1
1071
       50
  0
LINE
  8
0
 62
     7
  5
9C
 10
0.0
 20
5.0
 30
3.0
 11
1.0
 21
5.0
 31
3.0
1001
AME_SOL
1070
     1
1071
       49
  0
LINE
  8
0
 62
     7
  5
9D
 10
0.0
 20
5.0
 30
0.0
 11
0.0
 21
5.0
 31
3.0
1001
AME_SOL
1070
     1
1071
       48
  0
LINE
  8
0
 62
     7
  5
9E
 10
0.0
 20
5.0
 30
3.0
 11
0.0
 21
0.0
 31
3.0
1001
AME_SOL
1070
     1
1071
       47
  0
LINE
  8
0
 62
     7
  5
9F
 10
0.0
 20
0.0
 30
0.0
 11
0.0
 21
0.0
 31
3.0
1001
AME_SOL
1070
     1
1071
       46
  0
LINE
  8
0
 62
     7
  5
A0
 10
5.0
 20
0.0
 30
3.0
 11
5.0
 21
0.0
 31
0.0
1001
AME_SOL
1070
     1
1071
       45
  0
LINE
  8
0
 62
     7
  5
A1
 10
0.0
 20
0.0
 30
3.0
 11
5.0
 21
0.0
 31
3.0
1001
AME_SOL
1070
     1
1071
       44
  0
LINE
  8
0
 62
     7
  5
A2
 10
0.0
 20
0.0
 30
0.0
 11
5.0
 21
0.0
 31
0.0
1001
AME_SOL
1070
     1
1071
       43
  0
LINE
  8
0
 62
     7
  5
A3
 10
0.0
 20
5.0
 30
0.0
 11
0.0
 21
0.0
 31
0.0
1001
AME_SOL
1070
     1
1071
       42
  0
LINE
  8
0
 62
     7
  5
A4
 10
5.0
 20
0.0
 30
0.0
 11
5.0
 21
3.0
 31
0.0
1001
AME_SOL
1070
     1
1071
       41
  0
LINE
  8
0
 62
     7
  5
A5
 10
1.0
 20
5.0
 30
0.0
 11
0.0
 21
5.0
 31
0.0
1001
AME_SOL
1070
     1
1071
       40
  0
LINE
  8
0
 62
     7
  5
A6
 10
4.0
 20
3.0
 30
0.0
 11
4.0
 21
1.0
 31
0.0
1001
AME_SOL
1070
     1
1071
       39
  0
LINE
  8
0
 62
     7
  5
A7
 10
4.0
 20
1.0
 30
3.0
 11
4.0
 21
3.0
 31
3.0
1001
AME_SOL
1070
     1
1071
       38
  0
LINE
  8
0
 62
     7
  5
A8
 10
3.0
 20
1.0
 30
0.0
 11
3.0
 21
4.0
 31
0.0
1001
AME_SOL
1070
     1
1071
       37
  0
LINE
  8
0
 62
     7
  5
A9
 10
3.0
 20
4.0
 30
3.0
 11
3.0
 21
1.0
 31
3.0
1001
AME_SOL
1070
     1
1071
       36
  0
LINE
  8
0
 62
     7
  5
AA
 10
4.0
 20
1.0
 30
0.0
 11
3.0
 21
1.0
 31
0.0
1001
AME_SOL
1070
     1
1071
       35
  0
LINE
  8
0
 62
     7
  5
AB
 10
3.0
 20
1.0
 30
0.0
 11
3.0
 21
1.0
 31
3.0
1001
AME_SOL
1070
     1
1071
       34
  0
LINE
  8
0
 62
     7
  5
AC
 10
3.0
 20
1.0
 30
3.0
 11
4.0
 21
1.0
 31
3.0
1001
AME_SOL
1070
     1
1071
       33
  0
LINE
  8
0
 62
     7
  5
AD
 10
4.0
 20
1.0
 30
3.0
 11
4.0
 21
1.0
 31
0.0
1001
AME_SOL
1070
     1
1071
       32
  0
LINE
  8
0
 62
     7
  5
AE
 10
2.0
 20
4.0
 30
0.0
 11
2.0
 21
2.0
 31
0.0
1001
AME_SOL
1070
     1
1071
       31
  0
LINE
  8
0
 62
     7
  5
AF
 10
2.0
 20
2.0
 30
3.0
 11
2.0
 21
4.0
 31
3.0
1001
AME_SOL
1070
     1
1071
       30
  0
LINE
  8
0
 62
     7
  5
B0
 10
1.0
 20
2.0
 30
0.0
 11
1.0
 21
5.0
 31
0.0
1001
AME_SOL
1070
     1
1071
       29
  0
LINE
  8
0
 62
     7
  5
B1
 10
1.0
 20
5.0
 30
0.0
 11
1.0
 21
5.0
 31
3.0
1001
AME_SOL
1070
     1
1071
       28
  0
LINE
  8
0
 62
     7
  5
B2
 10
1.0
 20
5.0
 30
3.0
 11
1.0
 21
2.0
 31
3.0
1001
AME_SOL
1070
     1
1071
       27
  0
LINE
  8
0
 62
     7
  5
B3
 10
2.0
 20
2.0
 30
0.0
 11
1.0
 21
2.0
 31
0.0
1001
AME_SOL
1070
     1
1071
       26
  0
LINE
  8
0
 62
     7
  5
B4
 10
1.0
 20
2.0
 30
0.0
 11
1.0
 21
2.0
 31
3.0
1001
AME_SOL
1070
     1
1071
       25
  0
LINE
  8
0
 62
     7
  5
B5
 10
1.0
 20
2.0
 30
3.0
 11
2.0
 21
2.0
 31
3.0
1001
AME_SOL
1070
     1
1071
       24
  0
LINE
  8
0
 62
     7
  5
B6
 10
2.0
 20
2.0
 30
3.0
 11
2.0
 21
2.0
 31
0.0
1001
AME_SOL
1070
     1
1071
       23
  0
LINE
  8
0
 62
     7
  5
B7
 10
5.0
 20
3.0
 30
0.0
 11
4.0
 21
3.0
 31
0.0
1001
AME_SOL
1070
     1
1071
       22
  0
LINE
  8
0
 62
     7
  5
B8
 10
5.0
 20
3.0
 30
3.0
 11
5.0
 21
3.0
 31
0.0
1001
AME_SOL
1070
     1
1071
       21
  0
LINE
  8
0
 62
     7
  5
B9
 10
4.0
 20
3.0
 30
3.0
 11
5.0
 21
3.0
 31
3.0
1001
AME_SOL
1070
     1
1071
       20
  0
LINE
  8
0
 62
     7
  5
BA
 10
4.0
 20
3.0
 30
3.0
 11
4.0
 21
3.0
 31
0.0
1001
AME_SOL
1070
     1
1071
       19
  0
LINE
  8
0
 62
     7
  5
BB
 10
3.0
 20
4.0
 30
0.0
 11
2.0
 21
4.0
 31
0.0
1001
AME_SOL
1070
     1
1071
       18
  0
LINE
  8
0
 62
     7
  5
BC
 10
2.0
 20
4.0
 30
3.0
 11
2.0
 21
4.0
 31
0.0
1001
AME_SOL
1070
     1
1071
       17
  0
LINE
  8
0
 62
     7
  5
BD
 10
3.0
 20
4.0
 30
0.0
 11
3.0
 21
4.0
 31
3.0
1001
AME_SOL
1070
     1
1071
       16
  0
LINE
  8
0
 62
     7
  5
BE
 10
2.0
 20
4.0
 30
3.0
 11
3.0
 21
4.0
 31
3.0
1001
AME_SOL
1070
     1
1071
       15
  0
ENDBLK
  8
0
  5
BF
  0
BLOCK
  8
0
  5
C3
  2
*U9
 70
    65
 10
0.0
 20
0.0
 30
0.0
  1
*U
  3
*U
  0
POLYLINE
  8
0
 62
     7
  5
C4
 66
     1
 10
0.0
 20
0.0
 30
0.0
 70
    64
  0
VERTEX
  8
0
  5
C5
 10
5.0
 20
3.0
 30
3.0
 70
   192
  0
VERTEX
  8
0
  5
C6
 10
5.0
 20
0.0
 30
0.0
 70
   192
  0
VERTEX
  8
0
  5
C7
 10
5.0
 20
3.0
 30
0.0
 70
   192
  0
VERTEX
  8
0
  5
C8
 10
5.0
 20
0.0
 30
3.0
 70
   192
  0
VERTEX
  8
0
 62
     7
  5
C9
 10
0.0
 20
0.0
 30
0.0
 70
   128
 71
    -1
 72
     2
 73
     3
  0
VERTEX
  8
0
 62
     7
  5
CA
 10
0.0
 20
0.0
 30
0.0
 70
   128
 71
     1
 72
     4
 73
    -2
  0
SEQEND
  8
0
 62
     7
  5
CB
  0
POLYLINE
  8
0
 62
     7
  5
CC
 66
     1
 10
0.0
 20
0.0
 30
0.0
 70
    64
  0
VERTEX
  8
0
  5
CD
 10
0.0
 20
5.0
 30
0.0
 70
   192
  0
VERTEX
  8
0
  5
CE
 10
0.0
 20
5.0
 30
3.0
 70
   192
  0
VERTEX
  8
0
  5
CF
 10
1.0
 20
5.0
 30
3.0
 70
   192
  0
VERTEX
  8
0
  5
D0
 10
1.0
 20
5.0
 30
0.0
 70
   192
  0
VERTEX
  8
0
 62
     7
  5
D1
 10
0.0
 20
0.0
 30
0.0
 70
   128
 71
     1
 72
     2
 73
    -3
  0
VERTEX
  8
0
 62
     7
  5
D2
 10
0.0
 20
0.0
 30
0.0
 70
   128
 71
     3
 72
     4
 73
    -1
  0
SEQEND
  8
0
 62
     7
  5
D3
  0
POLYLINE
  8
0
 62
     7
  5
D4
 66
     1
 10
0.0
 20
0.0
 30
0.0
 70
    64
  0
VERTEX
  8
0
  5
D5
 10
1.0
 20
2.0
 30
3.0
 70
   192
  0
VERTEX
  8
0
  5
D6
 10
0.0
 20
0.0
 30
3.0
 70
   192
  0
VERTEX
  8
0
  5
D7
 10
3.0
 20
1.0
 30
3.0
 70
   192
  0
VERTEX
  8
0
  5
D8
 10
2.0
 20
2.0
 30
3.0
 70
   192
  0
VERTEX
  8
0
  5
D9
 10
2.0
 20
4.0
 30
3.0
 70
   192
  0
VERTEX
  8
0
  5
DA
 10
5.0
 20
0.0
 30
3.0
 70
   192
  0
VERTEX
  8
0
  5
DB
 10
0.0
 20
5.0
 30
3.0
 70
   192
  0
VERTEX
  8
0
  5
DC
 10
1.0
 20
5.0
 30
3.0
 70
   192
  0
VERTEX
  8
0
  5
DD
 10
3.0
 20
4.0
 30
3.0
 70
   192
  0
VERTEX
  8
0
  5
DE
 10
4.0
 20
1.0
 30
3.0
 70
   192
  0
VERTEX
  8
0
  5
DF
 10
4.0
 20
3.0
 30
3.0
 70
   192
  0
VERTEX
  8
0
  5
E0
 10
5.0
 20
3.0
 30
3.0
 70
   192
  0
VERTEX
  8
0
 62
     7
  5
E1
 10
0.0
 20
0.0
 30
0.0
 70
   128
 71
    -1
 72
    -2
 73
    -3
  0
VERTEX
  8
0
 62
     7
  5
E2
 10
0.0
 20
0.0
 30
0.0
 70
   128
 71
    -3
 72
     4
 73
    -1
  0
VERTEX
  8
0
 62
     7
  5
E3
 10
0.0
 20
0.0
 30
0.0
 70
   128
 71
    -3
 72
     5
 73
    -4
  0
VERTEX
  8
0
 62
     7
  5
E4
 10
0.0
 20
0.0
 30
0.0
 70
   128
 71
     2
 72
    -6
 73
    -3
  0
VERTEX
  8
0
 62
     7
  5
E5
 10
0.0
 20
0.0
 30
0.0
 70
   128
 71
    -1
 72
     7
 73
    -2
  0
VERTEX
  8
0
 62
     7
  5
E6
 10
0.0
 20
0.0
 30
0.0
 70
   128
 71
     1
 72
     8
 73
    -7
  0
VERTEX
  8
0
 62
     7
  5
E7
 10
0.0
 20
0.0
 30
0.0
 70
   128
 71
     3
 72
     9
 73
    -5
  0
VERTEX
  8
0
 62
     7
  5
E8
 10
0.0
 20
0.0
 30
0.0
 70
   128
 71
    -6
 72
    10
 73
    -3
  0
VERTEX
  8
0
 62
     7
  5
E9
 10
0.0
 20
0.0
 30
0.0
 70
   128
 71
    -6
 72
    11
 73
   -10
  0
VERTEX
  8
0
 62
     7
  5
EA
 10
0.0
 20
0.0
 30
0.0
 70
   128
 71
     6
 72
    12
 73
   -11
  0
SEQEND
  8
0
 62
     7
  5
EB
  0
POLYLINE
  8
0
 62
     7
  5
EC
 66
     1
 10
0.0
 20
0.0
 30
0.0
 70
    64
  0
VERTEX
  8
0
  5
ED
 10
0.0
 20
0.0
 30
0.0
 70
   192
  0
VERTEX
  8
0
  5
EE
 10
0.0
 20
0.0
 30
3.0
 70
   192
  0
VERTEX
  8
0
  5
EF
 10
0.0
 20
5.0
 30
0.0
 70
   192
  0
VERTEX
  8
0
  5
F0
 10
0.0
 20
5.0
 30
3.0
 70
   192
  0
VERTEX
  8
0
 62
     7
  5
F1
 10
0.0
 20
0.0
 30
0.0
 70
   128
 71
     1
 72
    -2
 73
     3
  0
VERTEX
  8
0
 62
     7
  5
F2
 10
0.0
 20
0.0
 30
0.0
 70
   128
 71
     2
 72
     4
 73
    -3
  0
SEQEND
  8
0
 62
     7
  5
F3
  0
POLYLINE
  8
0
 62
     7
  5
F4
 66
     1
 10
0.0
 20
0.0
 30
0.0
 70
    64
  0
VERTEX
  8
0
  5
F5
 10
5.0
 20
0.0
 30
0.0
 70
   192
  0
VERTEX
  8
0
  5
F6
 10
0.0
 20
0.0
 30
3.0
 70
   192
  0
VERTEX
  8
0
  5
F7
 10
0.0
 20
0.0
 30
0.0
 70
   192
  0
VERTEX
  8
0
  5
F8
 10
5.0
 20
0.0
 30
3.0
 70
   192
  0
VERTEX
  8
0
 62
     7
  5
F9
 10
0.0
 20
0.0
 30
0.0
 70
   128
 71
    -1
 72
     2
 73
     3
  0
VERTEX
  8
0
 62
     7
  5
FA
 10
0.0
 20
0.0
 30
0.0
 70
   128
 71
     1
 72
     4
 73
    -2
  0
SEQEND
  8
0
 62
     7
  5
FB
  0
POLYLINE
  8
0
 62
     7
  5
FC
 66
     1
 10
0.0
 20
0.0
 30
0.0
 70
    64
  0
VERTEX
  8
0
  5
FD
 10
3.0
 20
1.0
 30
0.0
 70
   192
  0
VERTEX
  8
0
  5
FE
 10
5.0
 20
0.0
 30
0.0
 70
   192
  0
VERTEX
  8
0
  5
FF
 10
0.0
 20
0.0
 30
0.0
 70
   192
  0
VERTEX
  8
0
  5
100
 10
2.0
 20
2.0
 30
0.0
 70
   192
  0
VERTEX
  8
0
  5
101
 10
1.0
 20
2.0
 30
0.0
 70
   192
  0
VERTEX
  8
0
  5
102
 10
4.0
 20
1.0
 30
0.0
 70
   192
  0
VERTEX
  8
0
  5
103
 10
3.0
 20
4.0
 30
0.0
 70
   192
  0
VERTEX
  8
0
  5
104
 10
2.0
 20
4.0
 30
0.0
 70
   192
  0
VERTEX
  8
0
  5
105
 10
1.0
 20
5.0
 30
0.0
 70
   192
  0
VERTEX
  8
0
  5
106
 10
0.0
 20
5.0
 30
0.0
 70
   192
  0
VERTEX
  8
0
  5
107
 10
5.0
 20
3.0
 30
0.0
 70
   192
  0
VERTEX
  8
0
  5
108
 10
4.0
 20
3.0
 30
0.0
 70
   192
  0
VERTEX
  8
0
 62
     7
  5
109
 10
0.0
 20
0.0
 30
0.0
 70
   128
 71
    -1
 72
     2
 73
    -3
  0
VERTEX
  8
0
 62
     7
  5
10A
 10
0.0
 20
0.0
 30
0.0
 70
   128
 71
    -3
 72
    -4
 73
    -1
  0
VERTEX
  8
0
 62
     7
  5
10B
 10
0.0
 20
0.0
 30
0.0
 70
   128
 71
    -3
 72
     5
 73
    -4
  0
VERTEX
  8
0
 62
     7
  5
10C
 10
0.0
 20
0.0
 30
0.0
 70
   128
 71
     1
 72
    -6
 73
    -2
  0
VERTEX
  8
0
 62
     7
  5
10D
 10
0.0
 20
0.0
 30
0.0
 70
   128
 71
    -4
 72
     7
 73
    -1
  0
VERTEX
  8
0
 62
     7
  5
10E
 10
0.0
 20
0.0
 30
0.0
 70
   128
 71
     4
 72
     8
 73
    -7
  0
VERTEX
  8
0
 62
     7
  5
10F
 10
0.0
 20
0.0
 30
0.0
 70
   128
 71
    -3
 72
     9
 73
    -5
  0
VERTEX
  8
0
 62
     7
  5
110
 10
0.0
 20
0.0
 30
0.0
 70
   128
 71
     3
 72
    10
 73
    -9
  0
VERTEX
  8
0
 62
     7
  5
111
 10
0.0
 20
0.0
 30
0.0
 70
   128
 71
    -6
 72
    11
 73
    -2
  0
VERTEX
  8
0
 62
     7
  5
112
 10
0.0
 20
0.0
 30
0.0
 70
   128
 71
     6
 72
    12
 73
   -11
  0
SEQEND
  8
0
 62
     7
  5
113
  0
POLYLINE
  8
0
 62
     7
  5
114
 66
     1
 10
0.0
 20
0.0
 30
0.0
 70
    64
  0
VERTEX
  8
0
  5
115
 10
4.0
 20
3.0
 30
3.0
 70
   192
  0
VERTEX
  8
0
  5
116
 10
4.0
 20
1.0
 30
3.0
 70
   192
  0
VERTEX
  8
0
  5
117
 10
4.0
 20
1.0
 30
0.0
 70
   192
  0
VERTEX
  8
0
  5
118
 10
4.0
 20
3.0
 30
0.0
 70
   192
  0
VERTEX
  8
0
 62
     7
  5
119
 10
0.0
 20
0.0
 30
0.0
 70
   128
 71
    -1
 72
     3
 73
     2
  0
VERTEX
  8
0
 62
     7
  5
11A
 10
0.0
 20
0.0
 30
0.0
 70
   128
 71
    -3
 72
     1
 73
     4
  0
SEQEND
  8
0
 62
     7
  5
11B
  0
POLYLINE
  8
0
 62
     7
  5
11C
 66
     1
 10
0.0
 20
0.0
 30
0.0
 70
    64
  0
VERTEX
  8
0
  5
11D
 10
3.0
 20
1.0
 30
3.0
 70
   192
  0
VERTEX
  8
0
  5
11E
 10
3.0
 20
4.0
 30
3.0
 70
   192
  0
VERTEX
  8
0
  5
11F
 10
3.0
 20
1.0
 30
0.0
 70
   192
  0
VERTEX
  8
0
  5
120
 10
3.0
 20
4.0
 30
0.0
 70
   192
  0
VERTEX
  8
0
 62
     7
  5
121
 10
0.0
 20
0.0
 30
0.0
 70
   128
 71
     1
 72
    -3
 73
     2
  0
VERTEX
  8
0
 62
     7
  5
122
 10
0.0
 20
0.0
 30
0.0
 70
   128
 71
    -2
 72
     3
 73
     4
  0
SEQEND
  8
0
 62
     7
  5
123
  0
POLYLINE
  8
0
 62
     7
  5
124
 66
     1
 10
0.0
 20
0.0
 30
0.0
 70
    64
  0
VERTEX
  8
0
  5
125
 10
4.0
 20
1.0
 30
3.0
 70
   192
  0
VERTEX
  8
0
  5
126
 10
3.0
 20
1.0
 30
0.0
 70
   192
  0
VERTEX
  8
0
  5
127
 10
4.0
 20
1.0
 30
0.0
 70
   192
  0
VERTEX
  8
0
  5
128
 10
3.0
 20
1.0
 30
3.0
 70
   192
  0
VERTEX
  8
0
 62
     7
  5
129
 10
0.0
 20
0.0
 30
0.0
 70
   128
 71
     1
 72
     3
 73
    -2
  0
VERTEX
  8
0
 62
     7
  5
12A
 10
0.0
 20
0.0
 30
0.0
 70
   128
 71
    -1
 72
     2
 73
     4
  0
SEQEND
  8
0
 62
     7
  5
12B
  0
POLYLINE
  8
0
 62
     7
  5
12C
 66
     1
 10
0.0
 20
0.0
 30
0.0
 70
    64
  0
VERTEX
  8
0
  5
12D
 10
2.0
 20
2.0
 30
3.0
 70
   192
  0
VERTEX
  8
0
  5
12E
 10
2.0
 20
2.0
 30
0.0
 70
   192
  0
VERTEX
  8
0
  5
12F
 10
2.0
 20
4.0
 30
0.0
 70
   192
  0
VERTEX
  8
0
  5
130
 10
2.0
 20
4.0
 30
3.0
 70
   192
  0
VERTEX
  8
0
 62
     7
  5
131
 10
0.0
 20
0.0
 30
0.0
 70
   128
 71
    -1
 72
     3
 73
     2
  0
VERTEX
  8
0
 62
     7
  5
132
 10
0.0
 20
0.0
 30
0.0
 70
   128
 71
    -3
 72
     1
 73
     4
  0
SEQEND
  8
0
 62
     7
  5
133
  0
POLYLINE
  8
0
 62
     7
  5
134
 66
     1
 10
0.0
 20
0.0
 30
0.0
 70
    64
  0
VERTEX
  8
0
  5
135
 10
1.0
 20
2.0
 30
3.0
 70
   192
  0
VERTEX
  8
0
  5
136
 10
1.0
 20
5.0
 30
3.0
 70
   192
  0
VERTEX
  8
0
  5
137
 10
1.0
 20
5.0
 30
0.0
 70
   192
  0
VERTEX
  8
0
  5
138
 10
1.0
 20
2.0
 30
0.0
 70
   192
  0
VERTEX
  8
0
 62
     7
  5
139
 10
0.0
 20
0.0
 30
0.0
 70
   128
 71
    -1
 72
     3
 73
     2
  0
VERTEX
  8
0
 62
     7
  5
13A
 10
0.0
 20
0.0
 30
0.0
 70
   128
 71
    -3
 72
     1
 73
     4
  0
SEQEND
  8
0
 62
     7
  5
13B
  0
POLYLINE
  8
0
 62
     7
  5
13C
 66
     1
 10
0.0
 20
0.0
 30
0.0
 70
    64
  0
VERTEX
  8
0
  5
13D
 10
2.0
 20
2.0
 30
3.0
 70
   192
  0
VERTEX
  8
0
  5
13E
 10
1.0
 20
2.0
 30
3.0
 70
   192
  0
VERTEX
  8
0
  5
13F
 10
2.0
 20
2.0
 30
0.0
 70
   192
  0
VERTEX
  8
0
  5
140
 10
1.0
 20
2.0
 30
0.0
 70
   192
  0
VERTEX
  8
0
 62
     7
  5
141
 10
0.0
 20
0.0
 30
0.0
 70
   128
 71
     1
 72
    -3
 73
     2
  0
VERTEX
  8
0
 62
     7
  5
142
 10
0.0
 20
0.0
 30
0.0
 70
   128
 71
    -2
 72
     3
 73
     4
  0
SEQEND
  8
0
 62
     7
  5
143
  0
POLYLINE
  8
0
 62
     7
  5
144
 66
     1
 10
0.0
 20
0.0
 30
0.0
 70
    64
  0
VERTEX
  8
0
  5
145
 10
4.0
 20
3.0
 30
0.0
 70
   192
  0
VERTEX
  8
0
  5
146
 10
5.0
 20
3.0
 30
3.0
 70
   192
  0
VERTEX
  8
0
  5
147
 10
4.0
 20
3.0
 30
3.0
 70
   192
  0
VERTEX
  8
0
  5
148
 10
5.0
 20
3.0
 30
0.0
 70
   192
  0
VERTEX
  8
0
 62
     7
  5
149
 10
0.0
 20
0.0
 30
0.0
 70
   128
 71
     1
 72
     3
 73
    -2
  0
VERTEX
  8
0
 62
     7
  5
14A
 10
0.0
 20
0.0
 30
0.0
 70
   128
 71
    -1
 72
     2
 73
     4
  0
SEQEND
  8
0
 62
     7
  5
14B
  0
POLYLINE
  8
0
 62
     7
  5
14C
 66
     1
 10
0.0
 20
0.0
 30
0.0
 70
    64
  0
VERTEX
  8
0
  5
14D
 10
2.0
 20
4.0
 30
0.0
 70
   192
  0
VERTEX
  8
0
  5
14E
 10
3.0
 20
4.0
 30
0.0
 70
   192
  0
VERTEX
  8
0
  5
14F
 10
3.0
 20
4.0
 30
3.0
 70
   192
  0
VERTEX
  8
0
  5
150
 10
2.0
 20
4.0
 30
3.0
 70
   192
  0
VERTEX
  8
0
 62
     7
  5
151
 10
0.0
 20
0.0
 30
0.0
 70
   128
 71
    -1
 72
     3
 73
     2
  0
VERTEX
  8
0
 62
     7
  5
152
 10
0.0
 20
0.0
 30
0.0
 70
   128
 71
    -3
 72
     1
 73
     4
  0
SEQEND
  8
0
 62
     7
  5
153
  0
ENDBLK
  8
0
  5
154
  0
BLOCK
  8
0
  5
156
  2
AME_MAT
 70
    64
 10
0.0
 20
0.0
 30
0.0
  1
AME_MAT
  3
AME_MAT
  0
ENDBLK
  8
0
  5
157
  0
ENDSEC
  0
SECTION
  2
ENTITIES
  0
INSERT
  8
AME_FRZ
  5
3
  2
AME_NIL
 10
0.0
 20
0.0
 30
0.0
  0
INSERT
  8
AME_FRZ
  5
6
  2
AME_SOL
 10
0.0
 20
0.0
 30
0.0
1001
AME_SOL
1000
1.0
1000
sq cm
1070
     3
1070
     0
1070
     3
1000
wire
1040
0.0
1000
NONE
1040
1.0
1000
cm
1000
gm
1000
MILD_STEEL
1070
    25
1000
CSG
1070
     3
1070
     2
1070
     3
1000
cu cm
1070
     4
1070
     0
1005
3
  0
INSERT
  8
AME_FRZ
  5
15
  2
*U2
 10
0.0
 20
0.0
 30
0.0
1001
AME_SOL
1002
{
1070
     0
1071
  2119928
1070
  1536
1010
5.0
1020
5.0
1030
3.0
1005
0
1005
0
1005
62
1040
0.0
1040
1.0
1000
MILD_STEEL
1000
0
1010
0.0
1020
0.0
1030
0.0
1010
0.0
1020
0.0
1030
1.0
1040
0.0
1002
}
  0
INSERT
  8
AME_FRZ
  5
26
  2
*U3
 10
1.0
 20
2.0
 30
0.0
1001
AME_SOL
1002
{
1070
     0
1071
  2139752
1070
  1536
1010
1.0
1020
3.0
1030
3.0
1005
0
1005
0
1005
3A
1040
0.0
1040
1.0
1000
MILD_STEEL
1000
0
1010
1.0
1020
2.0
1030
0.0
1010
0.0
1020
0.0
1030
1.0
1040
0.0
1002
}
  0
INSERT
  8
AME_FRZ
  5
37
  2
*U4
 10
3.0
 20
1.0
 30
0.0
1001
AME_SOL
1002
{
1070
     0
1071
  1923904
1070
  1536
1010
1.0
1020
4.0
1030
3.0
1005
0
1005
0
1005
3A
1040
0.0
1040
1.0
1000
MILD_STEEL
1000
0
1010
3.0
1020
1.0
1030
0.0
1010
0.0
1020
0.0
1030
1.0
1040
0.0
1002
}
  0
INSERT
  8
AME_FRZ
  5
3A
  2
AME_NIL
 10
0.0
 20
0.0
 30
0.0
1001
AME_SOL
1002
{
1070
     0
1071
  1987416
1070
   775
1070
     2
1005
37
1005
26
1005
0
1005
0
1005
62
1040
0.0
1040
1.0
1000
MILD_STEEL
1000
0
1010
0.0
1020
0.0
1030
0.0
1010
0.0
1020
0.0
1030
1.0
1040
0.0
1002
}
  0
INSERT
  8
AME_FRZ
  5
62
  2
*U5
 10
0.0
 20
0.0
 30
0.0
1001
AME_SOL
1002
{
1070
     0
1071
  1999952
1070
  1543
1070
     0
1005
15
1005
3A
1005
0
1005
0
1005
C0
1040
0.0
1040
1.0
1000
MILD_STEEL
1000
0
1010
0.0
1020
0.0
1030
0.0
1010
0.0
1020
0.0
1030
1.0
1040
0.0
1002
}
  0
INSERT
  8
AME_FRZ
  5
84
  2
*U6
 10
1.0
 20
4.0
 30
0.0
1001
AME_SOL
1002
{
1070
     0
1071
  1930008
1070
  1536
1010
4.0
1020
1.0
1030
3.0
1005
0
1005
0
1005
98
1040
0.0
1040
1.0
1000
MILD_STEEL
1000
0
1010
1.0
1020
4.0
1030
0.0
1010
0.0
1020
0.0
1030
1.0
1040
0.0
1002
}
  0
INSERT
  8
AME_FRZ
  5
95
  2
*U7
 10
3.0
 20
3.0
 30
0.0
1001
AME_SOL
1002
{
1070
     0
1071
  1984832
1070
  1536
1010
2.0
1020
2.0
1030
3.0
1005
0
1005
0
1005
98
1040
0.0
1040
1.0
1000
MILD_STEEL
1000
0
1010
3.0
1020
3.0
1030
0.0
1010
0.0
1020
0.0
1030
1.0
1040
0.0
1002
}
  0
INSERT
  8
AME_FRZ
  5
98
  2
AME_NIL
 10
0.0
 20
0.0
 30
0.0
1001
AME_SOL
1002
{
1070
     0
1071
  1967472
1070
   775
1070
     2
1005
95
1005
84
1005
0
1005
0
1005
C0
1040
0.0
1040
1.0
1000
MILD_STEEL
1000
0
1010
0.0
1020
0.0
1030
0.0
1010
0.0
1020
0.0
1030
1.0
1040
0.0
1002
}
  0
INSERT
  8
0
  5
C0
  2
*U9
 10
0.0
 20
0.0
 30
0.0
1001
AME_SOL
1002
{
1070
     0
1071
  2008080
1070
  9223
1070
     0
1005
62
1005
98
1005
155
1005
C1
1005
0
1040
114.0
1040
1.0
1000
MILD_STEEL
1000
0
1002
}
  0
INSERT
  8
AME_FRZ
  5
C1
  2
AME_NIL
 10
1.0
 20
1.0
 30
1.0
1001
AME_SOL
1004
E903A9FB0100F0FFFFFF000052F70E0001000000F2CB75BAF2CB75BAF2CB75BAAE07A040AE07A0405D0F404001000000FBF2040036D77F3FCDF57F402B2B23BA1A05A0401A058040340A40400100844ED0582000FFFF0000010031010000844E00000000803F000000000000000000000000000000000000
1004
803F0000803F000080400000000005000000000000000000000000000000000000000000844E00000000803F000000000000000000000000000000000000803F0000803F0000804000000000050000000000000000000000000000000000FFFFFFFFFBF2040000F63F4000F63F40000020BA0005A040000A
1004
4040000A40400100844EC08F1D00FFFF0000010095010000844E00000000803F000000000000000000000000000000000000803F00004040000040400000000005000000000000000000000000000000000000000000844E00000000803F000000000000000000000000000000000000803F000040400000
1004
404000000000050000000000000000000000000000000000FFFFFFFFFBF2040000D87F3F00ECFF3F000020BA000A0040000A0040000A40400100844E588B1D00FFFF00000100C1020000844E00000000803F000000000000000000000000000000000000803F0000803F0000004000000000050000000000
1004
00000000000000000000000000000000844E00000000803F000000000000000000000000000000000000803F0000803F0000004000000000050000000000000000000000000000000000FFFFFFFFFBF2040036D77F3FCDF57F402B2B23BA6514803F1905A040340A40400100844E288C1D00FFFF00000200
1004
30010000844E000000000000000000000000803F000000000000803F000000000000803F000080400000000005000000000000000000000000000000000000000000C0020000844E000000000000000000000000803F000000000000803F000000000000803F000000400000000005000000000000000000
1004
000000000000000000000000844E000000000000000000000000803F000000000000803F000000000000803F0000004000000000050000000000000000000000000000000000FFFFFFFFFBF2040000ECFF3F00ECFF3F000020BA000A00400005A040000A40400100844EF88C1D00FFFF00000100BD020000
1004
844E000000000080000080BF000000800000008000000080000080BF000000400000A0400000404005000000000000000000000000000000000000000000844E000000000080000080BF000000800000008000000080000080BF000000400000A04000004040050000000000000000000000000000000000
1004
FFFFFFFFFBF20400CDF53F4036D77F3F2B2B23BA1A0580406514803F340A40400100844E50561D00FFFF0000010025030000844E00000000803F000000000000000000000000000000000000803F000040400000803F0000000005000000000000000000000000000000000000000000844E00000000803F
1004
000000000000000000000000000000000000803F000040400000803F00000000050000000000000000000000000000000000FFFFFFFFFBF2040000F63F4000F63F40000020BA000A40400005A040000A40400100844E20571D00FFFF0000020094010000844E000000000000000000000000803F00000000
1004
0000803F000000000000404000004040000000000500000000000000000000000000000000000000000024030000844E000000000000000000000000803F000000000000803F00000000000040400000803F0000000005000000000000000000000000000000000000000000844E00000000000000000000
1004
0000803F000000000000803F00000000000040400000803F00000000050000000000000000000000000000000000FFFFFFFFFBF20400CEF57F4036D77F3F2B2B23BA1A0580401A05A040340A40400100844E00581D00FFFF0000010021030000844E000000000080000080BF000000800000008000000080
1004
000080BF000080400000A0400000404005000000000000000000000000000000000000000000844E000000000080000080BF000000800000008000000080000080BF000080400000A04000004040050000000000000000000000000000000000FFFFFFFFFBF20C00F2CB75BAF2CB75BAF2CB75BAAE07A040
1004
AE07A040F2CB753A0100844EF0581D000100000001008A030000844E0000000000000000803F000000000000803F000000000000000000000000000000000000000005000000000000000000000000000000000000000000844E0000000000000000803F000000000000803F000000000000000000000000
1004
000000000000000005000000000000000000000000000000000001000000FBF20400F2CB75BAF2CB75BAF2CB75BAAE07A040F2CB753A5D0F40400100844E70AD1D0001000000010089030000844E00000000803F000000000000000000000000000000000000803F00000000000000000000000005000000
1004
000000000000000000000000000000000000844E00000000803F000000000000000000000000000000000000803F00000000000000000000000005000000000000000000000000000000000001000000FBF20400F2CB75BAF2CB75BAF2CB75BAF2CB753AAE07A0405D0F40400100844ED0AE1D0001000000
1004
010088030000844E000000000000000000000000803F000000000000803F0000000000000000000000000000000005000000000000000000000000000000000000000000844E000000000000000000000000803F000000000000803F00000000000000000000000000000000050000000000000000000000
1004
00000000000001000000FBF20C00F2CB75BAF2CB75BAA4F03F40AE07A040AE07A0405D0F40400100844E98FC1E0001000000010087030000844E0000000080BF000000800000008000000080000080BF000000800000A0400000A0400000404005000000000000000000000000000000000000000000844E
1004
0000000080BF000000800000008000000080000080BF000000800000A0400000A0400000404005000000000000000000000000000000000001000000FBF20400F2CB75BA52F89F40F2CB75BAAE07A040AE07A0405D0F40400100844E40091F0001000000010086030000844E000000000080000000800000
1004
80BF000080BF00000080000000800000A0400000A0400000404005000000000000000000000000000000000000000000844E00000000008000000080000080BF000080BF00000080000000800000A0400000A0400000404005000000000000000000000000000000000001000000FBF2040052F89F40F2CB
1004
75BAF2CB75BAAE07A040AE07A0405D0F40400100844EF8171F0001000000010085030000844E000000000080000080BF000000800000008000000080000080BF0000A0400000A0400000404005000000000000000000000000000000000000000000844E000000000080000080BF00000080000000800000
1004
0080000080BF0000A0400000A0400000404005000000000000000000000000000000000001000000A4EE36D77F3FCDF57F40A4F03F401A05A0401A058040340A4040010080BF0000000002009675E0131F0000000100FFFFD058200098FC1E000000020098FC1E00D058200001000000FFFFFFFF96750000
1004
00000000000000000000803F00000000000080BF000000000000404000008040000040400200010080BF00000000A4EECDF53F40CDF57F402B2B23BA340A40401A058040340A4040000000000000404002009675B0E01D000000FFFF0100D058200020571D0000000200D058200020571D00FFFFFFFFFFFF
1004
FFFF96750000000080BF000000000000000000000000000080BF0000000000004040000080400000000002000000000000004040A4EE00ECFF3FCDF57F40000020BA000A00401A058040000A40400000C0BF0000C03F0200967598E71D000000FFFF0100D0582000F88C1D0000000200D0582000F88C1D00
1004
FFFFFFFFFFFFFFFF967500000000803F000000000000000000000000000080BF0000000000000040000080400000C03F02000000C0BF0000C03FA4EE36D77F3FCDF57F402B2B23BA1A05A0401A058040F2CB753A000020C00000C0BF0200967548E91D0000000100FFFFD0582000F0581D0000000200F058
1004
1D00D058200001000000FFFFFFFF967500000000000000000000000080BF00000000000080BF000000000000003F00008040000000000200000020C00000C0BFA4EECEF57F4000F63F40000020BA1A058040000A4040000A40400000C0BF0000C03F02009675F8EA1D000000FFFF0100C08F1D0000581D00
1004
00000200C08F1D0000581D00FFFFFFFFFFFFFFFF967500000000803F000000000000000000000000000080BF0000000000008040000040400000C03F02000000C0BF0000C03FA4EE00F63F4000F63F40A4F03F400005A040000A4040000A404000000080FFFF7F3F02009675683A1E0000000100FFFFC08F
1004
1D0098FC1E000000020098FC1E00C08F1D0001000000FFFFFFFF9675000000000000000000000000803F00000000000080BF00000000000080400000404000004040020000000080FFFF7F3FA4EE52F89F4000F63F40000020BA0005A040000A4040000A40400000C0BF0000C03F0200967570581E000000
1004
0100FFFFC08F1D00F8171F0000000200F8171F00C08F1D0001000000FFFFFFFF967500000000803F000000000000000000000000000080BF000000000000A040000040400000C03F02000000C0BF0000C03FA4EE00F63F4000F63F40000020BA0005A040000A4040F2CB753A000060C0000020C002009675
1004
D05B1E0000000100FFFFC08F1D00F0581D0000000200F0581D00C08F1D0001000000FFFFFFFF967500000000000000000000000080BF00000000000080BF000000000000C03F00004040000000000200000060C0000020C0A4EE00ECFF3F00ECFF3F000020BA000A0040000A0040000A40400000C0BF0000
1004
C03F02009675C8521E0000000100FFFF588B1D00F88C1D0000000200F88C1D00588B1D00FFFFFFFFFFFFFFFF967500000000803F000000000000000000000000000080BF0000000000000040000000400000C03F02000000C0BF0000C03FA4EE00D87F3F00ECFF3FA4F03F40000A0040000A0040000A4040
1004
010000C0010080BF02009675C8721E0000000100FFFF588B1D0098FC1E000000020098FC1E00588B1D0001000000FFFFFFFF9675000000000000000000000000803F00000000000080BF0000000000004040FFFFFF3F000040400200010000C0010080BFA4EE00D87F3F00ECFF3F000020BA0014803F000A
1004
0040000A404000000000000040400200967558731E0000000100FFFF588B1D00288C1D0000000200288C1D00588B1D00FFFFFFFFFFFFFFFF96750000000080BF000000000000000000000000000080BF000000000000803F000000400000000002000000000000004040A4EE00D87F3F00ECFF3F000020BA
1004
000A0040000A0040F2CB753A0000C0BF000000BF0200967510DA1E0000000100FFFF588B1D00F0581D0000000200F0581D00588B1D0001000000FFFFFFFF967500000000000000000000000080BF00000000000080BF000000000000003F000000400000000002000000C0BF000000BFA4EE36D77F3F00EC
1004
FF3FA4F03F406514803F1905A040340A4040FEFFBFBF0200C03F02009675A0DA1E0000000100FFFF288C1D0098FC1E000000020098FC1E00288C1D0001000000FFFFFFFF9675000000000000000000000000803F000080BF00000000000000000000803F01006040000040400200FEFFBFBF0200C03FA4EE
1004
36D77F3F52F89F402B2B23BA6514803F1905A040340A40400000C0BF0000C03F0200967578741E0000000100FFFF288C1D0040091F000000020040091F00288C1D0001000000FFFFFFFF96750000000000000000803F00000000000080BF00000000000000000000803F0000A0400000C03F02000000C0BF
1004
0000C03FA4EE36D77F3F00ECFF3F2B2B23BA6514803F1905A040F2CB753A0000803F0000804002009675D8471E0000000100FFFF288C1D00F0581D0000000200F0581D00288C1D0001000000FFFFFFFF967500000000000000000000000080BF000080BF00000000000000000000803F0000803F00000000
1004
02000000803F00008040A4EE00ECFF3F00ECFF3FA4F03F40000A00400005A040000A4040000040C0FFFF7FBF0200967528381E0000000100FFFFF88C1D0098FC1E000000020098FC1E00F88C1D0001000000FFFFFFFF9675000000000000000000000000803F0000803F0000000000000000000000400000
1004
A040000040400200000040C0FFFF7FBFA4EE00ECFF3F00ECFF3F000020BA000A00400005A040F2CB753A0000C0BFFFFFFF3E0200967598EF1E0000000100FFFFF88C1D00F0581D0000000200F0581D00F88C1D0001000000FFFFFFFF967500000000000000000000000080BF0000803F0000000000000000
1004
00000040000020400000000002000000C0BFFFFFFF3EA4EECEF57F4036D77F3F2B2B23BA1A0580406514803F340A40400000C0BF0000C03F0200967508E61E0000000100FFFF50561D0000581D000000020000581D0050561D00FFFFFFFFFFFFFFFF967500000000803F0000000000000000000000000000
1004
80BF00000000000080400000803F0000C03F02000000C0BF0000C03FA4EECDF53F4036D77F3FA4F03F401A0580406514803F340A4040FFFF7FBF0000008002009675F8E61E0000000100FFFF50561D0098FC1E000000020098FC1E0050561D0001000000FFFFFFFF9675000000000000000000000000803F
1004
00000000000080BF00000000000080400000803F000040400200FFFF7FBF00000080A4EECDF53F4036D77F3F2B2B23BA340A40406514803F340A4040000000000000404002009675E8E71E0000000100FFFF50561D0020571D000000020020571D0050561D00FFFFFFFFFFFFFFFF96750000000080BF0000
1004
00000000000000000000000080BF00000000000040400000803F0000000002000000000000004040A4EECDF53F4036D77F3F2B2B23BA1A0580406514803FF2CB753A000020C00000C0BF0200967528E91E0000000100FFFF50561D00F0581D0000000200F0581D0050561D0001000000FFFFFFFF96750000
1004
0000000000000000000080BF00000000000080BF000000000000C03F0000803F000000000200000020C00000C0BFA4EECDF53F4036D77F3FA4F03F40340A40401A05A040340A4040FFFF7FBF010000400200967518EA1E0000000100FFFF20571D0098FC1E000000020098FC1E0020571D0001000000FFFF
1004
FFFF9675000000000000000000000000803F000080BF00000000000000000000404000004040000040400200FFFF7FBF01000040A4EECDF53F4036D77F3F2B2B23BA340A40401A05A040F2CB753A0000003F000060400200967508EB1E0000000100FFFF20571D00F0581D0000000200F0581D0020571D00
1004
01000000FFFFFFFF967500000000000000000000000080BF000080BF0000000000000000000040400000003F0000000002000000003F00006040A4EECEF57F4036D77F3FA4F03F401A0580401A05A040340A4040000080C0FFFFFFBF02009675F8EB1E0000000100FFFF00581D0098FC1E000000020098FC
1004
1E0000581D0001000000FFFFFFFF9675000000000000000000000000803F0000803F0000000000000000000080400000A040000040400200000080C0FFFFFFBFA4EECEF57F4036D77F3F2B2B23BA1A0580401A05A040F2CB753A020000BF0000C03F02009675E8EC1E0000000100FFFF00581D00F0581D00
1004
00000200F0581D0000581D0001000000FFFFFFFF967500000000000000000000000080BF0000803F00000000000000000000804000002040000000000200020000BF0000C03FA4EEF2CB75BA52F89F40F2CB75BAAE07A040AE07A040F2CB753A0000C03F0000204002009675C8DC1E000000FFFF0100F058
1004
1D0040091F0000000200F0581D0040091F00010000000100000096750000000000000000803F000000000000000000000000000080BF000020400000A0400000000002000000C03F00002040A4EE52F89F40F2CB75BAF2CB75BAAE07A040AE07A040F2CB753A000020C00200003F02009675B8DD1E000000
1004
FFFF0100F0581D00F8171F0000000200F0581D00F8171F000100000001000000967500000000803F00000000000000000000000000000000000080BF0000A04000002040000000000200000020C00200003FA4EEF2CB75BAF2CB75BAF2CB75BAF2CB753AAE07A040F2CB753A0000A0C00000008002009675
1004
A8DE1E000000FFFF0100F0581D00D0AE1D0000000200F0581D00D0AE1D00010000000100000096750000000080BF00000000000000000000000000000000000080BF00000000000000000000000002000000A0C000000080A4EEF2CB75BAF2CB75BAF2CB75BAAE07A040F2CB753AF2CB753A000000000000
1004
A0400200967598DF1E000000FFFF0100F0581D0070AD1D0000000200F0581D0070AD1D0001000000010000009675000000000000000080BF000000000000000000000000000080BF0000000000000000000000000200000000000000A040A4EEF2CB75BAF2CB75BAA4F03F40AE07A040F2CB753A5D0F4040
1004
000020C00000204002009675D0F01E000000FFFF010070AD1D0098FC1E000000020070AD1D0098FC1E0001000000010000009675000000000000000000000000803F00000000000080BF000000000000204000000000000040400200000020C000002040A4EE52F89F40F2CB75BAF2CB75BAAE07A040F2CB
1004
753A5D0F40400000C0BF0000C03F02009675C0F11E000000FFFF010070AD1D00F8171F000000020070AD1D00F8171F000100000001000000967500000000803F000000000000000000000000000080BF000000000000A040000000000000C03F02000000C0BF0000C03FA4EEF2CB75BAF2CB75BAF2CB75BA
1004
F2CB753AF2CB753A5D0F4040000000000000404002009675B0F21E000000FFFF010070AD1D00D0AE1D000000020070AD1D00D0AE1D00010000000100000096750000000080BF000000000000000000000000000080BF0000000000000000000000000000000002000000000000004040A4EEF2CB75BAF2CB
1004
75BAA4F03F40F2CB753AAE07A0405D0F4040000020C00000204002009675A0F31E000000FFFF0100D0AE1D0098FC1E0000000200D0AE1D0098FC1E0001000000010000009675000000000000000000000000803F000080BF00000000000000000000000000002040000040400200000020C000002040A4EE
1004
F2CB75BA52F89F40F2CB75BAF2CB753AAE07A0405D0F40400000C0BF0000C03F0200967590F41E000000FFFF0100D0AE1D0040091F0000000200D0AE1D0040091F00010000000100000096750000000000000000803F00000000000080BF0000000000000000000000000000A0400000C03F02000000C0BF
1004
0000C03FA4EEF2CB75BA52F89F40A4F03F40AE07A040AE07A0405D0F40400000A0C0000080C00200967580F51E000000FFFF010098FC1E0040091F000000020098FC1E0040091F00010000000100000096750000000000000000803F0000000000000000000000000000803F0000A0400000A04000004040
1004
02000000A0C0000080C0A4EE52F89F40F2CB75BAA4F03F40AE07A040AE07A0405D0F4040FFFFFF3F0000A0400200967528B01D000000FFFF010098FC1E00F8171F000000020098FC1E00F8171F000100000001000000967500000000803F000000000000000000000000000000000000803F0000A0400000
1004
A040000040400200FFFFFF3F0000A04019FC
1005
C2
  0
INSERT
  8
AME_FRZ
  5
C2
  2
AME_NIL
 10
1.0
 20
1.0
 30
1.0
1001
AME_SOL
1004

1005
0
  0
INSERT
  8
AME_FRZ
  5
155
  2
*U8
 10
0.0
 20
0.0
 30
0.0
  0
INSERT
  8
AME_FRZ
  5
158
  2
AME_MAT
 10
0.0
 20
0.0
 30
0.0
1001
AME_SOL
1000
MILD_STEEL
1040
7860.0
1040
220.0
1040
0.275
1040
207.0
1040
345.0
1040
56.0
1040
12.0
1040
0.46
  0
ENDSEC
  0
EOF
