**ABCDEFGHIJKLMNOPQRSTUVWXYZabcdefghijklmnopqrstuvwxyz**************************
**PARASOLID !"#$%&'()*+,-./:;<=>?@[\]^_`{|}~0123456789**************************
**PART1;MC=sparc;MC_MODEL=sun4c;MC_ID=chaos;OS=SunOS;OS_RELEASE=4.1.2;FRU=sdl_pa
rasolid_test_sparc;APPL=unknown;SITE=sdl-cambridge-u.k.;USER=brown;FORMAT=text;G
UISE=transmit;KEY=inner_mallocbb;FILE=inner_mallocbb.xmt_txt;DATE=14-feb-1992;
**PART2;SCH=SCH_401021_4039;USFLD_SIZE=0;
**PART3;
**END_OF_HEADER*****************************************************************
T50 : TRANSMIT FILE created by modeller version 40102115 SCH_401021_40390 12 1 1
023 2 3 0 0 0 1e3 1e-8 4 2 0 5 6 1 7 1e-8 0 0 81 2 2 1023 8 1 0 0 0 0 9 10 70 3
 0 1 0 0 4 1 20 4 11 11 1 102 14 4 inner_mallocbb13 7 779 0 1 0 12 13 14 15 16 1
7 14 12 699 0 18 0 19 7 15 -16 13 739 0 20 0 21 16 18 14 730 0 22 0 23 17 50 15
 716 0 12 24 0 0 +0 0 -9.78 0 0 -1 -1 0 0 31 16 741 0 13 25 0 0 +1e-8 -3.3 .495
 -9.46 0 0 -1 -1 0 0 .13 29 17 732 0 14 26 0 -3.305 .624903810567666 -9.46 29 26
 998 0 23 27 17 -5.355 .365096189432334 -9.46 18 23 892 0 28 14 29 26 29 27 999
 0 29 30 26 -5.355 .365096189432334 -9.86 18 29 893 0 31 23 32 27 29 30 1000 0 3
2 33 27 -5.355 .624903810567666 -9.86 18 32 894 0 34 29 35 30 29 33 1001 0 35 36
 30 -5.355 .624903810567666 -9.46 18 35 895 0 37 32 38 33 29 36 1002 0 38 39 33
 -5.355 -.624903810567666 -9.46 18 38 896 0 40 35 41 36 29 39 1003 0 41 42 36 -5
.355 -.624903810567666 -9.86 18 41 897 0 43 38 44 39 29 42 1004 0 44 45 39 -5.35
5 -.365096189432334 -9.86 18 44 898 0 46 41 47 42 29 45 1005 0 47 48 42 -5.355 -
.365096189432334 -9.46 18 47 899 0 49 44 50 45 29 48 1006 0 50 51 45 -3.305 -.36
50961894323345 -9.46 18 50 900 0 52 47 53 48 29 51 1007 0 53 54 48 -3.305 -.3650
961894323345 -9.86 18 53 901 0 55 50 56 51 29 54 1008 0 56 57 51 -3.305 -.624903
810567666 -9.86 18 56 902 0 58 53 59 54 29 57 1009 0 59 60 54 -3.305 -.624903810
567666 -9.46 18 59 903 0 61 56 62 57 29 60 1011 0 62 63 57 -3.305 .6249038105676
66 -9.86 18 62 905 0 64 59 65 60 29 63 1012 0 65 66 60 -3.305 .3650961894323345
 -9.86 18 65 906 0 67 62 68 63 29 66 1013 0 68 69 63 -3.305 .3650961894323345 -9
.46 18 68 907 0 70 65 71 66 29 69 1014 0 71 72 66 -5.355 .625 -9.86 18 71 908 0
 73 68 74 69 29 72 1015 0 74 75 69 -5.355 -.625 -9.86 18 74 909 0 76 71 77 72 29
 75 1016 0 77 78 72 -3.305 -.625 -9.86 18 77 910 0 79 74 80 75 29 78 1017 0 80 8
1 75 -3.305 .625 -9.86 18 80 911 0 82 77 83 78 29 81 1018 0 84 85 78 -5.355 .625
 -9.46 18 84 914 0 86 87 88 81 29 85 1019 0 87 89 81 -5.355 -.625 -9.46 18 87 91
3 0 90 83 84 85 29 89 1020 0 83 91 85 -3.305 -.625 -9.46 18 83 912 0 92 80 87 89
 29 91 1021 0 88 0 89 -3.305 .625 -9.46 18 88 915 0 93 84 0 91 17 93 94 22 86 88
 95 96 0 15 94 728 0 92 97 98 17 22 94 20 93 14 99 100 0 17 86 94 93 37 84 101 1
02 0 17 95 103 73 104 84 93 96 0 16 96 890 0 93 105 100 106 16 105 889 0 40 107
 96 108 16 100 891 0 22 96 0 109 30 106 997 0 96 0 109 0 +1e-8 -4.33 .625 -9.46
 1 0 0 30 109 996 0 100 106 110 0 +1e-8 -3.305 0 -9.46 0 -1 0 30 110 995 0 107 1
09 108 0 +1e-8 -4.33 -.625 -9.46 -1 0 0 16 107 888 0 90 111 105 110 30 108 994 0
 105 110 112 0 +1e-8 -5.355 0 -9.46 0 1 0 30 112 993 0 111 108 113 0 +1e-8 -3.30
5 .625 -9.46 0 0 -1 16 111 887 0 82 114 107 112 30 113 992 0 114 112 115 0 +1e-8
 -3.305 -.625 -9.46 0 0 -1 16 114 886 0 79 116 111 113 30 115 991 0 116 113 117
 0 +1e-8 -5.355 -.625 -9.46 0 0 -1 16 116 885 0 76 118 114 115 30 117 990 0 118
 115 119 0 +1e-8 -5.355 .625 -9.46 0 0 -1 16 118 884 0 73 120 116 117 30 119 989
 0 120 117 121 0 +1e-8 -3.305 0 -9.86 0 1 0 16 120 883 0 122 123 118 119 30 121
 988 0 123 119 124 0 +1e-8 -4.33 -.625 -9.86 1 0 0 16 123 882 0 125 126 120 121
 30 124 987 0 126 121 127 0 +1e-8 -5.355 0 -9.86 0 -1 0 16 126 881 0 128 129 123
 124 30 127 986 0 129 124 130 0 +1e-8 -4.33 .625 -9.86 -1 0 0 16 129 880 0 131 1
32 126 127 30 130 985 0 132 127 133 0 +1e-8 -3.305 0 -9.46 0 -1 0 16 132 879 0 5
2 134 129 130 30 133 983 0 134 130 135 0 +1e-8 -3.305 0 -9.86 0 1 0 16 134 877 0
 136 137 132 133 30 135 982 0 137 133 138 0 -1e-8 -3.305 .624903810567666 -9.46
 0 0 -1 16 137 876 0 139 140 134 135 30 138 981 0 140 135 141 0 +1e-8 -3.305 .36
50961894323345 -9.46 0 0 -1 16 140 875 0 67 142 137 138 31 141 977 0 142 138 143
 0 +1e-8 -3.3 .495 -9.86 0 0 1 1 0 0 .13 16 142 871 0 64 144 140 141 30 143 975
 0 144 141 145 0 +1e-8 -3.305 0 -9.46 0 -1 0 16 144 869 0 92 146 142 143 30 145
 972 0 146 143 147 0 +1e-8 -3.305 0 -9.86 0 1 0 16 146 866 0 148 149 144 145 30
 147 970 0 149 145 150 0 -1e-8 -3.305 -.3650961894323345 -9.46 0 0 -1 16 149 864
 0 151 152 146 147 30 150 969 0 152 147 153 0 +1e-8 -3.305 -.624903810567666 -9.
46 0 0 -1 16 152 863 0 58 154 149 150 31 153 968 0 154 150 155 0 +1e-8 -3.3 -.49
5 -9.46 0 0 -1 -1 0 0 .13 16 154 862 0 61 156 152 153 31 155 967 0 156 153 157 0
 +1e-8 -3.3 -.495 -9.86 0 0 1 1 0 0 .13 16 156 861 0 55 158 154 155 30 157 965 0
 158 155 159 0 +1e-8 -5.355 0 -9.46 0 1 0 16 158 859 0 28 160 156 157 30 159 962
 0 160 157 161 0 +1e-8 -5.355 0 -9.86 0 -1 0 16 160 856 0 162 163 158 159 30 161
 961 0 163 159 164 0 -1e-8 -5.355 -.624903810567666 -9.46 0 0 -1 16 163 855 0 16
5 166 160 161 30 164 960 0 166 161 167 0 +1e-8 -5.355 -.365096189432334 -9.46 0
 0 -1 16 166 854 0 46 168 163 164 31 167 958 0 168 164 169 0 +1e-8 -5.36 -.495 -
9.86 0 0 1 1 0 0 .13 16 168 852 0 43 170 166 167 31 169 957 0 170 167 171 0 +1e-
8 -5.36 -.495 -9.46 0 0 -1 -1 0 0 .13 16 170 851 0 49 102 168 169 30 171 955 0 1
02 169 172 0 +1e-8 -5.355 0 -9.46 0 1 0 16 102 849 0 86 173 170 171 30 172 952 0
 173 171 174 0 +1e-8 -5.355 0 -9.86 0 -1 0 16 173 846 0 175 176 102 172 30 174 9
50 0 176 172 177 0 -1e-8 -5.355 .365096189432334 -9.46 0 0 -1 16 176 844 0 178 1
79 173 174 30 177 949 0 179 174 180 0 +1e-8 -5.355 .624903810567666 -9.46 0 0 -1
 16 179 843 0 34 181 176 177 31 180 948 0 181 177 182 0 +1e-8 -5.36 .495 -9.86 0
 0 1 1 0 0 .13 16 181 842 0 31 183 179 180 31 182 947 0 183 180 184 0 +1e-8 -5.3
6 .495 -9.46 0 0 -1 -1 0 0 .13 16 183 841 0 37 185 181 182 31 184 68 0 185 182 1
86 0 -1e-8 0 0 -8.96 0 0 -1 -1 0 0 7.25 16 185 59 0 187 188 183 184 31 186 67 0
 188 184 189 0 +1e-8 0 0 -9.46 0 0 -1 -1 0 0 6.75 16 188 58 0 190 191 185 186 31
 189 7 0 191 186 192 0 +1e-8 0 0 -5.13 0 0 -1 -1 0 0 10.415 16 191 3 0 193 194 1
88 189 31 192 13 0 194 189 195 0 +1e-8 0 0 -10.26 0 0 1 1 0 0 8.63 16 194 9 0 19
6 197 191 192 31 195 19 0 197 192 198 0 +1e-8 0 0 -5.13 0 0 1 1 0 0 9.35 16 197
 16 0 199 200 194 195 31 198 35 0 200 195 201 0 +1e-8 0 0 -6.51 0 0 1 1 0 0 8.84
77 16 200 30 0 202 203 197 198 31 201 40 0 203 198 204 0 +1e-8 0 0 -6.51 0 0 -1
 -1 0 0 7.25 16 203 37 0 205 206 200 201 31 204 73 0 206 201 207 0 +1e-8 4.33 -4
.33 -9.46 0 0 -1 -1 0 0 .145 16 206 70 0 208 209 203 204 31 207 79 0 209 204 210
 0 +1e-8 4.33 -4.33 -10.26 0 0 -1 -1 0 0 .145 16 209 76 0 211 212 206 207 31 210
 101 0 212 207 213 0 +1e-8 4.33 4.33 -9.46 0 0 -1 -1 0 0 .145 16 212 98 0 214 21
5 209 210 31 213 107 0 215 210 216 0 +1e-8 4.33 4.33 -10.26 0 0 -1 -1 0 0 .145 1
6 215 104 0 217 218 212 213 38 216 129 0 218 213 219 0 +1e-8 220 221 222 223 223
 16 218 126 0 224 225 215 216 31 219 135 0 225 216 226 0 +1e-8 0 10 -5.13 0 0 1
 1 0 0 .14 52 220 15 0 227 228 229 10 +0 0 -10.26 0 0 1 8.63 .3286277329207225 .
944459534948632 1 0 0 51 221 0 0 7 230 231 1 +0 10 -5.51 0 0 -1 .2075 -1 0 0 40
 22 222 0 22 .0989914975494136 .3857943520512085 ??-.0791179753727954 9.80817561
163159 -6.87306562240408 -.1296580776079484 9.83799681203442 -6.78582266668115 -
.200997102300619 9.94845958026214 -6.4649788081433 -.1750694913025885 10.1113863
6907204 -5.99821487915235 -.1123919103151634 10.1744256532042 -5.8196145377407 -
.0690150111233342 10.19568642834812 -5.75962484991114 -.04391378540134675 10.202
7999739934 -5.73958057573825 -.0132306888169634 10.20707776045106 -5.72753338891
826 .01055424322257232 10.207231411591 -5.7271007655835 .0331812188311286 10.204
82982379742 -5.73386345560794 .0633034751477204 10.19760799587624 -5.75420897975
581 .1046202011158144 10.1791950432308 -5.80614646086558 .173321256830172 10.114
08765021162 -5.99053921798009 .194926732772258 9.92886759633801 -6.5216214391799
3 .1316858300803026 9.83964074034824 -6.78102112440567 .0837624220200502 9.81015
767948812 -6.86725863918781 .0597960748970616 9.80130254297826 -6.89321133710292
 .0295228226377549 9.79461097170613 -6.91283891482401 .00633775426717792 9.79259
681084697 -6.91874948979103 -.01768101051374685 9.79325466905583 -6.916818861872
 -.0433082037862717 9.79706984086931 -6.90562502083407 -.0791179753727939 9.8081
756116316 -6.87306562240408 41 1 223 H-.0791179753727954 9.80817561163159 -6.873
06562240408 51 230 120 0 232 233 221 0 +4.33 4.33 -9.46 0 0 -1 .145 -1 0 0 50 23
1 169 0 234 221 235 0 +0 10 -5.51 0 0 1 1 0 0 14 234 152 0 236 237 238 7 231 -51
 235 165 0 237 231 239 0 +0 10 -5.13 0 0 -1 .14 -1 0 0 14 237 144 0 234 240 241
 7 235 -51 239 170 0 236 235 242 0 +0 10 -5.51 0 0 -1 .2075 -1 0 0 14 236 155 0
 232 234 243 7 239 -51 242 0 0 7 239 244 1 +-5.44639035015027 8.38670567945424 -
5.51 0 0 -1 .2075 -.838670567945424 -.544639035015027 0 50 244 221 0 245 242 246
 0 +-5.44639035015027 8.38670567945424 -5.51 0 0 1 .838670567945424 .54463903501
5027 0 14 245 204 0 240 247 248 7 244 -51 246 217 0 247 244 249 0 +-5.4463903501
5027 8.38670567945424 -5.13 0 0 -1 .14 -.838670567945424 -.544639035015027 0 14
 247 196 0 245 250 251 7 246 -51 249 222 0 240 246 252 0 +-5.44639035015027 8.38
670567945424 -5.51 0 0 -1 .2075 -.838670567945424 -.544639035015027 0 14 240 207
 0 237 245 253 7 249 -51 252 0 0 7 249 254 1 +-8.66025403784439 5 -5.51 0 0 -1 .
2075 -.5 -.866025403784439 0 50 254 273 0 255 252 256 0 +-8.66025403784439 5 -5.
51 0 0 1 .5 .866025403784439 0 14 255 256 0 250 257 258 7 254 -51 256 269 0 257
 254 259 0 +-8.66025403784439 5 -5.13 0 0 -1 .14 -.5 -.866025403784439 0 14 257
 248 0 255 260 261 7 256 -51 259 274 0 250 256 262 0 +-8.66025403784439 5 -5.51
 0 0 -1 .2075 -.5 -.866025403784439 0 14 250 259 0 247 255 263 7 259 -51 262 0 0
 7 259 264 1 +-8.66025403784439 -5 -5.51 0 0 -1 .2075 .5 -.866025403784439 0 50
 264 325 0 265 262 266 0 +-8.66025403784439 -5 -5.51 0 0 1 -.5 .866025403784439
 0 14 265 308 0 260 267 268 7 264 -51 266 321 0 267 264 269 0 +-8.66025403784439
 -5 -5.13 0 0 -1 .14 .5 -.866025403784439 0 14 267 300 0 265 270 271 7 266 -51 2
69 326 0 260 266 272 0 +-8.66025403784439 -5 -5.51 0 0 -1 .2075 .5 -.86602540378
4439 0 14 260 311 0 257 265 273 7 269 -51 272 0 0 7 269 274 1 +-5 -8.66025403784
439 -5.51 0 0 -1 .2075 .866025403784439 -.5 0 50 274 377 0 275 272 276 0 +-5 -8.
66025403784439 -5.51 0 0 1 -.866025403784439 .5 0 14 275 360 0 270 277 278 7 274
 -51 276 373 0 277 274 279 0 +-5 -8.66025403784439 -5.13 0 0 -1 .14 .86602540378
4439 -.5 0 14 277 352 0 275 280 281 7 276 -51 279 378 0 270 276 282 0 +-5 -8.660
25403784439 -5.51 0 0 -1 .2075 .866025403784439 -.5 0 14 270 363 0 267 275 283 7
 279 -51 282 0 0 7 279 284 1 +-4440892098500625e-30 -10 -5.51 0 0 -1 .2075 1 -38
8578058618805e-30 0 50 284 429 0 285 282 286 0 +-4440892098500625e-30 -10 -5.51
 0 0 1 -1 388578058618805e-30 0 14 285 412 0 280 287 288 7 284 -51 286 425 0 287
 284 289 0 +-4440892098500625e-30 -10 -5.13 0 0 -1 .14 1 -388578058618805e-30 0
 14 287 404 0 285 290 291 7 286 -51 289 430 0 280 286 292 0 +-4440892098500625e-
30 -10 -5.51 0 0 -1 .2075 1 -388578058618805e-30 0 14 280 415 0 277 285 293 7 28
9 -51 292 0 0 7 289 294 1 +5 -8.66025403784439 -5.51 0 0 -1 .2075 .8660254037844
39 .5 0 50 294 481 0 295 292 296 0 +5 -8.66025403784439 -5.51 0 0 1 -.8660254037
84439 -.5 0 14 295 464 0 290 297 298 7 294 -51 296 477 0 297 294 299 0 +5 -8.660
25403784439 -5.13 0 0 -1 .14 .866025403784439 .5 0 14 297 456 0 295 300 301 7 29
6 -51 299 482 0 290 296 302 0 +5 -8.66025403784439 -5.51 0 0 -1 .2075 .866025403
784439 .5 0 14 290 467 0 287 295 303 7 299 -51 302 0 0 7 299 304 1 +8.6602540378
4439 -5 -5.51 0 0 -1 .2075 .5 .866025403784438 0 50 304 533 0 305 302 306 0 +8.6
6025403784439 -5 -5.51 0 0 1 -.5 -.866025403784438 0 14 305 516 0 300 307 308 7
 304 -51 306 529 0 307 304 309 0 +8.66025403784439 -5 -5.13 0 0 -1 .14 .5 .86602
5403784438 0 14 307 508 0 305 310 311 7 306 -51 309 534 0 300 306 312 0 +8.66025
403784439 -5 -5.51 0 0 -1 .2075 .5 .866025403784438 0 14 300 519 0 297 305 313 7
 309 -51 312 0 0 7 309 314 1 +8.66025403784439 5 -5.51 0 0 -1 .2075 -.5 .8660254
03784439 0 50 314 585 0 315 312 316 0 +8.66025403784439 5 -5.51 0 0 1 .5 -.86602
5403784439 0 14 315 568 0 310 317 318 7 314 -51 316 581 0 317 314 228 0 +8.66025
403784439 5 -5.13 0 0 -1 .14 -.5 .866025403784439 0 14 317 560 0 315 319 320 7 3
16 -51 228 586 0 310 316 220 0 +8.66025403784439 5 -5.51 0 0 -1 .2075 -.5 .86602
5403784439 0 14 310 571 0 307 315 321 7 228 -15 321 572 0 322 310 323 17 322 321
 322 322 0 324 325 0 15 323 573 0 326 310 0 17 326 323 326 326 0 327 328 0 17 32
7 318 327 327 0 326 328 0 16 328 579 0 327 329 330 331 16 329 577 0 332 333 328
 334 16 330 548 0 335 328 325 336 31 331 592 0 328 336 334 0 +1e-8 8.66025403784
439 5 -5.51 0 0 -1 -.5 .866025403784439 0 .2075 31 336 551 0 330 337 331 0 +1e-8
 8.66025403784439 5 -5.13 0 0 1 1 0 0 .14 31 334 590 0 329 331 338 0 -1e-8 8.660
25403784439 5 -5.51 0 0 1 .5 -.866025403784439 0 .14 38 338 597 0 333 334 339 0
 +1e-8 220 229 340 341 341 16 333 594 0 342 343 329 338 31 339 603 0 343 338 344
 0 +1e-8 5 8.66025403784439 -5.13 0 0 1 1 0 0 .14 51 229 0 0 7 220 345 1 +5 8.66
025403784439 -5.51 0 0 -1 .2075 -.866025403784438 .5 0 40 23 340 0 23 .092285423
8563714 .3847258008638355 ??4.90498553282912 8.47578588062414 -6.91833320294294
 4.88455731728195 8.48783235415334 -6.91769212537041 4.86672038850315 8.50121695
047403 -6.90984893201828 4.84423368563443 8.5231660904932 -6.88707601193397 4.81
71569800141 8.56214858416094 -6.82785860201102 4.79251380474212 8.66264752429791
 -6.61013473435762 4.8698376159681 8.82185231686718 -6.1021838708096 4.979862912
78052 8.86677461240856 -5.83555512950027 5.01648810837698 8.86709792168471 -5.78
305871699439 5.06342593511808 8.85782276197449 -5.73954528788054 5.0860983315205
6 8.84904844271216 -5.72901964598893 5.10953404296443 8.83648838021802 -5.726653
01144133 5.12855602597981 8.82313312853525 -5.73243953972665 5.15061511158911 8.
80298223464166 -5.75052918788849 5.17665453922699 8.76910909638785 -5.7965393300
3104 5.20583574318545 8.68648182515668 -5.95775944708002 5.15166033615277 8.5186
3697517879 -6.45133042543911 5.10488283981516 8.48121259037395 -6.61287163834759
 5.06102960495065 8.46193198329783 -6.72522950151775 5.00141069946801 8.45275883
32564 -6.83548737054178 4.97006570406858 8.45492457593721 -6.87588826224714 4.93
121954080045 8.46448504532438 -6.90856153183598 4.90498553282912 8.4757858806241
4 -6.91833320294294 41 1 341 H4.90498553282912 8.47578588062414 -6.9183332029429
4 50 345 637 0 346 229 347 0 +5 8.66025403784439 -5.51 0 0 1 .866025403784438 -.
5 0 14 346 620 0 319 348 349 7 345 -51 347 633 0 348 345 350 0 +5 8.660254037844
39 -5.13 0 0 -1 .14 -.866025403784438 .5 0 14 348 612 0 346 351 352 7 347 -51 35
0 638 0 319 347 353 0 +5 8.66025403784439 -5.51 0 0 -1 .2075 -.866025403784438 .
5 0 14 319 623 0 317 346 354 7 350 -51 353 677 0 351 350 24 0 +0 0 -12 0 0 1 .5
 1 0 0 14 351 662 0 348 18 355 7 353 -51 24 718 0 18 353 15 0 +0 0 -9.46 0 0 -1
 .85 -1 0 0 14 18 709 0 351 12 356 7 24 -15 356 710 0 357 18 358 17 357 356 357
 357 0 359 21 0 15 358 711 0 360 18 0 17 360 358 360 360 0 361 362 0 17 361 98 3
61 361 0 360 362 0 16 362 686 0 361 363 364 365 16 363 692 0 366 21 362 367 16 3
64 652 0 368 362 369 370 31 365 689 0 362 370 367 0 +1e-8 0 0 -9.46 0 0 -1 -1 0
 0 .85 31 370 655 0 364 371 365 0 +1e-8 0 0 -10.26 0 0 -1 -1 0 0 .5 31 367 695 0
 363 365 25 0 -1e-8 0 0 -9.78 0 0 -1 -1 0 0 .5 31 25 723 0 21 367 16 0 +1e-8 0 0
 -9.78 0 0 1 1 0 0 .85 16 21 714 0 359 13 363 25 17 359 19 359 359 0 357 21 0 15
 19 700 0 359 12 372 15 372 701 0 373 12 0 17 373 372 373 373 0 366 363 0 17 366
 355 366 366 0 373 363 0 15 355 693 0 366 351 374 15 374 663 0 368 351 0 17 368
 374 368 368 0 375 364 0 17 375 376 375 375 0 368 364 0 15 376 654 0 375 377 378
 14 377 12 0 379 380 376 7 381 +15 378 106 0 382 377 383 17 382 378 382 382 0 21
7 215 0 15 383 78 0 384 377 385 17 384 383 384 384 0 211 209 0 15 385 11 0 386 3
77 0 17 386 385 386 386 0 196 194 0 17 196 387 196 196 0 386 194 0 15 387 10 0 1
96 227 388 14 227 1 0 389 379 390 7 220 +15 388 4 0 193 227 0 17 193 388 193 193
 0 391 191 0 17 391 392 391 391 0 193 191 0 15 392 5 0 391 379 0 14 379 6 0 227
 377 393 7 394 +15 393 602 0 395 379 396 50 394 8 0 379 397 381 0 +0 0 -5.13 0 0
 1 1 0 0 51 397 61 0 389 398 394 0 +0 0 -9.46 0 0 1 7.25 1 0 0 50 381 14 0 377 3
94 399 0 +0 0 -10.26 0 0 -1 -1 0 0 50 399 33 0 400 381 401 0 +0 0 -6.51 0 0 -1 -
1 0 0 14 400 23 0 380 402 403 7 399 -52 401 32 0 380 399 233 0 +0 0 -6.51 0 0 1
 8.8477 .3420328162849545 .939688008109172 1 0 0 14 380 27 0 377 400 404 7 401 -
51 233 92 0 402 401 230 0 +4.33 -4.33 -9.46 0 0 -1 .145 -1 0 0 14 402 87 0 400 2
32 405 7 233 -14 232 115 0 402 236 406 7 230 -15 405 88 0 211 402 407 17 211 405
 211 211 0 384 209 0 15 407 89 0 408 402 0 17 408 407 408 408 0 208 206 0 17 208
 409 208 208 0 408 206 0 15 409 71 0 208 97 410 14 97 50 0 411 412 94 7 413 -15
 410 51 0 414 97 0 17 414 410 414 414 0 190 188 0 17 190 415 190 190 0 414 188 0
 15 415 48 0 190 412 416 14 412 47 0 97 389 415 7 398 -15 416 49 0 187 412 0 17
 187 416 187 187 0 417 185 0 17 417 418 417 417 0 187 185 0 15 418 45 0 417 389
 419 14 389 44 0 412 227 418 7 397 -15 419 46 0 420 389 0 17 420 419 420 420 0 2
05 203 0 17 205 403 205 205 0 420 203 0 15 403 38 0 205 400 421 15 421 24 0 202
 400 0 17 202 421 202 202 0 422 200 0 17 422 404 422 422 0 202 200 0 15 404 28 0
 422 380 423 15 423 29 0 199 380 0 17 199 423 199 199 0 424 197 0 17 424 425 424
 424 0 199 197 0 15 425 18 0 424 379 392 54 398 62 0 412 413 397 0 +0 0 -8.96 0
 0 -1 6.75 .5 -1 0 0 50 413 63 0 97 426 398 0 +0 0 -9.46 0 0 -1 -1 0 0 51 426 91
8 0 411 427 413 0 +-5.36 .495 -9.46 0 0 -1 .13 -1 0 0 14 411 784 0 428 97 429 7
 426 -50 427 919 0 428 430 426 0 +-5.355 0 -9.46 -1 0 0 0 0 1 14 428 786 0 431 4
11 432 7 427 -51 430 924 0 431 433 427 0 +-5.36 -.495 -9.46 0 0 -1 .13 -1 0 0 14
 431 796 0 434 428 435 7 430 -50 433 926 0 434 436 430 0 +-5.355 0 -9.46 -1 0 0
 0 0 1 14 434 800 0 437 431 438 7 433 -51 436 930 0 437 439 433 0 +-3.3 -.495 -9
.46 0 0 -1 .13 -1 0 0 14 437 808 0 440 434 441 7 436 -50 439 931 0 440 442 436 0
 +-3.305 0 -9.46 1 0 0 0 0 -1 14 440 810 0 443 437 444 7 439 -51 442 936 0 443 4
45 439 0 +-3.3 .495 -9.46 0 0 -1 .13 -1 0 0 14 443 820 0 446 440 447 7 442 -50 4
45 939 0 446 448 442 0 +-3.305 0 -9.46 1 0 0 0 0 -1 14 446 826 0 449 443 450 7 4
45 -50 448 940 0 449 451 445 0 +-4.33 0 -9.86 0 0 -1 -1 0 0 14 449 828 0 452 446
 453 7 448 -50 451 941 0 452 454 448 0 +-4.33 .625 -9.46 0 1 0 0 0 1 14 452 830
 0 455 449 103 7 451 -50 454 942 0 455 456 451 0 +-5.355 0 -9.46 -1 0 0 0 0 1 14
 455 832 0 457 452 458 7 454 -50 456 943 0 457 459 454 0 +-4.33 -.625 -9.46 0 -1
 0 0 0 -1 14 457 834 0 460 455 461 7 456 -50 459 944 0 460 0 456 0 +-3.305 0 -9.
46 1 0 0 0 0 -1 14 460 838 0 0 457 462 7 459 -15 462 839 0 139 460 0 17 139 462
 99 463 14 464 137 0 17 99 462 82 139 88 22 100 0 17 463 462 139 82 62 136 134 0
 17 464 447 465 466 62 139 137 0 15 447 821 0 466 443 0 17 465 447 467 464 65 64
 142 0 17 466 447 464 467 14 20 13 0 17 467 447 466 465 68 67 140 0 17 20 94 52
 22 68 466 13 0 17 52 94 61 20 50 70 132 0 17 61 94 92 52 59 468 154 0 17 70 450
 67 151 68 52 132 0 15 450 827 0 151 446 0 17 67 450 469 70 65 467 140 0 17 151
 450 70 469 50 470 149 0 17 469 450 151 67 53 148 146 0 17 470 441 471 468 53 15
1 149 0 15 441 809 0 468 437 0 17 471 441 472 470 56 55 156 0 17 468 441 470 472
 50 61 154 0 17 472 441 468 471 59 58 152 0 17 58 444 473 474 56 472 152 0 15 44
4 811 0 58 440 0 17 473 444 475 58 77 122 120 0 17 474 444 58 475 59 92 144 0 17
 475 444 474 473 83 79 114 0 17 92 94 90 61 83 474 144 0 17 90 94 40 92 87 476 1
07 0 17 40 94 49 90 38 477 105 0 17 476 461 79 478 83 90 107 0 15 461 835 0 478
 457 0 17 79 461 479 476 77 475 114 0 17 478 461 476 479 87 76 116 0 17 479 461
 478 79 74 125 123 0 17 76 458 480 477 74 478 116 0 15 458 833 0 165 455 0 17 48
0 458 165 76 41 162 160 0 17 477 458 76 165 87 40 105 0 17 165 458 477 480 38 48
1 163 0 17 481 435 482 483 41 165 163 0 15 435 797 0 483 431 0 17 482 435 484 48
1 44 43 168 0 17 483 435 481 484 38 49 170 0 17 484 435 483 482 47 46 166 0 17 4
9 94 28 40 47 483 170 0 17 28 94 37 49 23 485 158 0 17 37 94 86 28 35 486 183 0
 17 485 438 46 178 47 28 158 0 15 438 801 0 178 434 0 17 46 438 487 485 44 484 1
66 0 17 178 438 485 487 23 488 176 0 17 487 438 178 46 29 175 173 0 17 488 429 4
89 486 29 178 176 0 15 429 785 0 486 411 0 17 489 429 490 488 32 31 181 0 17 486
 429 488 490 23 37 183 0 17 490 429 486 489 35 34 179 0 17 34 432 491 101 32 490
 179 0 15 432 787 0 34 428 0 17 491 432 492 34 71 128 126 0 17 101 432 34 492 35
 86 102 0 17 492 432 101 491 84 73 118 0 17 73 103 493 95 71 492 118 0 15 103 83
1 0 104 452 0 17 493 103 104 73 80 131 129 0 17 104 103 95 493 88 82 111 0 17 13
1 453 128 136 71 493 129 0 15 453 829 0 128 449 0 17 128 453 31 131 32 491 126 0
 17 136 453 131 64 80 463 134 0 17 64 453 136 148 62 465 142 0 17 148 453 64 55
 65 469 146 0 17 55 453 148 122 53 471 156 0 17 122 453 55 125 56 473 120 0 17 1
25 453 122 162 77 479 123 0 17 162 453 125 43 74 480 160 0 17 43 453 162 175 41
 482 168 0 17 175 453 43 31 44 487 173 0 17 31 453 175 128 29 489 181 0 17 82 46
2 463 99 80 104 111 0 15 406 116 0 217 232 494 17 217 406 217 217 0 382 215 0 15
 494 117 0 495 232 0 17 495 494 495 495 0 214 212 0 17 214 496 214 214 0 495 212
 0 15 496 99 0 214 97 409 17 395 393 395 395 0 497 343 0 15 396 550 0 498 379 49
9 17 498 396 498 498 0 335 330 0 15 499 498 0 500 379 501 17 500 499 500 500 0 5
02 503 0 15 501 446 0 504 379 505 17 504 501 504 504 0 506 507 0 15 505 394 0 50
8 379 509 17 508 505 508 508 0 510 511 0 15 509 342 0 512 379 513 17 512 509 512
 512 0 514 515 0 15 513 290 0 516 379 517 17 516 513 516 516 0 518 519 0 15 517
 238 0 520 379 521 17 520 517 520 520 0 522 523 0 15 521 186 0 524 379 525 17 52
4 521 524 524 0 526 527 0 15 525 134 0 528 379 425 17 528 525 528 528 0 529 225
 0 17 529 530 529 529 0 528 225 0 16 225 132 0 529 531 218 219 16 531 163 0 532
 533 225 226 17 532 238 532 532 0 534 531 0 16 533 161 0 535 536 531 537 31 226
 176 0 531 219 537 0 +1e-8 0 10 -5.51 0 0 -1 -1 0 0 .2075 31 537 174 0 533 226 5
38 0 -1e-8 0 10 -5.51 0 0 1 1 0 0 .14 38 538 181 0 536 537 539 0 +1e-8 220 242 5
40 541 541 16 536 178 0 542 527 533 538 31 539 187 0 527 538 543 0 +1e-8 -5.4463
9035015027 8.38670567945424 -5.13 0 0 1 1 0 0 .14 40 24 540 0 24 .07255314414228
48 .3965116278422095 ??-5.34765467497305 8.2042022097686 -6.91708374303037 -5.37
53481882302 8.19174603945221 -6.90348100683119 -5.41064700138017 8.1823073844058
3 -6.87032810718449 -5.48094380704975 8.1821028724933 -6.75888032448976 -5.60684
384186978 8.25513468342922 -6.3825372284259 -5.65351180383943 8.39923378472562 -
5.96433966755395 -5.64382942275636 8.45053406348869 -5.85737897660001 -5.6111595
7189807 8.51283003699324 -5.76010373223809 -5.59035948118702 8.5361350584549 -5.
73695189750985 -5.57128211178374 8.55241113463327 -5.72777143465353 -5.548803914
13391 8.56717094456687 -5.72738818496817 -5.52864144390515 8.57720766783265 -5.7
3460767770913 -5.49881252665642 8.58747461482612 -5.75611932003853 -5.4527618685
4357 8.594107834104 -5.81118005925496 -5.3566307168093 8.57378710082604 -6.00780
288561779 -5.2497942252502 8.45308499606925 -6.46458348131278 -5.23909439386247
 8.39590548960052 -6.62034224571971 -5.24200195853869 8.35090574405724 -6.725535
88581606 -5.25920924025542 8.29715411833701 -6.82981010375243 -5.27752282323675
 8.26612372245357 -6.87680462015559 -5.29907814108436 8.24057093663063 -6.905216
47640539 -5.31734373276775 8.22421500113044 -6.91627491741418 -5.33956488858331
 8.20881647022275 -6.91865725238938 -5.34765467497305 8.2042022097686 -6.9170837
4303037 41 1 541 H-5.34765467497305 8.2042022097686 -6.91708374303037 16 527 184
 0 526 544 536 539 31 543 228 0 544 539 545 0 +1e-8 -5.44639035015027 8.38670567
945424 -5.51 0 0 -1 -.838670567945424 -.544639035015027 0 .2075 16 544 215 0 546
 547 527 543 31 545 226 0 547 543 548 0 -1e-8 -5.44639035015027 8.38670567945424
 -5.51 0 0 1 .838670567945424 .544639035015027 0 .14 16 547 213 0 549 550 544 54
5 38 548 233 0 550 545 551 0 +1e-8 220 252 552 553 553 16 550 230 0 554 523 547
 548 31 551 239 0 523 548 555 0 +1e-8 -8.66025403784439 5 -5.13 0 0 1 1 0 0 .14
 40 23 552 0 23 .0922854238563662 .384725800863713 ??-8.47578588062414 4.9049855
3282911 -6.91833320294295 -8.48783235415334 4.88455731728194 -6.91769212537041 -
8.50121695047403 4.86672038850315 -6.90984893201829 -8.5231660904932 4.844233685
63442 -6.88707601193398 -8.56214858416094 4.8171569800141 -6.82785860201103 -8.6
6264752429791 4.79251380474211 -6.61013473435762 -8.82185231686719 4.86983761596
81 -6.1021838708096 -8.86677461240856 4.97986291278052 -5.83555512950027 -8.8670
9792168471 5.01648810837698 -5.7830587169944 -8.8578227619745 5.06342593511806 -
5.73954528788056 -8.84904844271217 5.08609833152054 -5.72901964598894 -8.8364883
8021803 5.10953404296442 -5.72665301144134 -8.82313312853525 5.1285560259798 -5.
73243953972666 -8.80298223464166 5.15061511158911 -5.75052918788849 -8.769109096
38786 5.17665453922698 -5.79653933003104 -8.68648182515669 5.20583574318544 -5.9
5775944708001 -8.5186369751788 5.15166033615278 -6.45133042543908 -8.48121259037
396 5.10488283981516 -6.61287163834756 -8.46193198329783 5.06102960495065 -6.725
22950151773 -8.4527588332564 5.00141069946801 -6.83548737054177 -8.4549245759372
1 4.97006570406859 -6.87588826224713 -8.46448504532438 4.93121954080046 -6.90856
153183598 -8.47578588062414 4.90498553282911 -6.91833320294295 41 1 553 H-8.4757
8588062414 4.90498553282911 -6.91833320294295 16 523 236 0 522 556 550 551 31 55
5 280 0 556 551 557 0 +1e-8 -8.66025403784439 5 -5.51 0 0 -1 -.5 -.8660254037844
39 0 .2075 16 556 267 0 558 559 523 555 31 557 278 0 559 555 560 0 -1e-8 -8.6602
5403784439 5 -5.51 0 0 1 .5 .866025403784439 0 .14 16 559 265 0 561 562 556 557
 38 560 285 0 562 557 563 0 +1e-8 220 262 564 565 565 16 562 282 0 566 519 559 5
60 31 563 291 0 519 560 567 0 +1e-8 -8.66025403784439 -5 -5.13 0 0 1 1 0 0 .14 4
0 23 564 0 23 .1019364960362078 .3929842864870755 ??-8.47578588062415 -4.9049855
3282911 -6.91833320294295 -8.46465138409653 -4.93074791088497 -6.90883073855164
 -8.45622028985754 -4.96223123403605 -6.88408012915343 -8.45307902663311 -5.0116
0882119788 -6.81975966752398 -8.48769041415239 -5.1152304030119 -6.5815807997241
4 -8.65717078852317 -5.20747709168393 -6.02755202968214 -8.74084378039459 -5.191
21073033617 -5.84512397340011 -8.79201029337007 -5.16030140089797 -5.76366002988
494 -8.82107555363866 -5.13112089863036 -5.73384615350526 -8.83519541031756 -5.1
1158748226035 -5.72691493017198 -8.84741913246704 -5.08958502863143 -5.728083906
8737 -8.85591688056121 -5.06908184985922 -5.73622893701028 -8.86435430544857 -5.
03740762975523 -5.7602635709807 -8.86741806499019 -4.98819678616931 -5.822207409
0425 -8.83457286312068 -4.88744247180089 -6.04571454060445 -8.68069064190581 -4.
79350884954934 -6.5633674200467 -8.63116856150408 -4.79454858222427 -6.686423497
1771 -8.57614838381312 -4.81030949164501 -6.80241806007424 -8.53511830827733 -4.
83447870473646 -6.87103510406662 -8.51360943714045 -4.85319533016834 -6.89820473
759621 -8.49509953521852 -4.87438057370613 -6.91415546233046 -8.48213990900303 -
4.89354997836034 -6.91896426651235 -8.47578588062415 -4.90498553282911 -6.918333
20294295 41 1 565 H-8.47578588062415 -4.90498553282911 -6.91833320294295 16 519
 288 0 518 568 562 563 31 567 332 0 568 563 569 0 +1e-8 -8.66025403784439 -5 -5.
51 0 0 -1 .5 -.866025403784439 0 .2075 16 568 319 0 570 571 519 567 31 569 330 0
 571 567 572 0 -1e-8 -8.66025403784439 -5 -5.51 0 0 1 -.5 .866025403784439 0 .14
 16 571 317 0 573 574 568 569 38 572 337 0 574 569 575 0 +1e-8 220 272 576 577 5
77 16 574 334 0 578 515 571 572 31 575 343 0 515 572 579 0 +1e-8 -5 -8.660254037
84439 -5.13 0 0 1 1 0 0 .14 40 23 576 0 23 .0922854238563442 .3847258008636085 ?
?-4.90498553282912 -8.47578588062414 -6.91833320294295 -4.88455731728194 -8.4878
3235415334 -6.91769212537041 -4.86672038850315 -8.50121695047403 -6.909848932018
29 -4.84423368563442 -8.5231660904932 -6.88707601193398 -4.8171569800141 -8.5621
4858416095 -6.82785860201102 -4.79251380474211 -8.66264752429791 -6.610134734357
62 -4.86983761596811 -8.82185231686719 -6.10218387080958 -4.97986291278053 -8.86
677461240856 -5.83555512950025 -5.01648810837698 -8.86709792168471 -5.7830587169
9439 -5.06342593511806 -8.8578227619745 -5.73954528788056 -5.08609833152054 -8.8
4904844271217 -5.72901964598894 -5.10953404296442 -8.83648838021803 -5.726653011
44134 -5.12855602597979 -8.82313312853525 -5.73243953972666 -5.1506151115891 -8.
80298223464167 -5.75052918788848 -5.17665453922698 -8.76910909638787 -5.79653933
003101 -5.20583574318544 -8.68648182515672 -5.95775944707992 -5.15166033615282 -
8.51863697517885 -6.45133042543887 -5.10488283981522 -8.48121259037398 -6.612871
63834741 -5.0610296049507 -8.46193198329784 -6.72522950151762 -5.00141069946807
 -8.4527588332564 -6.83548737054169 -4.97006570406864 -8.4549245759372 -6.875888
26224708 -4.9312195408005 -8.46448504532436 -6.90856153183595 -4.90498553282911
 -8.47578588062414 -6.91833320294295 41 1 577 H-4.90498553282912 -8.475785880624
14 -6.91833320294295 16 515 340 0 514 580 574 575 31 579 384 0 580 575 581 0 +1e
-8 -5 -8.66025403784439 -5.51 0 0 -1 .866025403784439 -.5 0 .2075 16 580 371 0 5
82 583 515 579 31 581 382 0 583 579 584 0 -1e-8 -5 -8.66025403784439 -5.51 0 0 1
 -.866025403784439 .5 0 .14 16 583 369 0 585 586 580 581 38 584 389 0 586 581 58
7 0 +1e-8 220 282 588 589 589 16 586 386 0 590 511 583 584 31 587 395 0 511 584
 591 0 +1e-8 -4440892098500625e-30 -10 -5.13 0 0 1 1 0 0 .14 40 21 588 0 21 .103
8546537148934 .3929608249094095 ??-.0791179753727977 -9.80817561163159 -6.873065
62240408 -.04089168985580105 -9.79656912795562 -6.90709387546831 -.0176760411614
4445 -9.79325424413338 -6.91682010885655 .00783175457336718 -9.79264785117993 -6
.91859969609973 .02993078301181885 -9.79467002598671 -6.91266563818034 .05851939
14128325 -9.8009228018364 -6.89432481987795 .097813188555446 -9.81700046408634 -
6.8472201075942 .1655709639435965 -9.87492999600709 -6.67814506280575 .200526224
2964925 -10.0533430723655 -6.163636820051 .1497750265960814 -10.14360951015912 -
5.90678489248417 .0924742480294461 -10.18575457854758 -5.78763339021521 .0533415
825009616 -10.20052662061754 -5.74598485302881 .02863768148800185 -10.2055143138
5426 -5.73193582437727 .000112241000090172 -10.20749996964326 -5.72634462328532
 -.02462953732557785 -10.20603309416482 -5.73047494214228 -.0524631903227303 -10
.20075822190176 -5.74533234367275 -.0892233156332275 -10.1873377963664 -5.783166
80546968 -.151402684639295 -10.14189248424076 -5.91164955111099 -.20745465019569
85 -9.99566201519342 -6.32896983696489 -.1322534608687482 -9.84010856155429 -6.7
796548736128 -.0791179753727944 -9.8081756116316 -6.87306562240408 41 1 589 H-.0
791179753727977 -9.80817561163159 -6.87306562240408 16 511 392 0 510 592 586 587
 31 591 436 0 592 587 593 0 +1e-8 -4440892098500625e-30 -10 -5.51 0 0 -1 1 -3885
78058618805e-30 0 .2075 16 592 423 0 594 595 511 591 31 593 434 0 595 591 596 0
 -1e-8 -4440892098500625e-30 -10 -5.51 0 0 1 -1 388578058618805e-30 0 .14 16 595
 421 0 597 598 592 593 38 596 441 0 598 593 599 0 +1e-8 220 292 600 601 601 16 5
98 438 0 602 507 595 596 31 599 447 0 507 596 603 0 +1e-8 5 -8.66025403784439 -5
.13 0 0 1 1 0 0 .14 40 23 600 0 23 .101936496036207 .3929842864871375 ??4.904985
53282911 -8.47578588062415 -6.91833320294295 4.93074791088497 -8.46465138409653
 -6.90883073855164 4.96223123403605 -8.45622028985754 -6.88408012915342 5.011608
82119787 -8.45307902663311 -6.81975966752398 5.1152304030119 -8.48769041415239 -
6.58158079972414 5.20747709168393 -8.65717078852318 -6.02755202968214 5.19121073
033617 -8.7408437803946 -5.84512397340011 5.16030140089796 -8.79201029337007 -5.
76366002988494 5.13112089863036 -8.82107555363866 -5.73384615350525 5.1115874822
6035 -8.83519541031756 -5.72691493017197 5.08958502863143 -8.84741913246704 -5.7
280839068737 5.06908184985921 -8.85591688056122 -5.73622893701027 5.037407629755
22 -8.86435430544857 -5.7602635709807 4.9881967861693 -8.86741806499019 -5.82220
740904251 4.88744247180087 -8.83457286312068 -6.04571454060448 4.79350884954933
 -8.68069064190578 -6.56336742004678 4.79454858222427 -8.63116856150406 -6.68642
349717715 4.81030949164502 -8.57614838381312 -6.80241806007425 4.83447870473647
 -8.53511830827731 -6.87103510406664 4.85319533016834 -8.51360943714045 -6.89820
473759621 4.87438057370613 -8.49509953521852 -6.91415546233046 4.89354997836035
 -8.48213990900303 -6.91896426651235 4.90498553282911 -8.47578588062415 -6.91833
320294294 41 1 601 H4.90498553282911 -8.47578588062415 -6.91833320294295 16 507
 444 0 506 604 598 599 31 603 488 0 604 599 605 0 +1e-8 5 -8.66025403784439 -5.5
1 0 0 -1 .866025403784439 .5 0 .2075 16 604 475 0 606 607 507 603 31 605 486 0 6
07 603 608 0 -1e-8 5 -8.66025403784439 -5.51 0 0 1 -.866025403784439 -.5 0 .14 1
6 607 473 0 609 610 604 605 38 608 493 0 610 605 611 0 +1e-8 220 302 612 613 613
 16 610 490 0 614 503 607 608 31 611 499 0 503 608 615 0 +1e-8 8.66025403784439
 -5 -5.13 0 0 1 1 0 0 .14 40 23 612 0 23 .0922854238562785 .3847258008631135 ??8
.47578588062414 -4.90498553282912 -6.91833320294295 8.48783235415334 -4.88455731
728194 -6.91769212537041 8.50121695047403 -4.86672038850315 -6.90984893201827 8.
5231660904932 -4.84423368563442 -6.88707601193397 8.56214858416095 -4.8171569800
141 -6.82785860201101 8.66264752429792 -4.79251380474211 -6.61013473435759 8.821
85231686721 -4.86983761596813 -6.10218387080951 8.86677461240856 -4.979862912780
56 -5.83555512950019 8.86709792168471 -5.01648810837699 -5.78305871699438 8.8578
2276197451 -5.06342593511802 -5.73954528788059 8.84904844271219 -5.0860983315205
 -5.72901964598894 8.83648838021805 -5.10953404296439 -5.72665301144133 8.823133
12853527 -5.12855602597977 -5.73243953972664 8.8029822346417 -5.15061511158908 -
5.75052918788845 8.76910909638792 -5.17665453922695 -5.79653933003093 8.68648182
515684 -5.20583574318542 -5.95775944707965 8.51863697517902 -5.15166033615298 -6
.45133042543823 8.48121259037408 -5.10488283981538 -6.61287163834695 8.461931983
29789 -5.06102960495085 -6.72522950151731 8.4527588332564 -5.0014106994682 -6.83
548737054149 8.45492457593719 -4.97006570406875 -6.87588826224695 8.464485045324
33 -4.93121954080059 -6.9085615318359 8.47578588062414 -4.90498553282912 -6.9183
3320294295 41 1 613 H8.47578588062414 -4.90498553282912 -6.91833320294295 16 503
 496 0 502 616 610 611 31 615 540 0 616 611 617 0 +1e-8 8.66025403784439 -5 -5.5
1 0 0 -1 .5 .866025403784438 0 .2075 16 616 527 0 618 619 503 615 31 617 538 0 6
19 615 337 0 -1e-8 8.66025403784439 -5 -5.51 0 0 1 -.5 -.866025403784438 0 .14 1
6 619 525 0 620 325 616 617 38 337 545 0 325 617 336 0 +1e-8 220 312 621 622 622
 16 325 542 0 322 330 619 337 40 23 621 0 23 .1019364960362136 .3929842864868745
 ??8.47578588062415 4.90498553282911 -6.91833320294295 8.46465138409654 4.930747
91088497 -6.90883073855164 8.45622028985754 4.96223123403605 -6.88408012915342 8
.45307902663311 5.01160882119787 -6.81975966752397 8.48769041415239 5.1152304030
119 -6.58158079972412 8.65717078852319 5.20747709168393 -6.02755202968211 8.7408
4378039459 5.19121073033617 -5.84512397340012 8.79201029337006 5.16030140089798
 -5.76366002988495 8.82107555363864 5.13112089863038 -5.73384615350527 8.8351954
1031754 5.11158748226038 -5.72691493017198 8.84741913246703 5.08958502863145 -5.
72808390687369 8.85591688056121 5.06908184985924 -5.73622893701026 8.86435430544
856 5.03740762975526 -5.76026357098066 8.8674180649902 4.98819678616936 -5.82220
740904241 8.83457286312075 4.88744247180099 -6.04571454060414 8.68069064190611 4
.79350884954937 -6.56336742004589 8.63116856150432 4.79454858222423 -6.686423497
17655 8.57614838381333 4.81030949164492 -6.80241806007384 8.53511830827736 4.834
47870473643 -6.87103510406657 8.51360943714055 4.85319533016824 -6.8982047375961
 8.49509953521856 4.87438057370608 -6.91415546233044 8.48213990900306 4.89354997
836029 -6.91896426651234 8.47578588062415 4.90498553282911 -6.91833320294294 41
 1 622 H8.47578588062415 4.90498553282911 -6.91833320294295 17 620 311 620 620 0
 623 619 0 15 311 509 0 620 307 624 17 623 625 623 623 0 620 619 0 15 625 518 0
 623 305 0 15 624 510 0 502 307 0 17 502 624 502 502 0 500 503 0 17 618 308 618
 618 0 626 616 0 15 308 517 0 618 305 625 17 626 627 626 626 0 618 616 0 15 627
 521 0 626 300 0 17 614 313 614 614 0 628 610 0 15 313 520 0 614 300 627 17 628
 629 628 628 0 614 610 0 15 629 492 0 628 227 630 15 630 440 0 631 227 632 17 63
1 630 631 631 0 602 598 0 15 632 388 0 633 227 634 17 633 632 633 633 0 590 586
 0 15 634 336 0 635 227 636 17 635 634 635 635 0 578 574 0 15 636 284 0 637 227
 638 17 637 636 637 637 0 566 562 0 15 638 232 0 639 227 640 17 639 638 639 639
 0 554 550 0 15 640 180 0 641 227 642 17 641 640 641 641 0 542 536 0 15 642 128
 0 643 227 387 17 643 642 643 643 0 224 218 0 17 224 243 224 224 0 643 218 0 15
 243 156 0 224 236 644 15 644 157 0 534 236 0 17 534 644 534 534 0 532 531 0 17
 542 253 542 542 0 641 536 0 15 253 208 0 542 240 645 15 645 209 0 646 240 0 17
 646 645 646 646 0 546 544 0 17 546 248 546 546 0 646 544 0 15 248 205 0 546 245
 647 15 647 206 0 648 245 0 17 648 647 648 648 0 549 547 0 17 549 251 549 549 0
 648 547 0 15 251 197 0 549 247 649 15 649 198 0 526 247 0 17 526 649 526 526 0
 524 527 0 17 554 263 554 554 0 639 550 0 15 263 260 0 554 250 650 15 650 261 0
 651 250 0 17 651 650 651 651 0 558 556 0 17 558 258 558 558 0 651 556 0 15 258
 257 0 558 255 652 15 652 258 0 653 255 0 17 653 652 653 653 0 561 559 0 17 561
 261 561 561 0 653 559 0 15 261 249 0 561 257 654 15 654 250 0 522 257 0 17 522
 654 522 522 0 520 523 0 17 566 273 566 566 0 637 562 0 15 273 312 0 566 260 655
 15 655 313 0 656 260 0 17 656 655 656 656 0 570 568 0 17 570 268 570 570 0 656
 568 0 15 268 309 0 570 265 657 15 657 310 0 658 265 0 17 658 657 658 658 0 573
 571 0 17 573 271 573 573 0 658 571 0 15 271 301 0 573 267 659 15 659 302 0 518
 267 0 17 518 659 518 518 0 516 519 0 17 578 283 578 578 0 635 574 0 15 283 364
 0 578 270 660 15 660 365 0 661 270 0 17 661 660 661 661 0 582 580 0 17 582 278
 582 582 0 661 580 0 15 278 361 0 582 275 662 15 662 362 0 663 275 0 17 663 662
 663 663 0 585 583 0 17 585 281 585 585 0 663 583 0 15 281 353 0 585 277 664 15
 664 354 0 514 277 0 17 514 664 514 514 0 512 515 0 17 590 293 590 590 0 633 586
 0 15 293 416 0 590 280 665 15 665 417 0 666 280 0 17 666 665 666 666 0 594 592
 0 17 594 288 594 594 0 666 592 0 15 288 413 0 594 285 667 15 667 414 0 668 285
 0 17 668 667 668 668 0 597 595 0 17 597 291 597 597 0 668 595 0 15 291 405 0 59
7 287 669 15 669 406 0 510 287 0 17 510 669 510 510 0 508 511 0 17 602 303 602 6
02 0 631 598 0 15 303 468 0 602 290 670 15 670 469 0 671 290 0 17 671 670 671 67
1 0 606 604 0 17 606 298 606 606 0 671 604 0 15 298 465 0 606 295 672 15 672 466
 0 673 295 0 17 673 672 673 673 0 609 607 0 17 609 301 609 609 0 673 607 0 15 30
1 457 0 609 297 674 15 674 458 0 506 297 0 17 506 674 506 506 0 504 507 0 17 535
 241 535 535 0 675 533 0 15 241 145 0 535 237 530 17 675 676 675 675 0 535 533 0
 15 676 154 0 675 234 0 15 530 146 0 529 237 0 15 238 153 0 532 234 676 17 335 6
77 335 335 0 498 330 0 15 677 562 0 335 317 0 17 497 678 497 497 0 395 343 0 16
 343 600 0 497 679 333 339 16 679 631 0 680 369 343 344 17 680 349 680 680 0 681
 679 0 16 369 629 0 682 364 679 371 31 344 644 0 679 339 371 0 +1e-8 5 8.6602540
3784439 -5.51 0 0 -1 -.866025403784438 .5 0 .2075 31 371 642 0 369 344 370 0 -1e
-8 5 8.66025403784439 -5.51 0 0 1 .866025403784438 -.5 0 .14 17 682 352 682 682
 0 683 369 0 15 352 613 0 682 348 678 17 683 684 683 683 0 682 369 0 15 684 622
 0 683 346 0 15 678 614 0 497 348 0 15 349 621 0 680 346 684 17 681 685 681 681
 0 680 679 0 15 685 625 0 681 319 0 15 390 596 0 686 227 687 17 686 390 686 686
 0 342 333 0 15 687 544 0 324 227 629 17 324 687 324 324 0 322 325 0 17 342 354
 342 342 0 686 333 0 15 354 624 0 342 319 685 15 98 687 0 361 97 496 17 332 320
 332 332 0 688 329 0 15 320 561 0 332 317 677 17 688 689 688 688 0 332 329 0 15
 689 570 0 688 315 0 15 318 569 0 327 315 689 74 20 11 1 0 2 0 0 0 0 0 0 0 0 0 0
 0 0 0 0 0 0 0 0 0 80 2 8 690 8004 691 0 0 0 0 3 5 0 0 FFTFFFFFFFFF2 3 83 1 9 .0
98 84 7 10 density79 16 691 SDL/TYSA_DENSITY1 0 
