600 0 1 0           
121 GICL ACIS Healer - Source: /gicl/data5/repository/ICEM-CDC/Fixture_Models/pos_cylinder_19_05/pos_cylinder_19_05.sat - 6 0 18 ACIS 6.0.3 Solaris 24 Sat Apr 13 23:05:27 2002 
1 9.999999999999999547e-07 1.000000000000000036e-10 
body $-1 $1 $-1 $2 #
lump $-1 $-1 $3 $0 #
transform $-1 1 0 0 0 1 0 0 0 1 0 0 0 1 no_rotate no_reflect no_shear #
shell $-1 $-1 $-1 $4 $-1 $1 #
face $5 $6 $7 $3 $-1 $8 reversed single #
face_name-twe-attrib $-1 $-1 $-1 $4 1 #
face $9 $10 $11 $3 $-1 $12 forward single #
loop $13 $14 $15 $4 #
cone-surface $16 0 0 0 0 0 1 6.349999999999999645 0 0 1 I I 0 1 6.349999999999999645 forward I I I I #
face_name-twe-attrib $-1 $-1 $-1 $6 2 #
face $17 $18 $19 $3 $-1 $20 forward single #
loop $21 $22 $23 $6 #
cone-surface $24 0 0 0 0 0 1 12.5 0 0 1 I I 0 1 12.5 forward I I I I #
loop_type-twe-attrib $-1 $-1 $-1 $7 0 #
loop $25 $-1 $26 $4 #
coedge $-1 $15 $15 $27 $28 reversed $7 $-1 #
surf-twe-attrib $-1 $-1 $-1 $8 4 #
face_name-twe-attrib $-1 $-1 $-1 $10 3 #
face $29 $-1 $30 $3 $-1 $31 forward single #
loop $32 $33 $27 $10 #
plane-surface $34 0 0 -9.525000000000000355 0 0 -1 -1 0 0 forward_v I I I I #
loop_type-twe-attrib $-1 $-1 $-1 $11 0 #
loop $35 $-1 $36 $6 #
coedge $-1 $23 $23 $37 $38 reversed $11 $-1 #
surf-twe-attrib $-1 $-1 $-1 $12 6 #
loop_type-twe-attrib $-1 $-1 $-1 $14 1 #
coedge $-1 $26 $26 $39 $40 reversed $14 $-1 #
coedge $-1 $27 $27 $15 $28 forward $19 $-1 #
edge $41 $42 0 $42 6.283185307179586232 $27 $43 forward 7 unknown #
face_name-twe-attrib $-1 $-1 $-1 $18 4 #
loop $44 $45 $39 $18 #
plane-surface $46 0 0 9.525000000000000355 0 0 1 1 0 0 forward_v I I I I #
loop_type-twe-attrib $-1 $-1 $-1 $19 1 #
loop $47 $-1 $37 $10 #
surf-twe-attrib $-1 $-1 $-1 $20 10 #
loop_type-twe-attrib $-1 $-1 $-1 $22 1 #
coedge $-1 $36 $36 $48 $49 reversed $22 $-1 #
coedge $-1 $37 $37 $23 $38 forward $33 $-1 #
edge $50 $51 0 $51 6.283185307179586232 $37 $52 forward 7 unknown #
coedge $-1 $39 $39 $26 $40 forward $30 $-1 #
edge $53 $54 0 $54 6.283185307179586232 $39 $55 forward 7 unknown #
edge_name-twe-attrib $-1 $-1 $-1 $28 1 8704 #
vertex $-1 $28 $56 #
ellipse-curve $57 0 0 -9.525000000000000355 0 0 1 6.349999999999999645 0 0 1 I I #
loop_type-twe-attrib $-1 $-1 $-1 $30 1 #
loop $58 $-1 $48 $18 #
surf-twe-attrib $-1 $-1 $-1 $31 18 #
loop_type-twe-attrib $-1 $-1 $-1 $33 0 #
coedge $-1 $48 $48 $36 $49 forward $45 $-1 #
edge $59 $60 0 $60 6.283185307179586232 $48 $61 forward 7 unknown #
edge_name-twe-attrib $-1 $-1 $-1 $38 2 8704 #
vertex $-1 $38 $62 #
ellipse-curve $63 0 0 -9.525000000000000355 0 0 -1 12.5 0 0 1 I I #
edge_name-twe-attrib $-1 $-1 $-1 $40 3 8704 #
vertex $-1 $40 $64 #
ellipse-curve $65 0 0 9.525000000000000355 0 0 -1 6.349999999999999645 0 0 1 I I #
point $-1 6.349999999999999645 0 -9.525000000000000355 #
cur-twe-attrib $-1 $-1 $-1 $43 28 #
loop_type-twe-attrib $-1 $-1 $-1 $45 0 #
edge_name-twe-attrib $-1 $-1 $-1 $49 4 8704 #
vertex $-1 $49 $66 #
ellipse-curve $67 0 0 9.525000000000000355 0 0 1 12.5 0 0 1 I I #
point $-1 12.5 0 -9.525000000000000355 #
cur-twe-attrib $-1 $-1 $-1 $52 38 #
point $-1 6.349999999999999645 0 9.525000000000000355 #
cur-twe-attrib $-1 $-1 $-1 $55 40 #
point $-1 12.5 0 9.525000000000000355 #
cur-twe-attrib $-1 $-1 $-1 $61 49 #
End-of-ACIS-data 