104 68 0 0                              
body $-1 $1 $-1 $2 #
lump $-1 $-1 $3 $0 #
transform $-1 1 0 0 0 1 0 0 0 1 0 0 0 1 0 0 0 #
shell $-1 $-1 $-1 $4 $1 #
face $5 $6 $7 $3 $-1 $8 1 #
face_name-twe-attrib $-1 $-1 $-1 $4 1 #
face $9 $10 $11 $3 $-1 $12 0 #
loop $13 $14 $15 $4 #
cone-surface $16 0 0 0 0 0 1 6.35 0 0 1 0 1 0 #
face_name-twe-attrib $-1 $-1 $-1 $6 2 #
face $17 $18 $19 $3 $-1 $20 0 #
loop $21 $22 $23 $6 #
cone-surface $24 0 0 0 0 0 1 12.5 0 0 1 0 1 0 #
loop_type-twe-attrib $-1 $-1 $-1 $7 0 #
loop $25 $-1 $26 $4 #
coedge $-1 $15 $15 $27 $28 1 $7 $-1 #
surf-twe-attrib $-1 $-1 $-1 $8 4 #
face_name-twe-attrib $-1 $-1 $-1 $10 3 #
face $29 $-1 $30 $3 $-1 $31 0 #
loop $32 $33 $27 $10 #
plane-surface $34 0 0 -9.525 0 0 -1 -1 0 0 0 #
loop_type-twe-attrib $-1 $-1 $-1 $11 0 #
loop $35 $-1 $36 $6 #
coedge $-1 $23 $23 $37 $38 1 $11 $-1 #
surf-twe-attrib $-1 $-1 $-1 $12 6 #
loop_type-twe-attrib $-1 $-1 $-1 $14 1 #
coedge $-1 $26 $26 $39 $40 1 $14 $-1 #
coedge $-1 $27 $27 $15 $28 0 $19 $-1 #
edge $41 $42 $42 $27 $43 0 #
face_name-twe-attrib $-1 $-1 $-1 $18 4 #
loop $44 $45 $39 $18 #
plane-surface $46 0 0 9.525 0 0 1 1 0 0 0 #
loop_type-twe-attrib $-1 $-1 $-1 $19 1 #
loop $47 $-1 $37 $10 #
surf-twe-attrib $-1 $-1 $-1 $20 10 #
loop_type-twe-attrib $-1 $-1 $-1 $22 1 #
coedge $-1 $36 $36 $48 $49 1 $22 $-1 #
coedge $-1 $37 $37 $23 $38 0 $33 $-1 #
edge $50 $51 $51 $37 $52 0 #
coedge $-1 $39 $39 $26 $40 0 $30 $-1 #
edge $53 $54 $54 $39 $55 0 #
edge_name-twe-attrib $-1 $-1 $-1 $28 1 8704 #
vertex $-1 $28 $56 #
ellipse-curve $57 0 0 -9.525 0 0 1 6.35 0 0 1 #
loop_type-twe-attrib $-1 $-1 $-1 $30 1 #
loop $58 $-1 $48 $18 #
surf-twe-attrib $-1 $-1 $-1 $31 18 #
loop_type-twe-attrib $-1 $-1 $-1 $33 0 #
coedge $-1 $48 $48 $36 $49 0 $45 $-1 #
edge $59 $60 $60 $48 $61 0 #
edge_name-twe-attrib $-1 $-1 $-1 $38 2 8704 #
vertex $-1 $38 $62 #
ellipse-curve $63 0 0 -9.525 0 0 -1 12.5 0 0 1 #
edge_name-twe-attrib $-1 $-1 $-1 $40 3 8704 #
vertex $-1 $40 $64 #
ellipse-curve $65 0 0 9.525 0 0 -1 6.35 0 0 1 #
point $-1 6.35 0 -9.525 #
cur-twe-attrib $-1 $-1 $-1 $43 28 #
loop_type-twe-attrib $-1 $-1 $-1 $45 0 #
edge_name-twe-attrib $-1 $-1 $-1 $49 4 8704 #
vertex $-1 $49 $66 #
ellipse-curve $67 0 0 9.525 0 0 1 12.5 0 0 1 #
point $-1 12.5 0 -9.525 #
cur-twe-attrib $-1 $-1 $-1 $52 38 #
point $-1 6.35 0 9.525 #
cur-twe-attrib $-1 $-1 $-1 $55 40 #
point $-1 12.5 0 9.525 #
cur-twe-attrib $-1 $-1 $-1 $61 49 #
