600 0 2 0           
24 FBMach with ACIS - 6.0.3 13 ACIS 6.0.3 NT 24 Mon Apr 01 16:20:50 2002 
1 9.9999999999999995e-007 1e-010 
body $2 $3 $-1 $4 #
bdycol-kcp $-1 1 3 $5 $6 $7 #
model_id-kcp-attrib $-1 $8 $-1 $0 1 1017696050 50 -181272575 1 #
lump $-1 $-1 $9 $0 #
transform $-1 1 0 0 0 1 0 0 0 1 0 0 0 1 rotate no_reflect no_shear #
body $10 $11 $-1 $12 #
body $13 $14 $-1 $15 #
body $16 $17 $-1 $18 #
aggregate_advspl_attribute-aggregate_geombuild_base_attribute-aggregate_body_attribute-attrib_HH-attrib $-1 $19 $2 $0 F #
shell $-1 $-1 $-1 $20 $-1 $3 #
model_id-kcp-attrib $-1 $-1 $-1 $5 1 1017696050 60 -180617214 1 #
lump $-1 $-1 $21 $5 #
transform $-1 1 0 0 0 1 0 0 0 1 -0.034600000000000006 -0.15949999999999998 0 1 no_rotate no_reflect no_shear #
rgb_color-st-attrib $-1 $22 $-1 $6 1 1 0.5 #
lump $-1 $-1 $23 $6 #
transform $-1 1 0 0 0 0 1 0 -1 0 -0.034599999999999999 -0.32970259045016598 0 1 rotate no_reflect no_shear #
rgb_color-st-attrib $-1 $24 $-1 $7 0.5 1 1 #
lump $-1 $-1 $25 $7 #
transform $-1 1 0 0 0 1 0 0 0 1 -0.034600000000000006 -0.15949999999999998 0 1 no_rotate no_reflect no_shear #
aggregate_secndry_attribute-aggregate_geombuild_base_attribute-aggregate_body_attribute-attrib_HH-attrib $-1 $26 $8 $0 F #
face $27 $28 $29 $9 $-1 $30 forward single #
shell $-1 $-1 $-1 $31 $-1 $11 #
model_id-kcp-attrib $-1 $-1 $13 $6 1 1017696050 70 -179961853 1 #
shell $-1 $-1 $-1 $32 $-1 $14 #
model_id-kcp-attrib $-1 $-1 $16 $7 1 1017696050 160 -174063612 1 #
shell $-1 $-1 $-1 $33 $-1 $17 #
aggregate_sharped_attribute-aggregate_geombuild_base_attribute-aggregate_body_attribute-attrib_HH-attrib $-1 $34 $19 $0 F #
model_id-kcp-attrib $-1 $35 $-1 $20 1 1017696050 50 -181272575 2 #
face $36 $37 $38 $9 $-1 $39 forward single #
loop $-1 $40 $41 $20 #
cone-surface $-1 -0.034599999999999999 -0.36575000000000002 0 0 1 0 0.062600000000000003 0 0 1 I I 0 1 0.062600000000000003 forward I I I I #
face $-1 $42 $43 $21 $-1 $44 forward single #
face $-1 $45 $46 $23 $-1 $47 reversed single #
face $-1 $48 $49 $25 $-1 $50 reversed single #
aggregate_reblend_attribute-aggregate_geombuild_base_attribute-aggregate_body_attribute-attrib_HH-attrib $-1 $51 $26 $0 F #
attrib_hh_face_geombuild-attrib_entity_geombuild-individual_entity_attribute-attrib_HH-attrib $-1 $52 $27 $20 F #
model_id-kcp-attrib $-1 $53 $-1 $28 1 1017696050 50 -181272575 3 #
face $54 $55 $56 $9 $-1 $57 forward single #
loop $-1 $58 $59 $28 #
torus-surface $-1 -0.034599999999999999 0 0 0 1 0 0.034599999999999999 0.028000000000000001 0 0 1 forward_v I I I I #
loop $-1 $-1 $60 $20 #
coedge $61 $41 $41 $62 $63 forward $29 $-1 #
face $-1 $64 $65 $21 $-1 $66 reversed single #
loop $-1 $-1 $67 $31 #
plane-surface $-1 0 0 0.062600000000000003 0 0 1 1 0 0 forward_v I I I I #
face $-1 $68 $69 $23 $-1 $70 forward single #
loop $-1 $71 $72 $32 #
cone-surface $-1 0 0 0.1602137114042016 0 0 1 0.031300000000000001 0 0 1 I I -0.17364817766692917 0.98480775301220835 0.031300000000000001 forward I I I I #
face $-1 $73 $74 $25 $-1 $50 reversed single #
loop $-1 $-1 $75 $33 #
cone-surface $-1 6.9388939039072284e-018 0.18749999999999997 0 0 1 0 -0.062600000000000003 0 7.6660357749280814e-018 1 I I 0 1 0.062600000000000003 forward I I I I #
aggregate_isospline_attribute-aggregate_geombuild_base_attribute-aggregate_body_attribute-attrib_HH-attrib $-1 $76 $34 $0 F #
pid_name-sg-attrib $-1 $-1 $35 $20 7 rwilson 784252905 94 1 #
attrib_hh_face_geombuild-attrib_entity_geombuild-individual_entity_attribute-attrib_HH-attrib $-1 $77 $36 $28 F #
model_id-kcp-attrib $-1 $78 $-1 $37 1 1017696050 50 -181272575 8 #
face $79 $80 $81 $9 $-1 $82 forward single #
loop $-1 $-1 $83 $37 #
plane-surface $-1 -0.034599999999999999 0.028000000000000001 0 0 1 0 0 0 1 forward_v I I I I #
loop $-1 $-1 $84 $28 #
coedge $85 $59 $59 $60 $86 forward $38 $-1 #
coedge $87 $60 $60 $59 $86 reversed $40 $-1 #
attrib_hh_coedge_geombuild-attrib_entity_geombuild-individual_entity_attribute-attrib_HH-attrib $-1 $-1 $-1 $41 F #
coedge $88 $62 $62 $41 $63 reversed $89 $-1 #
edge $90 $91 -3.1415926535897931 $91 3.1415926535897931 $62 $92 reversed 7 unknown #
face $93 $94 $95 $21 $-1 $96 reversed single #
loop $-1 $-1 $97 $42 #
plane-surface $-1 0 0 -0.062600000000000003 0 0 1 1 0 0 forward_v I I I I #
coedge $-1 $98 $99 $100 $101 forward $43 $-1 #
face $-1 $-1 $102 $23 $-1 $103 forward single #
loop $-1 $104 $105 $45 #
cone-surface $-1 0 0 0 0 0 1 0.062600000000000003 0 0 1 I I 0 1 0.062600000000000003 forward I I I I #
loop $-1 $-1 $106 $32 #
coedge $-1 $72 $72 $107 $108 reversed $46 $-1 #
face $-1 $109 $110 $25 $-1 $50 reversed single #
loop $-1 $-1 $111 $48 #
coedge $-1 $112 $113 $114 $115 reversed $49 $-1 #
aggregate_analytic_solver_attribute-aggregate_geombuild_base_attribute-aggregate_body_attribute-attrib_HH-attrib $-1 $116 $51 $0 F #
pid_name-sg-attrib $-1 $-1 $53 $28 7 rwilson 784252905 95 1 #
model_id-kcp-attrib $-1 $117 $54 $37 1 1017696050 50 -181272575 4 #
model_id-kcp-attrib $-1 $118 $-1 $55 1 1017696050 50 -181272575 5 #
face $119 $-1 $120 $9 $-1 $121 reversed single #
loop $-1 $89 $122 $55 #
cone-surface $-1 -0.034599999999999999 0.33257257719159899 0 0 1 0 0.176326980708465 0 0 1 I I 0.17364817766693 0.98480775301220802 0.176326980708465 forward I I I I #
coedge $123 $83 $83 $84 $124 reversed $56 $-1 #
coedge $125 $84 $84 $83 $124 forward $58 $-1 #
attrib_hh_coedge_geombuild-attrib_entity_geombuild-individual_entity_attribute-attrib_HH-attrib $-1 $-1 $-1 $59 F #
edge $126 $127 -6.2831853071795862 $127 0 $60 $128 reversed 7 unknown #
attrib_hh_coedge_geombuild-attrib_entity_geombuild-individual_entity_attribute-attrib_HH-attrib $-1 $-1 $-1 $60 F #
attrib_hh_coedge_geombuild-attrib_entity_geombuild-individual_entity_attribute-attrib_HH-attrib $-1 $-1 $-1 $62 F #
loop $-1 $-1 $62 $55 #
attrib_edge_convexity-kcp-attrib $-1 $129 $-1 $63 1 #
vertex $130 $63 $131 #
ellipse-curve $-1 -0.034599999999999999 -0.31240518090033198 0 0 -1 0 0.062600000000000003 0 0 1 I I #
model_id-kcp-attrib $-1 $-1 $-1 $64 1 1017696050 60 -180617214 3 #
face $-1 $132 $133 $21 $-1 $134 reversed single #
loop $-1 $-1 $135 $64 #
plane-surface $-1 0 -0.1875 0 0 1 0 0 0 1 forward_v I I I I #
coedge $-1 $136 $137 $138 $139 forward $65 $-1 #
coedge $-1 $140 $67 $141 $142 forward $43 $-1 #
coedge $-1 $67 $140 $143 $144 forward $43 $-1 #
coedge $-1 $145 $146 $67 $101 reversed $147 $-1 #
edge $-1 $148 -0.1875 $149 0.1875 $100 $150 forward 7 unknown #
loop $-1 $151 $107 $68 #
plane-surface $-1 0 0 0.017297409549833997 0 0 1 1 0 0 forward_v I I I I #
loop $-1 $-1 $152 $45 #
coedge $-1 $105 $105 $106 $153 reversed $69 $-1 #
coedge $-1 $106 $106 $105 $153 forward $71 $-1 #
coedge $-1 $107 $107 $72 $108 forward $102 $-1 #
edge $-1 $154 -3.1415926535897931 $154 3.1415926535897931 $107 $155 forward 7 unknown #
face $-1 $156 $157 $25 $-1 $50 reversed single #
loop $-1 $-1 $158 $73 #
coedge $-1 $159 $160 $161 $162 reversed $74 $-1 #
coedge $-1 $163 $75 $164 $165 forward $49 $-1 #
coedge $-1 $75 $163 $166 $167 reversed $49 $-1 #
coedge $-1 $168 $169 $75 $115 forward $170 $-1 #
edge $-1 $171 -1.224606353822377e-016 $172 1.5707963267948966 $114 $173 forward 7 unknown #
aggregate_geombuild_attribute-aggregate_geombuild_base_attribute-aggregate_body_attribute-attrib_HH-attrib $-1 $174 $76 $0 #
attrib_hh_face_geombuild-attrib_entity_geombuild-individual_entity_attribute-attrib_HH-attrib $-1 $175 $78 $37 F #
attrib_hh_face_geombuild-attrib_entity_geombuild-individual_entity_attribute-attrib_HH-attrib $-1 $176 $79 $55 F #
model_id-kcp-attrib $-1 $177 $-1 $80 1 1017696050 50 -181272575 7 #
loop $-1 $-1 $178 $80 #
plane-surface $-1 -0.034599999999999999 -0.34699999999999998 0 0 1 0 0 0 1 forward_v I I I I #
coedge $179 $122 $122 $178 $180 forward $81 $-1 #
attrib_hh_coedge_geombuild-attrib_entity_geombuild-individual_entity_attribute-attrib_HH-attrib $-1 $-1 $-1 $83 F #
edge $181 $182 0 $182 6.2831853071795862 $83 $183 forward 7 unknown #
attrib_hh_coedge_geombuild-attrib_entity_geombuild-individual_entity_attribute-attrib_HH-attrib $-1 $-1 $-1 $84 F #
attrib_hh_edge_geombuild-attrib_entity_geombuild-individual_entity_attribute-attrib_HH-attrib $-1 $-1 $-1 $86 F #
vertex $184 $86 $185 #
ellipse-curve $-1 -0.034599999999999999 0 0 0 -1 0 0.062600000000000003 0 0 1 I I #
convexity-sys-attrib $-1 $186 $90 $63 #
attrib_hh_vertex_geombuild-attrib_entity_geombuild-individual_entity_attribute-attrib_HH-attrib $-1 $-1 $-1 $91 F #
point $-1 -0.097199999999999995 -0.31240518090033198 7.6662889626624304e-018 #
face $187 $188 $189 $21 $-1 $190 reversed single #
loop $-1 $-1 $191 $94 #
plane-surface $-1 -0.062600000000000003 0 0 1 0 0 0 0 -1 forward_v I I I I #
coedge $-1 $192 $143 $193 $194 forward $95 $-1 #
coedge $-1 $195 $97 $192 $196 forward $65 $-1 #
coedge $-1 $97 $195 $197 $198 forward $65 $-1 #
coedge $-1 $146 $145 $97 $139 reversed $147 $-1 #
edge $-1 $199 -0.1875 $200 0.1875 $138 $201 forward 7 unknown #
coedge $-1 $99 $98 $202 $203 forward $43 $-1 #
coedge $-1 $204 $205 $98 $142 reversed $189 $-1 #
edge $-1 $149 -0.062600000000000003 $206 0.062600000000000003 $141 $207 forward 7 unknown #
coedge $-1 $135 $208 $99 $144 reversed $95 $-1 #
edge $-1 $209 -0.062600000000000003 $148 0.062600000000000003 $143 $210 forward 7 unknown #
coedge $-1 $138 $100 $208 $211 forward $147 $-1 #
coedge $-1 $100 $138 $204 $212 reversed $147 $-1 #
loop $-1 $-1 $145 $188 #
vertex $-1 $101 $213 #
vertex $-1 $101 $214 #
straight-curve $-1 0.062600000000000003 0 0.062600000000000003 0 1 0 I I #
loop $-1 $-1 $215 $68 #
coedge $-1 $152 $152 $215 $216 reversed $104 $-1 #
edge $-1 $217 0 $217 6.2831853071795862 $105 $218 forward 7 unknown #
vertex $-1 $108 $219 #
ellipse-curve $-1 0 0 0.017297409549833997 0 0 -1 0.056500000000000057 0 0 1 I I #
face $-1 $220 $221 $25 $-1 $222 forward single #
loop $-1 $-1 $223 $109 #
coedge $-1 $224 $225 $223 $226 forward $110 $-1 #
coedge $-1 $227 $111 $228 $229 reversed $74 $-1 #
coedge $-1 $111 $227 $113 $167 forward $74 $-1 #
coedge $-1 $230 $231 $111 $162 forward $232 $-1 #
edge $-1 $233 -3.1415926535897931 $234 -1.5707963267948966 $161 $235 forward 7 unknown #
coedge $-1 $113 $112 $236 $237 reversed $49 $-1 #
coedge $-1 $225 $224 $238 $165 reversed $110 $-1 #
edge $-1 $171 -0.375 $239 2.7755575615628914e-017 $238 $240 forward 7 unknown #
coedge $-1 $241 $242 $243 $167 forward $244 $-1 #
edge $-1 $172 -0.375 $234 2.7755575615628914e-017 $166 $245 forward 7 unknown #
coedge $-1 $169 $114 $242 $246 reversed $170 $-1 #
coedge $-1 $114 $168 $247 $248 forward $170 $-1 #
loop $-1 $-1 $114 $249 #
vertex $-1 $250 $251 #
vertex $-1 $252 $253 #
ellipse-curve $-1 6.9388939039072284e-018 -0.18750000000000003 0 0 1 0 -0.062600000000000003 0 7.6660357749280814e-018 1 I I #
aggregate_stitch_attribute-aggregate_stitch_base_attribute-aggregate_body_attribute-attrib_HH-attrib $-1 $254 $116 $0 F #
pid_name-sg-attrib $-1 $-1 $117 $37 7 rwilson 784252905 96 1 #
pid_name-sg-attrib $-1 $-1 $118 $55 7 rwilson 784252905 97 1 #
model_id-kcp-attrib $-1 $255 $119 $80 1 1017696050 50 -181272575 6 #
coedge $256 $178 $178 $122 $180 reversed $120 $-1 #
attrib_hh_coedge_geombuild-attrib_entity_geombuild-individual_entity_attribute-attrib_HH-attrib $-1 $-1 $-1 $122 F #
edge $257 $258 -6.2831853071795862 $258 0 $178 $259 reversed 7 unknown #
attrib_edge_convexity-kcp-attrib $-1 $260 $-1 $124 3 #
vertex $261 $124 $262 #
ellipse-curve $-1 -0.034599999999999999 0.028000000000000001 0 7.0191123305419902e-016 -1 0 0.034599999999999999 2.4286128663675299e-017 0 1 I I #
attrib_hh_vertex_geombuild-attrib_entity_geombuild-individual_entity_attribute-attrib_HH-attrib $-1 $-1 $-1 $127 F #
point $-1 0.028000000000000001 0 0 #
attrib_hh_edge_geombuild-attrib_entity_geombuild-individual_entity_attribute-attrib_HH-attrib $-1 $-1 $129 $63 F #
model_id-kcp-attrib $-1 $-1 $-1 $132 1 1017696050 60 -180617214 2 #
face $-1 $-1 $147 $21 $-1 $263 reversed single #
loop $-1 $-1 $204 $132 #
plane-surface $-1 0 0.1875 0 0 -1 0 0 0 -1 forward_v I I I I #
coedge $-1 $264 $202 $205 $265 forward $133 $-1 #
coedge $-1 $208 $135 $136 $196 reversed $95 $-1 #
coedge $-1 $202 $264 $135 $194 reversed $133 $-1 #
edge $-1 $209 -0.062600000000000003 $266 0.062600000000000003 $193 $267 forward 7 unknown #
coedge $-1 $137 $136 $264 $268 forward $65 $-1 #
edge $-1 $200 -0.062600000000000003 $266 0.062600000000000003 $192 $269 forward 7 unknown #
coedge $-1 $205 $204 $137 $198 reversed $189 $-1 #
edge $-1 $270 -0.062600000000000003 $199 0.062600000000000003 $197 $271 forward 7 unknown #
vertex $-1 $139 $272 #
vertex $-1 $211 $273 #
straight-curve $-1 0.062600000000000003 0 -0.062600000000000003 0 -1 0 I I #
coedge $-1 $191 $193 $140 $203 reversed $133 $-1 #
edge $-1 $206 -0.1875 $209 0.1875 $202 $274 forward 7 unknown #
coedge $-1 $197 $141 $146 $212 forward $189 $-1 #
coedge $-1 $141 $197 $191 $265 reversed $189 $-1 #
vertex $-1 $142 $275 #
straight-curve $-1 0 0.1875 0.062600000000000003 -1 0 0 I I #
coedge $-1 $143 $192 $145 $211 reversed $95 $-1 #
vertex $-1 $203 $276 #
straight-curve $-1 0 -0.1875 0.062600000000000003 1 0 0 I I #
edge $-1 $148 -0.062600000000000003 $200 0.062600000000000003 $145 $277 forward 7 unknown #
edge $-1 $149 -0.062600000000000003 $199 0.062600000000000003 $146 $278 forward 7 unknown #
point $-1 0.062600000000000003 -0.1875 0.062600000000000003 #
point $-1 0.062600000000000003 0.1875 0.062600000000000003 #
coedge $-1 $215 $215 $152 $216 forward $151 $-1 #
edge $-1 $279 0 $279 6.2831853071795862 $215 $280 forward 7 unknown #
vertex $-1 $153 $281 #
ellipse-curve $-1 0 0 -0.017297409549833997 0 0 -1 0.062600000000000003 0 0 1 I I #
point $-1 -0.056500000000000057 6.9190258990964383e-018 0.017297409549833997 #
face $-1 $282 $283 $25 $-1 $284 reversed single #
loop $-1 $-1 $243 $156 #
plane-surface $-1 0 0 0.062600000000000003 0 0 1 1 0 0 forward_v I I I I #
coedge $-1 $285 $286 $287 $226 reversed $157 $-1 #
coedge $-1 $164 $158 $288 $289 reversed $110 $-1 #
coedge $-1 $158 $164 $290 $291 reversed $110 $-1 #
edge $-1 $292 -0.375 $293 2.7755575615628914e-017 $287 $294 forward 7 unknown #
coedge $-1 $160 $159 $295 $296 reversed $74 $-1 #
coedge $-1 $297 $298 $299 $229 forward $300 $-1 #
edge $-1 $301 -0.375 $233 2.7755575615628914e-017 $228 $302 forward 7 unknown #
coedge $-1 $231 $161 $303 $304 reversed $232 $-1 #
coedge $-1 $161 $230 $297 $305 forward $232 $-1 #
loop $-1 $-1 $161 $306 #
vertex $-1 $307 $308 #
vertex $-1 $309 $310 #
ellipse-curve $-1 6.9388939039072284e-018 0.1875 0 0 -1 0 -0.062600000000000003 0 7.6660357749280814e-018 1 I I #
coedge $-1 $311 $312 $163 $237 forward $313 $-1 #
edge $-1 $234 -1.5707963267948966 $239 1.224606353822377e-016 $236 $235 forward 7 unknown #
coedge $-1 $314 $315 $316 $165 forward $283 $-1 #
vertex $-1 $317 $318 #
straight-curve $-1 -0.062600000000000017 0.18749999999999997 0 0 1 0 I I #
coedge $-1 $319 $166 $312 $309 forward $244 $-1 #
coedge $-1 $166 $319 $168 $246 forward $244 $-1 #
coedge $-1 $320 $303 $160 $167 reversed $221 $-1 #
loop $-1 $-1 $166 $321 #
straight-curve $-1 6.9388939039072284e-018 0.18749999999999997 0.062600000000000003 0 1 0 I I #
edge $-1 $322 -0.062600000000000003 $172 6.9388939039072284e-018 $168 $323 forward 7 unknown #
coedge $-1 $324 $316 $169 $248 reversed $325 $-1 #
edge $-1 $322 -0.062600000000000003 $171 0 $247 $326 forward 7 unknown #
face $-1 $327 $170 $25 $-1 $328 reversed single #
edge $-1 $171 0 $329 0.062600000000000003 $315 $326 forward 7 unknown #
point $-1 -0.062600000000000017 -0.1875 0 #
edge $-1 $172 6.9388939039072284e-018 $330 0.062600000000000003 $331 $323 forward 7 unknown #
point $-1 6.9388939039072284e-018 -0.1875 0.062600000000000003 #
aggregate_simgeom_attribute-aggregate_simgeom_base_attribute-aggregate_body_attribute-attrib_HH-attrib $-1 $-1 $174 $0 F #
attrib_hh_face_geombuild-attrib_entity_geombuild-individual_entity_attribute-attrib_HH-attrib $-1 $332 $177 $80 F #
attrib_hh_coedge_geombuild-attrib_entity_geombuild-individual_entity_attribute-attrib_HH-attrib $-1 $-1 $-1 $178 F #
attrib_edge_convexity-kcp-attrib $-1 $333 $-1 $180 1 #
vertex $334 $180 $335 #
ellipse-curve $-1 -0.034599999999999999 -0.34699999999999998 0 0 -1 0 0.056500000000000002 0 0 1 I I #
convexity-sys-attrib $-1 $336 $181 $124 #
attrib_hh_vertex_geombuild-attrib_entity_geombuild-individual_entity_attribute-attrib_HH-attrib $-1 $-1 $-1 $182 F #
point $-1 -6.9388939039072299e-018 0.028000000000000001 0 #
plane-surface $-1 0.062600000000000003 0 0 -1 0 0 0 0 1 forward_v I I I I #
coedge $-1 $193 $191 $195 $268 reversed $133 $-1 #
edge $-1 $206 -0.062600000000000003 $270 0.062600000000000003 $205 $337 forward 7 unknown #
vertex $-1 $268 $338 #
straight-curve $-1 -0.062600000000000003 -0.1875 0 0 0 -1 I I #
edge $-1 $266 -0.1875 $270 0.1875 $264 $339 forward 7 unknown #
straight-curve $-1 0 -0.1875 -0.062600000000000003 -1 0 0 I I #
vertex $-1 $198 $340 #
straight-curve $-1 0 0.1875 -0.062600000000000003 1 0 0 I I #
point $-1 0.062600000000000003 0.1875 -0.062600000000000003 #
point $-1 0.062600000000000003 -0.1875 -0.062600000000000003 #
straight-curve $-1 -0.062600000000000003 0 0.062600000000000003 0 -1 0 I I #
point $-1 -0.062600000000000003 0.1875 0.062600000000000003 #
point $-1 -0.062600000000000003 -0.1875 0.062600000000000003 #
straight-curve $-1 0.062600000000000003 -0.1875 0 0 0 -1 I I #
straight-curve $-1 0.062600000000000003 0.1875 0 0 0 -1 I I #
vertex $-1 $216 $341 #
ellipse-curve $-1 0 0 0.017297409549833997 0 0 1 0.062600000000000003 0 0 1 I I #
point $-1 0.062600000000000003 0 -0.017297409549833997 #
face $-1 $342 $343 $25 $-1 $344 reversed single #
loop $-1 $-1 $238 $220 #
plane-surface $-1 -0.062600000000000003 0 0 1 0 0 0 0 -1 forward_v I I I I #
coedge $-1 $345 $223 $346 $347 reversed $157 $-1 #
coedge $-1 $223 $345 $348 $349 reversed $157 $-1 #
coedge $-1 $350 $351 $352 $226 forward $353 $-1 #
coedge $-1 $354 $355 $224 $289 forward $356 $-1 #
edge $-1 $239 1.224606353822377e-016 $293 1.5707963267948968 $288 $235 forward 7 unknown #
coedge $-1 $357 $358 $225 $291 forward $359 $-1 #
edge $-1 $292 -1.5707963267948968 $171 -1.224606353822377e-016 $290 $173 forward 7 unknown #
vertex $-1 $360 $361 #
vertex $-1 $362 $363 #
straight-curve $-1 6.9388939039072284e-018 0.18749999999999997 -0.062600000000000003 0 1 0 I I #
coedge $-1 $364 $331 $227 $296 forward $365 $-1 #
edge $-1 $172 1.5707963267948966 $301 3.1415926535897931 $295 $173 forward 7 unknown #
coedge $-1 $366 $228 $231 $305 reversed $300 $-1 #
coedge $-1 $228 $366 $364 $367 forward $300 $-1 #
coedge $-1 $368 $369 $345 $229 reversed $343 $-1 #
loop $-1 $-1 $228 $370 #
vertex $-1 $371 $372 #
straight-curve $-1 0.062599999999999989 0.18749999999999997 0 0 1 0 I I #
coedge $-1 $243 $373 $230 $304 forward $221 $-1 #
edge $-1 $374 -0.062600000000000003 $234 -6.9388939039072284e-018 $230 $375 forward 7 unknown #
edge $-1 $374 -0.062600000000000003 $233 0 $297 $376 forward 7 unknown #
face $-1 $377 $232 $25 $-1 $378 reversed single #
edge $-1 $233 0 $379 0.062600000000000003 $369 $376 forward 7 unknown #
point $-1 0.062599999999999989 0.1875 0 #
edge $-1 $234 -6.9388939039072284e-018 $380 0.062600000000000003 $312 $375 forward 7 unknown #
point $-1 6.9388939039072284e-018 0.1875 0.062600000000000003 #
coedge $-1 $312 $236 $381 $382 reversed $313 $-1 #
coedge $-1 $236 $311 $241 $309 reversed $313 $-1 #
loop $-1 $-1 $236 $377 #
coedge $-1 $383 $238 $355 $317 forward $283 $-1 #
coedge $-1 $238 $383 $357 $250 reversed $283 $-1 #
coedge $-1 $247 $381 $112 $165 reversed $325 $-1 #
edge $-1 $239 0 $384 0.062600000000000003 $355 $385 forward 7 unknown #
point $-1 -0.062600000000000017 0.1875 0 #
coedge $-1 $242 $241 $324 $386 forward $244 $-1 #
coedge $-1 $373 $243 $331 $252 forward $221 $-1 #
face $-1 $387 $244 $25 $-1 $222 forward single #
vertex $-1 $386 $388 #
straight-curve $-1 0 -0.1875 0.062600000000000003 1 0 0 I I #
coedge $-1 $381 $247 $319 $386 reversed $325 $-1 #
loop $-1 $-1 $316 $389 #
straight-curve $-1 -0.062600000000000003 -0.1875 0 0 0 -1 I I #
face $-1 $390 $365 $25 $-1 $328 reversed single #
plane-surface $-1 0 -0.1875 0 0 1 0 0 0 1 forward_v I I I I #
vertex $-1 $391 $392 #
vertex $-1 $393 $394 #
coedge $-1 $295 $364 $320 $252 reversed $365 $-1 #
pid_name-sg-attrib $-1 $-1 $255 $80 7 rwilson 784252905 98 1 #
convexity-sys-attrib $-1 $395 $257 $180 #
attrib_hh_vertex_geombuild-attrib_entity_geombuild-individual_entity_attribute-attrib_HH-attrib $-1 $-1 $-1 $258 F #
point $-1 0.021899999999999999 -0.34699999999999998 0 #
attrib_hh_edge_geombuild-attrib_entity_geombuild-individual_entity_attribute-attrib_HH-attrib $-1 $-1 $260 $124 F #
straight-curve $-1 -0.062600000000000003 0.1875 0 0 0 -1 I I #
point $-1 -0.062600000000000003 -0.1875 -0.062600000000000003 #
straight-curve $-1 -0.062600000000000003 0 -0.062600000000000003 0 1 0 I I #
point $-1 -0.062600000000000003 0.1875 -0.062600000000000003 #
point $-1 0.062600000000000003 0 0.017297409549833997 #
face $-1 $306 $396 $25 $-1 $378 reversed single #
loop $-1 $-1 $299 $282 #
plane-surface $-1 0.062600000000000003 0 0 -1 0 0 0 0 1 forward_v I I I I #
coedge $-1 $286 $285 $159 $229 forward $157 $-1 #
coedge $-1 $397 $398 $285 $347 forward $399 $-1 #
edge $-1 $301 -3.1415926535897931 $292 -1.5707963267948968 $346 $173 forward 7 unknown #
coedge $-1 $400 $401 $286 $349 forward $396 $-1 #
edge $-1 $293 1.5707963267948968 $233 3.1415926535897931 $348 $235 forward 7 unknown #
coedge $-1 $402 $287 $401 $362 forward $353 $-1 #
coedge $-1 $287 $402 $397 $403 forward $353 $-1 #
coedge $-1 $404 $405 $158 $226 reversed $406 $-1 #
loop $-1 $-1 $287 $387 #
coedge $-1 $355 $288 $405 $407 reversed $356 $-1 #
coedge $-1 $288 $354 $314 $317 reversed $356 $-1 #
loop $-1 $-1 $288 $408 #
coedge $-1 $358 $290 $315 $250 forward $359 $-1 #
coedge $-1 $290 $357 $404 $360 reversed $359 $-1 #
loop $-1 $-1 $290 $409 #
edge $-1 $292 -6.9388939039072284e-018 $329 0.062600000000000003 $358 $410 forward 7 unknown #
point $-1 6.9388939039072284e-018 -0.1875 -0.062600000000000003 #
edge $-1 $293 6.9388939039072284e-018 $379 0.062600000000000003 $401 $411 forward 7 unknown #
point $-1 6.9388939039072284e-018 0.1875 -0.062600000000000003 #
coedge $-1 $331 $295 $298 $367 reversed $365 $-1 #
loop $-1 $-1 $295 $327 #
coedge $-1 $298 $297 $373 $393 reversed $300 $-1 #
edge $-1 $330 -0.062600000000000003 $301 0 $298 $412 forward 7 unknown #
coedge $-1 $413 $299 $398 $371 forward $343 $-1 #
coedge $-1 $299 $413 $400 $307 reversed $343 $-1 #
face $-1 $-1 $300 $25 $-1 $344 reversed single #
edge $-1 $301 0 $414 0.062600000000000003 $368 $412 forward 7 unknown #
point $-1 0.062599999999999989 -0.1875 0 #
coedge $-1 $303 $320 $366 $393 forward $221 $-1 #
vertex $-1 $393 $415 #
straight-curve $-1 0 0.1875 0.062600000000000003 -1 0 0 I I #
straight-curve $-1 0.062600000000000003 0.1875 0 0 0 -1 I I #
face $-1 $408 $313 $25 $-1 $378 reversed single #
plane-surface $-1 0 0.1875 0 0 -1 0 0 0 -1 forward_v I I I I #
vertex $-1 $416 $417 #
vertex $-1 $309 $418 #
coedge $-1 $316 $324 $311 $382 forward $325 $-1 #
edge $-1 $380 -0.062600000000000003 $239 0 $311 $385 forward 7 unknown #
coedge $-1 $315 $314 $419 $391 reversed $283 $-1 #
vertex $-1 $407 $420 #
straight-curve $-1 -0.062600000000000003 0.1875 0 0 0 -1 I I #
edge $-1 $380 -0.1875 $322 0.1875 $324 $421 forward 7 unknown #
face $-1 $389 $353 $25 $-1 $422 reversed single #
point $-1 -0.062600000000000003 -0.1875 0.062600000000000003 #
face $-1 $370 $325 $25 $-1 $284 reversed single #
face $-1 $423 $399 $25 $-1 $328 reversed single #
edge $-1 $329 -0.1875 $384 0.1875 $383 $424 forward 7 unknown #
point $-1 -0.062600000000000003 -0.1875 -0.062600000000000003 #
edge $-1 $330 -0.1875 $374 0.1875 $366 $425 forward 7 unknown #
point $-1 0.062600000000000003 -0.1875 0.062600000000000003 #
attrib_hh_edge_geombuild-attrib_entity_geombuild-individual_entity_attribute-attrib_HH-attrib $-1 $-1 $333 $180 F #
loop $-1 $-1 $348 $342 #
coedge $-1 $398 $346 $351 $403 reversed $399 $-1 #
coedge $-1 $346 $397 $368 $371 reversed $399 $-1 #
loop $-1 $-1 $346 $390 #
coedge $-1 $401 $348 $369 $307 forward $396 $-1 #
coedge $-1 $348 $400 $350 $362 reversed $396 $-1 #
coedge $-1 $351 $350 $413 $416 forward $353 $-1 #
edge $-1 $414 -0.062600000000000003 $292 -6.9388939039072284e-018 $397 $410 forward 7 unknown #
coedge $-1 $419 $352 $358 $360 forward $406 $-1 #
coedge $-1 $352 $419 $354 $407 forward $406 $-1 #
loop $-1 $-1 $352 $423 #
edge $-1 $384 -0.062600000000000003 $293 6.9388939039072284e-018 $354 $411 forward 7 unknown #
face $-1 $409 $356 $25 $-1 $378 reversed single #
face $-1 $249 $359 $25 $-1 $328 reversed single #
straight-curve $-1 0 -0.1875 -0.062600000000000003 -1 0 0 I I #
straight-curve $-1 0 0.1875 -0.062600000000000003 1 0 0 I I #
straight-curve $-1 0.062600000000000003 -0.1875 0 0 0 -1 I I #
coedge $-1 $369 $368 $402 $416 reversed $343 $-1 #
vertex $-1 $371 $426 #
point $-1 0.062600000000000003 0.1875 0.062600000000000003 #
edge $-1 $379 -0.1875 $414 0.1875 $413 $427 forward 7 unknown #
point $-1 0.062600000000000003 0.1875 -0.062600000000000003 #
point $-1 -0.062600000000000003 0.1875 0.062600000000000003 #
coedge $-1 $405 $404 $383 $391 forward $406 $-1 #
point $-1 -0.062600000000000003 0.1875 -0.062600000000000003 #
straight-curve $-1 -0.062600000000000003 0 0.062600000000000003 0 -1 0 I I #
plane-surface $-1 0 0 -0.062600000000000003 0 0 1 1 0 0 forward_v I I I I #
face $-1 $321 $406 $25 $-1 $422 reversed single #
straight-curve $-1 -0.062600000000000003 0 -0.062600000000000003 0 1 0 I I #
straight-curve $-1 0.062600000000000003 0 0.062600000000000003 0 1 0 I I #
point $-1 0.062600000000000003 -0.1875 -0.062600000000000003 #
straight-curve $-1 0.062600000000000003 0 -0.062600000000000003 0 -1 0 I I #
End-of-ACIS-data 