105 51 1 0                              
body $-1 $1 $-1 $2 #
lump $-1 $-1 $3 $0 #
transform $-1 1 0 0 0 1 0 0 0 1 0 0 0 1 0 0 0 #
shell $-1 $-1 $-1 $4 $1 #
face $5 $6 $7 $3 $-1 $8 forward single #
pid_name-sg-attrib $-1 $-1 $-1 $4 7 114 119 105 108 115 111 110 784252905 94 1 #
face $9 $10 $11 $3 $-1 $12 forward single #
loop $-1 $13 $14 $4 #
cone-surface $-1 -0.0346 -0.36575 0 0 1 0 0.0626 0 0 1 0 1 0 #
pid_name-sg-attrib $-1 $-1 $-1 $6 7 114 119 105 108 115 111 110 784252905 95 1 #
face $15 $16 $17 $3 $-1 $18 forward single #
loop $-1 $19 $20 $6 #
torus-surface $-1 -0.0346 0 0 0 1 0 0.0346 0.028 0 0 1 0 #
loop $-1 $-1 $21 $4 #
coedge $-1 $14 $14 $22 $23 0 $7 $-1 #
pid_name-sg-attrib $-1 $-1 $-1 $10 7 114 119 105 108 115 111 110 784252905 96 1 #
face $24 $25 $26 $3 $-1 $27 forward single #
loop $-1 $-1 $28 $10 #
plane-surface $-1 -0.0346 0.028 0 0 1 0 0 0 1 0 #
loop $-1 $-1 $29 $6 #
coedge $-1 $20 $20 $21 $30 0 $11 $-1 #
coedge $-1 $21 $21 $20 $30 1 $13 $-1 #
coedge $-1 $22 $22 $14 $23 1 $31 $-1 #
edge $-1 $32 $32 $22 $33 1 #
pid_name-sg-attrib $-1 $-1 $-1 $16 7 114 119 105 108 115 111 110 784252905 97 1 #
face $34 $-1 $35 $3 $-1 $36 reversed single #
loop $-1 $31 $37 $16 #
cone-surface $-1 -0.0346 0.332572577191599 0 0 1 0 0.176326980708465 0 0 1 0.17364817766693 0.984807753012208 0 #
coedge $-1 $28 $28 $29 $38 1 $17 $-1 #
coedge $-1 $29 $29 $28 $38 0 $19 $-1 #
edge $-1 $39 $39 $21 $40 1 #
loop $-1 $-1 $22 $16 #
vertex $-1 $23 $41 #
ellipse-curve $-1 -0.0346 -0.312405180900332 0 0 -1 0 0.0626 0 0 1 #
pid_name-sg-attrib $-1 $-1 $-1 $25 7 114 119 105 108 115 111 110 784252905 98 1 #
loop $-1 $-1 $42 $25 #
plane-surface $-1 -0.0346 -0.347 0 0 1 0 0 0 1 0 #
coedge $-1 $37 $37 $42 $43 0 $26 $-1 #
edge $-1 $44 $44 $28 $45 0 #
vertex $-1 $30 $46 #
ellipse-curve $-1 -0.0346 0 0 0 -1 0 0.0626 0 0 1 #
point $-1 -0.0972 -0.312405180900332 7.66628896266243e-18 #
coedge $-1 $42 $42 $37 $43 1 $35 $-1 #
edge $-1 $47 $47 $42 $48 1 #
vertex $-1 $38 $49 #
ellipse-curve $-1 -0.0346 0.028 0 7.01911233054199e-16 -1 0 0.0346 2.42861286636753e-17 0 1 #
point $-1 0.028 0 0 #
vertex $-1 $43 $50 #
ellipse-curve $-1 -0.0346 -0.347 0 0 -1 0 0.0565 0 0 1 #
point $-1 -6.93889390390723e-18 0.028 0 #
point $-1 0.0219 -0.347 0 #
