600 0 2 0           
24 FBMach with ACIS - 6.0.3 13 ACIS 6.0.3 NT 24 Wed May 23 19:35:44 2001 
1 9.9999999999999995e-007 1e-010 
body $2 $3 $-1 $4 #
bdycol-kcp $-1 1 3 $5 $6 $7 #
model_id-kcp-attrib $-1 $-1 $-1 $0 1 990660944 80 -800063487 1 #
lump $-1 $-1 $8 $0 #
transform $-1 1 0 0 0 1 0 0 0 1 0 0 0 1 no_rotate no_reflect no_shear #
body $9 $10 $-1 $11 #
body $12 $13 $-1 $14 #
body $15 $16 $-1 $17 #
shell $-1 $-1 $-1 $18 $-1 $3 #
model_id-kcp-attrib $-1 $-1 $-1 $5 1 990660944 80 -800063486 1 #
lump $-1 $-1 $19 $5 #
transform $-1 1 0 0 0 1 0 0 0 1 -0.034600000000000006 -0.15949999999999998 0 1 no_rotate no_reflect no_shear #
rgb_color-st-attrib $-1 $20 $-1 $6 1 1 0.5 #
lump $-1 $-1 $21 $6 #
transform $-1 1 0 0 0 0 1 0 -1 0 -0.034599999999999999 -0.32970259045016598 0 1 rotate no_reflect no_shear #
rgb_color-st-attrib $-1 $22 $-1 $7 0.5 1 1 #
lump $-1 $-1 $23 $7 #
transform $-1 1 0 0 0 1 0 0 0 1 -0.034600000000000006 -0.15949999999999998 0 1 no_rotate no_reflect no_shear #
face $24 $25 $26 $8 $-1 $27 forward single #
shell $-1 $-1 $-1 $28 $-1 $10 #
model_id-kcp-attrib $-1 $-1 $12 $6 1 990660944 90 -799408125 1 #
shell $-1 $-1 $-1 $29 $-1 $13 #
model_id-kcp-attrib $-1 $-1 $15 $7 1 990660944 180 -793509884 1 #
shell $-1 $-1 $-1 $30 $-1 $16 #
model_id-kcp-attrib $-1 $31 $-1 $18 1 990660944 80 -800063487 2 #
face $32 $33 $34 $8 $-1 $35 forward single #
loop $-1 $36 $37 $18 #
cone-surface $-1 -0.034599999999999999 -0.36575000000000002 0 0 1 0 0.062600000000000003 0 0 1 I I 0 1 0.062600000000000003 forward I I I I #
face $-1 $38 $39 $19 $-1 $40 forward single #
face $-1 $41 $42 $21 $-1 $43 reversed single #
face $-1 $44 $45 $23 $-1 $46 reversed single #
pid_name-sg-attrib $-1 $-1 $24 $18 7 114 119 105 108 115 111 110 784252905 94 1 #
model_id-kcp-attrib $-1 $47 $-1 $25 1 990660944 80 -800063487 3 #
face $48 $49 $50 $8 $-1 $51 forward single #
loop $-1 $52 $53 $25 #
torus-surface $-1 -0.034599999999999999 0 0 0 1 0 0.034599999999999999 0.028000000000000001 0 0 1 forward_v I I I I #
loop $-1 $-1 $54 $18 #
coedge $-1 $37 $37 $55 $56 forward $26 $-1 #
face $-1 $57 $58 $19 $-1 $59 reversed single #
loop $-1 $-1 $60 $28 #
plane-surface $-1 0 0 0.062600000000000003 0 0 1 1 0 0 forward_v I I I I #
face $-1 $61 $62 $21 $-1 $63 forward single #
loop $-1 $64 $65 $29 #
cone-surface $-1 0 0 0.1602137114042016 0 0 1 0.031300000000000001 0 0 1 I I -0.17364817766692917 0.98480775301220835 0.031300000000000001 forward I I I I #
face $-1 $66 $67 $23 $-1 $46 reversed single #
loop $-1 $-1 $68 $30 #
cone-surface $-1 6.9388939039072284e-018 0.18749999999999997 0 0 1 0 -0.062600000000000003 0 7.6660357749280814e-018 1 I I 0 1 0.062600000000000003 forward I I I I #
pid_name-sg-attrib $-1 $-1 $32 $25 7 114 119 105 108 115 111 110 784252905 95 1 #
model_id-kcp-attrib $-1 $69 $-1 $33 1 990660944 80 -800063487 8 #
face $70 $71 $72 $8 $-1 $73 forward single #
loop $-1 $-1 $74 $33 #
plane-surface $-1 -0.034599999999999999 0.028000000000000001 0 0 1 0 0 0 1 forward_v I I I I #
loop $-1 $-1 $75 $25 #
coedge $-1 $53 $53 $54 $76 forward $34 $-1 #
coedge $-1 $54 $54 $53 $76 reversed $36 $-1 #
coedge $-1 $55 $55 $37 $56 reversed $77 $-1 #
edge $78 $79 -3.1415926535897931 $79 3.1415926535897931 $55 $80 reversed 7 unknown #
face $81 $82 $83 $19 $-1 $84 reversed single #
loop $-1 $-1 $85 $38 #
plane-surface $-1 0 0 -0.062600000000000003 0 0 1 1 0 0 forward_v I I I I #
coedge $-1 $86 $87 $88 $89 forward $39 $-1 #
face $-1 $-1 $90 $21 $-1 $91 forward single #
loop $-1 $92 $93 $41 #
cone-surface $-1 0 0 0 0 0 1 0.062600000000000003 0 0 1 I I 0 1 0.062600000000000003 forward I I I I #
loop $-1 $-1 $94 $29 #
coedge $-1 $65 $65 $95 $96 reversed $42 $-1 #
face $-1 $97 $98 $23 $-1 $46 reversed single #
loop $-1 $-1 $99 $44 #
coedge $-1 $100 $101 $102 $103 reversed $45 $-1 #
model_id-kcp-attrib $-1 $104 $48 $33 1 990660944 80 -800063487 4 #
model_id-kcp-attrib $-1 $105 $-1 $49 1 990660944 80 -800063487 5 #
face $106 $-1 $107 $8 $-1 $108 reversed single #
loop $-1 $77 $109 $49 #
cone-surface $-1 -0.034599999999999999 0.33257257719159899 0 0 1 0 0.176326980708465 0 0 1 I I 0.17364817766693 0.98480775301220802 0.176326980708465 forward I I I I #
coedge $-1 $74 $74 $75 $110 reversed $50 $-1 #
coedge $-1 $75 $75 $74 $110 forward $52 $-1 #
edge $-1 $111 -6.2831853071795862 $111 0 $54 $112 reversed 7 unknown #
loop $-1 $-1 $55 $49 #
attrib_edge_convexity-kcp-attrib $-1 $113 $-1 $56 1 #
vertex $-1 $56 $114 #
ellipse-curve $-1 -0.034599999999999999 -0.31240518090033198 0 0 -1 0 0.062600000000000003 0 0 1 I I #
model_id-kcp-attrib $-1 $-1 $-1 $57 1 990660944 80 -800063486 3 #
face $-1 $115 $116 $19 $-1 $117 reversed single #
loop $-1 $-1 $118 $57 #
plane-surface $-1 0 -0.1875 0 0 1 0 0 0 1 forward_v I I I I #
coedge $-1 $119 $120 $121 $122 forward $58 $-1 #
coedge $-1 $123 $60 $124 $125 forward $39 $-1 #
coedge $-1 $60 $123 $126 $127 forward $39 $-1 #
coedge $-1 $128 $129 $60 $89 reversed $130 $-1 #
edge $-1 $131 -0.1875 $132 0.1875 $88 $133 forward 7 unknown #
loop $-1 $134 $95 $61 #
plane-surface $-1 0 0 0.017297409549833997 0 0 1 1 0 0 forward_v I I I I #
loop $-1 $-1 $135 $41 #
coedge $-1 $93 $93 $94 $136 reversed $62 $-1 #
coedge $-1 $94 $94 $93 $136 forward $64 $-1 #
coedge $-1 $95 $95 $65 $96 forward $90 $-1 #
edge $-1 $137 -3.1415926535897931 $137 3.1415926535897931 $95 $138 forward 7 unknown #
face $-1 $139 $140 $23 $-1 $46 reversed single #
loop $-1 $-1 $141 $66 #
coedge $-1 $142 $143 $144 $145 reversed $67 $-1 #
coedge $-1 $146 $68 $147 $148 forward $45 $-1 #
coedge $-1 $68 $146 $149 $150 reversed $45 $-1 #
coedge $-1 $151 $152 $68 $103 forward $153 $-1 #
edge $-1 $154 -1.224606353822377e-016 $155 1.5707963267948966 $102 $156 forward 7 unknown #
pid_name-sg-attrib $-1 $-1 $69 $33 7 114 119 105 108 115 111 110 784252905 96 1 #
pid_name-sg-attrib $-1 $-1 $70 $49 7 114 119 105 108 115 111 110 784252905 97 1 #
model_id-kcp-attrib $-1 $157 $-1 $71 1 990660944 80 -800063487 7 #
loop $-1 $-1 $158 $71 #
plane-surface $-1 -0.034599999999999999 -0.34699999999999998 0 0 1 0 0 0 1 forward_v I I I I #
coedge $-1 $109 $109 $158 $159 forward $72 $-1 #
edge $160 $161 0 $161 6.2831853071795862 $74 $162 forward 7 unknown #
vertex $-1 $76 $163 #
ellipse-curve $-1 -0.034599999999999999 0 0 0 -1 0 0.062600000000000003 0 0 1 I I #
convexity-sys-attrib $-1 $-1 $78 $56 #
point $-1 -0.097199999999999995 -0.31240518090033198 7.6662889626624304e-018 #
face $164 $165 $166 $19 $-1 $167 reversed single #
loop $-1 $-1 $168 $82 #
plane-surface $-1 -0.062600000000000003 0 0 1 0 0 0 0 -1 forward_v I I I I #
coedge $-1 $169 $126 $170 $171 forward $83 $-1 #
coedge $-1 $172 $85 $169 $173 forward $58 $-1 #
coedge $-1 $85 $172 $174 $175 forward $58 $-1 #
coedge $-1 $129 $128 $85 $122 reversed $130 $-1 #
edge $-1 $176 -0.1875 $177 0.1875 $121 $178 forward 7 unknown #
coedge $-1 $87 $86 $179 $180 forward $39 $-1 #
coedge $-1 $181 $182 $86 $125 reversed $166 $-1 #
edge $-1 $132 -0.062600000000000003 $183 0.062600000000000003 $124 $184 forward 7 unknown #
coedge $-1 $118 $185 $87 $127 reversed $83 $-1 #
edge $-1 $186 -0.062600000000000003 $131 0.062600000000000003 $126 $187 forward 7 unknown #
coedge $-1 $121 $88 $185 $188 forward $130 $-1 #
coedge $-1 $88 $121 $181 $189 reversed $130 $-1 #
loop $-1 $-1 $128 $165 #
vertex $-1 $89 $190 #
vertex $-1 $89 $191 #
straight-curve $-1 0.062600000000000003 0 0.062600000000000003 0 1 0 I I #
loop $-1 $-1 $192 $61 #
coedge $-1 $135 $135 $192 $193 reversed $92 $-1 #
edge $-1 $194 0 $194 6.2831853071795862 $93 $195 forward 7 unknown #
vertex $-1 $96 $196 #
ellipse-curve $-1 0 0 0.017297409549833997 0 0 -1 0.056500000000000057 0 0 1 I I #
face $-1 $197 $198 $23 $-1 $199 forward single #
loop $-1 $-1 $200 $97 #
coedge $-1 $201 $202 $200 $203 forward $98 $-1 #
coedge $-1 $204 $99 $205 $206 reversed $67 $-1 #
coedge $-1 $99 $204 $101 $150 forward $67 $-1 #
coedge $-1 $207 $208 $99 $145 forward $209 $-1 #
edge $-1 $210 -3.1415926535897931 $211 -1.5707963267948966 $144 $212 forward 7 unknown #
coedge $-1 $101 $100 $213 $214 reversed $45 $-1 #
coedge $-1 $202 $201 $215 $148 reversed $98 $-1 #
edge $-1 $154 -0.375 $216 2.7755575615628914e-017 $215 $217 forward 7 unknown #
coedge $-1 $218 $219 $220 $150 forward $221 $-1 #
edge $-1 $155 -0.375 $211 2.7755575615628914e-017 $149 $222 forward 7 unknown #
coedge $-1 $152 $102 $219 $223 reversed $153 $-1 #
coedge $-1 $102 $151 $224 $225 forward $153 $-1 #
loop $-1 $-1 $102 $226 #
vertex $-1 $227 $228 #
vertex $-1 $229 $230 #
ellipse-curve $-1 6.9388939039072284e-018 -0.18750000000000003 0 0 1 0 -0.062600000000000003 0 7.6660357749280814e-018 1 I I #
model_id-kcp-attrib $-1 $231 $106 $71 1 990660944 80 -800063487 6 #
coedge $-1 $158 $158 $109 $159 reversed $107 $-1 #
edge $232 $233 -6.2831853071795862 $233 0 $158 $234 reversed 7 unknown #
attrib_edge_convexity-kcp-attrib $-1 $235 $-1 $110 3 #
vertex $-1 $110 $236 #
ellipse-curve $-1 -0.034599999999999999 0.028000000000000001 0 7.0191123305419902e-016 -1 0 0.034599999999999999 2.4286128663675299e-017 0 1 I I #
point $-1 0.028000000000000001 0 0 #
model_id-kcp-attrib $-1 $-1 $-1 $115 1 990660944 80 -800063486 2 #
face $-1 $-1 $130 $19 $-1 $237 reversed single #
loop $-1 $-1 $181 $115 #
plane-surface $-1 0 0.1875 0 0 -1 0 0 0 -1 forward_v I I I I #
coedge $-1 $238 $179 $182 $239 forward $116 $-1 #
coedge $-1 $185 $118 $119 $173 reversed $83 $-1 #
coedge $-1 $179 $238 $118 $171 reversed $116 $-1 #
edge $-1 $186 -0.062600000000000003 $240 0.062600000000000003 $170 $241 forward 7 unknown #
coedge $-1 $120 $119 $238 $242 forward $58 $-1 #
edge $-1 $177 -0.062600000000000003 $240 0.062600000000000003 $169 $243 forward 7 unknown #
coedge $-1 $182 $181 $120 $175 reversed $166 $-1 #
edge $-1 $244 -0.062600000000000003 $176 0.062600000000000003 $174 $245 forward 7 unknown #
vertex $-1 $122 $246 #
vertex $-1 $188 $247 #
straight-curve $-1 0.062600000000000003 0 -0.062600000000000003 0 -1 0 I I #
coedge $-1 $168 $170 $123 $180 reversed $116 $-1 #
edge $-1 $183 -0.1875 $186 0.1875 $179 $248 forward 7 unknown #
coedge $-1 $174 $124 $129 $189 forward $166 $-1 #
coedge $-1 $124 $174 $168 $239 reversed $166 $-1 #
vertex $-1 $125 $249 #
straight-curve $-1 0 0.1875 0.062600000000000003 -1 0 0 I I #
coedge $-1 $126 $169 $128 $188 reversed $83 $-1 #
vertex $-1 $180 $250 #
straight-curve $-1 0 -0.1875 0.062600000000000003 1 0 0 I I #
edge $-1 $131 -0.062600000000000003 $177 0.062600000000000003 $128 $251 forward 7 unknown #
edge $-1 $132 -0.062600000000000003 $176 0.062600000000000003 $129 $252 forward 7 unknown #
point $-1 0.062600000000000003 -0.1875 0.062600000000000003 #
point $-1 0.062600000000000003 0.1875 0.062600000000000003 #
coedge $-1 $192 $192 $135 $193 forward $134 $-1 #
edge $-1 $253 0 $253 6.2831853071795862 $192 $254 forward 7 unknown #
vertex $-1 $136 $255 #
ellipse-curve $-1 0 0 -0.017297409549833997 0 0 -1 0.062600000000000003 0 0 1 I I #
point $-1 -0.056500000000000057 6.9190258990964383e-018 0.017297409549833997 #
face $-1 $256 $257 $23 $-1 $258 reversed single #
loop $-1 $-1 $220 $139 #
plane-surface $-1 0 0 0.062600000000000003 0 0 1 1 0 0 forward_v I I I I #
coedge $-1 $259 $260 $261 $203 reversed $140 $-1 #
coedge $-1 $147 $141 $262 $263 reversed $98 $-1 #
coedge $-1 $141 $147 $264 $265 reversed $98 $-1 #
edge $-1 $266 -0.375 $267 2.7755575615628914e-017 $261 $268 forward 7 unknown #
coedge $-1 $143 $142 $269 $270 reversed $67 $-1 #
coedge $-1 $271 $272 $273 $206 forward $274 $-1 #
edge $-1 $275 -0.375 $210 2.7755575615628914e-017 $205 $276 forward 7 unknown #
coedge $-1 $208 $144 $277 $278 reversed $209 $-1 #
coedge $-1 $144 $207 $271 $279 forward $209 $-1 #
loop $-1 $-1 $144 $280 #
vertex $-1 $281 $282 #
vertex $-1 $283 $284 #
ellipse-curve $-1 6.9388939039072284e-018 0.1875 0 0 -1 0 -0.062600000000000003 0 7.6660357749280814e-018 1 I I #
coedge $-1 $285 $286 $146 $214 forward $287 $-1 #
edge $-1 $211 -1.5707963267948966 $216 1.224606353822377e-016 $213 $212 forward 7 unknown #
coedge $-1 $288 $289 $290 $148 forward $257 $-1 #
vertex $-1 $291 $292 #
straight-curve $-1 -0.062600000000000017 0.18749999999999997 0 0 1 0 I I #
coedge $-1 $293 $149 $286 $283 forward $221 $-1 #
coedge $-1 $149 $293 $151 $223 forward $221 $-1 #
coedge $-1 $294 $277 $143 $150 reversed $198 $-1 #
loop $-1 $-1 $149 $295 #
straight-curve $-1 6.9388939039072284e-018 0.18749999999999997 0.062600000000000003 0 1 0 I I #
edge $-1 $296 -0.062600000000000003 $155 6.9388939039072284e-018 $151 $297 forward 7 unknown #
coedge $-1 $298 $290 $152 $225 reversed $299 $-1 #
edge $-1 $296 -0.062600000000000003 $154 0 $224 $300 forward 7 unknown #
face $-1 $301 $153 $23 $-1 $302 reversed single #
edge $-1 $154 0 $303 0.062600000000000003 $289 $300 forward 7 unknown #
point $-1 -0.062600000000000017 -0.1875 0 #
edge $-1 $155 6.9388939039072284e-018 $304 0.062600000000000003 $305 $297 forward 7 unknown #
point $-1 6.9388939039072284e-018 -0.1875 0.062600000000000003 #
pid_name-sg-attrib $-1 $-1 $157 $71 7 114 119 105 108 115 111 110 784252905 98 1 #
attrib_edge_convexity-kcp-attrib $-1 $306 $-1 $159 1 #
vertex $-1 $159 $307 #
ellipse-curve $-1 -0.034599999999999999 -0.34699999999999998 0 0 -1 0 0.056500000000000002 0 0 1 I I #
convexity-sys-attrib $-1 $-1 $160 $110 #
point $-1 -6.9388939039072299e-018 0.028000000000000001 0 #
plane-surface $-1 0.062600000000000003 0 0 -1 0 0 0 0 1 forward_v I I I I #
coedge $-1 $170 $168 $172 $242 reversed $116 $-1 #
edge $-1 $183 -0.062600000000000003 $244 0.062600000000000003 $182 $308 forward 7 unknown #
vertex $-1 $242 $309 #
straight-curve $-1 -0.062600000000000003 -0.1875 0 0 0 -1 I I #
edge $-1 $240 -0.1875 $244 0.1875 $238 $310 forward 7 unknown #
straight-curve $-1 0 -0.1875 -0.062600000000000003 -1 0 0 I I #
vertex $-1 $175 $311 #
straight-curve $-1 0 0.1875 -0.062600000000000003 1 0 0 I I #
point $-1 0.062600000000000003 0.1875 -0.062600000000000003 #
point $-1 0.062600000000000003 -0.1875 -0.062600000000000003 #
straight-curve $-1 -0.062600000000000003 0 0.062600000000000003 0 -1 0 I I #
point $-1 -0.062600000000000003 0.1875 0.062600000000000003 #
point $-1 -0.062600000000000003 -0.1875 0.062600000000000003 #
straight-curve $-1 0.062600000000000003 -0.1875 0 0 0 -1 I I #
straight-curve $-1 0.062600000000000003 0.1875 0 0 0 -1 I I #
vertex $-1 $193 $312 #
ellipse-curve $-1 0 0 0.017297409549833997 0 0 1 0.062600000000000003 0 0 1 I I #
point $-1 0.062600000000000003 0 -0.017297409549833997 #
face $-1 $313 $314 $23 $-1 $315 reversed single #
loop $-1 $-1 $215 $197 #
plane-surface $-1 -0.062600000000000003 0 0 1 0 0 0 0 -1 forward_v I I I I #
coedge $-1 $316 $200 $317 $318 reversed $140 $-1 #
coedge $-1 $200 $316 $319 $320 reversed $140 $-1 #
coedge $-1 $321 $322 $323 $203 forward $324 $-1 #
coedge $-1 $325 $326 $201 $263 forward $327 $-1 #
edge $-1 $216 1.224606353822377e-016 $267 1.5707963267948968 $262 $212 forward 7 unknown #
coedge $-1 $328 $329 $202 $265 forward $330 $-1 #
edge $-1 $266 -1.5707963267948968 $154 -1.224606353822377e-016 $264 $156 forward 7 unknown #
vertex $-1 $331 $332 #
vertex $-1 $333 $334 #
straight-curve $-1 6.9388939039072284e-018 0.18749999999999997 -0.062600000000000003 0 1 0 I I #
coedge $-1 $335 $305 $204 $270 forward $336 $-1 #
edge $-1 $155 1.5707963267948966 $275 3.1415926535897931 $269 $156 forward 7 unknown #
coedge $-1 $337 $205 $208 $279 reversed $274 $-1 #
coedge $-1 $205 $337 $335 $338 forward $274 $-1 #
coedge $-1 $339 $340 $316 $206 reversed $314 $-1 #
loop $-1 $-1 $205 $341 #
vertex $-1 $342 $343 #
straight-curve $-1 0.062599999999999989 0.18749999999999997 0 0 1 0 I I #
coedge $-1 $220 $344 $207 $278 forward $198 $-1 #
edge $-1 $345 -0.062600000000000003 $211 -6.9388939039072284e-018 $207 $346 forward 7 unknown #
edge $-1 $345 -0.062600000000000003 $210 0 $271 $347 forward 7 unknown #
face $-1 $348 $209 $23 $-1 $349 reversed single #
edge $-1 $210 0 $350 0.062600000000000003 $340 $347 forward 7 unknown #
point $-1 0.062599999999999989 0.1875 0 #
edge $-1 $211 -6.9388939039072284e-018 $351 0.062600000000000003 $286 $346 forward 7 unknown #
point $-1 6.9388939039072284e-018 0.1875 0.062600000000000003 #
coedge $-1 $286 $213 $352 $353 reversed $287 $-1 #
coedge $-1 $213 $285 $218 $283 reversed $287 $-1 #
loop $-1 $-1 $213 $348 #
coedge $-1 $354 $215 $326 $291 forward $257 $-1 #
coedge $-1 $215 $354 $328 $227 reversed $257 $-1 #
coedge $-1 $224 $352 $100 $148 reversed $299 $-1 #
edge $-1 $216 0 $355 0.062600000000000003 $326 $356 forward 7 unknown #
point $-1 -0.062600000000000017 0.1875 0 #
coedge $-1 $219 $218 $298 $357 forward $221 $-1 #
coedge $-1 $344 $220 $305 $229 forward $198 $-1 #
face $-1 $358 $221 $23 $-1 $199 forward single #
vertex $-1 $357 $359 #
straight-curve $-1 0 -0.1875 0.062600000000000003 1 0 0 I I #
coedge $-1 $352 $224 $293 $357 reversed $299 $-1 #
loop $-1 $-1 $290 $360 #
straight-curve $-1 -0.062600000000000003 -0.1875 0 0 0 -1 I I #
face $-1 $361 $336 $23 $-1 $302 reversed single #
plane-surface $-1 0 -0.1875 0 0 1 0 0 0 1 forward_v I I I I #
vertex $-1 $362 $363 #
vertex $-1 $364 $365 #
coedge $-1 $269 $335 $294 $229 reversed $336 $-1 #
convexity-sys-attrib $-1 $-1 $232 $159 #
point $-1 0.021899999999999999 -0.34699999999999998 0 #
straight-curve $-1 -0.062600000000000003 0.1875 0 0 0 -1 I I #
point $-1 -0.062600000000000003 -0.1875 -0.062600000000000003 #
straight-curve $-1 -0.062600000000000003 0 -0.062600000000000003 0 1 0 I I #
point $-1 -0.062600000000000003 0.1875 -0.062600000000000003 #
point $-1 0.062600000000000003 0 0.017297409549833997 #
face $-1 $280 $366 $23 $-1 $349 reversed single #
loop $-1 $-1 $273 $256 #
plane-surface $-1 0.062600000000000003 0 0 -1 0 0 0 0 1 forward_v I I I I #
coedge $-1 $260 $259 $142 $206 forward $140 $-1 #
coedge $-1 $367 $368 $259 $318 forward $369 $-1 #
edge $-1 $275 -3.1415926535897931 $266 -1.5707963267948968 $317 $156 forward 7 unknown #
coedge $-1 $370 $371 $260 $320 forward $366 $-1 #
edge $-1 $267 1.5707963267948968 $210 3.1415926535897931 $319 $212 forward 7 unknown #
coedge $-1 $372 $261 $371 $333 forward $324 $-1 #
coedge $-1 $261 $372 $367 $373 forward $324 $-1 #
coedge $-1 $374 $375 $141 $203 reversed $376 $-1 #
loop $-1 $-1 $261 $358 #
coedge $-1 $326 $262 $375 $377 reversed $327 $-1 #
coedge $-1 $262 $325 $288 $291 reversed $327 $-1 #
loop $-1 $-1 $262 $378 #
coedge $-1 $329 $264 $289 $227 forward $330 $-1 #
coedge $-1 $264 $328 $374 $331 reversed $330 $-1 #
loop $-1 $-1 $264 $379 #
edge $-1 $266 -6.9388939039072284e-018 $303 0.062600000000000003 $329 $380 forward 7 unknown #
point $-1 6.9388939039072284e-018 -0.1875 -0.062600000000000003 #
edge $-1 $267 6.9388939039072284e-018 $350 0.062600000000000003 $371 $381 forward 7 unknown #
point $-1 6.9388939039072284e-018 0.1875 -0.062600000000000003 #
coedge $-1 $305 $269 $272 $338 reversed $336 $-1 #
loop $-1 $-1 $269 $301 #
coedge $-1 $272 $271 $344 $364 reversed $274 $-1 #
edge $-1 $304 -0.062600000000000003 $275 0 $272 $382 forward 7 unknown #
coedge $-1 $383 $273 $368 $342 forward $314 $-1 #
coedge $-1 $273 $383 $370 $281 reversed $314 $-1 #
face $-1 $-1 $274 $23 $-1 $315 reversed single #
edge $-1 $275 0 $384 0.062600000000000003 $339 $382 forward 7 unknown #
point $-1 0.062599999999999989 -0.1875 0 #
coedge $-1 $277 $294 $337 $364 forward $198 $-1 #
vertex $-1 $364 $385 #
straight-curve $-1 0 0.1875 0.062600000000000003 -1 0 0 I I #
straight-curve $-1 0.062600000000000003 0.1875 0 0 0 -1 I I #
face $-1 $378 $287 $23 $-1 $349 reversed single #
plane-surface $-1 0 0.1875 0 0 -1 0 0 0 -1 forward_v I I I I #
vertex $-1 $386 $387 #
vertex $-1 $283 $388 #
coedge $-1 $290 $298 $285 $353 forward $299 $-1 #
edge $-1 $351 -0.062600000000000003 $216 0 $285 $356 forward 7 unknown #
coedge $-1 $289 $288 $389 $362 reversed $257 $-1 #
vertex $-1 $377 $390 #
straight-curve $-1 -0.062600000000000003 0.1875 0 0 0 -1 I I #
edge $-1 $351 -0.1875 $296 0.1875 $298 $391 forward 7 unknown #
face $-1 $360 $324 $23 $-1 $392 reversed single #
point $-1 -0.062600000000000003 -0.1875 0.062600000000000003 #
face $-1 $341 $299 $23 $-1 $258 reversed single #
face $-1 $393 $369 $23 $-1 $302 reversed single #
edge $-1 $303 -0.1875 $355 0.1875 $354 $394 forward 7 unknown #
point $-1 -0.062600000000000003 -0.1875 -0.062600000000000003 #
edge $-1 $304 -0.1875 $345 0.1875 $337 $395 forward 7 unknown #
point $-1 0.062600000000000003 -0.1875 0.062600000000000003 #
loop $-1 $-1 $319 $313 #
coedge $-1 $368 $317 $322 $373 reversed $369 $-1 #
coedge $-1 $317 $367 $339 $342 reversed $369 $-1 #
loop $-1 $-1 $317 $361 #
coedge $-1 $371 $319 $340 $281 forward $366 $-1 #
coedge $-1 $319 $370 $321 $333 reversed $366 $-1 #
coedge $-1 $322 $321 $383 $386 forward $324 $-1 #
edge $-1 $384 -0.062600000000000003 $266 -6.9388939039072284e-018 $367 $380 forward 7 unknown #
coedge $-1 $389 $323 $329 $331 forward $376 $-1 #
coedge $-1 $323 $389 $325 $377 forward $376 $-1 #
loop $-1 $-1 $323 $393 #
edge $-1 $355 -0.062600000000000003 $267 6.9388939039072284e-018 $325 $381 forward 7 unknown #
face $-1 $379 $327 $23 $-1 $349 reversed single #
face $-1 $226 $330 $23 $-1 $302 reversed single #
straight-curve $-1 0 -0.1875 -0.062600000000000003 -1 0 0 I I #
straight-curve $-1 0 0.1875 -0.062600000000000003 1 0 0 I I #
straight-curve $-1 0.062600000000000003 -0.1875 0 0 0 -1 I I #
coedge $-1 $340 $339 $372 $386 reversed $314 $-1 #
vertex $-1 $342 $396 #
point $-1 0.062600000000000003 0.1875 0.062600000000000003 #
edge $-1 $350 -0.1875 $384 0.1875 $383 $397 forward 7 unknown #
point $-1 0.062600000000000003 0.1875 -0.062600000000000003 #
point $-1 -0.062600000000000003 0.1875 0.062600000000000003 #
coedge $-1 $375 $374 $354 $362 forward $376 $-1 #
point $-1 -0.062600000000000003 0.1875 -0.062600000000000003 #
straight-curve $-1 -0.062600000000000003 0 0.062600000000000003 0 -1 0 I I #
plane-surface $-1 0 0 -0.062600000000000003 0 0 1 1 0 0 forward_v I I I I #
face $-1 $295 $376 $23 $-1 $392 reversed single #
straight-curve $-1 -0.062600000000000003 0 -0.062600000000000003 0 1 0 I I #
straight-curve $-1 0.062600000000000003 0 0.062600000000000003 0 1 0 I I #
point $-1 0.062600000000000003 -0.1875 -0.062600000000000003 #
straight-curve $-1 0.062600000000000003 0 -0.062600000000000003 0 -1 0 I I #
End-of-ACIS-data 