600 0 1 0           
117 GICL ACIS Healer - Source: /gicl/data5/repository/Sandia/Randy_Wilson/discriminator/ms16555-625/ms16555-625.sat - 6 0 18 ACIS 6.0.3 Solaris 24 Sat Apr 13 23:38:12 2002 
1 9.999999999999999547e-07 1.000000000000000036e-10 
body $-1 $1 $-1 $2 #
lump $-1 $-1 $3 $0 #
transform $-1 1 0 0 0 1 0 0 0 1 0 0 0 1 no_rotate no_reflect no_shear #
shell $-1 $-1 $-1 $4 $-1 $1 #
face $5 $6 $7 $3 $-1 $8 forward single #
pid_name-sg-attrib $-1 $-1 $-1 $4 7 rwilson 784252905 94 1 #
face $9 $10 $11 $3 $-1 $12 forward single #
loop $-1 $13 $14 $4 #
cone-surface $-1 -0.03459999999999999881 -0.3657500000000000195 0 0 1 0 0.06260000000000000286 0 0 1 I I 0 1 0.06260000000000000286 forward I I I I #
pid_name-sg-attrib $-1 $-1 $-1 $6 7 rwilson 784252905 95 1 #
face $15 $16 $17 $3 $-1 $18 forward single #
loop $-1 $19 $20 $6 #
torus-surface $-1 -0.03459999999999999881 0 0 0 1 0 0.03459999999999999881 0.02800000000000000058 0 0 1 forward_v I I I I #
loop $-1 $-1 $21 $4 #
coedge $-1 $14 $14 $22 $23 forward $7 $-1 #
pid_name-sg-attrib $-1 $-1 $-1 $10 7 rwilson 784252905 96 1 #
face $24 $25 $26 $3 $-1 $27 forward single #
loop $-1 $-1 $28 $10 #
plane-surface $-1 -0.03459999999999999881 0.02800000000000000058 0 0 1 0 0 0 1 forward_v I I I I #
loop $-1 $-1 $29 $6 #
coedge $-1 $20 $20 $21 $30 forward $11 $-1 #
coedge $-1 $21 $21 $20 $30 reversed $13 $-1 #
coedge $-1 $22 $22 $14 $23 reversed $31 $-1 #
edge $-1 $32 -3.141592653589793116 $32 3.141592653589793116 $22 $33 reversed 7 unknown #
pid_name-sg-attrib $-1 $-1 $-1 $16 7 rwilson 784252905 97 1 #
face $34 $-1 $35 $3 $-1 $36 reversed single #
loop $-1 $31 $37 $16 #
cone-surface $-1 -0.03459999999999999881 0.3325725771915989948 0 0 1 0 0.1763269807084650032 0 0 1 I I 0.1736481776669299981 0.9848077530122080203 0.1763269807084650032 forward I I I I #
coedge $-1 $28 $28 $29 $38 reversed $17 $-1 #
coedge $-1 $29 $29 $28 $38 forward $19 $-1 #
edge $-1 $39 -6.283185307179586232 $39 -0 $21 $40 reversed 7 unknown #
loop $-1 $-1 $22 $16 #
vertex $-1 $23 $41 #
ellipse-curve $-1 -0.03459999999999999881 -0.3124051809003319802 0 0 -1 0 0.06260000000000000286 0 0 1 I I #
pid_name-sg-attrib $-1 $-1 $-1 $25 7 rwilson 784252905 98 1 #
loop $-1 $-1 $42 $25 #
plane-surface $-1 -0.03459999999999999881 -0.3469999999999999751 0 0 1 0 0 0 1 forward_v I I I I #
coedge $-1 $37 $37 $42 $43 forward $26 $-1 #
edge $-1 $44 0 $44 6.283185307179586232 $28 $45 forward 7 unknown #
vertex $-1 $30 $46 #
ellipse-curve $-1 -0.03459999999999999881 0 0 0 -1 0 0.06260000000000000286 0 0 1 I I #
point $-1 -0.09719999999999999474 -0.3124051809003319802 7.666288962662430433e-18 #
coedge $-1 $42 $42 $37 $43 reversed $35 $-1 #
edge $-1 $47 -6.283185307179586232 $47 -0 $42 $48 reversed 7 unknown #
vertex $-1 $38 $49 #
ellipse-curve $-1 -0.03459999999999999881 0.02800000000000000058 0 7.019112330541990193e-16 -1 0 0.03459999999999999881 2.428612866367529932e-17 0 1 I I #
point $-1 0.02800000000000000058 0 0 #
vertex $-1 $43 $50 #
ellipse-curve $-1 -0.03459999999999999881 -0.3469999999999999751 0 0 -1 0 0.05650000000000000161 0 0 1 I I #
point $-1 -6.938893903907229918e-18 0.02800000000000000058 0 #
point $-1 0.02189999999999999933 -0.3469999999999999751 0 #
End-of-ACIS-data 