600 0 1 0           
117 GICL ACIS Healer - Source: /gicl/data5/repository/ICEM-CDC/Fixture_Models/TNoseClampStrap3/TNoseClampStrap3.sat - 6 0 18 ACIS 6.0.3 Solaris 24 Sat Apr 13 23:06:16 2002 
1 9.999999999999999547e-07 1.000000000000000036e-10 
body $-1 $1 $-1 $2 #
lump $-1 $-1 $3 $0 #
transform $-1 1 0 0 0 1 0 0 0 1 0 0 0 1 no_rotate no_reflect no_shear #
shell $-1 $-1 $-1 $4 $-1 $1 #
face $5 $6 $7 $3 $-1 $8 reversed single #
face_name-twe-attrib $-1 $-1 $-1 $4 1 #
face $9 $10 $11 $3 $-1 $12 forward single #
loop $13 $-1 $14 $4 #
plane-surface $15 0 0 0 0 0 1 1 0 0 forward_v I I I I #
face_name-twe-attrib $-1 $-1 $-1 $6 2 #
face $16 $17 $18 $3 $-1 $19 forward single #
loop $20 $-1 $21 $6 #
plane-surface $22 0 0 0.625 0 0 1 1 0 0 forward_v I I I I #
loop_type-twe-attrib $-1 $-1 $-1 $7 0 #
coedge $-1 $23 $24 $25 $26 reversed $7 $-1 #
surf-twe-attrib $-1 $-1 $-1 $8 4 #
face_name-twe-attrib $-1 $-1 $-1 $10 3 #
face $27 $28 $29 $3 $-1 $30 forward single #
loop $31 $-1 $32 $10 #
torus-surface $33 1.511200000000000099 -0.3549999999999999822 0.6049999999999999822 0 0.7071067811865470176 0.7071067811865480168 0 0.02000000000000000042 1 0 0 forward_v I I I I #
loop_type-twe-attrib $-1 $-1 $-1 $11 0 #
coedge $-1 $34 $35 $36 $37 forward $11 $-1 #
surf-twe-attrib $-1 $-1 $-1 $12 6 #
coedge $-1 $38 $14 $39 $40 forward $7 $-1 #
coedge $-1 $14 $38 $41 $42 forward $7 $-1 #
coedge $-1 $43 $44 $14 $26 forward $45 $-1 #
edge $46 $47 -0.1010874999999999968 $48 0.2339124999999999677 $25 $49 reversed 7 unknown #
face_name-twe-attrib $-1 $-1 $-1 $17 4 #
face $50 $51 $52 $3 $-1 $53 forward single #
loop $54 $-1 $55 $17 #
torus-surface $56 1.511200000000000099 -0.02000000000000000042 0.6049999999999999822 -0.7071067811865470176 0 0.7071067811865480168 0 0.02000000000000000042 0.7071067811865480168 0 0.7071067811865470176 forward_v I I I I #
loop_type-twe-attrib $-1 $-1 $-1 $18 0 #
coedge $-1 $57 $58 $59 $60 forward $18 $-1 #
surf-twe-attrib $-1 $-1 $-1 $19 10 #
coedge $-1 $61 $21 $62 $63 reversed $11 $-1 #
coedge $-1 $21 $61 $64 $65 reversed $11 $-1 #
coedge $-1 $66 $67 $21 $37 reversed $68 $-1 #
edge $69 $70 -0.1010874999999999968 $71 0.2339124999999999677 $36 $72 reversed 7 unknown #
coedge $-1 $24 $23 $73 $74 forward $7 $-1 #
coedge $-1 $75 $76 $23 $40 reversed $77 $-1 #
edge $78 $47 -1.531199999999999894 $79 -0.01999999999999979572 $39 $80 forward 7 unknown #
coedge $-1 $81 $82 $24 $42 reversed $83 $-1 #
edge $84 $85 -1.511200000000000099 $48 -9.168013570537425494e-16 $41 $86 forward 7 unknown #
coedge $-1 $87 $25 $88 $89 reversed $45 $-1 #
coedge $-1 $25 $90 $75 $91 reversed $45 $-1 #
loop $92 $-1 $25 $93 #
edge_name-twe-attrib $-1 $-1 $-1 $26 1 8448 #
vertex $-1 $40 $94 #
vertex $-1 $89 $95 #
straight-curve $-1 -2.636779683484746784e-16 -0.1210875000000000007 0 0 1 -0 I I #
face_name-twe-attrib $-1 $-1 $-1 $28 5 #
face $96 $97 $98 $3 $-1 $99 forward single #
loop $100 $101 $102 $28 #
plane-surface $103 0 -0.375 0 0 -1 0 0 0 -1 forward_v I I I I #
loop_type-twe-attrib $-1 $-1 $-1 $29 0 #
coedge $-1 $104 $105 $106 $107 forward $29 $-1 #
surf-twe-attrib $-1 $-1 $-1 $30 17 #
coedge $-1 $58 $32 $108 $109 forward $18 $-1 #
coedge $-1 $32 $57 $110 $111 forward $18 $-1 #
coedge $-1 $112 $113 $32 $60 reversed $114 $-1 #
edge $115 $116 -1.570796326794896558 $117 0 $59 $118 forward 7 unknown #
coedge $-1 $35 $34 $113 $119 reversed $11 $-1 #
coedge $-1 $120 $108 $34 $63 forward $121 $-1 #
edge $122 $117 -1.511200000000000099 $71 -1.046038256014014678e-15 $62 $123 reversed 7 unknown #
coedge $-1 $106 $124 $35 $65 forward $125 $-1 #
edge $126 $70 -1.531200000000000117 $127 -0.01999999999999979572 $64 $128 reversed 7 unknown #
coedge $-1 $129 $36 $124 $130 reversed $68 $-1 #
coedge $-1 $36 $131 $132 $133 forward $68 $-1 #
loop $134 $-1 $36 $135 #
edge_name-twe-attrib $-1 $-1 $-1 $37 2 8448 #
vertex $-1 $65 $136 #
vertex $-1 $133 $137 #
straight-curve $-1 -1.526556658859590243e-16 -0.1210875000000000007 0.625 0 1 -0 I I #
coedge $-1 $138 $139 $38 $74 reversed $140 $-1 #
edge $141 $79 -0.3549999999999999822 $85 -0.02000000000000001776 $73 $142 forward 7 unknown #
coedge $-1 $143 $39 $44 $91 forward $77 $-1 #
coedge $-1 $39 $144 $145 $146 reversed $77 $-1 #
loop $147 $-1 $39 $148 #
edge_name-twe-attrib $-1 $-1 $-1 $40 12 24576 #
vertex $-1 $74 $149 #
straight-curve $-1 1.531199999999999894 -0.02000000000000000042 0 1 0 0 I I #
coedge $-1 $150 $41 $151 $152 reversed $83 $-1 #
coedge $-1 $41 $150 $153 $154 forward $83 $-1 #
loop $155 $-1 $41 $156 #
edge_name-twe-attrib $-1 $-1 $-1 $42 50 24576 #
vertex $-1 $42 $157 #
straight-curve $-1 0 -0.3549999999999999822 0 -1 0 0 I I #
coedge $-1 $90 $43 $158 $159 forward $45 $-1 #
coedge $-1 $153 $160 $43 $89 forward $161 $-1 #
edge $162 $163 -0.479737648221081836 $48 1.256231508945531824e-15 $88 $164 forward 7 unknown #
coedge $-1 $44 $87 $165 $166 forward $45 $-1 #
edge $167 $47 0 $168 0.04277832571467331257 $75 $169 forward 7 unknown #
loop_type-twe-attrib $-1 $-1 $-1 $45 0 #
face $170 $171 $45 $3 $-1 $172 forward single #
point $-1 -7.632783294297951215e-17 -0.02000000000000000042 0 #
point $-1 9.168013570537425494e-16 -0.3549999999999999822 0 #
face_name-twe-attrib $-1 $-1 $-1 $51 6 #
face $173 $174 $175 $3 $-1 $176 forward single #
loop $177 $-1 $178 $51 #
torus-surface $179 1.511200000000000099 -0.3549999999999999822 0.02000000000000000042 0 -0.7071067811865470176 0.7071067811865480168 0 0.02000000000000000042 1 0 0 forward_v I I I I #
loop_type-twe-attrib $-1 $-1 $-1 $52 0 #
loop $180 $181 $182 $28 #
coedge $-1 $183 $184 $150 $185 reversed $52 $-1 #
surf-twe-attrib $-1 $-1 $-1 $53 28 #
coedge $-1 $105 $55 $186 $187 forward $29 $-1 #
coedge $-1 $55 $104 $188 $189 forward $29 $-1 #
coedge $-1 $190 $64 $55 $107 reversed $125 $-1 #
edge $191 $192 -1.570796326794896558 $127 0 $106 $193 forward 7 unknown #
coedge $-1 $62 $194 $57 $109 reversed $121 $-1 #
edge $195 $117 -1.570796326794896558 $196 0 $108 $197 forward 7 unknown #
coedge $-1 $198 $199 $58 $111 reversed $200 $-1 #
edge $201 $196 -1.570796326794896558 $116 0 $110 $202 forward 7 unknown #
coedge $-1 $186 $59 $203 $204 reversed $114 $-1 #
coedge $-1 $59 $186 $61 $119 forward $114 $-1 #
loop $205 $-1 $113 $206 #
edge_name-twe-attrib $-1 $-1 $-1 $60 39 24576 #
vertex $-1 $207 $208 #
vertex $-1 $63 $209 #
ellipse-curve $210 1.511200000000000099 -0.3549999999999999822 0.6049999999999999822 0 -1 2.999999999999999839e-15 0 6.000000000000000121e-17 0.02000000000000000042 1 I I #
edge $211 $127 -0.3549999999999999822 $117 -0.02000000000000001776 $113 $212 reversed 7 unknown #
coedge $-1 $194 $62 $213 $214 forward $121 $-1 #
loop $215 $-1 $62 $216 #
edge_name-twe-attrib $-1 $-1 $-1 $63 57 24576 #
straight-curve $-1 0 -0.3549999999999999822 0.625 1 0 0 I I #
coedge $-1 $64 $217 $66 $130 forward $125 $-1 #
loop $218 $-1 $64 $219 #
edge_name-twe-attrib $-1 $-1 $-1 $65 28 24576 #
vertex $-1 $119 $220 #
straight-curve $-1 1.531199999999999894 -0.02000000000000000042 0.625 -1 0 0 I I #
coedge $-1 $131 $66 $221 $222 reversed $68 $-1 #
edge $223 $224 -0.04277832571466453487 $70 0 $124 $225 forward 7 unknown #
coedge $-1 $67 $129 $226 $227 forward $68 $-1 #
coedge $-1 $228 $213 $67 $133 reversed $229 $-1 #
edge $230 $231 -0.4797376482210818915 $71 1.360188191639081237e-15 $132 $232 forward 7 unknown #
loop_type-twe-attrib $-1 $-1 $-1 $68 0 #
face $233 $234 $68 $3 $-1 $235 forward single #
point $-1 -2.983724378680108202e-16 -0.02000000000000000042 0.625 #
point $-1 1.046038256014014678e-15 -0.3549999999999999822 0.625 #
coedge $-1 $236 $73 $237 $238 reversed $140 $-1 #
coedge $-1 $73 $236 $239 $240 reversed $140 $-1 #
loop $241 $-1 $73 $242 #
edge_name-twe-attrib $-1 $-1 $-1 $74 42 24576 #
straight-curve $-1 1.511200000000000099 -0.375 0 0 -1 0 I I #
coedge $-1 $243 $75 $244 $245 forward $77 $-1 #
coedge $-1 $76 $243 $246 $247 forward $77 $-1 #
coedge $-1 $248 $237 $76 $146 forward $249 $-1 #
edge $250 $79 -1.570796326794896558 $251 0 $76 $252 forward 7 unknown #
loop_type-twe-attrib $-1 $-1 $-1 $77 0 #
face $253 $254 $77 $3 $-1 $255 forward single #
point $-1 1.511200000000000099 -0.02000000000000000042 0 #
coedge $-1 $82 $81 $102 $185 forward $83 $-1 #
coedge $-1 $239 $178 $81 $152 forward $98 $-1 #
edge $256 $257 -1.570796326794896558 $85 0 $81 $258 forward 7 unknown #
coedge $-1 $259 $88 $82 $154 reversed $161 $-1 #
edge $260 $261 -1.570796326794897002 $48 0 $153 $262 forward 7 unknown #
loop_type-twe-attrib $-1 $-1 $-1 $83 0 #
face $263 $264 $83 $3 $-1 $265 forward single #
point $-1 1.511200000000000099 -0.3549999999999999822 0 #
coedge $-1 $266 $267 $87 $159 reversed $268 $-1 #
edge $269 $163 -0.1235609338069099949 $270 -5.551115123125782702e-16 $158 $271 reversed 7 unknown #
coedge $-1 $88 $259 $272 $273 reversed $161 $-1 #
loop $274 $-1 $259 $264 #
edge_name-twe-attrib $-1 $-1 $-1 $89 55 24576 #
vertex $-1 $159 $275 #
straight-curve $-1 -3.877106968808163856e-16 -0.3549999999999999822 5.898059818321144121e-17 0.9486934158820301555 0 -0.3161974109035139979 I I #
coedge $-1 $276 $244 $90 $166 reversed $277 $-1 #
edge $278 $270 -0.5270786593853267199 $168 -0.002520184266163501795 $165 $279 forward 7 unknown #
edge_name-twe-attrib $-1 $-1 $-1 $91 13 8448 #
vertex $-1 $166 $280 #
ellipse-curve $-1 -0.06000640000000001528 -0.02000000000000000042 0.02000000000000000042 0.3161974109035139979 -0 0.9486934158820300445 0.06000639999999993895 0 -0.02000000000000000042 0.3161974109035139424 I I #
face_name-twe-attrib $-1 $-1 $-1 $93 14 #
face $281 $135 $282 $3 $-1 $283 forward single #
plane-surface $284 -0.2343999999999999972 -0.2421750000000000014 0.078125 -0.3161974109035139979 0 -0.9486934158820300445 -0.9486934158820300445 0 0.3161974109035139979 forward_v I I I I #
face_name-twe-attrib $-1 $-1 $-1 $97 7 #
face $285 $286 $249 $3 $-1 $287 forward single #
loop $288 $-1 $289 $97 #
plane-surface $290 1.531199999999999894 -0.375 0 1 0 0 0 0 -1 forward_v I I I I #
loop_type-twe-attrib $-1 $-1 $-1 $98 0 #
coedge $-1 $151 $239 $291 $292 forward $98 $-1 #
surf-twe-attrib $-1 $-1 $-1 $99 51 #
loop_type-twe-attrib $-1 $-1 $-1 $101 1 #
loop $293 $-1 $294 $28 #
coedge $-1 $182 $182 $295 $296 reversed $101 $-1 #
coedge $-1 $297 $102 $198 $298 reversed $52 $-1 #
coedge $-1 $102 $299 $259 $300 forward $52 $-1 #
edge $301 $257 -1.511200000000000099 $261 -0.003245224808854648736 $150 $302 forward 7 unknown #
coedge $-1 $113 $112 $104 $187 reversed $114 $-1 #
edge $303 $127 -1.570796326794896558 $304 0 $186 $305 forward 7 unknown #
coedge $-1 $306 $307 $105 $189 reversed $308 $-1 #
edge $309 $304 -1.570796326794896558 $192 0 $188 $310 forward 7 unknown #
coedge $-1 $311 $106 $312 $313 reversed $125 $-1 #
edge_name-twe-attrib $-1 $-1 $-1 $107 29 24576 #
vertex $-1 $314 $315 #
ellipse-curve $316 1.511200000000000099 -0.02000000000000000042 0.6049999999999999822 1 0 0 0 0 0.02000000000000000042 1 I I #
coedge $-1 $108 $120 $297 $317 reversed $121 $-1 #
edge_name-twe-attrib $-1 $-1 $-1 $109 59 24576 #
vertex $-1 $317 $318 #
ellipse-curve $319 1.511200000000000099 -0.3549999999999999822 0.6049999999999999822 1 -2.200000000000000092e-14 0 -4.400000000000000007e-16 -0.02000000000000000042 0 1 I I #
coedge $-1 $291 $110 $183 $298 forward $200 $-1 #
coedge $-1 $110 $291 $320 $207 reversed $200 $-1 #
loop $321 $-1 $199 $322 #
edge_name-twe-attrib $-1 $-1 $-1 $111 47 24576 #
ellipse-curve $323 1.511200000000000099 -0.3549999999999999822 0.6049999999999999822 0 0 1 0.02000000000000000042 0 0 1 I I #
coedge $-1 $320 $324 $112 $204 forward $175 $-1 #
edge $325 $304 -0.3549999999999999822 $116 -0.02000000000000001776 $112 $326 reversed 7 unknown #
loop_type-twe-attrib $-1 $-1 $-1 $114 0 #
face $327 $242 $114 $3 $-1 $328 forward single #
edge $329 $116 -0.6049999999999999822 $330 -0.02000000000000000042 $199 $331 forward 7 unknown #
point $-1 1.531199999999999894 -0.3549999999999999822 0.6049999999999999822 #
point $-1 1.511200000000000099 -0.3549999999999999822 0.625 #
cur-twe-attrib $-1 $-1 $-1 $118 60 #
edge_name-twe-attrib $-1 $-1 $-1 $119 38 24576 #
straight-curve $-1 1.511200000000000099 -0.375 0.625 0 1 0 I I #
coedge $-1 $132 $332 $120 $214 reversed $229 $-1 #
edge $333 $71 0 $334 1.570796326794896558 $213 $335 forward 7 unknown #
loop_type-twe-attrib $-1 $-1 $-1 $121 0 #
face $336 $337 $121 $3 $-1 $338 forward single #
coedge $-1 $124 $311 $339 $340 forward $125 $-1 #
loop_type-twe-attrib $-1 $-1 $-1 $125 0 #
face $341 $342 $125 $3 $-1 $343 forward single #
point $-1 1.511200000000000099 -0.02000000000000000042 0.625 #
coedge $-1 $339 $344 $129 $222 forward $345 $-1 #
edge $346 $347 -0.5270786593853267199 $224 -0.002520184266163851342 $221 $348 forward 7 unknown #
edge_name-twe-attrib $-1 $-1 $-1 $130 33 8448 #
vertex $-1 $222 $349 #
ellipse-curve $-1 -0.06000640000000023733 -0.02000000000000000042 0.6049999999999999822 0.3161974109035139979 -0 -0.9486934158820300445 0.06000639999999993895 0 0.02000000000000000042 0.3161974109035139424 I I #
coedge $-1 $350 $351 $131 $227 reversed $352 $-1 #
edge $353 $347 -0.1425348021245504415 $231 -0.01897386831764102944 $226 $354 reversed 7 unknown #
coedge $-1 $332 $132 $355 $356 reversed $229 $-1 #
loop $357 $-1 $132 $337 #
edge_name-twe-attrib $-1 $-1 $-1 $133 60 24576 #
vertex $-1 $227 $358 #
straight-curve $-1 -3.877106968808163856e-16 -0.3549999999999999822 0.625 0.9486934158820301555 0 0.3161974109035139979 I I #
face_name-twe-attrib $-1 $-1 $-1 $135 16 #
face $359 $360 $361 $3 $-1 $362 forward single #
plane-surface $363 -0.2343999999999999972 -0.2421750000000000014 0.546875 -0.3161974109035139979 0 0.9486934158820300445 0.9486934158820300445 0 0.3161974109035139979 forward_v I I I I #
coedge $-1 $139 $138 $289 $364 forward $140 $-1 #
coedge $-1 $145 $248 $138 $238 forward $249 $-1 #
edge $365 $366 -1.570796326794896558 $79 0 $138 $367 forward 7 unknown #
coedge $-1 $178 $151 $139 $240 forward $98 $-1 #
edge $368 $85 -1.570796326794896558 $330 0 $139 $369 forward 7 unknown #
loop_type-twe-attrib $-1 $-1 $-1 $140 0 #
face $370 $322 $140 $3 $-1 $371 forward single #
coedge $-1 $144 $143 $372 $373 forward $77 $-1 #
coedge $-1 $165 $374 $143 $245 reversed $277 $-1 #
edge $375 $168 -0.4011495125364893388 $376 -0.3737927015341093173 $244 $377 reversed 7 unknown #
coedge $-1 $378 $379 $144 $247 reversed $380 $-1 #
edge $381 $382 -1.531199999999999894 $251 -0.01999999999999979572 $144 $383 forward 7 unknown #
coedge $-1 $237 $145 $384 $385 forward $249 $-1 #
loop $386 $-1 $248 $174 #
edge_name-twe-attrib $-1 $-1 $-1 $146 16 24576 #
vertex $-1 $314 $387 #
ellipse-curve $388 1.511200000000000099 -0.02000000000000000042 0.02000000000000000042 1 0 0 0 0.02000000000000000042 0 1 I I #
face_name-twe-attrib $-1 $-1 $-1 $148 24 #
face $389 $390 $277 $3 $-1 $391 forward single #
cone-surface $392 1.531199999999999894 -0.02000000000000000042 0.02000000000000000042 1 0 0 0 0 -0.02000000000000000042 1 I I 0 1 0.02000000000000000042 forward I I I I #
edge_name-twe-attrib $-1 $-1 $-1 $152 51 24576 #
vertex $-1 $185 $393 #
ellipse-curve $394 1.511200000000000099 -0.3549999999999999822 0.02000000000000000042 1 0 -2.200000000000000092e-14 -4.400000000000000007e-16 0 -0.02000000000000000042 1 I I #
coedge $-1 $160 $153 $184 $300 reversed $161 $-1 #
edge_name-twe-attrib $-1 $-1 $-1 $154 56 8448 #
vertex $-1 $300 $395 #
ellipse-curve $-1 0.003245224808854648302 -0.3549999999999999822 0.02000000000000000042 0.9870900201810446362 0 -0.1601664511031727911 -0.003245224808853731501 0 -0.02000000000000000042 0.9870900201810445251 I I #
face_name-twe-attrib $-1 $-1 $-1 $156 33 #
face $396 $216 $161 $3 $-1 $397 forward single #
cone-surface $398 0 -0.3549999999999999822 0.02000000000000000042 -1 0 0 0 0 -0.02000000000000000042 1 I I 0 1 0.02000000000000000042 forward I I I I #
coedge $-1 $399 $158 $400 $401 reversed $268 $-1 #
coedge $-1 $158 $399 $402 $403 reversed $268 $-1 #
loop $404 $-1 $399 $405 #
edge_name-twe-attrib $-1 $-1 $-1 $159 74 24576 #
vertex $-1 $159 $406 #
straight-curve $-1 -0.4551239482180701179 -0.2314390661930899873 0.1516918022804468746 0 -1 0 I I #
coedge $-1 $407 $400 $160 $273 forward $408 $-1 #
edge $409 $163 -1.570796326794896558 $410 4.213045094490072296e-14 $160 $411 forward 7 unknown #
loop_type-twe-attrib $-1 $-1 $-1 $161 0 #
point $-1 -0.4551239482180701179 -0.3549999999999999822 0.1516918022804468746 #
coedge $-1 $374 $165 $412 $413 reversed $277 $-1 #
loop $414 $-1 $165 $254 #
edge_name-twe-attrib $-1 $-1 $-1 $166 17 24576 #
straight-curve $-1 0.002131432832180844145 -0.01812474913743796628 -0.0007104018345313566074 0.8675277833928948246 0.4047105934898168611 -0.2891450856551619486 I I #
point $-1 -5.489703798570191141e-05 -0.01914469440750072096 1.829706097502145377e-05 #
face_name-twe-attrib $-1 $-1 $-1 $171 15 #
loop $415 $-1 $412 $171 #
torus-surface $416 -0.4487999999999999767 -0.2314390661930899873 0.1706656705980869881 0.5847232632179462097 0 -0.8112328306052192239 0 0.02000000000000000042 -0.8112328306052192239 0 -0.5847232632179462097 forward_v I I I I #
surf-twe-attrib $-1 $-1 $-1 $172 93 #
face_name-twe-attrib $-1 $-1 $-1 $174 8 #
face $417 $418 $380 $3 $-1 $419 forward single #
torus-surface $420 1.511200000000000099 -0.02000000000000000042 0.02000000000000000042 0.7071067811865470176 0 0.7071067811865480168 0 0.02000000000000000042 0.7071067811865480168 0 -0.7071067811865470176 forward_v I I I I #
loop_type-twe-attrib $-1 $-1 $-1 $175 0 #
coedge $-1 $324 $320 $236 $364 reversed $175 $-1 #
surf-twe-attrib $-1 $-1 $-1 $176 98 #
coedge $-1 $199 $198 $178 $292 reversed $200 $-1 #
edge $421 $330 -1.570796326794896558 $257 0 $291 $422 forward 7 unknown #
loop_type-twe-attrib $-1 $-1 $-1 $181 1 #
coedge $-1 $294 $294 $423 $424 reversed $181 $-1 #
coedge $-1 $295 $295 $182 $296 forward $425 $-1 #
edge $426 $427 -3.141592653589792228 $427 3.141592653589794004 $295 $428 reversed 7 unknown #
coedge $-1 $429 $183 $194 $317 forward $52 $-1 #
edge $430 $196 -0.6049999999999999822 $257 -0.02000000000000000042 $198 $431 forward 7 unknown #
coedge $-1 $184 $429 $432 $433 forward $52 $-1 #
edge $434 $410 -0.4797376482210820581 $261 -0.003245224808852465153 $259 $435 forward 7 unknown #
edge_name-twe-attrib $-1 $-1 $-1 $185 52 24576 #
straight-curve $-1 0 -0.375 0.02000000000000000042 -1 0 0 I I #
edge_name-twe-attrib $-1 $-1 $-1 $187 41 24576 #
vertex $-1 $204 $436 #
ellipse-curve $437 1.511200000000000099 -0.02000000000000000042 0.6049999999999999822 0 1 0 0.02000000000000000042 0 0 1 I I #
coedge $-1 $384 $188 $324 $438 forward $308 $-1 #
coedge $-1 $188 $384 $379 $314 reversed $308 $-1 #
loop $439 $-1 $307 $342 #
edge_name-twe-attrib $-1 $-1 $-1 $189 35 24576 #
ellipse-curve $440 1.511200000000000099 -0.02000000000000000042 0.6049999999999999822 0 0 1 0 0.02000000000000000042 0 1 I I #
coedge $-1 $217 $190 $441 $442 forward $125 $-1 #
coedge $-1 $379 $378 $190 $313 forward $380 $-1 #
edge $443 $444 -1.531199999999999894 $192 -0.01999999999999979572 $190 $445 reversed 7 unknown #
edge $446 $192 -0.6049999999999999822 $251 -0.02000000000000000042 $307 $447 forward 7 unknown #
point $-1 1.511200000000000099 0 0.6049999999999999822 #
cur-twe-attrib $-1 $-1 $-1 $193 108 #
edge $448 $196 -1.511200000000000099 $334 -0.003245224808854679094 $194 $449 reversed 7 unknown #
point $-1 1.511200000000000099 -0.375 0.6049999999999999822 #
cur-twe-attrib $-1 $-1 $-1 $197 110 #
coedge $-1 $289 $203 $199 $207 forward $175 $-1 #
loop_type-twe-attrib $-1 $-1 $-1 $200 0 #
face $450 $156 $200 $3 $-1 $451 forward single #
cur-twe-attrib $-1 $-1 $-1 $202 112 #
coedge $-1 $203 $289 $306 $438 reversed $175 $-1 #
edge_name-twe-attrib $-1 $-1 $-1 $204 40 24576 #
straight-curve $-1 1.531199999999999894 -0.375 0.6049999999999999822 0 1 0 I I #
face_name-twe-attrib $-1 $-1 $-1 $206 30 #
cone-surface $452 1.511200000000000099 -0.375 0.6049999999999999822 0 1 0 0 0 0.02000000000000000042 1 I I 0 1 0.02000000000000000042 forward I I I I #
edge_name-twe-attrib $-1 $-1 $-1 $207 46 24576 #
vertex $-1 $207 $453 #
straight-curve $-1 1.531199999999999894 -0.3549999999999999822 0 0 0 -1 I I #
coedge $-1 $213 $228 $429 $454 forward $229 $-1 #
edge_name-twe-attrib $-1 $-1 $-1 $214 63 8448 #
vertex $-1 $454 $455 #
ellipse-curve $-1 0.003245224808854679094 -0.3549999999999999822 0.6049999999999999822 0.9870900201810454133 0 0.1601664511031678784 -0.003245224808853633056 0 0.02000000000000003164 0.987090020181043859 I I #
face_name-twe-attrib $-1 $-1 $-1 $216 35 #
face $456 $457 $229 $3 $-1 $458 forward single #
cone-surface $459 0 -0.3549999999999999822 0.6049999999999999822 1 0 0 0 0 0.02000000000000000042 1 I I 0 1 0.02000000000000000042 forward I I I I #
coedge $-1 $460 $221 $217 $340 reversed $345 $-1 #
edge $461 $462 0.2288792856460960257 $224 0.2562787005668912821 $217 $463 forward 7 unknown #
face_name-twe-attrib $-1 $-1 $-1 $219 28 #
face $464 $206 $308 $3 $-1 $465 forward single #
cone-surface $466 1.531199999999999894 -0.02000000000000000042 0.6049999999999999822 -1 0 0 0 0 0.02000000000000000042 1 I I 0 1 0.02000000000000000042 forward I I I I #
coedge $-1 $221 $460 $467 $468 reversed $345 $-1 #
loop $469 $-1 $460 $470 #
edge_name-twe-attrib $-1 $-1 $-1 $222 27 24576 #
vertex $-1 $227 $471 #
straight-curve $-1 0.002131432832180851084 -0.0181247491374379871 0.6257104018345313046 0.8675277833928948246 0.4047105934898168611 0.2891450856551619486 I I #
point $-1 -5.489703798601086837e-05 -0.0191446944075008979 0.6249817029390248857 #
coedge $-1 $472 $226 $473 $474 reversed $352 $-1 #
coedge $-1 $226 $472 $475 $476 reversed $352 $-1 #
loop $477 $-1 $472 $457 #
edge_name-twe-attrib $-1 $-1 $-1 $227 66 24576 #
straight-curve $-1 -0.4551239482180701179 -0.3739738683176410117 0.4733081977195530698 0 1 0 I I #
coedge $-1 $475 $478 $228 $356 forward $479 $-1 #
edge $480 $481 -1.570796326794938746 $231 0 $228 $482 forward 7 unknown #
loop_type-twe-attrib $-1 $-1 $-1 $229 0 #
point $-1 -0.4551239482180701734 -0.3549999999999999822 0.4733081977195531809 #
face_name-twe-attrib $-1 $-1 $-1 $234 17 #
face $483 $484 $485 $3 $-1 $486 reversed single #
loop $487 $-1 $488 $234 #
plane-surface $489 -0.2343999999999999972 -0.1093500000000000028 0.3125 -0.4227690525125501475 0.906237456871895497 0 0 0 1 forward_v I I I I #
surf-twe-attrib $-1 $-1 $-1 $235 136 #
edge $490 $366 -0.3549999999999999822 $330 -0.02000000000000001776 $236 $491 forward 7 unknown #
edge_name-twe-attrib $-1 $-1 $-1 $238 43 24576 #
vertex $-1 $364 $492 #
ellipse-curve $493 1.511200000000000099 -0.02000000000000000042 0.02000000000000000042 0 1 0 0 0 -0.02000000000000000042 1 I I #
edge_name-twe-attrib $-1 $-1 $-1 $240 45 24576 #
ellipse-curve $494 1.511200000000000099 -0.3549999999999999822 0.02000000000000000042 0 -1 0 0.02000000000000000042 0 0 1 I I #
face_name-twe-attrib $-1 $-1 $-1 $242 31 #
cone-surface $495 1.511200000000000099 -0.375 0.02000000000000000042 0 -1 0 0 0 -0.02000000000000000042 1 I I 0 1 0.02000000000000000042 forward I I I I #
coedge $-1 $496 $488 $243 $373 reversed $361 $-1 #
edge $497 $376 -0.08438458685411664995 $382 0 $243 $498 forward 7 unknown #
coedge $-1 $244 $276 $496 $499 forward $277 $-1 #
edge_name-twe-attrib $-1 $-1 $-1 $245 20 8448 #
vertex $-1 $499 $500 #
intcurve-curve $-1 forward { surfintcur full nubs 3 open 6 
	0.3737927015341093173 3 0.3772613254607799504 2 0.3825785160895890935 2 0.3881165840467855621 2 0.3966525131749153998 2 
	0.4011495125364893388 3 
	-0.0001519465196669793415 -7.346211286622889112e-05 0.01831439843584013391 
	-0.0003668792881388744363 -0.0001752392030463313969 0.01712708934363475766 
	-0.0005600788902672073797 -0.0003845513218637846599 0.01590480001909137103 
	-0.0009655035767146262927 -0.001214144862570661933 0.01288040991075496688 
	-0.001133014294344229875 -0.001994008889449506473 0.01111647036423270979 
	-0.001322074855419878067 -0.003872225444051453132 0.00802947853338592879 
	-0.001349195325249394773 -0.005288332862138618064 0.006326206466944713815 
	-0.001234975171106493042 -0.00878336930223462542 0.003198863606395196783 
	-0.0009653878406878748427 -0.01176453141628566908 0.001556326272299762403 
	-0.0004736058122034252733 -0.01591336996784537688 0.0003653963366940039315 
	-0.0002530988477889278138 -0.01752982620469812486 0.0001179832802363274823 
	-4.656595936520365137e-05 -0.01914485919859013063 4.583432383665828324e-05 
	0.0001802200096077439411 
	cone 0.008455381050250999203 -0.01812474913743800098 0.01826346648310899975 0.8675277833928948246 0.4047105934898169166 -0.2891450856551619486 -0.006323948218070279959 0 -0.01897386831764059922 1 I I 0 1 0.02000000000000000042 forward I I I I 
	cone 1.531199999999999894 -0.02000000000000000042 0.02000000000000000042 1 0 0 0 0 -0.02000000000000000042 1 I I 0 1 0.02000000000000000042 forward I I I I 
	nullbs 
	nullbs 
	I I 
	0 
	0 
	0 
	} I I #
coedge $-1 $312 $246 $488 $501 forward $380 $-1 #
coedge $-1 $246 $312 $307 $314 forward $380 $-1 #
loop $502 $503 $378 $286 #
edge_name-twe-attrib $-1 $-1 $-1 $247 15 24576 #
vertex $-1 $247 $504 #
straight-curve $-1 1.531199999999999894 0 0.02000000000000000042 1 0 0 I I #
coedge $-1 $307 $306 $248 $385 reversed $308 $-1 #
edge $505 $251 -1.570796326794896558 $366 0 $384 $506 forward 7 unknown #
loop_type-twe-attrib $-1 $-1 $-1 $249 0 #
point $-1 1.511200000000000099 0 0.02000000000000000042 #
cur-twe-attrib $-1 $-1 $-1 $252 148 #
face_name-twe-attrib $-1 $-1 $-1 $254 25 #
face $507 $470 $508 $3 $-1 $509 forward single #
cone-surface $510 0.008455381050250999203 -0.01812474913743800098 0.01826346648310899975 0.8675277833928948246 0.4047105934898169166 -0.2891450856551619486 -0.006323948218070279959 0 -0.01897386831764059922 1 I I 0 1 0.02000000000000000042 forward I I I I #
surf-twe-attrib $-1 $-1 $-1 $255 150 #
point $-1 1.511200000000000099 -0.375 0.02000000000000000042 #
cur-twe-attrib $-1 $-1 $-1 $258 155 #
point $-1 0.003245224808854648736 -0.375 0.02000000000000000389 #
face_name-twe-attrib $-1 $-1 $-1 $264 34 #
cone-surface $511 0.006323948218069999801 -0.3549999999999999822 0.01897386831764100168 0.9486934158820300445 0 -0.3161974109035139979 0 -0.02000000000000000042 0 1 I I 0 1 0.02000000000000000042 forward I I I I #
surf-twe-attrib $-1 $-1 $-1 $265 159 #
coedge $-1 $267 $266 $512 $513 forward $268 $-1 #
coedge $-1 $272 $407 $266 $401 forward $408 $-1 #
edge $514 $515 -1.249077769326538911 $163 -2.032879073410372879e-15 $266 $516 forward 7 unknown #
coedge $-1 $517 $412 $267 $403 forward $282 $-1 #
edge $518 $270 -1.249077769326537801 $519 -1.387778780781444492e-15 $267 $520 forward 7 unknown #
loop_type-twe-attrib $-1 $-1 $-1 $268 0 #
face $521 $-1 $268 $3 $-1 $522 forward single #
point $-1 -0.4551239482180701179 -0.2314390661930905424 0.1516918022804468191 #
coedge $-1 $400 $272 $523 $524 forward $408 $-1 #
loop $525 $-1 $407 $526 #
edge_name-twe-attrib $-1 $-1 $-1 $273 54 24576 #
vertex $-1 $433 $527 #
ellipse-curve $528 -0.4487999999999999767 -0.3549999999999999822 0.1706656705980869881 -0.9486934158820300445 0 0.3161974109035139979 0 -0.02000000000000000042 0 1 I I #
coedge $-1 $402 $517 $276 $413 forward $282 $-1 #
edge $529 $530 -1.43671647324737517 $270 2.49027686492770011e-14 $276 $531 forward 7 unknown #
loop_type-twe-attrib $-1 $-1 $-1 $277 0 #
loop_type-twe-attrib $-1 $-1 $-1 $282 0 #
surf-twe-attrib $-1 $-1 $-1 $283 175 #
face_name-twe-attrib $-1 $-1 $-1 $286 9 #
face $532 $526 $533 $3 $-1 $534 forward single #
plane-surface $535 1.531199999999999894 0 0 0 1 0 0 0 1 forward_v I I I I #
surf-twe-attrib $-1 $-1 $-1 $287 178 #
edge_name-twe-attrib $-1 $-1 $-1 $292 49 24576 #
ellipse-curve $536 1.511200000000000099 -0.3549999999999999822 0.02000000000000000042 0 0 -1 0 -0.02000000000000000042 0 1 I I #
coedge $-1 $423 $423 $294 $424 forward $537 $-1 #
edge $538 $539 -6.283185307179586232 $539 -0 $423 $540 reversed 7 unknown #
loop $541 $542 $295 $543 #
edge_name-twe-attrib $-1 $-1 $-1 $296 10 8448 #
vertex $-1 $296 $544 #
ellipse-curve $-1 0.4687000000000000055 -0.375 0.3125 -0 1 -0 -0.1606499999999999873 0 1.606500000000000072e-16 1 I I #
coedge $-1 $299 $297 $332 $454 reversed $52 $-1 #
edge_name-twe-attrib $-1 $-1 $-1 $298 48 24576 #
straight-curve $-1 1.511200000000000099 -0.375 0 0 0 -1 I I #
coedge $-1 $545 $523 $299 $433 reversed $546 $-1 #
edge $547 $481 -0.2980843294019120959 $410 -0.01441567059808787632 $432 $548 reversed 7 unknown #
edge_name-twe-attrib $-1 $-1 $-1 $300 53 24576 #
straight-curve $-1 0.006323948218070000668 -0.375 0.01897386831764100168 0.9486934158820301555 0 -0.3161974109035139979 I I #
point $-1 1.531199999999999894 -0.02000000000000000042 0.6049999999999999822 #
cur-twe-attrib $-1 $-1 $-1 $305 191 #
edge $549 $304 -0.6049999999999999822 $366 -0.02000000000000000042 $306 $550 forward 7 unknown #
loop_type-twe-attrib $-1 $-1 $-1 $308 0 #
cur-twe-attrib $-1 $-1 $-1 $310 193 #
coedge $-1 $488 $551 $311 $442 reversed $361 $-1 #
edge $552 $444 0 $462 0.08438458685411895366 $311 $553 forward 7 unknown #
edge_name-twe-attrib $-1 $-1 $-1 $313 30 24576 #
vertex $-1 $313 $554 #
straight-curve $-1 1.531199999999999894 0 0.6049999999999999822 -1 0 0 I I #
edge_name-twe-attrib $-1 $-1 $-1 $314 34 24576 #
straight-curve $-1 1.511200000000000099 0 0 0 0 -1 I I #
edge_name-twe-attrib $-1 $-1 $-1 $317 58 24576 #
straight-curve $-1 0 -0.375 0.6049999999999999822 1 0 0 I I #
face_name-twe-attrib $-1 $-1 $-1 $322 32 #
cone-surface $555 1.511200000000000099 -0.3549999999999999822 0 0 0 -1 0.02000000000000000042 0 0 1 I I 0 1 0.02000000000000000042 forward I I I I #
surf-twe-attrib $-1 $-1 $-1 $328 210 #
point $-1 1.531199999999999894 -0.3549999999999999822 0.02000000000000000042 #
edge $556 $481 -0.4797376482210820581 $334 -0.003245224808852430892 $332 $557 forward 7 unknown #
point $-1 0.003245224808854679094 -0.375 0.6049999999999999822 #
face_name-twe-attrib $-1 $-1 $-1 $337 36 #
face $558 $559 $352 $3 $-1 $560 forward single #
cone-surface $561 0.006323948218069999801 -0.3549999999999999822 0.6060261316823589706 0.9486934158820300445 0 0.3161974109035139979 -0.006323948218070279959 0 0.01897386831764059922 1 I I 0 1 0.02000000000000000042 forward I I I I #
surf-twe-attrib $-1 $-1 $-1 $338 220 #
coedge $-1 $344 $339 $551 $562 reversed $345 $-1 #
edge_name-twe-attrib $-1 $-1 $-1 $340 32 8448 #
vertex $-1 $562 $563 #
intcurve-curve $-1 forward { surfintcur full nubs 3 open 6 
	0.2288792856460960257 3 0.2351664084523613918 2 0.2407044764095578882 2 0.2460216670383670312 2 0.2513388576671761743 2 
	0.2562787005668912821 3 
	-0.0001483220621630294649 -8.908886694925762038e-05 0.6066847520701923457 
	-0.000540988468304895464 -0.0002963262224132754276 0.60887681489783263 
	-0.0008593791227780930983 -0.0008643646405694934516 0.6111794593899217976 
	-0.001204819697985741239 -0.00245241401333707882 0.6147705605299335074 
	-0.001308968385136121976 -0.003633195592198221538 0.6166419609108652056 
	-0.001340529293781500021 -0.005992583062801041388 0.6193851806538055449 
	-0.001291434277230691036 -0.007434190642241478124 0.6206763381697484316 
	-0.001065058474089266346 -0.01062912732174766187 0.6227718603326297675 
	-0.0008878006049755113142 -0.0123824569648081223 0.6235762266273658927 
	-0.0005106114451606390443 -0.01562751279205931362 0.6245846801159061767 
	-0.0002827795846747470235 -0.01737999876930042265 0.6249053105049828805 
	-5.499246235799628148e-05 -0.01914470841295816753 0.6249816639215219904 
	0.0001802200096073901118 
	cone 1.531199999999999894 -0.02000000000000000042 0.6049999999999999822 -1 0 0 0 0 0.02000000000000000042 1 I I 0 1 0.02000000000000000042 forward I I I I 
	cone 0.008455381050250999203 -0.01812474913743800098 0.6067365335168910523 0.8675277833928948246 0.4047105934898169166 0.2891450856551619486 -0.00845538105025098706 0.01812474913743791771 0 1 I I 0 1 0.01999999999999998307 forward I I I I 
	nullbs 
	nullbs 
	I I 
	0 
	0 
	0 
	} I I #
face_name-twe-attrib $-1 $-1 $-1 $342 29 #
cone-surface $564 1.511200000000000099 -0.02000000000000000042 0 0 0 -1 0 0.02000000000000000042 0 1 I I 0 1 0.02000000000000000042 forward I I I I #
surf-twe-attrib $-1 $-1 $-1 $343 224 #
coedge $-1 $565 $473 $344 $468 forward $566 $-1 #
edge $567 $347 -1.436716473247396708 $568 2.254695822737919362e-15 $344 $569 forward 7 unknown #
loop_type-twe-attrib $-1 $-1 $-1 $345 0 #
face $570 $219 $345 $3 $-1 $571 forward single #
point $-1 -0.4551239482180701179 -0.2314390661930905702 0.4733081977195531254 #
coedge $-1 $351 $350 $572 $573 forward $352 $-1 #
coedge $-1 $467 $565 $350 $474 forward $566 $-1 #
edge $574 $575 -1.249077769326538911 $347 -1.592421940838123094e-15 $350 $576 forward 7 unknown #
coedge $-1 $478 $355 $351 $476 forward $479 $-1 #
edge $577 $231 -1.249077769326535581 $578 0 $351 $579 forward 7 unknown #
loop_type-twe-attrib $-1 $-1 $-1 $352 0 #
coedge $-1 $355 $475 $545 $580 forward $479 $-1 #
loop $581 $-1 $475 $582 #
edge_name-twe-attrib $-1 $-1 $-1 $356 61 24576 #
vertex $-1 $433 $583 #
ellipse-curve $584 -0.4487999999999999767 -0.3549999999999999822 0.4543343294019129841 -0.9486934158820302665 0 -0.3161974109035130542 -0.006323948218070260009 0 0.01897386831764059922 1 I I #
face_name-twe-attrib $-1 $-1 $-1 $360 18 #
face $585 $586 $587 $3 $-1 $588 reversed single #
loop $589 $590 $591 $360 #
cone-surface $592 0.4687000000000000055 -0.375 0.3125 0 1 0 0.1406499999999999972 0 0 1 I I 0 1 0.1406499999999999972 forward I I I I #
loop_type-twe-attrib $-1 $-1 $-1 $361 0 #
coedge $-1 $372 $441 $378 $501 reversed $361 $-1 #
surf-twe-attrib $-1 $-1 $-1 $362 240 #
edge_name-twe-attrib $-1 $-1 $-1 $364 44 24576 #
straight-curve $-1 1.531199999999999894 -0.375 0.02000000000000000042 0 -1 0 I I #
point $-1 1.531199999999999894 -0.02000000000000000042 0.02000000000000000042 #
cur-twe-attrib $-1 $-1 $-1 $367 244 #
cur-twe-attrib $-1 $-1 $-1 $369 246 #
surf-twe-attrib $-1 $-1 $-1 $371 248 #
coedge $-1 $593 $372 $374 $499 reversed $361 $-1 #
edge_name-twe-attrib $-1 $-1 $-1 $373 14 8448 #
ellipse-curve $-1 -0.04287151348879736368 -0.02000000000000000042 0.02000000000000000042 0.4227690525125501475 -0.906237456871895497 -0 0.04287151348879744694 0.02000000000000000042 0 0.422769052512550092 I I #
edge $594 $530 -0.5270786593853263868 $376 -0.0001758425448297681892 $374 $595 forward 7 unknown #
point $-1 -0.0001525482931423016014 -7.116534067889282509e-05 0.01831431049079559892 #
edge $596 $382 -0.13625000000000001 $444 0.4487499999999999822 $488 $597 reversed 7 unknown #
loop_type-twe-attrib $-1 $-1 $-1 $380 0 #
loop $598 $599 $600 $286 #
point $-1 8.326672684688674053e-17 0 0.02000000000000000042 #
edge_name-twe-attrib $-1 $-1 $-1 $385 37 24576 #
ellipse-curve $601 1.511200000000000099 -0.02000000000000000042 0.02000000000000000042 0 0 -1 0.02000000000000000042 0 0 1 I I #
face_name-twe-attrib $-1 $-1 $-1 $390 26 #
loop $602 $-1 $603 $390 #
cone-surface $604 -0.4487999999999999767 -0.2314390661930899873 0.4725977958850219873 0 0 -1 -0.02000000000000000042 0 0 1 I I 0 1 0.02000000000000000042 forward I I I I #
surf-twe-attrib $-1 $-1 $-1 $391 261 #
surf-twe-attrib $-1 $-1 $-1 $397 271 #
coedge $-1 $605 $606 $399 $513 reversed $533 $-1 #
edge $607 $515 -0.1235609338069099949 $519 -0 $399 $608 reversed 7 unknown #
edge_name-twe-attrib $-1 $-1 $-1 $401 75 24576 #
vertex $-1 $513 $609 #
ellipse-curve $610 -0.4487999999999999767 -0.3549999999999999822 0.1706656705980869881 9.485922327105389785e-16 -1 2.846080247646090183e-15 -0.006323948218070260009 -6.000000000000000121e-17 -0.01897386831764059922 1 I I #
coedge $-1 $412 $402 $611 $612 forward $282 $-1 #
edge_name-twe-attrib $-1 $-1 $-1 $403 73 24576 #
vertex $-1 $513 $613 #
ellipse-curve $614 -0.4487999999999999767 -0.2314390661930899873 0.1706656705980869881 0 1 0 -0.02000000000000000042 0 0 1 I I #
face_name-twe-attrib $-1 $-1 $-1 $405 39 #
cone-surface $615 -0.4487999999999999767 -0.2314390661930899873 0.1706656705980869881 0 -1 0 -0.02000000000000000042 0 0 1 I I 0 1 0.02000000000000000042 forward I I I I #
coedge $-1 $432 $616 $407 $524 reversed $546 $-1 #
edge $617 $410 -1.570796326794896558 $515 0 $523 $618 forward 7 unknown #
loop_type-twe-attrib $-1 $-1 $-1 $408 0 #
face $619 $582 $408 $3 $-1 $620 forward single #
point $-1 -0.4487999999999999767 -0.375 0.1706656705980878763 #
cur-twe-attrib $-1 $-1 $-1 $411 280 #
edge_name-twe-attrib $-1 $-1 $-1 $413 18 24576 #
vertex $-1 $621 $622 #
ellipse-curve $623 -0.4487999999999999767 -0.2314390661930899873 0.1706656705980869881 -0.8675277833928950466 -0.4047105934898170276 0.2891450856551610049 -0.006323948218070260009 0 -0.01897386831764059922 1 I I #
face_name-twe-attrib $-1 $-1 $-1 $418 10 #
loop $624 $-1 $512 $418 #
plane-surface $625 -0.4687999999999999945 0 0 -1 0 0 0 0 1 forward_v I I I I #
surf-twe-attrib $-1 $-1 $-1 $419 295 #
cur-twe-attrib $-1 $-1 $-1 $422 301 #
loop $626 $627 $423 $628 #
edge_name-twe-attrib $-1 $-1 $-1 $424 8 8448 #
vertex $-1 $424 $629 #
ellipse-curve $-1 1.281199999999999894 -0.375 0.3125 -0 1 -0 0.14499999999999999 0 0 1 I I #
loop_type-twe-attrib $-1 $-1 $-1 $425 0 #
loop $630 $-1 $631 $543 #
face $632 $148 $425 $3 $-1 $633 reversed single #
point $-1 0.629349999999999965 -0.375 0.3125 #
coedge $-1 $616 $432 $478 $580 reversed $546 $-1 #
loop $634 $-1 $616 $559 #
edge_name-twe-attrib $-1 $-1 $-1 $433 70 24576 #
straight-curve $-1 -0.4487999999999999767 -0.375 0.15625 0 0 1 I I #
edge_name-twe-attrib $-1 $-1 $-1 $438 36 24576 #
straight-curve $-1 1.531199999999999894 -0.02000000000000000042 0 0 0 -1 I I #
coedge $-1 $441 $593 $460 $562 forward $361 $-1 #
edge_name-twe-attrib $-1 $-1 $-1 $442 31 8448 #
ellipse-curve $-1 -0.04287151348879736368 -0.02000000000000000042 0.6049999999999999822 0.4227690525125501475 -0.906237456871895497 -0 0.04287151348879744694 0.02000000000000000042 -0 0.422769052512550092 I I #
point $-1 8.326672684688674053e-17 0 0.6049999999999999822 #
surf-twe-attrib $-1 $-1 $-1 $451 331 #
edge_name-twe-attrib $-1 $-1 $-1 $454 62 24576 #
straight-curve $-1 0.006323948218069999801 -0.375 0.6060261316823589706 0.9486934158820301555 0 0.3161974109035139979 I I #
face_name-twe-attrib $-1 $-1 $-1 $457 37 #
face $635 $405 $546 $3 $-1 $636 forward single #
cone-surface $637 -0.4487999999999999767 -0.3739738683176410117 0.4543343294019129841 0 1 0 -0.02000000000000000042 0 0 1 I I 0 1 0.02000000000000000042 forward I I I I #
surf-twe-attrib $-1 $-1 $-1 $458 347 #
edge $638 $568 -0.5270786593853263868 $462 -0.0001758425448297804678 $460 $639 forward 7 unknown #
point $-1 -0.0001525482931423325012 -7.116534067890003504e-05 0.6066856895092044288 #
surf-twe-attrib $-1 $-1 $-1 $465 352 #
coedge $-1 $473 $467 $640 $641 forward $566 $-1 #
loop $642 $-1 $565 $643 #
edge_name-twe-attrib $-1 $-1 $-1 $468 26 24576 #
vertex $-1 $562 $644 #
ellipse-curve $645 -0.4487999999999999767 -0.2314390661930899873 0.4543343294019129841 -0.8675277833928960458 -0.4047105934898149737 -0.2891450856551610049 -0.008455381050250959304 0.01812474913743790036 0 1 I I #
face_name-twe-attrib $-1 $-1 $-1 $470 27 #
cone-surface $646 0.008455381050250999203 -0.01812474913743800098 0.6067365335168910523 0.8675277833928948246 0.4047105934898169166 0.2891450856551619486 -0.00845538105025098706 0.01812474913743791771 0 1 I I 0 1 0.01999999999999998307 forward I I I I #
coedge $-1 $606 $605 $472 $573 reversed $533 $-1 #
edge $647 $575 -0.1425348021245510244 $578 -0.01897386831764102944 $472 $648 reversed 7 unknown #
edge_name-twe-attrib $-1 $-1 $-1 $474 67 24576 #
vertex $-1 $573 $649 #
ellipse-curve $650 -0.4487999999999999767 -0.2314390661930899873 0.4543343294019129841 -3.161974109035129764e-16 1 9.486934158820309157e-16 -0.006323948218070260009 -2.000000000000000143e-17 0.01897386831764059922 1 I I #
edge_name-twe-attrib $-1 $-1 $-1 $476 65 24576 #
vertex $-1 $651 $652 #
ellipse-curve $653 -0.4487999999999999767 -0.3549999999999999822 0.4543343294019129841 -2.999999999999999839e-15 -1 0 -0.02000000000000000042 6.000000000000000121e-17 0 1 I I #
edge $654 $578 -1.570796326794896558 $481 0 $545 $655 forward 7 unknown #
loop_type-twe-attrib $-1 $-1 $-1 $479 0 #
face $656 $643 $479 $3 $-1 $657 forward single #
point $-1 -0.4487999999999999767 -0.375 0.4543343294019120959 #
cur-twe-attrib $-1 $-1 $-1 $482 367 #
face_name-twe-attrib $-1 $-1 $-1 $484 19 #
face $658 $659 $660 $3 $-1 $661 reversed single #
loop $662 $663 $664 $484 #
cone-surface $665 1.281199999999999894 -0.375 0.3125 0 1 0 0.125 0 0 1 I I 0 1 0.125 forward I I I I #
loop_type-twe-attrib $-1 $-1 $-1 $485 0 #
loop $666 $-1 $667 $360 #
coedge $-1 $591 $591 $631 $668 forward $485 $-1 #
surf-twe-attrib $-1 $-1 $-1 $486 372 #
coedge $-1 $551 $496 $669 $621 forward $361 $-1 #
edge_name-twe-attrib $-1 $-1 $-1 $499 19 24576 #
straight-curve $-1 1.387778780781445676e-17 -3.816391647148975608e-17 0.018263466483108972 0.8675277833928948246 0.4047105934898168611 -0.2891450856551619486 I I #
edge_name-twe-attrib $-1 $-1 $-1 $501 3 8448 #
straight-curve $-1 0 0 0.15625 0 0 -1 I I #
loop_type-twe-attrib $-1 $-1 $-1 $503 1 #
loop $670 $-1 $671 $286 #
coedge $-1 $600 $600 $672 $673 forward $503 $-1 #
cur-twe-attrib $-1 $-1 $-1 $506 397 #
loop_type-twe-attrib $-1 $-1 $-1 $508 0 #
coedge $-1 $640 $611 $606 $674 forward $508 $-1 #
surf-twe-attrib $-1 $-1 $-1 $509 402 #
coedge $-1 $572 $512 $616 $651 reversed $533 $-1 #
coedge $-1 $512 $572 $603 $674 reversed $533 $-1 #
edge_name-twe-attrib $-1 $-1 $-1 $513 72 24576 #
straight-curve $-1 -0.4687999999999999945 -0.2314390661930899873 0.1706656705980869881 0 -1 0 I I #
point $-1 -0.4687999999999999945 -0.3549999999999999822 0.1706656705980869881 #
cur-twe-attrib $-1 $-1 $-1 $516 414 #
coedge $-1 $603 $669 $517 $612 reversed $508 $-1 #
edge $675 $519 -1.134297628132828528 $530 -1.355252715606910716e-15 $611 $676 forward 7 unknown #
point $-1 -0.4687999999999999945 -0.2314390661930899873 0.1706656705980869604 #
cur-twe-attrib $-1 $-1 $-1 $520 416 #
surf-twe-attrib $-1 $-1 $-1 $522 418 #
coedge $-1 $523 $545 $605 $651 forward $546 $-1 #
edge_name-twe-attrib $-1 $-1 $-1 $524 69 24576 #
ellipse-curve $677 -0.4487999999999999767 -0.3549999999999999822 0.1706656705980869881 0 0 -1 -0.02000000000000000042 0 0 1 I I #
face_name-twe-attrib $-1 $-1 $-1 $526 11 #
torus-surface $678 -0.4487999999999999767 -0.3549999999999999822 0.1706656705980869881 -0.5847232632179462097 2.000000000000000944e-15 0.8112328306052192239 0 0.02000000000000000042 0.8112328306052192239 0 0.5847232632179462097 forward_v I I I I #
edge $679 $530 -0.3019321252869349159 $568 -0.01826346648310911425 $669 $680 reversed 7 unknown #
point $-1 -0.4572553810502508198 -0.2133143170556524859 0.1706656705980870992 #
cur-twe-attrib $-1 $-1 $-1 $531 427 #
loop_type-twe-attrib $-1 $-1 $-1 $533 0 #
surf-twe-attrib $-1 $-1 $-1 $534 433 #
loop_type-twe-attrib $-1 $-1 $-1 $537 0 #
loop $681 $-1 $682 $628 #
face $683 $543 $537 $3 $-1 $684 reversed single #
point $-1 1.426199999999999912 -0.375 0.3125 #
loop_type-twe-attrib $-1 $-1 $-1 $542 1 #
coedge $-1 $631 $631 $591 $668 reversed $542 $-1 #
face_name-twe-attrib $-1 $-1 $-1 $543 23 #
cone-surface $685 0.4687000000000000055 -0.375 0.3125 0 -1 0 -0.1606499999999999873 0 1.606500000000000072e-16 1 I I 0.7071067811865470176 0.7071067811865480168 0.1606499999999999873 forward I I I I #
loop_type-twe-attrib $-1 $-1 $-1 $546 0 #
face_name-twe-attrib $-1 $-1 $-1 $559 38 #
cone-surface $686 -0.4487999999999999767 -0.3549999999999999822 0.15625 0 0 1 -0.02000000000000000042 0 0 1 I I 0 1 0.02000000000000000042 forward I I I I #
surf-twe-attrib $-1 $-1 $-1 $560 476 #
edge_name-twe-attrib $-1 $-1 $-1 $562 25 24576 #
straight-curve $-1 -3.469446951953614189e-18 -4.163336342344337027e-17 0.6067365335168910523 0.8675277833928948246 0.4047105934898168611 0.2891450856551619486 I I #
coedge $-1 $669 $603 $565 $641 reversed $508 $-1 #
edge $687 $568 -1.134297628132828972 $575 0 $640 $688 forward 7 unknown #
loop_type-twe-attrib $-1 $-1 $-1 $566 0 #
face $689 $93 $566 $3 $-1 $690 forward single #
point $-1 -0.4572553810502508198 -0.2133143170556524026 0.4543343294019129286 #
cur-twe-attrib $-1 $-1 $-1 $569 487 #
surf-twe-attrib $-1 $-1 $-1 $571 489 #
edge_name-twe-attrib $-1 $-1 $-1 $573 64 24576 #
straight-curve $-1 -0.4687999999999999945 -0.3739738683176410117 0.4543343294019129841 0 1 0 I I #
point $-1 -0.4687999999999999945 -0.2314390661930899873 0.4543343294019129841 #
cur-twe-attrib $-1 $-1 $-1 $576 494 #
edge $691 $578 -0.2980843294019129841 $515 -0.01441567059808698814 $616 $692 reversed 7 unknown #
point $-1 -0.4687999999999999945 -0.3549999999999999822 0.4543343294019129841 #
cur-twe-attrib $-1 $-1 $-1 $579 496 #
edge_name-twe-attrib $-1 $-1 $-1 $580 71 24576 #
ellipse-curve $693 -0.4487999999999999767 -0.3549999999999999822 0.4543343294019129841 0 0 1 0 -0.02000000000000000042 0 1 I I #
face_name-twe-attrib $-1 $-1 $-1 $582 12 #
torus-surface $694 -0.4487999999999999767 -0.3549999999999999822 0.4543343294019129841 -0.7071067811865480168 0.7071067811865470176 0 0 0.02000000000000000042 0 0 1 forward_v I I I I #
face_name-twe-attrib $-1 $-1 $-1 $586 20 #
face $695 $628 $696 $3 $-1 $697 reversed single #
loop $698 $699 $672 $586 #
cone-surface $700 0.4687000000000000055 0 0.3125 0 1 0 0.1606499999999999873 0 0 1 I I 0.7071067811865470176 0.7071067811865480168 0.1606499999999999873 forward I I I I #
loop_type-twe-attrib $-1 $-1 $-1 $587 0 #
loop $701 $-1 $702 $484 #
coedge $-1 $664 $664 $682 $703 forward $587 $-1 #
surf-twe-attrib $-1 $-1 $-1 $588 505 #
loop_type-twe-attrib $-1 $-1 $-1 $590 1 #
coedge $-1 $667 $667 $704 $705 reversed $590 $-1 #
edge $706 $707 -6.283185307179586232 $707 -0 $631 $708 reversed 7 unknown #
coedge $-1 $611 $640 $593 $621 reversed $508 $-1 #
loop_type-twe-attrib $-1 $-1 $-1 $599 1 #
coedge $-1 $671 $671 $709 $710 forward $599 $-1 #
coedge $-1 $672 $672 $600 $673 reversed $660 $-1 #
edge $711 $712 0 $712 6.283185307179586232 $672 $713 forward 7 unknown #
edge $714 $519 -0.3019321252869350269 $575 -0.01826346648310900322 $603 $715 reversed 7 unknown #
edge_name-twe-attrib $-1 $-1 $-1 $612 24 24576 #
ellipse-curve $716 -0.4487999999999999767 -0.2314390661930899873 0.1706656705980869881 0 0 -1 -0.008455381050250999203 0.01812474913743790036 0 1 I I #
cur-twe-attrib $-1 $-1 $-1 $618 547 #
surf-twe-attrib $-1 $-1 $-1 $620 549 #
edge_name-twe-attrib $-1 $-1 $-1 $621 23 24576 #
straight-curve $-1 -0.4572553810502508198 -0.2133143170556524026 0.4725977958850220428 0 0 -1 I I #
loop_type-twe-attrib $-1 $-1 $-1 $627 1 #
coedge $-1 $682 $682 $664 $703 reversed $627 $-1 #
face_name-twe-attrib $-1 $-1 $-1 $628 22 #
cone-surface $717 1.281199999999999894 -0.375 0.3125 0 -1 0 0.14499999999999999 0 0 1 I I 0.7071067811865470176 0.7071067811865480168 0.14499999999999999 forward I I I I #
surf-twe-attrib $-1 $-1 $-1 $633 566 #
surf-twe-attrib $-1 $-1 $-1 $636 588 #
edge_name-twe-attrib $-1 $-1 $-1 $641 22 24576 #
ellipse-curve $718 -0.4487999999999999767 -0.2314390661930899873 0.4543343294019129841 0 0 1 -0.02000000000000000042 0 0 1 I I #
face_name-twe-attrib $-1 $-1 $-1 $643 13 #
torus-surface $719 -0.4487999999999999767 -0.2314390661930899873 0.4543343294019129841 -0.5847232632179462097 -1.000000000000000472e-15 -0.8112328306052192239 0 0.02000000000000000042 -0.8112328306052192239 0 0.5847232632179462097 forward_v I I I I #
edge_name-twe-attrib $-1 $-1 $-1 $651 68 24576 #
straight-curve $-1 -0.4687999999999999945 -0.3549999999999999822 0.15625 0 0 1 I I #
cur-twe-attrib $-1 $-1 $-1 $655 610 #
surf-twe-attrib $-1 $-1 $-1 $657 612 #
face_name-twe-attrib $-1 $-1 $-1 $659 21 #
loop $720 $721 $709 $659 #
cone-surface $722 1.281199999999999894 0 0.3125 0 1 0 0.14499999999999999 0 0 1 I I 0.7071067811865470176 0.7071067811865480168 0.14499999999999999 forward I I I I #
loop_type-twe-attrib $-1 $-1 $-1 $660 0 #
loop $723 $-1 $704 $586 #
surf-twe-attrib $-1 $-1 $-1 $661 616 #
loop_type-twe-attrib $-1 $-1 $-1 $663 1 #
coedge $-1 $702 $702 $724 $725 reversed $663 $-1 #
edge $726 $727 -6.283185307179586232 $727 -0 $682 $728 reversed 7 unknown #
coedge $-1 $704 $704 $667 $705 forward $699 $-1 #
edge $729 $730 -3.141592653589793116 $730 3.141592653589793116 $704 $731 forward 7 unknown #
edge_name-twe-attrib $-1 $-1 $-1 $668 11 8448 #
vertex $-1 $668 $732 #
ellipse-curve $-1 0.4687000000000000055 -0.3549999999999999822 0.3125 0 1 0 0.1406499999999999972 0 0 1 I I #
coedge $-1 $709 $709 $671 $710 reversed $696 $-1 #
edge $733 $734 0 $734 6.283185307179586232 $709 $735 forward 7 unknown #
edge_name-twe-attrib $-1 $-1 $-1 $673 4 8448 #
vertex $-1 $673 $736 #
ellipse-curve $-1 0.4687000000000000055 0 0.3125 -0 -1 -0 0.1606499999999999873 0 0 1 I I #
edge_name-twe-attrib $-1 $-1 $-1 $674 21 24576 #
straight-curve $-1 -0.4687999999999999945 -0.2314390661930899873 0.4725977958850219873 0 0 -1 I I #
cur-twe-attrib $-1 $-1 $-1 $676 644 #
surf-twe-attrib $-1 $-1 $-1 $684 660 #
cur-twe-attrib $-1 $-1 $-1 $688 678 #
surf-twe-attrib $-1 $-1 $-1 $690 680 #
loop_type-twe-attrib $-1 $-1 $-1 $696 0 #
loop $737 $-1 $724 $659 #
surf-twe-attrib $-1 $-1 $-1 $697 696 #
loop_type-twe-attrib $-1 $-1 $-1 $699 1 #
coedge $-1 $724 $724 $702 $725 forward $721 $-1 #
edge $738 $739 -3.141592653589793116 $739 3.141592653589793116 $724 $740 forward 7 unknown #
edge_name-twe-attrib $-1 $-1 $-1 $703 9 8448 #
vertex $-1 $703 $741 #
ellipse-curve $-1 1.281199999999999894 -0.3549999999999999822 0.3125 0 1 0 0.125 0 0 1 I I #
edge_name-twe-attrib $-1 $-1 $-1 $705 5 8448 #
vertex $-1 $705 $742 #
ellipse-curve $-1 0.4687000000000000055 -0.02000000000000001776 0.3125 -0 -1 -0 0.1406499999999999972 0 0 1 I I #
point $-1 0.6093499999999999472 -0.3549999999999999822 0.3125 #
edge_name-twe-attrib $-1 $-1 $-1 $710 6 8448 #
vertex $-1 $710 $743 #
ellipse-curve $-1 1.281199999999999894 0 0.3125 -0 -1 -0 0.14499999999999999 0 0 1 I I #
point $-1 0.629349999999999965 0 0.3125 #
loop_type-twe-attrib $-1 $-1 $-1 $721 1 #
edge_name-twe-attrib $-1 $-1 $-1 $725 7 8448 #
vertex $-1 $725 $744 #
ellipse-curve $-1 1.281199999999999894 -0.02000000000000001776 0.3125 -0 -1 -0 0.125 0 0 1 I I #
point $-1 1.406199999999999894 -0.3549999999999999822 0.3125 #
point $-1 0.3280500000000000083 -0.02000000000000000042 0.3125 #
point $-1 1.426199999999999912 0 0.3125 #
point $-1 1.156199999999999894 -0.02000000000000000042 0.3125 #
End-of-ACIS-data 