104 796 0 0                             
body $-1 $1 $-1 $2 #
lump $-1 $-1 $3 $0 #
transform $-1 1 0 0 0 1 0 0 0 1 0 0 0 1 0 0 0 #
shell $-1 $-1 $-1 $4 $1 #
face $5 $6 $7 $3 $-1 $8 1 #
face_name-twe-attrib $-1 $-1 $-1 $4 1 #
face $9 $10 $11 $3 $-1 $12 0 #
loop $13 $-1 $14 $4 #
plane-surface $15 0 0 0 0 0 1 1 0 0 0 #
face_name-twe-attrib $-1 $-1 $-1 $6 2 #
face $16 $17 $18 $3 $-1 $19 0 #
loop $20 $-1 $21 $6 #
plane-surface $22 0 0 0.625 0 0 1 1 0 0 0 #
loop_type-twe-attrib $-1 $-1 $-1 $7 0 #
coedge $-1 $23 $24 $25 $26 1 $7 $-1 #
surf-twe-attrib $-1 $-1 $-1 $8 4 #
face_name-twe-attrib $-1 $-1 $-1 $10 3 #
face $27 $28 $29 $3 $-1 $30 0 #
loop $31 $-1 $32 $10 #
torus-surface $33 1.5112 -0.355 0.605 0 0.707106781186547 0.707106781186548 0 0.02 1 0 0 0 #
loop_type-twe-attrib $-1 $-1 $-1 $11 0 #
coedge $-1 $34 $35 $36 $37 0 $11 $-1 #
surf-twe-attrib $-1 $-1 $-1 $12 6 #
coedge $-1 $38 $14 $39 $40 0 $7 $-1 #
coedge $-1 $14 $38 $41 $42 0 $7 $-1 #
coedge $-1 $43 $44 $14 $26 0 $45 $-1 #
edge $46 $47 $48 $25 $49 0 #
face_name-twe-attrib $-1 $-1 $-1 $17 4 #
face $50 $51 $52 $3 $-1 $53 0 #
loop $54 $-1 $55 $17 #
torus-surface $56 1.5112 -0.02 0.605 -0.707106781186547 0 0.707106781186548 0 0.02 0.707106781186548 0 0.707106781186547 0 #
loop_type-twe-attrib $-1 $-1 $-1 $18 0 #
coedge $-1 $57 $58 $59 $60 0 $18 $-1 #
surf-twe-attrib $-1 $-1 $-1 $19 10 #
coedge $-1 $61 $21 $62 $63 1 $11 $-1 #
coedge $-1 $21 $61 $64 $65 1 $11 $-1 #
coedge $-1 $66 $67 $21 $37 1 $68 $-1 #
edge $69 $70 $71 $36 $72 0 #
coedge $-1 $24 $23 $73 $74 0 $7 $-1 #
coedge $-1 $75 $76 $23 $40 1 $77 $-1 #
edge $78 $47 $79 $39 $80 0 #
coedge $-1 $81 $82 $24 $42 1 $83 $-1 #
edge $84 $85 $48 $41 $86 0 #
coedge $-1 $87 $25 $88 $89 1 $45 $-1 #
coedge $-1 $25 $90 $75 $91 1 $45 $-1 #
loop $92 $-1 $25 $93 #
edge_name-twe-attrib $-1 $-1 $-1 $26 1 8448 #
vertex $-1 $40 $94 #
vertex $-1 $89 $95 #
straight-curve $96 0 -0.355 0 0 -1 0 #
face_name-twe-attrib $-1 $-1 $-1 $28 5 #
face $97 $98 $99 $3 $-1 $100 0 #
loop $101 $102 $103 $28 #
plane-surface $104 0 -0.375 0 0 -1 0 0 0 -1 0 #
loop_type-twe-attrib $-1 $-1 $-1 $29 0 #
coedge $-1 $105 $106 $107 $108 0 $29 $-1 #
surf-twe-attrib $-1 $-1 $-1 $30 17 #
coedge $-1 $58 $32 $109 $110 0 $18 $-1 #
coedge $-1 $32 $57 $111 $112 0 $18 $-1 #
coedge $-1 $113 $114 $32 $60 1 $115 $-1 #
edge $116 $117 $118 $59 $119 0 #
coedge $-1 $35 $34 $114 $120 1 $11 $-1 #
coedge $-1 $121 $109 $34 $63 0 $122 $-1 #
edge $123 $118 $71 $62 $124 0 #
coedge $-1 $107 $125 $35 $65 0 $126 $-1 #
edge $127 $70 $128 $64 $129 0 #
coedge $-1 $130 $36 $125 $131 1 $68 $-1 #
coedge $-1 $36 $132 $133 $134 0 $68 $-1 #
loop $135 $-1 $36 $136 #
edge_name-twe-attrib $-1 $-1 $-1 $37 2 8448 #
vertex $-1 $65 $137 #
vertex $-1 $134 $138 #
straight-curve $139 0 -0.355 0.625 0 -1 0 #
coedge $-1 $140 $141 $38 $74 1 $142 $-1 #
edge $143 $79 $85 $73 $144 0 #
coedge $-1 $145 $39 $44 $91 0 $77 $-1 #
coedge $-1 $39 $146 $147 $148 1 $77 $-1 #
loop $149 $-1 $39 $150 #
edge_name-twe-attrib $-1 $-1 $-1 $40 12 24576 #
vertex $-1 $74 $151 #
straight-curve $152 1.5112 -0.02 0 1 -4.59164498670409e-18 0 #
coedge $-1 $153 $41 $154 $155 1 $83 $-1 #
coedge $-1 $41 $153 $156 $157 0 $83 $-1 #
loop $158 $-1 $41 $159 #
edge_name-twe-attrib $-1 $-1 $-1 $42 50 24576 #
vertex $-1 $42 $160 #
straight-curve $161 0 -0.355 0 -1 0 0 #
coedge $-1 $90 $43 $162 $163 0 $45 $-1 #
coedge $-1 $156 $164 $43 $89 0 $165 $-1 #
edge $166 $167 $48 $88 $168 0 #
coedge $-1 $44 $87 $169 $170 0 $45 $-1 #
edge $171 $47 $172 $75 $173 0 #
loop_type-twe-attrib $-1 $-1 $-1 $45 0 #
face $174 $175 $45 $3 $-1 $176 0 #
point $-1 0 -0.02 0 #
point $-1 0 -0.355 0 #
cur-twe-attrib $-1 $-1 $-1 $49 26 #
face_name-twe-attrib $-1 $-1 $-1 $51 6 #
face $177 $178 $179 $3 $-1 $180 0 #
loop $181 $-1 $182 $51 #
torus-surface $183 1.5112 -0.355 0.02 0 -0.707106781186547 0.707106781186548 0 0.02 1 0 0 0 #
loop_type-twe-attrib $-1 $-1 $-1 $52 0 #
loop $184 $185 $186 $28 #
coedge $-1 $187 $188 $153 $189 1 $52 $-1 #
surf-twe-attrib $-1 $-1 $-1 $53 28 #
coedge $-1 $106 $55 $190 $191 0 $29 $-1 #
coedge $-1 $55 $105 $192 $193 0 $29 $-1 #
coedge $-1 $194 $64 $55 $108 1 $126 $-1 #
edge $195 $196 $128 $107 $197 0 #
coedge $-1 $62 $198 $57 $110 1 $122 $-1 #
edge $199 $118 $200 $109 $201 0 #
coedge $-1 $202 $203 $58 $112 1 $204 $-1 #
edge $205 $200 $117 $111 $206 0 #
coedge $-1 $190 $59 $207 $208 1 $115 $-1 #
coedge $-1 $59 $190 $61 $120 0 $115 $-1 #
loop $209 $-1 $114 $210 #
edge_name-twe-attrib $-1 $-1 $-1 $60 39 24576 #
vertex $-1 $211 $212 #
vertex $-1 $63 $213 #
ellipse-curve $214 1.5112 -0.355 0.605 0 -1 3e-15 0 6e-17 0.02 1 #
edge $215 $128 $118 $114 $216 0 #
coedge $-1 $198 $62 $217 $218 0 $122 $-1 #
loop $219 $-1 $62 $220 #
edge_name-twe-attrib $-1 $-1 $-1 $63 57 24576 #
straight-curve $221 0 -0.355 0.625 -1 -3.67331598936328e-17 0 #
coedge $-1 $64 $222 $66 $131 0 $126 $-1 #
loop $223 $-1 $64 $224 #
edge_name-twe-attrib $-1 $-1 $-1 $65 28 24576 #
vertex $-1 $120 $225 #
straight-curve $226 1.5112 -0.02 0.625 1 0 0 #
coedge $-1 $132 $66 $227 $228 1 $68 $-1 #
edge $229 $230 $70 $125 $231 0 #
coedge $-1 $67 $130 $232 $233 0 $68 $-1 #
coedge $-1 $234 $217 $67 $134 1 $235 $-1 #
edge $236 $237 $71 $133 $238 0 #
loop_type-twe-attrib $-1 $-1 $-1 $68 0 #
face $239 $240 $68 $3 $-1 $241 0 #
point $-1 0 -0.02 0.625 #
point $-1 0 -0.355 0.625 #
cur-twe-attrib $-1 $-1 $-1 $72 37 #
coedge $-1 $242 $73 $243 $244 1 $142 $-1 #
coedge $-1 $73 $242 $245 $246 1 $142 $-1 #
loop $247 $-1 $73 $248 #
edge_name-twe-attrib $-1 $-1 $-1 $74 42 24576 #
straight-curve $249 1.5112 -0.355 0 0 -1 0 #
coedge $-1 $250 $75 $251 $252 0 $77 $-1 #
coedge $-1 $76 $250 $253 $254 0 $77 $-1 #
coedge $-1 $255 $243 $76 $148 0 $256 $-1 #
edge $257 $79 $258 $76 $259 0 #
loop_type-twe-attrib $-1 $-1 $-1 $77 0 #
face $260 $261 $77 $3 $-1 $262 0 #
point $-1 1.5112 -0.02 0 #
cur-twe-attrib $-1 $-1 $-1 $80 40 #
coedge $-1 $82 $81 $103 $189 0 $83 $-1 #
coedge $-1 $245 $182 $81 $155 0 $99 $-1 #
edge $263 $264 $85 $81 $265 0 #
coedge $-1 $266 $88 $82 $157 1 $165 $-1 #
edge $267 $268 $48 $156 $269 0 #
loop_type-twe-attrib $-1 $-1 $-1 $83 0 #
face $270 $271 $83 $3 $-1 $272 0 #
point $-1 1.5112 -0.355 0 #
cur-twe-attrib $-1 $-1 $-1 $86 42 #
coedge $-1 $273 $274 $87 $163 1 $275 $-1 #
edge $276 $167 $277 $162 $278 0 #
coedge $-1 $88 $266 $279 $280 1 $165 $-1 #
loop $281 $-1 $266 $271 #
edge_name-twe-attrib $-1 $-1 $-1 $89 55 24576 #
vertex $-1 $163 $282 #
straight-curve $283 0 -0.355 0 0.94869341588203 0 -0.316197410903513 #
coedge $-1 $284 $251 $90 $170 1 $285 $-1 #
edge $286 $277 $172 $169 $287 0 #
edge_name-twe-attrib $-1 $-1 $-1 $91 13 8448 #
vertex $-1 $170 $288 #
intcurve-curve $289 0 { exactcur nubs 3 open 4 
	0 3 0.00028431901348705 1 0.000570003539819887 1 0.000857836982146448 3 
	0 -0.02 0 
	0 -0.0199052269955043 0 
	-4.05534084336292e-06 -0.0197151971826375 1.35163610682526e-06 
	-2.23472494719387e-05 -0.0194298154026007 7.44828867352367e-06 
	-4.26865496989628e-05 -0.0192397716638537 1.42273323174163e-05 
	-5.4897037985e-05 -0.0191446944075 1.8297060975e-05 
	0 
	null_surface 
	null_surface 
	nullbs 
	nullbs 
	} #
face_name-twe-attrib $-1 $-1 $-1 $93 14 #
face $290 $136 $291 $3 $-1 $292 0 #
plane-surface $293 -0.2344 -0.242175 0.078125 -0.316197410903514 0 -0.94869341588203 -0.94869341588203 0 0.316197410903514 0 #
face_name-twe-attrib $-1 $-1 $-1 $98 7 #
face $294 $295 $256 $3 $-1 $296 0 #
loop $297 $-1 $298 $98 #
plane-surface $299 1.5312 -0.375 0 1 0 0 0 0 -1 0 #
loop_type-twe-attrib $-1 $-1 $-1 $99 0 #
coedge $-1 $154 $245 $300 $301 0 $99 $-1 #
surf-twe-attrib $-1 $-1 $-1 $100 51 #
loop_type-twe-attrib $-1 $-1 $-1 $102 1 #
loop $302 $-1 $303 $28 #
coedge $-1 $186 $186 $304 $305 1 $102 $-1 #
coedge $-1 $306 $103 $202 $307 1 $52 $-1 #
coedge $-1 $103 $308 $266 $309 0 $52 $-1 #
edge $310 $264 $268 $153 $311 0 #
coedge $-1 $114 $113 $105 $191 1 $115 $-1 #
edge $312 $128 $313 $190 $314 0 #
coedge $-1 $315 $316 $106 $193 1 $317 $-1 #
edge $318 $313 $196 $192 $319 0 #
coedge $-1 $320 $107 $321 $322 1 $126 $-1 #
edge_name-twe-attrib $-1 $-1 $-1 $108 29 24576 #
vertex $-1 $323 $324 #
ellipse-curve $325 1.5112 -0.02 0.605 1 0 0 0 0 0.02 1 #
coedge $-1 $109 $121 $306 $326 1 $122 $-1 #
edge_name-twe-attrib $-1 $-1 $-1 $110 59 24576 #
vertex $-1 $326 $327 #
ellipse-curve $328 1.5112 -0.355 0.605 1 -2.2e-14 0 -4.4e-16 -0.02 0 1 #
coedge $-1 $300 $111 $187 $307 0 $204 $-1 #
coedge $-1 $111 $300 $329 $211 1 $204 $-1 #
loop $330 $-1 $203 $331 #
edge_name-twe-attrib $-1 $-1 $-1 $112 47 24576 #
ellipse-curve $332 1.5112 -0.355 0.605 0 0 1 0.02 0 0 1 #
coedge $-1 $329 $333 $113 $208 0 $179 $-1 #
edge $334 $313 $117 $113 $335 0 #
loop_type-twe-attrib $-1 $-1 $-1 $115 0 #
face $336 $248 $115 $3 $-1 $337 0 #
edge $338 $117 $339 $203 $340 0 #
point $-1 1.5312 -0.355 0.605 #
point $-1 1.5112 -0.355 0.625 #
cur-twe-attrib $-1 $-1 $-1 $119 60 #
edge_name-twe-attrib $-1 $-1 $-1 $120 38 24576 #
straight-curve $341 1.5112 -0.355 0.625 0 -1 0 #
coedge $-1 $133 $342 $121 $218 1 $235 $-1 #
edge $343 $71 $344 $217 $345 0 #
loop_type-twe-attrib $-1 $-1 $-1 $122 0 #
face $346 $347 $122 $3 $-1 $348 0 #
cur-twe-attrib $-1 $-1 $-1 $124 63 #
coedge $-1 $125 $320 $349 $350 0 $126 $-1 #
loop_type-twe-attrib $-1 $-1 $-1 $126 0 #
face $351 $352 $126 $3 $-1 $353 0 #
point $-1 1.5112 -0.02 0.625 #
cur-twe-attrib $-1 $-1 $-1 $129 65 #
coedge $-1 $349 $354 $130 $228 0 $355 $-1 #
edge $356 $357 $230 $227 $358 0 #
edge_name-twe-attrib $-1 $-1 $-1 $131 33 8448 #
vertex $-1 $228 $359 #
intcurve-curve $360 0 { exactcur nubs 3 open 4 
	0 3 0.000287833432978195 1 0.00057351795946142 1 0.000857836982146436 3 
	-5.4897037985e-05 -0.0191446944075 0.624981702939025 
	-4.268655009551e-05 -0.0192397716607658 0.62498577266755 
	-2.23472500656433e-05 -0.0194298153964441 0.624992551711129 
	-4.05534104121202e-06 -0.0197151971764528 0.624998648363826 
	0 -0.0199052269924383 0.625 
	0 -0.02 0.625 
	0 
	null_surface 
	null_surface 
	nullbs 
	nullbs 
	} #
coedge $-1 $361 $362 $132 $233 1 $363 $-1 #
edge $364 $357 $237 $232 $365 0 #
coedge $-1 $342 $133 $366 $367 1 $235 $-1 #
loop $368 $-1 $133 $347 #
edge_name-twe-attrib $-1 $-1 $-1 $134 60 24576 #
vertex $-1 $233 $369 #
straight-curve $370 0 -0.355 0.625 0.94869341588203 0 0.316197410903513 #
face_name-twe-attrib $-1 $-1 $-1 $136 16 #
face $371 $372 $373 $3 $-1 $374 0 #
plane-surface $375 -0.2344 -0.242175 0.546875 -0.316197410903514 0 0.94869341588203 0.94869341588203 0 0.316197410903514 0 #
coedge $-1 $141 $140 $298 $376 0 $142 $-1 #
coedge $-1 $147 $255 $140 $244 0 $256 $-1 #
edge $377 $378 $79 $140 $379 0 #
coedge $-1 $182 $154 $141 $246 0 $99 $-1 #
edge $380 $85 $339 $141 $381 0 #
loop_type-twe-attrib $-1 $-1 $-1 $142 0 #
face $382 $331 $142 $3 $-1 $383 0 #
cur-twe-attrib $-1 $-1 $-1 $144 74 #
coedge $-1 $146 $145 $384 $385 0 $77 $-1 #
coedge $-1 $169 $386 $145 $252 1 $285 $-1 #
edge $387 $172 $388 $251 $389 0 #
coedge $-1 $390 $391 $146 $254 1 $392 $-1 #
edge $393 $394 $258 $146 $395 0 #
coedge $-1 $243 $147 $396 $397 0 $256 $-1 #
loop $398 $-1 $255 $178 #
edge_name-twe-attrib $-1 $-1 $-1 $148 16 24576 #
vertex $-1 $323 $399 #
ellipse-curve $400 1.5112 -0.02 0.02 1 0 0 0 0.02 0 1 #
face_name-twe-attrib $-1 $-1 $-1 $150 24 #
face $401 $402 $285 $3 $-1 $403 0 #
cone-surface $404 1.5312 -0.02 0.02 1 0 0 0 0 -0.02 1 0 1 0 #
edge_name-twe-attrib $-1 $-1 $-1 $155 51 24576 #
vertex $-1 $189 $405 #
ellipse-curve $406 1.5112 -0.355 0.02 1 0 -2.2e-14 -4.4e-16 0 -0.02 1 #
coedge $-1 $164 $156 $188 $309 1 $165 $-1 #
edge_name-twe-attrib $-1 $-1 $-1 $157 56 8448 #
vertex $-1 $309 $407 #
intcurve-curve $408 0 { exactcur nubs 3 open 6 
	0 3 0.00638416109612249 1 0.012733558398598 1 0.0190331289324235 1 0.0252817561741735 1 
	0.0314918312172604 3 
	0.003245224808854 -0.375 0.02 
	0.00290438200017505 -0.375 0.0178994194315965 
	0.00221978450116157 -0.37432946180154 0.0136803126557316 
	0.00129899666601142 -0.37141803371553 0.00800558816429071 
	0.000571059857962231 -0.366904035184337 0.00351938550700217 
	0.000106450239906438 -0.361252299202869 0.000656042315564578 
	0 -0.357070025014362 0 
	0 -0.355 0 
	0 
	null_surface 
	null_surface 
	nullbs 
	nullbs 
	} #
face_name-twe-attrib $-1 $-1 $-1 $159 33 #
face $409 $220 $165 $3 $-1 $410 0 #
cone-surface $411 0 -0.355 0.02 -1 0 0 0 0 -0.02 1 0 1 0 #
coedge $-1 $412 $162 $413 $414 1 $275 $-1 #
coedge $-1 $162 $412 $415 $416 1 $275 $-1 #
loop $417 $-1 $412 $418 #
edge_name-twe-attrib $-1 $-1 $-1 $163 74 24576 #
vertex $-1 $163 $419 #
straight-curve $420 -0.45512394821807 -0.23143906619309 0.151691802280446 0 1 0 #
coedge $-1 $421 $413 $164 $280 0 $422 $-1 #
edge $423 $167 $424 $164 $425 0 #
loop_type-twe-attrib $-1 $-1 $-1 $165 0 #
point $-1 -0.45512394821807 -0.355 0.151691802280446 #
cur-twe-attrib $-1 $-1 $-1 $168 89 #
coedge $-1 $386 $169 $426 $427 1 $285 $-1 #
loop $428 $-1 $169 $261 #
edge_name-twe-attrib $-1 $-1 $-1 $170 17 24576 #
straight-curve $429 -5.4897037985e-05 -0.0191446944075 1.8297060975e-05 0.867527783392895 0.404710593489817 -0.289145085655161 #
point $-1 -5.4897037985e-05 -0.0191446944075 1.8297060975e-05 #
cur-twe-attrib $-1 $-1 $-1 $173 91 #
face_name-twe-attrib $-1 $-1 $-1 $175 15 #
loop $430 $-1 $426 $175 #
torus-surface $431 -0.4488 -0.23143906619309 0.170665670598087 0.584723263217946 0 -0.811232830605219 0 0.02 -0.811232830605219 0 -0.584723263217946 0 #
surf-twe-attrib $-1 $-1 $-1 $176 93 #
face_name-twe-attrib $-1 $-1 $-1 $178 8 #
face $432 $433 $392 $3 $-1 $434 0 #
torus-surface $435 1.5112 -0.02 0.02 0.707106781186547 0 0.707106781186548 0 0.02 0.707106781186548 0 -0.707106781186547 0 #
loop_type-twe-attrib $-1 $-1 $-1 $179 0 #
coedge $-1 $333 $329 $242 $376 1 $179 $-1 #
surf-twe-attrib $-1 $-1 $-1 $180 98 #
coedge $-1 $203 $202 $182 $301 1 $204 $-1 #
edge $436 $339 $264 $300 $437 0 #
loop_type-twe-attrib $-1 $-1 $-1 $185 1 #
coedge $-1 $303 $303 $438 $439 1 $185 $-1 #
coedge $-1 $304 $304 $186 $305 0 $440 $-1 #
edge $441 $442 $442 $304 $443 0 #
coedge $-1 $444 $187 $198 $326 0 $52 $-1 #
edge $445 $200 $264 $202 $446 0 #
coedge $-1 $188 $444 $447 $448 0 $52 $-1 #
edge $449 $424 $268 $266 $450 0 #
edge_name-twe-attrib $-1 $-1 $-1 $189 52 24576 #
straight-curve $451 0.003245224808854 -0.375 0.02 -1 0 0 #
edge_name-twe-attrib $-1 $-1 $-1 $191 41 24576 #
vertex $-1 $208 $452 #
ellipse-curve $453 1.5112 -0.02 0.605 0 1 0 0.02 0 0 1 #
coedge $-1 $396 $192 $333 $454 0 $317 $-1 #
coedge $-1 $192 $396 $391 $323 1 $317 $-1 #
loop $455 $-1 $316 $352 #
edge_name-twe-attrib $-1 $-1 $-1 $193 35 24576 #
ellipse-curve $456 1.5112 -0.02 0.605 0 0 1 0 0.02 0 1 #
coedge $-1 $222 $194 $457 $458 0 $126 $-1 #
coedge $-1 $391 $390 $194 $322 0 $392 $-1 #
edge $459 $460 $196 $194 $461 0 #
edge $462 $196 $258 $316 $463 0 #
point $-1 1.5112 0 0.605 #
cur-twe-attrib $-1 $-1 $-1 $197 108 #
edge $464 $200 $344 $198 $465 0 #
point $-1 1.5112 -0.375 0.605 #
cur-twe-attrib $-1 $-1 $-1 $201 110 #
coedge $-1 $298 $207 $203 $211 0 $179 $-1 #
loop_type-twe-attrib $-1 $-1 $-1 $204 0 #
face $466 $159 $204 $3 $-1 $467 0 #
cur-twe-attrib $-1 $-1 $-1 $206 112 #
coedge $-1 $207 $298 $315 $454 1 $179 $-1 #
edge_name-twe-attrib $-1 $-1 $-1 $208 40 24576 #
straight-curve $468 1.5312 -0.355 0.605 0 -1 0 #
face_name-twe-attrib $-1 $-1 $-1 $210 30 #
cone-surface $469 1.5112 -0.375 0.605 0 1 0 0 0 0.02 1 0 1 0 #
edge_name-twe-attrib $-1 $-1 $-1 $211 46 24576 #
vertex $-1 $211 $470 #
straight-curve $471 1.5312 -0.355 0.02 0 0 -1 #
cur-twe-attrib $-1 $-1 $-1 $216 120 #
coedge $-1 $217 $234 $444 $472 0 $235 $-1 #
edge_name-twe-attrib $-1 $-1 $-1 $218 63 8448 #
vertex $-1 $472 $473 #
intcurve-curve $474 0 { exactcur nubs 3 open 6 
	0 3 0.00621007504308693 1 0.0124587022848369 1 0.0187582728186624 1 0.0251076701211381 1 
	0.0314918312172604 3 
	0 -0.355 0.625 
	0 -0.357070025014362 0.625 
	0.000106450239906404 -0.361252299202869 0.624343957684436 
	0.000571059857962353 -0.366904035184337 0.621480614492998 
	0.00129899666601095 -0.37141803371553 0.616994411835709 
	0.00221978450116339 -0.374329461801539 0.611319687344268 
	0.00290438200017505 -0.375 0.607100580568403 
	0.003245224808854 -0.375 0.605 
	0 
	null_surface 
	null_surface 
	nullbs 
	nullbs 
	} #
face_name-twe-attrib $-1 $-1 $-1 $220 35 #
face $475 $476 $235 $3 $-1 $477 0 #
cone-surface $478 0 -0.355 0.605 1 0 0 0 0 0.02 1 0 1 0 #
coedge $-1 $479 $227 $222 $350 1 $355 $-1 #
edge $480 $481 $230 $222 $482 0 #
face_name-twe-attrib $-1 $-1 $-1 $224 28 #
face $483 $210 $317 $3 $-1 $484 0 #
cone-surface $485 1.5312 -0.02 0.605 -1 0 0 0 0 0.02 1 0 1 0 #
coedge $-1 $227 $479 $486 $487 1 $355 $-1 #
loop $488 $-1 $479 $489 #
edge_name-twe-attrib $-1 $-1 $-1 $228 27 24576 #
vertex $-1 $233 $490 #
straight-curve $491 -5.4897037985e-05 -0.0191446944075 0.624981702939025 0.867527783392895 0.404710593489817 0.289145085655161 #
point $-1 -5.4897037985e-05 -0.0191446944075 0.624981702939025 #
cur-twe-attrib $-1 $-1 $-1 $231 131 #
coedge $-1 $492 $232 $493 $494 1 $363 $-1 #
coedge $-1 $232 $492 $495 $496 1 $363 $-1 #
loop $497 $-1 $492 $476 #
edge_name-twe-attrib $-1 $-1 $-1 $233 66 24576 #
straight-curve $498 -0.45512394821807 -0.355 0.473308197719554 0 -1 0 #
coedge $-1 $495 $499 $234 $367 0 $500 $-1 #
edge $501 $502 $237 $234 $503 0 #
loop_type-twe-attrib $-1 $-1 $-1 $235 0 #
point $-1 -0.45512394821807 -0.355 0.473308197719554 #
cur-twe-attrib $-1 $-1 $-1 $238 134 #
face_name-twe-attrib $-1 $-1 $-1 $240 17 #
face $504 $505 $506 $3 $-1 $507 1 #
loop $508 $-1 $509 $240 #
plane-surface $510 -0.2344 -0.10935 0.3125 -0.42276905251255 0.906237456871895 0 0 0 1 0 #
surf-twe-attrib $-1 $-1 $-1 $241 136 #
edge $511 $378 $339 $242 $512 0 #
edge_name-twe-attrib $-1 $-1 $-1 $244 43 24576 #
vertex $-1 $376 $513 #
ellipse-curve $514 1.5112 -0.02 0.02 0 1 0 0 0 -0.02 1 #
edge_name-twe-attrib $-1 $-1 $-1 $246 45 24576 #
ellipse-curve $515 1.5112 -0.355 0.02 0 -1 0 0.02 0 0 1 #
face_name-twe-attrib $-1 $-1 $-1 $248 31 #
cone-surface $516 1.5112 -0.375 0.02 0 -1 0 0 0 -0.02 1 0 1 0 #
coedge $-1 $517 $509 $250 $385 1 $373 $-1 #
edge $518 $388 $394 $250 $519 0 #
coedge $-1 $251 $284 $517 $520 0 $285 $-1 #
edge_name-twe-attrib $-1 $-1 $-1 $252 20 8448 #
vertex $-1 $520 $521 #
intcurve-curve $522 0 { exactcur nubs 3 open 6 
	0 3 0.00588790427651637 1 0.0116811094845236 1 0.0174123288182708 1 0.0231325507198451 1 
	0.0289018284678093 3 
	-5.4897037985e-05 -0.0191446944075 1.8297060975e-05 
	-0.000304674081321091 -0.017199799541359 0.000101547195406015 
	-0.000810057088259552 -0.0133423545751511 0.000837833284771576 
	-0.00129073124207306 -0.00814114593192122 0.00354857855470875 
	-0.00138196959620081 -0.00395031890397975 0.00760749781398886 
	-0.00103186279505261 -0.00109439765281316 0.0126681554407005 
	-0.000494458267976704 -0.000230669844724111 0.0164285902136182 
	-0.000152548293142 -7.1165340679e-05 0.018314310490796 
	0 
	null_surface 
	null_surface 
	nullbs 
	nullbs 
	} #
coedge $-1 $321 $253 $509 $523 0 $392 $-1 #
coedge $-1 $253 $321 $316 $323 0 $392 $-1 #
loop $524 $525 $390 $295 #
edge_name-twe-attrib $-1 $-1 $-1 $254 15 24576 #
vertex $-1 $254 $526 #
straight-curve $527 1.5112 0 0.02 1 0 0 #
coedge $-1 $316 $315 $255 $397 1 $317 $-1 #
edge $528 $258 $378 $396 $529 0 #
loop_type-twe-attrib $-1 $-1 $-1 $256 0 #
point $-1 1.5112 0 0.02 #
cur-twe-attrib $-1 $-1 $-1 $259 148 #
face_name-twe-attrib $-1 $-1 $-1 $261 25 #
face $530 $489 $531 $3 $-1 $532 0 #
cone-surface $533 0.008455381050251 -0.018124749137438 0.018263466483109 0.867527783392895 0.404710593489817 -0.289145085655162 -0.00632394821807028 0 -0.0189738683176406 1 0 1 0 #
surf-twe-attrib $-1 $-1 $-1 $262 150 #
point $-1 1.5112 -0.375 0.02 #
cur-twe-attrib $-1 $-1 $-1 $265 155 #
point $-1 0.003245224808854 -0.375 0.02 #
cur-twe-attrib $-1 $-1 $-1 $269 157 #
face_name-twe-attrib $-1 $-1 $-1 $271 34 #
cone-surface $534 0.00632394821807 -0.355 0.018973868317641 0.94869341588203 0 -0.316197410903514 0 -0.02 0 1 0 1 0 #
surf-twe-attrib $-1 $-1 $-1 $272 159 #
coedge $-1 $274 $273 $535 $536 0 $275 $-1 #
coedge $-1 $279 $421 $273 $414 0 $422 $-1 #
edge $537 $538 $167 $273 $539 0 #
coedge $-1 $540 $426 $274 $416 0 $291 $-1 #
edge $541 $277 $542 $274 $543 0 #
loop_type-twe-attrib $-1 $-1 $-1 $275 0 #
face $544 $-1 $275 $3 $-1 $545 0 #
point $-1 -0.45512394821807 -0.23143906619309 0.151691802280446 #
cur-twe-attrib $-1 $-1 $-1 $278 163 #
coedge $-1 $413 $279 $546 $547 0 $422 $-1 #
loop $548 $-1 $421 $549 #
edge_name-twe-attrib $-1 $-1 $-1 $280 54 24576 #
vertex $-1 $448 $550 #
ellipse-curve $551 -0.4488 -0.355 0.170665670598087 -0.94869341588203 0 0.316197410903514 0 -0.02 0 1 #
coedge $-1 $415 $540 $284 $427 0 $291 $-1 #
edge $552 $553 $277 $284 $554 0 #
loop_type-twe-attrib $-1 $-1 $-1 $285 0 #
cur-twe-attrib $-1 $-1 $-1 $287 170 #
loop_type-twe-attrib $-1 $-1 $-1 $291 0 #
surf-twe-attrib $-1 $-1 $-1 $292 175 #
face_name-twe-attrib $-1 $-1 $-1 $295 9 #
face $555 $549 $556 $3 $-1 $557 0 #
plane-surface $558 1.5312 0 0 0 1 0 0 0 1 0 #
surf-twe-attrib $-1 $-1 $-1 $296 178 #
edge_name-twe-attrib $-1 $-1 $-1 $301 49 24576 #
ellipse-curve $559 1.5112 -0.355 0.02 0 0 -1 0 -0.02 0 1 #
coedge $-1 $438 $438 $303 $439 0 $560 $-1 #
edge $561 $562 $562 $438 $563 0 #
loop $564 $565 $304 $566 #
edge_name-twe-attrib $-1 $-1 $-1 $305 10 8448 #
vertex $-1 $305 $567 #
ellipse-curve $568 0.4687 -0.375 0.3125 0 -1 0 0.16065 0 0 1 #
coedge $-1 $308 $306 $342 $472 1 $52 $-1 #
edge_name-twe-attrib $-1 $-1 $-1 $307 48 24576 #
straight-curve $569 1.5112 -0.375 0.02 0 0 -1 #
coedge $-1 $570 $546 $308 $448 1 $571 $-1 #
edge $572 $502 $424 $447 $573 0 #
edge_name-twe-attrib $-1 $-1 $-1 $309 53 24576 #
straight-curve $574 0.003245224808854 -0.375 0.02 0.94869341588203 0 -0.316197410903513 #
cur-twe-attrib $-1 $-1 $-1 $311 189 #
point $-1 1.5312 -0.02 0.605 #
cur-twe-attrib $-1 $-1 $-1 $314 191 #
edge $575 $313 $378 $315 $576 0 #
loop_type-twe-attrib $-1 $-1 $-1 $317 0 #
cur-twe-attrib $-1 $-1 $-1 $319 193 #
coedge $-1 $509 $577 $320 $458 1 $373 $-1 #
edge $578 $460 $481 $320 $579 0 #
edge_name-twe-attrib $-1 $-1 $-1 $322 30 24576 #
vertex $-1 $322 $580 #
straight-curve $581 1.5112 0 0.605 1 0 0 #
edge_name-twe-attrib $-1 $-1 $-1 $323 34 24576 #
straight-curve $582 1.5112 0 0.02 0 0 -1 #
edge_name-twe-attrib $-1 $-1 $-1 $326 58 24576 #
straight-curve $583 0.003245224808854 -0.375 0.605 -1 0 0 #
face_name-twe-attrib $-1 $-1 $-1 $331 32 #
cone-surface $584 1.5112 -0.355 0 0 0 -1 0.02 0 0 1 0 1 0 #
cur-twe-attrib $-1 $-1 $-1 $335 208 #
surf-twe-attrib $-1 $-1 $-1 $337 210 #
point $-1 1.5312 -0.355 0.02 #
cur-twe-attrib $-1 $-1 $-1 $340 211 #
edge $585 $502 $344 $342 $586 0 #
point $-1 0.003245224808854 -0.375 0.605 #
cur-twe-attrib $-1 $-1 $-1 $345 218 #
face_name-twe-attrib $-1 $-1 $-1 $347 36 #
face $587 $588 $363 $3 $-1 $589 0 #
cone-surface $590 0.00632394821807 -0.355 0.606026131682359 0.94869341588203 0 0.316197410903514 -0.00632394821807028 0 0.0189738683176406 1 0 1 0 #
surf-twe-attrib $-1 $-1 $-1 $348 220 #
coedge $-1 $354 $349 $577 $591 1 $355 $-1 #
edge_name-twe-attrib $-1 $-1 $-1 $350 32 8448 #
vertex $-1 $591 $592 #
intcurve-curve $593 0 { exactcur nubs 3 open 6 
	0 3 0.00577009371075683 1 0.0114907928154797 1 0.0172229037842598 1 0.0230164238994868 1 
	0.0289018284378096 3 
	-0.000152548293142 -7.1165340679e-05 0.606685689509204 
	-0.000494506625124688 -0.000230692403828734 0.608571676488325 
	-0.00103195175422036 -0.00109459820799722 0.612332539509354 
	-0.00138201861726477 -0.00395116040479464 0.617393701696278 
	-0.00129064062236271 -0.00814277111689592 0.6214526668222 
	-0.000809857578186106 -0.0133439189401573 0.624162592716856 
	-0.000304568037271171 -0.0172006252558664 0.624898488148841 
	-5.4897037985e-05 -0.0191446944075 0.624981702939025 
	0 
	null_surface 
	null_surface 
	nullbs 
	nullbs 
	} #
face_name-twe-attrib $-1 $-1 $-1 $352 29 #
cone-surface $594 1.5112 -0.02 0 0 0 -1 0 0.02 0 1 0 1 0 #
surf-twe-attrib $-1 $-1 $-1 $353 224 #
coedge $-1 $595 $493 $354 $487 0 $596 $-1 #
edge $597 $357 $598 $354 $599 0 #
loop_type-twe-attrib $-1 $-1 $-1 $355 0 #
face $600 $224 $355 $3 $-1 $601 0 #
point $-1 -0.45512394821807 -0.23143906619309 0.473308197719554 #
cur-twe-attrib $-1 $-1 $-1 $358 228 #
coedge $-1 $362 $361 $602 $603 0 $363 $-1 #
coedge $-1 $486 $595 $361 $494 0 $596 $-1 #
edge $604 $605 $357 $361 $606 0 #
coedge $-1 $499 $366 $362 $496 0 $500 $-1 #
edge $607 $237 $608 $362 $609 0 #
loop_type-twe-attrib $-1 $-1 $-1 $363 0 #
cur-twe-attrib $-1 $-1 $-1 $365 233 #
coedge $-1 $366 $495 $570 $610 0 $500 $-1 #
loop $611 $-1 $495 $612 #
edge_name-twe-attrib $-1 $-1 $-1 $367 61 24576 #
vertex $-1 $448 $613 #
ellipse-curve $614 -0.4488 -0.355 0.454334329401913 -0.94869341588203 0 -0.316197410903513 -0.00632394821807026 0 0.0189738683176406 1 #
face_name-twe-attrib $-1 $-1 $-1 $372 18 #
face $615 $616 $617 $3 $-1 $618 1 #
loop $619 $620 $621 $372 #
cone-surface $622 0.4687 -0.375 0.3125 0 1 0 0.14065 0 0 1 0 1 0 #
loop_type-twe-attrib $-1 $-1 $-1 $373 0 #
coedge $-1 $384 $457 $390 $523 1 $373 $-1 #
surf-twe-attrib $-1 $-1 $-1 $374 240 #
edge_name-twe-attrib $-1 $-1 $-1 $376 44 24576 #
straight-curve $623 1.5312 -0.355 0.02 0 -1 0 #
point $-1 1.5312 -0.02 0.02 #
cur-twe-attrib $-1 $-1 $-1 $379 244 #
cur-twe-attrib $-1 $-1 $-1 $381 246 #
surf-twe-attrib $-1 $-1 $-1 $383 248 #
coedge $-1 $624 $384 $386 $520 1 $373 $-1 #
edge_name-twe-attrib $-1 $-1 $-1 $385 14 8448 #
intcurve-curve $625 0 { exactcur nubs 3 open 4 
	0 3 0.000572882646824521 1 0.00113737145396393 1 0.00169653109325006 3 
	-0.000152548293142 -7.1165340679e-05 0.018314310490796 
	-0.000118597025770988 -5.53267268265377e-05 0.0185015603461079 
	-6.20623150251201e-05 -2.89527054093477e-05 0.0188758464687754 
	-1.12423838929816e-05 -5.24468719582331e-06 0.0194389425620428 
	0 0 0.0198136134535713 
	0 0 0.02 
	0 
	null_surface 
	null_surface 
	nullbs 
	nullbs 
	} #
edge $626 $553 $388 $386 $627 0 #
point $-1 -0.000152548293142 -7.1165340679e-05 0.018314310490796 #
cur-twe-attrib $-1 $-1 $-1 $389 252 #
edge $628 $394 $460 $509 $629 0 #
loop_type-twe-attrib $-1 $-1 $-1 $392 0 #
loop $630 $631 $632 $295 #
point $-1 0 0 0.02 #
cur-twe-attrib $-1 $-1 $-1 $395 254 #
edge_name-twe-attrib $-1 $-1 $-1 $397 37 24576 #
ellipse-curve $633 1.5112 -0.02 0.02 0 0 -1 0.02 0 0 1 #
face_name-twe-attrib $-1 $-1 $-1 $402 26 #
loop $634 $-1 $635 $402 #
cone-surface $636 -0.4488 -0.23143906619309 0.472597795885022 0 0 -1 -0.02 0 0 1 0 1 0 #
surf-twe-attrib $-1 $-1 $-1 $403 261 #
surf-twe-attrib $-1 $-1 $-1 $410 271 #
coedge $-1 $637 $638 $412 $536 1 $556 $-1 #
edge $639 $538 $542 $412 $640 0 #
edge_name-twe-attrib $-1 $-1 $-1 $414 75 24576 #
vertex $-1 $536 $641 #
ellipse-curve $642 -0.4488 -0.355 0.170665670598087 9.48592232710539e-16 -1 2.84608024764609e-15 -0.00632394821807026 -6e-17 -0.0189738683176406 1 #
coedge $-1 $426 $415 $643 $644 0 $291 $-1 #
edge_name-twe-attrib $-1 $-1 $-1 $416 73 24576 #
vertex $-1 $536 $645 #
ellipse-curve $646 -0.4488 -0.23143906619309 0.170665670598087 0 1 0 -0.02 0 0 1 #
face_name-twe-attrib $-1 $-1 $-1 $418 39 #
cone-surface $647 -0.4488 -0.23143906619309 0.170665670598087 0 -1 0 -0.02 0 0 1 0 1 0 #
coedge $-1 $447 $648 $421 $547 1 $571 $-1 #
edge $649 $424 $538 $546 $650 0 #
loop_type-twe-attrib $-1 $-1 $-1 $422 0 #
face $651 $612 $422 $3 $-1 $652 0 #
point $-1 -0.4488 -0.375 0.170665670598087 #
cur-twe-attrib $-1 $-1 $-1 $425 280 #
edge_name-twe-attrib $-1 $-1 $-1 $427 18 24576 #
vertex $-1 $653 $654 #
ellipse-curve $655 -0.4488 -0.23143906619309 0.170665670598087 -0.867527783392895 -0.404710593489817 0.289145085655161 -0.00632394821807026 0 -0.0189738683176406 1 #
face_name-twe-attrib $-1 $-1 $-1 $433 10 #
loop $656 $-1 $535 $433 #
plane-surface $657 -0.4688 0 0 -1 0 0 0 0 1 0 #
surf-twe-attrib $-1 $-1 $-1 $434 295 #
cur-twe-attrib $-1 $-1 $-1 $437 301 #
loop $658 $659 $438 $660 #
edge_name-twe-attrib $-1 $-1 $-1 $439 8 8448 #
vertex $-1 $439 $661 #
ellipse-curve $662 1.2812 -0.375 0.3125 0 -1 0 0.145 0 0 1 #
loop_type-twe-attrib $-1 $-1 $-1 $440 0 #
loop $663 $-1 $664 $566 #
face $665 $150 $440 $3 $-1 $666 1 #
point $-1 0.62935 -0.375 0.3125 #
cur-twe-attrib $-1 $-1 $-1 $443 305 #
cur-twe-attrib $-1 $-1 $-1 $446 307 #
coedge $-1 $648 $447 $499 $610 1 $571 $-1 #
loop $667 $-1 $648 $588 #
edge_name-twe-attrib $-1 $-1 $-1 $448 70 24576 #
straight-curve $668 -0.4488 -0.375 0.170665670598087 0 0 -1 #
cur-twe-attrib $-1 $-1 $-1 $450 309 #
edge_name-twe-attrib $-1 $-1 $-1 $454 36 24576 #
straight-curve $669 1.5312 -0.02 0.02 0 1.18613571006961e-17 -1 #
coedge $-1 $457 $624 $479 $591 0 $373 $-1 #
edge_name-twe-attrib $-1 $-1 $-1 $458 31 8448 #
intcurve-curve $670 0 { exactcur nubs 3 open 4 
	0 3 0.000559159778037087 1 0.00112364858896079 1 0.00169653109325043 3 
	0 0 0.605 
	0 0 0.605186386592679 
	-1.1242388120482e-05 -5.24468916678708e-06 0.605561057531804 
	-6.20623276626232e-05 -2.89527113061147e-05 0.606124153624149 
	-0.00011859703421809 -5.53267307672276e-05 0.60649843970048 
	-0.000152548293142 -7.1165340679e-05 0.606685689509204 
	0 
	null_surface 
	null_surface 
	nullbs 
	nullbs 
	} #
point $-1 0 0 0.605 #
cur-twe-attrib $-1 $-1 $-1 $461 322 #
cur-twe-attrib $-1 $-1 $-1 $463 323 #
cur-twe-attrib $-1 $-1 $-1 $465 326 #
surf-twe-attrib $-1 $-1 $-1 $467 331 #
edge_name-twe-attrib $-1 $-1 $-1 $472 62 24576 #
straight-curve $671 0.003245224808854 -0.375 0.605 0.94869341588203 0 0.316197410903513 #
face_name-twe-attrib $-1 $-1 $-1 $476 37 #
face $672 $418 $571 $3 $-1 $673 0 #
cone-surface $674 -0.4488 -0.373973868317641 0.454334329401913 0 1 0 -0.02 0 0 1 0 1 0 #
surf-twe-attrib $-1 $-1 $-1 $477 347 #
edge $675 $598 $481 $479 $676 0 #
point $-1 -0.000152548293142 -7.1165340679e-05 0.606685689509204 #
cur-twe-attrib $-1 $-1 $-1 $482 350 #
surf-twe-attrib $-1 $-1 $-1 $484 352 #
coedge $-1 $493 $486 $677 $678 0 $596 $-1 #
loop $679 $-1 $595 $680 #
edge_name-twe-attrib $-1 $-1 $-1 $487 26 24576 #
vertex $-1 $591 $681 #
ellipse-curve $682 -0.4488 -0.23143906619309 0.454334329401913 -0.867527783392896 -0.404710593489815 -0.289145085655161 -0.00845538105025096 0.0181247491374379 0 1 #
face_name-twe-attrib $-1 $-1 $-1 $489 27 #
cone-surface $683 0.008455381050251 -0.018124749137438 0.606736533516891 0.867527783392895 0.404710593489817 0.289145085655162 -0.00845538105025098 0.0181247491374379 0 1 0 1 0 #
coedge $-1 $638 $637 $492 $603 1 $556 $-1 #
edge $684 $605 $608 $492 $685 0 #
edge_name-twe-attrib $-1 $-1 $-1 $494 67 24576 #
vertex $-1 $603 $686 #
ellipse-curve $687 -0.4488 -0.23143906619309 0.454334329401913 -3.16197410903513e-16 1 9.48693415882031e-16 -0.00632394821807026 -2e-17 0.0189738683176406 1 #
edge_name-twe-attrib $-1 $-1 $-1 $496 65 24576 #
vertex $-1 $688 $689 #
ellipse-curve $690 -0.4488 -0.355 0.454334329401913 -3e-15 -1 0 -0.02 6e-17 0 1 #
edge $691 $608 $502 $570 $692 0 #
loop_type-twe-attrib $-1 $-1 $-1 $500 0 #
face $693 $680 $500 $3 $-1 $694 0 #
point $-1 -0.4488 -0.375 0.454334329401913 #
cur-twe-attrib $-1 $-1 $-1 $503 367 #
face_name-twe-attrib $-1 $-1 $-1 $505 19 #
face $695 $696 $697 $3 $-1 $698 1 #
loop $699 $700 $701 $505 #
cone-surface $702 1.2812 -0.375 0.3125 0 1 0 0.125 0 0 1 0 1 0 #
loop_type-twe-attrib $-1 $-1 $-1 $506 0 #
loop $703 $-1 $704 $372 #
coedge $-1 $621 $621 $664 $705 0 $506 $-1 #
surf-twe-attrib $-1 $-1 $-1 $507 372 #
cur-twe-attrib $-1 $-1 $-1 $512 376 #
coedge $-1 $577 $517 $706 $653 0 $373 $-1 #
cur-twe-attrib $-1 $-1 $-1 $519 385 #
edge_name-twe-attrib $-1 $-1 $-1 $520 19 24576 #
straight-curve $707 -0.000152548293142 -7.1165340679e-05 0.018314310490796 0.867527783392895 0.404710593489816 -0.289145085655161 #
edge_name-twe-attrib $-1 $-1 $-1 $523 3 8448 #
straight-curve $708 0 0 0.605 0 0 1 #
loop_type-twe-attrib $-1 $-1 $-1 $525 1 #
loop $709 $-1 $710 $295 #
coedge $-1 $632 $632 $711 $712 0 $525 $-1 #
cur-twe-attrib $-1 $-1 $-1 $529 397 #
loop_type-twe-attrib $-1 $-1 $-1 $531 0 #
coedge $-1 $677 $643 $638 $713 0 $531 $-1 #
surf-twe-attrib $-1 $-1 $-1 $532 402 #
coedge $-1 $602 $535 $648 $688 1 $556 $-1 #
coedge $-1 $535 $602 $635 $713 1 $556 $-1 #
edge_name-twe-attrib $-1 $-1 $-1 $536 72 24576 #
straight-curve $714 -0.4688 -0.23143906619309 0.170665670598087 0 1 0 #
point $-1 -0.4688 -0.355 0.170665670598087 #
cur-twe-attrib $-1 $-1 $-1 $539 414 #
coedge $-1 $635 $706 $540 $644 1 $531 $-1 #
edge $715 $542 $553 $643 $716 0 #
point $-1 -0.4688 -0.23143906619309 0.170665670598087 #
cur-twe-attrib $-1 $-1 $-1 $543 416 #
surf-twe-attrib $-1 $-1 $-1 $545 418 #
coedge $-1 $546 $570 $637 $688 0 $571 $-1 #
edge_name-twe-attrib $-1 $-1 $-1 $547 69 24576 #
ellipse-curve $717 -0.4488 -0.355 0.170665670598087 0 0 -1 -0.02 0 0 1 #
face_name-twe-attrib $-1 $-1 $-1 $549 11 #
torus-surface $718 -0.4488 -0.355 0.170665670598087 -0.584723263217946 2e-15 0.811232830605219 0 0.02 0.811232830605219 0 0.584723263217946 0 #
edge $719 $553 $598 $706 $720 0 #
point $-1 -0.457255381050251 -0.213314317055652 0.170665670598087 #
cur-twe-attrib $-1 $-1 $-1 $554 427 #
loop_type-twe-attrib $-1 $-1 $-1 $556 0 #
surf-twe-attrib $-1 $-1 $-1 $557 433 #
loop_type-twe-attrib $-1 $-1 $-1 $560 0 #
loop $721 $-1 $722 $660 #
face $723 $566 $560 $3 $-1 $724 1 #
point $-1 1.4262 -0.375 0.3125 #
cur-twe-attrib $-1 $-1 $-1 $563 439 #
loop_type-twe-attrib $-1 $-1 $-1 $565 1 #
coedge $-1 $664 $664 $621 $705 1 $565 $-1 #
face_name-twe-attrib $-1 $-1 $-1 $566 23 #
cone-surface $725 0.4687 -0.375 0.3125 0 -1 0 -0.16065 0 1.6065e-16 1 0.707106781186547 0.707106781186548 0 #
loop_type-twe-attrib $-1 $-1 $-1 $571 0 #
cur-twe-attrib $-1 $-1 $-1 $573 448 #
cur-twe-attrib $-1 $-1 $-1 $576 454 #
cur-twe-attrib $-1 $-1 $-1 $579 458 #
cur-twe-attrib $-1 $-1 $-1 $586 472 #
face_name-twe-attrib $-1 $-1 $-1 $588 38 #
cone-surface $726 -0.4488 -0.355 0.15625 0 0 1 -0.02 0 0 1 0 1 0 #
surf-twe-attrib $-1 $-1 $-1 $589 476 #
edge_name-twe-attrib $-1 $-1 $-1 $591 25 24576 #
straight-curve $727 -0.000152548293142 -7.1165340679e-05 0.606685689509204 0.867527783392895 0.404710593489816 0.289145085655161 #
coedge $-1 $706 $635 $595 $678 1 $531 $-1 #
edge $728 $598 $605 $677 $729 0 #
loop_type-twe-attrib $-1 $-1 $-1 $596 0 #
face $730 $93 $596 $3 $-1 $731 0 #
point $-1 -0.457255381050251 -0.213314317055652 0.454334329401913 #
cur-twe-attrib $-1 $-1 $-1 $599 487 #
surf-twe-attrib $-1 $-1 $-1 $601 489 #
edge_name-twe-attrib $-1 $-1 $-1 $603 64 24576 #
straight-curve $732 -0.4688 -0.355 0.454334329401913 0 -1 0 #
point $-1 -0.4688 -0.23143906619309 0.454334329401913 #
cur-twe-attrib $-1 $-1 $-1 $606 494 #
edge $733 $608 $538 $648 $734 0 #
point $-1 -0.4688 -0.355 0.454334329401913 #
cur-twe-attrib $-1 $-1 $-1 $609 496 #
edge_name-twe-attrib $-1 $-1 $-1 $610 71 24576 #
ellipse-curve $735 -0.4488 -0.355 0.454334329401913 0 0 1 0 -0.02 0 1 #
face_name-twe-attrib $-1 $-1 $-1 $612 12 #
torus-surface $736 -0.4488 -0.355 0.454334329401913 -0.707106781186548 0.707106781186547 0 0 0.02 0 0 1 0 #
face_name-twe-attrib $-1 $-1 $-1 $616 20 #
face $737 $660 $738 $3 $-1 $739 1 #
loop $740 $741 $711 $616 #
cone-surface $742 0.4687 0 0.3125 0 1 0 0.16065 0 0 1 0.707106781186547 0.707106781186548 0 #
loop_type-twe-attrib $-1 $-1 $-1 $617 0 #
loop $743 $-1 $744 $505 #
coedge $-1 $701 $701 $722 $745 0 $617 $-1 #
surf-twe-attrib $-1 $-1 $-1 $618 505 #
loop_type-twe-attrib $-1 $-1 $-1 $620 1 #
coedge $-1 $704 $704 $746 $747 1 $620 $-1 #
edge $748 $749 $749 $664 $750 0 #
coedge $-1 $643 $677 $624 $653 1 $531 $-1 #
cur-twe-attrib $-1 $-1 $-1 $627 520 #
cur-twe-attrib $-1 $-1 $-1 $629 523 #
loop_type-twe-attrib $-1 $-1 $-1 $631 1 #
coedge $-1 $710 $710 $751 $752 0 $631 $-1 #
coedge $-1 $711 $711 $632 $712 1 $697 $-1 #
edge $753 $754 $754 $711 $755 0 #
edge $756 $542 $605 $635 $757 0 #
cur-twe-attrib $-1 $-1 $-1 $640 536 #
edge_name-twe-attrib $-1 $-1 $-1 $644 24 24576 #
ellipse-curve $758 -0.4488 -0.23143906619309 0.170665670598087 0 0 -1 -0.008455381050251 0.0181247491374379 0 1 #
cur-twe-attrib $-1 $-1 $-1 $650 547 #
surf-twe-attrib $-1 $-1 $-1 $652 549 #
edge_name-twe-attrib $-1 $-1 $-1 $653 23 24576 #
straight-curve $759 -0.457255381050251 -0.213314317055652 0.454334329401913 0 0 1 #
loop_type-twe-attrib $-1 $-1 $-1 $659 1 #
coedge $-1 $722 $722 $701 $745 1 $659 $-1 #
face_name-twe-attrib $-1 $-1 $-1 $660 22 #
cone-surface $760 1.2812 -0.375 0.3125 0 -1 0 0.145 0 0 1 0.707106781186547 0.707106781186548 0 #
surf-twe-attrib $-1 $-1 $-1 $666 566 #
surf-twe-attrib $-1 $-1 $-1 $673 588 #
cur-twe-attrib $-1 $-1 $-1 $676 591 #
edge_name-twe-attrib $-1 $-1 $-1 $678 22 24576 #
ellipse-curve $761 -0.4488 -0.23143906619309 0.454334329401913 0 0 1 -0.02 0 0 1 #
face_name-twe-attrib $-1 $-1 $-1 $680 13 #
torus-surface $762 -0.4488 -0.23143906619309 0.454334329401913 -0.584723263217946 -1e-15 -0.811232830605219 0 0.02 -0.811232830605219 0 0.584723263217946 0 #
cur-twe-attrib $-1 $-1 $-1 $685 603 #
edge_name-twe-attrib $-1 $-1 $-1 $688 68 24576 #
straight-curve $763 -0.4688 -0.355 0.170665670598087 0 -1.95690110657051e-16 -1 #
cur-twe-attrib $-1 $-1 $-1 $692 610 #
surf-twe-attrib $-1 $-1 $-1 $694 612 #
face_name-twe-attrib $-1 $-1 $-1 $696 21 #
loop $764 $765 $751 $696 #
cone-surface $766 1.2812 0 0.3125 0 1 0 0.145 0 0 1 0.707106781186547 0.707106781186548 0 #
loop_type-twe-attrib $-1 $-1 $-1 $697 0 #
loop $767 $-1 $746 $616 #
surf-twe-attrib $-1 $-1 $-1 $698 616 #
loop_type-twe-attrib $-1 $-1 $-1 $700 1 #
coedge $-1 $744 $744 $768 $769 1 $700 $-1 #
edge $770 $771 $771 $722 $772 0 #
coedge $-1 $746 $746 $704 $747 0 $741 $-1 #
edge $773 $774 $774 $746 $775 0 #
edge_name-twe-attrib $-1 $-1 $-1 $705 11 8448 #
vertex $-1 $705 $776 #
ellipse-curve $777 0.4687 -0.355 0.3125 0 -1 0 -0.14065 0 0 1 #
coedge $-1 $751 $751 $710 $752 1 $738 $-1 #
edge $778 $779 $779 $751 $780 0 #
edge_name-twe-attrib $-1 $-1 $-1 $712 4 8448 #
vertex $-1 $712 $781 #
ellipse-curve $782 0.4687 0 0.3125 0 -1 0 -0.16065 0 0 1 #
edge_name-twe-attrib $-1 $-1 $-1 $713 21 24576 #
straight-curve $783 -0.4688 -0.23143906619309 0.454334329401913 0 0 1 #
cur-twe-attrib $-1 $-1 $-1 $716 644 #
cur-twe-attrib $-1 $-1 $-1 $720 653 #
surf-twe-attrib $-1 $-1 $-1 $724 660 #
cur-twe-attrib $-1 $-1 $-1 $729 678 #
surf-twe-attrib $-1 $-1 $-1 $731 680 #
cur-twe-attrib $-1 $-1 $-1 $734 688 #
loop_type-twe-attrib $-1 $-1 $-1 $738 0 #
loop $784 $-1 $768 $696 #
surf-twe-attrib $-1 $-1 $-1 $739 696 #
loop_type-twe-attrib $-1 $-1 $-1 $741 1 #
coedge $-1 $768 $768 $744 $769 0 $765 $-1 #
edge $785 $786 $786 $768 $787 0 #
edge_name-twe-attrib $-1 $-1 $-1 $745 9 8448 #
vertex $-1 $745 $788 #
ellipse-curve $789 1.2812 -0.355 0.3125 0 -1 0 0.125 0 0 1 #
edge_name-twe-attrib $-1 $-1 $-1 $747 5 8448 #
vertex $-1 $747 $790 #
ellipse-curve $791 0.4687 -0.02 0.3125 0 -1 0 0.14065 0 0 1 #
point $-1 0.60935 -0.355 0.3125 #
cur-twe-attrib $-1 $-1 $-1 $750 705 #
edge_name-twe-attrib $-1 $-1 $-1 $752 6 8448 #
vertex $-1 $752 $792 #
ellipse-curve $793 1.2812 0 0.3125 0 -1 0 -0.145 0 0 1 #
point $-1 0.62935 0 0.3125 #
cur-twe-attrib $-1 $-1 $-1 $755 712 #
cur-twe-attrib $-1 $-1 $-1 $757 713 #
loop_type-twe-attrib $-1 $-1 $-1 $765 1 #
edge_name-twe-attrib $-1 $-1 $-1 $769 7 8448 #
vertex $-1 $769 $794 #
ellipse-curve $795 1.2812 -0.02 0.3125 0 -1 0 0.125 0 0 1 #
point $-1 1.4062 -0.355 0.3125 #
cur-twe-attrib $-1 $-1 $-1 $772 745 #
point $-1 0.32805 -0.02 0.3125 #
cur-twe-attrib $-1 $-1 $-1 $775 747 #
point $-1 1.4262 0 0.3125 #
cur-twe-attrib $-1 $-1 $-1 $780 752 #
point $-1 1.1562 -0.02 0.3125 #
cur-twe-attrib $-1 $-1 $-1 $787 769 #
