600 0 1 0           
114 GICL ACIS Healer - Source: /gicl/data5/repository/NIST/Manfred_Osti/spectrometer/spacer_87/spacer_87.prt.sat - 6 0 18 ACIS 6.0.3 Solaris 24 Sun Apr 14 00:37:15 2002 
1 9.999999999999999547e-07 1.000000000000000036e-10 
body $-1 $1 $-1 $-1 #
lump $-1 $-1 $2 $0 #
shell $-1 $-1 $-1 $3 $-1 $1 #
face $-1 $4 $5 $2 $-1 $6 reversed single #
face $-1 $7 $8 $2 $-1 $9 forward single #
loop $-1 $-1 $10 $3 #
cone-surface $-1 0 0 -1.21285000000000176 0 0 1 -3.174999999999999822 0 0 1 I I 0 1 3.174999999999999822 forward I I I I #
face $-1 $11 $12 $2 $-1 $13 forward single #
loop $-1 $14 $15 $4 #
plane-surface $-1 0 0 0.7873999999999999888 0 0 1 -25.39999999999999858 0 0 forward_v I I I I #
coedge $-1 $16 $17 $18 $19 forward $5 $-1 #
face $-1 $20 $21 $2 $-1 $22 forward single #
loop $-1 $-1 $23 $7 #
cone-surface $-1 0 0 -1.21285000000000176 0 0 1 -7.137400000000000411 0 0 1 I I 0 1 7.137400000000000411 forward I I I I #
loop $-1 $-1 $18 $4 #
coedge $-1 $24 $24 $23 $25 reversed $8 $-1 #
coedge $-1 $26 $10 $27 $28 reversed $5 $-1 #
coedge $-1 $10 $26 $29 $30 forward $5 $-1 #
coedge $-1 $31 $31 $10 $19 reversed $14 $-1 #
edge $-1 $32 1.224606353822377258e-16 $33 3.141592653589793116 $10 $34 forward 7 unknown #
face $-1 $35 $36 $2 $-1 $37 reversed single #
loop $-1 $-1 $38 $11 #
cone-surface $-1 0 0 -1.21285000000000176 0 0 1 -7.137400000000000411 0 0 1 I I 0 1 7.137400000000000411 forward I I I I #
coedge $-1 $39 $40 $15 $25 forward $12 $-1 #
coedge $-1 $15 $15 $41 $42 forward $8 $-1 #
edge $-1 $43 3.097065256433594586e-32 $44 3.141592653589793116 $15 $45 forward 7 unknown #
coedge $-1 $17 $16 $46 $47 reversed $5 $-1 #
coedge $-1 $48 $49 $16 $28 forward $50 $-1 #
edge $-1 $51 0 $33 0.07499999999999999722 $16 $52 forward 7 unknown #
coedge $-1 $49 $48 $17 $30 reversed $50 $-1 #
edge $-1 $53 0 $32 0.07499999999999999722 $17 $54 forward 7 unknown #
coedge $-1 $18 $18 $48 $55 forward $14 $-1 #
vertex $-1 $30 $56 #
vertex $-1 $28 $57 #
ellipse-curve $-1 -8.812395257962179547e-17 0 0.7873999999999999888 0 0 1 3.174999999999999822 0 0 1 I I #
face $-1 $58 $59 $2 $-1 $60 forward single #
loop $-1 $61 $62 $20 #
plane-surface $-1 0 0 0 0 0 1 -25.39999999999999858 0 0 forward_v I I I I #
coedge $-1 $63 $64 $65 $66 forward $21 $-1 #
coedge $-1 $67 $23 $63 $68 forward $12 $-1 #
coedge $-1 $23 $67 $64 $69 reversed $12 $-1 #
coedge $-1 $64 $63 $24 $42 reversed $21 $-1 #
edge $-1 $43 3.097065256433594586e-32 $44 3.141592653589793116 $24 $70 forward 7 unknown #
vertex $-1 $42 $71 #
vertex $-1 $42 $72 #
ellipse-curve $-1 0 -3.524958103184871819e-16 0.7873999999999999888 0 0 -1 7.137400000000000411 1.226546349295670913e-15 0 1 I I #
coedge $-1 $73 $73 $26 $47 forward $74 $-1 #
edge $-1 $53 0 $51 3.141592653589793116 $26 $75 forward 7 unknown #
coedge $-1 $29 $27 $31 $55 reversed $50 $-1 #
coedge $-1 $27 $29 $73 $76 forward $50 $-1 #
loop $-1 $-1 $49 $77 #
vertex $-1 $47 $78 #
straight-curve $-1 -3.174999999999999822 -7.776250346772095392e-16 -1.117599999999999927 0 0 25.39999999999999858 I I #
vertex $-1 $30 $79 #
straight-curve $-1 3.174999999999999822 3.888125173386047696e-16 -1.117599999999999927 0 0 25.39999999999999858 I I #
edge $-1 $32 -1.224606353822377258e-16 $33 3.141592653589793116 $31 $80 forward 7 unknown #
point $-1 3.174999999999999822 3.888125173386047696e-16 0.7873999999999999888 #
point $-1 -3.174999999999999822 0 0.7873999999999999888 #
face $-1 $81 $82 $2 $-1 $83 forward single #
loop $-1 $-1 $84 $35 #
cone-surface $-1 0 0 -1.21285000000000176 0 0 1 -4.762499999999999289 0 0 1 I I 0 1 4.762499999999999289 forward I I I I #
loop $-1 $-1 $65 $20 #
coedge $-1 $85 $85 $84 $86 reversed $36 $-1 #
coedge $-1 $41 $38 $39 $68 reversed $21 $-1 #
coedge $-1 $38 $41 $40 $69 forward $21 $-1 #
coedge $-1 $87 $87 $38 $66 reversed $61 $-1 #
edge $-1 $88 1.224606353822377258e-16 $89 3.141592653589793116 $38 $90 forward 7 unknown #
coedge $-1 $40 $39 $87 $91 reversed $12 $-1 #
edge $-1 $44 0 $89 0.03099999999999999978 $63 $92 forward 7 unknown #
edge $-1 $43 0 $88 0.03099999999999999978 $64 $93 forward 7 unknown #
ellipse-curve $-1 0 -7.049916206369743637e-16 0.7873999999999999888 0 0 1 7.137400000000000411 1.579042159614157799e-15 0 1 I I #
point $-1 7.137400000000000411 8.740505389771836329e-16 0.7873999999999999888 #
point $-1 -7.137400000000000411 0 0.7873999999999999888 #
coedge $-1 $46 $46 $49 $76 reversed $74 $-1 #
loop $-1 $94 $73 $81 #
ellipse-curve $-1 -8.812395257962179547e-17 -8.812395257962179547e-17 -1.117599999999999927 0 0 1 3.174999999999999822 4.769364699182265404e-16 0 1 I I #
edge $-1 $53 -9.781894788530123603e-33 $51 3.141592653589793116 $73 $95 forward 7 unknown #
face $-1 $-1 $50 $2 $-1 $96 reversed single #
point $-1 -3.174999999999999822 0 -1.117599999999999927 #
point $-1 3.174999999999999822 3.888125173386047696e-16 -1.117599999999999927 #
ellipse-curve $-1 -8.812395257962179547e-17 0 0.7873999999999999888 0 0 -1 3.174999999999999822 0 0 1 I I #
face $-1 $77 $74 $2 $-1 $97 reversed single #
loop $-1 $-1 $98 $58 #
cone-surface $-1 0 0 -1.21285000000000176 0 0 1 -4.762499999999999289 0 0 1 I I 0 1 4.762499999999999289 forward I I I I #
coedge $-1 $99 $100 $62 $86 forward $59 $-1 #
coedge $-1 $62 $62 $101 $102 forward $36 $-1 #
edge $-1 $103 0 $104 3.141592653589793116 $62 $105 forward 7 unknown #
coedge $-1 $65 $65 $67 $91 forward $61 $-1 #
vertex $-1 $69 $106 #
vertex $-1 $68 $107 #
ellipse-curve $-1 0 0 0 0 0 1 7.137400000000000411 0 0 1 I I #
edge $-1 $88 -1.224606353822377258e-16 $89 3.141592653589793116 $87 $108 forward 7 unknown #
straight-curve $-1 -7.137400000000000411 -1.748101077954367266e-15 0.7873999999999999888 0 0 -25.39999999999999858 I I #
straight-curve $-1 7.137400000000000411 8.740505389771836329e-16 0.7873999999999999888 0 0 -25.39999999999999858 I I #
loop $-1 $-1 $109 $81 #
ellipse-curve $-1 -1.762479051592435909e-16 5.287437154777307235e-16 -1.117599999999999927 0 0 -1 3.174999999999999822 -1.399311981391260032e-16 0 1 I I #
cone-surface $-1 0 0 -1.21285000000000176 0 0 1 -3.174999999999999822 0 0 1 I I 0 1 3.174999999999999822 forward I I I I #
plane-surface $-1 0 0 -1.117599999999999927 0 0 1 -25.39999999999999858 0 0 forward_v I I I I #
coedge $-1 $110 $111 $109 $112 forward $82 $-1 #
coedge $-1 $113 $84 $110 $114 forward $59 $-1 #
coedge $-1 $84 $113 $111 $115 reversed $59 $-1 #
coedge $-1 $111 $110 $85 $102 reversed $82 $-1 #
edge $-1 $103 0 $104 3.141592653589793116 $85 $116 forward 7 unknown #
vertex $-1 $102 $117 #
vertex $-1 $102 $118 #
ellipse-curve $-1 -1.762479051592435909e-16 -1.762479051592435909e-16 0 0 0 -1 4.762499999999999289 7.5946668116715077e-16 0 1 I I #
point $-1 7.137400000000000411 8.740505389771836329e-16 0 #
point $-1 -7.137400000000000411 0 0 #
ellipse-curve $-1 0 0 0 0 0 -1 7.137400000000000411 0 0 1 I I #
coedge $-1 $119 $119 $98 $112 reversed $94 $-1 #
coedge $-1 $101 $98 $99 $114 reversed $82 $-1 #
coedge $-1 $98 $101 $100 $115 forward $82 $-1 #
edge $-1 $120 1.224606353822377258e-16 $121 3.141592653589793116 $98 $122 forward 7 unknown #
coedge $-1 $100 $99 $119 $123 reversed $59 $-1 #
edge $-1 $104 0 $121 0.04399999999999999745 $110 $124 forward 7 unknown #
edge $-1 $103 0 $120 0.04399999999999999745 $111 $125 forward 7 unknown #
ellipse-curve $-1 0 1.762479051592435909e-16 0 0 0 1 4.762499999999999289 4.069708708486635388e-16 0 1 I I #
point $-1 4.762499999999999289 5.832187760079071298e-16 0 #
point $-1 -4.762499999999999289 0 0 #
coedge $-1 $109 $109 $113 $123 forward $94 $-1 #
vertex $-1 $115 $126 #
vertex $-1 $114 $127 #
ellipse-curve $-1 0 0 -1.117599999999999927 0 0 1 4.762499999999999289 0 0 1 I I #
edge $-1 $120 -1.224606353822377258e-16 $121 3.141592653589793116 $119 $128 forward 7 unknown #
straight-curve $-1 -4.762499999999999289 -1.16643755201581426e-15 0 0 0 -25.39999999999999858 I I #
straight-curve $-1 4.762499999999999289 5.832187760079071298e-16 0 0 0 -25.39999999999999858 I I #
point $-1 4.762499999999999289 5.832187760079071298e-16 -1.117599999999999927 #
point $-1 -4.762499999999999289 0 -1.117599999999999927 #
ellipse-curve $-1 0 0 -1.117599999999999927 0 0 -1 4.762499999999999289 0 0 1 I I #
End-of-ACIS-data 