600 0 1 0           
117 GICL Pro/E ACIS Translator - Source: f:/data5/repository/NIST/Manfred_Osti/spectrometer/spacer_87/spacer_87.prt - 6 0 13 ACIS 6.0.3 NT 24 Thu Apr 04 13:52:38 2002 
1 9.9999999999999995e-007 1e-010 
body $-1 $1 $-1 $2 #
lump $-1 $-1 $3 $0 #
transform $-1 1 0 0 0 1 0 0 0 1 0 0 0 25.399999999999999 no_rotate no_reflect no_shear #
shell $-1 $-1 $-1 $4 $-1 $1 #
face $-1 $5 $6 $3 $-1 $7 reversed single #
face $-1 $8 $9 $3 $-1 $10 forward single #
loop $-1 $-1 $11 $4 #
cone-surface $-1 0 0 -0.04775000000000007 0 0 1 -0.125 0 0 1 I I 0 1 0.125 forward I I I I #
face $-1 $12 $13 $3 $-1 $14 forward single #
loop $-1 $15 $16 $5 #
plane-surface $-1 0 0 0.031 0 0 1 -1 0 0 forward_v I I I I #
coedge $-1 $17 $18 $19 $20 forward $6 $-1 #
face $-1 $21 $22 $3 $-1 $23 forward single #
loop $-1 $-1 $24 $8 #
cone-surface $-1 0 0 -0.04775000000000007 0 0 1 -0.28100000000000003 0 0 1 I I 0 1 0.28100000000000003 forward I I I I #
loop $-1 $-1 $19 $5 #
coedge $-1 $25 $25 $24 $26 reversed $9 $-1 #
coedge $-1 $27 $11 $28 $29 reversed $6 $-1 #
coedge $-1 $11 $27 $30 $31 forward $6 $-1 #
coedge $-1 $32 $32 $11 $20 reversed $15 $-1 #
edge $-1 $33 1.2246063538223773e-016 $34 3.1415926535897931 $11 $35 forward 7 unknown #
face $-1 $36 $37 $3 $-1 $38 reversed single #
loop $-1 $-1 $39 $12 #
cone-surface $-1 0 0 -0.04775000000000007 0 0 1 -0.28100000000000003 0 0 1 I I 0 1 0.28100000000000003 forward I I I I #
coedge $-1 $40 $41 $16 $26 forward $13 $-1 #
coedge $-1 $16 $16 $42 $43 forward $9 $-1 #
edge $-1 $44 0 $45 3.1415926535897931 $16 $46 forward 7 unknown #
coedge $-1 $18 $17 $47 $48 reversed $6 $-1 #
coedge $-1 $49 $50 $17 $29 forward $51 $-1 #
edge $-1 $52 0 $34 0.074999999999999997 $17 $53 forward 7 unknown #
coedge $-1 $50 $49 $18 $31 reversed $51 $-1 #
edge $-1 $54 0 $33 0.074999999999999997 $18 $55 forward 7 unknown #
coedge $-1 $19 $19 $49 $56 forward $15 $-1 #
vertex $-1 $31 $57 #
vertex $-1 $29 $58 #
ellipse-curve $-1 -3.4694469519536142e-018 0 0.031 0 0 1 0.125 0 0 1 I I #
face $-1 $59 $60 $3 $-1 $61 forward single #
loop $-1 $62 $63 $21 #
plane-surface $-1 0 0 0 0 0 1 -1 0 0 forward_v I I I I #
coedge $-1 $64 $65 $66 $67 forward $22 $-1 #
coedge $-1 $68 $24 $64 $69 forward $13 $-1 #
coedge $-1 $24 $68 $65 $70 reversed $13 $-1 #
coedge $-1 $65 $64 $25 $43 reversed $22 $-1 #
edge $-1 $44 0 $45 3.1415926535897931 $25 $71 forward 7 unknown #
vertex $-1 $43 $72 #
vertex $-1 $43 $73 #
ellipse-curve $-1 0 -1.3877787807814457e-017 0.031 0 0 -1 0.28100000000000003 4.8289226350223264e-017 0 1 I I #
coedge $-1 $74 $74 $27 $48 forward $75 $-1 #
edge $-1 $54 0 $52 3.1415926535897931 $27 $76 forward 7 unknown #
coedge $-1 $30 $28 $32 $56 reversed $51 $-1 #
coedge $-1 $28 $30 $74 $77 forward $51 $-1 #
loop $-1 $-1 $50 $78 #
vertex $-1 $48 $79 #
straight-curve $-1 -0.125 -3.0615158845559431e-017 -0.043999999999999997 0 0 1 I I #
vertex $-1 $31 $80 #
straight-curve $-1 0.125 1.5307579422779716e-017 -0.043999999999999997 0 0 1 I I #
edge $-1 $33 -1.2246063538223773e-016 $34 3.1415926535897931 $32 $81 forward 7 unknown #
point $-1 0.125 1.5307579422779716e-017 0.031 #
point $-1 -0.125 0 0.031 #
face $-1 $82 $83 $3 $-1 $84 forward single #
loop $-1 $-1 $85 $36 #
cone-surface $-1 0 0 -0.04775000000000007 0 0 1 -0.1875 0 0 1 I I 0 1 0.1875 forward I I I I #
loop $-1 $-1 $66 $21 #
coedge $-1 $86 $86 $85 $87 reversed $37 $-1 #
coedge $-1 $42 $39 $40 $69 reversed $22 $-1 #
coedge $-1 $39 $42 $41 $70 forward $22 $-1 #
coedge $-1 $88 $88 $39 $67 reversed $62 $-1 #
edge $-1 $89 1.2246063538223773e-016 $90 3.1415926535897931 $39 $91 forward 7 unknown #
coedge $-1 $41 $40 $88 $92 reversed $13 $-1 #
edge $-1 $45 0 $90 0.031 $64 $93 forward 7 unknown #
edge $-1 $44 0 $89 0.031 $65 $94 forward 7 unknown #
ellipse-curve $-1 0 -2.7755575615628914e-017 0.031 0 0 1 0.28100000000000003 6.2167014158037714e-017 0 1 I I #
point $-1 0.28100000000000003 3.4411438542408807e-017 0.031 #
point $-1 -0.28100000000000003 0 0.031 #
coedge $-1 $47 $47 $50 $77 reversed $75 $-1 #
loop $-1 $95 $74 $82 #
ellipse-curve $-1 -3.4694469519536142e-018 -3.4694469519536142e-018 -0.043999999999999997 0 0 1 0.125 1.877702637473333e-017 0 1 I I #
edge $-1 $54 0 $52 3.1415926535897931 $74 $96 forward 7 unknown #
face $-1 $-1 $51 $3 $-1 $97 reversed single #
point $-1 -0.125 0 -0.043999999999999997 #
point $-1 0.125 1.5307579422779716e-017 -0.043999999999999997 #
ellipse-curve $-1 -3.4694469519536142e-018 0 0.031 0 0 -1 0.125 0 0 1 I I #
face $-1 $78 $75 $3 $-1 $98 reversed single #
loop $-1 $-1 $99 $59 #
cone-surface $-1 0 0 -0.04775000000000007 0 0 1 -0.1875 0 0 1 I I 0 1 0.1875 forward I I I I #
coedge $-1 $100 $101 $63 $87 forward $60 $-1 #
coedge $-1 $63 $63 $102 $103 forward $37 $-1 #
edge $-1 $104 0 $105 3.1415926535897931 $63 $106 forward 7 unknown #
coedge $-1 $66 $66 $68 $92 forward $62 $-1 #
vertex $-1 $70 $107 #
vertex $-1 $69 $108 #
ellipse-curve $-1 0 0 0 0 0 1 0.28100000000000003 0 0 1 I I #
edge $-1 $89 -1.2246063538223773e-016 $90 3.1415926535897931 $88 $109 forward 7 unknown #
straight-curve $-1 -0.28100000000000003 -6.8822877084817614e-017 0.031 0 0 -1 I I #
straight-curve $-1 0.28100000000000003 3.4411438542408807e-017 0.031 0 0 -1 I I #
loop $-1 $-1 $110 $82 #
ellipse-curve $-1 -6.9388939039072284e-018 2.0816681711721685e-017 -0.043999999999999997 0 0 -1 0.125 -5.5091022889419694e-018 0 1 I I #
cone-surface $-1 0 0 -0.04775000000000007 0 0 1 -0.125 0 0 1 I I 0 1 0.125 forward I I I I #
plane-surface $-1 0 0 -0.043999999999999997 0 0 1 -1 0 0 forward_v I I I I #
coedge $-1 $111 $112 $110 $113 forward $83 $-1 #
coedge $-1 $114 $85 $111 $115 forward $60 $-1 #
coedge $-1 $85 $114 $112 $116 reversed $60 $-1 #
coedge $-1 $112 $111 $86 $103 reversed $83 $-1 #
edge $-1 $104 0 $105 3.1415926535897931 $86 $117 forward 7 unknown #
vertex $-1 $103 $118 #
vertex $-1 $103 $119 #
ellipse-curve $-1 -6.9388939039072284e-018 -6.9388939039072284e-018 0 0 0 -1 0.1875 2.9900263038076802e-017 0 1 I I #
point $-1 0.28100000000000003 3.4411438542408807e-017 0 #
point $-1 -0.28100000000000003 0 0 #
ellipse-curve $-1 0 0 0 0 0 -1 0.28100000000000003 0 0 1 I I #
coedge $-1 $120 $120 $99 $113 reversed $95 $-1 #
coedge $-1 $102 $99 $100 $115 reversed $83 $-1 #
coedge $-1 $99 $102 $101 $116 forward $83 $-1 #
edge $-1 $121 1.2246063538223773e-016 $122 3.1415926535897931 $99 $123 forward 7 unknown #
coedge $-1 $101 $100 $120 $124 reversed $60 $-1 #
edge $-1 $105 0 $122 0.043999999999999997 $111 $125 forward 7 unknown #
edge $-1 $104 0 $121 0.043999999999999997 $112 $126 forward 7 unknown #
ellipse-curve $-1 0 6.9388939039072284e-018 0 0 0 1 0.1875 1.6022475230262345e-017 0 1 I I #
point $-1 0.1875 2.2961369134169574e-017 0 #
point $-1 -0.1875 0 0 #
coedge $-1 $110 $110 $114 $124 forward $95 $-1 #
vertex $-1 $116 $127 #
vertex $-1 $115 $128 #
ellipse-curve $-1 0 0 -0.043999999999999997 0 0 1 0.1875 0 0 1 I I #
edge $-1 $121 -1.2246063538223773e-016 $122 3.1415926535897931 $120 $129 forward 7 unknown #
straight-curve $-1 -0.1875 -4.5922738268339147e-017 0 0 0 -1 I I #
straight-curve $-1 0.1875 2.2961369134169574e-017 0 0 0 -1 I I #
point $-1 0.1875 2.2961369134169574e-017 -0.043999999999999997 #
point $-1 -0.1875 0 -0.043999999999999997 #
ellipse-curve $-1 0 0 -0.043999999999999997 0 0 -1 0.1875 0 0 1 I I #
End-of-ACIS-data 