700 0 2 0           
24 FBMach with ACIS - 7.0.3 13 ACIS 7.0.3 NT 24 Tue May 14 14:20:31 2002 
1 9.9999999999999995e-007 1e-010 
body $2 -1 $-1 $3 $-1 $4 #
bdycol-kcp $-1 -1 1 4 $5 $6 $7 $8 #
model_id-kcp-attrib $-1 -1 $-1 $-1 $0 1 1021400431 1021400431 1233453057 1 #
lump $-1 -1 $-1 $-1 $9 $0 #
transform $-1 -1 1 0 0 0 1 0 0 0 1 0 0 0 1 rotate no_reflect no_shear #
body $10 -1 $-1 $11 $-1 $12 #
body $13 -1 $-1 $14 $-1 $15 #
body $16 -1 $-1 $17 $-1 $18 #
body $19 -1 $-1 $20 $-1 $21 #
shell $-1 -1 $-1 $-1 $-1 $22 $-1 $3 #
rgb_color-st-attrib $-1 -1 $23 $-1 $5 1 0.5 1 #
lump $-1 -1 $-1 $-1 $24 $5 #
transform $-1 -1 1 0 0 0 1 0 0 0 1 0 0 -0.0064999999999999988 1 no_rotate no_reflect no_shear #
model_id-kcp-attrib $-1 -1 $-1 $-1 $6 1 1021400431 1021400431 1233453058 1 #
lump $-1 -1 $-1 $-1 $25 $6 #
transform $-1 -1 1 0 0 0 1 0 0 0 1 0 0 -0.0064999999999999988 1 no_rotate no_reflect no_shear #
rgb_color-st-attrib $-1 -1 $26 $-1 $7 0.5 1 1 #
lump $-1 -1 $-1 $-1 $27 $7 #
transform $-1 -1 1 0 0 0 1 0 0 0 1 0 0 -0.0064999999999999988 1 no_rotate no_reflect no_shear #
rgb_color-st-attrib $-1 -1 $28 $-1 $8 0.5 1 1 #
lump $-1 -1 $-1 $-1 $29 $8 #
transform $-1 -1 1 0 0 0 1 0 0 0 1 0 0 -0.0064999999999999988 1 no_rotate no_reflect no_shear #
face $30 -1 $-1 $31 $32 $9 $-1 $33 forward single #
model_id-kcp-attrib $-1 -1 $-1 $10 $5 1 1021400431 1021400431 1228472325 1 #
shell $-1 -1 $-1 $-1 $-1 $34 $-1 $11 #
shell $-1 -1 $-1 $-1 $-1 $35 $-1 $14 #
model_id-kcp-attrib $-1 -1 $-1 $16 $7 1 1021400431 1021400431 1234763779 1 #
shell $-1 -1 $-1 $-1 $-1 $36 $-1 $17 #
model_id-kcp-attrib $-1 -1 $-1 $19 $8 1 1021400431 1021400431 1238695940 1 #
shell $-1 -1 $-1 $-1 $-1 $37 $-1 $20 #
model_id-kcp-attrib $-1 -1 $-1 $-1 $22 1 1021400431 1021400431 1233453057 2 #
face $38 -1 $-1 $39 $40 $9 $-1 $41 reversed single #
loop $-1 -1 $-1 $42 $43 $22 #
plane-surface $-1 -1 $-1 0 0 0.031 0 0 1 1 0 0 forward_v I I I I #
face $-1 -1 $-1 $44 $45 $24 $-1 $46 forward single #
face $47 -1 $-1 $48 $49 $25 $-1 $50 forward single #
face $-1 -1 $-1 $51 $52 $27 $-1 $53 forward single #
face $-1 -1 $-1 $54 $55 $29 $-1 $56 reversed single #
model_id-kcp-attrib $-1 -1 $-1 $-1 $31 1 1021400431 1021400431 1233453057 3 #
face $57 -1 $-1 $58 $59 $9 $-1 $60 reversed single #
loop $-1 -1 $-1 $61 $62 $31 #
plane-surface $-1 -1 $-1 0 0 0 0 0 1 1 0 0 forward_v I I I I #
loop $63 -1 $-1 $-1 $64 $22 #
coedge $-1 -1 $-1 $43 $43 $65 $66 forward $32 $-1 #
face $-1 -1 $-1 $67 $68 $24 $-1 $69 forward single #
loop $-1 -1 $-1 $70 $71 $34 #
cone-surface $-1 -1 $-1 0 0 0.0064999999999999503 0 0 -1 -0.1875 0 0 1 I I 0 -1 0.1875 forward I I I I #
model_id-kcp-attrib $-1 -1 $-1 $-1 $35 1 1021400431 1021400431 1233453058 2 #
face $72 -1 $-1 $73 $74 $25 $-1 $75 reversed single #
loop $-1 -1 $-1 $-1 $76 $35 #
plane-surface $-1 -1 $-1 0 0 0.037499999999999999 0 0 1 1 0 0 forward_v I I I I #
face $-1 -1 $-1 $77 $78 $27 $-1 $79 forward single #
loop $-1 -1 $-1 $80 $81 $36 #
cone-surface $-1 -1 $-1 0 0 0 0 0 1 0.125 0 0 1 I I 0 1 0.125 forward I I I I #
face $-1 -1 $-1 $82 $83 $29 $-1 $56 reversed single #
loop $-1 -1 $-1 $-1 $84 $37 #
cone-surface $-1 -1 $-1 -1.0535116570800517e-033 0 0.037499999999999999 0 0 1 0.28100000000000003 0 0 1 I I 0 1 0.28100000000000003 forward I I I I #
model_id-kcp-attrib $-1 -1 $-1 $-1 $39 1 1021400431 1021400431 1233453057 4 #
face $85 -1 $-1 $86 $87 $9 $-1 $88 reversed single #
loop $89 -1 $-1 $90 $91 $39 #
plane-surface $-1 -1 $-1 0 0 -0.043999999999999997 0 0 1 1 0 0 forward_v I I I I #
loop $-1 -1 $-1 $-1 $92 $31 #
coedge $-1 -1 $-1 $62 $62 $93 $94 forward $40 $-1 #
model_id-kcp-attrib $-1 -1 $-1 $-1 $42 1 1021400431 1021400431 1233453057 12 #
coedge $-1 -1 $-1 $64 $64 $95 $96 forward $42 $-1 #
coedge $-1 -1 $-1 $65 $65 $43 $66 reversed $97 $-1 #
edge $98 -1 $-1 $99 0 $99 6.2831853071795862 $65 $100 forward @7 unknown #
face $-1 -1 $-1 $101 $102 $24 $-1 $103 reversed single #
loop $-1 -1 $-1 $104 $105 $44 #
cone-surface $-1 -1 $-1 -1.0535116570800517e-033 0 0.0064999999999999503 0 0 -1 0.28100000000000003 0 0 1 I I 0 1 0.28100000000000003 forward I I I I #
loop $-1 -1 $-1 $-1 $106 $34 #
coedge $-1 -1 $-1 $71 $71 $107 $108 forward $45 $-1 #
model_id-kcp-attrib $-1 -1 $-1 $-1 $48 1 1021400431 1021400431 1233453058 3 #
face $-1 -1 $-1 $109 $110 $25 $-1 $111 reversed single #
loop $-1 -1 $-1 $-1 $112 $48 #
plane-surface $-1 -1 $-1 0 0 -0.037499999999999999 0 0 1 1 0 0 forward_v I I I I #
coedge $-1 -1 $-1 $113 $114 $115 $116 forward $49 $-1 #
face $-1 -1 $-1 $-1 $117 $27 $-1 $118 forward single #
loop $-1 -1 $-1 $-1 $119 $51 #
plane-surface $-1 -1 $-1 0 0 -0.037499999999999999 0 0 -1 -1 0 0 forward_v I I I I #
loop $-1 -1 $-1 $-1 $120 $36 #
coedge $-1 -1 $-1 $81 $81 $119 $121 reversed $52 $-1 #
face $-1 -1 $-1 $122 $123 $29 $-1 $56 reversed single #
loop $-1 -1 $-1 $-1 $124 $54 #
coedge $-1 -1 $-1 $125 $126 $127 $128 reversed $55 $-1 #
model_id-kcp-attrib $-1 -1 $-1 $-1 $58 1 1021400431 1021400431 1233453057 5 #
face $129 -1 $-1 $130 $131 $9 $-1 $132 forward single #
loop $133 -1 $-1 $134 $95 $58 #
cone-surface $-1 -1 $-1 0 0 -0.047750000000000001 0 0 1 -0.125 0 0 1 I I 0 1 0.125 forward I I I I #
model_id-kcp-attrib $-1 -1 $-1 $-1 $59 1 1021400431 1021400431 1233453057 13 #
loop $-1 -1 $-1 $-1 $135 $39 #
coedge $-1 -1 $-1 $91 $91 $136 $137 forward $59 $-1 #
coedge $-1 -1 $-1 $92 $92 $138 $139 forward $61 $-1 #
coedge $-1 -1 $-1 $93 $93 $62 $94 reversed $140 $-1 #
edge $141 -1 $-1 $142 0 $142 6.2831853071795862 $93 $143 forward @7 unknown #
coedge $-1 -1 $-1 $95 $95 $64 $96 reversed $87 $-1 #
edge $144 -1 $-1 $145 -3.1415926535897931 $145 3.1415926535897931 $64 $146 forward @7 unknown #
loop $-1 -1 $-1 $-1 $65 $86 #
attrib_edge_convexity-kcp-attrib $-1 -1 $147 $-1 $66 1 #
vertex $-1 -1 $-1 $66 $148 #
ellipse-curve $-1 -1 $-1 0 0 0.031 0 0 1 0.28100000000000003 0 0 1 I I #
face $-1 -1 $-1 $-1 $149 $24 $-1 $150 forward single #
loop $-1 -1 $-1 $151 $152 $67 #
plane-surface $-1 -1 $-1 -0.0084999999999999989 2.2027688071013367e-018 -0.037500000000000047 0 0 1 1 0 0 forward_v I I I I #
loop $-1 -1 $-1 $-1 $153 $44 #
coedge $-1 -1 $-1 $105 $105 $152 $154 forward $68 $-1 #
coedge $-1 -1 $-1 $106 $106 $155 $156 reversed $70 $-1 #
coedge $-1 -1 $-1 $107 $107 $71 $108 reversed $151 $-1 #
edge $-1 -1 $-1 $157 -3.1415926535897931 $157 3.1415926535897931 $71 $158 forward @7 unknown #
face $-1 -1 $-1 $159 $160 $25 $-1 $161 reversed single #
loop $-1 -1 $-1 $-1 $162 $73 #
plane-surface $-1 -1 $-1 0 -0.28100000000000003 0 0 1 0 0 0 1 forward_v I I I I #
coedge $-1 -1 $-1 $163 $164 $165 $166 forward $74 $-1 #
coedge $-1 -1 $-1 $167 $76 $168 $169 forward $49 $-1 #
coedge $-1 -1 $-1 $76 $167 $170 $171 forward $49 $-1 #
coedge $-1 -1 $-1 $172 $173 $76 $116 reversed $174 $-1 #
edge $-1 -1 $-1 $175 -0.28100000000000003 $176 0.28100000000000003 $115 $177 forward @7 unknown #
loop $-1 -1 $-1 $-1 $178 $77 #
plane-surface $-1 -1 $-1 0 0 0.037499999999999999 0 0 1 1 0 0 forward_v I I I I #
coedge $-1 -1 $-1 $119 $119 $81 $121 forward $78 $-1 #
coedge $-1 -1 $-1 $120 $120 $178 $179 reversed $80 $-1 #
edge $-1 -1 $-1 $180 0 $180 6.2831853071795862 $119 $181 forward @7 unknown #
face $-1 -1 $-1 $182 $183 $29 $-1 $56 reversed single #
loop $-1 -1 $-1 $-1 $184 $82 #
coedge $-1 -1 $-1 $185 $186 $187 $188 reversed $83 $-1 #
coedge $-1 -1 $-1 $189 $84 $190 $191 reversed $55 $-1 #
coedge $-1 -1 $-1 $84 $189 $192 $193 reversed $55 $-1 #
coedge $-1 -1 $-1 $194 $195 $196 $128 forward $197 $-1 #
edge $-1 -1 $-1 $198 -0.074999999999999997 $199 0 $127 $200 forward @7 unknown #
model_id-kcp-attrib $-1 -1 $-1 $-1 $86 1 1021400431 1021400431 1233453057 6 #
face $201 -1 $-1 $-1 $202 $9 $-1 $203 forward single #
loop $-1 -1 $-1 $97 $138 $86 #
cone-surface $-1 -1 $-1 0 0 -0.047750000000000001 0 0 1 -0.28100000000000003 0 0 1 I I 0 1 0.28100000000000003 forward I I I I #
model_id-kcp-attrib $-1 -1 $-1 $-1 $87 1 1021400431 1021400431 1233453057 10 #
loop $204 -1 $-1 $-1 $136 $58 #
coedge $-1 -1 $-1 $135 $135 $205 $206 forward $90 $-1 #
coedge $-1 -1 $-1 $136 $136 $91 $137 reversed $134 $-1 #
edge $207 -1 $-1 $208 -3.1415926535897931 $208 3.1415926535897931 $136 $209 forward @7 unknown #
coedge $-1 -1 $-1 $138 $138 $92 $139 reversed $131 $-1 #
edge $210 -1 $-1 $211 -3.1415926535897931 $211 3.1415926535897931 $92 $212 forward @7 unknown #
loop $-1 -1 $-1 $-1 $93 $130 #
attrib_edge_convexity-kcp-attrib $-1 -1 $213 $-1 $94 2 #
vertex $-1 -1 $-1 $94 $214 #
ellipse-curve $-1 -1 $-1 0 0 0 0 0 1 0.1875 0 0 1 I I #
attrib_edge_convexity-kcp-attrib $-1 -1 $215 $-1 $96 1 #
vertex $216 -1 $-1 $96 $217 #
ellipse-curve $-1 -1 $-1 0 0 0.031 0 0 -1 0.125 0 0 1 I I #
convexity-sys-attrib $-1 -1 $-1 $98 $66 #
point $-1 -1 $-1 0.28100000000000003 0 0.031 #
loop $-1 -1 $-1 $218 $219 $101 #
plane-surface $-1 -1 $-1 -0.0084999999999999989 2.2027688071013367e-018 0.0064999999999999503 0 0 1 1 0 0 forward_v I I I I #
loop $-1 -1 $-1 $-1 $107 $67 #
coedge $-1 -1 $-1 $152 $152 $105 $154 reversed $102 $-1 #
coedge $-1 -1 $-1 $153 $153 $219 $220 reversed $104 $-1 #
edge $-1 -1 $-1 $221 -3.1415926535897931 $221 3.1415926535897931 $105 $222 forward @7 unknown #
coedge $-1 -1 $-1 $155 $155 $106 $156 forward $218 $-1 #
edge $223 -1 $-1 $224 -3.1415926535897931 $224 3.1415926535897931 $106 $225 forward @7 unknown #
vertex $-1 -1 $-1 $108 $226 #
ellipse-curve $-1 -1 $-1 0 0 -0.037500000000000047 0 0 -1 -0.1875 0 0 1 I I #
face $-1 -1 $-1 $227 $228 $25 $-1 $229 reversed single #
loop $-1 -1 $-1 $-1 $230 $109 #
plane-surface $-1 -1 $-1 -0.28100000000000003 0 0 1 0 0 0 0 -1 forward_v I I I I #
coedge $-1 -1 $-1 $231 $170 $232 $233 forward $110 $-1 #
coedge $-1 -1 $-1 $234 $112 $231 $235 forward $74 $-1 #
coedge $-1 -1 $-1 $112 $234 $236 $237 forward $74 $-1 #
coedge $-1 -1 $-1 $173 $172 $112 $166 reversed $174 $-1 #
edge $-1 -1 $-1 $238 -0.28100000000000003 $239 0.28100000000000003 $165 $240 forward @7 unknown #
coedge $-1 -1 $-1 $114 $113 $241 $242 forward $49 $-1 #
coedge $-1 -1 $-1 $243 $244 $113 $169 reversed $228 $-1 #
edge $-1 -1 $-1 $176 -0.28100000000000003 $245 0.28100000000000003 $168 $246 forward @7 unknown #
coedge $-1 -1 $-1 $162 $247 $114 $171 reversed $110 $-1 #
edge $-1 -1 $-1 $248 -0.28100000000000003 $175 0.28100000000000003 $170 $249 forward @7 unknown #
coedge $-1 -1 $-1 $165 $115 $247 $250 forward $174 $-1 #
coedge $-1 -1 $-1 $115 $165 $243 $251 reversed $174 $-1 #
loop $-1 -1 $-1 $-1 $172 $227 #
vertex $-1 -1 $-1 $116 $252 #
vertex $-1 -1 $-1 $116 $253 #
straight-curve $-1 -1 $-1 0.28100000000000003 0 0.037499999999999999 0 1 0 I I #
coedge $-1 -1 $-1 $178 $178 $120 $179 forward $117 $-1 #
edge $-1 -1 $-1 $254 0 $254 6.2831853071795862 $178 $255 forward @7 unknown #
vertex $-1 -1 $-1 $121 $256 #
ellipse-curve $-1 -1 $-1 0 0 -0.037499999999999999 0 0 -1 0.125 0 0 1 I I #
face $-1 -1 $-1 $257 $258 $29 $-1 $259 reversed single #
loop $-1 -1 $-1 $-1 $260 $122 #
coedge $-1 -1 $-1 $261 $262 $263 $264 reversed $123 $-1 #
coedge $-1 -1 $-1 $265 $124 $266 $267 reversed $83 $-1 #
coedge $-1 -1 $-1 $124 $265 $84 $128 forward $83 $-1 #
coedge $-1 -1 $-1 $268 $269 $124 $188 forward $270 $-1 #
edge $-1 -1 $-1 $271 -3.1415926535897931 $199 -1.5707963267948966 $187 $272 forward @7 unknown #
coedge $-1 -1 $-1 $126 $125 $262 $273 forward $55 $-1 #
coedge $-1 -1 $-1 $274 $275 $125 $191 forward $276 $-1 #
edge $-1 -1 $-1 $277 0 $198 1.5707963267948966 $190 $278 forward @7 unknown #
coedge $-1 -1 $-1 $279 $280 $126 $193 forward $281 $-1 #
edge $-1 -1 $-1 $199 -1.5707963267948966 $282 0 $192 $272 forward @7 unknown #
coedge $-1 -1 $-1 $283 $127 $280 $284 reversed $197 $-1 #
coedge $-1 -1 $-1 $127 $283 $274 $285 reversed $197 $-1 #
coedge $-1 -1 $-1 $286 $287 $186 $128 reversed $288 $-1 #
loop $-1 -1 $-1 $-1 $127 $289 #
vertex $-1 -1 $-1 $285 $290 #
vertex $-1 -1 $-1 $291 $292 #
straight-curve $-1 -1 $-1 -1.0535116570800517e-033 0.28100000000000003 0.037499999999999999 0 0 1 I I #
model_id-kcp-attrib $-1 -1 $-1 $-1 $130 1 1021400431 1021400431 1233453057 7 #
loop $-1 -1 $-1 $140 $205 $130 #
cone-surface $-1 -1 $-1 0 0 -0.047750000000000001 0 0 1 -0.1875 0 0 1 I I 0 1 0.1875 forward I I I I #
model_id-kcp-attrib $-1 -1 $-1 $-1 $134 1 1021400431 1021400431 1233453057 11 #
coedge $-1 -1 $-1 $205 $205 $135 $206 reversed $202 $-1 #
edge $-1 -1 $-1 $293 -3.1415926535897931 $293 3.1415926535897931 $135 $294 forward @7 unknown #
attrib_edge_convexity-kcp-attrib $-1 -1 $295 $-1 $137 1 #
vertex $296 -1 $-1 $137 $297 #
ellipse-curve $-1 -1 $-1 0 0 -0.043999999999999997 0 0 1 0.125 0 0 1 I I #
attrib_edge_convexity-kcp-attrib $-1 -1 $298 $-1 $139 1 #
vertex $-1 -1 $-1 $139 $299 #
ellipse-curve $-1 -1 $-1 0 0 0 0 0 -1 0.28100000000000003 0 0 1 I I #
convexity-sys-attrib $-1 -1 $-1 $141 $94 #
point $-1 -1 $-1 0.1875 0 0 #
convexity-sys-attrib $-1 -1 $-1 $144 $96 #
model_id-kcp-attrib $-1 -1 $-1 $-1 $145 1 1021400431 1021400431 1233453057 14 #
point $-1 -1 $-1 -0.125 0 0.031 #
loop $-1 -1 $-1 $-1 $155 $101 #
coedge $-1 -1 $-1 $219 $219 $153 $220 forward $149 $-1 #
edge $300 -1 $-1 $301 -3.1415926535897931 $301 3.1415926535897931 $153 $302 forward @7 unknown #
vertex $-1 -1 $-1 $154 $303 #
ellipse-curve $-1 -1 $-1 -1.0535116570800517e-033 0 -0.037500000000000047 0 0 1 0.28100000000000003 0 0 1 I I #
convexity-sys-attrib $-1 -1 $-1 $-1 $156 #
vertex $-1 -1 $-1 $156 $304 #
ellipse-curve $-1 -1 $-1 0 0 0.0064999999999999503 0 0 -1 -0.1875 0 0 1 I I #
point $-1 -1 $-1 0.1875 0 -0.037499999999999999 #
face $-1 -1 $-1 $-1 $174 $25 $-1 $305 reversed single #
loop $-1 -1 $-1 $-1 $243 $159 #
plane-surface $-1 -1 $-1 0 0.28100000000000003 0 0 -1 0 0 0 -1 forward_v I I I I #
coedge $-1 -1 $-1 $306 $241 $244 $307 forward $160 $-1 #
coedge $-1 -1 $-1 $247 $162 $163 $235 reversed $110 $-1 #
coedge $-1 -1 $-1 $241 $306 $162 $233 reversed $160 $-1 #
edge $-1 -1 $-1 $248 -0.037499999999999999 $308 0.037499999999999999 $232 $309 forward @7 unknown #
coedge $-1 -1 $-1 $164 $163 $306 $310 forward $74 $-1 #
edge $-1 -1 $-1 $239 -0.28100000000000003 $308 0.28100000000000003 $231 $311 forward @7 unknown #
coedge $-1 -1 $-1 $244 $243 $164 $237 reversed $228 $-1 #
edge $-1 -1 $-1 $312 -0.28100000000000003 $238 0.28100000000000003 $236 $313 forward @7 unknown #
vertex $-1 -1 $-1 $166 $314 #
vertex $-1 -1 $-1 $250 $315 #
straight-curve $-1 -1 $-1 0.28100000000000003 0 -0.037499999999999999 0 -1 0 I I #
coedge $-1 -1 $-1 $230 $232 $167 $242 reversed $160 $-1 #
edge $-1 -1 $-1 $245 -0.28100000000000003 $248 0.28100000000000003 $241 $316 forward @7 unknown #
coedge $-1 -1 $-1 $236 $168 $173 $251 forward $228 $-1 #
coedge $-1 -1 $-1 $168 $236 $230 $307 reversed $228 $-1 #
vertex $-1 -1 $-1 $169 $317 #
straight-curve $-1 -1 $-1 0 0.28100000000000003 0.037499999999999999 -1 0 0 I I #
coedge $-1 -1 $-1 $170 $231 $172 $250 reversed $110 $-1 #
vertex $-1 -1 $-1 $242 $318 #
straight-curve $-1 -1 $-1 0 -0.28100000000000003 0.037499999999999999 1 0 0 I I #
edge $-1 -1 $-1 $175 -0.037499999999999999 $239 0.037499999999999999 $172 $319 forward @7 unknown #
edge $-1 -1 $-1 $176 -0.037499999999999999 $238 0.037499999999999999 $173 $320 forward @7 unknown #
point $-1 -1 $-1 0.28100000000000003 -0.28100000000000003 0.037499999999999999 #
point $-1 -1 $-1 0.28100000000000003 0.28100000000000003 0.037499999999999999 #
vertex $-1 -1 $-1 $179 $321 #
ellipse-curve $-1 -1 $-1 0 0 0.037499999999999999 0 0 1 0.125 0 0 1 I I #
point $-1 -1 $-1 0.125 0 -0.037499999999999999 #
face $-1 -1 $-1 $322 $288 $29 $-1 $323 reversed single #
loop $-1 -1 $-1 $-1 $324 $182 #
plane-surface $-1 -1 $-1 0.28100000000000003 0 0 -1 0 0 0 0 1 forward_v I I I I #
coedge $-1 -1 $-1 $325 $326 $327 $328 reversed $183 $-1 #
coedge $-1 -1 $-1 $329 $184 $326 $330 forward $123 $-1 #
coedge $-1 -1 $-1 $184 $329 $331 $273 reversed $123 $-1 #
coedge $-1 -1 $-1 $332 $333 $184 $264 forward $334 $-1 #
edge $-1 -1 $-1 $335 -1.5707963267948966 $277 0 $263 $278 forward @7 unknown #
coedge $-1 -1 $-1 $186 $185 $336 $337 reversed $83 $-1 #
coedge $-1 -1 $-1 $338 $339 $340 $267 forward $341 $-1 #
edge $-1 -1 $-1 $342 -0.074999999999999997 $271 0 $266 $343 forward @7 unknown #
coedge $-1 -1 $-1 $269 $187 $287 $291 forward $270 $-1 #
coedge $-1 -1 $-1 $187 $268 $338 $344 forward $270 $-1 #
loop $-1 -1 $-1 $-1 $187 $345 #
vertex $-1 -1 $-1 $346 $347 #
ellipse-curve $-1 -1 $-1 -1.0535116570800517e-033 0 0.037499999999999999 0 0 -1 0.28100000000000003 0 0 1 I I #
edge $-1 -1 $-1 $277 -0.074999999999999997 $282 0 $331 $348 forward @7 unknown #
coedge $-1 -1 $-1 $275 $190 $195 $285 forward $276 $-1 #
coedge $-1 -1 $-1 $190 $274 $349 $350 forward $276 $-1 #
loop $-1 -1 $-1 $-1 $190 $351 #
vertex $-1 -1 $-1 $352 $353 #
ellipse-curve $-1 -1 $-1 -1.0535116570800517e-033 0 -0.037499999999999999 0 0 1 0.28100000000000003 0 0 1 I I #
coedge $-1 -1 $-1 $280 $192 $354 $355 forward $281 $-1 #
coedge $-1 -1 $-1 $192 $279 $194 $284 forward $281 $-1 #
loop $-1 -1 $-1 $-1 $192 $356 #
vertex $-1 -1 $-1 $355 $357 #
coedge $-1 -1 $-1 $195 $194 $358 $359 forward $197 $-1 #
edge $-1 -1 $-1 $360 -0.28100000000000003 $199 1.0535116570800517e-033 $194 $361 forward @7 unknown #
edge $-1 -1 $-1 $198 -1.0535116570800517e-033 $362 0.28100000000000003 $195 $363 forward @7 unknown #
coedge $-1 -1 $-1 $364 $196 $365 $366 reversed $288 $-1 #
coedge $-1 -1 $-1 $196 $364 $268 $291 reversed $288 $-1 #
loop $-1 -1 $-1 $-1 $196 $257 #
face $-1 -1 $-1 $367 $197 $29 $-1 $323 reversed single #
point $-1 -1 $-1 -1.0535116570800517e-033 0.28100000000000003 -0.037499999999999999 #
edge $-1 -1 $-1 $199 1.0535116570800517e-033 $368 0.28100000000000003 $287 $361 forward @7 unknown #
point $-1 -1 $-1 -1.0535116570800517e-033 0.28100000000000003 0.037499999999999999 #
vertex $-1 -1 $-1 $206 $369 #
ellipse-curve $-1 -1 $-1 0 0 -0.043999999999999997 0 0 -1 0.1875 0 0 1 I I #
convexity-sys-attrib $-1 -1 $-1 $207 $137 #
model_id-kcp-attrib $-1 -1 $-1 $-1 $208 1 1021400431 1021400431 1233453057 15 #
point $-1 -1 $-1 -0.125 0 -0.043999999999999997 #
convexity-sys-attrib $-1 -1 $-1 $210 $139 #
point $-1 -1 $-1 -0.28100000000000003 0 0 #
convexity-sys-attrib $-1 -1 $-1 $-1 $220 #
vertex $-1 -1 $-1 $220 $370 #
ellipse-curve $-1 -1 $-1 -1.0535116570800517e-033 0 0.0064999999999999503 0 0 1 0.28100000000000003 0 0 1 I I #
point $-1 -1 $-1 -0.28100000000000003 -3.4411438542408807e-017 -0.037500000000000047 #
point $-1 -1 $-1 0.1875 0 0.0064999999999999988 #
plane-surface $-1 -1 $-1 0.28100000000000003 0 0 -1 0 0 0 0 1 forward_v I I I I #
coedge $-1 -1 $-1 $232 $230 $234 $310 reversed $160 $-1 #
edge $-1 -1 $-1 $245 -0.037499999999999999 $312 0.037499999999999999 $244 $371 forward @7 unknown #
vertex $-1 -1 $-1 $310 $372 #
straight-curve $-1 -1 $-1 -0.28100000000000003 -0.28100000000000003 0 0 0 -1 I I #
edge $-1 -1 $-1 $308 -0.28100000000000003 $312 0.28100000000000003 $306 $373 forward @7 unknown #
straight-curve $-1 -1 $-1 0 -0.28100000000000003 -0.037499999999999999 -1 0 0 I I #
vertex $-1 -1 $-1 $237 $374 #
straight-curve $-1 -1 $-1 0 0.28100000000000003 -0.037499999999999999 1 0 0 I I #
point $-1 -1 $-1 0.28100000000000003 0.28100000000000003 -0.037499999999999999 #
point $-1 -1 $-1 0.28100000000000003 -0.28100000000000003 -0.037499999999999999 #
straight-curve $-1 -1 $-1 -0.28100000000000003 0 0.037499999999999999 0 -1 0 I I #
point $-1 -1 $-1 -0.28100000000000003 0.28100000000000003 0.037499999999999999 #
point $-1 -1 $-1 -0.28100000000000003 -0.28100000000000003 0.037499999999999999 #
straight-curve $-1 -1 $-1 0.28100000000000003 -0.28100000000000003 0 0 0 -1 I I #
straight-curve $-1 -1 $-1 0.28100000000000003 0.28100000000000003 0 0 0 -1 I I #
point $-1 -1 $-1 0.125 0 0.037499999999999999 #
face $-1 -1 $-1 $375 $376 $29 $-1 $377 reversed single #
plane-surface $-1 -1 $-1 0 0.28100000000000003 0 0 -1 0 0 0 -1 forward_v I I I I #
coedge $-1 -1 $-1 $349 $354 $189 $273 reversed $258 $-1 #
coedge $-1 -1 $-1 $378 $260 $185 $267 forward $183 $-1 #
coedge $-1 -1 $-1 $260 $378 $379 $330 reversed $183 $-1 #
coedge $-1 -1 $-1 $380 $381 $260 $328 forward $382 $-1 #
edge $-1 -1 $-1 $342 -3.1415926535897931 $335 -1.5707963267948966 $327 $278 forward @7 unknown #
coedge $-1 -1 $-1 $262 $261 $383 $384 reversed $123 $-1 #
edge $-1 -1 $-1 $335 -0.074999999999999997 $385 0 $379 $386 forward @7 unknown #
coedge $-1 -1 $-1 $387 $388 $324 $273 forward $389 $-1 #
coedge $-1 -1 $-1 $333 $263 $388 $352 forward $334 $-1 #
coedge $-1 -1 $-1 $263 $332 $390 $391 forward $334 $-1 #
loop $-1 -1 $-1 $-1 $263 $392 #
vertex $-1 -1 $-1 $393 $394 #
coedge $-1 -1 $-1 $395 $365 $265 $337 forward $396 $-1 #
edge $-1 -1 $-1 $198 1.5707963267948966 $342 3.1415926535897931 $336 $278 forward @7 unknown #
coedge $-1 -1 $-1 $397 $266 $269 $344 reversed $341 $-1 #
coedge $-1 -1 $-1 $266 $397 $395 $398 reversed $341 $-1 #
coedge $-1 -1 $-1 $399 $400 $325 $267 reversed $376 $-1 #
loop $-1 -1 $-1 $-1 $266 $401 #
vertex $-1 -1 $-1 $398 $402 #
straight-curve $-1 -1 $-1 -0.28100000000000003 0 0.037499999999999999 0 0 1 I I #
edge $-1 -1 $-1 $368 -0.28100000000000003 $271 0 $338 $403 forward @7 unknown #
face $-1 -1 $-1 $356 $270 $29 $-1 $404 forward single #
edge $-1 -1 $-1 $271 0 $405 0.28100000000000003 $400 $403 forward @7 unknown #
point $-1 -1 $-1 -0.28100000000000003 0 0.037499999999999999 #
straight-curve $-1 -1 $-1 0.28100000000000003 0 0.037499999999999999 0 0 1 I I #
coedge $-1 -1 $-1 $358 $324 $275 $350 reversed $258 $-1 #
edge $-1 -1 $-1 $362 -0.28100000000000003 $277 0 $349 $406 forward @7 unknown #
face $-1 -1 $-1 $407 $276 $29 $-1 $408 reversed single #
edge $-1 -1 $-1 $277 0 $409 0.28100000000000003 $388 $406 forward @7 unknown #
point $-1 -1 $-1 0.28100000000000003 0 -0.037499999999999999 #
coedge $-1 -1 $-1 $324 $358 $279 $355 reversed $258 $-1 #
edge $-1 -1 $-1 $282 0 $360 0.28100000000000003 $354 $410 forward @7 unknown #
face $-1 -1 $-1 $411 $281 $29 $-1 $404 forward single #
point $-1 -1 $-1 0.28100000000000003 0 0.037499999999999999 #
coedge $-1 -1 $-1 $354 $349 $283 $359 reversed $258 $-1 #
edge $-1 -1 $-1 $360 -0.037499999999999999 $362 0.037499999999999999 $358 $412 forward @7 unknown #
vertex $-1 -1 $-1 $355 $413 #
straight-curve $-1 -1 $-1 0 0.28100000000000003 0.037499999999999999 -1 0 0 I I #
vertex $-1 -1 $-1 $350 $414 #
straight-curve $-1 -1 $-1 0 0.28100000000000003 -0.037499999999999999 1 0 0 I I #
coedge $-1 -1 $-1 $287 $286 $397 $415 reversed $288 $-1 #
coedge $-1 -1 $-1 $336 $395 $286 $366 forward $396 $-1 #
edge $-1 -1 $-1 $416 -0.28100000000000003 $198 -1.0535116570800517e-033 $286 $363 forward @7 unknown #
face $-1 -1 $-1 $-1 $389 $29 $-1 $259 reversed single #
vertex $-1 -1 $-1 $291 $417 #
point $-1 -1 $-1 -0.1875 0 -0.043999999999999997 #
point $-1 -1 $-1 -0.28100000000000003 -3.4411438542408807e-017 0.0064999999999999503 #
straight-curve $-1 -1 $-1 -0.28100000000000003 0.28100000000000003 0 0 0 -1 I I #
point $-1 -1 $-1 -0.28100000000000003 -0.28100000000000003 -0.037499999999999999 #
straight-curve $-1 -1 $-1 -0.28100000000000003 0 -0.037499999999999999 0 1 0 I I #
point $-1 -1 $-1 -0.28100000000000003 0.28100000000000003 -0.037499999999999999 #
face $-1 -1 $-1 $345 $418 $29 $-1 $404 forward single #
loop $-1 -1 $-1 $-1 $340 $322 #
plane-surface $-1 -1 $-1 -0.28100000000000003 0 0 1 0 0 0 0 -1 forward_v I I I I #
coedge $-1 -1 $-1 $326 $325 $419 $420 reversed $183 $-1 #
coedge $-1 -1 $-1 $421 $422 $423 $330 forward $424 $-1 #
coedge $-1 -1 $-1 $381 $327 $422 $393 forward $382 $-1 #
coedge $-1 -1 $-1 $327 $380 $399 $425 forward $382 $-1 #
loop $-1 -1 $-1 $-1 $327 $426 #
coedge $-1 -1 $-1 $427 $428 $329 $384 forward $429 $-1 #
edge $-1 -1 $-1 $282 0 $385 1.5707963267948966 $383 $272 forward @7 unknown #
vertex $-1 -1 $-1 $430 $431 #
straight-curve $-1 -1 $-1 -1.0535116570800517e-033 -0.28100000000000003 0.037499999999999999 0 0 1 I I #
coedge $-1 -1 $-1 $432 $331 $428 $433 reversed $389 $-1 #
coedge $-1 -1 $-1 $331 $432 $332 $352 reversed $389 $-1 #
loop $-1 -1 $-1 $-1 $331 $367 #
coedge $-1 -1 $-1 $434 $423 $333 $391 reversed $435 $-1 #
edge $-1 -1 $-1 $409 -0.28100000000000003 $335 1.0535116570800517e-033 $390 $436 forward @7 unknown #
face $-1 -1 $-1 $351 $334 $29 $-1 $408 reversed single #
edge $-1 -1 $-1 $335 1.0535116570800517e-033 $437 0.28100000000000003 $422 $436 forward @7 unknown #
point $-1 -1 $-1 -1.0535116570800517e-033 -0.28100000000000003 -0.037499999999999999 #
coedge $-1 -1 $-1 $365 $336 $339 $398 forward $396 $-1 #
loop $-1 -1 $-1 $-1 $336 $407 #
coedge $-1 -1 $-1 $339 $338 $364 $415 forward $341 $-1 #
edge $-1 -1 $-1 $342 0 $416 0.28100000000000003 $339 $438 forward @7 unknown #
coedge $-1 -1 $-1 $439 $340 $381 $425 reversed $376 $-1 #
coedge $-1 -1 $-1 $340 $439 $440 $346 reversed $376 $-1 #
face $-1 -1 $-1 $289 $341 $29 $-1 $377 reversed single #
point $-1 -1 $-1 -0.28100000000000003 0 -0.037499999999999999 #
straight-curve $-1 -1 $-1 -0.28100000000000003 0 0.037499999999999999 0 -1 0 I I #
plane-surface $-1 -1 $-1 0 0 0.037499999999999999 0 0 1 1 0 0 forward_v I I I I #
vertex $-1 -1 $-1 $346 $441 #
straight-curve $-1 -1 $-1 0.28100000000000003 0 -0.037499999999999999 0 -1 0 I I #
face $-1 -1 $-1 $442 $396 $29 $-1 $408 reversed single #
plane-surface $-1 -1 $-1 0 0 -0.037499999999999999 0 0 1 1 0 0 forward_v I I I I #
vertex $-1 -1 $-1 $443 $444 #
straight-curve $-1 -1 $-1 0.28100000000000003 0 0.037499999999999999 0 1 0 I I #
face $-1 -1 $-1 $445 $429 $29 $-1 $404 forward single #
straight-curve $-1 -1 $-1 0.28100000000000003 0.28100000000000003 0 0 0 -1 I I #
point $-1 -1 $-1 0.28100000000000003 0.28100000000000003 0.037499999999999999 #
point $-1 -1 $-1 0.28100000000000003 0.28100000000000003 -0.037499999999999999 #
edge $-1 -1 $-1 $368 -0.037499999999999999 $416 0.037499999999999999 $364 $446 forward @7 unknown #
vertex $-1 -1 $-1 $366 $447 #
point $-1 -1 $-1 -0.28100000000000003 0.28100000000000003 0.037499999999999999 #
loop $-1 -1 $-1 $-1 $419 $375 #
coedge $-1 -1 $-1 $440 $448 $378 $420 forward $418 $-1 #
edge $-1 -1 $-1 $385 1.5707963267948966 $271 3.1415926535897931 $419 $272 forward @7 unknown #
coedge $-1 -1 $-1 $449 $379 $448 $450 reversed $424 $-1 #
coedge $-1 -1 $-1 $379 $449 $380 $393 reversed $424 $-1 #
coedge $-1 -1 $-1 $390 $451 $261 $330 reversed $435 $-1 #
loop $-1 -1 $-1 $-1 $379 $442 #
edge $-1 -1 $-1 $437 -0.28100000000000003 $342 0 $399 $438 forward @7 unknown #
face $-1 -1 $-1 $392 $382 $29 $-1 $408 reversed single #
coedge $-1 -1 $-1 $428 $383 $451 $430 forward $429 $-1 #
coedge $-1 -1 $-1 $383 $427 $387 $433 forward $429 $-1 #
loop $-1 -1 $-1 $-1 $383 $411 #
edge $-1 -1 $-1 $385 -1.0535116570800517e-033 $452 0.28100000000000003 $451 $453 forward @7 unknown #
point $-1 -1 $-1 -1.0535116570800517e-033 -0.28100000000000003 0.037499999999999999 #
coedge $-1 -1 $-1 $388 $387 $434 $443 forward $389 $-1 #
edge $-1 -1 $-1 $452 -0.28100000000000003 $282 0 $387 $410 forward @7 unknown #
coedge $-1 -1 $-1 $451 $390 $432 $443 reversed $435 $-1 #
loop $-1 -1 $-1 $-1 $423 $445 #
straight-curve $-1 -1 $-1 0 -0.28100000000000003 -0.037499999999999999 -1 0 0 I I #
vertex $-1 -1 $-1 $425 $454 #
straight-curve $-1 -1 $-1 -0.28100000000000003 0 -0.037499999999999999 0 1 0 I I #
coedge $-1 -1 $-1 $400 $399 $449 $455 reversed $376 $-1 #
coedge $-1 -1 $-1 $448 $419 $400 $346 forward $418 $-1 #
point $-1 -1 $-1 -0.28100000000000003 -0.28100000000000003 0.037499999999999999 #
face $-1 -1 $-1 $401 $424 $29 $-1 $456 reversed single #
edge $-1 -1 $-1 $452 -0.037499999999999999 $409 0.037499999999999999 $432 $457 forward @7 unknown #
point $-1 -1 $-1 0.28100000000000003 -0.28100000000000003 -0.037499999999999999 #
face $-1 -1 $-1 $426 $435 $29 $-1 $456 reversed single #
straight-curve $-1 -1 $-1 -0.28100000000000003 0.28100000000000003 0 0 0 -1 I I #
point $-1 -1 $-1 -0.28100000000000003 0.28100000000000003 -0.037499999999999999 #
coedge $-1 -1 $-1 $419 $440 $421 $450 forward $418 $-1 #
coedge $-1 -1 $-1 $422 $421 $439 $455 forward $424 $-1 #
edge $-1 -1 $-1 $405 -0.28100000000000003 $385 -1.0535116570800517e-033 $421 $453 forward @7 unknown #
coedge $-1 -1 $-1 $423 $434 $427 $430 reversed $435 $-1 #
vertex $-1 -1 $-1 $433 $458 #
straight-curve $-1 -1 $-1 0 -0.28100000000000003 0.037499999999999999 1 0 0 I I #
point $-1 -1 $-1 -0.28100000000000003 -0.28100000000000003 -0.037499999999999999 #
edge $-1 -1 $-1 $405 -0.037499999999999999 $437 0.037499999999999999 $439 $459 forward @7 unknown #
plane-surface $-1 -1 $-1 0 -0.28100000000000003 0 0 1 0 0 0 1 forward_v I I I I #
straight-curve $-1 -1 $-1 0.28100000000000003 -0.28100000000000003 0 0 0 -1 I I #
point $-1 -1 $-1 0.28100000000000003 -0.28100000000000003 0.037499999999999999 #
straight-curve $-1 -1 $-1 -0.28100000000000003 -0.28100000000000003 0 0 0 -1 I I #
End-of-ACIS-data 