600 0 2 0           
24 FBMach with ACIS - 6.0.3 13 ACIS 6.0.3 NT 24 Tue May 22 15:34:13 2001 
1 9.9999999999999995e-007 1e-010 
body $2 $3 $-1 $4 #
bdycol-kcp $-1 1 4 $5 $6 $7 $8 #
model_id-kcp-attrib $-1 $-1 $-1 $0 1 990560053 40 807927809 1 #
lump $-1 $-1 $9 $0 #
transform $-1 1 0 0 0 1 0 0 0 1 0 0 0 1 no_rotate no_reflect no_shear #
body $10 $11 $-1 $12 #
body $13 $14 $-1 $15 #
body $16 $17 $-1 $18 #
body $19 $20 $-1 $21 #
shell $-1 $-1 $-1 $22 $-1 $3 #
model_id-kcp-attrib $-1 $-1 $-1 $5 1 990560053 40 807927810 1 #
lump $-1 $-1 $23 $5 #
transform $-1 1 0 0 0 1 0 0 0 1 0 0 -0.0064999999999999988 1 no_rotate no_reflect no_shear #
rgb_color-st-attrib $-1 $24 $-1 $6 0.5 1 1 #
lump $-1 $-1 $25 $6 #
transform $-1 1 0 0 0 1 0 0 0 1 0 0 -0.0064999999999999988 1 no_rotate no_reflect no_shear #
rgb_color-st-attrib $-1 $26 $-1 $7 0.5 1 1 #
lump $-1 $-1 $27 $7 #
transform $-1 1 0 0 0 1 0 0 0 1 0 0 -0.0064999999999999988 1 no_rotate no_reflect no_shear #
rgb_color-st-attrib $-1 $28 $-1 $8 1 0.5 1 #
lump $-1 $-1 $29 $8 #
transform $-1 1 0 0 0 1 0 0 0 1 0 0 -0.0064999999999999988 1 no_rotate no_reflect no_shear #
face $30 $31 $32 $9 $-1 $33 forward single #
shell $-1 $-1 $-1 $34 $-1 $11 #
model_id-kcp-attrib $-1 $-1 $13 $6 1 990560053 60 809238531 1 #
shell $-1 $-1 $-1 $35 $-1 $14 #
model_id-kcp-attrib $-1 $-1 $16 $7 1 990560053 110 812515332 1 #
shell $-1 $-1 $-1 $36 $-1 $17 #
model_id-kcp-attrib $-1 $-1 $19 $8 1 990560053 210 819068933 1 #
shell $-1 $-1 $-1 $37 $-1 $20 #
model_id-kcp-attrib $-1 $38 $-1 $22 1 990560053 40 807927809 8 #
face $39 $40 $41 $9 $-1 $42 reversed single #
loop $-1 $43 $44 $22 #
plane-surface $-1 0 0 0.031 0 0 1 1 0 0 forward_v I I I I #
face $45 $46 $47 $23 $-1 $48 forward single #
face $-1 $49 $50 $25 $-1 $51 forward single #
face $-1 $52 $53 $27 $-1 $54 reversed single #
face $-1 $55 $56 $29 $-1 $57 forward single #
model_id-kcp-attrib $-1 $-1 $30 $22 1 990560053 40 807927809 2 #
model_id-kcp-attrib $-1 $-1 $-1 $31 1 990560053 40 807927809 3 #
face $58 $59 $60 $9 $-1 $61 reversed single #
loop $-1 $62 $63 $31 #
plane-surface $-1 0 0 0 0 0 1 1 0 0 forward_v I I I I #
loop $64 $-1 $65 $22 #
coedge $-1 $44 $44 $66 $67 forward $32 $-1 #
model_id-kcp-attrib $-1 $-1 $-1 $34 1 990560053 40 807927810 2 #
face $68 $69 $70 $23 $-1 $71 reversed single #
loop $-1 $-1 $72 $34 #
plane-surface $-1 0 0 0.037499999999999999 0 0 1 1 0 0 forward_v I I I I #
face $-1 $73 $74 $25 $-1 $75 forward single #
loop $-1 $76 $77 $35 #
cone-surface $-1 0 0 0 0 0 1 0.125 0 0 1 I I 0 1 0.125 forward I I I I #
face $-1 $78 $79 $27 $-1 $54 reversed single #
loop $-1 $-1 $80 $36 #
cone-surface $-1 -1.0535116570800517e-033 0 0.037499999999999999 0 0 1 0.28100000000000003 0 0 1 I I 0 1 0.28100000000000003 forward I I I I #
face $-1 $81 $82 $29 $-1 $83 forward single #
loop $-1 $84 $85 $37 #
cone-surface $-1 0 0 0.0064999999999999503 0 0 -1 -0.1875 0 0 1 I I 0 -1 0.1875 forward I I I I #
model_id-kcp-attrib $-1 $86 $-1 $40 1 990560053 40 807927809 9 #
face $87 $88 $89 $9 $-1 $90 reversed single #
loop $91 $92 $93 $40 #
plane-surface $-1 0 0 -0.043999999999999997 0 0 1 1 0 0 forward_v I I I I #
loop $-1 $-1 $94 $31 #
coedge $-1 $63 $63 $95 $96 forward $41 $-1 #
model_id-kcp-attrib $-1 $-1 $-1 $43 1 990560053 40 807927809 12 #
coedge $-1 $65 $65 $97 $98 forward $43 $-1 #
coedge $-1 $66 $66 $44 $67 reversed $99 $-1 #
edge $100 $101 0 $101 6.2831853071795862 $66 $102 forward 7 unknown #
model_id-kcp-attrib $-1 $-1 $-1 $46 1 990560053 40 807927810 3 #
face $-1 $103 $104 $23 $-1 $105 reversed single #
loop $-1 $-1 $106 $46 #
plane-surface $-1 0 0 -0.037499999999999999 0 0 1 1 0 0 forward_v I I I I #
coedge $-1 $107 $108 $109 $110 forward $47 $-1 #
face $-1 $-1 $111 $25 $-1 $112 forward single #
loop $-1 $-1 $113 $49 #
plane-surface $-1 0 0 -0.037499999999999999 0 0 -1 -1 0 0 forward_v I I I I #
loop $-1 $-1 $114 $35 #
coedge $-1 $77 $77 $113 $115 reversed $50 $-1 #
face $-1 $116 $117 $27 $-1 $54 reversed single #
loop $-1 $-1 $118 $52 #
coedge $-1 $119 $120 $121 $122 reversed $53 $-1 #
face $-1 $123 $124 $29 $-1 $125 reversed single #
loop $-1 $126 $127 $55 #
cone-surface $-1 -1.0535116570800517e-033 0 0.0064999999999999503 0 0 -1 0.28100000000000003 0 0 1 I I 0 1 0.28100000000000003 forward I I I I #
loop $-1 $-1 $128 $37 #
coedge $-1 $85 $85 $129 $130 forward $56 $-1 #
model_id-kcp-attrib $-1 $-1 $58 $40 1 990560053 40 807927809 4 #
model_id-kcp-attrib $-1 $-1 $-1 $59 1 990560053 40 807927809 5 #
face $131 $132 $133 $9 $-1 $134 forward single #
loop $135 $136 $97 $59 #
cone-surface $-1 0 0 -0.047750000000000001 0 0 1 -0.125 0 0 1 I I 0 1 0.125 forward I I I I #
model_id-kcp-attrib $-1 $-1 $-1 $60 1 990560053 40 807927809 13 #
loop $-1 $-1 $137 $40 #
coedge $-1 $93 $93 $138 $139 forward $60 $-1 #
coedge $-1 $94 $94 $140 $141 forward $62 $-1 #
coedge $-1 $95 $95 $63 $96 reversed $142 $-1 #
edge $-1 $143 0 $143 6.2831853071795862 $95 $144 forward 7 unknown #
coedge $-1 $97 $97 $65 $98 reversed $89 $-1 #
edge $145 $146 -3.1415926535897931 $146 3.1415926535897931 $65 $147 forward 7 unknown #
loop $-1 $-1 $66 $88 #
attrib_edge_convexity-kcp-attrib $-1 $148 $-1 $67 1 #
vertex $-1 $67 $149 #
ellipse-curve $-1 0 0 0.031 0 0 1 0.28100000000000003 0 0 1 I I #
face $-1 $150 $151 $23 $-1 $152 reversed single #
loop $-1 $-1 $153 $69 #
plane-surface $-1 0 -0.28100000000000003 0 0 1 0 0 0 1 forward_v I I I I #
coedge $-1 $154 $155 $156 $157 forward $70 $-1 #
coedge $-1 $158 $72 $159 $160 forward $47 $-1 #
coedge $-1 $72 $158 $161 $162 forward $47 $-1 #
coedge $-1 $163 $164 $72 $110 reversed $165 $-1 #
edge $-1 $166 -0.28100000000000003 $167 0.28100000000000003 $109 $168 forward 7 unknown #
loop $-1 $-1 $169 $73 #
plane-surface $-1 0 0 0.037499999999999999 0 0 1 1 0 0 forward_v I I I I #
coedge $-1 $113 $113 $77 $115 forward $74 $-1 #
coedge $-1 $114 $114 $169 $170 reversed $76 $-1 #
edge $-1 $171 0 $171 6.2831853071795862 $113 $172 forward 7 unknown #
face $-1 $173 $174 $27 $-1 $54 reversed single #
loop $-1 $-1 $175 $78 #
coedge $-1 $176 $177 $178 $179 reversed $79 $-1 #
coedge $-1 $180 $80 $181 $182 reversed $53 $-1 #
coedge $-1 $80 $180 $183 $184 reversed $53 $-1 #
coedge $-1 $185 $186 $187 $122 forward $188 $-1 #
edge $-1 $189 -0.074999999999999997 $190 0 $121 $191 forward 7 unknown #
face $-1 $-1 $192 $29 $-1 $193 forward single #
loop $-1 $194 $195 $81 #
plane-surface $-1 -0.0084999999999999989 2.2027688071013367e-018 -0.037500000000000047 0 0 1 1 0 0 forward_v I I I I #
loop $-1 $-1 $196 $55 #
coedge $-1 $127 $127 $195 $197 forward $82 $-1 #
coedge $-1 $128 $128 $198 $199 reversed $84 $-1 #
coedge $-1 $129 $129 $85 $130 reversed $194 $-1 #
edge $-1 $200 -3.1415926535897931 $200 3.1415926535897931 $85 $201 forward 7 unknown #
model_id-kcp-attrib $-1 $-1 $-1 $88 1 990560053 40 807927809 6 #
face $202 $-1 $203 $9 $-1 $204 forward single #
loop $-1 $99 $140 $88 #
cone-surface $-1 0 0 -0.047750000000000001 0 0 1 -0.28100000000000003 0 0 1 I I 0 1 0.28100000000000003 forward I I I I #
model_id-kcp-attrib $-1 $-1 $-1 $89 1 990560053 40 807927809 10 #
loop $205 $-1 $138 $59 #
coedge $-1 $137 $137 $206 $207 forward $92 $-1 #
coedge $-1 $138 $138 $93 $139 reversed $136 $-1 #
edge $208 $209 -3.1415926535897931 $209 3.1415926535897931 $138 $210 forward 7 unknown #
coedge $-1 $140 $140 $94 $141 reversed $133 $-1 #
edge $-1 $211 -3.1415926535897931 $211 3.1415926535897931 $94 $212 forward 7 unknown #
loop $-1 $-1 $95 $132 #
vertex $-1 $96 $213 #
ellipse-curve $-1 0 0 0 0 0 1 0.1875 0 0 1 I I #
attrib_edge_convexity-kcp-attrib $-1 $214 $-1 $98 1 #
vertex $215 $98 $216 #
ellipse-curve $-1 0 0 0.031 0 0 -1 0.125 0 0 1 I I #
convexity-sys-attrib $-1 $-1 $100 $67 #
point $-1 0.28100000000000003 0 0.031 #
face $-1 $217 $218 $23 $-1 $219 reversed single #
loop $-1 $-1 $220 $103 #
plane-surface $-1 -0.28100000000000003 0 0 1 0 0 0 0 -1 forward_v I I I I #
coedge $-1 $221 $161 $222 $223 forward $104 $-1 #
coedge $-1 $224 $106 $221 $225 forward $70 $-1 #
coedge $-1 $106 $224 $226 $227 forward $70 $-1 #
coedge $-1 $164 $163 $106 $157 reversed $165 $-1 #
edge $-1 $228 -0.28100000000000003 $229 0.28100000000000003 $156 $230 forward 7 unknown #
coedge $-1 $108 $107 $231 $232 forward $47 $-1 #
coedge $-1 $233 $234 $107 $160 reversed $218 $-1 #
edge $-1 $167 -0.28100000000000003 $235 0.28100000000000003 $159 $236 forward 7 unknown #
coedge $-1 $153 $237 $108 $162 reversed $104 $-1 #
edge $-1 $238 -0.28100000000000003 $166 0.28100000000000003 $161 $239 forward 7 unknown #
coedge $-1 $156 $109 $237 $240 forward $165 $-1 #
coedge $-1 $109 $156 $233 $241 reversed $165 $-1 #
loop $-1 $-1 $163 $217 #
vertex $-1 $110 $242 #
vertex $-1 $110 $243 #
straight-curve $-1 0.28100000000000003 0 0.037499999999999999 0 1 0 I I #
coedge $-1 $169 $169 $114 $170 forward $111 $-1 #
edge $-1 $244 0 $244 6.2831853071795862 $169 $245 forward 7 unknown #
vertex $-1 $115 $246 #
ellipse-curve $-1 0 0 -0.037499999999999999 0 0 -1 0.125 0 0 1 I I #
face $-1 $247 $248 $27 $-1 $249 reversed single #
loop $-1 $-1 $250 $116 #
coedge $-1 $251 $252 $253 $254 reversed $117 $-1 #
coedge $-1 $255 $118 $256 $257 reversed $79 $-1 #
coedge $-1 $118 $255 $80 $122 forward $79 $-1 #
coedge $-1 $258 $259 $118 $179 forward $260 $-1 #
edge $-1 $261 -3.1415926535897931 $190 -1.5707963267948966 $178 $262 forward 7 unknown #
coedge $-1 $120 $119 $252 $263 forward $53 $-1 #
coedge $-1 $264 $265 $119 $182 forward $266 $-1 #
edge $-1 $267 0 $189 1.5707963267948966 $181 $268 forward 7 unknown #
coedge $-1 $269 $270 $120 $184 forward $271 $-1 #
edge $-1 $190 -1.5707963267948966 $272 0 $183 $262 forward 7 unknown #
coedge $-1 $273 $121 $270 $274 reversed $188 $-1 #
coedge $-1 $121 $273 $264 $275 reversed $188 $-1 #
coedge $-1 $276 $277 $177 $122 reversed $278 $-1 #
loop $-1 $-1 $121 $279 #
vertex $-1 $275 $280 #
vertex $-1 $281 $282 #
straight-curve $-1 -1.0535116570800517e-033 0.28100000000000003 0.037499999999999999 0 0 1 I I #
loop $-1 $283 $284 $123 #
plane-surface $-1 -0.0084999999999999989 2.2027688071013367e-018 0.0064999999999999503 0 0 1 1 0 0 forward_v I I I I #
loop $-1 $-1 $129 $81 #
coedge $-1 $195 $195 $127 $197 reversed $124 $-1 #
coedge $-1 $196 $196 $284 $285 reversed $126 $-1 #
edge $-1 $286 -3.1415926535897931 $286 3.1415926535897931 $127 $287 forward 7 unknown #
coedge $-1 $198 $198 $128 $199 forward $283 $-1 #
edge $-1 $288 -3.1415926535897931 $288 3.1415926535897931 $128 $289 forward 7 unknown #
vertex $-1 $130 $290 #
ellipse-curve $-1 0 0 -0.037500000000000047 0 0 -1 -0.1875 0 0 1 I I #
model_id-kcp-attrib $-1 $-1 $-1 $132 1 990560053 40 807927809 7 #
loop $-1 $142 $206 $132 #
cone-surface $-1 0 0 -0.047750000000000001 0 0 1 -0.1875 0 0 1 I I 0 1 0.1875 forward I I I I #
model_id-kcp-attrib $-1 $-1 $-1 $136 1 990560053 40 807927809 11 #
coedge $-1 $206 $206 $137 $207 reversed $203 $-1 #
edge $-1 $291 -3.1415926535897931 $291 3.1415926535897931 $137 $292 forward 7 unknown #
attrib_edge_convexity-kcp-attrib $-1 $293 $-1 $139 1 #
vertex $294 $139 $295 #
ellipse-curve $-1 0 0 -0.043999999999999997 0 0 1 0.125 0 0 1 I I #
vertex $-1 $141 $296 #
ellipse-curve $-1 0 0 0 0 0 -1 0.28100000000000003 0 0 1 I I #
point $-1 0.1875 0 0 #
convexity-sys-attrib $-1 $-1 $145 $98 #
model_id-kcp-attrib $-1 $-1 $-1 $146 1 990560053 40 807927809 14 #
point $-1 -0.125 0 0.031 #
face $-1 $-1 $165 $23 $-1 $297 reversed single #
loop $-1 $-1 $233 $150 #
plane-surface $-1 0 0.28100000000000003 0 0 -1 0 0 0 -1 forward_v I I I I #
coedge $-1 $298 $231 $234 $299 forward $151 $-1 #
coedge $-1 $237 $153 $154 $225 reversed $104 $-1 #
coedge $-1 $231 $298 $153 $223 reversed $151 $-1 #
edge $-1 $238 -0.037499999999999999 $300 0.037499999999999999 $222 $301 forward 7 unknown #
coedge $-1 $155 $154 $298 $302 forward $70 $-1 #
edge $-1 $229 -0.28100000000000003 $300 0.28100000000000003 $221 $303 forward 7 unknown #
coedge $-1 $234 $233 $155 $227 reversed $218 $-1 #
edge $-1 $304 -0.28100000000000003 $228 0.28100000000000003 $226 $305 forward 7 unknown #
vertex $-1 $157 $306 #
vertex $-1 $240 $307 #
straight-curve $-1 0.28100000000000003 0 -0.037499999999999999 0 -1 0 I I #
coedge $-1 $220 $222 $158 $232 reversed $151 $-1 #
edge $-1 $235 -0.28100000000000003 $238 0.28100000000000003 $231 $308 forward 7 unknown #
coedge $-1 $226 $159 $164 $241 forward $218 $-1 #
coedge $-1 $159 $226 $220 $299 reversed $218 $-1 #
vertex $-1 $160 $309 #
straight-curve $-1 0 0.28100000000000003 0.037499999999999999 -1 0 0 I I #
coedge $-1 $161 $221 $163 $240 reversed $104 $-1 #
vertex $-1 $232 $310 #
straight-curve $-1 0 -0.28100000000000003 0.037499999999999999 1 0 0 I I #
edge $-1 $166 -0.037499999999999999 $229 0.037499999999999999 $163 $311 forward 7 unknown #
edge $-1 $167 -0.037499999999999999 $228 0.037499999999999999 $164 $312 forward 7 unknown #
point $-1 0.28100000000000003 -0.28100000000000003 0.037499999999999999 #
point $-1 0.28100000000000003 0.28100000000000003 0.037499999999999999 #
vertex $-1 $170 $313 #
ellipse-curve $-1 0 0 0.037499999999999999 0 0 1 0.125 0 0 1 I I #
point $-1 0.125 0 -0.037499999999999999 #
face $-1 $314 $278 $27 $-1 $315 reversed single #
loop $-1 $-1 $316 $173 #
plane-surface $-1 0.28100000000000003 0 0 -1 0 0 0 0 1 forward_v I I I I #
coedge $-1 $317 $318 $319 $320 reversed $174 $-1 #
coedge $-1 $321 $175 $318 $322 forward $117 $-1 #
coedge $-1 $175 $321 $323 $263 reversed $117 $-1 #
coedge $-1 $324 $325 $175 $254 forward $326 $-1 #
edge $-1 $327 -1.5707963267948966 $267 0 $253 $268 forward 7 unknown #
coedge $-1 $177 $176 $328 $329 reversed $79 $-1 #
coedge $-1 $330 $331 $332 $257 forward $333 $-1 #
edge $-1 $334 -0.074999999999999997 $261 0 $256 $335 forward 7 unknown #
coedge $-1 $259 $178 $277 $281 forward $260 $-1 #
coedge $-1 $178 $258 $330 $336 forward $260 $-1 #
loop $-1 $-1 $178 $337 #
vertex $-1 $338 $339 #
ellipse-curve $-1 -1.0535116570800517e-033 0 0.037499999999999999 0 0 -1 0.28100000000000003 0 0 1 I I #
edge $-1 $267 -0.074999999999999997 $272 0 $323 $340 forward 7 unknown #
coedge $-1 $265 $181 $186 $275 forward $266 $-1 #
coedge $-1 $181 $264 $341 $342 forward $266 $-1 #
loop $-1 $-1 $181 $343 #
vertex $-1 $344 $345 #
ellipse-curve $-1 -1.0535116570800517e-033 0 -0.037499999999999999 0 0 1 0.28100000000000003 0 0 1 I I #
coedge $-1 $270 $183 $346 $347 forward $271 $-1 #
coedge $-1 $183 $269 $185 $274 forward $271 $-1 #
loop $-1 $-1 $183 $348 #
vertex $-1 $347 $349 #
coedge $-1 $186 $185 $350 $351 forward $188 $-1 #
edge $-1 $352 -0.28100000000000003 $190 1.0535116570800517e-033 $185 $353 forward 7 unknown #
edge $-1 $189 -1.0535116570800517e-033 $354 0.28100000000000003 $186 $355 forward 7 unknown #
coedge $-1 $356 $187 $357 $358 reversed $278 $-1 #
coedge $-1 $187 $356 $258 $281 reversed $278 $-1 #
loop $-1 $-1 $187 $247 #
face $-1 $359 $188 $27 $-1 $315 reversed single #
point $-1 -1.0535116570800517e-033 0.28100000000000003 -0.037499999999999999 #
edge $-1 $190 1.0535116570800517e-033 $360 0.28100000000000003 $277 $353 forward 7 unknown #
point $-1 -1.0535116570800517e-033 0.28100000000000003 0.037499999999999999 #
loop $-1 $-1 $198 $123 #
coedge $-1 $284 $284 $196 $285 forward $192 $-1 #
edge $361 $362 -3.1415926535897931 $362 3.1415926535897931 $196 $363 forward 7 unknown #
vertex $-1 $197 $364 #
ellipse-curve $-1 -1.0535116570800517e-033 0 -0.037500000000000047 0 0 1 0.28100000000000003 0 0 1 I I #
vertex $-1 $199 $365 #
ellipse-curve $-1 0 0 0.0064999999999999503 0 0 -1 -0.1875 0 0 1 I I #
point $-1 0.1875 0 -0.037499999999999999 #
vertex $-1 $207 $366 #
ellipse-curve $-1 0 0 -0.043999999999999997 0 0 -1 0.1875 0 0 1 I I #
convexity-sys-attrib $-1 $-1 $208 $139 #
model_id-kcp-attrib $-1 $-1 $-1 $209 1 990560053 40 807927809 15 #
point $-1 -0.125 0 -0.043999999999999997 #
point $-1 -0.28100000000000003 0 0 #
plane-surface $-1 0.28100000000000003 0 0 -1 0 0 0 0 1 forward_v I I I I #
coedge $-1 $222 $220 $224 $302 reversed $151 $-1 #
edge $-1 $235 -0.037499999999999999 $304 0.037499999999999999 $234 $367 forward 7 unknown #
vertex $-1 $302 $368 #
straight-curve $-1 -0.28100000000000003 -0.28100000000000003 0 0 0 -1 I I #
edge $-1 $300 -0.28100000000000003 $304 0.28100000000000003 $298 $369 forward 7 unknown #
straight-curve $-1 0 -0.28100000000000003 -0.037499999999999999 -1 0 0 I I #
vertex $-1 $227 $370 #
straight-curve $-1 0 0.28100000000000003 -0.037499999999999999 1 0 0 I I #
point $-1 0.28100000000000003 0.28100000000000003 -0.037499999999999999 #
point $-1 0.28100000000000003 -0.28100000000000003 -0.037499999999999999 #
straight-curve $-1 -0.28100000000000003 0 0.037499999999999999 0 -1 0 I I #
point $-1 -0.28100000000000003 0.28100000000000003 0.037499999999999999 #
point $-1 -0.28100000000000003 -0.28100000000000003 0.037499999999999999 #
straight-curve $-1 0.28100000000000003 -0.28100000000000003 0 0 0 -1 I I #
straight-curve $-1 0.28100000000000003 0.28100000000000003 0 0 0 -1 I I #
point $-1 0.125 0 0.037499999999999999 #
face $-1 $371 $372 $27 $-1 $373 reversed single #
plane-surface $-1 0 0.28100000000000003 0 0 -1 0 0 0 -1 forward_v I I I I #
coedge $-1 $341 $346 $180 $263 reversed $248 $-1 #
coedge $-1 $374 $250 $176 $257 forward $174 $-1 #
coedge $-1 $250 $374 $375 $322 reversed $174 $-1 #
coedge $-1 $376 $377 $250 $320 forward $378 $-1 #
edge $-1 $334 -3.1415926535897931 $327 -1.5707963267948966 $319 $268 forward 7 unknown #
coedge $-1 $252 $251 $379 $380 reversed $117 $-1 #
edge $-1 $327 -0.074999999999999997 $381 0 $375 $382 forward 7 unknown #
coedge $-1 $383 $384 $316 $263 forward $385 $-1 #
coedge $-1 $325 $253 $384 $344 forward $326 $-1 #
coedge $-1 $253 $324 $386 $387 forward $326 $-1 #
loop $-1 $-1 $253 $388 #
vertex $-1 $389 $390 #
coedge $-1 $391 $357 $255 $329 forward $392 $-1 #
edge $-1 $189 1.5707963267948966 $334 3.1415926535897931 $328 $268 forward 7 unknown #
coedge $-1 $393 $256 $259 $336 reversed $333 $-1 #
coedge $-1 $256 $393 $391 $394 reversed $333 $-1 #
coedge $-1 $395 $396 $317 $257 reversed $372 $-1 #
loop $-1 $-1 $256 $397 #
vertex $-1 $394 $398 #
straight-curve $-1 -0.28100000000000003 0 0.037499999999999999 0 0 1 I I #
edge $-1 $360 -0.28100000000000003 $261 0 $330 $399 forward 7 unknown #
face $-1 $348 $260 $27 $-1 $400 forward single #
edge $-1 $261 0 $401 0.28100000000000003 $396 $399 forward 7 unknown #
point $-1 -0.28100000000000003 0 0.037499999999999999 #
straight-curve $-1 0.28100000000000003 0 0.037499999999999999 0 0 1 I I #
coedge $-1 $350 $316 $265 $342 reversed $248 $-1 #
edge $-1 $354 -0.28100000000000003 $267 0 $341 $402 forward 7 unknown #
face $-1 $403 $266 $27 $-1 $404 reversed single #
edge $-1 $267 0 $405 0.28100000000000003 $384 $402 forward 7 unknown #
point $-1 0.28100000000000003 0 -0.037499999999999999 #
coedge $-1 $316 $350 $269 $347 reversed $248 $-1 #
edge $-1 $272 0 $352 0.28100000000000003 $346 $406 forward 7 unknown #
face $-1 $407 $271 $27 $-1 $400 forward single #
point $-1 0.28100000000000003 0 0.037499999999999999 #
coedge $-1 $346 $341 $273 $351 reversed $248 $-1 #
edge $-1 $352 -0.037499999999999999 $354 0.037499999999999999 $350 $408 forward 7 unknown #
vertex $-1 $347 $409 #
straight-curve $-1 0 0.28100000000000003 0.037499999999999999 -1 0 0 I I #
vertex $-1 $342 $410 #
straight-curve $-1 0 0.28100000000000003 -0.037499999999999999 1 0 0 I I #
coedge $-1 $277 $276 $393 $411 reversed $278 $-1 #
coedge $-1 $328 $391 $276 $358 forward $392 $-1 #
edge $-1 $412 -0.28100000000000003 $189 -1.0535116570800517e-033 $276 $355 forward 7 unknown #
face $-1 $-1 $385 $27 $-1 $249 reversed single #
vertex $-1 $281 $413 #
convexity-sys-attrib $-1 $-1 $-1 $285 #
vertex $-1 $285 $414 #
ellipse-curve $-1 -1.0535116570800517e-033 0 0.0064999999999999503 0 0 1 0.28100000000000003 0 0 1 I I #
point $-1 -0.28100000000000003 -3.4411438542408807e-017 -0.037500000000000047 #
point $-1 0.1875 0 0.0064999999999999988 #
point $-1 -0.1875 0 -0.043999999999999997 #
straight-curve $-1 -0.28100000000000003 0.28100000000000003 0 0 0 -1 I I #
point $-1 -0.28100000000000003 -0.28100000000000003 -0.037499999999999999 #
straight-curve $-1 -0.28100000000000003 0 -0.037499999999999999 0 1 0 I I #
point $-1 -0.28100000000000003 0.28100000000000003 -0.037499999999999999 #
face $-1 $337 $415 $27 $-1 $400 forward single #
loop $-1 $-1 $332 $314 #
plane-surface $-1 -0.28100000000000003 0 0 1 0 0 0 0 -1 forward_v I I I I #
coedge $-1 $318 $317 $416 $417 reversed $174 $-1 #
coedge $-1 $418 $419 $420 $322 forward $421 $-1 #
coedge $-1 $377 $319 $419 $389 forward $378 $-1 #
coedge $-1 $319 $376 $395 $422 forward $378 $-1 #
loop $-1 $-1 $319 $423 #
coedge $-1 $424 $425 $321 $380 forward $426 $-1 #
edge $-1 $272 0 $381 1.5707963267948966 $379 $262 forward 7 unknown #
vertex $-1 $427 $428 #
straight-curve $-1 -1.0535116570800517e-033 -0.28100000000000003 0.037499999999999999 0 0 1 I I #
coedge $-1 $429 $323 $425 $430 reversed $385 $-1 #
coedge $-1 $323 $429 $324 $344 reversed $385 $-1 #
loop $-1 $-1 $323 $359 #
coedge $-1 $431 $420 $325 $387 reversed $432 $-1 #
edge $-1 $405 -0.28100000000000003 $327 1.0535116570800517e-033 $386 $433 forward 7 unknown #
face $-1 $343 $326 $27 $-1 $404 reversed single #
edge $-1 $327 1.0535116570800517e-033 $434 0.28100000000000003 $419 $433 forward 7 unknown #
point $-1 -1.0535116570800517e-033 -0.28100000000000003 -0.037499999999999999 #
coedge $-1 $357 $328 $331 $394 forward $392 $-1 #
loop $-1 $-1 $328 $403 #
coedge $-1 $331 $330 $356 $411 forward $333 $-1 #
edge $-1 $334 0 $412 0.28100000000000003 $331 $435 forward 7 unknown #
coedge $-1 $436 $332 $377 $422 reversed $372 $-1 #
coedge $-1 $332 $436 $437 $338 reversed $372 $-1 #
face $-1 $279 $333 $27 $-1 $373 reversed single #
point $-1 -0.28100000000000003 0 -0.037499999999999999 #
straight-curve $-1 -0.28100000000000003 0 0.037499999999999999 0 -1 0 I I #
plane-surface $-1 0 0 0.037499999999999999 0 0 1 1 0 0 forward_v I I I I #
vertex $-1 $338 $438 #
straight-curve $-1 0.28100000000000003 0 -0.037499999999999999 0 -1 0 I I #
face $-1 $439 $392 $27 $-1 $404 reversed single #
plane-surface $-1 0 0 -0.037499999999999999 0 0 1 1 0 0 forward_v I I I I #
vertex $-1 $440 $441 #
straight-curve $-1 0.28100000000000003 0 0.037499999999999999 0 1 0 I I #
face $-1 $442 $426 $27 $-1 $400 forward single #
straight-curve $-1 0.28100000000000003 0.28100000000000003 0 0 0 -1 I I #
point $-1 0.28100000000000003 0.28100000000000003 0.037499999999999999 #
point $-1 0.28100000000000003 0.28100000000000003 -0.037499999999999999 #
edge $-1 $360 -0.037499999999999999 $412 0.037499999999999999 $356 $443 forward 7 unknown #
vertex $-1 $358 $444 #
point $-1 -0.28100000000000003 0.28100000000000003 0.037499999999999999 #
point $-1 -0.28100000000000003 -3.4411438542408807e-017 0.0064999999999999503 #
loop $-1 $-1 $416 $371 #
coedge $-1 $437 $445 $374 $417 forward $415 $-1 #
edge $-1 $381 1.5707963267948966 $261 3.1415926535897931 $416 $262 forward 7 unknown #
coedge $-1 $446 $375 $445 $447 reversed $421 $-1 #
coedge $-1 $375 $446 $376 $389 reversed $421 $-1 #
coedge $-1 $386 $448 $251 $322 reversed $432 $-1 #
loop $-1 $-1 $375 $439 #
edge $-1 $434 -0.28100000000000003 $334 0 $395 $435 forward 7 unknown #
face $-1 $388 $378 $27 $-1 $404 reversed single #
coedge $-1 $425 $379 $448 $427 forward $426 $-1 #
coedge $-1 $379 $424 $383 $430 forward $426 $-1 #
loop $-1 $-1 $379 $407 #
edge $-1 $381 -1.0535116570800517e-033 $449 0.28100000000000003 $448 $450 forward 7 unknown #
point $-1 -1.0535116570800517e-033 -0.28100000000000003 0.037499999999999999 #
coedge $-1 $384 $383 $431 $440 forward $385 $-1 #
edge $-1 $449 -0.28100000000000003 $272 0 $383 $406 forward 7 unknown #
coedge $-1 $448 $386 $429 $440 reversed $432 $-1 #
loop $-1 $-1 $420 $442 #
straight-curve $-1 0 -0.28100000000000003 -0.037499999999999999 -1 0 0 I I #
vertex $-1 $422 $451 #
straight-curve $-1 -0.28100000000000003 0 -0.037499999999999999 0 1 0 I I #
coedge $-1 $396 $395 $446 $452 reversed $372 $-1 #
coedge $-1 $445 $416 $396 $338 forward $415 $-1 #
point $-1 -0.28100000000000003 -0.28100000000000003 0.037499999999999999 #
face $-1 $397 $421 $27 $-1 $453 reversed single #
edge $-1 $449 -0.037499999999999999 $405 0.037499999999999999 $429 $454 forward 7 unknown #
point $-1 0.28100000000000003 -0.28100000000000003 -0.037499999999999999 #
face $-1 $423 $432 $27 $-1 $453 reversed single #
straight-curve $-1 -0.28100000000000003 0.28100000000000003 0 0 0 -1 I I #
point $-1 -0.28100000000000003 0.28100000000000003 -0.037499999999999999 #
coedge $-1 $416 $437 $418 $447 forward $415 $-1 #
coedge $-1 $419 $418 $436 $452 forward $421 $-1 #
edge $-1 $401 -0.28100000000000003 $381 -1.0535116570800517e-033 $418 $450 forward 7 unknown #
coedge $-1 $420 $431 $424 $427 reversed $432 $-1 #
vertex $-1 $430 $455 #
straight-curve $-1 0 -0.28100000000000003 0.037499999999999999 1 0 0 I I #
point $-1 -0.28100000000000003 -0.28100000000000003 -0.037499999999999999 #
edge $-1 $401 -0.037499999999999999 $434 0.037499999999999999 $436 $456 forward 7 unknown #
plane-surface $-1 0 -0.28100000000000003 0 0 1 0 0 0 1 forward_v I I I I #
straight-curve $-1 0.28100000000000003 -0.28100000000000003 0 0 0 -1 I I #
point $-1 0.28100000000000003 -0.28100000000000003 0.037499999999999999 #
straight-curve $-1 -0.28100000000000003 -0.28100000000000003 0 0 0 -1 I I #
End-of-ACIS-data 