700 0 2 0           
24 FBMach with ACIS - 7.0.3 13 ACIS 7.0.3 NT 24 Tue May 14 14:20:33 2002 
1 9.9999999999999995e-007 1e-010 
body $2 -1 $-1 $3 $-1 $4 #
bdycol-kcp $-1 -1 1 4 $5 $6 $7 $8 #
model_id-kcp-attrib $-1 -1 $-1 $-1 $0 1 1021400432 1021400432 55771137 1 #
lump $-1 -1 $-1 $-1 $9 $0 #
transform $-1 -1 1 0 0 0 1 0 0 0 1 0 0 0 1 rotate no_reflect no_shear #
body $10 -1 $-1 $11 $-1 $12 #
body $13 -1 $-1 $14 $-1 $15 #
body $16 -1 $-1 $17 $-1 $18 #
body $19 -1 $-1 $20 $-1 $21 #
shell $-1 -1 $-1 $-1 $-1 $22 $-1 $3 #
rgb_color-st-attrib $-1 -1 $23 $-1 $5 0.5 1 1 #
lump $-1 -1 $-1 $-1 $24 $5 #
transform $-1 -1 1 0 0 0 1 0 0 0 1 0 0 0 1 no_rotate no_reflect no_shear #
model_id-kcp-attrib $-1 -1 $-1 $-1 $6 1 1021400432 1021400432 55771138 1 #
lump $-1 -1 $-1 $-1 $25 $6 #
transform $-1 -1 1 0 0 0 1 0 0 0 1 0 0 -0.16509999999999997 1 no_rotate no_reflect no_shear #
rgb_color-st-attrib $-1 -1 $26 $-1 $7 1 0.5 1 #
lump $-1 -1 $-1 $-1 $27 $7 #
transform $-1 -1 1 0 0 0 1 0 0 0 1 0 0 -0.16509999999999997 1 no_rotate no_reflect no_shear #
rgb_color-st-attrib $-1 -1 $28 $-1 $8 0.5 1 1 #
lump $-1 -1 $-1 $-1 $29 $8 #
transform $-1 -1 1 0 0 0 1 0 0 0 1 0 0 -0.16509999999999997 1 no_rotate no_reflect no_shear #
face $30 -1 $-1 $31 $32 $9 $-1 $33 reversed single #
model_id-kcp-attrib $-1 -1 $-1 $10 $5 1 1021400432 1021400432 50790404 1 #
shell $-1 -1 $-1 $-1 $-1 $34 $-1 $11 #
shell $-1 -1 $-1 $-1 $-1 $35 $-1 $14 #
model_id-kcp-attrib $-1 -1 $-1 $16 $7 1 1021400432 1021400432 59965445 1 #
shell $-1 -1 $-1 $-1 $-1 $36 $-1 $17 #
model_id-kcp-attrib $-1 -1 $-1 $19 $8 1 1021400432 1021400432 62980099 1 #
shell $-1 -1 $-1 $-1 $-1 $37 $-1 $20 #
model_id-kcp-attrib $-1 -1 $-1 $-1 $22 1 1021400432 1021400432 55771137 2 #
face $38 -1 $-1 $39 $40 $9 $-1 $41 forward single #
loop $-1 -1 $-1 $-1 $42 $22 #
cone-surface $-1 -1 $-1 0 0 -1.2128500000000018 0 0 1 -3.1749999999999998 0 0 1 I I 0 1 3.1749999999999998 forward I I I I #
face $-1 -1 $-1 $43 $44 $24 $-1 $45 forward single #
face $46 -1 $-1 $47 $48 $25 $-1 $49 forward single #
face $-1 -1 $-1 $50 $51 $27 $-1 $52 forward single #
face $-1 -1 $-1 $53 $54 $29 $-1 $55 reversed single #
model_id-kcp-attrib $-1 -1 $-1 $-1 $31 1 1021400432 1021400432 55771137 3 #
face $56 -1 $-1 $57 $58 $9 $-1 $59 forward single #
loop $-1 -1 $-1 $60 $61 $31 #
plane-surface $-1 -1 $-1 0 0 0.78739999999999999 0 0 1 -25.399999999999999 0 0 forward_v I I I I #
coedge $-1 -1 $-1 $62 $63 $64 $65 forward $32 $-1 #
face $-1 -1 $-1 $66 $67 $24 $-1 $68 reversed single #
loop $-1 -1 $-1 $69 $70 $34 #
cone-surface $-1 -1 $-1 -8.8123952579621795e-017 0 0.78739999999999999 0 0 -1 3.1749999999999998 0 0 1 I I 0 1 3.1749999999999998 forward I I I I #
model_id-kcp-attrib $-1 -1 $-1 $-1 $35 1 1021400432 1021400432 55771138 2 #
face $71 -1 $-1 $72 $73 $25 $-1 $74 reversed single #
loop $-1 -1 $-1 $-1 $75 $35 #
plane-surface $-1 -1 $-1 0 0 0.9524999999999999 0 0 1 1 0 0 forward_v I I I I #
face $-1 -1 $-1 $76 $77 $27 $-1 $78 forward single #
loop $-1 -1 $-1 $79 $80 $36 #
cone-surface $-1 -1 $-1 0 0 0.16509999999999891 0 0 -1 -4.7624999999999993 0 0 1 I I 0 -1 4.7624999999999993 forward I I I I #
face $-1 -1 $-1 $81 $82 $29 $-1 $55 reversed single #
loop $-1 -1 $-1 $-1 $83 $37 #
cone-surface $-1 -1 $-1 0 0 0.9524999999999999 0 0 1 7.1374000000000004 8.7405053897718363e-016 0 1 I I 0 1 7.1374000000000004 forward I I I I #
model_id-kcp-attrib $-1 -1 $-1 $-1 $39 1 1021400432 1021400432 55771137 4 #
face $84 -1 $-1 $85 $86 $9 $-1 $87 forward single #
loop $-1 -1 $-1 $-1 $88 $39 #
cone-surface $-1 -1 $-1 0 0 -1.2128500000000018 0 0 1 -7.1374000000000004 0 0 1 I I 0 1 7.1374000000000004 forward I I I I #
loop $-1 -1 $-1 $-1 $64 $31 #
coedge $-1 -1 $-1 $89 $89 $88 $90 reversed $40 $-1 #
coedge $-1 -1 $-1 $91 $42 $92 $93 reversed $32 $-1 #
coedge $-1 -1 $-1 $42 $91 $94 $95 forward $32 $-1 #
coedge $-1 -1 $-1 $96 $96 $42 $65 reversed $60 $-1 #
edge $97 -1 $-1 $98 1.2246063538223773e-016 $99 3.1415926535897931 $42 $100 forward @7 unknown #
face $-1 -1 $-1 $-1 $101 $24 $-1 $102 forward single #
loop $-1 -1 $-1 $-1 $103 $43 #
plane-surface $-1 -1 $-1 1.2111523905001709e-016 0 -1.1175999999999999 0 0 1 1 0 0 forward_v I I I I #
loop $-1 -1 $-1 $-1 $104 $34 #
coedge $-1 -1 $-1 $70 $70 $103 $105 forward $44 $-1 #
model_id-kcp-attrib $-1 -1 $-1 $-1 $47 1 1021400432 1021400432 55771138 3 #
face $-1 -1 $-1 $106 $107 $25 $-1 $108 reversed single #
loop $-1 -1 $-1 $-1 $109 $47 #
plane-surface $-1 -1 $-1 0 0 -0.9524999999999999 0 0 1 1 0 0 forward_v I I I I #
coedge $-1 -1 $-1 $110 $111 $112 $113 forward $48 $-1 #
face $-1 -1 $-1 $114 $115 $27 $-1 $116 reversed single #
loop $-1 -1 $-1 $117 $118 $50 #
cone-surface $-1 -1 $-1 0 0 0.16509999999999891 0 0 -1 7.1374000000000004 8.7405053897718363e-016 0 1 I I 0 1 7.1374000000000004 forward I I I I #
loop $-1 -1 $-1 $-1 $119 $36 #
coedge $-1 -1 $-1 $80 $80 $120 $121 forward $51 $-1 #
face $-1 -1 $-1 $122 $123 $29 $-1 $55 reversed single #
loop $-1 -1 $-1 $-1 $124 $53 #
coedge $-1 -1 $-1 $125 $126 $127 $128 reversed $54 $-1 #
model_id-kcp-attrib $-1 -1 $-1 $-1 $57 1 1021400432 1021400432 55771137 5 #
face $129 -1 $-1 $130 $131 $9 $-1 $132 reversed single #
loop $-1 -1 $-1 $-1 $133 $57 #
cone-surface $-1 -1 $-1 0 0 -1.2128500000000018 0 0 1 -7.1374000000000004 0 0 1 I I 0 1 7.1374000000000004 forward I I I I #
coedge $-1 -1 $-1 $134 $135 $61 $90 forward $58 $-1 #
coedge $-1 -1 $-1 $61 $61 $136 $137 forward $40 $-1 #
edge $138 -1 $-1 $139 3.0970652564335946e-032 $140 3.1415926535897931 $61 $141 forward @7 unknown #
coedge $-1 -1 $-1 $63 $62 $142 $143 reversed $32 $-1 #
coedge $-1 -1 $-1 $144 $145 $62 $93 forward $146 $-1 #
edge $-1 -1 $-1 $147 0 $99 0.074999999999999997 $62 $148 forward @7 unknown #
coedge $-1 -1 $-1 $145 $144 $63 $95 reversed $146 $-1 #
edge $-1 -1 $-1 $149 0 $98 0.074999999999999997 $63 $150 forward @7 unknown #
coedge $-1 -1 $-1 $64 $64 $144 $151 forward $60 $-1 #
attrib_edge_convexity-kcp-attrib $-1 -1 $152 $-1 $65 1 #
vertex $-1 -1 $-1 $95 $153 #
vertex $-1 -1 $-1 $93 $154 #
ellipse-curve $-1 -1 $-1 -8.8123952579621795e-017 0 0.78739999999999999 0 0 1 3.1749999999999998 0 0 1 I I #
loop $-1 -1 $-1 $-1 $155 $66 #
plane-surface $-1 -1 $-1 1.2111523905001709e-016 0 0.78739999999999999 0 0 1 1 0 0 forward_v I I I I #
coedge $-1 -1 $-1 $103 $103 $70 $105 reversed $67 $-1 #
coedge $-1 -1 $-1 $104 $104 $155 $156 reversed $69 $-1 #
edge $-1 -1 $-1 $157 1.2246063538223773e-016 $157 6.2831853071795862 $70 $158 forward @7 unknown #
face $-1 -1 $-1 $159 $160 $25 $-1 $161 reversed single #
loop $-1 -1 $-1 $-1 $162 $72 #
plane-surface $-1 -1 $-1 0 -7.1374000000000004 0 0 1 0 0 0 1 forward_v I I I I #
coedge $-1 -1 $-1 $163 $164 $165 $166 forward $73 $-1 #
coedge $-1 -1 $-1 $167 $75 $168 $169 forward $48 $-1 #
coedge $-1 -1 $-1 $75 $167 $170 $171 forward $48 $-1 #
coedge $-1 -1 $-1 $172 $173 $75 $113 reversed $174 $-1 #
edge $-1 -1 $-1 $175 -7.1374000000000004 $176 7.1374000000000004 $112 $177 forward @7 unknown #
face $-1 -1 $-1 $-1 $178 $27 $-1 $179 forward single #
loop $-1 -1 $-1 $180 $181 $76 #
plane-surface $-1 -1 $-1 -0.3891742311050741 1.1102230246251565e-016 -0.95250000000000101 0 0 1 1 0 0 forward_v I I I I #
loop $-1 -1 $-1 $-1 $182 $50 #
coedge $-1 -1 $-1 $118 $118 $181 $183 forward $77 $-1 #
coedge $-1 -1 $-1 $119 $119 $184 $185 reversed $79 $-1 #
coedge $-1 -1 $-1 $120 $120 $80 $121 reversed $180 $-1 #
edge $-1 -1 $-1 $186 -3.1415926535897931 $186 3.1415926535897931 $80 $187 forward @7 unknown #
face $-1 -1 $-1 $188 $189 $29 $-1 $55 reversed single #
loop $-1 -1 $-1 $-1 $190 $81 #
coedge $-1 -1 $-1 $191 $192 $193 $194 reversed $82 $-1 #
coedge $-1 -1 $-1 $195 $83 $196 $197 reversed $54 $-1 #
coedge $-1 -1 $-1 $83 $195 $198 $199 reversed $54 $-1 #
coedge $-1 -1 $-1 $200 $201 $202 $128 forward $203 $-1 #
edge $-1 -1 $-1 $204 -1.905 $205 0 $127 $206 forward @7 unknown #
model_id-kcp-attrib $-1 -1 $-1 $-1 $85 1 1021400432 1021400432 55771137 6 #
face $207 -1 $-1 $208 $209 $9 $-1 $210 forward single #
loop $-1 -1 $-1 $211 $212 $85 #
plane-surface $-1 -1 $-1 0 0 0 0 0 1 -25.399999999999999 0 0 forward_v I I I I #
coedge $-1 -1 $-1 $213 $214 $215 $216 forward $86 $-1 #
coedge $-1 -1 $-1 $217 $88 $213 $218 forward $58 $-1 #
coedge $-1 -1 $-1 $88 $217 $214 $219 reversed $58 $-1 #
coedge $-1 -1 $-1 $214 $213 $89 $137 reversed $86 $-1 #
edge $220 -1 $-1 $139 3.0970652564335946e-032 $140 3.1415926535897931 $89 $221 forward @7 unknown #
attrib_edge_convexity-kcp-attrib $-1 -1 $222 $-1 $90 1 #
vertex $-1 -1 $-1 $137 $223 #
vertex $-1 -1 $-1 $137 $224 #
ellipse-curve $-1 -1 $-1 0 -3.5249581031848718e-016 0.78739999999999999 0 0 -1 7.1374000000000004 1.2265463492956709e-015 0 1 I I #
coedge $-1 -1 $-1 $225 $225 $91 $143 forward $226 $-1 #
edge $-1 -1 $-1 $149 0 $147 3.1415926535897931 $91 $227 forward @7 unknown #
coedge $-1 -1 $-1 $94 $92 $96 $151 reversed $146 $-1 #
coedge $-1 -1 $-1 $92 $94 $225 $228 forward $146 $-1 #
loop $-1 -1 $-1 $-1 $145 $229 #
vertex $-1 -1 $-1 $143 $230 #
straight-curve $-1 -1 $-1 -3.1749999999999998 -7.7762503467720954e-016 -1.1175999999999999 0 0 25.399999999999999 I I #
vertex $-1 -1 $-1 $95 $231 #
straight-curve $-1 -1 $-1 3.1749999999999998 3.8881251733860477e-016 -1.1175999999999999 0 0 25.399999999999999 I I #
edge $232 -1 $-1 $98 -1.2246063538223773e-016 $99 3.1415926535897931 $96 $233 forward @7 unknown #
convexity-sys-attrib $-1 -1 $-1 $97 $65 #
point $-1 -1 $-1 3.1749999999999998 3.8881251733860477e-016 0.78739999999999999 #
point $-1 -1 $-1 -3.1749999999999998 0 0.78739999999999999 #
coedge $-1 -1 $-1 $155 $155 $104 $156 forward $101 $-1 #
edge $-1 -1 $-1 $234 -3.1415926535897931 $234 3.1415926535897931 $104 $235 forward @7 unknown #
vertex $-1 -1 $-1 $105 $236 #
ellipse-curve $-1 -1 $-1 -8.8123952579621795e-017 0 -1.1175999999999999 0 0 1 3.1749999999999998 0 0 1 I I #
face $-1 -1 $-1 $237 $238 $25 $-1 $239 reversed single #
loop $-1 -1 $-1 $-1 $240 $106 #
plane-surface $-1 -1 $-1 -7.1374000000000004 0 0 1 0 0 0 0 -1 forward_v I I I I #
coedge $-1 -1 $-1 $241 $170 $242 $243 forward $107 $-1 #
coedge $-1 -1 $-1 $244 $109 $241 $245 forward $73 $-1 #
coedge $-1 -1 $-1 $109 $244 $246 $247 forward $73 $-1 #
coedge $-1 -1 $-1 $173 $172 $109 $166 reversed $174 $-1 #
edge $-1 -1 $-1 $248 -7.1374000000000004 $249 7.1374000000000004 $165 $250 forward @7 unknown #
coedge $-1 -1 $-1 $111 $110 $251 $252 forward $48 $-1 #
coedge $-1 -1 $-1 $253 $254 $110 $169 reversed $238 $-1 #
edge $-1 -1 $-1 $176 -7.1374000000000004 $255 7.1374000000000004 $168 $256 forward @7 unknown #
coedge $-1 -1 $-1 $162 $257 $111 $171 reversed $107 $-1 #
edge $-1 -1 $-1 $258 -7.1374000000000004 $175 7.1374000000000004 $170 $259 forward @7 unknown #
coedge $-1 -1 $-1 $165 $112 $257 $260 forward $174 $-1 #
coedge $-1 -1 $-1 $112 $165 $253 $261 reversed $174 $-1 #
loop $-1 -1 $-1 $-1 $172 $237 #
vertex $-1 -1 $-1 $113 $262 #
vertex $-1 -1 $-1 $113 $263 #
straight-curve $-1 -1 $-1 7.1374000000000004 0 0.9524999999999999 0 1 0 I I #
loop $-1 -1 $-1 $264 $265 $114 #
plane-surface $-1 -1 $-1 -0.3891742311050741 1.1102230246251565e-016 0.16509999999999891 0 0 1 1 0 0 forward_v I I I I #
loop $-1 -1 $-1 $-1 $120 $76 #
coedge $-1 -1 $-1 $181 $181 $118 $183 reversed $115 $-1 #
coedge $-1 -1 $-1 $182 $182 $265 $266 reversed $117 $-1 #
edge $-1 -1 $-1 $267 -3.1415926535897931 $267 3.1415926535897931 $118 $268 forward @7 unknown #
coedge $-1 -1 $-1 $184 $184 $119 $185 forward $264 $-1 #
edge $269 -1 $-1 $270 0 $270 6.2831853071795862 $119 $271 forward @7 unknown #
vertex $-1 -1 $-1 $121 $272 #
ellipse-curve $-1 -1 $-1 0 0 -0.95250000000000101 0 0 -1 -4.7624999999999993 0 0 1 I I #
face $-1 -1 $-1 $273 $274 $29 $-1 $275 reversed single #
loop $-1 -1 $-1 $-1 $276 $122 #
coedge $-1 -1 $-1 $277 $278 $279 $280 reversed $123 $-1 #
coedge $-1 -1 $-1 $281 $124 $282 $283 reversed $82 $-1 #
coedge $-1 -1 $-1 $124 $281 $83 $128 forward $82 $-1 #
coedge $-1 -1 $-1 $284 $285 $124 $194 forward $286 $-1 #
edge $-1 -1 $-1 $287 -3.1415926535897931 $205 -1.5707963267948966 $193 $288 forward @7 unknown #
coedge $-1 -1 $-1 $126 $125 $278 $289 forward $54 $-1 #
coedge $-1 -1 $-1 $290 $291 $125 $197 forward $292 $-1 #
edge $-1 -1 $-1 $293 -1.2246063538223773e-016 $204 1.5707963267948966 $196 $294 forward @7 unknown #
coedge $-1 -1 $-1 $295 $296 $126 $199 forward $297 $-1 #
edge $-1 -1 $-1 $205 -1.5707963267948966 $298 1.2246063538223773e-016 $198 $288 forward @7 unknown #
coedge $-1 -1 $-1 $299 $127 $296 $300 reversed $203 $-1 #
coedge $-1 -1 $-1 $127 $299 $290 $301 reversed $203 $-1 #
coedge $-1 -1 $-1 $302 $303 $192 $128 reversed $304 $-1 #
loop $-1 -1 $-1 $-1 $127 $305 #
vertex $-1 -1 $-1 $301 $306 #
vertex $-1 -1 $-1 $307 $308 #
straight-curve $-1 -1 $-1 0 7.1374000000000004 0.9524999999999999 0 0 1 I I #
model_id-kcp-attrib $-1 -1 $-1 $-1 $130 1 1021400432 1021400432 55771137 7 #
face $309 -1 $-1 $310 $311 $9 $-1 $312 forward single #
loop $-1 -1 $-1 $-1 $313 $130 #
cone-surface $-1 -1 $-1 0 0 -1.2128500000000018 0 0 1 -4.7624999999999993 0 0 1 I I 0 1 4.7624999999999993 forward I I I I #
loop $-1 -1 $-1 $-1 $215 $85 #
coedge $-1 -1 $-1 $314 $314 $313 $315 reversed $131 $-1 #
coedge $-1 -1 $-1 $136 $133 $134 $218 reversed $86 $-1 #
coedge $-1 -1 $-1 $133 $136 $135 $219 forward $86 $-1 #
coedge $-1 -1 $-1 $316 $316 $133 $216 reversed $211 $-1 #
edge $317 -1 $-1 $318 1.2246063538223773e-016 $319 3.1415926535897931 $133 $320 forward @7 unknown #
coedge $-1 -1 $-1 $135 $134 $316 $321 reversed $58 $-1 #
edge $-1 -1 $-1 $140 0 $319 0.031 $213 $322 forward @7 unknown #
edge $-1 -1 $-1 $139 0 $318 0.031 $214 $323 forward @7 unknown #
attrib_edge_convexity-kcp-attrib $-1 -1 $324 $-1 $137 1 #
ellipse-curve $-1 -1 $-1 0 -7.0499162063697436e-016 0.78739999999999999 0 0 1 7.1374000000000004 1.5790421596141578e-015 0 1 I I #
convexity-sys-attrib $-1 -1 $-1 $138 $90 #
point $-1 -1 $-1 7.1374000000000004 8.7405053897718363e-016 0.78739999999999999 #
point $-1 -1 $-1 -7.1374000000000004 0 0.78739999999999999 #
coedge $-1 -1 $-1 $142 $142 $145 $228 reversed $226 $-1 #
loop $-1 -1 $-1 $325 $225 $310 #
ellipse-curve $-1 -1 $-1 -8.8123952579621795e-017 -8.8123952579621795e-017 -1.1175999999999999 0 0 1 3.1749999999999998 4.7693646991822654e-016 0 1 I I #
edge $-1 -1 $-1 $149 -9.7818947885301236e-033 $147 3.1415926535897931 $225 $326 forward @7 unknown #
face $327 -1 $-1 $-1 $146 $9 $-1 $328 reversed single #
point $-1 -1 $-1 -3.1749999999999998 0 -1.1175999999999999 #
point $-1 -1 $-1 3.1749999999999998 3.8881251733860477e-016 -1.1175999999999999 #
attrib_edge_convexity-kcp-attrib $-1 -1 $329 $-1 $151 1 #
ellipse-curve $-1 -1 $-1 -8.8123952579621795e-017 0 0.78739999999999999 0 0 -1 3.1749999999999998 0 0 1 I I #
vertex $-1 -1 $-1 $156 $330 #
ellipse-curve $-1 -1 $-1 -8.8123952579621795e-017 0 0.78739999999999999 0 0 1 3.1749999999999998 0 0 1 I I #
point $-1 -1 $-1 3.1749999999999998 3.8881251733860477e-016 -1.1175999999999999 #
face $-1 -1 $-1 $-1 $174 $25 $-1 $331 reversed single #
loop $-1 -1 $-1 $-1 $253 $159 #
plane-surface $-1 -1 $-1 0 7.1374000000000004 0 0 -1 0 0 0 -1 forward_v I I I I #
coedge $-1 -1 $-1 $332 $251 $254 $333 forward $160 $-1 #
coedge $-1 -1 $-1 $257 $162 $163 $245 reversed $107 $-1 #
coedge $-1 -1 $-1 $251 $332 $162 $243 reversed $160 $-1 #
edge $-1 -1 $-1 $258 -0.9524999999999999 $334 0.9524999999999999 $242 $335 forward @7 unknown #
coedge $-1 -1 $-1 $164 $163 $332 $336 forward $73 $-1 #
edge $-1 -1 $-1 $249 -7.1374000000000004 $334 7.1374000000000004 $241 $337 forward @7 unknown #
coedge $-1 -1 $-1 $254 $253 $164 $247 reversed $238 $-1 #
edge $-1 -1 $-1 $338 -7.1374000000000004 $248 7.1374000000000004 $246 $339 forward @7 unknown #
vertex $-1 -1 $-1 $166 $340 #
vertex $-1 -1 $-1 $260 $341 #
straight-curve $-1 -1 $-1 7.1374000000000004 0 -0.9524999999999999 0 -1 0 I I #
coedge $-1 -1 $-1 $240 $242 $167 $252 reversed $160 $-1 #
edge $-1 -1 $-1 $255 -7.1374000000000004 $258 7.1374000000000004 $251 $342 forward @7 unknown #
coedge $-1 -1 $-1 $246 $168 $173 $261 forward $238 $-1 #
coedge $-1 -1 $-1 $168 $246 $240 $333 reversed $238 $-1 #
vertex $-1 -1 $-1 $169 $343 #
straight-curve $-1 -1 $-1 0 7.1374000000000004 0.9524999999999999 -1 0 0 I I #
coedge $-1 -1 $-1 $170 $241 $172 $260 reversed $107 $-1 #
vertex $-1 -1 $-1 $252 $344 #
straight-curve $-1 -1 $-1 0 -7.1374000000000004 0.9524999999999999 1 0 0 I I #
edge $-1 -1 $-1 $175 -0.9524999999999999 $249 0.9524999999999999 $172 $345 forward @7 unknown #
edge $-1 -1 $-1 $176 -0.9524999999999999 $248 0.9524999999999999 $173 $346 forward @7 unknown #
point $-1 -1 $-1 7.1374000000000004 -7.1374000000000004 0.9524999999999999 #
point $-1 -1 $-1 7.1374000000000004 7.1374000000000004 0.9524999999999999 #
loop $-1 -1 $-1 $-1 $184 $114 #
coedge $-1 -1 $-1 $265 $265 $182 $266 forward $178 $-1 #
edge $347 -1 $-1 $348 -3.1415926535897931 $348 3.1415926535897931 $182 $349 forward @7 unknown #
vertex $-1 -1 $-1 $183 $350 #
ellipse-curve $-1 -1 $-1 0 0 -0.95250000000000101 0 0 1 7.1374000000000004 8.7405053897718363e-016 0 1 I I #
convexity-sys-attrib $-1 -1 $-1 $-1 $185 #
vertex $-1 -1 $-1 $185 $351 #
ellipse-curve $-1 -1 $-1 0 0 0.16509999999999891 0 0 -1 -4.7624999999999993 0 0 1 I I #
point $-1 -1 $-1 4.7624999999999984 5.8321877600790693e-016 -0.9524999999999999 #
face $-1 -1 $-1 $352 $304 $29 $-1 $353 reversed single #
loop $-1 -1 $-1 $-1 $354 $188 #
plane-surface $-1 -1 $-1 7.1374000000000004 0 0 -1 0 0 0 0 1 forward_v I I I I #
coedge $-1 -1 $-1 $355 $356 $357 $358 reversed $189 $-1 #
coedge $-1 -1 $-1 $359 $190 $356 $360 forward $123 $-1 #
coedge $-1 -1 $-1 $190 $359 $361 $289 reversed $123 $-1 #
coedge $-1 -1 $-1 $362 $363 $190 $280 forward $364 $-1 #
edge $-1 -1 $-1 $365 -1.5707963267948968 $293 -1.2246063538223773e-016 $279 $294 forward @7 unknown #
coedge $-1 -1 $-1 $192 $191 $366 $367 reversed $82 $-1 #
coedge $-1 -1 $-1 $368 $369 $370 $283 forward $371 $-1 #
edge $-1 -1 $-1 $372 -1.905 $287 0 $282 $373 forward @7 unknown #
coedge $-1 -1 $-1 $285 $193 $303 $307 forward $286 $-1 #
coedge $-1 -1 $-1 $193 $284 $368 $374 forward $286 $-1 #
loop $-1 -1 $-1 $-1 $193 $375 #
vertex $-1 -1 $-1 $376 $377 #
ellipse-curve $-1 -1 $-1 0 0 0.9524999999999999 0 0 -1 7.1374000000000004 8.7405053897718363e-016 0 1 I I #
edge $-1 -1 $-1 $293 -1.905 $298 0 $361 $378 forward @7 unknown #
coedge $-1 -1 $-1 $291 $196 $201 $301 forward $292 $-1 #
coedge $-1 -1 $-1 $196 $290 $379 $380 forward $292 $-1 #
loop $-1 -1 $-1 $-1 $196 $381 #
vertex $-1 -1 $-1 $382 $383 #
ellipse-curve $-1 -1 $-1 0 0 -0.9524999999999999 0 0 1 7.1374000000000004 8.7405053897718363e-016 0 1 I I #
coedge $-1 -1 $-1 $296 $198 $384 $385 forward $297 $-1 #
coedge $-1 -1 $-1 $198 $295 $200 $300 forward $297 $-1 #
loop $-1 -1 $-1 $-1 $198 $386 #
vertex $-1 -1 $-1 $385 $387 #
coedge $-1 -1 $-1 $201 $200 $388 $389 forward $203 $-1 #
edge $-1 -1 $-1 $390 -7.1374000000000004 $205 0 $200 $391 forward @7 unknown #
edge $-1 -1 $-1 $204 0 $392 7.1374000000000004 $201 $393 forward @7 unknown #
coedge $-1 -1 $-1 $394 $202 $395 $396 reversed $304 $-1 #
coedge $-1 -1 $-1 $202 $394 $284 $307 reversed $304 $-1 #
loop $-1 -1 $-1 $-1 $202 $273 #
face $-1 -1 $-1 $397 $203 $29 $-1 $353 reversed single #
point $-1 -1 $-1 0 7.1374000000000004 -0.95250000000000012 #
edge $-1 -1 $-1 $205 0 $398 7.1374000000000004 $303 $391 forward @7 unknown #
point $-1 -1 $-1 0 7.1374000000000004 0.9524999999999999 #
model_id-kcp-attrib $-1 -1 $-1 $-1 $208 1 1021400432 1021400432 55771137 8 #
face $399 -1 $-1 $229 $226 $9 $-1 $400 reversed single #
loop $-1 -1 $-1 $-1 $401 $208 #
cone-surface $-1 -1 $-1 0 0 -1.2128500000000018 0 0 1 -4.7624999999999993 0 0 1 I I 0 1 4.7624999999999993 forward I I I I #
coedge $-1 -1 $-1 $402 $403 $212 $315 forward $209 $-1 #
coedge $-1 -1 $-1 $212 $212 $404 $405 forward $131 $-1 #
edge $406 -1 $-1 $407 0 $408 3.1415926535897931 $212 $409 forward @7 unknown #
coedge $-1 -1 $-1 $215 $215 $217 $321 forward $211 $-1 #
attrib_edge_convexity-kcp-attrib $-1 -1 $410 $-1 $216 1 #
vertex $-1 -1 $-1 $219 $411 #
vertex $-1 -1 $-1 $218 $412 #
ellipse-curve $-1 -1 $-1 0 0 0 0 0 1 7.1374000000000004 0 0 1 I I #
edge $413 -1 $-1 $318 -1.2246063538223773e-016 $319 3.1415926535897931 $316 $414 forward @7 unknown #
straight-curve $-1 -1 $-1 -7.1374000000000004 -1.7481010779543673e-015 0.78739999999999999 0 0 -25.399999999999999 I I #
straight-curve $-1 -1 $-1 7.1374000000000004 8.7405053897718363e-016 0.78739999999999999 0 0 -25.399999999999999 I I #
convexity-sys-attrib $-1 -1 $-1 $220 $137 #
loop $-1 -1 $-1 $-1 $415 $310 #
ellipse-curve $-1 -1 $-1 -1.7624790515924359e-016 5.2874371547773072e-016 -1.1175999999999999 0 0 -1 3.1749999999999998 -1.39931198139126e-016 0 1 I I #
model_id-kcp-attrib $-1 -1 $-1 $-1 $229 1 1021400432 1021400432 55771137 10 #
cone-surface $-1 -1 $-1 0 0 -1.2128500000000018 0 0 1 -3.1749999999999998 0 0 1 I I 0 1 3.1749999999999998 forward I I I I #
convexity-sys-attrib $-1 -1 $-1 $232 $151 #
point $-1 -1 $-1 -3.1749999999999998 0 0.78739999999999999 #
plane-surface $-1 -1 $-1 7.1374000000000004 0 0 -1 0 0 0 0 1 forward_v I I I I #
coedge $-1 -1 $-1 $242 $240 $244 $336 reversed $160 $-1 #
edge $-1 -1 $-1 $255 -0.9524999999999999 $338 0.9524999999999999 $254 $416 forward @7 unknown #
vertex $-1 -1 $-1 $336 $417 #
straight-curve $-1 -1 $-1 -7.1374000000000004 -7.1374000000000004 0 0 0 -1 I I #
edge $-1 -1 $-1 $334 -7.1374000000000004 $338 7.1374000000000004 $332 $418 forward @7 unknown #
straight-curve $-1 -1 $-1 0 -7.1374000000000004 -0.9524999999999999 -1 0 0 I I #
vertex $-1 -1 $-1 $247 $419 #
straight-curve $-1 -1 $-1 0 7.1374000000000004 -0.9524999999999999 1 0 0 I I #
point $-1 -1 $-1 7.1374000000000004 7.1374000000000004 -0.9524999999999999 #
point $-1 -1 $-1 7.1374000000000004 -7.1374000000000004 -0.9524999999999999 #
straight-curve $-1 -1 $-1 -7.1374000000000004 0 0.9524999999999999 0 -1 0 I I #
point $-1 -1 $-1 -7.1374000000000004 7.1374000000000004 0.9524999999999999 #
point $-1 -1 $-1 -7.1374000000000004 -7.1374000000000004 0.9524999999999999 #
straight-curve $-1 -1 $-1 7.1374000000000004 -7.1374000000000004 0 0 0 -1 I I #
straight-curve $-1 -1 $-1 7.1374000000000004 7.1374000000000004 0 0 0 -1 I I #
convexity-sys-attrib $-1 -1 $-1 $-1 $266 #
vertex $-1 -1 $-1 $266 $420 #
ellipse-curve $-1 -1 $-1 0 0 0.16509999999999891 0 0 1 7.1374000000000004 8.7405053897718363e-016 0 1 I I #
point $-1 -1 $-1 -7.1374000000000004 -1.7481010779543673e-015 -0.95250000000000101 #
point $-1 -1 $-1 -4.7624999999999993 0 0.16509999999999997 #
face $-1 -1 $-1 $421 $422 $29 $-1 $423 reversed single #
plane-surface $-1 -1 $-1 0 7.1374000000000004 0 0 -1 0 0 0 -1 forward_v I I I I #
coedge $-1 -1 $-1 $379 $384 $195 $289 reversed $274 $-1 #
coedge $-1 -1 $-1 $424 $276 $191 $283 forward $189 $-1 #
coedge $-1 -1 $-1 $276 $424 $425 $360 reversed $189 $-1 #
coedge $-1 -1 $-1 $426 $427 $276 $358 forward $428 $-1 #
edge $-1 -1 $-1 $372 -3.1415926535897931 $365 -1.5707963267948968 $357 $294 forward @7 unknown #
coedge $-1 -1 $-1 $278 $277 $429 $430 reversed $123 $-1 #
edge $-1 -1 $-1 $365 -1.905 $431 0 $425 $432 forward @7 unknown #
coedge $-1 -1 $-1 $433 $434 $354 $289 forward $435 $-1 #
coedge $-1 -1 $-1 $363 $279 $434 $382 forward $364 $-1 #
coedge $-1 -1 $-1 $279 $362 $436 $437 forward $364 $-1 #
loop $-1 -1 $-1 $-1 $279 $438 #
vertex $-1 -1 $-1 $439 $440 #
coedge $-1 -1 $-1 $441 $395 $281 $367 forward $442 $-1 #
edge $-1 -1 $-1 $204 1.5707963267948966 $372 3.1415926535897931 $366 $294 forward @7 unknown #
coedge $-1 -1 $-1 $443 $282 $285 $374 reversed $371 $-1 #
coedge $-1 -1 $-1 $282 $443 $441 $444 reversed $371 $-1 #
coedge $-1 -1 $-1 $445 $446 $355 $283 reversed $422 $-1 #
loop $-1 -1 $-1 $-1 $282 $447 #
vertex $-1 -1 $-1 $444 $448 #
straight-curve $-1 -1 $-1 -7.1374000000000004 0 0.9524999999999999 0 0 1 I I #
edge $-1 -1 $-1 $398 -7.1374000000000004 $287 0 $368 $449 forward @7 unknown #
face $-1 -1 $-1 $386 $286 $29 $-1 $450 forward single #
edge $-1 -1 $-1 $287 0 $451 7.1374000000000004 $446 $449 forward @7 unknown #
point $-1 -1 $-1 -7.1374000000000004 0 0.9524999999999999 #
straight-curve $-1 -1 $-1 7.1374000000000004 0 0.9524999999999999 0 0 1 I I #
coedge $-1 -1 $-1 $388 $354 $291 $380 reversed $274 $-1 #
edge $-1 -1 $-1 $392 -7.1374000000000004 $293 0 $379 $452 forward @7 unknown #
face $-1 -1 $-1 $453 $292 $29 $-1 $454 reversed single #
edge $-1 -1 $-1 $293 0 $455 7.1374000000000004 $434 $452 forward @7 unknown #
point $-1 -1 $-1 7.1374000000000004 0 -0.95250000000000012 #
coedge $-1 -1 $-1 $354 $388 $295 $385 reversed $274 $-1 #
edge $-1 -1 $-1 $298 0 $390 7.1374000000000004 $384 $456 forward @7 unknown #
face $-1 -1 $-1 $457 $297 $29 $-1 $450 forward single #
point $-1 -1 $-1 7.1374000000000004 0 0.9524999999999999 #
coedge $-1 -1 $-1 $384 $379 $299 $389 reversed $274 $-1 #
edge $-1 -1 $-1 $390 -0.9524999999999999 $392 0.9524999999999999 $388 $458 forward @7 unknown #
vertex $-1 -1 $-1 $385 $459 #
straight-curve $-1 -1 $-1 0 7.1374000000000004 0.9524999999999999 -1 0 0 I I #
vertex $-1 -1 $-1 $380 $460 #
straight-curve $-1 -1 $-1 0 7.1374000000000004 -0.9524999999999999 1 0 0 I I #
coedge $-1 -1 $-1 $303 $302 $443 $461 reversed $304 $-1 #
coedge $-1 -1 $-1 $366 $441 $302 $396 forward $442 $-1 #
edge $-1 -1 $-1 $462 -7.1374000000000004 $204 0 $302 $393 forward @7 unknown #
face $-1 -1 $-1 $-1 $435 $29 $-1 $275 reversed single #
vertex $-1 -1 $-1 $307 $463 #
model_id-kcp-attrib $-1 -1 $-1 $-1 $310 1 1021400432 1021400432 55771137 9 #
plane-surface $-1 -1 $-1 0 0 -1.1175999999999999 0 0 1 -25.399999999999999 0 0 forward_v I I I I #
coedge $-1 -1 $-1 $464 $465 $415 $466 forward $311 $-1 #
coedge $-1 -1 $-1 $467 $313 $464 $468 forward $209 $-1 #
coedge $-1 -1 $-1 $313 $467 $465 $469 reversed $209 $-1 #
coedge $-1 -1 $-1 $465 $464 $314 $405 reversed $311 $-1 #
edge $470 -1 $-1 $407 0 $408 3.1415926535897931 $314 $471 forward @7 unknown #
attrib_edge_convexity-kcp-attrib $-1 -1 $472 $-1 $315 2 #
vertex $-1 -1 $-1 $405 $473 #
vertex $-1 -1 $-1 $405 $474 #
ellipse-curve $-1 -1 $-1 -1.7624790515924359e-016 -1.7624790515924359e-016 0 0 0 -1 4.7624999999999993 7.5946668116715077e-016 0 1 I I #
convexity-sys-attrib $-1 -1 $-1 $317 $216 #
point $-1 -1 $-1 7.1374000000000004 8.7405053897718363e-016 0 #
point $-1 -1 $-1 -7.1374000000000004 0 0 #
attrib_edge_convexity-kcp-attrib $-1 -1 $475 $-1 $321 1 #
ellipse-curve $-1 -1 $-1 0 0 0 0 0 -1 7.1374000000000004 0 0 1 I I #
coedge $-1 -1 $-1 $476 $476 $401 $466 reversed $325 $-1 #
straight-curve $-1 -1 $-1 -7.1374000000000004 7.1374000000000004 0 0 0 -1 I I #
point $-1 -1 $-1 -7.1374000000000004 -7.1374000000000004 -0.9524999999999999 #
straight-curve $-1 -1 $-1 -7.1374000000000004 0 -0.9524999999999999 0 1 0 I I #
point $-1 -1 $-1 -7.1374000000000004 7.1374000000000004 -0.9524999999999999 #
point $-1 -1 $-1 -7.1374000000000004 -1.7481010779543673e-015 0.16509999999999891 #
face $-1 -1 $-1 $375 $477 $29 $-1 $450 forward single #
loop $-1 -1 $-1 $-1 $370 $352 #
plane-surface $-1 -1 $-1 -7.1374000000000004 0 0 1 0 0 0 0 -1 forward_v I I I I #
coedge $-1 -1 $-1 $356 $355 $478 $479 reversed $189 $-1 #
coedge $-1 -1 $-1 $480 $481 $482 $360 forward $483 $-1 #
coedge $-1 -1 $-1 $427 $357 $481 $439 forward $428 $-1 #
coedge $-1 -1 $-1 $357 $426 $445 $484 forward $428 $-1 #
loop $-1 -1 $-1 $-1 $357 $485 #
coedge $-1 -1 $-1 $486 $487 $359 $430 forward $488 $-1 #
edge $-1 -1 $-1 $298 1.2246063538223773e-016 $431 1.5707963267948968 $429 $288 forward @7 unknown #
vertex $-1 -1 $-1 $489 $490 #
straight-curve $-1 -1 $-1 0 -7.1374000000000004 0.9524999999999999 0 0 1 I I #
coedge $-1 -1 $-1 $491 $361 $487 $492 reversed $435 $-1 #
coedge $-1 -1 $-1 $361 $491 $362 $382 reversed $435 $-1 #
loop $-1 -1 $-1 $-1 $361 $397 #
coedge $-1 -1 $-1 $493 $482 $363 $437 reversed $494 $-1 #
edge $-1 -1 $-1 $455 -7.1374000000000004 $365 0 $436 $495 forward @7 unknown #
face $-1 -1 $-1 $381 $364 $29 $-1 $454 reversed single #
edge $-1 -1 $-1 $365 0 $496 7.1374000000000004 $481 $495 forward @7 unknown #
point $-1 -1 $-1 0 -7.1374000000000004 -0.95250000000000012 #
coedge $-1 -1 $-1 $395 $366 $369 $444 forward $442 $-1 #
loop $-1 -1 $-1 $-1 $366 $453 #
coedge $-1 -1 $-1 $369 $368 $394 $461 forward $371 $-1 #
edge $-1 -1 $-1 $372 0 $462 7.1374000000000004 $369 $497 forward @7 unknown #
coedge $-1 -1 $-1 $498 $370 $427 $484 reversed $422 $-1 #
coedge $-1 -1 $-1 $370 $498 $499 $376 reversed $422 $-1 #
face $-1 -1 $-1 $305 $371 $29 $-1 $423 reversed single #
point $-1 -1 $-1 -7.1374000000000004 0 -0.95250000000000012 #
straight-curve $-1 -1 $-1 -7.1374000000000004 0 0.9524999999999999 0 -1 0 I I #
plane-surface $-1 -1 $-1 0 0 0.9524999999999999 0 0 1 1 0 0 forward_v I I I I #
vertex $-1 -1 $-1 $376 $500 #
straight-curve $-1 -1 $-1 7.1374000000000004 0 -0.9524999999999999 0 -1 0 I I #
face $-1 -1 $-1 $501 $442 $29 $-1 $454 reversed single #
plane-surface $-1 -1 $-1 0 0 -0.9524999999999999 0 0 1 1 0 0 forward_v I I I I #
vertex $-1 -1 $-1 $502 $503 #
straight-curve $-1 -1 $-1 7.1374000000000004 0 0.9524999999999999 0 1 0 I I #
face $-1 -1 $-1 $504 $488 $29 $-1 $450 forward single #
straight-curve $-1 -1 $-1 7.1374000000000004 7.1374000000000004 0 0 0 -1 I I #
point $-1 -1 $-1 7.1374000000000004 7.1374000000000004 0.9524999999999999 #
point $-1 -1 $-1 7.1374000000000004 7.1374000000000004 -0.9524999999999999 #
edge $-1 -1 $-1 $398 -0.9524999999999999 $462 0.9524999999999999 $394 $505 forward @7 unknown #
vertex $-1 -1 $-1 $396 $506 #
point $-1 -1 $-1 -7.1374000000000004 7.1374000000000004 0.9524999999999999 #
coedge $-1 -1 $-1 $404 $401 $402 $468 reversed $311 $-1 #
coedge $-1 -1 $-1 $401 $404 $403 $469 forward $311 $-1 #
edge $-1 -1 $-1 $507 1.2246063538223773e-016 $508 3.1415926535897931 $401 $509 forward @7 unknown #
coedge $-1 -1 $-1 $403 $402 $476 $510 reversed $209 $-1 #
edge $-1 -1 $-1 $408 0 $508 0.043999999999999997 $464 $511 forward @7 unknown #
edge $-1 -1 $-1 $407 0 $507 0.043999999999999997 $465 $512 forward @7 unknown #
attrib_edge_convexity-kcp-attrib $-1 -1 $513 $-1 $405 2 #
ellipse-curve $-1 -1 $-1 0 1.7624790515924359e-016 0 0 0 1 4.7624999999999993 4.0697087084866354e-016 0 1 I I #
convexity-sys-attrib $-1 -1 $-1 $406 $315 #
point $-1 -1 $-1 4.7624999999999993 5.8321877600790713e-016 0 #
point $-1 -1 $-1 -4.7624999999999993 0 0 #
convexity-sys-attrib $-1 -1 $-1 $413 $321 #
coedge $-1 -1 $-1 $415 $415 $467 $510 forward $325 $-1 #
loop $-1 -1 $-1 $-1 $478 $421 #
coedge $-1 -1 $-1 $499 $514 $424 $479 forward $477 $-1 #
edge $-1 -1 $-1 $431 1.5707963267948968 $287 3.1415926535897931 $478 $288 forward @7 unknown #
coedge $-1 -1 $-1 $515 $425 $514 $516 reversed $483 $-1 #
coedge $-1 -1 $-1 $425 $515 $426 $439 reversed $483 $-1 #
coedge $-1 -1 $-1 $436 $517 $277 $360 reversed $494 $-1 #
loop $-1 -1 $-1 $-1 $425 $501 #
edge $-1 -1 $-1 $496 -7.1374000000000004 $372 0 $445 $497 forward @7 unknown #
face $-1 -1 $-1 $438 $428 $29 $-1 $454 reversed single #
coedge $-1 -1 $-1 $487 $429 $517 $489 forward $488 $-1 #
coedge $-1 -1 $-1 $429 $486 $433 $492 forward $488 $-1 #
loop $-1 -1 $-1 $-1 $429 $457 #
edge $-1 -1 $-1 $431 0 $518 7.1374000000000004 $517 $519 forward @7 unknown #
point $-1 -1 $-1 0 -7.1374000000000004 0.9524999999999999 #
coedge $-1 -1 $-1 $434 $433 $493 $502 forward $435 $-1 #
edge $-1 -1 $-1 $518 -7.1374000000000004 $298 0 $433 $456 forward @7 unknown #
coedge $-1 -1 $-1 $517 $436 $491 $502 reversed $494 $-1 #
loop $-1 -1 $-1 $-1 $482 $504 #
straight-curve $-1 -1 $-1 0 -7.1374000000000004 -0.9524999999999999 -1 0 0 I I #
vertex $-1 -1 $-1 $484 $520 #
straight-curve $-1 -1 $-1 -7.1374000000000004 0 -0.9524999999999999 0 1 0 I I #
coedge $-1 -1 $-1 $446 $445 $515 $521 reversed $422 $-1 #
coedge $-1 -1 $-1 $514 $478 $446 $376 forward $477 $-1 #
point $-1 -1 $-1 -7.1374000000000004 -7.1374000000000004 0.9524999999999999 #
face $-1 -1 $-1 $447 $483 $29 $-1 $522 reversed single #
edge $-1 -1 $-1 $518 -0.9524999999999999 $455 0.9524999999999999 $491 $523 forward @7 unknown #
point $-1 -1 $-1 7.1374000000000004 -7.1374000000000004 -0.9524999999999999 #
face $-1 -1 $-1 $485 $494 $29 $-1 $522 reversed single #
straight-curve $-1 -1 $-1 -7.1374000000000004 7.1374000000000004 0 0 0 -1 I I #
point $-1 -1 $-1 -7.1374000000000004 7.1374000000000004 -0.9524999999999999 #
vertex $-1 -1 $-1 $469 $524 #
vertex $-1 -1 $-1 $468 $525 #
ellipse-curve $-1 -1 $-1 0 0 -1.1175999999999999 0 0 1 4.7624999999999993 0 0 1 I I #
edge $-1 -1 $-1 $507 -1.2246063538223773e-016 $508 3.1415926535897931 $476 $526 forward @7 unknown #
straight-curve $-1 -1 $-1 -4.7624999999999993 -1.1664375520158143e-015 0 0 0 -25.399999999999999 I I #
straight-curve $-1 -1 $-1 4.7624999999999993 5.8321877600790713e-016 0 0 0 -25.399999999999999 I I #
convexity-sys-attrib $-1 -1 $-1 $470 $405 #
coedge $-1 -1 $-1 $478 $499 $480 $516 forward $477 $-1 #
coedge $-1 -1 $-1 $481 $480 $498 $521 forward $483 $-1 #
edge $-1 -1 $-1 $451 -7.1374000000000004 $431 0 $480 $519 forward @7 unknown #
coedge $-1 -1 $-1 $482 $493 $486 $489 reversed $494 $-1 #
vertex $-1 -1 $-1 $492 $527 #
straight-curve $-1 -1 $-1 0 -7.1374000000000004 0.9524999999999999 1 0 0 I I #
point $-1 -1 $-1 -7.1374000000000004 -7.1374000000000004 -0.9524999999999999 #
edge $-1 -1 $-1 $451 -0.9524999999999999 $496 0.9524999999999999 $498 $528 forward @7 unknown #
plane-surface $-1 -1 $-1 0 -7.1374000000000004 0 0 1 0 0 0 1 forward_v I I I I #
straight-curve $-1 -1 $-1 7.1374000000000004 -7.1374000000000004 0 0 0 -1 I I #
point $-1 -1 $-1 4.7624999999999993 5.8321877600790713e-016 -1.1175999999999999 #
point $-1 -1 $-1 -4.7624999999999993 0 -1.1175999999999999 #
ellipse-curve $-1 -1 $-1 0 0 -1.1175999999999999 0 0 -1 4.7624999999999993 0 0 1 I I #
point $-1 -1 $-1 7.1374000000000004 -7.1374000000000004 0.9524999999999999 #
straight-curve $-1 -1 $-1 -7.1374000000000004 -7.1374000000000004 0 0 0 -1 I I #
End-of-ACIS-data 