600 0 1 0           
110 GICL ACIS Healer - Source: /gicl/data5/repository/NIST/Manfred_Osti/spectrometer/spacer_87/spacer_87.sat - 6 0 18 ACIS 6.0.3 Solaris 24 Sun Apr 14 00:37:14 2002 
1 9.999999999999999547e-07 1.000000000000000036e-10 
body $-1 $1 $-1 $-1 #
lump $-1 $-1 $2 $0 #
shell $-1 $-1 $-1 $3 $-1 $1 #
face $-1 $4 $5 $2 $-1 $6 forward single #
face $-1 $7 $8 $2 $-1 $9 reversed single #
loop $-1 $10 $11 $3 #
plane-surface $-1 0 0 0.03099999999999999978 0 0 1 1 0 0 forward_v I I I I #
face $-1 $12 $13 $2 $-1 $14 reversed single #
loop $-1 $15 $16 $4 #
plane-surface $-1 0 0 0 0 0 1 1 0 0 forward_v I I I I #
loop $-1 $-1 $17 $3 #
coedge $-1 $11 $11 $18 $19 forward $5 $-1 #
face $-1 $20 $21 $2 $-1 $22 reversed single #
loop $-1 $23 $24 $7 #
plane-surface $-1 0 0 -0.04399999999999999745 0 0 1 1 0 0 forward_v I I I I #
loop $-1 $-1 $25 $4 #
coedge $-1 $16 $16 $26 $27 forward $8 $-1 #
coedge $-1 $17 $17 $28 $29 forward $10 $-1 #
coedge $-1 $18 $18 $11 $19 reversed $30 $-1 #
edge $-1 $31 0 $31 6.283185307179586232 $18 $32 forward 7 unknown #
face $-1 $33 $34 $2 $-1 $35 forward single #
loop $-1 $36 $28 $12 #
cone-surface $-1 0 0 -0.04775000000000000078 0 0 1 -0.125 0 0 1 I I 0 1 0.125 forward I I I I #
loop $-1 $-1 $37 $7 #
coedge $-1 $24 $24 $38 $39 forward $13 $-1 #
coedge $-1 $25 $25 $40 $41 forward $15 $-1 #
coedge $-1 $26 $26 $16 $27 reversed $42 $-1 #
edge $-1 $43 0 $43 6.283185307179586232 $26 $44 forward 7 unknown #
coedge $-1 $28 $28 $17 $29 reversed $21 $-1 #
edge $-1 $45 -3.141592653589793116 $45 3.141592653589793116 $17 $46 forward 7 unknown #
loop $-1 $-1 $18 $20 #
vertex $-1 $19 $47 #
ellipse-curve $-1 0 0 0.03099999999999999978 0 0 1 0.2810000000000000275 0 0 1 I I #
face $-1 $-1 $48 $2 $-1 $49 forward single #
loop $-1 $30 $40 $20 #
cone-surface $-1 0 0 -0.04775000000000000078 0 0 1 -0.2810000000000000275 0 0 1 I I 0 1 0.2810000000000000275 forward I I I I #
loop $-1 $-1 $38 $12 #
coedge $-1 $37 $37 $50 $51 forward $23 $-1 #
coedge $-1 $38 $38 $24 $39 reversed $36 $-1 #
edge $-1 $52 -3.141592653589793116 $52 3.141592653589793116 $38 $53 forward 7 unknown #
coedge $-1 $40 $40 $25 $41 reversed $34 $-1 #
edge $-1 $54 -3.141592653589793116 $54 3.141592653589793116 $25 $55 forward 7 unknown #
loop $-1 $-1 $26 $33 #
vertex $-1 $27 $56 #
ellipse-curve $-1 0 0 0 0 0 1 0.1875 0 0 1 I I #
vertex $-1 $29 $57 #
ellipse-curve $-1 0 0 0.03099999999999999978 0 0 -1 0.125 0 0 1 I I #
point $-1 0.2810000000000000275 0 0.03099999999999999978 #
loop $-1 $42 $50 $33 #
cone-surface $-1 0 0 -0.04775000000000000078 0 0 1 -0.1875 0 0 1 I I 0 1 0.1875 forward I I I I #
coedge $-1 $50 $50 $37 $51 reversed $48 $-1 #
edge $-1 $58 -3.141592653589793116 $58 3.141592653589793116 $37 $59 forward 7 unknown #
vertex $-1 $39 $60 #
ellipse-curve $-1 0 0 -0.04399999999999999745 0 0 1 0.125 0 0 1 I I #
vertex $-1 $41 $61 #
ellipse-curve $-1 0 0 0 0 0 -1 0.2810000000000000275 0 0 1 I I #
point $-1 0.1875 0 0 #
point $-1 -0.125 0 0.03099999999999999978 #
vertex $-1 $51 $62 #
ellipse-curve $-1 0 0 -0.04399999999999999745 0 0 -1 0.1875 0 0 1 I I #
point $-1 -0.125 0 -0.04399999999999999745 #
point $-1 -0.2810000000000000275 0 0 #
point $-1 -0.1875 0 -0.04399999999999999745 #
End-of-ACIS-data 