600 0 1 0           
99 GICL Pro/E ACIS Translator - Source: f:/data5/repository/PTC/V18/pliers_18/ptc0_handtop.prt.2 - 6 0 13 ACIS 6.0.3 NT 24 Thu Apr 04 13:31:16 2002 
1 9.9999999999999995e-007 1e-010 
body $-1 $1 $-1 $-1 #
lump $-1 $-1 $2 $0 #
shell $-1 $-1 $-1 $3 $-1 $1 #
face $-1 $4 $5 $2 $-1 $6 reversed single #
face $-1 $7 $8 $2 $-1 $9 reversed single #
loop $-1 $10 $11 $3 #
plane-surface $-1 0 0 -1.2 0 0 1 1 0 0 forward_v I I I I #
face $-1 $12 $13 $2 $-1 $14 reversed single #
loop $-1 $-1 $15 $4 #
cone-surface $-1 0 0 -1.2 0 0 1 2 0 0 1 I I 0 1 2 forward I I I I #
loop $-1 $16 $17 $3 #
coedge $-1 $18 $18 $19 $20 reversed $5 $-1 #
face $-1 $21 $22 $2 $-1 $23 forward single #
loop $-1 $-1 $24 $7 #
cone-surface $-1 0 0 -1.2 0 0 1 2 0 0 1 I I 0 1 2 forward I I I I #
coedge $-1 $25 $19 $26 $27 forward $8 $-1 #
loop $-1 $-1 $28 $3 #
coedge $-1 $29 $29 $30 $31 reversed $10 $-1 #
coedge $-1 $11 $11 $32 $33 reversed $5 $-1 #
coedge $-1 $15 $34 $11 $20 forward $8 $-1 #
edge $-1 $35 0 $36 3.1415926535897931 $11 $37 forward 7 unknown #
face $-1 $38 $39 $2 $-1 $40 reversed single #
loop $-1 $41 $42 $12 #
plane-surface $-1 0 0 1.2 0 0 1 1 0 0 forward_v I I I I #
coedge $-1 $43 $32 $34 $44 forward $13 $-1 #
coedge $-1 $34 $15 $42 $45 reversed $8 $-1 #
coedge $-1 $32 $43 $15 $27 reversed $13 $-1 #
edge $-1 $36 0 $46 2.3999999999999999 $26 $47 forward 7 unknown #
coedge $-1 $48 $49 $50 $51 reversed $16 $-1 #
coedge $-1 $17 $17 $52 $53 reversed $10 $-1 #
coedge $-1 $54 $55 $17 $31 forward $39 $-1 #
edge $-1 $56 0 $57 3.1415926535897931 $17 $58 forward 7 unknown #
coedge $-1 $24 $26 $18 $33 forward $13 $-1 #
edge $-1 $36 0 $35 3.1415926535897931 $18 $59 forward 7 unknown #
coedge $-1 $19 $25 $24 $44 reversed $8 $-1 #
vertex $-1 $33 $60 #
vertex $-1 $33 $61 #
ellipse-curve $-1 0 0 -1.2 0 0 -1 -2 0 0 1 I I #
face $-1 $62 $63 $2 $-1 $64 reversed single #
loop $-1 $-1 $54 $21 #
cone-surface $-1 -80 6 -1.2 0 0 1 2 0 0 1 I I 0 1 2 forward I I I I #
loop $-1 $65 $66 $12 #
coedge $-1 $67 $67 $25 $45 forward $22 $-1 #
coedge $-1 $26 $24 $67 $68 reversed $13 $-1 #
edge $-1 $35 0 $69 2.3999999999999999 $24 $70 forward 7 unknown #
edge $-1 $69 0 $46 3.1415926535897931 $42 $71 forward 7 unknown #
vertex $-1 $68 $72 #
straight-curve $-1 2 0 -1.2 0 -2.0410105897039621e-016 1 I I #
coedge $-1 $73 $28 $74 $75 reversed $16 $-1 #
coedge $-1 $28 $76 $77 $78 reversed $16 $-1 #
coedge $-1 $79 $80 $28 $51 forward $81 $-1 #
edge $-1 $82 0 $83 150 $28 $84 forward 7 unknown #
coedge $-1 $85 $86 $29 $53 forward $63 $-1 #
edge $-1 $57 0 $56 3.1415926535897931 $29 $87 forward 7 unknown #
coedge $-1 $88 $30 $86 $89 forward $39 $-1 #
coedge $-1 $30 $88 $85 $90 reversed $39 $-1 #
vertex $-1 $53 $91 #
vertex $-1 $53 $92 #
ellipse-curve $-1 -80 6 -1.2 0 0 -1 -2 0 0 1 I I #
ellipse-curve $-1 0 0 -1.2 0 0 -1 2 0 0 1 I I #
point $-1 -2 0 -1.2 #
point $-1 2 0 -1.2 #
face $-1 $93 $94 $2 $-1 $95 forward single #
loop $-1 $-1 $85 $38 #
cone-surface $-1 -80 6 -1.2 0 0 1 2 0 0 1 I I 0 1 2 forward I I I I #
loop $-1 $-1 $96 $12 #
coedge $-1 $97 $97 $88 $98 forward $41 $-1 #
coedge $-1 $42 $42 $43 $68 forward $22 $-1 #
edge $-1 $46 0 $69 3.1415926535897931 $67 $99 forward 7 unknown #
vertex $-1 $68 $100 #
straight-curve $-1 -2 2.4492127076447545e-016 -1.2 0 0 1 I I #
ellipse-curve $-1 0 0 1.2 0 0 -1 -2 0 0 1 I I #
point $-1 2 0 1.2 #
coedge $-1 $76 $48 $101 $102 reversed $16 $-1 #
coedge $-1 $103 $104 $48 $75 forward $105 $-1 #
edge $-1 $106 0 $82 32.563169378916427 $48 $107 forward 7 unknown #
coedge $-1 $49 $73 $108 $109 reversed $16 $-1 #
coedge $-1 $110 $111 $49 $78 forward $112 $-1 #
edge $-1 $83 0 $113 18.399999999999999 $49 $114 forward 7 unknown #
coedge $-1 $115 $50 $111 $116 forward $81 $-1 #
coedge $-1 $50 $115 $103 $117 reversed $81 $-1 #
loop $-1 $-1 $79 $118 #
vertex $-1 $75 $119 #
vertex $-1 $78 $120 #
straight-curve $-1 34 16.399999999999999 -1.2 -1 0 0 I I #
coedge $-1 $121 $52 $55 $90 forward $63 $-1 #
coedge $-1 $52 $121 $54 $89 reversed $63 $-1 #
ellipse-curve $-1 -80 6 -1.2 0 0 -1 2 0 0 1 I I #
coedge $-1 $55 $54 $66 $98 reversed $39 $-1 #
edge $-1 $57 0 $122 2.3999999999999999 $86 $123 forward 7 unknown #
edge $-1 $56 0 $124 2.3999999999999999 $85 $125 forward 7 unknown #
point $-1 -82 6 -1.2 #
point $-1 -78 6 -1.2 #
face $-1 $126 $127 $2 $-1 $128 forward single #
loop $-1 $-1 $129 $62 #
plane-surface $-1 -116 -2 -1.2 0 -1 0 1 0 0 forward_v I I I I #
coedge $-1 $130 $131 $132 $133 forward $65 $-1 #
coedge $-1 $66 $66 $121 $134 forward $41 $-1 #
edge $-1 $124 0 $122 3.1415926535897931 $66 $135 forward 7 unknown #
ellipse-curve $-1 0 0 1.2 0 0 -1 2 0 0 1 I I #
point $-1 -2 0 1.2 #
coedge $-1 $136 $137 $73 $102 forward $127 $-1 #
edge $-1 $138 0 $106 82.734515167492233 $73 $139 forward 7 unknown #
coedge $-1 $140 $74 $80 $117 forward $105 $-1 #
coedge $-1 $74 $140 $136 $141 reversed $105 $-1 #
loop $-1 $-1 $103 $126 #
vertex $-1 $102 $142 #
straight-curve $-1 20 -13 -1.2 0.42993358039234769 0.90286051882393026 0 I I #
coedge $-1 $129 $143 $76 $109 forward $94 $-1 #
edge $-1 $113 0 $138 54 $76 $144 forward 7 unknown #
coedge $-1 $145 $77 $143 $146 forward $112 $-1 #
coedge $-1 $77 $145 $79 $116 reversed $112 $-1 #
loop $-1 $-1 $110 $147 #
vertex $-1 $78 $148 #
straight-curve $-1 -116 16.399999999999999 -1.2 0 -1 0 I I #
coedge $-1 $80 $79 $149 $150 reversed $81 $-1 #
edge $-1 $83 0 $151 2.3999999999999999 $111 $152 forward 7 unknown #
edge $-1 $82 0 $153 2.3999999999999999 $103 $154 forward 7 unknown #
face $-1 $147 $81 $2 $-1 $155 forward single #
point $-1 34 16.399999999999999 -1.2 #
point $-1 -116 16.399999999999999 -1.2 #
coedge $-1 $86 $85 $97 $134 reversed $63 $-1 #
vertex $-1 $134 $156 #
straight-curve $-1 -78 6 -1.2 0 -3.7007434154171886e-016 1 I I #
vertex $-1 $134 $157 #
straight-curve $-1 -82 6 -1.2 0 0 1 I I #
face $-1 $118 $105 $2 $-1 $158 forward single #
loop $-1 $-1 $136 $93 #
plane-surface $-1 -62 -2 -1.2 -0.13295539325674427 -0.99112202245936631 0 0.9911220224593662 -0.13295539325674424 0 forward_v I I I I #
coedge $-1 $132 $108 $137 $159 forward $94 $-1 #
coedge $-1 $160 $96 $161 $162 forward $65 $-1 #
coedge $-1 $96 $149 $145 $163 forward $65 $-1 #
coedge $-1 $143 $129 $96 $133 reversed $94 $-1 #
edge $-1 $164 0 $165 53.999999999999993 $96 $166 forward 7 unknown #
edge $-1 $122 0 $124 3.1415926535897931 $97 $167 forward 7 unknown #
ellipse-curve $-1 -80 6 1.2 0 0 -1 -2 0 0 1 I I #
coedge $-1 $161 $101 $104 $141 forward $127 $-1 #
coedge $-1 $101 $161 $129 $159 reversed $127 $-1 #
vertex $-1 $109 $168 #
straight-curve $-1 -62 -2 -1.2 0.9911220224593662 -0.13295539325674424 0 I I #
coedge $-1 $104 $103 $160 $169 reversed $105 $-1 #
edge $-1 $106 0 $170 2.3999999999999999 $136 $171 forward 7 unknown #
point $-1 20 -13 -1.2 #
coedge $-1 $108 $132 $110 $146 reversed $94 $-1 #
straight-curve $-1 -116 -2 -1.2 1 0 0 I I #
coedge $-1 $111 $110 $131 $163 reversed $112 $-1 #
edge $-1 $113 0 $164 2.3999999999999999 $110 $172 forward 7 unknown #
face $-1 $-1 $112 $2 $-1 $173 forward single #
point $-1 -116 -2 -1.2 #
coedge $-1 $131 $160 $115 $150 forward $65 $-1 #
edge $-1 $153 0 $151 150 $149 $174 forward 7 unknown #
vertex $-1 $163 $175 #
straight-curve $-1 -116 16.399999999999999 -1.2 0 0 1 I I #
vertex $-1 $150 $176 #
straight-curve $-1 34 16.400000000000006 -1.2 0 0 1 I I #
plane-surface $-1 34 16.399999999999999 -1.2 0 1 0 -1 0 0 forward_v I I I I #
point $-1 -78 6 1.2 #
point $-1 -82 6 1.2 #
plane-surface $-1 20 -13 -1.2 0.90286051882393037 -0.4299335803923478 0 0.42993358039234775 0.90286051882393026 0 forward_v I I I I #
edge $-1 $138 0 $165 2.3999999999999999 $129 $177 forward 7 unknown #
coedge $-1 $149 $130 $140 $169 forward $65 $-1 #
coedge $-1 $137 $136 $130 $162 reversed $127 $-1 #
edge $-1 $165 -7.1604336441770015e-015 $170 82.734515167492233 $130 $178 forward 7 unknown #
edge $-1 $151 0 $164 18.399999999999999 $131 $179 forward 7 unknown #
vertex $-1 $163 $180 #
vertex $-1 $162 $181 #
straight-curve $-1 -116 -2 1.2 1 0 0 I I #
ellipse-curve $-1 -80 6 1.2 0 0 -1 2 0 0 1 I I #
point $-1 -62 -2 -1.2 #
edge $-1 $170 -1.6038024576373475e-015 $153 32.563169378916427 $160 $182 forward 7 unknown #
vertex $-1 $169 $183 #
straight-curve $-1 20.000000000000014 -13.000000000000002 -1.2 0 0 1 I I #
straight-curve $-1 -116 -2 -1.2 0 0 1 I I #
plane-surface $-1 -116 16.399999999999999 -1.2 -1 0 0 0 -1 0 forward_v I I I I #
straight-curve $-1 34 16.399999999999999 1.2 -1 0 0 I I #
point $-1 -116 16.399999999999999 1.2 #
point $-1 34 16.399999999999999 1.2 #
straight-curve $-1 -62.000000000000007 -2 -1.2 0 0 1 I I #
straight-curve $-1 -62 -2 1.2 0.9911220224593662 -0.13295539325674424 0 I I #
straight-curve $-1 -116 16.399999999999999 1.2 0 -1 0 I I #
point $-1 -116 -2 1.2 #
point $-1 -62.000000000000007 -1.9999999999999991 1.2 #
straight-curve $-1 20 -13 1.2 0.42993358039234769 0.90286051882393026 0 I I #
point $-1 20 -13.000000000000002 1.2 #
End-of-ACIS-data 