600 0 1 0           
98 GICL Pro/E ACIS Translator - Source: f:/data5/repository/PTC/V18/pliers_18/ptc2_jawbot.prt.2 - 6 0 13 ACIS 6.0.3 NT 24 Thu Apr 04 13:31:17 2002 
1 9.9999999999999995e-007 1e-010 
body $-1 $1 $-1 $-1 #
lump $-1 $-1 $2 $0 #
shell $-1 $-1 $-1 $3 $-1 $1 #
face $-1 $4 $5 $2 $-1 $6 reversed single #
face $-1 $7 $8 $2 $-1 $9 reversed single #
loop $-1 $10 $11 $3 #
plane-surface $-1 0 0 -1.2 0 0 1 1 0 0 forward_v I I I I #
face $-1 $12 $13 $2 $-1 $14 reversed single #
loop $-1 $-1 $15 $4 #
cone-surface $-1 0 -29 -1.2 0 0 1 1.7999999999999998 0 0 1 I I 0 1 1.7999999999999998 forward I I I I #
loop $-1 $16 $17 $3 #
coedge $-1 $18 $18 $19 $20 reversed $5 $-1 #
face $-1 $21 $22 $2 $-1 $23 forward single #
loop $-1 $-1 $24 $7 #
cone-surface $-1 0 -29 -1.2 0 0 1 1.7999999999999998 0 0 1 I I 0 1 1.7999999999999998 forward I I I I #
coedge $-1 $25 $19 $26 $27 forward $8 $-1 #
loop $-1 $-1 $28 $3 #
coedge $-1 $29 $29 $30 $31 reversed $10 $-1 #
coedge $-1 $11 $11 $32 $33 reversed $5 $-1 #
coedge $-1 $15 $34 $11 $20 forward $8 $-1 #
edge $-1 $35 0 $36 3.1415926535897931 $11 $37 forward 7 unknown #
face $-1 $38 $39 $2 $-1 $40 reversed single #
loop $-1 $41 $42 $12 #
plane-surface $-1 0 0 1.2 0 0 1 1 0 0 forward_v I I I I #
coedge $-1 $43 $32 $34 $44 forward $13 $-1 #
coedge $-1 $34 $15 $42 $45 reversed $8 $-1 #
coedge $-1 $32 $43 $15 $27 reversed $13 $-1 #
edge $-1 $36 0 $46 2.3999999999999999 $26 $47 forward 7 unknown #
coedge $-1 $48 $49 $50 $51 reversed $16 $-1 #
coedge $-1 $17 $17 $52 $53 reversed $10 $-1 #
coedge $-1 $54 $55 $17 $31 forward $39 $-1 #
edge $-1 $56 0 $57 3.1415926535897931 $17 $58 forward 7 unknown #
coedge $-1 $24 $26 $18 $33 forward $13 $-1 #
edge $-1 $36 0 $35 3.1415926535897931 $18 $59 forward 7 unknown #
coedge $-1 $19 $25 $24 $44 reversed $8 $-1 #
vertex $-1 $33 $60 #
vertex $-1 $33 $61 #
ellipse-curve $-1 0 -29 -1.2 0 0 -1 -1.7999999999999998 0 0 1 I I #
face $-1 $62 $63 $2 $-1 $64 reversed single #
loop $-1 $-1 $54 $21 #
cone-surface $-1 0 0 -1.2 0 0 1 1.7999999999999998 0 0 1 I I 0 1 1.7999999999999998 forward I I I I #
loop $-1 $65 $66 $12 #
coedge $-1 $67 $67 $25 $45 forward $22 $-1 #
coedge $-1 $26 $24 $67 $68 reversed $13 $-1 #
edge $-1 $35 0 $69 2.3999999999999999 $24 $70 forward 7 unknown #
edge $-1 $69 0 $46 3.1415926535897931 $42 $71 forward 7 unknown #
vertex $-1 $68 $72 #
straight-curve $-1 1.7999999999999998 -29 -1.2 0 0 1 I I #
coedge $-1 $73 $28 $74 $75 reversed $16 $-1 #
coedge $-1 $28 $76 $77 $78 reversed $16 $-1 #
coedge $-1 $79 $80 $28 $51 forward $81 $-1 #
edge $-1 $82 0 $83 16.061133210331079 $28 $84 forward 7 unknown #
coedge $-1 $85 $86 $29 $53 forward $63 $-1 #
edge $-1 $57 0 $56 3.1415926535897931 $29 $87 forward 7 unknown #
coedge $-1 $88 $30 $86 $89 forward $39 $-1 #
coedge $-1 $30 $88 $85 $90 reversed $39 $-1 #
vertex $-1 $53 $91 #
vertex $-1 $53 $92 #
ellipse-curve $-1 0 0 -1.2 0 0 -1 -1.7999999999999998 0 0 1 I I #
ellipse-curve $-1 0 -29 -1.2 0 0 -1 1.7999999999999998 0 0 1 I I #
point $-1 -1.7999999999999998 -29 -1.2 #
point $-1 1.7999999999999998 -29 -1.2 #
face $-1 $93 $94 $2 $-1 $95 forward single #
loop $-1 $-1 $85 $38 #
cone-surface $-1 0 0 -1.2 0 0 1 1.7999999999999998 0 0 1 I I 0 1 1.7999999999999998 forward I I I I #
loop $-1 $-1 $96 $12 #
coedge $-1 $97 $97 $88 $98 forward $41 $-1 #
coedge $-1 $42 $42 $43 $68 forward $22 $-1 #
edge $-1 $46 0 $69 3.1415926535897891 $67 $99 forward 7 unknown #
vertex $-1 $68 $100 #
straight-curve $-1 -1.7999999999999998 -29 -1.2 0 0 1 I I #
ellipse-curve $-1 0 -29 1.2 0 0 -1 -1.7999999999999998 0 0 1 I I #
point $-1 1.7999999999999998 -29 1.2 #
coedge $-1 $101 $48 $102 $103 reversed $16 $-1 #
coedge $-1 $104 $105 $48 $75 forward $106 $-1 #
edge $-1 $107 0 $82 28.131121556027587 $48 $108 forward 7 unknown #
coedge $-1 $49 $101 $109 $110 reversed $16 $-1 #
coedge $-1 $111 $112 $49 $78 forward $113 $-1 #
edge $-1 $83 0 $114 2.6259127656293275 $49 $115 forward 7 unknown #
coedge $-1 $116 $50 $112 $117 forward $81 $-1 #
coedge $-1 $50 $116 $104 $118 reversed $81 $-1 #
loop $-1 $-1 $79 $119 #
vertex $-1 $75 $120 #
vertex $-1 $78 $121 #
straight-curve $-1 11.399999999999999 -12 -1.2 -0.49312643669796441 0.86995765266452407 0 I I #
coedge $-1 $122 $52 $55 $90 forward $63 $-1 #
coedge $-1 $52 $122 $54 $89 reversed $63 $-1 #
ellipse-curve $-1 0 0 -1.2 0 0 -1 1.7999999999999998 0 0 1 I I #
coedge $-1 $55 $54 $66 $98 reversed $39 $-1 #
edge $-1 $57 0 $123 2.3999999999999999 $86 $124 forward 7 unknown #
edge $-1 $56 0 $125 2.3999999999999999 $85 $126 forward 7 unknown #
point $-1 -1.7999999999999998 0 -1.2 #
point $-1 1.7999999999999998 0 -1.2 #
face $-1 $127 $128 $2 $-1 $129 forward single #
loop $-1 $-1 $130 $62 #
plane-surface $-1 -4 0 -1.2 -1 0 0 0 -1 0 forward_v I I I I #
coedge $-1 $131 $132 $133 $134 forward $65 $-1 #
coedge $-1 $66 $66 $122 $135 forward $41 $-1 #
edge $-1 $125 0 $123 3.1415926535897931 $66 $136 forward 7 unknown #
ellipse-curve $-1 0 -28.999999999999996 1.2 0 0 -1 1.7999999999999998 -3.5527136788005009e-015 0 1 I I #
point $-1 -1.7999999999999998 -29 1.2 #
coedge $-1 $76 $73 $137 $138 reversed $16 $-1 #
coedge $-1 $139 $140 $73 $103 forward $141 $-1 #
edge $-1 $142 0 $107 2.6206828727415772 $73 $143 forward 7 unknown #
coedge $-1 $144 $74 $80 $118 forward $106 $-1 #
coedge $-1 $74 $144 $139 $145 reversed $106 $-1 #
loop $-1 $-1 $104 $146 #
vertex $-1 $103 $147 #
straight-curve $-1 35.799999999999997 -26 -1.2 -0.86736676855928163 0.49766945737007967 0 I I #
coedge $-1 $130 $148 $76 $110 forward $94 $-1 #
edge $-1 $114 0 $149 32.349047013101561 $76 $150 forward 7 unknown #
coedge $-1 $151 $77 $148 $152 forward $113 $-1 #
coedge $-1 $77 $151 $79 $117 reversed $113 $-1 #
loop $-1 $-1 $111 $153 #
vertex $-1 $78 $154 #
ellipse-curve $-1 0 0 -1.2 0 0 1 3.4798306106580985 1.9725057467918536 0 1 I I #
coedge $-1 $80 $79 $155 $156 reversed $81 $-1 #
edge $-1 $83 0 $157 2.3999999999999999 $112 $158 forward 7 unknown #
edge $-1 $82 0 $159 2.3999999999999999 $104 $160 forward 7 unknown #
face $-1 $153 $81 $2 $-1 $161 forward single #
point $-1 11.399999999999999 -12 -1.2 #
point $-1 3.4798306106580985 1.9725057467918536 -1.2 #
coedge $-1 $86 $85 $97 $135 reversed $63 $-1 #
vertex $-1 $135 $162 #
straight-curve $-1 1.7999999999999998 0 -1.2 0 -1.8369095307335659e-016 1 I I #
vertex $-1 $135 $163 #
straight-curve $-1 -1.7999999999999998 2.204291436880279e-016 -1.2 0 0 1 I I #
face $-1 $146 $141 $2 $-1 $164 forward single #
loop $-1 $-1 $165 $93 #
plane-surface $-1 -4 -32.349047013101561 -1.2 0 -1 0 1 0 0 forward_v I I I I #
coedge $-1 $133 $109 $166 $167 forward $94 $-1 #
coedge $-1 $168 $96 $169 $170 forward $65 $-1 #
coedge $-1 $96 $155 $151 $171 forward $65 $-1 #
coedge $-1 $148 $130 $96 $134 reversed $94 $-1 #
edge $-1 $172 0 $173 32.349047013101561 $96 $174 forward 7 unknown #
edge $-1 $123 0 $125 3.1415926535897931 $97 $175 forward 7 unknown #
ellipse-curve $-1 0 0 1.2 0 0 -1 -1.7999999999999998 0 0 1 I I #
coedge $-1 $165 $166 $101 $138 forward $128 $-1 #
edge $-1 $149 0 $142 38.107923844941723 $101 $176 forward 7 unknown #
coedge $-1 $177 $102 $105 $145 forward $141 $-1 #
coedge $-1 $102 $177 $165 $178 reversed $141 $-1 #
loop $-1 $-1 $139 $127 #
vertex $-1 $138 $179 #
ellipse-curve $-1 34.107923844941723 -28.949047013101563 -1.2 0 0 1 0 -3.3999999999999986 0 1 I I #
coedge $-1 $105 $104 $180 $181 reversed $106 $-1 #
edge $-1 $107 2.1036290805893649e-029 $182 2.3999999999999999 $139 $183 forward 7 unknown #
face $-1 $119 $106 $2 $-1 $184 forward single #
point $-1 35.799999999999997 -26 -1.2 #
coedge $-1 $109 $133 $111 $152 reversed $94 $-1 #
vertex $-1 $110 $185 #
straight-curve $-1 -4 0 -1.2 0 -1 0 I I #
coedge $-1 $112 $111 $132 $171 reversed $113 $-1 #
edge $-1 $114 9.9977381454809163e-032 $172 2.3999999999999999 $111 $186 forward 7 unknown #
face $-1 $-1 $113 $2 $-1 $187 forward single #
point $-1 -4 0 -1.2 #
coedge $-1 $132 $180 $116 $156 forward $65 $-1 #
edge $-1 $159 0 $157 16.061133210331079 $155 $188 forward 7 unknown #
vertex $-1 $171 $189 #
straight-curve $-1 3.4798306106580963 1.9725057467918568 -1.2 0 0 1 I I #
vertex $-1 $156 $190 #
straight-curve $-1 11.399999999999999 -12 -1.2 0 0 1 I I #
plane-surface $-1 11.399999999999999 -12 -1.2 0.86995765266452407 0.49312643669796441 0 -0.49312643669796441 0.86995765266452407 0 forward_v I I I I #
point $-1 1.7999999999999998 0 1.2 #
point $-1 -1.7999999999999998 0 1.2 #
cone-surface $-1 34.107923844941723 -28.949047013101563 -1.2 0 0 1 3.3999999999999999 0 0 1 I I 0 1 3.3999999999999999 forward I I I I #
coedge $-1 $169 $137 $140 $178 forward $128 $-1 #
coedge $-1 $137 $169 $130 $167 reversed $128 $-1 #
edge $-1 $149 0 $173 2.3999999999999999 $130 $191 forward 7 unknown #
coedge $-1 $180 $131 $177 $192 forward $65 $-1 #
coedge $-1 $166 $165 $131 $170 reversed $128 $-1 #
edge $-1 $173 0 $193 38.107923844941723 $131 $194 forward 7 unknown #
edge $-1 $157 0 $172 2.6259127656293275 $132 $195 forward 7 unknown #
vertex $-1 $171 $196 #
vertex $-1 $170 $197 #
straight-curve $-1 -4 0 1.2 0 -1 0 I I #
ellipse-curve $-1 0 0 1.2 0 0 -1 1.7999999999999998 0 0 1 I I #
straight-curve $-1 -4 -32.349047013101561 -1.2 1 0 0 I I #
coedge $-1 $140 $139 $168 $192 reversed $141 $-1 #
edge $-1 $142 0 $193 2.3999999999999999 $165 $198 forward 7 unknown #
point $-1 34.107923844941723 -32.349047013101561 -1.2 #
coedge $-1 $155 $168 $144 $181 forward $65 $-1 #
edge $-1 $182 0 $159 28.131121556027587 $180 $199 forward 7 unknown #
vertex $-1 $181 $200 #
straight-curve $-1 35.799999999999997 -26.000000000000007 -1.2 0 2.9605947323337509e-015 1 I I #
plane-surface $-1 35.799999999999997 -26 -1.2 0.49766945737007967 0.86736676855928163 0 -0.86736676855928163 0.49766945737007967 0 forward_v I I I I #
point $-1 -4 -32.349047013101561 -1.2 #
straight-curve $-1 -4 4.898425415289509e-016 -1.2 0 -2.0410105897039621e-016 1 I I #
cone-surface $-1 0 0 -1.2 0 0 1 4 0 0 1 I I 0 1 4 forward I I I I #
straight-curve $-1 11.399999999999999 -12 1.2 -0.49312643669796441 0.86995765266452407 0 I I #
point $-1 3.4798306106580985 1.9725057467918536 1.2 #
point $-1 11.399999999999999 -12 1.2 #
straight-curve $-1 -4 -32.349047013101561 -1.2 0 0 1 I I #
edge $-1 $193 0 $182 2.6206828727415767 $168 $201 forward 7 unknown #
vertex $-1 $192 $202 #
straight-curve $-1 -4 -32.349047013101561 1.2 1 0 0 I I #
ellipse-curve $-1 2.2204460492503131e-016 -2.2204460492503131e-016 1.2 0 0 1 3.4798306106580981 1.9725057467918539 0 1 I I #
point $-1 -4 0 1.2 #
point $-1 -4 -32.349047013101561 1.2 #
straight-curve $-1 34.107923844941723 -32.349047013101561 -1.2 0 0 1 I I #
straight-curve $-1 35.799999999999997 -26 1.2 -0.86736676855928163 0.49766945737007967 0 I I #
point $-1 35.799999999999997 -26 1.2 #
ellipse-curve $-1 34.107923844941723 -28.949047013101559 1.2 0 0 1 0 -3.4000000000000021 0 1 I I #
point $-1 34.107923844941723 -32.349047013101561 1.2 #
End-of-ACIS-data 