600 0 1 0           
99 GICL Pro/E ACIS Translator - Source: f:/data5/repository/PTC/V18/pliers_18/ptc3_handbot.prt.2 - 6 0 13 ACIS 6.0.3 NT 24 Thu Apr 04 13:31:18 2002 
1 9.9999999999999995e-007 1e-010 
body $-1 $1 $-1 $-1 #
lump $-1 $-1 $2 $0 #
shell $-1 $-1 $-1 $3 $-1 $1 #
face $-1 $4 $5 $2 $-1 $6 reversed single #
face $-1 $7 $8 $2 $-1 $9 reversed single #
loop $-1 $10 $11 $3 #
plane-surface $-1 0 0 -1.2 0 0 1 1 0 0 forward_v I I I I #
face $-1 $12 $13 $2 $-1 $14 reversed single #
loop $-1 $-1 $15 $4 #
cone-surface $-1 0 0 -1.2 0 0 1 2 0 0 1 I I 0 1 2 forward I I I I #
loop $-1 $16 $17 $3 #
coedge $-1 $18 $18 $19 $20 reversed $5 $-1 #
face $-1 $21 $22 $2 $-1 $23 forward single #
loop $-1 $-1 $24 $7 #
cone-surface $-1 0 0 -1.2 0 0 1 2 0 0 1 I I 0 1 2 forward I I I I #
coedge $-1 $25 $19 $26 $27 forward $8 $-1 #
loop $-1 $-1 $28 $3 #
coedge $-1 $29 $29 $30 $31 reversed $10 $-1 #
coedge $-1 $11 $11 $32 $33 reversed $5 $-1 #
coedge $-1 $15 $34 $11 $20 forward $8 $-1 #
edge $-1 $35 0 $36 3.1415926535897931 $11 $37 forward 7 unknown #
face $-1 $38 $39 $2 $-1 $40 reversed single #
loop $-1 $41 $42 $12 #
plane-surface $-1 0 0 1.2 0 0 1 1 0 0 forward_v I I I I #
coedge $-1 $43 $32 $34 $44 forward $13 $-1 #
coedge $-1 $34 $15 $42 $45 reversed $8 $-1 #
coedge $-1 $32 $43 $15 $27 reversed $13 $-1 #
edge $-1 $36 0 $46 2.3999999999999999 $26 $47 forward 7 unknown #
coedge $-1 $48 $49 $50 $51 reversed $16 $-1 #
coedge $-1 $17 $17 $52 $53 reversed $10 $-1 #
coedge $-1 $54 $55 $17 $31 forward $39 $-1 #
edge $-1 $56 0 $57 3.1415926535897931 $17 $58 forward 7 unknown #
coedge $-1 $24 $26 $18 $33 forward $13 $-1 #
edge $-1 $36 0 $35 3.1415926535897931 $18 $59 forward 7 unknown #
coedge $-1 $19 $25 $24 $44 reversed $8 $-1 #
vertex $-1 $33 $60 #
vertex $-1 $33 $61 #
ellipse-curve $-1 0 0 -1.2 0 0 -1 -2 0 0 1 I I #
face $-1 $62 $63 $2 $-1 $64 reversed single #
loop $-1 $-1 $54 $21 #
cone-surface $-1 -23 11.6 -1.2 0 0 1 2 0 0 1 I I 0 1 2 forward I I I I #
loop $-1 $65 $66 $12 #
coedge $-1 $67 $67 $25 $45 forward $22 $-1 #
coedge $-1 $26 $24 $67 $68 reversed $13 $-1 #
edge $-1 $35 0 $69 2.3999999999999999 $24 $70 forward 7 unknown #
edge $-1 $69 0 $46 3.1415926535897931 $42 $71 forward 7 unknown #
vertex $-1 $68 $72 #
straight-curve $-1 2 0 -1.2 0 -2.0410105897039621e-016 1 I I #
coedge $-1 $73 $28 $74 $75 reversed $16 $-1 #
coedge $-1 $28 $76 $77 $78 reversed $16 $-1 #
coedge $-1 $79 $80 $28 $51 forward $81 $-1 #
edge $-1 $82 1.0619233184761513e-016 $83 44.655158219706145 $28 $84 forward 7 unknown #
coedge $-1 $85 $86 $29 $53 forward $63 $-1 #
edge $-1 $57 0 $56 3.1415926535897931 $29 $87 forward 7 unknown #
coedge $-1 $88 $30 $86 $89 forward $39 $-1 #
coedge $-1 $30 $88 $85 $90 reversed $39 $-1 #
vertex $-1 $53 $91 #
vertex $-1 $53 $92 #
ellipse-curve $-1 -23 11.6 -1.2 0 0 -1 -2 0 0 1 I I #
ellipse-curve $-1 0 0 -1.2 0 0 -1 2 0 0 1 I I #
point $-1 -2 0 -1.2 #
point $-1 2 0 -1.2 #
face $-1 $93 $94 $2 $-1 $95 forward single #
loop $-1 $-1 $85 $38 #
cone-surface $-1 -23 11.6 -1.2 0 0 1 2 0 0 1 I I 0 1 2 forward I I I I #
loop $-1 $-1 $96 $12 #
coedge $-1 $97 $97 $88 $98 forward $41 $-1 #
coedge $-1 $42 $42 $43 $68 forward $22 $-1 #
edge $-1 $46 0 $69 3.1415926535897931 $67 $99 forward 7 unknown #
vertex $-1 $68 $100 #
straight-curve $-1 -2 2.4492127076447545e-016 -1.2 0 0 1 I I #
ellipse-curve $-1 0 0 1.2 0 0 -1 -2 0 0 1 I I #
point $-1 2 0 1.2 #
coedge $-1 $101 $48 $102 $103 reversed $16 $-1 #
coedge $-1 $104 $105 $48 $75 forward $106 $-1 #
edge $-1 $107 0 $82 2.9545686268339595 $48 $108 forward 7 unknown #
coedge $-1 $49 $109 $110 $111 reversed $16 $-1 #
coedge $-1 $112 $113 $49 $78 forward $114 $-1 #
edge $-1 $83 0 $115 42.366848994793095 $49 $116 forward 7 unknown #
coedge $-1 $117 $50 $113 $118 forward $81 $-1 #
coedge $-1 $50 $117 $104 $119 reversed $81 $-1 #
loop $-1 $-1 $79 $120 #
vertex $-1 $75 $121 #
vertex $-1 $78 $122 #
straight-curve $-1 2.3924944135514949 5.5023604463107363 -1.2 -0.91706007438512382 0.39874906892524647 0 I I #
coedge $-1 $123 $52 $55 $90 forward $63 $-1 #
coedge $-1 $52 $123 $54 $89 reversed $63 $-1 #
ellipse-curve $-1 -23 11.6 -1.2 0 0 -1 2 0 0 1 I I #
coedge $-1 $55 $54 $66 $98 reversed $39 $-1 #
edge $-1 $57 0 $124 2.3999999999999999 $86 $125 forward 7 unknown #
edge $-1 $56 0 $126 2.3999999999999999 $85 $127 forward 7 unknown #
point $-1 -25 11.6 -1.2 #
point $-1 -21 11.6 -1.2 #
face $-1 $128 $129 $2 $-1 $130 forward single #
loop $-1 $-1 $131 $62 #
plane-surface $-1 -80 14.5 -1.2 0 1 0 -1 0 0 forward_v I I I I #
coedge $-1 $132 $133 $134 $135 forward $65 $-1 #
coedge $-1 $66 $66 $123 $136 forward $41 $-1 #
edge $-1 $126 0 $124 3.1415926535897931 $66 $137 forward 7 unknown #
ellipse-curve $-1 0 0 1.2 0 0 -1 2 0 0 1 I I #
point $-1 -2 0 1.2 #
coedge $-1 $109 $73 $138 $139 reversed $16 $-1 #
coedge $-1 $140 $141 $73 $103 forward $142 $-1 #
edge $-1 $143 0 $107 80.672176120394823 $73 $144 forward 7 unknown #
coedge $-1 $145 $74 $80 $119 forward $106 $-1 #
coedge $-1 $74 $145 $140 $146 reversed $106 $-1 #
loop $-1 $-1 $104 $147 #
vertex $-1 $103 $148 #
ellipse-curve $-1 0 0 -1.2 0 0 1 -1.3276889793197419 -5.8512598621316494 0 1 I I #
coedge $-1 $76 $101 $149 $150 reversed $16 $-1 #
coedge $-1 $131 $151 $76 $111 forward $94 $-1 #
edge $-1 $115 0 $152 36 $76 $153 forward 7 unknown #
coedge $-1 $154 $77 $151 $155 forward $114 $-1 #
coedge $-1 $77 $154 $79 $118 reversed $114 $-1 #
loop $-1 $-1 $112 $156 #
vertex $-1 $78 $157 #
straight-curve $-1 -38.558968305091696 23.308563209128124 -1.2 -0.97814760073380569 -0.20791169081775948 0 I I #
coedge $-1 $80 $79 $158 $159 reversed $81 $-1 #
edge $-1 $83 0 $160 2.3999999999999999 $113 $161 forward 7 unknown #
edge $-1 $82 -2.4651903288156619e-030 $162 2.3999999999999999 $104 $163 forward 7 unknown #
face $-1 $156 $81 $2 $-1 $164 forward single #
point $-1 2.3924944135514941 5.5023604463107345 -1.2 #
point $-1 -38.558968305091696 23.308563209128124 -1.2 #
coedge $-1 $86 $85 $97 $136 reversed $63 $-1 #
vertex $-1 $136 $165 #
straight-curve $-1 -21 11.6 -1.2 0 0 1 I I #
vertex $-1 $136 $166 #
straight-curve $-1 -25 11.6 -1.2 0 0 1 I I #
face $-1 $167 $168 $2 $-1 $169 forward single #
loop $-1 $-1 $170 $93 #
plane-surface $-1 -116 14.5 -1.2 -1 0 0 0 -1 0 forward_v I I I I #
coedge $-1 $134 $110 $171 $172 forward $94 $-1 #
coedge $-1 $173 $96 $174 $175 forward $65 $-1 #
coedge $-1 $96 $158 $154 $176 forward $65 $-1 #
coedge $-1 $151 $131 $96 $135 reversed $94 $-1 #
edge $-1 $177 0 $178 36 $96 $179 forward 7 unknown #
edge $-1 $124 0 $126 3.1415926535897931 $97 $180 forward 7 unknown #
ellipse-curve $-1 -23 11.6 1.2 0 0 -1 -2 0 0 1 I I #
coedge $-1 $181 $182 $101 $139 forward $168 $-1 #
edge $-1 $183 0 $143 36 $101 $184 forward 7 unknown #
coedge $-1 $185 $102 $105 $146 forward $142 $-1 #
coedge $-1 $102 $185 $181 $186 reversed $142 $-1 #
loop $-1 $-1 $140 $167 #
vertex $-1 $139 $187 #
straight-curve $-1 -80 12 -1.2 0.97520997702194168 -0.22128149655329124 0 I I #
coedge $-1 $105 $104 $188 $189 reversed $106 $-1 #
edge $-1 $107 0 $190 2.3999999999999999 $140 $191 forward 7 unknown #
face $-1 $120 $106 $2 $-1 $192 forward single #
point $-1 -1.3276889793197419 -5.8512598621316494 -1.2 #
coedge $-1 $170 $171 $109 $150 forward $129 $-1 #
edge $-1 $152 0 $183 2.5 $109 $193 forward 7 unknown #
coedge $-1 $110 $134 $112 $155 reversed $94 $-1 #
vertex $-1 $111 $194 #
straight-curve $-1 -80 14.5 -1.2 -1 0 0 I I #
coedge $-1 $113 $112 $133 $176 reversed $114 $-1 #
edge $-1 $115 0 $177 2.3999999999999999 $112 $195 forward 7 unknown #
face $-1 $-1 $114 $2 $-1 $196 forward single #
point $-1 -80 14.5 -1.2 #
coedge $-1 $133 $188 $117 $159 forward $65 $-1 #
edge $-1 $162 2.0699471665259661e-014 $160 44.655158219706145 $158 $197 forward 7 unknown #
vertex $-1 $176 $198 #
straight-curve $-1 -38.558968305091696 23.308563209128128 -1.2 0 0 1 I I #
vertex $-1 $159 $199 #
straight-curve $-1 2.3924944135514767 5.5023604463107452 -1.2 -3.7007434154171886e-016 -3.7007434154171886e-016 1 I I #
plane-surface $-1 2.3924944135514785 5.5023604463107434 -1.2 0.39874906892524647 0.91706007438512394 0 -0.91706007438512394 0.39874906892524647 0 forward_v I I I I #
point $-1 -21 11.6 1.2 #
point $-1 -25 11.6 1.2 #
face $-1 $147 $142 $2 $-1 $200 forward single #
loop $-1 $-1 $181 $128 #
plane-surface $-1 -116 12 -1.2 0 -1 0 1 0 0 forward_v I I I I #
coedge $-1 $174 $149 $182 $201 forward $129 $-1 #
coedge $-1 $149 $174 $131 $172 reversed $129 $-1 #
edge $-1 $152 0 $178 2.3999999999999999 $131 $202 forward 7 unknown #
coedge $-1 $203 $132 $204 $205 forward $65 $-1 #
coedge $-1 $171 $170 $132 $175 reversed $129 $-1 #
edge $-1 $178 0 $206 2.5 $132 $207 forward 7 unknown #
edge $-1 $160 0 $177 42.366848994793095 $133 $208 forward 7 unknown #
vertex $-1 $176 $209 #
vertex $-1 $175 $210 #
straight-curve $-1 -80 14.5 1.2 -1 0 0 I I #
ellipse-curve $-1 -23 11.6 1.2 0 0 -1 2 0 0 1 I I #
coedge $-1 $204 $138 $141 $186 forward $168 $-1 #
coedge $-1 $138 $204 $170 $201 reversed $168 $-1 #
vertex $-1 $150 $211 #
straight-curve $-1 -116 12 -1.2 1 0 0 I I #
coedge $-1 $141 $140 $203 $212 reversed $142 $-1 #
edge $-1 $143 0 $213 2.3999999999999999 $181 $214 forward 7 unknown #
point $-1 -80 12 -1.2 #
coedge $-1 $158 $203 $145 $189 forward $65 $-1 #
edge $-1 $190 0 $162 2.9545686268339635 $188 $215 forward 7 unknown #
vertex $-1 $189 $216 #
straight-curve $-1 -1.3276889793197597 -5.851259862131645 -1.2 0 0 1 I I #
cone-surface $-1 0 0 -1.2 0 0 1 6 0 0 1 I I 0 1 6 forward I I I I #
straight-curve $-1 -116 14.5 -1.2 0 -1 0 I I #
point $-1 -116 14.5 -1.2 #
straight-curve $-1 -80 14.5 -1.2 0 0 1 I I #
plane-surface $-1 -38.558968305091696 23.308563209128124 -1.2 -0.20791169081775948 0.97814760073380569 0 -0.97814760073380569 -0.20791169081775948 0 forward_v I I I I #
straight-curve $-1 2.3924944135514949 5.5023604463107363 1.2 -0.91706007438512382 0.39874906892524647 0 I I #
point $-1 -38.558968305091696 23.308563209128124 1.2 #
point $-1 2.3924944135514759 5.5023604463107443 1.2 #
plane-surface $-1 -80 12 -1.2 -0.22128149655329121 -0.97520997702194157 0 0.97520997702194157 -0.22128149655329121 0 forward_v I I I I #
edge $-1 $183 0 $206 2.3999999999999999 $170 $217 forward 7 unknown #
straight-curve $-1 -116 14.5 -1.2 0 0 1 I I #
coedge $-1 $188 $173 $185 $212 forward $65 $-1 #
coedge $-1 $182 $181 $173 $205 reversed $168 $-1 #
edge $-1 $206 0 $213 36 $173 $218 forward 7 unknown #
vertex $-1 $205 $219 #
straight-curve $-1 -116 14.5 1.2 0 -1 0 I I #
straight-curve $-1 -38.558968305091696 23.308563209128124 1.2 -0.97814760073380569 -0.20791169081775948 0 I I #
point $-1 -80 14.5 1.2 #
point $-1 -116 14.5 1.2 #
point $-1 -116 12 -1.2 #
edge $-1 $213 0 $190 80.672176120394823 $203 $220 forward 7 unknown #
vertex $-1 $212 $221 #
straight-curve $-1 -80 12 -1.2 0 0 1 I I #
ellipse-curve $-1 1.5543122344752192e-015 -8.8817841970012523e-016 1.2 0 0 1 -1.3276889793197435 -5.8512598621316485 0 1 I I #
point $-1 -1.3276889793197419 -5.8512598621316494 1.2 #
straight-curve $-1 -116 12 -1.2 0 0 1 I I #
straight-curve $-1 -116 12 1.2 1 0 0 I I #
point $-1 -116 12 1.2 #
straight-curve $-1 -80 12 1.2 0.97520997702194168 -0.22128149655329124 0 I I #
point $-1 -80 12 1.2 #
End-of-ACIS-data 