600 0 1 0           
96 GICL Pro/E ACIS Translator - Source: f:/data5/repository/PTC/V18/pliers_18/ptc4_link.prt.2 - 6 0 13 ACIS 6.0.3 NT 24 Thu Apr 04 13:31:18 2002 
1 9.9999999999999995e-007 1e-010 
body $-1 $1 $-1 $-1 #
lump $-1 $-1 $2 $0 #
shell $-1 $-1 $-1 $3 $-1 $1 #
face $-1 $4 $5 $2 $-1 $6 reversed single #
face $-1 $7 $8 $2 $-1 $9 reversed single #
loop $-1 $10 $11 $3 #
plane-surface $-1 0 0 -1.2 0 0 1 1 0 0 forward_v I I I I #
face $-1 $12 $13 $2 $-1 $14 reversed single #
loop $-1 $-1 $15 $4 #
cone-surface $-1 64 0 -1.2 0 0 1 2 0 0 1 I I 0 1 2 forward I I I I #
loop $-1 $16 $17 $3 #
coedge $-1 $18 $18 $19 $20 reversed $5 $-1 #
face $-1 $21 $22 $2 $-1 $23 forward single #
loop $-1 $-1 $24 $7 #
cone-surface $-1 64 0 -1.2 0 0 1 2 0 0 1 I I 0 1 2 forward I I I I #
coedge $-1 $25 $19 $26 $27 forward $8 $-1 #
loop $-1 $-1 $28 $3 #
coedge $-1 $29 $29 $30 $31 reversed $10 $-1 #
coedge $-1 $11 $11 $32 $33 reversed $5 $-1 #
coedge $-1 $15 $34 $11 $20 forward $8 $-1 #
edge $-1 $35 0 $36 3.1415926535897931 $11 $37 forward 7 unknown #
face $-1 $38 $39 $2 $-1 $40 reversed single #
loop $-1 $41 $42 $12 #
plane-surface $-1 0 0 1.2 0 0 1 1 0 0 forward_v I I I I #
coedge $-1 $43 $32 $34 $44 forward $13 $-1 #
coedge $-1 $34 $15 $42 $45 reversed $8 $-1 #
coedge $-1 $32 $43 $15 $27 reversed $13 $-1 #
edge $-1 $36 0 $46 2.3999999999999999 $26 $47 forward 7 unknown #
coedge $-1 $48 $49 $50 $51 reversed $16 $-1 #
coedge $-1 $17 $17 $52 $53 reversed $10 $-1 #
coedge $-1 $54 $55 $17 $31 forward $39 $-1 #
edge $-1 $56 0 $57 3.1415926535897931 $17 $58 forward 7 unknown #
coedge $-1 $24 $26 $18 $33 forward $13 $-1 #
edge $-1 $36 0 $35 3.1415926535897931 $18 $59 forward 7 unknown #
coedge $-1 $19 $25 $24 $44 reversed $8 $-1 #
vertex $-1 $33 $60 #
vertex $-1 $33 $61 #
ellipse-curve $-1 64 0 -1.2 0 0 -1 -2 0 0 1 I I #
face $-1 $62 $63 $2 $-1 $64 reversed single #
loop $-1 $-1 $54 $21 #
cone-surface $-1 0 0 -1.2 0 0 1 2 0 0 1 I I 0 1 2 forward I I I I #
loop $-1 $65 $66 $12 #
coedge $-1 $67 $67 $25 $45 forward $22 $-1 #
coedge $-1 $26 $24 $67 $68 reversed $13 $-1 #
edge $-1 $35 0 $69 2.3999999999999999 $24 $70 forward 7 unknown #
edge $-1 $69 0 $46 3.1415926535897913 $42 $71 forward 7 unknown #
vertex $-1 $68 $72 #
straight-curve $-1 66 0 -1.2 0 -2.0410105897039621e-016 1 I I #
coedge $-1 $73 $28 $74 $75 reversed $16 $-1 #
coedge $-1 $28 $73 $76 $77 reversed $16 $-1 #
coedge $-1 $78 $79 $28 $51 forward $80 $-1 #
edge $-1 $81 0 $82 64 $28 $83 forward 7 unknown #
coedge $-1 $84 $85 $29 $53 forward $63 $-1 #
edge $-1 $57 0 $56 3.1415926535897931 $29 $86 forward 7 unknown #
coedge $-1 $87 $30 $85 $88 forward $39 $-1 #
coedge $-1 $30 $87 $84 $89 reversed $39 $-1 #
vertex $-1 $53 $90 #
vertex $-1 $53 $91 #
ellipse-curve $-1 0 0 -1.2 0 0 -1 -2 0 0 1 I I #
ellipse-curve $-1 64 0 -1.2 0 0 -1 2 0 0 1 I I #
point $-1 62 0 -1.2 #
point $-1 66 0 -1.2 #
face $-1 $92 $93 $2 $-1 $94 forward single #
loop $-1 $-1 $84 $38 #
cone-surface $-1 0 0 -1.2 0 0 1 2 0 0 1 I I 0 1 2 forward I I I I #
loop $-1 $-1 $95 $12 #
coedge $-1 $96 $96 $87 $97 forward $41 $-1 #
coedge $-1 $42 $42 $43 $68 forward $22 $-1 #
edge $-1 $46 0 $69 3.141592653589794 $67 $98 forward 7 unknown #
vertex $-1 $68 $99 #
straight-curve $-1 62 2.4492127076447545e-016 -1.2 0 0 1 I I #
ellipse-curve $-1 64 -2.0539125955565396e-015 1.2 0 0 -1 -2 2.0539125955565396e-015 0 1 I I #
point $-1 66 0 1.2 #
coedge $-1 $49 $48 $100 $101 reversed $16 $-1 #
coedge $-1 $102 $103 $48 $75 forward $104 $-1 #
edge $-1 $105 0 $81 3.1415926535897931 $48 $106 forward 7 unknown #
coedge $-1 $107 $108 $49 $77 forward $109 $-1 #
edge $-1 $82 0 $110 3.1415926535897931 $49 $111 forward 7 unknown #
coedge $-1 $112 $50 $108 $113 forward $80 $-1 #
coedge $-1 $50 $112 $102 $114 reversed $80 $-1 #
loop $-1 $-1 $78 $115 #
vertex $-1 $75 $116 #
vertex $-1 $77 $117 #
straight-curve $-1 64 6 -1.2 -1 0 0 I I #
coedge $-1 $118 $52 $55 $89 forward $63 $-1 #
coedge $-1 $52 $118 $54 $88 reversed $63 $-1 #
ellipse-curve $-1 0 0 -1.2 0 0 -1 2 0 0 1 I I #
coedge $-1 $55 $54 $66 $97 reversed $39 $-1 #
edge $-1 $57 0 $119 2.3999999999999999 $85 $120 forward 7 unknown #
edge $-1 $56 0 $121 2.3999999999999999 $84 $122 forward 7 unknown #
point $-1 -2 0 -1.2 #
point $-1 2 0 -1.2 #
face $-1 $115 $104 $2 $-1 $123 forward single #
loop $-1 $-1 $124 $62 #
plane-surface $-1 0 -6 -1.2 0 -1 0 1 0 0 forward_v I I I I #
coedge $-1 $125 $126 $127 $128 forward $65 $-1 #
coedge $-1 $66 $66 $118 $129 forward $41 $-1 #
edge $-1 $121 0 $119 3.1415926535897931 $66 $130 forward 7 unknown #
ellipse-curve $-1 64 -1.2212453270876722e-015 1.2 0 0 -1 2 1.2212453270876722e-015 0 1 I I #
point $-1 62 0 1.2 #
coedge $-1 $124 $131 $73 $101 forward $93 $-1 #
edge $-1 $110 0 $105 64 $73 $132 forward 7 unknown #
coedge $-1 $133 $74 $79 $114 forward $104 $-1 #
coedge $-1 $74 $133 $124 $134 reversed $104 $-1 #
loop $-1 $-1 $102 $92 #
vertex $-1 $101 $135 #
ellipse-curve $-1 64 0 -1.2 0 0 1 0 -6 0 1 I I #
coedge $-1 $136 $76 $131 $137 forward $109 $-1 #
coedge $-1 $76 $136 $78 $113 reversed $109 $-1 #
loop $-1 $-1 $107 $138 #
vertex $-1 $77 $139 #
ellipse-curve $-1 0 0 -1.2 0 0 1 0 6 0 1 I I #
coedge $-1 $79 $78 $140 $141 reversed $80 $-1 #
edge $-1 $82 0 $142 2.3999999999999999 $108 $143 forward 7 unknown #
edge $-1 $81 0 $144 2.3999999999999999 $102 $145 forward 7 unknown #
face $-1 $138 $80 $2 $-1 $146 forward single #
point $-1 64 6 -1.2 #
point $-1 0 6 -1.2 #
coedge $-1 $85 $84 $96 $129 reversed $63 $-1 #
vertex $-1 $129 $147 #
straight-curve $-1 2 0 -1.2 0 -2.0410105897039621e-016 1 I I #
vertex $-1 $129 $148 #
straight-curve $-1 -2 2.4492127076447545e-016 -1.2 0 0 1 I I #
cone-surface $-1 64 0 -1.2 0 0 1 6 0 0 1 I I 0 1 6 forward I I I I #
coedge $-1 $127 $100 $103 $134 forward $93 $-1 #
coedge $-1 $140 $95 $133 $149 forward $65 $-1 #
coedge $-1 $95 $140 $136 $150 forward $65 $-1 #
coedge $-1 $131 $124 $95 $128 reversed $93 $-1 #
edge $-1 $151 0 $152 64 $95 $153 forward 7 unknown #
edge $-1 $119 0 $121 3.1415926535897931 $96 $154 forward 7 unknown #
ellipse-curve $-1 0 -2.7755575615628914e-016 1.2 0 0 -1 -2 2.7755575615628914e-016 0 1 I I #
coedge $-1 $100 $127 $107 $137 reversed $93 $-1 #
straight-curve $-1 0 -6 -1.2 1 0 0 I I #
coedge $-1 $103 $102 $125 $149 reversed $104 $-1 #
edge $-1 $105 0 $152 2.3999999999999999 $124 $155 forward 7 unknown #
point $-1 64 -6 -1.2 #
coedge $-1 $108 $107 $126 $150 reversed $109 $-1 #
edge $-1 $110 5.0613549361497139e-031 $151 2.3999999999999999 $107 $156 forward 7 unknown #
face $-1 $-1 $109 $2 $-1 $157 forward single #
point $-1 0 -6 -1.2 #
coedge $-1 $126 $125 $112 $141 forward $65 $-1 #
edge $-1 $144 0 $142 64 $140 $158 forward 7 unknown #
vertex $-1 $150 $159 #
straight-curve $-1 0 6 -1.2 0 0 1 I I #
vertex $-1 $141 $160 #
straight-curve $-1 64 6 -1.2 0 0 1 I I #
plane-surface $-1 64 6 -1.2 0 1 0 -1 0 0 forward_v I I I I #
point $-1 2 0 1.2 #
point $-1 -2 0 1.2 #
edge $-1 $152 0 $144 3.1415926535897887 $125 $161 forward 7 unknown #
edge $-1 $142 0 $151 3.1415926535897931 $126 $162 forward 7 unknown #
vertex $-1 $150 $163 #
vertex $-1 $149 $164 #
straight-curve $-1 0 -6 1.2 1 0 0 I I #
ellipse-curve $-1 0 1.6653345369377348e-016 1.2 0 0 -1 2 -1.6653345369377348e-016 0 1 I I #
straight-curve $-1 64 -6 -1.2 0 0 1 I I #
straight-curve $-1 -1.1021457184401395e-015 -6 -1.2 4.5922738268339147e-016 0 1 I I #
cone-surface $-1 0 0 -1.2 0 0 1 6 0 0 1 I I 0 1 6 forward I I I I #
straight-curve $-1 64 6 1.2 -1 0 0 I I #
point $-1 0 6 1.2 #
point $-1 64 6 1.2 #
ellipse-curve $-1 63.999999999999986 -2.2204460492503131e-016 1.2 0 0 1 1.4210854715202004e-014 -6 0 1 I I #
ellipse-curve $-1 -2.2204460492503131e-016 2.2204460492503131e-016 1.2 0 0 1 2.2204460492503131e-016 6 0 1 I I #
point $-1 0 -6 1.2 #
point $-1 64 -6 1.2 #
End-of-ACIS-data 