999
DXF file: 1178255.dxf
999
Pro/ENGINEER 9806 by Parametric Technology Corporation
0
SECTION
2
HEADER
9
$EXTMAX
10
17.0000000000
20
22.0000000000
9
$EXTMIN
10
0.0000000000
20
0.0000000000
9
$LIMMIN
10
0.0000000000
20
0.0000000000
9
$LIMMAX
10
17.0000000000
20
22.0000000000
9
$VIEWCTR
10
8.5000000000
20
11.0000000000
9
$VIEWSIZE
40
22.0000000000
9
$CLAYER
8
0
9
$LTSCALE
40
1.4340740741
9
$CELTYPE
6
BYLAYER
9
$DIMSCALE
40
1
9
$DIMASZ
40
0.1875000000
9
$DIMEXO
40
0.1629629630
9
$DIMDLI
40
0.9908148148
9
$DIMEXE
40
0.4693333333
9
$DIMCEN
40
0.2346666667
9
$DIMTXT
40
0.2946428571
0
ENDSEC
0
SECTION
2
TABLES
0
TABLE
2
LTYPE
70
6
0
LTYPE
2
CONTINUOUS
70
64
3
Solid line
72
65
73
0
40
0
0
LTYPE
2
CENTER
70
64
3
____ _ ____ _ ____ _ ____ _ ____ _ ____ _ ____
72
65
73
4
40
0.6
49
0.375
49
-0.075
49
0.075
49
-0.075
0
LTYPE
2
HIDDEN
70
64
3
- - - - - - - - - - - - - - - - - - - -
72
65
73
2
40
0.2
49
0.1
49
-0.1
0
LTYPE
2
PHANTOM
70
64
3
_____ _ _ _____ _ _ _____ _ _ _____
72
65
73
6
40
0.8
49
0.45
49
-0.05
49
0.1
49
-0.05
49
0.1
49
-0.05
0
LTYPE
2
DOT
70
64
3
. . . . . . . . . . . . . . . . . . . .
72
65
73
2
40
0.2
49
0.1
49
-0.1
0
LTYPE
2
DASHED
70
64
3
- - - - - - - - - - - - - - - - - - - -
72
65
73
2
40
0.2
49
0.1
49
-0.1
0
ENDTAB
0
TABLE
2
LAYER
70
36
0
LAYER
2
0
70
0
62
7
6
CONTINUOUS
0
LAYER
2
DEFAULT_1
70
0
62
7
6
CENTER
0
LAYER
2
DEFAULT_2
70
0
62
7
6
HIDDEN
0
LAYER
2
DEFAULT_3
70
0
62
7
6
PHANTOM
0
ENDTAB
0
ENDSEC
0
SECTION
2
BLOCKS
0
ENDSEC
0
SECTION
2
ENTITIES
0
LINE
8
0
62
4
10
1.0170000000
20
22.9590000000
11
0.7810000000
21
22.8227450000
0
LINE
8
0
62
4
10
2.6680000000
20
23.9690000000
11
1.6580000000
21
22.9590000000
0
LINE
8
0
62
4
10
0.0000000000
20
1.0990000000
11
0.5000000000
21
0.5990000000
0
LINE
8
0
62
4
10
1.0460000000
20
0.0000000000
11
20.4040000000
21
0.0000000000
0
LINE
8
0
62
4
10
21.6080000000
20
0.0000000000
11
36.2170000000
21
0.0000000000
0
LINE
8
0
62
4
10
37.4210000000
20
0.0000000000
11
56.7790000000
21
0.0000000000
0
LINE
8
0
62
4
10
0.5000000000
20
0.5990000000
11
1.0460000000
21
0.5990000000
0
LINE
8
0
62
4
10
56.7790000000
20
0.5990000000
11
57.3250000000
21
0.5990000000
0
LINE
8
0
62
4
10
0.0000000000
20
1.3440000000
11
0.3440000000
21
1.3440000000
0
LINE
8
0
62
4
10
57.4810000000
20
1.3440000000
11
57.8250000000
21
1.3440000000
0
LINE
8
0
62
4
10
0.0000000000
20
1.0990000000
11
0.0000000000
21
1.3440000000
0
LINE
8
0
62
4
10
0.0000000000
20
2.0940000000
11
0.0000000000
21
21.7820000000
0
LINE
8
0
62
4
10
0.0000000000
20
2.0940000000
11
0.3440000000
21
2.0940000000
0
LINE
8
0
62
4
10
57.4810000000
20
2.0940000000
11
57.8250000000
21
2.0940000000
0
LINE
8
0
62
4
10
0.7810000000
20
22.2190000000
11
0.7810000000
21
22.8227450000
0
LINE
8
0
62
4
10
1.0460000000
20
0.0000000000
11
1.0460000000
21
0.5990000000
0
LINE
8
0
62
4
10
5.3750000000
20
3.4220000000
11
5.6250000000
21
3.4220000000
0
LINE
8
0
62
4
10
52.2000000000
20
3.4220000000
11
52.4500000000
21
3.4220000000
0
LINE
8
0
62
4
10
52.4500000000
20
3.6720000000
11
52.2000000000
21
3.6720000000
0
LINE
8
0
62
4
10
5.6250000000
20
3.6720000000
11
5.3750000000
21
3.6720000000
0
LINE
8
0
62
4
10
8.0366110000
20
20.1090000000
11
8.2575820000
21
20.3299710000
0
LINE
8
0
62
4
10
8.1250000000
20
20.0206120000
11
8.3459710000
21
20.2415830000
0
LINE
8
0
62
4
10
2.8750000000
20
3.8590000000
11
8.1250000000
21
3.8590000000
0
LINE
8
0
62
4
10
49.7000000000
20
3.8590000000
11
54.9500000000
21
3.8590000000
0
LINE
8
0
62
4
10
2.4380000000
20
12.1090000000
11
2.4380000000
21
11.8590000000
0
LINE
8
0
62
4
10
2.6880000000
20
11.8590000000
11
2.6880000000
21
12.1090000000
0
LINE
8
0
62
4
10
2.8750000000
20
3.8590000000
11
2.8750000000
21
20.1090000000
0
LINE
8
0
62
4
10
8.0366110000
20
3.8590000000
11
8.2575820000
21
3.6380290000
0
LINE
8
0
62
4
10
8.1250000000
20
3.9473880000
11
8.3459710000
21
3.7264180000
0
LINE
8
0
62
4
10
5.3750000000
20
20.5460000000
11
5.3750000000
21
20.2960000000
0
LINE
8
0
62
4
10
5.3750000000
20
3.6720000000
11
5.3750000000
21
3.4220000000
0
LINE
8
0
62
4
10
5.6250000000
20
3.4220000000
11
5.6250000000
21
3.6720000000
0
LINE
8
0
62
4
10
5.6250000000
20
20.2960000000
11
5.6250000000
21
20.5460000000
0
LINE
8
0
62
4
10
8.1250000000
20
3.8590000000
11
8.1250000000
21
20.1090000000
0
LINE
8
0
62
4
10
8.3120000000
20
12.1090000000
11
8.3120000000
21
11.8590000000
0
LINE
8
0
62
4
10
8.5620000000
20
11.8590000000
11
8.5620000000
21
12.1090000000
0
LINE
8
0
62
4
10
21.0060000000
20
22.9610000000
11
24.0050000000
21
25.9600000000
0
LINE
8
0
62
4
10
2.8750000000
20
3.9473880000
11
2.6540290000
21
3.7264180000
0
LINE
8
0
62
4
10
2.4380000000
20
11.8590000000
11
2.6880000000
21
11.8590000000
0
LINE
8
0
62
4
10
8.3120000000
20
11.8590000000
11
8.5620000000
21
11.8590000000
0
LINE
8
0
62
4
10
49.2630000000
20
11.8590000000
11
49.5130000000
21
11.8590000000
0
LINE
8
0
62
4
10
55.1370000000
20
11.8590000000
11
55.3870000000
21
11.8590000000
0
LINE
8
0
62
4
10
2.9633880000
20
3.8590000000
11
2.7424170000
21
3.6380290000
0
LINE
8
0
62
4
10
55.3870000000
20
12.1090000000
11
55.1370000000
21
12.1090000000
0
LINE
8
0
62
4
10
49.5130000000
20
12.1090000000
11
49.2630000000
21
12.1090000000
0
LINE
8
0
62
4
10
8.5620000000
20
12.1090000000
11
8.3120000000
21
12.1090000000
0
LINE
8
0
62
4
10
2.6880000000
20
12.1090000000
11
2.4380000000
21
12.1090000000
0
LINE
8
0
62
4
10
21.0060000000
20
0.6020000000
11
21.6080000000
21
0.0000000000
0
LINE
8
0
62
4
10
2.8750000000
20
20.0206120000
11
2.6540290000
21
20.2415830000
0
LINE
8
0
62
4
10
2.9633880000
20
20.1090000000
11
2.7424170000
21
20.3299710000
0
LINE
8
0
62
4
10
2.8750000000
20
20.1090000000
11
8.1250000000
21
20.1090000000
0
LINE
8
0
62
4
10
49.7000000000
20
20.1090000000
11
54.9500000000
21
20.1090000000
0
LINE
8
0
62
4
10
18.0070000000
20
23.9690000000
11
18.0070000000
21
25.9600000000
0
LINE
8
0
62
4
10
5.3750000000
20
20.2960000000
11
5.6250000000
21
20.2960000000
0
LINE
8
0
62
4
10
52.2000000000
20
20.2960000000
11
52.4500000000
21
20.2960000000
0
LINE
8
0
62
4
10
52.4500000000
20
20.5460000000
11
52.2000000000
21
20.5460000000
0
LINE
8
0
62
4
10
5.6250000000
20
20.5460000000
11
5.3750000000
21
20.5460000000
0
LINE
8
0
62
4
10
0.0000000000
20
21.7820000000
11
0.3440000000
21
21.7820000000
0
LINE
8
0
62
4
10
57.4810000000
20
21.7820000000
11
57.8250000000
21
21.7820000000
0
LINE
8
0
62
4
10
36.8190000000
20
22.9610000000
11
39.8180000000
21
25.9600000000
0
LINE
8
0
62
4
10
39.8180000000
20
23.9690000000
11
39.8180000000
21
25.9600000000
0
LINE
8
0
62
4
10
49.2630000000
20
12.1090000000
11
49.2630000000
21
11.8590000000
0
LINE
8
0
62
4
10
49.5130000000
20
11.8590000000
11
49.5130000000
21
12.1090000000
0
LINE
8
0
62
4
10
49.7000000000
20
3.8590000000
11
49.7000000000
21
20.1090000000
0
LINE
8
0
62
4
10
52.2000000000
20
20.5460000000
11
52.2000000000
21
20.2960000000
0
LINE
8
0
62
4
10
52.2000000000
20
3.6720000000
11
52.2000000000
21
3.4220000000
0
LINE
8
0
62
4
10
52.4500000000
20
3.4220000000
11
52.4500000000
21
3.6720000000
0
LINE
8
0
62
4
10
52.4500000000
20
20.2960000000
11
52.4500000000
21
20.5460000000
0
LINE
8
0
62
4
10
54.9500000000
20
3.8590000000
11
54.9500000000
21
20.1090000000
0
LINE
8
0
62
4
10
55.1370000000
20
12.1090000000
11
55.1370000000
21
11.8590000000
0
LINE
8
0
62
4
10
55.3870000000
20
11.8590000000
11
55.3870000000
21
12.1090000000
0
LINE
8
0
62
4
10
56.7790000000
20
0.0000000000
11
56.7790000000
21
0.5990000000
0
LINE
8
0
62
4
10
57.0440000000
20
22.2190000000
11
57.0440000000
21
22.8230000000
0
LINE
8
0
62
4
10
57.8250000000
20
1.0990000000
11
57.8250000000
21
1.3440000000
0
LINE
8
0
62
4
10
57.8250000000
20
2.0940000000
11
57.8250000000
21
21.7820000000
0
LINE
8
0
62
4
10
21.0060000000
20
0.6020000000
11
20.4040000000
21
0.0000000000
0
LINE
8
0
62
4
10
54.8616110000
20
20.1090000000
11
55.0825820000
21
20.3299710000
0
LINE
8
0
62
4
10
54.9500000000
20
20.0206120000
11
55.1709710000
21
20.2415830000
0
LINE
8
0
62
4
10
36.8190000000
20
0.6020000000
11
36.2170000000
21
0.0000000000
0
LINE
8
0
62
4
10
49.7000000000
20
3.9473880000
11
49.4790290000
21
3.7264180000
0
LINE
8
0
62
4
10
49.7883880000
20
3.8590000000
11
49.5674170000
21
3.6380290000
0
LINE
8
0
62
4
10
57.8250000000
20
1.0990000000
11
57.3250000000
21
0.5990000000
0
LINE
8
0
62
4
10
1.0170000000
20
22.9590000000
11
1.6580000000
21
22.9590000000
0
LINE
8
0
62
4
10
56.1670000000
20
22.9590000000
11
56.8084410000
21
22.9590000000
0
LINE
8
0
62
4
10
2.6680000000
20
23.9690000000
11
18.0070000000
21
23.9690000000
0
LINE
8
0
62
4
10
39.8180000000
20
23.9690000000
11
55.1570000000
21
23.9690000000
0
LINE
8
0
62
4
10
24.0050000000
20
25.9600000000
11
33.8200000000
21
25.9600000000
0
LINE
8
0
62
4
10
57.0440000000
20
22.8230000000
11
56.8084410000
21
22.9590000000
0
LINE
8
0
62
4
10
36.8190000000
20
0.6020000000
11
37.4210000000
21
0.0000000000
0
LINE
8
0
62
4
10
21.0060000000
20
22.9610000000
11
18.0070000000
21
25.9600000000
0
LINE
8
0
62
4
10
54.8616110000
20
3.8590000000
11
55.0825820000
21
3.6380290000
0
LINE
8
0
62
4
10
54.9500000000
20
3.9473880000
11
55.1709710000
21
3.7264180000
0
LINE
8
0
62
4
10
36.8190000000
20
22.9610000000
11
33.8200000000
21
25.9600000000
0
LINE
8
0
62
4
10
49.7000000000
20
20.0206120000
11
49.4790290000
21
20.2415830000
0
LINE
8
0
62
4
10
49.7883880000
20
20.1090000000
11
49.5674170000
21
20.3299710000
0
LINE
8
0
62
4
10
55.1570000000
20
23.9690000000
11
56.1670000000
21
22.9590000000
0
ARC
8
0
62
4
10
57.4810000000
20
1.7190000000
40
0.3750000000
50
90.0000030000
51
270.0000010000
0
ARC
8
0
62
4
10
55.1267760000
20
3.6822230000
40
0.0625000000
50
224.9999960000
51
405.0000010000
0
CIRCLE
8
0
62
4
10
53.2020000000
20
0.3130000000
40
0.0700000000
0
ARC
8
0
62
4
10
49.5232230000
20
3.6822230000
40
0.0625000000
50
135.0000000000
51
314.9999920000
0
CIRCLE
8
0
62
4
10
46.3170000000
20
0.3130000000
40
0.0700000000
0
CIRCLE
8
0
62
4
10
47.3170000000
20
0.3130000000
40
0.0700000000
0
CIRCLE
8
0
62
4
10
40.4520000000
20
0.3130000000
40
0.0700000000
0
ARC
8
0
62
4
10
49.5232230000
20
20.2857770000
40
0.0625000000
50
45.0000010000
51
224.9999960000
0
ARC
8
0
62
4
10
55.1267760000
20
20.2857770000
40
0.0625000000
50
314.9999920000
51
495.0000000000
0
CIRCLE
8
0
62
4
10
57.4810000000
20
11.7190000000
40
0.1250000000
0
ARC
8
0
62
4
10
57.4810000000
20
22.2190000000
40
0.4370000000
50
180.0000050000
51
270.0000010000
0
CIRCLE
8
0
62
4
10
53.6860000000
20
23.3090000000
40
0.1560000000
0
CIRCLE
8
0
62
4
10
50.0650000000
20
23.3460000000
40
0.1560000000
0
CIRCLE
8
0
62
4
10
48.9400000000
20
23.3460000000
40
0.1560000000
0
CIRCLE
8
0
62
4
10
45.2130000000
20
23.5590000000
40
0.1560000000
0
CIRCLE
8
0
62
4
10
44.2130000000
20
23.5590000000
40
0.1560000000
0
CIRCLE
8
0
62
4
10
39.3610000000
20
24.4080000000
40
0.1560000000
0
CIRCLE
8
0
62
4
10
40.4860000000
20
23.3460000000
40
0.1560000000
0
CIRCLE
8
0
62
4
10
39.3610000000
20
23.3460000000
40
0.1560000000
0
CIRCLE
8
0
62
4
10
35.8510000000
20
23.2170000000
40
0.1560000000
0
CIRCLE
8
0
62
4
10
4.6230000000
20
0.3130000000
40
0.0700000000
0
CIRCLE
8
0
62
4
10
19.6630000000
20
1.0940000000
40
0.0625000000
0
CIRCLE
8
0
62
4
10
19.6630000000
20
4.2190000000
40
0.0625000000
0
CIRCLE
8
0
62
4
10
17.3730000000
20
0.3130000000
40
0.0700000000
0
CIRCLE
8
0
62
4
10
11.5080000000
20
0.3130000000
40
0.0700000000
0
CIRCLE
8
0
62
4
10
10.5080000000
20
0.3130000000
40
0.0700000000
0
ARC
8
0
62
4
10
8.3017760000
20
3.6822230000
40
0.0625000000
50
224.9999960000
51
405.0000010000
0
ARC
8
0
62
4
10
2.6982230000
20
3.6822230000
40
0.0625000000
50
135.0000000000
51
314.9999920000
0
ARC
8
0
62
4
10
0.3440000000
20
1.7190000000
40
0.3750000000
50
270.0000010000
51
450.0000030000
0
CIRCLE
8
0
62
4
10
23.9120000000
20
24.1870000000
40
0.4375000000
0
CIRCLE
8
0
62
4
10
21.9740000000
20
23.2170000000
40
0.1560000000
0
CIRCLE
8
0
62
4
10
18.4640000000
20
24.4080000000
40
0.1560000000
0
CIRCLE
8
0
62
4
10
18.4640000000
20
23.3460000000
40
0.1560000000
0
ARC
8
0
62
4
10
8.3017760000
20
20.2857770000
40
0.0625000000
50
314.9999920000
51
495.0000000000
0
CIRCLE
8
0
62
4
10
17.3390000000
20
23.3460000000
40
0.1560000000
0
CIRCLE
8
0
62
4
10
13.6120000000
20
23.5590000000
40
0.1560000000
0
CIRCLE
8
0
62
4
10
12.6120000000
20
23.5590000000
40
0.1560000000
0
CIRCLE
8
0
62
4
10
8.8850000000
20
23.3460000000
40
0.1560000000
0
CIRCLE
8
0
62
4
10
7.7600000000
20
23.3460000000
40
0.1560000000
0
ARC
8
0
62
4
10
2.6982230000
20
20.2857770000
40
0.0625000000
50
45.0000010000
51
224.9999960000
0
CIRCLE
8
0
62
4
10
0.3440000000
20
11.7190000000
40
0.1250000000
0
CIRCLE
8
0
62
4
10
4.1390000000
20
23.3090000000
40
0.1560000000
0
ARC
8
0
62
4
10
0.3440000000
20
22.2190000000
40
0.4370000000
50
270.0000010000
51
360.0000000000
0
ENDSEC
0
EOF
