999
DXF file: neef_twr_cvrplate.dxf
999
Pro/ENGINEER 9801 by Parametric Technology Corporation
0
SECTION
2
HEADER
9
$EXTMAX
10
22.0000000000
20
17.0000000000
9
$EXTMIN
10
0.0000000000
20
0.0000000000
9
$LIMMIN
10
0.0000000000
20
0.0000000000
9
$LIMMAX
10
22.0000000000
20
17.0000000000
9
$VIEWCTR
10
11.0000000000
20
8.5000000000
9
$VIEWSIZE
40
17.0000000000
9
$CLAYER
8
0
9
$LTSCALE
40
1.2100000000
9
$CELTYPE
6
BYLAYER
9
$DIMSCALE
40
1
9
$DIMASZ
40
0.1875000000
9
$DIMEXO
40
0.1375000000
9
$DIMDLI
40
0.8360000000
9
$DIMEXE
40
0.3960000000
9
$DIMCEN
40
0.1980000000
9
$DIMTXT
40
0.2486049107
0
ENDSEC
0
SECTION
2
TABLES
0
TABLE
2
LTYPE
70
6
0
LTYPE
2
CONTINUOUS
70
64
3
Solid line
72
65
73
0
40
0
0
LTYPE
2
CENTER
70
64
3
____ _ ____ _ ____ _ ____ _ ____ _ ____ _ ____
72
65
73
4
40
0.6
49
0.375
49
-0.075
49
0.075
49
-0.075
0
LTYPE
2
HIDDEN
70
64
3
- - - - - - - - - - - - - - - - - - - -
72
65
73
2
40
0.2
49
0.1
49
-0.1
0
LTYPE
2
PHANTOM
70
64
3
_____ _ _ _____ _ _ _____ _ _ _____
72
65
73
6
40
0.8
49
0.45
49
-0.05
49
0.1
49
-0.05
49
0.1
49
-0.05
0
LTYPE
2
DOT
70
64
3
. . . . . . . . . . . . . . . . . . . .
72
65
73
2
40
0.2
49
0.1
49
-0.1
0
LTYPE
2
DASHED
70
64
3
- - - - - - - - - - - - - - - - - - - -
72
65
73
2
40
0.2
49
0.1
49
-0.1
0
ENDTAB
0
TABLE
2
LAYER
70
36
0
LAYER
2
0
70
0
62
7
6
CONTINUOUS
0
LAYER
2
DEFAULT_1
70
0
62
7
6
CENTER
0
LAYER
2
DEFAULT_2
70
0
62
7
6
HIDDEN
0
LAYER
2
DEFAULT_3
70
0
62
7
6
PHANTOM
0
ENDTAB
0
ENDSEC
0
SECTION
2
BLOCKS
0
ENDSEC
0
SECTION
2
ENTITIES
0
LINE
8
0
62
3
10
-16.7641522572
20
28.4200360432
11
-16.7641522572
21
21.5617683267
0
LINE
8
0
62
3
10
-9.3625774541
20
29.1680675393
11
-9.3625774541
21
28.8924769881
0
LINE
8
0
62
3
10
-9.3625774541
20
28.6562565157
11
-9.3625774541
21
28.4200360432
0
LINE
8
0
62
3
10
-9.3625774541
20
21.5617683267
11
-9.3625774541
21
21.3255478543
0
LINE
8
0
62
3
10
-9.3625774541
20
21.0893273818
11
-9.3625774541
21
20.8137368306
0
LINE
8
0
62
3
10
-9.2050971391
20
28.8924769881
11
-9.2050971391
21
28.6562565157
0
LINE
8
0
62
3
10
-9.2050971391
20
21.3255478543
11
-9.2050971391
21
21.0893273818
0
LINE
8
0
62
3
10
-9.0476168241
20
21.0893273818
11
-9.0476168241
21
21.3255478543
0
LINE
8
0
62
3
10
-9.0476168241
20
28.6562565157
11
-9.0476168241
21
28.8924769881
0
LINE
8
0
62
3
10
-8.8901365092
20
20.8137368306
11
-8.8901365092
21
21.0893273818
0
LINE
8
0
62
3
10
-8.8901365092
20
21.3255478543
11
-8.8901365092
21
21.5617683267
0
LINE
8
0
62
3
10
-8.8901365092
20
28.4200360432
11
-8.8901365092
21
28.6562565157
0
LINE
8
0
62
3
10
-8.8901365092
20
28.8924769881
11
-8.8901365092
21
29.1680675393
0
LINE
8
0
62
3
10
-9.1657270604
20
20.6168864369
11
-9.0869869029
21
20.6168864369
0
LINE
8
0
62
3
10
6.1098634908
20
20.6168864369
11
6.1886036483
21
20.6168864369
0
LINE
8
0
62
3
10
6.3854540420
20
21.0893273818
11
6.2279737270
21
21.0893273818
0
LINE
8
0
62
3
10
6.0704934121
20
21.0893273818
11
5.9130130971
21
21.0893273818
0
LINE
8
0
62
3
10
-8.8901365092
20
21.0893273818
11
-9.0476168241
21
21.0893273818
0
LINE
8
0
62
3
10
-9.2050971391
20
21.0893273818
11
-9.3625774541
21
21.0893273818
0
LINE
8
0
62
3
10
-9.3625774541
20
21.3255478543
11
-9.2050971391
21
21.3255478543
0
LINE
8
0
62
3
10
-9.0476168241
20
21.3255478543
11
-8.8901365092
21
21.3255478543
0
LINE
8
0
62
3
10
5.9130130971
20
21.3255478543
11
6.0704934121
21
21.3255478543
0
LINE
8
0
62
3
10
6.2279737270
20
21.3255478543
11
6.3854540420
21
21.3255478543
0
LINE
8
0
62
3
10
13.7870288452
20
21.5617683267
11
6.3854540420
21
21.5617683267
0
LINE
8
0
62
3
10
5.9130130971
20
21.5617683267
11
-8.8901365092
21
21.5617683267
0
LINE
8
0
62
3
10
-9.3625774541
20
21.5617683267
11
-16.7641522572
21
21.5617683267
0
LINE
8
0
62
3
10
13.7870288452
20
28.4200360432
11
6.3854540420
21
28.4200360432
0
LINE
8
0
62
3
10
5.9130130971
20
28.4200360432
11
-8.8901365092
21
28.4200360432
0
LINE
8
0
62
3
10
-9.3625774541
20
28.4200360432
11
-16.7641522572
21
28.4200360432
0
LINE
8
0
62
3
10
6.3854540420
20
28.6562565157
11
6.2279737270
21
28.6562565157
0
LINE
8
0
62
3
10
6.0704934121
20
28.6562565157
11
5.9130130971
21
28.6562565157
0
LINE
8
0
62
3
10
-8.8901365092
20
28.6562565157
11
-9.0476168241
21
28.6562565157
0
LINE
8
0
62
3
10
-9.2050971391
20
28.6562565157
11
-9.3625774541
21
28.6562565157
0
LINE
8
0
62
3
10
-9.3625774541
20
28.8924769881
11
-9.2050971391
21
28.8924769881
0
LINE
8
0
62
3
10
-9.0476168241
20
28.8924769881
11
-8.8901365092
21
28.8924769881
0
LINE
8
0
62
3
10
5.9130130971
20
28.8924769881
11
6.0704934121
21
28.8924769881
0
LINE
8
0
62
3
10
6.2279737270
20
28.8924769881
11
6.3854540420
21
28.8924769881
0
LINE
8
0
62
3
10
6.1886036483
20
29.3649179330
11
6.1098634908
21
29.3649179330
0
LINE
8
0
62
3
10
-9.0869869029
20
29.3649179330
11
-9.1657270604
21
29.3649179330
0
LINE
8
0
62
3
10
5.9130130971
20
29.1680675393
11
5.9130130971
21
28.8924769881
0
LINE
8
0
62
3
10
5.9130130971
20
28.6562565157
11
5.9130130971
21
28.4200360432
0
LINE
8
0
62
3
10
5.9130130971
20
21.5617683267
11
5.9130130971
21
21.3255478543
0
LINE
8
0
62
3
10
5.9130130971
20
21.0893273818
11
5.9130130971
21
20.8137368306
0
LINE
8
0
62
3
10
6.0704934121
20
28.8924769881
11
6.0704934121
21
28.6562565157
0
LINE
8
0
62
3
10
6.0704934121
20
21.3255478543
11
6.0704934121
21
21.0893273818
0
LINE
8
0
62
3
10
6.2279737270
20
21.0893273818
11
6.2279737270
21
21.3255478543
0
LINE
8
0
62
3
10
6.2279737270
20
28.6562565157
11
6.2279737270
21
28.8924769881
0
LINE
8
0
62
3
10
6.3854540420
20
20.8137368306
11
6.3854540420
21
21.0893273818
0
LINE
8
0
62
3
10
6.3854540420
20
21.3255478543
11
6.3854540420
21
21.5617683267
0
LINE
8
0
62
3
10
6.3854540420
20
28.4200360432
11
6.3854540420
21
28.6562565157
0
LINE
8
0
62
3
10
6.3854540420
20
28.8924769881
11
6.3854540420
21
29.1680675393
0
LINE
8
0
62
3
10
13.7870288452
20
28.4200360432
11
13.7870288452
21
21.5617683267
0
ARC
8
0
62
3
10
6.1886036483
20
20.8137368306
40
0.1968503937
50
270.0000000000
51
360.0000000000
0
ARC
8
0
62
3
10
6.1098634908
20
20.8137368306
40
0.1968503937
50
180.0000000000
51
270.0000000000
0
ARC
8
0
62
3
10
-9.0869869029
20
20.8137368306
40
0.1968503937
50
270.0000000000
51
360.0000000000
0
ARC
8
0
62
3
10
-9.1657270604
20
20.8137368306
40
0.1968503937
50
180.0000000000
51
270.0000000000
0
ARC
8
0
62
3
10
-9.1657270604
20
29.1680675393
40
0.1968503937
50
90.0000000000
51
180.0000000000
0
ARC
8
0
62
3
10
-9.0869869029
20
29.1680675393
40
0.1968503937
50
0.0000000000
51
90.0000000000
0
ARC
8
0
62
3
10
6.1098634908
20
29.1680675393
40
0.1968503937
50
90.0000000000
51
180.0000000000
0
ARC
8
0
62
3
10
6.1886036483
20
29.1680675393
40
0.1968503937
50
0.0000000000
51
90.0000000000
0
ENDSEC
0
EOF
