999
DXF file: 18_laser_flat1.dxf
999
Pro/ENGINEER 9801 by Parametric Technology Corporation
0
SECTION
2
HEADER
9
$EXTMAX
10
22.0000000000
20
17.0000000000
9
$EXTMIN
10
0.0000000000
20
0.0000000000
9
$LIMMIN
10
0.0000000000
20
0.0000000000
9
$LIMMAX
10
22.0000000000
20
17.0000000000
9
$VIEWCTR
10
11.0000000000
20
8.5000000000
9
$VIEWSIZE
40
17.0000000000
9
$CLAYER
8
0
9
$LTSCALE
40
1.2100000000
9
$CELTYPE
6
BYLAYER
9
$DIMSCALE
40
1
9
$DIMASZ
40
0.1875000000
9
$DIMEXO
40
0.1375000000
9
$DIMDLI
40
0.8360000000
9
$DIMEXE
40
0.3960000000
9
$DIMCEN
40
0.1980000000
9
$DIMTXT
40
0.2486049107
0
ENDSEC
0
SECTION
2
TABLES
0
TABLE
2
LTYPE
70
6
0
LTYPE
2
CONTINUOUS
70
64
3
Solid line
72
65
73
0
40
0
0
LTYPE
2
CENTER
70
64
3
____ _ ____ _ ____ _ ____ _ ____ _ ____ _ ____
72
65
73
4
40
0.6
49
0.375
49
-0.075
49
0.075
49
-0.075
0
LTYPE
2
HIDDEN
70
64
3
- - - - - - - - - - - - - - - - - - - -
72
65
73
2
40
0.2
49
0.1
49
-0.1
0
LTYPE
2
PHANTOM
70
64
3
_____ _ _ _____ _ _ _____ _ _ _____
72
65
73
6
40
0.8
49
0.45
49
-0.05
49
0.1
49
-0.05
49
0.1
49
-0.05
0
LTYPE
2
DOT
70
64
3
. . . . . . . . . . . . . . . . . . . .
72
65
73
2
40
0.2
49
0.1
49
-0.1
0
LTYPE
2
DASHED
70
64
3
- - - - - - - - - - - - - - - - - - - -
72
65
73
2
40
0.2
49
0.1
49
-0.1
0
ENDTAB
0
TABLE
2
LAYER
70
36
0
LAYER
2
0
70
0
62
7
6
CONTINUOUS
0
LAYER
2
DEFAULT_1
70
0
62
7
6
CENTER
0
LAYER
2
DEFAULT_2
70
0
62
7
6
HIDDEN
0
LAYER
2
DEFAULT_3
70
0
62
7
6
PHANTOM
0
ENDTAB
0
ENDSEC
0
SECTION
2
BLOCKS
0
ENDSEC
0
SECTION
2
ENTITIES
0
POLYLINE
8
0
62
3
66
1
70
0
0
VERTEX
8
0
62
3
10
10.0155691240
20
20.9996508406
0
VERTEX
8
0
62
3
10
10.0535516375
20
21.0205258383
0
VERTEX
8
0
62
3
10
10.0898624070
20
21.0345141332
0
VERTEX
8
0
62
3
10
10.1242314859
20
21.0423450997
0
VERTEX
8
0
62
3
10
10.1576412446
20
21.0448628267
0
SEQEND
0
POLYLINE
8
0
62
3
66
1
70
0
0
VERTEX
8
0
62
3
10
9.8879860209
20
20.9341658195
0
VERTEX
8
0
62
3
10
9.9301525384
20
20.9520028929
0
VERTEX
8
0
62
3
10
9.9722171918
20
20.9737272105
0
VERTEX
8
0
62
3
10
10.0155691240
20
20.9996508406
0
SEQEND
0
LINE
8
0
62
3
10
8.9869341475
20
20.6187041625
11
9.8879860209
21
20.9341658195
0
LINE
8
0
62
3
10
9.6371200360
20
20.7559196262
11
10.0379341944
21
20.9018040493
0
LINE
8
0
62
3
10
9.6781624532
20
20.6431565117
11
10.0037321801
21
20.7616542015
0
POLYLINE
8
0
62
3
66
1
70
0
0
VERTEX
8
0
62
3
10
9.8879860209
20
20.6237722847
0
VERTEX
8
0
62
3
10
9.9370499523
20
20.6412082801
0
VERTEX
8
0
62
3
10
9.9852861483
20
20.6625616194
0
VERTEX
8
0
62
3
10
10.0354474299
20
20.6883872549
0
SEQEND
0
LINE
8
0
62
3
10
9.8879860209
20
20.6237722847
11
9.0614574093
21
20.3851740265
0
POLYLINE
8
0
62
3
66
1
70
0
0
VERTEX
8
0
62
3
10
10.1576412446
20
20.7218965202
0
VERTEX
8
0
62
3
10
10.1188323838
20
20.7184761570
0
VERTEX
8
0
62
3
10
10.0784253963
20
20.7077634449
0
VERTEX
8
0
62
3
10
10.0354474299
20
20.6883872549
0
SEQEND
0
LINE
8
0
62
3
10
10.4272964683
20
20.6237722847
11
11.2538250798
21
20.3851740265
0
POLYLINE
8
0
62
3
66
1
70
0
0
VERTEX
8
0
62
3
10
10.2798350593
20
20.6883872549
0
VERTEX
8
0
62
3
10
10.2368028019
20
20.7077770248
0
VERTEX
8
0
62
3
10
10.1961528852
20
20.7185289935
0
VERTEX
8
0
62
3
10
10.1576412446
20
20.7218965202
0
SEQEND
0
POLYLINE
8
0
62
3
66
1
70
0
0
VERTEX
8
0
62
3
10
10.2798350593
20
20.6883872549
0
VERTEX
8
0
62
3
10
10.3300016594
20
20.6625590629
0
VERTEX
8
0
62
3
10
10.3782397794
20
20.6412053688
0
VERTEX
8
0
62
3
10
10.4272964683
20
20.6237722847
0
SEQEND
0
LINE
8
0
62
3
10
10.3115503091
20
20.7616542015
11
10.6371200360
21
20.6431565117
0
LINE
8
0
62
3
10
10.2773482947
20
20.9018040493
11
10.6781624532
21
20.7559196262
0
POLYLINE
8
0
62
3
66
1
70
0
0
VERTEX
8
0
62
3
10
10.1576412446
20
21.0448628267
0
VERTEX
8
0
62
3
10
10.1904645012
20
21.0424372279
0
VERTEX
8
0
62
3
10
10.2250667396
20
21.0346274142
0
VERTEX
8
0
62
3
10
10.2615095985
20
21.0206202979
0
VERTEX
8
0
62
3
10
10.2997133651
20
20.9996508406
0
SEQEND
0
LINE
8
0
62
3
10
11.3283483416
20
20.6187041625
11
10.4272964683
21
20.9341658195
0
POLYLINE
8
0
62
3
66
1
70
0
0
VERTEX
8
0
62
3
10
10.2997133651
20
20.9996508406
0
VERTEX
8
0
62
3
10
10.3430687196
20
20.9737252976
0
VERTEX
8
0
62
3
10
10.3851343899
20
20.9520007966
0
VERTEX
8
0
62
3
10
10.4272964683
20
20.9341658195
0
SEQEND
0
ARC
8
0
62
3
10
10.6576412446
20
20.6995380689
40
0.0600000000
50
250.0000000000
51
430.0000000000
0
CIRCLE
8
0
62
3
10
11.2878320719
20
20.5029777027
40
0.0625000000
0
ARC
8
0
62
3
10
10.1576412446
20
20.5729116321
40
0.3500000000
50
70.0000000000
51
110.0000000000
0
ARC
8
0
62
3
10
10.1576412446
20
20.3387925221
40
0.4500000000
50
70.0000000000
51
110.0000000000
0
ARC
8
0
62
3
10
9.6576412446
20
20.6995380689
40
0.0600000000
50
110.0000000000
51
290.0000000000
0
CIRCLE
8
0
62
3
10
9.0274504173
20
20.5029777027
40
0.0625000000
0
ARC
8
0
62
3
10
11.2878320719
20
20.5029777027
40
0.1226139536
50
253.8978862480
51
430.7046572647
0
ARC
8
0
62
3
10
9.0274504173
20
20.5029777027
40
0.1226139536
50
109.2953427353
51
286.1021137520
0
ENDSEC
0
EOF
