600 0 1 0           
101 GICL ACIS Healer - Source: /gicl/data5/repository/PTC/V20/NC_Training_Rel20/DXF/part_33.prt.sat - 6 0 18 ACIS 6.0.3 Solaris 24 Sat Apr 13 20:51:09 2002 
1 9.999999999999999547e-07 1.000000000000000036e-10 
body $-1 $1 $-1 $-1 #
lump $-1 $-1 $2 $0 #
shell $-1 $-1 $-1 $3 $-1 $1 #
face $-1 $4 $5 $2 $-1 $6 forward single #
face $-1 $7 $8 $2 $-1 $9 forward single #
loop $-1 $-1 $10 $3 #
plane-surface $-1 -12.95399999999999352 -11.17599999999998062 26.03456340131707236 1 1.776356839400250465e-15 0 1.776356839400250465e-15 -1 0 forward_v I I I I #
face $-1 $11 $12 $2 $-1 $13 forward single #
loop $-1 $-1 $14 $4 #
plane-surface $-1 -13.33499999999999375 -9.080499999999990024 0.6349999999999991207 0 0 -1 0 1 0 forward_v I I I I #
coedge $-1 $15 $16 $17 $18 forward $5 $-1 #
face $-1 $19 $20 $2 $-1 $21 reversed single #
loop $-1 $-1 $22 $7 #
plane-surface $-1 -13.33499999999999375 -12.06499999999998174 51.17062170065852911 0 -1 0 0 0 -1 forward_v I I I I #
coedge $-1 $23 $17 $24 $25 forward $8 $-1 #
coedge $-1 $26 $10 $27 $28 forward $5 $-1 #
coedge $-1 $10 $29 $30 $31 forward $5 $-1 #
coedge $-1 $14 $32 $10 $18 reversed $8 $-1 #
edge $-1 $33 -1.936749999999996419 $34 4.032249999999983459 $10 $35 forward 7 unknown #
face $-1 $36 $37 $2 $-1 $38 reversed single #
loop $-1 $-1 $39 $11 #
plane-surface $-1 -13.71599999999999397 12.69999999999999929 331.4700000000000273 1 0 4.476419235288631171e-13 -4.476419235288631171e-13 0 1 forward_v I I I I #
coedge $-1 $24 $40 $41 $42 forward $12 $-1 #
coedge $-1 $32 $14 $43 $44 forward $8 $-1 #
coedge $-1 $30 $22 $14 $25 reversed $12 $-1 #
edge $-1 $33 -0.3810000000000020037 $45 0.3809999998519035813 $24 $46 reversed 7 unknown #
coedge $-1 $47 $15 $48 $49 forward $5 $-1 #
coedge $-1 $50 $51 $15 $28 reversed $52 $-1 #
edge $-1 $34 12.50928170065853529 $53 13.27128170065853574 $15 $54 forward 7 unknown #
coedge $-1 $16 $55 $56 $57 forward $5 $-1 #
coedge $-1 $40 $24 $16 $31 reversed $12 $-1 #
edge $-1 $58 12.56802914967071771 $33 37.96759255098780272 $16 $59 forward 7 unknown #
coedge $-1 $17 $23 $50 $60 reversed $8 $-1 #
vertex $-1 $31 $61 #
vertex $-1 $28 $62 #
straight-curve $-1 -12.9539999999999953 -10.12824999999998532 0.6349999999999997868 -1.776356839400250465e-15 1 0 I I #
face $-1 $63 $64 $2 $-1 $38 forward single #
loop $-1 $-1 $65 $19 #
plane-surface $-1 -13.48378975515722544 -11.53521024484274804 26.03456340131708302 0 0 -1 1 0 0 forward_v I I I I #
coedge $-1 $66 $41 $67 $68 reversed $20 $-1 #
coedge $-1 $22 $30 $69 $70 forward $12 $-1 #
coedge $-1 $39 $43 $22 $42 reversed $20 $-1 #
edge $-1 $71 165.2857474490121206 $45 190.6853108503292162 $22 $72 reversed 7 unknown #
coedge $-1 $41 $73 $23 $44 reversed $20 $-1 #
edge $-1 $45 -13.8747499999999846 $74 -7.905750000000005606 $43 $75 forward 7 unknown #
vertex $-1 $25 $76 #
straight-curve $-1 -13.33499999999999375 -12.06499999999997996 0.6349999999999980105 1 0 0 I I #
coedge $-1 $77 $26 $78 $79 forward $5 $-1 #
coedge $-1 $80 $81 $26 $49 reversed $82 $-1 #
edge $-1 $53 1.841499999999989257 $83 4.635499999999988852 $26 $84 forward 7 unknown #
coedge $-1 $85 $27 $32 $60 forward $52 $-1 #
coedge $-1 $27 $85 $80 $86 reversed $52 $-1 #
loop $-1 $-1 $50 $87 #
vertex $-1 $49 $88 #
straight-curve $-1 -12.95400000000000418 -6.096000000000001862 13.14428170065853507 0 0 -1 I I #
coedge $-1 $29 $89 $90 $91 reversed $5 $-1 #
coedge $-1 $65 $69 $29 $57 reversed $37 $-1 #
edge $-1 $92 -0.1796051224213641717 $58 0.709394877578617411 $29 $93 reversed 7 unknown #
vertex $-1 $31 $94 #
straight-curve $-1 -12.95399999999999352 -12.06499999999998174 38.60259255098780073 0 0 -1 I I #
edge $-1 $34 -0.3809999999999913456 $74 0.3809999998519053577 $50 $95 reversed 7 unknown #
point $-1 -12.95399999999999174 -12.06499999999998174 0.6349999999999997868 #
point $-1 -12.9540000000000024 -6.096000000000001862 0.6349999999999997868 #
face $-1 $96 $97 $2 $-1 $38 forward single #
loop $-1 $-1 $98 $36 #
coedge $-1 $67 $56 $99 $100 forward $37 $-1 #
coedge $-1 $101 $39 $102 $103 forward $20 $-1 #
coedge $-1 $69 $65 $39 $68 forward $37 $-1 #
edge $-1 $104 11.75839487757860802 $71 12.64739487757860559 $39 $105 reversed 7 unknown #
coedge $-1 $56 $67 $40 $70 reversed $37 $-1 #
edge $-1 $58 -0.4553948775786178516 $71 0.3066051222846581936 $40 $106 reversed 7 unknown #
vertex $-1 $70 $107 #
straight-curve $-1 -13.7159999999372566 -12.06499999999997996 191.3203108503292071 -4.476419235288631171e-13 0 1 I I #
coedge $-1 $43 $108 $85 $109 reversed $20 $-1 #
vertex $-1 $44 $110 #
straight-curve $-1 -13.7159999998518991 1.809750000000004633 0.6349999999999909051 -0 1 0 I I #
point $-1 -13.71599999985189733 -12.06499999999997996 0.6349999999999909051 #
coedge $-1 $111 $47 $112 $113 forward $5 $-1 #
coedge $-1 $114 $115 $47 $79 reversed $116 $-1 #
edge $-1 $83 -13.27128170065853574 $117 -12.50928170065853529 $47 $118 forward 7 unknown #
coedge $-1 $119 $48 $51 $86 forward $82 $-1 #
coedge $-1 $48 $119 $114 $120 reversed $82 $-1 #
loop $-1 $-1 $80 $121 #
vertex $-1 $79 $122 #
straight-curve $-1 -12.95399999999999885 -7.937499999999991118 -0.1270000000000006679 -1.776356839400250465e-15 1 0 I I #
coedge $-1 $51 $50 $73 $109 forward $52 $-1 #
edge $-1 $53 -0.3809999999999895692 $123 0.3809999998515642972 $51 $124 reversed 7 unknown #
face $-1 $125 $52 $2 $-1 $126 forward single #
point $-1 -12.95400000000000418 -6.096000000000001862 -0.1270000000000006679 #
coedge $-1 $55 $127 $128 $129 reversed $5 $-1 #
coedge $-1 $130 $131 $55 $91 forward $132 $-1 #
edge $-1 $92 -7.105427357601001859e-15 $133 63.49999999999998579 $55 $134 forward 7 unknown #
vertex $-1 $57 $135 #
straight-curve $-1 -12.95399999999999352 -11.35560512242136433 26.03456340131708302 -1.776356839400250465e-15 1 0 I I #
point $-1 -12.95399999999999174 -12.06499999999998174 26.03456340131708302 #
straight-curve $-1 -13.33499999999999375 -6.096000000000001862 0.6349999999999991207 1 0 0 I I #
face $-1 $136 $137 $2 $-1 $138 reversed single #
loop $-1 $-1 $139 $63 #
coedge $-1 $140 $141 $142 $143 forward $64 $-1 #
coedge $-1 $141 $140 $65 $100 reversed $64 $-1 #
edge $-1 $92 4.555102339858868795e-29 $104 0.7619999998632742688 $65 $144 forward 7 unknown #
coedge $-1 $145 $66 $146 $147 forward $20 $-1 #
coedge $-1 $148 $149 $66 $103 reversed $150 $-1 #
edge $-1 $104 -3.552713678800500929e-15 $151 63.49999999999998579 $66 $152 forward 7 unknown #
vertex $-1 $103 $153 #
straight-curve $-1 -13.71599999986326779 0.5823948775786256249 26.03456340131708657 -0 1 0 I I #
straight-curve $-1 -13.4093948775786096 -12.06499999999997996 26.03456340131708302 1 0 0 I I #
point $-1 -13.71599999986326779 -12.06499999999997996 26.03456340131708657 #
coedge $-1 $73 $154 $119 $155 reversed $20 $-1 #
edge $-1 $74 165.226999999999947 $123 165.9889999999999475 $73 $156 forward 7 unknown #
point $-1 -13.7159999998518991 -6.096000000000000973 0.6349999999999909051 #
coedge $-1 $157 $77 $158 $159 forward $5 $-1 #
coedge $-1 $160 $161 $77 $113 reversed $162 $-1 #
edge $-1 $117 2.285999999999989818 $163 8.889999999999988134 $77 $164 forward 7 unknown #
coedge $-1 $165 $78 $81 $120 forward $116 $-1 #
coedge $-1 $78 $165 $160 $166 reversed $116 $-1 #
loop $-1 $-1 $114 $167 #
vertex $-1 $113 $168 #
straight-curve $-1 -12.95400000000000773 -3.302000000000002267 13.14428170065853507 0 0 1 I I #
coedge $-1 $81 $80 $108 $155 forward $82 $-1 #
edge $-1 $83 -0.3809999999999860165 $169 0.3809999998515642972 $114 $170 forward 7 unknown #
face $-1 $87 $82 $2 $-1 $171 forward single #
point $-1 -12.95400000000000773 -3.302000000000002267 -0.1270000000000006679 #
vertex $-1 $109 $172 #
straight-curve $-1 -13.33499999999999375 -6.096000000000001862 -0.1270000000000007789 1 0 0 I I #
face $-1 $173 $174 $2 $-1 $21 reversed single #
plane-surface $-1 -13.33499999999999375 -6.096000000000001862 0.2539999999999991709 0 -1 0 0 0 -1 forward_v I I I I #
coedge $-1 $89 $175 $176 $177 forward $5 $-1 #
coedge $-1 $178 $179 $89 $129 forward $180 $-1 #
edge $-1 $133 -0.1796051224213641717 $181 0.709394877578617411 $89 $182 reversed 7 unknown #
coedge $-1 $183 $90 $184 $185 reversed $132 $-1 #
coedge $-1 $90 $183 $141 $186 forward $132 $-1 #
loop $-1 $-1 $131 $187 #
vertex $-1 $91 $188 #
straight-curve $-1 -12.95399999999999352 -11.17599999999998062 26.03456340131709013 0 0 1 I I #
point $-1 -12.95399999999999352 -11.17600000000000016 26.03456340131708302 #
face $-1 $189 $190 $2 $-1 $191 reversed single #
loop $-1 $-1 $192 $96 #
plane-surface $-1 -13.33499999999997598 -21.02749113350293086 57.78456340131707236 -1.776356839400250465e-15 1 0 0 0 1 forward_v I I I I #
coedge $-1 $193 $194 $195 $196 forward $97 $-1 #
coedge $-1 $99 $98 $148 $197 forward $64 $-1 #
coedge $-1 $98 $99 $131 $186 reversed $64 $-1 #
coedge $-1 $194 $193 $98 $143 reversed $97 $-1 #
edge $-1 $198 0 $199 0.7619999998632742688 $142 $200 forward 7 unknown #
straight-curve $-1 -12.95399999999999352 -11.17599999999998062 26.03456340131709013 -1 -2.331176954593508557e-15 0 I I #
coedge $-1 $201 $101 $202 $203 reversed $20 $-1 #
coedge $-1 $179 $178 $101 $147 reversed $180 $-1 #
edge $-1 $151 11.75839487757860802 $204 12.64739487757860559 $101 $205 reversed 7 unknown #
coedge $-1 $206 $102 $140 $197 reversed $150 $-1 #
coedge $-1 $102 $206 $207 $208 forward $150 $-1 #
loop $-1 $-1 $149 $209 #
vertex $-1 $147 $210 #
straight-curve $-1 -13.71599999999999397 -11.17599999999998239 26.03456340131709013 0 0 1 I I #
point $-1 -13.71599999986326779 -11.17599999999998239 26.03456340131708657 #
coedge $-1 $108 $211 $165 $212 reversed $20 $-1 #
edge $-1 $123 -10.09649999999999892 $169 -7.30250000000000199 $108 $213 forward 7 unknown #
straight-curve $-1 -13.71599999992586127 -6.096000000000000973 165.8619999999999379 4.476419235288631171e-13 0 -1 I I #
coedge $-1 $214 $111 $215 $216 forward $5 $-1 #
coedge $-1 $217 $218 $111 $159 reversed $219 $-1 #
edge $-1 $163 12.50928170065853529 $220 13.27128170065853574 $111 $221 forward 7 unknown #
coedge $-1 $222 $112 $115 $166 forward $162 $-1 #
coedge $-1 $112 $222 $217 $223 reversed $162 $-1 #
loop $-1 $-1 $160 $224 #
vertex $-1 $159 $225 #
straight-curve $-1 -12.95400000000000418 -5.587999999999992085 0.6349999999999997868 -1.776356839400250465e-15 1 0 I I #
coedge $-1 $115 $114 $154 $212 forward $116 $-1 #
edge $-1 $117 -0.3809999999999860165 $226 0.3809999998519053577 $115 $227 forward 7 unknown #
face $-1 $121 $116 $2 $-1 $228 forward single #
point $-1 -12.95400000000000773 -3.302000000000002267 0.6349999999999997868 #
vertex $-1 $155 $229 #
straight-curve $-1 -13.33499999999999375 -3.302000000000002711 -0.1270000000000007789 -1 0 0 I I #
plane-surface $-1 -13.33499999999999375 -4.69900000000000162 -0.1270000000000007789 0 0 -1 0 1 0 forward_v I I I I #
point $-1 -13.71599999985155804 -6.096000000000000085 -0.1270000000000095497 #
face $-1 $230 $231 $2 $-1 $21 reversed single #
loop $-1 $-1 $232 $125 #
coedge $-1 $127 $233 $234 $235 forward $5 $-1 #
coedge $-1 $236 $237 $127 $177 reversed $238 $-1 #
edge $-1 $239 -63.10365085032926658 $181 -50.93197085032927163 $127 $240 forward 7 unknown #
coedge $-1 $146 $128 $237 $241 forward $180 $-1 #
coedge $-1 $128 $146 $242 $243 reversed $180 $-1 #
loop $-1 $-1 $178 $244 #
vertex $-1 $129 $245 #
straight-curve $-1 -12.95399999999999352 -11.35560512242136433 89.53456340131707236 -1.776356839400250465e-15 1 0 I I #
coedge $-1 $131 $130 $246 $247 reversed $132 $-1 #
coedge $-1 $242 $248 $130 $185 forward $249 $-1 #
edge $-1 $250 -0.4008860110815692934 $133 0.1796051224213641717 $130 $251 forward 7 unknown #
edge $-1 $198 -0.4008860110815692934 $92 0.1796051224213641717 $131 $252 forward 7 unknown #
face $-1 $253 $132 $2 $-1 $6 forward single #
point $-1 -12.95399999999999352 -11.17600000000000016 89.53456340131707236 #
face $-1 $244 $249 $2 $-1 $191 reversed single #
loop $-1 $-1 $254 $136 #
plane-surface $-1 -13.48378975515722544 -11.53521024484274804 89.53456340131707236 0 0 -1 1 0 0 forward_v I I I I #
coedge $-1 $255 $256 $257 $258 forward $137 $-1 #
coedge $-1 $142 $139 $259 $260 reversed $97 $-1 #
coedge $-1 $139 $142 $261 $262 forward $97 $-1 #
coedge $-1 $256 $255 $139 $196 reversed $137 $-1 #
edge $-1 $263 -0.4553948775786160752 $264 0.3066051222846759572 $139 $265 reversed 7 unknown #
edge $-1 $199 -12.33888601108155925 $104 -11.75839487757860802 $140 $266 reversed 7 unknown #
vertex $-1 $262 $267 #
vertex $-1 $143 $268 #
straight-curve $-1 -12.95399999999999352 -11.75649113350293362 26.03456340131708302 -1 0 0 I I #
coedge $-1 $269 $145 $270 $271 reversed $20 $-1 #
coedge $-1 $237 $236 $145 $203 forward $238 $-1 #
edge $-1 $272 89.61406744901213983 $204 101.7857474490121348 $202 $273 reversed 7 unknown #
vertex $-1 $241 $274 #
straight-curve $-1 -13.71599999989169305 0.5823948775786256249 89.53456340131707236 -0 1 0 I I #
coedge $-1 $149 $148 $275 $276 forward $150 $-1 #
coedge $-1 $248 $242 $149 $208 reversed $249 $-1 #
edge $-1 $277 -12.33888601108155925 $151 -11.75839487757860802 $207 $278 reversed 7 unknown #
face $-1 $279 $150 $2 $-1 $21 reversed single #
point $-1 -13.71599999989169305 -11.17599999999998239 89.53456340131707236 #
coedge $-1 $154 $280 $222 $281 reversed $20 $-1 #
edge $-1 $169 -165.9889999999999475 $226 -165.226999999999947 $154 $282 forward 7 unknown #
straight-curve $-1 -13.71599999985155804 4.000499999999998835 -0.1270000000000095497 -0 1 0 I I #
coedge $-1 $283 $157 $284 $285 forward $5 $-1 #
coedge $-1 $286 $287 $157 $216 reversed $288 $-1 #
edge $-1 $220 6.5404999999999891 $289 9.334499999999987807 $157 $290 forward 7 unknown #
coedge $-1 $291 $158 $161 $223 forward $219 $-1 #
coedge $-1 $158 $291 $286 $292 reversed $219 $-1 #
loop $-1 $-1 $217 $293 #
vertex $-1 $216 $294 #
straight-curve $-1 -12.95400000000001839 3.301999999999996493 13.14428170065853507 0 0 -1 I I #
coedge $-1 $161 $160 $211 $281 forward $162 $-1 #
edge $-1 $163 -0.380999999999973582 $295 0.3809999998519053577 $217 $296 reversed 7 unknown #
face $-1 $167 $162 $2 $-1 $297 forward single #
point $-1 -12.95400000000002017 3.301999999999996049 0.6349999999999997868 #
vertex $-1 $212 $298 #
straight-curve $-1 -13.33499999999999375 -3.302000000000002267 0.6349999999999991207 -1 0 0 I I #
plane-surface $-1 -13.33499999999999375 -3.302000000000002267 0.2539999999999991709 0 1 0 0 0 1 forward_v I I I I #
point $-1 -13.71599999985155804 -3.302000000000003155 -0.1270000000000095497 #
face $-1 $299 $300 $2 $-1 $6 forward single #
loop $-1 $-1 $301 $173 #
coedge $-1 $302 $303 $304 $305 forward $174 $-1 #
coedge $-1 $175 $306 $307 $308 forward $5 $-1 #
coedge $-1 $309 $310 $175 $235 reversed $311 $-1 #
edge $-1 $312 -48.09846957855209837 $239 -16.84839801921368263 $175 $313 forward 7 unknown #
coedge $-1 $202 $176 $310 $314 forward $238 $-1 #
coedge $-1 $176 $202 $178 $241 reversed $238 $-1 #
loop $-1 $-1 $176 $315 #
vertex $-1 $177 $316 #
straight-curve $-1 -12.95399999999999352 -12.06499999999998174 38.60259255098780073 0 0 -1 I I #
edge $-1 $181 -0.4553948775786160752 $204 0.3066051223130834558 $237 $317 reversed 7 unknown #
coedge $-1 $207 $184 $179 $243 forward $249 $-1 #
edge $-1 $133 4.555102339858857585e-29 $151 0.761999999891699531 $179 $318 forward 7 unknown #
face $-1 $315 $180 $2 $-1 $191 forward single #
point $-1 -12.95399999999999352 -12.06499999999998174 89.53456340131707236 #
coedge $-1 $319 $261 $183 $247 forward $320 $-1 #
edge $-1 $198 1.065814103640150279e-14 $250 63.5 $246 $321 forward 7 unknown #
coedge $-1 $184 $207 $254 $322 reversed $249 $-1 #
loop $-1 $-1 $242 $189 #
vertex $-1 $323 $324 #
straight-curve $-1 -12.95399999999999352 -11.35560512242136433 89.53456340131707236 -1.776356839400250465e-15 1 0 I I #
straight-curve $-1 -12.95399999999999352 -11.35560512242136433 26.03456340131708302 -1.776356839400250465e-15 1 0 I I #
face $-1 $-1 $320 $2 $-1 $6 forward single #
coedge $-1 $325 $326 $248 $322 forward $190 $-1 #
coedge $-1 $195 $192 $327 $328 reversed $137 $-1 #
coedge $-1 $192 $195 $329 $330 forward $137 $-1 #
coedge $-1 $326 $325 $192 $258 reversed $190 $-1 #
edge $-1 $331 -0.4553948775786160752 $332 0.3066051223131029957 $192 $333 forward 7 unknown #
coedge $-1 $327 $275 $193 $260 forward $334 $-1 #
edge $-1 $199 12.33888601108155925 $264 21.60988601108155649 $193 $335 forward 7 unknown #
coedge $-1 $246 $329 $194 $262 reversed $320 $-1 #
edge $-1 $198 0.4008860110815692934 $263 9.671886011081566537 $261 $336 reversed 7 unknown #
vertex $-1 $262 $337 #
vertex $-1 $260 $338 #
straight-curve $-1 -13.40939487757859183 -21.02749113350293086 26.03456340131708657 1 1.776356839400250465e-15 0 I I #
straight-curve $-1 -13.71599999986326779 0.5823948775786256249 26.03456340131708657 0 -1 0 I I #
point $-1 -12.95399999999999352 -11.75649113350293362 26.03456340131708302 #
point $-1 -13.71599999986326779 -11.75649113350293362 26.03456340131708657 #
coedge $-1 $339 $201 $340 $341 reversed $20 $-1 #
coedge $-1 $310 $309 $201 $271 forward $311 $-1 #
edge $-1 $342 40.92154896190751856 $272 72.1716205212459414 $270 $343 reversed 7 unknown #
vertex $-1 $203 $344 #
straight-curve $-1 -13.7159999999372566 -12.06499999999997996 191.3203108503292071 -4.476419235288631171e-13 0 1 I I #
point $-1 -13.71599999989169305 -12.06499999999997996 89.53456340131707236 #
coedge $-1 $259 $345 $206 $276 reversed $334 $-1 #
edge $-1 $199 1.421085471520200372e-14 $277 63.5 $275 $346 forward 7 unknown #
vertex $-1 $347 $348 #
straight-curve $-1 -13.71599999989169305 0.5823948775786256249 89.53456340131708657 0 -1 0 I I #
face $-1 $187 $334 $2 $-1 $21 reversed single #
coedge $-1 $211 $349 $291 $350 reversed $20 $-1 #
edge $-1 $226 -9.652000000000001023 $295 -3.048000000000001819 $211 $351 forward 7 unknown #
straight-curve $-1 -13.71599999992586127 -3.302000000000003155 165.8619999999999379 -4.476419235288631171e-13 0 1 I I #
coedge $-1 $352 $214 $353 $354 forward $5 $-1 #
coedge $-1 $355 $356 $214 $285 reversed $357 $-1 #
edge $-1 $289 -13.27128170065853574 $358 -12.50928170065853529 $214 $359 forward 7 unknown #
coedge $-1 $360 $215 $218 $292 forward $288 $-1 #
coedge $-1 $215 $360 $355 $361 reversed $288 $-1 #
loop $-1 $-1 $286 $362 #
vertex $-1 $285 $363 #
straight-curve $-1 -12.95400000000000773 -3.238499999999992163 -0.1270000000000006679 -1.776356839400250465e-15 1 0 I I #
coedge $-1 $218 $217 $280 $350 forward $219 $-1 #
edge $-1 $220 -0.3809999999999753584 $364 0.3809999998515642972 $218 $365 reversed 7 unknown #
face $-1 $224 $219 $2 $-1 $366 forward single #
point $-1 -12.95400000000001839 3.301999999999996493 -0.1270000000000006679 #
vertex $-1 $281 $367 #
straight-curve $-1 -13.33499999999999375 3.301999999999996049 0.6349999999999991207 1 0 0 I I #
plane-surface $-1 -13.33499999999999375 -3.552713678800500929e-15 0.6349999999999991207 0 0 -1 0 1 0 forward_v I I I I #
point $-1 -13.7159999998518991 -3.302000000000003155 0.6349999999999909051 #
face $-1 $209 $368 $2 $-1 $6 forward single #
loop $-1 $-1 $369 $230 #
coedge $-1 $370 $371 $303 $372 forward $231 $-1 #
coedge $-1 $373 $232 $374 $375 forward $174 $-1 #
coedge $-1 $232 $373 $301 $372 reversed $174 $-1 #
coedge $-1 $376 $377 $232 $305 reversed $378 $-1 #
edge $-1 $379 -9.302747536416900331 $380 -7.390067112510044112 $304 $381 forward 7 unknown #
coedge $-1 $233 $382 $383 $384 forward $5 $-1 #
coedge $-1 $385 $386 $233 $308 reversed $387 $-1 #
edge $-1 $388 -5.328404467642297836e-15 $312 0.8726646259971797548 $233 $389 forward 7 unknown #
coedge $-1 $270 $234 $386 $390 forward $311 $-1 #
coedge $-1 $234 $270 $236 $314 reversed $311 $-1 #
loop $-1 $-1 $309 $391 #
vertex $-1 $235 $392 #
straight-curve $-1 -12.95400000000001484 0.8416216780756222704 90.87630191149948189 -1.360768285818970873e-15 0.7660444431189882275 -0.6427876096865273725 I I #
edge $-1 $239 -0.3810000000000020037 $272 0.38099999989714739 $236 $393 reversed 7 unknown #
face $-1 $391 $238 $2 $-1 $394 forward single #
point $-1 -12.95399999999999174 -12.06499999999998174 101.7062434013170673 #
straight-curve $-1 -13.4093948775786096 -12.06499999999997996 89.53456340131707236 1 0 0 I I #
straight-curve $-1 -12.95399999999999352 -11.17599999999998062 89.53456340131707236 -1 -2.331176954593503035e-15 0 I I #
coedge $-1 $329 $246 $326 $323 forward $320 $-1 #
loop $-1 $-1 $246 $253 #
straight-curve $-1 -12.95399999999999174 -11.75649113350293362 26.03456340131707236 0 0 1 I I #
edge $-1 $250 1.776356839400250465e-15 $277 0.7619999998917013073 $254 $395 forward 7 unknown #
edge $-1 $250 0.4008860110815692934 $331 9.671886011081566537 $319 $396 reversed 7 unknown #
point $-1 -12.95399999999999352 -11.75649113350293362 89.53456340131707236 #
coedge $-1 $257 $254 $345 $347 forward $190 $-1 #
coedge $-1 $254 $257 $319 $323 reversed $190 $-1 #
coedge $-1 $345 $259 $255 $328 forward $334 $-1 #
edge $-1 $264 -168.5927182993413851 $332 -105.0927182993413993 $255 $397 reversed 7 unknown #
coedge $-1 $261 $319 $256 $330 reversed $320 $-1 #
edge $-1 $263 -15.87499999999998934 $331 47.625 $329 $398 forward 7 unknown #
vertex $-1 $330 $399 #
vertex $-1 $328 $400 #
straight-curve $-1 -13.40939487757859183 -21.02749113350293086 89.53456340131707236 -1 -1.776356839400250465e-15 -0 I I #
loop $-1 $-1 $327 $279 #
straight-curve $-1 -13.71599999986326779 0.5823948775786256249 26.03456340131708657 0 -1 0 I I #
straight-curve $-1 -12.95399999999999352 -11.35560512242136433 26.03456340131708302 -1.776356839400250465e-15 1 0 I I #
point $-1 -12.95399999999997576 -21.02749113350293086 26.03456340131708302 #
point $-1 -13.71599999986326779 -21.02749113350293086 26.03456340131708657 #
coedge $-1 $374 $269 $401 $402 reversed $20 $-1 #
coedge $-1 $386 $385 $269 $341 forward $387 $-1 #
edge $-1 $403 -5.328404467642297836e-15 $342 0.8726646259971797548 $340 $404 reversed 7 unknown #
vertex $-1 $271 $405 #
straight-curve $-1 -13.71599999991790853 -67.35166885119276969 148.0972668433718411 -2.877386820205971873e-13 -0.7660444431189882275 0.6427876096865273725 I I #
point $-1 -13.71599999989714114 -12.06499999999997996 101.7062434013170673 #
coedge $-1 $275 $327 $325 $347 reversed $334 $-1 #
straight-curve $-1 -13.7159999999999922 -11.75649113350293362 26.03456340131707236 0 0 1 I I #
edge $-1 $277 12.33888601108155925 $332 21.60988601108155649 $325 $406 forward 7 unknown #
point $-1 -13.71599999989169305 -11.75649113350293362 89.53456340131707236 #
coedge $-1 $280 $407 $360 $408 reversed $20 $-1 #
edge $-1 $295 165.226999999999947 $364 165.9889999999999475 $280 $409 forward 7 unknown #
straight-curve $-1 -13.7159999998518991 6.349999999999997868 0.6349999999999909051 -0 1 0 I I #
coedge $-1 $410 $283 $411 $412 forward $5 $-1 #
coedge $-1 $413 $414 $283 $354 reversed $415 $-1 #
edge $-1 $358 6.984999999999986109 $416 13.58899999999998975 $283 $417 forward 7 unknown #
coedge $-1 $418 $284 $287 $361 forward $357 $-1 #
coedge $-1 $284 $418 $413 $419 reversed $357 $-1 #
loop $-1 $-1 $355 $420 #
vertex $-1 $354 $421 #
straight-curve $-1 -12.95400000000002549 6.095999999999994756 13.14428170065853507 0 0 1 I I #
coedge $-1 $287 $286 $349 $408 forward $288 $-1 #
edge $-1 $289 -0.3809999999999700293 $422 0.3809999998515642972 $355 $423 forward 7 unknown #
face $-1 $293 $288 $2 $-1 $424 forward single #
point $-1 -12.95400000000002372 6.095999999999995644 -0.1270000000000006679 #
vertex $-1 $350 $425 #
straight-curve $-1 -13.33499999999999375 3.301999999999995605 -0.1270000000000007789 1 0 0 I I #
plane-surface $-1 -13.33499999999999375 3.301999999999996049 0.2539999999999991709 0 -1 0 0 0 -1 forward_v I I I I #
point $-1 -13.7159999998518991 3.301999999999996049 0.6349999999999909051 #
loop $-1 $-1 $426 $299 #
coedge $-1 $427 $428 $429 $430 forward $300 $-1 #
coedge $-1 $431 $301 $432 $433 forward $231 $-1 #
coedge $-1 $301 $431 $434 $435 reversed $231 $-1 #
edge $-1 $379 0 $436 201.3630762091277973 $301 $437 forward 7 unknown #
coedge $-1 $303 $302 $438 $439 reversed $174 $-1 #
coedge $-1 $440 $339 $302 $375 reversed $20 $-1 #
edge $-1 $380 0 $441 203.1853792447519709 $374 $442 forward 7 unknown #
coedge $-1 $443 $304 $444 $445 reversed $378 $-1 #
coedge $-1 $304 $443 $446 $447 forward $378 $-1 #
loop $-1 $-1 $377 $448 #
vertex $-1 $435 $449 #
vertex $-1 $450 $451 #
straight-curve $-1 -13.71600000000298358 -35.72768047786934886 338.1487769622871724 -4.264900846167751202e-13 0.3037608668376288179 0.952748306625654684 I I #
coedge $-1 $306 $452 $427 $453 forward $5 $-1 #
coedge $-1 $454 $455 $306 $384 reversed $456 $-1 #
edge $-1 $457 13.2188948775786308 $388 14.10789487757861949 $306 $458 reversed 7 unknown #
coedge $-1 $340 $307 $455 $459 forward $387 $-1 #
coedge $-1 $307 $340 $309 $390 reversed $387 $-1 #
loop $-1 $-1 $385 $460 #
vertex $-1 $308 $461 #
ellipse-curve $-1 -12.95399999999999352 -30.8609999999999971 127.9225237908721482 1 1.776356839400250465e-15 0 0 -8.000999999999997669 0 1 I I #
edge $-1 $312 -0.3810000000000446363 $342 0.3809999999061393083 $309 $462 reversed 7 unknown #
face $-1 $460 $311 $2 $-1 $463 forward single #
point $-1 -12.95399999999994911 -36.00394366510190025 121.7934022014771358 #
straight-curve $-1 -13.33499999999999375 -12.06499999999997996 101.7062434013170673 1 0 0 I I #
plane-surface $-1 -13.33499999999999375 -12.06499999999998174 51.17062170065852911 0 -1 0 0 0 -1 forward_v I I I I #
straight-curve $-1 -12.95399999999999174 -11.75649113350293362 89.53456340131707236 -1 0 0 I I #
straight-curve $-1 -12.95399999999999352 -11.35560512242136433 89.53456340131707236 -1.776356839400250465e-15 1 0 I I #
straight-curve $-1 -13.71599999993873809 -21.02749113350293086 194.6272817006584717 4.476419235288631171e-13 7.951717924627798999e-28 -1 I I #
straight-curve $-1 -12.95399999999997576 -21.02749113350293086 41.90956340131707236 0 -0 1 I I #
point $-1 -12.95399999999997576 -21.02749113350293086 89.53456340131707236 #
point $-1 -13.71599999989169483 -21.02749113350293086 89.53456340131707236 #
coedge $-1 $455 $454 $339 $402 forward $456 $-1 #
edge $-1 $441 25.15689487757861542 $403 26.04589487757861122 $339 $464 reversed 7 unknown #
vertex $-1 $341 $465 #
ellipse-curve $-1 -13.71599999999999397 -30.8609999999999971 127.9225237908721482 -1 -0 -4.476419235288631171e-13 0 -8.000999999999997669 0 1 I I #
point $-1 -13.71599999990613306 -36.00394366510190025 121.7934022014771358 #
straight-curve $-1 -13.71599999989169305 0.5823948775786256249 89.53456340131708657 0 -1 0 I I #
coedge $-1 $349 $466 $418 $467 reversed $20 $-1 #
edge $-1 $364 -5.397500000000000853 $422 -2.603500000000002146 $349 $468 forward 7 unknown #
straight-curve $-1 -13.71599999992586127 3.301999999999996049 165.8619999999999379 4.476419235288631171e-13 0 -1 I I #
coedge $-1 $452 $352 $469 $470 forward $5 $-1 #
coedge $-1 $471 $472 $352 $412 reversed $473 $-1 #
edge $-1 $416 -178.2968868230799444 $474 152.538113176920433 $352 $475 forward 7 unknown #
coedge $-1 $476 $353 $356 $419 forward $415 $-1 #
coedge $-1 $353 $476 $471 $477 reversed $415 $-1 #
loop $-1 $-1 $413 $478 #
vertex $-1 $412 $479 #
straight-curve $-1 -12.95400000000001128 -0.8889999999999910196 0.6349999999999997868 -1.776356839400250465e-15 1 0 I I #
coedge $-1 $356 $355 $407 $467 forward $357 $-1 #
edge $-1 $358 -0.380999999999968253 $480 0.3809999998519053577 $356 $481 forward 7 unknown #
face $-1 $362 $357 $2 $-1 $482 forward single #
point $-1 -12.95400000000002549 6.095999999999994756 0.6349999999999997868 #
vertex $-1 $408 $483 #
straight-curve $-1 -13.33499999999999375 6.095999999999994756 -0.1270000000000007789 -1 0 0 I I #
plane-surface $-1 -13.33499999999999375 4.698999999999995403 -0.1270000000000007789 0 0 -1 0 1 0 forward_v I I I I #
point $-1 -13.71599999985155804 3.301999999999996049 -0.1270000000000095497 #
coedge $-1 $484 $485 $486 $487 forward $368 $-1 #
coedge $-1 $488 $369 $382 $453 reversed $300 $-1 #
coedge $-1 $369 $488 $489 $490 forward $300 $-1 #
coedge $-1 $491 $492 $369 $430 reversed $493 $-1 #
edge $-1 $494 -13.7993860110815838 $457 -13.2188948775786308 $369 $495 forward 7 unknown #
coedge $-1 $371 $370 $496 $497 reversed $231 $-1 #
coedge $-1 $498 $499 $370 $433 reversed $500 $-1 #
edge $-1 $436 25.73738601108156843 $501 35.00838601108156212 $432 $502 forward 7 unknown #
coedge $-1 $503 $444 $371 $435 forward $504 $-1 #
edge $-1 $379 23.30899556675147721 $505 32.5799955667514709 $434 $506 reversed 7 unknown #
vertex $-1 $507 $508 #
straight-curve $-1 -13.7159999999999922 -38.55349113350295198 329.2855999999999881 0 0 -1 I I #
coedge $-1 $492 $491 $373 $439 forward $493 $-1 #
edge $-1 $436 -25.73738601108156843 $441 -25.15689487757861542 $438 $509 reversed 7 unknown #
coedge $-1 $510 $374 $511 $450 reversed $20 $-1 #
vertex $-1 $375 $512 #
straight-curve $-1 -13.71599999999999397 -37.97249366995364284 331.107903034993285 4.484399815522153087e-13 -2.491961027108294222e-06 -0.9999999999968950393 I I #
coedge $-1 $377 $376 $488 $513 forward $378 $-1 #
coedge $-1 $434 $514 $376 $445 forward $504 $-1 #
edge $-1 $515 -0.3810000000000606235 $379 0.3809999999990107966 $444 $516 reversed 7 unknown #
coedge $-1 $517 $511 $377 $447 reversed $518 $-1 #
edge $-1 $519 -0.3810000000000020037 $380 0.3810000000000002274 $377 $520 forward 7 unknown #
face $-1 $521 $378 $2 $-1 $522 forward single #
point $-1 -13.71599999999901698 -38.55349113350295198 329.2855999999999881 #
edge $-1 $523 0.333035931650002337 $380 0.662595941793343024 $440 $524 forward 7 unknown #
point $-1 -13.71599999999999397 -37.97249366995364284 331.107903034993285 #
coedge $-1 $382 $410 $517 $525 forward $5 $-1 #
edge $-1 $519 0 $457 203.1853792447520277 $382 $526 forward 7 unknown #
coedge $-1 $401 $383 $492 $527 forward $456 $-1 #
coedge $-1 $383 $401 $385 $459 reversed $456 $-1 #
loop $-1 $-1 $454 $528 #
vertex $-1 $384 $529 #
straight-curve $-1 -12.95399999999996865 -24.75410512242137528 127.9225237908721908 -1.776356839400250465e-15 1 0 I I #
edge $-1 $388 -0.3810000000000002274 $403 0.3810000000000002274 $385 $530 reversed 7 unknown #
face $-1 $528 $387 $2 $-1 $531 forward single #
point $-1 -12.95399999999999352 -38.86199999999999477 127.9225237908721908 #
straight-curve $-1 -13.33499999999999375 -36.00394366510190025 121.7934022014771358 1 0 0 I I #
plane-surface $-1 -13.33499999999999375 -24.03447183255094544 111.7498228013971016 0 -0.6427876096865273725 -0.7660444431189882275 0 0.7660444431189881165 -0.6427876096865272615 forward_v I I I I #
straight-curve $-1 -13.71599999990887753 -12.81610512242138533 127.9225237908721908 -0 1 0 I I #
point $-1 -13.71599999999999397 -38.86199999999999477 127.9225237908721908 #
coedge $-1 $407 $532 $476 $533 reversed $20 $-1 #
edge $-1 $422 -165.9889999999999475 $480 -165.226999999999947 $407 $534 forward 7 unknown #
straight-curve $-1 -13.71599999985155804 8.699499999999996902 -0.1270000000000095497 -0 1 0 I I #
coedge $-1 $535 $536 $410 $470 reversed $537 $-1 #
edge $-1 $474 0 $538 50.0062282118677075 $410 $539 forward 7 unknown #
coedge $-1 $540 $411 $414 $477 forward $473 $-1 #
coedge $-1 $411 $540 $541 $542 forward $473 $-1 #
loop $-1 $-1 $471 $543 #
vertex $-1 $470 $544 #
straight-curve $-1 -12.95400000000003615 12.69999999999999929 178.9318868230799353 0 0 1 I I #
coedge $-1 $414 $413 $466 $533 forward $415 $-1 #
edge $-1 $416 -0.4553948775786160752 $545 0.3066051222732468773 $414 $546 reversed 7 unknown #
face $-1 $420 $415 $2 $-1 $547 forward single #
point $-1 -12.95400000000003615 12.69999999999999929 0.6349999999999997868 #
vertex $-1 $467 $548 #
straight-curve $-1 -13.33499999999999375 6.095999999999994756 0.6349999999999991207 -1 0 0 I I #
plane-surface $-1 -13.33499999999999375 6.095999999999994756 0.2539999999999991709 0 1 0 0 0 1 forward_v I I I I #
point $-1 -13.71599999985155804 6.095999999999994756 -0.1270000000000095497 #
coedge $-1 $489 $426 $549 $550 reversed $368 $-1 #
coedge $-1 $426 $489 $514 $551 forward $368 $-1 #
coedge $-1 $552 $553 $426 $487 reversed $554 $-1 #
edge $-1 $555 -201.9662873516234072 $556 -0.6032111424956099199 $426 $557 forward 7 unknown #
coedge $-1 $428 $427 $443 $513 reversed $300 $-1 #
coedge $-1 $485 $484 $428 $490 reversed $368 $-1 #
edge $-1 $515 0 $494 201.3630762091277973 $489 $558 forward 7 unknown #
coedge $-1 $438 $429 $498 $507 forward $493 $-1 #
coedge $-1 $429 $438 $454 $527 reversed $493 $-1 #
loop $-1 $-1 $491 $559 #
vertex $-1 $490 $560 #
straight-curve $-1 -12.95399999999996865 -24.75410512242137528 127.9225237908721908 -1.776356839400250465e-15 1 0 I I #
coedge $-1 $553 $552 $431 $497 forward $554 $-1 #
edge $-1 $505 -49.24856905228199366 $501 152.1145071568457183 $496 $561 reversed 7 unknown #
coedge $-1 $549 $432 $491 $507 reversed $500 $-1 #
coedge $-1 $432 $549 $553 $562 forward $500 $-1 #
loop $-1 $-1 $499 $563 #
vertex $-1 $433 $564 #
straight-curve $-1 -13.71599999990887753 -12.81610512242138533 127.922523790872205 0 -1 0 I I #
coedge $-1 $514 $434 $552 $565 reversed $504 $-1 #
loop $-1 $-1 $444 $566 #
vertex $-1 $565 $567 #
straight-curve $-1 -13.71599999999901698 -15.24449556675147655 329.2855999999999312 0 1 0 I I #
edge $-1 $494 -4.973799150320701301e-14 $436 0.761999999908884007 $498 $568 forward 7 unknown #
point $-1 -13.71599999990887753 -38.55349113350295198 127.9225237908721908 #
straight-curve $-1 -13.71599999990887753 -12.81610512242138533 127.922523790872205 0 -1 0 I I #
coedge $-1 $532 $440 $569 $570 reversed $20 $-1 #
coedge $-1 $446 $571 $440 $450 forward $518 $-1 #
point $-1 -13.71599999990887753 -37.97299999999999898 127.9225237908721908 #
edge $-1 $515 139.8250971933220228 $519 141.7377776172289714 $488 $572 reversed 7 unknown #
coedge $-1 $444 $503 $485 $551 reversed $504 $-1 #
vertex $-1 $551 $573 #
straight-curve $-1 -13.33500000000000618 -38.55349113350295198 329.2855999999999881 1 -1.165588477296754081e-15 0 I I #
coedge $-1 $571 $446 $452 $525 reversed $518 $-1 #
loop $-1 $-1 $571 $521 #
vertex $-1 $453 $574 #
straight-curve $-1 -13.33499999999999375 -37.97249366995364284 331.107903034993285 -1 -0 -0 I I #
face $-1 $575 $518 $2 $-1 $576 forward single #
plane-surface $-1 -13.33499999999999375 -38.26324556675147903 330.1959574634446994 -1.110512447966857672e-15 -0.952748306625654573 0.3037608668376287624 0 -0.3037608668376288179 -0.952748306625654684 forward_v I I I I #
vertex $-1 $570 $577 #
ellipse-curve $-1 -13.71599999999999397 -36.55060000000000286 329.2855999999999881 1 0 4.476419235288631171e-13 0 0 2.311399999999999899 1 I I #
edge $-1 $538 0.3330359316501658173 $519 0.6625959417932963946 $452 $578 forward 7 unknown #
straight-curve $-1 -12.95399999999999174 -37.97249366995355047 331.1079030349933419 2.273061083237336853e-16 -2.491961027597875878e-06 -0.9999999999968950393 I I #
edge $-1 $457 -4.796163466380676255e-14 $441 0.761999999908884007 $454 $579 forward 7 unknown #
face $-1 $559 $456 $2 $-1 $580 reversed single #
point $-1 -12.95399999999994556 -37.97300000000000608 127.9225237908721908 #
straight-curve $-1 -13.33499999999999375 -38.86199999999999477 127.9225237908721908 1 0 0 I I #
cone-surface $-1 -13.33499999999999375 -30.8609999999999971 127.9225237908721482 1 0 0 0 -8.000999999999997669 0 1 I I 0 1 8.000999999999997669 forward I I I I #
coedge $-1 $466 $510 $540 $581 reversed $20 $-1 #
edge $-1 $480 -4.953000000000004732 $545 1.650999999999999801 $466 $582 forward 7 unknown #
straight-curve $-1 -13.71599999992586127 6.095999999999994756 165.8619999999999379 -4.476419235288631171e-13 0 1 I I #
coedge $-1 $583 $469 $584 $585 reversed $537 $-1 #
coedge $-1 $469 $583 $586 $587 forward $537 $-1 #
loop $-1 $-1 $536 $588 #
vertex $-1 $525 $589 #
straight-curve $-1 -12.95400000000003615 12.69999999999999929 331.4700000000003683 8.880677982121221478e-16 -0.9999999999999994449 -3.384752790081765791e-08 I I #
coedge $-1 $472 $471 $532 $581 forward $473 $-1 #
coedge $-1 $590 $584 $472 $542 reversed $591 $-1 #
edge $-1 $592 -1.776356839400250465e-15 $474 0.7619999999999578222 $472 $593 forward 7 unknown #
face $-1 $478 $473 $2 $-1 $594 forward single #
point $-1 -12.95400000000003615 12.69999999999999929 331.4700000000003683 #
vertex $-1 $533 $595 #
straight-curve $-1 -13.40939487757865223 12.69999999999999929 0.6349999999999909051 1 -0 0 I I #
plane-surface $-1 -13.33499999999999375 9.397999999999997911 0.6349999999999991207 0 0 -1 0 1 0 forward_v I I I I #
point $-1 -13.7159999998518991 6.095999999999994756 0.6349999999999909051 #
coedge $-1 $499 $498 $484 $550 forward $500 $-1 #
edge $-1 $494 13.7993860110815838 $556 23.07038601108157039 $484 $596 reversed 7 unknown #
edge $-1 $515 11.37099556675148548 $555 20.64199556675147917 $485 $597 forward 7 unknown #
coedge $-1 $496 $486 $503 $565 forward $554 $-1 #
coedge $-1 $486 $496 $499 $562 reversed $554 $-1 #
loop $-1 $-1 $552 $598 #
vertex $-1 $551 $599 #
vertex $-1 $550 $600 #
straight-curve $-1 -12.95399999999992957 -47.82449113350294567 127.3193126483765809 0 -0 -1 I I #
straight-curve $-1 -12.95399999999999174 -38.55349113350295909 329.2855999999999881 0 0 -1 I I #
face $-1 $563 $493 $2 $-1 $580 forward single #
point $-1 -12.95399999999994378 -38.55349113350295909 127.9225237908721908 #
straight-curve $-1 -13.71599999997697061 -47.82449113350294567 280.0370309477179376 -4.476419235288631171e-13 2.683704799561882162e-27 1 I I #
edge $-1 $556 -0.4553948775787386438 $501 0.3066051223302093121 $499 $601 forward 7 unknown #
face $-1 $598 $500 $2 $-1 $580 forward single #
point $-1 -13.71599999990887753 -47.82449113350294567 127.922523790872205 #
edge $-1 $555 -0.3810000000001210196 $505 0.3809999999989663877 $503 $602 reversed 7 unknown #
face $-1 $448 $504 $2 $-1 $603 forward single #
point $-1 -13.71599999999901698 -47.82449113350294567 329.2855999999999312 #
straight-curve $-1 -12.95399999999999352 -38.55349113350295909 127.9225237908721908 -1 0 0 I I #
coedge $-1 $604 $605 $510 $570 forward $606 $-1 #
edge $-1 $592 0 $523 50.00622821186736644 $510 $607 forward 7 unknown #
coedge $-1 $511 $517 $608 $609 reversed $518 $-1 #
straight-curve $-1 -12.95399999999986917 -81.0268838626021477 196.067475425294873 5.395876933491706813e-16 -0.3037608668376288179 -0.952748306625654684 I I #
point $-1 -12.95399999999994556 -38.55349113350295198 329.2855999999999881 #
point $-1 -12.95399999999999174 -37.97249366995355047 331.1079030349933419 #
face $-1 $588 $610 $2 $-1 $611 forward single #
cone-surface $-1 -13.33499999999999375 -36.55060000000000286 329.2855999999999881 1 0 0 0 0 2.311399999999999899 1 I I 0 1 2.311399999999999899 forward I I I I #
point $-1 -13.71599999999999397 -37.30622821186733518 331.4699983074133343 #
ellipse-curve $-1 -12.95399999999999352 -36.55060000000000286 329.2855999999999881 1 1.776356839400250465e-15 0 0 0 2.311399999999999899 1 I I #
straight-curve $-1 -12.95399999999999352 -37.97300000000000608 127.9225237908721908 -1 9.324707818374056318e-15 0 I I #
plane-surface $-1 -13.483789755157229 -38.33221024484276995 127.9225237908721908 0 0 -1 1 -1.998151675365854392e-15 0 forward_v I I I I #
edge $-1 $545 -331.0146051224213579 $592 -0.1796051224213215392 $532 $612 forward 7 unknown #
straight-curve $-1 -13.7159999998518991 11.04899999999999949 0.6349999999999909051 -0 1 0 I I #
coedge $-1 $536 $535 $613 $614 forward $537 $-1 #
coedge $-1 $541 $615 $535 $585 forward $591 $-1 #
edge $-1 $616 -153.1186043104232226 $474 -152.538113176920433 $584 $617 forward 7 unknown #
coedge $-1 $618 $608 $536 $587 reversed $610 $-1 #
edge $-1 $619 -83.39101848947350959 $538 -82.43815652900268276 $586 $620 reversed 7 unknown #
face $-1 $621 $537 $2 $-1 $6 forward single #
point $-1 -12.95399999999999174 -37.30622821186767624 331.4699983074131637 #
coedge $-1 $615 $541 $605 $622 reversed $591 $-1 #
loop $-1 $-1 $615 $621 #
vertex $-1 $581 $623 #
straight-curve $-1 -13.71599999999999397 12.69999999999999929 331.4700000000000273 1 0 4.475859752819473826e-13 I I #
plane-surface $-1 -13.48378975515730893 12.69999999999999929 331.829210244842784 0 1 0 1 0 0 forward_v I I I I #
point $-1 -13.7159999998518991 12.69999999999999929 0.6349999999999909051 #
straight-curve $-1 -12.95399999999996865 -24.75410512242137528 127.9225237908721908 -1.776356839400250465e-15 1 0 I I #
straight-curve $-1 -12.9539999999999651 -27.1824955667514665 329.2855999999999881 1.776356839400250465e-15 -1 0 I I #
face $-1 $566 $554 $2 $-1 $624 forward single #
point $-1 -12.95399999999992957 -47.82449113350294567 329.2855999999999881 #
point $-1 -12.95399999999992957 -47.82449113350294567 127.9225237908721908 #
straight-curve $-1 -13.40939487757866821 -47.82449113350294567 127.922523790872205 -1 5.995204332975845318e-15 0 I I #
straight-curve $-1 -13.33500000000005059 -47.82449113350294567 329.2856000000000449 1 -5.995204332975845318e-15 0 I I #
plane-surface $-1 -13.33500000000002217 -43.18899113350295238 329.2855999999999881 0 0 1 -5.995204332975845318e-15 -1 0 forward_v I I I I #
coedge $-1 $625 $569 $626 $627 reversed $606 $-1 #
coedge $-1 $569 $625 $590 $622 forward $606 $-1 #
loop $-1 $-1 $605 $628 #
straight-curve $-1 -13.71599999999999575 12.69999999999999929 331.4700000000000273 3.55227119284851275e-17 -0.9999999999999994449 -3.384751767027685273e-08 I I #
coedge $-1 $586 $626 $571 $609 forward $610 $-1 #
edge $-1 $523 -0.3810000000000002274 $538 0.3810000000000020037 $571 $629 forward 7 unknown #
loop $-1 $-1 $608 $575 #
plane-surface $-1 -13.33500000000011987 -36.92841300431260265 331.7602455667515642 -3.549397543294629295e-13 -0.6092097808196912379 0.7930091064758486574 1 -0 4.475859752819531381e-13 forward_v I I I I #
straight-curve $-1 -13.71600000000007569 12.69999999999999929 331.6496051224213488 -4.476419235288631171e-13 0 1 I I #
coedge $-1 $630 $631 $583 $614 reversed $632 $-1 #
edge $-1 $616 0 $619 49.25060000000000571 $613 $633 forward 7 unknown #
coedge $-1 $584 $590 $634 $635 forward $591 $-1 #
vertex $-1 $635 $636 #
straight-curve $-1 -12.95400000000003615 12.69999999999999929 178.9318868230799353 0 0 -1 I I #
coedge $-1 $626 $586 $637 $638 reversed $610 $-1 #
vertex $-1 $639 $640 #
straight-curve $-1 -12.9539999999998301 -102.6804370604483552 281.2478670372001943 -1.408667149995055214e-15 0.7930091064758486574 0.6092097808196912379 I I #
face $-1 $641 $591 $2 $-1 $594 forward single #
edge $-1 $642 -0.4008860110814680411 $592 0.1796051224213215392 $605 $643 reversed 7 unknown #
point $-1 -13.71599999999999575 12.69999999999999929 331.4700000000000273 #
plane-surface $-1 -13.33500000000005059 -47.82449113350294567 228.6040618954360752 -5.995204332975845318e-15 -1 0 0 0 -1 forward_v I I I I #
coedge $-1 $605 $604 $644 $645 reversed $606 $-1 #
coedge $-1 $608 $618 $604 $627 forward $610 $-1 #
edge $-1 $646 19.11305191606047771 $523 20.06591387653071124 $604 $647 forward 7 unknown #
face $-1 $543 $606 $2 $-1 $21 reversed single #
straight-curve $-1 -13.33499999999999375 -37.30622821186769045 331.4699983074132206 1 0 0 I I #
coedge $-1 $648 $613 $649 $650 reversed $632 $-1 #
coedge $-1 $613 $648 $651 $639 forward $632 $-1 #
loop $-1 $-1 $648 $652 #
straight-curve $-1 -12.95400000000029195 12.69999999999999929 332.0504911335031579 0 -1 0 I I #
coedge $-1 $653 $649 $615 $635 reversed $654 $-1 #
edge $-1 $642 6.572520305780926719e-14 $616 0.7620000000002846718 $634 $655 forward 7 unknown #
point $-1 -12.95400000000003615 12.69999999999999929 332.0504911335031579 #
coedge $-1 $651 $656 $618 $638 forward $657 $-1 #
edge $-1 $646 -0.3809999999999522657 $619 0.381000000000351946 $637 $658 reversed 7 unknown #
edge $-1 $659 -159.9612138660932033 $619 -150.6902138660931314 $651 $660 reversed 7 unknown #
point $-1 -12.95399999999994911 -36.55060000000000286 332.0504911335031579 #
face $-1 $661 $654 $2 $-1 $594 forward single #
vertex $-1 $662 $663 #
straight-curve $-1 -13.71600000000007569 12.69999999999999929 331.6496051224213488 -4.476419235288631171e-13 0 1 I I #
coedge $-1 $664 $665 $625 $645 forward $666 $-1 #
edge $-1 $642 0 $646 49.25060000000000571 $644 $667 forward 7 unknown #
vertex $-1 $668 $669 #
straight-curve $-1 -13.71600000000546693 -21.39377577801836239 343.6943493020813776 2.727078381187236967e-13 -0.7930091064758486574 -0.6092097808196912379 I I #
coedge $-1 $631 $630 $670 $671 reversed $632 $-1 #
coedge $-1 $634 $672 $630 $650 forward $654 $-1 #
edge $-1 $673 -162.3896043104232376 $616 -153.1186043104232226 $649 $674 forward 7 unknown #
coedge $-1 $675 $637 $631 $639 reversed $657 $-1 #
face $-1 $676 $632 $2 $-1 $6 forward single #
coedge $-1 $672 $634 $665 $662 reversed $654 $-1 #
loop $-1 $-1 $672 $641 #
straight-curve $-1 -13.71600000000032082 12.69999999999999929 332.0504911335028169 1 0 4.475859752819525828e-13 I I #
coedge $-1 $637 $675 $664 $668 forward $657 $-1 #
loop $-1 $-1 $637 $677 #
straight-curve $-1 -13.33500000000030106 -36.55060000000000286 332.0504911335029874 -1 -0 -4.475859752819531381e-13 I I #
vertex $-1 $671 $678 #
straight-curve $-1 -12.95399999999994911 -36.55060000000000286 181.3602772674100265 -0 0 1 I I #
face $-1 $677 $679 $2 $-1 $680 reversed single #
edge $-1 $681 -9.671886011081483048 $642 -0.4008860110814680411 $665 $682 reversed 7 unknown #
point $-1 -13.7160000000002551 12.69999999999999929 332.0504911335028169 #
coedge $-1 $683 $644 $656 $668 reversed $666 $-1 #
coedge $-1 $644 $683 $653 $662 forward $666 $-1 #
loop $-1 $-1 $644 $676 #
straight-curve $-1 -13.7160000000002924 12.69999999999999929 332.0504911335028169 0 -1 0 I I #
edge $-1 $684 -7.243495566751448678 $646 2.027504433248566329 $664 $685 forward 7 unknown #
point $-1 -13.71600000000025332 -36.55060000000000286 332.0504911335028169 #
coedge $-1 $686 $687 $648 $671 forward $679 $-1 #
edge $-1 $659 -24.99995000000001255 $673 24.25064999999999316 $670 $688 reversed 7 unknown #
coedge $-1 $649 $653 $686 $689 forward $654 $-1 #
vertex $-1 $650 $690 #
straight-curve $-1 -12.95400000000003615 12.69999999999999929 178.9318868230799353 0 0 -1 I I #
coedge $-1 $656 $651 $687 $691 reversed $657 $-1 #
face $-1 $628 $666 $2 $-1 $21 reversed single #
face $-1 $652 $657 $2 $-1 $692 forward single #
point $-1 -12.95399999999994911 -36.55060000000000286 341.3214911335032298 #
loop $-1 $-1 $687 $661 #
plane-surface $-1 -13.33500000000447017 -11.92530000000000356 341.3214911335030024 4.476419235288631171e-13 0 -1 0 -1 0 forward_v I I I I #
vertex $-1 $662 $693 #
straight-curve $-1 -13.71600000000007569 12.69999999999999929 331.6496051224213488 -4.476419235288631171e-13 0 1 I I #
coedge $-1 $665 $664 $694 $695 forward $666 $-1 #
vertex $-1 $695 $696 #
straight-curve $-1 -13.71600000000116104 -36.55060000000000286 334.0779955667513832 4.476419235288631171e-13 0 -1 I I #
coedge $-1 $694 $670 $672 $689 reversed $679 $-1 #
coedge $-1 $670 $694 $675 $691 forward $679 $-1 #
straight-curve $-1 -12.95399999999999352 -11.55064999999999209 341.3214911335031729 1.776356839400250465e-15 -1 7.951717924627798999e-28 I I #
edge $-1 $681 -0.3066051224213879323 $673 0.4553948775829788076 $672 $697 reversed 7 unknown #
point $-1 -12.95400000000003615 12.69999999999999929 341.3214911335031729 #
edge $-1 $684 -0.380999999999918515 $659 0.3810000000045352664 $687 $698 reversed 7 unknown #
plane-surface $-1 -13.3350000000024238 -36.55060000000000286 336.6859911335029665 0 -1 0 -4.476419235288631171e-13 0 1 forward_v I I I I #
point $-1 -13.71600000000440289 12.69999999999999929 341.3214911335028319 #
coedge $-1 $687 $686 $683 $695 reversed $679 $-1 #
edge $-1 $684 -36.93795000000000073 $681 12.31265000000000143 $683 $699 forward 7 unknown #
point $-1 -13.71600000000440289 -36.55060000000000286 341.3214911335028319 #
straight-curve $-1 -13.40939487758301496 12.69999999999999929 341.3214911335029456 -1 0 -4.476419235288631171e-13 I I #
straight-curve $-1 -13.33500000000448438 -36.55060000000000286 341.3214911335030592 -1 -0 -4.476419235288631171e-13 I I #
straight-curve $-1 -13.71600000000440289 0.3873499999999978627 341.3214911335028319 -0 1 0 I I #
End-of-ACIS-data 