600 0 1 0           
104 GICL Pro/E ACIS Translator - Source: f:/data5/repository/PTC/V20/NC_Training_Rel20/DXF/part_30.prt - 6 0 13 ACIS 6.0.3 NT 24 Thu Apr 04 13:13:47 2002 
1 9.9999999999999995e-007 1e-010 
body $-1 $1 $-1 $-1 #
lump $-1 $-1 $2 $0 #
shell $-1 $-1 $-1 $3 $-1 $1 #
face $-1 $4 $5 $2 $-1 $6 reversed single #
face $-1 $7 $8 $2 $-1 $9 forward single #
loop $-1 $10 $11 $3 #
plane-surface $-1 0 5.0799999999999992 0 0 -1 0 1 0 0 forward_v I I I I #
face $-1 $12 $13 $2 $-1 $14 forward single #
loop $-1 $-1 $15 $4 #
plane-surface $-1 0 2.5399999999999996 37.197898798981662 -1 0 0 0 0 1 forward_v I I I I #
loop $-1 $-1 $16 $3 #
coedge $-1 $17 $18 $19 $20 forward $5 $-1 #
face $-1 $21 $22 $2 $-1 $23 forward single #
loop $-1 $-1 $24 $7 #
cone-surface $-1 35.356800000000057 2.5399999999999996 29.146098798981619 0 1 0 -20.015200000000046 0 -29.146098798981615 1 I I 0 1 35.356799999999993 forward I I I I #
coedge $-1 $25 $19 $26 $27 forward $8 $-1 #
coedge $-1 $28 $29 $30 $31 forward $10 $-1 #
coedge $-1 $32 $11 $33 $34 forward $5 $-1 #
coedge $-1 $11 $35 $36 $37 forward $5 $-1 #
coedge $-1 $15 $38 $11 $20 reversed $8 $-1 #
edge $-1 $39 0 $40 16.103599356491948 $11 $41 forward 7 unknown #
face $-1 $42 $43 $2 $-1 $44 forward single #
loop $-1 $-1 $45 $12 #
plane-surface $-1 38.099999999999994 2.5399999999999996 0 0 0 -1 1 0 0 forward_v I I I I #
coedge $-1 $46 $36 $47 $48 forward $13 $-1 #
coedge $-1 $38 $15 $49 $50 forward $8 $-1 #
coedge $-1 $36 $46 $15 $27 reversed $13 $-1 #
edge $-1 $39 0 $51 5.0799999999999992 $26 $52 forward 7 unknown #
coedge $-1 $53 $16 $54 $55 reversed $10 $-1 #
coedge $-1 $16 $53 $56 $57 forward $10 $-1 #
coedge $-1 $58 $59 $16 $31 reversed $60 $-1 #
edge $-1 $61 0 $62 17.708289086033197 $16 $63 forward 7 unknown #
coedge $-1 $64 $17 $65 $66 forward $5 $-1 #
coedge $-1 $67 $68 $17 $34 reversed $69 $-1 #
edge $-1 $40 0 $70 1.0662017443483272 $17 $71 forward 7 unknown #
coedge $-1 $18 $72 $45 $73 reversed $5 $-1 #
coedge $-1 $24 $26 $18 $37 reversed $13 $-1 #
edge $-1 $74 0 $39 0.96903904789475559 $18 $75 forward 7 unknown #
coedge $-1 $19 $25 $67 $76 reversed $8 $-1 #
vertex $-1 $37 $77 #
vertex $-1 $34 $78 #
straight-curve $-1 0 5.0799999999999992 29.146099156210283 0 0 1 I I #
face $-1 $79 $80 $2 $-1 $81 forward single #
loop $-1 $-1 $82 $21 #
plane-surface $-1 53.340000000000003 2.5399999999999996 12.784493349501187 0.48810608796649785 0 -0.87278430719739786 -0.87278430719739786 0 -0.48810608796649785 forward_v I I I I #
coedge $-1 $83 $47 $35 $73 forward $22 $-1 #
coedge $-1 $26 $24 $84 $85 forward $13 $-1 #
coedge $-1 $45 $86 $24 $48 reversed $22 $-1 #
edge $-1 $74 0 $87 5.0799999999999992 $24 $88 forward 7 unknown #
coedge $-1 $84 $89 $25 $50 reversed $90 $-1 #
edge $-1 $51 0 $91 16.103599642771378 $25 $92 forward 7 unknown #
vertex $-1 $27 $93 #
straight-curve $-1 0 5.0799999999999992 29.146099156210276 0 -1 0 I I #
coedge $-1 $29 $28 $94 $95 forward $10 $-1 #
coedge $-1 $96 $97 $28 $55 forward $98 $-1 #
edge $-1 $99 0 $62 1.1682035001626629 $28 $100 forward 7 unknown #
coedge $-1 $101 $102 $29 $57 reversed $103 $-1 #
edge $-1 $104 0 $61 35.559999999999995 $29 $105 forward 7 unknown #
coedge $-1 $106 $30 $102 $107 forward $60 $-1 #
coedge $-1 $30 $106 $96 $108 reversed $60 $-1 #
loop $-1 $-1 $58 $109 #
vertex $-1 $57 $110 #
vertex $-1 $55 $111 #
straight-curve $-1 35.483799999999988 5.0799999999999992 55.930799999999991 -0.87883008569878718 0 0.47713486612347078 I I #
coedge $-1 $112 $32 $113 $114 forward $5 $-1 #
coedge $-1 $115 $116 $32 $66 reversed $117 $-1 #
edge $-1 $70 3.5527136788005009e-014 $118 12.216536766302902 $32 $119 forward 7 unknown #
coedge $-1 $120 $33 $38 $76 forward $69 $-1 #
coedge $-1 $33 $120 $115 $121 reversed $69 $-1 #
loop $-1 $-1 $67 $122 #
vertex $-1 $66 $123 #
ellipse-curve $-1 35.356799999999993 5.0799999999999992 45.249698798981655 0 1 0 -35.356799999999993 0 -2.8627942327830169e-007 1 I I #
coedge $-1 $35 $112 $124 $125 forward $5 $-1 #
edge $-1 $74 1.7763568394002505e-015 $126 15.138400000000008 $35 $127 forward 7 unknown #
vertex $-1 $37 $128 #
ellipse-curve $-1 35.356800000000014 5.0799999999999992 29.146098798981676 0 1 0 -20.015200000000007 0 -29.146098798981676 1 I I #
edge $-1 $40 0 $91 5.0799999999999992 $67 $129 forward 7 unknown #
point $-1 0 5.0799999999999992 29.146099156210283 #
point $-1 0 5.0799999999999992 45.249698512702231 #
face $-1 $130 $131 $2 $-1 $132 forward single #
loop $-1 $-1 $133 $42 #
plane-surface $-1 76.199999999999989 2.5399999999999996 38.091186699002364 1 0 0 0 0 -1 forward_v I I I I #
coedge $-1 $134 $124 $135 $136 forward $43 $-1 #
coedge $-1 $86 $45 $137 $138 forward $22 $-1 #
coedge $-1 $139 $49 $46 $85 reversed $90 $-1 #
edge $-1 $87 0 $51 0.96903904789475559 $46 $140 forward 7 unknown #
coedge $-1 $47 $83 $139 $141 reversed $22 $-1 #
vertex $-1 $85 $142 #
straight-curve $-1 15.341600000000007 5.0799999999999992 0 0 -1 0 I I #
coedge $-1 $49 $143 $120 $144 reversed $90 $-1 #
loop $-1 $145 $139 $146 #
vertex $-1 $144 $147 #
straight-curve $-1 0 0 29.146099156210283 0 0 1 I I #
point $-1 0 0 29.146099156210283 #
coedge $-1 $148 $149 $53 $95 reversed $150 $-1 #
edge $-1 $99 0 $104 18.745200000000001 $53 $151 forward 7 unknown #
coedge $-1 $152 $54 $59 $108 forward $98 $-1 #
coedge $-1 $54 $152 $148 $153 reversed $98 $-1 #
loop $-1 $-1 $96 $154 #
vertex $-1 $95 $155 #
ellipse-curve $-1 61.11239999999998 5.0799999999999992 37.150750902983035 0 1 0 -41.191177215057436 0 -27.229291239357124 1 I I #
coedge $-1 $156 $56 $149 $157 forward $103 $-1 #
coedge $-1 $56 $156 $58 $107 reversed $103 $-1 #
loop $-1 $-1 $101 $158 #
vertex $-1 $57 $159 #
straight-curve $-1 35.483799999999988 5.0799999999999992 20.370799999999996 0 0 1 I I #
coedge $-1 $59 $58 $160 $161 forward $60 $-1 #
edge $-1 $61 0 $162 5.0799999999999992 $102 $163 forward 7 unknown #
edge $-1 $62 0 $164 5.0799999999999992 $96 $165 forward 7 unknown #
face $-1 $158 $60 $2 $-1 $166 forward single #
point $-1 35.483799999999988 5.0799999999999992 55.930799999999991 #
point $-1 19.921222784942536 5.0799999999999992 64.380042142340159 #
coedge $-1 $72 $64 $167 $168 forward $5 $-1 #
coedge $-1 $169 $170 $64 $114 reversed $131 $-1 #
edge $-1 $118 0 $171 52.392682506384311 $64 $172 forward 7 unknown #
coedge $-1 $173 $65 $68 $121 forward $117 $-1 #
coedge $-1 $65 $173 $169 $174 reversed $117 $-1 #
loop $-1 $-1 $173 $130 #
vertex $-1 $114 $175 #
straight-curve $-1 18.263463233697088 5.0799999999999992 76.199999999999989 1 0 0 I I #
coedge $-1 $68 $67 $89 $144 forward $69 $-1 #
edge $-1 $70 0 $176 5.0799999999999992 $115 $177 forward 7 unknown #
face $-1 $178 $69 $2 $-1 $179 forward single #
point $-1 18.263463233697124 5.0799999999999992 76.199999999999932 #
coedge $-1 $82 $137 $72 $125 reversed $43 $-1 #
edge $-1 $180 0 $126 52.384076595982457 $72 $181 forward 7 unknown #
vertex $-1 $73 $182 #
straight-curve $-1 15.341600000000007 5.0799999999999992 0 1 0 0 I I #
point $-1 15.341600000000009 5.0799999999999992 0 #
straight-curve $-1 0 5.0799999999999992 45.249698798981662 0 -1 0 I I #
face $-1 $146 $117 $2 $-1 $183 reversed single #
loop $-1 $-1 $169 $79 #
plane-surface $-1 53.339999999999989 2.5399999999999996 63.406693349501175 0.48836234521642929 0 0.8726409455066324 0.8726409455066324 0 -0.48836234521642929 forward_v I I I I #
coedge $-1 $184 $167 $170 $185 forward $80 $-1 #
coedge $-1 $137 $82 $186 $187 forward $43 $-1 #
coedge $-1 $167 $184 $82 $136 reversed $80 $-1 #
edge $-1 $180 0 $188 5.0799999999999992 $82 $189 forward 7 unknown #
coedge $-1 $124 $134 $83 $138 reversed $43 $-1 #
edge $-1 $126 0 $190 5.0799999999999992 $83 $191 forward 7 unknown #
coedge $-1 $186 $84 $86 $141 forward $90 $-1 #
ellipse-curve $-1 35.356800000000014 0 29.146098798981676 0 1 0 -20.015200000000007 0 -29.146098798981676 1 I I #
edge $-1 $87 1.7763568394002505e-015 $190 15.138400000000004 $86 $192 forward 7 unknown #
point $-1 15.341600000000009 0 0 #
coedge $-1 $89 $193 $173 $194 reversed $90 $-1 #
edge $-1 $91 8.0968704855566437e-009 $176 1.0662017443483272 $120 $195 forward 7 unknown #
loop $-1 $-1 $196 $146 #
face $-1 $122 $90 $2 $-1 $197 forward single #
point $-1 0 0 45.249698798981662 #
coedge $-1 $198 $94 $97 $153 forward $150 $-1 #
coedge $-1 $94 $198 $101 $157 reversed $150 $-1 #
loop $-1 $-1 $148 $178 #
straight-curve $-1 19.92122278494254 5.0799999999999992 9.9214596636259103 0.83021665359971908 0 0.55744085613245464 I I #
coedge $-1 $97 $96 $199 $200 reversed $98 $-1 #
edge $-1 $99 8.8817841970012523e-016 $201 5.0800000000000001 $148 $202 forward 7 unknown #
face $-1 $109 $98 $2 $-1 $203 reversed single #
point $-1 19.92122278494254 5.0799999999999992 9.9214596636259103 #
coedge $-1 $102 $101 $204 $205 forward $103 $-1 #
edge $-1 $104 0 $206 5.0799999999999992 $101 $207 forward 7 unknown #
face $-1 $-1 $103 $2 $-1 $208 forward single #
point $-1 35.483799999999988 5.0799999999999992 20.370799999999996 #
coedge $-1 $204 $199 $106 $161 reversed $145 $-1 #
edge $-1 $162 0 $164 17.708289086033197 $160 $209 forward 7 unknown #
vertex $-1 $205 $210 #
straight-curve $-1 35.483799999999988 5.0799999999999992 55.930799999999991 0 -1 0 I I #
vertex $-1 $161 $211 #
straight-curve $-1 19.921222784942536 5.0799999999999992 64.380042142340159 0 -1 0 I I #
plane-surface $-1 27.702511392471262 2.5399999999999996 60.155421071170075 -0.47713486612347078 0 -0.87883008569878718 -0.87883008569878718 0 0.47713486612347078 forward_v I I I I #
coedge $-1 $133 $135 $112 $168 reversed $80 $-1 #
edge $-1 $171 0 $180 25.044399999999989 $112 $212 forward 7 unknown #
coedge $-1 $213 $113 $116 $174 forward $131 $-1 #
coedge $-1 $113 $213 $133 $185 reversed $131 $-1 #
vertex $-1 $168 $214 #
straight-curve $-1 30.47999999999999 5.0799999999999992 76.199999999999989 0.87264094550663229 0 -0.48836234521642924 I I #
coedge $-1 $116 $115 $143 $194 forward $117 $-1 #
edge $-1 $118 0 $215 5.0799999999999992 $169 $216 forward 7 unknown #
point $-1 30.47999999999999 5.0799999999999992 76.199999999999989 #
vertex $-1 $121 $217 #
straight-curve $-1 18.263463233697124 5.0799999999999992 76.199999999999989 0 -1 0 I I #
face $-1 $154 $150 $2 $-1 $218 forward single #
cone-surface $-1 35.356800000000014 2.5399999999999996 45.249698798981584 0 1 0 -35.356799999999993 0 -2.8627935222402806e-007 1 I I 0 1 35.356799999999993 forward I I I I #
vertex $-1 $125 $219 #
straight-curve $-1 76.199999999999989 5.0799999999999992 25.568986699002373 -0.87278430719739775 0 -0.48810608796649774 I I #
point $-1 30.480000000000015 5.0799999999999992 0 #
plane-surface $-1 38.099999999999994 2.5399999999999996 76.199999999999989 0 0 -1 1 0 0 forward_v I I I I #
coedge $-1 $135 $133 $220 $221 forward $80 $-1 #
edge $-1 $171 0 $222 5.0799999999999992 $133 $223 forward 7 unknown #
coedge $-1 $220 $139 $134 $187 reversed $90 $-1 #
edge $-1 $188 5.2023035262731311e-015 $190 52.384076595982464 $134 $224 forward 7 unknown #
vertex $-1 $187 $225 #
straight-curve $-1 76.199999999999989 5.0799999999999992 25.56898669900237 0 -1 0 I I #
vertex $-1 $141 $226 #
straight-curve $-1 30.480000000000011 5.0799999999999992 0 0 -1 0 I I #
straight-curve $-1 15.341600000000007 0 0 1 0 0 I I #
coedge $-1 $143 $220 $213 $227 reversed $90 $-1 #
edge $-1 $176 3.5527136788005009e-014 $215 12.216536766302902 $173 $228 forward 7 unknown #
ellipse-curve $-1 35.356799999999993 0 45.249698798981655 0 1 0 -35.356799999999993 0 -2.8627942327830169e-007 1 I I #
coedge $-1 $199 $204 $198 $229 reversed $145 $-1 #
plane-surface $-1 0 0 0 0 -1 0 1 0 0 forward_v I I I I #
coedge $-1 $149 $148 $196 $229 forward $150 $-1 #
coedge $-1 $160 $196 $152 $200 forward $145 $-1 #
edge $-1 $201 1.8651347916392171e-016 $164 1.1682035001626629 $199 $230 forward 7 unknown #
vertex $-1 $200 $231 #
straight-curve $-1 19.921222784942497 5.0800000000000001 9.9214596636258818 0 -1 0 I I #
cone-surface $-1 61.11239999999998 2.5399999999999996 37.150750902982978 0 1 0 -41.191177215057486 0 -27.229291239357089 1 I I 0 1 49.377600000000001 forward I I I I #
coedge $-1 $196 $160 $156 $205 reversed $145 $-1 #
edge $-1 $206 0 $162 35.559999999999995 $204 $232 forward 7 unknown #
vertex $-1 $205 $233 #
straight-curve $-1 35.483799999999988 5.0799999999999992 20.370799999999996 0 -1 0 I I #
plane-surface $-1 35.483799999999988 2.5399999999999996 38.15079999999999 -1 0 0 0 0 1 forward_v I I I I #
straight-curve $-1 35.483799999999988 0 55.930799999999991 -0.87883008569878718 0 0.47713486612347078 I I #
point $-1 35.483799999999988 0 55.930799999999991 #
point $-1 19.921222784942536 0 64.380042142340159 #
straight-curve $-1 76.199999999999989 5.0799999999999992 50.613386699002362 0 0 -1 I I #
coedge $-1 $170 $169 $193 $227 forward $131 $-1 #
point $-1 76.199999999999989 5.0799999999999992 50.613386699002362 #
vertex $-1 $227 $234 #
straight-curve $-1 30.47999999999999 5.0799999999999992 76.199999999999989 3.4967654318902573e-015 -1 -2.797412345512206e-015 I I #
point $-1 18.263463233697124 0 76.199999999999932 #
plane-surface $-1 27.702511392471266 2.5399999999999996 15.146129831812953 -0.55744085613245475 0 0.83021665359971919 0.83021665359971908 0 0.55744085613245464 forward_v I I I I #
point $-1 76.199999999999989 5.0799999999999992 25.568986699002373 #
coedge $-1 $193 $186 $184 $221 reversed $90 $-1 #
edge $-1 $222 0 $188 25.0444 $184 $235 forward 7 unknown #
vertex $-1 $221 $236 #
straight-curve $-1 76.199999999999989 5.0799999999999992 50.613386699002362 0 -1 0 I I #
straight-curve $-1 76.199999999999989 0 25.568986699002373 -0.87278430719739775 0 -0.48810608796649774 I I #
point $-1 76.199999999999989 0 25.568986699002362 #
point $-1 30.480000000000011 0 -3.5527136788005009e-015 #
edge $-1 $215 0 $222 52.392682506384311 $213 $237 forward 7 unknown #
straight-curve $-1 18.263463233697088 0 76.199999999999989 1 0 0 I I #
edge $-1 $201 -5.0226353329176306e-014 $206 18.745200000000001 $196 $238 forward 7 unknown #
ellipse-curve $-1 61.11239999999998 0 37.150750902983035 0 1 0 -41.191177215057436 0 -27.229291239357124 1 I I #
point $-1 19.921222784942493 -4.4408920985006262e-016 9.9214596636258889 #
straight-curve $-1 35.483799999999988 0 20.370799999999996 0 0 1 I I #
point $-1 35.483799999999988 0 20.370799999999996 #
point $-1 30.47999999999999 0 76.199999999999989 #
straight-curve $-1 76.199999999999989 0 50.613386699002362 0 0 -1 I I #
point $-1 76.199999999999989 0 50.613386699002362 #
straight-curve $-1 30.47999999999999 0 76.199999999999989 0.87264094550663229 0 -0.48836234521642924 I I #
straight-curve $-1 19.92122278494254 0 9.9214596636259103 0.83021665359971908 0 0.55744085613245464 I I #
End-of-ACIS-data 