600 0 1 0           
104 GICL Pro/E ACIS Translator - Source: f:/data5/repository/PTC/V20/NC_Training_Rel20/DXF/part_10.prt - 6 0 13 ACIS 6.0.3 NT 24 Thu Apr 04 13:13:33 2002 
1 9.9999999999999995e-007 1e-010 
body $-1 $1 $-1 $-1 #
lump $-1 $-1 $2 $0 #
shell $-1 $-1 $-1 $3 $-1 $1 #
face $-1 $4 $5 $2 $-1 $6 forward single #
face $-1 $7 $8 $2 $-1 $9 forward single #
loop $-1 $-1 $10 $3 #
plane-surface $-1 0 0 0 0 0 1 1 0 0 forward_v I I I I #
face $-1 $11 $12 $2 $-1 $13 forward single #
loop $-1 $-1 $14 $4 #
plane-surface $-1 -1.3391514999999998 -13.55253396950639 -1.5874999999999999 -1 0 0 0 -1 0 forward_v I I I I #
coedge $-1 $15 $16 $17 $18 forward $5 $-1 #
face $-1 $19 $20 $2 $-1 $21 reversed single #
loop $-1 $-1 $22 $7 #
plane-surface $-1 2.8639071263381055e-006 -0.85253396952429195 -1.5874999999999999 0 1 0 -1 0 0 forward_v I I I I #
coedge $-1 $23 $17 $24 $25 forward $8 $-1 #
coedge $-1 $26 $10 $27 $28 forward $5 $-1 #
coedge $-1 $10 $29 $30 $31 forward $5 $-1 #
coedge $-1 $14 $32 $10 $18 reversed $8 $-1 #
edge $-1 $33 6.6613381477509392e-016 $34 25.399999999964198 $10 $35 forward 7 unknown #
face $-1 $36 $37 $2 $-1 $38 forward single #
loop $-1 $-1 $39 $11 #
spline-surface $-1 forward { exactsur full nurbs 3 1 both open open none none 41 2 
	0 3 0.024999999999999998 2 0.049999999999999996 2 0.074999999999999997 2 0.099999999999999992 2 
	0.125 2 0.14999999999999999 2 0.17499999999999999 2 0.19999999999999998 2 0.22499999999999998 2 
	0.25 2 0.27499999999999997 2 0.29999999999999999 2 0.32499999999999996 2 0.34999999999999998 2 
	0.375 2 0.39999999999999997 2 0.42499999999999999 2 0.44999999999999996 2 0.47499999999999998 2 
	0.5 2 0.52499999999999991 2 0.54999999999999993 2 0.57499999999999996 2 0.59999999999999998 2 
	0.625 2 0.64999999999999991 2 0.67499999999999993 2 0.69999999999999996 2 0.72499999999999998 2 
	0.75 2 0.77499999999999991 2 0.79999999999999993 2 0.82499999999999996 2 0.84999999999999998 2 
	0.875 2 0.89999999999999991 2 0.92499999999999993 2 0.94999999999999996 2 0.97499999999999998 2 
	1 3 
	0 1 1 1 
	52.139157227837039 -0.85253396948849014 0 1 
	51.627409903702315 -1.6563847865444528 0 1 
	51.135408790647766 -2.4288020586747048 0 1 
	50.181821021488595 -3.9019944129882522 0 1 
	49.720234365383959 -4.6027694951715485 0 1 
	48.816746039158161 -5.9349392583986482 0 1 
	48.374844369036992 -6.5663339394424511 0 1 
	47.503921148628478 -7.7587713825696287 0 1 
	47.074899598341133 -8.3198141446530034 0 1 
	46.222872257567644 -9.3721752243609924 0 1 
	45.7998664670815 -9.8634935419856031 0 1 
	44.952976973975154 -10.776132339369736 0 1 
	44.529093271354945 -11.197452819129259 0 1 
	43.677391654125607 -11.965145417832419 0 1 
	43.249573739516478 -12.31151753677606 0 1 
	42.383417547337714 -12.926751443123523 0 1 
	41.945079269768087 -13.195613230527348 0 1 
	41.072861753106366 -13.642546881111704 0 1 
	40.638982514014273 -13.820618744292233 0 1 
	39.781352639848635 -14.090883538761339 0 1 
	39.357602004775082 -14.183076470049917 0 1 
	38.511520734205099 -14.288142755406925 0 1 
	38.08919009870867 -14.301016109475363 0 1 
	37.23692941039856 -14.24555790729223 0 1 
	36.806999357584878 -14.177226351040664 0 1 
	35.936383478033754 -13.952894252312822 0 1 
	35.495697651296304 -13.796893709836544 0 1 
	34.607100811110335 -13.390350841082343 0 1 
	34.15918979766181 -13.13980851480442 0 1 
	33.273221357067087 -12.55508401747108 0 1 
	32.835163929920888 -12.220901846415662 0 1 
	31.966057903307906 -11.475898683159677 0 1 
	31.535009303841118 -11.065077690959107 0 1 
	30.675098379832427 -10.170720375124452 0 1 
	30.246236055290524 -9.6871840514903624 0 1 
	29.384309863945063 -8.6492558403639546 0 1 
	28.951245997141505 -8.094863952871636 0 1 
	28.06810256626698 -6.9063667020639583 0 1 
	27.618023002196011 -6.2722613387486001 0 1 
	26.693080004921157 -4.9228042040247759 0 1 
	26.218216571717274 -4.2074524326163161 0 1 
	25.205289036653394 -2.6483920949740218 0 1 
	24.667224934793392 -1.8046835287401808 0 1 
	23.590799581141191 -0.11485369638816856 0 1 
	23.052438329348984 0.73126756973001417 0 1 
	22.031330032351267 2.3074575572682656 0 1 
	21.548582987145764 3.0375262786883344 0 1 
	20.608425685296503 4.4127328068805589 0 1 
	20.151015428652748 5.0578706136527147 0 1 
	19.261024034231589 6.2522266621077973 0 1 
	18.828442896454188 6.8014449037907196 0 1 
	17.983067134716293 7.8040614971680915 0 1 
	17.570272510755796 8.2574598488625401 0 1 
	16.766869058225033 9.0623927796523631 0 1 
	16.376260229654758 9.4139273587477454 0 1 
	15.622522397965179 10.01248235563142 0 1 
	15.259393394845876 10.259502773419715 0 1 
	14.574719134096995 10.649930664027799 0 1 
	14.253173876467413 10.793338136847591 0 1 
	13.655192484518968 10.997366157253445 0 1 
	13.378756350200112 11.057986704839509 0 1 
	12.843717113553168 11.11960371858491 0 1 
	12.585114011225084 11.120600184744248 0 1 
	12.051321388003304 11.063527842635736 0 1 
	11.776131867109603 11.005459034367883 0 1 
	11.182174998569982 10.807952195714419 0 1 
	10.86340765092406 10.668514165328807 0 1 
	10.1827632007947 10.286299074410044 0 1 
	9.8208860983112629 10.043522013876892 0 1 
	9.069967980006826 9.4537722300087168 0 1 
	8.6809269641858329 9.1067995066736991 0 1 
	7.8800297634723062 8.3108481563560641 0 1 
	7.4681735785797745 7.8618695293734477 0 1 
	6.6245848314186784 6.8673272731247863 0 1 
	6.1928522691501087 6.3217636438587359 0 1 
	5.3055895671087772 5.1362618275186502 0 1 
	4.8500594273360162 4.4963236404446141 0 1 
	3.9102376894370017 3.1253187908559674 0 1 
	3.4259460913107498 2.3942521283413551 0 1 
	2.4161677908190722 0.83849157537297658 0 1 
	1.8906810884536536 0.013797684919220066 0 1 
	1.3391572278142525 -0.85253396952429195 0 1 
	52.139157227837039 -0.85253396948849014 -3.1749999999999998 1 
	51.627409903702315 -1.6563847865444528 -3.1749999999999998 1 
	51.135408790647766 -2.4288020586747048 -3.1749999999999998 1 
	50.181821021488595 -3.9019944129882522 -3.1749999999999998 1 
	49.720234365383959 -4.6027694951715485 -3.1749999999999998 1 
	48.816746039158161 -5.9349392583986482 -3.1749999999999998 1 
	48.374844369036992 -6.5663339394424511 -3.1749999999999998 1 
	47.503921148628478 -7.7587713825696287 -3.1749999999999998 1 
	47.074899598341133 -8.3198141446530034 -3.1749999999999998 1 
	46.222872257567644 -9.3721752243609924 -3.1749999999999998 1 
	45.7998664670815 -9.8634935419856031 -3.1749999999999998 1 
	44.952976973975154 -10.776132339369736 -3.1749999999999998 1 
	44.529093271354945 -11.197452819129259 -3.1749999999999998 1 
	43.677391654125607 -11.965145417832419 -3.1749999999999998 1 
	43.249573739516478 -12.31151753677606 -3.1749999999999998 1 
	42.383417547337714 -12.926751443123523 -3.1749999999999998 1 
	41.945079269768087 -13.195613230527348 -3.1749999999999998 1 
	41.072861753106366 -13.642546881111704 -3.1749999999999998 1 
	40.638982514014273 -13.820618744292233 -3.1749999999999998 1 
	39.781352639848635 -14.090883538761339 -3.1749999999999998 1 
	39.357602004775082 -14.183076470049917 -3.1749999999999998 1 
	38.511520734205099 -14.288142755406925 -3.1749999999999998 1 
	38.08919009870867 -14.301016109475363 -3.1749999999999998 1 
	37.23692941039856 -14.24555790729223 -3.1749999999999998 1 
	36.806999357584878 -14.177226351040664 -3.1749999999999998 1 
	35.936383478033754 -13.952894252312822 -3.1749999999999998 1 
	35.495697651296304 -13.796893709836544 -3.1749999999999998 1 
	34.607100811110335 -13.390350841082343 -3.1749999999999998 1 
	34.15918979766181 -13.13980851480442 -3.1749999999999998 1 
	33.273221357067087 -12.55508401747108 -3.1749999999999998 1 
	32.835163929920888 -12.220901846415662 -3.1749999999999998 1 
	31.966057903307906 -11.475898683159677 -3.1749999999999998 1 
	31.535009303841118 -11.065077690959107 -3.1749999999999998 1 
	30.675098379832427 -10.170720375124452 -3.1749999999999998 1 
	30.246236055290524 -9.6871840514903624 -3.1749999999999998 1 
	29.384309863945063 -8.6492558403639546 -3.1749999999999998 1 
	28.951245997141505 -8.094863952871636 -3.1749999999999998 1 
	28.06810256626698 -6.9063667020639583 -3.1749999999999998 1 
	27.618023002196011 -6.2722613387486001 -3.1749999999999998 1 
	26.693080004921157 -4.9228042040247759 -3.1749999999999998 1 
	26.218216571717274 -4.2074524326163161 -3.1749999999999998 1 
	25.205289036653394 -2.6483920949740218 -3.1749999999999998 1 
	24.667224934793392 -1.8046835287401808 -3.1749999999999998 1 
	23.590799581141191 -0.11485369638816856 -3.1749999999999998 1 
	23.052438329348984 0.73126756973001417 -3.1749999999999998 1 
	22.031330032351267 2.3074575572682656 -3.1749999999999998 1 
	21.548582987145764 3.0375262786883344 -3.1749999999999998 1 
	20.608425685296503 4.4127328068805589 -3.1749999999999998 1 
	20.151015428652748 5.0578706136527147 -3.1749999999999998 1 
	19.261024034231589 6.2522266621077973 -3.1749999999999998 1 
	18.828442896454188 6.8014449037907196 -3.1749999999999998 1 
	17.983067134716293 7.8040614971680915 -3.1749999999999998 1 
	17.570272510755796 8.2574598488625401 -3.1749999999999998 1 
	16.766869058225033 9.0623927796523631 -3.1749999999999998 1 
	16.376260229654758 9.4139273587477454 -3.1749999999999998 1 
	15.622522397965179 10.01248235563142 -3.1749999999999998 1 
	15.259393394845876 10.259502773419715 -3.1749999999999998 1 
	14.574719134096995 10.649930664027799 -3.1749999999999998 1 
	14.253173876467413 10.793338136847591 -3.1749999999999998 1 
	13.655192484518968 10.997366157253445 -3.1749999999999998 1 
	13.378756350200112 11.057986704839509 -3.1749999999999998 1 
	12.843717113553168 11.11960371858491 -3.1749999999999998 1 
	12.585114011225084 11.120600184744248 -3.1749999999999998 1 
	12.051321388003304 11.063527842635736 -3.1749999999999998 1 
	11.776131867109603 11.005459034367883 -3.1749999999999998 1 
	11.182174998569982 10.807952195714419 -3.1749999999999998 1 
	10.86340765092406 10.668514165328807 -3.1749999999999998 1 
	10.1827632007947 10.286299074410044 -3.1749999999999998 1 
	9.8208860983112629 10.043522013876892 -3.1749999999999998 1 
	9.069967980006826 9.4537722300087168 -3.1749999999999998 1 
	8.6809269641858329 9.1067995066736991 -3.1749999999999998 1 
	7.8800297634723062 8.3108481563560641 -3.1749999999999998 1 
	7.4681735785797745 7.8618695293734477 -3.1749999999999998 1 
	6.6245848314186784 6.8673272731247863 -3.1749999999999998 1 
	6.1928522691501087 6.3217636438587359 -3.1749999999999998 1 
	5.3055895671087772 5.1362618275186502 -3.1749999999999998 1 
	4.8500594273360162 4.4963236404446141 -3.1749999999999998 1 
	3.9102376894370017 3.1253187908559674 -3.1749999999999998 1 
	3.4259460913107498 2.3942521283413551 -3.1749999999999998 1 
	2.4161677908190722 0.83849157537297658 -3.1749999999999998 1 
	1.8906810884536536 0.013797684919220066 -3.1749999999999998 1 
	1.3391572278142525 -0.85253396952429195 -3.1749999999999998 1 
	0 
	0 
	0 
	39 0.024999999999999998 0.049999999999999996 0.074999999999999997 0.099999999999999992 0.125 0.14999999999999999 0.17499999999999999 0.19999999999999998 0.22499999999999998 0.25 0.27499999999999997 0.29999999999999999 0.32499999999999996 0.34999999999999998 0.375 0.39999999999999997 0.42499999999999999 0.44999999999999996 0.47499999999999998 0.5 0.52499999999999991 0.54999999999999993 0.57499999999999996 0.59999999999999998 0.625 0.64999999999999991 0.67499999999999993 0.69999999999999996 0.72499999999999998 0.75 0.77499999999999991 0.79999999999999993 0.82499999999999996 0.84999999999999998 0.875 0.89999999999999991 0.92499999999999993 0.94999999999999996 0.97499999999999998 
	0 
	0 
	0 
	F 1 F 0 F 1 F 0 } I I I I #
coedge $-1 $40 $30 $41 $42 forward $12 $-1 #
coedge $-1 $32 $14 $43 $44 forward $8 $-1 #
coedge $-1 $30 $40 $14 $25 reversed $12 $-1 #
edge $-1 $33 0 $45 3.1749999999999998 $24 $46 forward 7 unknown #
coedge $-1 $29 $15 $47 $48 forward $5 $-1 #
coedge $-1 $49 $50 $15 $28 reversed $51 $-1 #
edge $-1 $34 0 $52 53.478308727837039 $15 $53 forward 7 unknown #
coedge $-1 $16 $26 $54 $55 forward $5 $-1 #
coedge $-1 $22 $24 $16 $31 reversed $12 $-1 #
edge $-1 $56 0 $33 2.6783087278142523 $16 $57 forward 7 unknown #
coedge $-1 $17 $23 $49 $58 reversed $8 $-1 #
vertex $-1 $31 $59 #
vertex $-1 $28 $60 #
straight-curve $-1 -1.3391514999999998 -0.85253396952429128 0 0 -1 0 I I #
face $-1 $61 $51 $2 $-1 $62 forward single #
loop $-1 $-1 $63 $19 #
plane-surface $-1 52.139157227837039 -13.55253396948849 -1.5874999999999999 1 0 0 0 1 0 forward_v I I I I #
coedge $-1 $64 $54 $65 $66 forward $20 $67 #
coedge $-1 $24 $22 $68 $69 forward $12 $-1 #
coedge $-1 $54 $64 $22 $42 reversed $20 $70 #
edge $-1 $56 0 $71 3.1749999999999998 $22 $72 forward 7 unknown #
coedge $-1 $68 $73 $23 $44 reversed $74 $-1 #
edge $-1 $45 6.6613381477509392e-016 $75 25.399999999964198 $23 $76 forward 7 unknown #
vertex $-1 $25 $77 #
straight-curve $-1 -1.3391514999999998 -0.85253396952429128 0 0 0 -1 I I #
coedge $-1 $63 $65 $26 $48 reversed $37 $-1 #
edge $-1 $52 0 $78 25.399999999999999 $26 $79 forward 7 unknown #
coedge $-1 $80 $27 $32 $58 forward $51 $-1 #
coedge $-1 $27 $80 $63 $81 reversed $51 $-1 #
loop $-1 $-1 $49 $36 #
vertex $-1 $48 $82 #
straight-curve $-1 -1.3391514999999998 -26.252533969488489 0 1 0 0 I I #
coedge $-1 $39 $41 $29 $55 reversed $20 $83 #
edge $-1 $78 0 $56 1 $29 $84 forward 7 unknown #
vertex $-1 $31 $85 #
straight-curve $-1 1.3391572278142525 -0.85253396952429195 0 -1 0 0 I I #
edge $-1 $34 0 $75 3.1749999999999998 $49 $86 forward 7 unknown #
point $-1 -1.3391514999999998 -0.85253396952429195 0 #
point $-1 -1.3391514999999998 -26.252533969488489 0 #
face $-1 $-1 $74 $2 $-1 $87 reversed single #
plane-surface $-1 25.40000286391852 -26.252533969488489 -1.5874999999999999 0 -1 0 1 0 0 forward_v I I I I #
coedge $-1 $88 $47 $50 $81 forward $37 $-1 #
coedge $-1 $41 $39 $89 $90 forward $20 $91 #
coedge $-1 $47 $88 $39 $66 reversed $37 $-1 #
edge $-1 $78 0 $92 3.1749999999999998 $39 $93 forward 7 unknown #
pcurve $-1 0 forward { exppc nurbs 3 open 2 
	0 3 3.1749999999999998 3 
	0 0 1 
	0 0.33333333333333331 1 
	0 0.66666666666666663 1 
	0 1 1 
	0.001 
	spline forward { ref 0 } I I I I 
	} 0 0 #
coedge $-1 $89 $43 $40 $69 reversed $74 $-1 #
edge $-1 $71 0 $45 2.6783087278142523 $40 $94 forward 7 unknown #
pcurve $-1 0 forward { exppc nurbs 3 open 2 
	-3.1749999999999998 3 0 3 
	1 1 1 
	1 0.66666666666666663 1 
	1 0.33333333333333331 1 
	1 0 1 
	0.001 
	spline forward { ref 0 } I I I I 
	} 0 0 #
vertex $-1 $69 $95 #
straight-curve $-1 1.3391572278142525 -0.85253396952429195 0 0 0 -1 I I #
coedge $-1 $43 $96 $80 $97 reversed $74 $-1 #
loop $-1 $-1 $89 $61 #
vertex $-1 $97 $98 #
straight-curve $-1 -1.3391514999999998 -0.85253396952429128 -3.1749999999999998 0 -1 0 I I #
point $-1 -1.3391514999999998 -0.85253396952429195 -3.1749999999999998 #
vertex $-1 $55 $99 #
straight-curve $-1 52.139157227837039 -26.252533969488489 0 0 1 0 I I #
coedge $-1 $50 $49 $73 $97 forward $51 $-1 #
edge $-1 $52 0 $100 3.1749999999999998 $63 $101 forward 7 unknown #
point $-1 52.139157227837039 -26.252533969488489 0 #
pcurve $-1 0 forward { exppc nurbs 3 open 41 
	-1 3 -0.97500000000000009 1 -0.95000000000000007 1 -0.92500000000000004 1 -0.90000000000000002 1 
	-0.87500000000000011 1 -0.85000000000000009 1 -0.82500000000000007 1 -0.80000000000000016 1 -0.77500000000000013 1 
	-0.75000000000000022 1 -0.7250000000000002 1 -0.70000000000000029 1 -0.67500000000000027 1 -0.65000000000000024 1 
	-0.62500000000000033 1 -0.60000000000000031 1 -0.57500000000000029 1 -0.55000000000000038 1 -0.52500000000000036 1 
	-0.50000000000000033 1 -0.47500000000000031 1 -0.4500000000000004 1 -0.42500000000000038 1 -0.40000000000000036 1 
	-0.37500000000000044 1 -0.35000000000000031 1 -0.3250000000000004 1 -0.30000000000000027 1 -0.27500000000000036 1 
	-0.25000000000000022 1 -0.2250000000000002 1 -0.20000000000000018 1 -0.17500000000000016 1 -0.15000000000000013 1 
	-0.12500000000000011 1 -0.10000000000000009 1 -0.075000000000000067 1 -0.050000000000000044 1 -0.025000000000000022 1 
	0 3 
	1 0 1 
	0.9916666666666667 0 0.99999999999999989 
	0.97499999999999998 0 1.0000000000000002 
	0.94999999999999984 0 1 
	0.92499999999999982 0 1.0000000000000002 
	0.8999999999999998 0 1 
	0.87499999999999989 0 1.0000000000000002 
	0.84999999999999987 0 1 
	0.82499999999999996 0 1.0000000000000002 
	0.79999999999999993 0 0.99999999999999978 
	0.7749999999999998 0 1.0000000000000002 
	0.74999999999999989 0 1 
	0.72500000000000009 0 1 
	0.69999999999999984 0 1.0000000000000002 
	0.67500000000000004 0 1 
	0.6499999999999998 0 1.0000000000000002 
	0.62500000000000011 0 1 
	0.59999999999999987 0 1.0000000000000002 
	0.57499999999999996 0 1 
	0.54999999999999982 0 1.0000000000000002 
	0.52499999999999991 0 1 
	0.5 0 1.0000000000000002 
	0.47499999999999992 0 1 
	0.44999999999999979 0 1.0000000000000002 
	0.4250000000000001 0 1 
	0.39999999999999991 0 1 
	0.375 0 1.0000000000000002 
	0.34999999999999992 0 1 
	0.3249999999999999 0 1 
	0.30000000000000004 0 1.0000000000000002 
	0.27499999999999991 0 1 
	0.25 0 1.0000000000000002 
	0.22499999999999992 0 1 
	0.19999999999999998 0 1.0000000000000002 
	0.17499999999999999 0 0.99999999999999989 
	0.14999999999999999 0 1.0000000000000002 
	0.125 0 1 
	0.099999999999999978 0 1.0000000000000002 
	0.075000000000000011 0 0.99999999999999989 
	0.049999999999999968 0 1.0000000000000004 
	0.025000000000000001 0 0.99999999999999978 
	0.0083333333333333367 0 0.99999999999999989 
	0 0 1 
	0.001 
	spline forward { ref 0 } I I I I 
	} 0 0 #
intcurve-curve $-1 forward { surfintcur full nurbs 3 open 41 
	0 3 0.025291421569173151 1 0.050509057247097658 1 0.075658523815242434 1 0.10074485114859542 1 
	0.12577406488100351 1 0.15075246979643259 1 0.17568520334289439 1 0.20057845758880849 1 0.22542986938343396 1 
	0.25024867246901533 1 0.27505635580239296 1 0.29987584917900251 1 0.32472615282730183 1 0.34961833396733616 1 
	0.37455067656690877 1 0.39952727234434243 1 0.42455427432905379 1 0.44963952824592784 1 0.47479624740778031 1 
	0.50004171017997612 1 0.52539413257282042 1 0.55075036491231077 1 0.57600926631091043 1 0.60117665448787283 1 
	0.62625569249064994 1 0.65124858583551815 1 0.67615523931623345 1 0.7009760225817403 1 0.7257137576836713 1 
	0.75038781351856609 1 0.77503829695175175 1 0.79971052706042511 1 0.82444469224040839 1 0.8492618520643862 1 
	0.87416452403615907 1 0.89915359904288494 1 0.92422888561881444 1 0.94939248965854228 1 0.97464751870570188 1 
	1 3 
	52.139157227837039 -0.85253396948849014 0 1 
	51.631230402668038 -1.6574137933495754 0 1 
	50.644082827555444 -3.1969475273602339 0 1 
	49.260847743825778 -5.3011275163365363 0 1.0000000000000002 
	47.934482402934684 -7.1954062944042416 0 0.99999999999999967 
	46.647357973311237 -8.8790831346380692 0 1.0000000000000004 
	45.378136890174574 -10.353423223951753 0 1 
	44.1063886372472 -11.617718462172164 0 1 
	42.822758706584111 -12.65717406212392 0 0.99999999999999978 
	41.507874938130549 -13.463892968673624 0 1 
	40.205964747673036 -13.99844239233148 0 1 
	38.934133725907778 -14.275260715705524 0 1 
	37.666551602449132 -14.313892512016595 0 0.99999999999999967 
	36.376254023697641 -14.108708220314622 0 1.0000000000000002 
	35.053852736871633 -13.64036650890661 0 1.0000000000000002 
	33.710224571649917 -12.888565459422807 0 0.99999999999999989 
	32.395952422710636 -11.885734852044083 0 1.0000000000000002 
	31.102661126525735 -10.652904544270683 0 1.0000000000000002 
	29.815896066880079 -9.2018760211517137 0 0.99999999999999989 
	28.516280534518355 -7.5379103535374359 0 1 
	27.165639814060686 -5.6348144413900574 0 1 
	25.739773964492493 -3.4865557402311023 0 1 
	24.129045704050164 -0.96078956820316219 0 1 
	22.517347760666119 1.5723017905089554 0 0.99999999999999978 
	21.068277928495565 3.7640280820456136 0 1.0000000000000002 
	19.695979027293628 5.6998089055471617 0 1 
	18.398028027947571 7.3480935166794312 0 1 
	17.159568792187244 8.7087598089760263 0 0.99999999999999989 
	15.987610924111056 9.7639101526304426 0 1.0000000000000002 
	14.898014593840324 10.505547312263163 0 1.0000000000000002 
	13.932785079141452 10.936394990064946 0 0.99999999999999978 
	13.102684080042927 11.118604102177832 0 1 
	12.326174987493481 11.121597813538694 0 1 
	11.499830443804367 10.94706554268342 0 1 
	10.542897805795238 10.528119962732298 0 0.99999999999999978 
	9.4570642174009176 9.7992250939911791 0 0.99999999999999978 
	8.2898063934598714 8.7577439702815312 0 1 
	7.0541139329322879 7.4103503088292362 0 1 
	5.758899740333999 5.7729800996515799 0 1.0000000000000002 
	4.3915519563769818 3.8530157351645968 0 1 
	2.9403940640039052 1.6574050028226461 0 0.99999999999999978 
	1.8860243828810366 0.014851450678739166 0 0.99999999999999989 
	1.3391572278142525 -0.85253396952429195 0 1 
	0.001 
	spline forward { ref 0 } I I I I 
	plane 0 0 0 0 0 1 1 0 0 forward_v I I I I 
	nurbs 3 open 41 
	0 3 0.025000000000000022 1 0.050000000000000044 1 0.075000000000000067 1 0.10000000000000009 1 
	0.12500000000000011 1 0.15000000000000013 1 0.17500000000000016 1 0.20000000000000018 1 0.2250000000000002 1 
	0.25000000000000022 1 0.27500000000000036 1 0.30000000000000027 1 0.3250000000000004 1 0.35000000000000031 1 
	0.37500000000000044 1 0.40000000000000036 1 0.42500000000000038 1 0.4500000000000004 1 0.47500000000000031 1 
	0.50000000000000033 1 0.52500000000000036 1 0.55000000000000038 1 0.57500000000000029 1 0.60000000000000031 1 
	0.62500000000000033 1 0.65000000000000024 1 0.67500000000000027 1 0.70000000000000029 1 0.7250000000000002 1 
	0.75000000000000022 1 0.77500000000000013 1 0.80000000000000016 1 0.82500000000000007 1 0.85000000000000009 1 
	0.87500000000000011 1 0.90000000000000002 1 0.92500000000000004 1 0.95000000000000007 1 0.97500000000000009 1 
	1 3 
	0 0 1 
	0.0083333333333333367 0 0.99999999999999989 
	0.025000000000000001 0 0.99999999999999978 
	0.049999999999999968 0 1.0000000000000004 
	0.075000000000000011 0 0.99999999999999989 
	0.099999999999999978 0 1.0000000000000002 
	0.125 0 1 
	0.14999999999999999 0 1.0000000000000002 
	0.17499999999999999 0 0.99999999999999989 
	0.19999999999999998 0 1.0000000000000002 
	0.22499999999999992 0 1 
	0.25 0 1.0000000000000002 
	0.27499999999999991 0 1 
	0.30000000000000004 0 1.0000000000000002 
	0.3249999999999999 0 1 
	0.34999999999999992 0 1 
	0.375 0 1.0000000000000002 
	0.39999999999999991 0 1 
	0.4250000000000001 0 1 
	0.44999999999999979 0 1.0000000000000002 
	0.47499999999999992 0 1 
	0.5 0 1.0000000000000002 
	0.52499999999999991 0 1 
	0.54999999999999982 0 1.0000000000000002 
	0.57499999999999996 0 1 
	0.59999999999999987 0 1.0000000000000002 
	0.62500000000000011 0 1 
	0.6499999999999998 0 1.0000000000000002 
	0.67500000000000004 0 1 
	0.69999999999999984 0 1.0000000000000002 
	0.72500000000000009 0 1 
	0.74999999999999989 0 1 
	0.7749999999999998 0 1.0000000000000002 
	0.79999999999999993 0 0.99999999999999978 
	0.82499999999999996 0 1.0000000000000002 
	0.84999999999999987 0 1 
	0.87499999999999989 0 1.0000000000000002 
	0.8999999999999998 0 1 
	0.92499999999999982 0 1.0000000000000002 
	0.94999999999999984 0 1 
	0.97499999999999998 0 1.0000000000000002 
	0.9916666666666667 0 0.99999999999999989 
	1 0 1 
	
	nullbs 
	I I 
	0 
	0 
	39 0.025291421569173127 0.0505090572470977 0.075658523815242476 0.10074485114859534 0.12577406488100359 0.15075246979643256 0.17568520334289442 0.20057845758880841 0.22542986938343393 0.25024867246901555 0.27505635580239302 0.2998758491790024 0.32472615282730183 0.34961833396733599 0.37455067656690899 0.39952727234434254 0.42455427432905385 0.4496395282459279 0.47479624740778026 0.50004171017997612 0.52539413257282042 0.55075036491231077 0.57600926631091043 0.60117665448787283 0.62625569249064994 0.65124858583551826 0.67615523931623345 0.70097602258174041 0.72571375768367141 0.75038781351856598 0.77503829695175164 0.79971052706042511 0.82444469224040839 0.8492618520643862 0.87416452403615907 0.89915359904288505 0.92422888561881444 0.94939248965854217 0.97464751870570188 
	} I I #
point $-1 1.3391572278142525 -0.85253396952429195 0 #
straight-curve $-1 -1.3391514999999998 -26.252533969488489 0 0 0 -1 I I #
plane-surface $-1 0 0 -3.1749999999999998 0 0 1 1 0 0 forward_v I I I I #
coedge $-1 $65 $63 $96 $102 forward $37 $-1 #
coedge $-1 $96 $68 $64 $90 reversed $74 $-1 #
edge $-1 $92 0 $71 1 $64 $103 forward 7 unknown #
pcurve $-1 0 forward { exppc nurbs 3 open 41 
	0 3 0.025000000000000022 1 0.050000000000000044 1 0.075000000000000053 1 0.10000000000000007 1 
	0.12500000000000011 1 0.15000000000000013 1 0.17500000000000018 1 0.20000000000000021 1 0.22500000000000023 1 
	0.25000000000000028 1 0.2750000000000003 1 0.30000000000000032 1 0.32500000000000034 1 0.35000000000000037 1 
	0.37500000000000044 1 0.40000000000000041 1 0.42500000000000038 1 0.4500000000000004 1 0.47500000000000037 1 
	0.50000000000000033 1 0.52500000000000036 1 0.55000000000000038 1 0.57500000000000029 1 0.60000000000000031 1 
	0.62500000000000033 1 0.65000000000000024 1 0.67500000000000027 1 0.70000000000000029 1 0.7250000000000002 1 
	0.75000000000000022 1 0.77500000000000013 1 0.80000000000000016 1 0.82500000000000007 1 0.85000000000000009 1 
	0.87500000000000011 1 0.90000000000000002 1 0.92500000000000004 1 0.95000000000000007 1 0.97500000000000009 1 
	1 3 
	0 1 1 
	0.0083333333333333367 1 0.99999999999999989 
	0.025000000000000001 1 0.99999999999999978 
	0.049999999999999968 1 1.0000000000000004 
	0.075000000000000011 1 0.99999999999999989 
	0.099999999999999978 1 1.0000000000000002 
	0.125 1 1 
	0.14999999999999999 1 1.0000000000000002 
	0.17499999999999999 1 0.99999999999999989 
	0.19999999999999998 1 1.0000000000000002 
	0.22499999999999992 1 1 
	0.25 1 1.0000000000000002 
	0.27499999999999991 1 1 
	0.30000000000000004 1 1.0000000000000002 
	0.3249999999999999 1 1 
	0.34999999999999992 1 1 
	0.375 1 1.0000000000000002 
	0.39999999999999991 1 1 
	0.4250000000000001 1 1 
	0.44999999999999979 1 1.0000000000000002 
	0.47499999999999992 1 1 
	0.5 1 1.0000000000000002 
	0.52499999999999991 1 1 
	0.54999999999999982 1 1.0000000000000002 
	0.57499999999999996 1 1 
	0.59999999999999987 1 1.0000000000000002 
	0.62500000000000011 1 1 
	0.6499999999999998 1 1.0000000000000002 
	0.67500000000000004 1 1 
	0.69999999999999984 1 1.0000000000000002 
	0.72500000000000009 1 1 
	0.74999999999999989 1 1 
	0.7749999999999998 1 1.0000000000000002 
	0.79999999999999993 1 0.99999999999999978 
	0.82499999999999996 1 1.0000000000000002 
	0.84999999999999987 1 1 
	0.87499999999999989 1 1.0000000000000002 
	0.8999999999999998 1 1 
	0.92499999999999982 1 1.0000000000000002 
	0.94999999999999984 1 1 
	0.97499999999999998 1 1.0000000000000002 
	0.9916666666666667 1 0.99999999999999989 
	1 1 1 
	0.001 
	spline forward { ref 0 } I I I I 
	} 0 0 #
vertex $-1 $90 $104 #
straight-curve $-1 52.139157227837039 -0.85253396948849058 0 0 0 -1 I I #
straight-curve $-1 1.3391572278142525 -0.85253396952429195 -3.1749999999999998 -1 0 0 I I #
point $-1 1.3391572278142525 -0.85253396952429195 -3.1749999999999998 #
coedge $-1 $73 $89 $88 $102 reversed $74 $-1 #
edge $-1 $75 0 $100 53.478308727837039 $80 $105 forward 7 unknown #
point $-1 -1.3391514999999998 -26.252533969488489 -3.1749999999999998 #
point $-1 52.139157227837039 -0.85253396948849014 0 #
vertex $-1 $102 $106 #
straight-curve $-1 52.139157227837039 -26.252533969488489 0 0 0 -1 I I #
edge $-1 $100 0 $92 25.399999999999999 $88 $107 forward 7 unknown #
intcurve-curve $-1 forward { surfintcur full nurbs 3 open 41 
	0 3 0.025291421569173151 1 0.050509057247097658 1 0.075658523815242434 1 0.10074485114859542 1 
	0.12577406488100351 1 0.15075246979643259 1 0.17568520334289439 1 0.20057845758880849 1 0.22542986938343396 1 
	0.25024867246901533 1 0.27505635580239296 1 0.29987584917900251 1 0.32472615282730183 1 0.34961833396733616 1 
	0.37455067656690877 1 0.39952727234434243 1 0.42455427432905379 1 0.44963952824592784 1 0.47479624740778031 1 
	0.50004171017997612 1 0.52539413257282042 1 0.55075036491231077 1 0.57600926631091043 1 0.60117665448787283 1 
	0.62625569249064994 1 0.65124858583551815 1 0.67615523931623345 1 0.7009760225817403 1 0.7257137576836713 1 
	0.75038781351856609 1 0.77503829695175175 1 0.79971052706042511 1 0.82444469224040839 1 0.8492618520643862 1 
	0.87416452403615907 1 0.89915359904288494 1 0.92422888561881444 1 0.94939248965854228 1 0.97464751870570188 1 
	1 3 
	52.139157227837039 -0.85253396948849014 -3.1749999999999998 1 
	51.631230402668038 -1.6574137933495754 -3.1749999999999994 1 
	50.644082827555444 -3.1969475273602339 -3.1749999999999998 1 
	49.260847743825778 -5.3011275163365363 -3.1749999999999998 1.0000000000000002 
	47.934482402934684 -7.1954062944042416 -3.1749999999999998 0.99999999999999967 
	46.647357973311237 -8.8790831346380692 -3.1749999999999994 1.0000000000000004 
	45.378136890174574 -10.353423223951753 -3.1750000000000003 1 
	44.1063886372472 -11.617718462172164 -3.1749999999999998 1 
	42.822758706584111 -12.65717406212392 -3.1750000000000003 0.99999999999999978 
	41.507874938130549 -13.463892968673624 -3.1750000000000003 1 
	40.205964747673036 -13.99844239233148 -3.1749999999999994 1 
	38.934133725907778 -14.275260715705524 -3.1750000000000012 1 
	37.666551602449132 -14.313892512016595 -3.1749999999999994 0.99999999999999967 
	36.376254023697641 -14.108708220314622 -3.1749999999999998 1.0000000000000002 
	35.053852736871633 -13.64036650890661 -3.1749999999999989 1.0000000000000002 
	33.710224571649917 -12.888565459422807 -3.1749999999999994 0.99999999999999989 
	32.395952422710636 -11.885734852044083 -3.1749999999999998 1.0000000000000002 
	31.102661126525735 -10.652904544270683 -3.1749999999999985 1.0000000000000002 
	29.815896066880079 -9.2018760211517137 -3.1750000000000003 0.99999999999999989 
	28.516280534518355 -7.5379103535374359 -3.1749999999999994 1 
	27.165639814060686 -5.6348144413900574 -3.1750000000000003 1 
	25.739773964492493 -3.4865557402311023 -3.1749999999999994 1 
	24.129045704050164 -0.96078956820316219 -3.1749999999999998 1 
	22.517347760666119 1.5723017905089554 -3.1750000000000007 0.99999999999999978 
	21.068277928495565 3.7640280820456136 -3.1749999999999989 1.0000000000000002 
	19.695979027293628 5.6998089055471617 -3.1750000000000007 1 
	18.398028027947571 7.3480935166794312 -3.1749999999999989 1 
	17.159568792187244 8.7087598089760263 -3.1750000000000007 0.99999999999999989 
	15.987610924111056 9.7639101526304426 -3.1749999999999994 1.0000000000000002 
	14.898014593840324 10.505547312263163 -3.1749999999999994 1.0000000000000002 
	13.932785079141452 10.936394990064946 -3.1749999999999998 0.99999999999999978 
	13.102684080042927 11.118604102177832 -3.1750000000000003 1 
	12.326174987493481 11.121597813538694 -3.1749999999999998 1 
	11.499830443804367 10.94706554268342 -3.1750000000000003 1 
	10.542897805795238 10.528119962732298 -3.1750000000000003 0.99999999999999978 
	9.4570642174009176 9.7992250939911791 -3.1750000000000003 0.99999999999999978 
	8.2898063934598714 8.7577439702815312 -3.1749999999999998 1 
	7.0541139329322879 7.4103503088292362 -3.1749999999999998 1 
	5.758899740333999 5.7729800996515799 -3.1749999999999998 1.0000000000000002 
	4.3915519563769818 3.8530157351645968 -3.1749999999999998 1 
	2.9403940640039052 1.6574050028226461 -3.1749999999999998 0.99999999999999978 
	1.8860243828810366 0.014851450678739166 -3.1750000000000007 0.99999999999999989 
	1.3391572278142525 -0.85253396952429195 -3.1749999999999998 1 
	0.001 
	spline forward { ref 0 } I I I I 
	plane 0 0 -3.1749999999999998 0 0 1 1 0 0 forward_v I I I I 
	nurbs 3 open 41 
	0 3 0.025000000000000022 1 0.050000000000000044 1 0.075000000000000053 1 0.10000000000000007 1 
	0.12500000000000011 1 0.15000000000000013 1 0.17500000000000018 1 0.20000000000000021 1 0.22500000000000023 1 
	0.25000000000000028 1 0.2750000000000003 1 0.30000000000000032 1 0.32500000000000034 1 0.35000000000000037 1 
	0.37500000000000044 1 0.40000000000000041 1 0.42500000000000038 1 0.4500000000000004 1 0.47500000000000037 1 
	0.50000000000000033 1 0.52500000000000036 1 0.55000000000000038 1 0.57500000000000029 1 0.60000000000000031 1 
	0.62500000000000033 1 0.65000000000000024 1 0.67500000000000027 1 0.70000000000000029 1 0.7250000000000002 1 
	0.75000000000000022 1 0.77500000000000013 1 0.80000000000000016 1 0.82500000000000007 1 0.85000000000000009 1 
	0.87500000000000011 1 0.90000000000000002 1 0.92500000000000004 1 0.95000000000000007 1 0.97500000000000009 1 
	1 3 
	0 1 1 
	0.0083333333333333367 1 0.99999999999999989 
	0.025000000000000001 1 0.99999999999999978 
	0.049999999999999968 1 1.0000000000000004 
	0.075000000000000011 1 0.99999999999999989 
	0.099999999999999978 1 1.0000000000000002 
	0.125 1 1 
	0.14999999999999999 1 1.0000000000000002 
	0.17499999999999999 1 0.99999999999999989 
	0.19999999999999998 1 1.0000000000000002 
	0.22499999999999992 1 1 
	0.25 1 1.0000000000000002 
	0.27499999999999991 1 1 
	0.30000000000000004 1 1.0000000000000002 
	0.3249999999999999 1 1 
	0.34999999999999992 1 1 
	0.375 1 1.0000000000000002 
	0.39999999999999991 1 1 
	0.4250000000000001 1 1 
	0.44999999999999979 1 1.0000000000000002 
	0.47499999999999992 1 1 
	0.5 1 1.0000000000000002 
	0.52499999999999991 1 1 
	0.54999999999999982 1 1.0000000000000002 
	0.57499999999999996 1 1 
	0.59999999999999987 1 1.0000000000000002 
	0.62500000000000011 1 1 
	0.6499999999999998 1 1.0000000000000002 
	0.67500000000000004 1 1 
	0.69999999999999984 1 1.0000000000000002 
	0.72500000000000009 1 1 
	0.74999999999999989 1 1 
	0.7749999999999998 1 1.0000000000000002 
	0.79999999999999993 1 0.99999999999999978 
	0.82499999999999996 1 1.0000000000000002 
	0.84999999999999987 1 1 
	0.87499999999999989 1 1.0000000000000002 
	0.8999999999999998 1 1 
	0.92499999999999982 1 1.0000000000000002 
	0.94999999999999984 1 1 
	0.97499999999999998 1 1.0000000000000002 
	0.9916666666666667 1 0.99999999999999989 
	1 1 1 
	
	nullbs 
	I I 
	0 
	0 
	39 0.025291421569173127 0.050509057247097644 0.075658523815242393 0.10074485114859533 0.12577406488100359 0.15075246979643256 0.17568520334289445 0.2005784575888086 0.22542986938343418 0.25024867246901561 0.27505635580239313 0.29987584917900256 0.32472615282730188 0.34961833396733605 0.37455067656690899 0.39952727234434249 0.42455427432905385 0.4496395282459279 0.47479624740778026 0.50004171017997612 0.52539413257282042 0.55075036491231077 0.57600926631091043 0.60117665448787283 0.62625569249064994 0.65124858583551826 0.67615523931623345 0.70097602258174041 0.72571375768367141 0.75038781351856598 0.77503829695175164 0.79971052706042511 0.82444469224040839 0.8492618520643862 0.87416452403615907 0.89915359904288505 0.92422888561881444 0.94939248965854217 0.97464751870570188 
	} I I #
point $-1 52.139157227837039 -0.85253396948849058 -3.1749999999999998 #
straight-curve $-1 -1.3391514999999998 -26.252533969488489 -3.1749999999999998 1 0 0 I I #
point $-1 52.139157227837039 -26.252533969488489 -3.1749999999999998 #
straight-curve $-1 52.139157227837039 -26.252533969488489 -3.1749999999999998 0 1 0 I I #
End-of-ACIS-data 