600 0 1 0           
104 GICL Pro/E ACIS Translator - Source: f:/data5/repository/PTC/V20/NC_Training_Rel20/DXF/part_32.prt - 6 0 13 ACIS 6.0.3 NT 24 Thu Apr 04 13:13:48 2002 
1 9.9999999999999995e-007 1e-010 
body $-1 $1 $-1 $-1 #
lump $-1 $-1 $2 $0 #
shell $-1 $-1 $-1 $3 $-1 $1 #
face $-1 $4 $5 $2 $-1 $6 reversed single #
face $-1 $7 $8 $2 $-1 $9 forward single #
loop $-1 $-1 $10 $3 #
plane-surface $-1 0 5.0799999999999992 0 0 -1 0 1 0 0 forward_v I I I I #
face $-1 $11 $12 $2 $-1 $13 forward single #
loop $-1 $-1 $14 $4 #
plane-surface $-1 38.099999999999994 2.5399999999999996 19.049999999999997 1 0 0 0 0 1 forward_v I I I I #
coedge $-1 $15 $16 $17 $18 reversed $5 $-1 #
face $-1 $19 $20 $2 $-1 $21 reversed single #
loop $-1 $-1 $22 $7 #
plane-surface $-1 0 0 0 0 -1 0 1 0 0 forward_v I I I I #
coedge $-1 $23 $24 $25 $26 reversed $8 $-1 #
coedge $-1 $27 $10 $28 $29 reversed $5 $-1 #
coedge $-1 $10 $30 $31 $32 forward $5 $-1 #
coedge $-1 $24 $23 $10 $18 forward $8 $-1 #
edge $-1 $33 0 $34 7.3913999999999964 $10 $35 forward 7 unknown #
face $-1 $36 $37 $2 $-1 $38 reversed single #
loop $-1 $-1 $39 $11 #
plane-surface $-1 19.049999999999997 2.5399999999999996 38.099999999999994 0 0 -1 1 0 0 forward_v I I I I #
coedge $-1 $40 $41 $42 $43 reversed $12 $-1 #
coedge $-1 $17 $14 $44 $45 forward $8 $-1 #
coedge $-1 $14 $17 $46 $47 forward $8 $-1 #
coedge $-1 $41 $48 $14 $26 forward $12 $-1 #
edge $-1 $49 0 $50 7.3913999999999964 $25 $51 forward 7 unknown #
coedge $-1 $30 $15 $52 $53 forward $5 $-1 #
coedge $-1 $44 $54 $15 $29 forward $55 $-1 #
edge $-1 $56 0 $33 38.099999999999994 $15 $57 forward 7 unknown #
coedge $-1 $16 $27 $39 $58 forward $5 $-1 #
coedge $-1 $59 $46 $16 $32 reversed $60 $-1 #
edge $-1 $61 0 $34 41.373249700328586 $16 $62 forward 7 unknown #
vertex $-1 $29 $63 #
vertex $-1 $32 $64 #
straight-curve $-1 38.099999999999994 5.0799999999999992 0 0 0 1 I I #
face $-1 $65 $55 $2 $-1 $66 forward single #
loop $-1 $-1 $67 $19 #
plane-surface $-1 0 2.5399999999999996 19.049999999999997 1 0 0 0 0 1 forward_v I I I I #
coedge $-1 $68 $69 $30 $58 reversed $20 $-1 #
coedge $-1 $48 $22 $70 $71 reversed $12 $-1 #
coedge $-1 $22 $25 $72 $73 reversed $12 $-1 #
coedge $-1 $69 $68 $22 $43 forward $20 $-1 #
edge $-1 $74 0 $75 10.374061299827211 $22 $76 forward 7 unknown #
coedge $-1 $77 $28 $23 $45 reversed $55 $-1 #
edge $-1 $49 0 $33 5.0799999999999992 $44 $78 forward 7 unknown #
coedge $-1 $31 $72 $24 $47 reversed $60 $-1 #
edge $-1 $34 0 $50 5.0799999999999992 $24 $79 forward 7 unknown #
coedge $-1 $25 $40 $77 $80 forward $12 $-1 #
vertex $-1 $80 $81 #
vertex $-1 $73 $82 #
straight-curve $-1 38.099999999999994 0 0 0 0 1 I I #
coedge $-1 $83 $67 $27 $53 reversed $37 $-1 #
edge $-1 $56 0 $84 38.099999999999994 $27 $85 forward 7 unknown #
coedge $-1 $28 $77 $83 $86 forward $55 $-1 #
loop $-1 $-1 $54 $36 #
vertex $-1 $53 $87 #
straight-curve $-1 0 5.0799999999999992 0 1 0 0 I I #
edge $-1 $84 0 $61 10.374061299827211 $30 $88 forward 7 unknown #
coedge $-1 $72 $31 $69 $89 forward $60 $-1 #
loop $-1 $-1 $59 $65 #
vertex $-1 $32 $90 #
straight-curve $-1 10.374061299827211 5.0799999999999992 38.099999999999994 0.67014167127298652 0 -0.74223321161441458 I I #
point $-1 38.099999999999994 5.0799999999999992 0 #
point $-1 38.099999999999994 5.0799999999999992 7.3913999999999964 #
face $-1 $-1 $60 $2 $-1 $91 forward single #
plane-surface $-1 19.049999999999997 2.5399999999999996 0 0 0 -1 1 0 0 forward_v I I I I #
coedge $-1 $52 $70 $68 $92 forward $37 $-1 #
coedge $-1 $42 $39 $67 $92 reversed $20 $-1 #
coedge $-1 $39 $42 $59 $89 reversed $20 $-1 #
coedge $-1 $67 $83 $40 $71 forward $37 $-1 #
edge $-1 $93 0 $74 38.099999999999994 $70 $94 forward 7 unknown #
coedge $-1 $46 $59 $41 $73 forward $60 $-1 #
edge $-1 $75 0 $50 41.373249700328586 $41 $95 forward 7 unknown #
vertex $-1 $71 $96 #
vertex $-1 $73 $97 #
straight-curve $-1 0 0 38.099999999999994 1 0 0 I I #
coedge $-1 $54 $44 $48 $80 reversed $55 $-1 #
straight-curve $-1 38.099999999999994 0 0 0 1 0 I I #
straight-curve $-1 38.099999999999994 5.0799999999999992 7.3914000000000009 0 -1 0 I I #
edge $-1 $93 0 $49 38.099999999999994 $77 $98 forward 7 unknown #
point $-1 38.099999999999994 0 0 #
point $-1 38.099999999999994 0 7.3913999999999964 #
coedge $-1 $70 $52 $54 $86 reversed $37 $-1 #
vertex $-1 $58 $99 #
straight-curve $-1 0 5.0799999999999992 0 0 0 1 I I #
edge $-1 $93 0 $56 5.0799999999999992 $83 $100 forward 7 unknown #
point $-1 0 5.0799999999999992 0 #
straight-curve $-1 0 5.0799999999999992 38.099999999999994 1 0 0 I I #
edge $-1 $61 0 $75 5.0799999999999992 $69 $101 forward 7 unknown #
point $-1 10.374061299827211 5.0799999999999992 38.099999999999994 #
plane-surface $-1 24.237030649913603 2.5399999999999996 22.745699999999996 0.74223321161441469 0 0.67014167127298663 0.67014167127298652 0 -0.74223321161441458 forward_v I I I I #
edge $-1 $74 0 $84 5.0799999999999992 $67 $102 forward 7 unknown #
vertex $-1 $71 $103 #
straight-curve $-1 0 0 0 0 0 1 I I #
straight-curve $-1 10.374061299827211 0 38.099999999999994 0.67014167127298652 0 -0.74223321161441458 I I #
point $-1 0 0 38.099999999999994 #
point $-1 10.374061299827211 0 38.099999999999994 #
straight-curve $-1 0 0 0 1 0 0 I I #
point $-1 0 5.0799999999999992 38.099999999999994 #
straight-curve $-1 0 0 0 0 1 0 I I #
straight-curve $-1 10.374061299827211 5.0799999999999992 38.099999999999994 0 -1 0 I I #
straight-curve $-1 0 0 38.099999999999994 0 1 0 I I #
point $-1 0 0 0 #
End-of-ACIS-data 