700 0 2 0           
24 FBMach with ACIS - 7.0.3 13 ACIS 7.0.3 NT 24 Wed May 15 10:09:02 2002 
1 9.9999999999999995e-007 1e-010 
body $2 -1 $-1 $3 $-1 $4 #
bdycol-kcp $-1 -1 1 2 $5 $6 #
model_id-kcp-attrib $-1 -1 $-1 $-1 $0 1 1021471742 1021471742 1302134785 1 #
lump $-1 -1 $-1 $-1 $7 $0 #
transform $-1 -1 1.0000000000000002 0 0 0 1 0 0 0 1.0000000000000002 -7.1054273576010019e-015 0 -7.1054273576010019e-015 1 rotate no_reflect no_shear #
body $8 -1 $-1 $9 $-1 $10 #
body $11 -1 $-1 $12 $-1 $13 #
shell $-1 -1 $-1 $-1 $-1 $14 $-1 $3 #
rgb_color-st-attrib $-1 -1 $15 $-1 $5 0.5 1 1 #
lump $-1 -1 $-1 $-1 $16 $5 #
transform $-1 -1 1 0 0 0 1 0 0 0 1 19.049999999999997 2.5399999999999996 19.049999999999997 1 no_rotate no_reflect no_shear #
model_id-kcp-attrib $-1 -1 $-1 $-1 $6 1 1021471742 1021471742 1302134786 1 #
lump $-1 -1 $-1 $-1 $17 $6 #
transform $-1 -1 1 0 0 0 1 0 0 0 1 19.049999999999997 2.5399999999999996 19.049999999999997 1 no_rotate no_reflect no_shear #
face $18 -1 $-1 $19 $20 $7 $-1 $21 reversed single #
model_id-kcp-attrib $-1 -1 $-1 $8 $5 1 1021471742 1021471742 1294532611 1 #
shell $-1 -1 $-1 $-1 $-1 $22 $-1 $9 #
shell $-1 -1 $-1 $-1 $-1 $23 $-1 $12 #
model_id-kcp-attrib $-1 -1 $-1 $-1 $14 1 1021471742 1021471742 1302134785 2 #
face $24 -1 $-1 $25 $26 $7 $-1 $27 forward single #
loop $-1 -1 $-1 $-1 $28 $14 #
plane-surface $-1 -1 $-1 0 5.0799999999999992 0 0 -1 0 1 0 0 forward_v I I I I #
face $-1 -1 $-1 $29 $30 $16 $-1 $31 reversed single #
face $32 -1 $-1 $33 $34 $17 $-1 $35 forward single #
model_id-kcp-attrib $-1 -1 $-1 $-1 $19 1 1021471742 1021471742 1302134785 3 #
face $36 -1 $-1 $37 $38 $7 $-1 $39 forward single #
loop $-1 -1 $-1 $-1 $40 $19 #
plane-surface $-1 -1 $-1 38.099999999999994 2.5399999999999996 19.049999999999997 1 0 0 0 0 1 forward_v I I I I #
coedge $-1 -1 $-1 $41 $42 $43 $44 reversed $20 $-1 #
face $-1 -1 $-1 $45 $46 $16 $-1 $47 reversed single #
loop $-1 -1 $-1 $-1 $48 $22 #
plane-surface $-1 -1 $-1 19.049999999999997 2.5399999999999996 -11.6586 0.74223321161441469 0 0.67014167127298663 0 1 0 forward_v I I I I #
model_id-kcp-attrib $-1 -1 $-1 $-1 $23 1 1021471742 1021471742 1302134786 5 #
face $49 -1 $-1 $50 $51 $17 $-1 $52 reversed single #
loop $-1 -1 $-1 $-1 $53 $23 #
plane-surface $-1 -1 $-1 0 0 19.049999999999997 0 0 1 1 0 0 forward_v I I I I #
model_id-kcp-attrib $-1 -1 $-1 $-1 $25 1 1021471742 1021471742 1302134785 4 #
face $54 -1 $-1 $55 $56 $7 $-1 $57 reversed single #
loop $-1 -1 $-1 $-1 $58 $25 #
plane-surface $-1 -1 $-1 0 0 0 0 -1 0 1 0 0 forward_v I I I I #
coedge $-1 -1 $-1 $59 $60 $61 $62 reversed $26 $-1 #
coedge $-1 -1 $-1 $63 $28 $64 $65 reversed $20 $-1 #
coedge $-1 -1 $-1 $28 $66 $67 $68 forward $20 $-1 #
coedge $-1 -1 $-1 $60 $59 $28 $44 forward $26 $-1 #
edge $69 -1 $-1 $70 0 $71 7.3913999999999964 $28 $72 forward @7 unknown #
face $-1 -1 $-1 $73 $74 $16 $-1 $75 reversed single #
loop $-1 -1 $-1 $-1 $76 $29 #
plane-surface $-1 -1 $-1 0 2.5399999999999996 0 0 -1 0 0 0 -1 forward_v I I I I #
coedge $-1 -1 $-1 $77 $78 $76 $79 reversed $30 $-1 #
model_id-kcp-attrib $-1 -1 $-1 $-1 $33 1 1021471742 1021471742 1302134786 7 #
face $80 -1 $-1 $81 $82 $17 $-1 $83 reversed single #
loop $-1 -1 $-1 $-1 $84 $33 #
plane-surface $-1 -1 $-1 0 0 -19.049999999999997 0 0 1 1 0 0 forward_v I I I I #
coedge $-1 -1 $-1 $85 $86 $87 $88 forward $34 $-1 #
model_id-kcp-attrib $-1 -1 $-1 $-1 $37 1 1021471742 1021471742 1302134785 5 #
face $89 -1 $-1 $90 $91 $7 $-1 $92 reversed single #
loop $-1 -1 $-1 $-1 $93 $37 #
plane-surface $-1 -1 $-1 19.049999999999997 2.5399999999999996 38.099999999999994 0 0 -1 1 0 0 forward_v I I I I #
coedge $-1 -1 $-1 $94 $95 $96 $97 reversed $38 $-1 #
coedge $-1 -1 $-1 $43 $40 $98 $99 forward $26 $-1 #
coedge $-1 -1 $-1 $40 $43 $100 $101 forward $26 $-1 #
coedge $-1 -1 $-1 $95 $102 $40 $62 forward $38 $-1 #
edge $103 -1 $-1 $104 0 $105 7.3913999999999964 $61 $106 forward @7 unknown #
coedge $-1 -1 $-1 $66 $41 $107 $108 forward $20 $-1 #
coedge $-1 -1 $-1 $98 $109 $41 $65 forward $110 $-1 #
edge $111 -1 $-1 $112 0 $70 38.099999999999994 $41 $113 forward @7 unknown #
coedge $-1 -1 $-1 $42 $63 $93 $114 forward $20 $-1 #
coedge $-1 -1 $-1 $115 $100 $42 $68 reversed $116 $-1 #
edge $117 -1 $-1 $118 0 $71 41.373249700328586 $42 $119 forward @7 unknown #
attrib_edge_convexity-kcp-attrib $-1 -1 $120 $-1 $44 1 #
vertex $-1 -1 $-1 $65 $121 #
vertex $-1 -1 $-1 $68 $122 #
straight-curve $-1 -1 $-1 38.099999999999994 5.0799999999999992 0 0 0 1 I I #
face $-1 -1 $-1 $123 $124 $16 $-1 $125 forward single #
loop $-1 -1 $-1 $-1 $126 $45 #
plane-surface $-1 -1 $-1 0 -2.5399999999999996 0 0 1 0 0 0 1 forward_v I I I I #
coedge $-1 -1 $-1 $127 $128 $48 $79 forward $46 $-1 #
coedge $-1 -1 $-1 $129 $48 $130 $131 reversed $30 $-1 #
coedge $-1 -1 $-1 $48 $129 $132 $133 reversed $30 $-1 #
edge $-1 -1 $-1 $134 -10.709799479339104 $135 30.663450220989475 $76 $136 forward @7 unknown #
model_id-kcp-attrib $-1 -1 $-1 $-1 $50 1 1021471742 1021471742 1302134786 4 #
face $137 -1 $-1 $138 $139 $17 $-1 $140 reversed single #
loop $-1 -1 $-1 $-1 $141 $50 #
plane-surface $-1 -1 $-1 0 -2.5399999999999996 0 0 1 0 0 0 1 forward_v I I I I #
coedge $-1 -1 $-1 $142 $143 $144 $145 forward $51 $-1 #
coedge $-1 -1 $-1 $146 $53 $147 $148 forward $34 $-1 #
coedge $-1 -1 $-1 $53 $146 $149 $150 forward $34 $-1 #
coedge $-1 -1 $-1 $151 $152 $53 $88 reversed $153 $-1 #
edge $-1 -1 $-1 $154 -2.5399999999999996 $155 2.5399999999999996 $87 $156 forward @7 unknown #
model_id-kcp-attrib $-1 -1 $-1 $-1 $55 1 1021471742 1021471742 1302134785 6 #
face $157 -1 $-1 $158 $110 $7 $-1 $159 forward single #
loop $-1 -1 $-1 $-1 $160 $55 #
plane-surface $-1 -1 $-1 0 2.5399999999999996 19.049999999999997 1 0 0 0 0 1 forward_v I I I I #
coedge $-1 -1 $-1 $161 $162 $66 $114 reversed $56 $-1 #
coedge $-1 -1 $-1 $102 $58 $163 $164 reversed $38 $-1 #
coedge $-1 -1 $-1 $58 $61 $165 $166 reversed $38 $-1 #
coedge $-1 -1 $-1 $162 $161 $58 $97 forward $56 $-1 #
edge $167 -1 $-1 $168 0 $169 10.374061299827211 $58 $170 forward @7 unknown #
coedge $-1 -1 $-1 $171 $64 $59 $99 reversed $110 $-1 #
edge $172 -1 $-1 $104 0 $70 5.0799999999999992 $98 $173 forward @7 unknown #
coedge $-1 -1 $-1 $67 $165 $60 $101 reversed $116 $-1 #
edge $174 -1 $-1 $71 0 $105 5.0799999999999992 $60 $175 forward @7 unknown #
coedge $-1 -1 $-1 $61 $94 $171 $176 forward $38 $-1 #
model_id-kcp-attrib $-1 -1 $177 $-1 $62 1 1021471742 1021471742 1302134785 12 #
vertex $-1 -1 $-1 $176 $178 #
vertex $-1 -1 $-1 $166 $179 #
straight-curve $-1 -1 $-1 38.099999999999994 0 0 0 0 1 I I #
coedge $-1 -1 $-1 $180 $160 $63 $108 reversed $91 $-1 #
edge $181 -1 $-1 $112 0 $182 38.099999999999994 $63 $183 forward @7 unknown #
coedge $-1 -1 $-1 $64 $171 $180 $184 forward $110 $-1 #
loop $-1 -1 $-1 $-1 $109 $90 #
attrib_edge_convexity-kcp-attrib $-1 -1 $185 $-1 $65 1 #
vertex $-1 -1 $-1 $108 $186 #
straight-curve $-1 -1 $-1 0 5.0799999999999992 0 1 0 0 I I #
edge $187 -1 $-1 $182 0 $118 10.374061299827211 $66 $188 forward @7 unknown #
coedge $-1 -1 $-1 $165 $67 $162 $189 forward $116 $-1 #
loop $-1 -1 $-1 $-1 $115 $158 #
attrib_edge_convexity-kcp-attrib $-1 -1 $190 $-1 $68 1 #
vertex $-1 -1 $-1 $68 $191 #
straight-curve $-1 -1 $-1 10.374061299827211 5.0799999999999992 38.099999999999994 0.67014167127298652 0 -0.74223321161441458 I I #
convexity-sys-attrib $-1 -1 $-1 $69 $44 #
point $-1 -1 $-1 38.099999999999994 5.0799999999999992 0 #
point $-1 -1 $-1 38.099999999999994 5.0799999999999992 7.3913999999999964 #
face $-1 -1 $-1 $-1 $192 $16 $-1 $193 reversed single #
loop $-1 -1 $-1 $-1 $132 $73 #
plane-surface $-1 -1 $-1 0 0 19.049999999999997 0 0 1 1 0 0 forward_v I I I I #
coedge $-1 -1 $-1 $194 $195 $129 $196 forward $74 $-1 #
coedge $-1 -1 $-1 $128 $76 $197 $198 reversed $46 $-1 #
coedge $-1 -1 $-1 $76 $127 $199 $200 forward $46 $-1 #
coedge $-1 -1 $-1 $78 $77 $126 $196 reversed $30 $-1 #
coedge $-1 -1 $-1 $199 $201 $77 $131 forward $192 $-1 #
edge $-1 -1 $-1 $202 -3.8099999999999996 $134 1.2699999999999998 $130 $203 forward @7 unknown #
coedge $-1 -1 $-1 $204 $197 $78 $133 forward $124 $-1 #
edge $-1 -1 $-1 $135 -1.2699999999999998 $205 3.8099999999999996 $132 $206 forward @7 unknown #
vertex $-1 -1 $-1 $79 $207 #
vertex $-1 -1 $-1 $79 $208 #
straight-curve $-1 -1 $-1 11.87291707791713 2.5399999999999996 -3.7094311367037514 -0.67014167127298663 0 0.74223321161441469 I I #
model_id-kcp-attrib $-1 -1 $-1 $-1 $81 1 1021471742 1021471742 1302134786 6 #
face $209 -1 $-1 $210 $211 $17 $-1 $212 reversed single #
loop $-1 -1 $-1 $-1 $213 $81 #
plane-surface $-1 -1 $-1 -19.049999999999997 0 0 1 0 0 0 0 -1 forward_v I I I I #
coedge $-1 -1 $-1 $214 $149 $215 $216 forward $82 $-1 #
coedge $-1 -1 $-1 $217 $84 $214 $218 forward $51 $-1 #
coedge $-1 -1 $-1 $84 $217 $219 $220 forward $51 $-1 #
coedge $-1 -1 $-1 $152 $151 $84 $145 reversed $153 $-1 #
edge $-1 -1 $-1 $221 -2.5399999999999996 $222 2.5399999999999996 $144 $223 forward @7 unknown #
coedge $-1 -1 $-1 $86 $85 $224 $225 forward $34 $-1 #
coedge $-1 -1 $-1 $226 $227 $85 $148 reversed $211 $-1 #
edge $-1 -1 $-1 $155 -19.049999999999997 $228 19.049999999999997 $147 $229 forward @7 unknown #
coedge $-1 -1 $-1 $141 $230 $86 $150 reversed $82 $-1 #
edge $-1 -1 $-1 $231 -19.049999999999997 $154 19.049999999999997 $149 $232 forward @7 unknown #
coedge $-1 -1 $-1 $144 $87 $230 $233 forward $153 $-1 #
coedge $-1 -1 $-1 $87 $144 $226 $234 reversed $153 $-1 #
loop $-1 -1 $-1 $-1 $151 $210 #
vertex $-1 -1 $-1 $88 $235 #
vertex $-1 -1 $-1 $88 $236 #
straight-curve $-1 -1 $-1 19.049999999999997 0 19.049999999999997 0 1 0 I I #
model_id-kcp-attrib $-1 -1 $-1 $-1 $90 1 1021471742 1021471742 1302134785 7 #
face $237 -1 $-1 $-1 $116 $7 $-1 $238 forward single #
plane-surface $-1 -1 $-1 19.049999999999997 2.5399999999999996 0 0 0 -1 1 0 0 forward_v I I I I #
coedge $-1 -1 $-1 $107 $163 $161 $239 forward $91 $-1 #
coedge $-1 -1 $-1 $96 $93 $160 $239 reversed $56 $-1 #
coedge $-1 -1 $-1 $93 $96 $115 $189 reversed $56 $-1 #
coedge $-1 -1 $-1 $160 $180 $94 $164 forward $91 $-1 #
edge $240 -1 $-1 $241 0 $168 38.099999999999994 $163 $242 forward @7 unknown #
coedge $-1 -1 $-1 $100 $115 $95 $166 forward $116 $-1 #
edge $243 -1 $-1 $169 0 $105 41.373249700328586 $95 $244 forward @7 unknown #
model_id-kcp-attrib $-1 -1 $245 $-1 $97 1 1021471742 1021471742 1302134785 11 #
vertex $-1 -1 $-1 $164 $246 #
vertex $-1 -1 $-1 $166 $247 #
straight-curve $-1 -1 $-1 0 0 38.099999999999994 1 0 0 I I #
coedge $-1 -1 $-1 $109 $98 $102 $176 reversed $110 $-1 #
attrib_edge_convexity-kcp-attrib $-1 -1 $248 $-1 $99 1 #
straight-curve $-1 -1 $-1 38.099999999999994 0 0 0 1 0 I I #
attrib_edge_convexity-kcp-attrib $-1 -1 $249 $-1 $101 1 #
straight-curve $-1 -1 $-1 38.099999999999994 5.0799999999999992 7.3914000000000009 0 -1 0 I I #
edge $250 -1 $-1 $241 0 $104 38.099999999999994 $171 $251 forward @7 unknown #
attrib_edge_convexity-kcp-attrib $-1 -1 $252 $103 $62 1 #
point $-1 -1 $-1 38.099999999999994 0 0 #
point $-1 -1 $-1 38.099999999999994 0 7.3913999999999964 #
coedge $-1 -1 $-1 $163 $107 $109 $184 reversed $91 $-1 #
attrib_edge_convexity-kcp-attrib $-1 -1 $253 $-1 $108 1 #
vertex $-1 -1 $-1 $114 $254 #
straight-curve $-1 -1 $-1 0 5.0799999999999992 0 0 0 1 I I #
edge $-1 -1 $-1 $241 0 $112 5.0799999999999992 $180 $255 forward @7 unknown #
convexity-sys-attrib $-1 -1 $-1 $111 $65 #
point $-1 -1 $-1 0 5.0799999999999992 0 #
attrib_edge_convexity-kcp-attrib $-1 -1 $256 $-1 $114 1 #
straight-curve $-1 -1 $-1 0 5.0799999999999992 38.099999999999994 1 0 0 I I #
edge $257 -1 $-1 $118 0 $169 5.0799999999999992 $162 $258 forward @7 unknown #
convexity-sys-attrib $-1 -1 $-1 $117 $68 #
point $-1 -1 $-1 10.374061299827211 5.0799999999999992 38.099999999999994 #
loop $-1 -1 $-1 $-1 $130 $123 #
plane-surface $-1 -1 $-1 19.049999999999997 0 0 -1 0 0 0 0 1 forward_v I I I I #
coedge $-1 -1 $-1 $195 $126 $201 $259 reversed $74 $-1 #
coedge $-1 -1 $-1 $126 $194 $204 $260 reversed $74 $-1 #
edge $-1 -1 $-1 $205 -30.663450220989475 $202 10.709799479339104 $126 $261 forward @7 unknown #
coedge $-1 -1 $-1 $132 $262 $127 $198 forward $124 $-1 #
edge $-1 -1 $-1 $263 -19.049999999999997 $135 8.6759387001727841 $127 $264 forward @7 unknown #
coedge $-1 -1 $-1 $265 $130 $128 $200 reversed $192 $-1 #
edge $-1 -1 $-1 $263 -19.049999999999997 $134 11.6586 $199 $266 forward @7 unknown #
coedge $-1 -1 $-1 $130 $265 $194 $259 forward $192 $-1 #
vertex $-1 -1 $-1 $196 $267 #
straight-curve $-1 -1 $-1 19.049999999999997 1.2699999999999998 -11.6586 0 1 0 I I #
coedge $-1 -1 $-1 $262 $132 $195 $260 forward $124 $-1 #
vertex $-1 -1 $-1 $260 $268 #
straight-curve $-1 -1 $-1 -8.6759387001727877 1.2699999999999998 19.049999999999997 0 -1 0 I I #
point $-1 -1 $-1 19.049999999999997 2.5399999999999996 -11.6586 #
point $-1 -1 $-1 -8.6759387001727841 2.5399999999999996 19.049999999999997 #
model_id-kcp-attrib $-1 -1 $-1 $-1 $138 1 1021471742 1021471742 1302134786 2 #
face $269 -1 $-1 $-1 $153 $17 $-1 $270 reversed single #
loop $-1 -1 $-1 $-1 $226 $138 #
plane-surface $-1 -1 $-1 0 2.5399999999999996 0 0 -1 0 0 0 -1 forward_v I I I I #
coedge $-1 -1 $-1 $271 $224 $227 $272 forward $139 $-1 #
coedge $-1 -1 $-1 $230 $141 $142 $218 reversed $82 $-1 #
coedge $-1 -1 $-1 $224 $271 $141 $216 reversed $139 $-1 #
edge $-1 -1 $-1 $231 -19.049999999999997 $273 19.049999999999997 $215 $274 forward @7 unknown #
coedge $-1 -1 $-1 $143 $142 $271 $275 forward $51 $-1 #
edge $-1 -1 $-1 $222 -19.049999999999997 $273 19.049999999999997 $214 $276 forward @7 unknown #
coedge $-1 -1 $-1 $227 $226 $143 $220 reversed $211 $-1 #
edge $-1 -1 $-1 $277 -19.049999999999997 $221 19.049999999999997 $219 $278 forward @7 unknown #
vertex $-1 -1 $-1 $145 $279 #
vertex $-1 -1 $-1 $233 $280 #
straight-curve $-1 -1 $-1 19.049999999999997 0 -19.049999999999997 0 -1 0 I I #
coedge $-1 -1 $-1 $213 $215 $146 $225 reversed $139 $-1 #
edge $-1 -1 $-1 $228 -2.5399999999999996 $231 2.5399999999999996 $224 $281 forward @7 unknown #
coedge $-1 -1 $-1 $219 $147 $152 $234 forward $211 $-1 #
coedge $-1 -1 $-1 $147 $219 $213 $272 reversed $211 $-1 #
vertex $-1 -1 $-1 $148 $282 #
straight-curve $-1 -1 $-1 0 2.5399999999999996 19.049999999999997 -1 0 0 I I #
coedge $-1 -1 $-1 $149 $214 $151 $233 reversed $82 $-1 #
vertex $-1 -1 $-1 $225 $283 #
straight-curve $-1 -1 $-1 0 -2.5399999999999996 19.049999999999997 1 0 0 I I #
edge $-1 -1 $-1 $154 -19.049999999999997 $222 19.049999999999997 $151 $284 forward @7 unknown #
edge $-1 -1 $-1 $155 -19.049999999999997 $221 19.049999999999997 $152 $285 forward @7 unknown #
point $-1 -1 $-1 19.049999999999997 -2.5399999999999996 19.049999999999997 #
point $-1 -1 $-1 19.049999999999997 2.5399999999999996 19.049999999999997 #
model_id-kcp-attrib $-1 -1 $-1 $-1 $158 1 1021471742 1021471742 1302134785 8 #
plane-surface $-1 -1 $-1 24.237030649913603 2.5399999999999996 22.745699999999996 0.74223321161441469 0 0.67014167127298663 0.67014167127298652 0 -0.74223321161441458 forward_v I I I I #
edge $286 -1 $-1 $168 0 $182 5.0799999999999992 $160 $287 forward @7 unknown #
model_id-kcp-attrib $-1 -1 $-1 $-1 $164 1 1021471742 1021471742 1302134785 10 #
vertex $-1 -1 $-1 $164 $288 #
straight-curve $-1 -1 $-1 0 0 0 0 0 1 I I #
attrib_edge_convexity-kcp-attrib $-1 -1 $289 $-1 $166 1 #
straight-curve $-1 -1 $-1 10.374061299827211 0 38.099999999999994 0.67014167127298652 0 -0.74223321161441458 I I #
attrib_edge_convexity-kcp-attrib $-1 -1 $290 $167 $97 1 #
point $-1 -1 $-1 0 0 38.099999999999994 #
point $-1 -1 $-1 10.374061299827211 0 38.099999999999994 #
convexity-sys-attrib $-1 -1 $-1 $172 $99 #
convexity-sys-attrib $-1 -1 $-1 $174 $101 #
model_id-kcp-attrib $-1 -1 $-1 $-1 $176 1 1021471742 1021471742 1302134785 13 #
straight-curve $-1 -1 $-1 0 0 0 1 0 0 I I #
convexity-sys-attrib $-1 -1 $-1 $177 $62 #
convexity-sys-attrib $-1 -1 $-1 $181 $108 #
point $-1 -1 $-1 0 5.0799999999999992 38.099999999999994 #
straight-curve $-1 -1 $-1 0 0 0 0 1 0 I I #
convexity-sys-attrib $-1 -1 $-1 $187 $114 #
attrib_edge_convexity-kcp-attrib $-1 -1 $291 $-1 $189 1 #
straight-curve $-1 -1 $-1 10.374061299827211 5.0799999999999992 38.099999999999994 0 -1 0 I I #
edge $-1 -1 $-1 $292 -19.049999999999997 $202 11.6586 $201 $293 forward @7 unknown #
edge $-1 -1 $-1 $205 -8.6759387001727841 $292 19.049999999999997 $195 $294 forward @7 unknown #
straight-curve $-1 -1 $-1 11.87291707791713 -2.5399999999999996 -3.7094311367037514 0.67014167127298663 0 -0.74223321161441469 I I #
coedge $-1 -1 $-1 $197 $204 $265 $295 forward $124 $-1 #
vertex $-1 -1 $-1 $295 $296 #
straight-curve $-1 -1 $-1 0 2.5399999999999996 19.049999999999997 -1 0 0 I I #
coedge $-1 -1 $-1 $201 $199 $262 $295 reversed $192 $-1 #
straight-curve $-1 -1 $-1 19.049999999999997 2.5399999999999996 0 0 0 -1 I I #
point $-1 -1 $-1 19.049999999999997 -2.5399999999999996 -11.6586 #
point $-1 -1 $-1 -8.6759387001727841 -2.5399999999999996 19.049999999999997 #
model_id-kcp-attrib $-1 -1 $-1 $-1 $210 1 1021471742 1021471742 1302134786 3 #
plane-surface $-1 -1 $-1 19.049999999999997 0 0 -1 0 0 0 0 1 forward_v I I I I #
coedge $-1 -1 $-1 $215 $213 $217 $275 reversed $139 $-1 #
edge $-1 -1 $-1 $228 -19.049999999999997 $277 19.049999999999997 $227 $297 forward @7 unknown #
vertex $-1 -1 $-1 $275 $298 #
straight-curve $-1 -1 $-1 -19.049999999999997 -2.5399999999999996 0 0 0 -1 I I #
edge $-1 -1 $-1 $273 -2.5399999999999996 $277 2.5399999999999996 $271 $299 forward @7 unknown #
straight-curve $-1 -1 $-1 0 -2.5399999999999996 -19.049999999999997 -1 0 0 I I #
vertex $-1 -1 $-1 $220 $300 #
straight-curve $-1 -1 $-1 0 2.5399999999999996 -19.049999999999997 1 0 0 I I #
point $-1 -1 $-1 19.049999999999997 2.5399999999999996 -19.049999999999997 #
point $-1 -1 $-1 19.049999999999997 -2.5399999999999996 -19.049999999999997 #
straight-curve $-1 -1 $-1 -19.049999999999997 0 19.049999999999997 0 -1 0 I I #
point $-1 -1 $-1 -19.049999999999997 2.5399999999999996 19.049999999999997 #
point $-1 -1 $-1 -19.049999999999997 -2.5399999999999996 19.049999999999997 #
straight-curve $-1 -1 $-1 19.049999999999997 -2.5399999999999996 0 0 0 -1 I I #
straight-curve $-1 -1 $-1 19.049999999999997 2.5399999999999996 0 0 0 -1 I I #
attrib_edge_convexity-kcp-attrib $-1 -1 $301 $-1 $239 1 #
straight-curve $-1 -1 $-1 0 0 38.099999999999994 0 1 0 I I #
point $-1 -1 $-1 0 0 0 #
convexity-sys-attrib $-1 -1 $-1 $243 $166 #
convexity-sys-attrib $-1 -1 $-1 $245 $97 #
convexity-sys-attrib $-1 -1 $-1 $257 $189 #
vertex $-1 -1 $-1 $295 $302 #
straight-curve $-1 -1 $-1 19.049999999999997 -2.5399999999999996 0 0 0 -1 I I #
straight-curve $-1 -1 $-1 0 -2.5399999999999996 19.049999999999997 1 0 0 I I #
edge $-1 -1 $-1 $292 -2.5399999999999996 $263 2.5399999999999996 $265 $303 forward @7 unknown #
point $-1 -1 $-1 19.049999999999997 2.5399999999999996 19.049999999999997 #
straight-curve $-1 -1 $-1 -19.049999999999997 2.5399999999999996 0 0 0 -1 I I #
point $-1 -1 $-1 -19.049999999999997 -2.5399999999999996 -19.049999999999997 #
straight-curve $-1 -1 $-1 -19.049999999999997 0 -19.049999999999997 0 1 0 I I #
point $-1 -1 $-1 -19.049999999999997 2.5399999999999996 -19.049999999999997 #
convexity-sys-attrib $-1 -1 $-1 $286 $239 #
point $-1 -1 $-1 19.049999999999997 -2.5399999999999996 19.049999999999997 #
straight-curve $-1 -1 $-1 19.049999999999997 0 19.049999999999997 0 1 0 I I #
End-of-ACIS-data 