999
DXF file: shields.dxf
999
Pro/ENGINEER 9801 by Parametric Technology Corporation
0
SECTION
2
HEADER
9
$EXTMAX
10
22.0000000000
20
17.0000000000
9
$EXTMIN
10
0.0000000000
20
0.0000000000
9
$LIMMIN
10
0.0000000000
20
0.0000000000
9
$LIMMAX
10
22.0000000000
20
17.0000000000
9
$VIEWCTR
10
11.0000000000
20
8.5000000000
9
$VIEWSIZE
40
17.0000000000
9
$CLAYER
8
0
9
$LTSCALE
40
1.2100000000
9
$CELTYPE
6
BYLAYER
9
$DIMSCALE
40
1
9
$DIMASZ
40
0.1875000000
9
$DIMEXO
40
0.1375000000
9
$DIMDLI
40
0.8360000000
9
$DIMEXE
40
0.3960000000
9
$DIMCEN
40
0.1980000000
9
$DIMTXT
40
0.2486049107
0
ENDSEC
0
SECTION
2
TABLES
0
TABLE
2
LTYPE
70
6
0
LTYPE
2
CONTINUOUS
70
64
3
Solid line
72
65
73
0
40
0
0
LTYPE
2
CENTER
70
64
3
____ _ ____ _ ____ _ ____ _ ____ _ ____ _ ____
72
65
73
4
40
0.6
49
0.375
49
-0.075
49
0.075
49
-0.075
0
LTYPE
2
HIDDEN
70
64
3
- - - - - - - - - - - - - - - - - - - -
72
65
73
2
40
0.2
49
0.1
49
-0.1
0
LTYPE
2
PHANTOM
70
64
3
_____ _ _ _____ _ _ _____ _ _ _____
72
65
73
6
40
0.8
49
0.45
49
-0.05
49
0.1
49
-0.05
49
0.1
49
-0.05
0
LTYPE
2
DOT
70
64
3
. . . . . . . . . . . . . . . . . . . .
72
65
73
2
40
0.2
49
0.1
49
-0.1
0
LTYPE
2
DASHED
70
64
3
- - - - - - - - - - - - - - - - - - - -
72
65
73
2
40
0.2
49
0.1
49
-0.1
0
ENDTAB
0
TABLE
2
LAYER
70
36
0
LAYER
2
0
70
0
62
7
6
CONTINUOUS
0
LAYER
2
DEFAULT_1
70
0
62
7
6
CENTER
0
LAYER
2
DEFAULT_2
70
0
62
7
6
HIDDEN
0
LAYER
2
DEFAULT_3
70
0
62
7
6
PHANTOM
0
ENDTAB
0
ENDSEC
0
SECTION
2
BLOCKS
0
ENDSEC
0
SECTION
2
ENTITIES
0
LINE
8
0
62
3
10
-15.5208086801
20
14.2256444940
11
-15.5208086801
21
29.9343059113
0
LINE
8
0
62
3
10
-15.0545693967
20
29.9343059113
11
-15.0545693967
21
29.8161956751
0
LINE
8
0
62
3
10
-15.0545693967
20
14.2256444940
11
-15.0545693967
21
14.3437547302
0
LINE
8
0
62
3
10
-14.9741568851
20
30.4337136118
11
-14.9741568851
21
29.9674743285
0
LINE
8
0
62
3
10
-14.9741568851
20
14.1924760768
11
-14.9741568851
21
13.7262367935
0
LINE
8
0
62
3
10
-14.8970890818
20
29.9674743285
11
-14.8970890818
21
29.8161956751
0
LINE
8
0
62
3
10
-14.8970890818
20
14.1924760768
11
-14.8970890818
21
14.3437547302
0
LINE
8
0
62
3
10
-14.9741568851
20
13.7262367935
11
1.4667879968
21
13.7262367935
0
LINE
8
0
62
3
10
-14.5292749953
20
14.1784003995
11
-14.5292749953
21
14.4421799271
0
LINE
8
0
62
3
10
-14.5292749953
20
29.7177704782
11
-14.5292749953
21
29.9815500058
0
LINE
8
0
62
3
10
-13.6631332630
20
14.1784003995
11
-14.5292749953
21
14.1784003995
0
LINE
8
0
62
3
10
1.4667879968
20
14.1924760768
11
1.3897201935
21
14.1924760768
0
LINE
8
0
62
3
10
-14.8970890818
20
14.1924760768
11
-14.9741568851
21
14.1924760768
0
LINE
8
0
62
3
10
2.0134397918
20
14.2256444940
11
1.5472005085
21
14.2256444940
0
LINE
8
0
62
3
10
-15.0545693967
20
14.2256444940
11
-15.5208086801
21
14.2256444940
0
LINE
8
0
62
3
10
-14.5292749953
20
14.4421799271
11
-13.6631332630
21
14.4421799271
0
LINE
8
0
62
3
10
-13.6631332630
20
14.1784003995
11
-13.6631332630
21
14.4421799271
0
LINE
8
0
62
3
10
-13.6631332630
20
29.7177704782
11
-13.6631332630
21
29.9815500058
0
LINE
8
0
62
3
10
-13.4465978300
20
18.2217074861
11
-13.4465978300
21
20.0327311082
0
LINE
8
0
62
3
10
-10.5686450741
20
26.7256444940
11
-10.5686450741
21
22.5130460688
0
LINE
8
0
62
3
10
-0.8481726331
20
18.2217074861
11
-13.4465978300
21
18.2217074861
0
LINE
8
0
62
3
10
-8.7576214520
20
22.5130460688
11
-8.7576214520
21
26.7256444940
0
LINE
8
0
62
3
10
-13.4465978300
20
20.0327311082
11
-7.8068340504
21
20.0327311082
0
LINE
8
0
62
3
10
-5.7005348378
20
20.0327311082
11
-0.8481726331
21
20.0327311082
0
LINE
8
0
62
3
10
-7.8068340504
20
20.0327311082
11
-7.8068340504
21
21.6075342578
0
LINE
8
0
62
3
10
-7.8068340504
20
21.6075342578
11
-5.7005348378
21
21.6075342578
0
LINE
8
0
62
3
10
-10.5686450741
20
22.5130460688
11
-8.7576214520
21
22.5130460688
0
LINE
8
0
62
3
10
-2.9387238142
20
22.5130460688
11
-4.7497474363
21
22.5130460688
0
LINE
8
0
62
3
10
-5.7005348378
20
21.6075342578
11
-5.7005348378
21
20.0327311082
0
LINE
8
0
62
3
10
-4.7497474363
20
22.5130460688
11
-4.7497474363
21
26.7256444940
0
LINE
8
0
62
3
10
-2.9387238142
20
26.7256444940
11
-2.9387238142
21
22.5130460688
0
LINE
8
0
62
3
10
-4.7497474363
20
26.7256444940
11
-2.9387238142
21
26.7256444940
0
LINE
8
0
62
3
10
-8.7576214520
20
26.7256444940
11
-10.5686450741
21
26.7256444940
0
LINE
8
0
62
3
10
-0.8481726331
20
20.0327311082
11
-0.8481726331
21
18.2217074861
0
LINE
8
0
62
3
10
1.3897201935
20
14.1924760768
11
1.3897201935
21
14.3437547302
0
LINE
8
0
62
3
10
1.3897201935
20
29.8161956751
11
1.3897201935
21
29.9674743285
0
LINE
8
0
62
3
10
-13.6631332630
20
29.7177704782
11
-14.5292749953
21
29.7177704782
0
LINE
8
0
62
3
10
2.0134397918
20
29.9343059113
11
1.5472005085
21
29.9343059113
0
LINE
8
0
62
3
10
-15.0545693967
20
29.9343059113
11
-15.5208086801
21
29.9343059113
0
LINE
8
0
62
3
10
-14.9741568851
20
29.9674743285
11
-14.8970890818
21
29.9674743285
0
LINE
8
0
62
3
10
1.3897201935
20
29.9674743285
11
1.4667879968
21
29.9674743285
0
LINE
8
0
62
3
10
-14.5292749953
20
29.9815500058
11
-13.6631332630
21
29.9815500058
0
LINE
8
0
62
3
10
1.4667879968
20
13.7262367935
11
1.4667879968
21
14.1924760768
0
LINE
8
0
62
3
10
1.4667879968
20
29.9674743285
11
1.4667879968
21
30.4337136118
0
LINE
8
0
62
3
10
1.5472005085
20
29.9343059113
11
1.5472005085
21
29.8161956751
0
LINE
8
0
62
3
10
1.5472005085
20
14.2256444940
11
1.5472005085
21
14.3437547302
0
LINE
8
0
62
3
10
2.0134397918
20
14.2256444940
11
2.0134397918
21
29.9343059113
0
LINE
8
0
62
3
10
1.4667879968
20
30.4337136118
11
-14.9741568851
21
30.4337136118
0
ARC
8
0
62
3
10
-14.9758292393
20
14.3437547302
40
0.0787401575
50
360.0000000000
51
540.0000000000
0
ARC
8
0
62
3
10
-14.9758292393
20
29.8161956751
40
0.0787401575
50
180.0000000000
51
360.0000000000
0
CIRCLE
8
0
62
3
10
0.5888352409
20
14.7965106357
40
0.1082677165
0
CIRCLE
8
0
62
3
10
0.5888352409
20
29.3634397696
40
0.1082677165
0
CIRCLE
8
0
62
3
10
-14.0962041292
20
14.7965106357
40
0.1082677165
0
CIRCLE
8
0
62
3
10
-14.0962041292
20
29.3634397696
40
0.1082677165
0
CIRCLE
8
0
62
3
10
-14.0962041292
20
15.3083216593
40
0.0962598425
0
CIRCLE
8
0
62
3
10
-14.0962041292
20
28.8516287459
40
0.0962598425
0
ARC
8
0
62
3
10
1.4684603510
20
14.3437547302
40
0.0787401575
50
360.0000000000
51
540.0000000000
0
ARC
8
0
62
3
10
1.4684603510
20
29.8161956751
40
0.0787401575
50
180.0000000000
51
360.0000000000
0
ENDSEC
0
EOF
