999
DXF file: curve_part.dxf
999
Pro/ENGINEER 9801 by Parametric Technology Corporation
0
SECTION
2
HEADER
9
$EXTMAX
10
22.0000000000
20
17.0000000000
9
$EXTMIN
10
0.0000000000
20
0.0000000000
9
$LIMMIN
10
0.0000000000
20
0.0000000000
9
$LIMMAX
10
22.0000000000
20
17.0000000000
9
$VIEWCTR
10
11.0000000000
20
8.5000000000
9
$VIEWSIZE
40
17.0000000000
9
$CLAYER
8
0
9
$LTSCALE
40
1.2100000000
9
$CELTYPE
6
BYLAYER
9
$DIMSCALE
40
1
9
$DIMASZ
40
0.1875000000
9
$DIMEXO
40
0.1375000000
9
$DIMDLI
40
0.8360000000
9
$DIMEXE
40
0.3960000000
9
$DIMCEN
40
0.1980000000
9
$DIMTXT
40
0.2486049107
0
ENDSEC
0
SECTION
2
TABLES
0
TABLE
2
LTYPE
70
6
0
LTYPE
2
CONTINUOUS
70
64
3
Solid line
72
65
73
0
40
0
0
LTYPE
2
CENTER
70
64
3
____ _ ____ _ ____ _ ____ _ ____ _ ____ _ ____
72
65
73
4
40
0.6
49
0.375
49
-0.075
49
0.075
49
-0.075
0
LTYPE
2
HIDDEN
70
64
3
- - - - - - - - - - - - - - - - - - - -
72
65
73
2
40
0.2
49
0.1
49
-0.1
0
LTYPE
2
PHANTOM
70
64
3
_____ _ _ _____ _ _ _____ _ _ _____
72
65
73
6
40
0.8
49
0.45
49
-0.05
49
0.1
49
-0.05
49
0.1
49
-0.05
0
LTYPE
2
DOT
70
64
3
. . . . . . . . . . . . . . . . . . . .
72
65
73
2
40
0.2
49
0.1
49
-0.1
0
LTYPE
2
DASHED
70
64
3
- - - - - - - - - - - - - - - - - - - -
72
65
73
2
40
0.2
49
0.1
49
-0.1
0
ENDTAB
0
TABLE
2
LAYER
70
36
0
LAYER
2
0
70
0
62
7
6
CONTINUOUS
0
LAYER
2
DEFAULT_1
70
0
62
7
6
CENTER
0
LAYER
2
DEFAULT_2
70
0
62
7
6
HIDDEN
0
LAYER
2
DEFAULT_3
70
0
62
7
6
PHANTOM
0
ENDTAB
0
ENDSEC
0
SECTION
2
BLOCKS
0
ENDSEC
0
SECTION
2
ENTITIES
0
LINE
8
0
62
3
10
2.0351474877
20
22.1871736616
11
2.0351474877
21
21.1871736616
0
LINE
8
0
62
3
10
2.0351474877
20
21.1871736616
11
4.1405927132
21
21.1871736616
0
POLYLINE
8
0
62
3
66
1
70
0
0
VERTEX
8
0
62
3
10
3.1001437202
20
22.0857804217
0
VERTEX
8
0
62
3
10
2.9753457429
20
22.2805554149
0
VERTEX
8
0
62
3
10
2.9177323632
20
22.3673966345
0
VERTEX
8
0
62
3
10
2.8636975362
20
22.4433777012
0
VERTEX
8
0
62
3
10
2.8125060120
20
22.5082479596
0
VERTEX
8
0
62
3
10
2.7637979714
20
22.5616799720
0
VERTEX
8
0
62
3
10
2.7177672835
20
22.6031476311
0
VERTEX
8
0
62
3
10
2.6751556674
20
22.6323410115
0
VERTEX
8
0
62
3
10
2.6372472783
20
22.6496888630
0
VERTEX
8
0
62
3
10
2.6040604102
20
22.6573047317
0
VERTEX
8
0
62
3
10
2.5728391885
20
22.6574334247
0
VERTEX
8
0
62
3
10
2.5398051622
20
22.6501358500
0
VERTEX
8
0
62
3
10
2.5021646895
20
22.6332343147
0
VERTEX
8
0
62
3
10
2.4597371940
20
22.6045429959
0
VERTEX
8
0
62
3
10
2.4138730729
20
22.5636050711
0
VERTEX
8
0
62
3
10
2.3652864919
20
22.5106828100
0
VERTEX
8
0
62
3
10
2.3142172680
20
22.4462896736
0
VERTEX
8
0
62
3
10
2.2603167814
20
22.3707703224
0
VERTEX
8
0
62
3
10
2.2028722295
20
22.2843746782
0
VERTEX
8
0
62
3
10
2.1405927132
20
22.1871736616
0
SEQEND
0
LINE
8
0
62
3
10
2.1405927132
20
22.1871736616
11
2.0351474877
21
22.1871736616
0
POLYLINE
8
0
62
3
66
1
70
0
0
VERTEX
8
0
62
3
10
4.1405927132
20
22.1871736616
0
VERTEX
8
0
62
3
10
4.0823036454
20
22.0961160133
0
VERTEX
8
0
62
3
10
4.0275743264
20
22.0133027794
0
VERTEX
8
0
62
3
10
3.9752472617
20
21.9387477288
0
VERTEX
8
0
62
3
10
3.9244402998
20
21.8724704838
0
VERTEX
8
0
62
3
10
3.8743432838
20
21.8144461430
0
VERTEX
8
0
62
3
10
3.8242181162
20
21.7647813329
0
VERTEX
8
0
62
3
10
3.7735587926
20
21.7239216726
0
VERTEX
8
0
62
3
10
3.7220814252
20
21.6924277527
0
VERTEX
8
0
62
3
10
3.6709474514
20
21.6712989698
0
VERTEX
8
0
62
3
10
3.6207267345
20
21.6602809197
0
VERTEX
8
0
62
3
10
3.5706676158
20
21.6587975577
0
VERTEX
8
0
62
3
10
3.5198263427
20
21.6669954595
0
VERTEX
8
0
62
3
10
3.4678463354
20
21.6855560117
0
VERTEX
8
0
62
3
10
3.4152796561
20
21.7149330200
0
VERTEX
8
0
62
3
10
3.3634845907
20
21.7542655397
0
VERTEX
8
0
62
3
10
3.3124784067
20
21.8027104701
0
VERTEX
8
0
62
3
10
3.2616996318
20
21.8597844499
0
VERTEX
8
0
62
3
10
3.2102981090
20
21.9254381751
0
VERTEX
8
0
62
3
10
3.1569861886
20
22.0003626851
0
VERTEX
8
0
62
3
10
3.1001437202
20
22.0857804217
0
SEQEND
0
LINE
8
0
62
3
10
4.1405927132
20
21.1871736616
11
4.1405927132
21
22.1871736616
0
ENDSEC
0
EOF
