999
DXF file: round_part.dxf
999
Pro/ENGINEER 9801 by Parametric Technology Corporation
0
SECTION
2
HEADER
9
$EXTMAX
10
22.0000000000
20
17.0000000000
9
$EXTMIN
10
0.0000000000
20
0.0000000000
9
$LIMMIN
10
0.0000000000
20
0.0000000000
9
$LIMMAX
10
22.0000000000
20
17.0000000000
9
$VIEWCTR
10
11.0000000000
20
8.5000000000
9
$VIEWSIZE
40
17.0000000000
9
$CLAYER
8
0
9
$LTSCALE
40
1.2100000000
9
$CELTYPE
6
BYLAYER
9
$DIMSCALE
40
1
9
$DIMASZ
40
0.1875000000
9
$DIMEXO
40
0.1375000000
9
$DIMDLI
40
0.8360000000
9
$DIMEXE
40
0.3960000000
9
$DIMCEN
40
0.1980000000
9
$DIMTXT
40
0.2486049107
0
ENDSEC
0
SECTION
2
TABLES
0
TABLE
2
LTYPE
70
6
0
LTYPE
2
CONTINUOUS
70
64
3
Solid line
72
65
73
0
40
0
0
LTYPE
2
CENTER
70
64
3
____ _ ____ _ ____ _ ____ _ ____ _ ____ _ ____
72
65
73
4
40
0.6
49
0.375
49
-0.075
49
0.075
49
-0.075
0
LTYPE
2
HIDDEN
70
64
3
- - - - - - - - - - - - - - - - - - - -
72
65
73
2
40
0.2
49
0.1
49
-0.1
0
LTYPE
2
PHANTOM
70
64
3
_____ _ _ _____ _ _ _____ _ _ _____
72
65
73
6
40
0.8
49
0.45
49
-0.05
49
0.1
49
-0.05
49
0.1
49
-0.05
0
LTYPE
2
DOT
70
64
3
. . . . . . . . . . . . . . . . . . . .
72
65
73
2
40
0.2
49
0.1
49
-0.1
0
LTYPE
2
DASHED
70
64
3
- - - - - - - - - - - - - - - - - - - -
72
65
73
2
40
0.2
49
0.1
49
-0.1
0
ENDTAB
0
TABLE
2
LAYER
70
36
0
LAYER
2
0
70
0
62
7
6
CONTINUOUS
0
LAYER
2
DEFAULT_1
70
0
62
7
6
CENTER
0
LAYER
2
DEFAULT_2
70
0
62
7
6
HIDDEN
0
LAYER
2
DEFAULT_3
70
0
62
7
6
PHANTOM
0
ENDTAB
0
ENDSEC
0
SECTION
2
BLOCKS
0
ENDSEC
0
SECTION
2
ENTITIES
0
LINE
8
0
62
3
10
-8.2496400205
20
23.2834346570
11
-8.2496400205
21
21.7834346570
0
POLYLINE
8
0
62
3
66
1
70
0
0
VERTEX
8
0
62
3
10
-8.1246400205
20
21.7834346570
0
VERTEX
8
0
62
3
10
-8.1155484417
20
21.9221325839
0
VERTEX
8
0
62
3
10
-8.0884275584
20
22.0584593389
0
VERTEX
8
0
62
3
10
-8.0437629905
20
22.1900334708
0
VERTEX
8
0
62
3
10
-7.9822602494
20
22.3147294656
0
VERTEX
8
0
62
3
10
-7.9050721420
20
22.4302428121
0
VERTEX
8
0
62
3
10
-7.8134214011
20
22.5347551888
0
VERTEX
8
0
62
3
10
-7.7089302408
20
22.6263862783
0
VERTEX
8
0
62
3
10
-7.5934011950
20
22.7035794751
0
VERTEX
8
0
62
3
10
-7.4687706887
20
22.7650444346
0
VERTEX
8
0
62
3
10
-7.3371322732
20
22.8097244319
0
VERTEX
8
0
62
3
10
-7.2007386219
20
22.8368544205
0
VERTEX
8
0
62
3
10
-7.0621400205
20
22.8459346570
0
VERTEX
8
0
62
3
10
-6.9235414190
20
22.8368544205
0
VERTEX
8
0
62
3
10
-6.7871477677
20
22.8097244319
0
VERTEX
8
0
62
3
10
-6.6555093522
20
22.7650444346
0
VERTEX
8
0
62
3
10
-6.5308788459
20
22.7035794751
0
VERTEX
8
0
62
3
10
-6.4153498001
20
22.6263862783
0
VERTEX
8
0
62
3
10
-6.3108586398
20
22.5347551888
0
VERTEX
8
0
62
3
10
-6.2192078989
20
22.4302428121
0
VERTEX
8
0
62
3
10
-6.1420197915
20
22.3147294656
0
VERTEX
8
0
62
3
10
-6.0805170504
20
22.1900334708
0
VERTEX
8
0
62
3
10
-6.0358524825
20
22.0584593389
0
VERTEX
8
0
62
3
10
-6.0087315992
20
21.9221325839
0
VERTEX
8
0
62
3
10
-5.9996400205
20
21.7834346570
0
SEQEND
0
LINE
8
0
62
3
10
-8.2496400205
20
21.7834346570
11
-8.1246400205
21
21.7834346570
0
LINE
8
0
62
3
10
-5.9996400205
20
21.7834346570
11
-5.8746400205
21
21.7834346570
0
LINE
8
0
62
3
10
-5.8746400205
20
23.2834346570
11
-8.2496400205
21
23.2834346570
0
LINE
8
0
62
3
10
-5.8746400205
20
21.7834346570
11
-5.8746400205
21
23.2834346570
0
ENDSEC
0
EOF
