700 0 2 0           
24 FBMach with ACIS - 7.0.3 13 ACIS 7.0.3 NT 24 Tue May 14 17:19:17 2002 
1 9.9999999999999995e-007 1e-010 
body $2 -1 $-1 $3 $-1 $4 #
bdycol-kcp $-1 -1 1 5 $5 $6 $7 $8 $9 #
model_id-kcp-attrib $-1 -1 $-1 $-1 $0 1 1021411156 1021411156 628490241 1 #
lump $-1 -1 $-1 $-1 $10 $0 #
transform $-1 -1 1 0 0 0 1 0 0 0 1 0 0 0 1 rotate no_reflect no_shear #
body $11 -1 $-1 $12 $-1 $13 #
body $14 -1 $-1 $15 $-1 $16 #
body $17 -1 $-1 $18 $-1 $19 #
body $20 -1 $-1 $21 $-1 $22 #
body $23 -1 $-1 $24 $-1 $25 #
shell $-1 -1 $-1 $-1 $-1 $26 $-1 $3 #
model_id-kcp-attrib $-1 -1 $-1 $-1 $5 1 1021411156 1021411156 629145602 1 #
lump $-1 -1 $-1 $-1 $27 $5 #
transform $-1 -1 1 0 0 0 1 0 0 0 1 0.5 180 0 1 no_rotate no_reflect no_shear #
rgb_color-st-attrib $-1 -1 $28 $-1 $6 1 0.5 1 #
lump $-1 -1 $-1 $-1 $29 $6 #
transform $-1 -1 1 0 0 0 1 0 0 0 1 0.5 180 0 1 no_rotate no_reflect no_shear #
rgb_color-st-attrib $-1 -1 $30 $-1 $7 1 0.5 1 #
lump $-1 -1 $-1 $-1 $31 $7 #
transform $-1 -1 1 0 0 0 1 0 0 0 1 0.5 180 0 1 no_rotate no_reflect no_shear #
rgb_color-st-attrib $-1 -1 $32 $-1 $8 1 0.5 1 #
lump $-1 -1 $-1 $-1 $33 $8 #
transform $-1 -1 1 0 0 0 1 0 0 0 1 0.5 180 0 1 no_rotate no_reflect no_shear #
rgb_color-st-attrib $-1 -1 $34 $-1 $9 1 0.5 1 #
lump $-1 -1 $-1 $-1 $35 $9 #
transform $-1 -1 1 0 0 0 1 0 0 0 1 0.5 180 0 1 no_rotate no_reflect no_shear #
face $36 -1 $-1 $37 $38 $10 $-1 $39 forward single #
shell $-1 -1 $-1 $-1 $-1 $40 $-1 $12 #
model_id-kcp-attrib $-1 -1 $-1 $14 $6 1 1021411156 1021411157 622067715 1 #
shell $-1 -1 $-1 $-1 $-1 $41 $-1 $15 #
model_id-kcp-attrib $-1 -1 $-1 $17 $7 1 1021411156 1021411157 623706118 1 #
shell $-1 -1 $-1 $-1 $-1 $42 $-1 $18 #
model_id-kcp-attrib $-1 -1 $-1 $20 $8 1 1021411156 1021411157 627965956 1 #
shell $-1 -1 $-1 $-1 $-1 $43 $-1 $21 #
model_id-kcp-attrib $-1 -1 $-1 $23 $9 1 1021411156 1021411157 635174917 1 #
shell $-1 -1 $-1 $-1 $-1 $44 $-1 $24 #
model_id-kcp-attrib $-1 -1 $-1 $-1 $26 1 1021411156 1021411156 628490241 2 #
face $45 -1 $-1 $46 $47 $10 $-1 $48 reversed single #
loop $-1 -1 $-1 $-1 $49 $26 #
plane-surface $-1 -1 $-1 0 360 75 -1 0 0 0 -1 0 forward_v I I I I #
face $50 -1 $-1 $51 $52 $27 $-1 $53 forward single #
face $-1 -1 $-1 $54 $55 $29 $-1 $56 forward single #
face $-1 -1 $-1 $57 $58 $31 $-1 $59 forward single #
face $-1 -1 $-1 $60 $61 $33 $-1 $62 forward single #
face $-1 -1 $-1 $63 $64 $35 $-1 $65 forward single #
model_id-kcp-attrib $-1 -1 $-1 $-1 $37 1 1021411156 1021411156 628490241 3 #
face $66 -1 $-1 $67 $68 $10 $-1 $69 forward single #
loop $-1 -1 $-1 $-1 $70 $37 #
cone-surface $-1 -1 $-1 0.5 50 -2.1316282072803006e-014 -1 0 0 0 0 60 1 I I 0 1 60 forward I I I I #
coedge $-1 -1 $-1 $71 $72 $73 $74 reversed $38 $-1 #
model_id-kcp-attrib $-1 -1 $-1 $-1 $40 1 1021411156 1021411156 629145602 8 #
face $75 -1 $-1 $76 $77 $27 $-1 $78 reversed single #
loop $-1 -1 $-1 $-1 $79 $40 #
plane-surface $-1 -1 $-1 0 0 81 0 0 1 1 0 0 forward_v I I I I #
face $-1 -1 $-1 $80 $81 $29 $-1 $82 forward single #
loop $-1 -1 $-1 $-1 $83 $41 #
plane-surface $-1 -1 $-1 0.5 6 -75 1 0 0 0 0 -1 forward_v I I I I #
face $-1 -1 $-1 $84 $85 $31 $-1 $86 forward single #
loop $-1 -1 $-1 $-1 $87 $42 #
plane-surface $-1 -1 $-1 -0.5 6 75 -1 0 0 0 0 1 forward_v I I I I #
face $-1 -1 $-1 $88 $89 $33 $-1 $90 forward single #
loop $-1 -1 $-1 $-1 $91 $43 #
plane-surface $-1 -1 $-1 -0.5 -6 -75 -1 0 0 0 0 1 forward_v I I I I #
face $-1 -1 $-1 $92 $93 $35 $-1 $94 forward single #
loop $-1 -1 $-1 $-1 $95 $44 #
plane-surface $-1 -1 $-1 0.5 -6 75 1 0 0 0 0 -1 forward_v I I I I #
model_id-kcp-attrib $-1 -1 $-1 $-1 $46 1 1021411156 1021411156 628490241 4 #
face $96 -1 $-1 $97 $98 $10 $-1 $99 reversed single #
loop $-1 -1 $-1 $-1 $100 $46 #
plane-surface $-1 -1 $-1 0.5 25 -60 0 0 1 0 1 0 forward_v I I I I #
coedge $-1 -1 $-1 $101 $73 $102 $103 forward $47 $-1 #
coedge $-1 -1 $-1 $104 $49 $105 $106 reversed $38 $-1 #
coedge $-1 -1 $-1 $49 $107 $108 $109 forward $38 $-1 #
coedge $-1 -1 $-1 $70 $110 $49 $74 forward $47 $-1 #
edge $111 -1 $-1 $112 0 $113 3.1415926535897931 $49 $114 forward @7 unknown #
model_id-kcp-attrib $-1 -1 $-1 $-1 $51 1 1021411156 1021411156 629145602 4 #
face $115 -1 $-1 $116 $117 $27 $-1 $118 reversed single #
loop $-1 -1 $-1 $-1 $119 $51 #
plane-surface $-1 -1 $-1 0 0 -81 0 0 1 1 0 0 forward_v I I I I #
coedge $-1 -1 $-1 $120 $121 $122 $123 forward $52 $-1 #
face $-1 -1 $-1 $124 $125 $29 $-1 $126 forward single #
loop $-1 -1 $-1 $-1 $127 $54 #
plane-surface $-1 -1 $-1 0.5 180 -75 0 1 0 0 0 1 forward_v I I I I #
coedge $-1 -1 $-1 $128 $129 $130 $131 forward $55 $-1 #
face $-1 -1 $-1 $132 $133 $31 $-1 $134 forward single #
loop $-1 -1 $-1 $-1 $135 $57 #
plane-surface $-1 -1 $-1 -0.5 180 75 0 1 0 0 0 1 forward_v I I I I #
coedge $-1 -1 $-1 $136 $137 $138 $139 forward $58 $-1 #
face $-1 -1 $-1 $140 $141 $33 $-1 $142 forward single #
loop $-1 -1 $-1 $-1 $143 $60 #
plane-surface $-1 -1 $-1 -0.5 -180 -75 0 -1 0 0 0 -1 forward_v I I I I #
coedge $-1 -1 $-1 $144 $145 $146 $147 forward $61 $-1 #
face $-1 -1 $-1 $148 $149 $35 $-1 $150 forward single #
loop $-1 -1 $-1 $-1 $151 $63 #
plane-surface $-1 -1 $-1 0.5 -180 75 0 -1 0 0 0 -1 forward_v I I I I #
coedge $-1 -1 $-1 $152 $153 $154 $155 forward $64 $-1 #
model_id-kcp-attrib $-1 -1 $-1 $-1 $67 1 1021411156 1021411156 628490241 5 #
face $156 -1 $-1 $157 $158 $10 $-1 $159 forward single #
loop $-1 -1 $-1 $-1 $160 $67 #
plane-surface $-1 -1 $-1 0.5 0 0 0 1 0 0 0 -1 forward_v I I I I #
coedge $-1 -1 $-1 $161 $108 $162 $163 forward $68 $-1 #
coedge $-1 -1 $-1 $110 $70 $164 $165 reversed $47 $-1 #
coedge $-1 -1 $-1 $108 $161 $70 $103 reversed $68 $-1 #
edge $-1 -1 $-1 $113 0 $166 1 $102 $167 forward @7 unknown #
coedge $-1 -1 $-1 $168 $71 $169 $170 reversed $38 $-1 #
coedge $-1 -1 $-1 $171 $172 $71 $106 forward $173 $-1 #
edge $174 -1 $-1 $175 0 $112 50 $71 $176 forward @7 unknown #
coedge $-1 -1 $-1 $72 $177 $160 $178 reversed $38 $-1 #
coedge $-1 -1 $-1 $100 $102 $72 $109 reversed $68 $-1 #
edge $179 -1 $-1 $180 0 $113 50 $72 $181 forward @7 unknown #
coedge $-1 -1 $-1 $73 $101 $171 $182 reversed $47 $-1 #
attrib_edge_convexity-kcp-attrib $-1 -1 $183 $-1 $74 1 #
vertex $-1 -1 $-1 $106 $184 #
vertex $-1 -1 $-1 $109 $185 #
ellipse-curve $-1 -1 $-1 0 50 0 -1 0 0 0 0 60 1 I I #
model_id-kcp-attrib $-1 -1 $-1 $-1 $76 1 1021411156 1021411156 629145602 3 #
face $186 -1 $-1 $187 $188 $27 $-1 $189 reversed single #
loop $-1 -1 $-1 $-1 $190 $76 #
plane-surface $-1 -1 $-1 0 -180 0 0 1 0 0 0 1 forward_v I I I I #
coedge $-1 -1 $-1 $191 $192 $193 $194 forward $77 $-1 #
coedge $-1 -1 $-1 $195 $79 $196 $197 forward $52 $-1 #
coedge $-1 -1 $-1 $79 $195 $198 $199 forward $52 $-1 #
coedge $-1 -1 $-1 $200 $201 $79 $123 reversed $202 $-1 #
edge $-1 -1 $-1 $203 -180 $204 180 $122 $205 forward @7 unknown #
face $-1 -1 $-1 $206 $207 $29 $-1 $208 forward single #
loop $-1 -1 $-1 $-1 $209 $80 #
plane-surface $-1 -1 $-1 -0.5 180 -75 -1 0 0 0 0 1 forward_v I I I I #
coedge $-1 -1 $-1 $210 $211 $212 $213 forward $81 $-1 #
coedge $-1 -1 $-1 $214 $83 $211 $215 reversed $55 $-1 #
coedge $-1 -1 $-1 $83 $214 $216 $217 forward $55 $-1 #
coedge $-1 -1 $-1 $218 $212 $83 $131 reversed $219 $-1 #
edge $-1 -1 $-1 $220 -40.5 $221 133.5 $83 $222 forward @7 unknown #
face $-1 -1 $-1 $223 $224 $31 $-1 $225 forward single #
loop $-1 -1 $-1 $-1 $226 $84 #
plane-surface $-1 -1 $-1 0.5 180 75 1 0 0 0 0 -1 forward_v I I I I #
coedge $-1 -1 $-1 $227 $228 $229 $230 forward $85 $-1 #
coedge $-1 -1 $-1 $231 $87 $228 $232 reversed $58 $-1 #
coedge $-1 -1 $-1 $87 $231 $233 $234 forward $58 $-1 #
coedge $-1 -1 $-1 $235 $229 $87 $139 reversed $236 $-1 #
edge $-1 -1 $-1 $237 -40.5 $238 133.5 $87 $239 forward @7 unknown #
face $-1 -1 $-1 $240 $241 $33 $-1 $242 forward single #
loop $-1 -1 $-1 $-1 $243 $88 #
plane-surface $-1 -1 $-1 0.5 -180 -75 1 0 0 0 0 -1 forward_v I I I I #
coedge $-1 -1 $-1 $244 $245 $246 $247 forward $89 $-1 #
coedge $-1 -1 $-1 $248 $91 $245 $249 reversed $61 $-1 #
coedge $-1 -1 $-1 $91 $248 $250 $251 forward $61 $-1 #
coedge $-1 -1 $-1 $252 $246 $91 $147 reversed $253 $-1 #
edge $-1 -1 $-1 $254 -40.5 $255 133.5 $91 $256 forward @7 unknown #
face $-1 -1 $-1 $257 $258 $35 $-1 $259 forward single #
loop $-1 -1 $-1 $-1 $260 $92 #
plane-surface $-1 -1 $-1 -0.5 -180 75 -1 0 0 0 0 1 forward_v I I I I #
coedge $-1 -1 $-1 $261 $262 $263 $264 forward $93 $-1 #
coedge $-1 -1 $-1 $265 $95 $262 $266 reversed $64 $-1 #
coedge $-1 -1 $-1 $95 $265 $267 $268 forward $64 $-1 #
coedge $-1 -1 $-1 $269 $263 $95 $155 reversed $270 $-1 #
edge $-1 -1 $-1 $271 -40.5 $272 133.5 $95 $273 forward @7 unknown #
model_id-kcp-attrib $-1 -1 $-1 $-1 $97 1 1021411156 1021411156 628490241 6 #
face $274 -1 $-1 $275 $276 $10 $-1 $277 forward single #
loop $-1 -1 $-1 $-1 $278 $97 #
plane-surface $-1 -1 $-1 0.5 87 -75 0 0 -1 0 -1 0 forward_v I I I I #
coedge $-1 -1 $-1 $279 $162 $107 $178 forward $98 $-1 #
coedge $-1 -1 $-1 $102 $100 $280 $281 forward $68 $-1 #
coedge $-1 -1 $-1 $160 $282 $100 $163 reversed $98 $-1 #
edge $283 -1 $-1 $180 0 $284 1 $162 $285 forward @7 unknown #
coedge $-1 -1 $-1 $280 $286 $101 $165 forward $287 $-1 #
edge $-1 -1 $-1 $288 0 $166 3.1415926535897931 $164 $289 forward @7 unknown #
vertex $-1 -1 $-1 $281 $290 #
straight-curve $-1 -1 $-1 0 50 -60 1 0 0 I I #
coedge $-1 -1 $-1 $291 $104 $292 $293 reversed $38 $-1 #
coedge $-1 -1 $-1 $294 $295 $104 $170 forward $296 $-1 #
edge $297 -1 $-1 $298 0 $175 15 $104 $299 forward @7 unknown #
coedge $-1 -1 $-1 $300 $105 $110 $182 forward $173 $-1 #
coedge $-1 -1 $-1 $105 $300 $294 $301 reversed $173 $-1 #
loop $-1 -1 $-1 $-1 $171 $302 #
attrib_edge_convexity-kcp-attrib $-1 -1 $303 $-1 $106 1 #
vertex $-1 -1 $-1 $170 $304 #
straight-curve $-1 -1 $-1 0 0 60 0 1 0 I I #
coedge $-1 -1 $-1 $107 $305 $306 $307 forward $38 $-1 #
edge $308 -1 $-1 $180 0 $309 15 $107 $310 forward @7 unknown #
attrib_edge_convexity-kcp-attrib $-1 -1 $311 $-1 $109 1 #
vertex $-1 -1 $-1 $109 $312 #
straight-curve $-1 -1 $-1 0 0 -60 0 1 0 I I #
edge $-1 -1 $-1 $112 0 $288 1 $171 $313 forward @7 unknown #
convexity-sys-attrib $-1 -1 $-1 $111 $74 #
point $-1 -1 $-1 0 50 60 #
point $-1 -1 $-1 0 50 -60 #
model_id-kcp-attrib $-1 -1 $-1 $-1 $116 1 1021411156 1021411156 629145602 2 #
face $314 -1 $-1 $315 $316 $27 $-1 $317 reversed single #
loop $-1 -1 $-1 $-1 $318 $116 #
plane-surface $-1 -1 $-1 -0.5 0 0 1 0 0 0 0 -1 forward_v I I I I #
coedge $-1 -1 $-1 $319 $198 $320 $321 forward $117 $-1 #
coedge $-1 -1 $-1 $322 $119 $319 $323 forward $77 $-1 #
coedge $-1 -1 $-1 $119 $322 $324 $325 forward $77 $-1 #
coedge $-1 -1 $-1 $201 $200 $119 $194 reversed $202 $-1 #
edge $-1 -1 $-1 $326 -180 $327 180 $193 $328 forward @7 unknown #
coedge $-1 -1 $-1 $121 $120 $329 $330 forward $52 $-1 #
coedge $-1 -1 $-1 $331 $332 $120 $197 reversed $316 $-1 #
edge $-1 -1 $-1 $204 -0.5 $333 0.5 $196 $334 forward @7 unknown #
coedge $-1 -1 $-1 $190 $335 $121 $199 reversed $117 $-1 #
edge $-1 -1 $-1 $336 -0.5 $203 0.5 $198 $337 forward @7 unknown #
coedge $-1 -1 $-1 $193 $122 $335 $338 forward $202 $-1 #
coedge $-1 -1 $-1 $122 $193 $331 $339 reversed $202 $-1 #
loop $-1 -1 $-1 $-1 $200 $315 #
vertex $-1 -1 $-1 $123 $340 #
vertex $-1 -1 $-1 $123 $341 #
straight-curve $-1 -1 $-1 0.5 0 81 0 1 0 I I #
face $-1 -1 $-1 $342 $219 $29 $-1 $343 reversed single #
loop $-1 -1 $-1 $-1 $344 $124 #
plane-surface $-1 -1 $-1 -0.5 6 -75 0 -1 0 0 0 -1 forward_v I I I I #
coedge $-1 -1 $-1 $345 $346 $347 $348 forward $125 $-1 #
coedge $-1 -1 $-1 $349 $127 $346 $350 reversed $81 $-1 #
coedge $-1 -1 $-1 $127 $349 $128 $215 forward $81 $-1 #
coedge $-1 -1 $-1 $130 $347 $127 $213 reversed $219 $-1 #
edge $-1 -1 $-1 $221 -0.5 $351 0.5 $127 $352 forward @7 unknown #
coedge $-1 -1 $-1 $129 $128 $353 $354 reversed $55 $-1 #
edge $-1 -1 $-1 $355 0 $221 6 $211 $356 forward @7 unknown #
coedge $-1 -1 $-1 $357 $344 $129 $217 reversed $207 $-1 #
edge $-1 -1 $-1 $358 0 $220 6 $129 $359 forward @7 unknown #
coedge $-1 -1 $-1 $347 $130 $344 $360 reversed $219 $-1 #
loop $-1 -1 $-1 $-1 $130 $206 #
vertex $-1 -1 $-1 $217 $361 #
vertex $-1 -1 $-1 $215 $362 #
straight-curve $-1 -1 $-1 0.5 46.5 -81 0 1 0 I I #
face $-1 -1 $-1 $363 $236 $31 $-1 $364 forward single #
loop $-1 -1 $-1 $-1 $365 $132 #
plane-surface $-1 -1 $-1 0.5 6 75 0 -1 0 0 0 -1 forward_v I I I I #
coedge $-1 -1 $-1 $366 $367 $368 $369 forward $133 $-1 #
coedge $-1 -1 $-1 $370 $135 $367 $371 reversed $85 $-1 #
coedge $-1 -1 $-1 $135 $370 $136 $232 forward $85 $-1 #
coedge $-1 -1 $-1 $138 $368 $135 $230 reversed $236 $-1 #
edge $-1 -1 $-1 $238 -0.5 $372 0.5 $135 $373 forward @7 unknown #
coedge $-1 -1 $-1 $137 $136 $374 $375 reversed $58 $-1 #
edge $-1 -1 $-1 $376 0 $238 6 $228 $377 forward @7 unknown #
coedge $-1 -1 $-1 $378 $365 $137 $234 reversed $224 $-1 #
edge $-1 -1 $-1 $379 0 $237 6 $137 $380 forward @7 unknown #
coedge $-1 -1 $-1 $368 $138 $365 $381 reversed $236 $-1 #
loop $-1 -1 $-1 $-1 $138 $223 #
vertex $-1 -1 $-1 $234 $382 #
vertex $-1 -1 $-1 $232 $383 #
straight-curve $-1 -1 $-1 -0.5 46.5 81 0 1 0 I I #
face $-1 -1 $-1 $384 $253 $33 $-1 $385 reversed single #
loop $-1 -1 $-1 $-1 $386 $140 #
plane-surface $-1 -1 $-1 0.5 -6 -75 0 1 0 0 0 1 forward_v I I I I #
coedge $-1 -1 $-1 $387 $388 $389 $390 forward $141 $-1 #
coedge $-1 -1 $-1 $391 $143 $388 $392 reversed $89 $-1 #
coedge $-1 -1 $-1 $143 $391 $144 $249 forward $89 $-1 #
coedge $-1 -1 $-1 $146 $389 $143 $247 reversed $253 $-1 #
edge $-1 -1 $-1 $255 -0.5 $393 0.5 $143 $394 forward @7 unknown #
coedge $-1 -1 $-1 $145 $144 $395 $396 reversed $61 $-1 #
edge $-1 -1 $-1 $397 0 $255 6 $245 $398 forward @7 unknown #
coedge $-1 -1 $-1 $399 $386 $145 $251 reversed $241 $-1 #
edge $-1 -1 $-1 $400 0 $254 6 $145 $401 forward @7 unknown #
coedge $-1 -1 $-1 $389 $146 $386 $402 reversed $253 $-1 #
loop $-1 -1 $-1 $-1 $146 $240 #
vertex $-1 -1 $-1 $251 $403 #
vertex $-1 -1 $-1 $249 $404 #
straight-curve $-1 -1 $-1 -0.5 -46.5 -81 0 -1 0 I I #
face $-1 -1 $-1 $405 $270 $35 $-1 $406 forward single #
loop $-1 -1 $-1 $-1 $407 $148 #
plane-surface $-1 -1 $-1 -0.5 -6 75 0 1 0 0 0 1 forward_v I I I I #
coedge $-1 -1 $-1 $408 $409 $410 $411 forward $149 $-1 #
coedge $-1 -1 $-1 $412 $151 $409 $413 reversed $93 $-1 #
coedge $-1 -1 $-1 $151 $412 $152 $266 forward $93 $-1 #
coedge $-1 -1 $-1 $154 $410 $151 $264 reversed $270 $-1 #
edge $-1 -1 $-1 $272 -0.5 $414 0.5 $151 $415 forward @7 unknown #
coedge $-1 -1 $-1 $153 $152 $416 $417 reversed $64 $-1 #
edge $-1 -1 $-1 $418 0 $272 6 $262 $419 forward @7 unknown #
coedge $-1 -1 $-1 $420 $407 $153 $268 reversed $258 $-1 #
edge $-1 -1 $-1 $421 0 $271 6 $153 $422 forward @7 unknown #
coedge $-1 -1 $-1 $410 $154 $407 $423 reversed $270 $-1 #
loop $-1 -1 $-1 $-1 $154 $257 #
vertex $-1 -1 $-1 $268 $424 #
vertex $-1 -1 $-1 $266 $425 #
straight-curve $-1 -1 $-1 0.5 -46.5 81 0 -1 0 I I #
model_id-kcp-attrib $-1 -1 $-1 $-1 $157 1 1021411156 1021411156 628490241 7 #
face $426 -1 $-1 $427 $428 $10 $-1 $429 forward single #
loop $-1 -1 $-1 $-1 $430 $157 #
plane-surface $-1 -1 $-1 0.5 174 -78 0 -1 0 0 0 1 forward_v I I I I #
coedge $-1 -1 $-1 $431 $306 $432 $433 forward $158 $-1 #
coedge $-1 -1 $-1 $282 $160 $434 $435 forward $98 $-1 #
coedge $-1 -1 $-1 $436 $164 $161 $281 reversed $287 $-1 #
edge $-1 -1 $-1 $284 0 $166 50 $280 $437 forward @7 unknown #
coedge $-1 -1 $-1 $162 $279 $436 $438 reversed $98 $-1 #
attrib_edge_convexity-kcp-attrib $-1 -1 $439 $-1 $163 1 #
vertex $-1 -1 $-1 $281 $440 #
straight-curve $-1 -1 $-1 0 0 -60 1 0 0 I I #
coedge $-1 -1 $-1 $164 $441 $300 $442 forward $287 $-1 #
loop $-1 -1 $-1 $-1 $436 $443 #
vertex $-1 -1 $-1 $165 $444 #
ellipse-curve $-1 -1 $-1 1 50 0 -1 0 0 0 0 60 1 I I #
point $-1 -1 $-1 1 50 -60 #
coedge $-1 -1 $-1 $445 $168 $446 $447 forward $38 $-1 #
coedge $-1 -1 $-1 $448 $449 $168 $293 forward $450 $-1 #
edge $451 -1 $-1 $452 0 $298 174 $168 $453 forward @7 unknown #
coedge $-1 -1 $-1 $454 $169 $172 $301 forward $296 $-1 #
coedge $-1 -1 $-1 $169 $454 $448 $455 reversed $296 $-1 #
loop $-1 -1 $-1 $-1 $454 $456 #
attrib_edge_convexity-kcp-attrib $-1 -1 $457 $-1 $170 1 #
vertex $-1 -1 $-1 $293 $458 #
straight-curve $-1 -1 $-1 0 0 75 0 0 -1 I I #
coedge $-1 -1 $-1 $172 $171 $286 $442 reversed $173 $-1 #
edge $-1 -1 $-1 $175 0 $459 1 $294 $460 forward @7 unknown #
face $461 -1 $-1 $-1 $173 $10 $-1 $462 reversed single #
convexity-sys-attrib $-1 -1 $-1 $174 $106 #
point $-1 -1 $-1 0 0 60 #
coedge $-1 -1 $-1 $177 $463 $464 $465 forward $38 $-1 #
coedge $-1 -1 $-1 $278 $434 $177 $307 reversed $158 $-1 #
edge $466 -1 $-1 $467 0 $309 174 $177 $468 forward @7 unknown #
attrib_edge_convexity-kcp-attrib $-1 -1 $469 $-1 $178 1 #
vertex $-1 -1 $-1 $178 $470 #
straight-curve $-1 -1 $-1 0 0 -60 0 0 -1 I I #
convexity-sys-attrib $-1 -1 $-1 $179 $109 #
point $-1 -1 $-1 0 0 -60 #
straight-curve $-1 -1 $-1 0 50 60 1 0 0 I I #
model_id-kcp-attrib $-1 -1 $-1 $-1 $187 1 1021411156 1021411156 629145602 5 #
face $471 -1 $-1 $-1 $202 $27 $-1 $472 reversed single #
loop $-1 -1 $-1 $-1 $331 $187 #
plane-surface $-1 -1 $-1 0 180 0 0 -1 0 0 0 -1 forward_v I I I I #
coedge $-1 -1 $-1 $473 $329 $332 $474 forward $188 $-1 #
coedge $-1 -1 $-1 $335 $190 $191 $323 reversed $117 $-1 #
coedge $-1 -1 $-1 $329 $473 $190 $321 reversed $188 $-1 #
edge $-1 -1 $-1 $336 -81 $475 81 $320 $476 forward @7 unknown #
coedge $-1 -1 $-1 $192 $191 $473 $477 forward $77 $-1 #
edge $-1 -1 $-1 $327 -0.5 $475 0.5 $319 $478 forward @7 unknown #
coedge $-1 -1 $-1 $332 $331 $192 $325 reversed $316 $-1 #
edge $-1 -1 $-1 $479 -0.5 $326 0.5 $324 $480 forward @7 unknown #
vertex $-1 -1 $-1 $194 $481 #
vertex $-1 -1 $-1 $338 $482 #
straight-curve $-1 -1 $-1 0.5 0 -81 0 -1 0 I I #
coedge $-1 -1 $-1 $318 $320 $195 $330 reversed $188 $-1 #
edge $-1 -1 $-1 $333 -180 $336 180 $329 $483 forward @7 unknown #
coedge $-1 -1 $-1 $324 $196 $201 $339 forward $316 $-1 #
coedge $-1 -1 $-1 $196 $324 $318 $474 reversed $316 $-1 #
vertex $-1 -1 $-1 $197 $484 #
straight-curve $-1 -1 $-1 0 180 81 -1 0 0 I I #
coedge $-1 -1 $-1 $198 $319 $200 $338 reversed $117 $-1 #
vertex $-1 -1 $-1 $330 $485 #
straight-curve $-1 -1 $-1 0 -180 81 1 0 0 I I #
edge $-1 -1 $-1 $203 -81 $327 81 $200 $486 forward @7 unknown #
edge $-1 -1 $-1 $204 -81 $326 81 $201 $487 forward @7 unknown #
point $-1 -1 $-1 0.5 -180 81 #
point $-1 -1 $-1 0.5 180 81 #
face $-1 -1 $-1 $-1 $488 $29 $-1 $489 forward single #
plane-surface $-1 -1 $-1 0 93 -81 0 0 1 1 0 0 forward_v I I I I #
coedge $-1 -1 $-1 $216 $490 $218 $360 forward $207 $-1 #
coedge $-1 -1 $-1 $491 $209 $490 $492 reversed $125 $-1 #
coedge $-1 -1 $-1 $209 $491 $210 $350 forward $125 $-1 #
coedge $-1 -1 $-1 $212 $218 $209 $348 reversed $219 $-1 #
edge $-1 -1 $-1 $351 -133.5 $493 40.5 $209 $494 forward @7 unknown #
coedge $-1 -1 $-1 $211 $210 $495 $496 reversed $81 $-1 #
edge $-1 -1 $-1 $497 0 $351 6 $346 $498 forward @7 unknown #
vertex $-1 -1 $-1 $350 $499 #
straight-curve $-1 -1 $-1 0 180 -81 -1 0 0 I I #
coedge $-1 -1 $-1 $495 $500 $214 $354 forward $488 $-1 #
edge $501 -1 $-1 $358 -40.5 $355 133.5 $214 $502 forward @7 unknown #
vertex $-1 -1 $-1 $354 $503 #
straight-curve $-1 -1 $-1 0.5 180 -75 0 0 -1 I I #
coedge $-1 -1 $-1 $490 $216 $500 $504 reversed $207 $-1 #
vertex $-1 -1 $-1 $504 $505 #
straight-curve $-1 -1 $-1 0.5 6 -75 0 0 -1 I I #
edge $-1 -1 $-1 $493 -0.5 $220 0.5 $344 $506 forward @7 unknown #
point $-1 -1 $-1 0.5 6 -81 #
point $-1 -1 $-1 0.5 180 -81 #
face $-1 -1 $-1 $-1 $507 $31 $-1 $508 reversed single #
plane-surface $-1 -1 $-1 0 93 81 0 0 1 1 0 0 forward_v I I I I #
coedge $-1 -1 $-1 $233 $509 $235 $381 forward $224 $-1 #
coedge $-1 -1 $-1 $510 $226 $509 $511 reversed $133 $-1 #
coedge $-1 -1 $-1 $226 $510 $227 $371 forward $133 $-1 #
coedge $-1 -1 $-1 $229 $235 $226 $369 reversed $236 $-1 #
edge $-1 -1 $-1 $372 -133.5 $512 40.5 $226 $513 forward @7 unknown #
coedge $-1 -1 $-1 $228 $227 $514 $515 reversed $85 $-1 #
edge $-1 -1 $-1 $516 0 $372 6 $367 $517 forward @7 unknown #
vertex $-1 -1 $-1 $371 $518 #
straight-curve $-1 -1 $-1 0 180 81 1 0 0 I I #
coedge $-1 -1 $-1 $514 $519 $231 $375 forward $507 $-1 #
edge $520 -1 $-1 $379 -40.5 $376 133.5 $231 $521 forward @7 unknown #
vertex $-1 -1 $-1 $375 $522 #
straight-curve $-1 -1 $-1 -0.5 180 75 0 0 1 I I #
coedge $-1 -1 $-1 $509 $233 $519 $523 reversed $224 $-1 #
vertex $-1 -1 $-1 $523 $524 #
straight-curve $-1 -1 $-1 -0.5 6 75 0 0 1 I I #
edge $-1 -1 $-1 $512 -0.5 $237 0.5 $365 $525 forward @7 unknown #
point $-1 -1 $-1 -0.5 6 81 #
point $-1 -1 $-1 -0.5 180 81 #
face $-1 -1 $-1 $-1 $526 $33 $-1 $527 forward single #
plane-surface $-1 -1 $-1 0 -93 -81 0 0 1 1 0 0 forward_v I I I I #
coedge $-1 -1 $-1 $250 $528 $252 $402 forward $241 $-1 #
coedge $-1 -1 $-1 $529 $243 $528 $530 reversed $141 $-1 #
coedge $-1 -1 $-1 $243 $529 $244 $392 forward $141 $-1 #
coedge $-1 -1 $-1 $246 $252 $243 $390 reversed $253 $-1 #
edge $-1 -1 $-1 $393 -133.5 $531 40.5 $243 $532 forward @7 unknown #
coedge $-1 -1 $-1 $245 $244 $533 $534 reversed $89 $-1 #
edge $-1 -1 $-1 $535 0 $393 6 $388 $536 forward @7 unknown #
vertex $-1 -1 $-1 $392 $537 #
straight-curve $-1 -1 $-1 0 -180 -81 1 0 0 I I #
coedge $-1 -1 $-1 $533 $538 $248 $396 forward $526 $-1 #
edge $539 -1 $-1 $400 -40.5 $397 133.5 $248 $540 forward @7 unknown #
vertex $-1 -1 $-1 $396 $541 #
straight-curve $-1 -1 $-1 -0.5 -180 -75 0 0 -1 I I #
coedge $-1 -1 $-1 $528 $250 $538 $542 reversed $241 $-1 #
vertex $-1 -1 $-1 $542 $543 #
straight-curve $-1 -1 $-1 -0.5 -6 -75 0 0 -1 I I #
edge $-1 -1 $-1 $531 -0.5 $254 0.5 $386 $544 forward @7 unknown #
point $-1 -1 $-1 -0.5 -6 -81 #
point $-1 -1 $-1 -0.5 -180 -81 #
face $-1 -1 $-1 $-1 $545 $35 $-1 $546 reversed single #
plane-surface $-1 -1 $-1 0 -93 81 0 0 1 1 0 0 forward_v I I I I #
coedge $-1 -1 $-1 $267 $547 $269 $423 forward $258 $-1 #
coedge $-1 -1 $-1 $548 $260 $547 $549 reversed $149 $-1 #
coedge $-1 -1 $-1 $260 $548 $261 $413 forward $149 $-1 #
coedge $-1 -1 $-1 $263 $269 $260 $411 reversed $270 $-1 #
edge $-1 -1 $-1 $414 -133.5 $550 40.5 $260 $551 forward @7 unknown #
coedge $-1 -1 $-1 $262 $261 $552 $553 reversed $93 $-1 #
edge $-1 -1 $-1 $554 0 $414 6 $409 $555 forward @7 unknown #
vertex $-1 -1 $-1 $413 $556 #
straight-curve $-1 -1 $-1 0 -180 81 -1 0 0 I I #
coedge $-1 -1 $-1 $552 $557 $265 $417 forward $545 $-1 #
edge $558 -1 $-1 $421 -40.5 $418 133.5 $265 $559 forward @7 unknown #
vertex $-1 -1 $-1 $417 $560 #
straight-curve $-1 -1 $-1 0.5 -180 75 0 0 1 I I #
coedge $-1 -1 $-1 $547 $267 $557 $561 reversed $258 $-1 #
vertex $-1 -1 $-1 $561 $562 #
straight-curve $-1 -1 $-1 0.5 -6 75 0 0 1 I I #
edge $-1 -1 $-1 $550 -0.5 $271 0.5 $407 $563 forward @7 unknown #
point $-1 -1 $-1 0.5 -6 81 #
point $-1 -1 $-1 0.5 -180 81 #
model_id-kcp-attrib $-1 -1 $-1 $-1 $275 1 1021411156 1021411156 628490241 8 #
face $564 -1 $-1 $565 $566 $10 $-1 $567 forward single #
loop $-1 -1 $-1 $-1 $568 $275 #
plane-surface $-1 -1 $-1 0.5 180 -81 0 0 -1 0 -1 0 forward_v I I I I #
coedge $-1 -1 $-1 $569 $464 $570 $571 forward $276 $-1 #
coedge $-1 -1 $-1 $434 $278 $572 $573 forward $158 $-1 #
coedge $-1 -1 $-1 $464 $569 $278 $433 reversed $276 $-1 #
edge $574 -1 $-1 $467 0 $575 1 $278 $576 forward @7 unknown #
coedge $-1 -1 $-1 $306 $431 $279 $435 reversed $158 $-1 #
edge $577 -1 $-1 $309 0 $578 1 $434 $579 forward @7 unknown #
coedge $-1 -1 $-1 $572 $280 $282 $438 forward $287 $-1 #
straight-curve $-1 -1 $-1 1 0 -60 0 1 0 I I #
edge $580 -1 $-1 $284 0 $578 15 $436 $581 forward @7 unknown #
convexity-sys-attrib $-1 -1 $-1 $283 $163 #
point $-1 -1 $-1 1 0 -60 #
coedge $-1 -1 $-1 $286 $582 $454 $583 forward $287 $-1 #
edge $-1 -1 $-1 $459 0 $288 50 $286 $584 forward @7 unknown #
face $585 -1 $-1 $586 $287 $10 $-1 $587 reversed single #
point $-1 -1 $-1 1 50 59.999999999999979 #
coedge $-1 -1 $-1 $588 $291 $589 $590 forward $38 $-1 #
coedge $-1 -1 $-1 $591 $592 $291 $447 reversed $593 $-1 #
edge $594 -1 $-1 $452 0 $595 6 $291 $596 forward @7 unknown #
coedge $-1 -1 $-1 $597 $292 $295 $455 forward $450 $-1 #
coedge $-1 -1 $-1 $292 $597 $591 $598 reversed $450 $-1 #
loop $-1 -1 $-1 $-1 $448 $599 #
attrib_edge_convexity-kcp-attrib $-1 -1 $600 $-1 $293 1 #
vertex $-1 -1 $-1 $447 $601 #
straight-curve $-1 -1 $-1 0 174 75 0 -1 0 I I #
coedge $-1 -1 $-1 $295 $294 $441 $583 reversed $296 $-1 #
edge $602 -1 $-1 $298 0 $603 1 $448 $604 forward @7 unknown #
face $605 -1 $-1 $302 $296 $10 $-1 $606 reversed single #
convexity-sys-attrib $-1 -1 $-1 $297 $170 #
point $-1 -1 $-1 0 0 75 #
vertex $-1 -1 $-1 $442 $607 #
straight-curve $-1 -1 $-1 0 0 60 1 0 0 I I #
model_id-kcp-attrib $-1 -1 $-1 $-1 $302 1 1021411156 1021411156 628490241 23 #
plane-surface $-1 -1 $-1 0.5 25 60 0 0 1 0 1 0 forward_v I I I I #
coedge $-1 -1 $-1 $305 $608 $609 $610 forward $38 $-1 #
coedge $-1 -1 $-1 $430 $432 $305 $465 reversed $276 $-1 #
edge $611 -1 $-1 $612 0 $467 6 $305 $613 forward @7 unknown #
attrib_edge_convexity-kcp-attrib $-1 -1 $614 $-1 $307 1 #
vertex $-1 -1 $-1 $307 $615 #
straight-curve $-1 -1 $-1 0 174 -75 0 -1 0 I I #
convexity-sys-attrib $-1 -1 $-1 $308 $178 #
point $-1 -1 $-1 0 0 -75 #
model_id-kcp-attrib $-1 -1 $-1 $-1 $315 1 1021411156 1021411156 629145602 6 #
plane-surface $-1 -1 $-1 0.5 0 0 -1 0 0 0 0 1 forward_v I I I I #
coedge $-1 -1 $-1 $320 $318 $322 $477 reversed $188 $-1 #
edge $-1 -1 $-1 $333 -81 $479 81 $332 $616 forward @7 unknown #
vertex $-1 -1 $-1 $477 $617 #
straight-curve $-1 -1 $-1 -0.5 -180 0 0 0 -1 I I #
edge $-1 -1 $-1 $475 -180 $479 180 $473 $618 forward @7 unknown #
straight-curve $-1 -1 $-1 0 -180 -81 -1 0 0 I I #
vertex $-1 -1 $-1 $325 $619 #
straight-curve $-1 -1 $-1 0 180 -81 1 0 0 I I #
point $-1 -1 $-1 0.5 180 -81 #
point $-1 -1 $-1 0.5 -180 -81 #
straight-curve $-1 -1 $-1 -0.5 0 81 0 -1 0 I I #
point $-1 -1 $-1 -0.5 180 81 #
point $-1 -1 $-1 -0.5 -180 81 #
straight-curve $-1 -1 $-1 0.5 -180 0 0 0 -1 I I #
straight-curve $-1 -1 $-1 0.5 180 0 0 0 -1 I I #
loop $-1 -1 $-1 $-1 $500 $342 #
plane-surface $-1 -1 $-1 0 93 -75 0 0 1 1 0 0 forward_v I I I I #
coedge $-1 -1 $-1 $344 $357 $345 $492 forward $207 $-1 #
coedge $-1 -1 $-1 $346 $345 $620 $621 reversed $125 $-1 #
edge $-1 -1 $-1 $622 0 $493 6 $490 $623 forward @7 unknown #
vertex $-1 -1 $-1 $492 $624 #
straight-curve $-1 -1 $-1 -0.5 46.5 -81 0 -1 0 I I #
coedge $-1 -1 $-1 $620 $353 $349 $496 forward $488 $-1 #
edge $625 -1 $-1 $355 -0.5 $497 0.5 $349 $626 forward @7 unknown #
vertex $-1 -1 $-1 $496 $627 #
straight-curve $-1 -1 $-1 -0.5 180 -75 0 0 -1 I I #
point $-1 -1 $-1 -0.5 180 -81 #
coedge $-1 -1 $-1 $353 $620 $357 $504 forward $488 $-1 #
convexity-sys-attrib $-1 -1 $-1 $-1 $354 #
straight-curve $-1 -1 $-1 0.5 46.5 -75 0 1 0 I I #
point $-1 -1 $-1 0.5 180 -75 #
edge $628 -1 $-1 $622 -0.5 $358 0.5 $357 $629 forward @7 unknown #
point $-1 -1 $-1 0.5 6 -75 #
straight-curve $-1 -1 $-1 0 6 -81 1 0 0 I I #
loop $-1 -1 $-1 $-1 $519 $363 #
plane-surface $-1 -1 $-1 0 93 75 0 0 1 1 0 0 forward_v I I I I #
coedge $-1 -1 $-1 $365 $378 $366 $511 forward $224 $-1 #
coedge $-1 -1 $-1 $367 $366 $630 $631 reversed $133 $-1 #
edge $-1 -1 $-1 $632 0 $512 6 $509 $633 forward @7 unknown #
vertex $-1 -1 $-1 $511 $634 #
straight-curve $-1 -1 $-1 0.5 46.5 81 0 -1 0 I I #
coedge $-1 -1 $-1 $630 $374 $370 $515 forward $507 $-1 #
edge $635 -1 $-1 $376 -0.5 $516 0.5 $370 $636 forward @7 unknown #
vertex $-1 -1 $-1 $515 $637 #
straight-curve $-1 -1 $-1 0.5 180 75 0 0 1 I I #
point $-1 -1 $-1 0.5 180 81 #
coedge $-1 -1 $-1 $374 $630 $378 $523 forward $507 $-1 #
convexity-sys-attrib $-1 -1 $-1 $-1 $375 #
straight-curve $-1 -1 $-1 -0.5 46.5 75 0 1 0 I I #
point $-1 -1 $-1 -0.5 180 75 #
edge $638 -1 $-1 $632 -0.5 $379 0.5 $378 $639 forward @7 unknown #
point $-1 -1 $-1 -0.5 6 75 #
straight-curve $-1 -1 $-1 0 6 81 -1 0 0 I I #
loop $-1 -1 $-1 $-1 $538 $384 #
plane-surface $-1 -1 $-1 0 -93 -75 0 0 1 1 0 0 forward_v I I I I #
coedge $-1 -1 $-1 $386 $399 $387 $530 forward $241 $-1 #
coedge $-1 -1 $-1 $388 $387 $640 $641 reversed $141 $-1 #
edge $-1 -1 $-1 $642 0 $531 6 $528 $643 forward @7 unknown #
vertex $-1 -1 $-1 $530 $644 #
straight-curve $-1 -1 $-1 0.5 -46.5 -81 0 1 0 I I #
coedge $-1 -1 $-1 $640 $395 $391 $534 forward $526 $-1 #
edge $645 -1 $-1 $397 -0.5 $535 0.5 $391 $646 forward @7 unknown #
vertex $-1 -1 $-1 $534 $647 #
straight-curve $-1 -1 $-1 0.5 -180 -75 0 0 -1 I I #
point $-1 -1 $-1 0.5 -180 -81 #
coedge $-1 -1 $-1 $395 $640 $399 $542 forward $526 $-1 #
convexity-sys-attrib $-1 -1 $-1 $-1 $396 #
straight-curve $-1 -1 $-1 -0.5 -46.5 -75 0 -1 0 I I #
point $-1 -1 $-1 -0.5 -180 -75 #
edge $648 -1 $-1 $642 -0.5 $400 0.5 $399 $649 forward @7 unknown #
point $-1 -1 $-1 -0.5 -6 -75 #
straight-curve $-1 -1 $-1 0 -6 -81 -1 0 0 I I #
loop $-1 -1 $-1 $-1 $557 $405 #
plane-surface $-1 -1 $-1 0 -93 75 0 0 1 1 0 0 forward_v I I I I #
coedge $-1 -1 $-1 $407 $420 $408 $549 forward $258 $-1 #
coedge $-1 -1 $-1 $409 $408 $650 $651 reversed $149 $-1 #
edge $-1 -1 $-1 $652 0 $550 6 $547 $653 forward @7 unknown #
vertex $-1 -1 $-1 $549 $654 #
straight-curve $-1 -1 $-1 -0.5 -46.5 81 0 1 0 I I #
coedge $-1 -1 $-1 $650 $416 $412 $553 forward $545 $-1 #
edge $655 -1 $-1 $418 -0.5 $554 0.5 $412 $656 forward @7 unknown #
vertex $-1 -1 $-1 $553 $657 #
straight-curve $-1 -1 $-1 -0.5 -180 75 0 0 1 I I #
point $-1 -1 $-1 -0.5 -180 81 #
coedge $-1 -1 $-1 $416 $650 $420 $561 forward $545 $-1 #
convexity-sys-attrib $-1 -1 $-1 $-1 $417 #
straight-curve $-1 -1 $-1 0.5 -46.5 75 0 -1 0 I I #
point $-1 -1 $-1 0.5 -180 75 #
edge $658 -1 $-1 $652 -0.5 $421 0.5 $420 $659 forward @7 unknown #
point $-1 -1 $-1 0.5 -6 75 #
straight-curve $-1 -1 $-1 0 -6 81 1 0 0 I I #
model_id-kcp-attrib $-1 -1 $-1 $-1 $427 1 1021411156 1021411156 628490241 9 #
face $660 -1 $-1 $661 $662 $10 $-1 $663 forward single #
loop $-1 -1 $-1 $-1 $664 $427 #
plane-surface $-1 -1 $-1 0.5 186 -78 0 1 0 0 0 -1 forward_v I I I I #
coedge $-1 -1 $-1 $665 $609 $666 $667 forward $428 $-1 #
coedge $-1 -1 $-1 $432 $430 $668 $669 forward $276 $-1 #
coedge $-1 -1 $-1 $609 $665 $430 $571 reversed $428 $-1 #
edge $670 -1 $-1 $612 0 $671 1 $430 $672 forward @7 unknown #
coedge $-1 -1 $-1 $668 $436 $431 $573 reversed $287 $-1 #
edge $673 -1 $-1 $575 0 $578 174 $431 $674 forward @7 unknown #
attrib_edge_convexity-kcp-attrib $-1 -1 $675 $-1 $433 2 #
vertex $-1 -1 $-1 $573 $676 #
straight-curve $-1 -1 $-1 0 174 -75 1 0 0 I I #
attrib_edge_convexity-kcp-attrib $-1 -1 $677 $-1 $435 1 #
vertex $-1 -1 $-1 $435 $678 #
straight-curve $-1 -1 $-1 0 0 -75 1 0 0 I I #
attrib_edge_convexity-kcp-attrib $-1 -1 $679 $-1 $438 1 #
straight-curve $-1 -1 $-1 1 0 -60 0 0 -1 I I #
coedge $-1 -1 $-1 $441 $680 $597 $681 forward $287 $-1 #
edge $-1 -1 $-1 $603 0 $459 15 $441 $682 forward @7 unknown #
straight-curve $-1 -1 $-1 1 0 60 0 1 0 I I #
model_id-kcp-attrib $-1 -1 $-1 $-1 $443 1 1021411156 1021411156 628490241 12 #
face $683 -1 $-1 $684 $685 $10 $-1 $686 reversed single #
plane-surface $-1 -1 $-1 1 360 75 -1 0 0 0 -1 0 forward_v I I I I #
coedge $-1 -1 $-1 $687 $445 $688 $689 forward $38 $-1 #
coedge $-1 -1 $-1 $690 $691 $445 $590 reversed $692 $-1 #
edge $693 -1 $-1 $595 0 $694 12 $445 $695 forward @7 unknown #
coedge $-1 -1 $-1 $696 $446 $449 $598 forward $593 $-1 #
coedge $-1 -1 $-1 $446 $696 $690 $697 reversed $593 $-1 #
loop $-1 -1 $-1 $-1 $591 $698 #
attrib_edge_convexity-kcp-attrib $-1 -1 $699 $-1 $447 1 #
vertex $-1 -1 $-1 $590 $700 #
straight-curve $-1 -1 $-1 0 174 75 0 0 1 I I #
coedge $-1 -1 $-1 $449 $448 $582 $681 reversed $450 $-1 #
edge $701 -1 $-1 $452 0 $702 1 $591 $703 forward @7 unknown #
face $704 -1 $-1 $456 $450 $10 $-1 $705 reversed single #
convexity-sys-attrib $-1 -1 $-1 $451 $293 #
point $-1 -1 $-1 0 174 75 #
attrib_edge_convexity-kcp-attrib $-1 -1 $706 $-1 $455 1 #
vertex $-1 -1 $-1 $681 $707 #
straight-curve $-1 -1 $-1 0 0 75 1 0 0 I I #
model_id-kcp-attrib $-1 -1 $-1 $-1 $456 1 1021411156 1021411156 628490241 22 #
plane-surface $-1 -1 $-1 0.5 0 0 0 1 0 0 0 -1 forward_v I I I I #
point $-1 -1 $-1 1 0 60 #
coedge $-1 -1 $-1 $463 $708 $709 $710 forward $38 $-1 #
coedge $-1 -1 $-1 $568 $570 $463 $610 reversed $428 $-1 #
edge $711 -1 $-1 $712 0 $612 12 $463 $713 forward @7 unknown #
attrib_edge_convexity-kcp-attrib $-1 -1 $714 $-1 $465 1 #
vertex $-1 -1 $-1 $465 $715 #
straight-curve $-1 -1 $-1 0 174 -81 0 0 1 I I #
convexity-sys-attrib $-1 -1 $-1 $466 $307 #
point $-1 -1 $-1 0 174 -75 #
straight-curve $-1 -1 $-1 -0.5 180 0 0 0 -1 I I #
point $-1 -1 $-1 -0.5 -180 -81 #
straight-curve $-1 -1 $-1 -0.5 0 -81 0 1 0 I I #
point $-1 -1 $-1 -0.5 180 -81 #
coedge $-1 -1 $-1 $500 $495 $491 $621 forward $488 $-1 #
edge $716 -1 $-1 $497 -133.5 $622 40.5 $491 $717 forward @7 unknown #
vertex $-1 -1 $-1 $504 $718 #
straight-curve $-1 -1 $-1 -0.5 6 -75 0 0 -1 I I #
point $-1 -1 $-1 -0.5 6 -81 #
convexity-sys-attrib $-1 -1 $-1 $-1 $496 #
straight-curve $-1 -1 $-1 0 180 -75 -1 0 0 I I #
point $-1 -1 $-1 -0.5 180 -75 #
convexity-sys-attrib $-1 -1 $-1 $-1 $504 #
straight-curve $-1 -1 $-1 0 6 -75 1 0 0 I I #
coedge $-1 -1 $-1 $519 $514 $510 $631 forward $507 $-1 #
edge $719 -1 $-1 $516 -133.5 $632 40.5 $510 $720 forward @7 unknown #
vertex $-1 -1 $-1 $523 $721 #
straight-curve $-1 -1 $-1 0.5 6 75 0 0 1 I I #
point $-1 -1 $-1 0.5 6 81 #
convexity-sys-attrib $-1 -1 $-1 $-1 $515 #
straight-curve $-1 -1 $-1 0 180 75 1 0 0 I I #
point $-1 -1 $-1 0.5 180 75 #
convexity-sys-attrib $-1 -1 $-1 $-1 $523 #
straight-curve $-1 -1 $-1 0 6 75 -1 0 0 I I #
coedge $-1 -1 $-1 $538 $533 $529 $641 forward $526 $-1 #
edge $722 -1 $-1 $535 -133.5 $642 40.5 $529 $723 forward @7 unknown #
vertex $-1 -1 $-1 $542 $724 #
straight-curve $-1 -1 $-1 0.5 -6 -75 0 0 -1 I I #
point $-1 -1 $-1 0.5 -6 -81 #
convexity-sys-attrib $-1 -1 $-1 $-1 $534 #
straight-curve $-1 -1 $-1 0 -180 -75 1 0 0 I I #
point $-1 -1 $-1 0.5 -180 -75 #
convexity-sys-attrib $-1 -1 $-1 $-1 $542 #
straight-curve $-1 -1 $-1 0 -6 -75 -1 0 0 I I #
coedge $-1 -1 $-1 $557 $552 $548 $651 forward $545 $-1 #
edge $725 -1 $-1 $554 -133.5 $652 40.5 $548 $726 forward @7 unknown #
vertex $-1 -1 $-1 $561 $727 #
straight-curve $-1 -1 $-1 -0.5 -6 75 0 0 1 I I #
point $-1 -1 $-1 -0.5 -6 81 #
convexity-sys-attrib $-1 -1 $-1 $-1 $553 #
straight-curve $-1 -1 $-1 0 -180 75 -1 0 0 I I #
point $-1 -1 $-1 -0.5 -180 75 #
convexity-sys-attrib $-1 -1 $-1 $-1 $561 #
straight-curve $-1 -1 $-1 0 -6 75 1 0 0 I I #
model_id-kcp-attrib $-1 -1 $-1 $-1 $565 1 1021411156 1021411156 628490241 10 #
face $728 -1 $-1 $443 $729 $10 $-1 $730 forward single #
loop $-1 -1 $-1 $-1 $731 $565 #
plane-surface $-1 -1 $-1 0.5 273 -75 0 0 -1 0 -1 0 forward_v I I I I #
coedge $-1 -1 $-1 $732 $709 $733 $734 forward $566 $-1 #
coedge $-1 -1 $-1 $570 $568 $735 $736 forward $428 $-1 #
coedge $-1 -1 $-1 $709 $732 $568 $667 reversed $566 $-1 #
edge $737 -1 $-1 $712 0 $738 1 $568 $739 forward @7 unknown #
coedge $-1 -1 $-1 $735 $572 $569 $669 reversed $287 $-1 #
edge $740 -1 $-1 $671 0 $575 6 $569 $741 forward @7 unknown #
attrib_edge_convexity-kcp-attrib $-1 -1 $742 $-1 $571 1 #
vertex $-1 -1 $-1 $669 $743 #
straight-curve $-1 -1 $-1 0 174 -81 1 0 0 I I #
attrib_edge_convexity-kcp-attrib $-1 -1 $744 $-1 $573 1 #
straight-curve $-1 -1 $-1 1 174 -75 0 -1 0 I I #
convexity-sys-attrib $-1 -1 $-1 $574 $433 #
point $-1 -1 $-1 1 174 -75 #
convexity-sys-attrib $-1 -1 $-1 $577 $435 #
point $-1 -1 $-1 1 0 -75 #
convexity-sys-attrib $-1 -1 $-1 $580 $438 #
coedge $-1 -1 $-1 $582 $745 $696 $746 reversed $287 $-1 #
edge $747 -1 $-1 $702 0 $603 174 $597 $748 forward @7 unknown #
straight-curve $-1 -1 $-1 1 0 75 0 0 -1 I I #
model_id-kcp-attrib $-1 -1 $-1 $-1 $586 1 1021411156 1021411156 628490241 13 #
face $749 -1 $-1 $750 $751 $10 $-1 $752 reversed single #
loop $-1 -1 $-1 $-1 $753 $586 #
plane-surface $-1 -1 $-1 0 360 -60 0 0 -1 0 -1 0 forward_v I I I I #
coedge $-1 -1 $-1 $754 $588 $755 $756 reversed $38 $-1 #
coedge $-1 -1 $-1 $757 $758 $588 $689 reversed $759 $-1 #
edge $760 -1 $-1 $694 0 $761 6 $588 $762 forward @7 unknown #
coedge $-1 -1 $-1 $763 $589 $592 $697 forward $692 $-1 #
coedge $-1 -1 $-1 $589 $763 $757 $764 reversed $692 $-1 #
loop $-1 -1 $-1 $-1 $690 $765 #
attrib_edge_convexity-kcp-attrib $-1 -1 $766 $-1 $590 1 #
vertex $-1 -1 $-1 $689 $767 #
straight-curve $-1 -1 $-1 0 174 81 0 1 0 I I #
coedge $-1 -1 $-1 $592 $591 $680 $746 forward $593 $-1 #
edge $768 -1 $-1 $595 0 $769 1 $690 $770 forward @7 unknown #
face $771 -1 $-1 $599 $593 $10 $-1 $772 forward single #
convexity-sys-attrib $-1 -1 $-1 $594 $447 #
point $-1 -1 $-1 0 174 81 #
attrib_edge_convexity-kcp-attrib $-1 -1 $773 $-1 $598 2 #
vertex $-1 -1 $-1 $746 $774 #
straight-curve $-1 -1 $-1 0 174 75 1 0 0 I I #
model_id-kcp-attrib $-1 -1 $-1 $-1 $599 1 1021411156 1021411156 628490241 21 #
plane-surface $-1 -1 $-1 0.5 87 75 0 0 -1 0 -1 0 forward_v I I I I #
convexity-sys-attrib $-1 -1 $-1 $602 $455 #
point $-1 -1 $-1 1 0 75 #
coedge $-1 -1 $-1 $608 $775 $776 $777 forward $38 $-1 #
coedge $-1 -1 $-1 $664 $666 $608 $710 reversed $566 $-1 #
edge $778 -1 $-1 $779 0 $712 6 $608 $780 forward @7 unknown #
attrib_edge_convexity-kcp-attrib $-1 -1 $781 $-1 $610 1 #
vertex $-1 -1 $-1 $610 $782 #
straight-curve $-1 -1 $-1 0 186 -81 0 -1 0 I I #
convexity-sys-attrib $-1 -1 $-1 $611 $465 #
point $-1 -1 $-1 0 174 -81 #
convexity-sys-attrib $-1 -1 $-1 $-1 $621 #
straight-curve $-1 -1 $-1 -0.5 46.5 -75 0 -1 0 I I #
point $-1 -1 $-1 -0.5 6 -75 #
convexity-sys-attrib $-1 -1 $-1 $-1 $631 #
straight-curve $-1 -1 $-1 0.5 46.5 75 0 -1 0 I I #
point $-1 -1 $-1 0.5 6 75 #
convexity-sys-attrib $-1 -1 $-1 $-1 $641 #
straight-curve $-1 -1 $-1 0.5 -46.5 -75 0 1 0 I I #
point $-1 -1 $-1 0.5 -6 -75 #
convexity-sys-attrib $-1 -1 $-1 $-1 $651 #
straight-curve $-1 -1 $-1 -0.5 -46.5 75 0 1 0 I I #
point $-1 -1 $-1 -0.5 -6 75 #
model_id-kcp-attrib $-1 -1 $-1 $-1 $661 1 1021411156 1021411156 628490241 11 #
loop $-1 -1 $-1 $-1 $783 $661 #
plane-surface $-1 -1 $-1 0.5 360 0 0 1 0 0 0 -1 forward_v I I I I #
coedge $-1 -1 $-1 $784 $776 $785 $786 forward $662 $-1 #
coedge $-1 -1 $-1 $666 $664 $787 $788 forward $566 $-1 #
coedge $-1 -1 $-1 $776 $784 $664 $734 reversed $662 $-1 #
edge $789 -1 $-1 $779 0 $790 1 $664 $791 forward @7 unknown #
coedge $-1 -1 $-1 $787 $668 $665 $736 reversed $287 $-1 #
edge $792 -1 $-1 $738 0 $671 12 $665 $793 forward @7 unknown #
attrib_edge_convexity-kcp-attrib $-1 -1 $794 $-1 $667 1 #
vertex $-1 -1 $-1 $736 $795 #
straight-curve $-1 -1 $-1 0 186 -81 1 0 0 I I #
attrib_edge_convexity-kcp-attrib $-1 -1 $796 $-1 $669 1 #
straight-curve $-1 -1 $-1 1 174 -81 0 0 1 I I #
convexity-sys-attrib $-1 -1 $-1 $670 $571 #
point $-1 -1 $-1 1 174 -81 #
convexity-sys-attrib $-1 -1 $-1 $673 $573 #
coedge $-1 -1 $-1 $680 $797 $763 $798 reversed $287 $-1 #
edge $799 -1 $-1 $702 0 $769 6 $696 $800 forward @7 unknown #
attrib_edge_convexity-kcp-attrib $-1 -1 $801 $-1 $681 1 #
straight-curve $-1 -1 $-1 1 174 75 0 -1 0 I I #
model_id-kcp-attrib $-1 -1 $-1 $-1 $684 1 1021411156 1021411156 628490241 14 #
face $802 -1 $-1 $803 $804 $10 $-1 $805 reversed single #
loop $-1 -1 $-1 $-1 $806 $684 #
cone-surface $-1 -1 $-1 0 310 0 -1 0 0 0 0 60 1 I I 0 1 60 forward I I I I #
coedge $-1 -1 $-1 $807 $808 $809 $810 forward $685 $-1 #
coedge $-1 -1 $-1 $811 $687 $812 $813 forward $38 $-1 #
coedge $-1 -1 $-1 $814 $815 $687 $756 forward $816 $-1 #
edge $817 -1 $-1 $818 0 $761 174 $687 $819 forward @7 unknown #
coedge $-1 -1 $-1 $820 $688 $691 $764 forward $759 $-1 #
coedge $-1 -1 $-1 $688 $820 $814 $821 reversed $759 $-1 #
loop $-1 -1 $-1 $-1 $757 $822 #
attrib_edge_convexity-kcp-attrib $-1 -1 $823 $-1 $689 1 #
vertex $-1 -1 $-1 $756 $824 #
straight-curve $-1 -1 $-1 0 186 81 0 0 -1 I I #
coedge $-1 -1 $-1 $691 $690 $745 $798 forward $692 $-1 #
edge $825 -1 $-1 $694 0 $826 1 $757 $827 forward @7 unknown #
face $828 -1 $-1 $698 $692 $10 $-1 $829 forward single #
convexity-sys-attrib $-1 -1 $-1 $693 $590 #
point $-1 -1 $-1 0 186 81 #
attrib_edge_convexity-kcp-attrib $-1 -1 $830 $-1 $697 1 #
vertex $-1 -1 $-1 $798 $831 #
straight-curve $-1 -1 $-1 0 174 81 1 0 0 I I #
model_id-kcp-attrib $-1 -1 $-1 $-1 $698 1 1021411156 1021411156 628490241 20 #
plane-surface $-1 -1 $-1 0.5 174 78 0 -1 0 0 0 1 forward_v I I I I #
convexity-sys-attrib $-1 -1 $-1 $701 $598 #
point $-1 -1 $-1 1 174 75 #
coedge $-1 -1 $-1 $708 $809 $832 $833 forward $38 $-1 #
coedge $-1 -1 $-1 $731 $733 $708 $777 reversed $662 $-1 #
edge $834 -1 $-1 $835 0 $779 174 $708 $836 forward @7 unknown #
attrib_edge_convexity-kcp-attrib $-1 -1 $837 $-1 $710 1 #
vertex $-1 -1 $-1 $710 $838 #
straight-curve $-1 -1 $-1 0 186 -75 0 0 -1 I I #
convexity-sys-attrib $-1 -1 $-1 $711 $610 #
point $-1 -1 $-1 0 186 -81 #
coedge $-1 -1 $-1 $785 $839 $840 $841 forward $729 $-1 #
coedge $-1 -1 $-1 $733 $731 $842 $843 forward $662 $-1 #
coedge $-1 -1 $-1 $832 $783 $731 $786 reversed $729 $-1 #
edge $844 -1 $-1 $835 0 $845 1 $731 $846 forward @7 unknown #
coedge $-1 -1 $-1 $842 $735 $732 $788 reversed $287 $-1 #
edge $847 -1 $-1 $790 0 $738 6 $732 $848 forward @7 unknown #
attrib_edge_convexity-kcp-attrib $-1 -1 $849 $-1 $734 2 #
vertex $-1 -1 $-1 $788 $850 #
straight-curve $-1 -1 $-1 0 186 -75 1 0 0 I I #
attrib_edge_convexity-kcp-attrib $-1 -1 $851 $-1 $736 1 #
straight-curve $-1 -1 $-1 1 186 -81 0 -1 0 I I #
convexity-sys-attrib $-1 -1 $-1 $737 $667 #
point $-1 -1 $-1 1 186 -81 #
convexity-sys-attrib $-1 -1 $-1 $740 $669 #
coedge $-1 -1 $-1 $745 $852 $820 $853 reversed $287 $-1 #
edge $-1 -1 $-1 $769 0 $826 12 $763 $854 forward @7 unknown #
attrib_edge_convexity-kcp-attrib $-1 -1 $855 $-1 $746 1 #
straight-curve $-1 -1 $-1 1 174 75 0 0 1 I I #
convexity-sys-attrib $-1 -1 $-1 $747 $681 #
model_id-kcp-attrib $-1 -1 $-1 $-1 $750 1 1021411156 1021411156 628490241 15 #
face $856 -1 $-1 $857 $858 $10 $-1 $859 forward single #
loop $-1 -1 $-1 $-1 $860 $750 #
plane-surface $-1 -1 $-1 0 310 60 0 0 1 0 1 0 forward_v I I I I #
coedge $-1 -1 $-1 $861 $862 $863 $864 forward $751 $-1 #
coedge $-1 -1 $-1 $865 $753 $862 $866 forward $685 $-1 #
coedge $-1 -1 $-1 $753 $865 $839 $867 forward $685 $-1 #
coedge $-1 -1 $-1 $775 $863 $753 $810 reversed $38 $-1 #
edge $868 -1 $-1 $869 0 $870 50 $809 $871 forward @7 unknown #
coedge $-1 -1 $-1 $863 $754 $872 $873 forward $38 $-1 #
coedge $-1 -1 $-1 $874 $875 $754 $813 reversed $858 $-1 #
edge $876 -1 $-1 $818 0 $877 15 $754 $878 forward @7 unknown #
coedge $-1 -1 $-1 $879 $755 $758 $821 forward $816 $-1 #
coedge $-1 -1 $-1 $755 $879 $874 $880 reversed $816 $-1 #
loop $-1 -1 $-1 $-1 $814 $857 #
attrib_edge_convexity-kcp-attrib $-1 -1 $881 $-1 $756 1 #
vertex $-1 -1 $-1 $813 $882 #
straight-curve $-1 -1 $-1 0 360 75 0 -1 0 I I #
coedge $-1 -1 $-1 $758 $757 $797 $853 forward $759 $-1 #
edge $883 -1 $-1 $761 0 $884 1 $814 $885 forward @7 unknown #
face $886 -1 $-1 $765 $759 $10 $-1 $887 forward single #
convexity-sys-attrib $-1 -1 $-1 $760 $689 #
point $-1 -1 $-1 0 186 75 #
attrib_edge_convexity-kcp-attrib $-1 -1 $888 $-1 $764 1 #
vertex $-1 -1 $-1 $853 $889 #
straight-curve $-1 -1 $-1 0 186 81 1 0 0 I I #
model_id-kcp-attrib $-1 -1 $-1 $-1 $765 1 1021411156 1021411156 628490241 19 #
plane-surface $-1 -1 $-1 0.5 180 81 0 0 1 0 1 0 forward_v I I I I #
convexity-sys-attrib $-1 -1 $-1 $768 $697 #
point $-1 -1 $-1 1 174 81 #
coedge $-1 -1 $-1 $839 $785 $775 $833 reversed $729 $-1 #
edge $890 -1 $-1 $869 0 $835 15 $775 $891 forward @7 unknown #
attrib_edge_convexity-kcp-attrib $-1 -1 $892 $-1 $777 1 #
vertex $-1 -1 $-1 $777 $893 #
straight-curve $-1 -1 $-1 0 360 -75 0 -1 0 I I #
convexity-sys-attrib $-1 -1 $-1 $778 $710 #
point $-1 -1 $-1 0 186 -75 #
coedge $-1 -1 $-1 $783 $832 $808 $867 reversed $729 $-1 #
coedge $-1 -1 $-1 $894 $842 $783 $841 reversed $287 $-1 #
edge $-1 -1 $-1 $895 0 $845 15 $783 $896 forward @7 unknown #
coedge $-1 -1 $-1 $840 $787 $784 $843 reversed $287 $-1 #
edge $897 -1 $-1 $845 0 $790 174 $784 $898 forward @7 unknown #
attrib_edge_convexity-kcp-attrib $-1 -1 $899 $-1 $786 1 #
vertex $-1 -1 $-1 $843 $900 #
straight-curve $-1 -1 $-1 0 360 -75 1 0 0 I I #
attrib_edge_convexity-kcp-attrib $-1 -1 $901 $-1 $788 1 #
straight-curve $-1 -1 $-1 1 186 -75 0 0 -1 I I #
convexity-sys-attrib $-1 -1 $-1 $789 $734 #
point $-1 -1 $-1 1 186 -75 #
convexity-sys-attrib $-1 -1 $-1 $792 $736 #
coedge $-1 -1 $-1 $797 $902 $879 $903 forward $287 $-1 #
edge $904 -1 $-1 $826 0 $884 6 $820 $905 forward @7 unknown #
straight-curve $-1 -1 $-1 1 174 81 0 1 0 I I #
convexity-sys-attrib $-1 -1 $-1 $799 $746 #
model_id-kcp-attrib $-1 -1 $-1 $-1 $803 1 1021411156 1021411156 628490241 16 #
face $906 -1 $-1 $822 $816 $10 $-1 $907 reversed single #
loop $-1 -1 $-1 $-1 $812 $803 #
plane-surface $-1 -1 $-1 0.5 360 0 0 1 0 0 0 -1 forward_v I I I I #
coedge $-1 -1 $-1 $908 $909 $910 $911 forward $804 $-1 #
coedge $-1 -1 $-1 $912 $806 $908 $913 forward $751 $-1 #
coedge $-1 -1 $-1 $806 $912 $807 $866 reversed $751 $-1 #
coedge $-1 -1 $-1 $809 $811 $806 $864 reversed $38 $-1 #
edge $914 -1 $-1 $870 0 $915 3.1415926535897931 $863 $916 forward @7 unknown #
coedge $-1 -1 $-1 $808 $807 $894 $917 reversed $685 $-1 #
edge $-1 -1 $-1 $870 0 $918 1 $807 $919 forward @7 unknown #
edge $-1 -1 $-1 $895 0 $869 1 $839 $920 forward @7 unknown #
attrib_edge_convexity-kcp-attrib $-1 -1 $921 $-1 $810 1 #
vertex $-1 -1 $-1 $833 $922 #
vertex $-1 -1 $-1 $810 $923 #
straight-curve $-1 -1 $-1 0 360 -60 0 -1 0 I I #
coedge $-1 -1 $-1 $909 $908 $811 $873 reversed $804 $-1 #
edge $924 -1 $-1 $877 0 $915 50 $811 $925 forward @7 unknown #
coedge $-1 -1 $-1 $926 $812 $815 $880 forward $858 $-1 #
coedge $-1 -1 $-1 $812 $926 $909 $927 forward $858 $-1 #
attrib_edge_convexity-kcp-attrib $-1 -1 $928 $-1 $813 1 #
vertex $-1 -1 $-1 $873 $929 #
straight-curve $-1 -1 $-1 0 360 75 0 0 -1 I I #
coedge $-1 -1 $-1 $815 $814 $852 $903 reversed $816 $-1 #
edge $930 -1 $-1 $818 0 $931 1 $874 $932 forward @7 unknown #
convexity-sys-attrib $-1 -1 $-1 $817 $756 #
point $-1 -1 $-1 0 360 75 #
attrib_edge_convexity-kcp-attrib $-1 -1 $933 $-1 $821 2 #
vertex $-1 -1 $-1 $903 $934 #
straight-curve $-1 -1 $-1 0 186 75 1 0 0 I I #
model_id-kcp-attrib $-1 -1 $-1 $-1 $822 1 1021411156 1021411156 628490241 18 #
plane-surface $-1 -1 $-1 0.5 186 78 0 1 0 0 0 -1 forward_v I I I I #
convexity-sys-attrib $-1 -1 $-1 $825 $764 #
point $-1 -1 $-1 1 186 81 #
attrib_edge_convexity-kcp-attrib $-1 -1 $935 $-1 $833 1 #
straight-curve $-1 -1 $-1 0 360 -60 0 0 -1 I I #
convexity-sys-attrib $-1 -1 $-1 $834 $777 #
point $-1 -1 $-1 0 360 -75 #
coedge $-1 -1 $-1 $936 $840 $865 $917 forward $287 $-1 #
vertex $-1 -1 $-1 $867 $937 #
straight-curve $-1 -1 $-1 1 360 -60 0 0 -1 I I #
attrib_edge_convexity-kcp-attrib $-1 -1 $938 $-1 $843 1 #
straight-curve $-1 -1 $-1 1 360 -75 0 -1 0 I I #
convexity-sys-attrib $-1 -1 $-1 $844 $786 #
point $-1 -1 $-1 1 360 -75 #
convexity-sys-attrib $-1 -1 $-1 $847 $788 #
coedge $-1 -1 $-1 $852 $910 $926 $939 reversed $287 $-1 #
edge $940 -1 $-1 $931 0 $884 174 $879 $941 forward @7 unknown #
attrib_edge_convexity-kcp-attrib $-1 -1 $942 $-1 $853 1 #
straight-curve $-1 -1 $-1 1 186 81 0 0 -1 I I #
model_id-kcp-attrib $-1 -1 $-1 $-1 $857 1 1021411156 1021411156 628490241 17 #
plane-surface $-1 -1 $-1 0.5 273 75 0 0 -1 0 -1 0 forward_v I I I I #
coedge $-1 -1 $-1 $872 $860 $861 $913 reversed $804 $-1 #
coedge $-1 -1 $-1 $860 $872 $875 $927 reversed $804 $-1 #
coedge $-1 -1 $-1 $902 $936 $860 $911 reversed $287 $-1 #
edge $-1 -1 $-1 $943 0 $944 50 $860 $945 forward @7 unknown #
coedge $-1 -1 $-1 $862 $861 $936 $946 reversed $751 $-1 #
edge $-1 -1 $-1 $915 0 $944 1 $861 $947 forward @7 unknown #
attrib_edge_convexity-kcp-attrib $-1 -1 $948 $-1 $864 1 #
vertex $-1 -1 $-1 $864 $949 #
ellipse-curve $-1 -1 $-1 0 310 0 -1 0 0 0 0 -60 1 I I #
edge $-1 -1 $-1 $895 0 $918 50 $865 $950 forward @7 unknown #
vertex $-1 -1 $-1 $917 $951 #
straight-curve $-1 -1 $-1 0 310 -60 1 0 0 I I #
straight-curve $-1 -1 $-1 1 360 -60 -1 0 0 I I #
convexity-sys-attrib $-1 -1 $-1 $868 $810 #
point $-1 -1 $-1 0 360 -60 #
point $-1 -1 $-1 0 310 -60 #
attrib_edge_convexity-kcp-attrib $-1 -1 $952 $-1 $873 1 #
straight-curve $-1 -1 $-1 0 360 60 0 -1 0 I I #
coedge $-1 -1 $-1 $875 $874 $902 $939 forward $858 $-1 #
edge $-1 -1 $-1 $943 0 $877 1 $875 $953 forward @7 unknown #
convexity-sys-attrib $-1 -1 $-1 $876 $813 #
point $-1 -1 $-1 0 360 60 #
attrib_edge_convexity-kcp-attrib $-1 -1 $954 $-1 $880 1 #
vertex $-1 -1 $-1 $939 $955 #
straight-curve $-1 -1 $-1 0 360 75 1 0 0 I I #
convexity-sys-attrib $-1 -1 $-1 $883 $821 #
point $-1 -1 $-1 1 186 75 #
convexity-sys-attrib $-1 -1 $-1 $890 $833 #
coedge $-1 -1 $-1 $910 $894 $912 $946 forward $287 $-1 #
point $-1 -1 $-1 1 360 -60 #
convexity-sys-attrib $-1 -1 $-1 $897 $843 #
edge $-1 -1 $-1 $931 0 $943 15 $926 $956 forward @7 unknown #
attrib_edge_convexity-kcp-attrib $-1 -1 $957 $-1 $903 1 #
straight-curve $-1 -1 $-1 1 360 75 0 -1 0 I I #
convexity-sys-attrib $-1 -1 $-1 $904 $853 #
vertex $-1 -1 $-1 $927 $958 #
vertex $-1 -1 $-1 $946 $959 #
straight-curve $-1 -1 $-1 1 360 60 0 -1 0 I I #
edge $-1 -1 $-1 $918 0 $944 3.1415926535897931 $912 $960 forward @7 unknown #
straight-curve $-1 -1 $-1 0 310 60 1 0 0 I I #
convexity-sys-attrib $-1 -1 $-1 $914 $864 #
point $-1 -1 $-1 0 310 60 #
straight-curve $-1 -1 $-1 1 360 -60 0 -1 0 I I #
point $-1 -1 $-1 1 310 -60 #
convexity-sys-attrib $-1 -1 $-1 $924 $873 #
straight-curve $-1 -1 $-1 1 360 60 -1 0 0 I I #
convexity-sys-attrib $-1 -1 $-1 $930 $880 #
point $-1 -1 $-1 1 360 75 #
straight-curve $-1 -1 $-1 1 360 75 0 0 -1 I I #
convexity-sys-attrib $-1 -1 $-1 $940 $903 #
point $-1 -1 $-1 1 360 60 #
point $-1 -1 $-1 1 310 60 #
ellipse-curve $-1 -1 $-1 1 310 0 -1 0 0 0 0 -60 1 I I #
End-of-ACIS-data 