700 0 2 0           
24 FBMach with ACIS - 7.0.3 13 ACIS 7.0.3 NT 24 Wed May 15 10:08:39 2002 
1 9.9999999999999995e-007 1e-010 
body $2 -1 $-1 $3 $-1 $4 #
bdycol-kcp $-1 -1 1 2 $5 $6 #
model_id-kcp-attrib $-1 -1 $-1 $-1 $0 1 1021471719 1021471719 -1594228735 1 #
lump $-1 -1 $-1 $-1 $7 $0 #
transform $-1 -1 1 0 0 0 1 0 0 0 1 0 0 0 1 rotate no_reflect no_shear #
body $8 -1 $-1 $9 $-1 $10 #
body $11 -1 $-1 $12 $-1 $13 #
shell $-1 -1 $-1 $-1 $-1 $14 $-1 $3 #
rgb_color-st-attrib $-1 -1 $15 $-1 $5 0.5 1 1 #
lump $-1 -1 $-1 $-1 $16 $5 #
transform $-1 -1 1 0 0 0 1 0 0 0 1 0 0 0 1 no_rotate no_reflect no_shear #
model_id-kcp-attrib $-1 -1 $-1 $-1 $6 1 1021471719 1021471719 -1594228734 1 #
lump $-1 -1 $-1 $-1 $17 $6 #
transform $-1 -1 1 0 0 0 1 0 0 0 1 38.099999999999994 -38.099999999999994 -1.5874999999999999 1 no_rotate no_reflect no_shear #
face $18 -1 $-1 $19 $20 $7 $-1 $21 forward single #
model_id-kcp-attrib $-1 -1 $-1 $8 $5 1 1021471719 1021471719 -1600520189 1 #
shell $-1 -1 $-1 $-1 $-1 $22 $-1 $9 #
shell $-1 -1 $-1 $-1 $-1 $23 $-1 $12 #
model_id-kcp-attrib $-1 -1 $-1 $-1 $14 1 1021471719 1021471719 -1594228735 2 #
face $24 -1 $-1 $25 $26 $7 $-1 $27 forward single #
loop $-1 -1 $-1 $28 $29 $14 #
plane-surface $-1 -1 $-1 0 0 0 0 0 1 1 0 0 forward_v I I I I #
face $-1 -1 $-1 $30 $31 $16 $-1 $32 forward single #
face $33 -1 $-1 $34 $35 $17 $-1 $36 forward single #
model_id-kcp-attrib $-1 -1 $-1 $-1 $19 1 1021471719 1021471719 -1594228735 3 #
face $37 -1 $-1 $38 $39 $7 $-1 $40 forward single #
loop $-1 -1 $-1 $-1 $41 $19 #
plane-surface $-1 -1 $-1 38.099999999999994 -76.199999999999989 -1.5874999999999999 0 -1 0 1 0 0 forward_v I I I I #
loop $-1 -1 $-1 $-1 $42 $14 #
coedge $-1 -1 $-1 $43 $44 $45 $46 forward $20 $-1 #
face $-1 -1 $-1 $47 $48 $16 $-1 $49 forward single #
loop $-1 -1 $-1 $-1 $50 $22 #
plane-surface $-1 -1 $-1 55.24500000000004 -25.399999999999999 0 0 1 0 0 0 1 forward_v I I I I #
model_id-kcp-attrib $-1 -1 $-1 $-1 $23 1 1021471719 1021471719 -1594228734 2 #
face $51 -1 $-1 $52 $53 $17 $-1 $54 reversed single #
loop $-1 -1 $-1 $-1 $55 $23 #
plane-surface $-1 -1 $-1 0 0 1.5874999999999999 0 0 1 1 0 0 forward_v I I I I #
model_id-kcp-attrib $-1 -1 $-1 $-1 $25 1 1021471719 1021471719 -1594228735 4 #
face $56 -1 $-1 $57 $58 $7 $-1 $59 forward single #
loop $-1 -1 $-1 $-1 $60 $25 #
plane-surface $-1 -1 $-1 0 -38.099999999999994 -1.5874999999999999 -1 0 0 0 -1 0 forward_v I I I I #
coedge $-1 -1 $-1 $61 $45 $62 $63 forward $26 $-1 #
coedge $-1 -1 $-1 $64 $65 $66 $67 reversed $28 $-1 #
coedge $-1 -1 $-1 $68 $29 $69 $70 forward $20 $-1 #
coedge $-1 -1 $-1 $29 $68 $71 $72 forward $20 $-1 #
coedge $-1 -1 $-1 $41 $73 $29 $46 reversed $26 $-1 #
edge $74 -1 $-1 $75 0 $76 76.199999999999989 $29 $77 forward @7 unknown #
face $-1 -1 $-1 $78 $79 $16 $-1 $80 forward single #
loop $-1 -1 $-1 $-1 $81 $30 #
cone-surface $-1 -1 $-1 27.304999999999978 -33.65499999999998 0 0 0 -1 -1.7763568394002505e-014 8.2549999999999812 0 1 I I 0 1 8.2549999999999812 forward I I I I #
coedge $-1 -1 $-1 $82 $83 $84 $85 forward $31 $-1 #
model_id-kcp-attrib $-1 -1 $-1 $-1 $34 1 1021471719 1021471719 -1594228734 7 #
face $86 -1 $-1 $87 $88 $17 $-1 $89 reversed single #
loop $-1 -1 $-1 $-1 $90 $34 #
plane-surface $-1 -1 $-1 0 0 -1.5874999999999999 0 0 1 1 0 0 forward_v I I I I #
coedge $-1 -1 $-1 $91 $92 $93 $94 forward $35 $-1 #
model_id-kcp-attrib $-1 -1 $-1 $-1 $38 1 1021471719 1021471719 -1594228735 5 #
face $95 -1 $-1 $96 $97 $7 $-1 $98 forward single #
loop $-1 -1 $-1 $-1 $99 $38 #
plane-surface $-1 -1 $-1 38.099999999999994 0 -1.5874999999999999 0 1 0 -1 0 0 forward_v I I I I #
coedge $-1 -1 $-1 $100 $71 $101 $102 forward $39 $-1 #
coedge $-1 -1 $-1 $73 $41 $103 $104 forward $26 $-1 #
coedge $-1 -1 $-1 $71 $100 $41 $63 reversed $39 $-1 #
edge $105 -1 $-1 $75 0 $106 3.1749999999999998 $62 $107 forward @7 unknown #
coedge $-1 -1 $-1 $108 $42 $109 $110 reversed $28 $-1 #
coedge $-1 -1 $-1 $42 $111 $112 $113 forward $28 $-1 #
coedge $-1 -1 $-1 $114 $115 $42 $67 forward $116 $-1 #
edge $117 -1 $-1 $118 0 $119 2.3629541845180602 $42 $120 forward @7 unknown #
coedge $-1 -1 $-1 $44 $43 $121 $122 forward $20 $-1 #
coedge $-1 -1 $-1 $123 $124 $43 $70 reversed $97 $-1 #
edge $125 -1 $-1 $76 0 $126 76.199999999999989 $43 $127 forward @7 unknown #
coedge $-1 -1 $-1 $60 $62 $44 $72 reversed $39 $-1 #
edge $128 -1 $-1 $129 0 $75 76.199999999999989 $44 $130 forward @7 unknown #
coedge $-1 -1 $-1 $45 $61 $123 $131 reversed $26 $-1 #
attrib_edge_convexity-kcp-attrib $-1 -1 $132 $-1 $46 1 #
vertex $-1 -1 $-1 $72 $133 #
vertex $-1 -1 $-1 $70 $134 #
straight-curve $-1 -1 $-1 0 -76.199999999999989 0 1 0 0 I I #
face $-1 -1 $-1 $135 $136 $16 $-1 $137 forward single #
loop $-1 -1 $-1 $-1 $138 $47 #
plane-surface $-1 -1 $-1 19.049999999999997 -33.654999999999987 0 -1 0 0 0 0 1 forward_v I I I I #
coedge $-1 -1 $-1 $139 $140 $141 $142 forward $48 $-1 #
coedge $-1 -1 $-1 $143 $50 $140 $144 reversed $31 $-1 #
coedge $-1 -1 $-1 $50 $143 $145 $146 forward $31 $-1 #
coedge $-1 -1 $-1 $147 $141 $50 $85 reversed $148 $-1 #
edge $-1 -1 $-1 $149 -27.940000000000079 $150 3.5527136788005009e-015 $50 $151 forward @7 unknown #
model_id-kcp-attrib $-1 -1 $-1 $-1 $52 1 1021471719 1021471719 -1594228734 3 #
face $152 -1 $-1 $153 $154 $17 $-1 $155 reversed single #
loop $-1 -1 $-1 $-1 $156 $52 #
plane-surface $-1 -1 $-1 0 -38.099999999999994 0 0 1 0 0 0 1 forward_v I I I I #
coedge $-1 -1 $-1 $157 $158 $159 $160 forward $53 $-1 #
coedge $-1 -1 $-1 $161 $55 $162 $163 forward $35 $-1 #
coedge $-1 -1 $-1 $55 $161 $164 $165 forward $35 $-1 #
coedge $-1 -1 $-1 $166 $167 $55 $94 reversed $168 $-1 #
edge $-1 -1 $-1 $169 -38.099999999999994 $170 38.099999999999994 $93 $171 forward @7 unknown #
model_id-kcp-attrib $-1 -1 $-1 $-1 $57 1 1021471719 1021471719 -1594228735 6 #
face $172 -1 $-1 $173 $174 $7 $-1 $175 reversed single #
loop $-1 -1 $-1 $-1 $123 $57 #
plane-surface $-1 -1 $-1 76.199999999999989 -38.099999999999994 -1.5874999999999999 1 0 0 0 1 0 forward_v I I I I #
coedge $-1 -1 $-1 $176 $121 $124 $177 forward $58 $-1 #
coedge $-1 -1 $-1 $62 $60 $178 $179 forward $39 $-1 #
coedge $-1 -1 $-1 $121 $176 $60 $102 reversed $58 $-1 #
edge $180 -1 $-1 $129 0 $181 3.1749999999999998 $60 $182 forward @7 unknown #
coedge $-1 -1 $-1 $178 $183 $61 $104 reversed $174 $-1 #
edge $184 -1 $-1 $106 0 $185 76.199999999999989 $61 $186 forward @7 unknown #
attrib_edge_convexity-kcp-attrib $-1 -1 $187 $-1 $63 1 #
vertex $-1 -1 $-1 $63 $188 #
straight-curve $-1 -1 $-1 0 -76.199999999999989 0 0 0 -1 I I #
coedge $-1 -1 $-1 $189 $64 $190 $191 forward $28 $-1 #
coedge $-1 -1 $-1 $192 $193 $64 $110 forward $194 $-1 #
edge $195 -1 $-1 $196 0 $118 0.42957261867286239 $64 $197 forward @7 unknown #
coedge $-1 -1 $-1 $65 $198 $199 $200 reversed $28 $-1 #
coedge $-1 -1 $-1 $201 $202 $65 $113 reversed $203 $-1 #
edge $204 -1 $-1 $205 0 $119 27.940000000000079 $65 $206 forward @7 unknown #
coedge $-1 -1 $-1 $207 $66 $202 $208 forward $116 $-1 #
coedge $-1 -1 $-1 $66 $207 $192 $209 reversed $116 $-1 #
loop $-1 -1 $-1 $-1 $114 $210 #
attrib_edge_convexity-kcp-attrib $-1 -1 $211 $-1 $67 1 #
vertex $-1 -1 $-1 $110 $212 #
vertex $-1 -1 $-1 $113 $213 #
ellipse-curve $-1 -1 $-1 55.245000000000012 -33.654999999999994 0 0 0 1 5.7975759583810884 -5.876490279648344 0 1 I I #
coedge $-1 -1 $-1 $99 $101 $68 $122 reversed $58 $-1 #
edge $214 -1 $-1 $126 0 $129 76.199999999999989 $68 $215 forward @7 unknown #
coedge $-1 -1 $-1 $216 $69 $73 $131 forward $97 $-1 #
coedge $-1 -1 $-1 $69 $216 $99 $177 reversed $97 $-1 #
attrib_edge_convexity-kcp-attrib $-1 -1 $217 $-1 $70 1 #
vertex $-1 -1 $-1 $122 $218 #
straight-curve $-1 -1 $-1 76.199999999999989 -76.199999999999989 0 0 1 0 I I #
attrib_edge_convexity-kcp-attrib $-1 -1 $219 $-1 $72 1 #
vertex $-1 -1 $-1 $72 $220 #
straight-curve $-1 -1 $-1 0 0 0 0 -1 0 I I #
edge $221 -1 $-1 $76 0 $185 3.1749999999999998 $123 $222 forward @7 unknown #
convexity-sys-attrib $-1 -1 $-1 $74 $46 #
point $-1 -1 $-1 0 -76.199999999999989 0 #
point $-1 -1 $-1 76.199999999999989 -76.199999999999989 0 #
face $-1 -1 $-1 $223 $224 $16 $-1 $225 forward single #
loop $-1 -1 $-1 $-1 $226 $78 #
plane-surface $-1 -1 $-1 19.049999999999997 -50.799999999999997 0 0 -1 0 0 0 -1 forward_v I I I I #
coedge $-1 -1 $-1 $227 $228 $229 $230 forward $79 $-1 #
coedge $-1 -1 $-1 $231 $81 $228 $232 reversed $48 $-1 #
coedge $-1 -1 $-1 $81 $231 $82 $144 forward $48 $-1 #
coedge $-1 -1 $-1 $84 $229 $81 $142 reversed $148 $-1 #
edge $-1 -1 $-1 $150 4.303711300788018e-016 $233 1.5707963267948952 $81 $234 forward @7 unknown #
coedge $-1 -1 $-1 $83 $82 $235 $236 forward $31 $-1 #
edge $-1 -1 $-1 $237 0 $150 3.1749999999999998 $140 $238 forward @7 unknown #
coedge $-1 -1 $-1 $239 $240 $83 $146 reversed $241 $-1 #
edge $-1 -1 $-1 $242 0 $149 3.1749999999999998 $83 $243 forward @7 unknown #
coedge $-1 -1 $-1 $244 $84 $240 $245 reversed $148 $-1 #
loop $-1 -1 $-1 $-1 $84 $246 #
vertex $-1 -1 $-1 $146 $247 #
vertex $-1 -1 $-1 $144 $248 #
straight-curve $-1 -1 $-1 27.304999999999961 -25.399999999999999 -3.1749999999999998 -1 0 0 I I #
model_id-kcp-attrib $-1 -1 $-1 $-1 $87 1 1021471719 1021471719 -1594228734 4 #
face $249 -1 $-1 $250 $251 $17 $-1 $252 reversed single #
loop $-1 -1 $-1 $-1 $253 $87 #
plane-surface $-1 -1 $-1 -38.099999999999994 0 0 1 0 0 0 0 -1 forward_v I I I I #
coedge $-1 -1 $-1 $254 $164 $255 $256 forward $88 $-1 #
coedge $-1 -1 $-1 $257 $90 $254 $258 forward $53 $-1 #
coedge $-1 -1 $-1 $90 $257 $259 $260 forward $53 $-1 #
coedge $-1 -1 $-1 $167 $166 $90 $160 reversed $168 $-1 #
edge $-1 -1 $-1 $261 -38.099999999999994 $262 38.099999999999994 $159 $263 forward @7 unknown #
coedge $-1 -1 $-1 $92 $91 $264 $265 forward $35 $-1 #
coedge $-1 -1 $-1 $266 $267 $91 $163 reversed $251 $-1 #
edge $-1 -1 $-1 $170 -38.099999999999994 $268 38.099999999999994 $162 $269 forward @7 unknown #
coedge $-1 -1 $-1 $156 $270 $92 $165 reversed $88 $-1 #
edge $-1 -1 $-1 $271 -38.099999999999994 $169 38.099999999999994 $164 $272 forward @7 unknown #
coedge $-1 -1 $-1 $159 $93 $270 $273 forward $168 $-1 #
coedge $-1 -1 $-1 $93 $159 $266 $274 reversed $168 $-1 #
loop $-1 -1 $-1 $-1 $166 $250 #
vertex $-1 -1 $-1 $94 $275 #
vertex $-1 -1 $-1 $94 $276 #
straight-curve $-1 -1 $-1 38.099999999999994 0 1.5874999999999999 0 1 0 I I #
model_id-kcp-attrib $-1 -1 $-1 $-1 $96 1 1021471719 1021471719 -1594228735 7 #
face $277 -1 $-1 $278 $279 $7 $-1 $280 reversed single #
loop $-1 -1 $-1 $281 $282 $96 #
plane-surface $-1 -1 $-1 0 0 -3.1749999999999998 0 0 1 1 0 0 forward_v I I I I #
coedge $-1 -1 $-1 $101 $99 $282 $283 forward $58 $-1 #
edge $-1 -1 $-1 $126 0 $284 3.1749999999999998 $99 $285 forward @7 unknown #
coedge $-1 -1 $-1 $282 $103 $100 $179 reversed $174 $-1 #
edge $286 -1 $-1 $181 0 $106 76.199999999999989 $100 $287 forward @7 unknown #
attrib_edge_convexity-kcp-attrib $-1 -1 $288 $-1 $102 1 #
vertex $-1 -1 $-1 $179 $289 #
straight-curve $-1 -1 $-1 0 0 0 0 0 -1 I I #
coedge $-1 -1 $-1 $103 $282 $216 $290 reversed $174 $-1 #
attrib_edge_convexity-kcp-attrib $-1 -1 $291 $-1 $104 1 #
vertex $-1 -1 $-1 $290 $292 #
straight-curve $-1 -1 $-1 0 -76.199999999999989 -3.1749999999999998 1 0 0 I I #
convexity-sys-attrib $-1 -1 $-1 $105 $63 #
point $-1 -1 $-1 0 -76.199999999999989 -3.1749999999999998 #
coedge $-1 -1 $-1 $198 $108 $293 $294 forward $28 $-1 #
coedge $-1 -1 $-1 $295 $296 $108 $191 reversed $297 $-1 #
edge $298 -1 $-1 $196 -2.4301992832368155e-015 $299 16.027786117655651 $108 $300 forward @7 unknown #
coedge $-1 -1 $-1 $301 $109 $115 $209 forward $194 $-1 #
coedge $-1 -1 $-1 $109 $301 $295 $302 reversed $194 $-1 #
loop $-1 -1 $-1 $-1 $192 $303 #
attrib_edge_convexity-kcp-attrib $-1 -1 $304 $-1 $110 1 #
vertex $-1 -1 $-1 $191 $305 #
ellipse-curve $-1 -1 $-1 43.203880701823849 -21.449981726884037 0 0 0 1 8.6873116404719894 -23.868192567962215 0 1 I I #
coedge $-1 -1 $-1 $111 $189 $306 $307 forward $28 $-1 #
coedge $-1 -1 $-1 $308 $309 $111 $200 forward $279 $-1 #
edge $310 -1 $-1 $205 0 $311 1.5707963267948952 $111 $312 forward @7 unknown #
coedge $-1 -1 $-1 $313 $112 $309 $314 forward $203 $-1 #
coedge $-1 -1 $-1 $112 $313 $114 $208 reversed $203 $-1 #
loop $-1 -1 $-1 $-1 $201 $315 #
attrib_edge_convexity-kcp-attrib $-1 -1 $316 $-1 $113 1 #
vertex $-1 -1 $-1 $113 $317 #
straight-curve $-1 -1 $-1 27.304999999999961 -25.399999999999999 0 1 0 0 I I #
coedge $-1 -1 $-1 $115 $114 $318 $319 reversed $116 $-1 #
edge $-1 -1 $-1 $119 0 $320 3.1749999999999998 $202 $321 forward @7 unknown #
edge $-1 -1 $-1 $118 0 $322 3.1749999999999998 $192 $323 forward @7 unknown #
face $324 -1 $-1 $315 $116 $7 $-1 $325 reversed single #
convexity-sys-attrib $-1 -1 $-1 $117 $67 #
point $-1 -1 $-1 61.0425759583811 -39.531490279648338 0 #
point $-1 -1 $-1 55.24500000000004 -25.399999999999999 0 #
attrib_edge_convexity-kcp-attrib $-1 -1 $326 $-1 $122 1 #
straight-curve $-1 -1 $-1 76.199999999999989 0 0 -1 0 0 I I #
coedge $-1 -1 $-1 $124 $123 $183 $290 forward $97 $-1 #
convexity-sys-attrib $-1 -1 $-1 $125 $70 #
point $-1 -1 $-1 76.199999999999989 0 0 #
convexity-sys-attrib $-1 -1 $-1 $128 $72 #
point $-1 -1 $-1 0 0 0 #
attrib_edge_convexity-kcp-attrib $-1 -1 $327 $-1 $131 1 #
straight-curve $-1 -1 $-1 76.199999999999989 -76.199999999999989 0 0 0 -1 I I #
face $-1 -1 $-1 $328 $329 $16 $-1 $330 forward single #
loop $-1 -1 $-1 $-1 $331 $135 #
plane-surface $-1 -1 $-1 36.829999999999998 -50.799999999999997 0 0.34202014332566777 -0.93969262078590887 0 0 0 -1 forward_v I I I I #
coedge $-1 -1 $-1 $332 $333 $334 $335 forward $136 $-1 #
coedge $-1 -1 $-1 $336 $138 $333 $337 reversed $79 $-1 #
coedge $-1 -1 $-1 $138 $336 $139 $232 forward $79 $-1 #
coedge $-1 -1 $-1 $141 $334 $138 $230 reversed $148 $-1 #
edge $-1 -1 $-1 $233 -17.14500000000001 $338 0 $138 $339 forward @7 unknown #
coedge $-1 -1 $-1 $140 $139 $340 $341 reversed $48 $-1 #
edge $-1 -1 $-1 $342 0 $233 3.1749999999999998 $228 $343 forward @7 unknown #
vertex $-1 -1 $-1 $232 $344 #
ellipse-curve $-1 -1 $-1 27.304999999999978 -33.65499999999998 -3.1749999999999998 0 0 1 -1.7763568394002505e-014 8.2549999999999812 0 1 I I #
coedge $-1 -1 $-1 $340 $345 $143 $236 reversed $346 $-1 #
edge $-1 -1 $-1 $237 0 $242 27.940000000000079 $143 $347 forward @7 unknown #
vertex $-1 -1 $-1 $341 $348 #
straight-curve $-1 -1 $-1 27.304999999999957 -25.399999999999999 0 0 0 -1 I I #
coedge $-1 -1 $-1 $349 $145 $345 $350 reversed $241 $-1 #
coedge $-1 -1 $-1 $145 $349 $147 $245 forward $241 $-1 #
loop $-1 -1 $-1 $-1 $240 $328 #
vertex $-1 -1 $-1 $350 $351 #
straight-curve $-1 -1 $-1 55.24500000000004 -25.399999999999999 0 0 0 -1 I I #
coedge $-1 -1 $-1 $352 $147 $353 $354 reversed $148 $-1 #
edge $-1 -1 $-1 $355 0 $149 2.3629541845180602 $240 $356 forward @7 unknown #
face $-1 -1 $-1 $357 $148 $16 $-1 $358 reversed single #
point $-1 -1 $-1 55.24500000000004 -25.399999999999999 -3.1749999999999998 #
point $-1 -1 $-1 27.304999999999957 -25.399999999999999 -3.1749999999999998 #
model_id-kcp-attrib $-1 -1 $-1 $-1 $153 1 1021471719 1021471719 -1594228734 5 #
face $359 -1 $-1 $-1 $168 $17 $-1 $360 reversed single #
loop $-1 -1 $-1 $-1 $266 $153 #
plane-surface $-1 -1 $-1 0 38.099999999999994 0 0 -1 0 0 0 -1 forward_v I I I I #
coedge $-1 -1 $-1 $361 $264 $267 $362 forward $154 $-1 #
coedge $-1 -1 $-1 $270 $156 $157 $258 reversed $88 $-1 #
coedge $-1 -1 $-1 $264 $361 $156 $256 reversed $154 $-1 #
edge $-1 -1 $-1 $271 -1.5874999999999999 $363 1.5874999999999999 $255 $364 forward @7 unknown #
coedge $-1 -1 $-1 $158 $157 $361 $365 forward $53 $-1 #
edge $-1 -1 $-1 $262 -38.099999999999994 $363 38.099999999999994 $254 $366 forward @7 unknown #
coedge $-1 -1 $-1 $267 $266 $158 $260 reversed $251 $-1 #
edge $-1 -1 $-1 $367 -38.099999999999994 $261 38.099999999999994 $259 $368 forward @7 unknown #
vertex $-1 -1 $-1 $160 $369 #
vertex $-1 -1 $-1 $273 $370 #
straight-curve $-1 -1 $-1 38.099999999999994 0 -1.5874999999999999 0 -1 0 I I #
coedge $-1 -1 $-1 $253 $255 $161 $265 reversed $154 $-1 #
edge $-1 -1 $-1 $268 -38.099999999999994 $271 38.099999999999994 $264 $371 forward @7 unknown #
coedge $-1 -1 $-1 $259 $162 $167 $274 forward $251 $-1 #
coedge $-1 -1 $-1 $162 $259 $253 $362 reversed $251 $-1 #
vertex $-1 -1 $-1 $163 $372 #
straight-curve $-1 -1 $-1 0 38.099999999999994 1.5874999999999999 -1 0 0 I I #
coedge $-1 -1 $-1 $164 $254 $166 $273 reversed $88 $-1 #
vertex $-1 -1 $-1 $265 $373 #
straight-curve $-1 -1 $-1 0 -38.099999999999994 1.5874999999999999 1 0 0 I I #
edge $-1 -1 $-1 $169 -1.5874999999999999 $262 1.5874999999999999 $166 $374 forward @7 unknown #
edge $-1 -1 $-1 $170 -1.5874999999999999 $261 1.5874999999999999 $167 $375 forward @7 unknown #
point $-1 -1 $-1 38.099999999999994 -38.099999999999994 1.5874999999999999 #
point $-1 -1 $-1 38.099999999999994 38.099999999999994 1.5874999999999999 #
model_id-kcp-attrib $-1 -1 $-1 $-1 $173 1 1021471719 1021471719 -1594228735 8 #
face $376 -1 $-1 $377 $378 $7 $-1 $379 forward single #
loop $-1 -1 $-1 $-1 $308 $173 #
cone-surface $-1 -1 $-1 27.304999999999996 -33.655000000000001 -1.5874999999999999 0 0 1 0 8.254999999999999 0 1 I I 0 1 8.254999999999999 forward I I I I #
loop $-1 -1 $-1 $-1 $380 $96 #
coedge $-1 -1 $-1 $183 $178 $176 $283 reversed $174 $-1 #
edge $-1 -1 $-1 $284 0 $181 76.199999999999989 $176 $381 forward @7 unknown #
vertex $-1 -1 $-1 $283 $382 #
straight-curve $-1 -1 $-1 76.199999999999989 0 0 0 0 -1 I I #
attrib_edge_convexity-kcp-attrib $-1 -1 $383 $-1 $179 1 #
straight-curve $-1 -1 $-1 0 0 -3.1749999999999998 0 -1 0 I I #
convexity-sys-attrib $-1 -1 $-1 $180 $102 #
point $-1 -1 $-1 0 0 -3.1749999999999998 #
edge $-1 -1 $-1 $185 0 $284 76.199999999999989 $216 $384 forward @7 unknown #
convexity-sys-attrib $-1 -1 $-1 $184 $104 #
point $-1 -1 $-1 76.199999999999989 -76.199999999999989 -3.1749999999999998 #
coedge $-1 -1 $-1 $385 $386 $189 $294 reversed $387 $-1 #
edge $388 -1 $-1 $299 0 $389 17.780000000000001 $189 $390 forward @7 unknown #
coedge $-1 -1 $-1 $391 $190 $193 $302 forward $297 $-1 #
coedge $-1 -1 $-1 $190 $391 $385 $392 reversed $297 $-1 #
loop $-1 -1 $-1 $-1 $295 $393 #
attrib_edge_convexity-kcp-attrib $-1 -1 $394 $-1 $191 1 #
vertex $-1 -1 $-1 $294 $395 #
straight-curve $-1 -1 $-1 51.891192342295838 -45.318174294846258 0 -0.93969262078590887 -0.34202014332566777 0 I I #
coedge $-1 -1 $-1 $193 $192 $396 $397 reversed $194 $-1 #
edge $-1 -1 $-1 $196 0 $398 3.1749999999999998 $295 $399 forward @7 unknown #
face $400 -1 $-1 $210 $194 $7 $-1 $401 reversed single #
convexity-sys-attrib $-1 -1 $-1 $195 $110 #
point $-1 -1 $-1 51.891192342295838 -45.318174294846251 0 #
coedge $-1 -1 $-1 $402 $403 $198 $307 reversed $378 $-1 #
edge $404 -1 $-1 $389 0 $311 17.14500000000001 $198 $405 forward @7 unknown #
coedge $-1 -1 $-1 $406 $199 $403 $407 forward $279 $-1 #
coedge $-1 -1 $-1 $199 $406 $201 $314 reversed $279 $-1 #
attrib_edge_convexity-kcp-attrib $-1 -1 $408 $-1 $200 1 #
vertex $-1 -1 $-1 $200 $409 #
ellipse-curve $-1 -1 $-1 27.304999999999978 -33.65499999999998 0 0 0 1 -1.7763568394002505e-014 8.2549999999999812 0 1 I I #
coedge $-1 -1 $-1 $202 $201 $410 $411 forward $203 $-1 #
edge $-1 -1 $-1 $205 0 $412 3.1749999999999998 $201 $413 forward @7 unknown #
face $414 -1 $-1 $-1 $203 $7 $-1 $415 forward single #
convexity-sys-attrib $-1 -1 $-1 $204 $113 #
point $-1 -1 $-1 27.304999999999961 -25.399999999999999 0 #
coedge $-1 -1 $-1 $410 $396 $207 $319 forward $281 $-1 #
edge $-1 -1 $-1 $322 -2.5024608411608095e-015 $320 2.3629541845180602 $318 $416 forward @7 unknown #
vertex $-1 -1 $-1 $411 $417 #
straight-curve $-1 -1 $-1 55.245000000000005 -25.399999999999999 0 0 0 -1 I I #
vertex $-1 -1 $-1 $319 $418 #
straight-curve $-1 -1 $-1 61.042575958381086 -39.531490279648352 0 0 0 -1 I I #
model_id-kcp-attrib $-1 -1 $-1 $-1 $210 1 1021471719 1021471719 -1594228735 13 #
cone-surface $-1 -1 $-1 55.245000000000005 -33.654999999999994 -1.5874999999999999 0 0 1 5.7975759583810822 -5.8764902796483591 0 1 I I 0 1 8.254999999999999 forward I I I I #
convexity-sys-attrib $-1 -1 $-1 $214 $122 #
convexity-sys-attrib $-1 -1 $-1 $221 $131 #
face $-1 -1 $-1 $246 $241 $16 $-1 $419 forward single #
loop $-1 -1 $-1 $-1 $353 $223 #
cone-surface $-1 -1 $-1 43.203880701823849 -21.449981726884037 0 0 0 -1 8.6873116404719894 -23.868192567962215 0 1 I I 0 1 25.400000000000137 forward I I I I #
coedge $-1 -1 $-1 $420 $421 $352 $422 forward $224 $-1 #
coedge $-1 -1 $-1 $423 $226 $421 $424 reversed $136 $-1 #
coedge $-1 -1 $-1 $226 $423 $227 $337 forward $136 $-1 #
coedge $-1 -1 $-1 $229 $352 $226 $335 reversed $148 $-1 #
edge $-1 -1 $-1 $338 -17.780000000000001 $425 0 $226 $426 forward @7 unknown #
coedge $-1 -1 $-1 $228 $227 $427 $428 forward $79 $-1 #
edge $-1 -1 $-1 $429 0 $338 3.1749999999999998 $333 $430 forward @7 unknown #
vertex $-1 -1 $-1 $337 $431 #
straight-curve $-1 -1 $-1 19.049999999999997 -50.799999999999997 -3.1749999999999998 0 -1 0 I I #
coedge $-1 -1 $-1 $427 $235 $231 $341 forward $346 $-1 #
edge $-1 -1 $-1 $237 0 $342 1.5707963267948952 $231 $432 forward @7 unknown #
vertex $-1 -1 $-1 $428 $433 #
straight-curve $-1 -1 $-1 19.049999999999997 -33.654999999999987 0 0 0 -1 I I #
point $-1 -1 $-1 19.049999999999997 -33.654999999999987 -3.1749999999999998 #
coedge $-1 -1 $-1 $235 $434 $239 $350 forward $346 $-1 #
loop $-1 -1 $-1 $-1 $345 $357 #
straight-curve $-1 -1 $-1 27.304999999999961 -25.399999999999999 0 1 0 0 I I #
point $-1 -1 $-1 27.304999999999961 -25.399999999999999 0 #
coedge $-1 -1 $-1 $240 $239 $435 $436 forward $241 $-1 #
edge $-1 -1 $-1 $437 0 $242 2.3629541845180602 $239 $438 forward @7 unknown #
point $-1 -1 $-1 55.24500000000004 -25.399999999999999 0 #
coedge $-1 -1 $-1 $334 $244 $331 $422 reversed $148 $-1 #
coedge $-1 -1 $-1 $435 $439 $244 $354 forward $329 $-1 #
edge $-1 -1 $-1 $440 0 $355 0.42957261867286239 $353 $441 forward @7 unknown #
vertex $-1 -1 $-1 $436 $442 #
ellipse-curve $-1 -1 $-1 55.245000000000012 -33.654999999999994 -3.1749999999999998 0 0 1 5.7975759583810884 -5.876490279648344 0 1 I I #
face $-1 -1 $-1 $-1 $346 $16 $-1 $443 forward single #
plane-surface $-1 -1 $-1 39.103496900265284 -37.243964374947517 -3.1749999999999998 0 0 1 1 0 0 forward_v I I I I #
model_id-kcp-attrib $-1 -1 $-1 $-1 $250 1 1021471719 1021471719 -1594228734 6 #
plane-surface $-1 -1 $-1 38.099999999999994 0 0 -1 0 0 0 0 1 forward_v I I I I #
coedge $-1 -1 $-1 $255 $253 $257 $365 reversed $154 $-1 #
edge $-1 -1 $-1 $268 -1.5874999999999999 $367 1.5874999999999999 $267 $444 forward @7 unknown #
vertex $-1 -1 $-1 $365 $445 #
straight-curve $-1 -1 $-1 -38.099999999999994 -38.099999999999994 0 0 0 -1 I I #
edge $-1 -1 $-1 $363 -38.099999999999994 $367 38.099999999999994 $361 $446 forward @7 unknown #
straight-curve $-1 -1 $-1 0 -38.099999999999994 -1.5874999999999999 -1 0 0 I I #
vertex $-1 -1 $-1 $260 $447 #
straight-curve $-1 -1 $-1 0 38.099999999999994 -1.5874999999999999 1 0 0 I I #
point $-1 -1 $-1 38.099999999999994 38.099999999999994 -1.5874999999999999 #
point $-1 -1 $-1 38.099999999999994 -38.099999999999994 -1.5874999999999999 #
straight-curve $-1 -1 $-1 -38.099999999999994 0 1.5874999999999999 0 -1 0 I I #
point $-1 -1 $-1 -38.099999999999994 38.099999999999994 1.5874999999999999 #
point $-1 -1 $-1 -38.099999999999994 -38.099999999999994 1.5874999999999999 #
straight-curve $-1 -1 $-1 38.099999999999994 -38.099999999999994 0 0 0 -1 I I #
straight-curve $-1 -1 $-1 38.099999999999994 38.099999999999994 0 0 0 -1 I I #
model_id-kcp-attrib $-1 -1 $-1 $-1 $278 1 1021471719 1021471719 -1594228735 9 #
face $448 -1 $-1 $393 $387 $7 $-1 $449 forward single #
loop $-1 -1 $-1 $-1 $402 $278 #
plane-surface $-1 -1 $-1 19.049999999999997 -42.227499999999992 -1.5874999999999999 1 0 0 0 1 0 forward_v I I I I #
coedge $-1 -1 $-1 $450 $410 $406 $451 forward $281 $-1 #
straight-curve $-1 -1 $-1 76.199999999999989 0 -3.1749999999999998 -1 0 0 I I #
point $-1 -1 $-1 76.199999999999989 0 -3.1749999999999998 #
convexity-sys-attrib $-1 -1 $-1 $286 $179 #
straight-curve $-1 -1 $-1 76.199999999999989 -76.199999999999989 -3.1749999999999998 0 1 0 I I #
coedge $-1 -1 $-1 $452 $293 $296 $392 forward $387 $-1 #
coedge $-1 -1 $-1 $293 $452 $402 $453 reversed $387 $-1 #
loop $-1 -1 $-1 $-1 $385 $377 #
attrib_edge_convexity-kcp-attrib $-1 -1 $454 $-1 $294 1 #
vertex $-1 -1 $-1 $307 $455 #
straight-curve $-1 -1 $-1 36.829999999999998 -50.799999999999997 0 -1 0 0 I I #
coedge $-1 -1 $-1 $296 $295 $456 $457 forward $297 $-1 #
edge $-1 -1 $-1 $299 0 $458 3.1749999999999998 $385 $459 forward @7 unknown #
face $460 -1 $-1 $303 $297 $7 $-1 $461 forward single #
convexity-sys-attrib $-1 -1 $-1 $298 $191 #
point $-1 -1 $-1 36.829999999999998 -50.799999999999997 0 #
coedge $-1 -1 $-1 $318 $456 $301 $397 forward $281 $-1 #
edge $-1 -1 $-1 $398 2.5551167880269668e-015 $322 0.42957261867286162 $396 $462 forward @7 unknown #
vertex $-1 -1 $-1 $397 $463 #
straight-curve $-1 -1 $-1 51.891192342295902 -45.31817429484623 0 0 0 -1 I I #
model_id-kcp-attrib $-1 -1 $-1 $-1 $303 1 1021471719 1021471719 -1594228735 12 #
cone-surface $-1 -1 $-1 43.203880701823337 -21.449981726883337 -1.5874999999999999 0 0 1 8.6873116404722328 -23.868192567961984 0 1 I I 0 1 25.400000000000002 forward I I I I #
coedge $-1 -1 $-1 $464 $306 $386 $453 forward $378 $-1 #
coedge $-1 -1 $-1 $306 $464 $308 $407 reversed $378 $-1 #
attrib_edge_convexity-kcp-attrib $-1 -1 $465 $-1 $307 1 #
straight-curve $-1 -1 $-1 19.049999999999997 -50.799999999999997 0 0 1 0 I I #
coedge $-1 -1 $-1 $309 $308 $380 $451 reversed $279 $-1 #
edge $-1 -1 $-1 $311 0 $466 3.1749999999999998 $308 $467 forward @7 unknown #
convexity-sys-attrib $-1 -1 $-1 $310 $200 #
point $-1 -1 $-1 19.049999999999997 -33.654999999999987 0 #
coedge $-1 -1 $-1 $380 $318 $313 $411 reversed $281 $-1 #
edge $-1 -1 $-1 $412 0 $320 27.940000000000079 $410 $468 forward @7 unknown #
vertex $-1 -1 $-1 $411 $469 #
straight-curve $-1 -1 $-1 27.304999999999996 -25.399999999999999 0 0 0 -1 I I #
model_id-kcp-attrib $-1 -1 $-1 $-1 $315 1 1021471719 1021471719 -1594228735 14 #
plane-surface $-1 -1 $-1 41.274999999999999 -25.399999999999999 -1.5874999999999999 0 -1 0 1 0 0 forward_v I I I I #
ellipse-curve $-1 -1 $-1 55.245000000000012 -33.654999999999994 -3.1749999999999998 0 0 1 5.7975759583810884 -5.876490279648344 0 1 I I #
point $-1 -1 $-1 55.24500000000004 -25.399999999999999 -3.1749999999999998 #
point $-1 -1 $-1 61.042575958381086 -39.531490279648352 -3.1749999999999998 #
cone-surface $-1 -1 $-1 55.245000000000012 -33.654999999999994 0 0 0 -1 5.7975759583810884 -5.876490279648344 0 1 I I 0 1 8.2549999999999919 forward I I I I #
coedge $-1 -1 $-1 $470 $331 $439 $471 reversed $224 $-1 #
coedge $-1 -1 $-1 $331 $470 $332 $424 forward $224 $-1 #
edge $-1 -1 $-1 $425 -16.027786117655651 $440 2.4301992832368155e-015 $331 $472 forward @7 unknown #
coedge $-1 -1 $-1 $333 $332 $473 $474 forward $136 $-1 #
edge $-1 -1 $-1 $475 0 $425 3.1749999999999998 $421 $476 forward @7 unknown #
vertex $-1 -1 $-1 $424 $477 #
straight-curve $-1 -1 $-1 36.829999999999998 -50.799999999999997 -3.1749999999999998 1 0 0 I I #
coedge $-1 -1 $-1 $473 $340 $336 $428 reversed $346 $-1 #
edge $-1 -1 $-1 $429 0 $342 17.14500000000001 $336 $478 forward @7 unknown #
vertex $-1 -1 $-1 $474 $479 #
straight-curve $-1 -1 $-1 19.049999999999997 -50.799999999999997 0 0 0 -1 I I #
point $-1 -1 $-1 19.049999999999997 -50.799999999999997 -3.1749999999999998 #
ellipse-curve $-1 -1 $-1 27.304999999999978 -33.65499999999998 0 0 0 1 -1.7763568394002505e-014 8.2549999999999812 0 1 I I #
point $-1 -1 $-1 19.049999999999997 -33.654999999999987 0 #
coedge $-1 -1 $-1 $345 $480 $481 $482 forward $346 $-1 #
coedge $-1 -1 $-1 $481 $353 $349 $436 reversed $329 $-1 #
edge $-1 -1 $-1 $437 0 $355 3.1749999999999998 $349 $483 forward @7 unknown #
vertex $-1 -1 $-1 $350 $484 #
ellipse-curve $-1 -1 $-1 55.245000000000012 -33.654999999999994 0 0 0 1 5.7975759583810884 -5.876490279648344 0 1 I I #
coedge $-1 -1 $-1 $353 $481 $420 $471 forward $329 $-1 #
vertex $-1 -1 $-1 $471 $485 #
ellipse-curve $-1 -1 $-1 43.203880701823849 -21.449981726884037 -3.1749999999999998 0 0 1 8.6873116404719894 -23.868192567962215 0 1 I I #
point $-1 -1 $-1 61.0425759583811 -39.531490279648338 -3.1749999999999998 #
plane-surface $-1 -1 $-1 39.103496900265284 -37.243964374947517 0 0 0 1 1 0 0 forward_v I I I I #
straight-curve $-1 -1 $-1 -38.099999999999994 38.099999999999994 0 0 0 -1 I I #
point $-1 -1 $-1 -38.099999999999994 -38.099999999999994 -1.5874999999999999 #
straight-curve $-1 -1 $-1 -38.099999999999994 0 -1.5874999999999999 0 1 0 I I #
point $-1 -1 $-1 -38.099999999999994 38.099999999999994 -1.5874999999999999 #
model_id-kcp-attrib $-1 -1 $-1 $-1 $377 1 1021471719 1021471719 -1594228735 10 #
plane-surface $-1 -1 $-1 27.939999999999998 -50.799999999999997 -1.5874999999999999 0 1 0 -1 0 0 forward_v I I I I #
coedge $-1 -1 $-1 $486 $380 $464 $487 reversed $281 $-1 #
edge $-1 -1 $-1 $412 0 $466 1.5707963267948952 $380 $488 forward @7 unknown #
coedge $-1 -1 $-1 $386 $385 $486 $489 forward $387 $-1 #
edge $-1 -1 $-1 $389 0 $490 3.1749999999999998 $402 $491 forward @7 unknown #
convexity-sys-attrib $-1 -1 $-1 $388 $294 #
point $-1 -1 $-1 19.049999999999997 -50.799999999999997 0 #
coedge $-1 -1 $-1 $396 $486 $391 $457 reversed $281 $-1 #
edge $-1 -1 $-1 $398 -6.7063434479476367e-014 $458 16.027786117655648 $456 $492 forward @7 unknown #
vertex $-1 -1 $-1 $457 $493 #
straight-curve $-1 -1 $-1 36.829999999999998 -50.799999999999997 0 0 0 -1 I I #
model_id-kcp-attrib $-1 -1 $-1 $-1 $393 1 1021471719 1021471719 -1594228735 11 #
plane-surface $-1 -1 $-1 44.360596171147947 -48.059087147423114 -1.5874999999999999 -0.34202014332566794 0.93969262078590876 0 -0.93969262078590865 -0.34202014332566788 0 forward_v I I I I #
ellipse-curve $-1 -1 $-1 43.203880701823849 -21.449981726884037 -3.1749999999999998 0 0 1 8.6873116404719894 -23.868192567962215 0 1 I I #
point $-1 -1 $-1 51.891192342295568 -45.318174294845321 -3.1749999999999998 #
coedge $-1 -1 $-1 $403 $402 $450 $487 forward $378 $-1 #
convexity-sys-attrib $-1 -1 $-1 $404 $307 #
vertex $-1 -1 $-1 $487 $494 #
straight-curve $-1 -1 $-1 19.049999999999997 -33.654999999999987 0 0 0 -1 I I #
straight-curve $-1 -1 $-1 27.304999999999961 -25.399999999999999 -3.1749999999999998 1 0 0 I I #
point $-1 -1 $-1 27.304999999999961 -25.399999999999999 -3.1749999999999998 #
coedge $-1 -1 $-1 $421 $420 $480 $495 forward $224 $-1 #
edge $-1 -1 $-1 $496 0 $440 3.1749999999999998 $439 $497 forward @7 unknown #
straight-curve $-1 -1 $-1 51.891192342295838 -45.318174294846258 -3.1749999999999998 0.93969262078590887 0.34202014332566777 0 I I #
coedge $-1 -1 $-1 $480 $427 $423 $474 reversed $346 $-1 #
edge $-1 -1 $-1 $475 0 $429 17.780000000000001 $423 $498 forward @7 unknown #
vertex $-1 -1 $-1 $495 $499 #
straight-curve $-1 -1 $-1 36.829999999999998 -50.799999999999997 0 0 0 -1 I I #
point $-1 -1 $-1 36.829999999999998 -50.799999999999997 -3.1749999999999998 #
straight-curve $-1 -1 $-1 19.049999999999997 -50.799999999999997 0 0 1 0 I I #
point $-1 -1 $-1 19.049999999999997 -50.799999999999997 0 #
coedge $-1 -1 $-1 $434 $473 $470 $495 reversed $346 $-1 #
coedge $-1 -1 $-1 $439 $435 $434 $482 reversed $329 $-1 #
edge $-1 -1 $-1 $496 0 $437 0.42957261867286239 $481 $500 forward @7 unknown #
straight-curve $-1 -1 $-1 61.0425759583811 -39.531490279648338 0 0 0 -1 I I #
point $-1 -1 $-1 61.0425759583811 -39.531490279648338 0 #
point $-1 -1 $-1 51.891192342295838 -45.318174294846251 -3.1749999999999998 #
coedge $-1 -1 $-1 $456 $450 $452 $489 reversed $281 $-1 #
edge $-1 -1 $-1 $490 0 $466 17.14500000000001 $450 $501 forward @7 unknown #
ellipse-curve $-1 -1 $-1 27.304999999999978 -33.65499999999998 -3.1749999999999998 0 0 1 -1.7763568394002505e-014 8.2549999999999812 0 1 I I #
edge $-1 -1 $-1 $458 0 $490 17.780000000000001 $486 $502 forward @7 unknown #
vertex $-1 -1 $-1 $489 $503 #
straight-curve $-1 -1 $-1 19.049999999999997 -50.799999999999997 0 0 0 -1 I I #
straight-curve $-1 -1 $-1 51.891192342295838 -45.318174294846258 -3.1749999999999998 -0.93969262078590887 -0.34202014332566777 0 I I #
point $-1 -1 $-1 36.829999999999998 -50.79999999999999 -3.1749999999999998 #
point $-1 -1 $-1 19.049999999999997 -33.654999999999987 -3.1749999999999998 #
edge $-1 -1 $-1 $496 -2.4301992832368155e-015 $475 16.027786117655651 $470 $504 forward @7 unknown #
vertex $-1 -1 $-1 $482 $505 #
straight-curve $-1 -1 $-1 51.891192342295838 -45.318174294846251 0 0 0 -1 I I #
straight-curve $-1 -1 $-1 36.829999999999998 -50.799999999999997 0 -1 0 0 I I #
point $-1 -1 $-1 36.829999999999998 -50.799999999999997 0 #
ellipse-curve $-1 -1 $-1 43.203880701823849 -21.449981726884037 0 0 0 1 8.6873116404719894 -23.868192567962215 0 1 I I #
straight-curve $-1 -1 $-1 19.049999999999997 -50.799999999999997 -3.1749999999999998 0 1 0 I I #
straight-curve $-1 -1 $-1 36.829999999999998 -50.799999999999997 -3.1749999999999998 -1 0 0 I I #
point $-1 -1 $-1 19.049999999999997 -50.799999999999997 -3.1749999999999998 #
straight-curve $-1 -1 $-1 51.891192342295838 -45.318174294846258 0 -0.93969262078590887 -0.34202014332566777 0 I I #
point $-1 -1 $-1 51.891192342295838 -45.318174294846251 0 #
End-of-ACIS-data 