600 0 1 0           
101 GICL ACIS Healer - Source: /gicl/data5/repository/PTC/V20/NC_Training_Rel20/DXF/part_21.prt.sat - 6 0 18 ACIS 6.0.3 Solaris 24 Sat Apr 13 20:50:44 2002 
1 9.999999999999999547e-07 1.000000000000000036e-10 
body $-1 $1 $-1 $-1 #
lump $-1 $-1 $2 $0 #
shell $-1 $-1 $-1 $3 $-1 $1 #
face $-1 $4 $5 $2 $-1 $6 forward single #
face $-1 $7 $8 $2 $-1 $9 forward single #
loop $-1 $-1 $10 $3 #
plane-surface $-1 2.723942998437280938 5.346039145130207615 -98.5 0.4539904997395468045 0.8910065241883678988 0 -0.8910065241883678988 0.4539904997395468045 0 forward_v I I I I #
face $-1 $11 $12 $2 $-1 $13 forward single #
loop $-1 $-1 $14 $4 #
plane-surface $-1 -571.5552235539020103 294.5889109050937122 -88.5 -0.6300367553350502137 0.321019760960110534 -0.7071067811865443531 -0.6300367553350483263 0.3210197609601002089 0.7071067811865506814 forward_v I I I I #
coedge $-1 $15 $16 $17 $18 forward $5 $-1 #
face $-1 $19 $20 $2 $-1 $21 reversed single #
loop $-1 $-1 $22 $7 #
plane-surface $-1 -289.5516586482835351 150.9009177375271804 -98.5 0 0 -1 -0.8910065241883678988 0.4539904997395469155 0 forward_v I I I I #
coedge $-1 $23 $17 $24 $25 forward $8 $-1 #
coedge $-1 $26 $10 $27 $28 forward $5 $-1 #
coedge $-1 $10 $29 $30 $31 forward $5 $-1 #
coedge $-1 $14 $32 $10 $18 reversed $8 $-1 #
edge $-1 $33 7.162688636242939387e-14 $34 28.28427124746189136 $10 $35 forward 7 unknown #
face $-1 $36 $37 $2 $-1 $38 reversed single #
loop $-1 $-1 $39 $11 #
plane-surface $-1 -7.54809374266503319 7.212924569960569521 -88.5 -0.6300367553350509908 0.321019760960103373 0.7071067811865471286 0.6300367553350501026 -0.3210197609601029289 0.7071067811865480168 forward_v I I I I #
coedge $-1 $40 $30 $41 $42 forward $12 $-1 #
coedge $-1 $32 $14 $43 $44 forward $8 $-1 #
coedge $-1 $30 $40 $14 $25 reversed $12 $-1 #
edge $-1 $33 -1.009741958682910357e-28 $45 5.99999999999996092 $24 $46 forward 7 unknown #
coedge $-1 $47 $15 $48 $49 reversed $5 $-1 #
coedge $-1 $50 $51 $15 $28 reversed $52 $-1 #
edge $-1 $34 0 $53 156.9999999999999716 $15 $54 forward 7 unknown #
coedge $-1 $16 $55 $56 $57 reversed $5 $-1 #
coedge $-1 $22 $24 $16 $31 reversed $12 $-1 #
edge $-1 $58 3.971940195619585922e-15 $33 613.0000000000001137 $16 $59 forward 7 unknown #
coedge $-1 $17 $23 $50 $60 reversed $8 $-1 #
vertex $-1 $31 $61 #
vertex $-1 $28 $62 #
straight-curve $-1 -561.2831868127996131 292.722025480263369 -98.5 -0.6300367553350503247 0.3210197609601012081 0.7071067811865484609 I I #
face $-1 $63 $64 $2 $-1 $65 forward single #
loop $-1 $-1 $66 $19 #
plane-surface $-1 1.361971499218640469 2.673019572565103807 1.421085471520200372e-14 -0.8910065241883678988 0.453990499739546749 0 0 0 1 forward_v I I I I #
coedge $-1 $67 $56 $68 $69 forward $20 $-1 #
coedge $-1 $24 $22 $70 $71 forward $12 $-1 #
coedge $-1 $56 $67 $22 $42 reversed $20 $-1 #
edge $-1 $58 -1.100301928745677239e-15 $72 5.999999999999985789 $22 $73 forward 7 unknown #
coedge $-1 $70 $74 $23 $44 reversed $75 $-1 #
edge $-1 $45 -1.004859173557617053e-14 $76 28.2842712474618736 $23 $77 forward 7 unknown #
vertex $-1 $25 $78 #
straight-curve $-1 -561.2831868127997268 292.722025480263369 -98.50000000000001421 -0.4539904997395441399 -0.8910065241883692311 -7.105427357601109144e-15 I I #
coedge $-1 $79 $26 $80 $81 reversed $5 $-1 #
coedge $-1 $82 $83 $26 $49 forward $84 $-1 #
edge $-1 $85 -2.194650620745290699e-14 $53 28.28427124746193044 $26 $86 forward 7 unknown #
coedge $-1 $87 $27 $32 $60 forward $52 $-1 #
coedge $-1 $27 $87 $82 $88 reversed $52 $-1 #
loop $-1 $-1 $50 $89 #
vertex $-1 $49 $90 #
straight-curve $-1 -579.1033172965669564 301.8018354750542471 -78.49999999999998579 0 0 1 I I #
coedge $-1 $29 $79 $91 $92 reversed $5 $-1 #
coedge $-1 $39 $41 $29 $57 forward $20 $-1 #
edge $-1 $58 -6.235913427734475423e-14 $93 28.28427124746190202 $29 $94 forward 7 unknown #
vertex $-1 $31 $95 #
straight-curve $-1 -15.09618748533013743 14.42584913992117457 -98.5 -0.8910065241883678988 0.4539904997395468045 0 I I #
edge $-1 $34 0 $76 6.000000000000012434 $50 $96 forward 7 unknown #
point $-1 -561.2831868127997268 292.722025480263369 -98.5 #
point $-1 -579.1033172965669564 301.8018354750542471 -78.49999999999998579 #
face $-1 $97 $98 $2 $-1 $99 reversed single #
loop $-1 $-1 $100 $36 #
plane-surface $-1 -7.548093742664983452 7.212924569960543764 88.5 0.6300367553350524341 -0.3210197609601040392 0.7071067811865453523 0.6300367553350485483 -0.3210197609601020963 -0.7071067811865496822 forward_v I I I I #
coedge $-1 $101 $91 $102 $103 forward $37 $-1 #
coedge $-1 $41 $39 $104 $105 reversed $20 $-1 #
coedge $-1 $91 $101 $39 $69 reversed $37 $-1 #
edge $-1 $93 -9.929850489048964806e-16 $106 5.999999999999999112 $39 $107 forward 7 unknown #
coedge $-1 $104 $43 $40 $71 reversed $75 $-1 #
edge $-1 $72 3.286101967496149897e-15 $45 613.0000000000001137 $40 $108 forward 7 unknown #
vertex $-1 $71 $109 #
straight-curve $-1 -15.09618748533008414 14.42584913992114615 -98.5 -0.4539904997395466935 -0.8910065241883677878 0 I I #
coedge $-1 $43 $110 $87 $111 reversed $75 $-1 #
loop $-1 $-1 $104 $112 #
vertex $-1 $111 $113 #
straight-curve $-1 -564.0071298112369504 287.3759863351331774 -98.49999999999998579 -0.6300367553350506578 0.3210197609601013191 0.7071067811865482389 I I #
point $-1 -564.0071298112369504 287.3759863351331774 -98.5 #
coedge $-1 $55 $47 $114 $115 forward $5 $-1 #
coedge $-1 $116 $117 $47 $81 forward $98 $-1 #
edge $-1 $118 -7.94388039123917216e-14 $85 613.0000000000001137 $47 $119 forward 7 unknown #
coedge $-1 $120 $48 $51 $88 forward $84 $-1 #
coedge $-1 $48 $120 $116 $121 reversed $84 $-1 #
loop $-1 $-1 $82 $97 #
vertex $-1 $81 $122 #
straight-curve $-1 -561.2831868127994994 292.7220254802633121 98.49999999999994316 -0.6300367553350535443 0.3210197609601027624 -0.7071067811865449082 I I #
coedge $-1 $51 $50 $74 $111 forward $52 $-1 #
edge $-1 $53 0 $123 6.000000000000012434 $82 $124 forward 7 unknown #
face $-1 $112 $52 $2 $-1 $125 forward single #
point $-1 -579.1033172965669564 301.8018354750542471 78.49999999999998579 #
coedge $-1 $66 $68 $55 $92 forward $37 $-1 #
edge $-1 $93 1.421085471520200372e-14 $126 157 $55 $127 forward 7 unknown #
vertex $-1 $57 $128 #
straight-curve $-1 -15.09618748533006283 14.42584913992113549 -98.5 0.6300367553350501026 -0.3210197609601028179 0.7071067811865480168 I I #
point $-1 -15.09618748533014099 14.42584913992117635 -98.5 #
straight-curve $-1 -579.1033172965669564 301.8018354750542471 -78.49999999999998579 -0.4539904997395553532 -0.8910065241883635689 0 I I #
face $-1 $89 $84 $2 $-1 $129 reversed single #
loop $-1 $-1 $116 $63 #
plane-surface $-1 -289.5516586482834214 150.900917737527152 98.5 0 0 -1 -0.8910065241883678988 0.4539904997395469155 0 forward_v I I I I #
coedge $-1 $130 $114 $117 $131 forward $64 $-1 #
coedge $-1 $68 $66 $132 $133 reversed $37 $-1 #
coedge $-1 $114 $130 $66 $103 reversed $64 $-1 #
edge $-1 $126 -2.016122823087703737e-16 $134 6 $66 $135 forward 7 unknown #
coedge $-1 $132 $70 $67 $105 forward $75 $-1 #
edge $-1 $72 -6.187417341544171117e-14 $106 28.28427124746190202 $67 $136 forward 7 unknown #
vertex $-1 $105 $137 #
straight-curve $-1 2.723942998437284047 5.346039145130204062 -78.49999999999998579 -0.4539904997395469155 -0.8910065241883678988 0 I I #
straight-curve $-1 -17.82013048376741793 9.079809994790966954 -98.5 -0.8910065241883677878 0.4539904997395468045 0 I I #
point $-1 -17.82013048376741438 9.079809994790981165 -98.5 #
coedge $-1 $74 $138 $120 $139 forward $75 $-1 #
edge $-1 $76 0 $123 157 $87 $140 forward 7 unknown #
face $-1 $-1 $75 $2 $-1 $141 reversed single #
point $-1 -581.8272602950042938 296.4557963299240555 -78.49999999999998579 #
coedge $-1 $100 $102 $79 $115 reversed $64 $-1 #
edge $-1 $118 0 $126 28.2842712474618132 $79 $142 forward 7 unknown #
coedge $-1 $143 $80 $83 $121 forward $98 $-1 #
coedge $-1 $80 $143 $100 $131 reversed $98 $-1 #
vertex $-1 $115 $144 #
straight-curve $-1 -15.09618748533003796 14.42584913992112305 98.5 -0.8910065241883677878 0.4539904997395468045 0 I I #
coedge $-1 $83 $82 $110 $139 reversed $84 $-1 #
edge $-1 $85 -5.161274427104277335e-14 $145 5.99999999999996092 $116 $146 forward 7 unknown #
point $-1 -561.2831868127994994 292.722025480263369 98.5 #
vertex $-1 $139 $147 #
straight-curve $-1 -579.1033172965669564 301.8018354750542471 78.49999999999998579 -0.4539904997395403097 -0.8910065241883712295 0 I I #
plane-surface $-1 -580.4652887957856819 299.1288159024891229 1.421085471520200372e-14 -0.8910065241883635689 0.4539904997395554642 0 0 0 1 forward_v I I I I #
vertex $-1 $92 $148 #
straight-curve $-1 2.723942998437280938 5.346039145130207615 -78.5 0 0 1 I I #
point $-1 2.723942998437284491 5.34603914513020495 -78.49999999999998579 #
plane-surface $-1 -571.5552235539018966 294.5889109050937122 88.5 0.6300367553350475491 -0.3210197609601092017 -0.7071067811865473507 -0.6300367553350511018 0.3210197609601015967 -0.7071067811865476838 forward_v I I I I #
coedge $-1 $102 $100 $149 $150 forward $64 $-1 #
edge $-1 $118 2.750205411655797792e-14 $151 6.000000000000015987 $100 $152 forward 7 unknown #
coedge $-1 $149 $104 $101 $133 forward $75 $-1 #
edge $-1 $106 1.421085471520200372e-14 $134 157 $101 $153 forward 7 unknown #
vertex $-1 $133 $154 #
straight-curve $-1 2.723942998437280494 5.346039145130207615 78.5 -0.453990499739546749 -0.8910065241883678988 0 I I #
straight-curve $-1 -17.82013048376734332 9.079809994790927874 -98.5 0.6300367553350501026 -0.3210197609601028179 0.7071067811865480168 I I #
point $-1 2.220446049250313081e-16 0 -78.49999999999998579 #
coedge $-1 $110 $149 $143 $155 forward $75 $-1 #
edge $-1 $145 9.807401609655677835e-14 $123 28.2842712474620015 $120 $156 forward 7 unknown #
straight-curve $-1 -581.8272602950042938 296.4557963299240555 -78.49999999999998579 0 0 1 I I #
plane-surface $-1 0 0 -98.5 0.4539904997395468045 0.8910065241883678988 0 -0.8910065241883678988 0.4539904997395468045 0 forward_v I I I I #
straight-curve $-1 -15.0961874853299669 14.42584913992108753 98.5 0.6300367553350485483 -0.3210197609601020963 -0.7071067811865496822 I I #
coedge $-1 $117 $116 $138 $155 reversed $98 $-1 #
point $-1 -15.0961874853299669 14.42584913992108753 98.5 #
vertex $-1 $155 $157 #
straight-curve $-1 -561.2831868127996131 292.722025480263369 98.5 -0.4539904997395252662 -0.89100652418837889 0 I I #
point $-1 -581.8272602950042938 296.4557963299240555 78.50000000000001421 #
point $-1 2.723942998437280938 5.346039145130207615 78.5 #
coedge $-1 $138 $132 $130 $150 reversed $75 $-1 #
edge $-1 $151 -5.792509627272331189e-14 $134 28.2842712474618132 $130 $158 forward 7 unknown #
vertex $-1 $150 $159 #
straight-curve $-1 -15.09618748532999 14.42584913992113016 98.50000000000004263 -0.453990499739547082 -0.8910065241883677878 0 I I #
straight-curve $-1 0 -4.440892098500626162e-16 -78.5 0 0 1 I I #
point $-1 2.220446049250313081e-16 4.440892098500626162e-16 78.5 #
edge $-1 $151 1.67320370902598671e-15 $145 613.0000000000001137 $143 $160 forward 7 unknown #
straight-curve $-1 -564.0071298112367231 287.3759863351330637 98.49999999999994316 -0.6300367553350535443 0.3210197609601027624 -0.7071067811865449082 I I #
point $-1 -564.0071298112368368 287.3759863351331774 98.49999999999995737 #
straight-curve $-1 -17.8201304837672474 9.079809994790879912 98.5 0.6300367553350485483 -0.3210197609601020963 -0.7071067811865496822 I I #
point $-1 -17.8201304837673149 9.079809994790927874 98.5 #
straight-curve $-1 -17.82013048376731845 9.079809994790917216 98.5 -0.8910065241883677878 0.4539904997395468045 0 I I #
End-of-ACIS-data 