600 0 1 0           
103 GICL Pro/E ACIS Translator - Source: f:/data5/repository/PTC/V20/NC_Training_Rel20/DXF/part_9.prt - 6 0 13 ACIS 6.0.3 NT 24 Thu Apr 04 13:14:01 2002 
1 9.9999999999999995e-007 1e-010 
body $-1 $1 $-1 $-1 #
lump $-1 $-1 $2 $0 #
shell $-1 $-1 $-1 $3 $-1 $1 #
face $-1 $4 $5 $2 $-1 $6 forward single #
face $-1 $7 $8 $2 $-1 $9 forward single #
loop $-1 $10 $11 $3 #
plane-surface $-1 -0.76199999999999768 -0.76199999999999946 0 0 1 0 -1 0 0 forward_v I I I I #
face $-1 $12 $13 $2 $-1 $14 reversed single #
loop $-1 $-1 $15 $4 #
plane-surface $-1 -11.937999999999999 -1.1429999999999993 12.699999999999999 -1 0 0 0 0 1 forward_v I I I I #
loop $-1 $16 $17 $3 #
coedge $-1 $18 $19 $20 $21 forward $5 $-1 #
face $-1 $22 $23 $2 $-1 $24 forward single #
loop $-1 $25 $26 $7 #
plane-surface $-1 -0.76199999999999768 -1.5239999999999994 0 0 1 0 -1 0 0 forward_v I I I I #
coedge $-1 $27 $28 $29 $30 forward $8 $-1 #
loop $-1 $-1 $31 $3 #
coedge $-1 $32 $32 $33 $34 forward $10 $-1 #
coedge $-1 $35 $11 $36 $37 forward $5 $-1 #
coedge $-1 $11 $38 $39 $40 forward $5 $-1 #
coedge $-1 $28 $27 $11 $21 reversed $8 $-1 #
edge $-1 $41 -8.8817841970012523e-016 $42 19.050000000000004 $11 $43 forward 7 unknown #
face $-1 $44 $45 $2 $-1 $46 forward single #
loop $-1 $-1 $47 $12 #
plane-surface $-1 -6.3499999999999996 -1.1429999999999993 0 0 0 -1 -1 0 0 forward_v I I I I #
loop $-1 $48 $49 $7 #
coedge $-1 $50 $51 $52 $53 reversed $13 $-1 #
coedge $-1 $20 $15 $54 $55 forward $8 $-1 #
coedge $-1 $15 $20 $56 $57 reversed $8 $-1 #
coedge $-1 $51 $58 $15 $30 reversed $13 $-1 #
edge $-1 $59 -8.8817841970012523e-016 $60 19.049999999999997 $15 $61 forward 7 unknown #
coedge $-1 $62 $62 $63 $64 reversed $16 $-1 #
coedge $-1 $17 $17 $65 $66 forward $10 $-1 #
coedge $-1 $67 $68 $17 $34 reversed $69 $-1 #
edge $-1 $70 0 $71 3.1415926535897931 $17 $72 forward 7 unknown #
coedge $-1 $73 $18 $74 $75 reversed $5 $-1 #
coedge $-1 $54 $76 $18 $37 reversed $77 $-1 #
edge $-1 $42 0 $78 1.5707963267948921 $18 $79 forward 7 unknown #
coedge $-1 $19 $73 $47 $80 forward $5 $-1 #
coedge $-1 $81 $56 $19 $40 reversed $82 $-1 #
edge $-1 $83 0 $41 1.5707963267948952 $19 $84 forward 7 unknown #
vertex $-1 $40 $85 #
vertex $-1 $37 $86 #
straight-curve $-1 -11.937999999999999 -0.76199999999999946 3.1750000000000007 0 0 1 I I #
face $-1 $87 $88 $2 $-1 $89 forward single #
loop $-1 $-1 $90 $22 #
plane-surface $-1 0.046223050896225137 -0.80822305089622271 0 0 0 -1 0 -1 0 forward_v I I I I #
coedge $-1 $91 $92 $38 $80 reversed $23 $-1 #
loop $-1 $-1 $93 $7 #
coedge $-1 $94 $94 $95 $96 reversed $25 $-1 #
coedge $-1 $97 $26 $98 $99 forward $13 $-1 #
coedge $-1 $26 $29 $100 $101 forward $13 $-1 #
coedge $-1 $92 $91 $26 $53 forward $23 $-1 #
edge $-1 $102 -1.9984014443252818e-015 $103 8.0009999999999994 $52 $104 forward 7 unknown #
coedge $-1 $105 $36 $27 $55 reversed $77 $-1 #
edge $-1 $60 0 $42 0.76199999999999979 $27 $106 forward 7 unknown #
coedge $-1 $39 $100 $28 $57 forward $82 $-1 #
edge $-1 $59 0 $41 0.76199999999999979 $28 $107 forward 7 unknown #
coedge $-1 $29 $97 $105 $108 forward $13 $-1 #
vertex $-1 $57 $109 #
vertex $-1 $55 $110 #
straight-curve $-1 -11.937999999999999 -1.5239999999999994 3.1750000000000007 0 0 1 I I #
coedge $-1 $31 $31 $111 $112 reversed $16 $-1 #
coedge $-1 $113 $114 $31 $64 forward $115 $-1 #
edge $-1 $116 0 $117 3.1415926535897931 $31 $118 forward 7 unknown #
coedge $-1 $119 $120 $32 $66 reversed $121 $-1 #
edge $-1 $71 0 $70 3.1415926535897931 $32 $122 forward 7 unknown #
coedge $-1 $95 $33 $120 $123 forward $69 $-1 #
coedge $-1 $33 $95 $119 $124 reversed $69 $-1 #
loop $-1 $-1 $67 $125 #
vertex $-1 $66 $126 #
vertex $-1 $66 $127 #
ellipse-curve $-1 -6.8579999999999997 -0.76199999999999946 19.049999999999997 0 -1 0 -2.2224999999999993 0 0 1 I I #
coedge $-1 $38 $35 $128 $129 reversed $5 $-1 #
coedge $-1 $130 $131 $35 $75 forward $132 $-1 #
edge $-1 $133 -1.3322676295501878e-015 $78 8.0009999999999994 $35 $134 forward 7 unknown #
coedge $-1 $36 $105 $130 $135 forward $77 $-1 #
loop $-1 $-1 $105 $136 #
vertex $-1 $75 $137 #
ellipse-curve $-1 -8.7629999999999946 -0.76199999999999946 22.224999999999994 -3.4967654318902518e-017 1 1.1738273746236116e-031 -3.1750000000000043 -1.1102230246251565e-016 1.0658141036401503e-014 1 I I #
edge $-1 $138 -1.3322676295501878e-015 $83 8.0009999999999994 $38 $139 forward 7 unknown #
coedge $-1 $100 $39 $92 $140 reversed $82 $-1 #
loop $-1 $-1 $100 $141 #
vertex $-1 $40 $142 #
ellipse-curve $-1 -8.7629999999999963 -0.76199999999999946 3.1750000000000025 -1.9563789577060217e-032 1 -3.4967654318902543e-017 -1.7763568394002505e-015 -1.1102230246251565e-016 -3.1750000000000025 1 I I #
point $-1 -11.937999999999999 -0.76199999999999957 3.1749999999999998 #
point $-1 -11.937999999999999 -0.76199999999999957 22.225000000000005 #
face $-1 $143 $144 $2 $-1 $145 forward single #
loop $-1 $-1 $146 $44 #
plane-surface $-1 5.641946801017709 -1.1429999999999934 0 0 0 -1 -1 0 0 forward_v I I I I #
coedge $-1 $147 $148 $149 $150 forward $45 $-1 #
coedge $-1 $52 $47 $151 $152 forward $23 $-1 #
coedge $-1 $47 $52 $81 $140 forward $23 $-1 #
coedge $-1 $153 $153 $154 $155 forward $48 $-1 #
coedge $-1 $49 $49 $156 $157 reversed $25 $-1 #
coedge $-1 $68 $67 $49 $96 forward $69 $-1 #
edge $-1 $158 0 $159 3.1415926535897931 $49 $160 forward 7 unknown #
coedge $-1 $58 $50 $161 $162 forward $13 $-1 #
coedge $-1 $163 $164 $50 $99 reversed $165 $-1 #
edge $-1 $102 0 $166 25.399999999999999 $50 $167 forward 7 unknown #
coedge $-1 $56 $81 $51 $101 reversed $82 $-1 #
edge $-1 $59 0 $103 1.570796326794895 $51 $168 forward 7 unknown #
vertex $-1 $53 $169 #
vertex $-1 $140 $170 #
straight-curve $-1 -0.76199999999999868 -1.5239999999999994 0 -1 0 0 I I #
coedge $-1 $76 $54 $58 $108 reversed $77 $-1 #
straight-curve $-1 -11.937999999999999 -1.5239999999999994 22.224999999999998 0 1 9.32470781837402e-015 I I #
straight-curve $-1 -11.937999999999999 -1.5239999999999994 3.1750000000000007 0 1 0 I I #
edge $-1 $171 0 $60 1.5707963267948983 $58 $172 forward 7 unknown #
point $-1 -11.937999999999999 -1.5239999999999994 3.1749999999999998 #
point $-1 -11.937999999999999 -1.5239999999999994 22.224999999999998 #
coedge $-1 $173 $174 $62 $112 forward $175 $-1 #
edge $-1 $117 0 $116 3.1415926535897931 $62 $176 forward 7 unknown #
coedge $-1 $154 $63 $174 $177 forward $115 $-1 #
coedge $-1 $63 $154 $173 $178 reversed $115 $-1 #
loop $-1 $-1 $113 $179 #
vertex $-1 $112 $180 #
vertex $-1 $112 $181 #
ellipse-curve $-1 -6.8579999999999997 -0.76199999999999946 6.3499999999999996 0 1 0 -2.2224999999999993 0 0 1 I I #
coedge $-1 $156 $65 $68 $124 forward $121 $-1 #
coedge $-1 $65 $156 $67 $123 reversed $121 $-1 #
loop $-1 $-1 $119 $182 #
ellipse-curve $-1 -6.8579999999999997 -0.76199999999999946 19.049999999999997 0 -1 0 2.2224999999999993 0 0 1 I I #
edge $-1 $70 0 $158 0.7619999999999999 $120 $183 forward 7 unknown #
edge $-1 $71 0 $159 0.7619999999999999 $119 $184 forward 7 unknown #
face $-1 $182 $69 $2 $-1 $185 reversed single #
point $-1 -9.0804999999999989 -0.76199999999999946 19.049999999999997 #
point $-1 -4.6355000000000004 -0.76199999999999946 19.049999999999997 #
coedge $-1 $186 $187 $73 $129 forward $188 $-1 #
edge $-1 $138 0 $133 25.399999999999999 $73 $189 forward 7 unknown #
coedge $-1 $161 $74 $76 $135 reversed $132 $-1 #
coedge $-1 $74 $161 $190 $191 reversed $132 $-1 #
loop $-1 $-1 $161 $192 #
vertex $-1 $129 $193 #
straight-curve $-1 -0.76199999999999868 -0.76199999999999946 25.399999999999999 -1 0 0 I I #
edge $-1 $171 0 $78 0.76199999999999979 $130 $194 forward 7 unknown #
face $-1 $195 $77 $2 $-1 $196 forward single #
point $-1 -8.7629999999999981 -0.76199999999999957 25.399999999999999 #
vertex $-1 $80 $197 #
straight-curve $-1 -0.76199999999999868 -0.76199999999999946 0 -1 0 0 I I #
edge $-1 $103 0 $83 0.76199999999999957 $92 $198 forward 7 unknown #
face $-1 $125 $82 $2 $-1 $199 forward single #
point $-1 -8.7629999999999981 -0.76199999999999957 0 #
face $-1 $200 $201 $2 $-1 $202 forward single #
loop $-1 $-1 $203 $87 #
plane-surface $-1 11.276169851913936 -1.4777769491037676 0 0 0 -1 0 1 0 forward_v I I I I #
coedge $-1 $204 $205 $206 $207 forward $88 $-1 #
coedge $-1 $151 $90 $163 $208 forward $45 $-1 #
coedge $-1 $90 $151 $187 $209 reversed $45 $-1 #
coedge $-1 $205 $204 $90 $150 reversed $88 $-1 #
edge $-1 $210 0 $211 0.76200000000000001 $90 $212 forward 7 unknown #
coedge $-1 $148 $147 $91 $152 reversed $45 $-1 #
edge $-1 $138 0 $102 0.76200000000000012 $91 $213 forward 7 unknown #
coedge $-1 $93 $93 $214 $215 forward $48 $-1 #
coedge $-1 $114 $113 $93 $155 reversed $115 $-1 #
edge $-1 $216 0 $217 3.1415926535897962 $93 $218 forward 7 unknown #
coedge $-1 $120 $119 $94 $157 forward $121 $-1 #
edge $-1 $159 0 $158 3.1415926535897931 $94 $219 forward 7 unknown #
vertex $-1 $157 $220 #
vertex $-1 $157 $221 #
ellipse-curve $-1 -6.8579999999999997 -1.5239999999999994 19.049999999999997 0 -1 0 -2.2224999999999993 0 0 1 I I #
coedge $-1 $131 $130 $97 $162 reversed $132 $-1 #
edge $-1 $166 0 $171 8.0009999999999994 $161 $222 forward 7 unknown #
coedge $-1 $223 $98 $147 $208 reversed $165 $-1 #
coedge $-1 $98 $223 $224 $225 forward $165 $-1 #
loop $-1 $-1 $223 $195 #
vertex $-1 $191 $226 #
straight-curve $-1 -0.76199999999999768 -1.5239999999999996 0 0 0 1 I I #
ellipse-curve $-1 -8.7629999999999963 -1.5239999999999994 3.1750000000000034 0 -1 0 -3.1750000000000025 0 -3.5527136788005009e-015 1 I I #
point $-1 -0.76199999999999668 -1.5239999999999989 0 #
point $-1 -8.7629999999999981 -1.5239999999999991 0 #
vertex $-1 $135 $227 #
ellipse-curve $-1 -8.7629999999999999 -1.5239999999999994 22.225000000000001 0 -1 0 1.7763568394002505e-015 0 3.1749999999999972 1 I I #
coedge $-1 $214 $111 $114 $178 forward $175 $-1 #
coedge $-1 $111 $214 $113 $177 reversed $175 $-1 #
loop $-1 $-1 $173 $228 #
ellipse-curve $-1 -6.8579999999999997 -0.76199999999999946 6.3499999999999996 0 1 0 2.2224999999999993 0 0 1 I I #
edge $-1 $117 0 $217 0.7619999999999999 $174 $229 forward 7 unknown #
edge $-1 $116 0 $216 0.7619999999999999 $173 $230 forward 7 unknown #
face $-1 $228 $115 $2 $-1 $231 reversed single #
point $-1 -9.0804999999999989 -0.76199999999999946 6.3499999999999996 #
point $-1 -4.6355000000000004 -0.76199999999999946 6.3499999999999996 #
face $-1 $179 $121 $2 $-1 $232 reversed single #
straight-curve $-1 -9.0804999999999989 -0.76199999999999946 19.049999999999997 0 -1 0 I I #
straight-curve $-1 -4.6355000000000004 -0.76199999999999946 19.049999999999997 0 -1 0 I I #
cone-surface $-1 -6.8579999999999997 -0.76199999999999946 19.049999999999997 0 -1 0 2.2224999999999997 0 0 1 I I 0 1 2.2224999999999997 forward I I I I #
coedge $-1 $233 $128 $234 $235 reversed $188 $-1 #
coedge $-1 $128 $233 $148 $209 forward $188 $-1 #
loop $-1 $-1 $128 $236 #
straight-curve $-1 -0.76199999999999768 -0.76199999999999946 0 0 0 1 I I #
coedge $-1 $224 $234 $131 $191 forward $237 $-1 #
edge $-1 $133 -6.6613381477509392e-016 $166 0.7619999999999999 $131 $238 forward 7 unknown #
face $-1 $136 $132 $2 $-1 $239 reversed single #
point $-1 -0.76199999999999735 -0.76199999999999879 25.399999999999999 #
straight-curve $-1 -8.7629999999999981 -1.5239999999999994 25.399999999999999 0 1 0 I I #
face $-1 $240 $165 $2 $-1 $241 forward single #
cone-surface $-1 -8.7629999999999981 -1.5862868296127672 22.224999999999998 0 1 0 0 0 3.1749999999999998 1 I I 0 1 3.1749999999999998 forward I I I I #
point $-1 -0.76199999999999735 -0.76199999999999879 0 #
straight-curve $-1 -8.7629999999999981 -1.5239999999999991 0 0 1 0 I I #
cone-surface $-1 -8.7629999999999981 -1.5862868296127672 3.1749999999999998 0 1 0 -3.1749999999999998 0 0 1 I I 0 1 3.1749999999999998 forward I I I I #
face $-1 $242 $243 $2 $-1 $244 forward single #
loop $-1 $-1 $245 $143 #
plane-surface $-1 17.049693602035425 -1.1429999999999829 0 0 0 -1 -1 -1.2624893046338418e-015 0 forward_v I I I I #
coedge $-1 $246 $247 $248 $249 forward $144 $-1 #
coedge $-1 $149 $146 $250 $251 forward $88 $-1 #
coedge $-1 $146 $149 $252 $253 reversed $88 $-1 #
coedge $-1 $247 $246 $146 $207 reversed $144 $-1 #
edge $-1 $254 3.8857805861880479e-015 $255 0.7620000000000039 $146 $256 forward 7 unknown #
edge $-1 $211 6.6613381477508781e-016 $102 1.5779468010177085 $147 $257 forward 7 unknown #
edge $-1 $210 -5.8585395446135737e-030 $138 1.5779468010177085 $187 $258 forward 7 unknown #
vertex $-1 $209 $259 #
vertex $-1 $208 $260 #
straight-curve $-1 0.81594680101771111 -0.76199999999999335 0 0 -1 0 I I #
straight-curve $-1 -0.7619999999999969 -0.76199999999999879 0 0 -1 0 I I #
coedge $-1 $174 $173 $153 $215 reversed $175 $-1 #
edge $-1 $217 0 $216 3.1415926535897922 $153 $261 forward 7 unknown #
vertex $-1 $215 $262 #
vertex $-1 $215 $263 #
ellipse-curve $-1 -6.8579999999999997 -1.5239999999999994 6.3500000000000032 0 1 0 -2.2224999999999993 0 -3.5527136788005009e-015 1 I I #
ellipse-curve $-1 -6.8579999999999997 -1.5239999999999994 19.049999999999997 0 -1 0 2.2224999999999993 0 0 1 I I #
point $-1 -9.0804999999999989 -1.5239999999999994 19.049999999999997 #
point $-1 -4.6355000000000004 -1.5239999999999994 19.049999999999997 #
straight-curve $-1 -0.76199999999999868 -1.5239999999999994 25.399999999999999 -1 0 0 I I #
coedge $-1 $164 $163 $264 $265 forward $165 $-1 #
coedge $-1 $266 $190 $164 $225 reversed $237 $-1 #
edge $-1 $267 -1.1102230246251565e-015 $166 1.5779468010177105 $224 $268 forward 7 unknown #
point $-1 -0.76199999999999868 -1.5239999999999994 25.399999999999999 #
point $-1 -8.7629999999999981 -1.5239999999999994 25.399999999999999 #
face $-1 $-1 $175 $2 $-1 $269 reversed single #
straight-curve $-1 -4.6355000000000004 -0.76199999999999946 6.3499999999999996 0 -1 0 I I #
straight-curve $-1 -9.0804999999999989 -0.76199999999999946 6.3499999999999996 0 -1 0 I I #
cone-surface $-1 -6.8579999999999997 -0.76199999999999946 6.3499999999999996 0 1 0 2.2224999999999997 0 0 1 I I 0 1 2.2224999999999997 forward I I I I #
cone-surface $-1 -6.8579999999999997 -0.76199999999999946 19.049999999999997 0 -1 0 2.2224999999999997 0 0 1 I I 0 1 2.2224999999999997 forward I I I I #
coedge $-1 $187 $186 $270 $271 reversed $188 $-1 #
coedge $-1 $190 $266 $186 $235 forward $237 $-1 #
edge $-1 $272 -5.8585395446135737e-030 $133 1.5779468010177085 $186 $273 forward 7 unknown #
face $-1 $274 $188 $2 $-1 $275 reversed single #
loop $-1 $-1 $190 $274 #
straight-curve $-1 -0.76199999999999868 -0.76199999999999946 25.399999999999999 0 -1 0 I I #
plane-surface $-1 -6.3499999999999996 -1.1429999999999993 25.399999999999999 0 0 -1 -1 0 0 forward_v I I I I #
face $-1 $276 $277 $2 $-1 $278 reversed single #
plane-surface $-1 -0.76199999999999601 -1.5239999999999996 0 1.7763568394002505e-015 -1 0 1 1.7763568394002505e-015 0 forward_v I I I I #
face $-1 $279 $280 $2 $-1 $281 forward single #
loop $-1 $-1 $282 $200 #
plane-surface $-1 22.861716652931648 -1.4777769491037507 0 0 0 -1 -1.9724924380125748e-015 1 0 forward_v I I I I #
coedge $-1 $283 $284 $285 $286 forward $201 $-1 #
coedge $-1 $206 $203 $287 $288 forward $144 $-1 #
coedge $-1 $203 $206 $289 $290 reversed $144 $-1 #
coedge $-1 $284 $283 $203 $249 reversed $201 $-1 #
edge $-1 $291 0 $292 0.76200000000000045 $203 $293 forward 7 unknown #
coedge $-1 $294 $264 $204 $251 reversed $277 $-1 #
edge $-1 $255 0 $211 9.6519999999999957 $204 $295 forward 7 unknown #
coedge $-1 $270 $296 $205 $253 forward $297 $-1 #
edge $-1 $254 0 $210 9.6519999999999957 $252 $298 forward 7 unknown #
vertex $-1 $253 $299 #
vertex $-1 $251 $300 #
straight-curve $-1 10.467946801017707 -0.76199999999998946 0 0 -1 0 I I #
straight-curve $-1 0.81594680101771178 -1.5239999999999967 0 -1 -1.8293264780306193e-015 0 I I #
straight-curve $-1 0.81594680101771111 -0.76199999999999668 0 -1 -1.7589677673371338e-015 0 I I #
point $-1 0.81594680101771111 -0.76199999999999335 0 #
point $-1 0.81594680101771111 -1.5239999999999934 0 #
ellipse-curve $-1 -6.8579999999999997 -1.5239999999999994 6.3500000000000005 0 1 0 2.2224999999999993 0 -8.8817841970012523e-016 1 I I #
point $-1 -9.0804999999999989 -1.5239999999999994 6.3499999999999996 #
point $-1 -4.6355000000000004 -1.5239999999999994 6.3499999999999996 #
coedge $-1 $250 $301 $223 $265 reversed $277 $-1 #
edge $-1 $211 0 $267 25.399999999999999 $223 $302 forward 7 unknown #
coedge $-1 $234 $224 $303 $304 reversed $237 $-1 #
vertex $-1 $304 $305 #
straight-curve $-1 0.81594680101771178 -1.5239999999999967 25.399999999999999 -1 -1.8293264780306193e-015 0 I I #
cone-surface $-1 -6.8579999999999997 -0.76199999999999946 6.3499999999999996 0 1 0 2.2224999999999997 0 0 1 I I 0 1 2.2224999999999997 forward I I I I #
coedge $-1 $306 $252 $233 $271 forward $297 $-1 #
edge $-1 $210 0 $272 25.399999999999999 $233 $307 forward 7 unknown #
vertex $-1 $271 $308 #
straight-curve $-1 0.81594680101771111 -0.76199999999999668 25.399999999999999 -1 -1.7589677673371338e-015 0 I I #
face $-1 $192 $237 $2 $-1 $309 reversed single #
plane-surface $-1 -0.76199999999999735 -0.76199999999999946 0 1.7763568394002505e-015 -1 0 1 1.7763568394002505e-015 0 forward_v I I I I #
face $-1 $310 $311 $2 $-1 $312 reversed single #
loop $-1 $-1 $294 $240 #
plane-surface $-1 10.467946801017707 -1.5239999999999898 0 0 1 0 -1 0 0 forward_v I I I I #
face $-1 $313 $314 $2 $-1 $315 forward single #
loop $-1 $-1 $316 $242 #
plane-surface $-1 28.45744040305313 -1.142999999999958 0 0 0 -1 -1 -2.7793963987284008e-015 0 forward_v I I I I #
coedge $-1 $317 $318 $319 $320 forward $243 $-1 #
coedge $-1 $248 $245 $321 $322 forward $201 $-1 #
coedge $-1 $245 $248 $323 $324 reversed $201 $-1 #
coedge $-1 $318 $317 $245 $286 reversed $243 $-1 #
edge $-1 $325 -7.7715611723760958e-016 $326 0.76199999999999968 $245 $327 forward 7 unknown #
coedge $-1 $328 $329 $246 $288 reversed $311 $-1 #
edge $-1 $292 0 $255 1.577946801017724 $246 $330 forward 7 unknown #
coedge $-1 $331 $332 $247 $290 forward $333 $-1 #
edge $-1 $291 0 $254 1.577946801017724 $289 $334 forward 7 unknown #
vertex $-1 $290 $335 #
vertex $-1 $288 $336 #
straight-curve $-1 12.045893602035431 -0.76199999999998891 0 0 -1 0 I I #
coedge $-1 $301 $250 $329 $337 forward $277 $-1 #
straight-curve $-1 10.467946801017707 -1.5239999999999898 0 -1 0 0 I I #
coedge $-1 $252 $306 $331 $338 reversed $297 $-1 #
loop $-1 $-1 $270 $339 #
straight-curve $-1 10.467946801017707 -0.76199999999999002 0 -1 0 0 I I #
point $-1 10.467946801017707 -0.76199999999999335 0 #
point $-1 10.467946801017707 -1.5239999999999934 0 #
coedge $-1 $264 $294 $340 $341 forward $277 $-1 #
straight-curve $-1 0.81594680101771289 -1.5239999999999898 0 0 0 1 I I #
coedge $-1 $340 $342 $266 $304 forward $343 $-1 #
edge $-1 $272 -3.9968028886505635e-015 $267 0.76199999999999934 $266 $344 forward 7 unknown #
point $-1 0.81594680101771289 -1.5239999999999967 25.399999999999999 #
coedge $-1 $296 $270 $342 $345 reversed $297 $-1 #
straight-curve $-1 0.81594680101771111 -0.76199999999999002 0 0 0 1 I I #
point $-1 0.81594680101771111 -0.76199999999999335 25.399999999999999 #
plane-surface $-1 0.046223050896225137 -0.80822305089622271 25.399999999999999 0 0 -1 0 -1 0 forward_v I I I I #
face $-1 $346 $347 $2 $-1 $348 reversed single #
loop $-1 $-1 $328 $276 #
plane-surface $-1 10.467946801017709 -1.5239999999999898 0 0 1 0 1 0 0 forward_v I I I I #
face $-1 $349 $350 $2 $-1 $351 forward single #
loop $-1 $-1 $352 $279 #
plane-surface $-1 34.091663453949351 -0.80822305089616719 0 0 0 -1 2.7793963987284008e-015 -1 0 forward_v I I I I #
coedge $-1 $353 $354 $355 $356 forward $280 $-1 #
coedge $-1 $285 $282 $357 $358 forward $243 $-1 #
coedge $-1 $282 $285 $359 $360 reversed $243 $-1 #
coedge $-1 $354 $353 $282 $320 reversed $280 $-1 #
edge $-1 $361 0 $362 0.76200000000000045 $282 $363 forward 7 unknown #
coedge $-1 $364 $365 $283 $322 reversed $347 $-1 #
edge $-1 $326 1.1232731023821326e-030 $292 10.007599999999989 $283 $366 forward 7 unknown #
coedge $-1 $367 $368 $284 $324 forward $369 $-1 #
edge $-1 $325 1.1232731023821326e-030 $291 10.007599999999989 $323 $370 forward 7 unknown #
vertex $-1 $324 $371 #
vertex $-1 $322 $372 #
straight-curve $-1 22.053493602035424 -0.76199999999997725 0 0 -1 0 I I #
coedge $-1 $373 $287 $365 $374 forward $311 $-1 #
coedge $-1 $287 $373 $294 $337 reversed $311 $-1 #
straight-curve $-1 12.045893602035431 -1.5239999999999898 0 -1 0 0 I I #
coedge $-1 $375 $289 $296 $338 forward $333 $-1 #
coedge $-1 $289 $375 $367 $376 reversed $333 $-1 #
loop $-1 $-1 $331 $377 #
straight-curve $-1 12.045893602035431 -0.76199999999999002 0 -1 0 0 I I #
point $-1 12.045893602035431 -0.76199999999998891 0 #
point $-1 12.045893602035431 -1.5239999999999894 0 #
edge $-1 $255 0 $378 25.399999999999999 $294 $379 forward 7 unknown #
edge $-1 $254 0 $380 25.399999999999999 $296 $381 forward 7 unknown #
face $-1 $236 $297 $2 $-1 $382 forward single #
coedge $-1 $383 $303 $301 $341 reversed $343 $-1 #
edge $-1 $378 0 $267 9.6519999999999939 $340 $384 forward 7 unknown #
coedge $-1 $303 $383 $306 $345 forward $343 $-1 #
loop $-1 $-1 $303 $385 #
straight-curve $-1 0.81594680101771111 -0.76199999999999735 25.399999999999999 1.1655884772967523e-015 -1 0 I I #
edge $-1 $380 0 $272 9.6519999999999957 $306 $386 forward 7 unknown #
face $-1 $387 $388 $2 $-1 $389 reversed single #
loop $-1 $-1 $364 $310 #
plane-surface $-1 22.053493602035424 -1.523999999999976 0 -1.2624893046338418e-015 1 0 -1 -1.2624893046338418e-015 0 forward_v I I I I #
face $-1 $390 $391 $2 $-1 $392 reversed single #
loop $-1 $-1 $393 $313 #
plane-surface $-1 40.449387204070838 -1.142999999999887 0 0 0 -1 -1 -8.3340589619003886e-015 0 forward_v I I I I #
coedge $-1 $394 $395 $396 $397 forward $314 $-1 #
coedge $-1 $319 $316 $398 $399 forward $280 $-1 #
coedge $-1 $316 $319 $400 $401 reversed $280 $-1 #
coedge $-1 $395 $394 $316 $356 reversed $314 $-1 #
edge $-1 $402 -1.4432899320127035e-015 $403 0.76199999999999901 $316 $404 forward 7 unknown #
coedge $-1 $405 $406 $317 $358 reversed $388 $-1 #
edge $-1 $362 0 $326 1.5779468010177133 $317 $407 forward 7 unknown #
coedge $-1 $408 $409 $318 $360 forward $410 $-1 #
edge $-1 $361 -1.3123128579934395e-030 $325 1.5779468010177133 $359 $411 forward 7 unknown #
vertex $-1 $360 $412 #
vertex $-1 $358 $413 #
straight-curve $-1 23.631440403053134 -0.76199999999997114 0 0 -1 0 I I #
coedge $-1 $414 $321 $406 $415 forward $347 $-1 #
coedge $-1 $321 $414 $328 $374 reversed $347 $-1 #
straight-curve $-1 22.05349360203542 -1.523999999999976 0 -1 -1.2646930813308684e-015 0 I I #
coedge $-1 $416 $323 $332 $376 forward $369 $-1 #
coedge $-1 $323 $416 $408 $417 reversed $369 $-1 #
loop $-1 $-1 $367 $418 #
straight-curve $-1 22.05349360203542 -0.76199999999997559 0 -1 -1.2646930813308684e-015 0 I I #
point $-1 22.05349360203542 -0.76199999999997647 0 #
point $-1 22.05349360203542 -1.5239999999999769 0 #
coedge $-1 $329 $328 $419 $420 forward $311 $-1 #
edge $-1 $292 0 $421 25.399999999999999 $328 $422 forward 7 unknown #
coedge $-1 $332 $331 $423 $424 reversed $333 $-1 #
edge $-1 $291 0 $425 25.399999999999999 $332 $426 forward 7 unknown #
face $-1 $339 $333 $2 $-1 $427 forward single #
vertex $-1 $428 $429 #
straight-curve $-1 10.467946801017707 -1.5239999999999898 0 0 0 1 I I #
vertex $-1 $338 $430 #
straight-curve $-1 10.467946801017707 -0.76199999999999002 0 0 0 1 I I #
plane-surface $-1 10.467946801017707 -0.76199999999999002 0 0 1 0 -1 0 0 forward_v I I I I #
coedge $-1 $342 $340 $431 $428 reversed $343 $-1 #
straight-curve $-1 10.467946801017707 -1.5239999999999898 25.399999999999999 -1 0 0 I I #
face $-1 $432 $343 $2 $-1 $433 reversed single #
straight-curve $-1 10.467946801017707 -0.76199999999999002 25.399999999999999 -1 0 0 I I #
face $-1 $434 $435 $2 $-1 $436 reversed single #
loop $-1 $-1 $405 $346 #
plane-surface $-1 22.053493602035424 -1.5239999999999747 0 -1.9724924380125748e-015 1 0 1 1.9724924380125748e-015 0 forward_v I I I I #
face $-1 $437 $438 $2 $-1 $439 reversed single #
loop $-1 $440 $441 $349 #
plane-surface $-1 46.037387204070846 -1.5239999999998375 0 -8.3340589619003886e-015 1 0 -1 -8.3340589619003886e-015 0 forward_v I I I I #
coedge $-1 $396 $442 $443 $444 forward $350 $-1 #
coedge $-1 $355 $352 $445 $446 forward $314 $-1 #
coedge $-1 $352 $355 $447 $448 reversed $314 $-1 #
coedge $-1 $449 $393 $352 $397 reversed $350 $-1 #
edge $-1 $450 4.7739590058881731e-015 $451 0.76200000000000501 $352 $452 forward 7 unknown #
coedge $-1 $453 $454 $353 $399 reversed $435 $-1 #
edge $-1 $403 2.4723417305155018e-030 $362 9.6519999999999939 $353 $455 forward 7 unknown #
coedge $-1 $456 $457 $354 $401 forward $458 $-1 #
edge $-1 $402 2.4723417305155018e-030 $361 9.6519999999999939 $400 $459 forward 7 unknown #
vertex $-1 $401 $460 #
vertex $-1 $399 $461 #
straight-curve $-1 33.283440403053127 -0.76199999999994594 0 0 -1 0 I I #
coedge $-1 $462 $357 $454 $463 forward $388 $-1 #
coedge $-1 $357 $462 $364 $415 reversed $388 $-1 #
straight-curve $-1 23.631440403053134 -1.5239999999999716 0 -1 -1.9700438994175884e-015 0 I I #
coedge $-1 $464 $359 $368 $417 forward $410 $-1 #
coedge $-1 $359 $464 $456 $465 reversed $410 $-1 #
loop $-1 $-1 $408 $466 #
straight-curve $-1 23.631440403053134 -0.76199999999997181 0 -1 -1.9700438994175884e-015 0 I I #
point $-1 23.631440403053134 -0.76199999999997114 0 #
point $-1 23.631440403053134 -1.5239999999999716 0 #
coedge $-1 $365 $364 $467 $468 forward $347 $-1 #
edge $-1 $326 0 $469 25.399999999999999 $364 $470 forward 7 unknown #
coedge $-1 $368 $367 $471 $472 reversed $369 $-1 #
edge $-1 $325 0 $473 25.399999999999999 $368 $474 forward 7 unknown #
face $-1 $377 $369 $2 $-1 $475 forward single #
coedge $-1 $476 $431 $373 $420 reversed $477 $-1 #
edge $-1 $421 0 $378 1.577946801017724 $419 $478 forward 7 unknown #
vertex $-1 $479 $480 #
straight-curve $-1 12.045893602035431 -1.5239999999999887 0 0 0 1 I I #
coedge $-1 $431 $476 $375 $424 forward $477 $-1 #
edge $-1 $425 0 $380 1.577946801017724 $375 $481 forward 7 unknown #
vertex $-1 $376 $482 #
straight-curve $-1 12.045893602035429 -0.76199999999998824 0 0 0 1 I I #
plane-surface $-1 10.467946801017707 -0.76199999999999002 0 0 1 0 1 0 0 forward_v I I I I #
edge $-1 $380 0 $378 0.76200000000000001 $383 $483 forward 7 unknown #
point $-1 10.467946801017707 -1.5239999999999934 25.399999999999999 #
point $-1 10.467946801017707 -0.76199999999999335 25.399999999999999 #
coedge $-1 $419 $423 $383 $428 forward $477 $-1 #
face $-1 $484 $485 $2 $-1 $486 reversed single #
plane-surface $-1 5.641946801017709 -1.1429999999999934 25.399999999999999 0 0 -1 -1 0 0 forward_v I I I I #
face $-1 $487 $488 $2 $-1 $489 forward single #
loop $-1 $-1 $453 $387 #
plane-surface $-1 33.283440403053135 -1.5239999999999441 0 -2.7793963987284008e-015 1 0 -1 -2.7793963987284008e-015 0 forward_v I I I I #
face $-1 $490 $491 $2 $-1 $492 forward single #
loop $-1 $-1 $493 $390 #
plane-surface $-1 40.449387204070838 -1.142999999999887 25.399999999999999 0 0 -1 -1 -8.3340589619003886e-015 0 forward_v I I I I #
loop $-1 $-1 $494 $349 #
coedge $-1 $495 $496 $497 $498 forward $391 $-1 #
coedge $-1 $393 $449 $499 $500 reversed $350 $-1 #
coedge $-1 $501 $495 $393 $444 reversed $391 $-1 #
edge $-1 $502 3.6973233278075149e-030 $451 8.0009999999999977 $393 $503 forward 7 unknown #
coedge $-1 $504 $505 $394 $446 reversed $488 $-1 #
edge $-1 $451 2.8745900698903784e-030 $403 1.5779468010177169 $394 $506 forward 7 unknown #
coedge $-1 $507 $508 $395 $448 forward $509 $-1 #
edge $-1 $450 1.7966187936814945e-030 $402 1.5779468010177098 $447 $510 forward 7 unknown #
coedge $-1 $442 $396 $511 $512 reversed $350 $-1 #
vertex $-1 $448 $513 #
vertex $-1 $446 $514 #
straight-curve $-1 34.861387204070837 -0.76199999999993373 0 0 -1 0 I I #
coedge $-1 $515 $398 $505 $516 forward $435 $-1 #
coedge $-1 $398 $515 $405 $463 reversed $435 $-1 #
straight-curve $-1 33.283440403053127 -1.5239999999999441 0 -1 -2.7836093240705353e-015 0 I I #
coedge $-1 $517 $400 $409 $465 forward $458 $-1 #
coedge $-1 $400 $517 $507 $518 reversed $458 $-1 #
loop $-1 $-1 $456 $519 #
straight-curve $-1 33.283440403053127 -0.76199999999994361 0 -1 -2.7836093240705353e-015 0 I I #
point $-1 33.283440403053127 -0.7619999999999445 0 #
point $-1 33.283440403053127 -1.523999999999945 0 #
coedge $-1 $406 $405 $520 $521 forward $388 $-1 #
edge $-1 $362 0 $522 25.399999999999999 $405 $523 forward 7 unknown #
coedge $-1 $409 $408 $524 $525 reversed $410 $-1 #
edge $-1 $361 0 $526 25.399999999999999 $409 $527 forward 7 unknown #
face $-1 $418 $410 $2 $-1 $528 forward single #
coedge $-1 $529 $530 $414 $468 reversed $531 $-1 #
edge $-1 $469 1.1232731023821326e-030 $421 10.007599999999989 $467 $532 forward 7 unknown #
vertex $-1 $533 $534 #
straight-curve $-1 22.053493602035424 -1.5239999999999747 0 0 0 1 I I #
coedge $-1 $530 $529 $416 $472 forward $531 $-1 #
edge $-1 $473 1.1232731023821326e-030 $425 10.007599999999989 $416 $535 forward 7 unknown #
vertex $-1 $417 $536 #
straight-curve $-1 22.053493602035424 -0.76199999999997492 0 0 0 1 I I #
plane-surface $-1 22.053493602035424 -0.76199999999997559 0 -1.2624893046338418e-015 1 0 -1 -1.2624893046338418e-015 0 forward_v I I I I #
coedge $-1 $423 $419 $530 $479 reversed $477 $-1 #
loop $-1 $-1 $431 $537 #
straight-curve $-1 12.045893602035431 -1.5239999999999898 25.399999999999999 -1 0 0 I I #
edge $-1 $425 -2.6645352591003757e-015 $421 0.76199999999999823 $476 $538 forward 7 unknown #
point $-1 12.045893602035431 -1.5239999999999898 25.399999999999999 #
straight-curve $-1 12.045893602035431 -0.76199999999999002 25.399999999999999 -1 0 0 I I #
point $-1 12.045893602035431 -0.76199999999998891 25.399999999999999 #
straight-curve $-1 10.467946801017707 -0.76199999999999335 25.399999999999999 0 -1 0 I I #
face $-1 $141 $539 $2 $-1 $540 reversed single #
loop $-1 $-1 $541 $432 #
cone-surface $-1 40.957387204070841 -0.76199999999987966 12.699999999999999 8.3340589619003886e-015 -1 0 2.2224999999999997 1.8522446042823612e-014 0 1 I I 0 1 2.2224999999999997 forward I I I I #
face $-1 $542 $543 $2 $-1 $544 reversed single #
loop $-1 $-1 $504 $434 #
plane-surface $-1 33.283440403053135 -1.523999999999943 0 3.2234856085784634e-015 -1 0 1 3.2234856085784634e-015 0 forward_v I I I I #
face $-1 $545 $546 $2 $-1 $547 reversed single #
loop $-1 $548 $549 $437 #
plane-surface $-1 46.037387204070832 -0.76199999999983703 0 -8.3340589619003886e-015 1 0 -1 -8.3340589619003886e-015 0 forward_v I I I I #
coedge $-1 $550 $551 $552 $553 forward $438 $-1 #
coedge $-1 $554 $554 $555 $556 reversed $440 $-1 #
coedge $-1 $443 $441 $504 $557 reversed $391 $-1 #
coedge $-1 $441 $558 $559 $560 forward $391 $-1 #
coedge $-1 $551 $550 $441 $498 reversed $438 $-1 #
edge $-1 $561 -7.1054273576009979e-015 $562 8.0010000000000048 $497 $563 forward 7 unknown #
coedge $-1 $564 $565 $442 $500 forward $566 $-1 #
edge $-1 $502 -2.2204460492503131e-016 $567 0.76199999999999957 $442 $568 forward 7 unknown #
coedge $-1 $558 $443 $565 $569 forward $391 $-1 #
vertex $-1 $500 $570 #
straight-curve $-1 42.862387204070842 -1.5239999999998639 0 -1 -8.3256319806910832e-015 0 I I #
coedge $-1 $571 $445 $495 $557 forward $488 $-1 #
coedge $-1 $445 $571 $453 $516 reversed $488 $-1 #
straight-curve $-1 34.861387204070844 -1.5239999999999378 0 -1 -3.236500691900309e-015 0 I I #
coedge $-1 $572 $447 $457 $518 forward $509 $-1 #
coedge $-1 $447 $572 $573 $574 reversed $509 $-1 #
loop $-1 $-1 $507 $575 #
straight-curve $-1 34.861387204070837 -0.76199999999993795 0 -1 -3.2365006919003236e-015 0 I I #
coedge $-1 $573 $576 $449 $512 forward $491 $-1 #
edge $-1 $567 7.1054273576010113e-015 $450 8.0010000000000048 $511 $577 forward 7 unknown #
point $-1 34.861387204070837 -0.7619999999999385 0 #
point $-1 34.861387204070844 -1.5239999999999387 0 #
coedge $-1 $454 $453 $578 $579 forward $435 $-1 #
edge $-1 $403 0 $580 25.399999999999999 $453 $581 forward 7 unknown #
coedge $-1 $457 $456 $582 $583 reversed $458 $-1 #
edge $-1 $402 0 $584 25.399999999999999 $457 $585 forward 7 unknown #
face $-1 $466 $458 $2 $-1 $586 forward single #
coedge $-1 $587 $588 $462 $521 reversed $589 $-1 #
edge $-1 $522 0 $469 1.5779468010177133 $520 $590 forward 7 unknown #
vertex $-1 $591 $592 #
straight-curve $-1 23.631440403053134 -1.5239999999999709 0 0 0 1 I I #
coedge $-1 $588 $587 $464 $525 forward $589 $-1 #
edge $-1 $526 -1.3123128579934395e-030 $473 1.5779468010177133 $464 $593 forward 7 unknown #
vertex $-1 $465 $594 #
straight-curve $-1 23.63144040305313 -0.76199999999997048 0 0 0 1 I I #
plane-surface $-1 22.05349360203542 -0.76199999999997492 0 -1.9724924380125748e-015 1 0 1 1.9724924380125748e-015 0 forward_v I I I I #
coedge $-1 $471 $467 $588 $533 reversed $531 $-1 #
coedge $-1 $467 $471 $476 $479 forward $531 $-1 #
loop $-1 $-1 $530 $595 #
straight-curve $-1 22.05349360203542 -1.523999999999976 25.399999999999999 -1 -1.2646930813308684e-015 0 I I #
edge $-1 $473 0 $469 0.76200000000000045 $529 $596 forward 7 unknown #
point $-1 22.05349360203542 -1.5239999999999769 25.399999999999999 #
straight-curve $-1 22.05349360203542 -0.76199999999997559 25.399999999999999 -1 -1.2646930813308684e-015 0 I I #
point $-1 22.05349360203542 -0.76199999999997647 25.399999999999999 #
face $-1 $385 $477 $2 $-1 $597 reversed single #
straight-curve $-1 12.045893602035431 -0.76199999999999157 25.399999999999999 0 -1 0 I I #
loop $-1 $-1 $598 $484 #
cone-surface $-1 40.957387204070841 -0.76199999999987966 12.699999999999999 8.3340589619003886e-015 -1 0 2.2224999999999997 1.8522446042823612e-014 0 1 I I 0 1 2.2224999999999997 forward I I I I #
coedge $-1 $555 $599 $600 $601 forward $485 $-1 #
face $-1 $602 $603 $2 $-1 $604 reversed single #
loop $-1 $-1 $605 $487 #
plane-surface $-1 34.091663453949351 -0.80822305089616719 25.399999999999999 0 0 -1 2.7793963987284008e-015 -1 0 forward_v I I I I #
face $-1 $606 $566 $2 $-1 $607 forward single #
loop $-1 $-1 $608 $490 #
plane-surface $-1 46.037387204070839 -1.1429999999998373 12.699999999999999 -1 -8.3340589619003886e-015 0 0 0 1 forward_v I I I I #
loop $-1 $-1 $609 $437 #
coedge $-1 $576 $610 $611 $612 reversed $491 $-1 #
coedge $-1 $497 $493 $613 $614 forward $438 $-1 #
coedge $-1 $493 $497 $615 $616 forward $438 $-1 #
coedge $-1 $610 $573 $493 $553 reversed $491 $-1 #
edge $-1 $617 9.2587138333846523e-030 $618 8.0010000000000048 $552 $619 forward 7 unknown #
coedge $-1 $494 $494 $620 $621 reversed $440 $-1 #
coedge $-1 $622 $541 $494 $556 forward $485 $-1 #
edge $-1 $623 0 $624 3.1415926535897869 $494 $625 forward 7 unknown #
edge $-1 $451 0 $562 25.399999999999999 $504 $626 forward 7 unknown #
coedge $-1 $496 $501 $608 $627 forward $391 $-1 #
coedge $-1 $628 $615 $496 $560 reversed $629 $-1 #
edge $-1 $630 0 $561 1.5707963267949046 $496 $631 forward 7 unknown #
vertex $-1 $616 $632 #
vertex $-1 $614 $633 #
straight-curve $-1 42.862387204070842 -1.5239999999998639 25.399999999999999 -1 -8.3256319806910832e-015 0 I I #
coedge $-1 $634 $499 $576 $635 reversed $566 $-1 #
coedge $-1 $499 $634 $501 $569 reversed $566 $-1 #
loop $-1 $-1 $565 $545 #
vertex $-1 $512 $636 #
straight-curve $-1 42.862387204070842 -1.5239999999998641 0 -9.3247078183740216e-015 1 0 I I #
edge $-1 $502 9.5915010955313811e-048 $637 1.5707963267948974 $501 $638 forward 7 unknown #
point $-1 42.862387204070842 -1.5239999999998644 0 #
coedge $-1 $505 $504 $639 $640 forward $488 $-1 #
coedge $-1 $508 $507 $641 $642 reversed $509 $-1 #
coedge $-1 $552 $511 $508 $574 forward $491 $-1 #
edge $-1 $450 0 $618 25.399999999999999 $508 $643 forward 7 unknown #
face $-1 $519 $509 $2 $-1 $644 reversed single #
coedge $-1 $511 $549 $564 $635 forward $491 $-1 #
straight-curve $-1 42.862387204070842 -0.76199999999986345 0 -1 -8.339508033992235e-015 0 I I #
coedge $-1 $645 $646 $515 $579 reversed $603 $-1 #
edge $-1 $580 2.4723417305155018e-030 $522 9.6519999999999939 $578 $647 forward 7 unknown #
vertex $-1 $648 $649 #
straight-curve $-1 33.283440403053135 -1.523999999999943 0 0 0 1 I I #
coedge $-1 $646 $645 $517 $583 forward $603 $-1 #
edge $-1 $584 2.4723417305155018e-030 $526 9.6519999999999939 $517 $650 forward 7 unknown #
vertex $-1 $518 $651 #
straight-curve $-1 33.283440403053127 -0.76199999999994306 0 0 0 1 I I #
plane-surface $-1 33.283440403053127 -0.76199999999994361 0 -2.7793963987284008e-015 1 0 -1 -2.7793963987284008e-015 0 forward_v I I I I #
coedge $-1 $524 $520 $646 $591 reversed $589 $-1 #
coedge $-1 $520 $524 $529 $533 forward $589 $-1 #
loop $-1 $-1 $588 $602 #
straight-curve $-1 23.631440403053134 -1.5239999999999716 25.399999999999999 -1 -1.9700438994175884e-015 0 I I #
edge $-1 $526 5.5511151231257827e-016 $522 0.76200000000000101 $587 $652 forward 7 unknown #
point $-1 23.631440403053134 -1.5239999999999716 25.399999999999999 #
straight-curve $-1 23.631440403053134 -0.76199999999997181 25.399999999999999 -1 -1.9700438994175884e-015 0 I I #
point $-1 23.631440403053134 -0.76199999999997114 25.399999999999999 #
face $-1 $537 $531 $2 $-1 $653 reversed single #
straight-curve $-1 22.05349360203542 -0.76199999999997647 25.399999999999999 0 -1 0 I I #
plane-surface $-1 11.276169851913936 -1.4777769491037676 25.399999999999999 0 0 -1 0 1 0 forward_v I I I I #
coedge $-1 $620 $654 $622 $655 forward $539 $-1 #
coedge $-1 $541 $622 $609 $656 reversed $485 $-1 #
coedge $-1 $654 $620 $541 $601 reversed $539 $-1 #
edge $-1 $657 -3.3306690738767949e-016 $623 0.76200000000000012 $600 $658 forward 7 unknown #
face $-1 $595 $589 $2 $-1 $659 reversed single #
loop $-1 $-1 $646 $542 #
plane-surface $-1 28.45744040305313 -1.142999999999958 25.399999999999999 0 0 -1 -1 -2.7793963987284008e-015 0 forward_v I I I I #
coedge $-1 $639 $641 $645 $648 forward $543 $-1 #
face $-1 $575 $629 $2 $-1 $660 forward single #
cone-surface $-1 42.862387204070842 -1.5862868296126322 3.1749999999999998 -8.3340589619003886e-015 1 0 0 0 -3.1749999999999998 1 I I 0 1 3.1749999999999998 forward I I I I #
coedge $-1 $661 $662 $558 $627 reversed $546 $-1 #
coedge $-1 $663 $663 $599 $656 forward $548 $-1 #
coedge $-1 $549 $552 $664 $665 forward $491 $-1 #
coedge $-1 $662 $661 $549 $612 forward $546 $-1 #
edge $-1 $666 -4.4408920985006262e-016 $667 19.049999999999997 $549 $668 forward 7 unknown #
coedge $-1 $641 $639 $550 $614 reversed $543 $-1 #
edge $-1 $618 0 $562 0.76199999999999513 $613 $669 forward 7 unknown #
coedge $-1 $559 $664 $551 $616 reversed $629 $-1 #
edge $-1 $561 -2.2204460492503131e-016 $617 0.76199999999999957 $551 $670 forward 7 unknown #
vertex $-1 $665 $671 #
vertex $-1 $574 $672 #
straight-curve $-1 42.862387204070842 -0.76199999999986345 25.399999999999999 -1 -8.339508033992235e-015 0 I I #
coedge $-1 $600 $598 $554 $621 forward $539 $-1 #
edge $-1 $624 0 $623 3.1415926535897869 $554 $673 forward 7 unknown #
coedge $-1 $599 $555 $598 $655 reversed $485 $-1 #
vertex $-1 $621 $674 #
vertex $-1 $621 $675 #
ellipse-curve $-1 40.957387204070848 -1.5239999999998799 12.700000000000006 8.292329452768309e-015 -1 -1.3341102173513229e-031 -2.2225000000000037 -1.8429702208777599e-014 -7.1054273576010019e-015 1 I I #
straight-curve $-1 34.861387204070844 -1.5239999999999305 0 0 0 1 I I #
edge $-1 $637 -4.4408920985006262e-016 $630 19.049999999999997 $608 $676 forward 7 unknown #
coedge $-1 $664 $559 $662 $677 forward $629 $-1 #
loop $-1 $-1 $559 $606 #
vertex $-1 $677 $678 #
ellipse-curve $-1 42.862387204070856 -1.5239999999998639 22.225000000000016 8.1824311106232448e-015 -1 8.4833124617234268e-031 3.1749999999999829 2.5979218776228663e-014 -1.7763568394002505e-014 1 I I #
point $-1 42.862387204070849 -1.5239999999998644 25.399999999999999 #
point $-1 34.861387204070837 -1.5239999999999336 25.399999999999999 #
coedge $-1 $565 $564 $661 $679 reversed $566 $-1 #
edge $-1 $666 0 $567 1.5707963267948974 $576 $680 forward 7 unknown #
point $-1 42.862387204070835 -0.76199999999986456 0 #
vertex $-1 $679 $681 #
ellipse-curve $-1 42.862387204070842 -1.5239999999998639 3.1749999999999976 8.3340589619003886e-015 -1 1.3987061727561037e-016 0 -4.4408920985006262e-016 -3.1749999999999976 1 I I #
coedge $-1 $613 $605 $571 $640 reversed $543 $-1 #
edge $-1 $562 7.1054273576009884e-015 $580 1.5779468010177169 $639 $682 forward 7 unknown #
coedge $-1 $605 $613 $572 $642 forward $543 $-1 #
edge $-1 $618 1.7966187936814945e-030 $584 1.5779468010177098 $572 $683 forward 7 unknown #
straight-curve $-1 34.861387204070844 -0.76199999999993018 0 0 0 1 I I #
plane-surface $-1 33.283440403053127 -0.76199999999994306 0 3.2234856085784634e-015 -1 0 1 3.2234856085784634e-015 0 forward_v I I I I #
coedge $-1 $582 $578 $605 $648 reversed $603 $-1 #
coedge $-1 $578 $582 $587 $591 forward $603 $-1 #
straight-curve $-1 33.283440403053127 -1.5239999999999441 25.399999999999999 -1 -2.7836093240705353e-015 0 I I #
edge $-1 $584 0 $580 0.76200000000000045 $645 $684 forward 7 unknown #
point $-1 33.283440403053127 -1.523999999999945 25.399999999999999 #
straight-curve $-1 33.283440403053127 -0.76199999999994361 25.399999999999999 -1 -2.7836093240705353e-015 0 I I #
point $-1 33.283440403053127 -0.7619999999999445 25.399999999999999 #
straight-curve $-1 23.631440403053134 -0.76199999999997059 25.399999999999999 0 -1 0 I I #
plane-surface $-1 17.049693602035425 -1.1429999999999829 25.399999999999999 0 0 -1 -1 -1.2624893046338418e-015 0 forward_v I I I I #
coedge $-1 $598 $600 $663 $685 reversed $539 $-1 #
edge $-1 $686 -2.2204460492503131e-016 $624 0.76200000000000012 $598 $687 forward 7 unknown #
edge $-1 $657 0 $686 3.1415926535897931 $609 $688 forward 7 unknown #
vertex $-1 $685 $689 #
straight-curve $-1 38.734887204070844 -0.7619999999998982 12.699999999999999 9.32470781837402e-015 -1 0 I I #
plane-surface $-1 22.861716652931648 -1.4777769491037507 25.399999999999999 0 0 -1 -1.9724924380125748e-015 1 0 forward_v I I I I #
cone-surface $-1 42.862387204070842 -1.5862868296126322 22.224999999999998 -8.3340589619003886e-015 1 -9.325519771298711e-030 3.1749999999999998 2.6460637204033733e-014 3.5527136788005001e-015 1 I I 0 1 3.1749999999999998 forward I I I I #
coedge $-1 $611 $608 $634 $679 forward $546 $-1 #
coedge $-1 $608 $611 $628 $677 reversed $546 $-1 #
coedge $-1 $609 $609 $654 $685 forward $548 $-1 #
coedge $-1 $615 $628 $610 $665 reversed $629 $-1 #
edge $-1 $617 0 $667 1.5707963267948988 $610 $690 forward 7 unknown #
vertex $-1 $635 $691 #
vertex $-1 $665 $692 #
straight-curve $-1 46.037387204070839 -0.76199999999983703 3.1750000000000007 0 0 1 I I #
straight-curve $-1 34.861387204070837 -0.7619999999999385 25.399999999999999 0 -1 0 I I #
straight-curve $-1 42.862387204070849 -1.5239999999998641 25.399999999999999 -9.3247078183740216e-015 1 0 I I #
point $-1 42.862387204070842 -0.76199999999986456 25.399999999999999 #
point $-1 34.861387204070837 -0.7619999999999385 25.399999999999999 #
ellipse-curve $-1 40.957387204070848 -1.5239999999998799 12.699999999999992 8.3922370365366015e-015 -1 1.8599778768625841e-031 2.2225000000000037 1.865174681370263e-014 7.1054273576010019e-015 1 I I #
point $-1 38.734887204070844 -1.5239999999998983 12.699999999999999 #
point $-1 43.179887204070852 -1.5239999999998612 12.699999999999999 #
straight-curve $-1 46.037387204070839 -1.5239999999998375 3.1750000000000007 0 0 1 I I #
edge $-1 $630 0 $667 0.76199999999999979 $662 $693 forward 7 unknown #
point $-1 46.037387204070839 -1.5239999999998379 22.224999999999998 #
edge $-1 $637 0 $666 0.76199999999999979 $661 $694 forward 7 unknown #
ellipse-curve $-1 42.862387204070835 -0.76199999999986345 3.1749999999999976 -7.9726251847097935e-015 1 3.0332379311942483e-031 3.1749999999999972 2.5313084961453569e-014 2.6645352591003757e-015 1 I I #
point $-1 46.037387204070839 -1.5239999999998379 3.1750000000000003 #
straight-curve $-1 34.861387204070844 -1.5239999999999378 25.399999999999999 -1 -3.236500691900309e-015 0 I I #
straight-curve $-1 34.861387204070837 -0.76199999999993795 25.399999999999999 -1 -3.2365006919003236e-015 0 I I #
straight-curve $-1 33.283440403053127 -0.7619999999999445 25.399999999999999 0 -1 0 I I #
edge $-1 $686 0 $657 3.1415926535897931 $663 $695 forward 7 unknown #
vertex $-1 $685 $696 #
straight-curve $-1 43.179887204070837 -0.76199999999986112 12.699999999999999 9.32470781837402e-015 -1 0 I I #
ellipse-curve $-1 40.957387204070841 -0.76199999999987966 12.699999999999999 8.1924218689999898e-015 -1 0 -2.2225000000000108 -1.8207657603852567e-014 0 1 I I #
point $-1 38.73488720407083 -0.76199999999989787 12.699999999999999 #
ellipse-curve $-1 42.862387204070842 -0.76199999999986345 22.225000000000005 -8.3340589619003886e-015 1 3.4967654318902639e-016 0 -1.1102230246251565e-015 3.1749999999999936 1 I I #
point $-1 46.037387204070832 -0.76199999999983814 3.1750000000000003 #
point $-1 46.037387204070832 -0.76199999999983814 22.224999999999998 #
straight-curve $-1 46.037387204070839 -1.5239999999998379 22.224999999999998 0 1 0 I I #
straight-curve $-1 46.037387204070839 -1.5239999999998379 3.1750000000000007 0 1 0 I I #
ellipse-curve $-1 40.957387204070841 -0.76199999999987966 12.699999999999999 8.4421908284207745e-015 -1 0 2.2224999999999966 1.8762769116165146e-014 0 1 I I #
point $-1 43.179887204070837 -0.7619999999998609 12.699999999999999 #
End-of-ACIS-data 