600 0 1 0           
101 GICL ACIS Healer - Source: /gicl/data5/repository/PTC/V20/NC_Training_Rel20/DXF/part_25.prt.sat - 6 0 18 ACIS 6.0.3 Solaris 24 Sat Apr 13 20:50:49 2002 
1 9.999999999999999547e-07 1.000000000000000036e-10 
body $-1 $1 $-1 $-1 #
lump $-1 $-1 $2 $0 #
shell $-1 $-1 $-1 $3 $-1 $1 #
face $-1 $4 $5 $2 $-1 $6 forward single #
face $-1 $7 $8 $2 $-1 $9 forward single #
loop $-1 $10 $11 $3 #
plane-surface $-1 0 0 0 0 0 1 1 0 0 forward_v I I I I #
face $-1 $12 $13 $2 $-1 $14 forward single #
loop $-1 $-1 $15 $4 #
plane-surface $-1 298.4499999999999886 65.99113576837417838 -1.587499999999999911 0 -1 0 1 0 0 forward_v I I I I #
loop $-1 $16 $17 $3 #
coedge $-1 $18 $19 $20 $21 forward $5 $-1 #
face $-1 $22 $23 $2 $-1 $24 forward single #
loop $-1 $-1 $25 $7 #
plane-surface $-1 152.3999999999999773 32.99556788418708919 -1.587499999999999911 0.500000000000000111 -0.8660254037844387076 0 0.8660254037844384856 0.5 0 forward_v I I I I #
coedge $-1 $26 $20 $27 $28 forward $8 $-1 #
loop $-1 $-1 $29 $3 #
coedge $-1 $30 $31 $32 $33 reversed $10 $-1 #
coedge $-1 $34 $11 $35 $36 forward $5 $-1 #
coedge $-1 $11 $37 $38 $39 forward $5 $-1 #
coedge $-1 $15 $40 $11 $21 reversed $8 $-1 #
edge $-1 $41 0 $42 177.7999999999999829 $11 $43 forward 7 unknown #
face $-1 $44 $45 $2 $-1 $46 forward single #
loop $-1 $-1 $47 $12 #
plane-surface $-1 317.5 0 -1.587499999999999911 0 -1 0 1 0 0 forward_v I I I I #
coedge $-1 $48 $38 $49 $50 forward $13 $-1 #
coedge $-1 $40 $15 $51 $52 forward $8 $-1 #
coedge $-1 $38 $48 $15 $28 reversed $13 $-1 #
edge $-1 $41 0 $53 3.174999999999999822 $27 $54 forward 7 unknown #
coedge $-1 $55 $56 $57 $58 forward $16 $-1 #
coedge $-1 $59 $17 $60 $61 forward $10 $-1 #
coedge $-1 $17 $62 $63 $64 forward $10 $-1 #
coedge $-1 $65 $66 $17 $33 forward $67 $-1 #
edge $-1 $68 0 $69 1.57079632679493475 $17 $70 forward 7 unknown #
coedge $-1 $71 $18 $72 $73 forward $5 $-1 #
coedge $-1 $74 $75 $18 $36 reversed $76 $-1 #
edge $-1 $42 -4.212241741381823815e-14 $77 131.9822715367484705 $18 $78 forward 7 unknown #
coedge $-1 $19 $79 $47 $80 forward $5 $-1 #
coedge $-1 $25 $27 $19 $39 reversed $13 $-1 #
edge $-1 $81 7.105427357601005014e-15 $41 131.9822715367484705 $19 $82 forward 7 unknown #
coedge $-1 $20 $26 $74 $83 reversed $8 $-1 #
vertex $-1 $39 $84 #
vertex $-1 $36 $85 #
straight-curve $-1 209.5499999999999829 65.99113576837417838 0 1 0 0 I I #
face $-1 $86 $87 $2 $-1 $88 forward single #
loop $-1 $-1 $89 $22 #
plane-surface $-1 0 127 -1.587499999999999911 -1 0 0 0 -1 0 forward_v I I I I #
coedge $-1 $90 $49 $37 $80 reversed $23 $-1 #
coedge $-1 $27 $25 $91 $92 forward $13 $-1 #
coedge $-1 $47 $93 $25 $50 reversed $23 $-1 #
edge $-1 $81 0 $94 3.174999999999999822 $25 $95 forward 7 unknown #
coedge $-1 $91 $96 $26 $52 reversed $97 $-1 #
edge $-1 $53 0 $98 177.7999999999999829 $26 $99 forward 7 unknown #
vertex $-1 $28 $100 #
straight-curve $-1 209.5499999999998977 65.99113576837417838 0 0 0 -1 I I #
coedge $-1 $101 $29 $102 $103 forward $16 $-1 #
coedge $-1 $29 $104 $105 $106 forward $16 $-1 #
coedge $-1 $107 $108 $29 $58 reversed $109 $-1 #
edge $-1 $110 0 $111 71.47560000000001423 $29 $112 forward 7 unknown #
coedge $-1 $113 $30 $114 $115 reversed $10 $-1 #
coedge $-1 $116 $117 $30 $61 reversed $118 $-1 #
edge $-1 $68 0 $119 116.0018000000000029 $30 $120 forward 7 unknown #
coedge $-1 $31 $121 $122 $123 reversed $10 $-1 #
coedge $-1 $124 $125 $31 $64 reversed $126 $-1 #
edge $-1 $127 0 $69 273.9898000000000025 $31 $128 forward 7 unknown #
coedge $-1 $129 $32 $125 $130 forward $67 $-1 #
coedge $-1 $32 $129 $116 $131 reversed $67 $-1 #
loop $-1 $-1 $65 $132 #
vertex $-1 $61 $133 #
vertex $-1 $64 $134 #
ellipse-curve $-1 581.1012000000001763 222.4786000000002844 0 0 0 1 12.6999999999998181 -2.557953848736360669e-13 0 1 I I #
coedge $-1 $135 $34 $136 $137 forward $5 $-1 #
coedge $-1 $138 $139 $34 $73 reversed $140 $-1 #
edge $-1 $77 5.684341886080801487e-14 $141 133.3500000000000227 $34 $142 forward 7 unknown #
coedge $-1 $143 $35 $40 $83 forward $76 $-1 #
coedge $-1 $35 $143 $138 $144 reversed $76 $-1 #
loop $-1 $-1 $74 $145 #
vertex $-1 $73 $146 #
straight-curve $-1 387.3500000000000227 65.99113576837419259 0 0.8660254037844387076 -0.5 0 I I #
coedge $-1 $37 $135 $147 $148 forward $5 $-1 #
edge $-1 $149 0 $81 95.25 $37 $150 forward 7 unknown #
vertex $-1 $39 $151 #
straight-curve $-1 95.25 -1.421085471520200372e-14 0 0.8660254037844385966 0.5 0 I I #
edge $-1 $42 -0 $98 3.174999999999999822 $74 $152 forward 7 unknown #
point $-1 209.5499999999999829 65.99113576837417838 0 #
point $-1 387.3499999999999659 65.99113576837417838 0 #
face $-1 $153 $154 $2 $-1 $155 forward single #
loop $-1 $-1 $156 $44 #
plane-surface $-1 317.5 254 -1.587499999999999911 0 1 0 -1 0 0 forward_v I I I I #
coedge $-1 $157 $147 $158 $159 forward $45 $-1 #
coedge $-1 $93 $47 $160 $161 forward $23 $-1 #
coedge $-1 $162 $51 $48 $92 reversed $97 $-1 #
edge $-1 $94 7.105427357601005014e-15 $53 131.9822715367484705 $48 $163 forward 7 unknown #
coedge $-1 $49 $90 $162 $164 forward $23 $-1 #
vertex $-1 $92 $165 #
straight-curve $-1 95.25 -1.421085471520200372e-14 0 0 0 -1 I I #
coedge $-1 $51 $166 $143 $167 reversed $97 $-1 #
loop $-1 $168 $162 $169 #
vertex $-1 $167 $170 #
straight-curve $-1 209.5499999999999829 65.99113576837417838 -3.174999999999999822 1 0 0 I I #
point $-1 209.5499999999999829 65.99113576837417838 -3.174999999999999822 #
coedge $-1 $104 $55 $171 $172 forward $16 $-1 #
coedge $-1 $173 $174 $55 $103 reversed $175 $-1 #
edge $-1 $111 0 $176 99.84739999999999327 $55 $177 forward 7 unknown #
coedge $-1 $56 $101 $178 $179 forward $16 $-1 #
coedge $-1 $180 $181 $56 $106 reversed $182 $-1 #
edge $-1 $183 0 $110 127.7366000000000099 $56 $184 forward 7 unknown #
coedge $-1 $185 $57 $181 $186 forward $109 $-1 #
coedge $-1 $57 $185 $173 $187 reversed $109 $-1 #
loop $-1 $-1 $107 $188 #
vertex $-1 $106 $189 #
vertex $-1 $103 $190 #
straight-curve $-1 174.4896770957148533 197.2015416748241137 0 0.5150191329967780396 -0.8571786818669996366 0 I I #
coedge $-1 $191 $59 $192 $193 forward $10 $-1 #
coedge $-1 $194 $195 $59 $115 forward $196 $-1 #
edge $-1 $197 0 $119 1.570796326794905662 $59 $198 forward 7 unknown #
coedge $-1 $199 $60 $66 $131 forward $118 $-1 #
coedge $-1 $60 $199 $194 $200 reversed $118 $-1 #
loop $-1 $-1 $116 $201 #
vertex $-1 $115 $202 #
straight-curve $-1 593.8011999999999944 222.4786000000000286 0 0 -1 0 I I #
coedge $-1 $62 $191 $203 $204 forward $10 $-1 #
coedge $-1 $205 $206 $62 $123 forward $207 $-1 #
edge $-1 $127 0 $208 1.570796326794883235 $62 $209 forward 7 unknown #
coedge $-1 $210 $63 $206 $211 forward $126 $-1 #
coedge $-1 $63 $210 $65 $130 reversed $126 $-1 #
loop $-1 $-1 $124 $212 #
vertex $-1 $64 $213 #
straight-curve $-1 307.1113999999999464 235.1786000000000172 0 1 0 0 I I #
coedge $-1 $66 $65 $214 $215 reversed $67 $-1 #
edge $-1 $69 2.060827682603200457e-26 $216 3.174999999999999822 $125 $217 forward 7 unknown #
edge $-1 $68 0 $218 3.174999999999999822 $116 $219 forward 7 unknown #
face $-1 $212 $67 $2 $-1 $220 reversed single #
point $-1 593.8011999999999944 222.4786000000000286 0 #
point $-1 581.1011999999999489 235.1786000000000172 0 #
coedge $-1 $79 $71 $221 $222 forward $5 $-1 #
coedge $-1 $223 $224 $71 $137 reversed $154 $-1 #
edge $-1 $141 0 $225 254 $71 $226 forward 7 unknown #
coedge $-1 $227 $72 $75 $144 forward $140 $-1 #
coedge $-1 $72 $227 $223 $228 reversed $140 $-1 #
loop $-1 $-1 $227 $153 #
vertex $-1 $137 $229 #
straight-curve $-1 501.6499999999999773 0 0 1 0 0 I I #
coedge $-1 $75 $74 $96 $167 forward $76 $-1 #
edge $-1 $77 0 $230 3.174999999999999822 $138 $231 forward 7 unknown #
face $-1 $232 $76 $2 $-1 $233 forward single #
point $-1 501.6500000000000341 -2.842170943040400743e-14 0 #
coedge $-1 $89 $160 $79 $148 reversed $45 $-1 #
edge $-1 $234 0 $149 254 $79 $235 forward 7 unknown #
vertex $-1 $80 $236 #
straight-curve $-1 0 0 0 1 0 0 I I #
point $-1 95.25 0 0 #
straight-curve $-1 387.3500000000000227 65.99113576837419259 0 0 0 -1 I I #
face $-1 $169 $140 $2 $-1 $237 forward single #
loop $-1 $-1 $223 $86 #
plane-surface $-1 635 127 -1.587499999999999911 1 0 0 0 1 0 forward_v I I I I #
coedge $-1 $238 $221 $224 $239 forward $87 $-1 #
coedge $-1 $160 $89 $240 $241 forward $45 $-1 #
coedge $-1 $221 $238 $89 $159 reversed $87 $-1 #
edge $-1 $234 0 $242 3.174999999999999822 $89 $243 forward 7 unknown #
coedge $-1 $147 $157 $90 $161 reversed $45 $-1 #
edge $-1 $149 0 $244 3.174999999999999822 $90 $245 forward 7 unknown #
coedge $-1 $240 $91 $93 $164 reversed $97 $-1 #
straight-curve $-1 95.25 -1.421085471520200372e-14 -3.174999999999999822 0.8660254037844385966 0.5 0 I I #
edge $-1 $244 0 $94 95.25 $93 $246 forward 7 unknown #
point $-1 95.25 0 -3.174999999999999822 #
coedge $-1 $96 $247 $227 $248 reversed $97 $-1 #
edge $-1 $98 -4.212241741381823815e-14 $230 131.9822715367484705 $143 $249 forward 7 unknown #
loop $-1 $250 $251 $169 #
face $-1 $145 $97 $2 $-1 $252 reversed single #
point $-1 387.3499999999999659 65.99113576837417838 -3.174999999999999822 #
coedge $-1 $253 $254 $101 $172 reversed $255 $-1 #
edge $-1 $176 0 $256 107.0355999999999881 $101 $257 forward 7 unknown #
coedge $-1 $258 $102 $108 $187 forward $175 $-1 #
coedge $-1 $102 $258 $253 $259 reversed $175 $-1 #
loop $-1 $-1 $173 $260 #
vertex $-1 $172 $261 #
straight-curve $-1 211.3009786381393553 135.9341810811712037 0 -0.8249646824868686057 -0.5651842820260839506 0 I I #
coedge $-1 $262 $263 $104 $179 reversed $264 $-1 #
edge $-1 $256 1.328913066120933612e-14 $183 144.2974000000000103 $104 $265 forward 7 unknown #
coedge $-1 $266 $105 $263 $267 forward $182 $-1 #
coedge $-1 $105 $266 $107 $186 reversed $182 $-1 #
loop $-1 $-1 $180 $268 #
vertex $-1 $106 $269 #
straight-curve $-1 49.03238413802128548 221.2245852640002113 0 0.9821561945260289805 -0.1880670347353546046 0 I I #
coedge $-1 $108 $107 $270 $271 forward $109 $-1 #
edge $-1 $110 0 $272 3.174999999999999822 $181 $273 forward 7 unknown #
edge $-1 $111 0 $274 3.174999999999999822 $173 $275 forward 7 unknown #
face $-1 $268 $109 $2 $-1 $276 forward single #
point $-1 174.4896770957148533 197.2015416748241137 0 #
point $-1 211.3009786381393553 135.9341810811712037 0 #
coedge $-1 $121 $113 $277 $278 reversed $10 $-1 #
coedge $-1 $279 $280 $113 $193 reversed $281 $-1 #
edge $-1 $197 0 $282 273.9898000000000025 $113 $283 forward 7 unknown #
coedge $-1 $284 $114 $117 $200 forward $196 $-1 #
coedge $-1 $114 $284 $279 $285 reversed $196 $-1 #
loop $-1 $-1 $194 $286 #
vertex $-1 $193 $287 #
ellipse-curve $-1 581.1011999999999489 106.476799999999912 0 0 0 1 0 -12.69999999999988916 0 1 I I #
coedge $-1 $117 $116 $288 $289 forward $118 $-1 #
edge $-1 $119 0 $290 3.174999999999999822 $194 $291 forward 7 unknown #
face $-1 $132 $118 $2 $-1 $292 forward single #
point $-1 593.8011999999999944 106.4768000000000256 0 #
coedge $-1 $293 $294 $121 $204 reversed $295 $-1 #
edge $-1 $296 0 $208 116.0018000000000029 $121 $297 forward 7 unknown #
coedge $-1 $298 $122 $294 $299 forward $207 $-1 #
coedge $-1 $122 $298 $124 $211 reversed $207 $-1 #
loop $-1 $-1 $205 $232 #
vertex $-1 $123 $300 #
ellipse-curve $-1 307.1114000000000033 222.4785999999999149 0 0 0 1 -5.684341886080801487e-14 12.70000000000010232 0 1 I I #
coedge $-1 $125 $124 $301 $302 forward $126 $-1 #
edge $-1 $127 0 $303 3.174999999999999822 $124 $304 forward 7 unknown #
face $-1 $305 $126 $2 $-1 $306 forward single #
point $-1 307.1113999999999464 235.1786000000000172 0 #
coedge $-1 $301 $288 $129 $215 forward $168 $-1 #
edge $-1 $218 0 $216 1.570796326794905662 $129 $307 forward 7 unknown #
vertex $-1 $130 $308 #
straight-curve $-1 581.1011999999999489 235.178600000000273 0 0 -8.056547555075152549e-14 -1 I I #
vertex $-1 $289 $309 #
straight-curve $-1 593.8011999999999944 222.4786000000000286 0 0 0 -1 I I #
cone-surface $-1 581.1012000000001763 222.4786000000002844 0 0 0 1 12.69999999999999929 -2.55795384873639702e-13 0 1 I I 0 1 12.69999999999999929 forward I I I I #
coedge $-1 $156 $158 $135 $222 reversed $87 $-1 #
edge $-1 $225 0 $234 635 $135 $310 forward 7 unknown #
coedge $-1 $311 $136 $139 $228 forward $154 $-1 #
coedge $-1 $136 $311 $156 $239 reversed $154 $-1 #
vertex $-1 $222 $312 #
straight-curve $-1 635 0 0 0 1 0 I I #
coedge $-1 $139 $138 $166 $248 forward $140 $-1 #
edge $-1 $141 0 $313 3.174999999999999822 $139 $314 forward 7 unknown #
point $-1 635 0 0 #
vertex $-1 $144 $315 #
straight-curve $-1 501.6500000000000341 0 0 0 0 -1 I I #
face $-1 $316 $207 $2 $-1 $317 reversed single #
plane-surface $-1 444.5 32.99556788418708919 -1.587499999999999911 -0.4999999999999999445 -0.8660254037844387076 0 0.8660254037844388186 -0.5 0 forward_v I I I I #
vertex $-1 $148 $318 #
straight-curve $-1 0 254 0 0 -1 0 I I #
point $-1 0 0 0 #
plane-surface $-1 317.5 0 -1.587499999999999911 0 -1 0 1 0 0 forward_v I I I I #
coedge $-1 $158 $156 $319 $320 forward $87 $-1 #
edge $-1 $225 0 $321 3.174999999999999822 $156 $322 forward 7 unknown #
coedge $-1 $319 $162 $157 $241 reversed $97 $-1 #
edge $-1 $242 0 $244 254 $157 $323 forward 7 unknown #
vertex $-1 $241 $324 #
straight-curve $-1 0 254 0 0 0 -1 I I #
vertex $-1 $164 $325 #
straight-curve $-1 0 0 0 0 0 -1 I I #
straight-curve $-1 0 0 -3.174999999999999822 1 0 0 I I #
coedge $-1 $166 $319 $311 $326 reversed $97 $-1 #
edge $-1 $230 5.684341886080801487e-14 $313 133.3500000000000227 $227 $327 forward 7 unknown #
straight-curve $-1 387.3500000000000227 65.99113576837419259 -3.174999999999999822 0.8660254037844387076 -0.5 0 I I #
loop $-1 $-1 $328 $169 #
coedge $-1 $329 $301 $298 $330 forward $168 $-1 #
plane-surface $-1 0 0 -3.174999999999999822 0 0 1 1 0 0 forward_v I I I I #
coedge $-1 $331 $171 $174 $259 forward $255 $-1 #
coedge $-1 $171 $331 $262 $332 reversed $255 $-1 #
loop $-1 $-1 $253 $333 #
vertex $-1 $179 $334 #
straight-curve $-1 128.9303999999999917 79.50199999999999534 0 -1 0 0 I I #
coedge $-1 $174 $173 $335 $336 forward $175 $-1 #
edge $-1 $176 0 $337 3.174999999999999822 $253 $338 forward 7 unknown #
face $-1 $188 $175 $2 $-1 $339 forward single #
point $-1 128.9303999999999917 79.50199999999999534 0 #
coedge $-1 $340 $178 $254 $332 forward $264 $-1 #
coedge $-1 $178 $340 $180 $267 reversed $264 $-1 #
loop $-1 $-1 $262 $305 #
straight-curve $-1 21.89480000000000359 79.50199999999998113 0 0.1880670347353541605 0.9821561945260292026 0 I I #
coedge $-1 $181 $180 $341 $342 forward $182 $-1 #
edge $-1 $183 0 $343 3.174999999999999822 $180 $344 forward 7 unknown #
face $-1 $-1 $182 $2 $-1 $345 forward single #
point $-1 49.03238413802128548 221.2245852640002113 0 #
coedge $-1 $341 $335 $185 $271 reversed $250 $-1 #
edge $-1 $272 0 $274 71.47560000000001423 $270 $346 forward 7 unknown #
vertex $-1 $342 $347 #
straight-curve $-1 174.4896770957148533 197.2015416748241137 0 0 0 -1 I I #
vertex $-1 $271 $348 #
straight-curve $-1 211.3009786381393553 135.9341810811712037 0 0 0 -1 I I #
plane-surface $-1 192.8953278669271185 166.5678613779976445 -1.587499999999999911 -0.8571786818669997476 -0.5150191329967781506 0 0.5150191329967780396 -0.8571786818669996366 0 forward_v I I I I #
coedge $-1 $349 $350 $191 $278 forward $351 $-1 #
edge $-1 $296 0 $282 1.570796326794884346 $191 $352 forward 7 unknown #
coedge $-1 $353 $192 $195 $285 forward $281 $-1 #
coedge $-1 $192 $353 $349 $354 reversed $281 $-1 #
loop $-1 $-1 $279 $355 #
vertex $-1 $278 $356 #
straight-curve $-1 581.1011999999999489 93.77680000000002281 0 -1 0 0 I I #
coedge $-1 $195 $194 $357 $358 reversed $196 $-1 #
edge $-1 $197 0 $359 3.174999999999999822 $279 $360 forward 7 unknown #
face $-1 $201 $196 $2 $-1 $361 reversed single #
point $-1 581.1011999999999489 93.77680000000002281 0 #
coedge $-1 $214 $357 $199 $289 reversed $168 $-1 #
edge $-1 $218 0 $290 116.0018000000000029 $199 $362 forward 7 unknown #
vertex $-1 $358 $363 #
straight-curve $-1 593.8011999999999944 106.4768000000000256 0 0 0 -1 I I #
plane-surface $-1 593.8011999999999944 164.4777000000000271 -1.587499999999999911 -1 0 0 0 -1 0 forward_v I I I I #
coedge $-1 $364 $203 $350 $365 forward $295 $-1 #
coedge $-1 $203 $364 $205 $299 reversed $295 $-1 #
loop $-1 $-1 $293 $316 #
vertex $-1 $204 $366 #
straight-curve $-1 294.4113999999999578 106.4768000000000256 0 0 1 0 I I #
coedge $-1 $206 $205 $251 $330 reversed $207 $-1 #
edge $-1 $208 1.017692682767012381e-27 $367 3.174999999999999822 $205 $368 forward 7 unknown #
point $-1 294.4113999999999578 222.4786000000000286 0 #
coedge $-1 $251 $214 $210 $302 reversed $168 $-1 #
edge $-1 $303 0 $216 273.9898000000000025 $210 $369 forward 7 unknown #
vertex $-1 $302 $370 #
straight-curve $-1 307.1113999999999464 235.1786000000000172 0 0 0 -1 I I #
face $-1 $333 $264 $2 $-1 $371 forward single #
plane-surface $-1 444.1062999999999192 235.1786000000000172 -1.587499999999999911 0 -1 0 1 0 0 forward_v I I I I #
ellipse-curve $-1 581.1012000000000626 222.4786000000000286 -3.174999999999999822 0 0 1 12.69999999999993179 0 0 1 I I #
point $-1 581.1011999999999489 235.1786000000000172 -3.174999999999999822 #
point $-1 593.8011999999999944 222.4786000000000286 -3.174999999999999822 #
straight-curve $-1 635 254 0 -1 0 0 I I #
coedge $-1 $224 $223 $247 $326 forward $154 $-1 #
point $-1 635 254 0 #
vertex $-1 $228 $372 #
straight-curve $-1 635 0 0 0 0 -1 I I #
point $-1 501.6500000000000341 -2.842170943040400743e-14 -3.174999999999999822 #
face $-1 $373 $295 $2 $-1 $374 forward single #
cone-surface $-1 307.1114000000000033 222.4785999999999149 0 0 0 1 -5.684341886080754786e-14 12.69999999999999929 0 1 I I 0 1 12.69999999999999929 forward I I I I #
point $-1 0 254 0 #
coedge $-1 $247 $240 $238 $320 reversed $97 $-1 #
edge $-1 $321 0 $242 635 $238 $375 forward 7 unknown #
vertex $-1 $320 $376 #
straight-curve $-1 635 254 0 0 0 -1 I I #
straight-curve $-1 0 254 -3.174999999999999822 0 -1 0 I I #
point $-1 0 254 -3.174999999999999822 #
point $-1 0 0 -3.174999999999999822 #
edge $-1 $313 0 $321 254 $311 $377 forward 7 unknown #
straight-curve $-1 501.6499999999999773 0 -3.174999999999999822 1 0 0 I I #
coedge $-1 $378 $341 $340 $379 reversed $250 $-1 #
coedge $-1 $380 $251 $364 $381 reversed $168 $-1 #
edge $-1 $303 0 $367 1.570796326794896558 $298 $382 forward 7 unknown #
coedge $-1 $254 $253 $378 $383 forward $255 $-1 #
edge $-1 $256 0 $384 3.174999999999999822 $262 $385 forward 7 unknown #
face $-1 $260 $255 $2 $-1 $386 forward single #
point $-1 21.89480000000000004 79.50199999999999534 0 #
coedge $-1 $270 $378 $258 $336 reversed $250 $-1 #
edge $-1 $274 0 $337 99.84739999999999327 $335 $387 forward 7 unknown #
vertex $-1 $336 $388 #
straight-curve $-1 128.9303999999999917 79.50199999999999534 0 0 0 -1 I I #
plane-surface $-1 170.1156893190696735 107.7180905405855924 -1.587499999999999911 -0.5651842820260839506 0.8249646824868686057 0 -0.8249646824868686057 -0.5651842820260839506 0 forward_v I I I I #
coedge $-1 $263 $262 $328 $379 forward $264 $-1 #
coedge $-1 $328 $270 $266 $342 reversed $250 $-1 #
edge $-1 $343 0 $272 127.7366000000000099 $341 $389 forward 7 unknown #
vertex $-1 $342 $390 #
straight-curve $-1 49.03238413802129259 221.2245852640002113 0 0 0 -1 I I #
plane-surface $-1 111.7610306168680694 209.2130634694121625 -1.587499999999999911 -0.1880670347353546046 -0.9821561945260290916 0 0.9821561945260290916 -0.1880670347353546046 0 forward_v I I I I #
straight-curve $-1 174.4896770957148533 197.2015416748241137 -3.174999999999999822 0.5150191329967780396 -0.8571786818669996366 0 I I #
point $-1 174.4896770957148533 197.2015416748241137 -3.174999999999999822 #
point $-1 211.3009786381393553 135.9341810811712037 -3.174999999999999822 #
coedge $-1 $391 $277 $280 $354 forward $351 $-1 #
coedge $-1 $277 $391 $293 $365 reversed $351 $-1 #
loop $-1 $-1 $349 $373 #
ellipse-curve $-1 307.1114000000000033 106.4768000000001251 0 0 0 1 -12.70000000000004547 -9.947598300641402602e-14 0 1 I I #
coedge $-1 $280 $279 $392 $393 forward $281 $-1 #
edge $-1 $282 3.116683840973975664e-27 $394 3.174999999999999822 $349 $395 forward 7 unknown #
face $-1 $286 $281 $2 $-1 $396 forward single #
point $-1 307.1113999999999464 93.77680000000002281 0 #
coedge $-1 $288 $392 $284 $358 forward $168 $-1 #
edge $-1 $359 0 $290 1.570796326794892117 $284 $397 forward 7 unknown #
vertex $-1 $393 $398 #
straight-curve $-1 581.1011999999999489 93.77680000000002281 0 0 0 -1 I I #
cone-surface $-1 581.1011999999999489 106.476799999999912 0 0 0 1 0 -12.69999999999999929 0 1 I I 0 1 12.69999999999999929 forward I I I I #
straight-curve $-1 593.8011999999999944 222.4786000000000286 -3.174999999999999822 0 -1 0 I I #
point $-1 593.8011999999999944 106.4768000000000256 -3.174999999999999822 #
coedge $-1 $294 $293 $329 $381 forward $295 $-1 #
edge $-1 $296 0 $399 3.174999999999999822 $293 $400 forward 7 unknown #
point $-1 294.4113999999999578 106.4768000000000256 0 #
vertex $-1 $330 $401 #
straight-curve $-1 294.4114000000000146 222.4786000000000286 0 -1.790343901127811467e-14 0 -1 I I #
straight-curve $-1 307.1113999999999464 235.1786000000000172 -3.174999999999999822 1 0 0 I I #
point $-1 307.1113999999999464 235.1786000000000172 -3.174999999999999822 #
plane-surface $-1 35.46359206901064454 150.363292632000082 -1.587499999999999911 0.9821561945260292026 -0.1880670347353541605 0 0.1880670347353541605 0.9821561945260292026 0 forward_v I I I I #
point $-1 635 0 -3.174999999999999822 #
face $-1 $355 $351 $2 $-1 $402 reversed single #
plane-surface $-1 294.4113999999999578 164.4777000000000271 -1.587499999999999911 1 0 0 0 1 0 forward_v I I I I #
straight-curve $-1 635 254 -3.174999999999999822 -1 0 0 I I #
point $-1 635 254 -3.174999999999999822 #
straight-curve $-1 635 0 -3.174999999999999822 0 1 0 I I #
coedge $-1 $335 $328 $331 $383 reversed $250 $-1 #
edge $-1 $384 1.395727898804507849e-14 $343 144.2974000000000103 $328 $403 forward 7 unknown #
coedge $-1 $392 $329 $391 $404 forward $168 $-1 #
edge $-1 $399 0 $367 116.0018000000000029 $364 $405 forward 7 unknown #
ellipse-curve $-1 307.1113999999999464 222.4786000000000286 -3.174999999999999822 0 0 1 0 12.69999999999998863 0 1 I I #
edge $-1 $337 0 $384 107.0355999999999881 $378 $406 forward 7 unknown #
vertex $-1 $383 $407 #
straight-curve $-1 21.89480000000000359 79.50199999999999534 0 0 0 -1 I I #
plane-surface $-1 75.41259999999999764 79.50199999999999534 -1.587499999999999911 0 1 0 -1 0 0 forward_v I I I I #
straight-curve $-1 211.3009786381393553 135.9341810811712037 -3.174999999999999822 -0.8249646824868686057 -0.5651842820260839506 0 I I #
point $-1 128.9303999999999917 79.50199999999999534 -3.174999999999999822 #
straight-curve $-1 49.03238413802128548 221.2245852640002113 -3.174999999999999822 0.9821561945260289805 -0.1880670347353546046 0 I I #
point $-1 49.03238413802128548 221.2245852640002113 -3.174999999999999822 #
coedge $-1 $350 $349 $380 $404 reversed $351 $-1 #
coedge $-1 $357 $380 $353 $393 reversed $168 $-1 #
edge $-1 $359 0 $394 273.9898000000000025 $353 $408 forward 7 unknown #
vertex $-1 $404 $409 #
straight-curve $-1 307.1113999999999464 93.77680000000012228 0 0 -3.133101826973670225e-14 -1 I I #
plane-surface $-1 444.1062999999999192 93.77680000000002281 -1.587499999999999911 0 1 0 -1 0 0 forward_v I I I I #
ellipse-curve $-1 581.1011999999999489 106.4768000000000825 -3.174999999999999822 0 0 1 0 -12.70000000000005969 0 1 I I #
point $-1 581.1011999999999489 93.77680000000002281 -3.174999999999999822 #
vertex $-1 $381 $410 #
straight-curve $-1 294.4113999999999578 106.4768000000000256 0 0 0 -1 I I #
point $-1 294.4113999999999578 222.4786000000000286 -3.174999999999999822 #
cone-surface $-1 307.1114000000000033 106.4768000000001251 0 0 0 1 -12.69999999999999929 -9.947598300641365999e-14 0 1 I I 0 1 12.69999999999999929 forward I I I I #
straight-curve $-1 21.89480000000000359 79.50199999999998113 -3.174999999999999822 0.1880670347353541605 0.9821561945260292026 0 I I #
edge $-1 $399 0 $394 1.570796326794895448 $391 $411 forward 7 unknown #
straight-curve $-1 294.4113999999999578 106.4768000000000256 -3.174999999999999822 0 1 0 I I #
straight-curve $-1 128.9303999999999917 79.50199999999999534 -3.174999999999999822 -1 0 0 I I #
point $-1 21.89480000000000359 79.50199999999999534 -3.174999999999999822 #
straight-curve $-1 581.1011999999999489 93.77680000000002281 -3.174999999999999822 -1 0 0 I I #
point $-1 307.1113999999999464 93.77680000000002281 -3.174999999999999822 #
point $-1 294.4113999999999578 106.4768000000000256 -3.174999999999999822 #
ellipse-curve $-1 307.1113999999999464 106.4768000000000399 -3.174999999999999822 0 0 1 -12.69999999999998863 -1.421085471520200372e-14 0 1 I I #
End-of-ACIS-data 