600 0 1 0           
104 GICL Pro/E ACIS Translator - Source: f:/data5/repository/PTC/V20/NC_Training_Rel20/DXF/part_25.prt - 6 0 13 ACIS 6.0.3 NT 24 Thu Apr 04 13:13:43 2002 
1 9.9999999999999995e-007 1e-010 
body $-1 $1 $-1 $-1 #
lump $-1 $-1 $2 $0 #
shell $-1 $-1 $-1 $3 $-1 $1 #
face $-1 $4 $5 $2 $-1 $6 forward single #
face $-1 $7 $8 $2 $-1 $9 forward single #
loop $-1 $10 $11 $3 #
plane-surface $-1 0 0 0 0 0 1 1 0 0 forward_v I I I I #
face $-1 $12 $13 $2 $-1 $14 forward single #
loop $-1 $-1 $15 $4 #
plane-surface $-1 298.44999999999999 65.991135768374178 -1.5874999999999999 0 -1 0 1 0 0 forward_v I I I I #
loop $-1 $16 $17 $3 #
coedge $-1 $18 $19 $20 $21 forward $5 $-1 #
face $-1 $22 $23 $2 $-1 $24 forward single #
loop $-1 $-1 $25 $7 #
plane-surface $-1 152.39999999999998 32.995567884187089 -1.5874999999999999 0.50000000000000011 -0.86602540378443871 0 0.86602540378443849 0.5 0 forward_v I I I I #
coedge $-1 $26 $20 $27 $28 forward $8 $-1 #
loop $-1 $-1 $29 $3 #
coedge $-1 $30 $31 $32 $33 reversed $10 $-1 #
coedge $-1 $34 $11 $35 $36 forward $5 $-1 #
coedge $-1 $11 $37 $38 $39 forward $5 $-1 #
coedge $-1 $15 $40 $11 $21 reversed $8 $-1 #
edge $-1 $41 0 $42 177.79999999999998 $11 $43 forward 7 unknown #
face $-1 $44 $45 $2 $-1 $46 forward single #
loop $-1 $-1 $47 $12 #
plane-surface $-1 317.5 0 -1.5874999999999999 0 -1 0 1 0 0 forward_v I I I I #
coedge $-1 $48 $38 $49 $50 forward $13 $-1 #
coedge $-1 $40 $15 $51 $52 forward $8 $-1 #
coedge $-1 $38 $48 $15 $28 reversed $13 $-1 #
edge $-1 $41 0 $53 3.1749999999999998 $27 $54 forward 7 unknown #
coedge $-1 $55 $56 $57 $58 forward $16 $-1 #
coedge $-1 $59 $17 $60 $61 forward $10 $-1 #
coedge $-1 $17 $62 $63 $64 forward $10 $-1 #
coedge $-1 $65 $66 $17 $33 forward $67 $-1 #
edge $-1 $68 0 $69 1.5707963267949347 $17 $70 forward 7 unknown #
coedge $-1 $71 $18 $72 $73 forward $5 $-1 #
coedge $-1 $74 $75 $18 $36 reversed $76 $-1 #
edge $-1 $42 -4.2122417413818238e-014 $77 131.98227153674847 $18 $78 forward 7 unknown #
coedge $-1 $19 $79 $47 $80 forward $5 $-1 #
coedge $-1 $25 $27 $19 $39 reversed $13 $-1 #
edge $-1 $81 7.105427357601005e-015 $41 131.98227153674847 $19 $82 forward 7 unknown #
coedge $-1 $20 $26 $74 $83 reversed $8 $-1 #
vertex $-1 $39 $84 #
vertex $-1 $36 $85 #
straight-curve $-1 209.54999999999998 65.991135768374178 0 1 0 0 I I #
face $-1 $86 $87 $2 $-1 $88 forward single #
loop $-1 $-1 $89 $22 #
plane-surface $-1 0 127 -1.5874999999999999 -1 0 0 0 -1 0 forward_v I I I I #
coedge $-1 $90 $49 $37 $80 reversed $23 $-1 #
coedge $-1 $27 $25 $91 $92 forward $13 $-1 #
coedge $-1 $47 $93 $25 $50 reversed $23 $-1 #
edge $-1 $81 0 $94 3.1749999999999998 $25 $95 forward 7 unknown #
coedge $-1 $91 $96 $26 $52 reversed $97 $-1 #
edge $-1 $53 0 $98 177.79999999999998 $26 $99 forward 7 unknown #
vertex $-1 $28 $100 #
straight-curve $-1 209.5499999999999 65.991135768374178 0 0 0 -1 I I #
coedge $-1 $101 $29 $102 $103 forward $16 $-1 #
coedge $-1 $29 $104 $105 $106 forward $16 $-1 #
coedge $-1 $107 $108 $29 $58 reversed $109 $-1 #
edge $-1 $110 0 $111 71.475600000000014 $29 $112 forward 7 unknown #
coedge $-1 $113 $30 $114 $115 reversed $10 $-1 #
coedge $-1 $116 $117 $30 $61 reversed $118 $-1 #
edge $-1 $68 0 $119 116.0018 $30 $120 forward 7 unknown #
coedge $-1 $31 $121 $122 $123 reversed $10 $-1 #
coedge $-1 $124 $125 $31 $64 reversed $126 $-1 #
edge $-1 $127 0 $69 273.9898 $31 $128 forward 7 unknown #
coedge $-1 $129 $32 $125 $130 forward $67 $-1 #
coedge $-1 $32 $129 $116 $131 reversed $67 $-1 #
loop $-1 $-1 $65 $132 #
vertex $-1 $61 $133 #
vertex $-1 $64 $134 #
ellipse-curve $-1 581.10120000000018 222.47860000000028 0 0 0 1 12.699999999999818 -2.5579538487363607e-013 0 1 I I #
coedge $-1 $135 $34 $136 $137 forward $5 $-1 #
coedge $-1 $138 $139 $34 $73 reversed $140 $-1 #
edge $-1 $77 5.6843418860808015e-014 $141 133.35000000000002 $34 $142 forward 7 unknown #
coedge $-1 $143 $35 $40 $83 forward $76 $-1 #
coedge $-1 $35 $143 $138 $144 reversed $76 $-1 #
loop $-1 $-1 $74 $145 #
vertex $-1 $73 $146 #
straight-curve $-1 387.35000000000002 65.991135768374193 0 0.86602540378443871 -0.5 0 I I #
coedge $-1 $37 $135 $147 $148 forward $5 $-1 #
edge $-1 $149 0 $81 95.25 $37 $150 forward 7 unknown #
vertex $-1 $39 $151 #
straight-curve $-1 95.25 -1.4210854715202004e-014 0 0.8660254037844386 0.5 0 I I #
edge $-1 $42 0 $98 3.1749999999999998 $74 $152 forward 7 unknown #
point $-1 209.54999999999998 65.991135768374178 0 #
point $-1 387.34999999999997 65.991135768374178 0 #
face $-1 $153 $154 $2 $-1 $155 forward single #
loop $-1 $-1 $156 $44 #
plane-surface $-1 317.5 254 -1.5874999999999999 0 1 0 -1 0 0 forward_v I I I I #
coedge $-1 $157 $147 $158 $159 forward $45 $-1 #
coedge $-1 $93 $47 $160 $161 forward $23 $-1 #
coedge $-1 $162 $51 $48 $92 reversed $97 $-1 #
edge $-1 $94 7.105427357601005e-015 $53 131.98227153674847 $48 $163 forward 7 unknown #
coedge $-1 $49 $90 $162 $164 forward $23 $-1 #
vertex $-1 $92 $165 #
straight-curve $-1 95.25 -1.4210854715202004e-014 0 0 0 -1 I I #
coedge $-1 $51 $166 $143 $167 reversed $97 $-1 #
loop $-1 $168 $162 $169 #
vertex $-1 $167 $170 #
straight-curve $-1 209.54999999999998 65.991135768374178 -3.1749999999999998 1 0 0 I I #
point $-1 209.54999999999998 65.991135768374178 -3.1749999999999998 #
coedge $-1 $104 $55 $171 $172 forward $16 $-1 #
coedge $-1 $173 $174 $55 $103 reversed $175 $-1 #
edge $-1 $111 0 $176 99.847399999999993 $55 $177 forward 7 unknown #
coedge $-1 $56 $101 $178 $179 forward $16 $-1 #
coedge $-1 $180 $181 $56 $106 reversed $182 $-1 #
edge $-1 $183 0 $110 127.73660000000001 $56 $184 forward 7 unknown #
coedge $-1 $185 $57 $181 $186 forward $109 $-1 #
coedge $-1 $57 $185 $173 $187 reversed $109 $-1 #
loop $-1 $-1 $107 $188 #
vertex $-1 $106 $189 #
vertex $-1 $103 $190 #
straight-curve $-1 174.48967709571485 197.20154167482411 0 0.51501913299677804 -0.85717868186699964 0 I I #
coedge $-1 $191 $59 $192 $193 forward $10 $-1 #
coedge $-1 $194 $195 $59 $115 forward $196 $-1 #
edge $-1 $197 0 $119 1.5707963267949057 $59 $198 forward 7 unknown #
coedge $-1 $199 $60 $66 $131 forward $118 $-1 #
coedge $-1 $60 $199 $194 $200 reversed $118 $-1 #
loop $-1 $-1 $116 $201 #
vertex $-1 $115 $202 #
straight-curve $-1 593.80119999999999 222.47860000000003 0 0 -1 0 I I #
coedge $-1 $62 $191 $203 $204 forward $10 $-1 #
coedge $-1 $205 $206 $62 $123 forward $207 $-1 #
edge $-1 $127 0 $208 1.5707963267948832 $62 $209 forward 7 unknown #
coedge $-1 $210 $63 $206 $211 forward $126 $-1 #
coedge $-1 $63 $210 $65 $130 reversed $126 $-1 #
loop $-1 $-1 $124 $212 #
vertex $-1 $64 $213 #
straight-curve $-1 307.11139999999995 235.17860000000002 0 1 0 0 I I #
coedge $-1 $66 $65 $214 $215 reversed $67 $-1 #
edge $-1 $69 2.0608276826032005e-026 $216 3.1749999999999998 $125 $217 forward 7 unknown #
edge $-1 $68 0 $218 3.1749999999999998 $116 $219 forward 7 unknown #
face $-1 $212 $67 $2 $-1 $220 reversed single #
point $-1 593.80119999999999 222.47860000000003 0 #
point $-1 581.10119999999995 235.17860000000002 0 #
coedge $-1 $79 $71 $221 $222 forward $5 $-1 #
coedge $-1 $223 $224 $71 $137 reversed $154 $-1 #
edge $-1 $141 0 $225 254 $71 $226 forward 7 unknown #
coedge $-1 $227 $72 $75 $144 forward $140 $-1 #
coedge $-1 $72 $227 $223 $228 reversed $140 $-1 #
loop $-1 $-1 $227 $153 #
vertex $-1 $137 $229 #
straight-curve $-1 501.64999999999998 0 0 1 0 0 I I #
coedge $-1 $75 $74 $96 $167 forward $76 $-1 #
edge $-1 $77 0 $230 3.1749999999999998 $138 $231 forward 7 unknown #
face $-1 $232 $76 $2 $-1 $233 forward single #
point $-1 501.65000000000003 -2.8421709430404007e-014 0 #
coedge $-1 $89 $160 $79 $148 reversed $45 $-1 #
edge $-1 $234 0 $149 254 $79 $235 forward 7 unknown #
vertex $-1 $80 $236 #
straight-curve $-1 0 0 0 1 0 0 I I #
point $-1 95.25 0 0 #
straight-curve $-1 387.35000000000002 65.991135768374193 0 0 0 -1 I I #
face $-1 $169 $140 $2 $-1 $237 forward single #
loop $-1 $-1 $223 $86 #
plane-surface $-1 635 127 -1.5874999999999999 1 0 0 0 1 0 forward_v I I I I #
coedge $-1 $238 $221 $224 $239 forward $87 $-1 #
coedge $-1 $160 $89 $240 $241 forward $45 $-1 #
coedge $-1 $221 $238 $89 $159 reversed $87 $-1 #
edge $-1 $234 0 $242 3.1749999999999998 $89 $243 forward 7 unknown #
coedge $-1 $147 $157 $90 $161 reversed $45 $-1 #
edge $-1 $149 0 $244 3.1749999999999998 $90 $245 forward 7 unknown #
coedge $-1 $240 $91 $93 $164 reversed $97 $-1 #
straight-curve $-1 95.25 -1.4210854715202004e-014 -3.1749999999999998 0.8660254037844386 0.5 0 I I #
edge $-1 $244 0 $94 95.25 $93 $246 forward 7 unknown #
point $-1 95.25 0 -3.1749999999999998 #
coedge $-1 $96 $247 $227 $248 reversed $97 $-1 #
edge $-1 $98 -4.2122417413818238e-014 $230 131.98227153674847 $143 $249 forward 7 unknown #
loop $-1 $250 $251 $169 #
face $-1 $145 $97 $2 $-1 $252 reversed single #
point $-1 387.34999999999997 65.991135768374178 -3.1749999999999998 #
coedge $-1 $253 $254 $101 $172 reversed $255 $-1 #
edge $-1 $176 0 $256 107.03559999999999 $101 $257 forward 7 unknown #
coedge $-1 $258 $102 $108 $187 forward $175 $-1 #
coedge $-1 $102 $258 $253 $259 reversed $175 $-1 #
loop $-1 $-1 $173 $260 #
vertex $-1 $172 $261 #
straight-curve $-1 211.30097863813936 135.9341810811712 0 -0.82496468248686861 -0.56518428202608395 0 I I #
coedge $-1 $262 $263 $104 $179 reversed $264 $-1 #
edge $-1 $256 1.3289130661209336e-014 $183 144.29740000000001 $104 $265 forward 7 unknown #
coedge $-1 $266 $105 $263 $267 forward $182 $-1 #
coedge $-1 $105 $266 $107 $186 reversed $182 $-1 #
loop $-1 $-1 $180 $268 #
vertex $-1 $106 $269 #
straight-curve $-1 49.032384138021285 221.22458526400021 0 0.98215619452602898 -0.1880670347353546 0 I I #
coedge $-1 $108 $107 $270 $271 forward $109 $-1 #
edge $-1 $110 0 $272 3.1749999999999998 $181 $273 forward 7 unknown #
edge $-1 $111 0 $274 3.1749999999999998 $173 $275 forward 7 unknown #
face $-1 $268 $109 $2 $-1 $276 forward single #
point $-1 174.48967709571485 197.20154167482411 0 #
point $-1 211.30097863813936 135.9341810811712 0 #
coedge $-1 $121 $113 $277 $278 reversed $10 $-1 #
coedge $-1 $279 $280 $113 $193 reversed $281 $-1 #
edge $-1 $197 0 $282 273.9898 $113 $283 forward 7 unknown #
coedge $-1 $284 $114 $117 $200 forward $196 $-1 #
coedge $-1 $114 $284 $279 $285 reversed $196 $-1 #
loop $-1 $-1 $194 $286 #
vertex $-1 $193 $287 #
ellipse-curve $-1 581.10119999999995 106.47679999999991 0 0 0 1 0 -12.699999999999889 0 1 I I #
coedge $-1 $117 $116 $288 $289 forward $118 $-1 #
edge $-1 $119 0 $290 3.1749999999999998 $194 $291 forward 7 unknown #
face $-1 $132 $118 $2 $-1 $292 forward single #
point $-1 593.80119999999999 106.47680000000003 0 #
coedge $-1 $293 $294 $121 $204 reversed $295 $-1 #
edge $-1 $296 0 $208 116.0018 $121 $297 forward 7 unknown #
coedge $-1 $298 $122 $294 $299 forward $207 $-1 #
coedge $-1 $122 $298 $124 $211 reversed $207 $-1 #
loop $-1 $-1 $205 $232 #
vertex $-1 $123 $300 #
ellipse-curve $-1 307.1114 222.47859999999991 0 0 0 1 -5.6843418860808015e-014 12.700000000000102 0 1 I I #
coedge $-1 $125 $124 $301 $302 forward $126 $-1 #
edge $-1 $127 0 $303 3.1749999999999998 $124 $304 forward 7 unknown #
face $-1 $305 $126 $2 $-1 $306 forward single #
point $-1 307.11139999999995 235.17860000000002 0 #
coedge $-1 $301 $288 $129 $215 forward $168 $-1 #
edge $-1 $218 0 $216 1.5707963267949057 $129 $307 forward 7 unknown #
vertex $-1 $130 $308 #
straight-curve $-1 581.10119999999995 235.17860000000027 0 0 -8.0565475550751525e-014 -1 I I #
vertex $-1 $289 $309 #
straight-curve $-1 593.80119999999999 222.47860000000003 0 0 0 -1 I I #
cone-surface $-1 581.10120000000018 222.47860000000028 0 0 0 1 12.699999999999999 -2.557953848736397e-013 0 1 I I 0 1 12.699999999999999 forward I I I I #
coedge $-1 $156 $158 $135 $222 reversed $87 $-1 #
edge $-1 $225 0 $234 635 $135 $310 forward 7 unknown #
coedge $-1 $311 $136 $139 $228 forward $154 $-1 #
coedge $-1 $136 $311 $156 $239 reversed $154 $-1 #
vertex $-1 $222 $312 #
straight-curve $-1 635 0 0 0 1 0 I I #
coedge $-1 $139 $138 $166 $248 forward $140 $-1 #
edge $-1 $141 0 $313 3.1749999999999998 $139 $314 forward 7 unknown #
point $-1 635 0 0 #
vertex $-1 $144 $315 #
straight-curve $-1 501.65000000000003 0 0 0 0 -1 I I #
face $-1 $316 $207 $2 $-1 $317 reversed single #
plane-surface $-1 444.5 32.995567884187089 -1.5874999999999999 -0.49999999999999994 -0.86602540378443871 0 0.86602540378443882 -0.5 0 forward_v I I I I #
vertex $-1 $148 $318 #
straight-curve $-1 0 254 0 0 -1 0 I I #
point $-1 0 0 0 #
plane-surface $-1 317.5 0 -1.5874999999999999 0 -1 0 1 0 0 forward_v I I I I #
coedge $-1 $158 $156 $319 $320 forward $87 $-1 #
edge $-1 $225 0 $321 3.1749999999999998 $156 $322 forward 7 unknown #
coedge $-1 $319 $162 $157 $241 reversed $97 $-1 #
edge $-1 $242 0 $244 254 $157 $323 forward 7 unknown #
vertex $-1 $241 $324 #
straight-curve $-1 0 254 0 0 0 -1 I I #
vertex $-1 $164 $325 #
straight-curve $-1 0 0 0 0 0 -1 I I #
straight-curve $-1 0 0 -3.1749999999999998 1 0 0 I I #
coedge $-1 $166 $319 $311 $326 reversed $97 $-1 #
edge $-1 $230 5.6843418860808015e-014 $313 133.35000000000002 $227 $327 forward 7 unknown #
straight-curve $-1 387.35000000000002 65.991135768374193 -3.1749999999999998 0.86602540378443871 -0.5 0 I I #
loop $-1 $-1 $328 $169 #
coedge $-1 $329 $301 $298 $330 forward $168 $-1 #
plane-surface $-1 0 0 -3.1749999999999998 0 0 1 1 0 0 forward_v I I I I #
coedge $-1 $331 $171 $174 $259 forward $255 $-1 #
coedge $-1 $171 $331 $262 $332 reversed $255 $-1 #
loop $-1 $-1 $253 $333 #
vertex $-1 $179 $334 #
straight-curve $-1 128.93039999999999 79.501999999999995 0 -1 0 0 I I #
coedge $-1 $174 $173 $335 $336 forward $175 $-1 #
edge $-1 $176 0 $337 3.1749999999999998 $253 $338 forward 7 unknown #
face $-1 $188 $175 $2 $-1 $339 forward single #
point $-1 128.93039999999999 79.501999999999995 0 #
coedge $-1 $340 $178 $254 $332 forward $264 $-1 #
coedge $-1 $178 $340 $180 $267 reversed $264 $-1 #
loop $-1 $-1 $262 $305 #
straight-curve $-1 21.894800000000004 79.501999999999981 0 0.18806703473535416 0.9821561945260292 0 I I #
coedge $-1 $181 $180 $341 $342 forward $182 $-1 #
edge $-1 $183 0 $343 3.1749999999999998 $180 $344 forward 7 unknown #
face $-1 $-1 $182 $2 $-1 $345 forward single #
point $-1 49.032384138021285 221.22458526400021 0 #
coedge $-1 $341 $335 $185 $271 reversed $250 $-1 #
edge $-1 $272 0 $274 71.475600000000014 $270 $346 forward 7 unknown #
vertex $-1 $342 $347 #
straight-curve $-1 174.48967709571485 197.20154167482411 0 0 0 -1 I I #
vertex $-1 $271 $348 #
straight-curve $-1 211.30097863813936 135.9341810811712 0 0 0 -1 I I #
plane-surface $-1 192.89532786692712 166.56786137799764 -1.5874999999999999 -0.85717868186699975 -0.51501913299677815 0 0.51501913299677804 -0.85717868186699964 0 forward_v I I I I #
coedge $-1 $349 $350 $191 $278 forward $351 $-1 #
edge $-1 $296 0 $282 1.5707963267948843 $191 $352 forward 7 unknown #
coedge $-1 $353 $192 $195 $285 forward $281 $-1 #
coedge $-1 $192 $353 $349 $354 reversed $281 $-1 #
loop $-1 $-1 $279 $355 #
vertex $-1 $278 $356 #
straight-curve $-1 581.10119999999995 93.776800000000023 0 -1 0 0 I I #
coedge $-1 $195 $194 $357 $358 reversed $196 $-1 #
edge $-1 $197 0 $359 3.1749999999999998 $279 $360 forward 7 unknown #
face $-1 $201 $196 $2 $-1 $361 reversed single #
point $-1 581.10119999999995 93.776800000000023 0 #
coedge $-1 $214 $357 $199 $289 reversed $168 $-1 #
edge $-1 $218 0 $290 116.0018 $199 $362 forward 7 unknown #
vertex $-1 $358 $363 #
straight-curve $-1 593.80119999999999 106.47680000000003 0 0 0 -1 I I #
plane-surface $-1 593.80119999999999 164.47770000000003 -1.5874999999999999 -1 0 0 0 -1 0 forward_v I I I I #
coedge $-1 $364 $203 $350 $365 forward $295 $-1 #
coedge $-1 $203 $364 $205 $299 reversed $295 $-1 #
loop $-1 $-1 $293 $316 #
vertex $-1 $204 $366 #
straight-curve $-1 294.41139999999996 106.47680000000003 0 0 1 0 I I #
coedge $-1 $206 $205 $251 $330 reversed $207 $-1 #
edge $-1 $208 1.0176926827670124e-027 $367 3.1749999999999998 $205 $368 forward 7 unknown #
point $-1 294.41139999999996 222.47860000000003 0 #
coedge $-1 $251 $214 $210 $302 reversed $168 $-1 #
edge $-1 $303 0 $216 273.9898 $210 $369 forward 7 unknown #
vertex $-1 $302 $370 #
straight-curve $-1 307.11139999999995 235.17860000000002 0 0 0 -1 I I #
face $-1 $333 $264 $2 $-1 $371 forward single #
plane-surface $-1 444.10629999999992 235.17860000000002 -1.5874999999999999 0 -1 0 1 0 0 forward_v I I I I #
ellipse-curve $-1 581.10120000000006 222.47860000000003 -3.1749999999999998 0 0 1 12.699999999999932 0 0 1 I I #
point $-1 581.10119999999995 235.17860000000002 -3.1749999999999998 #
point $-1 593.80119999999999 222.47860000000003 -3.1749999999999998 #
straight-curve $-1 635 254 0 -1 0 0 I I #
coedge $-1 $224 $223 $247 $326 forward $154 $-1 #
point $-1 635 254 0 #
vertex $-1 $228 $372 #
straight-curve $-1 635 0 0 0 0 -1 I I #
point $-1 501.65000000000003 -2.8421709430404007e-014 -3.1749999999999998 #
face $-1 $373 $295 $2 $-1 $374 forward single #
cone-surface $-1 307.1114 222.47859999999991 0 0 0 1 -5.6843418860807548e-014 12.699999999999999 0 1 I I 0 1 12.699999999999999 forward I I I I #
point $-1 0 254 0 #
coedge $-1 $247 $240 $238 $320 reversed $97 $-1 #
edge $-1 $321 0 $242 635 $238 $375 forward 7 unknown #
vertex $-1 $320 $376 #
straight-curve $-1 635 254 0 0 0 -1 I I #
straight-curve $-1 0 254 -3.1749999999999998 0 -1 0 I I #
point $-1 0 254 -3.1749999999999998 #
point $-1 0 0 -3.1749999999999998 #
edge $-1 $313 0 $321 254 $311 $377 forward 7 unknown #
straight-curve $-1 501.64999999999998 0 -3.1749999999999998 1 0 0 I I #
coedge $-1 $378 $341 $340 $379 reversed $250 $-1 #
coedge $-1 $380 $251 $364 $381 reversed $168 $-1 #
edge $-1 $303 0 $367 1.5707963267948966 $298 $382 forward 7 unknown #
coedge $-1 $254 $253 $378 $383 forward $255 $-1 #
edge $-1 $256 0 $384 3.1749999999999998 $262 $385 forward 7 unknown #
face $-1 $260 $255 $2 $-1 $386 forward single #
point $-1 21.8948 79.501999999999995 0 #
coedge $-1 $270 $378 $258 $336 reversed $250 $-1 #
edge $-1 $274 0 $337 99.847399999999993 $335 $387 forward 7 unknown #
vertex $-1 $336 $388 #
straight-curve $-1 128.93039999999999 79.501999999999995 0 0 0 -1 I I #
plane-surface $-1 170.11568931906967 107.71809054058559 -1.5874999999999999 -0.56518428202608395 0.82496468248686861 0 -0.82496468248686861 -0.56518428202608395 0 forward_v I I I I #
coedge $-1 $263 $262 $328 $379 forward $264 $-1 #
coedge $-1 $328 $270 $266 $342 reversed $250 $-1 #
edge $-1 $343 0 $272 127.73660000000001 $341 $389 forward 7 unknown #
vertex $-1 $342 $390 #
straight-curve $-1 49.032384138021293 221.22458526400021 0 0 0 -1 I I #
plane-surface $-1 111.76103061686807 209.21306346941216 -1.5874999999999999 -0.1880670347353546 -0.98215619452602909 0 0.98215619452602909 -0.1880670347353546 0 forward_v I I I I #
straight-curve $-1 174.48967709571485 197.20154167482411 -3.1749999999999998 0.51501913299677804 -0.85717868186699964 0 I I #
point $-1 174.48967709571485 197.20154167482411 -3.1749999999999998 #
point $-1 211.30097863813936 135.9341810811712 -3.1749999999999998 #
coedge $-1 $391 $277 $280 $354 forward $351 $-1 #
coedge $-1 $277 $391 $293 $365 reversed $351 $-1 #
loop $-1 $-1 $349 $373 #
ellipse-curve $-1 307.1114 106.47680000000013 0 0 0 1 -12.700000000000045 -9.9475983006414026e-014 0 1 I I #
coedge $-1 $280 $279 $392 $393 forward $281 $-1 #
edge $-1 $282 3.1166838409739757e-027 $394 3.1749999999999998 $349 $395 forward 7 unknown #
face $-1 $286 $281 $2 $-1 $396 forward single #
point $-1 307.11139999999995 93.776800000000023 0 #
coedge $-1 $288 $392 $284 $358 forward $168 $-1 #
edge $-1 $359 0 $290 1.5707963267948921 $284 $397 forward 7 unknown #
vertex $-1 $393 $398 #
straight-curve $-1 581.10119999999995 93.776800000000023 0 0 0 -1 I I #
cone-surface $-1 581.10119999999995 106.47679999999991 0 0 0 1 0 -12.699999999999999 0 1 I I 0 1 12.699999999999999 forward I I I I #
straight-curve $-1 593.80119999999999 222.47860000000003 -3.1749999999999998 0 -1 0 I I #
point $-1 593.80119999999999 106.47680000000003 -3.1749999999999998 #
coedge $-1 $294 $293 $329 $381 forward $295 $-1 #
edge $-1 $296 0 $399 3.1749999999999998 $293 $400 forward 7 unknown #
point $-1 294.41139999999996 106.47680000000003 0 #
vertex $-1 $330 $401 #
straight-curve $-1 294.41140000000001 222.47860000000003 0 -1.7903439011278115e-014 0 -1 I I #
straight-curve $-1 307.11139999999995 235.17860000000002 -3.1749999999999998 1 0 0 I I #
point $-1 307.11139999999995 235.17860000000002 -3.1749999999999998 #
plane-surface $-1 35.463592069010645 150.36329263200008 -1.5874999999999999 0.9821561945260292 -0.18806703473535416 0 0.18806703473535416 0.9821561945260292 0 forward_v I I I I #
point $-1 635 0 -3.1749999999999998 #
face $-1 $355 $351 $2 $-1 $402 reversed single #
plane-surface $-1 294.41139999999996 164.47770000000003 -1.5874999999999999 1 0 0 0 1 0 forward_v I I I I #
straight-curve $-1 635 254 -3.1749999999999998 -1 0 0 I I #
point $-1 635 254 -3.1749999999999998 #
straight-curve $-1 635 0 -3.1749999999999998 0 1 0 I I #
coedge $-1 $335 $328 $331 $383 reversed $250 $-1 #
edge $-1 $384 1.3957278988045078e-014 $343 144.29740000000001 $328 $403 forward 7 unknown #
coedge $-1 $392 $329 $391 $404 forward $168 $-1 #
edge $-1 $399 0 $367 116.0018 $364 $405 forward 7 unknown #
ellipse-curve $-1 307.11139999999995 222.47860000000003 -3.1749999999999998 0 0 1 0 12.699999999999989 0 1 I I #
edge $-1 $337 0 $384 107.03559999999999 $378 $406 forward 7 unknown #
vertex $-1 $383 $407 #
straight-curve $-1 21.894800000000004 79.501999999999995 0 0 0 -1 I I #
plane-surface $-1 75.412599999999998 79.501999999999995 -1.5874999999999999 0 1 0 -1 0 0 forward_v I I I I #
straight-curve $-1 211.30097863813936 135.9341810811712 -3.1749999999999998 -0.82496468248686861 -0.56518428202608395 0 I I #
point $-1 128.93039999999999 79.501999999999995 -3.1749999999999998 #
straight-curve $-1 49.032384138021285 221.22458526400021 -3.1749999999999998 0.98215619452602898 -0.1880670347353546 0 I I #
point $-1 49.032384138021285 221.22458526400021 -3.1749999999999998 #
coedge $-1 $350 $349 $380 $404 reversed $351 $-1 #
coedge $-1 $357 $380 $353 $393 reversed $168 $-1 #
edge $-1 $359 0 $394 273.9898 $353 $408 forward 7 unknown #
vertex $-1 $404 $409 #
straight-curve $-1 307.11139999999995 93.776800000000122 0 0 -3.1331018269736702e-014 -1 I I #
plane-surface $-1 444.10629999999992 93.776800000000023 -1.5874999999999999 0 1 0 -1 0 0 forward_v I I I I #
ellipse-curve $-1 581.10119999999995 106.47680000000008 -3.1749999999999998 0 0 1 0 -12.70000000000006 0 1 I I #
point $-1 581.10119999999995 93.776800000000023 -3.1749999999999998 #
vertex $-1 $381 $410 #
straight-curve $-1 294.41139999999996 106.47680000000003 0 0 0 -1 I I #
point $-1 294.41139999999996 222.47860000000003 -3.1749999999999998 #
cone-surface $-1 307.1114 106.47680000000013 0 0 0 1 -12.699999999999999 -9.947598300641366e-014 0 1 I I 0 1 12.699999999999999 forward I I I I #
straight-curve $-1 21.894800000000004 79.501999999999981 -3.1749999999999998 0.18806703473535416 0.9821561945260292 0 I I #
edge $-1 $399 0 $394 1.5707963267948954 $391 $411 forward 7 unknown #
straight-curve $-1 294.41139999999996 106.47680000000003 -3.1749999999999998 0 1 0 I I #
straight-curve $-1 128.93039999999999 79.501999999999995 -3.1749999999999998 -1 0 0 I I #
point $-1 21.894800000000004 79.501999999999995 -3.1749999999999998 #
straight-curve $-1 581.10119999999995 93.776800000000023 -3.1749999999999998 -1 0 0 I I #
point $-1 307.11139999999995 93.776800000000023 -3.1749999999999998 #
point $-1 294.41139999999996 106.47680000000003 -3.1749999999999998 #
ellipse-curve $-1 307.11139999999995 106.47680000000004 -3.1749999999999998 0 0 1 -12.699999999999989 -1.4210854715202004e-014 0 1 I I #
End-of-ACIS-data 