600 0 1 0           
101 GICL ACIS Healer - Source: /gicl/data5/repository/PTC/V20/NC_Training_Rel20/DXF/part_10.prt.sat - 6 0 18 ACIS 6.0.3 Solaris 24 Sat Apr 13 20:52:22 2002 
1 9.999999999999999547e-07 1.000000000000000036e-10 
body $-1 $1 $-1 $-1 #
lump $-1 $-1 $2 $0 #
shell $-1 $-1 $-1 $3 $-1 $1 #
face $-1 $4 $5 $2 $-1 $6 forward single #
face $-1 $7 $8 $2 $-1 $9 forward single #
loop $-1 $-1 $10 $3 #
plane-surface $-1 0 0 0 0 0 1 1 0 0 forward_v I I I I #
face $-1 $11 $12 $2 $-1 $13 forward single #
loop $-1 $-1 $14 $4 #
plane-surface $-1 -1.339151499999999828 -13.55253396950639022 -1.587499999999999911 -1 0 0 0 -1 0 forward_v I I I I #
coedge $-1 $15 $16 $17 $18 forward $5 $-1 #
face $-1 $19 $20 $2 $-1 $21 reversed single #
loop $-1 $-1 $22 $7 #
plane-surface $-1 2.863907126338105513e-06 -0.8525339695242919458 -1.587499999999999911 0 1 0 -1 0 0 forward_v I I I I #
coedge $-1 $23 $17 $24 $25 forward $8 $-1 #
coedge $-1 $26 $10 $27 $28 forward $5 $-1 #
coedge $-1 $10 $29 $30 $31 forward $5 $-1 #
coedge $-1 $14 $32 $10 $18 reversed $8 $-1 #
edge $-1 $33 6.661338147750939243e-16 $34 25.39999999996419788 $10 $35 forward 7 unknown #
face $-1 $36 $37 $2 $-1 $38 forward single #
loop $-1 $-1 $39 $11 #
spline-surface $-1 forward { exactsur full nurbs 3 1 both open open none none 41 2 
	0 3 0.02499999999999999792 2 0.04999999999999999584 2 0.07499999999999999722 2 0.09999999999999999167 2 
	0.125 2 0.1499999999999999944 2 0.1749999999999999889 2 0.1999999999999999833 2 0.2249999999999999778 2 
	0.25 2 0.2749999999999999667 2 0.2999999999999999889 2 0.3249999999999999556 2 0.3499999999999999778 2 
	0.375 2 0.3999999999999999667 2 0.4249999999999999889 2 0.4499999999999999556 2 0.4749999999999999778 2 
	0.5 2 0.5249999999999999112 2 0.5499999999999999334 2 0.5749999999999999556 2 0.5999999999999999778 2 
	0.625 2 0.6499999999999999112 2 0.6749999999999999334 2 0.6999999999999999556 2 0.7249999999999999778 2 
	0.75 2 0.7749999999999999112 2 0.7999999999999999334 2 0.8249999999999999556 2 0.8499999999999999778 2 
	0.875 2 0.8999999999999999112 2 0.9249999999999999334 2 0.9499999999999999556 2 0.9749999999999999778 2 
	1 3 
	0 1 1 1 
	52.13915722783703899 -0.8525339694884901398 0 1 
	51.62740990370231486 -1.656384786544452759 0 1 
	51.1354087906477659 -2.428802058674704778 0 1 
	50.18182102148859514 -3.901994412988252225 0 1 
	49.72023436538395913 -4.602769495171548542 0 1 
	48.81674603915816135 -5.934939258398648221 0 1 
	48.37484436903699248 -6.56633393944245114 0 1 
	47.50392114862847848 -7.758771382569628727 0 1 
	47.07489959834113336 -8.319814144653003396 0 1 
	46.22287225756764428 -9.372175224360992374 0 1 
	45.79986646708150033 -9.86349354198560313 0 1 
	44.95297697397515435 -10.77613233936973636 0 1 
	44.52909327135494522 -11.19745281912925883 0 1 
	43.67739165412560709 -11.96514541783241903 0 1 
	43.2495737395164781 -12.31151753677606031 0 1 
	42.38341754733771438 -12.92675144312352309 0 1 
	41.94507926976808676 -13.19561323052734814 0 1 
	41.07286175310636622 -13.64254688111170388 0 1 
	40.63898251401427331 -13.8206187442922328 0 1 
	39.78135263984863457 -14.09088353876133937 0 1 
	39.35760200477508164 -14.18307647004991701 0 1 
	38.51152073420509936 -14.28814275540692513 0 1 
	38.08919009870867001 -14.30101610947536273 0 1 
	37.23692941039855953 -14.24555790729223048 0 1 
	36.8069993575848784 -14.1772263510406642 0 1 
	35.9363834780337541 -13.95289425231282188 0 1 
	35.49569765129630383 -13.79689370983654406 0 1 
	34.60710081111033531 -13.39035084108234308 0 1 
	34.15918979766180996 -13.13980851480441991 0 1 
	33.2732213570670865 -12.5550840174710796 0 1 
	32.83516392992088839 -12.22090184641566246 0 1 
	31.96605790330790597 -11.4758986831596772 0 1 
	31.53500930384111811 -11.06507769095910731 0 1 
	30.67509837983242704 -10.17072037512445171 0 1 
	30.24623605529052384 -9.687184051490362435 0 1 
	29.38430986394506306 -8.649255840363954562 0 1 
	28.95124599714150548 -8.094863952871635959 0 1 
	28.06810256626697964 -6.906366702063958307 0 1 
	27.61802300219601136 -6.272261338748600146 0 1 
	26.69308000492115696 -4.92280420402477592 0 1 
	26.21821657171727438 -4.207452432616316074 0 1 
	25.20528903665339371 -2.648392094974021838 0 1 
	24.66722493479339207 -1.804683528740180787 0 1 
	23.5907995811411908 -0.114853696388168558 0 1 
	23.05243832934898407 0.7312675697300141664 0 1 
	22.03133003235126708 2.307457557268265624 0 1 
	21.54858298714576392 3.037526278688334358 0 1 
	20.60842568529650265 4.412732806880558911 0 1 
	20.15101542865274808 5.057870613652714731 0 1 
	19.26102403423158904 6.252226662107797317 0 1 
	18.82844289645418812 6.801444903790719643 0 1 
	17.98306713471629337 7.804061497168091499 0 1 
	17.57027251075579599 8.257459848862540142 0 1 
	16.76686905822503348 9.062392779652363117 0 1 
	16.37626022965475769 9.413927358747745444 0 1 
	15.62252239796517905 10.01248235563141975 0 1 
	15.2593933948458762 10.25950277341971528 0 1 
	14.57471913409699482 10.64993066402779931 0 1 
	14.25317387646741274 10.79333813684759136 0 1 
	13.6551924845189685 10.99736615725344535 0 1 
	13.37875635020011167 11.05798670483950907 0 1 
	12.84371711355316847 11.11960371858491037 0 1 
	12.58511401122508389 11.12060018474424794 0 1 
	12.05132138800330388 11.06352784263573596 0 1 
	11.77613186710960314 11.00545903436788286 0 1 
	11.18217499856998209 10.80795219571441912 0 1 
	10.86340765092406002 10.6685141653288067 0 1 
	10.18276320079469954 10.28629907441004399 0 1 
	9.820886098311262913 10.04352201387689192 0 1 
	9.069967980006826025 9.453772230008716804 0 1 
	8.680926964185832873 9.106799506673699085 0 1 
	7.880029763472306215 8.310848156356064109 0 1 
	7.468173578579774485 7.86186952937344774 0 1 
	6.624584831418678377 6.867327273124786302 0 1 
	6.192852269150108668 6.321763643858735904 0 1 
	5.30558956710877716 5.136261827518650236 0 1 
	4.850059427336016249 4.496323640444614078 0 1 
	3.910237689437001674 3.125318790855967421 0 1 
	3.425946091310749786 2.394252128341355146 0 1 
	2.416167790819072181 0.838491575372976583 0 1 
	1.890681088453653569 0.01379768491922006568 0 1 
	1.339157227814252504 -0.8525339695242919458 0 1 
	52.13915722783703899 -0.8525339694884901398 -3.174999999999999822 1 
	51.62740990370231486 -1.656384786544452759 -3.174999999999999822 1 
	51.1354087906477659 -2.428802058674704778 -3.174999999999999822 1 
	50.18182102148859514 -3.901994412988252225 -3.174999999999999822 1 
	49.72023436538395913 -4.602769495171548542 -3.174999999999999822 1 
	48.81674603915816135 -5.934939258398648221 -3.174999999999999822 1 
	48.37484436903699248 -6.56633393944245114 -3.174999999999999822 1 
	47.50392114862847848 -7.758771382569628727 -3.174999999999999822 1 
	47.07489959834113336 -8.319814144653003396 -3.174999999999999822 1 
	46.22287225756764428 -9.372175224360992374 -3.174999999999999822 1 
	45.79986646708150033 -9.86349354198560313 -3.174999999999999822 1 
	44.95297697397515435 -10.77613233936973636 -3.174999999999999822 1 
	44.52909327135494522 -11.19745281912925883 -3.174999999999999822 1 
	43.67739165412560709 -11.96514541783241903 -3.174999999999999822 1 
	43.2495737395164781 -12.31151753677606031 -3.174999999999999822 1 
	42.38341754733771438 -12.92675144312352309 -3.174999999999999822 1 
	41.94507926976808676 -13.19561323052734814 -3.174999999999999822 1 
	41.07286175310636622 -13.64254688111170388 -3.174999999999999822 1 
	40.63898251401427331 -13.8206187442922328 -3.174999999999999822 1 
	39.78135263984863457 -14.09088353876133937 -3.174999999999999822 1 
	39.35760200477508164 -14.18307647004991701 -3.174999999999999822 1 
	38.51152073420509936 -14.28814275540692513 -3.174999999999999822 1 
	38.08919009870867001 -14.30101610947536273 -3.174999999999999822 1 
	37.23692941039855953 -14.24555790729223048 -3.174999999999999822 1 
	36.8069993575848784 -14.1772263510406642 -3.174999999999999822 1 
	35.9363834780337541 -13.95289425231282188 -3.174999999999999822 1 
	35.49569765129630383 -13.79689370983654406 -3.174999999999999822 1 
	34.60710081111033531 -13.39035084108234308 -3.174999999999999822 1 
	34.15918979766180996 -13.13980851480441991 -3.174999999999999822 1 
	33.2732213570670865 -12.5550840174710796 -3.174999999999999822 1 
	32.83516392992088839 -12.22090184641566246 -3.174999999999999822 1 
	31.96605790330790597 -11.4758986831596772 -3.174999999999999822 1 
	31.53500930384111811 -11.06507769095910731 -3.174999999999999822 1 
	30.67509837983242704 -10.17072037512445171 -3.174999999999999822 1 
	30.24623605529052384 -9.687184051490362435 -3.174999999999999822 1 
	29.38430986394506306 -8.649255840363954562 -3.174999999999999822 1 
	28.95124599714150548 -8.094863952871635959 -3.174999999999999822 1 
	28.06810256626697964 -6.906366702063958307 -3.174999999999999822 1 
	27.61802300219601136 -6.272261338748600146 -3.174999999999999822 1 
	26.69308000492115696 -4.92280420402477592 -3.174999999999999822 1 
	26.21821657171727438 -4.207452432616316074 -3.174999999999999822 1 
	25.20528903665339371 -2.648392094974021838 -3.174999999999999822 1 
	24.66722493479339207 -1.804683528740180787 -3.174999999999999822 1 
	23.5907995811411908 -0.114853696388168558 -3.174999999999999822 1 
	23.05243832934898407 0.7312675697300141664 -3.174999999999999822 1 
	22.03133003235126708 2.307457557268265624 -3.174999999999999822 1 
	21.54858298714576392 3.037526278688334358 -3.174999999999999822 1 
	20.60842568529650265 4.412732806880558911 -3.174999999999999822 1 
	20.15101542865274808 5.057870613652714731 -3.174999999999999822 1 
	19.26102403423158904 6.252226662107797317 -3.174999999999999822 1 
	18.82844289645418812 6.801444903790719643 -3.174999999999999822 1 
	17.98306713471629337 7.804061497168091499 -3.174999999999999822 1 
	17.57027251075579599 8.257459848862540142 -3.174999999999999822 1 
	16.76686905822503348 9.062392779652363117 -3.174999999999999822 1 
	16.37626022965475769 9.413927358747745444 -3.174999999999999822 1 
	15.62252239796517905 10.01248235563141975 -3.174999999999999822 1 
	15.2593933948458762 10.25950277341971528 -3.174999999999999822 1 
	14.57471913409699482 10.64993066402779931 -3.174999999999999822 1 
	14.25317387646741274 10.79333813684759136 -3.174999999999999822 1 
	13.6551924845189685 10.99736615725344535 -3.174999999999999822 1 
	13.37875635020011167 11.05798670483950907 -3.174999999999999822 1 
	12.84371711355316847 11.11960371858491037 -3.174999999999999822 1 
	12.58511401122508389 11.12060018474424794 -3.174999999999999822 1 
	12.05132138800330388 11.06352784263573596 -3.174999999999999822 1 
	11.77613186710960314 11.00545903436788286 -3.174999999999999822 1 
	11.18217499856998209 10.80795219571441912 -3.174999999999999822 1 
	10.86340765092406002 10.6685141653288067 -3.174999999999999822 1 
	10.18276320079469954 10.28629907441004399 -3.174999999999999822 1 
	9.820886098311262913 10.04352201387689192 -3.174999999999999822 1 
	9.069967980006826025 9.453772230008716804 -3.174999999999999822 1 
	8.680926964185832873 9.106799506673699085 -3.174999999999999822 1 
	7.880029763472306215 8.310848156356064109 -3.174999999999999822 1 
	7.468173578579774485 7.86186952937344774 -3.174999999999999822 1 
	6.624584831418678377 6.867327273124786302 -3.174999999999999822 1 
	6.192852269150108668 6.321763643858735904 -3.174999999999999822 1 
	5.30558956710877716 5.136261827518650236 -3.174999999999999822 1 
	4.850059427336016249 4.496323640444614078 -3.174999999999999822 1 
	3.910237689437001674 3.125318790855967421 -3.174999999999999822 1 
	3.425946091310749786 2.394252128341355146 -3.174999999999999822 1 
	2.416167790819072181 0.838491575372976583 -3.174999999999999822 1 
	1.890681088453653569 0.01379768491922006568 -3.174999999999999822 1 
	1.339157227814252504 -0.8525339695242919458 -3.174999999999999822 1 
	0 
	0 
	0 
	39 0.02499999999999999792 0.04999999999999999584 0.07499999999999999722 0.09999999999999999167 0.125 0.1499999999999999944 0.1749999999999999889 0.1999999999999999833 0.2249999999999999778 0.25 0.2749999999999999667 0.2999999999999999889 0.3249999999999999556 0.3499999999999999778 0.375 0.3999999999999999667 0.4249999999999999889 0.4499999999999999556 0.4749999999999999778 0.5 0.5249999999999999112 0.5499999999999999334 0.5749999999999999556 0.5999999999999999778 0.625 0.6499999999999999112 0.6749999999999999334 0.6999999999999999556 0.7249999999999999778 0.75 0.7749999999999999112 0.7999999999999999334 0.8249999999999999556 0.8499999999999999778 0.875 0.8999999999999999112 0.9249999999999999334 0.9499999999999999556 0.9749999999999999778 
	0 
	0 
	0 
	F 1 F 0 F 1 F 0 } I I I I #
coedge $-1 $40 $30 $41 $42 forward $12 $-1 #
coedge $-1 $32 $14 $43 $44 forward $8 $-1 #
coedge $-1 $30 $40 $14 $25 reversed $12 $-1 #
edge $-1 $33 0 $45 3.174999999999999822 $24 $46 forward 7 unknown #
coedge $-1 $29 $15 $47 $48 forward $5 $-1 #
coedge $-1 $49 $50 $15 $28 reversed $51 $-1 #
edge $-1 $34 0 $52 53.47830872783703882 $15 $53 forward 7 unknown #
coedge $-1 $16 $26 $54 $55 forward $5 $-1 #
coedge $-1 $22 $24 $16 $31 reversed $12 $-1 #
edge $-1 $56 0 $33 2.678308727814252332 $16 $57 forward 7 unknown #
coedge $-1 $17 $23 $49 $58 reversed $8 $-1 #
vertex $-1 $31 $59 #
vertex $-1 $28 $60 #
straight-curve $-1 -1.339151499999999828 -0.8525339695242912796 0 0 -1 0 I I #
face $-1 $61 $51 $2 $-1 $62 forward single #
loop $-1 $-1 $63 $19 #
plane-surface $-1 52.13915722783703899 -13.55253396948848987 -1.587499999999999911 1 0 0 0 1 0 forward_v I I I I #
coedge $-1 $64 $54 $65 $66 forward $20 $67 #
coedge $-1 $24 $22 $68 $69 forward $12 $-1 #
coedge $-1 $54 $64 $22 $42 reversed $20 $70 #
edge $-1 $56 0 $71 3.174999999999999822 $22 $72 forward 7 unknown #
coedge $-1 $68 $73 $23 $44 reversed $74 $-1 #
edge $-1 $45 6.661338147750939243e-16 $75 25.39999999996419788 $23 $76 forward 7 unknown #
vertex $-1 $25 $77 #
straight-curve $-1 -1.339151499999999828 -0.8525339695242912796 0 0 0 -1 I I #
coedge $-1 $63 $65 $26 $48 reversed $37 $-1 #
edge $-1 $52 0 $78 25.39999999999999858 $26 $79 forward 7 unknown #
coedge $-1 $80 $27 $32 $58 forward $51 $-1 #
coedge $-1 $27 $80 $63 $81 reversed $51 $-1 #
loop $-1 $-1 $49 $36 #
vertex $-1 $48 $82 #
straight-curve $-1 -1.339151499999999828 -26.25253396948848916 0 1 0 0 I I #
coedge $-1 $39 $41 $29 $55 reversed $20 $83 #
edge $-1 $78 0 $56 1 $29 $84 forward 7 unknown #
vertex $-1 $31 $85 #
straight-curve $-1 1.339157227814252504 -0.8525339695242919458 0 -1 0 0 I I #
edge $-1 $34 0 $75 3.174999999999999822 $49 $86 forward 7 unknown #
point $-1 -1.339151499999999828 -0.8525339695242919458 0 #
point $-1 -1.339151499999999828 -26.25253396948848916 0 #
face $-1 $-1 $74 $2 $-1 $87 reversed single #
plane-surface $-1 25.40000286391851958 -26.25253396948848916 -1.587499999999999911 0 -1 0 1 0 0 forward_v I I I I #
coedge $-1 $88 $47 $50 $81 forward $37 $-1 #
coedge $-1 $41 $39 $89 $90 forward $20 $91 #
coedge $-1 $47 $88 $39 $66 reversed $37 $-1 #
edge $-1 $78 0 $92 3.174999999999999822 $39 $93 forward 7 unknown #
pcurve $-1 0 forward { exppc nubs 1 open 2 
	0 1 3.174999999999999822 1 
	0 0 
	0 1 
	0.001000000000000000021 
	spline forward { ref 0 } I I I I 
	} 0 0 #
coedge $-1 $89 $43 $40 $69 reversed $74 $-1 #
edge $-1 $71 0 $45 2.678308727814252332 $40 $94 forward 7 unknown #
pcurve $-1 0 forward { exppc nubs 1 open 2 
	-3.174999999999999822 1 0 1 
	1 1 
	1 0 
	0.001000000000000000021 
	spline forward { ref 0 } I I I I 
	} 0 0 #
vertex $-1 $69 $95 #
straight-curve $-1 1.339157227814252504 -0.8525339695242919458 0 0 0 -1 I I #
coedge $-1 $43 $96 $80 $97 reversed $74 $-1 #
loop $-1 $-1 $89 $61 #
vertex $-1 $97 $98 #
straight-curve $-1 -1.339151499999999828 -0.8525339695242912796 -3.174999999999999822 0 -1 0 I I #
point $-1 -1.339151499999999828 -0.8525339695242919458 -3.174999999999999822 #
vertex $-1 $55 $99 #
straight-curve $-1 52.13915722783703899 -26.25253396948848916 0 0 1 0 I I #
coedge $-1 $50 $49 $73 $97 forward $51 $-1 #
edge $-1 $52 0 $100 3.174999999999999822 $63 $101 forward 7 unknown #
point $-1 52.13915722783703899 -26.25253396948848916 0 #
pcurve $-1 0 forward { exppc nubs 1 open 2 
	-1 1 0 1 
	1 0 
	0 0 
	0.001000000000007944187 
	spline forward { ref 0 } I I I I 
	} 0 0 #
intcurve-curve $-1 forward { surfintcur full nurbs 3 open 41 
	0 3 0.02529142156917315101 1 0.05050905724709765787 1 0.07565852381524243442 1 0.100744851148595424 1 
	0.1257740648810035111 1 0.1507524697964325866 1 0.1756852033428943916 1 0.2005784575888084897 1 0.2254298693834339562 1 
	0.2502486724690153319 1 0.27505635580239296 1 0.2998758491790025071 1 0.3247261528273018283 1 0.349618333967336159 1 
	0.374550676566908769 1 0.3995272723443424323 1 0.4245542743290537935 1 0.4496395282459278442 1 0.4747962474077803141 1 
	0.5000417101799761177 1 0.5253941325728204159 1 0.5507503649123107747 1 0.5760092663109104283 1 0.6011766544878728302 1 
	0.62625569249064994 1 0.6512485858355181456 1 0.6761552393162334473 1 0.700976022581740299 1 0.7257137576836713011 1 
	0.7503878135185660936 1 0.7750382969517517484 1 0.7997105270604251137 1 0.8244446922404083944 1 0.8492618520643862023 1 
	0.8741645240361590741 1 0.8991535990428849434 1 0.9242288856188144441 1 0.9493924896585422823 1 0.9746475187057018763 1 
	1 3 
	52.13915722783703899 -0.8525339694884901398 0 1 
	51.63123040266803798 -1.657413793349575393 0 1 
	50.64408282755544377 -3.196947527360233909 0 1 
	49.26084774382577791 -5.301127516336536338 0 1.000000000000000222 
	47.93448240293468388 -7.195406294404241621 0 0.9999999999999996669 
	46.64735797331123734 -8.879083134638069197 0 1.000000000000000444 
	45.37813689017457364 -10.35342322395175252 0 1 
	44.10638863724719982 -11.61771846217216364 0 1 
	42.82275870658411066 -12.65717406212391971 0 0.999999999999999778 
	41.50787493813054851 -13.4638929686736244 0 1 
	40.20596474767303619 -13.99844239233148002 0 1 
	38.93413372590777755 -14.27526071570552446 0 1 
	37.66655160244913247 -14.3138925120165954 0 0.9999999999999996669 
	36.3762540236976406 -14.10870822031462168 0 1.000000000000000222 
	35.05385273687163306 -13.64036650890660951 0 1.000000000000000222 
	33.71022457164991692 -12.88856545942280718 0 0.999999999999999889 
	32.39595242271063569 -11.88573485204408264 0 1.000000000000000222 
	31.10266112652573511 -10.65290454427068312 0 1.000000000000000222 
	29.81589606688007876 -9.201876021151713658 0 0.999999999999999889 
	28.51628053451835498 -7.537910353537435881 0 1 
	27.16563981406068606 -5.634814441390057382 0 1 
	25.73977396449249255 -3.486555740231102263 0 1 
	24.12904570405016358 -0.960789568203162192 0 1 
	22.51734776066611943 1.572301790508955355 0 0.999999999999999778 
	21.06827792849556502 3.764028082045613566 0 1.000000000000000222 
	19.69597902729362815 5.699808905547161686 0 1 
	18.39802802794757142 7.348093516679431225 0 1 
	17.15956879218724396 8.708759808976026306 0 0.999999999999999889 
	15.98761092411105622 9.763910152630442596 0 1.000000000000000222 
	14.89801459384032434 10.50554731226316285 0 1.000000000000000222 
	13.93278507914145159 10.93639499006494553 0 0.999999999999999778 
	13.10268408004292695 11.1186041021778319 0 1 
	12.32617498749348073 11.1215978135386937 0 1 
	11.49983044380436681 10.94706554268342025 0 1 
	10.5428978057952385 10.52811996273229767 0 0.999999999999999778 
	9.457064217400917627 9.799225093991179136 0 0.999999999999999778 
	8.289806393459871359 8.757743970281531176 0 1 
	7.054113932932287945 7.410350308829236177 0 1 
	5.758899740333998984 5.772980099651579877 0 1.000000000000000222 
	4.391551956376981813 3.853015735164596833 0 1 
	2.940394064003905239 1.657405002822646134 0 0.999999999999999778 
	1.886024382881036576 0.01485145067873916598 0 0.999999999999999889 
	1.339157227814252504 -0.8525339695242919458 0 1 
	0.001000000000000000021 
	spline forward { ref 0 } I I I I 
	plane 0 0 0 0 0 1 1 0 0 forward_v I I I I 
	nurbs 3 open 41 
	0 3 0.0250000000000000222 1 0.05000000000000004441 1 0.07500000000000006661 1 0.1000000000000000888 1 
	0.125000000000000111 1 0.1500000000000001332 1 0.1750000000000001554 1 0.2000000000000001776 1 0.2250000000000001998 1 
	0.250000000000000222 1 0.2750000000000003553 1 0.3000000000000002665 1 0.3250000000000003997 1 0.3500000000000003109 1 
	0.3750000000000004441 1 0.4000000000000003553 1 0.4250000000000003775 1 0.4500000000000003997 1 0.4750000000000003109 1 
	0.5000000000000003331 1 0.5250000000000003553 1 0.5500000000000003775 1 0.5750000000000002887 1 0.6000000000000003109 1 
	0.6250000000000003331 1 0.6500000000000002442 1 0.6750000000000002665 1 0.7000000000000002887 1 0.7250000000000001998 1 
	0.750000000000000222 1 0.7750000000000001332 1 0.8000000000000001554 1 0.8250000000000000666 1 0.8500000000000000888 1 
	0.875000000000000111 1 0.9000000000000000222 1 0.9250000000000000444 1 0.9500000000000000666 1 0.9750000000000000888 1 
	1 3 
	0 0 1 
	0.008333333333333336687 0 0.999999999999999889 
	0.02500000000000000139 0 0.999999999999999778 
	0.04999999999999996808 0 1.000000000000000444 
	0.0750000000000000111 0 0.999999999999999889 
	0.0999999999999999778 0 1.000000000000000222 
	0.125 0 1 
	0.1499999999999999944 0 1.000000000000000222 
	0.1749999999999999889 0 0.999999999999999889 
	0.1999999999999999833 0 1.000000000000000222 
	0.2249999999999999223 0 1 
	0.25 0 1.000000000000000222 
	0.2749999999999999112 0 1 
	0.3000000000000000444 0 1.000000000000000222 
	0.3249999999999999001 0 1 
	0.3499999999999999223 0 1 
	0.375 0 1.000000000000000222 
	0.3999999999999999112 0 1 
	0.4250000000000000999 0 1 
	0.4499999999999997891 0 1.000000000000000222 
	0.4749999999999999223 0 1 
	0.5 0 1.000000000000000222 
	0.5249999999999999112 0 1 
	0.5499999999999998224 0 1.000000000000000222 
	0.5749999999999999556 0 1 
	0.5999999999999998668 0 1.000000000000000222 
	0.625000000000000111 0 1 
	0.6499999999999998002 0 1.000000000000000222 
	0.6750000000000000444 0 1 
	0.6999999999999998446 0 1.000000000000000222 
	0.7250000000000000888 0 1 
	0.749999999999999889 0 1 
	0.7749999999999998002 0 1.000000000000000222 
	0.7999999999999999334 0 0.999999999999999778 
	0.8249999999999999556 0 1.000000000000000222 
	0.8499999999999998668 0 1 
	0.874999999999999889 0 1.000000000000000222 
	0.8999999999999998002 0 1 
	0.9249999999999998224 0 1.000000000000000222 
	0.9499999999999998446 0 1 
	0.9749999999999999778 0 1.000000000000000222 
	0.9916666666666666963 0 0.999999999999999889 
	1 0 1 
	
	nullbs 
	I I 
	0 
	0 
	39 0.02529142156917312673 0.05050905724709769951 0.07565852381524247605 0.1007448511485953407 0.1257740648810035944 0.1507524697964325588 0.1756852033428944193 0.2005784575888084065 0.2254298693834339284 0.250248672469015554 0.2750563558023930155 0.2998758491790023961 0.3247261528273018283 0.3496183339673359924 0.374550676566908991 0.3995272723443425433 0.424554274329053849 0.4496395282459278997 0.4747962474077802586 0.5000417101799761177 0.5253941325728204159 0.5507503649123107747 0.5760092663109104283 0.6011766544878728302 0.62625569249064994 0.6512485858355182566 0.6761552393162334473 0.70097602258174041 0.7257137576836714121 0.7503878135185659826 0.7750382969517516374 0.7997105270604251137 0.8244446922404083944 0.8492618520643862023 0.8741645240361590741 0.8991535990428850544 0.9242288856188144441 0.9493924896585421713 0.9746475187057018763 
	} I I #
point $-1 1.339157227814252504 -0.8525339695242919458 0 #
straight-curve $-1 -1.339151499999999828 -26.25253396948848916 0 0 0 -1 I I #
plane-surface $-1 0 0 -3.174999999999999822 0 0 1 1 0 0 forward_v I I I I #
coedge $-1 $65 $63 $96 $102 forward $37 $-1 #
coedge $-1 $96 $68 $64 $90 reversed $74 $-1 #
edge $-1 $92 0 $71 1 $64 $103 forward 7 unknown #
pcurve $-1 0 forward { exppc nubs 1 open 2 
	0 1 1 1 
	0 1 
	1 1 
	0.001000000000000000021 
	spline forward { ref 0 } I I I I 
	} 0 0 #
vertex $-1 $90 $104 #
straight-curve $-1 52.13915722783703899 -0.8525339694884905839 0 0 0 -1 I I #
straight-curve $-1 1.339157227814252504 -0.8525339695242919458 -3.174999999999999822 -1 0 0 I I #
point $-1 1.339157227814252504 -0.8525339695242919458 -3.174999999999999822 #
coedge $-1 $73 $89 $88 $102 reversed $74 $-1 #
edge $-1 $75 0 $100 53.47830872783703882 $80 $105 forward 7 unknown #
point $-1 -1.339151499999999828 -26.25253396948848916 -3.174999999999999822 #
point $-1 52.13915722783703899 -0.8525339694884901398 0 #
vertex $-1 $102 $106 #
straight-curve $-1 52.13915722783703899 -26.25253396948848916 0 0 0 -1 I I #
edge $-1 $100 0 $92 25.39999999999999858 $88 $107 forward 7 unknown #
intcurve-curve $-1 forward { surfintcur full nurbs 3 open 41 
	0 3 0.02529142156917315101 1 0.05050905724709765787 1 0.07565852381524243442 1 0.100744851148595424 1 
	0.1257740648810035111 1 0.1507524697964325866 1 0.1756852033428943916 1 0.2005784575888084897 1 0.2254298693834339562 1 
	0.2502486724690153319 1 0.27505635580239296 1 0.2998758491790025071 1 0.3247261528273018283 1 0.349618333967336159 1 
	0.374550676566908769 1 0.3995272723443424323 1 0.4245542743290537935 1 0.4496395282459278442 1 0.4747962474077803141 1 
	0.5000417101799761177 1 0.5253941325728204159 1 0.5507503649123107747 1 0.5760092663109104283 1 0.6011766544878728302 1 
	0.62625569249064994 1 0.6512485858355181456 1 0.6761552393162334473 1 0.700976022581740299 1 0.7257137576836713011 1 
	0.7503878135185660936 1 0.7750382969517517484 1 0.7997105270604251137 1 0.8244446922404083944 1 0.8492618520643862023 1 
	0.8741645240361590741 1 0.8991535990428849434 1 0.9242288856188144441 1 0.9493924896585422823 1 0.9746475187057018763 1 
	1 3 
	52.13915722783703899 -0.8525339694884901398 -3.174999999999999822 1 
	51.63123040266803798 -1.657413793349575393 -3.174999999999999378 1 
	50.64408282755544377 -3.196947527360233909 -3.174999999999999822 1 
	49.26084774382577791 -5.301127516336536338 -3.174999999999999822 1.000000000000000222 
	47.93448240293468388 -7.195406294404241621 -3.174999999999999822 0.9999999999999996669 
	46.64735797331123734 -8.879083134638069197 -3.174999999999999378 1.000000000000000444 
	45.37813689017457364 -10.35342322395175252 -3.175000000000000266 1 
	44.10638863724719982 -11.61771846217216364 -3.174999999999999822 1 
	42.82275870658411066 -12.65717406212391971 -3.175000000000000266 0.999999999999999778 
	41.50787493813054851 -13.4638929686736244 -3.175000000000000266 1 
	40.20596474767303619 -13.99844239233148002 -3.174999999999999378 1 
	38.93413372590777755 -14.27526071570552446 -3.175000000000001155 1 
	37.66655160244913247 -14.3138925120165954 -3.174999999999999378 0.9999999999999996669 
	36.3762540236976406 -14.10870822031462168 -3.174999999999999822 1.000000000000000222 
	35.05385273687163306 -13.64036650890660951 -3.174999999999998934 1.000000000000000222 
	33.71022457164991692 -12.88856545942280718 -3.174999999999999378 0.999999999999999889 
	32.39595242271063569 -11.88573485204408264 -3.174999999999999822 1.000000000000000222 
	31.10266112652573511 -10.65290454427068312 -3.17499999999999849 1.000000000000000222 
	29.81589606688007876 -9.201876021151713658 -3.175000000000000266 0.999999999999999889 
	28.51628053451835498 -7.537910353537435881 -3.174999999999999378 1 
	27.16563981406068606 -5.634814441390057382 -3.175000000000000266 1 
	25.73977396449249255 -3.486555740231102263 -3.174999999999999378 1 
	24.12904570405016358 -0.960789568203162192 -3.174999999999999822 1 
	22.51734776066611943 1.572301790508955355 -3.175000000000000711 0.999999999999999778 
	21.06827792849556502 3.764028082045613566 -3.174999999999998934 1.000000000000000222 
	19.69597902729362815 5.699808905547161686 -3.175000000000000711 1 
	18.39802802794757142 7.348093516679431225 -3.174999999999998934 1 
	17.15956879218724396 8.708759808976026306 -3.175000000000000711 0.999999999999999889 
	15.98761092411105622 9.763910152630442596 -3.174999999999999378 1.000000000000000222 
	14.89801459384032434 10.50554731226316285 -3.174999999999999378 1.000000000000000222 
	13.93278507914145159 10.93639499006494553 -3.174999999999999822 0.999999999999999778 
	13.10268408004292695 11.1186041021778319 -3.175000000000000266 1 
	12.32617498749348073 11.1215978135386937 -3.174999999999999822 1 
	11.49983044380436681 10.94706554268342025 -3.175000000000000266 1 
	10.5428978057952385 10.52811996273229767 -3.175000000000000266 0.999999999999999778 
	9.457064217400917627 9.799225093991179136 -3.175000000000000266 0.999999999999999778 
	8.289806393459871359 8.757743970281531176 -3.174999999999999822 1 
	7.054113932932287945 7.410350308829236177 -3.174999999999999822 1 
	5.758899740333998984 5.772980099651579877 -3.174999999999999822 1.000000000000000222 
	4.391551956376981813 3.853015735164596833 -3.174999999999999822 1 
	2.940394064003905239 1.657405002822646134 -3.174999999999999822 0.999999999999999778 
	1.886024382881036576 0.01485145067873916598 -3.175000000000000711 0.999999999999999889 
	1.339157227814252504 -0.8525339695242919458 -3.174999999999999822 1 
	0.001000000000000000021 
	spline forward { ref 0 } I I I I 
	plane 0 0 -3.174999999999999822 0 0 1 1 0 0 forward_v I I I I 
	nurbs 3 open 41 
	0 3 0.0250000000000000222 1 0.05000000000000004441 1 0.07500000000000005274 1 0.1000000000000000749 1 
	0.125000000000000111 1 0.1500000000000001332 1 0.1750000000000001832 1 0.2000000000000002054 1 0.2250000000000002276 1 
	0.2500000000000002776 1 0.2750000000000002998 1 0.300000000000000322 1 0.3250000000000003442 1 0.3500000000000003664 1 
	0.3750000000000004441 1 0.4000000000000004108 1 0.4250000000000003775 1 0.4500000000000003997 1 0.4750000000000003664 1 
	0.5000000000000003331 1 0.5250000000000003553 1 0.5500000000000003775 1 0.5750000000000002887 1 0.6000000000000003109 1 
	0.6250000000000003331 1 0.6500000000000002442 1 0.6750000000000002665 1 0.7000000000000002887 1 0.7250000000000001998 1 
	0.750000000000000222 1 0.7750000000000001332 1 0.8000000000000001554 1 0.8250000000000000666 1 0.8500000000000000888 1 
	0.875000000000000111 1 0.9000000000000000222 1 0.9250000000000000444 1 0.9500000000000000666 1 0.9750000000000000888 1 
	1 3 
	0 1 1 
	0.008333333333333336687 1 0.999999999999999889 
	0.02500000000000000139 1 0.999999999999999778 
	0.04999999999999996808 1 1.000000000000000444 
	0.0750000000000000111 1 0.999999999999999889 
	0.0999999999999999778 1 1.000000000000000222 
	0.125 1 1 
	0.1499999999999999944 1 1.000000000000000222 
	0.1749999999999999889 1 0.999999999999999889 
	0.1999999999999999833 1 1.000000000000000222 
	0.2249999999999999223 1 1 
	0.25 1 1.000000000000000222 
	0.2749999999999999112 1 1 
	0.3000000000000000444 1 1.000000000000000222 
	0.3249999999999999001 1 1 
	0.3499999999999999223 1 1 
	0.375 1 1.000000000000000222 
	0.3999999999999999112 1 1 
	0.4250000000000000999 1 1 
	0.4499999999999997891 1 1.000000000000000222 
	0.4749999999999999223 1 1 
	0.5 1 1.000000000000000222 
	0.5249999999999999112 1 1 
	0.5499999999999998224 1 1.000000000000000222 
	0.5749999999999999556 1 1 
	0.5999999999999998668 1 1.000000000000000222 
	0.625000000000000111 1 1 
	0.6499999999999998002 1 1.000000000000000222 
	0.6750000000000000444 1 1 
	0.6999999999999998446 1 1.000000000000000222 
	0.7250000000000000888 1 1 
	0.749999999999999889 1 1 
	0.7749999999999998002 1 1.000000000000000222 
	0.7999999999999999334 1 0.999999999999999778 
	0.8249999999999999556 1 1.000000000000000222 
	0.8499999999999998668 1 1 
	0.874999999999999889 1 1.000000000000000222 
	0.8999999999999998002 1 1 
	0.9249999999999998224 1 1.000000000000000222 
	0.9499999999999998446 1 1 
	0.9749999999999999778 1 1.000000000000000222 
	0.9916666666666666963 1 0.999999999999999889 
	1 1 1 
	
	nullbs 
	I I 
	0 
	0 
	39 0.02529142156917312673 0.05050905724709764399 0.07565852381524239278 0.1007448511485953269 0.1257740648810035944 0.1507524697964325588 0.1756852033428944471 0.2005784575888086008 0.2254298693834341782 0.2502486724690156095 0.2750563558023931265 0.2998758491790025626 0.3247261528273018838 0.349618333967336048 0.374550676566908991 0.3995272723443424878 0.424554274329053849 0.4496395282459278997 0.4747962474077802586 0.5000417101799761177 0.5253941325728204159 0.5507503649123107747 0.5760092663109104283 0.6011766544878728302 0.62625569249064994 0.6512485858355182566 0.6761552393162334473 0.70097602258174041 0.7257137576836714121 0.7503878135185659826 0.7750382969517516374 0.7997105270604251137 0.8244446922404083944 0.8492618520643862023 0.8741645240361590741 0.8991535990428850544 0.9242288856188144441 0.9493924896585421713 0.9746475187057018763 
	} I I #
point $-1 52.13915722783703899 -0.8525339694884905839 -3.174999999999999822 #
straight-curve $-1 -1.339151499999999828 -26.25253396948848916 -3.174999999999999822 1 0 0 I I #
point $-1 52.13915722783703899 -26.25253396948848916 -3.174999999999999822 #
straight-curve $-1 52.13915722783703899 -26.25253396948848916 -3.174999999999999822 0 1 0 I I #
End-of-ACIS-data 