999
DXF file: part_big.dxf
999
Pro/ENGINEER 9801 by Parametric Technology Corporation
0
SECTION
2
HEADER
9
$EXTMAX
10
22.0000000000
20
17.0000000000
9
$EXTMIN
10
0.0000000000
20
0.0000000000
9
$LIMMIN
10
0.0000000000
20
0.0000000000
9
$LIMMAX
10
22.0000000000
20
17.0000000000
9
$VIEWCTR
10
11.0000000000
20
8.5000000000
9
$VIEWSIZE
40
17.0000000000
9
$CLAYER
8
0
9
$LTSCALE
40
1.2100000000
9
$CELTYPE
6
BYLAYER
9
$DIMSCALE
40
1
9
$DIMASZ
40
0.1875000000
9
$DIMEXO
40
0.1375000000
9
$DIMDLI
40
0.8360000000
9
$DIMEXE
40
0.3960000000
9
$DIMCEN
40
0.1980000000
9
$DIMTXT
40
0.2486049107
0
ENDSEC
0
SECTION
2
TABLES
0
TABLE
2
LTYPE
70
6
0
LTYPE
2
CONTINUOUS
70
64
3
Solid line
72
65
73
0
40
0
0
LTYPE
2
CENTER
70
64
3
____ _ ____ _ ____ _ ____ _ ____ _ ____ _ ____
72
65
73
4
40
0.6
49
0.375
49
-0.075
49
0.075
49
-0.075
0
LTYPE
2
HIDDEN
70
64
3
- - - - - - - - - - - - - - - - - - - -
72
65
73
2
40
0.2
49
0.1
49
-0.1
0
LTYPE
2
PHANTOM
70
64
3
_____ _ _ _____ _ _ _____ _ _ _____
72
65
73
6
40
0.8
49
0.45
49
-0.05
49
0.1
49
-0.05
49
0.1
49
-0.05
0
LTYPE
2
DOT
70
64
3
. . . . . . . . . . . . . . . . . . . .
72
65
73
2
40
0.2
49
0.1
49
-0.1
0
LTYPE
2
DASHED
70
64
3
- - - - - - - - - - - - - - - - - - - -
72
65
73
2
40
0.2
49
0.1
49
-0.1
0
ENDTAB
0
TABLE
2
LAYER
70
36
0
LAYER
2
0
70
0
62
7
6
CONTINUOUS
0
LAYER
2
DEFAULT_1
70
0
62
7
6
CENTER
0
LAYER
2
DEFAULT_2
70
0
62
7
6
HIDDEN
0
LAYER
2
DEFAULT_3
70
0
62
7
6
PHANTOM
0
ENDTAB
0
ENDSEC
0
SECTION
2
BLOCKS
0
ENDSEC
0
SECTION
2
ENTITIES
0
LINE
8
0
62
3
10
-10.2182899960
20
30.3828034420
11
-10.2182899960
21
27.1848034420
0
LINE
8
0
62
3
10
-10.2182899960
20
15.3828034420
11
-10.2182899960
21
20.8688034420
0
LINE
8
0
62
3
10
-10.2182899960
20
15.3828034420
11
-7.3345404498
21
15.3828034420
0
LINE
8
0
62
3
10
4.7817100040
20
15.3828034420
11
-0.5978191641
21
15.3828034420
0
LINE
8
0
62
3
10
-4.1002899960
20
17.2508034420
11
-6.4580050596
21
19.4218034420
0
LINE
8
0
62
3
10
-6.6652899960
20
24.7923565452
11
-6.0082899960
21
20.8688034420
0
LINE
8
0
62
3
10
-10.2182899960
20
20.8688034420
11
-6.0082899960
21
20.8688034420
0
POLYLINE
8
0
62
3
66
1
70
0
0
VERTEX
8
0
62
3
10
-6.6652899960
20
24.7923565452
0
VERTEX
8
0
62
3
10
-6.2556345450
20
24.5682793450
0
VERTEX
8
0
62
3
10
-5.9396651727
20
24.4643895291
0
VERTEX
8
0
62
3
10
-5.6903506309
20
24.4373083423
0
VERTEX
8
0
62
3
10
-5.4127776937
20
24.4826504910
0
VERTEX
8
0
62
3
10
-5.1810604294
20
24.6047499047
0
VERTEX
8
0
62
3
10
-4.9954414948
20
24.7841331104
0
VERTEX
8
0
62
3
10
-4.8543104353
20
24.9952108517
0
VERTEX
8
0
62
3
10
-4.7347133392
20
25.2572811000
0
VERTEX
8
0
62
3
10
-4.6379676581
20
25.5739806744
0
VERTEX
8
0
62
3
10
-4.5698325703
20
25.9345721652
0
VERTEX
8
0
62
3
10
-4.5346798455
20
26.3304893643
0
VERTEX
8
0
62
3
10
-4.5418150255
20
26.7564177557
0
VERTEX
8
0
62
3
10
-4.5973828142
20
27.2055865503
0
VERTEX
8
0
62
3
10
-4.6987372740
20
27.6747091304
0
VERTEX
8
0
62
3
10
-4.8327632550
20
28.1377029843
0
VERTEX
8
0
62
3
10
-4.9850088571
20
28.5540447306
0
VERTEX
8
0
62
3
10
-5.1521229520
20
28.9201214259
0
VERTEX
8
0
62
3
10
-5.3268664082
20
29.2251106546
0
VERTEX
8
0
62
3
10
-5.5022019794
20
29.4655105730
0
VERTEX
8
0
62
3
10
-5.6993739720
20
29.6686655346
0
VERTEX
8
0
62
3
10
-5.9098886576
20
29.8166205558
0
VERTEX
8
0
62
3
10
-6.1224928526
20
29.9014339933
0
VERTEX
8
0
62
3
10
-6.3422799180
20
29.9304383583
0
VERTEX
8
0
62
3
10
-6.5842675535
20
29.9092789826
0
VERTEX
8
0
62
3
10
-6.8640748139
20
29.8314670309
0
VERTEX
8
0
62
3
10
-7.1181084599
20
29.7218340586
0
VERTEX
8
0
62
3
10
-7.4031193786
20
29.5635708382
0
VERTEX
8
0
62
3
10
-7.7149107720
20
29.3559429550
0
VERTEX
8
0
62
3
10
-8.0444802555
20
29.1051028632
0
VERTEX
8
0
62
3
10
-8.3815184606
20
28.8223196586
0
VERTEX
8
0
62
3
10
-8.7087551294
20
28.5284757188
0
VERTEX
8
0
62
3
10
-9.0185828598
20
28.2381601218
0
VERTEX
8
0
62
3
10
-9.3003279911
20
27.9689305533
0
VERTEX
8
0
62
3
10
-9.5738332259
20
27.7087503419
0
VERTEX
8
0
62
3
10
-9.8683793523
20
27.4410450295
0
VERTEX
8
0
62
3
10
-10.0803912341
20
27.2708426676
0
VERTEX
8
0
62
3
10
-10.2182899960
20
27.1848034420
0
SEQEND
0
LINE
8
0
62
3
10
1.7557100040
20
16.1648034420
11
-0.4482899960
21
19.9808034420
0
LINE
8
0
62
3
10
-6.4580050596
20
19.4218034420
11
-1.7312899960
21
22.1518034420
0
LINE
8
0
62
3
10
-1.7312899960
20
22.1518034420
11
-0.5978191641
21
15.3828034420
0
LINE
8
0
62
3
10
2.6107100040
20
23.1058034420
11
0.4727100040
21
23.7638034420
0
LINE
8
0
62
3
10
0.4727100040
20
23.7638034420
11
-0.6134982577
21
28.2368034420
0
LINE
8
0
62
3
10
-0.4482899960
20
19.9808034420
11
2.6107100040
21
23.1058034420
0
LINE
8
0
62
3
10
-7.3345404498
20
15.3828034420
11
-4.1002899960
21
17.2508034420
0
LINE
8
0
62
3
10
-0.6134982577
20
28.2368034420
11
3.5975017423
21
28.2368034420
0
LINE
8
0
62
3
10
3.5975017423
20
28.2368034420
11
4.7817100040
21
21.1648034420
0
LINE
8
0
62
3
10
4.7817100040
20
30.3828034420
11
4.7817100040
21
21.1648034420
0
LINE
8
0
62
3
10
4.7817100040
20
15.3828034420
11
4.7817100040
21
18.1388034420
0
LINE
8
0
62
3
10
4.7817100040
20
30.3828034420
11
-10.2182899960
21
30.3828034420
0
LINE
8
0
62
3
10
4.7817100040
20
18.1388034420
11
1.7557100040
21
16.1648034420
0
ENDSEC
0
EOF
