600 0 1 0           
101 GICL ACIS Healer - Source: /gicl/data5/repository/PTC/V20/NC_Training_Rel20/DXF/part_39.prt.sat - 6 0 18 ACIS 6.0.3 Solaris 24 Sat Apr 13 20:51:20 2002 
1 9.999999999999999547e-07 1.000000000000000036e-10 
body $-1 $1 $-1 $-1 #
lump $-1 $-1 $2 $0 #
shell $-1 $-1 $-1 $3 $-1 $1 #
face $-1 $4 $5 $2 $-1 $6 forward single #
face $-1 $7 $8 $2 $-1 $9 forward single #
loop $-1 $-1 $10 $3 #
plane-surface $-1 0 0 0 0 1 0 1 0 0 forward_v I I I I #
face $-1 $11 $12 $2 $-1 $13 forward single #
loop $-1 $-1 $14 $4 #
plane-surface $-1 1.776356839400250465e-15 -1.587499999999999911 -1.587499999999999911 0 0 1 1 0 0 forward_v I I I I #
coedge $-1 $15 $16 $17 $18 forward $5 $-1 #
face $-1 $19 $20 $2 $-1 $21 forward single #
loop $-1 $-1 $22 $7 #
plane-surface $-1 -11.11249999999999893 -1.587499999999999911 -7.9375 -1 0 0 0 0 1 forward_v I I I I #
coedge $-1 $23 $17 $24 $25 forward $8 $-1 #
coedge $-1 $26 $10 $27 $28 forward $5 $-1 #
coedge $-1 $10 $29 $30 $31 forward $5 $-1 #
coedge $-1 $14 $32 $10 $18 reversed $8 $-1 #
edge $-1 $33 0 $34 22.22499999999999787 $10 $35 forward 7 unknown #
face $-1 $36 $37 $2 $-1 $38 forward single #
loop $-1 $-1 $39 $11 #
plane-surface $-1 -15.08124999999999893 -1.587499999999999911 -14.28749999999999964 0 0 1 1 0 0 forward_v I I I I #
coedge $-1 $40 $30 $41 $42 forward $12 $-1 #
coedge $-1 $32 $14 $43 $44 forward $8 $-1 #
coedge $-1 $30 $40 $14 $25 reversed $12 $-1 #
edge $-1 $33 0 $45 3.174999999999999822 $24 $46 forward 7 unknown #
coedge $-1 $47 $15 $48 $49 forward $5 $-1 #
coedge $-1 $50 $51 $15 $28 reversed $52 $-1 #
edge $-1 $34 -4.440892098500626162e-16 $53 12.69999999999999929 $15 $54 forward 7 unknown #
coedge $-1 $16 $55 $56 $57 forward $5 $-1 #
coedge $-1 $22 $24 $16 $31 reversed $12 $-1 #
edge $-1 $58 0 $33 12.69999999999999929 $16 $59 forward 7 unknown #
coedge $-1 $17 $23 $50 $60 reversed $8 $-1 #
vertex $-1 $31 $61 #
vertex $-1 $28 $62 #
straight-curve $-1 -11.11249999999999893 0 -1.587499999999999911 1 0 0 I I #
face $-1 $63 $64 $2 $-1 $65 forward single #
loop $-1 $-1 $66 $19 #
plane-surface $-1 -19.04999999999999716 -1.587499999999999911 -20.63749999999999929 -1 0 0 0 0 1 forward_v I I I I #
coedge $-1 $67 $56 $68 $69 forward $20 $-1 #
coedge $-1 $24 $22 $70 $71 forward $12 $-1 #
coedge $-1 $56 $67 $22 $42 reversed $20 $-1 #
edge $-1 $58 0 $72 3.174999999999999822 $22 $73 forward 7 unknown #
coedge $-1 $70 $74 $23 $44 reversed $75 $-1 #
edge $-1 $45 0 $76 22.22500000000000142 $23 $77 forward 7 unknown #
vertex $-1 $25 $78 #
straight-curve $-1 -11.11249999999999893 0 -1.587499999999999911 0 -1 0 I I #
coedge $-1 $79 $26 $80 $81 forward $5 $-1 #
coedge $-1 $82 $83 $26 $49 reversed $84 $-1 #
edge $-1 $53 0 $85 7.937499999999998224 $26 $86 forward 7 unknown #
coedge $-1 $87 $27 $32 $60 forward $52 $-1 #
coedge $-1 $27 $87 $82 $88 reversed $52 $-1 #
loop $-1 $-1 $50 $89 #
vertex $-1 $49 $90 #
straight-curve $-1 11.11249999999999893 0 -1.587500000000000355 0 0 -1 I I #
coedge $-1 $29 $79 $91 $92 forward $5 $-1 #
coedge $-1 $39 $41 $29 $57 reversed $20 $-1 #
edge $-1 $93 0 $58 7.937499999999998224 $29 $94 forward 7 unknown #
vertex $-1 $31 $95 #
straight-curve $-1 -11.11249999999999893 0 -14.28749999999999964 0 0 1 I I #
edge $-1 $34 0 $76 3.174999999999999822 $50 $96 forward 7 unknown #
point $-1 -11.11249999999999893 0 -1.587499999999999911 #
point $-1 11.11249999999999893 0 -1.587499999999999911 #
face $-1 $97 $98 $2 $-1 $99 forward single #
loop $-1 $-1 $100 $36 #
plane-surface $-1 0 -1.587499999999999911 -26.98749999999999716 0 0 -1 -1 0 0 forward_v I I I I #
coedge $-1 $101 $91 $102 $103 forward $37 $-1 #
coedge $-1 $41 $39 $104 $105 forward $20 $-1 #
coedge $-1 $91 $101 $39 $69 reversed $37 $-1 #
edge $-1 $93 0 $106 3.174999999999999822 $39 $107 forward 7 unknown #
coedge $-1 $104 $43 $40 $71 reversed $75 $-1 #
edge $-1 $72 0 $45 12.69999999999999929 $40 $108 forward 7 unknown #
vertex $-1 $71 $109 #
straight-curve $-1 -11.11249999999999893 0 -14.28749999999999964 0 -1 0 I I #
coedge $-1 $43 $110 $87 $111 reversed $75 $-1 #
loop $-1 $-1 $104 $112 #
vertex $-1 $111 $113 #
straight-curve $-1 -11.11249999999999893 -3.174999999999999822 -1.587499999999999911 1 0 0 I I #
point $-1 -11.11249999999999893 -3.174999999999999822 -1.587499999999999911 #
coedge $-1 $55 $47 $114 $115 forward $5 $-1 #
coedge $-1 $116 $117 $47 $81 reversed $98 $-1 #
edge $-1 $85 0 $118 12.69999999999999751 $47 $119 forward 7 unknown #
coedge $-1 $120 $48 $51 $88 forward $84 $-1 #
coedge $-1 $48 $120 $116 $121 reversed $84 $-1 #
loop $-1 $-1 $82 $97 #
vertex $-1 $81 $122 #
straight-curve $-1 11.11249999999999893 0 -14.28749999999999964 1 0 0 I I #
coedge $-1 $51 $50 $74 $111 forward $52 $-1 #
edge $-1 $53 0 $123 3.174999999999999822 $82 $124 forward 7 unknown #
face $-1 $112 $52 $2 $-1 $125 forward single #
point $-1 11.11249999999999893 0 -14.28749999999999964 #
coedge $-1 $66 $68 $55 $92 reversed $37 $-1 #
edge $-1 $126 0 $93 12.69999999999999751 $55 $127 forward 7 unknown #
vertex $-1 $57 $128 #
straight-curve $-1 -19.04999999999999716 0 -14.28749999999999964 1 0 0 I I #
point $-1 -11.11249999999999893 0 -14.28749999999999964 #
straight-curve $-1 11.11249999999999893 0 -1.587500000000000355 0 -1 0 I I #
face $-1 $89 $84 $2 $-1 $129 forward single #
loop $-1 $-1 $116 $63 #
plane-surface $-1 19.04999999999999716 -1.587499999999999911 -20.63749999999999929 1 0 0 0 0 -1 forward_v I I I I #
coedge $-1 $130 $114 $117 $131 forward $64 $-1 #
coedge $-1 $68 $66 $132 $133 forward $37 $-1 #
coedge $-1 $114 $130 $66 $103 reversed $64 $-1 #
edge $-1 $126 0 $134 3.174999999999999822 $66 $135 forward 7 unknown #
coedge $-1 $132 $70 $67 $105 reversed $75 $-1 #
edge $-1 $106 0 $72 7.937499999999998224 $67 $136 forward 7 unknown #
vertex $-1 $105 $137 #
straight-curve $-1 -19.04999999999999716 0 -14.28749999999999964 0 -1 0 I I #
straight-curve $-1 -11.11249999999999893 -3.174999999999999822 -14.28749999999999964 0 0 1 I I #
point $-1 -11.11249999999999893 -3.174999999999999822 -14.28749999999999964 #
coedge $-1 $74 $138 $120 $139 reversed $75 $-1 #
edge $-1 $76 -4.440892098500626162e-16 $123 12.69999999999999929 $87 $140 forward 7 unknown #
face $-1 $-1 $75 $2 $-1 $141 reversed single #
point $-1 11.11250000000000071 -3.174999999999999822 -1.587499999999999911 #
coedge $-1 $100 $102 $79 $115 reversed $64 $-1 #
edge $-1 $118 0 $126 38.09999999999999432 $79 $142 forward 7 unknown #
coedge $-1 $143 $80 $83 $121 forward $98 $-1 #
coedge $-1 $80 $143 $100 $131 reversed $98 $-1 #
vertex $-1 $115 $144 #
straight-curve $-1 19.04999999999999716 0 -14.28749999999999964 0 0 -1 I I #
coedge $-1 $83 $82 $110 $139 forward $84 $-1 #
edge $-1 $85 0 $145 3.174999999999999822 $116 $146 forward 7 unknown #
point $-1 19.04999999999999716 0 -14.28749999999999964 #
vertex $-1 $139 $147 #
straight-curve $-1 11.11249999999999893 0 -14.28749999999999964 0 -1 0 I I #
plane-surface $-1 11.11249999999999893 -1.587499999999999911 -7.9375 1 0 0 0 0 -1 forward_v I I I I #
vertex $-1 $92 $148 #
straight-curve $-1 -19.04999999999999716 0 -26.98749999999999716 0 0 1 I I #
point $-1 -19.04999999999999716 0 -14.28749999999999964 #
plane-surface $-1 15.08124999999999893 -1.587499999999999911 -14.28749999999999964 0 0 1 1 0 0 forward_v I I I I #
coedge $-1 $102 $100 $149 $150 forward $64 $-1 #
edge $-1 $118 0 $151 3.174999999999999822 $100 $152 forward 7 unknown #
coedge $-1 $149 $104 $101 $133 reversed $75 $-1 #
edge $-1 $134 0 $106 12.69999999999999751 $101 $153 forward 7 unknown #
vertex $-1 $133 $154 #
straight-curve $-1 -19.04999999999999716 0 -26.98749999999999716 0 -1 0 I I #
straight-curve $-1 -19.04999999999999716 -3.174999999999999822 -14.28749999999999964 1 0 0 I I #
point $-1 -19.04999999999999716 -3.174999999999999822 -14.28749999999999964 #
coedge $-1 $110 $149 $143 $155 reversed $75 $-1 #
edge $-1 $123 0 $145 7.937499999999998224 $120 $156 forward 7 unknown #
straight-curve $-1 11.11249999999999893 -3.174999999999999822 -1.587500000000000355 0 0 -1 I I #
plane-surface $-1 0 -3.174999999999999822 0 0 1 0 1 0 0 forward_v I I I I #
straight-curve $-1 19.04999999999999716 0 -26.98749999999999716 -1 0 0 I I #
coedge $-1 $117 $116 $138 $155 forward $98 $-1 #
point $-1 19.04999999999999716 0 -26.98749999999999716 #
vertex $-1 $155 $157 #
straight-curve $-1 19.04999999999999716 0 -14.28749999999999964 0 -1 0 I I #
point $-1 11.11249999999999893 -3.174999999999999822 -14.28749999999999964 #
point $-1 -19.04999999999999716 0 -26.98749999999999716 #
coedge $-1 $138 $132 $130 $150 reversed $75 $-1 #
edge $-1 $151 0 $134 38.09999999999999432 $130 $158 forward 7 unknown #
vertex $-1 $150 $159 #
straight-curve $-1 19.04999999999999716 0 -26.98749999999999716 0 -1 0 I I #
straight-curve $-1 -19.04999999999999716 -3.174999999999999822 -26.98749999999999716 0 0 1 I I #
point $-1 -19.04999999999999716 -3.174999999999999822 -26.98749999999999716 #
edge $-1 $145 0 $151 12.69999999999999751 $143 $160 forward 7 unknown #
straight-curve $-1 11.11249999999999893 -3.174999999999999822 -14.28749999999999964 1 0 0 I I #
point $-1 19.04999999999999716 -3.174999999999999822 -14.28749999999999964 #
straight-curve $-1 19.04999999999999716 -3.174999999999999822 -26.98749999999999716 -1 0 0 I I #
point $-1 19.04999999999999716 -3.174999999999999822 -26.98749999999999716 #
straight-curve $-1 19.04999999999999716 -3.174999999999999822 -14.28749999999999964 0 0 -1 I I #
End-of-ACIS-data 