600 0 1 0           
104 GICL Pro/E ACIS Translator - Source: f:/data5/repository/PTC/V20/NC_Training_Rel20/DXF/part_19.prt - 6 0 13 ACIS 6.0.3 NT 24 Thu Apr 04 13:13:38 2002 
1 9.9999999999999995e-007 1e-010 
body $-1 $1 $-1 $-1 #
lump $-1 $-1 $2 $0 #
shell $-1 $-1 $-1 $3 $-1 $1 #
face $-1 $4 $5 $2 $-1 $6 forward single #
face $-1 $7 $8 $2 $-1 $9 forward single #
loop $-1 $10 $11 $3 #
plane-surface $-1 600 0 0 0 1 0 -1 0 0 forward_v I I I I #
face $-1 $12 $13 $2 $-1 $14 reversed single #
loop $-1 $-1 $15 $4 #
plane-surface $-1 300 -1 0 0 0 -1 -1 0 0 forward_v I I I I #
loop $-1 $-1 $16 $3 #
coedge $-1 $17 $18 $19 $20 forward $5 $-1 #
face $-1 $21 $22 $2 $-1 $23 reversed single #
loop $-1 $24 $25 $7 #
plane-surface $-1 600 -2 0 0 1 0 -1 0 0 forward_v I I I I #
coedge $-1 $26 $27 $28 $29 forward $8 $-1 #
coedge $-1 $30 $31 $32 $33 forward $10 $-1 #
coedge $-1 $34 $11 $35 $36 forward $5 $-1 #
coedge $-1 $11 $37 $38 $39 forward $5 $-1 #
coedge $-1 $27 $26 $11 $20 reversed $8 $-1 #
edge $-1 $40 0 $41 535 $11 $42 forward 7 unknown #
face $-1 $43 $44 $2 $-1 $45 reversed single #
loop $-1 $-1 $46 $12 #
plane-surface $-1 600 -1 200 -1 0 0 0 0 1 forward_v I I I I #
loop $-1 $-1 $47 $7 #
coedge $-1 $48 $49 $50 $51 forward $13 $-1 #
coedge $-1 $19 $15 $52 $53 reversed $8 $-1 #
coedge $-1 $15 $19 $54 $55 forward $8 $-1 #
coedge $-1 $49 $56 $15 $29 reversed $13 $-1 #
edge $-1 $57 0 $58 535 $15 $59 forward 7 unknown #
coedge $-1 $60 $16 $61 $62 forward $10 $-1 #
coedge $-1 $16 $60 $63 $64 forward $10 $-1 #
coedge $-1 $65 $66 $16 $33 reversed $67 $-1 #
edge $-1 $68 0 $69 150 $16 $70 forward 7 unknown #
coedge $-1 $71 $17 $72 $73 forward $5 $-1 #
coedge $-1 $52 $74 $17 $36 reversed $75 $-1 #
edge $-1 $41 0 $76 1.5707963267948841 $17 $77 forward 7 unknown #
coedge $-1 $18 $71 $46 $78 reversed $5 $-1 #
coedge $-1 $79 $54 $18 $39 reversed $80 $-1 #
edge $-1 $81 0 $40 1.5707963492252477 $18 $82 forward 7 unknown #
vertex $-1 $39 $83 #
vertex $-1 $36 $84 #
straight-curve $-1 560 0 0 -1 0 0 I I #
face $-1 $85 $86 $2 $-1 $87 forward single #
loop $-1 $-1 $88 $21 #
plane-surface $-1 300 -1 400 0 0 -1 -1 0 0 forward_v I I I I #
coedge $-1 $89 $90 $37 $78 forward $22 $-1 #
coedge $-1 $91 $92 $93 $94 reversed $24 $-1 #
coedge $-1 $95 $25 $96 $97 forward $13 $-1 #
coedge $-1 $25 $28 $98 $99 reversed $13 $-1 #
coedge $-1 $90 $89 $25 $51 reversed $22 $-1 #
edge $-1 $100 -7.1054273576010019e-015 $101 359.99999910278598 $50 $102 forward 7 unknown #
coedge $-1 $103 $35 $26 $53 forward $75 $-1 #
edge $-1 $41 2.122982468130787e-026 $58 2 $52 $104 forward 7 unknown #
coedge $-1 $38 $98 $27 $55 reversed $80 $-1 #
edge $-1 $40 0 $57 2 $54 $105 forward 7 unknown #
coedge $-1 $28 $95 $103 $106 reversed $13 $-1 #
vertex $-1 $55 $107 #
vertex $-1 $106 $108 #
straight-curve $-1 560 -2 0 -1 0 0 I I #
coedge $-1 $31 $30 $109 $110 forward $10 $-1 #
coedge $-1 $111 $112 $30 $62 reversed $113 $-1 #
edge $-1 $69 0 $114 200 $30 $115 forward 7 unknown #
coedge $-1 $116 $117 $31 $64 reversed $118 $-1 #
edge $-1 $119 0 $68 200 $31 $120 forward 7 unknown #
coedge $-1 $121 $32 $117 $122 forward $67 $-1 #
coedge $-1 $32 $121 $111 $123 reversed $67 $-1 #
loop $-1 $-1 $65 $124 #
vertex $-1 $64 $125 #
vertex $-1 $62 $126 #
straight-curve $-1 400 0 125 0 0 1 I I #
coedge $-1 $37 $34 $127 $128 reversed $5 $-1 #
coedge $-1 $129 $130 $34 $73 reversed $86 $-1 #
edge $-1 $76 -7.1054273576010019e-015 $131 375 $34 $132 forward 7 unknown #
coedge $-1 $35 $103 $129 $133 reversed $75 $-1 #
loop $-1 $-1 $52 $85 #
vertex $-1 $73 $134 #
ellipse-curve $-1 25.000000000000099 0 25.000000000000206 0 1 0 -9.9475983006414026e-014 0 -25.000000000000206 1 I I #
edge $-1 $81 -7.1054273576010019e-015 $135 359.99999910278598 $37 $136 forward 7 unknown #
coedge $-1 $98 $38 $90 $137 forward $80 $-1 #
loop $-1 $-1 $79 $138 #
vertex $-1 $39 $139 #
ellipse-curve $-1 560 0 40 0 1 0 40 0 8.972140435048459e-007 1 I I #
point $-1 560 0 0 #
point $-1 25 0 0 #
face $-1 $138 $75 $2 $-1 $140 forward single #
loop $-1 $-1 $141 $43 #
plane-surface $-1 0 -1 200 -1 0 0 0 0 1 forward_v I I I I #
coedge $-1 $96 $127 $130 $142 forward $44 $-1 #
coedge $-1 $50 $46 $143 $144 forward $22 $-1 #
coedge $-1 $46 $50 $79 $137 reversed $22 $-1 #
coedge $-1 $145 $47 $146 $147 reversed $24 $-1 #
coedge $-1 $47 $145 $148 $149 reversed $24 $-1 #
coedge $-1 $150 $151 $47 $94 forward $152 $-1 #
edge $-1 $153 0 $154 150 $47 $155 forward 7 unknown #
coedge $-1 $56 $48 $141 $156 reversed $13 $-1 #
coedge $-1 $143 $88 $48 $97 reversed $44 $-1 #
edge $-1 $101 0 $157 600 $96 $158 forward 7 unknown #
coedge $-1 $54 $79 $49 $99 forward $80 $-1 #
edge $-1 $100 0 $57 1.5707963492252481 $98 $159 forward 7 unknown #
vertex $-1 $99 $160 #
vertex $-1 $51 $161 #
straight-curve $-1 600 -2 40.000000897214051 0 0 1 I I #
coedge $-1 $74 $52 $56 $106 forward $75 $-1 #
straight-curve $-1 25 0 2.0605739337042905e-013 0 -1 -1.0302869668521453e-013 I I #
straight-curve $-1 560 0 0 0 -1 0 I I #
edge $-1 $58 0 $162 1.5707963267948943 $103 $163 forward 7 unknown #
point $-1 560 -2 0 #
point $-1 25 -2 0 #
coedge $-1 $151 $150 $60 $110 reversed $152 $-1 #
edge $-1 $114 0 $119 150 $60 $164 forward 7 unknown #
coedge $-1 $146 $61 $66 $123 forward $113 $-1 #
coedge $-1 $61 $146 $151 $165 reversed $113 $-1 #
loop $-1 $-1 $111 $166 #
vertex $-1 $110 $167 #
straight-curve $-1 400 0 275 -1 0 0 I I #
coedge $-1 $148 $63 $150 $168 forward $118 $-1 #
coedge $-1 $63 $148 $65 $122 reversed $118 $-1 #
loop $-1 $-1 $116 $169 #
vertex $-1 $64 $170 #
straight-curve $-1 200 0 125 1 0 0 I I #
coedge $-1 $66 $65 $145 $171 forward $67 $-1 #
edge $-1 $68 0 $172 2 $117 $173 forward 7 unknown #
edge $-1 $69 0 $174 2 $111 $175 forward 7 unknown #
face $-1 $169 $67 $2 $-1 $176 forward single #
point $-1 400 0 125 #
point $-1 400 0 275 #
coedge $-1 $88 $143 $71 $128 forward $44 $-1 #
edge $-1 $135 0 $131 600 $71 $177 forward 7 unknown #
coedge $-1 $141 $72 $74 $133 forward $86 $-1 #
coedge $-1 $72 $141 $88 $142 reversed $86 $-1 #
vertex $-1 $128 $178 #
straight-curve $-1 0 0 25 0 0 1 I I #
edge $-1 $76 0 $162 2 $129 $179 forward 7 unknown #
point $-1 9.9475983006414026e-014 0 24.999999999999993 #
vertex $-1 $78 $180 #
straight-curve $-1 600 0 40.000000897214051 0 0 1 I I #
edge $-1 $81 6.0584517520973707e-028 $100 2 $79 $181 forward 7 unknown #
face $-1 $182 $80 $2 $-1 $183 forward single #
point $-1 600 0 40.000000897214044 #
cone-surface $-1 25.000000000000099 0 25.000000000000206 0 1 0 -9.9475983006413206e-014 0 -25 1 I I 0 1 25 forward I I I I #
coedge $-1 $130 $129 $95 $156 forward $86 $-1 #
edge $-1 $131 0 $157 2 $88 $184 forward 7 unknown #
coedge $-1 $127 $96 $89 $144 reversed $44 $-1 #
edge $-1 $135 0 $101 2 $89 $185 forward 7 unknown #
coedge $-1 $92 $91 $121 $171 reversed $24 $-1 #
coedge $-1 $112 $111 $91 $147 forward $113 $-1 #
edge $-1 $174 0 $153 200 $91 $186 forward 7 unknown #
coedge $-1 $117 $116 $92 $149 forward $118 $-1 #
edge $-1 $154 0 $172 200 $92 $187 forward 7 unknown #
coedge $-1 $109 $93 $116 $168 reversed $152 $-1 #
coedge $-1 $93 $109 $112 $165 forward $152 $-1 #
loop $-1 $-1 $151 $182 #
vertex $-1 $147 $188 #
vertex $-1 $149 $189 #
straight-curve $-1 200 -2 275 0 0 -1 I I #
edge $-1 $162 -7.1054273576010019e-015 $157 375 $141 $190 forward 7 unknown #
vertex $-1 $97 $191 #
straight-curve $-1 600 -2 400 -1 0 0 I I #
ellipse-curve $-1 560 -2 39.999999999999979 0 1 0 40 0 8.9721406482112798e-007 1 I I #
point $-1 600 -2 40.000000897214044 #
point $-1 600 -2 400 #
vertex $-1 $133 $192 #
ellipse-curve $-1 25 -2 25.00000000000005 0 1 0 0 0 -25.00000000000005 1 I I #
straight-curve $-1 200 0 275 0 0 -1 I I #
edge $-1 $114 0 $153 2 $151 $193 forward 7 unknown #
face $-1 $124 $113 $2 $-1 $194 forward single #
point $-1 200 0 275 #
edge $-1 $119 0 $154 2 $116 $195 forward 7 unknown #
face $-1 $-1 $118 $2 $-1 $196 forward single #
point $-1 200 0 125 #
edge $-1 $172 0 $174 150 $145 $197 forward 7 unknown #
vertex $-1 $149 $198 #
straight-curve $-1 400 0 125 0 -1 0 I I #
vertex $-1 $171 $199 #
straight-curve $-1 400 0 275 0 -1 0 I I #
plane-surface $-1 400 -1 200 -1 0 0 0 0 1 forward_v I I I I #
straight-curve $-1 600 0 400 -1 0 0 I I #
point $-1 0 0 400 #
straight-curve $-1 0 0 25 0 -1 0 I I #
point $-1 600 0 400 #
straight-curve $-1 600 0 40.0000008972141 0 -1 -1.0658141036401503e-014 I I #
face $-1 $166 $152 $2 $-1 $200 forward single #
cone-surface $-1 560 0 40 0 1 0 40 0 8.9721410034826466e-007 1 I I 0 1 40.000000000000014 forward I I I I #
straight-curve $-1 0 0 400 0 -1 0 I I #
straight-curve $-1 600 0 400 0 -1 0 I I #
straight-curve $-1 400 -2 275 -1 0 0 I I #
straight-curve $-1 200 -2 125 1 0 0 I I #
point $-1 200 -2 275 #
point $-1 200 -2 125 #
straight-curve $-1 0 -2 25 0 0 1 I I #
point $-1 0 -2 400 #
point $-1 9.9475983006414026e-014 -2 24.999999999999993 #
straight-curve $-1 200 0 275 0 -1 0 I I #
plane-surface $-1 300 -1 275 0 0 -1 -1 0 0 forward_v I I I I #
straight-curve $-1 200 0 125 0 -1 0 I I #
plane-surface $-1 300 -1 125 0 0 1 1 0 0 forward_v I I I I #
straight-curve $-1 400 -2 125 0 0 1 I I #
point $-1 400 -2 125 #
point $-1 400 -2 275 #
plane-surface $-1 200 -1 200 1 0 0 0 0 -1 forward_v I I I I #
End-of-ACIS-data 