600 0 1 0           
101 GICL ACIS Healer - Source: /gicl/data5/repository/PTC/V20/NC_Training_Rel20/DXF/part_22.prt.sat - 6 0 18 ACIS 6.0.3 Solaris 24 Sat Apr 13 20:50:45 2002 
1 9.999999999999999547e-07 1.000000000000000036e-10 
body $-1 $1 $-1 $-1 #
lump $-1 $-1 $2 $0 #
shell $-1 $-1 $-1 $3 $-1 $1 #
face $-1 $4 $5 $2 $-1 $6 forward single #
face $-1 $7 $8 $2 $-1 $9 reversed single #
loop $-1 $10 $11 $3 #
plane-surface $-1 0 20 0 0 1 0 1 0 0 forward_v I I I I #
face $-1 $12 $13 $2 $-1 $14 reversed single #
loop $-1 $-1 $15 $4 #
cone-surface $-1 0 10 0 0 -1 0 -20 0 0 1 I I 0 1 20 forward I I I I #
loop $-1 $-1 $16 $3 #
coedge $-1 $17 $17 $18 $19 forward $5 $-1 #
face $-1 $20 $21 $2 $-1 $22 reversed single #
loop $-1 $-1 $23 $7 #
cone-surface $-1 0 10 0 0 -1 0 20 0 0 1 I I 0 1 20 forward I I I I #
coedge $-1 $24 $18 $25 $26 forward $8 $-1 #
coedge $-1 $27 $28 $29 $30 forward $10 $-1 #
coedge $-1 $11 $11 $31 $32 forward $5 $-1 #
coedge $-1 $15 $33 $11 $19 reversed $8 $-1 #
edge $-1 $34 0 $35 3.141592653589793116 $11 $36 forward 7 unknown #
face $-1 $37 $38 $2 $-1 $39 forward single #
loop $-1 $40 $41 $12 #
plane-surface $-1 0 0 0 0 1 0 1 0 0 forward_v I I I I #
coedge $-1 $42 $31 $33 $43 forward $13 $-1 #
coedge $-1 $33 $15 $41 $44 forward $8 $-1 #
coedge $-1 $31 $42 $15 $26 reversed $13 $-1 #
edge $-1 $34 0 $45 20 $25 $46 forward 7 unknown #
coedge $-1 $47 $16 $48 $49 forward $10 $-1 #
coedge $-1 $16 $50 $51 $52 forward $10 $-1 #
coedge $-1 $53 $54 $16 $30 reversed $55 $-1 #
edge $-1 $56 0 $57 60.71948343399516546 $16 $58 forward 7 unknown #
coedge $-1 $23 $25 $17 $32 reversed $13 $-1 #
edge $-1 $35 0 $34 3.141592653589793116 $17 $59 forward 7 unknown #
coedge $-1 $18 $24 $23 $43 reversed $8 $-1 #
vertex $-1 $32 $60 #
vertex $-1 $32 $61 #
ellipse-curve $-1 8.881784197001252323e-16 20 0 0 -1 0 -20 0 0 1 I I #
face $-1 $62 $63 $2 $-1 $64 reversed single #
loop $-1 $-1 $65 $20 #
plane-surface $-1 30.44483671651273937 10 -49.56871662829028935 -0.2588190451025205174 0 -0.9659258262890684232 -0.9659258262890683122 0 0.2588190451025204619 forward_v I I I I #
loop $-1 $-1 $66 $12 #
coedge $-1 $67 $67 $24 $44 reversed $21 $-1 #
coedge $-1 $25 $23 $67 $68 forward $13 $-1 #
edge $-1 $35 0 $69 20 $23 $70 forward 7 unknown #
edge $-1 $45 0 $69 3.141592653589793116 $24 $71 forward 7 unknown #
vertex $-1 $26 $72 #
straight-curve $-1 -20 20 2.449212707644754516e-15 0 -1 0 I I #
coedge $-1 $73 $27 $74 $75 forward $10 $-1 #
coedge $-1 $76 $77 $27 $49 reversed $78 $-1 #
edge $-1 $57 0 $79 0.4363323129985818838 $27 $80 forward 7 unknown #
coedge $-1 $28 $81 $82 $83 forward $10 $-1 #
coedge $-1 $84 $85 $28 $52 reversed $86 $-1 #
edge $-1 $87 0 $56 2.617993877991494855 $28 $88 forward 7 unknown #
coedge $-1 $89 $29 $85 $90 forward $55 $-1 #
coedge $-1 $29 $89 $76 $91 reversed $55 $-1 #
loop $-1 $-1 $53 $92 #
vertex $-1 $52 $93 #
vertex $-1 $49 $94 #
straight-curve $-1 -10.35276180410081892 20 38.6370330515627316 0.9659258262890684232 0 0.2588190451025202954 I I #
ellipse-curve $-1 8.881784197001252323e-16 20 -8.881784197001252323e-16 0 -1 0 20 0 8.881784197001252323e-16 1 I I #
point $-1 -20 20 0 #
point $-1 20 20 0 #
face $-1 $95 $96 $2 $-1 $97 forward single #
loop $-1 $-1 $98 $37 #
cone-surface $-1 61.44722541772144808 10 -97.05662092183436584 0 -1 0 37.27082204754361072 0 6.5718515201659784 1 I I 0 1 37.84578455393375407 forward I I I I #
coedge $-1 $99 $82 $100 $101 forward $38 $-1 #
coedge $-1 $102 $103 $99 $104 reversed $40 $-1 #
coedge $-1 $41 $41 $42 $68 reversed $21 $-1 #
edge $-1 $69 0 $45 3.141592653589793116 $42 $105 forward 7 unknown #
vertex $-1 $68 $106 #
straight-curve $-1 20 20 -2.449212707644754516e-15 0 -1 0 I I #
ellipse-curve $-1 8.881784197001252323e-16 0 0 0 -1 0 -20 0 0 1 I I #
point $-1 -20 0 0 #
coedge $-1 $107 $47 $108 $109 forward $10 $-1 #
coedge $-1 $110 $111 $47 $75 reversed $112 $-1 #
edge $-1 $79 1.088614628655164708e-14 $113 66.21930723000164676 $47 $114 forward 7 unknown #
coedge $-1 $115 $48 $54 $91 forward $78 $-1 #
coedge $-1 $48 $115 $110 $116 reversed $78 $-1 #
loop $-1 $-1 $76 $117 #
vertex $-1 $75 $118 #
ellipse-curve $-1 25.00404134449954796 20 141.2857161390842293 0 -1 0 23.29371405922680793 0 -86.93332436601656354 1 I I #
coedge $-1 $50 $119 $120 $121 forward $10 $-1 #
coedge $-1 $65 $122 $50 $83 reversed $38 $-1 #
edge $-1 $123 0 $87 84.47356393264973917 $50 $124 forward 7 unknown #
coedge $-1 $125 $51 $122 $126 forward $86 $-1 #
coedge $-1 $51 $125 $53 $90 reversed $86 $-1 #
loop $-1 $-1 $84 $127 #
vertex $-1 $52 $128 #
ellipse-curve $-1 -1.776356839400250465e-15 20 1.776356839400250465e-15 0 1 0 -10.35276180410082247 0 -38.6370330515627316 1 I I #
coedge $-1 $54 $53 $129 $130 forward $55 $-1 #
edge $-1 $56 0 $131 20 $85 $132 forward 7 unknown #
edge $-1 $57 0 $133 20 $76 $134 forward 7 unknown #
face $-1 $127 $55 $2 $-1 $135 forward single #
point $-1 -10.35276180410081892 20 38.6370330515627316 #
point $-1 48.29775540372635589 20 54.35239177306765868 #
face $-1 $136 $137 $2 $-1 $138 forward single #
loop $-1 $-1 $139 $62 #
plane-surface $-1 111.0281443779176556 10 -88.31416718083170281 0.1736481776669341615 0 -0.9848077530122074652 -0.9848077530122074652 0 -0.1736481776669341615 forward_v I I I I #
coedge $-1 $140 $120 $141 $142 forward $63 $-1 #
coedge $-1 $122 $65 $66 $104 forward $38 $-1 #
coedge $-1 $120 $140 $65 $101 reversed $63 $-1 #
edge $-1 $123 0 $143 20 $65 $144 forward 7 unknown #
coedge $-1 $145 $66 $140 $146 reversed $40 $-1 #
coedge $-1 $66 $129 $125 $147 reversed $40 $-1 #
edge $-1 $143 -1.372663158305540114e-14 $148 84.47356393264973917 $99 $149 forward 7 unknown #
ellipse-curve $-1 8.881784197001252323e-16 0 -8.881784197001252323e-16 0 -1 0 20 0 8.881784197001252323e-16 1 I I #
point $-1 20 0 0 #
coedge $-1 $150 $73 $151 $152 forward $10 $-1 #
coedge $-1 $153 $154 $73 $109 reversed $155 $-1 #
edge $-1 $113 -1.088614628655165023e-14 $156 29.99999999999998934 $73 $157 forward 7 unknown #
coedge $-1 $158 $74 $77 $116 forward $112 $-1 #
coedge $-1 $74 $158 $153 $159 reversed $112 $-1 #
loop $-1 $-1 $110 $160 #
vertex $-1 $109 $161 #
straight-curve $-1 82.85492621628816323 20 72.34171625837576869 0.7660444431189797898 0 0.6427876096865372535 I I #
coedge $-1 $77 $76 $162 $163 forward $78 $-1 #
edge $-1 $79 0 $164 20 $110 $165 forward 7 unknown #
face $-1 $92 $78 $2 $-1 $166 reversed single #
point $-1 82.85492621628817744 20 72.34171625837576869 #
coedge $-1 $81 $150 $167 $168 forward $10 $-1 #
coedge $-1 $98 $100 $81 $121 reversed $63 $-1 #
edge $-1 $169 0 $123 1.134464013796310011 $81 $170 forward 7 unknown #
coedge $-1 $82 $99 $84 $126 reversed $38 $-1 #
vertex $-1 $83 $171 #
straight-curve $-1 71.24243523712630122 20 -60.5004002050178471 -0.9659258262890683122 0 0.2588190451025204619 I I #
coedge $-1 $85 $84 $103 $147 forward $86 $-1 #
edge $-1 $87 0 $148 20 $84 $172 forward 7 unknown #
face $-1 $-1 $86 $2 $-1 $173 forward single #
point $-1 -10.35276180410082425 20 -38.6370330515627316 #
coedge $-1 $103 $162 $89 $130 reversed $40 $-1 #
edge $-1 $131 0 $133 60.71948343399516546 $89 $174 forward 7 unknown #
vertex $-1 $90 $175 #
straight-curve $-1 -10.35276180410081182 20 38.6370330515627316 0 -1 0 I I #
vertex $-1 $163 $176 #
straight-curve $-1 48.29775540372635589 20 54.35239177306765868 0 -1 0 I I #
plane-surface $-1 18.97249679981277026 10 46.49471241231519514 -0.2588190451025203509 0 0.9659258262890684232 0.9659258262890683122 0 0.2588190451025202954 forward_v I I I I #
face $-1 $177 $178 $2 $-1 $179 reversed single #
loop $-1 $-1 $180 $95 #
plane-surface $-1 117.5806554645526774 10 -53.49067314001354134 0.9848077530122075762 0 0.1736481776669333843 0.1736481776669333843 0 -0.9848077530122075762 forward_v I I I I #
coedge $-1 $181 $167 $182 $183 forward $96 $-1 #
coedge $-1 $100 $98 $102 $146 forward $63 $-1 #
coedge $-1 $167 $181 $98 $142 reversed $96 $-1 #
edge $-1 $169 0 $184 20 $98 $185 forward 7 unknown #
vertex $-1 $104 $186 #
straight-curve $-1 71.24243523712631543 20 -60.5004002050178542 0 -1 0 I I #
coedge $-1 $187 $102 $181 $188 reversed $40 $-1 #
edge $-1 $184 3.770238037359458674e-16 $143 1.134464013796309567 $140 $189 forward 7 unknown #
edge $-1 $148 0 $131 2.617993877991494855 $125 $190 forward 7 unknown #
vertex $-1 $147 $191 #
straight-curve $-1 71.24243523712630122 0 -60.5004002050178471 -0.9659258262890683122 0 0.2588190451025204619 I I #
coedge $-1 $119 $107 $192 $193 forward $10 $-1 #
coedge $-1 $194 $195 $107 $152 reversed $178 $-1 #
edge $-1 $156 0 $196 1.047197551196603849 $107 $197 forward 7 unknown #
coedge $-1 $198 $108 $111 $159 forward $155 $-1 #
coedge $-1 $108 $198 $194 $199 reversed $155 $-1 #
loop $-1 $-1 $153 $177 #
vertex $-1 $152 $200 #
straight-curve $-1 133.581858547019408 20 114.9066664678469465 0.6427876096865371425 0 -0.7660444431189797898 I I #
coedge $-1 $111 $110 $201 $202 forward $112 $-1 #
edge $-1 $113 0 $203 20 $153 $204 forward 7 unknown #
face $-1 $117 $112 $2 $-1 $205 forward single #
point $-1 133.581858547019408 20 114.9066664678469607 #
coedge $-1 $129 $201 $115 $163 reversed $40 $-1 #
edge $-1 $133 0 $164 0.4363323129985817728 $115 $206 forward 7 unknown #
vertex $-1 $202 $207 #
straight-curve $-1 82.85492621628816323 20 72.34171625837576869 0 -1 0 I I #
cone-surface $-1 25.00404134449973981 10 141.2857161390838883 0 -1 0 23.29371405922661253 0 -86.93332436601620827 1 I I 0 1 90 forward I I I I #
coedge $-1 $139 $141 $119 $168 reversed $96 $-1 #
edge $-1 $208 0 $169 25.00000000000001421 $119 $209 forward 7 unknown #
vertex $-1 $121 $210 #
ellipse-curve $-1 61.44722541772141255 20 -97.05662092183439427 0 -1 0 37.27082204754364625 0 6.571851520166006821 1 I I #
point $-1 71.24243523712630122 20 -60.5004002050178471 #
straight-curve $-1 -10.35276180410081537 20 -38.6370330515627316 0 -1 0 I I #
cone-surface $-1 0 10 0 0 1 0 -10.3527618041008278 0 -38.63703305156273871 1 I I 0 1 40.00000000000000711 forward I I I I #
straight-curve $-1 -10.35276180410081892 0 38.6370330515627316 0.9659258262890684232 0 0.2588190451025202954 I I #
point $-1 -10.35276180410081892 0 38.6370330515627316 #
point $-1 48.29775540372635589 0 54.35239177306765868 #
face $-1 $160 $155 $2 $-1 $211 forward single #
loop $-1 $-1 $194 $136 #
cone-surface $-1 230 10 0 0 -1 0 -77.1345131623844793 0 91.92533317427756856 1 I I 0 1 120 forward I I I I #
coedge $-1 $212 $192 $195 $213 forward $137 $-1 #
coedge $-1 $141 $139 $145 $188 forward $96 $-1 #
coedge $-1 $192 $212 $139 $183 reversed $137 $-1 #
edge $-1 $208 0 $214 20 $139 $215 forward 7 unknown #
vertex $-1 $146 $216 #
straight-curve $-1 98.7180474652650588 20 -90.48476940166837323 0 -1 0 I I #
point $-1 71.24243523712631543 0 -60.5004002050178471 #
coedge $-1 $217 $145 $212 $218 reversed $40 $-1 #
edge $-1 $214 0 $184 25.00000000000001066 $181 $219 forward 7 unknown #
ellipse-curve $-1 61.44722541772141255 0 -97.05662092183439427 0 -1 0 37.27082204754364625 0 6.571851520166006821 1 I I #
ellipse-curve $-1 -1.776356839400250465e-15 0 1.776356839400250465e-15 0 1 0 -10.35276180410082247 0 -38.6370330515627316 1 I I #
point $-1 -10.35276180410082425 0 -38.6370330515627316 #
coedge $-1 $180 $182 $150 $193 reversed $137 $-1 #
edge $-1 $196 3.498739975115255079e-15 $208 66.31323061807117369 $150 $220 forward 7 unknown #
coedge $-1 $221 $151 $154 $199 forward $178 $-1 #
coedge $-1 $151 $221 $180 $213 reversed $178 $-1 #
vertex $-1 $193 $222 #
ellipse-curve $-1 230 20 7.105427357601001859e-15 0 -1 0 -77.1345131623844793 0 91.92533317427756856 1 I I #
coedge $-1 $154 $153 $223 $224 forward $155 $-1 #
edge $-1 $156 0 $225 20 $194 $226 forward 7 unknown #
point $-1 152.8654868376155207 20 91.92533317427756856 #
coedge $-1 $162 $223 $158 $202 reversed $40 $-1 #
edge $-1 $164 0 $203 66.21930723000164676 $158 $227 forward 7 unknown #
vertex $-1 $224 $228 #
straight-curve $-1 133.581858547019408 20 114.9066664678469465 0 -1 0 I I #
plane-surface $-1 108.2183923816537856 10 93.62419136311136469 -0.6427876096865373645 0 0.7660444431189797898 0.7660444431189797898 0 0.6427876096865373645 forward_v I I I I #
ellipse-curve $-1 25.00404134449954796 0 141.2857161390842293 0 -1 0 23.29371405922680793 0 -86.93332436601656354 1 I I #
point $-1 82.85492621628816323 0 72.34171625837576869 #
vertex $-1 $168 $229 #
straight-curve $-1 123.3382412905702523 20 -86.14356495999503238 -0.9848077530122073542 0 -0.1736481776669341337 I I #
point $-1 98.7180474652650588 20 -90.48476940166838745 #
plane-surface $-1 143.2236726923174501 10 103.4159998210622575 0.7660444431189799008 0 0.6427876096865372535 0.6427876096865372535 0 -0.7660444431189799008 forward_v I I I I #
coedge $-1 $182 $180 $187 $218 forward $137 $-1 #
edge $-1 $196 0 $230 20 $180 $231 forward 7 unknown #
vertex $-1 $188 $232 #
straight-curve $-1 123.3382412905702523 20 -86.14356495999503238 0 -1 0 I I #
point $-1 98.7180474652650588 0 -90.48476940166837323 #
coedge $-1 $223 $187 $221 $233 reversed $40 $-1 #
edge $-1 $230 -1.646264892484539469e-14 $214 66.31323061807117369 $212 $234 forward 7 unknown #
straight-curve $-1 123.3382412905702523 0 -86.14356495999503238 -0.9848077530122073542 0 -0.1736481776669341337 I I #
straight-curve $-1 111.8230696385351024 20 -20.83778132003203609 0.1736481776669333843 0 -0.9848077530122075762 I I #
coedge $-1 $195 $194 $217 $233 forward $178 $-1 #
point $-1 111.8230696385351024 20 -20.83778132003203964 #
coedge $-1 $201 $217 $198 $224 reversed $40 $-1 #
edge $-1 $203 -1.088614628655165023e-14 $225 30.00000000000000355 $198 $235 forward 7 unknown #
vertex $-1 $233 $236 #
straight-curve $-1 152.8654868376155207 20 91.92533317427755435 0 -1 0 I I #
straight-curve $-1 82.85492621628816323 0 72.34171625837576869 0.7660444431189797898 0 0.6427876096865372535 I I #
point $-1 133.581858547019408 0 114.9066664678469607 #
point $-1 123.3382412905702523 20 -86.14356495999503238 #
vertex $-1 $218 $237 #
straight-curve $-1 111.8230696385351024 20 -20.83778132003202188 0 -1 0 I I #
point $-1 123.3382412905702523 0 -86.14356495999503238 #
edge $-1 $225 1.894780628693600617e-16 $230 1.047197551196603627 $221 $238 forward 7 unknown #
straight-curve $-1 111.8230696385351024 0 -20.83778132003203609 0.1736481776669333843 0 -0.9848077530122075762 I I #
straight-curve $-1 133.581858547019408 0 114.9066664678469465 0.6427876096865371425 0 -0.7660444431189797898 I I #
point $-1 152.8654868376155207 0 91.92533317427755435 #
point $-1 111.8230696385350882 0 -20.83778132003202188 #
ellipse-curve $-1 230 0 7.105427357601001859e-15 0 -1 0 -77.1345131623844793 0 91.92533317427756856 1 I I #
End-of-ACIS-data 