700 0 2 0           
24 FBMach with ACIS - 7.0.3 13 ACIS 7.0.3 NT 24 Wed May 15 09:31:16 2002 
1 9.9999999999999995e-007 1e-010 
body $2 -1 $-1 $3 $-1 $4 #
bdycol-kcp $-1 -1 1 2 $5 $6 #
model_id-kcp-attrib $-1 -1 $-1 $-1 $0 1 1021469475 1021469476 -835977215 1 #
lump $-1 -1 $-1 $-1 $7 $0 #
transform $-1 -1 1 0 0 0 1 0 0 0 1 0 0 0 1 rotate no_reflect no_shear #
body $8 -1 $-1 $9 $-1 $10 #
body $11 -1 $-1 $12 $-1 $13 #
shell $-1 -1 $-1 $-1 $-1 $14 $-1 $3 #
model_id-kcp-attrib $-1 -1 $-1 $-1 $5 1 1021469475 1021469476 -835977214 1 #
lump $-1 -1 $-1 $-1 $15 $5 #
transform $-1 -1 1 0 0 0 1 0 0 0 1 0 57.5 65 1 no_rotate no_reflect no_shear #
rgb_color-st-attrib $-1 -1 $16 $-1 $6 0.5 1 1 #
lump $-1 -1 $-1 $-1 $17 $6 #
transform $-1 -1 1 0 0 0 1 0 0 0 1 0 57.5 65 1 no_rotate no_reflect no_shear #
face $18 -1 $-1 $19 $20 $7 $-1 $21 forward single #
shell $-1 -1 $-1 $-1 $-1 $22 $-1 $9 #
model_id-kcp-attrib $-1 -1 $-1 $11 $6 1 1021469475 1021469476 -828047357 1 #
shell $-1 -1 $-1 $-1 $-1 $23 $-1 $12 #
model_id-kcp-attrib $-1 -1 $-1 $-1 $14 1 1021469475 1021469476 -835977215 2 #
face $24 -1 $-1 $25 $26 $7 $-1 $27 forward single #
loop $-1 -1 $-1 $-1 $28 $14 #
plane-surface $-1 -1 $-1 6 0 0 1 0 0 0 0 -1 forward_v I I I I #
face $29 -1 $-1 $30 $31 $15 $-1 $32 forward single #
face $-1 -1 $-1 $33 $34 $17 $-1 $35 reversed single #
model_id-kcp-attrib $-1 -1 $-1 $-1 $19 1 1021469475 1021469476 -835977215 3 #
face $36 -1 $-1 $37 $38 $7 $-1 $39 reversed single #
loop $-1 -1 $-1 $-1 $40 $19 #
plane-surface $-1 -1 $-1 0 64.203480344346218 43.258870229392173 0 0.74899656249038038 0.66257388220302926 0 -0.66257388220302926 0.74899656249038038 forward_v I I I I #
coedge $-1 -1 $-1 $41 $42 $43 $44 forward $20 $-1 #
model_id-kcp-attrib $-1 -1 $-1 $-1 $22 1 1021469475 1021469476 -835977214 6 #
face $45 -1 $-1 $46 $47 $15 $-1 $48 reversed single #
loop $-1 -1 $-1 $-1 $49 $22 #
plane-surface $-1 -1 $-1 0 0 65 0 0 1 1 0 0 forward_v I I I I #
face $-1 -1 $-1 $50 $51 $17 $-1 $52 reversed single #
loop $-1 -1 $-1 $-1 $53 $23 #
cone-surface $-1 -1 $-1 6 52.499999999999474 64.999999999999886 1 0 0 0 -79.809409780152265 -41.598775349084953 1 I I 0 -1 89.99999999999946 forward I I I I #
model_id-kcp-attrib $-1 -1 $-1 $-1 $25 1 1021469475 1021469476 -835977215 4 #
face $54 -1 $-1 $55 $56 $7 $-1 $57 forward single #
loop $-1 -1 $-1 $-1 $58 $25 #
cone-surface $-1 -1 $-1 0 115 61.299999999999997 -1 0 0 0 0 -50 1 I I 0 1 50 forward I I I I #
coedge $-1 -1 $-1 $59 $43 $60 $61 forward $26 $-1 #
coedge $-1 -1 $-1 $62 $28 $63 $64 forward $20 $-1 #
coedge $-1 -1 $-1 $28 $65 $66 $67 forward $20 $-1 #
coedge $-1 -1 $-1 $40 $68 $28 $44 reversed $26 $-1 #
edge $69 -1 $-1 $70 2.660970332934129e-015 $71 40.287406098041728 $28 $72 forward @7 unknown #
model_id-kcp-attrib $-1 -1 $-1 $-1 $30 1 1021469475 1021469476 -835977214 4 #
face $73 -1 $-1 $74 $75 $15 $-1 $76 reversed single #
loop $-1 -1 $-1 $-1 $77 $30 #
plane-surface $-1 -1 $-1 0 0 -65 0 0 1 1 0 0 forward_v I I I I #
coedge $-1 -1 $-1 $78 $79 $80 $81 forward $31 $-1 #
face $-1 -1 $-1 $82 $83 $17 $-1 $84 reversed single #
loop $-1 -1 $-1 $-1 $85 $33 #
cone-surface $-1 -1 $-1 6 105.70627318676992 92.732516899391271 1 0 0 0 -112.34948437355847 -99.38608233045548 1 I I 0 -1 150.00000000000179 forward I I I I #
coedge $-1 -1 $-1 $86 $87 $88 $89 reversed $34 $-1 #
model_id-kcp-attrib $-1 -1 $-1 $-1 $37 1 1021469475 1021469476 -835977215 5 #
face $90 -1 $-1 $91 $92 $7 $-1 $93 forward single #
loop $-1 -1 $-1 $-1 $94 $37 #
plane-surface $-1 -1 $-1 0 115 5.6499999999999995 0 1 0 0 0 1 forward_v I I I I #
coedge $-1 -1 $-1 $95 $66 $96 $97 forward $38 $-1 #
coedge $-1 -1 $-1 $68 $40 $98 $99 forward $26 $-1 #
coedge $-1 -1 $-1 $66 $95 $40 $61 reversed $38 $-1 #
edge $100 -1 $-1 $70 0 $101 12 $60 $102 forward @7 unknown #
coedge $-1 -1 $-1 $103 $41 $104 $105 forward $20 $-1 #
coedge $-1 -1 $-1 $106 $107 $41 $64 reversed $108 $-1 #
edge $109 -1 $-1 $71 0 $110 0.24376578873207555 $41 $111 forward @7 unknown #
coedge $-1 -1 $-1 $42 $112 $113 $114 forward $20 $-1 #
coedge $-1 -1 $-1 $58 $60 $42 $67 reversed $38 $-1 #
edge $115 -1 $-1 $116 0 $70 0.8465463260467504 $42 $117 forward @7 unknown #
coedge $-1 -1 $-1 $43 $59 $106 $118 reversed $26 $-1 #
attrib_edge_convexity-kcp-attrib $-1 -1 $119 $-1 $44 1 #
vertex $-1 -1 $-1 $67 $120 #
vertex $-1 -1 $-1 $64 $121 #
straight-curve $-1 -1 $-1 6 77.55017187548097 28.171305889848551 0 -0.66257388220302926 0.74899656249038049 I I #
model_id-kcp-attrib $-1 -1 $-1 $-1 $46 1 1021469475 1021469476 -835977214 5 #
face $122 -1 $-1 $123 $124 $15 $-1 $125 reversed single #
loop $-1 -1 $-1 $-1 $126 $46 #
plane-surface $-1 -1 $-1 0 -57.5 0 0 1 0 0 0 1 forward_v I I I I #
coedge $-1 -1 $-1 $127 $128 $129 $130 forward $47 $-1 #
coedge $-1 -1 $-1 $131 $49 $132 $133 forward $31 $-1 #
coedge $-1 -1 $-1 $49 $131 $134 $135 forward $31 $-1 #
coedge $-1 -1 $-1 $136 $137 $49 $81 reversed $138 $-1 #
edge $-1 -1 $-1 $139 -57.5 $140 57.5 $80 $141 forward @7 unknown #
face $-1 -1 $-1 $142 $143 $17 $-1 $144 reversed single #
loop $-1 -1 $-1 $-1 $145 $50 #
plane-surface $-1 -1 $-1 6 -6.643211186788534 -6.6535654310642087 0 0.74899656249038049 0.66257388220302926 -1 0 0 forward_v I I I I #
coedge $-1 -1 $-1 $146 $147 $148 $149 reversed $51 $-1 #
coedge $-1 -1 $-1 $150 $53 $147 $151 reversed $34 $-1 #
coedge $-1 -1 $-1 $53 $150 $152 $153 reversed $34 $-1 #
coedge $-1 -1 $-1 $154 $148 $53 $89 forward $155 $-1 #
edge $-1 -1 $-1 $156 5.6141648257588842e-017 $157 0.48048421201607083 $88 $158 forward @7 unknown #
model_id-kcp-attrib $-1 -1 $-1 $-1 $55 1 1021469475 1021469476 -835977215 6 #
face $159 -1 $-1 $160 $161 $7 $-1 $162 forward single #
loop $-1 -1 $-1 $-1 $163 $55 #
plane-surface $-1 -1 $-1 0 57.5 0 0 0 -1 0 1 0 forward_v I I I I #
coedge $-1 -1 $-1 $164 $113 $165 $166 forward $56 $-1 #
coedge $-1 -1 $-1 $60 $58 $167 $168 forward $38 $-1 #
coedge $-1 -1 $-1 $113 $164 $58 $97 reversed $56 $-1 #
edge $169 -1 $-1 $116 0 $170 12 $58 $171 forward @7 unknown #
coedge $-1 -1 $-1 $167 $172 $59 $99 reversed $173 $-1 #
edge $174 -1 $-1 $101 2.660970332934129e-015 $175 40.287406098041728 $59 $176 forward @7 unknown #
attrib_edge_convexity-kcp-attrib $-1 -1 $177 $-1 $61 4 #
vertex $-1 -1 $-1 $61 $178 #
straight-curve $-1 -1 $-1 6 77.55017187548097 28.171305889848551 -1 0 0 I I #
coedge $-1 -1 $-1 $179 $62 $180 $181 forward $20 $-1 #
coedge $-1 -1 $-1 $182 $183 $62 $105 reversed $184 $-1 #
edge $185 -1 $-1 $110 0 $186 0.48048421201607133 $62 $187 forward @7 unknown #
coedge $-1 -1 $-1 $188 $63 $68 $118 forward $108 $-1 #
coedge $-1 -1 $-1 $63 $188 $182 $189 reversed $108 $-1 #
loop $-1 -1 $-1 $-1 $106 $190 #
attrib_edge_convexity-kcp-attrib $-1 -1 $191 $-1 $64 1 #
vertex $-1 -1 $-1 $105 $192 #
ellipse-curve $-1 -1 $-1 6 163.20627318676992 157.73251689939127 -1 0 0 0 -112.34948437355845 -99.38608233045548 1 I I #
coedge $-1 -1 $-1 $65 $179 $193 $194 forward $20 $-1 #
coedge $-1 -1 $-1 $94 $96 $65 $114 reversed $56 $-1 #
edge $195 -1 $-1 $196 0 $116 11.299999999999999 $65 $197 forward @7 unknown #
attrib_edge_convexity-kcp-attrib $-1 -1 $198 $-1 $67 1 #
vertex $-1 -1 $-1 $67 $199 #
ellipse-curve $-1 -1 $-1 6 114.99999999999999 61.299999999999955 -1 0 0 0 1.4210854715202004e-014 -49.999999999999957 1 I I #
edge $200 -1 $-1 $71 0 $175 12 $106 $201 forward @7 unknown #
convexity-sys-attrib $-1 -1 $-1 $69 $44 #
point $-1 -1 $-1 6 77.55017187548097 28.171305889848554 #
point $-1 -1 $-1 6 50.856788813211473 58.346434568935791 #
model_id-kcp-attrib $-1 -1 $-1 $-1 $74 1 1021469475 1021469476 -835977214 7 #
face $202 -1 $-1 $203 $204 $15 $-1 $205 reversed single #
loop $-1 -1 $-1 $-1 $206 $74 #
plane-surface $-1 -1 $-1 -6 0 0 1 0 0 0 0 -1 forward_v I I I I #
coedge $-1 -1 $-1 $207 $134 $208 $209 forward $75 $-1 #
coedge $-1 -1 $-1 $210 $77 $207 $211 forward $47 $-1 #
coedge $-1 -1 $-1 $77 $210 $212 $213 forward $47 $-1 #
coedge $-1 -1 $-1 $137 $136 $77 $130 reversed $138 $-1 #
edge $-1 -1 $-1 $214 -57.5 $215 57.5 $129 $216 forward @7 unknown #
coedge $-1 -1 $-1 $79 $78 $217 $218 forward $31 $-1 #
coedge $-1 -1 $-1 $219 $220 $78 $133 reversed $204 $-1 #
edge $-1 -1 $-1 $140 -6 $221 6 $132 $222 forward @7 unknown #
coedge $-1 -1 $-1 $126 $223 $79 $135 reversed $75 $-1 #
edge $-1 -1 $-1 $224 -6 $139 6 $134 $225 forward @7 unknown #
coedge $-1 -1 $-1 $129 $80 $223 $226 forward $138 $-1 #
coedge $-1 -1 $-1 $80 $129 $219 $227 reversed $138 $-1 #
loop $-1 -1 $-1 $-1 $136 $203 #
vertex $-1 -1 $-1 $81 $228 #
vertex $-1 -1 $-1 $81 $229 #
straight-curve $-1 -1 $-1 6 0 65 0 1 0 I I #
face $-1 -1 $-1 $230 $231 $17 $-1 $232 reversed single #
loop $-1 -1 $-1 $-1 $233 $82 #
cone-surface $-1 -1 $-1 6 57.499999999999986 -3.7000000000000455 1 0 0 0 1.4210854715202004e-014 -49.999999999999957 1 I I 0 -1 49.999999999999957 forward I I I I #
coedge $-1 -1 $-1 $234 $235 $236 $237 reversed $83 $-1 #
coedge $-1 -1 $-1 $238 $85 $235 $239 reversed $51 $-1 #
coedge $-1 -1 $-1 $85 $238 $86 $151 forward $51 $-1 #
coedge $-1 -1 $-1 $88 $236 $85 $149 forward $155 $-1 #
edge $-1 -1 $-1 $240 -8.0843973490925048e-017 $156 0.24376578873207577 $148 $241 forward @7 unknown #
coedge $-1 -1 $-1 $87 $86 $242 $243 reversed $34 $-1 #
edge $-1 -1 $-1 $244 0 $156 12 $86 $245 forward @7 unknown #
coedge $-1 -1 $-1 $246 $247 $87 $153 forward $248 $-1 #
edge $-1 -1 $-1 $157 -12 $249 0 $152 $250 forward @7 unknown #
coedge $-1 -1 $-1 $251 $88 $247 $252 reversed $155 $-1 #
loop $-1 -1 $-1 $-1 $88 $253 #
vertex $-1 -1 $-1 $89 $254 #
vertex $-1 -1 $-1 $89 $255 #
ellipse-curve $-1 -1 $-1 -6 52.499999999999474 64.999999999999886 -1 0 0 0 -79.809409780152265 -41.598775349084953 1 I I #
model_id-kcp-attrib $-1 -1 $-1 $-1 $91 1 1021469475 1021469476 -835977215 7 #
face $256 -1 $-1 $257 $258 $7 $-1 $259 forward single #
loop $-1 -1 $-1 $-1 $260 $91 #
plane-surface $-1 -1 $-1 0 0 65 0 -1 0 0 0 -1 forward_v I I I I #
coedge $-1 -1 $-1 $261 $193 $262 $263 forward $92 $-1 #
coedge $-1 -1 $-1 $96 $94 $264 $265 forward $56 $-1 #
coedge $-1 -1 $-1 $193 $261 $94 $166 reversed $92 $-1 #
edge $266 -1 $-1 $196 0 $267 12 $94 $268 forward @7 unknown #
coedge $-1 -1 $-1 $264 $98 $95 $168 reversed $173 $-1 #
edge $269 -1 $-1 $170 0 $101 0.8465463260467504 $95 $270 forward @7 unknown #
attrib_edge_convexity-kcp-attrib $-1 -1 $271 $-1 $97 1 #
vertex $-1 -1 $-1 $168 $272 #
straight-curve $-1 -1 $-1 6 115 11.299999999999999 -1 0 0 I I #
coedge $-1 -1 $-1 $98 $273 $188 $274 reversed $173 $-1 #
loop $-1 -1 $-1 $-1 $264 $275 #
attrib_edge_convexity-kcp-attrib $-1 -1 $276 $-1 $99 1 #
vertex $-1 -1 $-1 $274 $277 #
straight-curve $-1 -1 $-1 -6 77.55017187548097 28.171305889848551 0 -0.66257388220302926 0.74899656249038049 I I #
convexity-sys-attrib $-1 -1 $-1 $100 $61 #
point $-1 -1 $-1 -6 77.55017187548097 28.171305889848554 #
coedge $-1 -1 $-1 $112 $103 $278 $279 forward $20 $-1 #
coedge $-1 -1 $-1 $280 $281 $103 $181 reversed $258 $-1 #
edge $282 -1 $-1 $186 0 $283 20 $103 $284 forward @7 unknown #
coedge $-1 -1 $-1 $285 $104 $107 $189 forward $184 $-1 #
coedge $-1 -1 $-1 $104 $285 $280 $286 reversed $184 $-1 #
loop $-1 -1 $-1 $-1 $182 $257 #
attrib_edge_convexity-kcp-attrib $-1 -1 $287 $-1 $105 1 #
vertex $-1 -1 $-1 $181 $288 #
ellipse-curve $-1 -1 $-1 6 109.99999999999946 129.99999999999989 -1 0 0 0 -79.809409780152237 -41.598775349084988 1 I I #
coedge $-1 -1 $-1 $107 $106 $172 $274 forward $108 $-1 #
edge $289 -1 $-1 $110 0 $290 12 $182 $291 forward @7 unknown #
face $292 -1 $-1 $275 $108 $7 $-1 $293 reversed single #
convexity-sys-attrib $-1 -1 $-1 $109 $64 #
point $-1 -1 $-1 6 30.190590219847216 88.401224650914898 #
coedge $-1 -1 $-1 $163 $165 $112 $194 reversed $92 $-1 #
edge $294 -1 $-1 $295 0 $196 115 $112 $296 forward @7 unknown #
attrib_edge_convexity-kcp-attrib $-1 -1 $297 $-1 $114 1 #
vertex $-1 -1 $-1 $114 $298 #
straight-curve $-1 -1 $-1 6 115 0 0 0 1 I I #
convexity-sys-attrib $-1 -1 $-1 $115 $67 #
point $-1 -1 $-1 6 115 11.299999999999999 #
attrib_edge_convexity-kcp-attrib $-1 -1 $299 $-1 $118 4 #
straight-curve $-1 -1 $-1 6 50.856788813211473 58.346434568935791 -1 0 0 I I #
model_id-kcp-attrib $-1 -1 $-1 $-1 $123 1 1021469475 1021469476 -835977214 3 #
face $300 -1 $-1 $-1 $138 $15 $-1 $301 reversed single #
loop $-1 -1 $-1 $-1 $219 $123 #
plane-surface $-1 -1 $-1 0 57.5 0 0 -1 0 0 0 -1 forward_v I I I I #
coedge $-1 -1 $-1 $302 $217 $220 $303 forward $124 $-1 #
coedge $-1 -1 $-1 $223 $126 $127 $211 reversed $75 $-1 #
coedge $-1 -1 $-1 $217 $302 $126 $209 reversed $124 $-1 #
edge $-1 -1 $-1 $224 -65 $304 65 $208 $305 forward @7 unknown #
coedge $-1 -1 $-1 $128 $127 $302 $306 forward $47 $-1 #
edge $-1 -1 $-1 $215 -6 $304 6 $207 $307 forward @7 unknown #
coedge $-1 -1 $-1 $220 $219 $128 $213 reversed $204 $-1 #
edge $-1 -1 $-1 $308 -6 $214 6 $212 $309 forward @7 unknown #
vertex $-1 -1 $-1 $130 $310 #
vertex $-1 -1 $-1 $226 $311 #
straight-curve $-1 -1 $-1 6 0 -65 0 -1 0 I I #
coedge $-1 -1 $-1 $206 $208 $131 $218 reversed $124 $-1 #
edge $-1 -1 $-1 $221 -57.5 $224 57.5 $217 $312 forward @7 unknown #
coedge $-1 -1 $-1 $212 $132 $137 $227 forward $204 $-1 #
coedge $-1 -1 $-1 $132 $212 $206 $303 reversed $204 $-1 #
vertex $-1 -1 $-1 $133 $313 #
straight-curve $-1 -1 $-1 0 57.5 65 -1 0 0 I I #
coedge $-1 -1 $-1 $134 $207 $136 $226 reversed $75 $-1 #
vertex $-1 -1 $-1 $218 $314 #
straight-curve $-1 -1 $-1 0 -57.5 65 1 0 0 I I #
edge $-1 -1 $-1 $139 -65 $215 65 $136 $315 forward @7 unknown #
edge $-1 -1 $-1 $140 -65 $214 65 $137 $316 forward @7 unknown #
point $-1 -1 $-1 6 -57.5 65 #
point $-1 -1 $-1 6 57.5 65 #
face $-1 -1 $-1 $253 $248 $17 $-1 $317 forward single #
loop $-1 -1 $-1 $-1 $242 $142 #
plane-surface $-1 -1 $-1 6 0 0 -1 0 0 0 0 1 forward_v I I I I #
coedge $-1 -1 $-1 $318 $319 $320 $321 reversed $143 $-1 #
coedge $-1 -1 $-1 $322 $145 $319 $323 reversed $83 $-1 #
coedge $-1 -1 $-1 $145 $322 $146 $239 forward $83 $-1 #
coedge $-1 -1 $-1 $148 $320 $145 $237 forward $155 $-1 #
edge $-1 -1 $-1 $324 -40.578345802965146 $240 -0.29093970492342291 $236 $325 forward @7 unknown #
coedge $-1 -1 $-1 $147 $146 $326 $327 reversed $51 $-1 #
edge $-1 -1 $-1 $328 0 $240 12 $146 $329 forward @7 unknown #
vertex $-1 -1 $-1 $149 $330 #
ellipse-curve $-1 -1 $-1 -6 105.70627318676992 92.732516899391271 -1 0 0 0 -112.34948437355847 -99.38608233045548 1 I I #
coedge $-1 -1 $-1 $326 $331 $150 $243 forward $231 $-1 #
edge $-1 -1 $-1 $249 -0.48048421201607083 $244 -5.6141648257588842e-017 $242 $332 forward @7 unknown #
vertex $-1 -1 $-1 $243 $333 #
straight-curve $-1 -1 $-1 6 -27.309409780152791 23.401224650914941 -1 0 0 I I #
coedge $-1 -1 $-1 $334 $152 $331 $335 forward $248 $-1 #
coedge $-1 -1 $-1 $152 $334 $154 $252 forward $248 $-1 #
loop $-1 -1 $-1 $-1 $152 $230 #
vertex $-1 -1 $-1 $335 $336 #
straight-curve $-1 -1 $-1 6 -37.499999999999986 65 1 0 0 I I #
coedge $-1 -1 $-1 $320 $154 $337 $338 forward $155 $-1 #
edge $-1 -1 $-1 $339 -57.5 $157 37.499999999999986 $154 $340 forward @7 unknown #
face $-1 -1 $-1 $341 $155 $17 $-1 $342 reversed single #
point $-1 -1 $-1 -6 -27.309409780152791 23.401224650914941 #
point $-1 -1 $-1 -6 -37.499999999999986 65 #
model_id-kcp-attrib $-1 -1 $-1 $-1 $160 1 1021469475 1021469476 -835977215 8 #
face $343 -1 $-1 $190 $184 $7 $-1 $344 reversed single #
loop $-1 -1 $-1 $-1 $280 $160 #
plane-surface $-1 -1 $-1 0 10 130 0 0 1 0 -1 0 forward_v I I I I #
coedge $-1 -1 $-1 $345 $278 $281 $346 forward $161 $-1 #
coedge $-1 -1 $-1 $165 $163 $347 $348 forward $92 $-1 #
coedge $-1 -1 $-1 $278 $345 $163 $263 reversed $161 $-1 #
edge $349 -1 $-1 $295 0 $350 12 $163 $351 forward @7 unknown #
coedge $-1 -1 $-1 $347 $167 $164 $265 reversed $173 $-1 #
edge $352 -1 $-1 $267 0 $170 11.299999999999999 $164 $353 forward @7 unknown #
attrib_edge_convexity-kcp-attrib $-1 -1 $354 $-1 $166 1 #
vertex $-1 -1 $-1 $265 $355 #
straight-curve $-1 -1 $-1 6 115 0 -1 0 0 I I #
attrib_edge_convexity-kcp-attrib $-1 -1 $356 $-1 $168 1 #
ellipse-curve $-1 -1 $-1 -6 114.99999999999999 61.299999999999955 -1 0 0 0 1.4210854715202004e-014 -49.999999999999957 1 I I #
convexity-sys-attrib $-1 -1 $-1 $169 $97 #
point $-1 -1 $-1 -6 115 11.299999999999999 #
coedge $-1 -1 $-1 $172 $357 $285 $358 reversed $173 $-1 #
edge $359 -1 $-1 $175 0 $290 0.24376578873207586 $188 $360 forward @7 unknown #
face $361 -1 $-1 $-1 $173 $7 $-1 $362 reversed single #
convexity-sys-attrib $-1 -1 $-1 $174 $99 #
point $-1 -1 $-1 -6 50.856788813211473 58.346434568935791 #
coedge $-1 -1 $-1 $260 $262 $179 $279 reversed $161 $-1 #
edge $363 -1 $-1 $283 0 $295 130 $179 $364 forward @7 unknown #
coedge $-1 -1 $-1 $365 $180 $183 $286 forward $258 $-1 #
coedge $-1 -1 $-1 $180 $365 $260 $346 reversed $258 $-1 #
attrib_edge_convexity-kcp-attrib $-1 -1 $366 $-1 $181 1 #
vertex $-1 -1 $-1 $279 $367 #
straight-curve $-1 -1 $-1 6 20 130 0 -1 0 I I #
coedge $-1 -1 $-1 $183 $182 $273 $358 forward $184 $-1 #
edge $-1 -1 $-1 $186 0 $368 12 $280 $369 forward @7 unknown #
convexity-sys-attrib $-1 -1 $-1 $185 $105 #
point $-1 -1 $-1 6 20 130 #
attrib_edge_convexity-kcp-attrib $-1 -1 $370 $-1 $189 4 #
vertex $-1 -1 $-1 $358 $371 #
straight-curve $-1 -1 $-1 6 30.190590219847206 88.401224650914941 -1 0 0 I I #
model_id-kcp-attrib $-1 -1 $-1 $-1 $190 1 1021469475 1021469476 -835977215 10 #
cone-surface $-1 -1 $-1 0 163.20627318676844 157.7325168993903 -1 0 0 0 -112.34948437355698 -99.386082330454499 1 I I 0 1 150 forward I I I I #
attrib_edge_convexity-kcp-attrib $-1 -1 $372 $-1 $194 1 #
vertex $-1 -1 $-1 $194 $373 #
straight-curve $-1 -1 $-1 6 0 0 0 1 0 I I #
convexity-sys-attrib $-1 -1 $-1 $195 $114 #
point $-1 -1 $-1 6 115 0 #
convexity-sys-attrib $-1 -1 $-1 $200 $118 #
model_id-kcp-attrib $-1 -1 $-1 $-1 $203 1 1021469475 1021469476 -835977214 2 #
plane-surface $-1 -1 $-1 6 0 0 -1 0 0 0 0 1 forward_v I I I I #
coedge $-1 -1 $-1 $208 $206 $210 $306 reversed $124 $-1 #
edge $-1 -1 $-1 $221 -65 $308 65 $220 $374 forward @7 unknown #
vertex $-1 -1 $-1 $306 $375 #
straight-curve $-1 -1 $-1 -6 -57.5 0 0 0 -1 I I #
edge $-1 -1 $-1 $304 -57.5 $308 57.5 $302 $376 forward @7 unknown #
straight-curve $-1 -1 $-1 0 -57.5 -65 -1 0 0 I I #
vertex $-1 -1 $-1 $213 $377 #
straight-curve $-1 -1 $-1 0 57.5 -65 1 0 0 I I #
point $-1 -1 $-1 6 57.5 -65 #
point $-1 -1 $-1 6 -57.5 -65 #
straight-curve $-1 -1 $-1 -6 0 65 0 -1 0 I I #
point $-1 -1 $-1 -6 57.5 65 #
point $-1 -1 $-1 -6 -57.5 65 #
straight-curve $-1 -1 $-1 6 -57.5 0 0 0 -1 I I #
straight-curve $-1 -1 $-1 6 57.5 0 0 0 -1 I I #
plane-surface $-1 -1 $-1 0 0 65 0 0 1 1 0 0 forward_v I I I I #
coedge $-1 -1 $-1 $378 $233 $379 $380 reversed $143 $-1 #
coedge $-1 -1 $-1 $233 $378 $234 $323 forward $143 $-1 #
coedge $-1 -1 $-1 $236 $251 $233 $321 forward $155 $-1 #
edge $-1 -1 $-1 $381 0 $324 0.84654632604675029 $320 $382 forward @7 unknown #
coedge $-1 -1 $-1 $235 $234 $383 $384 reversed $83 $-1 #
edge $-1 -1 $-1 $385 0 $324 12 $234 $386 forward @7 unknown #
vertex $-1 -1 $-1 $237 $387 #
straight-curve $-1 -1 $-1 -6 -6.83598023656665 -6.4356525921845993 0 -0.66257388220302926 0.74899656249038049 I I #
coedge $-1 -1 $-1 $383 $242 $238 $327 forward $231 $-1 #
edge $-1 -1 $-1 $244 -0.24376578873207577 $328 8.0843973490925048e-017 $326 $388 forward @7 unknown #
vertex $-1 -1 $-1 $327 $389 #
straight-curve $-1 -1 $-1 6 -6.643211186788534 -6.6535654310642087 -1 0 0 I I #
point $-1 -1 $-1 -6 -6.643211186788534 -6.6535654310642087 #
coedge $-1 -1 $-1 $242 $390 $246 $335 reversed $231 $-1 #
ellipse-curve $-1 -1 $-1 6 52.499999999999474 64.999999999999886 1 0 0 0 -79.809409780152265 -41.598775349084953 1 I I #
point $-1 -1 $-1 6 -27.309409780152791 23.401224650914941 #
coedge $-1 -1 $-1 $247 $246 $391 $392 forward $248 $-1 #
edge $-1 -1 $-1 $249 -37.499999999999986 $393 57.5 $331 $394 forward @7 unknown #
point $-1 -1 $-1 6 -37.499999999999986 65 #
coedge $-1 -1 $-1 $391 $379 $251 $338 reversed $395 $-1 #
edge $-1 -1 $-1 $339 -65 $381 53.700000000000003 $337 $396 forward @7 unknown #
vertex $-1 -1 $-1 $392 $397 #
straight-curve $-1 -1 $-1 -6 0 65 0 -1 0 I I #
face $-1 -1 $-1 $-1 $395 $17 $-1 $398 reversed single #
plane-surface $-1 -1 $-1 -6 0 0 1 0 0 0 0 -1 forward_v I I I I #
model_id-kcp-attrib $-1 -1 $-1 $-1 $257 1 1021469475 1021469476 -835977215 9 #
cone-surface $-1 -1 $-1 0 110 130 -1 0 0 0 -79.809409780152791 -41.598775349085109 1 I I 0 1 90 forward I I I I #
coedge $-1 -1 $-1 $262 $260 $399 $400 forward $161 $-1 #
edge $-1 -1 $-1 $283 0 $401 12 $260 $402 forward @7 unknown #
coedge $-1 -1 $-1 $399 $264 $261 $348 reversed $173 $-1 #
edge $403 -1 $-1 $350 0 $267 115 $261 $404 forward @7 unknown #
attrib_edge_convexity-kcp-attrib $-1 -1 $405 $-1 $263 1 #
vertex $-1 -1 $-1 $348 $406 #
straight-curve $-1 -1 $-1 6 0 0 -1 0 0 I I #
model_id-kcp-attrib $-1 -1 $407 $-1 $265 1 1021469475 1021469476 -835977215 13 #
straight-curve $-1 -1 $-1 -6 115 0 0 0 1 I I #
convexity-sys-attrib $-1 -1 $-1 $266 $166 #
point $-1 -1 $-1 -6 115 0 #
convexity-sys-attrib $-1 -1 $-1 $269 $168 #
coedge $-1 -1 $-1 $273 $399 $365 $408 reversed $173 $-1 #
edge $-1 -1 $-1 $290 4.4913318606071084e-016 $368 0.48048421201607133 $285 $409 forward @7 unknown #
attrib_edge_convexity-kcp-attrib $-1 -1 $410 $-1 $274 1 #
ellipse-curve $-1 -1 $-1 -6 163.20627318676992 157.73251689939127 -1 0 0 0 -112.34948437355845 -99.38608233045548 1 I I #
model_id-kcp-attrib $-1 -1 $-1 $-1 $275 1 1021469475 1021469476 -835977215 11 #
plane-surface $-1 -1 $-1 -6 0 0 1 0 0 0 0 -1 forward_v I I I I #
attrib_edge_convexity-kcp-attrib $-1 -1 $411 $-1 $279 1 #
straight-curve $-1 -1 $-1 6 0 130 0 0 -1 I I #
coedge $-1 -1 $-1 $281 $280 $357 $408 forward $258 $-1 #
convexity-sys-attrib $-1 -1 $-1 $282 $181 #
point $-1 -1 $-1 6 0 130 #
vertex $-1 -1 $-1 $408 $412 #
straight-curve $-1 -1 $-1 6 20.000000000000011 130 -1 0 0 I I #
convexity-sys-attrib $-1 -1 $-1 $289 $189 #
point $-1 -1 $-1 -6 30.190590219847206 88.401224650914941 #
convexity-sys-attrib $-1 -1 $-1 $294 $194 #
point $-1 -1 $-1 6 0 0 #
straight-curve $-1 -1 $-1 -6 57.5 0 0 0 -1 I I #
point $-1 -1 $-1 -6 -57.5 -65 #
straight-curve $-1 -1 $-1 -6 0 -65 0 1 0 I I #
point $-1 -1 $-1 -6 57.5 -65 #
coedge $-1 -1 $-1 $319 $318 $413 $414 reversed $143 $-1 #
coedge $-1 -1 $-1 $337 $415 $318 $380 forward $395 $-1 #
edge $-1 -1 $-1 $416 0 $381 12 $379 $417 forward @7 unknown #
vertex $-1 -1 $-1 $380 $418 #
ellipse-curve $-1 -1 $-1 -6 57.499999999999986 -3.7000000000000455 -1 0 0 0 1.4210854715202004e-014 -49.999999999999957 1 I I #
coedge $-1 -1 $-1 $413 $326 $322 $384 forward $231 $-1 #
edge $-1 -1 $-1 $328 0.29093970492342291 $385 40.578345802965146 $383 $419 forward @7 unknown #
vertex $-1 -1 $-1 $384 $420 #
straight-curve $-1 -1 $-1 6 20.05017187548097 -36.828694110151446 -1 0 0 I I #
point $-1 -1 $-1 -6 20.05017187548097 -36.828694110151446 #
ellipse-curve $-1 -1 $-1 6 105.70627318676992 92.732516899391271 1 0 0 0 -112.34948437355847 -99.38608233045548 1 I I #
point $-1 -1 $-1 6 -6.643211186788534 -6.6535654310642087 #
coedge $-1 -1 $-1 $331 $413 $415 $421 reversed $231 $-1 #
coedge $-1 -1 $-1 $415 $337 $334 $392 reversed $395 $-1 #
edge $-1 -1 $-1 $393 -6 $339 6 $391 $422 forward @7 unknown #
vertex $-1 -1 $-1 $335 $423 #
straight-curve $-1 -1 $-1 6 0 65 0 1 0 I I #
loop $-1 -1 $-1 $-1 $379 $341 #
straight-curve $-1 -1 $-1 -6 57.5 0 0 0 -1 I I #
point $-1 -1 $-1 -6 57.5 65 #
plane-surface $-1 -1 $-1 0 57.5 0 0 -1 0 0 0 -1 forward_v I I I I #
coedge $-1 -1 $-1 $357 $347 $345 $400 reversed $173 $-1 #
edge $424 -1 $-1 $401 0 $350 130 $345 $425 forward @7 unknown #
vertex $-1 -1 $-1 $400 $426 #
straight-curve $-1 -1 $-1 6 0 130 -1 0 0 I I #
model_id-kcp-attrib $-1 -1 $427 $-1 $348 1 1021469475 1021469476 -835977215 16 #
straight-curve $-1 -1 $-1 -6 0 0 0 1 0 I I #
convexity-sys-attrib $-1 -1 $-1 $349 $263 #
point $-1 -1 $-1 -6 0 0 #
attrib_edge_convexity-kcp-attrib $-1 -1 $428 $352 $265 1 #
edge $429 -1 $-1 $368 -1.0658141036401503e-014 $401 20 $365 $430 forward @7 unknown #
ellipse-curve $-1 -1 $-1 -6 109.99999999999946 129.99999999999989 -1 0 0 0 -79.809409780152237 -41.598775349084988 1 I I #
convexity-sys-attrib $-1 -1 $-1 $359 $274 #
convexity-sys-attrib $-1 -1 $-1 $363 $279 #
point $-1 -1 $-1 -6 20.000000000000011 130 #
coedge $-1 -1 $-1 $390 $383 $378 $414 forward $231 $-1 #
edge $-1 -1 $-1 $385 -0.84654632604675029 $416 0 $413 $431 forward @7 unknown #
coedge $-1 -1 $-1 $379 $391 $390 $421 forward $395 $-1 #
vertex $-1 -1 $-1 $414 $432 #
straight-curve $-1 -1 $-1 6 57.5 -53.700000000000003 -1 0 0 I I #
point $-1 -1 $-1 -6 57.5 -53.700000000000003 #
straight-curve $-1 -1 $-1 6 -6.83598023656665 -6.4356525921845993 0 0.66257388220302926 -0.74899656249038049 I I #
point $-1 -1 $-1 6 20.05017187548097 -36.828694110151446 #
edge $-1 -1 $-1 $393 -65 $416 53.700000000000003 $390 $433 forward @7 unknown #
straight-curve $-1 -1 $-1 0 57.5 65 -1 0 0 I I #
point $-1 -1 $-1 6 57.5 65 #
model_id-kcp-attrib $-1 -1 $-1 $-1 $400 1 1021469475 1021469476 -835977215 15 #
straight-curve $-1 -1 $-1 -6 0 130 0 0 -1 I I #
point $-1 -1 $-1 -6 0 130 #
attrib_edge_convexity-kcp-attrib $-1 -1 $434 $403 $348 1 #
convexity-sys-attrib $-1 -1 $-1 $407 $265 #
model_id-kcp-attrib $-1 -1 $-1 $-1 $408 1 1021469475 1021469476 -835977215 14 #
straight-curve $-1 -1 $-1 -6 20 130 0 -1 0 I I #
ellipse-curve $-1 -1 $-1 6 57.499999999999986 -3.7000000000000455 1 0 0 0 1.4210854715202004e-014 -49.999999999999957 1 I I #
point $-1 -1 $-1 6 57.5 -53.700000000000003 #
straight-curve $-1 -1 $-1 6 57.5 0 0 0 -1 I I #
convexity-sys-attrib $-1 -1 $-1 $427 $348 #
End-of-ACIS-data 