999
DXF file: ac607-221.dxf
999
Pro/ENGINEER 9801 by Parametric Technology Corporation
0
SECTION
2
HEADER
9
$EXTMAX
10
22.0000000000
20
17.0000000000
9
$EXTMIN
10
0.0000000000
20
0.0000000000
9
$LIMMIN
10
0.0000000000
20
0.0000000000
9
$LIMMAX
10
22.0000000000
20
17.0000000000
9
$VIEWCTR
10
11.0000000000
20
8.5000000000
9
$VIEWSIZE
40
17.0000000000
9
$CLAYER
8
0
9
$LTSCALE
40
1.2100000000
9
$CELTYPE
6
BYLAYER
9
$DIMSCALE
40
1
9
$DIMASZ
40
0.1875000000
9
$DIMEXO
40
0.1375000000
9
$DIMDLI
40
0.8360000000
9
$DIMEXE
40
0.3960000000
9
$DIMCEN
40
0.1980000000
9
$DIMTXT
40
0.2486049107
0
ENDSEC
0
SECTION
2
TABLES
0
TABLE
2
LTYPE
70
6
0
LTYPE
2
CONTINUOUS
70
64
3
Solid line
72
65
73
0
40
0
0
LTYPE
2
CENTER
70
64
3
____ _ ____ _ ____ _ ____ _ ____ _ ____ _ ____
72
65
73
4
40
0.6
49
0.375
49
-0.075
49
0.075
49
-0.075
0
LTYPE
2
HIDDEN
70
64
3
- - - - - - - - - - - - - - - - - - - -
72
65
73
2
40
0.2
49
0.1
49
-0.1
0
LTYPE
2
PHANTOM
70
64
3
_____ _ _ _____ _ _ _____ _ _ _____
72
65
73
6
40
0.8
49
0.45
49
-0.05
49
0.1
49
-0.05
49
0.1
49
-0.05
0
LTYPE
2
DOT
70
64
3
. . . . . . . . . . . . . . . . . . . .
72
65
73
2
40
0.2
49
0.1
49
-0.1
0
LTYPE
2
DASHED
70
64
3
- - - - - - - - - - - - - - - - - - - -
72
65
73
2
40
0.2
49
0.1
49
-0.1
0
ENDTAB
0
TABLE
2
LAYER
70
36
0
LAYER
2
0
70
0
62
7
6
CONTINUOUS
0
LAYER
2
DEFAULT_1
70
0
62
7
6
CENTER
0
LAYER
2
DEFAULT_2
70
0
62
7
6
HIDDEN
0
LAYER
2
DEFAULT_3
70
0
62
7
6
PHANTOM
0
ENDTAB
0
ENDSEC
0
SECTION
2
BLOCKS
0
ENDSEC
0
SECTION
2
ENTITIES
0
LINE
8
0
62
3
10
-8.1754805378
20
18.9059597855
11
-8.1754805378
21
19.8959597855
0
LINE
8
0
62
3
10
-8.1004805378
20
17.2809089892
11
-8.1004805378
21
18.9059597855
0
LINE
8
0
62
3
10
-8.1004805378
20
19.8959597855
11
-8.1004805378
21
20.8229597855
0
LINE
8
0
62
3
10
-4.6970719712
20
21.7909597855
11
-4.8646741128
21
21.5006643607
0
LINE
8
0
62
3
10
-4.8109805378
20
21.4696643607
11
-4.6254805378
21
21.7909597855
0
LINE
8
0
62
3
10
-3.4470719712
20
21.7909597855
11
-3.6146741128
21
21.5006643607
0
LINE
8
0
62
3
10
-3.5609805378
20
21.4696643607
11
-3.3754805378
21
21.7909597855
0
LINE
8
0
62
3
10
-8.1004805378
20
20.8229597855
11
-6.4254805378
21
21.7909597855
0
LINE
8
0
62
3
10
-2.9254805378
20
21.7909597855
11
-2.7399805378
21
21.4696643607
0
LINE
8
0
62
3
10
-2.6862869627
20
21.5006643607
11
-2.8538891044
21
21.7909597855
0
LINE
8
0
62
3
10
-1.6754805378
20
21.7909597855
11
-1.4899805378
21
21.4696643607
0
LINE
8
0
62
3
10
-1.4362869627
20
21.5006643607
11
-1.6038891044
21
21.7909597855
0
LINE
8
0
62
3
10
-2.7399805378
20
21.4696643607
11
-2.6862869627
21
21.5006643607
0
LINE
8
0
62
3
10
-1.4899805378
20
21.4696643607
11
-1.4362869627
21
21.5006643607
0
LINE
8
0
62
3
10
4.5305702585
20
17.2809089892
11
4.5305702585
21
17.8259597855
0
LINE
8
0
62
3
10
4.5805702585
20
22.2010105818
11
4.5805702585
21
21.8959597855
0
LINE
8
0
62
3
10
4.5925702585
20
17.4609597855
11
4.5925702585
21
17.8269597855
0
LINE
8
0
62
3
10
4.5805702585
20
21.8959597855
11
4.5800702585
21
21.7909597855
0
LINE
8
0
10
4.5805561076
20
21.8959597855
11
4.5793202585
21
21.7909597855
0
LINE
8
0
62
3
10
-4.8646741128
20
21.5006643607
11
-4.8109805378
21
21.4696643607
0
LINE
8
0
62
3
10
-3.6146741128
20
21.5006643607
11
-3.5609805378
21
21.4696643607
0
LINE
8
0
62
4
10
21.9515956143
20
19.1655356753
11
21.9134504438
21
19.1549598026
0
LINE
8
0
62
4
10
21.8753046727
20
19.6414500222
11
21.9134504438
21
19.6520258949
0
LINE
8
0
62
4
10
21.1950420244
20
19.6520258949
11
21.1568962533
21
19.6414500222
0
LINE
8
0
62
4
10
20.9153075706
20
19.6520258949
11
20.8771624002
21
19.6414500222
0
LINE
8
0
62
3
10
27.3646210549
20
17.2809089892
11
24.6671210549
21
17.2809089892
0
LINE
8
0
62
3
10
-8.1004805378
20
17.2809089892
11
-5.4029805378
21
17.2809089892
0
LINE
8
0
62
3
10
4.5305702585
20
17.2809089892
11
0.0420194622
21
17.2809089892
0
LINE
8
0
62
3
10
-0.3329805378
20
17.2809089892
11
-1.2079805378
21
17.2809089892
0
LINE
8
0
62
3
10
-1.5829805378
20
17.2809089892
11
-3.7779805378
21
17.2809089892
0
LINE
8
0
62
3
10
-4.1529805378
20
17.2809089892
11
-5.0279805378
21
17.2809089892
0
LINE
8
0
62
3
10
14.7335702585
20
17.2809089892
11
23.0421210549
21
17.2809089892
0
LINE
8
0
62
3
10
23.4171210549
20
17.2809089892
11
24.2921210549
21
17.2809089892
0
LINE
8
0
62
3
10
4.5925702585
20
17.4609597855
11
14.6715702585
21
17.4609597855
0
LINE
8
0
10
4.5395194622
20
17.8268592749
11
4.5305702585
21
17.8259597855
0
LINE
8
0
62
3
10
4.5395194622
20
17.8269597855
11
4.5305702585
21
17.8264597855
0
LINE
8
0
62
3
10
4.5395194622
20
17.8269597855
11
4.5925702585
21
17.8269597855
0
LINE
8
0
62
3
10
14.6715702585
20
17.8269597855
11
14.7246210549
21
17.8269597855
0
LINE
8
0
62
3
10
14.7246210549
20
17.8269597855
11
14.7335702585
21
17.8264597855
0
LINE
8
0
10
14.7246210549
20
17.8268592749
11
14.7335702585
21
17.8259597855
0
LINE
8
0
62
3
10
26.9696210549
20
18.7109597855
11
25.9346210549
21
18.7109597855
0
LINE
8
0
62
3
10
25.5896210549
20
18.7109597855
11
24.5546210549
21
18.7109597855
0
LINE
8
0
62
3
10
24.2096210549
20
18.7109597855
11
23.1746210549
21
18.7109597855
0
LINE
8
0
62
3
10
20.1396210549
20
18.7109597855
11
19.1046210549
21
18.7109597855
0
LINE
8
0
62
3
10
18.7596210549
20
18.7109597855
11
17.7246210549
21
18.7109597855
0
LINE
8
0
62
3
10
17.3796210549
20
18.7109597855
11
16.3446210549
21
18.7109597855
0
LINE
8
0
62
3
10
15.9996210549
20
18.7109597855
11
14.9646210549
21
18.7109597855
0
LINE
8
0
62
3
10
-7.7054805378
20
18.7109597855
11
-6.6704805378
21
18.7109597855
0
LINE
8
0
62
3
10
-6.3254805378
20
18.7109597855
11
-5.2904805378
21
18.7109597855
0
LINE
8
0
62
3
10
-4.9454805378
20
18.7109597855
11
-3.9104805378
21
18.7109597855
0
LINE
8
0
62
3
10
-0.8754805378
20
18.7109597855
11
0.1595194622
21
18.7109597855
0
LINE
8
0
62
3
10
0.5045194622
20
18.7109597855
11
1.5395194622
21
18.7109597855
0
LINE
8
0
62
3
10
1.8845194622
20
18.7109597855
11
2.9195194622
21
18.7109597855
0
LINE
8
0
62
3
10
3.2645194622
20
18.7109597855
11
4.2995194622
21
18.7109597855
0
LINE
8
0
62
3
10
4.2995194622
20
18.8009597855
11
3.2645194622
21
18.8009597855
0
LINE
8
0
62
3
10
2.9195194622
20
18.8009597855
11
1.8845194622
21
18.8009597855
0
LINE
8
0
62
3
10
1.5395194622
20
18.8009597855
11
0.5045194622
21
18.8009597855
0
LINE
8
0
62
3
10
0.1595194622
20
18.8009597855
11
-0.8754805378
21
18.8009597855
0
LINE
8
0
62
3
10
-3.9104805378
20
18.8009597855
11
-4.9454805378
21
18.8009597855
0
LINE
8
0
62
3
10
-5.2904805378
20
18.8009597855
11
-6.3254805378
21
18.8009597855
0
LINE
8
0
62
3
10
-6.6704805378
20
18.8009597855
11
-7.7054805378
21
18.8009597855
0
LINE
8
0
62
3
10
14.9646210549
20
18.8009597855
11
15.9996210549
21
18.8009597855
0
LINE
8
0
62
3
10
16.3446210549
20
18.8009597855
11
17.3796210549
21
18.8009597855
0
LINE
8
0
62
3
10
17.7246210549
20
18.8009597855
11
18.7596210549
21
18.8009597855
0
LINE
8
0
62
3
10
19.1046210549
20
18.8009597855
11
20.1396210549
21
18.8009597855
0
LINE
8
0
62
3
10
23.1746210549
20
18.8009597855
11
24.2096210549
21
18.8009597855
0
LINE
8
0
62
3
10
24.5546210549
20
18.8009597855
11
25.5896210549
21
18.8009597855
0
LINE
8
0
62
3
10
25.9346210549
20
18.8009597855
11
26.9696210549
21
18.8009597855
0
LINE
8
0
62
3
10
26.9696210549
20
18.8909597855
11
25.9346210549
21
18.8909597855
0
LINE
8
0
62
3
10
25.5896210549
20
18.8909597855
11
24.5546210549
21
18.8909597855
0
LINE
8
0
62
3
10
24.2096210549
20
18.8909597855
11
23.1746210549
21
18.8909597855
0
LINE
8
0
62
3
10
20.1396210549
20
18.8909597855
11
19.1046210549
21
18.8909597855
0
LINE
8
0
62
3
10
18.7596210549
20
18.8909597855
11
17.7246210549
21
18.8909597855
0
LINE
8
0
62
3
10
17.3796210549
20
18.8909597855
11
16.3446210549
21
18.8909597855
0
LINE
8
0
62
3
10
15.9996210549
20
18.8909597855
11
14.9646210549
21
18.8909597855
0
LINE
8
0
62
3
10
-7.7054805378
20
18.8909597855
11
-6.6704805378
21
18.8909597855
0
LINE
8
0
62
3
10
-6.3254805378
20
18.8909597855
11
-5.2904805378
21
18.8909597855
0
LINE
8
0
62
3
10
-4.9454805378
20
18.8909597855
11
-3.9104805378
21
18.8909597855
0
LINE
8
0
62
3
10
-0.8754805378
20
18.8909597855
11
0.1595194622
21
18.8909597855
0
LINE
8
0
62
3
10
0.5045194622
20
18.8909597855
11
1.5395194622
21
18.8909597855
0
LINE
8
0
62
3
10
1.8845194622
20
18.8909597855
11
2.9195194622
21
18.8909597855
0
LINE
8
0
62
3
10
3.2645194622
20
18.8909597855
11
4.2995194622
21
18.8909597855
0
LINE
8
0
62
3
10
-8.1004805378
20
18.9059597855
11
-8.1754805378
21
18.9059597855
0
LINE
8
0
62
3
10
27.3646210549
20
18.9059597855
11
27.4396210549
21
18.9059597855
0
LINE
8
0
62
3
10
4.2995194622
20
18.9809597855
11
3.2645194622
21
18.9809597855
0
LINE
8
0
62
3
10
2.9195194622
20
18.9809597855
11
1.8845194622
21
18.9809597855
0
LINE
8
0
62
3
10
1.5395194622
20
18.9809597855
11
0.5045194622
21
18.9809597855
0
LINE
8
0
62
3
10
0.1595194622
20
18.9809597855
11
-0.8754805378
21
18.9809597855
0
LINE
8
0
62
3
10
-3.9104805378
20
18.9809597855
11
-4.9454805378
21
18.9809597855
0
LINE
8
0
62
3
10
-5.2904805378
20
18.9809597855
11
-6.3254805378
21
18.9809597855
0
LINE
8
0
62
3
10
-6.6704805378
20
18.9809597855
11
-7.7054805378
21
18.9809597855
0
LINE
8
0
62
3
10
14.9646210549
20
18.9809597855
11
15.9996210549
21
18.9809597855
0
LINE
8
0
62
3
10
16.3446210549
20
18.9809597855
11
17.3796210549
21
18.9809597855
0
LINE
8
0
62
3
10
17.7246210549
20
18.9809597855
11
18.7596210549
21
18.9809597855
0
LINE
8
0
62
3
10
19.1046210549
20
18.9809597855
11
20.1396210549
21
18.9809597855
0
LINE
8
0
62
3
10
23.1746210549
20
18.9809597855
11
24.2096210549
21
18.9809597855
0
LINE
8
0
62
3
10
24.5546210549
20
18.9809597855
11
25.5896210549
21
18.9809597855
0
LINE
8
0
62
3
10
25.9346210549
20
18.9809597855
11
26.9696210549
21
18.9809597855
0
LINE
8
0
62
3
10
26.9696210549
20
19.0709597855
11
25.9346210549
21
19.0709597855
0
LINE
8
0
62
3
10
25.5896210549
20
19.0709597855
11
24.5546210549
21
19.0709597855
0
LINE
8
0
62
3
10
24.2096210549
20
19.0709597855
11
23.1746210549
21
19.0709597855
0
LINE
8
0
62
3
10
20.1396210549
20
19.0709597855
11
19.1046210549
21
19.0709597855
0
LINE
8
0
62
3
10
18.7596210549
20
19.0709597855
11
17.7246210549
21
19.0709597855
0
LINE
8
0
62
3
10
17.3796210549
20
19.0709597855
11
16.3446210549
21
19.0709597855
0
LINE
8
0
62
3
10
15.9996210549
20
19.0709597855
11
14.9646210549
21
19.0709597855
0
LINE
8
0
62
3
10
-7.7054805378
20
19.0709597855
11
-6.6704805378
21
19.0709597855
0
LINE
8
0
62
3
10
-6.3254805378
20
19.0709597855
11
-5.2904805378
21
19.0709597855
0
LINE
8
0
62
3
10
-4.9454805378
20
19.0709597855
11
-3.9104805378
21
19.0709597855
0
LINE
8
0
62
3
10
-0.8754805378
20
19.0709597855
11
0.1595194622
21
19.0709597855
0
LINE
8
0
62
3
10
0.5045194622
20
19.0709597855
11
1.5395194622
21
19.0709597855
0
LINE
8
0
62
3
10
1.8845194622
20
19.0709597855
11
2.9195194622
21
19.0709597855
0
LINE
8
0
62
3
10
3.2645194622
20
19.0709597855
11
4.2995194622
21
19.0709597855
0
LINE
8
0
62
4
10
22.2058995540
20
19.1549598026
11
22.1741114113
21
19.1549598026
0
LINE
8
0
62
4
10
20.2350449224
20
19.1549598026
11
20.2731906936
21
19.1549598026
0
LINE
8
0
62
4
10
20.4512030909
20
19.1549598026
11
20.4893488621
21
19.1549598026
0
LINE
8
0
62
4
10
20.6927917736
20
19.1549598026
11
20.7309375447
21
19.1549598026
0
LINE
8
0
62
4
10
20.8199437434
20
19.1549598026
11
21.0488171690
21
19.1549598026
0
LINE
8
0
62
4
10
21.0996781972
20
19.1549598026
11
21.3285516228
21
19.1549598026
0
LINE
8
0
62
4
10
21.6464312471
20
19.1549598026
11
21.6845770183
21
19.1549598026
0
LINE
8
0
62
3
10
4.2995194622
20
19.1609597855
11
3.2645194622
21
19.1609597855
0
LINE
8
0
62
3
10
2.9195194622
20
19.1609597855
11
1.8845194622
21
19.1609597855
0
LINE
8
0
62
3
10
1.5395194622
20
19.1609597855
11
0.5045194622
21
19.1609597855
0
LINE
8
0
62
3
10
0.1595194622
20
19.1609597855
11
-0.8754805378
21
19.1609597855
0
LINE
8
0
62
3
10
-3.9104805378
20
19.1609597855
11
-4.9454805378
21
19.1609597855
0
LINE
8
0
62
3
10
-5.2904805378
20
19.1609597855
11
-6.3254805378
21
19.1609597855
0
LINE
8
0
62
3
10
-6.6704805378
20
19.1609597855
11
-7.7054805378
21
19.1609597855
0
LINE
8
0
62
3
10
14.9646210549
20
19.1609597855
11
15.9996210549
21
19.1609597855
0
LINE
8
0
62
3
10
16.3446210549
20
19.1609597855
11
17.3796210549
21
19.1609597855
0
LINE
8
0
62
3
10
17.7246210549
20
19.1609597855
11
18.7596210549
21
19.1609597855
0
LINE
8
0
62
3
10
19.1046210549
20
19.1609597855
11
20.1396210549
21
19.1609597855
0
LINE
8
0
62
3
10
23.1746210549
20
19.1609597855
11
24.2096210549
21
19.1609597855
0
LINE
8
0
62
3
10
24.5546210549
20
19.1609597855
11
25.5896210549
21
19.1609597855
0
LINE
8
0
62
3
10
25.9346210549
20
19.1609597855
11
26.9696210549
21
19.1609597855
0
LINE
8
0
62
4
10
22.2122571825
20
19.2078391661
11
22.1677537828
21
19.2078391661
0
LINE
8
0
62
4
10
21.2776905946
20
19.2078391661
11
21.0996781972
21
19.2078391661
0
LINE
8
0
62
4
10
20.9979567415
20
19.2078391661
11
20.8199437434
21
19.2078391661
0
LINE
8
0
62
3
10
26.9696210549
20
19.2509597855
11
25.9346210549
21
19.2509597855
0
LINE
8
0
62
3
10
25.5896210549
20
19.2509597855
11
24.5546210549
21
19.2509597855
0
LINE
8
0
62
3
10
24.2096210549
20
19.2509597855
11
23.1746210549
21
19.2509597855
0
LINE
8
0
62
3
10
20.1396210549
20
19.2509597855
11
19.1046210549
21
19.2509597855
0
LINE
8
0
62
3
10
18.7596210549
20
19.2509597855
11
17.7246210549
21
19.2509597855
0
LINE
8
0
62
3
10
17.3796210549
20
19.2509597855
11
16.3446210549
21
19.2509597855
0
LINE
8
0
62
3
10
15.9996210549
20
19.2509597855
11
14.9646210549
21
19.2509597855
0
LINE
8
0
62
3
10
-7.7054805378
20
19.2509597855
11
-6.6704805378
21
19.2509597855
0
LINE
8
0
62
3
10
-6.3254805378
20
19.2509597855
11
-5.2904805378
21
19.2509597855
0
LINE
8
0
62
3
10
-4.9454805378
20
19.2509597855
11
-3.9104805378
21
19.2509597855
0
LINE
8
0
62
3
10
-0.8754805378
20
19.2509597855
11
0.1595194622
21
19.2509597855
0
LINE
8
0
62
3
10
0.5045194622
20
19.2509597855
11
1.5395194622
21
19.2509597855
0
LINE
8
0
62
3
10
1.8845194622
20
19.2509597855
11
2.9195194622
21
19.2509597855
0
LINE
8
0
62
3
10
3.2645194622
20
19.2509597855
11
4.2995194622
21
19.2509597855
0
LINE
8
0
62
4
10
20.2986212077
20
19.2818702750
11
20.4257731776
21
19.2818702750
0
LINE
8
0
62
4
10
20.3049788362
20
19.3241737659
11
20.4194155490
21
19.3241737659
0
LINE
8
0
62
4
10
21.3794120503
20
19.3347496761
11
21.4684182490
21
19.3347496761
0
LINE
8
0
62
3
10
4.2995194622
20
19.3409597855
11
3.2645194622
21
19.3409597855
0
LINE
8
0
62
3
10
2.9195194622
20
19.3409597855
11
1.8845194622
21
19.3409597855
0
LINE
8
0
62
3
10
1.5395194622
20
19.3409597855
11
0.5045194622
21
19.3409597855
0
LINE
8
0
62
3
10
0.1595194622
20
19.3409597855
11
-0.8754805378
21
19.3409597855
0
LINE
8
0
62
3
10
-3.9104805378
20
19.3409597855
11
-4.9454805378
21
19.3409597855
0
LINE
8
0
62
3
10
-5.2904805378
20
19.3409597855
11
-6.3254805378
21
19.3409597855
0
LINE
8
0
62
3
10
-6.6704805378
20
19.3409597855
11
-7.7054805378
21
19.3409597855
0
LINE
8
0
62
3
10
14.9646210549
20
19.3409597855
11
15.9996210549
21
19.3409597855
0
LINE
8
0
62
3
10
16.3446210549
20
19.3409597855
11
17.3796210549
21
19.3409597855
0
LINE
8
0
62
3
10
17.7246210549
20
19.3409597855
11
18.7596210549
21
19.3409597855
0
LINE
8
0
62
3
10
19.1046210549
20
19.3409597855
11
20.1396210549
21
19.3409597855
0
LINE
8
0
62
3
10
23.1746210549
20
19.3409597855
11
24.2096210549
21
19.3409597855
0
LINE
8
0
62
3
10
24.5546210549
20
19.3409597855
11
25.5896210549
21
19.3409597855
0
LINE
8
0
62
3
10
25.9346210549
20
19.3409597855
11
26.9696210549
21
19.3409597855
0
LINE
8
0
62
4
10
21.4684182490
20
19.3876290021
11
21.3794120503
21
19.3876290021
0
LINE
8
0
62
4
10
22.1677537828
20
19.4193566953
11
22.2122571825
21
19.4193566953
0
LINE
8
0
62
3
10
26.9696210549
20
19.4309597855
11
25.9346210549
21
19.4309597855
0
LINE
8
0
62
3
10
25.5896210549
20
19.4309597855
11
24.5546210549
21
19.4309597855
0
LINE
8
0
62
3
10
24.2096210549
20
19.4309597855
11
23.1746210549
21
19.4309597855
0
LINE
8
0
62
3
10
20.1396210549
20
19.4309597855
11
19.1046210549
21
19.4309597855
0
LINE
8
0
62
3
10
18.7596210549
20
19.4309597855
11
17.7246210549
21
19.4309597855
0
LINE
8
0
62
3
10
17.3796210549
20
19.4309597855
11
16.3446210549
21
19.4309597855
0
LINE
8
0
62
3
10
15.9996210549
20
19.4309597855
11
14.9646210549
21
19.4309597855
0
LINE
8
0
62
3
10
-7.7054805378
20
19.4309597855
11
-6.6704805378
21
19.4309597855
0
LINE
8
0
62
3
10
-6.3254805378
20
19.4309597855
11
-5.2904805378
21
19.4309597855
0
LINE
8
0
62
3
10
-4.9454805378
20
19.4309597855
11
-3.9104805378
21
19.4309597855
0
LINE
8
0
62
3
10
-0.8754805378
20
19.4309597855
11
0.1595194622
21
19.4309597855
0
LINE
8
0
62
3
10
0.5045194622
20
19.4309597855
11
1.5395194622
21
19.4309597855
0
LINE
8
0
62
3
10
1.8845194622
20
19.4309597855
11
2.9195194622
21
19.4309597855
0
LINE
8
0
62
3
10
3.2645194622
20
19.4309597855
11
4.2995194622
21
19.4309597855
0
LINE
8
0
62
4
10
22.1741114113
20
19.4722360588
11
22.2058995540
21
19.4722360588
0
LINE
8
0
62
3
10
4.2995194622
20
19.5209597855
11
3.2645194622
21
19.5209597855
0
LINE
8
0
62
3
10
2.9195194622
20
19.5209597855
11
1.8845194622
21
19.5209597855
0
LINE
8
0
62
3
10
1.5395194622
20
19.5209597855
11
0.5045194622
21
19.5209597855
0
LINE
8
0
62
3
10
0.1595194622
20
19.5209597855
11
-0.8754805378
21
19.5209597855
0
LINE
8
0
62
3
10
-3.9104805378
20
19.5209597855
11
-4.9454805378
21
19.5209597855
0
LINE
8
0
62
3
10
-5.2904805378
20
19.5209597855
11
-6.3254805378
21
19.5209597855
0
LINE
8
0
62
3
10
-6.6704805378
20
19.5209597855
11
-7.7054805378
21
19.5209597855
0
LINE
8
0
62
3
10
14.9646210549
20
19.5209597855
11
15.9996210549
21
19.5209597855
0
LINE
8
0
62
3
10
16.3446210549
20
19.5209597855
11
17.3796210549
21
19.5209597855
0
LINE
8
0
62
3
10
17.7246210549
20
19.5209597855
11
18.7596210549
21
19.5209597855
0
LINE
8
0
62
3
10
19.1046210549
20
19.5209597855
11
20.1396210549
21
19.5209597855
0
LINE
8
0
62
3
10
23.1746210549
20
19.5209597855
11
24.2096210549
21
19.5209597855
0
LINE
8
0
62
3
10
24.5546210549
20
19.5209597855
11
25.5896210549
21
19.5209597855
0
LINE
8
0
62
3
10
25.9346210549
20
19.5209597855
11
26.9696210549
21
19.5209597855
0
LINE
8
0
62
4
10
22.1232509838
20
19.5356912951
11
22.0914628412
21
19.5356912951
0
LINE
8
0
62
4
10
21.0106713978
20
19.5356912951
11
21.0424595405
21
19.5356912951
0
LINE
8
0
62
4
10
21.2904058516
20
19.5356912951
11
21.3221939943
21
19.5356912951
0
LINE
8
0
62
4
10
22.2122571825
20
19.5991465313
11
22.1741114113
21
19.5991465313
0
LINE
8
0
62
4
10
20.9216651992
20
19.5991465313
11
20.9470957133
21
19.5991465313
0
LINE
8
0
62
4
10
21.2013996530
20
19.5991465313
11
21.2268301671
21
19.5991465313
0
LINE
8
0
62
4
10
21.5574250484
20
19.5991465313
11
21.7481527028
21
19.5991465313
0
LINE
8
0
62
3
10
26.9696210549
20
19.6109597855
11
25.9346210549
21
19.6109597855
0
LINE
8
0
62
3
10
25.5896210549
20
19.6109597855
11
24.5546210549
21
19.6109597855
0
LINE
8
0
62
3
10
24.2096210549
20
19.6109597855
11
23.1746210549
21
19.6109597855
0
LINE
8
0
62
3
10
20.1396210549
20
19.6109597855
11
19.1046210549
21
19.6109597855
0
LINE
8
0
62
3
10
18.7596210549
20
19.6109597855
11
17.7246210549
21
19.6109597855
0
LINE
8
0
62
3
10
17.3796210549
20
19.6109597855
11
16.3446210549
21
19.6109597855
0
LINE
8
0
62
3
10
15.9996210549
20
19.6109597855
11
14.9646210549
21
19.6109597855
0
LINE
8
0
62
3
10
-7.7054805378
20
19.6109597855
11
-6.6704805378
21
19.6109597855
0
LINE
8
0
62
3
10
-6.3254805378
20
19.6109597855
11
-5.2904805378
21
19.6109597855
0
LINE
8
0
62
3
10
-4.9454805378
20
19.6109597855
11
-3.9104805378
21
19.6109597855
0
LINE
8
0
62
3
10
-0.8754805378
20
19.6109597855
11
0.1595194622
21
19.6109597855
0
LINE
8
0
62
3
10
0.5045194622
20
19.6109597855
11
1.5395194622
21
19.6109597855
0
LINE
8
0
62
3
10
1.8845194622
20
19.6109597855
11
2.9195194622
21
19.6109597855
0
LINE
8
0
62
3
10
3.2645194622
20
19.6109597855
11
4.2995194622
21
19.6109597855
0
LINE
8
0
62
4
10
21.7481527028
20
19.6520258949
11
21.5192792772
21
19.6520258949
0
LINE
8
0
62
4
10
21.2204725386
20
19.6520258949
11
21.1950420244
21
19.6520258949
0
LINE
8
0
62
4
10
20.9407380847
20
19.6520258949
11
20.9153075706
21
19.6520258949
0
LINE
8
0
62
4
10
20.7309375447
20
19.6520258949
11
20.6927917736
21
19.6520258949
0
LINE
8
0
62
4
10
20.3876274064
20
19.6520258949
11
20.3367663781
21
19.6520258949
0
LINE
8
0
62
4
10
22.1804690399
20
19.6520258949
11
22.2058995540
21
19.6520258949
0
LINE
8
0
62
3
10
4.2995194622
20
19.7009597855
11
3.2645194622
21
19.7009597855
0
LINE
8
0
62
3
10
2.9195194622
20
19.7009597855
11
1.8845194622
21
19.7009597855
0
LINE
8
0
62
3
10
1.5395194622
20
19.7009597855
11
0.5045194622
21
19.7009597855
0
LINE
8
0
62
3
10
0.1595194622
20
19.7009597855
11
-0.8754805378
21
19.7009597855
0
LINE
8
0
62
3
10
-3.9104805378
20
19.7009597855
11
-4.9454805378
21
19.7009597855
0
LINE
8
0
62
3
10
-5.2904805378
20
19.7009597855
11
-6.3254805378
21
19.7009597855
0
LINE
8
0
62
3
10
-6.6704805378
20
19.7009597855
11
-7.7054805378
21
19.7009597855
0
LINE
8
0
62
3
10
14.9646210549
20
19.7009597855
11
15.9996210549
21
19.7009597855
0
LINE
8
0
62
3
10
16.3446210549
20
19.7009597855
11
17.3796210549
21
19.7009597855
0
LINE
8
0
62
3
10
17.7246210549
20
19.7009597855
11
18.7596210549
21
19.7009597855
0
LINE
8
0
62
3
10
19.1046210549
20
19.7009597855
11
20.1396210549
21
19.7009597855
0
LINE
8
0
62
3
10
23.1746210549
20
19.7009597855
11
24.2096210549
21
19.7009597855
0
LINE
8
0
62
3
10
24.5546210549
20
19.7009597855
11
25.5896210549
21
19.7009597855
0
LINE
8
0
62
3
10
25.9346210549
20
19.7009597855
11
26.9696210549
21
19.7009597855
0
LINE
8
0
62
3
10
26.9696210549
20
19.7909597855
11
25.9346210549
21
19.7909597855
0
LINE
8
0
62
3
10
25.5896210549
20
19.7909597855
11
24.5546210549
21
19.7909597855
0
LINE
8
0
62
3
10
24.2096210549
20
19.7909597855
11
23.1746210549
21
19.7909597855
0
LINE
8
0
62
3
10
20.1396210549
20
19.7909597855
11
19.1046210549
21
19.7909597855
0
LINE
8
0
62
3
10
18.7596210549
20
19.7909597855
11
17.7246210549
21
19.7909597855
0
LINE
8
0
62
3
10
17.3796210549
20
19.7909597855
11
16.3446210549
21
19.7909597855
0
LINE
8
0
62
3
10
15.9996210549
20
19.7909597855
11
14.9646210549
21
19.7909597855
0
LINE
8
0
62
3
10
-7.7054805378
20
19.7909597855
11
-6.6704805378
21
19.7909597855
0
LINE
8
0
62
3
10
-6.3254805378
20
19.7909597855
11
-5.2904805378
21
19.7909597855
0
LINE
8
0
62
3
10
-4.9454805378
20
19.7909597855
11
-3.9104805378
21
19.7909597855
0
LINE
8
0
62
3
10
-0.8754805378
20
19.7909597855
11
0.1595194622
21
19.7909597855
0
LINE
8
0
62
3
10
0.5045194622
20
19.7909597855
11
1.5395194622
21
19.7909597855
0
LINE
8
0
62
3
10
1.8845194622
20
19.7909597855
11
2.9195194622
21
19.7909597855
0
LINE
8
0
62
3
10
3.2645194622
20
19.7909597855
11
4.2995194622
21
19.7909597855
0
LINE
8
0
62
3
10
4.2995194622
20
19.8809597855
11
3.2645194622
21
19.8809597855
0
LINE
8
0
62
3
10
2.9195194622
20
19.8809597855
11
1.8845194622
21
19.8809597855
0
LINE
8
0
62
3
10
1.5395194622
20
19.8809597855
11
0.5045194622
21
19.8809597855
0
LINE
8
0
62
3
10
0.1595194622
20
19.8809597855
11
-0.8754805378
21
19.8809597855
0
LINE
8
0
62
3
10
-3.9104805378
20
19.8809597855
11
-4.9454805378
21
19.8809597855
0
LINE
8
0
62
3
10
-5.2904805378
20
19.8809597855
11
-6.3254805378
21
19.8809597855
0
LINE
8
0
62
3
10
-6.6704805378
20
19.8809597855
11
-7.7054805378
21
19.8809597855
0
LINE
8
0
62
3
10
14.9646210549
20
19.8809597855
11
15.9996210549
21
19.8809597855
0
LINE
8
0
62
3
10
16.3446210549
20
19.8809597855
11
17.3796210549
21
19.8809597855
0
LINE
8
0
62
3
10
17.7246210549
20
19.8809597855
11
18.7596210549
21
19.8809597855
0
LINE
8
0
62
3
10
19.1046210549
20
19.8809597855
11
20.1396210549
21
19.8809597855
0
LINE
8
0
62
3
10
23.1746210549
20
19.8809597855
11
24.2096210549
21
19.8809597855
0
LINE
8
0
62
3
10
24.5546210549
20
19.8809597855
11
25.5896210549
21
19.8809597855
0
LINE
8
0
62
3
10
25.9346210549
20
19.8809597855
11
26.9696210549
21
19.8809597855
0
LINE
8
0
62
3
10
-8.1004805378
20
19.8959597855
11
-8.1754805378
21
19.8959597855
0
LINE
8
0
62
3
10
27.3646210549
20
19.8959597855
11
27.4396210549
21
19.8959597855
0
LINE
8
0
62
3
10
26.9696210549
20
19.9709597855
11
25.9346210549
21
19.9709597855
0
LINE
8
0
62
3
10
25.5896210549
20
19.9709597855
11
24.5546210549
21
19.9709597855
0
LINE
8
0
62
3
10
24.2096210549
20
19.9709597855
11
23.1746210549
21
19.9709597855
0
LINE
8
0
62
3
10
20.1396210549
20
19.9709597855
11
19.1046210549
21
19.9709597855
0
LINE
8
0
62
3
10
18.7596210549
20
19.9709597855
11
17.7246210549
21
19.9709597855
0
LINE
8
0
62
3
10
17.3796210549
20
19.9709597855
11
16.3446210549
21
19.9709597855
0
LINE
8
0
62
3
10
15.9996210549
20
19.9709597855
11
14.9646210549
21
19.9709597855
0
LINE
8
0
62
3
10
-7.7054805378
20
19.9709597855
11
-6.6704805378
21
19.9709597855
0
LINE
8
0
62
3
10
-6.3254805378
20
19.9709597855
11
-5.2904805378
21
19.9709597855
0
LINE
8
0
62
3
10
-4.9454805378
20
19.9709597855
11
-3.9104805378
21
19.9709597855
0
LINE
8
0
62
3
10
-0.8754805378
20
19.9709597855
11
0.1595194622
21
19.9709597855
0
LINE
8
0
62
3
10
0.5045194622
20
19.9709597855
11
1.5395194622
21
19.9709597855
0
LINE
8
0
62
3
10
1.8845194622
20
19.9709597855
11
2.9195194622
21
19.9709597855
0
LINE
8
0
62
3
10
3.2645194622
20
19.9709597855
11
4.2995194622
21
19.9709597855
0
LINE
8
0
62
3
10
4.2995194622
20
20.0609597855
11
3.2645194622
21
20.0609597855
0
LINE
8
0
62
3
10
2.9195194622
20
20.0609597855
11
1.8845194622
21
20.0609597855
0
LINE
8
0
62
3
10
1.5395194622
20
20.0609597855
11
0.5045194622
21
20.0609597855
0
LINE
8
0
62
3
10
0.1595194622
20
20.0609597855
11
-0.8754805378
21
20.0609597855
0
LINE
8
0
62
3
10
-3.9104805378
20
20.0609597855
11
-4.9454805378
21
20.0609597855
0
LINE
8
0
62
3
10
-5.2904805378
20
20.0609597855
11
-6.3254805378
21
20.0609597855
0
LINE
8
0
62
3
10
-6.6704805378
20
20.0609597855
11
-7.7054805378
21
20.0609597855
0
LINE
8
0
62
3
10
14.9646210549
20
20.0609597855
11
15.9996210549
21
20.0609597855
0
LINE
8
0
62
3
10
16.3446210549
20
20.0609597855
11
17.3796210549
21
20.0609597855
0
LINE
8
0
62
3
10
17.7246210549
20
20.0609597855
11
18.7596210549
21
20.0609597855
0
LINE
8
0
62
3
10
19.1046210549
20
20.0609597855
11
20.1396210549
21
20.0609597855
0
LINE
8
0
62
3
10
23.1746210549
20
20.0609597855
11
24.2096210549
21
20.0609597855
0
LINE
8
0
62
3
10
24.5546210549
20
20.0609597855
11
25.5896210549
21
20.0609597855
0
LINE
8
0
62
3
10
25.9346210549
20
20.0609597855
11
26.9696210549
21
20.0609597855
0
LINE
8
0
62
3
10
26.9696210549
20
20.1509597855
11
25.9346210549
21
20.1509597855
0
LINE
8
0
62
3
10
25.5896210549
20
20.1509597855
11
24.5546210549
21
20.1509597855
0
LINE
8
0
62
3
10
24.2096210549
20
20.1509597855
11
23.1746210549
21
20.1509597855
0
LINE
8
0
62
3
10
20.1396210549
20
20.1509597855
11
19.1046210549
21
20.1509597855
0
LINE
8
0
62
3
10
18.7596210549
20
20.1509597855
11
17.7246210549
21
20.1509597855
0
LINE
8
0
62
3
10
17.3796210549
20
20.1509597855
11
16.3446210549
21
20.1509597855
0
LINE
8
0
62
3
10
15.9996210549
20
20.1509597855
11
14.9646210549
21
20.1509597855
0
LINE
8
0
62
3
10
-7.7054805378
20
20.1509597855
11
-6.6704805378
21
20.1509597855
0
LINE
8
0
62
3
10
-6.3254805378
20
20.1509597855
11
-5.2904805378
21
20.1509597855
0
LINE
8
0
62
3
10
-4.9454805378
20
20.1509597855
11
-3.9104805378
21
20.1509597855
0
LINE
8
0
62
3
10
-0.8754805378
20
20.1509597855
11
0.1595194622
21
20.1509597855
0
LINE
8
0
62
3
10
0.5045194622
20
20.1509597855
11
1.5395194622
21
20.1509597855
0
LINE
8
0
62
3
10
1.8845194622
20
20.1509597855
11
2.9195194622
21
20.1509597855
0
LINE
8
0
62
3
10
3.2645194622
20
20.1509597855
11
4.2995194622
21
20.1509597855
0
LINE
8
0
62
3
10
4.2995194622
20
20.2409597855
11
3.2645194622
21
20.2409597855
0
LINE
8
0
62
3
10
2.9195194622
20
20.2409597855
11
1.8845194622
21
20.2409597855
0
LINE
8
0
62
3
10
1.5395194622
20
20.2409597855
11
0.5045194622
21
20.2409597855
0
LINE
8
0
62
3
10
0.1595194622
20
20.2409597855
11
-0.8754805378
21
20.2409597855
0
LINE
8
0
62
3
10
-3.9104805378
20
20.2409597855
11
-4.9454805378
21
20.2409597855
0
LINE
8
0
62
3
10
-5.2904805378
20
20.2409597855
11
-6.3254805378
21
20.2409597855
0
LINE
8
0
62
3
10
-6.6704805378
20
20.2409597855
11
-7.7054805378
21
20.2409597855
0
LINE
8
0
62
3
10
14.9646210549
20
20.2409597855
11
15.9996210549
21
20.2409597855
0
LINE
8
0
62
3
10
16.3446210549
20
20.2409597855
11
17.3796210549
21
20.2409597855
0
LINE
8
0
62
3
10
17.7246210549
20
20.2409597855
11
18.7596210549
21
20.2409597855
0
LINE
8
0
62
3
10
19.1046210549
20
20.2409597855
11
20.1396210549
21
20.2409597855
0
LINE
8
0
62
3
10
23.1746210549
20
20.2409597855
11
24.2096210549
21
20.2409597855
0
LINE
8
0
62
3
10
24.5546210549
20
20.2409597855
11
25.5896210549
21
20.2409597855
0
LINE
8
0
62
3
10
25.9346210549
20
20.2409597855
11
26.9696210549
21
20.2409597855
0
LINE
8
0
62
3
10
25.5896210549
20
20.3309597855
11
24.5546210549
21
20.3309597855
0
LINE
8
0
62
3
10
24.2096210549
20
20.3309597855
11
23.1746210549
21
20.3309597855
0
LINE
8
0
62
3
10
20.1396210549
20
20.3309597855
11
19.1046210549
21
20.3309597855
0
LINE
8
0
62
3
10
18.7596210549
20
20.3309597855
11
17.7246210549
21
20.3309597855
0
LINE
8
0
62
3
10
17.3796210549
20
20.3309597855
11
16.3446210549
21
20.3309597855
0
LINE
8
0
62
3
10
15.9996210549
20
20.3309597855
11
14.9646210549
21
20.3309597855
0
LINE
8
0
62
3
10
-6.3254805378
20
20.3309597855
11
-5.2904805378
21
20.3309597855
0
LINE
8
0
62
3
10
-4.9454805378
20
20.3309597855
11
-3.9104805378
21
20.3309597855
0
LINE
8
0
62
3
10
-0.8754805378
20
20.3309597855
11
0.1595194622
21
20.3309597855
0
LINE
8
0
62
3
10
0.5045194622
20
20.3309597855
11
1.5395194622
21
20.3309597855
0
LINE
8
0
62
3
10
1.8845194622
20
20.3309597855
11
2.9195194622
21
20.3309597855
0
LINE
8
0
62
3
10
3.2645194622
20
20.3309597855
11
4.2995194622
21
20.3309597855
0
LINE
8
0
62
3
10
4.2995194622
20
20.4209597855
11
3.2645194622
21
20.4209597855
0
LINE
8
0
62
3
10
2.9195194622
20
20.4209597855
11
1.8845194622
21
20.4209597855
0
LINE
8
0
62
3
10
1.5395194622
20
20.4209597855
11
0.5045194622
21
20.4209597855
0
LINE
8
0
62
3
10
0.1595194622
20
20.4209597855
11
-0.8754805378
21
20.4209597855
0
LINE
8
0
62
3
10
-3.9104805378
20
20.4209597855
11
-4.9454805378
21
20.4209597855
0
LINE
8
0
62
3
10
-5.2904805378
20
20.4209597855
11
-6.3254805378
21
20.4209597855
0
LINE
8
0
62
3
10
14.9646210549
20
20.4209597855
11
15.9996210549
21
20.4209597855
0
LINE
8
0
62
3
10
16.3446210549
20
20.4209597855
11
17.3796210549
21
20.4209597855
0
LINE
8
0
62
3
10
17.7246210549
20
20.4209597855
11
18.7596210549
21
20.4209597855
0
LINE
8
0
62
3
10
19.1046210549
20
20.4209597855
11
20.1396210549
21
20.4209597855
0
LINE
8
0
62
3
10
23.1746210549
20
20.4209597855
11
24.2096210549
21
20.4209597855
0
LINE
8
0
62
3
10
24.5546210549
20
20.4209597855
11
25.5896210549
21
20.4209597855
0
LINE
8
0
62
3
10
25.5896210549
20
20.5109597855
11
24.5546210549
21
20.5109597855
0
LINE
8
0
62
3
10
24.2096210549
20
20.5109597855
11
23.1746210549
21
20.5109597855
0
LINE
8
0
62
3
10
20.1396210549
20
20.5109597855
11
19.1046210549
21
20.5109597855
0
LINE
8
0
62
3
10
18.7596210549
20
20.5109597855
11
17.7246210549
21
20.5109597855
0
LINE
8
0
62
3
10
17.3796210549
20
20.5109597855
11
16.3446210549
21
20.5109597855
0
LINE
8
0
62
3
10
15.9996210549
20
20.5109597855
11
14.9646210549
21
20.5109597855
0
LINE
8
0
62
3
10
-6.3254805378
20
20.5109597855
11
-5.2904805378
21
20.5109597855
0
LINE
8
0
62
3
10
-4.9454805378
20
20.5109597855
11
-3.9104805378
21
20.5109597855
0
LINE
8
0
62
3
10
-0.8754805378
20
20.5109597855
11
0.1595194622
21
20.5109597855
0
LINE
8
0
62
3
10
0.5045194622
20
20.5109597855
11
1.5395194622
21
20.5109597855
0
LINE
8
0
62
3
10
1.8845194622
20
20.5109597855
11
2.9195194622
21
20.5109597855
0
LINE
8
0
62
3
10
3.2645194622
20
20.5109597855
11
4.2995194622
21
20.5109597855
0
LINE
8
0
62
3
10
4.2995194622
20
20.6009597855
11
3.2645194622
21
20.6009597855
0
LINE
8
0
62
3
10
2.9195194622
20
20.6009597855
11
1.8845194622
21
20.6009597855
0
LINE
8
0
62
3
10
1.5395194622
20
20.6009597855
11
0.5045194622
21
20.6009597855
0
LINE
8
0
62
3
10
0.1595194622
20
20.6009597855
11
-0.8754805378
21
20.6009597855
0
LINE
8
0
62
3
10
-3.9104805378
20
20.6009597855
11
-4.9454805378
21
20.6009597855
0
LINE
8
0
62
3
10
-5.2904805378
20
20.6009597855
11
-6.3254805378
21
20.6009597855
0
LINE
8
0
62
3
10
14.9646210549
20
20.6009597855
11
15.9996210549
21
20.6009597855
0
LINE
8
0
62
3
10
16.3446210549
20
20.6009597855
11
17.3796210549
21
20.6009597855
0
LINE
8
0
62
3
10
17.7246210549
20
20.6009597855
11
18.7596210549
21
20.6009597855
0
LINE
8
0
62
3
10
19.1046210549
20
20.6009597855
11
20.1396210549
21
20.6009597855
0
LINE
8
0
62
3
10
23.1746210549
20
20.6009597855
11
24.2096210549
21
20.6009597855
0
LINE
8
0
62
3
10
24.5546210549
20
20.6009597855
11
25.5896210549
21
20.6009597855
0
LINE
8
0
62
3
10
25.5896210549
20
20.6909597855
11
24.5546210549
21
20.6909597855
0
LINE
8
0
62
3
10
24.2096210549
20
20.6909597855
11
23.1746210549
21
20.6909597855
0
LINE
8
0
62
3
10
20.1396210549
20
20.6909597855
11
19.1046210549
21
20.6909597855
0
LINE
8
0
62
3
10
18.7596210549
20
20.6909597855
11
17.7246210549
21
20.6909597855
0
LINE
8
0
62
3
10
17.3796210549
20
20.6909597855
11
16.3446210549
21
20.6909597855
0
LINE
8
0
62
3
10
15.9996210549
20
20.6909597855
11
14.9646210549
21
20.6909597855
0
LINE
8
0
62
3
10
-6.3254805378
20
20.6909597855
11
-5.2904805378
21
20.6909597855
0
LINE
8
0
62
3
10
-4.9454805378
20
20.6909597855
11
-3.9104805378
21
20.6909597855
0
LINE
8
0
62
3
10
-0.8754805378
20
20.6909597855
11
0.1595194622
21
20.6909597855
0
LINE
8
0
62
3
10
0.5045194622
20
20.6909597855
11
1.5395194622
21
20.6909597855
0
LINE
8
0
62
3
10
1.8845194622
20
20.6909597855
11
2.9195194622
21
20.6909597855
0
LINE
8
0
62
3
10
3.2645194622
20
20.6909597855
11
4.2995194622
21
20.6909597855
0
LINE
8
0
62
3
10
4.2995194622
20
20.7809597855
11
3.2645194622
21
20.7809597855
0
LINE
8
0
62
3
10
2.9195194622
20
20.7809597855
11
1.8845194622
21
20.7809597855
0
LINE
8
0
62
3
10
1.5395194622
20
20.7809597855
11
0.5045194622
21
20.7809597855
0
LINE
8
0
62
3
10
0.1595194622
20
20.7809597855
11
-0.8754805378
21
20.7809597855
0
LINE
8
0
62
3
10
-3.9104805378
20
20.7809597855
11
-4.9454805378
21
20.7809597855
0
LINE
8
0
62
3
10
-5.2904805378
20
20.7809597855
11
-6.3254805378
21
20.7809597855
0
LINE
8
0
62
3
10
14.9646210549
20
20.7809597855
11
15.9996210549
21
20.7809597855
0
LINE
8
0
62
3
10
16.3446210549
20
20.7809597855
11
17.3796210549
21
20.7809597855
0
LINE
8
0
62
3
10
17.7246210549
20
20.7809597855
11
18.7596210549
21
20.7809597855
0
LINE
8
0
62
3
10
19.1046210549
20
20.7809597855
11
20.1396210549
21
20.7809597855
0
LINE
8
0
62
3
10
23.1746210549
20
20.7809597855
11
24.2096210549
21
20.7809597855
0
LINE
8
0
62
3
10
24.5546210549
20
20.7809597855
11
25.5896210549
21
20.7809597855
0
LINE
8
0
62
3
10
25.5896210549
20
20.8709597855
11
24.5546210549
21
20.8709597855
0
LINE
8
0
62
3
10
24.2096210549
20
20.8709597855
11
23.1746210549
21
20.8709597855
0
LINE
8
0
62
3
10
20.1396210549
20
20.8709597855
11
19.1046210549
21
20.8709597855
0
LINE
8
0
62
3
10
18.7596210549
20
20.8709597855
11
17.7246210549
21
20.8709597855
0
LINE
8
0
62
3
10
17.3796210549
20
20.8709597855
11
16.3446210549
21
20.8709597855
0
LINE
8
0
62
3
10
15.9996210549
20
20.8709597855
11
14.9646210549
21
20.8709597855
0
LINE
8
0
62
3
10
-6.3254805378
20
20.8709597855
11
-5.2904805378
21
20.8709597855
0
LINE
8
0
62
3
10
-4.9454805378
20
20.8709597855
11
-3.9104805378
21
20.8709597855
0
LINE
8
0
62
3
10
-0.8754805378
20
20.8709597855
11
0.1595194622
21
20.8709597855
0
LINE
8
0
62
3
10
0.5045194622
20
20.8709597855
11
1.5395194622
21
20.8709597855
0
LINE
8
0
62
3
10
1.8845194622
20
20.8709597855
11
2.9195194622
21
20.8709597855
0
LINE
8
0
62
3
10
3.2645194622
20
20.8709597855
11
4.2995194622
21
20.8709597855
0
LINE
8
0
62
3
10
4.2995194622
20
20.9609597855
11
3.2645194622
21
20.9609597855
0
LINE
8
0
62
3
10
2.9195194622
20
20.9609597855
11
1.8845194622
21
20.9609597855
0
LINE
8
0
62
3
10
1.5395194622
20
20.9609597855
11
0.5045194622
21
20.9609597855
0
LINE
8
0
62
3
10
0.1595194622
20
20.9609597855
11
-0.8754805378
21
20.9609597855
0
LINE
8
0
62
3
10
-3.9104805378
20
20.9609597855
11
-4.9454805378
21
20.9609597855
0
LINE
8
0
62
3
10
-5.2904805378
20
20.9609597855
11
-6.3254805378
21
20.9609597855
0
LINE
8
0
62
3
10
14.9646210549
20
20.9609597855
11
15.9996210549
21
20.9609597855
0
LINE
8
0
62
3
10
16.3446210549
20
20.9609597855
11
17.3796210549
21
20.9609597855
0
LINE
8
0
62
3
10
17.7246210549
20
20.9609597855
11
18.7596210549
21
20.9609597855
0
LINE
8
0
62
3
10
19.1046210549
20
20.9609597855
11
20.1396210549
21
20.9609597855
0
LINE
8
0
62
3
10
23.1746210549
20
20.9609597855
11
24.2096210549
21
20.9609597855
0
LINE
8
0
62
3
10
24.5546210549
20
20.9609597855
11
25.5896210549
21
20.9609597855
0
LINE
8
0
62
3
10
20.1396210549
20
21.0509597855
11
19.1046210549
21
21.0509597855
0
LINE
8
0
62
3
10
18.7596210549
20
21.0509597855
11
17.7246210549
21
21.0509597855
0
LINE
8
0
62
3
10
17.3796210549
20
21.0509597855
11
16.3446210549
21
21.0509597855
0
LINE
8
0
62
3
10
15.9996210549
20
21.0509597855
11
14.9646210549
21
21.0509597855
0
LINE
8
0
62
3
10
-0.8754805378
20
21.0509597855
11
0.1595194622
21
21.0509597855
0
LINE
8
0
62
3
10
0.5045194622
20
21.0509597855
11
1.5395194622
21
21.0509597855
0
LINE
8
0
62
3
10
1.8845194622
20
21.0509597855
11
2.9195194622
21
21.0509597855
0
LINE
8
0
62
3
10
3.2645194622
20
21.0509597855
11
4.2995194622
21
21.0509597855
0
LINE
8
0
62
3
10
4.2995194622
20
21.1409597855
11
3.2645194622
21
21.1409597855
0
LINE
8
0
62
3
10
2.9195194622
20
21.1409597855
11
1.8845194622
21
21.1409597855
0
LINE
8
0
62
3
10
1.5395194622
20
21.1409597855
11
0.5045194622
21
21.1409597855
0
LINE
8
0
62
3
10
0.1595194622
20
21.1409597855
11
-0.8754805378
21
21.1409597855
0
LINE
8
0
62
3
10
14.9646210549
20
21.1409597855
11
15.9996210549
21
21.1409597855
0
LINE
8
0
62
3
10
16.3446210549
20
21.1409597855
11
17.3796210549
21
21.1409597855
0
LINE
8
0
62
3
10
17.7246210549
20
21.1409597855
11
18.7596210549
21
21.1409597855
0
LINE
8
0
62
3
10
19.1046210549
20
21.1409597855
11
20.1396210549
21
21.1409597855
0
LINE
8
0
62
3
10
25.6896210549
20
21.7909597855
11
23.9612124883
21
21.7909597855
0
LINE
8
0
62
3
10
23.8896210549
20
21.7909597855
11
22.7112124883
21
21.7909597855
0
LINE
8
0
62
3
10
22.6396210549
20
21.7909597855
11
22.1896210549
21
21.7909597855
0
LINE
8
0
62
3
10
22.1180296215
20
21.7909597855
11
20.9396210549
21
21.7909597855
0
LINE
8
0
62
3
10
20.8680296215
20
21.7909597855
11
14.6845702585
21
21.7909597855
0
LINE
8
0
62
3
10
-1.6754805378
20
21.7909597855
11
-2.8538891044
21
21.7909597855
0
LINE
8
0
62
3
10
-2.9254805378
20
21.7909597855
11
-3.3754805378
21
21.7909597855
0
LINE
8
0
62
3
10
-1.6038891044
20
21.7909597855
11
4.5795702585
21
21.7909597855
0
LINE
8
0
62
3
10
-3.4470719712
20
21.7909597855
11
-4.6254805378
21
21.7909597855
0
LINE
8
0
62
3
10
-4.6970719712
20
21.7909597855
11
-6.4254805378
21
21.7909597855
0
LINE
8
0
62
3
10
14.6835702585
20
22.2010105818
11
4.5805702585
21
22.2010105818
0
LINE
8
0
62
4
10
20.9852414844
20
19.6414500222
11
20.9407380847
21
19.6520258949
0
LINE
8
0
62
4
10
20.8898776572
20
19.5885706586
11
20.9216651992
21
19.5991465313
0
LINE
8
0
62
4
10
21.2649753375
20
19.6414500222
11
21.2204725386
21
19.6520258949
0
LINE
8
0
62
4
10
21.9134504438
20
19.1549598026
11
21.8753046727
21
19.1655356753
0
LINE
8
0
62
4
10
21.9134504438
20
19.6520258949
11
21.9515956143
21
19.6414500222
0
LINE
8
0
62
4
10
21.9134504438
20
19.2078391661
11
21.8816623012
21
19.2184150388
0
LINE
8
0
62
4
10
22.1741114113
20
19.1549598026
11
22.1423238694
21
19.1655356753
0
LINE
8
0
62
4
10
20.9470957133
20
19.5991465313
11
20.9788838559
21
19.5885706586
0
LINE
8
0
62
4
10
21.2268301671
20
19.5991465313
11
21.2586177090
21
19.5885706586
0
LINE
8
0
62
4
10
22.2058995540
20
19.4722360588
11
22.2376876966
21
19.4616601861
0
LINE
8
0
62
4
10
21.9134504438
20
19.5991465313
11
21.9452379857
21
19.5885706586
0
LINE
8
0
62
4
10
21.1696115103
20
19.5885706586
11
21.2013996530
21
19.5991465313
0
LINE
8
0
62
4
10
21.8816623012
20
19.5885706586
11
21.9134504438
21
19.5991465313
0
LINE
8
0
62
4
10
22.1486808972
20
19.6414500222
11
22.1804690399
21
19.6520258949
0
LINE
8
0
62
4
10
22.1423238694
20
19.4616601861
11
22.1741114113
21
19.4722360588
0
LINE
8
0
62
4
10
21.9452379857
20
19.2184150388
11
21.9134504438
21
19.2078391661
0
LINE
8
0
62
4
10
22.2376876966
20
19.1655356753
11
22.2058995540
21
19.1549598026
0
LINE
8
0
62
4
10
22.2058995540
20
19.6520258949
11
22.2376876966
21
19.6414500222
0
LINE
8
0
10
14.6835773340
20
21.8959597855
11
14.6848202585
21
21.7909597855
0
LINE
8
0
62
3
10
14.6835702585
20
21.8959597855
11
14.6840702585
21
21.7909597855
0
LINE
8
0
62
3
10
14.6715702585
20
17.4609597855
11
14.6715702585
21
17.8269597855
0
LINE
8
0
62
3
10
14.6835702585
20
21.8959597855
11
14.6835702585
21
22.2010105818
0
LINE
8
0
62
3
10
14.7335702585
20
17.2809089892
11
14.7335702585
21
17.8259597855
0
LINE
8
0
62
3
10
22.8788146299
20
21.5006643607
11
22.8251210549
21
21.4696643607
0
LINE
8
0
62
3
10
24.1288146299
20
21.5006643607
11
24.0751210549
21
21.4696643607
0
LINE
8
0
62
4
10
22.1677537828
20
19.2078391661
11
22.1486808972
21
19.2184150388
0
LINE
8
0
62
4
10
22.2122571825
20
19.4193566953
11
22.2313300681
21
19.4087807475
0
LINE
8
0
62
4
10
22.2313300681
20
19.5885706586
11
22.2122571825
21
19.5991465313
0
LINE
8
0
62
4
10
20.8771624002
20
19.6414500222
11
20.8517318861
21
19.6202982767
0
LINE
8
0
62
4
10
22.1741114113
20
19.5991465313
11
22.1550385257
21
19.5885706586
0
LINE
8
0
62
4
10
22.1486808972
20
19.4087807475
11
22.1677537828
21
19.4193566953
0
LINE
8
0
62
4
10
22.2313300681
20
19.2184150388
11
22.2122571825
21
19.2078391661
0
LINE
8
0
62
3
10
20.7541210549
20
21.4696643607
11
20.7004274798
21
21.5006643607
0
LINE
8
0
62
4
10
21.0106713978
20
19.6202982767
11
20.9852414844
21
19.6414500222
0
LINE
8
0
62
4
10
20.5592821752
20
19.5462671678
11
20.5402098903
21
19.5251154224
0
LINE
8
0
62
4
10
20.8708047717
20
19.5674189132
11
20.8898776572
21
19.5885706586
0
LINE
8
0
62
4
10
20.6228584605
20
19.2607185296
11
20.6419313461
21
19.2818702750
0
LINE
8
0
62
4
10
21.1568962533
20
19.6414500222
11
21.1314657391
21
19.6202982767
0
LINE
8
0
62
3
10
22.0041210549
20
21.4696643607
11
21.9504274798
21
21.5006643607
0
LINE
8
0
62
4
10
21.2904058516
20
19.6202982767
11
21.2649753375
21
19.6414500222
0
LINE
8
0
62
4
10
21.8753046727
20
19.1655356753
11
21.8435165300
21
19.1972632934
0
LINE
8
0
62
4
10
22.1423238694
20
19.1655356753
11
22.1105357268
21
19.1972632934
0
LINE
8
0
62
4
10
20.9788838559
20
19.5885706586
11
20.9979567415
21
19.5674189132
0
LINE
8
0
62
4
10
21.2586177090
20
19.5885706586
11
21.2776905946
21
19.5674189132
0
LINE
8
0
62
3
10
20.7004274798
20
21.5006643607
11
20.8680296215
21
21.7909597855
0
LINE
8
0
62
3
10
20.9396210549
20
21.7909597855
11
20.7541210549
21
21.4696643607
0
LINE
8
0
62
4
10
20.8517318861
20
19.6202982767
11
20.8263013720
21
19.5779947859
0
LINE
8
0
62
4
10
21.1505386247
20
19.5674189132
11
21.1696115103
21
19.5885706586
0
LINE
8
0
62
4
10
21.8625894156
20
19.5674189132
11
21.8816623012
21
19.5885706586
0
LINE
8
0
62
4
10
22.1550385257
20
19.5885706586
11
22.1359662409
21
19.5674189132
0
LINE
8
0
62
4
10
21.9643108713
20
19.2395667842
11
21.9452379857
21
19.2184150388
0
LINE
8
0
62
4
10
22.1296086124
20
19.3876290021
11
22.1486808972
21
19.4087807475
0
LINE
8
0
62
4
10
22.2504029537
20
19.2395667842
11
22.2313300681
21
19.2184150388
0
LINE
8
0
62
4
10
21.8435165300
20
19.6097224040
11
21.8753046727
21
19.6414500222
0
LINE
8
0
62
4
10
22.1168933553
20
19.6097224040
11
22.1486808972
21
19.6414500222
0
LINE
8
0
62
4
10
22.1105357268
20
19.4299325680
11
22.1423238694
21
19.4616601861
0
LINE
8
0
62
4
10
21.9833837569
20
19.1972632934
11
21.9515956143
21
19.1655356753
0
LINE
8
0
62
4
10
22.2694752385
20
19.1972632934
11
22.2376876966
21
19.1655356753
0
LINE
8
0
62
4
10
21.9515956143
20
19.6414500222
11
21.9833837569
21
19.6097224040
0
LINE
8
0
62
4
10
22.2376876966
20
19.6414500222
11
22.2694752385
21
19.6097224040
0
LINE
8
0
62
4
10
21.8816623012
20
19.2184150388
11
21.8625894156
21
19.2395667842
0
LINE
8
0
62
4
10
22.1486808972
20
19.2184150388
11
22.1296086124
21
19.2395667842
0
LINE
8
0
62
4
10
21.9452379857
20
19.5885706586
11
21.9643108713
21
19.5674189132
0
LINE
8
0
62
4
10
22.2313300681
20
19.4087807475
11
22.2504029537
21
19.3876290021
0
LINE
8
0
62
4
10
22.2376876966
20
19.4616601861
11
22.2758328671
21
19.4193566953
0
LINE
8
0
62
4
10
22.2504029537
20
19.5674189132
11
22.2313300681
21
19.5885706586
0
LINE
8
0
62
4
10
20.8390166290
20
19.4405084407
11
20.9979567415
21
19.2078391661
0
LINE
8
0
62
4
10
21.1187510828
20
19.4405084407
11
21.2776905946
21
19.2078391661
0
LINE
8
0
62
4
10
21.0488171690
20
19.2078391661
11
20.8708047717
21
19.4722360588
0
LINE
8
0
62
4
10
21.3285516228
20
19.2078391661
11
21.1505386247
21
19.4722360588
0
LINE
8
0
62
4
10
21.0361019119
20
19.5779947859
11
21.0106713978
21
19.6202982767
0
LINE
8
0
62
4
10
20.3621968923
20
19.6097224040
11
20.3049788362
21
19.3241737659
0
LINE
8
0
62
4
10
20.2731906936
20
19.1549598026
11
20.2986212077
21
19.2818702750
0
LINE
8
0
62
4
10
20.3367663781
20
19.6520258949
11
20.2350449224
21
19.1549598026
0
LINE
8
0
62
4
10
20.8580895146
20
19.5356912951
11
20.8708047717
21
19.5674189132
0
LINE
8
0
62
4
10
21.1378233677
20
19.5356912951
11
21.1505386247
21
19.5674189132
0
LINE
8
0
62
3
10
21.9504274798
20
21.5006643607
11
22.1180296215
21
21.7909597855
0
LINE
8
0
62
3
10
22.1896210549
20
21.7909597855
11
22.0041210549
21
21.4696643607
0
LINE
8
0
62
4
10
21.1314657391
20
19.6202982767
11
21.1060358258
21
19.5779947859
0
LINE
8
0
62
4
10
21.8244436444
20
19.5779947859
11
21.8435165300
21
19.6097224040
0
LINE
8
0
62
4
10
22.0914628412
20
19.3982048748
11
22.1105357268
21
19.4299325680
0
LINE
8
0
62
4
10
22.0024566425
20
19.2289909115
11
21.9833837569
21
19.1972632934
0
LINE
8
0
62
4
10
22.1168933553
20
19.3664772567
11
22.1296086124
21
19.3876290021
0
LINE
8
0
62
3
10
27.3646210549
20
20.8229597855
11
25.6896210549
21
21.7909597855
0
LINE
8
0
62
4
10
21.3158363658
20
19.5779947859
11
21.2904058516
21
19.6202982767
0
LINE
8
0
62
4
10
21.8435165300
20
19.1972632934
11
21.8244436444
21
19.2289909115
0
LINE
8
0
62
4
10
21.9833837569
20
19.6097224040
11
22.0024566425
21
19.5779947859
0
LINE
8
0
62
4
10
22.2504029537
20
19.3876290021
11
22.2631176100
21
19.3664772567
0
LINE
8
0
62
4
10
20.7309375447
20
19.5674189132
11
20.7690833159
21
19.4933878043
0
LINE
8
0
62
4
10
20.7690833159
20
19.5779947859
11
20.7309375447
21
19.6520258949
0
LINE
8
0
62
4
10
20.8263013720
20
19.4722360588
11
20.8390166290
21
19.4405084407
0
LINE
8
0
62
4
10
20.9979567415
20
19.5674189132
11
21.0106713978
21
19.5356912951
0
LINE
8
0
62
4
10
21.1060358258
20
19.4722360588
11
21.1187510828
21
19.4405084407
0
LINE
8
0
62
4
10
21.2776905946
20
19.5674189132
11
21.2904058516
21
19.5356912951
0
LINE
8
0
62
4
10
20.5402098903
20
19.5251154224
11
20.6228584605
21
19.2607185296
0
LINE
8
0
62
4
10
20.6419313461
20
19.2818702750
11
20.5592821752
21
19.5462671678
0
LINE
8
0
62
4
10
20.8708047717
20
19.4722360588
11
20.8580895146
21
19.5145395497
0
LINE
8
0
62
4
10
20.4893488621
20
19.1549598026
11
20.3876274064
21
19.6520258949
0
LINE
8
0
62
4
10
20.4257731776
20
19.2818702750
11
20.4512030909
21
19.1549598026
0
LINE
8
0
62
4
10
20.4194155490
20
19.3241737659
11
20.3621968923
21
19.6097224040
0
LINE
8
0
62
4
10
21.8371589015
20
19.3030220204
11
21.8308012729
21
19.3664772567
0
LINE
8
0
62
4
10
20.6927917736
20
19.6520258949
11
20.6927917736
21
19.1549598026
0
LINE
8
0
62
4
10
20.7309375447
20
19.1549598026
11
20.7309375447
21
19.5674189132
0
LINE
8
0
62
4
10
20.7690833159
20
19.4933878043
11
20.7690833159
21
19.5779947859
0
LINE
8
0
62
4
10
20.8199437434
20
19.5356912951
11
20.8199437434
21
19.5145395497
0
LINE
8
0
62
4
10
20.8199437434
20
19.2078391661
11
20.8199437434
21
19.1549598026
0
LINE
8
0
62
4
10
20.8580895146
20
19.5145395497
11
20.8580895146
21
19.5356912951
0
LINE
8
0
62
4
10
21.0488171690
20
19.1549598026
11
21.0488171690
21
19.2078391661
0
LINE
8
0
62
4
10
21.0996781972
20
19.5356912951
11
21.0996781972
21
19.5145395497
0
LINE
8
0
62
4
10
21.0996781972
20
19.2078391661
11
21.0996781972
21
19.1549598026
0
LINE
8
0
62
4
10
21.1378233677
20
19.5145395497
11
21.1378233677
21
19.5356912951
0
LINE
8
0
62
4
10
21.3285516228
20
19.1549598026
11
21.3285516228
21
19.2078391661
0
LINE
8
0
62
4
10
21.3794120503
20
19.3876290021
11
21.3794120503
21
19.3347496761
0
LINE
8
0
62
4
10
21.4684182490
20
19.3347496761
11
21.4684182490
21
19.3876290021
0
LINE
8
0
62
4
10
21.5192792772
20
19.6520258949
11
21.5192792772
21
19.5991465313
0
LINE
8
0
62
4
10
21.7481527028
20
19.5991465313
11
21.7481527028
21
19.6520258949
0
LINE
8
0
62
4
10
21.7990137310
20
19.4510843134
11
21.8053707588
21
19.5039636770
0
LINE
8
0
62
4
10
20.8263013720
20
19.5779947859
11
20.8199437434
21
19.5356912951
0
LINE
8
0
62
4
10
21.1060358258
20
19.5779947859
11
21.0996781972
21
19.5356912951
0
LINE
8
0
62
4
10
21.8053707588
20
19.5039636770
11
21.8117283874
21
19.5356912951
0
LINE
8
0
62
4
10
21.8117283874
20
19.5356912951
11
21.8244436444
21
19.5779947859
0
LINE
8
0
62
4
10
22.0151718996
20
19.2712944023
11
22.0024566425
21
19.2289909115
0
LINE
8
0
62
4
10
21.8371589015
20
19.5039636770
11
21.8625894156
21
19.5674189132
0
LINE
8
0
62
4
10
21.9897413854
20
19.3030220204
11
21.9643108713
21
19.2395667842
0
LINE
8
0
62
4
10
22.1359662409
20
19.5674189132
11
22.1232509838
21
19.5356912951
0
LINE
8
0
62
4
10
22.2631176100
20
19.2712944023
11
22.2504029537
21
19.2395667842
0
LINE
8
0
62
4
10
22.0978204697
20
19.5674189132
11
22.1168933553
21
19.6097224040
0
LINE
8
0
62
4
10
22.2885481241
20
19.2395667842
11
22.2694752385
21
19.1972632934
0
LINE
8
0
62
4
10
22.1105357268
20
19.1972632934
11
22.0914628412
21
19.2395667842
0
LINE
8
0
62
4
10
22.2694752385
20
19.6097224040
11
22.2885481241
21
19.5674189132
0
LINE
8
0
62
4
10
21.8625894156
20
19.2395667842
11
21.8371589015
21
19.3030220204
0
LINE
8
0
62
4
10
21.9643108713
20
19.5674189132
11
21.9897413854
21
19.5039636770
0
LINE
8
0
62
4
10
22.1296086124
20
19.2395667842
11
22.1168933553
21
19.2712944023
0
LINE
8
0
62
4
10
22.2631176100
20
19.5356912951
11
22.2504029537
21
19.5674189132
0
LINE
8
0
62
4
10
21.1505386247
20
19.4722360588
11
21.1378233677
21
19.5145395497
0
LINE
8
0
62
4
10
21.8244436444
20
19.2289909115
11
21.8117283874
21
19.2712944023
0
LINE
8
0
62
4
10
22.0024566425
20
19.5779947859
11
22.0151718996
21
19.5356912951
0
LINE
8
0
62
4
10
21.5192792772
20
19.5991465313
11
21.6464312471
21
19.1549598026
0
LINE
8
0
62
4
10
21.6845770183
20
19.1549598026
11
21.5574250484
21
19.5991465313
0
LINE
8
0
62
4
10
22.0914628412
20
19.2395667842
11
22.0787475841
21
19.2924461477
0
LINE
8
0
62
4
10
21.8117283874
20
19.2712944023
11
21.8053707588
21
19.3030220204
0
LINE
8
0
62
4
10
22.0151718996
20
19.5356912951
11
22.0215295281
21
19.5039636770
0
LINE
8
0
62
4
10
20.8199437434
20
19.5145395497
11
20.8263013720
21
19.4722360588
0
LINE
8
0
62
4
10
21.0424595405
20
19.5356912951
11
21.0361019119
21
19.5779947859
0
LINE
8
0
62
4
10
21.0996781972
20
19.5145395497
11
21.1060358258
21
19.4722360588
0
LINE
8
0
62
4
10
21.3221939943
20
19.5356912951
11
21.3158363658
21
19.5779947859
0
LINE
8
0
62
4
10
21.8053707588
20
19.3030220204
11
21.7990137310
21
19.3559013840
0
LINE
8
0
62
4
10
21.9897413854
20
19.5039636770
11
21.9960990140
21
19.4405084407
0
LINE
8
0
62
4
10
22.2758328671
20
19.4405084407
11
22.2694752385
21
19.5039636770
0
LINE
8
0
62
4
10
22.3012633812
20
19.5145395497
11
22.3076210097
21
19.4405084407
0
LINE
8
0
62
4
10
21.7990137310
20
19.3559013840
11
21.7990137310
21
19.4510843134
0
LINE
8
0
62
4
10
21.8308012729
20
19.3664772567
11
21.8308012729
21
19.4405084407
0
LINE
8
0
62
4
10
21.9960990140
20
19.4405084407
11
21.9960990140
21
19.3664772567
0
LINE
8
0
62
4
10
22.0278871566
20
19.4510843134
11
22.0278871566
21
19.3559013840
0
LINE
8
0
62
4
10
22.0787475841
20
19.2924461477
11
22.0787475841
21
19.3453255113
0
LINE
8
0
62
4
10
22.1105357268
20
19.3030220204
11
22.1105357268
21
19.3347496761
0
LINE
8
0
62
4
10
22.2694752385
20
19.3347496761
11
22.2694752385
21
19.3030220204
0
LINE
8
0
62
4
10
22.2758328671
20
19.4193566953
11
22.2758328671
21
19.4405084407
0
LINE
8
0
62
4
10
22.3076210097
20
19.4405084407
11
22.3076210097
21
19.3664772567
0
LINE
8
0
62
4
10
22.3076210097
20
19.3664772567
11
22.3012633812
21
19.2924461477
0
LINE
8
0
62
4
10
21.8308012729
20
19.4405084407
11
21.8371589015
21
19.5039636770
0
LINE
8
0
62
4
10
21.9960990140
20
19.3664772567
11
21.9897413854
21
19.3030220204
0
LINE
8
0
62
4
10
22.0278871566
20
19.3559013840
11
22.0215295281
21
19.3030220204
0
LINE
8
0
62
4
10
22.0215295281
20
19.3030220204
11
22.0151718996
21
19.2712944023
0
LINE
8
0
62
4
10
22.0914628412
20
19.5356912951
11
22.0978204697
21
19.5674189132
0
LINE
8
0
62
4
10
22.1105357268
20
19.3347496761
11
22.1168933553
21
19.3664772567
0
LINE
8
0
62
4
10
22.2694752385
20
19.3030220204
11
22.2631176100
21
19.2712944023
0
LINE
8
0
62
4
10
22.0787475841
20
19.3453255113
11
22.0914628412
21
19.3982048748
0
LINE
8
0
62
4
10
22.3012633812
20
19.2924461477
11
22.2885481241
21
19.2395667842
0
LINE
8
0
62
3
10
22.8251210549
20
21.4696643607
11
22.6396210549
21
21.7909597855
0
LINE
8
0
62
3
10
22.7112124883
20
21.7909597855
11
22.8788146299
21
21.5006643607
0
LINE
8
0
62
4
10
22.2885481241
20
19.5674189132
11
22.3012633812
21
19.5145395497
0
LINE
8
0
62
4
10
22.1168933553
20
19.2712944023
11
22.1105357268
21
19.3030220204
0
LINE
8
0
62
4
10
22.2631176100
20
19.3664772567
11
22.2694752385
21
19.3347496761
0
LINE
8
0
62
4
10
22.2694752385
20
19.5039636770
11
22.2631176100
21
19.5356912951
0
LINE
8
0
62
4
10
22.0215295281
20
19.5039636770
11
22.0278871566
21
19.4510843134
0
LINE
8
0
62
3
10
24.0751210549
20
21.4696643607
11
23.8896210549
21
21.7909597855
0
LINE
8
0
62
3
10
23.9612124883
20
21.7909597855
11
24.1288146299
21
21.5006643607
0
LINE
8
0
62
3
10
27.3646210549
20
17.2809089892
11
27.3646210549
21
18.9059597855
0
LINE
8
0
62
3
10
27.3646210549
20
19.8959597855
11
27.3646210549
21
20.8229597855
0
LINE
8
0
62
3
10
27.4396210549
20
18.9059597855
11
27.4396210549
21
19.8959597855
0
ARC
8
0
62
3
10
15.9996210549
20
18.7559597855
40
0.0450000000
50
270.0000000000
51
450.0000000000
0
ARC
8
0
62
3
10
14.9646210549
20
18.7559597855
40
0.0450000000
50
90.0000000000
51
270.0000000000
0
ARC
8
0
62
3
10
17.3796210549
20
18.7559597855
40
0.0450000000
50
270.0000000000
51
450.0000000000
0
ARC
8
0
62
3
10
16.3446210549
20
18.7559597855
40
0.0450000000
50
90.0000000000
51
270.0000000000
0
ARC
8
0
62
3
10
18.7596210549
20
18.7559597855
40
0.0450000000
50
270.0000000000
51
450.0000000000
0
ARC
8
0
62
3
10
17.7246210549
20
18.7559597855
40
0.0450000000
50
90.0000000000
51
270.0000000000
0
ARC
8
0
62
3
10
20.1396210549
20
18.7559597855
40
0.0450000000
50
270.0000000000
51
450.0000000000
0
ARC
8
0
62
3
10
19.1046210549
20
18.7559597855
40
0.0450000000
50
90.0000000000
51
270.0000000000
0
ARC
8
0
62
3
10
15.9996210549
20
18.9359597855
40
0.0450000000
50
270.0000000000
51
450.0000000000
0
ARC
8
0
62
3
10
14.9646210549
20
18.9359597855
40
0.0450000000
50
90.0000000000
51
270.0000000000
0
ARC
8
0
62
3
10
17.3796210549
20
18.9359597855
40
0.0450000000
50
270.0000000000
51
450.0000000000
0
ARC
8
0
62
3
10
16.3446210549
20
18.9359597855
40
0.0450000000
50
90.0000000000
51
270.0000000000
0
ARC
8
0
62
3
10
18.7596210549
20
18.9359597855
40
0.0450000000
50
270.0000000000
51
450.0000000000
0
ARC
8
0
62
3
10
17.7246210549
20
18.9359597855
40
0.0450000000
50
90.0000000000
51
270.0000000000
0
ARC
8
0
62
3
10
20.1396210549
20
18.9359597855
40
0.0450000000
50
270.0000000000
51
450.0000000000
0
ARC
8
0
62
3
10
19.1046210549
20
18.9359597855
40
0.0450000000
50
90.0000000000
51
270.0000000000
0
ARC
8
0
62
3
10
15.9996210549
20
19.1159597855
40
0.0450000000
50
270.0000000000
51
450.0000000000
0
ARC
8
0
62
3
10
14.9646210549
20
19.1159597855
40
0.0450000000
50
90.0000000000
51
270.0000000000
0
ARC
8
0
62
3
10
17.3796210549
20
19.1159597855
40
0.0450000000
50
270.0000000000
51
450.0000000000
0
ARC
8
0
62
3
10
16.3446210549
20
19.1159597855
40
0.0450000000
50
90.0000000000
51
270.0000000000
0
ARC
8
0
62
3
10
18.7596210549
20
19.1159597855
40
0.0450000000
50
270.0000000000
51
450.0000000000
0
ARC
8
0
62
3
10
17.7246210549
20
19.1159597855
40
0.0450000000
50
90.0000000000
51
270.0000000000
0
ARC
8
0
62
3
10
20.1396210549
20
19.1159597855
40
0.0450000000
50
270.0000000000
51
450.0000000000
0
ARC
8
0
62
3
10
19.1046210549
20
19.1159597855
40
0.0450000000
50
90.0000000000
51
270.0000000000
0
ARC
8
0
62
3
10
15.9996210549
20
19.2959597855
40
0.0450000000
50
270.0000000000
51
450.0000000000
0
ARC
8
0
62
3
10
14.9646210549
20
19.2959597855
40
0.0450000000
50
90.0000000000
51
270.0000000000
0
ARC
8
0
62
3
10
17.3796210549
20
19.2959597855
40
0.0450000000
50
270.0000000000
51
450.0000000000
0
ARC
8
0
62
3
10
16.3446210549
20
19.2959597855
40
0.0450000000
50
90.0000000000
51
270.0000000000
0
ARC
8
0
62
3
10
18.7596210549
20
19.2959597855
40
0.0450000000
50
270.0000000000
51
450.0000000000
0
ARC
8
0
62
3
10
17.7246210549
20
19.2959597855
40
0.0450000000
50
90.0000000000
51
270.0000000000
0
ARC
8
0
62
3
10
20.1396210549
20
19.2959597855
40
0.0450000000
50
270.0000000000
51
450.0000000000
0
ARC
8
0
62
3
10
19.1046210549
20
19.2959597855
40
0.0450000000
50
90.0000000000
51
270.0000000000
0
ARC
8
0
62
3
10
15.9996210549
20
19.4759597855
40
0.0450000000
50
270.0000000000
51
450.0000000000
0
ARC
8
0
62
3
10
14.9646210549
20
19.4759597855
40
0.0450000000
50
90.0000000000
51
270.0000000000
0
ARC
8
0
62
3
10
17.3796210549
20
19.4759597855
40
0.0450000000
50
270.0000000000
51
450.0000000000
0
ARC
8
0
62
3
10
16.3446210549
20
19.4759597855
40
0.0450000000
50
90.0000000000
51
270.0000000000
0
ARC
8
0
62
3
10
18.7596210549
20
19.4759597855
40
0.0450000000
50
270.0000000000
51
450.0000000000
0
ARC
8
0
62
3
10
17.7246210549
20
19.4759597855
40
0.0450000000
50
90.0000000000
51
270.0000000000
0
ARC
8
0
62
3
10
20.1396210549
20
19.4759597855
40
0.0450000000
50
270.0000000000
51
450.0000000000
0
ARC
8
0
62
3
10
19.1046210549
20
19.4759597855
40
0.0450000000
50
90.0000000000
51
270.0000000000
0
ARC
8
0
62
3
10
15.9996210549
20
19.6559597855
40
0.0450000000
50
270.0000000000
51
450.0000000000
0
ARC
8
0
62
3
10
14.9646210549
20
19.6559597855
40
0.0450000000
50
90.0000000000
51
270.0000000000
0
ARC
8
0
62
3
10
17.3796210549
20
19.6559597855
40
0.0450000000
50
270.0000000000
51
450.0000000000
0
ARC
8
0
62
3
10
16.3446210549
20
19.6559597855
40
0.0450000000
50
90.0000000000
51
270.0000000000
0
ARC
8
0
62
3
10
18.7596210549
20
19.6559597855
40
0.0450000000
50
270.0000000000
51
450.0000000000
0
ARC
8
0
62
3
10
17.7246210549
20
19.6559597855
40
0.0450000000
50
90.0000000000
51
270.0000000000
0
ARC
8
0
62
3
10
20.1396210549
20
19.6559597855
40
0.0450000000
50
270.0000000000
51
450.0000000000
0
ARC
8
0
62
3
10
19.1046210549
20
19.6559597855
40
0.0450000000
50
90.0000000000
51
270.0000000000
0
ARC
8
0
62
3
10
15.9996210549
20
19.8359597855
40
0.0450000000
50
270.0000000000
51
450.0000000000
0
ARC
8
0
62
3
10
14.9646210549
20
19.8359597855
40
0.0450000000
50
90.0000000000
51
270.0000000000
0
ARC
8
0
62
3
10
17.3796210549
20
19.8359597855
40
0.0450000000
50
270.0000000000
51
450.0000000000
0
ARC
8
0
62
3
10
16.3446210549
20
19.8359597855
40
0.0450000000
50
90.0000000000
51
270.0000000000
0
ARC
8
0
62
3
10
18.7596210549
20
19.8359597855
40
0.0450000000
50
270.0000000000
51
450.0000000000
0
ARC
8
0
62
3
10
17.7246210549
20
19.8359597855
40
0.0450000000
50
90.0000000000
51
270.0000000000
0
ARC
8
0
62
3
10
20.1396210549
20
19.8359597855
40
0.0450000000
50
270.0000000000
51
450.0000000000
0
ARC
8
0
62
3
10
19.1046210549
20
19.8359597855
40
0.0450000000
50
90.0000000000
51
270.0000000000
0
ARC
8
0
62
3
10
15.9996210549
20
20.0159597855
40
0.0450000000
50
270.0000000000
51
450.0000000000
0
ARC
8
0
62
3
10
14.9646210549
20
20.0159597855
40
0.0450000000
50
90.0000000000
51
270.0000000000
0
ARC
8
0
62
3
10
17.3796210549
20
20.0159597855
40
0.0450000000
50
270.0000000000
51
450.0000000000
0
ARC
8
0
62
3
10
16.3446210549
20
20.0159597855
40
0.0450000000
50
90.0000000000
51
270.0000000000
0
ARC
8
0
62
3
10
18.7596210549
20
20.0159597855
40
0.0450000000
50
270.0000000000
51
450.0000000000
0
ARC
8
0
62
3
10
17.7246210549
20
20.0159597855
40
0.0450000000
50
90.0000000000
51
270.0000000000
0
ARC
8
0
62
3
10
20.1396210549
20
20.0159597855
40
0.0450000000
50
270.0000000000
51
450.0000000000
0
ARC
8
0
62
3
10
19.1046210549
20
20.0159597855
40
0.0450000000
50
90.0000000000
51
270.0000000000
0
ARC
8
0
62
3
10
15.9996210549
20
20.1959597855
40
0.0450000000
50
270.0000000000
51
450.0000000000
0
ARC
8
0
62
3
10
14.9646210549
20
20.1959597855
40
0.0450000000
50
90.0000000000
51
270.0000000000
0
ARC
8
0
62
3
10
17.3796210549
20
20.1959597855
40
0.0450000000
50
270.0000000000
51
450.0000000000
0
ARC
8
0
62
3
10
16.3446210549
20
20.1959597855
40
0.0450000000
50
90.0000000000
51
270.0000000000
0
ARC
8
0
62
3
10
18.7596210549
20
20.1959597855
40
0.0450000000
50
270.0000000000
51
450.0000000000
0
ARC
8
0
62
3
10
17.7246210549
20
20.1959597855
40
0.0450000000
50
90.0000000000
51
270.0000000000
0
ARC
8
0
62
3
10
20.1396210549
20
20.1959597855
40
0.0450000000
50
270.0000000000
51
450.0000000000
0
ARC
8
0
62
3
10
19.1046210549
20
20.1959597855
40
0.0450000000
50
90.0000000000
51
270.0000000000
0
ARC
8
0
62
3
10
15.9996210549
20
20.3759597855
40
0.0450000000
50
270.0000000000
51
450.0000000000
0
ARC
8
0
62
3
10
14.9646210549
20
20.3759597855
40
0.0450000000
50
90.0000000000
51
270.0000000000
0
ARC
8
0
62
3
10
17.3796210549
20
20.3759597855
40
0.0450000000
50
270.0000000000
51
450.0000000000
0
ARC
8
0
62
3
10
16.3446210549
20
20.3759597855
40
0.0450000000
50
90.0000000000
51
270.0000000000
0
ARC
8
0
62
3
10
18.7596210549
20
20.3759597855
40
0.0450000000
50
270.0000000000
51
450.0000000000
0
ARC
8
0
62
3
10
17.7246210549
20
20.3759597855
40
0.0450000000
50
90.0000000000
51
270.0000000000
0
ARC
8
0
62
3
10
20.1396210549
20
20.3759597855
40
0.0450000000
50
270.0000000000
51
450.0000000000
0
ARC
8
0
62
3
10
19.1046210549
20
20.3759597855
40
0.0450000000
50
90.0000000000
51
270.0000000000
0
ARC
8
0
62
3
10
15.9996210549
20
20.5559597855
40
0.0450000000
50
270.0000000000
51
450.0000000000
0
ARC
8
0
62
3
10
14.9646210549
20
20.5559597855
40
0.0450000000
50
90.0000000000
51
270.0000000000
0
ARC
8
0
62
3
10
17.3796210549
20
20.5559597855
40
0.0450000000
50
270.0000000000
51
450.0000000000
0
ARC
8
0
62
3
10
16.3446210549
20
20.5559597855
40
0.0450000000
50
90.0000000000
51
270.0000000000
0
ARC
8
0
62
3
10
18.7596210549
20
20.5559597855
40
0.0450000000
50
270.0000000000
51
450.0000000000
0
ARC
8
0
62
3
10
17.7246210549
20
20.5559597855
40
0.0450000000
50
90.0000000000
51
270.0000000000
0
ARC
8
0
62
3
10
20.1396210549
20
20.5559597855
40
0.0450000000
50
270.0000000000
51
450.0000000000
0
ARC
8
0
62
3
10
19.1046210549
20
20.5559597855
40
0.0450000000
50
90.0000000000
51
270.0000000000
0
ARC
8
0
62
3
10
15.9996210549
20
20.7359597855
40
0.0450000000
50
270.0000000000
51
450.0000000000
0
ARC
8
0
62
3
10
14.9646210549
20
20.7359597855
40
0.0450000000
50
90.0000000000
51
270.0000000000
0
ARC
8
0
62
3
10
17.3796210549
20
20.7359597855
40
0.0450000000
50
270.0000000000
51
450.0000000000
0
ARC
8
0
62
3
10
16.3446210549
20
20.7359597855
40
0.0450000000
50
90.0000000000
51
270.0000000000
0
ARC
8
0
62
3
10
18.7596210549
20
20.7359597855
40
0.0450000000
50
270.0000000000
51
450.0000000000
0
ARC
8
0
62
3
10
17.7246210549
20
20.7359597855
40
0.0450000000
50
90.0000000000
51
270.0000000000
0
ARC
8
0
62
3
10
20.1396210549
20
20.7359597855
40
0.0450000000
50
270.0000000000
51
450.0000000000
0
ARC
8
0
62
3
10
19.1046210549
20
20.7359597855
40
0.0450000000
50
90.0000000000
51
270.0000000000
0
ARC
8
0
62
3
10
15.9996210549
20
20.9159597855
40
0.0450000000
50
270.0000000000
51
450.0000000000
0
ARC
8
0
62
3
10
14.9646210549
20
20.9159597855
40
0.0450000000
50
90.0000000000
51
270.0000000000
0
ARC
8
0
62
3
10
17.3796210549
20
20.9159597855
40
0.0450000000
50
270.0000000000
51
450.0000000000
0
ARC
8
0
62
3
10
16.3446210549
20
20.9159597855
40
0.0450000000
50
90.0000000000
51
270.0000000000
0
ARC
8
0
62
3
10
18.7596210549
20
20.9159597855
40
0.0450000000
50
270.0000000000
51
450.0000000000
0
ARC
8
0
62
3
10
17.7246210549
20
20.9159597855
40
0.0450000000
50
90.0000000000
51
270.0000000000
0
ARC
8
0
62
3
10
20.1396210549
20
20.9159597855
40
0.0450000000
50
270.0000000000
51
450.0000000000
0
ARC
8
0
62
3
10
19.1046210549
20
20.9159597855
40
0.0450000000
50
90.0000000000
51
270.0000000000
0
ARC
8
0
62
3
10
15.9996210549
20
21.0959597855
40
0.0450000000
50
270.0000000000
51
450.0000000000
0
ARC
8
0
62
3
10
14.9646210549
20
21.0959597855
40
0.0450000000
50
90.0000000000
51
270.0000000000
0
ARC
8
0
62
3
10
17.3796210549
20
21.0959597855
40
0.0450000000
50
270.0000000000
51
450.0000000000
0
ARC
8
0
62
3
10
16.3446210549
20
21.0959597855
40
0.0450000000
50
90.0000000000
51
270.0000000000
0
ARC
8
0
62
3
10
18.7596210549
20
21.0959597855
40
0.0450000000
50
270.0000000000
51
450.0000000000
0
ARC
8
0
62
3
10
17.7246210549
20
21.0959597855
40
0.0450000000
50
90.0000000000
51
270.0000000000
0
ARC
8
0
62
3
10
20.1396210549
20
21.0959597855
40
0.0450000000
50
270.0000000000
51
450.0000000000
0
ARC
8
0
62
3
10
19.1046210549
20
21.0959597855
40
0.0450000000
50
90.0000000000
51
270.0000000000
0
ARC
8
0
62
3
10
24.2096210549
20
18.7559597855
40
0.0450000000
50
270.0000000000
51
450.0000000000
0
ARC
8
0
62
3
10
23.1746210549
20
18.7559597855
40
0.0450000000
50
90.0000000000
51
270.0000000000
0
ARC
8
0
62
3
10
24.2096210549
20
18.9359597855
40
0.0450000000
50
270.0000000000
51
450.0000000000
0
ARC
8
0
62
3
10
23.1746210549
20
18.9359597855
40
0.0450000000
50
90.0000000000
51
270.0000000000
0
ARC
8
0
62
3
10
24.2096210549
20
19.1159597855
40
0.0450000000
50
270.0000000000
51
450.0000000000
0
ARC
8
0
62
3
10
23.1746210549
20
19.1159597855
40
0.0450000000
50
90.0000000000
51
270.0000000000
0
ARC
8
0
62
3
10
24.2096210549
20
19.2959597855
40
0.0450000000
50
270.0000000000
51
450.0000000000
0
ARC
8
0
62
3
10
23.1746210549
20
19.2959597855
40
0.0450000000
50
90.0000000000
51
270.0000000000
0
ARC
8
0
62
3
10
24.2096210549
20
19.4759597855
40
0.0450000000
50
270.0000000000
51
450.0000000000
0
ARC
8
0
62
3
10
23.1746210549
20
19.4759597855
40
0.0450000000
50
90.0000000000
51
270.0000000000
0
ARC
8
0
62
3
10
24.2096210549
20
19.6559597855
40
0.0450000000
50
270.0000000000
51
450.0000000000
0
ARC
8
0
62
3
10
23.1746210549
20
19.6559597855
40
0.0450000000
50
90.0000000000
51
270.0000000000
0
ARC
8
0
62
3
10
24.2096210549
20
19.8359597855
40
0.0450000000
50
270.0000000000
51
450.0000000000
0
ARC
8
0
62
3
10
23.1746210549
20
19.8359597855
40
0.0450000000
50
90.0000000000
51
270.0000000000
0
ARC
8
0
62
3
10
24.2096210549
20
20.0159597855
40
0.0450000000
50
270.0000000000
51
450.0000000000
0
ARC
8
0
62
3
10
23.1746210549
20
20.0159597855
40
0.0450000000
50
90.0000000000
51
270.0000000000
0
ARC
8
0
62
3
10
24.2096210549
20
20.1959597855
40
0.0450000000
50
270.0000000000
51
450.0000000000
0
ARC
8
0
62
3
10
23.1746210549
20
20.1959597855
40
0.0450000000
50
90.0000000000
51
270.0000000000
0
ARC
8
0
62
3
10
24.2096210549
20
20.3759597855
40
0.0450000000
50
270.0000000000
51
450.0000000000
0
ARC
8
0
62
3
10
23.1746210549
20
20.3759597855
40
0.0450000000
50
90.0000000000
51
270.0000000000
0
ARC
8
0
62
3
10
24.2096210549
20
20.5559597855
40
0.0450000000
50
270.0000000000
51
450.0000000000
0
ARC
8
0
62
3
10
23.1746210549
20
20.5559597855
40
0.0450000000
50
90.0000000000
51
270.0000000000
0
ARC
8
0
62
3
10
24.2096210549
20
20.7359597855
40
0.0450000000
50
270.0000000000
51
450.0000000000
0
ARC
8
0
62
3
10
23.1746210549
20
20.7359597855
40
0.0450000000
50
90.0000000000
51
270.0000000000
0
ARC
8
0
62
3
10
24.2096210549
20
20.9159597855
40
0.0450000000
50
270.0000000000
51
450.0000000000
0
ARC
8
0
62
3
10
23.1746210549
20
20.9159597855
40
0.0450000000
50
90.0000000000
51
270.0000000000
0
ARC
8
0
62
3
10
24.5546210549
20
18.7559597855
40
0.0450000000
50
90.0000000000
51
270.0000000000
0
ARC
8
0
62
3
10
25.5896210549
20
18.7559597855
40
0.0450000000
50
270.0000000000
51
450.0000000000
0
ARC
8
0
62
3
10
24.5546210549
20
18.9359597855
40
0.0450000000
50
90.0000000000
51
270.0000000000
0
ARC
8
0
62
3
10
25.5896210549
20
18.9359597855
40
0.0450000000
50
270.0000000000
51
450.0000000000
0
ARC
8
0
62
3
10
24.5546210549
20
19.1159597855
40
0.0450000000
50
90.0000000000
51
270.0000000000
0
ARC
8
0
62
3
10
25.5896210549
20
19.1159597855
40
0.0450000000
50
270.0000000000
51
450.0000000000
0
ARC
8
0
62
3
10
24.5546210549
20
19.2959597855
40
0.0450000000
50
90.0000000000
51
270.0000000000
0
ARC
8
0
62
3
10
25.5896210549
20
19.2959597855
40
0.0450000000
50
270.0000000000
51
450.0000000000
0
ARC
8
0
62
3
10
24.5546210549
20
19.4759597855
40
0.0450000000
50
90.0000000000
51
270.0000000000
0
ARC
8
0
62
3
10
25.5896210549
20
19.4759597855
40
0.0450000000
50
270.0000000000
51
450.0000000000
0
ARC
8
0
62
3
10
24.5546210549
20
19.6559597855
40
0.0450000000
50
90.0000000000
51
270.0000000000
0
ARC
8
0
62
3
10
25.5896210549
20
19.6559597855
40
0.0450000000
50
270.0000000000
51
450.0000000000
0
ARC
8
0
62
3
10
24.5546210549
20
19.8359597855
40
0.0450000000
50
90.0000000000
51
270.0000000000
0
ARC
8
0
62
3
10
25.5896210549
20
19.8359597855
40
0.0450000000
50
270.0000000000
51
450.0000000000
0
ARC
8
0
62
3
10
24.5546210549
20
20.0159597855
40
0.0450000000
50
90.0000000000
51
270.0000000000
0
ARC
8
0
62
3
10
25.5896210549
20
20.0159597855
40
0.0450000000
50
270.0000000000
51
450.0000000000
0
ARC
8
0
62
3
10
24.5546210549
20
20.1959597855
40
0.0450000000
50
90.0000000000
51
270.0000000000
0
ARC
8
0
62
3
10
25.5896210549
20
20.1959597855
40
0.0450000000
50
270.0000000000
51
450.0000000000
0
ARC
8
0
62
3
10
24.5546210549
20
20.3759597855
40
0.0450000000
50
90.0000000000
51
270.0000000000
0
ARC
8
0
62
3
10
25.5896210549
20
20.3759597855
40
0.0450000000
50
270.0000000000
51
450.0000000000
0
ARC
8
0
62
3
10
24.5546210549
20
20.5559597855
40
0.0450000000
50
90.0000000000
51
270.0000000000
0
ARC
8
0
62
3
10
25.5896210549
20
20.5559597855
40
0.0450000000
50
270.0000000000
51
450.0000000000
0
ARC
8
0
62
3
10
24.5546210549
20
20.7359597855
40
0.0450000000
50
90.0000000000
51
270.0000000000
0
ARC
8
0
62
3
10
25.5896210549
20
20.7359597855
40
0.0450000000
50
270.0000000000
51
450.0000000000
0
ARC
8
0
62
3
10
24.5546210549
20
20.9159597855
40
0.0450000000
50
90.0000000000
51
270.0000000000
0
ARC
8
0
62
3
10
25.5896210549
20
20.9159597855
40
0.0450000000
50
270.0000000000
51
450.0000000000
0
ARC
8
0
62
3
10
25.9346210549
20
18.7559597855
40
0.0450000000
50
90.0000000000
51
270.0000000000
0
ARC
8
0
62
3
10
26.9696210549
20
18.7559597855
40
0.0450000000
50
270.0000000000
51
450.0000000000
0
ARC
8
0
62
3
10
25.9346210549
20
18.9359597855
40
0.0450000000
50
90.0000000000
51
270.0000000000
0
ARC
8
0
62
3
10
26.9696210549
20
18.9359597855
40
0.0450000000
50
270.0000000000
51
450.0000000000
0
ARC
8
0
62
3
10
25.9346210549
20
19.1159597855
40
0.0450000000
50
90.0000000000
51
270.0000000000
0
ARC
8
0
62
3
10
26.9696210549
20
19.1159597855
40
0.0450000000
50
270.0000000000
51
450.0000000000
0
ARC
8
0
62
3
10
25.9346210549
20
19.2959597855
40
0.0450000000
50
90.0000000000
51
270.0000000000
0
ARC
8
0
62
3
10
26.9696210549
20
19.2959597855
40
0.0450000000
50
270.0000000000
51
450.0000000000
0
ARC
8
0
62
3
10
25.9346210549
20
19.4759597855
40
0.0450000000
50
90.0000000000
51
270.0000000000
0
ARC
8
0
62
3
10
26.9696210549
20
19.4759597855
40
0.0450000000
50
270.0000000000
51
450.0000000000
0
ARC
8
0
62
3
10
25.9346210549
20
19.6559597855
40
0.0450000000
50
90.0000000000
51
270.0000000000
0
ARC
8
0
62
3
10
26.9696210549
20
19.6559597855
40
0.0450000000
50
270.0000000000
51
450.0000000000
0
ARC
8
0
62
3
10
25.9346210549
20
19.8359597855
40
0.0450000000
50
90.0000000000
51
270.0000000000
0
ARC
8
0
62
3
10
26.9696210549
20
19.8359597855
40
0.0450000000
50
270.0000000000
51
450.0000000000
0
ARC
8
0
62
3
10
25.9346210549
20
20.0159597855
40
0.0450000000
50
90.0000000000
51
270.0000000000
0
ARC
8
0
62
3
10
26.9696210549
20
20.0159597855
40
0.0450000000
50
270.0000000000
51
450.0000000000
0
ARC
8
0
62
3
10
25.9346210549
20
20.1959597855
40
0.0450000000
50
90.0000000000
51
270.0000000000
0
ARC
8
0
62
3
10
26.9696210549
20
20.1959597855
40
0.0450000000
50
270.0000000000
51
450.0000000000
0
ARC
8
0
62
3
10
4.2995194622
20
18.7559597855
40
0.0450000000
50
270.0000000000
51
450.0000000000
0
ARC
8
0
62
3
10
3.2645194622
20
18.7559597855
40
0.0450000000
50
90.0000000000
51
270.0000000000
0
ARC
8
0
62
3
10
2.9195194622
20
18.7559597855
40
0.0450000000
50
270.0000000000
51
450.0000000000
0
ARC
8
0
62
3
10
1.8845194622
20
18.7559597855
40
0.0450000000
50
90.0000000000
51
270.0000000000
0
ARC
8
0
62
3
10
1.5395194622
20
18.7559597855
40
0.0450000000
50
270.0000000000
51
450.0000000000
0
ARC
8
0
62
3
10
0.5045194622
20
18.7559597855
40
0.0450000000
50
90.0000000000
51
270.0000000000
0
ARC
8
0
62
3
10
0.1595194622
20
18.7559597855
40
0.0450000000
50
270.0000000000
51
450.0000000000
0
ARC
8
0
62
3
10
-0.8754805378
20
18.7559597855
40
0.0450000000
50
90.0000000000
51
270.0000000000
0
ARC
8
0
62
3
10
4.2995194622
20
18.9359597855
40
0.0450000000
50
270.0000000000
51
450.0000000000
0
ARC
8
0
62
3
10
3.2645194622
20
18.9359597855
40
0.0450000000
50
90.0000000000
51
270.0000000000
0
ARC
8
0
62
3
10
2.9195194622
20
18.9359597855
40
0.0450000000
50
270.0000000000
51
450.0000000000
0
ARC
8
0
62
3
10
1.8845194622
20
18.9359597855
40
0.0450000000
50
90.0000000000
51
270.0000000000
0
ARC
8
0
62
3
10
1.5395194622
20
18.9359597855
40
0.0450000000
50
270.0000000000
51
450.0000000000
0
ARC
8
0
62
3
10
0.5045194622
20
18.9359597855
40
0.0450000000
50
90.0000000000
51
270.0000000000
0
ARC
8
0
62
3
10
0.1595194622
20
18.9359597855
40
0.0450000000
50
270.0000000000
51
450.0000000000
0
ARC
8
0
62
3
10
-0.8754805378
20
18.9359597855
40
0.0450000000
50
90.0000000000
51
270.0000000000
0
ARC
8
0
62
3
10
4.2995194622
20
19.1159597855
40
0.0450000000
50
270.0000000000
51
450.0000000000
0
ARC
8
0
62
3
10
3.2645194622
20
19.1159597855
40
0.0450000000
50
90.0000000000
51
270.0000000000
0
ARC
8
0
62
3
10
2.9195194622
20
19.1159597855
40
0.0450000000
50
270.0000000000
51
450.0000000000
0
ARC
8
0
62
3
10
1.8845194622
20
19.1159597855
40
0.0450000000
50
90.0000000000
51
270.0000000000
0
ARC
8
0
62
3
10
1.5395194622
20
19.1159597855
40
0.0450000000
50
270.0000000000
51
450.0000000000
0
ARC
8
0
62
3
10
0.5045194622
20
19.1159597855
40
0.0450000000
50
90.0000000000
51
270.0000000000
0
ARC
8
0
62
3
10
0.1595194622
20
19.1159597855
40
0.0450000000
50
270.0000000000
51
450.0000000000
0
ARC
8
0
62
3
10
-0.8754805378
20
19.1159597855
40
0.0450000000
50
90.0000000000
51
270.0000000000
0
ARC
8
0
62
3
10
4.2995194622
20
19.2959597855
40
0.0450000000
50
270.0000000000
51
450.0000000000
0
ARC
8
0
62
3
10
3.2645194622
20
19.2959597855
40
0.0450000000
50
90.0000000000
51
270.0000000000
0
ARC
8
0
62
3
10
2.9195194622
20
19.2959597855
40
0.0450000000
50
270.0000000000
51
450.0000000000
0
ARC
8
0
62
3
10
1.8845194622
20
19.2959597855
40
0.0450000000
50
90.0000000000
51
270.0000000000
0
ARC
8
0
62
3
10
1.5395194622
20
19.2959597855
40
0.0450000000
50
270.0000000000
51
450.0000000000
0
ARC
8
0
62
3
10
0.5045194622
20
19.2959597855
40
0.0450000000
50
90.0000000000
51
270.0000000000
0
ARC
8
0
62
3
10
0.1595194622
20
19.2959597855
40
0.0450000000
50
270.0000000000
51
450.0000000000
0
ARC
8
0
62
3
10
-0.8754805378
20
19.2959597855
40
0.0450000000
50
90.0000000000
51
270.0000000000
0
ARC
8
0
62
3
10
4.2995194622
20
19.4759597855
40
0.0450000000
50
270.0000000000
51
450.0000000000
0
ARC
8
0
62
3
10
3.2645194622
20
19.4759597855
40
0.0450000000
50
90.0000000000
51
270.0000000000
0
ARC
8
0
62
3
10
2.9195194622
20
19.4759597855
40
0.0450000000
50
270.0000000000
51
450.0000000000
0
ARC
8
0
62
3
10
1.8845194622
20
19.4759597855
40
0.0450000000
50
90.0000000000
51
270.0000000000
0
ARC
8
0
62
3
10
1.5395194622
20
19.4759597855
40
0.0450000000
50
270.0000000000
51
450.0000000000
0
ARC
8
0
62
3
10
0.5045194622
20
19.4759597855
40
0.0450000000
50
90.0000000000
51
270.0000000000
0
ARC
8
0
62
3
10
0.1595194622
20
19.4759597855
40
0.0450000000
50
270.0000000000
51
450.0000000000
0
ARC
8
0
62
3
10
-0.8754805378
20
19.4759597855
40
0.0450000000
50
90.0000000000
51
270.0000000000
0
ARC
8
0
62
3
10
4.2995194622
20
19.6559597855
40
0.0450000000
50
270.0000000000
51
450.0000000000
0
ARC
8
0
62
3
10
3.2645194622
20
19.6559597855
40
0.0450000000
50
90.0000000000
51
270.0000000000
0
ARC
8
0
62
3
10
2.9195194622
20
19.6559597855
40
0.0450000000
50
270.0000000000
51
450.0000000000
0
ARC
8
0
62
3
10
1.8845194622
20
19.6559597855
40
0.0450000000
50
90.0000000000
51
270.0000000000
0
ARC
8
0
62
3
10
1.5395194622
20
19.6559597855
40
0.0450000000
50
270.0000000000
51
450.0000000000
0
ARC
8
0
62
3
10
0.5045194622
20
19.6559597855
40
0.0450000000
50
90.0000000000
51
270.0000000000
0
ARC
8
0
62
3
10
0.1595194622
20
19.6559597855
40
0.0450000000
50
270.0000000000
51
450.0000000000
0
ARC
8
0
62
3
10
-0.8754805378
20
19.6559597855
40
0.0450000000
50
90.0000000000
51
270.0000000000
0
ARC
8
0
62
3
10
4.2995194622
20
19.8359597855
40
0.0450000000
50
270.0000000000
51
450.0000000000
0
ARC
8
0
62
3
10
3.2645194622
20
19.8359597855
40
0.0450000000
50
90.0000000000
51
270.0000000000
0
ARC
8
0
62
3
10
2.9195194622
20
19.8359597855
40
0.0450000000
50
270.0000000000
51
450.0000000000
0
ARC
8
0
62
3
10
1.8845194622
20
19.8359597855
40
0.0450000000
50
90.0000000000
51
270.0000000000
0
ARC
8
0
62
3
10
1.5395194622
20
19.8359597855
40
0.0450000000
50
270.0000000000
51
450.0000000000
0
ARC
8
0
62
3
10
0.5045194622
20
19.8359597855
40
0.0450000000
50
90.0000000000
51
270.0000000000
0
ARC
8
0
62
3
10
0.1595194622
20
19.8359597855
40
0.0450000000
50
270.0000000000
51
450.0000000000
0
ARC
8
0
62
3
10
-0.8754805378
20
19.8359597855
40
0.0450000000
50
90.0000000000
51
270.0000000000
0
ARC
8
0
62
3
10
4.2995194622
20
20.0159597855
40
0.0450000000
50
270.0000000000
51
450.0000000000
0
ARC
8
0
62
3
10
3.2645194622
20
20.0159597855
40
0.0450000000
50
90.0000000000
51
270.0000000000
0
ARC
8
0
62
3
10
2.9195194622
20
20.0159597855
40
0.0450000000
50
270.0000000000
51
450.0000000000
0
ARC
8
0
62
3
10
1.8845194622
20
20.0159597855
40
0.0450000000
50
90.0000000000
51
270.0000000000
0
ARC
8
0
62
3
10
1.5395194622
20
20.0159597855
40
0.0450000000
50
270.0000000000
51
450.0000000000
0
ARC
8
0
62
3
10
0.5045194622
20
20.0159597855
40
0.0450000000
50
90.0000000000
51
270.0000000000
0
ARC
8
0
62
3
10
0.1595194622
20
20.0159597855
40
0.0450000000
50
270.0000000000
51
450.0000000000
0
ARC
8
0
62
3
10
-0.8754805378
20
20.0159597855
40
0.0450000000
50
90.0000000000
51
270.0000000000
0
ARC
8
0
62
3
10
4.2995194622
20
20.1959597855
40
0.0450000000
50
270.0000000000
51
450.0000000000
0
ARC
8
0
62
3
10
3.2645194622
20
20.1959597855
40
0.0450000000
50
90.0000000000
51
270.0000000000
0
ARC
8
0
62
3
10
2.9195194622
20
20.1959597855
40
0.0450000000
50
270.0000000000
51
450.0000000000
0
ARC
8
0
62
3
10
1.8845194622
20
20.1959597855
40
0.0450000000
50
90.0000000000
51
270.0000000000
0
ARC
8
0
62
3
10
1.5395194622
20
20.1959597855
40
0.0450000000
50
270.0000000000
51
450.0000000000
0
ARC
8
0
62
3
10
0.5045194622
20
20.1959597855
40
0.0450000000
50
90.0000000000
51
270.0000000000
0
ARC
8
0
62
3
10
0.1595194622
20
20.1959597855
40
0.0450000000
50
270.0000000000
51
450.0000000000
0
ARC
8
0
62
3
10
-0.8754805378
20
20.1959597855
40
0.0450000000
50
90.0000000000
51
270.0000000000
0
ARC
8
0
62
3
10
4.2995194622
20
20.3759597855
40
0.0450000000
50
270.0000000000
51
450.0000000000
0
ARC
8
0
62
3
10
3.2645194622
20
20.3759597855
40
0.0450000000
50
90.0000000000
51
270.0000000000
0
ARC
8
0
62
3
10
2.9195194622
20
20.3759597855
40
0.0450000000
50
270.0000000000
51
450.0000000000
0
ARC
8
0
62
3
10
1.8845194622
20
20.3759597855
40
0.0450000000
50
90.0000000000
51
270.0000000000
0
ARC
8
0
62
3
10
1.5395194622
20
20.3759597855
40
0.0450000000
50
270.0000000000
51
450.0000000000
0
ARC
8
0
62
3
10
0.5045194622
20
20.3759597855
40
0.0450000000
50
90.0000000000
51
270.0000000000
0
ARC
8
0
62
3
10
0.1595194622
20
20.3759597855
40
0.0450000000
50
270.0000000000
51
450.0000000000
0
ARC
8
0
62
3
10
-0.8754805378
20
20.3759597855
40
0.0450000000
50
90.0000000000
51
270.0000000000
0
ARC
8
0
62
3
10
4.2995194622
20
20.5559597855
40
0.0450000000
50
270.0000000000
51
450.0000000000
0
ARC
8
0
62
3
10
3.2645194622
20
20.5559597855
40
0.0450000000
50
90.0000000000
51
270.0000000000
0
ARC
8
0
62
3
10
2.9195194622
20
20.5559597855
40
0.0450000000
50
270.0000000000
51
450.0000000000
0
ARC
8
0
62
3
10
1.8845194622
20
20.5559597855
40
0.0450000000
50
90.0000000000
51
270.0000000000
0
ARC
8
0
62
3
10
1.5395194622
20
20.5559597855
40
0.0450000000
50
270.0000000000
51
450.0000000000
0
ARC
8
0
62
3
10
0.5045194622
20
20.5559597855
40
0.0450000000
50
90.0000000000
51
270.0000000000
0
ARC
8
0
62
3
10
0.1595194622
20
20.5559597855
40
0.0450000000
50
270.0000000000
51
450.0000000000
0
ARC
8
0
62
3
10
-0.8754805378
20
20.5559597855
40
0.0450000000
50
90.0000000000
51
270.0000000000
0
ARC
8
0
62
3
10
4.2995194622
20
20.7359597855
40
0.0450000000
50
270.0000000000
51
450.0000000000
0
ARC
8
0
62
3
10
3.2645194622
20
20.7359597855
40
0.0450000000
50
90.0000000000
51
270.0000000000
0
ARC
8
0
62
3
10
2.9195194622
20
20.7359597855
40
0.0450000000
50
270.0000000000
51
450.0000000000
0
ARC
8
0
62
3
10
1.8845194622
20
20.7359597855
40
0.0450000000
50
90.0000000000
51
270.0000000000
0
ARC
8
0
62
3
10
1.5395194622
20
20.7359597855
40
0.0450000000
50
270.0000000000
51
450.0000000000
0
ARC
8
0
62
3
10
0.5045194622
20
20.7359597855
40
0.0450000000
50
90.0000000000
51
270.0000000000
0
ARC
8
0
62
3
10
0.1595194622
20
20.7359597855
40
0.0450000000
50
270.0000000000
51
450.0000000000
0
ARC
8
0
62
3
10
-0.8754805378
20
20.7359597855
40
0.0450000000
50
90.0000000000
51
270.0000000000
0
ARC
8
0
62
3
10
4.2995194622
20
20.9159597855
40
0.0450000000
50
270.0000000000
51
450.0000000000
0
ARC
8
0
62
3
10
3.2645194622
20
20.9159597855
40
0.0450000000
50
90.0000000000
51
270.0000000000
0
ARC
8
0
62
3
10
2.9195194622
20
20.9159597855
40
0.0450000000
50
270.0000000000
51
450.0000000000
0
ARC
8
0
62
3
10
1.8845194622
20
20.9159597855
40
0.0450000000
50
90.0000000000
51
270.0000000000
0
ARC
8
0
62
3
10
1.5395194622
20
20.9159597855
40
0.0450000000
50
270.0000000000
51
450.0000000000
0
ARC
8
0
62
3
10
0.5045194622
20
20.9159597855
40
0.0450000000
50
90.0000000000
51
270.0000000000
0
ARC
8
0
62
3
10
0.1595194622
20
20.9159597855
40
0.0450000000
50
270.0000000000
51
450.0000000000
0
ARC
8
0
62
3
10
-0.8754805378
20
20.9159597855
40
0.0450000000
50
90.0000000000
51
270.0000000000
0
ARC
8
0
62
3
10
4.2995194622
20
21.0959597855
40
0.0450000000
50
270.0000000000
51
450.0000000000
0
ARC
8
0
62
3
10
3.2645194622
20
21.0959597855
40
0.0450000000
50
90.0000000000
51
270.0000000000
0
ARC
8
0
62
3
10
2.9195194622
20
21.0959597855
40
0.0450000000
50
270.0000000000
51
450.0000000000
0
ARC
8
0
62
3
10
1.8845194622
20
21.0959597855
40
0.0450000000
50
90.0000000000
51
270.0000000000
0
ARC
8
0
62
3
10
1.5395194622
20
21.0959597855
40
0.0450000000
50
270.0000000000
51
450.0000000000
0
ARC
8
0
62
3
10
0.5045194622
20
21.0959597855
40
0.0450000000
50
90.0000000000
51
270.0000000000
0
ARC
8
0
62
3
10
0.1595194622
20
21.0959597855
40
0.0450000000
50
270.0000000000
51
450.0000000000
0
ARC
8
0
62
3
10
-0.8754805378
20
21.0959597855
40
0.0450000000
50
90.0000000000
51
270.0000000000
0
ARC
8
0
62
3
10
-3.9104805378
20
18.7559597855
40
0.0450000000
50
270.0000000000
51
450.0000000000
0
ARC
8
0
62
3
10
-4.9454805378
20
18.7559597855
40
0.0450000000
50
90.0000000000
51
270.0000000000
0
ARC
8
0
62
3
10
-3.9104805378
20
18.9359597855
40
0.0450000000
50
270.0000000000
51
450.0000000000
0
ARC
8
0
62
3
10
-4.9454805378
20
18.9359597855
40
0.0450000000
50
90.0000000000
51
270.0000000000
0
ARC
8
0
62
3
10
-3.9104805378
20
19.1159597855
40
0.0450000000
50
270.0000000000
51
450.0000000000
0
ARC
8
0
62
3
10
-4.9454805378
20
19.1159597855
40
0.0450000000
50
90.0000000000
51
270.0000000000
0
ARC
8
0
62
3
10
-3.9104805378
20
19.2959597855
40
0.0450000000
50
270.0000000000
51
450.0000000000
0
ARC
8
0
62
3
10
-4.9454805378
20
19.2959597855
40
0.0450000000
50
90.0000000000
51
270.0000000000
0
ARC
8
0
62
3
10
-3.9104805378
20
19.4759597855
40
0.0450000000
50
270.0000000000
51
450.0000000000
0
ARC
8
0
62
3
10
-4.9454805378
20
19.4759597855
40
0.0450000000
50
90.0000000000
51
270.0000000000
0
ARC
8
0
62
3
10
-3.9104805378
20
19.6559597855
40
0.0450000000
50
270.0000000000
51
450.0000000000
0
ARC
8
0
62
3
10
-4.9454805378
20
19.6559597855
40
0.0450000000
50
90.0000000000
51
270.0000000000
0
ARC
8
0
62
3
10
-3.9104805378
20
19.8359597855
40
0.0450000000
50
270.0000000000
51
450.0000000000
0
ARC
8
0
62
3
10
-4.9454805378
20
19.8359597855
40
0.0450000000
50
90.0000000000
51
270.0000000000
0
ARC
8
0
62
3
10
-3.9104805378
20
20.0159597855
40
0.0450000000
50
270.0000000000
51
450.0000000000
0
ARC
8
0
62
3
10
-4.9454805378
20
20.0159597855
40
0.0450000000
50
90.0000000000
51
270.0000000000
0
ARC
8
0
62
3
10
-3.9104805378
20
20.1959597855
40
0.0450000000
50
270.0000000000
51
450.0000000000
0
ARC
8
0
62
3
10
-4.9454805378
20
20.1959597855
40
0.0450000000
50
90.0000000000
51
270.0000000000
0
ARC
8
0
62
3
10
-3.9104805378
20
20.3759597855
40
0.0450000000
50
270.0000000000
51
450.0000000000
0
ARC
8
0
62
3
10
-4.9454805378
20
20.3759597855
40
0.0450000000
50
90.0000000000
51
270.0000000000
0
ARC
8
0
62
3
10
-3.9104805378
20
20.5559597855
40
0.0450000000
50
270.0000000000
51
450.0000000000
0
ARC
8
0
62
3
10
-4.9454805378
20
20.5559597855
40
0.0450000000
50
90.0000000000
51
270.0000000000
0
ARC
8
0
62
3
10
-3.9104805378
20
20.7359597855
40
0.0450000000
50
270.0000000000
51
450.0000000000
0
ARC
8
0
62
3
10
-4.9454805378
20
20.7359597855
40
0.0450000000
50
90.0000000000
51
270.0000000000
0
ARC
8
0
62
3
10
-3.9104805378
20
20.9159597855
40
0.0450000000
50
270.0000000000
51
450.0000000000
0
ARC
8
0
62
3
10
-4.9454805378
20
20.9159597855
40
0.0450000000
50
90.0000000000
51
270.0000000000
0
ARC
8
0
62
3
10
-6.3254805378
20
18.7559597855
40
0.0450000000
50
90.0000000000
51
270.0000000000
0
ARC
8
0
62
3
10
-5.2904805378
20
18.7559597855
40
0.0450000000
50
270.0000000000
51
450.0000000000
0
ARC
8
0
62
3
10
-6.3254805378
20
18.9359597855
40
0.0450000000
50
90.0000000000
51
270.0000000000
0
ARC
8
0
62
3
10
-5.2904805378
20
18.9359597855
40
0.0450000000
50
270.0000000000
51
450.0000000000
0
ARC
8
0
62
3
10
-6.3254805378
20
19.1159597855
40
0.0450000000
50
90.0000000000
51
270.0000000000
0
ARC
8
0
62
3
10
-5.2904805378
20
19.1159597855
40
0.0450000000
50
270.0000000000
51
450.0000000000
0
ARC
8
0
62
3
10
-6.3254805378
20
19.2959597855
40
0.0450000000
50
90.0000000000
51
270.0000000000
0
ARC
8
0
62
3
10
-5.2904805378
20
19.2959597855
40
0.0450000000
50
270.0000000000
51
450.0000000000
0
ARC
8
0
62
3
10
-6.3254805378
20
19.4759597855
40
0.0450000000
50
90.0000000000
51
270.0000000000
0
ARC
8
0
62
3
10
-5.2904805378
20
19.4759597855
40
0.0450000000
50
270.0000000000
51
450.0000000000
0
ARC
8
0
62
3
10
-6.3254805378
20
19.6559597855
40
0.0450000000
50
90.0000000000
51
270.0000000000
0
ARC
8
0
62
3
10
-5.2904805378
20
19.6559597855
40
0.0450000000
50
270.0000000000
51
450.0000000000
0
ARC
8
0
62
3
10
-6.3254805378
20
19.8359597855
40
0.0450000000
50
90.0000000000
51
270.0000000000
0
ARC
8
0
62
3
10
-5.2904805378
20
19.8359597855
40
0.0450000000
50
270.0000000000
51
450.0000000000
0
ARC
8
0
62
3
10
-6.3254805378
20
20.0159597855
40
0.0450000000
50
90.0000000000
51
270.0000000000
0
ARC
8
0
62
3
10
-5.2904805378
20
20.0159597855
40
0.0450000000
50
270.0000000000
51
450.0000000000
0
ARC
8
0
62
3
10
-6.3254805378
20
20.1959597855
40
0.0450000000
50
90.0000000000
51
270.0000000000
0
ARC
8
0
62
3
10
-5.2904805378
20
20.1959597855
40
0.0450000000
50
270.0000000000
51
450.0000000000
0
ARC
8
0
62
3
10
-6.3254805378
20
20.3759597855
40
0.0450000000
50
90.0000000000
51
270.0000000000
0
ARC
8
0
62
3
10
-5.2904805378
20
20.3759597855
40
0.0450000000
50
270.0000000000
51
450.0000000000
0
ARC
8
0
62
3
10
-6.3254805378
20
20.5559597855
40
0.0450000000
50
90.0000000000
51
270.0000000000
0
ARC
8
0
62
3
10
-5.2904805378
20
20.5559597855
40
0.0450000000
50
270.0000000000
51
450.0000000000
0
ARC
8
0
62
3
10
-6.3254805378
20
20.7359597855
40
0.0450000000
50
90.0000000000
51
270.0000000000
0
ARC
8
0
62
3
10
-5.2904805378
20
20.7359597855
40
0.0450000000
50
270.0000000000
51
450.0000000000
0
ARC
8
0
62
3
10
-6.3254805378
20
20.9159597855
40
0.0450000000
50
90.0000000000
51
270.0000000000
0
ARC
8
0
62
3
10
-5.2904805378
20
20.9159597855
40
0.0450000000
50
270.0000000000
51
450.0000000000
0
ARC
8
0
62
3
10
-7.7054805378
20
18.7559597855
40
0.0450000000
50
90.0000000000
51
270.0000000000
0
ARC
8
0
62
3
10
-6.6704805378
20
18.7559597855
40
0.0450000000
50
270.0000000000
51
450.0000000000
0
ARC
8
0
62
3
10
-7.7054805378
20
18.9359597855
40
0.0450000000
50
90.0000000000
51
270.0000000000
0
ARC
8
0
62
3
10
-6.6704805378
20
18.9359597855
40
0.0450000000
50
270.0000000000
51
450.0000000000
0
ARC
8
0
62
3
10
-7.7054805378
20
19.1159597855
40
0.0450000000
50
90.0000000000
51
270.0000000000
0
ARC
8
0
62
3
10
-6.6704805378
20
19.1159597855
40
0.0450000000
50
270.0000000000
51
450.0000000000
0
ARC
8
0
62
3
10
-7.7054805378
20
19.2959597855
40
0.0450000000
50
90.0000000000
51
270.0000000000
0
ARC
8
0
62
3
10
-6.6704805378
20
19.2959597855
40
0.0450000000
50
270.0000000000
51
450.0000000000
0
ARC
8
0
62
3
10
-7.7054805378
20
19.4759597855
40
0.0450000000
50
90.0000000000
51
270.0000000000
0
ARC
8
0
62
3
10
-6.6704805378
20
19.4759597855
40
0.0450000000
50
270.0000000000
51
450.0000000000
0
ARC
8
0
62
3
10
-7.7054805378
20
19.6559597855
40
0.0450000000
50
90.0000000000
51
270.0000000000
0
ARC
8
0
62
3
10
-6.6704805378
20
19.6559597855
40
0.0450000000
50
270.0000000000
51
450.0000000000
0
ARC
8
0
62
3
10
-7.7054805378
20
19.8359597855
40
0.0450000000
50
90.0000000000
51
270.0000000000
0
ARC
8
0
62
3
10
-6.6704805378
20
19.8359597855
40
0.0450000000
50
270.0000000000
51
450.0000000000
0
ARC
8
0
62
3
10
-7.7054805378
20
20.0159597855
40
0.0450000000
50
90.0000000000
51
270.0000000000
0
ARC
8
0
62
3
10
-6.6704805378
20
20.0159597855
40
0.0450000000
50
270.0000000000
51
450.0000000000
0
ARC
8
0
62
3
10
-7.7054805378
20
20.1959597855
40
0.0450000000
50
90.0000000000
51
270.0000000000
0
ARC
8
0
62
3
10
-6.6704805378
20
20.1959597855
40
0.0450000000
50
270.0000000000
51
450.0000000000
0
ARC
8
0
62
3
10
23.2296210549
20
17.2809089892
40
0.1875000000
50
360.0000000000
51
540.0000000000
0
ARC
8
0
62
3
10
24.4796210549
20
17.2809089892
40
0.1875000000
50
360.0000000000
51
540.0000000000
0
CIRCLE
8
0
62
3
10
15.9196210549
20
17.5609089892
40
0.0900000000
0
CIRCLE
8
0
62
3
10
20.1696210549
20
17.5609089892
40
0.0900000000
0
CIRCLE
8
0
62
3
10
24.9196210549
20
17.5609089892
40
0.0900000000
0
CIRCLE
8
0
62
3
10
26.5996210549
20
17.5609089892
40
0.0900000000
0
ARC
8
0
62
3
10
-1.3954805378
20
17.2809089892
40
0.1875000000
50
0.0000000000
51
180.0000000000
0
ARC
8
0
62
3
10
-3.9654805378
20
17.2809089892
40
0.1875000000
50
360.0000000000
51
540.0000000000
0
ARC
8
0
62
3
10
-5.2154805378
20
17.2809089892
40
0.1875000000
50
360.0000000000
51
540.0000000000
0
ARC
8
0
62
3
10
-0.1454805378
20
17.2809089892
40
0.1875000000
50
0.0000000000
51
180.0000000000
0
CIRCLE
8
0
62
3
10
-7.3354805378
20
17.5659089892
40
0.0900000000
0
CIRCLE
8
0
62
3
10
-5.6554805378
20
17.5659089892
40
0.0900000000
0
CIRCLE
8
0
62
3
10
-0.9054805378
20
17.5659089892
40
0.0900000000
0
CIRCLE
8
0
62
3
10
3.3445194622
20
17.5659089892
40
0.0900000000
0
ENDSEC
0
EOF
