700 0 2 0           
24 FBMach with ACIS - 7.0.3 13 ACIS 7.0.3 NT 24 Tue May 14 17:19:31 2002 
1 9.9999999999999995e-007 1e-010 
body $2 -1 $-1 $3 $-1 $4 #
bdycol-kcp $-1 -1 1 8 $5 $6 $7 $8 $9 $10 $11 $12 #
model_id-kcp-attrib $-1 -1 $-1 $-1 $0 1 1021411170 1021411170 1235419137 1 #
lump $-1 -1 $-1 $-1 $13 $0 #
transform $-1 -1 1 0 0 0 1 0 0 0 1 2.8421709430404007e-014 0 -5.6843418860808015e-014 1 rotate no_reflect no_shear #
body $14 -1 $-1 $15 $-1 $16 #
body $17 -1 $-1 $18 $-1 $19 #
body $20 -1 $-1 $21 $-1 $22 #
body $23 -1 $-1 $24 $-1 $25 #
body $26 -1 $-1 $27 $-1 $28 #
body $29 -1 $-1 $30 $-1 $31 #
body $32 -1 $-1 $33 $-1 $34 #
body $35 -1 $-1 $36 $-1 $37 #
shell $-1 -1 $-1 $-1 $-1 $38 $-1 $3 #
model_id-kcp-attrib $-1 -1 $-1 $-1 $5 1 1021411170 1021411170 1235419138 1 #
lump $-1 -1 $-1 $-1 $39 $5 #
transform $-1 -1 1 0 0 0 1 0 0 0 1 -730 1.4999999999999998 209 1 no_rotate no_reflect no_shear #
rgb_color-st-attrib $-1 -1 $40 $-1 $6 0.5 1 1 #
lump $-1 -1 $-1 $-1 $41 $6 #
transform $-1 -1 1 0 0 0 1 0 0 0 1 0 0 0 1 no_rotate no_reflect no_shear #
rgb_color-st-attrib $-1 -1 $42 $-1 $7 0.5 1 1 #
lump $-1 -1 $-1 $-1 $43 $7 #
transform $-1 -1 1 0 0 0 1 0 0 0 1 0 0 0 1 no_rotate no_reflect no_shear #
rgb_color-st-attrib $-1 -1 $44 $-1 $8 0.5 1 1 #
lump $-1 -1 $-1 $-1 $45 $8 #
transform $-1 -1 1 0 0 0 1 0 0 0 1 0 0 0 1 no_rotate no_reflect no_shear #
rgb_color-st-attrib $-1 -1 $46 $-1 $9 0.5 1 1 #
lump $-1 -1 $-1 $-1 $47 $9 #
transform $-1 -1 1 0 0 0 1 0 0 0 1 0 0 0 1 no_rotate no_reflect no_shear #
rgb_color-st-attrib $-1 -1 $48 $-1 $10 0.5 1 1 #
lump $-1 -1 $-1 $49 $50 $10 #
transform $-1 -1 1 0 0 0 1 0 0 0 1 -730 1.4999999999999998 209 1 no_rotate no_reflect no_shear #
rgb_color-st-attrib $-1 -1 $51 $-1 $11 0.5 1 1 #
lump $-1 -1 $-1 $-1 $52 $11 #
transform $-1 -1 1 0 0 0 1 0 0 0 1 0 0 0 1 no_rotate no_reflect no_shear #
rgb_color-st-attrib $-1 -1 $53 $-1 $12 0.5 1 1 #
lump $-1 -1 $-1 $-1 $54 $12 #
transform $-1 -1 1 0 0 0 1 0 0 0 1 0 0 0 1 no_rotate no_reflect no_shear #
face $55 -1 $-1 $56 $57 $13 $-1 $58 forward single #
shell $-1 -1 $-1 $-1 $-1 $59 $-1 $15 #
model_id-kcp-attrib $-1 -1 $-1 $17 $6 1 1021411170 1021411171 1226702852 1 #
shell $-1 -1 $-1 $-1 $-1 $60 $-1 $18 #
model_id-kcp-attrib $-1 -1 $-1 $20 $7 1 1021411170 1021411171 1228668933 1 #
shell $-1 -1 $-1 $-1 $-1 $61 $-1 $21 #
model_id-kcp-attrib $-1 -1 $-1 $23 $8 1 1021411170 1021411171 1231290374 1 #
shell $-1 -1 $-1 $-1 $-1 $62 $-1 $24 #
model_id-kcp-attrib $-1 -1 $-1 $26 $9 1 1021411170 1021411171 1233911815 1 #
shell $-1 -1 $-1 $-1 $-1 $63 $-1 $27 #
model_id-kcp-attrib $-1 -1 $-1 $29 $10 1 1021411170 1021411171 1234305027 1 #
lump $-1 -1 $-1 $64 $65 $10 #
shell $-1 -1 $-1 $-1 $-1 $66 $-1 $30 #
model_id-kcp-attrib $-1 -1 $-1 $32 $11 1 1021411170 1021411171 1235877896 1 #
shell $-1 -1 $-1 $-1 $-1 $67 $-1 $33 #
model_id-kcp-attrib $-1 -1 $-1 $35 $12 1 1021411170 1021411171 1237843977 1 #
shell $-1 -1 $-1 $-1 $-1 $68 $-1 $36 #
model_id-kcp-attrib $-1 -1 $-1 $-1 $38 1 1021411170 1021411170 1235419137 2 #
face $69 -1 $-1 $70 $71 $13 $-1 $72 forward single #
loop $-1 -1 $-1 $73 $74 $38 #
plane-surface $-1 -1 $-1 0 3 0 0 1 0 1 0 0 forward_v I I I I #
face $75 -1 $-1 $76 $77 $39 $-1 $78 forward single #
face $-1 -1 $-1 $79 $80 $41 $-1 $81 forward single #
face $-1 -1 $-1 $82 $83 $43 $-1 $84 forward single #
face $-1 -1 $-1 $85 $86 $45 $-1 $87 forward single #
face $-1 -1 $-1 $88 $89 $47 $-1 $90 forward single #
lump $-1 -1 $-1 $-1 $91 $10 #
shell $-1 -1 $-1 $-1 $-1 $92 $-1 $49 #
face $-1 -1 $-1 $93 $94 $50 $-1 $95 reversed single #
face $-1 -1 $-1 $96 $97 $52 $-1 $98 forward single #
face $-1 -1 $-1 $99 $100 $54 $-1 $101 forward single #
model_id-kcp-attrib $-1 -1 $-1 $-1 $56 1 1021411170 1021411170 1235419137 3 #
face $102 -1 $-1 $103 $104 $13 $-1 $105 forward single #
loop $-1 -1 $-1 $-1 $106 $56 #
plane-surface $-1 -1 $-1 -1453 1.5 6.9999999999998863 -0.7071067811865418 0 -0.70710678118655323 -0.70710678118655323 0 0.7071067811865418 forward_v I I I I #
loop $-1 -1 $-1 $107 $108 $38 #
coedge $-1 -1 $-1 $109 $110 $111 $112 forward $57 $-1 #
model_id-kcp-attrib $-1 -1 $-1 $-1 $59 1 1021411170 1021411170 1235419138 5 #
face $113 -1 $-1 $114 $115 $39 $-1 $116 reversed single #
loop $-1 -1 $-1 $-1 $117 $59 #
plane-surface $-1 -1 $-1 0 0 209 0 0 1 1 0 0 forward_v I I I I #
face $-1 -1 $-1 $118 $119 $41 $-1 $120 reversed single #
loop $-1 -1 $-1 $121 $122 $60 #
cone-surface $-1 -1 $-1 -232 3 174 0 -1 0 -16 0 0 1 I I 0 1 16 forward I I I I #
face $-1 -1 $-1 $123 $124 $43 $-1 $125 reversed single #
loop $-1 -1 $-1 $126 $127 $61 #
cone-surface $-1 -1 $-1 -1205.5 3 106 0 -1 0 -21 0 0 1 I I 0 1 21 forward I I I I #
face $-1 -1 $-1 $128 $129 $45 $-1 $130 reversed single #
loop $-1 -1 $-1 $131 $132 $62 #
cone-surface $-1 -1 $-1 -1205.5 3 146 0 -1 0 -2.25 0 0 1 I I 0 1 2.25 forward I I I I #
face $-1 -1 $-1 $133 $134 $47 $-1 $135 reversed single #
loop $-1 -1 $-1 $136 $137 $63 #
cone-surface $-1 -1 $-1 -1401 3 10 0 -1 0 -2.25 0 0 1 I I 0 1 2.25 forward I I I I #
shell $-1 -1 $-1 $-1 $-1 $138 $-1 $64 #
face $-1 -1 $-1 $139 $140 $65 $-1 $141 reversed single #
face $-1 -1 $-1 $142 $143 $50 $-1 $144 reversed single #
loop $-1 -1 $-1 $-1 $145 $66 #
plane-surface $-1 -1 $-1 730 1.5000000000000002 37.000000000000028 0.53027603531612 0 0.84782505646472683 0 1 0 forward_v I I I I #
face $-1 -1 $-1 $146 $147 $52 $-1 $148 reversed single #
loop $-1 -1 $-1 $149 $150 $67 #
cone-surface $-1 -1 $-1 -59 3 10 0 -1 0 -2.25 0 0 1 I I 0 1 2.25 forward I I I I #
face $-1 -1 $-1 $151 $152 $54 $-1 $153 reversed single #
loop $-1 -1 $-1 $154 $155 $68 #
cone-surface $-1 -1 $-1 -222.5 3 342.5 0 -1 0 -2.25 0 0 1 I I 0 1 2.25 forward I I I I #
model_id-kcp-attrib $-1 -1 $-1 $-1 $70 1 1021411170 1021411170 1235419137 4 #
face $156 -1 $-1 $157 $158 $13 $-1 $159 forward single #
loop $-1 -1 $-1 $-1 $160 $70 #
plane-surface $-1 -1 $-1 -723 1.5 0 0 0 -1 -1 0 0 forward_v I I I I #
coedge $-1 -1 $-1 $161 $111 $162 $163 forward $71 $-1 #
loop $-1 -1 $-1 $164 $165 $38 #
coedge $-1 -1 $-1 $166 $166 $167 $168 reversed $73 $-1 #
coedge $-1 -1 $-1 $169 $74 $170 $171 forward $57 $-1 #
coedge $-1 -1 $-1 $74 $172 $173 $174 forward $57 $-1 #
coedge $-1 -1 $-1 $106 $175 $74 $112 reversed $71 $-1 #
edge $176 -1 $-1 $177 6.2803698347350494e-016 $178 19.798989873223171 $74 $179 forward @7 unknown #
model_id-kcp-attrib $-1 -1 $-1 $-1 $76 1 1021411170 1021411170 1235419138 3 #
face $180 -1 $-1 $181 $182 $39 $-1 $183 reversed single #
loop $-1 -1 $-1 $-1 $184 $76 #
plane-surface $-1 -1 $-1 0 0 -209 0 0 1 1 0 0 forward_v I I I I #
coedge $-1 -1 $-1 $185 $186 $187 $188 forward $77 $-1 #
face $-1 -1 $-1 $-1 $189 $41 $-1 $190 forward single #
loop $-1 -1 $-1 $-1 $191 $79 #
plane-surface $-1 -1 $-1 -232 0 174 0 1 0 0 0 1 forward_v I I I I #
loop $-1 -1 $-1 $-1 $192 $60 #
coedge $-1 -1 $-1 $122 $122 $191 $193 forward $80 $-1 #
face $-1 -1 $-1 $-1 $194 $43 $-1 $195 forward single #
loop $-1 -1 $-1 $-1 $196 $82 #
plane-surface $-1 -1 $-1 -1205.5 0 106 0 1 0 0 0 1 forward_v I I I I #
loop $-1 -1 $-1 $-1 $197 $61 #
coedge $-1 -1 $-1 $127 $127 $196 $198 forward $83 $-1 #
face $-1 -1 $-1 $-1 $199 $45 $-1 $200 forward single #
loop $-1 -1 $-1 $-1 $201 $85 #
plane-surface $-1 -1 $-1 -1205.5 0 146 0 1 0 0 0 1 forward_v I I I I #
loop $-1 -1 $-1 $-1 $202 $62 #
coedge $-1 -1 $-1 $132 $132 $201 $203 forward $86 $-1 #
face $-1 -1 $-1 $-1 $204 $47 $-1 $205 forward single #
loop $-1 -1 $-1 $-1 $206 $88 #
plane-surface $-1 -1 $-1 -1401 0 10 0 1 0 0 0 1 forward_v I I I I #
loop $-1 -1 $-1 $-1 $207 $63 #
coedge $-1 -1 $-1 $137 $137 $206 $208 forward $89 $-1 #
face $-1 -1 $-1 $209 $210 $91 $-1 $211 reversed single #
face $-1 -1 $-1 $212 $213 $65 $-1 $214 reversed single #
loop $-1 -1 $-1 $-1 $215 $92 #
plane-surface $-1 -1 $-1 -730 1.5000000000000002 -195.00000000000023 -0.7071067811865418 0 -0.70710678118655323 0 -1 0 forward_v I I I I #
face $-1 -1 $-1 $216 $217 $50 $-1 $218 reversed single #
loop $-1 -1 $-1 $-1 $219 $93 #
plane-surface $-1 -1 $-1 0 -1.5000000000000002 0 0 1 0 0 0 1 forward_v I I I I #
coedge $-1 -1 $-1 $220 $221 $219 $222 reversed $94 $-1 #
face $-1 -1 $-1 $-1 $223 $52 $-1 $224 forward single #
loop $-1 -1 $-1 $-1 $225 $96 #
plane-surface $-1 -1 $-1 -59 0 10 0 1 0 0 0 1 forward_v I I I I #
loop $-1 -1 $-1 $-1 $226 $67 #
coedge $-1 -1 $-1 $150 $150 $225 $227 forward $97 $-1 #
face $-1 -1 $-1 $-1 $228 $54 $-1 $229 forward single #
loop $-1 -1 $-1 $-1 $230 $99 #
plane-surface $-1 -1 $-1 -222.5 0 342.5 0 1 0 0 0 1 forward_v I I I I #
loop $-1 -1 $-1 $-1 $231 $68 #
coedge $-1 -1 $-1 $155 $155 $230 $232 forward $100 $-1 #
model_id-kcp-attrib $-1 -1 $-1 $-1 $103 1 1021411170 1021411170 1235419137 5 #
face $233 -1 $-1 $234 $235 $13 $-1 $236 forward single #
loop $-1 -1 $-1 $-1 $237 $103 #
plane-surface $-1 -1 $-1 0 1.5 123 1 0 0 0 0 -1 forward_v I I I I #
coedge $-1 -1 $-1 $238 $173 $239 $240 forward $104 $-1 #
coedge $-1 -1 $-1 $175 $106 $241 $242 forward $71 $-1 #
coedge $-1 -1 $-1 $173 $238 $106 $163 reversed $104 $-1 #
edge $243 -1 $-1 $177 0 $244 3 $162 $245 forward @7 unknown #
loop $-1 -1 $-1 $246 $247 $38 #
coedge $-1 -1 $-1 $248 $248 $249 $250 forward $107 $-1 #
coedge $-1 -1 $-1 $108 $108 $251 $252 reversed $73 $-1 #
coedge $-1 -1 $-1 $253 $254 $108 $168 forward $255 $-1 #
edge $256 -1 $-1 $257 0 $258 3.1415926535897931 $108 $259 forward @7 unknown #
coedge $-1 -1 $-1 $260 $109 $261 $262 forward $57 $-1 #
coedge $-1 -1 $-1 $263 $264 $109 $171 reversed $265 $-1 #
edge $266 -1 $-1 $178 0 $267 134.00000000000023 $109 $268 forward @7 unknown #
coedge $-1 -1 $-1 $110 $269 $270 $271 forward $57 $-1 #
coedge $-1 -1 $-1 $160 $162 $110 $174 reversed $104 $-1 #
edge $272 -1 $-1 $273 0 $177 1446 $110 $274 forward @7 unknown #
coedge $-1 -1 $-1 $111 $161 $263 $275 reversed $71 $-1 #
attrib_edge_convexity-kcp-attrib $-1 -1 $276 $-1 $112 1 #
vertex $-1 -1 $-1 $174 $277 #
vertex $-1 -1 $-1 $171 $278 #
straight-curve $-1 -1 $-1 -1446 3 -8.8817841970012523e-016 -0.70710678118655323 0 0.7071067811865418 I I #
model_id-kcp-attrib $-1 -1 $-1 $-1 $114 1 1021411170 1021411170 1235419138 7 #
face $279 -1 $-1 $280 $281 $39 $-1 $282 reversed single #
loop $-1 -1 $-1 $-1 $283 $114 #
plane-surface $-1 -1 $-1 0 -1.5000000000000002 0 0 1 0 0 0 1 forward_v I I I I #
coedge $-1 -1 $-1 $284 $285 $286 $287 forward $115 $-1 #
coedge $-1 -1 $-1 $288 $117 $289 $290 forward $77 $-1 #
coedge $-1 -1 $-1 $117 $288 $291 $292 forward $77 $-1 #
coedge $-1 -1 $-1 $293 $294 $117 $188 reversed $295 $-1 #
edge $-1 -1 $-1 $296 -1.5000000000000002 $297 1.5000000000000002 $187 $298 forward @7 unknown #
loop $-1 -1 $-1 $-1 $299 $118 #
plane-surface $-1 -1 $-1 -232 3 174 0 1 0 0 0 1 forward_v I I I I #
coedge $-1 -1 $-1 $191 $191 $122 $193 reversed $119 $-1 #
coedge $-1 -1 $-1 $192 $192 $299 $300 reversed $121 $-1 #
edge $-1 -1 $-1 $301 -3.1415926535897931 $301 3.1415926535897931 $122 $302 forward @7 unknown #
loop $-1 -1 $-1 $-1 $303 $123 #
plane-surface $-1 -1 $-1 -1205.5 3 106 0 1 0 0 0 1 forward_v I I I I #
coedge $-1 -1 $-1 $196 $196 $127 $198 reversed $124 $-1 #
coedge $-1 -1 $-1 $197 $197 $303 $304 forward $126 $-1 #
edge $-1 -1 $-1 $305 0 $305 6.2831853071795862 $127 $306 forward @7 unknown #
loop $-1 -1 $-1 $-1 $307 $128 #
plane-surface $-1 -1 $-1 -1205.5 3 146 0 1 0 0 0 1 forward_v I I I I #
coedge $-1 -1 $-1 $201 $201 $132 $203 reversed $129 $-1 #
coedge $-1 -1 $-1 $202 $202 $307 $308 forward $131 $-1 #
edge $-1 -1 $-1 $309 0 $309 6.2831853071795862 $132 $310 forward @7 unknown #
loop $-1 -1 $-1 $-1 $311 $133 #
plane-surface $-1 -1 $-1 -1401 3 10 0 1 0 0 0 1 forward_v I I I I #
coedge $-1 -1 $-1 $206 $206 $137 $208 reversed $134 $-1 #
coedge $-1 -1 $-1 $207 $207 $311 $312 forward $136 $-1 #
edge $-1 -1 $-1 $313 0 $313 6.2831853071795862 $137 $314 forward @7 unknown #
face $-1 -1 $-1 $315 $316 $91 $-1 $317 forward single #
loop $-1 -1 $-1 $-1 $318 $138 #
plane-surface $-1 -1 $-1 0 1.5000000000000002 0 0 -1 0 0 0 -1 forward_v I I I I #
face $-1 -1 $-1 $319 $320 $65 $-1 $211 reversed single #
loop $-1 -1 $-1 $-1 $321 $139 #
plane-surface $-1 -1 $-1 -730 0 0 1 0 0 0 0 -1 forward_v I I I I #
coedge $-1 -1 $-1 $322 $323 $324 $325 reversed $140 $-1 #
face $-1 -1 $-1 $326 $327 $50 $-1 $211 reversed single #
loop $-1 -1 $-1 $-1 $328 $142 #
plane-surface $-1 -1 $-1 730 0 0 -1 0 0 0 0 1 forward_v I I I I #
coedge $-1 -1 $-1 $329 $330 $145 $222 forward $143 $-1 #
coedge $-1 -1 $-1 $331 $145 $332 $333 reversed $94 $-1 #
coedge $-1 -1 $-1 $145 $331 $328 $334 reversed $94 $-1 #
edge $-1 -1 $-1 $335 -24.713329645895431 $336 299.6460389562771 $219 $337 forward @7 unknown #
loop $-1 -1 $-1 $-1 $338 $146 #
plane-surface $-1 -1 $-1 -59 3 10 0 1 0 0 0 1 forward_v I I I I #
coedge $-1 -1 $-1 $225 $225 $150 $227 reversed $147 $-1 #
coedge $-1 -1 $-1 $226 $226 $338 $339 forward $149 $-1 #
edge $-1 -1 $-1 $340 0 $340 6.2831853071795862 $150 $341 forward @7 unknown #
loop $-1 -1 $-1 $-1 $342 $151 #
plane-surface $-1 -1 $-1 -222.5 3 342.5 0 1 0 0 0 1 forward_v I I I I #
coedge $-1 -1 $-1 $230 $230 $155 $232 reversed $152 $-1 #
coedge $-1 -1 $-1 $231 $231 $342 $343 forward $154 $-1 #
edge $-1 -1 $-1 $344 0 $344 6.2831853071795862 $155 $345 forward @7 unknown #
model_id-kcp-attrib $-1 -1 $-1 $-1 $157 1 1021411170 1021411170 1235419137 6 #
face $346 -1 $-1 $347 $348 $13 $-1 $349 forward single #
loop $-1 -1 $-1 $-1 $350 $157 #
plane-surface $-1 -1 $-1 -137.5 1.5 332 0.53027603531612 0 0.84782505646472672 0.84782505646472661 0 -0.53027603531611989 forward_v I I I I #
coedge $-1 -1 $-1 $351 $270 $352 $353 forward $158 $-1 #
coedge $-1 -1 $-1 $162 $160 $354 $355 forward $104 $-1 #
coedge $-1 -1 $-1 $270 $351 $160 $240 reversed $158 $-1 #
edge $356 -1 $-1 $273 0 $357 3 $160 $358 forward @7 unknown #
coedge $-1 -1 $-1 $354 $359 $161 $242 reversed $360 $-1 #
edge $361 -1 $-1 $244 6.2803698347350494e-016 $362 19.798989873223171 $161 $363 forward @7 unknown #
attrib_edge_convexity-kcp-attrib $-1 -1 $364 $-1 $163 1 #
vertex $-1 -1 $-1 $163 $365 #
straight-curve $-1 -1 $-1 -1446 3 -8.8817841970012523e-016 0 -1 0 I I #
loop $-1 -1 $-1 $366 $367 $38 #
coedge $-1 -1 $-1 $368 $368 $369 $370 forward $164 $-1 #
coedge $-1 -1 $-1 $165 $165 $371 $372 forward $107 $-1 #
coedge $-1 -1 $-1 $373 $374 $165 $250 reversed $375 $-1 #
edge $376 -1 $-1 $377 0 $378 3.1415926535897931 $165 $379 forward @7 unknown #
coedge $-1 -1 $-1 $380 $381 $166 $252 forward $382 $-1 #
edge $383 -1 $-1 $258 0 $257 3.1415926535897931 $166 $384 forward @7 unknown #
coedge $-1 -1 $-1 $385 $167 $381 $386 forward $255 $-1 #
coedge $-1 -1 $-1 $167 $385 $380 $387 reversed $255 $-1 #
loop $-1 -1 $-1 $-1 $253 $388 #
attrib_edge_convexity-kcp-attrib $-1 -1 $389 $-1 $168 1 #
vertex $-1 -1 $-1 $252 $390 #
vertex $-1 -1 $-1 $252 $391 #
ellipse-curve $-1 -1 $-1 -232 3 174 0 1 0 -16 0 0 1 I I #
coedge $-1 -1 $-1 $392 $169 $393 $394 forward $57 $-1 #
coedge $-1 -1 $-1 $395 $396 $169 $262 reversed $397 $-1 #
edge $398 -1 $-1 $267 0 $399 1107.3236226844647 $169 $400 forward @7 unknown #
coedge $-1 -1 $-1 $401 $170 $175 $275 forward $265 $-1 #
coedge $-1 -1 $-1 $170 $401 $395 $402 reversed $265 $-1 #
loop $-1 -1 $-1 $-1 $263 $403 #
attrib_edge_convexity-kcp-attrib $-1 -1 $404 $-1 $171 1 #
vertex $-1 -1 $-1 $262 $405 #
straight-curve $-1 -1 $-1 -1460 3 13.999999999999773 0 0 1 I I #
coedge $-1 -1 $-1 $172 $406 $407 $408 forward $57 $-1 #
coedge $-1 -1 $-1 $237 $239 $172 $271 reversed $158 $-1 #
edge $409 -1 $-1 $410 0 $273 246 $172 $411 forward @7 unknown #
attrib_edge_convexity-kcp-attrib $-1 -1 $412 $-1 $174 1 #
vertex $-1 -1 $-1 $174 $413 #
straight-curve $-1 -1 $-1 0 3 0 -1 0 0 I I #
edge $414 -1 $-1 $178 0 $362 3 $263 $415 forward @7 unknown #
convexity-sys-attrib $-1 -1 $-1 $176 $112 #
point $-1 -1 $-1 -1446 3 0 #
point $-1 -1 $-1 -1460 3 13.999999999999773 #
model_id-kcp-attrib $-1 -1 $-1 $-1 $181 1 1021411170 1021411170 1235419138 6 #
face $416 -1 $-1 $417 $418 $39 $-1 $419 reversed single #
loop $-1 -1 $-1 $-1 $420 $181 #
plane-surface $-1 -1 $-1 -730 0 0 1 0 0 0 0 -1 forward_v I I I I #
coedge $-1 -1 $-1 $421 $291 $422 $423 forward $182 $-1 #
coedge $-1 -1 $-1 $424 $184 $421 $425 forward $115 $-1 #
coedge $-1 -1 $-1 $184 $424 $426 $427 forward $115 $-1 #
coedge $-1 -1 $-1 $294 $293 $184 $287 reversed $295 $-1 #
edge $-1 -1 $-1 $428 -1.5000000000000002 $429 1.5000000000000002 $286 $430 forward @7 unknown #
coedge $-1 -1 $-1 $186 $185 $431 $432 forward $77 $-1 #
coedge $-1 -1 $-1 $433 $434 $185 $290 reversed $418 $-1 #
edge $-1 -1 $-1 $297 -730 $435 730 $289 $436 forward @7 unknown #
coedge $-1 -1 $-1 $283 $437 $186 $292 reversed $182 $-1 #
edge $-1 -1 $-1 $438 -730 $296 730 $291 $439 forward @7 unknown #
coedge $-1 -1 $-1 $286 $187 $437 $440 forward $295 $-1 #
coedge $-1 -1 $-1 $187 $286 $433 $441 reversed $295 $-1 #
loop $-1 -1 $-1 $-1 $293 $417 #
vertex $-1 -1 $-1 $188 $442 #
vertex $-1 -1 $-1 $188 $443 #
straight-curve $-1 -1 $-1 730 0 209 0 1 0 I I #
coedge $-1 -1 $-1 $299 $299 $192 $300 forward $189 $-1 #
edge $-1 -1 $-1 $444 -3.1415926535897931 $444 3.1415926535897931 $192 $445 forward @7 unknown #
vertex $-1 -1 $-1 $193 $446 #
ellipse-curve $-1 -1 $-1 -232 0 174 0 1 0 16 0 0 1 I I #
coedge $-1 -1 $-1 $303 $303 $197 $304 reversed $194 $-1 #
edge $-1 -1 $-1 $447 0 $447 6.2831853071795862 $197 $448 forward @7 unknown #
vertex $-1 -1 $-1 $198 $449 #
ellipse-curve $-1 -1 $-1 -1205.5 0 106 0 1 0 21 0 0 1 I I #
coedge $-1 -1 $-1 $307 $307 $202 $308 reversed $199 $-1 #
edge $-1 -1 $-1 $450 0 $450 6.2831853071795862 $202 $451 forward @7 unknown #
vertex $-1 -1 $-1 $203 $452 #
ellipse-curve $-1 -1 $-1 -1205.5 0 146 0 1 0 2.25 0 0 1 I I #
coedge $-1 -1 $-1 $311 $311 $207 $312 reversed $204 $-1 #
edge $-1 -1 $-1 $453 0 $453 6.2831853071795862 $207 $454 forward @7 unknown #
vertex $-1 -1 $-1 $208 $455 #
ellipse-curve $-1 -1 $-1 -1401 0 10 0 1 0 2.25 0 0 1 I I #
face $-1 -1 $-1 $456 $457 $91 $-1 $144 reversed single #
loop $-1 -1 $-1 $-1 $458 $209 #
plane-surface $-1 -1 $-1 0 0 209 0 0 1 1 0 0 forward_v I I I I #
coedge $-1 -1 $-1 $459 $460 $461 $462 forward $210 $-1 #
face $-1 -1 $-1 $463 $464 $65 $-1 $465 reversed single #
loop $-1 -1 $-1 $-1 $466 $212 #
coedge $-1 -1 $-1 $467 $468 $323 $469 forward $213 $-1 #
coedge $-1 -1 $-1 $470 $215 $471 $472 reversed $140 $-1 #
coedge $-1 -1 $-1 $215 $470 $321 $469 reversed $140 $-1 #
coedge $-1 -1 $-1 $473 $474 $215 $325 forward $475 $-1 #
edge $-1 -1 $-1 $476 169.35207409418086 $477 189.15106396740401 $324 $478 forward @7 unknown #
face $-1 -1 $-1 $-1 $479 $50 $-1 $317 forward single #
loop $-1 -1 $-1 $-1 $480 $216 #
coedge $-1 -1 $-1 $481 $482 $221 $334 forward $217 $-1 #
coedge $-1 -1 $-1 $330 $219 $482 $483 reversed $143 $-1 #
coedge $-1 -1 $-1 $219 $329 $484 $485 reversed $143 $-1 #
coedge $-1 -1 $-1 $221 $220 $480 $486 reversed $94 $-1 #
coedge $-1 -1 $-1 $484 $487 $220 $333 forward $479 $-1 #
edge $-1 -1 $-1 $488 -0.75000000000000011 $335 2.2500000000000004 $332 $489 forward @7 unknown #
edge $-1 -1 $-1 $336 -2.2500000000000004 $490 0.75000000000000011 $328 $491 forward @7 unknown #
vertex $-1 -1 $-1 $485 $492 #
vertex $-1 -1 $-1 $222 $493 #
straight-curve $-1 -1 $-1 475.95258010246272 -1.5 195.89511353591428 0.84782505646472683 0 -0.53027603531612 I I #
coedge $-1 -1 $-1 $338 $338 $226 $339 reversed $223 $-1 #
edge $-1 -1 $-1 $494 0 $494 6.2831853071795862 $226 $495 forward @7 unknown #
vertex $-1 -1 $-1 $227 $496 #
ellipse-curve $-1 -1 $-1 -59 0 10 0 1 0 2.25 0 0 1 I I #
coedge $-1 -1 $-1 $342 $342 $231 $343 reversed $228 $-1 #
edge $-1 -1 $-1 $497 0 $497 6.2831853071795862 $231 $498 forward @7 unknown #
vertex $-1 -1 $-1 $232 $499 #
ellipse-curve $-1 -1 $-1 -222.5 0 342.5 0 1 0 2.25 0 0 1 I I #
model_id-kcp-attrib $-1 -1 $-1 $-1 $234 1 1021411170 1021411170 1235419137 7 #
face $500 -1 $-1 $501 $502 $13 $-1 $503 forward single #
loop $-1 -1 $-1 $-1 $504 $234 #
plane-surface $-1 -1 $-1 -291.5 1.5 418 0 0 1 1 0 0 forward_v I I I I #
coedge $-1 -1 $-1 $505 $407 $506 $507 forward $235 $-1 #
coedge $-1 -1 $-1 $239 $237 $508 $509 forward $158 $-1 #
coedge $-1 -1 $-1 $407 $505 $237 $353 reversed $235 $-1 #
edge $510 -1 $-1 $410 0 $511 3 $237 $512 forward @7 unknown #
coedge $-1 -1 $-1 $508 $241 $238 $355 reversed $360 $-1 #
edge $513 -1 $-1 $357 0 $244 1446 $238 $514 forward @7 unknown #
attrib_edge_convexity-kcp-attrib $-1 -1 $515 $-1 $240 1 #
vertex $-1 -1 $-1 $355 $516 #
straight-curve $-1 -1 $-1 0 3 0 0 -1 0 I I #
coedge $-1 -1 $-1 $241 $517 $401 $518 reversed $360 $-1 #
loop $-1 -1 $-1 $519 $508 $520 #
attrib_edge_convexity-kcp-attrib $-1 -1 $521 $-1 $242 1 #
vertex $-1 -1 $-1 $518 $522 #
straight-curve $-1 -1 $-1 -1446 0 -8.8817841970012523e-016 -0.70710678118655323 0 0.7071067811865418 I I #
convexity-sys-attrib $-1 -1 $-1 $243 $163 #
point $-1 -1 $-1 -1446 0 0 #
loop $-1 -1 $-1 $523 $524 $38 #
coedge $-1 -1 $-1 $525 $525 $526 $527 forward $246 $-1 #
coedge $-1 -1 $-1 $247 $247 $528 $529 forward $164 $-1 #
coedge $-1 -1 $-1 $530 $531 $247 $370 reversed $532 $-1 #
edge $533 -1 $-1 $534 0 $535 3.1415926535897931 $247 $536 forward @7 unknown #
coedge $-1 -1 $-1 $537 $538 $248 $372 reversed $539 $-1 #
edge $540 -1 $-1 $378 0 $377 3.1415926535897931 $248 $541 forward @7 unknown #
coedge $-1 -1 $-1 $542 $249 $538 $543 forward $375 $-1 #
coedge $-1 -1 $-1 $249 $542 $537 $544 reversed $375 $-1 #
loop $-1 -1 $-1 $-1 $373 $545 #
attrib_edge_convexity-kcp-attrib $-1 -1 $546 $-1 $250 1 #
vertex $-1 -1 $-1 $372 $547 #
vertex $-1 -1 $-1 $372 $548 #
ellipse-curve $-1 -1 $-1 -1205.5 3 106 0 -1 0 -21 0 0 1 I I #
coedge $-1 -1 $-1 $549 $251 $254 $387 forward $382 $-1 #
coedge $-1 -1 $-1 $251 $549 $253 $386 reversed $382 $-1 #
loop $-1 -1 $-1 $-1 $380 $550 #
attrib_edge_convexity-kcp-attrib $-1 -1 $551 $-1 $252 1 #
ellipse-curve $-1 -1 $-1 -232 3 174 0 1 0 16 0 0 1 I I #
coedge $-1 -1 $-1 $254 $253 $552 $553 reversed $255 $-1 #
edge $-1 -1 $-1 $258 0 $554 3 $381 $555 forward @7 unknown #
edge $-1 -1 $-1 $257 0 $556 3 $380 $557 forward @7 unknown #
face $558 -1 $-1 $550 $255 $13 $-1 $559 reversed single #
convexity-sys-attrib $-1 -1 $-1 $256 $168 #
point $-1 -1 $-1 -248 3 174 #
point $-1 -1 $-1 -216 3 174 #
coedge $-1 -1 $-1 $406 $260 $560 $561 forward $57 $-1 #
coedge $-1 -1 $-1 $562 $563 $260 $394 reversed $564 $-1 #
edge $565 -1 $-1 $399 0 $566 2.5202014437034403 $260 $567 forward @7 unknown #
coedge $-1 -1 $-1 $568 $261 $264 $402 forward $397 $-1 #
coedge $-1 -1 $-1 $261 $568 $562 $569 reversed $397 $-1 #
loop $-1 -1 $-1 $-1 $395 $570 #
attrib_edge_convexity-kcp-attrib $-1 -1 $571 $-1 $262 1 #
vertex $-1 -1 $-1 $394 $572 #
straight-curve $-1 -1 $-1 -1460 3 148 0.99941267768760633 0 0.034268056222795697 I I #
coedge $-1 -1 $-1 $264 $263 $359 $518 forward $265 $-1 #
edge $-1 -1 $-1 $267 0 $573 3 $395 $574 forward @7 unknown #
face $575 -1 $-1 $520 $265 $13 $-1 $576 forward single #
convexity-sys-attrib $-1 -1 $-1 $266 $171 #
point $-1 -1 $-1 -1460 3 148 #
coedge $-1 -1 $-1 $269 $392 $577 $578 forward $57 $-1 #
coedge $-1 -1 $-1 $350 $352 $269 $408 reversed $235 $-1 #
edge $579 -1 $-1 $580 0 $410 324.35936860217248 $269 $581 forward @7 unknown #
attrib_edge_convexity-kcp-attrib $-1 -1 $582 $-1 $271 1 #
vertex $-1 -1 $-1 $271 $583 #
straight-curve $-1 -1 $-1 0 3 246 0 0 -1 I I #
convexity-sys-attrib $-1 -1 $-1 $272 $174 #
point $-1 -1 $-1 0 3 0 #
attrib_edge_convexity-kcp-attrib $-1 -1 $584 $-1 $275 1 #
straight-curve $-1 -1 $-1 -1460 3 13.999999999999773 0 -1 0 I I #
model_id-kcp-attrib $-1 -1 $-1 $-1 $280 1 1021411170 1021411170 1235419138 2 #
face $585 -1 $-1 $-1 $295 $39 $-1 $586 reversed single #
loop $-1 -1 $-1 $-1 $433 $280 #
plane-surface $-1 -1 $-1 0 1.5000000000000002 0 0 -1 0 0 0 -1 forward_v I I I I #
coedge $-1 -1 $-1 $587 $431 $434 $588 forward $281 $-1 #
coedge $-1 -1 $-1 $437 $283 $284 $425 reversed $182 $-1 #
coedge $-1 -1 $-1 $431 $587 $283 $423 reversed $281 $-1 #
edge $-1 -1 $-1 $438 -209 $589 209 $422 $590 forward @7 unknown #
coedge $-1 -1 $-1 $285 $284 $587 $591 forward $115 $-1 #
edge $-1 -1 $-1 $429 -730 $589 730 $421 $592 forward @7 unknown #
coedge $-1 -1 $-1 $434 $433 $285 $427 reversed $418 $-1 #
edge $-1 -1 $-1 $593 -730 $428 730 $426 $594 forward @7 unknown #
vertex $-1 -1 $-1 $287 $595 #
vertex $-1 -1 $-1 $440 $596 #
straight-curve $-1 -1 $-1 730 0 -209 0 -1 0 I I #
coedge $-1 -1 $-1 $420 $422 $288 $432 reversed $281 $-1 #
edge $-1 -1 $-1 $435 -1.5000000000000002 $438 1.5000000000000002 $431 $597 forward @7 unknown #
coedge $-1 -1 $-1 $426 $289 $294 $441 forward $418 $-1 #
coedge $-1 -1 $-1 $289 $426 $420 $588 reversed $418 $-1 #
vertex $-1 -1 $-1 $290 $598 #
straight-curve $-1 -1 $-1 0 1.5000000000000002 209 -1 0 0 I I #
coedge $-1 -1 $-1 $291 $421 $293 $440 reversed $182 $-1 #
vertex $-1 -1 $-1 $432 $599 #
straight-curve $-1 -1 $-1 0 -1.5000000000000002 209 1 0 0 I I #
edge $-1 -1 $-1 $296 -209 $429 209 $293 $600 forward @7 unknown #
edge $-1 -1 $-1 $297 -209 $428 209 $294 $601 forward @7 unknown #
point $-1 -1 $-1 730 -1.5000000000000002 209 #
point $-1 -1 $-1 730 1.5000000000000002 209 #
vertex $-1 -1 $-1 $300 $602 #
ellipse-curve $-1 -1 $-1 -232 3 174 0 1 0 -16 0 0 1 I I #
point $-1 -1 $-1 -248 0 174 #
vertex $-1 -1 $-1 $304 $603 #
ellipse-curve $-1 -1 $-1 -1205.5 3 106 0 -1 0 -21 0 0 1 I I #
point $-1 -1 $-1 -1184.5 0 106 #
vertex $-1 -1 $-1 $308 $604 #
ellipse-curve $-1 -1 $-1 -1205.5 3 146 0 -1 0 -2.25 0 0 1 I I #
point $-1 -1 $-1 -1203.25 0 146 #
vertex $-1 -1 $-1 $312 $605 #
ellipse-curve $-1 -1 $-1 -1401 3 10 0 -1 0 -2.25 0 0 1 I I #
point $-1 -1 $-1 -1398.75 0 10 #
face $-1 -1 $-1 $606 $607 $91 $-1 $214 reversed single #
loop $-1 -1 $-1 $-1 $608 $315 #
coedge $-1 -1 $-1 $609 $610 $611 $612 forward $316 $-1 #
coedge $-1 -1 $-1 $613 $318 $614 $615 reversed $210 $-1 #
coedge $-1 -1 $-1 $318 $616 $617 $618 forward $210 $-1 #
coedge $-1 -1 $-1 $619 $620 $318 $462 reversed $621 $-1 #
edge $-1 -1 $-1 $622 -187.83100827146077 $623 919.49261441300382 $318 $624 forward @7 unknown #
face $-1 -1 $-1 $-1 $475 $65 $-1 $144 reversed single #
loop $-1 -1 $-1 $-1 $471 $319 #
plane-surface $-1 -1 $-1 0 0 -209 0 0 1 1 0 0 forward_v I I I I #
coedge $-1 -1 $-1 $625 $626 $470 $627 forward $320 $-1 #
coedge $-1 -1 $-1 $628 $321 $626 $629 forward $213 $-1 #
coedge $-1 -1 $-1 $321 $628 $473 $630 reversed $213 $-1 #
edge $-1 -1 $-1 $477 -2.2500000000000004 $631 0.75000000000000011 $321 $632 forward @7 unknown #
coedge $-1 -1 $-1 $323 $322 $466 $627 reversed $140 $-1 #
coedge $-1 -1 $-1 $633 $634 $322 $472 forward $464 $-1 #
edge $-1 -1 $-1 $635 -0.75000000000000011 $476 2.2500000000000004 $471 $636 forward @7 unknown #
coedge $-1 -1 $-1 $474 $324 $468 $630 forward $475 $-1 #
coedge $-1 -1 $-1 $324 $473 $633 $637 reversed $475 $-1 #
loop $-1 -1 $-1 $-1 $324 $463 #
vertex $-1 -1 $-1 $637 $638 #
vertex $-1 -1 $-1 $630 $639 #
straight-curve $-1 -1 $-1 -596.24999999999716 -1.5000000000000002 -328.75000000000102 -0.70710678118655323 0 0.7071067811865418 I I #
loop $-1 -1 $-1 $-1 $332 $326 #
coedge $-1 -1 $-1 $640 $641 $331 $486 forward $327 $-1 #
coedge $-1 -1 $-1 $642 $328 $641 $643 reversed $217 $-1 #
coedge $-1 -1 $-1 $328 $642 $329 $483 forward $217 $-1 #
edge $-1 -1 $-1 $644 -209 $336 -37.000000000000028 $482 $645 forward @7 unknown #
coedge $-1 -1 $-1 $646 $332 $330 $485 forward $479 $-1 #
edge $-1 -1 $-1 $335 455 $644 730 $330 $647 forward @7 unknown #
edge $-1 -1 $-1 $490 -299.6460389562771 $488 24.713329645895431 $480 $648 forward @7 unknown #
coedge $-1 -1 $-1 $332 $646 $640 $649 forward $479 $-1 #
vertex $-1 -1 $-1 $333 $650 #
straight-curve $-1 -1 $-1 455.00000000000006 0.75000000000000011 209 0 -1 0 I I #
vertex $-1 -1 $-1 $486 $651 #
straight-curve $-1 -1 $-1 730 0.75000000000000011 37.000000000000021 0 1 0 I I #
point $-1 -1 $-1 455 -1.5000000000000002 209 #
point $-1 -1 $-1 730 -1.5000000000000002 37.000000000000028 #
vertex $-1 -1 $-1 $339 $652 #
ellipse-curve $-1 -1 $-1 -59 3 10 0 -1 0 -2.25 0 0 1 I I #
point $-1 -1 $-1 -56.75 0 10 #
vertex $-1 -1 $-1 $343 $653 #
ellipse-curve $-1 -1 $-1 -222.5 3 342.5 0 -1 0 -2.25 0 0 1 I I #
point $-1 -1 $-1 -220.25 0 342.5 #
model_id-kcp-attrib $-1 -1 $-1 $-1 $347 1 1021411170 1021411170 1235419137 8 #
face $654 -1 $-1 $570 $564 $13 $-1 $655 reversed single #
loop $-1 -1 $-1 $-1 $656 $347 #
plane-surface $-1 -1 $-1 -308 1.5 309.25 -1 0 0 0 0 1 forward_v I I I I #
coedge $-1 -1 $-1 $657 $577 $658 $659 forward $348 $-1 #
coedge $-1 -1 $-1 $352 $350 $660 $661 forward $235 $-1 #
coedge $-1 -1 $-1 $577 $657 $350 $507 reversed $348 $-1 #
edge $662 -1 $-1 $580 0 $663 3 $350 $664 forward @7 unknown #
coedge $-1 -1 $-1 $660 $354 $351 $509 reversed $360 $-1 #
edge $665 -1 $-1 $511 -2.8421709430404007e-014 $357 246 $351 $666 forward @7 unknown #
attrib_edge_convexity-kcp-attrib $-1 -1 $667 $-1 $353 1 #
vertex $-1 -1 $-1 $509 $668 #
straight-curve $-1 -1 $-1 0 3 246.00000000000003 0 -1 0 I I #
model_id-kcp-attrib $-1 -1 $669 $-1 $355 1 1021411170 1021411170 1235419137 29 #
straight-curve $-1 -1 $-1 0 0 0 -1 0 0 I I #
convexity-sys-attrib $-1 -1 $-1 $356 $240 #
point $-1 -1 $-1 0 0 0 #
coedge $-1 -1 $-1 $359 $670 $568 $671 reversed $360 $-1 #
edge $672 -1 $-1 $362 0 $573 134.00000000000023 $401 $673 forward @7 unknown #
loop $-1 -1 $-1 $674 $552 $520 #
face $675 -1 $-1 $388 $360 $13 $-1 $676 reversed single #
convexity-sys-attrib $-1 -1 $-1 $361 $242 #
point $-1 -1 $-1 -1460 0 13.999999999999773 #
loop $-1 -1 $-1 $-1 $677 $38 #
coedge $-1 -1 $-1 $678 $678 $679 $680 forward $366 $-1 #
coedge $-1 -1 $-1 $367 $367 $681 $682 forward $246 $-1 #
coedge $-1 -1 $-1 $683 $684 $367 $527 reversed $685 $-1 #
edge $686 -1 $-1 $687 0 $688 3.1415926535897931 $367 $689 forward @7 unknown #
coedge $-1 -1 $-1 $690 $691 $368 $529 reversed $692 $-1 #
edge $693 -1 $-1 $535 0 $534 3.1415926535897931 $368 $694 forward @7 unknown #
coedge $-1 -1 $-1 $695 $369 $691 $696 forward $532 $-1 #
coedge $-1 -1 $-1 $369 $695 $690 $697 reversed $532 $-1 #
loop $-1 -1 $-1 $-1 $530 $698 #
attrib_edge_convexity-kcp-attrib $-1 -1 $699 $-1 $370 1 #
vertex $-1 -1 $-1 $529 $700 #
vertex $-1 -1 $-1 $529 $701 #
ellipse-curve $-1 -1 $-1 -1205.5 3 146 0 -1 0 -2.25 0 0 1 I I #
coedge $-1 -1 $-1 $702 $371 $374 $544 forward $539 $-1 #
coedge $-1 -1 $-1 $371 $702 $373 $543 reversed $539 $-1 #
loop $-1 -1 $-1 $-1 $537 $703 #
attrib_edge_convexity-kcp-attrib $-1 -1 $704 $-1 $372 1 #
ellipse-curve $-1 -1 $-1 -1205.5 3 106 0 -1 0 21 0 0 1 I I #
coedge $-1 -1 $-1 $374 $373 $705 $706 forward $375 $-1 #
edge $-1 -1 $-1 $377 0 $707 3 $538 $708 forward @7 unknown #
edge $-1 -1 $-1 $378 0 $709 3 $537 $710 forward @7 unknown #
face $711 -1 $-1 $703 $375 $13 $-1 $712 reversed single #
convexity-sys-attrib $-1 -1 $-1 $376 $250 #
point $-1 -1 $-1 -1226.5 3 106 #
point $-1 -1 $-1 -1184.5 3 106 #
coedge $-1 -1 $-1 $381 $380 $713 $714 reversed $382 $-1 #
face $715 -1 $-1 $545 $382 $13 $-1 $716 reversed single #
convexity-sys-attrib $-1 -1 $-1 $383 $252 #
coedge $-1 -1 $-1 $713 $713 $385 $553 forward $519 $-1 #
edge $-1 -1 $-1 $556 0 $554 3.1415926535897931 $385 $717 forward @7 unknown #
vertex $-1 -1 $-1 $386 $718 #
straight-curve $-1 -1 $-1 -216 3 174 0 -1 0 I I #
vertex $-1 -1 $-1 $714 $719 #
straight-curve $-1 -1 $-1 -248 3 174 0 -1 0 I I #
model_id-kcp-attrib $-1 -1 $-1 $-1 $388 1 1021411170 1021411170 1235419137 13 #
cone-surface $-1 -1 $-1 -232 1.5 174 0 1 0 -16 0 0 1 I I 0 1 16 forward I I I I #
coedge $-1 -1 $-1 $656 $658 $392 $561 reversed $502 $-1 #
edge $720 -1 $-1 $566 0 $721 217.5 $392 $722 forward @7 unknown #
coedge $-1 -1 $-1 $723 $393 $396 $569 forward $564 $-1 #
coedge $-1 -1 $-1 $393 $723 $656 $724 reversed $564 $-1 #
loop $-1 -1 $-1 $-1 $562 $501 #
attrib_edge_convexity-kcp-attrib $-1 -1 $725 $-1 $394 1 #
vertex $-1 -1 $-1 $561 $726 #
ellipse-curve $-1 -1 $-1 -332.99999999999989 3 200.49999999999994 0 -1 0 -20.326733186178501 0 -14.554171841018871 1 I I #
coedge $-1 -1 $-1 $396 $395 $517 $671 forward $397 $-1 #
edge $727 -1 $-1 $399 0 $728 3 $562 $729 forward @7 unknown #
face $730 -1 $-1 $403 $397 $13 $-1 $731 forward single #
convexity-sys-attrib $-1 -1 $-1 $398 $262 #
point $-1 -1 $-1 -353.32673318617839 3 185.94582815898107 #
vertex $-1 -1 $-1 $671 $732 #
straight-curve $-1 -1 $-1 -1460 3 148 0 -1 0 I I #
model_id-kcp-attrib $-1 -1 $-1 $-1 $403 1 1021411170 1021411170 1235419137 11 #
plane-surface $-1 -1 $-1 -1460 1.5 81 -1 0 0 0 0 1 forward_v I I I I #
coedge $-1 -1 $-1 $504 $506 $406 $578 reversed $348 $-1 #
edge $733 -1 $-1 $721 0 $580 33 $406 $734 forward @7 unknown #
attrib_edge_convexity-kcp-attrib $-1 -1 $735 $-1 $408 1 #
vertex $-1 -1 $-1 $408 $736 #
straight-curve $-1 -1 $-1 -275 3 418 0.84782505646472672 0 -0.53027603531612 I I #
convexity-sys-attrib $-1 -1 $-1 $409 $271 #
point $-1 -1 $-1 0 3 246 #
convexity-sys-attrib $-1 -1 $-1 $414 $275 #
model_id-kcp-attrib $-1 -1 $-1 $-1 $417 1 1021411170 1021411170 1235419138 4 #
plane-surface $-1 -1 $-1 730 0 0 -1 0 0 0 0 1 forward_v I I I I #
coedge $-1 -1 $-1 $422 $420 $424 $591 reversed $281 $-1 #
edge $-1 -1 $-1 $435 -209 $593 209 $434 $737 forward @7 unknown #
vertex $-1 -1 $-1 $591 $738 #
straight-curve $-1 -1 $-1 -730 -1.5000000000000002 0 0 0 -1 I I #
edge $-1 -1 $-1 $589 -1.5000000000000002 $593 1.5000000000000002 $587 $739 forward @7 unknown #
straight-curve $-1 -1 $-1 0 -1.5000000000000002 -209 -1 0 0 I I #
vertex $-1 -1 $-1 $427 $740 #
straight-curve $-1 -1 $-1 0 1.5000000000000002 -209 1 0 0 I I #
point $-1 -1 $-1 730 1.5000000000000002 -209 #
point $-1 -1 $-1 730 -1.5000000000000002 -209 #
straight-curve $-1 -1 $-1 -730 0 209 0 -1 0 I I #
point $-1 -1 $-1 -730 1.5000000000000002 209 #
point $-1 -1 $-1 -730 -1.5000000000000002 209 #
straight-curve $-1 -1 $-1 730 -1.5000000000000002 0 0 0 -1 I I #
straight-curve $-1 -1 $-1 730 1.5000000000000002 0 0 0 -1 I I #
point $-1 -1 $-1 -216 3 174 #
point $-1 -1 $-1 -1226.5 3 106 #
point $-1 -1 $-1 -1207.75 3 146 #
point $-1 -1 $-1 -1403.25 3 10 #
face $-1 -1 $-1 $741 $621 $91 $-1 $742 reversed single #
loop $-1 -1 $-1 $-1 $743 $456 #
coedge $-1 -1 $-1 $744 $745 $746 $747 forward $457 $-1 #
coedge $-1 -1 $-1 $748 $458 $613 $749 forward $316 $-1 #
coedge $-1 -1 $-1 $458 $748 $750 $751 forward $316 $-1 #
coedge $-1 -1 $-1 $752 $753 $458 $612 reversed $754 $-1 #
edge $-1 -1 $-1 $755 -2.2500000000000004 $756 0.75000000000000011 $458 $757 forward @7 unknown #
coedge $-1 -1 $-1 $616 $459 $609 $749 reversed $210 $-1 #
coedge $-1 -1 $-1 $743 $758 $459 $615 forward $607 $-1 #
edge $-1 -1 $-1 $759 -209 $623 60.999999999999972 $459 $760 forward @7 unknown #
coedge $-1 -1 $-1 $460 $613 $753 $761 forward $210 $-1 #
coedge $-1 -1 $-1 $762 $763 $460 $618 reversed $764 $-1 #
edge $-1 -1 $-1 $765 -2.5202014437034403 $622 1.2732925824821033e-015 $460 $766 forward @7 unknown #
coedge $-1 -1 $-1 $746 $461 $763 $767 forward $621 $-1 #
coedge $-1 -1 $-1 $461 $746 $743 $768 reversed $621 $-1 #
loop $-1 -1 $-1 $-1 $461 $606 #
vertex $-1 -1 $-1 $618 $769 #
vertex $-1 -1 $-1 $462 $770 #
straight-curve $-1 -1 $-1 188.95257588447799 1.5000000000000002 -29.490775392849748 -0.99941267768760633 0 -0.034268056222795697 I I #
coedge $-1 -1 $-1 $626 $466 $634 $771 reversed $320 $-1 #
coedge $-1 -1 $-1 $466 $625 $467 $629 reversed $320 $-1 #
edge $-1 -1 $-1 $631 -189.15106396740401 $635 -169.35207409418086 $466 $772 forward @7 unknown #
coedge $-1 -1 $-1 $468 $467 $773 $774 reversed $213 $-1 #
edge $-1 -1 $-1 $631 195.00000000000023 $775 209 $626 $760 forward @7 unknown #
edge $-1 -1 $-1 $477 195.00000000000023 $776 209 $468 $777 forward @7 unknown #
vertex $-1 -1 $-1 $629 $778 #
straight-curve $-1 -1 $-1 -730 0.75000000000000011 -195.00000000000017 0 1 0 I I #
coedge $-1 -1 $-1 $773 $471 $474 $637 forward $464 $-1 #
coedge $-1 -1 $-1 $471 $773 $625 $771 forward $464 $-1 #
vertex $-1 -1 $-1 $627 $779 #
straight-curve $-1 -1 $-1 -716 0.75000000000000011 -209 0 -1 0 I I #
edge $-1 -1 $-1 $476 716 $776 730 $474 $780 forward @7 unknown #
point $-1 -1 $-1 -716 -1.5000000000000002 -209 #
point $-1 -1 $-1 -730 -1.5000000000000002 -195.00000000000023 #
coedge $-1 -1 $-1 $641 $480 $487 $649 reversed $327 $-1 #
coedge $-1 -1 $-1 $480 $640 $481 $643 forward $327 $-1 #
coedge $-1 -1 $-1 $482 $481 $646 $781 reversed $217 $-1 #
edge $-1 -1 $-1 $782 -209 $490 -37.000000000000028 $481 $783 forward @7 unknown #
vertex $-1 -1 $-1 $781 $784 #
straight-curve $-1 -1 $-1 730 -1.5000000000000002 0 0 0 -1 I I #
coedge $-1 -1 $-1 $487 $484 $642 $781 forward $479 $-1 #
straight-curve $-1 -1 $-1 0 -1.5000000000000002 209 1 0 0 I I #
straight-curve $-1 -1 $-1 475.95258010246272 1.5000000000000002 195.89511353591428 -0.84782505646472683 0 0.53027603531612 I I #
edge $-1 -1 $-1 $782 -730 $488 -455 $640 $785 forward @7 unknown #
point $-1 -1 $-1 455 1.5000000000000002 209 #
point $-1 -1 $-1 730 1.5000000000000002 37.000000000000028 #
point $-1 -1 $-1 -61.25 3 10 #
point $-1 -1 $-1 -224.75 3 342.5 #
model_id-kcp-attrib $-1 -1 $-1 $-1 $501 1 1021411170 1021411170 1235419137 9 #
cone-surface $-1 -1 $-1 -333 1.5 200.5 0 -1 0 -20.326733186178497 0 -14.554171841018981 1 I I 0 1 25.000000000000004 forward I I I I #
coedge $-1 -1 $-1 $786 $560 $563 $724 forward $502 $-1 #
coedge $-1 -1 $-1 $506 $504 $787 $788 forward $348 $-1 #
coedge $-1 -1 $-1 $560 $786 $504 $659 reversed $502 $-1 #
edge $789 -1 $-1 $721 0 $790 3 $504 $791 forward @7 unknown #
coedge $-1 -1 $-1 $787 $508 $505 $661 reversed $360 $-1 #
edge $792 -1 $-1 $663 0 $511 324.35936860217242 $505 $793 forward @7 unknown #
attrib_edge_convexity-kcp-attrib $-1 -1 $794 $-1 $507 1 #
vertex $-1 -1 $-1 $661 $795 #
straight-curve $-1 -1 $-1 -275 3 418 0 -1 0 I I #
model_id-kcp-attrib $-1 -1 $796 $-1 $509 1 1021411170 1021411170 1235419137 28 #
straight-curve $-1 -1 $-1 0 0 246 0 0 -1 I I #
convexity-sys-attrib $-1 -1 $-1 $510 $353 #
point $-1 -1 $-1 -5.6843418860808015e-014 0 246.00000000000003 #
attrib_edge_convexity-kcp-attrib $-1 -1 $797 $513 $355 1 #
coedge $-1 -1 $-1 $517 $798 $723 $799 reversed $360 $-1 #
edge $-1 -1 $-1 $573 0 $728 1107.3236226844647 $568 $800 forward @7 unknown #
model_id-kcp-attrib $-1 -1 $-1 $-1 $518 1 1021411170 1021411170 1235419137 26 #
straight-curve $-1 -1 $-1 -1460 0 13.999999999999773 0 0 1 I I #
loop $-1 -1 $-1 $801 $705 $520 #
model_id-kcp-attrib $-1 -1 $-1 $-1 $520 1 1021411170 1021411170 1235419137 12 #
plane-surface $-1 -1 $-1 0 0 0 0 1 0 1 0 0 forward_v I I I I #
coedge $-1 -1 $-1 $802 $802 $803 $804 forward $523 $-1 #
coedge $-1 -1 $-1 $524 $524 $805 $806 forward $366 $-1 #
coedge $-1 -1 $-1 $807 $808 $524 $680 reversed $809 $-1 #
edge $810 -1 $-1 $811 0 $812 3.1415926535897931 $524 $813 forward @7 unknown #
coedge $-1 -1 $-1 $814 $815 $525 $682 reversed $816 $-1 #
edge $817 -1 $-1 $688 0 $687 3.1415926535897931 $525 $818 forward @7 unknown #
coedge $-1 -1 $-1 $819 $526 $815 $820 forward $685 $-1 #
coedge $-1 -1 $-1 $526 $819 $814 $821 reversed $685 $-1 #
loop $-1 -1 $-1 $-1 $683 $822 #
attrib_edge_convexity-kcp-attrib $-1 -1 $823 $-1 $527 1 #
vertex $-1 -1 $-1 $682 $824 #
vertex $-1 -1 $-1 $682 $825 #
ellipse-curve $-1 -1 $-1 -1401 3 10 0 -1 0 -2.25 0 0 1 I I #
coedge $-1 -1 $-1 $826 $528 $531 $697 forward $692 $-1 #
coedge $-1 -1 $-1 $528 $826 $530 $696 reversed $692 $-1 #
loop $-1 -1 $-1 $-1 $690 $827 #
attrib_edge_convexity-kcp-attrib $-1 -1 $828 $-1 $529 1 #
ellipse-curve $-1 -1 $-1 -1205.5 3 146 0 -1 0 2.25 0 0 1 I I #
coedge $-1 -1 $-1 $531 $530 $829 $830 forward $532 $-1 #
edge $-1 -1 $-1 $534 0 $831 3 $691 $832 forward @7 unknown #
edge $-1 -1 $-1 $535 0 $833 3 $690 $834 forward @7 unknown #
face $835 -1 $-1 $827 $532 $13 $-1 $836 reversed single #
convexity-sys-attrib $-1 -1 $-1 $533 $370 #
point $-1 -1 $-1 -1207.75 3 146 #
point $-1 -1 $-1 -1203.25 3 146 #
coedge $-1 -1 $-1 $538 $537 $837 $838 forward $539 $-1 #
face $839 -1 $-1 $698 $539 $13 $-1 $840 reversed single #
convexity-sys-attrib $-1 -1 $-1 $540 $372 #
coedge $-1 -1 $-1 $837 $837 $542 $706 reversed $674 $-1 #
edge $-1 -1 $-1 $707 0 $709 3.1415926535897931 $542 $841 forward @7 unknown #
vertex $-1 -1 $-1 $543 $842 #
straight-curve $-1 -1 $-1 -1226.5 3 106 0 -1 0 I I #
vertex $-1 -1 $-1 $838 $843 #
straight-curve $-1 -1 $-1 -1184.5 3 106 0 -1 0 I I #
model_id-kcp-attrib $-1 -1 $-1 $-1 $545 1 1021411170 1021411170 1235419137 15 #
cone-surface $-1 -1 $-1 -1205.5 1.5 106 0 -1 0 -21 0 0 1 I I 0 1 21 forward I I I I #
coedge $-1 -1 $-1 $552 $552 $549 $714 forward $519 $-1 #
edge $-1 -1 $-1 $554 0 $556 3.1415926535897931 $549 $844 forward @7 unknown #
model_id-kcp-attrib $-1 -1 $-1 $-1 $550 1 1021411170 1021411170 1235419137 14 #
cone-surface $-1 -1 $-1 -232 1.5 174 0 1 0 16 0 0 1 I I 0 1 16 forward I I I I #
ellipse-curve $-1 -1 $-1 -232 0 174 0 1 0 -16 0 0 1 I I #
point $-1 -1 $-1 -216 0 174 #
point $-1 -1 $-1 -248 0 174 #
attrib_edge_convexity-kcp-attrib $-1 -1 $845 $-1 $561 1 #
vertex $-1 -1 $-1 $578 $846 #
straight-curve $-1 -1 $-1 -308 3 200.5 0 0 1 I I #
coedge $-1 -1 $-1 $563 $562 $670 $799 forward $564 $-1 #
edge $847 -1 $-1 $566 4.4408920985006262e-016 $848 3.0000000000000009 $656 $849 forward @7 unknown #
convexity-sys-attrib $-1 -1 $-1 $565 $394 #
point $-1 -1 $-1 -308 3 200.5 #
attrib_edge_convexity-kcp-attrib $-1 -1 $850 $-1 $569 1 #
vertex $-1 -1 $-1 $799 $851 #
straight-curve $-1 -1 $-1 -353.32673318617844 3 185.94582815898104 0 -1 0 I I #
model_id-kcp-attrib $-1 -1 $-1 $-1 $570 1 1021411170 1021411170 1235419137 10 #
plane-surface $-1 -1 $-1 -906.66336659308922 1.5 166.97291407949052 -0.034268056222795724 0 0.99941267768760633 0.99941267768760633 0 0.034268056222795724 forward_v I I I I #
point $-1 -1 $-1 -1460 0 148 #
attrib_edge_convexity-kcp-attrib $-1 -1 $852 $-1 $578 1 #
straight-curve $-1 -1 $-1 -308 3 418 1 0 0 I I #
convexity-sys-attrib $-1 -1 $-1 $579 $408 #
point $-1 -1 $-1 -275 3 418 #
straight-curve $-1 -1 $-1 -730 1.5000000000000002 0 0 0 -1 I I #
point $-1 -1 $-1 -730 -1.5000000000000002 -209 #
straight-curve $-1 -1 $-1 -730 0 -209 0 1 0 I I #
point $-1 -1 $-1 -730 1.5000000000000002 -209 #
face $-1 -1 $-1 $853 $764 $91 $-1 $854 reversed single #
plane-surface $-1 -1 $-1 376.67326681382156 1.5000000000000002 -23.054171841018928 -0.034268056222795697 0 0.99941267768760633 0 -1 0 forward_v I I I I #
coedge $-1 -1 $-1 $855 $614 $620 $768 forward $607 $-1 #
coedge $-1 -1 $-1 $856 $608 $857 $858 forward $457 $-1 #
coedge $-1 -1 $-1 $608 $750 $855 $859 forward $457 $-1 #
coedge $-1 -1 $-1 $620 $619 $608 $747 reversed $621 $-1 #
edge $-1 -1 $-1 $860 -919.49261441300382 $861 187.83100827146077 $608 $862 forward @7 unknown #
coedge $-1 -1 $-1 $610 $609 $758 $863 forward $316 $-1 #
edge $-1 -1 $-1 $756 -422 $759 730 $613 $785 forward @7 unknown #
coedge $-1 -1 $-1 $745 $856 $610 $751 reversed $457 $-1 #
edge $-1 -1 $-1 $864 -730 $755 422 $750 $647 forward @7 unknown #
coedge $-1 -1 $-1 $865 $611 $856 $866 reversed $754 $-1 #
coedge $-1 -1 $-1 $611 $865 $616 $761 reversed $754 $-1 #
loop $-1 -1 $-1 $-1 $753 $853 #
vertex $-1 -1 $-1 $866 $867 #
vertex $-1 -1 $-1 $749 $868 #
straight-curve $-1 -1 $-1 422 0.75000000000000011 209 0 1 0 I I #
coedge $-1 -1 $-1 $614 $855 $748 $863 reversed $607 $-1 #
vertex $-1 -1 $-1 $749 $869 #
straight-curve $-1 -1 $-1 -730 1.5000000000000002 0 0 0 -1 I I #
edge $-1 -1 $-1 $756 -104.5 $765 113 $616 $870 forward @7 unknown #
coedge $-1 -1 $-1 $857 $617 $865 $871 forward $764 $-1 #
coedge $-1 -1 $-1 $617 $857 $619 $767 reversed $764 $-1 #
loop $-1 -1 $-1 $-1 $617 $741 #
vertex $-1 -1 $-1 $761 $872 #
ellipse-curve $-1 -1 $-1 397.00000000000011 1.5000000000000002 -8.5000000000000568 0 1 0 -20.326733186178501 0 -14.554171841018871 1 I I #
edge $-1 -1 $-1 $622 0 $861 3.0000000000000004 $763 $873 forward @7 unknown #
edge $-1 -1 $-1 $623 -0.75000000000000011 $860 2.2500000000000004 $743 $874 forward @7 unknown #
point $-1 -1 $-1 376.67326681382156 1.5000000000000002 -23.054171841018928 #
point $-1 -1 $-1 -730 1.5000000000000002 -60.999999999999972 #
edge $-1 -1 $-1 $775 -730 $635 -716 $625 $875 forward @7 unknown #
straight-curve $-1 -1 $-1 -596.24999999999716 1.5000000000000002 -328.75000000000102 0.70710678118655323 0 -0.7071067811865418 I I #
coedge $-1 -1 $-1 $634 $633 $628 $774 forward $464 $-1 #
edge $-1 -1 $-1 $776 -1.5000000000000002 $775 1.5000000000000002 $628 $876 forward @7 unknown #
vertex $-1 -1 $-1 $771 $877 #
vertex $-1 -1 $-1 $774 $878 #
straight-curve $-1 -1 $-1 -730 -1.5000000000000002 0 0 0 -1 I I #
point $-1 -1 $-1 -730 1.5000000000000002 -195.00000000000023 #
point $-1 -1 $-1 -716 1.5000000000000002 -209 #
straight-curve $-1 -1 $-1 0 -1.5000000000000002 -209 -1 0 0 I I #
edge $-1 -1 $-1 $644 -1.5000000000000002 $782 1.5000000000000002 $642 $879 forward @7 unknown #
vertex $-1 -1 $-1 $781 $880 #
straight-curve $-1 -1 $-1 730 1.5000000000000002 0 0 0 -1 I I #
point $-1 -1 $-1 730 -1.5000000000000002 209 #
straight-curve $-1 -1 $-1 0 1.5000000000000002 209 -1 0 0 I I #
coedge $-1 -1 $-1 $658 $656 $798 $881 forward $502 $-1 #
coedge $-1 -1 $-1 $798 $660 $657 $788 reversed $360 $-1 #
edge $882 -1 $-1 $790 0 $663 33 $657 $883 forward @7 unknown #
attrib_edge_convexity-kcp-attrib $-1 -1 $884 $-1 $659 1 #
vertex $-1 -1 $-1 $788 $885 #
straight-curve $-1 -1 $-1 -308 3 418 0 -1 0 I I #
attrib_edge_convexity-kcp-attrib $-1 -1 $886 $-1 $661 1 #
straight-curve $-1 -1 $-1 -275 2.2204460492503131e-016 418 0.84782505646472672 0 -0.53027603531612 I I #
convexity-sys-attrib $-1 -1 $-1 $662 $507 #
point $-1 -1 $-1 -275 0 418 #
attrib_edge_convexity-kcp-attrib $-1 -1 $887 $665 $509 1 #
convexity-sys-attrib $-1 -1 $-1 $669 $355 #
coedge $-1 -1 $-1 $670 $787 $786 $881 reversed $360 $-1 #
edge $888 -1 $-1 $728 0 $848 2.5202014437034403 $723 $889 forward @7 unknown #
straight-curve $-1 -1 $-1 -1460 0 148 0.99941267768760633 0 0.034268056222795697 I I #
loop $-1 -1 $-1 $890 $829 $520 #
coedge $-1 -1 $-1 $677 $677 $891 $892 forward $523 $-1 #
coedge $-1 -1 $-1 $893 $894 $677 $804 reversed $895 $-1 #
edge $896 -1 $-1 $897 0 $898 3.1415926535897931 $677 $899 forward @7 unknown #
coedge $-1 -1 $-1 $900 $901 $678 $806 reversed $902 $-1 #
edge $903 -1 $-1 $812 0 $811 3.1415926535897931 $678 $904 forward @7 unknown #
coedge $-1 -1 $-1 $905 $679 $901 $906 forward $809 $-1 #
coedge $-1 -1 $-1 $679 $905 $900 $907 reversed $809 $-1 #
loop $-1 -1 $-1 $-1 $807 $908 #
attrib_edge_convexity-kcp-attrib $-1 -1 $909 $-1 $680 1 #
vertex $-1 -1 $-1 $806 $910 #
vertex $-1 -1 $-1 $806 $911 #
ellipse-curve $-1 -1 $-1 -59 3 10 0 -1 0 -2.25 0 0 1 I I #
coedge $-1 -1 $-1 $912 $681 $684 $821 forward $816 $-1 #
coedge $-1 -1 $-1 $681 $912 $683 $820 reversed $816 $-1 #
loop $-1 -1 $-1 $-1 $814 $913 #
attrib_edge_convexity-kcp-attrib $-1 -1 $914 $-1 $682 1 #
ellipse-curve $-1 -1 $-1 -1401 3 10 0 -1 0 2.25 0 0 1 I I #
coedge $-1 -1 $-1 $684 $683 $915 $916 forward $685 $-1 #
edge $-1 -1 $-1 $687 0 $917 3 $815 $918 forward @7 unknown #
edge $-1 -1 $-1 $688 0 $919 3 $814 $920 forward @7 unknown #
face $921 -1 $-1 $913 $685 $13 $-1 $922 reversed single #
convexity-sys-attrib $-1 -1 $-1 $686 $527 #
point $-1 -1 $-1 -1403.25 3 10 #
point $-1 -1 $-1 -1398.75 3 10 #
coedge $-1 -1 $-1 $691 $690 $923 $924 forward $692 $-1 #
face $925 -1 $-1 $822 $692 $13 $-1 $926 reversed single #
convexity-sys-attrib $-1 -1 $-1 $693 $529 #
coedge $-1 -1 $-1 $923 $923 $695 $830 reversed $801 $-1 #
edge $-1 -1 $-1 $831 0 $833 3.1415926535897931 $695 $927 forward @7 unknown #
vertex $-1 -1 $-1 $696 $928 #
straight-curve $-1 -1 $-1 -1207.75 3 146 0 -1 0 I I #
vertex $-1 -1 $-1 $924 $929 #
straight-curve $-1 -1 $-1 -1203.25 3 146 0 -1 0 I I #
model_id-kcp-attrib $-1 -1 $-1 $-1 $698 1 1021411170 1021411170 1235419137 17 #
cone-surface $-1 -1 $-1 -1205.5 1.5 146 0 -1 0 -2.25 0 0 1 I I 0 1 2.25 forward I I I I #
coedge $-1 -1 $-1 $705 $705 $702 $838 reversed $674 $-1 #
edge $-1 -1 $-1 $709 0 $707 3.1415926535897931 $702 $930 forward @7 unknown #
model_id-kcp-attrib $-1 -1 $-1 $-1 $703 1 1021411170 1021411170 1235419137 16 #
cone-surface $-1 -1 $-1 -1205.5 1.5 106 0 -1 0 21 0 0 1 I I 0 1 21 forward I I I I #
ellipse-curve $-1 -1 $-1 -1205.5 0 106 0 -1 0 -21 0 0 1 I I #
point $-1 -1 $-1 -1226.5 0 106 #
point $-1 -1 $-1 -1184.5 0 106 #
ellipse-curve $-1 -1 $-1 -232 0 174 0 1 0 16 0 0 1 I I #
convexity-sys-attrib $-1 -1 $-1 $720 $561 #
point $-1 -1 $-1 -308 3 418 #
attrib_edge_convexity-kcp-attrib $-1 -1 $931 $-1 $724 4 #
vertex $-1 -1 $-1 $881 $932 #
straight-curve $-1 -1 $-1 -308 3.0000000000000004 200.5 0 -1 0 I I #
convexity-sys-attrib $-1 -1 $-1 $727 $569 #
point $-1 -1 $-1 -353.32673318617839 0 185.94582815898107 #
convexity-sys-attrib $-1 -1 $-1 $733 $578 #
face $-1 -1 $-1 $-1 $754 $91 $-1 $933 reversed single #
cone-surface $-1 -1 $-1 397.00000000000011 1.5000000000000002 -8.5000000000000568 0 1 0 -20.326733186178501 0 -14.554171841018871 1 I I 0 -1 24.99999999999994 forward I I I I #
coedge $-1 -1 $-1 $758 $743 $745 $859 reversed $607 $-1 #
coedge $-1 -1 $-1 $750 $744 $752 $866 forward $457 $-1 #
coedge $-1 -1 $-1 $763 $762 $744 $858 reversed $764 $-1 #
edge $-1 -1 $-1 $861 -1.2732925824821033e-015 $934 2.5202014437034403 $744 $935 forward @7 unknown #
edge $-1 -1 $-1 $864 -209 $860 61 $855 $777 forward @7 unknown #
vertex $-1 -1 $-1 $747 $936 #
vertex $-1 -1 $-1 $858 $937 #
straight-curve $-1 -1 $-1 188.95257588447799 -1.5000000000000002 -29.490775392849748 0.99941267768760633 0 0.034268056222795697 I I #
edge $-1 -1 $-1 $759 -1.5000000000000002 $864 1.5000000000000002 $758 $938 forward @7 unknown #
vertex $-1 -1 $-1 $863 $939 #
coedge $-1 -1 $-1 $753 $752 $762 $871 reversed $754 $-1 #
edge $-1 -1 $-1 $934 -113 $755 104.5 $856 $940 forward @7 unknown #
point $-1 -1 $-1 422 -1.5000000000000002 209 #
point $-1 -1 $-1 422 1.5000000000000002 209 #
point $-1 -1 $-1 -730 1.5000000000000002 209 #
straight-curve $-1 -1 $-1 422 1.5000000000000002 104.5 0 0 -1 I I #
edge $-1 -1 $-1 $765 0 $934 3.0000000000000004 $865 $941 forward @7 unknown #
point $-1 -1 $-1 422 1.5000000000000002 -8.5 #
straight-curve $-1 -1 $-1 376.67326681382156 1.5000000000000002 -23.054171841018928 0 -1 0 I I #
straight-curve $-1 -1 $-1 -730 0.75000000000000011 -60.999999999999972 0 -1 0 I I #
straight-curve $-1 -1 $-1 0 1.5000000000000002 -209 1 0 0 I I #
straight-curve $-1 -1 $-1 -730 0 -209 0 1 0 I I #
point $-1 -1 $-1 -730 1.5000000000000002 -209 #
point $-1 -1 $-1 -730 -1.5000000000000002 -209 #
straight-curve $-1 -1 $-1 730 0 209 0 1 0 I I #
point $-1 -1 $-1 730 1.5000000000000002 209 #
edge $942 -1 $-1 $848 0 $790 217.5 $786 $943 forward @7 unknown #
model_id-kcp-attrib $-1 -1 $-1 $-1 $788 1 1021411170 1021411170 1235419137 27 #
straight-curve $-1 -1 $-1 -308 0 418 1 0 0 I I #
convexity-sys-attrib $-1 -1 $-1 $789 $659 #
point $-1 -1 $-1 -308 0 418 #
convexity-sys-attrib $-1 -1 $-1 $792 $661 #
convexity-sys-attrib $-1 -1 $-1 $796 $509 #
attrib_edge_convexity-kcp-attrib $-1 -1 $944 $-1 $799 1 #
ellipse-curve $-1 -1 $-1 -332.99999999999989 0 200.49999999999994 0 -1 0 -20.326733186178501 0 -14.554171841018871 1 I I #
loop $-1 -1 $-1 $945 $915 $520 #
coedge $-1 -1 $-1 $946 $947 $802 $892 reversed $948 $-1 #
edge $949 -1 $-1 $898 0 $897 3.1415926535897931 $802 $950 forward @7 unknown #
coedge $-1 -1 $-1 $951 $803 $947 $952 forward $895 $-1 #
coedge $-1 -1 $-1 $803 $951 $946 $953 reversed $895 $-1 #
loop $-1 -1 $-1 $-1 $893 $954 #
attrib_edge_convexity-kcp-attrib $-1 -1 $955 $-1 $804 1 #
vertex $-1 -1 $-1 $892 $956 #
vertex $-1 -1 $-1 $892 $957 #
ellipse-curve $-1 -1 $-1 -222.5 3 342.5 0 -1 0 -2.25 0 0 1 I I #
coedge $-1 -1 $-1 $958 $805 $808 $907 forward $902 $-1 #
coedge $-1 -1 $-1 $805 $958 $807 $906 reversed $902 $-1 #
loop $-1 -1 $-1 $-1 $900 $959 #
attrib_edge_convexity-kcp-attrib $-1 -1 $960 $-1 $806 1 #
ellipse-curve $-1 -1 $-1 -59 3 10 0 -1 0 2.25 0 0 1 I I #
coedge $-1 -1 $-1 $808 $807 $961 $962 forward $809 $-1 #
edge $-1 -1 $-1 $811 0 $963 3 $901 $964 forward @7 unknown #
edge $-1 -1 $-1 $812 0 $965 3 $900 $966 forward @7 unknown #
face $967 -1 $-1 $959 $809 $13 $-1 $968 reversed single #
convexity-sys-attrib $-1 -1 $-1 $810 $680 #
point $-1 -1 $-1 -61.25 3 10 #
point $-1 -1 $-1 -56.75 3 10 #
coedge $-1 -1 $-1 $815 $814 $969 $970 forward $816 $-1 #
face $971 -1 $-1 $908 $816 $13 $-1 $972 reversed single #
convexity-sys-attrib $-1 -1 $-1 $817 $682 #
coedge $-1 -1 $-1 $969 $969 $819 $916 reversed $890 $-1 #
edge $-1 -1 $-1 $917 0 $919 3.1415926535897931 $819 $973 forward @7 unknown #
vertex $-1 -1 $-1 $820 $974 #
straight-curve $-1 -1 $-1 -1403.25 3 10 0 -1 0 I I #
vertex $-1 -1 $-1 $970 $975 #
straight-curve $-1 -1 $-1 -1398.75 3 10 0 -1 0 I I #
model_id-kcp-attrib $-1 -1 $-1 $-1 $822 1 1021411170 1021411170 1235419137 19 #
cone-surface $-1 -1 $-1 -1401 1.5 10 0 -1 0 -2.25 0 0 1 I I 0 1 2.25 forward I I I I #
coedge $-1 -1 $-1 $829 $829 $826 $924 reversed $801 $-1 #
edge $-1 -1 $-1 $833 0 $831 3.1415926535897931 $826 $976 forward @7 unknown #
model_id-kcp-attrib $-1 -1 $-1 $-1 $827 1 1021411170 1021411170 1235419137 18 #
cone-surface $-1 -1 $-1 -1205.5 1.5 146 0 -1 0 2.25 0 0 1 I I 0 1 2.25 forward I I I I #
ellipse-curve $-1 -1 $-1 -1205.5 0 146 0 -1 0 -2.25 0 0 1 I I #
point $-1 -1 $-1 -1207.75 0 146 #
point $-1 -1 $-1 -1203.25 0 146 #
ellipse-curve $-1 -1 $-1 -1205.5 0 106 0 -1 0 21 0 0 1 I I #
convexity-sys-attrib $-1 -1 $-1 $847 $724 #
point $-1 -1 $-1 -308 -4.4408920985006262e-016 200.5 #
plane-surface $-1 -1 $-1 422 1.5000000000000002 209 -1 0 0 0 -1 0 forward_v I I I I #
vertex $-1 -1 $-1 $866 $977 #
ellipse-curve $-1 -1 $-1 397.00000000000011 -1.5000000000000002 -8.5000000000000568 0 -1 0 -20.326733186178501 0 -14.554171841018871 1 I I #
point $-1 -1 $-1 -730 -1.5000000000000002 -61 #
point $-1 -1 $-1 376.67326681382156 -1.5000000000000002 -23.054171841018928 #
straight-curve $-1 -1 $-1 -730 0 209 0 -1 0 I I #
point $-1 -1 $-1 -730 -1.5000000000000002 209 #
straight-curve $-1 -1 $-1 422 -1.5000000000000002 104.5 0 0 1 I I #
straight-curve $-1 -1 $-1 422 1.5000000000000002 -8.5 0 -1 0 I I #
attrib_edge_convexity-kcp-attrib $-1 -1 $978 $-1 $881 1 #
straight-curve $-1 -1 $-1 -308 0 200.5 0 0 1 I I #
convexity-sys-attrib $-1 -1 $-1 $888 $799 #
loop $-1 -1 $-1 $979 $961 $520 #
coedge $-1 -1 $-1 $980 $891 $894 $953 forward $948 $-1 #
coedge $-1 -1 $-1 $891 $980 $893 $952 reversed $948 $-1 #
loop $-1 -1 $-1 $-1 $946 $981 #
attrib_edge_convexity-kcp-attrib $-1 -1 $982 $-1 $892 1 #
ellipse-curve $-1 -1 $-1 -222.5 3 342.5 0 -1 0 2.25 0 0 1 I I #
coedge $-1 -1 $-1 $894 $893 $983 $984 forward $895 $-1 #
edge $-1 -1 $-1 $897 0 $985 3 $947 $986 forward @7 unknown #
edge $-1 -1 $-1 $898 0 $987 3 $946 $988 forward @7 unknown #
face $989 -1 $-1 $981 $895 $13 $-1 $990 reversed single #
convexity-sys-attrib $-1 -1 $-1 $896 $804 #
point $-1 -1 $-1 -224.75 3 342.5 #
point $-1 -1 $-1 -220.25 3 342.5 #
coedge $-1 -1 $-1 $901 $900 $991 $992 forward $902 $-1 #
face $993 -1 $-1 $954 $902 $13 $-1 $994 reversed single #
convexity-sys-attrib $-1 -1 $-1 $903 $806 #
coedge $-1 -1 $-1 $991 $991 $905 $962 reversed $945 $-1 #
edge $-1 -1 $-1 $963 0 $965 3.1415926535897931 $905 $995 forward @7 unknown #
vertex $-1 -1 $-1 $906 $996 #
straight-curve $-1 -1 $-1 -61.25 3 10 0 -1 0 I I #
vertex $-1 -1 $-1 $992 $997 #
straight-curve $-1 -1 $-1 -56.75 3 10 0 -1 0 I I #
model_id-kcp-attrib $-1 -1 $-1 $-1 $908 1 1021411170 1021411170 1235419137 21 #
cone-surface $-1 -1 $-1 -59 1.5 10 0 -1 0 -2.25 0 0 1 I I 0 1 2.25 forward I I I I #
coedge $-1 -1 $-1 $915 $915 $912 $970 reversed $890 $-1 #
edge $-1 -1 $-1 $919 0 $917 3.1415926535897931 $912 $998 forward @7 unknown #
model_id-kcp-attrib $-1 -1 $-1 $-1 $913 1 1021411170 1021411170 1235419137 20 #
cone-surface $-1 -1 $-1 -1401 1.5 10 0 -1 0 2.25 0 0 1 I I 0 1 2.25 forward I I I I #
ellipse-curve $-1 -1 $-1 -1401 0 10 0 -1 0 -2.25 0 0 1 I I #
point $-1 -1 $-1 -1403.25 0 10 #
point $-1 -1 $-1 -1398.75 0 10 #
ellipse-curve $-1 -1 $-1 -1205.5 0 146 0 -1 0 2.25 0 0 1 I I #
point $-1 -1 $-1 422 -1.5000000000000002 -8.5 #
convexity-sys-attrib $-1 -1 $-1 $942 $881 #
loop $-1 -1 $-1 $-1 $983 $520 #
coedge $-1 -1 $-1 $947 $946 $999 $1000 forward $948 $-1 #
face $1001 -1 $-1 $-1 $948 $13 $-1 $1002 reversed single #
convexity-sys-attrib $-1 -1 $-1 $949 $892 #
coedge $-1 -1 $-1 $999 $999 $951 $984 reversed $979 $-1 #
edge $-1 -1 $-1 $985 0 $987 3.1415926535897931 $951 $1003 forward @7 unknown #
vertex $-1 -1 $-1 $952 $1004 #
straight-curve $-1 -1 $-1 -224.75 3 342.5 0 -1 0 I I #
vertex $-1 -1 $-1 $1000 $1005 #
straight-curve $-1 -1 $-1 -220.25 3 342.5 0 -1 0 I I #
model_id-kcp-attrib $-1 -1 $-1 $-1 $954 1 1021411170 1021411170 1235419137 23 #
cone-surface $-1 -1 $-1 -222.5 1.5 342.5 0 -1 0 -2.25 0 0 1 I I 0 1 2.25 forward I I I I #
coedge $-1 -1 $-1 $961 $961 $958 $992 reversed $945 $-1 #
edge $-1 -1 $-1 $965 0 $963 3.1415926535897931 $958 $1006 forward @7 unknown #
model_id-kcp-attrib $-1 -1 $-1 $-1 $959 1 1021411170 1021411170 1235419137 22 #
cone-surface $-1 -1 $-1 -59 1.5 10 0 -1 0 2.25 0 0 1 I I 0 1 2.25 forward I I I I #
ellipse-curve $-1 -1 $-1 -59 0 10 0 -1 0 -2.25 0 0 1 I I #
point $-1 -1 $-1 -61.25 0 10 #
point $-1 -1 $-1 -56.75 0 10 #
ellipse-curve $-1 -1 $-1 -1401 0 10 0 -1 0 2.25 0 0 1 I I #
coedge $-1 -1 $-1 $983 $983 $980 $1000 reversed $979 $-1 #
edge $-1 -1 $-1 $987 0 $985 3.1415926535897931 $980 $1007 forward @7 unknown #
model_id-kcp-attrib $-1 -1 $-1 $-1 $981 1 1021411170 1021411170 1235419137 24 #
cone-surface $-1 -1 $-1 -222.5 1.5 342.5 0 -1 0 2.25 0 0 1 I I 0 1 2.25 forward I I I I #
ellipse-curve $-1 -1 $-1 -222.5 0 342.5 0 -1 0 -2.25 0 0 1 I I #
point $-1 -1 $-1 -224.75 0 342.5 #
point $-1 -1 $-1 -220.25 0 342.5 #
ellipse-curve $-1 -1 $-1 -59 0 10 0 -1 0 2.25 0 0 1 I I #
ellipse-curve $-1 -1 $-1 -222.5 0 342.5 0 -1 0 2.25 0 0 1 I I #
End-of-ACIS-data 