600 0 1 0           
104 GICL Pro/E ACIS Translator - Source: f:/data5/repository/PTC/V20/NC_Training_Rel20/DXF/part_13.prt - 6 0 13 ACIS 6.0.3 NT 24 Thu Apr 04 13:13:35 2002 
1 9.9999999999999995e-007 1e-010 
body $-1 $1 $-1 $-1 #
lump $-1 $-1 $2 $0 #
shell $-1 $-1 $-1 $3 $-1 $1 #
face $-1 $4 $5 $2 $-1 $6 forward single #
face $-1 $7 $8 $2 $-1 $9 reversed single #
loop $-1 $-1 $10 $3 #
plane-surface $-1 216 95 0 0 0 1 0 -1 0 forward_v I I I I #
face $-1 $11 $12 $2 $-1 $13 forward single #
loop $-1 $-1 $14 $4 #
plane-surface $-1 -170.67191011235957 23.649999999999999 -0.59999999999999998 0.51534703352428435 -0.85698158383813616 0 0.85698158383813605 0.51534703352428424 0 forward_v I I I I #
coedge $-1 $15 $16 $17 $18 reversed $5 $-1 #
face $-1 $19 $20 $2 $-1 $21 forward single #
loop $-1 $-1 $22 $7 #
plane-surface $-1 40 69.75 -0.59999999999999998 -0.14201187550701205 0.98986495402907404 0 -0.98986495402907393 -0.14201187550701203 0 forward_v I I I I #
coedge $-1 $23 $17 $24 $25 forward $8 $-1 #
coedge $-1 $26 $10 $27 $28 reversed $5 $-1 #
coedge $-1 $10 $26 $29 $30 forward $5 $-1 #
coedge $-1 $14 $31 $10 $18 forward $8 $-1 #
edge $-1 $32 7.3235218213239429e-015 $33 80.916348183529465 $10 $34 forward 7 unknown #
face $-1 $35 $36 $2 $-1 $37 reversed single #
loop $-1 $-1 $38 $11 #
plane-surface $-1 199.25842105263155 48.899999999999999 -0.59999999999999998 0.93993777869923079 -0.3413458248960371 0 0.34134582489603704 0.93993777869923056 0 forward_v I I I I #
coedge $-1 $39 $29 $40 $41 forward $12 $-1 #
coedge $-1 $31 $14 $42 $43 reversed $8 $-1 #
coedge $-1 $29 $39 $14 $25 reversed $12 $-1 #
edge $-1 $33 0 $44 1.2 $24 $45 forward 7 unknown #
coedge $-1 $16 $15 $38 $46 forward $5 $-1 #
coedge $-1 $47 $48 $15 $28 forward $49 $-1 #
edge $-1 $50 0 $32 387.86066232998223 $15 $51 forward 7 unknown #
coedge $-1 $22 $24 $16 $30 reversed $12 $-1 #
edge $-1 $52 -2.8133654098754563e-014 $33 355.60406353133817 $16 $53 forward 7 unknown #
coedge $-1 $17 $23 $54 $55 reversed $8 $-1 #
vertex $-1 $28 $56 #
vertex $-1 $30 $57 #
straight-curve $-1 -205.34382022471914 2.7999999999999972 0 0.85698158383813605 0.51534703352428424 0 I I #
face $-1 $58 $59 $2 $-1 $60 reversed single #
loop $-1 $-1 $61 $19 #
spline-surface $-1 forward { exactsur full nurbs 3 1 both open open none none 3 2 
	0 3 0.5 2 1 3 
	0 1 1.0023749509824269 1 
	182.51684210526309 2.7999999999999998 -1.2 1 
	182.32618421052626 2.381120979521361 -1.2000000000000004 1 
	182.13552631578941 1.9639093949818631 -1.3733489052211842 1 
	181.75421052631575 1.3733489052211836 -1.9639093949818647 1 
	181.56355263157889 1.2 -2.381120979521361 1 
	181.37289473684206 1.2 -2.7999999999999998 1 
	182.51684210526309 2.7999999999999998 0.0028499411789122851 1 
	182.32618421052626 2.0662156013064794 0.0028499411789115053 1 
	182.13552631578941 1.3353521855654216 -0.30081941432272874 1 
	181.75421052631575 0.30081941432272752 -1.335352185565424 1 
	181.56355263157889 -0.0028499411789122851 -2.0662156013064794 1 
	181.37289473684206 -0.0028499411789122851 -2.7999999999999998 1 
	0 
	0 
	0 
	1 0.5 
	0 
	0 
	0 
	F 1 F 0 F 1 F 0 } I I I I #
coedge $-1 $62 $40 $26 $46 reversed $20 $-1 #
coedge $-1 $24 $22 $63 $64 forward $12 $-1 #
coedge $-1 $38 $65 $22 $41 reversed $20 $-1 #
edge $-1 $52 0 $66 1.2 $40 $67 forward 7 unknown #
coedge $-1 $63 $68 $23 $43 forward $69 $-1 #
edge $-1 $70 4.9400343296858959e-014 $44 80.916348183529465 $42 $71 forward 7 unknown #
vertex $-1 $64 $72 #
straight-curve $-1 -135.99999999999994 44.500000000000028 0 0 0 -1 I I #
edge $-1 $50 -1.4609567890776754e-014 $52 98.091599347772288 $26 $73 forward 7 unknown #
coedge $-1 $74 $27 $75 $76 forward $49 $-1 #
tcoedge-coedge $-1 $27 $74 $77 $78 reversed $49 $79 -0.99999999999999989 0 #
loop $-1 $-1 $74 $80 #
tvertex-vertex $-1 $46 $81 2.2648549702353193e-014 #
straight-curve $-1 182.51684210526309 2.7999999999999972 0 -1 0 0 I I #
vertex $-1 $30 $82 #
straight-curve $-1 215.99999999999997 95 0 -0.98986495402907404 -0.14201187550701208 0 I I #
coedge $-1 $83 $75 $31 $55 forward $84 $85 #
edge $-1 $32 0 $70 1.2 $31 $86 forward 7 unknown #
point $-1 -205.34382022471914 2.8000000000000114 0 #
point $-1 -136 44.5 0 #
face $-1 $87 $88 $2 $-1 $89 reversed single #
loop $-1 $-1 $90 $35 #
plane-surface $-1 177.79578947368412 0.59999999999999998 -12.649999999999999 -0.93993777869923112 0 0.3413458248960361 -0.34134582489603604 0 -0.93993777869923101 forward_v I I I I #
coedge $-1 $91 $77 $92 $93 forward $36 $94 #
coedge $-1 $65 $38 $95 $96 forward $20 $-1 #
coedge $-1 $97 $42 $39 $64 reversed $69 $-1 #
edge $-1 $66 -2.8133654098754563e-014 $44 355.60406353133817 $63 $98 forward 7 unknown #
coedge $-1 $40 $62 $97 $99 forward $20 $-1 #
vertex $-1 $64 $100 #
straight-curve $-1 215.99999999999997 95 0 0 0 -1 I I #
coedge $-1 $42 $97 $101 $102 forward $69 $-1 #
loop $-1 $-1 $97 $103 #
vertex $-1 $43 $104 #
straight-curve $-1 -205.34382022471914 2.7999999999999972 -1.2 0.85698158383813605 0.51534703352428424 0 I I #
point $-1 -136 44.5 -1.2 #
straight-curve $-1 182.51684210526309 2.8000000000000114 0 0.3413458248960371 0.93993777869923067 0 I I #
coedge $-1 $48 $47 $105 $106 reversed $49 $-1 #
coedge $-1 $54 $107 $47 $76 reversed $84 $108 #
edge $-1 $32 0 $109 1.0000000000000002 $47 $110 forward 7 unknown #
tcoedge-coedge $-1 $61 $95 $48 $78 forward $36 $111 0 0.99999999999999989 #
tedge-edge $-1 $50 0 $112 0.99999999999999989 $48 $113 forward 7 unknown 0.00092282255376941727 #
pcurve $-1 0 forward { exppc nubs 2 open 25 
	-0.99999999999999989 2 -0.91666666666666652 2 -0.87499999999999989 2 -0.85416666666666652 2 -0.84374999999999989 2 
	-0.83854166666666652 2 -0.83593749999999989 2 -0.83463541666666652 2 -0.83398437499999989 2 -0.83365885416666652 2 
	-0.83333333333333326 2 -0.66666666666666663 2 -0.49999999999999994 2 -0.33333333333333331 2 -0.1666666666666666 2 
	-0.16634114583333326 2 -0.16601562499999994 2 -0.16536458333333326 2 -0.16406249999999994 2 -0.16145833333333326 2 
	-0.15624999999999994 2 -0.14583333333333326 2 -0.12499999999999994 2 -0.083333333333333301 2 0 2 
	12.366823308270694 0 
	12.353453518044429 0.051403945915773783 
	12.332237885932683 0.13266307758523949 
	12.316534582184605 0.19280914441863167 
	12.31524575584683 0.19774711017905222 
	12.310652798597147 0.21534441167293811 
	12.306793506902462 0.23014198023745261 
	12.304620317975225 0.23847457458334431 
	12.302574420308373 0.2463232068292549 
	12.301506643627683 0.25041949503725563 
	12.300466146962574 0.25441231331852576 
	12.299936035135254 0.25644657278922534 
	12.299412266587666 0.25845680556218825 
	12.299148059179572 0.25947083817844685 
	12.298885382825995 0.26047907571840051 
	12.29875366846076 0.26098464871110244 
	12.298621954095523 0.26149022170380437 
	12.298556098496942 0.26174300986935395 
	12.29849024289836 0.26199579803490358 
	12.298362883174406 0.26248467615705695 
	12.298358533767708 0.26250137682442215 
	12.284064095241991 0.31738855561166274 
	12.230780435737582 0.52315563603398108 
	12.202517813654175 0.63229823782359329 
	12.162546992481234 0.78539816339744739 
	12.122576171304964 0.93849808898400711 
	12.094313549224855 1.0476406907609164 
	12.041029889720678 1.2534077711824216 
	12.02673545119473 1.3082949499704795 
	12.026731101689339 1.3083116510168096 
	12.026603742064108 1.3088005287599977 
	12.026537886465526 1.3090533169255472 
	12.026472030866945 1.3093061050910966 
	12.026340316501702 1.3098116780837987 
	12.026208602136462 1.3103172510765011 
	12.025945925649562 1.3113254891281727 
	12.025681718374791 1.3123395212327129 
	12.025157949828021 1.3143497540025513 
	12.024627837999894 1.3163840134763758 
	12.023587341399907 1.3203768315077502 
	12.022519564654074 1.3244731199656463 
	12.020473666956162 1.33232175233073 
	12.018300478060006 1.340654346557449 
	12.014441186390169 1.3554519150267006 
	12.009848229115628 1.373049216615849 
	12.008559403300648 1.3779871803735366 
	11.992856099029744 1.4381332492096606 
	11.971640466923542 1.5193923808578365 
	11.958270676691752 1.5707963267948954 
	0.001 
	cone 216 2.7999999999999998 -2.7999999999999998 -1 0 0 0 -2.7999999999999998 0 1 I I 0 1 2.7999999999999998 forward I I I I 
	} 0 0 #
face $-1 $-1 $49 $2 $-1 $114 forward single #
point $-1 182.51684210526309 2.7999999999999958 0 #
point $-1 216 95 0 #
coedge $-1 $107 $54 $115 $116 forward $84 $117 #
loop $-1 $-1 $54 $118 #
pcurve $-1 0 forward { exppc nurbs 3 open 2 
	0 3 1.2 3 
	0 1 1 
	0 0.66666666666666663 1 
	0 0.33333333333333331 1 
	0 0 1 
	0.001 
	spline forward { exactsur full nurbs 3 1 both open open none none 3 2 
	0 3 0.50000000000000189 2 1 3 
	0 1 1.0025610471929978 1 
	-205.34382022471914 2.7999999999999998 -1.2 1 
	-206.21685393258431 2.381120979521361 -1.2000000000000004 1 
	-207.08988764044946 1.9639093949818633 -1.3733489052211845 1 
	-208.83595505617981 1.3733489052211838 -1.9639093949818649 1 
	-209.70898876404496 1.2 -2.381120979521361 1 
	-210.58202247191014 1.2 -2.7999999999999998 1 
	-205.34382022471914 2.7999999999999998 0.0030732566315975871 1 
	-206.21685393258431 2.0661571374576799 0.0030732566315968446 1 
	-207.08988764044946 1.3352354905954553 -0.30062029355081982 1 
	-208.83595505617981 0.30062029355081815 -1.3352354905954584 1 
	-209.70898876404496 -0.0030732566315977965 -2.0661571374576799 1 
	-210.58202247191014 -0.0030732566315975871 -2.7999999999999998 1 
	0 
	0 
	0 
	1 0.50000000000000189 
	0 
	0 
	0 
	F 1 F 0 F 1 F 0 } I I I I 
	} 0 0 #
straight-curve $-1 -205.34382022471914 2.7999999999999936 0 0 0 -1 I I #
face $-1 $119 $120 $2 $-1 $121 forward single #
loop $-1 $-1 $122 $58 #
plane-surface $-1 0 0.59999999999999998 -22.5 0 0 1 -1 0 0 forward_v I I I I #
coedge $-1 $123 $124 $125 $126 forward $59 $-1 #
coedge $-1 $95 $61 $127 $128 reversed $36 $129 #
coedge $-1 $124 $123 $61 $93 reversed $59 $-1 #
edge $-1 $112 1.4462449929051885e-029 $130 1.2 $61 $131 forward 7 unknown #
pcurve $-1 0 forward { exppc nurbs 3 open 2 
	1.4462449929051885e-029 3 1.2 3 
	1 1 1 
	1 0.66666666666666663 1 
	1 0.33333333333333331 1 
	1 0 1 
	0.001 
	spline forward { ref 0 } I I I I 
	} 0 0 #
coedge $-1 $77 $91 $62 $96 reversed $36 $132 #
edge $-1 $50 0 $133 1.2 $95 $134 forward 7 unknown #
coedge $-1 $68 $63 $65 $99 reversed $69 $-1 #
straight-curve $-1 215.99999999999997 95 -1.2 -0.98986495402907404 -0.14201187550701208 0 I I #
edge $-1 $133 -1.2105070538072167e-014 $66 98.091599347772288 $97 $135 forward 7 unknown #
point $-1 216 95 -1.2 #
coedge $-1 $127 $115 $68 $102 reversed $136 $-1 #
edge $-1 $133 0 $70 387.86066232998218 $68 $137 forward 7 unknown #
face $-1 $138 $69 $2 $-1 $139 reversed single #
point $-1 -205.34382022471908 2.7999999999999985 -1.2 #
coedge $-1 $140 $141 $74 $106 forward $120 $-1 #
edge $-1 $112 0 $109 391.95491720875219 $105 $142 forward 7 unknown #
coedge $-1 $75 $83 $143 $144 reversed $84 $145 #
pcurve $-1 0 forward { exppc nurbs 3 open 5 
	-1.0000000000000002 3 -0.74998440627141782 1 -0.50000000000000044 1 -0.25001559372858362 1 0 3 
	1 1 1 
	0.91661987743180073 1.0017074712987077 1 
	0.74990568332774465 1.0042684652533034 1 
	0.50000000000000067 0.99786590049592538 1.0000000000000002 
	0.25009431667226401 1.0042684652533034 1 
	0.083380122568202805 1.0017074712987082 0.99999999999999989 
	0 1 1 
	0.001 
	spline forward { ref 3 } I I I I 
	} 0 0 #
vertex $-1 $106 $146 #
intcurve-curve $-1 forward { surfintcur full nurbs 3 open 5 
	0 3 0.25002994249895016 1 0.50000000000000022 1 0.74997005750105195 1 1.0000000000000002 3 
	-205.34382022471914 2.7999999999999958 0 1 
	-205.78055712271026 2.4149800355921185 -0.0056634579604500357 1 
	-206.65378251643321 1.7072826908732339 -0.14441690318024092 0.99999999999999956 
	-207.96292134831461 0.76723295326884944 -0.76723295326886476 1.0000000000000004 
	-209.27206018019618 0.1444169031802274 -1.7072826908732688 0.99999999999999989 
	-210.14528557391904 0.0056634579604456226 -2.4149800355921376 1 
	-210.58202247191014 0 -2.7999999999999998 1 
	0.001 
	cone 216 2.7999999999999998 -2.7999999999999998 -1 0 0 0 -2.7999999999999998 0 1 I I 0 1 2.7999999999999998 forward I I I I 
	spline forward { ref 3 } I I I I 
	nullbs 
	nurbs 3 open 5 
	0 3 0.25001559372858362 1 0.50000000000000044 1 0.74998440627141782 1 1.0000000000000002 3 
	0 1 1 
	0.083380122568202805 1.0017074712987082 0.99999999999999989 
	0.25009431667226401 1.0042684652533034 1 
	0.50000000000000067 0.99786590049592538 1.0000000000000002 
	0.74990568332774465 1.0042684652533034 1 
	0.91661987743180073 1.0017074712987077 1 
	1 1 1 
	
	I I 
	0 
	0 
	0 
	} I I #
pcurve $-1 0 forward { exppc nurbs 3 open 6 
	0 3 0.20001984419798668 1 0.3999256163726595 1 0.60007438362734045 1 0.79998015580201287 1 
	0.99999999999999989 3 
	0 1 1 
	0.066797713481685839 1.0013961254182344 1 
	0.2003356370267996 1.003266704580875 1 
	0.39913762589689877 1.0005945085189043 0.99999999999999989 
	0.60086237410310184 1.0005945085189041 1 
	0.79966436297319599 1.003266704580875 1 
	0.93320228651831216 1.0013961254182346 1 
	1 1 1 
	0.001 
	spline forward { ref 0 } I I I I 
	} 0 0 #
tvertex-vertex $-1 $106 $147 5.9423384513132155e-014 #
intcurve-curve $-1 forward { exactcur full nurbs 3 open 6 
	0 3 0.20003343609748039 1 0.39996321404050394 1 0.60003678595949628 1 0.79996656390251941 1 
	0.99999999999999989 3 
	182.51684210526309 2.7999999999999963 -6.6335254340785854e-030 1 
	182.43813905758637 2.4974038382266728 -3.5447728508144298e-016 1 
	182.28764987972102 1.9233069254056459 -0.092413350494828891 1 
	182.06033026224736 1.1272059493478319 -0.49658391210791131 0.99999999999999989 
	181.82940657985782 0.4965839121079092 -1.1272059493478399 1 
	181.60208696238408 0.092413350494834123 -1.9233069254056283 0.99999999999999989 
	181.45159778451878 1.1102230246251565e-016 -2.4974038382266617 1 
	181.37289473684206 1.1102230246251565e-016 -2.7999999999999998 1 
	0 
	null_surface 
	null_surface 
	nullbs 
	nullbs 
	I I 
	0 
	0 
	4 0.20003343609748039 0.39996321404050394 0.60003678595949628 0.79996656390251941 
	F 1 F 0 } I I #
cone-surface $-1 216 2.7999999999999998 -2.7999999999999998 -1 0 0 0 -2.7999999999999998 0 1 I I 0 1 2.7999999999999998 forward I I I I #
coedge $-1 $101 $148 $83 $116 reversed $136 $-1 #
edge $-1 $70 0 $149 1 $115 $150 forward 7 unknown #
pcurve $-1 0 forward { exppc nurbs 3 open 4 
	0 3 0.33331966791811229 1 0.66668033208188882 1 1 3 
	0 0 1 
	0.11107184197778656 0.00057609954549150153 1 
	0.33325418002817336 0.0013442952568343484 1 
	0.66674581997183047 0.0013442952568346884 1 
	0.88892815802221525 0.00057609954549164963 1 
	1 0 1 
	0.001 
	spline forward { ref 3 } I I I I 
	} 0 0 #
face $-1 $151 $84 $2 $-1 $152 forward single #
face $-1 $118 $153 $2 $-1 $154 forward single #
loop $-1 $155 $140 $87 #
plane-surface $-1 216 0 0 0 -1 0 0 0 -1 forward_v I I I I #
coedge $-1 $156 $125 $157 $158 forward $88 $-1 #
coedge $-1 $92 $90 $159 $160 reversed $59 $-1 #
coedge $-1 $90 $92 $141 $161 forward $59 $-1 #
coedge $-1 $122 $162 $90 $126 reversed $88 $-1 #
edge $-1 $163 -4.2072581611787298e-029 $164 1.2 $90 $165 forward 7 unknown #
coedge $-1 $148 $101 $91 $128 forward $136 $-1 #
edge $-1 $133 0 $130 1.0000000000000002 $91 $166 forward 7 unknown #
pcurve $-1 0 forward { exppc nurbs 3 open 5 
	-1.0000000000000002 3 -0.74995926660175583 1 -0.5 1 -0.25004073339824417 1 0 3 
	1 0 1 
	0.91654444411730107 0.00097579749449865441 1 
	0.74975364958773827 0.0024391758076643135 1 
	0.50000000000000022 -0.0012193891919931091 0.99999999999999978 
	0.25024635041226084 0.002439175807664611 1.0000000000000002 
	0.083455555882698457 0.00097579749449879297 1 
	0 0 1 
	0.001 
	spline forward { ref 0 } I I I I 
	} 0 0 #
vertex $-1 $128 $167 #
straight-curve $-1 181.372894736842 0 -2.8000000000000096 0 1 1.4802973661668755e-015 I I #
pcurve $-1 0 forward { exppc nurbs 3 open 2 
	-1.2 3 0 3 
	0 0 1 
	0 0.33333333333333331 1 
	0 0.66666666666666663 1 
	0 1 1 
	0.001 
	spline forward { ref 0 } I I I I 
	} 0 0 #
vertex $-1 $96 $168 #
straight-curve $-1 182.51684210526309 2.8000000000000185 0 0 0 -1 I I #
straight-curve $-1 182.51684210526309 2.8000000000000114 -1.2 0.3413458248960371 0.93993777869923067 0 I I #
loop $-1 $-1 $101 $151 #
straight-curve $-1 182.51684210526309 2.7999999999999972 -1.2 -1 0 0 I I #
face $-1 $169 $170 $2 $-1 $171 reversed single #
plane-surface $-1 216 95 -1.2 0 0 1 0 -1 0 forward_v I I I I #
coedge $-1 $172 $105 $173 $174 forward $120 $-1 #
coedge $-1 $105 $157 $124 $161 reversed $120 $-1 #
straight-curve $-1 181.37289473684206 0 -2.7999999999999998 -1 0 0 I I #
coedge $-1 $175 $173 $107 $144 forward $153 $-1 #
edge $-1 $109 0 $149 1.2 $107 $176 forward 7 unknown #
pcurve $-1 0 forward { exppc nurbs 3 open 2 
	-1.2 3 0 3 
	1 0 1 
	1 0.33333333333333331 1 
	1 0.66666666666666663 1 
	1 1 1 
	0.001 
	spline forward { ref 3 } I I I I 
	} 0 0 #
point $-1 -210.58202247191014 0 -2.7999999999999998 #
point $-1 181.37289473684206 0 -2.7999999999999998 #
coedge $-1 $115 $127 $177 $178 forward $136 $-1 #
vertex $-1 $116 $179 #
intcurve-curve $-1 forward { surfintcur full nurbs 3 open 4 
	0 3 0.33333176048079916 1 0.66666823951920096 1 1 3 
	-205.34382022471908 2.7999999999999985 -1.2 1 
	-205.92560531199251 2.4972458381789813 -1.2098349189860902 0.99999999999999989 
	-207.0893526608582 1.9739059601467579 -1.3426121208019881 1.0000000000000004 
	-208.83649003577094 1.3426121208019828 -1.9739059601467726 0.99999999999999978 
	-210.00023738463673 1.2098349189860875 -2.4972458381789879 1 
	-210.58202247191008 1.2 -2.7999999999999998 1 
	0.001 
	cone 216 2.7999999999999998 -2.7999999999999998 -1 0 0 0 -1.5999999999999999 0 1 I I 0 1 1.5999999999999999 forward I I I I 
	spline forward { ref 3 } I I I I 
	nullbs 
	nurbs 3 open 4 
	0 3 0.33331966791811229 1 0.66668033208188882 1 1 3 
	0 0 1 
	0.11107184197778656 0.00057609954549150153 1 
	0.33325418002817336 0.0013442952568343484 1 
	0.66674581997183047 0.0013442952568346884 1 
	0.88892815802221525 0.00057609954549164963 1 
	1 0 1 
	
	I I 
	0 
	0 
	0 
	} I I #
face $-1 $103 $136 $2 $-1 $180 reversed single #
spline-surface $-1 forward { ref 3 } I I I I #
loop $-1 $-1 $143 $119 #
plane-surface $-1 -213.29101123595507 0.59999999999999998 -4.4290540540540384 -0.51534703352428257 0 0.85698158383813705 -0.85698158383813705 0 -0.51534703352428257 forward_v I I I I #
loop $-1 $181 $182 $87 #
coedge $-1 $162 $122 $183 $184 forward $88 $-1 #
coedge $-1 $141 $172 $122 $158 reversed $120 $-1 #
edge $-1 $163 0 $185 390.21868421052625 $157 $186 forward 7 unknown #
coedge $-1 $187 $177 $123 $160 forward $170 $-1 #
edge $-1 $130 -2.524709085726411e-014 $164 20.958834133960025 $123 $188 forward 7 unknown #
edge $-1 $112 -2.524709085726411e-014 $163 20.958834133960014 $141 $189 forward 7 unknown #
coedge $-1 $125 $156 $187 $190 reversed $88 $-1 #
vertex $-1 $161 $191 #
vertex $-1 $160 $192 #
straight-curve $-1 174.21868421052622 0 -22.500000000000007 0 1 -5.9211894646675018e-015 I I #
intcurve-curve $-1 forward { surfintcur full nurbs 3 open 5 
	0 3 0.25006939708302733 1 0.5 1 0.74993060291697189 1 1.0000000000000002 3 
	182.51684210526309 2.7999999999999985 -1.2 1 
	182.42138426346261 2.5798185023724729 -1.203292954115168 0.99999999999999989 
	182.2306093636557 2.1752564397203544 -1.2826425795413041 0.99999999999999989 
	181.94486842105258 1.6384773424508683 -1.6384773424508676 1 
	181.65912747844951 1.282642579541303 -2.1752564397203584 0.99999999999999978 
	181.46835257864257 1.2032929541151673 -2.5798185023724751 1 
	181.37289473684206 1.2 -2.7999999999999998 1 
	0.001 
	cone 216 2.7999999999999998 -2.7999999999999998 -1 0 0 0 -1.5999999999999999 0 1 I I 0 1 1.5999999999999999 forward I I I I 
	spline forward { ref 0 } I I I I 
	nullbs 
	nurbs 3 open 5 
	0 3 0.25004073339824417 1 0.5 1 0.74995926660175583 1 1.0000000000000002 3 
	0 0 1 
	0.083455555882698457 0.00097579749449879297 1 
	0.25024635041226084 0.002439175807664611 1.0000000000000002 
	0.50000000000000022 -0.0012193891919931091 0.99999999999999978 
	0.74975364958773827 0.0024391758076643135 1 
	0.91654444411730107 0.00097579749449865441 1 
	1 0 1 
	
	I I 
	0 
	0 
	0 
	} I I #
point $-1 181.37289473684206 1.2 -2.7999999999999998 #
point $-1 182.51684210526309 2.7999999999999985 -1.2 #
face $-1 $193 $194 $2 $-1 $195 forward single #
loop $-1 $196 $159 $138 #
plane-surface $-1 216 1.2 0 0 -1 0 0 0 -1 forward_v I I I I #
coedge $-1 $157 $140 $197 $198 forward $120 $-1 #
coedge $-1 $143 $199 $140 $174 reversed $153 $-1 #
edge $-1 $109 0 $200 6.322163311636797 $140 $201 forward 7 unknown #
coedge $-1 $199 $143 $202 $203 forward $153 $-1 #
straight-curve $-1 -210.58202247191014 0 -2.7999999999999998 0 1 0 I I #
coedge $-1 $159 $202 $148 $178 reversed $170 $-1 #
edge $-1 $130 0 $149 391.95491720875214 $148 $204 forward 7 unknown #
point $-1 -210.58202247191008 1.2 -2.7999999999999998 #
cone-surface $-1 216 2.7999999999999998 -2.7999999999999998 -1 0 0 0 -1.5999999999999999 0 1 I I 0 1 1.5999999999999999 forward I I I I #
loop $-1 $-1 $205 $87 #
coedge $-1 $206 $206 $207 $208 reversed $155 $-1 #
coedge $-1 $197 $209 $156 $184 reversed $194 $-1 #
edge $-1 $185 0 $210 1.2 $156 $211 forward 7 unknown #
vertex $-1 $158 $212 #
straight-curve $-1 174.21868421052622 0 -22.5 -1 0 0 I I #
coedge $-1 $213 $159 $162 $190 forward $170 $-1 #
straight-curve $-1 181.372894736842 1.2 -2.800000000000006 -0.34134582489603604 0 -0.93993777869923112 I I #
straight-curve $-1 181.372894736842 0 -2.800000000000006 -0.34134582489603604 0 -0.93993777869923112 I I #
edge $-1 $164 0 $210 390.21868421052619 $162 $214 forward 7 unknown #
point $-1 174.21868421052622 0 -22.5 #
point $-1 174.21868421052619 1.2 -22.5 #
face $-1 $215 $216 $2 $-1 $217 forward single #
loop $-1 $-1 $209 $169 #
plane-surface $-1 -216 0.59999999999999998 -12.649999999999999 -1 0 0 0 0 -1 forward_v I I I I #
loop $-1 $218 $219 $138 #
coedge $-1 $220 $183 $172 $198 reversed $194 $-1 #
edge $-1 $200 2.6645352591003757e-015 $185 16.441891891891927 $172 $221 forward 7 unknown #
coedge $-1 $173 $175 $220 $222 reversed $153 $-1 #
vertex $-1 $198 $223 #
straight-curve $-1 -210.58202247191014 0 -2.7999999999999998 -0.85698158383813716 0 -0.51534703352428257 I I #
coedge $-1 $177 $213 $175 $203 reversed $170 $-1 #
edge $-1 $149 -4.8713763126109891e-014 $224 6.322163311636797 $175 $225 forward 7 unknown #
straight-curve $-1 181.37289473684206 1.2 -2.7999999999999998 -1 0 0 I I #
coedge $-1 $226 $227 $228 $229 forward $181 $-1 #
coedge $-1 $182 $182 $230 $231 reversed $155 $-1 #
coedge $-1 $232 $233 $182 $208 forward $234 $-1 #
edge $-1 $235 0 $236 3.1415926535897931 $182 $237 forward 7 unknown #
coedge $-1 $183 $220 $213 $238 forward $194 $-1 #
vertex $-1 $190 $239 #
straight-curve $-1 -216 0 -22.5 0 1 0 I I #
point $-1 -216 0 -22.5 #
coedge $-1 $202 $187 $209 $238 reversed $170 $-1 #
straight-curve $-1 174.21868421052619 1.2 -22.5 -1 0 0 I I #
face $-1 $240 $241 $2 $-1 $242 reversed single #
loop $-1 $-1 $243 $193 #
plane-surface $-1 127 0.59999999999999998 -6.5 0 0 -1 1 0 0 forward_v I I I I #
loop $-1 $-1 $244 $138 #
coedge $-1 $245 $246 $247 $248 reversed $196 $-1 #
coedge $-1 $209 $197 $199 $222 forward $194 $-1 #
straight-curve $-1 -216 0 -6.0581081081080743 0 0 -1 I I #
edge $-1 $200 0 $224 1.2 $220 $249 forward 7 unknown #
point $-1 -216 0 -6.058108108108077 #
vertex $-1 $222 $250 #
straight-curve $-1 -210.58202247191014 1.2 -2.7999999999999998 -0.85698158383813716 0 -0.51534703352428257 I I #
coedge $-1 $251 $205 $252 $253 reversed $181 $-1 #
coedge $-1 $205 $251 $254 $255 reversed $181 $-1 #
coedge $-1 $256 $257 $205 $229 reversed $258 $-1 #
edge $-1 $259 0 $260 11 $205 $261 forward 7 unknown #
coedge $-1 $262 $263 $206 $231 forward $264 $-1 #
edge $-1 $236 0 $235 3.1415926535897931 $206 $265 forward 7 unknown #
coedge $-1 $266 $207 $263 $267 forward $234 $-1 #
coedge $-1 $207 $266 $262 $268 reversed $234 $-1 #
loop $-1 $-1 $232 $269 #
vertex $-1 $231 $270 #
vertex $-1 $231 $271 #
ellipse-curve $-1 -108 0 -11 0 -1 0 4.5 0 0 1 I I #
edge $-1 $224 -4.4408920985006262e-015 $210 16.44189189189192 $209 $272 forward 7 unknown #
point $-1 -216 1.2 -22.5 #
face $-1 $273 $258 $2 $-1 $274 forward single #
loop $-1 $-1 $275 $215 #
cone-surface $-1 121.5 0.59999999999999998 -11 0 -1 0 0 0 4.5 1 I I 0 1 4.5 forward I I I I #
coedge $-1 $247 $276 $277 $278 forward $216 $-1 #
coedge $-1 $279 $279 $266 $280 forward $218 $-1 #
coedge $-1 $281 $219 $282 $283 forward $196 $-1 #
coedge $-1 $219 $281 $284 $285 forward $196 $-1 #
coedge $-1 $286 $243 $219 $248 forward $216 $-1 #
edge $-1 $287 0 $288 11 $219 $289 forward 7 unknown #
straight-curve $-1 -216 0 -6.058108108108077 0 1 0 I I #
point $-1 -216 1.2 -6.058108108108077 #
coedge $-1 $227 $226 $276 $290 forward $181 $-1 #
coedge $-1 $275 $277 $226 $253 forward $241 $-1 #
edge $-1 $291 0 $260 3.1415926535897931 $226 $292 forward 7 unknown #
coedge $-1 $293 $294 $227 $255 forward $295 $-1 #
edge $-1 $259 0 $296 3.1415926535897931 $227 $297 forward 7 unknown #
coedge $-1 $298 $228 $294 $299 forward $258 $-1 #
coedge $-1 $228 $298 $275 $300 reversed $258 $-1 #
loop $-1 $-1 $256 $240 #
vertex $-1 $255 $301 #
vertex $-1 $253 $302 #
straight-curve $-1 132.5 0 -15.5 -1 0 0 I I #
coedge $-1 $303 $230 $233 $268 forward $264 $-1 #
coedge $-1 $230 $303 $232 $267 reversed $264 $-1 #
loop $-1 $-1 $262 $304 #
ellipse-curve $-1 -108 0 -11 0 -1 0 -4.5 0 0 1 I I #
coedge $-1 $233 $232 $244 $280 reversed $234 $-1 #
edge $-1 $236 0 $305 1.2 $263 $306 forward 7 unknown #
edge $-1 $235 0 $307 1.2 $262 $308 forward 7 unknown #
face $-1 $304 $234 $2 $-1 $309 reversed single #
point $-1 -103.5 0 -11 #
point $-1 -112.5 0 -11 #
straight-curve $-1 -216 1.2 -6.0581081081080814 0 0 -1 I I #
face $-1 $269 $295 $2 $-1 $310 reversed single #
plane-surface $-1 127 0.59999999999999998 -15.5 0 0 1 -1 0 0 forward_v I I I I #
coedge $-1 $282 $252 $257 $300 forward $241 $-1 #
coedge $-1 $243 $286 $251 $290 reversed $216 $-1 #
coedge $-1 $252 $282 $243 $278 reversed $241 $-1 #
edge $-1 $291 0 $287 1.2 $243 $311 forward 7 unknown #
coedge $-1 $244 $244 $303 $312 forward $218 $-1 #
edge $-1 $307 0 $305 3.1415926535897931 $244 $313 forward 7 unknown #
coedge $-1 $246 $245 $298 $314 reversed $196 $-1 #
coedge $-1 $277 $275 $245 $283 reversed $241 $-1 #
edge $-1 $287 0 $315 3.1415926535897931 $245 $316 forward 7 unknown #
coedge $-1 $294 $293 $246 $285 reversed $295 $-1 #
edge $-1 $317 0 $288 3.1415926535897931 $246 $318 forward 7 unknown #
coedge $-1 $276 $247 $293 $319 reversed $216 $-1 #
vertex $-1 $283 $320 #
vertex $-1 $285 $321 #
straight-curve $-1 121.5 1.2 -6.5 1 0 0 I I #
edge $-1 $291 0 $296 11 $251 $322 forward 7 unknown #
vertex $-1 $290 $323 #
ellipse-curve $-1 121.5 0 -11 0 -1 0 0 0 4.5 1 I I #
coedge $-1 $284 $254 $286 $319 forward $295 $-1 #
coedge $-1 $254 $284 $256 $299 reversed $295 $-1 #
loop $-1 $-1 $293 $273 #
vertex $-1 $255 $324 #
ellipse-curve $-1 132.5 0 -11 0 -1 0 0 0 -4.5 1 I I #
coedge $-1 $257 $256 $281 $314 forward $258 $-1 #
edge $-1 $259 0 $317 1.2 $294 $325 forward 7 unknown #
edge $-1 $260 0 $315 1.2 $275 $326 forward 7 unknown #
point $-1 132.5 0 -15.5 #
point $-1 121.5 0 -15.5 #
coedge $-1 $263 $262 $279 $312 reversed $264 $-1 #
face $-1 $80 $264 $2 $-1 $327 reversed single #
vertex $-1 $312 $328 #
straight-curve $-1 -112.5 0 -10.999999999999984 0 1 0 I I #
vertex $-1 $312 $329 #
straight-curve $-1 -103.5 0 -11.000000000000016 0 1 0 I I #
cone-surface $-1 -108 0.59999999999999998 -11 0 -1 0 4.5 0 -1.5987211554602254e-014 1 I I 0 1 4.5 forward I I I I #
cone-surface $-1 132.5 0.59999999999999998 -11 0 -1 0 0 0 -4.5 1 I I 0 1 4.5 forward I I I I #
straight-curve $-1 121.5 0 -6.5 0 1 0 I I #
edge $-1 $305 0 $307 3.1415926535897931 $279 $330 forward 7 unknown #
ellipse-curve $-1 -108 1.2 -11 0 -1 0 4.5 0 0 1 I I #
edge $-1 $317 0 $315 11 $281 $331 forward 7 unknown #
vertex $-1 $314 $332 #
ellipse-curve $-1 121.5 1.2 -11 0 -1 0 0 0 4.5 1 I I #
vertex $-1 $285 $333 #
ellipse-curve $-1 132.5 1.2 -11 0 -1 0 0 0 -4.5 1 I I #
edge $-1 $296 0 $288 1.2 $293 $334 forward 7 unknown #
point $-1 121.5 1.2 -6.5 #
point $-1 132.5 1.2 -6.5 #
straight-curve $-1 121.5 0 -6.5 1 0 0 I I #
point $-1 121.5 0 -6.5 #
point $-1 132.5 0 -6.5 #
straight-curve $-1 132.5 0 -15.5 0 1 0 I I #
straight-curve $-1 121.5 0 -15.5 0 1 0 I I #
cone-surface $-1 -108 0.59999999999999998 -11 0 -1 0 -4.5 0 1.5987211554602254e-014 1 I I 0 1 4.5 forward I I I I #
point $-1 -112.5 1.2 -11 #
point $-1 -103.5 1.2 -11 #
ellipse-curve $-1 -108 1.2 -11 0 -1 0 -4.5 0 0 1 I I #
straight-curve $-1 132.5 1.2 -15.5 -1 0 0 I I #
point $-1 121.5 1.2 -15.5 #
point $-1 132.5 1.2 -15.5 #
straight-curve $-1 132.5 0 -6.5 0 1 0 I I #
End-of-ACIS-data 