600 0 1 0           
100 GICL ACIS Healer - Source: /gicl/data5/repository/PTC/V20/NC_Training_Rel20/DXF/part_9.prt.sat - 6 0 18 ACIS 6.0.3 Solaris 24 Sat Apr 13 20:52:20 2002 
1 9.999999999999999547e-07 1.000000000000000036e-10 
body $-1 $1 $-1 $-1 #
lump $-1 $-1 $2 $0 #
shell $-1 $-1 $-1 $3 $-1 $1 #
face $-1 $4 $5 $2 $-1 $6 forward single #
face $-1 $7 $8 $2 $-1 $9 forward single #
loop $-1 $10 $11 $3 #
plane-surface $-1 -0.7619999999999976792 -0.7619999999999994555 0 0 1 0 -1 0 0 forward_v I I I I #
face $-1 $12 $13 $2 $-1 $14 reversed single #
loop $-1 $-1 $15 $4 #
plane-surface $-1 -11.93799999999999883 -1.14299999999999935 12.69999999999999929 -1 0 0 0 0 1 forward_v I I I I #
loop $-1 $16 $17 $3 #
coedge $-1 $18 $19 $20 $21 forward $5 $-1 #
face $-1 $22 $23 $2 $-1 $24 forward single #
loop $-1 $25 $26 $7 #
plane-surface $-1 -0.7619999999999976792 -1.523999999999999355 0 0 1 0 -1 0 0 forward_v I I I I #
coedge $-1 $27 $28 $29 $30 forward $8 $-1 #
loop $-1 $-1 $31 $3 #
coedge $-1 $32 $32 $33 $34 forward $10 $-1 #
coedge $-1 $35 $11 $36 $37 forward $5 $-1 #
coedge $-1 $11 $38 $39 $40 forward $5 $-1 #
coedge $-1 $28 $27 $11 $21 reversed $8 $-1 #
edge $-1 $41 -8.881784197001252323e-16 $42 19.05000000000000426 $11 $43 forward 7 unknown #
face $-1 $44 $45 $2 $-1 $46 forward single #
loop $-1 $-1 $47 $12 #
plane-surface $-1 -6.349999999999999645 -1.14299999999999935 0 0 0 -1 -1 0 0 forward_v I I I I #
loop $-1 $48 $49 $7 #
coedge $-1 $50 $51 $52 $53 reversed $13 $-1 #
coedge $-1 $20 $15 $54 $55 forward $8 $-1 #
coedge $-1 $15 $20 $56 $57 reversed $8 $-1 #
coedge $-1 $51 $58 $15 $30 reversed $13 $-1 #
edge $-1 $59 -8.881784197001252323e-16 $60 19.04999999999999716 $15 $61 forward 7 unknown #
coedge $-1 $62 $62 $63 $64 reversed $16 $-1 #
coedge $-1 $17 $17 $65 $66 forward $10 $-1 #
coedge $-1 $67 $68 $17 $34 reversed $69 $-1 #
edge $-1 $70 0 $71 3.141592653589793116 $17 $72 forward 7 unknown #
coedge $-1 $73 $18 $74 $75 reversed $5 $-1 #
coedge $-1 $54 $76 $18 $37 reversed $77 $-1 #
edge $-1 $42 0 $78 1.570796326794892117 $18 $79 forward 7 unknown #
coedge $-1 $19 $73 $47 $80 forward $5 $-1 #
coedge $-1 $81 $56 $19 $40 reversed $82 $-1 #
edge $-1 $83 0 $41 1.570796326794895226 $19 $84 forward 7 unknown #
vertex $-1 $40 $85 #
vertex $-1 $37 $86 #
straight-curve $-1 -11.93799999999999883 -0.7619999999999994555 3.175000000000000711 0 0 1 I I #
face $-1 $87 $88 $2 $-1 $89 forward single #
loop $-1 $-1 $90 $22 #
plane-surface $-1 0.04622305089622513741 -0.8082230508962227056 0 0 0 -1 0 -1 0 forward_v I I I I #
coedge $-1 $91 $92 $38 $80 reversed $23 $-1 #
loop $-1 $-1 $93 $7 #
coedge $-1 $94 $94 $95 $96 reversed $25 $-1 #
coedge $-1 $97 $26 $98 $99 forward $13 $-1 #
coedge $-1 $26 $29 $100 $101 forward $13 $-1 #
coedge $-1 $92 $91 $26 $53 forward $23 $-1 #
edge $-1 $102 -1.998401444325281773e-15 $103 8.000999999999999446 $52 $104 forward 7 unknown #
coedge $-1 $105 $36 $27 $55 reversed $77 $-1 #
edge $-1 $60 0 $42 0.7619999999999997886 $27 $106 forward 7 unknown #
coedge $-1 $39 $100 $28 $57 forward $82 $-1 #
edge $-1 $59 0 $41 0.7619999999999997886 $28 $107 forward 7 unknown #
coedge $-1 $29 $97 $105 $108 forward $13 $-1 #
vertex $-1 $57 $109 #
vertex $-1 $55 $110 #
straight-curve $-1 -11.93799999999999883 -1.523999999999999355 3.175000000000000711 0 0 1 I I #
coedge $-1 $31 $31 $111 $112 reversed $16 $-1 #
coedge $-1 $113 $114 $31 $64 forward $115 $-1 #
edge $-1 $116 0 $117 3.141592653589793116 $31 $118 forward 7 unknown #
coedge $-1 $119 $120 $32 $66 reversed $121 $-1 #
edge $-1 $71 0 $70 3.141592653589793116 $32 $122 forward 7 unknown #
coedge $-1 $95 $33 $120 $123 forward $69 $-1 #
coedge $-1 $33 $95 $119 $124 reversed $69 $-1 #
loop $-1 $-1 $67 $125 #
vertex $-1 $66 $126 #
vertex $-1 $66 $127 #
ellipse-curve $-1 -6.857999999999999652 -0.7619999999999994555 19.04999999999999716 0 -1 0 -2.222499999999999254 0 0 1 I I #
coedge $-1 $38 $35 $128 $129 reversed $5 $-1 #
coedge $-1 $130 $131 $35 $75 forward $132 $-1 #
edge $-1 $133 -1.332267629550187849e-15 $78 8.000999999999999446 $35 $134 forward 7 unknown #
coedge $-1 $36 $105 $130 $135 forward $77 $-1 #
loop $-1 $-1 $105 $136 #
vertex $-1 $75 $137 #
ellipse-curve $-1 -8.762999999999994571 -0.7619999999999994555 22.22499999999999432 -3.496765431890251841e-17 1 1.173827374623611603e-31 -3.175000000000004263 -1.11022302462515654e-16 1.065814103640150279e-14 1 I I #
edge $-1 $138 -1.332267629550187849e-15 $83 8.000999999999999446 $38 $139 forward 7 unknown #
coedge $-1 $100 $39 $92 $140 reversed $82 $-1 #
loop $-1 $-1 $100 $141 #
vertex $-1 $40 $142 #
ellipse-curve $-1 -8.762999999999996348 -0.7619999999999994555 3.175000000000002487 -1.95637895770602171e-32 1 -3.496765431890254307e-17 -1.776356839400250465e-15 -1.11022302462515654e-16 -3.175000000000002487 1 I I #
point $-1 -11.93799999999999883 -0.7619999999999995666 3.174999999999999822 #
point $-1 -11.93799999999999883 -0.7619999999999995666 22.22500000000000497 #
face $-1 $143 $144 $2 $-1 $145 forward single #
loop $-1 $-1 $146 $44 #
plane-surface $-1 5.641946801017708957 -1.142999999999993355 0 0 0 -1 -1 0 0 forward_v I I I I #
coedge $-1 $147 $148 $149 $150 forward $45 $-1 #
coedge $-1 $52 $47 $151 $152 forward $23 $-1 #
coedge $-1 $47 $52 $81 $140 forward $23 $-1 #
coedge $-1 $153 $153 $154 $155 forward $48 $-1 #
coedge $-1 $49 $49 $156 $157 reversed $25 $-1 #
coedge $-1 $68 $67 $49 $96 forward $69 $-1 #
edge $-1 $158 0 $159 3.141592653589793116 $49 $160 forward 7 unknown #
coedge $-1 $58 $50 $161 $162 forward $13 $-1 #
coedge $-1 $163 $164 $50 $99 reversed $165 $-1 #
edge $-1 $102 0 $166 25.39999999999999858 $50 $167 forward 7 unknown #
coedge $-1 $56 $81 $51 $101 reversed $82 $-1 #
edge $-1 $59 0 $103 1.570796326794895004 $51 $168 forward 7 unknown #
vertex $-1 $53 $169 #
vertex $-1 $140 $170 #
straight-curve $-1 -0.7619999999999986784 -1.523999999999999355 0 -1 0 0 I I #
coedge $-1 $76 $54 $58 $108 reversed $77 $-1 #
straight-curve $-1 -11.93799999999999883 -1.523999999999999355 22.22499999999999787 0 1 9.32470781837402003e-15 I I #
straight-curve $-1 -11.93799999999999883 -1.523999999999999355 3.175000000000000711 0 1 0 I I #
edge $-1 $171 0 $60 1.570796326794898334 $58 $172 forward 7 unknown #
point $-1 -11.93799999999999883 -1.523999999999999355 3.174999999999999822 #
point $-1 -11.93799999999999883 -1.523999999999999355 22.22499999999999787 #
coedge $-1 $173 $174 $62 $112 forward $175 $-1 #
edge $-1 $117 0 $116 3.141592653589793116 $62 $176 forward 7 unknown #
coedge $-1 $154 $63 $174 $177 forward $115 $-1 #
coedge $-1 $63 $154 $173 $178 reversed $115 $-1 #
loop $-1 $-1 $113 $179 #
vertex $-1 $112 $180 #
vertex $-1 $112 $181 #
ellipse-curve $-1 -6.857999999999999652 -0.7619999999999994555 6.349999999999999645 0 1 0 -2.222499999999999254 0 0 1 I I #
coedge $-1 $156 $65 $68 $124 forward $121 $-1 #
coedge $-1 $65 $156 $67 $123 reversed $121 $-1 #
loop $-1 $-1 $119 $182 #
ellipse-curve $-1 -6.857999999999999652 -0.7619999999999994555 19.04999999999999716 0 -1 0 2.222499999999999254 0 0 1 I I #
edge $-1 $70 0 $158 0.7619999999999998996 $120 $183 forward 7 unknown #
edge $-1 $71 0 $159 0.7619999999999998996 $119 $184 forward 7 unknown #
face $-1 $182 $69 $2 $-1 $185 reversed single #
point $-1 -9.080499999999998906 -0.7619999999999994555 19.04999999999999716 #
point $-1 -4.635500000000000398 -0.7619999999999994555 19.04999999999999716 #
coedge $-1 $186 $187 $73 $129 forward $188 $-1 #
edge $-1 $138 0 $133 25.39999999999999858 $73 $189 forward 7 unknown #
coedge $-1 $161 $74 $76 $135 reversed $132 $-1 #
coedge $-1 $74 $161 $190 $191 reversed $132 $-1 #
loop $-1 $-1 $161 $192 #
vertex $-1 $129 $193 #
straight-curve $-1 -0.7619999999999986784 -0.7619999999999994555 25.39999999999999858 -1 0 0 I I #
edge $-1 $171 0 $78 0.7619999999999997886 $130 $194 forward 7 unknown #
face $-1 $195 $77 $2 $-1 $196 forward single #
point $-1 -8.762999999999998124 -0.7619999999999995666 25.39999999999999858 #
vertex $-1 $80 $197 #
straight-curve $-1 -0.7619999999999986784 -0.7619999999999994555 0 -1 0 0 I I #
edge $-1 $103 0 $83 0.7619999999999995666 $92 $198 forward 7 unknown #
face $-1 $125 $82 $2 $-1 $199 forward single #
point $-1 -8.762999999999998124 -0.7619999999999995666 0 #
face $-1 $200 $201 $2 $-1 $202 forward single #
loop $-1 $-1 $203 $87 #
plane-surface $-1 11.27616985191393617 -1.477776949103767556 0 0 0 -1 0 1 0 forward_v I I I I #
coedge $-1 $204 $205 $206 $207 forward $88 $-1 #
coedge $-1 $151 $90 $163 $208 forward $45 $-1 #
coedge $-1 $90 $151 $187 $209 reversed $45 $-1 #
coedge $-1 $205 $204 $90 $150 reversed $88 $-1 #
edge $-1 $210 0 $211 0.7620000000000000107 $90 $212 forward 7 unknown #
coedge $-1 $148 $147 $91 $152 reversed $45 $-1 #
edge $-1 $138 0 $102 0.7620000000000001217 $91 $213 forward 7 unknown #
coedge $-1 $93 $93 $214 $215 forward $48 $-1 #
coedge $-1 $114 $113 $93 $155 reversed $115 $-1 #
edge $-1 $216 0 $217 3.141592653589796225 $93 $218 forward 7 unknown #
coedge $-1 $120 $119 $94 $157 forward $121 $-1 #
edge $-1 $159 0 $158 3.141592653589793116 $94 $219 forward 7 unknown #
vertex $-1 $157 $220 #
vertex $-1 $157 $221 #
ellipse-curve $-1 -6.857999999999999652 -1.523999999999999355 19.04999999999999716 0 -1 0 -2.222499999999999254 0 0 1 I I #
coedge $-1 $131 $130 $97 $162 reversed $132 $-1 #
edge $-1 $166 0 $171 8.000999999999999446 $161 $222 forward 7 unknown #
coedge $-1 $223 $98 $147 $208 reversed $165 $-1 #
coedge $-1 $98 $223 $224 $225 forward $165 $-1 #
loop $-1 $-1 $223 $195 #
vertex $-1 $191 $226 #
straight-curve $-1 -0.7619999999999976792 -1.523999999999999577 0 0 0 1 I I #
ellipse-curve $-1 -8.762999999999996348 -1.523999999999999355 3.175000000000003375 0 -1 0 -3.175000000000002487 0 -3.552713678800500929e-15 1 I I #
point $-1 -0.76199999999999668 -1.523999999999998911 0 #
point $-1 -8.762999999999998124 -1.523999999999999133 0 #
vertex $-1 $135 $227 #
ellipse-curve $-1 -8.762999999999999901 -1.523999999999999355 22.22500000000000142 0 -1 0 1.776356839400250465e-15 0 3.174999999999997158 1 I I #
coedge $-1 $214 $111 $114 $178 forward $175 $-1 #
coedge $-1 $111 $214 $113 $177 reversed $175 $-1 #
loop $-1 $-1 $173 $228 #
ellipse-curve $-1 -6.857999999999999652 -0.7619999999999994555 6.349999999999999645 0 1 0 2.222499999999999254 0 0 1 I I #
edge $-1 $117 0 $217 0.7619999999999998996 $174 $229 forward 7 unknown #
edge $-1 $116 0 $216 0.7619999999999998996 $173 $230 forward 7 unknown #
face $-1 $228 $115 $2 $-1 $231 reversed single #
point $-1 -9.080499999999998906 -0.7619999999999994555 6.349999999999999645 #
point $-1 -4.635500000000000398 -0.7619999999999994555 6.349999999999999645 #
face $-1 $179 $121 $2 $-1 $232 reversed single #
straight-curve $-1 -9.080499999999998906 -0.7619999999999994555 19.04999999999999716 0 -1 0 I I #
straight-curve $-1 -4.635500000000000398 -0.7619999999999994555 19.04999999999999716 0 -1 0 I I #
cone-surface $-1 -6.857999999999999652 -0.7619999999999994555 19.04999999999999716 0 -1 0 2.222499999999999698 0 0 1 I I 0 1 2.222499999999999698 forward I I I I #
coedge $-1 $233 $128 $234 $235 reversed $188 $-1 #
coedge $-1 $128 $233 $148 $209 forward $188 $-1 #
loop $-1 $-1 $128 $236 #
straight-curve $-1 -0.7619999999999976792 -0.7619999999999994555 0 0 0 1 I I #
coedge $-1 $224 $234 $131 $191 forward $237 $-1 #
edge $-1 $133 -6.661338147750939243e-16 $166 0.7619999999999998996 $131 $238 forward 7 unknown #
face $-1 $136 $132 $2 $-1 $239 reversed single #
point $-1 -0.7619999999999973461 -0.7619999999999987894 25.39999999999999858 #
straight-curve $-1 -8.762999999999998124 -1.523999999999999355 25.39999999999999858 0 1 0 I I #
face $-1 $240 $165 $2 $-1 $241 forward single #
cone-surface $-1 -8.762999999999998124 -1.586286829612767235 22.22499999999999787 0 1 0 0 0 3.174999999999999822 1 I I 0 1 3.174999999999999822 forward I I I I #
point $-1 -0.7619999999999973461 -0.7619999999999987894 0 #
straight-curve $-1 -8.762999999999998124 -1.523999999999999133 0 0 1 0 I I #
cone-surface $-1 -8.762999999999998124 -1.586286829612767235 3.174999999999999822 0 1 0 -3.174999999999999822 0 0 1 I I 0 1 3.174999999999999822 forward I I I I #
face $-1 $242 $243 $2 $-1 $244 forward single #
loop $-1 $-1 $245 $143 #
plane-surface $-1 17.0496936020354255 -1.142999999999982919 0 0 0 -1 -1 -1.262489304633841787e-15 0 forward_v I I I I #
coedge $-1 $246 $247 $248 $249 forward $144 $-1 #
coedge $-1 $149 $146 $250 $251 forward $88 $-1 #
coedge $-1 $146 $149 $252 $253 reversed $88 $-1 #
coedge $-1 $247 $246 $146 $207 reversed $144 $-1 #
edge $-1 $254 3.885780586188047891e-15 $255 0.7620000000000038964 $146 $256 forward 7 unknown #
edge $-1 $211 6.661338147750878106e-16 $102 1.577946801017708456 $147 $257 forward 7 unknown #
edge $-1 $210 -5.858539544613573717e-30 $138 1.577946801017708456 $187 $258 forward 7 unknown #
vertex $-1 $209 $259 #
vertex $-1 $208 $260 #
straight-curve $-1 0.8159468010177111097 -0.7619999999999933493 0 0 -1 0 I I #
straight-curve $-1 -0.761999999999996902 -0.7619999999999987894 0 0 -1 0 I I #
coedge $-1 $174 $173 $153 $215 reversed $175 $-1 #
edge $-1 $217 0 $216 3.141592653589792228 $153 $261 forward 7 unknown #
vertex $-1 $215 $262 #
vertex $-1 $215 $263 #
ellipse-curve $-1 -6.857999999999999652 -1.523999999999999355 6.350000000000003197 0 1 0 -2.222499999999999254 0 -3.552713678800500929e-15 1 I I #
ellipse-curve $-1 -6.857999999999999652 -1.523999999999999355 19.04999999999999716 0 -1 0 2.222499999999999254 0 0 1 I I #
point $-1 -9.080499999999998906 -1.523999999999999355 19.04999999999999716 #
point $-1 -4.635500000000000398 -1.523999999999999355 19.04999999999999716 #
straight-curve $-1 -0.7619999999999986784 -1.523999999999999355 25.39999999999999858 -1 0 0 I I #
coedge $-1 $164 $163 $264 $265 forward $165 $-1 #
coedge $-1 $266 $190 $164 $225 reversed $237 $-1 #
edge $-1 $267 -1.11022302462515654e-15 $166 1.577946801017710454 $224 $268 forward 7 unknown #
point $-1 -0.7619999999999986784 -1.523999999999999355 25.39999999999999858 #
point $-1 -8.762999999999998124 -1.523999999999999355 25.39999999999999858 #
face $-1 $-1 $175 $2 $-1 $269 reversed single #
straight-curve $-1 -4.635500000000000398 -0.7619999999999994555 6.349999999999999645 0 -1 0 I I #
straight-curve $-1 -9.080499999999998906 -0.7619999999999994555 6.349999999999999645 0 -1 0 I I #
cone-surface $-1 -6.857999999999999652 -0.7619999999999994555 6.349999999999999645 0 1 0 2.222499999999999698 0 0 1 I I 0 1 2.222499999999999698 forward I I I I #
cone-surface $-1 -6.857999999999999652 -0.7619999999999994555 19.04999999999999716 0 -1 0 2.222499999999999698 0 0 1 I I 0 1 2.222499999999999698 forward I I I I #
coedge $-1 $187 $186 $270 $271 reversed $188 $-1 #
coedge $-1 $190 $266 $186 $235 forward $237 $-1 #
edge $-1 $272 -5.858539544613573717e-30 $133 1.577946801017708456 $186 $273 forward 7 unknown #
face $-1 $274 $188 $2 $-1 $275 reversed single #
loop $-1 $-1 $190 $274 #
straight-curve $-1 -0.7619999999999986784 -0.7619999999999994555 25.39999999999999858 0 -1 0 I I #
plane-surface $-1 -6.349999999999999645 -1.14299999999999935 25.39999999999999858 0 0 -1 -1 0 0 forward_v I I I I #
face $-1 $276 $277 $2 $-1 $278 reversed single #
plane-surface $-1 -0.7619999999999960139 -1.523999999999999577 0 1.776356839400250465e-15 -1 0 1 1.776356839400250465e-15 0 forward_v I I I I #
face $-1 $279 $280 $2 $-1 $281 forward single #
loop $-1 $-1 $282 $200 #
plane-surface $-1 22.86171665293164779 -1.477776949103750681 0 0 0 -1 -1.972492438012574783e-15 1 0 forward_v I I I I #
coedge $-1 $283 $284 $285 $286 forward $201 $-1 #
coedge $-1 $206 $203 $287 $288 forward $144 $-1 #
coedge $-1 $203 $206 $289 $290 reversed $144 $-1 #
coedge $-1 $284 $283 $203 $249 reversed $201 $-1 #
edge $-1 $291 0 $292 0.7620000000000004547 $203 $293 forward 7 unknown #
coedge $-1 $294 $264 $204 $251 reversed $277 $-1 #
edge $-1 $255 0 $211 9.651999999999995694 $204 $295 forward 7 unknown #
coedge $-1 $270 $296 $205 $253 forward $297 $-1 #
edge $-1 $254 0 $210 9.651999999999995694 $252 $298 forward 7 unknown #
vertex $-1 $253 $299 #
vertex $-1 $251 $300 #
straight-curve $-1 10.4679468010177068 -0.7619999999999894635 0 0 -1 0 I I #
straight-curve $-1 0.8159468010177117758 -1.523999999999996691 0 -1 -1.829326478030619331e-15 0 I I #
straight-curve $-1 0.8159468010177111097 -0.76199999999999668 0 -1 -1.75896776733713382e-15 0 I I #
point $-1 0.8159468010177111097 -0.7619999999999933493 0 #
point $-1 0.8159468010177111097 -1.52399999999999336 0 #
ellipse-curve $-1 -6.857999999999999652 -1.523999999999999355 6.350000000000000533 0 1 0 2.222499999999999254 0 -8.881784197001252323e-16 1 I I #
point $-1 -9.080499999999998906 -1.523999999999999355 6.349999999999999645 #
point $-1 -4.635500000000000398 -1.523999999999999355 6.349999999999999645 #
coedge $-1 $250 $301 $223 $265 reversed $277 $-1 #
edge $-1 $211 0 $267 25.39999999999999858 $223 $302 forward 7 unknown #
coedge $-1 $234 $224 $303 $304 reversed $237 $-1 #
vertex $-1 $304 $305 #
straight-curve $-1 0.8159468010177117758 -1.523999999999996691 25.39999999999999858 -1 -1.829326478030619331e-15 0 I I #
cone-surface $-1 -6.857999999999999652 -0.7619999999999994555 6.349999999999999645 0 1 0 2.222499999999999698 0 0 1 I I 0 1 2.222499999999999698 forward I I I I #
coedge $-1 $306 $252 $233 $271 forward $297 $-1 #
edge $-1 $210 0 $272 25.39999999999999858 $233 $307 forward 7 unknown #
vertex $-1 $271 $308 #
straight-curve $-1 0.8159468010177111097 -0.76199999999999668 25.39999999999999858 -1 -1.75896776733713382e-15 0 I I #
face $-1 $192 $237 $2 $-1 $309 reversed single #
plane-surface $-1 -0.7619999999999973461 -0.7619999999999994555 0 1.776356839400250465e-15 -1 0 1 1.776356839400250465e-15 0 forward_v I I I I #
face $-1 $310 $311 $2 $-1 $312 reversed single #
loop $-1 $-1 $294 $240 #
plane-surface $-1 10.4679468010177068 -1.523999999999989807 0 0 1 0 -1 0 0 forward_v I I I I #
face $-1 $313 $314 $2 $-1 $315 forward single #
loop $-1 $-1 $316 $242 #
plane-surface $-1 28.4574404030531305 -1.14299999999995805 0 0 0 -1 -1 -2.77939639872840081e-15 0 forward_v I I I I #
coedge $-1 $317 $318 $319 $320 forward $243 $-1 #
coedge $-1 $248 $245 $321 $322 forward $201 $-1 #
coedge $-1 $245 $248 $323 $324 reversed $201 $-1 #
coedge $-1 $318 $317 $245 $286 reversed $243 $-1 #
edge $-1 $325 -7.771561172376095783e-16 $326 0.7619999999999996776 $245 $327 forward 7 unknown #
coedge $-1 $328 $329 $246 $288 reversed $311 $-1 #
edge $-1 $292 0 $255 1.577946801017723999 $246 $330 forward 7 unknown #
coedge $-1 $331 $332 $247 $290 forward $333 $-1 #
edge $-1 $291 0 $254 1.577946801017723999 $289 $334 forward 7 unknown #
vertex $-1 $290 $335 #
vertex $-1 $288 $336 #
straight-curve $-1 12.0458936020354308 -0.7619999999999889084 0 0 -1 0 I I #
coedge $-1 $301 $250 $329 $337 forward $277 $-1 #
straight-curve $-1 10.4679468010177068 -1.523999999999989807 0 -1 0 0 I I #
coedge $-1 $252 $306 $331 $338 reversed $297 $-1 #
loop $-1 $-1 $270 $339 #
straight-curve $-1 10.4679468010177068 -0.7619999999999900187 0 -1 0 0 I I #
point $-1 10.4679468010177068 -0.7619999999999933493 0 #
point $-1 10.4679468010177068 -1.52399999999999336 0 #
coedge $-1 $264 $294 $340 $341 forward $277 $-1 #
straight-curve $-1 0.8159468010177128861 -1.523999999999989807 0 0 0 1 I I #
coedge $-1 $340 $342 $266 $304 forward $343 $-1 #
edge $-1 $272 -3.996802888650563546e-15 $267 0.7619999999999993445 $266 $344 forward 7 unknown #
point $-1 0.8159468010177128861 -1.523999999999996691 25.39999999999999858 #
coedge $-1 $296 $270 $342 $345 reversed $297 $-1 #
straight-curve $-1 0.8159468010177111097 -0.7619999999999900187 0 0 0 1 I I #
point $-1 0.8159468010177111097 -0.7619999999999933493 25.39999999999999858 #
plane-surface $-1 0.04622305089622513741 -0.8082230508962227056 25.39999999999999858 0 0 -1 0 -1 0 forward_v I I I I #
face $-1 $346 $347 $2 $-1 $348 reversed single #
loop $-1 $-1 $328 $276 #
plane-surface $-1 10.46794680101770858 -1.523999999999989807 0 0 1 0 1 0 0 forward_v I I I I #
face $-1 $349 $350 $2 $-1 $351 forward single #
loop $-1 $-1 $352 $279 #
plane-surface $-1 34.09166345394935149 -0.8082230508961671944 0 0 0 -1 2.77939639872840081e-15 -1 0 forward_v I I I I #
coedge $-1 $353 $354 $355 $356 forward $280 $-1 #
coedge $-1 $285 $282 $357 $358 forward $243 $-1 #
coedge $-1 $282 $285 $359 $360 reversed $243 $-1 #
coedge $-1 $354 $353 $282 $320 reversed $280 $-1 #
edge $-1 $361 0 $362 0.7620000000000004547 $282 $363 forward 7 unknown #
coedge $-1 $364 $365 $283 $322 reversed $347 $-1 #
edge $-1 $326 1.123273102382132634e-30 $292 10.00759999999998939 $283 $366 forward 7 unknown #
coedge $-1 $367 $368 $284 $324 forward $369 $-1 #
edge $-1 $325 1.123273102382132634e-30 $291 10.00759999999998939 $323 $370 forward 7 unknown #
vertex $-1 $324 $371 #
vertex $-1 $322 $372 #
straight-curve $-1 22.05349360203542375 -0.7619999999999772511 0 0 -1 0 I I #
coedge $-1 $373 $287 $365 $374 forward $311 $-1 #
coedge $-1 $287 $373 $294 $337 reversed $311 $-1 #
straight-curve $-1 12.0458936020354308 -1.523999999999989807 0 -1 0 0 I I #
coedge $-1 $375 $289 $296 $338 forward $333 $-1 #
coedge $-1 $289 $375 $367 $376 reversed $333 $-1 #
loop $-1 $-1 $331 $377 #
straight-curve $-1 12.0458936020354308 -0.7619999999999900187 0 -1 0 0 I I #
point $-1 12.0458936020354308 -0.7619999999999889084 0 #
point $-1 12.0458936020354308 -1.523999999999989363 0 #
edge $-1 $255 0 $378 25.39999999999999858 $294 $379 forward 7 unknown #
edge $-1 $254 0 $380 25.39999999999999858 $296 $381 forward 7 unknown #
face $-1 $236 $297 $2 $-1 $382 forward single #
coedge $-1 $383 $303 $301 $341 reversed $343 $-1 #
edge $-1 $378 0 $267 9.651999999999993918 $340 $384 forward 7 unknown #
coedge $-1 $303 $383 $306 $345 forward $343 $-1 #
loop $-1 $-1 $303 $385 #
straight-curve $-1 0.8159468010177111097 -0.7619999999999973461 25.39999999999999858 1.165588477296752307e-15 -1 0 I I #
edge $-1 $380 0 $272 9.651999999999995694 $306 $386 forward 7 unknown #
face $-1 $387 $388 $2 $-1 $389 reversed single #
loop $-1 $-1 $364 $310 #
plane-surface $-1 22.05349360203542375 -1.52399999999997604 0 -1.262489304633841787e-15 1 0 -1 -1.262489304633841787e-15 0 forward_v I I I I #
face $-1 $390 $391 $2 $-1 $392 reversed single #
loop $-1 $-1 $393 $313 #
plane-surface $-1 40.44938720407083821 -1.142999999999886995 0 0 0 -1 -1 -8.33405896190038857e-15 0 forward_v I I I I #
coedge $-1 $394 $395 $396 $397 forward $314 $-1 #
coedge $-1 $319 $316 $398 $399 forward $280 $-1 #
coedge $-1 $316 $319 $400 $401 reversed $280 $-1 #
coedge $-1 $395 $394 $316 $356 reversed $314 $-1 #
edge $-1 $402 -1.443289932012703503e-15 $403 0.7619999999999990115 $316 $404 forward 7 unknown #
coedge $-1 $405 $406 $317 $358 reversed $388 $-1 #
edge $-1 $362 0 $326 1.577946801017713341 $317 $407 forward 7 unknown #
coedge $-1 $408 $409 $318 $360 forward $410 $-1 #
edge $-1 $361 -1.312312857993439495e-30 $325 1.577946801017713341 $359 $411 forward 7 unknown #
vertex $-1 $360 $412 #
vertex $-1 $358 $413 #
straight-curve $-1 23.63144040305313354 -0.7619999999999711449 0 0 -1 0 I I #
coedge $-1 $414 $321 $406 $415 forward $347 $-1 #
coedge $-1 $321 $414 $328 $374 reversed $347 $-1 #
straight-curve $-1 22.0534936020354202 -1.52399999999997604 0 -1 -1.264693081330868384e-15 0 I I #
coedge $-1 $416 $323 $332 $376 forward $369 $-1 #
coedge $-1 $323 $416 $408 $417 reversed $369 $-1 #
loop $-1 $-1 $367 $418 #
straight-curve $-1 22.0534936020354202 -0.7619999999999755858 0 -1 -1.264693081330868384e-15 0 I I #
point $-1 22.0534936020354202 -0.7619999999999764739 0 #
point $-1 22.0534936020354202 -1.523999999999976929 0 #
coedge $-1 $329 $328 $419 $420 forward $311 $-1 #
edge $-1 $292 0 $421 25.39999999999999858 $328 $422 forward 7 unknown #
coedge $-1 $332 $331 $423 $424 reversed $333 $-1 #
edge $-1 $291 0 $425 25.39999999999999858 $332 $426 forward 7 unknown #
face $-1 $339 $333 $2 $-1 $427 forward single #
vertex $-1 $428 $429 #
straight-curve $-1 10.4679468010177068 -1.523999999999989807 0 0 0 1 I I #
vertex $-1 $338 $430 #
straight-curve $-1 10.4679468010177068 -0.7619999999999900187 0 0 0 1 I I #
plane-surface $-1 10.4679468010177068 -0.7619999999999900187 0 0 1 0 -1 0 0 forward_v I I I I #
coedge $-1 $342 $340 $431 $428 reversed $343 $-1 #
straight-curve $-1 10.4679468010177068 -1.523999999999989807 25.39999999999999858 -1 0 0 I I #
face $-1 $432 $343 $2 $-1 $433 reversed single #
straight-curve $-1 10.4679468010177068 -0.7619999999999900187 25.39999999999999858 -1 0 0 I I #
face $-1 $434 $435 $2 $-1 $436 reversed single #
loop $-1 $-1 $405 $346 #
plane-surface $-1 22.05349360203542375 -1.523999999999974708 0 -1.972492438012574783e-15 1 0 1 1.972492438012574783e-15 0 forward_v I I I I #
face $-1 $437 $438 $2 $-1 $439 reversed single #
loop $-1 $440 $441 $349 #
plane-surface $-1 46.03738720407084628 -1.523999999999837485 0 -8.33405896190038857e-15 1 0 -1 -8.33405896190038857e-15 0 forward_v I I I I #
coedge $-1 $396 $442 $443 $444 forward $350 $-1 #
coedge $-1 $355 $352 $445 $446 forward $314 $-1 #
coedge $-1 $352 $355 $447 $448 reversed $314 $-1 #
coedge $-1 $449 $393 $352 $397 reversed $350 $-1 #
edge $-1 $450 4.773959005888173124e-15 $451 0.7620000000000050067 $352 $452 forward 7 unknown #
coedge $-1 $453 $454 $353 $399 reversed $435 $-1 #
edge $-1 $403 2.472341730515501808e-30 $362 9.651999999999993918 $353 $455 forward 7 unknown #
coedge $-1 $456 $457 $354 $401 forward $458 $-1 #
edge $-1 $402 2.472341730515501808e-30 $361 9.651999999999993918 $400 $459 forward 7 unknown #
vertex $-1 $401 $460 #
vertex $-1 $399 $461 #
straight-curve $-1 33.28344040305312745 -0.7619999999999459428 0 0 -1 0 I I #
coedge $-1 $462 $357 $454 $463 forward $388 $-1 #
coedge $-1 $357 $462 $364 $415 reversed $388 $-1 #
straight-curve $-1 23.63144040305313354 -1.5239999999999716 0 -1 -1.97004389941758838e-15 0 I I #
coedge $-1 $464 $359 $368 $417 forward $410 $-1 #
coedge $-1 $359 $464 $456 $465 reversed $410 $-1 #
loop $-1 $-1 $408 $466 #
straight-curve $-1 23.63144040305313354 -0.761999999999971811 0 -1 -1.97004389941758838e-15 0 I I #
point $-1 23.63144040305313354 -0.7619999999999711449 0 #
point $-1 23.63144040305313354 -1.5239999999999716 0 #
coedge $-1 $365 $364 $467 $468 forward $347 $-1 #
edge $-1 $326 0 $469 25.39999999999999858 $364 $470 forward 7 unknown #
coedge $-1 $368 $367 $471 $472 reversed $369 $-1 #
edge $-1 $325 0 $473 25.39999999999999858 $368 $474 forward 7 unknown #
face $-1 $377 $369 $2 $-1 $475 forward single #
coedge $-1 $476 $431 $373 $420 reversed $477 $-1 #
edge $-1 $421 0 $378 1.577946801017723999 $419 $478 forward 7 unknown #
vertex $-1 $479 $480 #
straight-curve $-1 12.0458936020354308 -1.523999999999988697 0 0 0 1 I I #
coedge $-1 $431 $476 $375 $424 forward $477 $-1 #
edge $-1 $425 0 $380 1.577946801017723999 $375 $481 forward 7 unknown #
vertex $-1 $376 $482 #
straight-curve $-1 12.04589360203542903 -0.7619999999999882423 0 0 0 1 I I #
plane-surface $-1 10.4679468010177068 -0.7619999999999900187 0 0 1 0 1 0 0 forward_v I I I I #
edge $-1 $380 0 $378 0.7620000000000000107 $383 $483 forward 7 unknown #
point $-1 10.4679468010177068 -1.52399999999999336 25.39999999999999858 #
point $-1 10.4679468010177068 -0.7619999999999933493 25.39999999999999858 #
coedge $-1 $419 $423 $383 $428 forward $477 $-1 #
face $-1 $484 $485 $2 $-1 $486 reversed single #
plane-surface $-1 5.641946801017708957 -1.142999999999993355 25.39999999999999858 0 0 -1 -1 0 0 forward_v I I I I #
face $-1 $487 $488 $2 $-1 $489 forward single #
loop $-1 $-1 $453 $387 #
plane-surface $-1 33.28344040305313456 -1.523999999999944066 0 -2.77939639872840081e-15 1 0 -1 -2.77939639872840081e-15 0 forward_v I I I I #
face $-1 $490 $491 $2 $-1 $492 forward single #
loop $-1 $-1 $493 $390 #
plane-surface $-1 40.44938720407083821 -1.142999999999886995 25.39999999999999858 0 0 -1 -1 -8.33405896190038857e-15 0 forward_v I I I I #
loop $-1 $-1 $494 $349 #
coedge $-1 $495 $496 $497 $498 forward $391 $-1 #
coedge $-1 $393 $449 $499 $500 reversed $350 $-1 #
coedge $-1 $501 $495 $393 $444 reversed $391 $-1 #
edge $-1 $502 3.697323327807514901e-30 $451 8.000999999999997669 $393 $503 forward 7 unknown #
coedge $-1 $504 $505 $394 $446 reversed $488 $-1 #
edge $-1 $451 2.87459006989037838e-30 $403 1.577946801017716894 $394 $506 forward 7 unknown #
coedge $-1 $507 $508 $395 $448 forward $509 $-1 #
edge $-1 $450 1.796618793681494501e-30 $402 1.577946801017709788 $447 $510 forward 7 unknown #
coedge $-1 $442 $396 $511 $512 reversed $350 $-1 #
vertex $-1 $448 $513 #
vertex $-1 $446 $514 #
straight-curve $-1 34.86138720407083724 -0.7619999999999337303 0 0 -1 0 I I #
coedge $-1 $515 $398 $505 $516 forward $435 $-1 #
coedge $-1 $398 $515 $405 $463 reversed $435 $-1 #
straight-curve $-1 33.28344040305312745 -1.523999999999944066 0 -1 -2.783609324070535296e-15 0 I I #
coedge $-1 $517 $400 $409 $465 forward $458 $-1 #
coedge $-1 $400 $517 $507 $518 reversed $458 $-1 #
loop $-1 $-1 $456 $519 #
straight-curve $-1 33.28344040305312745 -0.7619999999999436113 0 -1 -2.783609324070535296e-15 0 I I #
point $-1 33.28344040305312745 -0.7619999999999444995 0 #
point $-1 33.28344040305312745 -1.523999999999944954 0 #
coedge $-1 $406 $405 $520 $521 forward $388 $-1 #
edge $-1 $362 0 $522 25.39999999999999858 $405 $523 forward 7 unknown #
coedge $-1 $409 $408 $524 $525 reversed $410 $-1 #
edge $-1 $361 0 $526 25.39999999999999858 $409 $527 forward 7 unknown #
face $-1 $418 $410 $2 $-1 $528 forward single #
coedge $-1 $529 $530 $414 $468 reversed $531 $-1 #
edge $-1 $469 1.123273102382132634e-30 $421 10.00759999999998939 $467 $532 forward 7 unknown #
vertex $-1 $533 $534 #
straight-curve $-1 22.05349360203542375 -1.523999999999974708 0 0 0 1 I I #
coedge $-1 $530 $529 $416 $472 forward $531 $-1 #
edge $-1 $473 1.123273102382132634e-30 $425 10.00759999999998939 $416 $535 forward 7 unknown #
vertex $-1 $417 $536 #
straight-curve $-1 22.05349360203542375 -0.7619999999999749196 0 0 0 1 I I #
plane-surface $-1 22.05349360203542375 -0.7619999999999755858 0 -1.262489304633841787e-15 1 0 -1 -1.262489304633841787e-15 0 forward_v I I I I #
coedge $-1 $423 $419 $530 $479 reversed $477 $-1 #
loop $-1 $-1 $431 $537 #
straight-curve $-1 12.0458936020354308 -1.523999999999989807 25.39999999999999858 -1 0 0 I I #
edge $-1 $425 -2.664535259100375697e-15 $421 0.7619999999999982343 $476 $538 forward 7 unknown #
point $-1 12.0458936020354308 -1.523999999999989807 25.39999999999999858 #
straight-curve $-1 12.0458936020354308 -0.7619999999999900187 25.39999999999999858 -1 0 0 I I #
point $-1 12.0458936020354308 -0.7619999999999889084 25.39999999999999858 #
straight-curve $-1 10.4679468010177068 -0.7619999999999933493 25.39999999999999858 0 -1 0 I I #
face $-1 $141 $539 $2 $-1 $540 reversed single #
loop $-1 $-1 $541 $432 #
cone-surface $-1 40.95738720407084088 -0.7619999999998796625 12.69999999999999929 8.33405896190038857e-15 -1 0 2.222499999999999698 1.852244604282361183e-14 0 1 I I 0 1 2.222499999999999698 forward I I I I #
face $-1 $542 $543 $2 $-1 $544 reversed single #
loop $-1 $-1 $504 $434 #
plane-surface $-1 33.28344040305313456 -1.523999999999942956 0 3.223485608578463426e-15 -1 0 1 3.223485608578463426e-15 0 forward_v I I I I #
face $-1 $545 $546 $2 $-1 $547 reversed single #
loop $-1 $548 $549 $437 #
plane-surface $-1 46.03738720407083207 -0.7619999999998370299 0 -8.33405896190038857e-15 1 0 -1 -8.33405896190038857e-15 0 forward_v I I I I #
coedge $-1 $550 $551 $552 $553 forward $438 $-1 #
coedge $-1 $554 $554 $555 $556 reversed $440 $-1 #
coedge $-1 $443 $441 $504 $557 reversed $391 $-1 #
coedge $-1 $441 $558 $559 $560 forward $391 $-1 #
coedge $-1 $551 $550 $441 $498 reversed $438 $-1 #
edge $-1 $561 -7.105427357600997914e-15 $562 8.001000000000004775 $497 $563 forward 7 unknown #
coedge $-1 $564 $565 $442 $500 forward $566 $-1 #
edge $-1 $502 -2.220446049250313081e-16 $567 0.7619999999999995666 $442 $568 forward 7 unknown #
coedge $-1 $558 $443 $565 $569 forward $391 $-1 #
vertex $-1 $500 $570 #
straight-curve $-1 42.86238720407084202 -1.523999999999863908 0 -1 -8.325631980691083171e-15 0 I I #
coedge $-1 $571 $445 $495 $557 forward $488 $-1 #
coedge $-1 $445 $571 $453 $516 reversed $488 $-1 #
straight-curve $-1 34.86138720407084435 -1.523999999999937849 0 -1 -3.236500691900309032e-15 0 I I #
coedge $-1 $572 $447 $457 $518 forward $509 $-1 #
coedge $-1 $447 $572 $573 $574 reversed $509 $-1 #
loop $-1 $-1 $507 $575 #
straight-curve $-1 34.86138720407083724 -0.7619999999999379492 0 -1 -3.236500691900323626e-15 0 I I #
coedge $-1 $573 $576 $449 $512 forward $491 $-1 #
edge $-1 $567 7.105427357601011325e-15 $450 8.001000000000004775 $511 $577 forward 7 unknown #
point $-1 34.86138720407083724 -0.7619999999999385043 0 #
point $-1 34.86138720407084435 -1.523999999999938737 0 #
coedge $-1 $454 $453 $578 $579 forward $435 $-1 #
edge $-1 $403 0 $580 25.39999999999999858 $453 $581 forward 7 unknown #
coedge $-1 $457 $456 $582 $583 reversed $458 $-1 #
edge $-1 $402 0 $584 25.39999999999999858 $457 $585 forward 7 unknown #
face $-1 $466 $458 $2 $-1 $586 forward single #
coedge $-1 $587 $588 $462 $521 reversed $589 $-1 #
edge $-1 $522 0 $469 1.577946801017713341 $520 $590 forward 7 unknown #
vertex $-1 $591 $592 #
straight-curve $-1 23.63144040305313354 -1.523999999999970933 0 0 0 1 I I #
coedge $-1 $588 $587 $464 $525 forward $589 $-1 #
edge $-1 $526 -1.312312857993439495e-30 $473 1.577946801017713341 $464 $593 forward 7 unknown #
vertex $-1 $465 $594 #
straight-curve $-1 23.63144040305312998 -0.7619999999999704787 0 0 0 1 I I #
plane-surface $-1 22.0534936020354202 -0.7619999999999749196 0 -1.972492438012574783e-15 1 0 1 1.972492438012574783e-15 0 forward_v I I I I #
coedge $-1 $471 $467 $588 $533 reversed $531 $-1 #
coedge $-1 $467 $471 $476 $479 forward $531 $-1 #
loop $-1 $-1 $530 $595 #
straight-curve $-1 22.0534936020354202 -1.52399999999997604 25.39999999999999858 -1 -1.264693081330868384e-15 0 I I #
edge $-1 $473 0 $469 0.7620000000000004547 $529 $596 forward 7 unknown #
point $-1 22.0534936020354202 -1.523999999999976929 25.39999999999999858 #
straight-curve $-1 22.0534936020354202 -0.7619999999999755858 25.39999999999999858 -1 -1.264693081330868384e-15 0 I I #
point $-1 22.0534936020354202 -0.7619999999999764739 25.39999999999999858 #
face $-1 $385 $477 $2 $-1 $597 reversed single #
straight-curve $-1 12.0458936020354308 -0.761999999999991573 25.39999999999999858 0 -1 0 I I #
loop $-1 $-1 $598 $484 #
cone-surface $-1 40.95738720407084088 -0.7619999999998796625 12.69999999999999929 8.33405896190038857e-15 -1 0 2.222499999999999698 1.852244604282361183e-14 0 1 I I 0 1 2.222499999999999698 forward I I I I #
coedge $-1 $555 $599 $600 $601 forward $485 $-1 #
face $-1 $602 $603 $2 $-1 $604 reversed single #
loop $-1 $-1 $605 $487 #
plane-surface $-1 34.09166345394935149 -0.8082230508961671944 25.39999999999999858 0 0 -1 2.77939639872840081e-15 -1 0 forward_v I I I I #
face $-1 $606 $566 $2 $-1 $607 forward single #
loop $-1 $-1 $608 $490 #
plane-surface $-1 46.03738720407083918 -1.142999999999837257 12.69999999999999929 -1 -8.33405896190038857e-15 0 0 0 1 forward_v I I I I #
loop $-1 $-1 $609 $437 #
coedge $-1 $576 $610 $611 $612 reversed $491 $-1 #
coedge $-1 $497 $493 $613 $614 forward $438 $-1 #
coedge $-1 $493 $497 $615 $616 forward $438 $-1 #
coedge $-1 $610 $573 $493 $553 reversed $491 $-1 #
edge $-1 $617 9.258713833384652258e-30 $618 8.001000000000004775 $552 $619 forward 7 unknown #
coedge $-1 $494 $494 $620 $621 reversed $440 $-1 #
coedge $-1 $622 $541 $494 $556 forward $485 $-1 #
edge $-1 $623 0 $624 3.141592653589786899 $494 $625 forward 7 unknown #
edge $-1 $451 0 $562 25.39999999999999858 $504 $626 forward 7 unknown #
coedge $-1 $496 $501 $608 $627 forward $391 $-1 #
coedge $-1 $628 $615 $496 $560 reversed $629 $-1 #
edge $-1 $630 0 $561 1.570796326794904552 $496 $631 forward 7 unknown #
vertex $-1 $616 $632 #
vertex $-1 $614 $633 #
straight-curve $-1 42.86238720407084202 -1.523999999999863908 25.39999999999999858 -1 -8.325631980691083171e-15 0 I I #
coedge $-1 $634 $499 $576 $635 reversed $566 $-1 #
coedge $-1 $499 $634 $501 $569 reversed $566 $-1 #
loop $-1 $-1 $565 $545 #
vertex $-1 $512 $636 #
straight-curve $-1 42.86238720407084202 -1.52399999999986413 0 -9.324707818374021608e-15 1 0 I I #
edge $-1 $502 0 $637 1.570796326794897668 $501 $638 forward 7 unknown #
point $-1 42.86238720407084202 -1.523999999999864352 0 #
coedge $-1 $505 $504 $639 $640 forward $488 $-1 #
coedge $-1 $508 $507 $641 $642 reversed $509 $-1 #
coedge $-1 $552 $511 $508 $574 forward $491 $-1 #
edge $-1 $450 0 $618 25.39999999999999858 $508 $643 forward 7 unknown #
face $-1 $519 $509 $2 $-1 $644 reversed single #
coedge $-1 $511 $549 $564 $635 forward $491 $-1 #
straight-curve $-1 42.86238720407084202 -0.7619999999998634532 0 -1 -8.339508033992234984e-15 0 I I #
coedge $-1 $645 $646 $515 $579 reversed $603 $-1 #
edge $-1 $580 2.472341730515501808e-30 $522 9.651999999999993918 $578 $647 forward 7 unknown #
vertex $-1 $648 $649 #
straight-curve $-1 33.28344040305313456 -1.523999999999942956 0 0 0 1 I I #
coedge $-1 $646 $645 $517 $583 forward $603 $-1 #
edge $-1 $584 2.472341730515501808e-30 $526 9.651999999999993918 $517 $650 forward 7 unknown #
vertex $-1 $518 $651 #
straight-curve $-1 33.28344040305312745 -0.7619999999999430562 0 0 0 1 I I #
plane-surface $-1 33.28344040305312745 -0.7619999999999436113 0 -2.77939639872840081e-15 1 0 -1 -2.77939639872840081e-15 0 forward_v I I I I #
coedge $-1 $524 $520 $646 $591 reversed $589 $-1 #
coedge $-1 $520 $524 $529 $533 forward $589 $-1 #
loop $-1 $-1 $588 $602 #
straight-curve $-1 23.63144040305313354 -1.5239999999999716 25.39999999999999858 -1 -1.97004389941758838e-15 0 I I #
edge $-1 $526 5.551115123125782702e-16 $522 0.7620000000000010099 $587 $652 forward 7 unknown #
point $-1 23.63144040305313354 -1.5239999999999716 25.39999999999999858 #
straight-curve $-1 23.63144040305313354 -0.761999999999971811 25.39999999999999858 -1 -1.97004389941758838e-15 0 I I #
point $-1 23.63144040305313354 -0.7619999999999711449 25.39999999999999858 #
face $-1 $537 $531 $2 $-1 $653 reversed single #
straight-curve $-1 22.0534936020354202 -0.7619999999999764739 25.39999999999999858 0 -1 0 I I #
plane-surface $-1 11.27616985191393617 -1.477776949103767556 25.39999999999999858 0 0 -1 0 1 0 forward_v I I I I #
coedge $-1 $620 $654 $622 $655 forward $539 $-1 #
coedge $-1 $541 $622 $609 $656 reversed $485 $-1 #
coedge $-1 $654 $620 $541 $601 reversed $539 $-1 #
edge $-1 $657 -3.330669073876794908e-16 $623 0.7620000000000001217 $600 $658 forward 7 unknown #
face $-1 $595 $589 $2 $-1 $659 reversed single #
loop $-1 $-1 $646 $542 #
plane-surface $-1 28.4574404030531305 -1.14299999999995805 25.39999999999999858 0 0 -1 -1 -2.77939639872840081e-15 0 forward_v I I I I #
coedge $-1 $639 $641 $645 $648 forward $543 $-1 #
face $-1 $575 $629 $2 $-1 $660 forward single #
cone-surface $-1 42.86238720407084202 -1.586286829612632232 3.174999999999999822 -8.33405896190038857e-15 1 0 0 0 -3.174999999999999822 1 I I 0 1 3.174999999999999822 forward I I I I #
coedge $-1 $661 $662 $558 $627 reversed $546 $-1 #
coedge $-1 $663 $663 $599 $656 forward $548 $-1 #
coedge $-1 $549 $552 $664 $665 forward $491 $-1 #
coedge $-1 $662 $661 $549 $612 forward $546 $-1 #
edge $-1 $666 -4.440892098500626162e-16 $667 19.04999999999999716 $549 $668 forward 7 unknown #
coedge $-1 $641 $639 $550 $614 reversed $543 $-1 #
edge $-1 $618 0 $562 0.7619999999999951257 $613 $669 forward 7 unknown #
coedge $-1 $559 $664 $551 $616 reversed $629 $-1 #
edge $-1 $561 -2.220446049250313081e-16 $617 0.7619999999999995666 $551 $670 forward 7 unknown #
vertex $-1 $665 $671 #
vertex $-1 $574 $672 #
straight-curve $-1 42.86238720407084202 -0.7619999999998634532 25.39999999999999858 -1 -8.339508033992234984e-15 0 I I #
coedge $-1 $600 $598 $554 $621 forward $539 $-1 #
edge $-1 $624 0 $623 3.141592653589786899 $554 $673 forward 7 unknown #
coedge $-1 $599 $555 $598 $655 reversed $485 $-1 #
vertex $-1 $621 $674 #
vertex $-1 $621 $675 #
ellipse-curve $-1 40.95738720407084799 -1.523999999999879895 12.70000000000000639 8.292329452768309037e-15 -1 -1.334110217351322854e-31 -2.222500000000003695 -1.842970220877759857e-14 -7.105427357601001859e-15 1 I I #
straight-curve $-1 34.86138720407084435 -1.523999999999930521 0 0 0 1 I I #
edge $-1 $637 -4.440892098500626162e-16 $630 19.04999999999999716 $608 $676 forward 7 unknown #
coedge $-1 $664 $559 $662 $677 forward $629 $-1 #
loop $-1 $-1 $559 $606 #
vertex $-1 $677 $678 #
ellipse-curve $-1 42.86238720407085623 -1.523999999999863908 22.22500000000001563 8.1824311106232448e-15 -1 8.483312461723426801e-31 3.174999999999982947 2.597921877622866305e-14 -1.776356839400250465e-14 1 I I #
point $-1 42.86238720407084912 -1.523999999999864352 25.39999999999999858 #
point $-1 34.86138720407083724 -1.52399999999993363 25.39999999999999858 #
coedge $-1 $565 $564 $661 $679 reversed $566 $-1 #
edge $-1 $666 0 $567 1.570796326794897668 $576 $680 forward 7 unknown #
point $-1 42.86238720407083491 -0.7619999999998645634 0 #
vertex $-1 $679 $681 #
ellipse-curve $-1 42.86238720407084202 -1.523999999999863908 3.174999999999997602 8.33405896190038857e-15 -1 1.398706172756103695e-16 0 -4.440892098500626162e-16 -3.174999999999997602 1 I I #
coedge $-1 $613 $605 $571 $640 reversed $543 $-1 #
edge $-1 $562 7.105427357600988448e-15 $580 1.577946801017716894 $639 $682 forward 7 unknown #
coedge $-1 $605 $613 $572 $642 forward $543 $-1 #
edge $-1 $618 1.796618793681494501e-30 $584 1.577946801017709788 $572 $683 forward 7 unknown #
straight-curve $-1 34.86138720407084435 -0.7619999999999301776 0 0 0 1 I I #
plane-surface $-1 33.28344040305312745 -0.7619999999999430562 0 3.223485608578463426e-15 -1 0 1 3.223485608578463426e-15 0 forward_v I I I I #
coedge $-1 $582 $578 $605 $648 reversed $603 $-1 #
coedge $-1 $578 $582 $587 $591 forward $603 $-1 #
straight-curve $-1 33.28344040305312745 -1.523999999999944066 25.39999999999999858 -1 -2.783609324070535296e-15 0 I I #
edge $-1 $584 0 $580 0.7620000000000004547 $645 $684 forward 7 unknown #
point $-1 33.28344040305312745 -1.523999999999944954 25.39999999999999858 #
straight-curve $-1 33.28344040305312745 -0.7619999999999436113 25.39999999999999858 -1 -2.783609324070535296e-15 0 I I #
point $-1 33.28344040305312745 -0.7619999999999444995 25.39999999999999858 #
straight-curve $-1 23.63144040305313354 -0.7619999999999705897 25.39999999999999858 0 -1 0 I I #
plane-surface $-1 17.0496936020354255 -1.142999999999982919 25.39999999999999858 0 0 -1 -1 -1.262489304633841787e-15 0 forward_v I I I I #
coedge $-1 $598 $600 $663 $685 reversed $539 $-1 #
edge $-1 $686 -2.220446049250313081e-16 $624 0.7620000000000001217 $598 $687 forward 7 unknown #
edge $-1 $657 0 $686 3.141592653589793116 $609 $688 forward 7 unknown #
vertex $-1 $685 $689 #
straight-curve $-1 38.73488720407084429 -0.7619999999998982032 12.69999999999999929 9.32470781837402003e-15 -1 0 I I #
plane-surface $-1 22.86171665293164779 -1.477776949103750681 25.39999999999999858 0 0 -1 -1.972492438012574783e-15 1 0 forward_v I I I I #
cone-surface $-1 42.86238720407084202 -1.586286829612632232 22.22499999999999787 -8.33405896190038857e-15 1 -9.325519771298711038e-30 3.174999999999999822 2.646063720403373343e-14 3.55271367880050014e-15 1 I I 0 1 3.174999999999999822 forward I I I I #
coedge $-1 $611 $608 $634 $679 forward $546 $-1 #
coedge $-1 $608 $611 $628 $677 reversed $546 $-1 #
coedge $-1 $609 $609 $654 $685 forward $548 $-1 #
coedge $-1 $615 $628 $610 $665 reversed $629 $-1 #
edge $-1 $617 0 $667 1.570796326794899 $610 $690 forward 7 unknown #
vertex $-1 $635 $691 #
vertex $-1 $665 $692 #
straight-curve $-1 46.03738720407083918 -0.7619999999998370299 3.175000000000000711 0 0 1 I I #
straight-curve $-1 34.86138720407083724 -0.7619999999999385043 25.39999999999999858 0 -1 0 I I #
straight-curve $-1 42.86238720407084912 -1.52399999999986413 25.39999999999999858 -9.324707818374021608e-15 1 0 I I #
point $-1 42.86238720407084202 -0.7619999999998645634 25.39999999999999858 #
point $-1 34.86138720407083724 -0.7619999999999385043 25.39999999999999858 #
ellipse-curve $-1 40.95738720407084799 -1.523999999999879895 12.69999999999999218 8.392237036536601461e-15 -1 1.859977876862584104e-31 2.222500000000003695 1.865174681370262988e-14 7.105427357601001859e-15 1 I I #
point $-1 38.73488720407084429 -1.523999999999898325 12.69999999999999929 #
point $-1 43.17988720407085168 -1.523999999999861243 12.69999999999999929 #
straight-curve $-1 46.03738720407083918 -1.523999999999837485 3.175000000000000711 0 0 1 I I #
edge $-1 $630 0 $667 0.7619999999999997886 $662 $693 forward 7 unknown #
point $-1 46.03738720407083918 -1.523999999999837929 22.22499999999999787 #
edge $-1 $637 0 $666 0.7619999999999997886 $661 $694 forward 7 unknown #
ellipse-curve $-1 42.86238720407083491 -0.7619999999998634532 3.174999999999997602 -7.972625184709793476e-15 1 3.033237931194248315e-31 3.174999999999997158 2.531308496145356912e-14 2.664535259100375697e-15 1 I I #
point $-1 46.03738720407083918 -1.523999999999837929 3.175000000000000266 #
straight-curve $-1 34.86138720407084435 -1.523999999999937849 25.39999999999999858 -1 -3.236500691900309032e-15 0 I I #
straight-curve $-1 34.86138720407083724 -0.7619999999999379492 25.39999999999999858 -1 -3.236500691900323626e-15 0 I I #
straight-curve $-1 33.28344040305312745 -0.7619999999999444995 25.39999999999999858 0 -1 0 I I #
edge $-1 $686 0 $657 3.141592653589793116 $663 $695 forward 7 unknown #
vertex $-1 $685 $696 #
straight-curve $-1 43.17988720407083747 -0.7619999999998611218 12.69999999999999929 9.32470781837402003e-15 -1 0 I I #
ellipse-curve $-1 40.95738720407084088 -0.7619999999998796625 12.69999999999999929 8.192421868999989792e-15 -1 0 -2.2225000000000108 -1.820765760385256726e-14 0 1 I I #
point $-1 38.73488720407083008 -0.7619999999998978701 12.69999999999999929 #
ellipse-curve $-1 42.86238720407084202 -0.7619999999998634532 22.22500000000000497 -8.33405896190038857e-15 1 3.496765431890263921e-16 0 -1.11022302462515654e-15 3.174999999999993605 1 I I #
point $-1 46.03738720407083207 -0.7619999999998381401 3.175000000000000266 #
point $-1 46.03738720407083207 -0.7619999999998381401 22.22499999999999787 #
straight-curve $-1 46.03738720407083918 -1.523999999999837929 22.22499999999999787 0 1 0 I I #
straight-curve $-1 46.03738720407083918 -1.523999999999837929 3.175000000000000711 0 1 0 I I #
ellipse-curve $-1 40.95738720407084088 -0.7619999999998796625 12.69999999999999929 8.442190828420774494e-15 -1 0 2.222499999999996589 1.876276911616514553e-14 0 1 I I #
point $-1 43.17988720407083747 -0.7619999999998608997 12.69999999999999929 #
End-of-ACIS-data 