999
DXF file: front_flat1.dxf
999
Pro/ENGINEER 9801 by Parametric Technology Corporation
0
SECTION
2
HEADER
9
$EXTMAX
10
22.0000000000
20
17.0000000000
9
$EXTMIN
10
0.0000000000
20
0.0000000000
9
$LIMMIN
10
0.0000000000
20
0.0000000000
9
$LIMMAX
10
22.0000000000
20
17.0000000000
9
$VIEWCTR
10
11.0000000000
20
8.5000000000
9
$VIEWSIZE
40
17.0000000000
9
$CLAYER
8
0
9
$LTSCALE
40
1.2100000000
9
$CELTYPE
6
BYLAYER
9
$DIMSCALE
40
1
9
$DIMASZ
40
0.1875000000
9
$DIMEXO
40
0.1375000000
9
$DIMDLI
40
0.8360000000
9
$DIMEXE
40
0.3960000000
9
$DIMCEN
40
0.1980000000
9
$DIMTXT
40
0.2486049107
0
ENDSEC
0
SECTION
2
TABLES
0
TABLE
2
LTYPE
70
6
0
LTYPE
2
CONTINUOUS
70
64
3
Solid line
72
65
73
0
40
0
0
LTYPE
2
CENTER
70
64
3
____ _ ____ _ ____ _ ____ _ ____ _ ____ _ ____
72
65
73
4
40
0.6
49
0.375
49
-0.075
49
0.075
49
-0.075
0
LTYPE
2
HIDDEN
70
64
3
- - - - - - - - - - - - - - - - - - - -
72
65
73
2
40
0.2
49
0.1
49
-0.1
0
LTYPE
2
PHANTOM
70
64
3
_____ _ _ _____ _ _ _____ _ _ _____
72
65
73
6
40
0.8
49
0.45
49
-0.05
49
0.1
49
-0.05
49
0.1
49
-0.05
0
LTYPE
2
DOT
70
64
3
. . . . . . . . . . . . . . . . . . . .
72
65
73
2
40
0.2
49
0.1
49
-0.1
0
LTYPE
2
DASHED
70
64
3
- - - - - - - - - - - - - - - - - - - -
72
65
73
2
40
0.2
49
0.1
49
-0.1
0
ENDTAB
0
TABLE
2
LAYER
70
36
0
LAYER
2
0
70
0
62
7
6
CONTINUOUS
0
LAYER
2
DEFAULT_1
70
0
62
7
6
CENTER
0
LAYER
2
DEFAULT_2
70
0
62
7
6
HIDDEN
0
LAYER
2
DEFAULT_3
70
0
62
7
6
PHANTOM
0
ENDTAB
0
ENDSEC
0
SECTION
2
BLOCKS
0
ENDSEC
0
SECTION
2
ENTITIES
0
LINE
8
0
62
3
10
-8.4155745278
20
22.0919017001
11
-8.4155745278
21
20.8919017001
0
LINE
8
0
62
3
10
-8.1388046196
20
20.3633618838
11
-8.1388046196
21
20.8651317919
0
LINE
8
0
62
3
10
-8.1388046196
20
22.1186716083
11
-8.1388046196
21
22.4954415164
0
LINE
8
0
62
3
10
-7.6288046196
20
21.7369017001
11
-7.6288046196
21
21.6169017001
0
LINE
8
0
62
3
10
-7.6288046196
20
21.2469017001
11
-7.6288046196
21
21.3669017001
0
LINE
8
0
62
3
10
-7.5988046196
20
21.3669017001
11
-7.5988046196
21
21.2469017001
0
LINE
8
0
62
3
10
-7.5988046196
20
21.6169017001
11
-7.5988046196
21
21.7369017001
0
LINE
8
0
62
3
10
-8.1388046196
20
20.8651317919
11
-8.0888046196
21
20.9169017001
0
LINE
8
0
62
3
10
-8.0888046196
20
22.0669017001
11
-8.1388046196
21
22.1186716083
0
LINE
8
0
62
3
10
-8.0888046196
20
20.9169017001
11
-8.1405745278
21
20.8919017001
0
LINE
8
0
62
3
10
-8.1405745278
20
22.0919017001
11
-8.0888046196
21
22.0669017001
0
LINE
8
0
62
3
10
-8.1388046196
20
20.3633618838
11
13.4611953804
21
20.3633618838
0
LINE
8
0
62
3
10
-8.1405745278
20
20.8919017001
11
-8.4155745278
21
20.8919017001
0
LINE
8
0
62
3
10
13.4629652885
20
20.8919017001
11
13.7379652885
21
20.8919017001
0
LINE
8
0
62
3
10
-7.5988046196
20
21.2469017001
11
-7.6288046196
21
21.2469017001
0
LINE
8
0
62
3
10
12.9211953804
20
21.2469017001
11
12.9511953804
21
21.2469017001
0
LINE
8
0
62
3
10
12.9511953804
20
21.3669017001
11
12.9211953804
21
21.3669017001
0
LINE
8
0
62
3
10
-7.6288046196
20
21.3669017001
11
-7.5988046196
21
21.3669017001
0
LINE
8
0
62
3
10
12.9511953804
20
21.6169017001
11
12.9211953804
21
21.6169017001
0
LINE
8
0
62
3
10
-7.6288046196
20
21.6169017001
11
-7.5988046196
21
21.6169017001
0
LINE
8
0
62
3
10
-7.5988046196
20
21.7369017001
11
-7.6288046196
21
21.7369017001
0
LINE
8
0
62
3
10
12.9211953804
20
21.7369017001
11
12.9511953804
21
21.7369017001
0
LINE
8
0
62
3
10
13.7379652885
20
22.0919017001
11
13.4629652885
21
22.0919017001
0
LINE
8
0
62
3
10
-8.4155745278
20
22.0919017001
11
-8.1405745278
21
22.0919017001
0
LINE
8
0
62
3
10
13.4611953804
20
22.4954415164
11
-8.1388046196
21
22.4954415164
0
LINE
8
0
62
3
10
13.4629652885
20
22.0919017001
11
13.4111953804
21
22.0669017001
0
LINE
8
0
62
3
10
13.4111953804
20
20.9169017001
11
13.4629652885
21
20.8919017001
0
LINE
8
0
62
3
10
13.4111953804
20
22.0669017001
11
13.4611953804
21
22.1186716083
0
LINE
8
0
62
3
10
13.4611953804
20
20.8651317919
11
13.4111953804
21
20.9169017001
0
LINE
8
0
62
3
10
12.9211953804
20
21.3669017001
11
12.9211953804
21
21.2469017001
0
LINE
8
0
62
3
10
12.9211953804
20
21.6169017001
11
12.9211953804
21
21.7369017001
0
LINE
8
0
62
3
10
12.9511953804
20
21.7369017001
11
12.9511953804
21
21.6169017001
0
LINE
8
0
62
3
10
12.9511953804
20
21.2469017001
11
12.9511953804
21
21.3669017001
0
LINE
8
0
62
3
10
13.4611953804
20
20.3633618838
11
13.4611953804
21
20.8651317919
0
LINE
8
0
62
3
10
13.4611953804
20
22.1186716083
11
13.4611953804
21
22.4954415164
0
LINE
8
0
62
3
10
13.7379652885
20
22.0919017001
11
13.7379652885
21
20.8919017001
0
CIRCLE
8
0
62
3
10
2.6611953804
20
21.4919017001
40
0.2500000000
0
ENDSEC
0
EOF
