600 0 1 0           
101 GICL ACIS Healer - Source: /gicl/data5/repository/PTC/V20/NC_Training_Rel20/DXF/part_16.prt.sat - 6 0 18 ACIS 6.0.3 Solaris 24 Sat Apr 13 20:50:25 2002 
1 9.999999999999999547e-07 1.000000000000000036e-10 
body $-1 $1 $-1 $-1 #
lump $-1 $-1 $2 $0 #
shell $-1 $-1 $-1 $3 $-1 $1 #
face $-1 $4 $5 $2 $-1 $6 forward single #
face $-1 $7 $8 $2 $-1 $9 forward single #
loop $-1 $10 $11 $3 #
plane-surface $-1 0 3 0 0 1 0 1 0 0 forward_v I I I I #
face $-1 $12 $13 $2 $-1 $14 forward single #
loop $-1 $-1 $15 $4 #
plane-surface $-1 -1453 1.5 6.999999999999886313 -0.7071067811865417996 0 -0.7071067811865532349 -0.7071067811865532349 0 0.7071067811865417996 forward_v I I I I #
loop $-1 $16 $17 $3 #
coedge $-1 $18 $19 $20 $21 forward $5 $-1 #
face $-1 $22 $23 $2 $-1 $24 forward single #
loop $-1 $-1 $25 $7 #
plane-surface $-1 -723 1.5 0 0 0 -1 -1 0 0 forward_v I I I I #
coedge $-1 $26 $20 $27 $28 forward $8 $-1 #
loop $-1 $29 $30 $3 #
coedge $-1 $31 $31 $32 $33 reversed $10 $-1 #
coedge $-1 $34 $11 $35 $36 forward $5 $-1 #
coedge $-1 $11 $37 $38 $39 forward $5 $-1 #
coedge $-1 $15 $40 $11 $21 reversed $8 $-1 #
edge $-1 $41 6.280369834735049391e-16 $42 19.79898987322317083 $11 $43 forward 7 unknown #
face $-1 $44 $45 $2 $-1 $46 forward single #
loop $-1 $-1 $47 $12 #
plane-surface $-1 0 1.5 123 1 0 0 0 0 -1 forward_v I I I I #
coedge $-1 $48 $38 $49 $50 forward $13 $-1 #
coedge $-1 $40 $15 $51 $52 forward $8 $-1 #
coedge $-1 $38 $48 $15 $28 reversed $13 $-1 #
edge $-1 $41 0 $53 3 $27 $54 forward 7 unknown #
loop $-1 $55 $56 $3 #
coedge $-1 $57 $57 $58 $59 forward $16 $-1 #
coedge $-1 $17 $17 $60 $61 reversed $10 $-1 #
coedge $-1 $62 $63 $17 $33 forward $64 $-1 #
edge $-1 $65 0 $66 3.141592653589793116 $17 $67 forward 7 unknown #
coedge $-1 $68 $18 $69 $70 forward $5 $-1 #
coedge $-1 $71 $72 $18 $36 reversed $73 $-1 #
edge $-1 $42 0 $74 134.0000000000002274 $18 $75 forward 7 unknown #
coedge $-1 $19 $76 $77 $78 forward $5 $-1 #
coedge $-1 $25 $27 $19 $39 reversed $13 $-1 #
edge $-1 $79 0 $41 1446 $19 $80 forward 7 unknown #
coedge $-1 $20 $26 $71 $81 reversed $8 $-1 #
vertex $-1 $39 $82 #
vertex $-1 $36 $83 #
straight-curve $-1 -1446 3 -8.881784197001252323e-16 -0.7071067811865532349 0 0.7071067811865417996 I I #
face $-1 $84 $85 $2 $-1 $86 forward single #
loop $-1 $-1 $87 $22 #
plane-surface $-1 -137.5 1.5 332 0.530276035316119998 0 0.8478250564647267229 0.8478250564647266119 0 -0.530276035316119887 forward_v I I I I #
coedge $-1 $88 $77 $89 $90 forward $23 $-1 #
coedge $-1 $27 $25 $91 $92 forward $13 $-1 #
coedge $-1 $77 $88 $25 $50 reversed $23 $-1 #
edge $-1 $79 0 $93 3 $25 $94 forward 7 unknown #
coedge $-1 $91 $95 $26 $52 reversed $96 $-1 #
edge $-1 $53 6.280369834735049391e-16 $97 19.79898987322317083 $26 $98 forward 7 unknown #
vertex $-1 $28 $99 #
straight-curve $-1 -1446 3 -8.881784197001252323e-16 0 -1 0 I I #
loop $-1 $100 $101 $3 #
coedge $-1 $102 $102 $103 $104 forward $29 $-1 #
coedge $-1 $30 $30 $105 $106 forward $16 $-1 #
coedge $-1 $107 $108 $30 $59 reversed $109 $-1 #
edge $-1 $110 0 $111 3.141592653589793116 $30 $112 forward 7 unknown #
coedge $-1 $113 $114 $31 $61 forward $115 $-1 #
edge $-1 $66 0 $65 3.141592653589793116 $31 $116 forward 7 unknown #
coedge $-1 $117 $32 $114 $118 forward $64 $-1 #
coedge $-1 $32 $117 $113 $119 reversed $64 $-1 #
loop $-1 $-1 $62 $120 #
vertex $-1 $61 $121 #
vertex $-1 $61 $122 #
ellipse-curve $-1 -232 3 174 0 1 0 -16 0 0 1 I I #
coedge $-1 $123 $34 $124 $125 forward $5 $-1 #
coedge $-1 $126 $127 $34 $70 reversed $128 $-1 #
edge $-1 $74 0 $129 1107.323622684464681 $34 $130 forward 7 unknown #
coedge $-1 $131 $35 $40 $81 forward $73 $-1 #
coedge $-1 $35 $131 $126 $132 reversed $73 $-1 #
loop $-1 $-1 $71 $133 #
vertex $-1 $70 $134 #
straight-curve $-1 -1460 3 13.99999999999977263 0 0 1 I I #
coedge $-1 $37 $135 $136 $137 forward $5 $-1 #
coedge $-1 $47 $49 $37 $78 reversed $23 $-1 #
edge $-1 $138 0 $79 246 $37 $139 forward 7 unknown #
vertex $-1 $39 $140 #
straight-curve $-1 0 3 0 -1 0 0 I I #
edge $-1 $42 0 $97 3 $71 $141 forward 7 unknown #
point $-1 -1446 3 0 #
point $-1 -1460 3 13.99999999999977263 #
face $-1 $142 $143 $2 $-1 $144 forward single #
loop $-1 $-1 $145 $44 #
plane-surface $-1 -291.5 1.5 418 0 0 1 1 0 0 forward_v I I I I #
coedge $-1 $146 $136 $147 $148 forward $45 $-1 #
coedge $-1 $49 $47 $149 $150 forward $23 $-1 #
coedge $-1 $136 $146 $47 $90 reversed $45 $-1 #
edge $-1 $138 0 $151 3 $47 $152 forward 7 unknown #
coedge $-1 $149 $51 $48 $92 reversed $96 $-1 #
edge $-1 $93 0 $53 1446 $48 $153 forward 7 unknown #
vertex $-1 $92 $154 #
straight-curve $-1 0 3 0 0 -1 0 I I #
coedge $-1 $51 $155 $131 $156 reversed $96 $-1 #
loop $-1 $157 $149 $158 #
vertex $-1 $156 $159 #
straight-curve $-1 -1446 0 -8.881784197001252323e-16 -0.7071067811865532349 0 0.7071067811865417996 I I #
point $-1 -1446 0 0 #
loop $-1 $160 $161 $3 #
coedge $-1 $162 $162 $163 $164 forward $55 $-1 #
coedge $-1 $56 $56 $165 $166 forward $29 $-1 #
coedge $-1 $167 $168 $56 $104 reversed $169 $-1 #
edge $-1 $170 0 $171 3.141592653589793116 $56 $172 forward 7 unknown #
coedge $-1 $173 $174 $57 $106 reversed $175 $-1 #
edge $-1 $111 0 $110 3.141592653589793116 $57 $176 forward 7 unknown #
coedge $-1 $177 $58 $174 $178 forward $109 $-1 #
coedge $-1 $58 $177 $173 $179 reversed $109 $-1 #
loop $-1 $-1 $107 $180 #
vertex $-1 $106 $181 #
vertex $-1 $106 $182 #
ellipse-curve $-1 -1205.5 3 106 0 -1 0 -21 0 0 1 I I #
coedge $-1 $183 $60 $63 $119 forward $115 $-1 #
coedge $-1 $60 $183 $62 $118 reversed $115 $-1 #
loop $-1 $-1 $113 $184 #
ellipse-curve $-1 -232 3 174 0 1 0 16 0 0 1 I I #
coedge $-1 $63 $62 $185 $186 reversed $64 $-1 #
edge $-1 $66 0 $187 3 $114 $188 forward 7 unknown #
edge $-1 $65 0 $189 3 $113 $190 forward 7 unknown #
face $-1 $184 $64 $2 $-1 $191 reversed single #
point $-1 -248 3 174 #
point $-1 -216 3 174 #
coedge $-1 $135 $68 $192 $193 forward $5 $-1 #
coedge $-1 $194 $195 $68 $125 reversed $196 $-1 #
edge $-1 $129 0 $197 2.520201443703440347 $68 $198 forward 7 unknown #
coedge $-1 $199 $69 $72 $132 forward $128 $-1 #
coedge $-1 $69 $199 $194 $200 reversed $128 $-1 #
loop $-1 $-1 $126 $201 #
vertex $-1 $125 $202 #
straight-curve $-1 -1460 3 148 0.9994126776876063323 0 0.03426805622279569669 I I #
coedge $-1 $72 $71 $95 $156 forward $73 $-1 #
edge $-1 $74 0 $203 3 $126 $204 forward 7 unknown #
face $-1 $158 $73 $2 $-1 $205 forward single #
point $-1 -1460 3 148 #
coedge $-1 $76 $123 $206 $207 forward $5 $-1 #
coedge $-1 $87 $89 $76 $137 reversed $45 $-1 #
edge $-1 $208 0 $138 324.3593686021724807 $76 $209 forward 7 unknown #
vertex $-1 $78 $210 #
straight-curve $-1 0 3 246 0 0 -1 I I #
point $-1 0 3 0 #
straight-curve $-1 -1460 3 13.99999999999977263 0 -1 0 I I #
face $-1 $201 $196 $2 $-1 $211 reversed single #
loop $-1 $-1 $212 $84 #
plane-surface $-1 -308 1.5 309.25 -1 0 0 0 0 1 forward_v I I I I #
coedge $-1 $213 $206 $214 $215 forward $85 $-1 #
coedge $-1 $89 $87 $216 $217 forward $45 $-1 #
coedge $-1 $206 $213 $87 $148 reversed $85 $-1 #
edge $-1 $208 0 $218 3 $87 $219 forward 7 unknown #
coedge $-1 $216 $91 $88 $150 reversed $96 $-1 #
edge $-1 $151 -2.842170943040400743e-14 $93 246 $88 $220 forward 7 unknown #
vertex $-1 $150 $221 #
straight-curve $-1 0 3 246.0000000000000284 0 -1 0 I I #
straight-curve $-1 0 0 0 -1 0 0 I I #
point $-1 0 0 0 #
coedge $-1 $95 $222 $199 $223 reversed $96 $-1 #
edge $-1 $97 0 $203 134.0000000000002274 $131 $224 forward 7 unknown #
loop $-1 $225 $185 $158 #
face $-1 $120 $96 $2 $-1 $226 reversed single #
point $-1 -1460 0 13.99999999999977263 #
loop $-1 $-1 $227 $3 #
coedge $-1 $228 $228 $229 $230 forward $100 $-1 #
coedge $-1 $101 $101 $231 $232 forward $55 $-1 #
coedge $-1 $233 $234 $101 $164 reversed $235 $-1 #
edge $-1 $236 0 $237 3.141592653589793116 $101 $238 forward 7 unknown #
coedge $-1 $239 $240 $102 $166 reversed $241 $-1 #
edge $-1 $171 0 $170 3.141592653589793116 $102 $242 forward 7 unknown #
coedge $-1 $243 $103 $240 $244 forward $169 $-1 #
coedge $-1 $103 $243 $239 $245 reversed $169 $-1 #
loop $-1 $-1 $167 $246 #
vertex $-1 $166 $247 #
vertex $-1 $166 $248 #
ellipse-curve $-1 -1205.5 3 146 0 -1 0 -2.25 0 0 1 I I #
coedge $-1 $249 $105 $108 $179 forward $175 $-1 #
coedge $-1 $105 $249 $107 $178 reversed $175 $-1 #
loop $-1 $-1 $173 $250 #
ellipse-curve $-1 -1205.5 3 106 0 -1 0 21 0 0 1 I I #
coedge $-1 $108 $107 $251 $252 forward $109 $-1 #
edge $-1 $110 0 $253 3 $174 $254 forward 7 unknown #
edge $-1 $111 0 $255 3 $173 $256 forward 7 unknown #
face $-1 $250 $109 $2 $-1 $257 reversed single #
point $-1 -1226.5 3 106 #
point $-1 -1184.5 3 106 #
coedge $-1 $114 $113 $258 $259 reversed $115 $-1 #
face $-1 $180 $115 $2 $-1 $260 reversed single #
coedge $-1 $258 $258 $117 $186 forward $157 $-1 #
edge $-1 $189 0 $187 3.141592653589793116 $117 $261 forward 7 unknown #
vertex $-1 $118 $262 #
straight-curve $-1 -216 3 174 0 -1 0 I I #
vertex $-1 $259 $263 #
straight-curve $-1 -248 3 174 0 -1 0 I I #
cone-surface $-1 -232 1.5 174 0 1 0 -16 0 0 1 I I 0 1 16 forward I I I I #
coedge $-1 $212 $214 $123 $193 reversed $143 $-1 #
edge $-1 $197 0 $264 217.5 $123 $265 forward 7 unknown #
coedge $-1 $266 $124 $127 $200 forward $196 $-1 #
coedge $-1 $124 $266 $212 $267 reversed $196 $-1 #
loop $-1 $-1 $194 $142 #
vertex $-1 $193 $268 #
ellipse-curve $-1 -332.9999999999998863 3 200.4999999999999432 0 -1 0 -20.326733186178501 0 -14.55417184101887074 1 I I #
coedge $-1 $127 $126 $155 $223 forward $128 $-1 #
edge $-1 $129 0 $269 3 $194 $270 forward 7 unknown #
face $-1 $133 $128 $2 $-1 $271 forward single #
point $-1 -353.3267331861783873 3 185.9458281589810724 #
vertex $-1 $223 $272 #
straight-curve $-1 -1460 3 148 0 -1 0 I I #
plane-surface $-1 -1460 1.5 81 -1 0 0 0 0 1 forward_v I I I I #
coedge $-1 $145 $147 $135 $207 reversed $85 $-1 #
edge $-1 $264 0 $208 33 $135 $273 forward 7 unknown #
vertex $-1 $137 $274 #
straight-curve $-1 -275 3 418 0.8478250564647267229 0 -0.530276035316119998 I I #
point $-1 0 3 246 #
cone-surface $-1 -333 1.5 200.5 0 -1 0 -20.32673318617849745 0 -14.55417184101898087 1 I I 0 1 25.00000000000000355 forward I I I I #
coedge $-1 $275 $192 $195 $267 forward $143 $-1 #
coedge $-1 $147 $145 $276 $277 forward $85 $-1 #
coedge $-1 $192 $275 $145 $215 reversed $143 $-1 #
edge $-1 $264 0 $278 3 $145 $279 forward 7 unknown #
coedge $-1 $276 $149 $146 $217 reversed $96 $-1 #
edge $-1 $218 0 $151 324.3593686021724238 $146 $280 forward 7 unknown #
vertex $-1 $217 $281 #
straight-curve $-1 -275 3 418 0 -1 0 I I #
straight-curve $-1 0 0 246 0 0 -1 I I #
point $-1 -5.684341886080801487e-14 0 246.0000000000000284 #
coedge $-1 $155 $282 $266 $283 reversed $96 $-1 #
edge $-1 $203 0 $269 1107.323622684464681 $199 $284 forward 7 unknown #
straight-curve $-1 -1460 0 13.99999999999977263 0 0 1 I I #
loop $-1 $285 $251 $158 #
plane-surface $-1 0 0 0 0 1 0 1 0 0 forward_v I I I I #
coedge $-1 $286 $286 $287 $288 forward $160 $-1 #
coedge $-1 $161 $161 $289 $290 forward $100 $-1 #
coedge $-1 $291 $292 $161 $230 reversed $293 $-1 #
edge $-1 $294 0 $295 3.141592653589793116 $161 $296 forward 7 unknown #
coedge $-1 $297 $298 $162 $232 reversed $299 $-1 #
edge $-1 $237 0 $236 3.141592653589793116 $162 $300 forward 7 unknown #
coedge $-1 $301 $163 $298 $302 forward $235 $-1 #
coedge $-1 $163 $301 $297 $303 reversed $235 $-1 #
loop $-1 $-1 $233 $304 #
vertex $-1 $232 $305 #
vertex $-1 $232 $306 #
ellipse-curve $-1 -1401 3 10 0 -1 0 -2.25 0 0 1 I I #
coedge $-1 $307 $165 $168 $245 forward $241 $-1 #
coedge $-1 $165 $307 $167 $244 reversed $241 $-1 #
loop $-1 $-1 $239 $308 #
ellipse-curve $-1 -1205.5 3 146 0 -1 0 2.25 0 0 1 I I #
coedge $-1 $168 $167 $309 $310 forward $169 $-1 #
edge $-1 $170 0 $311 3 $240 $312 forward 7 unknown #
edge $-1 $171 0 $313 3 $239 $314 forward 7 unknown #
face $-1 $308 $169 $2 $-1 $315 reversed single #
point $-1 -1207.75 3 146 #
point $-1 -1203.25 3 146 #
coedge $-1 $174 $173 $316 $317 forward $175 $-1 #
face $-1 $246 $175 $2 $-1 $318 reversed single #
coedge $-1 $316 $316 $177 $252 reversed $225 $-1 #
edge $-1 $253 0 $255 3.141592653589793116 $177 $319 forward 7 unknown #
vertex $-1 $178 $320 #
straight-curve $-1 -1226.5 3 106 0 -1 0 I I #
vertex $-1 $317 $321 #
straight-curve $-1 -1184.5 3 106 0 -1 0 I I #
cone-surface $-1 -1205.5 1.5 106 0 -1 0 -21 0 0 1 I I 0 1 21 forward I I I I #
coedge $-1 $185 $185 $183 $259 forward $157 $-1 #
edge $-1 $187 0 $189 3.141592653589793116 $183 $322 forward 7 unknown #
cone-surface $-1 -232 1.5 174 0 1 0 16 0 0 1 I I 0 1 16 forward I I I I #
ellipse-curve $-1 -232 0 174 0 1 0 -16 0 0 1 I I #
point $-1 -216 0 174 #
point $-1 -248 0 174 #
vertex $-1 $207 $323 #
straight-curve $-1 -308 3 200.5 0 0 1 I I #
coedge $-1 $195 $194 $222 $283 forward $196 $-1 #
edge $-1 $197 4.440892098500626162e-16 $324 3.000000000000000888 $212 $325 forward 7 unknown #
point $-1 -308 3 200.5 #
vertex $-1 $283 $326 #
straight-curve $-1 -353.3267331861784442 3 185.945828158981044 0 -1 0 I I #
plane-surface $-1 -906.6633665930892221 1.5 166.972914079490522 -0.03426805622279572444 0 0.9994126776876063323 0.9994126776876063323 0 0.03426805622279572444 forward_v I I I I #
point $-1 -1460 0 148 #
straight-curve $-1 -308 3 418 1 0 0 I I #
point $-1 -275 3 418 #
coedge $-1 $214 $212 $282 $327 forward $143 $-1 #
coedge $-1 $282 $216 $213 $277 reversed $96 $-1 #
edge $-1 $278 0 $218 33 $213 $328 forward 7 unknown #
vertex $-1 $277 $329 #
straight-curve $-1 -308 3 418 0 -1 0 I I #
straight-curve $-1 -275 2.220446049250313081e-16 418 0.8478250564647267229 0 -0.530276035316119998 I I #
point $-1 -275 0 418 #
coedge $-1 $222 $276 $275 $327 reversed $96 $-1 #
edge $-1 $269 0 $324 2.520201443703440347 $266 $330 forward 7 unknown #
straight-curve $-1 -1460 0 148 0.9994126776876063323 0 0.03426805622279569669 I I #
loop $-1 $331 $309 $158 #
coedge $-1 $227 $227 $332 $333 forward $160 $-1 #
coedge $-1 $334 $335 $227 $288 reversed $336 $-1 #
edge $-1 $337 0 $338 3.141592653589793116 $227 $339 forward 7 unknown #
coedge $-1 $340 $341 $228 $290 reversed $342 $-1 #
edge $-1 $295 0 $294 3.141592653589793116 $228 $343 forward 7 unknown #
coedge $-1 $344 $229 $341 $345 forward $293 $-1 #
coedge $-1 $229 $344 $340 $346 reversed $293 $-1 #
loop $-1 $-1 $291 $347 #
vertex $-1 $290 $348 #
vertex $-1 $290 $349 #
ellipse-curve $-1 -59 3 10 0 -1 0 -2.25 0 0 1 I I #
coedge $-1 $350 $231 $234 $303 forward $299 $-1 #
coedge $-1 $231 $350 $233 $302 reversed $299 $-1 #
loop $-1 $-1 $297 $351 #
ellipse-curve $-1 -1401 3 10 0 -1 0 2.25 0 0 1 I I #
coedge $-1 $234 $233 $352 $353 forward $235 $-1 #
edge $-1 $236 0 $354 3 $298 $355 forward 7 unknown #
edge $-1 $237 0 $356 3 $297 $357 forward 7 unknown #
face $-1 $351 $235 $2 $-1 $358 reversed single #
point $-1 -1403.25 3 10 #
point $-1 -1398.75 3 10 #
coedge $-1 $240 $239 $359 $360 forward $241 $-1 #
face $-1 $304 $241 $2 $-1 $361 reversed single #
coedge $-1 $359 $359 $243 $310 reversed $285 $-1 #
edge $-1 $311 0 $313 3.141592653589793116 $243 $362 forward 7 unknown #
vertex $-1 $244 $363 #
straight-curve $-1 -1207.75 3 146 0 -1 0 I I #
vertex $-1 $360 $364 #
straight-curve $-1 -1203.25 3 146 0 -1 0 I I #
cone-surface $-1 -1205.5 1.5 146 0 -1 0 -2.25 0 0 1 I I 0 1 2.25 forward I I I I #
coedge $-1 $251 $251 $249 $317 reversed $225 $-1 #
edge $-1 $255 0 $253 3.141592653589793116 $249 $365 forward 7 unknown #
cone-surface $-1 -1205.5 1.5 106 0 -1 0 21 0 0 1 I I 0 1 21 forward I I I I #
ellipse-curve $-1 -1205.5 0 106 0 -1 0 -21 0 0 1 I I #
point $-1 -1226.5 0 106 #
point $-1 -1184.5 0 106 #
ellipse-curve $-1 -232 0 174 0 1 0 16 0 0 1 I I #
point $-1 -308 3 418 #
vertex $-1 $327 $366 #
straight-curve $-1 -308 3.000000000000000444 200.5 0 -1 0 I I #
point $-1 -353.3267331861783873 0 185.9458281589810724 #
edge $-1 $324 0 $278 217.5 $275 $367 forward 7 unknown #
straight-curve $-1 -308 0 418 1 0 0 I I #
point $-1 -308 0 418 #
ellipse-curve $-1 -332.9999999999998863 0 200.4999999999999432 0 -1 0 -20.326733186178501 0 -14.55417184101887074 1 I I #
loop $-1 $368 $352 $158 #
coedge $-1 $369 $370 $286 $333 reversed $371 $-1 #
edge $-1 $338 0 $337 3.141592653589793116 $286 $372 forward 7 unknown #
coedge $-1 $373 $287 $370 $374 forward $336 $-1 #
coedge $-1 $287 $373 $369 $375 reversed $336 $-1 #
loop $-1 $-1 $334 $376 #
vertex $-1 $333 $377 #
vertex $-1 $333 $378 #
ellipse-curve $-1 -222.5 3 342.5 0 -1 0 -2.25 0 0 1 I I #
coedge $-1 $379 $289 $292 $346 forward $342 $-1 #
coedge $-1 $289 $379 $291 $345 reversed $342 $-1 #
loop $-1 $-1 $340 $380 #
ellipse-curve $-1 -59 3 10 0 -1 0 2.25 0 0 1 I I #
coedge $-1 $292 $291 $381 $382 forward $293 $-1 #
edge $-1 $294 0 $383 3 $341 $384 forward 7 unknown #
edge $-1 $295 0 $385 3 $340 $386 forward 7 unknown #
face $-1 $380 $293 $2 $-1 $387 reversed single #
point $-1 -61.25 3 10 #
point $-1 -56.75 3 10 #
coedge $-1 $298 $297 $388 $389 forward $299 $-1 #
face $-1 $347 $299 $2 $-1 $390 reversed single #
coedge $-1 $388 $388 $301 $353 reversed $331 $-1 #
edge $-1 $354 0 $356 3.141592653589793116 $301 $391 forward 7 unknown #
vertex $-1 $302 $392 #
straight-curve $-1 -1403.25 3 10 0 -1 0 I I #
vertex $-1 $389 $393 #
straight-curve $-1 -1398.75 3 10 0 -1 0 I I #
cone-surface $-1 -1401 1.5 10 0 -1 0 -2.25 0 0 1 I I 0 1 2.25 forward I I I I #
coedge $-1 $309 $309 $307 $360 reversed $285 $-1 #
edge $-1 $313 0 $311 3.141592653589793116 $307 $394 forward 7 unknown #
cone-surface $-1 -1205.5 1.5 146 0 -1 0 2.25 0 0 1 I I 0 1 2.25 forward I I I I #
ellipse-curve $-1 -1205.5 0 146 0 -1 0 -2.25 0 0 1 I I #
point $-1 -1207.75 0 146 #
point $-1 -1203.25 0 146 #
ellipse-curve $-1 -1205.5 0 106 0 -1 0 21 0 0 1 I I #
point $-1 -308 -4.440892098500626162e-16 200.5 #
straight-curve $-1 -308 0 200.5 0 0 1 I I #
loop $-1 $395 $381 $158 #
coedge $-1 $396 $332 $335 $375 forward $371 $-1 #
coedge $-1 $332 $396 $334 $374 reversed $371 $-1 #
loop $-1 $-1 $369 $397 #
ellipse-curve $-1 -222.5 3 342.5 0 -1 0 2.25 0 0 1 I I #
coedge $-1 $335 $334 $398 $399 forward $336 $-1 #
edge $-1 $337 0 $400 3 $370 $401 forward 7 unknown #
edge $-1 $338 0 $402 3 $369 $403 forward 7 unknown #
face $-1 $397 $336 $2 $-1 $404 reversed single #
point $-1 -224.75 3 342.5 #
point $-1 -220.25 3 342.5 #
coedge $-1 $341 $340 $405 $406 forward $342 $-1 #
face $-1 $376 $342 $2 $-1 $407 reversed single #
coedge $-1 $405 $405 $344 $382 reversed $368 $-1 #
edge $-1 $383 0 $385 3.141592653589793116 $344 $408 forward 7 unknown #
vertex $-1 $345 $409 #
straight-curve $-1 -61.25 3 10 0 -1 0 I I #
vertex $-1 $406 $410 #
straight-curve $-1 -56.75 3 10 0 -1 0 I I #
cone-surface $-1 -59 1.5 10 0 -1 0 -2.25 0 0 1 I I 0 1 2.25 forward I I I I #
coedge $-1 $352 $352 $350 $389 reversed $331 $-1 #
edge $-1 $356 0 $354 3.141592653589793116 $350 $411 forward 7 unknown #
cone-surface $-1 -1401 1.5 10 0 -1 0 2.25 0 0 1 I I 0 1 2.25 forward I I I I #
ellipse-curve $-1 -1401 0 10 0 -1 0 -2.25 0 0 1 I I #
point $-1 -1403.25 0 10 #
point $-1 -1398.75 0 10 #
ellipse-curve $-1 -1205.5 0 146 0 -1 0 2.25 0 0 1 I I #
loop $-1 $-1 $398 $158 #
coedge $-1 $370 $369 $412 $413 forward $371 $-1 #
face $-1 $-1 $371 $2 $-1 $414 reversed single #
coedge $-1 $412 $412 $373 $399 reversed $395 $-1 #
edge $-1 $400 0 $402 3.141592653589793116 $373 $415 forward 7 unknown #
vertex $-1 $374 $416 #
straight-curve $-1 -224.75 3 342.5 0 -1 0 I I #
vertex $-1 $413 $417 #
straight-curve $-1 -220.25 3 342.5 0 -1 0 I I #
cone-surface $-1 -222.5 1.5 342.5 0 -1 0 -2.25 0 0 1 I I 0 1 2.25 forward I I I I #
coedge $-1 $381 $381 $379 $406 reversed $368 $-1 #
edge $-1 $385 0 $383 3.141592653589793116 $379 $418 forward 7 unknown #
cone-surface $-1 -59 1.5 10 0 -1 0 2.25 0 0 1 I I 0 1 2.25 forward I I I I #
ellipse-curve $-1 -59 0 10 0 -1 0 -2.25 0 0 1 I I #
point $-1 -61.25 0 10 #
point $-1 -56.75 0 10 #
ellipse-curve $-1 -1401 0 10 0 -1 0 2.25 0 0 1 I I #
coedge $-1 $398 $398 $396 $413 reversed $395 $-1 #
edge $-1 $402 0 $400 3.141592653589793116 $396 $419 forward 7 unknown #
cone-surface $-1 -222.5 1.5 342.5 0 -1 0 2.25 0 0 1 I I 0 1 2.25 forward I I I I #
ellipse-curve $-1 -222.5 0 342.5 0 -1 0 -2.25 0 0 1 I I #
point $-1 -224.75 0 342.5 #
point $-1 -220.25 0 342.5 #
ellipse-curve $-1 -59 0 10 0 -1 0 2.25 0 0 1 I I #
ellipse-curve $-1 -222.5 0 342.5 0 -1 0 2.25 0 0 1 I I #
End-of-ACIS-data 