999
DXF file: n2931052f.dxf
999
Pro/ENGINEER 9801 by Parametric Technology Corporation
0
SECTION
2
HEADER
9
$EXTMAX
10
22.0000000000
20
17.0000000000
9
$EXTMIN
10
0.0000000000
20
0.0000000000
9
$LIMMIN
10
0.0000000000
20
0.0000000000
9
$LIMMAX
10
22.0000000000
20
17.0000000000
9
$VIEWCTR
10
11.0000000000
20
8.5000000000
9
$VIEWSIZE
40
17.0000000000
9
$CLAYER
8
0
9
$LTSCALE
40
1.2100000000
9
$CELTYPE
6
BYLAYER
9
$DIMSCALE
40
1
9
$DIMASZ
40
0.1875000000
9
$DIMEXO
40
0.1375000000
9
$DIMDLI
40
0.8360000000
9
$DIMEXE
40
0.3960000000
9
$DIMCEN
40
0.1980000000
9
$DIMTXT
40
0.2486049107
0
ENDSEC
0
SECTION
2
TABLES
0
TABLE
2
LTYPE
70
6
0
LTYPE
2
CONTINUOUS
70
64
3
Solid line
72
65
73
0
40
0
0
LTYPE
2
CENTER
70
64
3
____ _ ____ _ ____ _ ____ _ ____ _ ____ _ ____
72
65
73
4
40
0.6
49
0.375
49
-0.075
49
0.075
49
-0.075
0
LTYPE
2
HIDDEN
70
64
3
- - - - - - - - - - - - - - - - - - - -
72
65
73
2
40
0.2
49
0.1
49
-0.1
0
LTYPE
2
PHANTOM
70
64
3
_____ _ _ _____ _ _ _____ _ _ _____
72
65
73
6
40
0.8
49
0.45
49
-0.05
49
0.1
49
-0.05
49
0.1
49
-0.05
0
LTYPE
2
DOT
70
64
3
. . . . . . . . . . . . . . . . . . . .
72
65
73
2
40
0.2
49
0.1
49
-0.1
0
LTYPE
2
DASHED
70
64
3
- - - - - - - - - - - - - - - - - - - -
72
65
73
2
40
0.2
49
0.1
49
-0.1
0
ENDTAB
0
TABLE
2
LAYER
70
36
0
LAYER
2
0
70
0
62
7
6
CONTINUOUS
0
LAYER
2
DEFAULT_1
70
0
62
7
6
CENTER
0
LAYER
2
DEFAULT_2
70
0
62
7
6
HIDDEN
0
LAYER
2
DEFAULT_3
70
0
62
7
6
PHANTOM
0
ENDTAB
0
ENDSEC
0
SECTION
2
BLOCKS
0
ENDSEC
0
SECTION
2
ENTITIES
0
LINE
8
0
62
3
10
-2.3731683655
20
23.6702134991
11
-2.3731683655
21
26.9773001132
0
LINE
8
0
62
3
10
-1.6195623555
20
27.6915360445
11
-1.6195623555
21
27.2190950996
0
LINE
8
0
62
3
10
-1.6195623555
20
22.9559775678
11
-1.6195623555
21
23.5071586702
0
LINE
8
0
62
3
10
-0.8715308594
20
23.6702134991
11
-0.8715308594
21
23.5071586702
0
LINE
8
0
62
3
10
-0.8715308594
20
26.9773001132
11
-0.8715308594
21
27.2190950996
0
LINE
8
0
62
3
10
-1.6195623555
20
22.9559775678
11
5.1632402157
21
22.9559775678
0
LINE
8
0
62
3
10
0.1970357805
20
26.5048591683
11
0.1970357805
21
24.1426544439
0
LINE
8
0
62
3
10
-0.8715308594
20
23.5071586702
11
-1.6195623555
21
23.5071586702
0
LINE
8
0
62
3
10
-0.8715308594
20
23.6702134991
11
-2.3731683655
21
23.6702134991
0
LINE
8
0
62
3
10
4.4152087196
20
23.6702134991
11
5.9955863831
21
23.6702134991
0
LINE
8
0
62
3
10
5.1632402157
20
23.5067649694
11
4.4152087196
21
23.5068633946
0
LINE
8
0
62
3
10
2.3623901112
20
23.8670638928
11
0.7875869616
21
23.8670638928
0
LINE
8
0
62
3
10
0.7875869616
20
23.8670638928
11
0.7875869616
21
24.1426544439
0
LINE
8
0
62
3
10
4.7301693495
20
24.1426544439
11
2.3623901112
21
24.1426544439
0
LINE
8
0
62
3
10
0.7875869616
20
24.1426544439
11
0.1970357805
21
24.1426544439
0
LINE
8
0
62
3
10
4.7301693495
20
24.2213946014
11
3.5828625521
21
24.2213946014
0
LINE
8
0
62
3
10
5.9955863831
20
24.8513158613
11
5.7199958319
21
24.8513158613
0
LINE
8
0
62
3
10
2.3623901112
20
24.1426544439
11
2.3623901112
21
23.8670638928
0
LINE
8
0
62
3
10
5.9955863831
20
25.7961977510
11
5.7199958319
21
25.7961977510
0
LINE
8
0
62
3
10
4.2127838120
20
26.2686386959
11
3.9765633395
21
26.2686386959
0
LINE
8
0
62
3
10
4.7301693495
20
26.4261190109
11
4.2127838120
21
26.4261190109
0
LINE
8
0
62
3
10
3.9765633395
20
26.4261190109
11
3.5828625521
21
26.4261190109
0
LINE
8
0
62
3
10
4.7301693495
20
26.5048591683
11
0.1970357805
21
26.5048591683
0
LINE
8
0
62
3
10
3.5828625521
20
24.2213946014
11
3.5828625521
21
24.6741505069
0
LINE
8
0
62
3
10
3.5828625521
20
25.9733631054
11
3.5828625521
21
26.4261190109
0
LINE
8
0
62
3
10
4.2324688513
20
25.3237568061
11
3.5828625521
21
24.6741505069
0
LINE
8
0
62
3
10
-0.8715308594
20
26.9773001132
11
-2.3731683655
21
26.9773001132
0
LINE
8
0
62
3
10
4.4152087196
20
26.9773001132
11
5.9955863831
21
26.9773001132
0
LINE
8
0
62
3
10
-0.8715308594
20
27.2190950996
11
-1.6195623555
21
27.2190950996
0
LINE
8
0
62
3
10
4.4152087196
20
27.2190950996
11
5.1632402157
21
27.2190950996
0
LINE
8
0
62
3
10
3.5828625521
20
25.9733631054
11
4.2324688513
21
25.3237568061
0
LINE
8
0
62
3
10
3.9765633395
20
26.4261190109
11
3.9765633395
21
26.2686386959
0
LINE
8
0
62
3
10
4.2127838120
20
26.4261190109
11
4.2127838120
21
26.2686386959
0
LINE
8
0
62
3
10
4.4152087196
20
23.5069618198
11
4.4152087196
21
23.6702134991
0
LINE
8
0
62
3
10
4.4152087196
20
26.9773001132
11
4.4152087196
21
27.2190950996
0
LINE
8
0
62
3
10
-1.6195623555
20
27.6915360445
11
5.1632402157
21
27.6915360445
0
LINE
8
0
62
3
10
4.7301693495
20
26.5048591683
11
4.7301693495
21
26.4261190109
0
LINE
8
0
62
3
10
4.7301693495
20
24.2213946014
11
4.7301693495
21
24.1426544439
0
LINE
8
0
62
3
10
5.1632402157
20
27.6915360445
11
5.1632402157
21
27.2190950996
0
LINE
8
0
62
3
10
5.1632402157
20
22.9559775678
11
5.1632402157
21
23.5071586702
0
LINE
8
0
62
3
10
5.7199958319
20
24.8513158613
11
5.7199958319
21
25.7961977510
0
LINE
8
0
62
3
10
5.9955863831
20
23.6702134991
11
5.9955863831
21
24.8513158613
0
LINE
8
0
62
3
10
5.9955863831
20
25.7961977510
11
5.9955863831
21
26.9773001132
0
CIRCLE
8
0
62
3
10
5.7199958319
20
24.0048591683
40
0.0984251969
0
CIRCLE
8
0
62
3
10
5.7199958319
20
26.3670638928
40
0.0984251969
0
CIRCLE
8
0
62
3
10
-0.5521768179
20
25.4107646802
40
0.2755905512
0
CIRCLE
8
0
62
3
10
3.4293192450
20
23.8276938140
40
0.0852362205
0
CIRCLE
8
0
62
3
10
0.6734137332
20
23.8276938140
40
0.0852362205
0
CIRCLE
8
0
62
3
10
3.4293192450
20
26.8198197983
40
0.0852362205
0
CIRCLE
8
0
62
3
10
0.6734137332
20
26.8198197983
40
0.0852362205
0
CIRCLE
8
0
62
3
10
-0.5521768179
20
24.9383237353
40
0.0852362205
0
CIRCLE
8
0
62
3
10
4.3899491663
20
23.9064339715
40
0.1181102362
0
CIRCLE
8
0
62
3
10
-2.2156880505
20
23.9064339715
40
0.0984251969
0
CIRCLE
8
0
62
3
10
-2.2156880505
20
26.7410796408
40
0.0984251969
0
ENDSEC
0
EOF
