600 0 1 0           
100 GICL ACIS Healer - Source: /gicl/data5/repository/PTC/V20/NC_Training_Rel20/DXF/part_8.prt.sat - 6 0 18 ACIS 6.0.3 Solaris 24 Sat Apr 13 20:52:19 2002 
1 9.999999999999999547e-07 1.000000000000000036e-10 
body $-1 $1 $-1 $-1 #
lump $-1 $-1 $2 $0 #
shell $-1 $-1 $-1 $3 $-1 $1 #
face $-1 $4 $5 $2 $-1 $6 forward single #
face $-1 $7 $8 $2 $-1 $9 reversed single #
loop $-1 $-1 $10 $3 #
plane-surface $-1 -260.603999999999985 -36.55059999999999576 -330.1999999999999886 0 0 1 0 1 0 forward_v I I I I #
face $-1 $11 $12 $2 $-1 $13 forward single #
loop $-1 $-1 $14 $4 #
cone-surface $-1 -260.603999999999985 -36.55059999999999576 -328.6505999999999972 -1 0 0 0 0 1.549399999999999888 1 I I 0 1 1.549399999999999888 forward I I I I #
coedge $-1 $15 $16 $17 $18 forward $5 $-1 #
face $-1 $19 $20 $2 $-1 $21 reversed single #
loop $-1 $-1 $22 $7 #
plane-surface $-1 -260.603999999999985 -38.09999999999999432 -127.2875237908721573 0 1 0 0 0 -1 forward_v I I I I #
coedge $-1 $23 $24 $25 $26 forward $8 $-1 #
coedge $-1 $27 $10 $28 $29 forward $5 $-1 #
coedge $-1 $10 $27 $30 $31 reversed $5 $-1 #
coedge $-1 $24 $23 $10 $18 reversed $8 $-1 #
edge $-1 $32 0 $33 270.8639999999999759 $10 $34 forward 7 unknown #
face $-1 $35 $36 $2 $-1 $37 forward single #
loop $-1 $-1 $38 $11 #
cone-surface $-1 -260.603999999999985 -30.86100000000000065 -127.2875237908721573 -1 0 0 0 0 7.238999999999998991 1 I I 0 1 7.238999999999998991 forward I I I I #
coedge $-1 $39 $40 $41 $42 forward $12 $-1 #
coedge $-1 $17 $14 $43 $44 forward $8 $-1 #
coedge $-1 $14 $17 $45 $46 reversed $8 $-1 #
coedge $-1 $40 $39 $14 $26 reversed $12 $-1 #
edge $-1 $47 0 $48 270.8639999999999759 $14 $49 forward 7 unknown #
coedge $-1 $16 $15 $50 $51 reversed $5 $-1 #
coedge $-1 $52 $53 $15 $29 reversed $54 $-1 #
edge $-1 $33 0 $55 36.55059999999999576 $15 $56 forward 7 unknown #
coedge $-1 $57 $58 $16 $31 forward $59 $-1 #
edge $-1 $32 0 $60 36.55059999999999576 $16 $61 forward 7 unknown #
vertex $-1 $31 $62 #
vertex $-1 $29 $63 #
straight-curve $-1 -260.603999999999985 -36.55059999999999576 -330.1999999999999886 1 0 0 I I #
face $-1 $64 $65 $2 $-1 $66 forward single #
loop $-1 $-1 $67 $19 #
plane-surface $-1 -260.603999999999985 -4.753651004114749945 -95.93101350993278231 0 0.6427876096865272615 -0.7660444431189883385 0 -0.7660444431189883385 -0.6427876096865272615 forward_v I I I I #
coedge $-1 $68 $69 $70 $71 forward $20 $-1 #
coedge $-1 $25 $22 $72 $73 forward $12 $-1 #
coedge $-1 $22 $25 $74 $75 reversed $12 $-1 #
coedge $-1 $69 $68 $22 $42 reversed $20 $-1 #
edge $-1 $76 0 $77 270.8639999999999759 $22 $78 forward 7 unknown #
coedge $-1 $79 $80 $23 $44 reversed $81 $-1 #
edge $-1 $48 0 $33 1.570796326794896558 $23 $82 forward 7 unknown #
coedge $-1 $83 $84 $24 $46 forward $85 $-1 #
edge $-1 $47 0 $32 1.570796326794896558 $24 $86 forward 7 unknown #
vertex $-1 $46 $87 #
vertex $-1 $44 $88 #
straight-curve $-1 -260.603999999999985 -38.09999999999999432 -328.6505999999999972 1 0 0 I I #
coedge $-1 $89 $90 $27 $51 forward $91 $-1 #
edge $-1 $60 0 $55 270.8639999999999759 $27 $92 forward 7 unknown #
coedge $-1 $93 $28 $80 $94 forward $54 $-1 #
coedge $-1 $28 $93 $89 $95 reversed $54 $-1 #
loop $-1 $-1 $52 $96 #
vertex $-1 $51 $97 #
straight-curve $-1 10.25999999999999091 -36.55059999999999576 -330.1999999999999886 0 1 0 I I #
coedge $-1 $98 $30 $90 $99 forward $59 $-1 #
coedge $-1 $30 $98 $83 $100 reversed $59 $-1 #
loop $-1 $-1 $57 $101 #
vertex $-1 $31 $102 #
straight-curve $-1 -260.603999999999985 -36.55059999999999576 -330.1999999999999886 0 1 0 I I #
point $-1 -260.603999999999985 -36.55059999999999576 -330.1999999999999886 #
point $-1 10.25999999999999091 -36.55059999999999576 -330.1999999999999886 #
face $-1 $103 $104 $2 $-1 $105 forward single #
loop $-1 $-1 $106 $35 #
cone-surface $-1 -260.603999999999985 -5.32508918912607232 -95.25 -1 0 0 0 0 0.8890000000000000124 1 I I 0 1 0.8890000000000000124 forward I I I I #
coedge $-1 $107 $108 $109 $110 forward $36 $-1 #
coedge $-1 $41 $38 $111 $112 forward $20 $-1 #
coedge $-1 $38 $41 $113 $114 reversed $20 $-1 #
coedge $-1 $108 $107 $38 $71 reversed $36 $-1 #
edge $-1 $115 0 $116 270.8639999999999759 $38 $117 forward 7 unknown #
coedge $-1 $118 $119 $39 $73 reversed $120 $-1 #
edge $-1 $77 0 $48 201.3630762091278257 $39 $121 forward 7 unknown #
coedge $-1 $122 $123 $40 $75 forward $124 $-1 #
edge $-1 $76 0 $47 201.3630762091278257 $40 $125 forward 7 unknown #
vertex $-1 $75 $126 #
vertex $-1 $73 $127 #
straight-curve $-1 -260.603999999999985 -38.10000000000000142 -127.2875237908721573 1 2.623245376868466232e-17 0 I I #
coedge $-1 $128 $43 $119 $129 forward $81 $-1 #
coedge $-1 $43 $128 $52 $94 reversed $81 $-1 #
loop $-1 $-1 $79 $130 #
ellipse-curve $-1 10.25999999999999091 -36.55059999999999576 -328.6505999999999972 1 0 0 0 -1.549399999999998556 0 1 I I #
coedge $-1 $131 $45 $58 $100 forward $85 $-1 #
coedge $-1 $45 $131 $122 $132 reversed $85 $-1 #
loop $-1 $-1 $83 $133 #
ellipse-curve $-1 -260.603999999999985 -36.55059999999999576 -328.6505999999999972 1 0 0 0 -1.549399999999998556 0 1 I I #
point $-1 -260.603999999999985 -38.09999999999999432 -328.6505999999999972 #
point $-1 10.25999999999999091 -38.09999999999999432 -328.6505999999999972 #
coedge $-1 $134 $50 $53 $95 forward $91 $-1 #
coedge $-1 $50 $134 $57 $99 reversed $91 $-1 #
loop $-1 $-1 $89 $135 #
straight-curve $-1 -260.603999999999985 0 -330.1999999999999886 1 0 0 I I #
coedge $-1 $53 $52 $136 $137 forward $54 $-1 #
edge $-1 $33 0 $138 0.7620000000000004547 $52 $139 forward 7 unknown #
edge $-1 $55 0 $140 0.7620000000000004547 $89 $141 forward 7 unknown #
face $-1 $130 $54 $2 $-1 $142 forward single #
point $-1 10.25999999999999091 0 -330.1999999999999886 #
coedge $-1 $58 $57 $143 $144 reversed $59 $-1 #
edge $-1 $60 0 $145 0.7620000000000004547 $57 $146 forward 7 unknown #
edge $-1 $32 0 $147 0.7620000000000004547 $58 $148 forward 7 unknown #
face $-1 $135 $59 $2 $-1 $149 reversed single #
point $-1 -260.603999999999985 0 -330.1999999999999886 #
face $-1 $150 $151 $2 $-1 $152 reversed single #
loop $-1 $-1 $153 $64 #
plane-surface $-1 -260.603999999999985 -11.15394668143629531 -95.37507058463255305 0 -0.1736481776669317467 0.9848077530122077983 0 0.9848077530122077983 0.1736481776669317467 forward_v I I I I #
coedge $-1 $154 $155 $156 $157 forward $65 $-1 #
coedge $-1 $70 $67 $158 $159 forward $36 $-1 #
coedge $-1 $67 $70 $160 $161 reversed $36 $-1 #
coedge $-1 $155 $154 $67 $110 reversed $65 $-1 #
edge $-1 $162 0 $163 270.8639999999999759 $67 $164 forward 7 unknown #
coedge $-1 $165 $166 $68 $112 reversed $167 $-1 #
edge $-1 $116 0 $77 0.8726646259971763131 $68 $168 forward 7 unknown #
coedge $-1 $169 $170 $69 $114 forward $171 $-1 #
edge $-1 $115 1.966079399836027274e-15 $76 0.8726646259971804209 $69 $172 forward 7 unknown #
vertex $-1 $114 $173 #
vertex $-1 $112 $174 #
straight-curve $-1 -260.603999999999985 -35.51413950652077745 -121.7421280671338053 1 0 0 I I #
coedge $-1 $175 $72 $166 $176 forward $120 $-1 #
coedge $-1 $72 $175 $79 $129 reversed $120 $-1 #
loop $-1 $-1 $118 $177 #
straight-curve $-1 10.25999999999999091 -38.09999999999999432 -127.2875237908721573 0 0 -1 I I #
coedge $-1 $178 $74 $84 $132 forward $124 $-1 #
coedge $-1 $74 $178 $169 $179 reversed $124 $-1 #
loop $-1 $-1 $122 $180 #
straight-curve $-1 -260.603999999999985 -38.09999999999999432 -127.2875237908721573 0 0 -1 I I #
point $-1 -260.603999999999985 -38.10000000000000142 -127.2875237908721573 #
point $-1 10.25999999999999091 -38.09999999999999432 -127.2875237908721573 #
coedge $-1 $80 $79 $181 $182 forward $81 $-1 #
edge $-1 $48 0 $183 0.7620000000000004547 $79 $184 forward 7 unknown #
face $-1 $177 $81 $2 $-1 $185 forward single #
coedge $-1 $84 $83 $186 $187 reversed $85 $-1 #
edge $-1 $47 0 $188 0.7620000000000004547 $84 $189 forward 7 unknown #
face $-1 $101 $85 $2 $-1 $190 reversed single #
coedge $-1 $90 $89 $191 $192 reversed $91 $-1 #
face $-1 $96 $91 $2 $-1 $193 reversed single #
coedge $-1 $194 $191 $93 $137 reversed $195 $-1 #
edge $-1 $138 0 $140 36.55059999999999576 $93 $196 forward 7 unknown #
vertex $-1 $137 $197 #
straight-curve $-1 10.25999999999999091 -36.55059999999999576 -330.1999999999999886 0 0 -1 I I #
vertex $-1 $192 $198 #
straight-curve $-1 10.25999999999999091 0 -330.1999999999999886 0 0 -1 I I #
plane-surface $-1 10.25999999999999091 -18.27529999999999788 -330.5810000000000173 1 0 0 0 1 0 forward_v I I I I #
coedge $-1 $191 $194 $98 $144 forward $195 $-1 #
edge $-1 $147 0 $145 36.55059999999999576 $98 $199 forward 7 unknown #
vertex $-1 $144 $200 #
straight-curve $-1 -260.603999999999985 0 -330.1999999999999886 0 0 -1 I I #
vertex $-1 $100 $201 #
straight-curve $-1 -260.603999999999985 -36.55059999999999576 -330.1999999999999886 0 0 -1 I I #
plane-surface $-1 -260.603999999999985 -18.27529999999999788 -330.5810000000000173 1 0 0 0 1 0 forward_v I I I I #
face $-1 $202 $203 $2 $-1 $204 forward single #
loop $-1 $-1 $205 $103 #
cone-surface $-1 -260.603999999999985 -11.17599999999999483 -95.25 -1 0 0 0 0 0.1270000000000000018 1 I I 0 1 0.1270000000000000018 forward I I I I #
coedge $-1 $206 $207 $208 $209 forward $104 $-1 #
coedge $-1 $109 $106 $210 $211 forward $65 $-1 #
coedge $-1 $106 $109 $212 $213 reversed $65 $-1 #
coedge $-1 $207 $206 $106 $157 reversed $104 $-1 #
edge $-1 $214 0 $215 270.8639999999999759 $106 $216 forward 7 unknown #
coedge $-1 $217 $218 $107 $159 reversed $219 $-1 #
edge $-1 $163 6.803841429094855351e-16 $116 40.15496591446203922 $107 $220 forward 7 unknown #
coedge $-1 $221 $222 $108 $161 forward $223 $-1 #
edge $-1 $162 -6.803841429094855351e-16 $115 40.15496591446205343 $108 $224 forward 7 unknown #
vertex $-1 $161 $225 #
vertex $-1 $159 $226 #
straight-curve $-1 -260.603999999999985 -4.753651004114750833 -95.93101350993278231 1 3.27905672108558279e-18 0 I I #
coedge $-1 $227 $111 $218 $228 forward $167 $-1 #
coedge $-1 $111 $227 $118 $176 reversed $167 $-1 #
loop $-1 $-1 $165 $229 #
ellipse-curve $-1 10.25999999999999091 -30.86099999999996868 -127.2875237908721715 1 0 0 0 -4.65313950652080166 5.5453957237383662 1 I I #
coedge $-1 $230 $113 $123 $179 forward $171 $-1 #
coedge $-1 $113 $230 $221 $231 reversed $171 $-1 #
loop $-1 $-1 $169 $232 #
ellipse-curve $-1 -260.603999999999985 -30.86100000000000065 -127.2875237908721573 1 0 0 0 -4.653139506520769686 5.54539572373835199 1 I I #
point $-1 -260.603999999999985 -35.51413950652077745 -121.7421280671338195 #
point $-1 10.25999999999999091 -35.51413950652077034 -121.7421280671338053 #
coedge $-1 $119 $118 $233 $234 forward $120 $-1 #
edge $-1 $77 -7.105427357601001859e-15 $235 0.7619999999999933493 $118 $236 forward 7 unknown #
face $-1 $229 $120 $2 $-1 $237 forward single #
coedge $-1 $123 $122 $238 $239 reversed $124 $-1 #
edge $-1 $76 7.105427357601001859e-15 $240 0.7620000000000075602 $123 $241 forward 7 unknown #
face $-1 $133 $124 $2 $-1 $242 reversed single #
coedge $-1 $243 $244 $128 $182 reversed $245 $-1 #
edge $-1 $183 0 $138 1.570796326794948961 $128 $246 forward 7 unknown #
vertex $-1 $182 $247 #
straight-curve $-1 10.25999999999999091 -38.09999999999999432 -328.6505999999999972 0 -1 0 I I #
plane-surface $-1 10.25999999999999091 -37.91559893040250984 -330.0155989304024615 1 0 0 0 0 -1 forward_v I I I I #
coedge $-1 $244 $243 $131 $187 forward $245 $-1 #
edge $-1 $188 0 $147 1.570796326794896558 $131 $248 forward 7 unknown #
vertex $-1 $132 $249 #
straight-curve $-1 -260.603999999999985 -38.09999999999999432 -328.6505999999999972 0 -1 0 I I #
plane-surface $-1 -260.603999999999985 -37.91559893040250984 -330.0155989304024615 1 0 0 0 0 -1 forward_v I I I I #
coedge $-1 $136 $143 $134 $192 forward $195 $-1 #
edge $-1 $145 0 $140 270.8639999999999759 $134 $250 forward 7 unknown #
plane-surface $-1 -125.171999999999997 0 -330.5810000000000173 0 -1 0 1 0 0 forward_v I I I I #
coedge $-1 $143 $136 $244 $251 reversed $195 $-1 #
loop $-1 $-1 $191 $252 #
straight-curve $-1 10.25999999999999091 -36.55059999999999576 -330.9619999999999891 0 1 0 I I #
point $-1 10.25999999999999091 -36.55059999999999576 -330.9619999999999891 #
point $-1 10.25999999999999091 0 -330.9619999999999891 #
straight-curve $-1 -260.603999999999985 -36.55059999999999576 -330.9619999999999891 0 1 0 I I #
point $-1 -260.603999999999985 0 -330.9619999999999891 #
point $-1 -260.603999999999985 -36.55059999999999576 -330.9619999999999891 #
face $-1 $253 $254 $2 $-1 $255 reversed single #
loop $-1 $-1 $256 $150 #
plane-surface $-1 -260.603999999999985 -11.30299999999999372 -44.32299999999999329 0 1 0 0 0 -1 forward_v I I I I #
coedge $-1 $257 $258 $259 $260 forward $151 $-1 #
coedge $-1 $156 $153 $261 $262 forward $104 $-1 #
coedge $-1 $153 $156 $263 $264 reversed $104 $-1 #
coedge $-1 $258 $257 $153 $209 reversed $151 $-1 #
edge $-1 $265 0 $266 270.8639999999999759 $153 $267 forward 7 unknown #
coedge $-1 $268 $269 $154 $211 reversed $270 $-1 #
edge $-1 $215 0 $163 2.617993877991498408 $154 $271 forward 7 unknown #
coedge $-1 $272 $273 $155 $213 forward $274 $-1 #
edge $-1 $214 2.774430229785909815e-15 $162 2.617993877991510843 $155 $275 forward 7 unknown #
vertex $-1 $213 $276 #
vertex $-1 $211 $277 #
straight-curve $-1 -260.603999999999985 -5.479462419071971624 -94.37450590757214286 1 0 0 I I #
coedge $-1 $278 $158 $269 $279 forward $219 $-1 #
coedge $-1 $158 $278 $165 $228 reversed $219 $-1 #
loop $-1 $-1 $217 $280 #
straight-curve $-1 10.25999999999999091 -4.753651004114751721 -95.93101350993278231 0 -0.7660444431189881165 -0.6427876096865271505 I I #
coedge $-1 $281 $160 $170 $231 forward $223 $-1 #
coedge $-1 $160 $281 $272 $282 reversed $223 $-1 #
loop $-1 $-1 $221 $283 #
straight-curve $-1 -260.603999999999985 -4.753651004114751721 -95.93101350993278231 0 -0.7660444431189881165 -0.6427876096865271505 I I #
point $-1 -260.603999999999985 -4.753651004114750833 -95.93101350993278231 #
point $-1 10.25999999999999091 -4.75365100411475261 -95.93101350993278231 #
coedge $-1 $166 $165 $284 $285 forward $167 $-1 #
edge $-1 $116 6.318865619558566123e-15 $286 0.7620000000000082263 $165 $287 forward 7 unknown #
face $-1 $280 $167 $2 $-1 $288 forward single #
coedge $-1 $170 $169 $289 $290 reversed $171 $-1 #
edge $-1 $115 -6.318865619558287656e-15 $291 0.7620000000000020091 $170 $292 forward 7 unknown #
face $-1 $180 $171 $2 $-1 $293 reversed single #
coedge $-1 $294 $295 $175 $234 reversed $296 $-1 #
edge $-1 $235 0 $183 201.3630762091278257 $175 $297 forward 7 unknown #
vertex $-1 $234 $298 #
straight-curve $-1 10.25999999999999091 -38.10000000000000142 -127.2875237908721573 0 -1 0 I I #
plane-surface $-1 10.25999999999999091 -38.48099999999999454 -227.9690618954360843 1 0 0 0 0 -1 forward_v I I I I #
coedge $-1 $295 $294 $178 $239 forward $296 $-1 #
edge $-1 $240 0 $188 201.3630762091278257 $178 $299 forward 7 unknown #
vertex $-1 $179 $300 #
straight-curve $-1 -260.603999999999985 -38.09999999999999432 -127.2875237908721573 0 -1 0 I I #
plane-surface $-1 -260.603999999999985 -38.48099999999999454 -227.9690618954360843 1 0 0 0 0 -1 forward_v I I I I #
coedge $-1 $186 $181 $295 $301 reversed $245 $-1 #
coedge $-1 $181 $186 $194 $251 forward $245 $-1 #
loop $-1 $-1 $244 $302 #
ellipse-curve $-1 10.25999999999999091 -36.55060000000005971 -328.650600000000054 1 0 0 0 -2.311399999999935062 5.684341886080801487e-14 1 I I #
point $-1 10.25999999999999091 -38.86199999999999477 -328.6505999999999972 #
ellipse-curve $-1 -260.603999999999985 -36.55059999999999576 -328.6505999999999972 1 0 0 0 -2.311399999999999011 0 1 I I #
point $-1 -260.603999999999985 -38.86199999999999477 -328.6505999999999972 #
straight-curve $-1 -260.603999999999985 0 -330.9619999999999891 1 0 0 I I #
edge $-1 $147 0 $138 270.8639999999999759 $194 $303 forward 7 unknown #
face $-1 $-1 $195 $2 $-1 $304 reversed single #
face $-1 $305 $306 $2 $-1 $307 forward single #
loop $-1 $-1 $308 $202 #
cone-surface $-1 -260.603999999999985 11.8110000000000035 -44.32299999999998619 -1 0 0 0 0 23.11399999999999721 1 I I 0 1 23.11399999999999721 forward I I I I #
coedge $-1 $309 $310 $311 $312 forward $203 $-1 #
coedge $-1 $208 $205 $313 $314 forward $151 $-1 #
coedge $-1 $205 $208 $315 $316 reversed $151 $-1 #
coedge $-1 $310 $309 $205 $260 reversed $203 $-1 #
edge $-1 $317 0 $318 270.8639999999999759 $205 $319 forward 7 unknown #
coedge $-1 $320 $321 $206 $262 reversed $322 $-1 #
edge $-1 $266 0 $215 5.762022328731587706 $206 $323 forward 7 unknown #
coedge $-1 $324 $325 $207 $264 forward $326 $-1 #
edge $-1 $265 -1.749369987557628328e-15 $214 5.76202232873159037 $207 $327 forward 7 unknown #
vertex $-1 $264 $328 #
vertex $-1 $262 $329 #
straight-curve $-1 -260.603999999999985 -11.15394668143629531 -95.37507058463255305 1 0 0 I I #
coedge $-1 $330 $210 $321 $331 forward $270 $-1 #
coedge $-1 $210 $330 $217 $279 reversed $270 $-1 #
loop $-1 $-1 $268 $332 #
ellipse-curve $-1 10.25999999999999091 -5.325089189126079425 -95.25 -1 0 0 0 -0.1543732299458930868 0.8754940924278571401 1 I I #
coedge $-1 $333 $212 $222 $282 forward $274 $-1 #
coedge $-1 $212 $333 $324 $334 reversed $274 $-1 #
loop $-1 $-1 $272 $335 #
ellipse-curve $-1 -260.603999999999985 -5.32508918912607232 -95.25 -1 0 0 0 -0.1543732299459001922 0.8754940924278571401 1 I I #
point $-1 -260.603999999999985 -5.479462419071972512 -94.37450590757212865 #
point $-1 10.25999999999999091 -5.479462419071972512 -94.37450590757214286 #
coedge $-1 $218 $217 $336 $337 forward $219 $-1 #
edge $-1 $163 0 $338 0.7620000000000003437 $217 $339 forward 7 unknown #
face $-1 $332 $219 $2 $-1 $340 forward single #
coedge $-1 $222 $221 $341 $342 reversed $223 $-1 #
edge $-1 $162 -1.141820166748391131e-15 $343 0.7620000000000025642 $222 $344 forward 7 unknown #
face $-1 $232 $223 $2 $-1 $345 reversed single #
coedge $-1 $346 $347 $227 $285 reversed $348 $-1 #
edge $-1 $286 0 $235 0.8726646259971828634 $227 $349 forward 7 unknown #
vertex $-1 $285 $350 #
straight-curve $-1 10.25999999999999091 -35.51413950652077745 -121.7421280671338195 0 -0.6427876096865060562 0.7660444431190061021 I I #
plane-surface $-1 10.25999999999999091 -37.76706533721925041 -124.0671726364079746 1 0 0 0 -0.7660444431189880055 -0.6427876096865272615 forward_v I I I I #
coedge $-1 $347 $346 $230 $290 forward $348 $-1 #
edge $-1 $291 0 $240 0.8726646259971811981 $230 $351 forward 7 unknown #
vertex $-1 $231 $352 #
straight-curve $-1 -260.603999999999985 -35.51413950652077034 -121.7421280671338053 0 -0.6427876096865206001 0.7660444431189936676 I I #
plane-surface $-1 -260.603999999999985 -37.76706533721925041 -124.0671726364079746 1 0 0 0 -0.7660444431189880055 -0.6427876096865272615 forward_v I I I I #
coedge $-1 $238 $233 $347 $353 reversed $296 $-1 #
coedge $-1 $233 $238 $243 $301 forward $296 $-1 #
loop $-1 $-1 $295 $354 #
straight-curve $-1 10.25999999999999091 -38.86199999999999477 -127.2875237908721573 0 0 -1 I I #
point $-1 10.25999999999999091 -38.86199999999999477 -127.2875237908721573 #
straight-curve $-1 -260.603999999999985 -38.86199999999999477 -127.2875237908721573 0 0 -1 I I #
point $-1 -260.603999999999985 -38.86200000000000188 -127.2875237908721573 #
edge $-1 $188 0 $183 270.8639999999999759 $243 $355 forward 7 unknown #
face $-1 $252 $245 $2 $-1 $356 forward single #
straight-curve $-1 -260.603999999999985 -36.55059999999999576 -330.9619999999999891 1 0 0 I I #
plane-surface $-1 -260.603999999999985 -36.55059999999999576 -330.9619999999999891 0 0 1 0 1 0 forward_v I I I I #
face $-1 $357 $358 $2 $-1 $359 forward single #
loop $-1 $-1 $360 $253 #
cone-surface $-1 -260.603999999999985 11.81099999999999994 -20.31999999999999673 -1 0 0 0 0 0.8890000000000000124 1 I I 0 1 0.8890000000000000124 forward I I I I #
coedge $-1 $361 $362 $363 $364 forward $254 $-1 #
coedge $-1 $259 $256 $365 $366 forward $203 $-1 #
coedge $-1 $256 $259 $367 $368 reversed $203 $-1 #
coedge $-1 $362 $361 $256 $312 reversed $254 $-1 #
edge $-1 $369 0 $370 270.8639999999999759 $256 $371 forward 7 unknown #
coedge $-1 $372 $373 $257 $314 reversed $374 $-1 #
edge $-1 $318 0 $266 1.745329251994107267 $257 $375 forward 7 unknown #
coedge $-1 $376 $377 $258 $316 forward $378 $-1 #
edge $-1 $317 0 $265 1.745329251994307329 $258 $379 forward 7 unknown #
vertex $-1 $316 $380 #
vertex $-1 $314 $381 #
straight-curve $-1 -260.603999999999985 -11.30299999999999372 -95.25 1 0 0 I I #
coedge $-1 $382 $261 $373 $383 forward $322 $-1 #
coedge $-1 $261 $382 $268 $331 reversed $322 $-1 #
loop $-1 $-1 $320 $384 #
straight-curve $-1 10.25999999999999091 -11.15394668143629531 -95.37507058463255305 0 0.9848077530122077983 0.1736481776669316357 I I #
coedge $-1 $385 $263 $273 $334 forward $326 $-1 #
coedge $-1 $263 $385 $376 $386 reversed $326 $-1 #
loop $-1 $-1 $324 $387 #
straight-curve $-1 -260.603999999999985 -11.15394668143629531 -95.37507058463255305 0 0.9848077530122077983 0.1736481776669316357 I I #
point $-1 -260.603999999999985 -11.15394668143629708 -95.37507058463255305 #
point $-1 10.25999999999999091 -11.15394668143629531 -95.37507058463255305 #
coedge $-1 $269 $268 $388 $389 forward $270 $-1 #
edge $-1 $215 1.399495990046103136e-14 $390 0.7620000000000157758 $268 $391 forward 7 unknown #
face $-1 $384 $270 $2 $-1 $392 forward single #
coedge $-1 $273 $272 $393 $394 reversed $274 $-1 #
edge $-1 $214 -1.39949599004610282e-14 $395 0.762000000000001898 $273 $396 forward 7 unknown #
face $-1 $283 $274 $2 $-1 $397 reversed single #
coedge $-1 $398 $399 $278 $337 reversed $400 $-1 #
edge $-1 $338 -2.721536571637941746e-15 $286 40.15496591446202501 $278 $401 forward 7 unknown #
vertex $-1 $337 $402 #
straight-curve $-1 10.25999999999999091 -4.75365100411475261 -95.93101350993278231 0 -0.6427876096865206001 0.7660444431189936676 I I #
plane-surface $-1 10.25999999999999091 -20.37879733460832909 -108.5447078557049565 1 0 0 0 -0.7660444431189881165 -0.6427876096865272615 forward_v I I I I #
coedge $-1 $399 $398 $281 $342 forward $400 $-1 #
edge $-1 $343 0 $291 40.15496591446202501 $281 $403 forward 7 unknown #
vertex $-1 $282 $404 #
straight-curve $-1 -260.603999999999985 -4.75365100411475261 -95.93101350993278231 0 -0.6427876096865212663 0.7660444431189931125 I I #
plane-surface $-1 -260.603999999999985 -20.37879733460832909 -108.5447078557049565 1 0 0 0 -0.7660444431189881165 -0.6427876096865272615 forward_v I I I I #
coedge $-1 $289 $284 $399 $405 reversed $348 $-1 #
coedge $-1 $284 $289 $294 $353 forward $348 $-1 #
loop $-1 $-1 $347 $406 #
ellipse-curve $-1 10.25999999999999091 -30.86100000000001131 -127.2875237908721431 1 0 0 0 -5.142943665101888939 6.129121589395012393 1 I I #
point $-1 10.25999999999999091 -36.00394366510190025 -121.1584022014771307 #
ellipse-curve $-1 -260.603999999999985 -30.86100000000000065 -127.2875237908721573 1 0 0 0 -5.142943665101899597 6.129121589395026604 1 I I #
point $-1 -260.603999999999985 -36.00394366510190025 -121.1584022014771307 #
edge $-1 $240 0 $235 270.8639999999999759 $294 $407 forward 7 unknown #
face $-1 $302 $296 $2 $-1 $408 reversed single #
straight-curve $-1 -260.603999999999985 -38.86199999999999477 -328.6505999999999972 1 0 0 I I #
cone-surface $-1 -260.603999999999985 -36.55059999999999576 -328.6505999999999972 -1 0 0 0 0 2.311399999999999899 1 I I 0 1 2.311399999999999899 forward I I I I #
face $-1 $409 $410 $2 $-1 $411 forward single #
loop $-1 $-1 $412 $305 #
plane-surface $-1 -260.603999999999985 12.69999999999999929 0 0 1 0 0 0 -1 forward_v I I I I #
coedge $-1 $413 $414 $415 $416 forward $306 $-1 #
coedge $-1 $311 $308 $417 $418 forward $254 $-1 #
coedge $-1 $308 $311 $419 $420 reversed $254 $-1 #
coedge $-1 $414 $413 $308 $364 reversed $306 $-1 #
edge $-1 $421 0 $422 270.8639999999999759 $308 $423 forward 7 unknown #
coedge $-1 $424 $425 $309 $366 reversed $426 $-1 #
edge $-1 $370 0 $318 50.92700000000000671 $309 $427 forward 7 unknown #
coedge $-1 $428 $429 $310 $368 forward $430 $-1 #
edge $-1 $369 -7.105427357601001859e-15 $317 50.92700000000000671 $310 $431 forward 7 unknown #
vertex $-1 $368 $432 #
vertex $-1 $366 $433 #
straight-curve $-1 -260.603999999999985 -11.30299999999999372 -44.32299999999999329 1 0 0 I I #
coedge $-1 $434 $313 $425 $435 forward $374 $-1 #
coedge $-1 $313 $434 $320 $383 reversed $374 $-1 #
loop $-1 $-1 $372 $436 #
ellipse-curve $-1 10.25999999999999091 -11.17599999999998417 -95.24999999999998579 1 0 0 0 -0.1270000000000113261 -1.421085471520200372e-14 1 I I #
coedge $-1 $437 $315 $325 $386 forward $378 $-1 #
coedge $-1 $315 $437 $428 $438 reversed $378 $-1 #
loop $-1 $-1 $376 $439 #
ellipse-curve $-1 -260.603999999999985 -11.17599999999999483 -95.25 1 0 0 0 -0.1270000000000006679 0 1 I I #
point $-1 -260.603999999999985 -11.30299999999999372 -95.25 #
point $-1 10.25999999999999091 -11.3029999999999955 -95.25 #
coedge $-1 $321 $320 $440 $441 forward $322 $-1 #
edge $-1 $266 6.169222560961048358e-16 $442 0.7620000000000024531 $320 $443 forward 7 unknown #
face $-1 $436 $322 $2 $-1 $444 forward single #
coedge $-1 $325 $324 $445 $446 reversed $326 $-1 #
edge $-1 $265 -3.084611280480347178e-16 $447 0.762000000000001898 $325 $448 forward 7 unknown #
face $-1 $335 $326 $2 $-1 $449 reversed single #
coedge $-1 $450 $451 $330 $389 reversed $452 $-1 #
edge $-1 $390 6.910284787122991808e-15 $338 2.617993877991417584 $330 $453 forward 7 unknown #
vertex $-1 $389 $454 #
straight-curve $-1 10.25999999999999091 -5.479462419071972512 -94.37450590757212865 0 0.1736481776669287491 -0.9848077530122083534 I I #
plane-surface $-1 10.25999999999999091 -4.864684833311451406 -95.03530992303572589 1 0 0 0 0.9848077530122087975 0.1736481776669266675 forward_v I I I I #
coedge $-1 $451 $450 $333 $394 forward $452 $-1 #
edge $-1 $395 6.883396519468766498e-15 $343 2.61799387799147576 $333 $455 forward 7 unknown #
vertex $-1 $334 $456 #
straight-curve $-1 -260.603999999999985 -5.479462419071972512 -94.37450590757214286 0 0.173648177666930803 -0.9848077530122079093 I I #
plane-surface $-1 -260.603999999999985 -4.864684833311451406 -95.03530992303572589 1 0 0 0 0.9848077530122087975 0.1736481776669266675 forward_v I I I I #
coedge $-1 $341 $336 $451 $457 reversed $400 $-1 #
coedge $-1 $336 $341 $346 $405 forward $400 $-1 #
loop $-1 $-1 $399 $458 #
straight-curve $-1 10.25999999999999091 -5.243455162695883409 -95.3472876442761077 0 -0.7660444431189882275 -0.6427876096865272615 I I #
point $-1 10.25999999999999091 -5.243455162695879856 -95.3472876442761077 #
straight-curve $-1 -260.603999999999985 -5.243455162695883409 -95.3472876442761077 0 -0.7660444431189882275 -0.6427876096865272615 I I #
point $-1 -260.603999999999985 -5.243455162695883409 -95.3472876442761077 #
edge $-1 $291 0 $286 270.8639999999999759 $346 $459 forward 7 unknown #
face $-1 $354 $348 $2 $-1 $460 forward single #
straight-curve $-1 -260.603999999999985 -38.86200000000000188 -127.2875237908721573 1 2.623245376868466232e-17 0 I I #
plane-surface $-1 -260.603999999999985 -38.86199999999999477 -127.2875237908721573 0 1 0 0 0 -1 forward_v I I I I #
face $-1 $461 $462 $2 $-1 $463 reversed single #
loop $-1 $-1 $464 $357 #
plane-surface $-1 -125.171999999999997 12.31899999999999906 1.276756478318930021e-15 0 0 1 1 0 0 forward_v I I I I #
coedge $-1 $465 $466 $467 $468 forward $358 $-1 #
coedge $-1 $363 $360 $469 $470 forward $306 $-1 #
coedge $-1 $360 $363 $471 $472 reversed $306 $-1 #
coedge $-1 $466 $465 $360 $416 reversed $358 $-1 #
edge $-1 $473 0 $474 270.8639999999999759 $360 $475 forward 7 unknown #
coedge $-1 $476 $477 $361 $418 reversed $478 $-1 #
edge $-1 $422 0 $370 1.570796326794897446 $361 $479 forward 7 unknown #
coedge $-1 $480 $481 $362 $420 forward $482 $-1 #
edge $-1 $421 1.537039750281432163e-16 $369 1.570796326794896558 $362 $483 forward 7 unknown #
vertex $-1 $420 $484 #
vertex $-1 $418 $485 #
straight-curve $-1 -260.603999999999985 11.81099999999999817 -21.20899999999999608 1 0 2.623245376868466232e-17 I I #
coedge $-1 $486 $365 $477 $487 forward $426 $-1 #
coedge $-1 $365 $486 $372 $435 reversed $426 $-1 #
loop $-1 $-1 $424 $488 #
straight-curve $-1 10.25999999999999091 -11.30299999999999372 -44.32299999999999329 0 0 -1 I I #
coedge $-1 $489 $367 $377 $438 forward $430 $-1 #
coedge $-1 $367 $489 $480 $490 reversed $430 $-1 #
loop $-1 $-1 $428 $491 #
straight-curve $-1 -260.603999999999985 -11.30299999999999372 -44.32299999999999329 0 0 -1 I I #
point $-1 -260.603999999999985 -11.30299999999999372 -44.32299999999998619 #
point $-1 10.25999999999999091 -11.30299999999999372 -44.32299999999999329 #
coedge $-1 $373 $372 $492 $493 forward $374 $-1 #
edge $-1 $318 1.776356839400250465e-15 $494 0.7620000000000004547 $372 $495 forward 7 unknown #
face $-1 $488 $374 $2 $-1 $496 forward single #
coedge $-1 $377 $376 $497 $498 reversed $378 $-1 #
edge $-1 $317 -1.776356839400250465e-15 $499 0.7619999999999986784 $377 $500 forward 7 unknown #
face $-1 $387 $378 $2 $-1 $501 reversed single #
coedge $-1 $502 $503 $382 $441 reversed $504 $-1 #
edge $-1 $442 3.498739975115256262e-15 $390 5.76202232873159037 $382 $505 forward 7 unknown #
vertex $-1 $441 $506 #
straight-curve $-1 10.25999999999999091 -11.15394668143629886 -95.37507058463255305 0 0.1736481776669364652 -0.9848077530122070211 I I #
plane-surface $-1 10.25999999999999091 -8.250544594563033129 -95.25 1 0 0 0 0.9848077530122079093 0.1736481776669317745 forward_v I I I I #
coedge $-1 $503 $502 $385 $446 forward $504 $-1 #
edge $-1 $447 3.498739975115256262e-15 $395 5.76202232873159037 $385 $507 forward 7 unknown #
vertex $-1 $386 $508 #
straight-curve $-1 -260.603999999999985 -11.15394668143629531 -95.37507058463255305 0 0.1736481776669265009 -0.9848077530122087975 I I #
plane-surface $-1 -260.603999999999985 -8.250544594563033129 -95.25 1 0 0 0 0.9848077530122079093 0.1736481776669317745 forward_v I I I I #
coedge $-1 $393 $388 $503 $509 reversed $452 $-1 #
coedge $-1 $388 $393 $398 $457 forward $452 $-1 #
loop $-1 $-1 $451 $510 #
ellipse-curve $-1 10.25999999999999091 -5.325089189126074984 -95.25 -1 0 0 0 -0.02205331856369596721 0.1250705846325530501 1 I I #
point $-1 10.25999999999999091 -5.347142507689770063 -95.12492941536744695 #
ellipse-curve $-1 -260.603999999999985 -5.32508918912607232 -95.25 -1 0 0 0 -0.02205331856369863175 0.1250705846325530501 1 I I #
point $-1 -260.603999999999985 -5.347142507689770063 -95.12492941536744695 #
edge $-1 $343 1.164954966656346894e-32 $338 270.8639999999999759 $398 $511 forward 7 unknown #
face $-1 $406 $400 $2 $-1 $512 reversed single #
straight-curve $-1 -260.603999999999985 -36.00394366510190736 -121.1584022014771307 1 0 0 I I #
cone-surface $-1 -260.603999999999985 -30.86100000000000065 -127.2875237908721573 -1 0 0 0 0 8.000999999999999446 1 I I 0 1 8.000999999999999446 forward I I I I #
face $-1 $513 $514 $2 $-1 $515 reversed single #
loop $-1 $-1 $516 $409 #
plane-surface $-1 -260.603999999999985 12.31899999999999906 -10.15999999999999659 1 0 0 0 0 -1 forward_v I I I I #
coedge $-1 $517 $467 $518 $519 forward $410 $-1 #
coedge $-1 $415 $412 $520 $521 forward $358 $-1 #
coedge $-1 $412 $415 $522 $523 reversed $358 $-1 #
coedge $-1 $464 $524 $412 $468 reversed $410 $-1 #
edge $-1 $525 0 $526 270.8639999999999759 $412 $527 forward 7 unknown #
coedge $-1 $528 $529 $413 $470 reversed $530 $-1 #
edge $-1 $474 0 $422 1.570796326794878572 $413 $531 forward 7 unknown #
coedge $-1 $532 $533 $414 $472 forward $514 $-1 #
edge $-1 $473 0 $421 1.570796326794896558 $414 $534 forward 7 unknown #
vertex $-1 $472 $535 #
vertex $-1 $470 $536 #
straight-curve $-1 -260.603999999999985 12.69999999999999929 -20.31999999999999673 1 0 0 I I #
coedge $-1 $537 $417 $529 $538 forward $478 $-1 #
coedge $-1 $417 $537 $424 $487 reversed $478 $-1 #
loop $-1 $-1 $476 $539 #
ellipse-curve $-1 10.25999999999999091 11.81099999999999994 -44.32299999999997908 1 0 0 0 3.552713678800500929e-15 23.11399999999999011 1 I I #
coedge $-1 $540 $419 $429 $490 forward $482 $-1 #
coedge $-1 $419 $540 $532 $541 reversed $482 $-1 #
loop $-1 $-1 $480 $513 #
ellipse-curve $-1 -260.603999999999985 11.8110000000000035 -44.32299999999998619 1 0 0 0 0 23.11399999999999721 1 I I #
point $-1 -260.603999999999985 11.81099999999999994 -21.20899999999999608 #
point $-1 10.25999999999999091 11.8110000000000035 -21.20899999999998897 #
coedge $-1 $425 $424 $542 $543 forward $426 $-1 #
edge $-1 $370 0 $544 0.7620000000000004547 $424 $545 forward 7 unknown #
face $-1 $539 $426 $2 $-1 $546 forward single #
coedge $-1 $429 $428 $547 $548 reversed $430 $-1 #
edge $-1 $369 6.625603403431065986e-29 $549 0.7620000000000004547 $429 $550 forward 7 unknown #
face $-1 $439 $430 $2 $-1 $551 reversed single #
coedge $-1 $552 $553 $434 $493 reversed $554 $-1 #
edge $-1 $494 0 $442 1.745329251994325981 $434 $555 forward 7 unknown #
vertex $-1 $493 $556 #
straight-curve $-1 10.25999999999999091 -11.30299999999999372 -95.25 0 -1 0 I I #
plane-surface $-1 10.25999999999999091 -11.50253610572075758 -95.63915057710443079 1 0 0 0 0 -1 forward_v I I I I #
coedge $-1 $553 $552 $437 $498 forward $554 $-1 #
edge $-1 $499 0 $447 1.745329251994329756 $437 $557 forward 7 unknown #
vertex $-1 $438 $558 #
straight-curve $-1 -260.603999999999985 -11.3029999999999955 -95.25 0 -1 0 I I #
plane-surface $-1 -260.603999999999985 -11.50253610572075758 -95.63915057710443079 1 0 0 0 0 -1 forward_v I I I I #
coedge $-1 $445 $440 $553 $559 reversed $504 $-1 #
coedge $-1 $440 $445 $450 $509 forward $504 $-1 #
loop $-1 $-1 $503 $560 #
straight-curve $-1 10.25999999999999091 -11.02162677005409641 -96.12549409242785714 0 0.9848077530122079093 0.1736481776669316357 I I #
point $-1 10.25999999999999091 -11.02162677005409286 -96.12549409242785714 #
straight-curve $-1 -260.603999999999985 -11.02162677005409641 -96.12549409242785714 0 0.9848077530122079093 0.1736481776669316357 I I #
point $-1 -260.603999999999985 -11.02162677005409286 -96.12549409242785714 #
edge $-1 $395 0 $390 270.8639999999999759 $450 $561 forward 7 unknown #
face $-1 $458 $452 $2 $-1 $562 reversed single #
straight-curve $-1 -260.603999999999985 -5.243455162695881633 -95.3472876442761077 1 -6.55811344217116558e-18 0 I I #
plane-surface $-1 -260.603999999999985 -5.243455162695883409 -95.3472876442761077 0 0.6427876096865272615 -0.7660444431189883385 0 -0.7660444431189883385 -0.6427876096865272615 forward_v I I I I #
face $-1 $491 $482 $2 $-1 $563 reversed single #
loop $-1 $-1 $532 $461 #
plane-surface $-1 -260.603999999999985 12.17021024484276559 -20.67921024484276415 1 0 0 0 0 -1 forward_v I I I I #
coedge $-1 $564 $522 $533 $565 forward $462 $-1 #
coedge $-1 $524 $464 $566 $567 forward $410 $-1 #
coedge $-1 $522 $564 $464 $519 reversed $462 $-1 #
edge $-1 $525 0 $568 0.7620000000000004547 $518 $569 forward 7 unknown #
coedge $-1 $570 $571 $465 $521 reversed $572 $-1 #
edge $-1 $526 0 $474 20.32000000000000028 $465 $573 forward 7 unknown #
coedge $-1 $516 $518 $466 $523 forward $462 $-1 #
edge $-1 $525 0 $473 20.32000000000000028 $466 $574 forward 7 unknown #
coedge $-1 $467 $517 $570 $575 reversed $410 $-1 #
vertex $-1 $523 $576 #
vertex $-1 $521 $577 #
straight-curve $-1 -260.603999999999985 12.69999999999999929 1.276756478318930021e-15 1 0 0 I I #
coedge $-1 $578 $469 $571 $579 forward $530 $-1 #
coedge $-1 $469 $578 $476 $538 reversed $530 $-1 #
loop $-1 $-1 $528 $580 #
ellipse-curve $-1 10.25999999999999091 11.81099999999999461 -20.31999999999998963 -1 0 0 0 0.8890000000000046754 -7.105427357601001859e-15 1 I I #
coedge $-1 $581 $471 $481 $541 forward $514 $-1 #
coedge $-1 $471 $581 $516 $565 reversed $514 $-1 #
ellipse-curve $-1 -260.603999999999985 11.81099999999999994 -20.31999999999999673 -1 0 0 0 0.8889999999999993463 0 1 I I #
point $-1 -260.603999999999985 12.69999999999999929 -20.31999999999999673 #
point $-1 10.25999999999999091 12.69999999999999929 -20.31999999999999673 #
coedge $-1 $477 $476 $582 $583 forward $478 $-1 #
edge $-1 $422 7.105427357601001859e-15 $584 0.7620000000000004547 $476 $585 forward 7 unknown #
face $-1 $580 $478 $2 $-1 $586 forward single #
coedge $-1 $481 $480 $587 $588 reversed $482 $-1 #
edge $-1 $421 -7.105427357601001859e-15 $589 0.7619999999999933493 $481 $590 forward 7 unknown #
coedge $-1 $591 $592 $486 $543 reversed $593 $-1 #
edge $-1 $544 0 $494 50.92700000000001381 $486 $594 forward 7 unknown #
vertex $-1 $543 $595 #
straight-curve $-1 10.25999999999999091 -11.30299999999999372 -44.32299999999998619 0 -1 0 I I #
plane-surface $-1 10.25999999999999091 -11.68399999999999395 -69.78649999999998954 1 0 0 0 0 -1 forward_v I I I I #
coedge $-1 $592 $591 $489 $548 forward $593 $-1 #
edge $-1 $549 0 $499 50.92700000000001381 $489 $596 forward 7 unknown #
vertex $-1 $490 $597 #
straight-curve $-1 -260.603999999999985 -11.30299999999999372 -44.32299999999999329 0 -1 9.324707818374012141e-15 I I #
plane-surface $-1 -260.603999999999985 -11.68399999999999395 -69.78649999999998954 1 0 0 0 0 -1 forward_v I I I I #
coedge $-1 $497 $492 $592 $598 reversed $554 $-1 #
coedge $-1 $492 $497 $502 $559 forward $554 $-1 #
loop $-1 $-1 $553 $599 #
ellipse-curve $-1 10.25999999999999091 -11.17599999999999127 -95.25 1 0 0 0 -0.889000000000002899 0 1 I I #
point $-1 10.25999999999999091 -12.06499999999999417 -95.25 #
ellipse-curve $-1 -260.603999999999985 -11.17599999999999483 -95.25 1 0 0 0 -0.8889999999999993463 0 1 I I #
point $-1 -260.603999999999985 -12.06499999999999417 -95.25 #
edge $-1 $447 0 $442 270.8639999999999759 $502 $600 forward 7 unknown #
face $-1 $510 $504 $2 $-1 $601 reversed single #
straight-curve $-1 -260.603999999999985 -5.34714250768977184 -95.12492941536744695 1 0 0 I I #
cone-surface $-1 -260.603999999999985 -5.32508918912607232 -95.25 -1 0 0 0 0 0.1270000000000001128 1 I I 0 1 0.1270000000000001128 forward I I I I #
plane-surface $-1 -260.603999999999985 -4.80247382397792677 -27.70952617602205592 1 0 0 0 -1 0 forward_v I I I I #
coedge $-1 $518 $516 $602 $603 reversed $462 $-1 #
edge $-1 $473 0 $604 0.7620000000000004547 $533 $605 forward 7 unknown #
coedge $-1 $602 $606 $517 $567 reversed $607 $-1 #
edge $-1 $568 0 $608 270.8639999999999759 $517 $609 forward 7 unknown #
vertex $-1 $519 $610 #
straight-curve $-1 -260.603999999999985 12.69999999999999929 1.276756478318930021e-15 0 -1 0 I I #
coedge $-1 $611 $520 $524 $575 forward $572 $-1 #
coedge $-1 $520 $611 $528 $579 reversed $572 $-1 #
loop $-1 $-1 $570 $612 #
straight-curve $-1 10.25999999999999091 12.69999999999999929 1.776356839400250465e-15 0 0 -1 I I #
straight-curve $-1 -260.603999999999985 12.69999999999999929 1.776356839400250465e-15 0 0 -1 I I #
edge $-1 $526 0 $608 0.7620000000000004547 $570 $613 forward 7 unknown #
point $-1 -260.603999999999985 12.69999999999999929 1.776356839400250465e-15 #
point $-1 10.25999999999999091 12.69999999999999929 1.776356839400250465e-15 #
coedge $-1 $529 $528 $614 $615 forward $530 $-1 #
edge $-1 $474 0 $616 0.7620000000000004547 $528 $617 forward 7 unknown #
face $-1 $612 $530 $2 $-1 $618 forward single #
coedge $-1 $533 $532 $619 $620 reversed $514 $-1 #
coedge $-1 $621 $622 $537 $583 reversed $623 $-1 #
edge $-1 $584 1.487985290166066764e-16 $544 1.570796326794896336 $537 $624 forward 7 unknown #
vertex $-1 $583 $625 #
straight-curve $-1 10.25999999999999091 11.81099999999999994 -21.20899999999999608 0 0 1 I I #
plane-surface $-1 10.25999999999999091 -4.80247382397792677 -27.70952617602205592 1 0 0 0 -1 0 forward_v I I I I #
coedge $-1 $622 $621 $540 $588 forward $623 $-1 #
edge $-1 $589 1.487985290166067257e-16 $549 1.570796326794896558 $540 $626 forward 7 unknown #
vertex $-1 $541 $627 #
straight-curve $-1 -260.603999999999985 11.8110000000000035 -21.20899999999998897 0 0 1 I I #
coedge $-1 $547 $542 $622 $628 reversed $593 $-1 #
coedge $-1 $542 $547 $552 $598 forward $593 $-1 #
loop $-1 $-1 $592 $629 #
straight-curve $-1 10.25999999999999091 -12.06499999999999417 -44.32299999999998619 0 0 -1 I I #
point $-1 10.25999999999999091 -12.06499999999999417 -44.32299999999998619 #
straight-curve $-1 -260.603999999999985 -12.06499999999999417 -44.32299999999998619 0 0 -1 I I #
point $-1 -260.603999999999985 -12.06499999999999417 -44.32299999999998619 #
edge $-1 $499 0 $494 270.8639999999999759 $552 $630 forward 7 unknown #
face $-1 $560 $554 $2 $-1 $631 forward single #
straight-curve $-1 -260.603999999999985 -11.02162677005409286 -96.12549409242785714 1 0 0 I I #
plane-surface $-1 -260.603999999999985 -11.02162677005409286 -96.12549409242785714 0 -0.1736481776669317467 0.9848077530122077983 0 0.9848077530122077983 0.1736481776669317467 forward_v I I I I #
coedge $-1 $632 $566 $564 $603 forward $607 $-1 #
edge $-1 $568 0 $604 20.32000000000000028 $564 $633 forward 7 unknown #
vertex $-1 $565 $634 #
straight-curve $-1 -260.603999999999985 12.69999999999999929 -20.31999999999999673 0 -1 0 I I #
coedge $-1 $566 $632 $611 $635 reversed $607 $-1 #
loop $-1 $-1 $632 $636 #
vertex $-1 $635 $637 #
straight-curve $-1 -260.603999999999985 11.93799999999999883 1.276756478318930021e-15 1 0 0 I I #
point $-1 -260.603999999999985 11.93799999999999883 1.776356839400250465e-15 #
coedge $-1 $571 $570 $606 $635 forward $572 $-1 #
face $-1 $636 $572 $2 $-1 $638 forward single #
straight-curve $-1 10.25999999999999091 12.69999999999999929 1.776356839400250465e-15 0 -1 0 I I #
coedge $-1 $639 $640 $578 $615 reversed $641 $-1 #
edge $-1 $616 0 $584 1.570796326794910769 $578 $642 forward 7 unknown #
vertex $-1 $615 $643 #
straight-curve $-1 10.25999999999999091 12.69999999999999929 -20.31999999999999673 0 -1 0 I I #
plane-surface $-1 10.25999999999999091 12.17021024484276559 -20.67921024484276415 1 0 0 0 0 -1 forward_v I I I I #
coedge $-1 $640 $639 $581 $620 forward $641 $-1 #
edge $-1 $604 0 $589 1.570796326794896558 $581 $644 forward 7 unknown #
coedge $-1 $587 $582 $640 $645 reversed $623 $-1 #
coedge $-1 $582 $587 $591 $628 forward $623 $-1 #
loop $-1 $-1 $622 $646 #
ellipse-curve $-1 10.25999999999999091 11.8110000000000035 -44.32299999999999329 1 0 0 0 0 23.87600000000000477 1 I I #
point $-1 10.25999999999999091 11.81099999999999994 -20.44699999999999562 #
ellipse-curve $-1 -260.603999999999985 11.8110000000000035 -44.32299999999998619 1 0 0 0 0 23.87599999999999767 1 I I #
point $-1 -260.603999999999985 11.81099999999999994 -20.44699999999999562 #
edge $-1 $549 0 $544 270.8639999999999759 $591 $647 forward 7 unknown #
face $-1 $599 $593 $2 $-1 $648 reversed single #
straight-curve $-1 -260.603999999999985 -12.06499999999999417 -95.25 1 0 0 I I #
cone-surface $-1 -260.603999999999985 -11.17599999999999483 -95.25 -1 0 0 0 0 0.8889999999999999014 1 I I 0 1 0.8889999999999999014 forward I I I I #
coedge $-1 $606 $602 $639 $649 forward $607 $-1 #
straight-curve $-1 -260.603999999999985 11.93799999999999883 1.776356839400250465e-15 0 0 -1 I I #
point $-1 -260.603999999999985 11.93799999999999883 -20.31999999999999673 #
edge $-1 $608 4.996003610813204432e-16 $616 20.32000000000000028 $611 $650 forward 7 unknown #
face $-1 $651 $607 $2 $-1 $652 reversed single #
point $-1 10.25999999999999091 11.93799999999999883 1.276756478318930021e-15 #
plane-surface $-1 10.25999999999999091 12.31899999999999906 -10.15999999999999659 1 0 0 0 0 -1 forward_v I I I I #
coedge $-1 $619 $614 $632 $649 reversed $641 $-1 #
coedge $-1 $614 $619 $621 $645 forward $641 $-1 #
loop $-1 $-1 $640 $651 #
ellipse-curve $-1 10.25999999999999091 11.81100000000000172 -20.31999999999999673 -1 0 0 0 0.1269999999999988916 0 1 I I #
point $-1 10.25999999999999091 11.93799999999999883 -20.31999999999999673 #
ellipse-curve $-1 -260.603999999999985 11.81099999999999994 -20.31999999999999673 -1 0 0 0 0.1270000000000006679 0 1 I I #
edge $-1 $589 0 $584 270.8639999999999759 $621 $653 forward 7 unknown #
face $-1 $629 $623 $2 $-1 $654 forward single #
straight-curve $-1 -260.603999999999985 -12.06499999999999417 -44.32299999999999329 1 0 0 I I #
plane-surface $-1 -260.603999999999985 -12.06499999999999417 -44.32299999999999329 0 1 0 0 0 -1 forward_v I I I I #
edge $-1 $604 0 $616 270.8639999999999759 $639 $655 forward 7 unknown #
straight-curve $-1 10.25999999999999091 11.93799999999999883 1.776356839400250465e-15 0 0 -1 I I #
face $-1 $646 $641 $2 $-1 $656 reversed single #
plane-surface $-1 -260.603999999999985 11.93799999999999883 0 0 1 0 0 0 -1 forward_v I I I I #
straight-curve $-1 -260.603999999999985 11.81099999999999817 -20.44699999999999562 1 0 2.623245376868466848e-17 I I #
cone-surface $-1 -260.603999999999985 11.8110000000000035 -44.32299999999998619 -1 0 0 0 0 23.87599999999999767 1 I I 0 1 23.87599999999999767 forward I I I I #
straight-curve $-1 -260.603999999999985 11.93799999999999883 -20.31999999999999673 1 0 0 I I #
cone-surface $-1 -260.603999999999985 11.81099999999999994 -20.31999999999999673 -1 0 0 0 0 0.1270000000000001128 1 I I 0 1 0.1270000000000001128 forward I I I I #
End-of-ACIS-data 