700 0 2 0           
24 FBMach with ACIS - 7.0.3 13 ACIS 7.0.3 NT 24 Wed May 15 09:31:32 2002 
1 9.9999999999999995e-007 1e-010 
body $2 -1 $-1 $3 $-1 $4 #
bdycol-kcp $-1 -1 1 3 $5 $6 $7 #
model_id-kcp-attrib $-1 -1 $-1 $-1 $0 1 1021469491 1021469492 -1118371839 1 #
lump $-1 -1 $-1 $-1 $8 $0 #
transform $-1 -1 1 0 0 0 1 0 0 0 1 0 0 0 1 rotate no_reflect no_shear #
body $9 -1 $-1 $10 $-1 $11 #
body $12 -1 $-1 $13 $-1 $14 #
body $15 -1 $-1 $16 $-1 $17 #
shell $-1 -1 $-1 $-1 $-1 $18 $-1 $3 #
rgb_color-st-attrib $-1 -1 $19 $-1 $5 0.5 1 1 #
lump $-1 -1 $-1 $-1 $20 $5 #
transform $-1 -1 1 0 0 0 1 0 0 0 1 0 0 0 1 no_rotate no_reflect no_shear #
rgb_color-st-attrib $-1 -1 $21 $-1 $6 0.5 1 1 #
lump $-1 -1 $-1 $-1 $22 $6 #
transform $-1 -1 1 0 0 0 1 0 0 0 1 0 0 0 1 no_rotate no_reflect no_shear #
model_id-kcp-attrib $-1 -1 $-1 $-1 $7 1 1021469491 1021469492 -1118371838 1 #
lump $-1 -1 $-1 $-1 $23 $7 #
transform $-1 -1 1 0 0 0 1 0 0 0 1 317.5 126.99999999999997 -1.5874999999999999 1 no_rotate no_reflect no_shear #
face $24 -1 $-1 $25 $26 $8 $-1 $27 forward single #
model_id-kcp-attrib $-1 -1 $-1 $9 $5 1 1021469491 1021469492 -1121976317 1 #
shell $-1 -1 $-1 $-1 $-1 $28 $-1 $10 #
model_id-kcp-attrib $-1 -1 $-1 $12 $6 1 1021469491 1021469492 -1118699516 1 #
shell $-1 -1 $-1 $-1 $-1 $29 $-1 $13 #
shell $-1 -1 $-1 $-1 $-1 $30 $-1 $16 #
model_id-kcp-attrib $-1 -1 $-1 $-1 $18 1 1021469491 1021469492 -1118371839 2 #
face $31 -1 $-1 $32 $33 $8 $-1 $34 forward single #
loop $-1 -1 $-1 $35 $36 $18 #
plane-surface $-1 -1 $-1 0 0 0 0 0 1 1 0 0 forward_v I I I I #
face $-1 -1 $-1 $37 $38 $20 $-1 $39 forward single #
face $-1 -1 $-1 $40 $41 $22 $-1 $42 forward single #
face $43 -1 $-1 $44 $45 $23 $-1 $46 forward single #
model_id-kcp-attrib $-1 -1 $-1 $-1 $25 1 1021469491 1021469492 -1118371839 3 #
face $47 -1 $-1 $48 $49 $8 $-1 $50 forward single #
loop $-1 -1 $-1 $-1 $51 $25 #
plane-surface $-1 -1 $-1 298.44999999999999 65.991135768374178 -1.5874999999999999 0 -1 0 1 0 0 forward_v I I I I #
loop $-1 -1 $-1 $52 $53 $18 #
coedge $-1 -1 $-1 $54 $55 $56 $57 forward $26 $-1 #
face $-1 -1 $-1 $58 $59 $20 $-1 $60 forward single #
loop $-1 -1 $-1 $-1 $61 $28 #
plane-surface $-1 -1 $-1 581.10119999999995 235.17860000000002 0 0 1 0 0 0 1 forward_v I I I I #
face $-1 -1 $-1 $62 $63 $22 $-1 $64 forward single #
loop $-1 -1 $-1 $-1 $65 $29 #
plane-surface $-1 -1 $-1 174.48967709571485 197.20154167482411 0 0.1880670347353546 0.98215619452602898 0 0 0 1 forward_v I I I I #
model_id-kcp-attrib $-1 -1 $-1 $-1 $30 1 1021469491 1021469492 -1118371838 2 #
face $66 -1 $-1 $67 $68 $23 $-1 $69 reversed single #
loop $-1 -1 $-1 $-1 $70 $30 #
plane-surface $-1 -1 $-1 0 0 1.5874999999999999 0 0 1 1 0 0 forward_v I I I I #
model_id-kcp-attrib $-1 -1 $-1 $-1 $32 1 1021469491 1021469492 -1118371839 4 #
face $71 -1 $-1 $72 $73 $8 $-1 $74 forward single #
loop $-1 -1 $-1 $-1 $75 $32 #
plane-surface $-1 -1 $-1 152.39999999999998 32.995567884187089 -1.5874999999999999 0.50000000000000011 -0.86602540378443871 0 0.86602540378443849 0.5 0 forward_v I I I I #
coedge $-1 -1 $-1 $76 $56 $77 $78 forward $33 $-1 #
loop $-1 -1 $-1 $-1 $79 $18 #
coedge $-1 -1 $-1 $80 $81 $82 $83 reversed $35 $-1 #
coedge $-1 -1 $-1 $84 $36 $85 $86 forward $26 $-1 #
coedge $-1 -1 $-1 $36 $87 $88 $89 forward $26 $-1 #
coedge $-1 -1 $-1 $51 $90 $36 $57 reversed $33 $-1 #
edge $91 -1 $-1 $92 0 $93 177.79999999999998 $36 $94 forward @7 unknown #
face $-1 -1 $-1 $95 $96 $20 $-1 $97 forward single #
loop $-1 -1 $-1 $-1 $98 $37 #
cone-surface $-1 -1 $-1 307.1114 222.47859999999991 0 0 0 -1 -5.6843418860808015e-014 12.700000000000102 0 1 I I 0 1 12.700000000000102 forward I I I I #
coedge $-1 -1 $-1 $99 $100 $101 $102 forward $38 $-1 #
face $-1 -1 $-1 $103 $104 $22 $-1 $105 forward single #
loop $-1 -1 $-1 $-1 $106 $40 #
plane-surface $-1 -1 $-1 49.032384138021285 221.22458526400021 0 -0.9821561945260292 0.18806703473535416 0 0 0 1 forward_v I I I I #
coedge $-1 -1 $-1 $107 $108 $109 $110 forward $41 $-1 #
model_id-kcp-attrib $-1 -1 $-1 $-1 $44 1 1021469491 1021469492 -1118371838 8 #
face $111 -1 $-1 $112 $113 $23 $-1 $114 reversed single #
loop $-1 -1 $-1 $-1 $115 $44 #
plane-surface $-1 -1 $-1 0 0 -1.5874999999999999 0 0 1 1 0 0 forward_v I I I I #
coedge $-1 -1 $-1 $116 $117 $118 $119 forward $45 $-1 #
model_id-kcp-attrib $-1 -1 $-1 $-1 $48 1 1021469491 1021469492 -1118371839 5 #
face $120 -1 $-1 $121 $122 $8 $-1 $123 forward single #
loop $-1 -1 $-1 $-1 $124 $48 #
plane-surface $-1 -1 $-1 317.5 0 -1.5874999999999999 0 -1 0 1 0 0 forward_v I I I I #
coedge $-1 -1 $-1 $125 $88 $126 $127 forward $49 $-1 #
coedge $-1 -1 $-1 $90 $51 $128 $129 forward $33 $-1 #
coedge $-1 -1 $-1 $88 $125 $51 $78 reversed $49 $-1 #
edge $130 -1 $-1 $92 0 $131 3.1749999999999998 $77 $132 forward @7 unknown #
coedge $-1 -1 $-1 $133 $134 $135 $136 forward $52 $-1 #
coedge $-1 -1 $-1 $137 $53 $138 $139 forward $35 $-1 #
coedge $-1 -1 $-1 $53 $140 $141 $142 forward $35 $-1 #
coedge $-1 -1 $-1 $143 $144 $53 $83 forward $145 $-1 #
edge $146 -1 $-1 $147 0 $148 1.5707963267949347 $53 $149 forward @7 unknown #
coedge $-1 -1 $-1 $150 $54 $151 $152 forward $26 $-1 #
coedge $-1 -1 $-1 $153 $154 $54 $86 reversed $155 $-1 #
edge $156 -1 $-1 $93 -4.2122417413818238e-014 $157 131.98227153674847 $54 $158 forward @7 unknown #
coedge $-1 -1 $-1 $55 $159 $124 $160 forward $26 $-1 #
coedge $-1 -1 $-1 $75 $77 $55 $89 reversed $49 $-1 #
edge $161 -1 $-1 $162 7.105427357601005e-015 $92 131.98227153674847 $55 $163 forward @7 unknown #
coedge $-1 -1 $-1 $56 $76 $153 $164 reversed $33 $-1 #
attrib_edge_convexity-kcp-attrib $-1 -1 $165 $-1 $57 1 #
vertex $-1 -1 $-1 $89 $166 #
vertex $-1 -1 $-1 $86 $167 #
straight-curve $-1 -1 $-1 209.54999999999998 65.991135768374178 0 1 0 0 I I #
face $-1 -1 $-1 $168 $169 $20 $-1 $170 forward single #
loop $-1 -1 $-1 $-1 $171 $58 #
plane-surface $-1 -1 $-1 294.41139999999996 222.47860000000003 0 -1 0 0 0 0 1 forward_v I I I I #
coedge $-1 -1 $-1 $172 $173 $174 $175 forward $59 $-1 #
coedge $-1 -1 $-1 $176 $61 $173 $177 reversed $38 $-1 #
coedge $-1 -1 $-1 $61 $176 $178 $179 forward $38 $-1 #
coedge $-1 -1 $-1 $180 $174 $61 $102 reversed $181 $-1 #
edge $-1 -1 $-1 $182 -273.9898 $183 0 $61 $184 forward @7 unknown #
face $-1 -1 $-1 $185 $186 $22 $-1 $187 forward single #
loop $-1 -1 $-1 $-1 $188 $62 #
plane-surface $-1 -1 $-1 21.894800000000004 79.501999999999995 0 0 -1 0 0 0 -1 forward_v I I I I #
coedge $-1 -1 $-1 $189 $190 $191 $192 forward $63 $-1 #
coedge $-1 -1 $-1 $193 $65 $190 $194 reversed $41 $-1 #
coedge $-1 -1 $-1 $65 $193 $195 $196 forward $41 $-1 #
coedge $-1 -1 $-1 $197 $191 $65 $110 reversed $198 $-1 #
edge $-1 -1 $-1 $199 -127.73660000000001 $200 0 $65 $201 forward @7 unknown #
model_id-kcp-attrib $-1 -1 $-1 $-1 $67 1 1021469491 1021469492 -1118371838 3 #
face $202 -1 $-1 $203 $204 $23 $-1 $205 reversed single #
loop $-1 -1 $-1 $-1 $206 $67 #
plane-surface $-1 -1 $-1 0 -127.00000000000003 0 0 1 0 0 0 1 forward_v I I I I #
coedge $-1 -1 $-1 $207 $208 $209 $210 forward $68 $-1 #
coedge $-1 -1 $-1 $211 $70 $212 $213 forward $45 $-1 #
coedge $-1 -1 $-1 $70 $211 $214 $215 forward $45 $-1 #
coedge $-1 -1 $-1 $216 $217 $70 $119 reversed $218 $-1 #
edge $-1 -1 $-1 $219 -127.00000000000003 $220 127.00000000000003 $118 $221 forward @7 unknown #
model_id-kcp-attrib $-1 -1 $-1 $-1 $72 1 1021469491 1021469492 -1118371839 6 #
face $222 -1 $-1 $223 $224 $8 $-1 $225 forward single #
loop $-1 -1 $-1 $-1 $226 $72 #
plane-surface $-1 -1 $-1 0 127 -1.5874999999999999 -1 0 0 0 -1 0 forward_v I I I I #
coedge $-1 -1 $-1 $227 $126 $87 $160 reversed $73 $-1 #
coedge $-1 -1 $-1 $77 $75 $228 $229 forward $49 $-1 #
coedge $-1 -1 $-1 $124 $230 $75 $127 reversed $73 $-1 #
edge $231 -1 $-1 $162 0 $232 3.1749999999999998 $75 $233 forward @7 unknown #
coedge $-1 -1 $-1 $228 $234 $76 $129 reversed $235 $-1 #
edge $236 -1 $-1 $131 0 $237 177.79999999999998 $76 $238 forward @7 unknown #
attrib_edge_convexity-kcp-attrib $-1 -1 $239 $-1 $78 2 #
vertex $-1 -1 $-1 $78 $240 #
straight-curve $-1 -1 $-1 209.5499999999999 65.991135768374178 0 0 0 -1 I I #
coedge $-1 -1 $-1 $241 $79 $242 $243 forward $52 $-1 #
coedge $-1 -1 $-1 $79 $244 $245 $246 forward $52 $-1 #
coedge $-1 -1 $-1 $247 $248 $79 $136 reversed $249 $-1 #
edge $250 -1 $-1 $251 0 $252 71.475600000000014 $79 $253 forward @7 unknown #
coedge $-1 -1 $-1 $254 $80 $255 $256 reversed $35 $-1 #
coedge $-1 -1 $-1 $257 $258 $80 $139 reversed $259 $-1 #
edge $260 -1 $-1 $147 0 $261 116.0018 $80 $262 forward @7 unknown #
coedge $-1 -1 $-1 $81 $263 $264 $265 reversed $35 $-1 #
coedge $-1 -1 $-1 $266 $267 $81 $142 reversed $268 $-1 #
edge $269 -1 $-1 $270 0 $148 273.9898 $81 $271 forward @7 unknown #
coedge $-1 -1 $-1 $272 $82 $267 $273 forward $145 $-1 #
coedge $-1 -1 $-1 $82 $272 $257 $274 reversed $145 $-1 #
loop $-1 -1 $-1 $-1 $143 $275 #
attrib_edge_convexity-kcp-attrib $-1 -1 $276 $-1 $83 1 #
vertex $-1 -1 $-1 $139 $277 #
vertex $-1 -1 $-1 $142 $278 #
ellipse-curve $-1 -1 $-1 581.10120000000018 222.47860000000028 0 0 0 1 12.699999999999818 -2.5579538487363607e-013 0 1 I I #
coedge $-1 -1 $-1 $279 $84 $280 $281 forward $26 $-1 #
coedge $-1 -1 $-1 $282 $283 $84 $152 reversed $284 $-1 #
edge $285 -1 $-1 $157 5.6843418860808015e-014 $286 133.35000000000002 $84 $287 forward @7 unknown #
coedge $-1 -1 $-1 $288 $85 $90 $164 forward $155 $-1 #
coedge $-1 -1 $-1 $85 $288 $282 $289 reversed $155 $-1 #
loop $-1 -1 $-1 $-1 $153 $290 #
attrib_edge_convexity-kcp-attrib $-1 -1 $291 $-1 $86 1 #
vertex $-1 -1 $-1 $152 $292 #
straight-curve $-1 -1 $-1 387.35000000000002 65.991135768374193 0 0.86602540378443871 -0.5 0 I I #
coedge $-1 -1 $-1 $87 $279 $293 $294 forward $26 $-1 #
edge $295 -1 $-1 $296 0 $162 95.25 $87 $297 forward @7 unknown #
attrib_edge_convexity-kcp-attrib $-1 -1 $298 $-1 $89 1 #
vertex $-1 -1 $-1 $89 $299 #
straight-curve $-1 -1 $-1 95.25 -1.4210854715202004e-014 0 0.8660254037844386 0.5 0 I I #
edge $300 -1 $-1 $93 0 $237 3.1749999999999998 $153 $301 forward @7 unknown #
convexity-sys-attrib $-1 -1 $-1 $91 $57 #
point $-1 -1 $-1 209.54999999999998 65.991135768374178 0 #
point $-1 -1 $-1 387.34999999999997 65.991135768374178 0 #
face $-1 -1 $-1 $302 $303 $20 $-1 $304 forward single #
loop $-1 -1 $-1 $-1 $305 $95 #
cone-surface $-1 -1 $-1 307.1114 106.47680000000013 0 0 0 -1 -12.700000000000045 -9.9475983006414026e-014 0 1 I I 0 1 12.700000000000045 forward I I I I #
coedge $-1 -1 $-1 $306 $307 $308 $309 forward $96 $-1 #
coedge $-1 -1 $-1 $310 $98 $307 $311 reversed $59 $-1 #
coedge $-1 -1 $-1 $98 $310 $99 $177 forward $59 $-1 #
coedge $-1 -1 $-1 $101 $308 $98 $175 reversed $181 $-1 #
edge $-1 -1 $-1 $183 0 $312 1.5707963267948832 $98 $313 forward @7 unknown #
coedge $-1 -1 $-1 $100 $99 $314 $315 forward $38 $-1 #
edge $-1 -1 $-1 $316 0 $183 3.1749999999999998 $173 $317 forward @7 unknown #
coedge $-1 -1 $-1 $318 $319 $100 $179 reversed $320 $-1 #
edge $-1 -1 $-1 $321 0 $182 3.1749999999999998 $100 $322 forward @7 unknown #
coedge $-1 -1 $-1 $323 $101 $319 $324 reversed $181 $-1 #
loop $-1 -1 $-1 $-1 $101 $325 #
vertex $-1 -1 $-1 $179 $326 #
vertex $-1 -1 $-1 $177 $327 #
straight-curve $-1 -1 $-1 307.11139999999995 235.17860000000002 -3.1749999999999998 -1 0 0 I I #
face $-1 -1 $-1 $328 $329 $22 $-1 $330 forward single #
loop $-1 -1 $-1 $-1 $331 $103 #
plane-surface $-1 -1 $-1 128.93039999999999 79.501999999999995 0 0.56518428202608395 -0.82496468248686861 0 0 0 -1 forward_v I I I I #
coedge $-1 -1 $-1 $332 $333 $334 $335 forward $104 $-1 #
coedge $-1 -1 $-1 $336 $106 $333 $337 reversed $63 $-1 #
coedge $-1 -1 $-1 $106 $336 $107 $194 forward $63 $-1 #
coedge $-1 -1 $-1 $109 $334 $106 $192 reversed $198 $-1 #
edge $-1 -1 $-1 $200 -144.29740000000001 $338 -1.3957278988045078e-014 $106 $339 forward @7 unknown #
coedge $-1 -1 $-1 $108 $107 $340 $341 forward $41 $-1 #
edge $-1 -1 $-1 $342 0 $200 3.1749999999999998 $190 $343 forward @7 unknown #
coedge $-1 -1 $-1 $344 $345 $108 $196 reversed $329 $-1 #
edge $-1 -1 $-1 $346 0 $199 3.1749999999999998 $108 $347 forward @7 unknown #
coedge $-1 -1 $-1 $348 $109 $345 $349 reversed $198 $-1 #
loop $-1 -1 $-1 $-1 $109 $328 #
vertex $-1 -1 $-1 $196 $350 #
vertex $-1 -1 $-1 $194 $351 #
straight-curve $-1 -1 $-1 49.032384138021285 221.22458526400021 -3.1749999999999998 -0.98215619452602898 0.1880670347353546 0 I I #
model_id-kcp-attrib $-1 -1 $-1 $-1 $112 1 1021469491 1021469492 -1118371838 4 #
face $352 -1 $-1 $353 $354 $23 $-1 $355 reversed single #
loop $-1 -1 $-1 $-1 $356 $112 #
plane-surface $-1 -1 $-1 -317.5 0 0 1 0 0 0 0 -1 forward_v I I I I #
coedge $-1 -1 $-1 $357 $214 $358 $359 forward $113 $-1 #
coedge $-1 -1 $-1 $360 $115 $357 $361 forward $68 $-1 #
coedge $-1 -1 $-1 $115 $360 $362 $363 forward $68 $-1 #
coedge $-1 -1 $-1 $217 $216 $115 $210 reversed $218 $-1 #
edge $-1 -1 $-1 $364 -127.00000000000003 $365 127.00000000000003 $209 $366 forward @7 unknown #
coedge $-1 -1 $-1 $117 $116 $367 $368 forward $45 $-1 #
coedge $-1 -1 $-1 $369 $370 $116 $213 reversed $354 $-1 #
edge $-1 -1 $-1 $220 -317.5 $371 317.5 $212 $372 forward @7 unknown #
coedge $-1 -1 $-1 $206 $373 $117 $215 reversed $113 $-1 #
edge $-1 -1 $-1 $374 -317.5 $219 317.5 $214 $375 forward @7 unknown #
coedge $-1 -1 $-1 $209 $118 $373 $376 forward $218 $-1 #
coedge $-1 -1 $-1 $118 $209 $369 $377 reversed $218 $-1 #
loop $-1 -1 $-1 $-1 $216 $353 #
vertex $-1 -1 $-1 $119 $378 #
vertex $-1 -1 $-1 $119 $379 #
straight-curve $-1 -1 $-1 317.5 0 1.5874999999999999 0 1 0 I I #
model_id-kcp-attrib $-1 -1 $-1 $-1 $121 1 1021469491 1021469492 -1118371839 7 #
face $380 -1 $-1 $381 $382 $8 $-1 $383 forward single #
loop $-1 -1 $-1 $-1 $384 $121 #
plane-surface $-1 -1 $-1 317.5 254 -1.5874999999999999 0 1 0 -1 0 0 forward_v I I I I #
coedge $-1 -1 $-1 $385 $293 $386 $387 forward $122 $-1 #
coedge $-1 -1 $-1 $230 $124 $388 $389 forward $73 $-1 #
coedge $-1 -1 $-1 $390 $128 $125 $229 reversed $235 $-1 #
edge $391 -1 $-1 $232 7.105427357601005e-015 $131 131.98227153674847 $125 $392 forward @7 unknown #
coedge $-1 -1 $-1 $126 $227 $390 $393 forward $73 $-1 #
attrib_edge_convexity-kcp-attrib $-1 -1 $394 $-1 $127 1 #
vertex $-1 -1 $-1 $229 $395 #
straight-curve $-1 -1 $-1 95.25 -1.4210854715202004e-014 0 0 0 -1 I I #
coedge $-1 -1 $-1 $128 $396 $288 $397 reversed $235 $-1 #
loop $-1 -1 $-1 $398 $390 $399 #
attrib_edge_convexity-kcp-attrib $-1 -1 $400 $-1 $129 1 #
vertex $-1 -1 $-1 $397 $401 #
straight-curve $-1 -1 $-1 209.54999999999998 65.991135768374178 -3.1749999999999998 1 0 0 I I #
convexity-sys-attrib $-1 -1 $-1 $130 $78 #
point $-1 -1 $-1 209.54999999999998 65.991135768374178 -3.1749999999999998 #
coedge $-1 -1 $-1 $244 $133 $402 $403 forward $52 $-1 #
coedge $-1 -1 $-1 $404 $405 $133 $243 reversed $406 $-1 #
edge $407 -1 $-1 $252 0 $408 99.847399999999993 $133 $409 forward @7 unknown #
coedge $-1 -1 $-1 $134 $241 $410 $411 forward $52 $-1 #
coedge $-1 -1 $-1 $412 $413 $134 $246 reversed $414 $-1 #
edge $415 -1 $-1 $416 0 $251 127.73660000000001 $134 $417 forward @7 unknown #
coedge $-1 -1 $-1 $418 $135 $413 $419 forward $249 $-1 #
coedge $-1 -1 $-1 $135 $418 $404 $420 reversed $249 $-1 #
loop $-1 -1 $-1 $-1 $247 $421 #
attrib_edge_convexity-kcp-attrib $-1 -1 $422 $-1 $136 1 #
vertex $-1 -1 $-1 $246 $423 #
vertex $-1 -1 $-1 $243 $424 #
straight-curve $-1 -1 $-1 174.48967709571485 197.20154167482411 0 0.51501913299677804 -0.85717868186699964 0 I I #
coedge $-1 -1 $-1 $425 $137 $426 $427 forward $35 $-1 #
coedge $-1 -1 $-1 $428 $429 $137 $256 forward $430 $-1 #
edge $431 -1 $-1 $432 0 $261 1.5707963267949057 $137 $433 forward @7 unknown #
coedge $-1 -1 $-1 $434 $138 $144 $274 forward $259 $-1 #
coedge $-1 -1 $-1 $138 $434 $428 $435 reversed $259 $-1 #
loop $-1 -1 $-1 $-1 $257 $436 #
attrib_edge_convexity-kcp-attrib $-1 -1 $437 $-1 $139 1 #
vertex $-1 -1 $-1 $256 $438 #
straight-curve $-1 -1 $-1 593.80119999999999 222.47860000000003 0 0 -1 0 I I #
coedge $-1 -1 $-1 $140 $425 $439 $440 forward $35 $-1 #
coedge $-1 -1 $-1 $441 $442 $140 $265 forward $443 $-1 #
edge $444 -1 $-1 $270 0 $445 1.5707963267948832 $140 $446 forward @7 unknown #
coedge $-1 -1 $-1 $447 $141 $442 $448 forward $268 $-1 #
coedge $-1 -1 $-1 $141 $447 $143 $273 reversed $268 $-1 #
loop $-1 -1 $-1 $-1 $266 $449 #
attrib_edge_convexity-kcp-attrib $-1 -1 $450 $-1 $142 1 #
vertex $-1 -1 $-1 $142 $451 #
straight-curve $-1 -1 $-1 307.11139999999995 235.17860000000002 0 1 0 0 I I #
coedge $-1 -1 $-1 $144 $143 $452 $453 reversed $145 $-1 #
edge $-1 -1 $-1 $148 2.0608276826032005e-026 $454 3.1749999999999998 $267 $455 forward @7 unknown #
edge $-1 -1 $-1 $147 0 $456 3.1749999999999998 $257 $457 forward @7 unknown #
face $458 -1 $-1 $449 $145 $8 $-1 $459 reversed single #
convexity-sys-attrib $-1 -1 $-1 $146 $83 #
point $-1 -1 $-1 593.80119999999999 222.47860000000003 0 #
point $-1 -1 $-1 581.10119999999995 235.17860000000002 0 #
coedge $-1 -1 $-1 $159 $150 $460 $461 forward $26 $-1 #
coedge $-1 -1 $-1 $462 $463 $150 $281 reversed $382 $-1 #
edge $464 -1 $-1 $286 0 $465 254 $150 $466 forward @7 unknown #
coedge $-1 -1 $-1 $467 $151 $154 $289 forward $284 $-1 #
coedge $-1 -1 $-1 $151 $467 $462 $468 reversed $284 $-1 #
loop $-1 -1 $-1 $-1 $467 $381 #
attrib_edge_convexity-kcp-attrib $-1 -1 $469 $-1 $152 1 #
vertex $-1 -1 $-1 $281 $470 #
straight-curve $-1 -1 $-1 501.64999999999998 0 0 1 0 0 I I #
coedge $-1 -1 $-1 $154 $153 $234 $397 forward $155 $-1 #
edge $471 -1 $-1 $157 0 $472 3.1749999999999998 $282 $473 forward @7 unknown #
face $474 -1 $-1 $475 $155 $8 $-1 $476 forward single #
convexity-sys-attrib $-1 -1 $-1 $156 $86 #
point $-1 -1 $-1 501.65000000000003 -2.8421709430404007e-014 0 #
coedge $-1 -1 $-1 $226 $388 $159 $294 reversed $122 $-1 #
edge $477 -1 $-1 $478 0 $296 254 $159 $479 forward @7 unknown #
attrib_edge_convexity-kcp-attrib $-1 -1 $480 $-1 $160 1 #
vertex $-1 -1 $-1 $160 $481 #
straight-curve $-1 -1 $-1 0 0 0 1 0 0 I I #
convexity-sys-attrib $-1 -1 $-1 $161 $89 #
point $-1 -1 $-1 95.25 0 0 #
attrib_edge_convexity-kcp-attrib $-1 -1 $482 $-1 $164 2 #
straight-curve $-1 -1 $-1 387.35000000000002 65.991135768374193 0 0 0 -1 I I #
face $-1 -1 $-1 $483 $484 $20 $-1 $485 forward single #
loop $-1 -1 $-1 $-1 $486 $168 #
plane-surface $-1 -1 $-1 307.11139999999995 93.776800000000037 0 0 -1 0 0 0 -1 forward_v I I I I #
coedge $-1 -1 $-1 $487 $488 $489 $490 forward $169 $-1 #
coedge $-1 -1 $-1 $491 $171 $488 $492 reversed $96 $-1 #
coedge $-1 -1 $-1 $171 $491 $172 $311 forward $96 $-1 #
coedge $-1 -1 $-1 $174 $489 $171 $309 reversed $181 $-1 #
edge $-1 -1 $-1 $312 -116.0018 $493 0 $171 $494 forward @7 unknown #
coedge $-1 -1 $-1 $173 $172 $495 $496 reversed $59 $-1 #
edge $-1 -1 $-1 $497 0 $312 3.1749999999999998 $307 $498 forward @7 unknown #
vertex $-1 -1 $-1 $311 $499 #
ellipse-curve $-1 -1 $-1 307.1114 222.47859999999991 -3.1749999999999998 0 0 1 -5.6843418860808015e-014 12.700000000000102 0 1 I I #
coedge $-1 -1 $-1 $495 $500 $176 $315 reversed $501 $-1 #
edge $-1 -1 $-1 $316 0 $321 273.9898 $176 $502 forward @7 unknown #
vertex $-1 -1 $-1 $496 $503 #
straight-curve $-1 -1 $-1 307.11139999999995 235.17860000000002 0 0 0 -1 I I #
coedge $-1 -1 $-1 $504 $178 $500 $505 reversed $320 $-1 #
coedge $-1 -1 $-1 $178 $504 $180 $324 forward $320 $-1 #
loop $-1 -1 $-1 $-1 $319 $506 #
vertex $-1 -1 $-1 $505 $507 #
straight-curve $-1 -1 $-1 581.10119999999995 235.17860000000002 0 0 0 -1 I I #
coedge $-1 -1 $-1 $508 $180 $509 $510 reversed $181 $-1 #
edge $-1 -1 $-1 $511 0 $182 1.5707963267949347 $319 $512 forward @7 unknown #
face $-1 -1 $-1 $513 $181 $20 $-1 $514 reversed single #
point $-1 -1 $-1 581.10119999999995 235.17860000000002 -3.1749999999999998 #
point $-1 -1 $-1 307.11139999999995 235.17860000000002 -3.1749999999999998 #
face $-1 -1 $-1 $515 $198 $22 $-1 $516 reversed single #
loop $-1 -1 $-1 $-1 $345 $185 #
plane-surface $-1 -1 $-1 211.30097863813936 135.9341810811712 0 0.85717868186699975 0.51501913299677815 0 0 0 -1 forward_v I I I I #
coedge $-1 -1 $-1 $517 $518 $348 $519 forward $186 $-1 #
coedge $-1 -1 $-1 $520 $188 $518 $521 reversed $104 $-1 #
coedge $-1 -1 $-1 $188 $520 $189 $337 forward $104 $-1 #
coedge $-1 -1 $-1 $191 $348 $188 $335 reversed $198 $-1 #
edge $-1 -1 $-1 $338 -107.03559999999999 $522 0 $188 $523 forward @7 unknown #
coedge $-1 -1 $-1 $190 $189 $524 $525 forward $63 $-1 #
edge $-1 -1 $-1 $526 0 $338 3.1749999999999998 $333 $527 forward @7 unknown #
vertex $-1 -1 $-1 $337 $528 #
straight-curve $-1 -1 $-1 21.894800000000004 79.501999999999981 -3.1749999999999998 -0.18806703473535416 -0.9821561945260292 0 I I #
coedge $-1 -1 $-1 $524 $529 $193 $341 reversed $530 $-1 #
edge $-1 -1 $-1 $342 0 $346 127.73660000000001 $193 $531 forward @7 unknown #
vertex $-1 -1 $-1 $525 $532 #
straight-curve $-1 -1 $-1 49.032384138021285 221.22458526400021 0 0 0 -1 I I #
coedge $-1 -1 $-1 $533 $195 $529 $534 forward $329 $-1 #
coedge $-1 -1 $-1 $195 $533 $197 $349 forward $329 $-1 #
vertex $-1 -1 $-1 $534 $535 #
straight-curve $-1 -1 $-1 174.48967709571485 197.20154167482411 0 0 0 -1 I I #
coedge $-1 -1 $-1 $334 $197 $331 $519 reversed $198 $-1 #
edge $-1 -1 $-1 $536 -71.475600000000014 $199 0 $345 $537 forward @7 unknown #
point $-1 -1 $-1 174.48967709571485 197.20154167482411 -3.1749999999999998 #
point $-1 -1 $-1 49.032384138021285 221.22458526400021 -3.1749999999999998 #
model_id-kcp-attrib $-1 -1 $-1 $-1 $203 1 1021469491 1021469492 -1118371838 5 #
face $538 -1 $-1 $-1 $218 $23 $-1 $539 reversed single #
loop $-1 -1 $-1 $-1 $369 $203 #
plane-surface $-1 -1 $-1 0 127.00000000000003 0 0 -1 0 0 0 -1 forward_v I I I I #
coedge $-1 -1 $-1 $540 $367 $370 $541 forward $204 $-1 #
coedge $-1 -1 $-1 $373 $206 $207 $361 reversed $113 $-1 #
coedge $-1 -1 $-1 $367 $540 $206 $359 reversed $204 $-1 #
edge $-1 -1 $-1 $374 -1.5874999999999999 $542 1.5874999999999999 $358 $543 forward @7 unknown #
coedge $-1 -1 $-1 $208 $207 $540 $544 forward $68 $-1 #
edge $-1 -1 $-1 $365 -317.5 $542 317.5 $357 $545 forward @7 unknown #
coedge $-1 -1 $-1 $370 $369 $208 $363 reversed $354 $-1 #
edge $-1 -1 $-1 $546 -317.5 $364 317.5 $362 $547 forward @7 unknown #
vertex $-1 -1 $-1 $210 $548 #
vertex $-1 -1 $-1 $376 $549 #
straight-curve $-1 -1 $-1 317.5 0 -1.5874999999999999 0 -1 0 I I #
coedge $-1 -1 $-1 $356 $358 $211 $368 reversed $204 $-1 #
edge $-1 -1 $-1 $371 -127.00000000000003 $374 127.00000000000003 $367 $550 forward @7 unknown #
coedge $-1 -1 $-1 $362 $212 $217 $377 forward $354 $-1 #
coedge $-1 -1 $-1 $212 $362 $356 $541 reversed $354 $-1 #
vertex $-1 -1 $-1 $213 $551 #
straight-curve $-1 -1 $-1 0 127.00000000000003 1.5874999999999999 -1 0 0 I I #
coedge $-1 -1 $-1 $214 $357 $216 $376 reversed $113 $-1 #
vertex $-1 -1 $-1 $368 $552 #
straight-curve $-1 -1 $-1 0 -127.00000000000003 1.5874999999999999 1 0 0 I I #
edge $-1 -1 $-1 $219 -1.5874999999999999 $365 1.5874999999999999 $216 $553 forward @7 unknown #
edge $-1 -1 $-1 $220 -1.5874999999999999 $364 1.5874999999999999 $217 $554 forward @7 unknown #
point $-1 -1 $-1 317.5 -127.00000000000003 1.5874999999999999 #
point $-1 -1 $-1 317.5 127.00000000000003 1.5874999999999999 #
model_id-kcp-attrib $-1 -1 $-1 $-1 $223 1 1021469491 1021469492 -1118371839 8 #
face $555 -1 $-1 $399 $284 $8 $-1 $556 forward single #
loop $-1 -1 $-1 $-1 $462 $223 #
plane-surface $-1 -1 $-1 635 127 -1.5874999999999999 1 0 0 0 1 0 forward_v I I I I #
coedge $-1 -1 $-1 $557 $460 $463 $558 forward $224 $-1 #
coedge $-1 -1 $-1 $388 $226 $559 $560 forward $122 $-1 #
coedge $-1 -1 $-1 $460 $557 $226 $387 reversed $224 $-1 #
edge $561 -1 $-1 $478 0 $562 3.1749999999999998 $226 $563 forward @7 unknown #
coedge $-1 -1 $-1 $293 $385 $227 $389 reversed $122 $-1 #
edge $564 -1 $-1 $296 0 $565 3.1749999999999998 $227 $566 forward @7 unknown #
coedge $-1 -1 $-1 $559 $228 $230 $393 reversed $235 $-1 #
attrib_edge_convexity-kcp-attrib $-1 -1 $567 $-1 $229 1 #
straight-curve $-1 -1 $-1 95.25 -1.4210854715202004e-014 -3.1749999999999998 0.8660254037844386 0.5 0 I I #
edge $568 -1 $-1 $565 0 $232 95.25 $230 $569 forward @7 unknown #
convexity-sys-attrib $-1 -1 $-1 $231 $127 #
point $-1 -1 $-1 95.25 0 -3.1749999999999998 #
coedge $-1 -1 $-1 $234 $570 $467 $571 reversed $235 $-1 #
edge $572 -1 $-1 $237 -4.2122417413818238e-014 $472 131.98227153674847 $288 $573 forward @7 unknown #
loop $-1 -1 $-1 $574 $575 $399 #
face $576 -1 $-1 $290 $235 $8 $-1 $577 reversed single #
convexity-sys-attrib $-1 -1 $-1 $236 $129 #
point $-1 -1 $-1 387.34999999999997 65.991135768374178 -3.1749999999999998 #
coedge $-1 -1 $-1 $578 $579 $241 $403 reversed $580 $-1 #
edge $581 -1 $-1 $408 0 $582 107.03559999999999 $241 $583 forward @7 unknown #
coedge $-1 -1 $-1 $584 $242 $248 $420 forward $406 $-1 #
coedge $-1 -1 $-1 $242 $584 $578 $585 reversed $406 $-1 #
loop $-1 -1 $-1 $-1 $404 $586 #
attrib_edge_convexity-kcp-attrib $-1 -1 $587 $-1 $243 1 #
vertex $-1 -1 $-1 $403 $588 #
straight-curve $-1 -1 $-1 211.30097863813936 135.9341810811712 0 -0.82496468248686861 -0.56518428202608395 0 I I #
coedge $-1 -1 $-1 $589 $590 $244 $411 reversed $591 $-1 #
edge $592 -1 $-1 $582 1.3289130661209336e-014 $416 144.29740000000001 $244 $593 forward @7 unknown #
coedge $-1 -1 $-1 $594 $245 $590 $595 forward $414 $-1 #
coedge $-1 -1 $-1 $245 $594 $247 $419 reversed $414 $-1 #
loop $-1 -1 $-1 $-1 $412 $596 #
attrib_edge_convexity-kcp-attrib $-1 -1 $597 $-1 $246 1 #
vertex $-1 -1 $-1 $246 $598 #
straight-curve $-1 -1 $-1 49.032384138021285 221.22458526400021 0 0.98215619452602898 -0.1880670347353546 0 I I #
coedge $-1 -1 $-1 $248 $247 $599 $600 forward $249 $-1 #
edge $-1 -1 $-1 $251 0 $601 3.1749999999999998 $413 $602 forward @7 unknown #
edge $-1 -1 $-1 $252 0 $603 3.1749999999999998 $404 $604 forward @7 unknown #
face $605 -1 $-1 $596 $249 $8 $-1 $606 forward single #
convexity-sys-attrib $-1 -1 $-1 $250 $136 #
point $-1 -1 $-1 174.48967709571485 197.20154167482411 0 #
point $-1 -1 $-1 211.30097863813936 135.9341810811712 0 #
coedge $-1 -1 $-1 $263 $254 $607 $608 reversed $35 $-1 #
coedge $-1 -1 $-1 $609 $610 $254 $427 reversed $611 $-1 #
edge $612 -1 $-1 $432 0 $613 273.9898 $254 $614 forward @7 unknown #
coedge $-1 -1 $-1 $615 $255 $258 $435 forward $430 $-1 #
coedge $-1 -1 $-1 $255 $615 $609 $616 reversed $430 $-1 #
loop $-1 -1 $-1 $-1 $428 $617 #
attrib_edge_convexity-kcp-attrib $-1 -1 $618 $-1 $256 1 #
vertex $-1 -1 $-1 $427 $619 #
ellipse-curve $-1 -1 $-1 581.10119999999995 106.47679999999991 0 0 0 1 0 -12.699999999999889 0 1 I I #
coedge $-1 -1 $-1 $258 $257 $620 $621 forward $259 $-1 #
edge $-1 -1 $-1 $261 0 $622 3.1749999999999998 $428 $623 forward @7 unknown #
face $624 -1 $-1 $275 $259 $8 $-1 $625 forward single #
convexity-sys-attrib $-1 -1 $-1 $260 $139 #
point $-1 -1 $-1 593.80119999999999 106.47680000000003 0 #
coedge $-1 -1 $-1 $626 $627 $263 $440 reversed $628 $-1 #
edge $629 -1 $-1 $630 0 $445 116.0018 $263 $631 forward @7 unknown #
coedge $-1 -1 $-1 $632 $264 $627 $633 forward $443 $-1 #
coedge $-1 -1 $-1 $264 $632 $266 $448 reversed $443 $-1 #
loop $-1 -1 $-1 $-1 $441 $475 #
attrib_edge_convexity-kcp-attrib $-1 -1 $634 $-1 $265 1 #
vertex $-1 -1 $-1 $265 $635 #
ellipse-curve $-1 -1 $-1 307.1114 222.47859999999991 0 0 0 1 -5.6843418860808015e-014 12.700000000000102 0 1 I I #
coedge $-1 -1 $-1 $267 $266 $636 $637 forward $268 $-1 #
edge $-1 -1 $-1 $270 0 $638 3.1749999999999998 $266 $639 forward @7 unknown #
face $640 -1 $-1 $641 $268 $8 $-1 $642 forward single #
convexity-sys-attrib $-1 -1 $-1 $269 $142 #
point $-1 -1 $-1 307.11139999999995 235.17860000000002 0 #
coedge $-1 -1 $-1 $636 $620 $272 $453 forward $398 $-1 #
edge $-1 -1 $-1 $456 0 $454 1.5707963267949057 $272 $643 forward @7 unknown #
vertex $-1 -1 $-1 $273 $644 #
straight-curve $-1 -1 $-1 581.10119999999995 235.17860000000027 0 0 -8.0565475550751525e-014 -1 I I #
vertex $-1 -1 $-1 $621 $645 #
straight-curve $-1 -1 $-1 593.80119999999999 222.47860000000003 0 0 0 -1 I I #
model_id-kcp-attrib $-1 -1 $-1 $-1 $275 1 1021469491 1021469492 -1118371839 18 #
cone-surface $-1 -1 $-1 581.10120000000018 222.47860000000028 0 0 0 1 12.699999999999999 -2.557953848736397e-013 0 1 I I 0 1 12.699999999999999 forward I I I I #
coedge $-1 -1 $-1 $384 $386 $279 $461 reversed $224 $-1 #
edge $646 -1 $-1 $465 0 $478 635 $279 $647 forward @7 unknown #
coedge $-1 -1 $-1 $648 $280 $283 $468 forward $382 $-1 #
coedge $-1 -1 $-1 $280 $648 $384 $558 reversed $382 $-1 #
attrib_edge_convexity-kcp-attrib $-1 -1 $649 $-1 $281 1 #
vertex $-1 -1 $-1 $461 $650 #
straight-curve $-1 -1 $-1 635 0 0 0 1 0 I I #
coedge $-1 -1 $-1 $283 $282 $396 $571 forward $284 $-1 #
edge $-1 -1 $-1 $286 0 $651 3.1749999999999998 $283 $652 forward @7 unknown #
convexity-sys-attrib $-1 -1 $-1 $285 $152 #
point $-1 -1 $-1 635 0 0 #
attrib_edge_convexity-kcp-attrib $-1 -1 $653 $-1 $289 1 #
vertex $-1 -1 $-1 $289 $654 #
straight-curve $-1 -1 $-1 501.65000000000003 0 0 0 0 -1 I I #
model_id-kcp-attrib $-1 -1 $-1 $-1 $290 1 1021469491 1021469492 -1118371839 11 #
face $655 -1 $-1 $656 $443 $8 $-1 $657 reversed single #
plane-surface $-1 -1 $-1 444.5 32.995567884187089 -1.5874999999999999 -0.49999999999999994 -0.86602540378443871 0 0.86602540378443882 -0.5 0 forward_v I I I I #
attrib_edge_convexity-kcp-attrib $-1 -1 $658 $-1 $294 1 #
vertex $-1 -1 $-1 $294 $659 #
straight-curve $-1 -1 $-1 0 254 0 0 -1 0 I I #
convexity-sys-attrib $-1 -1 $-1 $295 $160 #
point $-1 -1 $-1 0 0 0 #
convexity-sys-attrib $-1 -1 $-1 $300 $164 #
face $-1 -1 $-1 $506 $660 $20 $-1 $661 forward single #
loop $-1 -1 $-1 $-1 $662 $302 #
cone-surface $-1 -1 $-1 581.10119999999995 106.47679999999991 0 0 0 -1 0 -12.699999999999889 0 1 I I 0 1 12.699999999999889 forward I I I I #
coedge $-1 -1 $-1 $663 $664 $665 $666 forward $303 $-1 #
coedge $-1 -1 $-1 $667 $305 $664 $668 reversed $169 $-1 #
coedge $-1 -1 $-1 $305 $667 $306 $492 forward $169 $-1 #
coedge $-1 -1 $-1 $308 $665 $305 $490 reversed $181 $-1 #
edge $-1 -1 $-1 $493 0 $669 1.5707963267948843 $305 $670 forward @7 unknown #
coedge $-1 -1 $-1 $307 $306 $671 $672 forward $96 $-1 #
edge $-1 -1 $-1 $673 0 $493 3.1749999999999998 $488 $674 forward @7 unknown #
vertex $-1 -1 $-1 $492 $675 #
straight-curve $-1 -1 $-1 294.41139999999996 106.47680000000003 -3.1749999999999998 0 -1 0 I I #
coedge $-1 -1 $-1 $671 $314 $310 $496 forward $501 $-1 #
edge $-1 -1 $-1 $316 0 $497 1.5707963267948832 $310 $676 forward @7 unknown #
vertex $-1 -1 $-1 $672 $677 #
straight-curve $-1 -1 $-1 294.41139999999996 222.47860000000003 0 0 0 -1 I I #
point $-1 -1 $-1 294.41139999999996 222.47860000000003 -3.1749999999999998 #
coedge $-1 -1 $-1 $314 $678 $318 $505 forward $501 $-1 #
loop $-1 -1 $-1 $-1 $500 $513 #
straight-curve $-1 -1 $-1 307.11139999999995 235.17860000000002 0 1 0 0 I I #
point $-1 -1 $-1 307.11139999999995 235.17860000000002 0 #
coedge $-1 -1 $-1 $319 $318 $679 $680 forward $320 $-1 #
edge $-1 -1 $-1 $681 0 $321 1.5707963267949347 $318 $682 forward @7 unknown #
face $-1 -1 $-1 $325 $320 $20 $-1 $683 forward single #
point $-1 -1 $-1 581.10119999999995 235.17860000000002 0 #
coedge $-1 -1 $-1 $665 $323 $662 $684 reversed $181 $-1 #
coedge $-1 -1 $-1 $679 $685 $323 $510 forward $660 $-1 #
edge $-1 -1 $-1 $686 -116.0018 $511 0 $509 $687 forward @7 unknown #
vertex $-1 -1 $-1 $680 $688 #
ellipse-curve $-1 -1 $-1 581.10120000000018 222.47860000000028 -3.1749999999999998 0 0 1 12.699999999999818 -2.5579538487363607e-013 0 1 I I #
face $-1 -1 $-1 $-1 $501 $20 $-1 $689 forward single #
plane-surface $-1 -1 $-1 444.10629999999992 164.47770000000003 -3.1749999999999998 0 0 1 1 0 0 forward_v I I I I #
face $-1 -1 $-1 $-1 $530 $22 $-1 $690 forward single #
plane-surface $-1 -1 $-1 105.8117962641135 144.60886822016681 -3.1749999999999998 0 0 1 1 0 0 forward_v I I I I #
coedge $-1 -1 $-1 $691 $331 $533 $692 reversed $186 $-1 #
coedge $-1 -1 $-1 $331 $691 $332 $521 forward $186 $-1 #
edge $-1 -1 $-1 $522 -99.847399999999993 $536 0 $331 $693 forward @7 unknown #
coedge $-1 -1 $-1 $333 $332 $694 $695 forward $104 $-1 #
edge $-1 -1 $-1 $696 0 $522 3.1749999999999998 $518 $697 forward @7 unknown #
vertex $-1 -1 $-1 $521 $698 #
straight-curve $-1 -1 $-1 128.93039999999999 79.501999999999995 -3.1749999999999998 1 0 0 I I #
coedge $-1 -1 $-1 $694 $340 $336 $525 reversed $530 $-1 #
edge $-1 -1 $-1 $526 1.3289130661209336e-014 $342 144.29740000000001 $336 $699 forward @7 unknown #
vertex $-1 -1 $-1 $695 $700 #
straight-curve $-1 -1 $-1 21.894800000000004 79.501999999999995 0 0 0 -1 I I #
point $-1 -1 $-1 21.894800000000004 79.501999999999995 -3.1749999999999998 #
coedge $-1 -1 $-1 $340 $701 $344 $534 reversed $530 $-1 #
loop $-1 -1 $-1 $-1 $529 $515 #
straight-curve $-1 -1 $-1 49.032384138021285 221.22458526400021 0 0.98215619452602898 -0.1880670347353546 0 I I #
point $-1 -1 $-1 49.032384138021285 221.22458526400021 0 #
coedge $-1 -1 $-1 $345 $344 $517 $692 forward $329 $-1 #
edge $-1 -1 $-1 $346 0 $702 71.475600000000014 $344 $703 forward @7 unknown #
point $-1 -1 $-1 174.48967709571485 197.20154167482411 0 #
vertex $-1 -1 $-1 $692 $704 #
straight-curve $-1 -1 $-1 174.48967709571485 197.20154167482411 -3.1749999999999998 -0.51501913299677804 0.85717868186699964 0 I I #
model_id-kcp-attrib $-1 -1 $-1 $-1 $353 1 1021469491 1021469492 -1118371838 6 #
plane-surface $-1 -1 $-1 317.5 0 0 -1 0 0 0 0 1 forward_v I I I I #
coedge $-1 -1 $-1 $358 $356 $360 $544 reversed $204 $-1 #
edge $-1 -1 $-1 $371 -1.5874999999999999 $546 1.5874999999999999 $370 $705 forward @7 unknown #
vertex $-1 -1 $-1 $544 $706 #
straight-curve $-1 -1 $-1 -317.5 -127.00000000000003 0 0 0 -1 I I #
edge $-1 -1 $-1 $542 -127.00000000000003 $546 127.00000000000003 $540 $707 forward @7 unknown #
straight-curve $-1 -1 $-1 0 -127.00000000000003 -1.5874999999999999 -1 0 0 I I #
vertex $-1 -1 $-1 $363 $708 #
straight-curve $-1 -1 $-1 0 127.00000000000003 -1.5874999999999999 1 0 0 I I #
point $-1 -1 $-1 317.5 127.00000000000003 -1.5874999999999999 #
point $-1 -1 $-1 317.5 -127.00000000000003 -1.5874999999999999 #
straight-curve $-1 -1 $-1 -317.5 0 1.5874999999999999 0 -1 0 I I #
point $-1 -1 $-1 -317.5 127.00000000000003 1.5874999999999999 #
point $-1 -1 $-1 -317.5 -127.00000000000003 1.5874999999999999 #
straight-curve $-1 -1 $-1 317.5 -127.00000000000003 0 0 0 -1 I I #
straight-curve $-1 -1 $-1 317.5 127.00000000000003 0 0 0 -1 I I #
model_id-kcp-attrib $-1 -1 $-1 $-1 $381 1 1021469491 1021469492 -1118371839 9 #
plane-surface $-1 -1 $-1 317.5 0 -1.5874999999999999 0 -1 0 1 0 0 forward_v I I I I #
coedge $-1 -1 $-1 $386 $384 $709 $710 forward $224 $-1 #
edge $-1 -1 $-1 $465 0 $711 3.1749999999999998 $384 $712 forward @7 unknown #
coedge $-1 -1 $-1 $709 $390 $385 $560 reversed $235 $-1 #
edge $713 -1 $-1 $562 0 $565 254 $385 $714 forward @7 unknown #
attrib_edge_convexity-kcp-attrib $-1 -1 $715 $-1 $387 1 #
vertex $-1 -1 $-1 $560 $716 #
straight-curve $-1 -1 $-1 0 254 0 0 0 -1 I I #
attrib_edge_convexity-kcp-attrib $-1 -1 $717 $-1 $389 1 #
vertex $-1 -1 $-1 $393 $718 #
straight-curve $-1 -1 $-1 0 0 0 0 0 -1 I I #
convexity-sys-attrib $-1 -1 $-1 $391 $229 #
attrib_edge_convexity-kcp-attrib $-1 -1 $719 $-1 $393 1 #
straight-curve $-1 -1 $-1 0 0 -3.1749999999999998 1 0 0 I I #
coedge $-1 -1 $-1 $396 $709 $648 $720 reversed $235 $-1 #
edge $-1 -1 $-1 $472 5.6843418860808015e-014 $651 133.35000000000002 $467 $721 forward @7 unknown #
attrib_edge_convexity-kcp-attrib $-1 -1 $722 $-1 $397 1 #
straight-curve $-1 -1 $-1 387.35000000000002 65.991135768374193 -3.1749999999999998 0.86602540378443871 -0.5 0 I I #
loop $-1 -1 $-1 $-1 $723 $399 #
coedge $-1 -1 $-1 $724 $636 $632 $725 forward $398 $-1 #
model_id-kcp-attrib $-1 -1 $-1 $-1 $399 1 1021469491 1021469492 -1118371839 10 #
plane-surface $-1 -1 $-1 0 0 -3.1749999999999998 0 0 1 1 0 0 forward_v I I I I #
coedge $-1 -1 $-1 $726 $402 $405 $585 forward $580 $-1 #
coedge $-1 -1 $-1 $402 $726 $589 $727 reversed $580 $-1 #
loop $-1 -1 $-1 $-1 $578 $728 #
attrib_edge_convexity-kcp-attrib $-1 -1 $729 $-1 $403 1 #
vertex $-1 -1 $-1 $411 $730 #
straight-curve $-1 -1 $-1 128.93039999999999 79.501999999999995 0 -1 0 0 I I #
coedge $-1 -1 $-1 $405 $404 $731 $732 forward $406 $-1 #
edge $-1 -1 $-1 $408 0 $733 3.1749999999999998 $578 $734 forward @7 unknown #
face $735 -1 $-1 $421 $406 $8 $-1 $736 forward single #
convexity-sys-attrib $-1 -1 $-1 $407 $243 #
point $-1 -1 $-1 128.93039999999999 79.501999999999995 0 #
coedge $-1 -1 $-1 $737 $410 $579 $727 forward $591 $-1 #
coedge $-1 -1 $-1 $410 $737 $412 $595 reversed $591 $-1 #
loop $-1 -1 $-1 $-1 $589 $641 #
attrib_edge_convexity-kcp-attrib $-1 -1 $738 $-1 $411 1 #
straight-curve $-1 -1 $-1 21.894800000000004 79.501999999999981 0 0.18806703473535416 0.9821561945260292 0 I I #
coedge $-1 -1 $-1 $413 $412 $739 $740 forward $414 $-1 #
edge $-1 -1 $-1 $416 0 $741 3.1749999999999998 $412 $742 forward @7 unknown #
face $743 -1 $-1 $-1 $414 $8 $-1 $744 forward single #
convexity-sys-attrib $-1 -1 $-1 $415 $246 #
point $-1 -1 $-1 49.032384138021285 221.22458526400021 0 #
coedge $-1 -1 $-1 $739 $731 $418 $600 reversed $574 $-1 #
edge $-1 -1 $-1 $601 0 $603 71.475600000000014 $599 $745 forward @7 unknown #
vertex $-1 -1 $-1 $740 $746 #
straight-curve $-1 -1 $-1 174.48967709571485 197.20154167482411 0 0 0 -1 I I #
vertex $-1 -1 $-1 $600 $747 #
straight-curve $-1 -1 $-1 211.30097863813936 135.9341810811712 0 0 0 -1 I I #
model_id-kcp-attrib $-1 -1 $-1 $-1 $421 1 1021469491 1021469492 -1118371839 23 #
plane-surface $-1 -1 $-1 192.89532786692712 166.56786137799764 -1.5874999999999999 -0.85717868186699975 -0.51501913299677815 0 0.51501913299677804 -0.85717868186699964 0 forward_v I I I I #
coedge $-1 -1 $-1 $748 $749 $425 $608 forward $750 $-1 #
edge $751 -1 $-1 $630 0 $613 1.5707963267948843 $425 $752 forward @7 unknown #
coedge $-1 -1 $-1 $753 $426 $429 $616 forward $611 $-1 #
coedge $-1 -1 $-1 $426 $753 $748 $754 reversed $611 $-1 #
loop $-1 -1 $-1 $-1 $609 $755 #
attrib_edge_convexity-kcp-attrib $-1 -1 $756 $-1 $427 1 #
vertex $-1 -1 $-1 $608 $757 #
straight-curve $-1 -1 $-1 581.10119999999995 93.776800000000023 0 -1 0 0 I I #
coedge $-1 -1 $-1 $429 $428 $758 $759 reversed $430 $-1 #
edge $-1 -1 $-1 $432 0 $760 3.1749999999999998 $609 $761 forward @7 unknown #
face $762 -1 $-1 $436 $430 $8 $-1 $763 reversed single #
convexity-sys-attrib $-1 -1 $-1 $431 $256 #
point $-1 -1 $-1 581.10119999999995 93.776800000000023 0 #
coedge $-1 -1 $-1 $452 $758 $434 $621 reversed $398 $-1 #
edge $-1 -1 $-1 $456 0 $622 116.0018 $434 $764 forward @7 unknown #
vertex $-1 -1 $-1 $759 $765 #
straight-curve $-1 -1 $-1 593.80119999999999 106.47680000000003 0 0 0 -1 I I #
model_id-kcp-attrib $-1 -1 $-1 $-1 $436 1 1021469491 1021469492 -1118371839 17 #
plane-surface $-1 -1 $-1 593.80119999999999 164.47770000000003 -1.5874999999999999 -1 0 0 0 -1 0 forward_v I I I I #
coedge $-1 -1 $-1 $766 $439 $749 $767 forward $628 $-1 #
coedge $-1 -1 $-1 $439 $766 $441 $633 reversed $628 $-1 #
loop $-1 -1 $-1 $-1 $626 $656 #
attrib_edge_convexity-kcp-attrib $-1 -1 $768 $-1 $440 1 #
vertex $-1 -1 $-1 $440 $769 #
straight-curve $-1 -1 $-1 294.41139999999996 106.47680000000003 0 0 1 0 I I #
coedge $-1 -1 $-1 $442 $441 $575 $725 reversed $443 $-1 #
edge $-1 -1 $-1 $445 1.0176926827670124e-027 $770 3.1749999999999998 $441 $771 forward @7 unknown #
convexity-sys-attrib $-1 -1 $-1 $444 $265 #
point $-1 -1 $-1 294.41139999999996 222.47860000000003 0 #
coedge $-1 -1 $-1 $575 $452 $447 $637 reversed $398 $-1 #
edge $-1 -1 $-1 $638 0 $454 273.9898 $447 $772 forward @7 unknown #
vertex $-1 -1 $-1 $637 $773 #
straight-curve $-1 -1 $-1 307.11139999999995 235.17860000000002 0 0 0 -1 I I #
model_id-kcp-attrib $-1 -1 $-1 $-1 $449 1 1021469491 1021469492 -1118371839 19 #
face $774 -1 $-1 $728 $591 $8 $-1 $775 forward single #
plane-surface $-1 -1 $-1 444.10629999999992 235.17860000000002 -1.5874999999999999 0 -1 0 1 0 0 forward_v I I I I #
ellipse-curve $-1 -1 $-1 581.10120000000006 222.47860000000003 -3.1749999999999998 0 0 1 12.699999999999932 0 0 1 I I #
point $-1 -1 $-1 581.10119999999995 235.17860000000002 -3.1749999999999998 #
point $-1 -1 $-1 593.80119999999999 222.47860000000003 -3.1749999999999998 #
attrib_edge_convexity-kcp-attrib $-1 -1 $776 $-1 $461 1 #
straight-curve $-1 -1 $-1 635 254 0 -1 0 0 I I #
coedge $-1 -1 $-1 $463 $462 $570 $720 forward $382 $-1 #
convexity-sys-attrib $-1 -1 $-1 $464 $281 #
point $-1 -1 $-1 635 254 0 #
vertex $-1 -1 $-1 $468 $777 #
straight-curve $-1 -1 $-1 635 0 0 0 0 -1 I I #
convexity-sys-attrib $-1 -1 $-1 $471 $289 #
point $-1 -1 $-1 501.65000000000003 -2.8421709430404007e-014 -3.1749999999999998 #
model_id-kcp-attrib $-1 -1 $-1 $-1 $475 1 1021469491 1021469492 -1118371839 12 #
face $778 -1 $-1 $779 $628 $8 $-1 $780 forward single #
cone-surface $-1 -1 $-1 307.1114 222.47859999999991 0 0 0 1 -5.6843418860807548e-014 12.699999999999999 0 1 I I 0 1 12.699999999999999 forward I I I I #
convexity-sys-attrib $-1 -1 $-1 $477 $294 #
point $-1 -1 $-1 0 254 0 #
loop $-1 -1 $-1 $-1 $509 $483 #
plane-surface $-1 -1 $-1 593.80119999999999 106.47680000000003 0 1 0 0 0 0 -1 forward_v I I I I #
coedge $-1 -1 $-1 $781 $782 $508 $684 forward $484 $-1 #
coedge $-1 -1 $-1 $783 $486 $782 $784 reversed $303 $-1 #
coedge $-1 -1 $-1 $486 $783 $487 $668 forward $303 $-1 #
coedge $-1 -1 $-1 $489 $508 $486 $666 reversed $181 $-1 #
edge $-1 -1 $-1 $669 -273.9898 $785 0 $486 $786 forward @7 unknown #
coedge $-1 -1 $-1 $488 $487 $787 $788 reversed $169 $-1 #
edge $-1 -1 $-1 $789 0 $669 3.1749999999999998 $664 $790 forward @7 unknown #
vertex $-1 -1 $-1 $668 $791 #
ellipse-curve $-1 -1 $-1 307.1114 106.47680000000013 -3.1749999999999998 0 0 1 -12.700000000000045 -9.9475983006414026e-014 0 1 I I #
coedge $-1 -1 $-1 $787 $495 $491 $672 reversed $501 $-1 #
edge $-1 -1 $-1 $673 0 $497 116.0018 $491 $792 forward @7 unknown #
vertex $-1 -1 $-1 $788 $793 #
straight-curve $-1 -1 $-1 294.41139999999996 106.47680000000003 0 0 0 -1 I I #
point $-1 -1 $-1 294.41139999999996 106.47680000000003 -3.1749999999999998 #
ellipse-curve $-1 -1 $-1 307.1114 222.47859999999991 0 0 0 1 -5.6843418860808015e-014 12.700000000000102 0 1 I I #
point $-1 -1 $-1 294.41139999999996 222.47860000000003 0 #
coedge $-1 -1 $-1 $500 $794 $795 $796 reversed $501 $-1 #
coedge $-1 -1 $-1 $795 $509 $504 $680 reversed $660 $-1 #
edge $-1 -1 $-1 $681 0 $511 3.1749999999999998 $504 $797 forward @7 unknown #
vertex $-1 -1 $-1 $505 $798 #
ellipse-curve $-1 -1 $-1 581.10120000000018 222.47860000000028 0 0 0 1 12.699999999999818 -2.5579538487363607e-013 0 1 I I #
cone-surface $-1 -1 $-1 581.10120000000018 222.47860000000028 0 0 0 -1 12.699999999999818 -2.5579538487363607e-013 0 1 I I 0 1 12.699999999999818 forward I I I I #
edge $-1 -1 $-1 $785 0 $686 1.5707963267949057 $662 $799 forward @7 unknown #
coedge $-1 -1 $-1 $509 $795 $781 $800 forward $660 $-1 #
vertex $-1 -1 $-1 $800 $801 #
straight-curve $-1 -1 $-1 593.80119999999999 222.47860000000003 -3.1749999999999998 0 1 0 I I #
point $-1 -1 $-1 593.80119999999999 222.47860000000003 -3.1749999999999998 #
plane-surface $-1 -1 $-1 444.10629999999992 164.47770000000003 0 0 0 1 1 0 0 forward_v I I I I #
plane-surface $-1 -1 $-1 105.8117962641135 144.60886822016681 0 0 0 1 1 0 0 forward_v I I I I #
coedge $-1 -1 $-1 $518 $517 $701 $802 forward $186 $-1 #
edge $-1 -1 $-1 $702 0 $536 3.1749999999999998 $533 $803 forward @7 unknown #
straight-curve $-1 -1 $-1 211.30097863813936 135.9341810811712 -3.1749999999999998 0.82496468248686861 0.56518428202608395 0 I I #
coedge $-1 -1 $-1 $701 $524 $520 $695 reversed $530 $-1 #
edge $-1 -1 $-1 $696 0 $526 107.03559999999999 $520 $804 forward @7 unknown #
vertex $-1 -1 $-1 $802 $805 #
straight-curve $-1 -1 $-1 128.93039999999999 79.501999999999995 0 0 0 -1 I I #
point $-1 -1 $-1 128.93039999999999 79.501999999999995 -3.1749999999999998 #
straight-curve $-1 -1 $-1 21.894800000000004 79.501999999999981 0 0.18806703473535416 0.9821561945260292 0 I I #
point $-1 -1 $-1 21.8948 79.501999999999995 0 #
coedge $-1 -1 $-1 $529 $694 $691 $802 reversed $530 $-1 #
vertex $-1 -1 $-1 $534 $806 #
straight-curve $-1 -1 $-1 174.48967709571485 197.20154167482411 0 0.51501913299677804 -0.85717868186699964 0 I I #
point $-1 -1 $-1 211.30097863813936 135.9341810811712 -3.1749999999999998 #
straight-curve $-1 -1 $-1 -317.5 127.00000000000003 0 0 0 -1 I I #
point $-1 -1 $-1 -317.5 -127.00000000000003 -1.5874999999999999 #
straight-curve $-1 -1 $-1 -317.5 0 -1.5874999999999999 0 1 0 I I #
point $-1 -1 $-1 -317.5 127.00000000000003 -1.5874999999999999 #
coedge $-1 -1 $-1 $570 $559 $557 $710 reversed $235 $-1 #
edge $-1 -1 $-1 $711 0 $562 635 $557 $807 forward @7 unknown #
vertex $-1 -1 $-1 $710 $808 #
straight-curve $-1 -1 $-1 635 254 0 0 0 -1 I I #
attrib_edge_convexity-kcp-attrib $-1 -1 $809 $-1 $560 1 #
straight-curve $-1 -1 $-1 0 254 -3.1749999999999998 0 -1 0 I I #
convexity-sys-attrib $-1 -1 $-1 $561 $387 #
point $-1 -1 $-1 0 254 -3.1749999999999998 #
convexity-sys-attrib $-1 -1 $-1 $564 $389 #
point $-1 -1 $-1 0 0 -3.1749999999999998 #
convexity-sys-attrib $-1 -1 $-1 $568 $393 #
edge $-1 -1 $-1 $651 0 $711 254 $648 $810 forward @7 unknown #
straight-curve $-1 -1 $-1 501.64999999999998 0 -3.1749999999999998 1 0 0 I I #
convexity-sys-attrib $-1 -1 $-1 $572 $397 #
coedge $-1 -1 $-1 $811 $739 $737 $812 reversed $574 $-1 #
coedge $-1 -1 $-1 $813 $575 $766 $814 reversed $398 $-1 #
edge $-1 -1 $-1 $638 0 $770 1.5707963267948966 $632 $815 forward @7 unknown #
coedge $-1 -1 $-1 $579 $578 $811 $816 forward $580 $-1 #
edge $-1 -1 $-1 $582 0 $817 3.1749999999999998 $589 $818 forward @7 unknown #
face $819 -1 $-1 $586 $580 $8 $-1 $820 forward single #
convexity-sys-attrib $-1 -1 $-1 $581 $403 #
point $-1 -1 $-1 21.8948 79.501999999999995 0 #
coedge $-1 -1 $-1 $599 $811 $584 $732 reversed $574 $-1 #
edge $-1 -1 $-1 $603 0 $733 99.847399999999993 $731 $821 forward @7 unknown #
vertex $-1 -1 $-1 $732 $822 #
straight-curve $-1 -1 $-1 128.93039999999999 79.501999999999995 0 0 0 -1 I I #
model_id-kcp-attrib $-1 -1 $-1 $-1 $586 1 1021469491 1021469492 -1118371839 22 #
plane-surface $-1 -1 $-1 170.11568931906967 107.71809054058559 -1.5874999999999999 -0.56518428202608395 0.82496468248686861 0 -0.82496468248686861 -0.56518428202608395 0 forward_v I I I I #
coedge $-1 -1 $-1 $590 $589 $723 $812 forward $591 $-1 #
convexity-sys-attrib $-1 -1 $-1 $592 $411 #
coedge $-1 -1 $-1 $723 $599 $594 $740 reversed $574 $-1 #
edge $-1 -1 $-1 $741 0 $601 127.73660000000001 $739 $823 forward @7 unknown #
vertex $-1 -1 $-1 $740 $824 #
straight-curve $-1 -1 $-1 49.032384138021293 221.22458526400021 0 0 0 -1 I I #
model_id-kcp-attrib $-1 -1 $-1 $-1 $596 1 1021469491 1021469492 -1118371839 24 #
plane-surface $-1 -1 $-1 111.76103061686807 209.21306346941216 -1.5874999999999999 -0.1880670347353546 -0.98215619452602909 0 0.98215619452602909 -0.1880670347353546 0 forward_v I I I I #
straight-curve $-1 -1 $-1 174.48967709571485 197.20154167482411 -3.1749999999999998 0.51501913299677804 -0.85717868186699964 0 I I #
point $-1 -1 $-1 174.48967709571485 197.20154167482411 -3.1749999999999998 #
point $-1 -1 $-1 211.30097863813936 135.9341810811712 -3.1749999999999998 #
coedge $-1 -1 $-1 $825 $607 $610 $754 forward $750 $-1 #
coedge $-1 -1 $-1 $607 $825 $626 $767 reversed $750 $-1 #
loop $-1 -1 $-1 $-1 $748 $779 #
attrib_edge_convexity-kcp-attrib $-1 -1 $826 $-1 $608 1 #
ellipse-curve $-1 -1 $-1 307.1114 106.47680000000013 0 0 0 1 -12.700000000000045 -9.9475983006414026e-014 0 1 I I #
coedge $-1 -1 $-1 $610 $609 $827 $828 forward $611 $-1 #
edge $-1 -1 $-1 $613 3.1166838409739757e-027 $829 3.1749999999999998 $748 $830 forward @7 unknown #
face $831 -1 $-1 $617 $611 $8 $-1 $832 forward single #
convexity-sys-attrib $-1 -1 $-1 $612 $427 #
point $-1 -1 $-1 307.11139999999995 93.776800000000023 0 #
coedge $-1 -1 $-1 $620 $827 $615 $759 forward $398 $-1 #
edge $-1 -1 $-1 $760 0 $622 1.5707963267948921 $615 $833 forward @7 unknown #
vertex $-1 -1 $-1 $828 $834 #
straight-curve $-1 -1 $-1 581.10119999999995 93.776800000000023 0 0 0 -1 I I #
model_id-kcp-attrib $-1 -1 $-1 $-1 $617 1 1021469491 1021469492 -1118371839 16 #
cone-surface $-1 -1 $-1 581.10119999999995 106.47679999999991 0 0 0 1 0 -12.699999999999999 0 1 I I 0 1 12.699999999999999 forward I I I I #
straight-curve $-1 -1 $-1 593.80119999999999 222.47860000000003 -3.1749999999999998 0 -1 0 I I #
point $-1 -1 $-1 593.80119999999999 106.47680000000003 -3.1749999999999998 #
coedge $-1 -1 $-1 $627 $626 $724 $814 forward $628 $-1 #
edge $-1 -1 $-1 $630 0 $835 3.1749999999999998 $626 $836 forward @7 unknown #
convexity-sys-attrib $-1 -1 $-1 $629 $440 #
point $-1 -1 $-1 294.41139999999996 106.47680000000003 0 #
vertex $-1 -1 $-1 $725 $837 #
straight-curve $-1 -1 $-1 294.41140000000001 222.47860000000003 0 -1.7903439011278115e-014 0 -1 I I #
straight-curve $-1 -1 $-1 307.11139999999995 235.17860000000002 -3.1749999999999998 1 0 0 I I #
point $-1 -1 $-1 307.11139999999995 235.17860000000002 -3.1749999999999998 #
model_id-kcp-attrib $-1 -1 $-1 $-1 $641 1 1021469491 1021469492 -1118371839 20 #
plane-surface $-1 -1 $-1 35.463592069010645 150.36329263200008 -1.5874999999999999 0.9821561945260292 -0.18806703473535416 0 0.18806703473535416 0.9821561945260292 0 forward_v I I I I #
convexity-sys-attrib $-1 -1 $-1 $646 $461 #
point $-1 -1 $-1 635 0 -3.1749999999999998 #
model_id-kcp-attrib $-1 -1 $-1 $-1 $656 1 1021469491 1021469492 -1118371839 13 #
face $838 -1 $-1 $755 $750 $8 $-1 $839 reversed single #
plane-surface $-1 -1 $-1 294.41139999999996 164.47770000000003 -1.5874999999999999 1 0 0 0 1 0 forward_v I I I I #
coedge $-1 -1 $-1 $840 $662 $685 $800 reversed $484 $-1 #
coedge $-1 -1 $-1 $662 $840 $663 $784 forward $484 $-1 #
coedge $-1 -1 $-1 $664 $663 $841 $842 forward $303 $-1 #
edge $-1 -1 $-1 $843 0 $785 3.1749999999999998 $782 $844 forward @7 unknown #
vertex $-1 -1 $-1 $784 $845 #
straight-curve $-1 -1 $-1 581.10119999999995 93.776800000000023 -3.1749999999999998 1 0 0 I I #
coedge $-1 -1 $-1 $841 $671 $667 $788 forward $501 $-1 #
edge $-1 -1 $-1 $673 0 $789 1.5707963267948843 $667 $846 forward @7 unknown #
vertex $-1 -1 $-1 $842 $847 #
straight-curve $-1 -1 $-1 307.11139999999995 93.776800000000037 0 0 0 -1 I I #
point $-1 -1 $-1 307.11139999999995 93.776800000000037 -3.1749999999999998 #
straight-curve $-1 -1 $-1 294.41139999999996 106.47680000000003 0 0 1 0 I I #
point $-1 -1 $-1 294.41139999999996 106.47680000000003 0 #
coedge $-1 -1 $-1 $678 $841 $840 $848 forward $501 $-1 #
coedge $-1 -1 $-1 $685 $679 $678 $796 forward $660 $-1 #
edge $-1 -1 $-1 $681 0 $849 116.0018 $795 $850 forward @7 unknown #
straight-curve $-1 -1 $-1 593.80119999999999 222.47860000000003 0 0 0 -1 I I #
point $-1 -1 $-1 593.80119999999999 222.47860000000003 0 #
ellipse-curve $-1 -1 $-1 581.10119999999995 106.47679999999991 -3.1749999999999998 0 0 1 0 -12.699999999999889 0 1 I I #
edge $-1 -1 $-1 $849 0 $686 3.1749999999999998 $685 $851 forward @7 unknown #
point $-1 -1 $-1 593.80119999999999 106.47680000000003 -3.1749999999999998 #
edge $-1 -1 $-1 $702 0 $696 99.847399999999993 $691 $852 forward @7 unknown #
straight-curve $-1 -1 $-1 211.30097863813936 135.9341810811712 0 0 0 -1 I I #
straight-curve $-1 -1 $-1 128.93039999999999 79.501999999999995 0 -1 0 0 I I #
point $-1 -1 $-1 128.93039999999999 79.501999999999995 0 #
point $-1 -1 $-1 211.30097863813936 135.9341810811712 0 #
straight-curve $-1 -1 $-1 635 254 -3.1749999999999998 -1 0 0 I I #
point $-1 -1 $-1 635 254 -3.1749999999999998 #
convexity-sys-attrib $-1 -1 $-1 $713 $560 #
straight-curve $-1 -1 $-1 635 0 -3.1749999999999998 0 1 0 I I #
coedge $-1 -1 $-1 $731 $723 $726 $816 reversed $574 $-1 #
edge $-1 -1 $-1 $817 1.3957278988045078e-014 $741 144.29740000000001 $723 $853 forward @7 unknown #
coedge $-1 -1 $-1 $827 $724 $825 $854 forward $398 $-1 #
edge $-1 -1 $-1 $835 0 $770 116.0018 $766 $855 forward @7 unknown #
ellipse-curve $-1 -1 $-1 307.11139999999995 222.47860000000003 -3.1749999999999998 0 0 1 0 12.699999999999989 0 1 I I #
edge $-1 -1 $-1 $733 0 $817 107.03559999999999 $811 $856 forward @7 unknown #
vertex $-1 -1 $-1 $816 $857 #
straight-curve $-1 -1 $-1 21.894800000000004 79.501999999999995 0 0 0 -1 I I #
model_id-kcp-attrib $-1 -1 $-1 $-1 $728 1 1021469491 1021469492 -1118371839 21 #
plane-surface $-1 -1 $-1 75.412599999999998 79.501999999999995 -1.5874999999999999 0 1 0 -1 0 0 forward_v I I I I #
straight-curve $-1 -1 $-1 211.30097863813936 135.9341810811712 -3.1749999999999998 -0.82496468248686861 -0.56518428202608395 0 I I #
point $-1 -1 $-1 128.93039999999999 79.501999999999995 -3.1749999999999998 #
straight-curve $-1 -1 $-1 49.032384138021285 221.22458526400021 -3.1749999999999998 0.98215619452602898 -0.1880670347353546 0 I I #
point $-1 -1 $-1 49.032384138021285 221.22458526400021 -3.1749999999999998 #
coedge $-1 -1 $-1 $749 $748 $813 $854 reversed $750 $-1 #
convexity-sys-attrib $-1 -1 $-1 $751 $608 #
coedge $-1 -1 $-1 $758 $813 $753 $828 reversed $398 $-1 #
edge $-1 -1 $-1 $760 0 $829 273.9898 $753 $858 forward @7 unknown #
vertex $-1 -1 $-1 $854 $859 #
straight-curve $-1 -1 $-1 307.11139999999995 93.776800000000122 0 0 -3.1331018269736702e-014 -1 I I #
model_id-kcp-attrib $-1 -1 $-1 $-1 $755 1 1021469491 1021469492 -1118371839 15 #
plane-surface $-1 -1 $-1 444.10629999999992 93.776800000000023 -1.5874999999999999 0 1 0 -1 0 0 forward_v I I I I #
ellipse-curve $-1 -1 $-1 581.10119999999995 106.47680000000008 -3.1749999999999998 0 0 1 0 -12.70000000000006 0 1 I I #
point $-1 -1 $-1 581.10119999999995 93.776800000000023 -3.1749999999999998 #
vertex $-1 -1 $-1 $814 $860 #
straight-curve $-1 -1 $-1 294.41139999999996 106.47680000000003 0 0 0 -1 I I #
point $-1 -1 $-1 294.41139999999996 222.47860000000003 -3.1749999999999998 #
model_id-kcp-attrib $-1 -1 $-1 $-1 $779 1 1021469491 1021469492 -1118371839 14 #
cone-surface $-1 -1 $-1 307.1114 106.47680000000013 0 0 0 1 -12.699999999999999 -9.947598300641366e-014 0 1 I I 0 1 12.699999999999999 forward I I I I #
coedge $-1 -1 $-1 $782 $781 $794 $848 reversed $484 $-1 #
coedge $-1 -1 $-1 $794 $787 $783 $842 reversed $501 $-1 #
edge $-1 -1 $-1 $843 0 $789 273.9898 $783 $861 forward @7 unknown #
vertex $-1 -1 $-1 $848 $862 #
straight-curve $-1 -1 $-1 581.10119999999995 93.776800000000037 0 0 0 -1 I I #
point $-1 -1 $-1 581.10119999999995 93.776800000000037 -3.1749999999999998 #
ellipse-curve $-1 -1 $-1 307.1114 106.47680000000013 0 0 0 1 -12.700000000000045 -9.9475983006414026e-014 0 1 I I #
point $-1 -1 $-1 307.11139999999995 93.776800000000023 0 #
edge $-1 -1 $-1 $843 0 $849 1.5707963267949057 $840 $863 forward @7 unknown #
vertex $-1 -1 $-1 $796 $864 #
straight-curve $-1 -1 $-1 593.80119999999999 222.47860000000003 0 0 -1 0 I I #
straight-curve $-1 -1 $-1 593.80119999999999 106.47680000000003 0 0 0 -1 I I #
straight-curve $-1 -1 $-1 211.30097863813936 135.9341810811712 0 -0.82496468248686861 -0.56518428202608395 0 I I #
straight-curve $-1 -1 $-1 21.894800000000004 79.501999999999981 -3.1749999999999998 0.18806703473535416 0.9821561945260292 0 I I #
edge $-1 -1 $-1 $835 0 $829 1.5707963267948954 $825 $865 forward @7 unknown #
straight-curve $-1 -1 $-1 294.41139999999996 106.47680000000003 -3.1749999999999998 0 1 0 I I #
straight-curve $-1 -1 $-1 128.93039999999999 79.501999999999995 -3.1749999999999998 -1 0 0 I I #
point $-1 -1 $-1 21.894800000000004 79.501999999999995 -3.1749999999999998 #
straight-curve $-1 -1 $-1 581.10119999999995 93.776800000000023 -3.1749999999999998 -1 0 0 I I #
point $-1 -1 $-1 307.11139999999995 93.776800000000023 -3.1749999999999998 #
point $-1 -1 $-1 294.41139999999996 106.47680000000003 -3.1749999999999998 #
straight-curve $-1 -1 $-1 581.10119999999995 93.776800000000023 0 -1 0 0 I I #
point $-1 -1 $-1 581.10119999999995 93.776800000000023 0 #
ellipse-curve $-1 -1 $-1 581.10119999999995 106.47679999999991 0 0 0 1 0 -12.699999999999889 0 1 I I #
point $-1 -1 $-1 593.80119999999999 106.47680000000003 0 #
ellipse-curve $-1 -1 $-1 307.11139999999995 106.47680000000004 -3.1749999999999998 0 0 1 -12.699999999999989 -1.4210854715202004e-014 0 1 I I #
End-of-ACIS-data 