999
DXF file: 1007-01-11-l-flat1.dxf
999
Pro/ENGINEER 9801 by Parametric Technology Corporation
0
SECTION
2
HEADER
9
$EXTMAX
10
22.0000000000
20
17.0000000000
9
$EXTMIN
10
0.0000000000
20
0.0000000000
9
$LIMMIN
10
0.0000000000
20
0.0000000000
9
$LIMMAX
10
22.0000000000
20
17.0000000000
9
$VIEWCTR
10
11.0000000000
20
8.5000000000
9
$VIEWSIZE
40
17.0000000000
9
$CLAYER
8
0
9
$LTSCALE
40
1.2100000000
9
$CELTYPE
6
BYLAYER
9
$DIMSCALE
40
1
9
$DIMASZ
40
0.1875000000
9
$DIMEXO
40
0.1375000000
9
$DIMDLI
40
0.8360000000
9
$DIMEXE
40
0.3960000000
9
$DIMCEN
40
0.1980000000
9
$DIMTXT
40
0.2486049107
0
ENDSEC
0
SECTION
2
TABLES
0
TABLE
2
LTYPE
70
6
0
LTYPE
2
CONTINUOUS
70
64
3
Solid line
72
65
73
0
40
0
0
LTYPE
2
CENTER
70
64
3
____ _ ____ _ ____ _ ____ _ ____ _ ____ _ ____
72
65
73
4
40
0.6
49
0.375
49
-0.075
49
0.075
49
-0.075
0
LTYPE
2
HIDDEN
70
64
3
- - - - - - - - - - - - - - - - - - - -
72
65
73
2
40
0.2
49
0.1
49
-0.1
0
LTYPE
2
PHANTOM
70
64
3
_____ _ _ _____ _ _ _____ _ _ _____
72
65
73
6
40
0.8
49
0.45
49
-0.05
49
0.1
49
-0.05
49
0.1
49
-0.05
0
LTYPE
2
DOT
70
64
3
. . . . . . . . . . . . . . . . . . . .
72
65
73
2
40
0.2
49
0.1
49
-0.1
0
LTYPE
2
DASHED
70
64
3
- - - - - - - - - - - - - - - - - - - -
72
65
73
2
40
0.2
49
0.1
49
-0.1
0
ENDTAB
0
TABLE
2
LAYER
70
36
0
LAYER
2
0
70
0
62
7
6
CONTINUOUS
0
LAYER
2
DEFAULT_1
70
0
62
7
6
CENTER
0
LAYER
2
DEFAULT_2
70
0
62
7
6
HIDDEN
0
LAYER
2
DEFAULT_3
70
0
62
7
6
PHANTOM
0
ENDTAB
0
ENDSEC
0
SECTION
2
BLOCKS
0
ENDSEC
0
SECTION
2
ENTITIES
0
POLYLINE
8
0
62
3
66
1
70
0
0
VERTEX
8
0
62
3
10
-41.1310631600
20
8.9118334141
0
VERTEX
8
0
62
3
10
-41.1274228022
20
8.8761085339
0
VERTEX
8
0
62
3
10
-41.1193239820
20
8.8371961090
0
VERTEX
8
0
62
3
10
-41.1060123260
20
8.7945252618
0
VERTEX
8
0
62
3
10
-41.0874773151
20
8.7482663954
0
VERTEX
8
0
62
3
10
-41.0649402092
20
8.6985671917
0
SEQEND
0
POLYLINE
8
0
62
3
66
1
70
0
0
VERTEX
8
0
62
3
10
-38.8535548160
20
1.8811601710
0
VERTEX
8
0
62
3
10
-38.8558054135
20
1.9167339295
0
VERTEX
8
0
62
3
10
-38.8631183249
20
1.9557199120
0
VERTEX
8
0
62
3
10
-38.8764608000
20
1.9989370171
0
VERTEX
8
0
62
3
10
-38.8959044573
20
2.0461875444
0
VERTEX
8
0
62
3
10
-38.9200738089
20
2.0973471821
0
SEQEND
0
LINE
8
0
62
3
10
-41.1736557850
20
9.8005771632
11
-41.1310631600
21
8.9118334141
0
LINE
8
0
62
3
10
-40.9842217271
20
11.0071821021
11
-40.9714062470
21
10.7397724785
0
LINE
8
0
62
3
10
-38.8535548160
20
1.8811601710
11
-38.8535548160
21
0.9047822182
0
POLYLINE
8
0
62
3
66
1
70
0
0
VERTEX
8
0
62
3
10
-40.9714062470
20
10.7397724785
0
VERTEX
8
0
62
3
10
-40.9716135716
20
10.7038632000
0
VERTEX
8
0
62
3
10
-40.9759541023
20
10.6643546250
0
VERTEX
8
0
62
3
10
-40.9851241627
20
10.6206063522
0
VERTEX
8
0
62
3
10
-40.9991505194
20
10.5727869975
0
VERTEX
8
0
62
3
10
-41.0168316319
20
10.5211603547
0
SEQEND
0
LINE
8
0
62
3
10
-41.0168316319
20
10.5211603547
11
-41.1282304001
21
10.0191892870
0
LINE
8
0
10
-40.9851426682
20
10.6205340005
11
-40.9991688504
21
10.5727304250
0
LINE
8
0
10
-41.1458931816
20
9.9676192167
11
-41.1599193638
21
9.9198156412
0
POLYLINE
8
0
62
3
66
1
70
0
0
VERTEX
8
0
62
3
10
-41.1282304001
20
10.0191892870
0
VERTEX
8
0
62
3
10
-41.1459115126
20
9.9675626441
0
VERTEX
8
0
62
3
10
-41.1599378693
20
9.9197432895
0
VERTEX
8
0
62
3
10
-41.1691079297
20
9.8759950167
0
VERTEX
8
0
62
3
10
-41.1734484604
20
9.8364864417
0
VERTEX
8
0
62
3
10
-41.1736557850
20
9.8005771632
0
SEQEND
0
LINE
8
0
62
3
10
-38.9200738089
20
2.0973471821
11
-41.0649402092
21
8.6985671917
0
LINE
8
0
62
3
10
58.2836459425
20
0.9047822182
11
-38.8535548160
21
0.9047822182
0
LINE
8
0
62
3
10
63.2049057850
20
1.4953333993
11
58.2836459425
21
1.4953333993
0
LINE
8
0
62
3
10
56.8860081472
20
3.6445912766
11
55.3505750763
21
3.6445912766
0
LINE
8
0
62
3
10
53.5395514543
20
3.6445912766
11
52.0041183834
21
3.6445912766
0
LINE
8
0
62
3
10
60.2561075852
20
3.7233314341
11
60.0749845251
21
3.7233314341
0
LINE
8
0
62
3
10
60.0749845251
20
3.9989219853
11
60.2561075852
21
3.9989219853
0
LINE
8
0
62
3
10
52.0041183834
20
4.0776621427
11
53.5395514543
21
4.0776621427
0
LINE
8
0
62
3
10
55.3505750763
20
4.0776621427
11
56.8860081472
21
4.0776621427
0
LINE
8
0
62
3
10
58.3367491476
20
15.7670927818
11
-40.9842217271
21
11.0071821021
0
LINE
8
0
62
3
10
63.2049057850
20
6.2233314341
11
58.4804963362
21
12.3803016995
0
LINE
8
0
62
3
10
58.3697134837
20
15.2842136489
11
58.4172061452
21
14.7898573780
0
POLYLINE
8
0
62
3
66
1
70
0
0
VERTEX
8
0
62
3
10
58.3495646277
20
15.4996831581
0
VERTEX
8
0
62
3
10
58.3540127010
20
15.4317163188
0
VERTEX
8
0
62
3
10
58.3609436492
20
15.3597515890
0
VERTEX
8
0
62
3
10
58.3697134837
20
15.2842136489
0
SEQEND
0
LINE
8
0
62
3
10
58.3367491476
20
15.7670927818
11
58.3495646277
21
15.4996831581
0
LINE
8
0
62
3
10
58.4373550012
20
14.5743878688
11
58.4799476261
21
13.6856441197
0
POLYLINE
8
0
62
3
66
1
70
0
0
VERTEX
8
0
62
3
10
58.4799476261
20
13.6856441197
0
VERTEX
8
0
62
3
10
58.4820195676
20
13.6175634054
0
VERTEX
8
0
62
3
10
58.4820023293
20
13.5452656869
0
VERTEX
8
0
62
3
10
58.4804963362
20
13.4692352827
0
SEQEND
0
LINE
8
0
62
3
10
58.2836459425
20
0.9047822182
11
58.2836459425
21
1.4953333993
0
LINE
8
0
62
3
10
58.4804963362
20
12.3803016995
11
58.4804963362
21
13.4692352827
0
LINE
8
0
62
3
10
63.2049057850
20
1.4953333993
11
63.2049057850
21
6.2233314341
0
POLYLINE
8
0
62
3
66
1
70
0
0
VERTEX
8
0
62
3
10
58.4172061452
20
14.7898573780
0
VERTEX
8
0
62
3
10
58.4259759800
20
14.7143194360
0
VERTEX
8
0
62
3
10
58.4329069278
20
14.6423547071
0
VERTEX
8
0
62
3
10
58.4373550012
20
14.5743878688
0
SEQEND
0
CIRCLE
8
0
62
3
10
44.8978191708
20
1.4953333993
40
0.2165354331
0
CIRCLE
8
0
62
3
10
-8.0549367347
20
1.4953333993
40
0.2165354331
0
ARC
8
0
62
3
10
60.0749845251
20
3.8611267097
40
0.1377952756
50
90.0000000000
51
270.0000000000
0
ARC
8
0
62
3
10
60.6458506669
20
3.8611267097
40
0.4133858268
50
199.4712582184
51
520.5287417816
0
CIRCLE
8
0
62
3
10
43.5198664149
20
4.3532526939
40
0.3346456693
0
CIRCLE
8
0
62
3
10
26.7875829503
20
4.3532526939
40
0.3346456693
0
CIRCLE
8
0
62
3
10
10.0552994858
20
4.3532526939
40
0.3346456693
0
CIRCLE
8
0
62
3
10
-6.6769839788
20
4.3532526939
40
0.3346456693
0
CIRCLE
8
0
62
3
10
-23.4092674434
20
4.3532526939
40
0.3346456693
0
CIRCLE
8
0
62
3
10
50.0159294070
20
3.8611267097
40
0.2559055118
0
CIRCLE
8
0
62
3
10
46.0789215330
20
3.8611267097
40
0.2559055118
0
CIRCLE
8
0
62
3
10
-13.1730469709
20
3.8611267097
40
0.2559055118
0
CIRCLE
8
0
62
3
10
-9.2360390969
20
3.8611267097
40
0.2559055118
0
ARC
8
0
62
3
10
56.8860081472
20
3.8611267097
40
0.2165354331
50
270.0000000000
51
450.0000000000
0
ARC
8
0
62
3
10
55.3505750763
20
3.8611267097
40
0.2165354331
50
90.0000000000
51
270.0000000000
0
ARC
8
0
62
3
10
53.5395514543
20
3.8611267097
40
0.2165354331
50
270.0000000000
51
450.0000000000
0
ARC
8
0
62
3
10
52.0041183834
20
3.8611267097
40
0.2165354331
50
90.0000000000
51
270.0000000000
0
CIRCLE
8
0
62
3
10
60.4123523836
20
8.8925714851
40
0.1043307087
0
CIRCLE
8
0
62
3
10
59.2140031139
20
10.4542906589
40
0.1043307087
0
CIRCLE
8
0
62
3
10
58.0156538442
20
12.0160098327
40
0.1043307087
0
ENDSEC
0
EOF
