700 0 2 0           
24 FBMach with ACIS - 7.0.3 13 ACIS 7.0.3 NT 24 Wed May 15 10:09:32 2002 
1 9.9999999999999995e-007 1e-010 
body $2 -1 $-1 $3 $-1 $4 #
bdycol-kcp $-1 -1 1 2 $5 $6 #
model_id-kcp-attrib $-1 -1 $-1 $-1 $0 1 1021471771 1021471771 1150550017 1 #
lump $-1 -1 $-1 $-1 $7 $0 #
transform $-1 -1 1 0 0 0 1 0 0 0 1 0 0 0 1 rotate no_reflect no_shear #
body $8 -1 $-1 $9 $-1 $10 #
body $11 -1 $-1 $12 $-1 $13 #
shell $-1 -1 $-1 $-1 $-1 $14 $-1 $3 #
model_id-kcp-attrib $-1 -1 $-1 $-1 $5 1 1021471771 1021471771 1150550018 1 #
lump $-1 -1 $-1 $-1 $15 $5 #
transform $-1 -1 1 0 0 0 1 0 0 0 1 0 -1.5874999999999999 1.5875000000000004 1 no_rotate no_reflect no_shear #
rgb_color-st-attrib $-1 -1 $16 $-1 $6 1 0 0 #
lump $-1 -1 $-1 $-1 $17 $6 #
transform $-1 -1 -1 0 -1.2246063538223773e-016 0 1 0 1.2246063538223773e-016 0 -1 5.4265910986142959e-015 -1.5874999999999986 -44.312942535993038 1 rotate no_reflect no_shear #
face $18 -1 $-1 $19 $20 $7 $-1 $21 forward single #
shell $-1 -1 $-1 $-1 $-1 $22 $-1 $9 #
model_id-kcp-attrib $-1 -1 $-1 $11 $6 1 1021471771 1021471772 1148452867 1 #
shell $-1 -1 $-1 $-1 $-1 $23 $-1 $12 #
model_id-kcp-attrib $-1 -1 $-1 $-1 $14 1 1021471771 1021471771 1150550017 2 #
face $24 -1 $-1 $25 $26 $7 $-1 $27 forward single #
loop $-1 -1 $-1 $-1 $28 $14 #
plane-surface $-1 -1 $-1 0 0 0 0 1 0 1 0 0 forward_v I I I I #
face $29 -1 $-1 $30 $31 $15 $-1 $32 forward single #
face $-1 -1 $-1 $33 $34 $17 $-1 $35 reversed single #
model_id-kcp-attrib $-1 -1 $-1 $-1 $19 1 1021471771 1021471771 1150550017 3 #
face $36 -1 $-1 $37 $38 $7 $-1 $39 forward single #
loop $-1 -1 $-1 $-1 $40 $19 #
plane-surface $-1 -1 $-1 -19.049999999999997 -1.5874999999999999 1.5874999999999999 -1 0 0 0 0 1 forward_v I I I I #
coedge $-1 -1 $-1 $41 $42 $43 $44 forward $20 $-1 #
model_id-kcp-attrib $-1 -1 $-1 $-1 $22 1 1021471771 1021471771 1150550018 7 #
face $45 -1 $-1 $46 $47 $15 $-1 $48 reversed single #
loop $-1 -1 $-1 $-1 $49 $22 #
plane-surface $-1 -1 $-1 0 0 12.699999999999999 0 0 1 1 0 0 forward_v I I I I #
face $-1 -1 $-1 $50 $51 $17 $-1 $52 reversed single #
loop $-1 -1 $-1 $-1 $53 $23 #
plane-surface $-1 -1 $-1 -1.9440625866930243e-016 1.5874999999999986 -45.900442535993037 0 -1 0 1.2246063538223773e-016 0 1 forward_v I I I I #
model_id-kcp-attrib $-1 -1 $-1 $-1 $25 1 1021471771 1021471771 1150550017 4 #
face $54 -1 $-1 $55 $56 $7 $-1 $57 forward single #
loop $-1 -1 $-1 $-1 $58 $25 #
plane-surface $-1 -1 $-1 -16.668749999999999 -1.5874999999999999 -11.112499999999999 0 0 -1 -1 0 0 forward_v I I I I #
coedge $-1 -1 $-1 $59 $43 $60 $61 forward $26 $-1 #
coedge $-1 -1 $-1 $62 $28 $63 $64 forward $20 $-1 #
coedge $-1 -1 $-1 $28 $65 $66 $67 forward $20 $-1 #
coedge $-1 -1 $-1 $40 $68 $28 $44 reversed $26 $-1 #
edge $69 -1 $-1 $70 0 $71 25.399999999999999 $28 $72 forward @7 unknown #
model_id-kcp-attrib $-1 -1 $-1 $-1 $30 1 1021471771 1021471771 1150550018 4 #
face $73 -1 $-1 $74 $75 $15 $-1 $76 reversed single #
loop $-1 -1 $-1 $-1 $77 $30 #
plane-surface $-1 -1 $-1 0 0 -12.699999999999999 0 0 1 1 0 0 forward_v I I I I #
coedge $-1 -1 $-1 $78 $79 $80 $81 forward $31 $-1 #
face $-1 -1 $-1 $82 $83 $17 $-1 $84 reversed single #
loop $-1 -1 $-1 $-1 $85 $33 #
plane-surface $-1 -1 $-1 -1.9440625866930243e-016 -1.5875000000000012 -45.900442535993037 0 1 0 -1.2246063538223773e-016 0 -1 forward_v I I I I #
coedge $-1 -1 $-1 $86 $87 $88 $89 forward $34 $-1 #
model_id-kcp-attrib $-1 -1 $-1 $-1 $37 1 1021471771 1021471771 1150550017 5 #
face $90 -1 $-1 $91 $92 $7 $-1 $93 forward single #
loop $-1 -1 $-1 $-1 $94 $37 #
plane-surface $-1 -1 $-1 -14.2875 -1.5874999999999999 -4.7624999999999993 1 0 0 0 0 -1 forward_v I I I I #
coedge $-1 -1 $-1 $95 $66 $96 $97 forward $38 $-1 #
coedge $-1 -1 $-1 $68 $40 $98 $99 forward $26 $-1 #
coedge $-1 -1 $-1 $66 $95 $40 $61 reversed $38 $-1 #
edge $100 -1 $-1 $70 0 $101 3.1749999999999998 $60 $102 forward @7 unknown #
coedge $-1 -1 $-1 $103 $41 $104 $105 forward $20 $-1 #
coedge $-1 -1 $-1 $106 $107 $41 $64 reversed $108 $-1 #
edge $109 -1 $-1 $71 0 $110 38.099999999999994 $41 $111 forward @7 unknown #
coedge $-1 -1 $-1 $42 $112 $113 $114 forward $20 $-1 #
coedge $-1 -1 $-1 $58 $60 $42 $67 reversed $38 $-1 #
edge $115 -1 $-1 $116 0 $70 4.7624999999999975 $42 $117 forward @7 unknown #
coedge $-1 -1 $-1 $43 $59 $106 $118 reversed $26 $-1 #
attrib_edge_convexity-kcp-attrib $-1 -1 $119 $-1 $44 1 #
vertex $-1 -1 $-1 $67 $120 #
vertex $-1 -1 $-1 $64 $121 #
straight-curve $-1 -1 $-1 -19.049999999999997 0 -11.112499999999999 0 0 1 I I #
model_id-kcp-attrib $-1 -1 $-1 $-1 $46 1 1021471771 1021471771 1150550018 8 #
face $122 -1 $-1 $123 $124 $15 $-1 $125 reversed single #
loop $-1 -1 $-1 $-1 $126 $46 #
plane-surface $-1 -1 $-1 0 -1.5874999999999999 0 0 1 0 0 0 1 forward_v I I I I #
coedge $-1 -1 $-1 $127 $128 $129 $130 forward $47 $-1 #
coedge $-1 -1 $-1 $131 $49 $132 $133 forward $31 $-1 #
coedge $-1 -1 $-1 $49 $131 $134 $135 forward $31 $-1 #
coedge $-1 -1 $-1 $136 $137 $49 $81 reversed $138 $-1 #
edge $-1 -1 $-1 $139 -1.5874999999999999 $140 1.5874999999999999 $80 $141 forward @7 unknown #
face $-1 -1 $-1 $142 $143 $17 $-1 $144 reversed single #
loop $-1 -1 $-1 $-1 $145 $50 #
plane-surface $-1 -1 $-1 1.3608438106851166e-015 -1.3322676295501878e-015 -33.200442535993034 -1.2246063538223773e-016 0 -1 -1 0 1.2246063538223773e-016 forward_v I I I I #
coedge $-1 -1 $-1 $146 $147 $148 $149 forward $51 $-1 #
coedge $-1 -1 $-1 $150 $53 $151 $152 forward $34 $-1 #
coedge $-1 -1 $-1 $53 $150 $153 $154 reversed $34 $-1 #
coedge $-1 -1 $-1 $155 $156 $53 $89 reversed $157 $-1 #
edge $-1 -1 $-1 $158 10.250221267996523 $159 22.950221267996518 $88 $160 forward @7 unknown #
model_id-kcp-attrib $-1 -1 $-1 $-1 $55 1 1021471771 1021471771 1150550017 6 #
face $161 -1 $-1 $162 $163 $7 $-1 $164 forward single #
loop $-1 -1 $-1 $-1 $165 $55 #
plane-surface $-1 -1 $-1 1.7763568394002505e-015 -1.5874999999999999 1.5874999999999999 0 0 -1 -1 0 0 forward_v I I I I #
coedge $-1 -1 $-1 $166 $113 $167 $168 forward $56 $-1 #
coedge $-1 -1 $-1 $60 $58 $169 $170 forward $38 $-1 #
coedge $-1 -1 $-1 $113 $166 $58 $97 reversed $56 $-1 #
edge $171 -1 $-1 $116 0 $172 3.1749999999999998 $58 $173 forward @7 unknown #
coedge $-1 -1 $-1 $169 $174 $59 $99 reversed $175 $-1 #
edge $176 -1 $-1 $101 0 $177 25.399999999999999 $59 $178 forward @7 unknown #
attrib_edge_convexity-kcp-attrib $-1 -1 $179 $-1 $61 1 #
vertex $-1 -1 $-1 $61 $180 #
straight-curve $-1 -1 $-1 -19.049999999999997 0 -11.112499999999999 0 -1 0 I I #
coedge $-1 -1 $-1 $181 $62 $182 $183 forward $20 $-1 #
coedge $-1 -1 $-1 $184 $185 $62 $105 reversed $186 $-1 #
edge $187 -1 $-1 $110 0 $188 25.399999999999999 $62 $189 forward @7 unknown #
coedge $-1 -1 $-1 $190 $63 $68 $118 forward $108 $-1 #
coedge $-1 -1 $-1 $63 $190 $184 $191 reversed $108 $-1 #
loop $-1 -1 $-1 $-1 $106 $192 #
attrib_edge_convexity-kcp-attrib $-1 -1 $193 $-1 $64 1 #
vertex $-1 -1 $-1 $105 $194 #
straight-curve $-1 -1 $-1 -19.049999999999997 0 14.2875 1 0 0 I I #
coedge $-1 -1 $-1 $65 $181 $195 $196 forward $20 $-1 #
coedge $-1 -1 $-1 $94 $96 $65 $114 reversed $56 $-1 #
edge $197 -1 $-1 $198 4.4408920985006262e-016 $116 12.699999999999999 $65 $199 forward @7 unknown #
attrib_edge_convexity-kcp-attrib $-1 -1 $200 $-1 $67 1 #
vertex $-1 -1 $-1 $67 $201 #
straight-curve $-1 -1 $-1 -14.2875 0 -11.112499999999999 -1 0 0 I I #
edge $202 -1 $-1 $71 0 $177 3.1749999999999998 $106 $203 forward @7 unknown #
convexity-sys-attrib $-1 -1 $-1 $69 $44 #
point $-1 -1 $-1 -19.049999999999997 0 -11.112499999999999 #
point $-1 -1 $-1 -19.049999999999997 0 14.2875 #
model_id-kcp-attrib $-1 -1 $-1 $-1 $74 1 1021471771 1021471771 1150550018 3 #
face $204 -1 $-1 $205 $206 $15 $-1 $207 reversed single #
loop $-1 -1 $-1 $-1 $208 $74 #
plane-surface $-1 -1 $-1 -19.049999999999997 0 0 1 0 0 0 0 -1 forward_v I I I I #
coedge $-1 -1 $-1 $209 $134 $210 $211 forward $75 $-1 #
coedge $-1 -1 $-1 $212 $77 $209 $213 forward $47 $-1 #
coedge $-1 -1 $-1 $77 $212 $214 $215 forward $47 $-1 #
coedge $-1 -1 $-1 $137 $136 $77 $130 reversed $138 $-1 #
edge $-1 -1 $-1 $216 -1.5874999999999999 $217 1.5874999999999999 $129 $218 forward @7 unknown #
coedge $-1 -1 $-1 $79 $78 $219 $220 forward $31 $-1 #
coedge $-1 -1 $-1 $221 $222 $78 $133 reversed $206 $-1 #
edge $-1 -1 $-1 $140 -19.049999999999997 $223 19.049999999999997 $132 $224 forward @7 unknown #
coedge $-1 -1 $-1 $126 $225 $79 $135 reversed $75 $-1 #
edge $-1 -1 $-1 $226 -19.049999999999997 $139 19.049999999999997 $134 $227 forward @7 unknown #
coedge $-1 -1 $-1 $129 $80 $225 $228 forward $138 $-1 #
coedge $-1 -1 $-1 $80 $129 $221 $229 reversed $138 $-1 #
loop $-1 -1 $-1 $-1 $136 $205 #
vertex $-1 -1 $-1 $81 $230 #
vertex $-1 -1 $-1 $81 $231 #
straight-curve $-1 -1 $-1 19.049999999999997 0 12.699999999999999 0 1 0 I I #
face $-1 -1 $-1 $232 $233 $17 $-1 $234 reversed single #
loop $-1 -1 $-1 $-1 $235 $82 #
plane-surface $-1 -1 $-1 0 0 -45.900442535993044 0 0 1 1 0 0 forward_v I I I I #
coedge $-1 -1 $-1 $153 $236 $155 $237 forward $83 $-1 #
coedge $-1 -1 $-1 $238 $85 $236 $239 reversed $51 $-1 #
coedge $-1 -1 $-1 $85 $238 $235 $240 forward $51 $-1 #
coedge $-1 -1 $-1 $156 $155 $85 $149 reversed $157 $-1 #
edge $-1 -1 $-1 $241 -22.950221267996518 $242 -10.250221267996523 $148 $243 forward @7 unknown #
coedge $-1 -1 $-1 $87 $86 $244 $245 forward $34 $-1 #
coedge $-1 -1 $-1 $246 $247 $86 $152 reversed $143 $-1 #
edge $248 -1 $-1 $159 -14.2875 $249 14.2875 $151 $250 forward @7 unknown #
coedge $-1 -1 $-1 $251 $145 $87 $154 forward $83 $-1 #
edge $-1 -1 $-1 $158 -14.2875 $252 14.2875 $87 $253 forward @7 unknown #
coedge $-1 -1 $-1 $148 $88 $145 $237 reversed $157 $-1 #
coedge $-1 -1 $-1 $88 $148 $246 $254 reversed $157 $-1 #
loop $-1 -1 $-1 $-1 $148 $232 #
vertex $-1 -1 $-1 $89 $255 #
vertex $-1 -1 $-1 $254 $256 #
straight-curve $-1 -1 $-1 14.2875 1.5874999999999986 -22.950221267996518 0 0 -1 I I #
model_id-kcp-attrib $-1 -1 $-1 $-1 $91 1 1021471771 1021471771 1150550017 7 #
face $257 -1 $-1 $258 $259 $7 $-1 $260 forward single #
loop $-1 -1 $-1 $-1 $261 $91 #
plane-surface $-1 -1 $-1 14.2875 -1.5874999999999999 -4.7624999999999993 -1 0 0 0 0 1 forward_v I I I I #
coedge $-1 -1 $-1 $262 $195 $263 $264 forward $92 $-1 #
coedge $-1 -1 $-1 $96 $94 $265 $266 forward $56 $-1 #
coedge $-1 -1 $-1 $195 $262 $94 $168 reversed $92 $-1 #
edge $267 -1 $-1 $198 0 $268 3.1749999999999998 $94 $269 forward @7 unknown #
coedge $-1 -1 $-1 $265 $98 $95 $170 reversed $175 $-1 #
edge $270 -1 $-1 $172 0 $101 4.7624999999999975 $95 $271 forward @7 unknown #
attrib_edge_convexity-kcp-attrib $-1 -1 $272 $-1 $97 1 #
vertex $-1 -1 $-1 $170 $273 #
straight-curve $-1 -1 $-1 -14.2875 0 -11.112499999999999 0 -1 0 I I #
coedge $-1 -1 $-1 $98 $274 $190 $275 reversed $175 $-1 #
loop $-1 -1 $-1 $-1 $265 $276 #
attrib_edge_convexity-kcp-attrib $-1 -1 $277 $-1 $99 1 #
vertex $-1 -1 $-1 $275 $278 #
straight-curve $-1 -1 $-1 -19.049999999999997 -3.1749999999999998 -11.112499999999999 0 0 1 I I #
convexity-sys-attrib $-1 -1 $-1 $100 $61 #
point $-1 -1 $-1 -19.049999999999997 -3.1749999999999998 -11.112499999999999 #
coedge $-1 -1 $-1 $112 $103 $279 $280 forward $20 $-1 #
coedge $-1 -1 $-1 $281 $282 $103 $183 reversed $259 $-1 #
edge $283 -1 $-1 $188 0 $284 4.7624999999999975 $103 $285 forward @7 unknown #
coedge $-1 -1 $-1 $286 $104 $107 $191 forward $186 $-1 #
coedge $-1 -1 $-1 $104 $286 $281 $287 reversed $186 $-1 #
loop $-1 -1 $-1 $-1 $184 $258 #
attrib_edge_convexity-kcp-attrib $-1 -1 $288 $-1 $105 1 #
vertex $-1 -1 $-1 $183 $289 #
straight-curve $-1 -1 $-1 19.049999999999997 0 14.2875 0 0 -1 I I #
coedge $-1 -1 $-1 $107 $106 $174 $275 forward $108 $-1 #
edge $-1 -1 $-1 $110 0 $290 3.1749999999999998 $184 $291 forward @7 unknown #
face $292 -1 $-1 $276 $108 $7 $-1 $293 forward single #
convexity-sys-attrib $-1 -1 $-1 $109 $64 #
point $-1 -1 $-1 19.049999999999997 0 14.2875 #
coedge $-1 -1 $-1 $165 $167 $112 $196 reversed $92 $-1 #
edge $294 -1 $-1 $295 0 $198 28.574999999999999 $112 $296 forward @7 unknown #
attrib_edge_convexity-kcp-attrib $-1 -1 $297 $-1 $114 1 #
vertex $-1 -1 $-1 $114 $298 #
straight-curve $-1 -1 $-1 -14.2875 0 1.5875000000000004 0 0 -1 I I #
convexity-sys-attrib $-1 -1 $-1 $115 $67 #
point $-1 -1 $-1 -14.2875 0 -11.112499999999999 #
attrib_edge_convexity-kcp-attrib $-1 -1 $299 $-1 $118 1 #
straight-curve $-1 -1 $-1 -19.049999999999997 0 14.2875 0 -1 0 I I #
model_id-kcp-attrib $-1 -1 $-1 $-1 $123 1 1021471771 1021471771 1150550018 2 #
face $300 -1 $-1 $-1 $138 $15 $-1 $301 reversed single #
loop $-1 -1 $-1 $-1 $221 $123 #
plane-surface $-1 -1 $-1 0 1.5874999999999999 0 0 -1 0 0 0 -1 forward_v I I I I #
coedge $-1 -1 $-1 $302 $219 $222 $303 forward $124 $-1 #
coedge $-1 -1 $-1 $225 $126 $127 $213 reversed $75 $-1 #
coedge $-1 -1 $-1 $219 $302 $126 $211 reversed $124 $-1 #
edge $-1 -1 $-1 $226 -12.699999999999999 $304 12.699999999999999 $210 $305 forward @7 unknown #
coedge $-1 -1 $-1 $128 $127 $302 $306 forward $47 $-1 #
edge $-1 -1 $-1 $217 -19.049999999999997 $304 19.049999999999997 $209 $307 forward @7 unknown #
coedge $-1 -1 $-1 $222 $221 $128 $215 reversed $206 $-1 #
edge $-1 -1 $-1 $308 -19.049999999999997 $216 19.049999999999997 $214 $309 forward @7 unknown #
vertex $-1 -1 $-1 $130 $310 #
vertex $-1 -1 $-1 $228 $311 #
straight-curve $-1 -1 $-1 19.049999999999997 0 -12.699999999999999 0 -1 0 I I #
coedge $-1 -1 $-1 $208 $210 $131 $220 reversed $124 $-1 #
edge $-1 -1 $-1 $223 -1.5874999999999999 $226 1.5874999999999999 $219 $312 forward @7 unknown #
coedge $-1 -1 $-1 $214 $132 $137 $229 forward $206 $-1 #
coedge $-1 -1 $-1 $132 $214 $208 $303 reversed $206 $-1 #
vertex $-1 -1 $-1 $133 $313 #
straight-curve $-1 -1 $-1 0 1.5874999999999999 12.699999999999999 -1 0 0 I I #
coedge $-1 -1 $-1 $134 $209 $136 $228 reversed $75 $-1 #
vertex $-1 -1 $-1 $220 $314 #
straight-curve $-1 -1 $-1 0 -1.5874999999999999 12.699999999999999 1 0 0 I I #
edge $-1 -1 $-1 $139 -12.699999999999999 $217 12.699999999999999 $136 $315 forward @7 unknown #
edge $-1 -1 $-1 $140 -12.699999999999999 $216 12.699999999999999 $137 $316 forward @7 unknown #
point $-1 -1 $-1 19.049999999999997 -1.5874999999999999 12.699999999999999 #
point $-1 -1 $-1 19.049999999999997 1.5874999999999999 12.699999999999999 #
face $-1 -1 $-1 $-1 $157 $17 $-1 $317 reversed single #
loop $-1 -1 $-1 $-1 $318 $142 #
plane-surface $-1 -1 $-1 -14.2875 0 0 1 0 0 0 0 -1 forward_v I I I I #
coedge $-1 -1 $-1 $247 $246 $147 $240 reversed $143 $-1 #
coedge $-1 -1 $-1 $145 $251 $146 $239 forward $83 $-1 #
edge $-1 -1 $-1 $242 -1.5875000000000006 $158 1.5874999999999992 $155 $319 forward @7 unknown #
coedge $-1 -1 $-1 $147 $146 $318 $320 forward $51 $-1 #
edge $-1 -1 $-1 $321 -14.2875 $242 14.2875 $146 $322 forward @7 unknown #
edge $323 -1 $-1 $324 -14.2875 $241 14.287499999999998 $235 $325 forward @7 unknown #
vertex $-1 -1 $-1 $240 $326 #
vertex $-1 -1 $-1 $149 $327 #
straight-curve $-1 -1 $-1 14.2875 -1.5875000000000012 -22.950221267996518 0 0 1 I I #
coedge $-1 -1 $-1 $328 $329 $150 $245 reversed $233 $-1 #
edge $-1 -1 $-1 $249 -22.950221267996518 $252 -10.250221267996515 $244 $330 forward @7 unknown #
coedge $-1 -1 $-1 $235 $151 $156 $254 forward $143 $-1 #
coedge $-1 -1 $-1 $151 $235 $328 $331 forward $143 $-1 #
convexity-sys-attrib $-1 -1 $-1 $-1 $152 #
vertex $-1 -1 $-1 $152 $332 #
straight-curve $-1 -1 $-1 -9.7203129334651217e-017 1.5874999999999986 -45.900442535993044 -1 0 0 I I #
coedge $-1 -1 $-1 $236 $153 $329 $333 forward $83 $-1 #
vertex $-1 -1 $-1 $245 $334 #
straight-curve $-1 -1 $-1 1.3608438106851166e-015 1.5874999999999986 -33.200442535993034 -1 0 1.2246063538223773e-016 I I #
edge $335 -1 $-1 $159 -1.5874999999999986 $241 1.5875000000000012 $156 $336 forward @7 unknown #
point $-1 -1 $-1 14.287500000000001 1.5874999999999986 -33.200442535993041 #
point $-1 -1 $-1 14.2875 1.5874999999999986 -45.900442535993037 #
model_id-kcp-attrib $-1 -1 $-1 $-1 $162 1 1021471771 1021471771 1150550017 8 #
face $337 -1 $-1 $192 $186 $7 $-1 $338 forward single #
loop $-1 -1 $-1 $-1 $281 $162 #
plane-surface $-1 -1 $-1 16.668749999999999 -1.5874999999999999 -11.112499999999999 0 0 -1 -1 0 0 forward_v I I I I #
coedge $-1 -1 $-1 $339 $279 $282 $340 forward $163 $-1 #
coedge $-1 -1 $-1 $167 $165 $341 $342 forward $92 $-1 #
coedge $-1 -1 $-1 $279 $339 $165 $264 reversed $163 $-1 #
edge $343 -1 $-1 $295 0 $344 3.1749999999999998 $165 $345 forward @7 unknown #
coedge $-1 -1 $-1 $341 $169 $166 $266 reversed $175 $-1 #
edge $-1 -1 $-1 $268 4.4408920985006262e-016 $172 12.699999999999999 $166 $346 forward @7 unknown #
attrib_edge_convexity-kcp-attrib $-1 -1 $347 $-1 $168 2 #
vertex $-1 -1 $-1 $266 $348 #
straight-curve $-1 -1 $-1 -14.2875 0 1.5875000000000004 0 -1 0 I I #
attrib_edge_convexity-kcp-attrib $-1 -1 $349 $-1 $170 1 #
straight-curve $-1 -1 $-1 -14.2875 -3.1749999999999998 -11.112499999999999 -1 0 0 I I #
convexity-sys-attrib $-1 -1 $-1 $171 $97 #
point $-1 -1 $-1 -14.2875 -3.1749999999999998 -11.112499999999999 #
coedge $-1 -1 $-1 $174 $350 $286 $351 reversed $175 $-1 #
edge $-1 -1 $-1 $177 0 $290 38.099999999999994 $190 $352 forward @7 unknown #
face $353 -1 $-1 $-1 $175 $7 $-1 $354 reversed single #
convexity-sys-attrib $-1 -1 $-1 $176 $99 #
point $-1 -1 $-1 -19.049999999999997 -3.1749999999999998 14.2875 #
coedge $-1 -1 $-1 $261 $263 $181 $280 reversed $163 $-1 #
edge $355 -1 $-1 $284 0 $295 12.699999999999999 $181 $356 forward @7 unknown #
coedge $-1 -1 $-1 $357 $182 $185 $287 forward $259 $-1 #
coedge $-1 -1 $-1 $182 $357 $261 $340 reversed $259 $-1 #
attrib_edge_convexity-kcp-attrib $-1 -1 $358 $-1 $183 1 #
vertex $-1 -1 $-1 $280 $359 #
straight-curve $-1 -1 $-1 19.049999999999997 0 -11.112499999999999 -1 0 0 I I #
coedge $-1 -1 $-1 $185 $184 $274 $351 forward $186 $-1 #
edge $-1 -1 $-1 $188 0 $360 3.1749999999999998 $281 $361 forward @7 unknown #
convexity-sys-attrib $-1 -1 $-1 $187 $105 #
point $-1 -1 $-1 19.049999999999997 0 -11.112499999999999 #
vertex $-1 -1 $-1 $351 $362 #
straight-curve $-1 -1 $-1 19.049999999999997 0 14.2875 0 -1 0 I I #
model_id-kcp-attrib $-1 -1 $-1 $-1 $192 1 1021471771 1021471771 1150550017 10 #
plane-surface $-1 -1 $-1 0 -1.5874999999999999 14.2875 0 0 1 1 0 0 forward_v I I I I #
attrib_edge_convexity-kcp-attrib $-1 -1 $363 $-1 $196 1 #
vertex $-1 -1 $-1 $196 $364 #
straight-curve $-1 -1 $-1 14.2875 0 1.5874999999999999 -1 0 0 I I #
convexity-sys-attrib $-1 -1 $-1 $197 $114 #
point $-1 -1 $-1 -14.2875 0 1.5874999999999999 #
convexity-sys-attrib $-1 -1 $-1 $202 $118 #
model_id-kcp-attrib $-1 -1 $-1 $-1 $205 1 1021471771 1021471771 1150550018 6 #
plane-surface $-1 -1 $-1 19.049999999999997 0 0 -1 0 0 0 0 1 forward_v I I I I #
coedge $-1 -1 $-1 $210 $208 $212 $306 reversed $124 $-1 #
edge $-1 -1 $-1 $223 -12.699999999999999 $308 12.699999999999999 $222 $365 forward @7 unknown #
vertex $-1 -1 $-1 $306 $366 #
straight-curve $-1 -1 $-1 -19.049999999999997 -1.5874999999999999 0 0 0 -1 I I #
edge $-1 -1 $-1 $304 -1.5874999999999999 $308 1.5874999999999999 $302 $367 forward @7 unknown #
straight-curve $-1 -1 $-1 0 -1.5874999999999999 -12.699999999999999 -1 0 0 I I #
vertex $-1 -1 $-1 $215 $368 #
straight-curve $-1 -1 $-1 0 1.5874999999999999 -12.699999999999999 1 0 0 I I #
point $-1 -1 $-1 19.049999999999997 1.5874999999999999 -12.699999999999999 #
point $-1 -1 $-1 19.049999999999997 -1.5874999999999999 -12.699999999999999 #
straight-curve $-1 -1 $-1 -19.049999999999997 0 12.699999999999999 0 -1 0 I I #
point $-1 -1 $-1 -19.049999999999997 1.5874999999999999 12.699999999999999 #
point $-1 -1 $-1 -19.049999999999997 -1.5874999999999999 12.699999999999999 #
straight-curve $-1 -1 $-1 19.049999999999997 -1.5874999999999999 0 0 0 -1 I I #
straight-curve $-1 -1 $-1 19.049999999999997 1.5874999999999999 0 0 0 -1 I I #
plane-surface $-1 -1 $-1 14.2875 0 0 -1 0 0 0 0 1 forward_v I I I I #
coedge $-1 -1 $-1 $329 $328 $238 $320 reversed $233 $-1 #
straight-curve $-1 -1 $-1 14.2875 -6.6613381477509392e-016 -33.200442535993034 0 1 0 I I #
edge $-1 -1 $-1 $321 10.250221267996515 $324 22.950221267996518 $318 $369 forward @7 unknown #
vertex $-1 -1 $-1 $320 $370 #
straight-curve $-1 -1 $-1 1.3608438106851166e-015 -1.5875000000000012 -33.200442535993034 1 0 -1.2246063538223773e-016 I I #
convexity-sys-attrib $-1 -1 $-1 $-1 $240 #
vertex $-1 -1 $-1 $331 $371 #
straight-curve $-1 -1 $-1 -9.7203129334651217e-017 -1.5875000000000012 -45.900442535993044 1 0 0 I I #
point $-1 -1 $-1 14.287499999999998 -1.5875000000000012 -45.900442535993037 #
point $-1 -1 $-1 14.287500000000001 -1.5875000000000012 -33.200442535993041 #
coedge $-1 -1 $-1 $318 $244 $247 $331 reversed $233 $-1 #
coedge $-1 -1 $-1 $244 $318 $251 $333 reversed $233 $-1 #
straight-curve $-1 -1 $-1 -14.2875 1.5874999999999986 -22.950221267996518 0 0 1 I I #
edge $372 -1 $-1 $324 -1.5875000000000012 $249 1.5874999999999986 $328 $373 forward @7 unknown #
point $-1 -1 $-1 -14.2875 1.5874999999999986 -45.900442535993037 #
edge $-1 -1 $-1 $252 -1.5874999999999992 $321 1.5875000000000006 $329 $374 forward @7 unknown #
point $-1 -1 $-1 -14.287499999999998 1.5874999999999986 -33.200442535993034 #
convexity-sys-attrib $-1 -1 $-1 $-1 $254 #
straight-curve $-1 -1 $-1 14.2875 0 -45.900442535993044 0 -1 0 I I #
model_id-kcp-attrib $-1 -1 $-1 $-1 $258 1 1021471771 1021471771 1150550017 9 #
plane-surface $-1 -1 $-1 19.049999999999997 -1.5874999999999999 1.5874999999999999 1 0 0 0 0 -1 forward_v I I I I #
coedge $-1 -1 $-1 $263 $261 $375 $376 forward $163 $-1 #
edge $-1 -1 $-1 $284 0 $377 3.1749999999999998 $261 $378 forward @7 unknown #
coedge $-1 -1 $-1 $375 $265 $262 $342 reversed $175 $-1 #
edge $379 -1 $-1 $344 0 $268 28.574999999999996 $262 $380 forward @7 unknown #
attrib_edge_convexity-kcp-attrib $-1 -1 $381 $-1 $264 2 #
vertex $-1 -1 $-1 $342 $382 #
straight-curve $-1 -1 $-1 14.2875 0 1.5874999999999999 0 -1 0 I I #
straight-curve $-1 -1 $-1 -14.2875 -3.1749999999999998 1.5875000000000004 0 0 -1 I I #
convexity-sys-attrib $-1 -1 $-1 $267 $168 #
point $-1 -1 $-1 -14.287499999999998 -3.1749999999999998 1.5874999999999999 #
convexity-sys-attrib $-1 -1 $-1 $270 $170 #
coedge $-1 -1 $-1 $274 $375 $357 $383 reversed $175 $-1 #
edge $-1 -1 $-1 $290 0 $360 25.399999999999999 $286 $384 forward @7 unknown #
straight-curve $-1 -1 $-1 -19.049999999999997 -3.1749999999999998 14.2875 1 0 0 I I #
model_id-kcp-attrib $-1 -1 $-1 $-1 $276 1 1021471771 1021471771 1150550017 11 #
plane-surface $-1 -1 $-1 0 -3.1749999999999998 0 0 1 0 1 0 0 forward_v I I I I #
attrib_edge_convexity-kcp-attrib $-1 -1 $385 $-1 $280 1 #
straight-curve $-1 -1 $-1 14.2875 0 -11.112499999999999 0 0 1 I I #
coedge $-1 -1 $-1 $282 $281 $350 $383 forward $259 $-1 #
convexity-sys-attrib $-1 -1 $-1 $283 $183 #
point $-1 -1 $-1 14.2875 0 -11.112499999999999 #
vertex $-1 -1 $-1 $383 $386 #
straight-curve $-1 -1 $-1 19.049999999999997 0 -11.112499999999999 0 -1 0 I I #
point $-1 -1 $-1 19.049999999999997 -3.1749999999999998 14.2875 #
convexity-sys-attrib $-1 -1 $-1 $294 $196 #
point $-1 -1 $-1 14.2875 0 1.5874999999999999 #
straight-curve $-1 -1 $-1 -19.049999999999997 1.5874999999999999 0 0 0 -1 I I #
point $-1 -1 $-1 -19.049999999999997 -1.5874999999999999 -12.699999999999999 #
straight-curve $-1 -1 $-1 -19.049999999999997 0 -12.699999999999999 0 1 0 I I #
point $-1 -1 $-1 -19.049999999999997 1.5874999999999999 -12.699999999999999 #
straight-curve $-1 -1 $-1 -14.2875 -1.5875000000000012 -22.950221267996518 0 0 -1 I I #
point $-1 -1 $-1 -14.287499999999998 -1.5875000000000012 -33.200442535993034 #
point $-1 -1 $-1 -14.2875 -1.5875000000000012 -45.900442535993037 #
convexity-sys-attrib $-1 -1 $-1 $-1 $331 #
straight-curve $-1 -1 $-1 -14.2875 0 -45.900442535993044 0 1 0 I I #
straight-curve $-1 -1 $-1 -14.2875 -6.6613381477509392e-016 -33.200442535993034 0 -1 0 I I #
coedge $-1 -1 $-1 $350 $341 $339 $376 reversed $175 $-1 #
edge $-1 -1 $-1 $377 0 $344 12.699999999999999 $339 $387 forward @7 unknown #
vertex $-1 -1 $-1 $376 $388 #
straight-curve $-1 -1 $-1 14.2875 0 -11.112499999999999 0 -1 0 I I #
attrib_edge_convexity-kcp-attrib $-1 -1 $389 $-1 $342 1 #
straight-curve $-1 -1 $-1 14.2875 -3.1749999999999998 1.5874999999999999 -1 0 0 I I #
convexity-sys-attrib $-1 -1 $-1 $343 $264 #
point $-1 -1 $-1 14.2875 -3.1749999999999998 1.5875000000000004 #
edge $-1 -1 $-1 $360 0 $377 4.7624999999999975 $357 $390 forward @7 unknown #
straight-curve $-1 -1 $-1 19.049999999999997 -3.1749999999999998 14.2875 0 0 -1 I I #
convexity-sys-attrib $-1 -1 $-1 $355 $280 #
point $-1 -1 $-1 19.049999999999997 -3.1749999999999998 -11.112499999999999 #
straight-curve $-1 -1 $-1 14.2875 -3.1749999999999998 -11.112499999999999 0 0 1 I I #
point $-1 -1 $-1 14.2875 -3.1749999999999998 -11.112499999999999 #
convexity-sys-attrib $-1 -1 $-1 $379 $342 #
straight-curve $-1 -1 $-1 19.049999999999997 -3.1749999999999998 -11.112499999999999 -1 0 0 I I #
End-of-ACIS-data 