600 0 1 0           
104 GICL Pro/E ACIS Translator - Source: f:/data5/repository/PTC/V20/NC_Training_Rel20/DXF/part_11.prt - 6 0 13 ACIS 6.0.3 NT 24 Thu Apr 04 13:13:34 2002 
1 9.9999999999999995e-007 1e-010 
body $-1 $1 $-1 $-1 #
lump $-1 $-1 $2 $0 #
shell $-1 $-1 $-1 $3 $-1 $1 #
face $-1 $4 $5 $2 $-1 $6 forward single #
face $-1 $7 $8 $2 $-1 $9 reversed single #
loop $-1 $-1 $10 $3 #
plane-surface $-1 0 360 75 -1 0 0 0 -1 0 forward_v I I I I #
face $-1 $11 $12 $2 $-1 $13 forward single #
loop $-1 $-1 $14 $4 #
cone-surface $-1 0.5 50 -2.1316282072803006e-014 -1 0 0 0 0 60 1 I I 0 1 60 forward I I I I #
coedge $-1 $15 $16 $17 $18 reversed $5 $-1 #
face $-1 $19 $20 $2 $-1 $21 reversed single #
loop $-1 $-1 $22 $7 #
plane-surface $-1 0.5 25 -60 0 0 1 0 1 0 forward_v I I I I #
coedge $-1 $23 $17 $24 $25 forward $8 $-1 #
coedge $-1 $26 $10 $27 $28 reversed $5 $-1 #
coedge $-1 $10 $29 $30 $31 forward $5 $-1 #
coedge $-1 $14 $32 $10 $18 forward $8 $-1 #
edge $-1 $33 0 $34 3.1415926535897931 $10 $35 forward 7 unknown #
face $-1 $36 $37 $2 $-1 $38 forward single #
loop $-1 $-1 $39 $11 #
plane-surface $-1 0.5 0 0 0 1 0 0 0 -1 forward_v I I I I #
coedge $-1 $40 $30 $41 $42 forward $12 $-1 #
coedge $-1 $32 $14 $43 $44 reversed $8 $-1 #
coedge $-1 $30 $40 $14 $25 reversed $12 $-1 #
edge $-1 $34 0 $45 1 $24 $46 forward 7 unknown #
coedge $-1 $47 $15 $48 $49 reversed $5 $-1 #
coedge $-1 $50 $51 $15 $28 forward $52 $-1 #
edge $-1 $53 0 $33 50 $15 $54 forward 7 unknown #
coedge $-1 $16 $55 $39 $56 reversed $5 $-1 #
coedge $-1 $22 $24 $16 $31 reversed $12 $-1 #
edge $-1 $57 0 $34 50 $16 $58 forward 7 unknown #
coedge $-1 $17 $23 $50 $59 reversed $8 $-1 #
vertex $-1 $28 $60 #
vertex $-1 $31 $61 #
ellipse-curve $-1 0 50 0 -1 0 0 0 0 60 1 I I #
face $-1 $62 $63 $2 $-1 $64 forward single #
loop $-1 $-1 $65 $19 #
plane-surface $-1 0.5 87 -75 0 0 -1 0 -1 0 forward_v I I I I #
coedge $-1 $66 $41 $29 $56 forward $20 $-1 #
coedge $-1 $24 $22 $67 $68 forward $12 $-1 #
coedge $-1 $39 $69 $22 $42 reversed $20 $-1 #
edge $-1 $57 0 $70 1 $41 $71 forward 7 unknown #
coedge $-1 $67 $72 $23 $44 forward $73 $-1 #
edge $-1 $74 0 $45 3.1415926535897931 $43 $75 forward 7 unknown #
vertex $-1 $68 $76 #
straight-curve $-1 0 50 -60 1 0 0 I I #
coedge $-1 $77 $26 $78 $79 reversed $5 $-1 #
coedge $-1 $80 $81 $26 $49 forward $82 $-1 #
edge $-1 $83 0 $53 15 $26 $84 forward 7 unknown #
coedge $-1 $85 $27 $32 $59 forward $52 $-1 #
coedge $-1 $27 $85 $80 $86 reversed $52 $-1 #
loop $-1 $-1 $50 $87 #
vertex $-1 $49 $88 #
straight-curve $-1 0 0 60 0 1 0 I I #
coedge $-1 $29 $89 $90 $91 forward $5 $-1 #
edge $-1 $57 0 $92 15 $29 $93 forward 7 unknown #
vertex $-1 $31 $94 #
straight-curve $-1 0 0 -60 0 1 0 I I #
edge $-1 $33 0 $74 1 $50 $95 forward 7 unknown #
point $-1 0 50 60 #
point $-1 0 50 -60 #
face $-1 $96 $97 $2 $-1 $98 forward single #
loop $-1 $-1 $99 $36 #
plane-surface $-1 0.5 174 -78 0 -1 0 0 0 1 forward_v I I I I #
coedge $-1 $100 $90 $101 $102 forward $37 $-1 #
coedge $-1 $69 $39 $103 $104 forward $20 $-1 #
coedge $-1 $105 $43 $40 $68 reversed $73 $-1 #
edge $-1 $70 0 $45 50 $67 $106 forward 7 unknown #
coedge $-1 $41 $66 $105 $107 reversed $20 $-1 #
vertex $-1 $68 $108 #
straight-curve $-1 0 0 -60 1 0 0 I I #
coedge $-1 $43 $109 $85 $110 forward $73 $-1 #
loop $-1 $-1 $105 $111 #
vertex $-1 $44 $112 #
ellipse-curve $-1 1 50 0 -1 0 0 0 0 60 1 I I #
point $-1 1 50 -60 #
coedge $-1 $113 $47 $114 $115 forward $5 $-1 #
coedge $-1 $116 $117 $47 $79 forward $118 $-1 #
edge $-1 $119 0 $83 174 $47 $120 forward 7 unknown #
coedge $-1 $121 $48 $51 $86 forward $82 $-1 #
coedge $-1 $48 $121 $116 $122 reversed $82 $-1 #
loop $-1 $-1 $121 $123 #
vertex $-1 $79 $124 #
straight-curve $-1 0 0 75 0 0 -1 I I #
coedge $-1 $51 $50 $72 $110 reversed $52 $-1 #
edge $-1 $53 0 $125 1 $80 $126 forward 7 unknown #
face $-1 $-1 $52 $2 $-1 $127 reversed single #
point $-1 0 0 60 #
coedge $-1 $55 $128 $129 $130 forward $5 $-1 #
coedge $-1 $65 $103 $55 $91 reversed $37 $-1 #
edge $-1 $131 0 $92 174 $55 $132 forward 7 unknown #
vertex $-1 $56 $133 #
straight-curve $-1 0 0 -60 0 0 -1 I I #
point $-1 0 0 -60 #
straight-curve $-1 0 50 60 1 0 0 I I #
face $-1 $134 $135 $2 $-1 $136 forward single #
loop $-1 $-1 $137 $62 #
plane-surface $-1 0.5 180 -81 0 0 -1 0 -1 0 forward_v I I I I #
coedge $-1 $138 $129 $139 $140 forward $63 $-1 #
coedge $-1 $103 $65 $141 $142 forward $37 $-1 #
coedge $-1 $129 $138 $65 $102 reversed $63 $-1 #
edge $-1 $131 0 $143 1 $65 $144 forward 7 unknown #
coedge $-1 $90 $100 $66 $104 reversed $37 $-1 #
edge $-1 $92 0 $145 1 $103 $146 forward 7 unknown #
coedge $-1 $141 $67 $69 $107 forward $73 $-1 #
straight-curve $-1 1 0 -60 0 1 0 I I #
edge $-1 $70 0 $145 15 $105 $147 forward 7 unknown #
point $-1 1 0 -60 #
coedge $-1 $72 $148 $121 $149 forward $73 $-1 #
edge $-1 $125 0 $74 50 $72 $150 forward 7 unknown #
face $-1 $151 $73 $2 $-1 $152 reversed single #
point $-1 1 50 59.999999999999979 #
coedge $-1 $153 $77 $154 $155 forward $5 $-1 #
coedge $-1 $156 $157 $77 $115 reversed $158 $-1 #
edge $-1 $119 0 $159 6 $77 $160 forward 7 unknown #
coedge $-1 $161 $78 $81 $122 forward $118 $-1 #
coedge $-1 $78 $161 $156 $162 reversed $118 $-1 #
loop $-1 $-1 $116 $163 #
vertex $-1 $115 $164 #
straight-curve $-1 0 174 75 0 -1 0 I I #
coedge $-1 $81 $80 $109 $149 reversed $82 $-1 #
edge $-1 $83 0 $165 1 $116 $166 forward 7 unknown #
face $-1 $87 $82 $2 $-1 $167 reversed single #
point $-1 0 0 75 #
vertex $-1 $110 $168 #
straight-curve $-1 0 0 60 1 0 0 I I #
plane-surface $-1 0.5 25 60 0 0 1 0 1 0 forward_v I I I I #
coedge $-1 $89 $169 $170 $171 forward $5 $-1 #
coedge $-1 $99 $101 $89 $130 reversed $63 $-1 #
edge $-1 $172 0 $131 6 $89 $173 forward 7 unknown #
vertex $-1 $91 $174 #
straight-curve $-1 0 174 -75 0 -1 0 I I #
point $-1 0 0 -75 #
face $-1 $175 $176 $2 $-1 $177 forward single #
loop $-1 $-1 $178 $96 #
plane-surface $-1 0.5 186 -78 0 1 0 0 0 -1 forward_v I I I I #
coedge $-1 $179 $170 $180 $181 forward $97 $-1 #
coedge $-1 $101 $99 $182 $183 forward $63 $-1 #
coedge $-1 $170 $179 $99 $140 reversed $97 $-1 #
edge $-1 $172 0 $184 1 $99 $185 forward 7 unknown #
coedge $-1 $182 $105 $100 $142 reversed $73 $-1 #
edge $-1 $143 0 $145 174 $100 $186 forward 7 unknown #
vertex $-1 $142 $187 #
straight-curve $-1 0 174 -75 1 0 0 I I #
vertex $-1 $104 $188 #
straight-curve $-1 0 0 -75 1 0 0 I I #
straight-curve $-1 1 0 -60 0 0 -1 I I #
coedge $-1 $109 $189 $161 $190 forward $73 $-1 #
edge $-1 $165 0 $125 15 $109 $191 forward 7 unknown #
straight-curve $-1 1 0 60 0 1 0 I I #
face $-1 $192 $193 $2 $-1 $194 reversed single #
plane-surface $-1 1 360 75 -1 0 0 0 -1 0 forward_v I I I I #
coedge $-1 $195 $113 $196 $197 forward $5 $-1 #
coedge $-1 $198 $199 $113 $155 reversed $200 $-1 #
edge $-1 $159 0 $201 12 $113 $202 forward 7 unknown #
coedge $-1 $203 $114 $117 $162 forward $158 $-1 #
coedge $-1 $114 $203 $198 $204 reversed $158 $-1 #
loop $-1 $-1 $156 $205 #
vertex $-1 $155 $206 #
straight-curve $-1 0 174 75 0 0 1 I I #
coedge $-1 $117 $116 $148 $190 reversed $118 $-1 #
edge $-1 $119 0 $207 1 $156 $208 forward 7 unknown #
face $-1 $123 $118 $2 $-1 $209 reversed single #
point $-1 0 174 75 #
vertex $-1 $190 $210 #
straight-curve $-1 0 0 75 1 0 0 I I #
plane-surface $-1 0.5 0 0 0 1 0 0 0 -1 forward_v I I I I #
point $-1 1 0 60 #
coedge $-1 $128 $211 $212 $213 forward $5 $-1 #
coedge $-1 $137 $139 $128 $171 reversed $97 $-1 #
edge $-1 $214 0 $172 12 $128 $215 forward 7 unknown #
vertex $-1 $130 $216 #
straight-curve $-1 0 174 -81 0 0 1 I I #
point $-1 0 174 -75 #
face $-1 $111 $217 $2 $-1 $218 forward single #
loop $-1 $-1 $219 $134 #
plane-surface $-1 0.5 273 -75 0 0 -1 0 -1 0 forward_v I I I I #
coedge $-1 $220 $212 $221 $222 forward $135 $-1 #
coedge $-1 $139 $137 $223 $224 forward $97 $-1 #
coedge $-1 $212 $220 $137 $181 reversed $135 $-1 #
edge $-1 $214 0 $225 1 $137 $226 forward 7 unknown #
coedge $-1 $223 $141 $138 $183 reversed $73 $-1 #
edge $-1 $184 0 $143 6 $138 $227 forward 7 unknown #
vertex $-1 $183 $228 #
straight-curve $-1 0 174 -81 1 0 0 I I #
straight-curve $-1 1 174 -75 0 -1 0 I I #
point $-1 1 174 -75 #
point $-1 1 0 -75 #
coedge $-1 $148 $229 $203 $230 reversed $73 $-1 #
edge $-1 $207 0 $165 174 $161 $231 forward 7 unknown #
straight-curve $-1 1 0 75 0 0 -1 I I #
face $-1 $232 $233 $2 $-1 $234 reversed single #
loop $-1 $-1 $235 $151 #
plane-surface $-1 0 360 -60 0 0 -1 0 -1 0 forward_v I I I I #
coedge $-1 $236 $153 $237 $238 reversed $5 $-1 #
coedge $-1 $239 $240 $153 $197 reversed $241 $-1 #
edge $-1 $201 0 $242 6 $153 $243 forward 7 unknown #
coedge $-1 $244 $154 $157 $204 forward $200 $-1 #
coedge $-1 $154 $244 $239 $245 reversed $200 $-1 #
loop $-1 $-1 $198 $246 #
vertex $-1 $197 $247 #
straight-curve $-1 0 174 81 0 1 0 I I #
coedge $-1 $157 $156 $189 $230 forward $158 $-1 #
edge $-1 $159 0 $248 1 $198 $249 forward 7 unknown #
face $-1 $163 $158 $2 $-1 $250 forward single #
point $-1 0 174 81 #
vertex $-1 $230 $251 #
straight-curve $-1 0 174 75 1 0 0 I I #
plane-surface $-1 0.5 87 75 0 0 -1 0 -1 0 forward_v I I I I #
point $-1 1 0 75 #
coedge $-1 $169 $252 $253 $254 forward $5 $-1 #
coedge $-1 $178 $180 $169 $213 reversed $135 $-1 #
edge $-1 $255 0 $214 6 $169 $256 forward 7 unknown #
vertex $-1 $171 $257 #
straight-curve $-1 0 186 -81 0 -1 0 I I #
point $-1 0 174 -81 #
loop $-1 $-1 $258 $175 #
plane-surface $-1 0.5 360 0 0 1 0 0 0 -1 forward_v I I I I #
coedge $-1 $259 $253 $260 $261 forward $176 $-1 #
coedge $-1 $180 $178 $262 $263 forward $135 $-1 #
coedge $-1 $253 $259 $178 $222 reversed $176 $-1 #
edge $-1 $255 0 $264 1 $178 $265 forward 7 unknown #
coedge $-1 $262 $182 $179 $224 reversed $73 $-1 #
edge $-1 $225 0 $184 12 $179 $266 forward 7 unknown #
vertex $-1 $224 $267 #
straight-curve $-1 0 186 -81 1 0 0 I I #
straight-curve $-1 1 174 -81 0 0 1 I I #
point $-1 1 174 -81 #
coedge $-1 $189 $268 $244 $269 reversed $73 $-1 #
edge $-1 $207 0 $248 6 $203 $270 forward 7 unknown #
straight-curve $-1 1 174 75 0 -1 0 I I #
face $-1 $271 $272 $2 $-1 $273 reversed single #
loop $-1 $-1 $274 $192 #
cone-surface $-1 0 310 0 -1 0 0 0 0 60 1 I I 0 1 60 forward I I I I #
coedge $-1 $275 $276 $277 $278 forward $193 $-1 #
coedge $-1 $279 $195 $280 $281 forward $5 $-1 #
coedge $-1 $282 $283 $195 $238 forward $284 $-1 #
edge $-1 $285 0 $242 174 $195 $286 forward 7 unknown #
coedge $-1 $287 $196 $199 $245 forward $241 $-1 #
coedge $-1 $196 $287 $282 $288 reversed $241 $-1 #
loop $-1 $-1 $239 $289 #
vertex $-1 $238 $290 #
straight-curve $-1 0 186 81 0 0 -1 I I #
coedge $-1 $199 $198 $229 $269 forward $200 $-1 #
edge $-1 $201 0 $291 1 $239 $292 forward 7 unknown #
face $-1 $205 $200 $2 $-1 $293 forward single #
point $-1 0 186 81 #
vertex $-1 $269 $294 #
straight-curve $-1 0 174 81 1 0 0 I I #
plane-surface $-1 0.5 174 78 0 -1 0 0 0 1 forward_v I I I I #
point $-1 1 174 75 #
coedge $-1 $211 $277 $295 $296 forward $5 $-1 #
coedge $-1 $219 $221 $211 $254 reversed $176 $-1 #
edge $-1 $297 0 $255 174 $211 $298 forward 7 unknown #
vertex $-1 $213 $299 #
straight-curve $-1 0 186 -75 0 0 -1 I I #
point $-1 0 186 -81 #
coedge $-1 $260 $300 $301 $302 forward $217 $-1 #
coedge $-1 $221 $219 $303 $304 forward $176 $-1 #
coedge $-1 $295 $258 $219 $261 reversed $217 $-1 #
edge $-1 $297 0 $305 1 $219 $306 forward 7 unknown #
coedge $-1 $303 $223 $220 $263 reversed $73 $-1 #
edge $-1 $264 0 $225 6 $220 $307 forward 7 unknown #
vertex $-1 $263 $308 #
straight-curve $-1 0 186 -75 1 0 0 I I #
straight-curve $-1 1 186 -81 0 -1 0 I I #
point $-1 1 186 -81 #
coedge $-1 $229 $309 $287 $310 reversed $73 $-1 #
edge $-1 $248 0 $291 12 $244 $311 forward 7 unknown #
straight-curve $-1 1 174 75 0 0 1 I I #
face $-1 $312 $313 $2 $-1 $314 forward single #
loop $-1 $-1 $315 $232 #
plane-surface $-1 0 310 60 0 0 1 0 1 0 forward_v I I I I #
coedge $-1 $316 $317 $318 $319 forward $233 $-1 #
coedge $-1 $320 $235 $317 $321 forward $193 $-1 #
coedge $-1 $235 $320 $300 $322 forward $193 $-1 #
coedge $-1 $252 $318 $235 $278 reversed $5 $-1 #
edge $-1 $323 0 $324 50 $277 $325 forward 7 unknown #
coedge $-1 $318 $236 $326 $327 forward $5 $-1 #
coedge $-1 $328 $329 $236 $281 reversed $313 $-1 #
edge $-1 $285 0 $330 15 $236 $331 forward 7 unknown #
coedge $-1 $332 $237 $240 $288 forward $284 $-1 #
coedge $-1 $237 $332 $328 $333 reversed $284 $-1 #
loop $-1 $-1 $282 $312 #
vertex $-1 $281 $334 #
straight-curve $-1 0 360 75 0 -1 0 I I #
coedge $-1 $240 $239 $268 $310 forward $241 $-1 #
edge $-1 $242 0 $335 1 $282 $336 forward 7 unknown #
face $-1 $246 $241 $2 $-1 $337 forward single #
point $-1 0 186 75 #
vertex $-1 $310 $338 #
straight-curve $-1 0 186 81 1 0 0 I I #
plane-surface $-1 0.5 180 81 0 0 1 0 1 0 forward_v I I I I #
point $-1 1 174 81 #
coedge $-1 $300 $260 $252 $296 reversed $217 $-1 #
edge $-1 $323 0 $297 15 $252 $339 forward 7 unknown #
vertex $-1 $254 $340 #
straight-curve $-1 0 360 -75 0 -1 0 I I #
point $-1 0 186 -75 #
coedge $-1 $258 $295 $276 $322 reversed $217 $-1 #
coedge $-1 $341 $303 $258 $302 reversed $73 $-1 #
edge $-1 $342 0 $305 15 $258 $343 forward 7 unknown #
coedge $-1 $301 $262 $259 $304 reversed $73 $-1 #
edge $-1 $305 0 $264 174 $259 $344 forward 7 unknown #
vertex $-1 $304 $345 #
straight-curve $-1 0 360 -75 1 0 0 I I #
straight-curve $-1 1 186 -75 0 0 -1 I I #
point $-1 1 186 -75 #
coedge $-1 $268 $346 $332 $347 forward $73 $-1 #
edge $-1 $291 0 $335 6 $287 $348 forward 7 unknown #
straight-curve $-1 1 174 81 0 1 0 I I #
face $-1 $289 $284 $2 $-1 $349 reversed single #
loop $-1 $-1 $280 $271 #
plane-surface $-1 0.5 360 0 0 1 0 0 0 -1 forward_v I I I I #
coedge $-1 $350 $351 $352 $353 forward $272 $-1 #
coedge $-1 $354 $274 $350 $355 forward $233 $-1 #
coedge $-1 $274 $354 $275 $321 reversed $233 $-1 #
coedge $-1 $277 $279 $274 $319 reversed $5 $-1 #
edge $-1 $324 0 $356 3.1415926535897931 $318 $357 forward 7 unknown #
coedge $-1 $276 $275 $341 $358 reversed $193 $-1 #
edge $-1 $324 0 $359 1 $275 $360 forward 7 unknown #
edge $-1 $342 0 $323 1 $300 $361 forward 7 unknown #
vertex $-1 $296 $362 #
vertex $-1 $278 $363 #
straight-curve $-1 0 360 -60 0 -1 0 I I #
coedge $-1 $351 $350 $279 $327 reversed $272 $-1 #
edge $-1 $330 0 $356 50 $279 $364 forward 7 unknown #
coedge $-1 $365 $280 $283 $333 forward $313 $-1 #
coedge $-1 $280 $365 $351 $366 forward $313 $-1 #
vertex $-1 $327 $367 #
straight-curve $-1 0 360 75 0 0 -1 I I #
coedge $-1 $283 $282 $309 $347 reversed $284 $-1 #
edge $-1 $285 0 $368 1 $328 $369 forward 7 unknown #
point $-1 0 360 75 #
vertex $-1 $347 $370 #
straight-curve $-1 0 186 75 1 0 0 I I #
plane-surface $-1 0.5 186 78 0 1 0 0 0 -1 forward_v I I I I #
point $-1 1 186 81 #
straight-curve $-1 0 360 -60 0 0 -1 I I #
point $-1 0 360 -75 #
coedge $-1 $371 $301 $320 $358 forward $73 $-1 #
vertex $-1 $322 $372 #
straight-curve $-1 1 360 -60 0 0 -1 I I #
straight-curve $-1 1 360 -75 0 -1 0 I I #
point $-1 1 360 -75 #
coedge $-1 $309 $352 $365 $373 reversed $73 $-1 #
edge $-1 $368 0 $335 174 $332 $374 forward 7 unknown #
straight-curve $-1 1 186 81 0 0 -1 I I #
plane-surface $-1 0.5 273 75 0 0 -1 0 -1 0 forward_v I I I I #
coedge $-1 $326 $315 $316 $355 reversed $272 $-1 #
coedge $-1 $315 $326 $329 $366 reversed $272 $-1 #
coedge $-1 $346 $371 $315 $353 reversed $73 $-1 #
edge $-1 $375 0 $376 50 $315 $377 forward 7 unknown #
coedge $-1 $317 $316 $371 $378 reversed $233 $-1 #
edge $-1 $356 0 $376 1 $316 $379 forward 7 unknown #
vertex $-1 $319 $380 #
ellipse-curve $-1 0 310 0 -1 0 0 0 0 -60 1 I I #
edge $-1 $342 0 $359 50 $320 $381 forward 7 unknown #
vertex $-1 $358 $382 #
straight-curve $-1 0 310 -60 1 0 0 I I #
straight-curve $-1 1 360 -60 -1 0 0 I I #
point $-1 0 360 -60 #
point $-1 0 310 -60 #
straight-curve $-1 0 360 60 0 -1 0 I I #
coedge $-1 $329 $328 $346 $373 forward $313 $-1 #
edge $-1 $375 0 $330 1 $329 $383 forward 7 unknown #
point $-1 0 360 60 #
vertex $-1 $373 $384 #
straight-curve $-1 0 360 75 1 0 0 I I #
point $-1 1 186 75 #
coedge $-1 $352 $341 $354 $378 forward $73 $-1 #
point $-1 1 360 -60 #
edge $-1 $368 0 $375 15 $365 $385 forward 7 unknown #
straight-curve $-1 1 360 75 0 -1 0 I I #
vertex $-1 $366 $386 #
vertex $-1 $378 $387 #
straight-curve $-1 1 360 60 0 -1 0 I I #
edge $-1 $359 0 $376 3.1415926535897931 $354 $388 forward 7 unknown #
straight-curve $-1 0 310 60 1 0 0 I I #
point $-1 0 310 60 #
straight-curve $-1 1 360 -60 0 -1 0 I I #
point $-1 1 310 -60 #
straight-curve $-1 1 360 60 -1 0 0 I I #
point $-1 1 360 75 #
straight-curve $-1 1 360 75 0 0 -1 I I #
point $-1 1 360 60 #
point $-1 1 310 60 #
ellipse-curve $-1 1 310 0 -1 0 0 0 0 -60 1 I I #
End-of-ACIS-data 