999
DXF file: 1108343_28_fl01.dxf
999
Pro/ENGINEER 9801 by Parametric Technology Corporation
0
SECTION
2
HEADER
9
$EXTMAX
10
22.0000000000
20
17.0000000000
9
$EXTMIN
10
0.0000000000
20
0.0000000000
9
$LIMMIN
10
0.0000000000
20
0.0000000000
9
$LIMMAX
10
22.0000000000
20
17.0000000000
9
$VIEWCTR
10
11.0000000000
20
8.5000000000
9
$VIEWSIZE
40
17.0000000000
9
$CLAYER
8
0
9
$LTSCALE
40
1.2100000000
9
$CELTYPE
6
BYLAYER
9
$DIMSCALE
40
1
9
$DIMASZ
40
0.1875000000
9
$DIMEXO
40
0.1375000000
9
$DIMDLI
40
0.8360000000
9
$DIMEXE
40
0.3960000000
9
$DIMCEN
40
0.1980000000
9
$DIMTXT
40
0.2486049107
0
ENDSEC
0
SECTION
2
TABLES
0
TABLE
2
LTYPE
70
6
0
LTYPE
2
CONTINUOUS
70
64
3
Solid line
72
65
73
0
40
0
0
LTYPE
2
CENTER
70
64
3
____ _ ____ _ ____ _ ____ _ ____ _ ____ _ ____
72
65
73
4
40
0.6
49
0.375
49
-0.075
49
0.075
49
-0.075
0
LTYPE
2
HIDDEN
70
64
3
- - - - - - - - - - - - - - - - - - - -
72
65
73
2
40
0.2
49
0.1
49
-0.1
0
LTYPE
2
PHANTOM
70
64
3
_____ _ _ _____ _ _ _____ _ _ _____
72
65
73
6
40
0.8
49
0.45
49
-0.05
49
0.1
49
-0.05
49
0.1
49
-0.05
0
LTYPE
2
DOT
70
64
3
. . . . . . . . . . . . . . . . . . . .
72
65
73
2
40
0.2
49
0.1
49
-0.1
0
LTYPE
2
DASHED
70
64
3
- - - - - - - - - - - - - - - - - - - -
72
65
73
2
40
0.2
49
0.1
49
-0.1
0
ENDTAB
0
TABLE
2
LAYER
70
36
0
LAYER
2
0
70
0
62
7
6
CONTINUOUS
0
LAYER
2
DEFAULT_1
70
0
62
7
6
CENTER
0
LAYER
2
DEFAULT_2
70
0
62
7
6
HIDDEN
0
LAYER
2
DEFAULT_3
70
0
62
7
6
PHANTOM
0
ENDTAB
0
ENDSEC
0
SECTION
2
BLOCKS
0
ENDSEC
0
SECTION
2
ENTITIES
0
LINE
8
0
62
3
10
-18.7479749812
20
10.4652710924
11
-19.0811143088
21
4.5626058361
0
LINE
8
0
62
3
10
-18.2338026205
20
10.1014169445
11
-18.2545453095
21
9.7338915891
0
LINE
8
0
62
3
10
-18.3003567029
20
8.9221912052
11
-18.3210993919
21
8.5546658498
0
LINE
8
0
62
3
10
-17.8148184746
20
8.5260919638
11
-17.7940757855
21
8.8936173192
0
LINE
8
0
62
3
10
-17.7482643921
20
9.7053177030
11
-17.7275217031
21
10.0728430584
0
LINE
8
0
62
3
10
-18.0426207625
20
3.3998780025
11
-18.1313595390
21
1.8275770169
0
LINE
8
0
62
3
10
-16.2025409987
20
34.6056156293
11
-17.4636660821
21
12.2606128153
0
LINE
8
0
62
3
10
-17.0545768813
20
10.0348628621
11
-17.0753195703
21
9.6673375067
0
LINE
8
0
62
3
10
-17.1211309637
20
8.8556371228
11
-17.1418736527
21
8.4881117674
0
LINE
8
0
62
3
10
-16.6355927353
20
8.4595378813
11
-16.6148500463
21
8.8270632368
0
LINE
8
0
62
3
10
-16.5690386529
20
9.6387636206
11
-16.5482959639
21
10.0062889760
0
LINE
8
0
62
3
10
36.5266384246
20
-0.1941237240
11
36.4295033252
21
-0.2197573589
0
LINE
8
0
62
3
10
-15.8161098367
20
-0.1941237240
11
-15.7189747372
21
-0.2197573589
0
LINE
8
0
62
3
10
-14.3016227774
20
40.6136507000
11
-14.6257019917
21
34.8715153238
0
LINE
8
0
62
3
10
-15.7319059088
20
1.2978274160
11
-15.8161098367
21
-0.1941237240
0
LINE
8
0
62
3
10
36.4295033252
20
-0.2197573589
11
36.0552574187
21
-0.3013336881
0
LINE
8
0
62
3
10
-15.7189747372
20
-0.2197573589
11
-15.3447288307
21
-0.3013336881
0
LINE
8
0
62
3
10
-1.2982790131
20
40.5786037901
11
-3.4902860070
21
39.9420190216
0
LINE
8
0
62
3
10
32.6447983992
20
-0.4938158932
11
36.0552574187
21
-0.3013336881
0
LINE
8
0
62
3
10
-11.9342698112
20
-0.4938158932
11
-15.3447288307
21
-0.3013336881
0
LINE
8
0
62
3
10
38.6564428508
20
1.6199470466
11
36.6278797729
21
1.5054573863
0
LINE
8
0
62
3
10
-11.9342698112
20
-0.4938158932
11
-11.2173603910
21
-0.4640771470
0
LINE
8
0
62
3
10
-11.2173603910
20
-0.4640771470
11
31.9278889789
21
-0.4640771470
0
LINE
8
0
62
3
10
32.6447983992
20
-0.4938158932
11
31.9278889789
21
-0.4640771470
0
LINE
8
0
62
3
10
-17.9459142629
20
1.6199470466
11
-15.9173511849
21
1.5054573863
0
LINE
8
0
62
3
10
-17.5036897755
20
12.1523172766
11
-18.7079512878
21
10.5735666311
0
LINE
8
0
62
3
10
2.9930595696
20
19.7918283649
11
2.9930595696
21
18.6107260026
0
LINE
8
0
62
3
10
34.1354556353
20
40.4268864685
11
33.7664793400
21
40.2519415437
0
LINE
8
0
62
3
10
34.1354556353
20
40.4268864685
11
34.7149494917
21
40.7717233202
0
LINE
8
0
62
3
10
2.5993587822
20
18.2170252152
11
0.1371409445
21
18.2170252152
0
LINE
8
0
62
3
10
0.1371409445
20
20.1855291523
11
2.5993587822
21
20.1855291523
0
LINE
8
0
62
3
10
-13.4249270473
20
40.4268864685
11
-14.0044209037
21
40.7717233202
0
LINE
8
0
62
3
10
17.9143194121
20
29.5006103894
11
17.9143194121
21
29.6934031680
0
LINE
8
0
62
3
10
19.8828233491
20
29.6934031680
11
19.8828233491
21
29.5006103894
0
LINE
8
0
62
3
10
-13.4249270473
20
40.4268864685
11
-13.0559507521
21
40.2519415437
0
LINE
8
0
62
3
10
18.3080201995
20
30.0871039554
11
19.4891225617
21
30.0871039554
0
LINE
8
0
62
3
10
35.0306442602
20
34.6965374699
11
36.7054396164
21
34.7910609054
0
LINE
8
0
62
3
10
35.3362305797
20
34.8715153238
11
35.0217703826
21
34.8537675685
0
LINE
8
0
62
3
10
-14.3201156722
20
34.6965374699
11
-15.9949110284
21
34.7910609054
0
LINE
8
0
62
3
10
-14.6257019917
20
34.8715153238
11
-14.3112417946
21
34.8537675685
0
LINE
8
0
62
3
10
33.7664793400
20
40.2519415437
11
24.9479480055
21
39.7542342416
0
LINE
8
0
62
3
10
-13.0559507521
20
40.2519415437
11
-4.2374194175
21
39.7542342416
0
LINE
8
0
62
3
10
38.2142183635
20
12.1523172766
11
39.4184798758
21
10.5735666311
0
LINE
8
0
62
3
10
22.0088076011
20
40.5786037901
11
-1.2982790131
21
40.5786037901
0
LINE
8
0
62
3
10
-4.2374194175
20
39.7542342416
11
-3.4902860070
21
39.9420190216
0
LINE
8
0
62
3
10
24.9479480055
20
39.7542342416
11
24.2008145949
21
39.9420190216
0
LINE
8
0
62
3
10
22.0088076011
20
40.5786037901
11
24.2008145949
21
39.9420190216
0
LINE
8
0
62
3
10
36.4424344967
20
1.2978274160
11
36.5266384246
21
-0.1941237240
0
LINE
8
0
62
3
10
35.0121513654
20
40.6136507000
11
35.3362305797
21
34.8715153238
0
LINE
8
0
62
3
10
37.3461213233
20
8.4595378813
11
37.3253786343
21
8.8270632368
0
LINE
8
0
62
3
10
37.2795672409
20
9.6387636206
11
37.2588245518
21
10.0062889760
0
LINE
8
0
62
3
10
37.7651054692
20
10.0348628621
11
37.7858481583
21
9.6673375067
0
LINE
8
0
62
3
10
37.8316595516
20
8.8556371228
11
37.8524022407
21
8.4881117674
0
LINE
8
0
62
3
10
36.9130695867
20
34.6056156293
11
38.1741946701
21
12.2606128153
0
LINE
8
0
62
3
10
38.7531493504
20
3.3998780025
11
38.8418881270
21
1.8275770169
0
LINE
8
0
62
3
10
38.5253470625
20
8.5260919638
11
38.5046043735
21
8.8936173192
0
LINE
8
0
62
3
10
38.4587929801
20
9.7053177030
11
38.4380502911
21
10.0728430584
0
LINE
8
0
62
3
10
38.9443312085
20
10.1014169445
11
38.9650738975
21
9.7338915891
0
LINE
8
0
62
3
10
39.0108852909
20
8.9221912052
11
39.0316279799
21
8.5546658498
0
LINE
8
0
62
3
10
39.4585035692
20
10.4652710924
11
39.7916428968
21
4.5626058361
0
ARC
8
0
62
3
10
2.5993587822
20
19.7918283649
40
0.3937007874
50
360.0000000000
51
450.0000000000
0
ARC
8
0
62
3
10
0.1371409445
20
20.5792299397
40
0.3937007874
50
204.3157391712
51
270.0000000000
0
ARC
8
0
62
3
10
-2.9124522414
20
19.2012771838
40
2.9527559055
50
24.3157391712
51
335.6842608288
0
ARC
8
0
62
3
10
0.1371409445
20
17.8233244278
40
0.3937007874
50
90.0000000000
51
155.6842608288
0
ARC
8
0
62
3
10
2.5993587822
20
18.6107260026
40
0.3937007874
50
270.0000000000
51
360.0000000000
0
ARC
8
0
62
3
10
18.3080201995
20
29.6934031680
40
0.3937007874
50
90.0000000000
51
180.0000000000
0
ARC
8
0
62
3
10
17.5206186247
20
29.5006103894
40
0.3937007874
50
284.3207436206
51
360.0000000000
0
ARC
8
0
62
3
10
18.8985713806
20
24.1028519869
40
5.1771653543
50
104.3207436206
51
435.6792563794
0
ARC
8
0
62
3
10
20.2765241365
20
29.5006103894
40
0.3937007874
50
180.0000000000
51
255.6792563794
0
ARC
8
0
62
3
10
19.4891225617
20
29.6934031680
40
0.3937007874
50
0.0000000000
51
90.0000000000
0
CIRCLE
8
0
62
3
10
10.3552642940
20
3.4729307271
40
0.2716535433
0
CIRCLE
8
0
62
3
10
21.6151068137
20
19.1028519869
40
0.2716535433
0
CIRCLE
8
0
62
3
10
16.1820359475
20
19.1028519869
40
0.2716535433
0
CIRCLE
8
0
62
3
10
21.6151068137
20
29.1028519869
40
0.2716535433
0
CIRCLE
8
0
62
3
10
-2.6368616903
20
38.6107260026
40
0.2716535433
0
CIRCLE
8
0
62
3
10
16.1820359475
20
29.1028519869
40
0.2716535433
0
CIRCLE
8
0
62
3
10
23.3473902782
20
38.6107260026
40
0.2716535433
0
ARC
8
0
62
3
10
-14.3156787334
20
34.7751525192
40
0.0787401575
50
266.7697220504
51
446.7697220504
0
ARC
8
0
62
3
10
-19.0253088785
20
3.4553397379
40
0.9842519685
50
356.7697220504
51
446.7697220504
0
CIRCLE
8
0
62
3
10
-17.6441399574
20
2.0761080564
40
0.2716535433
0
CIRCLE
8
0
62
3
10
-17.5110317926
20
4.4345595349
40
0.2716535433
0
ARC
8
0
62
3
10
-16.8887331940
20
8.4738248244
40
0.2535433071
50
176.7697220504
51
356.7697220504
0
ARC
8
0
62
3
10
-16.8679905050
20
8.8413501798
40
0.2535433071
50
356.7697220504
51
536.7697220504
0
ARC
8
0
62
3
10
-16.8221791116
20
9.6530505636
40
0.2535433071
50
176.7697220504
51
356.7697220504
0
ARC
8
0
62
3
10
-16.8014364226
20
10.0205759190
40
0.2535433071
50
356.7697220504
51
536.7697220504
0
ARC
8
0
62
3
10
-18.0679589332
20
8.5403789068
40
0.2535433071
50
176.7697220504
51
356.7697220504
0
ARC
8
0
62
3
10
-18.0472162442
20
8.9079042622
40
0.2535433071
50
356.7697220504
51
536.7697220504
0
ARC
8
0
62
3
10
-18.0014048508
20
9.7196046460
40
0.2535433071
50
176.7697220504
51
356.7697220504
0
ARC
8
0
62
3
10
-17.9806621618
20
10.0871300014
40
0.2535433071
50
356.7697220504
51
536.7697220504
0
ARC
8
0
62
3
10
35.0262073214
20
34.7751525192
40
0.0787401575
50
93.2302779496
51
273.2302779497
0
ARC
8
0
62
3
10
39.7358374665
20
3.4553397379
40
0.9842519685
50
93.2302779496
51
183.2302779496
0
CIRCLE
8
0
62
3
10
38.3546685454
20
2.0761080564
40
0.2716535433
0
CIRCLE
8
0
62
3
10
38.2215603806
20
4.4345595349
40
0.2716535433
0
ARC
8
0
62
3
10
37.5992617820
20
8.4738248244
40
0.2535433071
50
183.2302779496
51
363.2302779496
0
ARC
8
0
62
3
10
37.5785190929
20
8.8413501798
40
0.2535433071
50
3.2302779496
51
183.2302779496
0
ARC
8
0
62
3
10
37.5327076996
20
9.6530505636
40
0.2535433071
50
183.2302779496
51
363.2302779496
0
ARC
8
0
62
3
10
37.5119650105
20
10.0205759190
40
0.2535433071
50
3.2302779496
51
183.2302779496
0
ARC
8
0
62
3
10
38.7784875212
20
8.5403789068
40
0.2535433071
50
183.2302779496
51
363.2302779496
0
ARC
8
0
62
3
10
38.7577448322
20
8.9079042622
40
0.2535433071
50
3.2302779496
51
183.2302779496
0
ARC
8
0
62
3
10
38.7119334388
20
9.7196046460
40
0.2535433071
50
183.2302779496
51
363.2302779496
0
ARC
8
0
62
3
10
38.6911907498
20
10.0871300014
40
0.2535433071
50
3.2302779496
51
183.2302779496
0
ARC
8
0
62
3
10
36.7165319635
20
34.5945232822
40
0.1968503937
50
3.2302779496
51
93.2302779496
0
ARC
8
0
62
3
10
38.6453505038
20
1.8164846698
40
0.1968503937
50
273.2302779496
51
363.2302779496
0
ARC
8
0
62
3
10
39.2619659460
20
10.4541787453
40
0.1968503937
50
3.2302779496
51
37.3361706854
0
ARC
8
0
62
3
10
38.3707322933
20
12.2717051624
40
0.1968503937
50
183.2302779496
51
217.3361706854
0
ARC
8
0
62
3
10
39.6737203229
20
4.5559504278
40
0.1181102362
50
273.2302779496
51
363.2302779496
0
ARC
8
0
62
3
10
-14.1050851542
20
40.6025583529
40
0.1968503937
50
59.2445792118
51
176.7697220504
0
ARC
8
0
62
3
10
-15.9284435320
20
1.3089197631
40
0.1968503937
50
356.7697220504
51
446.7697220504
0
ARC
8
0
62
3
10
-17.9348219158
20
1.8164846698
40
0.1968503937
50
176.7697220504
51
266.7697220504
0
ARC
8
0
62
3
10
-18.9631917349
20
4.5559504278
40
0.1181102362
50
176.7697220504
51
266.7697220504
0
ARC
8
0
62
3
10
-18.5514373580
20
10.4541787453
40
0.1968503937
50
142.6638293146
51
176.7697220504
0
ARC
8
0
62
3
10
-17.6602037053
20
12.2717051624
40
0.1968503937
50
322.6638293146
51
356.7697220504
0
ARC
8
0
62
3
10
-16.0060033755
20
34.5945232822
40
0.1968503937
50
86.7697220504
51
176.7697220504
0
ARC
8
0
62
3
10
36.6389721199
20
1.3089197631
40
0.1968503937
50
93.2302779496
51
183.2302779496
0
ARC
8
0
62
3
10
34.8156137422
20
40.6025583529
40
0.1968503937
50
3.2302779496
51
120.7554207882
0
ENDSEC
0
EOF
