600 0 1 0           
104 GICL Pro/E ACIS Translator - Source: f:/data5/repository/PTC/V20/NC_Training_Rel20/DXF/part_33.prt - 6 0 13 ACIS 6.0.3 NT 24 Thu Apr 04 13:13:48 2002 
1 9.9999999999999995e-007 1e-010 
body $-1 $1 $-1 $-1 #
lump $-1 $-1 $2 $0 #
shell $-1 $-1 $-1 $3 $-1 $1 #
face $-1 $4 $5 $2 $-1 $6 forward single #
face $-1 $7 $8 $2 $-1 $9 forward single #
loop $-1 $-1 $10 $3 #
plane-surface $-1 -12.953999999999994 4.6989999999999998 0.31749999999999884 1 0 0 0 0 1 forward_v I I I I #
face $-1 $11 $12 $2 $-1 $13 forward single #
loop $-1 $-1 $14 $4 #
plane-surface $-1 -13.334999999999994 -9.08049999999999 0.63499999999999912 0 0 -1 0 1 0 forward_v I I I I #
coedge $-1 $15 $16 $17 $18 forward $5 $-1 #
face $-1 $19 $20 $2 $-1 $21 reversed single #
loop $-1 $-1 $22 $7 #
plane-surface $-1 -13.334999999999994 -12.064999999999982 51.170621700658529 0 -1 0 0 0 -1 forward_v I I I I #
coedge $-1 $23 $17 $24 $25 forward $8 $-1 #
coedge $-1 $26 $10 $27 $28 forward $5 $-1 #
coedge $-1 $10 $29 $30 $31 forward $5 $-1 #
coedge $-1 $14 $32 $10 $18 reversed $8 $-1 #
edge $-1 $33 0 $34 5.9689999999999799 $10 $35 forward 7 unknown #
face $-1 $36 $37 $2 $-1 $38 forward single #
loop $-1 $-1 $39 $11 #
plane-surface $-1 -13.715999999999994 4.6989999999999998 0.31749999999999884 1 0 0 0 0 1 forward_v I I I I #
coedge $-1 $24 $40 $41 $42 forward $12 $-1 #
coedge $-1 $32 $14 $43 $44 forward $8 $-1 #
coedge $-1 $30 $22 $14 $25 reversed $12 $-1 #
edge $-1 $33 0 $45 0.76200000000000045 $24 $46 forward 7 unknown #
coedge $-1 $47 $15 $48 $49 forward $5 $-1 #
coedge $-1 $50 $51 $15 $28 reversed $52 $-1 #
edge $-1 $34 0 $53 0.76200000000000001 $15 $54 forward 7 unknown #
coedge $-1 $16 $55 $56 $57 forward $5 $-1 #
coedge $-1 $40 $24 $16 $31 reversed $12 $-1 #
edge $-1 $58 0 $33 25.399563401317092 $16 $59 forward 7 unknown #
coedge $-1 $17 $23 $50 $60 reversed $8 $-1 #
vertex $-1 $31 $61 #
vertex $-1 $28 $62 #
straight-curve $-1 -12.953999999999994 -12.064999999999982 0.63499999999999912 0 1 0 I I #
face $-1 $63 $64 $2 $-1 $65 forward single #
loop $-1 $-1 $66 $19 #
plane-surface $-1 -13.334999999999994 -11.620499999999982 26.03456340131709 0 0 1 0 -1 0 forward_v I I I I #
coedge $-1 $67 $41 $68 $69 reversed $20 $-1 #
coedge $-1 $22 $30 $70 $71 forward $12 $-1 #
coedge $-1 $39 $43 $22 $42 reversed $20 $-1 #
edge $-1 $72 0 $45 25.399563401317092 $22 $73 forward 7 unknown #
coedge $-1 $41 $74 $23 $44 reversed $20 $-1 #
edge $-1 $45 0 $75 5.9689999999999799 $43 $76 forward 7 unknown #
vertex $-1 $25 $77 #
straight-curve $-1 -12.953999999999994 -12.064999999999982 0.63499999999999912 -1 0 0 I I #
coedge $-1 $78 $26 $79 $80 forward $5 $-1 #
coedge $-1 $81 $82 $26 $49 reversed $83 $-1 #
edge $-1 $53 0 $84 2.7940000000000005 $26 $85 forward 7 unknown #
coedge $-1 $86 $27 $32 $60 forward $52 $-1 #
coedge $-1 $27 $86 $81 $87 reversed $52 $-1 #
loop $-1 $-1 $50 $88 #
vertex $-1 $49 $89 #
straight-curve $-1 -12.953999999999994 -6.0960000000000019 0.63499999999999912 0 0 -1 I I #
coedge $-1 $29 $90 $91 $92 reversed $5 $-1 #
coedge $-1 $66 $70 $29 $57 reversed $37 $-1 #
edge $-1 $93 0 $58 0.88899999999998158 $29 $94 forward 7 unknown #
vertex $-1 $31 $95 #
straight-curve $-1 -12.953999999999994 -12.064999999999982 26.03456340131709 0 0 -1 I I #
edge $-1 $34 0 $75 0.76200000000000045 $50 $96 forward 7 unknown #
point $-1 -12.953999999999994 -12.064999999999982 0.63499999999999912 #
point $-1 -12.953999999999994 -6.0960000000000019 0.63499999999999912 #
face $-1 $97 $98 $2 $-1 $99 reversed single #
loop $-1 $-1 $100 $36 #
plane-surface $-1 -13.483789755157225 -11.535210244842748 26.034563401317083 0 0 -1 1 0 0 forward_v I I I I #
coedge $-1 $68 $56 $101 $102 forward $37 $-1 #
coedge $-1 $103 $39 $104 $105 forward $20 $-1 #
coedge $-1 $70 $66 $39 $69 forward $37 $-1 #
edge $-1 $106 -1.7763568394002505e-014 $72 0.88899999999998158 $39 $107 forward 7 unknown #
coedge $-1 $56 $68 $40 $71 reversed $37 $-1 #
edge $-1 $58 0 $72 0.76200000000000045 $40 $108 forward 7 unknown #
vertex $-1 $71 $109 #
straight-curve $-1 -13.715999999999994 -12.064999999999982 26.03456340131709 0 0 -1 I I #
coedge $-1 $43 $110 $86 $111 reversed $20 $-1 #
vertex $-1 $44 $112 #
straight-curve $-1 -13.715999999999994 -12.064999999999982 0.63499999999999912 0 1 0 I I #
point $-1 -13.715999999999994 -12.064999999999982 0.63499999999999912 #
coedge $-1 $113 $47 $114 $115 forward $5 $-1 #
coedge $-1 $116 $117 $47 $80 reversed $118 $-1 #
edge $-1 $84 0 $119 0.76200000000000001 $47 $120 forward 7 unknown #
coedge $-1 $121 $48 $51 $87 forward $83 $-1 #
coedge $-1 $48 $121 $116 $122 reversed $83 $-1 #
loop $-1 $-1 $81 $123 #
vertex $-1 $80 $124 #
straight-curve $-1 -12.953999999999994 -6.0960000000000019 -0.12700000000000078 0 1 0 I I #
coedge $-1 $51 $50 $74 $111 forward $52 $-1 #
edge $-1 $53 0 $125 0.76200000000000045 $51 $126 forward 7 unknown #
face $-1 $127 $52 $2 $-1 $128 forward single #
point $-1 -12.953999999999994 -6.0960000000000019 -0.12700000000000095 #
coedge $-1 $55 $129 $130 $131 reversed $5 $-1 #
coedge $-1 $132 $133 $55 $92 forward $134 $-1 #
edge $-1 $93 0 $135 63.5 $55 $136 forward 7 unknown #
vertex $-1 $57 $137 #
straight-curve $-1 -12.953999999999994 -11.176 26.03456340131709 0 -1 0 I I #
point $-1 -12.953999999999994 -12.064999999999982 26.03456340131709 #
straight-curve $-1 -12.953999999999994 -6.0960000000000019 0.63499999999999912 -1 0 0 I I #
face $-1 $138 $139 $2 $-1 $140 reversed single #
loop $-1 $-1 $141 $63 #
plane-surface $-1 -13.334999999999985 -16.39199113350293 26.034563401317072 0 0 1 1.7763568394002505e-015 -1 0 forward_v I I I I #
coedge $-1 $142 $143 $144 $145 forward $64 $-1 #
coedge $-1 $143 $142 $66 $102 reversed $64 $-1 #
edge $-1 $93 4.5551023398588688e-029 $106 0.76199999999999868 $66 $146 forward 7 unknown #
coedge $-1 $147 $67 $148 $149 forward $20 $-1 #
coedge $-1 $150 $151 $67 $105 reversed $152 $-1 #
edge $-1 $106 0 $153 63.5 $67 $154 forward 7 unknown #
vertex $-1 $105 $155 #
straight-curve $-1 -13.715999999999994 -11.176 26.03456340131709 0 -1 0 I I #
straight-curve $-1 -12.953999999999994 -12.064999999999982 26.03456340131709 -1 0 0 I I #
point $-1 -13.715999999999994 -12.064999999999982 26.03456340131709 #
coedge $-1 $74 $156 $121 $157 reversed $20 $-1 #
edge $-1 $75 0 $125 0.7619999999999999 $74 $158 forward 7 unknown #
point $-1 -13.715999999999994 -6.0960000000000019 0.63499999999999912 #
coedge $-1 $159 $78 $160 $161 forward $5 $-1 #
coedge $-1 $162 $163 $78 $115 reversed $164 $-1 #
edge $-1 $119 0 $165 6.6039999999999974 $78 $166 forward 7 unknown #
coedge $-1 $167 $79 $82 $122 forward $118 $-1 #
coedge $-1 $79 $167 $162 $168 reversed $118 $-1 #
loop $-1 $-1 $116 $169 #
vertex $-1 $115 $170 #
straight-curve $-1 -12.953999999999994 -3.3020000000000023 -0.12700000000000095 0 0 1 I I #
coedge $-1 $82 $81 $110 $157 forward $83 $-1 #
edge $-1 $84 0 $171 0.76200000000000045 $116 $172 forward 7 unknown #
face $-1 $88 $83 $2 $-1 $173 forward single #
point $-1 -12.953999999999994 -3.3020000000000014 -0.12700000000000095 #
vertex $-1 $111 $174 #
straight-curve $-1 -12.953999999999994 -6.0960000000000019 -0.12700000000000078 -1 0 0 I I #
face $-1 $175 $176 $2 $-1 $177 reversed single #
plane-surface $-1 -13.334999999999994 -6.0960000000000019 0.25399999999999917 0 -1 0 0 0 -1 forward_v I I I I #
coedge $-1 $90 $178 $179 $180 forward $5 $-1 #
coedge $-1 $181 $182 $90 $131 forward $183 $-1 #
edge $-1 $135 0 $184 0.88899999999998158 $90 $185 forward 7 unknown #
coedge $-1 $186 $91 $187 $188 reversed $134 $-1 #
coedge $-1 $91 $186 $143 $189 forward $134 $-1 #
loop $-1 $-1 $133 $190 #
vertex $-1 $92 $191 #
straight-curve $-1 -12.953999999999994 -11.175999999999981 26.03456340131709 0 0 1 I I #
point $-1 -12.953999999999994 -11.176 26.03456340131709 #
face $-1 $192 $193 $2 $-1 $194 forward single #
loop $-1 $-1 $195 $97 #
plane-surface $-1 -13.334999999999976 -21.027491133502931 57.784563401317072 -1.7763568394002505e-015 1 0 0 0 1 forward_v I I I I #
coedge $-1 $196 $197 $198 $199 forward $98 $-1 #
coedge $-1 $101 $100 $150 $200 forward $64 $-1 #
coedge $-1 $100 $101 $133 $189 reversed $64 $-1 #
coedge $-1 $197 $196 $100 $145 reversed $98 $-1 #
edge $-1 $201 0 $202 0.76200000000000045 $144 $203 forward 7 unknown #
straight-curve $-1 -12.953999999999994 -11.175999999999981 26.03456340131709 -1 -2.3311769545935086e-015 0 I I #
coedge $-1 $204 $103 $205 $206 reversed $20 $-1 #
coedge $-1 $182 $181 $103 $149 reversed $183 $-1 #
edge $-1 $153 -1.7763568394002505e-014 $207 0.88899999999998158 $103 $208 forward 7 unknown #
coedge $-1 $209 $104 $142 $200 reversed $152 $-1 #
coedge $-1 $104 $209 $210 $211 forward $152 $-1 #
loop $-1 $-1 $151 $212 #
vertex $-1 $149 $213 #
straight-curve $-1 -13.715999999999994 -11.175999999999982 26.03456340131709 0 0 1 I I #
point $-1 -13.715999999999992 -11.175999999999982 26.03456340131709 #
coedge $-1 $110 $214 $167 $215 reversed $20 $-1 #
edge $-1 $125 0 $171 2.7939999999999996 $110 $216 forward 7 unknown #
straight-curve $-1 -13.715999999999994 -6.0960000000000019 0.63499999999999912 0 0 -1 I I #
coedge $-1 $217 $113 $218 $219 forward $5 $-1 #
coedge $-1 $220 $221 $113 $161 reversed $222 $-1 #
edge $-1 $165 0 $223 0.76200000000000001 $113 $224 forward 7 unknown #
coedge $-1 $225 $114 $117 $168 forward $164 $-1 #
coedge $-1 $114 $225 $220 $226 reversed $164 $-1 #
loop $-1 $-1 $162 $227 #
vertex $-1 $161 $228 #
straight-curve $-1 -12.953999999999994 -3.3020000000000014 0.63499999999999912 0 1 0 I I #
coedge $-1 $117 $116 $156 $215 forward $118 $-1 #
edge $-1 $119 0 $229 0.76200000000000045 $117 $230 forward 7 unknown #
face $-1 $123 $118 $2 $-1 $231 forward single #
point $-1 -12.953999999999994 -3.3020000000000014 0.63499999999999912 #
vertex $-1 $157 $232 #
straight-curve $-1 -12.953999999999994 -3.3020000000000023 -0.12700000000000078 -1 0 0 I I #
plane-surface $-1 -13.334999999999994 -4.6990000000000016 -0.12700000000000078 0 0 -1 0 1 0 forward_v I I I I #
point $-1 -13.715999999999994 -6.0960000000000019 -0.12700000000000078 #
face $-1 $233 $234 $2 $-1 $235 forward single #
loop $-1 $-1 $236 $127 #
plane-surface $-1 -13.715999999999992 -37.972999999999999 331.10631492688941 1 -7.9933560083417001e-015 0 -7.9933560083417001e-015 -1 0 forward_v I I I I #
coedge $-1 $129 $237 $238 $239 forward $5 $-1 #
coedge $-1 $240 $241 $129 $180 reversed $242 $-1 #
edge $-1 $243 0 $184 12.171679999999981 $129 $244 forward 7 unknown #
coedge $-1 $148 $130 $241 $245 forward $183 $-1 #
coedge $-1 $130 $148 $246 $247 reversed $183 $-1 #
loop $-1 $-1 $181 $248 #
vertex $-1 $131 $249 #
straight-curve $-1 -12.953999999999994 -11.176 89.534563401317087 0 -1 0 I I #
coedge $-1 $133 $132 $250 $251 reversed $134 $-1 #
coedge $-1 $246 $252 $132 $188 forward $253 $-1 #
edge $-1 $254 5.4358170844791986e-030 $135 0.58049113350293347 $132 $255 forward 7 unknown #
edge $-1 $201 5.4358170844791986e-030 $93 0.58049113350293347 $133 $256 forward 7 unknown #
face $-1 $257 $134 $2 $-1 $258 forward single #
point $-1 -12.953999999999994 -11.176 89.534563401317087 #
face $-1 $248 $253 $2 $-1 $259 reversed single #
loop $-1 $-1 $260 $138 #
plane-surface $-1 -13.334999999999985 -16.39199113350293 89.534563401317072 0 0 1 1.7763568394002505e-015 -1 0 forward_v I I I I #
coedge $-1 $261 $262 $263 $264 forward $139 $-1 #
coedge $-1 $144 $141 $265 $266 reversed $98 $-1 #
coedge $-1 $141 $144 $267 $268 forward $98 $-1 #
coedge $-1 $262 $261 $141 $199 reversed $139 $-1 #
edge $-1 $269 0 $270 0.76200000000000045 $141 $271 forward 7 unknown #
edge $-1 $202 1.0871634168958431e-029 $106 0.58049113350295123 $142 $272 forward 7 unknown #
vertex $-1 $268 $273 #
vertex $-1 $145 $274 #
straight-curve $-1 -12.953999999999994 -11.756491133502934 26.034563401317083 -1 0 0 I I #
coedge $-1 $275 $147 $276 $277 reversed $20 $-1 #
coedge $-1 $241 $240 $147 $206 forward $242 $-1 #
edge $-1 $278 0 $207 12.171679999999981 $205 $279 forward 7 unknown #
vertex $-1 $245 $280 #
straight-curve $-1 -13.715999999999994 -11.176 89.534563401317087 0 -1 0 I I #
coedge $-1 $151 $150 $281 $282 forward $152 $-1 #
coedge $-1 $252 $246 $151 $211 reversed $253 $-1 #
edge $-1 $283 0 $153 0.58049113350295123 $210 $284 forward 7 unknown #
face $-1 $285 $152 $2 $-1 $286 reversed single #
point $-1 -13.715999999999994 -11.175999999999982 89.534563401317087 #
coedge $-1 $156 $287 $225 $288 reversed $20 $-1 #
edge $-1 $171 1.6653345369377348e-016 $229 0.76200000000000001 $156 $289 forward 7 unknown #
straight-curve $-1 -13.715999999999994 -6.0960000000000019 -0.12700000000000078 0 1 0 I I #
coedge $-1 $290 $159 $291 $292 forward $5 $-1 #
coedge $-1 $293 $294 $159 $219 reversed $295 $-1 #
edge $-1 $223 0 $296 2.7939999999999987 $159 $297 forward 7 unknown #
coedge $-1 $298 $160 $163 $226 forward $222 $-1 #
coedge $-1 $160 $298 $293 $299 reversed $222 $-1 #
loop $-1 $-1 $220 $300 #
vertex $-1 $219 $301 #
straight-curve $-1 -12.953999999999994 3.301999999999996 0.63499999999999912 0 0 -1 I I #
coedge $-1 $163 $162 $214 $288 forward $164 $-1 #
edge $-1 $165 0 $302 0.76200000000000045 $220 $303 forward 7 unknown #
face $-1 $169 $164 $2 $-1 $304 forward single #
point $-1 -12.953999999999994 3.301999999999996 0.63499999999999912 #
vertex $-1 $215 $305 #
straight-curve $-1 -12.953999999999994 -3.3020000000000023 0.63499999999999912 -1 0 0 I I #
plane-surface $-1 -13.334999999999994 -3.3020000000000023 0.25399999999999917 0 1 0 0 0 1 forward_v I I I I #
point $-1 -13.715999999999994 -3.3020000000000023 -0.12700000000000078 #
face $-1 $306 $307 $2 $-1 $308 forward single #
loop $-1 $-1 $309 $175 #
plane-surface $-1 -13.715999999999987 -37.664491133502949 329.28559999999999 -1 5.9952043329758453e-015 0 -5.9952043329758453e-015 -1 0 forward_v I I I I #
tcoedge-coedge $-1 $310 $311 $312 $313 forward $176 $314 -2.1583507733966879e-015 1.9113974875175264 #
coedge $-1 $178 $315 $316 $317 forward $5 $-1 #
coedge $-1 $318 $319 $178 $239 reversed $320 $-1 #
edge $-1 $321 0 $243 31.250071559338419 $178 $322 forward 7 unknown #
coedge $-1 $205 $179 $319 $323 forward $242 $-1 #
coedge $-1 $179 $205 $181 $245 reversed $242 $-1 #
loop $-1 $-1 $179 $324 #
vertex $-1 $180 $325 #
straight-curve $-1 -12.953999999999994 -12.064999999999982 101.70624340131707 0 0 -1 I I #
edge $-1 $184 0 $207 0.76200000000000045 $241 $326 forward 7 unknown #
coedge $-1 $210 $187 $182 $247 forward $253 $-1 #
edge $-1 $135 4.5551023398588576e-029 $153 0.76200000000000045 $182 $327 forward 7 unknown #
face $-1 $324 $183 $2 $-1 $328 reversed single #
point $-1 -12.953999999999994 -12.064999999999982 89.534563401317087 #
coedge $-1 $329 $267 $186 $251 forward $330 $-1 #
edge $-1 $201 0 $254 63.5 $250 $331 forward 7 unknown #
coedge $-1 $187 $210 $260 $332 reversed $253 $-1 #
loop $-1 $-1 $246 $192 #
vertex $-1 $333 $334 #
straight-curve $-1 -12.953999999999992 -11.756491133502934 89.534563401317072 -3.0600929745143368e-015 1 0 I I #
straight-curve $-1 -12.953999999999992 -11.756491133502934 26.034563401317083 -3.0600929745143368e-015 1 0 I I #
face $-1 $-1 $330 $2 $-1 $335 forward single #
plane-surface $-1 -12.953999999999994 -11.175999999999981 26.034563401317072 1 1.7763568394002505e-015 0 1.7763568394002505e-015 -1 0 forward_v I I I I #
plane-surface $-1 -13.483789755157225 -11.535210244842748 89.534563401317072 0 0 -1 1 0 0 forward_v I I I I #
coedge $-1 $336 $337 $252 $332 forward $193 $-1 #
coedge $-1 $198 $195 $338 $339 reversed $139 $-1 #
coedge $-1 $195 $198 $340 $341 forward $139 $-1 #
coedge $-1 $337 $336 $195 $264 reversed $193 $-1 #
edge $-1 $342 0 $343 0.76200000000000045 $195 $344 forward 7 unknown #
coedge $-1 $338 $281 $196 $266 forward $345 $-1 #
edge $-1 $202 -3.0632070529561464e-030 $270 9.2709999999999972 $196 $346 forward 7 unknown #
coedge $-1 $250 $340 $197 $268 reversed $330 $-1 #
edge $-1 $201 -3.0632070529561464e-030 $269 9.2709999999999972 $267 $347 forward 7 unknown #
vertex $-1 $268 $348 #
vertex $-1 $266 $349 #
straight-curve $-1 -12.953999999999976 -21.027491133502931 26.034563401317072 -1 0 0 I I #
straight-curve $-1 -13.71599999999999 -11.756491133502934 26.034563401317083 -3.0600929745143463e-015 1 0 I I #
point $-1 -12.953999999999994 -11.756491133502934 26.034563401317072 #
point $-1 -13.715999999999994 -11.756491133502934 26.034563401317072 #
coedge $-1 $350 $204 $351 $352 reversed $20 $-1 #
coedge $-1 $319 $318 $204 $277 forward $320 $-1 #
edge $-1 $353 -5.4430731432758843e-015 $278 31.250071559338419 $276 $354 forward 7 unknown #
vertex $-1 $206 $355 #
straight-curve $-1 -13.715999999999994 -12.064999999999982 101.70624340131707 0 0 -1 I I #
point $-1 -13.715999999999994 -12.064999999999982 89.534563401317087 #
coedge $-1 $265 $356 $209 $282 reversed $345 $-1 #
edge $-1 $202 0 $283 63.5 $281 $357 forward 7 unknown #
vertex $-1 $358 $359 #
straight-curve $-1 -13.71599999999999 -11.756491133502934 89.534563401317072 -3.0600929745143463e-015 1 0 I I #
face $-1 $190 $345 $2 $-1 $360 reversed single #
plane-surface $-1 -13.715999999999992 -11.175999999999982 26.034563401317072 1 1.7763568394002505e-015 0 1.7763568394002505e-015 -1 0 forward_v I I I I #
coedge $-1 $214 $361 $298 $362 reversed $20 $-1 #
edge $-1 $229 0 $302 6.6039999999999974 $214 $363 forward 7 unknown #
straight-curve $-1 -13.715999999999994 -3.3020000000000023 -0.12700000000000095 0 0 1 I I #
coedge $-1 $364 $217 $365 $366 forward $5 $-1 #
coedge $-1 $367 $368 $217 $292 reversed $369 $-1 #
edge $-1 $296 0 $370 0.76200000000000001 $217 $371 forward 7 unknown #
coedge $-1 $372 $218 $221 $299 forward $295 $-1 #
coedge $-1 $218 $372 $367 $373 reversed $295 $-1 #
loop $-1 $-1 $293 $374 #
vertex $-1 $292 $375 #
straight-curve $-1 -12.953999999999994 3.301999999999996 -0.12700000000000078 0 1 0 I I #
coedge $-1 $221 $220 $287 $362 forward $222 $-1 #
edge $-1 $223 0 $376 0.76200000000000045 $221 $377 forward 7 unknown #
face $-1 $227 $222 $2 $-1 $378 forward single #
point $-1 -12.953999999999994 3.301999999999996 -0.12700000000000095 #
vertex $-1 $288 $379 #
straight-curve $-1 -12.953999999999994 3.301999999999996 0.63499999999999912 -1 0 0 I I #
plane-surface $-1 -13.334999999999994 -3.5527136788005009e-015 0.63499999999999912 0 0 -1 0 1 0 forward_v I I I I #
point $-1 -13.715999999999994 -3.3020000000000014 0.63499999999999912 #
face $-1 $212 $380 $2 $-1 $381 reversed single #
loop $-1 $-1 $382 $233 #
plane-surface $-1 -12.953999999999994 -37.973000000000006 331.10631492688941 1 -7.9933560083417001e-015 0 -7.9933560083417001e-015 -1 0 forward_v I I I I #
coedge $-1 $383 $384 $311 $385 forward $234 $-1 #
coedge $-1 $386 $236 $387 $388 forward $176 $-1 #
coedge $-1 $236 $386 $309 $385 reversed $176 $-1 #
tcoedge-coedge $-1 $389 $390 $236 $313 reversed $391 $392 -1.9113974875175264 2.1583507733966879e-015 #
tedge-edge $-1 $393 -2.1583507733966879e-015 $394 1.9113974875175264 $312 $395 forward 7 unknown 1.4210854715202004e-014 #
pcurve $-1 0 forward { exppc nubs 1 open 2 
	-2.1583507733966879e-015 1 1.9113974875175264 1 
	0.58049113350295301 1.8207149268894227 
	-0.00011662417664126679 -0.00036579263144176366 
	0 
	plane -13.715999999999992 -37.972999999999999 331.10631492688941 -1 7.9933560083417001e-015 0 -7.9933560083417001e-015 -1 0 reverse_v I I I I 
	} 0 0 #
coedge $-1 $237 $396 $397 $398 forward $5 $-1 #
coedge $-1 $399 $400 $237 $317 reversed $401 $-1 #
edge $-1 $402 0 $321 0.87266462599718453 $237 $403 forward 7 unknown #
coedge $-1 $276 $238 $400 $404 forward $320 $-1 #
coedge $-1 $238 $276 $240 $323 reversed $320 $-1 #
loop $-1 $-1 $318 $405 #
vertex $-1 $239 $406 #
straight-curve $-1 -12.953999999999994 -36.003943665101907 121.79340220147714 0 0.76604444311898812 -0.64278760968652726 I I #
edge $-1 $243 0 $278 0.76200000000000045 $240 $407 forward 7 unknown #
face $-1 $405 $242 $2 $-1 $408 forward single #
point $-1 -12.953999999999994 -12.064999999999982 101.70624340131707 #
straight-curve $-1 -12.953999999999994 -12.064999999999982 89.534563401317087 -1 0 0 I I #
straight-curve $-1 -12.953999999999994 -11.175999999999981 89.534563401317072 -1 -2.331176954593503e-015 0 I I #
plane-surface $-1 -13.334999999999994 -11.620499999999982 89.534563401317087 0 0 1 0 -1 0 forward_v I I I I #
coedge $-1 $340 $250 $337 $333 forward $330 $-1 #
loop $-1 $-1 $250 $257 #
straight-curve $-1 -12.953999999999992 -11.756491133502934 26.034563401317072 0 0 1 I I #
edge $-1 $254 1.7763568394002505e-015 $283 0.76199999999999868 $260 $409 forward 7 unknown #
edge $-1 $254 -3.0632070529561464e-030 $342 9.2709999999999972 $329 $410 forward 7 unknown #
point $-1 -12.953999999999994 -11.756491133502934 89.534563401317072 #
plane-surface $-1 -12.953999999999994 -10.867491133502934 26.034563401317072 1 1.7763568394002505e-015 0 1.7763568394002505e-015 -1 0 forward_v I I I I #
coedge $-1 $263 $260 $356 $358 forward $193 $-1 #
coedge $-1 $260 $263 $329 $333 reversed $193 $-1 #
coedge $-1 $356 $265 $261 $339 forward $345 $-1 #
edge $-1 $270 0 $343 63.5 $261 $411 forward 7 unknown #
coedge $-1 $267 $329 $262 $341 reversed $330 $-1 #
edge $-1 $269 0 $342 63.5 $340 $412 forward 7 unknown #
vertex $-1 $341 $413 #
vertex $-1 $339 $414 #
straight-curve $-1 -12.953999999999976 -21.027491133502931 89.534563401317072 -1 0 0 I I #
loop $-1 $-1 $338 $285 #
straight-curve $-1 -13.715999999999992 -11.756491133502934 26.034563401317072 1.724432267781497e-015 -1 0 I I #
straight-curve $-1 -12.953999999999992 -11.756491133502934 26.034563401317072 1.724432267781497e-015 -1 0 I I #
point $-1 -12.953999999999976 -21.027491133502931 26.034563401317072 #
point $-1 -13.715999999999976 -21.027491133502931 26.034563401317072 #
coedge $-1 $387 $275 $415 $416 reversed $20 $-1 #
coedge $-1 $400 $399 $275 $352 forward $401 $-1 #
edge $-1 $417 0 $353 0.87266462599718375 $351 $418 forward 7 unknown #
vertex $-1 $277 $419 #
straight-curve $-1 -13.715999999999994 -36.003943665101907 121.79340220147714 0 0.76604444311898812 -0.64278760968652726 I I #
point $-1 -13.715999999999994 -12.064999999999984 101.70624340131707 #
coedge $-1 $281 $338 $336 $358 reversed $345 $-1 #
straight-curve $-1 -13.715999999999992 -11.756491133502934 26.034563401317072 0 0 1 I I #
edge $-1 $283 3.0632070529561464e-030 $343 9.2709999999999972 $336 $420 forward 7 unknown #
point $-1 -13.71599999999999 -11.756491133502934 89.534563401317072 #
plane-surface $-1 -13.715999999999994 -10.867491133502936 26.034563401317072 1 1.7763568394002505e-015 0 1.7763568394002505e-015 -1 0 forward_v I I I I #
coedge $-1 $287 $421 $372 $422 reversed $20 $-1 #
edge $-1 $302 0 $376 0.7619999999999999 $287 $423 forward 7 unknown #
straight-curve $-1 -13.715999999999994 -3.3020000000000014 0.63499999999999912 0 1 0 I I #
coedge $-1 $424 $290 $425 $426 forward $5 $-1 #
coedge $-1 $427 $428 $290 $366 reversed $429 $-1 #
edge $-1 $370 0 $430 6.6040000000000045 $290 $431 forward 7 unknown #
coedge $-1 $432 $291 $294 $373 forward $369 $-1 #
coedge $-1 $291 $432 $427 $433 reversed $369 $-1 #
loop $-1 $-1 $367 $434 #
vertex $-1 $366 $435 #
straight-curve $-1 -12.953999999999994 6.0959999999999948 -0.12700000000000095 0 0 1 I I #
coedge $-1 $294 $293 $361 $422 forward $295 $-1 #
edge $-1 $296 0 $436 0.76200000000000045 $367 $437 forward 7 unknown #
face $-1 $300 $295 $2 $-1 $438 forward single #
point $-1 -12.953999999999994 6.0959999999999948 -0.12700000000000095 #
vertex $-1 $362 $439 #
straight-curve $-1 -12.953999999999994 3.301999999999996 -0.12700000000000078 -1 0 0 I I #
plane-surface $-1 -13.334999999999994 3.301999999999996 0.25399999999999917 0 -1 0 0 0 -1 forward_v I I I I #
point $-1 -13.715999999999994 3.301999999999996 0.63499999999999912 #
loop $-1 $-1 $440 $306 #
plane-surface $-1 -12.953999999999986 -37.664491133502956 329.28559999999999 -1 5.9952043329758453e-015 0 -5.9952043329758453e-015 -1 0 forward_v I I I I #
coedge $-1 $441 $442 $443 $444 forward $307 $-1 #
coedge $-1 $445 $309 $446 $447 forward $234 $-1 #
coedge $-1 $309 $445 $448 $449 reversed $234 $-1 #
edge $-1 $393 0 $450 201.3630762091278 $309 $451 forward 7 unknown #
coedge $-1 $311 $310 $452 $453 reversed $176 $-1 #
coedge $-1 $454 $350 $310 $388 reversed $20 $-1 #
edge $-1 $394 -0.00044910990538937767 $455 203.18379113601722 $387 $456 forward 7 unknown #
coedge $-1 $457 $312 $458 $459 reversed $391 $460 #
tcoedge-coedge $-1 $312 $457 $461 $462 forward $391 $463 4.0478863544767668e-018 0.76200000000000045 #
loop $-1 $-1 $390 $464 #
pcurve $-1 0 forward { exppc nurbs 3 open 2 
	-1.9113974875175264 3 2.2204460492503131e-015 3 
	0.99999999999998646 1 1 
	0.66666666666665764 1 1 
	0.33333333333332882 1 1 
	0 1 1 
	0.001 
	spline forward { exactsur full nurbs 3 1 both open open none none 2 2 
	0 3 0.99999999999998646 3 
	0 1 1 1 
	-12.953999999999995 -38.553491133502959 329.28559999999999 1 
	-12.953999999999994 -38.359994089001972 329.89250497562978 1 
	-12.953999999999995 -38.166497044500986 330.49940995125962 1 
	-12.953999999999994 -37.972999999999999 331.10631492688941 1 
	-13.715999999999996 -38.553491133502952 329.28559999999999 1 
	-13.715999999999994 -38.359994089001972 329.89250497562978 1 
	-13.715999999999992 -38.166497044500986 330.49940995125962 1 
	-13.715999999999992 -37.972999999999999 331.10631492688941 1 
	0 
	0 
	0 
	0 
	0 
	0 
	0 
	F 1 F 0 F 1 F 0 } I I I I 
	} 0 0 #
tvertex-vertex $-1 $449 $465 7.944109290391274e-015 #
tvertex-vertex $-1 $466 $467 0.00052304836306131107 #
straight-curve $-1 -13.715999999999998 -38.553491133502952 329.28559999999999 2.7886094836266585e-015 0.30376086683763093 0.95274830662565402 F -2.1583507733966879e-015 F 1.9113974875175264 #
coedge $-1 $315 $468 $441 $469 forward $5 $-1 #
coedge $-1 $470 $471 $315 $398 reversed $472 $-1 #
edge $-1 $473 0 $402 0.88899999999999579 $315 $474 forward 7 unknown #
coedge $-1 $351 $316 $471 $475 forward $401 $-1 #
coedge $-1 $316 $351 $318 $404 reversed $401 $-1 #
loop $-1 $-1 $399 $476 #
vertex $-1 $317 $477 #
ellipse-curve $-1 -12.953999999999994 -30.861000000000004 127.92252379087216 1 0 0 0 -8.0009999999999977 2.8421709430404007e-014 1 I I #
edge $-1 $321 0 $353 0.76200000000000045 $318 $478 forward 7 unknown #
face $-1 $476 $320 $2 $-1 $479 forward single #
point $-1 -12.953999999999994 -36.003943665101907 121.79340220147714 #
straight-curve $-1 -12.953999999999994 -12.064999999999982 101.70624340131707 -1 0 0 I I #
plane-surface $-1 -13.334999999999994 -12.064999999999982 51.170621700658529 0 -1 0 0 0 -1 forward_v I I I I #
straight-curve $-1 -12.953999999999992 -11.756491133502934 89.534563401317072 -1 0 0 I I #
straight-curve $-1 -12.953999999999992 -11.756491133502934 89.534563401317072 1.724432267781497e-015 -1 0 I I #
straight-curve $-1 -13.715999999999976 -21.027491133502931 26.034563401317072 0 0 1 I I #
straight-curve $-1 -12.953999999999976 -21.027491133502931 26.034563401317072 0 0 1 I I #
point $-1 -12.953999999999976 -21.027491133502931 89.534563401317072 #
point $-1 -13.715999999999976 -21.027491133502931 89.534563401317072 #
coedge $-1 $471 $470 $350 $416 forward $472 $-1 #
edge $-1 $455 0 $417 0.8890000000000029 $350 $480 forward 7 unknown #
vertex $-1 $352 $481 #
ellipse-curve $-1 -13.715999999999994 -30.861000000000004 127.92252379087216 1 0 0 0 -8.0009999999999977 2.8421709430404007e-014 1 I I #
point $-1 -13.715999999999994 -36.003943665101914 121.79340220147714 #
straight-curve $-1 -13.715999999999992 -11.756491133502934 89.534563401317072 1.724432267781497e-015 -1 0 I I #
coedge $-1 $361 $482 $432 $483 reversed $20 $-1 #
edge $-1 $376 0 $436 2.7939999999999987 $361 $484 forward 7 unknown #
straight-curve $-1 -13.715999999999994 3.301999999999996 0.63499999999999912 0 0 -1 I I #
coedge $-1 $468 $364 $485 $486 forward $5 $-1 #
coedge $-1 $487 $488 $364 $426 reversed $489 $-1 #
edge $-1 $430 8.2156503822261584e-015 $490 330.83500000000038 $364 $491 forward 7 unknown #
coedge $-1 $492 $365 $368 $433 forward $429 $-1 #
coedge $-1 $365 $492 $487 $493 reversed $429 $-1 #
loop $-1 $-1 $427 $494 #
vertex $-1 $426 $495 #
straight-curve $-1 -12.953999999999994 6.0959999999999948 0.63499999999999912 0 1 0 I I #
coedge $-1 $368 $367 $421 $483 forward $369 $-1 #
edge $-1 $370 0 $496 0.76200000000000045 $368 $497 forward 7 unknown #
face $-1 $374 $369 $2 $-1 $498 forward single #
point $-1 -12.953999999999994 6.0959999999999948 0.63499999999999912 #
vertex $-1 $422 $499 #
straight-curve $-1 -12.953999999999994 6.0959999999999948 -0.12700000000000078 -1 0 0 I I #
plane-surface $-1 -13.334999999999994 4.6989999999999954 -0.12700000000000078 0 0 -1 0 1 0 forward_v I I I I #
point $-1 -13.715999999999994 3.301999999999996 -0.12700000000000078 #
coedge $-1 $500 $501 $502 $503 forward $380 $-1 #
coedge $-1 $504 $382 $396 $469 reversed $307 $-1 #
coedge $-1 $382 $504 $505 $506 forward $307 $-1 #
coedge $-1 $507 $508 $382 $444 reversed $509 $-1 #
edge $-1 $510 4.8922353760312783e-029 $473 0.58049113350295301 $382 $511 forward 7 unknown #
coedge $-1 $384 $383 $512 $513 reversed $234 $-1 #
coedge $-1 $514 $515 $383 $447 reversed $516 $-1 #
edge $-1 $450 -7.1054273576009703e-015 $517 9.2709999999999866 $446 $518 forward 7 unknown #
coedge $-1 $519 $458 $384 $449 forward $520 $-1 #
edge $-1 $393 1.0551046515737842e-029 $521 9.2709999999999937 $448 $522 forward 7 unknown #
vertex $-1 $523 $524 #
straight-curve $-1 -13.715999999999992 -38.553491133502952 329.28559999999999 0 0 -1 I I #
coedge $-1 $508 $507 $386 $453 forward $509 $-1 #
edge $-1 $450 0 $455 0.58049113350295301 $452 $525 forward 7 unknown #
tcoedge-coedge $-1 $526 $387 $527 $466 reversed $20 $528 -0.33064233052165859 0 #
vertex $-1 $388 $529 #
straight-curve $-1 -13.715999999999994 -37.972999999999999 331.10631492688941 0 0 -1 I I #
tcoedge-coedge $-1 $390 $389 $504 $530 forward $391 $531 1.4860696585969847e-029 1.9111460685445676 #
coedge $-1 $448 $532 $389 $459 forward $520 $-1 #
edge $-1 $533 0 $393 0.76200000000000045 $458 $534 forward 7 unknown #
pcurve $-1 0 forward { exppc nurbs 3 open 2 
	-0.76200000000000045 3 0 3 
	0 1 1 
	0 0.66666666666666663 1 
	0 0.33333333333333331 1 
	0 0 1 
	0.001 
	spline forward { ref 2 } I I I I 
	} 0 0 #
tcoedge-coedge $-1 $535 $527 $390 $462 reversed $536 $537 -0.76200000000000045 -4.0478863544767668e-018 #
tedge-edge $-1 $538 4.0478863544767668e-018 $394 0.76200000000000045 $390 $539 forward 7 unknown 0.00094017455445534405 #
pcurve $-1 0 forward { exppc nurbs 3 open 2 
	4.0478863544767668e-018 3 0.76200000000000045 3 
	0.99999999999998646 0 1 
	0.99999999999998646 0.33333333333333331 1 
	0.99999999999998646 0.66666666666666663 1 
	0.99999999999998646 1 1 
	0.001 
	spline forward { ref 2 } I I I I 
	} 0 0 #
face $-1 $540 $391 $2 $-1 $541 forward single #
point $-1 -13.715999999999994 -38.553491133502959 329.28559999999999 #
tedge-edge $-1 $542 0 $394 0.33064233052165859 $454 $543 forward 7 unknown 0.00010847927026373106 #
point $-1 -13.715999999999994 -37.973144701097098 331.1067640367948 #
tcoedge-coedge $-1 $396 $424 $535 $544 forward $5 $545 0 0.33501557926238357 #
edge $-1 $538 -0.00018522177123259098 $473 203.18379113601722 $396 $546 forward 7 unknown #
coedge $-1 $415 $397 $508 $547 forward $472 $-1 #
coedge $-1 $397 $415 $399 $475 reversed $472 $-1 #
loop $-1 $-1 $470 $548 #
vertex $-1 $398 $549 #
straight-curve $-1 -12.953999999999994 -37.973000000000006 127.92252379087219 0 -1 0 I I #
edge $-1 $402 0 $417 0.76200000000000045 $399 $550 forward 7 unknown #
face $-1 $548 $401 $2 $-1 $551 forward single #
point $-1 -12.953999999999994 -38.862000000000002 127.92252379087219 #
straight-curve $-1 -12.953999999999994 -36.003943665101914 121.79340220147714 -1 0 0 I I #
plane-surface $-1 -13.334999999999994 -24.034471832550945 111.7498228013971 0 -0.64278760968652737 -0.76604444311898823 0 0.76604444311898812 -0.64278760968652726 forward_v I I I I #
straight-curve $-1 -13.715999999999994 -37.972999999999999 127.92252379087219 0 -1 0 I I #
point $-1 -13.715999999999994 -38.862000000000002 127.92252379087219 #
coedge $-1 $421 $552 $492 $553 reversed $20 $-1 #
edge $-1 $436 1.6653345369377348e-016 $496 0.76200000000000001 $421 $554 forward 7 unknown #
straight-curve $-1 -13.715999999999994 3.301999999999996 -0.12700000000000078 0 1 0 I I #
coedge $-1 $555 $556 $424 $486 reversed $557 $-1 #
edge $-1 $490 0 $558 50.006223544765618 $424 $559 forward 7 unknown #
coedge $-1 $560 $425 $428 $493 forward $489 $-1 #
coedge $-1 $425 $560 $561 $562 forward $489 $-1 #
loop $-1 $-1 $487 $563 #
vertex $-1 $486 $564 #
straight-curve $-1 -12.953999999999994 12.699999999999999 0.63499999999999091 0 0 1 I I #
coedge $-1 $428 $427 $482 $553 forward $429 $-1 #
edge $-1 $430 0 $565 0.76200000000000045 $428 $566 forward 7 unknown #
face $-1 $434 $429 $2 $-1 $567 forward single #
point $-1 -12.953999999999994 12.699999999999999 0.63499999999999912 #
vertex $-1 $483 $568 #
straight-curve $-1 -12.953999999999994 6.0959999999999948 0.63499999999999912 -1 0 0 I I #
plane-surface $-1 -13.334999999999994 6.0959999999999948 0.25399999999999917 0 1 0 0 0 1 forward_v I I I I #
point $-1 -13.715999999999994 6.0959999999999948 -0.12700000000000078 #
coedge $-1 $505 $440 $569 $570 reversed $380 $-1 #
coedge $-1 $440 $505 $532 $571 forward $380 $-1 #
coedge $-1 $572 $573 $440 $503 reversed $574 $-1 #
edge $-1 $575 0 $576 201.3630762091278 $440 $577 forward 7 unknown #
tcoedge-coedge $-1 $442 $441 $457 $530 reversed $307 $578 -1.9111460685445676 -1.4860696585969847e-029 #
coedge $-1 $501 $500 $442 $506 reversed $380 $-1 #
edge $-1 $533 0 $510 201.3630762091278 $505 $579 forward 7 unknown #
coedge $-1 $452 $443 $514 $523 forward $509 $-1 #
coedge $-1 $443 $452 $470 $547 reversed $509 $-1 #
loop $-1 $-1 $507 $580 #
vertex $-1 $506 $581 #
straight-curve $-1 -12.953999999999999 -38.553491133502959 127.92252379087219 9.1802789235430098e-015 1 0 I I #
coedge $-1 $573 $572 $445 $513 forward $574 $-1 #
edge $-1 $521 0 $517 201.3630762091278 $512 $582 forward 7 unknown #
coedge $-1 $569 $446 $507 $523 reversed $516 $-1 #
coedge $-1 $446 $569 $573 $583 forward $516 $-1 #
loop $-1 $-1 $515 $584 #
vertex $-1 $447 $585 #
straight-curve $-1 -13.715999999999992 -38.553491133502959 127.92252379087219 -5.9397111445807143e-015 -1 0 I I #
coedge $-1 $532 $448 $572 $586 reversed $520 $-1 #
loop $-1 $-1 $458 $587 #
vertex $-1 $586 $588 #
straight-curve $-1 -13.715999999999992 -38.553491133502959 329.28559999999999 -5.9397111445807143e-015 -1 0 I I #
edge $-1 $510 0 $450 0.76200000000000401 $514 $589 forward 7 unknown #
point $-1 -13.715999999999998 -38.553491133502952 127.92252379087219 #
straight-curve $-1 -13.715999999999998 -38.553491133502952 127.92252379087219 9.1802789235430098e-015 1 0 I I #
coedge $-1 $552 $454 $590 $591 reversed $20 $-1 #
tcoedge-coedge $-1 $461 $592 $454 $466 forward $536 $593 0 0.33064233052165859 #
pcurve $-1 0 forward { exppc nurbs 2 open 2 
	-0.33064233052165859 2 0 2 
	330.78957025603569 42.672384101728127 1 
	331.02669077409541 42.369081371375025 0.98636555232952006 
	331.15250000000003 42.005226008625186 1 
	0 
	plane -13.715999999999994 4.6989999999999998 0.31749999999999884 -1 0 0 0 0 1 reverse_v I I I I 
	} 0 0 #
point $-1 -13.715999999999994 -37.972999999999999 127.92252379087219 #
tedge-edge $-1 $533 1.4860696585969847e-029 $538 1.9111460685445676 $504 $594 forward 7 unknown 1.464821375527116e-014 #
pcurve $-1 0 forward { exppc nurbs 3 open 2 
	1.4860696585969847e-029 3 1.9111460685445676 3 
	0 0 1 
	0.33333333333332882 0 1 
	0.66666666666665764 0 1 
	0.99999999999998646 0 1 
	0.001 
	spline forward { ref 2 } I I I I 
	} 0 0 #
coedge $-1 $458 $519 $501 $571 reversed $520 $-1 #
tvertex-vertex $-1 $571 $595 5.3290705182007514e-015 #
straight-curve $-1 -12.953999999999994 -38.553491133502959 329.28559999999999 -1 0 0 I I #
tcoedge-coedge $-1 $592 $461 $468 $544 reversed $536 $596 -0.33501557926238357 0 #
loop $-1 $-1 $592 $540 #
pcurve $-1 0 forward { exppc nubs 1 open 2 
	-0.76200000000000045 1 -4.0478863544767668e-018 1 
	-0.16483516483516494 0.66319155442725508 
	0.16483516483516494 0.66319155442725752 
	0 
	cone -13.334999999999994 -36.550600000000003 329.28559999999999 1 0 0 0 0 2.3113999999999999 1 I I 0 1 2.3113999999999999 forward I I I I 
	} 0 0 #
tvertex-vertex $-1 $469 $597 0.00070513143795413076 #
straight-curve $-1 -12.953999999999994 -37.973578804388424 331.10705581397445 -1 9.3247078183740121e-015 0 F 4.0478863544767668e-018 F 0.76200000000000045 #
face $-1 $598 $536 $2 $-1 $599 forward single #
spline-surface $-1 forward { ref 2 } I I I I #
tvertex-vertex $-1 $591 $600 8.793177989040251e-007 #
ellipse-curve $-1 -13.715999999999994 -36.552172743909026 329.28918756599012 1 0 0 0 -0.75405326471616263 2.1808124340099084 1 F 0 F 0.33064233052165859 #
tedge-edge $-1 $558 0 $538 0.33501557926238357 $468 $601 forward 7 unknown 0.00094016516214674457 #
pcurve $-1 0 forward { exppc nurbs 2 open 2 
	0 2 0.33501557926238357 2 
	331.15250000000037 42.005223544765613 1 
	331.02703104328128 42.369359557396493 0.98600334368965736 
	330.78881545748976 42.671999325901773 1 
	0 
	plane -12.953999999999994 4.6989999999999998 0.31749999999999884 1 0 0 0 0 1 forward_v I I I I 
	} 0 0 #
straight-curve $-1 -12.953999999999994 -37.973000000000006 331.10631492688941 0 0 -1 I I #
edge $-1 $473 0 $455 0.76200000000000045 $470 $602 forward 7 unknown #
face $-1 $580 $472 $2 $-1 $603 forward single #
point $-1 -12.953999999999994 -37.973000000000006 127.92252379087219 #
straight-curve $-1 -12.953999999999994 -38.862000000000002 127.92252379087219 -1 0 0 I I #
cone-surface $-1 -13.334999999999994 -30.860999999999997 127.92252379087215 1 0 0 0 -8.0009999999999977 0 1 I I 0 1 8.0009999999999977 forward I I I I #
coedge $-1 $482 $526 $560 $604 reversed $20 $-1 #
edge $-1 $496 0 $565 6.6040000000000045 $482 $605 forward 7 unknown #
straight-curve $-1 -13.715999999999994 6.0959999999999948 -0.12700000000000095 0 0 1 I I #
coedge $-1 $606 $485 $607 $608 reversed $557 $-1 #
coedge $-1 $485 $606 $609 $610 forward $557 $-1 #
loop $-1 $-1 $556 $611 #
tvertex-vertex $-1 $544 $612 2.3296526468100213e-006 #
straight-curve $-1 -12.953999999999994 12.699999999999999 331.47000000000037 0 -1 0 I I #
coedge $-1 $488 $487 $552 $604 forward $489 $-1 #
coedge $-1 $613 $607 $488 $562 reversed $614 $-1 #
edge $-1 $615 0 $490 0.76200000000000045 $488 $616 forward 7 unknown #
face $-1 $494 $489 $2 $-1 $617 forward single #
point $-1 -12.953999999999994 12.699999999999999 331.47000000000037 #
vertex $-1 $553 $618 #
straight-curve $-1 -12.953999999999994 12.699999999999999 0.63499999999999091 -1 0 0 I I #
plane-surface $-1 -13.334999999999994 9.3979999999999979 0.63499999999999912 0 0 -1 0 1 0 forward_v I I I I #
point $-1 -13.715999999999994 6.0959999999999948 0.63499999999999912 #
coedge $-1 $515 $514 $500 $570 forward $516 $-1 #
edge $-1 $510 1.0551046515737842e-029 $576 9.2709999999999937 $500 $619 forward 7 unknown #
edge $-1 $533 1.0551046515737842e-029 $575 9.2709999999999937 $501 $620 forward 7 unknown #
coedge $-1 $512 $502 $519 $586 forward $574 $-1 #
coedge $-1 $502 $512 $515 $583 reversed $574 $-1 #
loop $-1 $-1 $572 $621 #
vertex $-1 $571 $622 #
vertex $-1 $570 $623 #
straight-curve $-1 -12.954000000000047 -47.824491133502946 329.28559999999999 0 0 -1 I I #
pcurve $-1 0 forward { exppc nubs 1 open 2 
	-1.9111460685445676 1 0 1 
	-4.0252931476914e-005 -0.00012625363069673767 
	0.58049113350295301 1.8207149268894227 
	0 
	plane -12.953999999999994 -37.973000000000006 331.10631492688941 1 -7.9933560083417001e-015 0 -7.9933560083417001e-015 -1 0 forward_v I I I I 
	} 0 0 #
straight-curve $-1 -12.953999999999992 -38.553491133502959 329.28559999999999 0 0 -1 I I #
face $-1 $584 $509 $2 $-1 $624 forward single #
point $-1 -12.953999999999994 -38.553491133502959 127.92252379087219 #
straight-curve $-1 -13.716000000000047 -47.824491133502946 329.28559999999999 0 0 -1 I I #
edge $-1 $576 0 $517 0.76200000000000045 $515 $625 forward 7 unknown #
face $-1 $621 $516 $2 $-1 $626 reversed single #
point $-1 -13.716000000000051 -47.824491133502946 127.92252379087219 #
edge $-1 $575 0 $521 0.76200000000000045 $519 $627 forward 7 unknown #
face $-1 $464 $520 $2 $-1 $628 forward single #
point $-1 -13.716000000000051 -47.824491133502953 329.28559999999999 #
straight-curve $-1 -12.953999999999994 -38.553491133502959 127.92252379087219 -1 0 0 I I #
coedge $-1 $629 $630 $526 $591 forward $631 $-1 #
edge $-1 $615 0 $542 50.006226008625191 $526 $632 forward 7 unknown #
coedge $-1 $527 $535 $633 $634 reversed $536 $-1 #
pcurve $-1 0 forward { exppc nubs 2 open 7 
	0 2 0.055107055086943094 2 0.11021411017388619 2 0.16532116526082929 2 0.22042822034777237 2 
	0.27553527543471551 2 0.33064233052165859 2 
	-0.16483516483516494 0.33303479142677817 
	-0.16483516483516497 0.3605416941614662 
	-0.16483516483516494 0.38804859712505624 
	-0.16483516483516492 0.41555543561632935 
	-0.16483516483516494 0.44306227409714022 
	-0.16483516483516497 0.47056918937494596 
	-0.16483516483516494 0.49807610440305111 
	-0.16483516483516492 0.52558323726788325 
	-0.16483516483516494 0.55309036964678759 
	-0.16483516483516497 0.58059786025075311 
	-0.16483516483516494 0.60810535013842315 
	-0.16483516483516494 0.63561333756830929 
	-0.16483516483516494 0.66312132406017099 
	0.001 
	cone -13.334999999999994 -36.550600000000003 329.28559999999999 1 0 0 0 0 2.3113999999999999 1 I I 0 1 2.3113999999999999 forward I I I I 
	} 0 0 #
straight-curve $-1 -12.953999999999999 -38.553491133502959 329.28559999999999 2.7886094836266585e-015 0.30376086683763093 0.95274830662565402 F 1.4860696585969847e-029 F 1.9111460685445676 #
point $-1 -12.953999999999994 -38.553491133502959 329.28559999999999 #
pcurve $-1 0 forward { exppc nubs 2 open 14 
	-0.33501557926238357 2 -0.33457936106021902 2 -0.33414314285805446 2 -0.33327070645372531 2 -0.33152583364506705 2 
	-0.32803608802775058 2 -0.3210565967931176 2 -0.30709761432385163 2 -0.27917964938531964 2 -0.22334371950825574 2 
	-0.16750778963119178 2 -0.11167185975412787 2 -0.055835929877063914 2 0 2 
	0.16483516483516494 0.66319118313028835 
	0.16483516483516494 0.66289234784397399 
	0.16483516483516494 0.6627611480811566 
	0.16483516483516494 0.66254613088869541 
	0.16483516483516494 0.66233111369623421 
	0.16483516483516494 0.66190108030535311 
	0.16483516483516494 0.66147104691447201 
	0.16483516483516494 0.66061098409307262 
	0.16483516483516494 0.65975092127167323 
	0.16483516483516494 0.65803081134364827 
	0.16483516483516494 0.65631070141562331 
	0.16483516483516494 0.65287054340475326 
	0.16483516483516494 0.6494303853938832 
	0.16483516483516494 0.642550308630355 
	0.16483516483516494 0.63567023186682692 
	0.16483516483516497 0.62727459705440736 
	0.16483516483516494 0.60815170858746048 
	0.16483516483516494 0.58063625643589512 
	0.16483516483516494 0.55312074999035887 
	0.16483516483516492 0.52560834470524442 
	0.16483516483516494 0.49809590275111054 
	0.16483516483516497 0.47058533392680413 
	0.16483516483516494 0.44307474649080708 
	0.16483516483516494 0.41556479906539401 
	0.16483516483516494 0.3880548513049828 
	0.16483516483516492 0.36054430869793097 
	0.16483516483516494 0.33303378403652106 
	0.001 
	cone -13.334999999999994 -36.550600000000003 329.28559999999999 1 0 0 0 0 2.3113999999999999 1 I I 0 1 2.3113999999999999 forward I I I I 
	} 0 0 #
point $-1 -12.953999999999994 -37.973144701097112 331.10650014866064 #
face $-1 $611 $635 $2 $-1 $636 forward single #
cone-surface $-1 -13.334999999999994 -36.550600000000003 329.28559999999999 1 0 0 0 0 2.3113999999999999 1 I I 0 1 2.3113999999999999 forward I I I I #
point $-1 -13.715999999999994 -37.306226008625188 331.47000000000003 #
ellipse-curve $-1 -12.953999999999994 -36.564208796182697 329.31652475857317 1 0 0 0 -0.7420147485829176 2.153475241427202 1 F 0 F 0.33501557926238357 #
straight-curve $-1 -12.953999999999994 -37.973000000000006 127.92252379087219 -1 9.3247078183740563e-015 0 I I #
plane-surface $-1 -13.334999999999994 -38.417500000000004 127.92252379087219 0 0 1 0 -1 0 forward_v I I I I #
edge $-1 $565 8.2156503822261584e-015 $615 330.83500000000004 $552 $637 forward 7 unknown #
straight-curve $-1 -13.715999999999994 6.0959999999999948 0.63499999999999912 0 1 0 I I #
coedge $-1 $556 $555 $638 $639 forward $557 $-1 #
coedge $-1 $561 $640 $555 $608 forward $614 $-1 #
edge $-1 $641 -2.9364283890364896e-026 $490 0.58049113350278958 $607 $642 forward 7 unknown #
coedge $-1 $643 $633 $556 $610 reversed $635 $644 #
edge $-1 $645 0 $558 0.95285722827569996 $609 $646 forward 7 unknown #
face $-1 $647 $557 $2 $-1 $648 forward single #
point $-1 -12.953999999999994 -37.306223544765615 331.47000000000037 #
coedge $-1 $640 $561 $630 $649 reversed $614 $-1 #
loop $-1 $-1 $640 $647 #
vertex $-1 $604 $650 #
straight-curve $-1 -13.715999999999994 12.699999999999999 331.47000000000003 1 0 4.4758597528194738e-013 I I #
plane-surface $-1 -13.334999999999994 12.699999999999999 166.11599999999999 0 1 0 0 0 1 forward_v I I I I #
point $-1 -13.715999999999994 12.699999999999999 0.63499999999999912 #
straight-curve $-1 -12.953999999999992 -38.553491133502959 127.92252379087219 -5.9397111445807143e-015 -1 0 I I #
straight-curve $-1 -12.953999999999992 -38.553491133502959 329.28559999999999 -5.9397111445807143e-015 -1 0 I I #
face $-1 $587 $574 $2 $-1 $651 forward single #
point $-1 -12.95400000000005 -47.824491133502953 329.28559999999999 #
point $-1 -12.95400000000005 -47.824491133502953 127.92252379087219 #
plane-surface $-1 -13.483789755157229 -38.33221024484277 127.92252379087219 0 0 -1 1 -1.9981516753658544e-015 0 forward_v I I I I #
straight-curve $-1 -12.95400000000005 -47.824491133502946 127.92252379087219 -1 0 0 I I #
plane-surface $-1 -13.335000000000022 -43.188991133502952 127.92252379087219 0 0 1 -5.9952043329758453e-015 -1 0 forward_v I I I I #
straight-curve $-1 -12.95400000000005 -47.824491133502946 329.28559999999999 -1 0 0 I I #
plane-surface $-1 -13.335000000000022 -43.188991133502952 329.28559999999999 0 0 1 -5.9952043329758453e-015 -1 0 forward_v I I I I #
coedge $-1 $652 $590 $653 $654 reversed $631 $-1 #
coedge $-1 $590 $652 $613 $649 forward $631 $-1 #
loop $-1 $-1 $630 $655 #
straight-curve $-1 -13.715999999999994 12.699999999999999 331.47000000000003 0 -1 0 I I #
coedge $-1 $609 $653 $592 $634 forward $635 $656 #
edge $-1 $542 2.1783691997817673e-020 $558 0.76200000000000045 $592 $657 forward 7 unknown #
loop $-1 $-1 $633 $598 #
spline-surface $-1 forward { exactsur full nurbs 3 1 both open open none none 2 2 
	0 3 1 3 
	0 1 1 1 
	-13.716000000000244 -36.550600000000003 332.05049113350282 1 
	-13.716000000000157 -36.802475336208417 331.85699408900189 1 
	-13.716000000000081 -37.054350672416795 331.66349704450096 1 
	-13.715999999999994 -37.306226008625188 331.47000000000003 1 
	-12.954000000000244 -36.550600000000003 332.05049113350316 1 
	-12.954000000000157 -36.802475336208417 331.85699408900223 1 
	-12.954000000000082 -37.054350672416795 331.6634970445013 1 
	-12.953999999999995 -37.306226008625188 331.47000000000037 1 
	0 
	0 
	0 
	0 
	0 
	0 
	0 
	F 1 F 0 F 1 F 0 } I I I I #
straight-curve $-1 -13.715999999999994 12.699999999999999 0.63499999999999091 0 0 1 I I #
coedge $-1 $658 $659 $606 $639 reversed $660 $-1 #
edge $-1 $641 0 $645 49.250600000000006 $638 $661 forward 7 unknown #
coedge $-1 $607 $613 $662 $663 forward $614 $-1 #
vertex $-1 $663 $664 #
straight-curve $-1 -12.954000000000255 12.699999999999999 332.05049113350316 4.4677357427921894e-013 0 -1 I I #
coedge $-1 $653 $609 $665 $666 reversed $635 $667 #
pcurve $-1 0 forward { exppc nurbs 3 open 2 
	-0.95285722827569996 3 0 3 
	1 1 1 
	0.66666666666666663 1 1 
	0.33333333333333331 1 1 
	0 1 1 
	0.001 
	spline forward { ref 12 } I I I I 
	} 0 0 #
vertex $-1 $668 $669 #
straight-curve $-1 -12.954000000000255 -36.550600000000003 332.05049113350316 2.7217883126267018e-013 -0.79300910647585343 -0.60920978081968491 I I #
face $-1 $670 $614 $2 $-1 $671 forward single #
plane-surface $-1 -12.953999999999995 12.699999999999999 331.47000000000037 1 0 4.4764192352886312e-013 -4.4764192352886312e-013 0 1 forward_v I I I I #
edge $-1 $672 -3.0157913184699085e-026 $615 0.58049113350278958 $630 $673 forward 7 unknown #
point $-1 -13.715999999999994 12.699999999999999 331.47000000000003 #
plane-surface $-1 -13.335000000000051 -47.824491133502946 228.60406189543608 -5.9952043329758453e-015 -1 0 0 0 -1 forward_v I I I I #
coedge $-1 $630 $629 $674 $675 reversed $631 $-1 #
coedge $-1 $633 $643 $629 $654 forward $635 $676 #
edge $-1 $677 -1.8372495681229612e-026 $542 0.95285918213877863 $629 $678 forward 7 unknown #
face $-1 $563 $631 $2 $-1 $679 reversed single #
pcurve $-1 0 forward { exppc nurbs 3 open 2 
	2.1783691997817673e-020 3 0.76200000000000045 3 
	1 0 1 
	1 0.33333333333333331 1 
	1 0.66666666666666663 1 
	1 1 1 
	0.001 
	spline forward { ref 12 } I I I I 
	} 0 0 #
straight-curve $-1 -13.715999999999994 -37.306225721165148 331.46999916899671 1 1.398706172756102e-013 7.4597662546992097e-014 I I #
coedge $-1 $680 $638 $681 $682 reversed $660 $-1 #
coedge $-1 $638 $680 $683 $668 forward $660 $-1 #
loop $-1 $-1 $680 $684 #
straight-curve $-1 -12.954000000000292 12.699999999999999 332.05049113350316 0 -1 0 I I #
coedge $-1 $685 $681 $640 $663 reversed $686 $-1 #
edge $-1 $672 0 $641 0.76200000000000045 $662 $687 forward 7 unknown #
point $-1 -12.95400000000032 12.699999999999999 332.05049113350316 #
coedge $-1 $683 $688 $643 $666 forward $689 $-1 #
edge $-1 $677 0 $645 0.76200000000006618 $665 $690 forward 7 unknown #
pcurve $-1 0 forward { exppc nurbs 3 open 2 
	-0.76200000000006618 3 0 3 
	0 1 1 
	0 0.66666666666666663 1 
	0 0.33333333333333331 1 
	0 0 1 
	0.001 
	spline forward { ref 12 } I I I I 
	} 0 0 #
edge $-1 $691 -1.2721158534587713e-026 $645 9.2709999999999582 $683 $692 forward 7 unknown #
point $-1 -12.954000000000255 -36.550600000000003 332.05049113350316 #
face $-1 $693 $686 $2 $-1 $694 reversed single #
plane-surface $-1 -13.483789755157309 12.699999999999999 331.82921024484278 0 1 0 1 0 0 forward_v I I I I #
vertex $-1 $695 $696 #
straight-curve $-1 -13.716000000000253 12.699999999999999 332.05049113350282 4.4677357427921894e-013 0 -1 I I #
coedge $-1 $697 $698 $652 $675 forward $699 $-1 #
edge $-1 $672 0 $677 49.250600000000006 $674 $700 forward 7 unknown #
pcurve $-1 0 forward { exppc nurbs 3 open 2 
	-1.8372495681229612e-026 3 0.95285918213877863 3 
	0 0 1 
	0.33333333333333331 0 1 
	0.66666666666666663 0 1 
	1 0 1 
	0.001 
	spline forward { ref 12 } I I I I 
	} 0 0 #
vertex $-1 $701 $702 #
straight-curve $-1 -13.716000000000253 -36.550600000000003 332.05049113350282 2.7217883126267018e-013 -0.79300910647585343 -0.60920978081968491 I I #
plane-surface $-1 -13.715999999999994 12.699999999999999 331.47000000000003 1 0 4.4764192352886312e-013 -4.4764192352886312e-013 0 1 forward_v I I I I #
coedge $-1 $659 $658 $703 $704 reversed $660 $-1 #
coedge $-1 $662 $705 $658 $682 forward $686 $-1 #
edge $-1 $706 -1.2721158534587713e-026 $641 9.2709999999999582 $681 $707 forward 7 unknown #
coedge $-1 $708 $665 $659 $668 reversed $689 $-1 #
face $-1 $709 $660 $2 $-1 $710 reversed single #
coedge $-1 $705 $662 $698 $695 reversed $686 $-1 #
loop $-1 $-1 $705 $670 #
straight-curve $-1 -13.716000000000321 12.699999999999999 332.05049113350282 1 0 4.4758597528195258e-013 I I #
coedge $-1 $665 $708 $697 $701 forward $689 $-1 #
loop $-1 $-1 $665 $711 #
straight-curve $-1 -13.716000000000321 -36.550600000000003 332.05049113350282 1 0 4.4758597528195258e-013 I I #
vertex $-1 $704 $712 #
straight-curve $-1 -12.954000000004442 -36.550600000000003 341.32149113350312 4.4758597528195491e-013 0 -1 I I #
face $-1 $711 $713 $2 $-1 $714 reversed single #
plane-surface $-1 -13.335000000002424 12.699999999999999 336.68599113350297 0 -1 0 -4.4764192352886312e-013 0 1 forward_v I I I I #
edge $-1 $715 -1.2721158534587713e-026 $672 9.2709999999999582 $698 $716 forward 7 unknown #
point $-1 -13.716000000000321 12.699999999999999 332.05049113350282 #
coedge $-1 $717 $674 $688 $701 reversed $699 $-1 #
coedge $-1 $674 $717 $685 $695 forward $699 $-1 #
loop $-1 $-1 $674 $709 #
straight-curve $-1 -13.716000000000292 12.699999999999999 332.05049113350282 0 -1 0 I I #
edge $-1 $718 -1.2721158534587713e-026 $677 9.2709999999999582 $697 $719 forward 7 unknown #
point $-1 -13.716000000000321 -36.550600000000003 332.05049113350282 #
coedge $-1 $720 $721 $680 $704 forward $713 $-1 #
edge $-1 $691 0 $706 49.250600000000006 $703 $722 forward 7 unknown #
coedge $-1 $681 $685 $720 $723 forward $686 $-1 #
vertex $-1 $682 $724 #
straight-curve $-1 -12.954000000004442 12.699999999999999 341.32149113350312 4.4758597528195491e-013 0 -1 I I #
coedge $-1 $688 $683 $721 $725 reversed $689 $-1 #
face $-1 $655 $699 $2 $-1 $726 forward single #
plane-surface $-1 -12.954000000000235 12.699999999999999 331.92349113350315 -1 0 -4.4764192352886312e-013 -4.4764192352886312e-013 0 1 forward_v I I I I #
face $-1 $684 $689 $2 $-1 $727 forward single #
point $-1 -12.95400000000447 -36.550600000000003 341.32149113350312 #
loop $-1 $-1 $721 $693 #
plane-surface $-1 -13.33500000000447 -11.925300000000004 341.321491133503 4.4764192352886312e-013 0 -1 0 -1 0 forward_v I I I I #
vertex $-1 $695 $728 #
straight-curve $-1 -13.716000000004442 12.699999999999999 341.32149113350278 4.4758597528195491e-013 0 -1 I I #
coedge $-1 $698 $697 $729 $730 forward $699 $-1 #
vertex $-1 $730 $731 #
straight-curve $-1 -13.716000000004442 -36.550600000000003 341.32149113350278 4.4758597528195491e-013 0 -1 I I #
coedge $-1 $729 $703 $705 $723 reversed $713 $-1 #
coedge $-1 $703 $729 $708 $725 forward $713 $-1 #
straight-curve $-1 -12.954000000004442 -36.550600000000003 341.32149113350317 0 1 0 I I #
edge $-1 $715 -2.8421709430429447e-014 $706 0.76199999999997203 $705 $732 forward 7 unknown #
point $-1 -12.95400000000447 12.699999999999999 341.32149113350312 #
edge $-1 $718 -2.5442317069175293e-026 $691 0.76200000000000045 $721 $733 forward 7 unknown #
plane-surface $-1 -13.716000000000236 12.699999999999999 331.92349113350281 -1 0 -4.4764192352886312e-013 -4.4764192352886312e-013 0 1 forward_v I I I I #
plane-surface $-1 -13.335000000002424 -36.550600000000003 336.68599113350297 0 -1 0 -4.4764192352886312e-013 0 1 forward_v I I I I #
point $-1 -13.71600000000447 12.699999999999999 341.32149113350278 #
coedge $-1 $721 $720 $717 $730 reversed $713 $-1 #
edge $-1 $718 0 $715 49.250600000000006 $717 $734 forward 7 unknown #
point $-1 -13.71600000000447 -36.550600000000003 341.32149113350278 #
straight-curve $-1 -13.716000000004442 12.699999999999999 341.32149113350283 1 0 4.4758597528195258e-013 I I #
straight-curve $-1 -13.71600000000447 -36.550600000000003 341.32149113350283 1 0 4.4758597528195258e-013 I I #
straight-curve $-1 -13.716000000004442 -36.550600000000003 341.32149113350283 0 1 0 I I #
End-of-ACIS-data 