600 0 1 0           
104 GICL Pro/E ACIS Translator - Source: f:/data5/repository/PTC/V20/NC_Training_Rel20/DXF/part_34.prt - 6 0 13 ACIS 6.0.3 NT 24 Thu Apr 04 13:13:49 2002 
1 9.9999999999999995e-007 1e-010 
body $-1 $1 $-1 $-1 #
lump $-1 $-1 $2 $0 #
shell $-1 $-1 $-1 $3 $-1 $1 #
face $-1 $4 $5 $2 $-1 $6 forward single #
face $-1 $7 $8 $2 $-1 $9 forward single #
loop $-1 $-1 $10 $3 #
plane-surface $-1 0 0 0 0 0 1 1 0 0 forward_v I I I I #
face $-1 $11 $12 $2 $-1 $13 reversed single #
loop $-1 $-1 $14 $4 #
plane-surface $-1 -23.8125 -6.3499999999293211 -1.5874999999999999 -1 0 0 0 -1 0 forward_v I I I I #
coedge $-1 $15 $16 $17 $18 forward $5 $-1 #
face $-1 $19 $20 $2 $-1 $21 forward single #
loop $-1 $-1 $22 $7 #
spline-surface $-1 forward { exactsur full nurbs 3 1 both open open none none 24 2 
	0 3 0.043478260869565209 2 0.086956521739130446 2 0.13043478260869565 2 0.17391304347826086 2 
	0.21739130434782608 2 0.2608695652173913 2 0.30434782608695654 2 0.34782608695652173 2 0.39130434782608692 2 
	0.43478260869565216 2 0.47826086956521741 2 0.52173913043478259 2 0.56521739130434778 2 0.60869565217391308 2 
	0.65217391304347827 2 0.69565217391304346 2 0.73913043478260865 2 0.78260869565217384 2 0.82608695652173914 2 
	0.86956521739130432 2 0.91304347826086951 2 0.95652173913043481 2 1 3 
	0 1 1 1 
	23.8125 1.4135798584235791e-010 0 1 
	23.812500000097153 1.091065183257464 0 1 
	23.738358971675581 2.1704417621745873 0 1 
	23.442937836329115 4.3154972692523703 0 1 
	23.221657729404221 5.3811761974130299 0 1 
	22.636707034592895 7.4698002838282349 0 1 
	22.273036446706456 8.4927454420827786 0 1 
	21.408872806874058 10.48155011487809 0 1 
	20.908379754928102 11.447409629418859 0 1 
	19.78183391719524 13.299985850172584 0 1 
	19.155781131408336 14.186702556385539 0 1 
	17.787326626708737 15.86853475403557 0 1 
	17.044924907796041 16.663650245472645 0 1 
	15.460185491345587 18.143877766404771 0 1 
	14.617847793807831 18.828989795899819 0 1 
	12.846970807237838 20.078890860886773 0 1 
	11.918431518205599 20.643679896378675 0 1 
	9.9934653325124554 21.641206059177858 0 1 
	8.9970384358515521 22.073943186485142 0 1 
	6.9532888882234571 22.800299591047963 0 1 
	5.9059662372562665 23.093918868303508 0 1 
	3.7816499538125568 23.535338204974654 0 1 
	2.7046563213360377 23.683138264390255 0 1 
	0.54255422961632638 23.830938323805622 0 1 
	-0.54255422962686572 23.830938323805377 0 1 
	-2.7046563213465449 23.683138264389058 0 1 
	-3.7816499538230328 23.535338204972973 0 1 
	-5.905966237266572 23.093918868300879 0 1 
	-6.9532888882336232 22.800299591044869 0 1 
	-8.9970384358613646 22.073943186481145 0 1 
	-9.9934653325220548 21.641206059173435 0 1 
	-11.91843151821478 20.643679896373378 0 1 
	-12.846970807246814 20.078890860881035 0 1 
	-14.617847793816319 18.828989795893239 0 1 
	-15.460185491353787 18.143877766397786 0 1 
	-17.044924907803587 16.663650245464929 0 1 
	-17.78732662671592 15.868534754027523 0 1 
	-19.155781131414763 14.186702556376865 0 1 
	-19.781833917201276 13.299985850163608 0 1 
	-20.9083797549333 11.447409629409346 0 1 
	-21.408872806878811 10.481550114868341 0 1 
	-22.2730364467103 8.4927454420727422 0 1 
	-22.636707034596284 7.469800283818147 0 1 
	-23.221657729406722 5.3811761974020902 0 1 
	-23.442937836331179 4.3154972692406286 0 1 
	-23.738358971676394 2.1704417621657619 0 1 
	-23.812500000097153 1.0910651832523577 0 1 
	-23.8125 1.4135798584292621e-010 0 1 
	23.8125 1.4135798584235791e-010 -3.1749999999999998 1 
	23.812500000097153 1.091065183257464 -3.1749999999999998 1 
	23.738358971675581 2.1704417621745873 -3.1749999999999998 1 
	23.442937836329115 4.3154972692523703 -3.1749999999999998 1 
	23.221657729404221 5.3811761974130299 -3.1749999999999998 1 
	22.636707034592895 7.4698002838282349 -3.1749999999999998 1 
	22.273036446706456 8.4927454420827786 -3.1749999999999998 1 
	21.408872806874058 10.48155011487809 -3.1749999999999998 1 
	20.908379754928102 11.447409629418859 -3.1749999999999998 1 
	19.78183391719524 13.299985850172584 -3.1749999999999998 1 
	19.155781131408336 14.186702556385539 -3.1749999999999998 1 
	17.787326626708737 15.86853475403557 -3.1749999999999998 1 
	17.044924907796041 16.663650245472645 -3.1749999999999998 1 
	15.460185491345587 18.143877766404771 -3.1749999999999998 1 
	14.617847793807831 18.828989795899819 -3.1749999999999998 1 
	12.846970807237838 20.078890860886773 -3.1749999999999998 1 
	11.918431518205599 20.643679896378675 -3.1749999999999998 1 
	9.9934653325124554 21.641206059177858 -3.1749999999999998 1 
	8.9970384358515521 22.073943186485142 -3.1749999999999998 1 
	6.9532888882234571 22.800299591047963 -3.1749999999999998 1 
	5.9059662372562665 23.093918868303508 -3.1749999999999998 1 
	3.7816499538125568 23.535338204974654 -3.1749999999999998 1 
	2.7046563213360377 23.683138264390255 -3.1749999999999998 1 
	0.54255422961632638 23.830938323805622 -3.1749999999999998 1 
	-0.54255422962686572 23.830938323805377 -3.1749999999999998 1 
	-2.7046563213465449 23.683138264389058 -3.1749999999999998 1 
	-3.7816499538230328 23.535338204972973 -3.1749999999999998 1 
	-5.905966237266572 23.093918868300879 -3.1749999999999998 1 
	-6.9532888882336232 22.800299591044869 -3.1749999999999998 1 
	-8.9970384358613646 22.073943186481145 -3.1749999999999998 1 
	-9.9934653325220548 21.641206059173435 -3.1749999999999998 1 
	-11.91843151821478 20.643679896373378 -3.1749999999999998 1 
	-12.846970807246814 20.078890860881035 -3.1749999999999998 1 
	-14.617847793816319 18.828989795893239 -3.1749999999999998 1 
	-15.460185491353787 18.143877766397786 -3.1749999999999998 1 
	-17.044924907803587 16.663650245464929 -3.1749999999999998 1 
	-17.78732662671592 15.868534754027523 -3.1749999999999998 1 
	-19.155781131414763 14.186702556376865 -3.1749999999999998 1 
	-19.781833917201276 13.299985850163608 -3.1749999999999998 1 
	-20.9083797549333 11.447409629409346 -3.1749999999999998 1 
	-21.408872806878811 10.481550114868341 -3.1749999999999998 1 
	-22.2730364467103 8.4927454420727422 -3.1749999999999998 1 
	-22.636707034596284 7.469800283818147 -3.1749999999999998 1 
	-23.221657729406722 5.3811761974020902 -3.1749999999999998 1 
	-23.442937836331179 4.3154972692406286 -3.1749999999999998 1 
	-23.738358971676394 2.1704417621657619 -3.1749999999999998 1 
	-23.812500000097153 1.0910651832523577 -3.1749999999999998 1 
	-23.8125 1.4135798584292621e-010 -3.1749999999999998 1 
	0 
	0 
	0 
	22 0.043478260869565209 0.086956521739130446 0.13043478260869565 0.17391304347826086 0.21739130434782608 0.2608695652173913 0.30434782608695654 0.34782608695652173 0.39130434782608692 0.43478260869565216 0.47826086956521741 0.52173913043478259 0.56521739130434778 0.60869565217391308 0.65217391304347827 0.69565217391304346 0.73913043478260865 0.78260869565217384 0.82608695652173914 0.86956521739130432 0.91304347826086951 0.95652173913043481 
	0 
	0 
	0 
	F 1 F 0 F 1 F 0 } I I I I #
coedge $-1 $23 $17 $24 $25 forward $8 $-1 #
coedge $-1 $26 $10 $27 $28 forward $5 $-1 #
tcoedge-coedge $-1 $10 $26 $29 $30 forward $5 $31 0 0.99999999999999989 #
coedge $-1 $14 $32 $10 $18 reversed $8 $-1 #
edge $-1 $33 5.0544447219043064e-017 $34 12.700000000141358 $10 $35 forward 7 unknown #
face $-1 $36 $37 $2 $-1 $38 forward single #
loop $-1 $-1 $39 $11 #
plane-surface $-1 23.8125 -6.3499999999293211 -1.5874999999999999 1 0 0 0 1 0 forward_v I I I I #
coedge $-1 $40 $29 $41 $42 forward $12 $43 #
coedge $-1 $32 $14 $44 $45 forward $8 $-1 #
coedge $-1 $29 $40 $14 $25 reversed $12 $46 #
edge $-1 $33 0 $47 3.1749999999999998 $24 $48 forward 7 unknown #
coedge $-1 $16 $15 $49 $50 forward $5 $-1 #
coedge $-1 $51 $52 $15 $28 reversed $37 $-1 #
edge $-1 $34 0 $53 47.625 $15 $54 forward 7 unknown #
tcoedge-coedge $-1 $22 $24 $16 $30 reversed $12 $55 -0.99999999999999989 0 #
tedge-edge $-1 $56 0 $33 0.99999999999999989 $16 $57 forward 7 unknown 0.00016954172201572354 #
pcurve $-1 0 forward { exppc nurbs 3 open 24 
	0 3 0.043478544959831653 1 0.086957080773116563 1 0.1304349336210506 1 0.17391379252500902 1 
	0.2173912591925117 1 0.26087014300601663 1 0.30434768357258279 1 0.34782568886865894 1 0.39130382227780613 1 
	0.43478316762498725 1 0.47826165798332099 1 0.52173834201668468 1 0.56521683237501841 1 0.60869617772219953 1 
	0.65217431113134683 1 0.69565231642742309 1 0.73912985699398925 1 0.78260874080749421 1 0.82608620747499695 1 
	0.86956506637895536 1 0.9130429192268894 1 0.95652145504017405 1 0.99999999999999989 3 
	23.8125 1.4135798584235791e-010 1 
	23.812500000097153 1.0910650727139142 1 
	23.664531486973353 3.2498241777674579 1 
	23.000306052180974 6.4468169767162333 1 
	21.909362393934096 9.5157459752762978 1.0000000000000002 
	20.407923887653183 12.413199864562538 1 
	18.529677343916479 15.073484628989203 1 
	16.302576881099249 17.458712456484196 1.0000000000000002 
	13.775484488117131 19.514122761018079 1 
	10.989898007420653 21.208465727451735 1 
	8.0005564815397747 22.506700582844438 1 
	4.8586763091822327 23.387526638591751 0.99999999999999956 
	1.6277486116498476 23.830935745542941 1 
	-1.6277486116603916 23.830935745542217 1.0000000000000002 
	-4.8586763091926697 23.387526638589595 0.99999999999999989 
	-8.0005564815498076 22.506700582840867 1.0000000000000002 
	-10.989898007430037 21.208465727446878 0.99999999999999989 
	-13.775484488125906 19.514122761011901 1.0000000000000002 
	-16.302576881107154 17.45871245647681 1 
	-18.5296773439233 15.073484628980827 1 
	-20.407923887658825 12.413199864553265 0.99999999999999978 
	-21.909362393938391 9.5157459752663112 0.99999999999999989 
	-23.000306052183959 6.4468169767060903 1.0000000000000002 
	-23.664531486974742 3.2498241777551353 0.99999999999999989 
	-23.812500000097153 1.0910650727088742 0.99999999999999989 
	-23.8125 1.4135803638737343e-010 1 
	0 
	plane 0 0 0 0 0 1 1 0 0 forward_v I I I I 
	} 0 0 #
coedge $-1 $17 $23 $51 $58 reversed $8 $-1 #
tvertex-vertex $-1 $30 $59 8.3763397248108217e-016 #
vertex $-1 $28 $60 #
straight-curve $-1 -23.8125 1.4135803638737343e-010 0 0 -1 0 I I #
face $-1 $-1 $61 $2 $-1 $62 reversed single #
loop $-1 $-1 $51 $19 #
plane-surface $-1 0 -12.699999999999999 -1.5874999999999999 0 -1 0 1 0 0 forward_v I I I I #
coedge $-1 $63 $49 $52 $64 forward $20 $-1 #
tcoedge-coedge $-1 $24 $22 $65 $66 forward $12 $67 0 0.99999999999999989 #
coedge $-1 $49 $63 $22 $42 reversed $20 $-1 #
edge $-1 $56 0 $68 3.1749999999999998 $22 $69 forward 7 unknown #
pcurve $-1 0 forward { exppc nurbs 3 open 2 
	0 3 3.1749999999999998 3 
	0 0 1 
	0 0.33333333333333331 1 
	0 0.66666666666666663 1 
	0 1 1 
	0.001 
	spline forward { ref 0 } I I I I 
	} 0 0 #
coedge $-1 $65 $70 $23 $45 reversed $61 $-1 #
edge $-1 $47 5.0544447219043064e-017 $71 12.700000000141358 $23 $72 forward 7 unknown #
pcurve $-1 0 forward { exppc nurbs 3 open 2 
	-3.1749999999999998 3 0 3 
	1 1 1 
	1 0.66666666666666663 1 
	1 0.33333333333333331 1 
	1 0 1 
	0.001 
	spline forward { ref 0 } I I I I 
	} 0 0 #
tvertex-vertex $-1 $25 $73 8.3763397248108217e-016 #
straight-curve $-1 -23.8125 1.4135714820895373e-010 0 0 0 -1 I I #
coedge $-1 $39 $41 $26 $50 reversed $20 $-1 #
edge $-1 $53 0 $56 12.700000000141356 $26 $74 forward 7 unknown #
coedge $-1 $75 $27 $32 $58 forward $37 $-1 #
coedge $-1 $27 $75 $39 $64 reversed $37 $-1 #
vertex $-1 $50 $76 #
straight-curve $-1 -23.8125 -12.699999999999999 0 1 0 0 I I #
pcurve $-1 0 forward { exppc nurbs 3 open 24 
	-0.99999999999999989 3 -0.95652173913043481 1 -0.91304347826086951 1 -0.86956521739130432 1 -0.82608695652173902 1 
	-0.78260869565217384 1 -0.73913043478260843 1 -0.69565217391304324 1 -0.65217391304347805 1 -0.60869565217391286 1 
	-0.56521739130434767 1 -0.52173913043478248 1 -0.47826086956521729 1 -0.43478260869565211 1 -0.39130434782608692 1 
	-0.34782608695652173 1 -0.30434782608695654 1 -0.26086956521739135 1 -0.21739130434782616 1 -0.17391304347826086 1 
	-0.13043478260869568 1 -0.086956521739130488 1 -0.043478260869565188 1 0 3 
	1 0 1 
	0.98550724637681186 0 0.99999999999999989 
	0.95652173913043492 0 1.0000000000000002 
	0.91304347826086951 0 1 
	0.86956521739130399 0 1.0000000000000002 
	0.82608695652173925 0 1 
	0.78260869565217372 0 1.0000000000000002 
	0.73913043478260865 0 1 
	0.69565217391304346 0 1 
	0.65217391304347838 0 0.99999999999999978 
	0.60869565217391308 0 1.0000000000000002 
	0.56521739130434778 0 1 
	0.52173913043478259 0 1.0000000000000002 
	0.47826086956521741 0 1 
	0.43478260869565216 0 1.0000000000000002 
	0.39130434782608681 0 1 
	0.34782608695652173 0 1.0000000000000002 
	0.30434782608695654 0 1.0000000000000002 
	0.26086956521739124 0 0.99999999999999978 
	0.21739130434782608 0 1 
	0.17391304347826086 0 1 
	0.13043478260869565 0 1 
	0.086956521739130446 0 1.0000000000000002 
	0.043478260869565209 0 1 
	0.014492753623188399 0 0.99999999999999989 
	0 0 1 
	0.001 
	spline forward { ref 0 } I I I I 
	} 0 0 #
tvertex-vertex $-1 $30 $77 8.3763340418215195e-016 #
intcurve-curve $-1 forward { exactcur full nurbs 3 open 24 
	0 3 0.043478544959831653 1 0.086957080773116563 1 0.1304349336210506 1 0.17391379252500902 1 
	0.2173912591925117 1 0.26087014300601663 1 0.30434768357258279 1 0.34782568886865894 1 0.39130382227780613 1 
	0.43478316762498725 1 0.47826165798332099 1 0.52173834201668468 1 0.56521683237501841 1 0.60869617772219953 1 
	0.65217431113134683 1 0.69565231642742309 1 0.73912985699398925 1 0.78260874080749421 1 0.82608620747499695 1 
	0.86956506637895536 1 0.9130429192268894 1 0.95652145504017405 1 0.99999999999999989 3 
	23.8125 1.4135798584235791e-010 0 1 
	23.812500000097153 1.0910650727139142 0 1 
	23.664531486973353 3.2498241777674579 0 1 
	23.000306052180974 6.4468169767162333 0 1 
	21.909362393934096 9.5157459752762978 0 1.0000000000000002 
	20.407923887653183 12.413199864562538 0 1 
	18.529677343916479 15.073484628989203 0 1 
	16.302576881099249 17.458712456484196 0 1.0000000000000002 
	13.775484488117131 19.514122761018079 0 1 
	10.989898007420653 21.208465727451735 0 1 
	8.0005564815397747 22.506700582844438 0 1 
	4.8586763091822327 23.387526638591751 0 0.99999999999999956 
	1.6277486116498476 23.830935745542941 0 1 
	-1.6277486116603916 23.830935745542217 0 1.0000000000000002 
	-4.8586763091926697 23.387526638589595 0 0.99999999999999989 
	-8.0005564815498076 22.506700582840867 0 1.0000000000000002 
	-10.989898007430037 21.208465727446878 0 0.99999999999999989 
	-13.775484488125906 19.514122761011901 0 1.0000000000000002 
	-16.302576881107154 17.45871245647681 0 1 
	-18.5296773439233 15.073484628980827 0 1 
	-20.407923887658825 12.413199864553265 0 0.99999999999999978 
	-21.909362393938391 9.5157459752663112 0 0.99999999999999989 
	-23.000306052183959 6.4468169767060903 0 1.0000000000000002 
	-23.664531486974742 3.2498241777551353 0 0.99999999999999989 
	-23.812500000097153 1.0910650727088742 0 0.99999999999999989 
	-23.8125 1.4135803638737343e-010 0 1 
	0 
	null_surface 
	null_surface 
	nullbs 
	nullbs 
	I I 
	0 
	0 
	22 0.043478544959831653 0.086957080773116563 0.1304349336210506 0.17391379252500902 0.2173912591925117 0.26087014300601663 0.30434768357258279 0.34782568886865894 0.39130382227780613 0.43478316762498725 0.47826165798332099 0.52173834201668468 0.56521683237501841 0.60869617772219953 0.65217431113134683 0.69565231642742309 0.73912985699398925 0.78260874080749421 0.82608620747499695 0.86956506637895536 0.9130429192268894 0.95652145504017405 
	F 1 F 0 } I I #
edge $-1 $34 0 $71 3.1749999999999998 $51 $78 forward 7 unknown #
point $-1 -23.8125 1.4135798584292621e-010 0 #
point $-1 -23.8125 -12.699999999999999 0 #
loop $-1 $-1 $79 $36 #
plane-surface $-1 0 0 -3.1749999999999998 0 0 1 1 0 0 forward_v I I I I #
coedge $-1 $41 $39 $79 $80 forward $20 $-1 #
edge $-1 $53 0 $81 3.1749999999999998 $39 $82 forward 7 unknown #
tcoedge-coedge $-1 $79 $44 $40 $66 reversed $61 $83 -0.99999999999999989 0 #
tedge-edge $-1 $68 0 $47 0.99999999999999989 $40 $84 forward 7 unknown 0.00016954172201540528 #
pcurve $-1 0 forward { exppc nurbs 3 open 24 
	0 3 0.043478260869565216 1 0.086956521739130432 1 0.13043478260869565 1 0.17391304347826086 1 
	0.21739130434782611 1 0.26086956521739124 1 0.30434782608695643 1 0.34782608695652162 1 0.39130434782608686 1 
	0.43478260869565205 1 0.47826086956521724 1 0.52173913043478237 1 0.56521739130434756 1 0.60869565217391275 1 
	0.65217391304347794 1 0.69565217391304324 1 0.73913043478260843 1 0.78260869565217384 1 0.82608695652173902 1 
	0.86956521739130432 1 0.91304347826086951 1 0.95652173913043481 1 0.99999999999999989 3 
	0 1 1 
	0.014492753623188399 1 0.99999999999999989 
	0.043478260869565209 1 1 
	0.086956521739130446 1 1.0000000000000002 
	0.13043478260869565 1 1 
	0.17391304347826086 1 1 
	0.21739130434782608 1 1 
	0.26086956521739124 1 0.99999999999999978 
	0.30434782608695654 1 1.0000000000000002 
	0.34782608695652173 1 1.0000000000000002 
	0.39130434782608681 1 1 
	0.43478260869565216 1 1.0000000000000002 
	0.47826086956521741 1 1 
	0.52173913043478259 1 1.0000000000000002 
	0.56521739130434778 1 1 
	0.60869565217391308 1 1.0000000000000002 
	0.65217391304347838 1 0.99999999999999978 
	0.69565217391304346 1 1 
	0.73913043478260865 1 1 
	0.78260869565217372 1 1.0000000000000002 
	0.82608695652173925 1 1 
	0.86956521739130399 1 1.0000000000000002 
	0.91304347826086951 1 1 
	0.95652173913043492 1 1.0000000000000002 
	0.98550724637681186 1 0.99999999999999989 
	1 1 1 
	0.001 
	spline forward { ref 0 } I I I I 
	} 0 0 #
tvertex-vertex $-1 $66 $85 8.3763340418215195e-016 #
straight-curve $-1 23.8125 1.4135714820895373e-010 0 0 0 -1 I I #
coedge $-1 $44 $79 $75 $86 reversed $61 $-1 #
vertex $-1 $86 $87 #
straight-curve $-1 -23.8125 1.4135803638737343e-010 -3.1749999999999998 0 -1 0 I I #
point $-1 -23.8125 1.4135798584292621e-010 -3.1749999999999998 #
straight-curve $-1 23.8125 -12.699999999999999 0 0 1 0 I I #
coedge $-1 $52 $51 $70 $86 forward $37 $-1 #
point $-1 23.8125 -12.699999999999999 0 #
point $-1 23.8125 1.4135798584235791e-010 0 #
straight-curve $-1 -23.8125 -12.699999999999999 0 0 0 -1 I I #
coedge $-1 $70 $65 $63 $80 reversed $61 $-1 #
edge $-1 $81 0 $68 12.700000000141356 $63 $88 forward 7 unknown #
vertex $-1 $80 $89 #
straight-curve $-1 23.8125 -12.699999999999999 0 0 0 -1 I I #
pcurve $-1 0 forward { exppc nurbs 3 open 24 
	-0.99999999999999989 3 -0.95652145504017405 1 -0.9130429192268894 1 -0.86956506637895536 1 -0.82608620747499695 1 
	-0.78260874080749421 1 -0.73912985699398925 1 -0.69565231642742309 1 -0.65217431113134683 1 -0.60869617772219953 1 
	-0.56521683237501841 1 -0.52173834201668468 1 -0.47826165798332099 1 -0.43478316762498725 1 -0.39130382227780613 1 
	-0.34782568886865894 1 -0.30434768357258279 1 -0.26087014300601663 1 -0.2173912591925117 1 -0.17391379252500902 1 
	-0.1304349336210506 1 -0.086957080773116563 1 -0.043478544959831653 1 0 3 
	-23.8125 1.4135803638737343e-010 1 
	-23.812500000097153 1.0910650727088742 0.99999999999999989 
	-23.664531486974742 3.2498241777551353 0.99999999999999989 
	-23.000306052183959 6.4468169767060903 1.0000000000000002 
	-21.909362393938391 9.5157459752663112 0.99999999999999989 
	-20.407923887658825 12.413199864553265 0.99999999999999978 
	-18.5296773439233 15.073484628980827 1 
	-16.302576881107154 17.45871245647681 1 
	-13.775484488125906 19.514122761011901 1.0000000000000002 
	-10.989898007430037 21.208465727446878 0.99999999999999989 
	-8.0005564815498076 22.506700582840867 1.0000000000000002 
	-4.8586763091926697 23.387526638589595 0.99999999999999989 
	-1.6277486116603916 23.830935745542217 1.0000000000000002 
	1.6277486116498476 23.830935745542941 1 
	4.8586763091822327 23.387526638591751 0.99999999999999956 
	8.0005564815397747 22.506700582844438 1 
	10.989898007420653 21.208465727451735 1 
	13.775484488117131 19.514122761018079 1 
	16.302576881099249 17.458712456484196 1.0000000000000002 
	18.529677343916479 15.073484628989203 1 
	20.407923887653183 12.413199864562538 1 
	21.909362393934096 9.5157459752762978 1.0000000000000002 
	23.000306052180974 6.4468169767162333 1 
	23.664531486973353 3.2498241777674579 1 
	23.812500000097153 1.0910650727139142 1 
	23.8125 1.4135798584235791e-010 1 
	0 
	plane 0 0 -3.1749999999999998 0 0 -1 1 0 0 reverse_v I I I I 
	} 0 0 #
intcurve-curve $-1 forward { exactcur full nurbs 3 open 24 
	0 3 0.043478544959831653 1 0.086957080773116563 1 0.1304349336210506 1 0.17391379252500902 1 
	0.2173912591925117 1 0.26087014300601663 1 0.30434768357258279 1 0.34782568886865894 1 0.39130382227780613 1 
	0.43478316762498725 1 0.47826165798332099 1 0.52173834201668468 1 0.56521683237501841 1 0.60869617772219953 1 
	0.65217431113134683 1 0.69565231642742309 1 0.73912985699398925 1 0.78260874080749421 1 0.82608620747499695 1 
	0.86956506637895536 1 0.9130429192268894 1 0.95652145504017405 1 0.99999999999999989 3 
	23.8125 1.4135798584235791e-010 -3.1749999999999998 1 
	23.812500000097153 1.0910650727139142 -3.1749999999999998 1 
	23.664531486973353 3.2498241777674579 -3.1749999999999989 1 
	23.000306052180974 6.4468169767162333 -3.1750000000000003 1 
	21.909362393934096 9.5157459752762978 -3.1749999999999989 1.0000000000000002 
	20.407923887653183 12.413199864562538 -3.1749999999999998 1 
	18.529677343916479 15.073484628989203 -3.1749999999999998 1 
	16.302576881099249 17.458712456484196 -3.1749999999999989 1.0000000000000002 
	13.775484488117131 19.514122761018079 -3.1750000000000003 1 
	10.989898007420653 21.208465727451735 -3.1749999999999998 1 
	8.0005564815397747 22.506700582844438 -3.1750000000000003 1 
	4.8586763091822327 23.387526638591751 -3.1750000000000003 0.99999999999999956 
	1.6277486116498476 23.830935745542941 -3.1749999999999994 1 
	-1.6277486116603916 23.830935745542217 -3.1749999999999994 1.0000000000000002 
	-4.8586763091926697 23.387526638589595 -3.1750000000000003 0.99999999999999989 
	-8.0005564815498076 22.506700582840867 -3.1749999999999989 1.0000000000000002 
	-10.989898007430037 21.208465727446878 -3.1749999999999998 0.99999999999999989 
	-13.775484488125906 19.514122761011901 -3.1749999999999994 1.0000000000000002 
	-16.302576881107154 17.45871245647681 -3.1749999999999998 1 
	-18.5296773439233 15.073484628980827 -3.1750000000000003 1 
	-20.407923887658825 12.413199864553265 -3.1750000000000003 0.99999999999999978 
	-21.909362393938391 9.5157459752663112 -3.1749999999999998 0.99999999999999989 
	-23.000306052183959 6.4468169767060903 -3.1749999999999998 1.0000000000000002 
	-23.664531486974742 3.2498241777551353 -3.1749999999999994 0.99999999999999989 
	-23.812500000097153 1.0910650727088742 -3.1749999999999998 0.99999999999999989 
	-23.8125 1.4135803638737343e-010 -3.1749999999999998 1 
	0 
	null_surface 
	null_surface 
	nullbs 
	nullbs 
	I I 
	0 
	0 
	22 0.043478544959831653 0.086957080773116563 0.1304349336210506 0.17391379252500902 0.2173912591925117 0.26087014300601663 0.30434768357258279 0.34782568886865894 0.39130382227780613 0.43478316762498725 0.47826165798332099 0.52173834201668468 0.56521683237501841 0.60869617772219953 0.65217431113134683 0.69565231642742309 0.73912985699398925 0.78260874080749421 0.82608620747499695 0.86956506637895536 0.9130429192268894 0.95652145504017405 
	F 1 F 0 } I I #
point $-1 23.8125 1.4135798584235791e-010 -3.1749999999999998 #
edge $-1 $71 0 $81 47.625 $75 $90 forward 7 unknown #
point $-1 -23.8125 -12.699999999999999 -3.1749999999999998 #
straight-curve $-1 23.8125 -12.699999999999999 -3.1749999999999998 0 1 0 I I #
point $-1 23.8125 -12.699999999999999 -3.1749999999999998 #
straight-curve $-1 -23.8125 -12.699999999999999 -3.1749999999999998 1 0 0 I I #
End-of-ACIS-data 