600 0 1 0           
101 GICL ACIS Healer - Source: /gicl/data5/repository/PTC/V20/NC_Training_Rel20/DXF/part_31.prt.sat - 6 0 18 ACIS 6.0.3 Solaris 24 Sat Apr 13 20:51:05 2002 
1 9.999999999999999547e-07 1.000000000000000036e-10 
body $-1 $1 $-1 $-1 #
lump $-1 $-1 $2 $0 #
shell $-1 $-1 $-1 $3 $-1 $1 #
face $-1 $4 $5 $2 $-1 $6 reversed single #
face $-1 $7 $8 $2 $-1 $9 forward single #
loop $-1 $-1 $10 $3 #
plane-surface $-1 53.33999999999999631 5.079999999999998295 0 0 -1 0 1 0 0 forward_v I I I I #
face $-1 $11 $12 $2 $-1 $13 reversed single #
loop $-1 $-1 $14 $4 #
plane-surface $-1 78.73999999999999488 2.539999999999999147 31.58490000000000464 1 0 0 0 0 -1 forward_v I I I I #
coedge $-1 $15 $16 $17 $18 forward $5 $-1 #
face $-1 $19 $20 $2 $-1 $21 reversed single #
loop $-1 $-1 $22 $7 #
cone-surface $-1 78.73999999999998067 2.539999999999999147 63.5 0 1 0 0 0 -13.03019999999999357 1 I I 0 1 13.03019999999999357 forward I I I I #
coedge $-1 $23 $17 $24 $25 forward $8 $-1 #
coedge $-1 $26 $10 $27 $28 reversed $5 $-1 #
coedge $-1 $10 $29 $30 $31 reversed $5 $-1 #
coedge $-1 $14 $32 $10 $18 reversed $8 $-1 #
edge $-1 $33 0 $34 37.76980000000000359 $10 $35 forward 7 unknown #
face $-1 $36 $37 $2 $-1 $38 forward single #
loop $-1 $-1 $39 $11 #
plane-surface $-1 66.03999999999999204 2.539999999999999147 63.5 0 0 -1 1 0 0 forward_v I I I I #
coedge $-1 $40 $30 $41 $42 forward $12 $-1 #
coedge $-1 $32 $14 $43 $44 forward $8 $-1 #
coedge $-1 $30 $40 $14 $25 reversed $12 $-1 #
edge $-1 $33 0 $45 5.079999999999998295 $24 $46 forward 7 unknown #
coedge $-1 $47 $15 $48 $49 reversed $5 $-1 #
coedge $-1 $50 $51 $15 $28 forward $52 $-1 #
edge $-1 $53 5.594824691024413793e-16 $34 1.570796326794898556 $15 $54 forward 7 unknown #
coedge $-1 $16 $47 $39 $55 forward $5 $-1 #
coedge $-1 $22 $24 $16 $31 forward $12 $-1 #
edge $-1 $33 0 $56 1.57079632679489789 $16 $57 forward 7 unknown #
coedge $-1 $17 $23 $50 $58 reversed $8 $-1 #
vertex $-1 $31 $59 #
vertex $-1 $28 $60 #
straight-curve $-1 78.73999999999999488 5.079999999999998295 50.46980000000000643 0 0 -1 I I #
face $-1 $61 $62 $2 $-1 $63 reversed single #
loop $-1 $-1 $64 $19 #
plane-surface $-1 52.06999999999999318 2.539999999999999591 63.5 0 0 1 1 0 0 forward_v I I I I #
coedge $-1 $65 $41 $29 $55 reversed $20 $-1 #
coedge $-1 $24 $22 $66 $67 reversed $12 $-1 #
coedge $-1 $39 $68 $22 $42 reversed $20 $-1 #
edge $-1 $56 0 $69 5.079999999999998295 $41 $70 forward 7 unknown #
coedge $-1 $66 $71 $23 $44 reversed $72 $-1 #
edge $-1 $45 0 $73 37.76980000000000359 $43 $74 forward 7 unknown #
vertex $-1 $67 $75 #
straight-curve $-1 78.73999999999999488 5.079999999999998295 50.46980000000000643 0 -1 0 I I #
coedge $-1 $29 $26 $76 $77 forward $5 $-1 #
coedge $-1 $78 $79 $26 $49 forward $80 $-1 #
edge $-1 $81 7.105427357601001859e-15 $53 12.70000000000001705 $26 $82 forward 7 unknown #
coedge $-1 $83 $27 $32 $58 forward $52 $-1 #
coedge $-1 $27 $83 $78 $84 reversed $52 $-1 #
loop $-1 $-1 $50 $85 #
vertex $-1 $49 $86 #
ellipse-curve $-1 78.73999999999998067 5.079999999999998295 8.881784197001252323e-15 0 1 0 -12.69999999999998863 0 -8.881784197001252323e-15 1 I I #
edge $-1 $87 7.105427357601001859e-15 $56 12.36980000000001212 $29 $88 forward 7 unknown #
vertex $-1 $31 $89 #
ellipse-curve $-1 78.73999999999998067 5.079999999999998295 63.5 0 1 0 1.421085471520200372e-14 0 -13.03019999999999357 1 I I #
edge $-1 $34 0 $73 5.079999999999998295 $50 $90 forward 7 unknown #
point $-1 78.73999999999999488 5.079999999999998295 50.46980000000000643 #
point $-1 78.73999999999999488 5.079999999999998295 12.69999999999999929 #
face $-1 $91 $92 $2 $-1 $93 forward single #
loop $-1 $-1 $94 $36 #
plane-surface $-1 25.39999999999999858 2.539999999999999591 63.5 0 0 -1 1 0 0 forward_v I I I I #
coedge $-1 $95 $96 $97 $98 reversed $37 $-1 #
coedge $-1 $68 $39 $99 $100 reversed $20 $-1 #
coedge $-1 $101 $43 $40 $67 forward $72 $-1 #
edge $-1 $45 1.09060910156421311e-15 $69 1.57079632679489789 $66 $102 forward 7 unknown #
coedge $-1 $41 $65 $101 $103 forward $20 $-1 #
vertex $-1 $103 $104 #
straight-curve $-1 65.70980000000000132 5.079999999999998295 63.5 0 -1 0 I I #
coedge $-1 $43 $105 $83 $106 forward $72 $-1 #
loop $-1 $-1 $105 $107 #
vertex $-1 $44 $108 #
straight-curve $-1 78.73999999999999488 0 50.46980000000000643 0 0 -1 I I #
point $-1 78.73999999999998067 4.440892098500626162e-16 50.46980000000000643 #
coedge $-1 $109 $110 $47 $77 reversed $111 $-1 #
edge $-1 $81 0 $87 63.5 $47 $112 forward 7 unknown #
coedge $-1 $113 $48 $51 $84 forward $80 $-1 #
coedge $-1 $48 $113 $114 $115 forward $80 $-1 #
loop $-1 $-1 $113 $116 #
vertex $-1 $77 $117 #
straight-curve $-1 53.3399999999999892 5.079999999999998295 0 1 0 0 I I #
coedge $-1 $51 $50 $71 $106 reversed $52 $-1 #
edge $-1 $53 0 $118 5.079999999999998295 $78 $119 forward 7 unknown #
face $-1 $120 $52 $2 $-1 $121 reversed single #
point $-1 66.04000000000000625 5.079999999999998295 7.105427357601001859e-15 #
vertex $-1 $55 $122 #
straight-curve $-1 53.3399999999999892 5.079999999999998295 63.5 1 0 0 I I #
point $-1 65.70980000000000132 5.079999999999998295 63.5 #
straight-curve $-1 78.73999999999999488 5.079999999999998295 12.70000000000000284 0 -1 0 I I #
face $-1 $123 $124 $2 $-1 $125 forward single #
loop $-1 $-1 $126 $61 #
plane-surface $-1 0 0 0 0 -1 0 1 0 0 forward_v I I I I #
coedge $-1 $97 $127 $126 $128 forward $62 $-1 #
coedge $-1 $99 $64 $129 $130 forward $37 $-1 #
coedge $-1 $64 $99 $110 $131 reversed $37 $-1 #
coedge $-1 $132 $94 $64 $98 forward $62 $-1 #
edge $-1 $133 0 $134 5.079999999999999183 $97 $135 forward 7 unknown #
coedge $-1 $96 $95 $65 $100 forward $37 $-1 #
edge $-1 $136 0 $87 5.079999999999998295 $65 $137 forward 7 unknown #
coedge $-1 $138 $66 $68 $103 reversed $72 $-1 #
ellipse-curve $-1 78.73999999999998067 0 63.5 0 1 0 1.421085471520200372e-14 0 -13.03019999999999357 1 I I #
edge $-1 $136 7.105427357601001859e-15 $69 12.36980000000001212 $101 $139 forward 7 unknown #
point $-1 65.70980000000000132 0 63.5 #
coedge $-1 $71 $138 $113 $140 forward $72 $-1 #
edge $-1 $118 5.594824691024413793e-16 $73 1.570796326794898556 $71 $141 forward 7 unknown #
face $-1 $85 $72 $2 $-1 $142 forward single #
point $-1 78.73999999999999488 0 12.70000000000000284 #
coedge $-1 $143 $76 $144 $145 forward $111 $-1 #
coedge $-1 $76 $143 $96 $131 forward $111 $-1 #
loop $-1 $-1 $109 $146 #
straight-curve $-1 53.33999999999999631 5.079999999999999183 0 0 0 1 I I #
coedge $-1 $79 $78 $105 $140 reversed $80 $-1 #
coedge $-1 $147 $144 $79 $115 reversed $148 $-1 #
edge $-1 $149 0 $81 5.079999999999998295 $79 $150 forward 7 unknown #
face $-1 $107 $80 $2 $-1 $151 forward single #
point $-1 53.33999999999999631 5.079999999999998295 0 #
vertex $-1 $106 $152 #
straight-curve $-1 66.04000000000000625 5.079999999999998295 0 0 -1 0 I I #
face $-1 $-1 $153 $2 $-1 $154 reversed single #
cone-surface $-1 78.74000000000000909 2.539999999999999147 7.105427357601001859e-15 0 1 0 -12.69999999999999929 0 0 1 I I 0 1 12.69999999999999929 forward I I I I #
point $-1 53.33999999999999631 5.079999999999998295 63.5 #
face $-1 $155 $156 $2 $-1 $157 forward single #
loop $-1 $-1 $158 $91 #
plane-surface $-1 14.0842999999999936 2.539999999999999591 54.82545101731167847 -0.5244169365740005695 0 -0.8514616119557831819 -0.8514616119557831819 0 0.5244169365740005695 forward_v I I I I #
coedge $-1 $159 $160 $94 $128 reversed $92 $-1 #
coedge $-1 $94 $132 $161 $162 forward $62 $-1 #
edge $-1 $163 -1.065814103640150279e-14 $133 50.79999999999999716 $126 $164 forward 7 unknown #
coedge $-1 $165 $166 $95 $130 reversed $153 $-1 #
edge $-1 $133 0 $136 2.539999999999999147 $129 $167 forward 7 unknown #
edge $-1 $134 0 $87 2.539999999999999147 $110 $168 forward 7 unknown #
coedge $-1 $127 $97 $169 $170 reversed $62 $-1 #
vertex $-1 $171 $172 #
vertex $-1 $173 $174 #
straight-curve $-1 50.79999999999999716 0 63.5 0 1 0 I I #
vertex $-1 $175 $176 #
straight-curve $-1 53.3399999999999892 0 63.5 0 1 0 I I #
coedge $-1 $105 $101 $166 $175 reversed $72 $-1 #
straight-curve $-1 53.3399999999999892 0 63.5 1 0 0 I I #
edge $-1 $149 7.105427357601001859e-15 $118 12.70000000000001705 $105 $177 forward 7 unknown #
ellipse-curve $-1 78.73999999999998067 0 8.881784197001252323e-15 0 1 0 -12.69999999999998863 0 -8.881784197001252323e-15 1 I I #
plane-surface $-1 53.33999999999999631 0 0 0 -1 0 1 0 0 forward_v I I I I #
coedge $-1 $110 $109 $178 $173 forward $111 $-1 #
coedge $-1 $114 $179 $109 $145 reversed $148 $-1 #
edge $-1 $81 0 $180 2.539999999999999147 $109 $181 forward 7 unknown #
face $-1 $182 $111 $2 $-1 $183 forward single #
coedge $-1 $179 $114 $184 $185 forward $148 $-1 #
loop $-1 $-1 $114 $182 #
vertex $-1 $175 $186 #
straight-curve $-1 53.33999999999999631 0 0 0 1 0 I I #
plane-surface $-1 66.03999999999999204 2.539999999999999147 0 0 0 -1 1 0 0 forward_v I I I I #
point $-1 66.04000000000000625 4.440892098500626162e-16 7.105427357601001859e-15 #
loop $-1 $-1 $129 $120 #
plane-surface $-1 50.79999999999999716 0 0 0 1 0 1 0 0 forward_v I I I I #
face $-1 $187 $188 $2 $-1 $189 forward single #
loop $-1 $-1 $190 $123 #
plane-surface $-1 28.16859999999999786 2.539999999999999591 33.36200203462335878 -1 0 0 0 0 1 forward_v I I I I #
coedge $-1 $191 $192 $193 $194 forward $124 $-1 #
coedge $-1 $195 $126 $191 $196 reversed $92 $-1 #
coedge $-1 $126 $197 $165 $171 forward $92 $-1 #
coedge $-1 $192 $191 $127 $162 reversed $124 $-1 #
edge $-1 $198 0 $163 5.079999999999999183 $127 $199 forward 7 unknown #
vertex $-1 $196 $200 #
straight-curve $-1 0 0 63.5 1 0 0 I I #
coedge $-1 $184 $129 $160 $171 reversed $153 $-1 #
coedge $-1 $129 $184 $138 $175 forward $153 $-1 #
straight-curve $-1 50.79999999999999716 0 63.5 1 0 0 I I #
straight-curve $-1 50.79999999999999716 5.079999999999999183 63.5 1 0 0 I I #
coedge $-1 $178 $201 $132 $170 forward $202 $-1 #
edge $-1 $198 -1.065814103640150279e-14 $134 50.79999999999999716 $169 $203 forward 7 unknown #
edge $-1 $204 0 $133 63.5 $160 $205 forward 7 unknown #
point $-1 50.79999999999999716 0 63.5 #
edge $-1 $180 0 $134 63.5 $178 $206 forward 7 unknown #
point $-1 50.79999999999999716 5.079999999999999183 63.5 #
edge $-1 $149 0 $136 63.5 $138 $207 forward 7 unknown #
point $-1 53.33999999999999631 0 63.5 #
straight-curve $-1 53.3399999999999892 0 0 1 0 0 I I #
coedge $-1 $208 $169 $143 $173 reversed $202 $-1 #
coedge $-1 $144 $147 $209 $210 forward $148 $-1 #
vertex $-1 $211 $212 #
straight-curve $-1 53.33999999999999631 5.079999999999999183 0 -1 0 0 I I #
face $-1 $116 $148 $2 $-1 $213 forward single #
plane-surface $-1 50.79999999999999716 5.079999999999999183 0 0 1 0 1 0 0 forward_v I I I I #
coedge $-1 $166 $165 $147 $185 reversed $153 $-1 #
edge $-1 $149 0 $204 2.539999999999999147 $184 $214 forward 7 unknown #
point $-1 53.33999999999999631 0 0 #
face $-1 $215 $216 $2 $-1 $217 forward single #
loop $-1 $-1 $218 $155 #
plane-surface $-1 14.08429999999999893 2.539999999999999591 10.28655101731168031 -0.5897989579347957534 0 0.8075501156083311205 0.8075501156083311205 0 0.5897989579347957534 forward_v I I I I #
coedge $-1 $219 $220 $221 $222 forward $156 $-1 #
coedge $-1 $161 $158 $159 $196 forward $124 $-1 #
coedge $-1 $158 $161 $201 $223 reversed $124 $-1 #
coedge $-1 $220 $219 $158 $194 reversed $156 $-1 #
edge $-1 $224 0 $225 5.079999999999999183 $158 $226 forward 7 unknown #
coedge $-1 $227 $159 $219 $228 reversed $92 $-1 #
edge $-1 $225 0 $163 33.08264236986272522 $159 $229 forward 7 unknown #
coedge $-1 $160 $227 $230 $231 forward $92 $-1 #
vertex $-1 $170 $232 #
straight-curve $-1 -1.065814103640150279e-14 5.079999999999999183 63.5 0 -1 0 I I #
point $-1 -1.065814103640150279e-14 0 63.5 #
coedge $-1 $169 $233 $192 $223 forward $202 $-1 #
loop $-1 $-1 $233 $215 #
straight-curve $-1 0 5.079999999999999183 63.5 1 0 0 I I #
vertex $-1 $171 $234 #
straight-curve $-1 50.79999999999999716 0 0 0 0 1 I I #
straight-curve $-1 50.79999999999999716 5.079999999999999183 0 0 0 1 I I #
straight-curve $-1 53.33999999999999631 0 0 0 0 1 I I #
coedge $-1 $235 $178 $236 $211 reversed $202 $-1 #
coedge $-1 $230 $236 $179 $210 reversed $216 $-1 #
edge $-1 $204 0 $180 5.079999999999999183 $209 $237 forward 7 unknown #
edge $-1 $238 0 $180 50.79999999999999716 $208 $239 forward 7 unknown #
point $-1 50.79999999999999716 5.079999999999999183 0 #
plane-surface $-1 52.06999999999999318 2.539999999999999591 0 0 0 -1 -1 0 0 forward_v I I I I #
straight-curve $-1 53.33999999999999631 0 0 -1 0 0 I I #
face $-1 $146 $202 $2 $-1 $240 reversed single #
loop $-1 $-1 $236 $187 #
plane-surface $-1 25.39999999999999858 2.539999999999999591 0 0 0 -1 1 0 0 forward_v I I I I #
coedge $-1 $241 $242 $243 $244 forward $188 $-1 #
coedge $-1 $193 $190 $195 $228 forward $156 $-1 #
coedge $-1 $190 $193 $233 $245 reversed $156 $-1 #
coedge $-1 $242 $241 $190 $222 reversed $188 $-1 #
edge $-1 $246 0 $247 5.079999999999999183 $221 $248 forward 7 unknown #
edge $-1 $224 0 $198 33.08264236986272522 $201 $249 forward 7 unknown #
vertex $-1 $223 $250 #
vertex $-1 $228 $251 #
straight-curve $-1 28.16859999999999786 5.079999999999999183 46.15090203462335694 0 -1 0 I I #
coedge $-1 $197 $195 $241 $252 reversed $92 $-1 #
edge $-1 $247 0 $225 25.57779999999999632 $195 $253 forward 7 unknown #
straight-curve $-1 28.16859999999999786 0 46.15090203462335694 -0.8514616119557831819 0 0.5244169365740005695 I I #
coedge $-1 $243 $209 $197 $231 reversed $216 $-1 #
edge $-1 $254 0 $204 50.79999999999999716 $197 $255 forward 7 unknown #
point $-1 -1.065814103640150279e-14 5.079999999999999183 63.5 #
coedge $-1 $201 $235 $220 $245 forward $202 $-1 #
point $-1 50.79999999999999716 0 0 #
coedge $-1 $233 $208 $242 $256 forward $202 $-1 #
coedge $-1 $209 $243 $208 $211 forward $216 $-1 #
straight-curve $-1 50.79999999999999716 0 0 0 1 0 I I #
vertex $-1 $256 $257 #
straight-curve $-1 0 5.079999999999999183 0 1 0 0 I I #
plane-surface $-1 0 5.079999999999999183 0 0 -1 0 1 0 0 forward_v I I I I #
coedge $-1 $221 $218 $227 $252 forward $188 $-1 #
coedge $-1 $218 $221 $235 $256 reversed $188 $-1 #
coedge $-1 $236 $230 $218 $244 reversed $216 $-1 #
edge $-1 $238 0 $254 5.079999999999999183 $243 $258 forward 7 unknown #
edge $-1 $246 0 $224 25.57779999999999632 $233 $259 forward 7 unknown #
vertex $-1 $256 $260 #
vertex $-1 $252 $261 #
straight-curve $-1 28.16859999999999786 5.079999999999999183 20.57310203462336062 0 -1 0 I I #
straight-curve $-1 28.16859999999999786 5.079999999999999183 46.15090203462335694 -0.8514616119557831819 0 0.5244169365740005695 I I #
point $-1 28.16859999999999786 5.079999999999999183 46.15090203462335694 #
point $-1 28.16859999999999786 0 46.15090203462335694 #
edge $-1 $254 0 $247 34.88155032803192057 $227 $262 forward 7 unknown #
straight-curve $-1 28.16859999999999786 0 20.57310203462336062 0 0 1 I I #
vertex $-1 $231 $263 #
straight-curve $-1 0 0 0 1 0 0 I I #
edge $-1 $238 0 $246 34.88155032803192057 $235 $264 forward 7 unknown #
point $-1 0 5.079999999999999183 0 #
straight-curve $-1 0 5.079999999999999183 0 0 -1 0 I I #
straight-curve $-1 28.16859999999999786 5.079999999999999183 20.57310203462336062 0 0 1 I I #
point $-1 28.16859999999999786 5.079999999999999183 20.57310203462336062 #
point $-1 28.16859999999999786 0 20.57310203462336062 #
straight-curve $-1 0 0 0 0.8075501156083311205 0 0.5897989579347957534 I I #
point $-1 0 0 0 #
straight-curve $-1 0 5.079999999999999183 0 0.8075501156083311205 0 0.5897989579347957534 I I #
End-of-ACIS-data 