700 0 2 0           
24 FBMach with ACIS - 7.0.3 13 ACIS 7.0.3 NT 24 Tue May 14 17:19:53 2002 
1 9.9999999999999995e-007 1e-010 
body $2 -1 $-1 $3 $-1 $4 #
bdycol-kcp $-1 -1 1 3 $5 $6 $7 #
model_id-kcp-attrib $-1 -1 $-1 $-1 $0 1 1021411193 1021411193 -904265727 1 #
lump $-1 -1 $-1 $-1 $8 $0 #
transform $-1 -1 1 0 0 0 1 0 0 0 1 0 0 0 1 rotate no_reflect no_shear #
body $9 -1 $-1 $10 $-1 $11 #
body $12 -1 $-1 $13 $-1 $14 #
body $15 -1 $-1 $16 $-1 $17 #
shell $-1 -1 $-1 $-1 $-1 $18 $-1 $3 #
model_id-kcp-attrib $-1 -1 $-1 $-1 $5 1 1021411193 1021411193 -904265726 1 #
lump $-1 -1 $-1 $-1 $19 $5 #
transform $-1 -1 1 0 0 0 1 0 0 0 1 300 -1 200 1 no_rotate no_reflect no_shear #
rgb_color-st-attrib $-1 -1 $20 $-1 $6 0.5 1 1 #
lump $-1 -1 $-1 $21 $22 $6 #
transform $-1 -1 1 0 0 0 1 0 0 0 1 300 -1 200 1 no_rotate no_reflect no_shear #
rgb_color-st-attrib $-1 -1 $23 $-1 $7 0.5 1 1 #
lump $-1 -1 $-1 $-1 $24 $7 #
transform $-1 -1 1 0 0 0 1 0 0 0 1 0 0 0 1 no_rotate no_reflect no_shear #
face $25 -1 $-1 $26 $27 $8 $-1 $28 forward single #
shell $-1 -1 $-1 $-1 $-1 $29 $-1 $10 #
model_id-kcp-attrib $-1 -1 $-1 $12 $6 1 1021411193 1021411193 -895746045 1 #
lump $-1 -1 $-1 $-1 $30 $6 #
shell $-1 -1 $-1 $-1 $-1 $31 $-1 $13 #
model_id-kcp-attrib $-1 -1 $-1 $15 $7 1 1021411193 1021411193 -890437628 1 #
shell $-1 -1 $-1 $-1 $-1 $32 $-1 $16 #
model_id-kcp-attrib $-1 -1 $-1 $-1 $18 1 1021411193 1021411193 -904265727 2 #
face $33 -1 $-1 $34 $35 $8 $-1 $36 forward single #
loop $-1 -1 $-1 $37 $38 $18 #
plane-surface $-1 -1 $-1 600 0 0 0 1 0 -1 0 0 forward_v I I I I #
face $39 -1 $-1 $40 $41 $19 $-1 $42 forward single #
shell $-1 -1 $-1 $-1 $-1 $43 $-1 $21 #
face $-1 -1 $-1 $44 $45 $22 $-1 $46 reversed single #
face $-1 -1 $-1 $47 $48 $24 $-1 $49 forward single #
model_id-kcp-attrib $-1 -1 $-1 $-1 $26 1 1021411193 1021411193 -904265727 3 #
face $50 -1 $-1 $51 $52 $8 $-1 $53 reversed single #
loop $-1 -1 $-1 $-1 $54 $26 #
plane-surface $-1 -1 $-1 300 -1 0 0 0 -1 -1 0 0 forward_v I I I I #
loop $-1 -1 $-1 $-1 $55 $18 #
coedge $-1 -1 $-1 $56 $57 $58 $59 forward $27 $-1 #
model_id-kcp-attrib $-1 -1 $-1 $-1 $29 1 1021411193 1021411193 -904265726 6 #
face $60 -1 $-1 $61 $62 $19 $-1 $63 reversed single #
loop $-1 -1 $-1 $-1 $64 $29 #
plane-surface $-1 -1 $-1 0 0 200 0 0 1 1 0 0 forward_v I I I I #
face $-1 -1 $-1 $65 $66 $30 $-1 $67 reversed single #
face $-1 -1 $-1 $68 $69 $22 $-1 $70 reversed single #
loop $-1 -1 $-1 $-1 $71 $31 #
cone-surface $-1 -1 $-1 -274.99999999999989 1 -174.9999999999998 0 1 0 0 0 -25 1 I I 0 1 25 forward I I I I #
face $-1 -1 $-1 $72 $73 $24 $-1 $74 forward single #
loop $-1 -1 $-1 $-1 $75 $32 #
plane-surface $-1 -1 $-1 400 0 125 0 0 -1 -1 0 0 forward_v I I I I #
model_id-kcp-attrib $-1 -1 $-1 $-1 $34 1 1021411193 1021411193 -904265727 4 #
face $76 -1 $-1 $77 $78 $8 $-1 $79 reversed single #
loop $-1 -1 $-1 $80 $81 $34 #
plane-surface $-1 -1 $-1 600 -2 0 0 1 0 -1 0 0 forward_v I I I I #
coedge $-1 -1 $-1 $82 $83 $84 $85 forward $35 $-1 #
coedge $-1 -1 $-1 $86 $87 $88 $89 forward $37 $-1 #
coedge $-1 -1 $-1 $90 $38 $91 $92 forward $27 $-1 #
coedge $-1 -1 $-1 $38 $93 $94 $95 forward $27 $-1 #
coedge $-1 -1 $-1 $83 $82 $38 $59 reversed $35 $-1 #
edge $96 -1 $-1 $97 -110 $98 425 $38 $99 forward @7 unknown #
model_id-kcp-attrib $-1 -1 $-1 $-1 $40 1 1021411193 1021411193 -904265726 3 #
face $100 -1 $-1 $101 $102 $19 $-1 $103 reversed single #
loop $-1 -1 $-1 $-1 $104 $40 #
plane-surface $-1 -1 $-1 0 0 -200 0 0 1 1 0 0 forward_v I I I I #
coedge $-1 -1 $-1 $105 $106 $107 $108 forward $41 $-1 #
face $-1 -1 $-1 $109 $110 $30 $-1 $111 reversed single #
loop $-1 -1 $-1 $-1 $112 $43 #
plane-surface $-1 -1 $-1 300 0 0 -1 0 0 0 0 1 forward_v I I I I #
face $-1 -1 $-1 $113 $114 $22 $-1 $115 reversed single #
loop $-1 -1 $-1 $-1 $116 $44 #
plane-surface $-1 -1 $-1 0 -1 0 0 1 0 0 0 1 forward_v I I I I #
coedge $-1 -1 $-1 $117 $118 $116 $119 reversed $45 $-1 #
face $-1 -1 $-1 $120 $121 $24 $-1 $122 forward single #
loop $-1 -1 $-1 $-1 $123 $47 #
plane-surface $-1 -1 $-1 200 0 125 -1 0 0 0 0 1 forward_v I I I I #
coedge $-1 -1 $-1 $124 $125 $126 $127 forward $48 $-1 #
model_id-kcp-attrib $-1 -1 $-1 $-1 $51 1 1021411193 1021411193 -904265727 5 #
face $128 -1 $-1 $129 $130 $8 $-1 $131 reversed single #
loop $-1 -1 $-1 $-1 $132 $51 #
plane-surface $-1 -1 $-1 600 -1 200 -1 0 0 0 0 1 forward_v I I I I #
loop $-1 -1 $-1 $-1 $133 $34 #
coedge $-1 -1 $-1 $134 $135 $136 $137 forward $52 $-1 #
coedge $-1 -1 $-1 $58 $54 $138 $139 reversed $35 $-1 #
coedge $-1 -1 $-1 $54 $58 $140 $141 forward $35 $-1 #
coedge $-1 -1 $-1 $135 $142 $54 $85 reversed $52 $-1 #
edge $143 -1 $-1 $144 -110 $145 424.99999999999989 $54 $146 reversed @7 unknown #
coedge $-1 -1 $-1 $147 $55 $148 $149 forward $37 $-1 #
coedge $-1 -1 $-1 $55 $147 $150 $151 forward $37 $-1 #
coedge $-1 -1 $-1 $152 $153 $55 $89 reversed $154 $-1 #
edge $155 -1 $-1 $156 25 $157 175 $55 $158 forward @7 unknown #
coedge $-1 -1 $-1 $159 $56 $160 $161 forward $27 $-1 #
coedge $-1 -1 $-1 $138 $162 $56 $92 reversed $163 $-1 #
edge $164 -1 $-1 $98 3.2957977531409699e-029 $165 1.5707963267948926 $56 $166 forward @7 unknown #
coedge $-1 -1 $-1 $57 $159 $132 $167 reversed $27 $-1 #
coedge $-1 -1 $-1 $168 $140 $57 $95 reversed $169 $-1 #
edge $170 -1 $-1 $171 2.2430352508706613e-008 $97 1.5707963492252492 $57 $172 forward @7 unknown #
attrib_edge_convexity-kcp-attrib $-1 -1 $173 $-1 $59 1 #
vertex $-1 -1 $-1 $95 $174 #
vertex $-1 -1 $-1 $92 $175 #
straight-curve $-1 -1 $-1 450 0 0 -1 0 0 I I #
model_id-kcp-attrib $-1 -1 $-1 $-1 $61 1 1021411193 1021411193 -904265726 4 #
face $176 -1 $-1 $177 $178 $19 $-1 $179 reversed single #
loop $-1 -1 $-1 $-1 $180 $61 #
plane-surface $-1 -1 $-1 0 -1 0 0 1 0 0 0 1 forward_v I I I I #
coedge $-1 -1 $-1 $181 $182 $183 $184 forward $62 $-1 #
coedge $-1 -1 $-1 $185 $64 $186 $187 forward $41 $-1 #
coedge $-1 -1 $-1 $64 $185 $188 $189 forward $41 $-1 #
coedge $-1 -1 $-1 $190 $191 $64 $108 reversed $192 $-1 #
edge $-1 -1 $-1 $193 -1 $194 1 $107 $195 forward @7 unknown #
face $-1 -1 $-1 $196 $197 $30 $-1 $70 reversed single #
loop $-1 -1 $-1 $-1 $198 $65 #
plane-surface $-1 -1 $-1 0 1 0 0 -1 0 0 0 -1 forward_v I I I I #
coedge $-1 -1 $-1 $199 $200 $201 $202 reversed $66 $-1 #
face $-1 -1 $-1 $203 $204 $22 $-1 $205 reversed single #
loop $-1 -1 $-1 $-1 $206 $68 #
plane-surface $-1 -1 $-1 0 0 -200 0 0 1 1 0 0 forward_v I I I I #
coedge $-1 -1 $-1 $207 $208 $71 $119 forward $69 $-1 #
coedge $-1 -1 $-1 $209 $71 $206 $210 forward $45 $-1 #
coedge $-1 -1 $-1 $71 $209 $211 $212 reversed $45 $-1 #
edge $-1 -1 $-1 $213 0 $214 1.5707963267948954 $116 $215 forward @7 unknown #
face $-1 -1 $-1 $216 $217 $24 $-1 $218 forward single #
loop $-1 -1 $-1 $-1 $219 $72 #
plane-surface $-1 -1 $-1 200 0 275 0 0 1 1 0 0 forward_v I I I I #
coedge $-1 -1 $-1 $220 $221 $222 $223 forward $73 $-1 #
coedge $-1 -1 $-1 $224 $75 $221 $225 reversed $48 $-1 #
coedge $-1 -1 $-1 $75 $224 $226 $227 forward $48 $-1 #
coedge $-1 -1 $-1 $228 $222 $75 $127 reversed $229 $-1 #
edge $-1 -1 $-1 $230 50 $231 250 $75 $232 forward @7 unknown #
model_id-kcp-attrib $-1 -1 $-1 $-1 $77 1 1021411193 1021411193 -904265727 6 #
face $233 -1 $-1 $234 $235 $8 $-1 $236 forward single #
loop $-1 -1 $-1 $-1 $237 $77 #
plane-surface $-1 -1 $-1 300 -1 400 0 0 -1 -1 0 0 forward_v I I I I #
coedge $-1 -1 $-1 $238 $239 $93 $167 forward $78 $-1 #
coedge $-1 -1 $-1 $240 $241 $242 $243 reversed $80 $-1 #
coedge $-1 -1 $-1 $244 $81 $245 $246 forward $52 $-1 #
coedge $-1 -1 $-1 $81 $84 $247 $248 reversed $52 $-1 #
coedge $-1 -1 $-1 $239 $238 $81 $137 reversed $78 $-1 #
edge $249 -1 $-1 $250 -60 $251 300 $136 $252 reversed @7 unknown #
coedge $-1 -1 $-1 $253 $91 $82 $139 forward $163 $-1 #
edge $254 -1 $-1 $98 0 $145 2 $138 $255 reversed @7 unknown #
coedge $-1 -1 $-1 $94 $247 $83 $141 reversed $169 $-1 #
edge $256 -1 $-1 $97 0 $144 2 $140 $257 reversed @7 unknown #
coedge $-1 -1 $-1 $84 $244 $253 $258 reversed $52 $-1 #
model_id-kcp-attrib $-1 -1 $259 $-1 $85 1 1021411193 1021411193 -904265727 18 #
vertex $-1 -1 $-1 $141 $260 #
vertex $-1 -1 $-1 $258 $261 #
straight-curve $-1 -1 $-1 450 -2 0 1 0 0 I I #
coedge $-1 -1 $-1 $87 $86 $262 $263 forward $37 $-1 #
coedge $-1 -1 $-1 $264 $265 $86 $149 reversed $266 $-1 #
edge $267 -1 $-1 $157 50 $268 250 $86 $269 forward @7 unknown #
coedge $-1 -1 $-1 $270 $271 $87 $151 reversed $272 $-1 #
edge $273 -1 $-1 $274 -250 $156 -50 $87 $275 forward @7 unknown #
coedge $-1 -1 $-1 $276 $88 $271 $277 forward $154 $-1 #
coedge $-1 -1 $-1 $88 $276 $264 $278 reversed $154 $-1 #
loop $-1 -1 $-1 $-1 $152 $279 #
attrib_edge_convexity-kcp-attrib $-1 -1 $280 $-1 $89 1 #
vertex $-1 -1 $-1 $151 $281 #
vertex $-1 -1 $-1 $149 $282 #
straight-curve $-1 -1 $-1 400 0 100 0 0 1 I I #
coedge $-1 -1 $-1 $93 $90 $283 $284 reversed $27 $-1 #
coedge $-1 -1 $-1 $285 $286 $90 $161 reversed $235 $-1 #
edge $287 -1 $-1 $165 -74.999999999999801 $288 300 $90 $289 forward @7 unknown #
coedge $-1 -1 $-1 $91 $253 $285 $290 reversed $163 $-1 #
loop $-1 -1 $-1 $-1 $138 $234 #
attrib_edge_convexity-kcp-attrib $-1 -1 $291 $-1 $92 1 #
vertex $-1 -1 $-1 $161 $292 #
ellipse-curve $-1 -1 $-1 25.000000000000099 0 25.000000000000206 0 1 0 -9.9475983006413206e-014 0 -25 1 I I #
edge $293 -1 $-1 $171 -60 $294 300 $93 $295 forward @7 unknown #
coedge $-1 -1 $-1 $247 $94 $239 $296 forward $169 $-1 #
loop $-1 -1 $-1 $-1 $168 $297 #
attrib_edge_convexity-kcp-attrib $-1 -1 $298 $-1 $95 1 #
vertex $-1 -1 $-1 $95 $299 #
ellipse-curve $-1 -1 $-1 560 0 40 0 1 0 40 0 8.9721410034826466e-007 1 I I #
convexity-sys-attrib $-1 -1 $-1 $96 $59 #
point $-1 -1 $-1 560 0 -1.4210854715202004e-014 #
point $-1 -1 $-1 25 0 2.0605739337042905e-013 #
model_id-kcp-attrib $-1 -1 $-1 $-1 $101 1 1021411193 1021411193 -904265726 7 #
face $300 -1 $-1 $301 $302 $19 $-1 $303 reversed single #
loop $-1 -1 $-1 $-1 $304 $101 #
plane-surface $-1 -1 $-1 -300 0 0 1 0 0 0 0 -1 forward_v I I I I #
coedge $-1 -1 $-1 $305 $188 $306 $307 forward $102 $-1 #
coedge $-1 -1 $-1 $308 $104 $305 $309 forward $62 $-1 #
coedge $-1 -1 $-1 $104 $308 $310 $311 forward $62 $-1 #
coedge $-1 -1 $-1 $191 $190 $104 $184 reversed $192 $-1 #
edge $-1 -1 $-1 $312 -1 $313 1 $183 $314 forward @7 unknown #
coedge $-1 -1 $-1 $106 $105 $315 $316 forward $41 $-1 #
coedge $-1 -1 $-1 $317 $318 $105 $187 reversed $302 $-1 #
edge $-1 -1 $-1 $194 -300 $319 300 $186 $320 forward @7 unknown #
coedge $-1 -1 $-1 $180 $321 $106 $189 reversed $102 $-1 #
edge $-1 -1 $-1 $322 -300 $193 300 $188 $323 forward @7 unknown #
coedge $-1 -1 $-1 $183 $107 $321 $324 forward $192 $-1 #
coedge $-1 -1 $-1 $107 $183 $317 $325 reversed $192 $-1 #
loop $-1 -1 $-1 $-1 $190 $301 #
vertex $-1 -1 $-1 $108 $326 #
vertex $-1 -1 $-1 $108 $327 #
straight-curve $-1 -1 $-1 300 0 200 0 1 0 I I #
face $-1 -1 $-1 $328 $329 $30 $-1 $115 reversed single #
loop $-1 -1 $-1 $-1 $330 $109 #
coedge $-1 -1 $-1 $331 $332 $333 $334 forward $110 $-1 #
coedge $-1 -1 $-1 $335 $112 $336 $337 forward $66 $-1 #
coedge $-1 -1 $-1 $112 $335 $331 $338 reversed $66 $-1 #
coedge $-1 -1 $-1 $333 $339 $112 $202 forward $340 $-1 #
edge $-1 -1 $-1 $341 -2 $342 0 $112 $343 forward @7 unknown #
face $-1 -1 $-1 $-1 $344 $22 $-1 $111 reversed single #
loop $-1 -1 $-1 $-1 $211 $113 #
plane-surface $-1 -1 $-1 -300 0 0 1 0 0 0 0 -1 forward_v I I I I #
coedge $-1 -1 $-1 $345 $346 $117 $210 reversed $114 $-1 #
coedge $-1 -1 $-1 $208 $116 $347 $348 forward $69 $-1 #
coedge $-1 -1 $-1 $116 $207 $345 $349 reversed $69 $-1 #
coedge $-1 -1 $-1 $118 $117 $350 $351 reversed $45 $-1 #
edge $-1 -1 $-1 $213 -2 $352 0 $206 $353 forward @7 unknown #
coedge $-1 -1 $-1 $354 $347 $118 $212 forward $204 $-1 #
edge $-1 -1 $-1 $214 -2 $355 0 $211 $356 forward @7 unknown #
vertex $-1 -1 $-1 $349 $357 #
vertex $-1 -1 $-1 $348 $358 #
ellipse-curve $-1 -1 $-1 -274.99999999999989 -1 -174.9999999999998 0 1 0 0 0 -25 1 I I #
face $-1 -1 $-1 $359 $229 $24 $-1 $360 reversed single #
loop $-1 -1 $-1 $-1 $361 $120 #
plane-surface $-1 -1 $-1 400 0 275 1 0 0 0 0 -1 forward_v I I I I #
coedge $-1 -1 $-1 $362 $363 $364 $365 forward $121 $-1 #
coedge $-1 -1 $-1 $366 $123 $363 $367 reversed $73 $-1 #
coedge $-1 -1 $-1 $123 $366 $124 $225 forward $73 $-1 #
coedge $-1 -1 $-1 $126 $364 $123 $223 reversed $229 $-1 #
edge $-1 -1 $-1 $231 25 $368 175 $123 $369 forward @7 unknown #
coedge $-1 -1 $-1 $125 $124 $370 $371 forward $48 $-1 #
edge $-1 -1 $-1 $372 0 $231 2 $221 $373 forward @7 unknown #
coedge $-1 -1 $-1 $374 $361 $125 $227 reversed $217 $-1 #
edge $-1 -1 $-1 $375 0 $230 2 $125 $376 forward @7 unknown #
coedge $-1 -1 $-1 $364 $126 $361 $377 reversed $229 $-1 #
loop $-1 -1 $-1 $-1 $126 $216 #
vertex $-1 -1 $-1 $227 $378 #
vertex $-1 -1 $-1 $225 $379 #
straight-curve $-1 -1 $-1 450 -2 125 -1 0 0 I I #
model_id-kcp-attrib $-1 -1 $-1 $-1 $129 1 1021411193 1021411193 -904265727 7 #
face $380 -1 $-1 $297 $163 $8 $-1 $381 forward single #
loop $-1 -1 $-1 $-1 $382 $129 #
plane-surface $-1 -1 $-1 0 -1 200 -1 0 0 0 0 1 forward_v I I I I #
coedge $-1 -1 $-1 $245 $283 $286 $383 forward $130 $-1 #
coedge $-1 -1 $-1 $136 $132 $384 $385 forward $78 $-1 #
coedge $-1 -1 $-1 $132 $136 $168 $296 reversed $78 $-1 #
coedge $-1 -1 $-1 $386 $133 $387 $388 reversed $80 $-1 #
coedge $-1 -1 $-1 $133 $386 $389 $390 reversed $80 $-1 #
coedge $-1 -1 $-1 $391 $392 $133 $243 forward $393 $-1 #
edge $-1 -1 $-1 $394 -175 $395 -25 $133 $396 forward @7 unknown #
coedge $-1 -1 $-1 $142 $134 $382 $397 reversed $52 $-1 #
coedge $-1 -1 $-1 $384 $237 $134 $246 reversed $130 $-1 #
edge $398 -1 $-1 $251 -150 $399 450 $245 $400 reversed @7 unknown #
coedge $-1 -1 $-1 $140 $168 $135 $248 forward $169 $-1 #
edge $-1 -1 $-1 $250 2.2430352508706613e-008 $144 1.5707963492252492 $247 $401 reversed @7 unknown #
model_id-kcp-attrib $-1 -1 $402 $-1 $137 1 1021411193 1021411193 -904265727 17 #
vertex $-1 -1 $-1 $248 $403 #
vertex $-1 -1 $-1 $137 $404 #
straight-curve $-1 -1 $-1 600 -2 100 0 0 -1 I I #
coedge $-1 -1 $-1 $162 $138 $142 $258 forward $163 $-1 #
attrib_edge_convexity-kcp-attrib $-1 -1 $405 $-1 $139 3 #
straight-curve $-1 -1 $-1 25.000000000000099 0 0 0 1 0 I I #
attrib_edge_convexity-kcp-attrib $-1 -1 $406 $-1 $141 3 #
straight-curve $-1 -1 $-1 560 0 0 0 1 0 I I #
edge $-1 -1 $-1 $145 -3.9790393202565283e-015 $407 1.5707963267948923 $253 $408 reversed @7 unknown #
attrib_edge_convexity-kcp-attrib $-1 -1 $409 $143 $85 1 #
point $-1 -1 $-1 560 -2 -1.4210854715202004e-014 #
point $-1 -1 $-1 25.000000000000099 -2 2.0605739337042905e-013 #
coedge $-1 -1 $-1 $392 $391 $147 $263 reversed $393 $-1 #
edge $410 -1 $-1 $268 -175 $274 -25 $147 $411 forward @7 unknown #
coedge $-1 -1 $-1 $387 $148 $153 $278 forward $266 $-1 #
coedge $-1 -1 $-1 $148 $387 $392 $412 reversed $266 $-1 #
loop $-1 -1 $-1 $-1 $264 $413 #
attrib_edge_convexity-kcp-attrib $-1 -1 $414 $-1 $149 1 #
vertex $-1 -1 $-1 $263 $415 #
straight-curve $-1 -1 $-1 450 0 275 -1 0 0 I I #
coedge $-1 -1 $-1 $389 $150 $391 $416 forward $272 $-1 #
coedge $-1 -1 $-1 $150 $389 $152 $277 reversed $272 $-1 #
loop $-1 -1 $-1 $-1 $270 $417 #
attrib_edge_convexity-kcp-attrib $-1 -1 $418 $-1 $151 1 #
vertex $-1 -1 $-1 $151 $419 #
straight-curve $-1 -1 $-1 450 0 125 1 0 0 I I #
coedge $-1 -1 $-1 $153 $152 $386 $420 forward $154 $-1 #
edge $-1 -1 $-1 $156 -1 $421 1 $271 $422 forward @7 unknown #
edge $-1 -1 $-1 $157 -1 $423 1 $264 $424 reversed @7 unknown #
face $425 -1 $-1 $417 $154 $8 $-1 $426 forward single #
convexity-sys-attrib $-1 -1 $-1 $155 $89 #
point $-1 -1 $-1 400 0 125 #
point $-1 -1 $-1 400 0 275 #
coedge $-1 -1 $-1 $237 $384 $159 $284 forward $130 $-1 #
edge $427 -1 $-1 $294 -150 $288 450 $159 $428 forward @7 unknown #
coedge $-1 -1 $-1 $382 $160 $162 $290 forward $235 $-1 #
coedge $-1 -1 $-1 $160 $382 $237 $383 reversed $235 $-1 #
attrib_edge_convexity-kcp-attrib $-1 -1 $429 $-1 $161 1 #
vertex $-1 -1 $-1 $284 $430 #
straight-curve $-1 -1 $-1 0 0 100 0 0 1 I I #
edge $-1 -1 $-1 $165 0 $407 2 $285 $431 reversed @7 unknown #
convexity-sys-attrib $-1 -1 $-1 $164 $92 #
point $-1 -1 $-1 0 0 25.000000000000206 #
attrib_edge_convexity-kcp-attrib $-1 -1 $432 $-1 $167 1 #
vertex $-1 -1 $-1 $167 $433 #
straight-curve $-1 -1 $-1 600 0 100 0 0 1 I I #
edge $434 -1 $-1 $171 0 $250 2 $168 $435 reversed @7 unknown #
face $436 -1 $-1 $437 $169 $8 $-1 $438 forward single #
convexity-sys-attrib $-1 -1 $-1 $170 $95 #
point $-1 -1 $-1 600 0 40 #
model_id-kcp-attrib $-1 -1 $-1 $-1 $177 1 1021411193 1021411193 -904265726 2 #
face $439 -1 $-1 $-1 $192 $19 $-1 $440 reversed single #
loop $-1 -1 $-1 $-1 $317 $177 #
plane-surface $-1 -1 $-1 0 1 0 0 -1 0 0 0 -1 forward_v I I I I #
coedge $-1 -1 $-1 $441 $315 $318 $442 forward $178 $-1 #
coedge $-1 -1 $-1 $321 $180 $181 $309 reversed $102 $-1 #
coedge $-1 -1 $-1 $315 $441 $180 $307 reversed $178 $-1 #
edge $-1 -1 $-1 $322 -200 $443 200 $306 $444 forward @7 unknown #
coedge $-1 -1 $-1 $182 $181 $441 $445 forward $62 $-1 #
edge $-1 -1 $-1 $313 -300 $443 300 $305 $446 forward @7 unknown #
coedge $-1 -1 $-1 $318 $317 $182 $311 reversed $302 $-1 #
edge $-1 -1 $-1 $447 -300 $312 300 $310 $448 forward @7 unknown #
vertex $-1 -1 $-1 $184 $449 #
vertex $-1 -1 $-1 $324 $450 #
straight-curve $-1 -1 $-1 300 0 -200 0 -1 0 I I #
coedge $-1 -1 $-1 $304 $306 $185 $316 reversed $178 $-1 #
edge $-1 -1 $-1 $319 -1 $322 1 $315 $451 forward @7 unknown #
coedge $-1 -1 $-1 $310 $186 $191 $325 forward $302 $-1 #
coedge $-1 -1 $-1 $186 $310 $304 $442 reversed $302 $-1 #
vertex $-1 -1 $-1 $187 $452 #
straight-curve $-1 -1 $-1 0 1 200 -1 0 0 I I #
coedge $-1 -1 $-1 $188 $305 $190 $324 reversed $102 $-1 #
vertex $-1 -1 $-1 $316 $453 #
straight-curve $-1 -1 $-1 0 -1 200 1 0 0 I I #
edge $-1 -1 $-1 $193 -200 $313 200 $190 $454 forward @7 unknown #
edge $-1 -1 $-1 $194 -200 $312 200 $191 $455 forward @7 unknown #
point $-1 -1 $-1 300 -1 200 #
point $-1 -1 $-1 300 1 200 #
face $-1 -1 $-1 $-1 $340 $30 $-1 $456 reversed single #
loop $-1 -1 $-1 $-1 $457 $196 #
coedge $-1 -1 $-1 $458 $336 $339 $459 forward $197 $-1 #
coedge $-1 -1 $-1 $332 $198 $200 $338 forward $110 $-1 #
coedge $-1 -1 $-1 $198 $331 $460 $461 reversed $110 $-1 #
coedge $-1 -1 $-1 $462 $201 $198 $334 reversed $340 $-1 #
edge $-1 -1 $-1 $463 -1.5707963267948966 $342 0 $198 $464 forward @7 unknown #
coedge $-1 -1 $-1 $200 $199 $465 $466 reversed $66 $-1 #
coedge $-1 -1 $-1 $330 $458 $199 $337 reversed $197 $-1 #
edge $-1 -1 $-1 $341 160 $467 200 $199 $468 forward @7 unknown #
edge $-1 -1 $-1 $342 160 $469 200 $200 $470 forward @7 unknown #
coedge $-1 -1 $-1 $201 $462 $330 $459 reversed $340 $-1 #
loop $-1 -1 $-1 $-1 $339 $328 #
vertex $-1 -1 $-1 $337 $471 #
vertex $-1 -1 $-1 $338 $472 #
straight-curve $-1 -1 $-1 300 1 -160 0 1 0 I I #
loop $-1 -1 $-1 $-1 $350 $203 #
coedge $-1 -1 $-1 $473 $206 $208 $349 forward $114 $-1 #
coedge $-1 -1 $-1 $206 $473 $474 $475 forward $114 $-1 #
coedge $-1 -1 $-1 $211 $476 $207 $348 reversed $204 $-1 #
edge $-1 -1 $-1 $214 174.99999999999983 $477 200 $347 $478 forward @7 unknown #
edge $-1 -1 $-1 $213 274.99999999999989 $477 300 $208 $479 forward @7 unknown #
coedge $-1 -1 $-1 $474 $480 $209 $351 forward $344 $-1 #
edge $-1 -1 $-1 $355 -1.5707963267948954 $352 0 $350 $481 forward @7 unknown #
vertex $-1 -1 $-1 $351 $482 #
straight-curve $-1 -1 $-1 -274.99999999999989 1 -200 0 1 0 I I #
coedge $-1 -1 $-1 $476 $211 $480 $483 forward $204 $-1 #
vertex $-1 -1 $-1 $483 $484 #
straight-curve $-1 -1 $-1 -300 1 -174.9999999999998 0 1 0 I I #
point $-1 -1 $-1 -274.99999999999989 -1 -199.9999999999998 #
point $-1 -1 $-1 -299.99999999999989 -1 -174.99999999999983 #
face $-1 -1 $-1 $-1 $485 $24 $-1 $486 forward single #
plane-surface $-1 -1 $-1 300 -2 200 0 1 0 0 0 1 forward_v I I I I #
coedge $-1 -1 $-1 $226 $487 $228 $377 forward $217 $-1 #
coedge $-1 -1 $-1 $488 $219 $487 $489 reversed $121 $-1 #
coedge $-1 -1 $-1 $219 $488 $220 $367 forward $121 $-1 #
coedge $-1 -1 $-1 $222 $228 $219 $365 reversed $229 $-1 #
edge $-1 -1 $-1 $368 -250 $490 -50 $219 $491 forward @7 unknown #
coedge $-1 -1 $-1 $221 $220 $492 $493 forward $73 $-1 #
edge $-1 -1 $-1 $494 0 $368 2 $363 $495 forward @7 unknown #
vertex $-1 -1 $-1 $367 $496 #
straight-curve $-1 -1 $-1 200 -2 100 0 0 1 I I #
coedge $-1 -1 $-1 $492 $497 $224 $371 reversed $485 $-1 #
edge $-1 -1 $-1 $372 -250 $375 -50 $224 $498 forward @7 unknown #
vertex $-1 -1 $-1 $493 $499 #
straight-curve $-1 -1 $-1 200 0 125 0 -1 0 I I #
coedge $-1 -1 $-1 $487 $226 $497 $500 forward $217 $-1 #
vertex $-1 -1 $-1 $500 $501 #
straight-curve $-1 -1 $-1 400 0 125 0 -1 0 I I #
edge $-1 -1 $-1 $490 -175 $230 -25 $361 $502 forward @7 unknown #
point $-1 -1 $-1 400 -2 125 #
point $-1 -1 $-1 200 -2 125 #
model_id-kcp-attrib $-1 -1 $-1 $-1 $234 1 1021411193 1021411193 -904265727 8 #
cone-surface $-1 -1 $-1 25.000000000000099 0 25.000000000000206 0 1 0 -9.9475983006413206e-014 0 -25 1 I I 0 1 25 forward I I I I #
coedge $-1 -1 $-1 $286 $285 $244 $397 forward $235 $-1 #
edge $-1 -1 $-1 $288 -1 $399 1 $237 $503 reversed @7 unknown #
coedge $-1 -1 $-1 $283 $245 $238 $385 reversed $130 $-1 #
edge $504 -1 $-1 $294 -1 $251 1 $238 $505 forward @7 unknown #
coedge $-1 -1 $-1 $241 $240 $276 $420 reversed $80 $-1 #
coedge $-1 -1 $-1 $265 $264 $240 $388 forward $266 $-1 #
edge $-1 -1 $-1 $423 50 $394 250 $240 $506 forward @7 unknown #
coedge $-1 -1 $-1 $271 $270 $241 $390 forward $272 $-1 #
edge $-1 -1 $-1 $395 -250 $421 -50 $241 $507 forward @7 unknown #
coedge $-1 -1 $-1 $262 $242 $270 $416 reversed $393 $-1 #
coedge $-1 -1 $-1 $242 $262 $265 $412 forward $393 $-1 #
loop $-1 -1 $-1 $-1 $392 $437 #
vertex $-1 -1 $-1 $388 $508 #
vertex $-1 -1 $-1 $390 $509 #
straight-curve $-1 -1 $-1 200 -2 100 0 0 -1 I I #
edge $510 -1 $-1 $407 -74.999999999999801 $399 300 $382 $511 reversed @7 unknown #
model_id-kcp-attrib $-1 -1 $-1 $-1 $246 1 1021411193 1021411193 -904265727 16 #
vertex $-1 -1 $-1 $246 $512 #
straight-curve $-1 -1 $-1 450 -2 400 1 0 0 I I #
ellipse-curve $-1 -1 $-1 560 -2 40 0 -1 0 40 0 8.9721410034826466e-007 1 I I #
attrib_edge_convexity-kcp-attrib $-1 -1 $513 $249 $137 1 #
point $-1 -1 $-1 600 -2 40 #
point $-1 -1 $-1 600 -2 400 #
convexity-sys-attrib $-1 -1 $-1 $254 $139 #
convexity-sys-attrib $-1 -1 $-1 $256 $141 #
vertex $-1 -1 $-1 $290 $514 #
ellipse-curve $-1 -1 $-1 25.000000000000099 -2 25.000000000000206 0 -1 0 -9.9475983006413206e-014 0 -25 1 I I #
convexity-sys-attrib $-1 -1 $-1 $259 $85 #
attrib_edge_convexity-kcp-attrib $-1 -1 $515 $-1 $263 1 #
straight-curve $-1 -1 $-1 200 0 100 0 0 -1 I I #
edge $-1 -1 $-1 $268 -1 $394 1 $392 $516 reversed @7 unknown #
face $517 -1 $-1 $279 $266 $8 $-1 $518 forward single #
convexity-sys-attrib $-1 -1 $-1 $267 $149 #
point $-1 -1 $-1 200 0 275 #
edge $-1 -1 $-1 $274 -1 $395 1 $270 $519 reversed @7 unknown #
face $520 -1 $-1 $-1 $272 $8 $-1 $521 forward single #
convexity-sys-attrib $-1 -1 $-1 $273 $151 #
point $-1 -1 $-1 200 0 125 #
edge $-1 -1 $-1 $421 25 $423 175 $386 $522 forward @7 unknown #
vertex $-1 -1 $-1 $390 $523 #
straight-curve $-1 -1 $-1 400 -1 125 0 -1 0 I I #
vertex $-1 -1 $-1 $420 $524 #
straight-curve $-1 -1 $-1 400 -1 275 0 1 0 I I #
model_id-kcp-attrib $-1 -1 $-1 $-1 $279 1 1021411193 1021411193 -904265727 12 #
plane-surface $-1 -1 $-1 400 -1 200 -1 0 0 0 0 1 forward_v I I I I #
attrib_edge_convexity-kcp-attrib $-1 -1 $525 $-1 $284 1 #
straight-curve $-1 -1 $-1 450 0 400 -1 0 0 I I #
convexity-sys-attrib $-1 -1 $-1 $287 $161 #
point $-1 -1 $-1 0 0 400 #
straight-curve $-1 -1 $-1 0 0 25.000000000000206 0 1 0 I I #
convexity-sys-attrib $-1 -1 $-1 $293 $167 #
point $-1 -1 $-1 600 0 400 #
attrib_edge_convexity-kcp-attrib $-1 -1 $526 $-1 $296 3 #
straight-curve $-1 -1 $-1 600 0 40 0 1 0 I I #
model_id-kcp-attrib $-1 -1 $-1 $-1 $297 1 1021411193 1021411193 -904265727 9 #
face $527 -1 $-1 $413 $393 $8 $-1 $528 forward single #
cone-surface $-1 -1 $-1 560 0 40 0 1 0 40 0 8.9721410034826466e-007 1 I I 0 1 40.000000000000014 forward I I I I #
model_id-kcp-attrib $-1 -1 $-1 $-1 $301 1 1021411193 1021411193 -904265726 5 #
plane-surface $-1 -1 $-1 300 0 0 -1 0 0 0 0 1 forward_v I I I I #
coedge $-1 -1 $-1 $306 $304 $308 $445 reversed $178 $-1 #
edge $-1 -1 $-1 $319 -200 $447 200 $318 $529 forward @7 unknown #
vertex $-1 -1 $-1 $445 $530 #
straight-curve $-1 -1 $-1 -300 -1 0 0 0 -1 I I #
edge $-1 -1 $-1 $443 -1 $447 1 $441 $531 forward @7 unknown #
straight-curve $-1 -1 $-1 0 -1 -200 -1 0 0 I I #
vertex $-1 -1 $-1 $311 $532 #
straight-curve $-1 -1 $-1 0 1 -200 1 0 0 I I #
point $-1 -1 $-1 300 1 -200 #
point $-1 -1 $-1 300 -1 -200 #
straight-curve $-1 -1 $-1 -300 0 200 0 -1 0 I I #
point $-1 -1 $-1 -300 1 200 #
point $-1 -1 $-1 -300 -1 200 #
straight-curve $-1 -1 $-1 300 -1 0 0 0 -1 I I #
straight-curve $-1 -1 $-1 300 1 0 0 0 -1 I I #
cone-surface $-1 -1 $-1 260 1 -160 0 1 0 40 0 0 1 I I 0 1 40 forward I I I I #
coedge $-1 -1 $-1 $460 $533 $462 $534 forward $329 $-1 #
coedge $-1 -1 $-1 $336 $330 $533 $535 reversed $197 $-1 #
edge $-1 -1 $-1 $341 0 $536 1.5707963267948966 $330 $537 forward @7 unknown #
coedge $-1 -1 $-1 $465 $457 $332 $461 forward $329 $-1 #
edge $-1 -1 $-1 $463 260 $469 300 $332 $538 forward @7 unknown #
coedge $-1 -1 $-1 $339 $333 $457 $534 reversed $340 $-1 #
vertex $-1 -1 $-1 $461 $539 #
ellipse-curve $-1 -1 $-1 260 1 -160 0 -1 0 40 0 0 1 I I #
coedge $-1 -1 $-1 $533 $460 $335 $466 forward $329 $-1 #
edge $-1 -1 $-1 $469 -1 $467 1 $335 $540 forward @7 unknown #
vertex $-1 -1 $-1 $337 $541 #
straight-curve $-1 -1 $-1 300 -1 0 0 0 -1 I I #
vertex $-1 -1 $-1 $466 $542 #
straight-curve $-1 -1 $-1 300 1 0 0 0 -1 I I #
point $-1 -1 $-1 300 -1 -160 #
point $-1 -1 $-1 300 1 -160 #
coedge $-1 -1 $-1 $346 $345 $476 $543 forward $114 $-1 #
coedge $-1 -1 $-1 $480 $350 $346 $475 reversed $344 $-1 #
edge $-1 -1 $-1 $544 -300 $352 -274.99999999999989 $474 $538 forward @7 unknown #
coedge $-1 -1 $-1 $347 $354 $473 $543 reversed $204 $-1 #
vertex $-1 -1 $-1 $543 $545 #
straight-curve $-1 -1 $-1 -300 -1 0 0 0 -1 I I #
straight-curve $-1 -1 $-1 0 -1 -200 -1 0 0 I I #
coedge $-1 -1 $-1 $350 $474 $354 $483 reversed $344 $-1 #
ellipse-curve $-1 -1 $-1 -274.99999999999989 1 -174.9999999999998 0 -1 0 0 0 -25 1 I I #
point $-1 -1 $-1 -274.99999999999989 1 -199.9999999999998 #
edge $-1 -1 $-1 $355 174.99999999999983 $544 200 $480 $546 forward @7 unknown #
point $-1 -1 $-1 -299.99999999999989 1 -174.99999999999983 #
loop $-1 -1 $-1 $-1 $497 $359 #
plane-surface $-1 -1 $-1 300 0 200 0 1 0 0 0 1 forward_v I I I I #
coedge $-1 -1 $-1 $361 $374 $362 $489 forward $217 $-1 #
coedge $-1 -1 $-1 $363 $362 $547 $548 forward $121 $-1 #
edge $-1 -1 $-1 $549 0 $490 2 $487 $550 forward @7 unknown #
vertex $-1 -1 $-1 $489 $551 #
straight-curve $-1 -1 $-1 450 -2 275 1 0 0 I I #
coedge $-1 -1 $-1 $547 $370 $366 $493 reversed $485 $-1 #
edge $-1 -1 $-1 $494 -175 $372 -25 $366 $552 forward @7 unknown #
vertex $-1 -1 $-1 $548 $553 #
straight-curve $-1 -1 $-1 200 0 275 0 -1 0 I I #
point $-1 -1 $-1 200 -2 275 #
coedge $-1 -1 $-1 $370 $547 $374 $500 reversed $485 $-1 #
straight-curve $-1 -1 $-1 450 0 125 1 0 0 I I #
point $-1 -1 $-1 200 0 125 #
edge $-1 -1 $-1 $375 25 $549 175 $374 $554 forward @7 unknown #
point $-1 -1 $-1 400 0 125 #
straight-curve $-1 -1 $-1 400 -2 100 0 0 -1 I I #
straight-curve $-1 -1 $-1 0 -1 400 0 1 0 I I #
attrib_edge_convexity-kcp-attrib $-1 -1 $555 $-1 $385 1 #
straight-curve $-1 -1 $-1 600 -1 400 0 -1 0 I I #
straight-curve $-1 -1 $-1 450 -2 275 -1 0 0 I I #
straight-curve $-1 -1 $-1 450 -2 125 1 0 0 I I #
point $-1 -1 $-1 200 -2 275 #
point $-1 -1 $-1 200 -2 125 #
model_id-kcp-attrib $-1 -1 $-1 $-1 $397 1 1021411193 1021411193 -904265727 15 #
straight-curve $-1 -1 $-1 0 -2 100 0 0 -1 I I #
point $-1 -1 $-1 0 -2 400 #
convexity-sys-attrib $-1 -1 $-1 $402 $137 #
point $-1 -1 $-1 0 -2 25.000000000000199 #
convexity-sys-attrib $-1 -1 $-1 $410 $263 #
straight-curve $-1 -1 $-1 200 -1 275 0 1 0 I I #
model_id-kcp-attrib $-1 -1 $-1 $-1 $413 1 1021411193 1021411193 -904265727 11 #
plane-surface $-1 -1 $-1 300 -1 275 0 0 -1 -1 0 0 forward_v I I I I #
straight-curve $-1 -1 $-1 200 -1 125 0 1 0 I I #
model_id-kcp-attrib $-1 -1 $-1 $-1 $417 1 1021411193 1021411193 -904265727 13 #
plane-surface $-1 -1 $-1 300 -1 125 0 0 1 1 0 0 forward_v I I I I #
straight-curve $-1 -1 $-1 400 -2 100 0 0 1 I I #
point $-1 -1 $-1 400 -2 125 #
point $-1 -1 $-1 400 -2 275 #
convexity-sys-attrib $-1 -1 $-1 $427 $284 #
convexity-sys-attrib $-1 -1 $-1 $434 $296 #
model_id-kcp-attrib $-1 -1 $-1 $-1 $437 1 1021411193 1021411193 -904265727 10 #
plane-surface $-1 -1 $-1 200 -1 200 1 0 0 0 0 -1 forward_v I I I I #
straight-curve $-1 -1 $-1 -300 1 0 0 0 -1 I I #
point $-1 -1 $-1 -300 -1 -200 #
straight-curve $-1 -1 $-1 -300 0 -200 0 1 0 I I #
point $-1 -1 $-1 -300 1 -200 #
coedge $-1 -1 $-1 $457 $465 $458 $535 forward $329 $-1 #
edge $-1 -1 $-1 $536 -2 $463 0 $457 $556 forward @7 unknown #
edge $-1 -1 $-1 $467 -300 $536 -260 $458 $479 forward @7 unknown #
vertex $-1 -1 $-1 $459 $557 #
ellipse-curve $-1 -1 $-1 260 -1 -160 0 1 0 40 0 0 1 I I #
straight-curve $-1 -1 $-1 0 1 -200 1 0 0 I I #
point $-1 -1 $-1 260 1 -200 #
straight-curve $-1 -1 $-1 300 0 -200 0 -1 0 I I #
point $-1 -1 $-1 300 -1 -200 #
point $-1 -1 $-1 300 1 -200 #
edge $-1 -1 $-1 $477 -1 $544 1 $476 $558 forward @7 unknown #
vertex $-1 -1 $-1 $475 $559 #
point $-1 -1 $-1 -300 -1 -200 #
straight-curve $-1 -1 $-1 -300 1 0 0 0 -1 I I #
coedge $-1 -1 $-1 $497 $492 $488 $548 reversed $485 $-1 #
edge $-1 -1 $-1 $549 50 $494 250 $488 $560 forward @7 unknown #
vertex $-1 -1 $-1 $500 $561 #
straight-curve $-1 -1 $-1 400 0 275 0 -1 0 I I #
point $-1 -1 $-1 400 -2 275 #
straight-curve $-1 -1 $-1 200 0 100 0 0 -1 I I #
point $-1 -1 $-1 200 0 275 #
straight-curve $-1 -1 $-1 400 0 100 0 0 1 I I #
convexity-sys-attrib $-1 -1 $-1 $504 $385 #
straight-curve $-1 -1 $-1 260 1 -200 0 1 0 I I #
point $-1 -1 $-1 260 -1 -200 #
straight-curve $-1 -1 $-1 -300 0 -200 0 1 0 I I #
point $-1 -1 $-1 -300 1 -200 #
straight-curve $-1 -1 $-1 450 0 275 -1 0 0 I I #
point $-1 -1 $-1 400 0 275 #
End-of-ACIS-data 