600 0 1 0           
104 GICL Pro/E ACIS Translator - Source: f:/data5/repository/PTC/V20/NC_Training_Rel20/DXF/part_28.prt - 6 0 13 ACIS 6.0.3 NT 24 Thu Apr 04 13:13:44 2002 
1 9.9999999999999995e-007 1e-010 
body $-1 $1 $-1 $-1 #
lump $-1 $-1 $2 $0 #
shell $-1 $-1 $-1 $3 $-1 $1 #
face $-1 $4 $5 $2 $-1 $6 forward single #
face $-1 $7 $8 $2 $-1 $9 forward single #
loop $-1 $10 $11 $3 #
plane-surface $-1 0 0 0 0 0 1 1 0 0 forward_v I I I I #
face $-1 $12 $13 $2 $-1 $14 forward single #
loop $-1 $-1 $15 $4 #
plane-surface $-1 38.099999999999994 -76.199999999999989 -1.5874999999999999 0 -1 0 1 0 0 forward_v I I I I #
loop $-1 $-1 $16 $3 #
coedge $-1 $17 $18 $19 $20 forward $5 $-1 #
face $-1 $21 $22 $2 $-1 $23 forward single #
loop $-1 $-1 $24 $7 #
plane-surface $-1 0 -38.099999999999994 -1.5874999999999999 -1 0 0 0 -1 0 forward_v I I I I #
coedge $-1 $25 $19 $26 $27 forward $8 $-1 #
coedge $-1 $28 $29 $30 $31 reversed $10 $-1 #
coedge $-1 $32 $11 $33 $34 forward $5 $-1 #
coedge $-1 $11 $32 $35 $36 forward $5 $-1 #
coedge $-1 $15 $37 $11 $20 reversed $8 $-1 #
edge $-1 $38 0 $39 76.199999999999989 $11 $40 forward 7 unknown #
face $-1 $41 $42 $2 $-1 $43 forward single #
loop $-1 $-1 $44 $12 #
plane-surface $-1 38.099999999999994 0 -1.5874999999999999 0 1 0 -1 0 0 forward_v I I I I #
coedge $-1 $45 $35 $46 $47 forward $13 $-1 #
coedge $-1 $37 $15 $48 $49 forward $8 $-1 #
coedge $-1 $35 $45 $15 $27 reversed $13 $-1 #
edge $-1 $38 0 $50 3.1749999999999998 $26 $51 forward 7 unknown #
coedge $-1 $52 $16 $53 $54 reversed $10 $-1 #
coedge $-1 $16 $55 $56 $57 forward $10 $-1 #
coedge $-1 $58 $59 $16 $31 forward $60 $-1 #
edge $-1 $61 0 $62 2.3629541845180602 $16 $63 forward 7 unknown #
coedge $-1 $18 $17 $64 $65 forward $5 $-1 #
coedge $-1 $66 $67 $17 $34 reversed $42 $-1 #
edge $-1 $39 0 $68 76.199999999999989 $17 $69 forward 7 unknown #
coedge $-1 $24 $26 $18 $36 reversed $13 $-1 #
edge $-1 $70 0 $38 76.199999999999989 $18 $71 forward 7 unknown #
coedge $-1 $19 $25 $66 $72 reversed $8 $-1 #
vertex $-1 $36 $73 #
vertex $-1 $34 $74 #
straight-curve $-1 0 -76.199999999999989 0 1 0 0 I I #
face $-1 $75 $76 $2 $-1 $77 reversed single #
loop $-1 $-1 $66 $21 #
plane-surface $-1 76.199999999999989 -38.099999999999994 -1.5874999999999999 1 0 0 0 1 0 forward_v I I I I #
coedge $-1 $78 $64 $67 $79 forward $22 $-1 #
coedge $-1 $26 $24 $80 $81 forward $13 $-1 #
coedge $-1 $64 $78 $24 $47 reversed $22 $-1 #
edge $-1 $70 0 $82 3.1749999999999998 $24 $83 forward 7 unknown #
coedge $-1 $80 $84 $25 $49 reversed $76 $-1 #
edge $-1 $50 0 $85 76.199999999999989 $25 $86 forward 7 unknown #
vertex $-1 $27 $87 #
straight-curve $-1 0 -76.199999999999989 0 0 0 -1 I I #
coedge $-1 $88 $28 $89 $90 forward $10 $-1 #
coedge $-1 $91 $92 $28 $54 forward $93 $-1 #
edge $-1 $94 0 $61 0.42957261867286239 $28 $95 forward 7 unknown #
coedge $-1 $29 $96 $97 $98 reversed $10 $-1 #
coedge $-1 $99 $100 $29 $57 reversed $101 $-1 #
edge $-1 $102 0 $62 27.940000000000079 $29 $103 forward 7 unknown #
coedge $-1 $104 $30 $100 $105 forward $60 $-1 #
coedge $-1 $30 $104 $91 $106 reversed $60 $-1 #
loop $-1 $-1 $58 $107 #
vertex $-1 $54 $108 #
vertex $-1 $57 $109 #
ellipse-curve $-1 55.245000000000012 -33.654999999999994 0 0 0 1 5.7975759583810884 -5.876490279648344 0 1 I I #
coedge $-1 $44 $46 $32 $65 reversed $22 $-1 #
edge $-1 $68 0 $70 76.199999999999989 $32 $110 forward 7 unknown #
coedge $-1 $111 $33 $37 $72 forward $42 $-1 #
coedge $-1 $33 $111 $44 $79 reversed $42 $-1 #
vertex $-1 $65 $112 #
straight-curve $-1 76.199999999999989 -76.199999999999989 0 0 1 0 I I #
vertex $-1 $36 $113 #
straight-curve $-1 0 0 0 0 -1 0 I I #
edge $-1 $39 0 $85 3.1749999999999998 $66 $114 forward 7 unknown #
point $-1 0 -76.199999999999989 0 #
point $-1 76.199999999999989 -76.199999999999989 0 #
face $-1 $115 $116 $2 $-1 $117 reversed single #
loop $-1 $118 $119 $41 #
plane-surface $-1 0 0 -3.1749999999999998 0 0 1 1 0 0 forward_v I I I I #
coedge $-1 $46 $44 $119 $120 forward $22 $-1 #
edge $-1 $68 0 $121 3.1749999999999998 $44 $122 forward 7 unknown #
coedge $-1 $119 $48 $45 $81 reversed $76 $-1 #
edge $-1 $82 0 $50 76.199999999999989 $45 $123 forward 7 unknown #
vertex $-1 $81 $124 #
straight-curve $-1 0 0 0 0 0 -1 I I #
coedge $-1 $48 $119 $111 $125 reversed $76 $-1 #
vertex $-1 $125 $126 #
straight-curve $-1 0 -76.199999999999989 -3.1749999999999998 1 0 0 I I #
point $-1 0 -76.199999999999989 -3.1749999999999998 #
coedge $-1 $96 $52 $127 $128 forward $10 $-1 #
coedge $-1 $129 $130 $52 $90 reversed $131 $-1 #
edge $-1 $94 -2.4301992832368155e-015 $132 16.027786117655651 $52 $133 forward 7 unknown #
coedge $-1 $134 $53 $59 $106 forward $93 $-1 #
coedge $-1 $53 $134 $129 $135 reversed $93 $-1 #
loop $-1 $-1 $91 $136 #
vertex $-1 $90 $137 #
ellipse-curve $-1 43.203880701823849 -21.449981726884037 0 0 0 1 8.6873116404719894 -23.868192567962215 0 1 I I #
coedge $-1 $55 $88 $138 $139 forward $10 $-1 #
coedge $-1 $140 $141 $55 $98 forward $116 $-1 #
edge $-1 $102 0 $142 1.5707963267948952 $55 $143 forward 7 unknown #
coedge $-1 $144 $56 $141 $145 forward $101 $-1 #
coedge $-1 $56 $144 $58 $105 reversed $101 $-1 #
loop $-1 $-1 $99 $146 #
vertex $-1 $57 $147 #
straight-curve $-1 27.304999999999961 -25.399999999999999 0 1 0 0 I I #
coedge $-1 $59 $58 $148 $149 reversed $60 $-1 #
edge $-1 $62 0 $150 3.1749999999999998 $100 $151 forward 7 unknown #
edge $-1 $61 0 $152 3.1749999999999998 $91 $153 forward 7 unknown #
face $-1 $146 $60 $2 $-1 $154 reversed single #
point $-1 61.0425759583811 -39.531490279648338 0 #
point $-1 55.24500000000004 -25.399999999999999 0 #
straight-curve $-1 76.199999999999989 0 0 -1 0 0 I I #
coedge $-1 $67 $66 $84 $125 forward $42 $-1 #
point $-1 76.199999999999989 0 0 #
point $-1 0 0 0 #
straight-curve $-1 76.199999999999989 -76.199999999999989 0 0 0 -1 I I #
face $-1 $155 $156 $2 $-1 $157 forward single #
loop $-1 $-1 $140 $75 #
cone-surface $-1 27.304999999999996 -33.655000000000001 -1.5874999999999999 0 0 1 0 8.254999999999999 0 1 I I 0 1 8.254999999999999 forward I I I I #
loop $-1 $-1 $158 $41 #
coedge $-1 $84 $80 $78 $120 reversed $76 $-1 #
edge $-1 $121 0 $82 76.199999999999989 $78 $159 forward 7 unknown #
vertex $-1 $120 $160 #
straight-curve $-1 76.199999999999989 0 0 0 0 -1 I I #
straight-curve $-1 0 0 -3.1749999999999998 0 -1 0 I I #
point $-1 0 0 -3.1749999999999998 #
edge $-1 $85 0 $121 76.199999999999989 $111 $161 forward 7 unknown #
point $-1 76.199999999999989 -76.199999999999989 -3.1749999999999998 #
coedge $-1 $162 $163 $88 $128 reversed $164 $-1 #
edge $-1 $132 0 $165 17.780000000000001 $88 $166 forward 7 unknown #
coedge $-1 $167 $89 $92 $135 forward $131 $-1 #
coedge $-1 $89 $167 $162 $168 reversed $131 $-1 #
loop $-1 $-1 $129 $169 #
vertex $-1 $128 $170 #
straight-curve $-1 51.891192342295838 -45.318174294846258 0 -0.93969262078590887 -0.34202014332566777 0 I I #
coedge $-1 $92 $91 $171 $172 reversed $93 $-1 #
edge $-1 $94 0 $173 3.1749999999999998 $129 $174 forward 7 unknown #
face $-1 $107 $93 $2 $-1 $175 reversed single #
point $-1 51.891192342295838 -45.318174294846251 0 #
coedge $-1 $176 $177 $96 $139 reversed $156 $-1 #
edge $-1 $165 0 $142 17.14500000000001 $96 $178 forward 7 unknown #
coedge $-1 $179 $97 $177 $180 forward $116 $-1 #
coedge $-1 $97 $179 $99 $145 reversed $116 $-1 #
vertex $-1 $98 $181 #
ellipse-curve $-1 27.304999999999978 -33.65499999999998 0 0 0 1 -1.7763568394002505e-014 8.2549999999999812 0 1 I I #
coedge $-1 $100 $99 $182 $183 forward $101 $-1 #
edge $-1 $102 0 $184 3.1749999999999998 $99 $185 forward 7 unknown #
face $-1 $-1 $101 $2 $-1 $186 forward single #
point $-1 27.304999999999961 -25.399999999999999 0 #
coedge $-1 $182 $171 $104 $149 forward $118 $-1 #
edge $-1 $152 -2.5024608411608095e-015 $150 2.3629541845180602 $148 $187 forward 7 unknown #
vertex $-1 $183 $188 #
straight-curve $-1 55.245000000000005 -25.399999999999999 0 0 0 -1 I I #
vertex $-1 $149 $189 #
straight-curve $-1 61.042575958381086 -39.531490279648352 0 0 0 -1 I I #
cone-surface $-1 55.245000000000005 -33.654999999999994 -1.5874999999999999 0 0 1 5.7975759583810822 -5.8764902796483591 0 1 I I 0 1 8.254999999999999 forward I I I I #
face $-1 $169 $164 $2 $-1 $190 forward single #
loop $-1 $-1 $176 $115 #
plane-surface $-1 19.049999999999997 -42.227499999999992 -1.5874999999999999 1 0 0 0 1 0 forward_v I I I I #
coedge $-1 $191 $182 $179 $192 forward $118 $-1 #
straight-curve $-1 76.199999999999989 0 -3.1749999999999998 -1 0 0 I I #
point $-1 76.199999999999989 0 -3.1749999999999998 #
straight-curve $-1 76.199999999999989 -76.199999999999989 -3.1749999999999998 0 1 0 I I #
coedge $-1 $193 $127 $130 $168 forward $164 $-1 #
coedge $-1 $127 $193 $176 $194 reversed $164 $-1 #
loop $-1 $-1 $162 $155 #
vertex $-1 $139 $195 #
straight-curve $-1 36.829999999999998 -50.799999999999997 0 -1 0 0 I I #
coedge $-1 $130 $129 $196 $197 forward $131 $-1 #
edge $-1 $132 0 $198 3.1749999999999998 $162 $199 forward 7 unknown #
face $-1 $136 $131 $2 $-1 $200 forward single #
point $-1 36.829999999999998 -50.799999999999997 0 #
coedge $-1 $148 $196 $134 $172 forward $118 $-1 #
edge $-1 $173 2.5551167880269668e-015 $152 0.42957261867286162 $171 $201 forward 7 unknown #
vertex $-1 $172 $202 #
straight-curve $-1 51.891192342295902 -45.31817429484623 0 0 0 -1 I I #
cone-surface $-1 43.203880701823337 -21.449981726883337 -1.5874999999999999 0 0 1 8.6873116404722328 -23.868192567961984 0 1 I I 0 1 25.400000000000002 forward I I I I #
coedge $-1 $203 $138 $163 $194 forward $156 $-1 #
coedge $-1 $138 $203 $140 $180 reversed $156 $-1 #
straight-curve $-1 19.049999999999997 -50.799999999999997 0 0 1 0 I I #
coedge $-1 $141 $140 $158 $192 reversed $116 $-1 #
edge $-1 $142 0 $204 3.1749999999999998 $140 $205 forward 7 unknown #
point $-1 19.049999999999997 -33.654999999999987 0 #
coedge $-1 $158 $148 $144 $183 reversed $118 $-1 #
edge $-1 $184 0 $150 27.940000000000079 $182 $206 forward 7 unknown #
vertex $-1 $183 $207 #
straight-curve $-1 27.304999999999996 -25.399999999999999 0 0 0 -1 I I #
plane-surface $-1 41.274999999999999 -25.399999999999999 -1.5874999999999999 0 -1 0 1 0 0 forward_v I I I I #
ellipse-curve $-1 55.245000000000012 -33.654999999999994 -3.1749999999999998 0 0 1 5.7975759583810884 -5.876490279648344 0 1 I I #
point $-1 55.24500000000004 -25.399999999999999 -3.1749999999999998 #
point $-1 61.042575958381086 -39.531490279648352 -3.1749999999999998 #
plane-surface $-1 27.939999999999998 -50.799999999999997 -1.5874999999999999 0 1 0 -1 0 0 forward_v I I I I #
coedge $-1 $208 $158 $203 $209 reversed $118 $-1 #
edge $-1 $184 0 $204 1.5707963267948952 $158 $210 forward 7 unknown #
coedge $-1 $163 $162 $208 $211 forward $164 $-1 #
edge $-1 $165 0 $212 3.1749999999999998 $176 $213 forward 7 unknown #
point $-1 19.049999999999997 -50.799999999999997 0 #
coedge $-1 $171 $208 $167 $197 reversed $118 $-1 #
edge $-1 $173 -6.7063434479476367e-014 $198 16.027786117655648 $196 $214 forward 7 unknown #
vertex $-1 $197 $215 #
straight-curve $-1 36.829999999999998 -50.799999999999997 0 0 0 -1 I I #
plane-surface $-1 44.360596171147947 -48.059087147423114 -1.5874999999999999 -0.34202014332566794 0.93969262078590876 0 -0.93969262078590865 -0.34202014332566788 0 forward_v I I I I #
ellipse-curve $-1 43.203880701823849 -21.449981726884037 -3.1749999999999998 0 0 1 8.6873116404719894 -23.868192567962215 0 1 I I #
point $-1 51.891192342295568 -45.318174294845321 -3.1749999999999998 #
coedge $-1 $177 $176 $191 $209 forward $156 $-1 #
vertex $-1 $209 $216 #
straight-curve $-1 19.049999999999997 -33.654999999999987 0 0 0 -1 I I #
straight-curve $-1 27.304999999999961 -25.399999999999999 -3.1749999999999998 1 0 0 I I #
point $-1 27.304999999999961 -25.399999999999999 -3.1749999999999998 #
coedge $-1 $196 $191 $193 $211 reversed $118 $-1 #
edge $-1 $212 0 $204 17.14500000000001 $191 $217 forward 7 unknown #
ellipse-curve $-1 27.304999999999978 -33.65499999999998 -3.1749999999999998 0 0 1 -1.7763568394002505e-014 8.2549999999999812 0 1 I I #
edge $-1 $198 0 $212 17.780000000000001 $208 $218 forward 7 unknown #
vertex $-1 $211 $219 #
straight-curve $-1 19.049999999999997 -50.799999999999997 0 0 0 -1 I I #
straight-curve $-1 51.891192342295838 -45.318174294846258 -3.1749999999999998 -0.93969262078590887 -0.34202014332566777 0 I I #
point $-1 36.829999999999998 -50.79999999999999 -3.1749999999999998 #
point $-1 19.049999999999997 -33.654999999999987 -3.1749999999999998 #
straight-curve $-1 19.049999999999997 -50.799999999999997 -3.1749999999999998 0 1 0 I I #
straight-curve $-1 36.829999999999998 -50.799999999999997 -3.1749999999999998 -1 0 0 I I #
point $-1 19.049999999999997 -50.799999999999997 -3.1749999999999998 #
End-of-ACIS-data 