600 0 1 0           
104 GICL Pro/E ACIS Translator - Source: f:/data5/repository/PTC/V20/NC_Training_Rel20/DXF/part_27.prt - 6 0 13 ACIS 6.0.3 NT 24 Thu Apr 04 13:13:44 2002 
1 9.9999999999999995e-007 1e-010 
body $-1 $1 $-1 $-1 #
lump $-1 $-1 $2 $0 #
shell $-1 $-1 $-1 $3 $-1 $1 #
face $-1 $4 $5 $2 $-1 $6 reversed single #
face $-1 $7 $8 $2 $-1 $9 forward single #
loop $-1 $-1 $10 $3 #
plane-surface $-1 0 5.0799999999999992 0 0 -1 0 1 0 0 forward_v I I I I #
face $-1 $11 $12 $2 $-1 $13 forward single #
loop $-1 $-1 $14 $4 #
plane-surface $-1 9.9695 2.5399999999999996 10.871200000000002 -0.73701116615086759 0 -0.67588056708928856 -0.67588056708928856 0 0.73701116615086759 forward_v I I I I #
coedge $-1 $15 $16 $17 $18 forward $5 $-1 #
face $-1 $19 $20 $2 $-1 $21 reversed single #
loop $-1 $-1 $22 $7 #
plane-surface $-1 22.669499999999999 2.5399999999999996 12.699999999999999 0.97765911406056782 0 -0.21019670952302205 -0.21019670952302205 0 -0.97765911406056782 forward_v I I I I #
coedge $-1 $23 $17 $24 $25 forward $8 $-1 #
coedge $-1 $26 $10 $27 $28 forward $5 $-1 #
coedge $-1 $10 $26 $29 $30 forward $5 $-1 #
coedge $-1 $14 $31 $10 $18 reversed $8 $-1 #
edge $-1 $32 0 $33 29.500774206111949 $10 $34 forward 7 unknown #
face $-1 $35 $36 $2 $-1 $37 reversed single #
loop $-1 $-1 $38 $11 #
plane-surface $-1 12.699999999999999 2.5399999999999996 25.399999999999999 0 0 -1 1 0 0 forward_v I I I I #
coedge $-1 $39 $29 $40 $41 forward $12 $-1 #
coedge $-1 $31 $14 $42 $43 forward $8 $-1 #
coedge $-1 $29 $39 $14 $25 reversed $12 $-1 #
edge $-1 $32 0 $44 5.0799999999999992 $24 $45 forward 7 unknown #
coedge $-1 $16 $15 $38 $46 forward $5 $-1 #
coedge $-1 $47 $48 $15 $28 reversed $36 $-1 #
edge $-1 $33 0 $49 3.6575999999999951 $15 $50 forward 7 unknown #
coedge $-1 $22 $24 $16 $30 reversed $12 $-1 #
edge $-1 $51 0 $32 25.980425727843645 $16 $52 forward 7 unknown #
coedge $-1 $17 $23 $47 $53 reversed $8 $-1 #
vertex $-1 $30 $54 #
vertex $-1 $28 $55 #
straight-curve $-1 19.939 5.0799999999999992 0 -0.67588056708928856 0 0.73701116615086759 I I #
face $-1 $-1 $56 $2 $-1 $57 forward single #
loop $-1 $-1 $58 $19 #
plane-surface $-1 0 2.5399999999999996 12.699999999999999 1 0 0 0 0 1 forward_v I I I I #
coedge $-1 $59 $40 $26 $46 reversed $20 $-1 #
coedge $-1 $24 $22 $60 $61 forward $12 $-1 #
coedge $-1 $38 $62 $22 $41 reversed $20 $-1 #
edge $-1 $51 0 $63 5.0799999999999992 $40 $64 forward 7 unknown #
coedge $-1 $60 $65 $23 $43 reversed $56 $-1 #
edge $-1 $44 0 $66 29.500774206111949 $42 $67 forward 7 unknown #
vertex $-1 $61 $68 #
straight-curve $-1 19.939 5.0799999999999992 0 0 -1 0 I I #
edge $-1 $49 0 $51 25.399999999999999 $26 $69 forward 7 unknown #
coedge $-1 $58 $27 $31 $53 forward $36 $-1 #
coedge $-1 $27 $58 $59 $70 forward $36 $-1 #
vertex $-1 $46 $71 #
straight-curve $-1 0 5.0799999999999992 21.742400000000004 0 0 1 I I #
vertex $-1 $30 $72 #
straight-curve $-1 25.399999999999999 5.0799999999999992 25.399999999999999 -0.21019670952302205 0 -0.97765911406056782 I I #
edge $-1 $33 0 $66 5.0799999999999992 $47 $73 forward 7 unknown #
point $-1 19.939 5.0799999999999992 0 #
point $-1 0 5.0799999999999992 21.742400000000004 #
loop $-1 $-1 $74 $35 #
plane-surface $-1 0 0 0 0 -1 0 1 0 0 forward_v I I I I #
coedge $-1 $48 $47 $65 $75 forward $36 $-1 #
coedge $-1 $62 $38 $48 $70 reversed $20 $-1 #
coedge $-1 $74 $42 $39 $61 reversed $56 $-1 #
edge $-1 $63 0 $44 25.980425727843645 $60 $76 forward 7 unknown #
coedge $-1 $40 $59 $74 $77 forward $20 $-1 #
vertex $-1 $61 $78 #
straight-curve $-1 25.399999999999999 5.0799999999999992 25.399999999999999 0 -1 0 I I #
coedge $-1 $42 $74 $58 $75 reversed $56 $-1 #
vertex $-1 $43 $79 #
straight-curve $-1 19.939 0 0 -0.67588056708928856 0 0.73701116615086759 I I #
point $-1 19.939 0 0 #
straight-curve $-1 0 5.0799999999999992 25.399999999999999 1 0 0 I I #
edge $-1 $80 0 $49 5.0799999999999992 $59 $81 forward 7 unknown #
point $-1 0 5.0799999999999992 25.399999999999999 #
point $-1 25.399999999999999 5.0799999999999992 25.399999999999999 #
straight-curve $-1 0 5.0799999999999992 21.742400000000004 0 -1 0 I I #
coedge $-1 $65 $60 $62 $77 reversed $56 $-1 #
edge $-1 $66 0 $80 3.6575999999999951 $65 $82 forward 7 unknown #
straight-curve $-1 25.399999999999999 0 25.399999999999999 -0.21019670952302205 0 -0.97765911406056782 I I #
edge $-1 $80 0 $63 25.399999999999999 $74 $83 forward 7 unknown #
point $-1 25.399999999999999 0 25.399999999999999 #
point $-1 0 0 21.742400000000004 #
vertex $-1 $75 $84 #
straight-curve $-1 0 0 25.399999999999999 0 1 0 I I #
straight-curve $-1 0 0 21.742400000000004 0 0 1 I I #
straight-curve $-1 0 0 25.399999999999999 1 0 0 I I #
point $-1 0 0 25.399999999999999 #
End-of-ACIS-data 