600 0 1 0           
101 GICL ACIS Healer - Source: /gicl/data5/repository/PTC/V20/NC_Training_Rel20/DXF/part_28.prt.sat - 6 0 18 ACIS 6.0.3 Solaris 24 Sat Apr 13 20:50:52 2002 
1 9.999999999999999547e-07 1.000000000000000036e-10 
body $-1 $1 $-1 $-1 #
lump $-1 $-1 $2 $0 #
shell $-1 $-1 $-1 $3 $-1 $1 #
face $-1 $4 $5 $2 $-1 $6 forward single #
face $-1 $7 $8 $2 $-1 $9 forward single #
loop $-1 $10 $11 $3 #
plane-surface $-1 0 0 0 0 0 1 1 0 0 forward_v I I I I #
face $-1 $12 $13 $2 $-1 $14 forward single #
loop $-1 $-1 $15 $4 #
plane-surface $-1 38.09999999999999432 -76.19999999999998863 -1.587499999999999911 0 -1 0 1 0 0 forward_v I I I I #
loop $-1 $-1 $16 $3 #
coedge $-1 $17 $18 $19 $20 forward $5 $-1 #
face $-1 $21 $22 $2 $-1 $23 forward single #
loop $-1 $-1 $24 $7 #
plane-surface $-1 0 -38.09999999999999432 -1.587499999999999911 -1 0 0 0 -1 0 forward_v I I I I #
coedge $-1 $25 $19 $26 $27 forward $8 $-1 #
coedge $-1 $28 $29 $30 $31 reversed $10 $-1 #
coedge $-1 $32 $11 $33 $34 forward $5 $-1 #
coedge $-1 $11 $32 $35 $36 forward $5 $-1 #
coedge $-1 $15 $37 $11 $20 reversed $8 $-1 #
edge $-1 $38 0 $39 76.19999999999998863 $11 $40 forward 7 unknown #
face $-1 $41 $42 $2 $-1 $43 forward single #
loop $-1 $-1 $44 $12 #
plane-surface $-1 38.09999999999999432 0 -1.587499999999999911 0 1 0 -1 0 0 forward_v I I I I #
coedge $-1 $45 $35 $46 $47 forward $13 $-1 #
coedge $-1 $37 $15 $48 $49 forward $8 $-1 #
coedge $-1 $35 $45 $15 $27 reversed $13 $-1 #
edge $-1 $38 0 $50 3.174999999999999822 $26 $51 forward 7 unknown #
coedge $-1 $52 $16 $53 $54 reversed $10 $-1 #
coedge $-1 $16 $55 $56 $57 forward $10 $-1 #
coedge $-1 $58 $59 $16 $31 forward $60 $-1 #
edge $-1 $61 0 $62 2.362954184518060163 $16 $63 forward 7 unknown #
coedge $-1 $18 $17 $64 $65 forward $5 $-1 #
coedge $-1 $66 $67 $17 $34 reversed $42 $-1 #
edge $-1 $39 0 $68 76.19999999999998863 $17 $69 forward 7 unknown #
coedge $-1 $24 $26 $18 $36 reversed $13 $-1 #
edge $-1 $70 0 $38 76.19999999999998863 $18 $71 forward 7 unknown #
coedge $-1 $19 $25 $66 $72 reversed $8 $-1 #
vertex $-1 $36 $73 #
vertex $-1 $34 $74 #
straight-curve $-1 0 -76.19999999999998863 0 1 0 0 I I #
face $-1 $75 $76 $2 $-1 $77 reversed single #
loop $-1 $-1 $66 $21 #
plane-surface $-1 76.19999999999998863 -38.09999999999999432 -1.587499999999999911 1 0 0 0 1 0 forward_v I I I I #
coedge $-1 $78 $64 $67 $79 forward $22 $-1 #
coedge $-1 $26 $24 $80 $81 forward $13 $-1 #
coedge $-1 $64 $78 $24 $47 reversed $22 $-1 #
edge $-1 $70 0 $82 3.174999999999999822 $24 $83 forward 7 unknown #
coedge $-1 $80 $84 $25 $49 reversed $76 $-1 #
edge $-1 $50 0 $85 76.19999999999998863 $25 $86 forward 7 unknown #
vertex $-1 $27 $87 #
straight-curve $-1 0 -76.19999999999998863 0 0 0 -1 I I #
coedge $-1 $88 $28 $89 $90 forward $10 $-1 #
coedge $-1 $91 $92 $28 $54 forward $93 $-1 #
edge $-1 $94 0 $61 0.4295726186728623941 $28 $95 forward 7 unknown #
coedge $-1 $29 $96 $97 $98 reversed $10 $-1 #
coedge $-1 $99 $100 $29 $57 reversed $101 $-1 #
edge $-1 $102 0 $62 27.94000000000007944 $29 $103 forward 7 unknown #
coedge $-1 $104 $30 $100 $105 forward $60 $-1 #
coedge $-1 $30 $104 $91 $106 reversed $60 $-1 #
loop $-1 $-1 $58 $107 #
vertex $-1 $54 $108 #
vertex $-1 $57 $109 #
ellipse-curve $-1 55.24500000000001165 -33.65499999999999403 0 0 0 1 5.797575958381088412 -5.876490279648344028 0 1 I I #
coedge $-1 $44 $46 $32 $65 reversed $22 $-1 #
edge $-1 $68 0 $70 76.19999999999998863 $32 $110 forward 7 unknown #
coedge $-1 $111 $33 $37 $72 forward $42 $-1 #
coedge $-1 $33 $111 $44 $79 reversed $42 $-1 #
vertex $-1 $65 $112 #
straight-curve $-1 76.19999999999998863 -76.19999999999998863 0 0 1 0 I I #
vertex $-1 $36 $113 #
straight-curve $-1 0 0 0 0 -1 0 I I #
edge $-1 $39 0 $85 3.174999999999999822 $66 $114 forward 7 unknown #
point $-1 0 -76.19999999999998863 0 #
point $-1 76.19999999999998863 -76.19999999999998863 0 #
face $-1 $115 $116 $2 $-1 $117 reversed single #
loop $-1 $118 $119 $41 #
plane-surface $-1 0 0 -3.174999999999999822 0 0 1 1 0 0 forward_v I I I I #
coedge $-1 $46 $44 $119 $120 forward $22 $-1 #
edge $-1 $68 0 $121 3.174999999999999822 $44 $122 forward 7 unknown #
coedge $-1 $119 $48 $45 $81 reversed $76 $-1 #
edge $-1 $82 0 $50 76.19999999999998863 $45 $123 forward 7 unknown #
vertex $-1 $81 $124 #
straight-curve $-1 0 0 0 0 0 -1 I I #
coedge $-1 $48 $119 $111 $125 reversed $76 $-1 #
vertex $-1 $125 $126 #
straight-curve $-1 0 -76.19999999999998863 -3.174999999999999822 1 0 0 I I #
point $-1 0 -76.19999999999998863 -3.174999999999999822 #
coedge $-1 $96 $52 $127 $128 forward $10 $-1 #
coedge $-1 $129 $130 $52 $90 reversed $131 $-1 #
edge $-1 $94 -2.43019928323681547e-15 $132 16.02778611765565131 $52 $133 forward 7 unknown #
coedge $-1 $134 $53 $59 $106 forward $93 $-1 #
coedge $-1 $53 $134 $129 $135 reversed $93 $-1 #
loop $-1 $-1 $91 $136 #
vertex $-1 $90 $137 #
ellipse-curve $-1 43.20388070182384865 -21.4499817268840367 0 0 0 1 8.687311640471989449 -23.86819256796221467 0 1 I I #
coedge $-1 $55 $88 $138 $139 forward $10 $-1 #
coedge $-1 $140 $141 $55 $98 forward $116 $-1 #
edge $-1 $102 0 $142 1.570796326794895226 $55 $143 forward 7 unknown #
coedge $-1 $144 $56 $141 $145 forward $101 $-1 #
coedge $-1 $56 $144 $58 $105 reversed $101 $-1 #
loop $-1 $-1 $99 $146 #
vertex $-1 $57 $147 #
straight-curve $-1 27.30499999999996064 -25.39999999999999858 0 1 0 0 I I #
coedge $-1 $59 $58 $148 $149 reversed $60 $-1 #
edge $-1 $62 0 $150 3.174999999999999822 $100 $151 forward 7 unknown #
edge $-1 $61 0 $152 3.174999999999999822 $91 $153 forward 7 unknown #
face $-1 $146 $60 $2 $-1 $154 reversed single #
point $-1 61.04257595838110007 -39.53149027964833806 0 #
point $-1 55.24500000000004007 -25.39999999999999858 0 #
straight-curve $-1 76.19999999999998863 0 0 -1 0 0 I I #
coedge $-1 $67 $66 $84 $125 forward $42 $-1 #
point $-1 76.19999999999998863 0 0 #
point $-1 0 0 0 #
straight-curve $-1 76.19999999999998863 -76.19999999999998863 0 0 0 -1 I I #
face $-1 $155 $156 $2 $-1 $157 forward single #
loop $-1 $-1 $140 $75 #
cone-surface $-1 27.30499999999999616 -33.65500000000000114 -1.587499999999999911 0 0 1 0 8.254999999999999005 0 1 I I 0 1 8.254999999999999005 forward I I I I #
loop $-1 $-1 $158 $41 #
coedge $-1 $84 $80 $78 $120 reversed $76 $-1 #
edge $-1 $121 0 $82 76.19999999999998863 $78 $159 forward 7 unknown #
vertex $-1 $120 $160 #
straight-curve $-1 76.19999999999998863 0 0 0 0 -1 I I #
straight-curve $-1 0 0 -3.174999999999999822 0 -1 0 I I #
point $-1 0 0 -3.174999999999999822 #
edge $-1 $85 0 $121 76.19999999999998863 $111 $161 forward 7 unknown #
point $-1 76.19999999999998863 -76.19999999999998863 -3.174999999999999822 #
coedge $-1 $162 $163 $88 $128 reversed $164 $-1 #
edge $-1 $132 0 $165 17.78000000000000114 $88 $166 forward 7 unknown #
coedge $-1 $167 $89 $92 $135 forward $131 $-1 #
coedge $-1 $89 $167 $162 $168 reversed $131 $-1 #
loop $-1 $-1 $129 $169 #
vertex $-1 $128 $170 #
straight-curve $-1 51.8911923422958381 -45.31817429484625848 0 -0.939692620785908872 -0.3420201433256677692 0 I I #
coedge $-1 $92 $91 $171 $172 reversed $93 $-1 #
edge $-1 $94 -0 $173 3.174999999999999822 $129 $174 forward 7 unknown #
face $-1 $107 $93 $2 $-1 $175 reversed single #
point $-1 51.8911923422958381 -45.31817429484625137 0 #
coedge $-1 $176 $177 $96 $139 reversed $156 $-1 #
edge $-1 $165 0 $142 17.14500000000001023 $96 $178 forward 7 unknown #
coedge $-1 $179 $97 $177 $180 forward $116 $-1 #
coedge $-1 $97 $179 $99 $145 reversed $116 $-1 #
vertex $-1 $98 $181 #
ellipse-curve $-1 27.3049999999999784 -33.65499999999997982 0 0 0 1 -1.776356839400250465e-14 8.254999999999981242 0 1 I I #
coedge $-1 $100 $99 $182 $183 forward $101 $-1 #
edge $-1 $102 0 $184 3.174999999999999822 $99 $185 forward 7 unknown #
face $-1 $-1 $101 $2 $-1 $186 forward single #
point $-1 27.30499999999996064 -25.39999999999999858 0 #
coedge $-1 $182 $171 $104 $149 forward $118 $-1 #
edge $-1 $152 -2.502460841160809501e-15 $150 2.362954184518060163 $148 $187 forward 7 unknown #
vertex $-1 $183 $188 #
straight-curve $-1 55.24500000000000455 -25.39999999999999858 0 0 0 -1 I I #
vertex $-1 $149 $189 #
straight-curve $-1 61.04257595838108585 -39.53149027964835227 0 0 0 -1 I I #
cone-surface $-1 55.24500000000000455 -33.65499999999999403 -1.587499999999999911 0 0 1 5.797575958381082195 -5.876490279648359127 0 1 I I 0 1 8.254999999999999005 forward I I I I #
face $-1 $169 $164 $2 $-1 $190 forward single #
loop $-1 $-1 $176 $115 #
plane-surface $-1 19.04999999999999716 -42.22749999999999204 -1.587499999999999911 1 0 0 0 1 0 forward_v I I I I #
coedge $-1 $191 $182 $179 $192 forward $118 $-1 #
straight-curve $-1 76.19999999999998863 0 -3.174999999999999822 -1 0 0 I I #
point $-1 76.19999999999998863 0 -3.174999999999999822 #
straight-curve $-1 76.19999999999998863 -76.19999999999998863 -3.174999999999999822 0 1 0 I I #
coedge $-1 $193 $127 $130 $168 forward $164 $-1 #
coedge $-1 $127 $193 $176 $194 reversed $164 $-1 #
loop $-1 $-1 $162 $155 #
vertex $-1 $139 $195 #
straight-curve $-1 36.82999999999999829 -50.79999999999999716 0 -1 0 0 I I #
coedge $-1 $130 $129 $196 $197 forward $131 $-1 #
edge $-1 $132 0 $198 3.174999999999999822 $162 $199 forward 7 unknown #
face $-1 $136 $131 $2 $-1 $200 forward single #
point $-1 36.82999999999999829 -50.79999999999999716 0 #
coedge $-1 $148 $196 $134 $172 forward $118 $-1 #
edge $-1 $173 2.555116788026966756e-15 $152 0.4295726186728616169 $171 $201 forward 7 unknown #
vertex $-1 $172 $202 #
straight-curve $-1 51.89119234229590205 -45.31817429484623005 0 0 0 -1 I I #
cone-surface $-1 43.20388070182333706 -21.44998172688333682 -1.587499999999999911 0 0 1 8.68731164047223281 -23.86819256796198374 0 1 I I 0 1 25.40000000000000213 forward I I I I #
coedge $-1 $203 $138 $163 $194 forward $156 $-1 #
coedge $-1 $138 $203 $140 $180 reversed $156 $-1 #
straight-curve $-1 19.04999999999999716 -50.79999999999999716 0 0 1 0 I I #
coedge $-1 $141 $140 $158 $192 reversed $116 $-1 #
edge $-1 $142 0 $204 3.174999999999999822 $140 $205 forward 7 unknown #
point $-1 19.04999999999999716 -33.65499999999998693 0 #
coedge $-1 $158 $148 $144 $183 reversed $118 $-1 #
edge $-1 $184 0 $150 27.94000000000007944 $182 $206 forward 7 unknown #
vertex $-1 $183 $207 #
straight-curve $-1 27.30499999999999616 -25.39999999999999858 0 0 0 -1 I I #
plane-surface $-1 41.27499999999999858 -25.39999999999999858 -1.587499999999999911 0 -1 0 1 0 0 forward_v I I I I #
ellipse-curve $-1 55.24500000000001165 -33.65499999999999403 -3.174999999999999822 0 0 1 5.797575958381088412 -5.876490279648344028 0 1 I I #
point $-1 55.24500000000004007 -25.39999999999999858 -3.174999999999999822 #
point $-1 61.04257595838108585 -39.53149027964835227 -3.174999999999999822 #
plane-surface $-1 27.93999999999999773 -50.79999999999999716 -1.587499999999999911 0 1 0 -1 0 0 forward_v I I I I #
coedge $-1 $208 $158 $203 $209 reversed $118 $-1 #
edge $-1 $184 0 $204 1.570796326794895226 $158 $210 forward 7 unknown #
coedge $-1 $163 $162 $208 $211 forward $164 $-1 #
edge $-1 $165 0 $212 3.174999999999999822 $176 $213 forward 7 unknown #
point $-1 19.04999999999999716 -50.79999999999999716 0 #
coedge $-1 $171 $208 $167 $197 reversed $118 $-1 #
edge $-1 $173 -6.706343447947636714e-14 $198 16.02778611765564776 $196 $214 forward 7 unknown #
vertex $-1 $197 $215 #
straight-curve $-1 36.82999999999999829 -50.79999999999999716 0 0 0 -1 I I #
plane-surface $-1 44.36059617114794662 -48.05908714742311361 -1.587499999999999911 -0.3420201433256679358 0.939692620785908761 0 -0.9396926207859086499 -0.3420201433256678802 0 forward_v I I I I #
ellipse-curve $-1 43.20388070182384865 -21.4499817268840367 -3.174999999999999822 0 0 1 8.687311640471989449 -23.86819256796221467 0 1 I I #
point $-1 51.8911923422955681 -45.31817429484532056 -3.174999999999999822 #
coedge $-1 $177 $176 $191 $209 forward $156 $-1 #
vertex $-1 $209 $216 #
straight-curve $-1 19.04999999999999716 -33.65499999999998693 0 0 0 -1 I I #
straight-curve $-1 27.30499999999996064 -25.39999999999999858 -3.174999999999999822 1 0 0 I I #
point $-1 27.30499999999996064 -25.39999999999999858 -3.174999999999999822 #
coedge $-1 $196 $191 $193 $211 reversed $118 $-1 #
edge $-1 $212 0 $204 17.14500000000001023 $191 $217 forward 7 unknown #
ellipse-curve $-1 27.3049999999999784 -33.65499999999997982 -3.174999999999999822 0 0 1 -1.776356839400250465e-14 8.254999999999981242 0 1 I I #
edge $-1 $198 0 $212 17.78000000000000114 $208 $218 forward 7 unknown #
vertex $-1 $211 $219 #
straight-curve $-1 19.04999999999999716 -50.79999999999999716 0 0 0 -1 I I #
straight-curve $-1 51.8911923422958381 -45.31817429484625848 -3.174999999999999822 -0.939692620785908872 -0.3420201433256677692 0 I I #
point $-1 36.82999999999999829 -50.79999999999999005 -3.174999999999999822 #
point $-1 19.04999999999999716 -33.65499999999998693 -3.174999999999999822 #
straight-curve $-1 19.04999999999999716 -50.79999999999999716 -3.174999999999999822 0 1 0 I I #
straight-curve $-1 36.82999999999999829 -50.79999999999999716 -3.174999999999999822 -1 0 0 I I #
point $-1 19.04999999999999716 -50.79999999999999716 -3.174999999999999822 #
End-of-ACIS-data 