700 0 2 0           
24 FBMach with ACIS - 7.0.3 13 ACIS 7.0.3 NT 24 Wed May 15 10:09:01 2002 
1 9.9999999999999995e-007 1e-010 
body $2 -1 $-1 $3 $-1 $4 #
bdycol-kcp $-1 -1 1 1 $5 #
model_id-kcp-attrib $-1 -1 $-1 $-1 $0 1 1021471740 1021471740 1252261889 1 #
lump $-1 -1 $-1 $-1 $6 $0 #
transform $-1 -1 1 0 0 0 1 0 0 0 1 0 0 0 1 rotate no_reflect no_shear #
body $7 -1 $-1 $8 $-1 $9 #
shell $-1 -1 $-1 $-1 $-1 $10 $-1 $3 #
model_id-kcp-attrib $-1 -1 $-1 $-1 $5 1 1021471740 1021471740 1252261890 1 #
lump $-1 -1 $-1 $-1 $11 $5 #
transform $-1 -1 1 0 0 0 1 0 0 0 1 39.36999999999999 2.5399999999999996 31.75 1 no_rotate no_reflect no_shear #
face $12 -1 $-1 $13 $14 $6 $-1 $15 reversed single #
shell $-1 -1 $-1 $-1 $-1 $16 $-1 $8 #
model_id-kcp-attrib $-1 -1 $-1 $-1 $10 1 1021471740 1021471740 1252261889 2 #
face $17 -1 $-1 $18 $19 $6 $-1 $20 forward single #
loop $-1 -1 $-1 $-1 $21 $10 #
plane-surface $-1 -1 $-1 53.339999999999996 5.0799999999999983 0 0 -1 0 1 0 0 forward_v I I I I #
face $22 -1 $-1 $23 $24 $11 $-1 $25 forward single #
model_id-kcp-attrib $-1 -1 $-1 $-1 $13 1 1021471740 1021471740 1252261889 3 #
face $26 -1 $-1 $27 $28 $6 $-1 $29 reversed single #
loop $-1 -1 $-1 $-1 $30 $13 #
plane-surface $-1 -1 $-1 78.739999999999995 2.5399999999999991 31.584900000000005 1 0 0 0 0 -1 forward_v I I I I #
coedge $-1 -1 $-1 $31 $32 $33 $34 forward $14 $-1 #
model_id-kcp-attrib $-1 -1 $-1 $-1 $16 1 1021471740 1021471740 1252261890 4 #
face $35 -1 $-1 $36 $37 $11 $-1 $38 reversed single #
loop $-1 -1 $-1 $-1 $39 $16 #
plane-surface $-1 -1 $-1 0 0 31.75 0 0 1 1 0 0 forward_v I I I I #
model_id-kcp-attrib $-1 -1 $-1 $-1 $18 1 1021471740 1021471740 1252261889 4 #
face $40 -1 $-1 $41 $42 $6 $-1 $43 reversed single #
loop $-1 -1 $-1 $-1 $44 $18 #
cone-surface $-1 -1 $-1 78.739999999999981 2.5399999999999991 63.5 0 1 0 0 0 -13.030199999999994 1 I I 0 1 13.030199999999994 forward I I I I #
coedge $-1 -1 $-1 $45 $33 $46 $47 forward $19 $-1 #
coedge $-1 -1 $-1 $48 $21 $49 $50 reversed $14 $-1 #
coedge $-1 -1 $-1 $21 $51 $52 $53 reversed $14 $-1 #
coedge $-1 -1 $-1 $30 $54 $21 $34 reversed $19 $-1 #
edge $55 -1 $-1 $56 0 $57 37.769800000000004 $21 $58 forward @7 unknown #
model_id-kcp-attrib $-1 -1 $-1 $-1 $23 1 1021471740 1021471740 1252261890 8 #
face $59 -1 $-1 $60 $61 $11 $-1 $62 reversed single #
loop $-1 -1 $-1 $-1 $63 $23 #
plane-surface $-1 -1 $-1 0 0 -31.75 0 0 1 1 0 0 forward_v I I I I #
coedge $-1 -1 $-1 $64 $65 $66 $67 forward $24 $-1 #
model_id-kcp-attrib $-1 -1 $-1 $-1 $27 1 1021471740 1021471740 1252261889 5 #
face $68 -1 $-1 $69 $70 $6 $-1 $71 forward single #
loop $-1 -1 $-1 $-1 $72 $27 #
plane-surface $-1 -1 $-1 66.039999999999992 2.5399999999999991 63.5 0 0 -1 1 0 0 forward_v I I I I #
coedge $-1 -1 $-1 $73 $52 $74 $75 forward $28 $-1 #
coedge $-1 -1 $-1 $54 $30 $76 $77 forward $19 $-1 #
coedge $-1 -1 $-1 $52 $73 $30 $47 reversed $28 $-1 #
edge $78 -1 $-1 $56 0 $79 5.0799999999999983 $46 $80 forward @7 unknown #
coedge $-1 -1 $-1 $81 $31 $82 $83 reversed $14 $-1 #
coedge $-1 -1 $-1 $84 $85 $31 $50 forward $86 $-1 #
edge $-1 -1 $-1 $87 5.5948246910244138e-016 $57 1.5707963267948986 $31 $88 forward @7 unknown #
coedge $-1 -1 $-1 $32 $81 $72 $89 forward $14 $-1 #
coedge $-1 -1 $-1 $44 $46 $32 $53 forward $28 $-1 #
edge $-1 -1 $-1 $56 0 $90 1.5707963267948979 $32 $91 forward @7 unknown #
coedge $-1 -1 $-1 $33 $45 $84 $92 reversed $19 $-1 #
attrib_edge_convexity-kcp-attrib $-1 -1 $93 $-1 $34 1 #
vertex $-1 -1 $-1 $53 $94 #
vertex $-1 -1 $-1 $50 $95 #
straight-curve $-1 -1 $-1 78.739999999999995 5.0799999999999983 50.469800000000006 0 0 -1 I I #
model_id-kcp-attrib $-1 -1 $-1 $-1 $36 1 1021471740 1021471740 1252261890 7 #
face $-1 -1 $-1 $96 $97 $11 $-1 $98 reversed single #
loop $-1 -1 $-1 $-1 $99 $36 #
plane-surface $-1 -1 $-1 0 -2.5399999999999996 0 0 1 0 0 0 1 forward_v I I I I #
coedge $-1 -1 $-1 $100 $101 $102 $103 forward $37 $-1 #
coedge $-1 -1 $-1 $104 $39 $105 $106 forward $24 $-1 #
coedge $-1 -1 $-1 $39 $104 $107 $108 forward $24 $-1 #
coedge $-1 -1 $-1 $109 $110 $39 $67 reversed $111 $-1 #
edge $-1 -1 $-1 $112 -2.5399999999999996 $113 2.5399999999999996 $66 $114 forward @7 unknown #
model_id-kcp-attrib $-1 -1 $-1 $-1 $41 1 1021471740 1021471740 1252261889 6 #
face $115 -1 $-1 $116 $117 $6 $-1 $118 reversed single #
loop $-1 -1 $-1 $-1 $119 $41 #
plane-surface $-1 -1 $-1 52.069999999999993 2.5399999999999996 63.5 0 0 1 1 0 0 forward_v I I I I #
coedge $-1 -1 $-1 $120 $74 $51 $89 reversed $42 $-1 #
coedge $-1 -1 $-1 $46 $44 $121 $122 reversed $28 $-1 #
coedge $-1 -1 $-1 $72 $123 $44 $75 reversed $42 $-1 #
edge $-1 -1 $-1 $90 0 $124 5.0799999999999983 $74 $125 forward @7 unknown #
coedge $-1 -1 $-1 $121 $126 $45 $77 reversed $127 $-1 #
edge $128 -1 $-1 $79 0 $129 37.769800000000004 $76 $130 forward @7 unknown #
attrib_edge_convexity-kcp-attrib $-1 -1 $131 $-1 $47 1 #
vertex $-1 -1 $-1 $122 $132 #
straight-curve $-1 -1 $-1 78.739999999999995 5.0799999999999983 50.469800000000006 0 -1 0 I I #
coedge $-1 -1 $-1 $51 $48 $133 $134 forward $14 $-1 #
coedge $-1 -1 $-1 $135 $136 $48 $83 forward $137 $-1 #
edge $-1 -1 $-1 $138 7.1054273576010019e-015 $87 12.700000000000017 $48 $139 forward @7 unknown #
coedge $-1 -1 $-1 $140 $49 $54 $92 forward $86 $-1 #
coedge $-1 -1 $-1 $49 $140 $135 $141 reversed $86 $-1 #
loop $-1 -1 $-1 $-1 $84 $142 #
vertex $-1 -1 $-1 $83 $143 #
ellipse-curve $-1 -1 $-1 78.739999999999981 5.0799999999999983 8.8817841970012523e-015 0 1 0 -12.699999999999989 0 -8.8817841970012523e-015 1 I I #
edge $-1 -1 $-1 $144 7.1054273576010019e-015 $90 12.369800000000012 $51 $145 forward @7 unknown #
vertex $-1 -1 $-1 $53 $146 #
ellipse-curve $-1 -1 $-1 78.739999999999981 5.0799999999999983 63.5 0 1 0 1.4210854715202004e-014 0 -13.030199999999994 1 I I #
edge $147 -1 $-1 $57 0 $129 5.0799999999999983 $84 $148 forward @7 unknown #
convexity-sys-attrib $-1 -1 $-1 $55 $34 #
point $-1 -1 $-1 78.739999999999995 5.0799999999999983 50.469800000000006 #
point $-1 -1 $-1 78.739999999999995 5.0799999999999983 12.699999999999999 #
face $149 -1 $-1 $150 $151 $11 $-1 $152 reversed single #
loop $-1 -1 $-1 $-1 $153 $60 #
plane-surface $-1 -1 $-1 -39.370000000000005 0 0 1 0 0 0 0 -1 forward_v I I I I #
coedge $-1 -1 $-1 $154 $107 $155 $156 forward $61 $-1 #
coedge $-1 -1 $-1 $157 $63 $154 $158 forward $37 $-1 #
coedge $-1 -1 $-1 $63 $157 $159 $160 forward $37 $-1 #
coedge $-1 -1 $-1 $110 $109 $63 $103 reversed $111 $-1 #
edge $-1 -1 $-1 $161 -2.5399999999999996 $162 2.5399999999999996 $102 $163 forward @7 unknown #
coedge $-1 -1 $-1 $65 $64 $164 $165 forward $24 $-1 #
coedge $-1 -1 $-1 $166 $167 $64 $106 reversed $151 $-1 #
edge $-1 -1 $-1 $113 -39.370000000000005 $168 39.370000000000005 $105 $169 forward @7 unknown #
coedge $-1 -1 $-1 $99 $170 $65 $108 reversed $61 $-1 #
edge $-1 -1 $-1 $171 -39.370000000000005 $112 39.370000000000005 $107 $172 forward @7 unknown #
coedge $-1 -1 $-1 $102 $66 $170 $173 forward $111 $-1 #
coedge $-1 -1 $-1 $66 $102 $166 $174 reversed $111 $-1 #
loop $-1 -1 $-1 $-1 $109 $150 #
vertex $-1 -1 $-1 $67 $175 #
vertex $-1 -1 $-1 $67 $176 #
straight-curve $-1 -1 $-1 39.370000000000005 0 31.75 0 1 0 I I #
model_id-kcp-attrib $-1 -1 $-1 $-1 $69 1 1021471740 1021471740 1252261889 7 #
face $177 -1 $-1 $178 $179 $6 $-1 $180 forward single #
loop $-1 -1 $-1 $-1 $181 $69 #
plane-surface $-1 -1 $-1 25.399999999999999 2.5399999999999996 63.5 0 0 -1 1 0 0 forward_v I I I I #
coedge $-1 -1 $-1 $182 $183 $184 $185 reversed $70 $-1 #
coedge $-1 -1 $-1 $123 $72 $186 $187 reversed $42 $-1 #
coedge $-1 -1 $-1 $188 $76 $73 $122 forward $127 $-1 #
edge $-1 -1 $-1 $79 1.0906091015642131e-015 $124 1.5707963267948979 $121 $189 forward @7 unknown #
coedge $-1 -1 $-1 $74 $120 $188 $190 forward $42 $-1 #
vertex $-1 -1 $-1 $190 $191 #
straight-curve $-1 -1 $-1 65.709800000000001 5.0799999999999983 63.5 0 -1 0 I I #
coedge $-1 -1 $-1 $76 $192 $140 $193 forward $127 $-1 #
loop $-1 -1 $-1 $-1 $192 $194 #
attrib_edge_convexity-kcp-attrib $-1 -1 $195 $-1 $77 1 #
vertex $-1 -1 $-1 $77 $196 #
straight-curve $-1 -1 $-1 78.739999999999995 0 50.469800000000006 0 0 -1 I I #
convexity-sys-attrib $-1 -1 $-1 $78 $47 #
point $-1 -1 $-1 78.739999999999981 4.4408920985006262e-016 50.469800000000006 #
coedge $-1 -1 $-1 $197 $198 $81 $134 reversed $199 $-1 #
edge $-1 -1 $-1 $138 0 $144 63.5 $81 $200 forward @7 unknown #
coedge $-1 -1 $-1 $201 $82 $85 $141 forward $137 $-1 #
coedge $-1 -1 $-1 $82 $201 $202 $203 forward $137 $-1 #
loop $-1 -1 $-1 $-1 $201 $204 #
vertex $-1 -1 $-1 $134 $205 #
straight-curve $-1 -1 $-1 53.339999999999989 5.0799999999999983 0 1 0 0 I I #
coedge $-1 -1 $-1 $85 $84 $126 $193 reversed $86 $-1 #
edge $-1 -1 $-1 $87 0 $206 5.0799999999999983 $135 $207 forward @7 unknown #
face $208 -1 $-1 $209 $86 $6 $-1 $210 reversed single #
point $-1 -1 $-1 66.040000000000006 5.0799999999999983 7.1054273576010019e-015 #
vertex $-1 -1 $-1 $89 $211 #
straight-curve $-1 -1 $-1 53.339999999999989 5.0799999999999983 63.5 1 0 0 I I #
point $-1 -1 $-1 65.709800000000001 5.0799999999999983 63.5 #
attrib_edge_convexity-kcp-attrib $-1 -1 $212 $-1 $92 1 #
straight-curve $-1 -1 $-1 78.739999999999995 5.0799999999999983 12.700000000000003 0 -1 0 I I #
model_id-kcp-attrib $-1 -1 $-1 $-1 $96 1 1021471740 1021471740 1252261890 2 #
face $213 -1 $-1 $-1 $111 $11 $-1 $214 reversed single #
loop $-1 -1 $-1 $-1 $166 $96 #
plane-surface $-1 -1 $-1 0 2.5399999999999996 0 0 -1 0 0 0 -1 forward_v I I I I #
coedge $-1 -1 $-1 $215 $164 $167 $216 forward $97 $-1 #
coedge $-1 -1 $-1 $170 $99 $100 $158 reversed $61 $-1 #
coedge $-1 -1 $-1 $164 $215 $99 $156 reversed $97 $-1 #
edge $-1 -1 $-1 $171 -31.75 $217 31.75 $155 $218 forward @7 unknown #
coedge $-1 -1 $-1 $101 $100 $215 $219 forward $37 $-1 #
edge $-1 -1 $-1 $162 -39.370000000000005 $217 39.370000000000005 $154 $220 forward @7 unknown #
coedge $-1 -1 $-1 $167 $166 $101 $160 reversed $151 $-1 #
edge $-1 -1 $-1 $221 -39.370000000000005 $161 39.370000000000005 $159 $222 forward @7 unknown #
vertex $-1 -1 $-1 $103 $223 #
vertex $-1 -1 $-1 $173 $224 #
straight-curve $-1 -1 $-1 39.370000000000005 0 -31.75 0 -1 0 I I #
coedge $-1 -1 $-1 $153 $155 $104 $165 reversed $97 $-1 #
edge $-1 -1 $-1 $168 -2.5399999999999996 $171 2.5399999999999996 $164 $225 forward @7 unknown #
coedge $-1 -1 $-1 $159 $105 $110 $174 forward $151 $-1 #
coedge $-1 -1 $-1 $105 $159 $153 $216 reversed $151 $-1 #
vertex $-1 -1 $-1 $106 $226 #
straight-curve $-1 -1 $-1 0 2.5399999999999996 31.75 -1 0 0 I I #
coedge $-1 -1 $-1 $107 $154 $109 $173 reversed $61 $-1 #
vertex $-1 -1 $-1 $165 $227 #
straight-curve $-1 -1 $-1 0 -2.5399999999999996 31.75 1 0 0 I I #
edge $-1 -1 $-1 $112 -31.75 $162 31.75 $109 $228 forward @7 unknown #
edge $-1 -1 $-1 $113 -31.75 $161 31.75 $110 $229 forward @7 unknown #
point $-1 -1 $-1 39.370000000000005 -2.5399999999999996 31.75 #
point $-1 -1 $-1 39.370000000000005 2.5399999999999996 31.75 #
model_id-kcp-attrib $-1 -1 $-1 $-1 $116 1 1021471740 1021471740 1252261889 8 #
face $230 -1 $-1 $231 $232 $6 $-1 $233 forward single #
loop $-1 -1 $-1 $-1 $234 $116 #
plane-surface $-1 -1 $-1 0 0 0 0 -1 0 1 0 0 forward_v I I I I #
coedge $-1 -1 $-1 $184 $235 $234 $236 forward $117 $-1 #
coedge $-1 -1 $-1 $186 $119 $237 $238 forward $70 $-1 #
coedge $-1 -1 $-1 $119 $186 $198 $239 reversed $70 $-1 #
coedge $-1 -1 $-1 $240 $181 $119 $185 forward $117 $-1 #
edge $-1 -1 $-1 $241 0 $242 5.0799999999999992 $184 $243 forward @7 unknown #
coedge $-1 -1 $-1 $183 $182 $120 $187 forward $70 $-1 #
edge $-1 -1 $-1 $244 0 $144 5.0799999999999983 $120 $245 forward @7 unknown #
coedge $-1 -1 $-1 $246 $121 $123 $190 reversed $127 $-1 #
ellipse-curve $-1 -1 $-1 78.739999999999981 0 63.5 0 1 0 1.4210854715202004e-014 0 -13.030199999999994 1 I I #
edge $-1 -1 $-1 $244 7.1054273576010019e-015 $124 12.369800000000012 $188 $247 forward @7 unknown #
point $-1 -1 $-1 65.709800000000001 0 63.5 #
coedge $-1 -1 $-1 $126 $246 $201 $248 forward $127 $-1 #
edge $-1 -1 $-1 $206 5.5948246910244138e-016 $129 1.5707963267948986 $126 $249 forward @7 unknown #
face $250 -1 $-1 $142 $127 $6 $-1 $251 forward single #
convexity-sys-attrib $-1 -1 $-1 $128 $77 #
point $-1 -1 $-1 78.739999999999995 0 12.700000000000003 #
coedge $-1 -1 $-1 $252 $133 $253 $254 forward $199 $-1 #
coedge $-1 -1 $-1 $133 $252 $183 $239 forward $199 $-1 #
loop $-1 -1 $-1 $-1 $197 $255 #
straight-curve $-1 -1 $-1 53.339999999999996 5.0799999999999992 0 0 0 1 I I #
coedge $-1 -1 $-1 $136 $135 $192 $248 reversed $137 $-1 #
coedge $-1 -1 $-1 $256 $253 $136 $203 reversed $257 $-1 #
edge $-1 -1 $-1 $258 0 $138 5.0799999999999983 $136 $259 forward @7 unknown #
face $260 -1 $-1 $194 $137 $6 $-1 $261 forward single #
point $-1 -1 $-1 53.339999999999996 5.0799999999999983 0 #
vertex $-1 -1 $-1 $193 $262 #
straight-curve $-1 -1 $-1 66.040000000000006 5.0799999999999983 0 0 -1 0 I I #
model_id-kcp-attrib $-1 -1 $-1 $-1 $142 1 1021471740 1021471740 1252261889 18 #
face $263 -1 $-1 $-1 $264 $6 $-1 $265 reversed single #
cone-surface $-1 -1 $-1 78.740000000000009 2.5399999999999991 7.1054273576010019e-015 0 1 0 -12.699999999999999 0 0 1 I I 0 1 12.699999999999999 forward I I I I #
point $-1 -1 $-1 53.339999999999996 5.0799999999999983 63.5 #
convexity-sys-attrib $-1 -1 $-1 $147 $92 #
model_id-kcp-attrib $-1 -1 $-1 $-1 $150 1 1021471740 1021471740 1252261890 3 #
plane-surface $-1 -1 $-1 39.370000000000005 0 0 -1 0 0 0 0 1 forward_v I I I I #
coedge $-1 -1 $-1 $155 $153 $157 $219 reversed $97 $-1 #
edge $-1 -1 $-1 $168 -31.75 $221 31.75 $167 $266 forward @7 unknown #
vertex $-1 -1 $-1 $219 $267 #
straight-curve $-1 -1 $-1 -39.370000000000005 -2.5399999999999996 0 0 0 -1 I I #
edge $-1 -1 $-1 $217 -2.5399999999999996 $221 2.5399999999999996 $215 $268 forward @7 unknown #
straight-curve $-1 -1 $-1 0 -2.5399999999999996 -31.75 -1 0 0 I I #
vertex $-1 -1 $-1 $160 $269 #
straight-curve $-1 -1 $-1 0 2.5399999999999996 -31.75 1 0 0 I I #
point $-1 -1 $-1 39.370000000000005 2.5399999999999996 -31.75 #
point $-1 -1 $-1 39.370000000000005 -2.5399999999999996 -31.75 #
straight-curve $-1 -1 $-1 -39.370000000000005 0 31.75 0 -1 0 I I #
point $-1 -1 $-1 -39.370000000000005 2.5399999999999996 31.75 #
point $-1 -1 $-1 -39.370000000000005 -2.5399999999999996 31.75 #
straight-curve $-1 -1 $-1 39.370000000000005 -2.5399999999999996 0 0 0 -1 I I #
straight-curve $-1 -1 $-1 39.370000000000005 2.5399999999999996 0 0 0 -1 I I #
model_id-kcp-attrib $-1 -1 $-1 $-1 $178 1 1021471740 1021471740 1252261889 9 #
face $270 -1 $-1 $271 $272 $6 $-1 $273 forward single #
loop $-1 -1 $-1 $-1 $274 $178 #
plane-surface $-1 -1 $-1 14.084299999999994 2.5399999999999996 54.825451017311678 -0.52441693657400057 0 -0.85146161195578318 -0.85146161195578318 0 0.52441693657400057 forward_v I I I I #
coedge $-1 -1 $-1 $275 $276 $181 $236 reversed $179 $-1 #
coedge $-1 -1 $-1 $181 $240 $277 $278 forward $117 $-1 #
edge $-1 -1 $-1 $279 -1.0658141036401503e-014 $241 50.799999999999997 $234 $280 forward @7 unknown #
coedge $-1 -1 $-1 $281 $282 $182 $238 reversed $264 $-1 #
edge $-1 -1 $-1 $241 0 $244 2.5399999999999991 $237 $283 forward @7 unknown #
edge $-1 -1 $-1 $242 0 $144 2.5399999999999991 $198 $284 forward @7 unknown #
coedge $-1 -1 $-1 $235 $184 $285 $286 reversed $117 $-1 #
vertex $-1 -1 $-1 $287 $288 #
vertex $-1 -1 $-1 $289 $290 #
straight-curve $-1 -1 $-1 50.799999999999997 0 63.5 0 1 0 I I #
vertex $-1 -1 $-1 $291 $292 #
straight-curve $-1 -1 $-1 53.339999999999989 0 63.5 0 1 0 I I #
coedge $-1 -1 $-1 $192 $188 $282 $291 reversed $127 $-1 #
straight-curve $-1 -1 $-1 53.339999999999989 0 63.5 1 0 0 I I #
edge $-1 -1 $-1 $258 7.1054273576010019e-015 $206 12.700000000000017 $192 $293 forward @7 unknown #
ellipse-curve $-1 -1 $-1 78.739999999999981 0 8.8817841970012523e-015 0 1 0 -12.699999999999989 0 -8.8817841970012523e-015 1 I I #
model_id-kcp-attrib $-1 -1 $-1 $-1 $194 1 1021471740 1021471740 1252261889 17 #
plane-surface $-1 -1 $-1 53.339999999999996 0 0 0 -1 0 1 0 0 forward_v I I I I #
coedge $-1 -1 $-1 $198 $197 $294 $289 forward $199 $-1 #
coedge $-1 -1 $-1 $202 $295 $197 $254 reversed $257 $-1 #
edge $-1 -1 $-1 $138 0 $296 2.5399999999999991 $197 $297 forward @7 unknown #
face $298 -1 $-1 $299 $199 $6 $-1 $300 forward single #
coedge $-1 -1 $-1 $295 $202 $301 $302 forward $257 $-1 #
loop $-1 -1 $-1 $-1 $202 $299 #
vertex $-1 -1 $-1 $291 $303 #
straight-curve $-1 -1 $-1 53.339999999999996 0 0 0 1 0 I I #
model_id-kcp-attrib $-1 -1 $-1 $-1 $204 1 1021471740 1021471740 1252261889 16 #
plane-surface $-1 -1 $-1 66.039999999999992 2.5399999999999991 0 0 0 -1 1 0 0 forward_v I I I I #
point $-1 -1 $-1 66.040000000000006 4.4408920985006262e-016 7.1054273576010019e-015 #
model_id-kcp-attrib $-1 -1 $-1 $-1 $209 1 1021471740 1021471740 1252261889 19 #
loop $-1 -1 $-1 $-1 $237 $209 #
plane-surface $-1 -1 $-1 50.799999999999997 0 0 0 1 0 1 0 0 forward_v I I I I #
straight-curve $-1 -1 $-1 -39.370000000000005 2.5399999999999996 0 0 0 -1 I I #
point $-1 -1 $-1 -39.370000000000005 -2.5399999999999996 -31.75 #
straight-curve $-1 -1 $-1 -39.370000000000005 0 -31.75 0 1 0 I I #
point $-1 -1 $-1 -39.370000000000005 2.5399999999999996 -31.75 #
model_id-kcp-attrib $-1 -1 $-1 $-1 $231 1 1021471740 1021471740 1252261889 10 #
face $304 -1 $-1 $305 $306 $6 $-1 $307 forward single #
loop $-1 -1 $-1 $-1 $308 $231 #
plane-surface $-1 -1 $-1 28.168599999999998 2.5399999999999996 33.362002034623359 -1 0 0 0 0 1 forward_v I I I I #
coedge $-1 -1 $-1 $309 $310 $311 $312 forward $232 $-1 #
coedge $-1 -1 $-1 $313 $234 $309 $314 reversed $179 $-1 #
coedge $-1 -1 $-1 $234 $315 $281 $287 forward $179 $-1 #
coedge $-1 -1 $-1 $310 $309 $235 $278 reversed $232 $-1 #
edge $316 -1 $-1 $317 0 $279 5.0799999999999992 $235 $318 forward @7 unknown #
vertex $-1 -1 $-1 $314 $319 #
straight-curve $-1 -1 $-1 0 0 63.5 1 0 0 I I #
coedge $-1 -1 $-1 $301 $237 $276 $287 reversed $264 $-1 #
coedge $-1 -1 $-1 $237 $301 $246 $291 forward $264 $-1 #
straight-curve $-1 -1 $-1 50.799999999999997 0 63.5 1 0 0 I I #
straight-curve $-1 -1 $-1 50.799999999999997 5.0799999999999992 63.5 1 0 0 I I #
coedge $-1 -1 $-1 $294 $320 $240 $286 forward $321 $-1 #
edge $-1 -1 $-1 $317 -1.0658141036401503e-014 $242 50.799999999999997 $285 $322 forward @7 unknown #
edge $-1 -1 $-1 $323 0 $241 63.5 $276 $324 forward @7 unknown #
point $-1 -1 $-1 50.799999999999997 0 63.5 #
edge $-1 -1 $-1 $296 0 $242 63.5 $294 $325 forward @7 unknown #
point $-1 -1 $-1 50.799999999999997 5.0799999999999992 63.5 #
edge $-1 -1 $-1 $258 0 $244 63.5 $246 $326 forward @7 unknown #
point $-1 -1 $-1 53.339999999999996 0 63.5 #
straight-curve $-1 -1 $-1 53.339999999999989 0 0 1 0 0 I I #
coedge $-1 -1 $-1 $327 $285 $252 $289 reversed $321 $-1 #
coedge $-1 -1 $-1 $253 $256 $328 $329 forward $257 $-1 #
vertex $-1 -1 $-1 $330 $331 #
straight-curve $-1 -1 $-1 53.339999999999996 5.0799999999999992 0 -1 0 0 I I #
model_id-kcp-attrib $-1 -1 $-1 $-1 $255 1 1021471740 1021471740 1252261889 14 #
face $332 -1 $-1 $204 $257 $6 $-1 $333 forward single #
plane-surface $-1 -1 $-1 50.799999999999997 5.0799999999999992 0 0 1 0 1 0 0 forward_v I I I I #
coedge $-1 -1 $-1 $282 $281 $256 $302 reversed $264 $-1 #
edge $-1 -1 $-1 $258 0 $323 2.5399999999999991 $301 $334 forward @7 unknown #
point $-1 -1 $-1 53.339999999999996 0 0 #
model_id-kcp-attrib $-1 -1 $-1 $-1 $271 1 1021471740 1021471740 1252261889 11 #
face $335 -1 $-1 $336 $337 $6 $-1 $338 forward single #
loop $-1 -1 $-1 $-1 $339 $271 #
plane-surface $-1 -1 $-1 14.084299999999999 2.5399999999999996 10.28655101731168 -0.58979895793479575 0 0.80755011560833112 0.80755011560833112 0 0.58979895793479575 forward_v I I I I #
coedge $-1 -1 $-1 $340 $341 $342 $343 forward $272 $-1 #
coedge $-1 -1 $-1 $277 $274 $275 $314 forward $232 $-1 #
coedge $-1 -1 $-1 $274 $277 $320 $344 reversed $232 $-1 #
coedge $-1 -1 $-1 $341 $340 $274 $312 reversed $272 $-1 #
edge $345 -1 $-1 $346 0 $347 5.0799999999999992 $274 $348 forward @7 unknown #
coedge $-1 -1 $-1 $349 $275 $340 $350 reversed $179 $-1 #
edge $351 -1 $-1 $347 0 $279 33.082642369862725 $275 $352 forward @7 unknown #
coedge $-1 -1 $-1 $276 $349 $353 $354 forward $179 $-1 #
attrib_edge_convexity-kcp-attrib $-1 -1 $355 $-1 $278 1 #
vertex $-1 -1 $-1 $286 $356 #
straight-curve $-1 -1 $-1 -1.0658141036401503e-014 5.0799999999999992 63.5 0 -1 0 I I #
point $-1 -1 $-1 -1.0658141036401503e-014 0 63.5 #
coedge $-1 -1 $-1 $285 $357 $310 $344 forward $321 $-1 #
loop $-1 -1 $-1 $-1 $357 $336 #
straight-curve $-1 -1 $-1 0 5.0799999999999992 63.5 1 0 0 I I #
vertex $-1 -1 $-1 $287 $358 #
straight-curve $-1 -1 $-1 50.799999999999997 0 0 0 0 1 I I #
straight-curve $-1 -1 $-1 50.799999999999997 5.0799999999999992 0 0 0 1 I I #
straight-curve $-1 -1 $-1 53.339999999999996 0 0 0 0 1 I I #
coedge $-1 -1 $-1 $359 $294 $360 $330 reversed $321 $-1 #
coedge $-1 -1 $-1 $353 $360 $295 $329 reversed $337 $-1 #
edge $-1 -1 $-1 $323 0 $296 5.0799999999999992 $328 $361 forward @7 unknown #
edge $-1 -1 $-1 $362 0 $296 50.799999999999997 $327 $363 forward @7 unknown #
point $-1 -1 $-1 50.799999999999997 5.0799999999999992 0 #
model_id-kcp-attrib $-1 -1 $-1 $-1 $299 1 1021471740 1021471740 1252261889 15 #
plane-surface $-1 -1 $-1 52.069999999999993 2.5399999999999996 0 0 0 -1 -1 0 0 forward_v I I I I #
straight-curve $-1 -1 $-1 53.339999999999996 0 0 -1 0 0 I I #
model_id-kcp-attrib $-1 -1 $-1 $-1 $305 1 1021471740 1021471740 1252261889 12 #
face $364 -1 $-1 $255 $321 $6 $-1 $365 reversed single #
loop $-1 -1 $-1 $-1 $360 $305 #
plane-surface $-1 -1 $-1 25.399999999999999 2.5399999999999996 0 0 0 -1 1 0 0 forward_v I I I I #
coedge $-1 -1 $-1 $366 $367 $368 $369 forward $306 $-1 #
coedge $-1 -1 $-1 $311 $308 $313 $350 forward $272 $-1 #
coedge $-1 -1 $-1 $308 $311 $357 $370 reversed $272 $-1 #
coedge $-1 -1 $-1 $367 $366 $308 $343 reversed $306 $-1 #
edge $371 -1 $-1 $372 0 $373 5.0799999999999992 $342 $374 forward @7 unknown #
edge $375 -1 $-1 $346 0 $317 33.082642369862725 $320 $376 forward @7 unknown #
attrib_edge_convexity-kcp-attrib $-1 -1 $377 $-1 $312 2 #
vertex $-1 -1 $-1 $344 $378 #
vertex $-1 -1 $-1 $350 $379 #
straight-curve $-1 -1 $-1 28.168599999999998 5.0799999999999992 46.150902034623357 0 -1 0 I I #
coedge $-1 -1 $-1 $315 $313 $366 $380 reversed $179 $-1 #
edge $381 -1 $-1 $373 0 $347 25.577799999999996 $313 $382 forward @7 unknown #
attrib_edge_convexity-kcp-attrib $-1 -1 $383 $-1 $314 1 #
straight-curve $-1 -1 $-1 28.168599999999998 0 46.150902034623357 -0.85146161195578318 0 0.52441693657400057 I I #
coedge $-1 -1 $-1 $368 $328 $315 $354 reversed $337 $-1 #
edge $-1 -1 $-1 $384 0 $323 50.799999999999997 $315 $385 forward @7 unknown #
convexity-sys-attrib $-1 -1 $-1 $316 $278 #
point $-1 -1 $-1 -1.0658141036401503e-014 5.0799999999999992 63.5 #
coedge $-1 -1 $-1 $320 $359 $341 $370 forward $321 $-1 #
point $-1 -1 $-1 50.799999999999997 0 0 #
coedge $-1 -1 $-1 $357 $327 $367 $386 forward $321 $-1 #
coedge $-1 -1 $-1 $328 $368 $327 $330 forward $337 $-1 #
straight-curve $-1 -1 $-1 50.799999999999997 0 0 0 1 0 I I #
vertex $-1 -1 $-1 $386 $387 #
straight-curve $-1 -1 $-1 0 5.0799999999999992 0 1 0 0 I I #
model_id-kcp-attrib $-1 -1 $-1 $-1 $336 1 1021471740 1021471740 1252261889 13 #
plane-surface $-1 -1 $-1 0 5.0799999999999992 0 0 -1 0 1 0 0 forward_v I I I I #
coedge $-1 -1 $-1 $342 $339 $349 $380 forward $306 $-1 #
coedge $-1 -1 $-1 $339 $342 $359 $386 reversed $306 $-1 #
coedge $-1 -1 $-1 $360 $353 $339 $369 reversed $337 $-1 #
edge $388 -1 $-1 $362 0 $384 5.0799999999999992 $368 $389 forward @7 unknown #
edge $390 -1 $-1 $372 0 $346 25.577799999999996 $357 $391 forward @7 unknown #
attrib_edge_convexity-kcp-attrib $-1 -1 $392 $-1 $343 2 #
vertex $-1 -1 $-1 $386 $393 #
vertex $-1 -1 $-1 $380 $394 #
straight-curve $-1 -1 $-1 28.168599999999998 5.0799999999999992 20.573102034623361 0 -1 0 I I #
attrib_edge_convexity-kcp-attrib $-1 -1 $395 $-1 $344 1 #
straight-curve $-1 -1 $-1 28.168599999999998 5.0799999999999992 46.150902034623357 -0.85146161195578318 0 0.52441693657400057 I I #
convexity-sys-attrib $-1 -1 $-1 $345 $312 #
point $-1 -1 $-1 28.168599999999998 5.0799999999999992 46.150902034623357 #
point $-1 -1 $-1 28.168599999999998 0 46.150902034623357 #
edge $396 -1 $-1 $384 0 $373 34.881550328031921 $349 $397 forward @7 unknown #
attrib_edge_convexity-kcp-attrib $-1 -1 $398 $-1 $350 1 #
straight-curve $-1 -1 $-1 28.168599999999998 0 20.573102034623361 0 0 1 I I #
convexity-sys-attrib $-1 -1 $-1 $351 $314 #
vertex $-1 -1 $-1 $354 $399 #
straight-curve $-1 -1 $-1 0 0 0 1 0 0 I I #
edge $400 -1 $-1 $362 0 $372 34.881550328031921 $359 $401 forward @7 unknown #
point $-1 -1 $-1 0 5.0799999999999992 0 #
attrib_edge_convexity-kcp-attrib $-1 -1 $402 $-1 $369 1 #
straight-curve $-1 -1 $-1 0 5.0799999999999992 0 0 -1 0 I I #
attrib_edge_convexity-kcp-attrib $-1 -1 $403 $-1 $370 1 #
straight-curve $-1 -1 $-1 28.168599999999998 5.0799999999999992 20.573102034623361 0 0 1 I I #
convexity-sys-attrib $-1 -1 $-1 $371 $343 #
point $-1 -1 $-1 28.168599999999998 5.0799999999999992 20.573102034623361 #
point $-1 -1 $-1 28.168599999999998 0 20.573102034623361 #
convexity-sys-attrib $-1 -1 $-1 $375 $344 #
attrib_edge_convexity-kcp-attrib $-1 -1 $404 $-1 $380 1 #
straight-curve $-1 -1 $-1 0 0 0 0.80755011560833112 0 0.58979895793479575 I I #
convexity-sys-attrib $-1 -1 $-1 $381 $350 #
point $-1 -1 $-1 0 0 0 #
attrib_edge_convexity-kcp-attrib $-1 -1 $405 $-1 $386 1 #
straight-curve $-1 -1 $-1 0 5.0799999999999992 0 0.80755011560833112 0 0.58979895793479575 I I #
convexity-sys-attrib $-1 -1 $-1 $388 $369 #
convexity-sys-attrib $-1 -1 $-1 $390 $370 #
convexity-sys-attrib $-1 -1 $-1 $396 $380 #
convexity-sys-attrib $-1 -1 $-1 $400 $386 #
End-of-ACIS-data 