999
DXF file: screen3.dxf
999
Pro/ENGINEER 9801 by Parametric Technology Corporation
0
SECTION
2
HEADER
9
$EXTMAX
10
22.0000000000
20
17.0000000000
9
$EXTMIN
10
0.0000000000
20
0.0000000000
9
$LIMMIN
10
0.0000000000
20
0.0000000000
9
$LIMMAX
10
22.0000000000
20
17.0000000000
9
$VIEWCTR
10
11.0000000000
20
8.5000000000
9
$VIEWSIZE
40
17.0000000000
9
$CLAYER
8
0
9
$LTSCALE
40
1.2100000000
9
$CELTYPE
6
BYLAYER
9
$DIMSCALE
40
1
9
$DIMASZ
40
0.1875000000
9
$DIMEXO
40
0.1375000000
9
$DIMDLI
40
0.8360000000
9
$DIMEXE
40
0.3960000000
9
$DIMCEN
40
0.1980000000
9
$DIMTXT
40
0.2486049107
0
ENDSEC
0
SECTION
2
TABLES
0
TABLE
2
LTYPE
70
6
0
LTYPE
2
CONTINUOUS
70
64
3
Solid line
72
65
73
0
40
0
0
LTYPE
2
CENTER
70
64
3
____ _ ____ _ ____ _ ____ _ ____ _ ____ _ ____
72
65
73
4
40
0.6
49
0.375
49
-0.075
49
0.075
49
-0.075
0
LTYPE
2
HIDDEN
70
64
3
- - - - - - - - - - - - - - - - - - - -
72
65
73
2
40
0.2
49
0.1
49
-0.1
0
LTYPE
2
PHANTOM
70
64
3
_____ _ _ _____ _ _ _____ _ _ _____
72
65
73
6
40
0.8
49
0.45
49
-0.05
49
0.1
49
-0.05
49
0.1
49
-0.05
0
LTYPE
2
DOT
70
64
3
. . . . . . . . . . . . . . . . . . . .
72
65
73
2
40
0.2
49
0.1
49
-0.1
0
LTYPE
2
DASHED
70
64
3
- - - - - - - - - - - - - - - - - - - -
72
65
73
2
40
0.2
49
0.1
49
-0.1
0
ENDTAB
0
TABLE
2
LAYER
70
36
0
LAYER
2
0
70
0
62
7
6
CONTINUOUS
0
LAYER
2
DEFAULT_1
70
0
62
7
6
CENTER
0
LAYER
2
DEFAULT_2
70
0
62
7
6
HIDDEN
0
LAYER
2
DEFAULT_3
70
0
62
7
6
PHANTOM
0
ENDTAB
0
ENDSEC
0
SECTION
2
BLOCKS
0
ENDSEC
0
SECTION
2
ENTITIES
0
LINE
8
0
62
3
10
-9.2254314463
20
23.3167000652
11
-9.2254314463
21
21.3667000652
0
LINE
8
0
62
3
10
-9.1004314463
20
22.2948250652
11
-9.1004314463
21
21.7948250652
0
LINE
8
0
62
3
10
-9.1004314463
20
22.3885750652
11
-9.1004314463
21
22.8885750652
0
LINE
8
0
62
3
10
-7.8465732230
20
24.6955582885
11
-9.2254314463
21
23.3167000652
0
LINE
8
0
62
3
10
-7.8465732230
20
19.9878418419
11
-5.8965732230
21
19.9878418419
0
LINE
8
0
62
3
10
-6.6215732230
20
20.1128418419
11
-7.1215732230
21
20.1128418419
0
LINE
8
0
62
3
10
-7.7870588819
20
20.1385750652
11
-7.2153232230
21
20.1385750652
0
LINE
8
0
62
3
10
-5.9560875641
20
20.1385750652
11
-6.5278232230
21
20.1385750652
0
LINE
8
0
62
3
10
-9.2254314463
20
21.3667000652
11
-8.8011673776
21
20.9424359965
0
LINE
8
0
62
3
10
-8.2708372917
20
20.4121059106
11
-7.8465732230
21
19.9878418419
0
LINE
8
0
62
3
10
-6.5278232230
20
20.5135750652
11
-5.9560875641
21
20.5135750652
0
LINE
8
0
62
3
10
-7.2153232230
20
20.5135750652
11
-7.7870588819
21
20.5135750652
0
LINE
8
0
62
3
10
-8.4028232230
20
22.8885750652
11
-8.4028232230
21
22.3885750652
0
LINE
8
0
62
3
10
-8.4028232230
20
21.7948250652
11
-8.4028232230
21
22.2948250652
0
LINE
8
0
62
3
10
-7.5903232230
20
20.6073250652
11
-7.2153232230
21
20.6073250652
0
LINE
8
0
62
3
10
-5.4340732230
20
20.6073250652
11
-5.9340732230
21
20.6073250652
0
LINE
8
0
62
3
10
-6.0278232230
20
20.6073250652
11
-6.5278232230
21
20.6073250652
0
LINE
8
0
62
3
10
-7.1215732230
20
20.6128418419
11
-6.6215732230
21
20.6128418419
0
LINE
8
0
62
3
10
-6.6215732230
20
20.7378418419
11
-7.1215732230
21
20.7378418419
0
LINE
8
0
62
3
10
-8.3090732230
20
22.2948250652
11
-8.3090732230
21
21.7948250652
0
LINE
8
0
62
3
10
-8.3090732230
20
22.3885750652
11
-8.3090732230
21
22.8885750652
0
LINE
8
0
62
3
10
-8.3090732230
20
22.9823250652
11
-8.3090732230
21
23.4823250652
0
LINE
8
0
62
3
10
-8.3090732230
20
23.5760750652
11
-8.3090732230
21
24.0760750652
0
LINE
8
0
62
3
10
-7.2153232230
20
20.9823250652
11
-7.5903232230
21
20.9823250652
0
LINE
8
0
62
3
10
-7.4653232230
20
21.0760750652
11
-7.2153232230
21
21.0760750652
0
LINE
8
0
62
3
10
-6.5278232230
20
21.1073250652
11
-6.0278232230
21
21.1073250652
0
LINE
8
0
62
3
10
-5.9340732230
20
21.1073250652
11
-5.4340732230
21
21.1073250652
0
LINE
8
0
62
3
10
-5.4340732230
20
21.2010750652
11
-5.9340732230
21
21.2010750652
0
LINE
8
0
62
3
10
-6.0278232230
20
21.2010750652
11
-6.5278232230
21
21.2010750652
0
LINE
8
0
62
3
10
-7.8090732230
20
24.0760750652
11
-7.8090732230
21
23.5760750652
0
LINE
8
0
62
3
10
-7.8090732230
20
23.4823250652
11
-7.8090732230
21
22.9823250652
0
LINE
8
0
62
3
10
-7.8090732230
20
22.8885750652
11
-7.8090732230
21
22.3885750652
0
LINE
8
0
62
3
10
-7.8090732230
20
21.7948250652
11
-7.8090732230
21
22.2948250652
0
LINE
8
0
62
3
10
-7.7153232230
20
22.2948250652
11
-7.7153232230
21
21.7948250652
0
LINE
8
0
62
3
10
-7.7153232230
20
22.3885750652
11
-7.7153232230
21
22.8885750652
0
LINE
8
0
62
3
10
-7.7153232230
20
22.9823250652
11
-7.7153232230
21
23.4823250652
0
LINE
8
0
62
3
10
-7.7153232230
20
23.5760750652
11
-7.7153232230
21
24.0760750652
0
LINE
8
0
62
3
10
-7.5903232230
20
20.9823250652
11
-7.5903232230
21
20.6073250652
0
LINE
8
0
62
3
10
-6.5278232230
20
21.7010750652
11
-6.0278232230
21
21.7010750652
0
LINE
8
0
62
3
10
-5.9340732230
20
21.7010750652
11
-5.4340732230
21
21.7010750652
0
LINE
8
0
62
3
10
-7.2153232230
20
21.7010750652
11
-7.4653232230
21
21.7010750652
0
LINE
8
0
62
3
10
-7.4653232230
20
21.7010750652
11
-7.4653232230
21
21.0760750652
0
LINE
8
0
62
3
10
-9.1004314463
20
21.7948250652
11
-8.4028232230
21
21.7948250652
0
LINE
8
0
62
3
10
-8.3090732230
20
21.7948250652
11
-7.8090732230
21
21.7948250652
0
LINE
8
0
62
3
10
-7.7153232230
20
21.7948250652
11
-7.2153232230
21
21.7948250652
0
LINE
8
0
62
3
10
-4.6427149997
20
21.7948250652
11
-5.3403232230
21
21.7948250652
0
LINE
8
0
62
3
10
-5.4340732230
20
21.7948250652
11
-5.9340732230
21
21.7948250652
0
LINE
8
0
62
3
10
-6.0278232230
20
21.7948250652
11
-6.5278232230
21
21.7948250652
0
LINE
8
0
62
3
10
-7.2153232230
20
24.5448250652
11
-7.2153232230
21
24.1698250652
0
LINE
8
0
62
3
10
-7.2153232230
20
24.0760750652
11
-7.2153232230
21
23.5760750652
0
LINE
8
0
62
3
10
-7.2153232230
20
23.4823250652
11
-7.2153232230
21
22.9823250652
0
LINE
8
0
62
3
10
-7.2153232230
20
22.8885750652
11
-7.2153232230
21
22.3885750652
0
LINE
8
0
62
3
10
-7.2153232230
20
20.1385750652
11
-7.2153232230
21
20.5135750652
0
LINE
8
0
62
3
10
-7.2153232230
20
20.6073250652
11
-7.2153232230
21
20.9823250652
0
LINE
8
0
62
3
10
-7.2153232230
20
21.0760750652
11
-7.2153232230
21
21.7010750652
0
LINE
8
0
62
3
10
-7.2153232230
20
21.7948250652
11
-7.2153232230
21
22.2948250652
0
LINE
8
0
62
3
10
-7.1215732230
20
20.1128418419
11
-7.1215732230
21
20.6128418419
0
LINE
8
0
62
3
10
-7.1215732230
20
20.7378418419
11
-7.1215732230
21
24.5705582885
0
LINE
8
0
62
3
10
-8.1973984377
20
21.5462049363
11
-8.8011673776
21
20.9424359965
0
LINE
8
0
62
3
10
-6.5278232230
20
22.2948250652
11
-6.0278232230
21
22.2948250652
0
LINE
8
0
62
3
10
-5.9340732230
20
22.2948250652
11
-5.4340732230
21
22.2948250652
0
LINE
8
0
62
3
10
-5.3403232230
20
22.2948250652
11
-4.6427149997
21
22.2948250652
0
LINE
8
0
62
3
10
-7.2153232230
20
22.2948250652
11
-7.7153232230
21
22.2948250652
0
LINE
8
0
62
3
10
-7.8090732230
20
22.2948250652
11
-8.3090732230
21
22.2948250652
0
LINE
8
0
62
3
10
-8.4028232230
20
22.2948250652
11
-9.1004314463
21
22.2948250652
0
LINE
8
0
62
3
10
-6.6215732230
20
24.5705582885
11
-6.6215732230
21
20.7378418419
0
LINE
8
0
62
3
10
-6.6215732230
20
20.6128418419
11
-6.6215732230
21
20.1128418419
0
LINE
8
0
62
3
10
-6.5278232230
20
22.3885750652
11
-6.0278232230
21
22.3885750652
0
LINE
8
0
62
3
10
-5.9340732230
20
22.3885750652
11
-5.4340732230
21
22.3885750652
0
LINE
8
0
62
3
10
-5.3403232230
20
22.3885750652
11
-4.6427149997
21
22.3885750652
0
LINE
8
0
62
3
10
-7.2153232230
20
22.3885750652
11
-7.7153232230
21
22.3885750652
0
LINE
8
0
62
3
10
-7.8090732230
20
22.3885750652
11
-8.3090732230
21
22.3885750652
0
LINE
8
0
62
3
10
-8.4028232230
20
22.3885750652
11
-9.1004314463
21
22.3885750652
0
LINE
8
0
62
3
10
-6.5278232230
20
24.5448250652
11
-6.5278232230
21
24.1698250652
0
LINE
8
0
62
3
10
-6.5278232230
20
24.0760750652
11
-6.5278232230
21
23.5760750652
0
LINE
8
0
62
3
10
-6.5278232230
20
23.4823250652
11
-6.5278232230
21
22.9823250652
0
LINE
8
0
62
3
10
-6.5278232230
20
22.8885750652
11
-6.5278232230
21
22.3885750652
0
LINE
8
0
62
3
10
-6.5278232230
20
20.1385750652
11
-6.5278232230
21
20.5135750652
0
LINE
8
0
62
3
10
-6.5278232230
20
20.6073250652
11
-6.5278232230
21
21.1073250652
0
LINE
8
0
62
3
10
-6.5278232230
20
21.2010750652
11
-6.5278232230
21
21.7010750652
0
LINE
8
0
62
3
10
-6.5278232230
20
21.7948250652
11
-6.5278232230
21
22.2948250652
0
LINE
8
0
62
3
10
-8.2708372917
20
20.4121059106
11
-7.6670683518
21
21.0158748505
0
LINE
8
0
62
3
10
-9.1004314463
20
22.8885750652
11
-8.4028232230
21
22.8885750652
0
LINE
8
0
62
3
10
-8.3090732230
20
22.8885750652
11
-7.8090732230
21
22.8885750652
0
LINE
8
0
62
3
10
-7.7153232230
20
22.8885750652
11
-7.2153232230
21
22.8885750652
0
LINE
8
0
62
3
10
-4.6427149997
20
22.8885750652
11
-5.3403232230
21
22.8885750652
0
LINE
8
0
62
3
10
-5.4340732230
20
22.8885750652
11
-5.9340732230
21
22.8885750652
0
LINE
8
0
62
3
10
-6.0278232230
20
22.8885750652
11
-6.5278232230
21
22.8885750652
0
LINE
8
0
62
3
10
-6.5278232230
20
22.9823250652
11
-6.0278232230
21
22.9823250652
0
LINE
8
0
62
3
10
-5.9340732230
20
22.9823250652
11
-5.4340732230
21
22.9823250652
0
LINE
8
0
62
3
10
-7.2153232230
20
22.9823250652
11
-7.7153232230
21
22.9823250652
0
LINE
8
0
62
3
10
-7.8090732230
20
22.9823250652
11
-8.3090732230
21
22.9823250652
0
LINE
8
0
62
3
10
-6.0278232230
20
22.2948250652
11
-6.0278232230
21
21.7948250652
0
LINE
8
0
62
3
10
-6.0278232230
20
21.7010750652
11
-6.0278232230
21
21.2010750652
0
LINE
8
0
62
3
10
-6.0278232230
20
21.1073250652
11
-6.0278232230
21
20.6073250652
0
LINE
8
0
62
3
10
-6.0278232230
20
22.3885750652
11
-6.0278232230
21
22.8885750652
0
LINE
8
0
62
3
10
-6.0278232230
20
22.9823250652
11
-6.0278232230
21
23.4823250652
0
LINE
8
0
62
3
10
-6.0278232230
20
23.5760750652
11
-6.0278232230
21
24.0760750652
0
LINE
8
0
62
3
10
-5.9340732230
20
24.0760750652
11
-5.9340732230
21
23.5760750652
0
LINE
8
0
62
3
10
-5.9340732230
20
23.4823250652
11
-5.9340732230
21
22.9823250652
0
LINE
8
0
62
3
10
-5.9340732230
20
22.8885750652
11
-5.9340732230
21
22.3885750652
0
LINE
8
0
62
3
10
-5.9340732230
20
20.6073250652
11
-5.9340732230
21
21.1073250652
0
LINE
8
0
62
3
10
-5.9340732230
20
21.2010750652
11
-5.9340732230
21
21.7010750652
0
LINE
8
0
62
3
10
-5.9340732230
20
21.7948250652
11
-5.9340732230
21
22.2948250652
0
LINE
8
0
62
3
10
-8.3090732230
20
23.4823250652
11
-7.8090732230
21
23.4823250652
0
LINE
8
0
62
3
10
-7.7153232230
20
23.4823250652
11
-7.2153232230
21
23.4823250652
0
LINE
8
0
62
3
10
-5.4340732230
20
23.4823250652
11
-5.9340732230
21
23.4823250652
0
LINE
8
0
62
3
10
-6.0278232230
20
23.4823250652
11
-6.5278232230
21
23.4823250652
0
LINE
8
0
62
3
10
-6.5278232230
20
23.5760750652
11
-6.0278232230
21
23.5760750652
0
LINE
8
0
62
3
10
-5.9340732230
20
23.5760750652
11
-5.4340732230
21
23.5760750652
0
LINE
8
0
62
3
10
-7.2153232230
20
23.5760750652
11
-7.7153232230
21
23.5760750652
0
LINE
8
0
62
3
10
-7.8090732230
20
23.5760750652
11
-8.3090732230
21
23.5760750652
0
LINE
8
0
62
3
10
-5.4340732230
20
22.2948250652
11
-5.4340732230
21
21.7948250652
0
LINE
8
0
62
3
10
-5.4340732230
20
21.7010750652
11
-5.4340732230
21
21.2010750652
0
LINE
8
0
62
3
10
-5.4340732230
20
21.1073250652
11
-5.4340732230
21
20.6073250652
0
LINE
8
0
62
3
10
-5.4340732230
20
22.3885750652
11
-5.4340732230
21
22.8885750652
0
LINE
8
0
62
3
10
-5.4340732230
20
22.9823250652
11
-5.4340732230
21
23.4823250652
0
LINE
8
0
62
3
10
-5.4340732230
20
23.5760750652
11
-5.4340732230
21
24.0760750652
0
LINE
8
0
62
3
10
-5.3403232230
20
22.8885750652
11
-5.3403232230
21
22.3885750652
0
LINE
8
0
62
3
10
-5.3403232230
20
21.7948250652
11
-5.3403232230
21
22.2948250652
0
LINE
8
0
62
3
10
-8.3090732230
20
24.0760750652
11
-7.8090732230
21
24.0760750652
0
LINE
8
0
62
3
10
-7.7153232230
20
24.0760750652
11
-7.2153232230
21
24.0760750652
0
LINE
8
0
62
3
10
-5.4340732230
20
24.0760750652
11
-5.9340732230
21
24.0760750652
0
LINE
8
0
62
3
10
-6.0278232230
20
24.0760750652
11
-6.5278232230
21
24.0760750652
0
LINE
8
0
62
3
10
-6.5278232230
20
24.1698250652
11
-5.9560875641
21
24.1698250652
0
LINE
8
0
62
3
10
-7.2153232230
20
24.1698250652
11
-7.7870588819
21
24.1698250652
0
LINE
8
0
62
3
10
-4.6427149997
20
22.2948250652
11
-4.6427149997
21
21.7948250652
0
LINE
8
0
62
3
10
-4.6427149997
20
22.3885750652
11
-4.6427149997
21
22.8885750652
0
LINE
8
0
62
3
10
-7.7870588819
20
24.5448250652
11
-7.2153232230
21
24.5448250652
0
LINE
8
0
62
3
10
-5.9560875641
20
24.5448250652
11
-6.5278232230
21
24.5448250652
0
LINE
8
0
62
3
10
-7.1215732230
20
24.5705582885
11
-6.6215732230
21
24.5705582885
0
LINE
8
0
62
3
10
-4.5177149997
20
21.3667000652
11
-4.5177149997
21
23.3167000652
0
LINE
8
0
62
3
10
-5.8965732230
20
19.9878418419
11
-4.5177149997
21
21.3667000652
0
LINE
8
0
62
3
10
-5.8965732230
20
24.6955582885
11
-7.8465732230
21
24.6955582885
0
LINE
8
0
62
3
10
-4.5177149997
20
23.3167000652
11
-5.8965732230
21
24.6955582885
0
ARC
8
0
62
3
10
-7.9322333948
20
21.2810398934
40
0.3750000000
50
315.0000000000
51
495.0000000000
0
ARC
8
0
62
3
10
-5.9560875641
20
24.3573250652
40
0.1875000000
50
270.0000000000
51
450.0000000000
0
CIRCLE
8
0
62
3
10
-4.8302149997
20
23.1698250652
40
0.1875000000
0
CIRCLE
8
0
62
3
10
-5.1528232230
20
23.5098665503
40
0.1875000000
0
ARC
8
0
62
3
10
-7.7870588819
20
24.3573250652
40
0.1875000000
50
90.0000000000
51
270.0000000000
0
CIRCLE
8
0
62
3
10
-8.9129314463
20
23.1698250652
40
0.1875000000
0
CIRCLE
8
0
62
3
10
-8.5903232230
20
23.5098665503
40
0.1875000000
0
ARC
8
0
62
3
10
-5.9560875641
20
20.3260750652
40
0.1875000000
50
270.0000000000
51
450.0000000000
0
CIRCLE
8
0
62
3
10
-4.8302149997
20
21.5135750652
40
0.1875000000
0
CIRCLE
8
0
62
3
10
-5.1528232230
20
21.1735335801
40
0.1875000000
0
CIRCLE
8
0
62
3
10
-8.9129314463
20
21.5135750652
40
0.1875000000
0
CIRCLE
8
0
62
3
10
-8.5215732230
20
21.5917000652
40
0.0705000000
0
CIRCLE
8
0
62
3
10
-8.5215732230
20
23.0917000652
40
0.0705000000
0
CIRCLE
8
0
62
3
10
-5.2215732230
20
21.5917000652
40
0.0705000000
0
CIRCLE
8
0
62
3
10
-5.2215732230
20
23.0917000652
40
0.0705000000
0
ARC
8
0
62
3
10
-7.7870588819
20
20.3260750652
40
0.1875000000
50
90.0000000000
51
270.0000000000
0
ENDSEC
0
EOF
