600 0 1 0           
104 GICL Pro/E ACIS Translator - Source: f:/data5/repository/PTC/V20/NC_Training_Rel20/DXF/part_35.prt - 6 0 13 ACIS 6.0.3 NT 24 Thu Apr 04 13:13:49 2002 
1 9.9999999999999995e-007 1e-010 
body $-1 $1 $-1 $-1 #
lump $-1 $-1 $2 $0 #
shell $-1 $-1 $-1 $3 $-1 $1 #
face $-1 $4 $5 $2 $-1 $6 forward single #
face $-1 $7 $8 $2 $-1 $9 forward single #
loop $-1 $-1 $10 $3 #
plane-surface $-1 0 0 0 0 0 1 1 0 0 forward_v I I I I #
face $-1 $11 $12 $2 $-1 $13 forward single #
loop $-1 $-1 $14 $4 #
plane-surface $-1 30.162499999999998 19.049999999858638 -1.5874999999999999 1 0 0 0 1 0 forward_v I I I I #
coedge $-1 $15 $16 $17 $18 forward $5 $-1 #
face $-1 $19 $20 $2 $-1 $21 reversed single #
loop $-1 $-1 $22 $7 #
plane-surface $-1 28.574999999999999 -1.4135798584235791e-010 -1.5874999999999999 0 -1 0 1 0 0 forward_v I I I I #
coedge $-1 $23 $17 $24 $25 forward $8 $-1 #
coedge $-1 $26 $10 $27 $28 forward $5 $-1 #
coedge $-1 $10 $29 $30 $31 forward $5 $-1 #
coedge $-1 $14 $32 $10 $18 reversed $8 $-1 #
edge $-1 $33 9.3872343521809851e-016 $34 38.099999999999994 $10 $35 forward 7 unknown #
face $-1 $36 $37 $2 $-1 $38 forward single #
loop $-1 $-1 $39 $11 #
spline-surface $-1 forward { exactsur full nurbs 3 1 both open open none none 25 2 
	0 3 0.041666666666666664 2 0.083333333333333329 2 0.125 2 0.16666666666666666 2 
	0.20833333333333331 2 0.25 2 0.29166666666666663 2 0.33333333333333331 2 0.375 2 
	0.41666666666666663 2 0.45833333333333331 2 0.5 2 0.54166666666666663 2 0.58333333333333326 2 
	0.625 2 0.66666666666666663 2 0.70833333333333326 2 0.75 2 0.79166666666666663 2 
	0.83333333333333326 2 0.875 2 0.91666666666666663 2 0.95833333333333326 2 1 3 
	0 1 1 1 
	-26.987499999999997 -1.4135798584292621e-010 0 1 
	-26.987500000105456 1.1843472536733228 0 1 
	-26.910348645248401 2.3570367246263326 0 1 
	-26.602799153945117 4.6888179596727806 0 1 
	-26.372401017498884 5.8479097237662199 0 1 
	-25.763005911753471 8.1233441175650025 0 1 
	-25.384008942454287 9.2396867472703477 0 1 
	-24.482437935216815 11.415532995216584 0 1 
	-23.959863897278527 12.475036613457474 0 1 
	-22.782243732575925 14.514739662269227 0 1 
	-22.127197605811613 15.494939092840088 0 1 
	-20.693754169434012 17.362915185732941 0 1 
	-19.915356859820726 18.250691848054927 0 1 
	-18.24973727515799 19.916391166696002 0 1 
	-17.362515000108537 20.694313823015083 0 1 
	-15.494428193379466 22.127628540257394 0 1 
	-14.513563661699845 22.783020601180624 0 1 
	-12.474504004782329 23.960336158497149 0 1 
	-11.416308879544433 24.482259654890441 0 1 
	-9.2405290670428677 25.383517048471671 0 1 
	-8.1229443797791951 25.762850945659611 0 1 
	-5.8466620591009013 26.372669620132353 0 1 
	-4.6879644256862782 26.603154397417153 0 1 
	-2.3528445281828794 26.91056958735086 0 1 
	-1.1764222640941031 26.987499999999766 0 1 
	1.1764222640834594 26.987500000000228 0 1 
	2.3528445281722461 26.910569587351791 0 1 
	4.6879644256757569 26.603154397419008 0 1 
	5.8466620590904794 26.372669620134666 0 1 
	8.1229443797690308 25.762850945662819 0 1 
	9.2405290670328597 25.383517048475319 0 1 
	11.416308879534753 24.482259654894957 0 1 
	12.47450400477282 23.960336158502102 0 1 
	14.513563661690723 22.783020601186436 0 1 
	15.494428193370561 22.127628540263633 0 1 
	17.362515000100167 20.694313823022103 0 1 
	18.249737275149933 19.916391166703381 0 1 
	19.915356859813354 18.250691848062978 0 1 
	20.69375416942701 17.362915185741294 0 1 
	22.127197605805371 15.494939092849 0 1 
	22.782243732570077 14.514739662278387 0 1 
	23.959863897273497 12.47503661346715 0 1 
	24.482437935212207 11.415532995226526 0 1 
	25.384008942450546 9.2396867472805813 0 1 
	25.763005911750174 8.1233441175752592 0 1 
	26.372401017496475 5.8479097237772111 0 1 
	26.602799153943153 4.6888179596844841 0 1 
	26.910348645247641 2.3570367246350621 0 1 
	26.987500000105456 1.1843472536783666 0 1 
	26.987499999999997 -1.4135798584235791e-010 0 1 
	-26.987499999999997 -1.4135798584292621e-010 -3.1749999999999998 1 
	-26.987500000105456 1.1843472536733228 -3.1749999999999998 1 
	-26.910348645248401 2.3570367246263326 -3.1749999999999998 1 
	-26.602799153945117 4.6888179596727806 -3.1749999999999998 1 
	-26.372401017498884 5.8479097237662199 -3.1749999999999998 1 
	-25.763005911753471 8.1233441175650025 -3.1749999999999998 1 
	-25.384008942454287 9.2396867472703477 -3.1749999999999998 1 
	-24.482437935216815 11.415532995216584 -3.1749999999999998 1 
	-23.959863897278527 12.475036613457474 -3.1749999999999998 1 
	-22.782243732575925 14.514739662269227 -3.1749999999999998 1 
	-22.127197605811613 15.494939092840088 -3.1749999999999998 1 
	-20.693754169434012 17.362915185732941 -3.1749999999999998 1 
	-19.915356859820726 18.250691848054927 -3.1749999999999998 1 
	-18.24973727515799 19.916391166696002 -3.1749999999999998 1 
	-17.362515000108537 20.694313823015083 -3.1749999999999998 1 
	-15.494428193379466 22.127628540257394 -3.1749999999999998 1 
	-14.513563661699845 22.783020601180624 -3.1749999999999998 1 
	-12.474504004782329 23.960336158497149 -3.1749999999999998 1 
	-11.416308879544433 24.482259654890441 -3.1749999999999998 1 
	-9.2405290670428677 25.383517048471671 -3.1749999999999998 1 
	-8.1229443797791951 25.762850945659611 -3.1749999999999998 1 
	-5.8466620591009013 26.372669620132353 -3.1749999999999998 1 
	-4.6879644256862782 26.603154397417153 -3.1749999999999998 1 
	-2.3528445281828794 26.91056958735086 -3.1749999999999998 1 
	-1.1764222640941031 26.987499999999766 -3.1749999999999998 1 
	1.1764222640834594 26.987500000000228 -3.1749999999999998 1 
	2.3528445281722461 26.910569587351791 -3.1749999999999998 1 
	4.6879644256757569 26.603154397419008 -3.1749999999999998 1 
	5.8466620590904794 26.372669620134666 -3.1749999999999998 1 
	8.1229443797690308 25.762850945662819 -3.1749999999999998 1 
	9.2405290670328597 25.383517048475319 -3.1749999999999998 1 
	11.416308879534753 24.482259654894957 -3.1749999999999998 1 
	12.47450400477282 23.960336158502102 -3.1749999999999998 1 
	14.513563661690723 22.783020601186436 -3.1749999999999998 1 
	15.494428193370561 22.127628540263633 -3.1749999999999998 1 
	17.362515000100167 20.694313823022103 -3.1749999999999998 1 
	18.249737275149933 19.916391166703381 -3.1749999999999998 1 
	19.915356859813354 18.250691848062978 -3.1749999999999998 1 
	20.69375416942701 17.362915185741294 -3.1749999999999998 1 
	22.127197605805371 15.494939092849 -3.1749999999999998 1 
	22.782243732570077 14.514739662278387 -3.1749999999999998 1 
	23.959863897273497 12.47503661346715 -3.1749999999999998 1 
	24.482437935212207 11.415532995226526 -3.1749999999999998 1 
	25.384008942450546 9.2396867472805813 -3.1749999999999998 1 
	25.763005911750174 8.1233441175752592 -3.1749999999999998 1 
	26.372401017496475 5.8479097237772111 -3.1749999999999998 1 
	26.602799153943153 4.6888179596844841 -3.1749999999999998 1 
	26.910348645247641 2.3570367246350621 -3.1749999999999998 1 
	26.987500000105456 1.1843472536783666 -3.1749999999999998 1 
	26.987499999999997 -1.4135798584235791e-010 -3.1749999999999998 1 
	0 
	0 
	0 
	23 0.041666666666666664 0.083333333333333329 0.125 0.16666666666666666 0.20833333333333331 0.25 0.29166666666666663 0.33333333333333331 0.375 0.41666666666666663 0.45833333333333331 0.5 0.54166666666666663 0.58333333333333326 0.625 0.66666666666666663 0.70833333333333326 0.75 0.79166666666666663 0.83333333333333326 0.875 0.91666666666666663 0.95833333333333326 
	0 
	0 
	0 
	F 1 F 0 F 1 F 0 } I I I I #
coedge $-1 $40 $30 $41 $42 forward $12 $-1 #
coedge $-1 $32 $14 $43 $44 forward $8 $-1 #
coedge $-1 $30 $40 $14 $25 reversed $12 $-1 #
edge $-1 $33 0 $45 3.1749999999999998 $24 $46 forward 7 unknown #
coedge $-1 $47 $15 $48 $49 forward $5 $-1 #
coedge $-1 $50 $51 $15 $28 reversed $52 $-1 #
edge $-1 $34 0 $53 60.324999999999996 $15 $54 forward 7 unknown #
tcoedge-coedge $-1 $16 $47 $55 $56 forward $5 $57 0 1 #
coedge $-1 $22 $24 $16 $31 reversed $12 $-1 #
edge $-1 $58 0 $33 3.1750000000000007 $16 $59 forward 7 unknown #
coedge $-1 $17 $23 $50 $60 reversed $8 $-1 #
vertex $-1 $31 $61 #
vertex $-1 $28 $62 #
straight-curve $-1 30.162499999999998 -1.4135892456579313e-010 0 0 1 0 I I #
face $-1 $63 $64 $2 $-1 $65 forward single #
loop $-1 $-1 $66 $19 #
plane-surface $-1 -28.574999999999999 -1.4135798584292621e-010 -1.5874999999999999 0 -1 0 1 0 0 forward_v I I I I #
coedge $-1 $67 $55 $68 $69 forward $20 $70 #
coedge $-1 $24 $22 $71 $72 forward $12 $-1 #
coedge $-1 $55 $67 $22 $42 reversed $20 $73 #
edge $-1 $58 0 $74 3.1749999999999998 $22 $75 forward 7 unknown #
coedge $-1 $71 $76 $23 $44 reversed $77 $-1 #
edge $-1 $45 9.3872343521809851e-016 $78 38.099999999999994 $23 $79 forward 7 unknown #
vertex $-1 $25 $80 #
straight-curve $-1 30.162499999999998 -1.4135892456579313e-010 0 0 0 -1 I I #
coedge $-1 $29 $26 $81 $82 forward $5 $-1 #
coedge $-1 $83 $84 $26 $49 reversed $64 $-1 #
edge $-1 $53 0 $85 38.099999999999994 $26 $86 forward 7 unknown #
coedge $-1 $87 $27 $32 $60 forward $52 $-1 #
coedge $-1 $27 $87 $83 $88 reversed $52 $-1 #
loop $-1 $-1 $50 $63 #
vertex $-1 $49 $89 #
straight-curve $-1 30.162499999999998 38.099999999858639 0 -1 0 0 I I #
tcoedge-coedge $-1 $39 $41 $29 $56 reversed $20 $90 -1 0 #
tedge-edge $-1 $91 0 $58 1 $29 $92 forward 7 unknown 0.00016222162844229919 #
pcurve $-1 0 forward { exppc nurbs 3 open 25 
	0 3 0.04166683644470999 1 0.083333705446901024 1 0.12499997686353516 1 0.16666732685502211 1 
	0.20833336787731699 1 0.25000033043059938 1 0.2916669463138854 1 0.33333317778079868 1 0.3749996230304477 1 
	0.41666668390218065 1 0.45833436101156955 1 0.4999999999999975 1 0.54166563898842524 1 0.58333331609781414 1 
	0.62500037696954724 1 0.66666682221919615 1 0.70833305368610933 1 0.74999966956939534 1 0.79166663212267774 1 
	0.83333267314497261 1 0.87500002313645964 1 0.91666629455309367 1 0.95833316355528508 1 1 3 
	-26.987499999999997 -1.4135798584292621e-010 1 
	-26.987500000105456 1.1843477007620211 1 
	-26.83349660856415 3.5297342635098072 1 
	-26.141934909427068 7.006962143487006 1 
	-25.005005146281132 10.356094269277989 1.0000000000000002 
	-23.437325310753835 13.534467843735154 1.0000000000000002 
	-21.472117969778019 16.475188015906195 1 
	-19.136974229809006 19.138449346566098 1.0000000000000002 
	-16.475306989089741 21.472227594042415 1 
	-13.532690066223926 23.43841797384043 1 
	-10.358092542908159 25.004193596476227 1 
	-7.0053191292337411 26.142192644392281 0.99999999999999978 
	-3.5293725931803839 26.833623420155678 1.0000000000000002 
	-5.3266458474187023e-012 27.064436408206927 0.99999999999999978 
	3.529372593169763 26.833623420157078 1.0000000000000002 
	7.0053191292234169 26.142192644395049 0.99999999999999978 
	10.358092542898307 25.004193596480302 1 
	13.53269006621459 23.438417973845819 1 
	16.475306989081048 21.472227594049073 1 
	19.136974229801275 19.138449346573836 1 
	21.472117969771386 16.475188015914856 1 
	23.437325310748381 13.534467843744569 1 
	25.005005146276968 10.356094269288196 0.99999999999999978 
	26.141934909424158 7.0069621434972928 1.0000000000000002 
	26.833496608562857 3.529734263522009 1.0000000000000002 
	26.987500000105456 1.1843477007669998 1 
	26.987499999999997 -1.4135803638737343e-010 1 
	0 
	plane 0 0 0 0 0 1 1 0 0 forward_v I I I I 
	} 0 0 #
tvertex-vertex $-1 $31 $93 3.5527136788005009e-015 #
straight-curve $-1 26.987499999999997 -1.4135798584235791e-010 0 1 0 0 I I #
edge $-1 $34 0 $78 3.1749999999999998 $50 $94 forward 7 unknown #
point $-1 30.162499999999998 -1.4135798584235791e-010 0 #
point $-1 30.162499999999998 38.099999999858639 0 #
face $-1 $95 $52 $2 $-1 $96 forward single #
loop $-1 $-1 $83 $36 #
plane-surface $-1 -30.162499999999998 19.049999999858642 -1.5874999999999999 -1 0 0 0 -1 0 forward_v I I I I #
coedge $-1 $97 $81 $84 $98 forward $37 $-1 #
tcoedge-coedge $-1 $41 $39 $99 $100 forward $20 $101 0 1 #
coedge $-1 $81 $97 $39 $69 reversed $37 $-1 #
edge $-1 $91 0 $102 3.1749999999999998 $39 $103 forward 7 unknown #
pcurve $-1 0 forward { exppc nurbs 3 open 2 
	0 3 3.1749999999999998 3 
	0 0 1 
	0 0.33333333333333331 1 
	0 0.66666666666666663 1 
	0 1 1 
	0.001 
	spline forward { ref 0 } I I I I 
	} 0 0 #
coedge $-1 $99 $43 $40 $72 reversed $77 $-1 #
edge $-1 $74 0 $45 3.1750000000000007 $40 $104 forward 7 unknown #
pcurve $-1 0 forward { exppc nurbs 3 open 2 
	-3.1749999999999998 3 0 3 
	1 1 1 
	1 0.66666666666666663 1 
	1 0.33333333333333331 1 
	1 0 1 
	0.001 
	spline forward { ref 0 } I I I I 
	} 0 0 #
tvertex-vertex $-1 $72 $105 3.5527136788005009e-015 #
straight-curve $-1 26.987500000000001 -1.4135798584235791e-010 0 0 0 -1 I I #
coedge $-1 $43 $106 $87 $107 reversed $77 $-1 #
loop $-1 $-1 $99 $95 #
vertex $-1 $107 $108 #
straight-curve $-1 30.162499999999998 -1.4135892456579313e-010 -3.1749999999999998 0 1 0 I I #
point $-1 30.162499999999998 -1.4135798584235791e-010 -3.1749999999999998 #
coedge $-1 $66 $68 $47 $82 reversed $37 $-1 #
edge $-1 $85 0 $91 3.1750000000000007 $47 $109 forward 7 unknown #
coedge $-1 $110 $48 $51 $88 forward $64 $-1 #
coedge $-1 $48 $110 $66 $98 reversed $64 $-1 #
vertex $-1 $82 $111 #
straight-curve $-1 -30.162499999999998 38.099999999858639 0 0 -1 0 I I #
coedge $-1 $51 $50 $76 $107 forward $52 $-1 #
edge $-1 $53 0 $112 3.1749999999999998 $83 $113 forward 7 unknown #
point $-1 -30.162499999999998 38.099999999858639 0 #
pcurve $-1 0 forward { exppc nurbs 3 open 25 
	-1 3 -0.95833333333333326 1 -0.91666666666666652 1 -0.87499999999999978 1 -0.83333333333333315 1 
	-0.79166666666666641 1 -0.74999999999999967 1 -0.70833333333333304 1 -0.6666666666666663 1 -0.62499999999999956 1 
	-0.58333333333333293 1 -0.5416666666666663 1 -0.49999999999999978 1 -0.45833333333333315 1 -0.41666666666666652 1 
	-0.37499999999999989 1 -0.33333333333333326 1 -0.29166666666666663 1 -0.25 1 -0.20833333333333326 1 
	-0.16666666666666663 1 -0.125 1 -0.083333333333333259 1 -0.04166666666666663 1 0 3 
	1 0 1 
	0.98611111111111116 0 0.99999999999999989 
	0.95833333333333315 0 1.0000000000000002 
	0.91666666666666663 0 1 
	0.87499999999999989 0 1.0000000000000002 
	0.83333333333333315 0 1 
	0.79166666666666663 0 1.0000000000000002 
	0.75 0 1 
	0.70833333333333315 0 1.0000000000000002 
	0.66666666666666674 0 1 
	0.625 0 1 
	0.58333333333333337 0 0.99999999999999967 
	0.54166666666666652 0 1.0000000000000002 
	0.50000000000000011 0 0.99999999999999956 
	0.45833333333333326 0 1 
	0.41666666666666669 0 0.99999999999999978 
	0.37500000000000006 0 0.99999999999999978 
	0.33333333333333331 0 0.99999999999999978 
	0.29166666666666663 0 0.99999999999999989 
	0.25000000000000006 0 1 
	0.20833333333333326 0 1.0000000000000002 
	0.16666666666666666 0 1 
	0.12500000000000003 0 1 
	0.083333333333333315 0 1 
	0.041666666666666664 0 0.99999999999999978 
	0.013888888888888879 0 1.0000000000000002 
	0 0 1 
	0.001 
	spline forward { ref 0 } I I I I 
	} 0 0 #
tvertex-vertex $-1 $56 $114 3.5527136788005009e-015 #
intcurve-curve $-1 forward { exactcur full nurbs 3 open 25 
	0 3 0.04166683644470999 1 0.083333705446901024 1 0.12499997686353516 1 0.16666732685502211 1 
	0.20833336787731699 1 0.25000033043059938 1 0.2916669463138854 1 0.33333317778079868 1 0.3749996230304477 1 
	0.41666668390218065 1 0.45833436101156955 1 0.4999999999999975 1 0.54166563898842524 1 0.58333331609781414 1 
	0.62500037696954724 1 0.66666682221919615 1 0.70833305368610933 1 0.74999966956939534 1 0.79166663212267774 1 
	0.83333267314497261 1 0.87500002313645964 1 0.91666629455309367 1 0.95833316355528508 1 1 3 
	-26.987499999999997 -1.4135798584292621e-010 0 1 
	-26.987500000105456 1.1843477007620211 0 1 
	-26.83349660856415 3.5297342635098072 0 1 
	-26.141934909427068 7.006962143487006 0 1 
	-25.005005146281132 10.356094269277989 0 1.0000000000000002 
	-23.437325310753835 13.534467843735154 0 1.0000000000000002 
	-21.472117969778019 16.475188015906195 0 1 
	-19.136974229809006 19.138449346566098 0 1.0000000000000002 
	-16.475306989089741 21.472227594042415 0 1 
	-13.532690066223926 23.43841797384043 0 1 
	-10.358092542908159 25.004193596476227 0 1 
	-7.0053191292337411 26.142192644392281 0 0.99999999999999978 
	-3.5293725931803839 26.833623420155678 0 1.0000000000000002 
	-5.3266458474187023e-012 27.064436408206927 0 0.99999999999999978 
	3.529372593169763 26.833623420157078 0 1.0000000000000002 
	7.0053191292234169 26.142192644395049 0 0.99999999999999978 
	10.358092542898307 25.004193596480302 0 1 
	13.53269006621459 23.438417973845819 0 1 
	16.475306989081048 21.472227594049073 0 1 
	19.136974229801275 19.138449346573836 0 1 
	21.472117969771386 16.475188015914856 0 1 
	23.437325310748381 13.534467843744569 0 1 
	25.005005146276968 10.356094269288196 0 0.99999999999999978 
	26.141934909424158 7.0069621434972928 0 1.0000000000000002 
	26.833496608562857 3.529734263522009 0 1.0000000000000002 
	26.987500000105456 1.1843477007669998 0 1 
	26.987499999999997 -1.4135803638737343e-010 0 1 
	0 
	null_surface 
	null_surface 
	nullbs 
	nullbs 
	I I 
	0 
	0 
	23 0.04166683644470999 0.083333705446901024 0.12499997686353516 0.16666732685502211 0.20833336787731699 0.25000033043059938 0.2916669463138854 0.33333317778079868 0.3749996230304477 0.41666668390218065 0.45833436101156955 0.4999999999999975 0.54166563898842524 0.58333331609781414 0.62500037696954724 0.66666682221919615 0.70833305368610933 0.74999966956939534 0.79166663212267774 0.83333267314497261 0.87500002313645964 0.91666629455309367 0.95833316355528508 
	F 1 F 0 } I I #
point $-1 26.987499999999997 -1.4135798584235791e-010 0 #
straight-curve $-1 30.162499999999998 38.099999999858639 0 0 0 -1 I I #
face $-1 $-1 $77 $2 $-1 $115 reversed single #
plane-surface $-1 0 38.099999999858639 -1.5874999999999999 0 1 0 -1 0 0 forward_v I I I I #
coedge $-1 $68 $66 $116 $117 forward $37 $-1 #
edge $-1 $85 0 $118 3.1749999999999998 $66 $119 forward 7 unknown #
tcoedge-coedge $-1 $116 $71 $67 $100 reversed $77 $120 -1 0 #
tedge-edge $-1 $102 0 $74 1 $67 $121 forward 7 unknown 0.00016222162844229919 #
pcurve $-1 0 forward { exppc nurbs 3 open 25 
	0 3 0.041666666666666664 1 0.083333333333333315 1 0.12499999999999997 1 0.16666666666666663 1 
	0.20833333333333329 1 0.24999999999999994 1 0.29166666666666663 1 0.33333333333333326 1 0.37499999999999989 1 
	0.41666666666666652 1 0.45833333333333315 1 0.49999999999999972 1 0.5416666666666663 1 0.58333333333333293 1 
	0.62499999999999956 1 0.6666666666666663 1 0.70833333333333304 1 0.74999999999999967 1 0.79166666666666641 1 
	0.83333333333333315 1 0.87499999999999978 1 0.91666666666666652 1 0.95833333333333326 1 1 3 
	0 1 1 
	0.013888888888888879 1 1.0000000000000002 
	0.041666666666666664 1 0.99999999999999978 
	0.083333333333333315 1 1 
	0.12500000000000003 1 1 
	0.16666666666666666 1 1 
	0.20833333333333326 1 1.0000000000000002 
	0.25000000000000006 1 1 
	0.29166666666666663 1 0.99999999999999989 
	0.33333333333333331 1 0.99999999999999978 
	0.37500000000000006 1 0.99999999999999978 
	0.41666666666666669 1 0.99999999999999978 
	0.45833333333333326 1 1 
	0.50000000000000011 1 0.99999999999999956 
	0.54166666666666652 1 1.0000000000000002 
	0.58333333333333337 1 0.99999999999999967 
	0.625 1 1 
	0.66666666666666674 1 1 
	0.70833333333333315 1 1.0000000000000002 
	0.75 1 1 
	0.79166666666666663 1 1.0000000000000002 
	0.83333333333333315 1 1 
	0.87499999999999989 1 1.0000000000000002 
	0.91666666666666663 1 1 
	0.95833333333333315 1 1.0000000000000002 
	0.98611111111111116 1 0.99999999999999989 
	1 1 1 
	0.001 
	spline forward { ref 0 } I I I I 
	} 0 0 #
tvertex-vertex $-1 $100 $122 3.5527136788005009e-015 #
straight-curve $-1 -26.987500000000001 -1.4135798584292621e-010 0 0 0 -1 I I #
straight-curve $-1 26.987499999999997 -1.4135798584235791e-010 -3.1749999999999998 1 0 0 I I #
point $-1 26.987499999999997 -1.4135798584235791e-010 -3.1749999999999998 #
coedge $-1 $76 $116 $110 $123 reversed $77 $-1 #
edge $-1 $78 0 $112 60.324999999999996 $87 $124 forward 7 unknown #
point $-1 30.162499999999998 38.099999999858639 -3.1749999999999998 #
straight-curve $-1 -30.162499999999998 -1.4135798584292621e-010 0 1 0 0 I I #
coedge $-1 $84 $83 $106 $123 forward $64 $-1 #
point $-1 -30.162499999999998 -1.4135798584292621e-010 0 #
vertex $-1 $123 $125 #
straight-curve $-1 -30.162499999999998 38.099999999858639 0 0 0 -1 I I #
point $-1 -26.987499999999997 -1.4135798584292621e-010 0 #
plane-surface $-1 0 0 -3.1749999999999998 0 0 1 1 0 0 forward_v I I I I #
coedge $-1 $106 $99 $97 $117 reversed $77 $-1 #
edge $-1 $118 0 $102 3.1750000000000007 $97 $126 forward 7 unknown #
vertex $-1 $117 $127 #
straight-curve $-1 -30.162499999999998 -1.4135798584292621e-010 0 0 0 -1 I I #
pcurve $-1 0 forward { exppc nurbs 3 open 25 
	-1 3 -0.95833316355528508 1 -0.91666629455309367 1 -0.87500002313645964 1 -0.83333267314497261 1 
	-0.79166663212267774 1 -0.74999966956939534 1 -0.70833305368610933 1 -0.66666682221919615 1 -0.62500037696954724 1 
	-0.58333331609781414 1 -0.54166563898842524 1 -0.4999999999999975 1 -0.45833436101156955 1 -0.41666668390218065 1 
	-0.3749996230304477 1 -0.33333317778079868 1 -0.2916669463138854 1 -0.25000033043059938 1 -0.20833336787731699 1 
	-0.16666732685502211 1 -0.12499997686353516 1 -0.083333705446901024 1 -0.04166683644470999 1 0 3 
	26.987499999999997 -1.4135803638737343e-010 1 
	26.987500000105456 1.1843477007669998 1 
	26.833496608562857 3.529734263522009 1.0000000000000002 
	26.141934909424158 7.0069621434972928 1.0000000000000002 
	25.005005146276968 10.356094269288196 0.99999999999999978 
	23.437325310748381 13.534467843744569 1 
	21.472117969771386 16.475188015914856 1 
	19.136974229801275 19.138449346573836 1 
	16.475306989081048 21.472227594049073 1 
	13.53269006621459 23.438417973845819 1 
	10.358092542898307 25.004193596480302 1 
	7.0053191292234169 26.142192644395049 0.99999999999999978 
	3.529372593169763 26.833623420157078 1.0000000000000002 
	-5.3266458474187023e-012 27.064436408206927 0.99999999999999978 
	-3.5293725931803839 26.833623420155678 1.0000000000000002 
	-7.0053191292337411 26.142192644392281 0.99999999999999978 
	-10.358092542908159 25.004193596476227 1 
	-13.532690066223926 23.43841797384043 1 
	-16.475306989089741 21.472227594042415 1 
	-19.136974229809006 19.138449346566098 1.0000000000000002 
	-21.472117969778019 16.475188015906195 1 
	-23.437325310753835 13.534467843735154 1.0000000000000002 
	-25.005005146281132 10.356094269277989 1.0000000000000002 
	-26.141934909427068 7.006962143487006 1 
	-26.83349660856415 3.5297342635098072 1 
	-26.987500000105456 1.1843477007620211 1 
	-26.987499999999997 -1.4135798584292621e-010 1 
	0 
	plane 0 0 -3.1749999999999998 0 0 -1 1 0 0 reverse_v I I I I 
	} 0 0 #
intcurve-curve $-1 forward { exactcur full nurbs 3 open 25 
	0 3 0.04166683644470999 1 0.083333705446901024 1 0.12499997686353516 1 0.16666732685502211 1 
	0.20833336787731699 1 0.25000033043059938 1 0.2916669463138854 1 0.33333317778079868 1 0.3749996230304477 1 
	0.41666668390218065 1 0.45833436101156955 1 0.4999999999999975 1 0.54166563898842524 1 0.58333331609781414 1 
	0.62500037696954724 1 0.66666682221919615 1 0.70833305368610933 1 0.74999966956939534 1 0.79166663212267774 1 
	0.83333267314497261 1 0.87500002313645964 1 0.91666629455309367 1 0.95833316355528508 1 1 3 
	-26.987499999999997 -1.4135798584292621e-010 -3.1749999999999998 1 
	-26.987500000105456 1.1843477007620211 -3.1749999999999998 1 
	-26.83349660856415 3.5297342635098072 -3.1749999999999994 1 
	-26.141934909427068 7.006962143487006 -3.1749999999999998 1 
	-25.005005146281132 10.356094269277989 -3.1749999999999998 1.0000000000000002 
	-23.437325310753835 13.534467843735154 -3.1749999999999989 1.0000000000000002 
	-21.472117969778019 16.475188015906195 -3.1750000000000003 1 
	-19.136974229809006 19.138449346566098 -3.1749999999999989 1.0000000000000002 
	-16.475306989089741 21.472227594042415 -3.1749999999999998 1 
	-13.532690066223926 23.43841797384043 -3.1749999999999998 1 
	-10.358092542908159 25.004193596476227 -3.1749999999999998 1 
	-7.0053191292337411 26.142192644392281 -3.1750000000000007 0.99999999999999978 
	-3.5293725931803839 26.833623420155678 -3.1749999999999994 1.0000000000000002 
	-5.3266458474187023e-012 27.064436408206927 -3.1750000000000003 0.99999999999999978 
	3.529372593169763 26.833623420157078 -3.1749999999999994 1.0000000000000002 
	7.0053191292234169 26.142192644395049 -3.1750000000000003 0.99999999999999978 
	10.358092542898307 25.004193596480302 -3.1749999999999994 1 
	13.53269006621459 23.438417973845819 -3.1749999999999998 1 
	16.475306989081048 21.472227594049073 -3.1749999999999994 1 
	19.136974229801275 19.138449346573836 -3.1749999999999998 1 
	21.472117969771386 16.475188015914856 -3.1750000000000003 1 
	23.437325310748381 13.534467843744569 -3.1749999999999998 1 
	25.005005146276968 10.356094269288196 -3.1750000000000003 0.99999999999999978 
	26.141934909424158 7.0069621434972928 -3.1749999999999994 1.0000000000000002 
	26.833496608562857 3.529734263522009 -3.1749999999999998 1.0000000000000002 
	26.987500000105456 1.1843477007669998 -3.1749999999999998 1 
	26.987499999999997 -1.4135803638737343e-010 -3.1749999999999998 1 
	0 
	null_surface 
	null_surface 
	nullbs 
	nullbs 
	I I 
	0 
	0 
	23 0.04166683644470999 0.083333705446901024 0.12499997686353516 0.16666732685502211 0.20833336787731699 0.25000033043059938 0.2916669463138854 0.33333317778079868 0.3749996230304477 0.41666668390218065 0.45833436101156955 0.4999999999999975 0.54166563898842524 0.58333331609781414 0.62500037696954724 0.66666682221919615 0.70833305368610933 0.74999966956939534 0.79166663212267774 0.83333267314497261 0.87500002313645964 0.91666629455309367 0.95833316355528508 
	F 1 F 0 } I I #
point $-1 -26.987499999999997 -1.4135798584292621e-010 -3.1749999999999998 #
edge $-1 $112 0 $118 38.099999999999994 $110 $128 forward 7 unknown #
straight-curve $-1 30.162499999999998 38.099999999858639 -3.1749999999999998 -1 0 0 I I #
point $-1 -30.162499999999998 38.099999999858639 -3.1749999999999998 #
straight-curve $-1 -30.162499999999998 -1.4135798584292621e-010 -3.1749999999999998 1 0 0 I I #
point $-1 -30.162499999999998 -1.4135537185211433e-010 -3.1749999999999998 #
straight-curve $-1 -30.162499999999998 38.099999999858639 -3.1749999999999998 0 -1 0 I I #
End-of-ACIS-data 