600 0 1 0           
104 GICL Pro/E ACIS Translator - Source: f:/data5/repository/PTC/V20/NC_Training_Rel20/DXF/part_29.prt - 6 0 13 ACIS 6.0.3 NT 24 Thu Apr 04 13:13:45 2002 
1 9.9999999999999995e-007 1e-010 
body $-1 $1 $-1 $-1 #
lump $-1 $-1 $2 $0 #
shell $-1 $-1 $-1 $3 $-1 $1 #
face $-1 $4 $5 $2 $-1 $6 reversed single #
face $-1 $7 $8 $2 $-1 $9 forward single #
loop $-1 $-1 $10 $3 #
plane-surface $-1 0 5.0799999999999992 0 0 -1 0 1 0 0 forward_v I I I I #
face $-1 $11 $12 $2 $-1 $13 forward single #
loop $-1 $-1 $14 $4 #
plane-surface $-1 191.82647558930802 2.5399999999999996 282.40989999999999 0.16515088854218521 0 0.98626831238447832 0.98626831238447832 0 -0.16515088854218521 forward_v I I I I #
coedge $-1 $15 $16 $17 $18 forward $5 $-1 #
face $-1 $19 $20 $2 $-1 $21 reversed single #
loop $-1 $-1 $22 $7 #
spline-surface $-1 forward { exactsur full nurbs 3 1 both open open none none 38 2 
	0 3 0.027027027027026997 2 0.054054054054053925 2 0.081081081081081197 2 0.10810810810810811 2 
	0.13513513513513511 2 0.16216216216216217 2 0.18918918918918923 2 0.2162162162162162 2 0.24324324324324323 2 
	0.27027027027027029 2 0.29729729729729731 2 0.32432432432432434 2 0.35135135135135137 2 0.3783783783783784 2 
	0.40540540540540543 2 0.43243243243243246 2 0.45945945945945948 2 0.48648648648648651 2 0.5135135135135136 2 
	0.54054054054054068 2 0.56756756756756754 2 0.59459459459459474 2 0.62162162162162171 2 0.64864864864864868 2 
	0.67567567567567566 2 0.70270270270270274 2 0.72972972972972994 2 0.7567567567567568 2 0.78378378378378377 2 
	0.81081081081081086 2 0.83783783783783794 2 0.86486486486486491 2 0.89189189189189189 2 0.91891891891891897 2 
	0.94594594594594605 2 0.97297297297297303 2 1 3 
	0 1 1 1 
	141.99735117861607 5.0799999999999992 290.75380000000001 1 
	144.40333140134334 5.0799999999999992 286.88877944700766 1 
	146.33512379573918 5.0799999999999992 283.42346935654956 1 
	149.0427003336429 5.0799999999999992 277.27363372826636 1 
	149.8184844771508 5.0799999999999992 274.58910819044127 1 
	150.83694229595406 5.0799999999999992 270.05675078473075 1 
	151.07961597124944 5.0799999999999992 268.20891891684533 1 
	150.95153509586822 5.0799999999999992 263.77176133465258 1 
	150.58078054519166 5.0799999999999992 261.18243562034525 1 
	149.1469893656282 5.0799999999999992 256.69753941980866 1 
	148.08395273674134 5.0799999999999992 254.80196893357947 1 
	145.44116695768687 5.0799999999999992 251.30676907885169 1 
	143.86141780751927 5.0799999999999992 249.70713971035315 1 
	140.55103503899022 5.0799999999999992 246.97215642498213 1 
	138.82040142062877 5.0799999999999992 245.83680250810968 1 
	134.86930216624737 5.0799999999999992 243.67303580788743 1 
	132.64883653022744 5.0799999999999992 242.64462302453765 1 
	127.72769844417977 5.0799999999999992 240.7896828078577 1 
	125.02702599415203 5.0799999999999992 239.96315537452759 1 
	119.2611706016116 5.0799999999999992 238.55646985879301 1 
	116.19598765909893 5.0799999999999992 237.97631177638851 1 
	109.77416119988089 5.0799999999999992 237.08205099341359 1 
	106.41751768317555 5.0799999999999992 236.76794829284313 1 
	99.440037462504264 5.0799999999999992 236.50465606048908 1 
	95.819200758538344 5.0799999999999992 236.55546652870555 1 
	88.401192106364832 5.0799999999999992 237.07960496604312 1 
	84.604020158157255 5.0799999999999992 237.55293293516428 1 
	76.798597940300823 5.0799999999999992 238.90498222668094 1 
	72.790347670651954 5.0799999999999992 239.78370354907645 1 
	64.780843359029262 5.0799999999999992 241.82301817361162 1 
	60.779589317055432 5.0799999999999992 242.9836114757513 1 
	53.271513935260479 5.0799999999999992 245.43163007686937 1 
	49.764692595439342 5.0799999999999992 246.71905537584774 1 
	43.13624994345011 5.0799999999999992 249.43026276784843 1 
	40.014628631282008 5.0799999999999992 250.85404486087077 1 
	34.289617787748028 5.0799999999999992 253.78466930148176 1 
	31.686228256382151 5.0799999999999992 255.2915116490704 1 
	27.124565343334773 5.0799999999999992 258.22417008984866 1 
	25.166291961653275 5.0799999999999992 259.64998618303827 1 
	21.432185781510437 5.0799999999999992 262.77274257259995 1 
	19.656352983049096 5.0799999999999992 264.46968286897186 1 
	16.621852714400234 5.0799999999999992 267.96938311128645 1 
	15.363185244212708 5.0799999999999992 269.77214305722896 1 
	13.398905372641813 5.0799999999999992 273.36106894906891 1 
	12.693292971258446 5.0799999999999992 275.1472348949664 1 
	11.760275022668084 5.0799999999999992 278.78627021974654 1 
	11.532869475461091 5.0799999999999992 280.63913959862919 1 
	11.447276778148225 5.0799999999999992 284.45954843847483 1 
	11.58908962804235 5.0799999999999992 286.42708789943771 1 
	12.465952907107814 5.0799999999999992 290.96457201796744 1 
	13.201003336279156 5.0799999999999992 293.53451667553429 1 
	14.806886345354071 5.0799999999999992 298.07135207201765 1 
	15.677718925257649 5.0799999999999992 300.03824281093415 1 
	17.899525752419098 5.0799999999999992 304.47253515154313 1 
	19.250499999676968 5.0799999999999992 306.9399367532356 1 
	22.366516274573875 5.0799999999999992 312.04939588099984 1 
	24.131558302212905 5.0799999999999992 314.69145340707161 1 
	28.032954437449167 5.0799999999999992 320.13688201084113 1 
	30.169308545046395 5.0799999999999992 322.9402530885389 1 
	34.737880858440754 5.0799999999999992 328.63021209273353 1 
	37.170099064237888 5.0799999999999992 331.51680001923035 1 
	42.10247713034542 5.0799999999999992 337.17520598026556 1 
	44.602636990655803 5.0799999999999992 339.94702401480401 1 
	49.597211347621368 5.0799999999999992 345.3686047578318 1 
	52.091625844276535 5.0799999999999992 348.01836746632125 1 
	56.856254820316707 5.0799999999999992 353.03651001369087 1 
	59.126469299701697 5.0799999999999992 355.40488985257099 1 
	63.498273446475444 5.0799999999999992 359.96264029619039 1 
	65.599863113864188 5.0799999999999992 362.15201090092961 1 
	70.242034372263674 5.0799999999999992 367.10958517648754 1 
	72.782615963274395 5.0799999999999992 369.87778884730636 1 
	76.658711390218485 5.0799999999999992 374.34675045277589 1 
	77.994225226151869 5.0799999999999992 376.04750838742672 1 
	80.093382114806886 5.0799999999999992 378.94723450572775 1 
	80.857025167528533 5.0799999999999992 380.14620268937796 1 
	81.229200000000048 5.0799999999999992 381 1 
	141.99735117861607 0 290.75380000000001 1 
	144.40333140134334 0 286.88877944700766 1 
	146.33512379573918 0 283.42346935654956 1 
	149.0427003336429 0 277.27363372826636 1 
	149.8184844771508 0 274.58910819044127 1 
	150.83694229595406 0 270.05675078473075 1 
	151.07961597124944 0 268.20891891684533 1 
	150.95153509586822 0 263.77176133465258 1 
	150.58078054519166 0 261.18243562034525 1 
	149.1469893656282 0 256.69753941980866 1 
	148.08395273674134 0 254.80196893357947 1 
	145.44116695768687 0 251.30676907885169 1 
	143.86141780751927 0 249.70713971035315 1 
	140.55103503899022 0 246.97215642498213 1 
	138.82040142062877 0 245.83680250810968 1 
	134.86930216624737 0 243.67303580788743 1 
	132.64883653022744 0 242.64462302453765 1 
	127.72769844417977 0 240.7896828078577 1 
	125.02702599415203 0 239.96315537452759 1 
	119.2611706016116 0 238.55646985879301 1 
	116.19598765909893 0 237.97631177638851 1 
	109.77416119988089 0 237.08205099341359 1 
	106.41751768317555 0 236.76794829284313 1 
	99.440037462504264 0 236.50465606048908 1 
	95.819200758538344 0 236.55546652870555 1 
	88.401192106364832 0 237.07960496604312 1 
	84.604020158157255 0 237.55293293516428 1 
	76.798597940300823 0 238.90498222668094 1 
	72.790347670651954 0 239.78370354907645 1 
	64.780843359029262 0 241.82301817361162 1 
	60.779589317055432 0 242.9836114757513 1 
	53.271513935260479 0 245.43163007686937 1 
	49.764692595439342 0 246.71905537584774 1 
	43.13624994345011 0 249.43026276784843 1 
	40.014628631282008 0 250.85404486087077 1 
	34.289617787748028 0 253.78466930148176 1 
	31.686228256382151 0 255.2915116490704 1 
	27.124565343334773 0 258.22417008984866 1 
	25.166291961653275 0 259.64998618303827 1 
	21.432185781510437 0 262.77274257259995 1 
	19.656352983049096 0 264.46968286897186 1 
	16.621852714400234 0 267.96938311128645 1 
	15.363185244212708 0 269.77214305722896 1 
	13.398905372641813 0 273.36106894906891 1 
	12.693292971258446 0 275.1472348949664 1 
	11.760275022668084 0 278.78627021974654 1 
	11.532869475461091 0 280.63913959862919 1 
	11.447276778148225 0 284.45954843847483 1 
	11.58908962804235 0 286.42708789943771 1 
	12.465952907107814 0 290.96457201796744 1 
	13.201003336279156 0 293.53451667553429 1 
	14.806886345354071 0 298.07135207201765 1 
	15.677718925257649 0 300.03824281093415 1 
	17.899525752419098 0 304.47253515154313 1 
	19.250499999676968 0 306.9399367532356 1 
	22.366516274573875 0 312.04939588099984 1 
	24.131558302212905 0 314.69145340707161 1 
	28.032954437449167 0 320.13688201084113 1 
	30.169308545046395 0 322.9402530885389 1 
	34.737880858440754 0 328.63021209273353 1 
	37.170099064237888 0 331.51680001923035 1 
	42.10247713034542 0 337.17520598026556 1 
	44.602636990655803 0 339.94702401480401 1 
	49.597211347621368 0 345.3686047578318 1 
	52.091625844276535 0 348.01836746632125 1 
	56.856254820316707 0 353.03651001369087 1 
	59.126469299701697 0 355.40488985257099 1 
	63.498273446475444 0 359.96264029619039 1 
	65.599863113864188 0 362.15201090092961 1 
	70.242034372263674 0 367.10958517648754 1 
	72.782615963274395 0 369.87778884730636 1 
	76.658711390218485 0 374.34675045277589 1 
	77.994225226151869 0 376.04750838742672 1 
	80.093382114806886 0 378.94723450572775 1 
	80.857025167528533 0 380.14620268937796 1 
	81.229200000000048 0 381 1 
	0 
	0 
	0 
	36 0.027027027027026997 0.054054054054053925 0.081081081081081197 0.10810810810810811 0.13513513513513511 0.16216216216216217 0.18918918918918923 0.2162162162162162 0.24324324324324323 0.27027027027027029 0.29729729729729731 0.32432432432432434 0.35135135135135137 0.3783783783783784 0.40540540540540543 0.43243243243243246 0.45945945945945948 0.48648648648648651 0.5135135135135136 0.54054054054054068 0.56756756756756754 0.59459459459459474 0.62162162162162171 0.64864864864864868 0.67567567567567566 0.70270270270270274 0.72972972972972994 0.7567567567567568 0.78378378378378377 0.81081081081081086 0.83783783783783794 0.86486486486486491 0.89189189189189189 0.91891891891891897 0.94594594594594605 0.97297297297297303 
	0 
	0 
	0 
	F 1 F 0 F 1 F 0 } I I I I #
coedge $-1 $23 $17 $24 $25 forward $8 $-1 #
coedge $-1 $26 $10 $27 $28 reversed $5 $-1 #
tcoedge-coedge $-1 $10 $29 $30 $31 reversed $5 $32 -1 0 #
coedge $-1 $14 $33 $10 $18 reversed $8 $-1 #
edge $-1 $34 0 $35 101.04577787807304 $10 $36 forward 7 unknown #
face $-1 $37 $38 $2 $-1 $39 reversed single #
loop $-1 $-1 $40 $11 #
plane-surface $-1 190.5 2.5399999999999996 381 0 0 -1 1 0 0 forward_v I I I I #
coedge $-1 $41 $30 $42 $43 forward $12 $44 #
coedge $-1 $33 $14 $45 $46 forward $8 $-1 #
coedge $-1 $30 $41 $14 $25 reversed $12 $47 #
edge $-1 $34 0 $48 5.0799999999999992 $24 $49 forward 7 unknown #
coedge $-1 $50 $15 $51 $52 reversed $5 $-1 #
coedge $-1 $53 $54 $15 $28 forward $55 $-1 #
edge $-1 $56 0 $35 106.93400000000003 $15 $57 forward 7 unknown #
coedge $-1 $16 $58 $40 $59 forward $5 $-1 #
tcoedge-coedge $-1 $22 $24 $16 $31 forward $12 $60 0 1 #
tedge-edge $-1 $34 0 $61 1 $16 $62 forward 7 unknown 0.00068655003843970039 #
pcurve $-1 0 forward { exppc nurbs 3 open 38 
	-1 3 -0.9733459284439494 1 -0.94646429450762248 1 -0.91932012010302711 1 -0.89221868264302995 1 
	-0.86509183689560165 1 -0.83789237416196427 1 -0.81066124542004236 1 -0.78342980205525892 1 -0.75625202509717349 1 
	-0.72915660826692474 1 -0.70216232643396026 1 -0.6752706967992419 1 -0.6483504625535591 1 -0.62152911689852797 1 
	-0.59475193176734864 1 -0.56795975241847063 1 -0.54110844421482063 1 -0.51420344401553753 1 -0.48726838598122335 1 
	-0.46022103608887949 1 -0.43306772042197234 1 -0.40582930688576657 1 -0.37851035448248549 1 -0.35119568064188533 1 
	-0.32393793627845008 1 -0.29673556292014769 1 -0.26959253290406276 1 -0.24251298589626788 1 -0.21550799976759999 1 
	-0.18859266744225728 1 -0.16174842398855688 1 -0.13489539729273467 1 -0.108034492942338 1 -0.081133350509355606 1 
	-0.05429562531922686 1 -0.027287593352191795 1 0 3 
	81.229200000000048 381 1 
	80.852551336415772 380.13593938127923 1.0000000000000002 
	79.322403541890495 377.73552582689808 0.99999999999999978 
	75.287854633508132 372.60600220645216 1 
	67.711085145575808 364.35212632768236 1.0000000000000002 
	61.392588358151258 357.76883284285083 1 
	54.57567880610906 350.65728705018961 1 
	47.098731275951167 342.71440005758825 1.0000000000000002 
	39.601919637213207 334.40282070989036 1.0000000000000002 
	32.31300370167714 325.7525696293572 1 
	25.905615519085014 317.34603280384323 1 
	20.610322631425372 309.42154173899957 1 
	16.555433484253765 302.02007793843939 1 
	13.93345604357925 296.09679544775656 0.99999999999999989 
	11.73446008052262 288.41041589842627 1 
	11.304567799833078 282.49545057794774 1 
	11.987873607380132 276.93212289925282 1 
	14.107654204734375 271.56855381703264 1 
	17.885855291872012 266.16099744856319 1.0000000000000002 
	23.20950966419322 261.07432730448016 1 
	29.09785514040431 256.78833847674554 0.99999999999999978 
	36.910287879161935 252.26915408257739 1 
	46.272670744295908 248.00037348685939 1 
	56.79701207764257 244.1382545175305 0.99999999999999989 
	68.780488070422976 240.66320343802536 1 
	80.79365708632578 238.02862732058477 1 
	92.187404174012201 236.60700592607515 0.99999999999999978 
	103.04927649393451 236.45339746438074 1.0000000000000002 
	113.1196005573112 237.39457658928239 0.99999999999999967 
	122.31435847720167 239.13377530691096 1.0000000000000004 
	130.41576303817391 241.61152440042034 0.99999999999999967 
	137.08159100479565 244.69646243211099 1 
	142.28356224649198 248.10905086026258 0.99999999999999978 
	147.02118609769394 252.90581398974138 0.99999999999999978 
	150.2118743851855 258.60086235173702 1 
	151.32157900608635 266.34860795714008 1 
	150.5932293054469 271.92571369057964 0.99999999999999978 
	148.24161568835197 280.01013095401123 1 
	144.39745872607537 286.89821344417743 1 
	141.99735117861607 290.75380000000001 1 
	0 
	plane 0 5.0799999999999992 0 0 1 0 1 0 0 reverse_v I I I I 
	} 0 0 #
coedge $-1 $17 $23 $53 $63 reversed $8 $-1 #
tvertex-vertex $-1 $31 $64 2.8421709430404007e-014 #
vertex $-1 $28 $65 #
straight-curve $-1 141.99735117861607 5.0799999999999992 290.75380000000001 0.98626831238447832 0 -0.16515088854218521 I I #
face $-1 $66 $67 $2 $-1 $68 forward single #
loop $-1 $-1 $69 $19 #
plane-surface $-1 0 2.5399999999999996 190.5 1 0 0 0 0 1 forward_v I I I I #
coedge $-1 $70 $42 $29 $59 reversed $20 $-1 #
tcoedge-coedge $-1 $24 $22 $71 $72 reversed $12 $73 -1 0 #
coedge $-1 $40 $74 $22 $43 reversed $20 $-1 #
edge $-1 $61 0 $75 5.0799999999999992 $42 $76 forward 7 unknown #
pcurve $-1 0 forward { exppc nurbs 3 open 2 
	0 3 5.0799999999999992 3 
	1 0 1 
	1 0.33333333333333331 1 
	1 0.66666666666666663 1 
	1 1 1 
	0.001 
	spline forward { ref 0 } I I I I 
	} 0 0 #
coedge $-1 $71 $77 $23 $46 reversed $78 $-1 #
edge $-1 $48 0 $79 101.04577787807304 $45 $80 forward 7 unknown #
pcurve $-1 0 forward { exppc nurbs 3 open 2 
	-5.0799999999999992 3 0 3 
	0 1 1 
	0 0.66666666666666663 1 
	0 0.33333333333333331 1 
	0 0 1 
	0.001 
	spline forward { ref 0 } I I I I 
	} 0 0 #
tvertex-vertex $-1 $72 $81 2.8421709430404007e-014 #
straight-curve $-1 141.99735117861604 5.0799999999999992 290.75380000000001 0 -1 0 I I #
coedge $-1 $82 $26 $83 $84 forward $5 $-1 #
coedge $-1 $85 $86 $26 $52 forward $87 $-1 #
edge $-1 $88 0 $56 139.34439999999998 $26 $89 forward 7 unknown #
coedge $-1 $90 $27 $33 $63 forward $55 $-1 #
coedge $-1 $27 $90 $85 $91 reversed $55 $-1 #
loop $-1 $-1 $53 $92 #
vertex $-1 $52 $93 #
straight-curve $-1 241.65559999999999 5.0799999999999992 381 0 0 -1 I I #
coedge $-1 $29 $94 $95 $96 forward $5 $-1 #
edge $-1 $97 0 $61 81.229200000000048 $29 $98 forward 7 unknown #
pcurve $-1 0 forward { exppc nurbs 3 open 38 
	0 3 0.027027027027027035 1 0.054054054054054057 1 0.081081081081081086 1 0.10810810810810811 1 
	0.13513513513513514 1 0.16216216216216217 1 0.18918918918918926 1 0.21621621621621626 1 0.24324324324324323 1 
	0.27027027027027023 1 0.29729729729729731 1 0.32432432432432429 1 0.35135135135135126 1 0.37837837837837829 1 
	0.40540540540540537 1 0.43243243243243246 1 0.45945945945945943 1 0.48648648648648651 1 0.5135135135135136 1 
	0.54054054054054068 1 0.56756756756756765 1 0.59459459459459474 1 0.62162162162162182 1 0.64864864864864891 1 
	0.67567567567567588 1 0.70270270270270296 1 0.72972972972973005 1 0.75675675675675713 1 0.78378378378378422 1 
	0.8108108108108113 1 0.83783783783783838 1 0.86486486486486536 1 0.89189189189189233 1 0.9189189189189193 1 
	0.94594594594594628 1 0.97297297297297325 1 1 3 
	0 0 1 
	0.0090090090090090072 0 1.0000000000000002 
	0.027027027027027049 0 0.99999999999999978 
	0.054054054054053786 0 1.0000000000000002 
	0.081081081081081335 0 1.0000000000000002 
	0.10810810810810804 0 1 
	0.13513513513513511 0 1.0000000000000002 
	0.16216216216216214 0 1 
	0.18918918918918923 0 1.0000000000000002 
	0.2162162162162162 0 0.99999999999999978 
	0.24324324324324323 0 0.99999999999999978 
	0.27027027027027034 0 0.99999999999999978 
	0.29729729729729726 0 1 
	0.3243243243243244 0 0.99999999999999956 
	0.35135135135135126 0 1.0000000000000002 
	0.37837837837837845 0 0.99999999999999967 
	0.40540540540540543 0 1 
	0.4324324324324324 0 1.0000000000000002 
	0.45945945945945948 0 1 
	0.48648648648648646 0 1.0000000000000002 
	0.5135135135135136 0 1 
	0.54054054054054068 0 1.0000000000000002 
	0.56756756756756743 0 1 
	0.59459459459459474 0 1.0000000000000002 
	0.62162162162162171 0 1 
	0.64864864864864857 0 1.0000000000000002 
	0.67567567567567577 0 1 
	0.70270270270270252 0 1.0000000000000002 
	0.72972972972973027 0 1 
	0.75675675675675658 0 1.0000000000000002 
	0.78378378378378377 0 1 
	0.81081081081081097 0 1.0000000000000002 
	0.83783783783783794 0 0.99999999999999989 
	0.8648648648648648 0 1.0000000000000002 
	0.891891891891892 0 0.99999999999999978 
	0.91891891891891886 0 1 
	0.94594594594594628 0 0.99999999999999978 
	0.97297297297297303 0 1 
	0.99099099099099119 0 0.99999999999999989 
	1 0 1 
	0.001 
	spline forward { ref 0 } I I I I 
	} 0 0 #
tvertex-vertex $-1 $31 $99 0 #
intcurve-curve $-1 forward { exactcur full nurbs 3 open 38 
	0 3 0.027287593352191795 1 0.05429562531922686 1 0.081133350509355606 1 0.108034492942338 1 
	0.13489539729273467 1 0.16174842398855688 1 0.18859266744225728 1 0.21550799976759999 1 0.24251298589626788 1 
	0.26959253290406276 1 0.29673556292014769 1 0.32393793627845008 1 0.35119568064188533 1 0.37851035448248549 1 
	0.40582930688576657 1 0.43306772042197234 1 0.46022103608887949 1 0.48726838598122335 1 0.51420344401553753 1 
	0.54110844421482063 1 0.56795975241847063 1 0.59475193176734864 1 0.62152911689852797 1 0.6483504625535591 1 
	0.6752706967992419 1 0.70216232643396026 1 0.72915660826692474 1 0.75625202509717349 1 0.78342980205525892 1 
	0.81066124542004236 1 0.83789237416196427 1 0.86509183689560165 1 0.89221868264302995 1 0.91932012010302711 1 
	0.94646429450762248 1 0.9733459284439494 1 1 3 
	141.99735117861607 5.0799999999999992 290.75380000000001 1 
	144.39745872607537 5.0799999999999992 286.89821344417743 1 
	148.24161568835197 5.0800000000000001 280.01013095401123 1 
	150.5932293054469 5.0799999999999992 271.92571369057964 0.99999999999999978 
	151.32157900608635 5.0799999999999992 266.34860795714008 1 
	150.2118743851855 5.0799999999999992 258.60086235173702 1 
	147.02118609769394 5.0799999999999992 252.90581398974138 0.99999999999999978 
	142.28356224649198 5.0799999999999992 248.10905086026258 0.99999999999999978 
	137.08159100479565 5.0799999999999983 244.69646243211099 1 
	130.41576303817391 5.0800000000000001 241.61152440042034 0.99999999999999967 
	122.31435847720167 5.0799999999999983 239.13377530691096 1.0000000000000004 
	113.1196005573112 5.0800000000000001 237.39457658928239 0.99999999999999967 
	103.04927649393451 5.0799999999999983 236.45339746438074 1.0000000000000002 
	92.187404174012201 5.0799999999999992 236.60700592607515 0.99999999999999978 
	80.79365708632578 5.0800000000000001 238.02862732058477 1 
	68.780488070422976 5.0799999999999992 240.66320343802536 1 
	56.79701207764257 5.0800000000000001 244.1382545175305 0.99999999999999989 
	46.272670744295908 5.0799999999999992 248.00037348685939 1 
	36.910287879161935 5.0799999999999983 252.26915408257739 1 
	29.09785514040431 5.0800000000000001 256.78833847674554 0.99999999999999978 
	23.20950966419322 5.0799999999999992 261.07432730448016 1 
	17.885855291872012 5.0799999999999983 266.16099744856319 1.0000000000000002 
	14.107654204734375 5.0800000000000001 271.56855381703264 1 
	11.987873607380132 5.0799999999999992 276.93212289925282 1 
	11.304567799833078 5.0799999999999992 282.49545057794774 1 
	11.73446008052262 5.0799999999999983 288.41041589842627 1 
	13.93345604357925 5.0800000000000001 296.09679544775656 0.99999999999999989 
	16.555433484253765 5.0799999999999992 302.02007793843939 1 
	20.610322631425372 5.0799999999999983 309.42154173899957 1 
	25.905615519085014 5.0799999999999983 317.34603280384323 1 
	32.31300370167714 5.0800000000000001 325.7525696293572 1 
	39.601919637213207 5.0799999999999992 334.40282070989036 1.0000000000000002 
	47.098731275951167 5.0799999999999992 342.71440005758825 1.0000000000000002 
	54.57567880610906 5.0799999999999992 350.65728705018961 1 
	61.392588358151258 5.0800000000000001 357.76883284285083 1 
	67.711085145575808 5.0799999999999992 364.35212632768236 1.0000000000000002 
	75.287854633508132 5.0799999999999983 372.60600220645216 1 
	79.322403541890495 5.0799999999999992 377.73552582689808 0.99999999999999978 
	80.852551336415772 5.0799999999999992 380.13593938127923 1.0000000000000002 
	81.229200000000048 5.0799999999999992 381 1 
	0 
	null_surface 
	null_surface 
	nullbs 
	nullbs 
	I I 
	0 
	0 
	36 0.027287593352191795 0.05429562531922686 0.081133350509355606 0.108034492942338 0.13489539729273467 0.16174842398855688 0.18859266744225728 0.21550799976759999 0.24251298589626788 0.26959253290406276 0.29673556292014769 0.32393793627845008 0.35119568064188533 0.37851035448248549 0.40582930688576657 0.43306772042197234 0.46022103608887949 0.48726838598122335 0.51420344401553753 0.54110844421482063 0.56795975241847063 0.59475193176734864 0.62152911689852797 0.6483504625535591 0.6752706967992419 0.70216232643396026 0.72915660826692474 0.75625202509717349 0.78342980205525892 0.81066124542004236 0.83789237416196427 0.86509183689560165 0.89221868264302995 0.91932012010302711 0.94646429450762248 0.9733459284439494 
	F 1 F 0 } I I #
edge $-1 $35 0 $79 5.0799999999999992 $53 $100 forward 7 unknown #
point $-1 141.99735117861607 5.0799999999999992 290.75380000000001 #
point $-1 241.65559999999999 5.0799999999999992 274.06599999999997 #
face $-1 $101 $78 $2 $-1 $102 forward single #
loop $-1 $-1 $103 $37 #
plane-surface $-1 190.5 2.5399999999999996 0 0 0 -1 1 0 0 forward_v I I I I #
coedge $-1 $95 $104 $70 $105 forward $38 $-1 #
coedge $-1 $74 $40 $69 $105 reversed $20 $-1 #
tcoedge-coedge $-1 $106 $45 $41 $72 forward $78 $107 0 1 #
tedge-edge $-1 $48 0 $75 1 $71 $108 forward 7 unknown 0.00068655003843345051 #
pcurve $-1 0 forward { exppc nurbs 3 open 38 
	-1 3 -0.97297297297297325 1 -0.94594594594594628 1 -0.9189189189189193 1 -0.89189189189189233 1 
	-0.86486486486486536 1 -0.83783783783783838 1 -0.8108108108108113 1 -0.78378378378378422 1 -0.75675675675675713 1 
	-0.72972972972973005 1 -0.70270270270270296 1 -0.67567567567567588 1 -0.64864864864864891 1 -0.62162162162162182 1 
	-0.59459459459459474 1 -0.56756756756756765 1 -0.54054054054054068 1 -0.5135135135135136 1 -0.48648648648648651 1 
	-0.45945945945945943 1 -0.43243243243243246 1 -0.40540540540540537 1 -0.37837837837837829 1 -0.35135135135135132 1 
	-0.32432432432432434 1 -0.29729729729729737 1 -0.27027027027027017 1 -0.2432432432432432 1 -0.21621621621621623 1 
	-0.18918918918918926 1 -0.16216216216216217 1 -0.13513513513513509 1 -0.10810810810810811 1 -0.081081081081081141 1 
	-0.054054054054054057 1 -0.027027027027027084 1 0 3 
	1 1 1 
	0.99099099099099119 1 0.99999999999999989 
	0.97297297297297303 1 1 
	0.94594594594594628 1 0.99999999999999978 
	0.91891891891891886 1 1 
	0.891891891891892 1 0.99999999999999978 
	0.8648648648648648 1 1.0000000000000002 
	0.83783783783783794 1 0.99999999999999989 
	0.81081081081081097 1 1.0000000000000002 
	0.78378378378378377 1 1 
	0.75675675675675658 1 1.0000000000000002 
	0.72972972972973027 1 1 
	0.70270270270270252 1 1.0000000000000002 
	0.67567567567567577 1 1 
	0.64864864864864857 1 1.0000000000000002 
	0.62162162162162171 1 1 
	0.59459459459459474 1 1.0000000000000002 
	0.56756756756756743 1 1 
	0.54054054054054068 1 1.0000000000000002 
	0.5135135135135136 1 1 
	0.48648648648648646 1 1.0000000000000002 
	0.45945945945945948 1 1 
	0.4324324324324324 1 1.0000000000000002 
	0.40540540540540543 1 1 
	0.37837837837837845 1 0.99999999999999967 
	0.35135135135135126 1 1.0000000000000002 
	0.3243243243243244 1 0.99999999999999956 
	0.29729729729729726 1 1 
	0.27027027027027034 1 0.99999999999999978 
	0.24324324324324323 1 0.99999999999999978 
	0.2162162162162162 1 0.99999999999999978 
	0.18918918918918923 1 1.0000000000000002 
	0.16216216216216214 1 1 
	0.13513513513513511 1 1.0000000000000002 
	0.10810810810810804 1 1 
	0.081081081081081335 1 1.0000000000000002 
	0.054054054054053786 1 1.0000000000000002 
	0.027027027027027049 1 0.99999999999999978 
	0.0090090090090090072 1 1.0000000000000002 
	0 1 1 
	0.001 
	spline forward { ref 0 } I I I I 
	} 0 0 #
coedge $-1 $42 $70 $106 $109 forward $20 $-1 #
tvertex-vertex $-1 $72 $110 0 #
straight-curve $-1 81.229200000000048 5.0799999999999992 381 0 -1 0 I I #
coedge $-1 $45 $111 $90 $112 forward $78 $-1 #
loop $-1 $-1 $106 $66 #
vertex $-1 $46 $113 #
straight-curve $-1 141.99735117861607 0 290.75380000000001 0.98626831238447832 0 -0.16515088854218521 I I #
point $-1 141.99735117861607 0 290.75380000000001 #
coedge $-1 $114 $50 $115 $116 forward $5 $-1 #
coedge $-1 $117 $118 $50 $84 reversed $119 $-1 #
edge $-1 $88 0 $120 73.247238475499159 $50 $121 forward 7 unknown #
coedge $-1 $122 $51 $54 $91 forward $87 $-1 #
coedge $-1 $51 $122 $117 $123 reversed $87 $-1 #
loop $-1 $-1 $85 $124 #
vertex $-1 $84 $125 #
straight-curve $-1 381 5.0799999999999992 381 -1 0 0 I I #
coedge $-1 $54 $53 $77 $112 reversed $55 $-1 #
edge $-1 $56 0 $126 5.0799999999999992 $85 $127 forward 7 unknown #
face $-1 $-1 $55 $2 $-1 $128 reversed single #
point $-1 241.65560000000002 5.0799999999999992 381 #
coedge $-1 $58 $129 $130 $131 reversed $5 $-1 #
coedge $-1 $132 $69 $58 $96 reversed $38 $-1 #
edge $-1 $133 0 $97 381 $58 $134 forward 7 unknown #
vertex $-1 $59 $135 #
straight-curve $-1 0 5.0799999999999992 381 1 0 0 I I #
point $-1 81.229200000000048 5.0799999999999992 381 #
straight-curve $-1 241.65559999999999 5.0799999999999992 274.06599999999997 0 -1 0 I I #
face $-1 $136 $137 $2 $-1 $138 forward single #
plane-surface $-1 0 0 0 0 -1 0 1 0 0 forward_v I I I I #
coedge $-1 $139 $140 $141 $142 reversed $67 $-1 #
coedge $-1 $69 $132 $143 $144 forward $38 $-1 #
edge $-1 $145 0 $97 5.0799999999999992 $69 $146 forward 7 unknown #
coedge $-1 $143 $71 $74 $109 reversed $78 $-1 #
pcurve $-1 0 forward { exppc nurbs 3 open 38 
	0 3 0.027287593352191795 1 0.05429562531922686 1 0.081133350509355606 1 0.108034492942338 1 
	0.13489539729273467 1 0.16174842398855688 1 0.18859266744225728 1 0.21550799976759999 1 0.24251298589626788 1 
	0.26959253290406276 1 0.29673556292014769 1 0.32393793627845008 1 0.35119568064188533 1 0.37851035448248549 1 
	0.40582930688576657 1 0.43306772042197234 1 0.46022103608887949 1 0.48726838598122335 1 0.51420344401553753 1 
	0.54110844421482063 1 0.56795975241847063 1 0.59475193176734864 1 0.62152911689852797 1 0.6483504625535591 1 
	0.6752706967992419 1 0.70216232643396026 1 0.72915660826692474 1 0.75625202509717349 1 0.78342980205525892 1 
	0.81066124542004236 1 0.83789237416196427 1 0.86509183689560165 1 0.89221868264302995 1 0.91932012010302711 1 
	0.94646429450762248 1 0.9733459284439494 1 1 3 
	141.99735117861607 290.75380000000001 1 
	144.39745872607537 286.89821344417743 1 
	148.24161568835197 280.01013095401123 1 
	150.5932293054469 271.92571369057964 0.99999999999999978 
	151.32157900608635 266.34860795714008 1 
	150.2118743851855 258.60086235173702 1 
	147.02118609769394 252.90581398974138 0.99999999999999978 
	142.28356224649198 248.10905086026258 0.99999999999999978 
	137.08159100479565 244.69646243211099 1 
	130.41576303817391 241.61152440042034 0.99999999999999967 
	122.31435847720167 239.13377530691096 1.0000000000000004 
	113.1196005573112 237.39457658928239 0.99999999999999967 
	103.04927649393451 236.45339746438074 1.0000000000000002 
	92.187404174012201 236.60700592607515 0.99999999999999978 
	80.79365708632578 238.02862732058477 1 
	68.780488070422976 240.66320343802536 1 
	56.79701207764257 244.1382545175305 0.99999999999999989 
	46.272670744295908 248.00037348685939 1 
	36.910287879161935 252.26915408257739 1 
	29.09785514040431 256.78833847674554 0.99999999999999978 
	23.20950966419322 261.07432730448016 1 
	17.885855291872012 266.16099744856319 1.0000000000000002 
	14.107654204734375 271.56855381703264 1 
	11.987873607380132 276.93212289925282 1 
	11.304567799833078 282.49545057794774 1 
	11.73446008052262 288.41041589842627 1 
	13.93345604357925 296.09679544775656 0.99999999999999989 
	16.555433484253765 302.02007793843939 1 
	20.610322631425372 309.42154173899957 1 
	25.905615519085014 317.34603280384323 1 
	32.31300370167714 325.7525696293572 1 
	39.601919637213207 334.40282070989036 1.0000000000000002 
	47.098731275951167 342.71440005758825 1.0000000000000002 
	54.57567880610906 350.65728705018961 1 
	61.392588358151258 357.76883284285083 1 
	67.711085145575808 364.35212632768236 1.0000000000000002 
	75.287854633508132 372.60600220645216 1 
	79.322403541890495 377.73552582689808 0.99999999999999978 
	80.852551336415772 380.13593938127923 1.0000000000000002 
	81.229200000000048 381 1 
	0 
	plane 0 0 0 0 -1 0 1 0 0 forward_v I I I I 
	} 0 0 #
intcurve-curve $-1 forward { exactcur full nurbs 3 open 38 
	0 3 0.027287593352191795 1 0.05429562531922686 1 0.081133350509355606 1 0.108034492942338 1 
	0.13489539729273467 1 0.16174842398855688 1 0.18859266744225728 1 0.21550799976759999 1 0.24251298589626788 1 
	0.26959253290406276 1 0.29673556292014769 1 0.32393793627845008 1 0.35119568064188533 1 0.37851035448248549 1 
	0.40582930688576657 1 0.43306772042197234 1 0.46022103608887949 1 0.48726838598122335 1 0.51420344401553753 1 
	0.54110844421482063 1 0.56795975241847063 1 0.59475193176734864 1 0.62152911689852797 1 0.6483504625535591 1 
	0.6752706967992419 1 0.70216232643396026 1 0.72915660826692474 1 0.75625202509717349 1 0.78342980205525892 1 
	0.81066124542004236 1 0.83789237416196427 1 0.86509183689560165 1 0.89221868264302995 1 0.91932012010302711 1 
	0.94646429450762248 1 0.9733459284439494 1 1 3 
	141.99735117861607 0 290.75380000000001 1 
	144.39745872607537 0 286.89821344417743 1 
	148.24161568835197 0 280.01013095401123 1 
	150.5932293054469 0 271.92571369057964 0.99999999999999978 
	151.32157900608635 0 266.34860795714008 1 
	150.2118743851855 0 258.60086235173702 1 
	147.02118609769394 0 252.90581398974138 0.99999999999999978 
	142.28356224649198 0 248.10905086026258 0.99999999999999978 
	137.08159100479565 0 244.69646243211099 1 
	130.41576303817391 0 241.61152440042034 0.99999999999999967 
	122.31435847720167 0 239.13377530691096 1.0000000000000004 
	113.1196005573112 0 237.39457658928239 0.99999999999999967 
	103.04927649393451 0 236.45339746438074 1.0000000000000002 
	92.187404174012201 0 236.60700592607515 0.99999999999999978 
	80.79365708632578 0 238.02862732058477 1 
	68.780488070422976 0 240.66320343802536 1 
	56.79701207764257 0 244.1382545175305 0.99999999999999989 
	46.272670744295908 0 248.00037348685939 1 
	36.910287879161935 0 252.26915408257739 1 
	29.09785514040431 0 256.78833847674554 0.99999999999999978 
	23.20950966419322 0 261.07432730448016 1 
	17.885855291872012 0 266.16099744856319 1.0000000000000002 
	14.107654204734375 0 271.56855381703264 1 
	11.987873607380132 0 276.93212289925282 1 
	11.304567799833078 0 282.49545057794774 1 
	11.73446008052262 0 288.41041589842627 1 
	13.93345604357925 0 296.09679544775656 0.99999999999999989 
	16.555433484253765 0 302.02007793843939 1 
	20.610322631425372 0 309.42154173899957 1 
	25.905615519085014 0 317.34603280384323 1 
	32.31300370167714 0 325.7525696293572 1 
	39.601919637213207 0 334.40282070989036 1.0000000000000002 
	47.098731275951167 0 342.71440005758825 1.0000000000000002 
	54.57567880610906 0 350.65728705018961 1 
	61.392588358151258 0 357.76883284285083 1 
	67.711085145575808 0 364.35212632768236 1.0000000000000002 
	75.287854633508132 0 372.60600220645216 1 
	79.322403541890495 0 377.73552582689808 0.99999999999999978 
	80.852551336415772 0 380.13593938127923 1.0000000000000002 
	81.229200000000048 0 381 1 
	0 
	null_surface 
	null_surface 
	nullbs 
	nullbs 
	I I 
	0 
	0 
	36 0.027287593352191795 0.05429562531922686 0.081133350509355606 0.108034492942338 0.13489539729273467 0.16174842398855688 0.18859266744225728 0.21550799976759999 0.24251298589626788 0.26959253290406276 0.29673556292014769 0.32393793627845008 0.35119568064188533 0.37851035448248549 0.40582930688576657 0.43306772042197234 0.46022103608887949 0.48726838598122335 0.51420344401553753 0.54110844421482063 0.56795975241847063 0.59475193176734864 0.62152911689852797 0.6483504625535591 0.6752706967992419 0.70216232643396026 0.72915660826692474 0.75625202509717349 0.78342980205525892 0.81066124542004236 0.83789237416196427 0.86509183689560165 0.89221868264302995 0.91932012010302711 0.94646429450762248 0.9733459284439494 
	F 1 F 0 } I I #
edge $-1 $145 0 $75 81.229200000000048 $106 $147 forward 7 unknown #
point $-1 81.229200000000048 0 381 #
coedge $-1 $77 $148 $122 $149 forward $78 $-1 #
edge $-1 $126 0 $79 106.93400000000003 $77 $150 forward 7 unknown #
point $-1 241.65559999999999 0 274.06599999999997 #
coedge $-1 $151 $82 $152 $153 forward $5 $-1 #
coedge $-1 $154 $155 $82 $116 reversed $156 $-1 #
edge $-1 $120 0 $157 94.86755486633443 $82 $158 forward 7 unknown #
coedge $-1 $159 $83 $86 $123 forward $119 $-1 #
coedge $-1 $83 $159 $154 $160 reversed $119 $-1 #
loop $-1 $-1 $117 $161 #
vertex $-1 $116 $162 #
straight-curve $-1 381 5.0799999999999992 381 0 0 -1 I I #
coedge $-1 $86 $85 $111 $149 reversed $87 $-1 #
edge $-1 $88 0 $163 5.0799999999999992 $117 $164 forward 7 unknown #
face $-1 $92 $87 $2 $-1 $165 reversed single #
point $-1 381 5.0799999999999992 381 #
vertex $-1 $112 $166 #
straight-curve $-1 241.65559999999999 5.0799999999999992 381 0 -1 0 I I #
plane-surface $-1 241.65559999999999 2.5399999999999996 327.53300000000002 1 0 0 0 0 -1 forward_v I I I I #
coedge $-1 $94 $167 $168 $169 forward $5 $-1 #
coedge $-1 $140 $139 $94 $131 forward $67 $-1 #
edge $-1 $133 0 $170 234.13720000000001 $94 $171 forward 7 unknown #
coedge $-1 $104 $95 $139 $172 reversed $38 $-1 #
vertex $-1 $96 $173 #
straight-curve $-1 0 5.0799999999999992 0 0 0 1 I I #
point $-1 0 5.0799999999999992 381 #
face $-1 $174 $175 $2 $-1 $176 forward single #
loop $-1 $-1 $177 $101 #
plane-surface $-1 144.32279999999997 2.5399999999999996 15.039444923483357 0.16515088854218524 0 0.98626831238447832 0.98626831238447832 0 -0.16515088854218524 forward_v I I I I #
coedge $-1 $130 $103 $132 $172 forward $67 $-1 #
coedge $-1 $103 $130 $178 $179 forward $67 $-1 #
coedge $-1 $180 $143 $103 $142 forward $78 $-1 #
edge $-1 $181 0 $182 234.13720000000001 $141 $183 forward 7 unknown #
coedge $-1 $141 $106 $104 $144 reversed $78 $-1 #
edge $-1 $181 0 $145 381 $104 $184 forward 7 unknown #
vertex $-1 $144 $185 #
straight-curve $-1 0 0 381 0 1 0 I I #
straight-curve $-1 0 0 381 1 0 0 I I #
coedge $-1 $111 $186 $159 $187 reversed $78 $-1 #
edge $-1 $163 0 $126 139.34440000000001 $111 $188 forward 7 unknown #
straight-curve $-1 241.65559999999999 0 381 0 0 -1 I I #
coedge $-1 $189 $114 $190 $191 forward $5 $-1 #
coedge $-1 $192 $193 $114 $153 reversed $194 $-1 #
edge $-1 $157 0 $195 81.407143922982286 $114 $196 forward 7 unknown #
coedge $-1 $197 $115 $118 $160 forward $156 $-1 #
coedge $-1 $115 $197 $192 $198 reversed $156 $-1 #
loop $-1 $-1 $154 $199 #
vertex $-1 $153 $200 #
straight-curve $-1 381 5.0799999999999992 307.75276152450084 -0.50014148743320908 0 -0.86594370056493686 I I #
coedge $-1 $118 $117 $148 $187 forward $119 $-1 #
edge $-1 $120 0 $201 5.0799999999999992 $154 $202 forward 7 unknown #
face $-1 $124 $119 $2 $-1 $203 forward single #
point $-1 381 5.0799999999999992 307.75276152450084 #
vertex $-1 $149 $204 #
straight-curve $-1 381 5.0799999999999992 381 0 -1 0 I I #
plane-surface $-1 311.32780000000002 2.5399999999999996 381 0 0 -1 -1 0 0 forward_v I I I I #
point $-1 241.65559999999999 0 381 #
coedge $-1 $129 $205 $206 $207 forward $5 $-1 #
coedge $-1 $177 $178 $129 $169 reversed $137 $-1 #
edge $-1 $208 1.4015715697503288e-014 $170 182.12974881623811 $129 $209 forward 7 unknown #
vertex $-1 $131 $210 #
straight-curve $-1 0 5.0799999999999992 0 1 0 0 I I #
edge $-1 $181 0 $133 5.0799999999999992 $132 $211 forward 7 unknown #
point $-1 0 5.0799999999999992 0 #
face $-1 $212 $213 $2 $-1 $214 forward single #
loop $-1 $-1 $215 $136 #
plane-surface $-1 54.508399999999995 2.5399999999999996 83.558589846966711 1 0 0 0 0 -1 forward_v I I I I #
coedge $-1 $216 $168 $217 $218 forward $137 $-1 #
coedge $-1 $168 $216 $140 $179 reversed $137 $-1 #
edge $-1 $170 0 $182 5.0799999999999992 $140 $219 forward 7 unknown #
coedge $-1 $220 $141 $216 $221 reversed $78 $-1 #
vertex $-1 $144 $222 #
vertex $-1 $221 $223 #
straight-curve $-1 0 0 0 1 0 0 I I #
straight-curve $-1 0 0 0 0 0 1 I I #
point $-1 0 0 381 #
coedge $-1 $148 $224 $197 $225 reversed $78 $-1 #
edge $-1 $163 0 $201 73.247238475499103 $148 $226 forward 7 unknown #
straight-curve $-1 381 0 381 -1 0 0 I I #
coedge $-1 $227 $151 $228 $229 forward $5 $-1 #
coedge $-1 $230 $231 $151 $191 reversed $232 $-1 #
edge $-1 $195 0 $233 138.64476701557447 $151 $234 forward 7 unknown #
coedge $-1 $235 $152 $155 $198 forward $194 $-1 #
coedge $-1 $152 $235 $230 $236 reversed $194 $-1 #
loop $-1 $-1 $192 $237 #
vertex $-1 $191 $238 #
straight-curve $-1 333.55279999999999 5.0799999999999992 225.6028 -0.67737789759790712 0 0.73563522471795695 I I #
coedge $-1 $155 $154 $186 $225 forward $156 $-1 #
edge $-1 $157 0 $239 5.0799999999999992 $192 $240 forward 7 unknown #
face $-1 $161 $156 $2 $-1 $241 forward single #
point $-1 333.55279999999999 5.0799999999999992 225.6028 #
vertex $-1 $187 $242 #
straight-curve $-1 381 5.0799999999999992 307.7527615245009 0 -1 0 I I #
plane-surface $-1 381 2.5399999999999996 344.37638076225045 1 0 0 0 0 -1 forward_v I I I I #
point $-1 381 0 381 #
coedge $-1 $167 $243 $244 $245 forward $5 $-1 #
coedge $-1 $215 $217 $167 $207 reversed $175 $-1 #
edge $-1 $246 0 $208 106.95939999999999 $167 $247 forward 7 unknown #
vertex $-1 $169 $248 #
straight-curve $-1 54.50839999999998 5.0799999999999992 30.078889846966714 0.98626831238447821 0 -0.16515088854218521 I I #
point $-1 234.13720000000001 5.0799999999999992 -7.1054273576010019e-015 #
straight-curve $-1 0 0 0 0 1 0 I I #
face $-1 $249 $250 $2 $-1 $251 forward single #
loop $-1 $-1 $252 $174 #
plane-surface $-1 111.3155 2.5399999999999996 123.24344492348335 -0.23597850793223599 0 -0.97175827436357631 -0.97175827436357631 0 0.23597850793223599 forward_v I I I I #
coedge $-1 $253 $206 $254 $255 forward $175 $-1 #
coedge $-1 $178 $177 $180 $221 forward $137 $-1 #
coedge $-1 $206 $253 $177 $218 reversed $175 $-1 #
edge $-1 $208 0 $256 5.0799999999999992 $177 $257 forward 7 unknown #
straight-curve $-1 234.13720000000001 5.0799999999999992 0 0 -1 0 I I #
coedge $-1 $258 $180 $253 $259 reversed $78 $-1 #
edge $-1 $256 1.3428981876713409e-014 $182 182.12974881623811 $180 $260 forward 7 unknown #
point $-1 0 0 0 #
point $-1 234.13720000000001 0 -7.1054273576010019e-015 #
coedge $-1 $186 $261 $235 $262 reversed $78 $-1 #
edge $-1 $201 -4.9223200481090832e-014 $239 94.867554866334373 $186 $263 forward 7 unknown #
straight-curve $-1 381 0 381 0 0 -1 I I #
coedge $-1 $264 $189 $265 $266 reversed $5 $-1 #
coedge $-1 $267 $268 $189 $229 reversed $269 $-1 #
edge $-1 $233 0 $270 174.32639560762377 $189 $271 forward 7 unknown #
coedge $-1 $272 $190 $193 $236 forward $232 $-1 #
coedge $-1 $190 $272 $267 $273 reversed $232 $-1 #
loop $-1 $-1 $230 $274 #
vertex $-1 $229 $275 #
straight-curve $-1 278.40940000000001 5.0799999999999992 285.48876261343014 -0.50014148743320808 0 -0.86594370056493752 I I #
coedge $-1 $193 $192 $224 $262 forward $194 $-1 #
edge $-1 $195 0 $276 5.0799999999999992 $230 $277 forward 7 unknown #
face $-1 $199 $194 $2 $-1 $278 forward single #
point $-1 278.40940000000001 5.0799999999999992 285.48876261343014 #
vertex $-1 $225 $279 #
straight-curve $-1 333.55279999999993 5.0799999999999992 225.60280000000003 0 -1 0 I I #
plane-surface $-1 357.27639999999997 2.5399999999999996 266.67778076225045 0.86594370056493719 0 -0.50014148743320863 -0.50014148743320863 0 -0.86594370056493719 forward_v I I I I #
point $-1 381 0 307.7527615245009 #
coedge $-1 $205 $280 $281 $282 forward $5 $-1 #
coedge $-1 $252 $254 $205 $245 reversed $213 $-1 #
edge $-1 $283 0 $246 116.91611277959861 $205 $284 forward 7 unknown #
vertex $-1 $207 $285 #
straight-curve $-1 54.508399999999995 5.0799999999999992 137.03828984696671 0 0 -1 I I #
point $-1 54.508399999999995 5.0799999999999992 30.078889846966714 #
face $-1 $286 $287 $2 $-1 $288 forward single #
loop $-1 $-1 $289 $212 #
plane-surface $-1 176.47919999999999 2.5399999999999996 82.295999999999992 -0.95575967543716511 0 -0.29414867466681699 -0.29414867466681693 0 0.955759675437165 forward_v I I I I #
coedge $-1 $290 $244 $291 $292 forward $213 $-1 #
coedge $-1 $217 $215 $220 $259 forward $175 $-1 #
coedge $-1 $244 $290 $215 $255 reversed $213 $-1 #
edge $-1 $246 0 $293 5.0799999999999992 $215 $294 forward 7 unknown #
vertex $-1 $259 $295 #
straight-curve $-1 54.50839999999998 5.0799999999999992 30.078889846966714 0 -1 0 I I #
coedge $-1 $296 $220 $290 $297 reversed $78 $-1 #
edge $-1 $293 0 $256 106.95939999999999 $220 $298 forward 7 unknown #
straight-curve $-1 54.50839999999998 0 30.078889846966714 0.98626831238447821 0 -0.16515088854218521 I I #
coedge $-1 $224 $299 $272 $300 reversed $78 $-1 #
edge $-1 $239 4.1816021207407469e-014 $276 81.407143922982286 $224 $301 forward 7 unknown #
straight-curve $-1 381 0 307.75276152450084 -0.50014148743320908 0 -0.86594370056493686 I I #
coedge $-1 $302 $227 $303 $304 forward $5 $-1 #
coedge $-1 $305 $306 $227 $266 forward $307 $-1 #
edge $-1 $308 0 $270 136.64004086904438 $227 $309 forward 7 unknown #
coedge $-1 $310 $228 $231 $273 forward $269 $-1 #
coedge $-1 $228 $310 $305 $311 reversed $269 $-1 #
loop $-1 $-1 $267 $312 #
vertex $-1 $266 $313 #
straight-curve $-1 209.06740000000002 5.0799999999999992 165.43019999999999 0.98626831238447821 0 -0.16515088854218549 I I #
coedge $-1 $231 $230 $261 $300 forward $232 $-1 #
edge $-1 $233 0 $314 5.0799999999999992 $267 $315 forward 7 unknown #
face $-1 $237 $232 $2 $-1 $316 forward single #
point $-1 209.06740000000002 5.0799999999999992 165.43019999999999 #
vertex $-1 $262 $317 #
straight-curve $-1 278.40940000000001 5.0799999999999992 285.48876261343014 0 -1 0 I I #
plane-surface $-1 305.98109999999997 2.5399999999999996 255.54578130671507 -0.73563522471795706 0 -0.67737789759790734 -0.67737789759790734 0 0.73563522471795706 forward_v I I I I #
point $-1 333.55279999999999 0 225.60280000000006 #
coedge $-1 $243 $318 $319 $320 forward $5 $-1 #
coedge $-1 $289 $291 $243 $282 reversed $250 $-1 #
edge $-1 $321 -8.3602081607187128e-015 $283 56.818885955991774 $243 $322 forward 7 unknown #
vertex $-1 $245 $323 #
straight-curve $-1 168.12260000000001 5.0799999999999992 109.4486 -0.97175827436357631 0 0.23597850793223599 I I #
point $-1 54.508399999999995 5.0799999999999992 137.03828984696671 #
face $-1 $324 $325 $2 $-1 $326 forward single #
loop $-1 $-1 $327 $249 #
plane-surface $-1 224.52330000000003 2.5399999999999996 93.992700000000013 0.69952020113887892 0 -0.71461282398136572 -0.71461282398136572 0 -0.69952020113887892 forward_v I I I I #
coedge $-1 $328 $281 $329 $330 forward $250 $-1 #
coedge $-1 $254 $252 $258 $297 forward $213 $-1 #
coedge $-1 $281 $328 $252 $292 reversed $250 $-1 #
edge $-1 $283 0 $331 5.0799999999999992 $252 $332 forward 7 unknown #
vertex $-1 $297 $333 #
straight-curve $-1 54.508399999999995 5.0799999999999992 137.03828984696671 0 -1 0 I I #
point $-1 54.508399999999995 0 30.078889846966717 #
coedge $-1 $334 $258 $328 $335 reversed $78 $-1 #
edge $-1 $331 2.7619031310552382e-014 $293 116.91611277959861 $258 $336 forward 7 unknown #
straight-curve $-1 54.508399999999995 0 137.03828984696671 0 0 -1 I I #
coedge $-1 $261 $337 $310 $338 reversed $78 $-1 #
edge $-1 $276 0 $314 138.64476701557444 $261 $339 forward 7 unknown #
straight-curve $-1 333.55279999999999 0 225.6028 -0.67737789759790712 0 0.73563522471795695 I I #
coedge $-1 $318 $264 $340 $341 forward $5 $-1 #
coedge $-1 $342 $343 $264 $304 reversed $344 $-1 #
edge $-1 $308 0 $345 70.002400000000023 $264 $346 forward 7 unknown #
coedge $-1 $347 $265 $268 $311 forward $307 $-1 #
coedge $-1 $265 $347 $342 $348 reversed $307 $-1 #
loop $-1 $-1 $305 $349 #
vertex $-1 $304 $350 #
straight-curve $-1 381 5.0799999999999992 0 0 0 1 I I #
coedge $-1 $268 $267 $299 $338 forward $269 $-1 #
edge $-1 $270 0 $351 5.0799999999999992 $305 $352 forward 7 unknown #
face $-1 $274 $269 $2 $-1 $353 forward single #
point $-1 381 5.0799999999999992 136.64004086904438 #
vertex $-1 $300 $354 #
straight-curve $-1 209.06740000000002 5.0799999999999992 165.43019999999999 0 -1 0 I I #
plane-surface $-1 243.73840000000001 2.5399999999999996 225.45948130671508 0.86594370056493752 0 -0.50014148743320797 -0.50014148743320797 0 -0.86594370056493752 forward_v I I I I #
point $-1 278.40940000000001 0 285.48876261343014 #
coedge $-1 $280 $302 $355 $356 forward $5 $-1 #
coedge $-1 $327 $329 $280 $320 reversed $287 $-1 #
edge $-1 $357 0 $321 111.07413320373026 $280 $358 forward 7 unknown #
vertex $-1 $282 $359 #
straight-curve $-1 184.83579999999998 5.0799999999999992 55.1434 -0.29414867466681699 0 0.95575967543716511 I I #
point $-1 168.12260000000001 5.0799999999999992 109.4486 #
face $-1 $360 $361 $2 $-1 $362 forward single #
loop $-1 $-1 $363 $286 #
plane-surface $-1 312.67400000000004 2.5399999999999996 104.85120000000001 -0.50014148743320852 0 -0.8659437005649373 -0.8659437005649373 0 0.50014148743320852 forward_v I I I I #
coedge $-1 $364 $319 $365 $366 forward $287 $-1 #
coedge $-1 $291 $289 $296 $335 forward $250 $-1 #
coedge $-1 $319 $364 $289 $330 reversed $287 $-1 #
edge $-1 $321 0 $367 5.0799999999999992 $289 $368 forward 7 unknown #
vertex $-1 $335 $369 #
straight-curve $-1 168.12259999999998 5.0799999999999992 109.4486 0 -1 0 I I #
point $-1 54.508399999999995 0 137.03828984696671 #
coedge $-1 $370 $296 $364 $371 reversed $78 $-1 #
edge $-1 $367 -8.3602081607187128e-015 $331 56.818885955991782 $296 $372 forward 7 unknown #
straight-curve $-1 168.12260000000001 0 109.4486 -0.97175827436357631 0 0.23597850793223599 I I #
coedge $-1 $299 $373 $347 $374 forward $78 $-1 #
edge $-1 $314 -4.6938705663190344e-015 $351 174.32639560762377 $299 $375 forward 7 unknown #
straight-curve $-1 278.40940000000001 0 285.48876261343014 -0.50014148743320808 0 -0.86594370056493752 I I #
coedge $-1 $376 $377 $302 $341 reversed $361 $-1 #
edge $-1 $345 1.1902223423879645e-014 $378 91.768734198091693 $302 $379 forward 7 unknown #
coedge $-1 $380 $303 $306 $348 forward $344 $-1 #
coedge $-1 $303 $380 $376 $381 reversed $344 $-1 #
loop $-1 $-1 $342 $360 #
vertex $-1 $341 $382 #
straight-curve $-1 381 5.0799999999999992 0 -1 0 0 I I #
coedge $-1 $306 $305 $337 $374 reversed $307 $-1 #
edge $-1 $308 0 $383 5.0799999999999992 $342 $384 forward 7 unknown #
face $-1 $312 $307 $2 $-1 $385 reversed single #
point $-1 381 5.0799999999999992 0 #
vertex $-1 $338 $386 #
straight-curve $-1 381 5.0799999999999992 136.64004086904438 0 -1 0 I I #
plane-surface $-1 295.03370000000001 2.5399999999999996 151.03512043452218 0.16515088854218549 0 0.98626831238447821 0.98626831238447821 0 -0.16515088854218549 forward_v I I I I #
point $-1 209.06740000000002 0 165.43020000000001 #
coedge $-1 $363 $365 $318 $356 reversed $325 $-1 #
edge $-1 $378 -7.1074380149583534e-015 $357 111.9315261913282 $318 $387 forward 7 unknown #
vertex $-1 $320 $388 #
straight-curve $-1 264.21080000000006 5.0799999999999992 132.84200000000001 -0.71461282398136572 0 -0.69952020113887892 I I #
point $-1 184.83580000000001 5.0799999999999992 55.1434 #
face $-1 $349 $344 $2 $-1 $389 forward single #
loop $-1 $-1 $376 $324 #
plane-surface $-1 336.06740000000002 2.5399999999999996 38.430199999999992 -0.83754451526038687 0 0.54636909224190522 0.54636909224190522 0 0.83754451526038687 forward_v I I I I #
coedge $-1 $390 $355 $377 $391 forward $325 $-1 #
coedge $-1 $329 $327 $334 $371 forward $287 $-1 #
coedge $-1 $355 $390 $327 $366 reversed $325 $-1 #
edge $-1 $357 0 $392 5.0799999999999992 $327 $393 forward 7 unknown #
vertex $-1 $371 $394 #
straight-curve $-1 184.83579999999998 5.0799999999999992 55.1434 0 -1 0 I I #
point $-1 168.12259999999998 0 109.4486 #
coedge $-1 $395 $334 $390 $396 reversed $78 $-1 #
edge $-1 $392 0 $367 111.07413320373026 $334 $397 forward 7 unknown #
straight-curve $-1 184.83579999999998 0 55.1434 -0.29414867466681699 0 0.95575967543716511 I I #
coedge $-1 $337 $395 $380 $398 reversed $78 $-1 #
edge $-1 $383 0 $351 136.64004086904438 $337 $399 forward 7 unknown #
straight-curve $-1 209.06740000000002 0 165.43019999999999 0.98626831238447821 0 -0.16515088854218549 I I #
coedge $-1 $400 $340 $343 $381 forward $361 $-1 #
coedge $-1 $340 $400 $363 $391 reversed $361 $-1 #
vertex $-1 $356 $401 #
straight-curve $-1 310.99759999999998 5.0799999999999992 -1.4210854715202004e-014 0.54636909224190522 0 0.83754451526038687 I I #
coedge $-1 $343 $342 $373 $398 forward $344 $-1 #
edge $-1 $345 0 $402 5.0799999999999992 $376 $403 forward 7 unknown #
point $-1 310.99759999999998 5.0799999999999992 0 #
vertex $-1 $374 $404 #
straight-curve $-1 381 5.0799999999999992 0 0 -1 0 I I #
plane-surface $-1 381 2.5399999999999996 68.32002043452222 -1 0 0 0 0 1 forward_v I I I I #
point $-1 381 0 136.64004086904438 #
straight-curve $-1 361.13720000000001 5.0799999999999992 76.860399999999998 -0.8659437005649373 0 0.50014148743320841 I I #
point $-1 264.21080000000006 5.0799999999999992 132.84200000000001 #
plane-surface $-1 345.99879999999996 2.5399999999999996 0 0 0 -1 -1 0 0 forward_v I I I I #
coedge $-1 $365 $363 $370 $396 forward $325 $-1 #
edge $-1 $378 0 $405 5.0799999999999992 $363 $406 forward 7 unknown #
vertex $-1 $396 $407 #
straight-curve $-1 264.21080000000006 5.0799999999999992 132.84200000000001 0 -1 0 I I #
point $-1 184.83580000000001 0 55.1434 #
coedge $-1 $373 $370 $400 $408 reversed $78 $-1 #
edge $-1 $405 -1.4214876029916707e-014 $392 111.9315261913282 $370 $409 forward 7 unknown #
straight-curve $-1 264.21080000000006 0 132.84200000000001 -0.71461282398136572 0 -0.69952020113887892 I I #
edge $-1 $383 0 $402 70.002400000000023 $373 $410 forward 7 unknown #
straight-curve $-1 381 0 0 0 0 1 I I #
coedge $-1 $377 $376 $395 $408 forward $361 $-1 #
point $-1 361.13720000000001 5.0799999999999992 76.860399999999984 #
vertex $-1 $398 $411 #
straight-curve $-1 310.99759999999998 5.0799999999999992 -1.4210854715202004e-014 0 -1 0 I I #
point $-1 381 0 0 #
vertex $-1 $408 $412 #
straight-curve $-1 361.13720000000001 5.0799999999999992 76.860399999999984 0 -1 0 I I #
point $-1 264.21080000000006 0 132.84200000000001 #
edge $-1 $402 1.1902223423879645e-014 $405 91.768734198091678 $395 $413 forward 7 unknown #
straight-curve $-1 361.13720000000001 0 76.860399999999998 -0.8659437005649373 0 0.50014148743320841 I I #
straight-curve $-1 381 0 0 -1 0 0 I I #
point $-1 310.99759999999998 0 0 #
point $-1 361.13720000000001 0 76.86039999999997 #
straight-curve $-1 310.99759999999998 0 -1.4210854715202004e-014 0.54636909224190522 0 0.83754451526038687 I I #
End-of-ACIS-data 