600 0 1 0           
101 GICL ACIS Healer - Source: /gicl/data5/repository/PTC/V20/NC_Training_Rel20/DXF/part_32.prt.sat - 6 0 18 ACIS 6.0.3 Solaris 24 Sat Apr 13 20:51:06 2002 
1 9.999999999999999547e-07 1.000000000000000036e-10 
body $-1 $1 $-1 $-1 #
lump $-1 $-1 $2 $0 #
shell $-1 $-1 $-1 $3 $-1 $1 #
face $-1 $4 $5 $2 $-1 $6 reversed single #
face $-1 $7 $8 $2 $-1 $9 forward single #
loop $-1 $-1 $10 $3 #
plane-surface $-1 0 5.079999999999999183 0 0 -1 0 1 0 0 forward_v I I I I #
face $-1 $11 $12 $2 $-1 $13 forward single #
loop $-1 $-1 $14 $4 #
plane-surface $-1 38.09999999999999432 2.539999999999999591 19.04999999999999716 1 0 0 0 0 1 forward_v I I I I #
coedge $-1 $15 $16 $17 $18 reversed $5 $-1 #
face $-1 $19 $20 $2 $-1 $21 reversed single #
loop $-1 $-1 $22 $7 #
plane-surface $-1 0 0 0 0 -1 0 1 0 0 forward_v I I I I #
coedge $-1 $23 $24 $25 $26 reversed $8 $-1 #
coedge $-1 $27 $10 $28 $29 reversed $5 $-1 #
coedge $-1 $10 $30 $31 $32 forward $5 $-1 #
coedge $-1 $24 $23 $10 $18 forward $8 $-1 #
edge $-1 $33 0 $34 7.391399999999996417 $10 $35 forward 7 unknown #
face $-1 $36 $37 $2 $-1 $38 reversed single #
loop $-1 $-1 $39 $11 #
plane-surface $-1 19.04999999999999716 2.539999999999999591 38.09999999999999432 0 0 -1 1 0 0 forward_v I I I I #
coedge $-1 $40 $41 $42 $43 reversed $12 $-1 #
coedge $-1 $17 $14 $44 $45 forward $8 $-1 #
coedge $-1 $14 $17 $46 $47 forward $8 $-1 #
coedge $-1 $41 $48 $14 $26 forward $12 $-1 #
edge $-1 $49 0 $50 7.391399999999996417 $25 $51 forward 7 unknown #
coedge $-1 $30 $15 $52 $53 forward $5 $-1 #
coedge $-1 $44 $54 $15 $29 forward $55 $-1 #
edge $-1 $56 0 $33 38.09999999999999432 $15 $57 forward 7 unknown #
coedge $-1 $16 $27 $39 $58 forward $5 $-1 #
coedge $-1 $59 $46 $16 $32 reversed $60 $-1 #
edge $-1 $61 0 $34 41.37324970032858573 $16 $62 forward 7 unknown #
vertex $-1 $29 $63 #
vertex $-1 $32 $64 #
straight-curve $-1 38.09999999999999432 5.079999999999999183 0 0 0 1 I I #
face $-1 $65 $55 $2 $-1 $66 forward single #
loop $-1 $-1 $67 $19 #
plane-surface $-1 0 2.539999999999999591 19.04999999999999716 1 0 0 0 0 1 forward_v I I I I #
coedge $-1 $68 $69 $30 $58 reversed $20 $-1 #
coedge $-1 $48 $22 $70 $71 reversed $12 $-1 #
coedge $-1 $22 $25 $72 $73 reversed $12 $-1 #
coedge $-1 $69 $68 $22 $43 forward $20 $-1 #
edge $-1 $74 0 $75 10.37406129982721126 $22 $76 forward 7 unknown #
coedge $-1 $77 $28 $23 $45 reversed $55 $-1 #
edge $-1 $49 0 $33 5.079999999999999183 $44 $78 forward 7 unknown #
coedge $-1 $31 $72 $24 $47 reversed $60 $-1 #
edge $-1 $34 0 $50 5.079999999999999183 $24 $79 forward 7 unknown #
coedge $-1 $25 $40 $77 $80 forward $12 $-1 #
vertex $-1 $80 $81 #
vertex $-1 $73 $82 #
straight-curve $-1 38.09999999999999432 0 0 0 0 1 I I #
coedge $-1 $83 $67 $27 $53 reversed $37 $-1 #
edge $-1 $56 0 $84 38.09999999999999432 $27 $85 forward 7 unknown #
coedge $-1 $28 $77 $83 $86 forward $55 $-1 #
loop $-1 $-1 $54 $36 #
vertex $-1 $53 $87 #
straight-curve $-1 0 5.079999999999999183 0 1 0 0 I I #
edge $-1 $84 0 $61 10.37406129982721126 $30 $88 forward 7 unknown #
coedge $-1 $72 $31 $69 $89 forward $60 $-1 #
loop $-1 $-1 $59 $65 #
vertex $-1 $32 $90 #
straight-curve $-1 10.37406129982721126 5.079999999999999183 38.09999999999999432 0.6701416712729865166 0 -0.7422332116144145786 I I #
point $-1 38.09999999999999432 5.079999999999999183 0 #
point $-1 38.09999999999999432 5.079999999999999183 7.391399999999996417 #
face $-1 $-1 $60 $2 $-1 $91 forward single #
plane-surface $-1 19.04999999999999716 2.539999999999999591 0 0 0 -1 1 0 0 forward_v I I I I #
coedge $-1 $52 $70 $68 $92 forward $37 $-1 #
coedge $-1 $42 $39 $67 $92 reversed $20 $-1 #
coedge $-1 $39 $42 $59 $89 reversed $20 $-1 #
coedge $-1 $67 $83 $40 $71 forward $37 $-1 #
edge $-1 $93 0 $74 38.09999999999999432 $70 $94 forward 7 unknown #
coedge $-1 $46 $59 $41 $73 forward $60 $-1 #
edge $-1 $75 0 $50 41.37324970032858573 $41 $95 forward 7 unknown #
vertex $-1 $71 $96 #
vertex $-1 $73 $97 #
straight-curve $-1 0 0 38.09999999999999432 1 0 0 I I #
coedge $-1 $54 $44 $48 $80 reversed $55 $-1 #
straight-curve $-1 38.09999999999999432 0 0 0 1 0 I I #
straight-curve $-1 38.09999999999999432 5.079999999999999183 7.391400000000000858 0 -1 0 I I #
edge $-1 $93 0 $49 38.09999999999999432 $77 $98 forward 7 unknown #
point $-1 38.09999999999999432 0 0 #
point $-1 38.09999999999999432 0 7.391399999999996417 #
coedge $-1 $70 $52 $54 $86 reversed $37 $-1 #
vertex $-1 $58 $99 #
straight-curve $-1 0 5.079999999999999183 0 0 0 1 I I #
edge $-1 $93 0 $56 5.079999999999999183 $83 $100 forward 7 unknown #
point $-1 0 5.079999999999999183 0 #
straight-curve $-1 0 5.079999999999999183 38.09999999999999432 1 0 0 I I #
edge $-1 $61 0 $75 5.079999999999999183 $69 $101 forward 7 unknown #
point $-1 10.37406129982721126 5.079999999999999183 38.09999999999999432 #
plane-surface $-1 24.23703064991360279 2.539999999999999591 22.74569999999999581 0.7422332116144146896 0 0.6701416712729866276 0.6701416712729865166 0 -0.7422332116144145786 forward_v I I I I #
edge $-1 $74 0 $84 5.079999999999999183 $67 $102 forward 7 unknown #
vertex $-1 $71 $103 #
straight-curve $-1 0 0 0 0 0 1 I I #
straight-curve $-1 10.37406129982721126 0 38.09999999999999432 0.6701416712729865166 0 -0.7422332116144145786 I I #
point $-1 0 0 38.09999999999999432 #
point $-1 10.37406129982721126 0 38.09999999999999432 #
straight-curve $-1 0 0 0 1 0 0 I I #
point $-1 0 5.079999999999999183 38.09999999999999432 #
straight-curve $-1 0 0 0 0 1 0 I I #
straight-curve $-1 10.37406129982721126 5.079999999999999183 38.09999999999999432 0 -1 0 I I #
straight-curve $-1 0 0 38.09999999999999432 0 1 0 I I #
point $-1 0 0 0 #
End-of-ACIS-data 