600 0 1 0           
103 GICL Pro/E ACIS Translator - Source: f:/data5/repository/PTC/V20/NC_Training_Rel20/DXF/part_8.prt - 6 0 13 ACIS 6.0.3 NT 24 Thu Apr 04 13:14:00 2002 
1 9.9999999999999995e-007 1e-010 
body $-1 $1 $-1 $-1 #
lump $-1 $-1 $2 $0 #
shell $-1 $-1 $-1 $3 $-1 $1 #
face $-1 $4 $5 $2 $-1 $6 forward single #
face $-1 $7 $8 $2 $-1 $9 reversed single #
loop $-1 $-1 $10 $3 #
plane-surface $-1 -260.60399999999998 -36.550599999999996 -330.19999999999999 0 0 1 0 1 0 forward_v I I I I #
face $-1 $11 $12 $2 $-1 $13 forward single #
loop $-1 $-1 $14 $4 #
cone-surface $-1 -260.60399999999998 -36.550599999999996 -328.6506 -1 0 0 0 0 1.5493999999999999 1 I I 0 1 1.5493999999999999 forward I I I I #
coedge $-1 $15 $16 $17 $18 forward $5 $-1 #
face $-1 $19 $20 $2 $-1 $21 reversed single #
loop $-1 $-1 $22 $7 #
plane-surface $-1 -260.60399999999998 -38.099999999999994 -127.28752379087216 0 1 0 0 0 -1 forward_v I I I I #
coedge $-1 $23 $24 $25 $26 forward $8 $-1 #
coedge $-1 $27 $10 $28 $29 forward $5 $-1 #
coedge $-1 $10 $27 $30 $31 reversed $5 $-1 #
coedge $-1 $24 $23 $10 $18 reversed $8 $-1 #
edge $-1 $32 0 $33 270.86399999999998 $10 $34 forward 7 unknown #
face $-1 $35 $36 $2 $-1 $37 forward single #
loop $-1 $-1 $38 $11 #
cone-surface $-1 -260.60399999999998 -30.861000000000001 -127.28752379087216 -1 0 0 0 0 7.238999999999999 1 I I 0 1 7.238999999999999 forward I I I I #
coedge $-1 $39 $40 $41 $42 forward $12 $-1 #
coedge $-1 $17 $14 $43 $44 forward $8 $-1 #
coedge $-1 $14 $17 $45 $46 reversed $8 $-1 #
coedge $-1 $40 $39 $14 $26 reversed $12 $-1 #
edge $-1 $47 0 $48 270.86399999999998 $14 $49 forward 7 unknown #
coedge $-1 $16 $15 $50 $51 reversed $5 $-1 #
coedge $-1 $52 $53 $15 $29 reversed $54 $-1 #
edge $-1 $33 0 $55 36.550599999999996 $15 $56 forward 7 unknown #
coedge $-1 $57 $58 $16 $31 forward $59 $-1 #
edge $-1 $32 0 $60 36.550599999999996 $16 $61 forward 7 unknown #
vertex $-1 $31 $62 #
vertex $-1 $29 $63 #
straight-curve $-1 -260.60399999999998 -36.550599999999996 -330.19999999999999 1 0 0 I I #
face $-1 $64 $65 $2 $-1 $66 forward single #
loop $-1 $-1 $67 $19 #
plane-surface $-1 -260.60399999999998 -4.7536510041147499 -95.931013509932782 0 0.64278760968652726 -0.76604444311898834 0 -0.76604444311898834 -0.64278760968652726 forward_v I I I I #
coedge $-1 $68 $69 $70 $71 forward $20 $-1 #
coedge $-1 $25 $22 $72 $73 forward $12 $-1 #
coedge $-1 $22 $25 $74 $75 reversed $12 $-1 #
coedge $-1 $69 $68 $22 $42 reversed $20 $-1 #
edge $-1 $76 0 $77 270.86399999999998 $22 $78 forward 7 unknown #
coedge $-1 $79 $80 $23 $44 reversed $81 $-1 #
edge $-1 $48 0 $33 1.5707963267948966 $23 $82 forward 7 unknown #
coedge $-1 $83 $84 $24 $46 forward $85 $-1 #
edge $-1 $47 0 $32 1.5707963267948966 $24 $86 forward 7 unknown #
vertex $-1 $46 $87 #
vertex $-1 $44 $88 #
straight-curve $-1 -260.60399999999998 -38.099999999999994 -328.6506 1 0 0 I I #
coedge $-1 $89 $90 $27 $51 forward $91 $-1 #
edge $-1 $60 0 $55 270.86399999999998 $27 $92 forward 7 unknown #
coedge $-1 $93 $28 $80 $94 forward $54 $-1 #
coedge $-1 $28 $93 $89 $95 reversed $54 $-1 #
loop $-1 $-1 $52 $96 #
vertex $-1 $51 $97 #
straight-curve $-1 10.259999999999991 -36.550599999999996 -330.19999999999999 0 1 0 I I #
coedge $-1 $98 $30 $90 $99 forward $59 $-1 #
coedge $-1 $30 $98 $83 $100 reversed $59 $-1 #
loop $-1 $-1 $57 $101 #
vertex $-1 $31 $102 #
straight-curve $-1 -260.60399999999998 -36.550599999999996 -330.19999999999999 0 1 0 I I #
point $-1 -260.60399999999998 -36.550599999999996 -330.19999999999999 #
point $-1 10.259999999999991 -36.550599999999996 -330.19999999999999 #
face $-1 $103 $104 $2 $-1 $105 forward single #
loop $-1 $-1 $106 $35 #
cone-surface $-1 -260.60399999999998 -5.3250891891260723 -95.25 -1 0 0 0 0 0.88900000000000001 1 I I 0 1 0.88900000000000001 forward I I I I #
coedge $-1 $107 $108 $109 $110 forward $36 $-1 #
coedge $-1 $41 $38 $111 $112 forward $20 $-1 #
coedge $-1 $38 $41 $113 $114 reversed $20 $-1 #
coedge $-1 $108 $107 $38 $71 reversed $36 $-1 #
edge $-1 $115 0 $116 270.86399999999998 $38 $117 forward 7 unknown #
coedge $-1 $118 $119 $39 $73 reversed $120 $-1 #
edge $-1 $77 0 $48 201.36307620912783 $39 $121 forward 7 unknown #
coedge $-1 $122 $123 $40 $75 forward $124 $-1 #
edge $-1 $76 0 $47 201.36307620912783 $40 $125 forward 7 unknown #
vertex $-1 $75 $126 #
vertex $-1 $73 $127 #
straight-curve $-1 -260.60399999999998 -38.100000000000001 -127.28752379087216 1 2.6232453768684662e-017 0 I I #
coedge $-1 $128 $43 $119 $129 forward $81 $-1 #
coedge $-1 $43 $128 $52 $94 reversed $81 $-1 #
loop $-1 $-1 $79 $130 #
ellipse-curve $-1 10.259999999999991 -36.550599999999996 -328.6506 1 0 0 0 -1.5493999999999986 0 1 I I #
coedge $-1 $131 $45 $58 $100 forward $85 $-1 #
coedge $-1 $45 $131 $122 $132 reversed $85 $-1 #
loop $-1 $-1 $83 $133 #
ellipse-curve $-1 -260.60399999999998 -36.550599999999996 -328.6506 1 0 0 0 -1.5493999999999986 0 1 I I #
point $-1 -260.60399999999998 -38.099999999999994 -328.6506 #
point $-1 10.259999999999991 -38.099999999999994 -328.6506 #
coedge $-1 $134 $50 $53 $95 forward $91 $-1 #
coedge $-1 $50 $134 $57 $99 reversed $91 $-1 #
loop $-1 $-1 $89 $135 #
straight-curve $-1 -260.60399999999998 0 -330.19999999999999 1 0 0 I I #
coedge $-1 $53 $52 $136 $137 forward $54 $-1 #
edge $-1 $33 0 $138 0.76200000000000045 $52 $139 forward 7 unknown #
edge $-1 $55 0 $140 0.76200000000000045 $89 $141 forward 7 unknown #
face $-1 $130 $54 $2 $-1 $142 forward single #
point $-1 10.259999999999991 0 -330.19999999999999 #
coedge $-1 $58 $57 $143 $144 reversed $59 $-1 #
edge $-1 $60 0 $145 0.76200000000000045 $57 $146 forward 7 unknown #
edge $-1 $32 0 $147 0.76200000000000045 $58 $148 forward 7 unknown #
face $-1 $135 $59 $2 $-1 $149 reversed single #
point $-1 -260.60399999999998 0 -330.19999999999999 #
face $-1 $150 $151 $2 $-1 $152 reversed single #
loop $-1 $-1 $153 $64 #
plane-surface $-1 -260.60399999999998 -11.153946681436295 -95.375070584632553 0 -0.17364817766693175 0.9848077530122078 0 0.9848077530122078 0.17364817766693175 forward_v I I I I #
coedge $-1 $154 $155 $156 $157 forward $65 $-1 #
coedge $-1 $70 $67 $158 $159 forward $36 $-1 #
coedge $-1 $67 $70 $160 $161 reversed $36 $-1 #
coedge $-1 $155 $154 $67 $110 reversed $65 $-1 #
edge $-1 $162 0 $163 270.86399999999998 $67 $164 forward 7 unknown #
coedge $-1 $165 $166 $68 $112 reversed $167 $-1 #
edge $-1 $116 0 $77 0.87266462599717631 $68 $168 forward 7 unknown #
coedge $-1 $169 $170 $69 $114 forward $171 $-1 #
edge $-1 $115 1.9660793998360273e-015 $76 0.87266462599718042 $69 $172 forward 7 unknown #
vertex $-1 $114 $173 #
vertex $-1 $112 $174 #
straight-curve $-1 -260.60399999999998 -35.514139506520777 -121.74212806713381 1 0 0 I I #
coedge $-1 $175 $72 $166 $176 forward $120 $-1 #
coedge $-1 $72 $175 $79 $129 reversed $120 $-1 #
loop $-1 $-1 $118 $177 #
straight-curve $-1 10.259999999999991 -38.099999999999994 -127.28752379087216 0 0 -1 I I #
coedge $-1 $178 $74 $84 $132 forward $124 $-1 #
coedge $-1 $74 $178 $169 $179 reversed $124 $-1 #
loop $-1 $-1 $122 $180 #
straight-curve $-1 -260.60399999999998 -38.099999999999994 -127.28752379087216 0 0 -1 I I #
point $-1 -260.60399999999998 -38.100000000000001 -127.28752379087216 #
point $-1 10.259999999999991 -38.099999999999994 -127.28752379087216 #
coedge $-1 $80 $79 $181 $182 forward $81 $-1 #
edge $-1 $48 0 $183 0.76200000000000045 $79 $184 forward 7 unknown #
face $-1 $177 $81 $2 $-1 $185 forward single #
coedge $-1 $84 $83 $186 $187 reversed $85 $-1 #
edge $-1 $47 0 $188 0.76200000000000045 $84 $189 forward 7 unknown #
face $-1 $101 $85 $2 $-1 $190 reversed single #
coedge $-1 $90 $89 $191 $192 reversed $91 $-1 #
face $-1 $96 $91 $2 $-1 $193 reversed single #
coedge $-1 $194 $191 $93 $137 reversed $195 $-1 #
edge $-1 $138 0 $140 36.550599999999996 $93 $196 forward 7 unknown #
vertex $-1 $137 $197 #
straight-curve $-1 10.259999999999991 -36.550599999999996 -330.19999999999999 0 0 -1 I I #
vertex $-1 $192 $198 #
straight-curve $-1 10.259999999999991 0 -330.19999999999999 0 0 -1 I I #
plane-surface $-1 10.259999999999991 -18.275299999999998 -330.58100000000002 1 0 0 0 1 0 forward_v I I I I #
coedge $-1 $191 $194 $98 $144 forward $195 $-1 #
edge $-1 $147 0 $145 36.550599999999996 $98 $199 forward 7 unknown #
vertex $-1 $144 $200 #
straight-curve $-1 -260.60399999999998 0 -330.19999999999999 0 0 -1 I I #
vertex $-1 $100 $201 #
straight-curve $-1 -260.60399999999998 -36.550599999999996 -330.19999999999999 0 0 -1 I I #
plane-surface $-1 -260.60399999999998 -18.275299999999998 -330.58100000000002 1 0 0 0 1 0 forward_v I I I I #
face $-1 $202 $203 $2 $-1 $204 forward single #
loop $-1 $-1 $205 $103 #
cone-surface $-1 -260.60399999999998 -11.175999999999995 -95.25 -1 0 0 0 0 0.127 1 I I 0 1 0.127 forward I I I I #
coedge $-1 $206 $207 $208 $209 forward $104 $-1 #
coedge $-1 $109 $106 $210 $211 forward $65 $-1 #
coedge $-1 $106 $109 $212 $213 reversed $65 $-1 #
coedge $-1 $207 $206 $106 $157 reversed $104 $-1 #
edge $-1 $214 0 $215 270.86399999999998 $106 $216 forward 7 unknown #
coedge $-1 $217 $218 $107 $159 reversed $219 $-1 #
edge $-1 $163 6.8038414290948554e-016 $116 40.154965914462039 $107 $220 forward 7 unknown #
coedge $-1 $221 $222 $108 $161 forward $223 $-1 #
edge $-1 $162 -6.8038414290948554e-016 $115 40.154965914462053 $108 $224 forward 7 unknown #
vertex $-1 $161 $225 #
vertex $-1 $159 $226 #
straight-curve $-1 -260.60399999999998 -4.7536510041147508 -95.931013509932782 1 3.2790567210855828e-018 0 I I #
coedge $-1 $227 $111 $218 $228 forward $167 $-1 #
coedge $-1 $111 $227 $118 $176 reversed $167 $-1 #
loop $-1 $-1 $165 $229 #
ellipse-curve $-1 10.259999999999991 -30.860999999999969 -127.28752379087217 1 0 0 0 -4.6531395065208017 5.5453957237383662 1 I I #
coedge $-1 $230 $113 $123 $179 forward $171 $-1 #
coedge $-1 $113 $230 $221 $231 reversed $171 $-1 #
loop $-1 $-1 $169 $232 #
ellipse-curve $-1 -260.60399999999998 -30.861000000000001 -127.28752379087216 1 0 0 0 -4.6531395065207697 5.545395723738352 1 I I #
point $-1 -260.60399999999998 -35.514139506520777 -121.74212806713382 #
point $-1 10.259999999999991 -35.51413950652077 -121.74212806713381 #
coedge $-1 $119 $118 $233 $234 forward $120 $-1 #
edge $-1 $77 -7.1054273576010019e-015 $235 0.76199999999999335 $118 $236 forward 7 unknown #
face $-1 $229 $120 $2 $-1 $237 forward single #
coedge $-1 $123 $122 $238 $239 reversed $124 $-1 #
edge $-1 $76 7.1054273576010019e-015 $240 0.76200000000000756 $123 $241 forward 7 unknown #
face $-1 $133 $124 $2 $-1 $242 reversed single #
coedge $-1 $243 $244 $128 $182 reversed $245 $-1 #
edge $-1 $183 0 $138 1.570796326794949 $128 $246 forward 7 unknown #
vertex $-1 $182 $247 #
straight-curve $-1 10.259999999999991 -38.099999999999994 -328.6506 0 -1 0 I I #
plane-surface $-1 10.259999999999991 -37.91559893040251 -330.01559893040246 1 0 0 0 0 -1 forward_v I I I I #
coedge $-1 $244 $243 $131 $187 forward $245 $-1 #
edge $-1 $188 0 $147 1.5707963267948966 $131 $248 forward 7 unknown #
vertex $-1 $132 $249 #
straight-curve $-1 -260.60399999999998 -38.099999999999994 -328.6506 0 -1 0 I I #
plane-surface $-1 -260.60399999999998 -37.91559893040251 -330.01559893040246 1 0 0 0 0 -1 forward_v I I I I #
coedge $-1 $136 $143 $134 $192 forward $195 $-1 #
edge $-1 $145 0 $140 270.86399999999998 $134 $250 forward 7 unknown #
plane-surface $-1 -125.172 0 -330.58100000000002 0 -1 0 1 0 0 forward_v I I I I #
coedge $-1 $143 $136 $244 $251 reversed $195 $-1 #
loop $-1 $-1 $191 $252 #
straight-curve $-1 10.259999999999991 -36.550599999999996 -330.96199999999999 0 1 0 I I #
point $-1 10.259999999999991 -36.550599999999996 -330.96199999999999 #
point $-1 10.259999999999991 0 -330.96199999999999 #
straight-curve $-1 -260.60399999999998 -36.550599999999996 -330.96199999999999 0 1 0 I I #
point $-1 -260.60399999999998 0 -330.96199999999999 #
point $-1 -260.60399999999998 -36.550599999999996 -330.96199999999999 #
face $-1 $253 $254 $2 $-1 $255 reversed single #
loop $-1 $-1 $256 $150 #
plane-surface $-1 -260.60399999999998 -11.302999999999994 -44.322999999999993 0 1 0 0 0 -1 forward_v I I I I #
coedge $-1 $257 $258 $259 $260 forward $151 $-1 #
coedge $-1 $156 $153 $261 $262 forward $104 $-1 #
coedge $-1 $153 $156 $263 $264 reversed $104 $-1 #
coedge $-1 $258 $257 $153 $209 reversed $151 $-1 #
edge $-1 $265 0 $266 270.86399999999998 $153 $267 forward 7 unknown #
coedge $-1 $268 $269 $154 $211 reversed $270 $-1 #
edge $-1 $215 0 $163 2.6179938779914984 $154 $271 forward 7 unknown #
coedge $-1 $272 $273 $155 $213 forward $274 $-1 #
edge $-1 $214 2.7744302297859098e-015 $162 2.6179938779915108 $155 $275 forward 7 unknown #
vertex $-1 $213 $276 #
vertex $-1 $211 $277 #
straight-curve $-1 -260.60399999999998 -5.4794624190719716 -94.374505907572143 1 0 0 I I #
coedge $-1 $278 $158 $269 $279 forward $219 $-1 #
coedge $-1 $158 $278 $165 $228 reversed $219 $-1 #
loop $-1 $-1 $217 $280 #
straight-curve $-1 10.259999999999991 -4.7536510041147517 -95.931013509932782 0 -0.76604444311898812 -0.64278760968652715 I I #
coedge $-1 $281 $160 $170 $231 forward $223 $-1 #
coedge $-1 $160 $281 $272 $282 reversed $223 $-1 #
loop $-1 $-1 $221 $283 #
straight-curve $-1 -260.60399999999998 -4.7536510041147517 -95.931013509932782 0 -0.76604444311898812 -0.64278760968652715 I I #
point $-1 -260.60399999999998 -4.7536510041147508 -95.931013509932782 #
point $-1 10.259999999999991 -4.7536510041147526 -95.931013509932782 #
coedge $-1 $166 $165 $284 $285 forward $167 $-1 #
edge $-1 $116 6.3188656195585661e-015 $286 0.76200000000000823 $165 $287 forward 7 unknown #
face $-1 $280 $167 $2 $-1 $288 forward single #
coedge $-1 $170 $169 $289 $290 reversed $171 $-1 #
edge $-1 $115 -6.3188656195582877e-015 $291 0.76200000000000201 $170 $292 forward 7 unknown #
face $-1 $180 $171 $2 $-1 $293 reversed single #
coedge $-1 $294 $295 $175 $234 reversed $296 $-1 #
edge $-1 $235 0 $183 201.36307620912783 $175 $297 forward 7 unknown #
vertex $-1 $234 $298 #
straight-curve $-1 10.259999999999991 -38.100000000000001 -127.28752379087216 0 -1 0 I I #
plane-surface $-1 10.259999999999991 -38.480999999999995 -227.96906189543608 1 0 0 0 0 -1 forward_v I I I I #
coedge $-1 $295 $294 $178 $239 forward $296 $-1 #
edge $-1 $240 0 $188 201.36307620912783 $178 $299 forward 7 unknown #
vertex $-1 $179 $300 #
straight-curve $-1 -260.60399999999998 -38.099999999999994 -127.28752379087216 0 -1 0 I I #
plane-surface $-1 -260.60399999999998 -38.480999999999995 -227.96906189543608 1 0 0 0 0 -1 forward_v I I I I #
coedge $-1 $186 $181 $295 $301 reversed $245 $-1 #
coedge $-1 $181 $186 $194 $251 forward $245 $-1 #
loop $-1 $-1 $244 $302 #
ellipse-curve $-1 10.259999999999991 -36.55060000000006 -328.65060000000005 1 0 0 0 -2.3113999999999351 5.6843418860808015e-014 1 I I #
point $-1 10.259999999999991 -38.861999999999995 -328.6506 #
ellipse-curve $-1 -260.60399999999998 -36.550599999999996 -328.6506 1 0 0 0 -2.311399999999999 0 1 I I #
point $-1 -260.60399999999998 -38.861999999999995 -328.6506 #
straight-curve $-1 -260.60399999999998 0 -330.96199999999999 1 0 0 I I #
edge $-1 $147 0 $138 270.86399999999998 $194 $303 forward 7 unknown #
face $-1 $-1 $195 $2 $-1 $304 reversed single #
face $-1 $305 $306 $2 $-1 $307 forward single #
loop $-1 $-1 $308 $202 #
cone-surface $-1 -260.60399999999998 11.811000000000003 -44.322999999999986 -1 0 0 0 0 23.113999999999997 1 I I 0 1 23.113999999999997 forward I I I I #
coedge $-1 $309 $310 $311 $312 forward $203 $-1 #
coedge $-1 $208 $205 $313 $314 forward $151 $-1 #
coedge $-1 $205 $208 $315 $316 reversed $151 $-1 #
coedge $-1 $310 $309 $205 $260 reversed $203 $-1 #
edge $-1 $317 0 $318 270.86399999999998 $205 $319 forward 7 unknown #
coedge $-1 $320 $321 $206 $262 reversed $322 $-1 #
edge $-1 $266 0 $215 5.7620223287315877 $206 $323 forward 7 unknown #
coedge $-1 $324 $325 $207 $264 forward $326 $-1 #
edge $-1 $265 -1.7493699875576283e-015 $214 5.7620223287315904 $207 $327 forward 7 unknown #
vertex $-1 $264 $328 #
vertex $-1 $262 $329 #
straight-curve $-1 -260.60399999999998 -11.153946681436295 -95.375070584632553 1 0 0 I I #
coedge $-1 $330 $210 $321 $331 forward $270 $-1 #
coedge $-1 $210 $330 $217 $279 reversed $270 $-1 #
loop $-1 $-1 $268 $332 #
ellipse-curve $-1 10.259999999999991 -5.3250891891260794 -95.25 -1 0 0 0 -0.15437322994589309 0.87549409242785714 1 I I #
coedge $-1 $333 $212 $222 $282 forward $274 $-1 #
coedge $-1 $212 $333 $324 $334 reversed $274 $-1 #
loop $-1 $-1 $272 $335 #
ellipse-curve $-1 -260.60399999999998 -5.3250891891260723 -95.25 -1 0 0 0 -0.15437322994590019 0.87549409242785714 1 I I #
point $-1 -260.60399999999998 -5.4794624190719725 -94.374505907572129 #
point $-1 10.259999999999991 -5.4794624190719725 -94.374505907572143 #
coedge $-1 $218 $217 $336 $337 forward $219 $-1 #
edge $-1 $163 0 $338 0.76200000000000034 $217 $339 forward 7 unknown #
face $-1 $332 $219 $2 $-1 $340 forward single #
coedge $-1 $222 $221 $341 $342 reversed $223 $-1 #
edge $-1 $162 -1.1418201667483911e-015 $343 0.76200000000000256 $222 $344 forward 7 unknown #
face $-1 $232 $223 $2 $-1 $345 reversed single #
coedge $-1 $346 $347 $227 $285 reversed $348 $-1 #
edge $-1 $286 0 $235 0.87266462599718286 $227 $349 forward 7 unknown #
vertex $-1 $285 $350 #
straight-curve $-1 10.259999999999991 -35.514139506520777 -121.74212806713382 0 -0.64278760968650606 0.7660444431190061 I I #
plane-surface $-1 10.259999999999991 -37.76706533721925 -124.06717263640797 1 0 0 0 -0.76604444311898801 -0.64278760968652726 forward_v I I I I #
coedge $-1 $347 $346 $230 $290 forward $348 $-1 #
edge $-1 $291 0 $240 0.8726646259971812 $230 $351 forward 7 unknown #
vertex $-1 $231 $352 #
straight-curve $-1 -260.60399999999998 -35.51413950652077 -121.74212806713381 0 -0.6427876096865206 0.76604444311899367 I I #
plane-surface $-1 -260.60399999999998 -37.76706533721925 -124.06717263640797 1 0 0 0 -0.76604444311898801 -0.64278760968652726 forward_v I I I I #
coedge $-1 $238 $233 $347 $353 reversed $296 $-1 #
coedge $-1 $233 $238 $243 $301 forward $296 $-1 #
loop $-1 $-1 $295 $354 #
straight-curve $-1 10.259999999999991 -38.861999999999995 -127.28752379087216 0 0 -1 I I #
point $-1 10.259999999999991 -38.861999999999995 -127.28752379087216 #
straight-curve $-1 -260.60399999999998 -38.861999999999995 -127.28752379087216 0 0 -1 I I #
point $-1 -260.60399999999998 -38.862000000000002 -127.28752379087216 #
edge $-1 $188 0 $183 270.86399999999998 $243 $355 forward 7 unknown #
face $-1 $252 $245 $2 $-1 $356 forward single #
straight-curve $-1 -260.60399999999998 -36.550599999999996 -330.96199999999999 1 0 0 I I #
plane-surface $-1 -260.60399999999998 -36.550599999999996 -330.96199999999999 0 0 1 0 1 0 forward_v I I I I #
face $-1 $357 $358 $2 $-1 $359 forward single #
loop $-1 $-1 $360 $253 #
cone-surface $-1 -260.60399999999998 11.811 -20.319999999999997 -1 0 0 0 0 0.88900000000000001 1 I I 0 1 0.88900000000000001 forward I I I I #
coedge $-1 $361 $362 $363 $364 forward $254 $-1 #
coedge $-1 $259 $256 $365 $366 forward $203 $-1 #
coedge $-1 $256 $259 $367 $368 reversed $203 $-1 #
coedge $-1 $362 $361 $256 $312 reversed $254 $-1 #
edge $-1 $369 0 $370 270.86399999999998 $256 $371 forward 7 unknown #
coedge $-1 $372 $373 $257 $314 reversed $374 $-1 #
edge $-1 $318 0 $266 1.745329251994107 $257 $375 forward 7 unknown #
coedge $-1 $376 $377 $258 $316 forward $378 $-1 #
edge $-1 $317 0 $265 1.7453292519943073 $258 $379 forward 7 unknown #
vertex $-1 $316 $380 #
vertex $-1 $314 $381 #
straight-curve $-1 -260.60399999999998 -11.302999999999994 -95.25 1 0 0 I I #
coedge $-1 $382 $261 $373 $383 forward $322 $-1 #
coedge $-1 $261 $382 $268 $331 reversed $322 $-1 #
loop $-1 $-1 $320 $384 #
straight-curve $-1 10.259999999999991 -11.153946681436295 -95.375070584632553 0 0.9848077530122078 0.17364817766693164 I I #
coedge $-1 $385 $263 $273 $334 forward $326 $-1 #
coedge $-1 $263 $385 $376 $386 reversed $326 $-1 #
loop $-1 $-1 $324 $387 #
straight-curve $-1 -260.60399999999998 -11.153946681436295 -95.375070584632553 0 0.9848077530122078 0.17364817766693164 I I #
point $-1 -260.60399999999998 -11.153946681436297 -95.375070584632553 #
point $-1 10.259999999999991 -11.153946681436295 -95.375070584632553 #
coedge $-1 $269 $268 $388 $389 forward $270 $-1 #
edge $-1 $215 1.3994959900461031e-014 $390 0.76200000000001578 $268 $391 forward 7 unknown #
face $-1 $384 $270 $2 $-1 $392 forward single #
coedge $-1 $273 $272 $393 $394 reversed $274 $-1 #
edge $-1 $214 -1.3994959900461028e-014 $395 0.7620000000000019 $273 $396 forward 7 unknown #
face $-1 $283 $274 $2 $-1 $397 reversed single #
coedge $-1 $398 $399 $278 $337 reversed $400 $-1 #
edge $-1 $338 -2.7215365716379417e-015 $286 40.154965914462025 $278 $401 forward 7 unknown #
vertex $-1 $337 $402 #
straight-curve $-1 10.259999999999991 -4.7536510041147526 -95.931013509932782 0 -0.6427876096865206 0.76604444311899367 I I #
plane-surface $-1 10.259999999999991 -20.378797334608329 -108.54470785570496 1 0 0 0 -0.76604444311898812 -0.64278760968652726 forward_v I I I I #
coedge $-1 $399 $398 $281 $342 forward $400 $-1 #
edge $-1 $343 0 $291 40.154965914462025 $281 $403 forward 7 unknown #
vertex $-1 $282 $404 #
straight-curve $-1 -260.60399999999998 -4.7536510041147526 -95.931013509932782 0 -0.64278760968652127 0.76604444311899311 I I #
plane-surface $-1 -260.60399999999998 -20.378797334608329 -108.54470785570496 1 0 0 0 -0.76604444311898812 -0.64278760968652726 forward_v I I I I #
coedge $-1 $289 $284 $399 $405 reversed $348 $-1 #
coedge $-1 $284 $289 $294 $353 forward $348 $-1 #
loop $-1 $-1 $347 $406 #
ellipse-curve $-1 10.259999999999991 -30.861000000000011 -127.28752379087214 1 0 0 0 -5.1429436651018889 6.1291215893950124 1 I I #
point $-1 10.259999999999991 -36.0039436651019 -121.15840220147713 #
ellipse-curve $-1 -260.60399999999998 -30.861000000000001 -127.28752379087216 1 0 0 0 -5.1429436651018996 6.1291215893950266 1 I I #
point $-1 -260.60399999999998 -36.0039436651019 -121.15840220147713 #
edge $-1 $240 0 $235 270.86399999999998 $294 $407 forward 7 unknown #
face $-1 $302 $296 $2 $-1 $408 reversed single #
straight-curve $-1 -260.60399999999998 -38.861999999999995 -328.6506 1 0 0 I I #
cone-surface $-1 -260.60399999999998 -36.550599999999996 -328.6506 -1 0 0 0 0 2.3113999999999999 1 I I 0 1 2.3113999999999999 forward I I I I #
face $-1 $409 $410 $2 $-1 $411 forward single #
loop $-1 $-1 $412 $305 #
plane-surface $-1 -260.60399999999998 12.699999999999999 0 0 1 0 0 0 -1 forward_v I I I I #
coedge $-1 $413 $414 $415 $416 forward $306 $-1 #
coedge $-1 $311 $308 $417 $418 forward $254 $-1 #
coedge $-1 $308 $311 $419 $420 reversed $254 $-1 #
coedge $-1 $414 $413 $308 $364 reversed $306 $-1 #
edge $-1 $421 0 $422 270.86399999999998 $308 $423 forward 7 unknown #
coedge $-1 $424 $425 $309 $366 reversed $426 $-1 #
edge $-1 $370 0 $318 50.927000000000007 $309 $427 forward 7 unknown #
coedge $-1 $428 $429 $310 $368 forward $430 $-1 #
edge $-1 $369 -7.1054273576010019e-015 $317 50.927000000000007 $310 $431 forward 7 unknown #
vertex $-1 $368 $432 #
vertex $-1 $366 $433 #
straight-curve $-1 -260.60399999999998 -11.302999999999994 -44.322999999999993 1 0 0 I I #
coedge $-1 $434 $313 $425 $435 forward $374 $-1 #
coedge $-1 $313 $434 $320 $383 reversed $374 $-1 #
loop $-1 $-1 $372 $436 #
ellipse-curve $-1 10.259999999999991 -11.175999999999984 -95.249999999999986 1 0 0 0 -0.12700000000001133 -1.4210854715202004e-014 1 I I #
coedge $-1 $437 $315 $325 $386 forward $378 $-1 #
coedge $-1 $315 $437 $428 $438 reversed $378 $-1 #
loop $-1 $-1 $376 $439 #
ellipse-curve $-1 -260.60399999999998 -11.175999999999995 -95.25 1 0 0 0 -0.12700000000000067 0 1 I I #
point $-1 -260.60399999999998 -11.302999999999994 -95.25 #
point $-1 10.259999999999991 -11.302999999999995 -95.25 #
coedge $-1 $321 $320 $440 $441 forward $322 $-1 #
edge $-1 $266 6.1692225609610484e-016 $442 0.76200000000000245 $320 $443 forward 7 unknown #
face $-1 $436 $322 $2 $-1 $444 forward single #
coedge $-1 $325 $324 $445 $446 reversed $326 $-1 #
edge $-1 $265 -3.0846112804803472e-016 $447 0.7620000000000019 $325 $448 forward 7 unknown #
face $-1 $335 $326 $2 $-1 $449 reversed single #
coedge $-1 $450 $451 $330 $389 reversed $452 $-1 #
edge $-1 $390 6.9102847871229918e-015 $338 2.6179938779914176 $330 $453 forward 7 unknown #
vertex $-1 $389 $454 #
straight-curve $-1 10.259999999999991 -5.4794624190719725 -94.374505907572129 0 0.17364817766692875 -0.98480775301220835 I I #
plane-surface $-1 10.259999999999991 -4.8646848333114514 -95.035309923035726 1 0 0 0 0.9848077530122088 0.17364817766692667 forward_v I I I I #
coedge $-1 $451 $450 $333 $394 forward $452 $-1 #
edge $-1 $395 6.8833965194687665e-015 $343 2.6179938779914758 $333 $455 forward 7 unknown #
vertex $-1 $334 $456 #
straight-curve $-1 -260.60399999999998 -5.4794624190719725 -94.374505907572143 0 0.1736481776669308 -0.98480775301220791 I I #
plane-surface $-1 -260.60399999999998 -4.8646848333114514 -95.035309923035726 1 0 0 0 0.9848077530122088 0.17364817766692667 forward_v I I I I #
coedge $-1 $341 $336 $451 $457 reversed $400 $-1 #
coedge $-1 $336 $341 $346 $405 forward $400 $-1 #
loop $-1 $-1 $399 $458 #
straight-curve $-1 10.259999999999991 -5.2434551626958834 -95.347287644276108 0 -0.76604444311898823 -0.64278760968652726 I I #
point $-1 10.259999999999991 -5.2434551626958799 -95.347287644276108 #
straight-curve $-1 -260.60399999999998 -5.2434551626958834 -95.347287644276108 0 -0.76604444311898823 -0.64278760968652726 I I #
point $-1 -260.60399999999998 -5.2434551626958834 -95.347287644276108 #
edge $-1 $291 0 $286 270.86399999999998 $346 $459 forward 7 unknown #
face $-1 $354 $348 $2 $-1 $460 forward single #
straight-curve $-1 -260.60399999999998 -38.862000000000002 -127.28752379087216 1 2.6232453768684662e-017 0 I I #
plane-surface $-1 -260.60399999999998 -38.861999999999995 -127.28752379087216 0 1 0 0 0 -1 forward_v I I I I #
face $-1 $461 $462 $2 $-1 $463 reversed single #
loop $-1 $-1 $464 $357 #
plane-surface $-1 -125.172 12.318999999999999 1.27675647831893e-015 0 0 1 1 0 0 forward_v I I I I #
coedge $-1 $465 $466 $467 $468 forward $358 $-1 #
coedge $-1 $363 $360 $469 $470 forward $306 $-1 #
coedge $-1 $360 $363 $471 $472 reversed $306 $-1 #
coedge $-1 $466 $465 $360 $416 reversed $358 $-1 #
edge $-1 $473 0 $474 270.86399999999998 $360 $475 forward 7 unknown #
coedge $-1 $476 $477 $361 $418 reversed $478 $-1 #
edge $-1 $422 0 $370 1.5707963267948974 $361 $479 forward 7 unknown #
coedge $-1 $480 $481 $362 $420 forward $482 $-1 #
edge $-1 $421 1.5370397502814322e-016 $369 1.5707963267948966 $362 $483 forward 7 unknown #
vertex $-1 $420 $484 #
vertex $-1 $418 $485 #
straight-curve $-1 -260.60399999999998 11.810999999999998 -21.208999999999996 1 0 2.6232453768684662e-017 I I #
coedge $-1 $486 $365 $477 $487 forward $426 $-1 #
coedge $-1 $365 $486 $372 $435 reversed $426 $-1 #
loop $-1 $-1 $424 $488 #
straight-curve $-1 10.259999999999991 -11.302999999999994 -44.322999999999993 0 0 -1 I I #
coedge $-1 $489 $367 $377 $438 forward $430 $-1 #
coedge $-1 $367 $489 $480 $490 reversed $430 $-1 #
loop $-1 $-1 $428 $491 #
straight-curve $-1 -260.60399999999998 -11.302999999999994 -44.322999999999993 0 0 -1 I I #
point $-1 -260.60399999999998 -11.302999999999994 -44.322999999999986 #
point $-1 10.259999999999991 -11.302999999999994 -44.322999999999993 #
coedge $-1 $373 $372 $492 $493 forward $374 $-1 #
edge $-1 $318 1.7763568394002505e-015 $494 0.76200000000000045 $372 $495 forward 7 unknown #
face $-1 $488 $374 $2 $-1 $496 forward single #
coedge $-1 $377 $376 $497 $498 reversed $378 $-1 #
edge $-1 $317 -1.7763568394002505e-015 $499 0.76199999999999868 $377 $500 forward 7 unknown #
face $-1 $387 $378 $2 $-1 $501 reversed single #
coedge $-1 $502 $503 $382 $441 reversed $504 $-1 #
edge $-1 $442 3.4987399751152563e-015 $390 5.7620223287315904 $382 $505 forward 7 unknown #
vertex $-1 $441 $506 #
straight-curve $-1 10.259999999999991 -11.153946681436299 -95.375070584632553 0 0.17364817766693647 -0.98480775301220702 I I #
plane-surface $-1 10.259999999999991 -8.2505445945630331 -95.25 1 0 0 0 0.98480775301220791 0.17364817766693177 forward_v I I I I #
coedge $-1 $503 $502 $385 $446 forward $504 $-1 #
edge $-1 $447 3.4987399751152563e-015 $395 5.7620223287315904 $385 $507 forward 7 unknown #
vertex $-1 $386 $508 #
straight-curve $-1 -260.60399999999998 -11.153946681436295 -95.375070584632553 0 0.1736481776669265 -0.9848077530122088 I I #
plane-surface $-1 -260.60399999999998 -8.2505445945630331 -95.25 1 0 0 0 0.98480775301220791 0.17364817766693177 forward_v I I I I #
coedge $-1 $393 $388 $503 $509 reversed $452 $-1 #
coedge $-1 $388 $393 $398 $457 forward $452 $-1 #
loop $-1 $-1 $451 $510 #
ellipse-curve $-1 10.259999999999991 -5.325089189126075 -95.25 -1 0 0 0 -0.022053318563695967 0.12507058463255305 1 I I #
point $-1 10.259999999999991 -5.3471425076897701 -95.124929415367447 #
ellipse-curve $-1 -260.60399999999998 -5.3250891891260723 -95.25 -1 0 0 0 -0.022053318563698632 0.12507058463255305 1 I I #
point $-1 -260.60399999999998 -5.3471425076897701 -95.124929415367447 #
edge $-1 $343 1.1649549666563469e-032 $338 270.86399999999998 $398 $511 forward 7 unknown #
face $-1 $406 $400 $2 $-1 $512 reversed single #
straight-curve $-1 -260.60399999999998 -36.003943665101907 -121.15840220147713 1 0 0 I I #
cone-surface $-1 -260.60399999999998 -30.861000000000001 -127.28752379087216 -1 0 0 0 0 8.0009999999999994 1 I I 0 1 8.0009999999999994 forward I I I I #
face $-1 $513 $514 $2 $-1 $515 reversed single #
loop $-1 $-1 $516 $409 #
plane-surface $-1 -260.60399999999998 12.318999999999999 -10.159999999999997 1 0 0 0 0 -1 forward_v I I I I #
coedge $-1 $517 $467 $518 $519 forward $410 $-1 #
coedge $-1 $415 $412 $520 $521 forward $358 $-1 #
coedge $-1 $412 $415 $522 $523 reversed $358 $-1 #
coedge $-1 $464 $524 $412 $468 reversed $410 $-1 #
edge $-1 $525 0 $526 270.86399999999998 $412 $527 forward 7 unknown #
coedge $-1 $528 $529 $413 $470 reversed $530 $-1 #
edge $-1 $474 0 $422 1.5707963267948786 $413 $531 forward 7 unknown #
coedge $-1 $532 $533 $414 $472 forward $514 $-1 #
edge $-1 $473 0 $421 1.5707963267948966 $414 $534 forward 7 unknown #
vertex $-1 $472 $535 #
vertex $-1 $470 $536 #
straight-curve $-1 -260.60399999999998 12.699999999999999 -20.319999999999997 1 0 0 I I #
coedge $-1 $537 $417 $529 $538 forward $478 $-1 #
coedge $-1 $417 $537 $424 $487 reversed $478 $-1 #
loop $-1 $-1 $476 $539 #
ellipse-curve $-1 10.259999999999991 11.811 -44.322999999999979 1 0 0 0 3.5527136788005009e-015 23.11399999999999 1 I I #
coedge $-1 $540 $419 $429 $490 forward $482 $-1 #
coedge $-1 $419 $540 $532 $541 reversed $482 $-1 #
loop $-1 $-1 $480 $513 #
ellipse-curve $-1 -260.60399999999998 11.811000000000003 -44.322999999999986 1 0 0 0 0 23.113999999999997 1 I I #
point $-1 -260.60399999999998 11.811 -21.208999999999996 #
point $-1 10.259999999999991 11.811000000000003 -21.208999999999989 #
coedge $-1 $425 $424 $542 $543 forward $426 $-1 #
edge $-1 $370 0 $544 0.76200000000000045 $424 $545 forward 7 unknown #
face $-1 $539 $426 $2 $-1 $546 forward single #
coedge $-1 $429 $428 $547 $548 reversed $430 $-1 #
edge $-1 $369 6.625603403431066e-029 $549 0.76200000000000045 $429 $550 forward 7 unknown #
face $-1 $439 $430 $2 $-1 $551 reversed single #
coedge $-1 $552 $553 $434 $493 reversed $554 $-1 #
edge $-1 $494 0 $442 1.7453292519943258 $434 $555 forward 7 unknown #
vertex $-1 $493 $556 #
straight-curve $-1 10.259999999999991 -11.302999999999994 -95.25 0 -1 0 I I #
plane-surface $-1 10.259999999999991 -11.502536105720758 -95.639150577104431 1 0 0 0 0 -1 forward_v I I I I #
coedge $-1 $553 $552 $437 $498 forward $554 $-1 #
edge $-1 $499 0 $447 1.7453292519943298 $437 $557 forward 7 unknown #
vertex $-1 $438 $558 #
straight-curve $-1 -260.60399999999998 -11.302999999999995 -95.25 0 -1 0 I I #
plane-surface $-1 -260.60399999999998 -11.502536105720758 -95.639150577104431 1 0 0 0 0 -1 forward_v I I I I #
coedge $-1 $445 $440 $553 $559 reversed $504 $-1 #
coedge $-1 $440 $445 $450 $509 forward $504 $-1 #
loop $-1 $-1 $503 $560 #
straight-curve $-1 10.259999999999991 -11.021626770054096 -96.125494092427857 0 0.98480775301220791 0.17364817766693164 I I #
point $-1 10.259999999999991 -11.021626770054093 -96.125494092427857 #
straight-curve $-1 -260.60399999999998 -11.021626770054096 -96.125494092427857 0 0.98480775301220791 0.17364817766693164 I I #
point $-1 -260.60399999999998 -11.021626770054093 -96.125494092427857 #
edge $-1 $395 0 $390 270.86399999999998 $450 $561 forward 7 unknown #
face $-1 $458 $452 $2 $-1 $562 reversed single #
straight-curve $-1 -260.60399999999998 -5.2434551626958816 -95.347287644276108 1 -6.5581134421711656e-018 0 I I #
plane-surface $-1 -260.60399999999998 -5.2434551626958834 -95.347287644276108 0 0.64278760968652726 -0.76604444311898834 0 -0.76604444311898834 -0.64278760968652726 forward_v I I I I #
face $-1 $491 $482 $2 $-1 $563 reversed single #
loop $-1 $-1 $532 $461 #
plane-surface $-1 -260.60399999999998 12.170210244842766 -20.679210244842764 1 0 0 0 0 -1 forward_v I I I I #
coedge $-1 $564 $522 $533 $565 forward $462 $-1 #
coedge $-1 $524 $464 $566 $567 forward $410 $-1 #
coedge $-1 $522 $564 $464 $519 reversed $462 $-1 #
edge $-1 $525 0 $568 0.76200000000000045 $518 $569 forward 7 unknown #
coedge $-1 $570 $571 $465 $521 reversed $572 $-1 #
edge $-1 $526 0 $474 20.32 $465 $573 forward 7 unknown #
coedge $-1 $516 $518 $466 $523 forward $462 $-1 #
edge $-1 $525 0 $473 20.32 $466 $574 forward 7 unknown #
coedge $-1 $467 $517 $570 $575 reversed $410 $-1 #
vertex $-1 $523 $576 #
vertex $-1 $521 $577 #
straight-curve $-1 -260.60399999999998 12.699999999999999 1.27675647831893e-015 1 0 0 I I #
coedge $-1 $578 $469 $571 $579 forward $530 $-1 #
coedge $-1 $469 $578 $476 $538 reversed $530 $-1 #
loop $-1 $-1 $528 $580 #
ellipse-curve $-1 10.259999999999991 11.810999999999995 -20.31999999999999 -1 0 0 0 0.88900000000000468 -7.1054273576010019e-015 1 I I #
coedge $-1 $581 $471 $481 $541 forward $514 $-1 #
coedge $-1 $471 $581 $516 $565 reversed $514 $-1 #
ellipse-curve $-1 -260.60399999999998 11.811 -20.319999999999997 -1 0 0 0 0.88899999999999935 0 1 I I #
point $-1 -260.60399999999998 12.699999999999999 -20.319999999999997 #
point $-1 10.259999999999991 12.699999999999999 -20.319999999999997 #
coedge $-1 $477 $476 $582 $583 forward $478 $-1 #
edge $-1 $422 7.1054273576010019e-015 $584 0.76200000000000045 $476 $585 forward 7 unknown #
face $-1 $580 $478 $2 $-1 $586 forward single #
coedge $-1 $481 $480 $587 $588 reversed $482 $-1 #
edge $-1 $421 -7.1054273576010019e-015 $589 0.76199999999999335 $481 $590 forward 7 unknown #
coedge $-1 $591 $592 $486 $543 reversed $593 $-1 #
edge $-1 $544 0 $494 50.927000000000014 $486 $594 forward 7 unknown #
vertex $-1 $543 $595 #
straight-curve $-1 10.259999999999991 -11.302999999999994 -44.322999999999986 0 -1 0 I I #
plane-surface $-1 10.259999999999991 -11.683999999999994 -69.78649999999999 1 0 0 0 0 -1 forward_v I I I I #
coedge $-1 $592 $591 $489 $548 forward $593 $-1 #
edge $-1 $549 0 $499 50.927000000000014 $489 $596 forward 7 unknown #
vertex $-1 $490 $597 #
straight-curve $-1 -260.60399999999998 -11.302999999999994 -44.322999999999993 0 -1 9.3247078183740121e-015 I I #
plane-surface $-1 -260.60399999999998 -11.683999999999994 -69.78649999999999 1 0 0 0 0 -1 forward_v I I I I #
coedge $-1 $497 $492 $592 $598 reversed $554 $-1 #
coedge $-1 $492 $497 $502 $559 forward $554 $-1 #
loop $-1 $-1 $553 $599 #
ellipse-curve $-1 10.259999999999991 -11.175999999999991 -95.25 1 0 0 0 -0.8890000000000029 0 1 I I #
point $-1 10.259999999999991 -12.064999999999994 -95.25 #
ellipse-curve $-1 -260.60399999999998 -11.175999999999995 -95.25 1 0 0 0 -0.88899999999999935 0 1 I I #
point $-1 -260.60399999999998 -12.064999999999994 -95.25 #
edge $-1 $447 0 $442 270.86399999999998 $502 $600 forward 7 unknown #
face $-1 $510 $504 $2 $-1 $601 reversed single #
straight-curve $-1 -260.60399999999998 -5.3471425076897718 -95.124929415367447 1 0 0 I I #
cone-surface $-1 -260.60399999999998 -5.3250891891260723 -95.25 -1 0 0 0 0 0.12700000000000011 1 I I 0 1 0.12700000000000011 forward I I I I #
plane-surface $-1 -260.60399999999998 -4.8024738239779268 -27.709526176022056 1 0 0 0 -1 0 forward_v I I I I #
coedge $-1 $518 $516 $602 $603 reversed $462 $-1 #
edge $-1 $473 0 $604 0.76200000000000045 $533 $605 forward 7 unknown #
coedge $-1 $602 $606 $517 $567 reversed $607 $-1 #
edge $-1 $568 0 $608 270.86399999999998 $517 $609 forward 7 unknown #
vertex $-1 $519 $610 #
straight-curve $-1 -260.60399999999998 12.699999999999999 1.27675647831893e-015 0 -1 0 I I #
coedge $-1 $611 $520 $524 $575 forward $572 $-1 #
coedge $-1 $520 $611 $528 $579 reversed $572 $-1 #
loop $-1 $-1 $570 $612 #
straight-curve $-1 10.259999999999991 12.699999999999999 1.7763568394002505e-015 0 0 -1 I I #
straight-curve $-1 -260.60399999999998 12.699999999999999 1.7763568394002505e-015 0 0 -1 I I #
edge $-1 $526 0 $608 0.76200000000000045 $570 $613 forward 7 unknown #
point $-1 -260.60399999999998 12.699999999999999 1.7763568394002505e-015 #
point $-1 10.259999999999991 12.699999999999999 1.7763568394002505e-015 #
coedge $-1 $529 $528 $614 $615 forward $530 $-1 #
edge $-1 $474 0 $616 0.76200000000000045 $528 $617 forward 7 unknown #
face $-1 $612 $530 $2 $-1 $618 forward single #
coedge $-1 $533 $532 $619 $620 reversed $514 $-1 #
coedge $-1 $621 $622 $537 $583 reversed $623 $-1 #
edge $-1 $584 1.4879852901660668e-016 $544 1.5707963267948963 $537 $624 forward 7 unknown #
vertex $-1 $583 $625 #
straight-curve $-1 10.259999999999991 11.811 -21.208999999999996 0 0 1 I I #
plane-surface $-1 10.259999999999991 -4.8024738239779268 -27.709526176022056 1 0 0 0 -1 0 forward_v I I I I #
coedge $-1 $622 $621 $540 $588 forward $623 $-1 #
edge $-1 $589 1.4879852901660673e-016 $549 1.5707963267948966 $540 $626 forward 7 unknown #
vertex $-1 $541 $627 #
straight-curve $-1 -260.60399999999998 11.811000000000003 -21.208999999999989 0 0 1 I I #
coedge $-1 $547 $542 $622 $628 reversed $593 $-1 #
coedge $-1 $542 $547 $552 $598 forward $593 $-1 #
loop $-1 $-1 $592 $629 #
straight-curve $-1 10.259999999999991 -12.064999999999994 -44.322999999999986 0 0 -1 I I #
point $-1 10.259999999999991 -12.064999999999994 -44.322999999999986 #
straight-curve $-1 -260.60399999999998 -12.064999999999994 -44.322999999999986 0 0 -1 I I #
point $-1 -260.60399999999998 -12.064999999999994 -44.322999999999986 #
edge $-1 $499 0 $494 270.86399999999998 $552 $630 forward 7 unknown #
face $-1 $560 $554 $2 $-1 $631 forward single #
straight-curve $-1 -260.60399999999998 -11.021626770054093 -96.125494092427857 1 0 0 I I #
plane-surface $-1 -260.60399999999998 -11.021626770054093 -96.125494092427857 0 -0.17364817766693175 0.9848077530122078 0 0.9848077530122078 0.17364817766693175 forward_v I I I I #
coedge $-1 $632 $566 $564 $603 forward $607 $-1 #
edge $-1 $568 0 $604 20.32 $564 $633 forward 7 unknown #
vertex $-1 $565 $634 #
straight-curve $-1 -260.60399999999998 12.699999999999999 -20.319999999999997 0 -1 0 I I #
coedge $-1 $566 $632 $611 $635 reversed $607 $-1 #
loop $-1 $-1 $632 $636 #
vertex $-1 $635 $637 #
straight-curve $-1 -260.60399999999998 11.937999999999999 1.27675647831893e-015 1 0 0 I I #
point $-1 -260.60399999999998 11.937999999999999 1.7763568394002505e-015 #
coedge $-1 $571 $570 $606 $635 forward $572 $-1 #
face $-1 $636 $572 $2 $-1 $638 forward single #
straight-curve $-1 10.259999999999991 12.699999999999999 1.7763568394002505e-015 0 -1 0 I I #
coedge $-1 $639 $640 $578 $615 reversed $641 $-1 #
edge $-1 $616 0 $584 1.5707963267949105 $578 $642 forward 7 unknown #
vertex $-1 $615 $643 #
straight-curve $-1 10.259999999999991 12.699999999999999 -20.319999999999997 0 -1 0 I I #
plane-surface $-1 10.259999999999991 12.170210244842766 -20.679210244842764 1 0 0 0 0 -1 forward_v I I I I #
coedge $-1 $640 $639 $581 $620 forward $641 $-1 #
edge $-1 $604 0 $589 1.5707963267948966 $581 $644 forward 7 unknown #
coedge $-1 $587 $582 $640 $645 reversed $623 $-1 #
coedge $-1 $582 $587 $591 $628 forward $623 $-1 #
loop $-1 $-1 $622 $646 #
ellipse-curve $-1 10.259999999999991 11.811000000000003 -44.322999999999993 1 0 0 0 0 23.876000000000005 1 I I #
point $-1 10.259999999999991 11.811 -20.446999999999996 #
ellipse-curve $-1 -260.60399999999998 11.811000000000003 -44.322999999999986 1 0 0 0 0 23.875999999999998 1 I I #
point $-1 -260.60399999999998 11.811 -20.446999999999996 #
edge $-1 $549 0 $544 270.86399999999998 $591 $647 forward 7 unknown #
face $-1 $599 $593 $2 $-1 $648 reversed single #
straight-curve $-1 -260.60399999999998 -12.064999999999994 -95.25 1 0 0 I I #
cone-surface $-1 -260.60399999999998 -11.175999999999995 -95.25 -1 0 0 0 0 0.8889999999999999 1 I I 0 1 0.8889999999999999 forward I I I I #
coedge $-1 $606 $602 $639 $649 forward $607 $-1 #
straight-curve $-1 -260.60399999999998 11.937999999999999 1.7763568394002505e-015 0 0 -1 I I #
point $-1 -260.60399999999998 11.937999999999999 -20.319999999999997 #
edge $-1 $608 4.9960036108132044e-016 $616 20.32 $611 $650 forward 7 unknown #
face $-1 $651 $607 $2 $-1 $652 reversed single #
point $-1 10.259999999999991 11.937999999999999 1.27675647831893e-015 #
plane-surface $-1 10.259999999999991 12.318999999999999 -10.159999999999997 1 0 0 0 0 -1 forward_v I I I I #
coedge $-1 $619 $614 $632 $649 reversed $641 $-1 #
coedge $-1 $614 $619 $621 $645 forward $641 $-1 #
loop $-1 $-1 $640 $651 #
ellipse-curve $-1 10.259999999999991 11.811000000000002 -20.319999999999997 -1 0 0 0 0.12699999999999889 0 1 I I #
point $-1 10.259999999999991 11.937999999999999 -20.319999999999997 #
ellipse-curve $-1 -260.60399999999998 11.811 -20.319999999999997 -1 0 0 0 0.12700000000000067 0 1 I I #
edge $-1 $589 0 $584 270.86399999999998 $621 $653 forward 7 unknown #
face $-1 $629 $623 $2 $-1 $654 forward single #
straight-curve $-1 -260.60399999999998 -12.064999999999994 -44.322999999999993 1 0 0 I I #
plane-surface $-1 -260.60399999999998 -12.064999999999994 -44.322999999999993 0 1 0 0 0 -1 forward_v I I I I #
edge $-1 $604 0 $616 270.86399999999998 $639 $655 forward 7 unknown #
straight-curve $-1 10.259999999999991 11.937999999999999 1.7763568394002505e-015 0 0 -1 I I #
face $-1 $646 $641 $2 $-1 $656 reversed single #
plane-surface $-1 -260.60399999999998 11.937999999999999 0 0 1 0 0 0 -1 forward_v I I I I #
straight-curve $-1 -260.60399999999998 11.810999999999998 -20.446999999999996 1 0 2.6232453768684668e-017 I I #
cone-surface $-1 -260.60399999999998 11.811000000000003 -44.322999999999986 -1 0 0 0 0 23.875999999999998 1 I I 0 1 23.875999999999998 forward I I I I #
straight-curve $-1 -260.60399999999998 11.937999999999999 -20.319999999999997 1 0 0 I I #
cone-surface $-1 -260.60399999999998 11.811 -20.319999999999997 -1 0 0 0 0 0.12700000000000011 1 I I 0 1 0.12700000000000011 forward I I I I #
End-of-ACIS-data 