600 0 1 0           
101 GICL ACIS Healer - Source: /gicl/data5/repository/PTC/V20/NC_Training_Rel20/DXF/part_13.prt.sat - 6 0 18 ACIS 6.0.3 Solaris 24 Sat Apr 13 20:50:23 2002 
1 9.999999999999999547e-07 1.000000000000000036e-10 
body $-1 $1 $-1 $-1 #
lump $-1 $-1 $2 $0 #
shell $-1 $-1 $-1 $3 $-1 $1 #
face $-1 $4 $5 $2 $-1 $6 forward single #
face $-1 $7 $8 $2 $-1 $9 reversed single #
loop $-1 $-1 $10 $3 #
plane-surface $-1 216 95 0 0 0 1 0 -1 0 forward_v I I I I #
face $-1 $11 $12 $2 $-1 $13 forward single #
loop $-1 $-1 $14 $4 #
plane-surface $-1 -170.6719101123595692 23.64999999999999858 -0.5999999999999999778 0.5153470335242843481 -0.8569815838381361628 0 0.8569815838381360518 0.5153470335242842371 0 forward_v I I I I #
coedge $-1 $15 $16 $17 $18 reversed $5 $-1 #
face $-1 $19 $20 $2 $-1 $21 forward single #
loop $-1 $-1 $22 $7 #
plane-surface $-1 40 69.75 -0.5999999999999999778 -0.1420118755070120531 0.9898649540290740401 0 -0.989864954029073929 -0.1420118755070120253 0 forward_v I I I I #
coedge $-1 $23 $17 $24 $25 forward $8 $-1 #
coedge $-1 $26 $10 $27 $28 reversed $5 $-1 #
coedge $-1 $10 $26 $29 $30 forward $5 $-1 #
coedge $-1 $14 $31 $10 $18 forward $8 $-1 #
edge $-1 $32 -224.5285324896472048 $33 -143.6121843061176833 $10 $34 forward 7 unknown #
face $-1 $35 $36 $2 $-1 $37 reversed single #
loop $-1 $-1 $38 $11 #
plane-surface $-1 199.2584210526315474 48.89999999999999858 -0.5999999999999999778 0.9399377786992307859 -0.3413458248960370978 0 0.3413458248960370423 0.9399377786992305639 0 forward_v I I I I #
coedge $-1 $39 $29 $40 $41 forward $12 $-1 #
coedge $-1 $31 $14 $42 $43 reversed $8 $-1 #
coedge $-1 $29 $39 $14 $25 reversed $12 $-1 #
edge $-1 $33 -0.5999999999999999778 $44 0.5999999999999999778 $24 $45 forward 7 unknown #
coedge $-1 $16 $15 $38 $46 forward $5 $-1 #
coedge $-1 $47 $48 $15 $28 forward $49 $-1 #
edge $-1 $50 33.48315789473690529 $32 421.3438202247191384 $15 $51 forward 7 unknown #
coedge $-1 $22 $24 $16 $30 reversed $12 $-1 #
edge $-1 $52 -88.90101588283454248 $33 266.7030476485035138 $16 $53 forward 7 unknown #
coedge $-1 $17 $23 $54 $55 reversed $8 $-1 #
vertex $-1 $28 $56 #
vertex $-1 $30 $57 #
straight-curve $-1 -12.92700283488888857 118.5101131601005591 0 0.8569815838381361628 0.5153470335242843481 -0 I I #
face $-1 $58 $59 $2 $-1 $60 reversed single #
loop $-1 $-1 $61 $19 #
spline-surface $-1 forward { exactsur full nurbs 3 1 both open open none none 5 4 
	-0.03259252149690455153 3 0 3 0.5 2 1 3 1.032592521496904503 3 
	-0.07499999999999999722 1 0 1 1.002374950982426904 1 1.07737495098242686 1 
	182.5541262344596873 2.877306281702964874 -1.290000000000000036 1 
	182.541698191394147 2.851537521135310005 -1.290000000000000036 1 
	182.5292701483286351 2.825768760567654692 -1.290000000000000036 1 
	182.5168421052630947 2.799999999999999822 -1.290000000000000036 1 
	182.3261842105262645 2.404682924423284351 -1.29000000000000048 1 
	182.1355263157894058 2.010939491514133426 -1.4535980293024926 1 
	181.7542105263157453 1.453598029302491934 -2.010939491514134758 1 
	181.5635526315788866 1.290000000000000036 -2.404682924423284351 1 
	181.3728947368420279 1.290000000000000036 -2.799999999999986056 1 
	181.3604666937764875 1.290000000000000036 -2.825768760567640037 1 
	181.3480386507109756 1.290000000000000036 -2.851537521135294462 1 
	181.3356106076454353 1.290000000000000036 -2.877306281702948443 1 
	182.5541262344596873 2.881913940877313784 -1.199999999999999956 1 
	182.541698191394147 2.854609293918209278 -1.199999999999999956 1 
	182.5292701483286351 2.827304646959104328 -1.199999999999999956 1 
	182.5168421052630947 2.799999999999999822 -1.199999999999999956 1 
	182.3261842105262645 2.381120979521361036 -1.2000000000000004 1 
	182.1355263157894058 1.963909394981863121 -1.373348905221184246 1 
	181.7542105263157453 1.37334890522118358 -1.963909394981864676 1 
	181.5635526315788866 1.199999999999999956 -2.381120979521361036 1 
	181.3728947368420279 1.199999999999999956 -2.799999999999986056 1 
	181.3604666937764875 1.199999999999999956 -2.827304646959089673 1 
	181.3480386507109756 1.199999999999999956 -2.854609293918193735 1 
	181.3356106076454353 1.199999999999999956 -2.881913940877297353 1 
	182.5541262344596873 2.943495302731070407 0.002849941178912437749 1 
	182.541698191394147 2.89566353515404673 0.002849941178912386575 1 
	182.5292701483286351 2.847831767577023498 0.002849941178912335834 1 
	182.5168421052630947 2.799999999999999822 0.002849941178912285093 1 
	182.3261842105262645 2.06621560130647941 0.002849941178911505335 1 
	182.1355263157894058 1.335352185565421568 -0.3008194143227287398 1 
	181.7542105263157453 0.3008194143227275186 -1.33535218556542401 1 
	181.5635526315788866 -0.002849941178912285093 -2.06621560130647941 1 
	181.3728947368420279 -0.002849941178912285093 -2.799999999999986056 1 
	181.3604666937764875 -0.002849941178912285093 -2.847831767577008399 1 
	181.3480386507109756 -0.002849941178912285093 -2.895663535154031187 1 
	181.3356106076454353 -0.002849941178912285093 -2.943495302731053531 1 
	182.5541262344596873 2.948102961905419317 0.09284994117891237631 1 
	182.541698191394147 2.898735307936946004 0.09284994117891232079 1 
	182.5292701483286351 2.849367653968473135 0.09284994117891227916 1 
	182.5168421052630947 2.799999999999999822 0.09284994117891222365 1 
	182.3261842105262645 2.042653656404556095 0.09284994117891143262 1 
	182.1355263157894058 1.288322089033151485 -0.2205702902414204414 1 
	181.7542105263157453 0.2205702902414191646 -1.288322089033153928 1 
	181.5635526315788866 -0.09284994117891222365 -2.042653656404556095 1 
	181.3728947368420279 -0.09284994117891222365 -2.799999999999986056 1 
	181.3604666937764875 -0.09284994117891222365 -2.849367653968458036 1 
	181.3480386507109756 -0.09284994117891222365 -2.898735307936930461 1 
	181.3356106076454353 -0.09284994117891222365 -2.948102961905402442 1 
	2.842170943040400743e-14 
	0 
	2 0 1 
	1 0.5 
	0 
	2 0 1.002374950982426904 
	0 
	F 0 F 1 F 0 F 1.002374950982426904 } I I I I #
coedge $-1 $62 $40 $26 $46 reversed $20 $-1 #
coedge $-1 $24 $22 $63 $64 forward $12 $-1 #
coedge $-1 $38 $65 $22 $41 reversed $20 $-1 #
edge $-1 $52 -0.5999999999999999778 $66 0.5999999999999999778 $40 $67 reversed 7 unknown #
coedge $-1 $63 $68 $23 $43 forward $69 $-1 #
edge $-1 $70 -224.5285324896474322 $44 -143.6121843061176833 $42 $71 forward 7 unknown #
vertex $-1 $64 $72 #
straight-curve $-1 -136 44.50000000000000711 -0.5999999999999999778 0 0 -1 I I #
edge $-1 $50 -73.56869951082923365 $52 24.52289983694307196 $26 $73 forward 7 unknown #
coedge $-1 $74 $27 $75 $76 forward $49 $-1 #
coedge $-1 $27 $74 $77 $78 reversed $49 $-1 #
loop $-1 $-1 $74 $79 #
vertex $-1 $46 $80 #
straight-curve $-1 216 2.799999999999999822 0 -1 0 0 I I #
vertex $-1 $30 $81 #
straight-curve $-1 128 82.375 0 -0.9898649540290740401 -0.1420118755070120531 0 I I #
coedge $-1 $82 $75 $31 $55 forward $83 $84 #
edge $-1 $32 -0.9999999999999996669 $70 -0 $31 $85 reversed 7 unknown #
point $-1 -205.34382022471911 2.799999999999997158 0 #
point $-1 -135.9999999999999147 44.50000000000004263 0 #
face $-1 $86 $87 $2 $-1 $88 reversed single #
loop $-1 $-1 $89 $35 #
plane-surface $-1 177.795789473684124 0.5999999999999999778 -12.64999999999999858 -0.939937778699231119 0 0.3413458248960360986 -0.3413458248960360431 0 -0.939937778699231008 forward_v I I I I #
coedge $-1 $90 $77 $91 $92 forward $36 $93 #
coedge $-1 $65 $38 $94 $95 forward $20 $-1 #
coedge $-1 $96 $42 $39 $64 reversed $69 $-1 #
edge $-1 $66 -88.90101588283454248 $44 266.7030476485035138 $63 $97 forward 7 unknown #
coedge $-1 $40 $62 $96 $98 forward $20 $-1 #
vertex $-1 $64 $99 #
straight-curve $-1 216 95 -0.5999999999999999778 -0 -0 1 I I #
coedge $-1 $42 $96 $100 $101 forward $69 $-1 #
loop $-1 $-1 $96 $102 #
vertex $-1 $43 $103 #
straight-curve $-1 -12.92700283488888857 118.5101131601005591 -1.199999999999999956 0.8569815838381361628 0.5153470335242843481 -0 I I #
point $-1 -135.9999999999999147 44.50000000000004263 -1.199999999999999956 #
straight-curve $-1 207.6292105263157737 71.95000000000000284 0 0.3413458248960370978 0.9399377786992307859 -0 I I #
coedge $-1 $48 $47 $104 $105 reversed $49 $-1 #
coedge $-1 $54 $106 $47 $76 reversed $83 $107 #
edge $-1 $32 0 $108 1.000000000000000222 $47 $109 forward 7 unknown #
coedge $-1 $61 $94 $48 $78 forward $36 $110 #
edge $-1 $50 0 $111 0.999999999999999889 $48 $112 forward 7 unknown #
face $-1 $-1 $49 $2 $-1 $113 forward single #
point $-1 182.5168421052630947 2.799999999999999822 0 #
point $-1 216 95 0 #
coedge $-1 $106 $54 $114 $115 forward $83 $116 #
loop $-1 $-1 $54 $117 #
pcurve $-1 0 forward { exppc nubs 2 open 7 
	-0.9999999999999996669 2 -0.8333333333333330373 2 -0.6666666666666665186 2 -0.4999999999999998335 2 -0.3333333333333332593 2 
	-0.1666666666666665741 2 -0 2 
	0 0.9999999999999996669 
	0 0.9166666666666664076 
	0 0.8333333333333330373 
	0 0.749999999999999778 
	0 0.6666666666666665186 
	0 0.5833333333333332593 
	0 0.499999999999999889 
	0 0.4166666666666665186 
	0 0.3333333333333332038 
	0 0.249999999999999889 
	0 0.1666666666666665741 
	0 0.08333333333333330095 
	0 0 
	0.001000000000000000021 
	spline forward { exactsur full nurbs 3 1 both open open none none 5 4 
	-0.01744185018560046041 3 0 3 0.5000000000000018874 2 1 3 1.017441850185600405 3 
	-0.08444663597008063294 1 0 1 1.002561047192997767 1 1.087007683163078386 1 
	-205.252456285881749 2.841059789129426694 -1.301335963164096832 1 
	-205.2829109321608883 2.827373192752950182 -1.301335963164096832 1 
	-205.3133655784399991 2.813686596376473226 -1.301335963164096832 1 
	-205.3438202247191384 2.799999999999996714 -1.301335963164096832 1 
	-206.2168539325843142 2.407650672639758849 -1.301335963164097054 1 
	-207.0898876404494615 2.016863174201841691 -1.463705819464012237 1 
	-208.835955056179813 1.46370581946401157 -2.016863174201843023 1 
	-209.7089887640449604 1.301335963164096832 -2.407650672639758849 1 
	-210.5820224719101361 1.301335963164096832 -2.799999999999999822 1 
	-210.6124771181892754 1.301335963164096832 -2.813686596376476778 1 
	-210.6429317644683863 1.301335963164096832 -2.827373192752953734 1 
	-210.6733864107475256 1.301335963164096832 -2.841059789129430246 1 
	-205.252456285881749 2.843836150726473111 -1.199999999999999956 1 
	-205.2829109321608883 2.829224100484314164 -1.199999999999999956 1 
	-205.3133655784399991 2.814612050242155661 -1.199999999999999956 1 
	-205.3438202247191384 2.799999999999996714 -1.199999999999999956 1 
	-206.2168539325843142 2.381120979521361036 -1.2000000000000004 1 
	-207.0898876404494615 1.963909394981863343 -1.373348905221184468 1 
	-208.835955056179813 1.373348905221183802 -1.963909394981864898 1 
	-209.7089887640449604 1.199999999999999956 -2.381120979521361036 1 
	-210.5820224719101361 1.199999999999999956 -2.799999999999999822 1 
	-210.6124771181892754 1.199999999999999956 -2.814612050242158769 1 
	-210.6429317644683863 1.199999999999999956 -2.829224100484317717 1 
	-210.6733864107475256 1.199999999999999956 -2.843836150726476664 1 
	-205.252456285881749 2.876797463609408023 0.003073256631597664698 1 
	-205.2829109321608883 2.851198309072937587 0.003073256631597638677 1 
	-205.3133655784399991 2.82559915453646715 0.00307325663159761309 1 
	-205.3438202247191384 2.799999999999996714 0.003073256631597587069 1 
	-206.2168539325843142 2.066157137457679926 0.003073256631596844608 1 
	-207.0898876404494615 1.335235490595455321 -0.3006202935508198171 1 
	-208.835955056179813 0.3006202935508181517 -1.33523549059545843 1 
	-209.7089887640449604 -0.003073256631597796537 -2.066157137457679926 1 
	-210.5820224719101361 -0.003073256631597587069 -2.799999999999999822 1 
	-210.6124771181892754 -0.003073256631597579697 -2.825599154536470703 1 
	-210.6429317644683863 -0.003073256631597572324 -2.851198309072941139 1 
	-210.6733864107475256 -0.003073256631597564952 -2.87679746360941202 1 
	-205.252456285881749 2.87957382520645444 0.1044092197956944384 1 
	-205.2829109321608883 2.853049216804302013 0.1044092197956944107 1 
	-205.3133655784399991 2.826524608402149141 0.1044092197956943829 1 
	-205.3438202247191384 2.799999999999996714 0.1044092197956943552 1 
	-206.2168539325843142 2.039627444339282114 0.104409219795693578 1 
	-207.0898876404494615 1.282281711375476974 -0.2102633793079920765 1 
	-208.835955056179813 0.2102633793079903279 -1.282281711375480304 1 
	-209.7089887640449604 -0.1044092197956945911 -2.039627444339282114 1 
	-210.5820224719101361 -0.1044092197956943552 -2.799999999999999822 1 
	-210.6124771181892754 -0.1044092197956943413 -2.826524608402152694 1 
	-210.6429317644683863 -0.1044092197956943413 -2.853049216804305566 1 
	-210.6733864107475256 -0.1044092197956943274 -2.879573825206457993 1 
	2.220446049250313081e-16 
	0 
	2 0 1 
	1 0.5000000000000018874 
	0 
	2 0 1.002561047192997767 
	0 
	F 0 F 1 F 0 F 1.002561047192997767 } I I I I 
	} 0 0 #
intcurve-curve $-1 forward { exactcur full nurbs 1 open 2 
	0 1 0.9999999999999996669 1 
	-205.3438202247191384 2.799999999999996714 -1.199999999999999956 1 
	-205.3438202247191384 2.799999999999996714 -9.931291899967220616e-17 1 
	0 
	null_surface 
	null_surface 
	nullbs 
	nullbs 
	I I 
	0 
	0 
	0 
	F 1 F 0 } I I #
face $-1 $118 $119 $2 $-1 $120 forward single #
loop $-1 $-1 $121 $58 #
plane-surface $-1 0 0.5999999999999999778 -22.5 0 0 1 -1 0 0 forward_v I I I I #
coedge $-1 $122 $123 $124 $125 forward $59 $-1 #
coedge $-1 $94 $61 $126 $127 reversed $36 $128 #
coedge $-1 $123 $122 $61 $92 reversed $59 $-1 #
edge $-1 $111 -0.999999999999999889 $129 -0 $61 $130 reversed 7 unknown #
pcurve $-1 0 forward { exppc nubs 2 open 7 
	-0.999999999999999889 2 -0.8333333333333332593 2 -0.6666666666666666297 2 -0.4999999999999999445 2 -0.3333333333333333148 2 
	-0.1666666666666666019 2 -0 2 
	1 0.999999999999999889 
	1 0.9166666666666667407 
	1 0.8333333333333332593 
	1 0.749999999999999889 
	1 0.6666666666666666297 
	1 0.5833333333333332593 
	1 0.5 
	1 0.4166666666666666852 
	1 0.3333333333333333148 
	1 0.25 
	1 0.1666666666666666297 
	1 0.08333333333333332871 
	1 0 
	0.001000000000000000021 
	spline reversed { ref 0 } I I I I 
	} 0 0 #
coedge $-1 $77 $90 $62 $95 reversed $36 $131 #
edge $-1 $50 -0.999999999999999889 $132 -0 $94 $133 reversed 7 unknown #
coedge $-1 $68 $63 $65 $98 reversed $69 $-1 #
straight-curve $-1 128 82.375 -1.199999999999999956 -0.9898649540290740401 -0.1420118755070120531 0 I I #
edge $-1 $132 -73.56869951082923365 $66 24.52289983694307196 $96 $134 forward 7 unknown #
point $-1 216 95 -1.199999999999999956 #
coedge $-1 $126 $114 $68 $101 reversed $135 $-1 #
edge $-1 $132 33.48315789473690529 $70 421.3438202247193658 $68 $136 forward 7 unknown #
face $-1 $137 $69 $2 $-1 $138 reversed single #
point $-1 -205.3438202247193658 2.799999999999999822 -1.199999999999999956 #
coedge $-1 $139 $140 $74 $105 forward $119 $-1 #
edge $-1 $111 34.62710526315800053 $108 426.5820224719100224 $104 $141 forward 7 unknown #
coedge $-1 $75 $82 $142 $143 reversed $83 $144 #
pcurve $-1 0 forward { exppc nubs 2 open 49 
	-1.000000000000000222 2 -0.9895833333333335924 2 -0.9791666666666669627 2 -0.9583333333333335924 2 -0.9166666666666669627 2 
	-0.875000000000000222 2 -0.8541666666666669627 2 -0.843750000000000222 2 -0.8385416666666669627 2 -0.835937500000000222 2 
	-0.8346354166666669627 2 -0.833984375000000222 2 -0.8336588541666669627 2 -0.8333333333333335924 2 -0.6666666666666668517 2 
	-0.6663411458333334814 2 -0.666015625000000222 2 -0.6653645833333334814 2 -0.664062500000000222 2 -0.6614583333333334814 2 
	-0.656250000000000222 2 -0.6458333333333334814 2 -0.625000000000000222 2 -0.5833333333333334814 2 -0.500000000000000111 2 
	-0.4166666666666667407 2 -0.375000000000000111 2 -0.3541666666666667407 2 -0.343750000000000111 2 -0.3385416666666667407 2 
	-0.335937500000000111 2 -0.3346354166666667407 2 -0.333984375000000111 2 -0.3336588541666667407 2 -0.3333333333333334259 2 
	-0.1666666666666666574 2 -0.1663411458333333148 2 -0.166015625 2 -0.1653645833333333148 2 -0.1640625 2 
	-0.1614583333333333148 2 -0.15625 2 -0.1458333333333333148 2 -0.125 2 -0.08333333333333332871 2 
	-0.04166666666666666435 2 -0.02083333333333333218 2 -0.01041666666666666609 2 -0 2 
	1 0.999999999999999778 
	0.9947872756956158691 0.9997108990869458811 
	0.9893778292893363746 0.9994922772938662492 
	0.9841866202171231093 0.9992824755229676725 
	0.9787825315737358478 0.999136311833943136 
	0.968711400791365973 0.9988639192577037917 
	0.9576688662903504179 0.9988078719521367166 
	0.9394169220947232724 0.9987152326859037865 
	0.9157191239036960306 0.9992320560530759677 
	0.9016161370889710369 0.9995396269537141221 
	0.8740719516044906934 1.000367671026378469 
	0.8594217242914434784 1.00080809188749198 
	0.8533328939470741226 1.00098382381304396 
	0.8478323440056344529 1.001142577166009628 
	0.8429789505558346052 1.001274763628794418 
	0.8403353860399527253 1.001346763446264942 
	0.8378051484122659431 1.001413072100289181 
	0.8364999450974484052 1.001447276901485495 
	0.8352189471249584773 1.001480125080305372 
	0.8345696726945277533 1.001496774195332673 
	0.8339260097535157179 1.001513090450379506 
	0.8336021191988794987 1.001521300773764445 
	0.8332795804208080748 1.001529428570935742 
	0.8331178120305431367 1.001533505044073902 
	0.8329563754092116357 1.001537560966492713 
	0.8326354303589804662 1.001545624367557563 
	0.832633176764168037 1.001545668721865345 
	0.7625353222488264748 1.002925305291406666 
	0.666943849051826354 1.001715740883390549 
	0.6666602901668301495 1.001711416523029197 
	0.6666187782563153252 1.001710783453604092 
	0.6664567726365852041 1.001708311703874532 
	0.6662937018035892667 1.001705821495258997 
	0.6659708054075292871 1.001700890635629726 
	0.6656435319639348869 1.001695884338358544 
	0.6650025870641096404 1.001686079813222552 
	0.6643431248104383346 1.001675959472389854 
	0.6630844906335213729 1.001656644027450582 
	0.6617420427172082675 1.001635926657325149 
	0.6593692315332347897 1.001599308173322322 
	0.6565388244193320899 1.001555279389483744 
	0.6550789950186102217 1.001532570814172463 
	0.6461283099884388426 1.001392826662479418 
	0.6330864301227414614 1.0011892080084559 
	0.6252921135441562583 1.001072032547891455 
	0.6017767249203759272 1.000718515152931642 
	0.5835686833313520339 1.000506975441196378 
	0.5399313452532391588 0.9999999999999995559 
	0.5000000000000015543 1.000000000000000222 
	0.460068654746732697 1.000000000000000888 
	0.4164313166686636758 1.000506975441198154 
	0.3982232750794892917 1.000718515152935861 
	0.3747078864558554545 1.001072032547893231 
	0.3669135698738426044 1.001189208008510079 
	0.3538716900115756459 1.001392826662480973 
	0.3449210054876545861 1.00153257080628455 
	0.343461175580679956 1.001555279389485742 
	0.34063076832874295 1.001599308175463054 
	0.3382579572827947301 1.001635926657327147 
	0.3369155094900053715 1.001656644025551213 
	0.3356568751895734892 1.001675959472391186 
	0.3349974127598203677 1.00168607981592217 
	0.3343564680360772701 1.001695884338360321 
	0.3340291947740792189 1.001700890632856389 
	0.3337062981964234454 1.001705821495260995 
	0.3335432271598483545 1.001708311706984045 
	0.3333812217437008285 1.001710783453605869 
	0.3333397098331864483 1.001711416523031195 
	0.3330561509481932969 1.001715740883392325 
	0.2374646777510053264 1.002925305291404001 
	0.1673668232358390684 1.001545668721864679 
	0.167364569641075156 1.001545624367557785 
	0.167043624590798051 1.001537560966491824 
	0.1668821879846013601 1.00153350504445382 
	0.1667204195792072463 1.001529428570934854 
	0.1663978807921268621 1.001521300773536183 
	0.166073990246488612 1.00151309045037884 
	0.1654303273075620195 1.001496774195385076 
	0.1647810528750498771 1.001480125080304484 
	0.1635000549024991368 1.00144727690148283 
	0.1621948515877481567 1.001413072100288071 
	0.1596646139603419279 1.00134676344627116 
	0.1570210494441729443 1.001274763628793085 
	0.1521676559941549933 1.001142577166002301 
	0.146667106052934676 1.000983823813042628 
	0.1405782757090734969 1.000808091887505302 
	0.1259280483955180496 1.000367671026376692 
	0.09838386291116485438 0.9995396269537153433 
	0.08428087609630324772 0.9992320560530741913 
	0.06058307790526901854 0.9987152326859023432 
	0.04233113370965532751 0.9988078719521353843 
	0.03128859920863211186 0.9988639192577024595 
	0.02121746842625983273 0.9991363118339422478 
	0.01581337978286611809 0.9992824755229670064 
	0.01062217071065950716 0.9994922772938655831 
	0.005212724304414169396 0.9997108990869441048 
	4.175017708445543192e-17 0.999999999999999778 
	0.001000000000000000021 
	spline forward { ref 2 } I I I I 
	} 0 0 #
vertex $-1 $105 $145 #
intcurve-curve $-1 forward { exactcur full nurbs 3 open 5 
	0 3 0.250029942498950164 1 0.500000000000000222 1 0.7499700575010519454 1 1.000000000000000222 3 
	-205.3438202247191384 2.799999999999995826 0 1 
	-205.7805571227102632 2.41498003559211849 -0.005663457960450035689 1 
	-206.6537825164332105 1.707282690873233921 -0.1444169031802409187 0.9999999999999995559 
	-207.9629213483146088 0.767232953268849438 -0.7672329532688647591 1.000000000000000444 
	-209.2720601801961777 0.1444169031802274017 -1.707282690873268782 0.999999999999999889 
	-210.1452855739190397 0.005663457960445622552 -2.414980035592137586 1 
	-210.5820224719101361 0 -2.799999999999999822 1 
	0 
	null_surface 
	null_surface 
	nullbs 
	nullbs 
	I I 
	0 
	0 
	3 0.250029942498950164 0.500000000000000222 0.7499700575010519454 
	F 1 F 0 } I I #
pcurve $-1 0 forward { exppc nubs 2 open 9 
	0 2 0.1666666666666666297 2 0.2499999999999999445 2 0.3333333333333332593 2 0.4999999999999999445 2 
	0.6666666666666665186 2 0.749999999999999889 2 0.8333333333333332593 2 0.999999999999999889 2 
	0 1 
	0.08537470770608936166 1.001376168559476199 
	0.1670981857283944383 1.002693482364081623 
	0.2012333431758194791 1.002942243238533315 
	0.2496467440191907083 1.002634866036523631 
	0.2836578608338440333 1.002418929090520772 
	0.3327925667753622863 1.001870899541086324 
	0.4967887072604795229 1.000041749874737373 
	0.5 1.000041749874737596 
	0.5032112927390386403 1.000041749874736041 
	0.6672074332246331618 1.001870899541086324 
	0.7163421391666736637 1.00241892909052499 
	0.7503532559808088198 1.002634866036523631 
	0.7987666568241521547 1.002942243238532871 
	0.8329018142716059225 1.002693482364081179 
	0.914625292293909764 1.001376168559475976 
	1 0.999999999999999889 
	0.001000000000000000021 
	spline reversed { ref 0 } I I I I 
	} 0 0 #
vertex $-1 $105 $146 #
intcurve-curve $-1 forward { exactcur full nurbs 3 open 6 
	0 3 0.2000334360974803938 1 0.3999632140405039449 1 0.6000367859594962772 1 0.7999665639025194119 1 
	0.999999999999999889 3 
	182.5168421052630947 2.79999999999999627 -6.63352543407858541e-30 1 
	182.4381390575863691 2.497403838226672779 -3.544772850814429752e-16 1 
	182.2876498797210161 1.923306925405645851 -0.09241335049482889141 1 
	182.060330262247362 1.127205949347831915 -0.4965839121079113072 0.999999999999999889 
	181.8294065798578174 0.4965839121079091978 -1.127205949347839908 1 
	181.6020869623840781 0.09241335049483412334 -1.923306925405628309 0.999999999999999889 
	181.451597784518782 1.11022302462515654e-16 -2.497403838226661676 1 
	181.3728947368420563 1.11022302462515654e-16 -2.799999999999999822 1 
	0 
	null_surface 
	null_surface 
	nullbs 
	nullbs 
	I I 
	0 
	0 
	4 0.2000334360974803938 0.3999632140405039449 0.6000367859594962772 0.7999665639025194119 
	F 1 F 0 } I I #
cone-surface $-1 216 2.799999999999999822 -2.799999999999999822 -1 0 0 0 -2.799999999999999822 0 1 I I 0 1 2.799999999999999822 forward I I I I #
coedge $-1 $100 $147 $82 $115 reversed $135 $-1 #
edge $-1 $70 0 $148 1 $114 $149 forward 7 unknown #
pcurve $-1 0 forward { exppc nubs 2 open 55 
	0 2 0.01041666666666666609 2 0.02083333333333333218 2 0.04166666666666666435 2 0.08333333333333332871 2 
	0.125 2 0.1458333333333333148 2 0.15625 2 0.1614583333333333148 2 0.1640625 2 
	0.1653645833333333148 2 0.166015625 2 0.1663411458333333148 2 0.1666666666666666574 2 0.1669921875 2 
	0.1673177083333333148 2 0.16796875 2 0.1692708333333333148 2 0.171875 2 0.1770833333333333148 2 
	0.1875 2 0.2083333333333333148 2 0.25 2 0.2916666666666666297 2 0.3333333333333333148 2 
	0.375 2 0.4166666666666666297 2 0.5 2 0.5833333333333332593 2 0.625 2 
	0.6666666666666666297 2 0.7083333333333332593 2 0.75 2 0.7916666666666667407 2 0.8125 2 
	0.8229166666666667407 2 0.828125 2 0.8307291666666667407 2 0.83203125 2 0.8326822916666667407 2 
	0.8330078125 2 0.8333333333333333703 2 0.8336588541666667407 2 0.833984375 2 0.8346354166666667407 2 
	0.8359375 2 0.8385416666666667407 2 0.84375 2 0.8541666666666667407 2 0.875 2 
	0.9166666666666667407 2 0.9583333333333333703 2 0.9791666666666667407 2 0.9895833333333333703 2 1 2 
	-1.620578671257533188e-14 4.143936172692780863e-29 
	0.005208336965150307807 -0.0003783439278942864236 
	0.01056962791467662595 -0.0006899203645670800916 
	0.01576520577764691303 -0.0009918662302626855398 
	0.02112405039561252723 -0.0012322423624064314 
	0.03129307915688810116 -0.001688383933128529421 
	0.04218836761149193787 -0.001928074535879355537 
	0.06129518368543340756 -0.002348414417699879516 
	0.08414867127136924085 -0.00211797588951296396 
	0.1018803471204441091 -0.001939182115933114469 
	0.1259087855667326006 -0.001310653783917511798 
	0.1344991156278086686 -0.001085950633240083873 
	0.1467251052660812904 -0.0007302732499129907257 
	0.1502661507027638343 -0.0006272574767562817937 
	0.1571196547387445075 -0.0004253905744944065192 
	0.1606966480816635623 -0.0003200318321944678772 
	0.1623138442893767019 -0.0002725149261237213997 
	0.1637008298343404222 -0.0002317621333938827397 
	0.1649102090117715302 -0.000196344716571124014 
	0.165575948079261015 -0.0001768481364349313439 
	0.1662082141089676612 -0.0001583717277955961472 
	0.1665364140123793135 -0.0001487808985456840611 
	0.1668571730034248135 -0.0001394188000996058577 
	0.1670202882827067636 -0.0001346579006534351006 
	0.1671816416202250577 -0.0001299514130007140618 
	0.1672294297845910438 -0.0001285579423602838643 
	0.1675061030484547853 -0.0001204903365984583141 
	0.1677827703881815957 -0.0001124282720618725168 
	0.1678305573119220628 -0.0001110357648596097397 
	0.1679935772279841921 -0.0001062869915317742801 
	0.168155004434498323 -0.0001015878912053841095 
	0.1684824791733373073 -9.205519417357607465e-05 
	0.1688038773525406266 -8.271300910907425916e-05 
	0.1694638280805756958 -6.353000735974232869e-05 
	0.1701015385503625021 -4.505207193101948526e-05 
	0.1714369734797815958 -6.357269876770244e-06 
	0.172696527777335157 2.987202411061689922e-05 
	0.175407369981805672 0.0001078455575823924025 
	0.1778852169788578963 0.0001777967034815704445 
	0.1833831415459521441 0.0003330064981115597061 
	0.1882577911573138085 0.0004634112020630469031 
	0.1993248331216061486 0.0007594723440999691898 
	0.2089866261813410897 0.0009752862811199655355 
	0.2308531926642424792 0.001463716303644023876 
	0.2504033908632802286 0.001645412262851885399 
	0.2712179041314213834 0.001838858534607929612 
	0.291814301904427309 0.001711388842685661587 
	0.3116944781400629028 0.001588351796691301904 
	0.3332795745730983139 0.001152191044713114397 
	0.3490416923261409066 0.0008336927163282207252 
	0.374846359405819618 0.0001348117315525869885 
	0.408381328583970471 -0.0007734329751627525267 
	0.4165072050826318928 -0.0009750609071290795675 
	0.4643723169153893826 -0.002162741216286257276 
	0.4999999999999971134 -0.002162741216287053514 
	0.5356276830845413395 -0.002162741216288137282 
	0.5834927949173557282 -0.0009750609071295367756 
	0.5916186714142996905 -0.0007734329752075292091 
	0.6251536405941691132 0.0001348117315523391941 
	0.6509583076739402507 0.000833692716329851799 
	0.6667204254269027963 0.001152191044712538902 
	0.6883055218599596348 0.001588351796690806207 
	0.7081856980955669734 0.001711388842684978106 
	0.7287820958686173078 0.001838858534607732721 
	0.7495966091367046724 0.001645412262852540691 
	0.7691468073357281554 0.001463716303645050398 
	0.7910133738186535535 0.0009752862811207862765 
	0.8006751668784832798 0.0007594723440987637738 
	0.8117422088426733406 0.0004634112020644453071 
	0.8166168584542271569 0.0003330064981077640769 
	0.8221147830211330554 0.0001777967034830800334 
	0.8245926300164213574 0.0001078455576339526939 
	0.8273034722226575433 2.987202411168393711e-05 
	0.8285630265209846801 -6.357269897779686693e-06 
	0.8298984614496354162 -4.505207192958255824e-05 
	0.8305361719433026479 -6.353000805181490795e-05 
	0.831196122647451463 -8.271300910840301604e-05 
	0.8315175207533120894 -9.205519203923385183e-05 
	0.8318449955654833028 -0.0001015878912039357509 
	0.832006422909571608 -0.0001062869955366437143 
	0.832169442688070915 -0.0001110357648588372728 
	0.8322172296118122148 -0.0001124282720613242222 
	0.8324938969515438547 -0.0001204903365992077147 
	0.8327705702154076794 -0.0001285579423600333865 
	0.8328183583797738043 -0.0001299514130002908977 
	0.8329797117210933077 -0.0001346579007637507472 
	0.8331428269965619471 -0.0001394188000984849011 
	0.8334635859896437626 -0.000148780898603858582 
	0.8337917858910325331 -0.0001583717277945194532 
	0.834424051892399099 -0.0001768481356049250058 
	0.8350897909882191161 -0.0001963447165700363424 
	0.8362991701851529847 -0.0002317621339646697555 
	0.8376861557106149991 -0.000272514926122206715 
	0.8393033516955947793 -0.0003200318256407229172 
	0.842880345261255326 -0.0004253905744935987344 
	0.8497338493098460788 -0.0006272574771243341705 
	0.8532748947339178214 -0.0007302732499116044648 
	0.8655008843723452916 -0.001085950633243194883 
	0.8740912144332652067 -0.001310653783916637932 
	0.898119652879545427 -0.001939182115932005113 
	0.9158513287286179638 -0.002117975889511950014 
	0.9387048163145580437 -0.002348414417699121876 
	0.9578116323885004224 -0.001928074535878593343 
	0.9687069208430816314 -0.001688383933128468706 
	0.9788759496043734076 -0.00123224236240594893 
	0.9842347942223494961 -0.0009918662302617832667 
	0.9894303720853078188 -0.0006899203645669796945 
	0.9947916630347868328 -0.0003783439278970588369 
	0.999999999999995115 0 
	0.001000000000000000021 
	spline forward { ref 2 } I I I I 
	} 0 0 #
face $-1 $150 $83 $2 $-1 $151 forward single #
face $-1 $117 $152 $2 $-1 $153 forward single #
loop $-1 $154 $139 $86 #
plane-surface $-1 216 0 0 0 -1 0 0 0 -1 forward_v I I I I #
coedge $-1 $155 $124 $156 $157 forward $87 $-1 #
coedge $-1 $91 $89 $158 $159 reversed $59 $-1 #
coedge $-1 $89 $91 $140 $160 forward $59 $-1 #
coedge $-1 $121 $161 $89 $125 reversed $87 $-1 #
edge $-1 $162 -0.5999999999999999778 $163 0.5999999999999999778 $89 $164 forward 7 unknown #
coedge $-1 $147 $100 $90 $127 forward $135 $-1 #
edge $-1 $132 0 $129 1.000000000000000222 $90 $165 forward 7 unknown #
pcurve $-1 0 forward { exppc nubs 2 open 45 
	-1.000000000000000222 2 -0.9583333333333335924 2 -0.9166666666666669627 2 -0.875000000000000222 2 -0.8541666666666669627 2 
	-0.843750000000000222 2 -0.8385416666666669627 2 -0.835937500000000222 2 -0.8346354166666669627 2 -0.833984375000000222 2 
	-0.8336588541666669627 2 -0.8333333333333335924 2 -0.6666666666666668517 2 -0.6663411458333334814 2 -0.666015625000000222 2 
	-0.6653645833333334814 2 -0.664062500000000222 2 -0.6614583333333334814 2 -0.656250000000000222 2 -0.6458333333333334814 2 
	-0.625000000000000222 2 -0.5833333333333334814 2 -0.500000000000000111 2 -0.4166666666666667407 2 -0.375000000000000111 2 
	-0.3541666666666667407 2 -0.343750000000000111 2 -0.3385416666666667407 2 -0.335937500000000111 2 -0.3346354166666667407 2 
	-0.333984375000000111 2 -0.3336588541666667407 2 -0.3333333333333334259 2 -0.1666666666666666574 2 -0.1663411458333333148 2 
	-0.166015625 2 -0.1653645833333333148 2 -0.1640625 2 -0.1614583333333333148 2 -0.15625 2 
	-0.1458333333333333148 2 -0.125 2 -0.08333333333333332871 2 -0.04166666666666666435 2 -0 2 
	1 0 
	0.9802301244743947262 -0.0006243416166225230525 
	0.9569901795691475588 -0.0006936113489179860942 
	0.9385405055107899353 -0.0007486030448182870228 
	0.9147463497702849056 -0.0004529797251682388267 
	0.9004502579390207817 -0.000275362239123332379 
	0.8731115746090803986 0.0001964676684037738722 
	0.8581276567524827037 0.0004550704873968027322 
	0.8524643118575784273 0.0005492335860865906003 
	0.8469844128959409524 0.0006403465725471590682 
	0.8421720569804012069 0.0007159994120514528949 
	0.8395440579525962344 0.0007573129790764011188 
	0.8370323162200807854 0.0007953464020217312783 
	0.8357356895209522296 0.000814980248532241533 
	0.8344638571104054936 0.0008338347265595780038 
	0.8338190345870023501 0.0008433939986770566406 
	0.8331799570191834592 0.0008527623036747281234 
	0.8328583298987326522 0.0008574770693173647176 
	0.8325380864096884048 0.0008621445174622266233 
	0.832377458704878892 0.0008644856157465195421 
	0.8322171705971163069 0.0008668149338553273082 
	0.8319035797845084623 0.0008713720577048509122 
	0.8318962676394211497 0.0008714714448830162413 
	0.7642357347920714084 0.001791118053612404844 
	0.6671918027368640702 0.0009913062392225707471 
	0.6671886825803179377 0.0009912805236728374977 
	0.6668672360037848357 0.0009884890269642218185 
	0.6667049475517939916 0.000987079004439379501 
	0.666542658041864633 0.0009856689727227741643 
	0.6662200750646267711 0.0009828649041601787619 
	0.6658934685040170942 0.0009800205350889907609 
	0.6652526811536836338 0.0009744400111792643569 
	0.6645949554816089622 0.0009686917157188606282 
	0.6633340593237108118 0.0009576719183042639019 
	0.6619973977431619083 0.0009459172037181427274 
	0.6595982273716110011 0.0009248186972936247446 
	0.6568001885382284133 0.0008999866787249266023 
	0.653901865269791216 0.0008742646564174026691 
	0.6463976643445406012 0.0008072677053712440202 
	0.6329839279625442128 0.0006875108586974559236 
	0.6255624175073876136 0.0006234209657435131179 
	0.6018701115656568401 0.000418821462616759347 
	0.5837899546638648518 0.0002969988236965393391 
	0.5397112400694524803 -1.868856657182534733e-16 
	0.5 -1.387778780781445676e-16 
	0.46028875993081797 -8.630286130622005552e-16 
	0.4162100453361259333 0.0002969988236977415567 
	0.3981298884344794953 0.0004188214626166938612 
	0.374437582492608112 0.0006234209657444256909 
	0.3670160720340219784 0.0006875108587287030639 
	0.3536023356554609531 0.000807267705372529884 
	0.3460981345612509363 0.000874264657922421435 
	0.3431998114617672568 0.0008999866787257113478 
	0.3404017727617710265 0.0009248186961159821258 
	0.3380026022568327626 0.0009459172037189292077 
	0.3366659404170327385 0.0009576719205778715278 
	0.3354050445183869855 0.0009686917157196264002 
	0.3347473187126228655 0.0009744400123462887333 
	0.3341065314959775767 0.000980020535089595312 
	0.3337799249438258009 0.0009828649040871527583 
	0.3334573419581261522 0.0009856689727233396842 
	0.3332950524481970156 0.0009870790044402702815 
	0.3331327639962063936 0.0009884890269654378597 
	0.3328113174210969305 0.0009912805236618154985 
	0.3328081972631353747 0.0009913062392233381453 
	0.235764265207987822 0.001791118053613055799 
	0.1681037323605748535 0.0008714714448842461603 
	0.1680964202161292498 0.0008713720577148086587 
	0.1677828294028911871 0.0008668149338561343883 
	0.1676225412831952588 0.0008644856155738129665 
	0.167461913590314343 0.0008621445174632775404 
	0.1671416700925318355 0.0008574770691906949925 
	0.1668200429808188168 0.0008527623036757829436 
	0.1661809654259477353 0.0008433939988689055645 
	0.165536142889587401 0.0008338347265603489799 
	0.1642643104754363814 0.0008149802484790345282 
	0.1629676837799125255 0.0007953464020225656803 
	0.1604559420439500561 0.0007573129790241644749 
	0.1578279430195971278 0.0007159994120525684305 
	0.1530155871040171922 0.0006403465725475752934 
	0.1475356881424196021 0.0005492335860877054854 
	0.1418723432497787096 0.0004550704874362708897 
	0.1268884253909173809 0.0001964676684049223676 
	0.09954974206079819643 -0.0002753622391248087371 
	0.08525365022971878592 -0.00045297972516739239 
	0.06145949448927790632 -0.0007486030448174494766 
	0.04300982043085709722 -0.0006936113489175984919 
	0.01976987552557919053 -0.000624341616621992444 
	5.85492012390366879e-16 0 
	0.001000000000000000021 
	spline reversed { ref 0 } I I I I 
	} 0 0 #
vertex $-1 $127 $166 #
intcurve-curve $-1 forward { exactcur full nurbs 1 open 2 
	0 1 0.999999999999999889 1 
	181.3728947368420279 1.199999999999999956 -2.799999999999986056 1 
	181.3728947368420279 9.497611030973018842e-17 -2.799999999999986056 1 
	0 
	null_surface 
	null_surface 
	nullbs 
	nullbs 
	I I 
	0 
	0 
	0 
	F 1 F 0 } I I #
pcurve $-1 0 forward { exppc nubs 2 open 7 
	0 2 0.1666666666666666297 2 0.3333333333333332593 2 0.4999999999999999445 2 0.6666666666666665186 2 
	0.8333333333333332593 2 0.999999999999999889 2 
	0 0 
	0 0.08333333333333332871 
	0 0.1666666666666666297 
	0 0.2499999999999999167 
	0 0.3333333333333332593 
	0 0.4166666666666666297 
	0 0.5 
	0 0.5833333333333332593 
	0 0.6666666666666665186 
	0 0.75 
	0 0.8333333333333332593 
	0 0.9166666666666665186 
	0 0.999999999999999889 
	0.001000000000000000021 
	spline reversed { ref 0 } I I I I 
	} 0 0 #
vertex $-1 $95 $167 #
intcurve-curve $-1 forward { exactcur full nurbs 1 open 2 
	0 1 0.999999999999999889 1 
	182.5168421052630947 2.799999999999999822 -1.199999999999999956 1 
	182.5168421052630947 2.799999999999999822 -9.497611030973018842e-17 1 
	0 
	null_surface 
	null_surface 
	nullbs 
	nullbs 
	I I 
	0 
	0 
	0 
	F 1 F 0 } I I #
straight-curve $-1 207.6292105263157737 71.95000000000000284 -1.199999999999999956 0.3413458248960370978 0.9399377786992307859 -0 I I #
loop $-1 $-1 $100 $150 #
straight-curve $-1 216 2.799999999999999822 -1.199999999999999956 -1 0 0 I I #
face $-1 $168 $169 $2 $-1 $170 reversed single #
plane-surface $-1 216 95 -1.199999999999999956 0 0 1 0 -1 0 forward_v I I I I #
coedge $-1 $171 $104 $172 $173 forward $119 $-1 #
coedge $-1 $104 $156 $123 $160 reversed $119 $-1 #
straight-curve $-1 216 0 -2.799999999999999822 -1 0 0 I I #
coedge $-1 $174 $172 $106 $143 forward $152 $-1 #
edge $-1 $108 -0.9999999999999996669 $148 -0 $106 $175 reversed 7 unknown #
pcurve $-1 0 forward { exppc nubs 2 open 7 
	0 2 0.1666666666666666019 2 0.3333333333333332038 2 0.4999999999999998335 2 0.6666666666666664076 2 
	0.8333333333333330373 2 0.9999999999999996669 2 
	1 0 
	1 0.08333333333333330095 
	1 0.1666666666666665741 
	1 0.249999999999999889 
	1 0.3333333333333332038 
	1 0.4166666666666665186 
	1 0.499999999999999889 
	1 0.5833333333333331483 
	1 0.6666666666666664076 
	1 0.7499999999999996669 
	1 0.8333333333333330373 
	1 0.9166666666666665186 
	1 0.9999999999999996669 
	0.001000000000000000021 
	spline forward { ref 2 } I I I I 
	} 0 0 #
point $-1 -210.5820224719100224 0 -2.799999999999954525 #
point $-1 181.3728947368419995 0 -2.799999999999999822 #
coedge $-1 $114 $126 $176 $177 forward $135 $-1 #
vertex $-1 $115 $178 #
intcurve-curve $-1 forward { exactcur full nurbs 3 open 4 
	0 3 0.3333317604807991552 1 0.6666682395192009558 1 1 3 
	-205.3438202247190816 2.79999999999999849 -1.199999999999999956 1 
	-205.9256053119925127 2.49724583817898127 -1.209834918986090191 0.999999999999999889 
	-207.0893526608581965 1.973905960146757899 -1.342612120801988107 1.000000000000000444 
	-208.8364900357709359 1.342612120801982778 -1.973905960146772554 0.999999999999999778 
	-210.0002373846367334 1.209834918986087526 -2.497245838178987931 1 
	-210.5820224719100793 1.199999999999999956 -2.799999999999999822 1 
	0 
	null_surface 
	null_surface 
	nullbs 
	nullbs 
	I I 
	0 
	0 
	2 0.3333317604807991552 0.6666682395192009558 
	F 1 F 0 } I I #
face $-1 $102 $135 $2 $-1 $179 reversed single #
spline-surface $-1 forward { ref 2 } I I I I #
loop $-1 $-1 $142 $118 #
plane-surface $-1 -213.2910112359550681 0.5999999999999999778 -4.429054054054038403 -0.5153470335242825717 0 0.856981583838137051 -0.856981583838137051 0 -0.5153470335242825717 forward_v I I I I #
loop $-1 $180 $181 $86 #
coedge $-1 $161 $121 $182 $183 forward $87 $-1 #
coedge $-1 $140 $171 $121 $157 reversed $119 $-1 #
edge $-1 $162 -66.21868421052622011 $184 324 $156 $185 forward 7 unknown #
coedge $-1 $186 $176 $122 $159 forward $169 $-1 #
edge $-1 $129 1.986113261596191393 $163 22.94494739555621265 $122 $187 reversed 7 unknown #
edge $-1 $111 1.986113261596190505 $162 22.9449473955562091 $140 $188 forward 7 unknown #
coedge $-1 $124 $155 $186 $189 reversed $87 $-1 #
vertex $-1 $160 $190 #
vertex $-1 $159 $191 #
straight-curve $-1 174.2186842105262201 0.5999999999999999778 -22.5 0 1 -0 I I #
intcurve-curve $-1 forward { exactcur full nurbs 3 open 5 
	0 3 0.2500693970830273338 1 0.5 1 0.749930602916971889 1 1.000000000000000222 3 
	182.5168421052630947 2.79999999999999849 -1.199999999999999956 1 
	182.4213842634626133 2.579818502372472899 -1.203292954115168012 0.999999999999999889 
	182.2306093636557023 2.175256439720354429 -1.282642579541304118 0.999999999999999889 
	181.9448684210525755 1.63847734245086829 -1.638477342450867624 1 
	181.6591274784495056 1.282642579541303007 -2.175256439720358426 0.999999999999999778 
	181.4683525786425662 1.203292954115167346 -2.57981850237247512 1 
	181.3728947368420563 1.199999999999999956 -2.799999999999999822 1 
	0 
	null_surface 
	null_surface 
	nullbs 
	nullbs 
	I I 
	0 
	0 
	3 0.2500693970830273338 0.5 0.749930602916971889 
	F 1 F 0 } I I #
point $-1 181.3728947368419995 1.199999999999999956 -2.799999999999999822 #
point $-1 182.5168421052630947 2.799999999999999822 -1.199999999999999956 #
face $-1 $192 $193 $2 $-1 $194 forward single #
loop $-1 $195 $158 $137 #
plane-surface $-1 216 1.199999999999999956 0 0 -1 0 0 0 -1 forward_v I I I I #
coedge $-1 $156 $139 $196 $197 forward $119 $-1 #
coedge $-1 $142 $198 $139 $173 reversed $152 $-1 #
edge $-1 $108 181.9274136464513276 $199 188.2495769580882552 $139 $200 forward 7 unknown #
coedge $-1 $198 $142 $201 $202 forward $152 $-1 #
intcurve-curve $-1 forward { exactcur full nurbs 1 open 2 
	0 1 0.9999999999999996669 1 
	-210.5820224719101361 1.199999999999999956 -2.799999999999999822 1 
	-210.5820224719101361 9.931291899967220616e-17 -2.799999999999999822 1 
	0 
	null_surface 
	null_surface 
	nullbs 
	nullbs 
	I I 
	0 
	0 
	0 
	F 1 F 0 } I I #
coedge $-1 $158 $201 $147 $177 reversed $169 $-1 #
edge $-1 $129 34.62710526315800053 $148 426.5820224719100224 $147 $203 forward 7 unknown #
point $-1 -210.5820224719100224 1.199999999999999956 -2.799999999999954525 #
cone-surface $-1 216 2.799999999999999822 -2.799999999999999822 -1 0 0 0 -1.599999999999999867 0 1 I I 0 1 1.599999999999999867 forward I I I I #
loop $-1 $-1 $204 $86 #
coedge $-1 $205 $205 $206 $207 reversed $154 $-1 #
coedge $-1 $196 $208 $155 $183 reversed $193 $-1 #
edge $-1 $184 -0.5999999999999999778 $209 0.5999999999999999778 $155 $210 reversed 7 unknown #
vertex $-1 $157 $211 #
straight-curve $-1 108 0 -22.5 -1 0 0 I I #
coedge $-1 $212 $158 $161 $189 forward $169 $-1 #
straight-curve $-1 182.050846206458516 1.199999999999999956 -0.933177112650193763 0.3413458248960360986 0 0.939937778699231119 I I #
straight-curve $-1 182.050846206458516 0 -0.9331771126501946512 -0.3413458248960360986 -0 -0.939937778699231119 I I #
edge $-1 $163 -66.21868421052622011 $209 324 $161 $213 reversed 7 unknown #
point $-1 174.2186842105262201 0 -22.5 #
point $-1 174.2186842105262201 1.199999999999999956 -22.5 #
face $-1 $214 $215 $2 $-1 $216 forward single #
loop $-1 $-1 $208 $168 #
plane-surface $-1 -216 0.5999999999999999778 -12.64999999999999858 -1 0 0 0 0 -1 forward_v I I I I #
loop $-1 $217 $218 $137 #
coedge $-1 $219 $182 $171 $197 reversed $193 $-1 #
edge $-1 $199 -0.2668918918919267469 $184 16.17500000000000071 $171 $220 forward 7 unknown #
coedge $-1 $172 $174 $219 $221 reversed $152 $-1 #
vertex $-1 $197 $222 #
straight-curve $-1 -54.67357938159824471 0 90.95575293944384043 -0.856981583838137051 -0 -0.5153470335242825717 I I #
coedge $-1 $176 $212 $174 $202 reversed $169 $-1 #
edge $-1 $148 181.9274136464513276 $223 188.2495769580882552 $174 $224 reversed 7 unknown #
straight-curve $-1 216 1.199999999999999956 -2.799999999999999822 -1 0 0 I I #
coedge $-1 $225 $226 $227 $228 forward $180 $-1 #
coedge $-1 $181 $181 $229 $230 reversed $154 $-1 #
coedge $-1 $231 $232 $181 $207 forward $233 $-1 #
edge $-1 $234 3.552713678800500929e-15 $235 3.141592653589796669 $181 $236 forward 7 unknown #
coedge $-1 $182 $219 $212 $237 forward $193 $-1 #
vertex $-1 $189 $238 #
straight-curve $-1 -216 0.5999999999999999778 -22.5 0 -1 0 I I #
point $-1 -216 0 -22.5 #
coedge $-1 $201 $186 $208 $237 reversed $169 $-1 #
straight-curve $-1 108 1.199999999999999956 -22.5 1 0 -0 I I #
face $-1 $239 $240 $2 $-1 $241 reversed single #
loop $-1 $-1 $242 $192 #
plane-surface $-1 127 0.5999999999999999778 -6.5 0 0 -1 1 0 0 forward_v I I I I #
loop $-1 $-1 $243 $137 #
coedge $-1 $244 $245 $246 $247 reversed $195 $-1 #
coedge $-1 $208 $196 $198 $221 forward $193 $-1 #
straight-curve $-1 -216 0 -6.324999999999999289 -0 -0 -1 I I #
edge $-1 $199 -0.5999999999999999778 $223 0.5999999999999999778 $219 $248 forward 7 unknown #
point $-1 -216 0 -6.058108108108072543 #
vertex $-1 $221 $249 #
straight-curve $-1 -54.67357938159824471 1.199999999999999956 90.95575293944384043 0.856981583838137051 0 0.5153470335242825717 I I #
coedge $-1 $250 $204 $251 $252 reversed $180 $-1 #
coedge $-1 $204 $250 $253 $254 reversed $180 $-1 #
coedge $-1 $255 $256 $204 $228 reversed $257 $-1 #
edge $-1 $258 39 $259 50 $204 $260 forward 7 unknown #
coedge $-1 $261 $262 $205 $230 forward $263 $-1 #
edge $-1 $235 3.552713678800500929e-15 $234 3.141592653589796669 $205 $264 forward 7 unknown #
coedge $-1 $265 $206 $262 $266 forward $233 $-1 #
coedge $-1 $206 $265 $261 $267 reversed $233 $-1 #
loop $-1 $-1 $231 $268 #
vertex $-1 $230 $269 #
vertex $-1 $230 $270 #
ellipse-curve $-1 -108 0 -11 0 -1 0 4.5 0 -1.598721155460225418e-14 1 I I #
edge $-1 $223 -0.266891891891922306 $209 16.17500000000000071 $208 $271 reversed 7 unknown #
point $-1 -216 1.199999999999999956 -22.5 #
face $-1 $272 $257 $2 $-1 $273 forward single #
loop $-1 $-1 $274 $214 #
cone-surface $-1 121.5 0.5999999999999999778 -11 0 -1 0 0 0 4.5 1 I I 0 1 4.5 forward I I I I #
coedge $-1 $246 $275 $276 $277 forward $215 $-1 #
coedge $-1 $278 $278 $265 $279 forward $217 $-1 #
coedge $-1 $280 $218 $281 $282 forward $195 $-1 #
coedge $-1 $218 $280 $283 $284 forward $195 $-1 #
coedge $-1 $285 $242 $218 $247 forward $215 $-1 #
edge $-1 $286 -50 $287 -39 $218 $288 forward 7 unknown #
straight-curve $-1 -216 0.5999999999999999778 -6.058108108108076983 0 1 0 I I #
point $-1 -216 1.199999999999999956 -6.058108108108076983 #
coedge $-1 $226 $225 $275 $289 forward $180 $-1 #
coedge $-1 $274 $276 $225 $252 forward $240 $-1 #
edge $-1 $290 0 $259 3.141592653589793116 $225 $291 forward 7 unknown #
coedge $-1 $292 $293 $226 $254 forward $294 $-1 #
edge $-1 $258 0 $295 3.141592653589793116 $226 $296 forward 7 unknown #
coedge $-1 $297 $227 $293 $298 forward $257 $-1 #
coedge $-1 $227 $297 $274 $299 reversed $257 $-1 #
loop $-1 $-1 $255 $239 #
vertex $-1 $254 $300 #
vertex $-1 $252 $301 #
straight-curve $-1 171.5 0 -15.5 -1 0 0 I I #
coedge $-1 $302 $229 $232 $267 forward $263 $-1 #
coedge $-1 $229 $302 $231 $266 reversed $263 $-1 #
loop $-1 $-1 $261 $303 #
ellipse-curve $-1 -108 0 -11 0 -1 0 -4.5 0 1.598721155460225418e-14 1 I I #
coedge $-1 $232 $231 $243 $279 reversed $233 $-1 #
edge $-1 $235 0 $304 1.199999999999999956 $262 $305 forward 7 unknown #
edge $-1 $234 0 $306 1.199999999999999956 $261 $307 forward 7 unknown #
face $-1 $303 $233 $2 $-1 $308 reversed single #
point $-1 -103.5 0 -11 #
point $-1 -112.5 0 -11 #
straight-curve $-1 -216 1.199999999999999956 -6.324999999999999289 0 0 1 I I #
face $-1 $268 $294 $2 $-1 $309 reversed single #
plane-surface $-1 127 0.5999999999999999778 -15.5 0 0 1 -1 0 0 forward_v I I I I #
coedge $-1 $281 $251 $256 $299 forward $240 $-1 #
coedge $-1 $242 $285 $250 $289 reversed $215 $-1 #
coedge $-1 $251 $281 $242 $277 reversed $240 $-1 #
edge $-1 $290 -0.5999999999999999778 $286 0.5999999999999999778 $242 $310 reversed 7 unknown #
coedge $-1 $243 $243 $302 $311 forward $217 $-1 #
edge $-1 $306 3.552713678800500929e-15 $304 3.141592653589796669 $243 $312 forward 7 unknown #
coedge $-1 $245 $244 $297 $313 reversed $195 $-1 #
coedge $-1 $276 $274 $244 $282 reversed $240 $-1 #
edge $-1 $286 0 $314 3.141592653589793116 $244 $315 forward 7 unknown #
coedge $-1 $293 $292 $245 $284 reversed $294 $-1 #
edge $-1 $316 0 $287 3.141592653589793116 $245 $317 forward 7 unknown #
coedge $-1 $275 $246 $292 $318 reversed $215 $-1 #
vertex $-1 $282 $319 #
vertex $-1 $284 $320 #
straight-curve $-1 171.5 1.199999999999999956 -6.5 1 0 0 I I #
edge $-1 $290 -50 $295 -39 $250 $321 forward 7 unknown #
vertex $-1 $289 $322 #
ellipse-curve $-1 121.5 0 -11 0 -1 0 0 0 4.5 1 I I #
coedge $-1 $283 $253 $285 $318 forward $294 $-1 #
coedge $-1 $253 $283 $255 $298 reversed $294 $-1 #
loop $-1 $-1 $292 $272 #
vertex $-1 $254 $323 #
ellipse-curve $-1 132.5 0 -11 0 -1 0 0 0 -4.5 1 I I #
coedge $-1 $256 $255 $280 $313 forward $257 $-1 #
edge $-1 $258 -0.5999999999999999778 $316 0.5999999999999999778 $293 $324 reversed 7 unknown #
edge $-1 $259 -0.5999999999999999778 $314 0.5999999999999999778 $274 $325 reversed 7 unknown #
point $-1 132.5 0 -15.5 #
point $-1 121.5 0 -15.5 #
coedge $-1 $262 $261 $278 $311 reversed $263 $-1 #
face $-1 $79 $263 $2 $-1 $326 reversed single #
vertex $-1 $311 $327 #
straight-curve $-1 -112.5 0 -10.99999999999998401 0 1 0 I I #
vertex $-1 $311 $328 #
straight-curve $-1 -103.5 0 -11.00000000000001599 0 1 0 I I #
cone-surface $-1 -108 0.5999999999999999778 -11 0 -1 0 4.5 0 -1.598721155460225418e-14 1 I I 0 1 4.5 forward I I I I #
cone-surface $-1 132.5 0.5999999999999999778 -11 0 -1 0 0 0 -4.5 1 I I 0 1 4.5 forward I I I I #
straight-curve $-1 121.5 0.5999999999999999778 -6.5 0 -1 0 I I #
edge $-1 $304 3.552713678800500929e-15 $306 3.141592653589796669 $278 $329 forward 7 unknown #
ellipse-curve $-1 -108 1.199999999999999956 -11 0 -1 0 4.5 0 -1.598721155460225418e-14 1 I I #
edge $-1 $316 39 $314 50 $280 $330 forward 7 unknown #
vertex $-1 $313 $331 #
ellipse-curve $-1 121.5 1.199999999999999956 -11 0 -1 0 0 0 4.5 1 I I #
vertex $-1 $284 $332 #
ellipse-curve $-1 132.5 1.199999999999999956 -11 0 -1 0 0 0 -4.5 1 I I #
edge $-1 $295 -0.5999999999999999778 $287 0.5999999999999999778 $292 $333 reversed 7 unknown #
point $-1 121.5 1.199999999999999956 -6.5 #
point $-1 132.5 1.199999999999999956 -6.5 #
straight-curve $-1 171.5 0 -6.5 1 0 0 I I #
point $-1 121.5 0 -6.5 #
point $-1 132.5 0 -6.5 #
straight-curve $-1 132.5 0.5999999999999999778 -15.5 0 -1 0 I I #
straight-curve $-1 121.5 0.5999999999999999778 -15.5 0 -1 0 I I #
cone-surface $-1 -108 0.5999999999999999778 -11 0 -1 0 -4.5 0 1.598721155460225418e-14 1 I I 0 1 4.5 forward I I I I #
point $-1 -112.5 1.199999999999999956 -11 #
point $-1 -103.5 1.199999999999999956 -11 #
ellipse-curve $-1 -108 1.199999999999999956 -11 0 -1 0 -4.5 0 1.598721155460225418e-14 1 I I #
straight-curve $-1 171.5 1.199999999999999956 -15.5 -1 0 0 I I #
point $-1 121.5 1.199999999999999956 -15.5 #
point $-1 132.5 1.199999999999999956 -15.5 #
straight-curve $-1 132.5 0.5999999999999999778 -6.5 0 -1 0 I I #
End-of-ACIS-data 