600 0 1 0           
101 GICL ACIS Healer - Source: /gicl/data5/repository/PTC/V20/NC_Training_Rel20/DXF/part_34.prt.sat - 6 0 18 ACIS 6.0.3 Solaris 24 Sat Apr 13 20:51:10 2002 
1 9.999999999999999547e-07 1.000000000000000036e-10 
body $-1 $1 $-1 $-1 #
lump $-1 $-1 $2 $0 #
shell $-1 $-1 $-1 $3 $-1 $1 #
face $-1 $4 $5 $2 $-1 $6 forward single #
face $-1 $7 $8 $2 $-1 $9 forward single #
loop $-1 $-1 $10 $3 #
plane-surface $-1 0 0 0 0 0 1 1 0 0 forward_v I I I I #
face $-1 $11 $12 $2 $-1 $13 reversed single #
loop $-1 $-1 $14 $4 #
plane-surface $-1 -23.8125 -6.349999999929321071 -1.587499999999999911 -1 0 0 0 -1 0 forward_v I I I I #
coedge $-1 $15 $16 $17 $18 forward $5 $-1 #
face $-1 $19 $20 $2 $-1 $21 forward single #
loop $-1 $-1 $22 $7 #
spline-surface $-1 forward { exactsur full nurbs 3 1 both open open none none 26 4 
	-0.01000000000000000021 3 0 3 0.04347826086956520925 2 0.08695652173913044625 2 0.1304347826086956486 2 
	0.1739130434782608647 2 0.2173913043478260809 2 0.2608695652173912971 2 0.304347826086956541 2 0.3478260869565217295 2 
	0.3913043478260869179 2 0.4347826086956521618 2 0.4782608695652174058 2 0.5217391304347825942 2 0.5652173913043477826 2 
	0.6086956521739130821 2 0.6521739130434782705 2 0.695652173913043459 2 0.7391304347826086474 2 0.7826086956521738358 2 
	0.8260869565217391353 2 0.8695652173913043237 2 0.9130434782608695121 2 0.9565217391304348116 2 1 3 
	1.010000000000000009 3 
	-0.02834645669291338543 1 0 1 1 1 1.028346456692913469 1 
	23.81249999993296385 -0.7528349762087551689 0.08999999999999999667 1 
	23.81249999995531041 -0.5018899840920507671 0.08999999999999999667 1 
	23.81249999997765343 -0.2509449919753464209 0.08999999999999999667 1 
	23.8125 1.413579858423579134e-10 0.08999999999999999667 1 
	23.81250000009715251 1.091065183257464044 0.08999999999999999667 1 
	23.73835897167558073 2.170441762174587286 0.08999999999999999667 1 
	23.44293783632911499 4.315497269252370316 0.08999999999999999667 1 
	23.22165772940422102 5.381176197413029882 0.08999999999999999667 1 
	22.63670703459289513 7.46980028382823491 0.08999999999999999667 1 
	22.2730364467064561 8.492745442082778595 0.08999999999999999667 1 
	21.40887280687405791 10.48155011487808963 0.08999999999999999667 1 
	20.9083797549281023 11.44740962941885876 0.08999999999999999667 1 
	19.78183391719523954 13.29998585017258428 0.08999999999999999667 1 
	19.15578113140833594 14.1867025563855389 0.08999999999999999667 1 
	17.78732662670873665 15.86853475403557034 0.08999999999999999667 1 
	17.04492490779604097 16.66365024547264539 0.08999999999999999667 1 
	15.46018549134558739 18.14387776640477057 0.08999999999999999667 1 
	14.61784779380783128 18.82898979589981892 0.08999999999999999667 1 
	12.84697080723783813 20.07889086088677288 0.08999999999999999667 1 
	11.91843151820559932 20.64367989637867495 0.08999999999999999667 1 
	9.99346533251245539 21.64120605917785767 0.08999999999999999667 1 
	8.997038435851552052 22.07394318648514187 0.08999999999999999667 1 
	6.953288888223457143 22.80029959104796333 0.08999999999999999667 1 
	5.90596623725626646 23.09391886830350771 0.08999999999999999667 1 
	3.781649953812556753 23.53533820497465356 0.08999999999999999667 1 
	2.704656321336037728 23.68313826439025505 0.08999999999999999667 1 
	0.5425542296163263778 23.83093832380562205 0.08999999999999999667 1 
	-0.542554229626865725 23.83093832380537691 0.08999999999999999667 1 
	-2.704656321346544878 23.68313826438905778 0.08999999999999999667 1 
	-3.781649953823032817 23.53533820497297313 0.08999999999999999667 1 
	-5.905966237266571994 23.0939188683008787 0.08999999999999999667 1 
	-6.953288888233623233 22.80029959104486892 0.08999999999999999667 1 
	-8.997038435861364647 22.07394318648114506 0.08999999999999999667 1 
	-9.993465332522054823 21.64120605917343454 0.08999999999999999667 1 
	-11.91843151821477953 20.64367989637337786 0.08999999999999999667 1 
	-12.84697080724681406 20.07889086088103525 0.08999999999999999667 1 
	-14.61784779381631871 18.82898979589323929 0.08999999999999999667 1 
	-15.46018549135378706 18.14387776639778593 0.08999999999999999667 1 
	-17.04492490780358693 16.6636502454649289 0.08999999999999999667 1 
	-17.78732662671592024 15.86853475402752345 0.08999999999999999667 1 
	-19.1557811314147628 14.18670255637686495 0.08999999999999999667 1 
	-19.7818339172012756 13.29998585016360835 0.08999999999999999667 1 
	-20.90837975493329992 11.44740962940934637 0.08999999999999999667 1 
	-21.40887280687881145 10.48155011486834098 0.08999999999999999667 1 
	-22.27303644671030014 8.492745442072742179 0.08999999999999999667 1 
	-22.63670703459628442 7.46980028381814698 0.08999999999999999667 1 
	-23.22165772940672213 5.381176197402090189 0.08999999999999999667 1 
	-23.44293783633117911 4.315497269240628597 0.08999999999999999667 1 
	-23.7383589716763943 2.170441762165761901 0.08999999999999999667 1 
	-23.81250000009715251 1.091065183252357684 0.08999999999999999667 1 
	-23.8125 1.413579858429262123e-10 0.08999999999999999667 1 
	-23.81249999997765343 -0.25094499197417236 0.08999999999999999667 1 
	-23.81249999995531041 -0.5018899840897026454 0.08999999999999999667 1 
	-23.81249999993296385 -0.7528349762052329863 0.08999999999999999667 1 
	23.81249999993296385 -0.7528349762087551689 0 1 
	23.81249999995531041 -0.5018899840920507671 0 1 
	23.81249999997765343 -0.2509449919753464209 0 1 
	23.8125 1.413579858423579134e-10 0 1 
	23.81250000009715251 1.091065183257464044 0 1 
	23.73835897167558073 2.170441762174587286 0 1 
	23.44293783632911499 4.315497269252370316 0 1 
	23.22165772940422102 5.381176197413029882 0 1 
	22.63670703459289513 7.46980028382823491 0 1 
	22.2730364467064561 8.492745442082778595 0 1 
	21.40887280687405791 10.48155011487808963 0 1 
	20.9083797549281023 11.44740962941885876 0 1 
	19.78183391719523954 13.29998585017258428 0 1 
	19.15578113140833594 14.1867025563855389 0 1 
	17.78732662670873665 15.86853475403557034 0 1 
	17.04492490779604097 16.66365024547264539 0 1 
	15.46018549134558739 18.14387776640477057 0 1 
	14.61784779380783128 18.82898979589981892 0 1 
	12.84697080723783813 20.07889086088677288 0 1 
	11.91843151820559932 20.64367989637867495 0 1 
	9.99346533251245539 21.64120605917785767 0 1 
	8.997038435851552052 22.07394318648514187 0 1 
	6.953288888223457143 22.80029959104796333 0 1 
	5.90596623725626646 23.09391886830350771 0 1 
	3.781649953812556753 23.53533820497465356 0 1 
	2.704656321336037728 23.68313826439025505 0 1 
	0.5425542296163263778 23.83093832380562205 0 1 
	-0.542554229626865725 23.83093832380537691 0 1 
	-2.704656321346544878 23.68313826438905778 0 1 
	-3.781649953823032817 23.53533820497297313 0 1 
	-5.905966237266571994 23.0939188683008787 0 1 
	-6.953288888233623233 22.80029959104486892 0 1 
	-8.997038435861364647 22.07394318648114506 0 1 
	-9.993465332522054823 21.64120605917343454 0 1 
	-11.91843151821477953 20.64367989637337786 0 1 
	-12.84697080724681406 20.07889086088103525 0 1 
	-14.61784779381631871 18.82898979589323929 0 1 
	-15.46018549135378706 18.14387776639778593 0 1 
	-17.04492490780358693 16.6636502454649289 0 1 
	-17.78732662671592024 15.86853475402752345 0 1 
	-19.1557811314147628 14.18670255637686495 0 1 
	-19.7818339172012756 13.29998585016360835 0 1 
	-20.90837975493329992 11.44740962940934637 0 1 
	-21.40887280687881145 10.48155011486834098 0 1 
	-22.27303644671030014 8.492745442072742179 0 1 
	-22.63670703459628442 7.46980028381814698 0 1 
	-23.22165772940672213 5.381176197402090189 0 1 
	-23.44293783633117911 4.315497269240628597 0 1 
	-23.7383589716763943 2.170441762165761901 0 1 
	-23.81250000009715251 1.091065183252357684 0 1 
	-23.8125 1.413579858429262123e-10 0 1 
	-23.81249999997765343 -0.25094499197417236 0 1 
	-23.81249999995531041 -0.5018899840897026454 0 1 
	-23.81249999993296385 -0.7528349762052329863 0 1 
	23.81249999993296385 -0.7528349762087551689 -3.174999999999999822 1 
	23.81249999995531041 -0.5018899840920507671 -3.174999999999999822 1 
	23.81249999997765343 -0.2509449919753464209 -3.174999999999999822 1 
	23.8125 1.413579858423579134e-10 -3.174999999999999822 1 
	23.81250000009715251 1.091065183257464044 -3.174999999999999822 1 
	23.73835897167558073 2.170441762174587286 -3.174999999999999822 1 
	23.44293783632911499 4.315497269252370316 -3.174999999999999822 1 
	23.22165772940422102 5.381176197413029882 -3.174999999999999822 1 
	22.63670703459289513 7.46980028382823491 -3.174999999999999822 1 
	22.2730364467064561 8.492745442082778595 -3.174999999999999822 1 
	21.40887280687405791 10.48155011487808963 -3.174999999999999822 1 
	20.9083797549281023 11.44740962941885876 -3.174999999999999822 1 
	19.78183391719523954 13.29998585017258428 -3.174999999999999822 1 
	19.15578113140833594 14.1867025563855389 -3.174999999999999822 1 
	17.78732662670873665 15.86853475403557034 -3.174999999999999822 1 
	17.04492490779604097 16.66365024547264539 -3.174999999999999822 1 
	15.46018549134558739 18.14387776640477057 -3.174999999999999822 1 
	14.61784779380783128 18.82898979589981892 -3.174999999999999822 1 
	12.84697080723783813 20.07889086088677288 -3.174999999999999822 1 
	11.91843151820559932 20.64367989637867495 -3.174999999999999822 1 
	9.99346533251245539 21.64120605917785767 -3.174999999999999822 1 
	8.997038435851552052 22.07394318648514187 -3.174999999999999822 1 
	6.953288888223457143 22.80029959104796333 -3.174999999999999822 1 
	5.90596623725626646 23.09391886830350771 -3.174999999999999822 1 
	3.781649953812556753 23.53533820497465356 -3.174999999999999822 1 
	2.704656321336037728 23.68313826439025505 -3.174999999999999822 1 
	0.5425542296163263778 23.83093832380562205 -3.174999999999999822 1 
	-0.542554229626865725 23.83093832380537691 -3.174999999999999822 1 
	-2.704656321346544878 23.68313826438905778 -3.174999999999999822 1 
	-3.781649953823032817 23.53533820497297313 -3.174999999999999822 1 
	-5.905966237266571994 23.0939188683008787 -3.174999999999999822 1 
	-6.953288888233623233 22.80029959104486892 -3.174999999999999822 1 
	-8.997038435861364647 22.07394318648114506 -3.174999999999999822 1 
	-9.993465332522054823 21.64120605917343454 -3.174999999999999822 1 
	-11.91843151821477953 20.64367989637337786 -3.174999999999999822 1 
	-12.84697080724681406 20.07889086088103525 -3.174999999999999822 1 
	-14.61784779381631871 18.82898979589323929 -3.174999999999999822 1 
	-15.46018549135378706 18.14387776639778593 -3.174999999999999822 1 
	-17.04492490780358693 16.6636502454649289 -3.174999999999999822 1 
	-17.78732662671592024 15.86853475402752345 -3.174999999999999822 1 
	-19.1557811314147628 14.18670255637686495 -3.174999999999999822 1 
	-19.7818339172012756 13.29998585016360835 -3.174999999999999822 1 
	-20.90837975493329992 11.44740962940934637 -3.174999999999999822 1 
	-21.40887280687881145 10.48155011486834098 -3.174999999999999822 1 
	-22.27303644671030014 8.492745442072742179 -3.174999999999999822 1 
	-22.63670703459628442 7.46980028381814698 -3.174999999999999822 1 
	-23.22165772940672213 5.381176197402090189 -3.174999999999999822 1 
	-23.44293783633117911 4.315497269240628597 -3.174999999999999822 1 
	-23.7383589716763943 2.170441762165761901 -3.174999999999999822 1 
	-23.81250000009715251 1.091065183252357684 -3.174999999999999822 1 
	-23.8125 1.413579858429262123e-10 -3.174999999999999822 1 
	-23.81249999997765343 -0.25094499197417236 -3.174999999999999822 1 
	-23.81249999995531041 -0.5018899840897026454 -3.174999999999999822 1 
	-23.81249999993296385 -0.7528349762052329863 -3.174999999999999822 1 
	23.81249999993296385 -0.7528349762087551689 -3.265000000000000124 1 
	23.81249999995531041 -0.5018899840920507671 -3.265000000000000124 1 
	23.81249999997765343 -0.2509449919753464209 -3.265000000000000124 1 
	23.8125 1.413579858423579134e-10 -3.265000000000000124 1 
	23.81250000009715251 1.091065183257464044 -3.265000000000000124 1 
	23.73835897167558073 2.170441762174587286 -3.265000000000000124 1 
	23.44293783632911499 4.315497269252370316 -3.265000000000000124 1 
	23.22165772940422102 5.381176197413029882 -3.265000000000000124 1 
	22.63670703459289513 7.46980028382823491 -3.265000000000000124 1 
	22.2730364467064561 8.492745442082778595 -3.265000000000000124 1 
	21.40887280687405791 10.48155011487808963 -3.265000000000000124 1 
	20.9083797549281023 11.44740962941885876 -3.265000000000000124 1 
	19.78183391719523954 13.29998585017258428 -3.265000000000000124 1 
	19.15578113140833594 14.1867025563855389 -3.265000000000000124 1 
	17.78732662670873665 15.86853475403557034 -3.265000000000000124 1 
	17.04492490779604097 16.66365024547264539 -3.265000000000000124 1 
	15.46018549134558739 18.14387776640477057 -3.265000000000000124 1 
	14.61784779380783128 18.82898979589981892 -3.265000000000000124 1 
	12.84697080723783813 20.07889086088677288 -3.265000000000000124 1 
	11.91843151820559932 20.64367989637867495 -3.265000000000000124 1 
	9.99346533251245539 21.64120605917785767 -3.265000000000000124 1 
	8.997038435851552052 22.07394318648514187 -3.265000000000000124 1 
	6.953288888223457143 22.80029959104796333 -3.265000000000000124 1 
	5.90596623725626646 23.09391886830350771 -3.265000000000000124 1 
	3.781649953812556753 23.53533820497465356 -3.265000000000000124 1 
	2.704656321336037728 23.68313826439025505 -3.265000000000000124 1 
	0.5425542296163263778 23.83093832380562205 -3.265000000000000124 1 
	-0.542554229626865725 23.83093832380537691 -3.265000000000000124 1 
	-2.704656321346544878 23.68313826438905778 -3.265000000000000124 1 
	-3.781649953823032817 23.53533820497297313 -3.265000000000000124 1 
	-5.905966237266571994 23.0939188683008787 -3.265000000000000124 1 
	-6.953288888233623233 22.80029959104486892 -3.265000000000000124 1 
	-8.997038435861364647 22.07394318648114506 -3.265000000000000124 1 
	-9.993465332522054823 21.64120605917343454 -3.265000000000000124 1 
	-11.91843151821477953 20.64367989637337786 -3.265000000000000124 1 
	-12.84697080724681406 20.07889086088103525 -3.265000000000000124 1 
	-14.61784779381631871 18.82898979589323929 -3.265000000000000124 1 
	-15.46018549135378706 18.14387776639778593 -3.265000000000000124 1 
	-17.04492490780358693 16.6636502454649289 -3.265000000000000124 1 
	-17.78732662671592024 15.86853475402752345 -3.265000000000000124 1 
	-19.1557811314147628 14.18670255637686495 -3.265000000000000124 1 
	-19.7818339172012756 13.29998585016360835 -3.265000000000000124 1 
	-20.90837975493329992 11.44740962940934637 -3.265000000000000124 1 
	-21.40887280687881145 10.48155011486834098 -3.265000000000000124 1 
	-22.27303644671030014 8.492745442072742179 -3.265000000000000124 1 
	-22.63670703459628442 7.46980028381814698 -3.265000000000000124 1 
	-23.22165772940672213 5.381176197402090189 -3.265000000000000124 1 
	-23.44293783633117911 4.315497269240628597 -3.265000000000000124 1 
	-23.7383589716763943 2.170441762165761901 -3.265000000000000124 1 
	-23.81250000009715251 1.091065183252357684 -3.265000000000000124 1 
	-23.8125 1.413579858429262123e-10 -3.265000000000000124 1 
	-23.81249999997765343 -0.25094499197417236 -3.265000000000000124 1 
	-23.81249999995531041 -0.5018899840897026454 -3.265000000000000124 1 
	-23.81249999993296385 -0.7528349762052329863 -3.265000000000000124 1 
	1.11022302462515654e-16 
	0 
	2 0 1 
	22 0.04347826086956520925 0.08695652173913044625 0.1304347826086956486 0.1739130434782608647 0.2173913043478260809 0.2608695652173912971 0.304347826086956541 0.3478260869565217295 0.3913043478260869179 0.4347826086956521618 0.4782608695652174058 0.5217391304347825942 0.5652173913043477826 0.6086956521739130821 0.6521739130434782705 0.695652173913043459 0.7391304347826086474 0.7826086956521738358 0.8260869565217391353 0.8695652173913043237 0.9130434782608695121 0.9565217391304348116 
	0 
	2 0 1 
	0 
	F 0 F 1 F 0 F 1 } I I I I #
coedge $-1 $23 $17 $24 $25 forward $8 $-1 #
coedge $-1 $26 $10 $27 $28 forward $5 $-1 #
coedge $-1 $10 $26 $29 $30 forward $5 $-1 #
coedge $-1 $14 $31 $10 $18 reversed $8 $-1 #
edge $-1 $32 -3.175000000106018572 $33 9.525000000035339198 $10 $34 forward 7 unknown #
face $-1 $35 $36 $2 $-1 $37 forward single #
loop $-1 $-1 $38 $11 #
plane-surface $-1 23.8125 -6.349999999929321071 -1.587499999999999911 1 0 0 0 1 0 forward_v I I I I #
coedge $-1 $39 $29 $40 $41 forward $12 $42 #
coedge $-1 $31 $14 $43 $44 forward $8 $-1 #
coedge $-1 $29 $39 $14 $25 reversed $12 $45 #
edge $-1 $32 0 $46 1 $24 $47 forward 7 unknown #
coedge $-1 $16 $15 $48 $49 forward $5 $-1 #
coedge $-1 $50 $51 $15 $28 reversed $36 $-1 #
edge $-1 $33 -23.8125 $52 23.8125 $15 $53 forward 7 unknown #
coedge $-1 $22 $24 $16 $30 reversed $12 $54 #
edge $-1 $55 0 $32 0.999999999999999889 $16 $56 forward 7 unknown #
coedge $-1 $17 $23 $50 $57 reversed $8 $-1 #
vertex $-1 $30 $58 #
vertex $-1 $28 $59 #
straight-curve $-1 -23.8125 -3.174999999964660535 0 0 -1 0 I I #
face $-1 $-1 $60 $2 $-1 $61 reversed single #
loop $-1 $-1 $50 $19 #
plane-surface $-1 0 -12.69999999999999929 -1.587499999999999911 0 -1 0 1 0 0 forward_v I I I I #
coedge $-1 $62 $48 $51 $63 forward $20 $-1 #
coedge $-1 $24 $22 $64 $65 forward $12 $66 #
coedge $-1 $48 $62 $22 $41 reversed $20 $-1 #
edge $-1 $55 0 $67 1 $22 $68 forward 7 unknown #
pcurve $-1 0 forward { exppc nubs 2 open 7 
	0 2 0.1666666666666666574 2 0.3333333333333333148 2 0.5 2 0.6666666666666666297 2 
	0.8333333333333333703 2 1 2 
	0 0 
	0 0.08333333333333334259 
	0 0.1666666666666666574 
	0 0.25 
	0 0.3333333333333333148 
	0 0.4166666666666666852 
	0 0.5 
	0 0.5833333333333333703 
	0 0.6666666666666666297 
	0 0.75 
	0 0.8333333333333333703 
	0 0.9166666666666666297 
	0 1 
	0.001000000000000000021 
	spline reversed { ref 0 } I I I I 
	} 0 0 #
coedge $-1 $64 $69 $23 $44 reversed $60 $-1 #
edge $-1 $46 -3.175000000106018572 $70 9.525000000035339198 $23 $71 reversed 7 unknown #
pcurve $-1 0 forward { exppc nubs 2 open 7 
	-1 2 -0.8333333333333333703 2 -0.6666666666666667407 2 -0.5 2 -0.3333333333333333703 2 
	-0.1666666666666666297 2 -0 2 
	1 1 
	1 0.9166666666666666297 
	1 0.8333333333333333703 
	1 0.75 
	1 0.6666666666666667407 
	1 0.5833333333333334814 
	1 0.5 
	1 0.4166666666666667407 
	1 0.3333333333333333703 
	1 0.25 
	1 0.1666666666666666574 
	1 0.08333333333333334259 
	1 0 
	0.001000000000000000021 
	spline reversed { ref 0 } I I I I 
	} 0 0 #
vertex $-1 $25 $72 #
intcurve-curve $-1 forward { exactcur full nurbs 1 open 2 
	0 1 1 1 
	-23.8125 1.413579858429262123e-10 0 1 
	-23.8125 1.413579858429262123e-10 -3.174999999999999822 1 
	0 
	null_surface 
	null_surface 
	nullbs 
	nullbs 
	I I 
	0 
	0 
	0 
	F 1 F 0 } I I #
coedge $-1 $38 $40 $26 $49 reversed $20 $-1 #
edge $-1 $52 -9.525000000035339198 $55 3.175000000106018572 $26 $73 forward 7 unknown #
coedge $-1 $74 $27 $31 $57 forward $36 $-1 #
coedge $-1 $27 $74 $38 $63 reversed $36 $-1 #
vertex $-1 $49 $75 #
straight-curve $-1 0 -12.69999999999999929 0 1 0 -0 I I #
pcurve $-1 0 forward { exppc nubs 2 open 15 
	-0.999999999999999889 2 -0.9166666666666665186 2 -0.874999999999999889 2 -0.8333333333333332593 2 -0.75 2 
	-0.6666666666666666297 2 -0.5833333333333332593 2 -0.4999999999999999445 2 -0.4166666666666666297 2 -0.3333333333333333148 2 
	-0.2499999999999999445 2 -0.1666666666666666019 2 -0.1249999999999999445 2 -0.08333333333333330095 2 -0 2 
	1 0 
	0.9177660367625612992 0 
	0.9166672888109110851 0 
	0.8958404958310678401 0 
	0.8750001117789436567 0 
	0.8744503885730343651 0 
	0.8333340785782906712 0 
	0.7510992724043362712 0 
	0.7500004597026854736 0 
	0.7489016495154773301 0 
	0.666666319023840992 0 
	0.5844318700113204645 0 
	0.5833333789438721606 0 
	0.5822349254293646137 0 
	0.4999999999999971689 0 
	0.4177650745706295576 0 
	0.4166666210561219552 0 
	0.4155681299886736513 0 
	0.3333336809761531794 0 
	0.2510983504845167302 0 
	0.249999540297308448 0 
	0.2489007275956576781 0 
	0.1666659214217031948 0 
	0.1255496114269594454 0 
	0.1249998882210502371 0 
	0.1041595041689297729 0 
	0.08333271118908266994 0 
	0.08223396323743199787 0 
	0 0 
	0.001000000000000000021 
	spline reversed { ref 0 } I I I I 
	} 0 0 #
vertex $-1 $30 $76 #
intcurve-curve $-1 forward { exactcur full nurbs 3 open 24 
	0 3 0.04347854495983165257 1 0.08695708077311656292 1 0.1304349336210506027 1 0.17391379252500902 1 
	0.2173912591925117044 1 0.2608701430060166304 1 0.3043476835725827945 1 0.3478256888686589443 1 0.3913038222778061348 1 
	0.4347831676249872546 1 0.4782616579833209869 1 0.5217383420166846753 1 0.5652168323750184076 1 0.6086961777221995273 1 
	0.6521743111313468289 1 0.6956523164274230897 1 0.7391298569939892538 1 0.7826087408074942076 1 0.8260862074749969475 1 
	0.8695650663789553647 1 0.9130429192268894045 1 0.9565214550401740512 1 0.999999999999999889 3 
	23.8125 1.413579858423579134e-10 0 1 
	23.81250000009715251 1.091065072713914175 0 1 
	23.66453148697335251 3.249824177767457911 0 1 
	23.00030605218097435 6.446816976716233327 0 1 
	21.90936239393409579 9.515745975276297841 0 1.000000000000000222 
	20.40792388765318321 12.41319986456253766 0 1 
	18.5296773439164788 15.0734846289892026 0 1 
	16.30257688109924885 17.45871245648419645 0 1.000000000000000222 
	13.77548448811713122 19.51412276101807919 0 1 
	10.9898980074206527 21.20846572745173475 0 1 
	8.000556481539774722 22.50670058284443797 0 1 
	4.8586763091822327 23.38752663859175129 0 0.9999999999999995559 
	1.627748611649847632 23.83093574554294136 0 1 
	-1.627748611660391642 23.83093574554221661 0 1.000000000000000222 
	-4.858676309192669684 23.3875266385895948 0 0.999999999999999889 
	-8.000556481549807586 22.5067005828408675 0 1.000000000000000222 
	-10.9898980074300372 21.20846572744687819 0 0.999999999999999889 
	-13.77548448812590642 19.51412276101190102 0 1.000000000000000222 
	-16.30257688110715364 17.45871245647681036 0 1 
	-18.52967734392330001 15.07348462898082708 0 1 
	-20.40792388765882492 12.41319986455326507 0 0.999999999999999778 
	-21.90936239393839102 9.515745975266311163 0 0.999999999999999889 
	-23.00030605218395863 6.44681697670609033 0 1.000000000000000222 
	-23.66453148697474163 3.249824177755135324 0 0.999999999999999889 
	-23.81250000009715251 1.091065072708874206 0 0.999999999999999889 
	-23.8125 1.413580363873734314e-10 0 1 
	0 
	null_surface 
	null_surface 
	nullbs 
	nullbs 
	I I 
	0 
	0 
	22 0.04347854495983165257 0.08695708077311656292 0.1304349336210506027 0.17391379252500902 0.2173912591925117044 0.2608701430060166304 0.3043476835725827945 0.3478256888686589443 0.3913038222778061348 0.4347831676249872546 0.4782616579833209869 0.5217383420166846753 0.5652168323750184076 0.6086961777221995273 0.6521743111313468289 0.6956523164274230897 0.7391298569939892538 0.7826087408074942076 0.8260862074749969475 0.8695650663789553647 0.9130429192268894045 0.9565214550401740512 
	F 1 F 0 } I I #
edge $-1 $33 -1.587499999999999911 $70 1.587499999999999911 $50 $77 forward 7 unknown #
point $-1 -23.8125 1.413579858429262123e-10 0 #
point $-1 -23.8125 -12.69999999999999929 0 #
loop $-1 $-1 $78 $35 #
plane-surface $-1 0 0 -3.174999999999999822 0 0 1 1 0 0 forward_v I I I I #
coedge $-1 $40 $38 $78 $79 forward $20 $-1 #
edge $-1 $52 -1.587499999999999911 $80 1.587499999999999911 $38 $81 forward 7 unknown #
coedge $-1 $78 $43 $39 $65 reversed $60 $-1 #
edge $-1 $67 0 $46 0.999999999999999889 $39 $82 forward 7 unknown #
pcurve $-1 0 forward { exppc nubs 2 open 15 
	0 2 0.08333333333333331483 2 0.1249999999999999722 2 0.1666666666666666297 2 0.2499999999999999445 2 
	0.3333333333333332593 2 0.4166666666666666297 2 0.4999999999999999445 2 0.5833333333333332593 2 0.6666666666666665186 2 
	0.749999999999999889 2 0.8333333333333332593 2 0.874999999999999889 2 0.9166666666666665186 2 0.999999999999999889 2 
	0 1 
	0.08223396323743199787 1 
	0.08333271118908266994 1 
	0.1041595041689297729 1 
	0.124999888221050251 1 
	0.1255496114269594454 1 
	0.1666659214217032503 1 
	0.2489007275956576504 1 
	0.2499995402973084202 1.000000000000000222 
	0.2510983504845166747 1 
	0.3333336809761531239 1 
	0.4155681299886736513 1.000000000000000222 
	0.4166666210561219552 1.000000000000000222 
	0.4177650745706295576 1.000000000000000222 
	0.4999999999999971689 0.9999999999999996669 
	0.5822349254293646137 1 
	0.5833333789438721606 1 
	0.5844318700113204645 1 
	0.6666663190238408809 1 
	0.7489016495154772191 1 
	0.7500004597026853626 1 
	0.7510992724043361601 1.000000000000000222 
	0.8333340785782906712 1 
	0.8744503885730343651 0.999999999999999889 
	0.8750001117789436567 1 
	0.8958404958310678401 1 
	0.9166672888109110851 1 
	0.9177660367625612992 1 
	1 1 
	0.001000000000000000021 
	spline reversed { ref 0 } I I I I 
	} 0 0 #
vertex $-1 $65 $83 #
intcurve-curve $-1 forward { exactcur full nurbs 1 open 2 
	0 1 1 1 
	23.8125 1.413579858423579134e-10 0 1 
	23.8125 1.413579858423579134e-10 -3.174999999999999822 1 
	0 
	null_surface 
	null_surface 
	nullbs 
	nullbs 
	I I 
	0 
	0 
	0 
	F 1 F 0 } I I #
coedge $-1 $43 $78 $74 $84 reversed $60 $-1 #
vertex $-1 $84 $85 #
straight-curve $-1 -23.8125 -3.174999999964660535 -3.174999999999999822 0 1 -0 I I #
point $-1 -23.8125 1.413579858429262123e-10 -3.174999999999999822 #
straight-curve $-1 23.8125 -3.174999999964660535 0 0 1 0 I I #
coedge $-1 $51 $50 $69 $84 forward $36 $-1 #
point $-1 23.8125 -12.69999999999999929 0 #
point $-1 23.8125 1.413579858423579134e-10 0 #
straight-curve $-1 -23.8125 -12.69999999999999929 -1.587499999999999911 -0 -0 -1 I I #
coedge $-1 $69 $64 $62 $79 reversed $60 $-1 #
edge $-1 $80 -9.525000000035339198 $67 3.175000000106018572 $62 $86 reversed 7 unknown #
vertex $-1 $79 $87 #
straight-curve $-1 23.8125 -12.69999999999999929 -1.587499999999999911 0 0 -1 I I #
intcurve-curve $-1 forward { exactcur full nurbs 3 open 24 
	0 3 0.04347854495983165257 1 0.08695708077311656292 1 0.1304349336210506027 1 0.17391379252500902 1 
	0.2173912591925117044 1 0.2608701430060166304 1 0.3043476835725827945 1 0.3478256888686589443 1 0.3913038222778061348 1 
	0.4347831676249872546 1 0.4782616579833209869 1 0.5217383420166846753 1 0.5652168323750184076 1 0.6086961777221995273 1 
	0.6521743111313468289 1 0.6956523164274230897 1 0.7391298569939892538 1 0.7826087408074942076 1 0.8260862074749969475 1 
	0.8695650663789553647 1 0.9130429192268894045 1 0.9565214550401740512 1 0.999999999999999889 3 
	23.8125 1.413579858423579134e-10 -3.174999999999999822 1 
	23.81250000009715251 1.091065072713914175 -3.174999999999999822 1 
	23.66453148697335251 3.249824177767457911 -3.174999999999998934 1 
	23.00030605218097435 6.446816976716233327 -3.175000000000000266 1 
	21.90936239393409579 9.515745975276297841 -3.174999999999998934 1.000000000000000222 
	20.40792388765318321 12.41319986456253766 -3.174999999999999822 1 
	18.5296773439164788 15.0734846289892026 -3.174999999999999822 1 
	16.30257688109924885 17.45871245648419645 -3.174999999999998934 1.000000000000000222 
	13.77548448811713122 19.51412276101807919 -3.175000000000000266 1 
	10.9898980074206527 21.20846572745173475 -3.174999999999999822 1 
	8.000556481539774722 22.50670058284443797 -3.175000000000000266 1 
	4.8586763091822327 23.38752663859175129 -3.175000000000000266 0.9999999999999995559 
	1.627748611649847632 23.83093574554294136 -3.174999999999999378 1 
	-1.627748611660391642 23.83093574554221661 -3.174999999999999378 1.000000000000000222 
	-4.858676309192669684 23.3875266385895948 -3.175000000000000266 0.999999999999999889 
	-8.000556481549807586 22.5067005828408675 -3.174999999999998934 1.000000000000000222 
	-10.9898980074300372 21.20846572744687819 -3.174999999999999822 0.999999999999999889 
	-13.77548448812590642 19.51412276101190102 -3.174999999999999378 1.000000000000000222 
	-16.30257688110715364 17.45871245647681036 -3.174999999999999822 1 
	-18.52967734392330001 15.07348462898082708 -3.175000000000000266 1 
	-20.40792388765882492 12.41319986455326507 -3.175000000000000266 0.999999999999999778 
	-21.90936239393839102 9.515745975266311163 -3.174999999999999822 0.999999999999999889 
	-23.00030605218395863 6.44681697670609033 -3.174999999999999822 1.000000000000000222 
	-23.66453148697474163 3.249824177755135324 -3.174999999999999378 0.999999999999999889 
	-23.81250000009715251 1.091065072708874206 -3.174999999999999822 0.999999999999999889 
	-23.8125 1.413580363873734314e-10 -3.174999999999999822 1 
	0 
	null_surface 
	null_surface 
	nullbs 
	nullbs 
	I I 
	0 
	0 
	22 0.04347854495983165257 0.08695708077311656292 0.1304349336210506027 0.17391379252500902 0.2173912591925117044 0.2608701430060166304 0.3043476835725827945 0.3478256888686589443 0.3913038222778061348 0.4347831676249872546 0.4782616579833209869 0.5217383420166846753 0.5652168323750184076 0.6086961777221995273 0.6521743111313468289 0.6956523164274230897 0.7391298569939892538 0.7826087408074942076 0.8260862074749969475 0.8695650663789553647 0.9130429192268894045 0.9565214550401740512 
	F 1 F 0 } I I #
point $-1 23.8125 1.413579858423579134e-10 -3.174999999999999822 #
edge $-1 $70 -23.8125 $80 23.8125 $74 $88 reversed 7 unknown #
point $-1 -23.8125 -12.69999999999999929 -3.174999999999999822 #
straight-curve $-1 23.8125 -3.174999999964660535 -3.174999999999999822 0 -1 0 I I #
point $-1 23.8125 -12.69999999999999929 -3.174999999999999822 #
straight-curve $-1 0 -12.69999999999999929 -3.174999999999999822 -1 0 0 I I #
End-of-ACIS-data 