600 0 1 0           
104 GICL Pro/E ACIS Translator - Source: f:/data5/repository/PTC/V20/NC_Training_Rel20/DXF/part_24.prt - 6 0 13 ACIS 6.0.3 NT 24 Thu Apr 04 13:13:43 2002 
1 9.9999999999999995e-007 1e-010 
body $-1 $1 $-1 $-1 #
lump $-1 $-1 $2 $0 #
shell $-1 $-1 $-1 $3 $-1 $1 #
face $-1 $4 $5 $2 $-1 $6 forward single #
face $-1 $7 $8 $2 $-1 $9 reversed single #
loop $-1 $-1 $10 $3 #
plane-surface $-1 0 -200 87.099999999999994 1 0 0 0 1 0 forward_v I I I I #
face $-1 $11 $12 $2 $-1 $13 reversed single #
loop $-1 $-1 $14 $4 #
plane-surface $-1 -3 0 87.099999999999994 0 0 -1 0 1 0 forward_v I I I I #
coedge $-1 $15 $16 $17 $18 reversed $5 $-1 #
face $-1 $19 $20 $2 $-1 $21 forward single #
loop $-1 $-1 $22 $7 #
plane-surface $-1 -6 -200 87.099999999999994 1 0 0 0 1 0 forward_v I I I I #
coedge $-1 $23 $24 $25 $26 reversed $8 $-1 #
coedge $-1 $27 $10 $28 $29 forward $5 $-1 #
coedge $-1 $10 $27 $30 $31 forward $5 $-1 #
coedge $-1 $24 $23 $10 $18 forward $8 $-1 #
edge $-1 $32 0 $33 109.19540569948579 $10 $34 forward 7 unknown #
face $-1 $35 $36 $2 $-1 $37 forward single #
loop $-1 $-1 $38 $11 #
plane-surface $-1 -3 0 -87.099999999999994 0 0 -1 0 1 0 forward_v I I I I #
coedge $-1 $39 $40 $41 $42 reversed $12 $-1 #
coedge $-1 $17 $14 $43 $44 reversed $8 $-1 #
coedge $-1 $14 $17 $45 $46 reversed $8 $-1 #
coedge $-1 $40 $39 $14 $26 forward $12 $-1 #
edge $-1 $47 0 $48 109.19540569948579 $14 $49 forward 7 unknown #
coedge $-1 $16 $15 $38 $50 forward $5 $-1 #
coedge $-1 $43 $51 $15 $29 reversed $36 $-1 #
edge $-1 $32 0 $52 174.19999999999999 $15 $53 forward 7 unknown #
coedge $-1 $54 $55 $16 $31 reversed $56 $-1 #
edge $-1 $57 4.6371616931476242e-030 $33 174.19999999999999 $16 $58 forward 7 unknown #
vertex $-1 $29 $59 #
vertex $-1 $31 $60 #
straight-curve $-1 0 -200 87.099999999999994 0 1 0 I I #
face $-1 $61 $62 $2 $-1 $63 forward single #
loop $-1 $-1 $43 $19 #
plane-surface $-1 -3 -200 0 0 -1 0 0 0 -1 forward_v I I I I #
coedge $-1 $64 $65 $27 $50 reversed $20 $-1 #
coedge $-1 $25 $22 $66 $67 reversed $12 $-1 #
coedge $-1 $22 $25 $68 $69 reversed $12 $-1 #
coedge $-1 $65 $64 $22 $42 forward $20 $-1 #
edge $-1 $70 0 $71 109.19540569948579 $41 $72 forward 7 unknown #
coedge $-1 $66 $28 $23 $44 forward $36 $-1 #
edge $-1 $32 0 $47 6 $23 $73 forward 7 unknown #
coedge $-1 $74 $75 $24 $46 forward $76 $-1 #
edge $-1 $48 0 $33 6 $45 $77 forward 7 unknown #
vertex $-1 $44 $78 #
vertex $-1 $46 $79 #
straight-curve $-1 -6 -200 87.099999999999994 0 1 0 I I #
edge $-1 $52 0 $57 109.19540569948579 $27 $80 forward 7 unknown #
coedge $-1 $28 $66 $64 $81 reversed $36 $-1 #
vertex $-1 $50 $82 #
straight-curve $-1 0 -200 87.099999999999994 0 0 -1 I I #
coedge $-1 $83 $30 $84 $85 forward $56 $-1 #
coedge $-1 $30 $83 $74 $86 reversed $56 $-1 #
loop $-1 $-1 $55 $61 #
vertex $-1 $31 $87 #
straight-curve $-1 0 -90.804594300514182 -87.099999999999994 0 -1.6315562244778421e-016 1 I I #
point $-1 0 -200 87.099999999999994 #
point $-1 0 -90.804594300514211 87.099999999999994 #
face $-1 $88 $56 $2 $-1 $89 forward single #
loop $-1 $-1 $84 $35 #
plane-surface $-1 -3 0 -87.099999999999994 0 0 -1 0 1 0 forward_v I I I I #
coedge $-1 $41 $38 $51 $81 forward $20 $-1 #
coedge $-1 $38 $41 $90 $91 forward $20 $-1 #
coedge $-1 $51 $43 $39 $67 forward $36 $-1 #
edge $-1 $47 0 $70 174.19999999999999 $66 $92 forward 7 unknown #
coedge $-1 $93 $94 $40 $69 forward $95 $-1 #
edge $-1 $71 4.6371616931476242e-030 $48 174.19999999999999 $68 $96 forward 7 unknown #
vertex $-1 $42 $97 #
vertex $-1 $98 $99 #
straight-curve $-1 -6 -200 -87.099999999999994 0 1 0 I I #
straight-curve $-1 0 -200 87.099999999999994 -1 0 0 I I #
coedge $-1 $100 $45 $55 $86 forward $76 $-1 #
coedge $-1 $45 $100 $93 $101 reversed $76 $-1 #
loop $-1 $-1 $75 $88 #
straight-curve $-1 -6 -90.804594300514211 87.099999999999994 1 0 0 I I #
point $-1 -6 -200 87.099999999999994 #
point $-1 -6 -90.804594300514211 87.099999999999994 #
straight-curve $-1 0 -200 -87.099999999999994 0 1 0 I I #
edge $-1 $52 0 $70 6 $64 $102 forward 7 unknown #
point $-1 0 -200 -87.099999999999994 #
coedge $-1 $55 $54 $103 $104 forward $56 $-1 #
coedge $-1 $90 $105 $54 $85 reversed $62 $-1 #
edge $-1 $57 -3.1579677144893343e-016 $106 2.0943951023931939 $84 $107 forward 7 unknown #
edge $-1 $33 -3.1579677144893303e-016 $108 2.0943951023931917 $74 $109 forward 7 unknown #
point $-1 0 -90.804594300514211 -87.099999999999994 #
face $-1 $110 $76 $2 $-1 $111 reversed single #
cone-surface $-1 -90 -90.804594300514182 -87.099999999999994 0 0 1 90 0 0 1 I I 0 1 90 forward I I I I #
coedge $-1 $112 $84 $65 $91 reversed $62 $-1 #
edge $-1 $71 0 $57 6 $90 $113 forward 7 unknown #
straight-curve $-1 -6 -200 87.099999999999994 0 0 -1 I I #
coedge $-1 $114 $68 $75 $101 forward $95 $-1 #
coedge $-1 $68 $114 $112 $98 reversed $95 $-1 #
loop $-1 $-1 $94 $110 #
straight-curve $-1 -6 -90.804594300514182 -87.099999999999994 0 -1.6315562244778421e-016 1 I I #
point $-1 -6 -200 -87.099999999999994 #
edge $-1 $71 -3.3835368369528578e-016 $115 2.0943951023931939 $112 $116 forward 7 unknown #
point $-1 -6 -90.804594300514211 -87.099999999999994 #
coedge $-1 $75 $74 $117 $118 reversed $76 $-1 #
edge $-1 $48 -3.3835368369528564e-016 $119 2.0943951023931935 $75 $120 forward 7 unknown #
straight-curve $-1 0 -200 -87.099999999999994 -1 0 0 I I #
coedge $-1 $121 $122 $83 $104 reversed $123 $-1 #
edge $-1 $106 0 $108 174.19999999999999 $103 $124 forward 7 unknown #
coedge $-1 $84 $112 $125 $126 forward $62 $-1 #
vertex $-1 $126 $127 #
ellipse-curve $-1 -90 -90.804594300514182 -87.099999999999994 0 0 1 90 0 0 1 I I #
vertex $-1 $118 $128 #
ellipse-curve $-1 -90.000000000000085 -90.804594300514282 87.099999999999994 0 0 1 90.000000000000085 9.9475983006414026e-014 0 1 I I #
face $-1 $129 $95 $2 $-1 $130 reversed single #
plane-surface $-1 -3 0 87.099999999999994 0 0 -1 0 1 0 forward_v I I I I #
coedge $-1 $105 $90 $94 $98 forward $62 $-1 #
straight-curve $-1 -6 -90.804594300514211 -87.099999999999994 1 0 0 I I #
coedge $-1 $94 $93 $131 $132 reversed $95 $-1 #
vertex $-1 $126 $133 #
ellipse-curve $-1 -90 -90.804594300514182 -87.099999999999994 0 0 1 84 0 0 1 I I #
coedge $-1 $134 $135 $100 $118 forward $136 $-1 #
edge $-1 $119 -6.1824052681368306e-014 $108 5.9999999999999387 $117 $137 forward 7 unknown #
vertex $-1 $118 $138 #
ellipse-curve $-1 -90.000000000000043 -90.804594300514196 87.099999999999994 0 0 1 84.000000000000043 1.4210854715202004e-014 0 1 I I #
coedge $-1 $139 $103 $140 $141 forward $123 $-1 #
coedge $-1 $103 $139 $134 $142 reversed $123 $-1 #
loop $-1 $-1 $121 $143 #
straight-curve $-1 -134.99999999999989 -12.862307959914602 -87.099999999999994 0 0 1 I I #
coedge $-1 $144 $140 $105 $126 reversed $145 $-1 #
edge $-1 $115 -6.1824052681368306e-014 $106 5.9999999999999387 $125 $146 forward 7 unknown #
point $-1 -134.99999999999989 -12.862307959914645 -87.099999999999994 #
point $-1 -134.99999999999989 -12.862307959914645 87.099999999999994 #
face $-1 $147 $148 $2 $-1 $149 reversed single #
cone-surface $-1 -90 -90.804594300514182 -87.099999999999994 0 0 1 84 0 0 1 I I 0 1 84 forward I I I I #
coedge $-1 $150 $151 $114 $132 forward $148 $-1 #
edge $-1 $115 0 $119 174.19999999999999 $131 $152 forward 7 unknown #
point $-1 -131.99999999999989 -18.058460382621277 -87.099999999999994 #
coedge $-1 $153 $117 $122 $142 forward $136 $-1 #
coedge $-1 $117 $153 $150 $154 reversed $136 $-1 #
loop $-1 $-1 $134 $147 #
straight-curve $-1 -132.00000000000003 -18.058460382621288 87.099999999999994 -0.49999999999999595 0.86602540378444104 0 I I #
point $-1 -131.99999999999989 -18.058460382621277 87.099999999999994 #
coedge $-1 $122 $121 $155 $156 reversed $123 $-1 #
coedge $-1 $125 $157 $121 $141 reversed $145 $-1 #
edge $-1 $106 2.1316282072802936e-014 $158 109.19540569948586 $140 $159 forward 7 unknown #
edge $-1 $108 2.1316282072802936e-014 $160 109.19540569948586 $134 $161 forward 7 unknown #
face $-1 $162 $123 $2 $-1 $163 forward single #
coedge $-1 $157 $125 $151 $164 forward $145 $-1 #
loop $-1 $-1 $144 $162 #
straight-curve $-1 -132.00000000000003 -18.058460382621288 -87.099999999999994 -0.49999999999999595 0.86602540378444104 0 I I #
face $-1 $143 $136 $2 $-1 $165 reversed single #
loop $-1 $-1 $150 $129 #
plane-surface $-1 119.84416620147303 127.34383676763535 87.099999999999994 -0.49999999999999833 0.8660254037844396 0 -0.8660254037844396 -0.49999999999999833 0 forward_v I I I I #
coedge $-1 $166 $131 $135 $154 forward $148 $-1 #
coedge $-1 $131 $166 $144 $164 reversed $148 $-1 #
straight-curve $-1 -131.99999999999989 -18.058460382621249 -87.099999999999994 0 0 1 I I #
coedge $-1 $135 $134 $167 $168 forward $136 $-1 #
edge $-1 $119 5.3035631816113567e-014 $169 109.19540569948589 $135 $170 forward 7 unknown #
coedge $-1 $171 $167 $139 $156 forward $172 $-1 #
edge $-1 $160 0 $158 174.19999999999999 $139 $173 forward 7 unknown #
coedge $-1 $140 $144 $171 $174 reversed $145 $-1 #
vertex $-1 $141 $175 #
straight-curve $-1 -134.99999999999989 -12.862307959914602 -87.099999999999994 -0.8660254037844396 -0.49999999999999833 0 I I #
vertex $-1 $168 $176 #
straight-curve $-1 -134.99999999999989 -12.862307959914602 87.099999999999994 -0.8660254037844396 -0.49999999999999833 0 I I #
face $-1 $177 $145 $2 $-1 $178 forward single #
plane-surface $-1 116.84416620147303 132.539989190342 87.099999999999994 -0.49999999999999833 0.8660254037844396 0 -0.8660254037844396 -0.49999999999999833 0 forward_v I I I I #
edge $-1 $115 5.3035631816113567e-014 $179 109.19540569948589 $144 $180 forward 7 unknown #
plane-surface $-1 -54.860914555414908 29.941912978988992 87.099999999999994 0 0 -1 -0.8660254037844396 -0.49999999999999833 0 forward_v I I I I #
coedge $-1 $151 $150 $181 $182 forward $148 $-1 #
coedge $-1 $155 $181 $153 $168 reversed $172 $-1 #
edge $-1 $160 1.4210854715202004e-014 $169 6.0000000000000142 $153 $183 forward 7 unknown #
vertex $-1 $154 $184 #
straight-curve $-1 -131.99999999999986 -18.05846038262122 87.099999999999994 -0.8660254037844396 -0.49999999999999845 0 I I #
coedge $-1 $181 $155 $157 $174 forward $172 $-1 #
loop $-1 $-1 $171 $177 #
straight-curve $-1 -229.56599531230287 -67.460010809657376 87.09999999999998 0 0 -1 I I #
edge $-1 $158 1.230696119285481e-014 $179 6.0000000000000124 $157 $185 forward 7 unknown #
point $-1 -229.56599531230282 -67.460010809657362 -87.100000000000009 #
point $-1 -229.56599531230282 -67.460010809657362 87.09999999999998 #
face $-1 $-1 $172 $2 $-1 $186 reversed single #
plane-surface $-1 -54.860914555414908 29.941912978988992 -87.099999999999994 0 0 -1 -0.8660254037844396 -0.49999999999999833 0 forward_v I I I I #
vertex $-1 $174 $187 #
straight-curve $-1 -131.99999999999986 -18.05846038262122 -87.099999999999994 -0.8660254037844396 -0.49999999999999845 0 I I #
coedge $-1 $167 $171 $166 $182 reversed $172 $-1 #
edge $-1 $169 0 $179 174.19999999999999 $166 $188 forward 7 unknown #
straight-curve $-1 -229.56599531230285 -67.460010809657362 87.099999999999994 0.5 -0.86602540378443871 0 I I #
point $-1 -226.56599531230282 -72.656163232363994 87.09999999999998 #
straight-curve $-1 -229.56599531230282 -67.460010809657348 -87.099999999999994 0.5 -0.86602540378443871 0 I I #
plane-surface $-1 -228.06599531230282 -70.058087021010678 -1.4210854715202004e-014 0.8660254037844396 0.49999999999999833 0 0 0 -1 forward_v I I I I #
point $-1 -226.56599531230282 -72.656163232363994 -87.100000000000009 #
straight-curve $-1 -226.56599531230282 -72.656163232363994 87.09999999999998 0 0 -1 I I #
End-of-ACIS-data 