600 0 1 0           
101 GICL ACIS Healer - Source: /gicl/data5/repository/PTC/V20/NC_Training_Rel20/DXF/part_35.prt.sat - 6 0 18 ACIS 6.0.3 Solaris 24 Sat Apr 13 20:51:12 2002 
1 9.999999999999999547e-07 1.000000000000000036e-10 
body $-1 $1 $-1 $-1 #
lump $-1 $-1 $2 $0 #
shell $-1 $-1 $-1 $3 $-1 $1 #
face $-1 $4 $5 $2 $-1 $6 forward single #
face $-1 $7 $8 $2 $-1 $9 forward single #
loop $-1 $-1 $10 $3 #
plane-surface $-1 0 0 0 0 0 1 1 0 0 forward_v I I I I #
face $-1 $11 $12 $2 $-1 $13 forward single #
loop $-1 $-1 $14 $4 #
plane-surface $-1 30.16249999999999787 19.04999999985863823 -1.587499999999999911 1 0 0 0 1 0 forward_v I I I I #
coedge $-1 $15 $16 $17 $18 forward $5 $-1 #
face $-1 $19 $20 $2 $-1 $21 reversed single #
loop $-1 $-1 $22 $7 #
plane-surface $-1 28.57499999999999929 -1.413579858423579134e-10 -1.587499999999999911 0 -1 0 1 0 0 forward_v I I I I #
coedge $-1 $23 $17 $24 $25 forward $8 $-1 #
coedge $-1 $26 $10 $27 $28 forward $5 $-1 #
coedge $-1 $10 $29 $30 $31 forward $5 $-1 #
coedge $-1 $14 $32 $10 $18 reversed $8 $-1 #
edge $-1 $33 -9.525000000070676265 $34 28.57499999992931805 $10 $35 forward 7 unknown #
face $-1 $36 $37 $2 $-1 $38 forward single #
loop $-1 $-1 $39 $11 #
spline-surface $-1 forward { exactsur full nurbs 3 1 both open open none none 27 4 
	-0.01000000000000000021 3 0 3 0.04166666666666666435 2 0.08333333333333332871 2 0.125 2 
	0.1666666666666666574 2 0.2083333333333333148 2 0.25 2 0.2916666666666666297 2 0.3333333333333333148 2 
	0.375 2 0.4166666666666666297 2 0.4583333333333333148 2 0.5 2 0.5416666666666666297 2 
	0.5833333333333332593 2 0.625 2 0.6666666666666666297 2 0.7083333333333332593 2 0.75 2 
	0.7916666666666666297 2 0.8333333333333332593 2 0.875 2 0.9166666666666666297 2 0.9583333333333332593 2 
	1 3 1.010000000000000009 3 
	-0.02834645669291338543 1 0 1 1 1 1.028346456692913469 1 
	-26.98749999992406856 -0.8527300228879284294 0.08999999999999999667 1 
	-26.98749999994937809 -0.5684866819724049281 0.08999999999999999667 1 
	-26.98749999997468763 -0.2842433410568814267 0.08999999999999999667 1 
	-26.98749999999999716 -1.413579858429262123e-10 0.08999999999999999667 1 
	-26.98750000010545591 1.184347253673322831 0.08999999999999999667 1 
	-26.91034864524840131 2.357036724626332624 0.08999999999999999667 1 
	-26.60279915394511718 4.688817959672780589 0.08999999999999999667 1 
	-26.3724010174988841 5.847909723766219869 0.08999999999999999667 1 
	-25.76300591175347066 8.12334411756500252 0.08999999999999999667 1 
	-25.38400894245428674 9.239686747270347666 0.08999999999999999667 1 
	-24.48243793521681511 11.4155329952165836 0.08999999999999999667 1 
	-23.95986389727852739 12.47503661345747439 0.08999999999999999667 1 
	-22.78224373257592461 14.51473966226922663 0.08999999999999999667 1 
	-22.1271976058116131 15.49493909284008808 0.08999999999999999667 1 
	-20.69375416943401191 17.36291518573294113 0.08999999999999999667 1 
	-19.91535685982072579 18.25069184805492739 0.08999999999999999667 1 
	-18.24973727515799027 19.91639116669600185 0.08999999999999999667 1 
	-17.36251500010853732 20.69431382301508293 0.08999999999999999667 1 
	-15.49442819337946631 22.12762854025739401 0.08999999999999999667 1 
	-14.51356366169984469 22.783020601180624 0.08999999999999999667 1 
	-12.47450400478232879 23.96033615849714948 0.08999999999999999667 1 
	-11.41630887954443274 24.48225965489044142 0.08999999999999999667 1 
	-9.240529067042867695 25.38351704847167056 0.08999999999999999667 1 
	-8.122944379779195145 25.76285094565961131 0.08999999999999999667 1 
	-5.84666205910090131 26.37266962013235272 0.08999999999999999667 1 
	-4.687964425686278247 26.60315439741715338 0.08999999999999999667 1 
	-2.352844528182879369 26.91056958735086013 0.08999999999999999667 1 
	-1.176422264094103109 26.98749999999976623 0.08999999999999999667 1 
	1.176422264083459401 26.98750000000022808 0.08999999999999999667 1 
	2.352844528172246097 26.91056958735179094 0.08999999999999999667 1 
	4.687964425675756885 26.60315439741900789 0.08999999999999999667 1 
	5.846662059090479424 26.37266962013466554 0.08999999999999999667 1 
	8.122944379769030832 25.76285094566281941 0.08999999999999999667 1 
	9.2405290670328597 25.3835170484753192 0.08999999999999999667 1 
	11.41630887953475337 24.48225965489495692 0.08999999999999999667 1 
	12.47450400477281995 23.96033615850210197 0.08999999999999999667 1 
	14.51356366169072309 22.78302060118643624 0.08999999999999999667 1 
	15.49442819337056143 22.12762854026363257 0.08999999999999999667 1 
	17.36251500010016713 20.69431382302210309 0.08999999999999999667 1 
	18.24973727514993271 19.91639116670338083 0.08999999999999999667 1 
	19.91535685981335391 18.25069184806297784 0.08999999999999999667 1 
	20.69375416942700951 17.36291518574129356 0.08999999999999999667 1 
	22.12719760580537098 15.49493909284900006 0.08999999999999999667 1 
	22.78224373257007684 14.5147396622783873 0.08999999999999999667 1 
	23.95986389727349675 12.4750366134671502 0.08999999999999999667 1 
	24.48243793521220724 11.41553299522652587 0.08999999999999999667 1 
	25.38400894245054573 9.239686747280581258 0.08999999999999999667 1 
	25.76300591175017374 8.123344117575259205 0.08999999999999999667 1 
	26.37240101749647536 5.847909723777211077 0.08999999999999999667 1 
	26.60279915394315253 4.688817959684484116 0.08999999999999999667 1 
	26.91034864524764103 2.357036724635062086 0.08999999999999999667 1 
	26.98750000010545591 1.184347253678366574 0.08999999999999999667 1 
	26.98749999999999716 -1.413579858423579134e-10 0.08999999999999999667 1 
	26.98749999997468763 -0.2842433410580916253 0.08999999999999999667 1 
	26.98749999994937809 -0.5684866819748253253 0.08999999999999999667 1 
	26.98749999992406856 -0.8527300228915589697 0.08999999999999999667 1 
	-26.98749999992406856 -0.8527300228879284294 0 1 
	-26.98749999994937809 -0.5684866819724049281 0 1 
	-26.98749999997468763 -0.2842433410568814267 0 1 
	-26.98749999999999716 -1.413579858429262123e-10 0 1 
	-26.98750000010545591 1.184347253673322831 0 1 
	-26.91034864524840131 2.357036724626332624 0 1 
	-26.60279915394511718 4.688817959672780589 0 1 
	-26.3724010174988841 5.847909723766219869 0 1 
	-25.76300591175347066 8.12334411756500252 0 1 
	-25.38400894245428674 9.239686747270347666 0 1 
	-24.48243793521681511 11.4155329952165836 0 1 
	-23.95986389727852739 12.47503661345747439 0 1 
	-22.78224373257592461 14.51473966226922663 0 1 
	-22.1271976058116131 15.49493909284008808 0 1 
	-20.69375416943401191 17.36291518573294113 0 1 
	-19.91535685982072579 18.25069184805492739 0 1 
	-18.24973727515799027 19.91639116669600185 0 1 
	-17.36251500010853732 20.69431382301508293 0 1 
	-15.49442819337946631 22.12762854025739401 0 1 
	-14.51356366169984469 22.783020601180624 0 1 
	-12.47450400478232879 23.96033615849714948 0 1 
	-11.41630887954443274 24.48225965489044142 0 1 
	-9.240529067042867695 25.38351704847167056 0 1 
	-8.122944379779195145 25.76285094565961131 0 1 
	-5.84666205910090131 26.37266962013235272 0 1 
	-4.687964425686278247 26.60315439741715338 0 1 
	-2.352844528182879369 26.91056958735086013 0 1 
	-1.176422264094103109 26.98749999999976623 0 1 
	1.176422264083459401 26.98750000000022808 0 1 
	2.352844528172246097 26.91056958735179094 0 1 
	4.687964425675756885 26.60315439741900789 0 1 
	5.846662059090479424 26.37266962013466554 0 1 
	8.122944379769030832 25.76285094566281941 0 1 
	9.2405290670328597 25.3835170484753192 0 1 
	11.41630887953475337 24.48225965489495692 0 1 
	12.47450400477281995 23.96033615850210197 0 1 
	14.51356366169072309 22.78302060118643624 0 1 
	15.49442819337056143 22.12762854026363257 0 1 
	17.36251500010016713 20.69431382302210309 0 1 
	18.24973727514993271 19.91639116670338083 0 1 
	19.91535685981335391 18.25069184806297784 0 1 
	20.69375416942700951 17.36291518574129356 0 1 
	22.12719760580537098 15.49493909284900006 0 1 
	22.78224373257007684 14.5147396622783873 0 1 
	23.95986389727349675 12.4750366134671502 0 1 
	24.48243793521220724 11.41553299522652587 0 1 
	25.38400894245054573 9.239686747280581258 0 1 
	25.76300591175017374 8.123344117575259205 0 1 
	26.37240101749647536 5.847909723777211077 0 1 
	26.60279915394315253 4.688817959684484116 0 1 
	26.91034864524764103 2.357036724635062086 0 1 
	26.98750000010545591 1.184347253678366574 0 1 
	26.98749999999999716 -1.413579858423579134e-10 0 1 
	26.98749999997468763 -0.2842433410580916253 0 1 
	26.98749999994937809 -0.5684866819748253253 0 1 
	26.98749999992406856 -0.8527300228915589697 0 1 
	-26.98749999992406856 -0.8527300228879284294 -3.174999999999999822 1 
	-26.98749999994937809 -0.5684866819724049281 -3.174999999999999822 1 
	-26.98749999997468763 -0.2842433410568814267 -3.174999999999999822 1 
	-26.98749999999999716 -1.413579858429262123e-10 -3.174999999999999822 1 
	-26.98750000010545591 1.184347253673322831 -3.174999999999999822 1 
	-26.91034864524840131 2.357036724626332624 -3.174999999999999822 1 
	-26.60279915394511718 4.688817959672780589 -3.174999999999999822 1 
	-26.3724010174988841 5.847909723766219869 -3.174999999999999822 1 
	-25.76300591175347066 8.12334411756500252 -3.174999999999999822 1 
	-25.38400894245428674 9.239686747270347666 -3.174999999999999822 1 
	-24.48243793521681511 11.4155329952165836 -3.174999999999999822 1 
	-23.95986389727852739 12.47503661345747439 -3.174999999999999822 1 
	-22.78224373257592461 14.51473966226922663 -3.174999999999999822 1 
	-22.1271976058116131 15.49493909284008808 -3.174999999999999822 1 
	-20.69375416943401191 17.36291518573294113 -3.174999999999999822 1 
	-19.91535685982072579 18.25069184805492739 -3.174999999999999822 1 
	-18.24973727515799027 19.91639116669600185 -3.174999999999999822 1 
	-17.36251500010853732 20.69431382301508293 -3.174999999999999822 1 
	-15.49442819337946631 22.12762854025739401 -3.174999999999999822 1 
	-14.51356366169984469 22.783020601180624 -3.174999999999999822 1 
	-12.47450400478232879 23.96033615849714948 -3.174999999999999822 1 
	-11.41630887954443274 24.48225965489044142 -3.174999999999999822 1 
	-9.240529067042867695 25.38351704847167056 -3.174999999999999822 1 
	-8.122944379779195145 25.76285094565961131 -3.174999999999999822 1 
	-5.84666205910090131 26.37266962013235272 -3.174999999999999822 1 
	-4.687964425686278247 26.60315439741715338 -3.174999999999999822 1 
	-2.352844528182879369 26.91056958735086013 -3.174999999999999822 1 
	-1.176422264094103109 26.98749999999976623 -3.174999999999999822 1 
	1.176422264083459401 26.98750000000022808 -3.174999999999999822 1 
	2.352844528172246097 26.91056958735179094 -3.174999999999999822 1 
	4.687964425675756885 26.60315439741900789 -3.174999999999999822 1 
	5.846662059090479424 26.37266962013466554 -3.174999999999999822 1 
	8.122944379769030832 25.76285094566281941 -3.174999999999999822 1 
	9.2405290670328597 25.3835170484753192 -3.174999999999999822 1 
	11.41630887953475337 24.48225965489495692 -3.174999999999999822 1 
	12.47450400477281995 23.96033615850210197 -3.174999999999999822 1 
	14.51356366169072309 22.78302060118643624 -3.174999999999999822 1 
	15.49442819337056143 22.12762854026363257 -3.174999999999999822 1 
	17.36251500010016713 20.69431382302210309 -3.174999999999999822 1 
	18.24973727514993271 19.91639116670338083 -3.174999999999999822 1 
	19.91535685981335391 18.25069184806297784 -3.174999999999999822 1 
	20.69375416942700951 17.36291518574129356 -3.174999999999999822 1 
	22.12719760580537098 15.49493909284900006 -3.174999999999999822 1 
	22.78224373257007684 14.5147396622783873 -3.174999999999999822 1 
	23.95986389727349675 12.4750366134671502 -3.174999999999999822 1 
	24.48243793521220724 11.41553299522652587 -3.174999999999999822 1 
	25.38400894245054573 9.239686747280581258 -3.174999999999999822 1 
	25.76300591175017374 8.123344117575259205 -3.174999999999999822 1 
	26.37240101749647536 5.847909723777211077 -3.174999999999999822 1 
	26.60279915394315253 4.688817959684484116 -3.174999999999999822 1 
	26.91034864524764103 2.357036724635062086 -3.174999999999999822 1 
	26.98750000010545591 1.184347253678366574 -3.174999999999999822 1 
	26.98749999999999716 -1.413579858423579134e-10 -3.174999999999999822 1 
	26.98749999997468763 -0.2842433410580916253 -3.174999999999999822 1 
	26.98749999994937809 -0.5684866819748253253 -3.174999999999999822 1 
	26.98749999992406856 -0.8527300228915589697 -3.174999999999999822 1 
	-26.98749999992406856 -0.8527300228879284294 -3.265000000000000124 1 
	-26.98749999994937809 -0.5684866819724049281 -3.265000000000000124 1 
	-26.98749999997468763 -0.2842433410568814267 -3.265000000000000124 1 
	-26.98749999999999716 -1.413579858429262123e-10 -3.265000000000000124 1 
	-26.98750000010545591 1.184347253673322831 -3.265000000000000124 1 
	-26.91034864524840131 2.357036724626332624 -3.265000000000000124 1 
	-26.60279915394511718 4.688817959672780589 -3.265000000000000124 1 
	-26.3724010174988841 5.847909723766219869 -3.265000000000000124 1 
	-25.76300591175347066 8.12334411756500252 -3.265000000000000124 1 
	-25.38400894245428674 9.239686747270347666 -3.265000000000000124 1 
	-24.48243793521681511 11.4155329952165836 -3.265000000000000124 1 
	-23.95986389727852739 12.47503661345747439 -3.265000000000000124 1 
	-22.78224373257592461 14.51473966226922663 -3.265000000000000124 1 
	-22.1271976058116131 15.49493909284008808 -3.265000000000000124 1 
	-20.69375416943401191 17.36291518573294113 -3.265000000000000124 1 
	-19.91535685982072579 18.25069184805492739 -3.265000000000000124 1 
	-18.24973727515799027 19.91639116669600185 -3.265000000000000124 1 
	-17.36251500010853732 20.69431382301508293 -3.265000000000000124 1 
	-15.49442819337946631 22.12762854025739401 -3.265000000000000124 1 
	-14.51356366169984469 22.783020601180624 -3.265000000000000124 1 
	-12.47450400478232879 23.96033615849714948 -3.265000000000000124 1 
	-11.41630887954443274 24.48225965489044142 -3.265000000000000124 1 
	-9.240529067042867695 25.38351704847167056 -3.265000000000000124 1 
	-8.122944379779195145 25.76285094565961131 -3.265000000000000124 1 
	-5.84666205910090131 26.37266962013235272 -3.265000000000000124 1 
	-4.687964425686278247 26.60315439741715338 -3.265000000000000124 1 
	-2.352844528182879369 26.91056958735086013 -3.265000000000000124 1 
	-1.176422264094103109 26.98749999999976623 -3.265000000000000124 1 
	1.176422264083459401 26.98750000000022808 -3.265000000000000124 1 
	2.352844528172246097 26.91056958735179094 -3.265000000000000124 1 
	4.687964425675756885 26.60315439741900789 -3.265000000000000124 1 
	5.846662059090479424 26.37266962013466554 -3.265000000000000124 1 
	8.122944379769030832 25.76285094566281941 -3.265000000000000124 1 
	9.2405290670328597 25.3835170484753192 -3.265000000000000124 1 
	11.41630887953475337 24.48225965489495692 -3.265000000000000124 1 
	12.47450400477281995 23.96033615850210197 -3.265000000000000124 1 
	14.51356366169072309 22.78302060118643624 -3.265000000000000124 1 
	15.49442819337056143 22.12762854026363257 -3.265000000000000124 1 
	17.36251500010016713 20.69431382302210309 -3.265000000000000124 1 
	18.24973727514993271 19.91639116670338083 -3.265000000000000124 1 
	19.91535685981335391 18.25069184806297784 -3.265000000000000124 1 
	20.69375416942700951 17.36291518574129356 -3.265000000000000124 1 
	22.12719760580537098 15.49493909284900006 -3.265000000000000124 1 
	22.78224373257007684 14.5147396622783873 -3.265000000000000124 1 
	23.95986389727349675 12.4750366134671502 -3.265000000000000124 1 
	24.48243793521220724 11.41553299522652587 -3.265000000000000124 1 
	25.38400894245054573 9.239686747280581258 -3.265000000000000124 1 
	25.76300591175017374 8.123344117575259205 -3.265000000000000124 1 
	26.37240101749647536 5.847909723777211077 -3.265000000000000124 1 
	26.60279915394315253 4.688817959684484116 -3.265000000000000124 1 
	26.91034864524764103 2.357036724635062086 -3.265000000000000124 1 
	26.98750000010545591 1.184347253678366574 -3.265000000000000124 1 
	26.98749999999999716 -1.413579858423579134e-10 -3.265000000000000124 1 
	26.98749999997468763 -0.2842433410580916253 -3.265000000000000124 1 
	26.98749999994937809 -0.5684866819748253253 -3.265000000000000124 1 
	26.98749999992406856 -0.8527300228915589697 -3.265000000000000124 1 
	2.220446049250313081e-16 
	0 
	2 0 1 
	23 0.04166666666666666435 0.08333333333333332871 0.125 0.1666666666666666574 0.2083333333333333148 0.25 0.2916666666666666297 0.3333333333333333148 0.375 0.4166666666666666297 0.4583333333333333148 0.5 0.5416666666666666297 0.5833333333333332593 0.625 0.6666666666666666297 0.7083333333333332593 0.75 0.7916666666666666297 0.8333333333333332593 0.875 0.9166666666666666297 0.9583333333333332593 
	0 
	2 0 1 
	0 
	F 0 F 1 F 0 F 1 } I I I I #
coedge $-1 $40 $30 $41 $42 forward $12 $-1 #
coedge $-1 $32 $14 $43 $44 forward $8 $-1 #
coedge $-1 $30 $40 $14 $25 reversed $12 $-1 #
edge $-1 $33 -1.587499999999999911 $45 1.587499999999999911 $24 $46 reversed 7 unknown #
coedge $-1 $47 $15 $48 $49 forward $5 $-1 #
coedge $-1 $50 $51 $15 $28 reversed $52 $-1 #
edge $-1 $34 -30.16249999999999787 $53 30.16249999999999787 $15 $54 forward 7 unknown #
coedge $-1 $16 $47 $55 $56 forward $5 $-1 #
coedge $-1 $22 $24 $16 $31 reversed $12 $-1 #
edge $-1 $57 12.69999999999999751 $33 15.87499999999999822 $16 $58 forward 7 unknown #
coedge $-1 $17 $23 $50 $59 reversed $8 $-1 #
vertex $-1 $31 $60 #
vertex $-1 $28 $61 #
straight-curve $-1 30.16249999999999787 9.524999999929319117 0 0 1 0 I I #
face $-1 $62 $63 $2 $-1 $64 forward single #
loop $-1 $-1 $65 $19 #
plane-surface $-1 -28.57499999999999929 -1.413579858429262123e-10 -1.587499999999999911 0 -1 0 1 0 0 forward_v I I I I #
coedge $-1 $66 $55 $67 $68 forward $20 $69 #
coedge $-1 $24 $22 $70 $71 forward $12 $-1 #
coedge $-1 $55 $66 $22 $42 reversed $20 $72 #
edge $-1 $57 0 $73 3.174999999999999822 $22 $74 forward 7 unknown #
coedge $-1 $70 $75 $23 $44 reversed $76 $-1 #
edge $-1 $45 -9.525000000070676265 $77 28.57499999992931805 $23 $78 reversed 7 unknown #
vertex $-1 $25 $79 #
straight-curve $-1 30.16249999999999787 -1.413589245657931315e-10 -1.587499999999999911 -0 0 1 I I #
coedge $-1 $29 $26 $80 $81 forward $5 $-1 #
coedge $-1 $82 $83 $26 $49 reversed $63 $-1 #
edge $-1 $53 -28.57499999992931805 $84 9.525000000070678041 $26 $85 forward 7 unknown #
coedge $-1 $86 $27 $32 $59 forward $52 $-1 #
coedge $-1 $27 $86 $82 $87 reversed $52 $-1 #
loop $-1 $-1 $50 $62 #
vertex $-1 $49 $88 #
straight-curve $-1 0 38.09999999985863894 0 -1 0 0 I I #
coedge $-1 $39 $41 $29 $56 reversed $20 $89 #
edge $-1 $90 0 $57 1 $29 $91 forward 7 unknown #
vertex $-1 $31 $92 #
straight-curve $-1 14.28749999999999964 -1.413579858423579134e-10 0 1 0 -0 I I #
edge $-1 $34 -1.587499999999999911 $77 1.587499999999999911 $50 $93 forward 7 unknown #
point $-1 30.16249999999999787 -1.413571482089537312e-10 0 #
point $-1 30.16249999999999787 38.09999999985863894 0 #
face $-1 $94 $52 $2 $-1 $95 forward single #
loop $-1 $-1 $82 $36 #
plane-surface $-1 -30.16249999999999787 19.04999999985864179 -1.587499999999999911 -1 0 0 0 -1 0 forward_v I I I I #
coedge $-1 $96 $80 $83 $97 forward $37 $-1 #
coedge $-1 $41 $39 $98 $99 forward $20 $100 #
coedge $-1 $80 $96 $39 $68 reversed $37 $-1 #
edge $-1 $90 0 $101 3.174999999999999822 $39 $102 forward 7 unknown #
pcurve $-1 0 forward { exppc nubs 2 open 7 
	0 2 0.529166666666666563 2 1.058333333333333126 2 1.587499999999999911 2 2.116666666666666252 2 
	2.645833333333333481 2 3.174999999999999822 2 
	3.637642881486466393e-27 0 
	3.637642881486466393e-27 0.08333333333333332871 
	3.637642881486466393e-27 0.1666666666666666574 
	3.637642881486466393e-27 0.25 
	3.637642881486466393e-27 0.3333333333333333148 
	3.637642881486466393e-27 0.4166666666666666297 
	3.637642881486466393e-27 0.5 
	3.637642881486466393e-27 0.5833333333333332593 
	3.637642881486466393e-27 0.6666666666666666297 
	3.637642881486466393e-27 0.75 
	3.637642881486466393e-27 0.8333333333333333703 
	3.63764288148646711e-27 0.9166666666666667407 
	3.63764288148646711e-27 1 
	0.001000000000000000021 
	spline reversed { ref 0 } I I I I 
	} 0 0 #
coedge $-1 $98 $43 $40 $71 reversed $76 $-1 #
edge $-1 $73 12.69999999999999751 $45 15.87499999999999822 $40 $103 reversed 7 unknown #
pcurve $-1 0 forward { exppc nubs 2 open 7 
	-3.174999999999999822 2 -2.645833333333333481 2 -2.116666666666666696 2 -1.587499999999999911 2 -1.058333333333333348 2 
	-0.529166666666666563 2 -0 2 
	1 1 
	1 0.9166666666666667407 
	1 0.8333333333333333703 
	1 0.75 
	1 0.6666666666666667407 
	1 0.5833333333333333703 
	1 0.5 
	1 0.4166666666666666852 
	1 0.3333333333333333703 
	1 0.25 
	1 0.1666666666666666574 
	1 0.08333333333333332871 
	1 0 
	0.001000000000000000021 
	spline reversed { ref 0 } I I I I 
	} 0 0 #
vertex $-1 $71 $104 #
straight-curve $-1 26.98750000000000071 -1.413579858423579134e-10 0 0 0 -1 F 0 F 3.174999999999999822 #
coedge $-1 $43 $105 $86 $106 reversed $76 $-1 #
loop $-1 $-1 $98 $94 #
vertex $-1 $106 $107 #
straight-curve $-1 30.16249999999999787 9.524999999929319117 -3.174999999999999822 0 -1 0 I I #
point $-1 30.16249999999999787 -1.413579858423579134e-10 -3.174999999999999822 #
coedge $-1 $65 $67 $47 $81 reversed $37 $-1 #
edge $-1 $84 -15.87499999999999822 $90 -12.69999999999999751 $47 $108 forward 7 unknown #
coedge $-1 $109 $48 $51 $87 forward $63 $-1 #
coedge $-1 $48 $109 $65 $97 reversed $63 $-1 #
vertex $-1 $81 $110 #
straight-curve $-1 -30.16249999999999787 9.524999999929320893 0 0 -1 0 I I #
coedge $-1 $51 $50 $75 $106 forward $52 $-1 #
edge $-1 $53 -1.587499999999999911 $111 1.587499999999999911 $82 $112 forward 7 unknown #
point $-1 -30.16249999999999787 38.09999999985863894 0 #
pcurve $-1 0 forward { exppc nubs 2 open 17 
	-1 2 -0.9166666666666667407 2 -0.875 2 -0.8333333333333333703 2 -0.75 2 
	-0.6666666666666667407 2 -0.5833333333333333703 2 -0.5416666666666667407 2 -0.5 2 -0.4583333333333333703 2 
	-0.4166666666666666852 2 -0.3333333333333333703 2 -0.25 2 -0.1666666666666666297 2 -0.1249999999999999722 2 
	-0.08333333333333331483 2 -0 2 
	1 0 
	0.9176382610881584911 0 
	0.9166670387866023839 0 
	0.8958352230898642965 0 
	0.87499997686378439 0 
	0.8745142942099456418 0 
	0.8333339935216432792 0 
	0.7509715679390712717 0 
	0.7500003304278490823 0 
	0.7490291003821288873 0 
	0.666666511112644411 0 
	0.5843041841872474995 0 
	0.5833333505684261677 0 
	0.5625061999293607951 0 
	0.5416676943417381151 0 
	0.5411820167784177071 0 
	0.5 0 
	0.4588179832215875109 0 
	0.4583323056582671584 0 
	0.437493800070644534 0 
	0.4166666494315789948 0 
	0.415695815812757663 0 
	0.3333334888873608071 0 
	0.2509708996178764417 0 
	0.2499996695721563023 0 
	0.2490284320609341406 0 
	0.1666660064783619388 0 
	0.125485705790059604 0 
	0.1250000231362208281 0 
	0.1041647769101387011 0 
	0.08333296121340287577 0 
	0.08236173891184705997 0 
	0 0 
	0.001000000000000000021 
	spline reversed { ref 0 } I I I I 
	} 0 0 #
vertex $-1 $56 $113 #
intcurve-curve $-1 forward { exactcur full nurbs 3 open 25 
	0 3 0.04166683644470998982 1 0.08333370544690102411 1 0.1249999768635351588 1 0.1666673268550221132 1 
	0.2083333678773169884 1 0.2500003304305993823 1 0.2916669463138854002 1 0.333333177780798684 1 0.3749996230304477041 1 
	0.4166666839021806457 1 0.4583343610115695466 1 0.499999999999997502 1 0.5416656389884252354 1 0.5833333160978141363 1 
	0.6250003769695472444 1 0.6666668222191961535 1 0.7083330536861093263 1 0.7499996695693953441 1 0.7916666321226777381 1 
	0.8333326731449726132 1 0.875000023136459637 1 0.9166662945530936746 1 0.9583331635552850836 1 1 3 
	-26.98749999999999716 -1.413579858429262123e-10 0 1 
	-26.98750000010545591 1.184347700762021116 0 1 
	-26.83349660856415042 3.529734263509807235 0 1 
	-26.14193490942706788 7.006962143487005967 0 1 
	-25.0050051462811318 10.35609426927798893 0 1.000000000000000222 
	-23.43732531075383463 13.53446784373515399 0 1.000000000000000222 
	-21.47211796977801868 16.47518801590619475 0 1 
	-19.13697422980900598 19.13844934656609809 0 1.000000000000000222 
	-16.47530698908974145 21.47222759404241543 0 1 
	-13.53269006622392645 23.43841797384042991 0 1 
	-10.35809254290815851 25.00419359647622741 0 1 
	-7.005319129233741116 26.14219264439228141 0 0.999999999999999778 
	-3.529372593180383877 26.83362342015567847 0 1.000000000000000222 
	-5.326645847418702275e-12 27.06443640820692664 0 0.999999999999999778 
	3.529372593169763039 26.83362342015707824 0 1.000000000000000222 
	7.00531912922341693 26.14219264439504897 0 0.999999999999999778 
	10.35809254289830683 25.00419359648030238 0 1 
	13.53269006621458992 23.43841797384581938 0 1 
	16.47530698908104796 21.47222759404907322 0 1 
	19.13697422980127527 19.1384493465738359 0 1 
	21.47211796977138576 16.47518801591485627 0 1 
	23.43732531074838121 13.53446784374456868 0 1 
	25.00500514627696802 10.35609426928819587 0 0.999999999999999778 
	26.14193490942415821 7.00696214349729285 0 1.000000000000000222 
	26.83349660856285723 3.52973426352200903 0 1.000000000000000222 
	26.98750000010545591 1.1843477007669998 0 1 
	26.98749999999999716 -1.413580363873734314e-10 0 1 
	0 
	null_surface 
	null_surface 
	nullbs 
	nullbs 
	I I 
	0 
	0 
	23 0.04166683644470998982 0.08333370544690102411 0.1249999768635351588 0.1666673268550221132 0.2083333678773169884 0.2500003304305993823 0.2916669463138854002 0.333333177780798684 0.3749996230304477041 0.4166666839021806457 0.4583343610115695466 0.499999999999997502 0.5416656389884252354 0.5833333160978141363 0.6250003769695472444 0.6666668222191961535 0.7083330536861093263 0.7499996695693953441 0.7916666321226777381 0.8333326731449726132 0.875000023136459637 0.9166662945530936746 0.9583331635552850836 
	F 1 F 0 } I I #
point $-1 26.98749999999999716 -1.413579858423579134e-10 0 #
straight-curve $-1 30.16249999999999787 38.09999999985863894 -1.587499999999999911 0 0 -1 I I #
face $-1 $-1 $76 $2 $-1 $114 reversed single #
plane-surface $-1 0 38.09999999985863894 -1.587499999999999911 0 1 0 -1 0 0 forward_v I I I I #
coedge $-1 $67 $65 $115 $116 forward $37 $-1 #
edge $-1 $84 -1.587499999999999911 $117 1.587499999999999911 $65 $118 forward 7 unknown #
coedge $-1 $115 $70 $66 $99 reversed $76 $-1 #
edge $-1 $101 0 $73 1 $66 $119 forward 7 unknown #
pcurve $-1 0 forward { exppc nubs 2 open 17 
	0 2 0.08333333333333332871 2 0.125 2 0.1666666666666666574 2 0.25 2 
	0.3333333333333333148 2 0.4166666666666666297 2 0.4583333333333333148 2 0.5 2 0.5416666666666666297 2 
	0.5833333333333332593 2 0.6666666666666666297 2 0.75 2 0.8333333333333333703 2 0.875 2 
	0.9166666666666667407 2 1 2 
	0 1 
	0.0823617389118470461 0.999999999999999889 
	0.08333296121340286189 1 
	0.1041647769101387427 1.000000000000000222 
	0.1250000231362208836 1.000000000000000222 
	0.1254857057900596595 1.000000000000000222 
	0.1666660064783619666 0.999999999999999889 
	0.2490284320609341129 1 
	0.2499996695721563023 1 
	0.2509708996178764417 1 
	0.333333488887360696 1 
	0.4156958158127576075 1.000000000000000222 
	0.4166666494315789393 1.000000000000000222 
	0.437493800070644534 1 
	0.4583323056582671029 1 
	0.4588179832215874554 1 
	0.5 1 
	0.5411820167784174851 1 
	0.5416676943417378931 1 
	0.562506199929360573 1.000000000000000222 
	0.5833333505684260567 1.000000000000000222 
	0.5843041841872473885 1.000000000000000222 
	0.6666665111126443 1 
	0.7490291003821288873 1 
	0.7500003304278490823 1 
	0.7509715679390712717 1 
	0.8333339935216432792 1.000000000000000222 
	0.8745142942099455308 1.000000000000000222 
	0.87499997686378439 1.000000000000000222 
	0.8958352230898640745 1.000000000000000222 
	0.9166670387866023839 1.000000000000000222 
	0.9176382610881584911 1.000000000000000222 
	1 1 
	0.001000000000000000021 
	spline reversed { ref 0 } I I I I 
	} 0 0 #
vertex $-1 $99 $120 #
straight-curve $-1 -26.98750000000000071 -1.413579858429262123e-10 0 0 0 -1 F 0 F 3.174999999999999822 #
straight-curve $-1 14.28749999999999964 -1.413579858423579134e-10 -3.174999999999999822 -1 0 0 I I #
point $-1 26.98749999999999716 -1.413579858423579134e-10 -3.174999999999999822 #
coedge $-1 $75 $115 $109 $121 reversed $76 $-1 #
edge $-1 $77 -30.16249999999999787 $111 30.16249999999999787 $86 $122 reversed 7 unknown #
point $-1 30.16249999999999787 38.09999999985863894 -3.174999999999999822 #
straight-curve $-1 -14.28749999999999964 -1.413579858429262123e-10 0 1 0 -0 I I #
coedge $-1 $83 $82 $105 $121 forward $63 $-1 #
point $-1 -30.16249999999999787 -1.413571482089537312e-10 0 #
vertex $-1 $121 $123 #
straight-curve $-1 -30.16249999999999787 38.09999999985863894 -1.587499999999999911 0 0 -1 I I #
point $-1 -26.98749999999999716 -1.413579858429262123e-10 0 #
plane-surface $-1 0 0 -3.174999999999999822 0 0 1 1 0 0 forward_v I I I I #
coedge $-1 $105 $98 $96 $116 reversed $76 $-1 #
edge $-1 $117 -15.87499999999999822 $101 -12.69999999999999751 $96 $124 reversed 7 unknown #
vertex $-1 $116 $125 #
straight-curve $-1 -30.16249999999999787 -1.413589245657931315e-10 -1.587499999999999911 -0 -0 -1 I I #
intcurve-curve $-1 forward { exactcur full nurbs 3 open 25 
	0 3 0.04166683644470998982 1 0.08333370544690102411 1 0.1249999768635351588 1 0.1666673268550221132 1 
	0.2083333678773169884 1 0.2500003304305993823 1 0.2916669463138854002 1 0.333333177780798684 1 0.3749996230304477041 1 
	0.4166666839021806457 1 0.4583343610115695466 1 0.499999999999997502 1 0.5416656389884252354 1 0.5833333160978141363 1 
	0.6250003769695472444 1 0.6666668222191961535 1 0.7083330536861093263 1 0.7499996695693953441 1 0.7916666321226777381 1 
	0.8333326731449726132 1 0.875000023136459637 1 0.9166662945530936746 1 0.9583331635552850836 1 1 3 
	-26.98749999999999716 -1.413579858429262123e-10 -3.174999999999999822 1 
	-26.98750000010545591 1.184347700762021116 -3.174999999999999822 1 
	-26.83349660856415042 3.529734263509807235 -3.174999999999999378 1 
	-26.14193490942706788 7.006962143487005967 -3.174999999999999822 1 
	-25.0050051462811318 10.35609426927798893 -3.174999999999999822 1.000000000000000222 
	-23.43732531075383463 13.53446784373515399 -3.174999999999998934 1.000000000000000222 
	-21.47211796977801868 16.47518801590619475 -3.175000000000000266 1 
	-19.13697422980900598 19.13844934656609809 -3.174999999999998934 1.000000000000000222 
	-16.47530698908974145 21.47222759404241543 -3.174999999999999822 1 
	-13.53269006622392645 23.43841797384042991 -3.174999999999999822 1 
	-10.35809254290815851 25.00419359647622741 -3.174999999999999822 1 
	-7.005319129233741116 26.14219264439228141 -3.175000000000000711 0.999999999999999778 
	-3.529372593180383877 26.83362342015567847 -3.174999999999999378 1.000000000000000222 
	-5.326645847418702275e-12 27.06443640820692664 -3.175000000000000266 0.999999999999999778 
	3.529372593169763039 26.83362342015707824 -3.174999999999999378 1.000000000000000222 
	7.00531912922341693 26.14219264439504897 -3.175000000000000266 0.999999999999999778 
	10.35809254289830683 25.00419359648030238 -3.174999999999999378 1 
	13.53269006621458992 23.43841797384581938 -3.174999999999999822 1 
	16.47530698908104796 21.47222759404907322 -3.174999999999999378 1 
	19.13697422980127527 19.1384493465738359 -3.174999999999999822 1 
	21.47211796977138576 16.47518801591485627 -3.175000000000000266 1 
	23.43732531074838121 13.53446784374456868 -3.174999999999999822 1 
	25.00500514627696802 10.35609426928819587 -3.175000000000000266 0.999999999999999778 
	26.14193490942415821 7.00696214349729285 -3.174999999999999378 1.000000000000000222 
	26.83349660856285723 3.52973426352200903 -3.174999999999999822 1.000000000000000222 
	26.98750000010545591 1.1843477007669998 -3.174999999999999822 1 
	26.98749999999999716 -1.413580363873734314e-10 -3.174999999999999822 1 
	0 
	null_surface 
	null_surface 
	nullbs 
	nullbs 
	I I 
	0 
	0 
	23 0.04166683644470998982 0.08333370544690102411 0.1249999768635351588 0.1666673268550221132 0.2083333678773169884 0.2500003304305993823 0.2916669463138854002 0.333333177780798684 0.3749996230304477041 0.4166666839021806457 0.4583343610115695466 0.499999999999997502 0.5416656389884252354 0.5833333160978141363 0.6250003769695472444 0.6666668222191961535 0.7083330536861093263 0.7499996695693953441 0.7916666321226777381 0.8333326731449726132 0.875000023136459637 0.9166662945530936746 0.9583331635552850836 
	F 1 F 0 } I I #
point $-1 -26.98749999999999716 -1.413579858429262123e-10 -3.174999999999999822 #
edge $-1 $111 -28.57499999992931805 $117 9.525000000070679818 $109 $126 reversed 7 unknown #
straight-curve $-1 0 38.09999999985863894 -3.174999999999999822 1 0 0 I I #
point $-1 -30.16249999999999787 38.09999999985863894 -3.174999999999999822 #
straight-curve $-1 -14.28749999999999964 -1.413579858429262123e-10 -3.174999999999999822 -1 0 0 I I #
point $-1 -30.16249999999999787 -1.413589245657931315e-10 -3.174999999999999822 #
straight-curve $-1 -30.16249999999999787 9.524999999929320893 -3.174999999999999822 0 1 -0 I I #
End-of-ACIS-data 