700 0 2 0           
24 FBMach with ACIS - 7.0.3 13 ACIS 7.0.3 NT 24 Wed May 15 10:08:59 2002 
1 9.9999999999999995e-007 1e-010 
body $2 -1 $-1 $3 $-1 $4 #
bdycol-kcp $-1 -1 1 3 $5 $6 $7 #
model_id-kcp-attrib $-1 -1 $-1 $-1 $0 1 1021471738 1021471738 780009473 1 #
lump $-1 -1 $-1 $-1 $8 $0 #
transform $-1 -1 1.0000000000000004 0 0 0 1 0 0 0 1.0000000000000004 -3.5527136788005009e-014 0 -2.1316282072803006e-014 1 rotate no_reflect no_shear #
body $9 -1 $-1 $10 $-1 $11 #
body $12 -1 $-1 $13 $-1 $14 #
body $15 -1 $-1 $16 $-1 $17 #
shell $-1 -1 $-1 $-1 $-1 $18 $-1 $3 #
rgb_color-st-attrib $-1 -1 $19 $-1 $5 0.5 1 1 #
lump $-1 -1 $-1 $20 $21 $5 #
transform $-1 -1 1 0 0 0 1 0 0 0 1 38.100000000000001 2.5399999999999996 38.100000000000001 1 no_rotate no_reflect no_shear #
model_id-kcp-attrib $-1 -1 $-1 $-1 $6 1 1021471738 1021471738 780009474 1 #
lump $-1 -1 $-1 $-1 $22 $6 #
transform $-1 -1 1 0 0 0 1 0 0 0 1 38.100000000000001 2.5399999999999996 38.100000000000001 1 no_rotate no_reflect no_shear #
rgb_color-st-attrib $-1 -1 $23 $-1 $7 0.5 1 1 #
lump $-1 -1 $-1 $-1 $24 $7 #
transform $-1 -1 1 0 0 0 1 0 0 0 1 0 0 0 1 no_rotate no_reflect no_shear #
face $25 -1 $-1 $26 $27 $8 $-1 $28 reversed single #
model_id-kcp-attrib $-1 -1 $-1 $9 $5 1 1021471738 1021471738 779616259 1 #
lump $-1 -1 $-1 $29 $30 $5 #
shell $-1 -1 $-1 $-1 $-1 $31 $-1 $10 #
shell $-1 -1 $-1 $-1 $-1 $32 $-1 $13 #
model_id-kcp-attrib $-1 -1 $-1 $15 $7 1 1021471738 1021471739 773586948 1 #
shell $-1 -1 $-1 $-1 $-1 $33 $-1 $16 #
model_id-kcp-attrib $-1 -1 $-1 $-1 $18 1 1021471738 1021471738 780009473 2 #
face $34 -1 $-1 $35 $36 $8 $-1 $37 forward single #
loop $-1 -1 $-1 $38 $39 $18 #
plane-surface $-1 -1 $-1 0 5.0799999999999992 0 0 -1 0 1 0 0 forward_v I I I I #
lump $-1 -1 $-1 $40 $41 $5 #
shell $-1 -1 $-1 $-1 $-1 $42 $-1 $20 #
face $-1 -1 $-1 $43 $44 $21 $-1 $45 reversed single #
face $46 -1 $-1 $47 $48 $22 $-1 $49 forward single #
face $-1 -1 $-1 $50 $51 $24 $-1 $52 forward single #
model_id-kcp-attrib $-1 -1 $-1 $-1 $26 1 1021471738 1021471738 780009473 3 #
face $53 -1 $-1 $54 $55 $8 $-1 $56 forward single #
loop $-1 -1 $-1 $-1 $57 $26 #
plane-surface $-1 -1 $-1 0 2.5399999999999996 37.197898798981662 -1 0 0 0 0 1 forward_v I I I I #
loop $-1 -1 $-1 $-1 $58 $18 #
coedge $-1 -1 $-1 $59 $60 $61 $62 forward $27 $-1 #
lump $-1 -1 $-1 $-1 $63 $5 #
shell $-1 -1 $-1 $-1 $-1 $64 $-1 $29 #
face $-1 -1 $-1 $65 $66 $30 $-1 $67 forward single #
face $-1 -1 $-1 $68 $69 $21 $-1 $70 reversed single #
loop $-1 -1 $-1 $-1 $71 $31 #
cone-surface $-1 -1 $-1 -2.7431999999999519 2.5399999999999996 -8.9539012010183754 0 1 0 -20.015200000000039 0 -29.146098798981619 1 I I 0 1 35.356799999999993 forward I I I I #
model_id-kcp-attrib $-1 -1 $-1 $-1 $32 1 1021471738 1021471738 780009474 6 #
face $72 -1 $-1 $73 $74 $22 $-1 $75 reversed single #
loop $-1 -1 $-1 $-1 $76 $32 #
plane-surface $-1 -1 $-1 0 0 38.100000000000001 0 0 1 1 0 0 forward_v I I I I #
face $-1 -1 $-1 $77 $78 $24 $-1 $79 forward single #
loop $-1 -1 $-1 $-1 $80 $33 #
plane-surface $-1 -1 $-1 35.483799999999988 5.0799999999999992 55.930799999999984 1 0 0 0 0 -1 forward_v I I I I #
model_id-kcp-attrib $-1 -1 $-1 $-1 $35 1 1021471738 1021471738 780009473 4 #
face $81 -1 $-1 $82 $83 $8 $-1 $84 forward single #
loop $-1 -1 $-1 $-1 $85 $35 #
cone-surface $-1 -1 $-1 35.356800000000057 2.5399999999999996 29.146098798981619 0 1 0 -20.015200000000046 0 -29.146098798981615 1 I I 0 1 35.356799999999993 forward I I I I #
coedge $-1 -1 $-1 $86 $61 $87 $88 forward $36 $-1 #
coedge $-1 -1 $-1 $89 $90 $91 $92 forward $38 $-1 #
coedge $-1 -1 $-1 $93 $39 $94 $95 forward $27 $-1 #
coedge $-1 -1 $-1 $39 $96 $97 $98 forward $27 $-1 #
coedge $-1 -1 $-1 $57 $99 $39 $62 reversed $36 $-1 #
edge $100 -1 $-1 $101 10.547149399490788 $102 26.650749399490753 $39 $103 reversed @7 unknown #
shell $-1 -1 $-1 $-1 $-1 $104 $-1 $40 #
face $-1 -1 $-1 $105 $106 $41 $-1 $107 reversed single #
face $-1 -1 $-1 $108 $109 $30 $-1 $110 reversed single #
loop $-1 -1 $-1 $-1 $111 $42 #
plane-surface $-1 -1 $-1 0 0 38.100000000000001 0 0 1 1 0 0 forward_v I I I I #
face $-1 -1 $-1 $112 $113 $21 $-1 $114 reversed single #
loop $-1 -1 $-1 $-1 $115 $43 #
plane-surface $-1 -1 $-1 0 -2.5399999999999996 0 0 1 0 0 0 1 forward_v I I I I #
coedge $-1 -1 $-1 $116 $117 $115 $118 reversed $44 $-1 #
model_id-kcp-attrib $-1 -1 $-1 $-1 $47 1 1021471738 1021471738 780009474 4 #
face $119 -1 $-1 $120 $121 $22 $-1 $122 reversed single #
loop $-1 -1 $-1 $-1 $123 $47 #
plane-surface $-1 -1 $-1 0 0 -38.100000000000001 0 0 1 1 0 0 forward_v I I I I #
coedge $-1 -1 $-1 $124 $125 $126 $127 forward $48 $-1 #
face $-1 -1 $-1 $128 $129 $24 $-1 $130 forward single #
loop $-1 -1 $-1 $-1 $131 $50 #
plane-surface $-1 -1 $-1 35.483799999999988 5.0799999999999992 20.370799999999996 0.55744085613245475 0 -0.83021665359971919 -0.83021665359971919 0 -0.55744085613245475 forward_v I I I I #
coedge $-1 -1 $-1 $132 $133 $134 $135 forward $51 $-1 #
model_id-kcp-attrib $-1 -1 $-1 $-1 $54 1 1021471738 1021471738 780009473 5 #
face $136 -1 $-1 $137 $138 $8 $-1 $139 forward single #
loop $-1 -1 $-1 $-1 $140 $54 #
plane-surface $-1 -1 $-1 38.099999999999994 2.5399999999999996 0 0 0 -1 1 0 0 forward_v I I I I #
coedge $-1 -1 $-1 $141 $97 $142 $143 forward $55 $-1 #
coedge $-1 -1 $-1 $99 $57 $144 $145 forward $36 $-1 #
coedge $-1 -1 $-1 $97 $141 $57 $88 reversed $55 $-1 #
edge $146 -1 $-1 $101 -2.5399999999999996 $147 2.5399999999999996 $87 $148 reversed @7 unknown #
coedge $-1 -1 $-1 $149 $58 $150 $151 reversed $38 $-1 #
coedge $-1 -1 $-1 $58 $149 $152 $153 forward $38 $-1 #
coedge $-1 -1 $-1 $154 $155 $58 $92 reversed $156 $-1 #
edge $157 -1 $-1 $158 -6.675920383878303 $159 11.032368702154876 $58 $160 reversed @7 unknown #
coedge $-1 -1 $-1 $161 $59 $162 $163 forward $27 $-1 #
coedge $-1 -1 $-1 $164 $165 $59 $95 reversed $166 $-1 #
edge $167 -1 $-1 $102 8.0968682749578058e-009 $168 1.0662017443483294 $59 $169 reversed @7 unknown #
coedge $-1 -1 $-1 $60 $170 $140 $171 reversed $27 $-1 #
coedge $-1 -1 $-1 $85 $87 $60 $98 reversed $55 $-1 #
edge $172 -1 $-1 $173 -9.0941954280208906e-017 $101 0.96903903779122047 $60 $174 reversed @7 unknown #
coedge $-1 -1 $-1 $61 $86 $164 $175 reversed $36 $-1 #
attrib_edge_convexity-kcp-attrib $-1 -1 $176 $-1 $62 1 #
vertex $-1 -1 $-1 $98 $177 #
vertex $-1 -1 $-1 $95 $178 #
straight-curve $-1 -1 $-1 0 5.0799999999999992 18.598949399490831 0 0 -1 I I #
face $-1 -1 $-1 $179 $180 $63 $-1 $181 reversed single #
face $-1 -1 $-1 $182 $183 $41 $-1 $70 reversed single #
loop $-1 -1 $-1 $-1 $184 $64 #
plane-surface $-1 -1 $-1 38.099999999999987 2.5399999999999996 12.513386699002361 0.48836234521642929 0 0.87264094550663229 0 -1 0 forward_v I I I I #
face $-1 -1 $-1 $185 $186 $30 $-1 $70 reversed single #
loop $-1 -1 $-1 $-1 $187 $65 #
plane-surface $-1 -1 $-1 0 2.5399999999999996 0 0 -1 0 0 0 -1 forward_v I I I I #
coedge $-1 -1 $-1 $188 $189 $190 $191 forward $66 $-1 #
face $-1 -1 $-1 $192 $193 $21 $-1 $194 reversed single #
loop $-1 -1 $-1 $-1 $195 $68 #
plane-surface $-1 -1 $-1 0 0 -38.100000000000001 0 0 1 1 0 0 forward_v I I I I #
coedge $-1 -1 $-1 $196 $197 $71 $118 forward $69 $-1 #
coedge $-1 -1 $-1 $198 $71 $195 $199 reversed $44 $-1 #
coedge $-1 -1 $-1 $71 $198 $200 $201 reversed $44 $-1 #
edge $-1 -1 $-1 $202 0 $203 0.96903903779122058 $115 $204 forward @7 unknown #
model_id-kcp-attrib $-1 -1 $-1 $-1 $73 1 1021471738 1021471738 780009474 7 #
face $205 -1 $-1 $206 $207 $22 $-1 $208 reversed single #
loop $-1 -1 $-1 $-1 $209 $73 #
plane-surface $-1 -1 $-1 0 -2.5399999999999996 0 0 1 0 0 0 1 forward_v I I I I #
coedge $-1 -1 $-1 $210 $211 $212 $213 forward $74 $-1 #
coedge $-1 -1 $-1 $214 $76 $215 $216 forward $48 $-1 #
coedge $-1 -1 $-1 $76 $214 $217 $218 forward $48 $-1 #
coedge $-1 -1 $-1 $219 $220 $76 $127 reversed $221 $-1 #
edge $-1 -1 $-1 $222 -2.5399999999999996 $223 2.5399999999999996 $126 $224 forward @7 unknown #
face $-1 -1 $-1 $225 $226 $24 $-1 $227 forward single #
loop $-1 -1 $-1 $-1 $228 $77 #
cone-surface $-1 -1 $-1 61.11239999999998 5.0799999999999992 37.150750902982978 0 -1 0 -41.191177215057486 0 -27.229291239357089 1 I I 0 1 49.377600000000001 forward I I I I #
coedge $-1 -1 $-1 $229 $230 $231 $232 forward $78 $-1 #
coedge $-1 -1 $-1 $233 $80 $230 $234 reversed $51 $-1 #
coedge $-1 -1 $-1 $80 $233 $235 $236 forward $51 $-1 #
coedge $-1 -1 $-1 $237 $231 $80 $135 reversed $238 $-1 #
edge $-1 -1 $-1 $239 -36.855399999999989 $240 -1.2954000000000008 $80 $241 forward @7 unknown #
model_id-kcp-attrib $-1 -1 $-1 $-1 $82 1 1021471738 1021471738 780009473 6 #
face $242 -1 $-1 $243 $244 $8 $-1 $245 forward single #
loop $-1 -1 $-1 $-1 $246 $82 #
plane-surface $-1 -1 $-1 53.340000000000003 2.5399999999999996 12.784493349501187 0.48810608796649785 0 -0.87278430719739786 -0.87278430719739786 0 -0.48810608796649785 forward_v I I I I #
coedge $-1 -1 $-1 $247 $142 $96 $171 forward $83 $-1 #
coedge $-1 -1 $-1 $87 $85 $248 $249 forward $55 $-1 #
coedge $-1 -1 $-1 $140 $250 $85 $143 reversed $83 $-1 #
edge $251 -1 $-1 $173 -2.5399999999999996 $252 2.5399999999999996 $85 $253 forward @7 unknown #
coedge $-1 -1 $-1 $248 $254 $86 $145 reversed $255 $-1 #
edge $256 -1 $-1 $147 10.547149399490788 $257 26.650749399490753 $86 $258 forward @7 unknown #
attrib_edge_convexity-kcp-attrib $-1 -1 $259 $-1 $88 3 #
vertex $-1 -1 $-1 $88 $260 #
straight-curve $-1 -1 $-1 0 2.5399999999999996 29.146098798981619 0 1 0 I I #
coedge $-1 -1 $-1 $90 $89 $261 $262 forward $38 $-1 #
coedge $-1 -1 $-1 $263 $264 $89 $151 forward $265 $-1 #
edge $266 -1 $-1 $267 -2.7977021874588266e-016 $159 1.1682035001626623 $89 $268 reversed @7 unknown #
coedge $-1 -1 $-1 $269 $270 $90 $153 reversed $271 $-1 #
edge $272 -1 $-1 $273 1.2953999999999972 $158 36.855399999999989 $90 $274 reversed @7 unknown #
coedge $-1 -1 $-1 $275 $91 $270 $276 forward $156 $-1 #
coedge $-1 -1 $-1 $91 $275 $263 $277 reversed $156 $-1 #
loop $-1 -1 $-1 $-1 $154 $278 #
attrib_edge_convexity-kcp-attrib $-1 -1 $279 $-1 $92 1 #
vertex $-1 -1 $-1 $153 $280 #
vertex $-1 -1 $-1 $151 $281 #
straight-curve $-1 -1 $-1 29.616800316917939 5.0799999999999992 59.116114378612707 0.87883008569878718 0 -0.47713486612347078 I I #
coedge $-1 -1 $-1 $282 $93 $283 $284 forward $27 $-1 #
coedge $-1 -1 $-1 $285 $286 $93 $163 reversed $287 $-1 #
edge $288 -1 $-1 $168 -0.78653676630275982 $289 11.429999999999971 $93 $290 forward @7 unknown #
coedge $-1 -1 $-1 $291 $94 $99 $175 forward $166 $-1 #
coedge $-1 -1 $-1 $94 $291 $285 $292 reversed $166 $-1 #
loop $-1 -1 $-1 $-1 $164 $293 #
attrib_edge_convexity-kcp-attrib $-1 -1 $294 $-1 $95 1 #
vertex $-1 -1 $-1 $163 $295 #
ellipse-curve $-1 -1 $-1 35.356800000000014 5.0799999999999992 45.249698798981584 0 -1 0 -35.356799999999993 0 -2.8627935222402806e-007 1 I I #
coedge $-1 -1 $-1 $96 $282 $296 $297 forward $27 $-1 #
edge $298 -1 $-1 $173 -3.7083999999999833 $299 11.430000000000021 $96 $300 forward @7 unknown #
attrib_edge_convexity-kcp-attrib $-1 -1 $301 $-1 $98 1 #
vertex $-1 -1 $-1 $98 $302 #
ellipse-curve $-1 -1 $-1 35.356800000000057 5.0799999999999992 29.146098798981619 0 -1 0 -20.015200000000046 0 -29.146098798981615 1 I I #
edge $303 -1 $-1 $102 -2.5399999999999996 $257 2.5399999999999996 $164 $304 reversed @7 unknown #
convexity-sys-attrib $-1 -1 $-1 $100 $62 #
point $-1 -1 $-1 6.3948846218409017e-014 5.0799999999999992 29.146098798981619 #
point $-1 -1 $-1 2.1316282072803006e-014 5.0799999999999992 45.249698798981584 #
face $-1 -1 $-1 $305 $306 $63 $-1 $110 reversed single #
loop $-1 -1 $-1 $-1 $307 $104 #
plane-surface $-1 -1 $-1 38.100000000000001 0 0 -1 0 0 0 0 1 forward_v I I I I #
face $-1 -1 $-1 $308 $309 $41 $-1 $181 reversed single #
loop $-1 -1 $-1 $-1 $310 $105 #
coedge $-1 -1 $-1 $311 $312 $310 $313 reversed $106 $-1 #
face $-1 -1 $-1 $314 $315 $30 $-1 $194 reversed single #
loop $-1 -1 $-1 $-1 $316 $108 #
coedge $-1 -1 $-1 $317 $318 $319 $320 forward $109 $-1 #
coedge $-1 -1 $-1 $321 $111 $318 $322 forward $66 $-1 #
coedge $-1 -1 $-1 $111 $321 $323 $324 forward $66 $-1 #
coedge $-1 -1 $-1 $325 $319 $111 $191 reversed $326 $-1 #
edge $-1 -1 $-1 $327 -5.0799999999999992 $328 0 $111 $329 forward @7 unknown #
face $-1 -1 $-1 $-1 $330 $21 $-1 $110 reversed single #
loop $-1 -1 $-1 $-1 $200 $112 #
plane-surface $-1 -1 $-1 -38.100000000000001 0 0 1 0 0 0 0 -1 forward_v I I I I #
coedge $-1 -1 $-1 $331 $332 $116 $199 forward $113 $-1 #
coedge $-1 -1 $-1 $197 $115 $333 $334 forward $69 $-1 #
coedge $-1 -1 $-1 $115 $196 $331 $335 reversed $69 $-1 #
coedge $-1 -1 $-1 $117 $116 $336 $337 reversed $44 $-1 #
edge $-1 -1 $-1 $338 0 $202 5.0799999999999992 $195 $339 forward @7 unknown #
coedge $-1 -1 $-1 $340 $333 $117 $201 forward $193 $-1 #
edge $-1 -1 $-1 $203 -5.0799999999999992 $341 0 $200 $342 forward @7 unknown #
vertex $-1 -1 $-1 $335 $343 #
vertex $-1 -1 $-1 $334 $344 #
ellipse-curve $-1 -1 $-1 -2.7431999999999519 -2.5399999999999996 -8.9539012010183754 0 1 0 -20.015200000000039 0 -29.146098798981619 1 I I #
model_id-kcp-attrib $-1 -1 $-1 $-1 $120 1 1021471738 1021471738 780009474 3 #
face $345 -1 $-1 $346 $347 $22 $-1 $348 reversed single #
loop $-1 -1 $-1 $-1 $349 $120 #
plane-surface $-1 -1 $-1 -38.100000000000001 0 0 1 0 0 0 0 -1 forward_v I I I I #
coedge $-1 -1 $-1 $350 $217 $351 $352 forward $121 $-1 #
coedge $-1 -1 $-1 $353 $123 $350 $354 forward $74 $-1 #
coedge $-1 -1 $-1 $123 $353 $355 $356 forward $74 $-1 #
coedge $-1 -1 $-1 $220 $219 $123 $213 reversed $221 $-1 #
edge $-1 -1 $-1 $357 -2.5399999999999996 $358 2.5399999999999996 $212 $359 forward @7 unknown #
coedge $-1 -1 $-1 $125 $124 $360 $361 forward $48 $-1 #
coedge $-1 -1 $-1 $362 $363 $124 $216 reversed $347 $-1 #
edge $-1 -1 $-1 $223 -38.100000000000001 $364 38.100000000000001 $215 $365 forward @7 unknown #
coedge $-1 -1 $-1 $209 $366 $125 $218 reversed $121 $-1 #
edge $-1 -1 $-1 $367 -38.100000000000001 $222 38.100000000000001 $217 $368 forward @7 unknown #
coedge $-1 -1 $-1 $212 $126 $366 $369 forward $221 $-1 #
coedge $-1 -1 $-1 $126 $212 $362 $370 reversed $221 $-1 #
loop $-1 -1 $-1 $-1 $219 $346 #
vertex $-1 -1 $-1 $127 $371 #
vertex $-1 -1 $-1 $127 $372 #
straight-curve $-1 -1 $-1 38.100000000000001 0 38.100000000000001 0 1 0 I I #
face $-1 -1 $-1 $373 $238 $24 $-1 $374 reversed single #
loop $-1 -1 $-1 $-1 $375 $128 #
plane-surface $-1 -1 $-1 19.921222784942543 5.0799999999999992 64.38004214234013 0.47713486612347078 0 0.87883008569878718 0.87883008569878718 0 -0.47713486612347078 forward_v I I I I #
coedge $-1 -1 $-1 $376 $377 $378 $379 forward $129 $-1 #
coedge $-1 -1 $-1 $380 $131 $377 $381 reversed $78 $-1 #
coedge $-1 -1 $-1 $131 $380 $132 $234 forward $78 $-1 #
coedge $-1 -1 $-1 $134 $378 $131 $232 reversed $238 $-1 #
edge $-1 -1 $-1 $240 -25.093678942552355 $382 -6.3484789425523118 $131 $383 forward @7 unknown #
coedge $-1 -1 $-1 $133 $132 $384 $385 forward $51 $-1 #
edge $-1 -1 $-1 $386 0 $240 5.0799999999999992 $230 $387 forward @7 unknown #
coedge $-1 -1 $-1 $388 $375 $133 $236 reversed $226 $-1 #
edge $-1 -1 $-1 $389 0 $239 5.0799999999999992 $133 $390 forward @7 unknown #
coedge $-1 -1 $-1 $378 $134 $375 $391 reversed $238 $-1 #
loop $-1 -1 $-1 $-1 $134 $225 #
vertex $-1 -1 $-1 $236 $392 #
vertex $-1 -1 $-1 $234 $393 #
straight-curve $-1 -1 $-1 35.483799999999988 0 19.075399999999995 0 0 -1 I I #
model_id-kcp-attrib $-1 -1 $-1 $-1 $137 1 1021471738 1021471738 780009473 7 #
face $394 -1 $-1 $395 $396 $8 $-1 $397 forward single #
loop $-1 -1 $-1 $-1 $398 $137 #
plane-surface $-1 -1 $-1 76.199999999999989 2.5399999999999996 38.091186699002364 1 0 0 0 0 -1 forward_v I I I I #
coedge $-1 -1 $-1 $399 $296 $400 $401 forward $138 $-1 #
coedge $-1 -1 $-1 $250 $140 $402 $403 forward $83 $-1 #
coedge $-1 -1 $-1 $404 $144 $141 $249 reversed $255 $-1 #
edge $-1 -1 $-1 $252 -9.0941954280208906e-017 $147 0.96903903779122047 $141 $405 forward @7 unknown #
coedge $-1 -1 $-1 $142 $247 $404 $406 reversed $83 $-1 #
attrib_edge_convexity-kcp-attrib $-1 -1 $407 $-1 $143 1 #
vertex $-1 -1 $-1 $249 $408 #
straight-curve $-1 -1 $-1 15.341600000000014 2.5399999999999996 0 0 -1 0 I I #
coedge $-1 -1 $-1 $144 $409 $291 $410 reversed $255 $-1 #
loop $-1 -1 $-1 $411 $404 $412 #
model_id-kcp-attrib $-1 -1 $413 $-1 $145 1 1021471738 1021471738 780009473 17 #
vertex $-1 -1 $-1 $410 $414 #
straight-curve $-1 -1 $-1 0 0 18.598949399490831 0 0 1 I I #
convexity-sys-attrib $-1 -1 $-1 $146 $88 #
point $-1 -1 $-1 6.3948846218409017e-014 0 29.146098798981619 #
coedge $-1 -1 $-1 $415 $416 $149 $262 reversed $417 $-1 #
edge $418 -1 $-1 $267 6.3484789425523118 $273 25.093678942552351 $149 $419 reversed @7 unknown #
coedge $-1 -1 $-1 $420 $150 $155 $277 forward $265 $-1 #
coedge $-1 -1 $-1 $150 $420 $415 $421 reversed $265 $-1 #
loop $-1 -1 $-1 $-1 $263 $422 #
attrib_edge_convexity-kcp-attrib $-1 -1 $423 $-1 $151 1 #
vertex $-1 -1 $-1 $262 $424 #
ellipse-curve $-1 -1 $-1 61.11239999999998 5.0799999999999992 37.150750902982978 0 -1 0 -41.191177215057486 0 -27.229291239357089 1 I I #
coedge $-1 -1 $-1 $425 $152 $416 $426 forward $271 $-1 #
coedge $-1 -1 $-1 $152 $425 $154 $276 reversed $271 $-1 #
loop $-1 -1 $-1 $-1 $269 $427 #
attrib_edge_convexity-kcp-attrib $-1 -1 $428 $-1 $153 1 #
vertex $-1 -1 $-1 $153 $429 #
straight-curve $-1 -1 $-1 35.483799999999988 5.0799999999999992 19.075399999999995 0 0 -1 I I #
coedge $-1 -1 $-1 $155 $154 $430 $431 forward $156 $-1 #
edge $-1 -1 $-1 $158 -2.5399999999999996 $432 2.5399999999999996 $270 $433 forward @7 unknown #
edge $-1 -1 $-1 $159 -2.5399999999999996 $434 2.5399999999999996 $263 $435 forward @7 unknown #
face $436 -1 $-1 $427 $156 $8 $-1 $437 forward single #
convexity-sys-attrib $-1 -1 $-1 $157 $92 #
point $-1 -1 $-1 35.483799999999988 5.0799999999999992 55.930799999999984 #
point $-1 -1 $-1 19.921222784942543 5.0799999999999992 64.38004214234013 #
coedge $-1 -1 $-1 $170 $161 $438 $439 forward $27 $-1 #
coedge $-1 -1 $-1 $440 $441 $161 $284 reversed $396 $-1 #
edge $442 -1 $-1 $289 -18.40572796982098 $443 33.986954536563353 $161 $444 reversed @7 unknown #
coedge $-1 -1 $-1 $445 $162 $165 $292 forward $287 $-1 #
coedge $-1 -1 $-1 $162 $445 $440 $446 reversed $287 $-1 #
loop $-1 -1 $-1 $-1 $445 $395 #
attrib_edge_convexity-kcp-attrib $-1 -1 $447 $-1 $163 1 #
vertex $-1 -1 $-1 $284 $448 #
straight-curve $-1 -1 $-1 19.049999999999997 5.0799999999999992 76.199999999999989 1 0 0 I I #
coedge $-1 -1 $-1 $165 $164 $254 $410 forward $166 $-1 #
edge $-1 -1 $-1 $168 -2.5399999999999996 $449 2.5399999999999996 $285 $450 reversed @7 unknown #
face $451 -1 $-1 $452 $166 $8 $-1 $453 forward single #
convexity-sys-attrib $-1 -1 $-1 $167 $95 #
point $-1 -1 $-1 18.263463233697237 5.0799999999999992 76.199999999999989 #
coedge $-1 -1 $-1 $246 $402 $170 $297 reversed $138 $-1 #
edge $454 -1 $-1 $455 -52.589290288675208 $299 -0.20521369269273332 $170 $456 reversed @7 unknown #
attrib_edge_convexity-kcp-attrib $-1 -1 $457 $-1 $171 1 #
vertex $-1 -1 $-1 $171 $458 #
straight-curve $-1 -1 $-1 19.049999999999997 5.0799999999999992 0 1 0 0 I I #
convexity-sys-attrib $-1 -1 $-1 $172 $98 #
point $-1 -1 $-1 15.341600000000014 5.0799999999999992 0 #
attrib_edge_convexity-kcp-attrib $-1 -1 $459 $-1 $175 3 #
straight-curve $-1 -1 $-1 0 2.5399999999999996 45.249698798981584 0 1 0 I I #
face $-1 -1 $-1 $460 $461 $63 $-1 $70 reversed single #
loop $-1 -1 $-1 $-1 $462 $179 #
coedge $-1 -1 $-1 $463 $464 $465 $466 forward $180 $-1 #
face $-1 -1 $-1 $467 $468 $41 $-1 $110 reversed single #
loop $-1 -1 $-1 $-1 $469 $182 #
coedge $-1 -1 $-1 $470 $471 $184 $313 forward $183 $-1 #
coedge $-1 -1 $-1 $472 $184 $473 $474 reversed $106 $-1 #
coedge $-1 -1 $-1 $184 $472 $469 $475 reversed $106 $-1 #
edge $-1 -1 $-1 $476 -38.824405931945428 $477 13.568276574438904 $310 $478 forward @7 unknown #
face $-1 -1 $-1 $-1 $326 $30 $-1 $479 reversed single #
loop $-1 -1 $-1 $-1 $480 $185 #
coedge $-1 -1 $-1 $323 $481 $325 $482 forward $186 $-1 #
coedge $-1 -1 $-1 $318 $187 $483 $484 reversed $109 $-1 #
coedge $-1 -1 $-1 $187 $317 $188 $322 reversed $109 $-1 #
coedge $-1 -1 $-1 $190 $485 $187 $320 reversed $326 $-1 #
edge $-1 -1 $-1 $328 -1.0662017362514611 $486 -1.0048176528420281e-016 $187 $487 forward @7 unknown #
coedge $-1 -1 $-1 $189 $188 $488 $489 forward $66 $-1 #
edge $-1 -1 $-1 $328 19.836536766302761 $490 38.100000000000001 $318 $491 forward @7 unknown #
coedge $-1 -1 $-1 $481 $316 $189 $324 reversed $186 $-1 #
edge $-1 -1 $-1 $492 -38.100000000000001 $327 -19.836536766302761 $323 $493 forward @7 unknown #
coedge $-1 -1 $-1 $485 $190 $316 $482 reversed $326 $-1 #
loop $-1 -1 $-1 $-1 $319 $314 #
vertex $-1 -1 $-1 $482 $494 #
vertex $-1 -1 $-1 $322 $495 #
straight-curve $-1 -1 $-1 -19.836536766302732 2.5399999999999996 38.100000000000001 0 1 0 I I #
loop $-1 -1 $-1 $-1 $336 $192 #
coedge $-1 -1 $-1 $496 $195 $197 $335 forward $113 $-1 #
coedge $-1 -1 $-1 $195 $496 $497 $498 forward $113 $-1 #
coedge $-1 -1 $-1 $200 $499 $196 $334 reversed $193 $-1 #
edge $-1 -1 $-1 $203 8.9539012010183789 $500 38.100000000000001 $333 $501 forward @7 unknown #
edge $-1 -1 $-1 $202 22.758399999999988 $500 38.100000000000001 $197 $502 forward @7 unknown #
coedge $-1 -1 $-1 $497 $503 $198 $337 forward $330 $-1 #
edge $-1 -1 $-1 $341 -0.96903903779122058 $338 0 $336 $504 forward @7 unknown #
vertex $-1 -1 $-1 $337 $505 #
straight-curve $-1 -1 $-1 -22.758399999999984 2.5399999999999996 -38.100000000000001 0 -1 0 I I #
coedge $-1 -1 $-1 $499 $200 $503 $506 forward $193 $-1 #
vertex $-1 -1 $-1 $506 $507 #
straight-curve $-1 -1 $-1 -38.100000000000001 2.5399999999999996 -8.9539012010183754 0 1 0 I I #
point $-1 -1 $-1 -22.758399999999988 -2.5399999999999996 -38.099999999999994 #
point $-1 -1 $-1 -38.099999999999937 -2.5399999999999996 -8.9539012010183789 #
model_id-kcp-attrib $-1 -1 $-1 $-1 $206 1 1021471738 1021471738 780009474 2 #
face $508 -1 $-1 $-1 $221 $22 $-1 $509 reversed single #
loop $-1 -1 $-1 $-1 $362 $206 #
plane-surface $-1 -1 $-1 0 2.5399999999999996 0 0 -1 0 0 0 -1 forward_v I I I I #
coedge $-1 -1 $-1 $510 $360 $363 $511 forward $207 $-1 #
coedge $-1 -1 $-1 $366 $209 $210 $354 reversed $121 $-1 #
coedge $-1 -1 $-1 $360 $510 $209 $352 reversed $207 $-1 #
edge $-1 -1 $-1 $367 -38.100000000000001 $512 38.100000000000001 $351 $513 forward @7 unknown #
coedge $-1 -1 $-1 $211 $210 $510 $514 forward $74 $-1 #
edge $-1 -1 $-1 $358 -38.100000000000001 $512 38.100000000000001 $350 $515 forward @7 unknown #
coedge $-1 -1 $-1 $363 $362 $211 $356 reversed $347 $-1 #
edge $-1 -1 $-1 $516 -38.100000000000001 $357 38.100000000000001 $355 $517 forward @7 unknown #
vertex $-1 -1 $-1 $213 $518 #
vertex $-1 -1 $-1 $369 $519 #
straight-curve $-1 -1 $-1 38.100000000000001 0 -38.100000000000001 0 -1 0 I I #
coedge $-1 -1 $-1 $349 $351 $214 $361 reversed $207 $-1 #
edge $-1 -1 $-1 $364 -2.5399999999999996 $367 2.5399999999999996 $360 $520 forward @7 unknown #
coedge $-1 -1 $-1 $355 $215 $220 $370 forward $347 $-1 #
coedge $-1 -1 $-1 $215 $355 $349 $511 reversed $347 $-1 #
vertex $-1 -1 $-1 $216 $521 #
straight-curve $-1 -1 $-1 0 2.5399999999999996 38.100000000000001 -1 0 0 I I #
coedge $-1 -1 $-1 $217 $350 $219 $369 reversed $121 $-1 #
vertex $-1 -1 $-1 $361 $522 #
straight-curve $-1 -1 $-1 0 -2.5399999999999996 38.100000000000001 1 0 0 I I #
edge $-1 -1 $-1 $222 -38.100000000000001 $358 38.100000000000001 $219 $523 forward @7 unknown #
edge $-1 -1 $-1 $223 -38.100000000000001 $357 38.100000000000001 $220 $524 forward @7 unknown #
point $-1 -1 $-1 38.100000000000001 -2.5399999999999996 38.100000000000001 #
point $-1 -1 $-1 38.100000000000001 2.5399999999999996 38.100000000000001 #
face $-1 -1 $-1 $-1 $525 $24 $-1 $526 forward single #
plane-surface $-1 -1 $-1 24.202721451663486 8.8817841970012523e-016 37.385561057632039 4.0897789456430012e-032 1 1.1340489490767479e-032 0 -1.1340489490767479e-032 1 forward_v I I I I #
coedge $-1 -1 $-1 $235 $527 $237 $391 forward $226 $-1 #
coedge $-1 -1 $-1 $528 $228 $527 $529 reversed $129 $-1 #
coedge $-1 -1 $-1 $228 $528 $229 $381 forward $129 $-1 #
coedge $-1 -1 $-1 $231 $237 $228 $379 reversed $238 $-1 #
edge $-1 -1 $-1 $382 -2.7977021874588266e-016 $530 1.1682035001626625 $228 $531 forward @7 unknown #
coedge $-1 -1 $-1 $230 $229 $532 $533 forward $78 $-1 #
edge $-1 -1 $-1 $534 0 $382 5.0799999999999992 $377 $535 forward @7 unknown #
vertex $-1 -1 $-1 $381 $536 #
straight-curve $-1 -1 $-1 14.650609841808437 0 6.3825581267506619 -0.83021665359971919 0 -0.55744085613245475 I I #
coedge $-1 -1 $-1 $532 $537 $233 $385 reversed $525 $-1 #
edge $-1 -1 $-1 $386 1.2953999999999972 $389 36.855399999999989 $233 $538 reversed @7 unknown #
vertex $-1 -1 $-1 $533 $539 #
straight-curve $-1 -1 $-1 35.483799999999988 5.0799999999999992 20.370799999999996 0 -1 0 I I #
coedge $-1 -1 $-1 $527 $235 $537 $540 forward $226 $-1 #
vertex $-1 -1 $-1 $540 $541 #
straight-curve $-1 -1 $-1 35.483799999999988 5.0799999999999992 55.930799999999984 0 -1 0 I I #
edge $-1 -1 $-1 $530 -11.032368702154876 $239 6.675920383878303 $375 $542 forward @7 unknown #
point $-1 -1 $-1 35.483799999999988 0 55.930799999999984 #
point $-1 -1 $-1 35.483799999999988 0 20.370799999999996 #
model_id-kcp-attrib $-1 -1 $-1 $-1 $243 1 1021471738 1021471738 780009473 8 #
face $543 -1 $-1 $412 $287 $8 $-1 $544 reversed single #
loop $-1 -1 $-1 $-1 $440 $243 #
plane-surface $-1 -1 $-1 53.339999999999989 2.5399999999999996 63.406693349501175 0.48836234521642929 0 0.8726409455066324 0.8726409455066324 0 -0.48836234521642929 forward_v I I I I #
coedge $-1 -1 $-1 $545 $438 $441 $546 forward $244 $-1 #
coedge $-1 -1 $-1 $402 $246 $547 $548 forward $138 $-1 #
coedge $-1 -1 $-1 $438 $545 $246 $401 reversed $244 $-1 #
edge $549 -1 $-1 $455 -2.5399999999999996 $550 2.5399999999999996 $246 $551 forward @7 unknown #
coedge $-1 -1 $-1 $296 $399 $247 $403 reversed $138 $-1 #
edge $552 -1 $-1 $299 -2.5399999999999996 $553 2.5399999999999996 $247 $554 forward @7 unknown #
coedge $-1 -1 $-1 $547 $248 $250 $406 forward $255 $-1 #
ellipse-curve $-1 -1 $-1 35.356800000000057 0 29.146098798981619 0 1 0 -20.015200000000046 0 -29.146098798981615 1 I I #
edge $555 -1 $-1 $252 -3.7083999999999833 $553 11.430000000000021 $250 $556 reversed @7 unknown #
convexity-sys-attrib $-1 -1 $-1 $251 $143 #
point $-1 -1 $-1 15.341600000000014 0 0 #
coedge $-1 -1 $-1 $254 $557 $445 $558 reversed $255 $-1 #
edge $-1 -1 $-1 $257 8.0968682749578058e-009 $449 1.0662017443483294 $291 $559 forward @7 unknown #
loop $-1 -1 $-1 $-1 $560 $412 #
face $561 -1 $-1 $293 $255 $8 $-1 $562 forward single #
attrib_edge_convexity-kcp-attrib $-1 -1 $563 $256 $145 1 #
point $-1 -1 $-1 2.1316282072803006e-014 0 45.249698798981584 #
coedge $-1 -1 $-1 $564 $261 $264 $421 forward $417 $-1 #
coedge $-1 -1 $-1 $261 $564 $269 $426 reversed $417 $-1 #
loop $-1 -1 $-1 $-1 $415 $452 #
attrib_edge_convexity-kcp-attrib $-1 -1 $565 $-1 $262 1 #
straight-curve $-1 -1 $-1 14.650609841808437 5.0799999999999992 6.3825581267506619 -0.83021665359971919 0 -0.55744085613245475 I I #
coedge $-1 -1 $-1 $264 $263 $566 $567 reversed $265 $-1 #
edge $-1 -1 $-1 $267 -2.5399999999999996 $568 2.5399999999999996 $415 $569 forward @7 unknown #
face $570 -1 $-1 $278 $265 $8 $-1 $571 reversed single #
convexity-sys-attrib $-1 -1 $-1 $266 $151 #
point $-1 -1 $-1 19.921222784942501 5.0799999999999992 9.9214596636258818 #
coedge $-1 -1 $-1 $270 $269 $572 $573 forward $271 $-1 #
edge $-1 -1 $-1 $273 -2.5399999999999996 $574 2.5399999999999996 $269 $575 reversed @7 unknown #
face $576 -1 $-1 $-1 $271 $8 $-1 $577 forward single #
convexity-sys-attrib $-1 -1 $-1 $272 $153 #
point $-1 -1 $-1 35.483799999999988 5.0799999999999992 20.370799999999992 #
coedge $-1 -1 $-1 $572 $566 $275 $431 reversed $411 $-1 #
edge $-1 -1 $-1 $432 -6.675920383878303 $434 11.032368702154876 $430 $578 reversed @7 unknown #
vertex $-1 -1 $-1 $573 $579 #
straight-curve $-1 -1 $-1 35.483799999999988 2.5399999999999996 55.930799999999991 0 -1 0 I I #
vertex $-1 -1 $-1 $431 $580 #
straight-curve $-1 -1 $-1 19.92122278494255 2.5399999999999996 64.380042142340159 0 -1 0 I I #
model_id-kcp-attrib $-1 -1 $-1 $-1 $278 1 1021471738 1021471738 780009473 14 #
plane-surface $-1 -1 $-1 27.702511392471262 2.5399999999999996 60.155421071170075 -0.47713486612347078 0 -0.87883008569878718 -0.87883008569878718 0 0.47713486612347078 forward_v I I I I #
coedge $-1 -1 $-1 $398 $400 $282 $439 reversed $244 $-1 #
edge $581 -1 $-1 $443 -31.56779334950118 $455 -6.5233933495011982 $282 $582 reversed @7 unknown #
coedge $-1 -1 $-1 $583 $283 $286 $446 forward $396 $-1 #
coedge $-1 -1 $-1 $283 $583 $398 $546 reversed $396 $-1 #
attrib_edge_convexity-kcp-attrib $-1 -1 $584 $-1 $284 1 #
vertex $-1 -1 $-1 $439 $585 #
straight-curve $-1 -1 $-1 46.54159185832242 5.0799999999999992 67.211335523242596 -0.8726409455066324 0 0.48836234521642929 I I #
coedge $-1 -1 $-1 $286 $285 $409 $558 forward $287 $-1 #
edge $586 -1 $-1 $289 -2.5399999999999996 $587 2.5399999999999996 $440 $588 reversed @7 unknown #
convexity-sys-attrib $-1 -1 $-1 $288 $163 #
point $-1 -1 $-1 30.479999999999968 5.0799999999999992 76.199999999999989 #
vertex $-1 -1 $-1 $292 $589 #
straight-curve $-1 -1 $-1 18.263463233697241 2.5399999999999996 76.199999999999989 0 1 0 I I #
model_id-kcp-attrib $-1 -1 $-1 $-1 $293 1 1021471738 1021471738 780009473 11 #
face $590 -1 $-1 $422 $417 $8 $-1 $591 forward single #
cone-surface $-1 -1 $-1 35.356800000000014 2.5399999999999996 45.249698798981584 0 1 0 -35.356799999999993 0 -2.8627935222402806e-007 1 I I 0 1 35.356799999999993 forward I I I I #
attrib_edge_convexity-kcp-attrib $-1 -1 $592 $-1 $297 1 #
vertex $-1 -1 $-1 $297 $593 #
straight-curve $-1 -1 $-1 30.300892709395772 5.0799999999999992 -0.10016605273740975 0.87278430719739786 0 0.48810608796649785 I I #
convexity-sys-attrib $-1 -1 $-1 $298 $171 #
point $-1 -1 $-1 30.480000000000018 5.0799999999999992 0 #
convexity-sys-attrib $-1 -1 $-1 $303 $175 #
face $-1 -1 $-1 $594 $595 $63 $-1 $114 reversed single #
loop $-1 -1 $-1 $-1 $596 $305 #
coedge $-1 -1 $-1 $597 $598 $599 $600 forward $306 $-1 #
coedge $-1 -1 $-1 $601 $307 $602 $603 forward $180 $-1 #
coedge $-1 -1 $-1 $307 $601 $597 $604 reversed $180 $-1 #
coedge $-1 -1 $-1 $599 $605 $307 $466 reversed $606 $-1 #
edge $-1 -1 $-1 $607 -1.2699999999999998 $608 3.8099999999999996 $307 $609 forward @7 unknown #
face $-1 -1 $-1 $-1 $610 $41 $-1 $67 forward single #
loop $-1 -1 $-1 $-1 $611 $308 #
coedge $-1 -1 $-1 $612 $613 $312 $475 forward $309 $-1 #
coedge $-1 -1 $-1 $471 $310 $613 $614 reversed $183 $-1 #
coedge $-1 -1 $-1 $310 $470 $615 $616 reversed $183 $-1 #
coedge $-1 -1 $-1 $312 $311 $611 $617 reversed $106 $-1 #
coedge $-1 -1 $-1 $615 $618 $311 $474 forward $610 $-1 #
edge $-1 -1 $-1 $619 -1.2699999999999998 $476 3.8099999999999996 $473 $620 forward @7 unknown #
edge $-1 -1 $-1 $477 -3.8099999999999996 $621 1.2699999999999998 $469 $622 forward @7 unknown #
vertex $-1 -1 $-1 $616 $623 #
vertex $-1 -1 $-1 $313 $624 #
straight-curve $-1 -1 $-1 26.259766301186133 -2.5399999999999996 19.139622067440484 0.87264094550663229 0 -0.48836234521642929 I I #
cone-surface $-1 -1 $-1 -2.7431999999999874 2.5399999999999996 7.1496987989815821 0 1 0 -35.356799999999993 0 -3.5527136788005009e-015 1 I I 0 1 35.356799999999993 forward I I I I #
coedge $-1 -1 $-1 $625 $483 $485 $626 reversed $315 $-1 #
coedge $-1 -1 $-1 $316 $323 $625 $627 forward $186 $-1 #
edge $-1 -1 $-1 $628 1.0048176528420281e-016 $327 1.0662017362514611 $316 $629 forward @7 unknown #
coedge $-1 -1 $-1 $480 $488 $317 $484 forward $315 $-1 #
edge $-1 -1 $-1 $490 -38.100000000000001 $486 -7.1496987989815821 $317 $630 forward @7 unknown #
coedge $-1 -1 $-1 $319 $325 $480 $626 forward $326 $-1 #
vertex $-1 -1 $-1 $320 $631 #
ellipse-curve $-1 -1 $-1 -2.7431999999999874 2.5399999999999996 7.1496987989815821 0 -1 0 -35.356799999999993 0 -3.5527136788005009e-015 1 I I #
coedge $-1 -1 $-1 $483 $625 $321 $489 reversed $315 $-1 #
edge $-1 -1 $-1 $490 -2.5399999999999996 $492 2.5399999999999996 $488 $632 forward @7 unknown #
vertex $-1 -1 $-1 $322 $633 #
straight-curve $-1 -1 $-1 0 2.5399999999999996 38.100000000000001 -1 0 0 I I #
vertex $-1 -1 $-1 $489 $634 #
straight-curve $-1 -1 $-1 0 -2.5399999999999996 38.100000000000001 1 0 0 I I #
point $-1 -1 $-1 -19.836536766302761 -2.5399999999999996 38.099999999999987 #
point $-1 -1 $-1 -19.836536766302761 2.5399999999999996 38.099999999999987 #
coedge $-1 -1 $-1 $332 $331 $499 $635 forward $113 $-1 #
coedge $-1 -1 $-1 $503 $336 $332 $498 reversed $330 $-1 #
edge $-1 -1 $-1 $636 -38.100000000000001 $338 -22.758399999999988 $497 $637 forward @7 unknown #
coedge $-1 -1 $-1 $333 $340 $496 $635 reversed $193 $-1 #
vertex $-1 -1 $-1 $635 $638 #
straight-curve $-1 -1 $-1 -38.100000000000001 -2.5399999999999996 0 0 0 -1 I I #
straight-curve $-1 -1 $-1 0 -2.5399999999999996 -38.100000000000001 -1 0 0 I I #
coedge $-1 -1 $-1 $336 $497 $340 $506 reversed $330 $-1 #
ellipse-curve $-1 -1 $-1 -2.7431999999999519 2.5399999999999996 -8.9539012010183754 0 -1 0 -20.015200000000039 0 -29.146098798981619 1 I I #
point $-1 -1 $-1 -22.758399999999988 2.5399999999999996 -38.099999999999994 #
edge $-1 -1 $-1 $341 8.9539012010183789 $636 38.100000000000001 $503 $630 forward @7 unknown #
point $-1 -1 $-1 -38.099999999999937 2.5399999999999996 -8.9539012010183789 #
model_id-kcp-attrib $-1 -1 $-1 $-1 $346 1 1021471738 1021471738 780009474 5 #
plane-surface $-1 -1 $-1 38.100000000000001 0 0 -1 0 0 0 0 1 forward_v I I I I #
coedge $-1 -1 $-1 $351 $349 $353 $514 reversed $207 $-1 #
edge $-1 -1 $-1 $364 -38.100000000000001 $516 38.100000000000001 $363 $639 forward @7 unknown #
vertex $-1 -1 $-1 $514 $640 #
straight-curve $-1 -1 $-1 -38.100000000000001 -2.5399999999999996 0 0 0 -1 I I #
edge $-1 -1 $-1 $512 -2.5399999999999996 $516 2.5399999999999996 $510 $641 forward @7 unknown #
straight-curve $-1 -1 $-1 0 -2.5399999999999996 -38.100000000000001 -1 0 0 I I #
vertex $-1 -1 $-1 $356 $642 #
straight-curve $-1 -1 $-1 0 2.5399999999999996 -38.100000000000001 1 0 0 I I #
point $-1 -1 $-1 38.100000000000001 2.5399999999999996 -38.100000000000001 #
point $-1 -1 $-1 38.100000000000001 -2.5399999999999996 -38.100000000000001 #
straight-curve $-1 -1 $-1 -38.100000000000001 0 38.100000000000001 0 -1 0 I I #
point $-1 -1 $-1 -38.100000000000001 2.5399999999999996 38.100000000000001 #
point $-1 -1 $-1 -38.100000000000001 -2.5399999999999996 38.100000000000001 #
straight-curve $-1 -1 $-1 38.100000000000001 -2.5399999999999996 0 0 0 -1 I I #
straight-curve $-1 -1 $-1 38.100000000000001 2.5399999999999996 0 0 0 -1 I I #
loop $-1 -1 $-1 $-1 $537 $373 #
plane-surface $-1 -1 $-1 24.202721451663486 5.0800000000000001 37.385561057632039 4.0897789456430012e-032 1 1.1340489490767479e-032 0 -1.1340489490767479e-032 1 forward_v I I I I #
coedge $-1 -1 $-1 $375 $388 $376 $529 forward $226 $-1 #
coedge $-1 -1 $-1 $377 $376 $643 $644 reversed $129 $-1 #
edge $-1 -1 $-1 $645 0 $530 5.0799999999999992 $527 $646 forward @7 unknown #
vertex $-1 -1 $-1 $529 $647 #
ellipse-curve $-1 -1 $-1 61.11239999999998 0 37.150750902982978 0 1 0 -41.191177215057486 0 -27.229291239357089 1 I I #
coedge $-1 -1 $-1 $643 $384 $380 $533 reversed $525 $-1 #
edge $-1 -1 $-1 $534 6.3484789425523118 $386 25.093678942552351 $380 $648 reversed @7 unknown #
vertex $-1 -1 $-1 $644 $649 #
straight-curve $-1 -1 $-1 19.921222784942501 5.0799999999999992 9.9214596636258818 0 -1 0 I I #
point $-1 -1 $-1 19.921222784942501 0 9.9214596636258818 #
coedge $-1 -1 $-1 $384 $643 $388 $540 reversed $525 $-1 #
straight-curve $-1 -1 $-1 35.483799999999988 5.0799999999999992 19.075399999999995 0 0 -1 I I #
point $-1 -1 $-1 35.483799999999988 5.0799999999999992 20.370799999999992 #
edge $-1 -1 $-1 $389 -6.675920383878303 $645 11.032368702154876 $388 $650 reversed @7 unknown #
point $-1 -1 $-1 35.483799999999988 5.0799999999999992 55.930799999999984 #
straight-curve $-1 -1 $-1 29.616800316917939 0 59.116114378612707 0.87883008569878718 0 -0.47713486612347078 I I #
model_id-kcp-attrib $-1 -1 $-1 $-1 $395 1 1021471738 1021471738 780009473 9 #
plane-surface $-1 -1 $-1 38.099999999999994 2.5399999999999996 76.199999999999989 0 0 -1 1 0 0 forward_v I I I I #
coedge $-1 -1 $-1 $400 $398 $651 $652 forward $244 $-1 #
edge $653 -1 $-1 $443 -2.5399999999999996 $654 2.5399999999999996 $398 $655 forward @7 unknown #
coedge $-1 -1 $-1 $651 $404 $399 $548 reversed $255 $-1 #
edge $656 -1 $-1 $550 -52.589290288675208 $553 -0.20521369269273421 $399 $657 forward @7 unknown #
attrib_edge_convexity-kcp-attrib $-1 -1 $658 $-1 $401 1 #
vertex $-1 -1 $-1 $548 $659 #
straight-curve $-1 -1 $-1 76.199999999999989 2.5399999999999996 25.568986699002377 0 -1 0 I I #
attrib_edge_convexity-kcp-attrib $-1 -1 $660 $-1 $403 1 #
vertex $-1 -1 $-1 $406 $661 #
straight-curve $-1 -1 $-1 30.480000000000018 2.5399999999999996 0 0 -1 0 I I #
model_id-kcp-attrib $-1 -1 $662 $-1 $406 1 1021471738 1021471738 780009473 20 #
straight-curve $-1 -1 $-1 19.049999999999997 0 0 -1 0 0 I I #
coedge $-1 -1 $-1 $409 $651 $583 $663 reversed $255 $-1 #
edge $664 -1 $-1 $449 -0.78653676630275626 $587 11.430000000000007 $445 $665 reversed @7 unknown #
ellipse-curve $-1 -1 $-1 35.356800000000014 0 45.249698798981584 0 1 0 -35.356799999999993 0 -2.8627935222402806e-007 1 I I #
coedge $-1 -1 $-1 $566 $572 $564 $666 reversed $411 $-1 #
model_id-kcp-attrib $-1 -1 $-1 $-1 $412 1 1021471738 1021471738 780009473 10 #
plane-surface $-1 -1 $-1 0 0 0 0 -1 0 1 0 0 forward_v I I I I #
convexity-sys-attrib $-1 -1 $-1 $413 $145 #
coedge $-1 -1 $-1 $416 $415 $560 $666 forward $417 $-1 #
convexity-sys-attrib $-1 -1 $-1 $418 $262 #
coedge $-1 -1 $-1 $430 $560 $420 $567 forward $411 $-1 #
edge $-1 -1 $-1 $568 -2.7977021874588266e-016 $434 1.1682035001626623 $566 $667 reversed @7 unknown #
vertex $-1 -1 $-1 $567 $668 #
straight-curve $-1 -1 $-1 19.921222784942493 2.5399999999999996 9.9214596636258818 0 -1 0 I I #
model_id-kcp-attrib $-1 -1 $-1 $-1 $422 1 1021471738 1021471738 780009473 13 #
cone-surface $-1 -1 $-1 61.11239999999998 2.5399999999999996 37.150750902982978 0 1 0 -41.191177215057486 0 -27.229291239357089 1 I I 0 1 49.377600000000001 forward I I I I #
coedge $-1 -1 $-1 $560 $430 $425 $573 reversed $411 $-1 #
edge $-1 -1 $-1 $574 1.2953999999999972 $432 36.855399999999989 $572 $669 reversed @7 unknown #
vertex $-1 -1 $-1 $573 $670 #
straight-curve $-1 -1 $-1 35.483799999999988 2.5399999999999996 20.370799999999996 0 1 0 I I #
model_id-kcp-attrib $-1 -1 $-1 $-1 $427 1 1021471738 1021471738 780009473 15 #
plane-surface $-1 -1 $-1 35.483799999999988 2.5399999999999996 38.15079999999999 -1 0 0 0 0 1 forward_v I I I I #
straight-curve $-1 -1 $-1 29.616800316917939 0 59.116114378612707 0.87883008569878718 0 -0.47713486612347078 I I #
point $-1 -1 $-1 35.483799999999988 0 55.930799999999984 #
point $-1 -1 $-1 19.921222784942543 0 64.38004214234013 #
attrib_edge_convexity-kcp-attrib $-1 -1 $671 $-1 $439 1 #
straight-curve $-1 -1 $-1 76.199999999999989 5.0799999999999992 19.045593349501182 0 0 1 I I #
coedge $-1 -1 $-1 $441 $440 $557 $663 forward $396 $-1 #
convexity-sys-attrib $-1 -1 $-1 $442 $284 #
point $-1 -1 $-1 76.199999999999989 5.0799999999999992 50.613386699002362 #
attrib_edge_convexity-kcp-attrib $-1 -1 $672 $-1 $446 1 #
vertex $-1 -1 $-1 $663 $673 #
straight-curve $-1 -1 $-1 30.480000000000004 2.5399999999999996 76.199999999999989 0 1 0 I I #
point $-1 -1 $-1 18.263463233697241 0 76.199999999999989 #
model_id-kcp-attrib $-1 -1 $-1 $-1 $452 1 1021471738 1021471738 780009473 12 #
plane-surface $-1 -1 $-1 27.702511392471266 2.5399999999999996 15.146129831812953 -0.55744085613245475 0 0.83021665359971919 0.83021665359971908 0 0.55744085613245464 forward_v I I I I #
convexity-sys-attrib $-1 -1 $-1 $454 $297 #
point $-1 -1 $-1 76.199999999999989 5.0799999999999992 25.56898669900238 #
face $-1 -1 $-1 $-1 $606 $63 $-1 $674 reversed single #
loop $-1 -1 $-1 $-1 $675 $460 #
coedge $-1 -1 $-1 $676 $602 $605 $677 forward $461 $-1 #
coedge $-1 -1 $-1 $598 $462 $464 $604 forward $306 $-1 #
coedge $-1 -1 $-1 $462 $597 $678 $679 reversed $306 $-1 #
coedge $-1 -1 $-1 $680 $465 $462 $600 reversed $606 $-1 #
edge $-1 -1 $-1 $681 -12.623729186183864 $607 39.760347409798626 $462 $682 forward @7 unknown #
coedge $-1 -1 $-1 $464 $463 $683 $684 reversed $180 $-1 #
coedge $-1 -1 $-1 $596 $676 $463 $603 reversed $461 $-1 #
edge $-1 -1 $-1 $608 12.531013300997625 $685 38.100000000000001 $463 $686 forward @7 unknown #
edge $-1 -1 $-1 $607 12.531013300997625 $687 38.100000000000001 $464 $688 forward @7 unknown #
coedge $-1 -1 $-1 $465 $680 $596 $677 reversed $606 $-1 #
loop $-1 -1 $-1 $-1 $605 $594 #
vertex $-1 -1 $-1 $604 $689 #
vertex $-1 -1 $-1 $603 $690 #
straight-curve $-1 -1 $-1 38.100000000000009 1.2699999999999998 -12.531013300997618 0 -1 0 I I #
loop $-1 -1 $-1 $-1 $473 $467 #
coedge $-1 -1 $-1 $691 $692 $472 $617 forward $468 $-1 #
coedge $-1 -1 $-1 $693 $469 $692 $694 reversed $309 $-1 #
coedge $-1 -1 $-1 $469 $693 $470 $614 forward $309 $-1 #
edge $-1 -1 $-1 $695 -38.100000000000001 $477 -12.513386699002361 $613 $686 forward @7 unknown #
coedge $-1 -1 $-1 $696 $473 $471 $616 forward $610 $-1 #
edge $-1 -1 $-1 $476 -7.6200000000000285 $695 38.100000000000001 $471 $493 forward @7 unknown #
edge $-1 -1 $-1 $621 -13.568276574438904 $619 38.824405931945428 $611 $697 forward @7 unknown #
coedge $-1 -1 $-1 $473 $696 $691 $698 forward $610 $-1 #
vertex $-1 -1 $-1 $474 $699 #
straight-curve $-1 -1 $-1 -7.620000000000033 1.2699999999999998 38.100000000000001 0 -1 0 I I #
vertex $-1 -1 $-1 $617 $700 #
straight-curve $-1 -1 $-1 38.100000000000001 1.2699999999999998 12.513386699002352 0 1 0 I I #
point $-1 -1 $-1 -7.6200000000000285 -2.5399999999999996 38.100000000000001 #
point $-1 -1 $-1 38.099999999999987 -2.5399999999999996 12.513386699002361 #
coedge $-1 -1 $-1 $488 $480 $481 $627 reversed $315 $-1 #
edge $-1 -1 $-1 $628 -5.0799999999999992 $486 0 $480 $701 forward @7 unknown #
edge $-1 -1 $-1 $492 -38.100000000000001 $628 -7.1496987989815821 $625 $501 forward @7 unknown #
vertex $-1 -1 $-1 $482 $702 #
ellipse-curve $-1 -1 $-1 -2.7431999999999874 -2.5399999999999996 7.1496987989815821 0 1 0 -35.356799999999993 0 -3.5527136788005009e-015 1 I I #
straight-curve $-1 -1 $-1 -38.100000000000001 2.5399999999999996 0 0 0 -1 I I #
point $-1 -1 $-1 -38.100000000000001 2.5399999999999996 7.1496987989815821 #
straight-curve $-1 -1 $-1 -38.100000000000001 0 38.100000000000001 0 -1 0 I I #
point $-1 -1 $-1 -38.100000000000001 2.5399999999999996 38.100000000000001 #
point $-1 -1 $-1 -38.100000000000001 -2.5399999999999996 38.100000000000001 #
edge $-1 -1 $-1 $500 -2.5399999999999996 $636 2.5399999999999996 $499 $703 forward @7 unknown #
vertex $-1 -1 $-1 $498 $704 #
straight-curve $-1 -1 $-1 0 2.5399999999999996 -38.100000000000001 1 0 0 I I #
point $-1 -1 $-1 -38.100000000000001 -2.5399999999999996 -38.100000000000001 #
straight-curve $-1 -1 $-1 -38.100000000000001 2.5399999999999996 0 0 0 -1 I I #
point $-1 -1 $-1 -38.100000000000001 -2.5399999999999996 -38.100000000000001 #
straight-curve $-1 -1 $-1 -38.100000000000001 0 -38.100000000000001 0 1 0 I I #
point $-1 -1 $-1 -38.100000000000001 2.5399999999999996 -38.100000000000001 #
coedge $-1 -1 $-1 $537 $532 $528 $644 forward $525 $-1 #
edge $-1 -1 $-1 $534 -2.7977021874588266e-016 $645 1.1682035001626625 $528 $705 reversed @7 unknown #
vertex $-1 -1 $-1 $540 $706 #
straight-curve $-1 -1 $-1 19.921222784942543 5.0799999999999992 64.38004214234013 0 -1 0 I I #
point $-1 -1 $-1 19.921222784942543 0 64.38004214234013 #
straight-curve $-1 -1 $-1 14.650609841808437 5.0799999999999992 6.3825581267506619 -0.83021665359971919 0 -0.55744085613245475 I I #
point $-1 -1 $-1 19.921222784942501 5.0799999999999992 9.9214596636258818 #
straight-curve $-1 -1 $-1 29.616800316917939 5.0799999999999992 59.116114378612707 0.87883008569878718 0 -0.47713486612347078 I I #
coedge $-1 -1 $-1 $557 $547 $545 $652 reversed $255 $-1 #
edge $707 -1 $-1 $654 -31.56779334950118 $550 -6.5233933495011946 $545 $708 forward @7 unknown #
attrib_edge_convexity-kcp-attrib $-1 -1 $709 $-1 $546 1 #
vertex $-1 -1 $-1 $652 $710 #
straight-curve $-1 -1 $-1 76.199999999999989 2.5399999999999996 50.613386699002362 0 -1 0 I I #
attrib_edge_convexity-kcp-attrib $-1 -1 $711 $-1 $548 1 #
straight-curve $-1 -1 $-1 30.300892709395772 0 -0.10016605273741153 -0.87278430719739786 0 -0.48810608796649785 I I #
convexity-sys-attrib $-1 -1 $-1 $549 $401 #
point $-1 -1 $-1 76.199999999999989 0 25.568986699002377 #
convexity-sys-attrib $-1 -1 $-1 $552 $403 #
point $-1 -1 $-1 30.480000000000018 0 0 #
attrib_edge_convexity-kcp-attrib $-1 -1 $712 $555 $406 1 #
edge $713 -1 $-1 $587 -18.405727969820944 $654 33.98695453656336 $583 $714 forward @7 unknown #
model_id-kcp-attrib $-1 -1 $-1 $-1 $558 1 1021471738 1021471738 780009473 18 #
straight-curve $-1 -1 $-1 19.049999999999997 0 76.199999999999989 -1 0 0 I I #
edge $-1 -1 $-1 $568 6.3484789425523118 $574 25.093678942552351 $560 $715 reversed @7 unknown #
ellipse-curve $-1 -1 $-1 61.11239999999998 0 37.150750902982978 0 -1 0 -41.191177215057486 0 -27.229291239357089 1 I I #
point $-1 -1 $-1 19.921222784942501 0 9.9214596636258818 #
straight-curve $-1 -1 $-1 35.483799999999988 0 19.075399999999995 0 0 -1 I I #
point $-1 -1 $-1 35.483799999999988 0 20.370799999999992 #
convexity-sys-attrib $-1 -1 $-1 $581 $439 #
convexity-sys-attrib $-1 -1 $-1 $586 $446 #
point $-1 -1 $-1 30.480000000000004 0 76.199999999999989 #
plane-surface $-1 -1 $-1 -7.6199999999999832 2.5399999999999996 -38.100000000000001 0.48810608796649779 0 -0.87278430719739775 0 1 0 forward_v I I I I #
coedge $-1 -1 $-1 $678 $716 $680 $717 forward $595 $-1 #
coedge $-1 -1 $-1 $602 $596 $716 $718 reversed $461 $-1 #
edge $-1 -1 $-1 $608 -39.760347409798626 $719 12.623729186183864 $596 $720 forward @7 unknown #
coedge $-1 -1 $-1 $683 $675 $598 $679 forward $595 $-1 #
edge $-1 -1 $-1 $681 -7.6199999999999832 $687 38.100000000000001 $598 $637 forward @7 unknown #
coedge $-1 -1 $-1 $605 $599 $675 $717 reversed $606 $-1 #
vertex $-1 -1 $-1 $679 $721 #
straight-curve $-1 -1 $-1 3.3977927320110686 2.5399999999999996 -31.938280931383296 0.87278430719739775 0 0.48810608796649779 I I #
coedge $-1 -1 $-1 $716 $678 $601 $684 forward $595 $-1 #
edge $-1 -1 $-1 $687 -2.5399999999999996 $685 2.5399999999999996 $601 $722 forward @7 unknown #
vertex $-1 -1 $-1 $603 $723 #
straight-curve $-1 -1 $-1 38.100000000000001 -2.5399999999999996 0 0 0 -1 I I #
vertex $-1 -1 $-1 $684 $724 #
straight-curve $-1 -1 $-1 38.100000000000001 2.5399999999999996 0 0 0 -1 I I #
point $-1 -1 $-1 38.100000000000016 2.5399999999999996 -12.531013300997625 #
point $-1 -1 $-1 38.100000000000016 -2.5399999999999996 -12.531013300997625 #
coedge $-1 -1 $-1 $692 $611 $618 $698 reversed $468 $-1 #
coedge $-1 -1 $-1 $611 $691 $612 $694 forward $468 $-1 #
coedge $-1 -1 $-1 $613 $612 $696 $725 reversed $309 $-1 #
edge $-1 -1 $-1 $726 -38.100000000000001 $621 -12.513386699002361 $612 $688 forward @7 unknown #
vertex $-1 -1 $-1 $725 $727 #
coedge $-1 -1 $-1 $618 $615 $693 $725 forward $610 $-1 #
straight-curve $-1 -1 $-1 26.259766301186133 2.5399999999999996 19.139622067440484 -0.87264094550663229 0 0.48836234521642929 I I #
edge $-1 -1 $-1 $726 -38.100000000000001 $619 7.6200000000000285 $691 $491 forward @7 unknown #
point $-1 -1 $-1 -7.6200000000000285 2.5399999999999996 38.100000000000001 #
point $-1 -1 $-1 38.099999999999987 2.5399999999999996 12.513386699002361 #
straight-curve $-1 -1 $-1 -38.100000000000001 2.5399999999999996 7.1496987989815821 0 1 0 I I #
point $-1 -1 $-1 -38.09999999999998 -2.5399999999999996 7.1496987989815821 #
straight-curve $-1 -1 $-1 -38.100000000000001 0 -38.100000000000001 0 1 0 I I #
point $-1 -1 $-1 -38.100000000000001 2.5399999999999996 -38.100000000000001 #
ellipse-curve $-1 -1 $-1 61.11239999999998 5.0799999999999992 37.150750902982978 0 -1 0 -41.191177215057486 0 -27.229291239357089 1 I I #
point $-1 -1 $-1 19.921222784942543 5.0799999999999992 64.38004214234013 #
model_id-kcp-attrib $-1 -1 $-1 $-1 $652 1 1021471738 1021471738 780009473 19 #
straight-curve $-1 -1 $-1 76.199999999999989 0 19.045593349501182 0 0 -1 I I #
convexity-sys-attrib $-1 -1 $-1 $653 $546 #
point $-1 -1 $-1 76.199999999999989 0 50.613386699002362 #
convexity-sys-attrib $-1 -1 $-1 $656 $548 #
convexity-sys-attrib $-1 -1 $-1 $662 $406 #
attrib_edge_convexity-kcp-attrib $-1 -1 $728 $-1 $663 1 #
straight-curve $-1 -1 $-1 46.54159185832242 0 67.21133552324261 0.8726409455066324 0 -0.48836234521642929 I I #
straight-curve $-1 -1 $-1 14.650609841808437 0 6.3825581267506619 -0.83021665359971919 0 -0.55744085613245475 I I #
coedge $-1 -1 $-1 $675 $683 $676 $718 forward $595 $-1 #
edge $-1 -1 $-1 $719 -3.8099999999999996 $681 1.2699999999999998 $675 $729 forward @7 unknown #
edge $-1 -1 $-1 $685 -38.100000000000001 $719 7.6199999999999832 $676 $502 forward @7 unknown #
vertex $-1 -1 $-1 $677 $730 #
straight-curve $-1 -1 $-1 3.3977927320110686 -2.54 -31.938280931383296 -0.87278430719739775 0 -0.48810608796649779 I I #
point $-1 -1 $-1 -7.6199999999999832 2.5399999999999996 -38.100000000000001 #
straight-curve $-1 -1 $-1 38.100000000000001 0 -38.100000000000001 0 -1 0 I I #
point $-1 -1 $-1 38.100000000000001 -2.5399999999999996 -38.100000000000001 #
point $-1 -1 $-1 38.100000000000001 2.5399999999999996 -38.100000000000001 #
edge $-1 -1 $-1 $695 -2.5399999999999996 $726 2.5399999999999996 $693 $731 forward @7 unknown #
vertex $-1 -1 $-1 $725 $732 #
point $-1 -1 $-1 38.100000000000001 -2.5399999999999996 38.100000000000001 #
convexity-sys-attrib $-1 -1 $-1 $713 $663 #
straight-curve $-1 -1 $-1 -7.619999999999985 1.2699999999999998 -38.100000000000001 0 1 0 I I #
point $-1 -1 $-1 -7.6199999999999832 -2.5399999999999996 -38.100000000000001 #
straight-curve $-1 -1 $-1 38.100000000000001 0 38.100000000000001 0 1 0 I I #
point $-1 -1 $-1 38.100000000000001 2.5399999999999996 38.100000000000001 #
End-of-ACIS-data 