700 0 2 0           
24 FBMach with ACIS - 7.0.3 13 ACIS 7.0.3 NT 24 Wed May 15 09:31:20 2002 
1 9.9999999999999995e-007 1e-010 
body $2 -1 $-1 $3 $-1 $4 #
bdycol-kcp $-1 -1 1 3 $5 $6 $7 #
model_id-kcp-attrib $-1 -1 $-1 $-1 $0 1 1021469479 1021469479 127139841 1 #
lump $-1 -1 $-1 $-1 $8 $0 #
transform $-1 -1 1.0000000000000004 0 5.5511151231257827e-017 0 1 0 -5.5511151231257827e-017 0 1.0000000000000004 -2.8421709430404007e-014 0 -2.8421709430404007e-014 1 rotate no_reflect no_shear #
body $9 -1 $-1 $10 $-1 $11 #
body $12 -1 $-1 $13 $-1 $14 #
body $15 -1 $-1 $16 $-1 $17 #
shell $-1 -1 $-1 $-1 $-1 $18 $-1 $3 #
rgb_color-st-attrib $-1 -1 $19 $-1 $5 0.5 1 1 #
lump $-1 -1 $-1 $-1 $20 $5 #
transform $-1 -1 1 0 0 0 1 0 0 0 1 56.43274341880776 10 12.210948533089287 1 no_rotate no_reflect no_shear #
model_id-kcp-attrib $-1 -1 $-1 $-1 $6 1 1021469479 1021469479 127139842 1 #
lump $-1 -1 $-1 $-1 $21 $6 #
transform $-1 -1 1 0 0 0 1 0 0 0 1 56.43274341880776 10 12.210948533089287 1 no_rotate no_reflect no_shear #
rgb_color-st-attrib $-1 -1 $22 $-1 $7 0.5 1 1 #
lump $-1 -1 $-1 $-1 $23 $7 #
transform $-1 -1 1 0 0 0 1 0 0 0 1 0 0 0 1 no_rotate no_reflect no_shear #
face $24 -1 $-1 $25 $26 $8 $-1 $27 forward single #
model_id-kcp-attrib $-1 -1 $-1 $9 $5 1 1021469479 1021469479 124780547 1 #
shell $-1 -1 $-1 $-1 $-1 $28 $-1 $10 #
shell $-1 -1 $-1 $-1 $-1 $29 $-1 $13 #
model_id-kcp-attrib $-1 -1 $-1 $15 $7 1 1021469479 1021469479 131989508 1 #
shell $-1 -1 $-1 $-1 $-1 $30 $-1 $16 #
model_id-kcp-attrib $-1 -1 $-1 $-1 $18 1 1021469479 1021469479 127139841 2 #
face $31 -1 $-1 $32 $33 $8 $-1 $34 reversed single #
loop $-1 -1 $-1 $35 $36 $18 #
plane-surface $-1 -1 $-1 0 20 0 0 1 0 1 0 0 forward_v I I I I #
face $-1 -1 $-1 $37 $38 $20 $-1 $39 reversed single #
face $-1 -1 $-1 $40 $41 $21 $-1 $42 forward single #
face $-1 -1 $-1 $43 $44 $23 $-1 $45 forward single #
model_id-kcp-attrib $-1 -1 $-1 $-1 $25 1 1021469479 1021469479 127139841 3 #
face $46 -1 $-1 $47 $48 $8 $-1 $49 reversed single #
loop $-1 -1 $-1 $-1 $50 $25 #
cone-surface $-1 -1 $-1 0 10 0 0 -1 0 -20 0 0 1 I I 0 1 20 forward I I I I #
loop $-1 -1 $-1 $-1 $51 $18 #
coedge $-1 -1 $-1 $52 $52 $53 $54 forward $26 $-1 #
face $-1 -1 $-1 $55 $56 $20 $-1 $57 reversed single #
loop $-1 -1 $-1 $-1 $58 $28 #
plane-surface $-1 -1 $-1 96.432743418807732 10 79.714384641188275 0.76604444311898012 0 0.64278760968653703 0 1 0 forward_v I I I I #
face $-1 -1 $-1 $59 $60 $21 $-1 $61 reversed single #
loop $-1 -1 $-1 $-1 $62 $29 #
plane-surface $-1 -1 $-1 0 0 102.69571793475768 0 0 1 1 0 0 forward_v I I I I #
face $-1 -1 $-1 $63 $64 $23 $-1 $65 reversed single #
loop $-1 -1 $-1 $66 $67 $30 #
cone-surface $-1 -1 $-1 8.8817841970012523e-016 20 0 0 -1 0 -20 0 0 1 I I 0 1 20 forward I I I I #
model_id-kcp-attrib $-1 -1 $-1 $-1 $32 1 1021469479 1021469479 127139841 4 #
face $68 -1 $-1 $69 $70 $8 $-1 $71 reversed single #
loop $-1 -1 $-1 $-1 $72 $32 #
cone-surface $-1 -1 $-1 0 10 0 0 -1 0 20 0 0 1 I I 0 1 20 forward I I I I #
coedge $-1 -1 $-1 $73 $53 $74 $75 forward $33 $-1 #
coedge $-1 -1 $-1 $76 $77 $78 $79 forward $35 $-1 #
coedge $-1 -1 $-1 $36 $36 $80 $81 forward $26 $-1 #
coedge $-1 -1 $-1 $50 $82 $36 $54 reversed $33 $-1 #
edge $83 -1 $-1 $84 0 $85 3.1415926535897931 $36 $86 forward @7 unknown #
face $-1 -1 $-1 $87 $88 $20 $-1 $89 reversed single #
loop $-1 -1 $-1 $-1 $90 $37 #
plane-surface $-1 -1 $-1 77.149115128211648 10 102.69571793475768 -0.64278760968653736 0 0.76604444311897979 0 -1 0 forward_v I I I I #
coedge $-1 -1 $-1 $91 $92 $93 $94 reversed $38 $-1 #
face $95 -1 $-1 $96 $97 $21 $-1 $98 reversed single #
loop $-1 -1 $-1 $-1 $99 $40 #
plane-surface $-1 -1 $-1 0 0 -102.69571793475768 0 0 1 1 0 0 forward_v I I I I #
coedge $-1 -1 $-1 $100 $101 $102 $103 forward $41 $-1 #
face $-1 -1 $-1 $-1 $104 $23 $-1 $105 forward single #
loop $-1 -1 $-1 $-1 $106 $43 #
plane-surface $-1 -1 $-1 0 0 0 0 1 0 0 0 1 forward_v I I I I #
loop $-1 -1 $-1 $-1 $107 $30 #
coedge $-1 -1 $-1 $67 $67 $106 $108 forward $44 $-1 #
model_id-kcp-attrib $-1 -1 $-1 $-1 $47 1 1021469479 1021469479 127139841 5 #
face $109 -1 $-1 $110 $111 $8 $-1 $112 forward single #
loop $-1 -1 $-1 $113 $114 $47 #
plane-surface $-1 -1 $-1 0 0 0 0 1 0 1 0 0 forward_v I I I I #
coedge $-1 -1 $-1 $115 $80 $82 $116 forward $48 $-1 #
coedge $-1 -1 $-1 $82 $50 $114 $117 forward $33 $-1 #
coedge $-1 -1 $-1 $80 $115 $50 $75 reversed $48 $-1 #
edge $-1 -1 $-1 $84 0 $118 20 $74 $119 forward @7 unknown #
coedge $-1 -1 $-1 $120 $51 $121 $122 forward $35 $-1 #
coedge $-1 -1 $-1 $51 $123 $124 $125 forward $35 $-1 #
coedge $-1 -1 $-1 $126 $127 $51 $79 reversed $128 $-1 #
edge $129 -1 $-1 $130 0 $131 60.719483433995165 $51 $132 forward @7 unknown #
coedge $-1 -1 $-1 $72 $74 $52 $81 reversed $48 $-1 #
edge $133 -1 $-1 $85 0 $84 3.1415926535897931 $52 $134 forward @7 unknown #
coedge $-1 -1 $-1 $53 $73 $72 $116 reversed $33 $-1 #
attrib_edge_convexity-kcp-attrib $-1 -1 $135 $-1 $54 1 #
vertex $-1 -1 $-1 $81 $136 #
vertex $-1 -1 $-1 $81 $137 #
ellipse-curve $-1 -1 $-1 8.8817841970012523e-016 20 0 0 -1 0 -20 0 0 1 I I #
face $-1 -1 $-1 $138 $139 $20 $-1 $140 reversed single #
loop $-1 -1 $-1 $-1 $141 $55 #
cone-surface $-1 -1 $-1 -31.428702074308219 10 129.07476760599496 0 1 0 23.293714059226815 0 -86.933324366016592 1 I I 0 -1 90.000000000000412 forward I I I I #
coedge $-1 -1 $-1 $142 $143 $144 $145 reversed $56 $-1 #
coedge $-1 -1 $-1 $146 $58 $147 $148 forward $38 $-1 #
coedge $-1 -1 $-1 $58 $146 $149 $150 reversed $38 $-1 #
coedge $-1 -1 $-1 $151 $152 $58 $94 forward $153 $-1 #
edge $-1 -1 $-1 $154 -0.46050562332965073 $155 29.539494376670362 $93 $156 forward @7 unknown #
model_id-kcp-attrib $-1 -1 $-1 $-1 $59 1 1021469479 1021469479 127139842 3 #
face $-1 -1 $-1 $157 $158 $21 $-1 $159 reversed single #
loop $-1 -1 $-1 $-1 $160 $59 #
plane-surface $-1 -1 $-1 0 -10 0 0 1 0 0 0 1 forward_v I I I I #
coedge $-1 -1 $-1 $161 $162 $163 $164 forward $60 $-1 #
coedge $-1 -1 $-1 $165 $62 $166 $167 forward $41 $-1 #
coedge $-1 -1 $-1 $62 $165 $168 $169 forward $41 $-1 #
coedge $-1 -1 $-1 $170 $171 $62 $103 reversed $172 $-1 #
edge $-1 -1 $-1 $173 -10 $174 10 $102 $175 forward @7 unknown #
loop $-1 -1 $-1 $-1 $176 $63 #
plane-surface $-1 -1 $-1 0 20 0 0 1 0 0 0 1 forward_v I I I I #
coedge $-1 -1 $-1 $106 $106 $67 $108 reversed $64 $-1 #
coedge $-1 -1 $-1 $107 $107 $176 $177 forward $66 $-1 #
edge $-1 -1 $-1 $178 0 $178 6.2831853071795862 $67 $179 forward @7 unknown #
model_id-kcp-attrib $-1 -1 $-1 $-1 $69 1 1021469479 1021469479 127139841 6 #
face $180 -1 $-1 $181 $182 $8 $-1 $183 reversed single #
loop $-1 -1 $-1 $-1 $184 $69 #
plane-surface $-1 -1 $-1 30.444836716512739 10 -49.568716628290289 -0.25881904510252052 0 -0.96592582628906842 -0.96592582628906831 0 0.25881904510252046 forward_v I I I I #
loop $-1 -1 $-1 $-1 $185 $47 #
coedge $-1 -1 $-1 $186 $186 $73 $117 reversed $70 $-1 #
coedge $-1 -1 $-1 $74 $72 $186 $187 forward $48 $-1 #
edge $-1 -1 $-1 $85 0 $188 20 $72 $189 forward @7 unknown #
edge $-1 -1 $-1 $118 0 $188 3.1415926535897931 $73 $190 forward @7 unknown #
vertex $-1 -1 $-1 $75 $191 #
straight-curve $-1 -1 $-1 -20 20 2.4492127076447545e-015 0 -1 0 I I #
coedge $-1 -1 $-1 $192 $76 $193 $194 forward $35 $-1 #
coedge $-1 -1 $-1 $195 $196 $76 $122 reversed $197 $-1 #
edge $198 -1 $-1 $131 0 $199 0.43633231299858188 $76 $200 forward @7 unknown #
coedge $-1 -1 $-1 $77 $201 $202 $203 forward $35 $-1 #
coedge $-1 -1 $-1 $204 $205 $77 $125 reversed $206 $-1 #
edge $207 -1 $-1 $208 0 $130 2.6179938779914949 $77 $209 forward @7 unknown #
coedge $-1 -1 $-1 $210 $78 $205 $211 forward $128 $-1 #
coedge $-1 -1 $-1 $78 $210 $195 $212 reversed $128 $-1 #
loop $-1 -1 $-1 $-1 $126 $213 #
attrib_edge_convexity-kcp-attrib $-1 -1 $214 $-1 $79 1 #
vertex $-1 -1 $-1 $125 $215 #
vertex $-1 -1 $-1 $122 $216 #
straight-curve $-1 -1 $-1 -10.352761804100819 20 38.637033051562732 0.96592582628906842 0 0.2588190451025203 I I #
attrib_edge_convexity-kcp-attrib $-1 -1 $217 $-1 $81 1 #
ellipse-curve $-1 -1 $-1 8.8817841970012523e-016 20 -8.8817841970012523e-016 0 -1 0 20 0 8.8817841970012523e-016 1 I I #
convexity-sys-attrib $-1 -1 $-1 $83 $54 #
point $-1 -1 $-1 -20 20 0 #
point $-1 -1 $-1 20 20 0 #
face $-1 -1 $-1 $218 $219 $20 $-1 $220 reversed single #
loop $-1 -1 $-1 $-1 $221 $87 #
plane-surface $-1 -1 $-1 -8.1349880150814045 10 42.141443239978372 -0.2588190451025203 0 0.96592582628906853 0 -1 0 forward_v I I I I #
coedge $-1 -1 $-1 $222 $223 $224 $225 reversed $88 $-1 #
coedge $-1 -1 $-1 $226 $90 $92 $150 forward $56 $-1 #
coedge $-1 -1 $-1 $90 $226 $222 $227 reversed $56 $-1 #
coedge $-1 -1 $-1 $224 $228 $90 $145 forward $229 $-1 #
edge $-1 -1 $-1 $155 -62.555592995919326 $230 3.6637142340822946 $144 $231 forward @7 unknown #
coedge $-1 -1 $-1 $92 $91 $232 $233 reversed $38 $-1 #
coedge $-1 -1 $-1 $234 $235 $236 $148 reversed $237 $-1 #
edge $-1 -1 $-1 $154 0 $238 20 $236 $239 forward @7 unknown #
coedge $-1 -1 $-1 $240 $241 $242 $150 forward $243 $-1 #
edge $-1 -1 $-1 $155 -5 $244 15 $149 $245 forward @7 unknown #
coedge $-1 -1 $-1 $152 $93 $241 $246 reversed $153 $-1 #
coedge $-1 -1 $-1 $93 $151 $247 $248 forward $153 $-1 #
loop $-1 -1 $-1 $-1 $93 $249 #
vertex $-1 -1 $-1 $250 $251 #
vertex $-1 -1 $-1 $252 $253 #
straight-curve $-1 -1 $-1 96.136736109940472 10 80.067152414965008 -0.64278760968653703 0 0.76604444311898012 I I #
face $254 -1 $-1 $255 $256 $21 $-1 $257 reversed single #
loop $-1 -1 $-1 $-1 $258 $96 #
plane-surface $-1 -1 $-1 -96.43274341880776 0 0 1 0 0 0 0 -1 forward_v I I I I #
coedge $-1 -1 $-1 $259 $168 $260 $261 forward $97 $-1 #
coedge $-1 -1 $-1 $262 $99 $259 $263 forward $60 $-1 #
coedge $-1 -1 $-1 $99 $262 $264 $265 forward $60 $-1 #
coedge $-1 -1 $-1 $171 $170 $99 $164 reversed $172 $-1 #
edge $-1 -1 $-1 $266 -10 $267 10 $163 $268 forward @7 unknown #
coedge $-1 -1 $-1 $101 $100 $269 $270 forward $41 $-1 #
coedge $-1 -1 $-1 $271 $272 $100 $167 reversed $256 $-1 #
edge $-1 -1 $-1 $174 -96.43274341880776 $273 96.43274341880776 $166 $274 forward @7 unknown #
coedge $-1 -1 $-1 $160 $275 $101 $169 reversed $97 $-1 #
edge $-1 -1 $-1 $276 -96.43274341880776 $173 96.43274341880776 $168 $277 forward @7 unknown #
coedge $-1 -1 $-1 $163 $102 $275 $278 forward $172 $-1 #
coedge $-1 -1 $-1 $102 $163 $271 $279 reversed $172 $-1 #
loop $-1 -1 $-1 $-1 $170 $255 #
vertex $-1 -1 $-1 $103 $280 #
vertex $-1 -1 $-1 $103 $281 #
straight-curve $-1 -1 $-1 96.43274341880776 0 102.69571793475768 0 1 0 I I #
coedge $-1 -1 $-1 $176 $176 $107 $177 reversed $104 $-1 #
edge $-1 -1 $-1 $282 0 $282 6.2831853071795862 $107 $283 forward @7 unknown #
vertex $-1 -1 $-1 $108 $284 #
ellipse-curve $-1 -1 $-1 8.8817841970012523e-016 0 -8.8817841970012523e-016 0 1 0 20 0 8.8817841970012523e-016 1 I I #
model_id-kcp-attrib $-1 -1 $-1 $-1 $110 1 1021469479 1021469479 127139841 7 #
face $285 -1 $-1 $286 $287 $8 $-1 $288 forward single #
loop $-1 -1 $-1 $-1 $289 $110 #
cone-surface $-1 -1 $-1 61.447225417721448 10 -97.056620921834366 0 -1 0 37.270822047543611 0 6.5718515201659784 1 I I 0 1 37.845784553933754 forward I I I I #
coedge $-1 -1 $-1 $290 $202 $291 $292 forward $111 $-1 #
coedge $-1 -1 $-1 $293 $294 $290 $295 reversed $113 $-1 #
coedge $-1 -1 $-1 $114 $114 $115 $187 reversed $70 $-1 #
edge $-1 -1 $-1 $188 0 $118 3.1415926535897931 $115 $296 forward @7 unknown #
vertex $-1 -1 $-1 $187 $297 #
straight-curve $-1 -1 $-1 20 20 -2.4492127076447545e-015 0 -1 0 I I #
ellipse-curve $-1 -1 $-1 8.8817841970012523e-016 0 0 0 -1 0 -20 0 0 1 I I #
point $-1 -1 $-1 -20 0 0 #
coedge $-1 -1 $-1 $298 $120 $299 $300 forward $35 $-1 #
coedge $-1 -1 $-1 $301 $302 $120 $194 reversed $303 $-1 #
edge $304 -1 $-1 $199 1.0886146286551647e-014 $305 66.219307230001647 $120 $306 forward @7 unknown #
coedge $-1 -1 $-1 $307 $121 $127 $212 forward $197 $-1 #
coedge $-1 -1 $-1 $121 $307 $301 $308 reversed $197 $-1 #
loop $-1 -1 $-1 $-1 $195 $309 #
attrib_edge_convexity-kcp-attrib $-1 -1 $310 $-1 $122 1 #
vertex $-1 -1 $-1 $194 $311 #
ellipse-curve $-1 -1 $-1 25.004041344499548 20 141.28571613908423 0 -1 0 23.293714059226808 0 -86.933324366016564 1 I I #
coedge $-1 -1 $-1 $123 $312 $313 $314 forward $35 $-1 #
coedge $-1 -1 $-1 $184 $315 $123 $203 reversed $111 $-1 #
edge $316 -1 $-1 $317 0 $208 84.473563932649739 $123 $318 forward @7 unknown #
coedge $-1 -1 $-1 $319 $124 $315 $320 forward $206 $-1 #
coedge $-1 -1 $-1 $124 $319 $126 $211 reversed $206 $-1 #
loop $-1 -1 $-1 $-1 $204 $321 #
attrib_edge_convexity-kcp-attrib $-1 -1 $322 $-1 $125 1 #
vertex $-1 -1 $-1 $125 $323 #
ellipse-curve $-1 -1 $-1 -1.7763568394002505e-015 20 1.7763568394002505e-015 0 1 0 -10.352761804100822 0 -38.637033051562732 1 I I #
coedge $-1 -1 $-1 $127 $126 $324 $325 forward $128 $-1 #
edge $326 -1 $-1 $130 0 $327 20 $205 $328 forward @7 unknown #
edge $329 -1 $-1 $131 0 $330 20 $195 $331 forward @7 unknown #
face $332 -1 $-1 $321 $128 $8 $-1 $333 forward single #
convexity-sys-attrib $-1 -1 $-1 $129 $79 #
point $-1 -1 $-1 -10.352761804100819 20 38.637033051562732 #
point $-1 -1 $-1 48.297755403726356 20 54.352391773067659 #
convexity-sys-attrib $-1 -1 $-1 $133 $81 #
face $-1 -1 $-1 $334 $335 $20 $-1 $336 reversed single #
loop $-1 -1 $-1 $-1 $337 $138 #
cone-surface $-1 -1 $-1 5.0144819989136593 10 -109.26756945492369 0 1 0 37.270822047543639 0 6.571851520166021 1 I I 0 -1 37.84578455393379 forward I I I I #
coedge $-1 -1 $-1 $338 $339 $340 $341 reversed $139 $-1 #
coedge $-1 -1 $-1 $342 $141 $143 $227 forward $88 $-1 #
coedge $-1 -1 $-1 $141 $342 $338 $343 reversed $88 $-1 #
coedge $-1 -1 $-1 $340 $144 $141 $225 forward $229 $-1 #
edge $-1 -1 $-1 $230 -0.43633231299858177 $344 0 $224 $345 forward @7 unknown #
coedge $-1 -1 $-1 $143 $142 $346 $347 reversed $56 $-1 #
edge $-1 -1 $-1 $230 0 $348 20 $143 $349 forward @7 unknown #
coedge $-1 -1 $-1 $144 $350 $351 $252 reversed $229 $-1 #
loop $-1 -1 $-1 $-1 $144 $352 #
vertex $-1 -1 $-1 $145 $353 #
straight-curve $-1 -1 $-1 29.22875072767506 10 62.485757840386789 -0.76604444311897979 0 -0.64278760968653736 I I #
coedge $-1 -1 $-1 $354 $355 $146 $233 forward $356 $-1 #
edge $-1 -1 $-1 $244 -29.539494376670362 $238 0.46050562332965073 $232 $357 forward @7 unknown #
coedge $-1 -1 $-1 $358 $147 $359 $360 reversed $237 $-1 #
coedge $-1 -1 $-1 $147 $358 $361 $362 reversed $237 $-1 #
coedge $-1 -1 $-1 $363 $364 $365 $148 forward $366 $-1 #
loop $-1 -1 $-1 $-1 $234 $367 #
vertex $-1 -1 $-1 $368 $369 #
straight-curve $-1 -1 $-1 96.43274341880776 10 79.714384641188303 0 -1 0 I I #
coedge $-1 -1 $-1 $370 $149 $355 $371 forward $243 $-1 #
coedge $-1 -1 $-1 $149 $370 $151 $246 forward $243 $-1 #
coedge $-1 -1 $-1 $351 $372 $142 $150 reversed $373 $-1 #
loop $-1 -1 $-1 $-1 $149 $374 #
vertex $-1 -1 $-1 $371 $375 #
straight-curve $-1 -1 $-1 77.149115128211633 5 102.69571793475768 0 -1 0 I I #
edge $-1 -1 $-1 $376 -96.43274341880776 $155 -77.149115128211619 $151 $377 forward @7 unknown #
coedge $-1 -1 $-1 $378 $365 $152 $248 reversed $379 $-1 #
edge $-1 -1 $-1 $376 -102.69571793475768 $154 -79.714384641188275 $247 $380 forward @7 unknown #
face $-1 -1 $-1 $352 $153 $20 $-1 $381 reversed single #
edge $-1 -1 $-1 $154 -79.714384641188275 $382 102.69571793475768 $364 $380 forward @7 unknown #
point $-1 -1 $-1 96.432743418807732 10 79.714384641188275 #
edge $-1 -1 $-1 $155 -77.149115128211619 $383 96.43274341880776 $228 $377 forward @7 unknown #
point $-1 -1 $-1 77.149115128211619 10 102.69571793475768 #
model_id-kcp-attrib $-1 -1 $-1 $-1 $157 1 1021469479 1021469479 127139842 2 #
face $-1 -1 $-1 $-1 $172 $21 $-1 $384 reversed single #
loop $-1 -1 $-1 $-1 $271 $157 #
plane-surface $-1 -1 $-1 0 10 0 0 -1 0 0 0 -1 forward_v I I I I #
coedge $-1 -1 $-1 $385 $269 $272 $386 forward $158 $-1 #
coedge $-1 -1 $-1 $275 $160 $161 $263 reversed $97 $-1 #
coedge $-1 -1 $-1 $269 $385 $160 $261 reversed $158 $-1 #
edge $-1 -1 $-1 $276 -102.69571793475768 $387 102.69571793475768 $260 $388 forward @7 unknown #
coedge $-1 -1 $-1 $162 $161 $385 $389 forward $60 $-1 #
edge $-1 -1 $-1 $267 -96.43274341880776 $387 96.43274341880776 $259 $390 forward @7 unknown #
coedge $-1 -1 $-1 $272 $271 $162 $265 reversed $256 $-1 #
edge $-1 -1 $-1 $391 -96.43274341880776 $266 96.43274341880776 $264 $392 forward @7 unknown #
vertex $-1 -1 $-1 $164 $393 #
vertex $-1 -1 $-1 $278 $394 #
straight-curve $-1 -1 $-1 96.43274341880776 0 -102.69571793475768 0 -1 0 I I #
coedge $-1 -1 $-1 $258 $260 $165 $270 reversed $158 $-1 #
edge $-1 -1 $-1 $273 -10 $276 10 $269 $395 forward @7 unknown #
coedge $-1 -1 $-1 $264 $166 $171 $279 forward $256 $-1 #
coedge $-1 -1 $-1 $166 $264 $258 $386 reversed $256 $-1 #
vertex $-1 -1 $-1 $167 $396 #
straight-curve $-1 -1 $-1 0 10 102.69571793475768 -1 0 0 I I #
coedge $-1 -1 $-1 $168 $259 $170 $278 reversed $97 $-1 #
vertex $-1 -1 $-1 $270 $397 #
straight-curve $-1 -1 $-1 0 -10 102.69571793475768 1 0 0 I I #
edge $-1 -1 $-1 $173 -102.69571793475768 $267 102.69571793475768 $170 $398 forward @7 unknown #
edge $-1 -1 $-1 $174 -102.69571793475768 $266 102.69571793475768 $171 $399 forward @7 unknown #
point $-1 -1 $-1 96.43274341880776 -10 102.69571793475768 #
point $-1 -1 $-1 96.43274341880776 10 102.69571793475768 #
vertex $-1 -1 $-1 $177 $400 #
ellipse-curve $-1 -1 $-1 8.8817841970012523e-016 20 0 0 -1 0 -20 0 0 1 I I #
point $-1 -1 $-1 20 0 0 #
model_id-kcp-attrib $-1 -1 $-1 $-1 $181 1 1021469479 1021469479 127139841 8 #
face $401 -1 $-1 $402 $403 $8 $-1 $404 forward single #
loop $-1 -1 $-1 $-1 $405 $181 #
plane-surface $-1 -1 $-1 111.02814437791766 10 -88.314167180831703 0.17364817766693416 0 -0.98480775301220747 -0.98480775301220747 0 -0.17364817766693416 forward_v I I I I #
coedge $-1 -1 $-1 $406 $313 $407 $408 forward $182 $-1 #
coedge $-1 -1 $-1 $315 $184 $185 $295 forward $111 $-1 #
coedge $-1 -1 $-1 $313 $406 $184 $292 reversed $182 $-1 #
edge $409 -1 $-1 $317 0 $410 20 $184 $411 forward @7 unknown #
coedge $-1 -1 $-1 $412 $185 $406 $413 reversed $113 $-1 #
coedge $-1 -1 $-1 $185 $324 $319 $414 reversed $113 $-1 #
edge $415 -1 $-1 $410 -1.3726631583055401e-014 $416 84.473563932649739 $290 $417 forward @7 unknown #
ellipse-curve $-1 -1 $-1 8.8817841970012523e-016 0 -8.8817841970012523e-016 0 -1 0 20 0 8.8817841970012523e-016 1 I I #
point $-1 -1 $-1 20 0 0 #
coedge $-1 -1 $-1 $418 $192 $419 $420 forward $35 $-1 #
coedge $-1 -1 $-1 $421 $422 $192 $300 reversed $423 $-1 #
edge $424 -1 $-1 $305 -1.088614628655165e-014 $425 29.999999999999989 $192 $426 forward @7 unknown #
coedge $-1 -1 $-1 $427 $193 $196 $308 forward $303 $-1 #
coedge $-1 -1 $-1 $193 $427 $421 $428 reversed $303 $-1 #
loop $-1 -1 $-1 $-1 $301 $429 #
attrib_edge_convexity-kcp-attrib $-1 -1 $430 $-1 $194 1 #
vertex $-1 -1 $-1 $300 $431 #
straight-curve $-1 -1 $-1 82.854926216288163 20 72.341716258375769 0.76604444311897979 0 0.64278760968653725 I I #
coedge $-1 -1 $-1 $196 $195 $432 $433 forward $197 $-1 #
edge $434 -1 $-1 $199 0 $435 20 $301 $436 forward @7 unknown #
face $437 -1 $-1 $213 $197 $8 $-1 $438 reversed single #
convexity-sys-attrib $-1 -1 $-1 $198 $122 #
point $-1 -1 $-1 82.854926216288177 20 72.341716258375769 #
coedge $-1 -1 $-1 $201 $418 $439 $440 forward $35 $-1 #
coedge $-1 -1 $-1 $289 $291 $201 $314 reversed $182 $-1 #
edge $441 -1 $-1 $442 0 $317 1.13446401379631 $201 $443 forward @7 unknown #
coedge $-1 -1 $-1 $202 $290 $204 $320 reversed $111 $-1 #
attrib_edge_convexity-kcp-attrib $-1 -1 $444 $-1 $203 1 #
vertex $-1 -1 $-1 $203 $445 #
straight-curve $-1 -1 $-1 71.242435237126301 20 -60.500400205017847 -0.96592582628906831 0 0.25881904510252046 I I #
coedge $-1 -1 $-1 $205 $204 $294 $414 forward $206 $-1 #
edge $446 -1 $-1 $208 0 $416 20 $204 $447 forward @7 unknown #
face $448 -1 $-1 $-1 $206 $8 $-1 $449 forward single #
convexity-sys-attrib $-1 -1 $-1 $207 $125 #
point $-1 -1 $-1 -10.352761804100824 20 -38.637033051562732 #
coedge $-1 -1 $-1 $294 $432 $210 $325 reversed $113 $-1 #
edge $450 -1 $-1 $327 0 $330 60.719483433995165 $210 $451 forward @7 unknown #
attrib_edge_convexity-kcp-attrib $-1 -1 $452 $-1 $211 3 #
vertex $-1 -1 $-1 $211 $453 #
straight-curve $-1 -1 $-1 -10.352761804100812 20 38.637033051562732 0 -1 0 I I #
attrib_edge_convexity-kcp-attrib $-1 -1 $454 $-1 $212 4 #
vertex $-1 -1 $-1 $433 $455 #
straight-curve $-1 -1 $-1 48.297755403726356 20 54.352391773067659 0 -1 0 I I #
model_id-kcp-attrib $-1 -1 $-1 $-1 $213 1 1021469479 1021469479 127139841 14 #
plane-surface $-1 -1 $-1 18.97249679981277 10 46.494712412315195 -0.25881904510252035 0 0.96592582628906842 0.96592582628906831 0 0.2588190451025203 forward_v I I I I #
face $-1 -1 $-1 $456 $457 $20 $-1 $336 reversed single #
loop $-1 -1 $-1 $-1 $458 $218 #
cone-surface $-1 -1 $-1 -56.43274341880776 10 -12.210948533089287 0 1 0 -10.352761804100822 0 -38.637033051562732 1 I I 0 1 40 forward I I I I #
coedge $-1 -1 $-1 $459 $460 $461 $462 reversed $219 $-1 #
coedge $-1 -1 $-1 $463 $221 $223 $343 forward $139 $-1 #
coedge $-1 -1 $-1 $221 $463 $464 $465 reversed $139 $-1 #
coedge $-1 -1 $-1 $466 $224 $221 $341 forward $229 $-1 #
edge $-1 -1 $-1 $344 -1.5246065391470431 $467 59.194876894848122 $340 $468 forward @7 unknown #
coedge $-1 -1 $-1 $223 $222 $469 $470 reversed $88 $-1 #
edge $-1 -1 $-1 $344 0 $471 20 $223 $472 forward @7 unknown #
vertex $-1 -1 $-1 $225 $473 #
ellipse-curve $-1 -1 $-1 -31.428702074308219 10 129.07476760599496 0 1 0 23.293714059226815 0 -86.933324366016592 1 I I #
coedge $-1 -1 $-1 $474 $469 $226 $347 forward $475 $-1 #
edge $-1 -1 $-1 $348 -3.6637142340822946 $244 62.555592995919326 $346 $476 forward @7 unknown #
vertex $-1 -1 $-1 $347 $477 #
straight-curve $-1 -1 $-1 26.422182797480403 10 60.130767725286496 0 -1 0 I I #
coedge $-1 -1 $-1 $228 $466 $478 $479 reversed $229 $-1 #
coedge $-1 -1 $-1 $480 $242 $228 $252 forward $373 $-1 #
face $-1 -1 $-1 $481 $229 $20 $-1 $381 reversed single #
point $-1 -1 $-1 26.422182797480403 10 60.130767725286496 #
coedge $-1 -1 $-1 $355 $232 $482 $483 reversed $356 $-1 #
coedge $-1 -1 $-1 $232 $354 $240 $371 reversed $356 $-1 #
loop $-1 -1 $-1 $-1 $232 $484 #
straight-curve $-1 -1 $-1 96.136736109940472 -10.000000000000002 80.067152414965008 0.64278760968653703 0 -0.76604444311898012 I I #
coedge $-1 -1 $-1 $235 $234 $485 $486 forward $237 $-1 #
coedge $-1 -1 $-1 $487 $488 $234 $360 forward $489 $-1 #
edge $-1 -1 $-1 $490 -1.0471975511966034 $154 0 $359 $491 forward @7 unknown #
coedge $-1 -1 $-1 $492 $493 $235 $362 forward $494 $-1 #
edge $-1 -1 $-1 $238 0 $495 1.0471975511966034 $361 $496 forward @7 unknown #
coedge $-1 -1 $-1 $497 $236 $493 $368 forward $366 $-1 #
coedge $-1 -1 $-1 $236 $497 $487 $250 reversed $366 $-1 #
coedge $-1 -1 $-1 $247 $482 $91 $148 reversed $379 $-1 #
loop $-1 -1 $-1 $-1 $236 $498 #
face $-1 -1 $-1 $499 $237 $20 $-1 $500 reversed single #
edge $-1 -1 $-1 $238 -79.714384641188275 $501 102.69571793475768 $363 $502 forward @7 unknown #
point $-1 -1 $-1 96.432743418807732 -10 79.714384641188275 #
coedge $-1 -1 $-1 $241 $240 $378 $503 forward $243 $-1 #
edge $-1 -1 $-1 $244 77.149115128211619 $504 96.43274341880776 $355 $505 forward @7 unknown #
coedge $-1 -1 $-1 $242 $480 $474 $506 forward $373 $-1 #
loop $-1 -1 $-1 $-1 $242 $507 #
face $-1 -1 $-1 $508 $243 $20 $-1 $509 forward single #
point $-1 -1 $-1 77.149115128211619 -10 102.69571793475768 #
vertex $-1 -1 $-1 $503 $510 #
straight-curve $-1 -1 $-1 0 10 102.69571793475768 -1 0 0 I I #
coedge $-1 -1 $-1 $482 $247 $370 $503 reversed $379 $-1 #
loop $-1 -1 $-1 $-1 $365 $511 #
straight-curve $-1 -1 $-1 96.43274341880776 10 0 0 0 -1 I I #
plane-surface $-1 -1 $-1 0 10 0 0 -1 0 0 0 -1 forward_v I I I I #
vertex $-1 -1 $-1 $512 $513 #
vertex $-1 -1 $-1 $252 $514 #
plane-surface $-1 -1 $-1 96.43274341880776 0 0 -1 0 0 0 0 1 forward_v I I I I #
coedge $-1 -1 $-1 $260 $258 $262 $389 reversed $158 $-1 #
edge $-1 -1 $-1 $273 -102.69571793475768 $391 102.69571793475768 $272 $515 forward @7 unknown #
vertex $-1 -1 $-1 $389 $516 #
straight-curve $-1 -1 $-1 -96.43274341880776 -10 0 0 0 -1 I I #
edge $-1 -1 $-1 $387 -10 $391 10 $385 $517 forward @7 unknown #
straight-curve $-1 -1 $-1 0 -10 -102.69571793475768 -1 0 0 I I #
vertex $-1 -1 $-1 $265 $518 #
straight-curve $-1 -1 $-1 0 10 -102.69571793475768 1 0 0 I I #
point $-1 -1 $-1 96.43274341880776 10 -102.69571793475768 #
point $-1 -1 $-1 96.43274341880776 -10 -102.69571793475768 #
straight-curve $-1 -1 $-1 -96.43274341880776 0 102.69571793475768 0 -1 0 I I #
point $-1 -1 $-1 -96.43274341880776 10 102.69571793475768 #
point $-1 -1 $-1 -96.43274341880776 -10 102.69571793475768 #
straight-curve $-1 -1 $-1 96.43274341880776 -10 0 0 0 -1 I I #
straight-curve $-1 -1 $-1 96.43274341880776 10 0 0 0 -1 I I #
point $-1 -1 $-1 -20 20 0 #
model_id-kcp-attrib $-1 -1 $-1 $-1 $286 1 1021469479 1021469479 127139841 9 #
face $519 -1 $-1 $520 $521 $8 $-1 $522 reversed single #
loop $-1 -1 $-1 $-1 $523 $286 #
plane-surface $-1 -1 $-1 117.58065546455268 10 -53.490673140013541 0.98480775301220758 0 0.17364817766693338 0.17364817766693338 0 -0.98480775301220758 forward_v I I I I #
coedge $-1 -1 $-1 $524 $439 $525 $526 forward $287 $-1 #
coedge $-1 -1 $-1 $291 $289 $293 $413 forward $182 $-1 #
coedge $-1 -1 $-1 $439 $524 $289 $408 reversed $287 $-1 #
edge $527 -1 $-1 $442 0 $528 20 $289 $529 forward @7 unknown #
attrib_edge_convexity-kcp-attrib $-1 -1 $530 $-1 $292 4 #
vertex $-1 -1 $-1 $295 $531 #
straight-curve $-1 -1 $-1 71.242435237126315 20 -60.500400205017854 0 -1 0 I I #
coedge $-1 -1 $-1 $532 $293 $524 $533 reversed $113 $-1 #
edge $534 -1 $-1 $528 3.7702380373594587e-016 $410 1.1344640137963096 $406 $535 forward @7 unknown #
edge $-1 -1 $-1 $416 0 $327 2.6179938779914949 $319 $536 forward @7 unknown #
attrib_edge_convexity-kcp-attrib $-1 -1 $537 $-1 $295 1 #
vertex $-1 -1 $-1 $414 $538 #
straight-curve $-1 -1 $-1 71.242435237126301 0 -60.500400205017847 -0.96592582628906831 0 0.25881904510252046 I I #
coedge $-1 -1 $-1 $312 $298 $539 $540 forward $35 $-1 #
coedge $-1 -1 $-1 $541 $542 $298 $420 reversed $521 $-1 #
edge $543 -1 $-1 $425 0 $544 1.0471975511966038 $298 $545 forward @7 unknown #
coedge $-1 -1 $-1 $546 $299 $302 $428 forward $423 $-1 #
coedge $-1 -1 $-1 $299 $546 $541 $547 reversed $423 $-1 #
loop $-1 -1 $-1 $-1 $421 $520 #
attrib_edge_convexity-kcp-attrib $-1 -1 $548 $-1 $300 1 #
vertex $-1 -1 $-1 $420 $549 #
straight-curve $-1 -1 $-1 133.58185854701941 20 114.90666646784695 0.64278760968653714 0 -0.76604444311897979 I I #
coedge $-1 -1 $-1 $302 $301 $550 $551 forward $303 $-1 #
edge $552 -1 $-1 $305 0 $553 20 $421 $554 forward @7 unknown #
face $555 -1 $-1 $309 $303 $8 $-1 $556 forward single #
convexity-sys-attrib $-1 -1 $-1 $304 $194 #
point $-1 -1 $-1 133.58185854701941 20 114.90666646784696 #
coedge $-1 -1 $-1 $324 $550 $307 $433 reversed $113 $-1 #
edge $557 -1 $-1 $330 0 $435 0.43633231299858177 $307 $558 forward @7 unknown #
attrib_edge_convexity-kcp-attrib $-1 -1 $559 $-1 $308 4 #
vertex $-1 -1 $-1 $551 $560 #
straight-curve $-1 -1 $-1 82.854926216288163 20 72.341716258375769 0 -1 0 I I #
model_id-kcp-attrib $-1 -1 $-1 $-1 $309 1 1021469479 1021469479 127139841 13 #
cone-surface $-1 -1 $-1 25.00404134449974 10 141.28571613908389 0 -1 0 23.293714059226613 0 -86.933324366016208 1 I I 0 1 90 forward I I I I #
coedge $-1 -1 $-1 $405 $407 $312 $440 reversed $287 $-1 #
edge $561 -1 $-1 $562 0 $442 25.000000000000014 $312 $563 forward @7 unknown #
attrib_edge_convexity-kcp-attrib $-1 -1 $564 $-1 $314 1 #
vertex $-1 -1 $-1 $314 $565 #
ellipse-curve $-1 -1 $-1 61.447225417721413 20 -97.056620921834394 0 -1 0 37.270822047543646 0 6.5718515201660068 1 I I #
convexity-sys-attrib $-1 -1 $-1 $316 $203 #
point $-1 -1 $-1 71.242435237126301 20 -60.500400205017847 #
attrib_edge_convexity-kcp-attrib $-1 -1 $566 $-1 $320 3 #
straight-curve $-1 -1 $-1 -10.352761804100815 20 -38.637033051562732 0 -1 0 I I #
model_id-kcp-attrib $-1 -1 $-1 $-1 $321 1 1021469479 1021469479 127139841 15 #
cone-surface $-1 -1 $-1 0 10 0 0 1 0 -10.352761804100828 0 -38.637033051562739 1 I I 0 1 40.000000000000007 forward I I I I #
attrib_edge_convexity-kcp-attrib $-1 -1 $567 $-1 $325 1 #
straight-curve $-1 -1 $-1 -10.352761804100819 0 38.637033051562732 0.96592582628906842 0 0.2588190451025203 I I #
convexity-sys-attrib $-1 -1 $-1 $326 $211 #
point $-1 -1 $-1 -10.352761804100819 0 38.637033051562732 #
convexity-sys-attrib $-1 -1 $-1 $329 $212 #
point $-1 -1 $-1 48.297755403726356 0 54.352391773067659 #
face $-1 -1 $-1 $568 $569 $20 $-1 $570 reversed single #
loop $-1 -1 $-1 $-1 $571 $334 #
coedge $-1 -1 $-1 $572 $573 $574 $575 reversed $335 $-1 #
coedge $-1 -1 $-1 $576 $337 $577 $578 forward $219 $-1 #
coedge $-1 -1 $-1 $337 $576 $579 $580 reversed $219 $-1 #
coedge $-1 -1 $-1 $581 $582 $337 $462 forward $583 $-1 #
edge $-1 -1 $-1 $584 -1.1344640137963093 $585 3.7702380373594602e-016 $461 $586 forward @7 unknown #
coedge $-1 -1 $-1 $339 $338 $587 $588 reversed $139 $-1 #
coedge $-1 -1 $-1 $589 $571 $339 $465 forward $457 $-1 #
edge $-1 -1 $-1 $467 0 $590 20 $339 $591 forward @7 unknown #
coedge $-1 -1 $-1 $350 $340 $571 $592 forward $229 $-1 #
vertex $-1 -1 $-1 $341 $593 #
straight-curve $-1 -1 $-1 -9.6076448461727306 10 41.746846031359283 -0.96592582628906853 0 -0.2588190451025203 I I #
coedge $-1 -1 $-1 $346 $587 $342 $470 forward $475 $-1 #
edge $-1 -1 $-1 $471 0 $348 0.43633231299858177 $469 $594 forward @7 unknown #
vertex $-1 -1 $-1 $470 $595 #
straight-curve $-1 -1 $-1 -8.1349880150814045 10 42.141443239978372 0 -1 0 I I #
point $-1 -1 $-1 -8.1349880150814045 10 42.141443239978372 #
coedge $-1 -1 $-1 $596 $346 $372 $506 reversed $475 $-1 #
loop $-1 -1 $-1 $-1 $346 $597 #
straight-curve $-1 -1 $-1 29.22875072767506 -10.000000000000002 62.485757840386789 0.76604444311897979 0 0.64278760968653736 I I #
point $-1 -1 $-1 26.422182797480403 -10 60.130767725286496 #
coedge $-1 -1 $-1 $598 $599 $350 $479 forward $600 $-1 #
edge $-1 -1 $-1 $383 -102.69571793475768 $601 12.210948533089287 $350 $602 forward @7 unknown #
coedge $-1 -1 $-1 $372 $351 $599 $603 forward $373 $-1 #
face $-1 -1 $-1 $597 $604 $20 $-1 $605 reversed single #
coedge $-1 -1 $-1 $365 $378 $354 $483 forward $379 $-1 #
edge $-1 -1 $-1 $504 -102.69571793475768 $238 -79.714384641188275 $482 $502 forward @7 unknown #
face $-1 -1 $-1 $606 $356 $20 $-1 $607 reversed single #
coedge $-1 -1 $-1 $608 $609 $358 $486 reversed $610 $-1 #
edge $-1 -1 $-1 $490 0 $495 20 $485 $611 forward @7 unknown #
coedge $-1 -1 $-1 $612 $359 $364 $250 forward $489 $-1 #
coedge $-1 -1 $-1 $359 $613 $608 $614 forward $489 $-1 #
loop $-1 -1 $-1 $-1 $359 $615 #
vertex $-1 -1 $-1 $614 $616 #
ellipse-curve $-1 -1 $-1 173.56725658119223 10 -12.210948533089294 0 1 0 -77.134513162384494 0 91.925333174277569 1 I I #
coedge $-1 -1 $-1 $617 $361 $609 $618 forward $494 $-1 #
coedge $-1 -1 $-1 $361 $619 $363 $368 reversed $494 $-1 #
loop $-1 -1 $-1 $-1 $361 $606 #
vertex $-1 -1 $-1 $618 $620 #
ellipse-curve $-1 -1 $-1 173.56725658119223 -10 -12.210948533089294 0 -1 0 -77.134513162384494 0 91.925333174277569 1 I I #
coedge $-1 -1 $-1 $364 $363 $621 $512 reversed $366 $-1 #
face $-1 -1 $-1 $374 $366 $20 $-1 $622 reversed single #
face $-1 -1 $-1 $498 $623 $20 $-1 $624 reversed single #
cone-surface $-1 -1 $-1 173.56725658119223 10 -12.210948533089294 0 1 0 -77.134513162384494 0 91.925333174277569 1 I I 0 -1 120.00000000000001 forward I I I I #
vertex $-1 -1 $-1 $368 $625 #
straight-curve $-1 -1 $-1 96.43274341880776 -10 0 0 0 -1 I I #
edge $-1 -1 $-1 $504 -10 $376 10 $378 $626 forward @7 unknown #
vertex $-1 -1 $-1 $503 $627 #
straight-curve $-1 -1 $-1 0 -10 102.69571793475768 1 0 0 I I #
edge $-1 -1 $-1 $628 -96.43274341880776 $244 77.149115128211619 $474 $505 forward @7 unknown #
face $-1 -1 $-1 $629 $373 $20 $-1 $509 forward single #
face $-1 -1 $-1 $615 $583 $20 $-1 $381 reversed single #
plane-surface $-1 -1 $-1 0 0 102.69571793475768 0 0 1 1 0 0 forward_v I I I I #
point $-1 -1 $-1 96.43274341880776 10 102.69571793475768 #
face $-1 -1 $-1 $-1 $379 $20 $-1 $622 reversed single #
edge $-1 -1 $-1 $382 -10 $501 10 $497 $630 forward @7 unknown #
point $-1 -1 $-1 96.43274341880776 10 -102.69571793475768 #
point $-1 -1 $-1 -96.43274341880776 10 102.69571793475768 #
straight-curve $-1 -1 $-1 -96.43274341880776 10 0 0 0 -1 I I #
point $-1 -1 $-1 -96.43274341880776 -10 -102.69571793475768 #
straight-curve $-1 -1 $-1 -96.43274341880776 0 -102.69571793475768 0 1 0 I I #
point $-1 -1 $-1 -96.43274341880776 10 -102.69571793475768 #
model_id-kcp-attrib $-1 -1 $-1 $-1 $402 1 1021469479 1021469479 127139841 10 #
face $631 -1 $-1 $429 $423 $8 $-1 $632 forward single #
loop $-1 -1 $-1 $-1 $541 $402 #
cone-surface $-1 -1 $-1 230 10 0 0 -1 0 -77.134513162384479 0 91.925333174277569 1 I I 0 1 120 forward I I I I #
coedge $-1 -1 $-1 $633 $539 $542 $634 forward $403 $-1 #
coedge $-1 -1 $-1 $407 $405 $412 $533 forward $287 $-1 #
coedge $-1 -1 $-1 $539 $633 $405 $526 reversed $403 $-1 #
edge $635 -1 $-1 $562 0 $636 20 $405 $637 forward @7 unknown #
attrib_edge_convexity-kcp-attrib $-1 -1 $638 $-1 $408 1 #
vertex $-1 -1 $-1 $413 $639 #
straight-curve $-1 -1 $-1 98.718047465265059 20 -90.484769401668373 0 -1 0 I I #
convexity-sys-attrib $-1 -1 $-1 $409 $292 #
point $-1 -1 $-1 71.242435237126315 0 -60.500400205017847 #
coedge $-1 -1 $-1 $640 $412 $633 $641 reversed $113 $-1 #
edge $642 -1 $-1 $636 0 $528 25.000000000000011 $524 $643 forward @7 unknown #
attrib_edge_convexity-kcp-attrib $-1 -1 $644 $-1 $413 1 #
ellipse-curve $-1 -1 $-1 61.447225417721413 0 -97.056620921834394 0 -1 0 37.270822047543646 0 6.5718515201660068 1 I I #
ellipse-curve $-1 -1 $-1 -1.7763568394002505e-015 0 1.7763568394002505e-015 0 1 0 -10.352761804100822 0 -38.637033051562732 1 I I #
convexity-sys-attrib $-1 -1 $-1 $415 $295 #
point $-1 -1 $-1 -10.352761804100824 0 -38.637033051562732 #
coedge $-1 -1 $-1 $523 $525 $418 $540 reversed $403 $-1 #
edge $645 -1 $-1 $544 3.4987399751152551e-015 $562 66.313230618071174 $418 $646 forward @7 unknown #
coedge $-1 -1 $-1 $647 $419 $422 $547 forward $521 $-1 #
coedge $-1 -1 $-1 $419 $647 $523 $634 reversed $521 $-1 #
attrib_edge_convexity-kcp-attrib $-1 -1 $648 $-1 $420 1 #
vertex $-1 -1 $-1 $540 $649 #
ellipse-curve $-1 -1 $-1 230 20 7.1054273576010019e-015 0 -1 0 -77.134513162384479 0 91.925333174277569 1 I I #
coedge $-1 -1 $-1 $422 $421 $650 $651 forward $423 $-1 #
edge $652 -1 $-1 $425 0 $653 20 $541 $654 forward @7 unknown #
convexity-sys-attrib $-1 -1 $-1 $424 $300 #
point $-1 -1 $-1 152.86548683761552 20 91.925333174277569 #
coedge $-1 -1 $-1 $432 $650 $427 $551 reversed $113 $-1 #
edge $655 -1 $-1 $435 0 $553 66.219307230001647 $427 $656 forward @7 unknown #
attrib_edge_convexity-kcp-attrib $-1 -1 $657 $-1 $428 1 #
vertex $-1 -1 $-1 $651 $658 #
straight-curve $-1 -1 $-1 133.58185854701941 20 114.90666646784695 0 -1 0 I I #
model_id-kcp-attrib $-1 -1 $-1 $-1 $429 1 1021469479 1021469479 127139841 12 #
plane-surface $-1 -1 $-1 108.21839238165379 10 93.624191363111365 -0.64278760968653736 0 0.76604444311897979 0.76604444311897979 0 0.64278760968653736 forward_v I I I I #
attrib_edge_convexity-kcp-attrib $-1 -1 $659 $-1 $433 1 #
ellipse-curve $-1 -1 $-1 25.004041344499548 0 141.28571613908423 0 -1 0 23.293714059226808 0 -86.933324366016564 1 I I #
convexity-sys-attrib $-1 -1 $-1 $434 $308 #
point $-1 -1 $-1 82.854926216288163 0 72.341716258375769 #
attrib_edge_convexity-kcp-attrib $-1 -1 $660 $-1 $440 1 #
vertex $-1 -1 $-1 $440 $661 #
straight-curve $-1 -1 $-1 123.33824129057025 20 -86.143564959995032 -0.98480775301220735 0 -0.17364817766693413 I I #
convexity-sys-attrib $-1 -1 $-1 $441 $314 #
point $-1 -1 $-1 98.718047465265059 20 -90.484769401668387 #
convexity-sys-attrib $-1 -1 $-1 $446 $320 #
convexity-sys-attrib $-1 -1 $-1 $450 $325 #
face $-1 -1 $-1 $367 $610 $20 $-1 $662 reversed single #
loop $-1 -1 $-1 $-1 $663 $456 #
plane-surface $-1 -1 $-1 42.285304046457298 10 -102.69571793475768 0.17364817766693416 0 -0.98480775301220747 0 1 0 forward_v I I I I #
coedge $-1 -1 $-1 $464 $664 $466 $592 reversed $457 $-1 #
coedge $-1 -1 $-1 $665 $458 $666 $667 reversed $335 $-1 #
coedge $-1 -1 $-1 $458 $665 $668 $669 forward $335 $-1 #
coedge $-1 -1 $-1 $582 $670 $458 $575 forward $583 $-1 #
edge $-1 -1 $-1 $601 -1.3089969389957474 $671 -3.1974423109204507e-016 $574 $672 forward @7 unknown #
coedge $-1 -1 $-1 $460 $459 $673 $674 reversed $219 $-1 #
coedge $-1 -1 $-1 $675 $676 $459 $578 reversed $623 $-1 #
edge $-1 -1 $-1 $584 0 $677 20 $577 $678 forward @7 unknown #
coedge $-1 -1 $-1 $679 $680 $681 $580 forward $604 $-1 #
edge $-1 -1 $-1 $585 0 $682 20 $579 $683 forward @7 unknown #
coedge $-1 -1 $-1 $670 $461 $680 $684 reversed $583 $-1 #
coedge $-1 -1 $-1 $461 $574 $675 $685 forward $583 $-1 #
loop $-1 -1 $-1 $-1 $461 $508 #
vertex $-1 -1 $-1 $462 $686 #
vertex $-1 -1 $-1 $687 $688 #
ellipse-curve $-1 -1 $-1 5.0144819989136593 10 -109.26756945492369 0 1 0 37.270822047543639 0 6.571851520166021 1 I I #
coedge $-1 -1 $-1 $469 $689 $463 $588 forward $475 $-1 #
edge $-1 -1 $-1 $590 -59.194876894848122 $471 1.5246065391470431 $587 $690 forward @7 unknown #
coedge $-1 -1 $-1 $664 $464 $689 $691 reversed $457 $-1 #
vertex $-1 -1 $-1 $588 $692 #
straight-curve $-1 -1 $-1 -66.785505222908583 10 26.426084518473445 0 -1 0 I I #
edge $-1 -1 $-1 $467 -2.6179938779914949 $601 -1.3089969389957474 $466 $672 forward @7 unknown #
point $-1 -1 $-1 -66.785505222908583 10 26.426084518473445 #
ellipse-curve $-1 -1 $-1 -31.428702074308219 -10 129.07476760599496 0 -1 0 23.293714059226815 0 -86.933324366016592 1 I I #
point $-1 -1 $-1 -8.1349880150814045 -10 42.141443239978372 #
coedge $-1 -1 $-1 $689 $474 $693 $694 forward $475 $-1 #
face $-1 -1 $-1 $484 $475 $20 $-1 $607 reversed single #
coedge $-1 -1 $-1 $693 $478 $664 $667 reversed $600 $-1 #
coedge $-1 -1 $-1 $478 $693 $480 $603 reversed $600 $-1 #
loop $-1 -1 $-1 $-1 $598 $695 #
vertex $-1 -1 $-1 $696 $697 #
straight-curve $-1 -1 $-1 -96.43274341880776 10 0 0 0 -1 I I #
edge $-1 -1 $-1 $383 -10 $628 10 $599 $698 forward @7 unknown #
loop $-1 -1 $-1 $-1 $579 $481 #
plane-surface $-1 -1 $-1 0 0 -102.69571793475768 0 0 1 1 0 0 forward_v I I I I #
face $-1 -1 $-1 $699 $494 $20 $-1 $607 reversed single #
plane-surface $-1 -1 $-1 0 -10 0 0 1 0 0 0 1 forward_v I I I I #
coedge $-1 -1 $-1 $700 $485 $488 $614 reversed $610 $-1 #
coedge $-1 -1 $-1 $485 $700 $492 $618 reversed $610 $-1 #
loop $-1 -1 $-1 $-1 $608 $568 #
straight-curve $-1 -1 $-1 55.390326219727342 10 -33.048729853121301 0 -1 0 I I #
coedge $-1 -1 $-1 $613 $487 $701 $687 reversed $489 $-1 #
coedge $-1 -1 $-1 $488 $612 $663 $702 forward $489 $-1 #
edge $-1 -1 $-1 $703 -54.239152606531832 $490 12.074078011539363 $488 $704 forward @7 unknown #
face $-1 -1 $-1 $249 $489 $20 $-1 $381 reversed single #
point $-1 -1 $-1 55.390326219727342 10 -33.048729853121301 #
coedge $-1 -1 $-1 $619 $492 $705 $706 forward $494 $-1 #
edge $-1 -1 $-1 $495 -12.074078011539363 $707 54.239152606531832 $492 $708 forward @7 unknown #
coedge $-1 -1 $-1 $493 $617 $709 $710 reversed $494 $-1 #
point $-1 -1 $-1 55.390326219727342 -10 -33.048729853121301 #
coedge $-1 -1 $-1 $709 $701 $497 $512 forward $711 $-1 #
plane-surface $-1 -1 $-1 96.43274341880776 0 0 -1 0 0 0 0 1 forward_v I I I I #
loop $-1 -1 $-1 $-1 $675 $499 #
plane-surface $-1 -1 $-1 -66.785505222908597 10 -50.847981584652018 -0.25881904510252046 0 -0.96592582628906842 0 1 0 forward_v I I I I #
point $-1 -1 $-1 96.43274341880776 -10 -102.69571793475768 #
straight-curve $-1 -1 $-1 96.43274341880776 0 102.69571793475768 0 1 0 I I #
point $-1 -1 $-1 96.43274341880776 -10 102.69571793475768 #
vertex $-1 -1 $-1 $603 $712 #
face $-1 -1 $-1 $713 $711 $20 $-1 $605 reversed single #
straight-curve $-1 -1 $-1 96.43274341880776 0 -102.69571793475768 0 -1 0 I I #
model_id-kcp-attrib $-1 -1 $-1 $-1 $520 1 1021469479 1021469479 127139841 11 #
plane-surface $-1 -1 $-1 143.22367269231745 10 103.41599982106226 0.7660444431189799 0 0.64278760968653725 0.64278760968653725 0 -0.7660444431189799 forward_v I I I I #
coedge $-1 -1 $-1 $525 $523 $532 $641 forward $403 $-1 #
edge $714 -1 $-1 $544 0 $715 20 $523 $716 forward @7 unknown #
attrib_edge_convexity-kcp-attrib $-1 -1 $717 $-1 $526 1 #
vertex $-1 -1 $-1 $533 $718 #
straight-curve $-1 -1 $-1 123.33824129057025 20 -86.143564959995032 0 -1 0 I I #
convexity-sys-attrib $-1 -1 $-1 $527 $408 #
point $-1 -1 $-1 98.718047465265059 0 -90.484769401668373 #
coedge $-1 -1 $-1 $650 $532 $647 $719 reversed $113 $-1 #
edge $720 -1 $-1 $715 -1.6462648924845395e-014 $636 66.313230618071174 $633 $721 forward @7 unknown #
attrib_edge_convexity-kcp-attrib $-1 -1 $722 $-1 $533 1 #
straight-curve $-1 -1 $-1 123.33824129057025 0 -86.143564959995032 -0.98480775301220735 0 -0.17364817766693413 I I #
convexity-sys-attrib $-1 -1 $-1 $534 $413 #
attrib_edge_convexity-kcp-attrib $-1 -1 $723 $-1 $540 1 #
straight-curve $-1 -1 $-1 111.8230696385351 20 -20.837781320032036 0.17364817766693338 0 -0.98480775301220758 I I #
coedge $-1 -1 $-1 $542 $541 $640 $719 forward $521 $-1 #
convexity-sys-attrib $-1 -1 $-1 $543 $420 #
point $-1 -1 $-1 111.8230696385351 20 -20.83778132003204 #
coedge $-1 -1 $-1 $550 $640 $546 $651 reversed $113 $-1 #
edge $724 -1 $-1 $553 -1.088614628655165e-014 $653 30.000000000000004 $546 $725 forward @7 unknown #
attrib_edge_convexity-kcp-attrib $-1 -1 $726 $-1 $547 1 #
vertex $-1 -1 $-1 $719 $727 #
straight-curve $-1 -1 $-1 152.86548683761552 20 91.925333174277554 0 -1 0 I I #
attrib_edge_convexity-kcp-attrib $-1 -1 $728 $-1 $551 1 #
straight-curve $-1 -1 $-1 82.854926216288163 0 72.341716258375769 0.76604444311897979 0 0.64278760968653725 I I #
convexity-sys-attrib $-1 -1 $-1 $552 $428 #
point $-1 -1 $-1 133.58185854701941 0 114.90666646784696 #
convexity-sys-attrib $-1 -1 $-1 $557 $433 #
convexity-sys-attrib $-1 -1 $-1 $561 $440 #
point $-1 -1 $-1 123.33824129057025 20 -86.143564959995032 #
plane-surface $-1 -1 $-1 66.905497871762492 10 -98.354513493084312 0.98480775301220758 0 0.17364817766693336 0 1 0 forward_v I I I I #
coedge $-1 -1 $-1 $729 $730 $613 $702 reversed $569 $-1 #
coedge $-1 -1 $-1 $571 $589 $572 $667 forward $457 $-1 #
coedge $-1 -1 $-1 $573 $572 $731 $732 reversed $335 $-1 #
coedge $-1 -1 $-1 $733 $734 $598 $667 forward $735 $-1 #
edge $-1 -1 $-1 $736 -20 $601 0 $666 $737 forward @7 unknown #
coedge $-1 -1 $-1 $676 $675 $573 $669 reversed $623 $-1 #
edge $-1 -1 $-1 $738 -20 $671 0 $668 $739 forward @7 unknown #
coedge $-1 -1 $-1 $574 $581 $733 $696 reversed $583 $-1 #
vertex $-1 -1 $-1 $575 $740 #
ellipse-curve $-1 -1 $-1 -56.43274341880776 10 -12.210948533089287 0 -1 0 -10.352761804100822 0 -38.637033051562732 1 I I #
coedge $-1 -1 $-1 $741 $742 $576 $674 forward $743 $-1 #
edge $-1 -1 $-1 $682 -3.7702380373594602e-016 $677 1.1344640137963093 $673 $744 forward @7 unknown #
coedge $-1 -1 $-1 $668 $577 $582 $685 reversed $623 $-1 #
coedge $-1 -1 $-1 $577 $668 $741 $745 reversed $623 $-1 #
vertex $-1 -1 $-1 $674 $746 #
straight-curve $-1 -1 $-1 14.809691818318555 10 -72.711348738107134 0 -1 0 I I #
coedge $-1 -1 $-1 $747 $579 $742 $748 forward $604 $-1 #
coedge $-1 -1 $-1 $579 $747 $581 $684 forward $604 $-1 #
coedge $-1 -1 $-1 $701 $709 $729 $580 reversed $711 $-1 #
vertex $-1 -1 $-1 $748 $749 #
straight-curve $-1 -1 $-1 42.285304046457298 10 -102.69571793475768 0 -1 0 I I #
edge $-1 -1 $-1 $750 -96.43274341880776 $585 42.285304046457298 $581 $751 forward @7 unknown #
edge $-1 -1 $-1 $671 -25.674709138720349 $584 58.798854793929408 $582 $752 forward @7 unknown #
point $-1 -1 $-1 14.809691818318555 10 -72.711348738107134 #
edge $-1 -1 $-1 $585 42.285304046457298 $382 96.43274341880776 $612 $751 forward @7 unknown #
point $-1 -1 $-1 42.285304046457298 10 -102.69571793475768 #
coedge $-1 -1 $-1 $587 $596 $589 $691 forward $475 $-1 #
straight-curve $-1 -1 $-1 -9.6076448461727306 -10 41.746846031359283 0.96592582628906853 0 0.2588190451025203 I I #
edge $-1 -1 $-1 $736 1.3089969389957474 $590 2.6179938779914949 $689 $753 forward @7 unknown #
point $-1 -1 $-1 -66.785505222908583 -10 26.426084518473445 #
coedge $-1 -1 $-1 $599 $598 $596 $694 reversed $600 $-1 #
edge $-1 -1 $-1 $628 -102.69571793475768 $736 12.210948533089287 $693 $754 forward @7 unknown #
face $-1 -1 $-1 $507 $600 $20 $-1 $755 reversed single #
edge $-1 -1 $-1 $601 12.210948533089287 $750 102.69571793475768 $670 $602 forward @7 unknown #
point $-1 -1 $-1 -96.43274341880776 10 -12.210948533089287 #
straight-curve $-1 -1 $-1 -96.43274341880776 0 102.69571793475768 0 -1 0 I I #
face $-1 -1 $-1 $695 $743 $20 $-1 $607 reversed single #
coedge $-1 -1 $-1 $609 $608 $730 $756 forward $610 $-1 #
coedge $-1 -1 $-1 $621 $681 $612 $687 forward $711 $-1 #
edge $-1 -1 $-1 $585 11.904985494930731 $703 36.904985494930742 $613 $757 forward @7 unknown #
vertex $-1 -1 $-1 $702 $758 #
straight-curve $-1 -1 $-1 57.486967863439546 10 -44.939375489359485 -0.17364817766693336 0 0.98480775301220758 I I #
coedge $-1 -1 $-1 $730 $729 $617 $706 reversed $569 $-1 #
edge $-1 -1 $-1 $707 -36.904985494930742 $682 -11.904985494930731 $617 $759 forward @7 unknown #
vertex $-1 -1 $-1 $706 $760 #
straight-curve $-1 -1 $-1 57.486967863439546 -10 -44.939375489359485 0.17364817766693336 0 -0.98480775301220758 I I #
coedge $-1 -1 $-1 $681 $621 $619 $710 forward $711 $-1 #
edge $-1 -1 $-1 $501 -96.43274341880776 $682 -42.285304046457298 $619 $761 forward @7 unknown #
loop $-1 -1 $-1 $-1 $681 $629 #
point $-1 -1 $-1 -96.43274341880776 -10 102.69571793475768 #
face $-1 -1 $-1 $511 $735 $20 $-1 $755 reversed single #
attrib_edge_convexity-kcp-attrib $-1 -1 $762 $-1 $634 4 #
vertex $-1 -1 $-1 $641 $763 #
straight-curve $-1 -1 $-1 111.8230696385351 20 -20.837781320032022 0 -1 0 I I #
convexity-sys-attrib $-1 -1 $-1 $635 $526 #
point $-1 -1 $-1 123.33824129057025 0 -86.143564959995032 #
edge $764 -1 $-1 $653 1.8947806286936006e-016 $715 1.0471975511966036 $647 $765 forward @7 unknown #
attrib_edge_convexity-kcp-attrib $-1 -1 $766 $-1 $641 1 #
straight-curve $-1 -1 $-1 111.8230696385351 0 -20.837781320032036 0.17364817766693338 0 -0.98480775301220758 I I #
convexity-sys-attrib $-1 -1 $-1 $642 $533 #
convexity-sys-attrib $-1 -1 $-1 $645 $540 #
attrib_edge_convexity-kcp-attrib $-1 -1 $767 $-1 $651 1 #
straight-curve $-1 -1 $-1 133.58185854701941 0 114.90666646784695 0.64278760968653714 0 -0.76604444311897979 I I #
convexity-sys-attrib $-1 -1 $-1 $652 $547 #
point $-1 -1 $-1 152.86548683761552 0 91.925333174277554 #
convexity-sys-attrib $-1 -1 $-1 $655 $551 #
coedge $-1 -1 $-1 $705 $663 $460 $580 forward $569 $-1 #
coedge $-1 -1 $-1 $663 $705 $700 $756 reversed $569 $-1 #
coedge $-1 -1 $-1 $768 $741 $665 $732 forward $743 $-1 #
edge $-1 -1 $-1 $738 3.1974423109204507e-016 $736 1.3089969389957474 $731 $753 forward @7 unknown #
coedge $-1 -1 $-1 $769 $666 $670 $696 forward $735 $-1 #
coedge $-1 -1 $-1 $666 $769 $768 $770 reversed $735 $-1 #
loop $-1 -1 $-1 $-1 $666 $713 #
vertex $-1 -1 $-1 $770 $771 #
straight-curve $-1 -1 $-1 -96.43274341880776 10 -12.210948533089287 0 1 0 I I #
vertex $-1 -1 $-1 $732 $772 #
straight-curve $-1 -1 $-1 -66.785505222908597 10 -50.847981584652018 0 1 0 I I #
point $-1 -1 $-1 -66.785505222908597 10 -50.847981584652018 #
coedge $-1 -1 $-1 $731 $673 $676 $745 forward $743 $-1 #
coedge $-1 -1 $-1 $673 $768 $679 $748 reversed $743 $-1 #
loop $-1 -1 $-1 $-1 $673 $699 #
ellipse-curve $-1 -1 $-1 5.0144819989136593 -10 -109.26756945492369 0 -1 0 37.270822047543639 0 6.571851520166021 1 I I #
edge $-1 -1 $-1 $677 -58.798854793929408 $738 25.674709138720349 $741 $773 forward @7 unknown #
point $-1 -1 $-1 14.809691818318555 -10 -72.711348738107134 #
coedge $-1 -1 $-1 $680 $679 $769 $774 forward $604 $-1 #
edge $-1 -1 $-1 $682 -42.285304046457298 $775 96.43274341880776 $742 $761 forward @7 unknown #
point $-1 -1 $-1 42.285304046457298 -10 -102.69571793475768 #
vertex $-1 -1 $-1 $684 $776 #
straight-curve $-1 -1 $-1 0 10 -102.69571793475768 1 0 0 I I #
straight-curve $-1 -1 $-1 -41.985640583358652 10 -57.49308528722058 0.96592582628906842 0 -0.25881904510252046 I I #
ellipse-curve $-1 -1 $-1 -56.43274341880776 -10 -12.210948533089287 0 1 0 -10.352761804100822 0 -38.637033051562732 1 I I #
straight-curve $-1 -1 $-1 -96.43274341880776 -10 0 0 0 -1 I I #
plane-surface $-1 -1 $-1 -96.43274341880776 0 0 1 0 0 0 0 -1 forward_v I I I I #
edge $-1 -1 $-1 $703 0 $707 20 $730 $777 forward @7 unknown #
straight-curve $-1 -1 $-1 30.561182031551645 10 -104.76299697110369 0.98480775301220747 0 0.17364817766693416 I I #
point $-1 -1 $-1 66.905497871762492 10 -98.354513493084312 #
straight-curve $-1 -1 $-1 30.561182031551645 -10 -104.76299697110369 -0.98480775301220747 0 -0.17364817766693416 I I #
point $-1 -1 $-1 66.905497871762492 -10 -98.354513493084312 #
straight-curve $-1 -1 $-1 0 -10 -102.69571793475768 -1 0 0 I I #
convexity-sys-attrib $-1 -1 $-1 $714 $634 #
point $-1 -1 $-1 111.82306963853509 0 -20.837781320032022 #
attrib_edge_convexity-kcp-attrib $-1 -1 $778 $-1 $719 1 #
ellipse-curve $-1 -1 $-1 230 0 7.1054273576010019e-015 0 -1 0 -77.134513162384479 0 91.925333174277569 1 I I #
convexity-sys-attrib $-1 -1 $-1 $720 $641 #
convexity-sys-attrib $-1 -1 $-1 $724 $651 #
coedge $-1 -1 $-1 $742 $731 $734 $770 forward $743 $-1 #
coedge $-1 -1 $-1 $734 $733 $747 $774 reversed $735 $-1 #
edge $-1 -1 $-1 $736 12.210948533089287 $775 102.69571793475768 $734 $754 forward @7 unknown #
point $-1 -1 $-1 -96.43274341880776 -10 -12.210948533089287 #
point $-1 -1 $-1 -66.785505222908597 -10 -50.847981584652018 #
straight-curve $-1 -1 $-1 -41.985640583358652 -10 -57.49308528722058 -0.96592582628906842 0 0.25881904510252046 I I #
edge $-1 -1 $-1 $775 -10 $750 10 $769 $779 forward @7 unknown #
vertex $-1 -1 $-1 $774 $780 #
point $-1 -1 $-1 -96.43274341880776 10 -102.69571793475768 #
straight-curve $-1 -1 $-1 66.905497871762492 10 -98.354513493084312 0 -1 0 I I #
convexity-sys-attrib $-1 -1 $-1 $764 $719 #
straight-curve $-1 -1 $-1 -96.43274341880776 0 -102.69571793475768 0 1 0 I I #
point $-1 -1 $-1 -96.43274341880776 -10 -102.69571793475768 #
End-of-ACIS-data 