600 0 1 0           
103 GICL Pro/E ACIS Translator - Source: f:/data5/repository/PTC/V20/NC_Training_Rel20/DXF/part_4.prt - 6 0 13 ACIS 6.0.3 NT 24 Thu Apr 04 13:13:53 2002 
1 9.9999999999999995e-007 1e-010 
body $-1 $1 $-1 $-1 #
lump $-1 $-1 $2 $0 #
shell $-1 $-1 $-1 $3 $-1 $1 #
face $-1 $4 $5 $2 $-1 $6 forward single #
face $-1 $7 $8 $2 $-1 $9 forward single #
loop $-1 $10 $11 $3 #
plane-surface $-1 0 0 0 0 0 1 1 0 0 forward_v I I I I #
face $-1 $12 $13 $2 $-1 $14 forward single #
loop $-1 $-1 $15 $4 #
plane-surface $-1 -5.0800000000000001 -2.5399999999999996 -0.254 0 -1 0 1 0 0 forward_v I I I I #
loop $-1 $16 $17 $3 #
coedge $-1 $18 $19 $20 $21 forward $5 $-1 #
face $-1 $22 $23 $2 $-1 $24 forward single #
loop $-1 $-1 $25 $7 #
cone-surface $-1 -10.16 -1.2699999999999998 -0.254 0 0 1 0 1.2699999999999998 0 1 I I 0 1 1.2699999999999998 forward I I I I #
coedge $-1 $26 $20 $27 $28 forward $8 $-1 #
loop $-1 $29 $30 $3 #
coedge $-1 $31 $31 $32 $33 forward $10 $-1 #
coedge $-1 $34 $11 $35 $36 forward $5 $-1 #
coedge $-1 $11 $34 $37 $38 forward $5 $-1 #
coedge $-1 $15 $39 $11 $21 reversed $8 $-1 #
edge $-1 $40 0 $41 10.16 $11 $42 forward 7 unknown #
face $-1 $43 $44 $2 $-1 $45 forward single #
loop $-1 $-1 $46 $12 #
plane-surface $-1 -5.0800000000000001 0 -0.254 0 1 0 -1 0 0 forward_v I I I I #
coedge $-1 $47 $37 $48 $49 forward $13 $-1 #
coedge $-1 $39 $15 $50 $51 forward $8 $-1 #
coedge $-1 $37 $47 $15 $28 reversed $13 $-1 #
edge $-1 $40 0 $52 0.50800000000000001 $27 $53 forward 7 unknown #
loop $-1 $-1 $54 $3 #
coedge $-1 $55 $55 $56 $57 forward $16 $-1 #
coedge $-1 $17 $17 $58 $59 forward $10 $-1 #
coedge $-1 $60 $61 $17 $33 reversed $62 $-1 #
edge $-1 $63 0 $64 3.1415926535897931 $17 $65 forward 7 unknown #
coedge $-1 $19 $18 $66 $67 forward $5 $-1 #
coedge $-1 $68 $69 $18 $36 reversed $44 $-1 #
edge $-1 $41 0 $70 3.1415926535897931 $18 $71 forward 7 unknown #
coedge $-1 $25 $27 $19 $38 reversed $13 $-1 #
edge $-1 $72 0 $40 3.1415926535897931 $19 $73 forward 7 unknown #
coedge $-1 $20 $26 $68 $74 reversed $8 $-1 #
vertex $-1 $38 $75 #
vertex $-1 $36 $76 #
straight-curve $-1 -10.16 -2.5399999999999996 0 1 0 0 I I #
face $-1 $77 $78 $2 $-1 $79 reversed single #
loop $-1 $-1 $68 $22 #
cone-surface $-1 0 -1.2699999999999998 -0.254 0 0 1 0 -1.2699999999999998 0 1 I I 0 1 1.2699999999999998 forward I I I I #
coedge $-1 $80 $66 $69 $81 forward $23 $-1 #
coedge $-1 $27 $25 $82 $83 forward $13 $-1 #
coedge $-1 $66 $80 $25 $49 reversed $23 $-1 #
edge $-1 $72 0 $84 0.50800000000000001 $25 $85 forward 7 unknown #
coedge $-1 $82 $86 $26 $51 reversed $78 $-1 #
edge $-1 $52 0 $87 10.16 $26 $88 forward 7 unknown #
vertex $-1 $28 $89 #
straight-curve $-1 -10.16 -2.5399999999999996 0 0 0 -1 I I #
coedge $-1 $90 $91 $92 $93 forward $29 $-1 #
coedge $-1 $30 $30 $94 $95 forward $16 $-1 #
coedge $-1 $96 $97 $30 $57 reversed $98 $-1 #
edge $-1 $99 0 $100 3.1415926535897931 $30 $101 forward 7 unknown #
coedge $-1 $102 $103 $31 $59 reversed $104 $-1 #
edge $-1 $64 0 $63 3.1415926535897931 $31 $105 forward 7 unknown #
coedge $-1 $106 $32 $103 $107 forward $62 $-1 #
coedge $-1 $32 $106 $102 $108 reversed $62 $-1 #
loop $-1 $-1 $60 $77 #
vertex $-1 $59 $109 #
vertex $-1 $59 $110 #
ellipse-curve $-1 0 -1.2699999999999998 0 0 0 -1 0.31749999999999995 0 0 1 I I #
coedge $-1 $46 $48 $34 $67 reversed $23 $-1 #
edge $-1 $70 0 $72 10.16 $34 $111 forward 7 unknown #
coedge $-1 $112 $35 $39 $74 forward $44 $-1 #
coedge $-1 $35 $112 $46 $81 reversed $44 $-1 #
vertex $-1 $67 $113 #
ellipse-curve $-1 -1.1102230246251565e-016 -1.27 0 0 0 1 1.1102230246251565e-016 -1.2699999999999996 0 1 I I #
vertex $-1 $38 $114 #
ellipse-curve $-1 -10.16 -1.2699999999999998 0 0 0 1 0 1.2699999999999998 0 1 I I #
edge $-1 $41 0 $87 0.50800000000000001 $68 $115 forward 7 unknown #
point $-1 -10.16 -2.5399999999999996 0 #
point $-1 0 -2.5399999999999996 0 #
face $-1 $116 $62 $2 $-1 $117 reversed single #
loop $-1 $118 $119 $43 #
plane-surface $-1 0 0 -0.50800000000000001 0 0 1 1 0 0 forward_v I I I I #
coedge $-1 $48 $46 $119 $120 forward $23 $-1 #
edge $-1 $70 0 $121 0.50800000000000001 $46 $122 forward 7 unknown #
coedge $-1 $119 $50 $47 $83 reversed $78 $-1 #
edge $-1 $84 0 $52 3.1415926535897931 $47 $123 forward 7 unknown #
vertex $-1 $83 $124 #
straight-curve $-1 -10.16 0 0 0 0 -1 I I #
coedge $-1 $50 $119 $112 $125 reversed $78 $-1 #
vertex $-1 $125 $126 #
straight-curve $-1 -10.16 -2.5399999999999996 -0.50800000000000001 1 0 0 I I #
point $-1 -10.16 -2.5399999999999996 -0.50800000000000001 #
coedge $-1 $127 $54 $128 $129 forward $29 $-1 #
coedge $-1 $54 $130 $131 $132 forward $29 $-1 #
coedge $-1 $133 $134 $54 $93 reversed $135 $-1 #
edge $-1 $136 0 $137 0.44449999999999967 $54 $138 forward 7 unknown #
coedge $-1 $139 $140 $55 $95 reversed $141 $-1 #
edge $-1 $100 0 $99 3.1415926535897931 $55 $142 forward 7 unknown #
coedge $-1 $143 $56 $140 $144 forward $98 $-1 #
coedge $-1 $56 $143 $139 $145 reversed $98 $-1 #
loop $-1 $-1 $96 $146 #
vertex $-1 $95 $147 #
vertex $-1 $95 $148 #
ellipse-curve $-1 -10.16 -1.2699999999999998 0 0 0 -1 0.31750000000000078 0 0 1 I I #
coedge $-1 $149 $58 $61 $108 forward $104 $-1 #
coedge $-1 $58 $149 $60 $107 reversed $104 $-1 #
loop $-1 $-1 $102 $116 #
ellipse-curve $-1 0 -1.2699999999999998 0 0 0 -1 -0.31749999999999995 0 0 1 I I #
coedge $-1 $61 $60 $150 $151 forward $62 $-1 #
edge $-1 $63 0 $152 0.50800000000000001 $103 $153 forward 7 unknown #
edge $-1 $64 0 $154 0.50800000000000001 $102 $155 forward 7 unknown #
point $-1 0.31749999999999995 -1.2699999999999998 0 #
point $-1 -0.31749999999999995 -1.2699999999999998 0 #
straight-curve $-1 0 0 0 -1 0 0 I I #
coedge $-1 $69 $68 $86 $125 forward $44 $-1 #
point $-1 0 0 0 #
point $-1 -10.16 0 0 #
straight-curve $-1 0 -2.5399999999999996 0 0 0 -1 I I #
face $-1 $146 $104 $2 $-1 $156 reversed single #
cone-surface $-1 0 -1.2699999999999998 0 0 0 -1 -0.31749999999999995 0 0 1 I I 0 1 0.31749999999999995 forward I I I I #
loop $-1 $157 $150 $43 #
coedge $-1 $86 $82 $80 $120 reversed $78 $-1 #
edge $-1 $121 -1.5552500693544188e-016 $84 10.16 $80 $158 forward 7 unknown #
vertex $-1 $120 $159 #
straight-curve $-1 0 0 0 0 0 -1 I I #
ellipse-curve $-1 -10.16 -1.2699999999999998 -0.50800000000000001 0 0 1 0 1.2699999999999998 0 1 I I #
point $-1 -10.16 0 -0.50800000000000001 #
edge $-1 $87 0 $121 3.1415926535897931 $112 $160 forward 7 unknown #
point $-1 0 -2.5399999999999996 -0.50800000000000001 #
coedge $-1 $161 $90 $162 $163 forward $29 $-1 #
coedge $-1 $164 $165 $90 $129 reversed $166 $-1 #
edge $-1 $137 0 $167 0.25399999999999967 $90 $168 forward 7 unknown #
coedge $-1 $91 $169 $170 $171 forward $29 $-1 #
coedge $-1 $172 $173 $91 $132 reversed $174 $-1 #
edge $-1 $175 1.3060035223834054e-016 $136 0.86369337730470064 $91 $176 forward 7 unknown #
coedge $-1 $177 $92 $173 $178 forward $135 $-1 #
coedge $-1 $92 $177 $164 $179 reversed $135 $-1 #
loop $-1 $-1 $133 $180 #
vertex $-1 $132 $181 #
vertex $-1 $129 $182 #
straight-curve $-1 -4.3814999999999991 -0.76199999999999946 0 -1 0 0 I I #
coedge $-1 $183 $94 $97 $145 forward $141 $-1 #
coedge $-1 $94 $183 $96 $144 reversed $141 $-1 #
loop $-1 $-1 $139 $184 #
ellipse-curve $-1 -10.16 -1.2699999999999998 0 0 0 -1 -0.31750000000000078 0 0 1 I I #
coedge $-1 $97 $96 $185 $186 forward $98 $-1 #
edge $-1 $99 0 $187 0.50800000000000001 $140 $188 forward 7 unknown #
edge $-1 $100 0 $189 0.50800000000000001 $139 $190 forward 7 unknown #
face $-1 $184 $98 $2 $-1 $191 reversed single #
point $-1 -9.8424999999999994 -1.2699999999999998 0 #
point $-1 -10.477500000000001 -1.2699999999999998 0 #
coedge $-1 $103 $102 $192 $193 forward $104 $-1 #
coedge $-1 $192 $192 $106 $151 reversed $118 $-1 #
edge $-1 $152 0 $154 3.1415926535897949 $106 $194 forward 7 unknown #
vertex $-1 $107 $195 #
straight-curve $-1 0.31749999999999995 -1.2699999999999998 0 0 0 -1 I I #
vertex $-1 $193 $196 #
straight-curve $-1 -0.31749999999999995 -1.2699999999999998 0 0 0 -1 I I #
cone-surface $-1 0 -1.2699999999999998 0 0 0 -1 -0.31749999999999995 0 0 1 I I 0 1 0.31749999999999995 forward I I I I #
loop $-1 $197 $185 $43 #
straight-curve $-1 0 0 -0.50800000000000001 -1 0 0 I I #
point $-1 1.5552500693544188e-016 0 -0.50800000000000001 #
ellipse-curve $-1 -1.1102230246251565e-016 -1.27 -0.50800000000000001 0 0 1 1.1102230246251565e-016 -1.2699999999999996 0 1 I I #
coedge $-1 $198 $127 $199 $200 forward $29 $-1 #
coedge $-1 $201 $202 $127 $163 reversed $203 $-1 #
edge $-1 $167 0 $204 2.4129999999999994 $127 $205 forward 7 unknown #
coedge $-1 $206 $128 $134 $179 forward $166 $-1 #
coedge $-1 $128 $206 $201 $207 reversed $166 $-1 #
loop $-1 $-1 $164 $208 #
vertex $-1 $163 $209 #
straight-curve $-1 -4.8259999999999987 -0.76199999999999946 0 0 -1 0 I I #
coedge $-1 $130 $210 $211 $212 forward $29 $-1 #
coedge $-1 $213 $214 $130 $171 reversed $215 $-1 #
edge $-1 $216 0 $175 0.86369337730470153 $130 $217 forward 7 unknown #
coedge $-1 $218 $131 $214 $219 forward $174 $-1 #
coedge $-1 $131 $218 $133 $178 reversed $174 $-1 #
loop $-1 $-1 $172 $220 #
vertex $-1 $132 $221 #
straight-curve $-1 -5.0799999999999992 -0.25399999999999945 0 0.80873608430318866 -0.58817169767504596 0 I I #
coedge $-1 $134 $133 $222 $223 forward $135 $-1 #
edge $-1 $136 0 $224 0.50800000000000001 $173 $225 forward 7 unknown #
edge $-1 $137 0 $226 0.50800000000000001 $164 $227 forward 7 unknown #
face $-1 $220 $135 $2 $-1 $228 forward single #
point $-1 -4.3814999999999991 -0.76199999999999946 0 #
point $-1 -4.8259999999999987 -0.76199999999999946 0 #
coedge $-1 $140 $139 $229 $230 forward $141 $-1 #
face $-1 $231 $141 $2 $-1 $232 reversed single #
coedge $-1 $229 $229 $143 $186 reversed $157 $-1 #
edge $-1 $187 0 $189 3.1415926535897847 $143 $233 forward 7 unknown #
vertex $-1 $144 $234 #
straight-curve $-1 -9.8424999999999994 -1.2699999999999998 0 0 -4.3709567898628211e-016 -1 I I #
vertex $-1 $230 $235 #
straight-curve $-1 -10.477500000000001 -1.2699999999999998 0 0 0 -1 I I #
cone-surface $-1 -10.16 -1.2699999999999998 0 0 0 -1 -0.31749999999999995 0 0 1 I I 0 1 0.31749999999999995 forward I I I I #
coedge $-1 $150 $150 $149 $193 reversed $118 $-1 #
edge $-1 $154 0 $152 3.1415926535897927 $149 $236 forward 7 unknown #
ellipse-curve $-1 -5.5511151231257827e-017 -1.27 -0.50800000000000001 0 0 -1 0.3175 2.2204460492503131e-016 0 1 I I #
point $-1 0.31749999999999995 -1.2699999999999998 -0.50800000000000001 #
point $-1 -0.31749999999999995 -1.2699999999999996 -0.50800000000000001 #
loop $-1 $-1 $237 $43 #
coedge $-1 $238 $161 $239 $240 forward $29 $-1 #
coedge $-1 $241 $242 $161 $200 reversed $243 $-1 #
edge $-1 $204 0 $244 0.44449999999999956 $161 $245 forward 7 unknown #
coedge $-1 $246 $162 $165 $207 forward $203 $-1 #
coedge $-1 $162 $246 $241 $247 reversed $203 $-1 #
loop $-1 $-1 $201 $248 #
vertex $-1 $200 $249 #
straight-curve $-1 -4.8259999999999987 -1.0159999999999991 0 1 0 0 I I #
coedge $-1 $165 $164 $250 $251 forward $166 $-1 #
edge $-1 $167 0 $252 0.50800000000000001 $201 $253 forward 7 unknown #
face $-1 $180 $166 $2 $-1 $254 forward single #
point $-1 -4.8259999999999987 -1.0159999999999991 0 #
coedge $-1 $169 $255 $256 $257 forward $29 $-1 #
coedge $-1 $258 $259 $169 $212 reversed $260 $-1 #
edge $-1 $261 0 $216 0.44450000000000145 $169 $262 forward 7 unknown #
coedge $-1 $263 $170 $259 $264 forward $215 $-1 #
coedge $-1 $170 $263 $172 $219 reversed $215 $-1 #
loop $-1 $-1 $213 $231 #
vertex $-1 $171 $265 #
straight-curve $-1 -5.7785000000000002 -0.76199999999999946 0 0.808736084303189 0.5881716976750454 0 I I #
coedge $-1 $173 $172 $266 $267 forward $174 $-1 #
edge $-1 $175 0 $268 0.50800000000000001 $172 $269 forward 7 unknown #
face $-1 $-1 $174 $2 $-1 $270 forward single #
point $-1 -5.0799999999999992 -0.25399999999999967 0 #
coedge $-1 $266 $250 $177 $223 reversed $197 $-1 #
edge $-1 $224 0 $226 0.44449999999999967 $222 $271 forward 7 unknown #
vertex $-1 $267 $272 #
straight-curve $-1 -4.3814999999999991 -0.76199999999999946 0 0 0 -1 I I #
vertex $-1 $223 $273 #
straight-curve $-1 -4.8259999999999987 -0.76199999999999946 0 0 0 -1 I I #
plane-surface $-1 -4.6037499999999989 -0.76199999999999946 -0.254 0 1 0 -1 0 0 forward_v I I I I #
coedge $-1 $185 $185 $183 $230 reversed $157 $-1 #
edge $-1 $189 0 $187 3.141592653589782 $183 $274 forward 7 unknown #
face $-1 $275 $215 $2 $-1 $276 forward single #
cone-surface $-1 -10.16 -1.2699999999999998 0 0 0 -1 -0.31749999999999995 0 0 1 I I 0 1 0.31749999999999995 forward I I I I #
ellipse-curve $-1 -10.16 -1.2699999999999985 -0.50800000000000001 0 0 -1 0.31750000000000078 -1.3322676295501878e-015 0 1 I I #
point $-1 -9.8424999999999994 -1.2699999999999998 -0.50800000000000001 #
point $-1 -10.477500000000001 -1.2699999999999998 -0.50800000000000001 #
ellipse-curve $-1 5.5511151231257827e-017 -1.2699999999999998 -0.50800000000000001 0 0 -1 -0.3175 2.2204460492503131e-016 0 1 I I #
coedge $-1 $277 $266 $263 $278 reversed $197 $-1 #
coedge $-1 $279 $198 $280 $281 forward $29 $-1 #
coedge $-1 $282 $283 $198 $240 reversed $284 $-1 #
edge $-1 $244 0 $285 0.86369337730470086 $198 $286 forward 7 unknown #
coedge $-1 $287 $199 $202 $247 forward $243 $-1 #
coedge $-1 $199 $287 $282 $288 reversed $243 $-1 #
loop $-1 $-1 $241 $289 #
vertex $-1 $240 $290 #
straight-curve $-1 -2.4129999999999994 -1.0159999999999991 0 0 1 0 I I #
coedge $-1 $202 $201 $291 $292 forward $203 $-1 #
edge $-1 $204 0 $293 0.50800000000000001 $241 $294 forward 7 unknown #
face $-1 $208 $203 $2 $-1 $295 forward single #
point $-1 -2.4129999999999994 -1.0159999999999991 0 #
coedge $-1 $222 $291 $206 $251 reversed $197 $-1 #
edge $-1 $226 0 $252 0.25399999999999967 $250 $296 forward 7 unknown #
vertex $-1 $251 $297 #
straight-curve $-1 -4.8259999999999987 -1.0159999999999991 0 0 0 -1 I I #
plane-surface $-1 -4.8259999999999987 -0.88899999999999935 -0.254 -1 0 0 0 -1 0 forward_v I I I I #
coedge $-1 $210 $298 $299 $300 forward $29 $-1 #
coedge $-1 $301 $302 $210 $257 reversed $303 $-1 #
edge $-1 $304 0 $261 0.25399999999999967 $210 $305 forward 7 unknown #
coedge $-1 $306 $211 $302 $307 forward $260 $-1 #
coedge $-1 $211 $306 $213 $264 reversed $260 $-1 #
loop $-1 $-1 $258 $275 #
vertex $-1 $212 $308 #
straight-curve $-1 -5.3339999999999987 -0.76199999999999946 0 -1 0 0 I I #
coedge $-1 $214 $213 $237 $278 forward $215 $-1 #
edge $-1 $216 0 $309 0.50800000000000001 $213 $310 forward 7 unknown #
point $-1 -5.7785000000000002 -0.76199999999999946 0 #
coedge $-1 $237 $222 $218 $267 reversed $197 $-1 #
edge $-1 $268 1.3060035223834054e-016 $224 0.86369337730470064 $266 $311 forward 7 unknown #
vertex $-1 $267 $312 #
straight-curve $-1 -5.0799999999999992 -0.25399999999999945 0 0 0 -1 I I #
plane-surface $-1 -4.7307499999999987 -0.50799999999999956 -0.254 -0.58817169767504596 -0.80873608430318866 0 0.80873608430318866 -0.58817169767504596 0 forward_v I I I I #
straight-curve $-1 -4.3814999999999991 -0.76199999999999946 -0.50800000000000001 -1 0 0 I I #
point $-1 -4.3814999999999991 -0.76199999999999946 -0.50800000000000001 #
point $-1 -4.8259999999999987 -0.76199999999999946 -0.50800000000000001 #
ellipse-curve $-1 -10.16 -1.2700000000000016 -0.50800000000000001 0 0 -1 -0.31750000000000078 1.7763568394002505e-015 0 1 I I #
face $-1 $313 $260 $2 $-1 $314 forward single #
plane-surface $-1 -5.4292499999999997 -0.50799999999999956 -0.254 0.58817169767504551 -0.80873608430318911 0 0.808736084303189 0.5881716976750454 0 forward_v I I I I #
coedge $-1 $315 $237 $306 $316 reversed $197 $-1 #
edge $-1 $309 0 $268 0.86369337730470153 $237 $317 forward 7 unknown #
coedge $-1 $318 $238 $319 $320 forward $29 $-1 #
coedge $-1 $321 $322 $238 $281 reversed $323 $-1 #
edge $-1 $285 0 $324 0.86369337730470075 $238 $325 forward 7 unknown #
coedge $-1 $326 $239 $242 $288 forward $284 $-1 #
coedge $-1 $239 $326 $321 $327 reversed $284 $-1 #
loop $-1 $-1 $282 $328 #
vertex $-1 $281 $329 #
straight-curve $-1 -2.4129999999999994 -0.57149999999999956 0 0.58817169767504607 -0.80873608430318855 0 I I #
coedge $-1 $242 $241 $330 $331 forward $243 $-1 #
edge $-1 $244 0 $332 0.50800000000000001 $282 $333 forward 7 unknown #
face $-1 $248 $243 $2 $-1 $334 forward single #
point $-1 -2.4129999999999994 -0.57149999999999956 0 #
coedge $-1 $250 $330 $246 $292 reversed $197 $-1 #
edge $-1 $252 0 $293 2.4129999999999994 $291 $335 forward 7 unknown #
vertex $-1 $292 $336 #
straight-curve $-1 -2.4129999999999994 -1.0159999999999991 0 0 0 -1 I I #
plane-surface $-1 -3.6194999999999991 -1.0159999999999991 -0.254 0 -1 0 1 0 0 forward_v I I I I #
straight-curve $-1 -4.8259999999999987 -0.76199999999999946 -0.50800000000000001 0 -1 0 I I #
point $-1 -4.8259999999999987 -1.0159999999999991 -0.50800000000000001 #
coedge $-1 $255 $337 $338 $339 forward $29 $-1 #
coedge $-1 $340 $341 $255 $300 reversed $342 $-1 #
edge $-1 $343 0 $304 2.4130000000000003 $255 $344 forward 7 unknown #
coedge $-1 $345 $256 $341 $346 forward $303 $-1 #
coedge $-1 $256 $345 $258 $307 reversed $303 $-1 #
loop $-1 $-1 $301 $313 #
vertex $-1 $257 $347 #
straight-curve $-1 -5.3339999999999987 -1.0159999999999991 0 0 1 0 I I #
coedge $-1 $259 $258 $277 $316 forward $260 $-1 #
edge $-1 $261 0 $348 0.50800000000000001 $258 $349 forward 7 unknown #
point $-1 -5.3339999999999987 -0.76199999999999946 0 #
vertex $-1 $316 $350 #
straight-curve $-1 -5.7785000000000002 -0.76199999999999946 0 0 0 -1 I I #
straight-curve $-1 -5.0799999999999992 -0.25399999999999945 -0.50800000000000001 0.80873608430318866 -0.58817169767504596 0 I I #
point $-1 -5.0799999999999992 -0.25399999999999967 -0.50800000000000001 #
face $-1 $351 $303 $2 $-1 $352 forward single #
plane-surface $-1 -5.5562499999999995 -0.76199999999999946 -0.254 0 1 0 -1 0 0 forward_v I I I I #
coedge $-1 $353 $277 $345 $354 reversed $197 $-1 #
edge $-1 $348 0 $309 0.44450000000000145 $277 $355 forward 7 unknown #
straight-curve $-1 -5.7785000000000002 -0.76199999999999946 -0.50800000000000001 0.808736084303189 0.5881716976750454 0 I I #
coedge $-1 $356 $279 $357 $358 forward $29 $-1 #
coedge $-1 $359 $360 $279 $320 reversed $361 $-1 #
edge $-1 $324 0 $362 0.44449999999999945 $279 $363 forward 7 unknown #
coedge $-1 $364 $280 $283 $327 forward $323 $-1 #
coedge $-1 $280 $364 $359 $365 reversed $323 $-1 #
loop $-1 $-1 $321 $366 #
vertex $-1 $320 $367 #
straight-curve $-1 -1.9049999999999994 -1.2699999999999998 0 -0.58817169767504618 -0.80873608430318844 0 I I #
coedge $-1 $283 $282 $368 $369 forward $284 $-1 #
edge $-1 $285 0 $370 0.50800000000000001 $321 $371 forward 7 unknown #
face $-1 $289 $284 $2 $-1 $372 forward single #
point $-1 -1.9049999999999994 -1.2699999999999998 0 #
coedge $-1 $291 $368 $287 $331 reversed $197 $-1 #
edge $-1 $293 0 $332 0.4444999999999989 $330 $373 forward 7 unknown #
vertex $-1 $331 $374 #
straight-curve $-1 -2.4129999999999989 -0.57150000000000012 0 0 0 -1 I I #
plane-surface $-1 -2.4129999999999994 -0.79374999999999996 -0.254 1 0 0 0 1 0 forward_v I I I I #
straight-curve $-1 -4.8259999999999987 -1.0159999999999991 -0.50800000000000001 1 0 0 I I #
point $-1 -2.4129999999999994 -1.0159999999999991 -0.50800000000000001 #
coedge $-1 $298 $375 $376 $377 forward $29 $-1 #
coedge $-1 $378 $379 $298 $339 reversed $380 $-1 #
edge $-1 $381 0 $343 0.44449999999999956 $298 $382 forward 7 unknown #
coedge $-1 $383 $299 $379 $384 forward $342 $-1 #
coedge $-1 $299 $383 $301 $346 reversed $342 $-1 #
loop $-1 $-1 $340 $351 #
vertex $-1 $300 $385 #
straight-curve $-1 -7.746999999999999 -1.0159999999999991 0 1 0 0 I I #
coedge $-1 $302 $301 $315 $354 forward $303 $-1 #
edge $-1 $304 0 $386 0.50800000000000001 $301 $387 forward 7 unknown #
point $-1 -5.3339999999999987 -1.0159999999999991 0 #
vertex $-1 $354 $388 #
straight-curve $-1 -5.3339999999999987 -0.76199999999999946 0 0 0 -1 I I #
point $-1 -5.7785000000000002 -0.76199999999999946 -0.50800000000000001 #
face $-1 $389 $342 $2 $-1 $390 forward single #
plane-surface $-1 -5.3339999999999987 -0.88899999999999935 -0.254 1 0 0 0 1 0 forward_v I I I I #
coedge $-1 $391 $315 $383 $392 reversed $197 $-1 #
edge $-1 $386 0 $348 0.25399999999999967 $315 $393 forward 7 unknown #
straight-curve $-1 -5.3339999999999987 -0.76199999999999946 -0.50800000000000001 -1 0 0 I I #
coedge $-1 $394 $318 $395 $396 forward $29 $-1 #
coedge $-1 $397 $398 $318 $358 reversed $399 $-1 #
edge $-1 $362 0 $400 2.4129999999999994 $318 $401 forward 7 unknown #
coedge $-1 $402 $319 $322 $365 forward $361 $-1 #
coedge $-1 $319 $402 $397 $403 reversed $361 $-1 #
loop $-1 $-1 $359 $404 #
vertex $-1 $358 $405 #
straight-curve $-1 -2.4129999999999994 -1.9684999999999997 0 0 1 0 I I #
coedge $-1 $322 $321 $406 $407 forward $323 $-1 #
edge $-1 $324 0 $408 0.50800000000000001 $359 $409 forward 7 unknown #
face $-1 $328 $323 $2 $-1 $410 forward single #
point $-1 -2.4129999999999994 -1.9684999999999997 0 #
coedge $-1 $330 $406 $326 $369 reversed $197 $-1 #
edge $-1 $332 5.3872645298315495e-016 $370 0.86369337730470097 $368 $411 forward 7 unknown #
vertex $-1 $369 $412 #
straight-curve $-1 -1.9049999999999996 -1.27 0 0 0 -1 I I #
plane-surface $-1 -2.1589999999999994 -0.92074999999999974 -0.254 -0.80873608430318866 -0.58817169767504618 0 0.58817169767504618 -0.80873608430318866 0 forward_v I I I I #
straight-curve $-1 -2.4129999999999994 -1.0159999999999991 -0.50800000000000001 0 1 0 I I #
point $-1 -2.4129999999999994 -0.57150000000000023 -0.50800000000000001 #
coedge $-1 $337 $413 $414 $415 forward $29 $-1 #
coedge $-1 $416 $417 $337 $377 reversed $418 $-1 #
edge $-1 $419 -1.7957548432771837e-016 $381 0.86369337730470086 $337 $420 forward 7 unknown #
coedge $-1 $421 $338 $417 $422 forward $380 $-1 #
coedge $-1 $338 $421 $340 $384 reversed $380 $-1 #
loop $-1 $-1 $378 $389 #
vertex $-1 $339 $423 #
straight-curve $-1 -7.746999999999999 -0.57149999999999956 0 0 -1 0 I I #
coedge $-1 $341 $340 $353 $392 forward $342 $-1 #
edge $-1 $343 0 $424 0.50800000000000001 $340 $425 forward 7 unknown #
point $-1 -7.746999999999999 -1.0159999999999991 0 #
vertex $-1 $392 $426 #
straight-curve $-1 -5.3339999999999987 -1.0159999999999991 0 0 0 -1 I I #
point $-1 -5.3339999999999987 -0.76199999999999946 -0.50800000000000001 #
face $-1 $427 $380 $2 $-1 $428 forward single #
plane-surface $-1 -6.5404999999999989 -1.0159999999999991 -0.254 0 -1 0 1 0 0 forward_v I I I I #
coedge $-1 $429 $353 $421 $430 reversed $197 $-1 #
edge $-1 $424 0 $386 2.4130000000000003 $353 $431 forward 7 unknown #
straight-curve $-1 -5.3339999999999987 -1.0159999999999991 -0.50800000000000001 0 1 0 I I #
coedge $-1 $432 $356 $433 $434 forward $29 $-1 #
coedge $-1 $435 $436 $356 $396 reversed $437 $-1 #
edge $-1 $400 0 $438 0.254 $356 $439 forward 7 unknown #
coedge $-1 $440 $357 $360 $403 forward $399 $-1 #
coedge $-1 $357 $440 $435 $441 reversed $399 $-1 #
loop $-1 $-1 $397 $442 #
vertex $-1 $396 $443 #
straight-curve $-1 -2.4129999999999994 -1.5240000000000002 0 -1 0 0 I I #
coedge $-1 $360 $359 $444 $445 forward $361 $-1 #
edge $-1 $362 0 $446 0.50800000000000001 $397 $447 forward 7 unknown #
face $-1 $366 $361 $2 $-1 $448 forward single #
point $-1 -2.4129999999999994 -1.5240000000000002 0 #
coedge $-1 $368 $444 $364 $407 reversed $197 $-1 #
edge $-1 $370 1.7957548432771834e-016 $408 0.86369337730470075 $406 $449 forward 7 unknown #
vertex $-1 $407 $450 #
straight-curve $-1 -2.4129999999999994 -1.9684999999999997 0 0 0 -1 I I #
plane-surface $-1 -2.1589999999999994 -1.6192499999999996 -0.254 -0.80873608430318855 0.58817169767504629 0 -0.58817169767504629 -0.80873608430318855 0 forward_v I I I I #
straight-curve $-1 -2.4129999999999994 -0.57149999999999956 -0.50800000000000001 0.58817169767504607 -0.80873608430318855 0 I I #
point $-1 -1.9049999999999994 -1.27 -0.50800000000000001 #
coedge $-1 $375 $451 $452 $453 forward $29 $-1 #
coedge $-1 $454 $455 $375 $415 reversed $456 $-1 #
edge $-1 $457 1.7957548432771832e-016 $419 0.86369337730470075 $375 $458 forward 7 unknown #
coedge $-1 $459 $376 $455 $460 forward $418 $-1 #
coedge $-1 $376 $459 $378 $422 reversed $418 $-1 #
loop $-1 $-1 $416 $427 #
vertex $-1 $377 $461 #
straight-curve $-1 -8.254999999999999 -1.2699999999999998 0 0.58817169767504596 0.80873608430318877 0 I I #
coedge $-1 $379 $378 $391 $430 forward $380 $-1 #
edge $-1 $381 0 $462 0.50800000000000001 $378 $463 forward 7 unknown #
point $-1 -7.746999999999999 -0.57149999999999956 0 #
vertex $-1 $430 $464 #
straight-curve $-1 -7.746999999999999 -1.0159999999999991 0 0 0 -1 I I #
point $-1 -5.3339999999999987 -1.0159999999999991 -0.50800000000000001 #
face $-1 $465 $418 $2 $-1 $466 forward single #
plane-surface $-1 -7.746999999999999 -0.79374999999999996 -0.254 -1 0 0 0 -1 0 forward_v I I I I #
coedge $-1 $467 $391 $459 $468 reversed $197 $-1 #
edge $-1 $462 -2.2204460492503131e-016 $424 0.44450000000000023 $391 $469 forward 7 unknown #
straight-curve $-1 -7.746999999999999 -1.0159999999999991 -0.50800000000000001 1 0 0 I I #
coedge $-1 $470 $394 $471 $472 forward $29 $-1 #
coedge $-1 $473 $474 $394 $434 reversed $475 $-1 #
edge $-1 $438 0 $476 0.44449999999999967 $394 $477 forward 7 unknown #
coedge $-1 $478 $395 $398 $441 forward $437 $-1 #
coedge $-1 $395 $478 $473 $479 reversed $437 $-1 #
loop $-1 $-1 $435 $480 #
vertex $-1 $434 $481 #
straight-curve $-1 -4.8259999999999987 -1.5240000000000002 0 0 -1 0 I I #
coedge $-1 $398 $397 $482 $483 forward $399 $-1 #
edge $-1 $400 0 $484 0.50800000000000001 $435 $485 forward 7 unknown #
face $-1 $404 $399 $2 $-1 $486 forward single #
point $-1 -4.8259999999999987 -1.5240000000000002 0 #
coedge $-1 $406 $482 $402 $445 reversed $197 $-1 #
edge $-1 $408 0 $446 0.44449999999999923 $444 $487 forward 7 unknown #
vertex $-1 $445 $488 #
straight-curve $-1 -2.4129999999999994 -1.5240000000000002 0 0 0 -1 I I #
plane-surface $-1 -2.4129999999999994 -1.7462500000000001 -0.254 1 0 0 0 1 0 forward_v I I I I #
straight-curve $-1 -1.9049999999999994 -1.2699999999999998 -0.50800000000000001 -0.58817169767504618 -0.80873608430318844 0 I I #
point $-1 -2.4129999999999994 -1.9684999999999997 -0.50800000000000001 #
coedge $-1 $413 $489 $490 $491 forward $29 $-1 #
coedge $-1 $492 $493 $413 $453 reversed $494 $-1 #
edge $-1 $495 0 $457 0.44449999999999945 $413 $496 forward 7 unknown #
coedge $-1 $497 $414 $493 $498 forward $456 $-1 #
coedge $-1 $414 $497 $416 $460 reversed $456 $-1 #
loop $-1 $-1 $454 $465 #
vertex $-1 $415 $499 #
straight-curve $-1 -7.746999999999999 -1.9684999999999999 0 -0.5881716976750464 0.80873608430318833 0 I I #
coedge $-1 $417 $416 $429 $468 forward $418 $-1 #
edge $-1 $419 0 $500 0.50800000000000001 $416 $501 forward 7 unknown #
point $-1 -8.254999999999999 -1.27 0 #
vertex $-1 $468 $502 #
straight-curve $-1 -7.746999999999999 -0.57149999999999934 0 0 0 -1 I I #
point $-1 -7.746999999999999 -1.0159999999999998 -0.50800000000000001 #
face $-1 $503 $456 $2 $-1 $504 forward single #
plane-surface $-1 -8.0009999999999994 -0.92074999999999974 -0.254 0.80873608430318866 -0.58817169767504596 0 0.58817169767504596 0.80873608430318866 0 forward_v I I I I #
coedge $-1 $505 $429 $497 $506 reversed $197 $-1 #
edge $-1 $500 -3.5915096865543673e-016 $462 0.86369337730470108 $429 $507 forward 7 unknown #
straight-curve $-1 -7.746999999999999 -0.57149999999999956 -0.50800000000000001 0 -1 0 I I #
coedge $-1 $508 $432 $509 $510 forward $29 $-1 #
coedge $-1 $511 $512 $432 $472 reversed $513 $-1 #
edge $-1 $476 -1.3060035223834054e-016 $514 0.86369337730470042 $432 $515 forward 7 unknown #
coedge $-1 $516 $433 $436 $479 forward $475 $-1 #
coedge $-1 $433 $516 $511 $517 reversed $475 $-1 #
loop $-1 $-1 $473 $518 #
vertex $-1 $472 $519 #
straight-curve $-1 -4.8259999999999987 -1.7780000000000002 0 1 0 0 I I #
coedge $-1 $436 $435 $520 $521 forward $437 $-1 #
edge $-1 $438 0 $522 0.50800000000000001 $473 $523 forward 7 unknown #
face $-1 $442 $437 $2 $-1 $524 forward single #
point $-1 -4.8259999999999987 -1.7780000000000002 0 #
coedge $-1 $444 $520 $440 $483 reversed $197 $-1 #
edge $-1 $446 0 $484 2.4129999999999994 $482 $525 forward 7 unknown #
vertex $-1 $483 $526 #
straight-curve $-1 -4.8259999999999987 -1.5240000000000002 0 0 0 -1 I I #
plane-surface $-1 -3.6194999999999991 -1.5240000000000002 -0.254 0 1 0 -1 0 0 forward_v I I I I #
straight-curve $-1 -2.4129999999999994 -1.9684999999999997 -0.50800000000000001 0 1 0 I I #
point $-1 -2.4129999999999994 -1.5240000000000005 -0.50800000000000001 #
coedge $-1 $451 $508 $527 $528 forward $29 $-1 #
coedge $-1 $529 $530 $451 $491 reversed $531 $-1 #
edge $-1 $532 0 $495 2.4130000000000003 $451 $533 forward 7 unknown #
coedge $-1 $534 $452 $530 $535 forward $494 $-1 #
coedge $-1 $452 $534 $454 $498 reversed $494 $-1 #
loop $-1 $-1 $492 $503 #
vertex $-1 $453 $536 #
straight-curve $-1 -7.746999999999999 -1.5240000000000002 0 0 -1 0 I I #
coedge $-1 $455 $454 $467 $506 forward $456 $-1 #
edge $-1 $457 0 $537 0.50800000000000001 $454 $538 forward 7 unknown #
point $-1 -7.746999999999999 -1.9684999999999997 0 #
vertex $-1 $506 $539 #
straight-curve $-1 -8.254999999999999 -1.27 0 0 0 -1 I I #
point $-1 -7.746999999999999 -0.57149999999999934 -0.50800000000000001 #
face $-1 $540 $494 $2 $-1 $541 forward single #
plane-surface $-1 -8.0009999999999994 -1.6192499999999999 -0.254 0.80873608430318844 0.58817169767504651 0 -0.5881716976750464 0.80873608430318833 0 forward_v I I I I #
coedge $-1 $542 $467 $534 $543 reversed $197 $-1 #
edge $-1 $537 1.7957548432771832e-016 $500 0.86369337730470064 $467 $544 forward 7 unknown #
straight-curve $-1 -8.254999999999999 -1.2699999999999998 -0.50800000000000001 0.58817169767504596 0.80873608430318877 0 I I #
coedge $-1 $489 $470 $545 $546 forward $29 $-1 #
coedge $-1 $547 $548 $470 $510 reversed $549 $-1 #
edge $-1 $514 0 $550 0.86369337730470108 $470 $551 forward 7 unknown #
coedge $-1 $552 $471 $474 $517 forward $513 $-1 #
coedge $-1 $471 $552 $547 $553 reversed $513 $-1 #
loop $-1 $-1 $511 $554 #
vertex $-1 $510 $555 #
straight-curve $-1 -4.3814999999999991 -1.7780000000000005 0 -0.80873608430318877 -0.58817169767504573 0 I I #
coedge $-1 $474 $473 $556 $557 forward $475 $-1 #
edge $-1 $476 0 $558 0.50800000000000001 $511 $559 forward 7 unknown #
face $-1 $480 $475 $2 $-1 $560 forward single #
point $-1 -4.3814999999999991 -1.7780000000000002 0 #
coedge $-1 $482 $556 $478 $521 reversed $197 $-1 #
edge $-1 $484 0 $522 0.25399999999999978 $520 $561 forward 7 unknown #
vertex $-1 $521 $562 #
straight-curve $-1 -4.8259999999999987 -1.7780000000000002 0 0 0 -1 I I #
plane-surface $-1 -4.8259999999999987 -1.6510000000000002 -0.254 -1 0 0 0 -1 0 forward_v I I I I #
straight-curve $-1 -2.4129999999999994 -1.5240000000000002 -0.50800000000000001 -1 0 0 I I #
point $-1 -4.8259999999999987 -1.5240000000000002 -0.50800000000000001 #
coedge $-1 $563 $564 $489 $528 reversed $565 $-1 #
edge $-1 $566 0 $532 0.254 $489 $567 forward 7 unknown #
coedge $-1 $568 $490 $564 $569 forward $531 $-1 #
coedge $-1 $490 $568 $492 $535 reversed $531 $-1 #
loop $-1 $-1 $529 $540 #
vertex $-1 $491 $570 #
straight-curve $-1 -5.3339999999999987 -1.5240000000000002 0 -1 0 0 I I #
coedge $-1 $493 $492 $505 $543 forward $494 $-1 #
edge $-1 $495 0 $571 0.50800000000000001 $492 $572 forward 7 unknown #
point $-1 -7.746999999999999 -1.5240000000000002 0 #
vertex $-1 $543 $573 #
straight-curve $-1 -7.746999999999999 -1.9684999999999999 0 0 0 -1 I I #
point $-1 -8.254999999999999 -1.2700000000000002 -0.50800000000000001 #
face $-1 $574 $531 $2 $-1 $575 forward single #
plane-surface $-1 -7.746999999999999 -1.7462499999999999 -0.254 -1 0 0 0 -1 0 forward_v I I I I #
coedge $-1 $576 $505 $568 $577 reversed $197 $-1 #
edge $-1 $571 0 $537 0.44449999999999945 $505 $578 forward 7 unknown #
straight-curve $-1 -7.746999999999999 -1.9684999999999999 -0.50800000000000001 -0.5881716976750464 0.80873608430318833 0 I I #
coedge $-1 $579 $580 $508 $546 reversed $581 $-1 #
edge $-1 $550 0 $566 0.44450000000000145 $508 $582 forward 7 unknown #
coedge $-1 $583 $509 $512 $553 forward $549 $-1 #
coedge $-1 $509 $583 $579 $584 reversed $549 $-1 #
loop $-1 $-1 $547 $585 #
vertex $-1 $546 $586 #
straight-curve $-1 -5.0799999999999992 -2.2859999999999996 0 -0.80873608430318933 0.58817169767504518 0 I I #
coedge $-1 $512 $511 $587 $588 forward $513 $-1 #
edge $-1 $514 0 $589 0.50800000000000001 $547 $590 forward 7 unknown #
face $-1 $518 $513 $2 $-1 $591 forward single #
point $-1 -5.0799999999999992 -2.2859999999999996 0 #
coedge $-1 $520 $587 $516 $557 reversed $197 $-1 #
edge $-1 $522 0 $558 0.44449999999999967 $556 $592 forward 7 unknown #
vertex $-1 $557 $593 #
straight-curve $-1 -4.3814999999999991 -1.7780000000000005 0 0 0 -1 I I #
plane-surface $-1 -4.6037499999999989 -1.7780000000000002 -0.254 0 -1 0 1 0 0 forward_v I I I I #
straight-curve $-1 -4.8259999999999987 -1.5240000000000002 -0.50800000000000001 0 -1 0 I I #
point $-1 -4.8259999999999987 -1.778 -0.50800000000000001 #
coedge $-1 $594 $527 $580 $595 forward $565 $-1 #
coedge $-1 $527 $594 $529 $569 reversed $565 $-1 #
loop $-1 $-1 $563 $574 #
vertex $-1 $528 $596 #
straight-curve $-1 -5.3339999999999987 -1.7780000000000002 0 0 1 0 I I #
coedge $-1 $530 $529 $542 $577 forward $531 $-1 #
edge $-1 $532 0 $597 0.50800000000000001 $529 $598 forward 7 unknown #
point $-1 -5.3339999999999987 -1.5240000000000002 0 #
vertex $-1 $577 $599 #
straight-curve $-1 -7.746999999999999 -1.5240000000000002 0 0 0 -1 I I #
point $-1 -7.746999999999999 -1.9684999999999997 -0.50800000000000001 #
face $-1 $600 $565 $2 $-1 $601 forward single #
plane-surface $-1 -6.5404999999999989 -1.5240000000000002 -0.254 0 1 0 -1 0 0 forward_v I I I I #
coedge $-1 $602 $542 $594 $603 reversed $197 $-1 #
edge $-1 $597 0 $571 2.4130000000000003 $542 $604 forward 7 unknown #
straight-curve $-1 -7.746999999999999 -1.5240000000000002 -0.50800000000000001 0 -1 0 I I #
coedge $-1 $605 $545 $548 $584 forward $581 $-1 #
coedge $-1 $545 $605 $563 $595 reversed $581 $-1 #
loop $-1 $-1 $579 $600 #
straight-curve $-1 -5.7785000000000002 -1.7780000000000002 0 1 0 0 I I #
coedge $-1 $548 $547 $606 $607 forward $549 $-1 #
edge $-1 $550 0 $608 0.50800000000000001 $579 $609 forward 7 unknown #
face $-1 $554 $549 $2 $-1 $610 forward single #
point $-1 -5.7785000000000002 -1.7780000000000002 0 #
coedge $-1 $556 $606 $552 $588 reversed $197 $-1 #
edge $-1 $558 -1.3060035223834054e-016 $589 0.86369337730470075 $587 $611 forward 7 unknown #
vertex $-1 $588 $612 #
straight-curve $-1 -5.0799999999999992 -2.286 0 0 0 -1 I I #
plane-surface $-1 -4.7307499999999987 -2.032 -0.254 -0.58817169767504562 0.808736084303189 0 -0.808736084303189 -0.58817169767504562 0 forward_v I I I I #
straight-curve $-1 -4.8259999999999987 -1.7780000000000002 -0.50800000000000001 1 0 0 I I #
point $-1 -4.3814999999999991 -1.7780000000000002 -0.50800000000000001 #
coedge $-1 $564 $563 $576 $603 forward $565 $-1 #
edge $-1 $566 0 $613 0.50800000000000001 $563 $614 forward 7 unknown #
point $-1 -5.3339999999999987 -1.7780000000000002 0 #
vertex $-1 $603 $615 #
straight-curve $-1 -5.3339999999999987 -1.5240000000000002 0 0 0 -1 I I #
point $-1 -7.746999999999999 -1.5240000000000002 -0.50800000000000001 #
face $-1 $585 $581 $2 $-1 $616 forward single #
plane-surface $-1 -5.3339999999999987 -1.6510000000000002 -0.254 1 0 0 0 1 0 forward_v I I I I #
coedge $-1 $606 $576 $605 $617 reversed $197 $-1 #
edge $-1 $613 0 $597 0.25399999999999978 $576 $618 forward 7 unknown #
straight-curve $-1 -5.3339999999999987 -1.5240000000000002 -0.50800000000000001 -1 0 0 I I #
coedge $-1 $580 $579 $602 $617 forward $581 $-1 #
coedge $-1 $587 $602 $583 $607 reversed $197 $-1 #
edge $-1 $589 -2.6120070447668072e-016 $608 0.86369337730470108 $606 $619 forward 7 unknown #
vertex $-1 $607 $620 #
straight-curve $-1 -5.7785000000000002 -1.7780000000000002 0 0 0 -1 I I #
plane-surface $-1 -5.4292499999999997 -2.032 -0.254 0.58817169767504518 0.80873608430318933 0 -0.80873608430318933 0.58817169767504518 0 forward_v I I I I #
straight-curve $-1 -4.3814999999999991 -1.7780000000000005 -0.50800000000000001 -0.80873608430318877 -0.58817169767504573 0 I I #
point $-1 -5.0799999999999992 -2.286 -0.50800000000000001 #
vertex $-1 $617 $621 #
straight-curve $-1 -5.3339999999999987 -1.7780000000000002 0 0 0 -1 I I #
point $-1 -5.3339999999999987 -1.5240000000000005 -0.50800000000000001 #
plane-surface $-1 -5.5562499999999995 -1.7780000000000002 -0.254 0 -1 0 1 0 0 forward_v I I I I #
edge $-1 $608 0 $613 0.44450000000000145 $602 $622 forward 7 unknown #
straight-curve $-1 -5.3339999999999987 -1.7780000000000002 -0.50800000000000001 0 1 0 I I #
straight-curve $-1 -5.0799999999999992 -2.2859999999999996 -0.50800000000000001 -0.80873608430318933 0.58817169767504518 0 I I #
point $-1 -5.7785000000000002 -1.7780000000000002 -0.50800000000000001 #
point $-1 -5.3339999999999987 -1.7780000000000002 -0.50800000000000001 #
straight-curve $-1 -5.7785000000000002 -1.7780000000000002 -0.50800000000000001 1 0 0 I I #
End-of-ACIS-data 