600 0 1 0           
104 GICL Pro/E ACIS Translator - Source: f:/data5/repository/PTC/V20/NC_Training_Rel20/DXF/part_21.prt - 6 0 13 ACIS 6.0.3 NT 24 Thu Apr 04 13:13:41 2002 
1 9.9999999999999995e-007 1e-010 
body $-1 $1 $-1 $-1 #
lump $-1 $-1 $2 $0 #
shell $-1 $-1 $-1 $3 $-1 $1 #
face $-1 $4 $5 $2 $-1 $6 forward single #
face $-1 $7 $8 $2 $-1 $9 forward single #
loop $-1 $-1 $10 $3 #
plane-surface $-1 2.7239429984372809 5.3460391451302076 -98.5 0.4539904997395468 0.8910065241883679 0 -0.8910065241883679 0.4539904997395468 0 forward_v I I I I #
face $-1 $11 $12 $2 $-1 $13 forward single #
loop $-1 $-1 $14 $4 #
plane-surface $-1 -571.55522355390201 294.58891090509371 -88.5 -0.63003675533505021 0.32101976096011053 -0.70710678118654435 -0.63003675533504833 0.32101976096010021 0.70710678118655068 forward_v I I I I #
coedge $-1 $15 $16 $17 $18 forward $5 $-1 #
face $-1 $19 $20 $2 $-1 $21 reversed single #
loop $-1 $-1 $22 $7 #
plane-surface $-1 -289.55165864828354 150.90091773752718 -98.5 0 0 -1 -0.8910065241883679 0.45399049973954692 0 forward_v I I I I #
coedge $-1 $23 $17 $24 $25 forward $8 $-1 #
coedge $-1 $26 $10 $27 $28 forward $5 $-1 #
coedge $-1 $10 $29 $30 $31 forward $5 $-1 #
coedge $-1 $14 $32 $10 $18 reversed $8 $-1 #
edge $-1 $33 7.1626886362429394e-014 $34 28.284271247461891 $10 $35 forward 7 unknown #
face $-1 $36 $37 $2 $-1 $38 reversed single #
loop $-1 $-1 $39 $11 #
plane-surface $-1 -7.5480937426650332 7.2129245699605695 -88.5 -0.63003675533505099 0.32101976096010337 0.70710678118654713 0.6300367553350501 -0.32101976096010293 0.70710678118654802 forward_v I I I I #
coedge $-1 $40 $30 $41 $42 forward $12 $-1 #
coedge $-1 $32 $14 $43 $44 forward $8 $-1 #
coedge $-1 $30 $40 $14 $25 reversed $12 $-1 #
edge $-1 $33 -1.0097419586829104e-028 $45 5.9999999999999609 $24 $46 forward 7 unknown #
coedge $-1 $47 $15 $48 $49 reversed $5 $-1 #
coedge $-1 $50 $51 $15 $28 reversed $52 $-1 #
edge $-1 $34 0 $53 156.99999999999997 $15 $54 forward 7 unknown #
coedge $-1 $16 $55 $56 $57 reversed $5 $-1 #
coedge $-1 $22 $24 $16 $31 reversed $12 $-1 #
edge $-1 $58 3.9719401956195859e-015 $33 613.00000000000011 $16 $59 forward 7 unknown #
coedge $-1 $17 $23 $50 $60 reversed $8 $-1 #
vertex $-1 $31 $61 #
vertex $-1 $28 $62 #
straight-curve $-1 -561.28318681279961 292.72202548026337 -98.5 -0.63003675533505032 0.32101976096010121 0.70710678118654846 I I #
face $-1 $63 $64 $2 $-1 $65 forward single #
loop $-1 $-1 $66 $19 #
plane-surface $-1 1.3619714992186405 2.6730195725651038 1.4210854715202004e-014 -0.8910065241883679 0.45399049973954675 0 0 0 1 forward_v I I I I #
coedge $-1 $67 $56 $68 $69 forward $20 $-1 #
coedge $-1 $24 $22 $70 $71 forward $12 $-1 #
coedge $-1 $56 $67 $22 $42 reversed $20 $-1 #
edge $-1 $58 -1.1003019287456772e-015 $72 5.9999999999999858 $22 $73 forward 7 unknown #
coedge $-1 $70 $74 $23 $44 reversed $75 $-1 #
edge $-1 $45 -1.0048591735576171e-014 $76 28.284271247461874 $23 $77 forward 7 unknown #
vertex $-1 $25 $78 #
straight-curve $-1 -561.28318681279973 292.72202548026337 -98.500000000000014 -0.45399049973954414 -0.89100652418836923 -7.1054273576011091e-015 I I #
coedge $-1 $79 $26 $80 $81 reversed $5 $-1 #
coedge $-1 $82 $83 $26 $49 forward $84 $-1 #
edge $-1 $85 -2.1946506207452907e-014 $53 28.28427124746193 $26 $86 forward 7 unknown #
coedge $-1 $87 $27 $32 $60 forward $52 $-1 #
coedge $-1 $27 $87 $82 $88 reversed $52 $-1 #
loop $-1 $-1 $50 $89 #
vertex $-1 $49 $90 #
straight-curve $-1 -579.10331729656696 301.80183547505425 -78.499999999999986 0 0 1 I I #
coedge $-1 $29 $79 $91 $92 reversed $5 $-1 #
coedge $-1 $39 $41 $29 $57 forward $20 $-1 #
edge $-1 $58 -6.2359134277344754e-014 $93 28.284271247461906 $29 $94 forward 7 unknown #
vertex $-1 $31 $95 #
straight-curve $-1 -15.096187485330137 14.425849139921175 -98.5 -0.8910065241883679 0.4539904997395468 0 I I #
edge $-1 $34 0 $76 6.0000000000000124 $50 $96 forward 7 unknown #
point $-1 -561.28318681279973 292.72202548026337 -98.5 #
point $-1 -579.10331729656696 301.80183547505425 -78.499999999999986 #
face $-1 $97 $98 $2 $-1 $99 reversed single #
loop $-1 $-1 $100 $36 #
plane-surface $-1 -7.5480937426649835 7.2129245699605438 88.5 0.63003675533505243 -0.32101976096010404 0.70710678118654535 0.63003675533504855 -0.3210197609601021 -0.70710678118654968 forward_v I I I I #
coedge $-1 $101 $91 $102 $103 forward $37 $-1 #
coedge $-1 $41 $39 $104 $105 reversed $20 $-1 #
coedge $-1 $91 $101 $39 $69 reversed $37 $-1 #
edge $-1 $93 -9.9298504890489648e-016 $106 5.9999999999999991 $39 $107 forward 7 unknown #
coedge $-1 $104 $43 $40 $71 reversed $75 $-1 #
edge $-1 $72 3.2861019674961499e-015 $45 613.00000000000011 $40 $108 forward 7 unknown #
vertex $-1 $71 $109 #
straight-curve $-1 -15.096187485330084 14.425849139921146 -98.5 -0.45399049973954669 -0.89100652418836779 0 I I #
coedge $-1 $43 $110 $87 $111 reversed $75 $-1 #
loop $-1 $-1 $104 $112 #
vertex $-1 $111 $113 #
straight-curve $-1 -564.00712981123695 287.37598633513318 -98.499999999999986 -0.63003675533505066 0.32101976096010132 0.70710678118654824 I I #
point $-1 -564.00712981123695 287.37598633513318 -98.5 #
coedge $-1 $55 $47 $114 $115 forward $5 $-1 #
coedge $-1 $116 $117 $47 $81 forward $98 $-1 #
edge $-1 $118 -7.9438803912391722e-014 $85 613.00000000000011 $47 $119 forward 7 unknown #
coedge $-1 $120 $48 $51 $88 forward $84 $-1 #
coedge $-1 $48 $120 $116 $121 reversed $84 $-1 #
loop $-1 $-1 $82 $97 #
vertex $-1 $81 $122 #
straight-curve $-1 -561.2831868127995 292.72202548026331 98.499999999999943 -0.63003675533505354 0.32101976096010276 -0.70710678118654491 I I #
coedge $-1 $51 $50 $74 $111 forward $52 $-1 #
edge $-1 $53 0 $123 6.0000000000000124 $82 $124 forward 7 unknown #
face $-1 $112 $52 $2 $-1 $125 forward single #
point $-1 -579.10331729656696 301.80183547505425 78.499999999999986 #
coedge $-1 $66 $68 $55 $92 forward $37 $-1 #
edge $-1 $93 1.4210854715202004e-014 $126 157 $55 $127 forward 7 unknown #
vertex $-1 $57 $128 #
straight-curve $-1 -15.096187485330063 14.425849139921135 -98.5 0.6300367553350501 -0.32101976096010282 0.70710678118654802 I I #
point $-1 -15.096187485330141 14.425849139921176 -98.5 #
straight-curve $-1 -579.10331729656696 301.80183547505425 -78.499999999999986 -0.45399049973955535 -0.89100652418836357 0 I I #
face $-1 $89 $84 $2 $-1 $129 reversed single #
loop $-1 $-1 $116 $63 #
plane-surface $-1 -289.55165864828342 150.90091773752715 98.5 0 0 -1 -0.8910065241883679 0.45399049973954692 0 forward_v I I I I #
coedge $-1 $130 $114 $117 $131 forward $64 $-1 #
coedge $-1 $68 $66 $132 $133 reversed $37 $-1 #
coedge $-1 $114 $130 $66 $103 reversed $64 $-1 #
edge $-1 $126 -2.0161228230877037e-016 $134 6 $66 $135 forward 7 unknown #
coedge $-1 $132 $70 $67 $105 forward $75 $-1 #
edge $-1 $72 -6.1874173415441711e-014 $106 28.284271247461898 $67 $136 forward 7 unknown #
vertex $-1 $105 $137 #
straight-curve $-1 2.723942998437284 5.3460391451302041 -78.499999999999986 -0.45399049973954692 -0.8910065241883679 0 I I #
straight-curve $-1 -17.820130483767418 9.079809994790967 -98.5 -0.89100652418836779 0.4539904997395468 0 I I #
point $-1 -17.820130483767414 9.0798099947909812 -98.5 #
coedge $-1 $74 $138 $120 $139 forward $75 $-1 #
edge $-1 $76 0 $123 157 $87 $140 forward 7 unknown #
face $-1 $-1 $75 $2 $-1 $141 reversed single #
point $-1 -581.82726029500429 296.45579632992406 -78.499999999999986 #
coedge $-1 $100 $102 $79 $115 reversed $64 $-1 #
edge $-1 $118 0 $126 28.284271247461817 $79 $142 forward 7 unknown #
coedge $-1 $143 $80 $83 $121 forward $98 $-1 #
coedge $-1 $80 $143 $100 $131 reversed $98 $-1 #
vertex $-1 $115 $144 #
straight-curve $-1 -15.096187485330038 14.425849139921123 98.5 -0.89100652418836779 0.4539904997395468 0 I I #
coedge $-1 $83 $82 $110 $139 reversed $84 $-1 #
edge $-1 $85 -5.1612744271042773e-014 $145 5.9999999999999609 $116 $146 forward 7 unknown #
point $-1 -561.2831868127995 292.72202548026337 98.5 #
vertex $-1 $139 $147 #
straight-curve $-1 -579.10331729656696 301.80183547505425 78.499999999999986 -0.45399049973954031 -0.89100652418837123 0 I I #
plane-surface $-1 -580.46528879578568 299.12881590248912 1.4210854715202004e-014 -0.89100652418836357 0.45399049973955546 0 0 0 1 forward_v I I I I #
vertex $-1 $92 $148 #
straight-curve $-1 2.7239429984372809 5.3460391451302076 -78.5 0 0 1 I I #
point $-1 2.7239429984372845 5.346039145130205 -78.499999999999986 #
plane-surface $-1 -571.5552235539019 294.58891090509371 88.5 0.63003675533504755 -0.3210197609601092 -0.70710678118654735 -0.6300367553350511 0.3210197609601016 -0.70710678118654768 forward_v I I I I #
coedge $-1 $102 $100 $149 $150 forward $64 $-1 #
edge $-1 $118 2.7502054116557978e-014 $151 6.000000000000016 $100 $152 forward 7 unknown #
coedge $-1 $149 $104 $101 $133 forward $75 $-1 #
edge $-1 $106 1.4210854715202004e-014 $134 157 $101 $153 forward 7 unknown #
vertex $-1 $133 $154 #
straight-curve $-1 2.7239429984372805 5.3460391451302076 78.5 -0.45399049973954675 -0.8910065241883679 0 I I #
straight-curve $-1 -17.820130483767343 9.0798099947909279 -98.5 0.6300367553350501 -0.32101976096010282 0.70710678118654802 I I #
point $-1 2.2204460492503131e-016 0 -78.499999999999986 #
coedge $-1 $110 $149 $143 $155 forward $75 $-1 #
edge $-1 $145 9.8074016096556791e-014 $123 28.284271247462005 $120 $156 forward 7 unknown #
straight-curve $-1 -581.82726029500429 296.45579632992406 -78.499999999999986 0 0 1 I I #
plane-surface $-1 0 0 -98.5 0.4539904997395468 0.8910065241883679 0 -0.8910065241883679 0.4539904997395468 0 forward_v I I I I #
straight-curve $-1 -15.096187485329967 14.425849139921088 98.5 0.63003675533504855 -0.3210197609601021 -0.70710678118654968 I I #
coedge $-1 $117 $116 $138 $155 reversed $98 $-1 #
point $-1 -15.096187485329967 14.425849139921088 98.5 #
vertex $-1 $155 $157 #
straight-curve $-1 -561.28318681279961 292.72202548026337 98.5 -0.45399049973952527 -0.89100652418837889 0 I I #
point $-1 -581.82726029500429 296.45579632992406 78.500000000000014 #
point $-1 2.7239429984372809 5.3460391451302076 78.5 #
coedge $-1 $138 $132 $130 $150 reversed $75 $-1 #
edge $-1 $151 -5.7925096272723312e-014 $134 28.284271247461817 $130 $158 forward 7 unknown #
vertex $-1 $150 $159 #
straight-curve $-1 -15.09618748532999 14.42584913992113 98.500000000000043 -0.45399049973954708 -0.89100652418836779 0 I I #
straight-curve $-1 0 -4.4408920985006262e-016 -78.5 0 0 1 I I #
point $-1 2.2204460492503131e-016 4.4408920985006262e-016 78.5 #
edge $-1 $151 1.6732037090259867e-015 $145 613.00000000000011 $143 $160 forward 7 unknown #
straight-curve $-1 -564.00712981123672 287.37598633513306 98.499999999999943 -0.63003675533505354 0.32101976096010276 -0.70710678118654491 I I #
point $-1 -564.00712981123684 287.37598633513318 98.499999999999957 #
straight-curve $-1 -17.820130483767247 9.0798099947908799 98.5 0.63003675533504855 -0.3210197609601021 -0.70710678118654968 I I #
point $-1 -17.820130483767315 9.0798099947909279 98.5 #
straight-curve $-1 -17.820130483767318 9.0798099947909172 98.5 -0.89100652418836779 0.4539904997395468 0 I I #
End-of-ACIS-data 