600 0 1 0           
101 GICL ACIS Healer - Source: /gicl/data5/repository/PTC/V20/NC_Training_Rel20/DXF/part_27.prt.sat - 6 0 18 ACIS 6.0.3 Solaris 24 Sat Apr 13 20:50:51 2002 
1 9.999999999999999547e-07 1.000000000000000036e-10 
body $-1 $1 $-1 $-1 #
lump $-1 $-1 $2 $0 #
shell $-1 $-1 $-1 $3 $-1 $1 #
face $-1 $4 $5 $2 $-1 $6 reversed single #
face $-1 $7 $8 $2 $-1 $9 forward single #
loop $-1 $-1 $10 $3 #
plane-surface $-1 0 5.079999999999999183 0 0 -1 0 1 0 0 forward_v I I I I #
face $-1 $11 $12 $2 $-1 $13 forward single #
loop $-1 $-1 $14 $4 #
plane-surface $-1 9.969500000000000028 2.539999999999999591 10.87120000000000175 -0.7370111661508675915 0 -0.6758805670892885642 -0.6758805670892885642 0 0.7370111661508675915 forward_v I I I I #
coedge $-1 $15 $16 $17 $18 forward $5 $-1 #
face $-1 $19 $20 $2 $-1 $21 reversed single #
loop $-1 $-1 $22 $7 #
plane-surface $-1 22.66949999999999932 2.539999999999999591 12.69999999999999929 0.9776591140605678243 0 -0.2101967095230220517 -0.2101967095230220517 0 -0.9776591140605678243 forward_v I I I I #
coedge $-1 $23 $17 $24 $25 forward $8 $-1 #
coedge $-1 $26 $10 $27 $28 forward $5 $-1 #
coedge $-1 $10 $26 $29 $30 forward $5 $-1 #
coedge $-1 $14 $31 $10 $18 reversed $8 $-1 #
edge $-1 $32 0 $33 29.50077420611194867 $10 $34 forward 7 unknown #
face $-1 $35 $36 $2 $-1 $37 reversed single #
loop $-1 $-1 $38 $11 #
plane-surface $-1 12.69999999999999929 2.539999999999999591 25.39999999999999858 0 0 -1 1 0 0 forward_v I I I I #
coedge $-1 $39 $29 $40 $41 forward $12 $-1 #
coedge $-1 $31 $14 $42 $43 forward $8 $-1 #
coedge $-1 $29 $39 $14 $25 reversed $12 $-1 #
edge $-1 $32 0 $44 5.079999999999999183 $24 $45 forward 7 unknown #
coedge $-1 $16 $15 $38 $46 forward $5 $-1 #
coedge $-1 $47 $48 $15 $28 reversed $36 $-1 #
edge $-1 $33 0 $49 3.657599999999995077 $15 $50 forward 7 unknown #
coedge $-1 $22 $24 $16 $30 reversed $12 $-1 #
edge $-1 $51 0 $32 25.98042572784364523 $16 $52 forward 7 unknown #
coedge $-1 $17 $23 $47 $53 reversed $8 $-1 #
vertex $-1 $30 $54 #
vertex $-1 $28 $55 #
straight-curve $-1 19.93900000000000006 5.079999999999999183 0 -0.6758805670892885642 0 0.7370111661508675915 I I #
face $-1 $-1 $56 $2 $-1 $57 forward single #
loop $-1 $-1 $58 $19 #
plane-surface $-1 0 2.539999999999999591 12.69999999999999929 1 0 0 0 0 1 forward_v I I I I #
coedge $-1 $59 $40 $26 $46 reversed $20 $-1 #
coedge $-1 $24 $22 $60 $61 forward $12 $-1 #
coedge $-1 $38 $62 $22 $41 reversed $20 $-1 #
edge $-1 $51 0 $63 5.079999999999999183 $40 $64 forward 7 unknown #
coedge $-1 $60 $65 $23 $43 reversed $56 $-1 #
edge $-1 $44 0 $66 29.50077420611194867 $42 $67 forward 7 unknown #
vertex $-1 $61 $68 #
straight-curve $-1 19.93900000000000006 5.079999999999999183 0 0 -1 0 I I #
edge $-1 $49 0 $51 25.39999999999999858 $26 $69 forward 7 unknown #
coedge $-1 $58 $27 $31 $53 forward $36 $-1 #
coedge $-1 $27 $58 $59 $70 forward $36 $-1 #
vertex $-1 $46 $71 #
straight-curve $-1 0 5.079999999999999183 21.7424000000000035 0 0 1 I I #
vertex $-1 $30 $72 #
straight-curve $-1 25.39999999999999858 5.079999999999999183 25.39999999999999858 -0.2101967095230220517 0 -0.9776591140605678243 I I #
edge $-1 $33 0 $66 5.079999999999999183 $47 $73 forward 7 unknown #
point $-1 19.93900000000000006 5.079999999999999183 0 #
point $-1 0 5.079999999999999183 21.7424000000000035 #
loop $-1 $-1 $74 $35 #
plane-surface $-1 0 0 0 0 -1 0 1 0 0 forward_v I I I I #
coedge $-1 $48 $47 $65 $75 forward $36 $-1 #
coedge $-1 $62 $38 $48 $70 reversed $20 $-1 #
coedge $-1 $74 $42 $39 $61 reversed $56 $-1 #
edge $-1 $63 0 $44 25.98042572784364523 $60 $76 forward 7 unknown #
coedge $-1 $40 $59 $74 $77 forward $20 $-1 #
vertex $-1 $61 $78 #
straight-curve $-1 25.39999999999999858 5.079999999999999183 25.39999999999999858 0 -1 0 I I #
coedge $-1 $42 $74 $58 $75 reversed $56 $-1 #
vertex $-1 $43 $79 #
straight-curve $-1 19.93900000000000006 0 0 -0.6758805670892885642 0 0.7370111661508675915 I I #
point $-1 19.93900000000000006 0 0 #
straight-curve $-1 0 5.079999999999999183 25.39999999999999858 1 0 0 I I #
edge $-1 $80 0 $49 5.079999999999999183 $59 $81 forward 7 unknown #
point $-1 0 5.079999999999999183 25.39999999999999858 #
point $-1 25.39999999999999858 5.079999999999999183 25.39999999999999858 #
straight-curve $-1 0 5.079999999999999183 21.7424000000000035 0 -1 0 I I #
coedge $-1 $65 $60 $62 $77 reversed $56 $-1 #
edge $-1 $66 0 $80 3.657599999999995077 $65 $82 forward 7 unknown #
straight-curve $-1 25.39999999999999858 0 25.39999999999999858 -0.2101967095230220517 0 -0.9776591140605678243 I I #
edge $-1 $80 0 $63 25.39999999999999858 $74 $83 forward 7 unknown #
point $-1 25.39999999999999858 0 25.39999999999999858 #
point $-1 0 0 21.7424000000000035 #
vertex $-1 $75 $84 #
straight-curve $-1 0 0 25.39999999999999858 0 1 0 I I #
straight-curve $-1 0 0 21.7424000000000035 0 0 1 I I #
straight-curve $-1 0 0 25.39999999999999858 1 0 0 I I #
point $-1 0 0 25.39999999999999858 #
End-of-ACIS-data 