600 0 1 0           
104 GICL Pro/E ACIS Translator - Source: f:/data5/repository/PTC/V20/NC_Training_Rel20/DXF/part_22.prt - 6 0 13 ACIS 6.0.3 NT 24 Thu Apr 04 13:13:41 2002 
1 9.9999999999999995e-007 1e-010 
body $-1 $1 $-1 $-1 #
lump $-1 $-1 $2 $0 #
shell $-1 $-1 $-1 $3 $-1 $1 #
face $-1 $4 $5 $2 $-1 $6 forward single #
face $-1 $7 $8 $2 $-1 $9 reversed single #
loop $-1 $10 $11 $3 #
plane-surface $-1 0 20 0 0 1 0 1 0 0 forward_v I I I I #
face $-1 $12 $13 $2 $-1 $14 reversed single #
loop $-1 $-1 $15 $4 #
cone-surface $-1 0 10 0 0 -1 0 -20 0 0 1 I I 0 1 20 forward I I I I #
loop $-1 $-1 $16 $3 #
coedge $-1 $17 $17 $18 $19 forward $5 $-1 #
face $-1 $20 $21 $2 $-1 $22 reversed single #
loop $-1 $-1 $23 $7 #
cone-surface $-1 0 10 0 0 -1 0 20 0 0 1 I I 0 1 20 forward I I I I #
coedge $-1 $24 $18 $25 $26 forward $8 $-1 #
coedge $-1 $27 $28 $29 $30 forward $10 $-1 #
coedge $-1 $11 $11 $31 $32 forward $5 $-1 #
coedge $-1 $15 $33 $11 $19 reversed $8 $-1 #
edge $-1 $34 0 $35 3.1415926535897931 $11 $36 forward 7 unknown #
face $-1 $37 $38 $2 $-1 $39 forward single #
loop $-1 $40 $41 $12 #
plane-surface $-1 0 0 0 0 1 0 1 0 0 forward_v I I I I #
coedge $-1 $42 $31 $33 $43 forward $13 $-1 #
coedge $-1 $33 $15 $41 $44 forward $8 $-1 #
coedge $-1 $31 $42 $15 $26 reversed $13 $-1 #
edge $-1 $34 0 $45 20 $25 $46 forward 7 unknown #
coedge $-1 $47 $16 $48 $49 forward $10 $-1 #
coedge $-1 $16 $50 $51 $52 forward $10 $-1 #
coedge $-1 $53 $54 $16 $30 reversed $55 $-1 #
edge $-1 $56 0 $57 60.719483433995165 $16 $58 forward 7 unknown #
coedge $-1 $23 $25 $17 $32 reversed $13 $-1 #
edge $-1 $35 0 $34 3.1415926535897931 $17 $59 forward 7 unknown #
coedge $-1 $18 $24 $23 $43 reversed $8 $-1 #
vertex $-1 $32 $60 #
vertex $-1 $32 $61 #
ellipse-curve $-1 8.8817841970012523e-016 20 0 0 -1 0 -20 0 0 1 I I #
face $-1 $62 $63 $2 $-1 $64 reversed single #
loop $-1 $-1 $65 $20 #
plane-surface $-1 30.444836716512739 10 -49.568716628290289 -0.25881904510252052 0 -0.96592582628906842 -0.96592582628906831 0 0.25881904510252046 forward_v I I I I #
loop $-1 $-1 $66 $12 #
coedge $-1 $67 $67 $24 $44 reversed $21 $-1 #
coedge $-1 $25 $23 $67 $68 forward $13 $-1 #
edge $-1 $35 0 $69 20 $23 $70 forward 7 unknown #
edge $-1 $45 0 $69 3.1415926535897931 $24 $71 forward 7 unknown #
vertex $-1 $26 $72 #
straight-curve $-1 -20 20 2.4492127076447545e-015 0 -1 0 I I #
coedge $-1 $73 $27 $74 $75 forward $10 $-1 #
coedge $-1 $76 $77 $27 $49 reversed $78 $-1 #
edge $-1 $57 0 $79 0.43633231299858188 $27 $80 forward 7 unknown #
coedge $-1 $28 $81 $82 $83 forward $10 $-1 #
coedge $-1 $84 $85 $28 $52 reversed $86 $-1 #
edge $-1 $87 0 $56 2.6179938779914949 $28 $88 forward 7 unknown #
coedge $-1 $89 $29 $85 $90 forward $55 $-1 #
coedge $-1 $29 $89 $76 $91 reversed $55 $-1 #
loop $-1 $-1 $53 $92 #
vertex $-1 $52 $93 #
vertex $-1 $49 $94 #
straight-curve $-1 -10.352761804100819 20 38.637033051562732 0.96592582628906842 0 0.2588190451025203 I I #
ellipse-curve $-1 8.8817841970012523e-016 20 -8.8817841970012523e-016 0 -1 0 20 0 8.8817841970012523e-016 1 I I #
point $-1 -20 20 0 #
point $-1 20 20 0 #
face $-1 $95 $96 $2 $-1 $97 forward single #
loop $-1 $-1 $98 $37 #
cone-surface $-1 61.447225417721448 10 -97.056620921834366 0 -1 0 37.270822047543611 0 6.5718515201659784 1 I I 0 1 37.845784553933754 forward I I I I #
coedge $-1 $99 $82 $100 $101 forward $38 $-1 #
coedge $-1 $102 $103 $99 $104 reversed $40 $-1 #
coedge $-1 $41 $41 $42 $68 reversed $21 $-1 #
edge $-1 $69 0 $45 3.1415926535897931 $42 $105 forward 7 unknown #
vertex $-1 $68 $106 #
straight-curve $-1 20 20 -2.4492127076447545e-015 0 -1 0 I I #
ellipse-curve $-1 8.8817841970012523e-016 0 0 0 -1 0 -20 0 0 1 I I #
point $-1 -20 0 0 #
coedge $-1 $107 $47 $108 $109 forward $10 $-1 #
coedge $-1 $110 $111 $47 $75 reversed $112 $-1 #
edge $-1 $79 1.0886146286551647e-014 $113 66.219307230001647 $47 $114 forward 7 unknown #
coedge $-1 $115 $48 $54 $91 forward $78 $-1 #
coedge $-1 $48 $115 $110 $116 reversed $78 $-1 #
loop $-1 $-1 $76 $117 #
vertex $-1 $75 $118 #
ellipse-curve $-1 25.004041344499548 20 141.28571613908423 0 -1 0 23.293714059226808 0 -86.933324366016564 1 I I #
coedge $-1 $50 $119 $120 $121 forward $10 $-1 #
coedge $-1 $65 $122 $50 $83 reversed $38 $-1 #
edge $-1 $123 0 $87 84.473563932649739 $50 $124 forward 7 unknown #
coedge $-1 $125 $51 $122 $126 forward $86 $-1 #
coedge $-1 $51 $125 $53 $90 reversed $86 $-1 #
loop $-1 $-1 $84 $127 #
vertex $-1 $52 $128 #
ellipse-curve $-1 -1.7763568394002505e-015 20 1.7763568394002505e-015 0 1 0 -10.352761804100822 0 -38.637033051562732 1 I I #
coedge $-1 $54 $53 $129 $130 forward $55 $-1 #
edge $-1 $56 0 $131 20 $85 $132 forward 7 unknown #
edge $-1 $57 0 $133 20 $76 $134 forward 7 unknown #
face $-1 $127 $55 $2 $-1 $135 forward single #
point $-1 -10.352761804100819 20 38.637033051562732 #
point $-1 48.297755403726356 20 54.352391773067659 #
face $-1 $136 $137 $2 $-1 $138 forward single #
loop $-1 $-1 $139 $62 #
plane-surface $-1 111.02814437791766 10 -88.314167180831703 0.17364817766693416 0 -0.98480775301220747 -0.98480775301220747 0 -0.17364817766693416 forward_v I I I I #
coedge $-1 $140 $120 $141 $142 forward $63 $-1 #
coedge $-1 $122 $65 $66 $104 forward $38 $-1 #
coedge $-1 $120 $140 $65 $101 reversed $63 $-1 #
edge $-1 $123 0 $143 20 $65 $144 forward 7 unknown #
coedge $-1 $145 $66 $140 $146 reversed $40 $-1 #
coedge $-1 $66 $129 $125 $147 reversed $40 $-1 #
edge $-1 $143 -1.3726631583055401e-014 $148 84.473563932649739 $99 $149 forward 7 unknown #
ellipse-curve $-1 8.8817841970012523e-016 0 -8.8817841970012523e-016 0 -1 0 20 0 8.8817841970012523e-016 1 I I #
point $-1 20 0 0 #
coedge $-1 $150 $73 $151 $152 forward $10 $-1 #
coedge $-1 $153 $154 $73 $109 reversed $155 $-1 #
edge $-1 $113 -1.088614628655165e-014 $156 29.999999999999989 $73 $157 forward 7 unknown #
coedge $-1 $158 $74 $77 $116 forward $112 $-1 #
coedge $-1 $74 $158 $153 $159 reversed $112 $-1 #
loop $-1 $-1 $110 $160 #
vertex $-1 $109 $161 #
straight-curve $-1 82.854926216288163 20 72.341716258375769 0.76604444311897979 0 0.64278760968653725 I I #
coedge $-1 $77 $76 $162 $163 forward $78 $-1 #
edge $-1 $79 0 $164 20 $110 $165 forward 7 unknown #
face $-1 $92 $78 $2 $-1 $166 reversed single #
point $-1 82.854926216288177 20 72.341716258375769 #
coedge $-1 $81 $150 $167 $168 forward $10 $-1 #
coedge $-1 $98 $100 $81 $121 reversed $63 $-1 #
edge $-1 $169 0 $123 1.13446401379631 $81 $170 forward 7 unknown #
coedge $-1 $82 $99 $84 $126 reversed $38 $-1 #
vertex $-1 $83 $171 #
straight-curve $-1 71.242435237126301 20 -60.500400205017847 -0.96592582628906831 0 0.25881904510252046 I I #
coedge $-1 $85 $84 $103 $147 forward $86 $-1 #
edge $-1 $87 0 $148 20 $84 $172 forward 7 unknown #
face $-1 $-1 $86 $2 $-1 $173 forward single #
point $-1 -10.352761804100824 20 -38.637033051562732 #
coedge $-1 $103 $162 $89 $130 reversed $40 $-1 #
edge $-1 $131 0 $133 60.719483433995165 $89 $174 forward 7 unknown #
vertex $-1 $90 $175 #
straight-curve $-1 -10.352761804100812 20 38.637033051562732 0 -1 0 I I #
vertex $-1 $163 $176 #
straight-curve $-1 48.297755403726356 20 54.352391773067659 0 -1 0 I I #
plane-surface $-1 18.97249679981277 10 46.494712412315195 -0.25881904510252035 0 0.96592582628906842 0.96592582628906831 0 0.2588190451025203 forward_v I I I I #
face $-1 $177 $178 $2 $-1 $179 reversed single #
loop $-1 $-1 $180 $95 #
plane-surface $-1 117.58065546455268 10 -53.490673140013541 0.98480775301220758 0 0.17364817766693338 0.17364817766693338 0 -0.98480775301220758 forward_v I I I I #
coedge $-1 $181 $167 $182 $183 forward $96 $-1 #
coedge $-1 $100 $98 $102 $146 forward $63 $-1 #
coedge $-1 $167 $181 $98 $142 reversed $96 $-1 #
edge $-1 $169 0 $184 20 $98 $185 forward 7 unknown #
vertex $-1 $104 $186 #
straight-curve $-1 71.242435237126315 20 -60.500400205017854 0 -1 0 I I #
coedge $-1 $187 $102 $181 $188 reversed $40 $-1 #
edge $-1 $184 3.7702380373594587e-016 $143 1.1344640137963096 $140 $189 forward 7 unknown #
edge $-1 $148 0 $131 2.6179938779914949 $125 $190 forward 7 unknown #
vertex $-1 $147 $191 #
straight-curve $-1 71.242435237126301 0 -60.500400205017847 -0.96592582628906831 0 0.25881904510252046 I I #
coedge $-1 $119 $107 $192 $193 forward $10 $-1 #
coedge $-1 $194 $195 $107 $152 reversed $178 $-1 #
edge $-1 $156 0 $196 1.0471975511966038 $107 $197 forward 7 unknown #
coedge $-1 $198 $108 $111 $159 forward $155 $-1 #
coedge $-1 $108 $198 $194 $199 reversed $155 $-1 #
loop $-1 $-1 $153 $177 #
vertex $-1 $152 $200 #
straight-curve $-1 133.58185854701941 20 114.90666646784695 0.64278760968653714 0 -0.76604444311897979 I I #
coedge $-1 $111 $110 $201 $202 forward $112 $-1 #
edge $-1 $113 0 $203 20 $153 $204 forward 7 unknown #
face $-1 $117 $112 $2 $-1 $205 forward single #
point $-1 133.58185854701941 20 114.90666646784696 #
coedge $-1 $129 $201 $115 $163 reversed $40 $-1 #
edge $-1 $133 0 $164 0.43633231299858177 $115 $206 forward 7 unknown #
vertex $-1 $202 $207 #
straight-curve $-1 82.854926216288163 20 72.341716258375769 0 -1 0 I I #
cone-surface $-1 25.00404134449974 10 141.28571613908389 0 -1 0 23.293714059226613 0 -86.933324366016208 1 I I 0 1 90 forward I I I I #
coedge $-1 $139 $141 $119 $168 reversed $96 $-1 #
edge $-1 $208 0 $169 25.000000000000014 $119 $209 forward 7 unknown #
vertex $-1 $121 $210 #
ellipse-curve $-1 61.447225417721413 20 -97.056620921834394 0 -1 0 37.270822047543646 0 6.5718515201660068 1 I I #
point $-1 71.242435237126301 20 -60.500400205017847 #
straight-curve $-1 -10.352761804100815 20 -38.637033051562732 0 -1 0 I I #
cone-surface $-1 0 10 0 0 1 0 -10.352761804100828 0 -38.637033051562739 1 I I 0 1 40.000000000000007 forward I I I I #
straight-curve $-1 -10.352761804100819 0 38.637033051562732 0.96592582628906842 0 0.2588190451025203 I I #
point $-1 -10.352761804100819 0 38.637033051562732 #
point $-1 48.297755403726356 0 54.352391773067659 #
face $-1 $160 $155 $2 $-1 $211 forward single #
loop $-1 $-1 $194 $136 #
cone-surface $-1 230 10 0 0 -1 0 -77.134513162384479 0 91.925333174277569 1 I I 0 1 120 forward I I I I #
coedge $-1 $212 $192 $195 $213 forward $137 $-1 #
coedge $-1 $141 $139 $145 $188 forward $96 $-1 #
coedge $-1 $192 $212 $139 $183 reversed $137 $-1 #
edge $-1 $208 0 $214 20 $139 $215 forward 7 unknown #
vertex $-1 $146 $216 #
straight-curve $-1 98.718047465265059 20 -90.484769401668373 0 -1 0 I I #
point $-1 71.242435237126315 0 -60.500400205017847 #
coedge $-1 $217 $145 $212 $218 reversed $40 $-1 #
edge $-1 $214 0 $184 25.000000000000011 $181 $219 forward 7 unknown #
ellipse-curve $-1 61.447225417721413 0 -97.056620921834394 0 -1 0 37.270822047543646 0 6.5718515201660068 1 I I #
ellipse-curve $-1 -1.7763568394002505e-015 0 1.7763568394002505e-015 0 1 0 -10.352761804100822 0 -38.637033051562732 1 I I #
point $-1 -10.352761804100824 0 -38.637033051562732 #
coedge $-1 $180 $182 $150 $193 reversed $137 $-1 #
edge $-1 $196 3.4987399751152551e-015 $208 66.313230618071174 $150 $220 forward 7 unknown #
coedge $-1 $221 $151 $154 $199 forward $178 $-1 #
coedge $-1 $151 $221 $180 $213 reversed $178 $-1 #
vertex $-1 $193 $222 #
ellipse-curve $-1 230 20 7.1054273576010019e-015 0 -1 0 -77.134513162384479 0 91.925333174277569 1 I I #
coedge $-1 $154 $153 $223 $224 forward $155 $-1 #
edge $-1 $156 0 $225 20 $194 $226 forward 7 unknown #
point $-1 152.86548683761552 20 91.925333174277569 #
coedge $-1 $162 $223 $158 $202 reversed $40 $-1 #
edge $-1 $164 0 $203 66.219307230001647 $158 $227 forward 7 unknown #
vertex $-1 $224 $228 #
straight-curve $-1 133.58185854701941 20 114.90666646784695 0 -1 0 I I #
plane-surface $-1 108.21839238165379 10 93.624191363111365 -0.64278760968653736 0 0.76604444311897979 0.76604444311897979 0 0.64278760968653736 forward_v I I I I #
ellipse-curve $-1 25.004041344499548 0 141.28571613908423 0 -1 0 23.293714059226808 0 -86.933324366016564 1 I I #
point $-1 82.854926216288163 0 72.341716258375769 #
vertex $-1 $168 $229 #
straight-curve $-1 123.33824129057025 20 -86.143564959995032 -0.98480775301220735 0 -0.17364817766693413 I I #
point $-1 98.718047465265059 20 -90.484769401668387 #
plane-surface $-1 143.22367269231745 10 103.41599982106226 0.7660444431189799 0 0.64278760968653725 0.64278760968653725 0 -0.7660444431189799 forward_v I I I I #
coedge $-1 $182 $180 $187 $218 forward $137 $-1 #
edge $-1 $196 0 $230 20 $180 $231 forward 7 unknown #
vertex $-1 $188 $232 #
straight-curve $-1 123.33824129057025 20 -86.143564959995032 0 -1 0 I I #
point $-1 98.718047465265059 0 -90.484769401668373 #
coedge $-1 $223 $187 $221 $233 reversed $40 $-1 #
edge $-1 $230 -1.6462648924845395e-014 $214 66.313230618071174 $212 $234 forward 7 unknown #
straight-curve $-1 123.33824129057025 0 -86.143564959995032 -0.98480775301220735 0 -0.17364817766693413 I I #
straight-curve $-1 111.8230696385351 20 -20.837781320032036 0.17364817766693338 0 -0.98480775301220758 I I #
coedge $-1 $195 $194 $217 $233 forward $178 $-1 #
point $-1 111.8230696385351 20 -20.83778132003204 #
coedge $-1 $201 $217 $198 $224 reversed $40 $-1 #
edge $-1 $203 -1.088614628655165e-014 $225 30.000000000000004 $198 $235 forward 7 unknown #
vertex $-1 $233 $236 #
straight-curve $-1 152.86548683761552 20 91.925333174277554 0 -1 0 I I #
straight-curve $-1 82.854926216288163 0 72.341716258375769 0.76604444311897979 0 0.64278760968653725 I I #
point $-1 133.58185854701941 0 114.90666646784696 #
point $-1 123.33824129057025 20 -86.143564959995032 #
vertex $-1 $218 $237 #
straight-curve $-1 111.8230696385351 20 -20.837781320032022 0 -1 0 I I #
point $-1 123.33824129057025 0 -86.143564959995032 #
edge $-1 $225 1.8947806286936006e-016 $230 1.0471975511966036 $221 $238 forward 7 unknown #
straight-curve $-1 111.8230696385351 0 -20.837781320032036 0.17364817766693338 0 -0.98480775301220758 I I #
straight-curve $-1 133.58185854701941 0 114.90666646784695 0.64278760968653714 0 -0.76604444311897979 I I #
point $-1 152.86548683761552 0 91.925333174277554 #
point $-1 111.82306963853509 0 -20.837781320032022 #
ellipse-curve $-1 230 0 7.1054273576010019e-015 0 -1 0 -77.134513162384479 0 91.925333174277569 1 I I #
End-of-ACIS-data 