700 0 2 0           
24 FBMach with ACIS - 7.0.3 13 ACIS 7.0.3 NT 24 Wed May 15 09:31:18 2002 
1 9.9999999999999995e-007 1e-010 
body $2 -1 $-1 $3 $-1 $4 #
bdycol-kcp $-1 -1 1 4 $5 $6 $7 $8 #
model_id-kcp-attrib $-1 -1 $-1 $-1 $0 1 1021469477 1021469477 1100677121 1 #
lump $-1 -1 $-1 $-1 $9 $0 #
transform $-1 -1 1.0000000000000002 -5.5511151231257827e-017 -1.5407439555097887e-033 2.4739441667535922e-034 1.0000000000000004 2.7755575615628914e-017 -1.5407439555097887e-033 1.5407439555097887e-033 1 -7.3274719625260332e-015 1.3322676295501878e-015 1.4210854715202004e-014 1 rotate no_reflect no_shear #
body $10 -1 $-1 $11 $-1 $12 #
body $13 -1 $-1 $14 $-1 $15 #
body $16 -1 $-1 $17 $-1 $18 #
body $19 -1 $-1 $20 $-1 $21 #
shell $-1 -1 $-1 $-1 $-1 $22 $-1 $3 #
rgb_color-st-attrib $-1 -1 $23 $-1 $5 0.5 1 1 #
lump $-1 -1 $-1 $24 $25 $5 #
transform $-1 -1 1 0 0 0 1 0 0 0 1 -289.55165864828348 150.90091773752712 -7.1054273576010019e-015 1 no_rotate no_reflect no_shear #
model_id-kcp-attrib $-1 -1 $-1 $-1 $6 1 1021469477 1021469477 1100677122 1 #
lump $-1 -1 $-1 $-1 $26 $6 #
transform $-1 -1 1 0 0 0 1 0 0 0 1 -289.55165864828348 150.90091773752712 -7.1054273576010019e-015 1 no_rotate no_reflect no_shear #
rgb_color-st-attrib $-1 -1 $27 $-1 $7 0.5 0.5 1 #
lump $-1 -1 $-1 $-1 $28 $7 #
transform $-1 -1 1 0 0 0 1 0 0 0 1 -289.55165864828348 150.90091773752712 -7.1054273576010019e-015 1 no_rotate no_reflect no_shear #
rgb_color-st-attrib $-1 -1 $29 $-1 $8 0.5 0.5 1 #
lump $-1 -1 $-1 $-1 $30 $8 #
transform $-1 -1 1 0 0 0 1 0 0 0 1 -289.55165864828348 150.90091773752712 -7.1054273576010019e-015 1 no_rotate no_reflect no_shear #
face $31 -1 $-1 $32 $33 $9 $-1 $34 forward single #
model_id-kcp-attrib $-1 -1 $-1 $10 $5 1 1021469477 1021469477 1099628547 1 #
lump $-1 -1 $-1 $-1 $35 $5 #
shell $-1 -1 $-1 $-1 $-1 $36 $-1 $11 #
shell $-1 -1 $-1 $-1 $-1 $37 $-1 $14 #
model_id-kcp-attrib $-1 -1 $-1 $16 $7 1 1021469477 1021469478 1091633156 1 #
shell $-1 -1 $-1 $-1 $-1 $38 $-1 $17 #
model_id-kcp-attrib $-1 -1 $-1 $19 $8 1 1021469477 1021469478 1094254597 1 #
shell $-1 -1 $-1 $-1 $-1 $39 $-1 $20 #
model_id-kcp-attrib $-1 -1 $-1 $-1 $22 1 1021469477 1021469477 1100677121 2 #
face $40 -1 $-1 $41 $42 $9 $-1 $43 forward single #
loop $-1 -1 $-1 $-1 $44 $22 #
plane-surface $-1 -1 $-1 2.7239429984372809 5.3460391451302076 -98.5 0.4539904997395468 0.8910065241883679 0 -0.8910065241883679 0.4539904997395468 0 forward_v I I I I #
shell $-1 -1 $-1 $-1 $-1 $45 $-1 $24 #
face $-1 -1 $-1 $46 $47 $25 $-1 $48 reversed single #
face $49 -1 $-1 $50 $51 $26 $-1 $52 forward single #
face $-1 -1 $-1 $53 $54 $28 $-1 $55 reversed single #
face $-1 -1 $-1 $56 $57 $30 $-1 $58 reversed single #
model_id-kcp-attrib $-1 -1 $-1 $-1 $32 1 1021469477 1021469477 1100677121 3 #
face $59 -1 $-1 $60 $61 $9 $-1 $62 forward single #
loop $-1 -1 $-1 $-1 $63 $32 #
plane-surface $-1 -1 $-1 -571.55522355390201 294.58891090509371 -88.5 -0.63003675533505021 0.32101976096011053 -0.70710678118654435 -0.63003675533504833 0.32101976096010021 0.70710678118655068 forward_v I I I I #
coedge $-1 -1 $-1 $64 $65 $66 $67 forward $33 $-1 #
face $-1 -1 $-1 $68 $69 $35 $-1 $70 reversed single #
face $-1 -1 $-1 $71 $72 $25 $-1 $73 reversed single #
loop $-1 -1 $-1 $-1 $74 $36 #
plane-surface $-1 -1 $-1 -289.55165864828348 150.90091773752707 -78.5 -0.6300367553350541 0.32101976096010493 -0.70710678118654358 -0.4539904997395468 -0.8910065241883679 0 forward_v I I I I #
model_id-kcp-attrib $-1 -1 $-1 $-1 $37 1 1021469477 1021469477 1100677122 3 #
face $75 -1 $-1 $76 $77 $26 $-1 $78 reversed single #
loop $-1 -1 $-1 $-1 $79 $37 #
plane-surface $-1 -1 $-1 0 0 98.500000000000057 0 0 1 1 0 0 forward_v I I I I #
face $-1 -1 $-1 $80 $81 $28 $-1 $82 forward single #
loop $-1 -1 $-1 $-1 $83 $38 #
plane-surface $-1 -1 $-1 1.3619714992186118 2.6730195725650674 -1.4210854715202004e-014 0.4539904997395468 0.8910065241883679 0 -0.8910065241883679 0.4539904997395468 0 forward_v I I I I #
face $-1 -1 $-1 $84 $85 $30 $-1 $86 reversed single #
loop $-1 -1 $-1 $-1 $87 $39 #
plane-surface $-1 -1 $-1 -1.3619714992186687 -2.6730195725650674 7.1054273576010019e-015 -0.4539904997395468 -0.8910065241883679 0 0.8910065241883679 -0.4539904997395468 0 forward_v I I I I #
model_id-kcp-attrib $-1 -1 $-1 $-1 $41 1 1021469477 1021469477 1100677121 4 #
face $88 -1 $-1 $89 $90 $9 $-1 $91 reversed single #
loop $-1 -1 $-1 $-1 $92 $41 #
plane-surface $-1 -1 $-1 -289.55165864828354 150.90091773752718 -98.5 0 0 -1 -0.8910065241883679 0.45399049973954692 0 forward_v I I I I #
coedge $-1 -1 $-1 $93 $66 $94 $95 forward $42 $-1 #
coedge $-1 -1 $-1 $96 $44 $97 $98 forward $33 $-1 #
coedge $-1 -1 $-1 $44 $99 $100 $101 forward $33 $-1 #
coedge $-1 -1 $-1 $63 $102 $44 $67 reversed $42 $-1 #
edge $103 -1 $-1 $104 7.1626886362429394e-014 $105 28.284271247461891 $44 $106 forward @7 unknown #
face $-1 -1 $-1 $107 $108 $35 $-1 $109 forward single #
loop $-1 -1 $-1 $-1 $110 $45 #
plane-surface $-1 -1 $-1 0 -150.90091773752712 0 0 1 0 0 0 1 forward_v I I I I #
face $-1 -1 $-1 $111 $112 $25 $-1 $113 reversed single #
loop $-1 -1 $-1 $-1 $114 $46 #
plane-surface $-1 -1 $-1 -289.55165864828348 150.90091773752707 78.499999999999972 -0.8910065241883679 0.4539904997395468 0 -0.4539904997395468 -0.8910065241883679 0 forward_v I I I I #
coedge $-1 -1 $-1 $115 $116 $117 $118 reversed $47 $-1 #
model_id-kcp-attrib $-1 -1 $-1 $-1 $50 1 1021469477 1021469477 1100677122 2 #
face $-1 -1 $-1 $119 $120 $26 $-1 $121 reversed single #
loop $-1 -1 $-1 $-1 $122 $50 #
plane-surface $-1 -1 $-1 0 0 -98.500000000000057 0 0 1 1 0 0 forward_v I I I I #
coedge $-1 -1 $-1 $123 $124 $125 $126 forward $51 $-1 #
face $-1 -1 $-1 $127 $128 $28 $-1 $129 forward single #
loop $-1 -1 $-1 $-1 $130 $53 #
plane-surface $-1 -1 $-1 -271.73152816451613 141.82110774273625 98.5 -0.63003675533505099 0.32101976096010332 0.70710678118654702 -0.4539904997395468 -0.8910065241883679 0 forward_v I I I I #
coedge $-1 -1 $-1 $131 $132 $133 $134 forward $54 $-1 #
face $-1 -1 $-1 $135 $136 $30 $-1 $137 forward single #
loop $-1 -1 $-1 $-1 $138 $56 #
plane-surface $-1 -1 $-1 0 0 -98.500000000000057 0 0 1 1 0 0 forward_v I I I I #
coedge $-1 -1 $-1 $139 $140 $141 $142 forward $57 $-1 #
model_id-kcp-attrib $-1 -1 $-1 $-1 $60 1 1021469477 1021469477 1100677121 5 #
face $143 -1 $-1 $144 $145 $9 $-1 $146 reversed single #
loop $-1 -1 $-1 $-1 $147 $60 #
plane-surface $-1 -1 $-1 -7.5480937426650332 7.2129245699605695 -88.5 -0.63003675533505099 0.32101976096010337 0.70710678118654713 0.6300367553350501 -0.32101976096010293 0.70710678118654802 forward_v I I I I #
coedge $-1 -1 $-1 $148 $100 $149 $150 forward $61 $-1 #
coedge $-1 -1 $-1 $102 $63 $151 $152 forward $42 $-1 #
coedge $-1 -1 $-1 $100 $148 $63 $95 reversed $61 $-1 #
edge $153 -1 $-1 $104 -1.0097419586829104e-028 $154 5.9999999999999609 $94 $155 forward @7 unknown #
coedge $-1 -1 $-1 $156 $64 $157 $158 reversed $33 $-1 #
coedge $-1 -1 $-1 $159 $160 $64 $98 reversed $161 $-1 #
edge $162 -1 $-1 $105 0 $163 156.99999999999997 $64 $164 forward @7 unknown #
coedge $-1 -1 $-1 $65 $165 $166 $167 reversed $33 $-1 #
coedge $-1 -1 $-1 $92 $94 $65 $101 reversed $61 $-1 #
edge $168 -1 $-1 $169 3.9719401956195859e-015 $104 613.00000000000011 $65 $170 forward @7 unknown #
coedge $-1 -1 $-1 $66 $93 $159 $171 reversed $42 $-1 #
attrib_edge_convexity-kcp-attrib $-1 -1 $172 $-1 $67 1 #
vertex $-1 -1 $-1 $101 $173 #
vertex $-1 -1 $-1 $98 $174 #
straight-curve $-1 -1 $-1 -561.28318681279961 292.72202548026337 -98.5 -0.63003675533505032 0.32101976096010121 0.70710678118654846 I I #
face $-1 -1 $-1 $175 $176 $35 $-1 $177 reversed single #
loop $-1 -1 $-1 $-1 $178 $68 #
plane-surface $-1 -1 $-1 0 0 98.500000000000057 0 0 1 1 0 0 forward_v I I I I #
coedge $-1 -1 $-1 $179 $180 $181 $182 forward $69 $-1 #
face $-1 -1 $-1 $183 $184 $25 $-1 $177 reversed single #
loop $-1 -1 $-1 $-1 $185 $71 #
plane-surface $-1 -1 $-1 -271.73152816451613 141.82110774273625 98.5 -0.63003675533505099 0.32101976096010332 0.70710678118654702 -0.4539904997395468 -0.8910065241883679 0 forward_v I I I I #
coedge $-1 -1 $-1 $186 $187 $188 $189 reversed $72 $-1 #
coedge $-1 -1 $-1 $190 $74 $191 $192 reversed $47 $-1 #
coedge $-1 -1 $-1 $74 $190 $186 $193 reversed $47 $-1 #
coedge $-1 -1 $-1 $188 $194 $74 $118 forward $195 $-1 #
edge $-1 -1 $-1 $196 -0.77242772119037884 $197 47.608725619006279 $117 $198 forward @7 unknown #
face $-1 -1 $-1 $199 $200 $26 $-1 $201 reversed single #
loop $-1 -1 $-1 $-1 $202 $76 #
plane-surface $-1 -1 $-1 0 -150.90091773752712 0 0 1 0 0 0 1 forward_v I I I I #
coedge $-1 -1 $-1 $203 $204 $205 $206 forward $77 $-1 #
coedge $-1 -1 $-1 $207 $79 $208 $209 forward $51 $-1 #
coedge $-1 -1 $-1 $79 $207 $210 $211 forward $51 $-1 #
coedge $-1 -1 $-1 $212 $213 $79 $126 reversed $214 $-1 #
edge $-1 -1 $-1 $215 -150.90091773752712 $216 150.90091773752712 $125 $217 forward @7 unknown #
face $-1 -1 $-1 $218 $219 $28 $-1 $220 forward single #
loop $-1 -1 $-1 $-1 $221 $80 #
plane-surface $-1 -1 $-1 0 0 98.500000000000057 0 0 1 1 0 0 forward_v I I I I #
coedge $-1 -1 $-1 $222 $223 $224 $225 reversed $81 $-1 #
coedge $-1 -1 $-1 $224 $83 $221 $226 forward $54 $-1 #
coedge $-1 -1 $-1 $83 $227 $228 $229 reversed $54 $-1 #
coedge $-1 -1 $-1 $230 $231 $83 $134 reversed $219 $-1 #
edge $232 -1 $-1 $233 -87.681240867131493 $234 -59.396969619669612 $133 $235 forward @7 unknown #
face $-1 -1 $-1 $236 $237 $30 $-1 $238 forward single #
loop $-1 -1 $-1 $-1 $239 $84 #
plane-surface $-1 -1 $-1 274.45547116295342 -136.475068597606 -98.5 0.63003675533504966 -0.32101976096010265 -0.70710678118654857 0.4539904997395468 0.8910065241883679 0 forward_v I I I I #
coedge $-1 -1 $-1 $240 $241 $242 $243 reversed $85 $-1 #
coedge $-1 -1 $-1 $244 $87 $245 $246 reversed $57 $-1 #
coedge $-1 -1 $-1 $87 $247 $248 $249 forward $57 $-1 #
coedge $-1 -1 $-1 $250 $251 $87 $142 reversed $237 $-1 #
edge $252 -1 $-1 $253 59.396969619669612 $254 87.681240867131507 $141 $255 forward @7 unknown #
model_id-kcp-attrib $-1 -1 $-1 $-1 $89 1 1021469477 1021469477 1100677121 6 #
face $256 -1 $-1 $257 $258 $9 $-1 $259 forward single #
loop $-1 -1 $-1 $-1 $260 $89 #
plane-surface $-1 -1 $-1 1.3619714992186405 2.6730195725651038 1.4210854715202004e-014 -0.8910065241883679 0.45399049973954675 0 0 0 1 forward_v I I I I #
coedge $-1 -1 $-1 $261 $166 $262 $263 forward $90 $-1 #
coedge $-1 -1 $-1 $94 $92 $264 $265 forward $61 $-1 #
coedge $-1 -1 $-1 $166 $261 $92 $150 reversed $90 $-1 #
edge $266 -1 $-1 $169 -1.1003019287456772e-015 $267 5.9999999999999858 $92 $268 forward @7 unknown #
coedge $-1 -1 $-1 $264 $269 $93 $152 reversed $270 $-1 #
edge $271 -1 $-1 $154 -1.0048591735576171e-014 $272 28.284271247461874 $93 $273 forward @7 unknown #
attrib_edge_convexity-kcp-attrib $-1 -1 $274 $-1 $95 1 #
vertex $-1 -1 $-1 $95 $275 #
straight-curve $-1 -1 $-1 -561.28318681279973 292.72202548026337 -98.500000000000014 -0.45399049973954414 -0.89100652418836923 -7.1054273576011091e-015 I I #
coedge $-1 -1 $-1 $276 $96 $277 $278 reversed $33 $-1 #
coedge $-1 -1 $-1 $279 $280 $96 $158 forward $281 $-1 #
edge $282 -1 $-1 $283 -2.1946506207452907e-014 $163 28.28427124746193 $96 $284 forward @7 unknown #
coedge $-1 -1 $-1 $285 $97 $102 $171 forward $161 $-1 #
coedge $-1 -1 $-1 $97 $285 $279 $286 reversed $161 $-1 #
loop $-1 -1 $-1 $-1 $159 $287 #
attrib_edge_convexity-kcp-attrib $-1 -1 $288 $-1 $98 1 #
vertex $-1 -1 $-1 $158 $289 #
straight-curve $-1 -1 $-1 -579.10331729656696 301.80183547505425 -78.499999999999986 0 0 1 I I #
coedge $-1 -1 $-1 $99 $276 $290 $291 reversed $33 $-1 #
coedge $-1 -1 $-1 $147 $149 $99 $167 forward $90 $-1 #
edge $292 -1 $-1 $169 -6.2359134277344754e-014 $293 28.284271247461902 $99 $294 forward @7 unknown #
attrib_edge_convexity-kcp-attrib $-1 -1 $295 $-1 $101 1 #
vertex $-1 -1 $-1 $101 $296 #
straight-curve $-1 -1 $-1 -15.096187485330137 14.425849139921175 -98.5 -0.8910065241883679 0.4539904997395468 0 I I #
edge $297 -1 $-1 $105 0 $272 6.0000000000000124 $159 $298 forward @7 unknown #
convexity-sys-attrib $-1 -1 $-1 $103 $67 #
point $-1 -1 $-1 -561.28318681279973 292.72202548026337 -98.5 #
point $-1 -1 $-1 -579.10331729656696 301.80183547505425 -78.499999999999986 #
face $-1 -1 $-1 $299 $300 $35 $-1 $301 reversed single #
loop $-1 -1 $-1 $-1 $302 $107 #
plane-surface $-1 -1 $-1 0 0 -98.500000000000057 0 0 1 1 0 0 forward_v I I I I #
coedge $-1 -1 $-1 $303 $304 $305 $306 forward $108 $-1 #
coedge $-1 -1 $-1 $307 $110 $308 $309 reversed $69 $-1 #
coedge $-1 -1 $-1 $110 $310 $311 $312 forward $69 $-1 #
coedge $-1 -1 $-1 $313 $314 $110 $182 reversed $315 $-1 #
edge $-1 -1 $-1 $316 -94.270189664915961 $317 -64.206150124744397 $110 $318 forward @7 unknown #
face $-1 -1 $-1 $319 $195 $25 $-1 $320 reversed single #
loop $-1 -1 $-1 $-1 $191 $111 #
coedge $-1 -1 $-1 $321 $322 $323 $324 reversed $112 $-1 #
coedge $-1 -1 $-1 $325 $114 $116 $193 forward $72 $-1 #
coedge $-1 -1 $-1 $114 $325 $321 $326 forward $72 $-1 #
coedge $-1 -1 $-1 $323 $117 $114 $189 forward $195 $-1 #
edge $-1 -1 $-1 $197 -117.74999999999999 $327 39.249999999999986 $188 $328 forward @7 unknown #
coedge $-1 -1 $-1 $116 $115 $329 $330 reversed $47 $-1 #
coedge $-1 -1 $-1 $331 $332 $115 $192 forward $184 $-1 #
edge $-1 -1 $-1 $333 -11.690508989888473 $196 43.752210110102659 $191 $334 forward @7 unknown #
edge $-1 -1 $-1 $197 -6.0000000000001137 $335 7.6454229197674679e-014 $116 $336 forward @7 unknown #
coedge $-1 -1 $-1 $117 $337 $331 $338 reversed $195 $-1 #
loop $-1 -1 $-1 $-1 $117 $183 #
vertex $-1 -1 $-1 $338 $339 #
vertex $-1 -1 $-1 $189 $340 #
straight-curve $-1 -1 $-1 -292.27560164672082 102.20443256884478 -98.180690654164835 0 0.91055674059558711 0.41338410970420814 I I #
face $-1 -1 $-1 $341 $342 $26 $-1 $343 reversed single #
loop $-1 -1 $-1 $-1 $344 $119 #
plane-surface $-1 -1 $-1 -292.27560164672082 0 0 1 0 0 0 0 -1 forward_v I I I I #
coedge $-1 -1 $-1 $345 $210 $346 $347 forward $120 $-1 #
coedge $-1 -1 $-1 $348 $122 $345 $349 forward $77 $-1 #
coedge $-1 -1 $-1 $122 $348 $350 $351 forward $77 $-1 #
coedge $-1 -1 $-1 $213 $212 $122 $206 reversed $214 $-1 #
edge $-1 -1 $-1 $352 -150.90091773752712 $353 150.90091773752712 $205 $354 forward @7 unknown #
coedge $-1 -1 $-1 $124 $123 $355 $356 forward $51 $-1 #
coedge $-1 -1 $-1 $357 $358 $123 $209 reversed $342 $-1 #
edge $-1 -1 $-1 $216 -292.27560164672082 $359 292.27560164672082 $208 $360 forward @7 unknown #
coedge $-1 -1 $-1 $202 $361 $124 $211 reversed $120 $-1 #
edge $-1 -1 $-1 $362 -292.27560164672082 $215 292.27560164672082 $210 $363 forward @7 unknown #
coedge $-1 -1 $-1 $205 $125 $361 $364 forward $214 $-1 #
coedge $-1 -1 $-1 $125 $205 $357 $365 reversed $214 $-1 #
loop $-1 -1 $-1 $-1 $212 $341 #
vertex $-1 -1 $-1 $126 $366 #
vertex $-1 -1 $-1 $126 $367 #
straight-curve $-1 -1 $-1 292.27560164672082 0 98.500000000000057 0 1 0 I I #
face $-1 -1 $-1 $368 $369 $28 $-1 $370 forward single #
loop $-1 -1 $-1 $-1 $133 $127 #
plane-surface $-1 -1 $-1 292.27560164672076 -145.55487859239693 78.5 0.63003675533505232 -0.32101976096010404 0.70710678118654557 0.4539904997395468 0.8910065241883679 0 forward_v I I I I #
coedge $-1 -1 $-1 $371 $372 $131 $226 reversed $128 $-1 #
coedge $-1 -1 $-1 $223 $130 $372 $373 reversed $81 $-1 #
coedge $-1 -1 $-1 $130 $222 $374 $375 reversed $81 $-1 #
coedge $-1 -1 $-1 $376 $131 $130 $225 forward $54 $-1 #
edge $377 -1 $-1 $378 73.539105243400769 $379 101.8233764908627 $130 $380 forward @7 unknown #
edge $381 -1 $-1 $234 -306.50000000000017 $378 306.5 $221 $382 forward @7 unknown #
coedge $-1 -1 $-1 $132 $383 $384 $385 forward $54 $-1 #
coedge $-1 -1 $-1 $386 $387 $132 $229 forward $388 $-1 #
edge $389 -1 $-1 $233 -117.75 $390 39.25 $228 $391 forward @7 unknown #
coedge $-1 -1 $-1 $231 $133 $387 $392 reversed $219 $-1 #
coedge $-1 -1 $-1 $133 $230 $371 $393 reversed $219 $-1 #
convexity-sys-attrib $-1 -1 $-1 $-1 $134 #
vertex $-1 -1 $-1 $392 $394 #
vertex $-1 -1 $-1 $393 $395 #
straight-curve $-1 -1 $-1 237.03319714704236 -117.40746760854529 140.49999999999989 -0.63003675533504877 0.32101976096010221 0.70710678118654968 I I #
face $-1 -1 $-1 $396 $397 $30 $-1 $398 forward single #
loop $-1 -1 $-1 $-1 $141 $135 #
plane-surface $-1 -1 $-1 292.27560164672076 -145.55487859239693 78.5 0.63003675533505232 -0.32101976096010404 0.70710678118654557 0.4539904997395468 0.8910065241883679 0 forward_v I I I I #
coedge $-1 -1 $-1 $399 $400 $244 $401 reversed $136 $-1 #
coedge $-1 -1 $-1 $402 $138 $400 $403 forward $85 $-1 #
coedge $-1 -1 $-1 $138 $404 $405 $406 forward $85 $-1 #
coedge $-1 -1 $-1 $407 $244 $138 $243 forward $57 $-1 #
edge $408 -1 $-1 $409 -306.50000000000006 $410 306.50000000000017 $138 $411 forward @7 unknown #
coedge $-1 -1 $-1 $242 $139 $239 $401 forward $57 $-1 #
coedge $-1 -1 $-1 $412 $413 $139 $246 forward $414 $-1 #
edge $415 -1 $-1 $416 -39.25 $254 117.75 $245 $417 forward @7 unknown #
coedge $-1 -1 $-1 $140 $418 $419 $420 forward $57 $-1 #
coedge $-1 -1 $-1 $421 $422 $140 $249 reversed $423 $-1 #
edge $424 -1 $-1 $425 -306.5 $253 306.50000000000017 $248 $426 forward @7 unknown #
coedge $-1 -1 $-1 $251 $141 $422 $427 reversed $237 $-1 #
coedge $-1 -1 $-1 $141 $250 $412 $428 reversed $237 $-1 #
convexity-sys-attrib $-1 -1 $-1 $-1 $142 #
vertex $-1 -1 $-1 $142 $429 #
vertex $-1 -1 $-1 $428 $430 #
straight-curve $-1 -1 $-1 234.30925414860508 -122.75350675367542 140.49999999999989 0.63003675533504877 -0.32101976096010221 -0.70710678118654968 I I #
model_id-kcp-attrib $-1 -1 $-1 $-1 $144 1 1021469477 1021469477 1100677121 7 #
face $431 -1 $-1 $432 $433 $9 $-1 $434 reversed single #
loop $-1 -1 $-1 $-1 $435 $144 #
plane-surface $-1 -1 $-1 -7.5480937426649835 7.2129245699605438 88.5 0.63003675533505243 -0.32101976096010404 0.70710678118654535 0.63003675533504855 -0.3210197609601021 -0.70710678118654968 forward_v I I I I #
coedge $-1 -1 $-1 $436 $290 $437 $438 forward $145 $-1 #
coedge $-1 -1 $-1 $149 $147 $439 $440 reversed $90 $-1 #
coedge $-1 -1 $-1 $290 $436 $147 $263 reversed $145 $-1 #
edge $441 -1 $-1 $293 -9.9298504890489648e-016 $442 5.9999999999999991 $147 $443 forward @7 unknown #
coedge $-1 -1 $-1 $439 $151 $148 $265 reversed $270 $-1 #
edge $444 -1 $-1 $267 3.2861019674961499e-015 $154 613.00000000000011 $148 $445 forward @7 unknown #
attrib_edge_convexity-kcp-attrib $-1 -1 $446 $-1 $150 1 #
vertex $-1 -1 $-1 $265 $447 #
straight-curve $-1 -1 $-1 -15.096187485330084 14.425849139921146 -98.5 -0.45399049973954669 -0.89100652418836779 0 I I #
coedge $-1 -1 $-1 $151 $448 $285 $449 reversed $270 $-1 #
loop $-1 -1 $-1 $-1 $439 $450 #
attrib_edge_convexity-kcp-attrib $-1 -1 $451 $-1 $152 1 #
vertex $-1 -1 $-1 $449 $452 #
straight-curve $-1 -1 $-1 -564.00712981123695 287.37598633513318 -98.499999999999986 -0.63003675533505066 0.32101976096010132 0.70710678118654824 I I #
convexity-sys-attrib $-1 -1 $-1 $153 $95 #
point $-1 -1 $-1 -564.00712981123695 287.37598633513318 -98.5 #
coedge $-1 -1 $-1 $165 $156 $453 $454 forward $33 $-1 #
coedge $-1 -1 $-1 $455 $456 $156 $278 forward $433 $-1 #
edge $457 -1 $-1 $458 -7.9438803912391722e-014 $283 613.00000000000011 $156 $459 forward @7 unknown #
coedge $-1 -1 $-1 $460 $157 $160 $286 forward $281 $-1 #
coedge $-1 -1 $-1 $157 $460 $455 $461 reversed $281 $-1 #
loop $-1 -1 $-1 $-1 $279 $432 #
attrib_edge_convexity-kcp-attrib $-1 -1 $462 $-1 $158 1 #
vertex $-1 -1 $-1 $278 $463 #
straight-curve $-1 -1 $-1 -561.2831868127995 292.72202548026331 98.499999999999943 -0.63003675533505354 0.32101976096010276 -0.70710678118654491 I I #
coedge $-1 -1 $-1 $160 $159 $269 $449 forward $161 $-1 #
edge $-1 -1 $-1 $163 0 $464 6.0000000000000124 $279 $465 forward @7 unknown #
face $466 -1 $-1 $450 $161 $9 $-1 $467 forward single #
convexity-sys-attrib $-1 -1 $-1 $162 $98 #
point $-1 -1 $-1 -579.10331729656696 301.80183547505425 78.499999999999986 #
coedge $-1 -1 $-1 $260 $262 $165 $291 forward $145 $-1 #
edge $468 -1 $-1 $293 1.4210854715202004e-014 $469 157 $165 $470 forward @7 unknown #
attrib_edge_convexity-kcp-attrib $-1 -1 $471 $-1 $167 1 #
vertex $-1 -1 $-1 $167 $472 #
straight-curve $-1 -1 $-1 -15.096187485330063 14.425849139921135 -98.5 0.6300367553350501 -0.32101976096010282 0.70710678118654802 I I #
convexity-sys-attrib $-1 -1 $-1 $168 $101 #
point $-1 -1 $-1 -15.096187485330141 14.425849139921176 -98.5 #
attrib_edge_convexity-kcp-attrib $-1 -1 $473 $-1 $171 1 #
straight-curve $-1 -1 $-1 -579.10331729656696 301.80183547505425 -78.499999999999986 -0.45399049973955535 -0.89100652418836357 0 I I #
face $-1 -1 $-1 $474 $475 $35 $-1 $476 reversed single #
loop $-1 -1 $-1 $-1 $477 $175 #
plane-surface $-1 -1 $-1 292.27560164672082 0 0 -1 0 0 0 0 1 forward_v I I I I #
coedge $-1 -1 $-1 $478 $308 $314 $479 forward $176 $-1 #
coedge $-1 -1 $-1 $304 $178 $480 $481 forward $108 $-1 #
coedge $-1 -1 $-1 $178 $303 $482 $483 forward $108 $-1 #
coedge $-1 -1 $-1 $484 $485 $178 $306 reversed $475 $-1 #
edge $-1 -1 $-1 $486 -40.752210110103022 $487 14.690508989888531 $178 $488 forward @7 unknown #
coedge $-1 -1 $-1 $480 $179 $489 $490 reversed $69 $-1 #
coedge $-1 -1 $-1 $302 $478 $179 $309 forward $176 $-1 #
edge $-1 -1 $-1 $491 -292.27560164672082 $317 -267.10513389559628 $179 $492 forward @7 unknown #
coedge $-1 -1 $-1 $180 $480 $485 $493 forward $69 $-1 #
coedge $-1 -1 $-1 $494 $495 $180 $312 reversed $496 $-1 #
edge $-1 -1 $-1 $497 -117.75 $316 39.25 $180 $498 forward @7 unknown #
coedge $-1 -1 $-1 $499 $181 $495 $500 reversed $315 $-1 #
coedge $-1 -1 $-1 $181 $499 $302 $479 reversed $315 $-1 #
loop $-1 -1 $-1 $-1 $181 $501 #
vertex $-1 -1 $-1 $182 $502 #
vertex $-1 -1 $-1 $479 $503 #
straight-curve $-1 -1 $-1 219.1672998555602 -150.90091773752712 -141.21292288513129 -0.74662371045295473 0 -0.66524659712730771 I I #
face $-1 -1 $-1 $504 $505 $25 $-1 $109 forward single #
plane-surface $-1 -1 $-1 -292.27560164672082 0 0 1 0 0 0 0 -1 forward_v I I I I #
coedge $-1 -1 $-1 $506 $185 $187 $326 reversed $112 $-1 #
coedge $-1 -1 $-1 $185 $506 $507 $508 reversed $112 $-1 #
coedge $-1 -1 $-1 $509 $188 $185 $324 forward $195 $-1 #
edge $-1 -1 $-1 $327 -55.876407813090594 $510 -7.4952544728935235 $323 $511 forward @7 unknown #
coedge $-1 -1 $-1 $187 $186 $512 $513 reversed $72 $-1 #
edge $-1 -1 $-1 $514 -7.6454229197674679e-014 $327 6.0000000000001137 $321 $515 forward @7 unknown #
vertex $-1 -1 $-1 $324 $516 #
straight-curve $-1 -1 $-1 -292.27560164672082 145.55487859239679 39.249999999999986 0 0 1 I I #
coedge $-1 -1 $-1 $517 $512 $190 $330 forward $518 $-1 #
edge $-1 -1 $-1 $335 -81.982137936646637 $333 -51.918098396475287 $329 $519 forward @7 unknown #
coedge $-1 -1 $-1 $332 $191 $194 $338 forward $184 $-1 #
coedge $-1 -1 $-1 $191 $331 $517 $520 forward $184 $-1 #
vertex $-1 -1 $-1 $330 $521 #
straight-curve $-1 -1 $-1 -272.41251391412561 140.48459795645371 -98.500000000000057 -0.4539904997395468 -0.8910065241883679 0 I I #
vertex $-1 -1 $-1 $513 $522 #
straight-curve $-1 -1 $-1 -289.55165864828348 150.90091773752707 -78.5 0.4539904997395468 0.8910065241883679 0 I I #
coedge $-1 -1 $-1 $194 $509 $523 $524 forward $195 $-1 #
edge $-1 -1 $-1 $196 101.50109330069201 $525 150.90091773752712 $194 $526 forward @7 unknown #
point $-1 -1 $-1 -292.27560164672082 101.50109330069201 -98.5 #
point $-1 -1 $-1 -292.27560164672082 145.55487859239676 -78.5 #
face $-1 -1 $-1 $-1 $214 $26 $-1 $527 reversed single #
loop $-1 -1 $-1 $-1 $357 $199 #
plane-surface $-1 -1 $-1 0 150.90091773752712 0 0 -1 0 0 0 -1 forward_v I I I I #
coedge $-1 -1 $-1 $528 $355 $358 $529 forward $200 $-1 #
coedge $-1 -1 $-1 $361 $202 $203 $349 reversed $120 $-1 #
coedge $-1 -1 $-1 $355 $528 $202 $347 reversed $200 $-1 #
edge $-1 -1 $-1 $362 -98.500000000000057 $530 98.500000000000057 $346 $531 forward @7 unknown #
coedge $-1 -1 $-1 $204 $203 $528 $532 forward $77 $-1 #
edge $-1 -1 $-1 $353 -292.27560164672082 $530 292.27560164672082 $345 $533 forward @7 unknown #
coedge $-1 -1 $-1 $358 $357 $204 $351 reversed $342 $-1 #
edge $-1 -1 $-1 $534 -292.27560164672082 $352 292.27560164672082 $350 $535 forward @7 unknown #
vertex $-1 -1 $-1 $206 $536 #
vertex $-1 -1 $-1 $364 $537 #
straight-curve $-1 -1 $-1 292.27560164672082 0 -98.500000000000057 0 -1 0 I I #
coedge $-1 -1 $-1 $344 $346 $207 $356 reversed $200 $-1 #
edge $-1 -1 $-1 $359 -150.90091773752712 $362 150.90091773752712 $355 $538 forward @7 unknown #
coedge $-1 -1 $-1 $350 $208 $213 $365 forward $342 $-1 #
coedge $-1 -1 $-1 $208 $350 $344 $529 reversed $342 $-1 #
vertex $-1 -1 $-1 $209 $539 #
straight-curve $-1 -1 $-1 0 150.90091773752712 98.500000000000057 -1 0 0 I I #
coedge $-1 -1 $-1 $210 $345 $212 $364 reversed $120 $-1 #
vertex $-1 -1 $-1 $356 $540 #
straight-curve $-1 -1 $-1 0 -150.90091773752712 98.500000000000057 1 0 0 I I #
edge $-1 -1 $-1 $215 -98.500000000000057 $353 98.500000000000057 $212 $541 forward @7 unknown #
edge $-1 -1 $-1 $216 -98.500000000000057 $352 98.500000000000057 $213 $542 forward @7 unknown #
point $-1 -1 $-1 292.27560164672082 -150.90091773752712 98.500000000000057 #
point $-1 -1 $-1 292.27560164672082 150.90091773752712 98.500000000000057 #
face $-1 -1 $-1 $543 $544 $28 $-1 $545 forward single #
loop $-1 -1 $-1 $-1 $546 $218 #
plane-surface $-1 -1 $-1 -289.55165864828348 150.90091773752707 -78.5 -0.6300367553350541 0.32101976096010493 -0.70710678118654358 -0.4539904997395468 -0.8910065241883679 0 forward_v I I I I #
coedge $-1 -1 $-1 $547 $221 $231 $393 forward $128 $-1 #
coedge $-1 -1 $-1 $221 $548 $222 $373 forward $128 $-1 #
edge $-1 -1 $-1 $549 -11.690508989888549 $378 -1.499999999999952 $372 $550 forward @7 unknown #
coedge $-1 -1 $-1 $551 $552 $223 $375 forward $553 $-1 #
edge $-1 -1 $-1 $379 -95.287069879193439 $549 -65.223030339021904 $374 $554 forward @7 unknown #
coedge $-1 -1 $-1 $555 $224 $552 $556 reversed $54 $-1 #
convexity-sys-attrib $-1 -1 $-1 $-1 $225 #
vertex $-1 -1 $-1 $226 $557 #
vertex $-1 -1 $-1 $556 $558 #
straight-curve $-1 -1 $-1 -225.39918890672112 118.21360175627979 150.49999999999994 -0.6300367553350501 0.32101976096010287 -0.70710678118654813 I I #
convexity-sys-attrib $-1 -1 $-1 $-1 $226 #
straight-curve $-1 -1 $-1 1.3619714992186158 2.6730195725650656 98.500000000000043 -0.8910065241883679 0.4539904997395468 0 I I #
coedge $-1 -1 $-1 $227 $555 $559 $560 forward $54 $-1 #
coedge $-1 -1 $-1 $561 $562 $227 $385 reversed $544 $-1 #
edge $563 -1 $-1 $564 73.539105243401124 $390 101.82337649086304 $384 $565 forward @7 unknown #
coedge $-1 -1 $-1 $566 $228 $562 $567 forward $388 $-1 #
coedge $-1 -1 $-1 $228 $568 $230 $392 forward $388 $-1 #
loop $-1 -1 $-1 $-1 $387 $569 #
convexity-sys-attrib $-1 -1 $-1 $-1 $229 #
vertex $-1 -1 $-1 $229 $570 #
straight-curve $-1 -1 $-1 292.27560164672082 -145.5548785923969 -39.25 0 0 -1 I I #
edge $-1 -1 $-1 $571 1.6615082683524534 $233 50.042661608549537 $387 $572 forward @7 unknown #
edge $-1 -1 $-1 $234 1.4999999999999523 $571 40.752210110103022 $371 $573 forward @7 unknown #
point $-1 -1 $-1 292.27560164672082 -145.55487859239682 78.5 #
point $-1 -1 $-1 274.45547116295347 -136.47506859760608 98.500000000000057 #
face $-1 -1 $-1 $574 $575 $30 $-1 $576 forward single #
loop $-1 -1 $-1 $-1 $577 $236 #
plane-surface $-1 -1 $-1 -289.55165864828348 150.90091773752707 -78.5 -0.6300367553350541 0.32101976096010493 -0.70710678118654358 -0.4539904997395468 -0.8910065241883679 0 forward_v I I I I #
coedge $-1 -1 $-1 $400 $239 $413 $578 reversed $136 $-1 #
coedge $-1 -1 $-1 $239 $399 $240 $403 reversed $136 $-1 #
edge $579 -1 $-1 $416 -101.82337649086307 $409 -73.539105243401124 $239 $580 forward @7 unknown #
coedge $-1 -1 $-1 $404 $240 $581 $582 forward $85 $-1 #
edge $-1 -1 $-1 $409 4.4999999999999831 $583 14.690508989888556 $240 $584 forward @7 unknown #
coedge $-1 -1 $-1 $241 $402 $585 $586 forward $85 $-1 #
coedge $-1 -1 $-1 $587 $577 $241 $406 reversed $397 $-1 #
edge $-1 -1 $-1 $588 -43.752210110102659 $410 -4.4999999999999574 $241 $589 forward @7 unknown #
coedge $-1 -1 $-1 $418 $242 $577 $590 forward $57 $-1 #
convexity-sys-attrib $-1 -1 $-1 $-1 $243 #
vertex $-1 -1 $-1 $403 $591 #
vertex $-1 -1 $-1 $243 $592 #
straight-curve $-1 -1 $-1 -1.3619714992186502 -2.6730195725650772 -98.500000000000043 -0.8910065241883679 0.4539904997395468 0 I I #
coedge $-1 -1 $-1 $593 $245 $251 $428 forward $414 $-1 #
coedge $-1 -1 $-1 $245 $581 $399 $578 forward $414 $-1 #
loop $-1 -1 $-1 $-1 $412 $594 #
convexity-sys-attrib $-1 -1 $-1 $-1 $246 #
vertex $-1 -1 $-1 $246 $595 #
straight-curve $-1 -1 $-1 289.55165864828354 -150.90091773752712 -39.25 0 0 1 I I #
coedge $-1 -1 $-1 $247 $407 $596 $597 reversed $57 $-1 #
coedge $-1 -1 $-1 $598 $599 $247 $420 reversed $575 $-1 #
edge $600 -1 $-1 $601 -101.8233764908627 $425 -73.539105243400769 $419 $602 forward @7 unknown #
coedge $-1 -1 $-1 $603 $248 $599 $604 forward $423 $-1 #
coedge $-1 -1 $-1 $248 $605 $250 $427 forward $423 $-1 #
loop $-1 -1 $-1 $-1 $248 $574 #
convexity-sys-attrib $-1 -1 $-1 $-1 $249 #
vertex $-1 -1 $-1 $604 $606 #
straight-curve $-1 -1 $-1 -1.3619714992186502 -2.6730195725650772 98.500000000000043 0.8910065241883679 -0.4539904997395468 0 I I #
edge $-1 -1 $-1 $607 -14.690508989888531 $253 -4.4999999999999831 $422 $608 forward @7 unknown #
edge $-1 -1 $-1 $254 -80.965257722369273 $607 -50.901218182197717 $412 $609 forward @7 unknown #
point $-1 -1 $-1 271.73152816451619 -141.82110774273622 98.500000000000057 #
point $-1 -1 $-1 289.55165864828348 -150.90091773752712 78.5 #
model_id-kcp-attrib $-1 -1 $-1 $-1 $257 1 1021469477 1021469477 1100677121 8 #
face $610 -1 $-1 $287 $281 $9 $-1 $611 reversed single #
loop $-1 -1 $-1 $-1 $455 $257 #
plane-surface $-1 -1 $-1 -289.55165864828342 150.90091773752715 98.5 0 0 -1 -0.8910065241883679 0.45399049973954692 0 forward_v I I I I #
coedge $-1 -1 $-1 $612 $453 $456 $613 forward $258 $-1 #
coedge $-1 -1 $-1 $262 $260 $614 $615 reversed $145 $-1 #
coedge $-1 -1 $-1 $453 $612 $260 $438 reversed $258 $-1 #
edge $616 -1 $-1 $469 -2.0161228230877037e-016 $617 6 $260 $618 forward @7 unknown #
coedge $-1 -1 $-1 $614 $264 $261 $440 forward $270 $-1 #
edge $619 -1 $-1 $267 -6.1874173415441711e-014 $442 28.284271247461902 $261 $620 forward @7 unknown #
attrib_edge_convexity-kcp-attrib $-1 -1 $621 $-1 $263 1 #
vertex $-1 -1 $-1 $440 $622 #
straight-curve $-1 -1 $-1 2.723942998437284 5.3460391451302041 -78.499999999999986 -0.45399049973954692 -0.8910065241883679 0 I I #
attrib_edge_convexity-kcp-attrib $-1 -1 $623 $-1 $265 1 #
straight-curve $-1 -1 $-1 -17.820130483767418 9.079809994790967 -98.5 -0.89100652418836779 0.4539904997395468 0 I I #
convexity-sys-attrib $-1 -1 $-1 $266 $150 #
point $-1 -1 $-1 -17.820130483767414 9.0798099947909812 -98.5 #
coedge $-1 -1 $-1 $269 $624 $460 $625 forward $270 $-1 #
edge $626 -1 $-1 $272 0 $464 157 $285 $627 forward @7 unknown #
face $628 -1 $-1 $-1 $270 $9 $-1 $629 reversed single #
convexity-sys-attrib $-1 -1 $-1 $271 $152 #
point $-1 -1 $-1 -581.82726029500429 296.45579632992406 -78.499999999999986 #
coedge $-1 -1 $-1 $435 $437 $276 $454 reversed $258 $-1 #
edge $630 -1 $-1 $458 0 $469 28.284271247461813 $276 $631 forward @7 unknown #
coedge $-1 -1 $-1 $632 $277 $280 $461 forward $433 $-1 #
coedge $-1 -1 $-1 $277 $632 $435 $613 reversed $433 $-1 #
attrib_edge_convexity-kcp-attrib $-1 -1 $633 $-1 $278 1 #
vertex $-1 -1 $-1 $454 $634 #
straight-curve $-1 -1 $-1 -15.096187485330038 14.425849139921123 98.5 -0.89100652418836779 0.4539904997395468 0 I I #
coedge $-1 -1 $-1 $280 $279 $448 $625 reversed $281 $-1 #
edge $-1 -1 $-1 $283 -5.1612744271042773e-014 $635 5.9999999999999609 $455 $636 forward @7 unknown #
convexity-sys-attrib $-1 -1 $-1 $282 $158 #
point $-1 -1 $-1 -561.2831868127995 292.72202548026337 98.5 #
vertex $-1 -1 $-1 $625 $637 #
straight-curve $-1 -1 $-1 -579.10331729656696 301.80183547505425 78.499999999999986 -0.45399049973954031 -0.89100652418837123 0 I I #
model_id-kcp-attrib $-1 -1 $-1 $-1 $287 1 1021469477 1021469477 1100677121 10 #
plane-surface $-1 -1 $-1 -580.46528879578568 299.12881590248912 1.4210854715202004e-014 -0.89100652418836357 0.45399049973955546 0 0 0 1 forward_v I I I I #
attrib_edge_convexity-kcp-attrib $-1 -1 $638 $-1 $291 1 #
vertex $-1 -1 $-1 $291 $639 #
straight-curve $-1 -1 $-1 2.7239429984372809 5.3460391451302076 -78.5 0 0 1 I I #
convexity-sys-attrib $-1 -1 $-1 $292 $167 #
point $-1 -1 $-1 2.7239429984372845 5.346039145130205 -78.499999999999986 #
convexity-sys-attrib $-1 -1 $-1 $297 $171 #
face $-1 -1 $-1 $501 $496 $35 $-1 $640 reversed single #
loop $-1 -1 $-1 $-1 $485 $299 #
plane-surface $-1 -1 $-1 292.27560164672076 -145.55487859239693 78.5 0.63003675533505232 -0.32101976096010404 0.70710678118654557 0.4539904997395468 0.8910065241883679 0 forward_v I I I I #
coedge $-1 -1 $-1 $641 $642 $499 $643 forward $300 $-1 #
coedge $-1 -1 $-1 $308 $302 $642 $644 forward $176 $-1 #
edge $-1 -1 $-1 $317 -14.690508989888556 $645 40.752210110103121 $302 $646 forward @7 unknown #
coedge $-1 -1 $-1 $310 $307 $303 $481 reversed $69 $-1 #
edge $-1 -1 $-1 $487 267.10513389559634 $647 292.27560164672082 $480 $648 forward @7 unknown #
coedge $-1 -1 $-1 $489 $649 $304 $483 reversed $300 $-1 #
edge $-1 -1 $-1 $647 -150.90091773752712 $486 -101.50109330069162 $482 $650 forward @7 unknown #
coedge $-1 -1 $-1 $651 $305 $649 $652 reversed $475 $-1 #
coedge $-1 -1 $-1 $305 $651 $310 $493 reversed $475 $-1 #
vertex $-1 -1 $-1 $652 $653 #
vertex $-1 -1 $-1 $481 $654 #
straight-curve $-1 -1 $-1 273.77448541334417 -137.81157838388859 98.500000000000057 -0.45399049973954686 -0.8910065241883679 0 I I #
coedge $-1 -1 $-1 $642 $482 $307 $490 forward $300 $-1 #
edge $-1 -1 $-1 $647 -98.500000000000057 $491 98.500000000000057 $489 $655 forward @7 unknown #
vertex $-1 -1 $-1 $490 $656 #
straight-curve $-1 -1 $-1 0 -150.90091773752712 -98.500000000000057 -1 0 0 I I #
edge $-1 -1 $-1 $487 50.901218182197717 $497 80.965257722369273 $310 $657 forward @7 unknown #
coedge $-1 -1 $-1 $658 $311 $651 $659 reversed $496 $-1 #
coedge $-1 -1 $-1 $311 $658 $313 $500 forward $496 $-1 #
loop $-1 -1 $-1 $-1 $311 $474 #
vertex $-1 -1 $-1 $312 $660 #
straight-curve $-1 -1 $-1 289.55165864828354 -150.90091773752712 -39.25 0 0 -1 I I #
coedge $-1 -1 $-1 $314 $313 $477 $643 reversed $315 $-1 #
edge $-1 -1 $-1 $661 -1.2710208625982675e-013 $316 5.9999999999999867 $313 $662 forward @7 unknown #
face $-1 -1 $-1 $-1 $315 $35 $-1 $663 reversed single #
point $-1 -1 $-1 289.55165864828348 -150.90091773752712 -78.5 #
point $-1 -1 $-1 267.10513389559628 -150.90091773752712 -98.5 #
face $-1 -1 $-1 $-1 $518 $25 $-1 $664 reversed single #
loop $-1 -1 $-1 $-1 $507 $319 #
coedge $-1 -1 $-1 $322 $321 $665 $666 reversed $112 $-1 #
coedge $-1 -1 $-1 $667 $668 $322 $508 forward $505 $-1 #
edge $-1 -1 $-1 $510 -43.752210110103064 $669 11.690508989888549 $507 $670 forward @7 unknown #
coedge $-1 -1 $-1 $337 $323 $668 $671 reversed $195 $-1 #
vertex $-1 -1 $-1 $508 $672 #
straight-curve $-1 -1 $-1 -292.27560164672082 94.676238817919142 101.59841909728357 0 -0.91055674059558867 0.41338410970420481 I I #
coedge $-1 -1 $-1 $329 $665 $325 $513 forward $518 $-1 #
edge $-1 -1 $-1 $514 -39.249999999999986 $335 117.74999999999999 $512 $673 forward @7 unknown #
vertex $-1 -1 $-1 $666 $674 #
straight-curve $-1 -1 $-1 -289.55165864828348 150.90091773752707 78.499999999999972 -0.4539904997395468 -0.8910065241883679 0 I I #
point $-1 -1 $-1 -292.27560164672082 145.55487859239676 78.499999999999972 #
coedge $-1 -1 $-1 $523 $329 $332 $520 reversed $518 $-1 #
loop $-1 -1 $-1 $-1 $329 $504 #
straight-curve $-1 -1 $-1 -228.34185063115879 150.90091773752712 -133.03833828757621 0.74662371045295006 0 -0.66524659712731293 I I #
edge $-1 -1 $-1 $525 -292.27560164672082 $333 -267.10513389559651 $517 $675 forward @7 unknown #
point $-1 -1 $-1 -267.10513389559651 150.90091773752712 -98.5 #
point $-1 -1 $-1 -289.55165864828342 150.90091773752712 -78.5 #
coedge $-1 -1 $-1 $676 $517 $337 $524 reversed $518 $-1 #
edge $-1 -1 $-1 $677 -98.500000000000057 $525 98.500000000000057 $523 $678 forward @7 unknown #
vertex $-1 -1 $-1 $520 $679 #
straight-curve $-1 -1 $-1 -292.27560164672082 0 -98.500000000000057 0 1 0 I I #
plane-surface $-1 -1 $-1 292.27560164672082 0 0 -1 0 0 0 0 1 forward_v I I I I #
coedge $-1 -1 $-1 $346 $344 $348 $532 reversed $200 $-1 #
edge $-1 -1 $-1 $359 -98.500000000000057 $534 98.500000000000057 $358 $680 forward @7 unknown #
vertex $-1 -1 $-1 $532 $681 #
straight-curve $-1 -1 $-1 -292.27560164672082 -150.90091773752712 0 0 0 -1 I I #
edge $-1 -1 $-1 $530 -150.90091773752712 $534 150.90091773752712 $528 $682 forward @7 unknown #
straight-curve $-1 -1 $-1 0 -150.90091773752712 -98.500000000000057 -1 0 0 I I #
vertex $-1 -1 $-1 $351 $683 #
straight-curve $-1 -1 $-1 0 150.90091773752712 -98.500000000000057 1 0 0 I I #
point $-1 -1 $-1 292.27560164672082 150.90091773752712 -98.500000000000057 #
point $-1 -1 $-1 292.27560164672082 -150.90091773752712 -98.500000000000057 #
straight-curve $-1 -1 $-1 -292.27560164672082 0 98.500000000000057 0 -1 0 I I #
point $-1 -1 $-1 -292.27560164672082 150.90091773752712 98.500000000000057 #
point $-1 -1 $-1 -292.27560164672082 -150.90091773752712 98.500000000000057 #
straight-curve $-1 -1 $-1 292.27560164672082 -150.90091773752712 0 0 0 -1 I I #
straight-curve $-1 -1 $-1 292.27560164672082 150.90091773752712 0 0 0 -1 I I #
face $-1 -1 $-1 $569 $553 $28 $-1 $684 reversed single #
loop $-1 -1 $-1 $-1 $384 $368 #
plane-surface $-1 -1 $-1 274.45547116295342 -136.475068597606 -98.5 0.63003675533504966 -0.32101976096010265 -0.70710678118654857 0.4539904997395468 0.8910065241883679 0 forward_v I I I I #
coedge $-1 -1 $-1 $685 $686 $555 $687 reversed $369 $-1 #
coedge $-1 -1 $-1 $548 $371 $568 $688 forward $128 $-1 #
coedge $-1 -1 $-1 $372 $547 $551 $689 forward $128 $-1 #
vertex $-1 -1 $-1 $373 $690 #
straight-curve $-1 -1 $-1 -272.41251391412544 140.48459795645365 98.500000000000057 -0.45399049973954675 -0.89100652418836779 0 I I #
coedge $-1 -1 $-1 $691 $374 $548 $689 reversed $553 $-1 #
coedge $-1 -1 $-1 $374 $692 $376 $556 forward $553 $-1 #
loop $-1 -1 $-1 $-1 $692 $543 #
straight-curve $-1 -1 $-1 -218.40807297689022 150.90091773752712 141.88939898736561 0.74662371045295328 0 0.66524659712730927 I I #
coedge $-1 -1 $-1 $383 $376 $546 $687 forward $54 $-1 #
edge $693 -1 $-1 $694 -117.74999999999999 $379 39.249999999999986 $552 $695 forward @7 unknown #
point $-1 -1 $-1 -271.73152816451613 141.82110774273616 98.500000000000057 #
point $-1 -1 $-1 -289.55165864828342 150.90091773752712 78.499999999999972 #
coedge $-1 -1 $-1 $696 $697 $383 $560 reversed $698 $-1 #
edge $699 -1 $-1 $700 -306.50000000000017 $564 306.50000000000006 $559 $701 forward @7 unknown #
coedge $-1 -1 $-1 $562 $384 $697 $702 reversed $544 $-1 #
coedge $-1 -1 $-1 $384 $561 $386 $567 reversed $544 $-1 #
convexity-sys-attrib $-1 -1 $-1 $-1 $385 #
vertex $-1 -1 $-1 $385 $703 #
straight-curve $-1 -1 $-1 228.12313190515809 -112.86756261114951 -150.50000000000009 0.63003675533505143 -0.32101976096010354 0.70710678118654657 I I #
coedge $-1 -1 $-1 $704 $386 $705 $706 reversed $388 $-1 #
edge $-1 -1 $-1 $390 -58.310343802633817 $707 -9.9291904624366545 $386 $708 forward @7 unknown #
coedge $-1 -1 $-1 $387 $704 $547 $688 reversed $388 $-1 #
face $-1 -1 $-1 $709 $388 $28 $-1 $710 reversed single #
point $-1 -1 $-1 292.27560164672082 -145.55487859239682 -78.5 #
vertex $-1 -1 $-1 $688 $711 #
straight-curve $-1 -1 $-1 292.27560164672082 -99.988195747388005 99.18684111627914 0 -0.910556740595588 -0.41338410970420625 I I #
straight-curve $-1 -1 $-1 273.77448541334417 -137.81157838388859 98.500000000000057 0.45399049973954686 0.8910065241883679 0 I I #
face $-1 -1 $-1 $594 $423 $30 $-1 $712 forward single #
loop $-1 -1 $-1 $-1 $419 $396 #
plane-surface $-1 -1 $-1 -271.73152816451613 141.82110774273625 98.5 -0.63003675533505099 0.32101976096010332 0.70710678118654702 -0.4539904997395468 -0.8910065241883679 0 forward_v I I I I #
coedge $-1 -1 $-1 $405 $587 $407 $590 reversed $397 $-1 #
edge $-1 -1 $-1 $583 64.206150124744397 $416 94.270189664915961 $413 $713 forward @7 unknown #
convexity-sys-attrib $-1 -1 $-1 $-1 $401 #
straight-curve $-1 -1 $-1 225.39918890672084 -118.21360175627967 -150.50000000000011 -0.63003675533505143 0.32101976096010354 -0.70710678118654657 I I #
coedge $-1 -1 $-1 $413 $714 $402 $582 reversed $414 $-1 #
edge $-1 -1 $-1 $583 -267.10513389559628 $715 292.27560164672082 $581 $716 forward @7 unknown #
vertex $-1 -1 $-1 $582 $717 #
straight-curve $-1 -1 $-1 273.77448541334411 -137.81157838388856 -98.500000000000057 -0.4539904997395468 -0.8910065241883679 0 I I #
coedge $-1 -1 $-1 $718 $719 $404 $586 reversed $720 $-1 #
edge $-1 -1 $-1 $715 -150.90091773752712 $588 101.50109330069201 $585 $721 forward @7 unknown #
coedge $-1 -1 $-1 $577 $405 $719 $722 reversed $397 $-1 #
vertex $-1 -1 $-1 $722 $723 #
straight-curve $-1 -1 $-1 -272.41251391412561 140.48459795645371 -98.500000000000057 0.4539904997395468 0.8910065241883679 0 I I #
edge $724 -1 $-1 $410 59.396969619669235 $725 87.681240867131052 $577 $726 forward @7 unknown #
point $-1 -1 $-1 271.73152816451613 -141.82110774273619 -98.500000000000057 #
point $-1 -1 $-1 -274.45547116295353 136.47506859760608 -98.500000000000057 #
coedge $-1 -1 $-1 $714 $412 $605 $727 reversed $414 $-1 #
face $-1 -1 $-1 $728 $414 $30 $-1 $729 reversed single #
point $-1 -1 $-1 289.55165864828348 -150.90091773752712 -78.5 #
coedge $-1 -1 $-1 $719 $730 $418 $597 forward $720 $-1 #
edge $731 -1 $-1 $601 -39.249999999999986 $725 117.74999999999999 $596 $732 forward @7 unknown #
coedge $-1 -1 $-1 $599 $419 $730 $733 reversed $575 $-1 #
coedge $-1 -1 $-1 $419 $598 $421 $604 reversed $575 $-1 #
convexity-sys-attrib $-1 -1 $-1 $-1 $420 #
vertex $-1 -1 $-1 $597 $734 #
straight-curve $-1 -1 $-1 -228.1231319051584 112.86756261114965 150.49999999999994 0.6300367553350501 -0.32101976096010287 0.70710678118654813 I I #
coedge $-1 -1 $-1 $605 $421 $735 $736 forward $423 $-1 #
edge $-1 -1 $-1 $425 4.4999999999999831 $737 43.752210110103064 $421 $738 forward @7 unknown #
coedge $-1 -1 $-1 $422 $603 $593 $727 forward $423 $-1 #
point $-1 -1 $-1 -274.45547116295342 136.47506859760603 98.500000000000057 #
vertex $-1 -1 $-1 $427 $739 #
straight-curve $-1 -1 $-1 273.77448541334417 -137.81157838388859 98.500000000000057 0.45399049973954686 0.8910065241883679 0 I I #
straight-curve $-1 -1 $-1 229.10107750982863 -150.90091773752712 132.36186218534189 -0.74662371045295195 0 0.66524659712731093 I I #
model_id-kcp-attrib $-1 -1 $-1 $-1 $432 1 1021469477 1021469477 1100677121 9 #
plane-surface $-1 -1 $-1 -571.5552235539019 294.58891090509371 88.5 0.63003675533504755 -0.3210197609601092 -0.70710678118654735 -0.6300367553350511 0.3210197609601016 -0.70710678118654768 forward_v I I I I #
coedge $-1 -1 $-1 $437 $435 $740 $741 forward $258 $-1 #
edge $-1 -1 $-1 $458 2.7502054116557978e-014 $742 6.000000000000016 $435 $743 forward @7 unknown #
coedge $-1 -1 $-1 $740 $439 $436 $615 forward $270 $-1 #
edge $744 -1 $-1 $442 1.4210854715202004e-014 $617 157 $436 $745 forward @7 unknown #
attrib_edge_convexity-kcp-attrib $-1 -1 $746 $-1 $438 1 #
vertex $-1 -1 $-1 $615 $747 #
straight-curve $-1 -1 $-1 2.7239429984372805 5.3460391451302076 78.5 -0.45399049973954675 -0.8910065241883679 0 I I #
attrib_edge_convexity-kcp-attrib $-1 -1 $748 $-1 $440 1 #
straight-curve $-1 -1 $-1 -17.820130483767343 9.0798099947909279 -98.5 0.6300367553350501 -0.32101976096010282 0.70710678118654802 I I #
convexity-sys-attrib $-1 -1 $-1 $441 $263 #
point $-1 -1 $-1 2.2204460492503131e-016 0 -78.499999999999986 #
convexity-sys-attrib $-1 -1 $-1 $444 $265 #
coedge $-1 -1 $-1 $448 $740 $632 $749 forward $270 $-1 #
edge $750 -1 $-1 $635 9.8074016096556778e-014 $464 28.284271247462001 $460 $751 forward @7 unknown #
attrib_edge_convexity-kcp-attrib $-1 -1 $752 $-1 $449 1 #
straight-curve $-1 -1 $-1 -581.82726029500429 296.45579632992406 -78.499999999999986 0 0 1 I I #
model_id-kcp-attrib $-1 -1 $-1 $-1 $450 1 1021469477 1021469477 1100677121 11 #
plane-surface $-1 -1 $-1 0 0 -98.5 0.4539904997395468 0.8910065241883679 0 -0.8910065241883679 0.4539904997395468 0 forward_v I I I I #
attrib_edge_convexity-kcp-attrib $-1 -1 $753 $-1 $454 1 #
straight-curve $-1 -1 $-1 -15.096187485329967 14.425849139921088 98.5 0.63003675533504855 -0.3210197609601021 -0.70710678118654968 I I #
coedge $-1 -1 $-1 $456 $455 $624 $749 reversed $433 $-1 #
convexity-sys-attrib $-1 -1 $-1 $457 $278 #
point $-1 -1 $-1 -15.096187485329967 14.425849139921088 98.5 #
vertex $-1 -1 $-1 $749 $754 #
straight-curve $-1 -1 $-1 -561.28318681279961 292.72202548026337 98.5 -0.45399049973952527 -0.89100652418837889 0 I I #
point $-1 -1 $-1 -581.82726029500429 296.45579632992406 78.500000000000014 #
convexity-sys-attrib $-1 -1 $-1 $468 $291 #
point $-1 -1 $-1 2.7239429984372809 5.3460391451302076 78.5 #
plane-surface $-1 -1 $-1 292.27560164672076 -145.55487859239693 -78.5 0.8910065241883679 -0.4539904997395468 0 0.4539904997395468 0.8910065241883679 0 forward_v I I I I #
coedge $-1 -1 $-1 $649 $477 $658 $755 forward $300 $-1 #
coedge $-1 -1 $-1 $477 $489 $478 $644 reversed $300 $-1 #
edge $-1 -1 $-1 $645 9.9291904624366545 $661 58.310343802633817 $477 $756 forward @7 unknown #
edge $-1 -1 $-1 $645 101.50109330069151 $491 150.90091773752712 $642 $757 forward @7 unknown #
vertex $-1 -1 $-1 $644 $758 #
straight-curve $-1 -1 $-1 273.77448541334411 -137.81157838388856 -98.500000000000057 0.4539904997395468 0.8910065241883679 0 I I #
vertex $-1 -1 $-1 $483 $759 #
straight-curve $-1 -1 $-1 0 -150.90091773752712 98.500000000000057 1 0 0 I I #
coedge $-1 -1 $-1 $482 $641 $484 $652 forward $300 $-1 #
straight-curve $-1 -1 $-1 292.27560164672082 0 98.500000000000057 0 1 0 I I #
coedge $-1 -1 $-1 $485 $484 $494 $659 forward $475 $-1 #
edge $-1 -1 $-1 $760 -50.042661608549537 $486 -1.6615082683524534 $649 $761 forward @7 unknown #
point $-1 -1 $-1 292.27560164672082 -101.50109330069162 98.500000000000057 #
point $-1 -1 $-1 267.10513389559634 -150.90091773752712 98.500000000000057 #
straight-curve $-1 -1 $-1 292.27560164672082 -150.90091773752712 0 0 0 -1 I I #
point $-1 -1 $-1 292.27560164672082 -150.90091773752712 -98.500000000000057 #
straight-curve $-1 -1 $-1 229.10107750982863 -150.90091773752712 132.36186218534189 0.74662371045295195 0 -0.66524659712731093 I I #
coedge $-1 -1 $-1 $495 $494 $641 $755 reversed $496 $-1 #
edge $-1 -1 $-1 $760 -1.2710208625982675e-013 $497 5.9999999999999867 $494 $762 forward @7 unknown #
point $-1 -1 $-1 289.55165864828348 -150.90091773752712 78.5 #
vertex $-1 -1 $-1 $643 $763 #
straight-curve $-1 -1 $-1 292.27560164672076 -145.55487859239693 -78.5 -0.4539904997395468 -0.8910065241883679 0 I I #
plane-surface $-1 -1 $-1 274.45547116295342 -136.475068597606 -98.5 0.63003675533504966 -0.32101976096010265 -0.70710678118654857 0.4539904997395468 0.8910065241883679 0 forward_v I I I I #
plane-surface $-1 -1 $-1 0 150.90091773752712 0 0 -1 0 0 0 -1 forward_v I I I I #
coedge $-1 -1 $-1 $512 $676 $506 $666 forward $518 $-1 #
edge $-1 -1 $-1 $669 65.223030339021904 $514 95.287069879193439 $665 $764 forward @7 unknown #
coedge $-1 -1 $-1 $668 $507 $676 $765 forward $505 $-1 #
coedge $-1 -1 $-1 $507 $667 $509 $671 forward $505 $-1 #
vertex $-1 -1 $-1 $765 $766 #
straight-curve $-1 -1 $-1 -272.41251391412544 140.48459795645365 98.500000000000057 0.45399049973954675 0.89100652418836779 0 I I #
edge $-1 -1 $-1 $677 -150.90091773752712 $510 -101.50109330069156 $509 $767 forward @7 unknown #
point $-1 -1 $-1 -292.27560164672082 101.50109330069156 98.5 #
straight-curve $-1 -1 $-1 -289.55165864828348 150.90091773752712 39.249999999999986 0 0 -1 I I #
point $-1 -1 $-1 -289.55165864828342 150.90091773752712 78.499999999999972 #
straight-curve $-1 -1 $-1 0 150.90091773752712 -98.500000000000057 1 0 0 I I #
coedge $-1 -1 $-1 $665 $523 $667 $765 reversed $518 $-1 #
vertex $-1 -1 $-1 $765 $768 #
straight-curve $-1 -1 $-1 -292.27560164672082 150.90091773752712 0 0 0 -1 I I #
point $-1 -1 $-1 -292.27560164672082 150.90091773752712 -98.500000000000057 #
straight-curve $-1 -1 $-1 -292.27560164672082 150.90091773752712 0 0 0 -1 I I #
point $-1 -1 $-1 -292.27560164672082 -150.90091773752712 -98.500000000000057 #
straight-curve $-1 -1 $-1 -292.27560164672082 0 -98.500000000000057 0 1 0 I I #
point $-1 -1 $-1 -292.27560164672082 150.90091773752712 -98.500000000000057 #
plane-surface $-1 -1 $-1 0 150.90091773752712 0 0 -1 0 0 0 -1 forward_v I I I I #
coedge $-1 -1 $-1 $686 $546 $692 $769 reversed $369 $-1 #
coedge $-1 -1 $-1 $546 $685 $696 $770 reversed $369 $-1 #
edge $771 -1 $-1 $694 -87.681240867131052 $700 -59.396969619669278 $546 $772 forward @7 unknown #
edge $-1 -1 $-1 $571 -101.50109330069162 $773 150.90091773752712 $568 $774 forward @7 unknown #
edge $-1 -1 $-1 $773 -292.27560164672082 $549 267.10513389559628 $551 $775 forward @7 unknown #
point $-1 -1 $-1 -267.10513389559628 150.90091773752712 98.5 #
coedge $-1 -1 $-1 $776 $551 $704 $777 forward $553 $-1 #
coedge $-1 -1 $-1 $552 $776 $685 $769 forward $553 $-1 #
convexity-sys-attrib $-1 -1 $-1 $-1 $556 #
vertex $-1 -1 $-1 $769 $778 #
straight-curve $-1 -1 $-1 -289.55165864828348 150.90091773752712 39.249999999999986 0 0 1 I I #
coedge $-1 -1 $-1 $779 $559 $686 $770 forward $698 $-1 #
coedge $-1 -1 $-1 $559 $705 $561 $702 forward $698 $-1 #
loop $-1 -1 $-1 $-1 $559 $709 #
convexity-sys-attrib $-1 -1 $-1 $-1 $560 #
vertex $-1 -1 $-1 $770 $780 #
straight-curve $-1 -1 $-1 1.3619714992186158 2.6730195725650656 -98.500000000000057 0.8910065241883679 -0.4539904997395468 0 I I #
edge $-1 -1 $-1 $707 -40.752210110103121 $564 -1.4999999999999523 $697 $781 forward @7 unknown #
point $-1 -1 $-1 274.45547116295342 -136.47506859760605 -98.500000000000057 #
coedge $-1 -1 $-1 $568 $566 $691 $777 reversed $388 $-1 #
coedge $-1 -1 $-1 $697 $779 $566 $706 forward $698 $-1 #
edge $-1 -1 $-1 $782 -150.90091773752712 $707 101.50109330069151 $566 $783 forward @7 unknown #
vertex $-1 -1 $-1 $702 $784 #
straight-curve $-1 -1 $-1 292.27560164672082 -92.460001996462395 -102.60456955939789 0 0.91055674059558922 -0.41338410970420325 I I #
face $-1 -1 $-1 $-1 $698 $28 $-1 $785 reversed single #
plane-surface $-1 -1 $-1 292.27560164672082 0 0 -1 0 0 0 0 1 forward_v I I I I #
point $-1 -1 $-1 292.27560164672082 -101.50109330069162 98.500000000000057 #
plane-surface $-1 -1 $-1 0 0 98.500000000000057 0 0 1 1 0 0 forward_v I I I I #
straight-curve $-1 -1 $-1 219.1672998555602 -150.90091773752712 -141.21292288513129 0.74662371045295473 0 0.66524659712730771 I I #
coedge $-1 -1 $-1 $581 $593 $718 $786 forward $414 $-1 #
vertex $-1 -1 $-1 $586 $787 #
straight-curve $-1 -1 $-1 0 -150.90091773752712 -98.500000000000057 -1 0 0 I I #
point $-1 -1 $-1 267.10513389559628 -150.90091773752712 -98.5 #
coedge $-1 -1 $-1 $735 $585 $714 $786 reversed $720 $-1 #
coedge $-1 -1 $-1 $585 $596 $587 $722 forward $720 $-1 #
loop $-1 -1 $-1 $-1 $719 $728 #
straight-curve $-1 -1 $-1 -292.27560164672082 0 -98.500000000000057 0 1 0 I I #
edge $-1 -1 $-1 $725 -47.608725619006279 $588 0.77242772119037884 $719 $788 forward @7 unknown #
point $-1 -1 $-1 -292.27560164672082 101.50109330069201 -98.5 #
convexity-sys-attrib $-1 -1 $-1 $-1 $590 #
vertex $-1 -1 $-1 $722 $789 #
straight-curve $-1 -1 $-1 -237.03319714704276 117.40746760854546 -140.49999999999974 -0.63003675533504699 0.32101976096010126 0.70710678118655157 I I #
edge $-1 -1 $-1 $790 -292.27560164672082 $607 267.10513389559634 $593 $791 forward @7 unknown #
face $-1 -1 $-1 $-1 $720 $30 $-1 $792 reversed single #
plane-surface $-1 -1 $-1 0 -150.90091773752712 0 0 1 0 0 0 1 forward_v I I I I #
coedge $-1 -1 $-1 $596 $735 $598 $733 forward $720 $-1 #
convexity-sys-attrib $-1 -1 $-1 $-1 $597 #
straight-curve $-1 -1 $-1 -292.27560164672082 145.55487859239679 39.249999999999986 0 0 -1 I I #
edge $-1 -1 $-1 $737 7.4952544728935235 $601 55.876407813090594 $730 $793 forward @7 unknown #
point $-1 -1 $-1 -292.27560164672082 145.55487859239676 78.499999999999972 #
coedge $-1 -1 $-1 $730 $718 $603 $736 reversed $720 $-1 #
edge $-1 -1 $-1 $737 -101.50109330069156 $790 150.90091773752712 $735 $794 forward @7 unknown #
vertex $-1 -1 $-1 $736 $795 #
straight-curve $-1 -1 $-1 -272.41251391412544 140.48459795645365 98.500000000000057 -0.45399049973954675 -0.89100652418836779 0 I I #
point $-1 -1 $-1 267.10513389559634 -150.90091773752712 98.500000000000057 #
coedge $-1 -1 $-1 $624 $614 $612 $741 reversed $270 $-1 #
edge $796 -1 $-1 $742 -5.7925096272723312e-014 $617 28.284271247461813 $612 $797 forward @7 unknown #
vertex $-1 -1 $-1 $741 $798 #
straight-curve $-1 -1 $-1 -15.09618748532999 14.42584913992113 98.500000000000043 -0.45399049973954708 -0.89100652418836779 0 I I #
attrib_edge_convexity-kcp-attrib $-1 -1 $799 $-1 $615 1 #
straight-curve $-1 -1 $-1 0 -4.4408920985006262e-016 -78.5 0 0 1 I I #
convexity-sys-attrib $-1 -1 $-1 $616 $438 #
point $-1 -1 $-1 2.2204460492503131e-016 4.4408920985006262e-016 78.5 #
convexity-sys-attrib $-1 -1 $-1 $619 $440 #
edge $800 -1 $-1 $742 1.6732037090259867e-015 $635 613.00000000000011 $632 $801 forward @7 unknown #
attrib_edge_convexity-kcp-attrib $-1 -1 $802 $-1 $625 1 #
straight-curve $-1 -1 $-1 -564.00712981123672 287.37598633513306 98.499999999999943 -0.63003675533505354 0.32101976096010276 -0.70710678118654491 I I #
convexity-sys-attrib $-1 -1 $-1 $626 $449 #
convexity-sys-attrib $-1 -1 $-1 $630 $454 #
point $-1 -1 $-1 -564.00712981123684 287.37598633513318 98.499999999999957 #
edge $-1 -1 $-1 $661 -39.25 $760 117.75 $641 $803 forward @7 unknown #
straight-curve $-1 -1 $-1 292.27560164672082 -92.460001996462395 -102.60456955939789 0 -0.91055674059558922 0.41338410970420325 I I #
straight-curve $-1 -1 $-1 292.27560164672082 0 -98.500000000000057 0 -1 0 I I #
point $-1 -1 $-1 292.27560164672082 -101.50109330069151 -98.5 #
point $-1 -1 $-1 292.27560164672082 -150.90091773752712 98.500000000000057 #
vertex $-1 -1 $-1 $755 $804 #
straight-curve $-1 -1 $-1 292.27560164672082 -99.988195747388005 99.18684111627914 0 0.910556740595588 0.41338410970420625 I I #
straight-curve $-1 -1 $-1 292.27560164672076 -145.55487859239693 78.5 -0.4539904997395468 -0.8910065241883679 0 I I #
point $-1 -1 $-1 292.27560164672082 -145.55487859239682 -78.5 #
straight-curve $-1 -1 $-1 -218.40807297689022 150.90091773752712 141.88939898736561 -0.74662371045295328 0 -0.66524659712730927 I I #
edge $-1 -1 $-1 $669 267.10513389559628 $677 292.27560164672082 $676 $805 forward @7 unknown #
point $-1 -1 $-1 -267.10513389559628 150.90091773752712 98.5 #
straight-curve $-1 -1 $-1 -292.27560164672082 0 98.500000000000057 0 -1 0 I I #
point $-1 -1 $-1 -292.27560164672082 150.90091773752712 98.500000000000057 #
edge $-1 -1 $-1 $806 51.918098396475287 $694 81.982137936646637 $692 $807 forward @7 unknown #
edge $-1 -1 $-1 $700 1.4999999999999776 $806 11.690508989888473 $696 $808 forward @7 unknown #
convexity-sys-attrib $-1 -1 $-1 $-1 $687 #
straight-curve $-1 -1 $-1 -234.30925414860548 122.75350675367561 -140.49999999999974 0.63003675533504699 -0.32101976096010126 -0.70710678118655157 I I #
vertex $-1 -1 $-1 $688 $809 #
straight-curve $-1 -1 $-1 292.27560164672082 0 98.500000000000057 0 1 0 I I #
straight-curve $-1 -1 $-1 0 150.90091773752712 98.500000000000057 -1 0 0 I I #
coedge $-1 -1 $-1 $692 $691 $779 $810 reversed $553 $-1 #
edge $-1 -1 $-1 $773 -98.500000000000057 $782 98.500000000000057 $704 $811 forward @7 unknown #
point $-1 -1 $-1 -289.55165864828342 150.90091773752712 -78.5 #
coedge $-1 -1 $-1 $705 $696 $776 $810 forward $698 $-1 #
point $-1 -1 $-1 -271.73152816451631 141.82110774273625 -98.500000000000057 #
straight-curve $-1 -1 $-1 273.77448541334411 -137.81157838388856 -98.500000000000057 -0.4539904997395468 -0.8910065241883679 0 I I #
vertex $-1 -1 $-1 $706 $812 #
straight-curve $-1 -1 $-1 292.27560164672082 0 -98.500000000000057 0 -1 0 I I #
point $-1 -1 $-1 292.27560164672082 -101.50109330069151 -98.5 #
plane-surface $-1 -1 $-1 0 0 -98.500000000000057 0 0 1 1 0 0 forward_v I I I I #
edge $-1 -1 $-1 $790 -98.500000000000057 $715 98.500000000000057 $718 $813 forward @7 unknown #
point $-1 -1 $-1 -292.27560164672082 -150.90091773752712 -98.500000000000057 #
straight-curve $-1 -1 $-1 -292.27560164672082 102.20443256884478 -98.180690654164835 0 -0.91055674059558711 -0.41338410970420814 I I #
point $-1 -1 $-1 -292.27560164672082 145.55487859239676 -78.5 #
vertex $-1 -1 $-1 $736 $814 #
straight-curve $-1 -1 $-1 0 -150.90091773752712 98.500000000000057 1 0 0 I I #
plane-surface $-1 -1 $-1 -292.27560164672082 0 0 1 0 0 0 0 -1 forward_v I I I I #
straight-curve $-1 -1 $-1 -292.27560164672082 94.676238817919142 101.59841909728357 0 0.91055674059558867 -0.41338410970420481 I I #
straight-curve $-1 -1 $-1 -292.27560164672082 0 98.500000000000057 0 -1 0 I I #
point $-1 -1 $-1 -292.27560164672082 101.50109330069156 98.5 #
attrib_edge_convexity-kcp-attrib $-1 -1 $815 $-1 $741 1 #
straight-curve $-1 -1 $-1 -17.820130483767247 9.0798099947908799 98.5 0.63003675533504855 -0.3210197609601021 -0.70710678118654968 I I #
point $-1 -1 $-1 -17.820130483767315 9.0798099947909279 98.5 #
convexity-sys-attrib $-1 -1 $-1 $744 $615 #
attrib_edge_convexity-kcp-attrib $-1 -1 $816 $-1 $749 1 #
straight-curve $-1 -1 $-1 -17.820130483767318 9.0798099947909172 98.5 -0.89100652418836779 0.4539904997395468 0 I I #
convexity-sys-attrib $-1 -1 $-1 $750 $625 #
straight-curve $-1 -1 $-1 292.27560164672082 -145.5548785923969 -39.25 0 0 1 I I #
point $-1 -1 $-1 292.27560164672082 -145.55487859239682 78.5 #
straight-curve $-1 -1 $-1 0 150.90091773752712 98.500000000000057 -1 0 0 I I #
vertex $-1 -1 $-1 $810 $817 #
straight-curve $-1 -1 $-1 -228.34185063115879 150.90091773752712 -133.03833828757621 -0.74662371045295006 0 0.66524659712731293 I I #
straight-curve $-1 -1 $-1 -272.41251391412561 140.48459795645371 -98.500000000000057 0.4539904997395468 0.8910065241883679 0 I I #
point $-1 -1 $-1 292.27560164672082 150.90091773752712 98.500000000000057 #
edge $-1 -1 $-1 $806 -267.10513389559651 $782 292.27560164672082 $776 $818 forward @7 unknown #
straight-curve $-1 -1 $-1 292.27560164672082 150.90091773752712 0 0 0 -1 I I #
point $-1 -1 $-1 292.27560164672082 150.90091773752712 -98.500000000000057 #
straight-curve $-1 -1 $-1 -292.27560164672082 -150.90091773752712 0 0 0 -1 I I #
point $-1 -1 $-1 -292.27560164672082 -150.90091773752712 98.500000000000057 #
convexity-sys-attrib $-1 -1 $-1 $796 $741 #
convexity-sys-attrib $-1 -1 $-1 $800 $749 #
point $-1 -1 $-1 -267.10513389559651 150.90091773752712 -98.5 #
straight-curve $-1 -1 $-1 0 150.90091773752712 -98.500000000000057 1 0 0 I I #
End-of-ACIS-data 