600 0 1 0           
101 GICL ACIS Healer - Source: /gicl/data5/repository/PTC/V20/NC_Training_Rel20/DXF/part_30.prt.sat - 6 0 18 ACIS 6.0.3 Solaris 24 Sat Apr 13 20:51:04 2002 
1 9.999999999999999547e-07 1.000000000000000036e-10 
body $-1 $1 $-1 $-1 #
lump $-1 $-1 $2 $0 #
shell $-1 $-1 $-1 $3 $-1 $1 #
face $-1 $4 $5 $2 $-1 $6 reversed single #
face $-1 $7 $8 $2 $-1 $9 forward single #
loop $-1 $10 $11 $3 #
plane-surface $-1 0 5.079999999999999183 0 0 -1 0 1 0 0 forward_v I I I I #
face $-1 $12 $13 $2 $-1 $14 forward single #
loop $-1 $-1 $15 $4 #
plane-surface $-1 0 2.539999999999999591 37.19789879898166163 -1 0 0 0 0 1 forward_v I I I I #
loop $-1 $-1 $16 $3 #
coedge $-1 $17 $18 $19 $20 forward $5 $-1 #
face $-1 $21 $22 $2 $-1 $23 forward single #
loop $-1 $-1 $24 $7 #
cone-surface $-1 35.35680000000005663 2.539999999999999591 29.14609879898161893 0 1 0 -20.01520000000004629 0 -29.14609879898161537 1 I I 0 1 35.35679999999999268 forward I I I I #
coedge $-1 $25 $19 $26 $27 forward $8 $-1 #
coedge $-1 $28 $29 $30 $31 forward $10 $-1 #
coedge $-1 $32 $11 $33 $34 forward $5 $-1 #
coedge $-1 $11 $35 $36 $37 forward $5 $-1 #
coedge $-1 $15 $38 $11 $20 reversed $8 $-1 #
edge $-1 $39 10.54714939949078811 $40 26.65074939949075272 $11 $41 reversed 7 unknown #
face $-1 $42 $43 $2 $-1 $44 forward single #
loop $-1 $-1 $45 $12 #
plane-surface $-1 38.09999999999999432 2.539999999999999591 0 0 0 -1 1 0 0 forward_v I I I I #
coedge $-1 $46 $36 $47 $48 forward $13 $-1 #
coedge $-1 $38 $15 $49 $50 forward $8 $-1 #
coedge $-1 $36 $46 $15 $27 reversed $13 $-1 #
edge $-1 $39 -2.539999999999999591 $51 2.539999999999999591 $26 $52 reversed 7 unknown #
coedge $-1 $53 $16 $54 $55 reversed $10 $-1 #
coedge $-1 $16 $53 $56 $57 forward $10 $-1 #
coedge $-1 $58 $59 $16 $31 reversed $60 $-1 #
edge $-1 $61 -6.675920383878302999 $62 11.03236870215487642 $16 $63 reversed 7 unknown #
coedge $-1 $64 $17 $65 $66 forward $5 $-1 #
coedge $-1 $67 $68 $17 $34 reversed $69 $-1 #
edge $-1 $40 8.096868274957805773e-09 $70 1.066201744348329372 $17 $71 reversed 7 unknown #
coedge $-1 $18 $72 $45 $73 reversed $5 $-1 #
coedge $-1 $24 $26 $18 $37 reversed $13 $-1 #
edge $-1 $74 -9.094195428020890601e-17 $39 0.96903903779122047 $18 $75 reversed 7 unknown #
coedge $-1 $19 $25 $67 $76 reversed $8 $-1 #
vertex $-1 $37 $77 #
vertex $-1 $34 $78 #
straight-curve $-1 0 5.079999999999999183 18.59894939949083081 -0 -0 -1 I I #
face $-1 $79 $80 $2 $-1 $81 forward single #
loop $-1 $-1 $82 $21 #
plane-surface $-1 53.34000000000000341 2.539999999999999591 12.78449334950118654 0.488106087966497848 0 -0.8727843071973978573 -0.8727843071973978573 0 -0.488106087966497848 forward_v I I I I #
coedge $-1 $83 $47 $35 $73 forward $22 $-1 #
coedge $-1 $26 $24 $84 $85 forward $13 $-1 #
coedge $-1 $45 $86 $24 $48 reversed $22 $-1 #
edge $-1 $74 -2.539999999999999591 $87 2.539999999999999591 $24 $88 forward 7 unknown #
coedge $-1 $84 $89 $25 $50 reversed $90 $-1 #
edge $-1 $51 10.54714939949078811 $91 26.65074939949075272 $25 $92 forward 7 unknown #
vertex $-1 $27 $93 #
straight-curve $-1 0 2.539999999999999591 29.14609879898161893 0 1 0 I I #
coedge $-1 $29 $28 $94 $95 forward $10 $-1 #
coedge $-1 $96 $97 $28 $55 forward $98 $-1 #
edge $-1 $99 -2.797702187458826572e-16 $62 1.168203500162662278 $28 $100 reversed 7 unknown #
coedge $-1 $101 $102 $29 $57 reversed $103 $-1 #
edge $-1 $104 1.29539999999999722 $61 36.85539999999998884 $29 $105 reversed 7 unknown #
coedge $-1 $106 $30 $102 $107 forward $60 $-1 #
coedge $-1 $30 $106 $96 $108 reversed $60 $-1 #
loop $-1 $-1 $58 $109 #
vertex $-1 $57 $110 #
vertex $-1 $55 $111 #
straight-curve $-1 29.61680031691793857 5.079999999999999183 59.11611437861270701 0.8788300856987871779 0 -0.47713486612347078 I I #
coedge $-1 $112 $32 $113 $114 forward $5 $-1 #
coedge $-1 $115 $116 $32 $66 reversed $117 $-1 #
edge $-1 $70 -0.7865367663027598155 $118 11.42999999999997129 $32 $119 forward 7 unknown #
coedge $-1 $120 $33 $38 $76 forward $69 $-1 #
coedge $-1 $33 $120 $115 $121 reversed $69 $-1 #
loop $-1 $-1 $67 $122 #
vertex $-1 $66 $123 #
ellipse-curve $-1 35.35680000000001399 5.079999999999999183 45.24969879898158354 0 -1 0 -35.35679999999999268 0 -2.862793522240280634e-07 1 I I #
coedge $-1 $35 $112 $124 $125 forward $5 $-1 #
edge $-1 $74 -3.708399999999983265 $126 11.43000000000002103 $35 $127 forward 7 unknown #
vertex $-1 $37 $128 #
ellipse-curve $-1 35.35680000000005663 5.079999999999999183 29.14609879898161893 0 -1 0 -20.01520000000004629 0 -29.14609879898161537 1 I I #
edge $-1 $40 -2.539999999999999591 $91 2.539999999999999591 $67 $129 reversed 7 unknown #
point $-1 6.394884621840901673e-14 5.079999999999999183 29.14609879898161893 #
point $-1 2.131628207280300558e-14 5.079999999999999183 45.24969879898158354 #
face $-1 $130 $131 $2 $-1 $132 forward single #
loop $-1 $-1 $133 $42 #
plane-surface $-1 76.19999999999998863 2.539999999999999591 38.09118669900236398 1 0 0 0 0 -1 forward_v I I I I #
coedge $-1 $134 $124 $135 $136 forward $43 $-1 #
coedge $-1 $86 $45 $137 $138 forward $22 $-1 #
coedge $-1 $139 $49 $46 $85 reversed $90 $-1 #
edge $-1 $87 -9.094195428020890601e-17 $51 0.96903903779122047 $46 $140 forward 7 unknown #
coedge $-1 $47 $83 $139 $141 reversed $22 $-1 #
vertex $-1 $85 $142 #
straight-curve $-1 15.34160000000001389 2.539999999999999591 0 -0 -1 -0 I I #
coedge $-1 $49 $143 $120 $144 reversed $90 $-1 #
loop $-1 $145 $139 $146 #
vertex $-1 $144 $147 #
straight-curve $-1 0 0 18.59894939949083081 0 0 1 I I #
point $-1 6.394884621840901673e-14 0 29.14609879898161893 #
coedge $-1 $148 $149 $53 $95 reversed $150 $-1 #
edge $-1 $99 6.348478942552311821 $104 25.09367894255235143 $53 $151 reversed 7 unknown #
coedge $-1 $152 $54 $59 $108 forward $98 $-1 #
coedge $-1 $54 $152 $148 $153 reversed $98 $-1 #
loop $-1 $-1 $96 $154 #
vertex $-1 $95 $155 #
ellipse-curve $-1 61.11239999999997963 5.079999999999999183 37.15075090298297766 0 -1 0 -41.19117721505748619 0 -27.22929123935708873 1 I I #
coedge $-1 $156 $56 $149 $157 forward $103 $-1 #
coedge $-1 $56 $156 $58 $107 reversed $103 $-1 #
loop $-1 $-1 $101 $158 #
vertex $-1 $57 $159 #
straight-curve $-1 35.48379999999998802 5.079999999999999183 19.0753999999999948 -0 -0 -1 I I #
coedge $-1 $59 $58 $160 $161 forward $60 $-1 #
edge $-1 $61 -2.539999999999999591 $162 2.539999999999999591 $102 $163 forward 7 unknown #
edge $-1 $62 -2.539999999999999591 $164 2.539999999999999591 $96 $165 forward 7 unknown #
face $-1 $158 $60 $2 $-1 $166 forward single #
point $-1 35.48379999999998802 5.079999999999999183 55.93079999999998364 #
point $-1 19.92122278494254317 5.079999999999999183 64.38004214234013034 #
coedge $-1 $72 $64 $167 $168 forward $5 $-1 #
coedge $-1 $169 $170 $64 $114 reversed $131 $-1 #
edge $-1 $118 -18.40572796982097969 $171 33.98695453656335275 $64 $172 reversed 7 unknown #
coedge $-1 $173 $65 $68 $121 forward $117 $-1 #
coedge $-1 $65 $173 $169 $174 reversed $117 $-1 #
loop $-1 $-1 $173 $130 #
vertex $-1 $114 $175 #
straight-curve $-1 19.04999999999999716 5.079999999999999183 76.19999999999998863 1 0 0 I I #
coedge $-1 $68 $67 $89 $144 forward $69 $-1 #
edge $-1 $70 -2.539999999999999591 $176 2.539999999999999591 $115 $177 reversed 7 unknown #
face $-1 $178 $69 $2 $-1 $179 forward single #
point $-1 18.26346323369723734 5.079999999999999183 76.19999999999998863 #
coedge $-1 $82 $137 $72 $125 reversed $43 $-1 #
edge $-1 $180 -52.58929028867520827 $126 -0.2052136926927333183 $72 $181 reversed 7 unknown #
vertex $-1 $73 $182 #
straight-curve $-1 19.04999999999999716 5.079999999999999183 0 1 0 0 I I #
point $-1 15.34160000000001389 5.079999999999999183 0 #
straight-curve $-1 0 2.539999999999999591 45.24969879898158354 0 1 0 I I #
face $-1 $146 $117 $2 $-1 $183 reversed single #
loop $-1 $-1 $169 $79 #
plane-surface $-1 53.3399999999999892 2.539999999999999591 63.40669334950117531 0.4883623452164292944 0 0.8726409455066324039 0.8726409455066324039 0 -0.4883623452164292944 forward_v I I I I #
coedge $-1 $184 $167 $170 $185 forward $80 $-1 #
coedge $-1 $137 $82 $186 $187 forward $43 $-1 #
coedge $-1 $167 $184 $82 $136 reversed $80 $-1 #
edge $-1 $180 -2.539999999999999591 $188 2.539999999999999591 $82 $189 forward 7 unknown #
coedge $-1 $124 $134 $83 $138 reversed $43 $-1 #
edge $-1 $126 -2.539999999999999591 $190 2.539999999999999591 $83 $191 forward 7 unknown #
coedge $-1 $186 $84 $86 $141 forward $90 $-1 #
ellipse-curve $-1 35.35680000000005663 0 29.14609879898161893 -0 1 -0 -20.01520000000004629 0 -29.14609879898161537 1 I I #
edge $-1 $87 -3.708399999999983265 $190 11.43000000000002103 $86 $192 reversed 7 unknown #
point $-1 15.34160000000001389 0 0 #
coedge $-1 $89 $193 $173 $194 reversed $90 $-1 #
edge $-1 $91 8.096868274957805773e-09 $176 1.066201744348329372 $120 $195 forward 7 unknown #
loop $-1 $-1 $196 $146 #
face $-1 $122 $90 $2 $-1 $197 forward single #
point $-1 2.131628207280300558e-14 0 45.24969879898158354 #
coedge $-1 $198 $94 $97 $153 forward $150 $-1 #
coedge $-1 $94 $198 $101 $157 reversed $150 $-1 #
loop $-1 $-1 $148 $178 #
straight-curve $-1 14.65060984180843739 5.079999999999999183 6.38255812675066192 -0.8302166535997191898 -0 -0.557440856132454754 I I #
coedge $-1 $97 $96 $199 $200 reversed $98 $-1 #
edge $-1 $99 -2.539999999999999591 $201 2.539999999999999591 $148 $202 forward 7 unknown #
face $-1 $109 $98 $2 $-1 $203 reversed single #
point $-1 19.92122278494250054 5.079999999999999183 9.921459663625881831 #
coedge $-1 $102 $101 $204 $205 forward $103 $-1 #
edge $-1 $104 -2.539999999999999591 $206 2.539999999999999591 $101 $207 reversed 7 unknown #
face $-1 $-1 $103 $2 $-1 $208 forward single #
point $-1 35.48379999999998802 5.079999999999999183 20.37079999999999202 #
coedge $-1 $204 $199 $106 $161 reversed $145 $-1 #
edge $-1 $162 -6.675920383878302999 $164 11.03236870215487642 $160 $209 reversed 7 unknown #
vertex $-1 $205 $210 #
straight-curve $-1 35.48379999999998802 2.539999999999999591 55.93079999999999075 -0 -1 0 I I #
vertex $-1 $161 $211 #
straight-curve $-1 19.92122278494255028 2.539999999999999591 64.38004214234015876 -0 -1 -0 I I #
plane-surface $-1 27.70251139247126204 2.539999999999999591 60.15542107117007475 -0.47713486612347078 0 -0.8788300856987871779 -0.8788300856987871779 0 0.47713486612347078 forward_v I I I I #
coedge $-1 $133 $135 $112 $168 reversed $80 $-1 #
edge $-1 $171 -31.56779334950117999 $180 -6.523393349501198202 $112 $212 reversed 7 unknown #
coedge $-1 $213 $113 $116 $174 forward $131 $-1 #
coedge $-1 $113 $213 $133 $185 reversed $131 $-1 #
vertex $-1 $168 $214 #
straight-curve $-1 46.54159185832241974 5.079999999999999183 67.21133552324259597 -0.8726409455066324039 0 0.4883623452164292944 I I #
coedge $-1 $116 $115 $143 $194 forward $117 $-1 #
edge $-1 $118 -2.539999999999999591 $215 2.539999999999999591 $169 $216 reversed 7 unknown #
point $-1 30.47999999999996845 5.079999999999999183 76.19999999999998863 #
vertex $-1 $121 $217 #
straight-curve $-1 18.2634632336972409 2.539999999999999591 76.19999999999998863 0 1 0 I I #
face $-1 $154 $150 $2 $-1 $218 forward single #
cone-surface $-1 35.35680000000001399 2.539999999999999591 45.24969879898158354 0 1 0 -35.35679999999999268 0 -2.862793522240280634e-07 1 I I 0 1 35.35679999999999268 forward I I I I #
vertex $-1 $125 $219 #
straight-curve $-1 30.30089270939577162 5.079999999999999183 -0.1001660527374097498 0.8727843071973978573 0 0.488106087966497848 I I #
point $-1 30.48000000000001819 5.079999999999999183 0 #
plane-surface $-1 38.09999999999999432 2.539999999999999591 76.19999999999998863 0 0 -1 1 0 0 forward_v I I I I #
coedge $-1 $135 $133 $220 $221 forward $80 $-1 #
edge $-1 $171 -2.539999999999999591 $222 2.539999999999999591 $133 $223 forward 7 unknown #
coedge $-1 $220 $139 $134 $187 reversed $90 $-1 #
edge $-1 $188 -52.58929028867520827 $190 -0.2052136926927342064 $134 $224 forward 7 unknown #
vertex $-1 $187 $225 #
straight-curve $-1 76.19999999999998863 2.539999999999999591 25.56898669900237664 0 -1 0 I I #
vertex $-1 $141 $226 #
straight-curve $-1 30.48000000000001819 2.539999999999999591 0 0 -1 0 I I #
straight-curve $-1 19.04999999999999716 0 0 -1 -0 -0 I I #
coedge $-1 $143 $220 $213 $227 reversed $90 $-1 #
edge $-1 $176 -0.7865367663027562628 $215 11.43000000000000682 $173 $228 reversed 7 unknown #
ellipse-curve $-1 35.35680000000001399 0 45.24969879898158354 -0 1 -0 -35.35679999999999268 0 -2.862793522240280634e-07 1 I I #
coedge $-1 $199 $204 $198 $229 reversed $145 $-1 #
plane-surface $-1 0 0 0 0 -1 0 1 0 0 forward_v I I I I #
coedge $-1 $149 $148 $196 $229 forward $150 $-1 #
coedge $-1 $160 $196 $152 $200 forward $145 $-1 #
edge $-1 $201 -2.797702187458826572e-16 $164 1.168203500162662278 $199 $230 reversed 7 unknown #
vertex $-1 $200 $231 #
straight-curve $-1 19.92122278494249343 2.539999999999999591 9.921459663625881831 -0 -1 -0 I I #
cone-surface $-1 61.11239999999997963 2.539999999999999591 37.15075090298297766 0 1 0 -41.19117721505748619 0 -27.22929123935708873 1 I I 0 1 49.37760000000000105 forward I I I I #
coedge $-1 $196 $160 $156 $205 reversed $145 $-1 #
edge $-1 $206 1.29539999999999722 $162 36.85539999999998884 $204 $232 reversed 7 unknown #
vertex $-1 $205 $233 #
straight-curve $-1 35.48379999999998802 2.539999999999999591 20.37079999999999558 0 1 0 I I #
plane-surface $-1 35.48379999999998802 2.539999999999999591 38.15079999999998961 -1 0 0 0 0 1 forward_v I I I I #
straight-curve $-1 29.61680031691793857 0 59.11611437861270701 0.8788300856987871779 0 -0.47713486612347078 I I #
point $-1 35.48379999999998802 0 55.93079999999998364 #
point $-1 19.92122278494254317 0 64.38004214234013034 #
straight-curve $-1 76.19999999999998863 5.079999999999999183 19.04559334950118199 -0 0 1 I I #
coedge $-1 $170 $169 $193 $227 forward $131 $-1 #
point $-1 76.19999999999998863 5.079999999999999183 50.61338669900236198 #
vertex $-1 $227 $234 #
straight-curve $-1 30.48000000000000398 2.539999999999999591 76.19999999999998863 -0 1 0 I I #
point $-1 18.2634632336972409 0 76.19999999999998863 #
plane-surface $-1 27.70251139247126559 2.539999999999999591 15.14612983181295292 -0.557440856132454754 0 0.8302166535997191898 0.8302166535997190788 0 0.5574408561324546429 forward_v I I I I #
point $-1 76.19999999999998863 5.079999999999999183 25.56898669900238019 #
coedge $-1 $193 $186 $184 $221 reversed $90 $-1 #
edge $-1 $222 -31.56779334950117999 $188 -6.523393349501194649 $184 $235 forward 7 unknown #
vertex $-1 $221 $236 #
straight-curve $-1 76.19999999999998863 2.539999999999999591 50.61338669900236198 0 -1 0 I I #
straight-curve $-1 30.30089270939577162 0 -0.1001660527374115262 -0.8727843071973978573 -0 -0.488106087966497848 I I #
point $-1 76.19999999999998863 0 25.56898669900237664 #
point $-1 30.48000000000001819 0 0 #
edge $-1 $215 -18.40572796982094417 $222 33.98695453656335985 $213 $237 forward 7 unknown #
straight-curve $-1 19.04999999999999716 0 76.19999999999998863 -1 -0 -0 I I #
edge $-1 $201 6.348478942552311821 $206 25.09367894255235143 $196 $238 reversed 7 unknown #
ellipse-curve $-1 61.11239999999997963 0 37.15075090298297766 0 -1 0 -41.19117721505748619 0 -27.22929123935708873 1 I I #
point $-1 19.92122278494250054 0 9.921459663625881831 #
straight-curve $-1 35.48379999999998802 0 19.0753999999999948 -0 -0 -1 I I #
point $-1 35.48379999999998802 0 20.37079999999999202 #
point $-1 30.48000000000000398 0 76.19999999999998863 #
straight-curve $-1 76.19999999999998863 0 19.04559334950118199 0 0 -1 I I #
point $-1 76.19999999999998863 0 50.61338669900236198 #
straight-curve $-1 46.54159185832241974 0 67.21133552324261018 0.8726409455066324039 0 -0.4883623452164292944 I I #
straight-curve $-1 14.65060984180843739 0 6.38255812675066192 -0.8302166535997191898 -0 -0.557440856132454754 I I #
End-of-ACIS-data 