999
DXF file: 4n5726_fl01.dxf
999
Pro/ENGINEER 9801 by Parametric Technology Corporation
0
SECTION
2
HEADER
9
$EXTMAX
10
22.0000000000
20
17.0000000000
9
$EXTMIN
10
0.0000000000
20
0.0000000000
9
$LIMMIN
10
0.0000000000
20
0.0000000000
9
$LIMMAX
10
22.0000000000
20
17.0000000000
9
$VIEWCTR
10
11.0000000000
20
8.5000000000
9
$VIEWSIZE
40
17.0000000000
9
$CLAYER
8
0
9
$LTSCALE
40
1.2100000000
9
$CELTYPE
6
BYLAYER
9
$DIMSCALE
40
1
9
$DIMASZ
40
0.1875000000
9
$DIMEXO
40
0.1375000000
9
$DIMDLI
40
0.8360000000
9
$DIMEXE
40
0.3960000000
9
$DIMCEN
40
0.1980000000
9
$DIMTXT
40
0.2486049107
0
ENDSEC
0
SECTION
2
TABLES
0
TABLE
2
LTYPE
70
6
0
LTYPE
2
CONTINUOUS
70
64
3
Solid line
72
65
73
0
40
0
0
LTYPE
2
CENTER
70
64
3
____ _ ____ _ ____ _ ____ _ ____ _ ____ _ ____
72
65
73
4
40
0.6
49
0.375
49
-0.075
49
0.075
49
-0.075
0
LTYPE
2
HIDDEN
70
64
3
- - - - - - - - - - - - - - - - - - - -
72
65
73
2
40
0.2
49
0.1
49
-0.1
0
LTYPE
2
PHANTOM
70
64
3
_____ _ _ _____ _ _ _____ _ _ _____
72
65
73
6
40
0.8
49
0.45
49
-0.05
49
0.1
49
-0.05
49
0.1
49
-0.05
0
LTYPE
2
DOT
70
64
3
. . . . . . . . . . . . . . . . . . . .
72
65
73
2
40
0.2
49
0.1
49
-0.1
0
LTYPE
2
DASHED
70
64
3
- - - - - - - - - - - - - - - - - - - -
72
65
73
2
40
0.2
49
0.1
49
-0.1
0
ENDTAB
0
TABLE
2
LAYER
70
36
0
LAYER
2
0
70
0
62
7
6
CONTINUOUS
0
LAYER
2
DEFAULT_1
70
0
62
7
6
CENTER
0
LAYER
2
DEFAULT_2
70
0
62
7
6
HIDDEN
0
LAYER
2
DEFAULT_3
70
0
62
7
6
PHANTOM
0
ENDTAB
0
ENDSEC
0
SECTION
2
BLOCKS
0
ENDSEC
0
SECTION
2
ENTITIES
0
LINE
8
0
62
3
10
5.7950379222
20
10.4121799877
11
19.3855891033
21
10.4121799877
0
LINE
8
0
62
3
10
1.1060615442
20
31.2799040192
11
1.1060615442
21
23.1704552003
0
LINE
8
0
62
3
10
1.1060615442
20
22.1704552003
11
1.1060615442
21
19.4688803972
0
LINE
8
0
62
3
10
18.5799591820
20
10.8430854996
11
18.3921639064
21
10.8430854996
0
LINE
8
0
62
3
10
13.0799591820
20
10.8430854996
11
12.8921639064
21
10.8430854996
0
LINE
8
0
62
3
10
6.5799591820
20
10.8430854996
11
6.3921639064
21
10.8430854996
0
LINE
8
0
62
3
10
6.3921639064
20
11.2804870744
11
6.5799591820
21
11.2804870744
0
LINE
8
0
62
3
10
12.8921639064
20
11.2804870744
11
13.0799591820
21
11.2804870744
0
LINE
8
0
62
3
10
18.3921639064
20
11.2804870744
11
18.5799591820
21
11.2804870744
0
LINE
8
0
62
3
10
1.4170851663
20
19.2169118933
11
1.4170851663
21
17.4688803972
0
LINE
8
0
62
3
10
4.4879513080
20
13.4216363027
11
5.4131481584
21
13.4216363027
0
LINE
8
0
62
3
10
4.4879513080
20
17.0869906334
11
4.4879513080
21
13.4216363027
0
LINE
8
0
62
3
10
5.7950379222
20
10.4121799877
11
5.7950379222
21
13.0397465389
0
LINE
8
0
62
3
10
1.4170851663
20
17.4688803972
11
4.1060615442
21
17.4688803972
0
LINE
8
0
62
3
10
1.1060615442
20
19.4688803972
11
1.1651166623
21
19.4688803972
0
LINE
8
0
62
3
10
1.1060615442
20
22.1704552003
11
1.5459040639
21
22.1704552003
0
LINE
8
0
62
3
10
1.1060615442
20
23.1704552003
11
1.5459040639
21
23.1704552003
0
LINE
8
0
62
3
10
19.3855891033
20
10.4121799877
11
19.3855891033
21
13.8707545749
0
LINE
8
0
62
3
10
1.9881855815
20
31.2799040192
11
1.1060615442
21
31.2799040192
0
ARC
8
0
62
3
10
19.4879513080
20
31.3704552003
40
17.5000000000
50
180.2964699234
51
269.6648596711
0
ARC
8
0
62
3
10
5.4131481584
20
13.0397465389
40
0.3818897638
50
0.0000000000
51
90.0000000000
0
ARC
8
0
62
3
10
4.1060615442
20
17.0869906334
40
0.3818897638
50
0.0000000000
51
90.0000000000
0
ARC
8
0
62
3
10
1.1651166623
20
19.2169118933
40
0.2519685039
50
0.0000000000
51
90.0000000000
0
ARC
8
0
62
3
10
1.5459040639
20
22.6704552003
40
0.5000000000
50
270.0000000000
51
450.0000000000
0
CIRCLE
8
0
62
3
10
2.5640615442
20
24.3606126807
40
0.1955000000
0
CIRCLE
8
0
62
3
10
5.9860615442
20
18.9846284287
40
0.1955000000
0
CIRCLE
8
0
62
3
10
7.1110615442
20
17.8606126807
40
0.2735000000
0
CIRCLE
8
0
62
3
10
12.4860615442
20
14.4386126807
40
0.2736220472
0
CIRCLE
8
0
62
3
10
14.6740615442
20
13.3606126807
40
0.2735000000
0
CIRCLE
8
0
62
3
10
18.7360615442
20
13.3606126807
40
0.2735000000
0
CIRCLE
8
0
62
3
10
1.4860615442
20
30.6106126807
40
0.2190944882
0
CIRCLE
8
0
62
3
10
1.4860615442
20
26.5486126807
40
0.2190944882
0
CIRCLE
8
0
62
3
10
1.4860615442
20
20.9226126807
40
0.2190944882
0
CIRCLE
8
0
62
3
10
1.8610615442
20
17.9226126807
40
0.2190944882
0
ARC
8
0
62
3
10
6.3921639064
20
11.0617862870
40
0.2187007874
50
90.0000000000
51
270.0000000000
0
ARC
8
0
62
3
10
6.5799591820
20
11.0617862870
40
0.2187007874
50
270.0000000000
51
450.0000000000
0
ARC
8
0
62
3
10
12.8921639064
20
11.0617862870
40
0.2187007874
50
90.0000000000
51
270.0000000000
0
ARC
8
0
62
3
10
13.0799591820
20
11.0617862870
40
0.2187007874
50
270.0000000000
51
450.0000000000
0
ARC
8
0
62
3
10
18.3921639064
20
11.0617862870
40
0.2187007874
50
90.0000000000
51
270.0000000000
0
ARC
8
0
62
3
10
18.5799591820
20
11.0617862870
40
0.2187007874
50
270.0000000000
51
450.0000000000
0
CIRCLE
8
0
62
3
10
7.4860615442
20
11.0617862870
40
0.3440944882
0
CIRCLE
8
0
62
3
10
14.4860615442
20
11.0617862870
40
0.3440944882
0
ENDSEC
0
EOF
