700 0 2 0           
24 FBMach with ACIS - 7.0.3 13 ACIS 7.0.3 NT 24 Tue May 14 14:30:41 2002 
1 9.9999999999999995e-007 1e-010 
body $2 -1 $-1 $3 $-1 $4 #
bdycol-kcp $-1 -1 1 3 $5 $6 $7 #
model_id-kcp-attrib $-1 -1 $-1 $-1 $0 1 1021401041 1021401041 -2100166655 1 #
lump $-1 -1 $-1 $-1 $8 $0 #
transform $-1 -1 1 0 0 0 1 0 0 0 1 0 0 0 1 rotate no_reflect no_shear #
body $9 -1 $-1 $10 $-1 $11 #
body $12 -1 $-1 $13 $-1 $14 #
body $15 -1 $-1 $16 $-1 $17 #
shell $-1 -1 $-1 $-1 $-1 $18 $-1 $3 #
rgb_color-st-attrib $-1 -1 $19 $-1 $5 0.5 1 1 #
lump $-1 -1 $-1 $-1 $20 $5 #
transform $-1 -1 1 0 0 0 1 0 0 0 1 0 0 0 1 no_rotate no_reflect no_shear #
rgb_color-st-attrib $-1 -1 $21 $-1 $6 0.5 1 1 #
lump $-1 -1 $-1 $22 $23 $6 #
transform $-1 -1 1 0 0 0 1 0 0 0 1 0 2.3748999999999998 -4.4408920985006262e-016 1 no_rotate no_reflect no_shear #
model_id-kcp-attrib $-1 -1 $-1 $-1 $7 1 1021401041 1021401041 -2100166654 1 #
lump $-1 -1 $-1 $-1 $24 $7 #
transform $-1 -1 1 0 0 0 1 0 0 0 1 0 2.3748999999999998 -4.4408920985006262e-016 1 no_rotate no_reflect no_shear #
face $25 -1 $-1 $26 $27 $8 $-1 $28 reversed single #
model_id-kcp-attrib $-1 -1 $-1 $9 $5 1 1021401041 1021401041 -2113404924 1 #
shell $-1 -1 $-1 $-1 $-1 $29 $-1 $10 #
model_id-kcp-attrib $-1 -1 $-1 $12 $6 1 1021401041 1021401041 -2104492029 1 #
lump $-1 -1 $-1 $-1 $30 $6 #
shell $-1 -1 $-1 $-1 $-1 $31 $-1 $13 #
shell $-1 -1 $-1 $-1 $-1 $32 $-1 $16 #
model_id-kcp-attrib $-1 -1 $-1 $-1 $18 1 1021401041 1021401041 -2100166655 2 #
face $33 -1 $-1 $34 $35 $8 $-1 $36 forward single #
loop $-1 -1 $-1 $37 $38 $18 #
plane-surface $-1 -1 $-1 0 0 0 0 1 0 25.399999999999999 0 0 forward_v I I I I #
face $-1 -1 $-1 $39 $40 $20 $-1 $41 forward single #
shell $-1 -1 $-1 $-1 $-1 $42 $-1 $22 #
face $-1 -1 $-1 $43 $44 $23 $-1 $45 reversed single #
face $46 -1 $-1 $47 $48 $24 $-1 $49 forward single #
model_id-kcp-attrib $-1 -1 $-1 $-1 $26 1 1021401041 1021401041 -2100166655 3 #
face $50 -1 $-1 $51 $52 $8 $-1 $53 forward single #
loop $-1 -1 $-1 $-1 $54 $26 #
plane-surface $-1 -1 $-1 3.2643704062217731 0 -5.5499000000000001 0 0 -1 -25.399999999999999 0 0 forward_v I I I I #
loop $-1 -1 $-1 $-1 $55 $18 #
coedge $-1 -1 $-1 $56 $57 $58 $59 reversed $27 $-1 #
face $-1 -1 $-1 $60 $61 $20 $-1 $62 forward single #
loop $-1 -1 $-1 $63 $64 $29 #
cone-surface $-1 -1 $-1 0 0 0 0 1 0 -3.1749999999999998 0 0 1 I I 0 1 3.1749999999999998 forward I I I I #
face $-1 -1 $-1 $65 $66 $30 $-1 $67 reversed single #
face $-1 -1 $-1 $68 $69 $23 $-1 $70 reversed single #
loop $-1 -1 $-1 $-1 $71 $31 #
plane-surface $-1 -1 $-1 6.3499999999999996 -2.3748999999999998 4.4408920985006262e-016 0.87400000000000022 0 -0.48592592028003573 0 1 0 forward_v I I I I #
model_id-kcp-attrib $-1 -1 $-1 $-1 $32 1 1021401041 1021401041 -2100166654 4 #
face $72 -1 $-1 $73 $74 $24 $-1 $75 reversed single #
loop $-1 -1 $-1 $-1 $76 $32 #
plane-surface $-1 -1 $-1 0 0 5.5499000000000009 0 0 1 1 0 0 forward_v I I I I #
model_id-kcp-attrib $-1 -1 $-1 $-1 $34 1 1021401041 1021401041 -2100166655 4 #
face $77 -1 $-1 $78 $79 $8 $-1 $80 forward single #
loop $-1 -1 $-1 $-1 $81 $34 #
plane-surface $-1 -1 $-1 -3.2643704062217704 0 -5.5499000000000001 -0.874 0 -0.48592592028003612 -12.342518375112917 0 22.1996 forward_v I I I I #
coedge $-1 -1 $-1 $82 $58 $83 $84 forward $35 $-1 #
coedge $-1 -1 $-1 $85 $85 $86 $87 reversed $37 $-1 #
coedge $-1 -1 $-1 $88 $38 $89 $90 reversed $27 $-1 #
coedge $-1 -1 $-1 $38 $91 $92 $93 reversed $27 $-1 #
coedge $-1 -1 $-1 $54 $94 $38 $59 forward $35 $-1 #
edge $95 -1 $-1 $96 0 $97 0.25703703985998205 $38 $98 forward @7 unknown #
face $-1 -1 $-1 $-1 $99 $20 $-1 $100 reversed single #
loop $-1 -1 $-1 $-1 $101 $39 #
plane-surface $-1 -1 $-1 0 4.7497999999999996 0 0 1 0 0 0 1 forward_v I I I I #
loop $-1 -1 $-1 $-1 $102 $29 #
coedge $-1 -1 $-1 $64 $64 $101 $103 forward $40 $-1 #
face $-1 -1 $-1 $104 $105 $30 $-1 $106 forward single #
loop $-1 -1 $-1 $-1 $107 $42 #
plane-surface $-1 -1 $-1 -6.3499999999999996 0 0 1 0 0 0 0 -1 forward_v I I I I #
face $-1 -1 $-1 $108 $109 $23 $-1 $110 reversed single #
loop $-1 -1 $-1 $-1 $111 $43 #
plane-surface $-1 -1 $-1 3.2643704062217731 -2.3748999999999998 5.5499000000000009 0.87400000000000022 0 0.48592592028003573 0 1 0 forward_v I I I I #
coedge $-1 -1 $-1 $112 $113 $114 $115 reversed $44 $-1 #
model_id-kcp-attrib $-1 -1 $-1 $-1 $47 1 1021401041 1021401041 -2100166654 3 #
face $116 -1 $-1 $117 $118 $24 $-1 $119 reversed single #
loop $-1 -1 $-1 $-1 $120 $47 #
plane-surface $-1 -1 $-1 0 0 -5.5499000000000009 0 0 1 1 0 0 forward_v I I I I #
coedge $-1 -1 $-1 $121 $122 $123 $124 forward $48 $-1 #
model_id-kcp-attrib $-1 -1 $-1 $-1 $51 1 1021401041 1021401041 -2100166655 5 #
face $125 -1 $-1 $126 $127 $8 $-1 $128 forward single #
loop $-1 -1 $-1 $-1 $129 $51 #
plane-surface $-1 -1 $-1 -6.3499999999999996 0 0 -0.874 0 0.48592592028003612 12.342518375112917 0 22.1996 forward_v I I I I #
coedge $-1 -1 $-1 $130 $92 $131 $132 forward $52 $-1 #
coedge $-1 -1 $-1 $94 $54 $133 $134 reversed $35 $-1 #
coedge $-1 -1 $-1 $92 $130 $54 $84 reversed $52 $-1 #
edge $135 -1 $-1 $97 0 $136 0.187 $83 $137 forward @7 unknown #
coedge $-1 -1 $-1 $55 $55 $138 $139 reversed $37 $-1 #
coedge $-1 -1 $-1 $140 $141 $55 $87 forward $142 $-1 #
edge $143 -1 $-1 $144 0 $145 3.1415926535897931 $55 $146 forward @7 unknown #
coedge $-1 -1 $-1 $147 $56 $148 $149 reversed $27 $-1 #
coedge $-1 -1 $-1 $150 $151 $56 $90 forward $152 $-1 #
edge $153 -1 $-1 $154 0 $96 0.25 $56 $155 forward @7 unknown #
coedge $-1 -1 $-1 $57 $147 $156 $157 reversed $27 $-1 #
coedge $-1 -1 $-1 $81 $83 $57 $93 forward $52 $-1 #
edge $158 -1 $-1 $97 0 $159 0.24999999999999997 $57 $160 forward @7 unknown #
coedge $-1 -1 $-1 $58 $82 $150 $161 reversed $35 $-1 #
attrib_edge_convexity-kcp-attrib $-1 -1 $162 $-1 $59 1 #
vertex $-1 -1 $-1 $90 $163 #
vertex $-1 -1 $-1 $93 $164 #
straight-curve $-1 -1 $-1 3.2643704062217731 0 -5.5499000000000001 -25.399999999999999 0 0 I I #
loop $-1 -1 $-1 $-1 $165 $60 #
plane-surface $-1 -1 $-1 0 0 0 0 1 0 0 0 1 forward_v I I I I #
coedge $-1 -1 $-1 $101 $101 $64 $103 reversed $61 $-1 #
coedge $-1 -1 $-1 $102 $102 $165 $166 reversed $63 $-1 #
edge $-1 -1 $-1 $167 -3.1415926535897931 $167 3.1415926535897931 $64 $168 forward @7 unknown #
face $-1 -1 $-1 $169 $170 $30 $-1 $171 reversed single #
loop $-1 -1 $-1 $-1 $172 $65 #
plane-surface $-1 -1 $-1 0 0 5.5499000000000009 0 0 1 1 0 0 forward_v I I I I #
coedge $-1 -1 $-1 $173 $174 $175 $176 forward $66 $-1 #
face $-1 -1 $-1 $177 $178 $23 $-1 $179 reversed single #
loop $-1 -1 $-1 $-1 $180 $68 #
plane-surface $-1 -1 $-1 6.3499999999999996 0 0 -1 0 0 0 0 1 forward_v I I I I #
coedge $-1 -1 $-1 $181 $182 $183 $184 reversed $69 $-1 #
coedge $-1 -1 $-1 $185 $71 $186 $187 reversed $44 $-1 #
coedge $-1 -1 $-1 $71 $185 $182 $188 forward $44 $-1 #
coedge $-1 -1 $-1 $189 $190 $71 $115 forward $191 $-1 #
edge $-1 -1 $-1 $192 -4.8071852031108868 $193 1.5428147968891133 $114 $194 forward @7 unknown #
model_id-kcp-attrib $-1 -1 $-1 $-1 $73 1 1021401041 1021401041 -2100166654 2 #
face $-1 -1 $-1 $195 $196 $24 $-1 $197 reversed single #
loop $-1 -1 $-1 $-1 $198 $73 #
plane-surface $-1 -1 $-1 0 -2.3748999999999998 0 0 1 0 0 0 1 forward_v I I I I #
coedge $-1 -1 $-1 $199 $200 $201 $202 forward $74 $-1 #
coedge $-1 -1 $-1 $203 $76 $204 $205 forward $48 $-1 #
coedge $-1 -1 $-1 $76 $203 $206 $207 forward $48 $-1 #
coedge $-1 -1 $-1 $208 $209 $76 $124 reversed $210 $-1 #
edge $-1 -1 $-1 $211 -2.3748999999999998 $212 2.3748999999999998 $123 $213 forward @7 unknown #
model_id-kcp-attrib $-1 -1 $-1 $-1 $78 1 1021401041 1021401041 -2100166655 6 #
face $214 -1 $-1 $215 $216 $8 $-1 $217 forward single #
loop $-1 -1 $-1 $-1 $218 $78 #
plane-surface $-1 -1 $-1 -3.2643704062217704 0 5.5499000000000001 0 0 1 25.399999999999999 0 0 forward_v I I I I #
coedge $-1 -1 $-1 $219 $156 $220 $221 forward $79 $-1 #
coedge $-1 -1 $-1 $83 $81 $222 $223 reversed $52 $-1 #
coedge $-1 -1 $-1 $156 $219 $81 $132 reversed $79 $-1 #
edge $224 -1 $-1 $159 0 $225 0.187 $81 $226 forward @7 unknown #
coedge $-1 -1 $-1 $222 $227 $82 $134 forward $228 $-1 #
edge $229 -1 $-1 $230 0 $136 0.25703703985998205 $133 $231 forward @7 unknown #
attrib_edge_convexity-kcp-attrib $-1 -1 $232 $-1 $84 1 #
vertex $-1 -1 $-1 $223 $233 #
straight-curve $-1 -1 $-1 -3.2643704062217704 0 -5.5499000000000001 0 25.399999999999999 0 I I #
coedge $-1 -1 $-1 $234 $235 $85 $139 forward $236 $-1 #
edge $237 -1 $-1 $145 0 $144 3.1415926535897931 $85 $238 forward @7 unknown #
coedge $-1 -1 $-1 $239 $86 $235 $240 reversed $142 $-1 #
coedge $-1 -1 $-1 $86 $239 $234 $241 forward $142 $-1 #
loop $-1 -1 $-1 $-1 $140 $242 #
attrib_edge_convexity-kcp-attrib $-1 -1 $243 $-1 $87 1 #
vertex $-1 -1 $-1 $139 $244 #
vertex $-1 -1 $-1 $139 $245 #
ellipse-curve $-1 -1 $-1 0 0 0 0 -1 0 -3.1749999999999998 0 0 1 I I #
coedge $-1 -1 $-1 $91 $88 $246 $247 reversed $27 $-1 #
coedge $-1 -1 $-1 $248 $249 $88 $149 forward $216 $-1 #
edge $250 -1 $-1 $251 0 $154 0.25 $88 $252 forward @7 unknown #
coedge $-1 -1 $-1 $253 $89 $94 $161 forward $152 $-1 #
coedge $-1 -1 $-1 $89 $253 $248 $254 reversed $152 $-1 #
loop $-1 -1 $-1 $-1 $150 $215 #
attrib_edge_convexity-kcp-attrib $-1 -1 $255 $-1 $90 1 #
vertex $-1 -1 $-1 $149 $256 #
straight-curve $-1 -1 $-1 6.3499999999999996 0 0 -12.342518375112906 0 -22.199600000000004 I I #
coedge $-1 -1 $-1 $129 $131 $91 $157 forward $79 $-1 #
edge $257 -1 $-1 $159 0 $258 0.24999999999999997 $91 $259 forward @7 unknown #
attrib_edge_convexity-kcp-attrib $-1 -1 $260 $-1 $93 1 #
vertex $-1 -1 $-1 $93 $261 #
straight-curve $-1 -1 $-1 -3.2643704062217704 0 -5.5499000000000001 -12.342518375112917 0 22.1996 I I #
edge $262 -1 $-1 $96 0 $230 0.187 $150 $263 forward @7 unknown #
convexity-sys-attrib $-1 -1 $-1 $95 $59 #
point $-1 -1 $-1 3.2643704062217731 0 -5.5499000000000001 #
point $-1 -1 $-1 -3.2643704062217704 0 -5.5499000000000001 #
coedge $-1 -1 $-1 $165 $165 $102 $166 forward $99 $-1 #
edge $-1 -1 $-1 $264 -3.1415926535897931 $264 3.1415926535897931 $102 $265 forward @7 unknown #
vertex $-1 -1 $-1 $103 $266 #
ellipse-curve $-1 -1 $-1 0 4.7497999999999996 0 0 -1 0 3.1749999999999998 0 0 1 I I #
face $-1 -1 $-1 $267 $268 $30 $-1 $171 reversed single #
loop $-1 -1 $-1 $-1 $269 $104 #
plane-surface $-1 -1 $-1 0 -2.3748999999999998 0 0 1 0 0 0 1 forward_v I I I I #
coedge $-1 -1 $-1 $270 $271 $272 $273 forward $105 $-1 #
coedge $-1 -1 $-1 $274 $107 $275 $276 forward $66 $-1 #
coedge $-1 -1 $-1 $107 $274 $277 $278 reversed $66 $-1 #
coedge $-1 -1 $-1 $279 $280 $281 $176 reversed $282 $-1 #
edge $-1 -1 $-1 $283 -1.1874499999999999 $284 3.5623499999999995 $107 $285 forward @7 unknown #
face $-1 -1 $-1 $286 $191 $23 $-1 $179 reversed single #
loop $-1 -1 $-1 $-1 $287 $108 #
plane-surface $-1 -1 $-1 0 2.3748999999999998 0 0 -1 0 0 0 -1 forward_v I I I I #
coedge $-1 -1 $-1 $288 $289 $290 $188 forward $109 $-1 #
coedge $-1 -1 $-1 $291 $111 $292 $293 reversed $69 $-1 #
coedge $-1 -1 $-1 $111 $291 $180 $188 reversed $69 $-1 #
coedge $-1 -1 $-1 $294 $295 $111 $184 forward $296 $-1 #
edge $-1 -1 $-1 $297 -1.6321852031108863 $298 4.7178147968891126 $183 $299 forward @7 unknown #
coedge $-1 -1 $-1 $113 $112 $300 $301 reversed $44 $-1 #
coedge $-1 -1 $-1 $302 $303 $112 $187 forward $304 $-1 #
edge $-1 -1 $-1 $305 -1.1874499999999999 $192 3.5623499999999995 $186 $306 forward @7 unknown #
edge $-1 -1 $-1 $298 -1.1874499999999999 $193 3.5623499999999995 $180 $307 forward @7 unknown #
coedge $-1 -1 $-1 $190 $114 $308 $309 forward $191 $-1 #
coedge $-1 -1 $-1 $114 $189 $302 $310 reversed $191 $-1 #
loop $-1 -1 $-1 $-1 $114 $177 #
vertex $-1 -1 $-1 $310 $311 #
vertex $-1 -1 $-1 $309 $312 #
straight-curve $-1 -1 $-1 5.6003063000000015 2.3748999999999998 -1.3484201324810852 0.48592592028003573 0 0.87400000000000022 I I #
face $313 -1 $-1 $314 $315 $24 $-1 $316 reversed single #
loop $-1 -1 $-1 $-1 $317 $117 #
plane-surface $-1 -1 $-1 -6.3499999999999996 0 0 1 0 0 0 0 -1 forward_v I I I I #
coedge $-1 -1 $-1 $318 $206 $319 $320 forward $118 $-1 #
coedge $-1 -1 $-1 $321 $120 $318 $322 forward $74 $-1 #
coedge $-1 -1 $-1 $120 $321 $323 $324 forward $74 $-1 #
coedge $-1 -1 $-1 $209 $208 $120 $202 reversed $210 $-1 #
edge $-1 -1 $-1 $325 -2.3748999999999998 $326 2.3748999999999998 $201 $327 forward @7 unknown #
coedge $-1 -1 $-1 $122 $121 $328 $329 forward $48 $-1 #
coedge $-1 -1 $-1 $330 $331 $121 $205 reversed $315 $-1 #
edge $-1 -1 $-1 $212 -6.3499999999999996 $332 6.3499999999999996 $204 $333 forward @7 unknown #
coedge $-1 -1 $-1 $198 $334 $122 $207 reversed $118 $-1 #
edge $-1 -1 $-1 $335 -6.3499999999999996 $211 6.3499999999999996 $206 $336 forward @7 unknown #
coedge $-1 -1 $-1 $201 $123 $334 $337 forward $210 $-1 #
coedge $-1 -1 $-1 $123 $201 $330 $338 reversed $210 $-1 #
loop $-1 -1 $-1 $-1 $208 $314 #
vertex $-1 -1 $-1 $124 $339 #
vertex $-1 -1 $-1 $124 $340 #
straight-curve $-1 -1 $-1 6.3499999999999996 0 5.5499000000000009 0 1 0 I I #
model_id-kcp-attrib $-1 -1 $-1 $-1 $126 1 1021401041 1021401041 -2100166655 7 #
face $341 -1 $-1 $342 $152 $8 $-1 $343 forward single #
loop $-1 -1 $-1 $-1 $248 $126 #
plane-surface $-1 -1 $-1 3.2643704062217731 0 5.5499000000000001 0.87400000000000022 0 0.48592592028003578 12.342518375112908 0 -22.199600000000004 forward_v I I I I #
coedge $-1 -1 $-1 $344 $246 $249 $345 forward $127 $-1 #
coedge $-1 -1 $-1 $131 $129 $346 $347 reversed $79 $-1 #
coedge $-1 -1 $-1 $246 $344 $129 $221 reversed $127 $-1 #
edge $348 -1 $-1 $258 0 $349 0.187 $129 $350 forward @7 unknown #
coedge $-1 -1 $-1 $346 $133 $130 $223 forward $228 $-1 #
edge $351 -1 $-1 $136 0 $225 0.24999999999999997 $222 $352 forward @7 unknown #
attrib_edge_convexity-kcp-attrib $-1 -1 $353 $-1 $132 1 #
vertex $-1 -1 $-1 $223 $354 #
straight-curve $-1 -1 $-1 -6.3499999999999996 0 0 0 25.399999999999999 0 I I #
coedge $-1 -1 $-1 $133 $355 $253 $356 forward $228 $-1 #
loop $-1 -1 $-1 $357 $346 $342 #
model_id-kcp-attrib $-1 -1 $358 $-1 $134 1 1021401041 1021401041 -2100166655 14 #
vertex $-1 -1 $-1 $134 $359 #
straight-curve $-1 -1 $-1 3.2643704062217731 4.7497999999999996 -5.5499000000000001 -25.399999999999999 0 0 I I #
convexity-sys-attrib $-1 -1 $-1 $135 $84 #
point $-1 -1 $-1 -3.2643704062217704 4.7497999999999996 -5.5499000000000001 #
coedge $-1 -1 $-1 $360 $138 $141 $241 reversed $236 $-1 #
coedge $-1 -1 $-1 $138 $360 $140 $240 forward $236 $-1 #
loop $-1 -1 $-1 $-1 $234 $361 #
attrib_edge_convexity-kcp-attrib $-1 -1 $362 $-1 $139 1 #
ellipse-curve $-1 -1 $-1 0 0 0 0 -1 0 3.1749999999999998 0 0 1 I I #
coedge $-1 -1 $-1 $141 $140 $363 $364 reversed $142 $-1 #
edge $-1 -1 $-1 $365 0 $145 0.187 $235 $366 forward @7 unknown #
edge $-1 -1 $-1 $367 0 $144 0.187 $234 $368 forward @7 unknown #
face $369 -1 $-1 $361 $142 $8 $-1 $370 reversed single #
convexity-sys-attrib $-1 -1 $-1 $143 $87 #
point $-1 -1 $-1 -3.1749999999999998 0 0 #
point $-1 -1 $-1 3.1749999999999998 0 0 #
coedge $-1 -1 $-1 $218 $220 $147 $247 forward $127 $-1 #
edge $371 -1 $-1 $258 0 $251 0.25703703985998205 $147 $372 forward @7 unknown #
coedge $-1 -1 $-1 $373 $148 $151 $254 forward $216 $-1 #
coedge $-1 -1 $-1 $148 $373 $218 $345 reversed $216 $-1 #
attrib_edge_convexity-kcp-attrib $-1 -1 $374 $-1 $149 1 #
vertex $-1 -1 $-1 $247 $375 #
straight-curve $-1 -1 $-1 3.2643704062217731 0 5.5499000000000001 12.342518375112906 0 -22.199600000000004 I I #
coedge $-1 -1 $-1 $151 $150 $227 $356 reversed $152 $-1 #
edge $-1 -1 $-1 $154 0 $376 0.187 $248 $377 forward @7 unknown #
convexity-sys-attrib $-1 -1 $-1 $153 $90 #
point $-1 -1 $-1 6.3499999999999996 0 0 #
attrib_edge_convexity-kcp-attrib $-1 -1 $378 $-1 $157 1 #
vertex $-1 -1 $-1 $157 $379 #
straight-curve $-1 -1 $-1 -6.3499999999999996 0 0 12.342518375112917 0 22.1996 I I #
convexity-sys-attrib $-1 -1 $-1 $158 $93 #
point $-1 -1 $-1 -6.3499999999999996 0 0 #
attrib_edge_convexity-kcp-attrib $-1 -1 $380 $-1 $161 1 #
straight-curve $-1 -1 $-1 3.2643704062217731 0 -5.5499000000000001 0 25.399999999999999 0 I I #
vertex $-1 -1 $-1 $166 $381 #
ellipse-curve $-1 -1 $-1 0 0 0 0 -1 0 -3.1749999999999998 0 0 1 I I #
point $-1 -1 $-1 -3.1749999999999998 4.7497999999999996 0 #
face $-1 -1 $-1 $382 $282 $30 $-1 $67 reversed single #
loop $-1 -1 $-1 $-1 $383 $169 #
coedge $-1 -1 $-1 $277 $384 $385 $386 forward $170 $-1 #
coedge $-1 -1 $-1 $387 $172 $388 $389 forward $105 $-1 #
coedge $-1 -1 $-1 $172 $387 $390 $391 forward $105 $-1 #
coedge $-1 -1 $-1 $392 $393 $172 $273 reversed $394 $-1 #
edge $-1 -1 $-1 $395 -1.1874499999999999 $396 3.5623499999999995 $172 $397 forward @7 unknown #
coedge $-1 -1 $-1 $174 $173 $398 $399 reversed $66 $-1 #
coedge $-1 -1 $-1 $400 $401 $173 $276 reversed $402 $-1 #
edge $-1 -1 $-1 $284 9.1390311015748381e-016 $403 5.5499000000000009 $275 $404 forward @7 unknown #
coedge $-1 -1 $-1 $384 $269 $174 $278 forward $170 $-1 #
edge $-1 -1 $-1 $283 0 $405 5.5499000000000009 $174 $406 forward @7 unknown #
coedge $-1 -1 $-1 $407 $175 $408 $409 reversed $282 $-1 #
coedge $-1 -1 $-1 $175 $407 $410 $411 forward $282 $-1 #
coedge $-1 -1 $-1 $393 $392 $412 $176 forward $394 $-1 #
loop $-1 -1 $-1 $-1 $175 $267 #
vertex $-1 -1 $-1 $278 $413 #
vertex $-1 -1 $-1 $276 $414 #
straight-curve $-1 -1 $-1 -6.3499999999999996 -1.1874499999999999 4.4408920985006262e-016 0 1 0 I I #
face $-1 -1 $-1 $415 $296 $23 $-1 $171 reversed single #
coedge $-1 -1 $-1 $416 $417 $291 $418 forward $178 $-1 #
coedge $-1 -1 $-1 $419 $180 $417 $420 reversed $109 $-1 #
coedge $-1 -1 $-1 $180 $419 $294 $421 forward $109 $-1 #
coedge $-1 -1 $-1 $422 $308 $113 $188 reversed $423 $-1 #
coedge $-1 -1 $-1 $182 $181 $287 $418 reversed $69 $-1 #
coedge $-1 -1 $-1 $424 $425 $181 $293 forward $426 $-1 #
edge $-1 -1 $-1 $427 -3.5623499999999995 $297 1.1874499999999999 $292 $428 forward @7 unknown #
coedge $-1 -1 $-1 $295 $183 $289 $421 reversed $296 $-1 #
coedge $-1 -1 $-1 $183 $294 $424 $429 reversed $296 $-1 #
loop $-1 -1 $-1 $-1 $183 $286 #
vertex $-1 -1 $-1 $429 $430 #
vertex $-1 -1 $-1 $431 $432 #
straight-curve $-1 -1 $-1 4.0574915031108878 -2.3748999999999998 4.1233701324810861 0.48592592028003573 0 -0.87400000000000022 I I #
coedge $-1 -1 $-1 $433 $434 $185 $301 forward $435 $-1 #
edge $-1 -1 $-1 $298 -1.5428147968891133 $305 4.8071852031108868 $300 $436 forward @7 unknown #
coedge $-1 -1 $-1 $437 $186 $190 $310 forward $304 $-1 #
coedge $-1 -1 $-1 $186 $437 $433 $438 forward $304 $-1 #
loop $-1 -1 $-1 $-1 $186 $439 #
vertex $-1 -1 $-1 $301 $440 #
straight-curve $-1 -1 $-1 3.2643704062217731 -1.1874499999999999 -5.5499000000000009 0 1 0 I I #
straight-curve $-1 -1 $-1 6.3499999999999996 -1.1874499999999999 8.8817841970012523e-016 0 1 0 I I #
coedge $-1 -1 $-1 $290 $441 $189 $309 reversed $423 $-1 #
edge $-1 -1 $-1 $193 -4.4408920985006262e-016 $442 5.5499000000000009 $308 $443 forward @7 unknown #
edge $-1 -1 $-1 $192 3.2643704062217731 $442 6.3499999999999996 $190 $444 forward @7 unknown #
point $-1 -1 $-1 3.2643704062217731 2.3748999999999998 -5.5499000000000009 #
point $-1 -1 $-1 6.3499999999999996 2.3748999999999998 4.4408920985006262e-016 #
model_id-kcp-attrib $-1 -1 $-1 $-1 $195 1 1021401041 1021401041 -2100166654 5 #
face $-1 -1 $-1 $-1 $210 $24 $-1 $445 reversed single #
loop $-1 -1 $-1 $-1 $330 $195 #
plane-surface $-1 -1 $-1 0 2.3748999999999998 0 0 -1 0 0 0 -1 forward_v I I I I #
coedge $-1 -1 $-1 $446 $328 $331 $447 forward $196 $-1 #
coedge $-1 -1 $-1 $334 $198 $199 $322 reversed $118 $-1 #
coedge $-1 -1 $-1 $328 $446 $198 $320 reversed $196 $-1 #
edge $-1 -1 $-1 $335 -5.5499000000000009 $448 5.5499000000000009 $319 $449 forward @7 unknown #
coedge $-1 -1 $-1 $200 $199 $446 $450 forward $74 $-1 #
edge $-1 -1 $-1 $326 -6.3499999999999996 $448 6.3499999999999996 $318 $451 forward @7 unknown #
coedge $-1 -1 $-1 $331 $330 $200 $324 reversed $315 $-1 #
edge $-1 -1 $-1 $452 -6.3499999999999996 $325 6.3499999999999996 $323 $453 forward @7 unknown #
vertex $-1 -1 $-1 $202 $454 #
vertex $-1 -1 $-1 $337 $455 #
straight-curve $-1 -1 $-1 6.3499999999999996 0 -5.5499000000000009 0 -1 0 I I #
coedge $-1 -1 $-1 $317 $319 $203 $329 reversed $196 $-1 #
edge $-1 -1 $-1 $332 -2.3748999999999998 $335 2.3748999999999998 $328 $456 forward @7 unknown #
coedge $-1 -1 $-1 $323 $204 $209 $338 forward $315 $-1 #
coedge $-1 -1 $-1 $204 $323 $317 $447 reversed $315 $-1 #
vertex $-1 -1 $-1 $205 $457 #
straight-curve $-1 -1 $-1 0 2.3748999999999998 5.5499000000000009 -1 0 0 I I #
coedge $-1 -1 $-1 $206 $318 $208 $337 reversed $118 $-1 #
vertex $-1 -1 $-1 $329 $458 #
straight-curve $-1 -1 $-1 0 -2.3748999999999998 5.5499000000000009 1 0 0 I I #
edge $-1 -1 $-1 $211 -5.5499000000000009 $326 5.5499000000000009 $208 $459 forward @7 unknown #
edge $-1 -1 $-1 $212 -5.5499000000000009 $325 5.5499000000000009 $209 $460 forward @7 unknown #
point $-1 -1 $-1 6.3499999999999996 -2.3748999999999998 5.5499000000000009 #
point $-1 -1 $-1 6.3499999999999996 2.3748999999999998 5.5499000000000009 #
model_id-kcp-attrib $-1 -1 $-1 $-1 $215 1 1021401041 1021401041 -2100166655 8 #
face $461 -1 $-1 $242 $228 $8 $-1 $462 forward single #
plane-surface $-1 -1 $-1 6.3499999999999996 0 0 0.87400000000000022 0 -0.48592592028003578 -12.342518375112908 0 -22.199600000000004 forward_v I I I I #
coedge $-1 -1 $-1 $220 $218 $463 $464 reversed $127 $-1 #
edge $-1 -1 $-1 $251 0 $465 0.187 $218 $466 forward @7 unknown #
coedge $-1 -1 $-1 $463 $222 $219 $347 forward $228 $-1 #
edge $467 -1 $-1 $225 0 $349 0.24999999999999997 $346 $468 forward @7 unknown #
attrib_edge_convexity-kcp-attrib $-1 -1 $469 $-1 $221 1 #
vertex $-1 -1 $-1 $464 $470 #
straight-curve $-1 -1 $-1 -3.2643704062217704 0 5.5499000000000001 0 25.399999999999999 0 I I #
attrib_edge_convexity-kcp-attrib $-1 -1 $471 $-1 $223 1 #
straight-curve $-1 -1 $-1 -3.2643704062217704 4.7497999999999996 -5.5499000000000001 -12.342518375112917 0 22.1996 I I #
convexity-sys-attrib $-1 -1 $-1 $224 $132 #
point $-1 -1 $-1 -6.3499999999999996 4.7497999999999996 0 #
coedge $-1 -1 $-1 $227 $463 $373 $472 forward $228 $-1 #
edge $-1 -1 $-1 $376 0 $230 0.25 $227 $473 forward @7 unknown #
loop $-1 -1 $-1 $-1 $363 $342 #
attrib_edge_convexity-kcp-attrib $-1 -1 $474 $229 $134 1 #
point $-1 -1 $-1 3.2643704062217731 4.7497999999999996 -5.5499000000000001 #
coedge $-1 -1 $-1 $235 $234 $475 $476 reversed $236 $-1 #
face $477 -1 $-1 $-1 $236 $8 $-1 $478 reversed single #
convexity-sys-attrib $-1 -1 $-1 $237 $139 #
coedge $-1 -1 $-1 $475 $475 $239 $364 forward $357 $-1 #
edge $-1 -1 $-1 $367 0 $365 3.1415926535897931 $363 $479 forward @7 unknown #
vertex $-1 -1 $-1 $476 $480 #
straight-curve $-1 -1 $-1 3.1749999999999998 4.7497999999999996 0 0 -25.399999999999999 0 I I #
vertex $-1 -1 $-1 $476 $481 #
straight-curve $-1 -1 $-1 -3.1749999999999998 4.7497999999999996 3.8881251733860477e-016 0 -25.399999999999999 0 I I #
model_id-kcp-attrib $-1 -1 $-1 $-1 $242 1 1021401041 1021401041 -2100166655 10 #
cone-surface $-1 -1 $-1 0 4.7497999999999996 0 0 -1 0 3.1749999999999998 0 0 1 I I 0 1 3.1749999999999998 forward I I I I #
attrib_edge_convexity-kcp-attrib $-1 -1 $482 $-1 $247 1 #
straight-curve $-1 -1 $-1 -3.2643704062217704 0 5.5499000000000001 25.399999999999999 0 0 I I #
coedge $-1 -1 $-1 $249 $248 $355 $472 reversed $216 $-1 #
convexity-sys-attrib $-1 -1 $-1 $250 $149 #
point $-1 -1 $-1 3.2643704062217731 0 5.5499000000000001 #
vertex $-1 -1 $-1 $356 $483 #
straight-curve $-1 -1 $-1 6.3499999999999996 0 -7.0499162063697436e-016 0 25.399999999999999 0 I I #
convexity-sys-attrib $-1 -1 $-1 $257 $157 #
point $-1 -1 $-1 -3.2643704062217704 0 5.5499000000000001 #
convexity-sys-attrib $-1 -1 $-1 $262 $161 #
point $-1 -1 $-1 3.1749999999999998 0 0 #
face $-1 -1 $-1 $484 $402 $30 $-1 $179 reversed single #
coedge $-1 -1 $-1 $390 $408 $392 $485 forward $268 $-1 #
coedge $-1 -1 $-1 $269 $277 $486 $487 reversed $170 $-1 #
coedge $-1 -1 $-1 $488 $412 $269 $386 reversed $489 $-1 #
edge $-1 -1 $-1 $490 -1.6321852031108848 $283 4.7178147968891153 $269 $491 forward @7 unknown #
coedge $-1 -1 $-1 $271 $270 $407 $492 forward $105 $-1 #
coedge $-1 -1 $-1 $493 $410 $270 $389 reversed $494 $-1 #
edge $-1 -1 $-1 $396 3.26437040622177 $495 6.3499999999999996 $388 $496 forward @7 unknown #
coedge $-1 -1 $-1 $408 $383 $271 $391 reversed $268 $-1 #
edge $-1 -1 $-1 $497 -6.3499999999999996 $395 -3.26437040622177 $390 $498 forward @7 unknown #
coedge $-1 -1 $-1 $281 $272 $383 $485 reversed $394 $-1 #
coedge $-1 -1 $-1 $272 $281 $493 $499 reversed $394 $-1 #
loop $-1 -1 $-1 $-1 $393 $500 #
vertex $-1 -1 $-1 $273 $501 #
vertex $-1 -1 $-1 $389 $502 #
straight-curve $-1 -1 $-1 -3.2643704062217695 -1.1874499999999999 5.5499000000000009 0 1 0 I I #
coedge $-1 -1 $-1 $503 $486 $274 $399 forward $504 $-1 #
edge $-1 -1 $-1 $405 -2.3748999999999998 $403 2.3748999999999998 $274 $505 forward @7 unknown #
coedge $-1 -1 $-1 $401 $275 $506 $507 forward $402 $-1 #
coedge $-1 -1 $-1 $275 $400 $503 $508 reversed $402 $-1 #
loop $-1 -1 $-1 $-1 $400 $382 #
vertex $-1 -1 $-1 $508 $509 #
straight-curve $-1 -1 $-1 -6.3499999999999996 2.3748999999999998 0 0 0 -1 I I #
vertex $-1 -1 $-1 $399 $510 #
straight-curve $-1 -1 $-1 -6.3499999999999996 -2.3748999999999998 0 0 0 -1 I I #
coedge $-1 -1 $-1 $280 $279 $387 $492 reversed $282 $-1 #
coedge $-1 -1 $-1 $383 $390 $279 $409 forward $268 $-1 #
edge $-1 -1 $-1 $497 -5.5499000000000009 $283 0 $279 $406 forward @7 unknown #
coedge $-1 -1 $-1 $388 $493 $280 $411 reversed $494 $-1 #
edge $-1 -1 $-1 $495 -5.5499000000000009 $284 9.1390311015748381e-016 $410 $404 forward @7 unknown #
coedge $-1 -1 $-1 $385 $506 $107 $176 reversed $489 $-1 #
point $-1 -1 $-1 -6.3499999999999996 -2.3748999999999998 0 #
point $-1 -1 $-1 -6.3499999999999996 2.3748999999999998 -9.1390311015748381e-016 #
face $-1 -1 $-1 $439 $426 $23 $-1 $106 forward single #
coedge $-1 -1 $-1 $417 $287 $425 $511 reversed $178 $-1 #
coedge $-1 -1 $-1 $287 $416 $288 $420 forward $178 $-1 #
edge $-1 -1 $-1 $193 -4.7178147968891126 $427 1.6321852031108863 $287 $512 forward @7 unknown #
coedge $-1 -1 $-1 $289 $288 $513 $514 reversed $109 $-1 #
edge $-1 -1 $-1 $515 -5.5499000000000009 $193 -4.4408920985006262e-016 $288 $443 forward @7 unknown #
edge $-1 -1 $-1 $516 -5.5499000000000009 $298 -4.4408920985006262e-016 $289 $517 forward @7 unknown #
coedge $-1 -1 $-1 $441 $290 $434 $431 forward $423 $-1 #
loop $-1 -1 $-1 $-1 $290 $518 #
coedge $-1 -1 $-1 $513 $292 $295 $429 forward $426 $-1 #
coedge $-1 -1 $-1 $292 $513 $416 $511 forward $426 $-1 #
loop $-1 -1 $-1 $-1 $292 $415 #
vertex $-1 -1 $-1 $418 $519 #
straight-curve $-1 -1 $-1 3.2643704062217735 -1.1874499999999999 5.5499000000000009 0 -1 0 I I #
edge $-1 -1 $-1 $297 3.2643704062217731 $516 6.3499999999999996 $295 $498 forward @7 unknown #
point $-1 -1 $-1 3.2643704062217731 -2.3748999999999998 5.5499000000000009 #
edge $-1 -1 $-1 $298 -4.4408920985006262e-016 $520 5.5499000000000009 $422 $517 forward @7 unknown #
point $-1 -1 $-1 6.3499999999999996 -2.3748999999999998 4.4408920985006262e-016 #
coedge $-1 -1 $-1 $434 $300 $303 $438 reversed $435 $-1 #
coedge $-1 -1 $-1 $300 $433 $422 $431 reversed $435 $-1 #
loop $-1 -1 $-1 $-1 $300 $521 #
straight-curve $-1 -1 $-1 5.6003063000000015 -2.3748999999999998 -1.3484201324810852 -0.48592592028003573 0 -0.87400000000000022 I I #
coedge $-1 -1 $-1 $303 $302 $441 $522 forward $304 $-1 #
edge $-1 -1 $-1 $520 -6.3499999999999996 $305 -3.2643704062217731 $433 $523 forward @7 unknown #
face $-1 -1 $-1 $521 $304 $23 $-1 $524 reversed single #
point $-1 -1 $-1 3.2643704062217731 -2.3748999999999998 -5.5499000000000009 #
coedge $-1 -1 $-1 $308 $422 $437 $522 reversed $423 $-1 #
vertex $-1 -1 $-1 $522 $525 #
straight-curve $-1 -1 $-1 6.3499999999999996 2.3748999999999998 0 0 0 -1 I I #
straight-curve $-1 -1 $-1 0 2.3748999999999998 -5.5499000000000009 1 0 0 I I #
plane-surface $-1 -1 $-1 6.3499999999999996 0 0 -1 0 0 0 0 1 forward_v I I I I #
coedge $-1 -1 $-1 $319 $317 $321 $450 reversed $196 $-1 #
edge $-1 -1 $-1 $332 -5.5499000000000009 $452 5.5499000000000009 $331 $526 forward @7 unknown #
vertex $-1 -1 $-1 $450 $527 #
straight-curve $-1 -1 $-1 -6.3499999999999996 -2.3748999999999998 0 0 0 -1 I I #
edge $-1 -1 $-1 $448 -2.3748999999999998 $452 2.3748999999999998 $446 $528 forward @7 unknown #
straight-curve $-1 -1 $-1 0 -2.3748999999999998 -5.5499000000000009 -1 0 0 I I #
vertex $-1 -1 $-1 $324 $529 #
straight-curve $-1 -1 $-1 0 2.3748999999999998 -5.5499000000000009 1 0 0 I I #
point $-1 -1 $-1 6.3499999999999996 2.3748999999999998 -5.5499000000000009 #
point $-1 -1 $-1 6.3499999999999996 -2.3748999999999998 -5.5499000000000009 #
straight-curve $-1 -1 $-1 -6.3499999999999996 0 5.5499000000000009 0 -1 0 I I #
point $-1 -1 $-1 -6.3499999999999996 2.3748999999999998 5.5499000000000009 #
point $-1 -1 $-1 -6.3499999999999996 -2.3748999999999998 5.5499000000000009 #
straight-curve $-1 -1 $-1 6.3499999999999996 -2.3748999999999998 0 0 0 -1 I I #
straight-curve $-1 -1 $-1 6.3499999999999996 2.3748999999999998 0 0 0 -1 I I #
model_id-kcp-attrib $-1 -1 $-1 $-1 $342 1 1021401041 1021401041 -2100166655 9 #
plane-surface $-1 -1 $-1 0 4.7497999999999996 0 0 1 0 25.399999999999999 0 0 forward_v I I I I #
coedge $-1 -1 $-1 $355 $346 $344 $464 forward $228 $-1 #
edge $530 -1 $-1 $349 0 $465 0.25703703985998205 $463 $531 forward @7 unknown #
vertex $-1 -1 $-1 $472 $532 #
straight-curve $-1 -1 $-1 3.2643704062217731 0 5.5499000000000001 0 25.399999999999999 0 I I #
attrib_edge_convexity-kcp-attrib $-1 -1 $533 $-1 $347 1 #
straight-curve $-1 -1 $-1 -6.3499999999999996 4.7497999999999996 0 12.342518375112917 0 22.1996 I I #
convexity-sys-attrib $-1 -1 $-1 $348 $221 #
point $-1 -1 $-1 -3.2643704062217704 4.7497999999999996 5.5499000000000001 #
convexity-sys-attrib $-1 -1 $-1 $351 $223 #
edge $-1 -1 $-1 $465 0 $376 0.25 $355 $534 forward @7 unknown #
straight-curve $-1 -1 $-1 6.3499999999999996 4.7497999999999996 0 -12.342518375112906 0 -22.199600000000004 I I #
convexity-sys-attrib $-1 -1 $-1 $358 $134 #
coedge $-1 -1 $-1 $363 $363 $360 $476 forward $357 $-1 #
edge $-1 -1 $-1 $365 0 $367 3.1415926535897931 $475 $535 forward @7 unknown #
model_id-kcp-attrib $-1 -1 $-1 $-1 $361 1 1021401041 1021401041 -2100166655 11 #
cone-surface $-1 -1 $-1 0 4.7497999999999996 0 0 -1 0 3.1749999999999998 0 0 1 I I 0 1 3.1749999999999998 forward I I I I #
ellipse-curve $-1 -1 $-1 0 4.7497999999999996 0 0 -1 0 -3.1749999999999998 0 0 1 I I #
point $-1 -1 $-1 3.1749999999999998 4.7497999999999996 0 #
point $-1 -1 $-1 -3.1749999999999998 4.7497999999999996 0 #
convexity-sys-attrib $-1 -1 $-1 $371 $247 #
point $-1 -1 $-1 6.3499999999999996 4.7497999999999996 0 #
face $-1 -1 $-1 $536 $494 $30 $-1 $179 reversed single #
edge $-1 -1 $-1 $283 -1.5428147968891146 $395 4.8071852031108859 $383 $537 forward @7 unknown #
coedge $-1 -1 $-1 $398 $538 $384 $487 forward $504 $-1 #
edge $-1 -1 $-1 $490 3.2643704062217704 $405 6.3499999999999996 $384 $523 forward @7 unknown #
coedge $-1 -1 $-1 $506 $385 $538 $539 reversed $489 $-1 #
loop $-1 -1 $-1 $-1 $506 $540 #
vertex $-1 -1 $-1 $487 $541 #
straight-curve $-1 -1 $-1 -4.0574915031108851 -2.3748999999999998 -4.1233701324810861 -0.48592592028003617 0 0.874 I I #
edge $-1 -1 $-1 $495 -2.3748999999999998 $497 2.3748999999999998 $407 $542 forward @7 unknown #
coedge $-1 -1 $-1 $410 $388 $393 $499 forward $494 $-1 #
loop $-1 -1 $-1 $-1 $493 $484 #
vertex $-1 -1 $-1 $389 $543 #
straight-curve $-1 -1 $-1 0 2.3748999999999998 5.5499000000000009 -1 0 0 I I #
vertex $-1 -1 $-1 $492 $544 #
straight-curve $-1 -1 $-1 0 -2.3748999999999998 5.5499000000000009 1 0 0 I I #
edge $-1 -1 $-1 $396 -4.8071852031108859 $284 1.5428147968891155 $493 $545 forward @7 unknown #
face $-1 -1 $-1 $540 $394 $30 $-1 $546 reversed single #
point $-1 -1 $-1 -3.26437040622177 -2.3748999999999998 5.5499000000000009 #
point $-1 -1 $-1 -3.26437040622177 2.3748999999999998 5.5499000000000009 #
coedge $-1 -1 $-1 $538 $398 $401 $508 forward $504 $-1 #
loop $-1 -1 $-1 $-1 $538 $536 #
straight-curve $-1 -1 $-1 -6.3499999999999996 0 -5.5499000000000009 0 1 0 I I #
coedge $-1 -1 $-1 $412 $488 $400 $507 reversed $489 $-1 #
edge $-1 -1 $-1 $284 -4.7178147968891135 $547 1.6321852031108848 $400 $548 forward @7 unknown #
edge $-1 -1 $-1 $403 -6.3499999999999996 $547 -3.2643704062217704 $401 $444 forward @7 unknown #
point $-1 -1 $-1 -6.3499999999999996 2.3748999999999998 -5.5499000000000009 #
point $-1 -1 $-1 -6.3499999999999996 -2.3748999999999998 -5.5499000000000009 #
edge $-1 -1 $-1 $515 -6.3499999999999996 $427 -3.2643704062217731 $416 $496 forward @7 unknown #
straight-curve $-1 -1 $-1 4.0574915031108878 2.3748999999999998 4.1233701324810861 -0.48592592028003573 0 0.87400000000000022 I I #
coedge $-1 -1 $-1 $425 $424 $419 $514 forward $426 $-1 #
edge $-1 -1 $-1 $516 -2.3748999999999998 $515 2.3748999999999998 $419 $549 forward @7 unknown #
vertex $-1 -1 $-1 $514 $550 #
vertex $-1 -1 $-1 $514 $551 #
straight-curve $-1 -1 $-1 6.3499999999999996 -2.3748999999999998 0 0 0 -1 I I #
face $-1 -1 $-1 $-1 $423 $23 $-1 $110 reversed single #
point $-1 -1 $-1 3.2643704062217731 2.3748999999999998 5.5499000000000009 #
vertex $-1 -1 $-1 $431 $552 #
face $-1 -1 $-1 $518 $435 $23 $-1 $171 reversed single #
edge $-1 -1 $-1 $442 -2.3748999999999998 $520 2.3748999999999998 $441 $553 forward @7 unknown #
straight-curve $-1 -1 $-1 0 -2.3748999999999998 -5.5499000000000009 -1 0 0 I I #
plane-surface $-1 -1 $-1 0 0 -5.5499000000000009 0 0 1 1 0 0 forward_v I I I I #
point $-1 -1 $-1 6.3499999999999996 2.3748999999999998 -5.5499000000000009 #
straight-curve $-1 -1 $-1 -6.3499999999999996 2.3748999999999998 0 0 0 -1 I I #
point $-1 -1 $-1 -6.3499999999999996 -2.3748999999999998 -5.5499000000000009 #
straight-curve $-1 -1 $-1 -6.3499999999999996 0 -5.5499000000000009 0 1 0 I I #
point $-1 -1 $-1 -6.3499999999999996 2.3748999999999998 -5.5499000000000009 #
model_id-kcp-attrib $-1 -1 $-1 $-1 $464 1 1021401041 1021401041 -2100166655 13 #
straight-curve $-1 -1 $-1 -3.2643704062217704 4.7497999999999996 5.5499000000000001 25.399999999999999 0 0 I I #
point $-1 -1 $-1 3.2643704062217731 4.7497999999999996 5.5499000000000001 #
convexity-sys-attrib $-1 -1 $-1 $467 $347 #
straight-curve $-1 -1 $-1 3.2643704062217731 4.7497999999999996 5.5499000000000001 12.342518375112906 0 -22.199600000000004 I I #
ellipse-curve $-1 -1 $-1 0 4.7497999999999996 0 0 -1 0 3.1749999999999998 0 0 1 I I #
face $-1 -1 $-1 $500 $504 $30 $-1 $524 reversed single #
straight-curve $-1 -1 $-1 -5.6003062999999997 -2.3748999999999998 1.3484201324810863 0.48592592028003612 0 0.874 I I #
coedge $-1 -1 $-1 $486 $503 $488 $539 forward $504 $-1 #
edge $-1 -1 $-1 $547 -3.5623499999999995 $490 1.1874499999999999 $538 $554 forward @7 unknown #
face $-1 -1 $-1 $-1 $489 $30 $-1 $555 reversed single #
point $-1 -1 $-1 -3.2643704062217704 -2.3748999999999998 -5.5498999999999992 #
straight-curve $-1 -1 $-1 -6.3499999999999996 0 5.5499000000000009 0 -1 0 I I #
point $-1 -1 $-1 -6.3499999999999996 2.3748999999999998 5.5499000000000009 #
point $-1 -1 $-1 -6.3499999999999996 -2.3748999999999998 5.5499000000000009 #
straight-curve $-1 -1 $-1 -5.6003062999999997 2.3748999999999998 1.3484201324810863 -0.48592592028003612 0 -0.874 I I #
plane-surface $-1 -1 $-1 -6.3499999999999996 -2.3748999999999998 0 -0.874 0 0.48592592028003612 0 -1 0 forward_v I I I I #
vertex $-1 -1 $-1 $507 $556 #
straight-curve $-1 -1 $-1 -4.0574915031108851 2.3748999999999998 -4.1233701324810861 0.48592592028003617 0 -0.874 I I #
straight-curve $-1 -1 $-1 6.3499999999999996 0 5.5499000000000009 0 1 0 I I #
point $-1 -1 $-1 6.3499999999999996 2.3748999999999998 5.5499000000000009 #
point $-1 -1 $-1 6.3499999999999996 -2.3748999999999998 5.5499000000000009 #
point $-1 -1 $-1 6.3499999999999996 -2.3748999999999998 -5.5499000000000009 #
straight-curve $-1 -1 $-1 6.3499999999999996 0 -5.5499000000000009 0 -1 0 I I #
straight-curve $-1 -1 $-1 -3.26437040622177 -1.1874499999999999 -5.5499000000000009 0 -1 0 I I #
plane-surface $-1 -1 $-1 -3.2643704062217704 -2.3748999999999998 -5.5498999999999992 -0.874 0 -0.48592592028003617 0 -1 0 forward_v I I I I #
point $-1 -1 $-1 -3.2643704062217704 2.3748999999999998 -5.5498999999999992 #
End-of-ACIS-data 