600 0 1 0           
106 GICL ACIS Healer - Source: /gicl/data5/repository/NIST/Manfred_Osti/spectrometer/nut_244/nut_244.sat - 6 0 18 ACIS 6.0.3 Solaris 24 Sun Apr 14 00:37:47 2002 
1 9.999999999999999547e-07 1.000000000000000036e-10 
body $-1 $1 $-1 $-1 #
lump $-1 $-1 $2 $0 #
shell $-1 $-1 $-1 $3 $-1 $1 #
face $-1 $4 $5 $2 $-1 $6 reversed single #
face $-1 $7 $8 $2 $-1 $9 forward single #
loop $-1 $10 $11 $3 #
plane-surface $-1 0 0 0 0 1 0 0 0 1 forward_v I I I I #
face $-1 $12 $13 $2 $-1 $14 forward single #
loop $-1 $15 $16 $4 #
plane-surface $-1 0 0.1869999999999999996 0 0 1 0 0 0 1 forward_v I I I I #
loop $-1 $-1 $17 $3 #
coedge $-1 $18 $19 $20 $21 forward $5 $-1 #
face $-1 $22 $23 $2 $-1 $24 forward single #
loop $-1 $-1 $20 $7 #
plane-surface $-1 -0.1285185199299909986 0 -0.2184999999999999998 -0.8740000000000001101 0 -0.4859259202800360611 -0.4859259202800360056 0 0.8739999999999999991 forward_v I I I I #
loop $-1 $-1 $25 $4 #
coedge $-1 $26 $27 $28 $29 reversed $8 $-1 #
coedge $-1 $17 $17 $30 $31 forward $10 $-1 #
coedge $-1 $32 $11 $33 $34 forward $5 $-1 #
coedge $-1 $11 $35 $36 $37 forward $5 $-1 #
coedge $-1 $38 $39 $11 $21 reversed $13 $-1 #
edge $-1 $40 -0.2500000000000000555 $41 0 $20 $42 forward 7 unknown #
face $-1 $43 $44 $2 $-1 $45 forward single #
loop $-1 $-1 $36 $12 #
plane-surface $-1 -0.25 0 0 -0.8740000000000001101 0 0.4859259202800360611 0.4859259202800360056 0 0.8739999999999999991 forward_v I I I I #
coedge $-1 $25 $25 $46 $47 reversed $15 $-1 #
coedge $-1 $48 $16 $49 $50 reversed $8 $-1 #
coedge $-1 $16 $51 $52 $53 reversed $8 $-1 #
coedge $-1 $39 $38 $16 $29 forward $13 $-1 #
edge $-1 $54 -0.2500000000000000555 $55 0 $28 $56 forward 7 unknown #
coedge $-1 $30 $30 $17 $31 reversed $57 $-1 #
edge $-1 $58 -3.141592653589793116 $58 3.141592653589793116 $30 $59 forward 7 unknown #
coedge $-1 $60 $18 $61 $62 forward $5 $-1 #
coedge $-1 $63 $64 $18 $34 reversed $65 $-1 #
edge $-1 $41 -0.2570370398599819972 $66 0 $33 $67 forward 7 unknown #
coedge $-1 $19 $60 $68 $69 forward $5 $-1 #
coedge $-1 $70 $71 $19 $37 reversed $23 $-1 #
edge $-1 $72 -0.2500000000000000555 $40 0 $36 $73 forward 7 unknown #
coedge $-1 $28 $20 $71 $74 reversed $13 $-1 #
coedge $-1 $20 $28 $63 $75 forward $13 $-1 #
vertex $-1 $74 $76 #
vertex $-1 $75 $77 #
straight-curve $-1 -0.1285185199299909986 0 -0.2184999999999999998 0.4859259202800360056 0 -0.8739999999999999991 I I #
face $-1 $78 $79 $2 $-1 $80 forward single #
loop $-1 $-1 $68 $22 #
plane-surface $-1 -0.1285185199299909986 0 0.2184999999999999998 0 0 1 1 0 0 forward_v I I I I #
coedge $-1 $46 $46 $25 $47 forward $81 $-1 #
edge $-1 $82 0 $82 6.283185307179586232 $46 $83 forward 7 unknown #
coedge $-1 $84 $26 $85 $86 reversed $8 $-1 #
coedge $-1 $71 $70 $26 $50 forward $23 $-1 #
edge $-1 $87 -0.2500000000000000555 $54 0 $49 $88 forward 7 unknown #
coedge $-1 $27 $84 $89 $90 reversed $8 $-1 #
coedge $-1 $64 $63 $27 $53 forward $65 $-1 #
edge $-1 $55 -0.2570370398599819972 $91 0 $52 $92 forward 7 unknown #
vertex $-1 $74 $93 #
vertex $-1 $75 $94 #
straight-curve $-1 -0.1285185199299909986 0.1869999999999999996 -0.2184999999999999998 0.4859259202800360056 0 -0.8739999999999999991 I I #
loop $-1 $-1 $30 $95 #
vertex $-1 $31 $96 #
ellipse-curve $-1 0 0 0 0 1 0 -0.125 0 0 1 I I #
coedge $-1 $35 $32 $97 $98 forward $5 $-1 #
coedge $-1 $99 $100 $32 $62 reversed $101 $-1 #
edge $-1 $66 -0.2500000000000000555 $102 0 $61 $103 forward 7 unknown #
coedge $-1 $52 $33 $39 $75 reversed $65 $-1 #
coedge $-1 $33 $52 $99 $104 forward $65 $-1 #
loop $-1 $-1 $33 $105 #
vertex $-1 $104 $106 #
straight-curve $-1 0.1285185199299909986 0 -0.2184999999999999998 1 0 0 I I #
coedge $-1 $107 $108 $35 $69 reversed $44 $-1 #
edge $-1 $109 -0.2570370398599819972 $72 0 $68 $110 forward 7 unknown #
coedge $-1 $49 $36 $108 $111 reversed $23 $-1 #
coedge $-1 $36 $49 $38 $74 forward $23 $-1 #
vertex $-1 $111 $112 #
straight-curve $-1 -0.25 0 0 -0.4859259202800360056 0 -0.8739999999999999991 I I #
edge $-1 $54 -0.1869999999999999996 $40 0 $71 $113 forward 7 unknown #
edge $-1 $55 -0.1869999999999999996 $41 0 $63 $114 forward 7 unknown #
point $-1 -0.25 0 0 #
point $-1 -0.1285185199299909986 0 -0.2184999999999999998 #
face $-1 $105 $101 $2 $-1 $115 forward single #
loop $-1 $-1 $97 $43 #
plane-surface $-1 0.1285185199299909986 0 0.2184999999999999998 0.8740000000000001101 0 0.4859259202800360611 0.4859259202800360056 0 -0.8739999999999999991 forward_v I I I I #
loop $-1 $57 $46 $95 #
vertex $-1 $47 $116 #
ellipse-curve $-1 0 0.1869999999999999996 0 0 1 0 0.125 0 0 1 I I #
coedge $-1 $51 $48 $117 $118 reversed $8 $-1 #
coedge $-1 $108 $107 $48 $86 forward $44 $-1 #
edge $-1 $119 -0.2570370398599819972 $87 0 $85 $120 forward 7 unknown #
vertex $-1 $111 $121 #
straight-curve $-1 -0.25 0.1869999999999999996 0 -0.4859259202800360056 0 -0.8739999999999999991 I I #
coedge $-1 $100 $99 $51 $90 forward $101 $-1 #
edge $-1 $91 -0.2500000000000000555 $122 0 $89 $123 forward 7 unknown #
vertex $-1 $104 $124 #
straight-curve $-1 0.1285185199299909986 0.1869999999999999996 -0.2184999999999999998 1 0 0 I I #
point $-1 -0.25 0.1869999999999999996 0 #
point $-1 -0.1285185199299909986 0.1869999999999999996 -0.2184999999999999998 #
face $-1 $-1 $81 $2 $-1 $125 reversed single #
point $-1 0.125 0 0 #
coedge $-1 $126 $127 $60 $98 reversed $79 $-1 #
edge $-1 $102 -0.2500000000000000555 $109 0 $97 $128 forward 7 unknown #
coedge $-1 $89 $61 $64 $104 reversed $101 $-1 #
coedge $-1 $61 $89 $126 $129 forward $101 $-1 #
loop $-1 $-1 $61 $78 #
vertex $-1 $129 $130 #
straight-curve $-1 0.25 0 0 0.4859259202800360056 0 0.8739999999999999991 I I #
edge $-1 $91 -0.1869999999999999996 $66 0 $64 $131 forward 7 unknown #
face $-1 $95 $65 $2 $-1 $132 forward single #
point $-1 0.1285185199299909986 0 -0.2184999999999999998 #
coedge $-1 $85 $68 $127 $133 reversed $44 $-1 #
coedge $-1 $68 $85 $70 $111 forward $44 $-1 #
vertex $-1 $133 $134 #
straight-curve $-1 -0.1285185199299909986 0 0.2184999999999999998 -1 0 0 I I #
edge $-1 $87 -0.1869999999999999996 $72 0 $108 $135 forward 7 unknown #
point $-1 -0.1285185199299909986 0 0.2184999999999999998 #
straight-curve $-1 -0.25 0 0 0 -1 0 I I #
straight-curve $-1 -0.1285185199299909986 0 -0.2184999999999999998 0 -1 0 I I #
plane-surface $-1 0.25 0 0 0.8740000000000001101 0 -0.4859259202800360611 -0.4859259202800360056 0 -0.8739999999999999991 forward_v I I I I #
point $-1 0.125 0.1869999999999999996 0 #
coedge $-1 $127 $126 $84 $118 forward $79 $-1 #
edge $-1 $122 -0.2500000000000000555 $119 0 $117 $136 forward 7 unknown #
vertex $-1 $133 $137 #
straight-curve $-1 -0.1285185199299909986 0.1869999999999999996 0.2184999999999999998 -1 0 0 I I #
point $-1 -0.1285185199299909986 0.1869999999999999996 0.2184999999999999998 #
vertex $-1 $129 $138 #
straight-curve $-1 0.25 0.1869999999999999996 0 0.4859259202800360056 0 0.8739999999999999991 I I #
point $-1 0.1285185199299909986 0.1869999999999999996 -0.2184999999999999998 #
cone-surface $-1 0 0.1869999999999999996 0 0 -1 0 0.125 0 0 1 I I 0 1 0.125 forward I I I I #
coedge $-1 $117 $97 $100 $129 reversed $79 $-1 #
coedge $-1 $97 $117 $107 $133 forward $79 $-1 #
straight-curve $-1 0.1285185199299909986 0 0.2184999999999999998 -0.4859259202800360056 0 0.8739999999999999991 I I #
edge $-1 $122 -0.1869999999999999996 $102 0 $100 $139 forward 7 unknown #
point $-1 0.25 0 0 #
straight-curve $-1 0.1285185199299909986 0 -0.2184999999999999998 0 -1 0 I I #
plane-surface $-1 0.1285185199299909986 0 -0.2184999999999999998 0 0 -1 -1 0 0 forward_v I I I I #
edge $-1 $119 -0.1869999999999999996 $109 0 $127 $140 forward 7 unknown #
point $-1 0.1285185199299909986 0 0.2184999999999999998 #
straight-curve $-1 -0.1285185199299909986 0 0.2184999999999999998 0 -1 0 I I #
straight-curve $-1 0.1285185199299909986 0.1869999999999999996 0.2184999999999999998 -0.4859259202800360056 0 0.8739999999999999991 I I #
point $-1 0.1285185199299909986 0.1869999999999999996 0.2184999999999999998 #
point $-1 0.25 0.1869999999999999996 0 #
straight-curve $-1 0.25 0 0 0 -1 0 I I #
straight-curve $-1 0.1285185199299909986 0 0.2184999999999999998 0 -1 0 I I #
End-of-ACIS-data 