700 0 2 0           
24 FBMach with ACIS - 7.0.3 13 ACIS 7.0.3 NT 24 Tue May 14 14:30:40 2002 
1 9.9999999999999995e-007 1e-010 
body $2 -1 $-1 $3 $-1 $4 #
bdycol-kcp $-1 -1 1 3 $5 $6 $7 #
model_id-kcp-attrib $-1 -1 $-1 $-1 $0 1 1021401039 1021401039 -332267519 1 #
lump $-1 -1 $-1 $-1 $8 $0 #
transform $-1 -1 1.0000000000000004 0 -5.5511151231257827e-017 0 1 0 5.5511151231257827e-017 0 1.0000000000000004 2.7755575615628914e-017 0 0 1 rotate no_reflect no_shear #
body $9 -1 $-1 $10 $-1 $11 #
body $12 -1 $-1 $13 $-1 $14 #
body $15 -1 $-1 $16 $-1 $17 #
shell $-1 -1 $-1 $-1 $-1 $18 $-1 $3 #
model_id-kcp-attrib $-1 -1 $-1 $-1 $5 1 1021401039 1021401039 -332267518 1 #
lump $-1 -1 $-1 $-1 $19 $5 #
transform $-1 -1 1 0 0 0 1 0 0 0 1 0 0.0935 0 1 no_rotate no_reflect no_shear #
rgb_color-st-attrib $-1 -1 $20 $-1 $6 0.5 1 1 #
lump $-1 -1 $-1 $-1 $21 $6 #
transform $-1 -1 1 0 0 0 -3.8285889215894375e-016 1 0 -1 -3.8285889215894375e-016 0 0.0935 -3.5797306416861241e-017 1 rotate no_reflect no_shear #
rgb_color-st-attrib $-1 -1 $22 $-1 $7 0.5 1 1 #
lump $-1 -1 $-1 $23 $24 $7 #
transform $-1 -1 1 0 0 0 1 0 0 0 1 0 0.0935 0 1 no_rotate no_reflect no_shear #
face $25 -1 $-1 $26 $27 $8 $-1 $28 reversed single #
shell $-1 -1 $-1 $-1 $-1 $29 $-1 $10 #
model_id-kcp-attrib $-1 -1 $-1 $12 $6 1 1021401039 1021401039 -330956797 1 #
shell $-1 -1 $-1 $-1 $-1 $30 $-1 $13 #
model_id-kcp-attrib $-1 -1 $-1 $15 $7 1 1021401039 1021401040 -334364668 1 #
lump $-1 -1 $-1 $-1 $31 $7 #
shell $-1 -1 $-1 $-1 $-1 $32 $-1 $16 #
model_id-kcp-attrib $-1 -1 $-1 $-1 $18 1 1021401039 1021401039 -332267519 2 #
face $33 -1 $-1 $34 $35 $8 $-1 $36 forward single #
loop $-1 -1 $-1 $37 $38 $18 #
plane-surface $-1 -1 $-1 0 0 0 0 1 0 0 0 1 forward_v I I I I #
face $39 -1 $-1 $40 $41 $19 $-1 $42 forward single #
face $-1 -1 $-1 $43 $44 $21 $-1 $45 forward single #
shell $-1 -1 $-1 $-1 $-1 $46 $-1 $23 #
face $-1 -1 $-1 $47 $48 $24 $-1 $49 reversed single #
model_id-kcp-attrib $-1 -1 $-1 $-1 $26 1 1021401039 1021401039 -332267519 3 #
face $50 -1 $-1 $51 $52 $8 $-1 $53 forward single #
loop $-1 -1 $-1 $54 $55 $26 #
plane-surface $-1 -1 $-1 0 0.187 0 0 1 0 0 0 1 forward_v I I I I #
loop $56 -1 $-1 $-1 $57 $18 #
coedge $-1 -1 $-1 $58 $59 $60 $61 forward $27 $-1 #
model_id-kcp-attrib $-1 -1 $-1 $-1 $29 1 1021401039 1021401039 -332267518 4 #
face $62 -1 $-1 $63 $64 $19 $-1 $65 reversed single #
loop $-1 -1 $-1 $-1 $66 $29 #
plane-surface $-1 -1 $-1 0 0 0.21850000000000003 0 0 1 1 0 0 forward_v I I I I #
face $-1 -1 $-1 $67 $68 $21 $-1 $69 forward single #
loop $-1 -1 $-1 $70 $71 $30 #
cone-surface $-1 -1 $-1 0 0 0 0 0 1 0.125 0 0 1 I I 0 1 0.125 forward I I I I #
face $-1 -1 $-1 $72 $73 $31 $-1 $74 reversed single #
face $-1 -1 $-1 $75 $76 $24 $-1 $77 reversed single #
loop $-1 -1 $-1 $-1 $78 $32 #
plane-surface $-1 -1 $-1 0.25 -0.0935 0 0.87400000000000011 0 -0.48592592028003612 0 1 0 forward_v I I I I #
model_id-kcp-attrib $-1 -1 $-1 $-1 $34 1 1021401039 1021401039 -332267519 4 #
face $79 -1 $-1 $80 $81 $8 $-1 $82 forward single #
loop $-1 -1 $-1 $-1 $60 $34 #
plane-surface $-1 -1 $-1 -0.128518519929991 0 -0.2185 -0.87400000000000011 0 -0.48592592028003606 -0.48592592028003601 0 0.874 forward_v I I I I #
loop $83 -1 $-1 $-1 $84 $26 #
coedge $-1 -1 $-1 $85 $86 $87 $88 reversed $35 $-1 #
model_id-kcp-attrib $-1 -1 $-1 $-1 $37 1 1021401039 1021401039 -332267519 18 #
coedge $-1 -1 $-1 $57 $57 $89 $90 forward $37 $-1 #
coedge $-1 -1 $-1 $91 $38 $92 $93 forward $27 $-1 #
coedge $-1 -1 $-1 $38 $94 $95 $96 forward $27 $-1 #
coedge $-1 -1 $-1 $97 $98 $38 $61 reversed $52 $-1 #
edge $99 -1 $-1 $100 -0.25000000000000006 $101 0 $60 $102 forward @7 unknown #
model_id-kcp-attrib $-1 -1 $-1 $-1 $40 1 1021401039 1021401039 -332267518 5 #
face $103 -1 $-1 $104 $105 $19 $-1 $106 reversed single #
loop $-1 -1 $-1 $-1 $107 $40 #
plane-surface $-1 -1 $-1 0 0 -0.21850000000000003 0 0 1 1 0 0 forward_v I I I I #
coedge $-1 -1 $-1 $108 $109 $110 $111 forward $41 $-1 #
face $-1 -1 $-1 $-1 $112 $21 $-1 $113 forward single #
loop $-1 -1 $-1 $-1 $114 $43 #
plane-surface $-1 -1 $-1 0 0 -0.093500000000000055 0 0 -1 -1 0 0 forward_v I I I I #
loop $-1 -1 $-1 $-1 $115 $30 #
coedge $-1 -1 $-1 $71 $71 $114 $116 reversed $44 $-1 #
face $-1 -1 $-1 $117 $118 $31 $-1 $119 forward single #
loop $-1 -1 $-1 $-1 $120 $46 #
plane-surface $-1 -1 $-1 -0.25 0 0 1 0 0 0 0 -1 forward_v I I I I #
face $-1 -1 $-1 $121 $122 $24 $-1 $123 reversed single #
loop $-1 -1 $-1 $-1 $124 $47 #
plane-surface $-1 -1 $-1 0.128518519929991 -0.0935 0.2185 0.87400000000000011 0 0.48592592028003601 0 1 0 forward_v I I I I #
coedge $-1 -1 $-1 $125 $126 $127 $128 reversed $48 $-1 #
model_id-kcp-attrib $-1 -1 $-1 $-1 $51 1 1021401039 1021401039 -332267519 5 #
face $129 -1 $-1 $130 $131 $8 $-1 $132 forward single #
loop $-1 -1 $-1 $-1 $95 $51 #
plane-surface $-1 -1 $-1 -0.25 0 0 -0.87400000000000011 0 0.48592592028003606 0.48592592028003601 0 0.874 forward_v I I I I #
model_id-kcp-attrib $-1 -1 $-1 $-1 $54 1 1021401039 1021401039 -332267519 17 #
coedge $-1 -1 $-1 $84 $84 $133 $134 reversed $54 $-1 #
coedge $-1 -1 $-1 $135 $55 $136 $137 reversed $35 $-1 #
coedge $-1 -1 $-1 $55 $138 $139 $140 reversed $35 $-1 #
coedge $-1 -1 $-1 $98 $97 $55 $88 forward $52 $-1 #
edge $141 -1 $-1 $142 -0.25000000000000006 $143 0 $87 $144 forward @7 unknown #
coedge $-1 -1 $-1 $89 $89 $57 $90 reversed $145 $-1 #
edge $146 -1 $-1 $147 -3.1415926535897931 $147 3.1415926535897931 $89 $148 forward @7 unknown #
coedge $-1 -1 $-1 $149 $58 $150 $151 forward $27 $-1 #
coedge $-1 -1 $-1 $152 $153 $58 $93 reversed $154 $-1 #
edge $155 -1 $-1 $101 -0.257037039859982 $156 0 $92 $157 forward @7 unknown #
coedge $-1 -1 $-1 $59 $149 $158 $159 forward $27 $-1 #
coedge $-1 -1 $-1 $160 $161 $59 $96 reversed $81 $-1 #
edge $162 -1 $-1 $163 -0.25000000000000006 $100 0 $95 $164 forward @7 unknown #
coedge $-1 -1 $-1 $87 $60 $161 $165 reversed $52 $-1 #
coedge $-1 -1 $-1 $60 $87 $152 $166 forward $52 $-1 #
attrib_edge_convexity-kcp-attrib $-1 -1 $167 $-1 $61 1 #
vertex $-1 -1 $-1 $165 $168 #
vertex $-1 -1 $-1 $166 $169 #
straight-curve $-1 -1 $-1 -0.128518519929991 0 -0.2185 0.48592592028003601 0 -0.874 I I #
model_id-kcp-attrib $-1 -1 $-1 $-1 $63 1 1021401039 1021401039 -332267518 2 #
face $-1 -1 $-1 $170 $171 $19 $-1 $172 reversed single #
loop $-1 -1 $-1 $-1 $173 $63 #
plane-surface $-1 -1 $-1 0 -0.0935 0 0 1 0 0 0 1 forward_v I I I I #
coedge $-1 -1 $-1 $174 $175 $176 $177 forward $64 $-1 #
coedge $-1 -1 $-1 $178 $66 $179 $180 forward $41 $-1 #
coedge $-1 -1 $-1 $66 $178 $181 $182 forward $41 $-1 #
coedge $-1 -1 $-1 $183 $184 $66 $111 reversed $185 $-1 #
edge $-1 -1 $-1 $186 -0.0935 $187 0.0935 $110 $188 forward @7 unknown #
loop $-1 -1 $-1 $-1 $189 $67 #
plane-surface $-1 -1 $-1 0 0 0.093500000000000055 0 0 1 1 0 0 forward_v I I I I #
coedge $-1 -1 $-1 $114 $114 $71 $116 forward $68 $-1 #
coedge $-1 -1 $-1 $115 $115 $189 $190 reversed $70 $-1 #
edge $-1 -1 $-1 $191 0 $191 6.2831853071795862 $114 $192 forward @7 unknown #
face $-1 -1 $-1 $193 $194 $31 $-1 $195 reversed single #
loop $-1 -1 $-1 $-1 $196 $72 #
plane-surface $-1 -1 $-1 0 0 0.21850000000000003 0 0 1 1 0 0 forward_v I I I I #
coedge $-1 -1 $-1 $197 $198 $199 $200 forward $73 $-1 #
face $-1 -1 $-1 $201 $202 $24 $-1 $203 reversed single #
loop $-1 -1 $-1 $-1 $204 $75 #
plane-surface $-1 -1 $-1 0.25 0 0 -1 0 0 0 0 1 forward_v I I I I #
coedge $-1 -1 $-1 $205 $206 $207 $208 reversed $76 $-1 #
coedge $-1 -1 $-1 $209 $78 $210 $211 reversed $48 $-1 #
coedge $-1 -1 $-1 $78 $209 $206 $212 forward $48 $-1 #
coedge $-1 -1 $-1 $213 $214 $78 $128 forward $215 $-1 #
edge $-1 -1 $-1 $216 -0.18925925996499554 $217 0.060740740035004515 $127 $218 forward @7 unknown #
model_id-kcp-attrib $-1 -1 $-1 $-1 $80 1 1021401039 1021401039 -332267519 6 #
face $219 -1 $-1 $220 $221 $8 $-1 $222 forward single #
loop $-1 -1 $-1 $-1 $158 $80 #
plane-surface $-1 -1 $-1 -0.128518519929991 0 0.2185 0 0 1 1 0 0 forward_v I I I I #
coedge $-1 -1 $-1 $133 $133 $84 $134 forward $223 $-1 #
edge $224 -1 $-1 $225 0 $225 6.2831853071795862 $133 $226 forward @7 unknown #
coedge $-1 -1 $-1 $227 $85 $228 $229 reversed $35 $-1 #
coedge $-1 -1 $-1 $161 $160 $85 $137 forward $81 $-1 #
edge $230 -1 $-1 $231 -0.25000000000000006 $142 0 $136 $232 forward @7 unknown #
coedge $-1 -1 $-1 $86 $227 $233 $234 reversed $35 $-1 #
coedge $-1 -1 $-1 $153 $152 $86 $140 forward $154 $-1 #
edge $235 -1 $-1 $143 -0.257037039859982 $236 0 $139 $237 forward @7 unknown #
attrib_edge_convexity-kcp-attrib $-1 -1 $238 $-1 $88 1 #
vertex $-1 -1 $-1 $165 $239 #
vertex $-1 -1 $-1 $166 $240 #
straight-curve $-1 -1 $-1 -0.128518519929991 0.187 -0.2185 0.48592592028003601 0 -0.874 I I #
loop $241 -1 $-1 $-1 $89 $242 #
attrib_edge_convexity-kcp-attrib $-1 -1 $243 $-1 $90 1 #
vertex $244 -1 $-1 $90 $245 #
ellipse-curve $-1 -1 $-1 0 0 0 0 1 0 -0.125 0 0 1 I I #
coedge $-1 -1 $-1 $94 $91 $246 $247 forward $27 $-1 #
coedge $-1 -1 $-1 $248 $249 $91 $151 reversed $250 $-1 #
edge $251 -1 $-1 $156 -0.25000000000000006 $252 0 $150 $253 forward @7 unknown #
coedge $-1 -1 $-1 $139 $92 $98 $166 reversed $154 $-1 #
coedge $-1 -1 $-1 $92 $139 $248 $254 forward $154 $-1 #
loop $-1 -1 $-1 $-1 $92 $255 #
attrib_edge_convexity-kcp-attrib $-1 -1 $256 $-1 $93 1 #
vertex $-1 -1 $-1 $254 $257 #
straight-curve $-1 -1 $-1 0.128518519929991 0 -0.2185 1 0 0 I I #
coedge $-1 -1 $-1 $258 $259 $94 $159 reversed $131 $-1 #
edge $260 -1 $-1 $261 -0.257037039859982 $163 0 $158 $262 forward @7 unknown #
coedge $-1 -1 $-1 $136 $95 $259 $263 reversed $81 $-1 #
coedge $-1 -1 $-1 $95 $136 $97 $165 forward $81 $-1 #
attrib_edge_convexity-kcp-attrib $-1 -1 $264 $-1 $96 1 #
vertex $-1 -1 $-1 $263 $265 #
straight-curve $-1 -1 $-1 -0.25 0 0 -0.48592592028003601 0 -0.874 I I #
edge $266 -1 $-1 $142 -0.187 $100 0 $161 $267 forward @7 unknown #
edge $268 -1 $-1 $143 -0.187 $101 0 $152 $269 forward @7 unknown #
convexity-sys-attrib $-1 -1 $-1 $99 $61 #
point $-1 -1 $-1 -0.25 0 0 #
point $-1 -1 $-1 -0.128518519929991 0 -0.2185 #
face $270 -1 $-1 $271 $272 $19 $-1 $273 reversed single #
loop $-1 -1 $-1 $-1 $274 $104 #
plane-surface $-1 -1 $-1 -0.25 0 0 1 0 0 0 0 -1 forward_v I I I I #
coedge $-1 -1 $-1 $275 $181 $276 $277 forward $105 $-1 #
coedge $-1 -1 $-1 $278 $107 $275 $279 forward $64 $-1 #
coedge $-1 -1 $-1 $107 $278 $280 $281 forward $64 $-1 #
coedge $-1 -1 $-1 $184 $183 $107 $177 reversed $185 $-1 #
edge $-1 -1 $-1 $282 -0.0935 $283 0.0935 $176 $284 forward @7 unknown #
coedge $-1 -1 $-1 $109 $108 $285 $286 forward $41 $-1 #
coedge $-1 -1 $-1 $287 $288 $108 $180 reversed $272 $-1 #
edge $-1 -1 $-1 $187 -0.25 $289 0.25 $179 $290 forward @7 unknown #
coedge $-1 -1 $-1 $173 $291 $109 $182 reversed $105 $-1 #
edge $-1 -1 $-1 $292 -0.25 $186 0.25 $181 $293 forward @7 unknown #
coedge $-1 -1 $-1 $176 $110 $291 $294 forward $185 $-1 #
coedge $-1 -1 $-1 $110 $176 $287 $295 reversed $185 $-1 #
loop $-1 -1 $-1 $-1 $183 $271 #
vertex $-1 -1 $-1 $111 $296 #
vertex $-1 -1 $-1 $111 $297 #
straight-curve $-1 -1 $-1 0.25 0 0.21850000000000003 0 1 0 I I #
coedge $-1 -1 $-1 $189 $189 $115 $190 forward $112 $-1 #
edge $-1 -1 $-1 $298 0 $298 6.2831853071795862 $189 $299 forward @7 unknown #
vertex $-1 -1 $-1 $116 $300 #
ellipse-curve $-1 -1 $-1 0 0 -0.093500000000000055 0 0 -1 0.125 0 0 1 I I #
face $-1 -1 $-1 $301 $302 $31 $-1 $195 reversed single #
loop $-1 -1 $-1 $-1 $303 $117 #
plane-surface $-1 -1 $-1 0 -0.0935 0 0 1 0 0 0 1 forward_v I I I I #
coedge $-1 -1 $-1 $304 $305 $306 $307 forward $118 $-1 #
coedge $-1 -1 $-1 $308 $120 $309 $310 forward $73 $-1 #
coedge $-1 -1 $-1 $120 $308 $311 $312 reversed $73 $-1 #
coedge $-1 -1 $-1 $313 $314 $315 $200 reversed $316 $-1 #
edge $-1 -1 $-1 $317 -0.04675 $318 0.14024999999999999 $120 $319 forward @7 unknown #
face $-1 -1 $-1 $320 $215 $24 $-1 $203 reversed single #
loop $-1 -1 $-1 $-1 $321 $121 #
plane-surface $-1 -1 $-1 0 0.0935 0 0 -1 0 0 0 -1 forward_v I I I I #
coedge $-1 -1 $-1 $322 $323 $324 $212 forward $122 $-1 #
coedge $-1 -1 $-1 $325 $124 $326 $327 reversed $76 $-1 #
coedge $-1 -1 $-1 $124 $325 $204 $212 reversed $76 $-1 #
coedge $-1 -1 $-1 $328 $329 $124 $208 forward $330 $-1 #
edge $-1 -1 $-1 $331 -0.064259259964995499 $332 0.18574074003500451 $207 $333 forward @7 unknown #
coedge $-1 -1 $-1 $126 $125 $334 $335 reversed $48 $-1 #
coedge $-1 -1 $-1 $336 $337 $125 $211 forward $338 $-1 #
edge $-1 -1 $-1 $339 -0.04675 $216 0.14024999999999999 $210 $340 forward @7 unknown #
edge $-1 -1 $-1 $332 -0.04675 $217 0.14024999999999999 $204 $341 forward @7 unknown #
coedge $-1 -1 $-1 $214 $127 $342 $343 forward $215 $-1 #
coedge $-1 -1 $-1 $127 $213 $336 $344 reversed $215 $-1 #
loop $-1 -1 $-1 $-1 $127 $201 #
vertex $-1 -1 $-1 $344 $345 #
vertex $-1 -1 $-1 $343 $346 #
straight-curve $-1 -1 $-1 0.22048450000000003 0.093500000000000014 -0.053087406790593955 0.48592592028003612 0 0.87400000000000011 I I #
model_id-kcp-attrib $-1 -1 $-1 $-1 $130 1 1021401039 1021401039 -332267519 7 #
face $347 -1 $-1 $255 $250 $8 $-1 $348 forward single #
loop $-1 -1 $-1 $-1 $246 $130 #
plane-surface $-1 -1 $-1 0.128518519929991 0 0.2185 0.87400000000000011 0 0.48592592028003606 0.48592592028003601 0 -0.874 forward_v I I I I #
loop $349 -1 $-1 $145 $133 $242 #
attrib_edge_convexity-kcp-attrib $-1 -1 $350 $-1 $134 1 #
vertex $351 -1 $-1 $134 $352 #
ellipse-curve $-1 -1 $-1 0 0.187 0 0 1 0 0.125 0 0 1 I I #
coedge $-1 -1 $-1 $138 $135 $353 $354 reversed $35 $-1 #
coedge $-1 -1 $-1 $259 $258 $135 $229 forward $131 $-1 #
edge $355 -1 $-1 $356 -0.257037039859982 $231 0 $228 $357 forward @7 unknown #
attrib_edge_convexity-kcp-attrib $-1 -1 $358 $-1 $137 1 #
vertex $-1 -1 $-1 $263 $359 #
straight-curve $-1 -1 $-1 -0.25 0.187 0 -0.48592592028003601 0 -0.874 I I #
coedge $-1 -1 $-1 $249 $248 $138 $234 forward $250 $-1 #
edge $-1 -1 $-1 $236 -0.25000000000000006 $360 0 $233 $361 forward @7 unknown #
model_id-kcp-attrib $-1 -1 $-1 $-1 $140 1 1021401039 1021401039 -332267519 13 #
vertex $-1 -1 $-1 $254 $362 #
straight-curve $-1 -1 $-1 0.128518519929991 0.187 -0.2185 1 0 0 I I #
convexity-sys-attrib $-1 -1 $-1 $141 $88 #
point $-1 -1 $-1 -0.25 0.187 0 #
point $-1 -1 $-1 -0.128518519929991 0.187 -0.2185 #
model_id-kcp-attrib $-1 -1 $-1 $-1 $145 1 1021401039 1021401039 -332267519 16 #
face $363 -1 $-1 $-1 $223 $8 $-1 $364 reversed single #
convexity-sys-attrib $-1 -1 $-1 $146 $90 #
model_id-kcp-attrib $-1 -1 $-1 $-1 $147 1 1021401039 1021401039 -332267519 20 #
point $-1 -1 $-1 0.125 0 0 #
coedge $-1 -1 $-1 $365 $366 $149 $247 reversed $221 $-1 #
edge $367 -1 $-1 $252 -0.25000000000000006 $261 0 $246 $368 forward @7 unknown #
coedge $-1 -1 $-1 $233 $150 $153 $254 reversed $250 $-1 #
coedge $-1 -1 $-1 $150 $233 $365 $369 forward $250 $-1 #
loop $-1 -1 $-1 $-1 $150 $220 #
attrib_edge_convexity-kcp-attrib $-1 -1 $370 $-1 $151 1 #
vertex $-1 -1 $-1 $369 $371 #
straight-curve $-1 -1 $-1 0.25 0 0 0.48592592028003601 0 0.874 I I #
edge $-1 -1 $-1 $236 -0.187 $156 0 $153 $372 forward @7 unknown #
face $373 -1 $-1 $242 $154 $8 $-1 $374 forward single #
convexity-sys-attrib $-1 -1 $-1 $155 $93 #
point $-1 -1 $-1 0.128518519929991 0 -0.2185 #
coedge $-1 -1 $-1 $228 $158 $366 $375 reversed $131 $-1 #
coedge $-1 -1 $-1 $158 $228 $160 $263 forward $131 $-1 #
attrib_edge_convexity-kcp-attrib $-1 -1 $376 $-1 $159 1 #
vertex $-1 -1 $-1 $375 $377 #
straight-curve $-1 -1 $-1 -0.128518519929991 0 0.2185 -1 0 0 I I #
edge $378 -1 $-1 $231 -0.187 $163 0 $259 $379 forward @7 unknown #
convexity-sys-attrib $-1 -1 $-1 $162 $96 #
point $-1 -1 $-1 -0.128518519929991 0 0.2185 #
attrib_edge_convexity-kcp-attrib $-1 -1 $380 $-1 $165 1 #
straight-curve $-1 -1 $-1 -0.25 0 0 0 -1 0 I I #
attrib_edge_convexity-kcp-attrib $-1 -1 $381 $-1 $166 1 #
straight-curve $-1 -1 $-1 -0.128518519929991 0 -0.2185 0 -1 0 I I #
model_id-kcp-attrib $-1 -1 $-1 $-1 $170 1 1021401039 1021401039 -332267518 3 #
face $-1 -1 $-1 $-1 $185 $19 $-1 $382 reversed single #
loop $-1 -1 $-1 $-1 $287 $170 #
plane-surface $-1 -1 $-1 0 0.0935 0 0 -1 0 0 0 -1 forward_v I I I I #
coedge $-1 -1 $-1 $383 $285 $288 $384 forward $171 $-1 #
coedge $-1 -1 $-1 $291 $173 $174 $279 reversed $105 $-1 #
coedge $-1 -1 $-1 $285 $383 $173 $277 reversed $171 $-1 #
edge $-1 -1 $-1 $292 -0.21850000000000003 $385 0.21850000000000003 $276 $386 forward @7 unknown #
coedge $-1 -1 $-1 $175 $174 $383 $387 forward $64 $-1 #
edge $-1 -1 $-1 $283 -0.25 $385 0.25 $275 $388 forward @7 unknown #
coedge $-1 -1 $-1 $288 $287 $175 $281 reversed $272 $-1 #
edge $-1 -1 $-1 $389 -0.25 $282 0.25 $280 $390 forward @7 unknown #
vertex $-1 -1 $-1 $177 $391 #
vertex $-1 -1 $-1 $294 $392 #
straight-curve $-1 -1 $-1 0.25 0 -0.21850000000000003 0 -1 0 I I #
coedge $-1 -1 $-1 $274 $276 $178 $286 reversed $171 $-1 #
edge $-1 -1 $-1 $289 -0.0935 $292 0.0935 $285 $393 forward @7 unknown #
coedge $-1 -1 $-1 $280 $179 $184 $295 forward $272 $-1 #
coedge $-1 -1 $-1 $179 $280 $274 $384 reversed $272 $-1 #
vertex $-1 -1 $-1 $180 $394 #
straight-curve $-1 -1 $-1 0 0.0935 0.21850000000000003 -1 0 0 I I #
coedge $-1 -1 $-1 $181 $275 $183 $294 reversed $105 $-1 #
vertex $-1 -1 $-1 $286 $395 #
straight-curve $-1 -1 $-1 0 -0.0935 0.21850000000000003 1 0 0 I I #
edge $-1 -1 $-1 $186 -0.21850000000000003 $283 0.21850000000000003 $183 $396 forward @7 unknown #
edge $-1 -1 $-1 $187 -0.21850000000000003 $282 0.21850000000000003 $184 $397 forward @7 unknown #
point $-1 -1 $-1 0.25 -0.0935 0.21850000000000003 #
point $-1 -1 $-1 0.25 0.0935 0.21850000000000003 #
vertex $-1 -1 $-1 $190 $398 #
ellipse-curve $-1 -1 $-1 0 0 0.093500000000000055 0 0 1 0.125 0 0 1 I I #
point $-1 -1 $-1 0.125 0 -0.093500000000000055 #
face $-1 -1 $-1 $399 $316 $31 $-1 $74 reversed single #
loop $-1 -1 $-1 $-1 $400 $193 #
coedge $-1 -1 $-1 $311 $401 $402 $403 forward $194 $-1 #
coedge $-1 -1 $-1 $404 $196 $405 $406 forward $118 $-1 #
coedge $-1 -1 $-1 $196 $404 $407 $408 forward $118 $-1 #
coedge $-1 -1 $-1 $409 $410 $196 $307 reversed $411 $-1 #
edge $-1 -1 $-1 $412 -0.04675 $413 0.14024999999999999 $196 $414 forward @7 unknown #
coedge $-1 -1 $-1 $198 $197 $415 $416 reversed $73 $-1 #
coedge $-1 -1 $-1 $417 $418 $197 $310 reversed $419 $-1 #
edge $-1 -1 $-1 $318 -8.5678416577264144e-017 $420 0.21850000000000003 $309 $421 forward @7 unknown #
coedge $-1 -1 $-1 $401 $303 $198 $312 forward $194 $-1 #
edge $-1 -1 $-1 $317 -2.7755575615628914e-017 $422 0.21850000000000003 $198 $423 forward @7 unknown #
coedge $-1 -1 $-1 $424 $199 $425 $426 reversed $316 $-1 #
coedge $-1 -1 $-1 $199 $424 $427 $428 forward $316 $-1 #
coedge $-1 -1 $-1 $410 $409 $429 $200 forward $411 $-1 #
loop $-1 -1 $-1 $-1 $199 $301 #
vertex $-1 -1 $-1 $312 $430 #
vertex $-1 -1 $-1 $310 $431 #
straight-curve $-1 -1 $-1 -0.25 -0.04675 8.3266726846886741e-017 0 1 0 I I #
face $-1 -1 $-1 $432 $330 $24 $-1 $195 reversed single #
coedge $-1 -1 $-1 $433 $434 $325 $435 forward $202 $-1 #
coedge $-1 -1 $-1 $436 $204 $434 $437 reversed $122 $-1 #
coedge $-1 -1 $-1 $204 $436 $328 $438 forward $122 $-1 #
coedge $-1 -1 $-1 $439 $342 $126 $212 reversed $440 $-1 #
coedge $-1 -1 $-1 $206 $205 $321 $435 reversed $76 $-1 #
coedge $-1 -1 $-1 $441 $442 $205 $327 forward $443 $-1 #
edge $-1 -1 $-1 $444 -0.14024999999999999 $331 0.04675 $326 $445 forward @7 unknown #
coedge $-1 -1 $-1 $329 $207 $323 $438 reversed $330 $-1 #
coedge $-1 -1 $-1 $207 $328 $441 $446 reversed $330 $-1 #
loop $-1 -1 $-1 $-1 $207 $320 #
vertex $-1 -1 $-1 $446 $447 #
vertex $-1 -1 $-1 $448 $449 #
straight-curve $-1 -1 $-1 0.15974375996499551 -0.0935 0.16233740679059394 0.48592592028003601 0 -0.87400000000000011 I I #
coedge $-1 -1 $-1 $450 $451 $209 $335 forward $452 $-1 #
edge $-1 -1 $-1 $332 -0.060740740035004515 $339 0.18925925996499554 $334 $453 forward @7 unknown #
coedge $-1 -1 $-1 $454 $210 $214 $344 forward $338 $-1 #
coedge $-1 -1 $-1 $210 $454 $450 $455 forward $338 $-1 #
loop $-1 -1 $-1 $-1 $210 $456 #
vertex $-1 -1 $-1 $335 $457 #
straight-curve $-1 -1 $-1 0.12851851992999097 -0.04675 -0.21850000000000003 0 1 0 I I #
straight-curve $-1 -1 $-1 0.25 -0.04675 -2.7755575615628914e-017 0 1 0 I I #
coedge $-1 -1 $-1 $324 $458 $213 $343 reversed $440 $-1 #
edge $-1 -1 $-1 $217 0 $459 0.21850000000000003 $342 $460 forward @7 unknown #
edge $-1 -1 $-1 $216 0.12851851992999097 $459 0.25 $214 $461 forward @7 unknown #
point $-1 -1 $-1 0.12851851992999097 0.0935 -0.21850000000000003 #
point $-1 -1 $-1 0.25 0.0935 0 #
model_id-kcp-attrib $-1 -1 $-1 $-1 $220 1 1021401039 1021401039 -332267519 8 #
plane-surface $-1 -1 $-1 0.25 0 0 0.87400000000000011 0 -0.48592592028003606 -0.48592592028003601 0 -0.874 forward_v I I I I #
model_id-kcp-attrib $-1 -1 $-1 $-1 $223 1 1021401039 1021401039 -332267519 15 #
convexity-sys-attrib $-1 -1 $-1 $224 $134 #
model_id-kcp-attrib $-1 -1 $-1 $-1 $225 1 1021401039 1021401039 -332267519 19 #
point $-1 -1 $-1 0.125 0.187 0 #
coedge $-1 -1 $-1 $366 $365 $227 $354 forward $221 $-1 #
edge $-1 -1 $-1 $360 -0.25000000000000006 $356 0 $353 $462 forward @7 unknown #
model_id-kcp-attrib $-1 -1 $463 $-1 $229 1 1021401039 1021401039 -332267519 12 #
vertex $-1 -1 $-1 $375 $464 #
straight-curve $-1 -1 $-1 -0.128518519929991 0.187 0.2185 -1 0 0 I I #
convexity-sys-attrib $-1 -1 $-1 $230 $137 #
point $-1 -1 $-1 -0.128518519929991 0.187 0.2185 #
vertex $-1 -1 $-1 $369 $465 #
straight-curve $-1 -1 $-1 0.25 0.187 0 0.48592592028003601 0 0.874 I I #
point $-1 -1 $-1 0.128518519929991 0.187 -0.2185 #
model_id-kcp-attrib $-1 -1 $-1 $-1 $242 1 1021401039 1021401039 -332267519 10 #
cone-surface $-1 -1 $-1 0 0.187 0 0 -1 0 0.125 0 0 1 I I 0 1 0.125 forward I I I I #
coedge $-1 -1 $-1 $353 $246 $249 $369 reversed $221 $-1 #
coedge $-1 -1 $-1 $246 $353 $258 $375 forward $221 $-1 #
attrib_edge_convexity-kcp-attrib $-1 -1 $466 $-1 $247 1 #
straight-curve $-1 -1 $-1 0.128518519929991 0 0.2185 -0.48592592028003601 0 0.874 I I #
edge $-1 -1 $-1 $360 -0.187 $252 0 $249 $467 forward @7 unknown #
convexity-sys-attrib $-1 -1 $-1 $251 $151 #
point $-1 -1 $-1 0.25 0 0 #
straight-curve $-1 -1 $-1 0.128518519929991 0 -0.2185 0 -1 0 I I #
model_id-kcp-attrib $-1 -1 $-1 $-1 $255 1 1021401039 1021401039 -332267519 9 #
plane-surface $-1 -1 $-1 0.128518519929991 0 -0.2185 0 0 -1 -1 0 0 forward_v I I I I #
edge $468 -1 $-1 $356 -0.187 $261 0 $366 $469 forward @7 unknown #
convexity-sys-attrib $-1 -1 $-1 $260 $159 #
point $-1 -1 $-1 0.128518519929991 0 0.2185 #
attrib_edge_convexity-kcp-attrib $-1 -1 $470 $-1 $263 1 #
straight-curve $-1 -1 $-1 -0.128518519929991 0 0.2185 0 -1 0 I I #
convexity-sys-attrib $-1 -1 $-1 $266 $165 #
convexity-sys-attrib $-1 -1 $-1 $268 $166 #
plane-surface $-1 -1 $-1 0.25 0 0 -1 0 0 0 0 1 forward_v I I I I #
coedge $-1 -1 $-1 $276 $274 $278 $387 reversed $171 $-1 #
edge $-1 -1 $-1 $289 -0.21850000000000003 $389 0.21850000000000003 $288 $471 forward @7 unknown #
vertex $-1 -1 $-1 $387 $472 #
straight-curve $-1 -1 $-1 -0.25 -0.0935 0 0 0 -1 I I #
edge $-1 -1 $-1 $385 -0.0935 $389 0.0935 $383 $473 forward @7 unknown #
straight-curve $-1 -1 $-1 0 -0.0935 -0.21850000000000003 -1 0 0 I I #
vertex $-1 -1 $-1 $281 $474 #
straight-curve $-1 -1 $-1 0 0.0935 -0.21850000000000003 1 0 0 I I #
point $-1 -1 $-1 0.25 0.0935 -0.21850000000000003 #
point $-1 -1 $-1 0.25 -0.0935 -0.21850000000000003 #
straight-curve $-1 -1 $-1 -0.25 0 0.21850000000000003 0 -1 0 I I #
point $-1 -1 $-1 -0.25 0.0935 0.21850000000000003 #
point $-1 -1 $-1 -0.25 -0.0935 0.21850000000000003 #
straight-curve $-1 -1 $-1 0.25 -0.0935 0 0 0 -1 I I #
straight-curve $-1 -1 $-1 0.25 0.0935 0 0 0 -1 I I #
point $-1 -1 $-1 0.125 0 0.093500000000000055 #
face $-1 -1 $-1 $475 $419 $31 $-1 $203 reversed single #
coedge $-1 -1 $-1 $407 $425 $409 $476 forward $302 $-1 #
coedge $-1 -1 $-1 $303 $311 $477 $478 reversed $194 $-1 #
coedge $-1 -1 $-1 $479 $429 $303 $403 reversed $480 $-1 #
edge $-1 -1 $-1 $481 -0.064259259964995499 $317 0.18574074003500454 $303 $482 forward @7 unknown #
coedge $-1 -1 $-1 $305 $304 $424 $483 forward $118 $-1 #
coedge $-1 -1 $-1 $484 $427 $304 $406 reversed $485 $-1 #
edge $-1 -1 $-1 $413 0.12851851992999097 $486 0.25 $405 $487 forward @7 unknown #
coedge $-1 -1 $-1 $425 $400 $305 $408 reversed $302 $-1 #
edge $-1 -1 $-1 $488 -0.25 $412 -0.12851851992999097 $407 $489 forward @7 unknown #
coedge $-1 -1 $-1 $315 $306 $400 $476 reversed $411 $-1 #
coedge $-1 -1 $-1 $306 $315 $484 $490 reversed $411 $-1 #
loop $-1 -1 $-1 $-1 $410 $491 #
vertex $-1 -1 $-1 $307 $492 #
vertex $-1 -1 $-1 $406 $493 #
straight-curve $-1 -1 $-1 -0.12851851992999097 -0.04675 0.21850000000000003 0 1 0 I I #
coedge $-1 -1 $-1 $494 $477 $308 $416 forward $495 $-1 #
edge $-1 -1 $-1 $422 -0.0935 $420 0.0935 $308 $496 forward @7 unknown #
coedge $-1 -1 $-1 $418 $309 $497 $498 forward $419 $-1 #
coedge $-1 -1 $-1 $309 $417 $494 $499 reversed $419 $-1 #
loop $-1 -1 $-1 $-1 $417 $399 #
vertex $-1 -1 $-1 $499 $500 #
straight-curve $-1 -1 $-1 -0.25 0.0935 0 0 0 -1 I I #
vertex $-1 -1 $-1 $416 $501 #
straight-curve $-1 -1 $-1 -0.25 -0.0935 0 0 0 -1 I I #
coedge $-1 -1 $-1 $314 $313 $404 $483 reversed $316 $-1 #
coedge $-1 -1 $-1 $400 $407 $313 $426 forward $302 $-1 #
edge $-1 -1 $-1 $488 -0.21850000000000003 $317 -2.7755575615628914e-017 $313 $423 forward @7 unknown #
coedge $-1 -1 $-1 $405 $484 $314 $428 reversed $485 $-1 #
edge $-1 -1 $-1 $486 -0.21850000000000003 $318 -8.5678416577264144e-017 $427 $421 forward @7 unknown #
coedge $-1 -1 $-1 $402 $497 $120 $200 reversed $480 $-1 #
point $-1 -1 $-1 -0.25 -0.0935 2.7755575615628914e-017 #
point $-1 -1 $-1 -0.25 0.0935 8.5678416577264144e-017 #
face $-1 -1 $-1 $456 $443 $24 $-1 $119 forward single #
coedge $-1 -1 $-1 $434 $321 $442 $502 reversed $202 $-1 #
coedge $-1 -1 $-1 $321 $433 $322 $437 forward $202 $-1 #
edge $-1 -1 $-1 $217 -0.18574074003500451 $444 0.064259259964995499 $321 $503 forward @7 unknown #
coedge $-1 -1 $-1 $323 $322 $504 $505 reversed $122 $-1 #
edge $-1 -1 $-1 $506 -0.21850000000000003 $217 0 $322 $460 forward @7 unknown #
edge $-1 -1 $-1 $507 -0.21850000000000003 $332 0 $323 $508 forward @7 unknown #
coedge $-1 -1 $-1 $458 $324 $451 $448 forward $440 $-1 #
loop $-1 -1 $-1 $-1 $324 $509 #
coedge $-1 -1 $-1 $504 $326 $329 $446 forward $443 $-1 #
coedge $-1 -1 $-1 $326 $504 $433 $502 forward $443 $-1 #
loop $-1 -1 $-1 $-1 $326 $432 #
vertex $-1 -1 $-1 $435 $510 #
straight-curve $-1 -1 $-1 0.128518519929991 -0.04675 0.21850000000000003 0 -1 0 I I #
edge $-1 -1 $-1 $331 0.128518519929991 $507 0.25 $329 $489 forward @7 unknown #
point $-1 -1 $-1 0.128518519929991 -0.0935 0.2185 #
edge $-1 -1 $-1 $332 0 $511 0.21850000000000003 $439 $508 forward @7 unknown #
point $-1 -1 $-1 0.25 -0.0935 0 #
coedge $-1 -1 $-1 $451 $334 $337 $455 reversed $452 $-1 #
coedge $-1 -1 $-1 $334 $450 $439 $448 reversed $452 $-1 #
loop $-1 -1 $-1 $-1 $334 $512 #
straight-curve $-1 -1 $-1 0.22048450000000003 -0.0935 -0.053087406790593955 -0.48592592028003612 0 -0.87400000000000011 I I #
coedge $-1 -1 $-1 $337 $336 $458 $513 forward $338 $-1 #
edge $-1 -1 $-1 $511 -0.25 $339 -0.12851851992999097 $450 $514 forward @7 unknown #
face $-1 -1 $-1 $512 $338 $24 $-1 $515 reversed single #
point $-1 -1 $-1 0.12851851992999097 -0.0935 -0.21850000000000003 #
coedge $-1 -1 $-1 $342 $439 $454 $513 reversed $440 $-1 #
vertex $-1 -1 $-1 $513 $516 #
straight-curve $-1 -1 $-1 0.25 0.0935 0 0 0 -1 I I #
straight-curve $-1 -1 $-1 0 0.0935 -0.21850000000000003 1 0 0 I I #
straight-curve $-1 -1 $-1 0.128518519929991 0.187 0.2185 -0.48592592028003601 0 0.874 I I #
attrib_edge_convexity-kcp-attrib $-1 -1 $517 $355 $229 1 #
point $-1 -1 $-1 0.128518519929991 0.187 0.2185 #
point $-1 -1 $-1 0.25 0.187 0 #
convexity-sys-attrib $-1 -1 $-1 $367 $247 #
straight-curve $-1 -1 $-1 0.25 0 0 0 -1 0 I I #
attrib_edge_convexity-kcp-attrib $-1 -1 $518 $-1 $375 1 #
straight-curve $-1 -1 $-1 0.128518519929991 0 0.2185 0 -1 0 I I #
convexity-sys-attrib $-1 -1 $-1 $378 $263 #
straight-curve $-1 -1 $-1 -0.25 0.0935 0 0 0 -1 I I #
point $-1 -1 $-1 -0.25 -0.0935 -0.21850000000000003 #
straight-curve $-1 -1 $-1 -0.25 0 -0.21850000000000003 0 1 0 I I #
point $-1 -1 $-1 -0.25 0.0935 -0.21850000000000003 #
face $-1 -1 $-1 $519 $485 $31 $-1 $203 reversed single #
edge $-1 -1 $-1 $317 -0.060740740035004508 $412 0.18925925996499551 $400 $520 forward @7 unknown #
coedge $-1 -1 $-1 $415 $521 $401 $478 forward $495 $-1 #
edge $-1 -1 $-1 $481 0.12851851992999097 $422 0.25 $401 $514 forward @7 unknown #
coedge $-1 -1 $-1 $497 $402 $521 $522 reversed $480 $-1 #
loop $-1 -1 $-1 $-1 $497 $523 #
vertex $-1 -1 $-1 $478 $524 #
straight-curve $-1 -1 $-1 -0.15974375996499549 -0.0935 -0.16233740679059394 -0.48592592028003601 0 0.87400000000000011 I I #
edge $-1 -1 $-1 $486 -0.0935 $488 0.0935 $424 $525 forward @7 unknown #
coedge $-1 -1 $-1 $427 $405 $410 $490 forward $485 $-1 #
loop $-1 -1 $-1 $-1 $484 $475 #
vertex $-1 -1 $-1 $406 $526 #
straight-curve $-1 -1 $-1 0 0.0935 0.21850000000000003 -1 0 0 I I #
vertex $-1 -1 $-1 $483 $527 #
straight-curve $-1 -1 $-1 0 -0.0935 0.21850000000000003 1 0 0 I I #
edge $-1 -1 $-1 $413 -0.18925925996499551 $318 0.060740740035004459 $484 $528 forward @7 unknown #
face $-1 -1 $-1 $523 $411 $31 $-1 $529 reversed single #
point $-1 -1 $-1 -0.12851851992999097 -0.0935 0.21850000000000003 #
point $-1 -1 $-1 -0.12851851992999097 0.0935 0.21850000000000003 #
coedge $-1 -1 $-1 $521 $415 $418 $499 forward $495 $-1 #
loop $-1 -1 $-1 $-1 $521 $519 #
straight-curve $-1 -1 $-1 -0.25 0 -0.21850000000000003 0 1 0 I I #
coedge $-1 -1 $-1 $429 $479 $417 $498 reversed $480 $-1 #
edge $-1 -1 $-1 $318 -0.18574074003500457 $530 0.064259259964995499 $417 $531 forward @7 unknown #
edge $-1 -1 $-1 $420 -0.25 $530 -0.12851851992999097 $418 $461 forward @7 unknown #
point $-1 -1 $-1 -0.25 0.0935 -0.21850000000000003 #
point $-1 -1 $-1 -0.25 -0.0935 -0.21850000000000003 #
edge $-1 -1 $-1 $506 -0.25 $444 -0.128518519929991 $433 $487 forward @7 unknown #
straight-curve $-1 -1 $-1 0.15974375996499551 0.0935 0.16233740679059394 -0.48592592028003601 0 0.87400000000000011 I I #
coedge $-1 -1 $-1 $442 $441 $436 $505 forward $443 $-1 #
edge $-1 -1 $-1 $507 -0.0935 $506 0.0935 $436 $532 forward @7 unknown #
vertex $-1 -1 $-1 $505 $533 #
vertex $-1 -1 $-1 $505 $534 #
straight-curve $-1 -1 $-1 0.25 -0.0935 0 0 0 -1 I I #
face $-1 -1 $-1 $-1 $440 $24 $-1 $123 reversed single #
point $-1 -1 $-1 0.128518519929991 0.0935 0.2185 #
vertex $-1 -1 $-1 $448 $535 #
face $-1 -1 $-1 $509 $452 $24 $-1 $195 reversed single #
edge $-1 -1 $-1 $459 -0.0935 $511 0.0935 $458 $536 forward @7 unknown #
straight-curve $-1 -1 $-1 0 -0.0935 -0.21850000000000003 -1 0 0 I I #
plane-surface $-1 -1 $-1 0 0 -0.21850000000000003 0 0 1 1 0 0 forward_v I I I I #
point $-1 -1 $-1 0.25 0.0935 -0.21850000000000003 #
convexity-sys-attrib $-1 -1 $-1 $463 $229 #
convexity-sys-attrib $-1 -1 $-1 $468 $375 #
face $-1 -1 $-1 $491 $495 $31 $-1 $515 reversed single #
straight-curve $-1 -1 $-1 -0.22048450000000003 -0.0935 0.053087406790593969 0.48592592028003612 0 0.87400000000000011 I I #
coedge $-1 -1 $-1 $477 $494 $479 $522 forward $495 $-1 #
edge $-1 -1 $-1 $530 -0.14024999999999999 $481 0.04675 $521 $537 forward @7 unknown #
face $-1 -1 $-1 $-1 $480 $31 $-1 $538 reversed single #
point $-1 -1 $-1 -0.12851851992999097 -0.0935 -0.2185 #
straight-curve $-1 -1 $-1 -0.25 0 0.21850000000000003 0 -1 0 I I #
point $-1 -1 $-1 -0.25 0.0935 0.21850000000000003 #
point $-1 -1 $-1 -0.25 -0.0935 0.21850000000000003 #
straight-curve $-1 -1 $-1 -0.22048450000000003 0.093500000000000014 0.053087406790593969 -0.48592592028003612 0 -0.87400000000000011 I I #
plane-surface $-1 -1 $-1 -0.25 -0.0935 2.7755575615628914e-017 -0.87400000000000011 0 0.48592592028003612 0 -1 0 forward_v I I I I #
vertex $-1 -1 $-1 $498 $539 #
straight-curve $-1 -1 $-1 -0.15974375996499549 0.0935 -0.16233740679059394 0.48592592028003601 0 -0.87400000000000011 I I #
straight-curve $-1 -1 $-1 0.25 0 0.21850000000000003 0 1 0 I I #
point $-1 -1 $-1 0.25 0.0935 0.21850000000000003 #
point $-1 -1 $-1 0.25 -0.0935 0.21850000000000003 #
point $-1 -1 $-1 0.25 -0.0935 -0.21850000000000003 #
straight-curve $-1 -1 $-1 0.25 0 -0.21850000000000003 0 -1 0 I I #
straight-curve $-1 -1 $-1 -0.12851851992999097 -0.04675 -0.21850000000000003 0 -1 0 I I #
plane-surface $-1 -1 $-1 -0.12851851992999097 -0.0935 -0.2185 -0.87400000000000011 0 -0.48592592028003601 0 -1 0 forward_v I I I I #
point $-1 -1 $-1 -0.12851851992999097 0.0935 -0.2185 #
End-of-ACIS-data 