600 0 1 0           
125 GICL ACIS Healer - Source: /gicl/data5/repository/Sandia/Randy_Wilson/discriminator/sh-r44369-000-u/sh-r44369-000-u.sat - 6 0 18 ACIS 6.0.3 Solaris 24 Sat Apr 13 23:37:44 2002 
1 9.999999999999999547e-07 1.000000000000000036e-10 
body $-1 $1 $-1 $2 #
lump $-1 $-1 $3 $0 #
transform $-1 1 0 0 0 1 0 0 0 1 0 0 0 1 no_rotate no_reflect no_shear #
shell $-1 $-1 $-1 $4 $-1 $1 #
face $5 $6 $7 $3 $-1 $8 forward single #
pid_name-sg-attrib $-1 $-1 $-1 $4 7 rwilson 784252905 373 1 #
face $9 $10 $11 $3 $-1 $12 reversed single #
loop $-1 $-1 $13 $4 #
cone-surface $-1 0 0 0 0 0 1 0.3689999999999999947 0 0 1 I I 0 1 0.3689999999999999947 forward I I I I #
pid_name-sg-attrib $-1 $-1 $-1 $6 7 rwilson 784252905 374 1 #
face $14 $15 $16 $3 $-1 $17 reversed single #
loop $-1 $18 $19 $6 #
cone-surface $-1 0 0 0.04000000000000000083 0 0 -1 -0.1980750000000000011 0 0 1 I I 0 1 0.1980750000000000011 forward I I I I #
coedge $-1 $20 $21 $22 $23 forward $7 $-1 #
pid_name-sg-attrib $-1 $-1 $-1 $10 7 rwilson 784252905 375 1 #
face $24 $25 $26 $3 $-1 $27 reversed single #
loop $-1 $28 $29 $10 #
cone-surface $-1 0 0 0.8319250000000000256 0 0 1 -1 0 0 1 I I 0.7071067811865480168 0.7071067811865470176 1 forward I I I I #
loop $-1 $-1 $30 $6 #
coedge $-1 $19 $19 $31 $32 reversed $11 $-1 #
coedge $-1 $33 $13 $34 $35 reversed $7 $-1 #
coedge $-1 $13 $33 $36 $37 reversed $7 $-1 #
coedge $-1 $38 $39 $13 $23 reversed $40 $-1 #
edge $-1 $41 -0.1147595971944529031 $42 -0 $22 $43 reversed 7 unknown #
pid_name-sg-attrib $-1 $-1 $-1 $15 7 rwilson 784252905 376 1 #
face $44 $45 $46 $3 $-1 $47 reversed single #
loop $-1 $48 $49 $15 #
cone-surface $-1 0 0.4129999999999999782 0.04000000000000000083 0 0 -1 -0.01779999999999999985 0 0 1 I I 0 1 0.01779999999999999985 forward I I I I #
loop $-1 $-1 $31 $10 #
coedge $-1 $29 $29 $50 $51 forward $16 $-1 #
coedge $-1 $30 $30 $52 $53 forward $18 $-1 #
coedge $-1 $31 $31 $19 $32 forward $28 $-1 #
edge $-1 $54 -3.141592653589793116 $54 3.141592653589793116 $19 $55 forward 7 unknown #
coedge $-1 $21 $20 $56 $57 forward $7 $-1 #
coedge $-1 $58 $59 $20 $35 forward $60 $-1 #
edge $-1 $61 0 $42 0.04000000000000000083 $20 $62 forward 7 unknown #
coedge $-1 $63 $64 $21 $37 forward $65 $-1 #
edge $-1 $41 -0.04000000000000000083 $66 -0 $21 $67 reversed 7 unknown #
coedge $-1 $68 $22 $64 $69 reversed $40 $-1 #
coedge $-1 $22 $70 $58 $71 reversed $40 $-1 #
loop $-1 $72 $68 $73 #
vertex $-1 $37 $74 #
vertex $-1 $35 $75 #
ellipse-curve $-1 0 0 0.04000000000000000083 0 0 1 0.1310210233190609863 0.3449557818741790238 0 1 I I #
pid_name-sg-attrib $-1 $-1 $-1 $25 7 rwilson 784252905 377 1 #
face $76 $77 $78 $3 $-1 $79 reversed single #
loop $-1 $80 $81 $25 #
cone-surface $-1 -0.2696664606509309725 -0.07900000000000000078 0.04000000000000000083 0 0 -1 -0.05500000000000000028 0 0 1 I I 0 1 0.05500000000000000028 forward I I I I #
loop $-1 $-1 $82 $15 #
coedge $-1 $49 $49 $83 $84 forward $26 $-1 #
coedge $-1 $50 $50 $29 $51 reversed $85 $-1 #
edge $-1 $86 -6.283185307179586232 $86 1.224606353822376519e-16 $50 $87 reversed 7 unknown #
coedge $-1 $52 $52 $30 $53 reversed $88 $-1 #
edge $-1 $89 -3.141592653589793116 $89 3.141592653589793116 $52 $90 forward 7 unknown #
vertex $-1 $32 $91 #
ellipse-curve $-1 0 0 0.02999999999999999889 0 0 -1 -0.1980750000000000011 0 0 1 I I #
coedge $-1 $92 $93 $33 $57 reversed $94 $-1 #
edge $-1 $61 -0.1147377828042585729 $66 2.181439019437756631e-05 $56 $95 reversed 7 unknown #
coedge $-1 $96 $34 $39 $71 forward $60 $-1 #
coedge $-1 $34 $96 $92 $97 forward $60 $-1 #
loop $-1 $-1 $34 $98 #
vertex $-1 $35 $99 #
straight-curve $-1 0.1310210233190609863 0.3449557818741790238 0 0 0 1 I I #
coedge $-1 $100 $36 $93 $101 forward $65 $-1 #
coedge $-1 $36 $100 $38 $69 forward $65 $-1 #
loop $-1 $-1 $64 $102 #
vertex $-1 $37 $103 #
straight-curve $-1 0.09065905981917550538 0.3576897187126060196 0 0 0 1 I I #
coedge $-1 $104 $38 $105 $106 reversed $40 $-1 #
edge $-1 $107 -1.260765793707124485e-14 $41 1.277368519272564562 $38 $108 forward 7 unknown #
coedge $-1 $39 $104 $109 $110 reversed $40 $-1 #
edge $-1 $42 -1.490302415903842202e-16 $111 1.161412094543569751 $39 $112 forward 7 unknown #
loop $-1 $113 $114 $73 #
face $115 $116 $40 $3 $-1 $117 forward single #
point $-1 0.09065905981917550538 0.3576897187126060196 0.04000000000000000083 #
point $-1 0.1310210233190609863 0.3449557818741790238 0.04000000000000000083 #
pid_name-sg-attrib $-1 $-1 $-1 $45 7 rwilson 784252905 378 1 #
face $118 $119 $120 $3 $-1 $121 reversed single #
loop $-1 $122 $123 $45 #
cone-surface $-1 -0.1940380054723430114 -0.2032492372244359968 0.04000000000000000083 0 0 -1 -0.05500000000000000028 0 0 1 I I 0 1 0.05500000000000000028 forward I I I I #
loop $-1 $-1 $124 $25 #
coedge $-1 $81 $81 $125 $126 forward $46 $-1 #
coedge $-1 $82 $82 $127 $128 forward $48 $-1 #
coedge $-1 $83 $83 $49 $84 reversed $129 $-1 #
edge $-1 $130 -3.141592653589793116 $130 3.141592653589793116 $83 $131 forward 7 unknown #
loop $-1 $-1 $50 $73 #
vertex $-1 $51 $132 #
ellipse-curve $-1 0 0 0.04000000000000009798 -4.335245500458679832e-16 0 -1 0.2080750000000000099 0 -9.020562075079400589e-17 1 I I #
loop $-1 $-1 $52 $133 #
vertex $-1 $53 $134 #
ellipse-curve $-1 0 0 -6.938893903907229918e-18 -3.503164914253300002e-17 0 -1 -0.1980750000000000011 0 6.938893903907229918e-18 1 I I #
point $-1 0.1980750000000000011 2.425639035333669905e-17 0.02999999999999999889 #
coedge $-1 $135 $56 $59 $97 reversed $94 $-1 #
coedge $-1 $56 $136 $63 $101 reversed $94 $-1 #
loop $-1 $137 $92 $133 #
ellipse-curve $-1 0 0 0 0 0 -1 0.09066686258069650561 0.3576877409553940179 0 1 I I #
coedge $-1 $59 $58 $138 $139 forward $60 $-1 #
edge $-1 $140 -1.161412094543569751 $61 1.490302415903842202e-16 $92 $141 reversed 7 unknown #
face $142 $133 $60 $3 $-1 $143 reversed single #
point $-1 0.1310210233190609863 0.3449557818741790238 0 #
coedge $-1 $64 $63 $144 $145 forward $65 $-1 #
edge $-1 $66 0.0001298287017574398824 $146 1.277498347974334481 $93 $147 forward 7 unknown #
face $148 $149 $65 $3 $-1 $150 reversed single #
point $-1 0.09065905981917550538 0.3576897187126060196 0 #
coedge $-1 $70 $68 $151 $152 reversed $40 $-1 #
coedge $-1 $144 $153 $68 $106 forward $154 $-1 #
edge $-1 $155 -0.002659271118663646995 $107 3.048537584576517023 $68 $156 forward 7 unknown #
vertex $-1 $145 $157 #
ellipse-curve $-1 0.1058917473768690026 0.4177893462469730035 0.04000000000000000083 1.118033475878639943e-16 5.056720249060300223e-18 1 -0.06193668242797990137 -0.002801315729361760192 6.938893903907229918e-18 1 I I #
coedge $-1 $158 $138 $70 $110 forward $159 $-1 #
edge $-1 $111 -4.43856987986405116 $160 -1.226469900761489422e-05 $70 $161 reversed 7 unknown #
vertex $-1 $139 $162 #
ellipse-curve $-1 0.5200000000000000178 0.3489999999999999769 0.04000000000000000083 1.783680949795099976e-17 1.854494782570199967e-19 1 -0.3889789766809390037 -0.004044218125821010326 6.938893903907229918e-18 1 I I #
loop $-1 $163 $164 $73 #
coedge $-1 $114 $114 $165 $166 reversed $72 $-1 #
pid_name-sg-attrib $-1 $-1 $-1 $73 7 rwilson 784252905 387 1 #
face $167 $98 $159 $3 $-1 $8 forward single #
plane-surface $-1 0 0 0.04000000000000000083 0 0 1 1 0 0 forward_v I I I I #
pid_name-sg-attrib $-1 $-1 $-1 $77 7 rwilson 784252905 379 1 #
face $168 $169 $170 $3 $-1 $171 reversed single #
loop $-1 $172 $173 $77 #
cone-surface $-1 -0.06641722342649469812 -0.2730380054723430261 0.04000000000000000083 0 0 -1 -0.05500000000000000028 0 0 1 I I 0 1 0.05500000000000000028 forward I I I I #
loop $-1 $-1 $174 $45 #
coedge $-1 $123 $123 $175 $176 forward $78 $-1 #
coedge $-1 $124 $124 $177 $178 forward $80 $-1 #
coedge $-1 $125 $125 $81 $126 reversed $179 $-1 #
edge $-1 $180 -3.141592653589793116 $180 3.141592653589793116 $125 $181 forward 7 unknown #
coedge $-1 $127 $127 $82 $128 reversed $182 $-1 #
edge $-1 $183 -6.283185307179586232 $183 -0 $127 $184 reversed 7 unknown #
loop $-1 $88 $83 $133 #
vertex $-1 $84 $185 #
ellipse-curve $-1 0 0.4129999999999999782 6.938893903907229918e-18 -3.898255002195069934e-16 0 -1 0.01779999999999999985 0 -6.938893903907229918e-18 1 I I #
point $-1 0.2080750000000000099 2.54809967071590996e-17 0.04000000000000000083 #
face $186 $-1 $94 $3 $-1 $187 reversed single #
point $-1 0.1980750000000000011 -6.370657988771440482e-17 0 #
coedge $-1 $188 $92 $189 $190 reversed $94 $-1 #
coedge $-1 $93 $188 $191 $192 reversed $94 $-1 #
loop $-1 $193 $194 $133 #
coedge $-1 $109 $189 $96 $139 reversed $159 $-1 #
edge $-1 $111 -0.04000000000000000083 $140 -0 $138 $195 reversed 7 unknown #
vertex $-1 $139 $196 #
ellipse-curve $-1 0.5200000000000000178 0.3489999999999999769 0 0 0 1 -0.3889789766809390037 -0.004044218125821010326 0 1 I I #
pid_name-sg-attrib $-1 $-1 $-1 $98 7 rwilson 784252905 389 1 #
cone-surface $-1 0.5200000000000000178 0.3489999999999999769 -0.004000000000000000083 0 0 1 0.3890000000000000124 0 0 1 I I 0 1 0.3890000000000000124 forward I I I I #
coedge $-1 $191 $105 $100 $145 reversed $154 $-1 #
edge $-1 $146 0 $107 0.04000000000000000083 $144 $197 forward 7 unknown #
vertex $-1 $145 $198 #
ellipse-curve $-1 0.1058917473768690026 0.4177893462469730035 0 0 0 -1 -0.01522488477271939991 -0.06010160466790730183 0 1 I I #
pid_name-sg-attrib $-1 $-1 $-1 $102 7 rwilson 784252905 384 1 #
face $199 $200 $201 $3 $-1 $202 reversed single #
cone-surface $-1 0.1058917473768690026 0.4177893462469730035 -0.02000124000937960125 0 0 1 -0.01523268755769329949 -0.06009962753436740024 0 1 I I 0 1 0.0619999999999999718 forward I I I I #
coedge $-1 $203 $204 $104 $152 forward $201 $-1 #
edge $-1 $160 -7.299540573513442932e-05 $155 1.277295523866841975 $104 $205 forward 7 unknown #
coedge $-1 $105 $191 $203 $206 reversed $154 $-1 #
loop $-1 $-1 $191 $200 #
vertex $-1 $206 $207 #
ellipse-curve $-1 0 0.4129999999999999782 0.04000000000000000083 0 0 -1 -0.04394962282405370096 0.00210491178518623992 0 1 I I #
point $-1 0.04395506494888890003 0.4149880305176120165 0.04000000000000000083 #
coedge $-1 $189 $109 $204 $208 reversed $159 $-1 #
loop $-1 $-1 $189 $116 #
vertex $-1 $208 $209 #
ellipse-curve $-1 0 0 0.04000000000000000083 -9.239684379878400534e-18 3.645648123961869874e-17 1 -0.09065467285561899791 0.357690830591785025 -1.38777878078144999e-17 1 I I #
point $-1 0.3688790789244320023 -0.009445905560758319219 0.04000000000000000083 #
loop $-1 $210 $211 $73 #
coedge $-1 $164 $164 $212 $213 reversed $113 $-1 #
coedge $-1 $165 $165 $114 $166 forward $214 $-1 #
edge $-1 $215 -6.283185307179586232 $215 -0 $114 $216 reversed 7 unknown #
pid_name-sg-attrib $-1 $-1 $-1 $116 7 rwilson 784252905 388 1 #
pid_name-sg-attrib $-1 $-1 $-1 $119 7 rwilson 784252905 380 1 #
face $217 $218 $219 $3 $-1 $220 reversed single #
loop $-1 $221 $222 $119 #
cone-surface $-1 0.07900000000000000078 -0.2696664606509309725 0.04000000000000000083 0 0 -1 -0.05500000000000000028 0 0 1 I I 0 1 0.05500000000000000028 forward I I I I #
loop $-1 $-1 $223 $77 #
coedge $-1 $173 $173 $224 $225 forward $120 $-1 #
coedge $-1 $174 $174 $226 $227 forward $122 $-1 #
coedge $-1 $175 $175 $123 $176 reversed $228 $-1 #
edge $-1 $229 -3.141592653589793116 $229 3.141592653589793116 $175 $230 forward 7 unknown #
coedge $-1 $177 $177 $124 $178 reversed $231 $-1 #
edge $-1 $232 -6.283185307179586232 $232 -0 $177 $233 reversed 7 unknown #
loop $-1 $129 $125 $133 #
vertex $-1 $126 $234 #
ellipse-curve $-1 -0.2696664606509309725 -0.07900000000000000078 6.938893903907229918e-18 -1.261617073437679971e-16 3.183355279978900255e-32 -1 0.05500000000000000028 -1.38777878078144999e-17 -6.938893903907229918e-18 1 I I #
loop $-1 $85 $127 $73 #
vertex $-1 $128 $235 #
ellipse-curve $-1 0 0.4129999999999999782 0.04000000000000000083 0 0 -1 -0.01779999999999999985 0 0 1 I I #
point $-1 -0.01779999999999999985 0.4129999999999999782 0 #
pid_name-sg-attrib $-1 $-1 $-1 $133 7 rwilson 784252905 390 1 #
plane-surface $-1 0 0 0 0 0 1 1 0 0 forward_v I I I I #
coedge $-1 $136 $135 $236 $237 reversed $94 $-1 #
coedge $-1 $138 $158 $135 $190 forward $159 $-1 #
edge $-1 $238 -4.438557615165043657 $140 -5.382750336735190961e-16 $135 $239 reversed 7 unknown #
coedge $-1 $153 $144 $136 $192 forward $154 $-1 #
edge $-1 $146 -3.048537584576459292 $240 0.00265927111872165051 $136 $241 reversed 7 unknown #
loop $-1 $242 $243 $133 #
coedge $-1 $194 $194 $244 $245 reversed $137 $-1 #
straight-curve $-1 0.3688790789244320023 -0.009445905560758319219 0 0 0 1 I I #
point $-1 0.3688790789244320023 -0.009445905560758319219 0 #
straight-curve $-1 0.04395506494888890003 0.4149880305176120165 0 -1.734723475976810053e-16 1.387778780781450014e-15 1 I I #
point $-1 0.04395506494888890003 0.4149880305176120165 0 #
pid_name-sg-attrib $-1 $-1 $-1 $149 7 rwilson 784252905 385 1 #
face $246 $73 $154 $3 $-1 $247 forward single #
loop $-1 $-1 $236 $149 #
cone-surface $-1 -0.1058917473768690026 0.4177893462469730035 0.06000071600000000255 0 0 -1 0.01523268755769329949 -0.06009962753436740024 0 1 I I 0 1 0.0619999999999999718 forward I I I I #
coedge $-1 $236 $151 $153 $206 forward $201 $-1 #
coedge $-1 $151 $236 $158 $208 forward $201 $-1 #
ellipse-curve $-1 -0.1058917473768690026 0.4177893462469730035 0.04000000000000000083 0 0 1 0.01523707451380370073 -0.06009851545804430206 0 1 I I #
edge $-1 $155 0 $240 0.04000000000000000083 $153 $248 forward 7 unknown #
point $-1 -0.04395506494888890003 0.4149880305176120165 0.04000000000000000083 #
edge $-1 $238 -0.04000000000000000083 $160 -0 $158 $249 reversed 7 unknown #
point $-1 -0.09065905981917550538 0.3576897187126060196 0.04000000000000000083 #
loop $-1 $250 $251 $73 #
coedge $-1 $211 $211 $252 $253 reversed $163 $-1 #
coedge $-1 $212 $212 $164 $213 forward $254 $-1 #
edge $-1 $255 -6.283185307179586232 $255 -0 $164 $256 reversed 7 unknown #
loop $-1 $-1 $165 $257 #
vertex $-1 $166 $258 #
ellipse-curve $-1 -0.07900000000000000078 0.2696664606509309725 0.04000000000000000083 0 0 -1 -0.05500000000000000028 0 0 1 I I #
pid_name-sg-attrib $-1 $-1 $-1 $169 7 rwilson 784252905 381 1 #
face $259 $257 $260 $3 $-1 $261 reversed single #
loop $-1 $262 $263 $169 #
cone-surface $-1 -0.2730380054723430261 0.06641722342649469812 0.04000000000000000083 0 0 -1 -0.05500000000000000028 0 0 1 I I 0 1 0.05500000000000000028 forward I I I I #
loop $-1 $-1 $264 $119 #
coedge $-1 $222 $222 $265 $266 forward $170 $-1 #
coedge $-1 $223 $223 $267 $268 forward $172 $-1 #
coedge $-1 $224 $224 $173 $225 reversed $269 $-1 #
edge $-1 $270 -3.141592653589793116 $270 3.141592653589793116 $224 $271 forward 7 unknown #
coedge $-1 $226 $226 $174 $227 reversed $272 $-1 #
edge $-1 $273 -6.283185307179586232 $273 -0 $226 $274 reversed 7 unknown #
loop $-1 $179 $175 $133 #
vertex $-1 $176 $275 #
ellipse-curve $-1 -0.1940380054723430114 -0.2032492372244359968 6.938893903907229918e-18 -1.261617073437679971e-16 0 -1 0.05500000000000000028 0 -6.938893903907229918e-18 1 I I #
loop $-1 $182 $177 $73 #
vertex $-1 $178 $276 #
ellipse-curve $-1 -0.2696664606509309725 -0.07900000000000000078 0.04000000000000000083 0 0 -1 -0.05500000000000000028 0 0 1 I I #
point $-1 -0.3246664606509310214 -0.07900000000000000078 0 #
point $-1 -0.01779999999999999985 0.4129999999999999782 0.04000000000000000083 #
coedge $-1 $204 $203 $188 $237 forward $201 $-1 #
edge $-1 $240 0.001886317185027535379 $238 1.279254836457604627 $188 $277 forward 7 unknown #
vertex $-1 $208 $278 #
ellipse-curve $-1 0 0 0 0 0 -1 0.3688790789244320023 -0.009445905560758119726 0 1 I I #
vertex $-1 $206 $279 #
ellipse-curve $-1 0 0.4129999999999999782 6.938893903907229918e-18 1.575654511246819955e-16 -7.546398665096509684e-18 -1 -0.04394962282405359688 0.002104911785188789963 -6.940826650517530587e-18 1 I I #
loop $-1 $280 $281 $133 #
coedge $-1 $243 $243 $282 $283 reversed $193 $-1 #
coedge $-1 $244 $244 $194 $245 forward $284 $-1 #
edge $-1 $285 -3.141592653589793116 $285 3.141592653589793116 $194 $286 forward 7 unknown #
pid_name-sg-attrib $-1 $-1 $-1 $200 7 rwilson 784252905 386 1 #
cone-surface $-1 0 0.4129999999999999782 0.04000000000000000083 0 0 -1 -0.04399999999999999745 0 0 1 I I 0 1 0.04399999999999999745 forward I I I I #
straight-curve $-1 -0.04395506494888890003 0.4149880305176120165 0.04000000000000000083 0 1.387778780781450014e-15 -1 I I #
straight-curve $-1 -0.09065905981917550538 0.3576897187126060196 0.04000000000000000083 0 0 -1 I I #
loop $-1 $272 $267 $73 #
coedge $-1 $251 $251 $264 $287 reversed $210 $-1 #
coedge $-1 $252 $252 $211 $253 forward $262 $-1 #
edge $-1 $288 -6.283185307179586232 $288 -0 $211 $289 reversed 7 unknown #
loop $-1 $-1 $212 $218 #
vertex $-1 $213 $290 #
ellipse-curve $-1 -0.2032492372244359968 0.1940380054723430114 0.04000000000000000083 0 0 -1 -0.05500000000000000028 0 0 1 I I #
face $291 $102 $284 $3 $-1 $292 reversed single #
point $-1 -0.134000000000000008 0.2696664606509309725 0.04000000000000000083 #
pid_name-sg-attrib $-1 $-1 $-1 $218 7 rwilson 784252905 382 1 #
loop $-1 $254 $282 $218 #
cone-surface $-1 -0.2032492372244359968 0.1940380054723430114 0.04000000000000000083 0 0 -1 -0.05500000000000000028 0 0 1 I I 0 1 0.05500000000000000028 forward I I I I #
loop $-1 $-1 $252 $169 #
coedge $-1 $263 $263 $281 $293 forward $219 $-1 #
coedge $-1 $264 $264 $251 $287 forward $221 $-1 #
coedge $-1 $265 $265 $222 $266 reversed $280 $-1 #
edge $-1 $294 -3.141592653589793116 $294 3.141592653589793116 $265 $295 forward 7 unknown #
coedge $-1 $267 $267 $223 $268 reversed $250 $-1 #
edge $-1 $296 -6.283185307179586232 $296 -0 $267 $297 reversed 7 unknown #
loop $-1 $228 $224 $133 #
vertex $-1 $225 $298 #
ellipse-curve $-1 -0.06641722342649469812 -0.2730380054723430261 6.938893903907229918e-18 -1.261617073437679971e-16 0 -1 0.05500000000000000028 0 -6.938893903907229918e-18 1 I I #
loop $-1 $231 $226 $73 #
vertex $-1 $227 $299 #
ellipse-curve $-1 -0.1940380054723430114 -0.2032492372244359968 0.04000000000000000083 0 0 -1 -0.05500000000000000028 0 0 1 I I #
point $-1 -0.2490380054723430048 -0.2032492372244359968 0 #
point $-1 -0.3246664606509310214 -0.07900000000000000078 0.04000000000000000083 #
ellipse-curve $-1 -0.1058917473768690026 0.4177893462469730035 0 0 0 -1 0.06194185640355970301 -0.002684478586389869945 0 1 I I #
point $-1 -0.09065905981917550538 0.3576897187126060196 0 #
point $-1 -0.04395506494888890003 0.4149880305176120165 0 #
loop $-1 $269 $265 $133 #
coedge $-1 $281 $281 $263 $293 reversed $242 $-1 #
coedge $-1 $282 $282 $243 $283 forward $260 $-1 #
edge $-1 $300 -3.141592653589793116 $300 3.141592653589793116 $243 $301 forward 7 unknown #
loop $-1 $214 $244 $257 #
vertex $-1 $245 $302 #
ellipse-curve $-1 -0.07900000000000000078 0.2696664606509309725 6.938893903907229918e-18 -1.261617073437679971e-16 0 -1 0.05500000000000000028 0 -6.938893903907229918e-18 1 I I #
edge $-1 $303 -6.283185307179586232 $303 -0 $251 $304 reversed 7 unknown #
vertex $-1 $253 $305 #
ellipse-curve $-1 -0.2730380054723430261 0.06641722342649469812 0.04000000000000000083 0 0 -1 -0.05500000000000000028 0 0 1 I I #
point $-1 -0.2582492372244359902 0.1940380054723430114 0.04000000000000000083 #
pid_name-sg-attrib $-1 $-1 $-1 $257 7 rwilson 784252905 383 1 #
cone-surface $-1 -0.07900000000000000078 0.2696664606509309725 0.04000000000000000083 0 0 -1 -0.05500000000000000028 0 0 1 I I 0 1 0.05500000000000000028 forward I I I I #
edge $-1 $306 -3.141592653589791784 $306 3.141592653589794448 $281 $307 forward 7 unknown #
vertex $-1 $266 $308 #
ellipse-curve $-1 0.07900000000000000078 -0.2696664606509309725 6.938893903907229918e-18 -1.261617073437679971e-16 0 -1 0.05500000000000000028 0 -6.938893903907229918e-18 1 I I #
vertex $-1 $268 $309 #
ellipse-curve $-1 -0.06641722342649469812 -0.2730380054723430261 0.04000000000000000083 0 0 -1 -0.05500000000000000028 0 0 1 I I #
point $-1 -0.1214172234264949968 -0.2730380054723430261 0 #
point $-1 -0.2490380054723430048 -0.2032492372244359968 0.04000000000000000083 #
vertex $-1 $283 $310 #
ellipse-curve $-1 -0.2032492372244359968 0.1940380054723430114 6.938893903907229918e-18 -1.261617073437679971e-16 0 -1 0.05500000000000000028 0 -6.938893903907229918e-18 1 I I #
point $-1 -0.134000000000000008 0.2696664606509309725 0 #
vertex $-1 $287 $311 #
ellipse-curve $-1 0.07900000000000000078 -0.2696664606509309725 0.04000000000000000083 0 0 -1 -0.05500000000000000028 0 0 1 I I #
point $-1 -0.3280380054723430194 0.06641722342649469812 0.04000000000000000083 #
vertex $-1 $293 $312 #
ellipse-curve $-1 -0.2730380054723430261 0.06641722342649469812 6.938893903907229918e-18 -1.261617073437679971e-16 3.183355279978900255e-32 -1 0.05500000000000000028 -1.38777878078144999e-17 -6.938893903907229918e-18 1 I I #
point $-1 0.0240000000000000005 -0.2696664606509309725 0 #
point $-1 -0.1214172234264949968 -0.2730380054723430261 0.04000000000000000083 #
point $-1 -0.2582492372244359902 0.1940380054723430114 0 #
point $-1 0.0240000000000000005 -0.2696664606509309725 0.04000000000000000083 #
point $-1 -0.3280380054723430194 0.06641722342649479527 0 #
End-of-ACIS-data 