105 313 1 0                             
body $-1 $1 $-1 $2 #
lump $-1 $-1 $3 $0 #
transform $-1 1 0 0 0 1 0 0 0 1 0 0 0 1 0 0 0 #
shell $-1 $-1 $-1 $4 $1 #
face $5 $6 $7 $3 $-1 $8 forward single #
pid_name-sg-attrib $-1 $-1 $-1 $4 7 114 119 105 108 115 111 110 784252905 373 1 #
face $9 $10 $11 $3 $-1 $12 reversed single #
loop $-1 $-1 $13 $4 #
cone-surface $-1 0 0 0 0 0 1 0.369 0 0 1 0 1 0 #
pid_name-sg-attrib $-1 $-1 $-1 $6 7 114 119 105 108 115 111 110 784252905 374 1 #
face $14 $15 $16 $3 $-1 $17 reversed single #
loop $-1 $18 $19 $6 #
cone-surface $-1 0 0 0.04 0 0 -1 -0.198075 0 0 1 0 1 0 #
coedge $-1 $20 $21 $22 $23 0 $7 $-1 #
pid_name-sg-attrib $-1 $-1 $-1 $10 7 114 119 105 108 115 111 110 784252905 375 1 #
face $24 $25 $26 $3 $-1 $27 reversed single #
loop $-1 $28 $29 $10 #
cone-surface $-1 0 0 0.831925 0 0 1 -1 0 0 1 0.707106781186548 0.707106781186547 0 #
loop $-1 $-1 $30 $6 #
coedge $-1 $19 $19 $31 $32 1 $11 $-1 #
coedge $-1 $33 $13 $34 $35 1 $7 $-1 #
coedge $-1 $13 $33 $36 $37 1 $7 $-1 #
coedge $-1 $38 $39 $13 $23 1 $40 $-1 #
edge $-1 $41 $42 $22 $43 1 #
pid_name-sg-attrib $-1 $-1 $-1 $15 7 114 119 105 108 115 111 110 784252905 376 1 #
face $44 $45 $46 $3 $-1 $47 reversed single #
loop $-1 $48 $49 $15 #
cone-surface $-1 0 0.413 0.04 0 0 -1 -0.0178 0 0 1 0 1 0 #
loop $-1 $-1 $31 $10 #
coedge $-1 $29 $29 $50 $51 0 $16 $-1 #
coedge $-1 $30 $30 $52 $53 0 $18 $-1 #
coedge $-1 $31 $31 $19 $32 0 $28 $-1 #
edge $-1 $54 $54 $19 $55 0 #
coedge $-1 $21 $20 $56 $57 0 $7 $-1 #
coedge $-1 $58 $59 $20 $35 0 $60 $-1 #
edge $-1 $61 $42 $20 $62 0 #
coedge $-1 $63 $64 $21 $37 0 $65 $-1 #
edge $-1 $41 $66 $21 $67 1 #
coedge $-1 $68 $22 $64 $69 1 $40 $-1 #
coedge $-1 $22 $70 $58 $71 1 $40 $-1 #
loop $-1 $72 $68 $73 #
vertex $-1 $37 $74 #
vertex $-1 $35 $75 #
ellipse-curve $-1 0 0 0.04 0 0 1 0.131021023319061 0.344955781874179 0 1 #
pid_name-sg-attrib $-1 $-1 $-1 $25 7 114 119 105 108 115 111 110 784252905 377 1 #
face $76 $77 $78 $3 $-1 $79 reversed single #
loop $-1 $80 $81 $25 #
cone-surface $-1 -0.269666460650931 -0.079 0.04 0 0 -1 -0.055 0 0 1 0 1 0 #
loop $-1 $-1 $82 $15 #
coedge $-1 $49 $49 $83 $84 0 $26 $-1 #
coedge $-1 $50 $50 $29 $51 1 $85 $-1 #
edge $-1 $86 $86 $50 $87 1 #
coedge $-1 $52 $52 $30 $53 1 $88 $-1 #
edge $-1 $89 $89 $52 $90 0 #
vertex $-1 $32 $91 #
ellipse-curve $-1 0 0 0.03 0 0 -1 -0.198075 0 0 1 #
coedge $-1 $92 $93 $33 $57 1 $94 $-1 #
edge $-1 $61 $66 $56 $95 1 #
coedge $-1 $96 $34 $39 $71 0 $60 $-1 #
coedge $-1 $34 $96 $92 $97 0 $60 $-1 #
loop $-1 $-1 $34 $98 #
vertex $-1 $35 $99 #
straight-curve $-1 0.131021023319061 0.344955781874179 0 0 0 1 #
coedge $-1 $100 $36 $93 $101 0 $65 $-1 #
coedge $-1 $36 $100 $38 $69 0 $65 $-1 #
loop $-1 $-1 $64 $102 #
vertex $-1 $37 $103 #
straight-curve $-1 0.0906590598191755 0.357689718712606 0 0 0 1 #
coedge $-1 $104 $38 $105 $106 1 $40 $-1 #
edge $-1 $107 $41 $38 $108 0 #
coedge $-1 $39 $104 $109 $110 1 $40 $-1 #
edge $-1 $42 $111 $39 $112 0 #
loop $-1 $113 $114 $73 #
face $115 $116 $40 $3 $-1 $117 forward single #
point $-1 0.0906590598191755 0.357689718712606 0.04 #
point $-1 0.131021023319061 0.344955781874179 0.04 #
pid_name-sg-attrib $-1 $-1 $-1 $45 7 114 119 105 108 115 111 110 784252905 378 1 #
face $118 $119 $120 $3 $-1 $121 reversed single #
loop $-1 $122 $123 $45 #
cone-surface $-1 -0.194038005472343 -0.203249237224436 0.04 0 0 -1 -0.055 0 0 1 0 1 0 #
loop $-1 $-1 $124 $25 #
coedge $-1 $81 $81 $125 $126 0 $46 $-1 #
coedge $-1 $82 $82 $127 $128 0 $48 $-1 #
coedge $-1 $83 $83 $49 $84 1 $129 $-1 #
edge $-1 $130 $130 $83 $131 0 #
loop $-1 $-1 $50 $73 #
vertex $-1 $51 $132 #
ellipse-curve $-1 0 0 0.0400000000000001 -4.33524550045868e-16 0 -1 0.208075 0 -9.0205620750794e-17 1 #
loop $-1 $-1 $52 $133 #
vertex $-1 $53 $134 #
ellipse-curve $-1 0 0 -6.93889390390723e-18 -3.5031649142533e-17 0 -1 -0.198075 0 6.93889390390723e-18 1 #
point $-1 0.198075 2.42563903533367e-17 0.03 #
coedge $-1 $135 $56 $59 $97 1 $94 $-1 #
coedge $-1 $56 $136 $63 $101 1 $94 $-1 #
loop $-1 $137 $92 $133 #
ellipse-curve $-1 0 0 0 0 0 -1 0.0906668625806965 0.357687740955394 0 1 #
coedge $-1 $59 $58 $138 $139 0 $60 $-1 #
edge $-1 $140 $61 $92 $141 1 #
face $142 $133 $60 $3 $-1 $143 reversed single #
point $-1 0.131021023319061 0.344955781874179 0 #
coedge $-1 $64 $63 $144 $145 0 $65 $-1 #
edge $-1 $66 $146 $93 $147 0 #
face $148 $149 $65 $3 $-1 $150 reversed single #
point $-1 0.0906590598191755 0.357689718712606 0 #
coedge $-1 $70 $68 $151 $152 1 $40 $-1 #
coedge $-1 $144 $153 $68 $106 0 $154 $-1 #
edge $-1 $155 $107 $68 $156 0 #
vertex $-1 $145 $157 #
ellipse-curve $-1 0.105891747376869 0.417789346246973 0.04 1.11803347587864e-16 5.0567202490603e-18 1 -0.0619366824279799 -0.00280131572936176 6.93889390390723e-18 1 #
coedge $-1 $158 $138 $70 $110 0 $159 $-1 #
edge $-1 $111 $160 $70 $161 1 #
vertex $-1 $139 $162 #
ellipse-curve $-1 0.52 0.349 0.04 1.7836809497951e-17 1.8544947825702e-19 1 -0.388978976680939 -0.00404421812582101 6.93889390390723e-18 1 #
loop $-1 $163 $164 $73 #
coedge $-1 $114 $114 $165 $166 1 $72 $-1 #
pid_name-sg-attrib $-1 $-1 $-1 $73 7 114 119 105 108 115 111 110 784252905 387 1 #
face $167 $98 $159 $3 $-1 $8 forward single #
plane-surface $-1 0 0 0.04 0 0 1 1 0 0 0 #
pid_name-sg-attrib $-1 $-1 $-1 $77 7 114 119 105 108 115 111 110 784252905 379 1 #
face $168 $169 $170 $3 $-1 $171 reversed single #
loop $-1 $172 $173 $77 #
cone-surface $-1 -0.0664172234264947 -0.273038005472343 0.04 0 0 -1 -0.055 0 0 1 0 1 0 #
loop $-1 $-1 $174 $45 #
coedge $-1 $123 $123 $175 $176 0 $78 $-1 #
coedge $-1 $124 $124 $177 $178 0 $80 $-1 #
coedge $-1 $125 $125 $81 $126 1 $179 $-1 #
edge $-1 $180 $180 $125 $181 0 #
coedge $-1 $127 $127 $82 $128 1 $182 $-1 #
edge $-1 $183 $183 $127 $184 1 #
loop $-1 $88 $83 $133 #
vertex $-1 $84 $185 #
ellipse-curve $-1 0 0.413 6.93889390390723e-18 -3.89825500219507e-16 0 -1 0.0178 0 -6.93889390390723e-18 1 #
point $-1 0.208075 2.54809967071591e-17 0.04 #
face $186 $-1 $94 $3 $-1 $187 reversed single #
point $-1 0.198075 -6.37065798877144e-17 0 #
coedge $-1 $188 $92 $189 $190 1 $94 $-1 #
coedge $-1 $93 $188 $191 $192 1 $94 $-1 #
loop $-1 $193 $194 $133 #
coedge $-1 $109 $189 $96 $139 1 $159 $-1 #
edge $-1 $111 $140 $138 $195 1 #
vertex $-1 $139 $196 #
ellipse-curve $-1 0.52 0.349 0 0 0 1 -0.388978976680939 -0.00404421812582101 0 1 #
pid_name-sg-attrib $-1 $-1 $-1 $98 7 114 119 105 108 115 111 110 784252905 389 1 #
cone-surface $-1 0.52 0.349 -0.004 0 0 1 0.389 0 0 1 0 1 0 #
coedge $-1 $191 $105 $100 $145 1 $154 $-1 #
edge $-1 $146 $107 $144 $197 0 #
vertex $-1 $145 $198 #
ellipse-curve $-1 0.105891747376869 0.417789346246973 0 0 0 -1 -0.0152248847727194 -0.0601016046679073 0 1 #
pid_name-sg-attrib $-1 $-1 $-1 $102 7 114 119 105 108 115 111 110 784252905 384 1 #
face $199 $200 $201 $3 $-1 $202 reversed single #
cone-surface $-1 0.105891747376869 0.417789346246973 -0.0200012400093796 0 0 1 -0.0152326875576933 -0.0600996275343674 0 1 0 1 0 #
coedge $-1 $203 $204 $104 $152 0 $201 $-1 #
edge $-1 $160 $155 $104 $205 0 #
coedge $-1 $105 $191 $203 $206 1 $154 $-1 #
loop $-1 $-1 $191 $200 #
vertex $-1 $206 $207 #
ellipse-curve $-1 0 0.413 0.04 0 0 -1 -0.0439496228240537 0.00210491178518624 0 1 #
point $-1 0.0439550649488889 0.414988030517612 0.04 #
coedge $-1 $189 $109 $204 $208 1 $159 $-1 #
loop $-1 $-1 $189 $116 #
vertex $-1 $208 $209 #
ellipse-curve $-1 0 0 0.04 -9.2396843798784e-18 3.64564812396187e-17 1 -0.090654672855619 0.357690830591785 -1.38777878078145e-17 1 #
point $-1 0.368879078924432 -0.00944590556075832 0.04 #
loop $-1 $210 $211 $73 #
coedge $-1 $164 $164 $212 $213 1 $113 $-1 #
coedge $-1 $165 $165 $114 $166 0 $214 $-1 #
edge $-1 $215 $215 $114 $216 1 #
pid_name-sg-attrib $-1 $-1 $-1 $116 7 114 119 105 108 115 111 110 784252905 388 1 #
pid_name-sg-attrib $-1 $-1 $-1 $119 7 114 119 105 108 115 111 110 784252905 380 1 #
face $217 $218 $219 $3 $-1 $220 reversed single #
loop $-1 $221 $222 $119 #
cone-surface $-1 0.079 -0.269666460650931 0.04 0 0 -1 -0.055 0 0 1 0 1 0 #
loop $-1 $-1 $223 $77 #
coedge $-1 $173 $173 $224 $225 0 $120 $-1 #
coedge $-1 $174 $174 $226 $227 0 $122 $-1 #
coedge $-1 $175 $175 $123 $176 1 $228 $-1 #
edge $-1 $229 $229 $175 $230 0 #
coedge $-1 $177 $177 $124 $178 1 $231 $-1 #
edge $-1 $232 $232 $177 $233 1 #
loop $-1 $129 $125 $133 #
vertex $-1 $126 $234 #
ellipse-curve $-1 -0.269666460650931 -0.079 6.93889390390723e-18 -1.26161707343768e-16 3.1833552799789e-32 -1 0.055 -1.38777878078145e-17 -6.93889390390723e-18 1 #
loop $-1 $85 $127 $73 #
vertex $-1 $128 $235 #
ellipse-curve $-1 0 0.413 0.04 0 0 -1 -0.0178 0 0 1 #
point $-1 -0.0178 0.413 0 #
pid_name-sg-attrib $-1 $-1 $-1 $133 7 114 119 105 108 115 111 110 784252905 390 1 #
plane-surface $-1 0 0 0 0 0 1 1 0 0 0 #
coedge $-1 $136 $135 $236 $237 1 $94 $-1 #
coedge $-1 $138 $158 $135 $190 0 $159 $-1 #
edge $-1 $238 $140 $135 $239 1 #
coedge $-1 $153 $144 $136 $192 0 $154 $-1 #
edge $-1 $146 $240 $136 $241 1 #
loop $-1 $242 $243 $133 #
coedge $-1 $194 $194 $244 $245 1 $137 $-1 #
straight-curve $-1 0.368879078924432 -0.00944590556075832 0 0 0 1 #
point $-1 0.368879078924432 -0.00944590556075832 0 #
straight-curve $-1 0.0439550649488889 0.414988030517612 0 -1.73472347597681e-16 1.38777878078145e-15 1 #
point $-1 0.0439550649488889 0.414988030517612 0 #
pid_name-sg-attrib $-1 $-1 $-1 $149 7 114 119 105 108 115 111 110 784252905 385 1 #
face $246 $73 $154 $3 $-1 $247 forward single #
loop $-1 $-1 $236 $149 #
cone-surface $-1 -0.105891747376869 0.417789346246973 0.060000716 0 0 -1 0.0152326875576933 -0.0600996275343674 0 1 0 1 0 #
coedge $-1 $236 $151 $153 $206 0 $201 $-1 #
coedge $-1 $151 $236 $158 $208 0 $201 $-1 #
ellipse-curve $-1 -0.105891747376869 0.417789346246973 0.04 0 0 1 0.0152370745138037 -0.0600985154580443 0 1 #
edge $-1 $155 $240 $153 $248 0 #
point $-1 -0.0439550649488889 0.414988030517612 0.04 #
edge $-1 $238 $160 $158 $249 1 #
point $-1 -0.0906590598191755 0.357689718712606 0.04 #
loop $-1 $250 $251 $73 #
coedge $-1 $211 $211 $252 $253 1 $163 $-1 #
coedge $-1 $212 $212 $164 $213 0 $254 $-1 #
edge $-1 $255 $255 $164 $256 1 #
loop $-1 $-1 $165 $257 #
vertex $-1 $166 $258 #
ellipse-curve $-1 -0.079 0.269666460650931 0.04 0 0 -1 -0.055 0 0 1 #
pid_name-sg-attrib $-1 $-1 $-1 $169 7 114 119 105 108 115 111 110 784252905 381 1 #
face $259 $257 $260 $3 $-1 $261 reversed single #
loop $-1 $262 $263 $169 #
cone-surface $-1 -0.273038005472343 0.0664172234264947 0.04 0 0 -1 -0.055 0 0 1 0 1 0 #
loop $-1 $-1 $264 $119 #
coedge $-1 $222 $222 $265 $266 0 $170 $-1 #
coedge $-1 $223 $223 $267 $268 0 $172 $-1 #
coedge $-1 $224 $224 $173 $225 1 $269 $-1 #
edge $-1 $270 $270 $224 $271 0 #
coedge $-1 $226 $226 $174 $227 1 $272 $-1 #
edge $-1 $273 $273 $226 $274 1 #
loop $-1 $179 $175 $133 #
vertex $-1 $176 $275 #
ellipse-curve $-1 -0.194038005472343 -0.203249237224436 6.93889390390723e-18 -1.26161707343768e-16 0 -1 0.055 0 -6.93889390390723e-18 1 #
loop $-1 $182 $177 $73 #
vertex $-1 $178 $276 #
ellipse-curve $-1 -0.269666460650931 -0.079 0.04 0 0 -1 -0.055 0 0 1 #
point $-1 -0.324666460650931 -0.079 0 #
point $-1 -0.0178 0.413 0.04 #
coedge $-1 $204 $203 $188 $237 0 $201 $-1 #
edge $-1 $240 $238 $188 $277 0 #
vertex $-1 $208 $278 #
ellipse-curve $-1 0 0 0 0 0 -1 0.368879078924432 -0.00944590556075812 0 1 #
vertex $-1 $206 $279 #
ellipse-curve $-1 0 0.413 6.93889390390723e-18 1.57565451124682e-16 -7.54639866509651e-18 -1 -0.0439496228240536 0.00210491178518879 -6.94082665051753e-18 1 #
loop $-1 $280 $281 $133 #
coedge $-1 $243 $243 $282 $283 1 $193 $-1 #
coedge $-1 $244 $244 $194 $245 0 $284 $-1 #
edge $-1 $285 $285 $194 $286 0 #
pid_name-sg-attrib $-1 $-1 $-1 $200 7 114 119 105 108 115 111 110 784252905 386 1 #
cone-surface $-1 0 0.413 0.04 0 0 -1 -0.044 0 0 1 0 1 0 #
straight-curve $-1 -0.0439550649488889 0.414988030517612 0.04 0 1.38777878078145e-15 -1 #
straight-curve $-1 -0.0906590598191755 0.357689718712606 0.04 0 0 -1 #
loop $-1 $272 $267 $73 #
coedge $-1 $251 $251 $264 $287 1 $210 $-1 #
coedge $-1 $252 $252 $211 $253 0 $262 $-1 #
edge $-1 $288 $288 $211 $289 1 #
loop $-1 $-1 $212 $218 #
vertex $-1 $213 $290 #
ellipse-curve $-1 -0.203249237224436 0.194038005472343 0.04 0 0 -1 -0.055 0 0 1 #
face $291 $102 $284 $3 $-1 $292 reversed single #
point $-1 -0.134 0.269666460650931 0.04 #
pid_name-sg-attrib $-1 $-1 $-1 $218 7 114 119 105 108 115 111 110 784252905 382 1 #
loop $-1 $254 $282 $218 #
cone-surface $-1 -0.203249237224436 0.194038005472343 0.04 0 0 -1 -0.055 0 0 1 0 1 0 #
loop $-1 $-1 $252 $169 #
coedge $-1 $263 $263 $281 $293 0 $219 $-1 #
coedge $-1 $264 $264 $251 $287 0 $221 $-1 #
coedge $-1 $265 $265 $222 $266 1 $280 $-1 #
edge $-1 $294 $294 $265 $295 0 #
coedge $-1 $267 $267 $223 $268 1 $250 $-1 #
edge $-1 $296 $296 $267 $297 1 #
loop $-1 $228 $224 $133 #
vertex $-1 $225 $298 #
ellipse-curve $-1 -0.0664172234264947 -0.273038005472343 6.93889390390723e-18 -1.26161707343768e-16 0 -1 0.055 0 -6.93889390390723e-18 1 #
loop $-1 $231 $226 $73 #
vertex $-1 $227 $299 #
ellipse-curve $-1 -0.194038005472343 -0.203249237224436 0.04 0 0 -1 -0.055 0 0 1 #
point $-1 -0.249038005472343 -0.203249237224436 0 #
point $-1 -0.324666460650931 -0.079 0.04 #
ellipse-curve $-1 -0.105891747376869 0.417789346246973 0 0 0 -1 0.0619418564035597 -0.00268447858638987 0 1 #
point $-1 -0.0906590598191755 0.357689718712606 0 #
point $-1 -0.0439550649488889 0.414988030517612 0 #
loop $-1 $269 $265 $133 #
coedge $-1 $281 $281 $263 $293 1 $242 $-1 #
coedge $-1 $282 $282 $243 $283 0 $260 $-1 #
edge $-1 $300 $300 $243 $301 0 #
loop $-1 $214 $244 $257 #
vertex $-1 $245 $302 #
ellipse-curve $-1 -0.079 0.269666460650931 6.93889390390723e-18 -1.26161707343768e-16 0 -1 0.055 0 -6.93889390390723e-18 1 #
edge $-1 $303 $303 $251 $304 1 #
vertex $-1 $253 $305 #
ellipse-curve $-1 -0.273038005472343 0.0664172234264947 0.04 0 0 -1 -0.055 0 0 1 #
point $-1 -0.258249237224436 0.194038005472343 0.04 #
pid_name-sg-attrib $-1 $-1 $-1 $257 7 114 119 105 108 115 111 110 784252905 383 1 #
cone-surface $-1 -0.079 0.269666460650931 0.04 0 0 -1 -0.055 0 0 1 0 1 0 #
edge $-1 $306 $306 $281 $307 0 #
vertex $-1 $266 $308 #
ellipse-curve $-1 0.079 -0.269666460650931 6.93889390390723e-18 -1.26161707343768e-16 0 -1 0.055 0 -6.93889390390723e-18 1 #
vertex $-1 $268 $309 #
ellipse-curve $-1 -0.0664172234264947 -0.273038005472343 0.04 0 0 -1 -0.055 0 0 1 #
point $-1 -0.121417223426495 -0.273038005472343 0 #
point $-1 -0.249038005472343 -0.203249237224436 0.04 #
vertex $-1 $283 $310 #
ellipse-curve $-1 -0.203249237224436 0.194038005472343 6.93889390390723e-18 -1.26161707343768e-16 0 -1 0.055 0 -6.93889390390723e-18 1 #
point $-1 -0.134 0.269666460650931 0 #
vertex $-1 $287 $311 #
ellipse-curve $-1 0.079 -0.269666460650931 0.04 0 0 -1 -0.055 0 0 1 #
point $-1 -0.328038005472343 0.0664172234264947 0.04 #
vertex $-1 $293 $312 #
ellipse-curve $-1 -0.273038005472343 0.0664172234264947 6.93889390390723e-18 -1.26161707343768e-16 3.1833552799789e-32 -1 0.055 -1.38777878078145e-17 -6.93889390390723e-18 1 #
point $-1 0.024 -0.269666460650931 0 #
point $-1 -0.121417223426495 -0.273038005472343 0.04 #
point $-1 -0.258249237224436 0.194038005472343 0 #
point $-1 0.024 -0.269666460650931 0.04 #
point $-1 -0.328038005472343 0.0664172234264948 0 #
