600 0 2 0           
24 FBMach with ACIS - 6.0.3 13 ACIS 6.0.3 NT 24 Tue May 22 12:24:21 2001 
1 9.9999999999999995e-007 1e-010 
body $2 $3 $-1 $4 #
bdycol-kcp $-1 1 3 $5 $6 $7 #
model_id-kcp-attrib $-1 $-1 $-1 $0 1 990548661 40 -114819071 1 #
lump $-1 $-1 $8 $0 #
transform $-1 1 0 0 0 1 0 0 0 1 0 0 0 1 no_rotate no_reflect no_shear #
body $9 $10 $-1 $11 #
body $12 $13 $-1 $14 #
body $15 $16 $-1 $17 #
shell $-1 $-1 $-1 $18 $-1 $3 #
model_id-kcp-attrib $-1 $-1 $-1 $5 1 990548661 40 -114819070 1 #
lump $-1 $-1 $19 $5 #
transform $-1 1 0 0 0 1 0 0 0 1 0 0 0 1 no_rotate no_reflect no_shear #
rgb_color-st-attrib $-1 $20 $-1 $6 1 1 0.5 #
lump $-1 $-1 $21 $6 #
transform $-1 1 0 0 0 -1 0 0 0 -1 0 0 -23.75 1 rotate no_reflect no_shear #
rgb_color-st-attrib $-1 $22 $-1 $7 0.5 1 1 #
lump $-1 $-1 $23 $7 #
transform $-1 1 0 0 0 1 0 0 0 1 0 0 0 1 no_rotate no_reflect no_shear #
face $24 $25 $26 $8 $-1 $27 forward single #
shell $-1 $-1 $-1 $28 $-1 $10 #
model_id-kcp-attrib $-1 $-1 $12 $6 1 990548661 50 -114163709 1 #
shell $-1 $-1 $-1 $29 $-1 $13 #
model_id-kcp-attrib $-1 $-1 $15 $7 1 990548661 100 -110886908 1 #
shell $-1 $-1 $-1 $30 $-1 $16 #
model_id-kcp-attrib $-1 $-1 $-1 $18 1 990548661 40 -114819071 2 #
face $31 $32 $33 $8 $-1 $34 forward single #
loop $-1 $35 $36 $18 #
cone-surface $-1 0 0 -23.75 0 0 -1 -5.75 4.0152035396696002e-014 0 1 I I -0.70710678118654702 0.70710678118654702 5.75 forward I I I I #
face $37 $38 $39 $19 $-1 $40 forward single #
face $-1 $41 $42 $21 $-1 $43 reversed single #
face $-1 $44 $45 $23 $-1 $46 reversed single #
model_id-kcp-attrib $-1 $-1 $-1 $25 1 990548661 40 -114819071 3 #
face $47 $48 $49 $8 $-1 $50 forward single #
loop $-1 $51 $52 $25 #
cone-surface $-1 0 0 0 0 0 1 7 0 0 1 I I 0 1 7 forward I I I I #
loop $-1 $-1 $53 $18 #
coedge $-1 $36 $36 $54 $55 forward $26 $-1 #
model_id-kcp-attrib $-1 $-1 $-1 $28 1 990548661 40 -114819070 3 #
face $56 $57 $58 $19 $-1 $59 reversed single #
loop $-1 $-1 $60 $28 #
plane-surface $-1 0 0 25 0 0 1 1 0 0 forward_v I I I I #
face $-1 $61 $62 $21 $-1 $63 forward single #
loop $-1 $64 $65 $29 #
cone-surface $-1 0 0 2.25 0 0 1 3.5 0 0 1 I I -0.70710678118654757 0.70710678118654757 3.5 forward I I I I #
face $-1 $66 $67 $23 $-1 $46 reversed single #
loop $-1 $-1 $68 $30 #
cone-surface $-1 -2.6244062631887405e-032 0 -25 0 0 -1 7 0 0 1 I I 0 1 7 forward I I I I #
model_id-kcp-attrib $-1 $69 $-1 $32 1 990548661 40 -114819071 6 #
face $70 $-1 $71 $8 $-1 $72 forward single #
loop $-1 $-1 $73 $32 #
plane-surface $-1 0 0 -25 0 0 -1 -1 0 0 forward_v I I I I #
loop $-1 $-1 $54 $25 #
coedge $-1 $52 $52 $74 $75 reversed $33 $-1 #
coedge $-1 $53 $53 $73 $76 forward $35 $-1 #
coedge $-1 $54 $54 $36 $55 reversed $51 $-1 #
edge $77 $78 -3.1415926535897998 $78 3.1415926535897865 $54 $79 forward 7 unknown #
model_id-kcp-attrib $-1 $-1 $-1 $38 1 990548661 40 -114819070 2 #
face $-1 $80 $81 $19 $-1 $82 reversed single #
loop $-1 $-1 $83 $38 #
plane-surface $-1 0 0 -25 0 0 1 1 0 0 forward_v I I I I #
coedge $-1 $84 $85 $86 $87 forward $39 $-1 #
face $-1 $-1 $88 $21 $-1 $89 forward single #
loop $-1 $90 $91 $41 #
cone-surface $-1 0 0 0 0 0 1 7 0 0 1 I I 0 1 7 forward I I I I #
loop $-1 $-1 $92 $29 #
coedge $-1 $65 $65 $93 $94 reversed $42 $-1 #
face $-1 $95 $96 $23 $-1 $46 reversed single #
loop $-1 $-1 $97 $44 #
coedge $-1 $98 $99 $100 $101 forward $45 $-1 #
model_id-kcp-attrib $-1 $-1 $47 $32 1 990548661 40 -114819071 4 #
model_id-kcp-attrib $-1 $-1 $-1 $48 1 990548661 40 -114819071 5 #
loop $-1 $-1 $74 $48 #
plane-surface $-1 0 0 25 0 0 1 1 0 0 forward_v I I I I #
coedge $-1 $73 $73 $53 $76 reversed $49 $-1 #
coedge $-1 $74 $74 $52 $75 forward $71 $-1 #
edge $-1 $102 0 $102 6.2831853071795862 $74 $103 forward 7 unknown #
edge $104 $105 -3.1415926535897865 $105 3.1415926535897998 $73 $106 forward 7 unknown #
attrib_edge_convexity-kcp-attrib $-1 $107 $-1 $55 1 #
vertex $-1 $55 $108 #
ellipse-curve $-1 0 0 -22.5 0 0 -1 7 0 0 1 I I #
face $-1 $109 $110 $19 $-1 $111 reversed single #
loop $-1 $-1 $112 $57 #
plane-surface $-1 0 -7 0 0 1 0 0 0 1 forward_v I I I I #
coedge $-1 $113 $114 $115 $116 forward $58 $-1 #
coedge $-1 $117 $60 $118 $119 forward $39 $-1 #
coedge $-1 $60 $117 $120 $121 forward $39 $-1 #
coedge $-1 $122 $123 $60 $87 reversed $124 $-1 #
edge $-1 $125 -7 $126 7 $86 $127 forward 7 unknown #
loop $-1 $128 $93 $61 #
plane-surface $-1 0 0 1.25 0 0 1 1 0 0 forward_v I I I I #
loop $-1 $-1 $129 $41 #
coedge $-1 $91 $91 $92 $130 reversed $62 $-1 #
coedge $-1 $92 $92 $91 $130 forward $64 $-1 #
coedge $-1 $93 $93 $65 $94 forward $88 $-1 #
edge $-1 $131 -3.1415926535897931 $131 3.1415926535897931 $93 $132 forward 7 unknown #
face $-1 $133 $134 $23 $-1 $46 reversed single #
loop $-1 $-1 $135 $66 #
coedge $-1 $136 $100 $137 $138 reversed $67 $-1 #
coedge $-1 $139 $68 $140 $141 reversed $45 $-1 #
coedge $-1 $68 $139 $142 $143 reversed $45 $-1 #
coedge $-1 $97 $144 $145 $101 reversed $67 $-1 #
edge $-1 $146 -50 $147 0 $145 $148 forward 7 unknown #
vertex $-1 $75 $149 #
ellipse-curve $-1 0 0 25 0 0 1 7 0 0 1 I I #
attrib_edge_convexity-kcp-attrib $-1 $150 $-1 $76 1 #
vertex $-1 $76 $151 #
ellipse-curve $-1 0 0 -25 0 0 1 4.5 0 0 1 I I #
convexity-sys-attrib $-1 $-1 $77 $55 #
point $-1 -7 -4.8880738743803899e-014 -22.5 #
face $-1 $152 $153 $19 $-1 $154 reversed single #
loop $-1 $-1 $155 $80 #
plane-surface $-1 -7 0 0 1 0 0 0 0 -1 forward_v I I I I #
coedge $-1 $156 $120 $157 $158 forward $81 $-1 #
coedge $-1 $159 $83 $156 $160 forward $58 $-1 #
coedge $-1 $83 $159 $161 $162 forward $58 $-1 #
coedge $-1 $123 $122 $83 $116 reversed $124 $-1 #
edge $-1 $163 -7 $164 7 $115 $165 forward 7 unknown #
coedge $-1 $85 $84 $166 $167 forward $39 $-1 #
coedge $-1 $168 $169 $84 $119 reversed $153 $-1 #
edge $-1 $126 -7 $170 7 $118 $171 forward 7 unknown #
coedge $-1 $112 $172 $85 $121 reversed $81 $-1 #
edge $-1 $173 -7 $125 7 $120 $174 forward 7 unknown #
coedge $-1 $115 $86 $172 $175 forward $124 $-1 #
coedge $-1 $86 $115 $168 $176 reversed $124 $-1 #
loop $-1 $-1 $122 $152 #
vertex $-1 $87 $177 #
vertex $-1 $87 $178 #
straight-curve $-1 7 0 25 0 1 0 I I #
loop $-1 $-1 $179 $61 #
coedge $-1 $129 $129 $179 $180 reversed $90 $-1 #
edge $-1 $181 0 $181 6.2831853071795862 $91 $182 forward 7 unknown #
vertex $-1 $94 $183 #
ellipse-curve $-1 0 0 1.25 0 0 -1 4.5 0 0 1 I I #
face $-1 $184 $185 $23 $-1 $186 reversed single #
loop $-1 $-1 $187 $95 #
coedge $-1 $188 $189 $190 $191 reversed $96 $-1 #
coedge $-1 $144 $97 $192 $193 forward $67 $-1 #
coedge $-1 $194 $195 $97 $138 forward $196 $-1 #
edge $-1 $197 -3.1415926535897931 $146 -1.5707963267948966 $137 $198 forward 7 unknown #
coedge $-1 $99 $98 $199 $200 reversed $45 $-1 #
coedge $-1 $201 $202 $98 $141 forward $203 $-1 #
edge $-1 $204 0 $147 1.5707963267948966 $140 $205 forward 7 unknown #
coedge $-1 $206 $207 $99 $143 forward $208 $-1 #
edge $-1 $146 -1.5707963267948966 $209 0 $142 $198 forward 7 unknown #
coedge $-1 $100 $136 $210 $211 reversed $67 $-1 #
coedge $-1 $212 $213 $214 $101 forward $215 $-1 #
vertex $-1 $216 $217 #
vertex $-1 $218 $219 #
straight-curve $-1 -2.6244062631887405e-032 7 -25 0 0 -1 I I #
point $-1 7 0 25 #
convexity-sys-attrib $-1 $-1 $104 $76 #
point $-1 -4.5 -3.14233320495882e-014 -25 #
face $-1 $-1 $124 $19 $-1 $220 reversed single #
loop $-1 $-1 $168 $109 #
plane-surface $-1 0 7 0 0 -1 0 0 0 -1 forward_v I I I I #
coedge $-1 $221 $166 $169 $222 forward $110 $-1 #
coedge $-1 $172 $112 $113 $160 reversed $81 $-1 #
coedge $-1 $166 $221 $112 $158 reversed $110 $-1 #
edge $-1 $173 -25 $223 25 $157 $224 forward 7 unknown #
coedge $-1 $114 $113 $221 $225 forward $58 $-1 #
edge $-1 $164 -7 $223 7 $156 $226 forward 7 unknown #
coedge $-1 $169 $168 $114 $162 reversed $153 $-1 #
edge $-1 $227 -7 $163 7 $161 $228 forward 7 unknown #
vertex $-1 $116 $229 #
vertex $-1 $175 $230 #
straight-curve $-1 7 0 -25 0 -1 0 I I #
coedge $-1 $155 $157 $117 $167 reversed $110 $-1 #
edge $-1 $170 -7 $173 7 $166 $231 forward 7 unknown #
coedge $-1 $161 $118 $123 $176 forward $153 $-1 #
coedge $-1 $118 $161 $155 $222 reversed $153 $-1 #
vertex $-1 $119 $232 #
straight-curve $-1 0 7 25 -1 0 0 I I #
coedge $-1 $120 $156 $122 $175 reversed $81 $-1 #
vertex $-1 $167 $233 #
straight-curve $-1 0 -7 25 1 0 0 I I #
edge $-1 $125 -25 $164 25 $122 $234 forward 7 unknown #
edge $-1 $126 -25 $163 25 $123 $235 forward 7 unknown #
point $-1 7 -7 25 #
point $-1 7 7 25 #
coedge $-1 $179 $179 $129 $180 forward $128 $-1 #
edge $-1 $236 0 $236 6.2831853071795862 $179 $237 forward 7 unknown #
vertex $-1 $130 $238 #
ellipse-curve $-1 0 0 -1.25 0 0 -1 7 0 0 1 I I #
point $-1 -4.5 5.5107285922006977e-016 1.25 #
face $-1 $239 $215 $23 $-1 $240 reversed single #
loop $-1 $-1 $199 $133 #
plane-surface $-1 7 0 0 -1 0 0 0 0 1 forward_v I I I I #
coedge $-1 $192 $241 $242 $243 reversed $134 $-1 #
coedge $-1 $244 $135 $245 $246 reversed $96 $-1 #
coedge $-1 $135 $244 $139 $200 forward $96 $-1 #
coedge $-1 $247 $248 $135 $191 forward $249 $-1 #
edge $-1 $250 -1.5707963267948966 $204 0 $190 $205 forward 7 unknown #
coedge $-1 $251 $187 $252 $193 reversed $134 $-1 #
edge $-1 $197 -50 $253 0 $252 $254 forward 7 unknown #
coedge $-1 $195 $137 $213 $216 forward $196 $-1 #
coedge $-1 $137 $194 $255 $256 forward $196 $-1 #
loop $-1 $-1 $137 $257 #
vertex $-1 $258 $259 #
ellipse-curve $-1 -2.6244062631887405e-032 0 25 0 0 -1 7 0 0 1 I I #
coedge $-1 $260 $261 $262 $200 forward $185 $-1 #
edge $-1 $209 -50 $204 0 $199 $263 forward 7 unknown #
coedge $-1 $202 $140 $264 $218 forward $203 $-1 #
coedge $-1 $140 $201 $260 $265 forward $203 $-1 #
loop $-1 $-1 $140 $266 #
vertex $-1 $267 $268 #
ellipse-curve $-1 -2.6244062631887405e-032 0 -25 0 0 1 7 0 0 1 I I #
coedge $-1 $207 $142 $261 $269 forward $208 $-1 #
coedge $-1 $142 $206 $270 $271 forward $208 $-1 #
loop $-1 $-1 $142 $272 #
vertex $-1 $269 $273 #
coedge $-1 $274 $275 $144 $211 forward $276 $-1 #
edge $-1 $147 1.5707963267948966 $253 3.1415926535897931 $210 $205 forward 7 unknown #
coedge $-1 $277 $145 $275 $278 reversed $215 $-1 #
coedge $-1 $145 $277 $194 $216 reversed $215 $-1 #
coedge $-1 $270 $264 $68 $101 reversed $279 $-1 #
loop $-1 $-1 $145 $184 #
edge $-1 $146 2.6244062631887405e-032 $280 7 $213 $281 forward 7 unknown #
point $-1 -2.6244062631887405e-032 7 25 #
edge $-1 $147 -2.6244062631887405e-032 $282 7 $264 $283 forward 7 unknown #
point $-1 -2.6244062631887405e-032 7 -25 #
plane-surface $-1 7 0 0 -1 0 0 0 0 1 forward_v I I I I #
coedge $-1 $157 $155 $159 $225 reversed $110 $-1 #
edge $-1 $170 -25 $227 25 $169 $284 forward 7 unknown #
vertex $-1 $225 $285 #
straight-curve $-1 -7 -7 0 0 0 -1 I I #
edge $-1 $223 -7 $227 7 $221 $286 forward 7 unknown #
straight-curve $-1 0 -7 -25 -1 0 0 I I #
vertex $-1 $162 $287 #
straight-curve $-1 0 7 -25 1 0 0 I I #
point $-1 7 7 -25 #
point $-1 7 -7 -25 #
straight-curve $-1 -7 0 25 0 -1 0 I I #
point $-1 -7 7 25 #
point $-1 -7 -7 25 #
straight-curve $-1 7 -7 0 0 0 -1 I I #
straight-curve $-1 7 7 0 0 0 -1 I I #
vertex $-1 $180 $288 #
ellipse-curve $-1 0 0 1.25 0 0 1 7 0 0 1 I I #
point $-1 7 0 -1.25 #
face $-1 $289 $290 $23 $-1 $291 reversed single #
plane-surface $-1 0 7 0 0 -1 0 0 0 -1 forward_v I I I I #
coedge $-1 $187 $251 $188 $246 forward $134 $-1 #
coedge $-1 $292 $293 $187 $243 forward $294 $-1 #
edge $-1 $253 -3.1415926535897931 $250 -1.5707963267948966 $242 $205 forward 7 unknown #
coedge $-1 $189 $188 $295 $296 reversed $96 $-1 #
coedge $-1 $297 $298 $299 $246 forward $300 $-1 #
edge $-1 $301 -50 $250 0 $245 $302 forward 7 unknown #
coedge $-1 $248 $190 $303 $267 forward $249 $-1 #
coedge $-1 $190 $247 $297 $304 forward $249 $-1 #
loop $-1 $-1 $190 $305 #
vertex $-1 $306 $307 #
coedge $-1 $241 $192 $308 $309 reversed $134 $-1 #
coedge $-1 $310 $311 $312 $193 forward $290 $-1 #
vertex $-1 $313 $314 #
straight-curve $-1 -7 0 -25 0 0 -1 I I #
coedge $-1 $315 $312 $195 $256 reversed $316 $-1 #
edge $-1 $280 -7 $197 0 $255 $317 forward 7 unknown #
face $-1 $272 $196 $23 $-1 $318 forward single #
edge $-1 $197 0 $319 7 $311 $317 forward 7 unknown #
point $-1 -7 0 25 #
coedge $-1 $320 $199 $202 $265 reversed $185 $-1 #
coedge $-1 $199 $320 $206 $269 reversed $185 $-1 #
coedge $-1 $321 $303 $189 $200 reversed $322 $-1 #
straight-curve $-1 7 0 -25 0 0 -1 I I #
coedge $-1 $214 $323 $201 $218 reversed $279 $-1 #
edge $-1 $282 -7 $204 0 $260 $324 forward 7 unknown #
face $-1 $325 $203 $23 $-1 $326 reversed single #
edge $-1 $204 0 $327 7 $303 $324 forward 7 unknown #
point $-1 7 0 -25 #
edge $-1 $209 0 $328 7 $261 $329 forward 7 unknown #
coedge $-1 $323 $214 $207 $271 reversed $279 $-1 #
edge $-1 $328 -7 $146 2.6244062631887405e-032 $270 $281 forward 7 unknown #
face $-1 $330 $208 $23 $-1 $318 forward single #
point $-1 7 0 25 #
coedge $-1 $275 $210 $331 $313 forward $276 $-1 #
coedge $-1 $210 $274 $212 $278 forward $276 $-1 #
loop $-1 $-1 $210 $325 #
coedge $-1 $213 $212 $315 $332 reversed $215 $-1 #
edge $-1 $333 -7 $147 -2.6244062631887405e-032 $212 $283 forward 7 unknown #
loop $-1 $-1 $214 $334 #
vertex $-1 $216 $335 #
straight-curve $-1 0 7 25 -1 0 0 I I #
vertex $-1 $265 $336 #
straight-curve $-1 0 7 -25 1 0 0 I I #
straight-curve $-1 -7 7 0 0 0 -1 I I #
point $-1 -7 -7 -25 #
straight-curve $-1 -7 0 -25 0 1 0 I I #
point $-1 -7 7 -25 #
point $-1 7 0 1.25 #
face $-1 $257 $337 $23 $-1 $318 forward single #
loop $-1 $-1 $252 $239 #
plane-surface $-1 -7 0 0 1 0 0 0 0 -1 forward_v I I I I #
coedge $-1 $293 $242 $338 $306 forward $294 $-1 #
coedge $-1 $242 $292 $310 $339 forward $294 $-1 #
loop $-1 $-1 $242 $340 #
coedge $-1 $341 $342 $244 $296 forward $343 $-1 #
edge $-1 $209 0 $301 1.5707963267948966 $295 $198 forward 7 unknown #
coedge $-1 $344 $245 $248 $304 reversed $300 $-1 #
coedge $-1 $245 $344 $341 $345 reversed $300 $-1 #
coedge $-1 $346 $338 $241 $246 reversed $347 $-1 #
loop $-1 $-1 $245 $348 #
vertex $-1 $345 $349 #
straight-curve $-1 -2.6244062631887405e-032 -7 -25 0 0 -1 I I #
coedge $-1 $262 $350 $247 $267 reversed $322 $-1 #
edge $-1 $327 -7 $250 2.6244062631887405e-032 $297 $351 forward 7 unknown #
face $-1 $266 $249 $23 $-1 $326 reversed single #
edge $-1 $250 2.6244062631887405e-032 $352 7 $338 $351 forward 7 unknown #
point $-1 -2.6244062631887405e-032 -7 -25 #
coedge $-1 $353 $354 $251 $309 forward $337 $-1 #
edge $-1 $301 1.5707963267948966 $197 3.1415926535897931 $308 $198 forward 7 unknown #
coedge $-1 $355 $252 $293 $339 reversed $290 $-1 #
coedge $-1 $252 $355 $353 $258 reversed $290 $-1 #
coedge $-1 $255 $331 $136 $193 reversed $316 $-1 #
edge $-1 $253 0 $333 7 $331 $356 forward 7 unknown #
point $-1 -7 0 -25 #
coedge $-1 $331 $255 $277 $332 forward $316 $-1 #
loop $-1 $-1 $312 $357 #
straight-curve $-1 -7 0 25 0 -1 0 I I #
plane-surface $-1 0 0 25 0 0 1 1 0 0 forward_v I I I I #
vertex $-1 $258 $358 #
coedge $-1 $261 $260 $323 $359 reversed $185 $-1 #
coedge $-1 $350 $262 $342 $360 reversed $322 $-1 #
loop $-1 $-1 $262 $361 #
coedge $-1 $264 $270 $320 $359 forward $279 $-1 #
straight-curve $-1 7 0 -25 0 -1 0 I I #
face $-1 $362 $276 $23 $-1 $326 reversed single #
plane-surface $-1 0 0 -25 0 0 1 1 0 0 forward_v I I I I #
vertex $-1 $363 $364 #
vertex $-1 $269 $365 #
straight-curve $-1 7 0 25 0 1 0 I I #
face $-1 $348 $343 $23 $-1 $318 forward single #
coedge $-1 $312 $315 $274 $313 reversed $316 $-1 #
edge $-1 $280 -25 $333 25 $277 $366 forward 7 unknown #
vertex $-1 $278 $367 #
face $-1 $361 $279 $23 $-1 $240 reversed single #
point $-1 -7 7 25 #
point $-1 7 7 -25 #
loop $-1 $-1 $308 $289 #
coedge $-1 $299 $368 $292 $306 reversed $347 $-1 #
edge $-1 $352 -7 $253 0 $310 $356 forward 7 unknown #
face $-1 $305 $294 $23 $-1 $326 reversed single #
coedge $-1 $342 $295 $298 $345 forward $343 $-1 #
coedge $-1 $295 $341 $321 $360 forward $343 $-1 #
loop $-1 $-1 $295 $330 #
coedge $-1 $298 $297 $350 $363 reversed $300 $-1 #
edge $-1 $301 -2.6244062631887405e-032 $369 7 $298 $370 forward 7 unknown #
coedge $-1 $368 $299 $354 $371 reversed $347 $-1 #
loop $-1 $-1 $299 $362 #
face $-1 $340 $300 $23 $-1 $372 reversed single #
point $-1 -2.6244062631887405e-032 -7 25 #
coedge $-1 $303 $321 $344 $363 forward $322 $-1 #
straight-curve $-1 0 -7 -25 -1 0 0 I I #
vertex $-1 $339 $373 #
coedge $-1 $354 $308 $311 $258 forward $337 $-1 #
coedge $-1 $308 $353 $346 $371 forward $337 $-1 #
coedge $-1 $311 $310 $368 $374 reversed $290 $-1 #
straight-curve $-1 -7 0 -25 0 1 0 I I #
face $-1 $334 $316 $23 $-1 $291 reversed single #
point $-1 -7 -7 25 #
edge $-1 $328 -25 $282 25 $320 $375 forward 7 unknown #
edge $-1 $369 -7 $209 0 $321 $329 forward 7 unknown #
face $-1 $-1 $322 $23 $-1 $186 reversed single #
face $-1 $357 $347 $23 $-1 $372 reversed single #
edge $-1 $369 -25 $327 25 $350 $376 forward 7 unknown #
point $-1 7 -7 -25 #
point $-1 7 7 25 #
straight-curve $-1 -7 7 0 0 0 -1 I I #
point $-1 -7 7 -25 #
coedge $-1 $338 $346 $355 $374 forward $347 $-1 #
vertex $-1 $360 $377 #
straight-curve $-1 0 -7 25 1 0 0 I I #
edge $-1 $319 -7 $301 -2.6244062631887405e-032 $346 $370 forward 7 unknown #
plane-surface $-1 0 -7 0 0 1 0 0 0 1 forward_v I I I I #
point $-1 -7 -7 -25 #
edge $-1 $319 -25 $352 25 $355 $378 forward 7 unknown #
straight-curve $-1 7 7 0 0 0 -1 I I #
straight-curve $-1 7 -7 0 0 0 -1 I I #
point $-1 7 -7 25 #
straight-curve $-1 -7 -7 0 0 0 -1 I I #
End-of-ACIS-data 