600 0 2 0           
24 FBMach with ACIS - 6.0.3 13 ACIS 6.0.3 NT 24 Wed May 23 20:25:33 2001 
1 9.9999999999999995e-007 1e-010 
body $2 $3 $-1 $4 #
bdycol-kcp $-1 1 3 $5 $6 $7 #
model_id-kcp-attrib $-1 $-1 $-1 $0 1 990663932 60 -1422131199 1 #
lump $-1 $-1 $8 $0 #
transform $-1 1 0 0 0 1 0 0 0 1 0 0 0 1 no_rotate no_reflect no_shear #
body $9 $10 $-1 $11 #
body $12 $13 $-1 $14 #
body $15 $16 $-1 $17 #
shell $-1 $-1 $-1 $18 $-1 $3 #
model_id-kcp-attrib $-1 $-1 $-1 $5 1 990663932 60 -1422131198 1 #
lump $-1 $-1 $19 $5 #
transform $-1 1 0 0 0 1 0 0 0 1 0 0 5 1 no_rotate no_reflect no_shear #
rgb_color-st-attrib $-1 $20 $-1 $6 0 0 1 #
lump $-1 $-1 $21 $6 #
transform $-1 1 0 0 0 1 0 0 0 1 0 0 5 1 no_rotate no_reflect no_shear #
rgb_color-st-attrib $-1 $22 $-1 $7 0.59999999999999998 0.90000000000000002 1 #
lump $-1 $-1 $23 $7 #
transform $-1 1 0 0 0 1 0 0 0 1 0 0 5 1 no_rotate no_reflect no_shear #
face $24 $25 $26 $8 $-1 $27 reversed single #
shell $-1 $-1 $-1 $28 $-1 $10 #
model_id-kcp-attrib $-1 $-1 $12 $6 1 990663932 580 -1421606909 1 #
shell $-1 $-1 $-1 $29 $-1 $13 #
model_id-kcp-attrib $-1 $-1 $15 $7 1 990663932 841 -1421279228 1 #
shell $-1 $-1 $-1 $30 $-1 $16 #
model_id-kcp-attrib $-1 $-1 $-1 $18 1 990663932 60 -1422131199 2 #
face $31 $32 $33 $8 $-1 $34 reversed single #
loop $-1 $-1 $35 $18 #
plane-surface $-1 -40 0 0 1 0 0 0 0 -1 forward_v I I I I #
face $36 $37 $38 $19 $-1 $39 forward single #
face $-1 $40 $41 $21 $-1 $42 forward single #
face $-1 $43 $44 $23 $-1 $45 forward single #
model_id-kcp-attrib $-1 $-1 $-1 $25 1 990663932 60 -1422131199 3 #
face $46 $47 $48 $8 $-1 $49 forward single #
loop $-1 $-1 $50 $25 #
plane-surface $-1 0 40 0 0 -1 0 0 0 -1 forward_v I I I I #
coedge $-1 $51 $52 $50 $53 forward $26 $-1 #
model_id-kcp-attrib $-1 $-1 $-1 $28 1 990663932 60 -1422131198 4 #
face $54 $55 $56 $19 $-1 $57 reversed single #
loop $-1 $-1 $58 $28 #
plane-surface $-1 0 0 25 0 0 1 1 0 0 forward_v I I I I #
face $-1 $59 $60 $21 $-1 $61 forward single #
loop $-1 $-1 $62 $29 #
cone-surface $-1 10 -20 -5 0 0 1 10 0 0 1 I I 0 -1 10 forward I I I I #
face $-1 $63 $64 $23 $-1 $65 forward single #
loop $-1 $-1 $66 $30 #
plane-surface $-1 -30 40 15 0 1 0 0 0 1 forward_v I I I I #
model_id-kcp-attrib $-1 $-1 $-1 $32 1 990663932 60 -1422131199 4 #
face $67 $68 $69 $8 $-1 $70 forward single #
loop $-1 $-1 $71 $32 #
plane-surface $-1 0 0 20 0 0 1 1 0 0 forward_v I I I I #
coedge $-1 $72 $73 $35 $53 reversed $33 $-1 #
coedge $-1 $74 $35 $75 $76 reversed $26 $-1 #
coedge $-1 $35 $74 $77 $78 reversed $26 $-1 #
edge $79 $80 -20 $81 30 $50 $82 forward 7 unknown #
model_id-kcp-attrib $-1 $-1 $-1 $37 1 990663932 60 -1422131198 6 #
face $83 $84 $85 $19 $-1 $86 reversed single #
loop $-1 $-1 $87 $37 #
plane-surface $-1 0 0 -25 0 0 1 1 0 0 forward_v I I I I #
coedge $-1 $88 $89 $90 $91 forward $38 $-1 #
face $-1 $92 $93 $21 $-1 $94 forward single #
loop $-1 $-1 $95 $40 #
plane-surface $-1 10 -10 -5 0 -1 0 0 0 -1 forward_v I I I I #
coedge $-1 $96 $97 $98 $99 forward $41 $-1 #
face $-1 $100 $101 $23 $-1 $102 forward single #
loop $-1 $-1 $103 $43 #
plane-surface $-1 40 40 14.999999999999986 1 0 0 0 0 -1 forward_v I I I I #
coedge $-1 $104 $105 $106 $107 forward $44 $-1 #
model_id-kcp-attrib $-1 $-1 $-1 $47 1 990663932 60 -1422131199 5 #
face $108 $109 $110 $8 $-1 $111 reversed single #
loop $-1 $-1 $112 $47 #
plane-surface $-1 -30 0 0 1 0 0 0 0 -1 forward_v I I I I #
coedge $-1 $113 $114 $115 $116 forward $48 $-1 #
coedge $-1 $117 $50 $118 $119 reversed $33 $-1 #
coedge $-1 $50 $120 $121 $122 reversed $33 $-1 #
coedge $-1 $52 $51 $123 $124 reversed $26 $-1 #
coedge $-1 $121 $125 $51 $76 forward $126 $-1 #
edge $127 $128 -40 $81 40 $51 $129 forward 7 unknown #
coedge $-1 $130 $118 $52 $78 forward $131 $-1 #
edge $132 $80 -70 $133 10 $52 $134 forward 7 unknown #
attrib_edge_convexity-kcp-attrib $-1 $135 $-1 $53 1 #
vertex $-1 $119 $136 #
vertex $-1 $122 $137 #
straight-curve $-1 -40 40 10 0 0 -1 I I #
model_id-kcp-attrib $-1 $-1 $-1 $55 1 990663932 60 -1422131198 5 #
face $138 $139 $140 $19 $-1 $141 reversed single #
loop $-1 $-1 $142 $55 #
plane-surface $-1 0 -40 0 0 1 0 0 0 1 forward_v I I I I #
coedge $-1 $143 $144 $145 $146 forward $56 $-1 #
coedge $-1 $147 $58 $148 $149 forward $38 $-1 #
coedge $-1 $58 $147 $150 $151 forward $38 $-1 #
coedge $-1 $152 $153 $58 $91 reversed $154 $-1 #
edge $-1 $155 -40 $156 40 $90 $157 forward 7 unknown #
face $-1 $158 $159 $21 $-1 $160 forward single #
loop $-1 $-1 $161 $59 #
plane-surface $-1 -30 -10 -5 -1 0 0 0 0 1 forward_v I I I I #
coedge $-1 $162 $163 $164 $165 forward $60 $-1 #
coedge $-1 $166 $62 $163 $167 reversed $41 $-1 #
coedge $-1 $62 $166 $168 $169 forward $41 $-1 #
coedge $-1 $170 $164 $62 $99 reversed $171 $-1 #
edge $-1 $172 0 $173 1.5707963267948966 $62 $174 forward 7 unknown #
face $-1 $175 $176 $23 $-1 $177 forward single #
loop $-1 $-1 $178 $63 #
plane-surface $-1 40 -20 15 0 -1 0 0 0 -1 forward_v I I I I #
coedge $-1 $179 $180 $181 $182 forward $64 $-1 #
coedge $-1 $183 $66 $180 $184 reversed $44 $-1 #
coedge $-1 $66 $183 $185 $186 forward $44 $-1 #
coedge $-1 $187 $181 $66 $107 reversed $188 $-1 #
edge $-1 $189 -32.5 $190 37.5 $66 $191 forward 7 unknown #
model_id-kcp-attrib $-1 $-1 $-1 $68 1 990663932 60 -1422131199 6 #
face $192 $193 $194 $8 $-1 $111 reversed single #
loop $-1 $-1 $195 $68 #
plane-surface $-1 0 -20 10 0 -1 0 0 0 -1 forward_v I I I I #
coedge $-1 $115 $196 $197 $198 reversed $69 $-1 #
coedge $-1 $199 $71 $200 $201 forward $48 $-1 #
coedge $-1 $71 $202 $203 $204 forward $48 $-1 #
coedge $-1 $205 $112 $71 $116 reversed $69 $-1 #
edge $-1 $206 -40 $207 -10 $71 $208 forward 7 unknown #
coedge $-1 $203 $72 $205 $209 forward $33 $-1 #
coedge $-1 $77 $210 $72 $119 forward $131 $-1 #
edge $211 $212 -5 $80 5 $72 $213 forward 7 unknown #
coedge $-1 $73 $203 $214 $215 forward $33 $-1 #
coedge $-1 $216 $75 $73 $122 forward $126 $-1 #
edge $217 $81 -40 $218 40 $73 $219 forward 7 unknown #
coedge $-1 $220 $221 $74 $124 forward $222 $-1 #
edge $223 $133 -20 $128 30 $74 $224 forward 7 unknown #
coedge $-1 $75 $216 $220 $225 forward $126 $-1 #
loop $-1 $-1 $216 $226 #
attrib_edge_convexity-kcp-attrib $-1 $227 $-1 $76 1 #
vertex $-1 $76 $228 #
straight-curve $-1 -40 0 -20 0 1 0 I I #
coedge $-1 $229 $77 $221 $230 forward $131 $-1 #
loop $-1 $-1 $130 $193 #
attrib_edge_convexity-kcp-attrib $-1 $231 $-1 $78 1 #
vertex $-1 $78 $232 #
straight-curve $-1 -40 -30 30 0 -1 0 I I #
convexity-sys-attrib $-1 $-1 $79 $53 #
point $-1 -40 40 30 #
point $-1 -40 40 -20 #
model_id-kcp-attrib $-1 $-1 $-1 $84 1 990663932 60 -1422131198 2 #
face $233 $234 $235 $19 $-1 $236 reversed single #
loop $-1 $-1 $237 $84 #
plane-surface $-1 -40 0 0 1 0 0 0 0 -1 forward_v I I I I #
coedge $-1 $238 $150 $239 $240 forward $85 $-1 #
coedge $-1 $241 $87 $238 $242 forward $56 $-1 #
coedge $-1 $87 $241 $243 $244 forward $56 $-1 #
coedge $-1 $153 $152 $87 $146 reversed $154 $-1 #
edge $-1 $245 -40 $246 40 $145 $247 forward 7 unknown #
coedge $-1 $89 $88 $248 $249 forward $38 $-1 #
coedge $-1 $250 $251 $88 $149 reversed $235 $-1 #
edge $-1 $156 -40 $252 40 $148 $253 forward 7 unknown #
coedge $-1 $142 $254 $89 $151 reversed $85 $-1 #
edge $-1 $255 -40 $155 40 $150 $256 forward 7 unknown #
coedge $-1 $145 $90 $254 $257 forward $154 $-1 #
coedge $-1 $90 $145 $250 $258 reversed $154 $-1 #
loop $-1 $-1 $152 $234 #
vertex $-1 $91 $259 #
vertex $-1 $91 $260 #
straight-curve $-1 40 0 25 0 1 0 I I #
face $-1 $261 $262 $21 $-1 $263 forward single #
loop $-1 $-1 $264 $92 #
plane-surface $-1 -30 10 -5 0 1 0 0 0 1 forward_v I I I I #
coedge $-1 $265 $266 $267 $268 forward $93 $-1 #
coedge $-1 $269 $95 $266 $270 reversed $60 $-1 #
coedge $-1 $95 $269 $96 $167 forward $60 $-1 #
coedge $-1 $98 $267 $95 $165 reversed $171 $-1 #
edge $-1 $173 0 $271 40 $95 $272 forward 7 unknown #
coedge $-1 $97 $96 $273 $274 reversed $41 $-1 #
edge $275 $276 0 $173 20 $163 $277 forward 7 unknown #
coedge $-1 $278 $279 $97 $169 reversed $280 $-1 #
edge $281 $282 0 $172 20 $97 $283 forward 7 unknown #
coedge $-1 $284 $98 $279 $285 reversed $171 $-1 #
loop $-1 $-1 $98 $286 #
vertex $-1 $169 $287 #
vertex $-1 $167 $288 #
ellipse-curve $-1 10 -20 15 0 0 1 10 0 0 1 I I #
face $-1 $289 $290 $23 $-1 $291 forward single #
loop $-1 $-1 $292 $100 #
cone-surface $-1 10 -20 14.999999999999986 0 0 1 10 0 0 1 I I 0 -1 10 forward I I I I #
coedge $-1 $293 $294 $295 $296 forward $101 $-1 #
coedge $-1 $297 $103 $294 $298 reversed $64 $-1 #
coedge $-1 $103 $297 $104 $184 forward $64 $-1 #
coedge $-1 $106 $295 $103 $182 reversed $188 $-1 #
edge $-1 $190 -35 $299 25 $103 $300 forward 7 unknown #
coedge $-1 $105 $104 $301 $302 reversed $44 $-1 #
edge $-1 $303 0 $190 10 $180 $304 forward 7 unknown #
coedge $-1 $305 $306 $105 $186 reversed $307 $-1 #
edge $-1 $308 0 $189 10 $105 $309 forward 7 unknown #
coedge $-1 $310 $106 $306 $311 reversed $188 $-1 #
loop $-1 $-1 $106 $312 #
vertex $-1 $186 $313 #
vertex $-1 $184 $314 #
straight-curve $-1 2.5 40 24.999999999999986 1 0 0 I I #
model_id-kcp-attrib $-1 $-1 $-1 $109 1 990663932 60 -1422131199 7 #
face $315 $316 $131 $8 $-1 $317 forward single #
loop $-1 $-1 $318 $109 #
coedge $-1 $319 $320 $321 $322 reversed $110 $-1 #
coedge $-1 $112 $323 $324 $325 reversed $69 $-1 #
coedge $-1 $326 $200 $112 $198 forward $327 $-1 #
edge $-1 $207 -20 $328 20 $197 $329 forward 7 unknown #
coedge $-1 $330 $113 $331 $332 forward $48 $-1 #
coedge $-1 $197 $333 $113 $201 reversed $327 $-1 #
edge $-1 $207 -30 $334 10 $113 $335 forward 7 unknown #
coedge $-1 $114 $336 $337 $338 forward $48 $-1 #
coedge $-1 $120 $117 $114 $204 reversed $33 $-1 #
edge $339 $340 -40 $206 30 $203 $341 forward 7 unknown #
coedge $-1 $342 $115 $117 $209 reversed $69 $-1 #
vertex $-1 $204 $343 #
vertex $-1 $116 $344 #
straight-curve $-1 -30 0 20 0 -1 0 I I #
edge $345 $212 -20 $206 -10 $205 $346 forward 7 unknown #
coedge $-1 $118 $347 $342 $348 forward $131 $-1 #
attrib_edge_convexity-kcp-attrib $-1 $349 $-1 $119 1 #
vertex $-1 $348 $350 #
straight-curve $-1 -35 40 30 -1 0 0 I I #
coedge $-1 $337 $351 $120 $215 reversed $352 $-1 #
edge $353 $340 -20 $218 20 $214 $354 forward 7 unknown #
coedge $-1 $125 $121 $351 $355 forward $126 $-1 #
attrib_edge_convexity-kcp-attrib $-1 $356 $-1 $122 1 #
vertex $-1 $355 $357 #
straight-curve $-1 0 40 -20 1 0 0 I I #
coedge $-1 $358 $123 $125 $225 reversed $222 $-1 #
coedge $-1 $123 $358 $130 $230 reversed $222 $-1 #
loop $-1 $-1 $123 $316 #
attrib_edge_convexity-kcp-attrib $-1 $359 $-1 $124 1 #
straight-curve $-1 -40 -40 10 0 0 -1 I I #
edge $-1 $360 -40 $128 40 $220 $361 forward 7 unknown #
face $362 $363 $364 $8 $-1 $365 reversed single #
convexity-sys-attrib $-1 $-1 $127 $76 #
point $-1 -40 -40 -20 #
coedge $-1 $366 $130 $367 $368 forward $131 $-1 #
edge $369 $133 -40 $370 40 $221 $371 forward 7 unknown #
convexity-sys-attrib $-1 $-1 $132 $78 #
point $-1 -40 -40 30 #
model_id-kcp-attrib $-1 $-1 $-1 $139 1 990663932 60 -1422131198 3 #
face $372 $-1 $154 $19 $-1 $373 reversed single #
loop $-1 $-1 $250 $139 #
plane-surface $-1 0 40 0 0 -1 0 0 0 -1 forward_v I I I I #
coedge $-1 $374 $248 $251 $375 forward $140 $-1 #
coedge $-1 $254 $142 $143 $242 reversed $85 $-1 #
coedge $-1 $248 $374 $142 $240 reversed $140 $-1 #
edge $-1 $255 -25 $376 25 $239 $377 forward 7 unknown #
coedge $-1 $144 $143 $374 $378 forward $56 $-1 #
edge $-1 $246 -40 $376 40 $238 $379 forward 7 unknown #
coedge $-1 $251 $250 $144 $244 reversed $235 $-1 #
edge $-1 $380 -40 $245 40 $243 $381 forward 7 unknown #
vertex $-1 $146 $382 #
vertex $-1 $257 $383 #
straight-curve $-1 40 0 -25 0 -1 0 I I #
coedge $-1 $237 $239 $147 $249 reversed $140 $-1 #
edge $-1 $252 -40 $255 40 $248 $384 forward 7 unknown #
coedge $-1 $243 $148 $153 $258 forward $235 $-1 #
coedge $-1 $148 $243 $237 $375 reversed $235 $-1 #
vertex $-1 $149 $385 #
straight-curve $-1 0 40 25 -1 0 0 I I #
coedge $-1 $150 $238 $152 $257 reversed $85 $-1 #
vertex $-1 $249 $386 #
straight-curve $-1 0 -40 25 1 0 0 I I #
edge $-1 $155 -25 $246 25 $152 $387 forward 7 unknown #
edge $-1 $156 -25 $245 25 $153 $388 forward 7 unknown #
point $-1 40 -40 25 #
point $-1 40 40 25 #
face $-1 $389 $390 $21 $-1 $391 forward single #
loop $-1 $-1 $392 $158 #
plane-surface $-1 10 10 -5 -1 0 0 0 0 1 forward_v I I I I #
coedge $-1 $393 $394 $395 $396 forward $159 $-1 #
coedge $-1 $397 $161 $394 $398 reversed $93 $-1 #
coedge $-1 $161 $397 $162 $270 forward $93 $-1 #
coedge $-1 $164 $395 $161 $268 reversed $171 $-1 #
edge $-1 $271 -20 $399 0 $161 $400 forward 7 unknown #
coedge $-1 $163 $162 $401 $402 reversed $60 $-1 #
edge $-1 $403 0 $271 20 $266 $404 forward 7 unknown #
vertex $-1 $270 $405 #
straight-curve $-1 10 -10 15 -1 0 0 I I #
coedge $-1 $401 $406 $166 $274 forward $407 $-1 #
edge $408 $282 0 $276 1.5707963267948966 $166 $409 forward 7 unknown #
convexity-sys-attrib $-1 $-1 $-1 $167 #
vertex $-1 $274 $410 #
straight-curve $-1 10 -10 -5 0 0 1 I I #
coedge $-1 $411 $168 $406 $412 reversed $280 $-1 #
coedge $-1 $168 $411 $170 $285 forward $280 $-1 #
loop $-1 $-1 $279 $413 #
convexity-sys-attrib $-1 $-1 $-1 $169 #
vertex $-1 $412 $414 #
straight-curve $-1 20 -20 -5 0 0 1 I I #
coedge $-1 $415 $170 $416 $417 reversed $171 $-1 #
edge $-1 $418 -20 $172 -10 $279 $419 forward 7 unknown #
face $-1 $420 $171 $21 $-1 $421 forward single #
point $-1 20 -20 15 #
point $-1 10 -10 15 #
face $-1 $312 $307 $23 $-1 $422 forward single #
loop $-1 $-1 $423 $175 #
plane-surface $-1 0 -20 15 0 -1 0 0 0 -1 forward_v I I I I #
coedge $-1 $424 $425 $426 $427 forward $176 $-1 #
coedge $-1 $428 $178 $425 $429 reversed $101 $-1 #
coedge $-1 $178 $428 $179 $298 forward $101 $-1 #
coedge $-1 $181 $426 $178 $296 reversed $188 $-1 #
edge $-1 $299 -37.5 $430 -17.5 $178 $431 forward 7 unknown #
coedge $-1 $180 $179 $432 $433 reversed $64 $-1 #
edge $-1 $434 0 $299 10 $294 $435 forward 7 unknown #
vertex $-1 $298 $436 #
straight-curve $-1 40 5 24.999999999999986 0 -1 0 I I #
coedge $-1 $432 $437 $183 $302 forward $438 $-1 #
edge $439 $308 -32.5 $303 37.5 $183 $440 forward 7 unknown #
vertex $-1 $302 $441 #
straight-curve $-1 40 40 14.999999999999986 0 0 1 I I #
coedge $-1 $442 $185 $437 $443 reversed $307 $-1 #
coedge $-1 $185 $442 $187 $311 forward $307 $-1 #
loop $-1 $-1 $306 $289 #
vertex $-1 $443 $444 #
straight-curve $-1 -30 40 15 0 0 1 I I #
coedge $-1 $426 $187 $423 $445 reversed $188 $-1 #
edge $-1 $446 -25 $189 35 $306 $447 forward 7 unknown #
face $-1 $448 $188 $23 $-1 $449 forward single #
point $-1 -30 40 25 #
point $-1 40 40 24.999999999999986 #
model_id-kcp-attrib $-1 $-1 $-1 $193 1 990663932 60 -1422131199 8 #
face $450 $451 $222 $8 $-1 $452 reversed single #
plane-surface $-1 10 -20 30 0 0 1 1 0 0 forward_v I I I I #
coedge $-1 $453 $454 $455 $456 forward $194 $-1 #
coedge $-1 $457 $195 $366 $458 reversed $110 $-1 #
coedge $-1 $195 $459 $460 $461 reversed $110 $-1 #
coedge $-1 $462 $463 $195 $322 forward $464 $-1 #
edge $-1 $465 -20 $466 10 $321 $467 forward 7 unknown #
coedge $-1 $196 $468 $469 $470 reversed $69 $-1 #
coedge $-1 $471 $472 $196 $325 forward $364 $-1 #
edge $-1 $328 -10 $473 10 $324 $474 forward 7 unknown #
coedge $-1 $475 $197 $472 $476 reversed $327 $-1 #
loop $-1 $-1 $333 $477 #
vertex $-1 $325 $478 #
straight-curve $-1 -30 10 0 0 0 -1 I I #
coedge $-1 $479 $199 $480 $481 forward $48 $-1 #
coedge $-1 $482 $483 $199 $332 reversed $484 $-1 #
edge $-1 $334 10 $485 30 $199 $486 forward 7 unknown #
coedge $-1 $200 $487 $482 $488 forward $327 $-1 #
vertex $-1 $201 $489 #
straight-curve $-1 0 10 20 1 0 0 I I #
coedge $-1 $202 $479 $490 $491 forward $48 $-1 #
coedge $-1 $492 $214 $202 $338 reversed $352 $-1 #
edge $-1 $493 -20 $340 40 $337 $494 forward 7 unknown #
attrib_edge_convexity-kcp-attrib $-1 $495 $-1 $204 1 #
vertex $-1 $338 $496 #
straight-curve $-1 0 40 20 -1 0 0 I I #
coedge $-1 $455 $205 $210 $348 reversed $69 $-1 #
point $-1 -30 40 20 #
point $-1 -30 10 20 #
attrib_edge_convexity-kcp-attrib $-1 $497 $-1 $209 1 #
straight-curve $-1 -30 40 10 0 0 -1 I I #
coedge $-1 $210 $498 $453 $499 forward $131 $-1 #
edge $500 $501 -20 $212 40 $342 $502 forward 7 unknown #
convexity-sys-attrib $-1 $-1 $211 $119 #
point $-1 -30 40 30 #
coedge $-1 $214 $503 $216 $355 reversed $352 $-1 #
loop $-1 $-1 $503 $363 #
attrib_edge_convexity-kcp-attrib $-1 $504 $-1 $215 1 #
straight-curve $-1 40 40 0 0 0 -1 I I #
edge $-1 $218 -40 $360 40 $351 $505 forward 7 unknown #
convexity-sys-attrib $-1 $-1 $217 $122 #
point $-1 40 40 -20 #
coedge $-1 $221 $220 $503 $506 forward $222 $-1 #
convexity-sys-attrib $-1 $-1 $223 $124 #
vertex $-1 $506 $507 #
straight-curve $-1 0 -40 -20 -1 0 0 I I #
model_id-kcp-attrib $-1 $-1 $-1 $226 1 990663932 60 -1422131199 19 #
face $508 $-1 $352 $8 $-1 $509 reversed single #
loop $-1 $126 $471 $226 #
plane-surface $-1 0 0 -20 0 0 1 1 0 0 forward_v I I I I #
coedge $-1 $498 $229 $319 $458 forward $131 $-1 #
coedge $-1 $503 $492 $229 $368 reversed $352 $-1 #
edge $510 $370 -10 $511 10 $367 $512 forward 7 unknown #
attrib_edge_convexity-kcp-attrib $-1 $513 $-1 $230 1 #
vertex $-1 $368 $514 #
straight-curve $-1 0 -40 30 1 0 0 I I #
model_id-kcp-attrib $-1 $-1 $-1 $234 1 990663932 60 -1422131198 7 #
plane-surface $-1 40 0 0 -1 0 0 0 0 1 forward_v I I I I #
coedge $-1 $239 $237 $241 $378 reversed $140 $-1 #
edge $-1 $252 -25 $380 25 $251 $515 forward 7 unknown #
vertex $-1 $378 $516 #
straight-curve $-1 -40 -40 0 0 0 -1 I I #
edge $-1 $376 -40 $380 40 $374 $517 forward 7 unknown #
straight-curve $-1 0 -40 -25 -1 0 0 I I #
vertex $-1 $244 $518 #
straight-curve $-1 0 40 -25 1 0 0 I I #
point $-1 40 40 -25 #
point $-1 40 -40 -25 #
straight-curve $-1 -40 0 25 0 -1 0 I I #
point $-1 -40 40 25 #
point $-1 -40 -40 25 #
straight-curve $-1 40 -40 0 0 0 -1 I I #
straight-curve $-1 40 40 0 0 0 -1 I I #
face $-1 $413 $519 $21 $-1 $520 forward single #
loop $-1 $-1 $521 $261 #
plane-surface $-1 10 30 -5 0 1 0 0 0 1 forward_v I I I I #
coedge $-1 $522 $523 $524 $525 forward $262 $-1 #
coedge $-1 $526 $264 $523 $527 reversed $159 $-1 #
coedge $-1 $264 $526 $265 $398 forward $159 $-1 #
coedge $-1 $267 $524 $264 $396 reversed $171 $-1 #
edge $-1 $399 -40 $528 0 $264 $529 forward 7 unknown #
coedge $-1 $266 $265 $530 $531 reversed $93 $-1 #
edge $-1 $532 0 $399 20 $394 $533 forward 7 unknown #
vertex $-1 $398 $534 #
straight-curve $-1 -30 10 15 0 1 0 I I #
coedge $-1 $530 $273 $269 $402 forward $407 $-1 #
edge $535 $276 0 $403 40 $269 $536 forward 7 unknown #
vertex $-1 $402 $537 #
straight-curve $-1 -30 -10 -5 0 0 1 I I #
point $-1 -30 -10 15 #
coedge $-1 $273 $538 $278 $412 forward $407 $-1 #
loop $-1 $-1 $406 $420 #
convexity-sys-attrib $-1 $-1 $-1 $274 #
ellipse-curve $-1 10 -20 -5 0 0 1 10 0 0 1 I I #
point $-1 10 -10 -5 #
coedge $-1 $279 $278 $539 $540 forward $280 $-1 #
edge $541 $542 -20 $282 -10 $278 $543 forward 7 unknown #
face $-1 $286 $280 $21 $-1 $544 forward single #
point $-1 20 -20 -5 #
coedge $-1 $524 $284 $521 $545 reversed $171 $-1 #
coedge $-1 $539 $546 $284 $417 forward $519 $-1 #
edge $-1 $547 -20 $418 30 $416 $548 forward 7 unknown #
vertex $-1 $540 $549 #
straight-curve $-1 10 -20 15 -1 0 0 I I #
face $-1 $-1 $407 $21 $-1 $550 reversed single #
plane-surface $-1 5.585986198177217 3.864960732013401 15 0 0 1 1 0 0 forward_v I I I I #
plane-surface $-1 -30 -20 15 -1 0 0 0 0 1 forward_v I I I I #
coedge $-1 $551 $552 $310 $445 forward $290 $-1 #
coedge $-1 $553 $292 $552 $554 reversed $176 $-1 #
coedge $-1 $292 $553 $293 $429 forward $176 $-1 #
coedge $-1 $295 $310 $292 $427 reversed $188 $-1 #
edge $-1 $430 0 $555 3.1415926535897931 $292 $556 forward 7 unknown #
coedge $-1 $294 $293 $557 $558 reversed $101 $-1 #
edge $559 $560 0 $430 10 $425 $561 forward 7 unknown #
vertex $-1 $429 $562 #
straight-curve $-1 2.5 -20 24.999999999999986 -1 0 0 I I #
coedge $-1 $557 $301 $297 $433 forward $438 $-1 #
edge $563 $303 -35 $434 25 $297 $564 forward 7 unknown #
vertex $-1 $433 $565 #
straight-curve $-1 40 -20 15 0 0 1 I I #
point $-1 40 -20 25 #
coedge $-1 $301 $566 $305 $443 forward $438 $-1 #
loop $-1 $-1 $437 $448 #
convexity-sys-attrib $-1 $-1 $-1 $302 #
straight-curve $-1 2.5 40 14.999999999999986 1 0 0 I I #
point $-1 40 40 14.999999999999986 #
coedge $-1 $306 $305 $551 $567 forward $307 $-1 #
edge $568 $569 -25 $308 35 $305 $570 forward 7 unknown #
point $-1 -30 40 15 #
edge $-1 $555 2.5 $446 32.5 $423 $571 forward 7 unknown #
vertex $-1 $567 $572 #
straight-curve $-1 -30 5 24.999999999999986 0 1 0 I I #
face $-1 $-1 $438 $23 $-1 $573 reversed single #
plane-surface $-1 5.2103031808339351 9.4025498925033695 24.999999999999986 1.527073707968185e-031 -3.3512417018776369e-032 1 1 0 -1.527073707968185e-031 forward_v I I I I #
model_id-kcp-attrib $-1 $-1 $-1 $316 1 990663932 60 -1422131199 9 #
face $574 $575 $464 $8 $-1 $576 forward single #
plane-surface $-1 0 -40 0 0 1 0 0 0 1 forward_v I I I I #
coedge $-1 $577 $318 $347 $499 reversed $194 $-1 #
coedge $-1 $318 $577 $578 $579 reversed $194 $-1 #
coedge $-1 $468 $342 $318 $456 reversed $69 $-1 #
edge $-1 $580 10 $501 20 $318 $581 forward 7 unknown #
coedge $-1 $490 $319 $492 $582 forward $110 $-1 #
edge $583 $511 -40 $465 -20 $319 $584 forward 7 unknown #
coedge $-1 $320 $490 $585 $586 reversed $110 $-1 #
coedge $-1 $587 $588 $320 $461 forward $589 $-1 #
edge $-1 $466 10 $590 20 $460 $591 forward 7 unknown #
coedge $-1 $592 $321 $588 $593 reversed $464 $-1 #
coedge $-1 $321 $594 $498 $595 reversed $464 $-1 #
loop $-1 $-1 $594 $451 #
vertex $-1 $595 $596 #
vertex $-1 $593 $597 #
straight-curve $-1 20 -20 10 0 0 -1 I I #
coedge $-1 $323 $455 $598 $599 reversed $69 $-1 #
coedge $-1 $600 $601 $323 $470 forward $602 $-1 #
edge $-1 $473 -20 $603 20 $323 $604 reversed 7 unknown #
coedge $-1 $605 $324 $601 $606 forward $364 $-1 #
coedge $-1 $324 $605 $326 $476 forward $364 $-1 #
vertex $-1 $606 $607 #
straight-curve $-1 -30 0 -20 0 -1 0 I I #
coedge $-1 $487 $326 $608 $609 reversed $327 $-1 #
edge $-1 $610 -30 $328 30 $472 $611 forward 7 unknown #
face $612 $226 $327 $8 $-1 $613 forward single #
point $-1 -30 10 -20 #
coedge $-1 $336 $330 $614 $615 forward $48 $-1 #
coedge $-1 $616 $617 $330 $481 reversed $618 $-1 #
edge $-1 $485 0 $619 20 $330 $620 forward 7 unknown #
coedge $-1 $621 $331 $333 $488 reversed $484 $-1 #
coedge $-1 $331 $621 $616 $622 reversed $484 $-1 #
loop $-1 $-1 $482 $623 #
vertex $-1 $332 $624 #
straight-curve $-1 10 0 20 0 1 0 I I #
coedge $-1 $333 $475 $625 $626 forward $327 $-1 #
edge $-1 $627 -5 $334 15 $333 $628 forward 7 unknown #
point $-1 10 10 20 #
coedge $-1 $459 $457 $336 $491 reversed $110 $-1 #
edge $-1 $629 30 $493 40 $336 $630 forward 7 unknown #
coedge $-1 $367 $337 $457 $582 reversed $352 $-1 #
vertex $-1 $582 $631 #
straight-curve $-1 40 0 20 0 1 0 I I #
convexity-sys-attrib $-1 $-1 $339 $204 #
point $-1 40 40 20 #
convexity-sys-attrib $-1 $-1 $345 $209 #
coedge $-1 $347 $366 $463 $595 forward $131 $-1 #
edge $632 $633 0 $501 30 $453 $584 forward 7 unknown #
attrib_edge_convexity-kcp-attrib $-1 $634 $-1 $348 1 #
vertex $-1 $499 $635 #
straight-curve $-1 -30 0 30 0 1 0 I I #
coedge $-1 $351 $367 $358 $506 reversed $352 $-1 #
convexity-sys-attrib $-1 $-1 $353 $215 #
straight-curve $-1 40 0 -20 0 -1 0 I I #
edge $-1 $360 -20 $370 30 $503 $636 reversed 7 unknown #
point $-1 40 -40 -20 #
model_id-kcp-attrib $-1 $-1 $-1 $363 1 990663932 60 -1422131199 20 #
plane-surface $-1 40 0 0 -1 0 0 0 0 1 forward_v I I I I #
attrib_edge_convexity-kcp-attrib $-1 $637 $-1 $368 1 #
vertex $-1 $368 $638 #
straight-curve $-1 40 -30 30 0 1 0 I I #
convexity-sys-attrib $-1 $-1 $369 $230 #
point $-1 40 -40 30 #
straight-curve $-1 -40 40 0 0 0 -1 I I #
point $-1 -40 -40 -25 #
straight-curve $-1 -40 0 -25 0 1 0 I I #
point $-1 -40 40 -25 #
loop $-1 $-1 $416 $389 #
plane-surface $-1 30 30 -5 1 0 0 0 0 -1 forward_v I I I I #
coedge $-1 $639 $640 $415 $545 forward $390 $-1 #
coedge $-1 $641 $392 $640 $642 reversed $262 $-1 #
coedge $-1 $392 $641 $393 $527 forward $262 $-1 #
coedge $-1 $395 $415 $392 $525 reversed $171 $-1 #
edge $-1 $528 0 $643 20 $392 $644 forward 7 unknown #
coedge $-1 $394 $393 $645 $646 reversed $159 $-1 #
edge $-1 $647 0 $528 20 $523 $648 forward 7 unknown #
vertex $-1 $527 $649 #
straight-curve $-1 10 10 15 1 0 0 I I #
coedge $-1 $645 $401 $397 $531 forward $407 $-1 #
edge $650 $403 -20 $532 0 $397 $651 forward 7 unknown #
vertex $-1 $531 $652 #
straight-curve $-1 -30 10 -5 0 0 1 I I #
point $-1 -30 10 15 #
convexity-sys-attrib $-1 $-1 $-1 $402 #
straight-curve $-1 10 -10 -5 -1 0 0 I I #
point $-1 -30 -10 -5 #
coedge $-1 $406 $653 $654 $655 forward $407 $-1 #
coedge $-1 $654 $416 $411 $540 reversed $519 $-1 #
edge $-1 $542 0 $418 20 $411 $656 forward 7 unknown #
convexity-sys-attrib $-1 $-1 $-1 $412 #
vertex $-1 $412 $657 #
straight-curve $-1 10 -20 -5 -1 0 0 I I #
plane-surface $-1 30 -20 -5 0 -1 0 0 0 -1 forward_v I I I I #
edge $-1 $643 -10 $547 10 $521 $658 forward 7 unknown #
coedge $-1 $416 $654 $639 $659 forward $519 $-1 #
vertex $-1 $659 $660 #
straight-curve $-1 30 10 15 0 -1 0 I I #
point $-1 30 -20 15 #
plane-surface $-1 5.585986198177217 3.864960732013401 -5 0 0 1 1 0 0 forward_v I I I I #
coedge $-1 $661 $423 $442 $567 reversed $290 $-1 #
coedge $-1 $423 $661 $424 $554 forward $290 $-1 #
coedge $-1 $425 $424 $662 $663 reversed $176 $-1 #
edge $-1 $664 0 $555 10 $552 $665 forward 7 unknown #
vertex $-1 $554 $666 #
ellipse-curve $-1 10 -20 24.999999999999986 0 0 1 10 0 0 1 I I #
coedge $-1 $662 $432 $428 $558 forward $438 $-1 #
edge $667 $434 -37.5 $560 -17.5 $428 $668 forward 7 unknown #
convexity-sys-attrib $-1 $-1 $-1 $429 #
vertex $-1 $558 $669 #
straight-curve $-1 20 -20 15 0 0 1 I I #
point $-1 20 -20 25 #
convexity-sys-attrib $-1 $-1 $-1 $433 #
straight-curve $-1 40 5 14.999999999999986 0 -1 0 I I #
point $-1 40 -20 15 #
coedge $-1 $437 $662 $661 $670 forward $438 $-1 #
edge $-1 $569 0 $446 10 $442 $671 forward 7 unknown #
convexity-sys-attrib $-1 $-1 $-1 $443 #
vertex $-1 $443 $672 #
straight-curve $-1 -30 5 14.999999999999986 0 1 0 I I #
straight-curve $-1 2.5 -20 24.999999999999986 -1 0 0 I I #
point $-1 -30 -20 25 #
plane-surface $-1 5.2103031808339351 9.4025498925033695 14.999999999999988 1.527073707968185e-031 -3.3512417018776369e-032 1 1 0 -1.527073707968185e-031 forward_v I I I I #
model_id-kcp-attrib $-1 $-1 $-1 $451 1 990663932 60 -1422131199 10 #
face $673 $674 $589 $8 $-1 $675 forward single #
cone-surface $-1 10 -20 10 0 0 1 10 0 0 1 I I 0 1 10 forward I I I I #
coedge $-1 $454 $453 $594 $676 reversed $194 $-1 #
coedge $-1 $677 $598 $454 $579 forward $678 $-1 #
edge $-1 $580 -30 $679 0 $578 $630 forward 7 unknown #
vertex $-1 $599 $680 #
straight-curve $-1 -30 -20 10 0 0 1 I I #
edge $-1 $511 -20 $493 -10 $492 $681 forward 7 unknown #
attrib_edge_convexity-kcp-attrib $-1 $682 $-1 $458 1 #
straight-curve $-1 0 -20 30 -1 0 0 I I #
coedge $-1 $614 $683 $459 $586 forward $684 $-1 #
edge $-1 $590 -5 $629 15 $585 $685 forward 7 unknown #
coedge $-1 $686 $460 $683 $687 reversed $589 $-1 #
coedge $-1 $460 $686 $462 $593 forward $589 $-1 #
loop $-1 $-1 $460 $575 #
vertex $-1 $687 $688 #
straight-curve $-1 10 -20 0 1 0 0 I I #
coedge $-1 $689 $462 $690 $691 reversed $464 $-1 #
edge $-1 $692 -1.5707963267948966 $466 0 $588 $693 forward 7 unknown #
coedge $-1 $463 $689 $577 $676 forward $464 $-1 #
edge $694 $465 0 $633 3.1415926535897931 $498 $695 forward 7 unknown #
point $-1 20 -20 30 #
point $-1 20 -20 0 #
coedge $-1 $578 $696 $468 $599 forward $678 $-1 #
edge $-1 $603 10 $580 20 $598 $208 forward 7 unknown #
coedge $-1 $690 $469 $696 $697 reversed $602 $-1 #
coedge $-1 $469 $698 $471 $606 reversed $602 $-1 #
loop $-1 $-1 $699 $700 #
vertex $-1 $697 $701 #
straight-curve $-1 -30 -10 0 0 0 -1 I I #
coedge $-1 $472 $471 $702 $703 forward $364 $-1 #
edge $-1 $473 -30 $704 30 $471 $705 forward 7 unknown #
point $-1 -30 -10 -20 #
coedge $-1 $702 $706 $475 $609 forward $684 $-1 #
edge $-1 $707 0 $610 20 $608 $708 forward 7 unknown #
vertex $-1 $476 $709 #
straight-curve $-1 0 10 -20 -1 0 0 I I #
model_id-kcp-attrib $-1 $-1 $-1 $477 1 990663932 60 -1422131199 18 #
plane-surface $-1 0 10 0 0 -1 0 0 0 -1 forward_v I I I I #
coedge $-1 $710 $585 $479 $615 reversed $684 $-1 #
edge $-1 $619 -30 $629 20 $479 $711 forward 7 unknown #
coedge $-1 $712 $480 $483 $622 forward $618 $-1 #
coedge $-1 $480 $712 $710 $713 reversed $618 $-1 #
loop $-1 $-1 $617 $714 #
vertex $-1 $481 $715 #
straight-curve $-1 10 30 20 1 0 0 I I #
coedge $-1 $483 $482 $716 $717 forward $484 $-1 #
edge $-1 $485 -10 $718 10 $616 $719 forward 7 unknown #
face $720 $721 $484 $8 $-1 $722 forward single #
point $-1 10 30 20 #
coedge $-1 $723 $716 $487 $626 reversed $724 $-1 #
edge $-1 $707 -20 $627 0 $487 $725 forward 7 unknown #
vertex $-1 $626 $726 #
straight-curve $-1 10 10 5 0 0 1 I I #
vertex $-1 $615 $727 #
straight-curve $-1 0 -20 20 1 0 0 I I #
point $-1 40 -20 20 #
attrib_edge_convexity-kcp-attrib $-1 $728 $-1 $499 1 #
vertex $-1 $595 $729 #
convexity-sys-attrib $-1 $-1 $500 $348 #
point $-1 -30 -20 30 #
straight-curve $-1 40 -40 0 0 0 -1 I I #
convexity-sys-attrib $-1 $-1 $510 $368 #
point $-1 40 -20 30 #
coedge $-1 $730 $521 $546 $659 reversed $390 $-1 #
coedge $-1 $521 $730 $522 $642 forward $390 $-1 #
coedge $-1 $523 $522 $731 $732 reversed $262 $-1 #
edge $-1 $733 0 $643 20 $640 $734 forward 7 unknown #
vertex $-1 $642 $735 #
straight-curve $-1 10 10 15 0 1 0 I I #
coedge $-1 $731 $530 $526 $646 forward $407 $-1 #
edge $736 $532 -40 $647 0 $526 $737 forward 7 unknown #
vertex $-1 $646 $738 #
straight-curve $-1 10 10 -5 0 0 1 I I #
point $-1 10 10 15 #
convexity-sys-attrib $-1 $-1 $-1 $531 #
straight-curve $-1 -30 10 -5 0 1 0 I I #
point $-1 -30 10 -5 #
coedge $-1 $538 $731 $730 $739 forward $407 $-1 #
coedge $-1 $546 $539 $538 $655 reversed $519 $-1 #
edge $740 $741 -20 $542 30 $654 $742 forward 7 unknown #
straight-curve $-1 30 -20 -5 0 0 1 I I #
point $-1 30 -20 -5 #
straight-curve $-1 20 30 15 1 0 0 I I #
edge $-1 $741 0 $547 20 $546 $743 forward 7 unknown #
point $-1 30 30 15 #
coedge $-1 $552 $551 $566 $670 reversed $290 $-1 #
coedge $-1 $566 $557 $553 $663 forward $438 $-1 #
edge $744 $560 0 $664 3.1415926535897931 $553 $745 forward 7 unknown #
vertex $-1 $663 $746 #
straight-curve $-1 0 -20 15 0 0 1 I I #
point $-1 0 -20 25 #
convexity-sys-attrib $-1 $-1 $-1 $558 #
straight-curve $-1 2.5 -20 14.999999999999986 -1 0 0 I I #
point $-1 20 -20 15 #
edge $747 $664 2.5 $569 32.5 $661 $748 forward 7 unknown #
straight-curve $-1 -30 -20 15 0 0 1 I I #
point $-1 -30 -20 15 #
model_id-kcp-attrib $-1 $-1 $-1 $575 1 990663932 60 -1422131199 11 #
face $749 $623 $684 $8 $-1 $750 forward single #
plane-surface $-1 20 0 0 0 0 1 1 0 0 forward_v I I I I #
edge $-1 $679 10 $633 20 $594 $751 forward 7 unknown #
coedge $-1 $696 $578 $689 $752 forward $678 $-1 #
loop $-1 $-1 $598 $753 #
vertex $-1 $579 $754 #
point $-1 -30 -20 20 #
straight-curve $-1 40 -20 10 0 0 -1 I I #
convexity-sys-attrib $-1 $-1 $583 $458 #
coedge $-1 $585 $755 $587 $687 forward $684 $-1 #
loop $-1 $-1 $585 $674 #
straight-curve $-1 30 -20 5 0 0 1 I I #
coedge $-1 $588 $587 $699 $756 reversed $589 $-1 #
edge $-1 $757 10 $590 20 $683 $758 forward 7 unknown #
point $-1 30 -20 0 #
coedge $-1 $594 $592 $677 $752 reversed $464 $-1 #
coedge $-1 $699 $600 $592 $691 forward $602 $-1 #
edge $-1 $759 -15 $692 5 $690 $760 forward 7 unknown #
vertex $-1 $756 $761 #
ellipse-curve $-1 10 -20 0 0 0 -1 10 0 0 1 I I #
attrib_edge_convexity-kcp-attrib $-1 $762 $-1 $595 1 #
ellipse-curve $-1 10 -20 30 0 0 1 10 0 0 1 I I #
coedge $-1 $598 $677 $600 $697 forward $678 $-1 #
edge $-1 $759 -10 $603 30 $696 $763 forward 7 unknown #
coedge $-1 $601 $699 $755 $764 forward $602 $-1 #
coedge $-1 $698 $690 $686 $756 forward $602 $-1 #
face $765 $477 $602 $8 $-1 $766 forward single #
point $-1 -30 -10 20 #
coedge $-1 $755 $608 $605 $703 reversed $684 $-1 #
edge $-1 $704 -10 $610 10 $605 $767 forward 7 unknown #
vertex $-1 $606 $768 #
straight-curve $-1 0 -10 -20 1 0 0 I I #
coedge $-1 $608 $710 $723 $769 forward $684 $-1 #
vertex $-1 $609 $770 #
straight-curve $-1 30 10 0 0 0 -1 I I #
point $-1 30 10 -20 #
coedge $-1 $706 $614 $617 $713 forward $684 $-1 #
straight-curve $-1 30 0 20 0 -1 0 I I #
coedge $-1 $617 $616 $771 $772 forward $618 $-1 #
edge $-1 $619 -10 $773 10 $710 $774 forward 7 unknown #
face $775 $753 $618 $8 $-1 $776 forward single #
point $-1 30 30 20 #
coedge $-1 $625 $771 $621 $717 reversed $724 $-1 #
edge $-1 $627 10 $718 30 $621 $777 forward 7 unknown #
vertex $-1 $772 $778 #
straight-curve $-1 10 30 10 0 0 -1 I I #
model_id-kcp-attrib $-1 $-1 $-1 $623 1 990663932 60 -1422131199 13 #
face $779 $714 $724 $8 $-1 $675 forward single #
plane-surface $-1 10 0 10 1 0 0 0 0 -1 forward_v I I I I #
coedge $-1 $771 $625 $706 $769 reversed $724 $-1 #
loop $-1 $-1 $625 $721 #
straight-curve $-1 10 10 0 -1 0 0 I I #
point $-1 10 10 0 #
point $-1 30 -20 20 #
convexity-sys-attrib $-1 $-1 $632 $499 #
point $-1 0 -20 30 #
coedge $-1 $640 $639 $653 $739 reversed $390 $-1 #
coedge $-1 $653 $645 $641 $732 forward $407 $-1 #
edge $780 $647 0 $733 20 $641 $781 forward 7 unknown #
vertex $-1 $732 $782 #
straight-curve $-1 10 30 -5 0 0 1 I I #
point $-1 10 30 15 #
convexity-sys-attrib $-1 $-1 $-1 $646 #
straight-curve $-1 10 10 -5 1 0 0 I I #
point $-1 10 10 -5 #
edge $783 $733 -10 $741 10 $730 $784 forward 7 unknown #
convexity-sys-attrib $-1 $-1 $-1 $655 #
vertex $-1 $739 $785 #
straight-curve $-1 30 10 -5 0 -1 0 I I #
straight-curve $-1 30 30 -5 0 0 1 I I #
convexity-sys-attrib $-1 $-1 $-1 $663 #
ellipse-curve $-1 10 -20 14.999999999999986 0 0 1 10 0 0 1 I I #
point $-1 0 -20 15 #
convexity-sys-attrib $-1 $-1 $-1 $670 #
straight-curve $-1 2.5 -20 14.999999999999986 -1 0 0 I I #
model_id-kcp-attrib $-1 $-1 $-1 $674 1 990663932 60 -1422131199 12 #
plane-surface $-1 30 0 0 -1 0 0 0 0 1 forward_v I I I I #
straight-curve $-1 0 -20 10 0 0 1 I I #
edge $-1 $679 -3.1415926535897931 $759 -1.5707963267948966 $677 $786 forward 7 unknown #
face $787 $700 $678 $8 $-1 $49 forward single #
point $-1 0 -20 20 #
coedge $-1 $683 $702 $698 $764 reversed $684 $-1 #
edge $-1 $692 0 $757 20 $699 $788 forward 7 unknown #
vertex $-1 $687 $789 #
straight-curve $-1 30 0 0 0 -1 0 I I #
vertex $-1 $752 $790 #
straight-curve $-1 10 -10 5 0 0 -1 I I #
point $-1 10 -10 0 #
convexity-sys-attrib $-1 $-1 $694 $595 #
straight-curve $-1 0 -10 20 -1 0 0 I I #
edge $-1 $757 0 $704 20 $755 $791 forward 7 unknown #
model_id-kcp-attrib $-1 $-1 $-1 $700 1 990663932 60 -1422131199 17 #
plane-surface $-1 0 -10 0 0 1 0 0 0 1 forward_v I I I I #
straight-curve $-1 30 0 -20 0 1 0 I I #
point $-1 30 -10 -20 #
edge $-1 $773 -30 $707 -10 $706 $758 forward 7 unknown #
point $-1 30 10 0 #
coedge $-1 $716 $723 $712 $772 reversed $724 $-1 #
edge $-1 $718 -10 $773 10 $712 $792 forward 7 unknown #
vertex $-1 $769 $793 #
straight-curve $-1 30 30 10 0 0 -1 I I #
model_id-kcp-attrib $-1 $-1 $-1 $714 1 990663932 60 -1422131199 15 #
plane-surface $-1 20 30 10 0 -1 0 0 0 -1 forward_v I I I I #
straight-curve $-1 10 0 0 0 1 0 I I #
point $-1 10 30 0 #
model_id-kcp-attrib $-1 $-1 $-1 $721 1 990663932 60 -1422131199 14 #
convexity-sys-attrib $-1 $-1 $-1 $732 #
straight-curve $-1 10 10 -5 0 1 0 I I #
point $-1 10 30 -5 #
convexity-sys-attrib $-1 $-1 $-1 $739 #
straight-curve $-1 20 30 -5 1 0 0 I I #
point $-1 30 30 -5 #
ellipse-curve $-1 10 -20 20 0 0 -1 10 0 0 1 I I #
model_id-kcp-attrib $-1 $-1 $-1 $753 1 990663932 60 -1422131199 16 #
straight-curve $-1 10 -10 0 1 0 0 I I #
point $-1 30 -10 0 #
point $-1 10 -10 20 #
straight-curve $-1 30 -10 0 0 0 -1 I I #
straight-curve $-1 20 30 0 1 0 0 I I #
point $-1 30 30 0 #
End-of-ACIS-data 