106 0 1 0           
body $-1 $1 $-1 $-1 #
lump $-1 $-1 $2 $0 #
shell $-1 $-1 $-1 $3 $1 #
face $-1 $4 $5 $2 $-1 $6 reversed single #
face $-1 $7 $8 $2 $-1 $9 reversed single #
loop $-1 $-1 $10 $3 #
plane-surface $-1 -40 0 0 1 0 0 0 0 -1 0 I I I I #
face $-1 $11 $12 $2 $-1 $13 forward single #
loop $-1 $-1 $14 $4 #
plane-surface $-1 0 40 0 0 -1 0 0 0 -1 0 I I I I #
coedge $-1 $15 $16 $14 $17 0 $5 $-1 #
face $-1 $18 $19 $2 $-1 $20 forward single #
loop $-1 $-1 $21 $7 #
plane-surface $-1 0 0 20 0 0 1 1 0 0 0 I I I I #
coedge $-1 $22 $23 $10 $17 1 $8 $-1 #
coedge $-1 $24 $10 $25 $26 1 $5 $-1 #
coedge $-1 $10 $24 $27 $28 1 $5 $-1 #
edge $-1 $29 $30 $14 $31 0 #
face $-1 $32 $33 $2 $-1 $34 reversed single #
loop $-1 $-1 $35 $11 #
plane-surface $-1 -30 0 0 1 0 0 0 0 -1 0 I I I I #
coedge $-1 $36 $37 $38 $39 0 $12 $-1 #
coedge $-1 $40 $14 $41 $42 1 $8 $-1 #
coedge $-1 $14 $43 $44 $45 1 $8 $-1 #
coedge $-1 $16 $15 $46 $47 1 $5 $-1 #
coedge $-1 $44 $48 $15 $26 0 $49 $-1 #
edge $-1 $50 $30 $15 $51 0 #
coedge $-1 $52 $41 $16 $28 0 $53 $-1 #
edge $-1 $29 $54 $16 $55 0 #
vertex $-1 $42 $56 #
vertex $-1 $45 $57 #
straight-curve $-1 -40 40 10 0 0 -1 I I #
face $-1 $58 $59 $2 $-1 $34 reversed single #
loop $-1 $-1 $60 $18 #
plane-surface $-1 0 -20 10 0 -1 0 0 0 -1 0 I I I I #
coedge $-1 $38 $61 $62 $63 1 $19 $-1 #
coedge $-1 $64 $21 $65 $66 0 $12 $-1 #
coedge $-1 $21 $67 $68 $69 0 $12 $-1 #
coedge $-1 $70 $35 $21 $39 1 $19 $-1 #
edge $-1 $71 $72 $21 $73 0 #
coedge $-1 $68 $22 $70 $74 0 $8 $-1 #
coedge $-1 $27 $75 $22 $42 0 $53 $-1 #
edge $-1 $76 $29 $22 $77 0 #
coedge $-1 $23 $68 $78 $79 0 $8 $-1 #
coedge $-1 $80 $25 $23 $45 0 $49 $-1 #
edge $-1 $30 $81 $23 $82 0 #
coedge $-1 $83 $84 $24 $47 0 $85 $-1 #
edge $-1 $54 $50 $24 $86 0 #
coedge $-1 $25 $80 $83 $87 0 $49 $-1 #
loop $-1 $-1 $80 $88 #
vertex $-1 $26 $89 #
straight-curve $-1 -40 0 -20 0 1 0 I I #
coedge $-1 $90 $27 $84 $91 0 $53 $-1 #
loop $-1 $-1 $52 $58 #
vertex $-1 $28 $92 #
straight-curve $-1 -40 -30 30 0 -1 0 I I #
point $-1 -40 40 30 #
point $-1 -40 40 -20 #
face $-1 $93 $53 $2 $-1 $94 forward single #
loop $-1 $-1 $95 $32 #
coedge $-1 $96 $97 $98 $99 1 $33 $-1 #
coedge $-1 $35 $100 $101 $102 1 $19 $-1 #
coedge $-1 $103 $65 $35 $63 0 $104 $-1 #
edge $-1 $72 $105 $62 $106 0 #
coedge $-1 $107 $36 $108 $109 0 $12 $-1 #
coedge $-1 $62 $110 $36 $66 1 $104 $-1 #
edge $-1 $72 $111 $36 $112 0 #
coedge $-1 $37 $113 $114 $115 0 $12 $-1 #
coedge $-1 $43 $40 $37 $69 1 $8 $-1 #
edge $-1 $116 $71 $68 $117 0 #
coedge $-1 $118 $38 $40 $74 1 $19 $-1 #
vertex $-1 $69 $119 #
vertex $-1 $39 $120 #
straight-curve $-1 -30 0 20 0 -1 0 I I #
edge $-1 $76 $71 $70 $121 0 #
coedge $-1 $41 $122 $118 $123 0 $53 $-1 #
vertex $-1 $123 $124 #
straight-curve $-1 -35 40 30 -1 0 0 I I #
coedge $-1 $114 $125 $43 $79 1 $126 $-1 #
edge $-1 $116 $81 $78 $127 0 #
coedge $-1 $48 $44 $125 $128 0 $49 $-1 #
vertex $-1 $128 $129 #
straight-curve $-1 0 40 -20 1 0 0 I I #
coedge $-1 $130 $46 $48 $87 1 $85 $-1 #
coedge $-1 $46 $130 $52 $91 1 $85 $-1 #
loop $-1 $-1 $46 $93 #
straight-curve $-1 -40 -40 10 0 0 -1 I I #
edge $-1 $131 $50 $83 $132 0 #
face $-1 $133 $134 $2 $-1 $135 reversed single #
point $-1 -40 -40 -20 #
coedge $-1 $136 $52 $137 $138 0 $53 $-1 #
edge $-1 $54 $139 $84 $140 0 #
point $-1 -40 -40 30 #
face $-1 $141 $85 $2 $-1 $142 reversed single #
plane-surface $-1 10 -20 30 0 0 1 1 0 0 0 I I I I #
coedge $-1 $143 $144 $145 $146 0 $59 $-1 #
coedge $-1 $147 $60 $136 $148 1 $33 $-1 #
coedge $-1 $60 $149 $150 $151 1 $33 $-1 #
coedge $-1 $152 $153 $60 $99 0 $154 $-1 #
edge $-1 $155 $156 $98 $157 0 #
coedge $-1 $61 $158 $159 $160 1 $19 $-1 #
coedge $-1 $161 $162 $61 $102 0 $134 $-1 #
edge $-1 $105 $163 $101 $164 0 #
coedge $-1 $165 $62 $162 $166 1 $104 $-1 #
loop $-1 $-1 $110 $167 #
vertex $-1 $102 $168 #
straight-curve $-1 -30 10 0 0 0 -1 I I #
coedge $-1 $169 $64 $170 $171 0 $12 $-1 #
coedge $-1 $172 $173 $64 $109 1 $174 $-1 #
edge $-1 $111 $175 $64 $176 0 #
coedge $-1 $65 $177 $172 $178 0 $104 $-1 #
vertex $-1 $66 $179 #
straight-curve $-1 0 10 20 1 0 0 I I #
coedge $-1 $67 $169 $180 $181 0 $12 $-1 #
coedge $-1 $182 $78 $67 $115 1 $126 $-1 #
edge $-1 $183 $116 $114 $184 0 #
vertex $-1 $115 $185 #
straight-curve $-1 0 40 20 -1 0 0 I I #
coedge $-1 $145 $70 $75 $123 1 $19 $-1 #
point $-1 -30 40 20 #
point $-1 -30 10 20 #
straight-curve $-1 -30 40 10 0 0 -1 I I #
coedge $-1 $75 $186 $143 $187 0 $53 $-1 #
edge $-1 $188 $76 $118 $189 0 #
point $-1 -30 40 30 #
coedge $-1 $78 $190 $80 $128 1 $126 $-1 #
loop $-1 $-1 $190 $133 #
straight-curve $-1 40 40 0 0 0 -1 I I #
edge $-1 $81 $131 $125 $191 0 #
point $-1 40 40 -20 #
coedge $-1 $84 $83 $190 $192 0 $85 $-1 #
vertex $-1 $192 $193 #
straight-curve $-1 0 -40 -20 -1 0 0 I I #
face $-1 $-1 $126 $2 $-1 $194 reversed single #
loop $-1 $49 $161 $88 #
plane-surface $-1 0 0 -20 0 0 1 1 0 0 0 I I I I #
coedge $-1 $186 $90 $96 $148 0 $53 $-1 #
coedge $-1 $190 $182 $90 $138 1 $126 $-1 #
edge $-1 $139 $195 $137 $196 0 #
vertex $-1 $138 $197 #
straight-curve $-1 0 -40 30 1 0 0 I I #
face $-1 $198 $154 $2 $-1 $199 forward single #
plane-surface $-1 0 -40 0 0 1 0 0 0 1 0 I I I I #
coedge $-1 $200 $95 $122 $187 1 $59 $-1 #
coedge $-1 $95 $200 $201 $202 1 $59 $-1 #
coedge $-1 $158 $118 $95 $146 1 $19 $-1 #
edge $-1 $203 $188 $95 $204 0 #
coedge $-1 $180 $96 $182 $205 0 $33 $-1 #
edge $-1 $195 $155 $96 $206 0 #
coedge $-1 $97 $180 $207 $208 1 $33 $-1 #
coedge $-1 $209 $210 $97 $151 0 $211 $-1 #
edge $-1 $156 $212 $150 $213 0 #
coedge $-1 $214 $98 $210 $215 1 $154 $-1 #
coedge $-1 $98 $216 $186 $217 1 $154 $-1 #
loop $-1 $-1 $216 $141 #
vertex $-1 $217 $218 #
vertex $-1 $215 $219 #
straight-curve $-1 20 -20 10 0 0 -1 I I #
coedge $-1 $100 $145 $220 $221 1 $19 $-1 #
coedge $-1 $222 $223 $100 $160 0 $224 $-1 #
edge $-1 $163 $225 $100 $226 1 #
coedge $-1 $227 $101 $223 $228 0 $134 $-1 #
coedge $-1 $101 $227 $103 $166 0 $134 $-1 #
vertex $-1 $228 $229 #
straight-curve $-1 -30 0 -20 0 -1 0 I I #
coedge $-1 $177 $103 $230 $231 1 $104 $-1 #
edge $-1 $232 $105 $162 $233 0 #
face $-1 $88 $104 $2 $-1 $234 forward single #
point $-1 -30 10 -20 #
coedge $-1 $113 $107 $235 $236 0 $12 $-1 #
coedge $-1 $237 $238 $107 $171 1 $239 $-1 #
edge $-1 $175 $240 $107 $241 0 #
coedge $-1 $242 $108 $110 $178 1 $174 $-1 #
coedge $-1 $108 $242 $237 $243 1 $174 $-1 #
loop $-1 $-1 $172 $244 #
vertex $-1 $109 $245 #
straight-curve $-1 10 0 20 0 1 0 I I #
coedge $-1 $110 $165 $246 $247 0 $104 $-1 #
edge $-1 $248 $111 $110 $249 0 #
point $-1 10 10 20 #
coedge $-1 $149 $147 $113 $181 1 $33 $-1 #
edge $-1 $250 $183 $113 $251 0 #
coedge $-1 $137 $114 $147 $205 1 $126 $-1 #
vertex $-1 $205 $252 #
straight-curve $-1 40 0 20 0 1 0 I I #
point $-1 40 40 20 #
coedge $-1 $122 $136 $153 $217 0 $53 $-1 #
edge $-1 $253 $188 $143 $206 0 #
vertex $-1 $187 $254 #
straight-curve $-1 -30 0 30 0 1 0 I I #
coedge $-1 $125 $137 $130 $192 1 $126 $-1 #
straight-curve $-1 40 0 -20 0 -1 0 I I #
edge $-1 $131 $139 $190 $255 1 #
point $-1 40 -40 -20 #
plane-surface $-1 40 0 0 -1 0 0 0 0 1 0 I I I I #
vertex $-1 $138 $256 #
straight-curve $-1 40 -30 30 0 1 0 I I #
point $-1 40 -40 30 #
face $-1 $257 $211 $2 $-1 $258 forward single #
cone-surface $-1 10 -20 10 0 0 1 10 0 0 1 I I 0 1 0 I I I I #
coedge $-1 $144 $143 $216 $259 1 $59 $-1 #
coedge $-1 $260 $220 $144 $202 0 $261 $-1 #
edge $-1 $203 $262 $201 $251 0 #
vertex $-1 $221 $263 #
straight-curve $-1 -30 -20 10 0 0 1 I I #
edge $-1 $195 $183 $182 $264 0 #
straight-curve $-1 0 -20 30 -1 0 0 I I #
coedge $-1 $235 $265 $149 $208 0 $266 $-1 #
edge $-1 $212 $250 $207 $267 0 #
coedge $-1 $268 $150 $265 $269 1 $211 $-1 #
coedge $-1 $150 $268 $152 $215 0 $211 $-1 #
loop $-1 $-1 $150 $198 #
vertex $-1 $269 $270 #
straight-curve $-1 10 -20 0 1 0 0 I I #
coedge $-1 $271 $152 $272 $273 1 $154 $-1 #
edge $-1 $274 $156 $210 $275 0 #
coedge $-1 $153 $271 $200 $259 0 $154 $-1 #
edge $-1 $155 $253 $186 $276 0 #
point $-1 20 -20 30 #
point $-1 20 -20 0 #
coedge $-1 $201 $277 $158 $221 0 $261 $-1 #
edge $-1 $225 $203 $220 $73 0 #
coedge $-1 $272 $159 $277 $278 1 $224 $-1 #
coedge $-1 $159 $279 $161 $228 1 $224 $-1 #
loop $-1 $-1 $280 $281 #
vertex $-1 $278 $282 #
straight-curve $-1 -30 -10 0 0 0 -1 I I #
coedge $-1 $162 $161 $283 $284 0 $134 $-1 #
edge $-1 $163 $285 $161 $286 0 #
point $-1 -30 -10 -20 #
coedge $-1 $283 $287 $165 $231 0 $266 $-1 #
edge $-1 $288 $232 $230 $289 0 #
vertex $-1 $166 $290 #
straight-curve $-1 0 10 -20 -1 0 0 I I #
plane-surface $-1 0 10 0 0 -1 0 0 0 -1 0 I I I I #
coedge $-1 $291 $207 $169 $236 1 $266 $-1 #
edge $-1 $240 $250 $169 $292 0 #
coedge $-1 $293 $170 $173 $243 0 $239 $-1 #
coedge $-1 $170 $293 $291 $294 1 $239 $-1 #
loop $-1 $-1 $238 $295 #
vertex $-1 $171 $296 #
straight-curve $-1 10 30 20 1 0 0 I I #
coedge $-1 $173 $172 $297 $298 0 $174 $-1 #
edge $-1 $175 $299 $237 $300 0 #
face $-1 $301 $174 $2 $-1 $302 forward single #
point $-1 10 30 20 #
coedge $-1 $303 $297 $177 $247 1 $304 $-1 #
edge $-1 $288 $248 $177 $305 0 #
vertex $-1 $247 $306 #
straight-curve $-1 10 10 5 0 0 1 I I #
vertex $-1 $236 $307 #
straight-curve $-1 0 -20 20 1 0 0 I I #
point $-1 40 -20 20 #
vertex $-1 $217 $308 #
point $-1 -30 -20 30 #
straight-curve $-1 40 -40 0 0 0 -1 I I #
point $-1 40 -20 30 #
face $-1 $244 $266 $2 $-1 $309 forward single #
plane-surface $-1 20 0 0 0 0 1 1 0 0 0 I I I I #
edge $-1 $262 $253 $216 $310 0 #
coedge $-1 $277 $201 $271 $311 0 $261 $-1 #
loop $-1 $-1 $220 $312 #
vertex $-1 $202 $313 #
point $-1 -30 -20 20 #
straight-curve $-1 40 -20 10 0 0 -1 I I #
coedge $-1 $207 $314 $209 $269 0 $266 $-1 #
loop $-1 $-1 $207 $257 #
straight-curve $-1 30 -20 5 0 0 1 I I #
coedge $-1 $210 $209 $280 $315 1 $211 $-1 #
edge $-1 $316 $212 $265 $317 0 #
point $-1 30 -20 0 #
coedge $-1 $216 $214 $260 $311 1 $154 $-1 #
coedge $-1 $280 $222 $214 $273 0 $224 $-1 #
edge $-1 $318 $274 $272 $319 0 #
vertex $-1 $315 $320 #
ellipse-curve $-1 10 -20 0 0 0 -1 10 0 0 1 I I #
ellipse-curve $-1 10 -20 30 0 0 1 10 0 0 1 I I #
coedge $-1 $220 $260 $222 $278 0 $261 $-1 #
edge $-1 $318 $225 $277 $321 0 #
coedge $-1 $223 $280 $314 $322 0 $224 $-1 #
coedge $-1 $279 $272 $268 $315 0 $224 $-1 #
face $-1 $167 $224 $2 $-1 $323 forward single #
point $-1 -30 -10 20 #
coedge $-1 $314 $230 $227 $284 1 $266 $-1 #
edge $-1 $285 $232 $227 $324 0 #
vertex $-1 $228 $325 #
straight-curve $-1 0 -10 -20 1 0 0 I I #
coedge $-1 $230 $291 $303 $326 0 $266 $-1 #
vertex $-1 $231 $327 #
straight-curve $-1 30 10 0 0 0 -1 I I #
point $-1 30 10 -20 #
coedge $-1 $287 $235 $238 $294 0 $266 $-1 #
straight-curve $-1 30 0 20 0 -1 0 I I #
coedge $-1 $238 $237 $328 $329 0 $239 $-1 #
edge $-1 $240 $330 $291 $331 0 #
face $-1 $312 $239 $2 $-1 $332 forward single #
point $-1 30 30 20 #
coedge $-1 $246 $328 $242 $298 1 $304 $-1 #
edge $-1 $248 $299 $242 $333 0 #
vertex $-1 $329 $334 #
straight-curve $-1 10 30 10 0 0 -1 I I #
face $-1 $295 $304 $2 $-1 $258 forward single #
plane-surface $-1 10 0 10 1 0 0 0 0 -1 0 I I I I #
coedge $-1 $328 $246 $287 $326 1 $304 $-1 #
loop $-1 $-1 $246 $301 #
straight-curve $-1 10 10 0 -1 0 0 I I #
point $-1 10 10 0 #
point $-1 30 -20 20 #
point $-1 0 -20 30 #
plane-surface $-1 30 0 0 -1 0 0 0 0 1 0 I I I I #
straight-curve $-1 0 -20 10 0 0 1 I I #
edge $-1 $262 $318 $260 $335 0 #
face $-1 $281 $261 $2 $-1 $13 forward single #
point $-1 0 -20 20 #
coedge $-1 $265 $283 $279 $322 1 $266 $-1 #
edge $-1 $274 $316 $280 $336 0 #
vertex $-1 $269 $337 #
straight-curve $-1 30 0 0 0 -1 0 I I #
vertex $-1 $311 $338 #
straight-curve $-1 10 -10 5 0 0 -1 I I #
point $-1 10 -10 0 #
straight-curve $-1 0 -10 20 -1 0 0 I I #
edge $-1 $316 $285 $314 $339 0 #
plane-surface $-1 0 -10 0 0 1 0 0 0 1 0 I I I I #
straight-curve $-1 30 0 -20 0 1 0 I I #
point $-1 30 -10 -20 #
edge $-1 $330 $288 $287 $317 0 #
point $-1 30 10 0 #
coedge $-1 $297 $303 $293 $329 1 $304 $-1 #
edge $-1 $299 $330 $293 $340 0 #
vertex $-1 $326 $341 #
straight-curve $-1 30 30 10 0 0 -1 I I #
plane-surface $-1 20 30 10 0 -1 0 0 0 -1 0 I I I I #
straight-curve $-1 10 0 0 0 1 0 I I #
point $-1 10 30 0 #
ellipse-curve $-1 10 -20 20 0 0 -1 10 0 0 1 I I #
straight-curve $-1 10 -10 0 1 0 0 I I #
point $-1 30 -10 0 #
point $-1 10 -10 20 #
straight-curve $-1 30 -10 0 0 0 -1 I I #
straight-curve $-1 20 30 0 1 0 0 I I #
point $-1 30 30 0 #
End-of-ACIS-data 