107 0 1 0           
body $1 $2 $-1 $3 #
display_attribute-st-attrib $-1 $4 $-1 $0 1 #
lump $-1 $-1 $5 $0 #
transform $-1 1 0 0 0 1 0 0 0 1 15 15 10 1 1 0 0 #
named_string_attribute-named_attribute-st-attrib $-1 $6 $1 $0 4 name8 holeTest#
shell $-1 $-1 $-1 $7 $-1 $2 #
rgb_color-st-attrib $-1 $8 $4 $0 0 1 0 #
face $9 $10 $11 $5 $-1 $12 forward single #
id_attribute-st-attrib $-1 $-1 $6 $0 1 #
fmesh-eye-attrib $-1 $-1 $-1 $7 #
face $13 $14 $15 $5 $-1 $16 forward single #
loop $-1 $17 $18 $7 #
plane-surface $-1 0 0 10 0 0 1 1 0 0 0 I I I I #
fmesh-eye-attrib $-1 $-1 $-1 $10 #
face $19 $20 $21 $5 $-1 $22 forward single #
loop $-1 $-1 $23 $10 #
plane-surface $-1 -5 0 7.5 0 -1 0 0 0 -1 0 I I I I #
loop $-1 $24 $25 $7 #
coedge $-1 $26 $27 $28 $29 0 $11 $-1 #
fmesh-eye-attrib $-1 $30 $-1 $14 #
face $31 $32 $33 $5 $-1 $34 forward single #
loop $-1 $-1 $35 $14 #
cone-surface $-1 -1.5 7 10 0 0 1 -0.3535533905932737309 0.3535533905932737309 0 1 I I 0 -1 0 I I I I #
coedge $-1 $36 $37 $38 $39 0 $15 $-1 #
loop $-1 $-1 $40 $7 #
coedge $-1 $41 $42 $43 $44 0 $17 $-1 #
coedge $-1 $45 $18 $46 $47 0 $11 $-1 #
coedge $-1 $18 $48 $49 $50 0 $11 $-1 #
coedge $-1 $51 $52 $18 $29 1 $53 $-1 #
edge $54 $55 $56 $18 $57 0 #
id_attribute-st-attrib $-1 $-1 $19 $14 0 #
fmesh-eye-attrib $-1 $58 $-1 $20 #
face $59 $60 $61 $5 $-1 $62 forward single #
loop $-1 $-1 $63 $20 #
plane-surface $-1 -2 7.5 10 1 0 0 0 0 -1 0 I I I I #
coedge $-1 $64 $65 $63 $66 0 $21 $-1 #
coedge $-1 $67 $23 $68 $69 0 $15 $-1 #
coedge $-1 $23 $67 $70 $71 1 $15 $-1 #
coedge $-1 $72 $73 $23 $39 1 $74 $-1 #
edge $75 $76 $77 $23 $78 0 #
coedge $-1 $70 $79 $72 $80 0 $24 $-1 #
coedge $-1 $81 $25 $82 $83 0 $17 $-1 #
coedge $-1 $25 $81 $84 $85 0 $17 $-1 #
coedge $-1 $86 $87 $25 $44 1 $88 $-1 #
edge $89 $90 $91 $43 $92 0 #
coedge $-1 $93 $26 $94 $95 0 $11 $-1 #
coedge $-1 $96 $97 $26 $47 1 $98 $-1 #
edge $99 $56 $100 $26 $101 0 #
coedge $-1 $27 $102 $103 $104 0 $11 $-1 #
coedge $-1 $105 $106 $27 $50 1 $107 $-1 #
edge $108 $109 $55 $27 $110 0 #
coedge $-1 $111 $28 $106 $112 1 $53 $-1 #
coedge $-1 $28 $111 $96 $113 1 $53 $-1 #
loop $-1 $-1 $51 $114 #
id_attribute-st-attrib $-1 $115 $-1 $29 0 #
vertex $-1 $29 $116 #
vertex $-1 $47 $117 #
straight-curve $-1 0 2.5 10 -1 0 0 I I #
id_attribute-st-attrib $-1 $-1 $31 $20 0 #
fmesh-eye-attrib $-1 $118 $-1 $32 #
face $119 $120 $121 $5 $-1 $122 reversed single #
loop $-1 $-1 $123 $32 #
cone-surface $-1 11.5 7 10 -0 -0 -1 0.3535533905932737309 0.3535533905932737309 0 1 I I 0 -1 0 I I I I #
coedge $-1 $124 $125 $35 $66 1 $33 $-1 #
coedge $-1 $126 $35 $127 $128 1 $21 $-1 #
coedge $-1 $35 $126 $129 $130 1 $21 $-1 #
edge $131 $132 $133 $63 $134 0 #
coedge $-1 $37 $36 $135 $136 1 $15 $-1 #
coedge $-1 $137 $138 $36 $69 1 $139 $-1 #
edge $140 $77 $141 $36 $142 0 #
coedge $-1 $143 $40 $37 $71 0 $24 $-1 #
edge $144 $76 $145 $70 $146 0 #
coedge $-1 $147 $38 $40 $80 1 $74 $-1 #
coedge $-1 $38 $147 $137 $148 0 $74 $-1 #
loop $-1 $-1 $72 $149 #
ptlist-eye-attrib $-1 $-1 $-1 $39 #
vertex $-1 $71 $150 #
vertex $-1 $69 $151 #
straight-curve $-1 -3.5 0 7.5 -0 -0 -1 I I #
coedge $-1 $40 $152 $153 $154 0 $24 $-1 #
edge $155 $156 $76 $40 $157 0 #
coedge $-1 $42 $41 $158 $159 0 $17 $-1 #
coedge $-1 $160 $161 $41 $83 1 $162 $-1 #
edge $163 $91 $164 $82 $165 0 #
coedge $-1 $166 $167 $42 $85 1 $168 $-1 #
edge $169 $170 $90 $84 $171 0 #
coedge $-1 $172 $43 $167 $173 0 $88 $-1 #
coedge $-1 $43 $172 $160 $174 1 $88 $-1 #
loop $-1 $-1 $86 $175 #
ptlist-eye-attrib $-1 $176 $-1 $44 #
vertex $-1 $44 $177 #
vertex $-1 $44 $178 #
straight-curve $-1 15 0 10 0 1 0 I I #
coedge $-1 $179 $45 $180 $181 0 $11 $-1 #
coedge $-1 $182 $183 $45 $95 1 $184 $-1 #
edge $185 $100 $186 $45 $57 0 #
coedge $-1 $187 $46 $52 $113 0 $98 $-1 #
coedge $-1 $46 $187 $182 $188 0 $98 $-1 #
loop $-1 $-1 $96 $189 #
id_attribute-st-attrib $-1 $190 $-1 $47 0 #
vertex $-1 $95 $191 #
ellipse-curve $-1 5 5 10 -0 -0 -1 5 0 0 1 I I #
coedge $-1 $48 $192 $193 $194 0 $11 $-1 #
coedge $-1 $195 $196 $48 $104 1 $197 $-1 #
edge $198 $199 $109 $48 $200 0 #
coedge $-1 $201 $49 $196 $202 0 $107 $-1 #
coedge $-1 $49 $201 $51 $112 0 $107 $-1 #
loop $-1 $-1 $105 $120 #
ptlist-eye-attrib $-1 $203 $-1 $50 #
vertex $-1 $50 $204 #
ellipse-curve $-1 11.5 3 10 -0 -0 -1 0.3535533905932737309 -0.3535533905932737309 0 1 I I #
coedge $-1 $52 $51 $205 $206 0 $53 $-1 #
edge $207 $208 $55 $51 $209 0 #
edge $210 $56 $211 $96 $212 0 #
face $213 $214 $53 $5 $-1 $215 reversed single #
ptlist-eye-attrib $-1 $-1 $54 $29 #
point $-1 11.5 2.5 10 #
point $-1 9.330127018922194537 2.5 10 #
id_attribute-st-attrib $-1 $-1 $59 $32 0 #
fmesh-eye-attrib $-1 $216 $-1 $60 #
face $217 $218 $107 $5 $-1 $219 forward single #
loop $-1 $-1 $220 $60 #
plane-surface $-1 10 7.5 10 0 1 0 0 0 1 0 I I I I #
coedge $-1 $193 $221 $195 $222 0 $61 $-1 #
coedge $-1 $223 $63 $179 $224 1 $33 $-1 #
coedge $-1 $63 $223 $225 $226 0 $33 $-1 #
coedge $-1 $65 $64 $227 $228 0 $21 $-1 #
coedge $-1 $225 $229 $64 $128 0 $230 $-1 #
edge $231 $232 $133 $127 $233 0 #
coedge $-1 $234 $179 $65 $130 0 $11 $-1 #
edge $235 $132 $236 $129 $237 0 #
ptlist-eye-attrib $-1 $238 $-1 $66 #
vertex $-1 $130 $239 #
vertex $-1 $66 $240 #
straight-curve $-1 -2 7 10 0 0 -1 F -1.550000000000000711 F 6.549999999999999822 #
coedge $-1 $241 $242 $67 $136 0 $243 $-1 #
edge $244 $145 $141 $67 $245 0 #
coedge $-1 $246 $68 $73 $148 1 $139 $-1 #
coedge $-1 $68 $247 $241 $248 0 $139 $-1 #
loop $-1 $249 $246 $250 #
ptlist-eye-attrib $-1 $-1 $-1 $69 #
vertex $-1 $136 $251 #
straight-curve $-1 -5 0 5 1 0 0 I I #
coedge $-1 $252 $70 $242 $253 0 $24 $-1 #
ptlist-eye-attrib $-1 $-1 $-1 $71 #
vertex $-1 $253 $254 #
straight-curve $-1 -2.5 0 10 1 0 -0 I I #
coedge $-1 $73 $72 $255 $256 1 $74 $-1 #
edge $257 $258 $77 $137 $259 0 #
face $260 $261 $74 $5 $-1 $262 reversed single #
point $-1 -3.5 0 10 #
point $-1 -3.5 0 5 #
coedge $-1 $79 $263 $264 $265 0 $24 $-1 #
coedge $-1 $266 $255 $79 $154 1 $267 $-1 #
edge $268 $269 $156 $79 $146 0 #
ptlist-eye-attrib $-1 $-1 $-1 $80 #
vertex $-1 $256 $270 #
ellipse-curve $-1 -5 0 10 -0 -0 -1 1.5 0 0 1 I I #
coedge $-1 $271 $272 $81 $159 1 $273 $-1 #
edge $274 $164 $170 $158 $275 0 #
coedge $-1 $276 $82 $87 $174 0 $162 $-1 #
coedge $-1 $82 $276 $271 $277 1 $162 $-1 #
loop $-1 $-1 $160 $278 #
ptlist-eye-attrib $-1 $279 $-1 $83 #
vertex $-1 $83 $280 #
straight-curve $-1 0 15 10 -1 0 0 I I #
coedge $-1 $281 $84 $272 $282 0 $168 $-1 #
coedge $-1 $84 $281 $86 $173 1 $168 $-1 #
loop $-1 $-1 $166 $283 #
ptlist-eye-attrib $-1 $284 $-1 $85 #
vertex $-1 $159 $285 #
straight-curve $-1 0 -15 10 1 0 0 I I #
coedge $-1 $87 $86 $286 $287 1 $88 $-1 #
edge $288 $90 $289 $86 $290 0 #
edge $291 $91 $292 $87 $293 0 #
face $294 $-1 $295 $5 $-1 $296 reversed single #
id_attribute-st-attrib $-1 $-1 $89 $44 0 #
point $-1 15 -15 10 #
point $-1 15 15 10 #
coedge $-1 $129 $93 $124 $224 0 $11 $-1 #
coedge $-1 $297 $298 $93 $181 1 $299 $-1 #
edge $300 $186 $301 $93 $302 0 #
coedge $-1 $303 $94 $97 $188 1 $184 $-1 #
coedge $-1 $94 $303 $297 $304 1 $184 $-1 #
loop $-1 $-1 $183 $305 #
id_attribute-st-attrib $-1 $306 $-1 $95 0 #
vertex $-1 $181 $307 #
coedge $-1 $97 $96 $308 $309 0 $98 $-1 #
edge $310 $311 $100 $97 $312 0 #
face $313 $314 $98 $5 $-1 $315 reversed single #
ptlist-eye-attrib $-1 $-1 $99 $47 #
point $-1 0.6698729810778063509 2.5 10 #
coedge $-1 $102 $316 $317 $318 0 $11 $-1 #
coedge $-1 $319 $123 $102 $194 1 $61 $-1 #
edge $320 $321 $199 $102 $322 0 #
coedge $-1 $323 $103 $123 $222 1 $197 $-1 #
coedge $-1 $103 $323 $105 $202 1 $197 $-1 #
loop $-1 $-1 $195 $218 #
id_attribute-st-attrib $-1 $324 $-1 $104 0 #
vertex $-1 $104 $325 #
straight-curve $-1 12 1.25 10 0 -1 0 I I #
coedge $-1 $106 $105 $326 $327 1 $107 $-1 #
edge $328 $109 $329 $196 $330 0 #
id_attribute-st-attrib $-1 $-1 $108 $50 0 #
point $-1 12 3 10 #
coedge $-1 $326 $308 $111 $206 1 $230 $-1 #
edge $331 $208 $211 $205 $332 0 #
ptlist-eye-attrib $-1 $333 $-1 $112 #
vertex $-1 $206 $334 #
straight-curve $-1 11.5 2.5 10 -0 -0 1 F -6.549999999999999822 F 1.550000000000000711 #
id_attribute-st-attrib $-1 $335 $-1 $113 0 #
vertex $-1 $309 $336 #
straight-curve $-1 9.330127018922194537 2.5 7.5 -0 0 -1 I I #
fmesh-eye-attrib $-1 $337 $-1 $114 #
face $338 $339 $340 $5 $-1 $122 reversed single #
plane-surface $-1 0 2.5 10 -0 -1 -0 0 0 -1 0 I I I I #
id_attribute-st-attrib $-1 $-1 $119 $60 0 #
fmesh-eye-attrib $-1 $341 $-1 $120 #
face $342 $343 $197 $5 $-1 $344 forward single #
cone-surface $-1 11.5 3 10 0 0 1 0.3535533905932737309 -0.3535533905932737309 0 1 I I 0 -1 0 I I I I #
coedge $-1 $317 $345 $319 $346 1 $121 $-1 #
coedge $-1 $123 $319 $347 $348 1 $61 $-1 #
edge $349 $350 $199 $195 $351 0 #
coedge $-1 $125 $124 $298 $352 1 $33 $-1 #
edge $353 $301 $132 $179 $354 0 #
coedge $-1 $355 $127 $125 $226 1 $230 $-1 #
edge $356 $357 $133 $225 $358 0 #
coedge $-1 $359 $360 $126 $228 1 $340 $-1 #
edge $361 $232 $236 $227 $362 0 #
coedge $-1 $127 $363 $359 $364 1 $230 $-1 #
loop $-1 $-1 $127 $339 #
ptlist-eye-attrib $-1 $365 $-1 $128 #
vertex $-1 $364 $366 #
ellipse-curve $-1 -1.5 7 5 -0 -0 1 -0.3535533905932737309 0.3535533905932737309 0 1 I I #
coedge $-1 $316 $129 $360 $367 0 $11 $-1 #
ptlist-eye-attrib $-1 $368 $-1 $130 #
vertex $-1 $367 $369 #
ellipse-curve $-1 -1.5 7 10 -0 -0 -1 -0.3535533905932737309 0.3535533905932737309 0 1 I I #
id_attribute-st-attrib $-1 $-1 $131 $66 0 #
point $-1 -2 7 10 #
point $-1 -2 7 5 #
coedge $-1 $370 $135 $138 $248 1 $243 $-1 #
coedge $-1 $135 $370 $143 $253 1 $243 $-1 #
loop $-1 $-1 $370 $371 #
ptlist-eye-attrib $-1 $372 $-1 $136 #
straight-curve $-1 -0.5 0 7.5 -0 0 -1 F -4.050000000000000711 F 4.049999999999999822 #
coedge $-1 $373 $137 $374 $375 1 $139 $-1 #
coedge $-1 $138 $376 $377 $378 1 $139 $-1 #
edge $379 $380 $141 $138 $381 0 #
loop $-1 $-1 $382 $250 #
face $383 $384 $139 $5 $-1 $385 forward single #
point $-1 -0.5 0 5 #
coedge $-1 $386 $143 $387 $388 0 $24 $-1 #
edge $389 $145 $390 $143 $391 0 #
point $-1 -0.5 0 10 #
coedge $-1 $153 $374 $147 $256 0 $267 $-1 #
edge $392 $258 $156 $255 $393 0 #
id_attribute-st-attrib $-1 $394 $-1 $148 0 #
vertex $-1 $375 $395 #
ellipse-curve $-1 -5 0 5 0 0 -1 1.5 0 0 1 I I #
fmesh-eye-attrib $-1 $396 $-1 $149 #
face $397 $250 $267 $5 $-1 $16 forward single #
cone-surface $-1 -5 0 7.5 0 0 1 1.5 0 0 1 I I 0 1 0 I I I I #
coedge $-1 $152 $398 $399 $400 0 $24 $-1 #
coedge $-1 $401 $402 $152 $265 1 $403 $-1 #
edge $404 $405 $269 $152 $406 0 #
coedge $-1 $374 $153 $402 $407 1 $267 $-1 #
loop $-1 $-1 $266 $261 #
id_attribute-st-attrib $-1 $408 $-1 $154 0 #
vertex $-1 $154 $409 #
point $-1 -6.5 0 10 #
coedge $-1 $410 $158 $161 $277 0 $273 $-1 #
coedge $-1 $158 $410 $166 $282 1 $273 $-1 #
loop $-1 $-1 $271 $411 #
ptlist-eye-attrib $-1 $412 $-1 $159 #
straight-curve $-1 -15 0 10 0 -1 0 I I #
coedge $-1 $161 $160 $413 $414 1 $162 $-1 #
edge $415 $164 $416 $161 $417 0 #
face $418 $175 $419 $5 $-1 $420 reversed single #
id_attribute-st-attrib $-1 $-1 $163 $83 0 #
point $-1 -15 15 10 #
coedge $-1 $167 $166 $421 $422 1 $168 $-1 #
edge $423 $170 $424 $272 $425 0 #
face $426 $411 $168 $5 $-1 $427 reversed single #
id_attribute-st-attrib $-1 $-1 $169 $85 0 #
point $-1 -15 -15 10 #
coedge $-1 $421 $413 $172 $287 0 $428 $-1 #
edge $429 $292 $289 $172 $430 0 #
ptlist-eye-attrib $-1 $431 $-1 $173 #
vertex $-1 $173 $432 #
straight-curve $-1 15 -15 0 0 0 -1 I I #
ptlist-eye-attrib $-1 $433 $-1 $174 #
vertex $-1 $287 $434 #
straight-curve $-1 15 15 0 0 0 -1 I I #
fmesh-eye-attrib $-1 $435 $-1 $175 #
loop $-1 $88 $436 $175 #
plane-surface $-1 15 0 0 -1 0 0 0 -0 1 0 I I I I #
coedge $-1 $437 $180 $183 $304 0 $299 $-1 #
coedge $-1 $180 $437 $223 $352 0 $299 $-1 #
loop $-1 $-1 $298 $343 #
ptlist-eye-attrib $-1 $438 $-1 $181 #
vertex $-1 $224 $439 #
ellipse-curve $-1 -1.5 3 10 -0 -0 -1 -0.3535533905932737309 -0.3535533905932737309 0 1 I I #
coedge $-1 $183 $182 $440 $441 0 $184 $-1 #
edge $442 $186 $443 $183 $444 0 #
face $445 $371 $184 $5 $-1 $215 reversed single #
ptlist-eye-attrib $-1 $-1 $185 $95 #
point $-1 -1.5 2.5 10 #
coedge $-1 $205 $440 $187 $309 1 $230 $-1 #
edge $446 $211 $311 $308 $447 0 #
id_attribute-st-attrib $-1 $448 $-1 $188 0 #
vertex $-1 $309 $449 #
straight-curve $-1 0.6698729810778063509 2.5 7.5 -0 -0 1 I I #
fmesh-eye-attrib $-1 $450 $-1 $189 #
face $451 $149 $452 $5 $-1 $453 reversed single #
cone-surface $-1 5 5 7.5 0 0 1 5 0 0 1 I I 0 1 0 I I I I #
coedge $-1 $192 $234 $454 $455 0 $11 $-1 #
coedge $-1 $456 $220 $192 $318 1 $121 $-1 #
edge $457 $458 $321 $192 $459 0 #
coedge $-1 $221 $193 $220 $346 0 $61 $-1 #
ptlist-eye-attrib $-1 $460 $-1 $194 #
vertex $-1 $194 $461 #
ellipse-curve $-1 11.5 7 10 -0 -0 -1 0.3535533905932737309 0.3535533905932737309 0 1 I I #
coedge $-1 $196 $195 $462 $463 0 $197 $-1 #
ptlist-eye-attrib $-1 $-1 $198 $104 #
point $-1 12 7 10 #
coedge $-1 $462 $205 $201 $327 0 $230 $-1 #
edge $464 $208 $329 $326 $465 0 #
ptlist-eye-attrib $-1 $466 $-1 $202 #
vertex $-1 $202 $467 #
straight-curve $-1 12 3 10 -0 -0 -1 F -1.550000000000000711 F 6.549999999999999822 #
id_attribute-st-attrib $-1 $468 $-1 $206 0 #
straight-curve $-1 0 2.5 5 -1 0 0 I I #
id_attribute-st-attrib $-1 $-1 $207 $112 0 #
point $-1 11.5 2.5 5 #
ptlist-eye-attrib $-1 $-1 $210 $113 #
point $-1 9.330127018922194537 2.5 5 #
id_attribute-st-attrib $-1 $469 $213 $114 0 #
fmesh-eye-attrib $-1 $470 $-1 $214 #
face $471 $472 $230 $5 $-1 $473 reversed single #
loop $-1 $-1 $227 $214 #
id_attribute-st-attrib $-1 $-1 $217 $120 0 #
fmesh-eye-attrib $-1 $474 $-1 $218 #
face $475 $305 $299 $5 $-1 $476 forward single #
plane-surface $-1 12 2.5 10 -1 -0 -0 0 0 1 0 I I I I #
coedge $-1 $220 $456 $477 $478 0 $121 $-1 #
edge $479 $321 $480 $220 $481 0 #
coedge $-1 $477 $462 $221 $348 0 $230 $-1 #
edge $482 $350 $480 $347 $483 0 #
ptlist-eye-attrib $-1 $484 $-1 $222 #
vertex $-1 $463 $485 #
straight-curve $-1 12 7 10 -0 -0 1 F -6.549999999999999822 F 1.550000000000000711 #
edge $486 $357 $301 $223 $487 0 #
id_attribute-st-attrib $-1 $488 $-1 $224 0 #
straight-curve $-1 -2 3.75 10 0 1 0 I I #
coedge $-1 $440 $225 $437 $489 0 $230 $-1 #
id_attribute-st-attrib $-1 $490 $-1 $226 0 #
vertex $-1 $226 $491 #
straight-curve $-1 -2 5 5 0 1 0 I I #
coedge $-1 $492 $227 $229 $364 0 $340 $-1 #
coedge $-1 $227 $492 $234 $367 1 $340 $-1 #
ptlist-eye-attrib $-1 $493 $-1 $228 #
straight-curve $-1 -1.5 7.5 10 0 0 1 F -6.549999999999999822 F 1.550000000000000711 #
coedge $-1 $229 $477 $494 $495 1 $230 $-1 #
edge $496 $232 $497 $229 $498 0 #
id_attribute-st-attrib $-1 $-1 $231 $128 0 #
point $-1 -1.5 7.5 5 #
edge $499 $236 $500 $234 $459 0 #
id_attribute-st-attrib $-1 $-1 $235 $130 0 #
point $-1 -1.5 7.5 10 #
coedge $-1 $242 $241 $501 $502 0 $243 $-1 #
face $503 $504 $243 $5 $-1 $505 forward single #
id_attribute-st-attrib $-1 $-1 $244 $136 0 #
coedge $-1 $506 $246 $507 $508 0 $139 $-1 #
coedge $-1 $255 $266 $246 $375 0 $267 $-1 #
edge $509 $510 $258 $374 $142 0 #
coedge $-1 $247 $511 $512 $513 0 $139 $-1 #
coedge $-1 $514 $501 $247 $378 0 $515 $-1 #
edge $516 $380 $517 $377 $518 0 #
ptlist-eye-attrib $-1 $519 $-1 $248 #
vertex $-1 $378 $520 #
ellipse-curve $-1 -0.5 -0.5 5 0 0 1 0.3535533905932737309 0.3535533905932737309 0 1 I I #
coedge $-1 $382 $382 $521 $522 0 $249 $-1 #
fmesh-eye-attrib $-1 $523 $-1 $250 #
face $524 $525 $526 $5 $-1 $527 reversed single #
plane-surface $-1 -5 -5 5 0 0 1 1 0 0 0 I I I I #
coedge $-1 $528 $252 $529 $530 0 $24 $-1 #
coedge $-1 $501 $514 $252 $388 1 $515 $-1 #
edge $531 $390 $532 $252 $533 0 #
ptlist-eye-attrib $-1 $534 $-1 $253 #
vertex $-1 $388 $535 #
ellipse-curve $-1 -0.5 -0.5 10 -0 -0 -1 0.3535533905932737309 0.3535533905932737309 0 1 I I #
id_attribute-st-attrib $-1 $536 $-1 $256 0 #
straight-curve $-1 -6.5 0 7.5 0 0 1 I I #
ptlist-eye-attrib $-1 $-1 $257 $148 #
point $-1 -6.5 0 5 #
id_attribute-st-attrib $-1 $537 $260 $149 0 #
fmesh-eye-attrib $-1 $538 $-1 $261 #
coedge $-1 $263 $528 $539 $540 0 $24 $-1 #
coedge $-1 $541 $542 $263 $400 1 $543 $-1 #
edge $544 $545 $405 $263 $546 0 #
coedge $-1 $507 $264 $542 $547 0 $403 $-1 #
coedge $-1 $264 $507 $266 $407 0 $403 $-1 #
loop $-1 $-1 $402 $548 #
ptlist-eye-attrib $-1 $549 $-1 $265 #
vertex $-1 $265 $550 #
ellipse-curve $-1 -9.5 -0.5 10 -0 -0 -1 -0.3535533905932737309 0.3535533905932737309 0 1 I I #
edge $551 $510 $269 $266 $552 0 #
ptlist-eye-attrib $-1 $-1 $268 $154 #
point $-1 -9.5 0 10 #
coedge $-1 $272 $271 $553 $554 1 $273 $-1 #
face $555 $278 $273 $5 $-1 $556 reversed single #
id_attribute-st-attrib $-1 $-1 $274 $159 0 #
coedge $-1 $286 $553 $276 $414 0 $428 $-1 #
edge $557 $416 $292 $276 $558 0 #
ptlist-eye-attrib $-1 $-1 $-1 $277 #
vertex $-1 $414 $559 #
straight-curve $-1 -15 15 0 0 0 -1 I I #
fmesh-eye-attrib $-1 $560 $-1 $278 #
loop $-1 $162 $561 $278 #
plane-surface $-1 0 15 0 0 -1 0 0 0 -1 0 I I I I #
coedge $-1 $553 $286 $281 $422 0 $428 $-1 #
edge $562 $289 $424 $281 $563 0 #
ptlist-eye-attrib $-1 $-1 $-1 $282 #
vertex $-1 $554 $564 #
straight-curve $-1 -15 -15 0 0 0 -1 I I #
fmesh-eye-attrib $-1 $565 $-1 $283 #
plane-surface $-1 0 -15 0 0 1 -0 -0 0 1 0 I I I I #
loop $-1 $-1 $286 $525 #
ptlist-eye-attrib $-1 $566 $-1 $287 #
straight-curve $-1 15 0 -10 0 -1 0 I I #
id_attribute-st-attrib $-1 $-1 $288 $173 0 #
point $-1 15 -15 -10 #
id_attribute-st-attrib $-1 $-1 $291 $174 0 #
point $-1 15 15 -10 #
fmesh-eye-attrib $-1 $567 $294 $175 #
coedge $-1 $436 $436 $568 $569 0 $295 $-1 #
coedge $-1 $298 $297 $355 $489 1 $299 $-1 #
id_attribute-st-attrib $-1 $-1 $300 $181 0 #
point $-1 -2 3 10 #
coedge $-1 $308 $355 $303 $441 1 $230 $-1 #
edge $570 $311 $443 $440 $332 0 #
ptlist-eye-attrib $-1 $571 $-1 $304 #
vertex $-1 $304 $572 #
straight-curve $-1 -1.5 2.5 10 0 0 -1 F -1.550000000000000711 F 6.549999999999999822 #
fmesh-eye-attrib $-1 $573 $-1 $305 #
id_attribute-st-attrib $-1 $574 $-1 $309 0 #
ellipse-curve $-1 5 5 5 0 0 -1 5 0 0 1 I I #
ptlist-eye-attrib $-1 $-1 $310 $188 #
point $-1 0.6698729810778063509 2.5 5 #
id_attribute-st-attrib $-1 $575 $313 $189 0 #
fmesh-eye-attrib $-1 $576 $-1 $314 #
loop $-1 $577 $578 $314 #
cone-surface $-1 4.999999999999999112 5 -6.123233995736766282e-16 0.7071067811865475727 -0.7071067811865474617 -8.881784197001251584e-17 1.767766952966368654 1.767766952966368876 2.465190328815661892e-32 1 I I 0 1 0 I I I I #
coedge $-1 $579 $580 $316 $455 1 $581 $-1 #
edge $582 $500 $458 $316 $101 0 #
coedge $-1 $345 $317 $580 $583 1 $121 $-1 #
id_attribute-st-attrib $-1 $584 $-1 $318 0 #
vertex $-1 $583 $585 #
straight-curve $-1 5 7.5 10 1 0 0 I I #
id_attribute-st-attrib $-1 $-1 $320 $194 0 #
point $-1 11.5 7.5 10 #
coedge $-1 $347 $326 $323 $463 1 $230 $-1 #
edge $586 $350 $329 $462 $587 0 #
ptlist-eye-attrib $-1 $588 $-1 $327 #
ellipse-curve $-1 11.5 3 5 -0 -0 1 0.3535533905932737309 -0.3535533905932737309 0 1 I I #
id_attribute-st-attrib $-1 $-1 $328 $202 0 #
point $-1 12 3 5 #
ptlist-eye-attrib $-1 $-1 $331 $206 #
fmesh-eye-attrib $-1 $-1 $337 $114 #
id_attribute-st-attrib $-1 $589 $338 $214 0 #
fmesh-eye-attrib $-1 $590 $-1 $339 #
face $591 $189 $581 $5 $-1 $315 reversed single #
plane-surface $-1 5 5 5 0 0 -1 -1 0 0 0 I I I I #
id_attribute-st-attrib $-1 $-1 $342 $218 0 #
fmesh-eye-attrib $-1 $592 $-1 $343 #
cone-surface $-1 -1.5 3 10 -0 -0 -1 -0.3535533905932737309 -0.3535533905932737309 0 1 I I 0 -1 0 I I I I #
coedge $-1 $363 $347 $345 $478 1 $230 $-1 #
edge $593 $594 $480 $477 $498 0 #
ptlist-eye-attrib $-1 $595 $-1 $346 #
vertex $-1 $346 $596 #
straight-curve $-1 11.5 7.5 10 0 0 -1 F -1.550000000000000711 F 6.549999999999999822 #
ptlist-eye-attrib $-1 $597 $-1 $348 #
ellipse-curve $-1 11.5 7 5 -0 -0 1 0.3535533905932737309 0.3535533905932737309 0 1 I I #
id_attribute-st-attrib $-1 $-1 $349 $222 0 #
point $-1 12 7 5 #
ptlist-eye-attrib $-1 $598 $-1 $352 #
straight-curve $-1 -2 3 10 -0 -0 1 F -6.549999999999999822 F 1.550000000000000711 #
ptlist-eye-attrib $-1 $-1 $353 $224 #
edge $599 $357 $443 $355 $600 0 #
ptlist-eye-attrib $-1 $-1 $356 $226 #
point $-1 -2 3 5 #
coedge $-1 $360 $359 $579 $601 1 $340 $-1 #
id_attribute-st-attrib $-1 $-1 $361 $228 0 #
coedge $-1 $580 $579 $363 $495 0 $581 $-1 #
edge $602 $497 $594 $363 $447 0 #
id_attribute-st-attrib $-1 $603 $-1 $364 0 #
vertex $-1 $495 $604 #
straight-curve $-1 10 7.5 5 1 0 0 I I #
id_attribute-st-attrib $-1 $605 $-1 $367 0 #
vertex $-1 $455 $606 #
coedge $-1 $377 $387 $370 $502 1 $515 $-1 #
edge $607 $380 $390 $501 $608 0 #
fmesh-eye-attrib $-1 $609 $-1 $371 #
face $610 $611 $612 $5 $-1 $613 forward single #
cone-surface $-1 -0.5 -0.5 7.5 -0 -0 -1 0.3535533905932737309 0.3535533905932737309 0 1 I I 0 -1 0 I I I I #
coedge $-1 $614 $373 $615 $616 1 $139 $-1 #
coedge $-1 $402 $401 $373 $508 1 $403 $-1 #
edge $617 $510 $618 $373 $619 0 #
id_attribute-st-attrib $-1 $620 $-1 $375 0 #
vertex $621 $375 $622 #
coedge $-1 $376 $614 $623 $624 1 $139 $-1 #
coedge $-1 $625 $626 $376 $513 1 $612 $-1 #
edge $627 $628 $517 $376 $629 0 #
coedge $-1 $387 $377 $626 $630 1 $515 $-1 #
loop $-1 $-1 $501 $611 #
id_attribute-st-attrib $-1 $631 $-1 $378 0 #
vertex $-1 $630 $632 #
straight-curve $-1 0 -5 5 0 -1 0 I I #
id_attribute-st-attrib $-1 $-1 $379 $248 0 #
point $-1 0 -0.5 5 #
coedge $-1 $521 $521 $382 $522 1 $526 $-1 #
edge $633 $634 $634 $382 $635 0 #
id_attribute-st-attrib $-1 $636 $383 $250 0 #
fmesh-eye-attrib $-1 $637 $-1 $384 #
face $638 $283 $639 $5 $-1 $640 reversed single #
loop $-1 $641 $521 $384 #
cone-surface $-1 -5 -5 0 0 0 1 2.5 0 0 1 I I 0 1 0 I I I I #
coedge $-1 $398 $386 $642 $643 0 $24 $-1 #
coedge $-1 $626 $625 $386 $530 1 $612 $-1 #
edge $644 $532 $645 $386 $646 0 #
id_attribute-st-attrib $-1 $647 $-1 $388 0 #
vertex $-1 $530 $648 #
straight-curve $-1 0 -2.5 10 0 -1 0 I I #
id_attribute-st-attrib $-1 $-1 $389 $253 0 #
point $-1 0 -0.5 10 #
ptlist-eye-attrib $-1 $-1 $392 $256 #
fmesh-eye-attrib $-1 $-1 $396 $149 #
id_attribute-st-attrib $-1 $649 $397 $261 0 #
coedge $-1 $650 $651 $398 $540 1 $652 $-1 #
edge $653 $654 $545 $398 $655 0 #
coedge $-1 $615 $399 $651 $656 1 $543 $-1 #
coedge $-1 $399 $615 $401 $547 1 $543 $-1 #
loop $-1 $-1 $541 $657 #
id_attribute-st-attrib $-1 $658 $-1 $400 0 #
vertex $-1 $400 $659 #
straight-curve $-1 -10 -2.5 10 0 1 0 I I #
edge $660 $405 $618 $542 $661 0 #
face $662 $657 $403 $5 $-1 $663 forward single #
id_attribute-st-attrib $-1 $-1 $404 $265 0 #
point $-1 -10 -0.5 10 #
ptlist-eye-attrib $-1 $664 $-1 $407 #
straight-curve $-1 -9.5 0 7.5 -0 -0 1 F -4.049999999999999822 F 4.050000000000000711 #
coedge $-1 $413 $421 $410 $554 0 $428 $-1 #
edge $665 $424 $416 $410 $666 0 #
fmesh-eye-attrib $-1 $667 $-1 $411 #
plane-surface $-1 -15 0 0 1 0 0 0 0 -1 0 I I I I #
ptlist-eye-attrib $-1 $-1 $-1 $414 #
straight-curve $-1 0 15 -10 1 0 0 I I #
point $-1 -15 15 -10 #
fmesh-eye-attrib $-1 $668 $418 $278 #
coedge $-1 $561 $561 $578 $669 0 $419 $-1 #
ptlist-eye-attrib $-1 $-1 $-1 $422 #
straight-curve $-1 0 -15 -10 -1 0 0 I I #
point $-1 -15 -15 -10 #
id_attribute-st-attrib $-1 $670 $426 $283 0 #
id_attribute-st-attrib $-1 $-1 $429 $287 0 #
id_attribute-st-attrib $-1 $-1 $435 $175 0 #
coedge $-1 $568 $568 $436 $569 1 $577 $-1 #
edge $671 $672 $672 $436 $673 0 #
id_attribute-st-attrib $-1 $674 $-1 $441 0 #
id_attribute-st-attrib $-1 $-1 $442 $304 0 #
point $-1 -1.5 2.5 5 #
id_attribute-st-attrib $-1 $-1 $445 $305 0 #
ptlist-eye-attrib $-1 $-1 $446 $309 #
fmesh-eye-attrib $-1 $-1 $450 $189 #
id_attribute-st-attrib $-1 $675 $451 $314 0 #
loop $-1 $-1 $568 $314 #
coedge $-1 $578 $578 $561 $669 1 $452 $-1 #
coedge $-1 $494 $454 $492 $601 0 $581 $-1 #
coedge $-1 $454 $494 $456 $583 0 $581 $-1 #
loop $-1 $-1 $580 $472 #
id_attribute-st-attrib $-1 $676 $-1 $455 0 #
edge $677 $594 $458 $580 $678 0 #
ptlist-eye-attrib $-1 $-1 $457 $318 #
point $-1 9.330127018922194537 7.5 10 #
id_attribute-st-attrib $-1 $679 $-1 $463 0 #
straight-curve $-1 12 5 5 0 -1 0 I I #
id_attribute-st-attrib $-1 $-1 $464 $327 0 #
fmesh-eye-attrib $-1 $-1 $470 $214 #
id_attribute-st-attrib $-1 $680 $471 $339 0 #
fmesh-eye-attrib $-1 $681 $-1 $472 #
id_attribute-st-attrib $-1 $-1 $475 $343 0 #
id_attribute-st-attrib $-1 $682 $-1 $478 0 #
vertex $-1 $495 $683 #
id_attribute-st-attrib $-1 $-1 $479 $346 0 #
point $-1 11.5 7.5 5 #
id_attribute-st-attrib $-1 $-1 $482 $348 0 #
id_attribute-st-attrib $-1 $-1 $486 $352 0 #
ptlist-eye-attrib $-1 $684 $-1 $489 #
ellipse-curve $-1 -1.5 3 5 -0 -0 1 -0.3535533905932737309 -0.3535533905932737309 0 1 I I #
edge $685 $500 $497 $579 $686 0 #
id_attribute-st-attrib $-1 $687 $-1 $495 0 #
ptlist-eye-attrib $-1 $-1 $496 $364 #
point $-1 0.6698729810778063509 7.5 5 #
ptlist-eye-attrib $-1 $-1 $499 $367 #
point $-1 0.6698729810778063509 7.5 10 #
ptlist-eye-attrib $-1 $688 $-1 $502 #
straight-curve $-1 0 -0.5 7.5 -0 0 1 F -4.049999999999999822 F 4.050000000000000711 #
id_attribute-st-attrib $-1 $-1 $503 $371 0 #
fmesh-eye-attrib $-1 $689 $-1 $504 #
face $690 $691 $515 $5 $-1 $692 forward single #
loop $-1 $-1 $625 $504 #
cone-surface $-1 -0.5 -9.5 7.5 0 0 -1 0.3535533905932737309 -0.3535533905932737309 0 1 I I 0 -1 0 I I I I #
coedge $-1 $511 $506 $693 $694 0 $139 $-1 #
coedge $-1 $542 $541 $506 $616 0 $543 $-1 #
edge $695 $696 $618 $615 $697 0 #
ptlist-eye-attrib $-1 $698 $-1 $508 #
vertex $-1 $547 $699 #
ellipse-curve $-1 -9.5 -0.5 5 0 0 1 -0.3535533905932737309 0.3535533905932737309 0 1 I I #
ptlist-eye-attrib $-1 $-1 $509 $375 #
id_attribute-st-attrib $-1 $-1 $-1 $510 0 #
point $-1 -9.5 0 5 #
coedge $-1 $700 $701 $511 $624 0 $702 $-1 #
edge $703 $628 $704 $623 $705 0 #
coedge $-1 $529 $512 $701 $706 0 $612 $-1 #
coedge $-1 $512 $529 $514 $630 0 $612 $-1 #
ptlist-eye-attrib $-1 $707 $-1 $513 #
vertex $-1 $624 $708 #
ellipse-curve $-1 -0.5 -9.5 5 0 0 1 0.3535533905932737309 -0.3535533905932737309 0 1 I I #
edge $709 $532 $517 $514 $710 0 #
ptlist-eye-attrib $-1 $-1 $516 $378 #
point $-1 0 -9.5 5 #
id_attribute-st-attrib $-1 $711 $-1 $522 0 #
vertex $-1 $522 $712 #
ellipse-curve $-1 -5 -5 5 -0 -0 -1 2.5 0 0 1 I I #
fmesh-eye-attrib $-1 $-1 $523 $250 #
id_attribute-st-attrib $-1 $713 $524 $384 0 #
fmesh-eye-attrib $-1 $714 $-1 $525 #
loop $-1 $428 $715 $525 #
plane-surface $-1 0 0 -10 0 0 1 1 0 0 0 I I I I #
loop $-1 $-1 $716 $384 #
coedge $-1 $701 $700 $528 $643 1 $702 $-1 #
edge $717 $645 $654 $528 $718 0 #
ptlist-eye-attrib $-1 $719 $-1 $530 #
vertex $-1 $643 $720 #
ellipse-curve $-1 -0.5 -9.5 10 -0 -0 -1 0.3535533905932737309 -0.3535533905932737309 0 1 I I #
ptlist-eye-attrib $-1 $-1 $531 $388 #
point $-1 0 -9.5 10 #
fmesh-eye-attrib $-1 $-1 $538 $261 #
coedge $-1 $693 $539 $700 $721 0 $652 $-1 #
coedge $-1 $539 $693 $541 $656 0 $652 $-1 #
loop $-1 $-1 $651 $691 #
ptlist-eye-attrib $-1 $722 $-1 $540 #
vertex $-1 $540 $723 #
ellipse-curve $-1 -9.5 -9.5 10 -0 -0 -1 -0.3535533905932737309 -0.3535533905932737309 0 1 I I #
edge $724 $696 $545 $541 $725 0 #
face $726 $114 $543 $5 $-1 $727 forward single #
ptlist-eye-attrib $-1 $-1 $544 $400 #
point $-1 -10 -9.5 10 #
ptlist-eye-attrib $-1 $728 $-1 $547 #
straight-curve $-1 -10 -0.5 7.5 0 -0 -1 F -4.050000000000000711 F 4.049999999999999822 #
fmesh-eye-attrib $-1 $729 $-1 $548 #
cone-surface $-1 -9.5 -0.5 7.5 0 0 -1 -0.3535533905932737309 0.3535533905932737309 0 1 I I 0 -1 0 I I I I #
id_attribute-st-attrib $-1 $-1 $551 $407 0 #
ptlist-eye-attrib $-1 $-1 $-1 $554 #
straight-curve $-1 -15 0 -10 0 1 0 I I #
id_attribute-st-attrib $-1 $730 $555 $411 0 #
id_attribute-st-attrib $-1 $-1 $560 $278 0 #
edge $731 $732 $732 $561 $733 0 #
fmesh-eye-attrib $-1 $-1 $565 $283 #
id_attribute-st-attrib $-1 $734 $-1 $569 0 #
vertex $-1 $569 $735 #
ellipse-curve $-1 15 -4.999999999999998224 -1.868397366520696466e-15 -1 0 0 0 3.535533905932737309 2.220446049250312834e-16 0.7071067811865475727 I I #
ptlist-eye-attrib $-1 $-1 $570 $441 #
fmesh-eye-attrib $-1 $-1 $576 $314 #
ptlist-eye-attrib $-1 $-1 $582 $455 #
id_attribute-st-attrib $-1 $736 $-1 $583 0 #
straight-curve $-1 9.330127018922194537 7.5 7.5 0 0 1 I I #
ptlist-eye-attrib $-1 $-1 $586 $463 #
fmesh-eye-attrib $-1 $-1 $590 $339 #
id_attribute-st-attrib $-1 $737 $591 $472 0 #
ptlist-eye-attrib $-1 $-1 $593 $478 #
point $-1 9.330127018922194537 7.5 5 #
id_attribute-st-attrib $-1 $-1 $599 $489 0 #
id_attribute-st-attrib $-1 $738 $-1 $601 0 #
straight-curve $-1 0.6698729810778063509 7.5 7.5 0 -0 -1 I I #
ptlist-eye-attrib $-1 $-1 $602 $495 #
id_attribute-st-attrib $-1 $-1 $607 $502 0 #
id_attribute-st-attrib $-1 $-1 $610 $504 0 #
fmesh-eye-attrib $-1 $739 $-1 $611 #
face $740 $741 $652 $5 $-1 $742 forward single #
plane-surface $-1 0 -5 7.5 -1 0 0 0 0 1 0 I I I I #
coedge $-1 $651 $650 $614 $694 1 $652 $-1 #
edge $743 $696 $704 $614 $744 0 #
id_attribute-st-attrib $-1 $745 $-1 $616 0 #
vertex $-1 $616 $746 #
straight-curve $-1 -10 -5 5 0 1 0 I I #
id_attribute-st-attrib $-1 $-1 $617 $508 0 #
point $-1 -10 -0.5 5 #
coedge $-1 $642 $623 $650 $721 1 $702 $-1 #
coedge $-1 $623 $642 $625 $706 1 $702 $-1 #
loop $-1 $-1 $701 $741 #
id_attribute-st-attrib $-1 $747 $-1 $624 0 #
vertex $-1 $721 $748 #
straight-curve $-1 -5 -10 5 -1 0 0 I I #
edge $749 $628 $645 $701 $750 0 #
id_attribute-st-attrib $-1 $-1 $627 $513 0 #
point $-1 -0.5 -10 5 #
ptlist-eye-attrib $-1 $751 $-1 $630 #
straight-curve $-1 0 -9.5 7.5 0 0 -1 F -4.050000000000000711 F 4.049999999999999822 #
ptlist-eye-attrib $-1 $-1 $633 $522 #
point $-1 -7.5 -5.000000000000017764 5 #
fmesh-eye-attrib $-1 $-1 $637 $384 #
fmesh-eye-attrib $-1 $752 $638 $525 #
coedge $-1 $715 $715 $716 $753 0 $639 $-1 #
coedge $-1 $716 $716 $715 $753 1 $641 $-1 #
id_attribute-st-attrib $-1 $754 $-1 $643 0 #
straight-curve $-1 -2.5 -10 10 -1 0 0 I I #
id_attribute-st-attrib $-1 $-1 $644 $530 0 #
point $-1 -0.5 -10 10 #
edge $755 $654 $704 $700 $756 0 #
id_attribute-st-attrib $-1 $-1 $653 $540 0 #
point $-1 -9.5 -10 10 #
ptlist-eye-attrib $-1 $757 $-1 $656 #
straight-curve $-1 -10 -9.5 7.5 -0 -0 1 F -4.049999999999999822 F 4.050000000000000711 #
fmesh-eye-attrib $-1 $758 $-1 $657 #
plane-surface $-1 -10 -5 7.5 1 0 0 0 0 -1 0 I I I I #
id_attribute-st-attrib $-1 $-1 $660 $547 0 #
id_attribute-st-attrib $-1 $-1 $662 $548 0 #
fmesh-eye-attrib $-1 $-1 $667 $411 #
id_attribute-st-attrib $-1 $759 $-1 $669 0 #
vertex $-1 $669 $760 #
ellipse-curve $-1 -5.000000000000002665 15 6.437505673733433079e-16 0 -1 0 3.535533905932737753 0 -2.220446049250312834e-16 0.7071067811865474617 I I #
ptlist-eye-attrib $-1 $-1 $671 $569 #
point $-1 15 -8.535533905932735976 -1.954784866566139455e-14 #
ptlist-eye-attrib $-1 $-1 $677 $583 #
fmesh-eye-attrib $-1 $-1 $681 $472 #
ptlist-eye-attrib $-1 $-1 $685 $601 #
id_attribute-st-attrib $-1 $-1 $690 $611 0 #
fmesh-eye-attrib $-1 $761 $-1 $691 #
face $762 $548 $702 $5 $-1 $763 forward single #
cone-surface $-1 -9.5 -9.5 7.5 -0 -0 -1 -0.3535533905932737309 -0.3535533905932737309 0 1 I I 0 -1 0 I I I I #
ptlist-eye-attrib $-1 $764 $-1 $694 #
ellipse-curve $-1 -9.5 -9.5 5 0 0 1 -0.3535533905932737309 -0.3535533905932737309 0 1 I I #
ptlist-eye-attrib $-1 $-1 $695 $616 #
point $-1 -10 -9.5 5 #
ptlist-eye-attrib $-1 $-1 $703 $624 #
point $-1 -9.5 -10 5 #
ptlist-eye-attrib $-1 $765 $-1 $706 #
straight-curve $-1 -0.5 -10 7.5 0 -0 1 F -4.049999999999999822 F 4.050000000000000711 #
id_attribute-st-attrib $-1 $-1 $709 $630 0 #
id_attribute-st-attrib $-1 $-1 $714 $525 0 #
edge $766 $767 $767 $715 $768 0 #
ptlist-eye-attrib $-1 $-1 $717 $643 #
ptlist-eye-attrib $-1 $769 $-1 $721 #
straight-curve $-1 -9.5 -10 7.5 0 0 -1 F -4.050000000000000711 F 4.049999999999999822 #
id_attribute-st-attrib $-1 $-1 $724 $656 0 #
id_attribute-st-attrib $-1 $-1 $726 $657 0 #
ptlist-eye-attrib $-1 $-1 $731 $669 #
point $-1 -8.535533905932741305 15 1.832320186651403991e-14 #
id_attribute-st-attrib $-1 $-1 $740 $691 0 #
fmesh-eye-attrib $-1 $770 $-1 $741 #
plane-surface $-1 -5 -10 7.5 0 1 0 0 0 1 0 I I I I #
id_attribute-st-attrib $-1 $-1 $743 $694 0 #
id_attribute-st-attrib $-1 $-1 $749 $706 0 #
id_attribute-st-attrib $-1 $771 $-1 $753 0 #
vertex $-1 $753 $772 #
ellipse-curve $-1 -5 -5 -10 0 0 1 2.5 0 0 1 I I #
id_attribute-st-attrib $-1 $-1 $755 $721 0 #
id_attribute-st-attrib $-1 $-1 $762 $741 0 #
ptlist-eye-attrib $-1 $-1 $766 $753 #
point $-1 -2.5 -5 -10 #
End-of-ACIS-data 