**ABCDEFGHIJKLMNOPQRSTUVWXYZabcdefghijklmnopqrstuvwxyz**************************
**PARASOLID !"#$%&'()*+,-./:;<=>?@[\]^_`{|}~0123456789**************************
**PART1;
MC=unknown;
MC_MODEL=unknown;
MC_ID=unknown;
OS=unknown;
OS_RELEASE=unknown;
FRU=sdl_parasolid_customer_support;
APPL=parasolid_acceptance_tests;
SITE=unknown;
USER=unknown;
FORMAT=text;
GUISE=transmit;
KEY=stock;
FILE=stock.xmt_txt;
DATE=unknown;
**PART2;
SCH=SCH_504068_5059;
USFLD_SIZE=0;
**PART3;
**END_OF_HEADER*****************************************************************
T50 : TRANSMIT FILE created by modeller version 50406815 SCH_504068_50590 12 1 5
9 0 0 0 0 0 1e3 1e-8 2 2 0 3 4 1 5 6 7 8 102 5 2 stock13 5 2 0 1 0 9 10 11 50 6
 51 0 9 12 0 0 +.75 .45 .5 0 0 1 1 0 0 30 7 59 0 10 13 0 0 +.75 0 .5 -1 0 0 29 8
 55 0 11 14 0 0 0 .5 18 11 20 0 15 0 16 8 ?29 14 54 0 16 17 8 0 .9 .5 18 16 18 0
 18 11 19 14 ?29 17 53 0 19 20 14 1.5 .9 .5 18 19 16 0 21 16 22 17 ?29 20 52 0 2
2 23 17 1.5 0 .5 18 22 14 0 24 19 25 20 ?29 23 38 0 26 27 20 0 0 0 18 26 8 0 28
 29 30 23 ?29 27 37 0 29 31 23 0 .9 0 18 29 10 0 32 25 26 27 ?29 31 36 0 25 33 2
7 1.5 .9 0 18 25 12 0 34 22 29 31 ?29 33 35 0 30 0 31 1.5 0 0 18 30 7 0 35 26 0
 33 ?17 35 36 24 37 30 38 39 0 15 36 29 0 24 40 0 17 24 36 41 35 22 42 43 0 17 3
7 36 35 41 26 15 44 0 17 38 45 46 47 26 35 39 0 16 39 9 0 35 48 49 50 ?0 0 16 48
 11 0 28 51 39 52 ?0 0 16 49 3 0 34 39 0 53 ?0 0 30 50 39 0 39 0 53 0 +.75 0 0 1
 0 0 30 53 40 0 49 50 54 0 +1.5 .45 0 0 1 0 30 54 41 0 51 53 52 0 +.75 .9 0 -1 0
 0 16 51 13 0 32 43 48 54 ?0 0 30 52 42 0 48 54 55 0 +0 .45 0 0 -1 0 30 55 47 0
 43 52 56 0 +1.5 0 0 0 0 1 16 43 15 0 24 57 51 55 ?0 0 30 56 48 0 57 55 58 0 +1.
5 .9 0 0 0 1 16 57 17 0 21 59 43 56 ?0 0 30 58 49 0 59 56 60 0 +0 .9 0 0 0 1 16
 59 19 0 18 44 57 58 ?0 0 30 60 50 0 44 58 61 0 +0 0 0 0 0 1 16 44 21 0 15 62 59
 60 ?0 0 30 61 56 0 62 60 63 0 +1.5 .45 .5 0 -1 0 16 62 22 0 64 65 44 61 ?0 0 30
 63 57 0 65 61 13 0 +.75 .9 .5 1 0 0 16 65 25 0 66 67 62 63 ?0 0 30 13 58 0 67 6
3 7 0 +0 .45 .5 0 1 0 16 67 28 0 68 10 65 13 ?0 0 17 68 69 70 15 16 71 67 0 16 1
0 31 0 41 0 67 7 ?0 0 17 41 36 37 24 11 72 10 0 17 72 73 74 71 22 41 10 0 15 73
 32 0 72 9 0 17 74 73 75 72 19 64 62 0 17 71 73 72 75 11 68 67 0 17 75 73 71 74
 16 66 65 0 17 66 76 77 18 19 75 65 0 15 76 23 0 18 78 0 17 77 76 32 66 25 21 57
 0 17 18 76 66 32 16 70 59 0 17 32 76 18 77 29 79 51 0 17 70 69 28 68 29 18 59 0
 15 69 26 0 15 80 0 17 28 69 15 70 26 46 48 0 17 15 69 68 28 11 37 44 0 17 46 45
 79 38 29 28 48 0 15 45 5 0 47 81 0 17 79 45 47 46 25 32 51 0 17 47 45 38 79 30
 34 49 0 17 34 82 21 42 25 47 49 0 15 82 4 0 34 83 0 17 21 82 64 34 19 77 57 0 1
7 42 82 34 64 30 24 43 0 17 64 82 42 21 22 74 62 0 14 83 1 0 0 81 82 5 84 +?0 0
 14 81 6 0 83 78 45 5 85 +?0 0 50 84 43 0 83 85 86 0 +1.5 .45 0 1 0 0 0 0 -1 50
 85 34 0 81 0 84 0 +.75 .45 0 0 0 -1 -1 0 0 50 86 44 0 78 84 87 0 +.75 .9 0 0 1
 0 0 0 1 14 78 24 0 81 80 76 5 86 +?0 0 50 87 45 0 80 86 12 0 +0 .45 0 -1 0 0 0
 0 1 14 80 27 0 78 40 69 5 87 +?0 0 50 12 46 0 40 87 6 0 +.75 0 0 0 -1 0 0 0 -1
 14 40 30 0 80 9 36 5 12 +?0 0 14 9 33 0 40 0 73 5 6 +?0 0 1 0 
