600 0 1 0           
66 GICL ACIS Healer - Source: linkage_arm_short_46_link1_43.sat - 6 0 18 ACIS 6.0.3 Solaris 24 Fri Mar 29 22:12:06 2002 
1 9.999999999999999547e-07 1.000000000000000036e-10 
body $1 $2 $-1 $-1 #
aggregate_advspl_attribute-aggregate_geombuild_base_attribute-aggregate_body_attribute-attrib_HH-attrib $-1 $3 $-1 $0 F #
lump $-1 $-1 $4 $0 #
aggregate_secndry_attribute-aggregate_geombuild_base_attribute-aggregate_body_attribute-attrib_HH-attrib $-1 $5 $1 $0 F #
shell $-1 $-1 $-1 $6 $-1 $2 #
aggregate_sharped_attribute-aggregate_geombuild_base_attribute-aggregate_body_attribute-attrib_HH-attrib $-1 $7 $3 $0 F #
face $8 $9 $10 $4 $-1 $11 reversed single #
aggregate_reblend_attribute-aggregate_geombuild_base_attribute-aggregate_body_attribute-attrib_HH-attrib $-1 $12 $5 $0 F #
attrib_hh_face_geombuild-attrib_entity_geombuild-individual_entity_attribute-attrib_HH-attrib $-1 $-1 $-1 $6 F #
face $13 $14 $15 $4 $-1 $16 forward single #
loop $-1 $17 $18 $6 #
plane-surface $-1 -1.502599999999999936 4.937000000000000277 5.632799999999999585 0 -1 0 0.7071067811865474617 0 0.7071067811865474617 forward_v I I I I #
aggregate_isospline_attribute-aggregate_geombuild_base_attribute-aggregate_body_attribute-attrib_HH-attrib $-1 $19 $7 $0 F #
attrib_hh_face_geombuild-attrib_entity_geombuild-individual_entity_attribute-attrib_HH-attrib $-1 $-1 $-1 $9 F #
face $20 $21 $22 $4 $-1 $23 reversed single #
loop $-1 $24 $25 $9 #
plane-surface $-1 -1.502599999999999936 4.437000000000000277 5.632799999999999585 0 -1 0 0.7071067811865474617 0 0.7071067811865474617 forward_v I I I I #
loop $-1 $26 $27 $6 #
coedge $28 $18 $18 $29 $30 forward $10 $-1 #
aggregate_analytic_solver_attribute-aggregate_geombuild_base_attribute-aggregate_body_attribute-attrib_HH-attrib $-1 $31 $12 $0 F #
attrib_hh_face_geombuild-attrib_entity_geombuild-individual_entity_attribute-attrib_HH-attrib $-1 $-1 $-1 $14 F #
face $32 $33 $34 $4 $-1 $35 reversed single #
loop $-1 $36 $37 $14 #
cone-surface $-1 -3.005201910021413347 4.937000000000000277 4.130198089978586395 0 -1 0 0.3093592167691144867 0 0.3093592167691144867 1 I I 0 1 0.4375 forward I I I I #
loop $-1 $38 $39 $9 #
coedge $40 $25 $25 $37 $41 reversed $15 $-1 #
loop $-1 $-1 $42 $6 #
coedge $43 $27 $27 $44 $45 forward $17 $-1 #
attrib_hh_coedge_geombuild-attrib_entity_geombuild-individual_entity_attribute-attrib_HH-attrib $-1 $-1 $-1 $18 F #
coedge $46 $29 $29 $18 $30 reversed $36 $-1 #
edge $47 $48 -3.141592653589793116 $48 3.141592653589793116 $29 $49 forward 7 unknown #
aggregate_geombuild_attribute-aggregate_geombuild_base_attribute-aggregate_body_attribute-attrib_HH-attrib $-1 $50 $19 $0 #
attrib_hh_face_geombuild-attrib_entity_geombuild-individual_entity_attribute-attrib_HH-attrib $-1 $-1 $-1 $21 F #
face $51 $52 $53 $4 $-1 $54 forward single #
loop $-1 $55 $56 $21 #
cone-surface $-1 1.910021413475959662e-06 4.937000000000000277 7.135401910021412775 0 -1 0 0.3093592167691144867 0 0.3093592167691144867 1 I I 0 1 0.4375 forward I I I I #
loop $-1 $-1 $29 $14 #
coedge $57 $37 $37 $25 $41 forward $22 $-1 #
loop $-1 $-1 $58 $9 #
coedge $59 $39 $39 $56 $60 reversed $24 $-1 #
attrib_hh_coedge_geombuild-attrib_entity_geombuild-individual_entity_attribute-attrib_HH-attrib $-1 $-1 $-1 $25 F #
edge $61 $62 0 $62 6.283185307179586232 $37 $63 forward 7 unknown #
coedge $64 $65 $66 $67 $68 forward $26 $-1 #
attrib_hh_coedge_geombuild-attrib_entity_geombuild-individual_entity_attribute-attrib_HH-attrib $-1 $-1 $-1 $27 F #
coedge $69 $44 $44 $27 $45 reversed $55 $-1 #
edge $70 $71 -3.141592653589793116 $71 3.141592653589793116 $44 $72 forward 7 unknown #
attrib_hh_coedge_geombuild-attrib_entity_geombuild-individual_entity_attribute-attrib_HH-attrib $-1 $-1 $-1 $29 F #
attrib_hh_edge_geombuild-attrib_entity_geombuild-individual_entity_attribute-attrib_HH-attrib $-1 $-1 $-1 $30 F #
vertex $73 $30 $74 #
ellipse-curve $-1 -3.005201910021413347 4.937000000000000277 4.130198089978586395 0 -1 0 -0.3093592167691144867 0 -0.3093592167691144867 1 I I #
aggregate_stitch_attribute-aggregate_stitch_base_attribute-aggregate_body_attribute-attrib_HH-attrib $-1 $75 $31 $0 F #
attrib_hh_face_geombuild-attrib_entity_geombuild-individual_entity_attribute-attrib_HH-attrib $-1 $-1 $-1 $33 F #
face $76 $77 $78 $4 $-1 $79 forward single #
loop $-1 $-1 $67 $33 #
cone-surface $-1 1.910021413475959662e-06 4.937000000000000277 7.135401910021412775 0 -1 0 0.5303300858899105963 0 0.5303300858899105963 1 I I 0 1 0.75 forward I I I I #
loop $-1 $-1 $44 $21 #
coedge $80 $56 $56 $39 $60 forward $34 $-1 #
attrib_hh_coedge_geombuild-attrib_entity_geombuild-individual_entity_attribute-attrib_HH-attrib $-1 $-1 $-1 $37 F #
coedge $81 $82 $83 $84 $85 reversed $38 $-1 #
attrib_hh_coedge_geombuild-attrib_entity_geombuild-individual_entity_attribute-attrib_HH-attrib $-1 $-1 $-1 $39 F #
edge $86 $87 0 $87 6.283185307179586232 $56 $88 forward 7 unknown #
attrib_hh_edge_geombuild-attrib_entity_geombuild-individual_entity_attribute-attrib_HH-attrib $-1 $-1 $-1 $41 F #
vertex $89 $41 $90 #
ellipse-curve $-1 -3.005201910021413347 4.437000000000000277 4.130198089978586395 0 -1 0 0.3093592167691144867 0 0.3093592167691144867 1 I I #
attrib_hh_coedge_geombuild-attrib_entity_geombuild-individual_entity_attribute-attrib_HH-attrib $-1 $-1 $-1 $42 F #
coedge $91 $92 $42 $93 $94 forward $26 $-1 #
coedge $95 $42 $92 $96 $97 forward $26 $-1 #
coedge $98 $99 $100 $42 $68 reversed $53 $-1 #
edge $101 $102 -3.141592653589792228 $103 -1.973729821555834233e-16 $67 $104 forward 7 unknown #
attrib_hh_coedge_geombuild-attrib_entity_geombuild-individual_entity_attribute-attrib_HH-attrib $-1 $-1 $-1 $44 F #
attrib_hh_edge_geombuild-attrib_entity_geombuild-individual_entity_attribute-attrib_HH-attrib $-1 $-1 $-1 $45 F #
vertex $105 $45 $106 #
ellipse-curve $-1 1.910021413475959662e-06 4.937000000000000277 7.135401910021412775 0 -1 0 -0.3093592167691144867 0 -0.3093592167691144867 1 I I #
attrib_hh_vertex_geombuild-attrib_entity_geombuild-individual_entity_attribute-attrib_HH-attrib $-1 $-1 $-1 $48 F #
point $-1 -2.695842693252298972 4.937000000000000277 4.439557306747700771 #
aggregate_simgeom_attribute-aggregate_simgeom_base_attribute-aggregate_body_attribute-attrib_HH-attrib $-1 $-1 $50 $0 F #
attrib_hh_face_geombuild-attrib_entity_geombuild-individual_entity_attribute-attrib_HH-attrib $-1 $-1 $-1 $52 F #
face $107 $108 $109 $4 $-1 $110 forward single #
loop $-1 $-1 $96 $52 #
plane-surface $-1 -0.5303281758684971203 4.937000000000000277 7.665731995911324148 -0.7071067811865474617 0 0.7071067811865474617 0 -1 0 forward_v I I I I #
attrib_hh_coedge_geombuild-attrib_entity_geombuild-individual_entity_attribute-attrib_HH-attrib $-1 $-1 $-1 $56 F #
attrib_hh_coedge_geombuild-attrib_entity_geombuild-individual_entity_attribute-attrib_HH-attrib $-1 $-1 $-1 $58 F #
coedge $111 $112 $58 $113 $114 reversed $38 $-1 #
coedge $115 $58 $112 $116 $117 reversed $38 $-1 #
coedge $118 $100 $99 $58 $85 forward $53 $-1 #
edge $119 $120 -3.141592653589792228 $121 -1.973729821555834233e-16 $84 $122 forward 7 unknown #
attrib_hh_edge_geombuild-attrib_entity_geombuild-individual_entity_attribute-attrib_HH-attrib $-1 $-1 $-1 $60 F #
vertex $123 $60 $124 #
ellipse-curve $-1 1.910021413475959662e-06 4.437000000000000277 7.135401910021412775 0 -1 0 0.3093592167691144867 0 0.3093592167691144867 1 I I #
attrib_hh_vertex_geombuild-attrib_entity_geombuild-individual_entity_attribute-attrib_HH-attrib $-1 $-1 $-1 $62 F #
point $-1 -2.695842693252298972 4.437000000000000277 4.439557306747700771 #
attrib_hh_coedge_geombuild-attrib_entity_geombuild-individual_entity_attribute-attrib_HH-attrib $-1 $-1 $-1 $65 F #
coedge $125 $66 $65 $126 $127 forward $26 $-1 #
coedge $128 $129 $130 $65 $94 reversed $131 $-1 #
edge $132 $103 -4.250000000000000888 $133 0 $93 $134 forward 7 unknown #
attrib_hh_coedge_geombuild-attrib_entity_geombuild-individual_entity_attribute-attrib_HH-attrib $-1 $-1 $-1 $66 F #
coedge $135 $136 $137 $66 $97 reversed $78 $-1 #
edge $138 $139 -4.250000000000000888 $102 0 $96 $140 forward 7 unknown #
attrib_hh_coedge_geombuild-attrib_entity_geombuild-individual_entity_attribute-attrib_HH-attrib $-1 $-1 $-1 $67 F #
coedge $141 $84 $67 $137 $142 reversed $53 $-1 #
coedge $143 $67 $84 $129 $144 forward $53 $-1 #
attrib_hh_edge_geombuild-attrib_entity_geombuild-individual_entity_attribute-attrib_HH-attrib $-1 $-1 $-1 $68 F #
vertex $145 $142 $146 #
vertex $147 $144 $148 #
ellipse-curve $-1 1.910021413475959662e-06 4.937000000000000277 7.135401910021412775 0 1 0 0.5303300858899105963 0 -0.5303300858899105963 1 I I #
attrib_hh_vertex_geombuild-attrib_entity_geombuild-individual_entity_attribute-attrib_HH-attrib $-1 $-1 $-1 $71 F #
point $-1 0.3093611267905278517 4.937000000000000277 7.44476112679052715 #
attrib_hh_face_geombuild-attrib_entity_geombuild-individual_entity_attribute-attrib_HH-attrib $-1 $-1 $-1 $77 F #
face $149 $-1 $131 $4 $-1 $150 forward single #
loop $-1 $-1 $126 $77 #
cone-surface $-1 -3.005201910021413347 4.937000000000000277 4.130198089978586395 0 -1 0 0.5303300858899105963 0 0.5303300858899105963 1 I I 0 1 0.75 forward I I I I #
attrib_hh_coedge_geombuild-attrib_entity_geombuild-individual_entity_attribute-attrib_HH-attrib $-1 $-1 $-1 $82 F #
coedge $151 $83 $82 $152 $153 reversed $38 $-1 #
coedge $154 $137 $136 $82 $114 forward $78 $-1 #
edge $155 $156 -4.250000000000000888 $120 0 $113 $157 forward 7 unknown #
attrib_hh_coedge_geombuild-attrib_entity_geombuild-individual_entity_attribute-attrib_HH-attrib $-1 $-1 $-1 $83 F #
coedge $158 $130 $129 $83 $117 forward $131 $-1 #
edge $159 $121 -4.250000000000000888 $160 0 $116 $161 forward 7 unknown #
attrib_hh_coedge_geombuild-attrib_entity_geombuild-individual_entity_attribute-attrib_HH-attrib $-1 $-1 $-1 $84 F #
attrib_hh_edge_geombuild-attrib_entity_geombuild-individual_entity_attribute-attrib_HH-attrib $-1 $-1 $-1 $85 F #
vertex $162 $142 $163 #
vertex $164 $144 $165 #
ellipse-curve $-1 1.910021413475959662e-06 4.437000000000000277 7.135401910021412775 0 1 0 0.5303300858899105963 0 -0.5303300858899105963 1 I I #
attrib_hh_vertex_geombuild-attrib_entity_geombuild-individual_entity_attribute-attrib_HH-attrib $-1 $-1 $-1 $87 F #
point $-1 0.3093611267905278517 4.437000000000000277 7.44476112679052715 #
attrib_hh_coedge_geombuild-attrib_entity_geombuild-individual_entity_attribute-attrib_HH-attrib $-1 $-1 $-1 $92 F #
coedge $166 $167 $168 $92 $127 reversed $109 $-1 #
edge $169 $133 -3.141592653589792672 $139 0 $126 $170 forward 7 unknown #
attrib_hh_coedge_geombuild-attrib_entity_geombuild-individual_entity_attribute-attrib_HH-attrib $-1 $-1 $-1 $93 F #
coedge $171 $116 $93 $100 $144 reversed $131 $-1 #
coedge $172 $93 $116 $167 $173 forward $131 $-1 #
loop $-1 $-1 $93 $108 #
attrib_hh_edge_geombuild-attrib_entity_geombuild-individual_entity_attribute-attrib_HH-attrib $-1 $-1 $-1 $94 F #
vertex $174 $173 $175 #
straight-curve $-1 -2.474871824131502862 4.937000000000000277 3.599868004088675466 -0.7071067811865474617 0 -0.7071067811865474617 I I #
attrib_hh_coedge_geombuild-attrib_entity_geombuild-individual_entity_attribute-attrib_HH-attrib $-1 $-1 $-1 $96 F #
coedge $176 $113 $96 $168 $177 reversed $78 $-1 #
coedge $178 $96 $113 $99 $142 forward $78 $-1 #
attrib_hh_edge_geombuild-attrib_entity_geombuild-individual_entity_attribute-attrib_HH-attrib $-1 $-1 $-1 $97 F #
vertex $179 $177 $180 #
straight-curve $-1 -0.5303281758684971203 4.937000000000000277 7.665731995911324148 0.7071067811865474617 0 0.7071067811865474617 I I #
attrib_hh_coedge_geombuild-attrib_entity_geombuild-individual_entity_attribute-attrib_HH-attrib $-1 $-1 $-1 $99 F #
edge $181 $120 -0.5 $102 0 $137 $182 forward 7 unknown #
attrib_hh_coedge_geombuild-attrib_entity_geombuild-individual_entity_attribute-attrib_HH-attrib $-1 $-1 $-1 $100 F #
edge $183 $121 -0.5 $103 0 $129 $184 forward 7 unknown #
attrib_hh_vertex_geombuild-attrib_entity_geombuild-individual_entity_attribute-attrib_HH-attrib $-1 $-1 $-1 $102 F #
point $-1 -0.5303281758684971203 4.937000000000000277 7.665731995911324148 #
attrib_hh_vertex_geombuild-attrib_entity_geombuild-individual_entity_attribute-attrib_HH-attrib $-1 $-1 $-1 $103 F #
point $-1 0.5303319959113241833 4.937000000000000277 6.605071824131502289 #
attrib_hh_face_geombuild-attrib_entity_geombuild-individual_entity_attribute-attrib_HH-attrib $-1 $-1 $-1 $108 F #
plane-surface $-1 -2.474871824131502862 4.937000000000000277 3.599868004088675466 0.7071067811865474617 0 -0.7071067811865474617 0 1 0 forward_v I I I I #
attrib_hh_coedge_geombuild-attrib_entity_geombuild-individual_entity_attribute-attrib_HH-attrib $-1 $-1 $-1 $112 F #
coedge $185 $168 $167 $112 $153 forward $109 $-1 #
edge $186 $160 -3.141592653589792672 $156 0 $152 $187 forward 7 unknown #
attrib_hh_coedge_geombuild-attrib_entity_geombuild-individual_entity_attribute-attrib_HH-attrib $-1 $-1 $-1 $113 F #
attrib_hh_edge_geombuild-attrib_entity_geombuild-individual_entity_attribute-attrib_HH-attrib $-1 $-1 $-1 $114 F #
vertex $188 $177 $189 #
straight-curve $-1 -0.5303281758684971203 4.437000000000000277 7.665731995911324148 0.7071067811865474617 0 0.7071067811865474617 I I #
attrib_hh_coedge_geombuild-attrib_entity_geombuild-individual_entity_attribute-attrib_HH-attrib $-1 $-1 $-1 $116 F #
attrib_hh_edge_geombuild-attrib_entity_geombuild-individual_entity_attribute-attrib_HH-attrib $-1 $-1 $-1 $117 F #
vertex $190 $173 $191 #
straight-curve $-1 -2.474871824131502862 4.437000000000000277 3.599868004088675466 -0.7071067811865474617 0 -0.7071067811865474617 I I #
attrib_hh_vertex_geombuild-attrib_entity_geombuild-individual_entity_attribute-attrib_HH-attrib $-1 $-1 $-1 $120 F #
point $-1 -0.5303281758684971203 4.437000000000000277 7.665731995911324148 #
attrib_hh_vertex_geombuild-attrib_entity_geombuild-individual_entity_attribute-attrib_HH-attrib $-1 $-1 $-1 $121 F #
point $-1 0.5303319959113241833 4.437000000000000277 6.605071824131502289 #
attrib_hh_coedge_geombuild-attrib_entity_geombuild-individual_entity_attribute-attrib_HH-attrib $-1 $-1 $-1 $126 F #
coedge $192 $152 $126 $130 $173 reversed $109 $-1 #
coedge $193 $126 $152 $136 $177 forward $109 $-1 #
attrib_hh_edge_geombuild-attrib_entity_geombuild-individual_entity_attribute-attrib_HH-attrib $-1 $-1 $-1 $127 F #
ellipse-curve $-1 -3.005201910021413347 4.937000000000000277 4.130198089978586395 0 1 0 -0.5303300858899105963 0 0.5303300858899105963 1 I I #
attrib_hh_coedge_geombuild-attrib_entity_geombuild-individual_entity_attribute-attrib_HH-attrib $-1 $-1 $-1 $129 F #
attrib_hh_coedge_geombuild-attrib_entity_geombuild-individual_entity_attribute-attrib_HH-attrib $-1 $-1 $-1 $130 F #
edge $194 $160 -0.5 $133 0 $130 $195 forward 7 unknown #
attrib_hh_vertex_geombuild-attrib_entity_geombuild-individual_entity_attribute-attrib_HH-attrib $-1 $-1 $-1 $133 F #
point $-1 -2.474871824131502862 4.937000000000000277 3.599868004088675466 #
attrib_hh_coedge_geombuild-attrib_entity_geombuild-individual_entity_attribute-attrib_HH-attrib $-1 $-1 $-1 $136 F #
edge $196 $156 -0.5 $139 0 $168 $197 forward 7 unknown #
attrib_hh_coedge_geombuild-attrib_entity_geombuild-individual_entity_attribute-attrib_HH-attrib $-1 $-1 $-1 $137 F #
attrib_hh_vertex_geombuild-attrib_entity_geombuild-individual_entity_attribute-attrib_HH-attrib $-1 $-1 $-1 $139 F #
point $-1 -3.535531995911323833 4.937000000000000277 4.660528175868496881 #
attrib_hh_edge_geombuild-attrib_entity_geombuild-individual_entity_attribute-attrib_HH-attrib $-1 $-1 $-1 $142 F #
straight-curve $-1 -0.5303281758684971203 4.937000000000000277 7.665731995911324148 0 1 0 I I #
attrib_hh_edge_geombuild-attrib_entity_geombuild-individual_entity_attribute-attrib_HH-attrib $-1 $-1 $-1 $144 F #
straight-curve $-1 0.5303319959113241833 4.937000000000000277 6.605071824131502289 0 1 0 I I #
attrib_hh_coedge_geombuild-attrib_entity_geombuild-individual_entity_attribute-attrib_HH-attrib $-1 $-1 $-1 $152 F #
attrib_hh_edge_geombuild-attrib_entity_geombuild-individual_entity_attribute-attrib_HH-attrib $-1 $-1 $-1 $153 F #
ellipse-curve $-1 -3.005201910021413347 4.437000000000000277 4.130198089978586395 0 1 0 -0.5303300858899105963 0 0.5303300858899105963 1 I I #
attrib_hh_vertex_geombuild-attrib_entity_geombuild-individual_entity_attribute-attrib_HH-attrib $-1 $-1 $-1 $156 F #
point $-1 -3.535531995911323833 4.437000000000000277 4.660528175868496881 #
attrib_hh_vertex_geombuild-attrib_entity_geombuild-individual_entity_attribute-attrib_HH-attrib $-1 $-1 $-1 $160 F #
point $-1 -2.474871824131502862 4.437000000000000277 3.599868004088675466 #
attrib_hh_coedge_geombuild-attrib_entity_geombuild-individual_entity_attribute-attrib_HH-attrib $-1 $-1 $-1 $167 F #
attrib_hh_coedge_geombuild-attrib_entity_geombuild-individual_entity_attribute-attrib_HH-attrib $-1 $-1 $-1 $168 F #
attrib_hh_edge_geombuild-attrib_entity_geombuild-individual_entity_attribute-attrib_HH-attrib $-1 $-1 $-1 $173 F #
straight-curve $-1 -2.474871824131502862 4.937000000000000277 3.599868004088675466 0 1 0 I I #
attrib_hh_edge_geombuild-attrib_entity_geombuild-individual_entity_attribute-attrib_HH-attrib $-1 $-1 $-1 $177 F #
straight-curve $-1 -3.535531995911323833 4.937000000000000277 4.660528175868496881 0 1 0 I I #
End-of-ACIS-data 