**ABCDEFGHIJKLMNOPQRSTUVWXYZabcdefghijklmnopqrstuvwxyz**************************
**PARASOLID !"#$%&'()*+,-./:;<=>?@[\]^_`{|}~0123456789**************************
**PART1;MC=sparc;MC_MODEL=sun4c;MC_ID=chaos;OS=SunOS;OS_RELEASE=4.1.2;FRU=sdl_pa
rasolid_test_sparc;APPL=unknown;SITE=sdl-cambridge-u.k.;USER=brown;FORMAT=text;G
UISE=transmit;KEY=inner_mallocba;FILE=inner_mallocba.xmt_txt;DATE=14-feb-1992;
**PART2;SCH=SCH_401021_4039;USFLD_SIZE=0;
**PART3;
**END_OF_HEADER*****************************************************************
T50 : TRANSMIT FILE created by modeller version 40102115 SCH_401021_40390 12 1 1
783 2 3 0 0 0 1e3 1e-8 4 2 0 5 6 1 7 1e-8 0 0 81 2 2 1783 8 1 0 0 0 0 9 10 70 3
 0 1 0 0 4 1 20 4 11 11 1 102 14 4 inner_mallocba13 7 22 0 1 0 12 13 14 15 16 17
 14 12 1579 0 18 0 19 7 15 -16 13 1619 0 20 0 21 16 18 14 1659 0 22 0 23 17 50 1
5 1687 0 12 24 0 0 +0 0 -1 0 0 -1 -1 0 0 31 16 1709 0 13 25 0 0 -1e-8 0 0 -1 0 0
 -1 -1 0 0 10.555 29 17 1749 0 14 26 0 -4.375 10.69473702341484 0 29 26 1750 0 2
3 27 17 -4.375 9.60559212125936 0 18 23 1660 0 28 14 29 26 29 27 1755 0 29 30 26
 -4.375 9.60559212125936 -1 18 29 1665 0 20 23 31 27 29 30 1756 0 31 32 27 -4.37
5 10.69473702341484 -1 18 31 1666 0 33 29 34 30 29 32 1758 0 34 35 30 4.375 9.60
559212125936 -1 18 34 1668 0 36 31 37 32 29 35 1763 0 37 38 32 4.375 9.605592121
25936 0 18 37 1673 0 39 34 40 35 29 38 1764 0 40 41 35 4.375 10.69473702341484 0
 18 40 1674 0 42 37 43 38 29 41 1762 0 43 44 38 4.375 -9.60559212125936 0 18 43
 1672 0 45 40 46 41 29 44 1760 0 47 48 41 4.375 -10.69473702341484 -1 18 47 1670
 0 49 50 51 44 29 48 1759 0 51 52 44 4.375 -9.60559212125936 -1 18 51 1669 0 53
 47 54 48 29 52 1754 0 54 55 48 -4.375 -9.60559212125936 -1 18 54 1664 0 56 51 5
7 52 29 55 1753 0 50 58 52 -4.375 -10.69473702341484 -1 18 50 1663 0 59 60 47 55
 29 58 1752 0 46 61 55 -4.375 -10.69473702341484 0 18 46 1662 0 62 43 60 58 29 6
1 1751 0 60 63 58 -4.375 -9.60559212125936 0 18 60 1661 0 64 46 50 61 29 63 1492
 0 57 65 61 4.375 10.69473702341484 -1 18 57 1490 0 66 54 67 63 29 65 1458 0 67
 68 63 4.375 -10.69473702341484 0 18 67 1456 0 69 57 70 65 29 68 1414 0 70 71 65
 -9.60559212125936 4.375 -1.82 18 70 1308 0 72 67 73 68 29 71 1420 0 73 74 68 -9
.60559212125936 4.375 0 18 73 1314 0 75 70 76 71 29 74 1421 0 76 77 71 -10.69473
702341484 4.375 0 18 76 1315 0 78 73 79 74 29 77 1422 0 79 80 74 -10.69473702341
484 4.375 -4.38 18 79 1316 0 81 76 82 77 29 80 1423 0 82 83 77 -8.57100937705097
 4.375 -4.38 18 82 1317 0 84 79 85 80 29 83 1427 0 85 86 80 -9.60559212125936 -4
.375 -1.82 18 85 1321 0 87 82 88 83 29 86 1431 0 88 89 83 -9.60559212125936 -4.3
75 0 18 88 1325 0 90 85 91 86 29 89 1436 0 91 92 86 -8.57100937705097 -4.375 -4.
38 18 91 1330 0 93 88 94 89 29 92 1437 0 94 95 89 -10.69473702341484 -4.375 -4.3
8 18 94 1331 0 96 91 97 92 29 95 1435 0 98 99 92 8.57100937705097 -4.375 -4.38 1
8 98 1329 0 100 101 102 95 29 99 1434 0 103 104 95 10.69473702341484 -4.375 -4.3
8 18 103 1328 0 105 106 107 99 29 104 1433 0 108 109 99 10.69473702341484 -4.375
 0 18 108 1327 0 110 111 106 104 29 109 1426 0 106 112 104 9.60559212125936 -4.3
75 -1.82 18 106 1320 0 113 108 103 109 29 112 1425 0 107 114 109 10.694737023414
84 4.375 -4.38 18 107 1319 0 115 103 101 112 29 114 1424 0 101 116 112 8.5710093
7705097 4.375 -4.38 18 101 1318 0 117 107 98 114 29 116 1419 0 118 119 114 9.605
59212125936 4.375 0 18 118 1313 0 120 97 111 116 29 119 1418 0 97 121 116 10.694
73702341484 4.375 0 18 97 1312 0 122 94 118 119 29 121 1415 0 111 123 119 9.6055
9212125936 4.375 -1.82 18 111 1309 0 124 118 108 121 29 123 1061 0 102 125 121 -
10.69473702341484 -4.375 0 18 102 1059 0 126 98 127 123 29 125 1057 0 127 128 12
3 9.60559212125936 -4.375 0 18 127 1055 0 129 102 130 125 29 128 657 0 130 131 1
25 10.730512879008 -6.50834797421307 0 18 130 615 0 132 127 133 128 29 131 658 0
 133 134 128 10.73324360724594 6.50384360724595 0 18 133 616 0 135 130 136 131 2
9 134 660 0 136 137 131 10.730512879008 -6.50834797421307 -1 18 136 618 0 138 13
3 139 134 29 137 661 0 139 140 134 10.0069148697953 -5.77751501847202 0 18 139 6
19 0 141 136 142 137 29 140 662 0 142 143 137 10.00691492421488 5.77751492421487
 0 18 142 620 0 144 139 145 140 29 143 663 0 145 146 140 10.0069148697953 -5.777
51501847202 -1 18 145 621 0 147 142 148 143 29 146 664 0 148 149 143 10.00691492
421488 5.77751492421487 -1 18 148 622 0 150 145 151 146 29 149 518 0 151 152 146
 10.73324360724594 6.50384360724595 -1 18 151 516 0 153 148 154 149 29 152 498 0
 154 155 149 -6.50834797421306 -10.730512879008 0 18 154 456 0 156 151 157 152 2
9 155 499 0 157 158 152 6.50384360724595 -10.73324360724594 0 18 157 457 0 159 1
54 160 155 29 158 501 0 160 161 155 -6.50834797421306 -10.730512879008 -1 18 160
 459 0 162 157 163 158 29 161 502 0 163 164 158 -5.77751501847202 -10.0069148697
953 0 18 163 460 0 165 160 166 161 29 164 503 0 166 167 161 5.77751492421487 -10
.00691492421488 0 18 166 461 0 168 163 169 164 29 167 504 0 169 170 164 -5.77751
501847202 -10.0069148697953 -1 18 169 462 0 171 166 172 167 29 170 505 0 172 173
 167 5.77751492421487 -10.00691492421488 -1 18 172 463 0 174 169 175 170 29 173
 359 0 175 176 170 6.50384360724595 -10.73324360724594 -1 18 175 357 0 177 172 1
78 173 29 176 339 0 178 179 173 -10.730512879008 6.50834797421306 0 18 178 297 0
 180 175 181 176 29 179 340 0 181 182 176 -10.73324360724594 -6.50384360724595 0
 18 181 298 0 183 178 184 179 29 182 342 0 184 185 179 -10.730512879008 6.508347
97421306 -1 18 184 300 0 186 181 187 182 29 185 343 0 187 188 182 -10.0069148697
953 5.77751501847202 0 18 187 301 0 189 184 190 185 29 188 344 0 190 191 185 -10
.00691492421488 -5.77751492421487 0 18 190 302 0 192 187 193 188 29 191 345 0 19
3 194 188 -10.0069148697953 5.77751501847202 -1 18 193 303 0 195 190 196 191 29
 194 346 0 196 197 191 -10.00691492421488 -5.77751492421487 -1 18 196 304 0 198
 193 199 194 29 197 208 0 199 200 194 -10.73324360724594 -6.50384360724595 -1 18
 199 206 0 201 196 202 197 29 200 180 0 202 203 197 6.50834797421306 10.73051287
9008 0 18 202 138 0 204 199 205 200 29 203 181 0 205 206 200 -6.50384360724595 1
0.73324360724594 0 18 205 139 0 207 202 208 203 29 206 183 0 208 209 203 6.50834
797421306 10.730512879008 -1 18 208 141 0 210 205 211 206 29 209 184 0 211 212 2
06 5.77751501847201 10.0069148697953 0 18 211 142 0 213 208 214 209 29 212 185 0
 214 215 209 -5.77751492421487 10.00691492421488 0 18 214 143 0 216 211 217 212
 29 215 186 0 217 218 212 5.77751501847201 10.0069148697953 -1 18 217 144 0 219
 214 220 215 29 218 187 0 220 221 215 -5.77751492421487 10.00691492421488 -1 18
 220 145 0 222 217 223 218 29 221 56 0 223 0 218 -6.50384360724595 10.7332436072
4594 -1 18 223 54 0 224 220 0 221 17 224 225 226 227 223 228 229 0 15 225 216 0
 180 230 0 17 226 225 180 224 184 231 232 0 17 227 225 224 180 205 233 234 0 17
 228 235 236 237 205 224 229 0 16 229 121 0 228 238 239 240 16 238 120 0 213 241
 229 242 16 239 125 0 243 229 244 245 30 240 163 0 229 245 242 0 -1e-8 -6.503843
60724595 10.73324360724594 0 0 0 -1 30 245 167 0 239 246 240 0 +1e-8 12.8485 17.
0079 -1 -.710615433405788 -.703580632056841 0 30 242 162 0 238 240 247 0 +1e-8 1
2.8485 17.0079 0 -.710615433405788 -.703580632056841 0 30 247 160 0 241 242 248
 0 +1e-8 6.50834797421306 10.730512879008 0 0 0 -1 16 241 118 0 249 234 238 247
 31 248 201 0 234 247 250 0 +1e-8 0 0 0 0 0 -1 -1 0 0 12.55 16 234 199 0 227 251
 241 248 31 250 209 0 251 248 252 0 +1e-8 0 0 -1 0 0 1 1 0 0 12.55 16 251 207 0
 253 254 234 250 31 252 245 0 254 250 255 0 -1e-8 0 0 -1 0 0 -1 -1 0 0 11.555 16
 254 243 0 256 257 251 252 30 255 248 0 257 252 258 0 +1e-8 -2.1147 2.1147 -1 -.
707106781186548 -.707106781186548 0 16 257 246 0 259 260 254 255 30 258 331 0 26
0 255 261 0 +1e-8 -10.0069 -5.7775 0 -.707106781186548 -.707106781186548 0 16 26
0 289 0 183 262 257 258 30 261 330 0 262 258 263 0 +1e-8 -10.00691492421488 -5.7
7751492421487 0 0 0 -1 16 262 288 0 264 265 260 261 31 263 329 0 265 261 266 0 +
1e-8 0 0 0 0 0 -1 -612303176911189e-31 -1 0 11.555 16 265 287 0 267 268 262 263
 30 266 327 0 268 263 269 0 -1e-8 -10.0069148697953 5.77751501847201 0 0 0 -1 16
 268 285 0 270 271 265 266 30 269 326 0 271 266 272 0 +1e-8 -17.0079 12.8485 -1
 .703580632056841 -.710615433405788 0 16 271 284 0 273 274 268 269 30 272 322 0
 274 269 275 0 -1e-8 -10.73324360724594 -6.50384360724595 0 0 0 -1 16 274 280 0
 276 277 271 272 30 275 321 0 277 272 278 0 +1e-8 -17.0079 12.8485 0 .7035806320
56841 -.710615433405788 0 16 277 279 0 189 279 274 275 30 278 319 0 279 275 280
 0 +1e-8 -10.730512879008 6.50834797421306 0 0 0 -1 16 279 277 0 281 282 277 278
 31 280 360 0 282 278 283 0 +1e-8 0 0 -1 0 0 1 1 0 0 12.55 16 282 358 0 284 285
 279 280 31 283 368 0 285 280 286 0 +1e-8 0 0 0 0 0 -1 -1 0 0 12.55 16 285 366 0
 287 288 282 283 31 286 404 0 288 283 289 0 -1e-8 0 0 -1 0 0 -1 -1 0 0 11.555 16
 288 402 0 290 291 285 286 30 289 407 0 291 286 292 0 +1e-8 -2.1147 -2.1147 -1 .
707106781186548 -.707106781186548 0 16 291 405 0 293 294 288 289 30 292 490 0 29
4 289 295 0 +1e-8 5.7775 -10.0069 0 .707106781186548 -.707106781186548 0 16 294
 448 0 159 296 291 292 30 295 489 0 296 292 297 0 +1e-8 5.77751492421487 -10.006
91492421488 0 0 0 -1 16 296 447 0 298 299 294 295 31 297 488 0 299 295 300 0 +1e
-8 0 0 0 0 0 -1 1 -1224606353822376e-31 0 11.555 16 299 446 0 301 302 296 297 30
 300 486 0 302 297 303 0 -1e-8 -5.77751501847201 -10.0069148697953 0 0 0 -1 16 3
02 444 0 304 305 299 300 30 303 485 0 305 300 306 0 +1e-8 -12.8485 -17.0079 -1 .
710615433405788 .703580632056841 0 16 305 443 0 307 308 302 303 30 306 481 0 308
 303 309 0 -1e-8 6.50384360724595 -10.73324360724594 0 0 0 -1 16 308 439 0 310 3
11 305 306 30 309 480 0 311 306 312 0 +1e-8 -12.8485 -17.0079 0 .710615433405788
 .703580632056841 0 16 311 438 0 165 313 308 309 30 312 478 0 313 309 314 0 +1e-
8 -6.50834797421306 -10.730512879008 0 0 0 -1 16 313 436 0 315 316 311 312 31 31
4 519 0 316 312 317 0 +1e-8 0 0 -1 0 0 1 1 0 0 12.55 16 316 517 0 318 319 313 31
4 31 317 527 0 319 314 320 0 +1e-8 0 0 0 0 0 -1 -1 0 0 12.55 16 319 525 0 321 32
2 316 317 31 320 563 0 322 317 323 0 -1e-8 0 0 -1 0 0 -1 -1 0 0 11.555 16 322 56
1 0 324 325 319 320 30 323 566 0 325 320 326 0 +1e-8 2.1147 -2.1147 -1 .70710678
1186548 .707106781186548 0 16 325 564 0 327 328 322 323 30 326 649 0 328 323 329
 0 +1e-8 10.0069 5.7775 0 .707106781186548 .707106781186548 0 16 328 607 0 135 3
30 325 326 30 329 648 0 330 326 331 0 +1e-8 10.00691492421488 5.77751492421487 0
 0 0 -1 16 330 606 0 332 333 328 329 31 331 647 0 333 329 334 0 +1e-8 0 0 0 0 0
 -1 1836909530733565e-31 1 0 11.555 16 333 605 0 335 336 330 331 30 334 645 0 33
6 331 337 0 -1e-8 10.0069148697953 -5.77751501847202 0 0 0 -1 16 336 603 0 338 3
39 333 334 30 337 644 0 339 334 340 0 +1e-8 17.0079 -12.8485 -1 -.70358063205684
1 .710615433405788 0 16 339 602 0 341 342 336 337 30 340 640 0 342 337 343 0 -1e
-8 10.73324360724594 6.50384360724595 0 0 0 -1 16 342 598 0 344 345 339 340 30 3
43 639 0 345 340 346 0 +1e-8 17.0079 -12.8485 0 -.703580632056841 .7106154334057
88 0 16 345 597 0 141 347 342 343 30 346 637 0 347 343 348 0 +1e-8 10.7305128790
08 -6.50834797421306 0 0 0 -1 16 347 595 0 349 350 345 346 31 348 674 0 350 346
 351 0 +1e-8 0 0 0 0 0 1 1 0 0 10.555 16 350 671 0 352 353 347 348 31 351 680 0
 353 348 354 0 +1e-8 0 0 -5.13 0 0 -1 -1 0 0 9.35 16 353 677 0 355 356 350 351 3
1 354 703 0 356 351 357 0 +1e-8 0 0 -1.82 0 0 -1 -1 0 0 10.555 16 356 696 0 358
 359 353 354 31 357 708 0 359 354 360 0 +1e-8 0 10 -5.13 0 0 -1 -1 0 0 .125 16 3
59 705 0 361 362 356 357 38 360 714 0 362 357 363 0 +1e-8 364 365 366 367 367 16
 362 711 0 368 369 359 360 31 363 742 0 369 360 370 0 +1e-8 -5.44639035015027 8.
38670567945424 -5.13 0 0 -1 -1 0 0 .125 52 364 699 0 371 372 373 10 +0 0 -5.13 0
 0 1 9.35 .342084949284639 .939669030815066 1 0 0 51 365 0 0 7 374 375 1 +0 10 -
1.82 0 0 -1 .125 -1 0 0 40 22 366 0 22 .0671010676380218 .3856609034781835 ??-.0
2198231385134595 9.87694806837048 -3.68246549724968 -.0452146471561492 9.8834640
155036 -3.664350023886795 -.0735355422508667 9.89891823099158 -3.621432856479795
 -.1164387916942196 9.95453564265504 -3.46753776273515 -.1021364290115296 10.072
0635127424 -3.1451499570382 -.0769914041149222 10.09847499018742 -3.073216873574
615 -.0515466960567347 10.11387685509196 -3.0313550373516 -.0339307721783269 10.
12030670263698 -3.01389754370744 -.0165559033919152 10.12389875730966 -3.0041496
3094811 -.001610427661212445 10.1249896256605 -3.001189971072115 .01355617389564
628 10.12426274642592 -3.00316204873557 .03045700721915695 10.12123271304088 -3.
011384262600805 .0523423923028341 10.11351332066332 -3.03234238684888 .088510921
6560675 10.0882656034228 -3.10100055110962 .124741552702859 10.0080339921135 -3.
320319002518995 .0972638650233532 9.92148413815847 -3.55888753308898 .0751898671
198966 9.90014268237884 -3.61803538637165 .03842281971981255 9.88105174686117 -3
.671055143372805 .02053880843551615 9.87669891586831 -3.68315842491353 .00567527
838879964 9.87512890160165 -3.68752525953542 -.00995413737537788 9.8753969697434
6 -3.68677960556148 -.02198231385134315 9.87694806837054 -3.68246549724969 41 1
 367 H-.02198231385134595 9.87694806837048 -3.68246549724968 51 374 697 0 376 37
7 365 0 +0 0 -1.82 0 0 1 10.555 1 0 0 51 375 731 0 378 365 379 0 +0 10 -1.82 0 0
 -1 .125 -1 0 0 14 378 718 0 376 380 381 7 375 -51 379 0 0 7 375 382 1 +-5.44639
035015027 8.38670567945424 -1.82 0 0 -1 .125 -.838670567945424 -.544639035015027
 0 51 382 765 0 380 379 383 0 +-5.44639035015027 8.38670567945424 -1.82 0 0 -1 .
125 -.838670567945424 -.544639035015027 0 14 380 752 0 378 384 385 7 382 -51 383
 0 0 7 382 386 1 +-8.66025403784439 5 -1.82 0 0 -1 .125 -.5 -.866025403784439 0
 51 386 799 0 384 383 387 0 +-8.66025403784439 5 -1.82 0 0 -1 .125 -.5 -.8660254
03784439 0 14 384 786 0 380 388 389 7 386 -51 387 0 0 7 386 390 1 +-8.6602540378
4439 -5 -1.82 0 0 -1 .125 .5 -.866025403784439 0 51 390 833 0 388 387 391 0 +-8.
66025403784439 -5 -1.82 0 0 -1 .125 .5 -.866025403784439 0 14 388 820 0 384 392
 393 7 390 -51 391 0 0 7 390 394 1 +-5 -8.66025403784439 -1.82 0 0 -1 .125 .8660
25403784439 -.5 0 51 394 867 0 392 391 395 0 +-5 -8.66025403784439 -1.82 0 0 -1
 .125 .866025403784439 -.5 0 14 392 854 0 388 396 397 7 394 -51 395 0 0 7 394 39
8 1 +-4440892098500625e-30 -10 -1.82 0 0 -1 .125 1 -388578058618805e-30 0 51 398
 901 0 396 395 399 0 +-4440892098500625e-30 -10 -1.82 0 0 -1 .125 1 -38857805861
8805e-30 0 14 396 888 0 392 400 401 7 398 -51 399 0 0 7 398 402 1 +5 -8.66025403
784439 -1.82 0 0 -1 .125 .866025403784439 .5 0 51 402 935 0 400 399 403 0 +5 -8.
66025403784439 -1.82 0 0 -1 .125 .866025403784439 .5 0 14 400 922 0 396 404 405
 7 402 -51 403 0 0 7 402 406 1 +8.66025403784439 -5 -1.82 0 0 -1 .125 .5 .866025
403784438 0 51 406 969 0 404 403 407 0 +8.66025403784439 -5 -1.82 0 0 -1 .125 .5
 .866025403784438 0 14 404 956 0 400 408 409 7 406 -51 407 0 0 7 406 410 1 +8.66
025403784439 5 -1.82 0 0 -1 .125 -.5 .866025403784439 0 51 410 1003 0 408 407 41
1 0 +8.66025403784439 5 -1.82 0 0 -1 .125 -.5 .866025403784439 0 14 408 990 0 40
4 412 413 7 410 -51 411 0 0 7 410 414 1 +5 8.66025403784439 -1.82 0 0 -1 .125 -.
866025403784438 .5 0 51 414 1037 0 412 411 372 0 +5 8.66025403784439 -1.82 0 0 -
1 .125 -.866025403784438 .5 0 14 412 1024 0 408 415 416 7 414 -51 372 1200 0 415
 414 364 0 +0 0 -1.82 0 0 1 10.555 1 0 0 14 415 1199 0 412 417 418 7 372 -14 417
 1220 0 415 419 420 7 373 -15 418 1197 0 20 415 0 17 20 418 28 36 29 421 13 0 17
 28 418 422 20 23 423 424 0 17 36 418 20 352 34 425 426 0 17 421 19 427 428 34 2
0 13 0 15 19 1580 0 427 12 0 17 427 19 429 421 57 430 431 0 17 428 19 421 429 29
 432 433 0 17 429 19 428 427 31 66 21 0 17 432 434 435 423 31 428 433 0 16 433 1
634 0 428 436 426 437 16 436 1628 0 22 438 433 439 16 426 1635 0 36 433 431 440
 30 437 1724 0 433 440 439 0 +1e-8 -4.375 0 -1 0 -1 0 30 440 1725 0 426 441 437
 0 -1e-8 4.375 9.60559212125936 -1.82 0 0 1 30 439 1718 0 436 437 442 0 +1e-8 -4
.375 0 0 0 1 0 30 442 1716 0 438 439 443 0 -1e-8 -4.375 10.69473702341484 0 0 0
 -1 16 438 1626 0 435 424 436 442 30 443 1713 0 424 442 25 0 +1e-8 -4.375 9.6055
9212125936 -1.82 0 0 1 16 424 1623 0 28 21 438 443 31 25 1712 0 21 443 16 0 -1e-
8 0 0 -1 0 0 -1 -1 0 0 11.555 16 21 1622 0 429 13 424 25 17 435 434 444 432 14 3
3 438 0 15 434 1588 0 432 18 0 17 444 434 423 435 23 22 436 0 17 33 445 66 446 3
1 435 438 0 15 445 1507 0 447 448 0 17 66 445 447 33 57 429 21 0 17 446 445 33 4
49 14 216 450 0 17 449 445 446 222 214 451 452 0 17 216 453 207 22 214 446 450 0
 16 450 128 0 446 244 452 454 16 244 126 0 455 239 450 246 16 452 129 0 451 450
 456 457 31 454 170 0 450 457 246 0 +1e-8 0 0 0 0 0 -1 -1 0 0 11.555 30 457 171
 0 452 458 454 0 +1e-8 -5.77751492421487 10.00691492421488 0 0 0 -1 30 246 168 0
 244 454 245 0 -1e-8 5.77751501847201 10.0069148697953 0 0 0 -1 30 458 172 0 456
 459 457 0 +1e-8 -5.7775 10.0069 0 -.707106781186548 .707106781186548 0 16 456 1
30 0 207 452 460 458 30 459 91 0 460 461 458 0 +1e-8 2.1147 2.1147 -1 -.70710678
1186548 .707106781186548 0 16 460 90 0 237 456 462 459 31 461 89 0 462 463 459 0
 -1e-8 0 0 -1 0 0 -1 -1 0 0 11.555 16 462 87 0 464 460 465 461 31 463 63 0 465 4
66 461 0 +1e-8 0 0 0 0 0 -1 -1 0 0 12.55 16 465 61 0 467 462 232 463 31 466 57 0
 232 468 463 0 +1e-8 0 0 -1 0 0 1 1 0 0 12.55 16 232 55 0 226 465 469 466 31 468
 7 0 469 0 466 0 +1e-8 0 0 -5.13 0 0 1 1 0 0 11.555 16 469 3 0 470 232 0 468 17
 470 471 470 470 0 472 469 0 15 471 4 0 470 448 445 17 472 473 472 472 0 470 469
 0 15 473 5 0 472 474 0 14 474 6 0 475 476 477 7 478 +14 475 23 0 479 474 480 7
 481 +14 476 114 0 474 482 235 7 483 -15 477 1013 0 484 474 485 50 478 8 0 474 4
81 483 0 +0 0 -5.13 0 0 -1 -1 0 0 50 481 40 0 475 486 478 0 +0 0 -1 0 0 -1 -1 0
 0 50 483 157 0 476 478 487 0 +-9.313 13.5424 0 -.707106781186548 -.707106781186
548 0 .707106781186548 -.707106781186548 0 50 487 155 0 482 483 488 0 +9.313 13.
5074 0 .703580632056841 -.710615433405788 0 .710615433405788 .703580632056841 0
 14 482 108 0 476 448 489 7 487 -51 488 154 0 448 487 490 0 +0 0 0 0 0 -1 11.555
 -1 0 0 14 448 106 0 482 230 471 7 488 +51 490 214 0 230 488 491 0 +0 0 0 0 0 -1
 12.55 -1 0 0 14 230 213 0 448 492 225 7 490 +50 491 232 0 492 490 493 0 +0 0 0
 0 0 1 1 0 0 14 492 231 0 230 494 453 7 491 +50 493 250 0 494 491 495 0 +0 0 -1
 0 0 -1 -1 0 0 14 494 249 0 492 496 497 7 493 +50 495 316 0 496 493 498 0 +-13.5
424 -9.313 0 .707106781186548 -.707106781186548 0 .707106781186548 .707106781186
548 0 14 496 273 0 494 499 500 7 495 -50 498 314 0 499 495 501 0 +-13.5074 9.313
 0 .710615433405788 .703580632056841 0 -.703580632056841 .710615433405788 0 14 4
99 267 0 496 502 503 7 498 -51 501 373 0 502 498 504 0 +0 0 0 0 0 -1 12.55 -1 0
 0 14 502 372 0 499 505 506 7 501 +50 504 391 0 505 501 507 0 +0 0 0 0 0 1 1 0 0
 14 505 390 0 502 508 509 7 504 +50 507 409 0 508 504 510 0 +0 0 -1 0 0 -1 -1 0
 0 14 508 408 0 505 511 512 7 507 +50 510 475 0 511 507 513 0 +9.313 -13.5424 0
 .707106781186548 .707106781186548 0 -.707106781186548 .707106781186548 0 14 511
 432 0 508 514 515 7 510 -50 513 473 0 514 510 516 0 +-9.313 -13.5074 0 -.703580
632056841 .710615433405788 0 -.710615433405788 -.703580632056841 0 14 514 426 0
 511 517 518 7 513 -51 516 532 0 517 513 519 0 +0 0 0 0 0 -1 12.55 -1 0 0 14 517
 531 0 514 520 521 7 516 +50 519 550 0 520 516 522 0 +0 0 0 0 0 1 1 0 0 14 520 5
49 0 517 523 524 7 519 +50 522 568 0 523 519 525 0 +0 0 -1 0 0 -1 -1 0 0 14 523
 567 0 520 526 527 7 522 +50 525 634 0 526 522 377 0 +13.5424 9.313 0 -.70710678
1186548 .707106781186548 0 -.707106781186548 -.707106781186548 0 14 526 591 0 52
3 528 529 7 525 -50 377 632 0 528 525 374 0 +13.5074 -9.313 0 -.710615433405788
 -.703580632056841 0 .703580632056841 -.710615433405788 0 14 528 585 0 526 371 5
30 7 377 -14 371 691 0 528 376 531 7 364 -15 530 586 0 349 528 0 17 349 530 341
 532 136 132 347 0 17 341 530 338 349 145 138 339 0 17 532 530 349 338 130 141 3
45 0 17 132 521 321 284 130 349 347 0 15 521 534 0 132 517 0 17 321 521 177 132
 157 533 319 0 17 284 521 132 177 136 534 282 0 17 177 521 284 321 175 310 308 0
 17 534 527 535 138 175 284 282 0 15 527 570 0 138 523 0 17 535 527 290 534 172
 293 291 0 17 138 527 534 290 136 341 339 0 17 290 527 138 535 145 174 288 0 17
 174 445 536 147 172 290 288 0 17 536 445 301 174 166 298 296 0 17 147 445 174 5
37 145 338 336 0 17 537 445 147 110 139 538 539 0 17 338 530 532 341 139 147 336
 0 17 110 445 537 105 108 540 541 0 17 538 524 129 141 108 537 539 0 16 539 1072
 0 537 542 543 544 16 542 1134 0 545 546 539 547 16 543 1064 0 548 539 549 550 3
1 544 1074 0 539 550 547 0 +1e-8 0 0 0 0 0 -1 1836909530733565e-31 1 0 11.555 31
 550 1066 0 543 551 544 0 +1e-8 0 0 0 0 0 -1 -612303176911189e-31 -1 0 11.555 30
 547 1136 0 542 544 552 0 -1e-8 -10.69473702341484 -4.375 0 0 0 -1 31 552 1163 0
 546 547 553 0 +1e-8 0 0 -1.82 0 0 -1 -1 0 0 10.555 16 546 1161 0 554 555 542 55
2 30 553 1198 0 555 552 556 0 -1e-8 9.60559212125936 -4.375 -1.82 0 0 1 16 555 1
196 0 557 558 546 553 31 556 1366 0 559 553 560 0 -1e-8 0 0 -4.38 0 0 -1 -1 0 0
 9.62303625377644 16 559 1260 0 117 561 558 556 31 560 1368 0 562 556 563 0 -1e-
8 0 0 -4.38 0 0 -1 -1 0 0 11.555 16 562 1262 0 564 565 561 560 30 563 1372 0 566
 560 567 0 +1e-8 9.60559212125936 4.375 -1.82 0 0 1 16 566 1266 0 120 568 569 56
3 38 567 1373 0 569 563 570 0 +1e-8 571 572 573 574 575 16 569 1267 0 124 566 54
1 567 30 570 1377 0 576 567 577 0 +1e-8 10.69473702341484 4.375 -5.13 0 0 1 52 5
71 0 0 7 572 578 2 +0 0 -5.13 0 0 1 9.35 .342084949284639 .939669030815066 1 0 0
 50 572 1357 0 7 579 571 1 +0 4.375 0 0 1 0 0 0 1 40 28 573 0 28 1.3818194447093
92 .354214261581785 ??-1100.913662645572 4.375 2993.29696870025 -539.67597822368
8 4.375 1451.664759044066 -350.9171068619815 4.375 933.191486705242 -228.6421756
43221 4.375 597.356004900041 -149.4276778785356 4.375 379.823578522694 -98.09930
48201305 4.375 238.922243586401 -64.8254024462205 4.375 147.6597836422838 -43.23
425678389315 4.375 88.5527582208232 -29.19481762121405 4.375 50.2769449356569 -2
0.0276012874522 4.375 25.49749520956455 -13.99471462688214 4.375 9.4631941708649
4 -9.97077647902298 4.375 -.904218577529573 -7.23028975834381 4.375 -7.599726291
68209 -5.3090244130698 4.375 -11.9164173173323 -3.91215803529707 4.375 -14.69181
299396822 -2.85263862053357 4.375 -16.4668160486016 -1.58645254751333 4.375 -18.
0300526567948 -.934251578473052 4.375 -18.52481578402075 -.3235183925274915 4.37
5 -18.7629552073786 -1506331320680485e-31 4.375 -18.79576763485475 .594414835244
529 4.375 -18.6853542618249 1.30471157788435 4.375 -18.2727541066664 2.720699190
684815 4.375 -16.66150897263095 6.97985008718189 4.375 -8.18549170703531 20.5466
3307271245 4.375 26.89117302714435 72.2641103230549 4.375 168.0514645321205 278.
0586451352835 4.375 733.077081327627 1100.913662645572 4.375 2993.29696870025 41
 1 574 L-1100.913662645572 4.375 2993.29696870025 41 1 575 L1100.913662645572 4.
375 2993.29696870025 50 579 1359 0 7 580 572 1 +0 -4.375 0 0 -1 0 0 0 -1 50 580
 1352 0 419 581 579 0 +0 -4.375 0 0 -1 0 0 0 -1 14 419 1236 0 417 582 583 7 580
 -50 581 1349 0 582 373 580 0 +0 4.375 0 0 1 0 0 0 1 14 582 1230 0 419 584 585 7
 581 -50 373 1344 0 417 364 581 0 +0 0 -4.38 0 0 -1 -1 0 0 14 584 1238 0 582 586
 587 7 578 -15 585 1231 0 588 582 0 17 588 585 589 590 101 124 569 0 17 589 585
 591 588 107 592 561 0 17 590 585 588 593 111 120 566 0 17 124 594 595 117 111 5
88 569 0 15 594 693 0 117 371 0 17 595 594 84 124 70 358 356 0 17 117 594 124 10
0 101 596 559 0 17 100 594 117 597 98 113 598 0 17 596 420 599 592 98 117 559 0
 15 420 1221 0 599 417 0 17 599 420 564 596 103 600 558 0 17 592 420 596 564 101
 589 561 0 17 564 420 592 599 107 105 562 0 16 561 1279 0 592 562 559 601 30 601
 1385 0 561 577 602 0 +1e-8 0 4.375 -4.38 -1 0 0 30 577 1379 0 568 570 601 0 +1e
-8 0 4.375 0 1 0 0 38 602 1387 0 598 601 603 0 +1e-8 571 579 604 605 606 16 598
 1281 0 100 541 565 602 30 603 1390 0 541 602 607 0 +1e-8 10.69473702341484 -4.3
75 0 0 0 -1 40 28 604 0 28 1.381819444709392 .354214261581785 ??1100.91366264557
2 -4.375 2993.29696870025 539.675978223688 -4.375 1451.664759044066 350.91710686
19815 -4.375 933.191486705242 228.642175643221 -4.375 597.356004900041 149.42767
78785356 -4.375 379.823578522694 98.0993048201305 -4.375 238.922243586401 64.825
4024462205 -4.375 147.6597836422838 43.23425678389315 -4.375 88.5527582208232 29
.19481762121405 -4.375 50.2769449356569 20.0276012874522 -4.375 25.4974952095645
5 13.99471462688214 -4.375 9.46319417086494 9.97077647902298 -4.375 -.9042185775
29573 7.23028975834381 -4.375 -7.59972629168209 5.3090244130698 -4.375 -11.91641
73173323 3.91215803529707 -4.375 -14.69181299396822 2.85263862053357 -4.375 -16.
4668160486016 1.58645254751333 -4.375 -18.0300526567948 .934251578473052 -4.375
 -18.52481578402075 .3235183925274915 -4.375 -18.7629552073786 1506331320680485e
-31 -4.375 -18.79576763485475 -.594414835244529 -4.375 -18.6853542618249 -1.3047
1157788435 -4.375 -18.2727541066664 -2.720699190684815 -4.375 -16.66150897263095
 -6.97985008718189 -4.375 -8.18549170703531 -20.54663307271245 -4.375 26.8911730
2714435 -72.2641103230549 -4.375 168.0514645321205 -278.0586451352835 -4.375 733
.077081327627 -1100.913662645572 -4.375 2993.29696870025 41 1 605 L1100.91366264
5572 -4.375 2993.29696870025 41 1 606 L-1100.913662645572 -4.375 2993.2969687002
5 16 541 1284 0 540 569 598 603 30 607 1397 0 565 603 608 0 +1e-8 0 -4.375 0 -1
 0 0 16 565 1291 0 129 598 562 607 30 608 1399 0 558 607 609 0 +1e-8 0 -4.375 -4
.38 1 0 0 16 558 1293 0 599 559 555 608 30 609 1401 0 610 608 611 0 +1e-8 0 -4.3
75 -4.38 1 0 0 16 610 1295 0 612 613 576 609 30 611 1395 0 613 609 614 0 +1e-8 0
 -4.375 0 -1 0 0 16 613 1289 0 126 615 610 611 38 614 1389 0 615 611 616 0 +1e-8
 617 618 619 620 621 16 615 1283 0 87 622 613 614 30 616 1388 0 622 614 623 0 +1
e-8 -9.60559212125936 -4.375 -1.82 0 0 1 52 617 0 0 7 624 625 2 +0 0 -5.13 0 0 1
 9.35 .342084949284639 .939669030815066 1 0 0 50 618 0 0 7 626 624 1 +0 -4.375 0
 0 -1 0 0 0 -1 40 28 619 0 28 1.381819444709392 .354214261581785 ??1100.91366264
5572 -4.375 2993.29696870025 539.675978223688 -4.375 1451.664759044066 350.91710
68619815 -4.375 933.191486705242 228.642175643221 -4.375 597.356004900041 149.42
76778785356 -4.375 379.823578522694 98.0993048201305 -4.375 238.922243586401 64.
8254024462205 -4.375 147.6597836422838 43.23425678389315 -4.375 88.5527582208232
 29.19481762121405 -4.375 50.2769449356569 20.0276012874522 -4.375 25.4974952095
6455 13.99471462688214 -4.375 9.46319417086494 9.97077647902298 -4.375 -.9042185
77529573 7.23028975834381 -4.375 -7.59972629168209 5.3090244130698 -4.375 -11.91
64173173323 3.91215803529707 -4.375 -14.69181299396822 2.85263862053357 -4.375 -
16.4668160486016 1.58645254751333 -4.375 -18.0300526567948 .934251578473052 -4.3
75 -18.52481578402075 .3235183925274915 -4.375 -18.7629552073786 150633132068048
5e-31 -4.375 -18.79576763485475 -.594414835244529 -4.375 -18.6853542618249 -1.30
471157788435 -4.375 -18.2727541066664 -2.720699190684815 -4.375 -16.661508972630
95 -6.97985008718189 -4.375 -8.18549170703531 -20.54663307271245 -4.375 26.89117
302714435 -72.2641103230549 -4.375 168.0514645321205 -278.0586451352835 -4.375 7
33.077081327627 -1100.913662645572 -4.375 2993.29696870025 41 1 620 L1100.913662
645572 -4.375 2993.29696870025 41 1 621 L-1100.913662645572 -4.375 2993.29696870
025 50 626 1345 0 627 628 618 0 +0 0 -4.38 0 0 -1 -1 0 0 50 624 0 0 7 618 617 1
 +0 4.375 0 0 1 0 0 0 1 14 627 1222 0 586 629 630 7 626 -50 628 1348 0 586 578 6
26 0 +0 4.375 0 0 1 0 0 0 1 14 586 1228 0 584 627 631 7 628 -50 578 1353 0 584 5
71 628 0 +0 -4.375 0 0 -1 0 0 0 -1 15 631 1229 0 632 586 0 17 632 631 633 634 76
 75 635 0 17 633 631 636 632 79 78 637 0 17 634 631 632 638 73 72 639 0 17 75 45
3 640 641 73 632 635 0 16 635 1275 0 75 637 642 643 16 637 1268 0 633 644 635 64
5 16 642 1277 0 646 635 622 623 30 643 1381 0 635 623 645 0 +1e-8 0 4.375 0 1 0
 0 30 623 1383 0 642 616 643 0 +1e-8 0 4.375 -4.38 -1 0 0 30 645 1374 0 637 643
 647 0 +1e-8 -10.69473702341484 4.375 0 0 0 -1 38 647 1371 0 644 645 648 0 +1e-8
 617 624 649 650 651 16 644 1265 0 84 639 637 647 30 648 1370 0 639 647 652 0 -1
e-8 -9.60559212125936 4.375 -1.82 0 0 1 40 28 649 0 28 1.381819444709392 .354214
261581785 ??-1100.913662645572 4.375 2993.29696870025 -539.675978223688 4.375 14
51.664759044066 -350.9171068619815 4.375 933.191486705242 -228.642175643221 4.37
5 597.356004900041 -149.4276778785356 4.375 379.823578522694 -98.0993048201305 4
.375 238.922243586401 -64.8254024462205 4.375 147.6597836422838 -43.234256783893
15 4.375 88.5527582208232 -29.19481762121405 4.375 50.2769449356569 -20.02760128
74522 4.375 25.49749520956455 -13.99471462688214 4.375 9.46319417086494 -9.97077
647902298 4.375 -.904218577529573 -7.23028975834381 4.375 -7.59972629168209 -5.3
090244130698 4.375 -11.9164173173323 -3.91215803529707 4.375 -14.69181299396822
 -2.85263862053357 4.375 -16.4668160486016 -1.58645254751333 4.375 -18.030052656
7948 -.934251578473052 4.375 -18.52481578402075 -.3235183925274915 4.375 -18.762
9552073786 -1506331320680485e-31 4.375 -18.79576763485475 .594414835244529 4.375
 -18.6853542618249 1.30471157788435 4.375 -18.2727541066664 2.720699190684815 4.
375 -16.66150897263095 6.97985008718189 4.375 -8.18549170703531 20.5466330727124
5 4.375 26.89117302714435 72.2641103230549 4.375 168.0514645321205 278.058645135
2835 4.375 733.077081327627 1100.913662645572 4.375 2993.29696870025 41 1 650 L-
1100.913662645572 4.375 2993.29696870025 41 1 651 L1100.913662645572 4.375 2993.
29696870025 16 639 1264 0 72 653 644 648 31 652 1369 0 653 648 654 0 -1e-8 0 0 -
4.38 0 0 -1 -1 0 0 11.555 16 653 1263 0 655 656 639 652 31 654 1367 0 656 652 65
7 0 -1e-8 0 0 -4.38 0 0 -1 -1 0 0 9.62303625377644 16 656 1261 0 93 658 653 654
 31 657 1463 0 658 654 659 0 +1e-8 0 0 0 0 0 -1 1 -1224606353822376e-31 0 11.555
 16 658 1461 0 660 661 656 657 31 659 1471 0 661 657 662 0 +1e-8 0 0 0 0 0 1 1 0
 0 10.555 16 661 1469 0 663 664 658 659 31 662 1505 0 664 659 665 0 +1e-8 0 0 0
 0 0 -1 -1 0 0 11.555 16 664 1503 0 666 667 661 662 30 665 1508 0 667 662 668 0
 +1e-8 4.375 10.69473702341484 0 0 0 -1 16 667 1506 0 669 670 664 665 30 668 151
8 0 670 665 671 0 -1e-8 4.375 -10.69473702341484 0 0 0 -1 16 670 1516 0 672 673
 667 668 31 671 1546 0 673 668 674 0 +1e-8 0 0 0 0 0 1 1 0 0 10.555 16 673 1544
 0 422 675 670 671 31 674 1710 0 676 671 677 0 -1e-8 0 0 -1 0 0 -1 -1 0 0 10.555
 16 676 1620 0 53 678 675 674 31 677 1711 0 679 674 680 0 -1e-8 0 0 -1 0 0 -1 -1
 0 0 11.555 16 679 1621 0 49 681 678 677 30 680 1714 0 682 677 683 0 -1e-8 -4.37
5 -9.60559212125936 -1.82 0 0 1 16 682 1624 0 56 684 681 680 30 683 1715 0 684 6
80 685 0 +1e-8 -4.375 -10.69473702341484 0 0 0 -1 16 684 1625 0 686 687 682 683
 30 685 1720 0 681 683 688 0 +1e-8 -4.375 0 0 0 1 0 16 681 1630 0 64 682 679 685
 30 688 1722 0 675 685 689 0 +1e-8 -4.375 0 -1 0 -1 0 16 675 1632 0 690 676 673
 688 30 689 1726 0 687 688 691 0 +1e-8 4.375 -9.60559212125936 -1.82 0 0 1 16 68
7 1636 0 45 692 684 689 30 691 1732 0 678 689 693 0 +1e-8 4.375 0 -1 0 1 0 16 67
8 1642 0 694 679 676 691 30 693 1734 0 692 691 695 0 +1e-8 4.375 0 0 0 -1 0 16 6
92 1644 0 69 696 687 693 30 695 1736 0 696 693 441 0 +1e-8 4.375 0 0 0 -1 0 16 6
96 1646 0 39 431 692 695 30 441 1730 0 431 695 440 0 +1e-8 4.375 0 -1 0 1 0 16 4
31 1640 0 427 426 696 441 17 39 697 698 699 37 42 696 0 15 697 547 0 135 479 0 1
7 698 697 122 39 118 352 350 0 17 699 697 39 213 40 666 664 0 17 42 700 669 425
 40 39 696 0 15 700 1596 0 42 701 0 17 669 700 430 42 57 447 667 0 17 425 700 42
 430 37 36 426 0 17 430 700 425 669 34 427 431 0 17 447 445 666 66 40 669 667 0
 17 666 445 219 447 211 699 664 0 17 219 445 150 666 217 455 244 0 17 150 445 70
2 219 148 324 322 0 17 455 489 703 243 211 219 244 0 15 489 109 0 249 482 0 17 7
03 489 249 455 202 213 238 0 17 243 489 455 249 217 210 239 0 17 249 489 243 703
 208 204 241 0 17 210 480 704 324 208 243 239 0 15 480 565 0 705 475 0 17 704 48
0 705 210 151 318 316 0 17 324 480 210 705 217 150 322 0 17 705 480 324 704 148
 327 325 0 17 327 529 344 332 151 705 325 0 15 529 592 0 344 526 0 17 344 529 70
6 327 133 153 342 0 17 332 529 327 706 148 702 330 0 17 706 529 332 344 142 135
 328 0 17 702 445 335 150 142 332 330 0 17 335 445 115 702 97 144 333 0 17 115 4
45 105 335 107 591 576 0 17 144 697 135 122 142 335 333 0 17 135 697 707 144 133
 706 328 0 17 122 697 144 698 97 593 568 0 17 593 585 590 591 118 122 568 0 16 5
68 1273 0 122 576 566 577 16 576 1271 0 591 610 568 570 17 591 585 593 589 97 11
5 576 0 17 707 697 213 135 202 467 465 0 17 213 697 699 707 211 703 238 0 17 467
 708 153 204 133 707 465 0 15 708 529 0 153 709 0 17 153 708 318 467 151 344 342
 0 17 204 708 467 318 202 249 241 0 17 318 708 204 153 208 704 316 0 14 709 33 0
 0 479 708 7 710 +14 479 26 0 709 475 697 7 486 +51 710 42 0 709 0 486 0 +0 0 0
 0 0 -1 12.55 -1 0 0 50 486 41 0 479 710 481 0 +0 0 0 0 0 1 1 0 0 17 105 445 110
 115 103 564 562 0 14 701 1595 0 711 18 700 7 712 -14 711 1597 0 713 701 714 7 7
15 -14 18 1587 0 701 12 434 7 24 -50 712 1695 0 701 715 24 0 +4.375 0 0 1 0 0 0
 0 -1 50 715 1696 0 711 716 712 0 +4.375 0 0 1 0 0 0 0 -1 50 24 1691 0 18 712 15
 0 +-4.375 0 0 -1 0 0 0 0 1 50 716 1692 0 713 625 715 0 +-4.375 0 0 -1 0 0 0 0 1
 14 713 1589 0 629 711 717 7 716 -50 625 1688 0 629 617 716 0 +0 0 -1 0 0 -1 -1
 0 0 14 629 1581 0 627 713 718 7 625 -15 718 1582 0 690 629 0 17 690 718 49 719
 50 720 675 0 17 49 718 694 690 47 59 679 0 17 719 718 690 694 54 53 676 0 17 72
0 717 721 686 54 690 675 0 15 717 1590 0 722 713 0 17 721 717 722 720 60 56 682
 0 17 686 717 720 722 50 62 684 0 17 722 717 686 721 46 64 681 0 17 62 445 660 5
9 46 686 684 0 17 660 445 171 62 163 723 658 0 17 59 445 62 724 50 49 679 0 17 7
24 445 59 301 47 672 670 0 17 301 445 724 536 67 168 299 0 17 672 714 725 726 67
 724 670 0 15 714 1598 0 726 711 0 17 725 714 727 672 43 69 692 0 17 726 714 672
 727 47 694 678 0 17 727 714 726 725 51 45 687 0 17 694 718 719 49 51 726 678 0
 17 45 728 663 53 43 727 687 0 15 728 688 0 729 376 0 17 663 728 557 45 127 730
 661 0 17 53 728 45 56 51 719 676 0 17 56 728 53 729 54 721 682 0 17 729 728 56
 90 60 731 549 0 17 90 728 729 554 88 732 622 0 17 731 509 126 64 88 729 549 0 1
6 549 1052 0 729 543 733 551 16 733 1017 0 734 549 735 736 31 551 1054 0 549 736
 550 0 +1e-8 0 0 0 0 0 1 1 0 0 10.555 38 736 1020 0 733 737 551 0 +1e-8 364 411
 738 739 739 31 737 1014 0 735 740 736 0 +1e-8 5 8.66025403784439 -5.13 0 0 -1 -
1 0 0 .125 40 23 738 0 23 .0744707111868231 .3986413292594815 ??5.06058714382691
 8.76958929292205 -3.001214239545085 5.07387157920235 8.76109048852643 -3.003162
1271642 5.08498571528142 8.75191879769302 -3.00963609738721 5.09978668509901 8.7
3553761823848 -3.028058153771215 5.1165324539037 8.70547778367758 -3.07605631593
9275 5.12139492443693 8.6304501400967 -3.24672153467611 5.03931758139926 8.54159
853736964 -3.57158133094314 5.00362953320459 8.53530674300085 -3.63617412731477
 4.98300424657741 8.53641485032445 -3.662153880754295 4.95718964920339 8.5428135
2581949 -3.68263155914128 4.94367893694582 8.5486613057493 -3.68733492494311 4.9
3026979880682 8.55651060893654 -3.68707588419054 4.9194076931211 8.5647036319219
9 -3.682446865757925 4.90549787571624 8.57843503940359 -3.668720488845525 4.8891
290824966 8.60252501869499 -3.63350198135233 4.87502921832633 8.66295657884678 -
3.50807507962262 4.92165013079986 8.75765166613337 -3.21857794092014 4.948680674
73183 8.77423353974722 -3.142461257787075 4.9872862989886 8.78460580424355 -3.06
543884044598 5.00746717573984 8.78503080365626 -3.037014019679165 5.032414630246
96 8.7809780691967 -3.01267429809708 5.04773069729377 8.77578230510332 -3.004103
49014395 5.06058714382691 8.76958929292205 -3.001214239545085 41 1 739 H5.060587
14382691 8.76958929292205 -3.001214239545085 16 735 1011 0 741 733 742 737 38 74
0 986 0 742 743 737 0 +1e-8 364 407 744 745 745 16 742 983 0 746 735 747 740 31
 743 980 0 747 748 740 0 +1e-8 8.66025403784439 5 -5.13 0 0 -1 -1 0 0 .125 40 24
 744 0 24 .0550507725154054 .379914416372482 ??8.76958929292206 5.0605871438269
 -3.001214239545085 8.77667708787287 5.04550465275186 -3.00502090733236 8.782190
50737419 5.02750449778869 -3.0164880427175 8.78525034801063 5.00096043991281 -3.
045336480745425 8.77375817081108 4.9476376872218 -3.14500598468785 8.69259972525
71 4.87925747846843 -3.43140095407336 8.63379382765757 4.87783266689958 -3.57407
1462424115 8.59794104625367 4.89163907032968 -3.641039682627775 8.58328870584192
 4.90150463122689 -3.662587017188415 8.56737033552222 4.9163482346694 -3.6802785
17080905 8.55803159293605 4.92805855327448 -3.686487342458965 8.54953944109273 4
.94197174769032 -3.687593913148035 8.54374037683131 4.95472785848529 -3.68382251
3338375 8.53833794316705 4.9724053291626 -3.67225475978892 8.53525853465563 4.99
893972523012 -3.64280115951112 8.54705653119214 5.05302192459457 -3.539529054720
83 8.63066272222939 5.12144691861127 -3.24614647081981 8.66402130608715 5.124943
2178631 -3.162416089411065 8.70385133800511 5.11715065266013 -3.079047295698065
 8.72835497560044 5.10482014251443 -3.03811753857961 8.74624382221705 5.09072351
946184 -3.015188470116525 8.75769451053643 5.0782965789901 -3.005138751410745 8.
76644764091144 5.06593874936362 -3.001336182016255 8.76958929292206 5.0605871438
269 -3.001214239545085 41 1 745 H8.76958929292206 5.0605871438269 -3.00121423954
5085 16 747 977 0 749 742 750 743 38 748 952 0 750 751 743 0 +1e-8 364 403 752 7
53 753 16 750 949 0 754 747 755 748 31 751 946 0 755 756 748 0 +1e-8 8.660254037
84439 -5 -5.13 0 0 -1 -1 0 0 .125 40 23 752 0 23 .0744707111861676 .398641329278
2075 ??8.76958929292212 -5.06058714382678 -3.00121423954509 8.76109048852653 -5.
07387157920221 -3.00316212716416 8.75191879769314 -5.08498571528129 -3.009636097
38711 8.73553761823868 -5.09978668509885 -3.028058153770945 8.70547778367798 -5.
11653245390354 -3.076056315938535 8.63045014009758 -5.12139492443714 -3.24672153
467372 8.54159853736998 -5.03931758140029 -3.571581330940895 8.53530674300089 -5
.00362953320578 -3.63617412731303 8.53641485032438 -4.98300424657789 -3.66215388
0753785 8.54281352581972 -4.95718964920274 -3.682631559141615 8.54866130574959 -
4.94367893694524 -3.687334924943215 8.55651060893684 -4.93026979880636 -3.687075
884190435 8.56470363192231 -4.91940769312071 -3.682446865757685 8.57843503940411
 -4.90549787571579 -3.668720488844895 8.60252501869599 -4.88912908249607 -3.6335
01981350655 8.66295657884913 -4.87502921832638 -3.508075079616945 8.757651666136
96 -4.92165013080432 -3.218577940905535 8.77423353974912 -4.94868067473603 -3.14
2461257776865 8.78460580424396 -4.98728629899263 -3.065438840439535 8.7850308036
5604 -5.00746717574341 -3.037014019674815 8.78097806919592 -5.03241463024986 -3.
012674298094975 8.77578230510223 -5.0477306972964 -3.004103490142935 8.769589292
92212 -5.06058714382678 -3.00121423954509 41 1 753 H8.76958929292212 -5.06058714
382678 -3.00121423954509 16 755 943 0 757 750 758 751 38 756 918 0 758 759 751 0
 +1e-8 364 399 760 761 761 16 758 915 0 762 755 763 756 31 759 912 0 763 764 756
 0 +1e-8 5 -8.66025403784439 -5.13 0 0 -1 -1 0 0 .125 40 24 760 0 24 .0550507725
146742 .379914416378449 ??5.06058714382666 -8.76958929292219 -3.001214239545105
 5.04550465275153 -8.77667708787299 -3.005020907332505 5.02750449778825 -8.78219
050737429 -3.01648804271787 5.0009604399121 -8.78525034801063 -3.04533648074638
 4.94763768722052 -8.77375817081048 -3.145005984691015 4.8792574784678 -8.692599
72525472 -3.431400954079905 4.87783266690033 -8.63379382765408 -3.57407146243142
5 4.89163907033224 -8.59794104624923 -3.6410396826349 4.90150463122853 -8.583288
70583983 -3.662587017191185 4.9163482346686 -8.56737033552293 -3.680278517080285
 4.92805855327374 -8.55803159293657 -3.686487342458745 4.94197174768978 -8.54953
944109301 -3.687593913148105 4.95472785848482 -8.54374037683149 -3.6838225133385
95 4.97240532916194 -8.53833794316719 -3.67225475978947 4.99893972522907 -8.5352
5853465564 -3.642801159512565 5.05302192459263 -8.54705653119123 -3.539529054725
7 5.12144691861043 -8.63066272222595 -3.246146470829105 5.12494321786318 -8.6640
2130608436 -3.16241608941754 5.11715065266097 -8.70385133800287 -3.0790472957022
 5.10482014251497 -8.72835497559961 -3.038117538580825 5.0907235194629 -8.746243
82221594 -3.01518847011771 5.07829657899089 -8.75769451053579 -3.00513875141117
 5.06593874936447 -8.76644764091091 -3.00133618201634 5.06058714382666 -8.769589
29292219 -3.0012142395451 41 1 761 H5.06058714382666 -8.76958929292219 -3.001214
239545105 16 763 909 0 765 758 766 759 38 764 884 0 766 767 759 0 +1e-8 364 395
 768 769 769 16 766 881 0 770 763 771 764 31 767 878 0 771 772 764 0 +1e-8 -4440
892098500625e-30 -10 -5.13 0 0 -1 -1 0 0 .125 40 22 768 0 22 .0481290735858054 .
3642324054435555 ??-.02198231385134685 -9.87694806837049 -3.68246549724968 -.007
39172304813344 -9.87521874167015 -3.687275359581645 .00815459117630839 -9.875266
27303433 -3.68714314683684 .02169260341523595 -9.87689666553229 -3.6826084542230
05 .040500293790155 -9.88174296552462 -3.66913366910159 .0665285831361807 -9.894
17491967453 -3.63459807290936 .108831468867162 -9.93851251034385 -3.511785305054
205 .117845859801965 -10.04168157059822 -3.22812880908608 .0800120260833698 -10.
09603684543982 -3.079849475591405 .0512505365107214 -10.11401044911482 -3.030992
208481075 .03557639271232585 -10.11983038129614 -3.015190414041925 .015751617991
10425 -10.1240035746689 -3.003865234894315 .000878739178643015 -10.1249969112316
6 -3.00117020548106 -.01412240647308076 -10.12419966841908 -3.00333319067459 -.0
311441840522386 -10.12105800179964 -3.01185842828738 -.0532871194436044 -10.1130
7290967072 -3.033538577985305 -.0899507616664133 -10.0867978137722 -3.1049972631
9624 -.1249412355856506 -10.0038324470423 -3.331852434881105 -.0916734385180019
 -9.91502364640509 -3.576779232214575 -.0693105678807895 -9.8959757471546 -3.629
599066236745 -.0419688942198508 -9.88225615974514 -3.66770716149653 -.0219823138
5134105 -9.87694806837054 -3.68246549724969 41 1 769 H-.02198231385134685 -9.876
94806837049 -3.68246549724968 16 771 875 0 773 766 774 767 38 772 850 0 774 775
 767 0 +1e-8 364 391 776 777 777 16 774 847 0 778 771 779 772 31 775 844 0 779 7
80 772 0 +1e-8 -5 -8.66025403784439 -5.13 0 0 -1 -1 0 0 .125 40 23 776 0 23 .074
4707111851936 .3986413293060845 ??-5.06058714382659 -8.76958929292223 -3.0012142
39545105 -5.073871579202 -8.76109048852668 -3.00316212716409 -5.08498571528109 -
8.75191879769332 -3.009636097386955 -5.09978668509862 -8.73553761823898 -3.02805
8153770545 -5.1165324539033 -8.70547778367858 -3.07605631593745 -5.1213949244374
6 -8.63045014009889 -3.24672153467019 -5.03931758140181 -8.54159853737048 -3.571
581330937565 -5.00362953320754 -8.53530674300094 -3.636174127310455 -4.983004246
5786 -8.53641485032428 -3.662153880753025 -4.95718964920177 -8.54281352582008 -3
.682631559142115 -4.94367893694436 -8.54866130575003 -3.687334924943375 -4.93026
979880568 -8.5565106089373 -3.687075884190285 -4.91940769312014 -8.5647036319227
9 -3.68244686575732 -4.90549787571511 -8.57843503940489 -3.668720488843965 -4.88
91290824953 -8.60252501869746 -3.633501981348185 -4.87502921832645 -8.6629565788
5258 -3.508075079608575 -4.92165013081089 -8.75765166614225 -3.218577940884015 -
4.94868067474223 -8.77423353975191 -3.142461257761815 -4.98728629899857 -8.78460
580424457 -3.06543884043002 -5.00746717574869 -8.78503080365573 -3.0370140196683
95 -5.03241463025414 -8.78097806919477 -3.01267429809187 -5.04773069730029 -8.77
578230510062 -3.004103490141445 -5.06058714382659 -8.76958929292223 -3.001214239
545105 41 1 777 H-5.06058714382659 -8.76958929292223 -3.001214239545105 16 779 8
41 0 781 774 782 775 38 780 816 0 782 783 775 0 +1e-8 364 387 784 785 785 16 782
 813 0 786 779 787 780 31 783 810 0 787 788 780 0 +1e-8 -8.66025403784439 -5 -5.
13 0 0 -1 -1 0 0 .125 40 24 784 0 24 .0550507725148832 .3799144163767685 ??-8.76
958929292215 -5.06058714382673 -3.001214239545095 -8.77667708787296 -5.045504652
75163 -3.005020907332465 -8.78219050737426 -5.02750449778837 -3.01648804271777 -
8.78525034801063 -5.0009604399123 -3.045336480746115 -8.77375817081065 -4.947637
68722088 -3.145005984690125 -8.69259972525539 -4.87925747846798 -3.4314009540780
55 -8.63379382765507 -4.87783266690012 -3.57407146242936 -8.59794104625048 -4.89
163907033152 -3.64103968263289 -8.58328870584042 -4.90150463122807 -3.6625870171
904 -8.56737033552273 -4.91634823466883 -3.68027851708046 -8.55803159293642 -4.9
2805855327395 -3.68648734245881 -8.54953944109293 -4.94197174768993 -3.687593913
14809 -8.54374037683143 -4.95472785848495 -3.683822513338535 -8.53833794316715 -
4.97240532916213 -3.672254759789315 -8.53525853465563 -4.99893972522937 -3.64280
1159512155 -8.54705653119149 -5.05302192459319 -3.539529054724315 -8.63066272222
693 -5.12144691861067 -3.24614647082646 -8.66402130608515 -5.12494321786316 -3.1
62416089415705 -8.70385133800349 -5.11715065266074 -3.079047295701055 -8.7283549
7559986 -5.10482014251481 -3.038117538580465 -8.74624382221624 -5.09072351946261
 -3.01518847011739 -8.75769451053596 -5.07829657899067 -3.005138751411055 -8.766
44764091106 -5.06593874936423 -3.00133618201632 -8.76958929292215 -5.06058714382
673 -3.0012142395451 41 1 785 H-8.76958929292215 -5.06058714382673 -3.0012142395
45095 16 787 807 0 789 782 790 783 38 788 782 0 790 791 783 0 +1e-8 364 383 792
 793 793 16 790 779 0 794 787 795 788 31 791 776 0 795 370 788 0 +1e-8 -8.660254
03784439 5 -5.13 0 0 -1 -1 0 0 .125 40 23 792 0 23 .0744707111873578 .3986413292
439395 ??-8.76958929292199 5.06058714382701 -3.001214239545085 -8.76109048852635
 5.07387157920245 -3.003162127164255 -8.75191879769292 5.08498571528151 -3.00963
6097387305 -8.73553761823831 5.09978668509912 -3.02805815377144 -8.7054777836772
5 5.11653245390382 -3.076056315939885 -8.63045014009598 5.12139492443674 -3.2467
21534678065 -8.54159853736936 5.03931758139841 -3.571581330944985 -8.53530674300
082 5.0036295332036 -3.636174127316205 -8.5364148503245 4.983004246577 -3.662153
880754725 -8.54281352581929 4.95718964920392 -3.682631559141015 -8.5486613057490
5 4.94367893694631 -3.687334924943035 -8.55651060893628 4.9302697988072 -3.68707
588419064 -8.56470363192172 4.91940769312141 -3.682446865758145 -8.5784350394031
5 4.90549787571661 -3.66872048884606 -8.60252501869415 4.88912908249702 -3.63350
198135375 -8.66295657884482 4.87502921832628 -3.50807507962739 -8.75765166613036
 4.92165013079611 -3.218577940932395 -8.77423353974563 4.94868067472829 -3.14246
125779566 -8.7846058042432 4.98728629898521 -3.06543884045141 -8.78503080365644
 5.00746717573683 -3.037014019682835 -8.78097806919735 5.03241463024451 -3.01267
429809886 -8.77578230510423 5.04773069729155 -3.00410349014482 -8.76958929292199
 5.06058714382701 -3.001214239545085 41 1 793 H-8.76958929292199 5.0605871438270
1 -3.001214239545085 16 795 773 0 796 790 797 791 38 370 748 0 797 363 791 0 +1e
-8 364 379 798 799 799 16 797 745 0 800 795 369 370 40 23 798 0 23 .054775743902
0035 .3835198393637205 ??-5.38900965971135 8.27565408619799 -3.686180012232995 -
5.40710948487477 8.26803801906099 -3.67652858906639 -5.43057076320313 8.26271075
750652 -3.65343219927786 -5.47744067339431 8.26562356918836 -3.57583853511734 -5
.55343536333587 8.32215829258154 -3.3309341715221 -5.57000804200617 8.4052439172
4048 -3.11568308017155 -5.55811926889997 8.44275609171877 -3.04770181641286 -5.5
490929760988 8.45795994685821 -3.02641830352823 -5.53523525188128 8.474635102495
72 -3.00894312998935 -5.52380045002345 8.48485187875724 -3.002591896962395 -5.51
003918074888 8.49428739892102 -3.001456837787605 -5.49731068250102 8.50086398950
344 -3.005301007792545 -5.47956600383691 8.50722279858038 -3.017056492544905 -5.
45279485245465 8.51154150103696 -3.046819967615775 -5.39800670016478 8.501962012
96386 -3.149931082412705 -5.32640721252701 8.42176344159159 -3.4412857461586 -5.
32139830292917 8.38811569061691 -3.52672873007008 -5.32736788203042 8.3485133754
8264 -3.60970680903891 -5.33861611776657 8.32338337031991 -3.651203548804875 -5.
35141763704178 8.30543339780292 -3.673663581545045 -5.36314888325216 8.293454094
00578 -3.68383378085375 -5.37486824393852 8.28418939624501 -3.687692218487955 -5
.38900965971135 8.27565408619799 -3.68618001223299 41 1 799 H-5.38900965971135 8
.27565408619799 -3.686180012232995 17 800 801 800 800 0 802 797 0 16 369 739 0 8
03 797 362 363 17 803 385 803 803 0 804 369 0 15 385 753 0 803 380 805 17 804 80
6 804 804 0 803 369 0 15 806 741 0 804 474 807 15 807 707 0 808 474 809 17 808 8
07 808 808 0 361 359 0 15 809 679 0 810 474 473 17 810 809 810 810 0 355 353 0 1
7 355 811 355 355 0 810 353 0 15 811 692 0 355 371 594 17 361 381 361 361 0 808
 359 0 15 381 719 0 361 378 812 15 812 720 0 813 378 0 17 813 812 813 813 0 368
 362 0 17 368 814 368 368 0 813 362 0 15 814 712 0 368 371 811 15 805 754 0 802
 380 0 17 802 805 802 802 0 800 797 0 15 801 746 0 800 371 814 17 796 389 796 79
6 0 815 795 0 15 389 787 0 796 384 816 17 815 817 815 815 0 796 795 0 15 817 775
 0 815 474 806 15 816 788 0 818 384 0 17 818 816 818 818 0 794 790 0 17 794 819
 794 794 0 818 790 0 15 819 780 0 794 371 801 17 789 393 789 789 0 820 787 0 15
 393 821 0 789 388 821 17 820 822 820 820 0 789 787 0 15 822 809 0 820 474 817 1
5 821 822 0 823 388 0 17 823 821 823 823 0 786 782 0 17 786 824 786 786 0 823 78
2 0 15 824 814 0 786 371 819 17 781 397 781 781 0 825 779 0 15 397 855 0 781 392
 826 17 825 827 825 825 0 781 779 0 15 827 843 0 825 474 822 15 826 856 0 828 39
2 0 17 828 826 828 828 0 778 774 0 17 778 829 778 778 0 828 774 0 15 829 848 0 7
78 371 824 17 773 401 773 773 0 830 771 0 15 401 889 0 773 396 831 17 830 832 83
0 830 0 773 771 0 15 832 877 0 830 474 827 15 831 890 0 833 396 0 17 833 831 833
 833 0 770 766 0 17 770 834 770 770 0 833 766 0 15 834 882 0 770 371 829 17 765
 405 765 765 0 835 763 0 15 405 923 0 765 400 836 17 835 837 835 835 0 765 763 0
 15 837 911 0 835 474 832 15 836 924 0 838 400 0 17 838 836 838 838 0 762 758 0
 17 762 839 762 762 0 838 758 0 15 839 916 0 762 371 834 17 757 409 757 757 0 84
0 755 0 15 409 957 0 757 404 841 17 840 842 840 840 0 757 755 0 15 842 945 0 840
 474 837 15 841 958 0 843 404 0 17 843 841 843 843 0 754 750 0 17 754 844 754 75
4 0 843 750 0 15 844 950 0 754 371 839 17 749 413 749 749 0 845 747 0 15 413 991
 0 749 408 846 17 845 485 845 845 0 749 747 0 15 485 979 0 845 474 842 15 846 99
2 0 847 408 0 17 847 846 847 847 0 746 742 0 17 746 848 746 746 0 847 742 0 15 8
48 984 0 746 371 844 17 741 416 741 741 0 484 735 0 15 416 1025 0 741 412 849 17
 484 477 484 484 0 741 735 0 15 849 1026 0 850 412 0 17 850 849 850 850 0 734 73
3 0 17 734 531 734 734 0 850 733 0 15 531 1018 0 734 371 848 15 509 393 0 165 50
5 0 17 126 509 192 731 102 851 613 0 17 64 509 731 723 60 722 681 0 17 723 509 6
4 165 46 660 658 0 17 165 509 723 852 163 853 311 0 17 852 509 165 183 154 287 2
85 0 17 853 518 315 304 154 165 311 0 15 518 427 0 315 514 0 17 315 518 307 853
 160 156 313 0 17 304 518 853 307 163 171 302 0 17 307 518 304 315 169 162 305 0
 17 171 445 198 660 169 304 302 0 17 198 445 854 171 196 256 254 0 17 854 445 26
7 198 190 264 262 0 17 256 512 162 855 169 198 254 0 15 512 411 0 162 508 0 17 1
62 512 856 256 160 307 305 0 17 855 512 256 856 196 259 257 0 17 856 512 855 162
 199 253 251 0 17 259 500 276 264 199 855 257 0 15 500 274 0 276 496 0 17 276 50
0 857 259 181 201 274 0 17 264 500 259 857 196 854 262 0 17 857 500 264 276 190
 183 260 0 17 183 509 852 192 181 857 260 0 17 192 509 183 126 190 267 265 0 17
 267 445 96 854 102 192 265 0 17 96 445 81 267 94 545 542 0 17 81 445 78 96 79 6
55 653 0 17 545 587 851 858 102 96 542 0 15 587 1239 0 859 584 0 17 851 587 732
 545 88 126 613 0 17 858 587 545 859 94 612 610 0 17 859 587 858 732 91 87 615 0
 17 612 630 860 655 91 858 610 0 15 630 1223 0 646 627 0 17 860 630 646 612 82 9
3 656 0 17 655 630 612 646 94 81 653 0 17 646 630 655 860 79 636 642 0 17 636 63
1 638 633 82 646 642 0 17 638 631 634 636 70 84 644 0 17 84 594 93 595 82 638 64
4 0 17 93 594 87 84 91 860 656 0 17 87 594 597 93 85 859 615 0 17 597 594 100 87
 106 554 546 0 17 554 728 90 557 85 597 546 0 17 557 728 554 663 106 861 555 0 1
7 861 583 862 113 127 557 555 0 15 583 1237 0 862 419 0 17 862 583 540 861 108 1
29 565 0 17 113 583 861 600 106 100 598 0 17 600 583 113 540 98 599 558 0 17 540
 583 600 862 103 110 541 0 17 129 524 730 538 127 862 565 0 15 524 552 0 141 520
 0 17 730 524 69 129 43 663 661 0 17 69 524 168 730 67 725 692 0 17 168 524 159
 69 166 301 299 0 17 159 524 533 168 157 863 294 0 17 533 524 141 159 130 321 31
9 0 17 863 515 298 310 166 159 294 0 15 515 433 0 310 511 0 17 298 515 293 863 1
72 536 296 0 17 310 515 863 293 157 177 308 0 17 293 515 310 298 175 535 291 0 1
7 141 524 538 533 139 532 345 0 17 732 587 859 851 85 90 622 0 16 622 1282 0 90
 642 615 616 17 78 445 548 81 76 633 637 0 17 548 445 195 78 187 641 543 0 17 19
5 445 222 548 193 270 268 0 17 641 453 75 189 76 548 543 0 15 453 234 0 189 492
 0 17 189 453 641 233 187 864 277 0 17 233 453 189 207 178 227 234 0 17 864 503
 281 270 178 189 277 0 15 503 268 0 281 499 0 17 281 503 273 864 184 180 279 0 1
7 270 503 864 273 187 195 268 0 17 273 503 270 281 193 186 271 0 17 186 497 231
 464 184 273 271 0 15 497 252 0 186 494 0 17 231 497 865 186 223 226 232 0 17 46
4 497 186 865 193 222 462 0 17 865 497 464 231 220 237 460 0 17 222 445 449 195
 220 464 462 0 17 237 235 228 451 223 865 460 0 15 235 115 0 228 476 0 17 451 23
5 237 236 220 449 452 0 17 236 235 451 228 214 207 456 0 17 207 453 233 216 205
 236 456 0 17 180 225 227 226 178 281 279 0 17 201 506 253 287 199 276 274 0 15
 506 375 0 156 502 0 17 253 506 156 201 160 856 251 0 17 287 506 201 156 181 852
 285 0 17 156 506 287 253 154 315 313 0 14 376 686 0 371 378 728 7 374 -17 352 4
18 36 120 37 698 350 0 17 120 418 352 358 118 590 566 0 17 358 418 120 72 111 59
5 356 0 17 72 418 358 422 70 634 639 0 17 422 418 72 28 73 640 673 0 17 640 453
 22 75 23 422 673 0 17 22 453 216 640 14 444 436 0 17 423 434 432 444 29 28 424
 0 74 20 11 1 0 2 0 0 0 0 0 0 0 0 0 0 0 0 0 0 0 0 0 0 0 80 2 8 866 8004 867 0 0
 0 0 3 5 0 0 FFTFFFFFFFFF2 3 83 1 9 .098 84 7 10 density79 16 867 SDL/TYSA_DENSI
TY1 0 
