600 0 1 0           
91 GICL Pro/E ACIS Translator - Source: f:/data5/repository/PTC/V18/mold18/1626ej_pl.prt - 6 0 13 ACIS 6.0.3 NT 24 Thu Apr 04 13:32:09 2002 
1 9.9999999999999995e-007 1e-010 
body $-1 $1 $-1 $2 #
lump $-1 $-1 $3 $0 #
transform $-1 1 0 0 0 1 0 0 0 1 0 0 0 25.399999999999999 no_rotate no_reflect no_shear #
shell $-1 $-1 $-1 $4 $-1 $1 #
face $-1 $5 $6 $3 $-1 $7 reversed single #
face $-1 $8 $9 $3 $-1 $10 reversed single #
loop $-1 $11 $12 $4 #
plane-surface $-1 0 0 0 0 1 0 -1 0 0 forward_v I I I I #
face $-1 $13 $14 $3 $-1 $15 reversed single #
loop $-1 $-1 $16 $5 #
cone-surface $-1 12.25 0.65625 -4.375 0 -1 0 -0.52499999999999991 0 0 1 I I 0 1 0.52499999999999991 forward I I I I #
loop $-1 $17 $18 $4 #
coedge $-1 $19 $19 $20 $21 reversed $6 $-1 #
face $-1 $22 $23 $3 $-1 $24 forward single #
loop $-1 $-1 $25 $8 #
cone-surface $-1 12.25 0.65625 -4.375 0 -1 0 -0.52499999999999991 0 0 1 I I 0 1 0.52499999999999991 forward I I I I #
coedge $-1 $26 $20 $27 $28 reversed $9 $-1 #
loop $-1 $29 $30 $4 #
coedge $-1 $31 $31 $32 $33 reversed $11 $-1 #
coedge $-1 $12 $12 $34 $35 reversed $6 $-1 #
coedge $-1 $16 $36 $12 $21 forward $9 $-1 #
edge $-1 $37 0 $38 3.14159265358979 $12 $39 forward 7 unknown #
face $-1 $40 $41 $3 $-1 $42 reversed single #
loop $-1 $43 $44 $13 #
plane-surface $-1 12.25 0.255 -4.375 0 -1 0 -1 0 0 forward_v I I I I #
coedge $-1 $45 $34 $36 $46 reversed $14 $-1 #
coedge $-1 $36 $16 $44 $47 forward $9 $-1 #
coedge $-1 $34 $45 $16 $28 forward $14 $-1 #
edge $-1 $48 0 $38 0.255 $27 $49 forward 7 unknown #
loop $-1 $50 $51 $4 #
coedge $-1 $52 $52 $53 $54 reversed $17 $-1 #
coedge $-1 $18 $18 $55 $56 reversed $11 $-1 #
coedge $-1 $57 $58 $18 $33 forward $59 $-1 #
edge $-1 $60 0 $61 3.1415926535897931 $18 $62 forward 7 unknown #
coedge $-1 $25 $27 $19 $35 forward $14 $-1 #
edge $-1 $38 0 $37 3.1415926535897931 $19 $63 forward 7 unknown #
coedge $-1 $20 $26 $25 $46 forward $9 $-1 #
vertex $-1 $35 $64 #
vertex $-1 $35 $65 #
ellipse-curve $-1 12.25 0 -4.3750000000000009 0 -1 0 0.52499999999999858 0 8.8817841970012523e-016 1 I I #
face $-1 $66 $67 $3 $-1 $68 reversed single #
loop $-1 $-1 $69 $22 #
cone-surface $-1 12.25 0.65625 -4.375 0 -1 0 -0.3775 0 0 1 I I 0 1 0.3775 forward I I I I #
loop $-1 $-1 $70 $13 #
coedge $-1 $71 $71 $26 $47 reversed $23 $-1 #
coedge $-1 $27 $25 $71 $72 reversed $14 $-1 #
edge $-1 $73 0 $37 0.255 $25 $74 forward 7 unknown #
edge $-1 $48 0 $73 3.1415926535897962 $44 $75 forward 7 unknown #
vertex $-1 $72 $76 #
straight-curve $-1 11.725 0.255 -4.375 0 -1 0 I I #
loop $-1 $77 $78 $4 #
coedge $-1 $79 $79 $80 $81 reversed $29 $-1 #
coedge $-1 $30 $30 $82 $83 reversed $17 $-1 #
coedge $-1 $84 $85 $30 $54 forward $86 $-1 #
edge $-1 $87 0 $88 3.1415926535897931 $30 $89 forward 7 unknown #
coedge $-1 $90 $91 $31 $56 forward $92 $-1 #
edge $-1 $61 0 $60 3.1415926535897931 $31 $93 forward 7 unknown #
coedge $-1 $94 $32 $91 $95 reversed $59 $-1 #
coedge $-1 $32 $94 $90 $96 forward $59 $-1 #
loop $-1 $-1 $57 $97 #
vertex $-1 $56 $98 #
vertex $-1 $56 $99 #
ellipse-curve $-1 -12.375 0 -5.4375 0 -1 0 -0.1875 0 0 1 I I #
ellipse-curve $-1 12.249999999999998 0 -4.375 0 -1 0 -0.52499999999999858 0 0 1 I I #
point $-1 12.774999999999999 0 -4.375 #
point $-1 11.725 0 -4.375 #
face $-1 $97 $100 $3 $-1 $101 forward single #
loop $-1 $-1 $102 $40 #
cone-surface $-1 12.25 0.65625 -4.375 0 -1 0 -0.3775 0 0 1 I I 0 1 0.3775 forward I I I I #
coedge $-1 $103 $104 $105 $106 forward $41 $-1 #
coedge $-1 $107 $107 $103 $108 reversed $43 $-1 #
coedge $-1 $44 $44 $45 $72 forward $23 $-1 #
edge $-1 $48 0 $73 3.1415926535897962 $71 $109 forward 7 unknown #
vertex $-1 $72 $110 #
straight-curve $-1 12.775 0.255 -4.375 0 -1 0 I I #
ellipse-curve $-1 12.25 0.255 -4.3749999999999991 0 1 0 -0.52500000000000036 0 -8.8817841970012523e-016 1 I I #
point $-1 11.725 0.255 -4.375 #
loop $-1 $111 $112 $4 #
coedge $-1 $113 $114 $115 $116 reversed $50 $-1 #
coedge $-1 $51 $51 $117 $118 reversed $29 $-1 #
coedge $-1 $119 $120 $51 $81 forward $121 $-1 #
edge $-1 $122 0 $123 3.1415926535897931 $51 $124 forward 7 unknown #
coedge $-1 $125 $126 $52 $83 forward $127 $-1 #
edge $-1 $88 0 $87 3.1415926535897931 $52 $128 forward 7 unknown #
coedge $-1 $129 $53 $126 $130 reversed $86 $-1 #
coedge $-1 $53 $129 $125 $131 forward $86 $-1 #
loop $-1 $-1 $84 $132 #
vertex $-1 $83 $133 #
vertex $-1 $83 $134 #
ellipse-curve $-1 -12.375 0 5.4375 0 -1 0 -0.1875 0 0 1 I I #
coedge $-1 $135 $55 $58 $96 reversed $92 $-1 #
coedge $-1 $55 $135 $57 $95 forward $92 $-1 #
loop $-1 $-1 $90 $136 #
ellipse-curve $-1 -12.375 0 -5.4375 0 -1 0 0.1875 0 0 1 I I #
coedge $-1 $58 $57 $137 $138 reversed $59 $-1 #
edge $-1 $139 0 $61 0.625 $91 $140 forward 7 unknown #
edge $-1 $141 0 $60 0.625 $90 $142 forward 7 unknown #
face $-1 $136 $59 $3 $-1 $143 reversed single #
point $-1 -12.5625 0 -5.4375 #
point $-1 -12.1875 0 -5.4375 #
loop $-1 $144 $145 $66 #
plane-surface $-1 0 0.625 0 0 1 0 -1 0 0 forward_v I I I I #
coedge $-1 $146 $147 $148 $149 forward $67 $-1 #
coedge $-1 $148 $69 $70 $108 forward $41 $-1 #
coedge $-1 $69 $148 $150 $151 reversed $41 $-1 #
coedge $-1 $147 $146 $69 $106 reversed $67 $-1 #
edge $-1 $152 0 $153 0.37 $69 $154 forward 7 unknown #
coedge $-1 $70 $70 $146 $155 forward $43 $-1 #
edge $-1 $153 0 $156 3.1415926535898073 $103 $157 forward 7 unknown #
ellipse-curve $-1 12.25 0.255 -4.3750000000000009 0 -1 0 -0.52500000000000036 0 8.8817841970012523e-016 1 I I #
point $-1 12.775 0.255 -4.375 #
loop $-1 $158 $159 $4 #
coedge $-1 $160 $160 $161 $162 reversed $77 $-1 #
coedge $-1 $163 $78 $164 $165 reversed $50 $-1 #
coedge $-1 $78 $163 $166 $167 reversed $50 $-1 #
coedge $-1 $168 $169 $78 $116 forward $170 $-1 #
edge $-1 $171 0 $172 26 $78 $173 forward 7 unknown #
coedge $-1 $174 $175 $79 $118 forward $176 $-1 #
edge $-1 $123 0 $122 3.1415926535897931 $79 $177 forward 7 unknown #
coedge $-1 $178 $80 $175 $179 reversed $121 $-1 #
coedge $-1 $80 $178 $174 $180 forward $121 $-1 #
loop $-1 $-1 $119 $181 #
vertex $-1 $118 $182 #
vertex $-1 $118 $183 #
ellipse-curve $-1 12.375 0 -5.4375 0 -1 0 -0.1875 0 0 1 I I #
coedge $-1 $184 $82 $85 $131 reversed $127 $-1 #
coedge $-1 $82 $184 $84 $130 forward $127 $-1 #
loop $-1 $-1 $125 $185 #
ellipse-curve $-1 -12.375 0 5.4375 0 -1 0 0.1875 0 0 1 I I #
coedge $-1 $85 $84 $186 $187 reversed $86 $-1 #
edge $-1 $188 0 $88 0.625 $126 $189 forward 7 unknown #
edge $-1 $190 0 $87 0.625 $125 $191 forward 7 unknown #
face $-1 $185 $86 $3 $-1 $192 reversed single #
point $-1 -12.5625 0 5.4375 #
point $-1 -12.1875 0 5.4375 #
coedge $-1 $91 $90 $193 $194 reversed $92 $-1 #
face $-1 $132 $92 $3 $-1 $195 reversed single #
coedge $-1 $193 $193 $94 $138 forward $144 $-1 #
edge $-1 $141 0 $139 3.1415926535897931 $137 $196 forward 7 unknown #
vertex $-1 $194 $197 #
straight-curve $-1 -12.1875 0.625 -5.4375 0 -1 0 I I #
vertex $-1 $194 $198 #
straight-curve $-1 -12.5625 0.625 -5.4375 0 -1 0 I I #
cone-surface $-1 -12.375 0.625 -5.4375 0 -1 0 0.1875 0 0 1 I I 0 1 0.1875 forward I I I I #
loop $-1 $199 $137 $66 #
coedge $-1 $150 $150 $147 $200 forward $100 $-1 #
coedge $-1 $105 $102 $107 $155 reversed $67 $-1 #
coedge $-1 $102 $105 $145 $200 reversed $67 $-1 #
coedge $-1 $104 $103 $102 $149 reversed $41 $-1 #
edge $-1 $201 0 $156 0.37 $148 $202 forward 7 unknown #
coedge $-1 $145 $145 $104 $151 forward $100 $-1 #
edge $-1 $152 0 $201 3.1415926535897931 $150 $203 forward 7 unknown #
vertex $-1 $151 $204 #
vertex $-1 $108 $205 #
straight-curve $-1 11.8725 0.625 -4.375 0 -1 0 I I #
edge $-1 $153 0 $156 3.1415926535897976 $107 $206 forward 7 unknown #
vertex $-1 $149 $207 #
ellipse-curve $-1 12.25 0.255 -4.3750000000000027 0 -1 0 -0.3774999999999995 0 2.6645352591003757e-015 1 I I #
loop $-1 $208 $209 $4 #
coedge $-1 $210 $210 $211 $212 reversed $111 $-1 #
coedge $-1 $112 $112 $213 $214 reversed $77 $-1 #
coedge $-1 $215 $216 $112 $162 forward $217 $-1 #
edge $-1 $218 0 $219 3.1415926535897931 $112 $220 forward 7 unknown #
coedge $-1 $114 $113 $221 $222 reversed $50 $-1 #
coedge $-1 $223 $224 $113 $165 forward $225 $-1 #
edge $-1 $226 0 $171 12 $113 $227 forward 7 unknown #
coedge $-1 $228 $229 $114 $167 forward $230 $-1 #
edge $-1 $172 0 $231 12 $114 $232 forward 7 unknown #
coedge $-1 $233 $115 $229 $234 forward $170 $-1 #
coedge $-1 $115 $233 $223 $235 reversed $170 $-1 #
loop $-1 $-1 $168 $236 #
vertex $-1 $165 $237 #
vertex $-1 $167 $238 #
straight-curve $-1 -13 0 6 1 0 0 I I #
coedge $-1 $239 $117 $120 $180 reversed $176 $-1 #
coedge $-1 $117 $239 $119 $179 forward $176 $-1 #
loop $-1 $-1 $174 $240 #
ellipse-curve $-1 12.375 0 -5.4375 0 -1 0 0.1875 0 0 1 I I #
coedge $-1 $120 $119 $241 $242 reversed $121 $-1 #
edge $-1 $243 0 $123 0.625 $175 $244 forward 7 unknown #
edge $-1 $245 0 $122 0.625 $174 $246 forward 7 unknown #
face $-1 $240 $121 $3 $-1 $247 reversed single #
point $-1 12.1875 0 -5.4375 #
point $-1 12.5625 0 -5.4375 #
coedge $-1 $126 $125 $248 $249 reversed $127 $-1 #
face $-1 $181 $127 $3 $-1 $250 reversed single #
coedge $-1 $248 $248 $129 $187 forward $199 $-1 #
edge $-1 $190 0 $188 3.1415926535897931 $186 $251 forward 7 unknown #
vertex $-1 $249 $252 #
straight-curve $-1 -12.1875 0.625 5.4375 0 -1 0 I I #
vertex $-1 $249 $253 #
straight-curve $-1 -12.5625 0.625 5.4375 0 -1 0 I I #
cone-surface $-1 -12.375 0.625 5.4375 0 -1 0 0.1875 0 0 1 I I 0 1 0.1875 forward I I I I #
coedge $-1 $137 $137 $135 $194 forward $144 $-1 #
edge $-1 $139 0 $141 3.1415926535897931 $193 $254 forward 7 unknown #
cone-surface $-1 -12.375 0.625 -5.4375 0 -1 0 0.1875 0 0 1 I I 0 1 0.1875 forward I I I I #
ellipse-curve $-1 -12.375 0.625 -5.4375 0 -1 0 -0.1875 0 0 1 I I #
point $-1 -12.1875 0.625 -5.4375 #
point $-1 -12.5625 0.625 -5.4375 #
loop $-1 $255 $186 $66 #
edge $-1 $201 0 $152 3.1415926535897931 $145 $256 forward 7 unknown #
vertex $-1 $151 $257 #
straight-curve $-1 12.6275 0.625 -4.375 0 -1 0 I I #
ellipse-curve $-1 12.25 0.625 -4.375 0 -1 0 -0.3774999999999995 0 0 1 I I #
point $-1 11.8725 0.625 -4.375 #
point $-1 11.8725 0.255 -4.375 #
ellipse-curve $-1 12.25 0.255 -4.3749999999999991 0 1 0 -0.3774999999999995 0 -8.8817841970012523e-016 1 I I #
point $-1 12.6275 0.255 -4.375 #
loop $-1 $258 $259 $4 #
coedge $-1 $260 $260 $261 $262 reversed $158 $-1 #
coedge $-1 $159 $159 $263 $264 reversed $111 $-1 #
coedge $-1 $265 $266 $159 $212 forward $267 $-1 #
edge $-1 $268 0 $269 3.1415926535897931 $159 $270 forward 7 unknown #
coedge $-1 $271 $272 $160 $214 forward $273 $-1 #
edge $-1 $219 0 $218 3.1415926535897931 $160 $274 forward 7 unknown #
coedge $-1 $275 $161 $272 $276 reversed $217 $-1 #
coedge $-1 $161 $275 $271 $277 forward $217 $-1 #
loop $-1 $-1 $215 $278 #
vertex $-1 $214 $279 #
vertex $-1 $214 $280 #
ellipse-curve $-1 12.375 0 5.4375 0 -1 0 -0.1875 0 0 1 I I #
coedge $-1 $281 $282 $163 $222 forward $283 $-1 #
edge $-1 $231 0 $226 26 $163 $284 forward 7 unknown #
coedge $-1 $285 $164 $169 $235 forward $225 $-1 #
coedge $-1 $164 $285 $281 $286 reversed $225 $-1 #
loop $-1 $-1 $223 $287 #
vertex $-1 $222 $288 #
straight-curve $-1 -13 0 -6 0 0 1 I I #
coedge $-1 $289 $166 $282 $290 forward $230 $-1 #
coedge $-1 $166 $289 $168 $234 reversed $230 $-1 #
loop $-1 $-1 $228 $291 #
vertex $-1 $167 $292 #
straight-curve $-1 13 0 6 0 0 -1 I I #
coedge $-1 $169 $168 $293 $294 reversed $170 $-1 #
edge $-1 $172 0 $295 0.625 $229 $296 forward 7 unknown #
edge $-1 $171 0 $297 0.625 $223 $298 forward 7 unknown #
face $-1 $291 $170 $3 $-1 $299 forward single #
point $-1 -13 0 6 #
point $-1 13 0 6 #
coedge $-1 $175 $174 $300 $301 reversed $176 $-1 #
face $-1 $302 $176 $3 $-1 $303 reversed single #
coedge $-1 $300 $300 $178 $242 forward $255 $-1 #
edge $-1 $245 0 $243 3.1415926535897931 $241 $304 forward 7 unknown #
vertex $-1 $301 $305 #
straight-curve $-1 12.5625 0.625 -5.4375 0 -1 0 I I #
vertex $-1 $301 $306 #
straight-curve $-1 12.1875 0.625 -5.4375 0 -1 0 I I #
cone-surface $-1 12.375 0.625 -5.4375 0 -1 0 0.1875 0 0 1 I I 0 1 0.1875 forward I I I I #
coedge $-1 $186 $186 $184 $249 forward $199 $-1 #
edge $-1 $188 0 $190 3.1415926535897931 $248 $307 forward 7 unknown #
cone-surface $-1 -12.375 0.625 5.4375 0 -1 0 0.1875 0 0 1 I I 0 1 0.1875 forward I I I I #
ellipse-curve $-1 -12.375 0.625 5.4375 0 -1 0 -0.1875 0 0 1 I I #
point $-1 -12.1875 0.625 5.4375 #
point $-1 -12.5625 0.625 5.4375 #
ellipse-curve $-1 -12.375 0.625 -5.4375 0 -1 0 0.1875 0 0 1 I I #
loop $-1 $308 $241 $66 #
ellipse-curve $-1 12.25 0.625 -4.375 0 -1 0 0.3774999999999995 0 0 1 I I #
point $-1 12.6275 0.625 -4.375 #
loop $-1 $-1 $309 $4 #
coedge $-1 $310 $310 $311 $312 forward $208 $-1 #
coedge $-1 $209 $209 $313 $314 reversed $158 $-1 #
coedge $-1 $315 $316 $209 $262 forward $317 $-1 #
edge $-1 $318 0 $319 3.14159265358979 $209 $320 forward 7 unknown #
coedge $-1 $321 $322 $210 $264 forward $323 $-1 #
edge $-1 $269 0 $268 3.1415926535897931 $210 $324 forward 7 unknown #
coedge $-1 $325 $211 $322 $326 reversed $267 $-1 #
coedge $-1 $211 $325 $321 $327 forward $267 $-1 #
loop $-1 $-1 $265 $328 #
vertex $-1 $264 $329 #
vertex $-1 $264 $330 #
ellipse-curve $-1 0 0 0 0 -1 0 0.315 0 0 1 I I #
coedge $-1 $331 $213 $216 $277 reversed $273 $-1 #
coedge $-1 $213 $331 $215 $276 forward $273 $-1 #
loop $-1 $-1 $271 $332 #
ellipse-curve $-1 12.375 0 5.4375 0 -1 0 0.1875 0 0 1 I I #
coedge $-1 $216 $215 $333 $334 reversed $217 $-1 #
edge $-1 $335 0 $219 0.625 $272 $336 forward 7 unknown #
edge $-1 $337 0 $218 0.625 $271 $338 forward 7 unknown #
face $-1 $332 $217 $3 $-1 $339 reversed single #
point $-1 12.1875 0 5.4375 #
point $-1 12.5625 0 5.4375 #
coedge $-1 $340 $221 $224 $286 forward $283 $-1 #
coedge $-1 $221 $340 $228 $290 reversed $283 $-1 #
loop $-1 $-1 $281 $302 #
straight-curve $-1 13 0 -6 -1 0 0 I I #
coedge $-1 $224 $223 $341 $342 reversed $225 $-1 #
edge $-1 $226 0 $343 0.625 $281 $344 forward 7 unknown #
face $-1 $236 $225 $3 $-1 $345 forward single #
point $-1 -13 0 -6 #
coedge $-1 $229 $228 $346 $347 reversed $230 $-1 #
edge $-1 $231 0 $348 0.625 $228 $349 forward 7 unknown #
face $-1 $278 $230 $3 $-1 $350 forward single #
point $-1 13 0 -6 #
coedge $-1 $346 $341 $233 $294 forward $308 $-1 #
edge $-1 $297 0 $295 26 $293 $351 forward 7 unknown #
vertex $-1 $347 $352 #
straight-curve $-1 13 0 6 0 1 0 I I #
vertex $-1 $294 $353 #
straight-curve $-1 -13 0 6 0 1 0 I I #
plane-surface $-1 -13 0 6 0 0 1 1 0 0 forward_v I I I I #
coedge $-1 $241 $241 $239 $301 forward $255 $-1 #
edge $-1 $243 0 $245 3.1415926535897931 $300 $354 forward 7 unknown #
face $-1 $287 $283 $3 $-1 $355 forward single #
cone-surface $-1 12.375 0.625 -5.4375 0 -1 0 0.1875 0 0 1 I I 0 1 0.1875 forward I I I I #
ellipse-curve $-1 12.375 0.625 -5.4375 0 -1 0 -0.1875 0 0 1 I I #
point $-1 12.5625 0.625 -5.4375 #
point $-1 12.1875 0.625 -5.4375 #
ellipse-curve $-1 -12.375 0.625 5.4375 0 -1 0 0.1875 0 0 1 I I #
loop $-1 $356 $357 $66 #
coedge $-1 $358 $358 $359 $360 reversed $258 $-1 #
coedge $-1 $259 $259 $361 $362 forward $208 $-1 #
coedge $-1 $363 $364 $259 $312 reversed $365 $-1 #
edge $-1 $366 0 $367 3.14159265358979 $259 $368 forward 7 unknown #
coedge $-1 $369 $370 $260 $314 forward $371 $-1 #
edge $-1 $319 0 $318 3.1415926535897931 $260 $372 forward 7 unknown #
coedge $-1 $373 $261 $370 $374 reversed $317 $-1 #
coedge $-1 $261 $373 $369 $375 forward $317 $-1 #
loop $-1 $-1 $315 $376 #
vertex $-1 $314 $377 #
vertex $-1 $314 $378 #
ellipse-curve $-1 12.25 0 4.3749999999999991 0 -1 0 0.52499999999999858 0 8.8817841970012523e-016 1 I I #
coedge $-1 $379 $263 $266 $327 reversed $323 $-1 #
coedge $-1 $263 $379 $265 $326 forward $323 $-1 #
loop $-1 $-1 $321 $380 #
ellipse-curve $-1 0 0 0 0 -1 0 -0.315 0 0 1 I I #
coedge $-1 $266 $265 $381 $382 forward $267 $-1 #
edge $-1 $383 0 $269 0.255 $322 $384 forward 7 unknown #
edge $-1 $385 0 $268 0.255 $321 $386 forward 7 unknown #
face $-1 $380 $267 $3 $-1 $387 reversed single #
point $-1 0.315 0 0 #
point $-1 -0.315 0 0 #
coedge $-1 $272 $271 $388 $389 reversed $273 $-1 #
face $-1 $390 $273 $3 $-1 $391 reversed single #
coedge $-1 $388 $388 $275 $334 forward $356 $-1 #
edge $-1 $337 0 $335 3.1415926535897931 $333 $392 forward 7 unknown #
vertex $-1 $389 $393 #
straight-curve $-1 12.5625 0.625 5.4375 0 -1 0 I I #
vertex $-1 $389 $394 #
straight-curve $-1 12.1875 0.625 5.4375 0 -1 0 I I #
cone-surface $-1 12.375 0.625 5.4375 0 -1 0 0.1875 0 0 1 I I 0 1 0.1875 forward I I I I #
coedge $-1 $282 $281 $357 $395 reversed $283 $-1 #
coedge $-1 $293 $357 $285 $342 forward $308 $-1 #
edge $-1 $343 0 $297 12 $341 $396 forward 7 unknown #
vertex $-1 $342 $397 #
straight-curve $-1 -13 0 -6 0 1 0 I I #
plane-surface $-1 -13 0 -6 -1 0 0 0 0 1 forward_v I I I I #
coedge $-1 $357 $293 $289 $347 forward $308 $-1 #
edge $-1 $295 0 $348 12 $346 $398 forward 7 unknown #
vertex $-1 $347 $399 #
straight-curve $-1 13 0 -6 0 1 0 I I #
plane-surface $-1 13 0 6 1 0 0 0 0 -1 forward_v I I I I #
straight-curve $-1 -13 0.625 6 1 0 0 I I #
point $-1 13 0.625 6 #
point $-1 -13 0.625 6 #
ellipse-curve $-1 12.375 0.625 -5.4375 0 -1 0 0.1875 0 0 1 I I #
plane-surface $-1 13 0 -6 0 0 -1 -1 0 0 forward_v I I I I #
loop $-1 $400 $333 $66 #
coedge $-1 $341 $346 $340 $395 forward $308 $-1 #
coedge $-1 $309 $309 $401 $402 reversed $258 $-1 #
coedge $-1 $403 $404 $309 $360 forward $405 $-1 #
edge $-1 $406 0 $407 3.1415926535897931 $309 $408 forward 7 unknown #
coedge $-1 $409 $410 $310 $362 reversed $411 $-1 #
edge $-1 $367 0 $366 3.1415926535897931 $310 $412 forward 7 unknown #
coedge $-1 $413 $311 $410 $414 reversed $365 $-1 #
coedge $-1 $311 $413 $409 $415 forward $365 $-1 #
loop $-1 $-1 $363 $416 #
vertex $-1 $362 $417 #
vertex $-1 $362 $418 #
ellipse-curve $-1 -12.25 0 4.3749999999999991 0 1 0 -0.52499999999999858 0 8.8817841970012523e-016 1 I I #
coedge $-1 $419 $313 $316 $375 reversed $371 $-1 #
coedge $-1 $313 $419 $315 $374 forward $371 $-1 #
loop $-1 $-1 $369 $420 #
ellipse-curve $-1 12.249999999999998 0 4.375 0 -1 0 -0.52499999999999858 0 0 1 I I #
coedge $-1 $316 $315 $421 $422 forward $317 $-1 #
edge $-1 $423 0 $319 0.255 $370 $424 forward 7 unknown #
edge $-1 $425 0 $318 0.255 $369 $426 forward 7 unknown #
face $-1 $420 $317 $3 $-1 $427 reversed single #
point $-1 12.774999999999999 0 4.375 #
point $-1 11.725 0 4.375 #
coedge $-1 $322 $321 $428 $429 reversed $323 $-1 #
face $-1 $430 $323 $3 $-1 $431 reversed single #
coedge $-1 $428 $428 $325 $382 reversed $432 $-1 #
edge $-1 $383 0 $385 3.1415926535897931 $381 $433 forward 7 unknown #
vertex $-1 $429 $434 #
straight-curve $-1 -0.315 0.255 0 0 -1 0 I I #
vertex $-1 $429 $435 #
straight-curve $-1 0.315 0.255 3.8575100145404886e-017 0 -1 0 I I #
cone-surface $-1 0 0.65625 0 0 -1 0 -0.315 0 0 1 I I 0 1 0.315 forward I I I I #
coedge $-1 $333 $333 $331 $389 forward $356 $-1 #
edge $-1 $335 0 $337 3.1415926535897931 $388 $436 forward 7 unknown #
face $-1 $437 $438 $3 $-1 $439 reversed single #
cone-surface $-1 12.375 0.625 5.4375 0 -1 0 0.1875 0 0 1 I I 0 1 0.1875 forward I I I I #
ellipse-curve $-1 12.375 0.625 5.4375 0 -1 0 -0.1875 0 0 1 I I #
point $-1 12.5625 0.625 5.4375 #
point $-1 12.1875 0.625 5.4375 #
edge $-1 $348 0 $343 26 $357 $440 forward 7 unknown #
straight-curve $-1 -13 0.625 -6 0 0 1 I I #
point $-1 -13 0.625 -6 #
straight-curve $-1 13 0.625 6 0 0 -1 I I #
point $-1 13 0.625 -6 #
loop $-1 $441 $442 $66 #
coedge $-1 $443 $444 $358 $402 forward $445 $-1 #
edge $-1 $407 0 $406 3.14159265358979 $358 $446 forward 7 unknown #
coedge $-1 $447 $359 $444 $448 reversed $405 $-1 #
coedge $-1 $359 $447 $443 $449 forward $405 $-1 #
loop $-1 $-1 $403 $450 #
vertex $-1 $402 $451 #
vertex $-1 $402 $452 #
ellipse-curve $-1 -12.124999999999998 0 -4.375 0 -1 0 0.52499999999999858 0 0 1 I I #
coedge $-1 $453 $361 $364 $415 reversed $411 $-1 #
coedge $-1 $361 $453 $363 $414 forward $411 $-1 #
loop $-1 $-1 $409 $454 #
ellipse-curve $-1 -12.249999999999998 0 4.375 0 1 0 0.52499999999999858 0 0 1 I I #
coedge $-1 $364 $363 $455 $456 reversed $365 $-1 #
edge $-1 $457 0 $366 0.255 $410 $458 forward 7 unknown #
edge $-1 $459 0 $367 0.255 $409 $460 forward 7 unknown #
face $-1 $454 $365 $3 $-1 $461 reversed single #
point $-1 -12.774999999999999 0 4.375 #
point $-1 -11.725 0 4.375 #
coedge $-1 $370 $369 $462 $463 reversed $371 $-1 #
face $-1 $464 $371 $3 $-1 $465 reversed single #
coedge $-1 $462 $462 $373 $422 reversed $466 $-1 #
edge $-1 $423 0 $425 3.1415926535897962 $421 $467 forward 7 unknown #
vertex $-1 $463 $468 #
straight-curve $-1 11.725 0.255 4.375 0 -1 0 I I #
vertex $-1 $463 $469 #
straight-curve $-1 12.775 0.255 4.375 0 -1 0 I I #
cone-surface $-1 12.25 0.65625 4.375 0 -1 0 -0.52499999999999991 0 0 1 I I 0 1 0.52499999999999991 forward I I I I #
coedge $-1 $381 $381 $379 $429 forward $432 $-1 #
edge $-1 $383 0 $385 3.1415926535897931 $428 $470 forward 7 unknown #
face $-1 $471 $472 $3 $-1 $473 reversed single #
cone-surface $-1 0 0.65625 0 0 -1 0 -0.315 0 0 1 I I 0 1 0.315 forward I I I I #
loop $-1 $474 $381 $475 #
ellipse-curve $-1 -1.3877787807814457e-017 0.255 0 0 1 0 -0.315 0 0 1 I I #
point $-1 -0.315 0.255 0 #
point $-1 0.315 0.255 -3.8575100145404886e-017 #
ellipse-curve $-1 12.375 0.625 5.4375 0 -1 0 0.1875 0 0 1 I I #
face $-1 $475 $476 $3 $-1 $477 reversed single #
loop $-1 $-1 $478 $390 #
cone-surface $-1 0 0.65625 0 0 -1 0 -0.19 0 0 1 I I 0 1 0.19 forward I I I I #
straight-curve $-1 13 0.625 -6 -1 0 0 I I #
loop $-1 $479 $480 $66 #
coedge $-1 $481 $481 $482 $483 forward $400 $-1 #
coedge $-1 $484 $401 $404 $449 reversed $445 $-1 #
coedge $-1 $401 $484 $403 $448 forward $445 $-1 #
loop $-1 $-1 $443 $485 #
ellipse-curve $-1 -12.125 0 -4.3749999999999991 0 -1 0 -0.52499999999999858 0 -8.8817841970012523e-016 1 I I #
coedge $-1 $404 $403 $486 $487 forward $405 $-1 #
edge $-1 $488 0 $407 0.255 $444 $489 forward 7 unknown #
edge $-1 $490 0 $406 0.255 $443 $491 forward 7 unknown #
face $-1 $485 $405 $3 $-1 $492 reversed single #
point $-1 -11.6 0 -4.375 #
point $-1 -12.649999999999999 0 -4.375 #
coedge $-1 $410 $409 $493 $494 forward $411 $-1 #
face $-1 $495 $411 $3 $-1 $496 reversed single #
coedge $-1 $493 $493 $413 $456 forward $497 $-1 #
edge $-1 $459 0 $457 3.1415926535897962 $455 $498 forward 7 unknown #
vertex $-1 $494 $499 #
straight-curve $-1 -12.775 0.255 4.375 0 -1 0 I I #
vertex $-1 $494 $500 #
straight-curve $-1 -11.725 0.255 4.375 0 -1 0 I I #
cone-surface $-1 -12.25 0.65625 4.375 0 1 0 0.52499999999999991 0 0 1 I I 0 1 0.52499999999999991 forward I I I I #
coedge $-1 $421 $421 $419 $463 forward $466 $-1 #
edge $-1 $423 0 $425 3.1415926535897962 $462 $501 forward 7 unknown #
face $-1 $502 $503 $3 $-1 $504 reversed single #
cone-surface $-1 12.25 0.65625 4.375 0 -1 0 -0.52499999999999991 0 0 1 I I 0 1 0.52499999999999991 forward I I I I #
loop $-1 $505 $421 $506 #
ellipse-curve $-1 12.25 0.255 4.3750000000000009 0 1 0 -0.52500000000000036 0 -8.8817841970012523e-016 1 I I #
point $-1 11.725 0.255 4.375 #
point $-1 12.775 0.255 4.375 #
ellipse-curve $-1 -1.3877787807814457e-017 0.255 0 0 -1 0 -0.315 0 0 1 I I #
face $-1 $506 $507 $3 $-1 $508 reversed single #
loop $-1 $-1 $509 $430 #
cone-surface $-1 12.25 0.65625 4.375 0 -1 0 -0.3775 0 0 1 I I 0 1 0.3775 forward I I I I #
loop $-1 $-1 $510 $475 #
face $-1 $328 $432 $3 $-1 $511 forward single #
loop $-1 $-1 $512 $437 #
cone-surface $-1 0 0.65625 0 0 -1 0 -0.19 0 0 1 I I 0 1 0.19 forward I I I I #
coedge $-1 $513 $482 $514 $515 forward $438 $-1 #
loop $-1 $516 $517 $66 #
coedge $-1 $518 $518 $519 $520 forward $441 $-1 #
coedge $-1 $442 $442 $521 $522 forward $400 $-1 #
coedge $-1 $478 $523 $442 $483 reversed $438 $-1 #
edge $-1 $524 0 $525 3.1415926535897931 $442 $526 forward 7 unknown #
coedge $-1 $444 $443 $527 $528 reversed $445 $-1 #
face $-1 $-1 $445 $3 $-1 $529 reversed single #
coedge $-1 $527 $527 $447 $487 reversed $530 $-1 #
edge $-1 $488 0 $490 3.1415926535897962 $486 $531 forward 7 unknown #
vertex $-1 $528 $532 #
straight-curve $-1 -12.65 0.255 -4.375 0 -1 0 I I #
vertex $-1 $528 $533 #
straight-curve $-1 -11.6 0.255 -4.375 0 -1 0 I I #
cone-surface $-1 -12.125 0.65625 -4.375 0 -1 0 -0.52499999999999991 0 0 1 I I 0 1 0.52499999999999991 forward I I I I #
coedge $-1 $455 $455 $453 $494 reversed $497 $-1 #
edge $-1 $459 0 $457 3.1415926535897962 $493 $534 forward 7 unknown #
face $-1 $535 $536 $3 $-1 $537 reversed single #
cone-surface $-1 -12.25 0.65625 4.375 0 1 0 0.52499999999999991 0 0 1 I I 0 1 0.52499999999999991 forward I I I I #
loop $-1 $538 $455 $539 #
ellipse-curve $-1 -12.25 0.255 4.3750000000000009 0 -1 0 0.52500000000000036 0 -8.8817841970012523e-016 1 I I #
point $-1 -12.775 0.255 4.375 #
point $-1 -11.725 0.255 4.375 #
ellipse-curve $-1 12.25 0.255 4.3749999999999991 0 -1 0 -0.52500000000000036 0 8.8817841970012523e-016 1 I I #
face $-1 $539 $540 $3 $-1 $541 reversed single #
loop $-1 $-1 $542 $464 #
cone-surface $-1 -12.25 0.65625 4.375 0 1 0 0.3775 0 0 1 I I 0 1 0.3775 forward I I I I #
loop $-1 $-1 $543 $506 #
face $-1 $376 $466 $3 $-1 $544 forward single #
loop $-1 $-1 $545 $471 #
cone-surface $-1 12.25 0.65625 4.375 0 -1 0 -0.3775 0 0 1 I I 0 1 0.3775 forward I I I I #
coedge $-1 $546 $519 $547 $548 forward $472 $-1 #
coedge $-1 $549 $549 $550 $551 reversed $474 $-1 #
plane-surface $-1 0 0.255 0 0 -1 0 -1 0 0 forward_v I I I I #
coedge $-1 $550 $521 $523 $552 forward $476 $-1 #
coedge $-1 $523 $478 $549 $553 reversed $438 $-1 #
coedge $-1 $521 $550 $478 $515 reversed $476 $-1 #
edge $-1 $524 0 $554 0.37 $514 $555 forward 7 unknown #
loop $-1 $-1 $556 $66 #
coedge $-1 $557 $557 $558 $559 reversed $479 $-1 #
coedge $-1 $480 $480 $560 $561 forward $441 $-1 #
coedge $-1 $509 $562 $480 $520 reversed $472 $-1 #
edge $-1 $563 0 $564 3.1415926535897931 $480 $565 forward 7 unknown #
coedge $-1 $512 $514 $481 $522 reversed $476 $-1 #
edge $-1 $525 0 $524 3.1415926535897931 $481 $566 forward 7 unknown #
coedge $-1 $482 $513 $512 $552 reversed $438 $-1 #
vertex $-1 $522 $567 #
vertex $-1 $522 $568 #
ellipse-curve $-1 0 0.625 -1.3877787807814457e-017 0 -1 0 0.19 0 1.3877787807814457e-017 1 I I #
coedge $-1 $486 $486 $484 $528 forward $530 $-1 #
edge $-1 $488 0 $490 3.1415926535897962 $527 $569 forward 7 unknown #
cone-surface $-1 -12.125 0.65625 -4.375 0 -1 0 -0.52499999999999991 0 0 1 I I 0 1 0.52499999999999991 forward I I I I #
loop $-1 $570 $486 $571 #
ellipse-curve $-1 -12.125 0.255 -4.3749999999999991 0 1 0 -0.52500000000000036 0 -8.8817841970012523e-016 1 I I #
point $-1 -12.65 0.255 -4.375 #
point $-1 -11.6 0.255 -4.375 #
ellipse-curve $-1 -12.25 0.255 4.3749999999999991 0 1 0 0.52500000000000036 0 8.8817841970012523e-016 1 I I #
face $-1 $571 $572 $3 $-1 $573 reversed single #
loop $-1 $-1 $574 $495 #
cone-surface $-1 -12.125 0.65625 -4.375 0 -1 0 -0.3775 0 0 1 I I 0 1 0.3775 forward I I I I #
loop $-1 $-1 $575 $539 #
face $-1 $416 $497 $3 $-1 $576 reversed single #
loop $-1 $-1 $577 $502 #
cone-surface $-1 -12.25 0.65625 4.375 0 1 0 0.3775 0 0 1 I I 0 1 0.3775 forward I I I I #
coedge $-1 $578 $558 $579 $580 forward $503 $-1 #
coedge $-1 $581 $581 $582 $583 reversed $505 $-1 #
plane-surface $-1 12.25 0.255 4.375 0 -1 0 -1 0 0 forward_v I I I I #
coedge $-1 $582 $560 $562 $584 forward $507 $-1 #
coedge $-1 $562 $509 $581 $585 reversed $472 $-1 #
coedge $-1 $560 $582 $509 $548 reversed $507 $-1 #
edge $-1 $563 0 $586 0.37 $547 $587 forward 7 unknown #
coedge $-1 $510 $510 $513 $553 forward $474 $-1 #
coedge $-1 $514 $512 $510 $551 forward $476 $-1 #
edge $-1 $588 0 $554 3.1415926535897931 $550 $589 forward 7 unknown #
edge $-1 $525 0 $588 0.37 $512 $590 forward 7 unknown #
edge $-1 $588 0 $554 3.1415926535897931 $549 $591 forward 7 unknown #
vertex $-1 $515 $592 #
straight-curve $-1 0.19 0.625 2.3267520722625167e-017 0 -1 0 I I #
coedge $-1 $593 $593 $594 $595 forward $516 $-1 #
coedge $-1 $517 $517 $596 $597 reversed $479 $-1 #
coedge $-1 $542 $598 $517 $559 forward $503 $-1 #
edge $-1 $599 0 $600 3.1415926535897931 $517 $601 forward 7 unknown #
coedge $-1 $545 $547 $518 $561 reversed $507 $-1 #
edge $-1 $564 0 $563 3.1415926535897931 $518 $602 forward 7 unknown #
coedge $-1 $519 $546 $545 $584 reversed $472 $-1 #
vertex $-1 $561 $603 #
vertex $-1 $561 $604 #
ellipse-curve $-1 12.25 0.625 4.375 0 -1 0 0.3774999999999995 0 0 1 I I #
ellipse-curve $-1 0 0.625 1.3877787807814457e-017 0 -1 0 -0.19 0 -1.3877787807814457e-017 1 I I #
point $-1 0.19 0.625 0 #
point $-1 -0.19 0.625 0 #
ellipse-curve $-1 -12.125 0.255 -4.3750000000000009 0 -1 0 -0.52500000000000036 0 8.8817841970012523e-016 1 I I #
loop $-1 $-1 $605 $571 #
face $-1 $450 $530 $3 $-1 $606 forward single #
loop $-1 $-1 $607 $535 #
cone-surface $-1 -12.125 0.65625 -4.375 0 -1 0 -0.3775 0 0 1 I I 0 1 0.3775 forward I I I I #
coedge $-1 $608 $594 $609 $610 forward $536 $-1 #
coedge $-1 $611 $611 $612 $613 forward $538 $-1 #
plane-surface $-1 -12.25 0.255 4.375 0 1 0 1 0 0 forward_v I I I I #
coedge $-1 $612 $596 $598 $614 forward $540 $-1 #
coedge $-1 $598 $542 $611 $615 forward $503 $-1 #
coedge $-1 $596 $612 $542 $580 reversed $540 $-1 #
edge $-1 $600 0 $616 0.37 $579 $617 forward 7 unknown #
coedge $-1 $543 $543 $546 $585 forward $505 $-1 #
coedge $-1 $547 $545 $543 $583 forward $507 $-1 #
edge $-1 $618 0 $586 3.1415926535897976 $582 $619 forward 7 unknown #
edge $-1 $564 0 $618 0.37 $545 $620 forward 7 unknown #
edge $-1 $618 0 $586 3.1415926535898073 $581 $621 forward 7 unknown #
vertex $-1 $548 $622 #
straight-curve $-1 12.6275 0.625 4.375 0 -1 0 I I #
vertex $-1 $551 $623 #
ellipse-curve $-1 0 0.255 0 0 -1 0 -0.19 0 0 1 I I #
straight-curve $-1 -0.19 0.625 0 0 -1 0 I I #
ellipse-curve $-1 0 0.255 0 0 1 0 -0.19 0 0 1 I I #
point $-1 0.19 0.255 0 #
coedge $-1 $556 $556 $624 $625 forward $516 $-1 #
coedge $-1 $574 $626 $556 $595 reversed $536 $-1 #
edge $-1 $627 0 $628 3.1415926535897931 $556 $629 forward 7 unknown #
coedge $-1 $577 $579 $557 $597 forward $540 $-1 #
edge $-1 $600 0 $599 3.1415926535897931 $557 $630 forward 7 unknown #
coedge $-1 $558 $578 $577 $614 reversed $503 $-1 #
vertex $-1 $597 $631 #
vertex $-1 $597 $632 #
ellipse-curve $-1 -12.25 0.625 4.375 0 1 0 -0.3774999999999995 0 0 1 I I #
ellipse-curve $-1 12.25 0.625 4.375 0 -1 0 -0.3774999999999995 0 0 1 I I #
point $-1 12.6275 0.625 4.375 #
point $-1 11.8725 0.625 4.375 #
coedge $-1 $633 $633 $634 $635 reversed $570 $-1 #
plane-surface $-1 -12.125 0.255 -4.375 0 -1 0 -1 0 0 forward_v I I I I #
coedge $-1 $634 $624 $626 $636 forward $572 $-1 #
coedge $-1 $626 $574 $633 $637 reversed $536 $-1 #
coedge $-1 $624 $634 $574 $610 reversed $572 $-1 #
edge $-1 $627 0 $638 0.37 $609 $639 forward 7 unknown #
coedge $-1 $575 $575 $578 $615 reversed $538 $-1 #
coedge $-1 $579 $577 $575 $613 reversed $540 $-1 #
edge $-1 $616 0 $640 3.1415926535897976 $612 $641 forward 7 unknown #
edge $-1 $599 0 $640 0.37 $577 $642 forward 7 unknown #
edge $-1 $616 0 $640 3.1415926535898073 $611 $643 forward 7 unknown #
vertex $-1 $580 $644 #
straight-curve $-1 -11.8725 0.625 4.375 0 -1 0 I I #
vertex $-1 $583 $645 #
ellipse-curve $-1 12.25 0.255 4.3749999999999991 0 -1 0 -0.3774999999999995 0 8.8817841970012523e-016 1 I I #
straight-curve $-1 11.8725 0.625 4.375 0 -1 0 I I #
ellipse-curve $-1 12.25 0.255 4.3750000000000027 0 1 0 -0.3774999999999995 0 -2.6645352591003757e-015 1 I I #
point $-1 12.6275 0.255 4.375 #
point $-1 -0.19 0.255 0 #
coedge $-1 $607 $609 $593 $625 reversed $572 $-1 #
edge $-1 $628 0 $627 3.1415926535897931 $593 $646 forward 7 unknown #
coedge $-1 $594 $608 $607 $636 reversed $536 $-1 #
vertex $-1 $625 $647 #
vertex $-1 $625 $648 #
ellipse-curve $-1 -12.125 0.625 -4.375 0 -1 0 0.3774999999999995 0 0 1 I I #
ellipse-curve $-1 -12.25 0.625 4.375 0 1 0 0.3774999999999995 0 0 1 I I #
point $-1 -12.6275 0.625 4.375 #
point $-1 -11.8725 0.625 4.375 #
coedge $-1 $605 $605 $608 $637 forward $570 $-1 #
coedge $-1 $609 $607 $605 $635 forward $572 $-1 #
edge $-1 $649 0 $638 3.1415926535898073 $634 $650 forward 7 unknown #
edge $-1 $628 0 $649 0.37 $607 $651 forward 7 unknown #
edge $-1 $649 0 $638 3.1415926535897976 $633 $652 forward 7 unknown #
vertex $-1 $610 $653 #
straight-curve $-1 -11.7475 0.625 -4.375 0 -1 0 I I #
vertex $-1 $613 $654 #
ellipse-curve $-1 -12.25 0.255 4.3749999999999991 0 1 0 0.3774999999999995 0 8.8817841970012523e-016 1 I I #
straight-curve $-1 -12.6275 0.625 4.375 0 -1 0 I I #
ellipse-curve $-1 -12.25 0.255 4.3750000000000027 0 -1 0 0.3774999999999995 0 -2.6645352591003757e-015 1 I I #
point $-1 -11.8725 0.255 4.375 #
point $-1 11.8725 0.255 4.375 #
ellipse-curve $-1 -12.125 0.625 -4.375 0 -1 0 -0.3774999999999995 0 0 1 I I #
point $-1 -11.7475 0.625 -4.375 #
point $-1 -12.5025 0.625 -4.375 #
vertex $-1 $635 $655 #
ellipse-curve $-1 -12.125 0.255 -4.3750000000000027 0 -1 0 -0.3774999999999995 0 2.6645352591003757e-015 1 I I #
straight-curve $-1 -12.5025 0.625 -4.375 0 -1 0 I I #
ellipse-curve $-1 -12.125 0.255 -4.3749999999999991 0 1 0 -0.3774999999999995 0 -8.8817841970012523e-016 1 I I #
point $-1 -11.7475 0.255 -4.375 #
point $-1 -12.6275 0.255 4.375 #
point $-1 -12.5025 0.255 -4.375 #
End-of-ACIS-data 