600 0 1 0           
89 GICL ACIS Healer - Source: /gicl/data5/repository/PTC/V18/mold18/1626ej_bar.prt.sat - 6 0 18 ACIS 6.0.3 Solaris 24 Sat Apr 13 21:26:01 2002 
1 9.999999999999999547e-07 1.000000000000000036e-10 
body $-1 $1 $-1 $-1 #
lump $-1 $-1 $2 $0 #
shell $-1 $-1 $-1 $3 $-1 $1 #
face $-1 $4 $5 $2 $-1 $6 reversed single #
face $-1 $7 $8 $2 $-1 $9 reversed single #
loop $-1 $10 $11 $3 #
plane-surface $-1 0 0 0 0 1 0 -25.39999999999999858 0 0 forward_v I I I I #
face $-1 $12 $13 $2 $-1 $14 reversed single #
loop $-1 $-1 $15 $4 #
cone-surface $-1 -314.3249999999999886 30.00374999999999659 -138.1124999999999829 0 -1 0 -7.9375 0 0 1 I I 0 1 7.9375 forward I I I I #
loop $-1 $16 $17 $3 #
coedge $-1 $18 $18 $19 $20 reversed $5 $-1 #
face $-1 $21 $22 $2 $-1 $23 forward single #
loop $-1 $-1 $24 $7 #
cone-surface $-1 -314.3249999999999886 30.00374999999999659 -138.1124999999999829 0 -1 0 -7.9375 0 0 1 I I 0 1 7.9375 forward I I I I #
coedge $-1 $25 $19 $26 $27 reversed $8 $-1 #
loop $-1 $28 $29 $3 #
coedge $-1 $30 $30 $31 $32 reversed $10 $-1 #
coedge $-1 $11 $11 $33 $34 reversed $5 $-1 #
coedge $-1 $15 $35 $11 $20 forward $8 $-1 #
edge $-1 $36 0 $37 3.141592653589793116 $11 $38 forward 7 unknown #
face $-1 $39 $40 $2 $-1 $41 reversed single #
loop $-1 $42 $43 $12 #
plane-surface $-1 -314.3249999999999886 9.651999999999999247 -138.1124999999999829 0 -1 0 -25.39999999999999858 0 0 forward_v I I I I #
coedge $-1 $44 $33 $35 $45 reversed $13 $-1 #
coedge $-1 $35 $15 $43 $46 forward $8 $-1 #
coedge $-1 $33 $44 $15 $27 forward $13 $-1 #
edge $-1 $47 0 $37 0.3799999999999999489 $26 $48 forward 7 unknown #
loop $-1 $49 $50 $3 #
coedge $-1 $51 $51 $52 $53 reversed $16 $-1 #
coedge $-1 $17 $17 $54 $55 reversed $10 $-1 #
coedge $-1 $56 $57 $17 $32 forward $58 $-1 #
edge $-1 $59 0 $60 3.141592653589793116 $17 $61 forward 7 unknown #
coedge $-1 $24 $26 $18 $34 forward $13 $-1 #
edge $-1 $37 0 $36 3.141592653589793116 $18 $62 forward 7 unknown #
coedge $-1 $19 $25 $24 $45 forward $8 $-1 #
vertex $-1 $34 $63 #
vertex $-1 $34 $64 #
ellipse-curve $-1 -314.3249999999999886 0 -138.1124999999999829 0 -1 0 7.9375 0 0 1 I I #
face $-1 $65 $66 $2 $-1 $67 reversed single #
loop $-1 $-1 $68 $21 #
cone-surface $-1 -314.3249999999999886 30.00374999999999659 -138.1124999999999829 0 -1 0 -5.159374999999999822 0 0 1 I I 0 1 5.159374999999999822 forward I I I I #
loop $-1 $-1 $69 $12 #
coedge $-1 $70 $70 $25 $46 reversed $22 $-1 #
coedge $-1 $26 $24 $70 $71 reversed $13 $-1 #
edge $-1 $72 0 $36 0.3799999999999999489 $24 $73 forward 7 unknown #
edge $-1 $47 0 $72 3.141592653589793116 $43 $74 forward 7 unknown #
vertex $-1 $71 $75 #
straight-curve $-1 -322.2624999999999886 9.65199999999999747 -138.1124999999999829 0 -25.39999999999999858 0 I I #
loop $-1 $-1 $76 $3 #
coedge $-1 $77 $78 $79 $80 reversed $28 $-1 #
coedge $-1 $29 $29 $81 $82 reversed $16 $-1 #
coedge $-1 $83 $84 $29 $53 forward $85 $-1 #
edge $-1 $86 0 $87 3.141592653589793116 $29 $88 forward 7 unknown #
coedge $-1 $89 $90 $30 $55 forward $91 $-1 #
edge $-1 $60 0 $59 3.141592653589793116 $30 $92 forward 7 unknown #
coedge $-1 $93 $31 $90 $94 reversed $58 $-1 #
coedge $-1 $31 $93 $89 $95 forward $58 $-1 #
loop $-1 $-1 $56 $96 #
vertex $-1 $55 $97 #
vertex $-1 $55 $98 #
ellipse-curve $-1 -314.3249999999999886 0 138.1124999999999829 0 -1 0 7.9375 0 0 1 I I #
ellipse-curve $-1 -314.3249999999999886 0 -138.1124999999999829 0 -1 0 -7.9375 0 0 1 I I #
point $-1 -306.3874999999999886 0 -138.1124999999999829 #
point $-1 -322.2624999999999886 0 -138.1124999999999829 #
face $-1 $99 $100 $2 $-1 $101 forward single #
loop $-1 $-1 $102 $39 #
cone-surface $-1 -314.3249999999999886 30.00374999999999659 -138.1124999999999829 0 -1 0 -5.159374999999999822 0 0 1 I I 0 1 5.159374999999999822 forward I I I I #
coedge $-1 $103 $104 $105 $106 forward $40 $-1 #
coedge $-1 $107 $107 $103 $108 reversed $42 $-1 #
coedge $-1 $43 $43 $44 $71 forward $22 $-1 #
edge $-1 $47 0 $72 3.141592653589793116 $70 $109 forward 7 unknown #
vertex $-1 $71 $110 #
straight-curve $-1 -306.3874999999999886 9.65199999999999747 -138.1124999999999829 0 -25.39999999999999858 0 I I #
ellipse-curve $-1 -314.3249999999999886 9.651999999999999247 -138.1124999999999829 -3.552713678800501127e-16 1 0 -7.9375 -2.819966482547897455e-15 0 1 I I #
point $-1 -322.2624999999999886 9.65199999999999747 -138.1124999999999829 #
coedge $-1 $111 $111 $112 $113 reversed $49 $-1 #
coedge $-1 $114 $50 $115 $116 reversed $28 $-1 #
coedge $-1 $50 $114 $117 $118 reversed $28 $-1 #
coedge $-1 $119 $120 $50 $80 forward $121 $-1 #
edge $-1 $122 0 $123 11.99999999999999822 $50 $124 forward 7 unknown #
coedge $-1 $125 $126 $51 $82 forward $127 $-1 #
edge $-1 $87 0 $86 3.141592653589793116 $51 $128 forward 7 unknown #
coedge $-1 $129 $52 $126 $130 reversed $85 $-1 #
coedge $-1 $52 $129 $125 $131 forward $85 $-1 #
loop $-1 $-1 $83 $132 #
vertex $-1 $82 $133 #
vertex $-1 $82 $134 #
ellipse-curve $-1 314.3249999999999886 0 -138.1124999999999829 0 -1 0 7.9375 0 0 1 I I #
coedge $-1 $135 $54 $57 $95 reversed $91 $-1 #
coedge $-1 $54 $135 $56 $94 forward $91 $-1 #
loop $-1 $-1 $89 $136 #
ellipse-curve $-1 -314.3249999999999886 0 138.1124999999999829 0 -1 0 -7.9375 0 0 1 I I #
coedge $-1 $57 $56 $137 $138 forward $58 $-1 #
edge $-1 $139 0 $60 0.3799999999999999489 $90 $140 forward 7 unknown #
edge $-1 $141 0 $59 0.3799999999999999489 $89 $142 forward 7 unknown #
face $-1 $136 $58 $2 $-1 $143 reversed single #
point $-1 -306.3874999999999886 0 138.1124999999999829 #
point $-1 -322.2624999999999886 0 138.1124999999999829 #
face $-1 $144 $145 $2 $-1 $146 reversed single #
loop $-1 $147 $148 $65 #
plane-surface $-1 0 28.57499999999999929 0 0 1 0 -25.39999999999999858 0 0 forward_v I I I I #
coedge $-1 $149 $150 $151 $152 forward $66 $-1 #
coedge $-1 $151 $68 $69 $108 forward $40 $-1 #
coedge $-1 $68 $151 $153 $154 reversed $40 $-1 #
coedge $-1 $150 $149 $68 $106 reversed $66 $-1 #
edge $-1 $155 0 $156 0.7450000000000001066 $68 $157 forward 7 unknown #
coedge $-1 $69 $69 $149 $158 forward $42 $-1 #
edge $-1 $156 0 $159 3.141592653589793116 $103 $160 forward 7 unknown #
ellipse-curve $-1 -314.3249999999999886 9.651999999999999247 -138.1124999999999829 3.552713678800501127e-16 -1 0 -7.9375 -2.819966482547897455e-15 0 1 I I #
point $-1 -306.3874999999999886 9.65199999999999747 -138.1124999999999829 #
coedge $-1 $76 $76 $161 $162 reversed $49 $-1 #
coedge $-1 $163 $164 $76 $113 forward $165 $-1 #
edge $-1 $166 0 $167 3.141592653589793116 $76 $168 forward 7 unknown #
coedge $-1 $78 $77 $169 $170 reversed $28 $-1 #
coedge $-1 $171 $172 $77 $116 forward $173 $-1 #
edge $-1 $174 0 $122 26 $77 $175 forward 7 unknown #
coedge $-1 $176 $177 $78 $118 forward $178 $-1 #
edge $-1 $123 0 $179 26 $78 $180 forward 7 unknown #
coedge $-1 $181 $79 $177 $182 forward $121 $-1 #
coedge $-1 $79 $181 $171 $183 reversed $121 $-1 #
loop $-1 $-1 $119 $184 #
vertex $-1 $116 $185 #
vertex $-1 $118 $186 #
straight-curve $-1 -330.1999999999999886 0 -152.3999999999999773 0 0 25.39999999999999858 I I #
coedge $-1 $187 $81 $84 $131 reversed $127 $-1 #
coedge $-1 $81 $187 $83 $130 forward $127 $-1 #
loop $-1 $-1 $125 $188 #
ellipse-curve $-1 314.3249999999999886 0 -138.1124999999999829 0 -1 0 -7.9375 0 0 1 I I #
coedge $-1 $84 $83 $189 $190 forward $85 $-1 #
edge $-1 $191 0 $87 0.3799999999999999489 $126 $192 forward 7 unknown #
edge $-1 $193 0 $86 0.3799999999999999489 $125 $194 forward 7 unknown #
face $-1 $188 $85 $2 $-1 $195 reversed single #
point $-1 322.2624999999999886 0 -138.1124999999999829 #
point $-1 306.3874999999999886 0 -138.1124999999999829 #
coedge $-1 $90 $89 $196 $197 reversed $91 $-1 #
face $-1 $198 $91 $2 $-1 $199 reversed single #
coedge $-1 $196 $196 $93 $138 reversed $200 $-1 #
edge $-1 $139 0 $141 3.141592653589793116 $137 $201 forward 7 unknown #
vertex $-1 $197 $202 #
straight-curve $-1 -322.2624999999999886 9.65199999999999747 138.1124999999999829 0 -25.39999999999999858 0 I I #
vertex $-1 $197 $203 #
straight-curve $-1 -306.3874999999999886 9.65199999999999747 138.1124999999999829 0 -25.39999999999999858 0 I I #
cone-surface $-1 -314.3249999999999886 30.00374999999999659 138.1124999999999829 0 -1 0 -7.9375 0 0 1 I I 0 1 7.9375 forward I I I I #
face $-1 $204 $205 $2 $-1 $206 reversed single #
loop $-1 $-1 $207 $99 #
cone-surface $-1 -314.3249999999999886 30.00374999999999659 138.1124999999999829 0 -1 0 -5.159374999999999822 0 0 1 I I 0 1 5.159374999999999822 forward I I I I #
loop $-1 $208 $209 $65 #
coedge $-1 $153 $153 $150 $210 forward $100 $-1 #
coedge $-1 $105 $102 $107 $158 reversed $66 $-1 #
coedge $-1 $102 $105 $148 $210 reversed $66 $-1 #
coedge $-1 $104 $103 $102 $152 reversed $40 $-1 #
edge $-1 $211 0 $159 0.7450000000000001066 $151 $212 forward 7 unknown #
coedge $-1 $148 $148 $104 $154 forward $100 $-1 #
edge $-1 $155 0 $211 3.141592653589793116 $153 $213 forward 7 unknown #
vertex $-1 $154 $214 #
vertex $-1 $108 $215 #
straight-curve $-1 -319.484375 28.57499999999999929 -138.1124999999999829 0 -25.39999999999999858 0 I I #
edge $-1 $156 0 $159 3.141592653589793116 $107 $216 forward 7 unknown #
vertex $-1 $152 $217 #
ellipse-curve $-1 -314.3249999999999886 9.651999999999999247 -138.1124999999999829 0 -1 0 -5.159374999999999822 0 0 1 I I #
coedge $-1 $218 $219 $111 $162 forward $220 $-1 #
edge $-1 $167 0 $166 3.141592653589793116 $111 $221 forward 7 unknown #
coedge $-1 $222 $112 $219 $223 reversed $165 $-1 #
coedge $-1 $112 $222 $218 $224 forward $165 $-1 #
loop $-1 $-1 $163 $225 #
vertex $-1 $162 $226 #
vertex $-1 $162 $227 #
ellipse-curve $-1 314.3249999999999886 0 138.1124999999999829 0 -1 0 7.9375 0 0 1 I I #
coedge $-1 $228 $229 $114 $170 forward $230 $-1 #
edge $-1 $179 0 $174 11.99999999999999822 $114 $231 forward 7 unknown #
coedge $-1 $232 $115 $120 $183 forward $173 $-1 #
coedge $-1 $115 $232 $228 $233 reversed $173 $-1 #
loop $-1 $-1 $171 $234 #
vertex $-1 $170 $235 #
straight-curve $-1 330.1999999999999886 0 -152.3999999999999773 -25.39999999999999858 0 0 I I #
coedge $-1 $236 $117 $229 $237 forward $178 $-1 #
coedge $-1 $117 $236 $119 $182 reversed $178 $-1 #
loop $-1 $-1 $176 $238 #
vertex $-1 $118 $239 #
straight-curve $-1 -330.1999999999999886 0 152.3999999999999773 25.39999999999999858 0 0 I I #
coedge $-1 $120 $119 $240 $241 reversed $121 $-1 #
edge $-1 $123 0 $242 1.125 $177 $243 forward 7 unknown #
edge $-1 $122 0 $244 1.125 $171 $245 forward 7 unknown #
face $-1 $238 $121 $2 $-1 $246 forward single #
point $-1 -330.1999999999999886 0 -152.3999999999999773 #
point $-1 -330.1999999999999886 0 152.3999999999999773 #
coedge $-1 $126 $125 $247 $248 reversed $127 $-1 #
face $-1 $249 $127 $2 $-1 $250 reversed single #
coedge $-1 $247 $247 $129 $190 reversed $251 $-1 #
edge $-1 $191 0 $193 3.141592653589793116 $189 $252 forward 7 unknown #
vertex $-1 $248 $253 #
straight-curve $-1 306.3874999999999886 9.65199999999999747 -138.1124999999999829 0 -25.39999999999999858 0 I I #
vertex $-1 $248 $254 #
straight-curve $-1 322.2624999999999886 9.65199999999999747 -138.1124999999999829 0 -25.39999999999999858 0 I I #
cone-surface $-1 314.3249999999999886 30.00374999999999659 -138.1124999999999829 0 -1 0 -7.9375 0 0 1 I I 0 1 7.9375 forward I I I I #
coedge $-1 $137 $137 $135 $197 forward $200 $-1 #
edge $-1 $139 0 $141 3.141592653589793116 $196 $255 forward 7 unknown #
face $-1 $256 $257 $2 $-1 $258 reversed single #
cone-surface $-1 -314.3249999999999886 30.00374999999999659 138.1124999999999829 0 -1 0 -7.9375 0 0 1 I I 0 1 7.9375 forward I I I I #
loop $-1 $259 $137 $204 #
ellipse-curve $-1 -314.3249999999999886 9.651999999999999247 138.1124999999999829 -3.552713678800501127e-16 1 0 -7.9375 -2.819966482547897455e-15 0 1 I I #
point $-1 -322.2624999999999886 9.65199999999999747 138.1124999999999829 #
point $-1 -306.3874999999999886 9.65199999999999747 138.1124999999999829 #
face $-1 $96 $200 $2 $-1 $260 forward single #
loop $-1 $-1 $261 $144 #
cone-surface $-1 -314.3249999999999886 30.00374999999999659 138.1124999999999829 0 -1 0 -5.159374999999999822 0 0 1 I I 0 1 5.159374999999999822 forward I I I I #
coedge $-1 $262 $263 $264 $265 forward $145 $-1 #
loop $-1 $266 $267 $65 #
coedge $-1 $268 $268 $263 $269 forward $147 $-1 #
edge $-1 $211 0 $155 3.141592653589793116 $148 $270 forward 7 unknown #
vertex $-1 $154 $271 #
straight-curve $-1 -309.1656249999999773 28.57499999999999929 -138.1124999999999829 0 -25.39999999999999858 0 I I #
ellipse-curve $-1 -314.3249999999999886 28.57499999999999929 -138.1124999999999829 0 -1 0 -5.159374999999999822 0 0 1 I I #
point $-1 -319.484375 28.57499999999999929 -138.1124999999999829 #
point $-1 -319.484375 9.651999999999999247 -138.1124999999999829 #
ellipse-curve $-1 -314.3249999999999886 9.651999999999999247 -138.1124999999999829 0 1 0 -5.159374999999999822 0 0 1 I I #
point $-1 -309.1656249999999773 9.651999999999999247 -138.1124999999999829 #
coedge $-1 $272 $161 $164 $224 reversed $220 $-1 #
coedge $-1 $161 $272 $163 $223 forward $220 $-1 #
loop $-1 $-1 $218 $273 #
ellipse-curve $-1 314.3249999999999886 0 138.1124999999999829 0 -1 0 -7.9375 0 0 1 I I #
coedge $-1 $164 $163 $274 $275 forward $165 $-1 #
edge $-1 $276 0 $167 0.3799999999999999489 $219 $277 forward 7 unknown #
edge $-1 $278 0 $166 0.3799999999999999489 $218 $279 forward 7 unknown #
face $-1 $273 $165 $2 $-1 $280 reversed single #
point $-1 322.2624999999999886 0 138.1124999999999829 #
point $-1 306.3874999999999886 0 138.1124999999999829 #
coedge $-1 $281 $169 $172 $233 forward $230 $-1 #
coedge $-1 $169 $281 $176 $237 reversed $230 $-1 #
loop $-1 $-1 $228 $249 #
straight-curve $-1 330.1999999999999886 0 152.3999999999999773 0 0 -25.39999999999999858 I I #
coedge $-1 $172 $171 $282 $283 reversed $173 $-1 #
edge $-1 $174 0 $284 1.125 $228 $285 forward 7 unknown #
face $-1 $184 $173 $2 $-1 $286 forward single #
point $-1 330.1999999999999886 0 -152.3999999999999773 #
coedge $-1 $177 $176 $287 $288 reversed $178 $-1 #
edge $-1 $179 0 $289 1.125 $176 $290 forward 7 unknown #
face $-1 $291 $178 $2 $-1 $292 forward single #
point $-1 330.1999999999999886 0 152.3999999999999773 #
coedge $-1 $287 $282 $181 $241 forward $266 $-1 #
edge $-1 $244 0 $242 11.99999999999999822 $240 $293 forward 7 unknown #
vertex $-1 $288 $294 #
straight-curve $-1 -330.1999999999999886 0 152.3999999999999773 0 25.39999999999999858 0 I I #
vertex $-1 $241 $295 #
straight-curve $-1 -330.1999999999999886 0 -152.3999999999999773 0 25.39999999999999858 0 I I #
plane-surface $-1 -330.1999999999999886 0 -152.3999999999999773 -1 0 0 0 0 25.39999999999999858 forward_v I I I I #
coedge $-1 $189 $189 $187 $248 forward $251 $-1 #
edge $-1 $191 0 $193 3.141592653589793116 $247 $296 forward 7 unknown #
face $-1 $234 $230 $2 $-1 $297 forward single #
cone-surface $-1 314.3249999999999886 30.00374999999999659 -138.1124999999999829 0 -1 0 -7.9375 0 0 1 I I 0 1 7.9375 forward I I I I #
loop $-1 $298 $189 $299 #
ellipse-curve $-1 314.3249999999999886 9.651999999999999247 -138.1124999999999829 -3.552713678800501127e-16 1 0 -7.9375 -2.819966482547897455e-15 0 1 I I #
point $-1 306.3874999999999886 9.65199999999999747 -138.1124999999999829 #
point $-1 322.2624999999999886 9.65199999999999747 -138.1124999999999829 #
ellipse-curve $-1 -314.3249999999999886 9.651999999999999247 138.1124999999999829 3.552713678800501127e-16 -1 0 -7.9375 -2.819966482547897455e-15 0 1 I I #
face $-1 $299 $300 $2 $-1 $301 reversed single #
loop $-1 $-1 $302 $198 #
cone-surface $-1 314.3249999999999886 30.00374999999999659 -138.1124999999999829 0 -1 0 -5.159374999999999822 0 0 1 I I 0 1 5.159374999999999822 forward I I I I #
loop $-1 $-1 $303 $204 #
plane-surface $-1 -314.3249999999999886 9.651999999999999247 138.1124999999999829 0 -1 0 -25.39999999999999858 0 0 forward_v I I I I #
coedge $-1 $304 $305 $306 $307 forward $205 $-1 #
coedge $-1 $306 $207 $308 $309 reversed $145 $-1 #
coedge $-1 $207 $306 $209 $269 reversed $145 $-1 #
coedge $-1 $305 $304 $207 $265 reversed $205 $-1 #
edge $-1 $310 0 $311 0.7450000000000001066 $264 $312 forward 7 unknown #
loop $-1 $313 $314 $65 #
coedge $-1 $315 $315 $316 $317 forward $208 $-1 #
coedge $-1 $209 $209 $305 $318 forward $147 $-1 #
edge $-1 $310 0 $319 3.141592653589793116 $209 $320 forward 7 unknown #
ellipse-curve $-1 -314.3249999999999886 28.57499999999999929 -138.1124999999999829 0 -1 0 5.159374999999999822 0 0 1 I I #
point $-1 -309.1656249999999773 28.57499999999999929 -138.1124999999999829 #
coedge $-1 $219 $218 $321 $322 reversed $220 $-1 #
face $-1 $-1 $220 $2 $-1 $323 reversed single #
coedge $-1 $321 $321 $222 $275 reversed $324 $-1 #
edge $-1 $276 0 $278 3.141592653589793116 $274 $325 forward 7 unknown #
vertex $-1 $322 $326 #
straight-curve $-1 306.3874999999999886 9.65199999999999747 138.1124999999999829 0 -25.39999999999999858 0 I I #
vertex $-1 $322 $327 #
straight-curve $-1 322.2624999999999886 9.65199999999999747 138.1124999999999829 0 -25.39999999999999858 0 I I #
cone-surface $-1 314.3249999999999886 30.00374999999999659 138.1124999999999829 0 -1 0 -7.9375 0 0 1 I I 0 1 7.9375 forward I I I I #
coedge $-1 $229 $228 $314 $328 reversed $230 $-1 #
coedge $-1 $240 $314 $232 $283 forward $266 $-1 #
edge $-1 $284 0 $244 26 $282 $329 forward 7 unknown #
vertex $-1 $283 $330 #
straight-curve $-1 330.1999999999999886 0 -152.3999999999999773 0 25.39999999999999858 0 I I #
plane-surface $-1 330.1999999999999886 0 -152.3999999999999773 0 0 -1 -25.39999999999999858 0 0 forward_v I I I I #
coedge $-1 $314 $240 $236 $288 forward $266 $-1 #
edge $-1 $242 0 $289 26 $287 $331 forward 7 unknown #
vertex $-1 $288 $332 #
straight-curve $-1 330.1999999999999886 0 152.3999999999999773 0 25.39999999999999858 0 I I #
face $-1 $333 $334 $2 $-1 $335 reversed single #
plane-surface $-1 -330.1999999999999886 0 152.3999999999999773 0 0 1 25.39999999999999858 0 0 forward_v I I I I #
straight-curve $-1 -330.1999999999999886 28.57499999999999929 -152.3999999999999773 0 0 25.39999999999999858 I I #
point $-1 -330.1999999999999886 28.57499999999999929 152.3999999999999773 #
point $-1 -330.1999999999999886 28.57499999999999929 -152.3999999999999773 #
ellipse-curve $-1 314.3249999999999886 9.651999999999999247 -138.1124999999999829 3.552713678800501127e-16 -1 0 -7.9375 -2.819966482547897455e-15 0 1 I I #
plane-surface $-1 330.1999999999999886 0 152.3999999999999773 1 0 0 0 0 -25.39999999999999858 forward_v I I I I #
loop $-1 $-1 $336 $299 #
face $-1 $132 $251 $2 $-1 $337 forward single #
loop $-1 $-1 $338 $256 #
cone-surface $-1 314.3249999999999886 30.00374999999999659 -138.1124999999999829 0 -1 0 -5.159374999999999822 0 0 1 I I 0 1 5.159374999999999822 forward I I I I #
coedge $-1 $339 $316 $340 $341 forward $257 $-1 #
coedge $-1 $308 $308 $304 $342 reversed $259 $-1 #
coedge $-1 $264 $261 $303 $342 forward $205 $-1 #
coedge $-1 $261 $264 $268 $318 reversed $205 $-1 #
coedge $-1 $263 $262 $261 $307 reversed $145 $-1 #
edge $-1 $319 0 $343 0.7450000000000001066 $261 $344 forward 7 unknown #
coedge $-1 $303 $303 $262 $309 forward $259 $-1 #
edge $-1 $343 0 $311 3.141592653589793116 $308 $345 forward 7 unknown #
vertex $-1 $318 $346 #
vertex $-1 $265 $347 #
straight-curve $-1 -309.1656249999999773 28.57499999999999929 138.1124999999999829 0 -25.39999999999999858 0 I I #
loop $-1 $-1 $348 $65 #
coedge $-1 $282 $287 $281 $328 forward $266 $-1 #
coedge $-1 $267 $267 $349 $350 forward $208 $-1 #
coedge $-1 $302 $351 $267 $317 reversed $257 $-1 #
edge $-1 $352 0 $353 3.141592653589793116 $267 $354 forward 7 unknown #
edge $-1 $319 0 $310 3.141592653589793116 $268 $355 forward 7 unknown #
vertex $-1 $318 $356 #
ellipse-curve $-1 -314.3249999999999886 28.57499999999999929 138.1124999999999829 0 -1 0 5.159374999999999822 0 0 1 I I #
coedge $-1 $274 $274 $272 $322 forward $324 $-1 #
edge $-1 $276 0 $278 3.141592653589793116 $321 $357 forward 7 unknown #
cone-surface $-1 314.3249999999999886 30.00374999999999659 138.1124999999999829 0 -1 0 -7.9375 0 0 1 I I 0 1 7.9375 forward I I I I #
loop $-1 $358 $274 $359 #
ellipse-curve $-1 314.3249999999999886 9.651999999999999247 138.1124999999999829 -3.552713678800501127e-16 1 0 -7.9375 -2.819966482547897455e-15 0 1 I I #
point $-1 306.3874999999999886 9.65199999999999747 138.1124999999999829 #
point $-1 322.2624999999999886 9.65199999999999747 138.1124999999999829 #
edge $-1 $289 0 $284 11.99999999999999822 $314 $360 forward 7 unknown #
straight-curve $-1 330.1999999999999886 28.57499999999999929 -152.3999999999999773 -25.39999999999999858 0 0 I I #
point $-1 330.1999999999999886 28.57499999999999929 -152.3999999999999773 #
straight-curve $-1 -330.1999999999999886 28.57499999999999929 152.3999999999999773 25.39999999999999858 0 0 I I #
point $-1 330.1999999999999886 28.57499999999999929 152.3999999999999773 #
face $-1 $359 $361 $2 $-1 $362 reversed single #
loop $-1 $-1 $363 $291 #
cone-surface $-1 314.3249999999999886 30.00374999999999659 138.1124999999999829 0 -1 0 -5.159374999999999822 0 0 1 I I 0 1 5.159374999999999822 forward I I I I #
coedge $-1 $364 $364 $365 $366 reversed $298 $-1 #
plane-surface $-1 314.3249999999999886 9.651999999999999247 -138.1124999999999829 0 -1 0 -25.39999999999999858 0 0 forward_v I I I I #
coedge $-1 $365 $349 $351 $367 forward $300 $-1 #
coedge $-1 $351 $302 $364 $368 reversed $257 $-1 #
coedge $-1 $349 $365 $302 $341 reversed $300 $-1 #
edge $-1 $352 0 $369 0.7450000000000001066 $340 $370 forward 7 unknown #
edge $-1 $343 0 $311 3.141592653589793116 $304 $371 forward 7 unknown #
vertex $-1 $342 $372 #
straight-curve $-1 -319.484375 28.57499999999999929 138.1124999999999829 0 -25.39999999999999858 0 I I #
ellipse-curve $-1 -314.3249999999999886 9.651999999999999247 138.1124999999999829 0 1 0 -5.159374999999999822 0 0 1 I I #
point $-1 -309.1656249999999773 28.57499999999999929 138.1124999999999829 #
point $-1 -309.1656249999999773 9.651999999999999247 138.1124999999999829 #
coedge $-1 $373 $373 $374 $375 forward $313 $-1 #
coedge $-1 $338 $340 $315 $350 reversed $300 $-1 #
edge $-1 $353 0 $352 3.141592653589793116 $315 $376 forward 7 unknown #
coedge $-1 $316 $339 $338 $367 reversed $257 $-1 #
vertex $-1 $350 $377 #
vertex $-1 $350 $378 #
ellipse-curve $-1 314.3249999999999886 28.57499999999999929 -138.1124999999999829 0 -1 0 5.159374999999999822 0 0 1 I I #
ellipse-curve $-1 -314.3249999999999886 28.57499999999999929 138.1124999999999829 0 -1 0 -5.159374999999999822 0 0 1 I I #
point $-1 -319.484375 28.57499999999999929 138.1124999999999829 #
ellipse-curve $-1 314.3249999999999886 9.651999999999999247 138.1124999999999829 3.552713678800501127e-16 -1 0 -7.9375 -2.819966482547897455e-15 0 1 I I #
loop $-1 $-1 $379 $359 #
face $-1 $225 $324 $2 $-1 $380 forward single #
straight-curve $-1 330.1999999999999886 28.57499999999999929 152.3999999999999773 0 0 -25.39999999999999858 I I #
loop $-1 $-1 $381 $333 #
cone-surface $-1 314.3249999999999886 30.00374999999999659 138.1124999999999829 0 -1 0 -5.159374999999999822 0 0 1 I I 0 1 5.159374999999999822 forward I I I I #
coedge $-1 $382 $374 $383 $384 forward $334 $-1 #
coedge $-1 $336 $336 $339 $368 forward $298 $-1 #
coedge $-1 $340 $338 $336 $366 forward $300 $-1 #
edge $-1 $385 0 $369 3.141592653589793116 $365 $386 forward 7 unknown #
edge $-1 $353 0 $385 0.7450000000000001066 $338 $387 forward 7 unknown #
edge $-1 $385 0 $369 3.141592653589793116 $364 $388 forward 7 unknown #
vertex $-1 $341 $389 #
straight-curve $-1 319.484375 28.57499999999999929 -138.1124999999999829 0 -25.39999999999999858 0 I I #
ellipse-curve $-1 -314.3249999999999886 9.651999999999999247 138.1124999999999829 0 -1 0 -5.159374999999999822 0 0 1 I I #
point $-1 -319.484375 9.651999999999999247 138.1124999999999829 #
coedge $-1 $348 $348 $390 $391 forward $313 $-1 #
coedge $-1 $363 $392 $348 $375 reversed $334 $-1 #
edge $-1 $393 0 $394 3.141592653589793116 $348 $395 forward 7 unknown #
ellipse-curve $-1 314.3249999999999886 28.57499999999999929 -138.1124999999999829 0 -1 0 -5.159374999999999822 0 0 1 I I #
point $-1 319.484375 28.57499999999999929 -138.1124999999999829 #
point $-1 309.1656249999999773 28.57499999999999929 -138.1124999999999829 #
coedge $-1 $396 $396 $397 $398 reversed $358 $-1 #
plane-surface $-1 314.3249999999999886 9.651999999999999247 138.1124999999999829 0 -1 0 -25.39999999999999858 0 0 forward_v I I I I #
coedge $-1 $397 $390 $392 $399 forward $361 $-1 #
coedge $-1 $392 $363 $396 $400 reversed $334 $-1 #
coedge $-1 $390 $397 $363 $384 reversed $361 $-1 #
edge $-1 $393 0 $401 0.7450000000000001066 $383 $402 forward 7 unknown #
vertex $-1 $366 $403 #
ellipse-curve $-1 314.3249999999999886 9.651999999999999247 -138.1124999999999829 0 -1 0 -5.159374999999999822 0 0 1 I I #
straight-curve $-1 309.1656249999999773 28.57499999999999929 -138.1124999999999829 0 -25.39999999999999858 0 I I #
ellipse-curve $-1 314.3249999999999886 9.651999999999999247 -138.1124999999999829 0 1 0 -5.159374999999999822 0 0 1 I I #
point $-1 319.484375 9.651999999999999247 -138.1124999999999829 #
coedge $-1 $381 $383 $373 $391 reversed $361 $-1 #
edge $-1 $394 0 $393 3.141592653589793116 $373 $404 forward 7 unknown #
coedge $-1 $374 $382 $381 $399 reversed $334 $-1 #
vertex $-1 $391 $405 #
vertex $-1 $391 $406 #
ellipse-curve $-1 314.3249999999999886 28.57499999999999929 138.1124999999999829 0 -1 0 5.159374999999999822 0 0 1 I I #
coedge $-1 $379 $379 $382 $400 forward $358 $-1 #
coedge $-1 $383 $381 $379 $398 forward $361 $-1 #
edge $-1 $407 0 $401 3.141592653589793116 $397 $408 forward 7 unknown #
edge $-1 $394 0 $407 0.7450000000000001066 $381 $409 forward 7 unknown #
edge $-1 $407 0 $401 3.141592653589793116 $396 $410 forward 7 unknown #
vertex $-1 $384 $411 #
straight-curve $-1 319.484375 28.57499999999999929 138.1124999999999829 0 -25.39999999999999858 0 I I #
point $-1 309.1656249999999773 9.651999999999999247 -138.1124999999999829 #
ellipse-curve $-1 314.3249999999999886 28.57499999999999929 138.1124999999999829 0 -1 0 -5.159374999999999822 0 0 1 I I #
point $-1 319.484375 28.57499999999999929 138.1124999999999829 #
point $-1 309.1656249999999773 28.57499999999999929 138.1124999999999829 #
vertex $-1 $398 $412 #
ellipse-curve $-1 314.3249999999999886 9.651999999999999247 138.1124999999999829 0 -1 0 -5.159374999999999822 0 0 1 I I #
straight-curve $-1 309.1656249999999773 28.57499999999999929 138.1124999999999829 0 -25.39999999999999858 0 I I #
ellipse-curve $-1 314.3249999999999886 9.651999999999999247 138.1124999999999829 0 1 0 -5.159374999999999822 0 0 1 I I #
point $-1 319.484375 9.651999999999999247 138.1124999999999829 #
point $-1 309.1656249999999773 9.651999999999999247 138.1124999999999829 #
End-of-ACIS-data 