600 0 1 0           
92 GICL Pro/E ACIS Translator - Source: f:/data5/repository/PTC/V18/mold18/1626ej_bar.prt - 6 0 13 ACIS 6.0.3 NT 24 Thu Apr 04 09:58:18 2002 
1 9.9999999999999995e-007 1e-010 
body $-1 $1 $-1 $2 #
lump $-1 $-1 $3 $0 #
transform $-1 1 0 0 0 1 0 0 0 1 0 0 0 25.399999999999999 no_rotate no_reflect no_shear #
shell $-1 $-1 $-1 $4 $-1 $1 #
face $-1 $5 $6 $3 $-1 $7 reversed single #
face $-1 $8 $9 $3 $-1 $10 reversed single #
loop $-1 $11 $12 $4 #
plane-surface $-1 0 0 0 0 1 0 -1 0 0 forward_v I I I I #
face $-1 $13 $14 $3 $-1 $15 reversed single #
loop $-1 $-1 $16 $5 #
cone-surface $-1 -12.375 1.1812499999999999 -5.4375 0 -1 0 -0.3125 0 0 1 I I 0 1 0.3125 forward I I I I #
loop $-1 $17 $18 $4 #
coedge $-1 $19 $19 $20 $21 reversed $6 $-1 #
face $-1 $22 $23 $3 $-1 $24 forward single #
loop $-1 $-1 $25 $8 #
cone-surface $-1 -12.375 1.1812499999999999 -5.4375 0 -1 0 -0.3125 0 0 1 I I 0 1 0.3125 forward I I I I #
coedge $-1 $26 $20 $27 $28 reversed $9 $-1 #
loop $-1 $29 $30 $4 #
coedge $-1 $31 $31 $32 $33 reversed $11 $-1 #
coedge $-1 $12 $12 $34 $35 reversed $6 $-1 #
coedge $-1 $16 $36 $12 $21 forward $9 $-1 #
edge $-1 $37 0 $38 3.1415926535897931 $12 $39 forward 7 unknown #
face $-1 $40 $41 $3 $-1 $42 reversed single #
loop $-1 $43 $44 $13 #
plane-surface $-1 -12.375 0.38 -5.4375 0 -1 0 -1 0 0 forward_v I I I I #
coedge $-1 $45 $34 $36 $46 reversed $14 $-1 #
coedge $-1 $36 $16 $44 $47 forward $9 $-1 #
coedge $-1 $34 $45 $16 $28 forward $14 $-1 #
edge $-1 $48 0 $38 0.37999999999999989 $27 $49 forward 7 unknown #
loop $-1 $50 $51 $4 #
coedge $-1 $52 $52 $53 $54 reversed $17 $-1 #
coedge $-1 $18 $18 $55 $56 reversed $11 $-1 #
coedge $-1 $57 $58 $18 $33 forward $59 $-1 #
edge $-1 $60 0 $61 3.1415926535897931 $18 $62 forward 7 unknown #
coedge $-1 $25 $27 $19 $35 forward $14 $-1 #
edge $-1 $38 0 $37 3.1415926535897931 $19 $63 forward 7 unknown #
coedge $-1 $20 $26 $25 $46 forward $9 $-1 #
vertex $-1 $35 $64 #
vertex $-1 $35 $65 #
ellipse-curve $-1 -12.375 0 -5.4375 0 -1 0 0.3125 0 0 1 I I #
face $-1 $66 $67 $3 $-1 $68 reversed single #
loop $-1 $-1 $69 $22 #
cone-surface $-1 -12.375 1.1812499999999999 -5.4375 0 -1 0 -0.203125 0 0 1 I I 0 1 0.203125 forward I I I I #
loop $-1 $-1 $70 $13 #
coedge $-1 $71 $71 $26 $47 reversed $23 $-1 #
coedge $-1 $27 $25 $71 $72 reversed $14 $-1 #
edge $-1 $73 0 $37 0.37999999999999989 $25 $74 forward 7 unknown #
edge $-1 $48 0 $73 3.1415926535897931 $44 $75 forward 7 unknown #
vertex $-1 $72 $76 #
straight-curve $-1 -12.6875 0.37999999999999989 -5.4375 0 -1 0 I I #
loop $-1 $-1 $77 $4 #
coedge $-1 $78 $79 $80 $81 reversed $29 $-1 #
coedge $-1 $30 $30 $82 $83 reversed $17 $-1 #
coedge $-1 $84 $85 $30 $54 forward $86 $-1 #
edge $-1 $87 0 $88 3.1415926535897931 $30 $89 forward 7 unknown #
coedge $-1 $90 $91 $31 $56 forward $92 $-1 #
edge $-1 $61 0 $60 3.1415926535897931 $31 $93 forward 7 unknown #
coedge $-1 $94 $32 $91 $95 reversed $59 $-1 #
coedge $-1 $32 $94 $90 $96 forward $59 $-1 #
loop $-1 $-1 $57 $97 #
vertex $-1 $56 $98 #
vertex $-1 $56 $99 #
ellipse-curve $-1 -12.375 0 5.4375 0 -1 0 0.3125 0 0 1 I I #
ellipse-curve $-1 -12.375 0 -5.4375 0 -1 0 -0.3125 0 0 1 I I #
point $-1 -12.0625 0 -5.4375 #
point $-1 -12.6875 0 -5.4375 #
face $-1 $100 $101 $3 $-1 $102 forward single #
loop $-1 $-1 $103 $40 #
cone-surface $-1 -12.375 1.1812499999999999 -5.4375 0 -1 0 -0.203125 0 0 1 I I 0 1 0.203125 forward I I I I #
coedge $-1 $104 $105 $106 $107 forward $41 $-1 #
coedge $-1 $108 $108 $104 $109 reversed $43 $-1 #
coedge $-1 $44 $44 $45 $72 forward $23 $-1 #
edge $-1 $48 0 $73 3.1415926535897931 $71 $110 forward 7 unknown #
vertex $-1 $72 $111 #
straight-curve $-1 -12.0625 0.37999999999999989 -5.4375 0 -1 0 I I #
ellipse-curve $-1 -12.375 0.38 -5.4375 -3.5527136788005011e-016 1 0 -0.3125 -1.1102230246251565e-016 0 1 I I #
point $-1 -12.6875 0.37999999999999989 -5.4375 #
coedge $-1 $112 $112 $113 $114 reversed $50 $-1 #
coedge $-1 $115 $51 $116 $117 reversed $29 $-1 #
coedge $-1 $51 $115 $118 $119 reversed $29 $-1 #
coedge $-1 $120 $121 $51 $81 forward $122 $-1 #
edge $-1 $123 0 $124 12 $51 $125 forward 7 unknown #
coedge $-1 $126 $127 $52 $83 forward $128 $-1 #
edge $-1 $88 0 $87 3.1415926535897931 $52 $129 forward 7 unknown #
coedge $-1 $130 $53 $127 $131 reversed $86 $-1 #
coedge $-1 $53 $130 $126 $132 forward $86 $-1 #
loop $-1 $-1 $84 $133 #
vertex $-1 $83 $134 #
vertex $-1 $83 $135 #
ellipse-curve $-1 12.375 0 -5.4375 0 -1 0 0.3125 0 0 1 I I #
coedge $-1 $136 $55 $58 $96 reversed $92 $-1 #
coedge $-1 $55 $136 $57 $95 forward $92 $-1 #
loop $-1 $-1 $90 $137 #
ellipse-curve $-1 -12.375 0 5.4375 0 -1 0 -0.3125 0 0 1 I I #
coedge $-1 $58 $57 $138 $139 forward $59 $-1 #
edge $-1 $140 0 $61 0.37999999999999989 $91 $141 forward 7 unknown #
edge $-1 $142 0 $60 0.37999999999999989 $90 $143 forward 7 unknown #
face $-1 $137 $59 $3 $-1 $144 reversed single #
point $-1 -12.0625 0 5.4375 #
point $-1 -12.6875 0 5.4375 #
face $-1 $145 $146 $3 $-1 $147 reversed single #
loop $-1 $148 $149 $66 #
plane-surface $-1 0 1.125 0 0 1 0 -1 0 0 forward_v I I I I #
coedge $-1 $150 $151 $152 $153 forward $67 $-1 #
coedge $-1 $152 $69 $70 $109 forward $41 $-1 #
coedge $-1 $69 $152 $154 $155 reversed $41 $-1 #
coedge $-1 $151 $150 $69 $107 reversed $67 $-1 #
edge $-1 $156 0 $157 0.745 $69 $158 forward 7 unknown #
coedge $-1 $70 $70 $150 $159 forward $43 $-1 #
edge $-1 $157 0 $160 3.1415926535897931 $104 $161 forward 7 unknown #
ellipse-curve $-1 -12.375 0.38 -5.4375 3.5527136788005011e-016 -1 0 -0.3125 -1.1102230246251565e-016 0 1 I I #
point $-1 -12.0625 0.37999999999999989 -5.4375 #
coedge $-1 $77 $77 $162 $163 reversed $50 $-1 #
coedge $-1 $164 $165 $77 $114 forward $166 $-1 #
edge $-1 $167 0 $168 3.1415926535897931 $77 $169 forward 7 unknown #
coedge $-1 $79 $78 $170 $171 reversed $29 $-1 #
coedge $-1 $172 $173 $78 $117 forward $174 $-1 #
edge $-1 $175 0 $123 26 $78 $176 forward 7 unknown #
coedge $-1 $177 $178 $79 $119 forward $179 $-1 #
edge $-1 $124 0 $180 26 $79 $181 forward 7 unknown #
coedge $-1 $182 $80 $178 $183 forward $122 $-1 #
coedge $-1 $80 $182 $172 $184 reversed $122 $-1 #
loop $-1 $-1 $120 $185 #
vertex $-1 $117 $186 #
vertex $-1 $119 $187 #
straight-curve $-1 -13 0 -6 0 0 1 I I #
coedge $-1 $188 $82 $85 $132 reversed $128 $-1 #
coedge $-1 $82 $188 $84 $131 forward $128 $-1 #
loop $-1 $-1 $126 $189 #
ellipse-curve $-1 12.375 0 -5.4375 0 -1 0 -0.3125 0 0 1 I I #
coedge $-1 $85 $84 $190 $191 forward $86 $-1 #
edge $-1 $192 0 $88 0.37999999999999989 $127 $193 forward 7 unknown #
edge $-1 $194 0 $87 0.37999999999999989 $126 $195 forward 7 unknown #
face $-1 $189 $86 $3 $-1 $196 reversed single #
point $-1 12.6875 0 -5.4375 #
point $-1 12.0625 0 -5.4375 #
coedge $-1 $91 $90 $197 $198 reversed $92 $-1 #
face $-1 $199 $92 $3 $-1 $200 reversed single #
coedge $-1 $197 $197 $94 $139 reversed $201 $-1 #
edge $-1 $140 0 $142 3.1415926535897931 $138 $202 forward 7 unknown #
vertex $-1 $198 $203 #
straight-curve $-1 -12.6875 0.37999999999999989 5.4375 0 -1 0 I I #
vertex $-1 $198 $204 #
straight-curve $-1 -12.0625 0.37999999999999989 5.4375 0 -1 0 I I #
cone-surface $-1 -12.375 1.1812499999999999 5.4375 0 -1 0 -0.3125 0 0 1 I I 0 1 0.3125 forward I I I I #
face $-1 $205 $206 $3 $-1 $207 reversed single #
loop $-1 $-1 $208 $100 #
cone-surface $-1 -12.375 1.1812499999999999 5.4375 0 -1 0 -0.203125 0 0 1 I I 0 1 0.203125 forward I I I I #
loop $-1 $209 $210 $66 #
coedge $-1 $154 $154 $151 $211 forward $101 $-1 #
coedge $-1 $106 $103 $108 $159 reversed $67 $-1 #
coedge $-1 $103 $106 $149 $211 reversed $67 $-1 #
coedge $-1 $105 $104 $103 $153 reversed $41 $-1 #
edge $-1 $212 0 $160 0.745 $152 $213 forward 7 unknown #
coedge $-1 $149 $149 $105 $155 forward $101 $-1 #
edge $-1 $156 0 $212 3.1415926535897931 $154 $214 forward 7 unknown #
vertex $-1 $155 $215 #
vertex $-1 $109 $216 #
straight-curve $-1 -12.578125 1.125 -5.4375 0 -1 0 I I #
edge $-1 $157 0 $160 3.1415926535897931 $108 $217 forward 7 unknown #
vertex $-1 $153 $218 #
ellipse-curve $-1 -12.375 0.38 -5.4375 0 -1 0 -0.203125 0 0 1 I I #
coedge $-1 $219 $220 $112 $163 forward $221 $-1 #
edge $-1 $168 0 $167 3.1415926535897931 $112 $222 forward 7 unknown #
coedge $-1 $223 $113 $220 $224 reversed $166 $-1 #
coedge $-1 $113 $223 $219 $225 forward $166 $-1 #
loop $-1 $-1 $164 $226 #
vertex $-1 $163 $227 #
vertex $-1 $163 $228 #
ellipse-curve $-1 12.375 0 5.4375 0 -1 0 0.3125 0 0 1 I I #
coedge $-1 $229 $230 $115 $171 forward $231 $-1 #
edge $-1 $180 0 $175 12 $115 $232 forward 7 unknown #
coedge $-1 $233 $116 $121 $184 forward $174 $-1 #
coedge $-1 $116 $233 $229 $234 reversed $174 $-1 #
loop $-1 $-1 $172 $235 #
vertex $-1 $171 $236 #
straight-curve $-1 13 0 -6 -1 0 0 I I #
coedge $-1 $237 $118 $230 $238 forward $179 $-1 #
coedge $-1 $118 $237 $120 $183 reversed $179 $-1 #
loop $-1 $-1 $177 $239 #
vertex $-1 $119 $240 #
straight-curve $-1 -13 0 6 1 0 0 I I #
coedge $-1 $121 $120 $241 $242 reversed $122 $-1 #
edge $-1 $124 0 $243 1.125 $178 $244 forward 7 unknown #
edge $-1 $123 0 $245 1.125 $172 $246 forward 7 unknown #
face $-1 $239 $122 $3 $-1 $247 forward single #
point $-1 -13 0 -6 #
point $-1 -13 0 6 #
coedge $-1 $127 $126 $248 $249 reversed $128 $-1 #
face $-1 $250 $128 $3 $-1 $251 reversed single #
coedge $-1 $248 $248 $130 $191 reversed $252 $-1 #
edge $-1 $192 0 $194 3.1415926535897931 $190 $253 forward 7 unknown #
vertex $-1 $249 $254 #
straight-curve $-1 12.0625 0.37999999999999989 -5.4375 0 -1 0 I I #
vertex $-1 $249 $255 #
straight-curve $-1 12.6875 0.37999999999999989 -5.4375 0 -1 0 I I #
cone-surface $-1 12.375 1.1812499999999999 -5.4375 0 -1 0 -0.3125 0 0 1 I I 0 1 0.3125 forward I I I I #
coedge $-1 $138 $138 $136 $198 forward $201 $-1 #
edge $-1 $140 0 $142 3.1415926535897931 $197 $256 forward 7 unknown #
face $-1 $257 $258 $3 $-1 $259 reversed single #
cone-surface $-1 -12.375 1.1812499999999999 5.4375 0 -1 0 -0.3125 0 0 1 I I 0 1 0.3125 forward I I I I #
loop $-1 $260 $138 $205 #
ellipse-curve $-1 -12.375 0.38 5.4375 -3.5527136788005011e-016 1 0 -0.3125 -1.1102230246251565e-016 0 1 I I #
point $-1 -12.6875 0.37999999999999989 5.4375 #
point $-1 -12.0625 0.37999999999999989 5.4375 #
face $-1 $97 $201 $3 $-1 $261 forward single #
loop $-1 $-1 $262 $145 #
cone-surface $-1 -12.375 1.1812499999999999 5.4375 0 -1 0 -0.203125 0 0 1 I I 0 1 0.203125 forward I I I I #
coedge $-1 $263 $264 $265 $266 forward $146 $-1 #
loop $-1 $267 $268 $66 #
coedge $-1 $269 $269 $264 $270 forward $148 $-1 #
edge $-1 $212 0 $156 3.1415926535897931 $149 $271 forward 7 unknown #
vertex $-1 $155 $272 #
straight-curve $-1 -12.171875 1.125 -5.4375 0 -1 0 I I #
ellipse-curve $-1 -12.375 1.125 -5.4375 0 -1 0 -0.203125 0 0 1 I I #
point $-1 -12.578125 1.125 -5.4375 #
point $-1 -12.578125 0.38 -5.4375 #
ellipse-curve $-1 -12.375 0.38 -5.4375 0 1 0 -0.203125 0 0 1 I I #
point $-1 -12.171875 0.38 -5.4375 #
coedge $-1 $273 $162 $165 $225 reversed $221 $-1 #
coedge $-1 $162 $273 $164 $224 forward $221 $-1 #
loop $-1 $-1 $219 $274 #
ellipse-curve $-1 12.375 0 5.4375 0 -1 0 -0.3125 0 0 1 I I #
coedge $-1 $165 $164 $275 $276 forward $166 $-1 #
edge $-1 $277 0 $168 0.37999999999999989 $220 $278 forward 7 unknown #
edge $-1 $279 0 $167 0.37999999999999989 $219 $280 forward 7 unknown #
face $-1 $274 $166 $3 $-1 $281 reversed single #
point $-1 12.6875 0 5.4375 #
point $-1 12.0625 0 5.4375 #
coedge $-1 $282 $170 $173 $234 forward $231 $-1 #
coedge $-1 $170 $282 $177 $238 reversed $231 $-1 #
loop $-1 $-1 $229 $250 #
straight-curve $-1 13 0 6 0 0 -1 I I #
coedge $-1 $173 $172 $283 $284 reversed $174 $-1 #
edge $-1 $175 0 $285 1.125 $229 $286 forward 7 unknown #
face $-1 $185 $174 $3 $-1 $287 forward single #
point $-1 13 0 -6 #
coedge $-1 $178 $177 $288 $289 reversed $179 $-1 #
edge $-1 $180 0 $290 1.125 $177 $291 forward 7 unknown #
face $-1 $292 $179 $3 $-1 $293 forward single #
point $-1 13 0 6 #
coedge $-1 $288 $283 $182 $242 forward $267 $-1 #
edge $-1 $245 0 $243 12 $241 $294 forward 7 unknown #
vertex $-1 $289 $295 #
straight-curve $-1 -13 0 6 0 1 0 I I #
vertex $-1 $242 $296 #
straight-curve $-1 -13 0 -6 0 1 0 I I #
plane-surface $-1 -13 0 -6 -1 0 0 0 0 1 forward_v I I I I #
coedge $-1 $190 $190 $188 $249 forward $252 $-1 #
edge $-1 $192 0 $194 3.1415926535897931 $248 $297 forward 7 unknown #
face $-1 $235 $231 $3 $-1 $298 forward single #
cone-surface $-1 12.375 1.1812499999999999 -5.4375 0 -1 0 -0.3125 0 0 1 I I 0 1 0.3125 forward I I I I #
loop $-1 $299 $190 $300 #
ellipse-curve $-1 12.375 0.38 -5.4375 -3.5527136788005011e-016 1 0 -0.3125 -1.1102230246251565e-016 0 1 I I #
point $-1 12.0625 0.37999999999999989 -5.4375 #
point $-1 12.6875 0.37999999999999989 -5.4375 #
ellipse-curve $-1 -12.375 0.38 5.4375 3.5527136788005011e-016 -1 0 -0.3125 -1.1102230246251565e-016 0 1 I I #
face $-1 $300 $301 $3 $-1 $302 reversed single #
loop $-1 $-1 $303 $199 #
cone-surface $-1 12.375 1.1812499999999999 -5.4375 0 -1 0 -0.203125 0 0 1 I I 0 1 0.203125 forward I I I I #
loop $-1 $-1 $304 $205 #
plane-surface $-1 -12.375 0.38 5.4375 0 -1 0 -1 0 0 forward_v I I I I #
coedge $-1 $305 $306 $307 $308 forward $206 $-1 #
coedge $-1 $307 $208 $309 $310 reversed $146 $-1 #
coedge $-1 $208 $307 $210 $270 reversed $146 $-1 #
coedge $-1 $306 $305 $208 $266 reversed $206 $-1 #
edge $-1 $311 0 $312 0.745 $265 $313 forward 7 unknown #
loop $-1 $314 $315 $66 #
coedge $-1 $316 $316 $317 $318 forward $209 $-1 #
coedge $-1 $210 $210 $306 $319 forward $148 $-1 #
edge $-1 $311 0 $320 3.1415926535897931 $210 $321 forward 7 unknown #
ellipse-curve $-1 -12.375 1.125 -5.4375 0 -1 0 0.203125 0 0 1 I I #
point $-1 -12.171875 1.125 -5.4375 #
coedge $-1 $220 $219 $322 $323 reversed $221 $-1 #
face $-1 $-1 $221 $3 $-1 $324 reversed single #
coedge $-1 $322 $322 $223 $276 reversed $325 $-1 #
edge $-1 $277 0 $279 3.1415926535897931 $275 $326 forward 7 unknown #
vertex $-1 $323 $327 #
straight-curve $-1 12.0625 0.37999999999999989 5.4375 0 -1 0 I I #
vertex $-1 $323 $328 #
straight-curve $-1 12.6875 0.37999999999999989 5.4375 0 -1 0 I I #
cone-surface $-1 12.375 1.1812499999999999 5.4375 0 -1 0 -0.3125 0 0 1 I I 0 1 0.3125 forward I I I I #
coedge $-1 $230 $229 $315 $329 reversed $231 $-1 #
coedge $-1 $241 $315 $233 $284 forward $267 $-1 #
edge $-1 $285 0 $245 26 $283 $330 forward 7 unknown #
vertex $-1 $284 $331 #
straight-curve $-1 13 0 -6 0 1 0 I I #
plane-surface $-1 13 0 -6 0 0 -1 -1 0 0 forward_v I I I I #
coedge $-1 $315 $241 $237 $289 forward $267 $-1 #
edge $-1 $243 0 $290 26 $288 $332 forward 7 unknown #
vertex $-1 $289 $333 #
straight-curve $-1 13 0 6 0 1 0 I I #
face $-1 $334 $335 $3 $-1 $336 reversed single #
plane-surface $-1 -13 0 6 0 0 1 1 0 0 forward_v I I I I #
straight-curve $-1 -13 1.125 -6 0 0 1 I I #
point $-1 -13 1.125 6 #
point $-1 -13 1.125 -6 #
ellipse-curve $-1 12.375 0.38 -5.4375 3.5527136788005011e-016 -1 0 -0.3125 -1.1102230246251565e-016 0 1 I I #
plane-surface $-1 13 0 6 1 0 0 0 0 -1 forward_v I I I I #
loop $-1 $-1 $337 $300 #
face $-1 $133 $252 $3 $-1 $338 forward single #
loop $-1 $-1 $339 $257 #
cone-surface $-1 12.375 1.1812499999999999 -5.4375 0 -1 0 -0.203125 0 0 1 I I 0 1 0.203125 forward I I I I #
coedge $-1 $340 $317 $341 $342 forward $258 $-1 #
coedge $-1 $309 $309 $305 $343 reversed $260 $-1 #
coedge $-1 $265 $262 $304 $343 forward $206 $-1 #
coedge $-1 $262 $265 $269 $319 reversed $206 $-1 #
coedge $-1 $264 $263 $262 $308 reversed $146 $-1 #
edge $-1 $320 0 $344 0.745 $262 $345 forward 7 unknown #
coedge $-1 $304 $304 $263 $310 forward $260 $-1 #
edge $-1 $344 0 $312 3.1415926535897931 $309 $346 forward 7 unknown #
vertex $-1 $319 $347 #
vertex $-1 $266 $348 #
straight-curve $-1 -12.171875 1.125 5.4375 0 -1 0 I I #
loop $-1 $-1 $349 $66 #
coedge $-1 $283 $288 $282 $329 forward $267 $-1 #
coedge $-1 $268 $268 $350 $351 forward $209 $-1 #
coedge $-1 $303 $352 $268 $318 reversed $258 $-1 #
edge $-1 $353 0 $354 3.1415926535897931 $268 $355 forward 7 unknown #
edge $-1 $320 0 $311 3.1415926535897931 $269 $356 forward 7 unknown #
vertex $-1 $319 $357 #
ellipse-curve $-1 -12.375 1.125 5.4375 0 -1 0 0.203125 0 0 1 I I #
coedge $-1 $275 $275 $273 $323 forward $325 $-1 #
edge $-1 $277 0 $279 3.1415926535897931 $322 $358 forward 7 unknown #
cone-surface $-1 12.375 1.1812499999999999 5.4375 0 -1 0 -0.3125 0 0 1 I I 0 1 0.3125 forward I I I I #
loop $-1 $359 $275 $360 #
ellipse-curve $-1 12.375 0.38 5.4375 -3.5527136788005011e-016 1 0 -0.3125 -1.1102230246251565e-016 0 1 I I #
point $-1 12.0625 0.37999999999999989 5.4375 #
point $-1 12.6875 0.37999999999999989 5.4375 #
edge $-1 $290 0 $285 12 $315 $361 forward 7 unknown #
straight-curve $-1 13 1.125 -6 -1 0 0 I I #
point $-1 13 1.125 -6 #
straight-curve $-1 -13 1.125 6 1 0 0 I I #
point $-1 13 1.125 6 #
face $-1 $360 $362 $3 $-1 $363 reversed single #
loop $-1 $-1 $364 $292 #
cone-surface $-1 12.375 1.1812499999999999 5.4375 0 -1 0 -0.203125 0 0 1 I I 0 1 0.203125 forward I I I I #
coedge $-1 $365 $365 $366 $367 reversed $299 $-1 #
plane-surface $-1 12.375 0.38 -5.4375 0 -1 0 -1 0 0 forward_v I I I I #
coedge $-1 $366 $350 $352 $368 forward $301 $-1 #
coedge $-1 $352 $303 $365 $369 reversed $258 $-1 #
coedge $-1 $350 $366 $303 $342 reversed $301 $-1 #
edge $-1 $353 0 $370 0.745 $341 $371 forward 7 unknown #
edge $-1 $344 0 $312 3.1415926535897931 $305 $372 forward 7 unknown #
vertex $-1 $343 $373 #
straight-curve $-1 -12.578125 1.125 5.4375 0 -1 0 I I #
ellipse-curve $-1 -12.375 0.38 5.4375 0 1 0 -0.203125 0 0 1 I I #
point $-1 -12.171875 1.125 5.4375 #
point $-1 -12.171875 0.38 5.4375 #
coedge $-1 $374 $374 $375 $376 forward $314 $-1 #
coedge $-1 $339 $341 $316 $351 reversed $301 $-1 #
edge $-1 $354 0 $353 3.1415926535897931 $316 $377 forward 7 unknown #
coedge $-1 $317 $340 $339 $368 reversed $258 $-1 #
vertex $-1 $351 $378 #
vertex $-1 $351 $379 #
ellipse-curve $-1 12.375 1.125 -5.4375 0 -1 0 0.203125 0 0 1 I I #
ellipse-curve $-1 -12.375 1.125 5.4375 0 -1 0 -0.203125 0 0 1 I I #
point $-1 -12.578125 1.125 5.4375 #
ellipse-curve $-1 12.375 0.38 5.4375 3.5527136788005011e-016 -1 0 -0.3125 -1.1102230246251565e-016 0 1 I I #
loop $-1 $-1 $380 $360 #
face $-1 $226 $325 $3 $-1 $381 forward single #
straight-curve $-1 13 1.125 6 0 0 -1 I I #
loop $-1 $-1 $382 $334 #
cone-surface $-1 12.375 1.1812499999999999 5.4375 0 -1 0 -0.203125 0 0 1 I I 0 1 0.203125 forward I I I I #
coedge $-1 $383 $375 $384 $385 forward $335 $-1 #
coedge $-1 $337 $337 $340 $369 forward $299 $-1 #
coedge $-1 $341 $339 $337 $367 forward $301 $-1 #
edge $-1 $386 0 $370 3.1415926535897931 $366 $387 forward 7 unknown #
edge $-1 $354 0 $386 0.745 $339 $388 forward 7 unknown #
edge $-1 $386 0 $370 3.1415926535897931 $365 $389 forward 7 unknown #
vertex $-1 $342 $390 #
straight-curve $-1 12.578125 1.125 -5.4375 0 -1 0 I I #
ellipse-curve $-1 -12.375 0.38 5.4375 0 -1 0 -0.203125 0 0 1 I I #
point $-1 -12.578125 0.38 5.4375 #
coedge $-1 $349 $349 $391 $392 forward $314 $-1 #
coedge $-1 $364 $393 $349 $376 reversed $335 $-1 #
edge $-1 $394 0 $395 3.1415926535897931 $349 $396 forward 7 unknown #
ellipse-curve $-1 12.375 1.125 -5.4375 0 -1 0 -0.203125 0 0 1 I I #
point $-1 12.578125 1.125 -5.4375 #
point $-1 12.171875 1.125 -5.4375 #
coedge $-1 $397 $397 $398 $399 reversed $359 $-1 #
plane-surface $-1 12.375 0.38 5.4375 0 -1 0 -1 0 0 forward_v I I I I #
coedge $-1 $398 $391 $393 $400 forward $362 $-1 #
coedge $-1 $393 $364 $397 $401 reversed $335 $-1 #
coedge $-1 $391 $398 $364 $385 reversed $362 $-1 #
edge $-1 $394 0 $402 0.745 $384 $403 forward 7 unknown #
vertex $-1 $367 $404 #
ellipse-curve $-1 12.375 0.38 -5.4375 0 -1 0 -0.203125 0 0 1 I I #
straight-curve $-1 12.171875 1.125 -5.4375 0 -1 0 I I #
ellipse-curve $-1 12.375 0.38 -5.4375 0 1 0 -0.203125 0 0 1 I I #
point $-1 12.578125 0.38 -5.4375 #
coedge $-1 $382 $384 $374 $392 reversed $362 $-1 #
edge $-1 $395 0 $394 3.1415926535897931 $374 $405 forward 7 unknown #
coedge $-1 $375 $383 $382 $400 reversed $335 $-1 #
vertex $-1 $392 $406 #
vertex $-1 $392 $407 #
ellipse-curve $-1 12.375 1.125 5.4375 0 -1 0 0.203125 0 0 1 I I #
coedge $-1 $380 $380 $383 $401 forward $359 $-1 #
coedge $-1 $384 $382 $380 $399 forward $362 $-1 #
edge $-1 $408 0 $402 3.1415926535897931 $398 $409 forward 7 unknown #
edge $-1 $395 0 $408 0.745 $382 $410 forward 7 unknown #
edge $-1 $408 0 $402 3.1415926535897931 $397 $411 forward 7 unknown #
vertex $-1 $385 $412 #
straight-curve $-1 12.578125 1.125 5.4375 0 -1 0 I I #
point $-1 12.171875 0.38 -5.4375 #
ellipse-curve $-1 12.375 1.125 5.4375 0 -1 0 -0.203125 0 0 1 I I #
point $-1 12.578125 1.125 5.4375 #
point $-1 12.171875 1.125 5.4375 #
vertex $-1 $399 $413 #
ellipse-curve $-1 12.375 0.38 5.4375 0 -1 0 -0.203125 0 0 1 I I #
straight-curve $-1 12.171875 1.125 5.4375 0 -1 0 I I #
ellipse-curve $-1 12.375 0.38 5.4375 0 1 0 -0.203125 0 0 1 I I #
point $-1 12.578125 0.38 5.4375 #
point $-1 12.171875 0.38 5.4375 #
End-of-ACIS-data 