600 0 1 0           
84 GICL ACIS Healer - Source: /gicl/data5/repository/PTC/V18/mold18/1626ej_pl.sat - 6 0 18 ACIS 6.0.3 Solaris 24 Sat Apr 13 21:25:48 2002 
1 9.999999999999999547e-07 1.000000000000000036e-10 
body $-1 $1 $-1 $-1 #
lump $-1 $-1 $2 $0 #
shell $-1 $-1 $-1 $3 $-1 $1 #
face $-1 $4 $5 $2 $-1 $6 reversed single #
face $-1 $7 $8 $2 $-1 $9 reversed single #
loop $-1 $10 $11 $3 #
plane-surface $-1 0 0 0 0 1 0 -25.39999999999999858 0 0 forward_v I I I I #
face $-1 $12 $13 $2 $-1 $14 reversed single #
loop $-1 $-1 $15 $4 #
cone-surface $-1 311.1499999999999773 16.66874999999999929 -111.125 0 -1 0 -13.3349999999999973 0 0 1 I I 0 1 13.3349999999999973 forward I I I I #
loop $-1 $16 $17 $3 #
coedge $-1 $18 $18 $19 $20 reversed $5 $-1 #
face $-1 $21 $22 $2 $-1 $23 forward single #
loop $-1 $-1 $24 $7 #
cone-surface $-1 311.1499999999999773 16.66874999999999929 -111.125 0 -1 0 -13.3349999999999973 0 0 1 I I 0 1 13.3349999999999973 forward I I I I #
coedge $-1 $25 $19 $26 $27 reversed $8 $-1 #
loop $-1 $28 $29 $3 #
coedge $-1 $30 $30 $31 $32 reversed $10 $-1 #
coedge $-1 $11 $11 $33 $34 reversed $5 $-1 #
coedge $-1 $15 $35 $11 $20 forward $8 $-1 #
edge $-1 $36 -6.260875249479725872e-16 $37 3.141592653589790451 $11 $38 forward 7 unknown #
face $-1 $39 $40 $2 $-1 $41 reversed single #
loop $-1 $42 $43 $12 #
plane-surface $-1 311.1499999999999773 6.476999999999999424 -111.125 0 -1 0 -25.39999999999999858 0 0 forward_v I I I I #
coedge $-1 $44 $33 $35 $45 reversed $13 $-1 #
coedge $-1 $35 $15 $43 $46 forward $8 $-1 #
coedge $-1 $33 $44 $15 $27 forward $13 $-1 #
edge $-1 $47 0 $37 0.2550000000000000044 $26 $48 forward 7 unknown #
loop $-1 $49 $50 $3 #
coedge $-1 $51 $51 $52 $53 reversed $16 $-1 #
coedge $-1 $17 $17 $54 $55 reversed $10 $-1 #
coedge $-1 $56 $57 $17 $32 forward $58 $-1 #
edge $-1 $59 0 $60 3.141592653589793116 $17 $61 forward 7 unknown #
coedge $-1 $24 $26 $18 $34 forward $13 $-1 #
edge $-1 $37 0 $36 3.141592653589793116 $18 $62 forward 7 unknown #
coedge $-1 $19 $25 $24 $45 forward $8 $-1 #
vertex $-1 $34 $63 #
vertex $-1 $34 $64 #
ellipse-curve $-1 311.1499999999999773 0 -111.1250000000000142 0 -1 0 13.33499999999996355 0 2.255973186038317964e-14 1 I I #
face $-1 $65 $66 $2 $-1 $67 reversed single #
loop $-1 $-1 $68 $21 #
cone-surface $-1 311.1499999999999773 16.66874999999999929 -111.125 0 -1 0 -9.588499999999999801 0 0 1 I I 0 1 9.588499999999999801 forward I I I I #
loop $-1 $-1 $69 $12 #
coedge $-1 $70 $70 $25 $46 reversed $22 $-1 #
coedge $-1 $26 $24 $70 $71 reversed $13 $-1 #
edge $-1 $72 0 $36 0.2550000000000000044 $24 $73 forward 7 unknown #
edge $-1 $47 -4.395933685804939516e-16 $72 3.141592653589796669 $43 $74 forward 7 unknown #
vertex $-1 $71 $75 #
straight-curve $-1 297.8149999999999977 6.476999999999999424 -111.125 0 -25.39999999999999858 0 I I #
loop $-1 $76 $77 $3 #
coedge $-1 $78 $78 $79 $80 reversed $28 $-1 #
coedge $-1 $29 $29 $81 $82 reversed $16 $-1 #
coedge $-1 $83 $84 $29 $53 forward $85 $-1 #
edge $-1 $86 0 $87 3.141592653589793116 $29 $88 forward 7 unknown #
coedge $-1 $89 $90 $30 $55 forward $91 $-1 #
edge $-1 $60 0 $59 3.141592653589793116 $30 $92 forward 7 unknown #
coedge $-1 $93 $31 $90 $94 reversed $58 $-1 #
coedge $-1 $31 $93 $89 $95 forward $58 $-1 #
loop $-1 $-1 $56 $96 #
vertex $-1 $55 $97 #
vertex $-1 $55 $98 #
ellipse-curve $-1 -314.3249999999999886 0 -138.1124999999999829 0 -1 0 -4.762499999999999289 0 0 1 I I #
ellipse-curve $-1 311.1499999999999204 0 -111.125 0 -1 0 -13.33499999999996355 0 0 1 I I #
point $-1 324.4849999999999568 0 -111.125 #
point $-1 297.8149999999999977 0 -111.125 #
face $-1 $96 $99 $2 $-1 $100 forward single #
loop $-1 $-1 $101 $39 #
cone-surface $-1 311.1499999999999773 16.66874999999999929 -111.125 0 -1 0 -9.588499999999999801 0 0 1 I I 0 1 9.588499999999999801 forward I I I I #
coedge $-1 $102 $103 $104 $105 forward $40 $-1 #
coedge $-1 $106 $106 $102 $107 reversed $42 $-1 #
coedge $-1 $43 $43 $44 $71 forward $22 $-1 #
edge $-1 $47 6.260875249479669665e-16 $72 3.141592653589795781 $70 $108 forward 7 unknown #
vertex $-1 $71 $109 #
straight-curve $-1 324.4850000000000136 6.476999999999999424 -111.125 0 -25.39999999999999858 0 I I #
ellipse-curve $-1 311.1499999999999773 6.476999999999999424 -111.1249999999999716 0 1 0 -13.33500000000000796 0 -2.255973186038317964e-14 1 I I #
point $-1 297.8149999999999977 6.476999999999999424 -111.125 #
loop $-1 $110 $111 $3 #
coedge $-1 $112 $113 $114 $115 reversed $49 $-1 #
coedge $-1 $50 $50 $116 $117 reversed $28 $-1 #
coedge $-1 $118 $119 $50 $80 forward $120 $-1 #
edge $-1 $121 0 $122 3.141592653589793116 $50 $123 forward 7 unknown #
coedge $-1 $124 $125 $51 $82 forward $126 $-1 #
edge $-1 $87 0 $86 3.141592653589793116 $51 $127 forward 7 unknown #
coedge $-1 $128 $52 $125 $129 reversed $85 $-1 #
coedge $-1 $52 $128 $124 $130 forward $85 $-1 #
loop $-1 $-1 $83 $131 #
vertex $-1 $82 $132 #
vertex $-1 $82 $133 #
ellipse-curve $-1 -314.3249999999999886 0 138.1124999999999829 0 -1 0 -4.762499999999999289 0 0 1 I I #
coedge $-1 $134 $54 $57 $95 reversed $91 $-1 #
coedge $-1 $54 $134 $56 $94 forward $91 $-1 #
loop $-1 $-1 $89 $135 #
ellipse-curve $-1 -314.3249999999999886 0 -138.1124999999999829 0 -1 0 4.762499999999999289 0 0 1 I I #
coedge $-1 $57 $56 $136 $137 reversed $58 $-1 #
edge $-1 $138 0 $60 0.625 $90 $139 forward 7 unknown #
edge $-1 $140 0 $59 0.625 $89 $141 forward 7 unknown #
face $-1 $135 $58 $2 $-1 $142 reversed single #
point $-1 -319.0874999999999773 0 -138.1124999999999829 #
point $-1 -309.5625 0 -138.1124999999999829 #
loop $-1 $143 $144 $65 #
plane-surface $-1 0 15.875 0 0 1 0 -25.39999999999999858 0 0 forward_v I I I I #
coedge $-1 $145 $146 $147 $148 forward $66 $-1 #
coedge $-1 $147 $68 $69 $107 forward $40 $-1 #
coedge $-1 $68 $147 $149 $150 reversed $40 $-1 #
coedge $-1 $146 $145 $68 $105 reversed $66 $-1 #
edge $-1 $151 0 $152 0.3699999999999999956 $68 $153 forward 7 unknown #
coedge $-1 $69 $69 $145 $154 forward $42 $-1 #
edge $-1 $152 1.130080483948618537e-15 $155 3.141592653589805995 $102 $156 forward 7 unknown #
ellipse-curve $-1 311.1499999999999773 6.476999999999999424 -111.1250000000000142 0 -1 0 -13.33500000000000796 0 2.255973186038317964e-14 1 I I #
point $-1 324.4850000000000136 6.476999999999999424 -111.125 #
loop $-1 $157 $158 $3 #
coedge $-1 $159 $159 $160 $161 reversed $76 $-1 #
coedge $-1 $162 $77 $163 $164 reversed $49 $-1 #
coedge $-1 $77 $162 $165 $166 reversed $49 $-1 #
coedge $-1 $167 $168 $77 $115 forward $169 $-1 #
edge $-1 $170 0 $171 26 $77 $172 forward 7 unknown #
coedge $-1 $173 $174 $78 $117 forward $175 $-1 #
edge $-1 $122 0 $121 3.141592653589793116 $78 $176 forward 7 unknown #
coedge $-1 $177 $79 $174 $178 reversed $120 $-1 #
coedge $-1 $79 $177 $173 $179 forward $120 $-1 #
loop $-1 $-1 $118 $180 #
vertex $-1 $117 $181 #
vertex $-1 $117 $182 #
ellipse-curve $-1 314.3249999999999886 0 -138.1124999999999829 0 -1 0 -4.762499999999999289 0 0 1 I I #
coedge $-1 $183 $81 $84 $130 reversed $126 $-1 #
coedge $-1 $81 $183 $83 $129 forward $126 $-1 #
loop $-1 $-1 $124 $184 #
ellipse-curve $-1 -314.3249999999999886 0 138.1124999999999829 0 -1 0 4.762499999999999289 0 0 1 I I #
coedge $-1 $84 $83 $185 $186 reversed $85 $-1 #
edge $-1 $187 0 $87 0.625 $125 $188 forward 7 unknown #
edge $-1 $189 0 $86 0.625 $124 $190 forward 7 unknown #
face $-1 $184 $85 $2 $-1 $191 reversed single #
point $-1 -319.0874999999999773 0 138.1124999999999829 #
point $-1 -309.5625 0 138.1124999999999829 #
coedge $-1 $90 $89 $192 $193 reversed $91 $-1 #
face $-1 $131 $91 $2 $-1 $194 reversed single #
coedge $-1 $192 $192 $93 $137 forward $143 $-1 #
edge $-1 $140 0 $138 3.141592653589793116 $136 $195 forward 7 unknown #
vertex $-1 $193 $196 #
straight-curve $-1 -309.5625 15.875 -138.1124999999999829 0 -25.39999999999999858 0 I I #
vertex $-1 $193 $197 #
straight-curve $-1 -319.0874999999999773 15.875 -138.1124999999999829 0 -25.39999999999999858 0 I I #
cone-surface $-1 -314.3249999999999886 15.875 -138.1124999999999829 0 -1 0 4.762499999999999289 0 0 1 I I 0 1 4.762499999999999289 forward I I I I #
loop $-1 $198 $136 $65 #
coedge $-1 $149 $149 $146 $199 forward $99 $-1 #
coedge $-1 $104 $101 $106 $154 reversed $66 $-1 #
coedge $-1 $101 $104 $144 $199 reversed $66 $-1 #
coedge $-1 $103 $102 $101 $148 reversed $40 $-1 #
edge $-1 $200 0 $155 0.3699999999999999956 $147 $201 forward 7 unknown #
coedge $-1 $144 $144 $103 $150 forward $99 $-1 #
edge $-1 $151 0 $200 3.141592653589793116 $149 $202 forward 7 unknown #
vertex $-1 $150 $203 #
vertex $-1 $107 $204 #
straight-curve $-1 301.5615000000000236 15.875 -111.125 0 -25.39999999999999858 0 I I #
edge $-1 $152 -6.113550159066522831e-16 $155 3.141592653589798445 $106 $205 forward 7 unknown #
vertex $-1 $148 $206 #
ellipse-curve $-1 311.1499999999999773 6.476999999999999424 -111.1250000000000568 0 -1 0 -9.588499999999987367 0 6.767919558114953261e-14 1 I I #
loop $-1 $207 $208 $3 #
coedge $-1 $209 $209 $210 $211 reversed $110 $-1 #
coedge $-1 $111 $111 $212 $213 reversed $76 $-1 #
coedge $-1 $214 $215 $111 $161 forward $216 $-1 #
edge $-1 $217 0 $218 3.141592653589793116 $111 $219 forward 7 unknown #
coedge $-1 $113 $112 $220 $221 reversed $49 $-1 #
coedge $-1 $222 $223 $112 $164 forward $224 $-1 #
edge $-1 $225 0 $170 11.99999999999999822 $112 $226 forward 7 unknown #
coedge $-1 $227 $228 $113 $166 forward $229 $-1 #
edge $-1 $171 0 $230 11.99999999999999822 $113 $231 forward 7 unknown #
coedge $-1 $232 $114 $228 $233 forward $169 $-1 #
coedge $-1 $114 $232 $222 $234 reversed $169 $-1 #
loop $-1 $-1 $167 $235 #
vertex $-1 $164 $236 #
vertex $-1 $166 $237 #
straight-curve $-1 -330.1999999999999886 0 152.3999999999999773 25.39999999999999858 0 0 I I #
coedge $-1 $238 $116 $119 $179 reversed $175 $-1 #
coedge $-1 $116 $238 $118 $178 forward $175 $-1 #
loop $-1 $-1 $173 $239 #
ellipse-curve $-1 314.3249999999999886 0 -138.1124999999999829 0 -1 0 4.762499999999999289 0 0 1 I I #
coedge $-1 $119 $118 $240 $241 reversed $120 $-1 #
edge $-1 $242 0 $122 0.625 $174 $243 forward 7 unknown #
edge $-1 $244 0 $121 0.625 $173 $245 forward 7 unknown #
face $-1 $239 $120 $2 $-1 $246 reversed single #
point $-1 309.5625 0 -138.1124999999999829 #
point $-1 319.0874999999999773 0 -138.1124999999999829 #
coedge $-1 $125 $124 $247 $248 reversed $126 $-1 #
face $-1 $180 $126 $2 $-1 $249 reversed single #
coedge $-1 $247 $247 $128 $186 forward $198 $-1 #
edge $-1 $189 0 $187 3.141592653589793116 $185 $250 forward 7 unknown #
vertex $-1 $248 $251 #
straight-curve $-1 -309.5625 15.875 138.1124999999999829 0 -25.39999999999999858 0 I I #
vertex $-1 $248 $252 #
straight-curve $-1 -319.0874999999999773 15.875 138.1124999999999829 0 -25.39999999999999858 0 I I #
cone-surface $-1 -314.3249999999999886 15.875 138.1124999999999829 0 -1 0 4.762499999999999289 0 0 1 I I 0 1 4.762499999999999289 forward I I I I #
coedge $-1 $136 $136 $134 $193 forward $143 $-1 #
edge $-1 $138 0 $140 3.141592653589793116 $192 $253 forward 7 unknown #
cone-surface $-1 -314.3249999999999886 15.875 -138.1124999999999829 0 -1 0 4.762499999999999289 0 0 1 I I 0 1 4.762499999999999289 forward I I I I #
ellipse-curve $-1 -314.3249999999999886 15.875 -138.1124999999999829 0 -1 0 -4.762499999999999289 0 0 1 I I #
point $-1 -309.5625 15.875 -138.1124999999999829 #
point $-1 -319.0874999999999773 15.875 -138.1124999999999829 #
loop $-1 $254 $185 $65 #
edge $-1 $200 0 $151 3.141592653589793116 $144 $255 forward 7 unknown #
vertex $-1 $150 $256 #
straight-curve $-1 320.7384999999999877 15.875 -111.125 0 -25.39999999999999858 0 I I #
ellipse-curve $-1 311.1499999999999773 15.875 -111.125 0 -1 0 -9.588499999999987367 0 0 1 I I #
point $-1 301.5615000000000236 15.875 -111.125 #
point $-1 301.5615000000000236 6.476999999999999424 -111.125 #
ellipse-curve $-1 311.1499999999999773 6.476999999999999424 -111.1249999999999716 0 1 0 -9.588499999999987367 0 -2.255973186038317964e-14 1 I I #
point $-1 320.7384999999999877 6.476999999999999424 -111.125 #
loop $-1 $257 $258 $3 #
coedge $-1 $259 $259 $260 $261 reversed $157 $-1 #
coedge $-1 $158 $158 $262 $263 reversed $110 $-1 #
coedge $-1 $264 $265 $158 $211 forward $266 $-1 #
edge $-1 $267 0 $268 3.141592653589793116 $158 $269 forward 7 unknown #
coedge $-1 $270 $271 $159 $213 forward $272 $-1 #
edge $-1 $218 0 $217 3.141592653589793116 $159 $273 forward 7 unknown #
coedge $-1 $274 $160 $271 $275 reversed $216 $-1 #
coedge $-1 $160 $274 $270 $276 forward $216 $-1 #
loop $-1 $-1 $214 $277 #
vertex $-1 $213 $278 #
vertex $-1 $213 $279 #
ellipse-curve $-1 314.3249999999999886 0 138.1124999999999829 0 -1 0 -4.762499999999999289 0 0 1 I I #
coedge $-1 $280 $281 $162 $221 forward $282 $-1 #
edge $-1 $230 0 $225 26 $162 $283 forward 7 unknown #
coedge $-1 $284 $163 $168 $234 forward $224 $-1 #
coedge $-1 $163 $284 $280 $285 reversed $224 $-1 #
loop $-1 $-1 $222 $286 #
vertex $-1 $221 $287 #
straight-curve $-1 -330.1999999999999886 0 -152.3999999999999773 0 0 25.39999999999999858 I I #
coedge $-1 $288 $165 $281 $289 forward $229 $-1 #
coedge $-1 $165 $288 $167 $233 reversed $229 $-1 #
loop $-1 $-1 $227 $290 #
vertex $-1 $166 $291 #
straight-curve $-1 330.1999999999999886 0 152.3999999999999773 0 0 -25.39999999999999858 I I #
coedge $-1 $168 $167 $292 $293 reversed $169 $-1 #
edge $-1 $171 0 $294 0.625 $228 $295 forward 7 unknown #
edge $-1 $170 0 $296 0.625 $222 $297 forward 7 unknown #
face $-1 $290 $169 $2 $-1 $298 forward single #
point $-1 -330.1999999999999886 0 152.3999999999999773 #
point $-1 330.1999999999999886 0 152.3999999999999773 #
coedge $-1 $174 $173 $299 $300 reversed $175 $-1 #
face $-1 $301 $175 $2 $-1 $302 reversed single #
coedge $-1 $299 $299 $177 $241 forward $254 $-1 #
edge $-1 $244 0 $242 3.141592653589793116 $240 $303 forward 7 unknown #
vertex $-1 $300 $304 #
straight-curve $-1 319.0874999999999773 15.875 -138.1124999999999829 0 -25.39999999999999858 0 I I #
vertex $-1 $300 $305 #
straight-curve $-1 309.5625 15.875 -138.1124999999999829 0 -25.39999999999999858 0 I I #
cone-surface $-1 314.3249999999999886 15.875 -138.1124999999999829 0 -1 0 4.762499999999999289 0 0 1 I I 0 1 4.762499999999999289 forward I I I I #
coedge $-1 $185 $185 $183 $248 forward $198 $-1 #
edge $-1 $187 0 $189 3.141592653589793116 $247 $306 forward 7 unknown #
cone-surface $-1 -314.3249999999999886 15.875 138.1124999999999829 0 -1 0 4.762499999999999289 0 0 1 I I 0 1 4.762499999999999289 forward I I I I #
ellipse-curve $-1 -314.3249999999999886 15.875 138.1124999999999829 0 -1 0 -4.762499999999999289 0 0 1 I I #
point $-1 -309.5625 15.875 138.1124999999999829 #
point $-1 -319.0874999999999773 15.875 138.1124999999999829 #
ellipse-curve $-1 -314.3249999999999886 15.875 -138.1124999999999829 0 -1 0 4.762499999999999289 0 0 1 I I #
loop $-1 $307 $240 $65 #
ellipse-curve $-1 311.1499999999999773 15.875 -111.125 0 -1 0 9.588499999999987367 0 0 1 I I #
point $-1 320.7384999999999877 15.875 -111.125 #
loop $-1 $-1 $308 $3 #
coedge $-1 $309 $309 $310 $311 forward $207 $-1 #
coedge $-1 $208 $208 $312 $313 reversed $157 $-1 #
coedge $-1 $314 $315 $208 $261 forward $316 $-1 #
edge $-1 $317 4.39593368580488331e-16 $318 3.141592653589789563 $208 $319 forward 7 unknown #
coedge $-1 $320 $321 $209 $263 forward $322 $-1 #
edge $-1 $268 0 $267 3.141592653589793116 $209 $323 forward 7 unknown #
coedge $-1 $324 $210 $321 $325 reversed $266 $-1 #
coedge $-1 $210 $324 $320 $326 forward $266 $-1 #
loop $-1 $-1 $264 $327 #
vertex $-1 $263 $328 #
vertex $-1 $263 $329 #
ellipse-curve $-1 0 0 0 0 -1 0 8.000999999999999446 0 0 1 I I #
coedge $-1 $330 $212 $215 $276 reversed $272 $-1 #
coedge $-1 $212 $330 $214 $275 forward $272 $-1 #
loop $-1 $-1 $270 $331 #
ellipse-curve $-1 314.3249999999999886 0 138.1124999999999829 0 -1 0 4.762499999999999289 0 0 1 I I #
coedge $-1 $215 $214 $332 $333 reversed $216 $-1 #
edge $-1 $334 0 $218 0.625 $271 $335 forward 7 unknown #
edge $-1 $336 0 $217 0.625 $270 $337 forward 7 unknown #
face $-1 $331 $216 $2 $-1 $338 reversed single #
point $-1 309.5625 0 138.1124999999999829 #
point $-1 319.0874999999999773 0 138.1124999999999829 #
coedge $-1 $339 $220 $223 $285 forward $282 $-1 #
coedge $-1 $220 $339 $227 $289 reversed $282 $-1 #
loop $-1 $-1 $280 $301 #
straight-curve $-1 330.1999999999999886 0 -152.3999999999999773 -25.39999999999999858 0 0 I I #
coedge $-1 $223 $222 $340 $341 reversed $224 $-1 #
edge $-1 $225 0 $342 0.625 $280 $343 forward 7 unknown #
face $-1 $235 $224 $2 $-1 $344 forward single #
point $-1 -330.1999999999999886 0 -152.3999999999999773 #
coedge $-1 $228 $227 $345 $346 reversed $229 $-1 #
edge $-1 $230 0 $347 0.625 $227 $348 forward 7 unknown #
face $-1 $277 $229 $2 $-1 $349 forward single #
point $-1 330.1999999999999886 0 -152.3999999999999773 #
coedge $-1 $345 $340 $232 $293 forward $307 $-1 #
edge $-1 $296 0 $294 26 $292 $350 forward 7 unknown #
vertex $-1 $346 $351 #
straight-curve $-1 330.1999999999999886 0 152.3999999999999773 0 25.39999999999999858 0 I I #
vertex $-1 $293 $352 #
straight-curve $-1 -330.1999999999999886 0 152.3999999999999773 0 25.39999999999999858 0 I I #
plane-surface $-1 -330.1999999999999886 0 152.3999999999999773 0 0 1 25.39999999999999858 0 0 forward_v I I I I #
coedge $-1 $240 $240 $238 $300 forward $254 $-1 #
edge $-1 $242 0 $244 3.141592653589793116 $299 $353 forward 7 unknown #
face $-1 $286 $282 $2 $-1 $354 forward single #
cone-surface $-1 314.3249999999999886 15.875 -138.1124999999999829 0 -1 0 4.762499999999999289 0 0 1 I I 0 1 4.762499999999999289 forward I I I I #
ellipse-curve $-1 314.3249999999999886 15.875 -138.1124999999999829 0 -1 0 -4.762499999999999289 0 0 1 I I #
point $-1 319.0874999999999773 15.875 -138.1124999999999829 #
point $-1 309.5625 15.875 -138.1124999999999829 #
ellipse-curve $-1 -314.3249999999999886 15.875 138.1124999999999829 0 -1 0 4.762499999999999289 0 0 1 I I #
loop $-1 $355 $356 $65 #
coedge $-1 $357 $357 $358 $359 reversed $257 $-1 #
coedge $-1 $258 $258 $360 $361 forward $207 $-1 #
coedge $-1 $362 $363 $258 $311 reversed $364 $-1 #
edge $-1 $365 4.39593368580488331e-16 $366 3.141592653589789563 $258 $367 forward 7 unknown #
coedge $-1 $368 $369 $259 $313 forward $370 $-1 #
edge $-1 $318 0 $317 3.141592653589793116 $259 $371 forward 7 unknown #
coedge $-1 $372 $260 $369 $373 reversed $316 $-1 #
coedge $-1 $260 $372 $368 $374 forward $316 $-1 #
loop $-1 $-1 $314 $375 #
vertex $-1 $313 $376 #
vertex $-1 $313 $377 #
ellipse-curve $-1 311.1499999999999773 0 111.1249999999999716 0 -1 0 13.33499999999996355 0 2.255973186038317964e-14 1 I I #
coedge $-1 $378 $262 $265 $326 reversed $322 $-1 #
coedge $-1 $262 $378 $264 $325 forward $322 $-1 #
loop $-1 $-1 $320 $379 #
ellipse-curve $-1 0 0 0 0 -1 0 -8.000999999999999446 0 0 1 I I #
coedge $-1 $265 $264 $380 $381 forward $266 $-1 #
edge $-1 $382 0 $268 0.2550000000000000044 $321 $383 forward 7 unknown #
edge $-1 $384 0 $267 0.2550000000000000044 $320 $385 forward 7 unknown #
face $-1 $379 $266 $2 $-1 $386 reversed single #
point $-1 8.000999999999999446 0 0 #
point $-1 -8.000999999999999446 0 0 #
coedge $-1 $271 $270 $387 $388 reversed $272 $-1 #
face $-1 $389 $272 $2 $-1 $390 reversed single #
coedge $-1 $387 $387 $274 $333 forward $355 $-1 #
edge $-1 $336 0 $334 3.141592653589793116 $332 $391 forward 7 unknown #
vertex $-1 $388 $392 #
straight-curve $-1 319.0874999999999773 15.875 138.1124999999999829 0 -25.39999999999999858 0 I I #
vertex $-1 $388 $393 #
straight-curve $-1 309.5625 15.875 138.1124999999999829 0 -25.39999999999999858 0 I I #
cone-surface $-1 314.3249999999999886 15.875 138.1124999999999829 0 -1 0 4.762499999999999289 0 0 1 I I 0 1 4.762499999999999289 forward I I I I #
coedge $-1 $281 $280 $356 $394 reversed $282 $-1 #
coedge $-1 $292 $356 $284 $341 forward $307 $-1 #
edge $-1 $342 0 $296 11.99999999999999822 $340 $395 forward 7 unknown #
vertex $-1 $341 $396 #
straight-curve $-1 -330.1999999999999886 0 -152.3999999999999773 0 25.39999999999999858 0 I I #
plane-surface $-1 -330.1999999999999886 0 -152.3999999999999773 -1 0 0 0 0 25.39999999999999858 forward_v I I I I #
coedge $-1 $356 $292 $288 $346 forward $307 $-1 #
edge $-1 $294 0 $347 11.99999999999999822 $345 $397 forward 7 unknown #
vertex $-1 $346 $398 #
straight-curve $-1 330.1999999999999886 0 -152.3999999999999773 0 25.39999999999999858 0 I I #
plane-surface $-1 330.1999999999999886 0 152.3999999999999773 1 0 0 0 0 -25.39999999999999858 forward_v I I I I #
straight-curve $-1 -330.1999999999999886 15.875 152.3999999999999773 25.39999999999999858 0 0 I I #
point $-1 330.1999999999999886 15.875 152.3999999999999773 #
point $-1 -330.1999999999999886 15.875 152.3999999999999773 #
ellipse-curve $-1 314.3249999999999886 15.875 -138.1124999999999829 0 -1 0 4.762499999999999289 0 0 1 I I #
plane-surface $-1 330.1999999999999886 0 -152.3999999999999773 0 0 -1 -25.39999999999999858 0 0 forward_v I I I I #
loop $-1 $399 $332 $65 #
coedge $-1 $340 $345 $339 $394 forward $307 $-1 #
coedge $-1 $308 $308 $400 $401 reversed $257 $-1 #
coedge $-1 $402 $403 $308 $359 forward $404 $-1 #
edge $-1 $405 0 $406 3.141592653589793116 $308 $407 forward 7 unknown #
coedge $-1 $408 $409 $309 $361 reversed $410 $-1 #
edge $-1 $366 0 $365 3.141592653589793116 $309 $411 forward 7 unknown #
coedge $-1 $412 $310 $409 $413 reversed $364 $-1 #
coedge $-1 $310 $412 $408 $414 forward $364 $-1 #
loop $-1 $-1 $362 $415 #
vertex $-1 $361 $416 #
vertex $-1 $361 $417 #
ellipse-curve $-1 -311.1499999999999773 0 111.1249999999999716 0 1 0 -13.33499999999996355 0 2.255973186038317964e-14 1 I I #
coedge $-1 $418 $312 $315 $374 reversed $370 $-1 #
coedge $-1 $312 $418 $314 $373 forward $370 $-1 #
loop $-1 $-1 $368 $419 #
ellipse-curve $-1 311.1499999999999204 0 111.125 0 -1 0 -13.33499999999996355 0 0 1 I I #
coedge $-1 $315 $314 $420 $421 forward $316 $-1 #
edge $-1 $422 0 $318 0.2550000000000000044 $369 $423 forward 7 unknown #
edge $-1 $424 0 $317 0.2550000000000000044 $368 $425 forward 7 unknown #
face $-1 $419 $316 $2 $-1 $426 reversed single #
point $-1 324.4849999999999568 0 111.125 #
point $-1 297.8149999999999977 0 111.125 #
coedge $-1 $321 $320 $427 $428 reversed $322 $-1 #
face $-1 $429 $322 $2 $-1 $430 reversed single #
coedge $-1 $427 $427 $324 $381 reversed $431 $-1 #
edge $-1 $382 0 $384 3.141592653589793116 $380 $432 forward 7 unknown #
vertex $-1 $428 $433 #
straight-curve $-1 -8.000999999999999446 6.476999999999999424 0 0 -25.39999999999999858 0 I I #
vertex $-1 $428 $434 #
straight-curve $-1 8.000999999999999446 6.476999999999999424 9.798075436932839465e-16 0 -25.39999999999999858 0 I I #
cone-surface $-1 0 16.66874999999999929 0 0 -1 0 -8.000999999999999446 0 0 1 I I 0 1 8.000999999999999446 forward I I I I #
coedge $-1 $332 $332 $330 $388 forward $355 $-1 #
edge $-1 $334 0 $336 3.141592653589793116 $387 $435 forward 7 unknown #
face $-1 $436 $437 $2 $-1 $438 reversed single #
cone-surface $-1 314.3249999999999886 15.875 138.1124999999999829 0 -1 0 4.762499999999999289 0 0 1 I I 0 1 4.762499999999999289 forward I I I I #
ellipse-curve $-1 314.3249999999999886 15.875 138.1124999999999829 0 -1 0 -4.762499999999999289 0 0 1 I I #
point $-1 319.0874999999999773 15.875 138.1124999999999829 #
point $-1 309.5625 15.875 138.1124999999999829 #
edge $-1 $347 0 $342 26 $356 $439 forward 7 unknown #
straight-curve $-1 -330.1999999999999886 15.875 -152.3999999999999773 0 0 25.39999999999999858 I I #
point $-1 -330.1999999999999886 15.875 -152.3999999999999773 #
straight-curve $-1 330.1999999999999886 15.875 152.3999999999999773 0 0 -25.39999999999999858 I I #
point $-1 330.1999999999999886 15.875 -152.3999999999999773 #
loop $-1 $440 $441 $65 #
coedge $-1 $442 $443 $357 $401 forward $444 $-1 #
edge $-1 $406 4.39593368580488331e-16 $405 3.141592653589789563 $357 $445 forward 7 unknown #
coedge $-1 $446 $358 $443 $447 reversed $404 $-1 #
coedge $-1 $358 $446 $442 $448 forward $404 $-1 #
loop $-1 $-1 $402 $449 #
vertex $-1 $401 $450 #
vertex $-1 $401 $451 #
ellipse-curve $-1 -307.9749999999999659 0 -111.125 0 -1 0 13.33499999999996355 0 0 1 I I #
coedge $-1 $452 $360 $363 $414 reversed $410 $-1 #
coedge $-1 $360 $452 $362 $413 forward $410 $-1 #
loop $-1 $-1 $408 $453 #
ellipse-curve $-1 -311.1499999999999204 0 111.125 0 1 0 13.33499999999996355 0 0 1 I I #
coedge $-1 $363 $362 $454 $455 reversed $364 $-1 #
edge $-1 $456 0 $365 0.2550000000000000044 $409 $457 forward 7 unknown #
edge $-1 $458 0 $366 0.2550000000000000044 $408 $459 forward 7 unknown #
face $-1 $453 $364 $2 $-1 $460 reversed single #
point $-1 -324.4849999999999568 0 111.125 #
point $-1 -297.8149999999999977 0 111.125 #
coedge $-1 $369 $368 $461 $462 reversed $370 $-1 #
face $-1 $463 $370 $2 $-1 $464 reversed single #
coedge $-1 $461 $461 $372 $421 reversed $465 $-1 #
edge $-1 $422 6.260875249479669665e-16 $424 3.141592653589795781 $420 $466 forward 7 unknown #
vertex $-1 $462 $467 #
straight-curve $-1 297.8149999999999977 6.476999999999999424 111.125 0 -25.39999999999999858 0 I I #
vertex $-1 $462 $468 #
straight-curve $-1 324.4850000000000136 6.476999999999999424 111.125 0 -25.39999999999999858 0 I I #
cone-surface $-1 311.1499999999999773 16.66874999999999929 111.125 0 -1 0 -13.3349999999999973 0 0 1 I I 0 1 13.3349999999999973 forward I I I I #
coedge $-1 $380 $380 $378 $428 forward $431 $-1 #
edge $-1 $382 0 $384 3.141592653589793116 $427 $469 forward 7 unknown #
face $-1 $470 $471 $2 $-1 $472 reversed single #
cone-surface $-1 0 16.66874999999999929 0 0 -1 0 -8.000999999999999446 0 0 1 I I 0 1 8.000999999999999446 forward I I I I #
loop $-1 $473 $380 $474 #
ellipse-curve $-1 -3.524958103184871819e-16 6.476999999999999424 0 0 1 0 -8.000999999999999446 0 0 1 I I #
point $-1 -8.000999999999999446 6.476999999999999424 0 #
point $-1 8.000999999999999446 6.476999999999999424 -9.798075436932839465e-16 #
ellipse-curve $-1 314.3249999999999886 15.875 138.1124999999999829 0 -1 0 4.762499999999999289 0 0 1 I I #
face $-1 $474 $475 $2 $-1 $476 reversed single #
loop $-1 $-1 $477 $389 #
cone-surface $-1 0 16.66874999999999929 0 0 -1 0 -4.825999999999999623 0 0 1 I I 0 1 4.825999999999999623 forward I I I I #
straight-curve $-1 330.1999999999999886 15.875 -152.3999999999999773 -25.39999999999999858 0 0 I I #
loop $-1 $478 $479 $65 #
coedge $-1 $480 $480 $481 $482 forward $399 $-1 #
coedge $-1 $483 $400 $403 $448 reversed $444 $-1 #
coedge $-1 $400 $483 $402 $447 forward $444 $-1 #
loop $-1 $-1 $442 $484 #
ellipse-curve $-1 -307.9749999999999659 0 -111.1249999999999716 0 -1 0 -13.33499999999996355 0 -2.255973186038317964e-14 1 I I #
coedge $-1 $403 $402 $485 $486 forward $404 $-1 #
edge $-1 $487 0 $406 0.2550000000000000044 $443 $488 forward 7 unknown #
edge $-1 $489 0 $405 0.2550000000000000044 $442 $490 forward 7 unknown #
face $-1 $484 $404 $2 $-1 $491 reversed single #
point $-1 -294.6399999999999864 0 -111.125 #
point $-1 -321.3099999999999454 0 -111.125 #
coedge $-1 $409 $408 $492 $493 forward $410 $-1 #
face $-1 $494 $410 $2 $-1 $495 reversed single #
coedge $-1 $492 $492 $412 $455 forward $496 $-1 #
edge $-1 $458 6.260875249479669665e-16 $456 3.141592653589795781 $454 $497 forward 7 unknown #
vertex $-1 $493 $498 #
straight-curve $-1 -324.4850000000000136 6.476999999999999424 111.125 0 -25.39999999999999858 0 I I #
vertex $-1 $493 $499 #
straight-curve $-1 -297.8149999999999977 6.476999999999999424 111.125 0 -25.39999999999999858 0 I I #
cone-surface $-1 -311.1499999999999773 16.66874999999999929 111.125 0 1 0 13.3349999999999973 0 0 1 I I 0 1 13.3349999999999973 forward I I I I #
coedge $-1 $420 $420 $418 $462 forward $465 $-1 #
edge $-1 $422 -4.395933685804939516e-16 $424 3.141592653589796669 $461 $500 forward 7 unknown #
face $-1 $501 $502 $2 $-1 $503 reversed single #
cone-surface $-1 311.1499999999999773 16.66874999999999929 111.125 0 -1 0 -13.3349999999999973 0 0 1 I I 0 1 13.3349999999999973 forward I I I I #
loop $-1 $504 $420 $505 #
ellipse-curve $-1 311.1499999999999773 6.476999999999999424 111.1250000000000142 0 1 0 -13.33500000000000796 0 -2.255973186038317964e-14 1 I I #
point $-1 297.8149999999999977 6.476999999999999424 111.125 #
point $-1 324.4850000000000136 6.476999999999999424 111.125 #
ellipse-curve $-1 -3.524958103184871819e-16 6.476999999999999424 0 0 -1 0 -8.000999999999999446 0 0 1 I I #
face $-1 $505 $506 $2 $-1 $507 reversed single #
loop $-1 $-1 $508 $429 #
cone-surface $-1 311.1499999999999773 16.66874999999999929 111.125 0 -1 0 -9.588499999999999801 0 0 1 I I 0 1 9.588499999999999801 forward I I I I #
loop $-1 $-1 $509 $474 #
face $-1 $327 $431 $2 $-1 $510 forward single #
loop $-1 $-1 $511 $436 #
cone-surface $-1 0 16.66874999999999929 0 0 -1 0 -4.825999999999999623 0 0 1 I I 0 1 4.825999999999999623 forward I I I I #
coedge $-1 $512 $481 $513 $514 forward $437 $-1 #
loop $-1 $515 $516 $65 #
coedge $-1 $517 $517 $518 $519 forward $440 $-1 #
coedge $-1 $441 $441 $520 $521 forward $399 $-1 #
coedge $-1 $477 $522 $441 $482 reversed $437 $-1 #
edge $-1 $523 0 $524 3.141592653589793116 $441 $525 forward 7 unknown #
coedge $-1 $443 $442 $526 $527 reversed $444 $-1 #
face $-1 $-1 $444 $2 $-1 $528 reversed single #
coedge $-1 $526 $526 $446 $486 reversed $529 $-1 #
edge $-1 $487 -4.395933685804846825e-16 $489 3.141592653589796669 $485 $530 forward 7 unknown #
vertex $-1 $527 $531 #
straight-curve $-1 -321.3100000000000023 6.476999999999999424 -111.125 0 -25.39999999999999858 0 I I #
vertex $-1 $527 $532 #
straight-curve $-1 -294.6399999999999864 6.476999999999999424 -111.125 0 -25.39999999999999858 0 I I #
cone-surface $-1 -307.9749999999999659 16.66874999999999929 -111.125 0 -1 0 -13.3349999999999973 0 0 1 I I 0 1 13.3349999999999973 forward I I I I #
coedge $-1 $454 $454 $452 $493 reversed $496 $-1 #
edge $-1 $458 -4.395933685804939516e-16 $456 3.141592653589796669 $492 $533 forward 7 unknown #
face $-1 $534 $535 $2 $-1 $536 reversed single #
cone-surface $-1 -311.1499999999999773 16.66874999999999929 111.125 0 1 0 13.3349999999999973 0 0 1 I I 0 1 13.3349999999999973 forward I I I I #
loop $-1 $537 $454 $538 #
ellipse-curve $-1 -311.1499999999999773 6.476999999999999424 111.1250000000000142 0 -1 0 13.33500000000000796 0 -2.255973186038317964e-14 1 I I #
point $-1 -324.4850000000000136 6.476999999999999424 111.125 #
point $-1 -297.8149999999999977 6.476999999999999424 111.125 #
ellipse-curve $-1 311.1499999999999773 6.476999999999999424 111.1249999999999716 0 -1 0 -13.33500000000000796 0 2.255973186038317964e-14 1 I I #
face $-1 $538 $539 $2 $-1 $540 reversed single #
loop $-1 $-1 $541 $463 #
cone-surface $-1 -311.1499999999999773 16.66874999999999929 111.125 0 1 0 9.588499999999999801 0 0 1 I I 0 1 9.588499999999999801 forward I I I I #
loop $-1 $-1 $542 $505 #
face $-1 $375 $465 $2 $-1 $543 forward single #
loop $-1 $-1 $544 $470 #
cone-surface $-1 311.1499999999999773 16.66874999999999929 111.125 0 -1 0 -9.588499999999999801 0 0 1 I I 0 1 9.588499999999999801 forward I I I I #
coedge $-1 $545 $518 $546 $547 forward $471 $-1 #
coedge $-1 $548 $548 $549 $550 reversed $473 $-1 #
plane-surface $-1 0 6.476999999999999424 0 0 -1 0 -25.39999999999999858 0 0 forward_v I I I I #
coedge $-1 $549 $520 $522 $551 forward $475 $-1 #
coedge $-1 $522 $477 $548 $552 reversed $437 $-1 #
coedge $-1 $520 $549 $477 $514 reversed $475 $-1 #
edge $-1 $523 0 $553 0.3699999999999999956 $513 $554 forward 7 unknown #
loop $-1 $-1 $555 $65 #
coedge $-1 $556 $556 $557 $558 reversed $478 $-1 #
coedge $-1 $479 $479 $559 $560 forward $440 $-1 #
coedge $-1 $508 $561 $479 $519 reversed $471 $-1 #
edge $-1 $562 0 $563 3.141592653589793116 $479 $564 forward 7 unknown #
coedge $-1 $511 $513 $480 $521 reversed $475 $-1 #
edge $-1 $524 0 $523 3.141592653589793116 $480 $565 forward 7 unknown #
coedge $-1 $481 $512 $511 $551 reversed $437 $-1 #
vertex $-1 $521 $566 #
vertex $-1 $521 $567 #
ellipse-curve $-1 0 15.875 -3.524958103184871819e-16 0 -1 0 4.825999999999999623 0 3.524958103184871819e-16 1 I I #
coedge $-1 $485 $485 $483 $527 forward $529 $-1 #
edge $-1 $487 6.260875249479716011e-16 $489 3.141592653589795781 $526 $568 forward 7 unknown #
cone-surface $-1 -307.9749999999999659 16.66874999999999929 -111.125 0 -1 0 -13.3349999999999973 0 0 1 I I 0 1 13.3349999999999973 forward I I I I #
loop $-1 $569 $485 $570 #
ellipse-curve $-1 -307.9749999999999659 6.476999999999999424 -111.1249999999999716 0 1 0 -13.33500000000000796 0 -2.255973186038317964e-14 1 I I #
point $-1 -321.3100000000000023 6.476999999999999424 -111.125 #
point $-1 -294.6399999999999864 6.476999999999999424 -111.125 #
ellipse-curve $-1 -311.1499999999999773 6.476999999999999424 111.1249999999999716 0 1 0 13.33500000000000796 0 2.255973186038317964e-14 1 I I #
face $-1 $570 $571 $2 $-1 $572 reversed single #
loop $-1 $-1 $573 $494 #
cone-surface $-1 -307.9749999999999659 16.66874999999999929 -111.125 0 -1 0 -9.588499999999999801 0 0 1 I I 0 1 9.588499999999999801 forward I I I I #
loop $-1 $-1 $574 $538 #
face $-1 $415 $496 $2 $-1 $575 reversed single #
loop $-1 $-1 $576 $501 #
cone-surface $-1 -311.1499999999999773 16.66874999999999929 111.125 0 1 0 9.588499999999999801 0 0 1 I I 0 1 9.588499999999999801 forward I I I I #
coedge $-1 $577 $557 $578 $579 forward $502 $-1 #
coedge $-1 $580 $580 $581 $582 reversed $504 $-1 #
plane-surface $-1 311.1499999999999773 6.476999999999999424 111.125 0 -1 0 -25.39999999999999858 0 0 forward_v I I I I #
coedge $-1 $581 $559 $561 $583 forward $506 $-1 #
coedge $-1 $561 $508 $580 $584 reversed $471 $-1 #
coedge $-1 $559 $581 $508 $547 reversed $506 $-1 #
edge $-1 $562 0 $585 0.3699999999999999956 $546 $586 forward 7 unknown #
coedge $-1 $509 $509 $512 $552 forward $473 $-1 #
coedge $-1 $513 $511 $509 $550 forward $475 $-1 #
edge $-1 $587 0 $553 3.141592653589793116 $549 $588 forward 7 unknown #
edge $-1 $524 0 $587 0.3699999999999999956 $511 $589 forward 7 unknown #
edge $-1 $587 0 $553 3.141592653589793116 $548 $590 forward 7 unknown #
vertex $-1 $514 $591 #
straight-curve $-1 4.825999999999999623 15.875 5.909950263546792262e-16 0 -25.39999999999999858 0 I I #
coedge $-1 $592 $592 $593 $594 forward $515 $-1 #
coedge $-1 $516 $516 $595 $596 reversed $478 $-1 #
coedge $-1 $541 $597 $516 $558 forward $502 $-1 #
edge $-1 $598 0 $599 3.141592653589793116 $516 $600 forward 7 unknown #
coedge $-1 $544 $546 $517 $560 reversed $506 $-1 #
edge $-1 $563 0 $562 3.141592653589793116 $517 $601 forward 7 unknown #
coedge $-1 $518 $545 $544 $583 reversed $471 $-1 #
vertex $-1 $560 $602 #
vertex $-1 $560 $603 #
ellipse-curve $-1 311.1499999999999773 15.875 111.125 0 -1 0 9.588499999999987367 0 0 1 I I #
ellipse-curve $-1 0 15.875 3.524958103184871819e-16 0 -1 0 -4.825999999999999623 0 -3.524958103184871819e-16 1 I I #
point $-1 4.825999999999999623 15.875 0 #
point $-1 -4.825999999999999623 15.875 0 #
ellipse-curve $-1 -307.9749999999999659 6.476999999999999424 -111.1250000000000142 0 -1 0 -13.33500000000000796 0 2.255973186038317964e-14 1 I I #
loop $-1 $-1 $604 $570 #
face $-1 $449 $529 $2 $-1 $605 forward single #
loop $-1 $-1 $606 $534 #
cone-surface $-1 -307.9749999999999659 16.66874999999999929 -111.125 0 -1 0 -9.588499999999999801 0 0 1 I I 0 1 9.588499999999999801 forward I I I I #
coedge $-1 $607 $593 $608 $609 forward $535 $-1 #
coedge $-1 $610 $610 $611 $612 forward $537 $-1 #
plane-surface $-1 -311.1499999999999773 6.476999999999999424 111.125 0 1 0 25.39999999999999858 0 0 forward_v I I I I #
coedge $-1 $611 $595 $597 $613 forward $539 $-1 #
coedge $-1 $597 $541 $610 $614 forward $502 $-1 #
coedge $-1 $595 $611 $541 $579 reversed $539 $-1 #
edge $-1 $599 0 $615 0.3699999999999999956 $578 $616 forward 7 unknown #
coedge $-1 $542 $542 $545 $584 forward $504 $-1 #
coedge $-1 $546 $544 $542 $582 forward $506 $-1 #
edge $-1 $617 -6.113550159066522831e-16 $585 3.141592653589798445 $581 $618 forward 7 unknown #
edge $-1 $563 0 $617 0.3699999999999999956 $544 $619 forward 7 unknown #
edge $-1 $617 1.130080483948618537e-15 $585 3.141592653589805995 $580 $620 forward 7 unknown #
vertex $-1 $547 $621 #
straight-curve $-1 320.7384999999999877 15.875 111.125 0 -25.39999999999999858 0 I I #
vertex $-1 $550 $622 #
ellipse-curve $-1 0 6.476999999999999424 0 0 -1 0 -4.825999999999999623 0 0 1 I I #
straight-curve $-1 -4.825999999999999623 15.875 0 0 -25.39999999999999858 0 I I #
ellipse-curve $-1 0 6.476999999999999424 0 0 1 0 -4.825999999999999623 0 0 1 I I #
point $-1 4.825999999999999623 6.476999999999999424 0 #
coedge $-1 $555 $555 $623 $624 forward $515 $-1 #
coedge $-1 $573 $625 $555 $594 reversed $535 $-1 #
edge $-1 $626 0 $627 3.141592653589793116 $555 $628 forward 7 unknown #
coedge $-1 $576 $578 $556 $596 forward $539 $-1 #
edge $-1 $599 0 $598 3.141592653589793116 $556 $629 forward 7 unknown #
coedge $-1 $557 $577 $576 $613 reversed $502 $-1 #
vertex $-1 $596 $630 #
vertex $-1 $596 $631 #
ellipse-curve $-1 -311.1499999999999773 15.875 111.125 0 1 0 -9.588499999999987367 0 0 1 I I #
ellipse-curve $-1 311.1499999999999773 15.875 111.125 0 -1 0 -9.588499999999987367 0 0 1 I I #
point $-1 320.7384999999999877 15.875 111.125 #
point $-1 301.5615000000000236 15.875 111.125 #
coedge $-1 $632 $632 $633 $634 reversed $569 $-1 #
plane-surface $-1 -307.9749999999999659 6.476999999999999424 -111.125 0 -1 0 -25.39999999999999858 0 0 forward_v I I I I #
coedge $-1 $633 $623 $625 $635 forward $571 $-1 #
coedge $-1 $625 $573 $632 $636 reversed $535 $-1 #
coedge $-1 $623 $633 $573 $609 reversed $571 $-1 #
edge $-1 $626 0 $637 0.3699999999999999956 $608 $638 forward 7 unknown #
coedge $-1 $574 $574 $577 $614 reversed $537 $-1 #
coedge $-1 $578 $576 $574 $612 reversed $539 $-1 #
edge $-1 $615 -6.113550159066522831e-16 $639 3.141592653589798445 $611 $640 forward 7 unknown #
edge $-1 $598 0 $639 0.3699999999999999956 $576 $641 forward 7 unknown #
edge $-1 $615 1.130080483948618537e-15 $639 3.141592653589805995 $610 $642 forward 7 unknown #
vertex $-1 $579 $643 #
straight-curve $-1 -301.5615000000000236 15.875 111.125 0 -25.39999999999999858 0 I I #
vertex $-1 $582 $644 #
ellipse-curve $-1 311.1499999999999773 6.476999999999999424 111.1249999999999716 0 -1 0 -9.588499999999987367 0 2.255973186038317964e-14 1 I I #
straight-curve $-1 301.5615000000000236 15.875 111.125 0 -25.39999999999999858 0 I I #
ellipse-curve $-1 311.1499999999999773 6.476999999999999424 111.1250000000000568 0 1 0 -9.588499999999987367 0 -6.767919558114953261e-14 1 I I #
point $-1 320.7384999999999877 6.476999999999999424 111.125 #
point $-1 -4.825999999999999623 6.476999999999999424 0 #
coedge $-1 $606 $608 $592 $624 reversed $571 $-1 #
edge $-1 $627 0 $626 3.141592653589793116 $592 $645 forward 7 unknown #
coedge $-1 $593 $607 $606 $635 reversed $535 $-1 #
vertex $-1 $624 $646 #
vertex $-1 $624 $647 #
ellipse-curve $-1 -307.9749999999999659 15.875 -111.125 0 -1 0 9.588499999999987367 0 0 1 I I #
ellipse-curve $-1 -311.1499999999999773 15.875 111.125 0 1 0 9.588499999999987367 0 0 1 I I #
point $-1 -320.7384999999999877 15.875 111.125 #
point $-1 -301.5615000000000236 15.875 111.125 #
coedge $-1 $604 $604 $607 $636 forward $569 $-1 #
coedge $-1 $608 $606 $604 $634 forward $571 $-1 #
edge $-1 $648 1.130080483948653641e-15 $637 3.141592653589805995 $633 $649 forward 7 unknown #
edge $-1 $627 0 $648 0.3699999999999999956 $606 $650 forward 7 unknown #
edge $-1 $648 -6.113550159066347309e-16 $637 3.141592653589798445 $632 $651 forward 7 unknown #
vertex $-1 $609 $652 #
straight-curve $-1 -298.3865000000000123 15.875 -111.125 0 -25.39999999999999858 0 I I #
vertex $-1 $612 $653 #
ellipse-curve $-1 -311.1499999999999773 6.476999999999999424 111.1249999999999716 0 1 0 9.588499999999987367 0 2.255973186038317964e-14 1 I I #
straight-curve $-1 -320.7384999999999877 15.875 111.125 0 -25.39999999999999858 0 I I #
ellipse-curve $-1 -311.1499999999999773 6.476999999999999424 111.1250000000000568 0 -1 0 9.588499999999987367 0 -6.767919558114953261e-14 1 I I #
point $-1 -301.5615000000000236 6.476999999999999424 111.125 #
point $-1 301.5615000000000236 6.476999999999999424 111.125 #
ellipse-curve $-1 -307.9749999999999659 15.875 -111.125 0 -1 0 -9.588499999999987367 0 0 1 I I #
point $-1 -298.3865000000000123 15.875 -111.125 #
point $-1 -317.5634999999999764 15.875 -111.125 #
vertex $-1 $634 $654 #
ellipse-curve $-1 -307.9749999999999659 6.476999999999999424 -111.1250000000000568 0 -1 0 -9.588499999999987367 0 6.767919558114953261e-14 1 I I #
straight-curve $-1 -317.5634999999999764 15.875 -111.125 0 -25.39999999999999858 0 I I #
ellipse-curve $-1 -307.9749999999999659 6.476999999999999424 -111.1249999999999716 0 1 0 -9.588499999999987367 0 -2.255973186038317964e-14 1 I I #
point $-1 -298.3865000000000123 6.476999999999999424 -111.125 #
point $-1 -320.7384999999999877 6.476999999999999424 111.125 #
point $-1 -317.5634999999999764 6.476999999999999424 -111.125 #
End-of-ACIS-data 