600 0 1 0           
85 GICL ACIS Healer - Source: /gicl/data5/repository/PTC/V18/mold18/1626sup_pl.sat - 6 0 18 ACIS 6.0.3 Solaris 24 Sat Apr 13 21:25:36 2002 
1 9.999999999999999547e-07 1.000000000000000036e-10 
body $-1 $1 $-1 $-1 #
lump $-1 $-1 $2 $0 #
shell $-1 $-1 $-1 $3 $-1 $1 #
face $-1 $4 $5 $2 $-1 $6 reversed single #
face $-1 $7 $8 $2 $-1 $9 reversed single #
loop $-1 $10 $11 $3 #
plane-surface $-1 0 0 0 0 1 0 -25.39999999999999858 0 0 forward_v I I I I #
face $-1 $12 $13 $2 $-1 $14 reversed single #
loop $-1 $-1 $15 $4 #
cone-surface $-1 79.375 60.32499999999999574 -177.0062499999999943 0 -1 0 6.352539999999999409 0 0 1 I I 0 1 6.352539999999999409 forward I I I I #
loop $-1 $16 $17 $3 #
coedge $-1 $18 $18 $19 $20 reversed $5 $-1 #
face $-1 $21 $22 $2 $-1 $23 forward single #
loop $-1 $-1 $24 $7 #
cone-surface $-1 79.375 60.32499999999999574 -177.0062499999999943 0 -1 0 6.352539999999999409 0 0 1 I I 0 1 6.352539999999999409 forward I I I I #
coedge $-1 $25 $19 $26 $27 reversed $8 $-1 #
loop $-1 $28 $29 $3 #
coedge $-1 $30 $30 $31 $32 reversed $10 $-1 #
coedge $-1 $11 $11 $33 $34 reversed $5 $-1 #
coedge $-1 $15 $35 $11 $20 forward $8 $-1 #
edge $-1 $36 0 $37 3.141592653589793116 $11 $38 forward 7 unknown #
face $-1 $39 $40 $2 $-1 $41 reversed single #
loop $-1 $42 $43 $12 #
plane-surface $-1 0 60.32499999999999574 0 0 1 0 -25.39999999999999858 0 0 forward_v I I I I #
coedge $-1 $44 $33 $35 $45 reversed $13 $-1 #
coedge $-1 $35 $15 $43 $46 reversed $8 $-1 #
coedge $-1 $33 $44 $15 $27 forward $13 $-1 #
edge $-1 $47 0 $37 2.375 $26 $48 forward 7 unknown #
loop $-1 $49 $50 $3 #
coedge $-1 $51 $51 $52 $53 reversed $16 $-1 #
coedge $-1 $17 $17 $54 $55 reversed $10 $-1 #
coedge $-1 $56 $57 $17 $32 forward $40 $-1 #
edge $-1 $58 0 $59 3.141592653589793116 $17 $60 forward 7 unknown #
coedge $-1 $24 $26 $18 $34 forward $13 $-1 #
edge $-1 $37 0 $36 3.141592653589793116 $18 $61 forward 7 unknown #
coedge $-1 $19 $25 $24 $45 forward $8 $-1 #
vertex $-1 $34 $62 #
vertex $-1 $34 $63 #
ellipse-curve $-1 79.375 0 -177.0062499999999943 0 -1 0 -6.35253999999999408 0 0 1 I I #
face $-1 $64 $65 $2 $-1 $66 reversed single #
loop $-1 $-1 $56 $21 #
cone-surface $-1 79.375 60.32499999999999574 177.0062499999999943 0 -1 0 6.352539999999999409 0 0 1 I I 0 1 6.352539999999999409 forward I I I I #
loop $-1 $67 $68 $12 #
coedge $-1 $69 $69 $25 $46 forward $22 $-1 #
coedge $-1 $26 $24 $69 $70 reversed $13 $-1 #
edge $-1 $71 0 $36 2.375 $24 $72 forward 7 unknown #
edge $-1 $71 0 $47 3.141592653589793116 $43 $73 forward 7 unknown #
vertex $-1 $70 $74 #
straight-curve $-1 85.72753999999999053 60.32499999999999574 -177.0062499999999943 0 -25.39999999999999858 0 I I #
loop $-1 $75 $76 $3 #
coedge $-1 $77 $77 $78 $79 reversed $28 $-1 #
coedge $-1 $29 $29 $80 $81 reversed $16 $-1 #
coedge $-1 $82 $83 $29 $53 forward $84 $-1 #
edge $-1 $85 0 $86 3.141592653589793116 $29 $87 forward 7 unknown #
coedge $-1 $88 $89 $30 $55 forward $65 $-1 #
edge $-1 $59 0 $58 3.141592653589793116 $30 $90 forward 7 unknown #
coedge $-1 $91 $31 $89 $92 reversed $40 $-1 #
coedge $-1 $31 $91 $88 $93 forward $40 $-1 #
vertex $-1 $55 $94 #
vertex $-1 $55 $95 #
ellipse-curve $-1 79.375 0 177.0062499999999943 0 -1 0 -6.35253999999999408 0 0 1 I I #
ellipse-curve $-1 79.375 0 -177.0062499999999943 0 -1 0 6.35253999999999408 0 0 1 I I #
point $-1 73.02245999999999526 0 -177.0062499999999943 #
point $-1 85.72753999999999053 0 -177.0062499999999943 #
face $-1 $96 $84 $2 $-1 $97 reversed single #
loop $-1 $-1 $88 $39 #
cone-surface $-1 79.375 60.32499999999999574 177.0062499999999943 0 -1 0 6.352539999999999409 0 0 1 I I 0 1 6.352539999999999409 forward I I I I #
loop $-1 $98 $99 $12 #
coedge $-1 $100 $100 $91 $101 forward $42 $-1 #
coedge $-1 $43 $43 $44 $70 forward $22 $-1 #
edge $-1 $47 0 $71 3.141592653589793116 $69 $102 forward 7 unknown #
vertex $-1 $70 $103 #
straight-curve $-1 73.02245999999999526 60.32499999999999574 -177.0062499999999943 0 -25.39999999999999858 0 I I #
ellipse-curve $-1 79.375 60.32499999999999574 -177.0062499999999943 0 -1 0 -6.35253999999999408 0 0 1 I I #
point $-1 85.72753999999999053 60.32499999999999574 -177.0062499999999943 #
loop $-1 $104 $105 $3 #
coedge $-1 $106 $107 $108 $109 reversed $49 $-1 #
coedge $-1 $50 $50 $110 $111 reversed $28 $-1 #
coedge $-1 $112 $113 $50 $79 forward $114 $-1 #
edge $-1 $115 0 $116 3.141592653589793116 $50 $117 forward 7 unknown #
coedge $-1 $118 $119 $51 $81 forward $120 $-1 #
edge $-1 $86 0 $85 3.141592653589793116 $51 $121 forward 7 unknown #
coedge $-1 $122 $52 $119 $123 reversed $84 $-1 #
coedge $-1 $52 $122 $118 $124 forward $84 $-1 #
loop $-1 $-1 $82 $64 #
vertex $-1 $81 $125 #
vertex $-1 $81 $126 #
ellipse-curve $-1 -79.375 0 -177.0062499999999943 0 -1 0 -6.35253999999999408 0 0 1 I I #
coedge $-1 $127 $54 $57 $93 reversed $65 $-1 #
coedge $-1 $54 $127 $56 $92 forward $65 $-1 #
ellipse-curve $-1 79.375 0 177.0062499999999943 0 -1 0 6.35253999999999408 0 0 1 I I #
coedge $-1 $57 $56 $68 $101 reversed $40 $-1 #
edge $-1 $128 0 $59 2.375 $89 $129 forward 7 unknown #
edge $-1 $130 0 $58 2.375 $88 $131 forward 7 unknown #
point $-1 73.02245999999999526 0 177.0062499999999943 #
point $-1 85.72753999999999053 0 177.0062499999999943 #
face $-1 $132 $120 $2 $-1 $133 reversed single #
cone-surface $-1 -79.375 60.32499999999999574 -177.0062499999999943 0 -1 0 6.352539999999999409 0 0 1 I I 0 1 6.352539999999999409 forward I I I I #
loop $-1 $134 $135 $12 #
coedge $-1 $136 $136 $122 $137 forward $67 $-1 #
coedge $-1 $68 $68 $127 $138 forward $42 $-1 #
edge $-1 $130 0 $128 3.141592653589793116 $68 $139 forward 7 unknown #
ellipse-curve $-1 79.375 60.32499999999999574 -177.0062499999999943 0 -1 0 6.35253999999999408 0 0 1 I I #
point $-1 73.02245999999999526 60.32499999999999574 -177.0062499999999943 #
loop $-1 $140 $141 $3 #
coedge $-1 $142 $142 $143 $144 reversed $75 $-1 #
coedge $-1 $145 $76 $146 $147 reversed $49 $-1 #
coedge $-1 $76 $145 $148 $149 reversed $49 $-1 #
coedge $-1 $150 $151 $76 $109 forward $152 $-1 #
edge $-1 $153 0 $154 26 $76 $155 forward 7 unknown #
coedge $-1 $156 $157 $77 $111 forward $158 $-1 #
edge $-1 $116 0 $115 3.141592653589793116 $77 $159 forward 7 unknown #
coedge $-1 $160 $78 $157 $161 reversed $114 $-1 #
coedge $-1 $78 $160 $156 $162 forward $114 $-1 #
loop $-1 $-1 $112 $132 #
vertex $-1 $111 $163 #
vertex $-1 $111 $164 #
ellipse-curve $-1 -311.1499999999999773 0 111.125 0 -1 0 -9.524999999999998579 0 0 1 I I #
coedge $-1 $165 $80 $83 $124 reversed $120 $-1 #
coedge $-1 $80 $165 $82 $123 forward $120 $-1 #
loop $-1 $-1 $118 $96 #
ellipse-curve $-1 -79.375 0 -177.0062499999999943 0 -1 0 6.35253999999999408 0 0 1 I I #
coedge $-1 $83 $82 $99 $137 reversed $84 $-1 #
edge $-1 $166 0 $86 2.375 $119 $167 forward 7 unknown #
edge $-1 $168 0 $85 2.375 $118 $169 forward 7 unknown #
point $-1 -85.72753999999999053 0 -177.0062499999999943 #
point $-1 -73.02245999999999526 0 -177.0062499999999943 #
coedge $-1 $89 $88 $100 $138 reversed $65 $-1 #
vertex $-1 $138 $170 #
straight-curve $-1 85.72753999999999053 60.32499999999999574 177.0062499999999943 0 -25.39999999999999858 0 I I #
vertex $-1 $138 $171 #
straight-curve $-1 73.02245999999999526 60.32499999999999574 177.0062499999999943 0 -25.39999999999999858 0 I I #
face $-1 $172 $114 $2 $-1 $173 reversed single #
cone-surface $-1 -79.375 60.32499999999999574 -177.0062499999999943 0 -1 0 6.352539999999999409 0 0 1 I I 0 1 6.352539999999999409 forward I I I I #
loop $-1 $174 $175 $12 #
coedge $-1 $176 $176 $160 $177 forward $98 $-1 #
coedge $-1 $99 $99 $165 $178 forward $67 $-1 #
edge $-1 $168 0 $166 3.141592653589793116 $99 $179 forward 7 unknown #
edge $-1 $128 0 $130 3.141592653589793116 $100 $180 forward 7 unknown #
ellipse-curve $-1 79.375 60.32499999999999574 177.0062499999999943 0 -1 0 -6.35253999999999408 0 0 1 I I #
loop $-1 $181 $182 $3 #
coedge $-1 $183 $183 $184 $185 reversed $104 $-1 #
coedge $-1 $105 $105 $186 $187 reversed $75 $-1 #
coedge $-1 $188 $189 $105 $144 forward $190 $-1 #
edge $-1 $191 0 $192 3.141592653589793116 $105 $193 forward 7 unknown #
coedge $-1 $107 $106 $194 $195 reversed $49 $-1 #
coedge $-1 $196 $197 $106 $147 forward $198 $-1 #
edge $-1 $199 0 $153 15.875 $106 $200 forward 7 unknown #
coedge $-1 $201 $202 $107 $149 forward $203 $-1 #
edge $-1 $154 0 $204 15.875 $107 $205 forward 7 unknown #
coedge $-1 $206 $108 $202 $207 forward $152 $-1 #
coedge $-1 $108 $206 $196 $208 reversed $152 $-1 #
loop $-1 $-1 $150 $209 #
vertex $-1 $147 $210 #
vertex $-1 $149 $211 #
straight-curve $-1 -330.1999999999999886 0 201.6124999999999829 25.39999999999999858 0 0 I I #
coedge $-1 $212 $110 $113 $162 reversed $158 $-1 #
coedge $-1 $110 $212 $112 $161 forward $158 $-1 #
loop $-1 $-1 $156 $172 #
ellipse-curve $-1 -311.1499999999999773 0 111.125 0 -1 0 9.524999999999998579 0 0 1 I I #
coedge $-1 $113 $112 $135 $177 reversed $114 $-1 #
edge $-1 $213 0 $116 2.375 $157 $214 forward 7 unknown #
edge $-1 $215 0 $115 2.375 $156 $216 forward 7 unknown #
point $-1 -320.6749999999999545 0 111.125 #
point $-1 -301.625 0 111.125 #
coedge $-1 $119 $118 $136 $178 reversed $120 $-1 #
vertex $-1 $178 $217 #
straight-curve $-1 -73.02245999999999526 60.32499999999999574 -177.0062499999999943 0 -25.39999999999999858 0 I I #
vertex $-1 $178 $218 #
straight-curve $-1 -85.72753999999999053 60.32499999999999574 -177.0062499999999943 0 -25.39999999999999858 0 I I #
point $-1 85.72753999999999053 60.32499999999999574 177.0062499999999943 #
point $-1 73.02245999999999526 60.32499999999999574 177.0062499999999943 #
face $-1 $219 $158 $2 $-1 $220 reversed single #
cone-surface $-1 -311.1499999999999773 60.32499999999999574 111.125 0 -1 0 9.524999999999998579 0 0 1 I I 0 1 9.524999999999998579 forward I I I I #
loop $-1 $221 $222 $12 #
coedge $-1 $223 $224 $225 $226 forward $134 $-1 #
coedge $-1 $135 $135 $212 $227 forward $98 $-1 #
edge $-1 $215 0 $213 3.141592653589793116 $135 $228 forward 7 unknown #
edge $-1 $166 0 $168 3.141592653589793116 $136 $229 forward 7 unknown #
ellipse-curve $-1 -79.375 60.32499999999999574 -177.0062499999999943 0 -1 0 -6.35253999999999408 0 0 1 I I #
ellipse-curve $-1 79.375 60.32499999999999574 177.0062499999999943 0 -1 0 6.35253999999999408 0 0 1 I I #
loop $-1 $230 $231 $3 #
coedge $-1 $232 $232 $233 $234 reversed $140 $-1 #
coedge $-1 $141 $141 $235 $236 reversed $104 $-1 #
coedge $-1 $237 $238 $141 $185 forward $239 $-1 #
edge $-1 $240 0 $241 3.141592653589793116 $141 $242 forward 7 unknown #
coedge $-1 $243 $244 $142 $187 forward $245 $-1 #
edge $-1 $192 0 $191 3.141592653589793116 $142 $246 forward 7 unknown #
coedge $-1 $247 $143 $244 $248 reversed $190 $-1 #
coedge $-1 $143 $247 $243 $249 forward $190 $-1 #
loop $-1 $-1 $189 $250 #
vertex $-1 $187 $251 #
vertex $-1 $187 $252 #
ellipse-curve $-1 293.6875 0 166.6875 0 -1 0 19.04999999999999716 0 0 1 I I #
coedge $-1 $253 $254 $145 $195 forward $255 $-1 #
edge $-1 $204 0 $199 26 $145 $256 forward 7 unknown #
coedge $-1 $257 $146 $151 $208 forward $198 $-1 #
coedge $-1 $146 $257 $253 $258 reversed $198 $-1 #
loop $-1 $-1 $196 $259 #
vertex $-1 $195 $260 #
straight-curve $-1 -330.1999999999999886 0 -201.6124999999999829 0 0 25.39999999999999858 I I #
coedge $-1 $261 $148 $254 $262 forward $203 $-1 #
coedge $-1 $148 $261 $150 $207 reversed $203 $-1 #
loop $-1 $-1 $201 $263 #
vertex $-1 $149 $264 #
straight-curve $-1 330.1999999999999886 0 201.6124999999999829 0 0 -25.39999999999999858 I I #
coedge $-1 $151 $150 $265 $266 reversed $152 $-1 #
edge $-1 $154 0 $267 2.375 $202 $268 forward 7 unknown #
edge $-1 $153 0 $269 2.375 $196 $270 forward 7 unknown #
face $-1 $263 $152 $2 $-1 $271 forward single #
point $-1 -330.1999999999999886 0 201.6124999999999829 #
point $-1 330.1999999999999886 0 201.6124999999999829 #
coedge $-1 $157 $156 $176 $227 reversed $158 $-1 #
vertex $-1 $227 $272 #
straight-curve $-1 -301.625 60.32499999999999574 111.125 0 -25.39999999999999858 0 I I #
vertex $-1 $227 $273 #
straight-curve $-1 -320.6749999999999545 60.32499999999999574 111.125 0 -25.39999999999999858 0 I I #
point $-1 -73.02245999999999526 60.32499999999999574 -177.0062499999999943 #
point $-1 -85.72753999999999053 60.32499999999999574 -177.0062499999999943 #
face $-1 $259 $255 $2 $-1 $274 forward single #
cone-surface $-1 -311.1499999999999773 60.32499999999999574 111.125 0 -1 0 9.524999999999998579 0 0 1 I I 0 1 9.524999999999998579 forward I I I I #
loop $-1 $275 $276 $12 #
coedge $-1 $277 $277 $247 $278 forward $174 $-1 #
coedge $-1 $265 $175 $257 $279 forward $134 $-1 #
coedge $-1 $175 $265 $261 $280 forward $134 $-1 #
coedge $-1 $254 $253 $175 $226 reversed $255 $-1 #
edge $-1 $281 0 $282 26 $175 $283 forward 7 unknown #
edge $-1 $213 0 $215 3.141592653589793116 $176 $284 forward 7 unknown #
ellipse-curve $-1 -311.1499999999999773 60.32499999999999574 111.125 0 -1 0 -9.524999999999998579 0 0 1 I I #
ellipse-curve $-1 -79.375 60.32499999999999574 -177.0062499999999943 0 -1 0 6.35253999999999408 0 0 1 I I #
loop $-1 $285 $286 $3 #
coedge $-1 $287 $287 $288 $289 forward $181 $-1 #
coedge $-1 $182 $182 $290 $291 reversed $140 $-1 #
coedge $-1 $292 $293 $182 $234 forward $294 $-1 #
edge $-1 $295 0 $296 3.141592653589793116 $182 $297 forward 7 unknown #
coedge $-1 $298 $299 $183 $236 forward $300 $-1 #
edge $-1 $241 0 $240 3.141592653589793116 $183 $301 forward 7 unknown #
coedge $-1 $302 $184 $299 $303 reversed $239 $-1 #
coedge $-1 $184 $302 $298 $304 forward $239 $-1 #
loop $-1 $-1 $238 $305 #
vertex $-1 $236 $306 #
vertex $-1 $236 $307 #
ellipse-curve $-1 -288.9250000000000114 0 -166.6875 0 -1 0 19.04999999999999716 0 0 1 I I #
coedge $-1 $308 $186 $189 $249 reversed $245 $-1 #
coedge $-1 $186 $308 $188 $248 forward $245 $-1 #
loop $-1 $-1 $244 $309 #
ellipse-curve $-1 293.6875 0 166.6875 0 -1 0 -19.04999999999999716 0 0 1 I I #
coedge $-1 $189 $188 $222 $278 reversed $190 $-1 #
edge $-1 $310 0 $192 2.375 $244 $311 forward 7 unknown #
edge $-1 $312 0 $191 2.375 $243 $313 forward 7 unknown #
face $-1 $309 $190 $2 $-1 $314 reversed single #
point $-1 312.7374999999999545 0 166.6875 #
point $-1 274.6374999999999886 0 166.6875 #
coedge $-1 $225 $194 $197 $258 forward $255 $-1 #
coedge $-1 $194 $225 $201 $262 reversed $255 $-1 #
loop $-1 $-1 $253 $219 #
straight-curve $-1 330.1999999999999886 0 -201.6124999999999829 -25.39999999999999858 0 0 I I #
coedge $-1 $197 $196 $223 $279 reversed $198 $-1 #
edge $-1 $199 0 $282 2.375 $253 $315 forward 7 unknown #
face $-1 $209 $198 $2 $-1 $316 forward single #
point $-1 -330.1999999999999886 0 -201.6124999999999829 #
coedge $-1 $202 $201 $224 $280 reversed $203 $-1 #
edge $-1 $204 0 $281 2.375 $201 $317 forward 7 unknown #
face $-1 $250 $203 $2 $-1 $318 forward single #
point $-1 330.1999999999999886 0 -201.6124999999999829 #
coedge $-1 $224 $223 $206 $266 forward $134 $-1 #
edge $-1 $269 0 $267 26 $265 $319 forward 7 unknown #
vertex $-1 $280 $320 #
straight-curve $-1 330.1999999999999886 0 201.6124999999999829 0 25.39999999999999858 0 I I #
vertex $-1 $266 $321 #
straight-curve $-1 -330.1999999999999886 0 201.6124999999999829 0 25.39999999999999858 0 I I #
plane-surface $-1 -330.1999999999999886 0 201.6124999999999829 0 0 1 25.39999999999999858 0 0 forward_v I I I I #
point $-1 -301.625 60.32499999999999574 111.125 #
point $-1 -320.6749999999999545 60.32499999999999574 111.125 #
plane-surface $-1 330.1999999999999886 0 -201.6124999999999829 0 0 -1 -25.39999999999999858 0 0 forward_v I I I I #
loop $-1 $322 $323 $12 #
coedge $-1 $324 $324 $302 $325 forward $221 $-1 #
coedge $-1 $222 $222 $308 $326 forward $174 $-1 #
edge $-1 $312 0 $310 3.141592653589793116 $222 $327 forward 7 unknown #
edge $-1 $282 0 $269 15.875 $223 $328 forward 7 unknown #
edge $-1 $267 0 $281 15.875 $224 $329 forward 7 unknown #
vertex $-1 $280 $330 #
vertex $-1 $279 $331 #
straight-curve $-1 330.1999999999999886 60.32499999999999574 -201.6124999999999829 -25.39999999999999858 0 0 I I #
ellipse-curve $-1 -311.1499999999999773 60.32499999999999574 111.125 0 -1 0 9.524999999999998579 0 0 1 I I #
loop $-1 $332 $333 $3 #
coedge $-1 $334 $334 $335 $336 reversed $230 $-1 #
coedge $-1 $231 $231 $337 $338 forward $181 $-1 #
coedge $-1 $339 $340 $231 $289 reversed $341 $-1 #
edge $-1 $342 0 $343 3.141592653589793116 $231 $344 forward 7 unknown #
coedge $-1 $345 $346 $232 $291 forward $347 $-1 #
edge $-1 $296 0 $295 3.141592653589793116 $232 $348 forward 7 unknown #
coedge $-1 $349 $233 $346 $350 reversed $294 $-1 #
coedge $-1 $233 $349 $345 $351 forward $294 $-1 #
loop $-1 $-1 $292 $352 #
vertex $-1 $291 $353 #
vertex $-1 $291 $354 #
ellipse-curve $-1 311.1499999999999773 0 111.125 0 -1 0 -9.524999999999998579 0 0 1 I I #
coedge $-1 $355 $235 $238 $304 reversed $300 $-1 #
coedge $-1 $235 $355 $237 $303 forward $300 $-1 #
loop $-1 $-1 $299 $356 #
ellipse-curve $-1 -288.9250000000000114 0 -166.6875 0 -1 0 -19.04999999999999716 0 0 1 I I #
coedge $-1 $238 $237 $276 $325 reversed $239 $-1 #
edge $-1 $357 0 $241 2.375 $299 $358 forward 7 unknown #
edge $-1 $359 0 $240 2.375 $298 $360 forward 7 unknown #
face $-1 $356 $239 $2 $-1 $361 reversed single #
point $-1 -269.875 0 -166.6875 #
point $-1 -307.9749999999999659 0 -166.6875 #
coedge $-1 $244 $243 $277 $326 reversed $245 $-1 #
face $-1 $305 $245 $2 $-1 $362 reversed single #
vertex $-1 $326 $363 #
straight-curve $-1 274.6374999999999886 60.32499999999999574 166.6875 0 -25.39999999999999858 0 I I #
vertex $-1 $326 $364 #
straight-curve $-1 312.7374999999999545 60.32499999999999574 166.6875 0 -25.39999999999999858 0 I I #
cone-surface $-1 293.6875 63.34124999999999517 166.6875 0 -1 0 -19.04999999999999716 0 0 1 I I 0 1 19.04999999999999716 forward I I I I #
straight-curve $-1 -330.1999999999999886 0 -201.6124999999999829 0 25.39999999999999858 0 I I #
plane-surface $-1 -330.1999999999999886 0 -201.6124999999999829 -1 0 0 0 0 25.39999999999999858 forward_v I I I I #
straight-curve $-1 330.1999999999999886 0 -201.6124999999999829 0 25.39999999999999858 0 I I #
plane-surface $-1 330.1999999999999886 0 201.6124999999999829 1 0 0 0 0 -25.39999999999999858 forward_v I I I I #
straight-curve $-1 -330.1999999999999886 60.32499999999999574 201.6124999999999829 25.39999999999999858 0 0 I I #
point $-1 330.1999999999999886 60.32499999999999574 201.6124999999999829 #
point $-1 -330.1999999999999886 60.32499999999999574 201.6124999999999829 #
loop $-1 $365 $366 $12 #
coedge $-1 $367 $367 $349 $368 forward $275 $-1 #
coedge $-1 $276 $276 $355 $369 forward $221 $-1 #
edge $-1 $359 0 $357 3.141592653589793116 $276 $370 forward 7 unknown #
edge $-1 $310 0 $312 3.141592653589793116 $277 $371 forward 7 unknown #
ellipse-curve $-1 293.6875 60.32499999999999574 166.6875 0 -1 0 19.04999999999999716 0 0 1 I I #
straight-curve $-1 -330.1999999999999886 60.32499999999999574 -201.6124999999999829 0 0 25.39999999999999858 I I #
straight-curve $-1 330.1999999999999886 60.32499999999999574 201.6124999999999829 0 0 -25.39999999999999858 I I #
point $-1 330.1999999999999886 60.32499999999999574 -201.6124999999999829 #
point $-1 -330.1999999999999886 60.32499999999999574 -201.6124999999999829 #
loop $-1 $372 $373 $3 #
coedge $-1 $374 $374 $375 $376 reversed $285 $-1 #
coedge $-1 $286 $286 $377 $378 reversed $230 $-1 #
coedge $-1 $379 $380 $286 $336 forward $381 $-1 #
edge $-1 $382 0 $383 3.141592653589793116 $286 $384 forward 7 unknown #
coedge $-1 $385 $386 $287 $338 reversed $387 $-1 #
edge $-1 $343 0 $342 3.141592653589793116 $287 $388 forward 7 unknown #
coedge $-1 $389 $288 $386 $390 reversed $341 $-1 #
coedge $-1 $288 $389 $385 $391 forward $341 $-1 #
loop $-1 $-1 $339 $392 #
vertex $-1 $338 $393 #
vertex $-1 $338 $394 #
ellipse-curve $-1 311.1499999999999773 0 -111.125 0 1 0 -9.524999999999998579 0 0 1 I I #
coedge $-1 $395 $290 $293 $351 reversed $347 $-1 #
coedge $-1 $290 $395 $292 $350 forward $347 $-1 #
loop $-1 $-1 $345 $396 #
ellipse-curve $-1 311.1499999999999773 0 111.125 0 -1 0 9.524999999999998579 0 0 1 I I #
coedge $-1 $293 $292 $323 $368 reversed $294 $-1 #
edge $-1 $397 0 $296 2.375 $346 $398 forward 7 unknown #
edge $-1 $399 0 $295 2.375 $345 $400 forward 7 unknown #
face $-1 $396 $294 $2 $-1 $401 reversed single #
point $-1 301.625 0 111.125 #
point $-1 320.6749999999999545 0 111.125 #
coedge $-1 $299 $298 $324 $369 reversed $300 $-1 #
face $-1 $352 $300 $2 $-1 $402 reversed single #
vertex $-1 $369 $403 #
straight-curve $-1 -307.9749999999999659 60.32499999999999574 -166.6875 0 -25.39999999999999858 0 I I #
vertex $-1 $369 $404 #
straight-curve $-1 -269.875 60.32499999999999574 -166.6875 0 -25.39999999999999858 0 I I #
cone-surface $-1 -288.9250000000000114 63.34124999999999517 -166.6875 0 -1 0 -19.04999999999999716 0 0 1 I I 0 1 19.04999999999999716 forward I I I I #
cone-surface $-1 293.6875 63.34124999999999517 166.6875 0 -1 0 -19.04999999999999716 0 0 1 I I 0 1 19.04999999999999716 forward I I I I #
point $-1 274.6374999999999886 60.32499999999999574 166.6875 #
point $-1 312.7374999999999545 60.32499999999999574 166.6875 #
loop $-1 $405 $406 $12 #
coedge $-1 $407 $407 $389 $408 reversed $322 $-1 #
coedge $-1 $323 $323 $395 $409 forward $275 $-1 #
edge $-1 $399 0 $397 3.141592653589793116 $323 $410 forward 7 unknown #
edge $-1 $357 0 $359 3.141592653589793116 $324 $411 forward 7 unknown #
ellipse-curve $-1 -288.9250000000000114 60.32499999999999574 -166.6875 0 -1 0 19.04999999999999716 0 0 1 I I #
ellipse-curve $-1 293.6875 60.32499999999999574 166.6875 0 -1 0 -19.04999999999999716 0 0 1 I I #
loop $-1 $412 $413 $3 #
coedge $-1 $414 $414 $415 $416 forward $332 $-1 #
coedge $-1 $333 $333 $417 $418 reversed $285 $-1 #
coedge $-1 $419 $420 $333 $376 forward $421 $-1 #
edge $-1 $422 0 $423 3.141592653589793116 $333 $424 forward 7 unknown #
coedge $-1 $425 $426 $334 $378 forward $427 $-1 #
edge $-1 $383 0 $382 3.141592653589793116 $334 $428 forward 7 unknown #
coedge $-1 $429 $335 $426 $430 reversed $381 $-1 #
coedge $-1 $335 $429 $425 $431 forward $381 $-1 #
loop $-1 $-1 $379 $432 #
vertex $-1 $378 $433 #
vertex $-1 $378 $434 #
ellipse-curve $-1 -307.9749999999999659 0 -111.125 0 -1 0 -9.524999999999998579 0 0 1 I I #
coedge $-1 $435 $337 $340 $391 reversed $387 $-1 #
coedge $-1 $337 $435 $339 $390 forward $387 $-1 #
loop $-1 $-1 $385 $436 #
ellipse-curve $-1 311.1499999999999773 0 -111.125 0 1 0 9.524999999999998579 0 0 1 I I #
coedge $-1 $340 $339 $366 $408 forward $341 $-1 #
edge $-1 $437 0 $342 2.375 $386 $438 forward 7 unknown #
edge $-1 $439 0 $343 2.375 $385 $440 forward 7 unknown #
face $-1 $436 $341 $2 $-1 $441 reversed single #
point $-1 301.625 0 -111.125 #
point $-1 320.6749999999999545 0 -111.125 #
coedge $-1 $346 $345 $367 $409 reversed $347 $-1 #
face $-1 $392 $347 $2 $-1 $442 reversed single #
vertex $-1 $409 $443 #
straight-curve $-1 320.6749999999999545 60.32499999999999574 111.125 0 -25.39999999999999858 0 I I #
vertex $-1 $409 $444 #
straight-curve $-1 301.625 60.32499999999999574 111.125 0 -25.39999999999999858 0 I I #
cone-surface $-1 311.1499999999999773 60.32499999999999574 111.125 0 -1 0 9.524999999999998579 0 0 1 I I 0 1 9.524999999999998579 forward I I I I #
cone-surface $-1 -288.9250000000000114 63.34124999999999517 -166.6875 0 -1 0 -19.04999999999999716 0 0 1 I I 0 1 19.04999999999999716 forward I I I I #
point $-1 -307.9749999999999659 60.32499999999999574 -166.6875 #
point $-1 -269.875 60.32499999999999574 -166.6875 #
loop $-1 $445 $446 $12 #
coedge $-1 $447 $447 $429 $448 forward $365 $-1 #
coedge $-1 $366 $366 $435 $449 reversed $322 $-1 #
edge $-1 $437 0 $439 3.141592653589793116 $366 $450 forward 7 unknown #
edge $-1 $397 0 $399 3.141592653589793116 $367 $451 forward 7 unknown #
ellipse-curve $-1 311.1499999999999773 60.32499999999999574 111.125 0 -1 0 -9.524999999999998579 0 0 1 I I #
ellipse-curve $-1 -288.9250000000000114 60.32499999999999574 -166.6875 0 -1 0 -19.04999999999999716 0 0 1 I I #
loop $-1 $452 $453 $3 #
coedge $-1 $454 $454 $455 $456 forward $372 $-1 #
coedge $-1 $373 $373 $457 $458 forward $332 $-1 #
coedge $-1 $459 $460 $373 $416 reversed $461 $-1 #
edge $-1 $462 0 $463 3.141592653589793116 $373 $464 forward 7 unknown #
coedge $-1 $465 $466 $374 $418 forward $467 $-1 #
edge $-1 $423 0 $422 3.141592653589792672 $374 $468 forward 7 unknown #
coedge $-1 $469 $375 $466 $470 reversed $421 $-1 #
coedge $-1 $375 $469 $465 $471 forward $421 $-1 #
loop $-1 $-1 $419 $472 #
vertex $-1 $418 $473 #
vertex $-1 $418 $474 #
ellipse-curve $-1 3.524958103184871819e-16 0 -1.762479051592435909e-16 0 -1 0 -4.762499999999999289 0 1.762479051592435909e-16 1 I I #
coedge $-1 $475 $377 $380 $431 reversed $427 $-1 #
coedge $-1 $377 $475 $379 $430 forward $427 $-1 #
loop $-1 $-1 $425 $476 #
ellipse-curve $-1 -307.9749999999999659 0 -111.125 0 -1 0 9.524999999999998579 0 0 1 I I #
coedge $-1 $380 $379 $406 $448 reversed $381 $-1 #
edge $-1 $477 0 $383 2.375 $426 $478 forward 7 unknown #
edge $-1 $479 0 $382 2.375 $425 $480 forward 7 unknown #
face $-1 $476 $381 $2 $-1 $481 reversed single #
point $-1 -317.5 0 -111.125 #
point $-1 -298.4499999999999886 0 -111.125 #
coedge $-1 $386 $385 $407 $449 forward $387 $-1 #
face $-1 $432 $387 $2 $-1 $482 reversed single #
vertex $-1 $449 $483 #
straight-curve $-1 301.625 60.32499999999999574 -111.125 0 -25.39999999999999858 0 I I #
vertex $-1 $449 $484 #
straight-curve $-1 320.6749999999999545 60.32499999999999574 -111.125 0 -25.39999999999999858 0 I I #
cone-surface $-1 311.1499999999999773 60.32499999999999574 -111.125 0 1 0 9.524999999999998579 0 0 1 I I 0 1 9.524999999999998579 forward I I I I #
cone-surface $-1 311.1499999999999773 60.32499999999999574 111.125 0 -1 0 9.524999999999998579 0 0 1 I I 0 1 9.524999999999998579 forward I I I I #
point $-1 320.6749999999999545 60.32499999999999574 111.125 #
point $-1 301.625 60.32499999999999574 111.125 #
loop $-1 $485 $486 $12 #
coedge $-1 $487 $487 $469 $488 forward $405 $-1 #
coedge $-1 $406 $406 $475 $489 forward $365 $-1 #
edge $-1 $479 0 $477 3.141592653589793116 $406 $490 forward 7 unknown #
edge $-1 $439 0 $437 3.141592653589793116 $407 $491 forward 7 unknown #
ellipse-curve $-1 311.1499999999999773 60.32499999999999574 -111.125 0 1 0 -9.524999999999998579 0 0 1 I I #
ellipse-curve $-1 311.1499999999999773 60.32499999999999574 111.125 0 -1 0 9.524999999999998579 0 0 1 I I #
loop $-1 $492 $493 $3 #
coedge $-1 $494 $494 $495 $496 reversed $412 $-1 #
coedge $-1 $413 $413 $497 $498 forward $372 $-1 #
coedge $-1 $499 $500 $413 $456 reversed $501 $-1 #
edge $-1 $502 0 $503 3.141592653589793116 $413 $504 forward 7 unknown #
coedge $-1 $505 $506 $414 $458 reversed $507 $-1 #
edge $-1 $463 0 $462 3.141592653589793116 $414 $508 forward 7 unknown #
coedge $-1 $509 $415 $506 $510 reversed $461 $-1 #
coedge $-1 $415 $509 $505 $511 forward $461 $-1 #
loop $-1 $-1 $459 $512 #
vertex $-1 $458 $513 #
vertex $-1 $458 $514 #
ellipse-curve $-1 293.6875 0 -166.6875 0 1 0 19.04999999999999716 0 0 1 I I #
coedge $-1 $515 $417 $420 $471 reversed $467 $-1 #
coedge $-1 $417 $515 $419 $470 forward $467 $-1 #
loop $-1 $-1 $465 $516 #
ellipse-curve $-1 3.524958103184871819e-16 0 -8.81239525796218004e-16 0 -1 0 4.762499999999999289 0 8.81239525796218004e-16 1 I I #
coedge $-1 $420 $419 $446 $488 reversed $421 $-1 #
edge $-1 $517 0 $423 2.375 $466 $518 forward 7 unknown #
edge $-1 $519 0 $422 2.375 $465 $520 forward 7 unknown #
face $-1 $516 $421 $2 $-1 $521 reversed single #
point $-1 -4.762499999999999289 0 0 #
point $-1 4.762499999999999289 0 0 #
coedge $-1 $426 $425 $447 $489 reversed $427 $-1 #
face $-1 $472 $427 $2 $-1 $522 reversed single #
vertex $-1 $489 $523 #
straight-curve $-1 -298.4499999999999886 60.32499999999999574 -111.125 0 -25.39999999999999858 0 I I #
vertex $-1 $489 $524 #
straight-curve $-1 -317.5 60.32499999999999574 -111.125 0 -25.39999999999999858 0 I I #
cone-surface $-1 -307.9749999999999659 60.32499999999999574 -111.125 0 -1 0 9.524999999999998579 0 0 1 I I 0 1 9.524999999999998579 forward I I I I #
cone-surface $-1 311.1499999999999773 60.32499999999999574 -111.125 0 1 0 9.524999999999998579 0 0 1 I I 0 1 9.524999999999998579 forward I I I I #
point $-1 301.625 60.32499999999999574 -111.125 #
point $-1 320.6749999999999545 60.32499999999999574 -111.125 #
loop $-1 $525 $526 $12 #
coedge $-1 $527 $527 $509 $528 reversed $445 $-1 #
coedge $-1 $446 $446 $515 $529 forward $405 $-1 #
edge $-1 $519 0 $517 3.141592653589793116 $446 $530 forward 7 unknown #
edge $-1 $477 0 $479 3.141592653589793116 $447 $531 forward 7 unknown #
ellipse-curve $-1 -307.9749999999999659 60.32499999999999574 -111.125 0 -1 0 -9.524999999999998579 0 0 1 I I #
ellipse-curve $-1 311.1499999999999773 60.32499999999999574 -111.125 0 1 0 9.524999999999998579 0 0 1 I I #
loop $-1 $532 $533 $3 #
coedge $-1 $534 $534 $535 $536 reversed $452 $-1 #
coedge $-1 $453 $453 $537 $538 reversed $412 $-1 #
coedge $-1 $539 $540 $453 $496 forward $541 $-1 #
edge $-1 $542 0 $543 3.141592653589793116 $453 $544 forward 7 unknown #
coedge $-1 $545 $546 $454 $498 reversed $547 $-1 #
edge $-1 $503 0 $502 3.141592653589793116 $454 $548 forward 7 unknown #
coedge $-1 $549 $455 $546 $550 reversed $501 $-1 #
coedge $-1 $455 $549 $545 $551 forward $501 $-1 #
loop $-1 $-1 $499 $552 #
vertex $-1 $498 $553 #
vertex $-1 $498 $554 #
ellipse-curve $-1 -293.6875 0 166.6875 0 1 0 -19.04999999999999716 0 0 1 I I #
coedge $-1 $555 $457 $460 $511 reversed $507 $-1 #
coedge $-1 $457 $555 $459 $510 forward $507 $-1 #
loop $-1 $-1 $505 $556 #
ellipse-curve $-1 293.6875 0 -166.6875 0 1 0 -19.04999999999999716 0 0 1 I I #
coedge $-1 $460 $459 $486 $528 forward $461 $-1 #
edge $-1 $557 0 $462 2.375 $506 $558 forward 7 unknown #
edge $-1 $559 0 $463 2.375 $505 $560 forward 7 unknown #
face $-1 $556 $461 $2 $-1 $561 reversed single #
point $-1 312.7374999999999545 0 -166.6875 #
point $-1 274.6374999999999886 0 -166.6875 #
coedge $-1 $466 $465 $487 $529 reversed $467 $-1 #
face $-1 $512 $467 $2 $-1 $562 reversed single #
vertex $-1 $529 $563 #
straight-curve $-1 4.762499999999999289 60.32499999999999574 0 0 -25.39999999999999858 0 I I #
vertex $-1 $529 $564 #
straight-curve $-1 -4.762499999999999289 60.32499999999999574 5.832187760079071298e-16 0 -25.39999999999999858 0 I I #
cone-surface $-1 0 60.32499999999999574 0 0 -1 0 4.762499999999999289 0 0 1 I I 0 1 4.762499999999999289 forward I I I I #
cone-surface $-1 -307.9749999999999659 60.32499999999999574 -111.125 0 -1 0 9.524999999999998579 0 0 1 I I 0 1 9.524999999999998579 forward I I I I #
point $-1 -298.4499999999999886 60.32499999999999574 -111.125 #
point $-1 -317.5 60.32499999999999574 -111.125 #
loop $-1 $565 $566 $12 #
coedge $-1 $567 $567 $549 $568 reversed $485 $-1 #
coedge $-1 $486 $486 $555 $569 reversed $445 $-1 #
edge $-1 $557 0 $559 3.141592653589793116 $486 $570 forward 7 unknown #
edge $-1 $517 0 $519 3.141592653589793116 $487 $571 forward 7 unknown #
ellipse-curve $-1 0 60.32499999999999574 0 0 -1 0 -4.762499999999999289 0 0 1 I I #
ellipse-curve $-1 -307.9749999999999659 60.32499999999999574 -111.125 0 -1 0 9.524999999999998579 0 0 1 I I #
loop $-1 $572 $573 $3 #
coedge $-1 $574 $574 $575 $576 reversed $492 $-1 #
coedge $-1 $493 $493 $577 $578 reversed $452 $-1 #
coedge $-1 $579 $580 $493 $536 forward $581 $-1 #
edge $-1 $582 0 $583 3.141592653589793116 $493 $584 forward 7 unknown #
coedge $-1 $585 $586 $494 $538 forward $587 $-1 #
edge $-1 $543 0 $542 3.141592653589793116 $494 $588 forward 7 unknown #
coedge $-1 $589 $495 $586 $590 reversed $541 $-1 #
coedge $-1 $495 $589 $585 $591 forward $541 $-1 #
loop $-1 $-1 $539 $592 #
vertex $-1 $538 $593 #
vertex $-1 $538 $594 #
ellipse-curve $-1 234.9499999999999886 0 177.0062499999999943 0 -1 0 -9.527539999999993015 0 0 1 I I #
coedge $-1 $595 $497 $500 $551 reversed $547 $-1 #
coedge $-1 $497 $595 $499 $550 forward $547 $-1 #
loop $-1 $-1 $545 $596 #
ellipse-curve $-1 -293.6875 0 166.6875 0 1 0 19.04999999999999716 0 0 1 I I #
coedge $-1 $500 $499 $526 $568 forward $501 $-1 #
edge $-1 $597 0 $502 2.375 $546 $598 forward 7 unknown #
edge $-1 $599 0 $503 2.375 $545 $600 forward 7 unknown #
face $-1 $596 $501 $2 $-1 $601 reversed single #
point $-1 -312.7374999999999545 0 166.6875 #
point $-1 -274.6374999999999886 0 166.6875 #
coedge $-1 $506 $505 $527 $569 forward $507 $-1 #
face $-1 $552 $507 $2 $-1 $602 reversed single #
vertex $-1 $569 $603 #
straight-curve $-1 312.7374999999999545 60.32499999999999574 -166.6875 0 -25.39999999999999858 0 I I #
vertex $-1 $569 $604 #
straight-curve $-1 274.6374999999999886 60.32499999999999574 -166.6875 0 -25.39999999999999858 0 I I #
cone-surface $-1 293.6875 63.34124999999999517 -166.6875 0 1 0 -19.04999999999999716 0 0 1 I I 0 1 19.04999999999999716 forward I I I I #
cone-surface $-1 0 60.32499999999999574 0 0 -1 0 4.762499999999999289 0 0 1 I I 0 1 4.762499999999999289 forward I I I I #
point $-1 4.762499999999999289 60.32499999999999574 0 #
point $-1 -4.762499999999999289 60.32499999999999574 0 #
loop $-1 $605 $606 $12 #
coedge $-1 $607 $607 $589 $608 forward $525 $-1 #
coedge $-1 $526 $526 $595 $609 reversed $485 $-1 #
edge $-1 $597 0 $599 3.141592653589793116 $526 $610 forward 7 unknown #
edge $-1 $559 0 $557 3.141592653589793116 $527 $611 forward 7 unknown #
ellipse-curve $-1 293.6875 60.32499999999999574 -166.6875 0 1 0 19.04999999999999716 0 0 1 I I #
ellipse-curve $-1 0 60.32499999999999574 0 0 -1 0 4.762499999999999289 0 0 1 I I #
loop $-1 $-1 $612 $3 #
coedge $-1 $613 $613 $614 $615 reversed $532 $-1 #
coedge $-1 $533 $533 $616 $617 reversed $492 $-1 #
coedge $-1 $618 $619 $533 $576 forward $620 $-1 #
edge $-1 $621 0 $622 3.141592653589793116 $533 $623 forward 7 unknown #
coedge $-1 $624 $625 $534 $578 forward $626 $-1 #
edge $-1 $583 0 $582 3.141592653589793116 $534 $627 forward 7 unknown #
coedge $-1 $628 $535 $625 $629 reversed $581 $-1 #
coedge $-1 $535 $628 $624 $630 forward $581 $-1 #
loop $-1 $-1 $579 $631 #
vertex $-1 $578 $632 #
vertex $-1 $578 $633 #
ellipse-curve $-1 -79.375 0 177.0062499999999943 0 -1 0 -6.35253999999999408 0 0 1 I I #
coedge $-1 $634 $537 $540 $591 reversed $587 $-1 #
coedge $-1 $537 $634 $539 $590 forward $587 $-1 #
loop $-1 $-1 $585 $635 #
ellipse-curve $-1 234.9499999999999886 0 177.0062499999999943 0 -1 0 9.527539999999993015 0 0 1 I I #
coedge $-1 $540 $539 $566 $608 reversed $541 $-1 #
edge $-1 $636 0 $543 2.375 $586 $637 forward 7 unknown #
edge $-1 $638 0 $542 2.375 $585 $639 forward 7 unknown #
face $-1 $635 $541 $2 $-1 $640 reversed single #
point $-1 225.4224600000000009 0 177.0062499999999943 #
point $-1 244.4775399999999763 0 177.0062499999999943 #
coedge $-1 $546 $545 $567 $609 forward $547 $-1 #
face $-1 $592 $547 $2 $-1 $641 reversed single #
vertex $-1 $609 $642 #
straight-curve $-1 -312.7374999999999545 60.32499999999999574 166.6875 0 -25.39999999999999858 0 I I #
vertex $-1 $609 $643 #
straight-curve $-1 -274.6374999999999886 60.32499999999999574 166.6875 0 -25.39999999999999858 0 I I #
cone-surface $-1 -293.6875 63.34124999999999517 166.6875 0 1 0 19.04999999999999716 0 0 1 I I 0 1 19.04999999999999716 forward I I I I #
cone-surface $-1 293.6875 63.34124999999999517 -166.6875 0 1 0 -19.04999999999999716 0 0 1 I I 0 1 19.04999999999999716 forward I I I I #
point $-1 312.7374999999999545 60.32499999999999574 -166.6875 #
point $-1 274.6374999999999886 60.32499999999999574 -166.6875 #
loop $-1 $644 $645 $12 #
coedge $-1 $646 $646 $628 $647 forward $565 $-1 #
coedge $-1 $566 $566 $634 $648 forward $525 $-1 #
edge $-1 $638 0 $636 3.141592653589793116 $566 $649 forward 7 unknown #
edge $-1 $599 0 $597 3.141592653589793116 $567 $650 forward 7 unknown #
ellipse-curve $-1 -293.6875 60.32499999999999574 166.6875 0 1 0 -19.04999999999999716 0 0 1 I I #
ellipse-curve $-1 293.6875 60.32499999999999574 -166.6875 0 1 0 -19.04999999999999716 0 0 1 I I #
coedge $-1 $651 $651 $652 $653 reversed $572 $-1 #
coedge $-1 $573 $573 $654 $655 reversed $532 $-1 #
coedge $-1 $656 $657 $573 $615 forward $658 $-1 #
edge $-1 $659 0 $660 3.141592653589793116 $573 $661 forward 7 unknown #
coedge $-1 $662 $663 $574 $617 forward $664 $-1 #
edge $-1 $622 0 $621 3.141592653589793116 $574 $665 forward 7 unknown #
coedge $-1 $666 $575 $663 $667 reversed $620 $-1 #
coedge $-1 $575 $666 $662 $668 forward $620 $-1 #
loop $-1 $-1 $618 $669 #
vertex $-1 $617 $670 #
vertex $-1 $617 $671 #
ellipse-curve $-1 -234.9499999999999886 0 -177.0075199999999995 0 -1 0 -9.527539999999993015 0 0 1 I I #
coedge $-1 $672 $577 $580 $630 reversed $626 $-1 #
coedge $-1 $577 $672 $579 $629 forward $626 $-1 #
loop $-1 $-1 $624 $673 #
ellipse-curve $-1 -79.375 0 177.0062499999999943 0 -1 0 6.35253999999999408 0 0 1 I I #
coedge $-1 $580 $579 $606 $647 reversed $581 $-1 #
edge $-1 $674 0 $583 2.375 $625 $675 forward 7 unknown #
edge $-1 $676 0 $582 2.375 $624 $677 forward 7 unknown #
face $-1 $673 $581 $2 $-1 $678 reversed single #
point $-1 -85.72753999999999053 0 177.0062499999999943 #
point $-1 -73.02245999999999526 0 177.0062499999999943 #
coedge $-1 $586 $585 $607 $648 reversed $587 $-1 #
face $-1 $631 $587 $2 $-1 $679 reversed single #
vertex $-1 $648 $680 #
straight-curve $-1 244.4775399999999763 60.32499999999999574 177.0062499999999943 0 -25.39999999999999858 0 I I #
vertex $-1 $648 $681 #
straight-curve $-1 225.4224600000000009 60.32499999999999574 177.0062499999999943 0 -25.39999999999999858 0 I I #
cone-surface $-1 234.9499999999999886 60.32499999999999574 177.0062499999999943 0 -1 0 9.527539999999998344 0 0 1 I I 0 1 9.527539999999998344 forward I I I I #
cone-surface $-1 -293.6875 63.34124999999999517 166.6875 0 1 0 19.04999999999999716 0 0 1 I I 0 1 19.04999999999999716 forward I I I I #
point $-1 -312.7374999999999545 60.32499999999999574 166.6875 #
point $-1 -274.6374999999999886 60.32499999999999574 166.6875 #
loop $-1 $682 $683 $12 #
coedge $-1 $684 $684 $666 $685 forward $605 $-1 #
coedge $-1 $606 $606 $672 $686 forward $565 $-1 #
edge $-1 $676 0 $674 3.141592653589793116 $606 $687 forward 7 unknown #
edge $-1 $636 0 $638 3.141592653589793116 $607 $688 forward 7 unknown #
ellipse-curve $-1 234.9499999999999886 60.32499999999999574 177.0062499999999943 0 -1 0 -9.527539999999993015 0 0 1 I I #
ellipse-curve $-1 -293.6875 60.32499999999999574 166.6875 0 1 0 19.04999999999999716 0 0 1 I I #
coedge $-1 $612 $612 $689 $690 reversed $572 $-1 #
coedge $-1 $691 $692 $612 $653 forward $693 $-1 #
edge $-1 $694 0 $695 3.141592653589793116 $612 $696 forward 7 unknown #
coedge $-1 $697 $698 $613 $655 forward $699 $-1 #
edge $-1 $660 0 $659 3.141592653589793116 $613 $700 forward 7 unknown #
coedge $-1 $701 $614 $698 $702 reversed $658 $-1 #
coedge $-1 $614 $701 $697 $703 forward $658 $-1 #
loop $-1 $-1 $656 $704 #
vertex $-1 $655 $705 #
vertex $-1 $655 $706 #
ellipse-curve $-1 -234.9499999999999886 0 177.0062499999999943 0 -1 0 -6.35253999999999408 0 0 1 I I #
coedge $-1 $707 $616 $619 $668 reversed $664 $-1 #
coedge $-1 $616 $707 $618 $667 forward $664 $-1 #
loop $-1 $-1 $662 $708 #
ellipse-curve $-1 -234.9499999999999886 0 -177.0075199999999995 0 -1 0 9.527539999999993015 0 0 1 I I #
coedge $-1 $619 $618 $645 $685 reversed $620 $-1 #
edge $-1 $709 0 $622 2.375 $663 $710 forward 7 unknown #
edge $-1 $711 0 $621 2.375 $662 $712 forward 7 unknown #
face $-1 $708 $620 $2 $-1 $713 reversed single #
point $-1 -244.4775399999999763 0 -177.0075199999999995 #
point $-1 -225.4224600000000009 0 -177.0075199999999995 #
coedge $-1 $625 $624 $646 $686 reversed $626 $-1 #
face $-1 $669 $626 $2 $-1 $714 reversed single #
vertex $-1 $686 $715 #
straight-curve $-1 -73.02245999999999526 60.32499999999999574 177.0062499999999943 0 -25.39999999999999858 0 I I #
vertex $-1 $686 $716 #
straight-curve $-1 -85.72753999999999053 60.32499999999999574 177.0062499999999943 0 -25.39999999999999858 0 I I #
cone-surface $-1 -79.375 60.32499999999999574 177.0062499999999943 0 -1 0 6.352539999999999409 0 0 1 I I 0 1 6.352539999999999409 forward I I I I #
cone-surface $-1 234.9499999999999886 60.32499999999999574 177.0062499999999943 0 -1 0 9.527539999999998344 0 0 1 I I 0 1 9.527539999999998344 forward I I I I #
point $-1 244.4775399999999763 60.32499999999999574 177.0062499999999943 #
point $-1 225.4224600000000009 60.32499999999999574 177.0062499999999943 #
loop $-1 $-1 $717 $12 #
coedge $-1 $718 $718 $701 $719 forward $644 $-1 #
coedge $-1 $645 $645 $707 $720 forward $605 $-1 #
edge $-1 $711 0 $709 3.141592653589793116 $645 $721 forward 7 unknown #
edge $-1 $674 0 $676 3.141592653589793116 $646 $722 forward 7 unknown #
ellipse-curve $-1 -79.375 60.32499999999999574 177.0062499999999943 0 -1 0 -6.35253999999999408 0 0 1 I I #
ellipse-curve $-1 234.9499999999999886 60.32499999999999574 177.0062499999999943 0 -1 0 9.527539999999993015 0 0 1 I I #
coedge $-1 $723 $724 $651 $690 forward $725 $-1 #
edge $-1 $695 0 $694 3.141592653589793116 $651 $726 forward 7 unknown #
coedge $-1 $727 $652 $724 $728 reversed $693 $-1 #
coedge $-1 $652 $727 $723 $729 forward $693 $-1 #
loop $-1 $-1 $691 $730 #
vertex $-1 $690 $731 #
vertex $-1 $690 $732 #
ellipse-curve $-1 234.9499999999999886 0 -177.0075199999999995 0 -1 0 -6.35253999999999408 0 0 1 I I #
coedge $-1 $733 $654 $657 $703 reversed $699 $-1 #
coedge $-1 $654 $733 $656 $702 forward $699 $-1 #
loop $-1 $-1 $697 $734 #
ellipse-curve $-1 -234.9499999999999886 0 177.0062499999999943 0 -1 0 6.35253999999999408 0 0 1 I I #
coedge $-1 $657 $656 $683 $719 reversed $658 $-1 #
edge $-1 $735 0 $660 2.375 $698 $736 forward 7 unknown #
edge $-1 $737 0 $659 2.375 $697 $738 forward 7 unknown #
face $-1 $734 $658 $2 $-1 $739 reversed single #
point $-1 -241.3025399999999934 0 177.0062499999999943 #
point $-1 -228.5974599999999839 0 177.0062499999999943 #
coedge $-1 $663 $662 $684 $720 reversed $664 $-1 #
face $-1 $704 $664 $2 $-1 $740 reversed single #
vertex $-1 $720 $741 #
straight-curve $-1 -225.4224600000000009 60.32499999999999574 -177.0075199999999995 0 -25.39999999999999858 0 I I #
vertex $-1 $720 $742 #
straight-curve $-1 -244.4775399999999763 60.32499999999999574 -177.0075199999999995 0 -25.39999999999999858 0 I I #
cone-surface $-1 -234.9499999999999886 60.32499999999999574 -177.0075199999999995 0 -1 0 9.527539999999998344 0 0 1 I I 0 1 9.527539999999998344 forward I I I I #
cone-surface $-1 -79.375 60.32499999999999574 177.0062499999999943 0 -1 0 6.352539999999999409 0 0 1 I I 0 1 6.352539999999999409 forward I I I I #
point $-1 -73.02245999999999526 60.32499999999999574 177.0062499999999943 #
point $-1 -85.72753999999999053 60.32499999999999574 177.0062499999999943 #
coedge $-1 $743 $743 $727 $744 forward $682 $-1 #
coedge $-1 $683 $683 $733 $745 forward $644 $-1 #
edge $-1 $737 0 $735 3.141592653589793116 $683 $746 forward 7 unknown #
edge $-1 $709 0 $711 3.141592653589793116 $684 $747 forward 7 unknown #
ellipse-curve $-1 -234.9499999999999886 60.32499999999999574 -177.0075199999999995 0 -1 0 -9.527539999999993015 0 0 1 I I #
ellipse-curve $-1 -79.375 60.32499999999999574 177.0062499999999943 0 -1 0 6.35253999999999408 0 0 1 I I #
coedge $-1 $748 $689 $692 $729 reversed $725 $-1 #
coedge $-1 $689 $748 $691 $728 forward $725 $-1 #
loop $-1 $-1 $723 $749 #
ellipse-curve $-1 234.9499999999999886 0 -177.0075199999999995 0 -1 0 6.35253999999999408 0 0 1 I I #
coedge $-1 $692 $691 $717 $744 reversed $693 $-1 #
edge $-1 $750 0 $695 2.375 $724 $751 forward 7 unknown #
edge $-1 $752 0 $694 2.375 $723 $753 forward 7 unknown #
face $-1 $749 $693 $2 $-1 $754 reversed single #
point $-1 228.5974599999999839 0 -177.0075199999999995 #
point $-1 241.3025399999999934 0 -177.0075199999999995 #
coedge $-1 $698 $697 $718 $745 reversed $699 $-1 #
face $-1 $730 $699 $2 $-1 $755 reversed single #
vertex $-1 $745 $756 #
straight-curve $-1 -228.5974599999999839 60.32499999999999574 177.0062499999999943 0 -25.39999999999999858 0 I I #
vertex $-1 $745 $757 #
straight-curve $-1 -241.3025399999999934 60.32499999999999574 177.0062499999999943 0 -25.39999999999999858 0 I I #
cone-surface $-1 -234.9499999999999886 60.32499999999999574 177.0062499999999943 0 -1 0 6.352539999999999409 0 0 1 I I 0 1 6.352539999999999409 forward I I I I #
cone-surface $-1 -234.9499999999999886 60.32499999999999574 -177.0075199999999995 0 -1 0 9.527539999999998344 0 0 1 I I 0 1 9.527539999999998344 forward I I I I #
point $-1 -225.4224600000000009 60.32499999999999574 -177.0075199999999995 #
point $-1 -244.4775399999999763 60.32499999999999574 -177.0075199999999995 #
coedge $-1 $717 $717 $748 $758 forward $682 $-1 #
edge $-1 $752 0 $750 3.141592653589793116 $717 $759 forward 7 unknown #
edge $-1 $735 0 $737 3.141592653589793116 $718 $760 forward 7 unknown #
ellipse-curve $-1 -234.9499999999999886 60.32499999999999574 177.0062499999999943 0 -1 0 -6.35253999999999408 0 0 1 I I #
ellipse-curve $-1 -234.9499999999999886 60.32499999999999574 -177.0075199999999995 0 -1 0 9.527539999999993015 0 0 1 I I #
coedge $-1 $724 $723 $743 $758 reversed $725 $-1 #
face $-1 $-1 $725 $2 $-1 $761 reversed single #
vertex $-1 $758 $762 #
straight-curve $-1 241.3025399999999934 60.32499999999999574 -177.0075199999999995 0 -25.39999999999999858 0 I I #
vertex $-1 $758 $763 #
straight-curve $-1 228.5974599999999839 60.32499999999999574 -177.0075199999999995 0 -25.39999999999999858 0 I I #
cone-surface $-1 234.9499999999999886 60.32499999999999574 -177.0075199999999995 0 -1 0 6.352539999999999409 0 0 1 I I 0 1 6.352539999999999409 forward I I I I #
cone-surface $-1 -234.9499999999999886 60.32499999999999574 177.0062499999999943 0 -1 0 6.352539999999999409 0 0 1 I I 0 1 6.352539999999999409 forward I I I I #
point $-1 -228.5974599999999839 60.32499999999999574 177.0062499999999943 #
point $-1 -241.3025399999999934 60.32499999999999574 177.0062499999999943 #
edge $-1 $750 0 $752 3.141592653589793116 $743 $764 forward 7 unknown #
ellipse-curve $-1 234.9499999999999886 60.32499999999999574 -177.0075199999999995 0 -1 0 -6.35253999999999408 0 0 1 I I #
ellipse-curve $-1 -234.9499999999999886 60.32499999999999574 177.0062499999999943 0 -1 0 6.35253999999999408 0 0 1 I I #
cone-surface $-1 234.9499999999999886 60.32499999999999574 -177.0075199999999995 0 -1 0 6.352539999999999409 0 0 1 I I 0 1 6.352539999999999409 forward I I I I #
point $-1 241.3025399999999934 60.32499999999999574 -177.0075199999999995 #
point $-1 228.5974599999999839 60.32499999999999574 -177.0075199999999995 #
ellipse-curve $-1 234.9499999999999886 60.32499999999999574 -177.0075199999999995 0 -1 0 6.35253999999999408 0 0 1 I I #
End-of-ACIS-data 