600 0 1 0           
92 GICL Pro/E ACIS Translator - Source: f:/data5/repository/PTC/V18/mold18/1626sup_pl.prt - 6 0 13 ACIS 6.0.3 NT 24 Thu Apr 04 09:58:10 2002 
1 9.9999999999999995e-007 1e-010 
body $-1 $1 $-1 $2 #
lump $-1 $-1 $3 $0 #
transform $-1 1 0 0 0 1 0 0 0 1 0 0 0 25.399999999999999 no_rotate no_reflect no_shear #
shell $-1 $-1 $-1 $4 $-1 $1 #
face $-1 $5 $6 $3 $-1 $7 reversed single #
face $-1 $8 $9 $3 $-1 $10 reversed single #
loop $-1 $11 $12 $4 #
plane-surface $-1 0 0 0 0 1 0 -1 0 0 forward_v I I I I #
face $-1 $13 $14 $3 $-1 $15 reversed single #
loop $-1 $-1 $16 $5 #
cone-surface $-1 3.125 2.375 -6.96875 0 -1 0 0.25009999999999999 0 0 1 I I 0 1 0.25009999999999999 forward I I I I #
loop $-1 $17 $18 $4 #
coedge $-1 $19 $19 $20 $21 reversed $6 $-1 #
face $-1 $22 $23 $3 $-1 $24 forward single #
loop $-1 $-1 $25 $8 #
cone-surface $-1 3.125 2.375 -6.96875 0 -1 0 0.25009999999999999 0 0 1 I I 0 1 0.25009999999999999 forward I I I I #
coedge $-1 $26 $20 $27 $28 reversed $9 $-1 #
loop $-1 $29 $30 $4 #
coedge $-1 $31 $31 $32 $33 reversed $11 $-1 #
coedge $-1 $12 $12 $34 $35 reversed $6 $-1 #
coedge $-1 $16 $36 $12 $21 forward $9 $-1 #
edge $-1 $37 0 $38 3.1415926535897931 $12 $39 forward 7 unknown #
face $-1 $40 $41 $3 $-1 $42 reversed single #
loop $-1 $43 $44 $13 #
plane-surface $-1 0 2.375 0 0 1 0 -1 0 0 forward_v I I I I #
coedge $-1 $45 $34 $36 $46 reversed $14 $-1 #
coedge $-1 $36 $16 $44 $47 reversed $9 $-1 #
coedge $-1 $34 $45 $16 $28 forward $14 $-1 #
edge $-1 $48 0 $38 2.375 $27 $49 forward 7 unknown #
loop $-1 $50 $51 $4 #
coedge $-1 $52 $52 $53 $54 reversed $17 $-1 #
coedge $-1 $18 $18 $55 $56 reversed $11 $-1 #
coedge $-1 $57 $58 $18 $33 forward $41 $-1 #
edge $-1 $59 0 $60 3.1415926535897931 $18 $61 forward 7 unknown #
coedge $-1 $25 $27 $19 $35 forward $14 $-1 #
edge $-1 $38 0 $37 3.1415926535897931 $19 $62 forward 7 unknown #
coedge $-1 $20 $26 $25 $46 forward $9 $-1 #
vertex $-1 $35 $63 #
vertex $-1 $35 $64 #
ellipse-curve $-1 3.125 0 -6.96875 0 -1 0 -0.25009999999999977 0 0 1 I I #
face $-1 $65 $66 $3 $-1 $67 reversed single #
loop $-1 $-1 $57 $22 #
cone-surface $-1 3.125 2.375 6.96875 0 -1 0 0.25009999999999999 0 0 1 I I 0 1 0.25009999999999999 forward I I I I #
loop $-1 $68 $69 $13 #
coedge $-1 $70 $70 $26 $47 forward $23 $-1 #
coedge $-1 $27 $25 $70 $71 reversed $14 $-1 #
edge $-1 $72 0 $37 2.375 $25 $73 forward 7 unknown #
edge $-1 $72 0 $48 3.1415926535897931 $44 $74 forward 7 unknown #
vertex $-1 $71 $75 #
straight-curve $-1 3.3750999999999998 2.375 -6.96875 0 -1 0 I I #
loop $-1 $76 $77 $4 #
coedge $-1 $78 $78 $79 $80 reversed $29 $-1 #
coedge $-1 $30 $30 $81 $82 reversed $17 $-1 #
coedge $-1 $83 $84 $30 $54 forward $85 $-1 #
edge $-1 $86 0 $87 3.1415926535897931 $30 $88 forward 7 unknown #
coedge $-1 $89 $90 $31 $56 forward $66 $-1 #
edge $-1 $60 0 $59 3.1415926535897931 $31 $91 forward 7 unknown #
coedge $-1 $92 $32 $90 $93 reversed $41 $-1 #
coedge $-1 $32 $92 $89 $94 forward $41 $-1 #
vertex $-1 $56 $95 #
vertex $-1 $56 $96 #
ellipse-curve $-1 3.125 0 6.96875 0 -1 0 -0.25009999999999977 0 0 1 I I #
ellipse-curve $-1 3.125 0 -6.96875 0 -1 0 0.25009999999999977 0 0 1 I I #
point $-1 2.8749000000000002 0 -6.96875 #
point $-1 3.3750999999999998 0 -6.96875 #
face $-1 $97 $85 $3 $-1 $98 reversed single #
loop $-1 $-1 $89 $40 #
cone-surface $-1 3.125 2.375 6.96875 0 -1 0 0.25009999999999999 0 0 1 I I 0 1 0.25009999999999999 forward I I I I #
loop $-1 $99 $100 $13 #
coedge $-1 $101 $101 $92 $102 forward $43 $-1 #
coedge $-1 $44 $44 $45 $71 forward $23 $-1 #
edge $-1 $48 0 $72 3.1415926535897931 $70 $103 forward 7 unknown #
vertex $-1 $71 $104 #
straight-curve $-1 2.8749000000000002 2.375 -6.96875 0 -1 0 I I #
ellipse-curve $-1 3.125 2.375 -6.96875 0 -1 0 -0.25009999999999977 0 0 1 I I #
point $-1 3.3750999999999998 2.375 -6.96875 #
loop $-1 $105 $106 $4 #
coedge $-1 $107 $108 $109 $110 reversed $50 $-1 #
coedge $-1 $51 $51 $111 $112 reversed $29 $-1 #
coedge $-1 $113 $114 $51 $80 forward $115 $-1 #
edge $-1 $116 0 $117 3.1415926535897931 $51 $118 forward 7 unknown #
coedge $-1 $119 $120 $52 $82 forward $121 $-1 #
edge $-1 $87 0 $86 3.1415926535897931 $52 $122 forward 7 unknown #
coedge $-1 $123 $53 $120 $124 reversed $85 $-1 #
coedge $-1 $53 $123 $119 $125 forward $85 $-1 #
loop $-1 $-1 $83 $65 #
vertex $-1 $82 $126 #
vertex $-1 $82 $127 #
ellipse-curve $-1 -3.125 0 -6.96875 0 -1 0 -0.25009999999999977 0 0 1 I I #
coedge $-1 $128 $55 $58 $94 reversed $66 $-1 #
coedge $-1 $55 $128 $57 $93 forward $66 $-1 #
ellipse-curve $-1 3.125 0 6.96875 0 -1 0 0.25009999999999977 0 0 1 I I #
coedge $-1 $58 $57 $69 $102 reversed $41 $-1 #
edge $-1 $129 0 $60 2.375 $90 $130 forward 7 unknown #
edge $-1 $131 0 $59 2.375 $89 $132 forward 7 unknown #
point $-1 2.8749000000000002 0 6.96875 #
point $-1 3.3750999999999998 0 6.96875 #
face $-1 $133 $121 $3 $-1 $134 reversed single #
cone-surface $-1 -3.125 2.375 -6.96875 0 -1 0 0.25009999999999999 0 0 1 I I 0 1 0.25009999999999999 forward I I I I #
loop $-1 $135 $136 $13 #
coedge $-1 $137 $137 $123 $138 forward $68 $-1 #
coedge $-1 $69 $69 $128 $139 forward $43 $-1 #
edge $-1 $131 0 $129 3.1415926535897931 $69 $140 forward 7 unknown #
ellipse-curve $-1 3.125 2.375 -6.96875 0 -1 0 0.25009999999999977 0 0 1 I I #
point $-1 2.8749000000000002 2.375 -6.96875 #
loop $-1 $141 $142 $4 #
coedge $-1 $143 $143 $144 $145 reversed $76 $-1 #
coedge $-1 $146 $77 $147 $148 reversed $50 $-1 #
coedge $-1 $77 $146 $149 $150 reversed $50 $-1 #
coedge $-1 $151 $152 $77 $110 forward $153 $-1 #
edge $-1 $154 0 $155 26 $77 $156 forward 7 unknown #
coedge $-1 $157 $158 $78 $112 forward $159 $-1 #
edge $-1 $117 0 $116 3.1415926535897931 $78 $160 forward 7 unknown #
coedge $-1 $161 $79 $158 $162 reversed $115 $-1 #
coedge $-1 $79 $161 $157 $163 forward $115 $-1 #
loop $-1 $-1 $113 $133 #
vertex $-1 $112 $164 #
vertex $-1 $112 $165 #
ellipse-curve $-1 -12.25 0 4.375 0 -1 0 -0.375 0 0 1 I I #
coedge $-1 $166 $81 $84 $125 reversed $121 $-1 #
coedge $-1 $81 $166 $83 $124 forward $121 $-1 #
loop $-1 $-1 $119 $97 #
ellipse-curve $-1 -3.125 0 -6.96875 0 -1 0 0.25009999999999977 0 0 1 I I #
coedge $-1 $84 $83 $100 $138 reversed $85 $-1 #
edge $-1 $167 0 $87 2.375 $120 $168 forward 7 unknown #
edge $-1 $169 0 $86 2.375 $119 $170 forward 7 unknown #
point $-1 -3.3750999999999998 0 -6.96875 #
point $-1 -2.8749000000000002 0 -6.96875 #
coedge $-1 $90 $89 $101 $139 reversed $66 $-1 #
vertex $-1 $139 $171 #
straight-curve $-1 3.3750999999999998 2.375 6.96875 0 -1 0 I I #
vertex $-1 $139 $172 #
straight-curve $-1 2.8749000000000002 2.375 6.96875 0 -1 0 I I #
face $-1 $173 $115 $3 $-1 $174 reversed single #
cone-surface $-1 -3.125 2.375 -6.96875 0 -1 0 0.25009999999999999 0 0 1 I I 0 1 0.25009999999999999 forward I I I I #
loop $-1 $175 $176 $13 #
coedge $-1 $177 $177 $161 $178 forward $99 $-1 #
coedge $-1 $100 $100 $166 $179 forward $68 $-1 #
edge $-1 $169 0 $167 3.1415926535897931 $100 $180 forward 7 unknown #
edge $-1 $129 0 $131 3.1415926535897931 $101 $181 forward 7 unknown #
ellipse-curve $-1 3.125 2.375 6.96875 0 -1 0 -0.25009999999999977 0 0 1 I I #
loop $-1 $182 $183 $4 #
coedge $-1 $184 $184 $185 $186 reversed $105 $-1 #
coedge $-1 $106 $106 $187 $188 reversed $76 $-1 #
coedge $-1 $189 $190 $106 $145 forward $191 $-1 #
edge $-1 $192 0 $193 3.1415926535897931 $106 $194 forward 7 unknown #
coedge $-1 $108 $107 $195 $196 reversed $50 $-1 #
coedge $-1 $197 $198 $107 $148 forward $199 $-1 #
edge $-1 $200 0 $154 15.875 $107 $201 forward 7 unknown #
coedge $-1 $202 $203 $108 $150 forward $204 $-1 #
edge $-1 $155 0 $205 15.875 $108 $206 forward 7 unknown #
coedge $-1 $207 $109 $203 $208 forward $153 $-1 #
coedge $-1 $109 $207 $197 $209 reversed $153 $-1 #
loop $-1 $-1 $151 $210 #
vertex $-1 $148 $211 #
vertex $-1 $150 $212 #
straight-curve $-1 -13 0 7.9375 1 0 0 I I #
coedge $-1 $213 $111 $114 $163 reversed $159 $-1 #
coedge $-1 $111 $213 $113 $162 forward $159 $-1 #
loop $-1 $-1 $157 $173 #
ellipse-curve $-1 -12.25 0 4.375 0 -1 0 0.375 0 0 1 I I #
coedge $-1 $114 $113 $136 $178 reversed $115 $-1 #
edge $-1 $214 0 $117 2.375 $158 $215 forward 7 unknown #
edge $-1 $216 0 $116 2.375 $157 $217 forward 7 unknown #
point $-1 -12.625 0 4.375 #
point $-1 -11.875 0 4.375 #
coedge $-1 $120 $119 $137 $179 reversed $121 $-1 #
vertex $-1 $179 $218 #
straight-curve $-1 -2.8749000000000002 2.375 -6.96875 0 -1 0 I I #
vertex $-1 $179 $219 #
straight-curve $-1 -3.3750999999999998 2.375 -6.96875 0 -1 0 I I #
point $-1 3.3750999999999998 2.375 6.96875 #
point $-1 2.8749000000000002 2.375 6.96875 #
face $-1 $220 $159 $3 $-1 $221 reversed single #
cone-surface $-1 -12.25 2.375 4.375 0 -1 0 0.375 0 0 1 I I 0 1 0.375 forward I I I I #
loop $-1 $222 $223 $13 #
coedge $-1 $224 $225 $226 $227 forward $135 $-1 #
coedge $-1 $136 $136 $213 $228 forward $99 $-1 #
edge $-1 $216 0 $214 3.1415926535897931 $136 $229 forward 7 unknown #
edge $-1 $167 0 $169 3.1415926535897931 $137 $230 forward 7 unknown #
ellipse-curve $-1 -3.125 2.375 -6.96875 0 -1 0 -0.25009999999999977 0 0 1 I I #
ellipse-curve $-1 3.125 2.375 6.96875 0 -1 0 0.25009999999999977 0 0 1 I I #
loop $-1 $231 $232 $4 #
coedge $-1 $233 $233 $234 $235 reversed $141 $-1 #
coedge $-1 $142 $142 $236 $237 reversed $105 $-1 #
coedge $-1 $238 $239 $142 $186 forward $240 $-1 #
edge $-1 $241 0 $242 3.1415926535897931 $142 $243 forward 7 unknown #
coedge $-1 $244 $245 $143 $188 forward $246 $-1 #
edge $-1 $193 0 $192 3.1415926535897931 $143 $247 forward 7 unknown #
coedge $-1 $248 $144 $245 $249 reversed $191 $-1 #
coedge $-1 $144 $248 $244 $250 forward $191 $-1 #
loop $-1 $-1 $190 $251 #
vertex $-1 $188 $252 #
vertex $-1 $188 $253 #
ellipse-curve $-1 11.5625 0 6.5625 0 -1 0 0.75 0 0 1 I I #
coedge $-1 $254 $255 $146 $196 forward $256 $-1 #
edge $-1 $205 0 $200 26 $146 $257 forward 7 unknown #
coedge $-1 $258 $147 $152 $209 forward $199 $-1 #
coedge $-1 $147 $258 $254 $259 reversed $199 $-1 #
loop $-1 $-1 $197 $260 #
vertex $-1 $196 $261 #
straight-curve $-1 -13 0 -7.9375 0 0 1 I I #
coedge $-1 $262 $149 $255 $263 forward $204 $-1 #
coedge $-1 $149 $262 $151 $208 reversed $204 $-1 #
loop $-1 $-1 $202 $264 #
vertex $-1 $150 $265 #
straight-curve $-1 13 0 7.9375 0 0 -1 I I #
coedge $-1 $152 $151 $266 $267 reversed $153 $-1 #
edge $-1 $155 0 $268 2.375 $203 $269 forward 7 unknown #
edge $-1 $154 0 $270 2.375 $197 $271 forward 7 unknown #
face $-1 $264 $153 $3 $-1 $272 forward single #
point $-1 -13 0 7.9375 #
point $-1 13 0 7.9375 #
coedge $-1 $158 $157 $177 $228 reversed $159 $-1 #
vertex $-1 $228 $273 #
straight-curve $-1 -11.875 2.375 4.375 0 -1 0 I I #
vertex $-1 $228 $274 #
straight-curve $-1 -12.625 2.375 4.375 0 -1 0 I I #
point $-1 -2.8749000000000002 2.375 -6.96875 #
point $-1 -3.3750999999999998 2.375 -6.96875 #
face $-1 $260 $256 $3 $-1 $275 forward single #
cone-surface $-1 -12.25 2.375 4.375 0 -1 0 0.375 0 0 1 I I 0 1 0.375 forward I I I I #
loop $-1 $276 $277 $13 #
coedge $-1 $278 $278 $248 $279 forward $175 $-1 #
coedge $-1 $266 $176 $258 $280 forward $135 $-1 #
coedge $-1 $176 $266 $262 $281 forward $135 $-1 #
coedge $-1 $255 $254 $176 $227 reversed $256 $-1 #
edge $-1 $282 0 $283 26 $176 $284 forward 7 unknown #
edge $-1 $214 0 $216 3.1415926535897931 $177 $285 forward 7 unknown #
ellipse-curve $-1 -12.25 2.375 4.375 0 -1 0 -0.375 0 0 1 I I #
ellipse-curve $-1 -3.125 2.375 -6.96875 0 -1 0 0.25009999999999977 0 0 1 I I #
loop $-1 $286 $287 $4 #
coedge $-1 $288 $288 $289 $290 forward $182 $-1 #
coedge $-1 $183 $183 $291 $292 reversed $141 $-1 #
coedge $-1 $293 $294 $183 $235 forward $295 $-1 #
edge $-1 $296 0 $297 3.1415926535897931 $183 $298 forward 7 unknown #
coedge $-1 $299 $300 $184 $237 forward $301 $-1 #
edge $-1 $242 0 $241 3.1415926535897931 $184 $302 forward 7 unknown #
coedge $-1 $303 $185 $300 $304 reversed $240 $-1 #
coedge $-1 $185 $303 $299 $305 forward $240 $-1 #
loop $-1 $-1 $239 $306 #
vertex $-1 $237 $307 #
vertex $-1 $237 $308 #
ellipse-curve $-1 -11.375 0 -6.5625 0 -1 0 0.75 0 0 1 I I #
coedge $-1 $309 $187 $190 $250 reversed $246 $-1 #
coedge $-1 $187 $309 $189 $249 forward $246 $-1 #
loop $-1 $-1 $245 $310 #
ellipse-curve $-1 11.5625 0 6.5625 0 -1 0 -0.75 0 0 1 I I #
coedge $-1 $190 $189 $223 $279 reversed $191 $-1 #
edge $-1 $311 0 $193 2.375 $245 $312 forward 7 unknown #
edge $-1 $313 0 $192 2.375 $244 $314 forward 7 unknown #
face $-1 $310 $191 $3 $-1 $315 reversed single #
point $-1 12.3125 0 6.5625 #
point $-1 10.8125 0 6.5625 #
coedge $-1 $226 $195 $198 $259 forward $256 $-1 #
coedge $-1 $195 $226 $202 $263 reversed $256 $-1 #
loop $-1 $-1 $254 $220 #
straight-curve $-1 13 0 -7.9375 -1 0 0 I I #
coedge $-1 $198 $197 $224 $280 reversed $199 $-1 #
edge $-1 $200 0 $283 2.375 $254 $316 forward 7 unknown #
face $-1 $210 $199 $3 $-1 $317 forward single #
point $-1 -13 0 -7.9375 #
coedge $-1 $203 $202 $225 $281 reversed $204 $-1 #
edge $-1 $205 0 $282 2.375 $202 $318 forward 7 unknown #
face $-1 $251 $204 $3 $-1 $319 forward single #
point $-1 13 0 -7.9375 #
coedge $-1 $225 $224 $207 $267 forward $135 $-1 #
edge $-1 $270 0 $268 26 $266 $320 forward 7 unknown #
vertex $-1 $281 $321 #
straight-curve $-1 13 0 7.9375 0 1 0 I I #
vertex $-1 $267 $322 #
straight-curve $-1 -13 0 7.9375 0 1 0 I I #
plane-surface $-1 -13 0 7.9375 0 0 1 1 0 0 forward_v I I I I #
point $-1 -11.875 2.375 4.375 #
point $-1 -12.625 2.375 4.375 #
plane-surface $-1 13 0 -7.9375 0 0 -1 -1 0 0 forward_v I I I I #
loop $-1 $323 $324 $13 #
coedge $-1 $325 $325 $303 $326 forward $222 $-1 #
coedge $-1 $223 $223 $309 $327 forward $175 $-1 #
edge $-1 $313 0 $311 3.1415926535897931 $223 $328 forward 7 unknown #
edge $-1 $283 0 $270 15.875 $224 $329 forward 7 unknown #
edge $-1 $268 0 $282 15.875 $225 $330 forward 7 unknown #
vertex $-1 $281 $331 #
vertex $-1 $280 $332 #
straight-curve $-1 13 2.375 -7.9375 -1 0 0 I I #
ellipse-curve $-1 -12.25 2.375 4.375 0 -1 0 0.375 0 0 1 I I #
loop $-1 $333 $334 $4 #
coedge $-1 $335 $335 $336 $337 reversed $231 $-1 #
coedge $-1 $232 $232 $338 $339 forward $182 $-1 #
coedge $-1 $340 $341 $232 $290 reversed $342 $-1 #
edge $-1 $343 0 $344 3.1415926535897931 $232 $345 forward 7 unknown #
coedge $-1 $346 $347 $233 $292 forward $348 $-1 #
edge $-1 $297 0 $296 3.1415926535897931 $233 $349 forward 7 unknown #
coedge $-1 $350 $234 $347 $351 reversed $295 $-1 #
coedge $-1 $234 $350 $346 $352 forward $295 $-1 #
loop $-1 $-1 $293 $353 #
vertex $-1 $292 $354 #
vertex $-1 $292 $355 #
ellipse-curve $-1 12.25 0 4.375 0 -1 0 -0.375 0 0 1 I I #
coedge $-1 $356 $236 $239 $305 reversed $301 $-1 #
coedge $-1 $236 $356 $238 $304 forward $301 $-1 #
loop $-1 $-1 $300 $357 #
ellipse-curve $-1 -11.375 0 -6.5625 0 -1 0 -0.75 0 0 1 I I #
coedge $-1 $239 $238 $277 $326 reversed $240 $-1 #
edge $-1 $358 0 $242 2.375 $300 $359 forward 7 unknown #
edge $-1 $360 0 $241 2.375 $299 $361 forward 7 unknown #
face $-1 $357 $240 $3 $-1 $362 reversed single #
point $-1 -10.625 0 -6.5625 #
point $-1 -12.125 0 -6.5625 #
coedge $-1 $245 $244 $278 $327 reversed $246 $-1 #
face $-1 $306 $246 $3 $-1 $363 reversed single #
vertex $-1 $327 $364 #
straight-curve $-1 10.8125 2.375 6.5625 0 -1 0 I I #
vertex $-1 $327 $365 #
straight-curve $-1 12.3125 2.375 6.5625 0 -1 0 I I #
cone-surface $-1 11.5625 2.4937499999999999 6.5625 0 -1 0 -0.75 0 0 1 I I 0 1 0.75 forward I I I I #
straight-curve $-1 -13 0 -7.9375 0 1 0 I I #
plane-surface $-1 -13 0 -7.9375 -1 0 0 0 0 1 forward_v I I I I #
straight-curve $-1 13 0 -7.9375 0 1 0 I I #
plane-surface $-1 13 0 7.9375 1 0 0 0 0 -1 forward_v I I I I #
straight-curve $-1 -13 2.375 7.9375 1 0 0 I I #
point $-1 13 2.375 7.9375 #
point $-1 -13 2.375 7.9375 #
loop $-1 $366 $367 $13 #
coedge $-1 $368 $368 $350 $369 forward $276 $-1 #
coedge $-1 $277 $277 $356 $370 forward $222 $-1 #
edge $-1 $360 0 $358 3.1415926535897931 $277 $371 forward 7 unknown #
edge $-1 $311 0 $313 3.1415926535897931 $278 $372 forward 7 unknown #
ellipse-curve $-1 11.5625 2.375 6.5625 0 -1 0 0.75 0 0 1 I I #
straight-curve $-1 -13 2.375 -7.9375 0 0 1 I I #
straight-curve $-1 13 2.375 7.9375 0 0 -1 I I #
point $-1 13 2.375 -7.9375 #
point $-1 -13 2.375 -7.9375 #
loop $-1 $373 $374 $4 #
coedge $-1 $375 $375 $376 $377 reversed $286 $-1 #
coedge $-1 $287 $287 $378 $379 reversed $231 $-1 #
coedge $-1 $380 $381 $287 $337 forward $382 $-1 #
edge $-1 $383 0 $384 3.1415926535897931 $287 $385 forward 7 unknown #
coedge $-1 $386 $387 $288 $339 reversed $388 $-1 #
edge $-1 $344 0 $343 3.1415926535897931 $288 $389 forward 7 unknown #
coedge $-1 $390 $289 $387 $391 reversed $342 $-1 #
coedge $-1 $289 $390 $386 $392 forward $342 $-1 #
loop $-1 $-1 $340 $393 #
vertex $-1 $339 $394 #
vertex $-1 $339 $395 #
ellipse-curve $-1 12.25 0 -4.375 0 1 0 -0.375 0 0 1 I I #
coedge $-1 $396 $291 $294 $352 reversed $348 $-1 #
coedge $-1 $291 $396 $293 $351 forward $348 $-1 #
loop $-1 $-1 $346 $397 #
ellipse-curve $-1 12.25 0 4.375 0 -1 0 0.375 0 0 1 I I #
coedge $-1 $294 $293 $324 $369 reversed $295 $-1 #
edge $-1 $398 0 $297 2.375 $347 $399 forward 7 unknown #
edge $-1 $400 0 $296 2.375 $346 $401 forward 7 unknown #
face $-1 $397 $295 $3 $-1 $402 reversed single #
point $-1 11.875 0 4.375 #
point $-1 12.625 0 4.375 #
coedge $-1 $300 $299 $325 $370 reversed $301 $-1 #
face $-1 $353 $301 $3 $-1 $403 reversed single #
vertex $-1 $370 $404 #
straight-curve $-1 -12.125 2.375 -6.5625 0 -1 0 I I #
vertex $-1 $370 $405 #
straight-curve $-1 -10.625 2.375 -6.5625 0 -1 0 I I #
cone-surface $-1 -11.375 2.4937499999999999 -6.5625 0 -1 0 -0.75 0 0 1 I I 0 1 0.75 forward I I I I #
cone-surface $-1 11.5625 2.4937499999999999 6.5625 0 -1 0 -0.75 0 0 1 I I 0 1 0.75 forward I I I I #
point $-1 10.8125 2.375 6.5625 #
point $-1 12.3125 2.375 6.5625 #
loop $-1 $406 $407 $13 #
coedge $-1 $408 $408 $390 $409 reversed $323 $-1 #
coedge $-1 $324 $324 $396 $410 forward $276 $-1 #
edge $-1 $400 0 $398 3.1415926535897931 $324 $411 forward 7 unknown #
edge $-1 $358 0 $360 3.1415926535897931 $325 $412 forward 7 unknown #
ellipse-curve $-1 -11.375 2.375 -6.5625 0 -1 0 0.75 0 0 1 I I #
ellipse-curve $-1 11.5625 2.375 6.5625 0 -1 0 -0.75 0 0 1 I I #
loop $-1 $413 $414 $4 #
coedge $-1 $415 $415 $416 $417 forward $333 $-1 #
coedge $-1 $334 $334 $418 $419 reversed $286 $-1 #
coedge $-1 $420 $421 $334 $377 forward $422 $-1 #
edge $-1 $423 0 $424 3.1415926535897931 $334 $425 forward 7 unknown #
coedge $-1 $426 $427 $335 $379 forward $428 $-1 #
edge $-1 $384 0 $383 3.1415926535897931 $335 $429 forward 7 unknown #
coedge $-1 $430 $336 $427 $431 reversed $382 $-1 #
coedge $-1 $336 $430 $426 $432 forward $382 $-1 #
loop $-1 $-1 $380 $433 #
vertex $-1 $379 $434 #
vertex $-1 $379 $435 #
ellipse-curve $-1 -12.125 0 -4.375 0 -1 0 -0.375 0 0 1 I I #
coedge $-1 $436 $338 $341 $392 reversed $388 $-1 #
coedge $-1 $338 $436 $340 $391 forward $388 $-1 #
loop $-1 $-1 $386 $437 #
ellipse-curve $-1 12.25 0 -4.375 0 1 0 0.375 0 0 1 I I #
coedge $-1 $341 $340 $367 $409 forward $342 $-1 #
edge $-1 $438 0 $343 2.375 $387 $439 forward 7 unknown #
edge $-1 $440 0 $344 2.375 $386 $441 forward 7 unknown #
face $-1 $437 $342 $3 $-1 $442 reversed single #
point $-1 11.875 0 -4.375 #
point $-1 12.625 0 -4.375 #
coedge $-1 $347 $346 $368 $410 reversed $348 $-1 #
face $-1 $393 $348 $3 $-1 $443 reversed single #
vertex $-1 $410 $444 #
straight-curve $-1 12.625 2.375 4.375 0 -1 0 I I #
vertex $-1 $410 $445 #
straight-curve $-1 11.875 2.375 4.375 0 -1 0 I I #
cone-surface $-1 12.25 2.375 4.375 0 -1 0 0.375 0 0 1 I I 0 1 0.375 forward I I I I #
cone-surface $-1 -11.375 2.4937499999999999 -6.5625 0 -1 0 -0.75 0 0 1 I I 0 1 0.75 forward I I I I #
point $-1 -12.125 2.375 -6.5625 #
point $-1 -10.625 2.375 -6.5625 #
loop $-1 $446 $447 $13 #
coedge $-1 $448 $448 $430 $449 forward $366 $-1 #
coedge $-1 $367 $367 $436 $450 reversed $323 $-1 #
edge $-1 $438 0 $440 3.1415926535897931 $367 $451 forward 7 unknown #
edge $-1 $398 0 $400 3.1415926535897931 $368 $452 forward 7 unknown #
ellipse-curve $-1 12.25 2.375 4.375 0 -1 0 -0.375 0 0 1 I I #
ellipse-curve $-1 -11.375 2.375 -6.5625 0 -1 0 -0.75 0 0 1 I I #
loop $-1 $453 $454 $4 #
coedge $-1 $455 $455 $456 $457 forward $373 $-1 #
coedge $-1 $374 $374 $458 $459 forward $333 $-1 #
coedge $-1 $460 $461 $374 $417 reversed $462 $-1 #
edge $-1 $463 0 $464 3.1415926535897931 $374 $465 forward 7 unknown #
coedge $-1 $466 $467 $375 $419 forward $468 $-1 #
edge $-1 $424 0 $423 3.1415926535897927 $375 $469 forward 7 unknown #
coedge $-1 $470 $376 $467 $471 reversed $422 $-1 #
coedge $-1 $376 $470 $466 $472 forward $422 $-1 #
loop $-1 $-1 $420 $473 #
vertex $-1 $419 $474 #
vertex $-1 $419 $475 #
ellipse-curve $-1 1.3877787807814457e-017 0 -6.9388939039072284e-018 0 -1 0 -0.1875 0 6.9388939039072284e-018 1 I I #
coedge $-1 $476 $378 $381 $432 reversed $428 $-1 #
coedge $-1 $378 $476 $380 $431 forward $428 $-1 #
loop $-1 $-1 $426 $477 #
ellipse-curve $-1 -12.125 0 -4.375 0 -1 0 0.375 0 0 1 I I #
coedge $-1 $381 $380 $407 $449 reversed $382 $-1 #
edge $-1 $478 0 $384 2.375 $427 $479 forward 7 unknown #
edge $-1 $480 0 $383 2.375 $426 $481 forward 7 unknown #
face $-1 $477 $382 $3 $-1 $482 reversed single #
point $-1 -12.5 0 -4.375 #
point $-1 -11.75 0 -4.375 #
coedge $-1 $387 $386 $408 $450 forward $388 $-1 #
face $-1 $433 $388 $3 $-1 $483 reversed single #
vertex $-1 $450 $484 #
straight-curve $-1 11.875 2.375 -4.375 0 -1 0 I I #
vertex $-1 $450 $485 #
straight-curve $-1 12.625 2.375 -4.375 0 -1 0 I I #
cone-surface $-1 12.25 2.375 -4.375 0 1 0 0.375 0 0 1 I I 0 1 0.375 forward I I I I #
cone-surface $-1 12.25 2.375 4.375 0 -1 0 0.375 0 0 1 I I 0 1 0.375 forward I I I I #
point $-1 12.625 2.375 4.375 #
point $-1 11.875 2.375 4.375 #
loop $-1 $486 $487 $13 #
coedge $-1 $488 $488 $470 $489 forward $406 $-1 #
coedge $-1 $407 $407 $476 $490 forward $366 $-1 #
edge $-1 $480 0 $478 3.1415926535897931 $407 $491 forward 7 unknown #
edge $-1 $440 0 $438 3.1415926535897931 $408 $492 forward 7 unknown #
ellipse-curve $-1 12.25 2.375 -4.375 0 1 0 -0.375 0 0 1 I I #
ellipse-curve $-1 12.25 2.375 4.375 0 -1 0 0.375 0 0 1 I I #
loop $-1 $493 $494 $4 #
coedge $-1 $495 $495 $496 $497 reversed $413 $-1 #
coedge $-1 $414 $414 $498 $499 forward $373 $-1 #
coedge $-1 $500 $501 $414 $457 reversed $502 $-1 #
edge $-1 $503 0 $504 3.1415926535897931 $414 $505 forward 7 unknown #
coedge $-1 $506 $507 $415 $459 reversed $508 $-1 #
edge $-1 $464 0 $463 3.1415926535897931 $415 $509 forward 7 unknown #
coedge $-1 $510 $416 $507 $511 reversed $462 $-1 #
coedge $-1 $416 $510 $506 $512 forward $462 $-1 #
loop $-1 $-1 $460 $513 #
vertex $-1 $459 $514 #
vertex $-1 $459 $515 #
ellipse-curve $-1 11.5625 0 -6.5625 0 1 0 0.75 0 0 1 I I #
coedge $-1 $516 $418 $421 $472 reversed $468 $-1 #
coedge $-1 $418 $516 $420 $471 forward $468 $-1 #
loop $-1 $-1 $466 $517 #
ellipse-curve $-1 1.3877787807814457e-017 0 -3.4694469519536142e-017 0 -1 0 0.1875 0 3.4694469519536142e-017 1 I I #
coedge $-1 $421 $420 $447 $489 reversed $422 $-1 #
edge $-1 $518 0 $424 2.375 $467 $519 forward 7 unknown #
edge $-1 $520 0 $423 2.375 $466 $521 forward 7 unknown #
face $-1 $517 $422 $3 $-1 $522 reversed single #
point $-1 -0.1875 0 0 #
point $-1 0.1875 0 0 #
coedge $-1 $427 $426 $448 $490 reversed $428 $-1 #
face $-1 $473 $428 $3 $-1 $523 reversed single #
vertex $-1 $490 $524 #
straight-curve $-1 -11.75 2.375 -4.375 0 -1 0 I I #
vertex $-1 $490 $525 #
straight-curve $-1 -12.5 2.375 -4.375 0 -1 0 I I #
cone-surface $-1 -12.125 2.375 -4.375 0 -1 0 0.375 0 0 1 I I 0 1 0.375 forward I I I I #
cone-surface $-1 12.25 2.375 -4.375 0 1 0 0.375 0 0 1 I I 0 1 0.375 forward I I I I #
point $-1 11.875 2.375 -4.375 #
point $-1 12.625 2.375 -4.375 #
loop $-1 $526 $527 $13 #
coedge $-1 $528 $528 $510 $529 reversed $446 $-1 #
coedge $-1 $447 $447 $516 $530 forward $406 $-1 #
edge $-1 $520 0 $518 3.1415926535897931 $447 $531 forward 7 unknown #
edge $-1 $478 0 $480 3.1415926535897931 $448 $532 forward 7 unknown #
ellipse-curve $-1 -12.125 2.375 -4.375 0 -1 0 -0.375 0 0 1 I I #
ellipse-curve $-1 12.25 2.375 -4.375 0 1 0 0.375 0 0 1 I I #
loop $-1 $533 $534 $4 #
coedge $-1 $535 $535 $536 $537 reversed $453 $-1 #
coedge $-1 $454 $454 $538 $539 reversed $413 $-1 #
coedge $-1 $540 $541 $454 $497 forward $542 $-1 #
edge $-1 $543 0 $544 3.1415926535897931 $454 $545 forward 7 unknown #
coedge $-1 $546 $547 $455 $499 reversed $548 $-1 #
edge $-1 $504 0 $503 3.1415926535897931 $455 $549 forward 7 unknown #
coedge $-1 $550 $456 $547 $551 reversed $502 $-1 #
coedge $-1 $456 $550 $546 $552 forward $502 $-1 #
loop $-1 $-1 $500 $553 #
vertex $-1 $499 $554 #
vertex $-1 $499 $555 #
ellipse-curve $-1 -11.5625 0 6.5625 0 1 0 -0.75 0 0 1 I I #
coedge $-1 $556 $458 $461 $512 reversed $508 $-1 #
coedge $-1 $458 $556 $460 $511 forward $508 $-1 #
loop $-1 $-1 $506 $557 #
ellipse-curve $-1 11.5625 0 -6.5625 0 1 0 -0.75 0 0 1 I I #
coedge $-1 $461 $460 $487 $529 forward $462 $-1 #
edge $-1 $558 0 $463 2.375 $507 $559 forward 7 unknown #
edge $-1 $560 0 $464 2.375 $506 $561 forward 7 unknown #
face $-1 $557 $462 $3 $-1 $562 reversed single #
point $-1 12.3125 0 -6.5625 #
point $-1 10.8125 0 -6.5625 #
coedge $-1 $467 $466 $488 $530 reversed $468 $-1 #
face $-1 $513 $468 $3 $-1 $563 reversed single #
vertex $-1 $530 $564 #
straight-curve $-1 0.1875 2.375 0 0 -1 0 I I #
vertex $-1 $530 $565 #
straight-curve $-1 -0.1875 2.375 2.2961369134169574e-017 0 -1 0 I I #
cone-surface $-1 0 2.375 0 0 -1 0 0.1875 0 0 1 I I 0 1 0.1875 forward I I I I #
cone-surface $-1 -12.125 2.375 -4.375 0 -1 0 0.375 0 0 1 I I 0 1 0.375 forward I I I I #
point $-1 -11.75 2.375 -4.375 #
point $-1 -12.5 2.375 -4.375 #
loop $-1 $566 $567 $13 #
coedge $-1 $568 $568 $550 $569 reversed $486 $-1 #
coedge $-1 $487 $487 $556 $570 reversed $446 $-1 #
edge $-1 $558 0 $560 3.1415926535897931 $487 $571 forward 7 unknown #
edge $-1 $518 0 $520 3.1415926535897931 $488 $572 forward 7 unknown #
ellipse-curve $-1 0 2.375 0 0 -1 0 -0.1875 0 0 1 I I #
ellipse-curve $-1 -12.125 2.375 -4.375 0 -1 0 0.375 0 0 1 I I #
loop $-1 $573 $574 $4 #
coedge $-1 $575 $575 $576 $577 reversed $493 $-1 #
coedge $-1 $494 $494 $578 $579 reversed $453 $-1 #
coedge $-1 $580 $581 $494 $537 forward $582 $-1 #
edge $-1 $583 0 $584 3.1415926535897931 $494 $585 forward 7 unknown #
coedge $-1 $586 $587 $495 $539 forward $588 $-1 #
edge $-1 $544 0 $543 3.1415926535897931 $495 $589 forward 7 unknown #
coedge $-1 $590 $496 $587 $591 reversed $542 $-1 #
coedge $-1 $496 $590 $586 $592 forward $542 $-1 #
loop $-1 $-1 $540 $593 #
vertex $-1 $539 $594 #
vertex $-1 $539 $595 #
ellipse-curve $-1 9.25 0 6.96875 0 -1 0 -0.37509999999999977 0 0 1 I I #
coedge $-1 $596 $498 $501 $552 reversed $548 $-1 #
coedge $-1 $498 $596 $500 $551 forward $548 $-1 #
loop $-1 $-1 $546 $597 #
ellipse-curve $-1 -11.5625 0 6.5625 0 1 0 0.75 0 0 1 I I #
coedge $-1 $501 $500 $527 $569 forward $502 $-1 #
edge $-1 $598 0 $503 2.375 $547 $599 forward 7 unknown #
edge $-1 $600 0 $504 2.375 $546 $601 forward 7 unknown #
face $-1 $597 $502 $3 $-1 $602 reversed single #
point $-1 -12.3125 0 6.5625 #
point $-1 -10.8125 0 6.5625 #
coedge $-1 $507 $506 $528 $570 forward $508 $-1 #
face $-1 $553 $508 $3 $-1 $603 reversed single #
vertex $-1 $570 $604 #
straight-curve $-1 12.3125 2.375 -6.5625 0 -1 0 I I #
vertex $-1 $570 $605 #
straight-curve $-1 10.8125 2.375 -6.5625 0 -1 0 I I #
cone-surface $-1 11.5625 2.4937499999999999 -6.5625 0 1 0 -0.75 0 0 1 I I 0 1 0.75 forward I I I I #
cone-surface $-1 0 2.375 0 0 -1 0 0.1875 0 0 1 I I 0 1 0.1875 forward I I I I #
point $-1 0.1875 2.375 0 #
point $-1 -0.1875 2.375 0 #
loop $-1 $606 $607 $13 #
coedge $-1 $608 $608 $590 $609 forward $526 $-1 #
coedge $-1 $527 $527 $596 $610 reversed $486 $-1 #
edge $-1 $598 0 $600 3.1415926535897931 $527 $611 forward 7 unknown #
edge $-1 $560 0 $558 3.1415926535897931 $528 $612 forward 7 unknown #
ellipse-curve $-1 11.5625 2.375 -6.5625 0 1 0 0.75 0 0 1 I I #
ellipse-curve $-1 0 2.375 0 0 -1 0 0.1875 0 0 1 I I #
loop $-1 $-1 $613 $4 #
coedge $-1 $614 $614 $615 $616 reversed $533 $-1 #
coedge $-1 $534 $534 $617 $618 reversed $493 $-1 #
coedge $-1 $619 $620 $534 $577 forward $621 $-1 #
edge $-1 $622 0 $623 3.1415926535897931 $534 $624 forward 7 unknown #
coedge $-1 $625 $626 $535 $579 forward $627 $-1 #
edge $-1 $584 0 $583 3.1415926535897931 $535 $628 forward 7 unknown #
coedge $-1 $629 $536 $626 $630 reversed $582 $-1 #
coedge $-1 $536 $629 $625 $631 forward $582 $-1 #
loop $-1 $-1 $580 $632 #
vertex $-1 $579 $633 #
vertex $-1 $579 $634 #
ellipse-curve $-1 -3.125 0 6.96875 0 -1 0 -0.25009999999999977 0 0 1 I I #
coedge $-1 $635 $538 $541 $592 reversed $588 $-1 #
coedge $-1 $538 $635 $540 $591 forward $588 $-1 #
loop $-1 $-1 $586 $636 #
ellipse-curve $-1 9.25 0 6.96875 0 -1 0 0.37509999999999977 0 0 1 I I #
coedge $-1 $541 $540 $567 $609 reversed $542 $-1 #
edge $-1 $637 0 $544 2.375 $587 $638 forward 7 unknown #
edge $-1 $639 0 $543 2.375 $586 $640 forward 7 unknown #
face $-1 $636 $542 $3 $-1 $641 reversed single #
point $-1 8.8749000000000002 0 6.96875 #
point $-1 9.6250999999999998 0 6.96875 #
coedge $-1 $547 $546 $568 $610 forward $548 $-1 #
face $-1 $593 $548 $3 $-1 $642 reversed single #
vertex $-1 $610 $643 #
straight-curve $-1 -12.3125 2.375 6.5625 0 -1 0 I I #
vertex $-1 $610 $644 #
straight-curve $-1 -10.8125 2.375 6.5625 0 -1 0 I I #
cone-surface $-1 -11.5625 2.4937499999999999 6.5625 0 1 0 0.75 0 0 1 I I 0 1 0.75 forward I I I I #
cone-surface $-1 11.5625 2.4937499999999999 -6.5625 0 1 0 -0.75 0 0 1 I I 0 1 0.75 forward I I I I #
point $-1 12.3125 2.375 -6.5625 #
point $-1 10.8125 2.375 -6.5625 #
loop $-1 $645 $646 $13 #
coedge $-1 $647 $647 $629 $648 forward $566 $-1 #
coedge $-1 $567 $567 $635 $649 forward $526 $-1 #
edge $-1 $639 0 $637 3.1415926535897931 $567 $650 forward 7 unknown #
edge $-1 $600 0 $598 3.1415926535897931 $568 $651 forward 7 unknown #
ellipse-curve $-1 -11.5625 2.375 6.5625 0 1 0 -0.75 0 0 1 I I #
ellipse-curve $-1 11.5625 2.375 -6.5625 0 1 0 -0.75 0 0 1 I I #
coedge $-1 $652 $652 $653 $654 reversed $573 $-1 #
coedge $-1 $574 $574 $655 $656 reversed $533 $-1 #
coedge $-1 $657 $658 $574 $616 forward $659 $-1 #
edge $-1 $660 0 $661 3.1415926535897931 $574 $662 forward 7 unknown #
coedge $-1 $663 $664 $575 $618 forward $665 $-1 #
edge $-1 $623 0 $622 3.1415926535897931 $575 $666 forward 7 unknown #
coedge $-1 $667 $576 $664 $668 reversed $621 $-1 #
coedge $-1 $576 $667 $663 $669 forward $621 $-1 #
loop $-1 $-1 $619 $670 #
vertex $-1 $618 $671 #
vertex $-1 $618 $672 #
ellipse-curve $-1 -9.25 0 -6.9687999999999999 0 -1 0 -0.37509999999999977 0 0 1 I I #
coedge $-1 $673 $578 $581 $631 reversed $627 $-1 #
coedge $-1 $578 $673 $580 $630 forward $627 $-1 #
loop $-1 $-1 $625 $674 #
ellipse-curve $-1 -3.125 0 6.96875 0 -1 0 0.25009999999999977 0 0 1 I I #
coedge $-1 $581 $580 $607 $648 reversed $582 $-1 #
edge $-1 $675 0 $584 2.375 $626 $676 forward 7 unknown #
edge $-1 $677 0 $583 2.375 $625 $678 forward 7 unknown #
face $-1 $674 $582 $3 $-1 $679 reversed single #
point $-1 -3.3750999999999998 0 6.96875 #
point $-1 -2.8749000000000002 0 6.96875 #
coedge $-1 $587 $586 $608 $649 reversed $588 $-1 #
face $-1 $632 $588 $3 $-1 $680 reversed single #
vertex $-1 $649 $681 #
straight-curve $-1 9.6250999999999998 2.375 6.96875 0 -1 0 I I #
vertex $-1 $649 $682 #
straight-curve $-1 8.8749000000000002 2.375 6.96875 0 -1 0 I I #
cone-surface $-1 9.25 2.375 6.96875 0 -1 0 0.37509999999999999 0 0 1 I I 0 1 0.37509999999999999 forward I I I I #
cone-surface $-1 -11.5625 2.4937499999999999 6.5625 0 1 0 0.75 0 0 1 I I 0 1 0.75 forward I I I I #
point $-1 -12.3125 2.375 6.5625 #
point $-1 -10.8125 2.375 6.5625 #
loop $-1 $683 $684 $13 #
coedge $-1 $685 $685 $667 $686 forward $606 $-1 #
coedge $-1 $607 $607 $673 $687 forward $566 $-1 #
edge $-1 $677 0 $675 3.1415926535897931 $607 $688 forward 7 unknown #
edge $-1 $637 0 $639 3.1415926535897931 $608 $689 forward 7 unknown #
ellipse-curve $-1 9.25 2.375 6.96875 0 -1 0 -0.37509999999999977 0 0 1 I I #
ellipse-curve $-1 -11.5625 2.375 6.5625 0 1 0 0.75 0 0 1 I I #
coedge $-1 $613 $613 $690 $691 reversed $573 $-1 #
coedge $-1 $692 $693 $613 $654 forward $694 $-1 #
edge $-1 $695 0 $696 3.1415926535897931 $613 $697 forward 7 unknown #
coedge $-1 $698 $699 $614 $656 forward $700 $-1 #
edge $-1 $661 0 $660 3.1415926535897931 $614 $701 forward 7 unknown #
coedge $-1 $702 $615 $699 $703 reversed $659 $-1 #
coedge $-1 $615 $702 $698 $704 forward $659 $-1 #
loop $-1 $-1 $657 $705 #
vertex $-1 $656 $706 #
vertex $-1 $656 $707 #
ellipse-curve $-1 -9.25 0 6.96875 0 -1 0 -0.25009999999999977 0 0 1 I I #
coedge $-1 $708 $617 $620 $669 reversed $665 $-1 #
coedge $-1 $617 $708 $619 $668 forward $665 $-1 #
loop $-1 $-1 $663 $709 #
ellipse-curve $-1 -9.25 0 -6.9687999999999999 0 -1 0 0.37509999999999977 0 0 1 I I #
coedge $-1 $620 $619 $646 $686 reversed $621 $-1 #
edge $-1 $710 0 $623 2.375 $664 $711 forward 7 unknown #
edge $-1 $712 0 $622 2.375 $663 $713 forward 7 unknown #
face $-1 $709 $621 $3 $-1 $714 reversed single #
point $-1 -9.6250999999999998 0 -6.9687999999999999 #
point $-1 -8.8749000000000002 0 -6.9687999999999999 #
coedge $-1 $626 $625 $647 $687 reversed $627 $-1 #
face $-1 $670 $627 $3 $-1 $715 reversed single #
vertex $-1 $687 $716 #
straight-curve $-1 -2.8749000000000002 2.375 6.96875 0 -1 0 I I #
vertex $-1 $687 $717 #
straight-curve $-1 -3.3750999999999998 2.375 6.96875 0 -1 0 I I #
cone-surface $-1 -3.125 2.375 6.96875 0 -1 0 0.25009999999999999 0 0 1 I I 0 1 0.25009999999999999 forward I I I I #
cone-surface $-1 9.25 2.375 6.96875 0 -1 0 0.37509999999999999 0 0 1 I I 0 1 0.37509999999999999 forward I I I I #
point $-1 9.6250999999999998 2.375 6.96875 #
point $-1 8.8749000000000002 2.375 6.96875 #
loop $-1 $-1 $718 $13 #
coedge $-1 $719 $719 $702 $720 forward $645 $-1 #
coedge $-1 $646 $646 $708 $721 forward $606 $-1 #
edge $-1 $712 0 $710 3.1415926535897931 $646 $722 forward 7 unknown #
edge $-1 $675 0 $677 3.1415926535897931 $647 $723 forward 7 unknown #
ellipse-curve $-1 -3.125 2.375 6.96875 0 -1 0 -0.25009999999999977 0 0 1 I I #
ellipse-curve $-1 9.25 2.375 6.96875 0 -1 0 0.37509999999999977 0 0 1 I I #
coedge $-1 $724 $725 $652 $691 forward $726 $-1 #
edge $-1 $696 0 $695 3.1415926535897931 $652 $727 forward 7 unknown #
coedge $-1 $728 $653 $725 $729 reversed $694 $-1 #
coedge $-1 $653 $728 $724 $730 forward $694 $-1 #
loop $-1 $-1 $692 $731 #
vertex $-1 $691 $732 #
vertex $-1 $691 $733 #
ellipse-curve $-1 9.25 0 -6.9687999999999999 0 -1 0 -0.25009999999999977 0 0 1 I I #
coedge $-1 $734 $655 $658 $704 reversed $700 $-1 #
coedge $-1 $655 $734 $657 $703 forward $700 $-1 #
loop $-1 $-1 $698 $735 #
ellipse-curve $-1 -9.25 0 6.96875 0 -1 0 0.25009999999999977 0 0 1 I I #
coedge $-1 $658 $657 $684 $720 reversed $659 $-1 #
edge $-1 $736 0 $661 2.375 $699 $737 forward 7 unknown #
edge $-1 $738 0 $660 2.375 $698 $739 forward 7 unknown #
face $-1 $735 $659 $3 $-1 $740 reversed single #
point $-1 -9.5000999999999998 0 6.96875 #
point $-1 -8.9999000000000002 0 6.96875 #
coedge $-1 $664 $663 $685 $721 reversed $665 $-1 #
face $-1 $705 $665 $3 $-1 $741 reversed single #
vertex $-1 $721 $742 #
straight-curve $-1 -8.8749000000000002 2.375 -6.9687999999999999 0 -1 0 I I #
vertex $-1 $721 $743 #
straight-curve $-1 -9.6250999999999998 2.375 -6.9687999999999999 0 -1 0 I I #
cone-surface $-1 -9.25 2.375 -6.9687999999999999 0 -1 0 0.37509999999999999 0 0 1 I I 0 1 0.37509999999999999 forward I I I I #
cone-surface $-1 -3.125 2.375 6.96875 0 -1 0 0.25009999999999999 0 0 1 I I 0 1 0.25009999999999999 forward I I I I #
point $-1 -2.8749000000000002 2.375 6.96875 #
point $-1 -3.3750999999999998 2.375 6.96875 #
coedge $-1 $744 $744 $728 $745 forward $683 $-1 #
coedge $-1 $684 $684 $734 $746 forward $645 $-1 #
edge $-1 $738 0 $736 3.1415926535897931 $684 $747 forward 7 unknown #
edge $-1 $710 0 $712 3.1415926535897931 $685 $748 forward 7 unknown #
ellipse-curve $-1 -9.25 2.375 -6.9687999999999999 0 -1 0 -0.37509999999999977 0 0 1 I I #
ellipse-curve $-1 -3.125 2.375 6.96875 0 -1 0 0.25009999999999977 0 0 1 I I #
coedge $-1 $749 $690 $693 $730 reversed $726 $-1 #
coedge $-1 $690 $749 $692 $729 forward $726 $-1 #
loop $-1 $-1 $724 $750 #
ellipse-curve $-1 9.25 0 -6.9687999999999999 0 -1 0 0.25009999999999977 0 0 1 I I #
coedge $-1 $693 $692 $718 $745 reversed $694 $-1 #
edge $-1 $751 0 $696 2.375 $725 $752 forward 7 unknown #
edge $-1 $753 0 $695 2.375 $724 $754 forward 7 unknown #
face $-1 $750 $694 $3 $-1 $755 reversed single #
point $-1 8.9999000000000002 0 -6.9687999999999999 #
point $-1 9.5000999999999998 0 -6.9687999999999999 #
coedge $-1 $699 $698 $719 $746 reversed $700 $-1 #
face $-1 $731 $700 $3 $-1 $756 reversed single #
vertex $-1 $746 $757 #
straight-curve $-1 -8.9999000000000002 2.375 6.96875 0 -1 0 I I #
vertex $-1 $746 $758 #
straight-curve $-1 -9.5000999999999998 2.375 6.96875 0 -1 0 I I #
cone-surface $-1 -9.25 2.375 6.96875 0 -1 0 0.25009999999999999 0 0 1 I I 0 1 0.25009999999999999 forward I I I I #
cone-surface $-1 -9.25 2.375 -6.9687999999999999 0 -1 0 0.37509999999999999 0 0 1 I I 0 1 0.37509999999999999 forward I I I I #
point $-1 -8.8749000000000002 2.375 -6.9687999999999999 #
point $-1 -9.6250999999999998 2.375 -6.9687999999999999 #
coedge $-1 $718 $718 $749 $759 forward $683 $-1 #
edge $-1 $753 0 $751 3.1415926535897931 $718 $760 forward 7 unknown #
edge $-1 $736 0 $738 3.1415926535897931 $719 $761 forward 7 unknown #
ellipse-curve $-1 -9.25 2.375 6.96875 0 -1 0 -0.25009999999999977 0 0 1 I I #
ellipse-curve $-1 -9.25 2.375 -6.9687999999999999 0 -1 0 0.37509999999999977 0 0 1 I I #
coedge $-1 $725 $724 $744 $759 reversed $726 $-1 #
face $-1 $-1 $726 $3 $-1 $762 reversed single #
vertex $-1 $759 $763 #
straight-curve $-1 9.5000999999999998 2.375 -6.9687999999999999 0 -1 0 I I #
vertex $-1 $759 $764 #
straight-curve $-1 8.9999000000000002 2.375 -6.9687999999999999 0 -1 0 I I #
cone-surface $-1 9.25 2.375 -6.9687999999999999 0 -1 0 0.25009999999999999 0 0 1 I I 0 1 0.25009999999999999 forward I I I I #
cone-surface $-1 -9.25 2.375 6.96875 0 -1 0 0.25009999999999999 0 0 1 I I 0 1 0.25009999999999999 forward I I I I #
point $-1 -8.9999000000000002 2.375 6.96875 #
point $-1 -9.5000999999999998 2.375 6.96875 #
edge $-1 $751 0 $753 3.1415926535897931 $744 $765 forward 7 unknown #
ellipse-curve $-1 9.25 2.375 -6.9687999999999999 0 -1 0 -0.25009999999999977 0 0 1 I I #
ellipse-curve $-1 -9.25 2.375 6.96875 0 -1 0 0.25009999999999977 0 0 1 I I #
cone-surface $-1 9.25 2.375 -6.9687999999999999 0 -1 0 0.25009999999999999 0 0 1 I I 0 1 0.25009999999999999 forward I I I I #
point $-1 9.5000999999999998 2.375 -6.9687999999999999 #
point $-1 8.9999000000000002 2.375 -6.9687999999999999 #
ellipse-curve $-1 9.25 2.375 -6.9687999999999999 0 -1 0 0.25009999999999977 0 0 1 I I #
End-of-ACIS-data 