600 0 1 0           
83 GICL ACIS Healer - Source: /gicl/data5/repository/PTC/V18/mold18/ejpin_th.sat - 6 0 18 ACIS 6.0.3 Solaris 24 Sat Apr 13 21:25:50 2002 
1 9.999999999999999547e-07 1.000000000000000036e-10 
body $-1 $1 $-1 $-1 #
lump $-1 $-1 $2 $0 #
shell $-1 $-1 $-1 $3 $-1 $1 #
face $-1 $4 $5 $2 $-1 $6 forward single #
face $-1 $7 $8 $2 $-1 $9 forward single #
loop $-1 $-1 $10 $3 #
plane-surface $-1 184.1499999999999773 0 0 1 0 0 0 -25.39999999999999858 0 forward_v I I I I #
face $-1 $11 $12 $2 $-1 $13 reversed single #
loop $-1 $-1 $14 $4 #
cone-surface $-1 -17.20849999999999724 0 0 1 0 0 0 -3.174999999999999822 0 1 I I 0 1 3.174999999999999822 forward I I I I #
coedge $-1 $15 $15 $16 $17 forward $5 $-1 #
face $-1 $18 $19 $2 $-1 $20 forward single #
loop $-1 $-1 $21 $7 #
torus-surface $-1 0.7950199999999998379 0 0 1 0 0 3.970019999999999438 0.7950199999999999489 0 -1 0 forward_v I I I I #
coedge $-1 $22 $23 $24 $25 forward $8 $-1 #
coedge $-1 $10 $10 $26 $27 reversed $5 $-1 #
coedge $-1 $23 $22 $10 $17 reversed $8 $-1 #
edge $-1 $28 0 $29 3.141592653589793116 $10 $30 forward 7 unknown #
face $-1 $31 $32 $2 $-1 $33 reversed single #
loop $-1 $34 $35 $11 #
plane-surface $-1 0 0 0 1 0 0 0 -25.39999999999999858 0 forward_v I I I I #
coedge $-1 $36 $37 $38 $39 forward $12 $-1 #
coedge $-1 $16 $14 $40 $41 reversed $8 $-1 #
coedge $-1 $14 $16 $42 $43 forward $8 $-1 #
coedge $-1 $37 $36 $14 $25 reversed $12 $-1 #
edge $-1 $44 0 $45 3.141592653589793116 $14 $46 forward 7 unknown #
coedge $-1 $40 $42 $15 $27 forward $47 $-1 #
edge $-1 $28 0 $29 3.141592653589793116 $15 $48 forward 7 unknown #
vertex $-1 $27 $49 #
vertex $-1 $27 $50 #
ellipse-curve $-1 184.1499999999999773 0 -8.812395257962179547e-17 1 0 0 0 3.174999999999999822 4.769364699182265404e-16 1 I I #
face $-1 $51 $47 $2 $-1 $52 forward single #
loop $-1 $-1 $53 $18 #
torus-surface $-1 0.7950199999999998379 0 0 1 0 0 3.970019999999999438 0.7950199999999999489 0 -1 0 forward_v I I I I #
loop $-1 $-1 $54 $11 #
coedge $-1 $38 $38 $55 $56 forward $19 $-1 #
coedge $-1 $24 $21 $57 $58 reversed $12 $-1 #
coedge $-1 $21 $24 $59 $60 forward $12 $-1 #
coedge $-1 $35 $35 $21 $39 reversed $19 $-1 #
edge $-1 $61 1.224606353822377505e-16 $62 3.141592653589793116 $21 $63 forward 7 unknown #
coedge $-1 $64 $26 $22 $41 forward $47 $-1 #
edge $-1 $29 0 $45 7.218700000000000117 $22 $65 forward 7 unknown #
coedge $-1 $26 $64 $23 $43 reversed $47 $-1 #
edge $-1 $28 0 $44 7.218700000000000117 $23 $66 forward 7 unknown #
vertex $-1 $43 $67 #
vertex $-1 $41 $68 #
ellipse-curve $-1 0.7950199999999996159 0 0 1 0 0 0 3.174999999999999822 3.888125173386047696e-16 1 I I #
loop $-1 $-1 $26 $31 #
ellipse-curve $-1 184.1499999999999773 8.812395257962179547e-17 1.762479051592435909e-16 -1 0 0 0 3.174999999999999822 2.125646121793611787e-16 1 I I #
point $-1 184.1499999999999773 3.174999999999999822 3.888125173386047696e-16 #
point $-1 184.1499999999999773 -3.174999999999999822 -7.776250346772095392e-16 #
face $-1 $69 $70 $2 $-1 $71 forward single #
cone-surface $-1 -17.20849999999999724 0 0 1 0 0 0 -3.174999999999999822 0 1 I I 0 1 3.174999999999999822 forward I I I I #
coedge $-1 $57 $59 $64 $72 forward $32 $-1 #
coedge $-1 $73 $73 $74 $75 forward $34 $-1 #
coedge $-1 $59 $57 $35 $56 reversed $32 $-1 #
edge $-1 $61 -1.224606353822377505e-16 $62 3.141592653589793116 $35 $76 forward 7 unknown #
coedge $-1 $55 $53 $36 $58 forward $32 $-1 #
edge $-1 $45 5.760446248621138871e-17 $62 1.570796326794896336 $36 $77 forward 7 unknown #
coedge $-1 $53 $55 $37 $60 reversed $32 $-1 #
edge $-1 $44 -2.216899010832980883e-16 $61 1.570796326794896336 $37 $78 forward 7 unknown #
vertex $-1 $60 $79 #
vertex $-1 $58 $80 #
ellipse-curve $-1 0 0 0 1 0 0 0 3.970019999999999438 0 1 I I #
coedge $-1 $42 $40 $53 $72 reversed $47 $-1 #
straight-curve $-1 184.1499999999999773 -3.174999999999999822 -7.776250346772095392e-16 -25.39999999999999858 0 0 I I #
straight-curve $-1 184.1499999999999773 3.174999999999999822 3.888125173386047696e-16 -25.39999999999999858 0 0 I I #
point $-1 0.7950199999999998379 3.174999999999999822 3.888125173386047696e-16 #
point $-1 0.7950199999999996159 -3.174999999999999822 -7.776250346772095392e-16 #
face $-1 $81 $82 $2 $-1 $83 reversed single #
loop $-1 $-1 $84 $51 #
cone-surface $-1 -17.20849999999999724 0 0 1 0 0 0 -5.079999999999999183 0 1 I I 0 1 5.079999999999999183 forward I I I I #
edge $-1 $44 0 $45 3.141592653589793116 $64 $85 forward 7 unknown #
coedge $-1 $54 $54 $86 $87 reversed $34 $-1 #
coedge $-1 $88 $89 $54 $75 reversed $70 $-1 #
edge $-1 $90 0 $91 3.141592653589793116 $54 $92 forward 7 unknown #
ellipse-curve $-1 0 0 0 -1 0 0 0 3.970019999999999438 0 1 I I #
ellipse-curve $-1 0.7950199999999998379 -3.970019999999999438 -9.723423433603828917e-16 1.186499349773941076e-31 -2.449212707644757475e-16 1 -1.762479051592435909e-16 0.7950199999999998379 1.947173086831734511e-16 1 I I #
ellipse-curve $-1 0.7950199999999998379 3.970019999999999438 4.861711716801914459e-16 5.932496748869705381e-32 1.224606353822378737e-16 -1 -1.762479051592435909e-16 -0.7950199999999998379 -9.735865434158672554e-17 1 I I #
point $-1 -1.762479051592435909e-16 3.970019999999999438 4.861711716801914459e-16 #
point $-1 0 -3.970019999999999438 0 #
face $-1 $-1 $93 $2 $-1 $94 forward single #
loop $-1 $-1 $95 $69 #
plane-surface $-1 -7.619999999999999218 0 0 1 0 0 0 -25.39999999999999858 0 forward_v I I I I #
coedge $-1 $89 $88 $95 $96 forward $70 $-1 #
ellipse-curve $-1 0.7950199999999996159 0 0 -1 0 0 0 3.174999999999999822 3.888125173386047696e-16 1 I I #
coedge $-1 $97 $98 $73 $87 forward $93 $-1 #
edge $-1 $90 0 $91 3.141592653589793116 $73 $99 forward 7 unknown #
coedge $-1 $84 $74 $98 $100 forward $70 $-1 #
coedge $-1 $74 $84 $97 $101 reversed $70 $-1 #
vertex $-1 $87 $102 #
vertex $-1 $87 $103 #
ellipse-curve $-1 0 0 -5.287437154777307235e-16 1 5.551115123125782702e-16 1.25757206837410313e-31 -2.819966482547897455e-15 5.079999999999999183 1.150843743219498237e-15 1 I I #
loop $-1 $-1 $86 $81 #
cone-surface $-1 -17.20849999999999724 0 0 1 0 0 0 -5.079999999999999183 0 1 I I 0 1 5.079999999999999183 forward I I I I #
coedge $-1 $104 $104 $84 $96 reversed $82 $-1 #
edge $-1 $105 1.224606353822377012e-16 $106 3.141592653589793116 $84 $107 forward 7 unknown #
coedge $-1 $108 $86 $89 $101 forward $93 $-1 #
coedge $-1 $86 $108 $88 $100 reversed $93 $-1 #
ellipse-curve $-1 0 0 -8.81239525796218004e-16 -1 -5.551115123125782702e-16 -1.6427580572515503e-31 -2.819966482547897455e-15 5.079999999999999183 1.503339553537985517e-15 1 I I #
edge $-1 $90 0 $105 0.2999999999999999334 $88 $109 forward 7 unknown #
edge $-1 $91 0 $106 0.2999999999999998779 $89 $110 forward 7 unknown #
point $-1 -2.819966482547897455e-15 5.079999999999999183 6.221000277417675131e-16 #
point $-1 -2.819966482547897455e-15 -5.079999999999999183 -1.244200055483535026e-15 #
coedge $-1 $95 $95 $108 $111 forward $82 $-1 #
vertex $-1 $100 $112 #
vertex $-1 $101 $113 #
ellipse-curve $-1 -7.619999999999999218 0 0 1 0 0 0 5.079999999999999183 0 1 I I #
coedge $-1 $98 $97 $104 $111 reversed $93 $-1 #
straight-curve $-1 -2.819966482547897455e-15 5.079999999999999183 6.221000277417675131e-16 -25.39999999999999858 0 0 I I #
straight-curve $-1 -2.819966482547897455e-15 -5.079999999999999183 -1.244200055483535026e-15 -25.39999999999999858 0 0 I I #
edge $-1 $105 -1.224606353822377012e-16 $106 3.141592653589793116 $104 $114 forward 7 unknown #
point $-1 -7.620000000000000995 5.079999999999999183 6.221000277417675131e-16 #
point $-1 -7.619999999999999218 -5.079999999999999183 0 #
ellipse-curve $-1 -7.619999999999999218 0 0 -1 0 0 0 5.079999999999999183 0 1 I I #
End-of-ACIS-data 