700 0 2 0           
24 FBMach with ACIS - 7.0.3 13 ACIS 7.0.3 NT 24 Wed May 15 15:43:28 2002 
1 9.9999999999999995e-007 1e-010 
body $2 -1 $-1 $3 $-1 $4 #
bdycol-kcp $-1 -1 1 3 $5 $6 $7 #
model_id-kcp-attrib $-1 -1 $-1 $-1 $0 1 1021491807 1021491807 -534380543 1 #
lump $-1 -1 $-1 $-1 $8 $0 #
transform $-1 -1 1 0 0 0 1 0 0 0 1 0 0 0 1 rotate no_reflect no_shear #
body $9 -1 $-1 $10 $-1 $11 #
body $12 -1 $-1 $13 $-1 $14 #
body $15 -1 $-1 $16 $-1 $17 #
shell $-1 -1 $-1 $-1 $-1 $18 $-1 $3 #
model_id-kcp-attrib $-1 -1 $-1 $-1 $5 1 1021491807 1021491807 -534380542 1 #
lump $-1 -1 $-1 $-1 $19 $5 #
transform $-1 -1 1 0 0 0 1 0 0 0 1 88.264999999999986 0 -4.4408920985006262e-016 1 no_rotate no_reflect no_shear #
rgb_color-st-attrib $-1 -1 $20 $-1 $6 0.5 1 1 #
lump $-1 -1 $-1 $-1 $21 $6 #
transform $-1 -1 1 0 0 0 1 0 0 0 1 88.264999999999986 0 -4.4408920985006262e-016 1 no_rotate no_reflect no_shear #
rgb_color-st-attrib $-1 -1 $22 $-1 $7 1 0.5 1 #
lump $-1 -1 $-1 $-1 $23 $7 #
transform $-1 -1 1 0 0 0 1 0 0 0 1 88.264999999999986 0 -4.4408920985006262e-016 1 no_rotate no_reflect no_shear #
face $24 -1 $-1 $25 $26 $8 $-1 $27 forward single #
shell $-1 -1 $-1 $-1 $-1 $28 $-1 $10 #
model_id-kcp-attrib $-1 -1 $-1 $12 $6 1 1021491807 1021491807 -526516221 1 #
shell $-1 -1 $-1 $-1 $-1 $29 $-1 $13 #
model_id-kcp-attrib $-1 -1 $-1 $15 $7 1 1021491807 1021491808 -530907132 1 #
shell $-1 -1 $-1 $-1 $-1 $30 $-1 $16 #
model_id-kcp-attrib $-1 -1 $-1 $-1 $18 1 1021491807 1021491807 -534380543 2 #
face $31 -1 $-1 $32 $33 $8 $-1 $34 forward single #
loop $-1 -1 $-1 $-1 $35 $18 #
plane-surface $-1 -1 $-1 184.14999999999998 0 0 1 0 0 0 -25.399999999999999 0 forward_v I I I I #
face $-1 -1 $-1 $36 $37 $19 $-1 $38 forward single #
face $-1 -1 $-1 $39 $40 $21 $-1 $41 reversed single #
face $-1 -1 $-1 $42 $43 $23 $-1 $44 reversed single #
model_id-kcp-attrib $-1 -1 $-1 $-1 $25 1 1021491807 1021491807 -534380543 3 #
face $45 -1 $-1 $46 $47 $8 $-1 $48 reversed single #
loop $-1 -1 $-1 $-1 $49 $25 #
cone-surface $-1 -1 $-1 -17.208499999999997 0 0 1 0 0 0 -3.1749999999999998 0 1 I I 0 1 3.1749999999999998 forward I I I I #
coedge $-1 -1 $-1 $50 $50 $51 $52 forward $26 $-1 #
face $-1 -1 $-1 $53 $54 $19 $-1 $55 reversed single #
loop $-1 -1 $-1 $-1 $56 $28 #
plane-surface $-1 -1 $-1 0 0 5.0800000000000001 0 0 1 1 0 0 forward_v I I I I #
face $-1 -1 $-1 $57 $58 $21 $-1 $41 reversed single #
loop $-1 -1 $-1 $-1 $59 $29 #
cone-surface $-1 -1 $-1 95.884999999999991 -6.03777548009827e-048 4.4408920985006262e-016 1 0 0 0 5.0799999999999992 6.2210002774176741e-016 1 I I 0 1 5.0799999999999992 forward I I I I #
face $-1 -1 $-1 $60 $61 $23 $-1 $62 forward single #
loop $-1 -1 $-1 $-1 $63 $30 #
cone-surface $-1 -1 $-1 -105.47349999999999 0 4.4408920985006262e-016 1 0 0 0 -3.1749999999999998 0 1 I I 0 1 3.1749999999999998 forward I I I I #
model_id-kcp-attrib $-1 -1 $-1 $-1 $32 1 1021491807 1021491807 -534380543 4 #
face $64 -1 $-1 $65 $66 $8 $-1 $67 forward single #
loop $-1 -1 $-1 $-1 $68 $32 #
torus-surface $-1 -1 $-1 0.79501999999999984 0 0 1 0 0 3.9700199999999994 0.79501999999999995 0 -1 0 forward_v I I I I #
coedge $-1 -1 $-1 $69 $70 $71 $72 forward $33 $-1 #
coedge $-1 -1 $-1 $35 $35 $73 $74 reversed $26 $-1 #
coedge $-1 -1 $-1 $70 $69 $35 $52 reversed $33 $-1 #
edge $75 -1 $-1 $76 0 $77 3.1415926535897931 $35 $78 forward @7 unknown #
face $-1 -1 $-1 $79 $80 $19 $-1 $81 reversed single #
loop $-1 -1 $-1 $-1 $82 $36 #
plane-surface $-1 -1 $-1 0 0 -5.0800000000000001 0 0 1 1 0 0 forward_v I I I I #
coedge $-1 -1 $-1 $83 $84 $85 $86 forward $37 $-1 #
face $-1 -1 $-1 $87 $88 $21 $-1 $41 reversed single #
loop $-1 -1 $-1 $-1 $89 $39 #
coedge $-1 -1 $-1 $90 $91 $92 $93 reversed $40 $-1 #
face $-1 -1 $-1 $94 $95 $23 $-1 $96 forward single #
loop $-1 -1 $-1 $-1 $97 $42 #
torus-surface $-1 -1 $-1 -87.469979999999993 0 4.4408920985006262e-016 1 0 0 3.9700199999999994 0.79501999999999995 0 -1 0 forward_v I I I I #
coedge $-1 -1 $-1 $98 $99 $100 $101 reversed $43 $-1 #
model_id-kcp-attrib $-1 -1 $-1 $-1 $46 1 1021491807 1021491807 -534380543 5 #
face $102 -1 $-1 $103 $104 $8 $-1 $105 reversed single #
loop $-1 -1 $-1 $106 $107 $46 #
plane-surface $-1 -1 $-1 0 0 0 1 0 0 0 -25.399999999999999 0 forward_v I I I I #
coedge $-1 -1 $-1 $108 $109 $110 $111 forward $47 $-1 #
coedge $-1 -1 $-1 $51 $49 $112 $113 reversed $33 $-1 #
coedge $-1 -1 $-1 $49 $51 $114 $115 forward $33 $-1 #
coedge $-1 -1 $-1 $109 $108 $49 $72 reversed $47 $-1 #
edge $116 -1 $-1 $117 0 $118 3.1415926535897931 $49 $119 forward @7 unknown #
coedge $-1 -1 $-1 $112 $114 $50 $74 forward $120 $-1 #
edge $121 -1 $-1 $76 0 $77 3.1415926535897931 $50 $122 forward @7 unknown #
attrib_edge_convexity-kcp-attrib $-1 -1 $123 $-1 $52 1 #
vertex $-1 -1 $-1 $74 $124 #
vertex $-1 -1 $-1 $74 $125 #
ellipse-curve $-1 -1 $-1 184.14999999999998 0 -8.8123952579621795e-017 1 0 0 0 3.1749999999999998 4.7693646991822654e-016 1 I I #
face $126 -1 $-1 $127 $128 $19 $-1 $129 reversed single #
loop $-1 -1 $-1 $-1 $130 $53 #
plane-surface $-1 -1 $-1 0 -5.0799999999999992 0 0 1 0 0 0 1 forward_v I I I I #
coedge $-1 -1 $-1 $131 $132 $133 $134 forward $54 $-1 #
coedge $-1 -1 $-1 $135 $56 $136 $137 forward $37 $-1 #
coedge $-1 -1 $-1 $56 $135 $138 $139 forward $37 $-1 #
coedge $-1 -1 $-1 $140 $141 $56 $86 reversed $142 $-1 #
edge $-1 -1 $-1 $143 -5.0799999999999992 $144 5.0799999999999992 $85 $145 forward @7 unknown #
face $-1 -1 $-1 $146 $147 $21 $-1 $41 reversed single #
loop $-1 -1 $-1 $-1 $148 $57 #
coedge $-1 -1 $-1 $149 $150 $151 $152 reversed $58 $-1 #
coedge $-1 -1 $-1 $153 $59 $154 $155 forward $40 $-1 #
coedge $-1 -1 $-1 $59 $153 $156 $157 reversed $40 $-1 #
coedge $-1 -1 $-1 $158 $159 $59 $93 forward $160 $-1 #
edge $-1 -1 $-1 $161 -1.5707963267948968 $162 -1.224606353822377e-016 $92 $163 forward @7 unknown #
face $-1 -1 $-1 $164 $165 $23 $-1 $166 reversed single #
loop $-1 -1 $-1 $-1 $167 $60 #
torus-surface $-1 -1 $-1 -87.469979999999993 0 4.4408920985006262e-016 1 0 0 3.9700199999999994 0.79501999999999995 0 -1 0 forward_v I I I I #
coedge $-1 -1 $-1 $168 $169 $170 $171 forward $61 $-1 #
coedge $-1 -1 $-1 $172 $63 $173 $174 reversed $43 $-1 #
coedge $-1 -1 $-1 $63 $172 $175 $176 forward $43 $-1 #
coedge $-1 -1 $-1 $169 $168 $63 $101 forward $61 $-1 #
edge $177 -1 $-1 $178 0 $179 3.1415926535897931 $63 $180 forward @7 unknown #
model_id-kcp-attrib $-1 -1 $-1 $-1 $65 1 1021491807 1021491807 -534380543 6 #
face $181 -1 $-1 $182 $120 $8 $-1 $183 forward single #
loop $-1 -1 $-1 $-1 $184 $65 #
torus-surface $-1 -1 $-1 0.79501999999999984 0 0 1 0 0 3.9700199999999994 0.79501999999999995 0 -1 0 forward_v I I I I #
loop $-1 -1 $-1 $-1 $185 $46 #
coedge $-1 -1 $-1 $110 $110 $186 $187 forward $66 $-1 #
coedge $-1 -1 $-1 $71 $68 $188 $189 reversed $47 $-1 #
coedge $-1 -1 $-1 $68 $71 $190 $191 forward $47 $-1 #
coedge $-1 -1 $-1 $107 $107 $68 $111 reversed $66 $-1 #
edge $192 -1 $-1 $193 1.2246063538223775e-016 $194 3.1415926535897931 $68 $195 forward @7 unknown #
coedge $-1 -1 $-1 $196 $73 $69 $113 forward $120 $-1 #
edge $-1 -1 $-1 $77 0 $118 7.2187000000000001 $69 $197 forward @7 unknown #
coedge $-1 -1 $-1 $73 $196 $70 $115 reversed $120 $-1 #
edge $-1 -1 $-1 $76 0 $117 7.2187000000000001 $70 $198 forward @7 unknown #
attrib_edge_convexity-kcp-attrib $-1 -1 $199 $-1 $72 4 #
vertex $-1 -1 $-1 $115 $200 #
vertex $-1 -1 $-1 $113 $201 #
ellipse-curve $-1 -1 $-1 0.79501999999999962 0 0 1 0 0 0 3.1749999999999998 3.8881251733860477e-016 1 I I #
loop $-1 -1 $-1 $-1 $73 $103 #
attrib_edge_convexity-kcp-attrib $-1 -1 $202 $-1 $74 1 #
ellipse-curve $-1 -1 $-1 184.14999999999998 8.8123952579621795e-017 1.7624790515924359e-016 -1 0 0 0 3.1749999999999998 2.1256461217936118e-016 1 I I #
convexity-sys-attrib $-1 -1 $-1 $75 $52 #
point $-1 -1 $-1 184.14999999999998 3.1749999999999998 3.8881251733860477e-016 #
point $-1 -1 $-1 184.14999999999998 -3.1749999999999998 -7.7762503467720954e-016 #
model_id-kcp-attrib $-1 -1 $-1 $-1 $79 1 1021491807 1021491807 -534380542 3 #
face $-1 -1 $-1 $203 $204 $19 $-1 $205 reversed single #
loop $-1 -1 $-1 $-1 $206 $79 #
plane-surface $-1 -1 $-1 -95.884999999999991 0 0 1 0 0 0 0 -1 forward_v I I I I #
coedge $-1 -1 $-1 $207 $138 $208 $209 forward $80 $-1 #
coedge $-1 -1 $-1 $210 $82 $207 $211 forward $54 $-1 #
coedge $-1 -1 $-1 $82 $210 $212 $213 forward $54 $-1 #
coedge $-1 -1 $-1 $141 $140 $82 $134 reversed $142 $-1 #
edge $-1 -1 $-1 $214 -5.0799999999999992 $215 5.0799999999999992 $133 $216 forward @7 unknown #
coedge $-1 -1 $-1 $84 $83 $217 $218 forward $37 $-1 #
coedge $-1 -1 $-1 $219 $220 $83 $137 reversed $204 $-1 #
edge $-1 -1 $-1 $144 -95.884999999999991 $221 95.884999999999991 $136 $222 forward @7 unknown #
coedge $-1 -1 $-1 $130 $223 $84 $139 reversed $80 $-1 #
edge $-1 -1 $-1 $224 -95.884999999999991 $143 95.884999999999991 $138 $225 forward @7 unknown #
coedge $-1 -1 $-1 $133 $85 $223 $226 forward $142 $-1 #
coedge $-1 -1 $-1 $85 $133 $219 $227 reversed $142 $-1 #
loop $-1 -1 $-1 $-1 $140 $203 #
vertex $-1 -1 $-1 $86 $228 #
vertex $-1 -1 $-1 $86 $229 #
straight-curve $-1 -1 $-1 95.884999999999991 0 5.0800000000000001 0 1 0 I I #
face $-1 -1 $-1 $230 $231 $21 $-1 $232 reversed single #
loop $-1 -1 $-1 $-1 $233 $87 #
coedge $-1 -1 $-1 $234 $235 $233 $236 forward $88 $-1 #
coedge $-1 -1 $-1 $237 $89 $238 $239 reversed $58 $-1 #
coedge $-1 -1 $-1 $89 $237 $91 $157 forward $58 $-1 #
coedge $-1 -1 $-1 $240 $241 $89 $152 forward $242 $-1 #
edge $-1 -1 $-1 $243 -1.5707963267948966 $244 1.224606353822377e-016 $151 $245 forward @7 unknown #
coedge $-1 -1 $-1 $91 $90 $246 $247 reversed $40 $-1 #
coedge $-1 -1 $-1 $235 $234 $248 $155 reversed $88 $-1 #
edge $-1 -1 $-1 $161 -191.76999999999998 $249 0 $248 $250 forward @7 unknown #
coedge $-1 -1 $-1 $251 $252 $253 $157 forward $254 $-1 #
edge $-1 -1 $-1 $162 -191.76999999999998 $244 0 $156 $255 forward @7 unknown #
coedge $-1 -1 $-1 $159 $92 $252 $256 forward $160 $-1 #
coedge $-1 -1 $-1 $92 $158 $257 $258 reversed $160 $-1 #
loop $-1 -1 $-1 $-1 $92 $259 #
vertex $-1 -1 $-1 $258 $260 #
vertex $-1 -1 $-1 $256 $261 #
ellipse-curve $-1 -1 $-1 -95.884999999999991 -6.03777548009827e-048 4.4408920985006262e-016 1 0 0 0 5.0799999999999992 6.2210002774176741e-016 1 I I #
face $-1 -1 $-1 $262 $263 $23 $-1 $264 reversed single #
loop $-1 -1 $-1 $-1 $265 $94 #
cone-surface $-1 -1 $-1 -105.47349999999999 0 4.4408920985006262e-016 1 0 0 0 -3.1749999999999998 0 1 I I 0 1 3.1749999999999998 forward I I I I #
coedge $-1 -1 $-1 $266 $267 $268 $269 reversed $95 $-1 #
coedge $-1 -1 $-1 $100 $97 $266 $270 reversed $61 $-1 #
coedge $-1 -1 $-1 $97 $100 $267 $271 forward $61 $-1 #
coedge $-1 -1 $-1 $272 $272 $97 $171 reversed $273 $-1 #
edge $274 -1 $-1 $275 1.5707963267948966 $276 4.7123889803846897 $170 $277 forward @7 unknown #
coedge $-1 -1 $-1 $99 $98 $278 $279 reversed $43 $-1 #
coedge $-1 -1 $-1 $268 $265 $98 $174 forward $165 $-1 #
edge $280 -1 $-1 $281 0 $178 7.2187000000000001 $98 $282 forward @7 unknown #
coedge $-1 -1 $-1 $265 $268 $99 $176 reversed $165 $-1 #
edge $283 -1 $-1 $284 0 $179 7.2187000000000001 $99 $285 forward @7 unknown #
convexity-sys-attrib $-1 -1 $-1 $-1 $101 #
vertex $-1 -1 $-1 $174 $286 #
vertex $-1 -1 $-1 $176 $287 #
ellipse-curve $-1 -1 $-1 -87.469979999999993 0 4.4408920985006262e-016 1 0 0 0 3.1749999999999998 3.8881251733860477e-016 1 I I #
model_id-kcp-attrib $-1 -1 $-1 $-1 $103 1 1021491807 1021491807 -534380543 7 #
face $288 -1 $-1 $289 $290 $8 $-1 $291 forward single #
cone-surface $-1 -1 $-1 -17.208499999999997 0 0 1 0 0 0 -3.1749999999999998 0 1 I I 0 1 3.1749999999999998 forward I I I I #
coedge $-1 -1 $-1 $188 $190 $196 $292 forward $104 $-1 #
coedge $-1 -1 $-1 $293 $293 $294 $295 forward $106 $-1 #
coedge $-1 -1 $-1 $190 $188 $107 $187 reversed $104 $-1 #
edge $296 -1 $-1 $193 -1.2246063538223775e-016 $194 3.1415926535897931 $107 $297 forward @7 unknown #
coedge $-1 -1 $-1 $186 $184 $108 $189 forward $104 $-1 #
edge $298 -1 $-1 $118 5.7604462486211389e-017 $194 1.5707963267948963 $108 $299 forward @7 unknown #
coedge $-1 -1 $-1 $184 $186 $109 $191 reversed $104 $-1 #
edge $300 -1 $-1 $117 -2.2168990108329809e-016 $193 1.5707963267948963 $109 $301 forward @7 unknown #
attrib_edge_convexity-kcp-attrib $-1 -1 $302 $-1 $111 4 #
vertex $-1 -1 $-1 $191 $303 #
vertex $-1 -1 $-1 $189 $304 #
ellipse-curve $-1 -1 $-1 0 0 0 1 0 0 0 3.9700199999999994 0 1 I I #
coedge $-1 -1 $-1 $114 $112 $184 $292 reversed $120 $-1 #
straight-curve $-1 -1 $-1 184.14999999999998 -3.1749999999999998 -7.7762503467720954e-016 -25.399999999999999 0 0 I I #
straight-curve $-1 -1 $-1 184.14999999999998 3.1749999999999998 3.8881251733860477e-016 -25.399999999999999 0 0 I I #
convexity-sys-attrib $-1 -1 $-1 $116 $72 #
point $-1 -1 $-1 0.79501999999999984 3.1749999999999998 3.8881251733860477e-016 #
point $-1 -1 $-1 0.79501999999999962 -3.1749999999999998 -7.7762503467720954e-016 #
convexity-sys-attrib $-1 -1 $-1 $121 $74 #
face $305 -1 $-1 $-1 $142 $19 $-1 $306 reversed single #
loop $-1 -1 $-1 $-1 $219 $127 #
plane-surface $-1 -1 $-1 0 5.0799999999999992 0 0 -1 0 0 0 -1 forward_v I I I I #
coedge $-1 -1 $-1 $307 $217 $220 $308 forward $128 $-1 #
coedge $-1 -1 $-1 $223 $130 $131 $211 reversed $80 $-1 #
coedge $-1 -1 $-1 $217 $307 $130 $209 reversed $128 $-1 #
edge $-1 -1 $-1 $224 -5.0800000000000001 $309 5.0800000000000001 $208 $310 forward @7 unknown #
coedge $-1 -1 $-1 $132 $131 $307 $311 forward $54 $-1 #
edge $-1 -1 $-1 $215 -95.884999999999991 $309 95.884999999999991 $207 $312 forward @7 unknown #
coedge $-1 -1 $-1 $220 $219 $132 $213 reversed $204 $-1 #
edge $-1 -1 $-1 $313 -95.884999999999991 $214 95.884999999999991 $212 $314 forward @7 unknown #
vertex $-1 -1 $-1 $134 $315 #
vertex $-1 -1 $-1 $226 $316 #
straight-curve $-1 -1 $-1 95.884999999999991 0 -5.0800000000000001 0 -1 0 I I #
coedge $-1 -1 $-1 $206 $208 $135 $218 reversed $128 $-1 #
edge $-1 -1 $-1 $221 -5.0799999999999992 $224 5.0799999999999992 $217 $317 forward @7 unknown #
coedge $-1 -1 $-1 $212 $136 $141 $227 forward $204 $-1 #
coedge $-1 -1 $-1 $136 $212 $206 $308 reversed $204 $-1 #
vertex $-1 -1 $-1 $137 $318 #
straight-curve $-1 -1 $-1 0 5.0799999999999992 5.0800000000000001 -1 0 0 I I #
coedge $-1 -1 $-1 $138 $207 $140 $226 reversed $80 $-1 #
vertex $-1 -1 $-1 $218 $319 #
straight-curve $-1 -1 $-1 0 -5.0799999999999992 5.0800000000000001 1 0 0 I I #
edge $-1 -1 $-1 $143 -5.0800000000000001 $215 5.0800000000000001 $140 $320 forward @7 unknown #
edge $-1 -1 $-1 $144 -5.0800000000000001 $214 5.0800000000000001 $141 $321 forward @7 unknown #
point $-1 -1 $-1 95.884999999999991 -5.0799999999999992 5.0800000000000001 #
point $-1 -1 $-1 95.884999999999991 5.0799999999999992 5.0800000000000001 #
face $-1 -1 $-1 $322 $323 $21 $-1 $324 forward single #
loop $-1 -1 $-1 $-1 $253 $146 #
plane-surface $-1 -1 $-1 0 5.0799999999999992 0 0 -1 0 0 0 -1 forward_v I I I I #
coedge $-1 -1 $-1 $325 $326 $327 $236 reversed $147 $-1 #
coedge $-1 -1 $-1 $154 $148 $328 $329 reversed $88 $-1 #
coedge $-1 -1 $-1 $148 $154 $330 $331 reversed $88 $-1 #
edge $-1 -1 $-1 $332 -191.76999999999998 $333 0 $327 $334 forward @7 unknown #
coedge $-1 -1 $-1 $150 $149 $335 $336 reversed $58 $-1 #
coedge $-1 -1 $-1 $337 $338 $339 $239 forward $323 $-1 #
edge $-1 -1 $-1 $340 -191.76999999999998 $243 0 $238 $341 forward @7 unknown #
coedge $-1 -1 $-1 $241 $151 $342 $343 reversed $242 $-1 #
coedge $-1 -1 $-1 $151 $240 $337 $344 reversed $242 $-1 #
loop $-1 -1 $-1 $-1 $151 $345 #
vertex $-1 -1 $-1 $344 $346 #
vertex $-1 -1 $-1 $347 $348 #
ellipse-curve $-1 -1 $-1 95.884999999999991 -6.03777548009827e-048 4.4408920985006262e-016 -1 0 0 0 5.0799999999999992 6.2210002774176741e-016 1 I I #
coedge $-1 -1 $-1 $349 $350 $153 $247 forward $351 $-1 #
edge $-1 -1 $-1 $244 1.224606353822377e-016 $249 1.5707963267948968 $246 $245 forward @7 unknown #
coedge $-1 -1 $-1 $352 $353 $354 $155 forward $355 $-1 #
vertex $-1 -1 $-1 $356 $357 #
straight-curve $-1 -1 $-1 95.884999999999991 -6.03777548009827e-048 -5.0800000000000001 1 0 0 I I #
coedge $-1 -1 $-1 $358 $156 $350 $347 forward $254 $-1 #
coedge $-1 -1 $-1 $156 $358 $158 $256 reversed $254 $-1 #
coedge $-1 -1 $-1 $359 $342 $150 $157 reversed $231 $-1 #
loop $-1 -1 $-1 $-1 $156 $360 #
straight-curve $-1 -1 $-1 95.884999999999991 5.0799999999999992 4.4408920985006262e-016 1 0 0 I I #
edge $-1 -1 $-1 $162 -4.4408920985006262e-016 $361 5.0800000000000001 $252 $362 forward @7 unknown #
coedge $-1 -1 $-1 $363 $354 $159 $258 forward $364 $-1 #
edge $-1 -1 $-1 $161 -6.03777548009827e-048 $361 5.0799999999999992 $159 $365 forward @7 unknown #
face $-1 -1 $-1 $366 $160 $21 $-1 $367 reversed single #
point $-1 -1 $-1 -95.884999999999991 -6.03777548009827e-048 -5.0800000000000001 #
point $-1 -1 $-1 -95.884999999999991 5.0799999999999992 4.4408920985006262e-016 #
face $-1 -1 $-1 $368 $369 $23 $-1 $370 forward single #
loop $-1 -1 $-1 $273 $371 $164 #
plane-surface $-1 -1 $-1 -88.264999999999986 0 -4.4408920985006262e-016 1 0 0 0 1 0 forward_v I I I I #
coedge $-1 -1 $-1 $173 $175 $372 $373 reversed $165 $-1 #
coedge $-1 -1 $-1 $374 $167 $168 $270 forward $95 $-1 #
coedge $-1 -1 $-1 $167 $374 $169 $271 reversed $95 $-1 #
coedge $-1 -1 $-1 $175 $173 $167 $269 forward $165 $-1 #
edge $375 -1 $-1 $178 0 $179 3.1415926535897931 $268 $376 forward @7 unknown #
edge $377 -1 $-1 $178 -2.2168990108329809e-016 $276 1.5707963267948963 $168 $378 forward @7 unknown #
edge $379 -1 $-1 $179 -2.2168990108329809e-016 $275 1.5707963267948963 $169 $380 forward @7 unknown #
coedge $-1 -1 $-1 $170 $170 $374 $381 reversed $273 $-1 #
loop $-1 -1 $-1 $-1 $170 $164 #
convexity-sys-attrib $-1 -1 $-1 $-1 $171 #
vertex $-1 -1 $-1 $171 $382 #
vertex $-1 -1 $-1 $171 $383 #
ellipse-curve $-1 -1 $-1 -88.264999999999986 0 4.4408920985006262e-016 -1 0 0 0 0 -3.9700199999999994 1 I I #
coedge $-1 -1 $-1 $372 $372 $172 $279 forward $384 $-1 #
edge $-1 -1 $-1 $284 -2.4492127076447545e-016 $281 3.1415926535897931 $278 $385 forward @7 unknown #
convexity-sys-attrib $-1 -1 $-1 $-1 $174 #
vertex $-1 -1 $-1 $279 $386 #
straight-curve $-1 -1 $-1 95.884999999999991 3.1749999999999998 8.3290172718866744e-016 -25.399999999999999 0 0 I I #
convexity-sys-attrib $-1 -1 $-1 $-1 $176 #
vertex $-1 -1 $-1 $279 $387 #
straight-curve $-1 -1 $-1 95.884999999999991 -3.1749999999999998 -3.3353582482714692e-016 -25.399999999999999 0 0 I I #
point $-1 -1 $-1 -87.469979999999993 3.1749999999999998 8.3290172718866744e-016 #
point $-1 -1 $-1 -87.469979999999993 -3.1749999999999998 -3.3353582482714692e-016 #
model_id-kcp-attrib $-1 -1 $-1 $-1 $182 1 1021491807 1021491807 -534380543 8 #
face $388 -1 $-1 $389 $390 $8 $-1 $391 reversed single #
loop $-1 -1 $-1 $-1 $392 $182 #
cone-surface $-1 -1 $-1 -17.208499999999997 0 0 1 0 0 0 -5.0799999999999992 0 1 I I 0 1 5.0799999999999992 forward I I I I #
edge $393 -1 $-1 $117 0 $118 3.1415926535897931 $196 $394 forward @7 unknown #
coedge $-1 -1 $-1 $185 $185 $395 $396 reversed $106 $-1 #
coedge $-1 -1 $-1 $397 $398 $185 $295 reversed $290 $-1 #
edge $399 -1 $-1 $400 0 $401 3.1415926535897931 $185 $402 forward @7 unknown #
attrib_edge_convexity-kcp-attrib $-1 -1 $403 $-1 $187 4 #
ellipse-curve $-1 -1 $-1 0 0 0 -1 0 0 0 3.9700199999999994 0 1 I I #
attrib_edge_convexity-kcp-attrib $-1 -1 $404 $-1 $189 3 #
ellipse-curve $-1 -1 $-1 0.79501999999999984 -3.9700199999999994 -9.7234234336038289e-016 1.1864993497739411e-031 -2.4492127076447575e-016 1 -1.7624790515924359e-016 0.79501999999999984 1.9471730868317345e-016 1 I I #
attrib_edge_convexity-kcp-attrib $-1 -1 $405 $-1 $191 3 #
ellipse-curve $-1 -1 $-1 0.79501999999999984 3.9700199999999994 4.8617117168019145e-016 5.9324967488697054e-032 1.2246063538223787e-016 -1 -1.7624790515924359e-016 -0.79501999999999984 -9.7358654341586726e-017 1 I I #
convexity-sys-attrib $-1 -1 $-1 $192 $111 #
point $-1 -1 $-1 -1.7624790515924359e-016 3.9700199999999994 4.8617117168019145e-016 #
point $-1 -1 $-1 0 -3.9700199999999994 0 #
model_id-kcp-attrib $-1 -1 $-1 $-1 $203 1 1021491807 1021491807 -534380542 2 #
plane-surface $-1 -1 $-1 95.884999999999991 0 0 -1 0 0 0 0 1 forward_v I I I I #
coedge $-1 -1 $-1 $208 $206 $210 $311 reversed $128 $-1 #
edge $-1 -1 $-1 $221 -5.0800000000000001 $313 5.0800000000000001 $220 $406 forward @7 unknown #
vertex $-1 -1 $-1 $311 $407 #
straight-curve $-1 -1 $-1 -95.884999999999991 -5.0799999999999992 0 0 0 -1 I I #
edge $-1 -1 $-1 $309 -5.0799999999999992 $313 5.0799999999999992 $307 $408 forward @7 unknown #
straight-curve $-1 -1 $-1 0 -5.0799999999999992 -5.0800000000000001 -1 0 0 I I #
vertex $-1 -1 $-1 $213 $409 #
straight-curve $-1 -1 $-1 0 5.0799999999999992 -5.0800000000000001 1 0 0 I I #
point $-1 -1 $-1 95.884999999999991 5.0799999999999992 -5.0800000000000001 #
point $-1 -1 $-1 95.884999999999991 -5.0799999999999992 -5.0800000000000001 #
straight-curve $-1 -1 $-1 -95.884999999999991 0 5.0800000000000001 0 -1 0 I I #
point $-1 -1 $-1 -95.884999999999991 5.0799999999999992 5.0800000000000001 #
point $-1 -1 $-1 -95.884999999999991 -5.0799999999999992 5.0800000000000001 #
straight-curve $-1 -1 $-1 95.884999999999991 -5.0799999999999992 0 0 0 -1 I I #
straight-curve $-1 -1 $-1 95.884999999999991 5.0799999999999992 0 0 0 -1 I I #
face $-1 -1 $-1 $345 $410 $21 $-1 $411 reversed single #
loop $-1 -1 $-1 $-1 $238 $230 #
plane-surface $-1 -1 $-1 0 0 5.0800000000000001 0 0 1 1 0 0 forward_v I I I I #
coedge $-1 -1 $-1 $412 $233 $413 $414 reversed $147 $-1 #
coedge $-1 -1 $-1 $233 $412 $415 $416 reversed $147 $-1 #
coedge $-1 -1 $-1 $417 $418 $419 $236 forward $420 $-1 #
coedge $-1 -1 $-1 $421 $422 $234 $329 forward $423 $-1 #
edge $-1 -1 $-1 $249 1.5707963267948968 $333 3.1415926535897931 $328 $245 forward @7 unknown #
coedge $-1 -1 $-1 $424 $425 $235 $331 forward $426 $-1 #
edge $-1 -1 $-1 $332 -3.1415926535897931 $161 -1.5707963267948968 $330 $163 forward @7 unknown #
vertex $-1 -1 $-1 $427 $428 #
vertex $-1 -1 $-1 $429 $430 #
straight-curve $-1 -1 $-1 95.884999999999991 -5.0799999999999992 4.4408920985006262e-016 1 0 0 I I #
coedge $-1 -1 $-1 $431 $432 $237 $336 forward $433 $-1 #
edge $-1 -1 $-1 $162 -1.224606353822377e-016 $340 1.5707963267948966 $335 $163 forward @7 unknown #
coedge $-1 -1 $-1 $434 $238 $241 $344 forward $323 $-1 #
coedge $-1 -1 $-1 $238 $434 $431 $435 forward $323 $-1 #
coedge $-1 -1 $-1 $436 $437 $412 $239 reversed $438 $-1 #
vertex $-1 -1 $-1 $439 $440 #
straight-curve $-1 -1 $-1 95.884999999999991 -6.03777548009827e-048 5.0800000000000001 1 0 0 I I #
coedge $-1 -1 $-1 $253 $441 $240 $343 forward $231 $-1 #
edge $-1 -1 $-1 $442 -5.0800000000000001 $244 -4.4408920985006262e-016 $240 $443 forward @7 unknown #
edge $-1 -1 $-1 $243 -6.03777548009827e-048 $442 5.0799999999999992 $241 $444 forward @7 unknown #
face $-1 -1 $-1 $445 $242 $21 $-1 $411 reversed single #
point $-1 -1 $-1 95.884999999999991 -6.03777548009827e-048 5.0800000000000001 #
edge $-1 -1 $-1 $244 -4.4408920985006262e-016 $446 5.0800000000000001 $350 $443 forward @7 unknown #
point $-1 -1 $-1 95.884999999999991 5.0799999999999992 4.4408920985006262e-016 #
coedge $-1 -1 $-1 $350 $246 $447 $448 reversed $351 $-1 #
coedge $-1 -1 $-1 $246 $349 $251 $347 reversed $351 $-1 #
loop $-1 -1 $-1 $-1 $246 $445 #
coedge $-1 -1 $-1 $449 $248 $422 $356 forward $355 $-1 #
coedge $-1 -1 $-1 $248 $449 $424 $450 forward $355 $-1 #
coedge $-1 -1 $-1 $257 $447 $90 $155 reversed $364 $-1 #
loop $-1 -1 $-1 $-1 $248 $451 #
edge $-1 -1 $-1 $249 6.03777548009827e-048 $452 5.0799999999999992 $422 $453 forward @7 unknown #
point $-1 -1 $-1 95.884999999999991 -6.03777548009827e-048 -5.0800000000000001 #
coedge $-1 -1 $-1 $252 $251 $363 $454 reversed $254 $-1 #
coedge $-1 -1 $-1 $441 $253 $432 $455 reversed $231 $-1 #
face $-1 -1 $-1 $-1 $254 $21 $-1 $232 reversed single #
vertex $-1 -1 $-1 $454 $456 #
straight-curve $-1 -1 $-1 -95.884999999999991 5.0799999999999992 0 0 0 -1 I I #
coedge $-1 -1 $-1 $447 $257 $358 $454 forward $364 $-1 #
loop $-1 -1 $-1 $-1 $354 $457 #
straight-curve $-1 -1 $-1 -95.884999999999991 0 -5.0800000000000001 0 1 0 I I #
face $-1 -1 $-1 $458 $433 $21 $-1 $367 reversed single #
plane-surface $-1 -1 $-1 -95.884999999999991 0 0 1 0 0 0 0 -1 forward_v I I I I #
face $-1 -1 $-1 $-1 $384 $23 $-1 $459 reversed single #
loop $-1 -1 $-1 $460 $461 $262 #
cone-surface $-1 -1 $-1 95.884999999999991 -6.03777548009827e-048 4.4408920985006262e-016 1 0 0 0 5.0799999999999992 6.2210002774176741e-016 1 I I 0 1 5.0799999999999992 forward I I I I #
coedge $-1 -1 $-1 $371 $371 $462 $463 forward $263 $-1 #
coedge $-1 -1 $-1 $278 $278 $265 $373 forward $384 $-1 #
edge $-1 -1 $-1 $281 -3.1415926535897931 $284 -2.4492127076447545e-016 $372 $464 forward @7 unknown #
coedge $-1 -1 $-1 $267 $266 $272 $381 forward $95 $-1 #
convexity-sys-attrib $-1 -1 $-1 $-1 $269 #
ellipse-curve $-1 -1 $-1 -87.469979999999993 0 4.4408920985006262e-016 -1 0 0 0 3.1749999999999998 3.8881251733860477e-016 1 I I #
convexity-sys-attrib $-1 -1 $-1 $-1 $270 #
ellipse-curve $-1 -1 $-1 -87.469979999999993 3.9700199999999994 9.3026038153025406e-016 5.9324967488697054e-032 1.2246063538223787e-016 -1 -1.7624790515924359e-016 -0.79501999999999984 -9.7358654341586726e-017 1 I I #
convexity-sys-attrib $-1 -1 $-1 $-1 $271 #
ellipse-curve $-1 -1 $-1 -87.469979999999993 -3.9700199999999994 -5.2825313351032028e-016 1.1864993497739411e-031 -2.4492127076447575e-016 1 -1.7624790515924359e-016 0.79501999999999984 1.9471730868317345e-016 1 I I #
edge $465 -1 $-1 $276 -1.5707963267948968 $275 1.5707963267948966 $272 $466 forward @7 unknown #
point $-1 -1 $-1 -88.264999999999986 -3.9700199999999994 4.4408920985006262e-016 #
point $-1 -1 $-1 -88.264999999999986 3.9700199999999994 9.3026038153025406e-016 #
loop $-1 -1 $-1 $467 $278 $368 #
ellipse-curve $-1 -1 $-1 95.885000000000005 0 4.4408920985006262e-016 -1 0 0 0 -3.1749999999999998 0 1 I I #
point $-1 -1 $-1 95.884999999999991 3.1749999999999998 8.3290172718866744e-016 #
point $-1 -1 $-1 95.884999999999991 -3.1749999999999998 -3.3353582482714692e-016 #
model_id-kcp-attrib $-1 -1 $-1 $-1 $289 1 1021491807 1021491807 -534380543 9 #
face $468 -1 $-1 $-1 $469 $8 $-1 $470 forward single #
loop $-1 -1 $-1 $-1 $471 $289 #
plane-surface $-1 -1 $-1 -7.6199999999999992 0 0 1 0 0 0 -25.399999999999999 0 forward_v I I I I #
coedge $-1 -1 $-1 $398 $397 $471 $472 forward $290 $-1 #
attrib_edge_convexity-kcp-attrib $-1 -1 $473 $-1 $292 4 #
ellipse-curve $-1 -1 $-1 0.79501999999999962 0 0 -1 0 0 0 3.1749999999999998 3.8881251733860477e-016 1 I I #
coedge $-1 -1 $-1 $474 $475 $293 $396 forward $469 $-1 #
edge $476 -1 $-1 $400 0 $401 3.1415926535897931 $293 $477 forward @7 unknown #
coedge $-1 -1 $-1 $392 $294 $475 $478 forward $290 $-1 #
coedge $-1 -1 $-1 $294 $392 $474 $479 reversed $290 $-1 #
attrib_edge_convexity-kcp-attrib $-1 -1 $480 $-1 $295 1 #
vertex $-1 -1 $-1 $396 $481 #
vertex $-1 -1 $-1 $396 $482 #
ellipse-curve $-1 -1 $-1 0 0 -5.2874371547773072e-016 1 5.5511151231257827e-016 1.2575720683741031e-031 -2.8199664825478975e-015 5.0799999999999992 1.1508437432194982e-015 1 I I #
convexity-sys-attrib $-1 -1 $-1 $296 $187 #
convexity-sys-attrib $-1 -1 $-1 $298 $189 #
convexity-sys-attrib $-1 -1 $-1 $300 $191 #
straight-curve $-1 -1 $-1 -95.884999999999991 5.0799999999999992 0 0 0 -1 I I #
point $-1 -1 $-1 -95.884999999999991 -5.0799999999999992 -5.0800000000000001 #
straight-curve $-1 -1 $-1 -95.884999999999991 0 -5.0800000000000001 0 1 0 I I #
point $-1 -1 $-1 -95.884999999999991 5.0799999999999992 -5.0800000000000001 #
loop $-1 -1 $-1 $-1 $415 $322 #
plane-surface $-1 -1 $-1 95.884999999999991 0 0 -1 0 0 0 0 1 forward_v I I I I #
coedge $-1 -1 $-1 $326 $325 $149 $239 forward $147 $-1 #
coedge $-1 -1 $-1 $483 $484 $325 $414 forward $485 $-1 #
edge $-1 -1 $-1 $340 1.5707963267948966 $332 3.1415926535897931 $413 $163 forward @7 unknown #
coedge $-1 -1 $-1 $486 $487 $326 $416 forward $410 $-1 #
edge $-1 -1 $-1 $333 -3.1415926535897931 $243 -1.5707963267948966 $415 $245 forward @7 unknown #
coedge $-1 -1 $-1 $488 $327 $487 $489 reversed $420 $-1 #
coedge $-1 -1 $-1 $327 $488 $483 $490 forward $420 $-1 #
coedge $-1 -1 $-1 $491 $492 $148 $236 reversed $493 $-1 #
loop $-1 -1 $-1 $-1 $327 $494 #
coedge $-1 -1 $-1 $422 $328 $492 $429 forward $423 $-1 #
coedge $-1 -1 $-1 $328 $421 $352 $356 reversed $423 $-1 #
loop $-1 -1 $-1 $-1 $328 $495 #
coedge $-1 -1 $-1 $425 $330 $353 $450 reversed $426 $-1 #
coedge $-1 -1 $-1 $330 $424 $491 $427 reversed $426 $-1 #
loop $-1 -1 $-1 $-1 $330 $496 #
edge $-1 -1 $-1 $332 -4.4408920985006262e-016 $497 5.0800000000000001 $425 $498 forward @7 unknown #
point $-1 -1 $-1 -95.884999999999991 -5.0799999999999992 4.4408920985006262e-016 #
edge $-1 -1 $-1 $333 -4.4408920985006262e-016 $452 5.0800000000000001 $421 $499 forward @7 unknown #
point $-1 -1 $-1 95.884999999999991 -5.0799999999999992 4.4408920985006262e-016 #
coedge $-1 -1 $-1 $432 $335 $338 $435 reversed $433 $-1 #
coedge $-1 -1 $-1 $335 $431 $359 $455 forward $433 $-1 #
loop $-1 -1 $-1 $-1 $335 $366 #
coedge $-1 -1 $-1 $338 $337 $441 $500 forward $323 $-1 #
edge $-1 -1 $-1 $501 -5.0799999999999992 $340 6.03777548009827e-048 $431 $502 forward @7 unknown #
coedge $-1 -1 $-1 $503 $339 $484 $439 forward $438 $-1 #
coedge $-1 -1 $-1 $339 $503 $486 $504 forward $438 $-1 #
loop $-1 -1 $-1 $-1 $339 $505 #
edge $-1 -1 $-1 $340 6.03777548009827e-048 $506 5.0799999999999992 $484 $502 forward @7 unknown #
point $-1 -1 $-1 -95.884999999999991 -6.03777548009827e-048 5.0800000000000001 #
coedge $-1 -1 $-1 $342 $359 $434 $500 reversed $231 $-1 #
vertex $-1 -1 $-1 $344 $507 #
straight-curve $-1 -1 $-1 95.884999999999991 5.0799999999999992 0 0 0 -1 I I #
straight-curve $-1 -1 $-1 95.884999999999991 0 5.0800000000000001 0 1 0 I I #
face $-1 -1 $-1 $495 $351 $21 $-1 $411 reversed single #
vertex $-1 -1 $-1 $448 $508 #
coedge $-1 -1 $-1 $354 $363 $349 $448 forward $364 $-1 #
edge $-1 -1 $-1 $446 -5.0799999999999992 $249 6.03777548009827e-048 $349 $453 forward @7 unknown #
coedge $-1 -1 $-1 $353 $352 $509 $510 forward $355 $-1 #
edge $-1 -1 $-1 $497 -5.0799999999999992 $161 -6.03777548009827e-048 $424 $365 forward @7 unknown #
face $-1 -1 $-1 $494 $355 $21 $-1 $511 reversed single #
vertex $-1 -1 $-1 $429 $512 #
straight-curve $-1 -1 $-1 95.884999999999991 0 -5.0800000000000001 0 -1 0 I I #
edge $-1 -1 $-1 $361 -95.884999999999991 $446 95.884999999999991 $358 $513 forward @7 unknown #
edge $-1 -1 $-1 $501 -5.0800000000000001 $162 -4.4408920985006262e-016 $359 $362 forward @7 unknown #
point $-1 -1 $-1 -95.884999999999991 5.0799999999999992 -5.0800000000000001 #
face $-1 -1 $-1 $496 $364 $21 $-1 $511 reversed single #
face $-1 -1 $-1 $514 $485 $21 $-1 $367 reversed single #
plane-surface $-1 -1 $-1 95.884999999999991 0 0 -1 0 0 0 0 1 forward_v I I I I #
loop $-1 -1 $-1 $-1 $462 $262 #
coedge $-1 -1 $-1 $461 $461 $515 $516 reversed $369 $-1 #
coedge $-1 -1 $-1 $462 $462 $371 $463 reversed $460 $-1 #
edge $517 -1 $-1 $518 -3.1415926535897931 $518 3.1415926535897931 $462 $519 forward @7 unknown #
ellipse-curve $-1 -1 $-1 95.885000000000005 0 4.4408920985006262e-016 -1 0 0 0 -3.1749999999999998 0 1 I I #
convexity-sys-attrib $-1 -1 $-1 $-1 $381 #
ellipse-curve $-1 -1 $-1 -88.264999999999986 0 4.4408920985006262e-016 -1 0 0 0 0 -3.9700199999999994 1 I I #
loop $-1 -1 $-1 $-1 $515 $368 #
model_id-kcp-attrib $-1 -1 $-1 $-1 $389 1 1021491807 1021491807 -534380543 10 #
loop $-1 -1 $-1 $-1 $395 $389 #
cone-surface $-1 -1 $-1 -17.208499999999997 0 0 1 0 0 0 -5.0799999999999992 0 1 I I 0 1 5.0799999999999992 forward I I I I #
coedge $-1 -1 $-1 $520 $520 $392 $472 reversed $390 $-1 #
edge $-1 -1 $-1 $521 1.224606353822377e-016 $522 3.1415926535897931 $392 $523 forward @7 unknown #
convexity-sys-attrib $-1 -1 $-1 $393 $292 #
coedge $-1 -1 $-1 $524 $395 $398 $479 forward $469 $-1 #
coedge $-1 -1 $-1 $395 $524 $397 $478 reversed $469 $-1 #
attrib_edge_convexity-kcp-attrib $-1 -1 $525 $-1 $396 1 #
ellipse-curve $-1 -1 $-1 0 0 -8.81239525796218e-016 -1 -5.5511151231257827e-016 -1.6427580572515503e-031 -2.8199664825478975e-015 5.0799999999999992 1.5033395535379855e-015 1 I I #
edge $-1 -1 $-1 $400 0 $521 0.29999999999999993 $397 $526 forward @7 unknown #
edge $-1 -1 $-1 $401 0 $522 0.29999999999999988 $398 $527 forward @7 unknown #
convexity-sys-attrib $-1 -1 $-1 $399 $295 #
point $-1 -1 $-1 -2.8199664825478975e-015 5.0799999999999992 6.2210002774176751e-016 #
point $-1 -1 $-1 -2.8199664825478975e-015 -5.0799999999999992 -1.244200055483535e-015 #
coedge $-1 -1 $-1 $484 $413 $418 $490 reversed $485 $-1 #
coedge $-1 -1 $-1 $413 $483 $436 $439 reversed $485 $-1 #
loop $-1 -1 $-1 $-1 $413 $458 #
coedge $-1 -1 $-1 $487 $415 $437 $504 reversed $410 $-1 #
coedge $-1 -1 $-1 $415 $486 $417 $489 forward $410 $-1 #
coedge $-1 -1 $-1 $418 $417 $503 $528 reversed $420 $-1 #
edge $-1 -1 $-1 $529 -5.0800000000000001 $333 -4.4408920985006262e-016 $487 $499 forward @7 unknown #
edge $-1 -1 $-1 $506 -5.0800000000000001 $332 -4.4408920985006262e-016 $483 $498 forward @7 unknown #
coedge $-1 -1 $-1 $509 $419 $425 $427 forward $493 $-1 #
coedge $-1 -1 $-1 $419 $509 $421 $429 reversed $493 $-1 #
loop $-1 -1 $-1 $-1 $419 $514 #
face $-1 -1 $-1 $360 $420 $21 $-1 $530 reversed single #
face $-1 -1 $-1 $457 $423 $21 $-1 $411 reversed single #
face $-1 -1 $-1 $259 $426 $21 $-1 $367 reversed single #
vertex $-1 -1 $-1 $450 $531 #
straight-curve $-1 -1 $-1 -95.884999999999991 -5.0799999999999992 0 0 0 -1 I I #
straight-curve $-1 -1 $-1 95.884999999999991 -5.0799999999999992 0 0 0 -1 I I #
edge $-1 -1 $-1 $442 -95.884999999999991 $501 95.884999999999991 $441 $532 forward @7 unknown #
vertex $-1 -1 $-1 $500 $533 #
straight-curve $-1 -1 $-1 -95.884999999999991 0 5.0800000000000001 0 -1 0 I I #
coedge $-1 -1 $-1 $437 $436 $488 $528 forward $438 $-1 #
edge $-1 -1 $-1 $529 -5.0799999999999992 $243 -6.03777548009827e-048 $486 $444 forward @7 unknown #
face $-1 -1 $-1 $451 $438 $21 $-1 $324 forward single #
vertex $-1 -1 $-1 $439 $534 #
point $-1 -1 $-1 95.884999999999991 5.0799999999999992 5.0800000000000001 #
point $-1 -1 $-1 95.884999999999991 5.0799999999999992 -5.0800000000000001 #
coedge $-1 -1 $-1 $492 $491 $449 $510 reversed $493 $-1 #
edge $-1 -1 $-1 $452 -95.884999999999991 $497 95.884999999999991 $509 $535 forward @7 unknown #
plane-surface $-1 -1 $-1 0 0 -5.0800000000000001 0 0 1 1 0 0 forward_v I I I I #
point $-1 -1 $-1 95.884999999999991 -5.0799999999999992 -5.0800000000000001 #
straight-curve $-1 -1 $-1 0 5.0799999999999992 -5.0800000000000001 1 0 0 I I #
face $-1 -1 $-1 $505 $493 $21 $-1 $530 reversed single #
coedge $-1 -1 $-1 $515 $515 $461 $516 forward $467 $-1 #
edge $-1 -1 $-1 $536 -1.5707963267948968 $536 4.7123889803846897 $515 $537 forward @7 unknown #
convexity-sys-attrib $-1 -1 $-1 $-1 $463 #
vertex $-1 -1 $-1 $463 $538 #
ellipse-curve $-1 -1 $-1 -88.264999999999986 -6.03777548009827e-048 4.4408920985006262e-016 -1 0 0 0 5.0799999999999992 6.2210002774176741e-016 1 I I #
coedge $-1 -1 $-1 $471 $471 $524 $539 forward $390 $-1 #
vertex $-1 -1 $-1 $478 $540 #
vertex $-1 -1 $-1 $479 $541 #
ellipse-curve $-1 -1 $-1 -7.6199999999999992 0 0 1 0 0 0 5.0799999999999992 0 1 I I #
coedge $-1 -1 $-1 $475 $474 $520 $539 reversed $469 $-1 #
convexity-sys-attrib $-1 -1 $-1 $476 $396 #
straight-curve $-1 -1 $-1 -2.8199664825478975e-015 5.0799999999999992 6.2210002774176751e-016 -25.399999999999999 0 0 I I #
straight-curve $-1 -1 $-1 -2.8199664825478975e-015 -5.0799999999999992 -1.244200055483535e-015 -25.399999999999999 0 0 I I #
edge $-1 -1 $-1 $506 -95.884999999999991 $529 95.884999999999991 $488 $542 forward @7 unknown #
vertex $-1 -1 $-1 $504 $543 #
plane-surface $-1 -1 $-1 0 -5.0799999999999992 0 0 1 0 0 0 1 forward_v I I I I #
point $-1 -1 $-1 -95.884999999999991 -5.0799999999999992 -5.0800000000000001 #
straight-curve $-1 -1 $-1 0 5.0799999999999992 5.0800000000000001 -1 0 0 I I #
point $-1 -1 $-1 -95.884999999999991 5.0799999999999992 5.0800000000000001 #
point $-1 -1 $-1 -95.884999999999991 -5.0799999999999992 5.0800000000000001 #
straight-curve $-1 -1 $-1 0 -5.0799999999999992 -5.0800000000000001 -1 0 0 I I #
vertex $-1 -1 $-1 $516 $544 #
ellipse-curve $-1 -1 $-1 95.884999999999991 -6.03777548009827e-048 4.4408920985006262e-016 1 0 0 0 5.0799999999999992 6.2210002774176741e-016 1 I I #
point $-1 -1 $-1 -88.264999999999986 -5.0799999999999992 4.4408920985006271e-016 #
edge $-1 -1 $-1 $521 -1.224606353822377e-016 $522 3.1415926535897931 $520 $545 forward @7 unknown #
point $-1 -1 $-1 -7.620000000000001 5.0799999999999992 6.2210002774176751e-016 #
point $-1 -1 $-1 -7.6199999999999992 -5.0799999999999992 0 #
straight-curve $-1 -1 $-1 0 -5.0799999999999992 5.0800000000000001 1 0 0 I I #
point $-1 -1 $-1 95.884999999999991 -5.0799999999999992 5.0800000000000001 #
point $-1 -1 $-1 95.884999999999991 -6.03777548009827e-048 -5.0800000000000001 #
ellipse-curve $-1 -1 $-1 -7.6199999999999992 0 0 -1 0 0 0 5.0799999999999992 0 1 I I #
End-of-ACIS-data 