700 0 2 0           
24 FBMach with ACIS - 7.0.3 13 ACIS 7.0.3 NT 24 Wed May 15 15:42:45 2002 
1 9.9999999999999995e-007 1e-010 
body $2 -1 $-1 $3 $-1 $4 #
bdycol-kcp $-1 -1 1 3 $5 $6 $7 #
model_id-kcp-attrib $-1 -1 $-1 $-1 $0 1 1021491764 1021491764 -1225654271 1 #
lump $-1 -1 $-1 $-1 $8 $0 #
transform $-1 -1 1 0 0 0 1 0 0 0 1 0 0 0 1 rotate no_reflect no_shear #
body $9 -1 $-1 $10 $-1 $11 #
body $12 -1 $-1 $13 $-1 $14 #
body $15 -1 $-1 $16 $-1 $17 #
shell $-1 -1 $-1 $-1 $-1 $18 $-1 $3 #
rgb_color-st-attrib $-1 -1 $19 $-1 $5 0.5 1 1 #
lump $-1 -1 $-1 $-1 $20 $5 #
transform $-1 -1 1 0 0 0 1 0 0 0 1 88.264999999999986 0 -4.4408920985006262e-016 1 no_rotate no_reflect no_shear #
model_id-kcp-attrib $-1 -1 $-1 $-1 $6 1 1021491764 1021491764 -1224998910 1 #
lump $-1 -1 $-1 $-1 $21 $6 #
transform $-1 -1 1 0 0 0 1 0 0 0 1 88.264999999999986 0 -4.4408920985006262e-016 1 no_rotate no_reflect no_shear #
rgb_color-st-attrib $-1 -1 $22 $-1 $7 1 0.5 1 #
lump $-1 -1 $-1 $-1 $23 $7 #
transform $-1 -1 1 0 0 0 1 0 0 0 1 88.264999999999986 0 -4.4408920985006262e-016 1 no_rotate no_reflect no_shear #
face $24 -1 $-1 $25 $26 $8 $-1 $27 forward single #
model_id-kcp-attrib $-1 -1 $-1 $9 $5 1 1021491764 1021491764 -1234567165 1 #
shell $-1 -1 $-1 $-1 $-1 $28 $-1 $10 #
shell $-1 -1 $-1 $-1 $-1 $29 $-1 $13 #
model_id-kcp-attrib $-1 -1 $-1 $15 $7 1 1021491764 1021491765 -1237647356 1 #
shell $-1 -1 $-1 $-1 $-1 $30 $-1 $16 #
model_id-kcp-attrib $-1 -1 $-1 $-1 $18 1 1021491764 1021491764 -1225654271 2 #
face $31 -1 $-1 $32 $33 $8 $-1 $34 forward single #
loop $-1 -1 $-1 $-1 $35 $18 #
plane-surface $-1 -1 $-1 184.14999999999998 0 0 1 0 0 0 -25.399999999999999 0 forward_v I I I I #
face $-1 -1 $-1 $36 $37 $20 $-1 $38 reversed single #
face $-1 -1 $-1 $39 $40 $21 $-1 $41 forward single #
face $-1 -1 $-1 $42 $43 $23 $-1 $44 reversed single #
model_id-kcp-attrib $-1 -1 $-1 $-1 $25 1 1021491764 1021491764 -1225654271 3 #
face $45 -1 $-1 $46 $47 $8 $-1 $48 reversed single #
loop $-1 -1 $-1 $-1 $49 $25 #
cone-surface $-1 -1 $-1 -17.208499999999997 0 0 1 0 0 0 -3.1749999999999998 0 1 I I 0 1 3.1749999999999998 forward I I I I #
coedge $-1 -1 $-1 $50 $50 $51 $52 forward $26 $-1 #
face $-1 -1 $-1 $53 $54 $20 $-1 $38 reversed single #
loop $-1 -1 $-1 $-1 $55 $28 #
cone-surface $-1 -1 $-1 95.884999999999991 -6.03777548009827e-048 4.4408920985006262e-016 1 0 0 0 5.0799999999999992 6.2210002774176741e-016 1 I I 0 1 5.0799999999999992 forward I I I I #
face $-1 -1 $-1 $56 $57 $21 $-1 $58 reversed single #
loop $-1 -1 $-1 $-1 $59 $29 #
plane-surface $-1 -1 $-1 0 0 5.0800000000000001 0 0 1 1 0 0 forward_v I I I I #
face $-1 -1 $-1 $60 $61 $23 $-1 $62 forward single #
loop $-1 -1 $-1 $-1 $63 $30 #
cone-surface $-1 -1 $-1 -105.47349999999999 0 4.4408920985006262e-016 1 0 0 0 -3.1749999999999998 0 1 I I 0 1 3.1749999999999998 forward I I I I #
model_id-kcp-attrib $-1 -1 $-1 $-1 $32 1 1021491764 1021491764 -1225654271 4 #
face $64 -1 $-1 $65 $66 $8 $-1 $67 forward single #
loop $-1 -1 $-1 $-1 $68 $32 #
torus-surface $-1 -1 $-1 0.79501999999999984 0 0 1 0 0 3.9700199999999994 0.79501999999999995 0 -1 0 forward_v I I I I #
coedge $-1 -1 $-1 $69 $70 $71 $72 forward $33 $-1 #
coedge $-1 -1 $-1 $35 $35 $73 $74 reversed $26 $-1 #
coedge $-1 -1 $-1 $70 $69 $35 $52 reversed $33 $-1 #
edge $75 -1 $-1 $76 0 $77 3.1415926535897931 $35 $78 forward @7 unknown #
face $-1 -1 $-1 $79 $80 $20 $-1 $38 reversed single #
loop $-1 -1 $-1 $-1 $81 $36 #
coedge $-1 -1 $-1 $82 $83 $84 $85 reversed $37 $-1 #
face $-1 -1 $-1 $86 $87 $21 $-1 $88 reversed single #
loop $-1 -1 $-1 $-1 $89 $39 #
plane-surface $-1 -1 $-1 0 0 -5.0800000000000001 0 0 1 1 0 0 forward_v I I I I #
coedge $-1 -1 $-1 $90 $91 $92 $93 forward $40 $-1 #
face $-1 -1 $-1 $94 $95 $23 $-1 $96 forward single #
loop $-1 -1 $-1 $-1 $97 $42 #
torus-surface $-1 -1 $-1 -87.469979999999993 0 4.4408920985006262e-016 1 0 0 3.9700199999999994 0.79501999999999995 0 -1 0 forward_v I I I I #
coedge $-1 -1 $-1 $98 $99 $100 $101 reversed $43 $-1 #
model_id-kcp-attrib $-1 -1 $-1 $-1 $46 1 1021491764 1021491764 -1225654271 5 #
face $102 -1 $-1 $103 $104 $8 $-1 $105 reversed single #
loop $-1 -1 $-1 $106 $107 $46 #
plane-surface $-1 -1 $-1 0 0 0 1 0 0 0 -25.399999999999999 0 forward_v I I I I #
coedge $-1 -1 $-1 $108 $109 $110 $111 forward $47 $-1 #
coedge $-1 -1 $-1 $51 $49 $112 $113 reversed $33 $-1 #
coedge $-1 -1 $-1 $49 $51 $114 $115 forward $33 $-1 #
coedge $-1 -1 $-1 $109 $108 $49 $72 reversed $47 $-1 #
edge $116 -1 $-1 $117 0 $118 3.1415926535897931 $49 $119 forward @7 unknown #
coedge $-1 -1 $-1 $112 $114 $50 $74 forward $120 $-1 #
edge $121 -1 $-1 $76 0 $77 3.1415926535897931 $50 $122 forward @7 unknown #
attrib_edge_convexity-kcp-attrib $-1 -1 $123 $-1 $52 1 #
vertex $-1 -1 $-1 $74 $124 #
vertex $-1 -1 $-1 $74 $125 #
ellipse-curve $-1 -1 $-1 184.14999999999998 0 -8.8123952579621795e-017 1 0 0 0 3.1749999999999998 4.7693646991822654e-016 1 I I #
face $-1 -1 $-1 $126 $127 $20 $-1 $38 reversed single #
loop $-1 -1 $-1 $-1 $128 $53 #
coedge $-1 -1 $-1 $129 $130 $131 $132 reversed $54 $-1 #
coedge $-1 -1 $-1 $133 $55 $134 $135 forward $37 $-1 #
coedge $-1 -1 $-1 $55 $133 $136 $137 reversed $37 $-1 #
coedge $-1 -1 $-1 $138 $139 $55 $85 forward $140 $-1 #
edge $-1 -1 $-1 $141 -1.5707963267948968 $142 -1.224606353822377e-016 $84 $143 forward @7 unknown #
face $144 -1 $-1 $145 $146 $21 $-1 $147 reversed single #
loop $-1 -1 $-1 $-1 $148 $56 #
plane-surface $-1 -1 $-1 0 -5.0799999999999992 0 0 1 0 0 0 1 forward_v I I I I #
coedge $-1 -1 $-1 $149 $150 $151 $152 forward $57 $-1 #
coedge $-1 -1 $-1 $153 $59 $154 $155 forward $40 $-1 #
coedge $-1 -1 $-1 $59 $153 $156 $157 forward $40 $-1 #
coedge $-1 -1 $-1 $158 $159 $59 $93 reversed $160 $-1 #
edge $-1 -1 $-1 $161 -5.0799999999999992 $162 5.0799999999999992 $92 $163 forward @7 unknown #
face $-1 -1 $-1 $164 $165 $23 $-1 $166 reversed single #
loop $-1 -1 $-1 $-1 $167 $60 #
torus-surface $-1 -1 $-1 -87.469979999999993 0 4.4408920985006262e-016 1 0 0 3.9700199999999994 0.79501999999999995 0 -1 0 forward_v I I I I #
coedge $-1 -1 $-1 $168 $169 $170 $171 forward $61 $-1 #
coedge $-1 -1 $-1 $172 $63 $173 $174 reversed $43 $-1 #
coedge $-1 -1 $-1 $63 $172 $175 $176 forward $43 $-1 #
coedge $-1 -1 $-1 $169 $168 $63 $101 forward $61 $-1 #
edge $177 -1 $-1 $178 0 $179 3.1415926535897931 $63 $180 forward @7 unknown #
model_id-kcp-attrib $-1 -1 $-1 $-1 $65 1 1021491764 1021491764 -1225654271 6 #
face $181 -1 $-1 $182 $120 $8 $-1 $183 forward single #
loop $-1 -1 $-1 $-1 $184 $65 #
torus-surface $-1 -1 $-1 0.79501999999999984 0 0 1 0 0 3.9700199999999994 0.79501999999999995 0 -1 0 forward_v I I I I #
loop $-1 -1 $-1 $-1 $185 $46 #
coedge $-1 -1 $-1 $110 $110 $186 $187 forward $66 $-1 #
coedge $-1 -1 $-1 $71 $68 $188 $189 reversed $47 $-1 #
coedge $-1 -1 $-1 $68 $71 $190 $191 forward $47 $-1 #
coedge $-1 -1 $-1 $107 $107 $68 $111 reversed $66 $-1 #
edge $192 -1 $-1 $193 1.2246063538223775e-016 $194 3.1415926535897931 $68 $195 forward @7 unknown #
coedge $-1 -1 $-1 $196 $73 $69 $113 forward $120 $-1 #
edge $-1 -1 $-1 $77 0 $118 7.2187000000000001 $69 $197 forward @7 unknown #
coedge $-1 -1 $-1 $73 $196 $70 $115 reversed $120 $-1 #
edge $-1 -1 $-1 $76 0 $117 7.2187000000000001 $70 $198 forward @7 unknown #
attrib_edge_convexity-kcp-attrib $-1 -1 $199 $-1 $72 4 #
vertex $-1 -1 $-1 $115 $200 #
vertex $-1 -1 $-1 $113 $201 #
ellipse-curve $-1 -1 $-1 0.79501999999999962 0 0 1 0 0 0 3.1749999999999998 3.8881251733860477e-016 1 I I #
loop $-1 -1 $-1 $-1 $73 $103 #
attrib_edge_convexity-kcp-attrib $-1 -1 $202 $-1 $74 1 #
ellipse-curve $-1 -1 $-1 184.14999999999998 8.8123952579621795e-017 1.7624790515924359e-016 -1 0 0 0 3.1749999999999998 2.1256461217936118e-016 1 I I #
convexity-sys-attrib $-1 -1 $-1 $75 $52 #
point $-1 -1 $-1 184.14999999999998 3.1749999999999998 3.8881251733860477e-016 #
point $-1 -1 $-1 184.14999999999998 -3.1749999999999998 -7.7762503467720954e-016 #
face $-1 -1 $-1 $203 $204 $20 $-1 $205 reversed single #
loop $-1 -1 $-1 $-1 $206 $79 #
coedge $-1 -1 $-1 $207 $208 $206 $209 forward $80 $-1 #
coedge $-1 -1 $-1 $210 $81 $211 $212 reversed $54 $-1 #
coedge $-1 -1 $-1 $81 $210 $83 $137 forward $54 $-1 #
coedge $-1 -1 $-1 $213 $214 $81 $132 forward $215 $-1 #
edge $-1 -1 $-1 $216 -1.5707963267948966 $217 1.224606353822377e-016 $131 $218 forward @7 unknown #
coedge $-1 -1 $-1 $83 $82 $219 $220 reversed $37 $-1 #
coedge $-1 -1 $-1 $208 $207 $221 $135 reversed $80 $-1 #
edge $-1 -1 $-1 $141 -191.76999999999998 $222 0 $221 $223 forward @7 unknown #
coedge $-1 -1 $-1 $224 $225 $226 $137 forward $227 $-1 #
edge $-1 -1 $-1 $142 -191.76999999999998 $217 0 $136 $228 forward @7 unknown #
coedge $-1 -1 $-1 $139 $84 $225 $229 forward $140 $-1 #
coedge $-1 -1 $-1 $84 $138 $230 $231 reversed $140 $-1 #
loop $-1 -1 $-1 $-1 $84 $232 #
vertex $-1 -1 $-1 $231 $233 #
vertex $-1 -1 $-1 $229 $234 #
ellipse-curve $-1 -1 $-1 -95.884999999999991 -6.03777548009827e-048 4.4408920985006262e-016 1 0 0 0 5.0799999999999992 6.2210002774176741e-016 1 I I #
model_id-kcp-attrib $-1 -1 $-1 $-1 $86 1 1021491764 1021491764 -1224998910 3 #
face $-1 -1 $-1 $235 $236 $21 $-1 $237 reversed single #
loop $-1 -1 $-1 $-1 $238 $86 #
plane-surface $-1 -1 $-1 -95.884999999999991 0 0 1 0 0 0 0 -1 forward_v I I I I #
coedge $-1 -1 $-1 $239 $156 $240 $241 forward $87 $-1 #
coedge $-1 -1 $-1 $242 $89 $239 $243 forward $57 $-1 #
coedge $-1 -1 $-1 $89 $242 $244 $245 forward $57 $-1 #
coedge $-1 -1 $-1 $159 $158 $89 $152 reversed $160 $-1 #
edge $-1 -1 $-1 $246 -5.0799999999999992 $247 5.0799999999999992 $151 $248 forward @7 unknown #
coedge $-1 -1 $-1 $91 $90 $249 $250 forward $40 $-1 #
coedge $-1 -1 $-1 $251 $252 $90 $155 reversed $236 $-1 #
edge $-1 -1 $-1 $162 -95.884999999999991 $253 95.884999999999991 $154 $254 forward @7 unknown #
coedge $-1 -1 $-1 $148 $255 $91 $157 reversed $87 $-1 #
edge $-1 -1 $-1 $256 -95.884999999999991 $161 95.884999999999991 $156 $257 forward @7 unknown #
coedge $-1 -1 $-1 $151 $92 $255 $258 forward $160 $-1 #
coedge $-1 -1 $-1 $92 $151 $251 $259 reversed $160 $-1 #
loop $-1 -1 $-1 $-1 $158 $235 #
vertex $-1 -1 $-1 $93 $260 #
vertex $-1 -1 $-1 $93 $261 #
straight-curve $-1 -1 $-1 95.884999999999991 0 5.0800000000000001 0 1 0 I I #
face $-1 -1 $-1 $262 $263 $23 $-1 $264 reversed single #
loop $-1 -1 $-1 $-1 $265 $94 #
cone-surface $-1 -1 $-1 -105.47349999999999 0 4.4408920985006262e-016 1 0 0 0 -3.1749999999999998 0 1 I I 0 1 3.1749999999999998 forward I I I I #
coedge $-1 -1 $-1 $266 $267 $268 $269 reversed $95 $-1 #
coedge $-1 -1 $-1 $100 $97 $266 $270 reversed $61 $-1 #
coedge $-1 -1 $-1 $97 $100 $267 $271 forward $61 $-1 #
coedge $-1 -1 $-1 $272 $272 $97 $171 reversed $273 $-1 #
edge $274 -1 $-1 $275 1.5707963267948966 $276 4.7123889803846897 $170 $277 forward @7 unknown #
coedge $-1 -1 $-1 $99 $98 $278 $279 reversed $43 $-1 #
coedge $-1 -1 $-1 $268 $265 $98 $174 forward $165 $-1 #
edge $280 -1 $-1 $281 0 $178 7.2187000000000001 $98 $282 forward @7 unknown #
coedge $-1 -1 $-1 $265 $268 $99 $176 reversed $165 $-1 #
edge $283 -1 $-1 $284 0 $179 7.2187000000000001 $99 $285 forward @7 unknown #
convexity-sys-attrib $-1 -1 $-1 $-1 $101 #
vertex $-1 -1 $-1 $174 $286 #
vertex $-1 -1 $-1 $176 $287 #
ellipse-curve $-1 -1 $-1 -87.469979999999993 0 4.4408920985006262e-016 1 0 0 0 3.1749999999999998 3.8881251733860477e-016 1 I I #
model_id-kcp-attrib $-1 -1 $-1 $-1 $103 1 1021491764 1021491764 -1225654271 7 #
face $288 -1 $-1 $289 $290 $8 $-1 $291 forward single #
cone-surface $-1 -1 $-1 -17.208499999999997 0 0 1 0 0 0 -3.1749999999999998 0 1 I I 0 1 3.1749999999999998 forward I I I I #
coedge $-1 -1 $-1 $188 $190 $196 $292 forward $104 $-1 #
coedge $-1 -1 $-1 $293 $293 $294 $295 forward $106 $-1 #
coedge $-1 -1 $-1 $190 $188 $107 $187 reversed $104 $-1 #
edge $296 -1 $-1 $193 -1.2246063538223775e-016 $194 3.1415926535897931 $107 $297 forward @7 unknown #
coedge $-1 -1 $-1 $186 $184 $108 $189 forward $104 $-1 #
edge $298 -1 $-1 $118 5.7604462486211389e-017 $194 1.5707963267948963 $108 $299 forward @7 unknown #
coedge $-1 -1 $-1 $184 $186 $109 $191 reversed $104 $-1 #
edge $300 -1 $-1 $117 -2.2168990108329809e-016 $193 1.5707963267948963 $109 $301 forward @7 unknown #
attrib_edge_convexity-kcp-attrib $-1 -1 $302 $-1 $111 4 #
vertex $-1 -1 $-1 $191 $303 #
vertex $-1 -1 $-1 $189 $304 #
ellipse-curve $-1 -1 $-1 0 0 0 1 0 0 0 3.9700199999999994 0 1 I I #
coedge $-1 -1 $-1 $114 $112 $184 $292 reversed $120 $-1 #
straight-curve $-1 -1 $-1 184.14999999999998 -3.1749999999999998 -7.7762503467720954e-016 -25.399999999999999 0 0 I I #
straight-curve $-1 -1 $-1 184.14999999999998 3.1749999999999998 3.8881251733860477e-016 -25.399999999999999 0 0 I I #
convexity-sys-attrib $-1 -1 $-1 $116 $72 #
point $-1 -1 $-1 0.79501999999999984 3.1749999999999998 3.8881251733860477e-016 #
point $-1 -1 $-1 0.79501999999999962 -3.1749999999999998 -7.7762503467720954e-016 #
convexity-sys-attrib $-1 -1 $-1 $121 $74 #
face $-1 -1 $-1 $305 $306 $20 $-1 $307 forward single #
loop $-1 -1 $-1 $-1 $226 $126 #
plane-surface $-1 -1 $-1 0 5.0799999999999992 0 0 -1 0 0 0 -1 forward_v I I I I #
coedge $-1 -1 $-1 $308 $309 $310 $209 reversed $127 $-1 #
coedge $-1 -1 $-1 $134 $128 $311 $312 reversed $80 $-1 #
coedge $-1 -1 $-1 $128 $134 $313 $314 reversed $80 $-1 #
edge $-1 -1 $-1 $315 -191.76999999999998 $316 0 $310 $317 forward @7 unknown #
coedge $-1 -1 $-1 $130 $129 $318 $319 reversed $54 $-1 #
coedge $-1 -1 $-1 $320 $321 $322 $212 forward $306 $-1 #
edge $-1 -1 $-1 $323 -191.76999999999998 $216 0 $211 $324 forward @7 unknown #
coedge $-1 -1 $-1 $214 $131 $325 $326 reversed $215 $-1 #
coedge $-1 -1 $-1 $131 $213 $320 $327 reversed $215 $-1 #
loop $-1 -1 $-1 $-1 $131 $328 #
vertex $-1 -1 $-1 $327 $329 #
vertex $-1 -1 $-1 $330 $331 #
ellipse-curve $-1 -1 $-1 95.884999999999991 -6.03777548009827e-048 4.4408920985006262e-016 -1 0 0 0 5.0799999999999992 6.2210002774176741e-016 1 I I #
coedge $-1 -1 $-1 $332 $333 $133 $220 forward $334 $-1 #
edge $-1 -1 $-1 $217 1.224606353822377e-016 $222 1.5707963267948968 $219 $218 forward @7 unknown #
coedge $-1 -1 $-1 $335 $336 $337 $135 forward $338 $-1 #
vertex $-1 -1 $-1 $339 $340 #
straight-curve $-1 -1 $-1 95.884999999999991 -6.03777548009827e-048 -5.0800000000000001 1 0 0 I I #
coedge $-1 -1 $-1 $341 $136 $333 $330 forward $227 $-1 #
coedge $-1 -1 $-1 $136 $341 $138 $229 reversed $227 $-1 #
coedge $-1 -1 $-1 $342 $325 $130 $137 reversed $204 $-1 #
loop $-1 -1 $-1 $-1 $136 $343 #
straight-curve $-1 -1 $-1 95.884999999999991 5.0799999999999992 4.4408920985006262e-016 1 0 0 I I #
edge $-1 -1 $-1 $142 -4.4408920985006262e-016 $344 5.0800000000000001 $225 $345 forward @7 unknown #
coedge $-1 -1 $-1 $346 $337 $139 $231 forward $347 $-1 #
edge $-1 -1 $-1 $141 -6.03777548009827e-048 $344 5.0799999999999992 $139 $348 forward @7 unknown #
face $-1 -1 $-1 $349 $140 $20 $-1 $350 reversed single #
point $-1 -1 $-1 -95.884999999999991 -6.03777548009827e-048 -5.0800000000000001 #
point $-1 -1 $-1 -95.884999999999991 5.0799999999999992 4.4408920985006262e-016 #
face $351 -1 $-1 $-1 $160 $21 $-1 $352 reversed single #
loop $-1 -1 $-1 $-1 $251 $145 #
plane-surface $-1 -1 $-1 0 5.0799999999999992 0 0 -1 0 0 0 -1 forward_v I I I I #
coedge $-1 -1 $-1 $353 $249 $252 $354 forward $146 $-1 #
coedge $-1 -1 $-1 $255 $148 $149 $243 reversed $87 $-1 #
coedge $-1 -1 $-1 $249 $353 $148 $241 reversed $146 $-1 #
edge $-1 -1 $-1 $256 -5.0800000000000001 $355 5.0800000000000001 $240 $356 forward @7 unknown #
coedge $-1 -1 $-1 $150 $149 $353 $357 forward $57 $-1 #
edge $-1 -1 $-1 $247 -95.884999999999991 $355 95.884999999999991 $239 $358 forward @7 unknown #
coedge $-1 -1 $-1 $252 $251 $150 $245 reversed $236 $-1 #
edge $-1 -1 $-1 $359 -95.884999999999991 $246 95.884999999999991 $244 $360 forward @7 unknown #
vertex $-1 -1 $-1 $152 $361 #
vertex $-1 -1 $-1 $258 $362 #
straight-curve $-1 -1 $-1 95.884999999999991 0 -5.0800000000000001 0 -1 0 I I #
coedge $-1 -1 $-1 $238 $240 $153 $250 reversed $146 $-1 #
edge $-1 -1 $-1 $253 -5.0799999999999992 $256 5.0799999999999992 $249 $363 forward @7 unknown #
coedge $-1 -1 $-1 $244 $154 $159 $259 forward $236 $-1 #
coedge $-1 -1 $-1 $154 $244 $238 $354 reversed $236 $-1 #
vertex $-1 -1 $-1 $155 $364 #
straight-curve $-1 -1 $-1 0 5.0799999999999992 5.0800000000000001 -1 0 0 I I #
coedge $-1 -1 $-1 $156 $239 $158 $258 reversed $87 $-1 #
vertex $-1 -1 $-1 $250 $365 #
straight-curve $-1 -1 $-1 0 -5.0799999999999992 5.0800000000000001 1 0 0 I I #
edge $-1 -1 $-1 $161 -5.0800000000000001 $247 5.0800000000000001 $158 $366 forward @7 unknown #
edge $-1 -1 $-1 $162 -5.0800000000000001 $246 5.0800000000000001 $159 $367 forward @7 unknown #
point $-1 -1 $-1 95.884999999999991 -5.0799999999999992 5.0800000000000001 #
point $-1 -1 $-1 95.884999999999991 5.0799999999999992 5.0800000000000001 #
face $-1 -1 $-1 $368 $369 $23 $-1 $370 forward single #
loop $-1 -1 $-1 $273 $371 $164 #
plane-surface $-1 -1 $-1 -88.264999999999986 0 -4.4408920985006262e-016 1 0 0 0 1 0 forward_v I I I I #
coedge $-1 -1 $-1 $173 $175 $372 $373 reversed $165 $-1 #
coedge $-1 -1 $-1 $374 $167 $168 $270 forward $95 $-1 #
coedge $-1 -1 $-1 $167 $374 $169 $271 reversed $95 $-1 #
coedge $-1 -1 $-1 $175 $173 $167 $269 forward $165 $-1 #
edge $375 -1 $-1 $178 0 $179 3.1415926535897931 $268 $376 forward @7 unknown #
edge $377 -1 $-1 $178 -2.2168990108329809e-016 $276 1.5707963267948963 $168 $378 forward @7 unknown #
edge $379 -1 $-1 $179 -2.2168990108329809e-016 $275 1.5707963267948963 $169 $380 forward @7 unknown #
coedge $-1 -1 $-1 $170 $170 $374 $381 reversed $273 $-1 #
loop $-1 -1 $-1 $-1 $170 $164 #
convexity-sys-attrib $-1 -1 $-1 $-1 $171 #
vertex $-1 -1 $-1 $171 $382 #
vertex $-1 -1 $-1 $171 $383 #
ellipse-curve $-1 -1 $-1 -88.264999999999986 0 4.4408920985006262e-016 -1 0 0 0 0 -3.9700199999999994 1 I I #
coedge $-1 -1 $-1 $372 $372 $172 $279 forward $384 $-1 #
edge $-1 -1 $-1 $284 -2.4492127076447545e-016 $281 3.1415926535897931 $278 $385 forward @7 unknown #
convexity-sys-attrib $-1 -1 $-1 $-1 $174 #
vertex $-1 -1 $-1 $279 $386 #
straight-curve $-1 -1 $-1 95.884999999999991 3.1749999999999998 8.3290172718866744e-016 -25.399999999999999 0 0 I I #
convexity-sys-attrib $-1 -1 $-1 $-1 $176 #
vertex $-1 -1 $-1 $279 $387 #
straight-curve $-1 -1 $-1 95.884999999999991 -3.1749999999999998 -3.3353582482714692e-016 -25.399999999999999 0 0 I I #
point $-1 -1 $-1 -87.469979999999993 3.1749999999999998 8.3290172718866744e-016 #
point $-1 -1 $-1 -87.469979999999993 -3.1749999999999998 -3.3353582482714692e-016 #
model_id-kcp-attrib $-1 -1 $-1 $-1 $182 1 1021491764 1021491764 -1225654271 8 #
face $388 -1 $-1 $389 $390 $8 $-1 $391 reversed single #
loop $-1 -1 $-1 $-1 $392 $182 #
cone-surface $-1 -1 $-1 -17.208499999999997 0 0 1 0 0 0 -5.0799999999999992 0 1 I I 0 1 5.0799999999999992 forward I I I I #
edge $393 -1 $-1 $117 0 $118 3.1415926535897931 $196 $394 forward @7 unknown #
coedge $-1 -1 $-1 $185 $185 $395 $396 reversed $106 $-1 #
coedge $-1 -1 $-1 $397 $398 $185 $295 reversed $290 $-1 #
edge $399 -1 $-1 $400 0 $401 3.1415926535897931 $185 $402 forward @7 unknown #
attrib_edge_convexity-kcp-attrib $-1 -1 $403 $-1 $187 4 #
ellipse-curve $-1 -1 $-1 0 0 0 -1 0 0 0 3.9700199999999994 0 1 I I #
attrib_edge_convexity-kcp-attrib $-1 -1 $404 $-1 $189 3 #
ellipse-curve $-1 -1 $-1 0.79501999999999984 -3.9700199999999994 -9.7234234336038289e-016 1.1864993497739411e-031 -2.4492127076447575e-016 1 -1.7624790515924359e-016 0.79501999999999984 1.9471730868317345e-016 1 I I #
attrib_edge_convexity-kcp-attrib $-1 -1 $405 $-1 $191 3 #
ellipse-curve $-1 -1 $-1 0.79501999999999984 3.9700199999999994 4.8617117168019145e-016 5.9324967488697054e-032 1.2246063538223787e-016 -1 -1.7624790515924359e-016 -0.79501999999999984 -9.7358654341586726e-017 1 I I #
convexity-sys-attrib $-1 -1 $-1 $192 $111 #
point $-1 -1 $-1 -1.7624790515924359e-016 3.9700199999999994 4.8617117168019145e-016 #
point $-1 -1 $-1 0 -3.9700199999999994 0 #
face $-1 -1 $-1 $328 $406 $20 $-1 $407 reversed single #
loop $-1 -1 $-1 $-1 $211 $203 #
plane-surface $-1 -1 $-1 0 0 5.0800000000000001 0 0 1 1 0 0 forward_v I I I I #
coedge $-1 -1 $-1 $408 $206 $409 $410 reversed $127 $-1 #
coedge $-1 -1 $-1 $206 $408 $411 $412 reversed $127 $-1 #
coedge $-1 -1 $-1 $413 $414 $415 $209 forward $416 $-1 #
coedge $-1 -1 $-1 $417 $418 $207 $312 forward $419 $-1 #
edge $-1 -1 $-1 $222 1.5707963267948968 $316 3.1415926535897931 $311 $218 forward @7 unknown #
coedge $-1 -1 $-1 $420 $421 $208 $314 forward $422 $-1 #
edge $-1 -1 $-1 $315 -3.1415926535897931 $141 -1.5707963267948968 $313 $143 forward @7 unknown #
vertex $-1 -1 $-1 $423 $424 #
vertex $-1 -1 $-1 $425 $426 #
straight-curve $-1 -1 $-1 95.884999999999991 -5.0799999999999992 4.4408920985006262e-016 1 0 0 I I #
coedge $-1 -1 $-1 $427 $428 $210 $319 forward $429 $-1 #
edge $-1 -1 $-1 $142 -1.224606353822377e-016 $323 1.5707963267948966 $318 $143 forward @7 unknown #
coedge $-1 -1 $-1 $430 $211 $214 $327 forward $306 $-1 #
coedge $-1 -1 $-1 $211 $430 $427 $431 forward $306 $-1 #
coedge $-1 -1 $-1 $432 $433 $408 $212 reversed $434 $-1 #
vertex $-1 -1 $-1 $435 $436 #
straight-curve $-1 -1 $-1 95.884999999999991 -6.03777548009827e-048 5.0800000000000001 1 0 0 I I #
coedge $-1 -1 $-1 $226 $437 $213 $326 forward $204 $-1 #
edge $-1 -1 $-1 $438 -5.0800000000000001 $217 -4.4408920985006262e-016 $213 $439 forward @7 unknown #
edge $-1 -1 $-1 $216 -6.03777548009827e-048 $438 5.0799999999999992 $214 $440 forward @7 unknown #
face $-1 -1 $-1 $441 $215 $20 $-1 $407 reversed single #
point $-1 -1 $-1 95.884999999999991 -6.03777548009827e-048 5.0800000000000001 #
edge $-1 -1 $-1 $217 -4.4408920985006262e-016 $442 5.0800000000000001 $333 $439 forward @7 unknown #
point $-1 -1 $-1 95.884999999999991 5.0799999999999992 4.4408920985006262e-016 #
coedge $-1 -1 $-1 $333 $219 $443 $444 reversed $334 $-1 #
coedge $-1 -1 $-1 $219 $332 $224 $330 reversed $334 $-1 #
loop $-1 -1 $-1 $-1 $219 $441 #
coedge $-1 -1 $-1 $445 $221 $418 $339 forward $338 $-1 #
coedge $-1 -1 $-1 $221 $445 $420 $446 forward $338 $-1 #
coedge $-1 -1 $-1 $230 $443 $82 $135 reversed $347 $-1 #
loop $-1 -1 $-1 $-1 $221 $447 #
edge $-1 -1 $-1 $222 6.03777548009827e-048 $448 5.0799999999999992 $418 $449 forward @7 unknown #
point $-1 -1 $-1 95.884999999999991 -6.03777548009827e-048 -5.0800000000000001 #
coedge $-1 -1 $-1 $225 $224 $346 $450 reversed $227 $-1 #
coedge $-1 -1 $-1 $437 $226 $428 $451 reversed $204 $-1 #
face $-1 -1 $-1 $-1 $227 $20 $-1 $205 reversed single #
vertex $-1 -1 $-1 $450 $452 #
straight-curve $-1 -1 $-1 -95.884999999999991 5.0799999999999992 0 0 0 -1 I I #
coedge $-1 -1 $-1 $443 $230 $341 $450 forward $347 $-1 #
loop $-1 -1 $-1 $-1 $337 $453 #
straight-curve $-1 -1 $-1 -95.884999999999991 0 -5.0800000000000001 0 1 0 I I #
face $-1 -1 $-1 $454 $429 $20 $-1 $350 reversed single #
plane-surface $-1 -1 $-1 -95.884999999999991 0 0 1 0 0 0 0 -1 forward_v I I I I #
model_id-kcp-attrib $-1 -1 $-1 $-1 $235 1 1021491764 1021491764 -1224998910 2 #
plane-surface $-1 -1 $-1 95.884999999999991 0 0 -1 0 0 0 0 1 forward_v I I I I #
coedge $-1 -1 $-1 $240 $238 $242 $357 reversed $146 $-1 #
edge $-1 -1 $-1 $253 -5.0800000000000001 $359 5.0800000000000001 $252 $455 forward @7 unknown #
vertex $-1 -1 $-1 $357 $456 #
straight-curve $-1 -1 $-1 -95.884999999999991 -5.0799999999999992 0 0 0 -1 I I #
edge $-1 -1 $-1 $355 -5.0799999999999992 $359 5.0799999999999992 $353 $457 forward @7 unknown #
straight-curve $-1 -1 $-1 0 -5.0799999999999992 -5.0800000000000001 -1 0 0 I I #
vertex $-1 -1 $-1 $245 $458 #
straight-curve $-1 -1 $-1 0 5.0799999999999992 -5.0800000000000001 1 0 0 I I #
point $-1 -1 $-1 95.884999999999991 5.0799999999999992 -5.0800000000000001 #
point $-1 -1 $-1 95.884999999999991 -5.0799999999999992 -5.0800000000000001 #
straight-curve $-1 -1 $-1 -95.884999999999991 0 5.0800000000000001 0 -1 0 I I #
point $-1 -1 $-1 -95.884999999999991 5.0799999999999992 5.0800000000000001 #
point $-1 -1 $-1 -95.884999999999991 -5.0799999999999992 5.0800000000000001 #
straight-curve $-1 -1 $-1 95.884999999999991 -5.0799999999999992 0 0 0 -1 I I #
straight-curve $-1 -1 $-1 95.884999999999991 5.0799999999999992 0 0 0 -1 I I #
face $-1 -1 $-1 $-1 $384 $23 $-1 $459 reversed single #
loop $-1 -1 $-1 $460 $461 $262 #
cone-surface $-1 -1 $-1 95.884999999999991 -6.03777548009827e-048 4.4408920985006262e-016 1 0 0 0 5.0799999999999992 6.2210002774176741e-016 1 I I 0 1 5.0799999999999992 forward I I I I #
coedge $-1 -1 $-1 $371 $371 $462 $463 forward $263 $-1 #
coedge $-1 -1 $-1 $278 $278 $265 $373 forward $384 $-1 #
edge $-1 -1 $-1 $281 -3.1415926535897931 $284 -2.4492127076447545e-016 $372 $464 forward @7 unknown #
coedge $-1 -1 $-1 $267 $266 $272 $381 forward $95 $-1 #
convexity-sys-attrib $-1 -1 $-1 $-1 $269 #
ellipse-curve $-1 -1 $-1 -87.469979999999993 0 4.4408920985006262e-016 -1 0 0 0 3.1749999999999998 3.8881251733860477e-016 1 I I #
convexity-sys-attrib $-1 -1 $-1 $-1 $270 #
ellipse-curve $-1 -1 $-1 -87.469979999999993 3.9700199999999994 9.3026038153025406e-016 5.9324967488697054e-032 1.2246063538223787e-016 -1 -1.7624790515924359e-016 -0.79501999999999984 -9.7358654341586726e-017 1 I I #
convexity-sys-attrib $-1 -1 $-1 $-1 $271 #
ellipse-curve $-1 -1 $-1 -87.469979999999993 -3.9700199999999994 -5.2825313351032028e-016 1.1864993497739411e-031 -2.4492127076447575e-016 1 -1.7624790515924359e-016 0.79501999999999984 1.9471730868317345e-016 1 I I #
edge $465 -1 $-1 $276 -1.5707963267948968 $275 1.5707963267948966 $272 $466 forward @7 unknown #
point $-1 -1 $-1 -88.264999999999986 -3.9700199999999994 4.4408920985006262e-016 #
point $-1 -1 $-1 -88.264999999999986 3.9700199999999994 9.3026038153025406e-016 #
loop $-1 -1 $-1 $467 $278 $368 #
ellipse-curve $-1 -1 $-1 95.885000000000005 0 4.4408920985006262e-016 -1 0 0 0 -3.1749999999999998 0 1 I I #
point $-1 -1 $-1 95.884999999999991 3.1749999999999998 8.3290172718866744e-016 #
point $-1 -1 $-1 95.884999999999991 -3.1749999999999998 -3.3353582482714692e-016 #
model_id-kcp-attrib $-1 -1 $-1 $-1 $289 1 1021491764 1021491764 -1225654271 9 #
face $468 -1 $-1 $-1 $469 $8 $-1 $470 forward single #
loop $-1 -1 $-1 $-1 $471 $289 #
plane-surface $-1 -1 $-1 -7.6199999999999992 0 0 1 0 0 0 -25.399999999999999 0 forward_v I I I I #
coedge $-1 -1 $-1 $398 $397 $471 $472 forward $290 $-1 #
attrib_edge_convexity-kcp-attrib $-1 -1 $473 $-1 $292 4 #
ellipse-curve $-1 -1 $-1 0.79501999999999962 0 0 -1 0 0 0 3.1749999999999998 3.8881251733860477e-016 1 I I #
coedge $-1 -1 $-1 $474 $475 $293 $396 forward $469 $-1 #
edge $476 -1 $-1 $400 0 $401 3.1415926535897931 $293 $477 forward @7 unknown #
coedge $-1 -1 $-1 $392 $294 $475 $478 forward $290 $-1 #
coedge $-1 -1 $-1 $294 $392 $474 $479 reversed $290 $-1 #
attrib_edge_convexity-kcp-attrib $-1 -1 $480 $-1 $295 1 #
vertex $-1 -1 $-1 $396 $481 #
vertex $-1 -1 $-1 $396 $482 #
ellipse-curve $-1 -1 $-1 0 0 -5.2874371547773072e-016 1 5.5511151231257827e-016 1.2575720683741031e-031 -2.8199664825478975e-015 5.0799999999999992 1.1508437432194982e-015 1 I I #
convexity-sys-attrib $-1 -1 $-1 $296 $187 #
convexity-sys-attrib $-1 -1 $-1 $298 $189 #
convexity-sys-attrib $-1 -1 $-1 $300 $191 #
loop $-1 -1 $-1 $-1 $411 $305 #
plane-surface $-1 -1 $-1 95.884999999999991 0 0 -1 0 0 0 0 1 forward_v I I I I #
coedge $-1 -1 $-1 $309 $308 $129 $212 forward $127 $-1 #
coedge $-1 -1 $-1 $483 $484 $308 $410 forward $485 $-1 #
edge $-1 -1 $-1 $323 1.5707963267948966 $315 3.1415926535897931 $409 $143 forward @7 unknown #
coedge $-1 -1 $-1 $486 $487 $309 $412 forward $406 $-1 #
edge $-1 -1 $-1 $316 -3.1415926535897931 $216 -1.5707963267948966 $411 $218 forward @7 unknown #
coedge $-1 -1 $-1 $488 $310 $487 $489 reversed $416 $-1 #
coedge $-1 -1 $-1 $310 $488 $483 $490 forward $416 $-1 #
coedge $-1 -1 $-1 $491 $492 $128 $209 reversed $493 $-1 #
loop $-1 -1 $-1 $-1 $310 $494 #
coedge $-1 -1 $-1 $418 $311 $492 $425 forward $419 $-1 #
coedge $-1 -1 $-1 $311 $417 $335 $339 reversed $419 $-1 #
loop $-1 -1 $-1 $-1 $311 $495 #
coedge $-1 -1 $-1 $421 $313 $336 $446 reversed $422 $-1 #
coedge $-1 -1 $-1 $313 $420 $491 $423 reversed $422 $-1 #
loop $-1 -1 $-1 $-1 $313 $496 #
edge $-1 -1 $-1 $315 -4.4408920985006262e-016 $497 5.0800000000000001 $421 $498 forward @7 unknown #
point $-1 -1 $-1 -95.884999999999991 -5.0799999999999992 4.4408920985006262e-016 #
edge $-1 -1 $-1 $316 -4.4408920985006262e-016 $448 5.0800000000000001 $417 $499 forward @7 unknown #
point $-1 -1 $-1 95.884999999999991 -5.0799999999999992 4.4408920985006262e-016 #
coedge $-1 -1 $-1 $428 $318 $321 $431 reversed $429 $-1 #
coedge $-1 -1 $-1 $318 $427 $342 $451 forward $429 $-1 #
loop $-1 -1 $-1 $-1 $318 $349 #
coedge $-1 -1 $-1 $321 $320 $437 $500 forward $306 $-1 #
edge $-1 -1 $-1 $501 -5.0799999999999992 $323 6.03777548009827e-048 $427 $502 forward @7 unknown #
coedge $-1 -1 $-1 $503 $322 $484 $435 forward $434 $-1 #
coedge $-1 -1 $-1 $322 $503 $486 $504 forward $434 $-1 #
loop $-1 -1 $-1 $-1 $322 $505 #
edge $-1 -1 $-1 $323 6.03777548009827e-048 $506 5.0799999999999992 $484 $502 forward @7 unknown #
point $-1 -1 $-1 -95.884999999999991 -6.03777548009827e-048 5.0800000000000001 #
coedge $-1 -1 $-1 $325 $342 $430 $500 reversed $204 $-1 #
vertex $-1 -1 $-1 $327 $507 #
straight-curve $-1 -1 $-1 95.884999999999991 5.0799999999999992 0 0 0 -1 I I #
straight-curve $-1 -1 $-1 95.884999999999991 0 5.0800000000000001 0 1 0 I I #
face $-1 -1 $-1 $495 $334 $20 $-1 $407 reversed single #
vertex $-1 -1 $-1 $444 $508 #
coedge $-1 -1 $-1 $337 $346 $332 $444 forward $347 $-1 #
edge $-1 -1 $-1 $442 -5.0799999999999992 $222 6.03777548009827e-048 $332 $449 forward @7 unknown #
coedge $-1 -1 $-1 $336 $335 $509 $510 forward $338 $-1 #
edge $-1 -1 $-1 $497 -5.0799999999999992 $141 -6.03777548009827e-048 $420 $348 forward @7 unknown #
face $-1 -1 $-1 $494 $338 $20 $-1 $511 reversed single #
vertex $-1 -1 $-1 $425 $512 #
straight-curve $-1 -1 $-1 95.884999999999991 0 -5.0800000000000001 0 -1 0 I I #
edge $-1 -1 $-1 $344 -95.884999999999991 $442 95.884999999999991 $341 $513 forward @7 unknown #
edge $-1 -1 $-1 $501 -5.0800000000000001 $142 -4.4408920985006262e-016 $342 $345 forward @7 unknown #
point $-1 -1 $-1 -95.884999999999991 5.0799999999999992 -5.0800000000000001 #
face $-1 -1 $-1 $496 $347 $20 $-1 $511 reversed single #
face $-1 -1 $-1 $514 $485 $20 $-1 $350 reversed single #
straight-curve $-1 -1 $-1 -95.884999999999991 5.0799999999999992 0 0 0 -1 I I #
point $-1 -1 $-1 -95.884999999999991 -5.0799999999999992 -5.0800000000000001 #
straight-curve $-1 -1 $-1 -95.884999999999991 0 -5.0800000000000001 0 1 0 I I #
point $-1 -1 $-1 -95.884999999999991 5.0799999999999992 -5.0800000000000001 #
plane-surface $-1 -1 $-1 95.884999999999991 0 0 -1 0 0 0 0 1 forward_v I I I I #
loop $-1 -1 $-1 $-1 $462 $262 #
coedge $-1 -1 $-1 $461 $461 $515 $516 reversed $369 $-1 #
coedge $-1 -1 $-1 $462 $462 $371 $463 reversed $460 $-1 #
edge $517 -1 $-1 $518 -3.1415926535897931 $518 3.1415926535897931 $462 $519 forward @7 unknown #
ellipse-curve $-1 -1 $-1 95.885000000000005 0 4.4408920985006262e-016 -1 0 0 0 -3.1749999999999998 0 1 I I #
convexity-sys-attrib $-1 -1 $-1 $-1 $381 #
ellipse-curve $-1 -1 $-1 -88.264999999999986 0 4.4408920985006262e-016 -1 0 0 0 0 -3.9700199999999994 1 I I #
loop $-1 -1 $-1 $-1 $515 $368 #
model_id-kcp-attrib $-1 -1 $-1 $-1 $389 1 1021491764 1021491764 -1225654271 10 #
loop $-1 -1 $-1 $-1 $395 $389 #
cone-surface $-1 -1 $-1 -17.208499999999997 0 0 1 0 0 0 -5.0799999999999992 0 1 I I 0 1 5.0799999999999992 forward I I I I #
coedge $-1 -1 $-1 $520 $520 $392 $472 reversed $390 $-1 #
edge $-1 -1 $-1 $521 1.224606353822377e-016 $522 3.1415926535897931 $392 $523 forward @7 unknown #
convexity-sys-attrib $-1 -1 $-1 $393 $292 #
coedge $-1 -1 $-1 $524 $395 $398 $479 forward $469 $-1 #
coedge $-1 -1 $-1 $395 $524 $397 $478 reversed $469 $-1 #
attrib_edge_convexity-kcp-attrib $-1 -1 $525 $-1 $396 1 #
ellipse-curve $-1 -1 $-1 0 0 -8.81239525796218e-016 -1 -5.5511151231257827e-016 -1.6427580572515503e-031 -2.8199664825478975e-015 5.0799999999999992 1.5033395535379855e-015 1 I I #
edge $-1 -1 $-1 $400 0 $521 0.29999999999999993 $397 $526 forward @7 unknown #
edge $-1 -1 $-1 $401 0 $522 0.29999999999999988 $398 $527 forward @7 unknown #
convexity-sys-attrib $-1 -1 $-1 $399 $295 #
point $-1 -1 $-1 -2.8199664825478975e-015 5.0799999999999992 6.2210002774176751e-016 #
point $-1 -1 $-1 -2.8199664825478975e-015 -5.0799999999999992 -1.244200055483535e-015 #
coedge $-1 -1 $-1 $484 $409 $414 $490 reversed $485 $-1 #
coedge $-1 -1 $-1 $409 $483 $432 $435 reversed $485 $-1 #
loop $-1 -1 $-1 $-1 $409 $454 #
coedge $-1 -1 $-1 $487 $411 $433 $504 reversed $406 $-1 #
coedge $-1 -1 $-1 $411 $486 $413 $489 forward $406 $-1 #
coedge $-1 -1 $-1 $414 $413 $503 $528 reversed $416 $-1 #
edge $-1 -1 $-1 $529 -5.0800000000000001 $316 -4.4408920985006262e-016 $487 $499 forward @7 unknown #
edge $-1 -1 $-1 $506 -5.0800000000000001 $315 -4.4408920985006262e-016 $483 $498 forward @7 unknown #
coedge $-1 -1 $-1 $509 $415 $421 $423 forward $493 $-1 #
coedge $-1 -1 $-1 $415 $509 $417 $425 reversed $493 $-1 #
loop $-1 -1 $-1 $-1 $415 $514 #
face $-1 -1 $-1 $343 $416 $20 $-1 $530 reversed single #
face $-1 -1 $-1 $453 $419 $20 $-1 $407 reversed single #
face $-1 -1 $-1 $232 $422 $20 $-1 $350 reversed single #
vertex $-1 -1 $-1 $446 $531 #
straight-curve $-1 -1 $-1 -95.884999999999991 -5.0799999999999992 0 0 0 -1 I I #
straight-curve $-1 -1 $-1 95.884999999999991 -5.0799999999999992 0 0 0 -1 I I #
edge $-1 -1 $-1 $438 -95.884999999999991 $501 95.884999999999991 $437 $532 forward @7 unknown #
vertex $-1 -1 $-1 $500 $533 #
straight-curve $-1 -1 $-1 -95.884999999999991 0 5.0800000000000001 0 -1 0 I I #
coedge $-1 -1 $-1 $433 $432 $488 $528 forward $434 $-1 #
edge $-1 -1 $-1 $529 -5.0799999999999992 $216 -6.03777548009827e-048 $486 $440 forward @7 unknown #
face $-1 -1 $-1 $447 $434 $20 $-1 $307 forward single #
vertex $-1 -1 $-1 $435 $534 #
point $-1 -1 $-1 95.884999999999991 5.0799999999999992 5.0800000000000001 #
point $-1 -1 $-1 95.884999999999991 5.0799999999999992 -5.0800000000000001 #
coedge $-1 -1 $-1 $492 $491 $445 $510 reversed $493 $-1 #
edge $-1 -1 $-1 $448 -95.884999999999991 $497 95.884999999999991 $509 $535 forward @7 unknown #
plane-surface $-1 -1 $-1 0 0 -5.0800000000000001 0 0 1 1 0 0 forward_v I I I I #
point $-1 -1 $-1 95.884999999999991 -5.0799999999999992 -5.0800000000000001 #
straight-curve $-1 -1 $-1 0 5.0799999999999992 -5.0800000000000001 1 0 0 I I #
face $-1 -1 $-1 $505 $493 $20 $-1 $530 reversed single #
coedge $-1 -1 $-1 $515 $515 $461 $516 forward $467 $-1 #
edge $-1 -1 $-1 $536 -1.5707963267948968 $536 4.7123889803846897 $515 $537 forward @7 unknown #
convexity-sys-attrib $-1 -1 $-1 $-1 $463 #
vertex $-1 -1 $-1 $463 $538 #
ellipse-curve $-1 -1 $-1 -88.264999999999986 -6.03777548009827e-048 4.4408920985006262e-016 -1 0 0 0 5.0799999999999992 6.2210002774176741e-016 1 I I #
coedge $-1 -1 $-1 $471 $471 $524 $539 forward $390 $-1 #
vertex $-1 -1 $-1 $478 $540 #
vertex $-1 -1 $-1 $479 $541 #
ellipse-curve $-1 -1 $-1 -7.6199999999999992 0 0 1 0 0 0 5.0799999999999992 0 1 I I #
coedge $-1 -1 $-1 $475 $474 $520 $539 reversed $469 $-1 #
convexity-sys-attrib $-1 -1 $-1 $476 $396 #
straight-curve $-1 -1 $-1 -2.8199664825478975e-015 5.0799999999999992 6.2210002774176751e-016 -25.399999999999999 0 0 I I #
straight-curve $-1 -1 $-1 -2.8199664825478975e-015 -5.0799999999999992 -1.244200055483535e-015 -25.399999999999999 0 0 I I #
edge $-1 -1 $-1 $506 -95.884999999999991 $529 95.884999999999991 $488 $542 forward @7 unknown #
vertex $-1 -1 $-1 $504 $543 #
plane-surface $-1 -1 $-1 0 -5.0799999999999992 0 0 1 0 0 0 1 forward_v I I I I #
point $-1 -1 $-1 -95.884999999999991 -5.0799999999999992 -5.0800000000000001 #
straight-curve $-1 -1 $-1 0 5.0799999999999992 5.0800000000000001 -1 0 0 I I #
point $-1 -1 $-1 -95.884999999999991 5.0799999999999992 5.0800000000000001 #
point $-1 -1 $-1 -95.884999999999991 -5.0799999999999992 5.0800000000000001 #
straight-curve $-1 -1 $-1 0 -5.0799999999999992 -5.0800000000000001 -1 0 0 I I #
vertex $-1 -1 $-1 $516 $544 #
ellipse-curve $-1 -1 $-1 95.884999999999991 -6.03777548009827e-048 4.4408920985006262e-016 1 0 0 0 5.0799999999999992 6.2210002774176741e-016 1 I I #
point $-1 -1 $-1 -88.264999999999986 -5.0799999999999992 4.4408920985006271e-016 #
edge $-1 -1 $-1 $521 -1.224606353822377e-016 $522 3.1415926535897931 $520 $545 forward @7 unknown #
point $-1 -1 $-1 -7.620000000000001 5.0799999999999992 6.2210002774176751e-016 #
point $-1 -1 $-1 -7.6199999999999992 -5.0799999999999992 0 #
straight-curve $-1 -1 $-1 0 -5.0799999999999992 5.0800000000000001 1 0 0 I I #
point $-1 -1 $-1 95.884999999999991 -5.0799999999999992 5.0800000000000001 #
point $-1 -1 $-1 95.884999999999991 -6.03777548009827e-048 -5.0800000000000001 #
ellipse-curve $-1 -1 $-1 -7.6199999999999992 0 0 -1 0 0 0 5.0799999999999992 0 1 I I #
End-of-ACIS-data 