700 0 2 0           
24 FBMach with ACIS - 7.0.3 13 ACIS 7.0.3 NT 24 Wed May 15 15:43:04 2002 
1 9.9999999999999995e-007 1e-010 
body $2 -1 $-1 $3 $-1 $4 #
bdycol-kcp $-1 -1 1 3 $5 $6 $7 #
model_id-kcp-attrib $-1 -1 $-1 $-1 $0 1 1021491784 1021491784 210632705 1 #
lump $-1 -1 $-1 $-1 $8 $0 #
transform $-1 -1 1 0 0 0 1 0 0 0 1 0 0 0 1 rotate no_reflect no_shear #
body $9 -1 $-1 $10 $-1 $11 #
body $12 -1 $-1 $13 $-1 $14 #
body $15 -1 $-1 $16 $-1 $17 #
shell $-1 -1 $-1 $-1 $-1 $18 $-1 $3 #
rgb_color-st-attrib $-1 -1 $19 $-1 $5 0.5 1 1 #
lump $-1 -1 $-1 $-1 $20 $5 #
transform $-1 -1 1 0 0 0 1 0 0 0 1 0 -5.5562500000000021 0 1 no_rotate no_reflect no_shear #
model_id-kcp-attrib $-1 -1 $-1 $-1 $6 1 1021491784 1021491784 210632706 1 #
lump $-1 -1 $-1 $-1 $21 $6 #
transform $-1 -1 1 0 0 0 1 0 0 0 1 0 -5.5562500000000021 0 1 no_rotate no_reflect no_shear #
rgb_color-st-attrib $-1 -1 $22 $-1 $7 1 0.5 1 #
lump $-1 -1 $-1 $-1 $23 $7 #
transform $-1 -1 1 0 0 0 1 0 0 0 1 0 -5.5562500000000021 0 1 no_rotate no_reflect no_shear #
face $24 -1 $-1 $25 $26 $8 $-1 $27 forward single #
model_id-kcp-attrib $-1 -1 $-1 $9 $5 1 1021491784 1021491784 204341251 1 #
shell $-1 -1 $-1 $-1 $-1 $28 $-1 $10 #
shell $-1 -1 $-1 $-1 $-1 $29 $-1 $13 #
model_id-kcp-attrib $-1 -1 $-1 $15 $7 1 1021491784 1021491784 216137732 1 #
shell $-1 -1 $-1 $-1 $-1 $30 $-1 $16 #
model_id-kcp-attrib $-1 -1 $-1 $-1 $18 1 1021491784 1021491784 210632705 2 #
face $31 -1 $-1 $32 $33 $8 $-1 $34 forward single #
loop $-1 -1 $-1 $-1 $35 $18 #
plane-surface $-1 -1 $-1 0 4.7624999999999993 0 0 1 0 25.399999999999999 0 0 forward_v I I I I #
face $-1 -1 $-1 $36 $37 $20 $-1 $38 reversed single #
face $-1 -1 $-1 $39 $40 $21 $-1 $41 forward single #
face $-1 -1 $-1 $42 $43 $23 $-1 $44 forward single #
model_id-kcp-attrib $-1 -1 $-1 $-1 $25 1 1021491784 1021491784 210632705 3 #
face $45 -1 $-1 $46 $47 $8 $-1 $48 forward single #
loop $-1 -1 $-1 $-1 $49 $25 #
cone-surface $-1 -1 $-1 0 -13.462 0 0 1 0 25.399999999999995 0 0 1 I I -0.70710678118654746 0.70710678118654757 25.399999999999995 forward I I I I #
coedge $-1 -1 $-1 $50 $50 $51 $52 reversed $26 $-1 #
face $-1 -1 $-1 $53 $54 $20 $-1 $38 reversed single #
loop $-1 -1 $-1 $-1 $55 $28 #
cone-surface $-1 -1 $-1 0 10.318750000000001 0 0 1 0 -7.9375 0 9.7203129334651195e-016 1 I I 0 1 7.9375 forward I I I I #
face $-1 -1 $-1 $56 $57 $21 $-1 $58 reversed single #
loop $-1 -1 $-1 $-1 $59 $29 #
plane-surface $-1 -1 $-1 0 0 7.9375 0 0 1 1 0 0 forward_v I I I I #
face $-1 -1 $-1 $60 $61 $23 $-1 $62 forward single #
loop $-1 -1 $-1 $63 $64 $30 #
cone-surface $-1 -1 $-1 0 5.5562500000000021 0 0 -1 0 3.96875 0 0 1 I I 0 -1 3.96875 forward I I I I #
model_id-kcp-attrib $-1 -1 $-1 $-1 $32 1 1021491784 1021491784 210632705 4 #
face $65 -1 $-1 $66 $67 $8 $-1 $68 forward single #
loop $-1 -1 $-1 $-1 $69 $32 #
cone-surface $-1 -1 $-1 0 -13.462 0 0 1 0 25.399999999999995 0 0 1 I I -0.70710678118654746 0.70710678118654757 25.399999999999995 forward I I I I #
coedge $-1 -1 $-1 $51 $70 $71 $72 forward $33 $-1 #
coedge $-1 -1 $-1 $35 $35 $73 $74 forward $26 $-1 #
coedge $-1 -1 $-1 $75 $49 $35 $52 forward $33 $-1 #
edge $76 -1 $-1 $77 0 $78 3.1415926535897936 $35 $79 forward @7 unknown #
face $-1 -1 $-1 $80 $81 $20 $-1 $38 reversed single #
loop $-1 -1 $-1 $-1 $82 $36 #
coedge $-1 -1 $-1 $83 $84 $85 $86 reversed $37 $-1 #
face $87 -1 $-1 $88 $89 $21 $-1 $90 reversed single #
loop $-1 -1 $-1 $-1 $91 $39 #
plane-surface $-1 -1 $-1 0 0 -7.9375 0 0 1 1 0 0 forward_v I I I I #
coedge $-1 -1 $-1 $92 $93 $94 $95 forward $40 $-1 #
face $-1 -1 $-1 $96 $97 $23 $-1 $98 reversed single #
loop $-1 -1 $-1 $99 $100 $42 #
cone-surface $-1 -1 $-1 0 5.5562500000000021 0 0 -1 0 -7.9375 0 9.7203129334651195e-016 1 I I 0 1 7.9375 forward I I I I #
loop $-1 -1 $-1 $-1 $101 $30 #
coedge $-1 -1 $-1 $64 $64 $102 $103 forward $43 $-1 #
model_id-kcp-attrib $-1 -1 $-1 $-1 $46 1 1021491784 1021491784 210632705 5 #
face $104 -1 $-1 $105 $106 $8 $-1 $107 reversed single #
loop $-1 -1 $-1 $-1 $108 $46 #
cone-surface $-1 -1 $-1 0 -16.906874999999996 0 0 1 0 7.9375 0 0 1 I I 0 1 7.9375 forward I I I I #
coedge $-1 -1 $-1 $73 $109 $75 $110 forward $47 $-1 #
coedge $-1 -1 $-1 $49 $75 $111 $112 reversed $33 $-1 #
coedge $-1 -1 $-1 $109 $73 $49 $72 reversed $47 $-1 #
edge $-1 -1 $-1 $113 0 $77 0.042426406871192909 $71 $114 forward @7 unknown #
coedge $-1 -1 $-1 $71 $69 $50 $74 reversed $47 $-1 #
edge $115 -1 $-1 $77 0 $78 3.1415926535897931 $50 $116 forward @7 unknown #
coedge $-1 -1 $-1 $70 $51 $69 $110 reversed $33 $-1 #
attrib_edge_convexity-kcp-attrib $-1 -1 $117 $-1 $52 1 #
vertex $-1 -1 $-1 $74 $118 #
vertex $-1 -1 $-1 $74 $119 #
ellipse-curve $-1 -1 $-1 0 4.7624999999999993 -1.0574874309554614e-015 0 -1 0 -7.1754999999999987 0 1.9362037201407078e-015 1 I I #
face $-1 -1 $-1 $120 $121 $20 $-1 $38 reversed single #
loop $-1 -1 $-1 $-1 $122 $53 #
coedge $-1 -1 $-1 $123 $124 $125 $126 reversed $54 $-1 #
coedge $-1 -1 $-1 $127 $55 $128 $129 forward $37 $-1 #
coedge $-1 -1 $-1 $55 $127 $130 $131 reversed $37 $-1 #
coedge $-1 -1 $-1 $132 $133 $55 $86 forward $134 $-1 #
edge $-1 -1 $-1 $135 -1.2246063538223773e-016 $136 1.5707963267948966 $85 $137 forward @7 unknown #
model_id-kcp-attrib $-1 -1 $-1 $-1 $56 1 1021491784 1021491784 210632706 3 #
face $-1 -1 $-1 $138 $139 $21 $-1 $140 reversed single #
loop $-1 -1 $-1 $-1 $141 $56 #
plane-surface $-1 -1 $-1 0 -10.318750000000001 0 0 1 0 0 0 1 forward_v I I I I #
coedge $-1 -1 $-1 $142 $143 $144 $145 forward $57 $-1 #
coedge $-1 -1 $-1 $146 $59 $147 $148 forward $40 $-1 #
coedge $-1 -1 $-1 $59 $146 $149 $150 forward $40 $-1 #
coedge $-1 -1 $-1 $151 $152 $59 $95 reversed $153 $-1 #
edge $-1 -1 $-1 $154 -10.318750000000001 $155 10.318750000000001 $94 $156 forward @7 unknown #
face $-1 -1 $-1 $-1 $157 $23 $-1 $158 forward single #
loop $-1 -1 $-1 $159 $160 $60 #
plane-surface $-1 -1 $-1 0.48106060606060574 -9.5567499999999939 -2.7755575615628914e-016 2.0033320526909688e-032 1 -6.677773508969896e-033 0 6.677773508969896e-033 1 forward_v I I I I #
loop $-1 -1 $-1 $-1 $161 $42 #
coedge $-1 -1 $-1 $100 $100 $160 $162 forward $61 $-1 #
coedge $-1 -1 $-1 $101 $101 $163 $164 reversed $63 $-1 #
coedge $-1 -1 $-1 $102 $102 $64 $103 reversed $159 $-1 #
edge $-1 -1 $-1 $165 -3.1415926535897931 $165 3.1415926535897931 $64 $166 forward @7 unknown #
model_id-kcp-attrib $-1 -1 $-1 $-1 $66 1 1021491784 1021491784 210632705 6 #
face $167 -1 $-1 $168 $169 $8 $-1 $170 forward single #
loop $-1 -1 $-1 $171 $172 $66 #
plane-surface $-1 -1 $-1 0 0 0 0 1 0 25.399999999999999 0 0 forward_v I I I I #
coedge $-1 -1 $-1 $173 $174 $175 $176 forward $67 $-1 #
coedge $-1 -1 $-1 $69 $71 $177 $178 forward $47 $-1 #
edge $-1 -1 $-1 $179 0 $78 0.042426406871192909 $69 $180 forward @7 unknown #
coedge $-1 -1 $-1 $181 $182 $70 $112 forward $183 $-1 #
edge $-1 -1 $-1 $113 -2.5041650658637118e-032 $179 3.1415926535897931 $111 $184 forward @7 unknown #
vertex $-1 -1 $-1 $185 $186 #
straight-curve $-1 -1 $-1 -7.9375 4.0004999999999988 9.7203129334651195e-016 17.960512242138307 17.960512242138307 -2.1994557409627282e-015 I I #
attrib_edge_convexity-kcp-attrib $-1 -1 $187 $-1 $74 1 #
ellipse-curve $-1 -1 $-1 0 4.7624999999999993 -7.0499162063697436e-016 0 1 0 -7.1754999999999987 0 1.5837079098222206e-015 1 I I #
convexity-sys-attrib $-1 -1 $-1 $76 $52 #
point $-1 -1 $-1 -7.1754999999999987 4.7624999999999993 8.787162891852462e-016 #
point $-1 -1 $-1 7.1754999999999987 4.7624999999999993 0 #
face $-1 -1 $-1 $188 $189 $20 $-1 $190 forward single #
loop $-1 -1 $-1 $-1 $191 $80 #
coedge $-1 -1 $-1 $192 $193 $191 $194 forward $81 $-1 #
coedge $-1 -1 $-1 $195 $82 $196 $197 reversed $54 $-1 #
coedge $-1 -1 $-1 $82 $195 $84 $131 forward $54 $-1 #
coedge $-1 -1 $-1 $198 $199 $82 $126 forward $200 $-1 #
edge $-1 -1 $-1 $201 -3.1415926535897931 $202 -1.5707963267948966 $125 $203 forward @7 unknown #
coedge $-1 -1 $-1 $84 $83 $204 $205 reversed $37 $-1 #
coedge $-1 -1 $-1 $193 $192 $206 $129 reversed $81 $-1 #
edge $-1 -1 $-1 $135 -20.637500000000003 $207 0 $206 $208 forward @7 unknown #
coedge $-1 -1 $-1 $209 $210 $211 $131 forward $212 $-1 #
edge $-1 -1 $-1 $136 -20.637500000000003 $202 0 $130 $213 forward @7 unknown #
coedge $-1 -1 $-1 $133 $85 $210 $214 reversed $134 $-1 #
coedge $-1 -1 $-1 $85 $132 $215 $216 forward $134 $-1 #
loop $-1 -1 $-1 $-1 $85 $217 #
vertex $-1 -1 $-1 $218 $219 #
vertex $-1 -1 $-1 $220 $221 #
ellipse-curve $-1 -1 $-1 0 -10.318750000000001 0 0 1 0 -7.9375 0 9.7203129334651195e-016 1 I I #
face $222 -1 $-1 $223 $224 $21 $-1 $225 reversed single #
loop $-1 -1 $-1 $-1 $226 $88 #
plane-surface $-1 -1 $-1 -7.9375 0 0 1 0 0 0 0 -1 forward_v I I I I #
coedge $-1 -1 $-1 $227 $149 $228 $229 forward $89 $-1 #
coedge $-1 -1 $-1 $230 $91 $227 $231 forward $57 $-1 #
coedge $-1 -1 $-1 $91 $230 $232 $233 forward $57 $-1 #
coedge $-1 -1 $-1 $152 $151 $91 $145 reversed $153 $-1 #
edge $-1 -1 $-1 $234 -10.318750000000001 $235 10.318750000000001 $144 $236 forward @7 unknown #
coedge $-1 -1 $-1 $93 $92 $237 $238 forward $40 $-1 #
coedge $-1 -1 $-1 $239 $240 $92 $148 reversed $224 $-1 #
edge $-1 -1 $-1 $155 -7.9375 $241 7.9375 $147 $242 forward @7 unknown #
coedge $-1 -1 $-1 $141 $243 $93 $150 reversed $89 $-1 #
edge $-1 -1 $-1 $244 -7.9375 $154 7.9375 $149 $245 forward @7 unknown #
coedge $-1 -1 $-1 $144 $94 $243 $246 forward $153 $-1 #
coedge $-1 -1 $-1 $94 $144 $239 $247 reversed $153 $-1 #
loop $-1 -1 $-1 $-1 $151 $223 #
vertex $-1 -1 $-1 $95 $248 #
vertex $-1 -1 $-1 $95 $249 #
straight-curve $-1 -1 $-1 7.9375 0 7.9375 0 1 0 I I #
loop $-1 -1 $-1 $250 $251 $96 #
plane-surface $-1 -1 $-1 0.48106060606060574 5.556250000000003 -2.7755575615628914e-016 2.0033320526909688e-032 1 -6.677773508969896e-033 0 6.677773508969896e-033 1 forward_v I I I I #
loop $-1 -1 $-1 $-1 $102 $60 #
coedge $-1 -1 $-1 $160 $160 $100 $162 reversed $97 $-1 #
coedge $-1 -1 $-1 $161 $161 $251 $252 reversed $99 $-1 #
edge $-1 -1 $-1 $253 -3.1415926535897931 $253 3.1415926535897931 $100 $254 forward @7 unknown #
coedge $-1 -1 $-1 $163 $163 $101 $164 forward $250 $-1 #
edge $255 -1 $-1 $256 0 $256 6.2831853071795862 $101 $257 forward @7 unknown #
vertex $-1 -1 $-1 $103 $258 #
ellipse-curve $-1 -1 $-1 0 -9.5567499999999956 0 0 -1 0 3.96875 0 0 1 I I #
model_id-kcp-attrib $-1 -1 $-1 $-1 $105 1 1021491784 1021491784 210632705 7 #
face $259 -1 $-1 $260 $261 $8 $-1 $262 forward single #
loop $-1 -1 $-1 $-1 $263 $105 #
cone-surface $-1 -1 $-1 0 -16.906874999999996 0 0 1 0 3.96875 0 0 1 I I 0 1 3.96875 forward I I I I #
loop $-1 -1 $-1 $-1 $175 $66 #
coedge $-1 -1 $-1 $264 $264 $263 $265 reversed $106 $-1 #
coedge $-1 -1 $-1 $177 $108 $181 $266 reversed $67 $-1 #
coedge $-1 -1 $-1 $108 $177 $182 $185 forward $67 $-1 #
coedge $-1 -1 $-1 $267 $267 $108 $176 reversed $171 $-1 #
edge $268 -1 $-1 $269 1.2246063538223773e-016 $270 3.1415926535897931 $108 $271 forward @7 unknown #
coedge $-1 -1 $-1 $174 $173 $109 $178 reversed $67 $-1 #
edge $-1 -1 $-1 $113 0 $179 3.1415926535897931 $177 $272 forward @7 unknown #
vertex $-1 -1 $-1 $178 $273 #
straight-curve $-1 -1 $-1 7.9375 4.0004999999999988 -1.9440625866930239e-015 -17.960512242138307 17.960512242138307 4.3989114819254565e-015 I I #
coedge $-1 -1 $-1 $274 $111 $173 $266 forward $183 $-1 #
coedge $-1 -1 $-1 $111 $274 $174 $185 reversed $183 $-1 #
loop $-1 -1 $-1 $-1 $111 $275 #
ellipse-curve $-1 -1 $-1 0 4.0004999999999988 -3.5249581031848718e-016 0 -1 0 -7.9375 0 1.324527103664999e-015 1 I I #
edge $-1 -1 $-1 $113 0 $269 0.15749999999999997 $174 $276 forward @7 unknown #
point $-1 -1 $-1 -7.9375 4.0004999999999988 9.7203129334651195e-016 #
convexity-sys-attrib $-1 -1 $-1 $115 $74 #
face $-1 -1 $-1 $277 $278 $20 $-1 $279 reversed single #
loop $-1 -1 $-1 $-1 $211 $120 #
plane-surface $-1 -1 $-1 0 0 7.9375 0 0 1 1 0 0 forward_v I I I I #
coedge $-1 -1 $-1 $280 $281 $282 $194 reversed $121 $-1 #
coedge $-1 -1 $-1 $128 $122 $283 $284 reversed $81 $-1 #
coedge $-1 -1 $-1 $122 $128 $285 $286 reversed $81 $-1 #
edge $-1 -1 $-1 $287 -20.637500000000003 $288 0 $282 $289 forward @7 unknown #
coedge $-1 -1 $-1 $124 $123 $290 $291 reversed $54 $-1 #
coedge $-1 -1 $-1 $292 $293 $294 $197 forward $295 $-1 #
edge $-1 -1 $-1 $296 -20.637500000000003 $201 0 $196 $297 forward @7 unknown #
coedge $-1 -1 $-1 $199 $125 $298 $299 reversed $200 $-1 #
coedge $-1 -1 $-1 $125 $198 $292 $300 forward $200 $-1 #
loop $-1 -1 $-1 $-1 $125 $301 #
vertex $-1 -1 $-1 $302 $303 #
vertex $-1 -1 $-1 $304 $305 #
ellipse-curve $-1 -1 $-1 0 10.318750000000001 0 0 -1 0 -7.9375 0 9.7203129334651195e-016 1 I I #
coedge $-1 -1 $-1 $306 $307 $127 $205 forward $308 $-1 #
edge $-1 -1 $-1 $202 -1.5707963267948966 $207 1.2246063538223773e-016 $204 $203 forward @7 unknown #
coedge $-1 -1 $-1 $309 $310 $311 $129 forward $278 $-1 #
vertex $-1 -1 $-1 $312 $313 #
straight-curve $-1 -1 $-1 -7.9375 10.318750000000001 0 0 1 0 I I #
coedge $-1 -1 $-1 $314 $130 $307 $304 forward $212 $-1 #
coedge $-1 -1 $-1 $130 $314 $132 $214 forward $212 $-1 #
coedge $-1 -1 $-1 $315 $298 $124 $131 reversed $189 $-1 #
loop $-1 -1 $-1 $-1 $130 $316 #
straight-curve $-1 -1 $-1 0 10.318750000000001 7.9375 0 1 0 I I #
edge $-1 -1 $-1 $317 -7.9375 $136 0 $132 $318 forward @7 unknown #
coedge $-1 -1 $-1 $319 $311 $133 $216 reversed $320 $-1 #
edge $-1 -1 $-1 $317 -7.9375 $135 0 $215 $321 forward @7 unknown #
face $-1 -1 $-1 $322 $134 $20 $-1 $323 reversed single #
edge $-1 -1 $-1 $135 0 $324 7.9375 $310 $321 forward @7 unknown #
point $-1 -1 $-1 -7.9375 -10.318750000000001 0 #
edge $-1 -1 $-1 $136 0 $325 7.9375 $326 $318 forward @7 unknown #
point $-1 -1 $-1 0 -10.318750000000001 7.9375 #
model_id-kcp-attrib $-1 -1 $-1 $-1 $138 1 1021491784 1021491784 210632706 2 #
face $-1 -1 $-1 $-1 $153 $21 $-1 $327 reversed single #
loop $-1 -1 $-1 $-1 $239 $138 #
plane-surface $-1 -1 $-1 0 10.318750000000001 0 0 -1 0 0 0 -1 forward_v I I I I #
coedge $-1 -1 $-1 $328 $237 $240 $329 forward $139 $-1 #
coedge $-1 -1 $-1 $243 $141 $142 $231 reversed $89 $-1 #
coedge $-1 -1 $-1 $237 $328 $141 $229 reversed $139 $-1 #
edge $-1 -1 $-1 $244 -7.9375 $330 7.9375 $228 $331 forward @7 unknown #
coedge $-1 -1 $-1 $143 $142 $328 $332 forward $57 $-1 #
edge $-1 -1 $-1 $235 -7.9375 $330 7.9375 $227 $333 forward @7 unknown #
coedge $-1 -1 $-1 $240 $239 $143 $233 reversed $224 $-1 #
edge $-1 -1 $-1 $334 -7.9375 $234 7.9375 $232 $335 forward @7 unknown #
vertex $-1 -1 $-1 $145 $336 #
vertex $-1 -1 $-1 $246 $337 #
straight-curve $-1 -1 $-1 7.9375 0 -7.9375 0 -1 0 I I #
coedge $-1 -1 $-1 $226 $228 $146 $238 reversed $139 $-1 #
edge $-1 -1 $-1 $241 -10.318750000000001 $244 10.318750000000001 $237 $338 forward @7 unknown #
coedge $-1 -1 $-1 $232 $147 $152 $247 forward $224 $-1 #
coedge $-1 -1 $-1 $147 $232 $226 $329 reversed $224 $-1 #
vertex $-1 -1 $-1 $148 $339 #
straight-curve $-1 -1 $-1 0 10.318750000000001 7.9375 -1 0 0 I I #
coedge $-1 -1 $-1 $149 $227 $151 $246 reversed $89 $-1 #
vertex $-1 -1 $-1 $238 $340 #
straight-curve $-1 -1 $-1 0 -10.318750000000001 7.9375 1 0 0 I I #
edge $-1 -1 $-1 $154 -7.9375 $235 7.9375 $151 $341 forward @7 unknown #
edge $-1 -1 $-1 $155 -7.9375 $234 7.9375 $152 $342 forward @7 unknown #
point $-1 -1 $-1 7.9375 -10.318750000000001 7.9375 #
point $-1 -1 $-1 7.9375 10.318750000000001 7.9375 #
loop $-1 -1 $-1 $-1 $163 $96 #
coedge $-1 -1 $-1 $251 $251 $161 $252 forward $157 $-1 #
edge $343 -1 $-1 $344 -3.1415926535897931 $344 3.1415926535897931 $161 $345 forward @7 unknown #
vertex $-1 -1 $-1 $162 $346 #
ellipse-curve $-1 -1 $-1 0 -9.5567499999999956 0 0 1 0 -7.9375 0 9.7203129334651195e-016 1 I I #
convexity-sys-attrib $-1 -1 $-1 $-1 $164 #
vertex $-1 -1 $-1 $164 $347 #
ellipse-curve $-1 -1 $-1 0 5.5562500000000021 0 0 -1 0 3.96875 0 0 1 I I #
point $-1 -1 $-1 -3.96875 -9.5567499999999956 4.8601564667325597e-016 #
model_id-kcp-attrib $-1 -1 $-1 $-1 $168 1 1021491784 1021491784 210632705 8 #
face $348 -1 $-1 $349 $350 $8 $-1 $351 forward single #
loop $-1 -1 $-1 $-1 $352 $168 #
cone-surface $-1 -1 $-1 0 -16.906874999999996 0 0 1 0 3.96875 0 0 1 I I 0 1 3.96875 forward I I I I #
coedge $-1 -1 $-1 $353 $354 $172 $265 forward $169 $-1 #
coedge $-1 -1 $-1 $172 $172 $355 $356 forward $106 $-1 #
edge $357 -1 $-1 $358 -2.5041650658637118e-032 $359 3.1415926535897931 $172 $360 forward @7 unknown #
edge $-1 -1 $-1 $179 0 $270 0.15749999999999997 $173 $361 forward @7 unknown #
coedge $-1 -1 $-1 $175 $175 $274 $362 forward $171 $-1 #
attrib_edge_convexity-kcp-attrib $-1 -1 $363 $-1 $176 1 #
vertex $-1 -1 $-1 $185 $364 #
vertex $-1 -1 $-1 $266 $365 #
ellipse-curve $-1 -1 $-1 0 0 0 0 1 0 -7.9375 0 0 1 I I #
ellipse-curve $-1 -1 $-1 0 4.0004999999999988 0 0 1 0 -7.9375 0 9.7203129334651195e-016 1 I I #
point $-1 -1 $-1 7.9375 4.0004999999999988 -1.9440625866930239e-015 #
coedge $-1 -1 $-1 $182 $181 $267 $362 reversed $183 $-1 #
face $366 -1 $-1 $-1 $183 $8 $-1 $367 forward single #
straight-curve $-1 -1 $-1 -7.9375 4.0004999999999988 9.7203129334651195e-016 0 -25.399999999999999 0 I I #
face $-1 -1 $-1 $368 $369 $20 $-1 $370 reversed single #
loop $-1 -1 $-1 $-1 $206 $188 #
plane-surface $-1 -1 $-1 -7.9375 0 0 1 0 0 0 0 -1 forward_v I I I I #
coedge $-1 -1 $-1 $371 $191 $372 $373 reversed $121 $-1 #
coedge $-1 -1 $-1 $191 $371 $374 $375 reversed $121 $-1 #
coedge $-1 -1 $-1 $376 $377 $378 $194 forward $379 $-1 #
coedge $-1 -1 $-1 $380 $381 $192 $284 forward $382 $-1 #
edge $-1 -1 $-1 $207 1.2246063538223773e-016 $288 1.5707963267948968 $283 $203 forward @7 unknown #
coedge $-1 -1 $-1 $383 $384 $193 $286 forward $385 $-1 #
edge $-1 -1 $-1 $287 -1.5707963267948968 $135 -1.2246063538223773e-016 $285 $137 forward @7 unknown #
vertex $-1 -1 $-1 $386 $387 #
vertex $-1 -1 $-1 $388 $389 #
straight-curve $-1 -1 $-1 0 10.318750000000001 -7.9375 0 1 0 I I #
coedge $-1 -1 $-1 $390 $326 $195 $291 forward $391 $-1 #
edge $-1 -1 $-1 $136 1.5707963267948966 $296 3.1415926535897931 $290 $137 forward @7 unknown #
coedge $-1 -1 $-1 $392 $196 $199 $300 reversed $295 $-1 #
coedge $-1 -1 $-1 $196 $392 $390 $393 forward $295 $-1 #
coedge $-1 -1 $-1 $394 $395 $371 $197 reversed $369 $-1 #
loop $-1 -1 $-1 $-1 $196 $396 #
vertex $-1 -1 $-1 $397 $398 #
straight-curve $-1 -1 $-1 7.9375 10.318750000000001 0 0 1 0 I I #
coedge $-1 -1 $-1 $211 $399 $198 $299 forward $189 $-1 #
edge $-1 -1 $-1 $400 -7.9375 $202 0 $198 $401 forward @7 unknown #
edge $-1 -1 $-1 $400 -7.9375 $201 0 $292 $402 forward @7 unknown #
face $-1 -1 $-1 $403 $200 $20 $-1 $404 reversed single #
edge $-1 -1 $-1 $201 0 $405 7.9375 $395 $402 forward @7 unknown #
point $-1 -1 $-1 7.9375 10.318750000000001 0 #
edge $-1 -1 $-1 $202 0 $406 7.9375 $307 $401 forward @7 unknown #
point $-1 -1 $-1 0 10.318750000000001 7.9375 #
coedge $-1 -1 $-1 $307 $204 $407 $408 reversed $308 $-1 #
coedge $-1 -1 $-1 $204 $306 $209 $304 reversed $308 $-1 #
loop $-1 -1 $-1 $-1 $204 $403 #
coedge $-1 -1 $-1 $409 $206 $381 $312 forward $278 $-1 #
coedge $-1 -1 $-1 $206 $409 $383 $218 reversed $278 $-1 #
coedge $-1 -1 $-1 $215 $407 $83 $129 reversed $320 $-1 #
edge $-1 -1 $-1 $207 0 $410 7.9375 $381 $411 forward @7 unknown #
point $-1 -1 $-1 -7.9375 10.318750000000001 0 #
coedge $-1 -1 $-1 $210 $209 $319 $412 forward $212 $-1 #
coedge $-1 -1 $-1 $399 $211 $326 $220 forward $189 $-1 #
face $-1 -1 $-1 $413 $212 $20 $-1 $190 forward single #
vertex $-1 -1 $-1 $412 $414 #
straight-curve $-1 -1 $-1 0 -10.318750000000001 7.9375 1 0 0 I I #
coedge $-1 -1 $-1 $407 $215 $314 $412 reversed $320 $-1 #
loop $-1 -1 $-1 $-1 $311 $415 #
straight-curve $-1 -1 $-1 -7.9375 -10.318750000000001 0 0 0 -1 I I #
face $-1 -1 $-1 $416 $391 $20 $-1 $323 reversed single #
plane-surface $-1 -1 $-1 0 -10.318750000000001 0 0 1 0 0 0 1 forward_v I I I I #
vertex $-1 -1 $-1 $417 $418 #
vertex $-1 -1 $-1 $419 $420 #
coedge $-1 -1 $-1 $290 $390 $315 $220 reversed $391 $-1 #
plane-surface $-1 -1 $-1 7.9375 0 0 -1 0 0 0 0 1 forward_v I I I I #
coedge $-1 -1 $-1 $228 $226 $230 $332 reversed $139 $-1 #
edge $-1 -1 $-1 $241 -7.9375 $334 7.9375 $240 $421 forward @7 unknown #
vertex $-1 -1 $-1 $332 $422 #
straight-curve $-1 -1 $-1 -7.9375 -10.318750000000001 0 0 0 -1 I I #
edge $-1 -1 $-1 $330 -10.318750000000001 $334 10.318750000000001 $328 $423 forward @7 unknown #
straight-curve $-1 -1 $-1 0 -10.318750000000001 -7.9375 -1 0 0 I I #
vertex $-1 -1 $-1 $233 $424 #
straight-curve $-1 -1 $-1 0 10.318750000000001 -7.9375 1 0 0 I I #
point $-1 -1 $-1 7.9375 10.318750000000001 -7.9375 #
point $-1 -1 $-1 7.9375 -10.318750000000001 -7.9375 #
straight-curve $-1 -1 $-1 -7.9375 0 7.9375 0 -1 0 I I #
point $-1 -1 $-1 -7.9375 10.318750000000001 7.9375 #
point $-1 -1 $-1 -7.9375 -10.318750000000001 7.9375 #
straight-curve $-1 -1 $-1 7.9375 -10.318750000000001 0 0 0 -1 I I #
straight-curve $-1 -1 $-1 7.9375 10.318750000000001 0 0 0 -1 I I #
convexity-sys-attrib $-1 -1 $-1 $-1 $252 #
vertex $-1 -1 $-1 $252 $425 #
ellipse-curve $-1 -1 $-1 0 5.5562500000000021 0 0 1 0 -7.9375 0 9.7203129334651195e-016 1 I I #
point $-1 -1 $-1 7.9375 -9.5567499999999956 -1.9440625866930239e-015 #
point $-1 -1 $-1 3.96875 5.5562500000000021 0 #
model_id-kcp-attrib $-1 -1 $-1 $-1 $260 1 1021491784 1021491784 210632705 9 #
face $426 -1 $-1 $427 $428 $8 $-1 $429 forward single #
loop $-1 -1 $-1 $-1 $430 $260 #
cone-surface $-1 -1 $-1 0 6.3182499999999946 0 0 -1 0 25.399999999999977 0 0 1 I I -0.70710678118654724 0.70710678118654791 25.399999999999977 forward I I I I #
coedge $-1 -1 $-1 $431 $432 $433 $434 forward $261 $-1 #
coedge $-1 -1 $-1 $435 $263 $431 $436 forward $169 $-1 #
coedge $-1 -1 $-1 $263 $435 $432 $437 reversed $169 $-1 #
coedge $-1 -1 $-1 $432 $431 $264 $356 reversed $261 $-1 #
edge $438 -1 $-1 $358 0 $359 3.1415926535897931 $264 $439 forward @7 unknown #
attrib_edge_convexity-kcp-attrib $-1 -1 $440 $-1 $265 2 #
vertex $-1 -1 $-1 $356 $441 #
vertex $-1 -1 $-1 $356 $442 #
ellipse-curve $-1 -1 $-1 0 0 -1.7624790515924359e-016 0 -1 0 -3.96875 0 6.6226355183249952e-016 1 I I #
straight-curve $-1 -1 $-1 7.9375 4.0004999999999988 -1.9440625866930239e-015 0 -25.399999999999999 0 I I #
edge $443 -1 $-1 $269 -1.2246063538223773e-016 $270 3.1415926535897931 $267 $444 forward @7 unknown #
convexity-sys-attrib $-1 -1 $-1 $268 $176 #
point $-1 -1 $-1 -7.9375 0 9.7203129334651195e-016 #
point $-1 -1 $-1 7.9375 0 0 #
model_id-kcp-attrib $-1 -1 $-1 $-1 $275 1 1021491784 1021491784 210632705 12 #
cone-surface $-1 -1 $-1 0 -16.906874999999996 0 0 1 0 7.9375 0 0 1 I I 0 1 7.9375 forward I I I I #
face $-1 -1 $-1 $301 $445 $20 $-1 $404 reversed single #
loop $-1 -1 $-1 $-1 $294 $277 #
plane-surface $-1 -1 $-1 7.9375 0 0 -1 0 0 0 0 1 forward_v I I I I #
coedge $-1 -1 $-1 $281 $280 $123 $197 forward $121 $-1 #
coedge $-1 -1 $-1 $446 $447 $280 $373 forward $448 $-1 #
edge $-1 -1 $-1 $296 -3.1415926535897931 $287 -1.5707963267948968 $372 $137 forward @7 unknown #
coedge $-1 -1 $-1 $449 $450 $281 $375 forward $445 $-1 #
edge $-1 -1 $-1 $288 1.5707963267948968 $201 3.1415926535897931 $374 $203 forward @7 unknown #
coedge $-1 -1 $-1 $451 $282 $450 $388 forward $379 $-1 #
coedge $-1 -1 $-1 $282 $451 $446 $452 forward $379 $-1 #
coedge $-1 -1 $-1 $453 $454 $122 $194 reversed $455 $-1 #
loop $-1 -1 $-1 $-1 $282 $413 #
coedge $-1 -1 $-1 $381 $283 $454 $456 reversed $382 $-1 #
coedge $-1 -1 $-1 $283 $380 $309 $312 reversed $382 $-1 #
loop $-1 -1 $-1 $-1 $283 $457 #
coedge $-1 -1 $-1 $384 $285 $310 $218 forward $385 $-1 #
coedge $-1 -1 $-1 $285 $383 $453 $386 reversed $385 $-1 #
loop $-1 -1 $-1 $-1 $285 $458 #
edge $-1 -1 $-1 $287 0 $324 7.9375 $384 $459 forward @7 unknown #
point $-1 -1 $-1 0 -10.318750000000001 -7.9375 #
edge $-1 -1 $-1 $288 0 $405 7.9375 $450 $460 forward @7 unknown #
point $-1 -1 $-1 0 10.318750000000001 -7.9375 #
coedge $-1 -1 $-1 $326 $290 $293 $393 reversed $391 $-1 #
loop $-1 -1 $-1 $-1 $290 $322 #
coedge $-1 -1 $-1 $293 $292 $399 $419 reversed $295 $-1 #
edge $-1 -1 $-1 $325 -7.9375 $296 0 $293 $461 forward @7 unknown #
coedge $-1 -1 $-1 $462 $294 $447 $397 forward $369 $-1 #
coedge $-1 -1 $-1 $294 $462 $449 $302 reversed $369 $-1 #
face $-1 -1 $-1 $-1 $295 $20 $-1 $370 reversed single #
edge $-1 -1 $-1 $296 0 $463 7.9375 $394 $461 forward @7 unknown #
point $-1 -1 $-1 7.9375 -10.318750000000001 0 #
coedge $-1 -1 $-1 $298 $315 $392 $419 forward $189 $-1 #
vertex $-1 -1 $-1 $419 $464 #
straight-curve $-1 -1 $-1 0 10.318750000000001 7.9375 -1 0 0 I I #
straight-curve $-1 -1 $-1 7.9375 10.318750000000001 0 0 0 -1 I I #
face $-1 -1 $-1 $457 $308 $20 $-1 $404 reversed single #
plane-surface $-1 -1 $-1 0 10.318750000000001 0 0 -1 0 0 0 -1 forward_v I I I I #
vertex $-1 -1 $-1 $465 $466 #
vertex $-1 -1 $-1 $304 $467 #
coedge $-1 -1 $-1 $311 $319 $306 $408 forward $320 $-1 #
edge $-1 -1 $-1 $406 -7.9375 $207 0 $306 $411 forward @7 unknown #
coedge $-1 -1 $-1 $310 $309 $468 $417 reversed $278 $-1 #
vertex $-1 -1 $-1 $456 $469 #
straight-curve $-1 -1 $-1 -7.9375 10.318750000000001 0 0 0 -1 I I #
edge $-1 -1 $-1 $406 -10.318750000000001 $317 10.318750000000001 $319 $470 forward @7 unknown #
face $-1 -1 $-1 $415 $379 $20 $-1 $471 reversed single #
point $-1 -1 $-1 -7.9375 -10.318750000000001 7.9375 #
face $-1 -1 $-1 $396 $320 $20 $-1 $279 reversed single #
face $-1 -1 $-1 $472 $448 $20 $-1 $323 reversed single #
edge $-1 -1 $-1 $324 -10.318750000000001 $410 10.318750000000001 $409 $473 forward @7 unknown #
point $-1 -1 $-1 -7.9375 -10.318750000000001 -7.9375 #
edge $-1 -1 $-1 $325 -10.318750000000001 $400 10.318750000000001 $392 $474 forward @7 unknown #
point $-1 -1 $-1 7.9375 -10.318750000000001 7.9375 #
straight-curve $-1 -1 $-1 -7.9375 10.318750000000001 0 0 0 -1 I I #
point $-1 -1 $-1 -7.9375 -10.318750000000001 -7.9375 #
straight-curve $-1 -1 $-1 -7.9375 0 -7.9375 0 1 0 I I #
point $-1 -1 $-1 -7.9375 10.318750000000001 -7.9375 #
point $-1 -1 $-1 7.9375 5.5562500000000021 -1.9440625866930239e-015 #
model_id-kcp-attrib $-1 -1 $-1 $-1 $349 1 1021491784 1021491784 210632705 10 #
face $475 -1 $-1 $275 $476 $8 $-1 $477 reversed single #
loop $-1 -1 $-1 $-1 $478 $349 #
cone-surface $-1 -1 $-1 0 6.3182499999999946 0 0 -1 0 25.399999999999977 0 0 1 I I -0.70710678118654724 0.70710678118654791 25.399999999999977 forward I I I I #
coedge $-1 -1 $-1 $433 $479 $480 $481 forward $350 $-1 #
coedge $-1 -1 $-1 $355 $352 $353 $436 reversed $261 $-1 #
coedge $-1 -1 $-1 $352 $355 $354 $437 forward $261 $-1 #
coedge $-1 -1 $-1 $482 $430 $352 $434 reversed $350 $-1 #
edge $-1 -1 $-1 $483 -2.0033320526909708e-031 $484 3.1415926535897927 $352 $485 forward @7 unknown #
coedge $-1 -1 $-1 $354 $353 $486 $487 reversed $169 $-1 #
edge $-1 -1 $-1 $359 0 $484 0.59499999999999997 $431 $488 forward @7 unknown #
edge $-1 -1 $-1 $358 0 $483 0.59499999999999997 $432 $489 forward @7 unknown #
attrib_edge_convexity-kcp-attrib $-1 -1 $490 $-1 $356 2 #
ellipse-curve $-1 -1 $-1 0 0 0 0 1 0 -3.96875 0 4.8601564667325597e-016 1 I I #
convexity-sys-attrib $-1 -1 $-1 $357 $265 #
point $-1 -1 $-1 -3.96875 0 4.8601564667325597e-016 #
point $-1 -1 $-1 3.96875 0 0 #
attrib_edge_convexity-kcp-attrib $-1 -1 $491 $-1 $362 1 #
ellipse-curve $-1 -1 $-1 0 0 0 0 -1 0 -7.9375 0 0 1 I I #
loop $-1 -1 $-1 $-1 $374 $368 #
coedge $-1 -1 $-1 $447 $372 $377 $452 reversed $448 $-1 #
coedge $-1 -1 $-1 $372 $446 $394 $397 reversed $448 $-1 #
loop $-1 -1 $-1 $-1 $372 $416 #
coedge $-1 -1 $-1 $450 $374 $395 $302 forward $445 $-1 #
coedge $-1 -1 $-1 $374 $449 $376 $388 reversed $445 $-1 #
coedge $-1 -1 $-1 $377 $376 $462 $465 forward $379 $-1 #
edge $-1 -1 $-1 $463 -7.9375 $287 0 $446 $459 forward @7 unknown #
coedge $-1 -1 $-1 $468 $378 $384 $386 forward $455 $-1 #
coedge $-1 -1 $-1 $378 $468 $380 $456 forward $455 $-1 #
loop $-1 -1 $-1 $-1 $378 $472 #
edge $-1 -1 $-1 $410 -7.9375 $288 0 $380 $460 forward @7 unknown #
face $-1 -1 $-1 $458 $382 $20 $-1 $404 reversed single #
face $-1 -1 $-1 $217 $385 $20 $-1 $323 reversed single #
straight-curve $-1 -1 $-1 0 -10.318750000000001 -7.9375 -1 0 0 I I #
straight-curve $-1 -1 $-1 0 10.318750000000001 -7.9375 1 0 0 I I #
straight-curve $-1 -1 $-1 7.9375 -10.318750000000001 0 0 0 -1 I I #
coedge $-1 -1 $-1 $395 $394 $451 $465 reversed $369 $-1 #
vertex $-1 -1 $-1 $397 $492 #
point $-1 -1 $-1 7.9375 10.318750000000001 7.9375 #
edge $-1 -1 $-1 $405 -10.318750000000001 $463 10.318750000000001 $462 $493 forward @7 unknown #
point $-1 -1 $-1 7.9375 10.318750000000001 -7.9375 #
point $-1 -1 $-1 -7.9375 10.318750000000001 7.9375 #
coedge $-1 -1 $-1 $454 $453 $409 $417 forward $455 $-1 #
point $-1 -1 $-1 -7.9375 10.318750000000001 -7.9375 #
straight-curve $-1 -1 $-1 -7.9375 0 7.9375 0 -1 0 I I #
plane-surface $-1 -1 $-1 0 0 -7.9375 0 0 1 1 0 0 forward_v I I I I #
face $-1 -1 $-1 $316 $455 $20 $-1 $471 reversed single #
straight-curve $-1 -1 $-1 -7.9375 0 -7.9375 0 1 0 I I #
straight-curve $-1 -1 $-1 7.9375 0 7.9375 0 1 0 I I #
model_id-kcp-attrib $-1 -1 $-1 $-1 $427 1 1021491784 1021491784 210632705 11 #
loop $-1 -1 $-1 $-1 $494 $427 #
plane-surface $-1 -1 $-1 0 -15.875 0 0 1 0 25.399999999999999 0 0 forward_v I I I I #
coedge $-1 -1 $-1 $486 $495 $482 $496 forward $428 $-1 #
coedge $-1 -1 $-1 $430 $482 $494 $497 forward $350 $-1 #
coedge $-1 -1 $-1 $495 $486 $430 $481 reversed $428 $-1 #
edge $-1 -1 $-1 $498 1.8427396449751567e-030 $484 0.042426406871192909 $480 $499 forward @7 unknown #
coedge $-1 -1 $-1 $479 $433 $478 $496 reversed $350 $-1 #
vertex $-1 -1 $-1 $437 $500 #
vertex $-1 -1 $-1 $436 $501 #
ellipse-curve $-1 -1 $-1 -1.7624790515924359e-016 -15.113000000000005 -1.5862311464331924e-015 0 1 0 -3.9687499999999969 0 2.0722467931064478e-015 1 I I #
coedge $-1 -1 $-1 $480 $478 $435 $487 forward $428 $-1 #
edge $-1 -1 $-1 $483 -9.0149942371093677e-031 $484 3.1415926535897913 $435 $502 forward @7 unknown #
straight-curve $-1 -1 $-1 3.96875 0 -9.7203129334651195e-016 0 -25.399999999999999 0 I I #
straight-curve $-1 -1 $-1 -3.96875 0 4.8601564667325597e-016 0 -25.399999999999999 0 I I #
convexity-sys-attrib $-1 -1 $-1 $438 $356 #
convexity-sys-attrib $-1 -1 $-1 $443 $362 #
point $-1 -1 $-1 7.9375 -10.318750000000001 -7.9375 #
straight-curve $-1 -1 $-1 7.9375 0 -7.9375 0 -1 0 I I #
coedge $-1 -1 $-1 $503 $503 $479 $497 reversed $476 $-1 #
coedge $-1 -1 $-1 $478 $480 $503 $504 reversed $428 $-1 #
edge $-1 -1 $-1 $505 0 $483 0.042426406871192909 $478 $506 forward @7 unknown #
edge $-1 -1 $-1 $505 0 $498 3.1415926535897896 $494 $507 forward @7 unknown #
vertex $-1 -1 $-1 $504 $508 #
straight-curve $-1 -1 $-1 3.2067500000000018 -15.875000000000002 -3.5602076842167187e-015 17.960512242138275 17.960512242138343 8.391489986473693e-014 I I #
point $-1 -1 $-1 -3.96875 -15.112999999999998 4.8601564667325597e-016 #
point $-1 -1 $-1 3.96875 -15.112999999999998 -9.7203129334651195e-016 #
ellipse-curve $-1 -1 $-1 3.5249581031848718e-016 -15.113000000000005 3.3487101980256282e-015 0 -1 0 -3.9687499999999969 0 -2.862694551352373e-015 1 I I #
coedge $-1 -1 $-1 $494 $494 $495 $504 forward $476 $-1 #
edge $-1 -1 $-1 $505 0 $498 3.1415926535897967 $503 $509 forward @7 unknown #
vertex $-1 -1 $-1 $504 $510 #
straight-curve $-1 -1 $-1 -3.2067500000000018 -15.875000000000002 3.9270064251199082e-016 -17.960512242138275 17.960512242138343 2.1994557409627113e-015 I I #
ellipse-curve $-1 -1 $-1 1.7624790515924359e-016 -15.875 -1.7624790515924359e-016 -8.7938457396051943e-016 1 1.5602232048002635e-031 -3.2067500000000018 -2.8199664825478975e-015 5.6894854767123446e-016 1 I I #
point $-1 -1 $-1 3.2067500000000018 -15.875000000000002 1.0607263304469533e-014 #
ellipse-curve $-1 -1 $-1 3.5249581031848718e-016 -15.875 -1.7624790515924359e-016 8.7938457396051943e-016 -1 -1.5602232048002635e-031 -3.2067500000000018 -2.8199664825478975e-015 5.6894854767123446e-016 1 I I #
point $-1 -1 $-1 -3.2067500000000018 -15.875000000000002 3.9270064251199082e-016 #
End-of-ACIS-data 