700 0 2 0           
24 FBMach with ACIS - 7.0.3 13 ACIS 7.0.3 NT 24 Wed May 15 15:42:21 2002 
1 9.9999999999999995e-007 1e-010 
body $2 -1 $-1 $3 $-1 $4 #
bdycol-kcp $-1 -1 1 3 $5 $6 $7 #
model_id-kcp-attrib $-1 -1 $-1 $-1 $0 1 1021491740 1021491740 -213712895 1 #
lump $-1 -1 $-1 $-1 $8 $0 #
transform $-1 -1 1 0 0 0 1 0 0 0 1 0 0 0 1 rotate no_reflect no_shear #
body $9 -1 $-1 $10 $-1 $11 #
body $12 -1 $-1 $13 $-1 $14 #
body $15 -1 $-1 $16 $-1 $17 #
shell $-1 -1 $-1 $-1 $-1 $18 $-1 $3 #
model_id-kcp-attrib $-1 -1 $-1 $-1 $5 1 1021491740 1021491740 -213057534 1 #
lump $-1 -1 $-1 $-1 $19 $5 #
transform $-1 -1 1 0 0 0 1 0 0 0 1 0 -5.5562500000000021 0 1 no_rotate no_reflect no_shear #
rgb_color-st-attrib $-1 -1 $20 $-1 $6 1 0.5 1 #
lump $-1 -1 $-1 $-1 $21 $6 #
transform $-1 -1 1 0 0 0 1 0 0 0 1 0 -5.5562500000000021 0 1 no_rotate no_reflect no_shear #
rgb_color-st-attrib $-1 -1 $22 $-1 $7 0.5 1 1 #
lump $-1 -1 $-1 $-1 $23 $7 #
transform $-1 -1 1 0 0 0 1 0 0 0 1 0 -5.5562500000000021 0 1 no_rotate no_reflect no_shear #
face $24 -1 $-1 $25 $26 $8 $-1 $27 forward single #
shell $-1 -1 $-1 $-1 $-1 $28 $-1 $10 #
model_id-kcp-attrib $-1 -1 $-1 $12 $6 1 1021491740 1021491740 -211419132 1 #
shell $-1 -1 $-1 $-1 $-1 $29 $-1 $13 #
model_id-kcp-attrib $-1 -1 $-1 $15 $7 1 1021491740 1021491740 -205193213 1 #
shell $-1 -1 $-1 $-1 $-1 $30 $-1 $16 #
model_id-kcp-attrib $-1 -1 $-1 $-1 $18 1 1021491740 1021491740 -213712895 2 #
face $31 -1 $-1 $32 $33 $8 $-1 $34 forward single #
loop $-1 -1 $-1 $-1 $35 $18 #
plane-surface $-1 -1 $-1 0 4.7624999999999993 0 0 1 0 25.399999999999999 0 0 forward_v I I I I #
face $-1 -1 $-1 $36 $37 $19 $-1 $38 forward single #
face $-1 -1 $-1 $39 $40 $21 $-1 $41 forward single #
face $-1 -1 $-1 $42 $43 $23 $-1 $44 reversed single #
model_id-kcp-attrib $-1 -1 $-1 $-1 $25 1 1021491740 1021491740 -213712895 3 #
face $45 -1 $-1 $46 $47 $8 $-1 $48 forward single #
loop $-1 -1 $-1 $-1 $49 $25 #
cone-surface $-1 -1 $-1 0 -13.462 0 0 1 0 25.399999999999995 0 0 1 I I -0.70710678118654746 0.70710678118654757 25.399999999999995 forward I I I I #
coedge $-1 -1 $-1 $50 $50 $51 $52 reversed $26 $-1 #
face $-1 -1 $-1 $53 $54 $19 $-1 $55 reversed single #
loop $-1 -1 $-1 $-1 $56 $28 #
plane-surface $-1 -1 $-1 0 0 7.9375 0 0 1 1 0 0 forward_v I I I I #
face $-1 -1 $-1 $57 $58 $21 $-1 $59 forward single #
loop $-1 -1 $-1 $60 $61 $29 #
cone-surface $-1 -1 $-1 0 5.5562500000000021 0 0 -1 0 3.96875 0 0 1 I I 0 -1 3.96875 forward I I I I #
face $-1 -1 $-1 $62 $63 $23 $-1 $44 reversed single #
loop $-1 -1 $-1 $-1 $64 $30 #
cone-surface $-1 -1 $-1 0 10.318750000000001 0 0 1 0 -7.9375 0 9.7203129334651195e-016 1 I I 0 1 7.9375 forward I I I I #
model_id-kcp-attrib $-1 -1 $-1 $-1 $32 1 1021491740 1021491740 -213712895 4 #
face $65 -1 $-1 $66 $67 $8 $-1 $68 forward single #
loop $-1 -1 $-1 $-1 $69 $32 #
cone-surface $-1 -1 $-1 0 -13.462 0 0 1 0 25.399999999999995 0 0 1 I I -0.70710678118654746 0.70710678118654757 25.399999999999995 forward I I I I #
coedge $-1 -1 $-1 $51 $70 $71 $72 forward $33 $-1 #
coedge $-1 -1 $-1 $35 $35 $73 $74 forward $26 $-1 #
coedge $-1 -1 $-1 $75 $49 $35 $52 forward $33 $-1 #
edge $76 -1 $-1 $77 0 $78 3.1415926535897936 $35 $79 forward @7 unknown #
face $80 -1 $-1 $81 $82 $19 $-1 $83 reversed single #
loop $-1 -1 $-1 $-1 $84 $36 #
plane-surface $-1 -1 $-1 0 0 -7.9375 0 0 1 1 0 0 forward_v I I I I #
coedge $-1 -1 $-1 $85 $86 $87 $88 forward $37 $-1 #
face $-1 -1 $-1 $89 $90 $21 $-1 $91 reversed single #
loop $-1 -1 $-1 $92 $93 $39 #
cone-surface $-1 -1 $-1 0 5.5562500000000021 0 0 -1 0 -7.9375 0 9.7203129334651195e-016 1 I I 0 1 7.9375 forward I I I I #
loop $-1 -1 $-1 $-1 $94 $29 #
coedge $-1 -1 $-1 $61 $61 $95 $96 forward $40 $-1 #
face $-1 -1 $-1 $97 $98 $23 $-1 $44 reversed single #
loop $-1 -1 $-1 $-1 $99 $42 #
coedge $-1 -1 $-1 $100 $101 $102 $103 reversed $43 $-1 #
model_id-kcp-attrib $-1 -1 $-1 $-1 $46 1 1021491740 1021491740 -213712895 5 #
face $104 -1 $-1 $105 $106 $8 $-1 $107 reversed single #
loop $-1 -1 $-1 $-1 $108 $46 #
cone-surface $-1 -1 $-1 0 -16.906874999999996 0 0 1 0 7.9375 0 0 1 I I 0 1 7.9375 forward I I I I #
coedge $-1 -1 $-1 $73 $109 $75 $110 forward $47 $-1 #
coedge $-1 -1 $-1 $49 $75 $111 $112 reversed $33 $-1 #
coedge $-1 -1 $-1 $109 $73 $49 $72 reversed $47 $-1 #
edge $-1 -1 $-1 $113 0 $77 0.042426406871192909 $71 $114 forward @7 unknown #
coedge $-1 -1 $-1 $71 $69 $50 $74 reversed $47 $-1 #
edge $115 -1 $-1 $77 0 $78 3.1415926535897931 $50 $116 forward @7 unknown #
coedge $-1 -1 $-1 $70 $51 $69 $110 reversed $33 $-1 #
attrib_edge_convexity-kcp-attrib $-1 -1 $117 $-1 $52 1 #
vertex $-1 -1 $-1 $74 $118 #
vertex $-1 -1 $-1 $74 $119 #
ellipse-curve $-1 -1 $-1 0 4.7624999999999993 -1.0574874309554614e-015 0 -1 0 -7.1754999999999987 0 1.9362037201407078e-015 1 I I #
model_id-kcp-attrib $-1 -1 $-1 $-1 $53 1 1021491740 1021491740 -213057534 3 #
face $-1 -1 $-1 $120 $121 $19 $-1 $122 reversed single #
loop $-1 -1 $-1 $-1 $123 $53 #
plane-surface $-1 -1 $-1 0 -10.318750000000001 0 0 1 0 0 0 1 forward_v I I I I #
coedge $-1 -1 $-1 $124 $125 $126 $127 forward $54 $-1 #
coedge $-1 -1 $-1 $128 $56 $129 $130 forward $37 $-1 #
coedge $-1 -1 $-1 $56 $128 $131 $132 forward $37 $-1 #
coedge $-1 -1 $-1 $133 $134 $56 $88 reversed $135 $-1 #
edge $-1 -1 $-1 $136 -10.318750000000001 $137 10.318750000000001 $87 $138 forward @7 unknown #
face $-1 -1 $-1 $-1 $139 $21 $-1 $140 forward single #
loop $-1 -1 $-1 $141 $142 $57 #
plane-surface $-1 -1 $-1 0.48106060606060574 -9.5567499999999939 -2.7755575615628914e-016 2.0033320526909688e-032 1 -6.677773508969896e-033 0 6.677773508969896e-033 1 forward_v I I I I #
loop $-1 -1 $-1 $-1 $143 $39 #
coedge $-1 -1 $-1 $93 $93 $142 $144 forward $58 $-1 #
coedge $-1 -1 $-1 $94 $94 $145 $146 reversed $60 $-1 #
coedge $-1 -1 $-1 $95 $95 $61 $96 reversed $141 $-1 #
edge $-1 -1 $-1 $147 -3.1415926535897931 $147 3.1415926535897931 $61 $148 forward @7 unknown #
face $-1 -1 $-1 $149 $150 $23 $-1 $44 reversed single #
loop $-1 -1 $-1 $-1 $151 $62 #
coedge $-1 -1 $-1 $152 $153 $154 $155 reversed $63 $-1 #
coedge $-1 -1 $-1 $156 $64 $157 $158 forward $43 $-1 #
coedge $-1 -1 $-1 $64 $156 $159 $160 reversed $43 $-1 #
coedge $-1 -1 $-1 $161 $162 $64 $103 forward $163 $-1 #
edge $-1 -1 $-1 $164 -1.2246063538223773e-016 $165 1.5707963267948966 $102 $166 forward @7 unknown #
model_id-kcp-attrib $-1 -1 $-1 $-1 $66 1 1021491740 1021491740 -213712895 6 #
face $167 -1 $-1 $168 $169 $8 $-1 $170 forward single #
loop $-1 -1 $-1 $171 $172 $66 #
plane-surface $-1 -1 $-1 0 0 0 0 1 0 25.399999999999999 0 0 forward_v I I I I #
coedge $-1 -1 $-1 $173 $174 $175 $176 forward $67 $-1 #
coedge $-1 -1 $-1 $69 $71 $177 $178 forward $47 $-1 #
edge $-1 -1 $-1 $179 0 $78 0.042426406871192909 $69 $180 forward @7 unknown #
coedge $-1 -1 $-1 $181 $182 $70 $112 forward $183 $-1 #
edge $-1 -1 $-1 $113 -2.5041650658637118e-032 $179 3.1415926535897931 $111 $184 forward @7 unknown #
vertex $-1 -1 $-1 $185 $186 #
straight-curve $-1 -1 $-1 -7.9375 4.0004999999999988 9.7203129334651195e-016 17.960512242138307 17.960512242138307 -2.1994557409627282e-015 I I #
attrib_edge_convexity-kcp-attrib $-1 -1 $187 $-1 $74 1 #
ellipse-curve $-1 -1 $-1 0 4.7624999999999993 -7.0499162063697436e-016 0 1 0 -7.1754999999999987 0 1.5837079098222206e-015 1 I I #
convexity-sys-attrib $-1 -1 $-1 $76 $52 #
point $-1 -1 $-1 -7.1754999999999987 4.7624999999999993 8.787162891852462e-016 #
point $-1 -1 $-1 7.1754999999999987 4.7624999999999993 0 #
face $188 -1 $-1 $189 $190 $19 $-1 $191 reversed single #
loop $-1 -1 $-1 $-1 $192 $81 #
plane-surface $-1 -1 $-1 -7.9375 0 0 1 0 0 0 0 -1 forward_v I I I I #
coedge $-1 -1 $-1 $193 $131 $194 $195 forward $82 $-1 #
coedge $-1 -1 $-1 $196 $84 $193 $197 forward $54 $-1 #
coedge $-1 -1 $-1 $84 $196 $198 $199 forward $54 $-1 #
coedge $-1 -1 $-1 $134 $133 $84 $127 reversed $135 $-1 #
edge $-1 -1 $-1 $200 -10.318750000000001 $201 10.318750000000001 $126 $202 forward @7 unknown #
coedge $-1 -1 $-1 $86 $85 $203 $204 forward $37 $-1 #
coedge $-1 -1 $-1 $205 $206 $85 $130 reversed $190 $-1 #
edge $-1 -1 $-1 $137 -7.9375 $207 7.9375 $129 $208 forward @7 unknown #
coedge $-1 -1 $-1 $123 $209 $86 $132 reversed $82 $-1 #
edge $-1 -1 $-1 $210 -7.9375 $136 7.9375 $131 $211 forward @7 unknown #
coedge $-1 -1 $-1 $126 $87 $209 $212 forward $135 $-1 #
coedge $-1 -1 $-1 $87 $126 $205 $213 reversed $135 $-1 #
loop $-1 -1 $-1 $-1 $133 $189 #
vertex $-1 -1 $-1 $88 $214 #
vertex $-1 -1 $-1 $88 $215 #
straight-curve $-1 -1 $-1 7.9375 0 7.9375 0 1 0 I I #
loop $-1 -1 $-1 $216 $217 $89 #
plane-surface $-1 -1 $-1 0.48106060606060574 5.556250000000003 -2.7755575615628914e-016 2.0033320526909688e-032 1 -6.677773508969896e-033 0 6.677773508969896e-033 1 forward_v I I I I #
loop $-1 -1 $-1 $-1 $95 $57 #
coedge $-1 -1 $-1 $142 $142 $93 $144 reversed $90 $-1 #
coedge $-1 -1 $-1 $143 $143 $217 $218 reversed $92 $-1 #
edge $-1 -1 $-1 $219 -3.1415926535897931 $219 3.1415926535897931 $93 $220 forward @7 unknown #
coedge $-1 -1 $-1 $145 $145 $94 $146 forward $216 $-1 #
edge $221 -1 $-1 $222 0 $222 6.2831853071795862 $94 $223 forward @7 unknown #
vertex $-1 -1 $-1 $96 $224 #
ellipse-curve $-1 -1 $-1 0 -9.5567499999999956 0 0 -1 0 3.96875 0 0 1 I I #
face $-1 -1 $-1 $225 $226 $23 $-1 $227 forward single #
loop $-1 -1 $-1 $-1 $228 $97 #
coedge $-1 -1 $-1 $229 $230 $228 $231 forward $98 $-1 #
coedge $-1 -1 $-1 $232 $99 $233 $234 reversed $63 $-1 #
coedge $-1 -1 $-1 $99 $232 $101 $160 forward $63 $-1 #
coedge $-1 -1 $-1 $235 $236 $99 $155 forward $237 $-1 #
edge $-1 -1 $-1 $238 -3.1415926535897931 $239 -1.5707963267948966 $154 $240 forward @7 unknown #
coedge $-1 -1 $-1 $101 $100 $241 $242 reversed $43 $-1 #
coedge $-1 -1 $-1 $230 $229 $243 $158 reversed $98 $-1 #
edge $-1 -1 $-1 $164 -20.637500000000003 $244 0 $243 $245 forward @7 unknown #
coedge $-1 -1 $-1 $246 $247 $248 $160 forward $249 $-1 #
edge $-1 -1 $-1 $165 -20.637500000000003 $239 0 $159 $250 forward @7 unknown #
coedge $-1 -1 $-1 $162 $102 $247 $251 reversed $163 $-1 #
coedge $-1 -1 $-1 $102 $161 $252 $253 forward $163 $-1 #
loop $-1 -1 $-1 $-1 $102 $254 #
vertex $-1 -1 $-1 $255 $256 #
vertex $-1 -1 $-1 $257 $258 #
ellipse-curve $-1 -1 $-1 0 -10.318750000000001 0 0 1 0 -7.9375 0 9.7203129334651195e-016 1 I I #
model_id-kcp-attrib $-1 -1 $-1 $-1 $105 1 1021491740 1021491740 -213712895 7 #
face $259 -1 $-1 $260 $261 $8 $-1 $262 forward single #
loop $-1 -1 $-1 $-1 $263 $105 #
cone-surface $-1 -1 $-1 0 -16.906874999999996 0 0 1 0 3.96875 0 0 1 I I 0 1 3.96875 forward I I I I #
loop $-1 -1 $-1 $-1 $175 $66 #
coedge $-1 -1 $-1 $264 $264 $263 $265 reversed $106 $-1 #
coedge $-1 -1 $-1 $177 $108 $181 $266 reversed $67 $-1 #
coedge $-1 -1 $-1 $108 $177 $182 $185 forward $67 $-1 #
coedge $-1 -1 $-1 $267 $267 $108 $176 reversed $171 $-1 #
edge $268 -1 $-1 $269 1.2246063538223773e-016 $270 3.1415926535897931 $108 $271 forward @7 unknown #
coedge $-1 -1 $-1 $174 $173 $109 $178 reversed $67 $-1 #
edge $-1 -1 $-1 $113 0 $179 3.1415926535897931 $177 $272 forward @7 unknown #
vertex $-1 -1 $-1 $178 $273 #
straight-curve $-1 -1 $-1 7.9375 4.0004999999999988 -1.9440625866930239e-015 -17.960512242138307 17.960512242138307 4.3989114819254565e-015 I I #
coedge $-1 -1 $-1 $274 $111 $173 $266 forward $183 $-1 #
coedge $-1 -1 $-1 $111 $274 $174 $185 reversed $183 $-1 #
loop $-1 -1 $-1 $-1 $111 $275 #
ellipse-curve $-1 -1 $-1 0 4.0004999999999988 -3.5249581031848718e-016 0 -1 0 -7.9375 0 1.324527103664999e-015 1 I I #
edge $-1 -1 $-1 $113 0 $269 0.15749999999999997 $174 $276 forward @7 unknown #
point $-1 -1 $-1 -7.9375 4.0004999999999988 9.7203129334651195e-016 #
convexity-sys-attrib $-1 -1 $-1 $115 $74 #
model_id-kcp-attrib $-1 -1 $-1 $-1 $120 1 1021491740 1021491740 -213057534 2 #
face $-1 -1 $-1 $-1 $135 $19 $-1 $277 reversed single #
loop $-1 -1 $-1 $-1 $205 $120 #
plane-surface $-1 -1 $-1 0 10.318750000000001 0 0 -1 0 0 0 -1 forward_v I I I I #
coedge $-1 -1 $-1 $278 $203 $206 $279 forward $121 $-1 #
coedge $-1 -1 $-1 $209 $123 $124 $197 reversed $82 $-1 #
coedge $-1 -1 $-1 $203 $278 $123 $195 reversed $121 $-1 #
edge $-1 -1 $-1 $210 -7.9375 $280 7.9375 $194 $281 forward @7 unknown #
coedge $-1 -1 $-1 $125 $124 $278 $282 forward $54 $-1 #
edge $-1 -1 $-1 $201 -7.9375 $280 7.9375 $193 $283 forward @7 unknown #
coedge $-1 -1 $-1 $206 $205 $125 $199 reversed $190 $-1 #
edge $-1 -1 $-1 $284 -7.9375 $200 7.9375 $198 $285 forward @7 unknown #
vertex $-1 -1 $-1 $127 $286 #
vertex $-1 -1 $-1 $212 $287 #
straight-curve $-1 -1 $-1 7.9375 0 -7.9375 0 -1 0 I I #
coedge $-1 -1 $-1 $192 $194 $128 $204 reversed $121 $-1 #
edge $-1 -1 $-1 $207 -10.318750000000001 $210 10.318750000000001 $203 $288 forward @7 unknown #
coedge $-1 -1 $-1 $198 $129 $134 $213 forward $190 $-1 #
coedge $-1 -1 $-1 $129 $198 $192 $279 reversed $190 $-1 #
vertex $-1 -1 $-1 $130 $289 #
straight-curve $-1 -1 $-1 0 10.318750000000001 7.9375 -1 0 0 I I #
coedge $-1 -1 $-1 $131 $193 $133 $212 reversed $82 $-1 #
vertex $-1 -1 $-1 $204 $290 #
straight-curve $-1 -1 $-1 0 -10.318750000000001 7.9375 1 0 0 I I #
edge $-1 -1 $-1 $136 -7.9375 $201 7.9375 $133 $291 forward @7 unknown #
edge $-1 -1 $-1 $137 -7.9375 $200 7.9375 $134 $292 forward @7 unknown #
point $-1 -1 $-1 7.9375 -10.318750000000001 7.9375 #
point $-1 -1 $-1 7.9375 10.318750000000001 7.9375 #
loop $-1 -1 $-1 $-1 $145 $89 #
coedge $-1 -1 $-1 $217 $217 $143 $218 forward $139 $-1 #
edge $293 -1 $-1 $294 -3.1415926535897931 $294 3.1415926535897931 $143 $295 forward @7 unknown #
vertex $-1 -1 $-1 $144 $296 #
ellipse-curve $-1 -1 $-1 0 -9.5567499999999956 0 0 1 0 -7.9375 0 9.7203129334651195e-016 1 I I #
convexity-sys-attrib $-1 -1 $-1 $-1 $146 #
vertex $-1 -1 $-1 $146 $297 #
ellipse-curve $-1 -1 $-1 0 5.5562500000000021 0 0 -1 0 3.96875 0 0 1 I I #
point $-1 -1 $-1 -3.96875 -9.5567499999999956 4.8601564667325597e-016 #
face $-1 -1 $-1 $298 $299 $23 $-1 $300 reversed single #
loop $-1 -1 $-1 $-1 $248 $149 #
plane-surface $-1 -1 $-1 0 0 7.9375 0 0 1 1 0 0 forward_v I I I I #
coedge $-1 -1 $-1 $301 $302 $303 $231 reversed $150 $-1 #
coedge $-1 -1 $-1 $157 $151 $304 $305 reversed $98 $-1 #
coedge $-1 -1 $-1 $151 $157 $306 $307 reversed $98 $-1 #
edge $-1 -1 $-1 $308 -20.637500000000003 $309 0 $303 $310 forward @7 unknown #
coedge $-1 -1 $-1 $153 $152 $311 $312 reversed $63 $-1 #
coedge $-1 -1 $-1 $313 $314 $315 $234 forward $316 $-1 #
edge $-1 -1 $-1 $317 -20.637500000000003 $238 0 $233 $318 forward @7 unknown #
coedge $-1 -1 $-1 $236 $154 $319 $320 reversed $237 $-1 #
coedge $-1 -1 $-1 $154 $235 $313 $321 forward $237 $-1 #
loop $-1 -1 $-1 $-1 $154 $322 #
vertex $-1 -1 $-1 $323 $324 #
vertex $-1 -1 $-1 $325 $326 #
ellipse-curve $-1 -1 $-1 0 10.318750000000001 0 0 -1 0 -7.9375 0 9.7203129334651195e-016 1 I I #
coedge $-1 -1 $-1 $327 $328 $156 $242 forward $329 $-1 #
edge $-1 -1 $-1 $239 -1.5707963267948966 $244 1.2246063538223773e-016 $241 $240 forward @7 unknown #
coedge $-1 -1 $-1 $330 $331 $332 $158 forward $299 $-1 #
vertex $-1 -1 $-1 $333 $334 #
straight-curve $-1 -1 $-1 -7.9375 10.318750000000001 0 0 1 0 I I #
coedge $-1 -1 $-1 $335 $159 $328 $325 forward $249 $-1 #
coedge $-1 -1 $-1 $159 $335 $161 $251 forward $249 $-1 #
coedge $-1 -1 $-1 $336 $319 $153 $160 reversed $226 $-1 #
loop $-1 -1 $-1 $-1 $159 $337 #
straight-curve $-1 -1 $-1 0 10.318750000000001 7.9375 0 1 0 I I #
edge $-1 -1 $-1 $338 -7.9375 $165 0 $161 $339 forward @7 unknown #
coedge $-1 -1 $-1 $340 $332 $162 $253 reversed $341 $-1 #
edge $-1 -1 $-1 $338 -7.9375 $164 0 $252 $342 forward @7 unknown #
face $-1 -1 $-1 $343 $163 $23 $-1 $344 reversed single #
edge $-1 -1 $-1 $164 0 $345 7.9375 $331 $342 forward @7 unknown #
point $-1 -1 $-1 -7.9375 -10.318750000000001 0 #
edge $-1 -1 $-1 $165 0 $346 7.9375 $347 $339 forward @7 unknown #
point $-1 -1 $-1 0 -10.318750000000001 7.9375 #
model_id-kcp-attrib $-1 -1 $-1 $-1 $168 1 1021491740 1021491740 -213712895 8 #
face $348 -1 $-1 $349 $350 $8 $-1 $351 forward single #
loop $-1 -1 $-1 $-1 $352 $168 #
cone-surface $-1 -1 $-1 0 -16.906874999999996 0 0 1 0 3.96875 0 0 1 I I 0 1 3.96875 forward I I I I #
coedge $-1 -1 $-1 $353 $354 $172 $265 forward $169 $-1 #
coedge $-1 -1 $-1 $172 $172 $355 $356 forward $106 $-1 #
edge $357 -1 $-1 $358 -2.5041650658637118e-032 $359 3.1415926535897931 $172 $360 forward @7 unknown #
edge $-1 -1 $-1 $179 0 $270 0.15749999999999997 $173 $361 forward @7 unknown #
coedge $-1 -1 $-1 $175 $175 $274 $362 forward $171 $-1 #
attrib_edge_convexity-kcp-attrib $-1 -1 $363 $-1 $176 1 #
vertex $-1 -1 $-1 $185 $364 #
vertex $-1 -1 $-1 $266 $365 #
ellipse-curve $-1 -1 $-1 0 0 0 0 1 0 -7.9375 0 0 1 I I #
ellipse-curve $-1 -1 $-1 0 4.0004999999999988 0 0 1 0 -7.9375 0 9.7203129334651195e-016 1 I I #
point $-1 -1 $-1 7.9375 4.0004999999999988 -1.9440625866930239e-015 #
coedge $-1 -1 $-1 $182 $181 $267 $362 reversed $183 $-1 #
face $366 -1 $-1 $-1 $183 $8 $-1 $367 forward single #
straight-curve $-1 -1 $-1 -7.9375 4.0004999999999988 9.7203129334651195e-016 0 -25.399999999999999 0 I I #
plane-surface $-1 -1 $-1 7.9375 0 0 -1 0 0 0 0 1 forward_v I I I I #
coedge $-1 -1 $-1 $194 $192 $196 $282 reversed $121 $-1 #
edge $-1 -1 $-1 $207 -7.9375 $284 7.9375 $206 $368 forward @7 unknown #
vertex $-1 -1 $-1 $282 $369 #
straight-curve $-1 -1 $-1 -7.9375 -10.318750000000001 0 0 0 -1 I I #
edge $-1 -1 $-1 $280 -10.318750000000001 $284 10.318750000000001 $278 $370 forward @7 unknown #
straight-curve $-1 -1 $-1 0 -10.318750000000001 -7.9375 -1 0 0 I I #
vertex $-1 -1 $-1 $199 $371 #
straight-curve $-1 -1 $-1 0 10.318750000000001 -7.9375 1 0 0 I I #
point $-1 -1 $-1 7.9375 10.318750000000001 -7.9375 #
point $-1 -1 $-1 7.9375 -10.318750000000001 -7.9375 #
straight-curve $-1 -1 $-1 -7.9375 0 7.9375 0 -1 0 I I #
point $-1 -1 $-1 -7.9375 10.318750000000001 7.9375 #
point $-1 -1 $-1 -7.9375 -10.318750000000001 7.9375 #
straight-curve $-1 -1 $-1 7.9375 -10.318750000000001 0 0 0 -1 I I #
straight-curve $-1 -1 $-1 7.9375 10.318750000000001 0 0 0 -1 I I #
convexity-sys-attrib $-1 -1 $-1 $-1 $218 #
vertex $-1 -1 $-1 $218 $372 #
ellipse-curve $-1 -1 $-1 0 5.5562500000000021 0 0 1 0 -7.9375 0 9.7203129334651195e-016 1 I I #
point $-1 -1 $-1 7.9375 -9.5567499999999956 -1.9440625866930239e-015 #
point $-1 -1 $-1 3.96875 5.5562500000000021 0 #
face $-1 -1 $-1 $373 $374 $23 $-1 $375 reversed single #
loop $-1 -1 $-1 $-1 $243 $225 #
plane-surface $-1 -1 $-1 -7.9375 0 0 1 0 0 0 0 -1 forward_v I I I I #
coedge $-1 -1 $-1 $376 $228 $377 $378 reversed $150 $-1 #
coedge $-1 -1 $-1 $228 $376 $379 $380 reversed $150 $-1 #
coedge $-1 -1 $-1 $381 $382 $383 $231 forward $384 $-1 #
coedge $-1 -1 $-1 $385 $386 $229 $305 forward $387 $-1 #
edge $-1 -1 $-1 $244 1.2246063538223773e-016 $309 1.5707963267948968 $304 $240 forward @7 unknown #
coedge $-1 -1 $-1 $388 $389 $230 $307 forward $390 $-1 #
edge $-1 -1 $-1 $308 -1.5707963267948968 $164 -1.2246063538223773e-016 $306 $166 forward @7 unknown #
vertex $-1 -1 $-1 $391 $392 #
vertex $-1 -1 $-1 $393 $394 #
straight-curve $-1 -1 $-1 0 10.318750000000001 -7.9375 0 1 0 I I #
coedge $-1 -1 $-1 $395 $347 $232 $312 forward $396 $-1 #
edge $-1 -1 $-1 $165 1.5707963267948966 $317 3.1415926535897931 $311 $166 forward @7 unknown #
coedge $-1 -1 $-1 $397 $233 $236 $321 reversed $316 $-1 #
coedge $-1 -1 $-1 $233 $397 $395 $398 forward $316 $-1 #
coedge $-1 -1 $-1 $399 $400 $376 $234 reversed $374 $-1 #
loop $-1 -1 $-1 $-1 $233 $401 #
vertex $-1 -1 $-1 $402 $403 #
straight-curve $-1 -1 $-1 7.9375 10.318750000000001 0 0 1 0 I I #
coedge $-1 -1 $-1 $248 $404 $235 $320 forward $226 $-1 #
edge $-1 -1 $-1 $405 -7.9375 $239 0 $235 $406 forward @7 unknown #
edge $-1 -1 $-1 $405 -7.9375 $238 0 $313 $407 forward @7 unknown #
face $-1 -1 $-1 $408 $237 $23 $-1 $409 reversed single #
edge $-1 -1 $-1 $238 0 $410 7.9375 $400 $407 forward @7 unknown #
point $-1 -1 $-1 7.9375 10.318750000000001 0 #
edge $-1 -1 $-1 $239 0 $411 7.9375 $328 $406 forward @7 unknown #
point $-1 -1 $-1 0 10.318750000000001 7.9375 #
coedge $-1 -1 $-1 $328 $241 $412 $413 reversed $329 $-1 #
coedge $-1 -1 $-1 $241 $327 $246 $325 reversed $329 $-1 #
loop $-1 -1 $-1 $-1 $241 $408 #
coedge $-1 -1 $-1 $414 $243 $386 $333 forward $299 $-1 #
coedge $-1 -1 $-1 $243 $414 $388 $255 reversed $299 $-1 #
coedge $-1 -1 $-1 $252 $412 $100 $158 reversed $341 $-1 #
edge $-1 -1 $-1 $244 0 $415 7.9375 $386 $416 forward @7 unknown #
point $-1 -1 $-1 -7.9375 10.318750000000001 0 #
coedge $-1 -1 $-1 $247 $246 $340 $417 forward $249 $-1 #
coedge $-1 -1 $-1 $404 $248 $347 $257 forward $226 $-1 #
face $-1 -1 $-1 $418 $249 $23 $-1 $227 forward single #
vertex $-1 -1 $-1 $417 $419 #
straight-curve $-1 -1 $-1 0 -10.318750000000001 7.9375 1 0 0 I I #
coedge $-1 -1 $-1 $412 $252 $335 $417 reversed $341 $-1 #
loop $-1 -1 $-1 $-1 $332 $420 #
straight-curve $-1 -1 $-1 -7.9375 -10.318750000000001 0 0 0 -1 I I #
face $-1 -1 $-1 $421 $396 $23 $-1 $344 reversed single #
plane-surface $-1 -1 $-1 0 -10.318750000000001 0 0 1 0 0 0 1 forward_v I I I I #
vertex $-1 -1 $-1 $422 $423 #
vertex $-1 -1 $-1 $424 $425 #
coedge $-1 -1 $-1 $311 $395 $336 $257 reversed $396 $-1 #
model_id-kcp-attrib $-1 -1 $-1 $-1 $260 1 1021491740 1021491740 -213712895 9 #
face $426 -1 $-1 $427 $428 $8 $-1 $429 forward single #
loop $-1 -1 $-1 $-1 $430 $260 #
cone-surface $-1 -1 $-1 0 6.3182499999999946 0 0 -1 0 25.399999999999977 0 0 1 I I -0.70710678118654724 0.70710678118654791 25.399999999999977 forward I I I I #
coedge $-1 -1 $-1 $431 $432 $433 $434 forward $261 $-1 #
coedge $-1 -1 $-1 $435 $263 $431 $436 forward $169 $-1 #
coedge $-1 -1 $-1 $263 $435 $432 $437 reversed $169 $-1 #
coedge $-1 -1 $-1 $432 $431 $264 $356 reversed $261 $-1 #
edge $438 -1 $-1 $358 0 $359 3.1415926535897931 $264 $439 forward @7 unknown #
attrib_edge_convexity-kcp-attrib $-1 -1 $440 $-1 $265 2 #
vertex $-1 -1 $-1 $356 $441 #
vertex $-1 -1 $-1 $356 $442 #
ellipse-curve $-1 -1 $-1 0 0 -1.7624790515924359e-016 0 -1 0 -3.96875 0 6.6226355183249952e-016 1 I I #
straight-curve $-1 -1 $-1 7.9375 4.0004999999999988 -1.9440625866930239e-015 0 -25.399999999999999 0 I I #
edge $443 -1 $-1 $269 -1.2246063538223773e-016 $270 3.1415926535897931 $267 $444 forward @7 unknown #
convexity-sys-attrib $-1 -1 $-1 $268 $176 #
point $-1 -1 $-1 -7.9375 0 9.7203129334651195e-016 #
point $-1 -1 $-1 7.9375 0 0 #
model_id-kcp-attrib $-1 -1 $-1 $-1 $275 1 1021491740 1021491740 -213712895 12 #
cone-surface $-1 -1 $-1 0 -16.906874999999996 0 0 1 0 7.9375 0 0 1 I I 0 1 7.9375 forward I I I I #
straight-curve $-1 -1 $-1 -7.9375 10.318750000000001 0 0 0 -1 I I #
point $-1 -1 $-1 -7.9375 -10.318750000000001 -7.9375 #
straight-curve $-1 -1 $-1 -7.9375 0 -7.9375 0 1 0 I I #
point $-1 -1 $-1 -7.9375 10.318750000000001 -7.9375 #
point $-1 -1 $-1 7.9375 5.5562500000000021 -1.9440625866930239e-015 #
face $-1 -1 $-1 $322 $445 $23 $-1 $409 reversed single #
loop $-1 -1 $-1 $-1 $315 $298 #
plane-surface $-1 -1 $-1 7.9375 0 0 -1 0 0 0 0 1 forward_v I I I I #
coedge $-1 -1 $-1 $302 $301 $152 $234 forward $150 $-1 #
coedge $-1 -1 $-1 $446 $447 $301 $378 forward $448 $-1 #
edge $-1 -1 $-1 $317 -3.1415926535897931 $308 -1.5707963267948968 $377 $166 forward @7 unknown #
coedge $-1 -1 $-1 $449 $450 $302 $380 forward $445 $-1 #
edge $-1 -1 $-1 $309 1.5707963267948968 $238 3.1415926535897931 $379 $240 forward @7 unknown #
coedge $-1 -1 $-1 $451 $303 $450 $393 forward $384 $-1 #
coedge $-1 -1 $-1 $303 $451 $446 $452 forward $384 $-1 #
coedge $-1 -1 $-1 $453 $454 $151 $231 reversed $455 $-1 #
loop $-1 -1 $-1 $-1 $303 $418 #
coedge $-1 -1 $-1 $386 $304 $454 $456 reversed $387 $-1 #
coedge $-1 -1 $-1 $304 $385 $330 $333 reversed $387 $-1 #
loop $-1 -1 $-1 $-1 $304 $457 #
coedge $-1 -1 $-1 $389 $306 $331 $255 forward $390 $-1 #
coedge $-1 -1 $-1 $306 $388 $453 $391 reversed $390 $-1 #
loop $-1 -1 $-1 $-1 $306 $458 #
edge $-1 -1 $-1 $308 0 $345 7.9375 $389 $459 forward @7 unknown #
point $-1 -1 $-1 0 -10.318750000000001 -7.9375 #
edge $-1 -1 $-1 $309 0 $410 7.9375 $450 $460 forward @7 unknown #
point $-1 -1 $-1 0 10.318750000000001 -7.9375 #
coedge $-1 -1 $-1 $347 $311 $314 $398 reversed $396 $-1 #
loop $-1 -1 $-1 $-1 $311 $343 #
coedge $-1 -1 $-1 $314 $313 $404 $424 reversed $316 $-1 #
edge $-1 -1 $-1 $346 -7.9375 $317 0 $314 $461 forward @7 unknown #
coedge $-1 -1 $-1 $462 $315 $447 $402 forward $374 $-1 #
coedge $-1 -1 $-1 $315 $462 $449 $323 reversed $374 $-1 #
face $-1 -1 $-1 $-1 $316 $23 $-1 $375 reversed single #
edge $-1 -1 $-1 $317 0 $463 7.9375 $399 $461 forward @7 unknown #
point $-1 -1 $-1 7.9375 -10.318750000000001 0 #
coedge $-1 -1 $-1 $319 $336 $397 $424 forward $226 $-1 #
vertex $-1 -1 $-1 $424 $464 #
straight-curve $-1 -1 $-1 0 10.318750000000001 7.9375 -1 0 0 I I #
straight-curve $-1 -1 $-1 7.9375 10.318750000000001 0 0 0 -1 I I #
face $-1 -1 $-1 $457 $329 $23 $-1 $409 reversed single #
plane-surface $-1 -1 $-1 0 10.318750000000001 0 0 -1 0 0 0 -1 forward_v I I I I #
vertex $-1 -1 $-1 $465 $466 #
vertex $-1 -1 $-1 $325 $467 #
coedge $-1 -1 $-1 $332 $340 $327 $413 forward $341 $-1 #
edge $-1 -1 $-1 $411 -7.9375 $244 0 $327 $416 forward @7 unknown #
coedge $-1 -1 $-1 $331 $330 $468 $422 reversed $299 $-1 #
vertex $-1 -1 $-1 $456 $469 #
straight-curve $-1 -1 $-1 -7.9375 10.318750000000001 0 0 0 -1 I I #
edge $-1 -1 $-1 $411 -10.318750000000001 $338 10.318750000000001 $340 $470 forward @7 unknown #
face $-1 -1 $-1 $420 $384 $23 $-1 $471 reversed single #
point $-1 -1 $-1 -7.9375 -10.318750000000001 7.9375 #
face $-1 -1 $-1 $401 $341 $23 $-1 $300 reversed single #
face $-1 -1 $-1 $472 $448 $23 $-1 $344 reversed single #
edge $-1 -1 $-1 $345 -10.318750000000001 $415 10.318750000000001 $414 $473 forward @7 unknown #
point $-1 -1 $-1 -7.9375 -10.318750000000001 -7.9375 #
edge $-1 -1 $-1 $346 -10.318750000000001 $405 10.318750000000001 $397 $474 forward @7 unknown #
point $-1 -1 $-1 7.9375 -10.318750000000001 7.9375 #
model_id-kcp-attrib $-1 -1 $-1 $-1 $349 1 1021491740 1021491740 -213712895 10 #
face $475 -1 $-1 $275 $476 $8 $-1 $477 reversed single #
loop $-1 -1 $-1 $-1 $478 $349 #
cone-surface $-1 -1 $-1 0 6.3182499999999946 0 0 -1 0 25.399999999999977 0 0 1 I I -0.70710678118654724 0.70710678118654791 25.399999999999977 forward I I I I #
coedge $-1 -1 $-1 $433 $479 $480 $481 forward $350 $-1 #
coedge $-1 -1 $-1 $355 $352 $353 $436 reversed $261 $-1 #
coedge $-1 -1 $-1 $352 $355 $354 $437 forward $261 $-1 #
coedge $-1 -1 $-1 $482 $430 $352 $434 reversed $350 $-1 #
edge $-1 -1 $-1 $483 -2.0033320526909708e-031 $484 3.1415926535897927 $352 $485 forward @7 unknown #
coedge $-1 -1 $-1 $354 $353 $486 $487 reversed $169 $-1 #
edge $-1 -1 $-1 $359 0 $484 0.59499999999999997 $431 $488 forward @7 unknown #
edge $-1 -1 $-1 $358 0 $483 0.59499999999999997 $432 $489 forward @7 unknown #
attrib_edge_convexity-kcp-attrib $-1 -1 $490 $-1 $356 2 #
ellipse-curve $-1 -1 $-1 0 0 0 0 1 0 -3.96875 0 4.8601564667325597e-016 1 I I #
convexity-sys-attrib $-1 -1 $-1 $357 $265 #
point $-1 -1 $-1 -3.96875 0 4.8601564667325597e-016 #
point $-1 -1 $-1 3.96875 0 0 #
attrib_edge_convexity-kcp-attrib $-1 -1 $491 $-1 $362 1 #
ellipse-curve $-1 -1 $-1 0 0 0 0 -1 0 -7.9375 0 0 1 I I #
loop $-1 -1 $-1 $-1 $379 $373 #
coedge $-1 -1 $-1 $447 $377 $382 $452 reversed $448 $-1 #
coedge $-1 -1 $-1 $377 $446 $399 $402 reversed $448 $-1 #
loop $-1 -1 $-1 $-1 $377 $421 #
coedge $-1 -1 $-1 $450 $379 $400 $323 forward $445 $-1 #
coedge $-1 -1 $-1 $379 $449 $381 $393 reversed $445 $-1 #
coedge $-1 -1 $-1 $382 $381 $462 $465 forward $384 $-1 #
edge $-1 -1 $-1 $463 -7.9375 $308 0 $446 $459 forward @7 unknown #
coedge $-1 -1 $-1 $468 $383 $389 $391 forward $455 $-1 #
coedge $-1 -1 $-1 $383 $468 $385 $456 forward $455 $-1 #
loop $-1 -1 $-1 $-1 $383 $472 #
edge $-1 -1 $-1 $415 -7.9375 $309 0 $385 $460 forward @7 unknown #
face $-1 -1 $-1 $458 $387 $23 $-1 $409 reversed single #
face $-1 -1 $-1 $254 $390 $23 $-1 $344 reversed single #
straight-curve $-1 -1 $-1 0 -10.318750000000001 -7.9375 -1 0 0 I I #
straight-curve $-1 -1 $-1 0 10.318750000000001 -7.9375 1 0 0 I I #
straight-curve $-1 -1 $-1 7.9375 -10.318750000000001 0 0 0 -1 I I #
coedge $-1 -1 $-1 $400 $399 $451 $465 reversed $374 $-1 #
vertex $-1 -1 $-1 $402 $492 #
point $-1 -1 $-1 7.9375 10.318750000000001 7.9375 #
edge $-1 -1 $-1 $410 -10.318750000000001 $463 10.318750000000001 $462 $493 forward @7 unknown #
point $-1 -1 $-1 7.9375 10.318750000000001 -7.9375 #
point $-1 -1 $-1 -7.9375 10.318750000000001 7.9375 #
coedge $-1 -1 $-1 $454 $453 $414 $422 forward $455 $-1 #
point $-1 -1 $-1 -7.9375 10.318750000000001 -7.9375 #
straight-curve $-1 -1 $-1 -7.9375 0 7.9375 0 -1 0 I I #
plane-surface $-1 -1 $-1 0 0 -7.9375 0 0 1 1 0 0 forward_v I I I I #
face $-1 -1 $-1 $337 $455 $23 $-1 $471 reversed single #
straight-curve $-1 -1 $-1 -7.9375 0 -7.9375 0 1 0 I I #
straight-curve $-1 -1 $-1 7.9375 0 7.9375 0 1 0 I I #
model_id-kcp-attrib $-1 -1 $-1 $-1 $427 1 1021491740 1021491740 -213712895 11 #
loop $-1 -1 $-1 $-1 $494 $427 #
plane-surface $-1 -1 $-1 0 -15.875 0 0 1 0 25.399999999999999 0 0 forward_v I I I I #
coedge $-1 -1 $-1 $486 $495 $482 $496 forward $428 $-1 #
coedge $-1 -1 $-1 $430 $482 $494 $497 forward $350 $-1 #
coedge $-1 -1 $-1 $495 $486 $430 $481 reversed $428 $-1 #
edge $-1 -1 $-1 $498 1.8427396449751567e-030 $484 0.042426406871192909 $480 $499 forward @7 unknown #
coedge $-1 -1 $-1 $479 $433 $478 $496 reversed $350 $-1 #
vertex $-1 -1 $-1 $437 $500 #
vertex $-1 -1 $-1 $436 $501 #
ellipse-curve $-1 -1 $-1 -1.7624790515924359e-016 -15.113000000000005 -1.5862311464331924e-015 0 1 0 -3.9687499999999969 0 2.0722467931064478e-015 1 I I #
coedge $-1 -1 $-1 $480 $478 $435 $487 forward $428 $-1 #
edge $-1 -1 $-1 $483 -9.0149942371093677e-031 $484 3.1415926535897913 $435 $502 forward @7 unknown #
straight-curve $-1 -1 $-1 3.96875 0 -9.7203129334651195e-016 0 -25.399999999999999 0 I I #
straight-curve $-1 -1 $-1 -3.96875 0 4.8601564667325597e-016 0 -25.399999999999999 0 I I #
convexity-sys-attrib $-1 -1 $-1 $438 $356 #
convexity-sys-attrib $-1 -1 $-1 $443 $362 #
point $-1 -1 $-1 7.9375 -10.318750000000001 -7.9375 #
straight-curve $-1 -1 $-1 7.9375 0 -7.9375 0 -1 0 I I #
coedge $-1 -1 $-1 $503 $503 $479 $497 reversed $476 $-1 #
coedge $-1 -1 $-1 $478 $480 $503 $504 reversed $428 $-1 #
edge $-1 -1 $-1 $505 0 $483 0.042426406871192909 $478 $506 forward @7 unknown #
edge $-1 -1 $-1 $505 0 $498 3.1415926535897896 $494 $507 forward @7 unknown #
vertex $-1 -1 $-1 $504 $508 #
straight-curve $-1 -1 $-1 3.2067500000000018 -15.875000000000002 -3.5602076842167187e-015 17.960512242138275 17.960512242138343 8.391489986473693e-014 I I #
point $-1 -1 $-1 -3.96875 -15.112999999999998 4.8601564667325597e-016 #
point $-1 -1 $-1 3.96875 -15.112999999999998 -9.7203129334651195e-016 #
ellipse-curve $-1 -1 $-1 3.5249581031848718e-016 -15.113000000000005 3.3487101980256282e-015 0 -1 0 -3.9687499999999969 0 -2.862694551352373e-015 1 I I #
coedge $-1 -1 $-1 $494 $494 $495 $504 forward $476 $-1 #
edge $-1 -1 $-1 $505 0 $498 3.1415926535897967 $503 $509 forward @7 unknown #
vertex $-1 -1 $-1 $504 $510 #
straight-curve $-1 -1 $-1 -3.2067500000000018 -15.875000000000002 3.9270064251199082e-016 -17.960512242138275 17.960512242138343 2.1994557409627113e-015 I I #
ellipse-curve $-1 -1 $-1 1.7624790515924359e-016 -15.875 -1.7624790515924359e-016 -8.7938457396051943e-016 1 1.5602232048002635e-031 -3.2067500000000018 -2.8199664825478975e-015 5.6894854767123446e-016 1 I I #
point $-1 -1 $-1 3.2067500000000018 -15.875000000000002 1.0607263304469533e-014 #
ellipse-curve $-1 -1 $-1 3.5249581031848718e-016 -15.875 -1.7624790515924359e-016 8.7938457396051943e-016 -1 -1.5602232048002635e-031 -3.2067500000000018 -2.8199664825478975e-015 5.6894854767123446e-016 1 I I #
point $-1 -1 $-1 -3.2067500000000018 -15.875000000000002 3.9270064251199082e-016 #
End-of-ACIS-data 