600 0 1 0           
90 GICL Pro/E ACIS Translator - Source: f:/data5/repository/PTC/V18/mold18/stop_pin.prt - 6 0 13 ACIS 6.0.3 NT 24 Thu Apr 04 13:32:05 2002 
1 9.9999999999999995e-007 1e-010 
body $-1 $1 $-1 $2 #
lump $-1 $-1 $3 $0 #
transform $-1 1 0 0 0 1 0 0 0 1 0 0 0 25.399999999999999 no_rotate no_reflect no_shear #
shell $-1 $-1 $-1 $4 $-1 $1 #
face $-1 $5 $6 $3 $-1 $7 forward single #
face $-1 $8 $9 $3 $-1 $10 forward single #
loop $-1 $-1 $11 $4 #
plane-surface $-1 0 0.1875 0 0 1 0 1 0 0 forward_v I I I I #
face $-1 $12 $13 $3 $-1 $14 forward single #
loop $-1 $-1 $15 $5 #
cone-surface $-1 0 -0.53000000000000003 0 0 1 0 0.99999999999999989 0 0 1 I I -0.70710678118654746 0.70710678118654757 0.99999999999999989 forward I I I I #
coedge $-1 $16 $16 $17 $18 reversed $6 $-1 #
face $-1 $19 $20 $3 $-1 $21 forward single #
loop $-1 $-1 $22 $8 #
cone-surface $-1 0 -0.53000000000000003 0 0 1 0 0.99999999999999989 0 0 1 I I -0.70710678118654746 0.70710678118654757 0.99999999999999989 forward I I I I #
coedge $-1 $17 $23 $24 $25 forward $9 $-1 #
coedge $-1 $11 $11 $26 $27 forward $6 $-1 #
coedge $-1 $28 $15 $11 $18 forward $9 $-1 #
edge $-1 $29 0 $30 3.1415926535897936 $11 $31 forward 7 unknown #
face $-1 $32 $33 $3 $-1 $34 reversed single #
loop $-1 $-1 $35 $12 #
cone-surface $-1 0 -0.66562499999999991 0 0 1 0 0.3125 0 0 1 I I 0 1 0.3125 forward I I I I #
coedge $-1 $26 $36 $28 $37 forward $13 $-1 #
coedge $-1 $15 $28 $38 $39 reversed $9 $-1 #
coedge $-1 $36 $26 $15 $25 reversed $13 $-1 #
edge $-1 $40 0 $29 0.042426406871192895 $24 $41 forward 7 unknown #
coedge $-1 $24 $22 $16 $27 reversed $13 $-1 #
edge $-1 $29 0 $30 3.1415926535897931 $16 $42 forward 7 unknown #
coedge $-1 $23 $17 $22 $37 reversed $9 $-1 #
vertex $-1 $27 $43 #
vertex $-1 $27 $44 #
ellipse-curve $-1 0 0.1875 -4.163336342344337e-017 0 -1 0 -0.28249999999999997 0 7.6228492918925504e-017 1 I I #
face $-1 $45 $46 $3 $-1 $47 forward single #
loop $-1 $48 $49 $19 #
plane-surface $-1 0 0 0 0 1 0 1 0 0 forward_v I I I I #
coedge $-1 $50 $51 $52 $53 forward $20 $-1 #
coedge $-1 $22 $24 $54 $55 forward $13 $-1 #
edge $-1 $56 0 $30 0.042426406871192895 $22 $57 forward 7 unknown #
coedge $-1 $58 $59 $23 $39 forward $60 $-1 #
edge $-1 $40 0 $56 3.1415926535897931 $38 $61 forward 7 unknown #
vertex $-1 $62 $63 #
straight-curve $-1 -0.3125 0.15749999999999997 3.8268948556949289e-017 0.70710678118654757 0.70710678118654757 -8.6592745707194035e-017 I I #
ellipse-curve $-1 0 0.1875 -2.7755575615628914e-017 0 1 0 -0.28249999999999997 0 6.2350705111111047e-017 1 I I #
point $-1 -0.28249999999999997 0.1875 3.4595129495482134e-017 #
point $-1 0.28249999999999997 0.1875 0 #
face $-1 $64 $65 $3 $-1 $66 forward single #
loop $-1 $-1 $67 $32 #
cone-surface $-1 0 -0.66562499999999991 0 0 1 0 0.15625 0 0 1 I I 0 1 0.15625 forward I I I I #
loop $-1 $-1 $52 $19 #
coedge $-1 $68 $68 $67 $69 reversed $33 $-1 #
coedge $-1 $54 $35 $58 $70 reversed $20 $-1 #
coedge $-1 $35 $54 $59 $62 forward $20 $-1 #
coedge $-1 $71 $71 $35 $53 reversed $48 $-1 #
edge $-1 $72 1.2246063538223773e-016 $73 3.1415926535897931 $35 $74 forward 7 unknown #
coedge $-1 $51 $50 $36 $55 reversed $20 $-1 #
edge $-1 $40 0 $56 3.1415926535897931 $54 $75 forward 7 unknown #
vertex $-1 $55 $76 #
straight-curve $-1 0.3125 0.15749999999999997 -7.6537897113898579e-017 -0.70710678118654757 0.70710678118654757 1.7318549141438807e-016 I I #
coedge $-1 $77 $38 $50 $70 forward $60 $-1 #
coedge $-1 $38 $77 $51 $62 reversed $60 $-1 #
loop $-1 $-1 $38 $78 #
ellipse-curve $-1 0 0.15749999999999997 -1.3877787807814457e-017 0 -1 0 -0.3125 0 5.2146736364763746e-017 1 I I #
edge $-1 $40 0 $72 0.15749999999999997 $51 $79 forward 7 unknown #
point $-1 -0.3125 0.15749999999999997 3.8268948556949289e-017 #
face $-1 $80 $81 $3 $-1 $82 forward single #
loop $-1 $-1 $83 $45 #
cone-surface $-1 0 -0.66562499999999991 0 0 1 0 0.15625 0 0 1 I I 0 1 0.15625 forward I I I I #
coedge $-1 $84 $85 $49 $69 forward $46 $-1 #
coedge $-1 $49 $49 $86 $87 forward $33 $-1 #
edge $-1 $88 0 $89 3.1415926535897931 $49 $90 forward 7 unknown #
edge $-1 $56 0 $73 0.15749999999999997 $50 $91 forward 7 unknown #
coedge $-1 $52 $52 $77 $92 forward $48 $-1 #
vertex $-1 $62 $93 #
vertex $-1 $70 $94 #
ellipse-curve $-1 0 0 0 0 1 0 -0.3125 0 0 1 I I #
ellipse-curve $-1 0 0.15749999999999997 0 0 1 0 -0.3125 0 3.8268948556949289e-017 1 I I #
point $-1 0.3125 0.15749999999999997 -7.6537897113898579e-017 #
coedge $-1 $59 $58 $71 $92 reversed $60 $-1 #
face $-1 $-1 $60 $3 $-1 $95 forward single #
straight-curve $-1 -0.3125 0.15749999999999997 3.8268948556949289e-017 0 -1 0 I I #
face $-1 $96 $97 $3 $-1 $98 forward single #
loop $-1 $-1 $99 $64 #
cone-surface $-1 0 0.2487499999999998 0 0 -1 0 0.99999999999999911 0 0 1 I I -0.70710678118654724 0.70710678118654791 0.99999999999999911 forward I I I I #
coedge $-1 $100 $101 $102 $103 forward $65 $-1 #
coedge $-1 $104 $67 $100 $105 forward $46 $-1 #
coedge $-1 $67 $104 $101 $106 reversed $46 $-1 #
coedge $-1 $101 $100 $68 $87 reversed $65 $-1 #
edge $-1 $88 0 $89 3.1415926535897931 $68 $107 forward 7 unknown #
vertex $-1 $87 $108 #
vertex $-1 $87 $109 #
ellipse-curve $-1 0 0 -6.9388939039072284e-018 0 -1 0 -0.15625 0 2.6073368182381873e-017 1 I I #
straight-curve $-1 0.3125 0.15749999999999997 -7.6537897113898579e-017 0 -1 0 I I #
edge $-1 $72 -1.2246063538223773e-016 $73 3.1415926535897931 $71 $110 forward 7 unknown #
point $-1 -0.3125 0 3.8268948556949289e-017 #
point $-1 0.3125 0 0 #
cone-surface $-1 0 -0.66562499999999991 0 0 1 0 0.3125 0 0 1 I I 0 1 0.3125 forward I I I I #
face $-1 $78 $111 $3 $-1 $112 reversed single #
loop $-1 $-1 $113 $80 #
cone-surface $-1 0 0.2487499999999998 0 0 -1 0 0.99999999999999911 0 0 1 I I -0.70710678118654724 0.70710678118654791 0.99999999999999911 forward I I I I #
coedge $-1 $102 $114 $115 $116 forward $81 $-1 #
coedge $-1 $86 $83 $84 $105 reversed $65 $-1 #
coedge $-1 $83 $86 $85 $106 forward $65 $-1 #
coedge $-1 $117 $99 $83 $103 reversed $81 $-1 #
edge $-1 $118 -2.5243548967072396e-031 $119 3.1415926535897927 $83 $120 forward 7 unknown #
coedge $-1 $85 $84 $121 $122 reversed $46 $-1 #
edge $-1 $89 0 $119 0.59499999999999997 $100 $123 forward 7 unknown #
edge $-1 $88 0 $118 0.59499999999999997 $101 $124 forward 7 unknown #
ellipse-curve $-1 0 0 0 0 1 0 -0.15625 0 1.9134474278474645e-017 1 I I #
point $-1 -0.15625 0 1.9134474278474645e-017 #
point $-1 0.15625 0 0 #
ellipse-curve $-1 0 0 0 0 -1 0 -0.3125 0 0 1 I I #
loop $-1 $-1 $125 $96 #
plane-surface $-1 0 -0.625 0 0 1 0 1 0 0 forward_v I I I I #
coedge $-1 $121 $126 $117 $127 forward $97 $-1 #
coedge $-1 $99 $117 $125 $128 forward $81 $-1 #
coedge $-1 $126 $121 $99 $116 reversed $97 $-1 #
edge $-1 $129 1.8427396449751574e-030 $119 0.042426406871192895 $115 $130 forward 7 unknown #
coedge $-1 $114 $102 $113 $127 reversed $81 $-1 #
vertex $-1 $106 $131 #
vertex $-1 $105 $132 #
ellipse-curve $-1 -6.9388939039072284e-018 -0.5950000000000002 -6.2450045135165055e-017 0 1 0 -0.15624999999999989 0 8.1584519413639675e-017 1 I I #
coedge $-1 $115 $113 $104 $122 forward $97 $-1 #
edge $-1 $118 -6.3108872417680992e-031 $119 3.1415926535897913 $104 $133 forward 7 unknown #
straight-curve $-1 0.15625 0 -3.8268948556949289e-017 0 -1 0 I I #
straight-curve $-1 -0.15625 0 1.9134474278474645e-017 0 -1 0 I I #
coedge $-1 $134 $134 $114 $128 reversed $111 $-1 #
coedge $-1 $113 $115 $134 $135 reversed $97 $-1 #
edge $-1 $136 0 $118 0.042426406871192895 $113 $137 forward 7 unknown #
edge $-1 $136 0 $129 3.1415926535897896 $125 $138 forward 7 unknown #
vertex $-1 $135 $139 #
straight-curve $-1 0.12625000000000008 -0.62500000000000011 -1.4016565685892593e-016 0.70710678118654624 0.70710678118654891 3.3037362151471236e-015 I I #
point $-1 -0.15625 -0.59499999999999997 1.9134474278474645e-017 #
point $-1 0.15625 -0.59499999999999997 -3.8268948556949289e-017 #
ellipse-curve $-1 1.3877787807814457e-017 -0.5950000000000002 1.3183898417423734e-016 0 -1 0 -0.15624999999999989 0 -1.1270450989576272e-016 1 I I #
coedge $-1 $125 $125 $126 $135 forward $111 $-1 #
edge $-1 $136 0 $129 3.1415926535897967 $134 $140 forward 7 unknown #
vertex $-1 $135 $141 #
straight-curve $-1 -0.12625000000000008 -0.62500000000000011 1.5460655217007514e-017 -0.70710678118654624 0.70710678118654891 8.6592745707193357e-017 I I #
ellipse-curve $-1 6.9388939039072284e-018 -0.625 -6.9388939039072284e-018 -8.7938457396051943e-016 1 1.5602232048002635e-031 -0.12625000000000008 -1.1102230246251565e-016 2.2399549120914742e-017 1 I I #
point $-1 0.12625000000000008 -0.62500000000000011 4.1760879151454856e-016 #
ellipse-curve $-1 1.3877787807814457e-017 -0.625 -6.9388939039072284e-018 8.7938457396051943e-016 -1 -1.5602232048002635e-031 -0.12625000000000008 -1.1102230246251565e-016 2.2399549120914742e-017 1 I I #
point $-1 -0.12625000000000008 -0.62500000000000011 1.5460655217007514e-017 #
End-of-ACIS-data 