  0
SECTION
  2
HEADER
  9
$ACADVER
  1
AC1009
  9
$INSBASE
 10
0.0
 20
0.0
 30
0.0
  9
$EXTMIN
 10
-10.0
 20
-12.0
 30
-5.05051
  9
$EXTMAX
 10
12.0
 20
12.0
 30
10.0
  9
$LIMMIN
 10
0.0
 20
0.0
  9
$LIMMAX
 10
12.0
 20
9.0
  9
$ORTHOMODE
 70
     0
  9
$REGENMODE
 70
     1
  9
$FILLMODE
 70
     1
  9
$QTEXTMODE
 70
     0
  9
$MIRRTEXT
 70
     1
  9
$DRAGMODE
 70
     2
  9
$LTSCALE
 40
1.0
  9
$OSMODE
 70
     0
  9
$ATTMODE
 70
     1
  9
$TEXTSIZE
 40
0.2
  9
$TRACEWID
 40
0.05
  9
$TEXTSTYLE
  7
STANDARD
  9
$CLAYER
  8
0
  9
$CELTYPE
  6
BYLAYER
  9
$CECOLOR
 62
   256
  9
$DIMSCALE
 40
1.0
  9
$DIMASZ
 40
0.18
  9
$DIMEXO
 40
0.0625
  9
$DIMDLI
 40
0.38
  9
$DIMRND
 40
0.0
  9
$DIMDLE
 40
0.0
  9
$DIMEXE
 40
0.18
  9
$DIMTP
 40
0.0
  9
$DIMTM
 40
0.0
  9
$DIMTXT
 40
0.18
  9
$DIMCEN
 40
0.09
  9
$DIMTSZ
 40
0.0
  9
$DIMTOL
 70
     0
  9
$DIMLIM
 70
     0
  9
$DIMTIH
 70
     1
  9
$DIMTOH
 70
     1
  9
$DIMSE1
 70
     0
  9
$DIMSE2
 70
     0
  9
$DIMTAD
 70
     0
  9
$DIMZIN
 70
     0
  9
$DIMBLK
  1

  9
$DIMASO
 70
     1
  9
$DIMSHO
 70
     1
  9
$DIMPOST
  1

  9
$DIMAPOST
  1

  9
$DIMALT
 70
     0
  9
$DIMALTD
 70
     2
  9
$DIMALTF
 40
25.4
  9
$DIMLFAC
 40
1.0
  9
$DIMTOFL
 70
     0
  9
$DIMTVP
 40
0.0
  9
$DIMTIX
 70
     0
  9
$DIMSOXD
 70
     0
  9
$DIMSAH
 70
     0
  9
$DIMBLK1
  1

  9
$DIMBLK2
  1

  9
$DIMSTYLE
  2
*UNNAMED
  9
$DIMCLRD
 70
     0
  9
$DIMCLRE
 70
     0
  9
$DIMCLRT
 70
     0
  9
$DIMTFAC
 40
1.0
  9
$DIMGAP
 40
0.09
  9
$LUNITS
 70
     2
  9
$LUPREC
 70
     4
  9
$SKETCHINC
 40
0.1
  9
$FILLETRAD
 40
0.0
  9
$AUNITS
 70
     0
  9
$AUPREC
 70
     0
  9
$MENU
  1
acad
  9
$ELEVATION
 40
0.0
  9
$PELEVATION
 40
0.0
  9
$THICKNESS
 40
0.0
  9
$LIMCHECK
 70
     0
  9
$BLIPMODE
 70
     1
  9
$CHAMFERA
 40
0.0
  9
$CHAMFERB
 40
0.0
  9
$SKPOLY
 70
     0
  9
$TDCREATE
 40
2449410.999951296
  9
$TDUPDATE
 40
2449411.002925370
  9
$TDINDWG
 40
0.0029740741
  9
$TDUSRTIMER
 40
0.0029740741
  9
$USRTIMER
 70
     1
  9
$ANGBASE
 50
0.0
  9
$ANGDIR
 70
     0
  9
$PDMODE
 70
     0
  9
$PDSIZE
 40
0.0
  9
$PLINEWID
 40
0.0
  9
$COORDS
 70
     1
  9
$SPLFRAME
 70
     0
  9
$SPLINETYPE
 70
     6
  9
$SPLINESEGS
 70
     8
  9
$ATTDIA
 70
     0
  9
$ATTREQ
 70
     1
  9
$HANDLING
 70
     1
  9
$HANDSEED
  5
72
  9
$SURFTAB1
 70
     6
  9
$SURFTAB2
 70
     6
  9
$SURFTYPE
 70
     6
  9
$SURFU
 70
     6
  9
$SURFV
 70
     6
  9
$UCSNAME
  2

  9
$UCSORG
 10
0.0
 20
0.0
 30
0.0
  9
$UCSXDIR
 10
1.0
 20
0.0
 30
0.0
  9
$UCSYDIR
 10
0.0
 20
1.0
 30
0.0
  9
$PUCSNAME
  2

  9
$PUCSORG
 10
0.0
 20
0.0
 30
0.0
  9
$PUCSXDIR
 10
1.0
 20
0.0
 30
0.0
  9
$PUCSYDIR
 10
0.0
 20
1.0
 30
0.0
  9
$USERI1
 70
     0
  9
$USERI2
 70
     0
  9
$USERI3
 70
     0
  9
$USERI4
 70
     0
  9
$USERI5
 70
     0
  9
$USERR1
 40
0.0
  9
$USERR2
 40
0.0
  9
$USERR3
 40
0.0
  9
$USERR4
 40
0.0
  9
$USERR5
 40
0.0
  9
$WORLDVIEW
 70
     1
  9
$SHADEDGE
 70
     3
  9
$SHADEDIF
 70
    70
  9
$TILEMODE
 70
     1
  9
$MAXACTVP
 70
    16
  9
$PINSBASE
 10
0.0
 20
0.0
 30
0.0
  9
$PLIMCHECK
 70
     0
  9
$PEXTMIN
 10
1.000000E+20
 20
1.000000E+20
 30
1.000000E+20
  9
$PEXTMAX
 10
-1.000000E+20
 20
-1.000000E+20
 30
-1.000000E+20
  9
$PLIMMIN
 10
0.0
 20
0.0
  9
$PLIMMAX
 10
12.0
 20
9.0
  9
$UNITMODE
 70
     0
  9
$VISRETAIN
 70
     0
  9
$PLINEGEN
 70
     0
  9
$PSLTSCALE
 70
     1
  9
$TREEDEPTH
 70
  3020
  9
$DWGCODEPAGE
  3
ascii
  0
ENDSEC
  0
SECTION
  2
TABLES
  0
TABLE
  2
VPORT
 70
     2
  0
VPORT
  2
*ACTIVE
 70
     0
 10
0.0
 20
0.0
 11
1.0
 21
1.0
 12
5.04795
 22
2.076548
 13
0.0
 23
0.0
 14
1.0
 24
1.0
 15
0.0
 25
0.0
 16
1.0
 26
2.0
 36
1.0
 17
0.0
 27
0.0
 37
0.0
 40
26.519366
 41
1.594883
 42
50.0
 43
0.0
 44
0.0
 50
0.0
 51
0.0
 71
     0
 72
   100
 73
     1
 74
     1
 75
     0
 76
     0
 77
     0
 78
     0
  0
ENDTAB
  0
TABLE
  2
LTYPE
 70
     1
  0
LTYPE
  2
CONTINUOUS
 70
    64
  3
Solid line
 72
    65
 73
     0
 40
0.0
  0
ENDTAB
  0
TABLE
  2
LAYER
 70
     3
  0
LAYER
  2
0
 70
    64
 62
     7
  6
CONTINUOUS
  0
LAYER
  2
ASHADE
 70
    64
 62
     7
  6
CONTINUOUS
  0
LAYER
  2
AME_FRZ
 70
    65
 62
     7
  6
CONTINUOUS
  0
ENDTAB
  0
TABLE
  2
STYLE
 70
     2
  0
STYLE
  2
STANDARD
 70
     0
 40
0.0
 41
1.0
 50
0.0
 71
     0
 42
0.2
  3
txt
  4

  0
STYLE
  2
ASHADE
 70
     0
 40
0.2
 41
1.0
 50
0.0
 71
     0
 42
0.2
  3
simplex
  4

  0
ENDTAB
  0
TABLE
  2
VIEW
 70
     0
  0
ENDTAB
  0
TABLE
  2
UCS
 70
     0
  0
ENDTAB
  0
TABLE
  2
APPID
 70
     5
  0
APPID
  2
ACAD
 70
    64
  0
APPID
  2
AVE_RENDER
 70
    64
  0
APPID
  2
AME_SOL
 70
    64
  0
APPID
  2
AVE_INVOKE
 70
    64
  0
ENDTAB
  0
TABLE
  2
DIMSTYLE
 70
     0
  0
ENDTAB
  0
ENDSEC
  0
SECTION
  2
BLOCKS
  0
BLOCK
  8
0
  5
1
  2
AVE_RENDER
 70
    64
 10
0.0
 20
0.0
 30
0.0
  1
AVE_RENDER
  3
AVE_RENDER
  0
ENDBLK
  8
0
  5
2
  0
BLOCK
  8
0
  5
6
  2
AME_NIL
 70
    64
 10
0.0
 20
0.0
 30
0.0
  1
AME_NIL
  3
AME_NIL
  0
ENDBLK
  8
0
  5
7
  0
BLOCK
  8
0
  5
9
  2
AME_SOL
 70
    64
 10
0.0
 20
0.0
 30
0.0
  1
AME_SOL
  3
AME_SOL
  0
ENDBLK
  8
0
  5
A
  0
BLOCK
  8
0
  5
2A
  2
*U5
 70
    65
 10
0.0
 20
0.0
 30
0.0
  1
*U
  3
*U
  0
LINE
  8
0
 62
     7
  5
2B
 10
12.0
 20
5.0
 30
0.0
 11
12.0
 21
5.0
 31
10.0
1001
AME_SOL
1070
     1
1071
       36
  0
LINE
  8
0
 62
     7
  5
2C
 10
12.0
 20
5.0
 30
10.0
 11
12.0
 21
0.0
 31
10.0
1001
AME_SOL
1070
     1
1071
       35
  0
LINE
  8
0
 62
     7
  5
2D
 10
0.0
 20
5.0
 30
10.0
 11
12.0
 21
5.0
 31
10.0
1001
AME_SOL
1070
     1
1071
       34
  0
LINE
  8
0
 62
     7
  5
2E
 10
0.0
 20
5.0
 30
0.0
 11
0.0
 21
5.0
 31
10.0
1001
AME_SOL
1070
     1
1071
       33
  0
LINE
  8
0
 62
     7
  5
2F
 10
0.0
 20
5.0
 30
10.0
 11
0.0
 21
0.0
 31
10.0
1001
AME_SOL
1070
     1
1071
       32
  0
LINE
  8
0
 62
     7
  5
30
 10
0.0
 20
0.0
 30
7.0
 11
0.0
 21
0.0
 31
10.0
1001
AME_SOL
1070
     1
1071
       31
  0
LINE
  8
0
 62
     7
  5
31
 10
0.0
 20
0.0
 30
0.0
 11
0.0
 21
0.0
 31
3.0
1001
AME_SOL
1070
     1
1071
       30
  0
LINE
  8
0
 62
     7
  5
32
 10
12.0
 20
0.0
 30
10.0
 11
12.0
 21
0.0
 31
0.0
1001
AME_SOL
1070
     1
1071
       29
  0
LINE
  8
0
 62
     7
  5
33
 10
0.0
 20
0.0
 30
10.0
 11
12.0
 21
0.0
 31
10.0
1001
AME_SOL
1070
     1
1071
       28
  0
LINE
  8
0
 62
     7
  5
34
 10
0.0
 20
0.0
 30
0.0
 11
12.0
 21
0.0
 31
0.0
1001
AME_SOL
1070
     1
1071
       27
  0
LINE
  8
0
 62
     7
  5
35
 10
0.0
 20
5.0
 30
0.0
 11
0.0
 21
0.0
 31
0.0
1001
AME_SOL
1070
     1
1071
       26
  0
LINE
  8
0
 62
     7
  5
36
 10
12.0
 20
0.0
 30
0.0
 11
12.0
 21
5.0
 31
0.0
1001
AME_SOL
1070
     1
1071
       25
  0
LINE
  8
0
 62
     7
  5
37
 10
12.0
 20
5.0
 30
0.0
 11
0.0
 21
5.0
 31
0.0
1001
AME_SOL
1070
     1
1071
       24
  0
LINE
  8
0
 62
     7
  5
38
 10
11.156854
 20
0.0
 30
7.0
 11
0.0
 21
0.0
 31
7.0
1001
AME_SOL
1070
     1
1071
       23
  0
LINE
  8
0
 62
     7
  5
39
 10
0.0
 20
0.0
 30
7.0
 11
0.0
 21
4.397916
 31
7.0
1001
AME_SOL
1070
     1
1071
       22
  0
LINE
  8
0
 62
     7
  5
3A
 10
0.303848
 20
5.0
 30
7.0
 11
10.696152
 21
5.0
 31
7.0
1001
AME_SOL
1070
     1
1071
       21
  0
LINE
  8
0
 62
     7
  5
3B
 10
0.0
 20
0.0
 30
3.0
 11
11.156854
 21
0.0
 31
3.0
1001
AME_SOL
1070
     1
1071
       20
  0
LINE
  8
0
 62
     7
  5
3C
 10
0.0
 20
4.397916
 30
3.0
 11
0.0
 21
0.0
 31
3.0
1001
AME_SOL
1070
     1
1071
       19
  0
LINE
  8
0
 62
     7
  5
3D
 10
10.696152
 20
5.0
 30
3.0
 11
0.303848
 21
5.0
 31
3.0
1001
AME_SOL
1070
     1
1071
       18
  0
ARC
  8
0
 62
     7
  5
3E
 10
5.5
 20
2.0
 30
3.0
 40
6.0
 50
150.0
 51
156.443536
1001
AME_SOL
1070
     1
1071
       17
  0
ARC
  8
0
 62
     7
  5
3F
 10
5.5
 20
2.0
 30
3.0
 40
6.0
 50
340.528779
 51
30.0
1001
AME_SOL
1070
     1
1071
       16
  0
LINE
  8
0
 62
     7
  5
40
 10
11.156854
 20
0.0
 30
3.0
 11
11.156854
 21
0.0
 31
7.0
1001
AME_SOL
1070
     1
1071
       15
  0
LINE
  8
0
 62
     7
  5
41
 10
0.0
 20
4.397916
 30
3.0
 11
0.0
 21
4.397916
 31
7.0
1001
AME_SOL
1070
     1
1071
       14
  0
LINE
  8
0
 62
     7
  5
42
 10
10.696152
 20
5.0
 30
3.0
 11
10.696152
 21
5.0
 31
7.0
1001
AME_SOL
1070
     1
1071
       13
  0
LINE
  8
0
 62
     7
  5
43
 10
0.303848
 20
5.0
 30
3.0
 11
0.303848
 21
5.0
 31
7.0
1001
AME_SOL
1070
     1
1071
       12
  0
ARC
  8
0
 62
     7
  5
44
 10
5.5
 20
2.0
 30
7.0
 40
6.0
 50
150.0
 51
156.443536
1001
AME_SOL
1070
     1
1071
       11
  0
ARC
  8
0
 62
     7
  5
45
 10
5.5
 20
2.0
 30
7.0
 40
6.0
 50
340.528779
 51
30.0
1001
AME_SOL
1070
     1
1071
       10
  0
LINE
  8
0
 62
     7
  5
46
 10
11.5
 20
2.0
 30
3.0
 11
11.5
 21
2.0
 31
7.0
1001
AME_SOL
1070
     0
1071
        1
  0
ENDBLK
  8
0
  5
47
  0
BLOCK
  8
0
  5
4B
  2
AME_JNK
 70
     0
 10
0.0
 20
0.0
 30
0.0
  1
AME_JNK
  3
AME_JNK
  0
ENDBLK
  8
0
  5
4C
  0
BLOCK
  8
0
  5
4E
  2
SOLAXES
 70
     0
 10
0.0
 20
0.0
 30
0.0
  1
SOLAXES
  3
SOLAXES
  0
LINE
  8
0
 62
     0
  5
4F
 10
0.0
 20
0.0
 30
0.0
 11
4.7378
 21
0.0
 31
0.0
  0
LINE
  8
0
 62
     0
  5
50
 10
0.0
 20
0.0
 30
0.0
 11
0.0
 21
4.7378
 31
0.0
  0
LINE
  8
0
 62
     0
  5
51
 10
0.0
 20
0.0
 30
0.0
 11
0.0
 21
0.0
 31
4.7378
  0
CIRCLE
  8
0
 62
     0
  5
52
 10
0.0
 20
0.0
 30
4.26402
 40
0.23689
210
1.0
220
0.0
230
0.0
  0
LINE
  8
0
 62
     0
  5
53
 10
4.26402
 20
0.23689
 30
0.0
 11
4.7378
 21
0.0
 31
0.0
  0
LINE
  8
0
 62
     0
  5
54
 10
4.26402
 20
0.0
 30
0.23689
 11
4.7378
 21
0.0
 31
0.0
  0
LINE
  8
0
 62
     0
  5
55
 10
4.26402
 20
-0.23689
 30
0.0
 11
4.7378
 21
0.0
 31
0.0
  0
LINE
  8
0
 62
     0
  5
56
 10
4.26402
 20
0.0
 30
-0.23689
 11
4.7378
 21
0.0
 31
0.0
  0
CIRCLE
  8
0
 62
     0
  5
57
 10
0.0
 20
0.0
 30
4.26402
 40
0.23689
210
0.0
220
1.0
230
0.0
  0
LINE
  8
0
 62
     0
  5
58
 10
0.23689
 20
4.26402
 30
0.0
 11
0.0
 21
4.7378
 31
0.0
  0
LINE
  8
0
 62
     0
  5
59
 10
0.0
 20
4.26402
 30
0.23689
 11
0.0
 21
4.7378
 31
0.0
  0
LINE
  8
0
 62
     0
  5
5A
 10
-0.23689
 20
4.26402
 30
0.0
 11
0.0
 21
4.7378
 31
0.0
  0
LINE
  8
0
 62
     0
  5
5B
 10
0.0
 20
4.26402
 30
-0.23689
 11
0.0
 21
4.7378
 31
0.0
  0
CIRCLE
  8
0
 62
     0
  5
5C
 10
0.0
 20
0.0
 30
3.79024
 40
0.23689
210
0.0
220
1.0
230
0.0
  0
LINE
  8
0
 62
     0
  5
5D
 10
0.23689
 20
3.79024
 30
0.0
 11
0.0
 21
4.26402
 31
0.0
  0
LINE
  8
0
 62
     0
  5
5E
 10
0.0
 20
3.79024
 30
0.23689
 11
0.0
 21
4.26402
 31
0.0
  0
LINE
  8
0
 62
     0
  5
5F
 10
-0.23689
 20
3.79024
 30
0.0
 11
0.0
 21
4.26402
 31
0.0
  0
LINE
  8
0
 62
     0
  5
60
 10
0.0
 20
3.79024
 30
-0.23689
 11
0.0
 21
4.26402
 31
0.0
  0
CIRCLE
  8
0
 62
     0
  5
61
 10
0.0
 20
0.0
 30
4.26402
 40
0.23689
  0
LINE
  8
0
 62
     0
  5
62
 10
0.23689
 20
0.0
 30
4.26402
 11
0.0
 21
0.0
 31
4.7378
  0
LINE
  8
0
 62
     0
  5
63
 10
0.0
 20
0.23689
 30
4.26402
 11
0.0
 21
0.0
 31
4.7378
  0
LINE
  8
0
 62
     0
  5
64
 10
-0.23689
 20
0.0
 30
4.26402
 11
0.0
 21
0.0
 31
4.7378
  0
LINE
  8
0
 62
     0
  5
65
 10
0.0
 20
-0.23689
 30
4.26402
 11
0.0
 21
0.0
 31
4.7378
  0
CIRCLE
  8
0
 62
     0
  5
66
 10
0.0
 20
0.0
 30
3.79024
 40
0.23689
  0
LINE
  8
0
 62
     0
  5
67
 10
0.23689
 20
0.0
 30
3.79024
 11
0.0
 21
0.0
 31
4.26402
  0
LINE
  8
0
 62
     0
  5
68
 10
0.0
 20
0.23689
 30
3.79024
 11
0.0
 21
0.0
 31
4.26402
  0
LINE
  8
0
 62
     0
  5
69
 10
-0.23689
 20
0.0
 30
3.79024
 11
0.0
 21
0.0
 31
4.26402
  0
LINE
  8
0
 62
     0
  5
6A
 10
0.0
 20
-0.23689
 30
3.79024
 11
0.0
 21
0.0
 31
4.26402
  0
CIRCLE
  8
0
 62
     0
  5
6B
 10
0.0
 20
0.0
 30
3.31646
 40
0.23689
  0
LINE
  8
0
 62
     0
  5
6C
 10
0.23689
 20
0.0
 30
3.31646
 11
0.0
 21
0.0
 31
3.79024
  0
LINE
  8
0
 62
     0
  5
6D
 10
0.0
 20
0.23689
 30
3.31646
 11
0.0
 21
0.0
 31
3.79024
  0
LINE
  8
0
 62
     0
  5
6E
 10
-0.23689
 20
0.0
 30
3.31646
 11
0.0
 21
0.0
 31
3.79024
  0
LINE
  8
0
 62
     0
  5
6F
 10
0.0
 20
-0.23689
 30
3.31646
 11
0.0
 21
0.0
 31
3.79024
  0
ENDBLK
  8
0
  5
70
  0
ENDSEC
  0
SECTION
  2
ENTITIES
  0
INSERT
  8
ASHADE
 62
     1
  5
3
  2
AVE_RENDER
 10
0.0
 20
0.0
 30
0.0
1001
AVE_RENDER
1002
{
1070
     2
1000
Pref
1070
    30
1070
    20
1070
     0
1070
     0
1000

1070
    10
1070
     0
1070
    30
1040
1.0
1070
     1
1040
0.3
1040
0.7
1040
0.0
1040
10.0
1010
-1.0
1020
-1.0
1030
-1.0
1040
0.3
1070
    49
1002
}
  0
INSERT
  8
ASHADE
 62
     3
  5
4
  2
AVE_RENDER
 10
0.0
 20
0.0
 30
0.0
1001
AVE_RENDER
1002
{
1070
     0
1000
Full Opt
1070
     0
1070
     1
1070
     1
1070
     1
1070
     0
1070
     0
1070
     0
1070
     1
1070
     1
1040
0.0001
1040
0.0001
1002
}
  0
INSERT
  8
ASHADE
 62
     4
  5
5
  2
AVE_RENDER
 10
0.0
 20
0.0
 30
0.0
1001
AVE_RENDER
1002
{
1070
     0
1000
Quick Opt
1070
     0
1070
     1
1070
     1
1070
     1
1070
     0
1070
     0
1070
     1
1002
}
  0
INSERT
  8
AME_FRZ
  5
8
  2
AME_NIL
 10
0.0
 20
0.0
 30
0.0
  0
INSERT
  8
AME_FRZ
  5
B
  2
AME_SOL
 10
0.0
 20
0.0
 30
0.0
1001
AME_SOL
1000
R2.1
1000
AME2
1000
sq cm
1070
     3
1070
     0
1070
     3
1000
wire
1040
45.0
1000
U
1040
1.0
1000
cm
1000
gm
1000
MILD_STEEL
1070
    25
1000
CSG
1070
     1
1070
     3
1070
     3
1070
     3
1070
     0
1000
cu cm
1070
     1
1070
     0
1005
8
  0
INSERT
  8
AME_FRZ
  5
1A
  2
AME_NIL
 10
0.0
 20
0.0
 30
0.0
1001
AME_SOL
1002
{
1070
     1
1071
  2414096
1070
  1536
1070
     1
1010
12.0
1020
5.0
1030
10.0
1005
0
1005
0
1005
48
1040
0.0
1040
1.0
1070
     0
1000
MILD_STEEL
1000
0
1010
0.0
1020
0.0
1030
0.0
1010
0.0
1020
0.0
1030
1.0
1040
0.0
1002
}
1001
AVE_INVOKE
1000
SOLAVEMESH
  0
INSERT
  8
AME_FRZ
  5
26
  2
AME_NIL
 10
5.5
 20
2.0
 30
3.0
1001
AME_SOL
1002
{
1070
     1
1071
  2389456
1070
  1538
1070
     1
1010
6.0
1020
6.0
1030
4.0
1005
0
1005
0
1005
48
1040
0.0
1040
1.0
1070
     0
1000
MILD_STEEL
1000
0
1010
5.5
1020
2.0
1030
3.0
1010
0.0
1020
0.0
1030
1.0
1040
0.0
1002
}
1001
AVE_INVOKE
1000
SOLAVEMESH
  0
INSERT
  8
0
  5
48
  2
*U5
 10
0.0
 20
0.0
 30
0.0
 50
180.0
210
1.0
220
-0.0000000000000001
230
-0.0000000000000002
1001
AME_SOL
1002
{
1070
     1
1071
  2415168
1070
  1543
1070
     1
1070
     0
1005
1A
1005
26
1005
0
1005
49
1005
0
1040
0.0
1040
1.0
1070
     0
1000
MILD_STEEL
1000
0
1002
}
1001
AVE_INVOKE
1000
SOLAVEMESH
  0
INSERT
  8
AME_FRZ
  5
49
  2
AME_NIL
 10
1.0
 20
1.0
 30
1.0
1001
AME_SOL
1004
C7CF01003D019E019D019B0197018F01820103008000830172015F012700480130014D00DF00720060014901DA00F3004A01E100C4007F0090018401FD00730161014B016B0031015200330018000800850102007401C0001400980191018601750162018400040096007601630110001E00890087017701
1004
7C0064014C0132011E013500E8001F0168001301CA001500E000A4003F009201FF00F0009C019901930188017801650105004E005F00790166014D01E600F2000E0067011C004E01330106002100ED0089010100240094018A017A0168014F01E20034013D00D000EE0075007B0169012800500135019500
1004
C100360120010B0073002101A6007D006A015101370122017000D50023019900D700380124012600AE002501B900C600520139012601E300C800270114016400D8001501010109000A00020100010D003A012801160103011900A800040129002A001701050197002F0006013000A9002901180107013200
1004
340008013A00BB0019010901BC0046000A014800BE008B017C01F8006B0153013B012A011A010B0149004A000C014B00EC001B010D01500058000E01DC0066002B011C010F0167008200100169006A001D011101D300C9001201CE00CB00600054012000980025009A0195018C017D010F006C0155018800
1004
310056013C01780013003D011B00EA007E016D0157013E012300B0003F013800F7005801F60044000700400096018D01BF007F016E011200FE006F0159014001F10083001D005A014101A000DB004201160061008E01800170015B0143018D004F004401FC00FB005C0145017600540046012C019D006500
1004
2D016E0011008E0081013C0071015D0147012E01170077002F012D002E00E4005E01FA00E500000063C063C057BBC695E2318D8A4C9ABB297650E64CCAA31855709563AB8E8C090700F8E206BBD7181432126CD51AC0A1909366B66A29432126CD36A5DE3448BB28732665518C2AB84AB1D5C746048382EC
1004
0604281666D45286424D9843581432126CD6CD2558EAE3A30466A563D0588FE4E6369569FD8F41FF397FFFFFFF9CBFFFDDE6FF6FE2DA81FC55BF8AB7FFFFFD8F41FF397FFFFFFF9CBFFFDDE6FF6FE2DA81FC55BF8AB7FFFFF3B81231E0722A7FCE5FFFFFFFE72FFD1CF955C43FB7F16D1ACB78050EEBBEF2
1004
84C2565BC028775DF79426852FE1231E3722A7FCE5FFFFFFFE72FFCA898C6318A9DA97C9077E2DA3596F00A1DD77DE50984ACB78050EEBBEF284D0A5FC2463D2E454FF9CBFFFFFFFCE5FFFE10DFEDFC5B46B2DE0143BAEFBCA1309596F00A1DD77DE509A1F1BFE2C77FFE48D318C63198E68DD96F00A1DD7
1004
7DE50984BF8B1C6318C6331CD65BC028775DF79426852FFFF92346950318C540C6325FFFF246848C7F9153FE72FFFFFFFF397FE544C6318C54EDFD6CDFC5B46B2DE0143BAEFBCA1309596F00A1DD77DE509A14BFBC68940B28732665518C2AB84AB1D5C746048382EC0604281666D45286424D9843581432
1004
126CD6CD508E206B928B6A52041042A9CC6D295372041FF397FFFFFC1FCEE7F07F779BFDBF8B6A07FFFFFFFFFC8107FCE5FFFFFF07F3B9FC1FDDE6FF6FE2DA81FFFFFFFFFCEE3C68940B28732665518C2AB84AB1D5C7460483940CD26A3CEC73514A190936610D6050C849B35B349563AB8E8C119A948104
1004
ECA4E6369569BC8107FCE5FFFFFFFE72FFFF779BFDBFA33503FFFFFFFFFE4083FE72FFFFFFFF397FFFBBCDFEDFD19A81FFFFFFFFFCEE3C6892180F8E206BBD7007C71035DEB803E3881AEF5C6050C849B3546BB563AB8E8C07B407C71035DE969481045AC4E974AAF84B2041FFFF397FFF9CBFFFFFFFFFF4
1004
0FFFFFFFFFF9020FFFF9CBFFFCE5FFFFFFFFFFA07FFFFFFFFF396F1A245C07C71035DEB803E3881AEF5C01F1C40D77AE30286424D9AA3407C71035DE968A50C849B34DA94810417EA74BA562A59020FF9CBFFFFFFFFFCE5FFFFFFA07FFFFFFFFFC8107FCE5FFFFFFFFFE72FFFFFFD03FFFFFFFFF9CB78D12
1004
2E03E3881AEF5C01F1C40D77AE00F8E206BBD7007C71035DE96ED58EAE3A301ED45286424D9A6D4A4082B77FA74BA557B259020FFFFFF9CBFFFCE5FFFFFFFFA07FFFFFFFFFC8107FFFFFCE5FFFE72FFFFFFFFD03FFFFFFFFF9CB78D124301F1C40D77AE00F8E206BBD71D8766EE3C8B1906B0286424D9AA3
1004
5DAB1D5C74603DA8A50C849B34DA9481059144274BA557AA59020FF9DCFE0FF07F83F9DCFE0FEA8DFC7B7F4DA81FFFFFFFFFF2041FF3B9FC1FE0FF07F3B9FC1FD51BF8F6FE9B503FFFFFFFFF9CB78D122E03E3881AEF5C503349A8F3B1AD01F1C40D77AE30286424D9AA35DAB1D5C74603DA8A50C849B34D
1004
A9481056AC55E974AFCD2C8107FE0FF07F3B9F9DCFE0FF07F546FE3DBFA6D40FFFFFFFFFF9020FFC1FE0FE773F3B9FC1FE0FEA8DFC7B7F4DA81FFFFFFFFFCE5BC68921A25D9BB8F22C08680F8E206BBD7007C71035DEB8C0A1909366A8D76AC7571D180F6A29432126CD36A520410596BD2E95F9259020FF
1004
C1FCEE7F07F83FC1FCEE7EA8DFC7B7F4DA81FFFFFFFFFF2041FF83F9DCFE0FF07F83F9DCFD51BF8F6FE9B503FFFFFFFFF9CB2B51650E64CCAA31855709563AB8E8C09072819A4D479D8E6A29432126CC21AC0A1909366B6692AC7571D18233491E7A03C2AE1C562E3CD55AFC992149552A9635E25248AED5
1004
69D298CC47F273B293E34ECA4EC47F27318C6318C67894FF9CBFFFFFFFCE5FFFEEF37FB7F46690FF156FE2AD2479E80F0AB87158B8F3556BF264852554AA595A8B28732665518C2AB84AB1D5C7460483940CD26A3CEC73514A190936610D6050C849B35B349563AB8E8C119A5A86C92B755CEC10B5FCAC95
1004
7AB558ACD01A35E252385AB4E94C6623F939D949F1A76527623F9398C6318C633C4A7FCE5FFFFFFFE72FFFF779BFDBFA33487F8AB7F15696A1B24ADD573B042D7F2B255EAD562B340695A880F8E206BBD7140CD26A3CEC6B42EC0604281666D45286424D98435DAB1D5C74603DA4AB1D5C74608CDFFFC91A
1004
348A9572AFD5FA531988FE4EB562AFC6AD58ABD88FE4E97318C622A7FCE5FFFFFFFE72FFD686B485A331CA104D6985FE3DBF8B68DFFFC91A56A203E3881AEF5C503349A8F3B1AD0BB01810A0599B514A190936610D76AC7571D180F692AC7571D182337FFF2468D22A55C8A6BF3192B11FC9D6AC55F8D623
1004
F93AD58ABCC63192E454FF9CBFFFFFFFCE5FF8E46475F83CE5745DBF8F6FE2DA37FFF24695A880F8E206BBD7007C71035DEB81760302140B33680F8E206BBD2DDAB1D5C74603DA4AB1D5C74608CDFFFC91A348A9572AF95F98C9588FE4EB77FA7C6B11FC9D6EFF4E6318C9722A7FCE5FFFFFFFE72FFFF5A7
1004
2BF15DEB4957DABE9F8ABD1E7B7F16D1BFFF9234AD4407C71035DEB803E3881AEF5C0BB01810A0599B514A190936610D01F1C40D77A592AC7571D182337FFF2468D22A55D4A82FD298CC47F2705FA9F1A0BF53B11FC9D2E6318C454FF9CBFFFFFFFCE5FFA21E61629BC2B44568DFFFC5B46FFFE48D2B5165
1004
0E64CCAA31855709563AB8E8C090705D80C08502CCDA8A50C849B3086B0286424D9AD9AA11C40D72516D2479E80F0AB87158B8F3556BF264852554AA58D7894ABC55FEBF3192B11FC9C10AA7C6B11FC9C10AA7318C6318C67894FF9CBFFFFFFFCE5FFFEEF37FB7F16D21FE2ADFC55A48F3D01E1570E2B171
1004
E6AAD7E4C90A4AA954B2B51650E64CCAA31855709563AB8E8C090705D80C08502CCDA8A50C849B3086B0286424D9AD9AA11C40D72516D2D436495BAAE76085AFE564ABD5AAC56680D1AF12958AE8BF3192B11FC9C10AA7C6B11FC9C10AA7318C6318C67894FF9CBFFFFFFFCE5FFFEEF37FB7F16D21FE2ADF
1004
C55A5A86C92B755CEC10B5FCAC957AB558ACD01A56A203E3881AEF5C503349A8F3B1AD0BB01810A0599B514A190936610D76AC7571D180F6A8471035C945B447F8B56CAC190338AAA323AFC1E73F56CD1A454AC79ABF4A6302154EB562AFC6AD58ABC10AA74B98C631153FFFE72FFFFFFFF3B9F051D6FE3D
1004
BF8B68D11FE2D5B2B0640CE2AA8C8EBF079CFD5B34AD4407C71035DEB803E3881AEF5C0BB01810A0599B407C71035DE96ED58EAE3A301ED508E206B928B6A310BF152A2FCD560EFCE58D22A562D1D7E94C6042A9D6EFF4F8D5BBFD382154E97318C622A7FCEE7FFFFFFFFE773FFF397F8B68D46217E2A545
1004
F9AAC1DF9CB2B5101F1C40D77AE00F8E206BBD702EC0604281666D45286424D9843407C71035DE96A11C40D72516DFD1C1C8879858A6F0A86B668D22A459525FA531810AA705FA9F1A0BF5382154E97318C622A7FFFCEE7FFFFFFE773F471BFFF8B68DFD1C1C8879858A6F0A86B6695A880F8E206BBD7140
1004
CD26A3CEC6B540CD26A3CEC73514A190936610D76AC7571D180F692AC7571D1823355546475F83CE7EAD8708FF16AD95832062C691522AB4A5FA5318ECA4EB562AFC6AD58ABCECA4E97318C622A7FFFCE5FFFFFFFE72FE0A3ADFC7B7F4668D555191D7E0F39FAB61C23FC5AB6560C818B2B5101F1C40D77A
1004
E00F8E206BBD7140CD26A3CEC73407C71035DE96ED58EAE3A301ED2558EAE3A30466FE7711885F8A9517E6AB1A348A9545A5AFD298C765275BBFD3E356EFF4E765274B98C631153FE773FFFFFFFFF397FFF9CBFD19A37F3B88C42FC54A8BF3558D2B5101F1C40D77AE00F8E206BBD7140CD26A3CEC73514A
1004
190936610D01F1C40D77A592AC7571D18233510F30B14DE150D6C3BF471A348A964850BF4A631D949C17EA7C682FD4E765274B98C631153FFFE773FFFFFFF397FA38DFFFD19A3510F30B14DE150D6C3BF471A56A203E3881AEF5C503349A8F3B1AD01F1C40D77AE30286424D9AA35DAB1D5C74603DA03E38
1004
81AEF4BFC5477E2AD1A454AB957F2FCC64A2D6275AB157E345AC4EB562AF4BA5C8A9FFFF397FFFFFFF9DCFC55BF8F6FF8DFC5477E2AD2B5144BB3771E45810D01F1C40D77AE00F8E206BBD7181432126CD51AED58EAE3A301ED01F1C40D77A5FE423BF2168D22A55D5680BF31928B589C165AFC68B589C16
1004
5AF4BA5C8A9FF397FFFFFFFFF9DCFD51BF90B7FC6FE423BF21695A880F8E206BBD7007C71035DEB803E3881AEF5C01F1C40D77A5BB563AB8E8C07B407C71035DE97F8F1DFC11A4549515A0AFCC64A2D6275BBFD3E345AC4EB77FA74BA5C8A9FF3B9FFFFFFFFF9DCFFFFFF1BF8F1DFC12B5101F1C40D77AE0
1004
0F8E206BBD7007C71035DEB8C0A1909366A8D01F1C40D77A580F8E206BBD2FFFF5468D22A562D097E632516B1382FD4F8D16B1382FD4E974B9153FFFE773FFFFFFF3B9FFFFFE37FFF54695A880F8E206BBD7007C71035DEB8EC3B3771E458C83581432126CD51A03E3881AEF4B45286424D9A6DFC5477E2A
1004
D1A4548B0917E632505FA9D914427C682FD4EC8A213A5D2E454FFFFFF9CBFFFCEE7FFE2ADFFFD368DFC5477E2AD2B5144BB3771E45810D01F1C40D77AE00F8E206BBD7181432126CD51A03E3881AEF4B45286424D9A6DFC78EFC7B4691522A82BF319282FD4E0B2D7E3417EA70596BD2E9722A7FCE5FFFFF
1004
FFE773FFF546FFFE3DA37F1E3BF1ED2B5101F1C40D77AE00F8E206BBD7007C71035DEB803E3881AEF4B01F1C40D77A5A29432126CD36FFFE2DA348A9547857E632505FA9D6EFF4F8D05FA9D6EFF4E974B9153FE773FFFFFFF3B9FFFFFFFE37FFF16D2B5101F1C40D77AE00F8E206BBD7007C71035DEB803E
1004
3881AEF4B01F1C40D77A5A29432126CD36FE8CDFD368D22A4A92EBF319282FD4EB77FA7C682FD4EB77FA74BA5C8A9FF3B9FFFFFFF9DCFFFFFFFF1BFA337F4DA56A203E3881AEF5C01F1C40D77AE3B0ECDDC7916320D01F1C40D77A5BB563AB8E8C07B514A19093669B7F211DF90B469152B45568BF3192AD
1004
DFE9D914427C6ADDFE9D9144274BA5C8A9FFFFFF397F9DCFFFFFFFC85BFA6D1BF908EFC85A56A203E3881AEF5C503349A8F3B1AD01F1C40D77AE00F8E206BBD2DDAB1D5C74603DA8A50C849B34DBF8F1DF8F68D22A4A9042FCC64AB77FA75AB157E356EFF4EB562AF4BA5C8A9FFFF397FFF9DCFFFFFFFC7B
1004
7F1ED1BF8F1DF8F695A880F8E206BBD7140CD26A3CEC6B5D8766EE3C8B1906B0286424D9AA35DAB1D5C74603DA8A50C849B34DBFAA0EFE08D22A58C545F98C959144275AB157E359144275AB157A5D2E454FFFF9CBFFFFFFFCE5FEA8DFC7B7F4DA37F541DFC12B5144BB3771E45810D01F1C40D77AE3B0EC
1004
DDC7916320D6050C849B3546BB563AB8E8C07B514A19093669B7FFF1ED1A454B115E4BF3192B22884E0B2D7E359144270596BD2E9722A7FCE5FFFFFF07FFF397FAA37F1EDFD368DFFFC7B4AD4512ECDDC7916043540CD26A3CEC6B407C71035DEB8C0A1909366A8D76AC7571D180F6A29432126CD36FE98E
1004
FE08D22A56EAF35F98C956AC55E0B2D7E356AC55E0B2D7A5D2E454FF9CBFFFFFFFCE5FFFEA8DFC7B7F4DA37F4C77F055E0F12BBB
1005
4A
  0
INSERT
  8
AME_FRZ
  5
4A
  2
AME_NIL
 10
1.0
 20
1.0
 30
1.0
1001
AME_SOL
1004

1005
0
  0
ENDSEC
  0
EOF
