**ABCDEFGHIJKLMNOPQRSTUVWXYZabcdefghijklmnopqrstuvwxyz**************************
**PARASOLID !"#$%&'()*+,-./:;<=>?@[\]^_`{|}~0123456789**************************
**PART1;MC=sun;MC_MODEL=Sun-3;MC_ID=unknown;OS=SunOS;OS_RELEASE=unknown;FRU=sdl_
parasolid_test_sun;APPL=unknown;SITE=sdl-cambridge-u.k.;USER=kramer;FORMAT=text;
GUISE=transmit;KEY=intermediate_5;FILE=intermediate_5.xmt_txt;DATE=16-oct-1990;
**PART2;SCH=SCH_210_1012;USFLD_SIZE=0;
**PART3;
**END_OF_HEADER*****************************************************************
T47 : TRANSMIT FILE created by modeller version 22012 SCH_210_10120 12 1 1466 0
 0 0 0 0 1e3 1e-8 2 2 0 0 3 1 4 102 14 2 intermediate_513 4 2 0 1 0 5 6 7 8 9 10
 14 5 1268 0 11 0 12 4 8 -16 6 1302 0 13 0 14 9 18 7 1343 0 15 0 16 10 50 8 1372
 0 5 17 0 0 +1.53 3.815 .48 0 -1 0 30 9 1390 0 6 18 0 0 +3.06 3.815 .4 0 0 1 29
 10 1431 0 7 19 0 3.06 3.815 .5 29 19 1432 0 16 20 10 2.918276427503165 3.815 .5
 18 16 1344 0 21 7 22 19 29 20 1433 0 22 23 19 3.06 3.908257569495585 .48 18 22
 1345 0 24 16 25 20 29 23 1434 0 25 26 20 0 4.99 .48 18 25 1346 0 27 22 28 23 29
 26 1436 0 28 29 23 2.918276427503165 3.815 .48 18 28 1348 0 30 25 31 26 29 29 1
437 0 31 32 26 0 3.815 .48 18 31 1349 0 33 28 34 29 29 32 1440 0 34 35 29 0 3.81
5 1.5 18 34 1352 0 36 31 37 32 29 35 1441 0 37 38 32 3.06 3.815 1.5 18 37 1353 0
 13 34 39 35 29 38 1194 0 39 40 35 3.06 4.99 .48 18 39 1192 0 41 37 42 38 29 40
 1156 0 42 43 38 2.918276427503165 1.175 .5 18 42 1068 0 44 39 45 40 29 43 1157
 0 45 46 40 3.06 1.175 .5 18 45 1069 0 47 42 48 43 29 46 1158 0 48 49 43 3.06 1.
081742430504416 .48 18 48 1070 0 50 45 51 46 29 49 1160 0 51 52 46 2.91827642750
3165 1.175 .48 18 51 1072 0 53 48 54 49 29 52 1161 0 54 55 49 3.06 1.175 1.5 18
 54 1073 0 56 51 57 52 29 55 1162 0 57 58 52 0 1.175 1.5 18 57 1074 0 59 54 60 5
5 29 58 1165 0 60 61 55 3.06 0 .48 18 60 1077 0 62 57 63 58 29 61 1166 0 63 64 5
8 0 0 .48 18 63 1078 0 65 60 66 61 29 64 927 0 66 67 61 0 1.175 .48 18 66 925 0
 68 63 69 64 29 67 869 0 69 70 64 3.06 3.53784271247462 .5 18 69 751 0 71 66 72
 67 29 70 870 0 72 73 67 3.06 3.53784271247462 1.24 18 72 752 0 74 69 75 70 29 7
3 871 0 75 76 70 3.06 1.45215728752538 1.24 18 75 753 0 77 72 78 73 29 76 873 0
 78 79 73 3.06 1.45215728752538 .5 18 78 755 0 80 75 81 76 29 79 876 0 81 82 76
 3.26 3.95 .4 18 81 758 0 83 78 84 79 29 82 877 0 84 85 79 3.26 1.04 .4 18 84 75
9 0 86 81 87 82 29 85 878 0 87 88 82 3.06 0 .4 18 87 760 0 89 84 90 85 29 88 879
 0 90 91 85 3.06 1.081742430504416 .4 18 90 761 0 92 87 93 88 29 91 880 0 93 94
 88 3.06 3.908257569495585 .4 18 93 762 0 95 90 96 91 29 94 881 0 96 97 91 3.06
 4.99 .4 18 96 763 0 98 93 99 94 29 97 882 0 99 100 94 5.26 4.99 .4 18 99 764 0
 101 96 102 97 29 100 884 0 102 103 97 5.26 1.04 .4 18 102 766 0 104 99 105 100
 29 103 885 0 105 106 100 5.26 0 .4 18 105 767 0 107 102 108 103 29 106 507 0 10
8 109 103 5.26 3.95 .4 18 108 505 0 110 105 111 106 29 109 480 0 111 112 106 2.7
71149307047645 3.555 .5 18 111 398 0 113 108 114 109 29 112 481 0 114 115 109 2.
771149307047645 3.555 0 18 114 399 0 116 111 117 112 29 115 482 0 117 118 112 2.
96 3.555 .5 18 117 400 0 119 114 120 115 29 118 483 0 120 121 115 2.771149307047
645 1.435 .5 18 120 401 0 122 117 123 118 29 121 484 0 123 124 118 2.96 1.435 .5
 18 123 402 0 125 120 126 121 29 124 486 0 126 127 121 .56 3.555 0 18 126 404 0
 128 123 129 124 29 127 488 0 129 130 124 .26 1.735 0 18 129 406 0 131 126 132 1
27 29 130 489 0 132 133 127 .26 3.255 0 18 132 407 0 134 129 135 130 29 133 492
 0 135 136 130 .26 3.255 1.24 18 135 410 0 137 132 138 133 29 136 493 0 138 139
 133 .26 1.735 1.24 18 138 411 0 140 135 141 136 29 139 494 0 141 142 136 2.96 3
.555 1.24 18 141 412 0 143 138 144 139 29 142 495 0 144 145 139 .56 3.555 1.24 1
8 144 413 0 146 141 147 142 29 145 499 0 147 148 142 .56 1.435 0 18 147 417 0 14
9 144 150 145 29 148 500 0 150 151 145 .56 1.435 1.24 18 150 418 0 152 147 153 1
48 29 151 501 0 153 154 148 2.96 1.435 1.24 18 153 419 0 155 150 156 151 29 154
 259 0 156 157 151 2.771149307047645 1.435 0 18 156 257 0 158 153 159 154 29 157
 229 0 159 160 154 5.26 3.95 0 18 159 163 0 161 156 162 157 29 160 232 0 162 163
 157 5.26 1.04 0 18 162 166 0 164 159 165 160 29 163 233 0 165 166 160 3.26 3.95
 0 18 165 167 0 167 162 168 163 29 166 246 0 168 169 163 3.26 1.04 0 18 168 180
 0 170 165 171 166 29 169 38 0 172 173 166 0 0 0 18 172 8 0 174 175 176 169 29 1
73 37 0 175 177 169 0 4.99 0 18 175 10 0 178 171 172 173 29 177 36 0 171 179 173
 5.26 4.99 0 18 171 12 0 180 168 175 177 29 179 35 0 176 0 177 5.26 0 0 18 176 7
 0 181 172 0 179 17 181 182 183 184 176 185 186 15 182 939 0 65 187 0 17 183 182
 89 181 105 188 189 17 184 182 181 65 172 190 191 17 185 192 193 194 172 181 186
 16 186 9 0 181 195 196 197 16 195 11 0 174 198 186 199 16 196 3 0 200 186 0 201
 30 197 39 0 186 0 201 0 +2.63 0 0 1 0 0 30 201 40 0 196 197 202 0 +5.26 2.495 0
 0 1 0 30 202 41 0 198 201 199 0 +2.63 4.99 0 -1 0 0 16 198 13 0 178 189 195 202
 30 199 42 0 195 202 203 0 +0 2.495 0 0 -1 0 30 203 47 0 189 199 204 0 +5.26 0 0
 0 0 1 16 189 15 0 183 205 198 203 30 204 48 0 205 203 206 0 +5.26 4.99 0 0 0 1
 16 205 17 0 207 208 189 204 30 206 49 0 208 204 209 0 +0 4.99 0 0 0 1 16 208 19
 0 210 191 205 206 30 209 50 0 191 206 211 0 +0 0 0 0 0 1 16 191 21 0 190 212 20
8 209 30 211 67 0 212 209 213 0 +5.26 2.495 0 0 1 0 16 212 65 0 180 214 191 211
 30 213 227 0 214 211 215 0 +4.51 1.04 0 1 0 0 16 214 161 0 164 216 212 213 31 2
15 212 0 216 213 217 0 +3.26 1.54 0 0 0 -1 .5 16 216 146 0 218 219 214 215 30 21
7 208 0 219 215 220 0 +3.26 3.95 0 0 0 1 16 219 142 0 221 222 216 217 30 220 199
 0 222 217 223 0 +4.51 3.95 0 -1 0 0 16 222 133 0 167 224 219 220 30 223 197 0 2
24 220 225 0 +5.26 3.95 0 0 0 1 16 224 131 0 226 227 222 223 31 225 256 0 227 22
3 228 0 +3.26 3.45 0 0 0 -1 .5 16 227 254 0 229 230 224 225 31 228 285 0 230 225
 231 0 +3.26 1.54 .5 0 0 1 .5 16 230 283 0 232 233 227 228 30 231 318 0 233 228
 234 0 +2.771149307047645 1.435 0 0 0 1 16 233 316 0 235 236 230 231 30 234 475
 0 236 231 237 0 +1.76 1.435 1.24 -1 0 0 16 236 393 0 238 239 233 234 30 237 474
 0 239 234 240 0 +1.76 1.435 0 1 0 0 16 239 392 0 158 241 236 237 30 240 473 0 2
41 237 242 0 +.56 1.435 0 0 0 -1 16 241 391 0 243 244 239 240 30 242 470 0 244 2
40 245 0 +1.76 3.555 1.24 1 0 0 16 244 388 0 246 247 241 242 30 245 469 0 247 24
2 248 0 +.26 2.495 1.24 0 1 0 16 247 387 0 249 250 244 245 31 248 468 0 250 245
 251 0 +.56 1.735 1.24 0 0 1 .3 16 250 386 0 252 253 247 248 31 251 467 0 253 24
8 254 0 +.56 3.255 1.24 0 0 1 .3 16 253 385 0 255 256 250 251 31 254 465 0 256 2
51 257 0 +2.96 1.735 1.24 0 0 1 .3 16 256 383 0 258 259 253 254 30 257 461 0 259
 254 260 0 +.26 2.495 0 0 -1 0 16 259 379 0 131 261 256 257 31 260 459 0 261 257
 262 0 +.56 1.735 0 0 0 -1 .3 16 261 377 0 263 264 259 260 31 262 458 0 264 260
 265 0 +.56 3.255 0 0 0 -1 .3 16 264 376 0 266 267 261 262 30 265 455 0 267 262
 268 0 +.56 3.555 0 0 0 1 16 267 373 0 269 270 264 265 30 268 454 0 270 265 271
 0 +2.96 3.555 0 0 0 -1 16 270 372 0 272 273 267 268 30 271 453 0 273 268 274 0
 +.26 1.735 0 0 0 1 16 273 371 0 275 276 270 271 30 274 452 0 276 271 277 0 +.26
 3.255 0 0 0 -1 16 276 370 0 278 279 273 274 30 277 450 0 279 274 280 0 +2.96 1.
435 0 0 0 1 16 279 368 0 281 282 276 277 30 280 449 0 282 277 283 0 +4.51 1.435
 .5 1 0 0 16 282 367 0 125 284 279 280 30 283 446 0 284 280 285 0 +1.76 3.555 0
 -1 0 0 16 284 364 0 128 286 282 283 30 285 445 0 286 283 287 0 +4.51 3.555 .5 -
1 0 0 16 286 363 0 113 288 284 285 30 287 444 0 288 285 289 0 -2.771149307047645
 3.555 0 0 0 1 16 288 362 0 116 290 286 287 31 289 440 0 290 287 291 0 +2.96 1.7
35 .5 0 0 1 .3 16 290 358 0 292 293 288 289 30 291 520 0 293 289 294 0 +5.26 1.0
4 0 0 0 -1 16 293 518 0 295 296 290 291 30 294 565 0 296 291 297 0 +3.26 1.04 0
 0 0 -1 16 296 563 0 298 299 293 294 31 297 574 0 299 294 300 0 +2.96 3.255 .5 0
 0 1 .3 16 299 572 0 119 301 296 297 30 300 603 0 301 297 302 0 +4.51 3.95 .4 -1
 0 0 16 301 601 0 83 303 299 300 31 302 627 0 303 300 304 0 +2.96 3.255 1.24 0 0
 1 .3 16 303 625 0 305 306 301 302 30 304 837 0 306 302 307 0 +5.26 2.495 .4 0 1
 0 16 306 719 0 308 309 303 304 30 307 835 0 309 304 310 0 +5.26 2.495 .4 0 1 0
 16 309 717 0 311 312 306 307 30 310 833 0 312 307 313 0 +3.06 2.495 .4 0 -1 0 1
6 312 715 0 314 315 309 310 30 313 831 0 315 310 316 0 +3.06 2.495 .4 0 -1 0 16
 315 713 0 317 318 312 313 30 316 829 0 318 313 319 0 +2.63 4.99 .4 -1 0 0 16 31
8 711 0 320 321 315 316 30 319 828 0 321 316 322 0 +2.63 0 .4 1 0 0 16 321 710 0
 323 324 318 319 30 322 827 0 324 319 325 0 +4.51 1.04 .4 1 0 0 16 324 709 0 104
 326 321 322 31 325 826 0 326 322 327 0 -3.26 1.54 .4 0 0 -1 .5 16 326 708 0 86
 328 324 325 31 327 824 0 328 325 329 0 -3.26 3.45 .4 0 0 -1 .5 16 328 706 0 95
 330 326 327 30 329 818 0 330 327 331 0 +3.06 4.99 0 0 0 1 16 330 700 0 332 333
 328 329 30 331 816 0 333 329 334 0 +3.06 2.495 .5 0 -1 0 16 333 698 0 335 336 3
30 331 30 334 814 0 336 331 337 0 -3.06 1.45215728752538 0 0 0 1 16 336 696 0 80
 338 333 334 30 337 813 0 338 334 339 0 +3.06 2.495 1.24 0 -1 0 16 338 695 0 77
 340 336 337 30 339 812 0 340 337 341 0 +3.06 3.53784271247462 0 0 0 1 16 340 69
4 0 74 342 338 339 30 341 810 0 342 339 343 0 +3.06 3.908257569495585 0 0 0 1 16
 342 692 0 344 345 340 341 30 343 924 0 345 341 346 0 +0 2.495 1.5 0 1 0 16 345
 922 0 347 348 342 343 30 346 931 0 348 343 349 0 +0 1.175 0 0 0 -1 16 348 929 0
 350 351 345 346 30 349 937 0 351 346 352 0 +3.06 0 0 0 0 -1 16 351 935 0 353 35
4 348 349 30 352 946 0 354 349 355 0 +3.06 2.495 1.5 0 1 0 16 354 944 0 356 357
 351 352 30 355 968 0 357 352 358 0 -3.06 1.081742430504416 0 0 0 1 16 357 966 0
 92 359 354 355 30 358 1131 0 359 355 360 0 +1.53 0 .48 1 0 0 16 359 1043 0 361
 362 357 358 30 360 1125 0 362 358 363 0 +1.53 1.175 1.5 1 0 0 16 362 1037 0 56
 364 359 360 30 363 1121 0 364 360 365 0 +1.53 1.175 .48 -1 0 0 16 364 1033 0 36
6 367 362 363 30 365 1119 0 367 363 368 0 +0 2.495 .48 0 -1 0 16 367 1031 0 369
 370 364 365 31 368 1118 0 370 365 371 0 -3.26 1.54 .48 0 0 -1 .5 16 370 1030 0
 50 372 367 368 30 371 1117 0 372 368 373 0 +3.06 2.495 .48 0 -1 0 16 372 1029 0
 62 374 370 371 30 373 1115 0 374 371 375 0 +4.51 1.175 .5 -1 0 0 16 374 1027 0
 44 376 372 373 30 375 1114 0 376 373 377 0 -2.918276427503165 1.175 0 0 0 1 16
 376 1026 0 53 378 374 375 30 377 1113 0 378 375 379 0 +3.06 1.175 .4 0 0 -1 16
 378 1025 0 47 380 376 377 31 379 1234 0 380 377 381 0 +3.26 3.45 .5 0 0 1 .5 16
 380 1232 0 382 383 378 379 30 381 1247 0 383 379 384 0 +3.06 2.495 .5 0 -1 0 16
 383 1245 0 71 385 380 381 30 384 1260 0 385 381 386 0 +3.06 2.495 .48 0 -1 0 16
 385 1258 0 387 388 383 384 30 386 1406 0 388 384 389 0 +1.53 3.815 1.5 -1 0 0 1
6 388 1318 0 36 390 385 386 30 389 1400 0 390 386 391 0 +1.53 3.815 .48 1 0 0 16
 390 1312 0 392 393 388 389 30 391 1398 0 393 389 394 0 +1.53 4.99 .48 -1 0 0 16
 393 1310 0 395 396 390 391 30 394 1396 0 396 391 397 0 +0 2.495 .48 0 -1 0 16 3
96 1308 0 398 399 393 394 31 397 1395 0 399 394 400 0 -3.26 3.45 .48 0 0 -1 .5 1
6 399 1307 0 30 401 396 397 30 400 1393 0 401 397 402 0 +0 3.815 0 0 0 1 16 401
 1305 0 403 404 399 400 30 402 1392 0 404 400 18 0 +2.918276427503165 3.815 0 0
 0 1 16 404 1304 0 21 14 401 402 30 18 1391 0 14 402 9 0 +4.51 3.815 .5 1 0 0 16
 14 1303 0 15 6 404 18 17 15 405 71 406 7 407 14 15 405 588 0 406 408 0 17 71 40
5 119 15 69 409 383 17 406 405 15 113 16 382 380 17 407 12 410 411 16 15 14 15 1
2 1269 0 407 5 0 17 410 12 412 407 28 21 404 17 411 12 407 413 7 13 6 17 413 12
 411 403 37 36 388 17 13 414 415 409 37 411 6 15 414 979 0 409 416 0 17 415 414
 47 13 54 356 354 17 409 414 13 417 7 71 383 17 417 414 409 418 69 74 340 17 418
 414 417 419 72 77 338 17 74 420 305 421 72 417 340 15 420 325 0 421 422 0 17 30
5 420 272 74 141 423 303 17 421 420 74 272 69 119 299 17 272 420 421 305 117 143
 270 17 119 405 113 71 117 421 299 17 113 405 406 119 111 424 286 17 424 425 143
 426 117 113 286 15 425 331 0 424 427 0 17 143 425 428 424 141 272 270 17 426 42
5 424 429 111 116 288 17 429 425 426 430 114 128 284 17 116 431 229 382 114 426
 288 15 431 114 0 344 432 0 17 229 431 221 116 165 433 227 17 382 431 116 21 111
 406 380 17 21 431 382 30 16 410 404 17 30 431 21 344 28 24 399 17 344 431 30 95
 22 434 342 17 24 435 436 392 22 30 399 15 435 1273 0 395 11 0 17 436 435 395 24
 39 387 385 17 392 435 24 398 28 412 390 17 398 435 392 395 31 27 396 17 412 12
 403 410 31 392 390 17 403 12 413 412 34 33 401 17 33 437 27 347 31 403 401 15 4
37 1214 0 27 438 0 17 27 437 439 33 25 398 396 17 347 437 33 440 34 441 345 17 4
40 437 347 68 57 350 348 17 441 442 56 36 57 347 345 15 442 1223 0 36 443 0 17 5
6 442 356 441 54 59 362 17 36 442 441 356 34 413 388 17 356 442 36 56 37 415 354
 17 59 444 350 445 57 56 362 15 444 990 0 59 446 0 17 350 444 447 59 66 440 348
 17 445 444 59 448 54 47 378 17 448 444 445 449 45 44 374 17 47 414 450 415 45 4
45 378 17 450 414 419 47 78 335 333 17 419 414 418 450 75 80 336 17 335 451 44 2
92 45 450 333 15 451 128 0 335 452 0 17 44 451 453 335 42 448 374 17 292 451 335
 125 78 454 290 17 125 451 292 453 123 122 282 17 454 455 281 80 123 292 290 15
 455 327 0 258 456 0 17 281 455 258 454 153 457 279 17 80 455 454 258 78 419 336
 17 258 455 80 281 75 155 256 17 155 458 238 77 153 258 256 15 458 351 0 423 459
 0 17 238 458 140 155 150 460 236 17 77 458 155 423 75 418 338 17 423 458 77 246
 72 305 303 17 246 458 423 146 141 428 244 17 146 458 246 249 144 255 253 17 428
 425 430 143 144 246 244 17 430 425 429 428 126 269 267 17 269 461 255 266 144 4
30 267 15 461 337 0 266 462 0 17 255 461 278 269 135 146 253 17 266 461 269 278
 126 134 264 17 278 461 266 255 132 137 276 17 134 192 131 128 132 266 264 15 19
2 278 0 128 463 0 17 131 192 149 134 129 464 259 17 128 192 134 433 126 429 284
 17 433 192 128 167 114 229 227 17 167 192 433 465 165 466 222 17 465 192 167 46
7 159 180 212 17 466 468 226 469 159 167 222 15 468 122 0 226 470 0 17 226 468 8
3 466 108 161 224 17 469 468 466 83 165 221 219 17 83 468 469 226 81 471 301 17
 221 431 95 229 81 469 219 17 95 431 344 221 93 472 328 17 472 473 471 314 81 95
 328 15 473 661 0 471 474 0 17 471 473 311 472 108 83 301 17 314 473 472 320 93
 475 312 17 320 473 314 311 96 101 318 17 475 476 332 434 96 314 312 15 476 1254
 0 332 477 0 17 332 476 387 475 39 98 330 17 434 476 475 387 93 344 342 17 387 4
76 434 332 22 436 385 17 98 478 101 41 96 332 330 15 478 1201 0 41 479 0 17 101
 478 480 98 99 320 318 17 41 478 98 210 39 395 393 17 210 478 41 178 25 439 208
 17 395 435 398 436 25 41 393 17 178 478 210 480 175 467 198 17 439 437 174 27 1
75 210 208 17 174 437 190 439 172 193 195 17 190 437 68 174 63 184 191 17 193 19
2 467 185 175 174 195 17 467 192 465 193 171 178 198 17 68 437 440 190 66 369 36
7 17 369 481 361 366 63 68 367 15 481 994 0 482 483 0 17 361 481 484 369 60 65 3
59 17 366 481 369 482 66 447 364 17 482 481 366 484 51 50 370 17 447 444 449 350
 51 366 364 17 449 444 448 447 42 53 376 17 53 485 50 232 51 449 376 15 485 112
 0 232 486 0 17 50 485 92 53 48 482 370 17 232 485 53 235 42 453 230 17 235 485
 232 218 120 487 233 17 453 451 125 44 120 232 230 17 218 485 235 298 156 170 21
6 17 487 488 489 122 156 235 233 15 488 333 0 489 490 0 17 489 488 152 487 147 1
58 239 17 122 488 487 457 120 125 282 17 457 488 122 460 123 281 279 17 460 488
 457 152 153 238 236 17 152 488 460 489 150 243 241 17 243 491 263 252 147 152 2
41 15 491 335 0 263 492 0 17 263 491 275 243 129 149 261 17 252 491 243 275 150
 140 250 17 275 491 252 263 138 493 273 17 140 458 249 238 138 252 250 17 249 45
8 146 140 135 494 247 17 494 495 493 137 138 249 247 15 495 343 0 494 496 0 17 4
93 495 464 494 129 275 273 17 137 495 494 464 135 278 276 17 464 495 137 493 132
 131 259 14 496 342 0 459 462 495 4 497 -14 459 350 0 486 496 458 4 498 -14 462
 336 0 496 492 461 4 499 -50 497 430 0 496 498 499 0 +.26 2.495 0 -1 0 0 50 498
 434 0 459 500 497 0 +1.76 2.495 1.24 0 0 1 51 499 427 0 462 497 501 0 +.56 3.25
5 0 0 0 1 .3 51 501 426 0 492 499 502 0 +.56 1.735 0 0 0 1 .3 14 492 334 0 462 4
90 491 4 501 -50 502 425 0 490 501 503 0 +1.76 1.435 0 0 -1 0 14 490 332 0 492 4
27 488 4 502 -50 503 424 0 427 502 504 0 +1.76 3.555 0 0 1 0 14 427 330 0 490 45
6 425 4 503 -51 504 422 0 456 503 505 0 +2.96 1.735 0 0 0 1 .3 14 456 326 0 427
 422 455 4 504 -51 505 421 0 422 504 506 0 +2.96 3.255 0 0 0 1 .3 14 422 324 0 4
56 507 420 4 505 -50 506 525 0 507 505 508 0 +5.26 2.495 0 1 0 0 14 507 524 0 42
2 408 509 4 506 +50 508 591 0 408 506 510 0 +4.51 2.495 .5 0 0 1 14 408 590 0 50
7 511 405 4 508 -50 510 795 0 511 508 512 0 +4.16 2.495 .4 0 0 -1 14 511 662 0 4
08 474 513 4 510 -50 512 794 0 474 510 514 0 +4.16 2.495 .4 0 0 -1 14 474 660 0
 511 515 473 4 512 -50 514 788 0 515 512 516 0 +3.06 2.495 .4 -1 0 0 14 515 648
 0 474 416 517 4 514 -50 516 982 0 416 514 518 0 +3.06 2.495 .4 -1 0 0 14 416 98
1 0 515 483 414 4 516 -50 518 1097 0 483 516 519 0 +1.53 .5875 .48 0 0 -1 14 483
 993 0 416 446 481 4 518 -50 519 1095 0 446 518 520 0 +1.53 1.175 .48 0 1 0 14 4
46 989 0 483 477 444 4 519 -50 520 1257 0 477 519 17 0 +3.06 2.495 .4 -1 0 0 14
 477 1256 0 446 11 476 4 520 -50 17 1374 0 11 520 8 0 +1.53 4.4025 .48 0 0 -1 14
 11 1272 0 477 5 435 4 17 -15 517 649 0 521 515 0 17 521 517 62 522 48 92 357 17
 62 517 353 521 60 484 372 17 522 517 521 353 90 317 315 17 92 485 86 50 90 521
 357 17 86 485 298 92 84 523 326 17 298 485 218 86 168 524 296 17 523 513 317 52
5 90 86 326 15 513 663 0 317 511 0 17 317 513 323 523 87 522 315 17 525 513 523
 308 84 104 324 17 308 513 525 323 102 107 306 17 104 526 295 524 102 525 324 15
 526 130 0 524 527 0 17 295 526 528 104 162 529 293 17 524 526 104 528 84 298 29
6 17 528 526 524 295 168 164 214 17 164 192 194 170 162 528 214 17 194 192 185 1
64 176 200 196 17 170 192 164 158 168 218 216 17 158 192 170 149 156 489 239 17
 149 192 158 131 147 263 261 17 200 509 529 188 162 194 196 15 509 527 0 107 507
 0 17 529 509 107 200 102 295 293 17 188 509 200 107 176 183 189 17 107 509 188
 529 105 308 306 14 527 129 0 443 452 526 4 530 -14 443 33 0 187 527 442 4 531 +
14 452 127 0 527 470 451 4 532 -50 530 196 0 527 531 532 0 +4.51 1.04 0 0 -1 0 5
0 531 51 0 443 533 530 0 +2.63 2.495 1.5 0 0 1 50 532 195 0 452 530 534 0 +4.51
 2.495 .5 0 0 1 50 534 192 0 470 532 535 0 +4.51 3.95 0 0 1 0 14 470 121 0 452 4
32 468 4 534 -51 535 188 0 432 534 500 0 +3.26 3.45 0 0 0 1 .5 14 432 113 0 470
 486 431 4 535 -51 500 187 0 486 535 498 0 +3.26 1.54 0 0 0 1 .5 14 486 111 0 43
2 459 485 4 500 -50 533 46 0 187 536 531 0 +2.63 0 0 0 -1 0 14 187 30 0 438 443
 182 4 533 +50 536 45 0 438 537 533 0 +0 2.495 0 -1 0 0 14 438 27 0 479 187 437
 4 536 +50 537 44 0 479 538 536 0 +2.63 4.99 0 0 1 0 14 479 24 0 463 438 478 4 5
37 +50 538 43 0 539 540 537 0 +5.26 2.495 0 1 0 0 14 539 1 0 0 463 541 4 538 +50
 540 34 0 463 0 538 0 +2.63 2.495 0 0 0 -1 14 463 6 0 539 479 192 4 540 +15 541
 522 0 110 539 0 17 110 541 161 207 108 311 309 17 161 541 180 110 159 226 224 1
7 207 541 110 180 99 480 205 17 311 473 320 471 99 110 309 17 180 541 207 161 17
1 465 212 17 480 478 178 101 171 207 205 17 323 513 308 317 105 89 321 17 89 182
 542 183 87 323 321 17 542 182 65 89 60 353 351 17 65 182 184 542 63 361 359 17
 353 517 522 62 87 542 351 17 484 481 482 361 48 62 372 1 0 
