**ABCDEFGHIJKLMNOPQRSTUVWXYZabcdefghijklmnopqrstuvwxyz**************************
**PARASOLID !"#$%&'()*+,-./:;<=>?@[\]^_`{|}~0123456789**************************
**PART1;MC=sun;MC_MODEL=Sun-3;MC_ID=unknown;OS=SunOS;OS_RELEASE=unknown;FRU=sdl_
parasolid_test_sun;APPL=unknown;SITE=sdl-cambridge-u.k.;USER=kramer;FORMAT=text;
GUISE=transmit;KEY=removed_1;FILE=removed_1.xmt_txt;DATE=16-oct-1990;
**PART2;SCH=SCH_210_1012;USFLD_SIZE=0;
**PART3;
**END_OF_HEADER*****************************************************************
T47 : TRANSMIT FILE created by modeller version 22012 SCH_210_10120 12 1 411 0 0
 0 0 0 1e3 1e-8 2 2 0 3 0 1 4 102 9 2 removed_113 4 2 0 1 0 5 6 7 8 9 10 14 5 31
9 0 11 0 12 4 8 +16 6 326 0 13 0 14 9 18 7 347 0 15 0 16 10 50 8 365 0 5 17 0 0
 +5.26 2.495 0 1 0 0 30 9 372 0 6 18 0 0 +5.26 3.95 0 0 0 -1 29 10 393 0 7 19 0
 5.26 3.95 .5 29 19 395 0 16 20 10 5.26 3.95 0 18 16 349 0 13 7 21 19 29 20 396
 0 21 22 19 5.26 1.04 0 18 21 350 0 23 16 24 20 29 22 274 0 24 25 20 5.26 1.04 .
5 18 24 272 0 26 21 27 22 29 25 166 0 27 28 22 3.26 3.95 0 18 27 164 0 29 24 30
 25 29 28 158 0 30 31 25 2.76 1.54 0 18 30 156 0 32 27 33 28 29 31 154 0 33 34 2
8 2.76 3.45 0 18 33 152 0 35 30 36 31 29 34 112 0 36 37 31 2.76 3.45 .5 18 36 11
0 0 38 33 39 34 29 37 108 0 39 40 34 2.76 1.54 .5 18 39 106 0 41 36 42 37 29 40
 100 0 42 43 37 3.26 3.95 .5 18 42 98 0 44 39 45 40 29 43 74 0 45 46 40 3.26 1.0
4 0 18 45 72 0 47 42 48 43 29 46 70 0 48 0 43 3.26 1.04 .5 18 48 68 0 49 45 0 46
 17 49 50 41 47 48 51 52 15 50 257 0 47 53 0 17 41 50 32 49 39 54 55 17 47 50 49
 32 45 56 57 17 51 58 59 60 45 49 52 16 52 80 0 51 61 62 63 16 61 99 0 64 65 52
 66 16 62 73 0 59 52 0 67 30 63 82 0 52 67 66 0 +3.26 1.04 0 0 0 -1 30 67 75 0 6
2 0 63 0 +4.51 1.04 0 1 0 0 30 66 101 0 61 63 68 0 +4.51 3.95 .5 1 0 0 30 68 109
 0 65 66 69 0 +2.76 2.495 .5 0 1 0 16 65 107 0 70 55 61 68 31 69 116 0 55 68 71
 0 +3.26 1.54 .5 0 0 1 .5 16 55 114 0 54 72 65 69 31 71 121 0 72 69 73 0 +3.26 3
.45 .5 0 0 1 .5 16 72 119 0 74 75 55 71 30 73 155 0 75 71 76 0 +2.76 2.495 0 0 -
1 0 16 75 153 0 77 57 72 73 31 76 170 0 57 73 78 0 +3.26 1.54 0 0 0 -1 .5 16 57
 168 0 56 79 75 76 31 78 175 0 79 76 80 0 +3.26 3.45 0 0 0 -1 .5 16 79 173 0 81
 82 57 78 30 80 190 0 82 78 83 0 +3.26 3.95 0 0 0 1 16 82 188 0 84 85 79 80 30 8
3 200 0 85 80 86 0 +2.76 1.54 0 0 0 1 16 85 198 0 87 88 82 83 30 86 205 0 88 83
 89 0 +2.76 3.45 0 0 0 -1 16 88 203 0 90 91 85 86 30 89 275 0 91 86 92 0 +4.51 1
.04 .5 -1 0 0 16 91 273 0 60 93 88 89 30 92 287 0 93 89 94 0 +5.26 2.495 .5 0 1
 0 16 93 285 0 15 95 91 92 30 94 293 0 95 92 96 0 +4.51 3.95 0 -1 0 0 16 95 291
 0 97 98 93 94 30 96 376 0 98 94 18 0 +5.26 2.495 0 0 1 0 16 98 330 0 99 14 95 9
6 30 18 374 0 14 96 9 0 +5.26 1.04 0 0 0 1 16 14 328 0 26 6 98 18 17 26 58 60 59
 24 100 14 15 58 29 0 59 101 0 17 60 58 51 26 48 102 91 17 59 58 26 51 21 103 62
 17 100 12 99 104 21 26 14 15 12 320 0 105 5 0 17 99 12 105 100 16 23 98 17 104
 12 100 105 24 15 93 17 105 12 104 99 7 13 6 17 15 106 107 102 7 104 93 15 106 3
2 0 102 108 0 17 107 106 74 15 42 64 61 17 102 106 15 54 24 60 91 17 54 106 102
 109 48 41 55 17 109 106 54 74 39 70 65 17 74 106 109 107 36 44 72 17 70 110 90
 87 36 109 65 15 110 26 0 70 111 0 17 90 110 77 70 33 38 88 17 87 110 70 77 39 3
2 85 17 77 110 87 90 30 112 75 17 32 50 47 41 30 87 85 17 112 113 81 56 33 77 75
 15 113 5 0 114 115 0 17 81 113 114 112 27 35 79 17 56 113 112 103 30 47 57 17 1
03 113 56 23 45 59 62 17 23 113 103 114 21 99 98 17 114 113 23 81 16 97 95 17 97
 116 84 13 27 114 95 15 116 23 0 64 11 0 17 84 116 64 97 42 29 82 17 13 116 97 6
4 16 105 6 17 64 116 13 84 7 107 61 17 29 117 35 44 27 84 82 15 117 242 0 35 118
 0 17 35 117 38 29 33 81 79 17 44 117 29 38 42 74 72 17 38 117 44 35 36 90 88 14
 118 241 0 111 53 117 4 119 +14 111 206 0 0 118 110 4 120 +14 53 256 0 118 101 5
0 4 121 +51 119 251 0 118 120 121 0 +3.26 3.45 0 0 0 1 .5 50 120 207 0 111 0 119
 0 +2.76 2.495 0 -1 0 0 51 121 266 0 53 119 122 0 +3.26 1.54 0 0 0 1 .5 50 122 2
80 0 101 121 123 0 +4.51 1.04 0 0 -1 0 14 101 279 0 53 108 58 4 122 +50 123 289
 0 108 122 124 0 +4.51 2.495 .5 0 0 1 14 108 288 0 101 115 106 4 123 +50 124 298
 0 115 123 17 0 +4.51 2.495 0 0 0 -1 14 115 297 0 108 11 113 4 124 +50 17 303 0
 11 124 8 0 +4.51 3.95 0 0 1 0 14 11 302 0 115 5 116 4 17 +1 0 
