700 0 2 0           
24 FBMach with ACIS - 7.0.3 13 ACIS 7.0.3 NT 24 Tue May 14 14:31:10 2002 
1 9.9999999999999995e-007 1e-010 
body $2 -1 $-1 $3 $-1 $4 #
bdycol-kcp $-1 -1 1 4 $5 $6 $7 $8 #
model_id-kcp-attrib $-1 -1 $9 $-1 $0 1 1021401069 1021401069 -1022820351 1 #
lump $-1 -1 $-1 $-1 $10 $0 #
transform $-1 -1 1 0 0 0 1 0 0 0 1 0 0 0 1 rotate no_reflect no_shear #
body $11 -1 $-1 $12 $-1 $13 #
body $14 -1 $-1 $15 $-1 $16 #
body $17 -1 $-1 $18 $-1 $19 #
body $20 -1 $-1 $21 $-1 $22 #
aggregate_advspl_attribute-aggregate_geombuild_base_attribute-aggregate_body_attribute-attrib_HH-attrib $-1 -1 $23 $2 $0 F #
shell $-1 -1 $-1 $-1 $-1 $24 $-1 $3 #
model_id-kcp-attrib $-1 -1 $-1 $-1 $5 1 1021401069 1021401069 -1022820350 1 #
lump $-1 -1 $-1 $-1 $25 $5 #
transform $-1 -1 1 0 0 0 1 0 0 0 1 0 0 -0.38 1 no_rotate no_reflect no_shear #
rgb_color-st-attrib $-1 -1 $26 $-1 $6 0.5 1 1 #
lump $-1 -1 $-1 $-1 $27 $6 #
transform $-1 -1 1 0 0 0 1 0 0 0 1 0 0 -0.37 1 no_rotate no_reflect no_shear #
rgb_color-st-attrib $-1 -1 $28 $-1 $7 1 0.5 1 #
lump $-1 -1 $-1 $-1 $29 $7 #
transform $-1 -1 1 0 0 0 1 0 0 0 1 0 0 -0.38 1 no_rotate no_reflect no_shear #
rgb_color-st-attrib $-1 -1 $30 $-1 $8 0.5 1 1 #
lump $-1 -1 $-1 $-1 $31 $8 #
transform $-1 -1 1 0 0 0 1 0 0 0 1 0 0 -0.38 1 no_rotate no_reflect no_shear #
aggregate_secndry_attribute-aggregate_geombuild_base_attribute-aggregate_body_attribute-attrib_HH-attrib $-1 -1 $32 $9 $0 F #
face $33 -1 $-1 $34 $35 $10 $-1 $36 forward single #
shell $-1 -1 $-1 $-1 $-1 $37 $-1 $12 #
model_id-kcp-attrib $-1 -1 $-1 $14 $6 1 1021401069 1021401069 -1021509629 1 #
shell $-1 -1 $-1 $-1 $-1 $38 $-1 $15 #
model_id-kcp-attrib $-1 -1 $-1 $17 $7 1 1021401069 1021401069 -1018626043 1 #
shell $-1 -1 $-1 $-1 $-1 $39 $-1 $18 #
model_id-kcp-attrib $-1 -1 $-1 $20 $8 1 1021401069 1021401069 -1013645308 1 #
shell $-1 -1 $-1 $-1 $-1 $40 $-1 $21 #
aggregate_sharped_attribute-aggregate_geombuild_base_attribute-aggregate_body_attribute-attrib_HH-attrib $-1 -1 $41 $23 $0 F #
model_id-kcp-attrib $-1 -1 $42 $-1 $24 1 1021401069 1021401069 -1022820351 2 #
face $43 -1 $-1 $44 $45 $10 $-1 $46 forward single #
loop $-1 -1 $-1 $47 $48 $24 #
plane-surface $-1 -1 $-1 0 0 0 0 0 1 1 0 0 forward_v I I I I #
face $49 -1 $-1 $50 $51 $25 $-1 $52 forward single #
face $-1 -1 $-1 $53 $54 $27 $-1 $55 forward single #
face $-1 -1 $-1 $56 $57 $29 $-1 $58 forward single #
face $-1 -1 $-1 $59 $60 $31 $-1 $61 reversed single #
aggregate_reblend_attribute-aggregate_geombuild_base_attribute-aggregate_body_attribute-attrib_HH-attrib $-1 -1 $62 $32 $0 F #
attrib_hh_face_geombuild-attrib_entity_geombuild-individual_entity_attribute-attrib_HH-attrib $-1 -1 $-1 $33 $24 F #
model_id-kcp-attrib $-1 -1 $63 $-1 $34 1 1021401069 1021401069 -1022820351 3 #
face $64 -1 $-1 $65 $66 $10 $-1 $67 reversed single #
loop $-1 -1 $-1 $68 $69 $34 #
plane-surface $-1 -1 $-1 0 0 -0.625 0 0 1 1 0 0 forward_v I I I I #
loop $70 -1 $-1 $-1 $71 $24 #
coedge $72 -1 $-1 $48 $48 $73 $74 forward $35 $-1 #
model_id-kcp-attrib $-1 -1 $-1 $-1 $37 1 1021401069 1021401069 -1022820350 2 #
face $75 -1 $-1 $76 $77 $25 $-1 $78 reversed single #
loop $-1 -1 $-1 $-1 $79 $37 #
plane-surface $-1 -1 $-1 0 0 0.38 0 0 1 1 0 0 forward_v I I I I #
face $-1 -1 $-1 $80 $81 $27 $-1 $82 forward single #
loop $-1 -1 $-1 $83 $84 $38 #
cone-surface $-1 -1 $-1 0 0 0 0 0 1 1.345 0 0 1 I I 0 1 1.345 forward I I I I #
face $-1 -1 $-1 $85 $86 $29 $-1 $87 forward single #
loop $-1 -1 $-1 $88 $89 $39 #
cone-surface $-1 -1 $-1 0 0 -0.24500000000000011 0 0 1 -1.4684999999999999 0 0 1 I I 0 -1 1.4684999999999999 forward I I I I #
face $-1 -1 $-1 $90 $91 $31 $-1 $61 reversed single #
loop $-1 -1 $-1 $-1 $92 $40 #
cone-surface $-1 -1 $-1 -7.479557850087911e-033 0 0.38 0 0 1 1.9950000000000001 0 0 1 I I 0 1 1.9950000000000001 forward I I I I #
aggregate_isospline_attribute-aggregate_geombuild_base_attribute-aggregate_body_attribute-attrib_HH-attrib $-1 -1 $93 $41 $0 F #
attrib_hh_face_geombuild-attrib_entity_geombuild-individual_entity_attribute-attrib_HH-attrib $-1 -1 $-1 $43 $34 F #
model_id-kcp-attrib $-1 -1 $94 $-1 $44 1 1021401069 1021401069 -1022820351 4 #
face $95 -1 $-1 $96 $97 $10 $-1 $98 reversed single #
loop $-1 -1 $-1 $99 $100 $44 #
plane-surface $-1 -1 $-1 0 0 -0.76000000000000001 0 0 1 1 0 0 forward_v I I I I #
loop $-1 -1 $-1 $-1 $101 $34 #
coedge $102 -1 $-1 $69 $69 $103 $104 forward $45 $-1 #
model_id-kcp-attrib $-1 -1 $-1 $-1 $47 1 1021401069 1021401069 -1022820351 15 #
coedge $105 -1 $-1 $71 $71 $106 $107 reversed $47 $-1 #
attrib_hh_coedge_geombuild-attrib_entity_geombuild-individual_entity_attribute-attrib_HH-attrib $-1 -1 $-1 $-1 $48 F #
coedge $108 -1 $-1 $73 $73 $48 $74 reversed $109 $-1 #
edge $110 -1 $-1 $111 0 $111 6.2831853071795862 $73 $112 forward @7 unknown #
model_id-kcp-attrib $-1 -1 $-1 $-1 $50 1 1021401069 1021401069 -1022820350 3 #
face $-1 -1 $-1 $113 $114 $25 $-1 $115 reversed single #
loop $-1 -1 $-1 $-1 $116 $50 #
plane-surface $-1 -1 $-1 0 0 -0.38 0 0 1 1 0 0 forward_v I I I I #
coedge $-1 -1 $-1 $117 $118 $119 $120 forward $51 $-1 #
face $-1 -1 $-1 $-1 $121 $27 $-1 $122 forward single #
loop $-1 -1 $-1 $-1 $123 $53 #
plane-surface $-1 -1 $-1 0 0 -0.37 0 0 -1 -1 0 0 forward_v I I I I #
loop $-1 -1 $-1 $-1 $124 $38 #
coedge $-1 -1 $-1 $84 $84 $123 $125 reversed $54 $-1 #
face $-1 -1 $-1 $126 $127 $29 $-1 $128 forward single #
loop $-1 -1 $-1 $129 $130 $56 #
cone-surface $-1 -1 $-1 -7.479557850087911e-033 0 -0.24500000000000011 0 0 1 1.9950000000000001 0 0 1 I I 0 1 1.9950000000000001 forward I I I I #
loop $-1 -1 $-1 $-1 $131 $39 #
coedge $-1 -1 $-1 $89 $89 $132 $133 forward $57 $-1 #
face $-1 -1 $-1 $134 $135 $31 $-1 $61 reversed single #
loop $-1 -1 $-1 $-1 $136 $59 #
coedge $-1 -1 $-1 $137 $138 $139 $140 reversed $60 $-1 #
aggregate_analytic_solver_attribute-aggregate_geombuild_base_attribute-aggregate_body_attribute-attrib_HH-attrib $-1 -1 $141 $62 $0 F #
attrib_hh_face_geombuild-attrib_entity_geombuild-individual_entity_attribute-attrib_HH-attrib $-1 -1 $-1 $64 $44 F #
model_id-kcp-attrib $-1 -1 $142 $-1 $65 1 1021401069 1021401069 -1022820351 5 #
face $143 -1 $-1 $144 $145 $10 $-1 $146 forward single #
loop $147 -1 $-1 $148 $149 $65 #
plane-surface $-1 -1 $-1 0 0 -0.73999999999999999 0 0 1 1 0 0 forward_v I I I I #
loop $-1 -1 $-1 $-1 $150 $44 #
coedge $151 -1 $-1 $100 $100 $152 $153 forward $66 $-1 #
coedge $154 -1 $-1 $101 $101 $155 $156 forward $68 $-1 #
attrib_hh_coedge_geombuild-attrib_entity_geombuild-individual_entity_attribute-attrib_HH-attrib $-1 -1 $-1 $-1 $69 F #
coedge $157 -1 $-1 $103 $103 $69 $104 reversed $158 $-1 #
edge $159 -1 $-1 $160 0 $160 6.2831853071795862 $103 $161 forward @7 unknown #
attrib_hh_coedge_geombuild-attrib_entity_geombuild-individual_entity_attribute-attrib_HH-attrib $-1 -1 $-1 $-1 $71 F #
coedge $162 -1 $-1 $106 $106 $71 $107 forward $163 $-1 #
edge $164 -1 $-1 $165 0 $165 6.2831853071795862 $106 $166 forward @7 unknown #
attrib_hh_coedge_geombuild-attrib_entity_geombuild-individual_entity_attribute-attrib_HH-attrib $-1 -1 $-1 $-1 $73 F #
loop $-1 -1 $-1 $-1 $73 $96 #
attrib_edge_convexity-kcp-attrib $-1 -1 $167 $-1 $74 1 #
vertex $168 -1 $-1 $74 $169 #
ellipse-curve $-1 -1 $-1 0 0 0 0 0 1 1.4684999999999999 0 0 1 I I #
face $-1 -1 $-1 $170 $171 $25 $-1 $172 reversed single #
loop $-1 -1 $-1 $-1 $173 $76 #
plane-surface $-1 -1 $-1 0 -1.9950000000000001 0 0 1 0 0 0 1 forward_v I I I I #
coedge $-1 -1 $-1 $174 $175 $176 $177 forward $77 $-1 #
coedge $-1 -1 $-1 $178 $79 $179 $180 forward $51 $-1 #
coedge $-1 -1 $-1 $79 $178 $181 $182 forward $51 $-1 #
coedge $-1 -1 $-1 $183 $184 $79 $120 reversed $185 $-1 #
edge $-1 -1 $-1 $186 -1.9950000000000001 $187 1.9950000000000001 $119 $188 forward @7 unknown #
loop $-1 -1 $-1 $-1 $189 $80 #
plane-surface $-1 -1 $-1 0 0 0.37 0 0 1 1 0 0 forward_v I I I I #
coedge $-1 -1 $-1 $123 $123 $84 $125 forward $81 $-1 #
coedge $-1 -1 $-1 $124 $124 $189 $190 reversed $83 $-1 #
edge $-1 -1 $-1 $191 0 $191 6.2831853071795862 $123 $192 forward @7 unknown #
face $-1 -1 $-1 $-1 $193 $29 $-1 $194 reversed single #
loop $-1 -1 $-1 $195 $196 $85 #
plane-surface $-1 -1 $-1 -0.1610697862120555 1.9398380599355467e-017 0.37999999999999989 0 0 1 1 0 0 forward_v I I I I #
loop $-1 -1 $-1 $-1 $197 $56 #
coedge $-1 -1 $-1 $130 $130 $196 $198 forward $86 $-1 #
coedge $-1 -1 $-1 $131 $131 $199 $200 reversed $88 $-1 #
coedge $-1 -1 $-1 $132 $132 $89 $133 reversed $195 $-1 #
edge $-1 -1 $-1 $201 0 $201 6.2831853071795862 $89 $202 forward @7 unknown #
face $-1 -1 $-1 $203 $204 $31 $-1 $61 reversed single #
loop $-1 -1 $-1 $-1 $205 $90 #
coedge $-1 -1 $-1 $206 $207 $208 $209 reversed $91 $-1 #
coedge $-1 -1 $-1 $210 $92 $211 $212 reversed $60 $-1 #
coedge $-1 -1 $-1 $92 $210 $213 $214 reversed $60 $-1 #
coedge $-1 -1 $-1 $215 $216 $217 $140 forward $218 $-1 #
edge $-1 -1 $-1 $219 -0.76000000000000001 $220 0 $139 $221 forward @7 unknown #
aggregate_geombuild_attribute-aggregate_geombuild_base_attribute-aggregate_body_attribute-attrib_HH-attrib $-1 -1 $222 $93 $0 #
attrib_hh_face_geombuild-attrib_entity_geombuild-individual_entity_attribute-attrib_HH-attrib $-1 -1 $-1 $95 $65 F #
model_id-kcp-attrib $-1 -1 $223 $-1 $96 1 1021401069 1021401069 -1022820351 6 #
face $224 -1 $-1 $225 $226 $10 $-1 $227 forward single #
loop $-1 -1 $-1 $109 $155 $96 #
cone-surface $-1 -1 $-1 0 0 -0.79800000000000004 0 0 1 -1.4684999999999999 0 0 1 I I 0 1 1.4684999999999999 forward I I I I #
model_id-kcp-attrib $-1 -1 $-1 $-1 $97 1 1021401069 1021401069 -1022820351 16 #
loop $-1 -1 $-1 $-1 $228 $65 #
coedge $229 -1 $-1 $149 $149 $230 $231 forward $97 $-1 #
coedge $232 -1 $-1 $150 $150 $233 $234 forward $99 $-1 #
attrib_hh_coedge_geombuild-attrib_entity_geombuild-individual_entity_attribute-attrib_HH-attrib $-1 -1 $-1 $-1 $100 F #
coedge $235 -1 $-1 $152 $152 $100 $153 reversed $236 $-1 #
edge $237 -1 $-1 $238 0 $238 6.2831853071795862 $152 $239 forward @7 unknown #
attrib_hh_coedge_geombuild-attrib_entity_geombuild-individual_entity_attribute-attrib_HH-attrib $-1 -1 $-1 $-1 $101 F #
coedge $240 -1 $-1 $155 $155 $101 $156 reversed $145 $-1 #
edge $241 -1 $-1 $242 -3.1415926535897931 $242 3.1415926535897931 $101 $243 forward @7 unknown #
attrib_hh_coedge_geombuild-attrib_entity_geombuild-individual_entity_attribute-attrib_HH-attrib $-1 -1 $-1 $-1 $103 F #
loop $-1 -1 $-1 $-1 $103 $144 #
attrib_edge_convexity-kcp-attrib $-1 -1 $244 $-1 $104 1 #
vertex $245 -1 $-1 $104 $246 #
ellipse-curve $-1 -1 $-1 0 0 -0.625 0 0 1 1.9950000000000001 0 0 1 I I #
attrib_hh_coedge_geombuild-attrib_entity_geombuild-individual_entity_attribute-attrib_HH-attrib $-1 -1 $-1 $-1 $106 F #
loop $247 -1 $-1 $248 $106 $249 #
attrib_edge_convexity-kcp-attrib $-1 -1 $250 $-1 $107 1 #
vertex $251 -1 $-1 $107 $252 #
ellipse-curve $-1 -1 $-1 0 0 0 0 0 1 1.345 0 0 1 I I #
convexity-sys-attrib $-1 -1 $253 $110 $74 #
attrib_hh_vertex_geombuild-attrib_entity_geombuild-individual_entity_attribute-attrib_HH-attrib $-1 -1 $-1 $-1 $111 F #
point $-1 -1 $-1 1.4684999999999999 0 0 #
face $-1 -1 $-1 $254 $255 $25 $-1 $256 reversed single #
loop $-1 -1 $-1 $-1 $257 $113 #
plane-surface $-1 -1 $-1 -1.9950000000000001 0 0 1 0 0 0 0 -1 forward_v I I I I #
coedge $-1 -1 $-1 $258 $181 $259 $260 forward $114 $-1 #
coedge $-1 -1 $-1 $261 $116 $258 $262 forward $77 $-1 #
coedge $-1 -1 $-1 $116 $261 $263 $264 forward $77 $-1 #
coedge $-1 -1 $-1 $184 $183 $116 $177 reversed $185 $-1 #
edge $-1 -1 $-1 $265 -1.9950000000000001 $266 1.9950000000000001 $176 $267 forward @7 unknown #
coedge $-1 -1 $-1 $118 $117 $268 $269 forward $51 $-1 #
coedge $-1 -1 $-1 $270 $271 $117 $180 reversed $255 $-1 #
edge $-1 -1 $-1 $187 -1.9950000000000001 $272 1.9950000000000001 $179 $273 forward @7 unknown #
coedge $-1 -1 $-1 $173 $274 $118 $182 reversed $114 $-1 #
edge $-1 -1 $-1 $275 -1.9950000000000001 $186 1.9950000000000001 $181 $276 forward @7 unknown #
coedge $-1 -1 $-1 $176 $119 $274 $277 forward $185 $-1 #
coedge $-1 -1 $-1 $119 $176 $270 $278 reversed $185 $-1 #
loop $-1 -1 $-1 $-1 $183 $254 #
vertex $-1 -1 $-1 $120 $279 #
vertex $-1 -1 $-1 $120 $280 #
straight-curve $-1 -1 $-1 1.9950000000000001 0 0.38 0 1 0 I I #
coedge $-1 -1 $-1 $189 $189 $124 $190 forward $121 $-1 #
edge $-1 -1 $-1 $281 0 $281 6.2831853071795862 $189 $282 forward @7 unknown #
vertex $-1 -1 $-1 $125 $283 #
ellipse-curve $-1 -1 $-1 0 0 -0.37 0 0 -1 1.345 0 0 1 I I #
loop $-1 -1 $-1 $284 $285 $126 #
plane-surface $-1 -1 $-1 -0.1610697862120555 1.9398380599355467e-017 -0.24500000000000011 0 0 1 1 0 0 forward_v I I I I #
loop $-1 -1 $-1 $-1 $132 $85 #
coedge $-1 -1 $-1 $196 $196 $130 $198 reversed $127 $-1 #
coedge $-1 -1 $-1 $197 $197 $285 $286 reversed $129 $-1 #
edge $-1 -1 $-1 $287 -3.1415926535897931 $287 3.1415926535897931 $130 $288 forward @7 unknown #
coedge $-1 -1 $-1 $199 $199 $131 $200 forward $284 $-1 #
edge $289 -1 $-1 $290 0 $290 6.2831853071795862 $131 $291 forward @7 unknown #
vertex $-1 -1 $-1 $133 $292 #
ellipse-curve $-1 -1 $-1 0 0 0.37999999999999989 0 0 1 -1.4684999999999999 0 0 1 I I #
face $-1 -1 $-1 $293 $294 $31 $-1 $295 reversed single #
loop $-1 -1 $-1 $-1 $296 $134 #
coedge $-1 -1 $-1 $297 $298 $299 $300 reversed $135 $-1 #
coedge $-1 -1 $-1 $301 $136 $302 $303 reversed $91 $-1 #
coedge $-1 -1 $-1 $136 $301 $92 $140 forward $91 $-1 #
coedge $-1 -1 $-1 $304 $305 $136 $209 forward $306 $-1 #
edge $-1 -1 $-1 $307 -3.1415926535897931 $220 -1.5707963267948966 $208 $308 forward @7 unknown #
coedge $-1 -1 $-1 $138 $137 $298 $309 forward $60 $-1 #
coedge $-1 -1 $-1 $310 $311 $137 $212 forward $312 $-1 #
edge $-1 -1 $-1 $313 0 $219 1.5707963267948966 $211 $314 forward @7 unknown #
coedge $-1 -1 $-1 $315 $316 $138 $214 forward $317 $-1 #
edge $-1 -1 $-1 $220 -1.5707963267948966 $318 0 $213 $308 forward @7 unknown #
coedge $-1 -1 $-1 $319 $139 $316 $320 reversed $218 $-1 #
coedge $-1 -1 $-1 $139 $319 $310 $321 reversed $218 $-1 #
coedge $-1 -1 $-1 $322 $323 $207 $140 reversed $324 $-1 #
loop $-1 -1 $-1 $-1 $139 $325 #
vertex $-1 -1 $-1 $321 $326 #
vertex $-1 -1 $-1 $327 $328 #
straight-curve $-1 -1 $-1 -7.479557850087911e-033 1.9950000000000001 0.38 0 0 1 I I #
aggregate_stitch_attribute-aggregate_stitch_base_attribute-aggregate_body_attribute-attrib_HH-attrib $-1 -1 $329 $141 $0 F #
attrib_hh_face_geombuild-attrib_entity_geombuild-individual_entity_attribute-attrib_HH-attrib $-1 -1 $-1 $143 $96 F #
model_id-kcp-attrib $-1 -1 $330 $-1 $144 1 1021401069 1021401069 -1022820351 7 #
face $331 -1 $-1 $332 $333 $10 $-1 $334 reversed single #
loop $-1 -1 $-1 $158 $335 $144 #
cone-surface $-1 -1 $-1 0 0 -0.79800000000000004 0 0 1 -1.9950000000000001 0 0 1 I I 0 1 1.9950000000000001 forward I I I I #
coedge $336 -1 $-1 $228 $228 $337 $338 forward $148 $-1 #
attrib_hh_coedge_geombuild-attrib_entity_geombuild-individual_entity_attribute-attrib_HH-attrib $-1 -1 $-1 $-1 $149 F #
coedge $339 -1 $-1 $230 $230 $149 $231 reversed $248 $-1 #
edge $340 -1 $-1 $341 0 $341 6.2831853071795862 $230 $342 forward @7 unknown #
attrib_hh_coedge_geombuild-attrib_entity_geombuild-individual_entity_attribute-attrib_HH-attrib $-1 -1 $-1 $-1 $150 F #
coedge $343 -1 $-1 $233 $233 $150 $234 reversed $344 $-1 #
edge $345 -1 $-1 $346 -3.1415926535897931 $346 3.1415926535897931 $150 $347 forward @7 unknown #
attrib_hh_coedge_geombuild-attrib_entity_geombuild-individual_entity_attribute-attrib_HH-attrib $-1 -1 $-1 $-1 $152 F #
loop $-1 -1 $-1 $-1 $152 $348 #
attrib_hh_edge_geombuild-attrib_entity_geombuild-individual_entity_attribute-attrib_HH-attrib $-1 -1 $-1 $-1 $153 F #
vertex $349 -1 $-1 $153 $350 #
ellipse-curve $-1 -1 $-1 0 0 -0.76000000000000001 0 0 1 1.927 0 0 1 I I #
attrib_hh_coedge_geombuild-attrib_entity_geombuild-individual_entity_attribute-attrib_HH-attrib $-1 -1 $-1 $-1 $155 F #
attrib_edge_convexity-kcp-attrib $-1 -1 $351 $-1 $156 2 #
vertex $352 -1 $-1 $156 $353 #
ellipse-curve $-1 -1 $-1 0 0 -0.625 0 0 -1 1.4684999999999999 0 0 1 I I #
convexity-sys-attrib $-1 -1 $354 $159 $104 #
attrib_hh_vertex_geombuild-attrib_entity_geombuild-individual_entity_attribute-attrib_HH-attrib $-1 -1 $-1 $-1 $160 F #
point $-1 -1 $-1 1.9950000000000001 0 -0.625 #
model_id-kcp-attrib $-1 -1 $-1 $-1 $163 1 1021401069 1021401069 -1022820351 13 #
loop $355 -1 $-1 $-1 $230 $249 #
face $356 -1 $-1 $-1 $163 $10 $-1 $357 reversed single #
convexity-sys-attrib $-1 -1 $358 $164 $107 #
model_id-kcp-attrib $-1 -1 $359 $-1 $165 1 1021401069 1021401069 -1022820351 17 #
point $-1 -1 $-1 1.345 0 0 #
attrib_hh_edge_geombuild-attrib_entity_geombuild-individual_entity_attribute-attrib_HH-attrib $-1 -1 $-1 $167 $74 F #
face $-1 -1 $-1 $-1 $185 $25 $-1 $360 reversed single #
loop $-1 -1 $-1 $-1 $270 $170 #
plane-surface $-1 -1 $-1 0 1.9950000000000001 0 0 -1 0 0 0 -1 forward_v I I I I #
coedge $-1 -1 $-1 $361 $268 $271 $362 forward $171 $-1 #
coedge $-1 -1 $-1 $274 $173 $174 $262 reversed $114 $-1 #
coedge $-1 -1 $-1 $268 $361 $173 $260 reversed $171 $-1 #
edge $-1 -1 $-1 $275 -0.38 $363 0.38 $259 $364 forward @7 unknown #
coedge $-1 -1 $-1 $175 $174 $361 $365 forward $77 $-1 #
edge $-1 -1 $-1 $266 -1.9950000000000001 $363 1.9950000000000001 $258 $366 forward @7 unknown #
coedge $-1 -1 $-1 $271 $270 $175 $264 reversed $255 $-1 #
edge $-1 -1 $-1 $367 -1.9950000000000001 $265 1.9950000000000001 $263 $368 forward @7 unknown #
vertex $-1 -1 $-1 $177 $369 #
vertex $-1 -1 $-1 $277 $370 #
straight-curve $-1 -1 $-1 1.9950000000000001 0 -0.38 0 -1 0 I I #
coedge $-1 -1 $-1 $257 $259 $178 $269 reversed $171 $-1 #
edge $-1 -1 $-1 $272 -1.9950000000000001 $275 1.9950000000000001 $268 $371 forward @7 unknown #
coedge $-1 -1 $-1 $263 $179 $184 $278 forward $255 $-1 #
coedge $-1 -1 $-1 $179 $263 $257 $362 reversed $255 $-1 #
vertex $-1 -1 $-1 $180 $372 #
straight-curve $-1 -1 $-1 0 1.9950000000000001 0.38 -1 0 0 I I #
coedge $-1 -1 $-1 $181 $258 $183 $277 reversed $114 $-1 #
vertex $-1 -1 $-1 $269 $373 #
straight-curve $-1 -1 $-1 0 -1.9950000000000001 0.38 1 0 0 I I #
edge $-1 -1 $-1 $186 -0.38 $266 0.38 $183 $374 forward @7 unknown #
edge $-1 -1 $-1 $187 -0.38 $265 0.38 $184 $375 forward @7 unknown #
point $-1 -1 $-1 1.9950000000000001 -1.9950000000000001 0.38 #
point $-1 -1 $-1 1.9950000000000001 1.9950000000000001 0.38 #
vertex $-1 -1 $-1 $190 $376 #
ellipse-curve $-1 -1 $-1 0 0 0.37 0 0 1 1.345 0 0 1 I I #
point $-1 -1 $-1 1.345 0 -0.37 #
loop $-1 -1 $-1 $-1 $199 $126 #
coedge $-1 -1 $-1 $285 $285 $197 $286 forward $193 $-1 #
edge $377 -1 $-1 $378 -3.1415926535897931 $378 3.1415926535897931 $197 $379 forward @7 unknown #
vertex $-1 -1 $-1 $198 $380 #
ellipse-curve $-1 -1 $-1 -7.479557850087911e-033 0 0.37999999999999989 0 0 -1 1.9950000000000001 0 0 1 I I #
convexity-sys-attrib $-1 -1 $-1 $-1 $200 #
vertex $-1 -1 $-1 $200 $381 #
ellipse-curve $-1 -1 $-1 0 0 -0.24500000000000011 0 0 1 -1.4684999999999999 0 0 1 I I #
point $-1 -1 $-1 -1.4684999999999999 0 0.38 #
face $-1 -1 $-1 $382 $324 $31 $-1 $383 reversed single #
loop $-1 -1 $-1 $-1 $384 $203 #
plane-surface $-1 -1 $-1 1.9950000000000001 0 0 -1 0 0 0 0 1 forward_v I I I I #
coedge $-1 -1 $-1 $385 $386 $387 $388 reversed $204 $-1 #
coedge $-1 -1 $-1 $389 $205 $386 $390 forward $135 $-1 #
coedge $-1 -1 $-1 $205 $389 $391 $309 reversed $135 $-1 #
coedge $-1 -1 $-1 $392 $393 $205 $300 forward $394 $-1 #
edge $-1 -1 $-1 $395 -1.5707963267948966 $313 0 $299 $314 forward @7 unknown #
coedge $-1 -1 $-1 $207 $206 $396 $397 reversed $91 $-1 #
coedge $-1 -1 $-1 $398 $399 $400 $303 forward $401 $-1 #
edge $-1 -1 $-1 $402 -0.76000000000000001 $307 0 $302 $403 forward @7 unknown #
coedge $-1 -1 $-1 $305 $208 $323 $327 forward $306 $-1 #
coedge $-1 -1 $-1 $208 $304 $398 $404 forward $306 $-1 #
loop $-1 -1 $-1 $-1 $208 $405 #
vertex $-1 -1 $-1 $406 $407 #
ellipse-curve $-1 -1 $-1 -7.479557850087911e-033 0 0.38 0 0 -1 1.9950000000000001 0 0 1 I I #
edge $-1 -1 $-1 $313 -0.76000000000000001 $318 0 $391 $408 forward @7 unknown #
coedge $-1 -1 $-1 $311 $211 $216 $321 forward $312 $-1 #
coedge $-1 -1 $-1 $211 $310 $409 $410 forward $312 $-1 #
loop $-1 -1 $-1 $-1 $211 $411 #
vertex $-1 -1 $-1 $412 $413 #
ellipse-curve $-1 -1 $-1 -7.479557850087911e-033 0 -0.38 0 0 1 1.9950000000000001 0 0 1 I I #
coedge $-1 -1 $-1 $316 $213 $414 $415 forward $317 $-1 #
coedge $-1 -1 $-1 $213 $315 $215 $320 forward $317 $-1 #
loop $-1 -1 $-1 $-1 $213 $416 #
vertex $-1 -1 $-1 $415 $417 #
coedge $-1 -1 $-1 $216 $215 $418 $419 forward $218 $-1 #
edge $-1 -1 $-1 $420 -1.9950000000000001 $220 7.479557850087911e-033 $215 $421 forward @7 unknown #
edge $-1 -1 $-1 $219 -7.479557850087911e-033 $422 1.9950000000000001 $216 $423 forward @7 unknown #
coedge $-1 -1 $-1 $424 $217 $425 $426 reversed $324 $-1 #
coedge $-1 -1 $-1 $217 $424 $304 $327 reversed $324 $-1 #
loop $-1 -1 $-1 $-1 $217 $293 #
face $-1 -1 $-1 $427 $218 $31 $-1 $383 reversed single #
point $-1 -1 $-1 -7.479557850087911e-033 1.9950000000000001 -0.38 #
edge $-1 -1 $-1 $220 7.479557850087911e-033 $428 1.9950000000000001 $323 $421 forward @7 unknown #
point $-1 -1 $-1 -7.479557850087911e-033 1.9950000000000001 0.38 #
aggregate_simgeom_attribute-aggregate_simgeom_base_attribute-aggregate_body_attribute-attrib_HH-attrib $-1 -1 $-1 $222 $0 F #
attrib_hh_face_geombuild-attrib_entity_geombuild-individual_entity_attribute-attrib_HH-attrib $-1 -1 $-1 $224 $144 F #
model_id-kcp-attrib $-1 -1 $429 $-1 $225 1 1021401069 1021401069 -1022820351 8 #
face $430 -1 $-1 $348 $344 $10 $-1 $431 forward single #
loop $-1 -1 $-1 $432 $433 $225 #
torus-surface $-1 -1 $-1 0 0 -0.72499999999999998 0 0 1 1.9950000000000001 0.025000000000000001 1 0 0 forward_v I I I I #
coedge $434 -1 $-1 $335 $335 $435 $436 forward $226 $-1 #
attrib_hh_coedge_geombuild-attrib_entity_geombuild-individual_entity_attribute-attrib_HH-attrib $-1 -1 $-1 $-1 $228 F #
coedge $437 -1 $-1 $337 $337 $228 $338 reversed $438 $-1 #
edge $439 -1 $-1 $440 -3.1415926535897931 $440 3.1415926535897931 $228 $441 forward @7 unknown #
attrib_hh_coedge_geombuild-attrib_entity_geombuild-individual_entity_attribute-attrib_HH-attrib $-1 -1 $-1 $-1 $230 F #
attrib_edge_convexity-kcp-attrib $-1 -1 $442 $-1 $231 1 #
vertex $443 -1 $-1 $231 $444 #
ellipse-curve $-1 -1 $-1 0 0 -0.73999999999999999 0 0 1 1.345 0 0 1 I I #
attrib_hh_coedge_geombuild-attrib_entity_geombuild-individual_entity_attribute-attrib_HH-attrib $-1 -1 $-1 $-1 $233 F #
loop $-1 -1 $-1 $445 $233 $332 #
attrib_hh_edge_geombuild-attrib_entity_geombuild-individual_entity_attribute-attrib_HH-attrib $-1 -1 $-1 $-1 $234 F #
vertex $446 -1 $-1 $234 $447 #
ellipse-curve $-1 -1 $-1 0 0 -0.76000000000000001 0 0 -1 1.9950000000000001 0 0 1 I I #
face $448 -1 $-1 $249 $438 $10 $-1 $449 reversed single #
attrib_hh_vertex_geombuild-attrib_entity_geombuild-individual_entity_attribute-attrib_HH-attrib $-1 -1 $-1 $-1 $238 F #
point $-1 -1 $-1 1.927 0 -0.76000000000000001 #
convexity-sys-attrib $-1 -1 $450 $241 $156 #
attrib_hh_vertex_geombuild-attrib_entity_geombuild-individual_entity_attribute-attrib_HH-attrib $-1 -1 $-1 $-1 $242 F #
point $-1 -1 $-1 -1.4684999999999999 0 -0.625 #
attrib_hh_edge_geombuild-attrib_entity_geombuild-individual_entity_attribute-attrib_HH-attrib $-1 -1 $-1 $244 $104 F #
model_id-kcp-attrib $-1 -1 $-1 $-1 $248 1 1021401069 1021401069 -1022820351 14 #
model_id-kcp-attrib $-1 -1 $451 $-1 $249 1 1021401069 1021401069 -1022820351 11 #
cone-surface $-1 -1 $-1 0 0 -0.79800000000000004 0 0 1 -1.345 0 0 1 I I 0 1 1.345 forward I I I I #
attrib_hh_edge_geombuild-attrib_entity_geombuild-individual_entity_attribute-attrib_HH-attrib $-1 -1 $-1 $250 $107 F #
attrib_hh_vertex_geombuild-attrib_entity_geombuild-individual_entity_attribute-attrib_HH-attrib $-1 -1 $-1 $251 $165 F #
plane-surface $-1 -1 $-1 1.9950000000000001 0 0 -1 0 0 0 0 1 forward_v I I I I #
coedge $-1 -1 $-1 $259 $257 $261 $365 reversed $171 $-1 #
edge $-1 -1 $-1 $272 -0.38 $367 0.38 $271 $452 forward @7 unknown #
vertex $-1 -1 $-1 $365 $453 #
straight-curve $-1 -1 $-1 -1.9950000000000001 -1.9950000000000001 0 0 0 -1 I I #
edge $-1 -1 $-1 $363 -1.9950000000000001 $367 1.9950000000000001 $361 $454 forward @7 unknown #
straight-curve $-1 -1 $-1 0 -1.9950000000000001 -0.38 -1 0 0 I I #
vertex $-1 -1 $-1 $264 $455 #
straight-curve $-1 -1 $-1 0 1.9950000000000001 -0.38 1 0 0 I I #
point $-1 -1 $-1 1.9950000000000001 1.9950000000000001 -0.38 #
point $-1 -1 $-1 1.9950000000000001 -1.9950000000000001 -0.38 #
straight-curve $-1 -1 $-1 -1.9950000000000001 0 0.38 0 -1 0 I I #
point $-1 -1 $-1 -1.9950000000000001 1.9950000000000001 0.38 #
point $-1 -1 $-1 -1.9950000000000001 -1.9950000000000001 0.38 #
straight-curve $-1 -1 $-1 1.9950000000000001 -1.9950000000000001 0 0 0 -1 I I #
straight-curve $-1 -1 $-1 1.9950000000000001 1.9950000000000001 0 0 0 -1 I I #
point $-1 -1 $-1 1.345 0 0.37 #
convexity-sys-attrib $-1 -1 $-1 $-1 $286 #
vertex $-1 -1 $-1 $286 $456 #
ellipse-curve $-1 -1 $-1 -7.479557850087911e-033 0 -0.24500000000000011 0 0 -1 1.9950000000000001 0 0 1 I I #
point $-1 -1 $-1 -1.9950000000000001 2.4430896758756426e-016 0.37999999999999989 #
point $-1 -1 $-1 -1.4684999999999999 0 -0.245 #
face $-1 -1 $-1 $457 $458 $31 $-1 $459 reversed single #
plane-surface $-1 -1 $-1 0 1.9950000000000001 0 0 -1 0 0 0 -1 forward_v I I I I #
coedge $-1 -1 $-1 $409 $414 $210 $309 reversed $294 $-1 #
coedge $-1 -1 $-1 $460 $296 $206 $303 forward $204 $-1 #
coedge $-1 -1 $-1 $296 $460 $461 $390 reversed $204 $-1 #
coedge $-1 -1 $-1 $462 $463 $296 $388 forward $464 $-1 #
edge $-1 -1 $-1 $402 -3.1415926535897931 $395 -1.5707963267948966 $387 $314 forward @7 unknown #
coedge $-1 -1 $-1 $298 $297 $465 $466 reversed $135 $-1 #
edge $-1 -1 $-1 $395 -0.76000000000000001 $467 0 $461 $468 forward @7 unknown #
coedge $-1 -1 $-1 $469 $470 $384 $309 forward $471 $-1 #
coedge $-1 -1 $-1 $393 $299 $470 $412 forward $394 $-1 #
coedge $-1 -1 $-1 $299 $392 $472 $473 forward $394 $-1 #
loop $-1 -1 $-1 $-1 $299 $474 #
vertex $-1 -1 $-1 $475 $476 #
coedge $-1 -1 $-1 $477 $425 $301 $397 forward $478 $-1 #
edge $-1 -1 $-1 $219 1.5707963267948966 $402 3.1415926535897931 $396 $314 forward @7 unknown #
coedge $-1 -1 $-1 $479 $302 $305 $404 reversed $401 $-1 #
coedge $-1 -1 $-1 $302 $479 $477 $480 reversed $401 $-1 #
coedge $-1 -1 $-1 $481 $482 $385 $303 reversed $458 $-1 #
loop $-1 -1 $-1 $-1 $302 $483 #
vertex $-1 -1 $-1 $480 $484 #
straight-curve $-1 -1 $-1 -1.9950000000000001 0 0.38 0 0 1 I I #
edge $-1 -1 $-1 $428 -1.9950000000000001 $307 0 $398 $485 forward @7 unknown #
face $-1 -1 $-1 $416 $306 $31 $-1 $486 forward single #
edge $-1 -1 $-1 $307 0 $487 1.9950000000000001 $482 $485 forward @7 unknown #
point $-1 -1 $-1 -1.9950000000000001 0 0.38 #
straight-curve $-1 -1 $-1 1.9950000000000001 0 0.38 0 0 1 I I #
coedge $-1 -1 $-1 $418 $384 $311 $410 reversed $294 $-1 #
edge $-1 -1 $-1 $422 -1.9950000000000001 $313 0 $409 $488 forward @7 unknown #
face $-1 -1 $-1 $489 $312 $31 $-1 $490 reversed single #
edge $-1 -1 $-1 $313 0 $491 1.9950000000000001 $470 $488 forward @7 unknown #
point $-1 -1 $-1 1.9950000000000001 0 -0.38 #
coedge $-1 -1 $-1 $384 $418 $315 $415 reversed $294 $-1 #
edge $-1 -1 $-1 $318 0 $420 1.9950000000000001 $414 $492 forward @7 unknown #
face $-1 -1 $-1 $493 $317 $31 $-1 $486 forward single #
point $-1 -1 $-1 1.9950000000000001 0 0.38 #
coedge $-1 -1 $-1 $414 $409 $319 $419 reversed $294 $-1 #
edge $-1 -1 $-1 $420 -0.38 $422 0.38 $418 $494 forward @7 unknown #
vertex $-1 -1 $-1 $415 $495 #
straight-curve $-1 -1 $-1 0 1.9950000000000001 0.38 -1 0 0 I I #
vertex $-1 -1 $-1 $410 $496 #
straight-curve $-1 -1 $-1 0 1.9950000000000001 -0.38 1 0 0 I I #
coedge $-1 -1 $-1 $323 $322 $479 $497 reversed $324 $-1 #
coedge $-1 -1 $-1 $396 $477 $322 $426 forward $478 $-1 #
edge $-1 -1 $-1 $498 -1.9950000000000001 $219 -7.479557850087911e-033 $322 $423 forward @7 unknown #
face $-1 -1 $-1 $-1 $471 $31 $-1 $295 reversed single #
vertex $-1 -1 $-1 $327 $499 #
attrib_hh_face_geombuild-attrib_entity_geombuild-individual_entity_attribute-attrib_HH-attrib $-1 -1 $-1 $331 $225 F #
model_id-kcp-attrib $-1 -1 $500 $-1 $332 1 1021401069 1021401069 -1022820351 9 #
cone-surface $-1 -1 $-1 0 0 -0.79800000000000004 0 0 1 -1.9950000000000001 0 0 1 I I 0 1 1.9950000000000001 forward I I I I #
loop $-1 -1 $-1 $-1 $435 $225 #
coedge $501 -1 $-1 $433 $433 $502 $503 forward $333 $-1 #
attrib_hh_coedge_geombuild-attrib_entity_geombuild-individual_entity_attribute-attrib_HH-attrib $-1 -1 $-1 $-1 $335 F #
coedge $504 -1 $-1 $435 $435 $335 $436 reversed $432 $-1 #
edge $505 -1 $-1 $506 -3.1415926535897931 $506 3.1415926535897931 $435 $507 forward @7 unknown #
attrib_hh_coedge_geombuild-attrib_entity_geombuild-individual_entity_attribute-attrib_HH-attrib $-1 -1 $-1 $-1 $337 F #
loop $-1 -1 $-1 $236 $337 $348 #
attrib_edge_convexity-kcp-attrib $-1 -1 $508 $-1 $338 2 #
vertex $509 -1 $-1 $338 $510 #
ellipse-curve $-1 -1 $-1 0 0 -0.73999999999999899 0 0 -1 1.8923589838486199 0 0 1 I I #
convexity-sys-attrib $-1 -1 $511 $340 $231 #
model_id-kcp-attrib $-1 -1 $512 $-1 $341 1 1021401069 1021401069 -1022820351 18 #
point $-1 -1 $-1 1.345 0 -0.73999999999999999 #
loop $-1 -1 $-1 $-1 $502 $332 #
attrib_hh_vertex_geombuild-attrib_entity_geombuild-individual_entity_attribute-attrib_HH-attrib $-1 -1 $-1 $-1 $346 F #
point $-1 -1 $-1 -1.9950000000000001 0 -0.76000000000000001 #
model_id-kcp-attrib $-1 -1 $513 $-1 $348 1 1021401069 1021401069 -1022820351 10 #
cone-surface $-1 -1 $-1 0 0 -0.76000000000000001 0 0 -1 1.927 0 0 1 I I 0.86602540378443704 0.500000000000003 1.927 forward I I I I #
attrib_hh_edge_geombuild-attrib_entity_geombuild-individual_entity_attribute-attrib_HH-attrib $-1 -1 $-1 $351 $156 F #
attrib_hh_face_geombuild-attrib_entity_geombuild-individual_entity_attribute-attrib_HH-attrib $-1 -1 $-1 $356 $249 F #
straight-curve $-1 -1 $-1 -1.9950000000000001 1.9950000000000001 0 0 0 -1 I I #
point $-1 -1 $-1 -1.9950000000000001 -1.9950000000000001 -0.38 #
straight-curve $-1 -1 $-1 -1.9950000000000001 0 -0.38 0 1 0 I I #
point $-1 -1 $-1 -1.9950000000000001 1.9950000000000001 -0.38 #
point $-1 -1 $-1 -1.9950000000000001 2.4430896758756426e-016 -0.24500000000000011 #
face $-1 -1 $-1 $405 $514 $31 $-1 $486 forward single #
loop $-1 -1 $-1 $-1 $400 $382 #
plane-surface $-1 -1 $-1 -1.9950000000000001 0 0 1 0 0 0 0 -1 forward_v I I I I #
coedge $-1 -1 $-1 $386 $385 $515 $516 reversed $204 $-1 #
coedge $-1 -1 $-1 $517 $518 $519 $390 forward $520 $-1 #
coedge $-1 -1 $-1 $463 $387 $518 $475 forward $464 $-1 #
coedge $-1 -1 $-1 $387 $462 $481 $521 forward $464 $-1 #
loop $-1 -1 $-1 $-1 $387 $522 #
coedge $-1 -1 $-1 $523 $524 $389 $466 forward $525 $-1 #
edge $-1 -1 $-1 $318 0 $467 1.5707963267948966 $465 $308 forward @7 unknown #
vertex $-1 -1 $-1 $526 $527 #
straight-curve $-1 -1 $-1 -7.479557850087911e-033 -1.9950000000000001 0.38 0 0 1 I I #
coedge $-1 -1 $-1 $528 $391 $524 $529 reversed $471 $-1 #
coedge $-1 -1 $-1 $391 $528 $392 $412 reversed $471 $-1 #
loop $-1 -1 $-1 $-1 $391 $427 #
coedge $-1 -1 $-1 $530 $519 $393 $473 reversed $531 $-1 #
edge $-1 -1 $-1 $491 -1.9950000000000001 $395 7.479557850087911e-033 $472 $532 forward @7 unknown #
face $-1 -1 $-1 $411 $394 $31 $-1 $490 reversed single #
edge $-1 -1 $-1 $395 7.479557850087911e-033 $533 1.9950000000000001 $518 $532 forward @7 unknown #
point $-1 -1 $-1 -7.479557850087911e-033 -1.9950000000000001 -0.38 #
coedge $-1 -1 $-1 $425 $396 $399 $480 forward $478 $-1 #
loop $-1 -1 $-1 $-1 $396 $489 #
coedge $-1 -1 $-1 $399 $398 $424 $497 forward $401 $-1 #
edge $-1 -1 $-1 $402 0 $498 1.9950000000000001 $399 $534 forward @7 unknown #
coedge $-1 -1 $-1 $535 $400 $463 $521 reversed $458 $-1 #
coedge $-1 -1 $-1 $400 $535 $536 $406 reversed $458 $-1 #
face $-1 -1 $-1 $325 $401 $31 $-1 $459 reversed single #
point $-1 -1 $-1 -1.9950000000000001 0 -0.38 #
straight-curve $-1 -1 $-1 -1.9950000000000001 0 0.38 0 -1 0 I I #
plane-surface $-1 -1 $-1 0 0 0.38 0 0 1 1 0 0 forward_v I I I I #
vertex $-1 -1 $-1 $406 $537 #
straight-curve $-1 -1 $-1 1.9950000000000001 0 -0.38 0 -1 0 I I #
face $-1 -1 $-1 $538 $478 $31 $-1 $490 reversed single #
plane-surface $-1 -1 $-1 0 0 -0.38 0 0 1 1 0 0 forward_v I I I I #
vertex $-1 -1 $-1 $539 $540 #
straight-curve $-1 -1 $-1 1.9950000000000001 0 0.38 0 1 0 I I #
face $-1 -1 $-1 $541 $525 $31 $-1 $486 forward single #
straight-curve $-1 -1 $-1 1.9950000000000001 1.9950000000000001 0 0 0 -1 I I #
point $-1 -1 $-1 1.9950000000000001 1.9950000000000001 0.38 #
point $-1 -1 $-1 1.9950000000000001 1.9950000000000001 -0.38 #
edge $-1 -1 $-1 $428 -0.38 $498 0.38 $424 $542 forward @7 unknown #
vertex $-1 -1 $-1 $426 $543 #
point $-1 -1 $-1 -1.9950000000000001 1.9950000000000001 0.38 #
attrib_hh_face_geombuild-attrib_entity_geombuild-individual_entity_attribute-attrib_HH-attrib $-1 -1 $-1 $430 $332 F #
attrib_hh_coedge_geombuild-attrib_entity_geombuild-individual_entity_attribute-attrib_HH-attrib $-1 -1 $-1 $-1 $433 F #
coedge $544 -1 $-1 $502 $502 $433 $503 reversed $445 $-1 #
edge $545 -1 $-1 $546 -3.1415926535897931 $546 3.1415926535897931 $502 $547 forward @7 unknown #
attrib_hh_coedge_geombuild-attrib_entity_geombuild-individual_entity_attribute-attrib_HH-attrib $-1 -1 $-1 $-1 $435 F #
attrib_hh_edge_geombuild-attrib_entity_geombuild-individual_entity_attribute-attrib_HH-attrib $-1 -1 $-1 $-1 $436 F #
vertex $548 -1 $-1 $436 $549 #
ellipse-curve $-1 -1 $-1 0 0 -0.69999999999999996 0 0 1 1.9950000000000001 0 0 1 I I #
convexity-sys-attrib $-1 -1 $550 $439 $338 #
attrib_hh_vertex_geombuild-attrib_entity_geombuild-individual_entity_attribute-attrib_HH-attrib $-1 -1 $-1 $-1 $440 F #
point $-1 -1 $-1 -1.8923589838486199 0 -0.73999999999999899 #
attrib_hh_edge_geombuild-attrib_entity_geombuild-individual_entity_attribute-attrib_HH-attrib $-1 -1 $-1 $442 $231 F #
attrib_hh_vertex_geombuild-attrib_entity_geombuild-individual_entity_attribute-attrib_HH-attrib $-1 -1 $-1 $443 $341 F #
attrib_hh_face_geombuild-attrib_entity_geombuild-individual_entity_attribute-attrib_HH-attrib $-1 -1 $-1 $448 $348 F #
loop $-1 -1 $-1 $-1 $515 $457 #
coedge $-1 -1 $-1 $536 $551 $460 $516 forward $514 $-1 #
edge $-1 -1 $-1 $467 1.5707963267948966 $307 3.1415926535897931 $515 $308 forward @7 unknown #
coedge $-1 -1 $-1 $552 $461 $551 $553 reversed $520 $-1 #
coedge $-1 -1 $-1 $461 $552 $462 $475 reversed $520 $-1 #
coedge $-1 -1 $-1 $472 $554 $297 $390 reversed $531 $-1 #
loop $-1 -1 $-1 $-1 $461 $538 #
edge $-1 -1 $-1 $533 -1.9950000000000001 $402 0 $481 $534 forward @7 unknown #
face $-1 -1 $-1 $474 $464 $31 $-1 $490 reversed single #
coedge $-1 -1 $-1 $524 $465 $554 $526 forward $525 $-1 #
coedge $-1 -1 $-1 $465 $523 $469 $529 forward $525 $-1 #
loop $-1 -1 $-1 $-1 $465 $493 #
edge $-1 -1 $-1 $467 -7.479557850087911e-033 $555 1.9950000000000001 $554 $556 forward @7 unknown #
point $-1 -1 $-1 -7.479557850087911e-033 -1.9950000000000001 0.38 #
coedge $-1 -1 $-1 $470 $469 $530 $539 forward $471 $-1 #
edge $-1 -1 $-1 $555 -1.9950000000000001 $318 0 $469 $492 forward @7 unknown #
coedge $-1 -1 $-1 $554 $472 $528 $539 reversed $531 $-1 #
loop $-1 -1 $-1 $-1 $519 $541 #
straight-curve $-1 -1 $-1 0 -1.9950000000000001 -0.38 -1 0 0 I I #
vertex $-1 -1 $-1 $521 $557 #
straight-curve $-1 -1 $-1 -1.9950000000000001 0 -0.38 0 1 0 I I #
coedge $-1 -1 $-1 $482 $481 $552 $558 reversed $458 $-1 #
coedge $-1 -1 $-1 $551 $515 $482 $406 forward $514 $-1 #
point $-1 -1 $-1 -1.9950000000000001 -1.9950000000000001 0.38 #
face $-1 -1 $-1 $483 $520 $31 $-1 $559 reversed single #
edge $-1 -1 $-1 $555 -0.38 $491 0.38 $528 $560 forward @7 unknown #
point $-1 -1 $-1 1.9950000000000001 -1.9950000000000001 -0.38 #
face $-1 -1 $-1 $522 $531 $31 $-1 $559 reversed single #
straight-curve $-1 -1 $-1 -1.9950000000000001 1.9950000000000001 0 0 0 -1 I I #
point $-1 -1 $-1 -1.9950000000000001 1.9950000000000001 -0.38 #
attrib_hh_coedge_geombuild-attrib_entity_geombuild-individual_entity_attribute-attrib_HH-attrib $-1 -1 $-1 $-1 $502 F #
attrib_hh_edge_geombuild-attrib_entity_geombuild-individual_entity_attribute-attrib_HH-attrib $-1 -1 $-1 $-1 $503 F #
vertex $561 -1 $-1 $503 $562 #
ellipse-curve $-1 -1 $-1 0 0 -0.75 0 0 1 1.9950000000000001 0 0 1 I I #
attrib_hh_vertex_geombuild-attrib_entity_geombuild-individual_entity_attribute-attrib_HH-attrib $-1 -1 $-1 $-1 $506 F #
point $-1 -1 $-1 -1.9950000000000001 0 -0.69999999999999996 #
attrib_hh_edge_geombuild-attrib_entity_geombuild-individual_entity_attribute-attrib_HH-attrib $-1 -1 $-1 $508 $338 F #
coedge $-1 -1 $-1 $515 $536 $517 $553 forward $514 $-1 #
coedge $-1 -1 $-1 $518 $517 $535 $558 forward $520 $-1 #
edge $-1 -1 $-1 $487 -1.9950000000000001 $467 -7.479557850087911e-033 $517 $556 forward @7 unknown #
coedge $-1 -1 $-1 $519 $530 $523 $526 reversed $531 $-1 #
vertex $-1 -1 $-1 $529 $563 #
straight-curve $-1 -1 $-1 0 -1.9950000000000001 0.38 1 0 0 I I #
point $-1 -1 $-1 -1.9950000000000001 -1.9950000000000001 -0.38 #
edge $-1 -1 $-1 $487 -0.38 $533 0.38 $535 $564 forward @7 unknown #
plane-surface $-1 -1 $-1 0 -1.9950000000000001 0 0 1 0 0 0 1 forward_v I I I I #
straight-curve $-1 -1 $-1 1.9950000000000001 -1.9950000000000001 0 0 0 -1 I I #
attrib_hh_vertex_geombuild-attrib_entity_geombuild-individual_entity_attribute-attrib_HH-attrib $-1 -1 $-1 $-1 $546 F #
point $-1 -1 $-1 -1.9950000000000001 0 -0.75 #
point $-1 -1 $-1 1.9950000000000001 -1.9950000000000001 0.38 #
straight-curve $-1 -1 $-1 -1.9950000000000001 -1.9950000000000001 0 0 0 -1 I I #
End-of-ACIS-data 