600 0 1 0           
85 GICL ACIS Healer - Source: /gicl/data5/repository/UMD/exp-feats1/exp-feats1.sat - 6 0 18 ACIS 6.0.3 Solaris 24 Sun Apr 14 00:35:35 2002 
1 9.999999999999999547e-07 1.000000000000000036e-10 
body $-1 $1 $-1 $-1 #
lump $-1 $-1 $2 $0 #
shell $-1 $-1 $-1 $3 $-1 $1 #
face $-1 $4 $5 $2 $-1 $6 forward single #
face $-1 $7 $8 $2 $-1 $9 forward single #
loop $-1 $-1 $10 $3 #
plane-surface $-1 43.46446609406729777 -43.46446609406729777 10 0.7071067811865460184 -0.707106781186549016 0 0 0 -1 forward_v I I I I #
face $-1 $11 $12 $2 $-1 $13 reversed single #
loop $-1 $-1 $14 $4 #
plane-surface $-1 47 -47 0 0 0 1 0.7071067811865460184 -0.707106781186549016 0 forward_v I I I I #
coedge $-1 $15 $16 $17 $18 reversed $5 $-1 #
face $-1 $19 $20 $2 $-1 $21 forward single #
loop $-1 $-1 $17 $7 #
plane-surface $-1 50 0 0 -1 0 0 0 -0 1 forward_v I I I I #
coedge $-1 $22 $23 $24 $25 reversed $8 $-1 #
coedge $-1 $26 $10 $27 $28 reversed $5 $-1 #
coedge $-1 $10 $26 $22 $29 forward $5 $-1 #
coedge $-1 $24 $30 $10 $18 forward $12 $-1 #
edge $-1 $31 -15 $32 5 $17 $33 forward 7 unknown #
face $-1 $34 $35 $2 $-1 $36 forward single #
loop $-1 $-1 $37 $11 #
plane-surface $-1 -43.46446609406729777 43.46446609406729777 10 -0.7071067811865460184 0.707106781186549016 0 0 0 1 forward_v I I I I #
coedge $-1 $23 $14 $16 $29 reversed $8 $-1 #
coedge $-1 $14 $22 $38 $39 reversed $8 $-1 #
coedge $-1 $40 $17 $14 $25 forward $12 $-1 #
edge $-1 $32 13.42893218813450318 $41 26.5 $24 $42 forward 7 unknown #
coedge $-1 $16 $15 $43 $44 reversed $5 $-1 #
coedge $-1 $45 $46 $15 $28 forward $47 $-1 #
edge $-1 $48 -9.242640687119230591 $31 9.242640687119370924 $27 $49 forward 7 unknown #
edge $-1 $50 -9.242640687119299869 $32 9.242640687119301646 $16 $51 forward 7 unknown #
coedge $-1 $17 $52 $45 $53 reversed $12 $-1 #
vertex $-1 $18 $54 #
vertex $-1 $25 $55 #
straight-curve $-1 50 -36.92893218813450318 5 -0 -0 -1 I I #
face $-1 $56 $57 $2 $-1 $58 reversed single #
loop $-1 $-1 $59 $19 #
plane-surface $-1 -47 47 0 0 0 1 0.7071067811865460184 -0.707106781186549016 0 forward_v I I I I #
coedge $-1 $60 $61 $62 $63 reversed $20 $-1 #
coedge $-1 $43 $64 $23 $39 forward $65 $-1 #
edge $-1 $41 -26.5 $50 -13.42893218813450318 $38 $66 forward 7 unknown #
coedge $-1 $67 $24 $64 $68 forward $12 $-1 #
vertex $-1 $39 $69 #
straight-curve $-1 50 -23.5 0 0 -1 0 I I #
coedge $-1 $70 $38 $26 $44 forward $65 $-1 #
edge $-1 $50 -5 $48 15 $43 $71 forward 7 unknown #
coedge $-1 $72 $27 $30 $53 forward $47 $-1 #
coedge $-1 $27 $73 $70 $74 forward $47 $-1 #
loop $-1 $-1 $27 $75 #
vertex $-1 $74 $76 #
straight-curve $-1 43.4644660940671983 -43.46446609406729777 20 0.707106781186549016 0.7071067811865460184 -0 I I #
vertex $-1 $39 $77 #
straight-curve $-1 43.46446609406729777 -43.46446609406729777 0 0.707106781186549016 0.7071067811865460184 0 I I #
coedge $-1 $30 $67 $78 $79 forward $12 $-1 #
edge $-1 $31 -36.92893218813450318 $80 -14.14213562373100075 $30 $81 forward 7 unknown #
point $-1 50 -36.92893218813450318 20 #
point $-1 50 -36.92893218813450318 0 #
face $-1 $82 $83 $2 $-1 $84 forward single #
loop $-1 $-1 $62 $34 #
plane-surface $-1 -50 0 0 1 0 0 0 0 -1 forward_v I I I I #
coedge $-1 $85 $86 $87 $88 reversed $35 $-1 #
coedge $-1 $89 $37 $90 $91 reversed $20 $-1 #
coedge $-1 $37 $89 $85 $92 forward $20 $-1 #
coedge $-1 $87 $93 $37 $63 forward $57 $-1 #
edge $-1 $94 -15 $95 5 $62 $96 forward 7 unknown #
coedge $-1 $38 $97 $40 $68 reversed $65 $-1 #
loop $-1 $-1 $43 $98 #
straight-curve $-1 23.5 -50 0 -1 0 0 I I #
coedge $-1 $52 $40 $99 $100 reversed $12 $-1 #
edge $-1 $41 0 $101 20 $40 $102 forward 7 unknown #
point $-1 50 -50 0 #
coedge $-1 $103 $43 $46 $74 reversed $65 $-1 #
straight-curve $-1 36.92893218813450318 -50 5 0 0 1 I I #
coedge $-1 $104 $45 $105 $106 forward $47 $-1 #
coedge $-1 $46 $107 $108 $109 forward $47 $-1 #
edge $-1 $110 14.14213562373100075 $48 36.92893218813450318 $70 $111 forward 7 unknown #
face $-1 $112 $47 $2 $-1 $113 forward single #
point $-1 36.92893218813450318 -50 20 #
point $-1 36.92893218813450318 -50 0 #
coedge $-1 $114 $105 $52 $79 reversed $115 $-1 #
edge $-1 $116 -20 $80 20 $52 $117 forward 7 unknown #
vertex $-1 $53 $118 #
straight-curve $-1 50 0 20 0 1 0 I I #
face $-1 $119 $120 $2 $-1 $121 forward single #
loop $-1 $-1 $122 $56 #
plane-surface $-1 -43.46446609406729777 -43.46446609406729777 10 -0.7071067811865460184 -0.707106781186549016 0 0 0 1 forward_v I I I I #
coedge $-1 $86 $59 $61 $92 reversed $35 $-1 #
coedge $-1 $59 $85 $123 $124 reversed $35 $-1 #
coedge $-1 $125 $62 $59 $88 forward $57 $-1 #
edge $-1 $95 13.42893218813450318 $126 26.5 $87 $127 forward 7 unknown #
coedge $-1 $61 $60 $128 $129 reversed $20 $-1 #
coedge $-1 $130 $131 $60 $91 forward $47 $-1 #
edge $-1 $132 -9.242640687119230591 $94 9.242640687119370924 $90 $133 forward 7 unknown #
edge $-1 $134 -9.242640687119299869 $95 9.242640687119301646 $61 $135 forward 7 unknown #
coedge $-1 $62 $136 $130 $137 reversed $57 $-1 #
vertex $-1 $63 $138 #
vertex $-1 $88 $139 #
straight-curve $-1 -50 36.92893218813450318 5 0 0 -1 I I #
coedge $-1 $64 $103 $140 $141 reversed $65 $-1 #
face $-1 $142 $65 $2 $-1 $143 reversed single #
coedge $-1 $140 $144 $67 $100 forward $145 $-1 #
edge $-1 $116 14.14213562373100075 $101 50 $67 $146 forward 7 unknown #
vertex $-1 $68 $147 #
straight-curve $-1 50 -50 0 0 0 -1 I I #
coedge $-1 $97 $70 $148 $149 forward $65 $-1 #
coedge $-1 $150 $72 $151 $152 forward $47 $-1 #
coedge $-1 $78 $153 $72 $106 reversed $115 $-1 #
edge $-1 $80 -27.6776695296637314 $154 -7.677669529663677217 $72 $155 forward 7 unknown #
coedge $-1 $73 $156 $157 $158 forward $47 $-1 #
coedge $-1 $159 $148 $73 $109 reversed $160 $-1 #
edge $-1 $161 7.67766952966359284 $110 27.67766952966368166 $73 $162 forward 7 unknown #
vertex $-1 $149 $163 #
straight-curve $-1 0 -50 20 1 0 0 I I #
face $-1 $164 $165 $2 $-1 $166 reversed single #
plane-surface $-1 0 0 20 0 0 1 1 0 0 forward_v I I I I #
coedge $-1 $153 $78 $144 $167 reversed $115 $-1 #
loop $-1 $-1 $153 $168 #
vertex $-1 $167 $169 #
straight-curve $-1 50 -14.14213562373100075 0 0 0 1 I I #
point $-1 50 -14.14213562373100075 20 #
face $-1 $170 $171 $2 $-1 $143 reversed single #
loop $-1 $-1 $172 $82 #
plane-surface $-1 -47 -47 0 0 0 1 0.7071067811865460184 0.707106781186549016 0 forward_v I I I I #
coedge $-1 $173 $174 $175 $176 reversed $83 $-1 #
coedge $-1 $128 $177 $86 $124 forward $178 $-1 #
edge $-1 $126 -26.5 $134 -13.42893218813450318 $123 $179 forward 7 unknown #
coedge $-1 $180 $87 $177 $181 forward $57 $-1 #
vertex $-1 $124 $182 #
straight-curve $-1 -50 23.5 0 0 1 0 I I #
coedge $-1 $183 $123 $89 $129 forward $178 $-1 #
edge $-1 $134 -5 $132 15 $128 $184 forward 7 unknown #
coedge $-1 $185 $90 $93 $137 forward $47 $-1 #
coedge $-1 $90 $186 $183 $187 forward $47 $-1 #
vertex $-1 $187 $188 #
straight-curve $-1 -43.4644660940671983 43.46446609406729777 20 -0.707106781186549016 -0.7071067811865460184 0 I I #
vertex $-1 $124 $189 #
straight-curve $-1 -43.46446609406729777 43.46446609406729777 0 -0.707106781186549016 -0.7071067811865460184 0 I I #
coedge $-1 $93 $180 $190 $191 forward $57 $-1 #
edge $-1 $94 -36.92893218813450318 $192 -14.14213562373100075 $93 $193 forward 7 unknown #
point $-1 -50 36.92893218813450318 20 #
point $-1 -50 36.92893218813450318 0 #
coedge $-1 $194 $99 $97 $141 forward $145 $-1 #
edge $-1 $101 -50 $195 -14.14213562373100075 $97 $196 forward 7 unknown #
face $-1 $197 $198 $2 $-1 $199 forward single #
plane-surface $-1 0 -50 0 0 1 -0 -0 0 1 forward_v I I I I #
coedge $-1 $99 $200 $114 $167 forward $145 $-1 #
loop $-1 $-1 $201 $202 #
straight-curve $-1 50 0 -20 0 -1 0 I I #
point $-1 50 -50 -20 #
coedge $-1 $108 $203 $103 $149 reversed $160 $-1 #
edge $-1 $110 -20 $195 20 $103 $204 forward 7 unknown #
coedge $-1 $205 $104 $206 $207 forward $47 $-1 #
coedge $-1 $208 $209 $104 $152 reversed $210 $-1 #
edge $-1 $154 7.67766952966359284 $211 27.67766952966368166 $104 $212 forward 7 unknown #
coedge $-1 $105 $114 $208 $213 reversed $115 $-1 #
vertex $-1 $106 $214 #
straight-curve $-1 30.42893218813449963 5.428932188134510284 20 -0.707106781186549016 0.7071067811865460184 0 I I #
coedge $-1 $107 $215 $216 $217 forward $47 $-1 #
coedge $-1 $218 $219 $107 $158 reversed $220 $-1 #
edge $-1 $221 -27.6776695296637314 $161 -7.677669529663677217 $107 $222 forward 7 unknown #
coedge $-1 $203 $108 $219 $223 forward $160 $-1 #
loop $-1 $-1 $148 $224 #
vertex $-1 $158 $225 #
straight-curve $-1 -5.428932188134539594 -30.4289321881345991 20 0.707106781186549016 -0.7071067811865460184 0 I I #
point $-1 14.14213562373100075 -50 20 #
face $-1 $226 $227 $2 $-1 $228 forward single #
loop $-1 $-1 $229 $112 #
plane-surface $-1 0 50 0 0 -1 0 0 0 -1 forward_v I I I I #
edge $-1 $230 7.677669529663677217 $116 27.6776695296637314 $144 $231 forward 7 unknown #
face $-1 $232 $115 $2 $-1 $233 forward single #
point $-1 50 -14.14213562373100075 -20 #
face $-1 $234 $235 $2 $-1 $236 forward single #
loop $-1 $-1 $175 $119 #
coedge $-1 $237 $238 $239 $240 reversed $120 $-1 #
coedge $-1 $241 $122 $215 $242 reversed $83 $-1 #
coedge $-1 $122 $241 $237 $243 forward $83 $-1 #
coedge $-1 $239 $216 $122 $176 forward $171 $-1 #
edge $-1 $244 -15 $245 5 $175 $246 forward 7 unknown #
coedge $-1 $123 $247 $125 $181 reversed $178 $-1 #
loop $-1 $-1 $128 $248 #
straight-curve $-1 -23.5 50 0 1 0 -0 I I #
coedge $-1 $136 $125 $249 $250 reversed $57 $-1 #
edge $-1 $126 0 $251 20 $177 $252 forward 7 unknown #
point $-1 -50 50 0 #
coedge $-1 $253 $128 $131 $187 reversed $178 $-1 #
straight-curve $-1 -36.92893218813450318 50 5 0 0 1 I I #
coedge $-1 $254 $130 $255 $256 forward $47 $-1 #
coedge $-1 $131 $257 $258 $259 forward $47 $-1 #
edge $-1 $260 14.14213562373100075 $132 36.92893218813450318 $183 $261 forward 7 unknown #
point $-1 -36.92893218813450318 50 20 #
point $-1 -36.92893218813450318 50 0 #
coedge $-1 $262 $255 $136 $191 reversed $263 $-1 #
edge $-1 $264 -20 $192 20 $136 $265 forward 7 unknown #
vertex $-1 $137 $266 #
straight-curve $-1 -50 0 20 0 -1 0 I I #
coedge $-1 $267 $140 $203 $268 forward $145 $-1 #
vertex $-1 $141 $269 #
straight-curve $-1 0 -50 -20 -1 0 0 I I #
face $-1 $270 $263 $2 $-1 $271 forward single #
loop $-1 $-1 $272 $142 #
plane-surface $-1 -42.92893218813450318 -7.071067811865460406 0 -0.707106781186549016 0.7071067811865460184 0 0 0 1 forward_v I I I I #
coedge $-1 $144 $273 $274 $275 forward $145 $-1 #
coedge $-1 $276 $277 $278 $279 forward $145 $-1 #
face $-1 $-1 $145 $2 $-1 $280 reversed single #
coedge $-1 $148 $159 $194 $268 reversed $160 $-1 #
straight-curve $-1 14.1421356237308995 -50 0 -0 0 -1 I I #
coedge $-1 $281 $150 $282 $283 forward $47 $-1 #
coedge $-1 $284 $285 $150 $207 reversed $286 $-1 #
edge $-1 $211 14.14213562373100075 $287 36.92893218813450318 $206 $81 forward 7 unknown #
coedge $-1 $274 $151 $153 $213 forward $210 $-1 #
coedge $-1 $151 $274 $284 $288 reversed $210 $-1 #
loop $-1 $-1 $209 $232 #
vertex $-1 $288 $289 #
straight-curve $-1 30.4289321881345991 -5.428932188134539594 20 0.7071067811865460184 0.707106781186549016 -0 I I #
edge $-1 $154 -20 $230 20 $208 $290 forward 7 unknown #
point $-1 35.85786437626899925 -2.486899575160350019e-14 20 #
coedge $-1 $156 $291 $173 $242 forward $47 $-1 #
coedge $-1 $175 $292 $156 $217 reversed $171 $-1 #
edge $-1 $244 -36.92893218813450318 $221 -14.14213562373100075 $216 $111 forward 7 unknown #
coedge $-1 $293 $157 $292 $294 reversed $220 $-1 #
coedge $-1 $157 $293 $159 $223 reversed $220 $-1 #
loop $-1 $-1 $219 $295 #
vertex $-1 $217 $296 #
straight-curve $-1 5.428932188134510284 -30.42893218813449963 20 0.7071067811865460184 0.707106781186549016 -0 I I #
edge $-1 $161 -20 $297 20 $159 $298 forward 7 unknown #
face $-1 $98 $160 $2 $-1 $299 forward single #
point $-1 -2.486899575160350019e-14 -35.85786437626899925 20 #
face $-1 $248 $300 $2 $-1 $301 forward single #
loop $-1 $-1 $302 $164 #
plane-surface $-1 7.071067811865489716 42.92893218813450318 0 -0.707106781186549016 0.7071067811865460184 0 0 0 1 forward_v I I I I #
coedge $-1 $303 $304 $305 $306 forward $165 $-1 #
vertex $-1 $167 $307 #
straight-curve $-1 30.42893218813449963 5.428932188134510284 -20 0.707106781186549016 -0.7071067811865460184 0 I I #
face $-1 $308 $210 $2 $-1 $309 forward single #
plane-surface $-1 42.92893218813450318 -7.071067811865489716 0 0.7071067811865460184 0.707106781186549016 0 0 0 -1 forward_v I I I I #
face $-1 $75 $310 $2 $-1 $311 forward single #
loop $-1 $-1 $312 $170 #
plane-surface $-1 47 47 0 0 0 1 0.7071067811865460184 0.707106781186549016 0 forward_v I I I I #
coedge $-1 $238 $172 $174 $243 reversed $120 $-1 #
coedge $-1 $172 $237 $313 $314 reversed $120 $-1 #
coedge $-1 $315 $175 $172 $240 forward $171 $-1 #
edge $-1 $245 13.42893218813450318 $316 26.5 $239 $317 forward 7 unknown #
coedge $-1 $174 $173 $318 $319 reversed $83 $-1 #
edge $-1 $320 -9.242640687119370924 $244 9.242640687119230591 $215 $321 forward 7 unknown #
edge $-1 $322 -9.242640687119301646 $245 9.242640687119299869 $174 $323 forward 7 unknown #
vertex $-1 $176 $324 #
vertex $-1 $240 $325 #
straight-curve $-1 -36.92893218813450318 -50 5 0 0 -1 I I #
coedge $-1 $177 $253 $326 $327 reversed $178 $-1 #
face $-1 $295 $178 $2 $-1 $166 reversed single #
coedge $-1 $326 $328 $180 $250 forward $145 $-1 #
edge $-1 $264 14.14213562373100075 $251 50 $180 $329 forward 7 unknown #
vertex $-1 $327 $330 #
straight-curve $-1 -50 50 0 0 0 -1 I I #
coedge $-1 $247 $183 $331 $332 forward $178 $-1 #
coedge $-1 $291 $185 $333 $334 forward $47 $-1 #
coedge $-1 $190 $335 $185 $256 reversed $263 $-1 #
edge $-1 $192 -27.6776695296637314 $336 -7.677669529663677217 $185 $337 forward 7 unknown #
coedge $-1 $186 $281 $338 $339 forward $47 $-1 #
coedge $-1 $340 $331 $186 $259 reversed $300 $-1 #
edge $-1 $341 7.67766952966359284 $260 27.67766952966368166 $186 $342 forward 7 unknown #
vertex $-1 $332 $343 #
straight-curve $-1 0 50 20 -1 0 0 I I #
coedge $-1 $335 $190 $328 $344 reversed $263 $-1 #
loop $-1 $-1 $335 $197 #
vertex $-1 $344 $345 #
straight-curve $-1 -50 14.14213562373100075 0 -0 0 1 I I #
point $-1 -50 14.14213562373100075 20 #
coedge $-1 $346 $194 $293 $347 forward $145 $-1 #
edge $-1 $195 -27.67766952966368166 $297 -7.67766952966359284 $194 $348 forward 7 unknown #
point $-1 14.14213562373100075 -50 -20 #
face $-1 $168 $349 $2 $-1 $58 reversed single #
plane-surface $-1 -42.92893218813450318 7.071067811865489716 0 -0.7071067811865460184 -0.707106781186549016 0 0 0 1 forward_v I I I I #
coedge $-1 $333 $350 $351 $352 reversed $198 $-1 #
coedge $-1 $200 $276 $353 $354 forward $145 $-1 #
coedge $-1 $209 $208 $200 $275 reversed $210 $-1 #
edge $-1 $355 -27.67766952966368166 $230 -7.67766952966359284 $200 $356 forward 7 unknown #
coedge $-1 $273 $201 $357 $358 forward $145 $-1 #
coedge $-1 $201 $326 $359 $360 forward $145 $-1 #
coedge $-1 $302 $361 $201 $279 reversed $227 $-1 #
edge $-1 $362 7.677669529663677217 $363 27.6776695296637314 $201 $364 forward 7 unknown #
plane-surface $-1 0 0 -20 0 0 1 1 0 0 forward_v I I I I #
coedge $-1 $257 $205 $304 $365 forward $47 $-1 #
coedge $-1 $366 $305 $205 $283 reversed $310 $-1 #
edge $-1 $287 -9.242640687119370924 $367 9.242640687119230591 $205 $368 forward 7 unknown #
coedge $-1 $353 $206 $209 $288 forward $286 $-1 #
coedge $-1 $206 $369 $366 $370 forward $286 $-1 #
loop $-1 $-1 $285 $308 #
vertex $-1 $207 $371 #
edge $-1 $211 -20 $355 20 $284 $372 forward 7 unknown #
point $-1 50 14.14213562373100075 20 #
straight-curve $-1 35.85786437626899925 -2.486899575160350019e-14 0 0 0 -1 I I #
coedge $-1 $215 $254 $373 $374 forward $47 $-1 #
coedge $-1 $216 $375 $218 $294 forward $171 $-1 #
coedge $-1 $219 $218 $267 $347 reversed $220 $-1 #
edge $-1 $376 -20 $221 20 $292 $377 forward 7 unknown #
face $-1 $224 $220 $2 $-1 $378 forward single #
point $-1 -14.14213562373100075 -50 20 #
vertex $-1 $347 $379 #
straight-curve $-1 -2.486899575160350019e-14 -35.85786437626899925 0 0 0 -1 I I #
plane-surface $-1 7.071067811865460406 -42.92893218813450318 0 -0.7071067811865460184 -0.707106781186549016 0 0 0 1 forward_v I I I I #
loop $-1 $-1 $331 $226 #
plane-surface $-1 -7.071067811865460406 42.92893218813450318 0 0.7071067811865460184 0.707106781186549016 0 0 0 -1 forward_v I I I I #
coedge $-1 $338 $278 $340 $380 reversed $227 $-1 #
coedge $-1 $381 $229 $382 $383 forward $165 $-1 #
coedge $-1 $229 $384 $281 $365 reversed $165 $-1 #
coedge $-1 $282 $385 $229 $306 reversed $310 $-1 #
edge $-1 $367 -15 $386 5 $229 $387 forward 7 unknown #
point $-1 35.85786437626899925 -2.486899575160350019e-14 -20 #
face $-1 $202 $286 $2 $-1 $13 reversed single #
plane-surface $-1 42.92893218813450318 7.071067811865460406 0 0.707106781186549016 -0.7071067811865460184 0 0 0 -1 forward_v I I I I #
loop $-1 $-1 $366 $234 #
plane-surface $-1 43.46446609406729777 43.46446609406729777 10 0.7071067811865460184 0.707106781186549016 0 0 0 -1 forward_v I I I I #
coedge $-1 $382 $388 $369 $389 reversed $235 $-1 #
coedge $-1 $318 $390 $238 $314 forward $349 $-1 #
edge $-1 $316 -26.5 $322 -13.42893218813450318 $313 $391 forward 7 unknown #
coedge $-1 $375 $239 $390 $392 forward $171 $-1 #
vertex $-1 $314 $393 #
straight-curve $-1 -23.5 -50 0 -1 0 0 I I #
coedge $-1 $373 $313 $241 $319 forward $349 $-1 #
edge $-1 $322 -5 $320 15 $318 $394 forward 7 unknown #
vertex $-1 $374 $395 #
straight-curve $-1 -43.4644660940671983 -43.46446609406729777 20 0.707106781186549016 -0.7071067811865460184 0 I I #
vertex $-1 $314 $396 #
straight-curve $-1 -43.46446609406729777 -43.46446609406729777 0 0.707106781186549016 -0.7071067811865460184 0 I I #
point $-1 -36.92893218813450318 -50 20 #
point $-1 -36.92893218813450318 -50 0 #
coedge $-1 $277 $249 $247 $327 forward $145 $-1 #
edge $-1 $251 -50 $397 -14.14213562373100075 $247 $398 forward 7 unknown #
coedge $-1 $249 $399 $262 $344 forward $145 $-1 #
straight-curve $-1 -50 0 -20 0 1 0 I I #
point $-1 -50 50 -20 #
coedge $-1 $258 $359 $253 $332 reversed $300 $-1 #
edge $-1 $260 -20 $397 20 $253 $400 forward 7 unknown #
coedge $-1 $401 $272 $254 $334 reversed $198 $-1 #
edge $-1 $336 7.67766952966359284 $402 27.67766952966368166 $254 $403 forward 7 unknown #
coedge $-1 $255 $262 $401 $404 reversed $263 $-1 #
vertex $-1 $334 $405 #
straight-curve $-1 -30.42893218813449963 -5.428932188134510284 20 0.707106781186549016 -0.7071067811865460184 0 I I #
coedge $-1 $361 $302 $257 $339 reversed $227 $-1 #
edge $-1 $406 -27.6776695296637314 $341 -7.677669529663677217 $257 $407 forward 7 unknown #
coedge $-1 $359 $258 $302 $380 forward $300 $-1 #
vertex $-1 $339 $408 #
straight-curve $-1 5.428932188134539594 30.4289321881345991 20 -0.707106781186549016 0.7071067811865460184 0 I I #
point $-1 -14.14213562373100075 50 20 #
edge $-1 $409 7.677669529663677217 $264 27.6776695296637314 $328 $410 forward 7 unknown #
point $-1 -50 14.14213562373100075 -20 #
coedge $-1 $411 $267 $375 $412 forward $145 $-1 #
edge $-1 $297 7.677669529663677217 $376 27.6776695296637314 $267 $413 forward 7 unknown #
straight-curve $-1 -5.428932188134539594 -30.4289321881345991 -20 -0.707106781186549016 0.7071067811865460184 0 I I #
loop $-1 $-1 $318 $270 #
coedge $-1 $272 $401 $399 $414 reversed $198 $-1 #
coedge $-1 $415 $373 $272 $352 forward $349 $-1 #
edge $-1 $402 -20 $416 20 $351 $417 forward 7 unknown #
coedge $-1 $418 $284 $273 $354 reversed $286 $-1 #
edge $-1 $419 -50 $355 -14.14213562373100075 $353 $146 forward 7 unknown #
vertex $-1 $354 $420 #
straight-curve $-1 30.4289321881345991 -5.428932188134539594 -20 -0.7071067811865460184 -0.707106781186549016 0 I I #
coedge $-1 $384 $381 $276 $358 reversed $165 $-1 #
edge $-1 $363 14.14213562373100075 $419 50 $357 $398 forward 7 unknown #
coedge $-1 $331 $340 $277 $360 reversed $300 $-1 #
edge $-1 $397 -27.67766952966368166 $362 -7.67766952966359284 $277 $421 forward 7 unknown #
coedge $-1 $278 $338 $384 $422 reversed $227 $-1 #
vertex $-1 $279 $423 #
vertex $-1 $422 $424 #
straight-curve $-1 -5.428932188134510284 30.42893218813449963 -20 0.7071067811865460184 0.707106781186549016 -0 I I #
edge $-1 $367 -36.92893218813450318 $406 -14.14213562373100075 $304 $261 forward 7 unknown #
coedge $-1 $385 $282 $285 $370 reversed $310 $-1 #
vertex $-1 $306 $425 #
straight-curve $-1 43.4644660940671983 43.46446609406729777 20 -0.707106781186549016 0.7071067811865460184 0 I I #
coedge $-1 $285 $418 $312 $389 forward $286 $-1 #
edge $-1 $426 -5 $287 15 $285 $427 forward 7 unknown #
point $-1 50 36.92893218813450318 20 #
straight-curve $-1 50 14.14213562373100075 0 -0 -0 -1 I I #
coedge $-1 $351 $318 $291 $374 reversed $349 $-1 #
edge $-1 $402 14.14213562373100075 $320 36.92893218813450318 $373 $193 forward 7 unknown #
coedge $-1 $292 $315 $346 $412 reversed $171 $-1 #
vertex $-1 $347 $428 #
straight-curve $-1 -14.14213562373100075 -50 0 -0 0 1 I I #
plane-surface $-1 -7.071067811865489716 -42.92893218813450318 0 0.707106781186549016 -0.7071067811865460184 0 0 0 -1 forward_v I I I I #
point $-1 -2.486899575160350019e-14 -35.85786437626899925 -20 #
edge $-1 $341 -20 $362 20 $340 $429 forward 7 unknown #
coedge $-1 $357 $303 $418 $430 forward $165 $-1 #
coedge $-1 $388 $312 $303 $383 reversed $235 $-1 #
edge $-1 $386 13.42893218813450318 $431 26.5 $303 $432 forward 7 unknown #
coedge $-1 $304 $357 $361 $422 forward $165 $-1 #
coedge $-1 $305 $366 $388 $433 forward $310 $-1 #
vertex $-1 $383 $434 #
straight-curve $-1 36.92893218813450318 50 5 0 0 -1 I I #
coedge $-1 $312 $382 $385 $433 reversed $235 $-1 #
edge $-1 $431 -26.5 $426 -13.42893218813450318 $369 $435 forward 7 unknown #
coedge $-1 $313 $415 $315 $392 reversed $349 $-1 #
straight-curve $-1 -50 -23.5 0 0 1 0 I I #
edge $-1 $316 0 $436 20 $390 $437 forward 7 unknown #
point $-1 -50 -50 0 #
straight-curve $-1 -50 -36.92893218813450318 5 -0 0 1 I I #
point $-1 -50 -36.92893218813450318 20 #
point $-1 -50 -36.92893218813450318 0 #
vertex $-1 $327 $438 #
straight-curve $-1 0 50 -20 1 0 0 I I #
coedge $-1 $328 $411 $350 $414 forward $145 $-1 #
straight-curve $-1 -14.14213562373100075 50 0 0 0 -1 I I #
coedge $-1 $350 $333 $335 $404 forward $198 $-1 #
vertex $-1 $352 $439 #
straight-curve $-1 -30.4289321881345991 5.428932188134539594 20 -0.7071067811865460184 -0.707106781186549016 0 I I #
edge $-1 $336 -20 $409 20 $335 $440 forward 7 unknown #
point $-1 -35.85786437626899925 2.486899575160350019e-14 20 #
vertex $-1 $365 $441 #
straight-curve $-1 -5.428932188134510284 30.42893218813449963 20 -0.7071067811865460184 -0.707106781186549016 0 I I #
point $-1 2.486899575160350019e-14 35.85786437626899925 20 #
vertex $-1 $414 $442 #
straight-curve $-1 -30.42893218813449963 -5.428932188134510284 -20 -0.707106781186549016 0.7071067811865460184 0 I I #
coedge $-1 $399 $346 $415 $443 forward $145 $-1 #
edge $-1 $376 14.14213562373100075 $436 50 $375 $196 forward 7 unknown #
straight-curve $-1 5.428932188134510284 -30.42893218813449963 -20 -0.7071067811865460184 -0.707106781186549016 0 I I #
edge $-1 $416 -27.67766952966368166 $409 -7.67766952966359284 $399 $444 forward 7 unknown #
coedge $-1 $390 $351 $411 $443 reversed $349 $-1 #
vertex $-1 $443 $445 #
straight-curve $-1 -50 -14.14213562373100075 0 0 0 -1 I I #
coedge $-1 $369 $353 $381 $430 reversed $286 $-1 #
vertex $-1 $354 $446 #
point $-1 50 14.14213562373100075 -20 #
straight-curve $-1 5.428932188134539594 30.4289321881345991 -20 0.707106781186549016 -0.7071067811865460184 0 I I #
edge $-1 $363 -20 $406 20 $384 $447 forward 7 unknown #
point $-1 2.486899575160350019e-14 35.85786437626899925 -20 #
point $-1 14.14213562373100075 50 -20 #
point $-1 36.92893218813450318 50 20 #
vertex $-1 $389 $448 #
straight-curve $-1 50 36.92893218813450318 5 0 -0 1 I I #
point $-1 -14.14213562373100075 -50 -20 #
straight-curve $-1 2.486899575160350019e-14 35.85786437626899925 0 0 0 -1 I I #
edge $-1 $431 0 $419 20 $418 $449 forward 7 unknown #
vertex $-1 $383 $450 #
straight-curve $-1 23.5 50 0 1 0 -0 I I #
edge $-1 $426 -9.242640687119301646 $386 9.242640687119299869 $385 $451 forward 7 unknown #
point $-1 36.92893218813450318 50 0 #
straight-curve $-1 50 23.5 0 0 -1 0 I I #
vertex $-1 $443 $452 #
straight-curve $-1 -50 -50 0 0 0 -1 I I #
point $-1 -14.14213562373100075 50 -20 #
point $-1 -50 -14.14213562373100075 20 #
straight-curve $-1 -35.85786437626899925 2.486899575160350019e-14 0 0 0 -1 I I #
point $-1 14.14213562373100075 50 20 #
point $-1 -35.85786437626899925 2.486899575160350019e-14 -20 #
edge $-1 $436 -50 $416 -14.14213562373100075 $415 $329 forward 7 unknown #
straight-curve $-1 -30.4289321881345991 5.428932188134539594 -20 0.7071067811865460184 0.707106781186549016 -0 I I #
point $-1 -50 -14.14213562373100075 -20 #
point $-1 50 50 -20 #
straight-curve $-1 14.1421356237308995 50 0 0 0 1 I I #
point $-1 50 36.92893218813450318 0 #
straight-curve $-1 50 50 0 0 0 -1 I I #
point $-1 50 50 0 #
straight-curve $-1 43.46446609406729777 43.46446609406729777 0 -0.707106781186549016 0.7071067811865460184 0 I I #
point $-1 -50 -50 -20 #
End-of-ACIS-data 