105 453 1 0                             
body $-1 $1 $-1 $-1 #
lump $-1 $-1 $2 $0 #
shell $-1 $-1 $-1 $3 $1 #
face $-1 $4 $5 $2 $-1 $6 forward single #
face $-1 $7 $8 $2 $-1 $9 forward single #
loop $-1 $-1 $10 $3 #
plane-surface $-1 43.4644660940673 -43.4644660940673 10 0.707106781186546 -0.707106781186549 0 0 0 -1 0 #
face $-1 $11 $12 $2 $-1 $13 reversed single #
loop $-1 $-1 $14 $4 #
plane-surface $-1 47 -47 0 0 0 1 0.707106781186546 -0.707106781186549 0 0 #
coedge $-1 $15 $16 $17 $18 1 $5 $-1 #
face $-1 $19 $20 $2 $-1 $21 forward single #
loop $-1 $-1 $17 $7 #
plane-surface $-1 50 0 0 -1 0 0 0 -0 1 0 #
coedge $-1 $22 $23 $24 $25 1 $8 $-1 #
coedge $-1 $26 $10 $27 $28 1 $5 $-1 #
coedge $-1 $10 $26 $22 $29 0 $5 $-1 #
coedge $-1 $24 $30 $10 $18 0 $12 $-1 #
edge $-1 $31 $32 $17 $33 0 #
face $-1 $34 $35 $2 $-1 $36 forward single #
loop $-1 $-1 $37 $11 #
plane-surface $-1 -43.4644660940673 43.4644660940673 10 -0.707106781186546 0.707106781186549 0 0 0 1 0 #
coedge $-1 $23 $14 $16 $29 1 $8 $-1 #
coedge $-1 $14 $22 $38 $39 1 $8 $-1 #
coedge $-1 $40 $17 $14 $25 0 $12 $-1 #
edge $-1 $32 $41 $24 $42 0 #
coedge $-1 $16 $15 $43 $44 1 $5 $-1 #
coedge $-1 $45 $46 $15 $28 0 $47 $-1 #
edge $-1 $48 $31 $27 $49 0 #
edge $-1 $50 $32 $16 $51 0 #
coedge $-1 $17 $52 $45 $53 1 $12 $-1 #
vertex $-1 $18 $54 #
vertex $-1 $25 $55 #
straight-curve $-1 50 -36.9289321881345 5 -0 -0 -1 #
face $-1 $56 $57 $2 $-1 $58 reversed single #
loop $-1 $-1 $59 $19 #
plane-surface $-1 -47 47 0 0 0 1 0.707106781186546 -0.707106781186549 0 0 #
coedge $-1 $60 $61 $62 $63 1 $20 $-1 #
coedge $-1 $43 $64 $23 $39 0 $65 $-1 #
edge $-1 $41 $50 $38 $66 0 #
coedge $-1 $67 $24 $64 $68 0 $12 $-1 #
vertex $-1 $39 $69 #
straight-curve $-1 50 -23.5 0 0 -1 0 #
coedge $-1 $70 $38 $26 $44 0 $65 $-1 #
edge $-1 $50 $48 $43 $71 0 #
coedge $-1 $72 $27 $30 $53 0 $47 $-1 #
coedge $-1 $27 $73 $70 $74 0 $47 $-1 #
loop $-1 $-1 $27 $75 #
vertex $-1 $74 $76 #
straight-curve $-1 43.4644660940672 -43.4644660940673 20 0.707106781186549 0.707106781186546 -0 #
vertex $-1 $39 $77 #
straight-curve $-1 43.4644660940673 -43.4644660940673 0 0.707106781186549 0.707106781186546 0 #
coedge $-1 $30 $67 $78 $79 0 $12 $-1 #
edge $-1 $31 $80 $30 $81 0 #
point $-1 50 -36.9289321881345 20 #
point $-1 50 -36.9289321881345 0 #
face $-1 $82 $83 $2 $-1 $84 forward single #
loop $-1 $-1 $62 $34 #
plane-surface $-1 -50 0 0 1 0 0 0 0 -1 0 #
coedge $-1 $85 $86 $87 $88 1 $35 $-1 #
coedge $-1 $89 $37 $90 $91 1 $20 $-1 #
coedge $-1 $37 $89 $85 $92 0 $20 $-1 #
coedge $-1 $87 $93 $37 $63 0 $57 $-1 #
edge $-1 $94 $95 $62 $96 0 #
coedge $-1 $38 $97 $40 $68 1 $65 $-1 #
loop $-1 $-1 $43 $98 #
straight-curve $-1 23.5 -50 0 -1 0 0 #
coedge $-1 $52 $40 $99 $100 1 $12 $-1 #
edge $-1 $41 $101 $40 $102 0 #
point $-1 50 -50 0 #
coedge $-1 $103 $43 $46 $74 1 $65 $-1 #
straight-curve $-1 36.9289321881345 -50 5 0 0 1 #
coedge $-1 $104 $45 $105 $106 0 $47 $-1 #
coedge $-1 $46 $107 $108 $109 0 $47 $-1 #
edge $-1 $110 $48 $70 $111 0 #
face $-1 $112 $47 $2 $-1 $113 forward single #
point $-1 36.9289321881345 -50 20 #
point $-1 36.9289321881345 -50 0 #
coedge $-1 $114 $105 $52 $79 1 $115 $-1 #
edge $-1 $116 $80 $52 $117 0 #
vertex $-1 $53 $118 #
straight-curve $-1 50 0 20 0 1 0 #
face $-1 $119 $120 $2 $-1 $121 forward single #
loop $-1 $-1 $122 $56 #
plane-surface $-1 -43.4644660940673 -43.4644660940673 10 -0.707106781186546 -0.707106781186549 0 0 0 1 0 #
coedge $-1 $86 $59 $61 $92 1 $35 $-1 #
coedge $-1 $59 $85 $123 $124 1 $35 $-1 #
coedge $-1 $125 $62 $59 $88 0 $57 $-1 #
edge $-1 $95 $126 $87 $127 0 #
coedge $-1 $61 $60 $128 $129 1 $20 $-1 #
coedge $-1 $130 $131 $60 $91 0 $47 $-1 #
edge $-1 $132 $94 $90 $133 0 #
edge $-1 $134 $95 $61 $135 0 #
coedge $-1 $62 $136 $130 $137 1 $57 $-1 #
vertex $-1 $63 $138 #
vertex $-1 $88 $139 #
straight-curve $-1 -50 36.9289321881345 5 0 0 -1 #
coedge $-1 $64 $103 $140 $141 1 $65 $-1 #
face $-1 $142 $65 $2 $-1 $143 reversed single #
coedge $-1 $140 $144 $67 $100 0 $145 $-1 #
edge $-1 $116 $101 $67 $146 0 #
vertex $-1 $68 $147 #
straight-curve $-1 50 -50 0 0 0 -1 #
coedge $-1 $97 $70 $148 $149 0 $65 $-1 #
coedge $-1 $150 $72 $151 $152 0 $47 $-1 #
coedge $-1 $78 $153 $72 $106 1 $115 $-1 #
edge $-1 $80 $154 $72 $155 0 #
coedge $-1 $73 $156 $157 $158 0 $47 $-1 #
coedge $-1 $159 $148 $73 $109 1 $160 $-1 #
edge $-1 $161 $110 $73 $162 0 #
vertex $-1 $149 $163 #
straight-curve $-1 0 -50 20 1 0 0 #
face $-1 $164 $165 $2 $-1 $166 reversed single #
plane-surface $-1 0 0 20 0 0 1 1 0 0 0 #
coedge $-1 $153 $78 $144 $167 1 $115 $-1 #
loop $-1 $-1 $153 $168 #
vertex $-1 $167 $169 #
straight-curve $-1 50 -14.142135623731 0 0 0 1 #
point $-1 50 -14.142135623731 20 #
face $-1 $170 $171 $2 $-1 $143 reversed single #
loop $-1 $-1 $172 $82 #
plane-surface $-1 -47 -47 0 0 0 1 0.707106781186546 0.707106781186549 0 0 #
coedge $-1 $173 $174 $175 $176 1 $83 $-1 #
coedge $-1 $128 $177 $86 $124 0 $178 $-1 #
edge $-1 $126 $134 $123 $179 0 #
coedge $-1 $180 $87 $177 $181 0 $57 $-1 #
vertex $-1 $124 $182 #
straight-curve $-1 -50 23.5 0 0 1 0 #
coedge $-1 $183 $123 $89 $129 0 $178 $-1 #
edge $-1 $134 $132 $128 $184 0 #
coedge $-1 $185 $90 $93 $137 0 $47 $-1 #
coedge $-1 $90 $186 $183 $187 0 $47 $-1 #
vertex $-1 $187 $188 #
straight-curve $-1 -43.4644660940672 43.4644660940673 20 -0.707106781186549 -0.707106781186546 0 #
vertex $-1 $124 $189 #
straight-curve $-1 -43.4644660940673 43.4644660940673 0 -0.707106781186549 -0.707106781186546 0 #
coedge $-1 $93 $180 $190 $191 0 $57 $-1 #
edge $-1 $94 $192 $93 $193 0 #
point $-1 -50 36.9289321881345 20 #
point $-1 -50 36.9289321881345 0 #
coedge $-1 $194 $99 $97 $141 0 $145 $-1 #
edge $-1 $101 $195 $97 $196 0 #
face $-1 $197 $198 $2 $-1 $199 forward single #
plane-surface $-1 0 -50 0 0 1 -0 -0 0 1 0 #
coedge $-1 $99 $200 $114 $167 0 $145 $-1 #
loop $-1 $-1 $201 $202 #
straight-curve $-1 50 0 -20 0 -1 0 #
point $-1 50 -50 -20 #
coedge $-1 $108 $203 $103 $149 1 $160 $-1 #
edge $-1 $110 $195 $103 $204 0 #
coedge $-1 $205 $104 $206 $207 0 $47 $-1 #
coedge $-1 $208 $209 $104 $152 1 $210 $-1 #
edge $-1 $154 $211 $104 $212 0 #
coedge $-1 $105 $114 $208 $213 1 $115 $-1 #
vertex $-1 $106 $214 #
straight-curve $-1 30.4289321881345 5.42893218813451 20 -0.707106781186549 0.707106781186546 0 #
coedge $-1 $107 $215 $216 $217 0 $47 $-1 #
coedge $-1 $218 $219 $107 $158 1 $220 $-1 #
edge $-1 $221 $161 $107 $222 0 #
coedge $-1 $203 $108 $219 $223 0 $160 $-1 #
loop $-1 $-1 $148 $224 #
vertex $-1 $158 $225 #
straight-curve $-1 -5.42893218813454 -30.4289321881346 20 0.707106781186549 -0.707106781186546 0 #
point $-1 14.142135623731 -50 20 #
face $-1 $226 $227 $2 $-1 $228 forward single #
loop $-1 $-1 $229 $112 #
plane-surface $-1 0 50 0 0 -1 0 0 0 -1 0 #
edge $-1 $230 $116 $144 $231 0 #
face $-1 $232 $115 $2 $-1 $233 forward single #
point $-1 50 -14.142135623731 -20 #
face $-1 $234 $235 $2 $-1 $236 forward single #
loop $-1 $-1 $175 $119 #
coedge $-1 $237 $238 $239 $240 1 $120 $-1 #
coedge $-1 $241 $122 $215 $242 1 $83 $-1 #
coedge $-1 $122 $241 $237 $243 0 $83 $-1 #
coedge $-1 $239 $216 $122 $176 0 $171 $-1 #
edge $-1 $244 $245 $175 $246 0 #
coedge $-1 $123 $247 $125 $181 1 $178 $-1 #
loop $-1 $-1 $128 $248 #
straight-curve $-1 -23.5 50 0 1 0 -0 #
coedge $-1 $136 $125 $249 $250 1 $57 $-1 #
edge $-1 $126 $251 $177 $252 0 #
point $-1 -50 50 0 #
coedge $-1 $253 $128 $131 $187 1 $178 $-1 #
straight-curve $-1 -36.9289321881345 50 5 0 0 1 #
coedge $-1 $254 $130 $255 $256 0 $47 $-1 #
coedge $-1 $131 $257 $258 $259 0 $47 $-1 #
edge $-1 $260 $132 $183 $261 0 #
point $-1 -36.9289321881345 50 20 #
point $-1 -36.9289321881345 50 0 #
coedge $-1 $262 $255 $136 $191 1 $263 $-1 #
edge $-1 $264 $192 $136 $265 0 #
vertex $-1 $137 $266 #
straight-curve $-1 -50 0 20 0 -1 0 #
coedge $-1 $267 $140 $203 $268 0 $145 $-1 #
vertex $-1 $141 $269 #
straight-curve $-1 0 -50 -20 -1 0 0 #
face $-1 $270 $263 $2 $-1 $271 forward single #
loop $-1 $-1 $272 $142 #
plane-surface $-1 -42.9289321881345 -7.07106781186546 0 -0.707106781186549 0.707106781186546 0 0 0 1 0 #
coedge $-1 $144 $273 $274 $275 0 $145 $-1 #
coedge $-1 $276 $277 $278 $279 0 $145 $-1 #
face $-1 $-1 $145 $2 $-1 $280 reversed single #
coedge $-1 $148 $159 $194 $268 1 $160 $-1 #
straight-curve $-1 14.1421356237309 -50 0 -0 0 -1 #
coedge $-1 $281 $150 $282 $283 0 $47 $-1 #
coedge $-1 $284 $285 $150 $207 1 $286 $-1 #
edge $-1 $211 $287 $206 $81 0 #
coedge $-1 $274 $151 $153 $213 0 $210 $-1 #
coedge $-1 $151 $274 $284 $288 1 $210 $-1 #
loop $-1 $-1 $209 $232 #
vertex $-1 $288 $289 #
straight-curve $-1 30.4289321881346 -5.42893218813454 20 0.707106781186546 0.707106781186549 -0 #
edge $-1 $154 $230 $208 $290 0 #
point $-1 35.857864376269 -2.48689957516035e-14 20 #
coedge $-1 $156 $291 $173 $242 0 $47 $-1 #
coedge $-1 $175 $292 $156 $217 1 $171 $-1 #
edge $-1 $244 $221 $216 $111 0 #
coedge $-1 $293 $157 $292 $294 1 $220 $-1 #
coedge $-1 $157 $293 $159 $223 1 $220 $-1 #
loop $-1 $-1 $219 $295 #
vertex $-1 $217 $296 #
straight-curve $-1 5.42893218813451 -30.4289321881345 20 0.707106781186546 0.707106781186549 -0 #
edge $-1 $161 $297 $159 $298 0 #
face $-1 $98 $160 $2 $-1 $299 forward single #
point $-1 -2.48689957516035e-14 -35.857864376269 20 #
face $-1 $248 $300 $2 $-1 $301 forward single #
loop $-1 $-1 $302 $164 #
plane-surface $-1 7.07106781186549 42.9289321881345 0 -0.707106781186549 0.707106781186546 0 0 0 1 0 #
coedge $-1 $303 $304 $305 $306 0 $165 $-1 #
vertex $-1 $167 $307 #
straight-curve $-1 30.4289321881345 5.42893218813451 -20 0.707106781186549 -0.707106781186546 0 #
face $-1 $308 $210 $2 $-1 $309 forward single #
plane-surface $-1 42.9289321881345 -7.07106781186549 0 0.707106781186546 0.707106781186549 0 0 0 -1 0 #
face $-1 $75 $310 $2 $-1 $311 forward single #
loop $-1 $-1 $312 $170 #
plane-surface $-1 47 47 0 0 0 1 0.707106781186546 0.707106781186549 0 0 #
coedge $-1 $238 $172 $174 $243 1 $120 $-1 #
coedge $-1 $172 $237 $313 $314 1 $120 $-1 #
coedge $-1 $315 $175 $172 $240 0 $171 $-1 #
edge $-1 $245 $316 $239 $317 0 #
coedge $-1 $174 $173 $318 $319 1 $83 $-1 #
edge $-1 $320 $244 $215 $321 0 #
edge $-1 $322 $245 $174 $323 0 #
vertex $-1 $176 $324 #
vertex $-1 $240 $325 #
straight-curve $-1 -36.9289321881345 -50 5 0 0 -1 #
coedge $-1 $177 $253 $326 $327 1 $178 $-1 #
face $-1 $295 $178 $2 $-1 $166 reversed single #
coedge $-1 $326 $328 $180 $250 0 $145 $-1 #
edge $-1 $264 $251 $180 $329 0 #
vertex $-1 $327 $330 #
straight-curve $-1 -50 50 0 0 0 -1 #
coedge $-1 $247 $183 $331 $332 0 $178 $-1 #
coedge $-1 $291 $185 $333 $334 0 $47 $-1 #
coedge $-1 $190 $335 $185 $256 1 $263 $-1 #
edge $-1 $192 $336 $185 $337 0 #
coedge $-1 $186 $281 $338 $339 0 $47 $-1 #
coedge $-1 $340 $331 $186 $259 1 $300 $-1 #
edge $-1 $341 $260 $186 $342 0 #
vertex $-1 $332 $343 #
straight-curve $-1 0 50 20 -1 0 0 #
coedge $-1 $335 $190 $328 $344 1 $263 $-1 #
loop $-1 $-1 $335 $197 #
vertex $-1 $344 $345 #
straight-curve $-1 -50 14.142135623731 0 -0 0 1 #
point $-1 -50 14.142135623731 20 #
coedge $-1 $346 $194 $293 $347 0 $145 $-1 #
edge $-1 $195 $297 $194 $348 0 #
point $-1 14.142135623731 -50 -20 #
face $-1 $168 $349 $2 $-1 $58 reversed single #
plane-surface $-1 -42.9289321881345 7.07106781186549 0 -0.707106781186546 -0.707106781186549 0 0 0 1 0 #
coedge $-1 $333 $350 $351 $352 1 $198 $-1 #
coedge $-1 $200 $276 $353 $354 0 $145 $-1 #
coedge $-1 $209 $208 $200 $275 1 $210 $-1 #
edge $-1 $355 $230 $200 $356 0 #
coedge $-1 $273 $201 $357 $358 0 $145 $-1 #
coedge $-1 $201 $326 $359 $360 0 $145 $-1 #
coedge $-1 $302 $361 $201 $279 1 $227 $-1 #
edge $-1 $362 $363 $201 $364 0 #
plane-surface $-1 0 0 -20 0 0 1 1 0 0 0 #
coedge $-1 $257 $205 $304 $365 0 $47 $-1 #
coedge $-1 $366 $305 $205 $283 1 $310 $-1 #
edge $-1 $287 $367 $205 $368 0 #
coedge $-1 $353 $206 $209 $288 0 $286 $-1 #
coedge $-1 $206 $369 $366 $370 0 $286 $-1 #
loop $-1 $-1 $285 $308 #
vertex $-1 $207 $371 #
edge $-1 $211 $355 $284 $372 0 #
point $-1 50 14.142135623731 20 #
straight-curve $-1 35.857864376269 -2.48689957516035e-14 0 0 0 -1 #
coedge $-1 $215 $254 $373 $374 0 $47 $-1 #
coedge $-1 $216 $375 $218 $294 0 $171 $-1 #
coedge $-1 $219 $218 $267 $347 1 $220 $-1 #
edge $-1 $376 $221 $292 $377 0 #
face $-1 $224 $220 $2 $-1 $378 forward single #
point $-1 -14.142135623731 -50 20 #
vertex $-1 $347 $379 #
straight-curve $-1 -2.48689957516035e-14 -35.857864376269 0 0 0 -1 #
plane-surface $-1 7.07106781186546 -42.9289321881345 0 -0.707106781186546 -0.707106781186549 0 0 0 1 0 #
loop $-1 $-1 $331 $226 #
plane-surface $-1 -7.07106781186546 42.9289321881345 0 0.707106781186546 0.707106781186549 0 0 0 -1 0 #
coedge $-1 $338 $278 $340 $380 1 $227 $-1 #
coedge $-1 $381 $229 $382 $383 0 $165 $-1 #
coedge $-1 $229 $384 $281 $365 1 $165 $-1 #
coedge $-1 $282 $385 $229 $306 1 $310 $-1 #
edge $-1 $367 $386 $229 $387 0 #
point $-1 35.857864376269 -2.48689957516035e-14 -20 #
face $-1 $202 $286 $2 $-1 $13 reversed single #
plane-surface $-1 42.9289321881345 7.07106781186546 0 0.707106781186549 -0.707106781186546 0 0 0 -1 0 #
loop $-1 $-1 $366 $234 #
plane-surface $-1 43.4644660940673 43.4644660940673 10 0.707106781186546 0.707106781186549 0 0 0 -1 0 #
coedge $-1 $382 $388 $369 $389 1 $235 $-1 #
coedge $-1 $318 $390 $238 $314 0 $349 $-1 #
edge $-1 $316 $322 $313 $391 0 #
coedge $-1 $375 $239 $390 $392 0 $171 $-1 #
vertex $-1 $314 $393 #
straight-curve $-1 -23.5 -50 0 -1 0 0 #
coedge $-1 $373 $313 $241 $319 0 $349 $-1 #
edge $-1 $322 $320 $318 $394 0 #
vertex $-1 $374 $395 #
straight-curve $-1 -43.4644660940672 -43.4644660940673 20 0.707106781186549 -0.707106781186546 0 #
vertex $-1 $314 $396 #
straight-curve $-1 -43.4644660940673 -43.4644660940673 0 0.707106781186549 -0.707106781186546 0 #
point $-1 -36.9289321881345 -50 20 #
point $-1 -36.9289321881345 -50 0 #
coedge $-1 $277 $249 $247 $327 0 $145 $-1 #
edge $-1 $251 $397 $247 $398 0 #
coedge $-1 $249 $399 $262 $344 0 $145 $-1 #
straight-curve $-1 -50 0 -20 0 1 0 #
point $-1 -50 50 -20 #
coedge $-1 $258 $359 $253 $332 1 $300 $-1 #
edge $-1 $260 $397 $253 $400 0 #
coedge $-1 $401 $272 $254 $334 1 $198 $-1 #
edge $-1 $336 $402 $254 $403 0 #
coedge $-1 $255 $262 $401 $404 1 $263 $-1 #
vertex $-1 $334 $405 #
straight-curve $-1 -30.4289321881345 -5.42893218813451 20 0.707106781186549 -0.707106781186546 0 #
coedge $-1 $361 $302 $257 $339 1 $227 $-1 #
edge $-1 $406 $341 $257 $407 0 #
coedge $-1 $359 $258 $302 $380 0 $300 $-1 #
vertex $-1 $339 $408 #
straight-curve $-1 5.42893218813454 30.4289321881346 20 -0.707106781186549 0.707106781186546 0 #
point $-1 -14.142135623731 50 20 #
edge $-1 $409 $264 $328 $410 0 #
point $-1 -50 14.142135623731 -20 #
coedge $-1 $411 $267 $375 $412 0 $145 $-1 #
edge $-1 $297 $376 $267 $413 0 #
straight-curve $-1 -5.42893218813454 -30.4289321881346 -20 -0.707106781186549 0.707106781186546 0 #
loop $-1 $-1 $318 $270 #
coedge $-1 $272 $401 $399 $414 1 $198 $-1 #
coedge $-1 $415 $373 $272 $352 0 $349 $-1 #
edge $-1 $402 $416 $351 $417 0 #
coedge $-1 $418 $284 $273 $354 1 $286 $-1 #
edge $-1 $419 $355 $353 $146 0 #
vertex $-1 $354 $420 #
straight-curve $-1 30.4289321881346 -5.42893218813454 -20 -0.707106781186546 -0.707106781186549 0 #
coedge $-1 $384 $381 $276 $358 1 $165 $-1 #
edge $-1 $363 $419 $357 $398 0 #
coedge $-1 $331 $340 $277 $360 1 $300 $-1 #
edge $-1 $397 $362 $277 $421 0 #
coedge $-1 $278 $338 $384 $422 1 $227 $-1 #
vertex $-1 $279 $423 #
vertex $-1 $422 $424 #
straight-curve $-1 -5.42893218813451 30.4289321881345 -20 0.707106781186546 0.707106781186549 -0 #
edge $-1 $367 $406 $304 $261 0 #
coedge $-1 $385 $282 $285 $370 1 $310 $-1 #
vertex $-1 $306 $425 #
straight-curve $-1 43.4644660940672 43.4644660940673 20 -0.707106781186549 0.707106781186546 0 #
coedge $-1 $285 $418 $312 $389 0 $286 $-1 #
edge $-1 $426 $287 $285 $427 0 #
point $-1 50 36.9289321881345 20 #
straight-curve $-1 50 14.142135623731 0 -0 -0 -1 #
coedge $-1 $351 $318 $291 $374 1 $349 $-1 #
edge $-1 $402 $320 $373 $193 0 #
coedge $-1 $292 $315 $346 $412 1 $171 $-1 #
vertex $-1 $347 $428 #
straight-curve $-1 -14.142135623731 -50 0 -0 0 1 #
plane-surface $-1 -7.07106781186549 -42.9289321881345 0 0.707106781186549 -0.707106781186546 0 0 0 -1 0 #
point $-1 -2.48689957516035e-14 -35.857864376269 -20 #
edge $-1 $341 $362 $340 $429 0 #
coedge $-1 $357 $303 $418 $430 0 $165 $-1 #
coedge $-1 $388 $312 $303 $383 1 $235 $-1 #
edge $-1 $386 $431 $303 $432 0 #
coedge $-1 $304 $357 $361 $422 0 $165 $-1 #
coedge $-1 $305 $366 $388 $433 0 $310 $-1 #
vertex $-1 $383 $434 #
straight-curve $-1 36.9289321881345 50 5 0 0 -1 #
coedge $-1 $312 $382 $385 $433 1 $235 $-1 #
edge $-1 $431 $426 $369 $435 0 #
coedge $-1 $313 $415 $315 $392 1 $349 $-1 #
straight-curve $-1 -50 -23.5 0 0 1 0 #
edge $-1 $316 $436 $390 $437 0 #
point $-1 -50 -50 0 #
straight-curve $-1 -50 -36.9289321881345 5 -0 0 1 #
point $-1 -50 -36.9289321881345 20 #
point $-1 -50 -36.9289321881345 0 #
vertex $-1 $327 $438 #
straight-curve $-1 0 50 -20 1 0 0 #
coedge $-1 $328 $411 $350 $414 0 $145 $-1 #
straight-curve $-1 -14.142135623731 50 0 0 0 -1 #
coedge $-1 $350 $333 $335 $404 0 $198 $-1 #
vertex $-1 $352 $439 #
straight-curve $-1 -30.4289321881346 5.42893218813454 20 -0.707106781186546 -0.707106781186549 0 #
edge $-1 $336 $409 $335 $440 0 #
point $-1 -35.857864376269 2.48689957516035e-14 20 #
vertex $-1 $365 $441 #
straight-curve $-1 -5.42893218813451 30.4289321881345 20 -0.707106781186546 -0.707106781186549 0 #
point $-1 2.48689957516035e-14 35.857864376269 20 #
vertex $-1 $414 $442 #
straight-curve $-1 -30.4289321881345 -5.42893218813451 -20 -0.707106781186549 0.707106781186546 0 #
coedge $-1 $399 $346 $415 $443 0 $145 $-1 #
edge $-1 $376 $436 $375 $196 0 #
straight-curve $-1 5.42893218813451 -30.4289321881345 -20 -0.707106781186546 -0.707106781186549 0 #
edge $-1 $416 $409 $399 $444 0 #
coedge $-1 $390 $351 $411 $443 1 $349 $-1 #
vertex $-1 $443 $445 #
straight-curve $-1 -50 -14.142135623731 0 0 0 -1 #
coedge $-1 $369 $353 $381 $430 1 $286 $-1 #
vertex $-1 $354 $446 #
point $-1 50 14.142135623731 -20 #
straight-curve $-1 5.42893218813454 30.4289321881346 -20 0.707106781186549 -0.707106781186546 0 #
edge $-1 $363 $406 $384 $447 0 #
point $-1 2.48689957516035e-14 35.857864376269 -20 #
point $-1 14.142135623731 50 -20 #
point $-1 36.9289321881345 50 20 #
vertex $-1 $389 $448 #
straight-curve $-1 50 36.9289321881345 5 0 -0 1 #
point $-1 -14.142135623731 -50 -20 #
straight-curve $-1 2.48689957516035e-14 35.857864376269 0 0 0 -1 #
edge $-1 $431 $419 $418 $449 0 #
vertex $-1 $383 $450 #
straight-curve $-1 23.5 50 0 1 0 -0 #
edge $-1 $426 $386 $385 $451 0 #
point $-1 36.9289321881345 50 0 #
straight-curve $-1 50 23.5 0 0 -1 0 #
vertex $-1 $443 $452 #
straight-curve $-1 -50 -50 0 0 0 -1 #
point $-1 -14.142135623731 50 -20 #
point $-1 -50 -14.142135623731 20 #
straight-curve $-1 -35.857864376269 2.48689957516035e-14 0 0 0 -1 #
point $-1 14.142135623731 50 20 #
point $-1 -35.857864376269 2.48689957516035e-14 -20 #
edge $-1 $436 $416 $415 $329 0 #
straight-curve $-1 -30.4289321881346 5.42893218813454 -20 0.707106781186546 0.707106781186549 -0 #
point $-1 -50 -14.142135623731 -20 #
point $-1 50 50 -20 #
straight-curve $-1 14.1421356237309 50 0 0 0 1 #
point $-1 50 36.9289321881345 0 #
straight-curve $-1 50 50 0 0 0 -1 #
point $-1 50 50 0 #
straight-curve $-1 43.4644660940673 43.4644660940673 0 -0.707106781186549 0.707106781186546 0 #
point $-1 -50 -50 -20 #
