700 0 2 0           
24 FBMach with ACIS - 7.0.3 13 ACIS 7.0.3 NT 24 Tue May 14 09:19:43 2002 
1 9.9999999999999995e-007 1e-010 
body $2 -1 $-1 $3 $-1 $4 #
bdycol-kcp $-1 -1 1 3 $5 $6 $7 #
model_id-kcp-attrib $-1 -1 $-1 $-1 $0 1 1021382383 1021382383 693829633 1 #
lump $-1 -1 $-1 $-1 $8 $0 #
transform $-1 -1 1 0 0 0 1 0 0 0 1 0 0 0 1 rotate no_reflect no_shear #
body $9 -1 $-1 $10 $-1 $11 #
body $12 -1 $-1 $13 $-1 $14 #
body $15 -1 $-1 $16 $-1 $17 #
shell $-1 -1 $-1 $-1 $-1 $18 $-1 $3 #
model_id-kcp-attrib $-1 -1 $-1 $-1 $5 1 1021382383 1021382383 694484994 1 #
lump $-1 -1 $-1 $-1 $19 $5 #
transform $-1 -1 1 0 0 0 1 0 0 0 1 9.9999999999999964 0 0 1 no_rotate no_reflect no_shear #
rgb_color-st-attrib $-1 -1 $20 $-1 $6 1 0 0 #
lump $-1 -1 $-1 $-1 $21 $6 #
transform $-1 -1 1 0 0 0 1 0 0 0 1 9.9999999999999964 0 0 1 no_rotate no_reflect no_shear #
rgb_color-st-attrib $-1 -1 $22 $-1 $7 0.5 1 1 #
lump $-1 -1 $-1 $-1 $23 $7 #
transform $-1 -1 1 0 0 0 1 0 0 0 1 9.9999999999999964 0 0 1 no_rotate no_reflect no_shear #
face $24 -1 $-1 $25 $26 $8 $-1 $27 forward single #
shell $-1 -1 $-1 $-1 $-1 $28 $-1 $10 #
model_id-kcp-attrib $-1 -1 $-1 $12 $6 1 1021382383 1021382383 696057860 1 #
shell $-1 -1 $-1 $-1 $-1 $29 $-1 $13 #
model_id-kcp-attrib $-1 -1 $-1 $15 $7 1 1021382383 1021382383 699072515 1 #
shell $-1 -1 $-1 $-1 $-1 $30 $-1 $16 #
model_id-kcp-attrib $-1 -1 $-1 $-1 $18 1 1021382383 1021382383 693829633 2 #
face $31 -1 $-1 $32 $33 $8 $-1 $34 forward single #
loop $-1 -1 $-1 $-1 $35 $18 #
plane-surface $-1 -1 $-1 -20 0 0 -1 0 0 0 0 1 forward_v I I I I #
face $36 -1 $-1 $37 $38 $19 $-1 $39 forward single #
face $-1 -1 $-1 $40 $41 $21 $-1 $42 forward single #
face $-1 -1 $-1 $43 $44 $23 $-1 $45 reversed single #
model_id-kcp-attrib $-1 -1 $-1 $-1 $25 1 1021382383 1021382383 693829633 3 #
face $46 -1 $-1 $47 $48 $8 $-1 $49 forward single #
loop $-1 -1 $-1 $-1 $50 $25 #
plane-surface $-1 -1 $-1 0 0 -20 0 0 -1 -1 0 0 forward_v I I I I #
coedge $-1 -1 $-1 $51 $52 $53 $54 reversed $26 $-1 #
model_id-kcp-attrib $-1 -1 $-1 $-1 $28 1 1021382383 1021382383 694484994 4 #
face $55 -1 $-1 $56 $57 $19 $-1 $58 reversed single #
loop $-1 -1 $-1 $-1 $59 $28 #
plane-surface $-1 -1 $-1 0 0 20 0 0 1 1 0 0 forward_v I I I I #
face $-1 -1 $-1 $60 $61 $21 $-1 $62 forward single #
loop $-1 -1 $-1 $-1 $63 $29 #
cone-surface $-1 -1 $-1 -9.9999999999999982 -3.5527136788005009e-015 0 0 0 1 34.641016151377549 20 0 1 I I 0 1 40 forward I I I I #
face $-1 -1 $-1 $64 $65 $23 $-1 $45 reversed single #
loop $-1 -1 $-1 $-1 $66 $30 #
cone-surface $-1 -1 $-1 -9.9999999999999982 -3.5527136788005009e-015 -20 0 0 -1 34.641016151377549 20 0 1 I I 0 1 40 forward I I I I #
model_id-kcp-attrib $-1 -1 $-1 $-1 $32 1 1021382383 1021382383 693829633 4 #
face $67 -1 $-1 $68 $69 $8 $-1 $70 forward single #
loop $-1 -1 $-1 $-1 $71 $32 #
plane-surface $-1 -1 $-1 20 20 10 0 -1 0 0 0 -1 forward_v I I I I #
coedge $-1 -1 $-1 $72 $72 $73 $74 forward $33 $-1 #
coedge $-1 -1 $-1 $73 $35 $75 $76 reversed $26 $-1 #
coedge $-1 -1 $-1 $35 $73 $77 $78 reversed $26 $-1 #
coedge $-1 -1 $-1 $79 $80 $35 $54 forward $81 $-1 #
edge $82 -1 $-1 $83 -34.641016151377549 $84 34.641016151377549 $53 $85 forward @7 unknown #
model_id-kcp-attrib $-1 -1 $-1 $-1 $37 1 1021382383 1021382383 694484994 3 #
face $-1 -1 $-1 $86 $87 $19 $-1 $88 reversed single #
loop $-1 -1 $-1 $-1 $89 $37 #
plane-surface $-1 -1 $-1 0 0 -20 0 0 1 1 0 0 forward_v I I I I #
coedge $-1 -1 $-1 $90 $91 $92 $93 forward $38 $-1 #
face $-1 -1 $-1 $94 $95 $21 $-1 $96 forward single #
loop $-1 -1 $-1 $-1 $97 $40 #
plane-surface $-1 -1 $-1 24.641016151377553 -20 0 0 -1 0 0 0 -1 forward_v I I I I #
coedge $-1 -1 $-1 $98 $99 $100 $101 forward $41 $-1 #
face $-1 -1 $-1 $102 $103 $23 $-1 $45 reversed single #
loop $-1 -1 $-1 $-1 $104 $43 #
coedge $-1 -1 $-1 $105 $106 $107 $108 reversed $44 $-1 #
model_id-kcp-attrib $-1 -1 $-1 $-1 $47 1 1021382383 1021382383 693829633 5 #
face $109 -1 $-1 $110 $111 $8 $-1 $112 forward single #
loop $-1 -1 $-1 $-1 $113 $47 #
plane-surface $-1 -1 $-1 20 0 0 0 0 1 1 0 0 forward_v I I I I #
coedge $-1 -1 $-1 $114 $115 $116 $117 reversed $48 $-1 #
coedge $-1 -1 $-1 $50 $50 $118 $119 forward $33 $-1 #
coedge $-1 -1 $-1 $52 $51 $50 $74 reversed $26 $-1 #
edge $120 -1 $-1 $121 -34.641016151377549 $122 34.641016151377549 $50 $123 forward @7 unknown #
coedge $-1 -1 $-1 $124 $118 $51 $76 forward $125 $-1 #
edge $126 -1 $-1 $122 -20 $83 20 $75 $127 forward @7 unknown #
coedge $-1 -1 $-1 $118 $128 $52 $78 forward $125 $-1 #
edge $129 -1 $-1 $84 -20 $121 20 $77 $130 forward @7 unknown #
coedge $-1 -1 $-1 $131 $53 $128 $132 forward $81 $-1 #
coedge $-1 -1 $-1 $53 $133 $124 $134 forward $81 $-1 #
loop $-1 -1 $-1 $-1 $53 $135 #
model_id-kcp-attrib $-1 -1 $136 $-1 $54 1 1021382383 1021382383 693829633 11 #
vertex $-1 -1 $-1 $134 $137 #
vertex $-1 -1 $-1 $54 $138 #
straight-curve $-1 -1 $-1 -20 0 20 0 -1 0 I I #
face $139 -1 $-1 $140 $141 $19 $-1 $142 reversed single #
loop $-1 -1 $-1 $-1 $143 $56 #
plane-surface $-1 -1 $-1 0 -40 0 0 1 0 0 0 1 forward_v I I I I #
coedge $-1 -1 $-1 $144 $145 $146 $147 forward $57 $-1 #
coedge $-1 -1 $-1 $148 $59 $149 $150 forward $38 $-1 #
coedge $-1 -1 $-1 $59 $148 $151 $152 forward $38 $-1 #
coedge $-1 -1 $-1 $153 $154 $59 $93 reversed $155 $-1 #
edge $-1 -1 $-1 $156 -40 $157 40 $92 $158 forward @7 unknown #
face $-1 -1 $-1 $159 $160 $21 $-1 $161 forward single #
loop $-1 -1 $-1 $-1 $162 $60 #
plane-surface $-1 -1 $-1 -9.9999999999999964 -20 0 -1 0 0 0 0 1 forward_v I I I I #
coedge $-1 -1 $-1 $163 $164 $165 $166 forward $61 $-1 #
coedge $-1 -1 $-1 $167 $63 $164 $168 reversed $41 $-1 #
coedge $-1 -1 $-1 $63 $167 $169 $170 forward $41 $-1 #
coedge $-1 -1 $-1 $171 $165 $63 $101 reversed $172 $-1 #
edge $-1 -1 $-1 $173 -7.1054273576010008e-017 $174 1.0471975511965976 $63 $175 forward @7 unknown #
face $-1 -1 $-1 $176 $177 $23 $-1 $45 reversed single #
loop $-1 -1 $-1 $-1 $178 $64 #
coedge $-1 -1 $-1 $179 $180 $181 $182 reversed $65 $-1 #
coedge $-1 -1 $-1 $183 $66 $184 $185 reversed $44 $-1 #
coedge $-1 -1 $-1 $66 $183 $186 $187 reversed $44 $-1 #
coedge $-1 -1 $-1 $188 $189 $66 $108 forward $190 $-1 #
edge $-1 -1 $-1 $191 -1.5707963267948966 $192 -1.0471975511965979 $107 $193 forward @7 unknown #
model_id-kcp-attrib $-1 -1 $-1 $-1 $68 1 1021382383 1021382383 693829633 6 #
face $194 -1 $-1 $135 $195 $8 $-1 $196 forward single #
loop $-1 -1 $-1 $-1 $197 $68 #
plane-surface $-1 -1 $-1 20 -20 10 0 1 0 0 0 1 forward_v I I I I #
coedge $-1 -1 $-1 $198 $199 $200 $201 reversed $69 $-1 #
coedge $-1 -1 $-1 $202 $71 $133 $203 reversed $48 $-1 #
coedge $-1 -1 $-1 $71 $202 $198 $204 forward $48 $-1 #
coedge $-1 -1 $-1 $200 $124 $71 $117 forward $125 $-1 #
edge $-1 -1 $-1 $205 -20 $206 0 $116 $207 forward @7 unknown #
coedge $-1 -1 $-1 $75 $77 $72 $119 reversed $125 $-1 #
edge $208 -1 $-1 $122 -2.0943951023931957 $121 2.0943951023931957 $72 $209 forward @7 unknown #
attrib_edge_convexity-kcp-attrib $-1 -1 $210 $-1 $74 1 #
vertex $-1 -1 $-1 $119 $211 #
vertex $-1 -1 $-1 $76 $212 #
straight-curve $-1 -1 $-1 -20 0 -20 0 1 0 I I #
coedge $-1 -1 $-1 $116 $75 $80 $134 reversed $125 $-1 #
loop $-1 -1 $-1 $-1 $77 $213 #
attrib_edge_convexity-kcp-attrib $-1 -1 $214 $-1 $76 1 #
straight-curve $-1 -1 $-1 -20 34.641016151377549 0 0 0 1 I I #
coedge $-1 -1 $-1 $77 $215 $79 $132 reversed $125 $-1 #
attrib_edge_convexity-kcp-attrib $-1 -1 $216 $-1 $78 1 #
straight-curve $-1 -1 $-1 -20 -34.641016151377549 0 0 0 -1 I I #
coedge $-1 -1 $-1 $217 $79 $218 $219 forward $81 $-1 #
edge $-1 -1 $-1 $84 -2.0943951023931957 $220 -0.52359877559829882 $79 $221 forward @7 unknown #
coedge $-1 -1 $-1 $80 $217 $114 $203 forward $81 $-1 #
edge $-1 -1 $-1 $205 0.52359877559829882 $83 2.0943951023931957 $80 $221 forward @7 unknown #
face $222 -1 $-1 $213 $81 $8 $-1 $223 forward single #
attrib_edge_convexity-kcp-attrib $-1 -1 $224 $82 $54 1 #
point $-1 -1 $-1 -20 34.641016151377549 20 #
point $-1 -1 $-1 -20 -34.641016151377549 20 #
model_id-kcp-attrib $-1 -1 $-1 $-1 $86 1 1021382383 1021382383 694484994 2 #
face $-1 -1 $-1 $225 $226 $19 $-1 $227 reversed single #
loop $-1 -1 $-1 $-1 $228 $86 #
plane-surface $-1 -1 $-1 -30.000000000000004 0 0 1 0 0 0 0 -1 forward_v I I I I #
coedge $-1 -1 $-1 $229 $151 $230 $231 forward $87 $-1 #
coedge $-1 -1 $-1 $232 $89 $229 $233 forward $57 $-1 #
coedge $-1 -1 $-1 $89 $232 $234 $235 forward $57 $-1 #
coedge $-1 -1 $-1 $154 $153 $89 $147 reversed $155 $-1 #
edge $-1 -1 $-1 $236 -40 $237 40 $146 $238 forward @7 unknown #
coedge $-1 -1 $-1 $91 $90 $239 $240 forward $38 $-1 #
coedge $-1 -1 $-1 $241 $242 $90 $150 reversed $226 $-1 #
edge $-1 -1 $-1 $157 -30.000000000000004 $243 30.000000000000004 $149 $244 forward @7 unknown #
coedge $-1 -1 $-1 $143 $245 $91 $152 reversed $87 $-1 #
edge $-1 -1 $-1 $246 -30.000000000000004 $156 30.000000000000004 $151 $247 forward @7 unknown #
coedge $-1 -1 $-1 $146 $92 $245 $248 forward $155 $-1 #
coedge $-1 -1 $-1 $92 $146 $241 $249 reversed $155 $-1 #
loop $-1 -1 $-1 $-1 $153 $225 #
vertex $-1 -1 $-1 $93 $250 #
vertex $-1 -1 $-1 $93 $251 #
straight-curve $-1 -1 $-1 30.000000000000004 0 20 0 1 0 I I #
face $-1 -1 $-1 $252 $172 $21 $-1 $253 forward single #
loop $-1 -1 $-1 $-1 $254 $94 #
plane-surface $-1 -1 $-1 -9.9999999999999964 20 0 0 1 0 0 0 1 forward_v I I I I #
coedge $-1 -1 $-1 $255 $256 $257 $258 forward $95 $-1 #
coedge $-1 -1 $-1 $259 $97 $256 $260 reversed $61 $-1 #
coedge $-1 -1 $-1 $97 $259 $98 $168 forward $61 $-1 #
coedge $-1 -1 $-1 $100 $257 $97 $166 reversed $172 $-1 #
edge $-1 -1 $-1 $174 -14.641016151377549 $261 20 $97 $262 forward @7 unknown #
coedge $-1 -1 $-1 $99 $98 $263 $264 reversed $41 $-1 #
edge $-1 -1 $-1 $265 0 $174 20 $164 $266 forward @7 unknown #
coedge $-1 -1 $-1 $267 $254 $99 $170 reversed $160 $-1 #
edge $-1 -1 $-1 $268 0 $173 20 $99 $269 forward @7 unknown #
coedge $-1 -1 $-1 $257 $100 $254 $270 reversed $172 $-1 #
loop $-1 -1 $-1 $-1 $100 $159 #
vertex $-1 -1 $-1 $170 $271 #
vertex $-1 -1 $-1 $168 $272 #
ellipse-curve $-1 -1 $-1 -9.9999999999999982 -3.5527136788005009e-015 20 0 0 -1 34.641016151377549 20 0 1 I I #
face $-1 -1 $-1 $273 $274 $23 $-1 $275 reversed single #
loop $-1 -1 $-1 $-1 $276 $102 #
coedge $-1 -1 $-1 $277 $278 $279 $280 reversed $103 $-1 #
coedge $-1 -1 $-1 $281 $104 $282 $283 forward $65 $-1 #
coedge $-1 -1 $-1 $104 $281 $284 $285 reversed $65 $-1 #
coedge $-1 -1 $-1 $286 $287 $104 $182 forward $288 $-1 #
edge $-1 -1 $-1 $289 2.0943951023931953 $290 2.6179938779914944 $181 $193 forward @7 unknown #
coedge $-1 -1 $-1 $106 $105 $291 $292 reversed $44 $-1 #
coedge $-1 -1 $-1 $293 $294 $105 $185 forward $295 $-1 #
edge $-1 -1 $-1 $296 0 $191 40 $184 $297 forward @7 unknown #
coedge $-1 -1 $-1 $298 $299 $300 $187 forward $274 $-1 #
edge $-1 -1 $-1 $192 -40 $301 0 $186 $302 forward @7 unknown #
coedge $-1 -1 $-1 $189 $107 $299 $303 forward $190 $-1 #
coedge $-1 -1 $-1 $107 $188 $293 $304 forward $190 $-1 #
loop $-1 -1 $-1 $-1 $107 $305 #
vertex $-1 -1 $-1 $185 $306 #
vertex $-1 -1 $-1 $303 $307 #
ellipse-curve $-1 -1 $-1 -9.9999999999999982 -3.5527136788005009e-015 20 0 0 -1 34.641016151377549 20 0 1 I I #
model_id-kcp-attrib $-1 -1 $-1 $-1 $110 1 1021382383 1021382383 693829633 7 #
loop $-1 -1 $-1 $-1 $308 $110 #
plane-surface $-1 -1 $-1 0 0 10 1 0 0 0 0 -1 forward_v I I I I #
coedge $-1 -1 $-1 $309 $218 $215 $310 reversed $111 $-1 #
coedge $-1 -1 $-1 $311 $113 $115 $204 reversed $69 $-1 #
coedge $-1 -1 $-1 $113 $311 $309 $312 reversed $69 $-1 #
coedge $-1 -1 $-1 $215 $116 $113 $201 forward $125 $-1 #
edge $313 -1 $-1 $206 -0.52359877559829882 $314 0.52359877559829882 $200 $315 forward @7 unknown #
coedge $-1 -1 $-1 $115 $114 $308 $316 forward $48 $-1 #
edge $-1 -1 $-1 $317 -10 $205 24.641016151377549 $133 $318 forward @7 unknown #
edge $319 -1 $-1 $320 -20 $206 14.641016151377549 $115 $321 forward @7 unknown #
vertex $-1 -1 $-1 $117 $322 #
vertex $-1 -1 $-1 $201 $323 #
straight-curve $-1 -1 $-1 34.641016151377549 20 0 0 0 -1 I I #
attrib_edge_convexity-kcp-attrib $-1 -1 $324 $-1 $119 1 #
ellipse-curve $-1 -1 $-1 0 0 -20 0 0 -1 40 0 0 1 I I #
convexity-sys-attrib $-1 -1 $-1 $120 $74 #
point $-1 -1 $-1 -20 -34.641016151377549 -20 #
point $-1 -1 $-1 -20 34.641016151377549 -20 #
face $325 -1 $-1 $-1 $125 $8 $-1 $326 forward single #
convexity-sys-attrib $-1 -1 $-1 $126 $76 #
coedge $-1 -1 $-1 $128 $200 $197 $310 forward $125 $-1 #
convexity-sys-attrib $-1 -1 $-1 $129 $78 #
coedge $-1 -1 $-1 $133 $131 $327 $328 forward $81 $-1 #
coedge $-1 -1 $-1 $197 $329 $131 $219 reversed $111 $-1 #
edge $-1 -1 $-1 $220 -24.641016151377549 $330 10 $131 $331 forward @7 unknown #
vertex $-1 -1 $-1 $132 $332 #
ellipse-curve $-1 -1 $-1 0 0 20 0 0 1 40 0 0 1 I I #
model_id-kcp-attrib $-1 -1 $-1 $-1 $135 1 1021382383 1021382383 693829633 8 #
plane-surface $-1 -1 $-1 0 0 20 0 0 1 1 0 0 forward_v I I I I #
convexity-sys-attrib $-1 -1 $-1 $136 $54 #
face $-1 -1 $-1 $-1 $155 $19 $-1 $333 reversed single #
loop $-1 -1 $-1 $-1 $241 $140 #
plane-surface $-1 -1 $-1 0 40 0 0 -1 0 0 0 -1 forward_v I I I I #
coedge $-1 -1 $-1 $334 $239 $242 $335 forward $141 $-1 #
coedge $-1 -1 $-1 $245 $143 $144 $233 reversed $87 $-1 #
coedge $-1 -1 $-1 $239 $334 $143 $231 reversed $141 $-1 #
edge $-1 -1 $-1 $246 -20 $336 20 $230 $337 forward @7 unknown #
coedge $-1 -1 $-1 $145 $144 $334 $338 forward $57 $-1 #
edge $-1 -1 $-1 $237 -30.000000000000004 $336 30.000000000000004 $229 $339 forward @7 unknown #
coedge $-1 -1 $-1 $242 $241 $145 $235 reversed $226 $-1 #
edge $-1 -1 $-1 $340 -30.000000000000004 $236 30.000000000000004 $234 $341 forward @7 unknown #
vertex $-1 -1 $-1 $147 $342 #
vertex $-1 -1 $-1 $248 $343 #
straight-curve $-1 -1 $-1 30.000000000000004 0 -20 0 -1 0 I I #
coedge $-1 -1 $-1 $228 $230 $148 $240 reversed $141 $-1 #
edge $-1 -1 $-1 $243 -40 $246 40 $239 $344 forward @7 unknown #
coedge $-1 -1 $-1 $234 $149 $154 $249 forward $226 $-1 #
coedge $-1 -1 $-1 $149 $234 $228 $335 reversed $226 $-1 #
vertex $-1 -1 $-1 $150 $345 #
straight-curve $-1 -1 $-1 0 40 20 -1 0 0 I I #
coedge $-1 -1 $-1 $151 $229 $153 $248 reversed $87 $-1 #
vertex $-1 -1 $-1 $240 $346 #
straight-curve $-1 -1 $-1 0 -40 20 1 0 0 I I #
edge $-1 -1 $-1 $156 -20 $237 20 $153 $347 forward @7 unknown #
edge $-1 -1 $-1 $157 -20 $236 20 $154 $348 forward @7 unknown #
point $-1 -1 $-1 30.000000000000004 -40 20 #
point $-1 -1 $-1 30.000000000000004 40 20 #
face $-1 -1 $-1 $-1 $349 $21 $-1 $350 reversed single #
plane-surface $-1 -1 $-1 8.4238265689906715 0 20 0 0 1 1 0 0 forward_v I I I I #
coedge $-1 -1 $-1 $169 $351 $171 $270 forward $160 $-1 #
coedge $-1 -1 $-1 $352 $162 $351 $353 reversed $95 $-1 #
coedge $-1 -1 $-1 $162 $352 $163 $260 forward $95 $-1 #
coedge $-1 -1 $-1 $165 $171 $162 $258 reversed $172 $-1 #
edge $-1 -1 $-1 $261 -20 $354 20 $162 $355 forward @7 unknown #
coedge $-1 -1 $-1 $164 $163 $356 $357 reversed $61 $-1 #
edge $358 -1 $-1 $359 0 $261 20 $256 $360 forward @7 unknown #
vertex $-1 -1 $-1 $260 $361 #
straight-curve $-1 -1 $-1 10.000000000000004 -20 20 -1 0 0 I I #
coedge $-1 -1 $-1 $356 $362 $167 $264 forward $349 $-1 #
edge $363 -1 $-1 $268 -7.1054273576010008e-017 $265 1.0471975511965976 $167 $364 forward @7 unknown #
vertex $-1 -1 $-1 $264 $365 #
straight-curve $-1 -1 $-1 24.641016151377553 -20 0 0 0 1 I I #
coedge $-1 -1 $-1 $351 $169 $362 $366 reversed $160 $-1 #
vertex $-1 -1 $-1 $366 $367 #
straight-curve $-1 -1 $-1 24.641016151377553 20 0 0 0 1 I I #
edge $-1 -1 $-1 $354 -20 $173 14.641016151377549 $254 $368 forward @7 unknown #
point $-1 -1 $-1 24.641016151377553 20 20 #
point $-1 -1 $-1 24.641016151377553 -20 20 #
face $-1 -1 $-1 $369 $370 $23 $-1 $371 reversed single #
loop $-1 -1 $-1 $-1 $186 $176 #
plane-surface $-1 -1 $-1 0 40 0 0 -1 0 0 0 -1 forward_v I I I I #
coedge $-1 -1 $-1 $282 $372 $373 $374 reversed $177 $-1 #
coedge $-1 -1 $-1 $375 $178 $376 $377 reversed $103 $-1 #
coedge $-1 -1 $-1 $178 $375 $106 $187 forward $103 $-1 #
coedge $-1 -1 $-1 $378 $379 $178 $280 forward $380 $-1 #
edge $-1 -1 $-1 $381 -0.52359877559829882 $301 1.0471975511965979 $279 $382 forward @7 unknown #
coedge $-1 -1 $-1 $180 $179 $383 $384 reversed $65 $-1 #
coedge $-1 -1 $-1 $385 $276 $386 $283 reversed $177 $-1 #
edge $-1 -1 $-1 $289 -40 $387 0 $386 $388 forward @7 unknown #
coedge $-1 -1 $-1 $389 $390 $180 $285 forward $391 $-1 #
edge $-1 -1 $-1 $290 -40 $392 0 $284 $393 forward @7 unknown #
coedge $-1 -1 $-1 $287 $181 $390 $394 forward $288 $-1 #
coedge $-1 -1 $-1 $181 $286 $395 $396 forward $288 $-1 #
loop $-1 -1 $-1 $-1 $181 $397 #
vertex $-1 -1 $-1 $398 $399 #
vertex $-1 -1 $-1 $394 $400 #
coedge $-1 -1 $-1 $401 $402 $183 $292 forward $403 $-1 #
edge $-1 -1 $-1 $301 1.0471975511965979 $296 1.5707963267948966 $291 $382 forward @7 unknown #
coedge $-1 -1 $-1 $404 $184 $189 $304 reversed $295 $-1 #
coedge $-1 -1 $-1 $184 $404 $401 $405 reversed $295 $-1 #
loop $-1 -1 $-1 $-1 $184 $406 #
vertex $-1 -1 $-1 $405 $407 #
straight-curve $-1 -1 $-1 -30.000000000000007 34.641016151377542 -20 0 0 1 I I #
coedge $-1 -1 $-1 $408 $186 $402 $409 reversed $274 $-1 #
coedge $-1 -1 $-1 $186 $408 $188 $303 reversed $274 $-1 #
coedge $-1 -1 $-1 $410 $411 $278 $187 reversed $412 $-1 #
vertex $-1 -1 $-1 $413 $414 #
straight-curve $-1 -1 $-1 -9.9999999999999982 40 -20 0 0 -1 I I #
edge $-1 -1 $-1 $192 9.9999999999999982 $415 30.000000000000004 $299 $416 forward @7 unknown #
edge $-1 -1 $-1 $415 -40 $191 -34.641016151377549 $293 $417 forward @7 unknown #
face $-1 -1 $-1 $418 $190 $23 $-1 $419 forward single #
point $-1 -1 $-1 -29.999999999999996 34.641016151377549 20 #
point $-1 -1 $-1 -9.9999999999999982 40 20 #
coedge $-1 -1 $-1 $327 $420 $202 $316 reversed $195 $-1 #
coedge $-1 -1 $-1 $329 $197 $199 $312 forward $111 $-1 #
edge $-1 -1 $-1 $314 0 $220 20 $215 $421 forward @7 unknown #
coedge $-1 -1 $-1 $199 $198 $420 $422 reversed $69 $-1 #
edge $423 -1 $-1 $314 -14.641016151377549 $424 20 $309 $425 forward @7 unknown #
attrib_edge_convexity-kcp-attrib $-1 -1 $426 $-1 $201 1 #
vertex $-1 -1 $-1 $201 $427 #
ellipse-curve $-1 -1 $-1 0 0 0 0 0 -1 40 0 0 1 I I #
edge $428 -1 $-1 $317 -10 $320 10 $202 $429 forward @7 unknown #
vertex $-1 -1 $-1 $328 $430 #
straight-curve $-1 -1 $-1 10 20 20 1 0 0 I I #
attrib_edge_convexity-kcp-attrib $-1 -1 $431 $-1 $204 2 #
vertex $-1 -1 $-1 $204 $432 #
straight-curve $-1 -1 $-1 20 20 0 1 0 0 I I #
point $-1 -1 $-1 34.641016151377549 20 20 #
point $-1 -1 $-1 34.641016151377549 20 0 #
convexity-sys-attrib $-1 -1 $-1 $208 $119 #
model_id-kcp-attrib $-1 -1 $-1 $-1 $213 1 1021382383 1021382383 693829633 9 #
cone-surface $-1 -1 $-1 0 0 0 0 0 1 40 0 0 1 I I 0 1 40 forward I I I I #
coedge $-1 -1 $-1 $433 $308 $217 $328 reversed $195 $-1 #
edge $434 -1 $-1 $330 -20 $317 20 $217 $435 forward @7 unknown #
coedge $-1 -1 $-1 $218 $309 $433 $436 reversed $111 $-1 #
vertex $-1 -1 $-1 $219 $437 #
straight-curve $-1 -1 $-1 10 -20 20 -1 0 0 I I #
point $-1 -1 $-1 34.641016151377549 -20 20 #
plane-surface $-1 -1 $-1 30.000000000000004 0 0 -1 0 0 0 0 1 forward_v I I I I #
coedge $-1 -1 $-1 $230 $228 $232 $338 reversed $141 $-1 #
edge $-1 -1 $-1 $243 -20 $340 20 $242 $438 forward @7 unknown #
vertex $-1 -1 $-1 $338 $439 #
straight-curve $-1 -1 $-1 -30.000000000000004 -40 0 0 0 -1 I I #
edge $-1 -1 $-1 $336 -40 $340 40 $334 $440 forward @7 unknown #
straight-curve $-1 -1 $-1 0 -40 -20 -1 0 0 I I #
vertex $-1 -1 $-1 $235 $441 #
straight-curve $-1 -1 $-1 0 40 -20 1 0 0 I I #
point $-1 -1 $-1 30.000000000000004 40 -20 #
point $-1 -1 $-1 30.000000000000004 -40 -20 #
straight-curve $-1 -1 $-1 -30.000000000000004 0 20 0 -1 0 I I #
point $-1 -1 $-1 -30.000000000000004 40 20 #
point $-1 -1 $-1 -30.000000000000004 -40 20 #
straight-curve $-1 -1 $-1 30.000000000000004 -40 0 0 0 -1 I I #
straight-curve $-1 -1 $-1 30.000000000000004 40 0 0 0 -1 I I #
loop $-1 -1 $-1 $-1 $362 $252 #
plane-surface $-1 -1 $-1 8.4238265689906715 0 0 0 0 1 1 0 0 forward_v I I I I #
coedge $-1 -1 $-1 $254 $267 $255 $353 forward $160 $-1 #
coedge $-1 -1 $-1 $256 $255 $442 $443 reversed $95 $-1 #
edge $444 -1 $-1 $445 0 $354 20 $351 $446 forward @7 unknown #
vertex $-1 -1 $-1 $353 $447 #
straight-curve $-1 -1 $-1 -9.9999999999999964 0 20 0 1 0 I I #
coedge $-1 -1 $-1 $442 $263 $259 $357 forward $349 $-1 #
edge $448 -1 $-1 $265 -14.641016151377549 $359 20 $259 $449 forward @7 unknown #
convexity-sys-attrib $-1 -1 $-1 $-1 $260 #
vertex $-1 -1 $-1 $357 $450 #
straight-curve $-1 -1 $-1 -9.9999999999999964 -20 0 0 0 1 I I #
point $-1 -1 $-1 -9.9999999999999964 -20 20 #
coedge $-1 -1 $-1 $263 $442 $267 $366 forward $349 $-1 #
convexity-sys-attrib $-1 -1 $-1 $-1 $264 #
ellipse-curve $-1 -1 $-1 -9.9999999999999982 -3.5527136788005009e-015 0 0 0 -1 34.641016151377549 20 0 1 I I #
point $-1 -1 $-1 24.641016151377553 -20 0 #
edge $451 -1 $-1 $445 -20 $268 14.641016151377549 $267 $452 forward @7 unknown #
point $-1 -1 $-1 24.641016151377553 20 0 #
straight-curve $-1 -1 $-1 10.000000000000004 20 20 1 0 0 I I #
face $-1 -1 $-1 $397 $453 $23 $-1 $454 reversed single #
loop $-1 -1 $-1 $-1 $376 $273 #
plane-surface $-1 -1 $-1 30.000000000000004 0 0 -1 0 0 0 0 1 forward_v I I I I #
coedge $-1 -1 $-1 $276 $385 $277 $377 forward $177 $-1 #
coedge $-1 -1 $-1 $455 $456 $276 $374 forward $457 $-1 #
edge $-1 -1 $-1 $387 -2.0943951023931953 $381 -0.52359877559829882 $373 $382 forward @7 unknown #
coedge $-1 -1 $-1 $278 $277 $458 $459 reversed $103 $-1 #
coedge $-1 -1 $-1 $460 $461 $462 $377 forward $370 $-1 #
edge $-1 -1 $-1 $463 -40 $381 0 $376 $464 forward @7 unknown #
coedge $-1 -1 $-1 $379 $279 $411 $413 forward $380 $-1 #
coedge $-1 -1 $-1 $279 $378 $460 $465 forward $380 $-1 #
loop $-1 -1 $-1 $-1 $279 $418 #
vertex $-1 -1 $-1 $466 $467 #
ellipse-curve $-1 -1 $-1 -9.9999999999999982 -3.5527136788005009e-015 -20 0 0 1 34.641016151377549 20 0 1 I I #
coedge $-1 -1 $-1 $468 $469 $281 $384 forward $470 $-1 #
edge $-1 -1 $-1 $392 -2.6179938779914944 $387 -2.0943951023931953 $383 $382 forward @7 unknown #
coedge $-1 -1 $-1 $372 $282 $471 $472 reversed $177 $-1 #
coedge $-1 -1 $-1 $473 $474 $475 $283 forward $453 $-1 #
vertex $-1 -1 $-1 $476 $477 #
straight-curve $-1 -1 $-1 -9.9999999999999982 -40 -20 0 0 -1 I I #
coedge $-1 -1 $-1 $478 $284 $469 $479 reversed $391 $-1 #
coedge $-1 -1 $-1 $284 $478 $286 $394 reversed $391 $-1 #
loop $-1 -1 $-1 $-1 $284 $480 #
vertex $-1 -1 $-1 $384 $481 #
straight-curve $-1 -1 $-1 -30.000000000000007 -34.641016151377542 -20 0 0 -1 I I #
edge $-1 -1 $-1 $290 34.641016151377549 $482 40 $390 $417 forward @7 unknown #
coedge $-1 -1 $-1 $483 $475 $287 $396 reversed $484 $-1 #
edge $-1 -1 $-1 $482 -30.000000000000004 $289 -9.9999999999999982 $395 $485 forward @7 unknown #
face $-1 -1 $-1 $486 $288 $23 $-1 $419 forward single #
edge $-1 -1 $-1 $289 -9.9999999999999982 $487 30.000000000000004 $474 $485 forward @7 unknown #
point $-1 -1 $-1 -9.9999999999999982 -40 20 #
point $-1 -1 $-1 -29.999999999999996 -34.641016151377549 20 #
coedge $-1 -1 $-1 $402 $291 $294 $405 forward $403 $-1 #
coedge $-1 -1 $-1 $291 $401 $298 $409 forward $403 $-1 #
loop $-1 -1 $-1 $-1 $291 $488 #
coedge $-1 -1 $-1 $294 $293 $408 $489 forward $295 $-1 #
edge $-1 -1 $-1 $296 34.641016151377549 $490 40 $294 $491 forward @7 unknown #
face $-1 -1 $-1 $492 $295 $23 $-1 $493 reversed single #
point $-1 -1 $-1 -29.999999999999996 34.641016151377549 -20 #
coedge $-1 -1 $-1 $299 $298 $404 $489 reversed $274 $-1 #
edge $-1 -1 $-1 $490 -30.000000000000004 $301 -9.9999999999999982 $298 $494 forward @7 unknown #
coedge $-1 -1 $-1 $495 $300 $496 $497 reversed $412 $-1 #
coedge $-1 -1 $-1 $300 $495 $378 $413 reversed $412 $-1 #
loop $-1 -1 $-1 $-1 $300 $492 #
edge $-1 -1 $-1 $301 -9.9999999999999982 $498 30.000000000000004 $411 $494 forward @7 unknown #
point $-1 -1 $-1 -9.9999999999999982 40 -20 #
vertex $-1 -1 $-1 $303 $499 #
straight-curve $-1 -1 $-1 0 40 20 -1 0 0 I I #
straight-curve $-1 -1 $-1 -30.000000000000004 0 20 0 -1 0 I I #
face $-1 -1 $-1 $500 $380 $23 $-1 $501 reversed single #
plane-surface $-1 -1 $-1 0 0 20 0 0 1 1 0 0 forward_v I I I I #
coedge $-1 -1 $-1 $308 $433 $311 $422 forward $195 $-1 #
straight-curve $-1 -1 $-1 34.641016151377549 -20 0 0 0 1 I I #
edge $502 -1 $-1 $424 -20 $320 20 $420 $503 forward @7 unknown #
attrib_edge_convexity-kcp-attrib $-1 -1 $504 $-1 $312 2 #
vertex $-1 -1 $-1 $422 $505 #
straight-curve $-1 -1 $-1 20 -20 0 -1 0 0 I I #
convexity-sys-attrib $-1 -1 $-1 $313 $201 #
point $-1 -1 $-1 34.641016151377549 -20 0 #
attrib_edge_convexity-kcp-attrib $-1 -1 $506 $-1 $316 2 #
straight-curve $-1 -1 $-1 0 20 10 0 0 -1 I I #
point $-1 -1 $-1 0 20 20 #
convexity-sys-attrib $-1 -1 $-1 $319 $204 #
point $-1 -1 $-1 0 20 0 #
coedge $-1 -1 $-1 $420 $327 $329 $436 forward $195 $-1 #
attrib_edge_convexity-kcp-attrib $-1 -1 $507 $-1 $328 1 #
straight-curve $-1 -1 $-1 0 0 20 0 1 0 I I #
edge $508 -1 $-1 $330 -10 $424 10 $433 $509 forward @7 unknown #
point $-1 -1 $-1 0 -20 20 #
straight-curve $-1 -1 $-1 -30.000000000000004 40 0 0 0 -1 I I #
point $-1 -1 $-1 -30.000000000000004 -40 -20 #
straight-curve $-1 -1 $-1 -30.000000000000004 0 -20 0 1 0 I I #
point $-1 -1 $-1 -30.000000000000004 40 -20 #
coedge $-1 -1 $-1 $362 $356 $352 $443 forward $349 $-1 #
edge $510 -1 $-1 $359 -20 $445 20 $352 $511 forward @7 unknown #
convexity-sys-attrib $-1 -1 $-1 $-1 $353 #
vertex $-1 -1 $-1 $366 $512 #
straight-curve $-1 -1 $-1 -9.9999999999999964 20 0 0 0 1 I I #
point $-1 -1 $-1 -9.9999999999999964 20 20 #
convexity-sys-attrib $-1 -1 $-1 $-1 $357 #
straight-curve $-1 -1 $-1 10.000000000000004 -20 0 -1 0 0 I I #
point $-1 -1 $-1 -9.9999999999999964 -20 0 #
convexity-sys-attrib $-1 -1 $-1 $-1 $366 #
straight-curve $-1 -1 $-1 10.000000000000004 20 0 1 0 0 I I #
loop $-1 -1 $-1 $-1 $386 $369 #
plane-surface $-1 -1 $-1 0 -40 0 0 1 0 0 0 1 forward_v I I I I #
coedge $-1 -1 $-1 $456 $373 $513 $466 forward $457 $-1 #
coedge $-1 -1 $-1 $373 $455 $473 $514 forward $457 $-1 #
loop $-1 -1 $-1 $-1 $373 $515 #
coedge $-1 -1 $-1 $516 $496 $375 $459 forward $517 $-1 #
edge $-1 -1 $-1 $192 -1.0471975511965979 $463 0.52359877559829882 $458 $193 forward @7 unknown #
coedge $-1 -1 $-1 $518 $376 $379 $465 reversed $370 $-1 #
coedge $-1 -1 $-1 $376 $518 $516 $519 reversed $370 $-1 #
coedge $-1 -1 $-1 $520 $513 $372 $377 reversed $521 $-1 #
vertex $-1 -1 $-1 $519 $522 #
straight-curve $-1 -1 $-1 30 -3.5527136788005009e-015 -20 0 0 -1 I I #
edge $-1 -1 $-1 $498 -40 $381 3.5527136788005009e-015 $460 $523 forward @7 unknown #
edge $-1 -1 $-1 $381 3.5527136788005009e-015 $524 40 $513 $523 forward @7 unknown #
point $-1 -1 $-1 30 -3.5527136788005009e-015 -20 #
coedge $-1 -1 $-1 $469 $383 $525 $476 forward $470 $-1 #
coedge $-1 -1 $-1 $383 $468 $389 $479 forward $470 $-1 #
loop $-1 -1 $-1 $-1 $383 $526 #
coedge $-1 -1 $-1 $527 $528 $385 $472 forward $529 $-1 #
edge $-1 -1 $-1 $463 0.52359877559829882 $289 2.0943951023931953 $471 $193 forward @7 unknown #
coedge $-1 -1 $-1 $530 $386 $456 $514 reversed $453 $-1 #
coedge $-1 -1 $-1 $386 $530 $527 $398 reversed $453 $-1 #
coedge $-1 -1 $-1 $395 $525 $179 $283 reversed $484 $-1 #
edge $-1 -1 $-1 $387 9.9999999999999982 $531 30.000000000000004 $525 $532 forward @7 unknown #
point $-1 -1 $-1 -9.9999999999999982 -40 -20 #
coedge $-1 -1 $-1 $390 $389 $483 $533 reversed $391 $-1 #
edge $-1 -1 $-1 $531 -40 $392 -34.641016151377549 $389 $491 forward @7 unknown #
face $-1 -1 $-1 $526 $391 $23 $-1 $493 reversed single #
point $-1 -1 $-1 -29.999999999999996 -34.641016151377549 -20 #
vertex $-1 -1 $-1 $394 $534 #
coedge $-1 -1 $-1 $525 $395 $478 $533 forward $484 $-1 #
loop $-1 -1 $-1 $-1 $475 $500 #
straight-curve $-1 -1 $-1 0 -40 20 1 0 0 I I #
face $-1 -1 $-1 $535 $529 $23 $-1 $419 forward single #
vertex $-1 -1 $-1 $536 $537 #
face $-1 -1 $-1 $305 $403 $23 $-1 $501 reversed single #
edge $-1 -1 $-1 $415 -20 $490 20 $408 $538 forward @7 unknown #
vertex $-1 -1 $-1 $409 $539 #
straight-curve $-1 -1 $-1 -30.000000000000004 0 -20 0 1 0 I I #
face $-1 -1 $-1 $540 $412 $23 $-1 $275 reversed single #
plane-surface $-1 -1 $-1 -30.000000000000004 0 0 1 0 0 0 0 -1 forward_v I I I I #
straight-curve $-1 -1 $-1 0 40 -20 1 0 0 I I #
coedge $-1 -1 $-1 $411 $410 $518 $541 forward $412 $-1 #
coedge $-1 -1 $-1 $458 $516 $410 $497 forward $517 $-1 #
edge $-1 -1 $-1 $542 -30.000000000000004 $192 9.9999999999999982 $410 $416 forward @7 unknown #
vertex $-1 -1 $-1 $465 $543 #
point $-1 -1 $-1 -30.000000000000004 40 20 #
face $-1 -1 $-1 $406 $484 $23 $-1 $454 reversed single #
plane-surface $-1 -1 $-1 0 0 -20 0 0 1 1 0 0 forward_v I I I I #
attrib_edge_convexity-kcp-attrib $-1 -1 $544 $-1 $422 2 #
straight-curve $-1 -1 $-1 0 0 0 0 1 0 I I #
convexity-sys-attrib $-1 -1 $-1 $423 $312 #
point $-1 -1 $-1 0 -20 0 #
convexity-sys-attrib $-1 -1 $-1 $428 $316 #
convexity-sys-attrib $-1 -1 $-1 $434 $328 #
attrib_edge_convexity-kcp-attrib $-1 -1 $545 $-1 $436 2 #
straight-curve $-1 -1 $-1 0 -20 10 0 0 -1 I I #
convexity-sys-attrib $-1 -1 $-1 $-1 $443 #
straight-curve $-1 -1 $-1 -9.9999999999999964 0 0 0 1 0 I I #
point $-1 -1 $-1 -9.9999999999999964 20 0 #
coedge $-1 -1 $-1 $462 $546 $455 $466 reversed $521 $-1 #
edge $-1 -1 $-1 $524 -30.000000000000004 $387 9.9999999999999982 $473 $532 forward @7 unknown #
face $-1 -1 $-1 $488 $457 $23 $-1 $501 reversed single #
coedge $-1 -1 $-1 $496 $458 $461 $519 forward $517 $-1 #
loop $-1 -1 $-1 $-1 $458 $535 #
coedge $-1 -1 $-1 $461 $460 $495 $541 reversed $370 $-1 #
edge $-1 -1 $-1 $463 -3.5527136788005009e-015 $542 40 $461 $547 forward @7 unknown #
coedge $-1 -1 $-1 $546 $462 $528 $536 reversed $521 $-1 #
loop $-1 -1 $-1 $-1 $462 $540 #
point $-1 -1 $-1 30 -3.5527136788005009e-015 20 #
straight-curve $-1 -1 $-1 30.000000000000004 0 -20 0 -1 0 I I #
vertex $-1 -1 $-1 $548 $549 #
coedge $-1 -1 $-1 $475 $483 $468 $476 reversed $484 $-1 #
face $-1 -1 $-1 $515 $470 $23 $-1 $501 reversed single #
coedge $-1 -1 $-1 $528 $471 $474 $398 forward $529 $-1 #
coedge $-1 -1 $-1 $471 $527 $520 $536 forward $529 $-1 #
loop $-1 -1 $-1 $-1 $471 $486 #
coedge $-1 -1 $-1 $474 $473 $546 $548 reversed $453 $-1 #
vertex $-1 -1 $-1 $479 $550 #
straight-curve $-1 -1 $-1 0 -40 -20 -1 0 0 I I #
edge $-1 -1 $-1 $482 -20 $531 20 $478 $551 forward @7 unknown #
point $-1 -1 $-1 -30.000000000000004 -40 20 #
face $-1 -1 $-1 $480 $517 $23 $-1 $419 forward single #
edge $-1 -1 $-1 $487 -40 $463 -3.5527136788005009e-015 $520 $547 forward @7 unknown #
point $-1 -1 $-1 30.000000000000004 -40 20 #
straight-curve $-1 -1 $-1 -30.000000000000004 40 0 0 0 -1 I I #
point $-1 -1 $-1 -30.000000000000004 40 -20 #
face $-1 -1 $-1 $-1 $521 $23 $-1 $371 reversed single #
edge $-1 -1 $-1 $542 -20 $498 20 $518 $552 forward @7 unknown #
vertex $-1 -1 $-1 $519 $553 #
point $-1 -1 $-1 30.000000000000004 40 -20 #
convexity-sys-attrib $-1 -1 $-1 $502 $422 #
convexity-sys-attrib $-1 -1 $-1 $508 $436 #
coedge $-1 -1 $-1 $513 $520 $530 $548 forward $521 $-1 #
straight-curve $-1 -1 $-1 30.000000000000004 0 20 0 1 0 I I #
edge $-1 -1 $-1 $487 -20 $524 20 $546 $554 forward @7 unknown #
point $-1 -1 $-1 30.000000000000004 -40 -20 #
point $-1 -1 $-1 -30.000000000000004 -40 -20 #
straight-curve $-1 -1 $-1 -30.000000000000004 -40 0 0 0 -1 I I #
straight-curve $-1 -1 $-1 30.000000000000004 40 0 0 0 -1 I I #
point $-1 -1 $-1 30.000000000000004 40 20 #
straight-curve $-1 -1 $-1 30.000000000000004 -40 0 0 0 -1 I I #
End-of-ACIS-data 