600 0 2 0           
24 FBMach with ACIS - 6.0.3 13 ACIS 6.0.3 NT 24 Wed May 23 20:18:36 2001 
1 9.9999999999999995e-007 1e-010 
body $2 $3 $-1 $4 #
bdycol-kcp $-1 1 3 $5 $6 $7 #
model_id-kcp-attrib $-1 $-1 $-1 $0 1 990663516 50 791805953 1 #
lump $-1 $-1 $8 $0 #
transform $-1 1 0 0 0 1 0 0 0 1 0 0 0 1 no_rotate no_reflect no_shear #
body $9 $10 $-1 $11 #
body $12 $13 $-1 $14 #
body $15 $16 $-1 $17 #
shell $-1 $-1 $-1 $18 $-1 $3 #
model_id-kcp-attrib $-1 $-1 $-1 $5 1 990663516 50 791805954 1 #
lump $-1 $-1 $19 $5 #
transform $-1 1 0 0 0 1 0 0 0 1 10 0 0 1 no_rotate no_reflect no_shear #
rgb_color-st-attrib $-1 $20 $-1 $6 0.5 1 1 #
lump $-1 $-1 $21 $6 #
transform $-1 1 0 0 0 1 0 0 0 1 10 0 0 1 no_rotate no_reflect no_shear #
rgb_color-st-attrib $-1 $22 $-1 $7 1 0 0 #
lump $-1 $-1 $23 $7 #
transform $-1 1 0 0 0 1 0 0 0 1 10 0 0 1 no_rotate no_reflect no_shear #
face $24 $25 $26 $8 $-1 $27 forward single #
shell $-1 $-1 $-1 $28 $-1 $10 #
model_id-kcp-attrib $-1 $-1 $12 $6 1 990663516 120 796393475 1 #
shell $-1 $-1 $-1 $29 $-1 $13 #
model_id-kcp-attrib $-1 $-1 $15 $7 1 990663516 320 792723460 1 #
shell $-1 $-1 $-1 $30 $-1 $16 #
model_id-kcp-attrib $-1 $-1 $-1 $18 1 990663516 50 791805953 2 #
face $31 $32 $33 $8 $-1 $34 forward single #
loop $-1 $-1 $35 $18 #
plane-surface $-1 -20 0 0 -1 0 0 0 0 1 forward_v I I I I #
face $36 $37 $38 $19 $-1 $39 forward single #
face $-1 $40 $41 $21 $-1 $42 reversed single #
face $-1 $43 $44 $23 $-1 $45 forward single #
model_id-kcp-attrib $-1 $46 $-1 $25 1 990663516 50 791805953 10 #
face $47 $48 $49 $8 $-1 $50 forward single #
loop $-1 $-1 $51 $25 #
plane-surface $-1 0 0 -20 0 0 -1 -1 0 0 forward_v I I I I #
coedge $-1 $52 $53 $54 $55 reversed $26 $-1 #
model_id-kcp-attrib $-1 $-1 $-1 $28 1 990663516 50 791805954 4 #
face $56 $57 $58 $19 $-1 $59 reversed single #
loop $-1 $-1 $60 $28 #
plane-surface $-1 0 0 20 0 0 1 1 0 0 forward_v I I I I #
face $-1 $61 $62 $21 $-1 $42 reversed single #
loop $-1 $-1 $63 $29 #
cone-surface $-1 -10 -3.5527136788005009e-015 -20 0 0 -1 34.641016151377549 20 0 1 I I 0 1 40 forward I I I I #
face $-1 $64 $65 $23 $-1 $66 forward single #
loop $-1 $-1 $67 $30 #
cone-surface $-1 -10 -3.5527136788005009e-015 0 0 0 1 34.641016151377549 20 0 1 I I 0 1 40 forward I I I I #
model_id-kcp-attrib $-1 $-1 $31 $25 1 990663516 50 791805953 3 #
model_id-kcp-attrib $-1 $-1 $-1 $32 1 990663516 50 791805953 4 #
face $68 $69 $70 $8 $-1 $71 forward single #
loop $-1 $-1 $72 $32 #
plane-surface $-1 20 20 10 0 -1 0 0 0 -1 forward_v I I I I #
coedge $-1 $73 $73 $74 $75 forward $33 $-1 #
coedge $-1 $74 $35 $76 $77 reversed $26 $-1 #
coedge $-1 $35 $74 $78 $79 reversed $26 $-1 #
coedge $-1 $80 $81 $35 $55 forward $82 $-1 #
edge $83 $84 -34.641016151377549 $85 34.641016151377549 $54 $86 forward 7 unknown #
model_id-kcp-attrib $-1 $-1 $-1 $37 1 990663516 50 791805954 3 #
face $-1 $87 $88 $19 $-1 $89 reversed single #
loop $-1 $-1 $90 $37 #
plane-surface $-1 0 0 -20 0 0 1 1 0 0 forward_v I I I I #
coedge $-1 $91 $92 $93 $94 forward $38 $-1 #
face $-1 $95 $96 $21 $-1 $42 reversed single #
loop $-1 $-1 $97 $40 #
coedge $-1 $98 $99 $100 $101 reversed $41 $-1 #
face $-1 $102 $103 $23 $-1 $104 forward single #
loop $-1 $-1 $105 $43 #
plane-surface $-1 24.641016151377549 -20 0 0 -1 0 0 0 -1 forward_v I I I I #
coedge $-1 $106 $107 $108 $109 forward $44 $-1 #
model_id-kcp-attrib $-1 $-1 $-1 $48 1 990663516 50 791805953 5 #
face $110 $111 $112 $8 $-1 $113 forward single #
loop $-1 $-1 $114 $48 #
plane-surface $-1 20 0 0 0 0 1 1 0 0 forward_v I I I I #
coedge $-1 $115 $116 $117 $118 reversed $49 $-1 #
coedge $-1 $51 $51 $119 $120 forward $33 $-1 #
coedge $-1 $53 $52 $51 $75 reversed $26 $-1 #
edge $121 $122 -34.641016151377549 $123 34.641016151377549 $51 $124 forward 7 unknown #
coedge $-1 $125 $119 $52 $77 forward $126 $-1 #
edge $127 $123 -20 $84 20 $76 $128 forward 7 unknown #
coedge $-1 $119 $129 $53 $79 forward $126 $-1 #
edge $130 $85 -20 $122 20 $78 $131 forward 7 unknown #
coedge $-1 $132 $54 $129 $133 forward $82 $-1 #
coedge $-1 $54 $134 $125 $135 forward $82 $-1 #
loop $-1 $-1 $54 $136 #
model_id-kcp-attrib $-1 $137 $-1 $55 1 990663516 50 791805953 11 #
vertex $-1 $135 $138 #
vertex $-1 $55 $139 #
straight-curve $-1 -20 0 20 0 -1 0 I I #
face $140 $141 $142 $19 $-1 $143 reversed single #
loop $-1 $-1 $144 $57 #
plane-surface $-1 0 -40 0 0 1 0 0 0 1 forward_v I I I I #
coedge $-1 $145 $146 $147 $148 forward $58 $-1 #
coedge $-1 $149 $60 $150 $151 forward $38 $-1 #
coedge $-1 $60 $149 $152 $153 forward $38 $-1 #
coedge $-1 $154 $155 $60 $94 reversed $156 $-1 #
edge $-1 $157 -40 $158 40 $93 $159 forward 7 unknown #
face $-1 $160 $161 $21 $-1 $42 reversed single #
loop $-1 $-1 $162 $61 #
coedge $-1 $163 $164 $165 $166 reversed $62 $-1 #
coedge $-1 $167 $63 $168 $169 reversed $41 $-1 #
coedge $-1 $63 $167 $170 $171 reversed $41 $-1 #
coedge $-1 $172 $173 $63 $101 forward $174 $-1 #
edge $-1 $175 -1.5707963267948966 $176 -1.0471975511965979 $100 $177 forward 7 unknown #
face $-1 $178 $179 $23 $-1 $180 forward single #
loop $-1 $-1 $181 $64 #
plane-surface $-1 -10 -20 0 -1 0 0 0 0 1 forward_v I I I I #
coedge $-1 $182 $183 $184 $185 forward $65 $-1 #
coedge $-1 $186 $67 $183 $187 reversed $44 $-1 #
coedge $-1 $67 $186 $188 $189 forward $44 $-1 #
coedge $-1 $190 $184 $67 $109 reversed $191 $-1 #
edge $-1 $192 -7.1054273576010008e-017 $193 1.0471975511965976 $67 $194 forward 7 unknown #
model_id-kcp-attrib $-1 $-1 $-1 $69 1 990663516 50 791805953 6 #
face $195 $136 $196 $8 $-1 $197 forward single #
loop $-1 $-1 $198 $69 #
plane-surface $-1 20 -20 10 0 1 0 0 0 1 forward_v I I I I #
coedge $-1 $199 $200 $201 $202 reversed $70 $-1 #
coedge $-1 $203 $72 $134 $204 reversed $49 $-1 #
coedge $-1 $72 $203 $199 $205 forward $49 $-1 #
coedge $-1 $201 $125 $72 $118 forward $126 $-1 #
edge $-1 $206 -20 $207 0 $117 $208 forward 7 unknown #
coedge $-1 $76 $78 $73 $120 reversed $126 $-1 #
edge $209 $123 -2.0943951023931953 $122 2.0943951023931953 $73 $210 forward 7 unknown #
attrib_edge_convexity-kcp-attrib $-1 $211 $-1 $75 1 #
vertex $-1 $120 $212 #
vertex $-1 $77 $213 #
straight-curve $-1 -20 0 -20 0 1 0 I I #
coedge $-1 $117 $76 $81 $135 reversed $126 $-1 #
loop $-1 $-1 $78 $214 #
attrib_edge_convexity-kcp-attrib $-1 $215 $-1 $77 1 #
straight-curve $-1 -20 34.641016151377549 0 0 0 1 I I #
coedge $-1 $78 $216 $80 $133 reversed $126 $-1 #
attrib_edge_convexity-kcp-attrib $-1 $217 $-1 $79 1 #
straight-curve $-1 -20 -34.641016151377549 0 0 0 -1 I I #
coedge $-1 $218 $80 $219 $220 forward $82 $-1 #
edge $-1 $85 -2.0943951023931953 $221 -0.52359877559829882 $80 $222 forward 7 unknown #
coedge $-1 $81 $218 $115 $204 forward $82 $-1 #
edge $-1 $206 0.52359877559829882 $84 2.0943951023931953 $81 $222 forward 7 unknown #
face $223 $214 $82 $8 $-1 $224 forward single #
attrib_edge_convexity-kcp-attrib $-1 $225 $83 $55 1 #
point $-1 -20 34.641016151377549 20 #
point $-1 -20 -34.641016151377549 20 #
model_id-kcp-attrib $-1 $-1 $-1 $87 1 990663516 50 791805954 2 #
face $-1 $226 $227 $19 $-1 $228 reversed single #
loop $-1 $-1 $229 $87 #
plane-surface $-1 -30 0 0 1 0 0 0 0 -1 forward_v I I I I #
coedge $-1 $230 $152 $231 $232 forward $88 $-1 #
coedge $-1 $233 $90 $230 $234 forward $58 $-1 #
coedge $-1 $90 $233 $235 $236 forward $58 $-1 #
coedge $-1 $155 $154 $90 $148 reversed $156 $-1 #
edge $-1 $237 -40 $238 40 $147 $239 forward 7 unknown #
coedge $-1 $92 $91 $240 $241 forward $38 $-1 #
coedge $-1 $242 $243 $91 $151 reversed $227 $-1 #
edge $-1 $158 -30 $244 30 $150 $245 forward 7 unknown #
coedge $-1 $144 $246 $92 $153 reversed $88 $-1 #
edge $-1 $247 -30 $157 30 $152 $248 forward 7 unknown #
coedge $-1 $147 $93 $246 $249 forward $156 $-1 #
coedge $-1 $93 $147 $242 $250 reversed $156 $-1 #
loop $-1 $-1 $154 $226 #
vertex $-1 $94 $251 #
vertex $-1 $94 $252 #
straight-curve $-1 30 0 20 0 1 0 I I #
face $-1 $253 $254 $21 $-1 $255 reversed single #
loop $-1 $-1 $256 $95 #
coedge $-1 $257 $258 $259 $260 reversed $96 $-1 #
coedge $-1 $261 $97 $262 $263 forward $62 $-1 #
coedge $-1 $97 $261 $264 $265 reversed $62 $-1 #
coedge $-1 $266 $267 $97 $166 forward $268 $-1 #
edge $-1 $269 2.0943951023931953 $270 2.6179938779914944 $165 $177 forward 7 unknown #
coedge $-1 $99 $98 $271 $272 reversed $41 $-1 #
coedge $-1 $273 $274 $98 $169 forward $275 $-1 #
edge $-1 $276 0 $175 40 $168 $277 forward 7 unknown #
coedge $-1 $278 $279 $280 $171 forward $254 $-1 #
edge $-1 $176 -40 $281 0 $170 $282 forward 7 unknown #
coedge $-1 $173 $100 $279 $283 forward $174 $-1 #
coedge $-1 $100 $172 $273 $284 forward $174 $-1 #
loop $-1 $-1 $100 $285 #
vertex $-1 $169 $286 #
vertex $-1 $283 $287 #
ellipse-curve $-1 -10 -3.5527136788005009e-015 20 0 0 -1 34.641016151377549 20 0 1 I I #
face $-1 $288 $191 $23 $-1 $289 forward single #
loop $-1 $-1 $290 $102 #
plane-surface $-1 -10 20 0 0 1 0 0 0 1 forward_v I I I I #
coedge $-1 $291 $292 $293 $294 forward $103 $-1 #
coedge $-1 $295 $105 $292 $296 reversed $65 $-1 #
coedge $-1 $105 $295 $106 $187 forward $65 $-1 #
coedge $-1 $108 $293 $105 $185 reversed $191 $-1 #
edge $-1 $193 -14.641016151377549 $297 20 $105 $298 forward 7 unknown #
coedge $-1 $107 $106 $299 $300 reversed $44 $-1 #
edge $-1 $301 0 $193 20 $183 $302 forward 7 unknown #
coedge $-1 $303 $290 $107 $189 reversed $179 $-1 #
edge $-1 $304 0 $192 20 $107 $305 forward 7 unknown #
coedge $-1 $293 $108 $290 $306 reversed $191 $-1 #
loop $-1 $-1 $108 $178 #
vertex $-1 $189 $307 #
vertex $-1 $187 $308 #
ellipse-curve $-1 -10 -3.5527136788005009e-015 20 0 0 -1 34.641016151377549 20 0 1 I I #
model_id-kcp-attrib $-1 $-1 $-1 $111 1 990663516 50 791805953 7 #
loop $-1 $-1 $309 $111 #
plane-surface $-1 0 0 10 1 0 0 0 0 -1 forward_v I I I I #
coedge $-1 $310 $219 $216 $311 reversed $112 $-1 #
coedge $-1 $312 $114 $116 $205 reversed $70 $-1 #
coedge $-1 $114 $312 $310 $313 reversed $70 $-1 #
coedge $-1 $216 $117 $114 $202 forward $126 $-1 #
edge $-1 $207 -0.52359877559829882 $314 0.52359877559829882 $201 $315 forward 7 unknown #
coedge $-1 $116 $115 $309 $316 forward $49 $-1 #
edge $-1 $317 -10 $206 24.641016151377549 $134 $318 forward 7 unknown #
edge $-1 $319 -20 $207 14.641016151377549 $116 $320 forward 7 unknown #
vertex $-1 $118 $321 #
vertex $-1 $202 $322 #
straight-curve $-1 34.641016151377549 20 0 0 0 -1 I I #
attrib_edge_convexity-kcp-attrib $-1 $323 $-1 $120 1 #
ellipse-curve $-1 0 0 -20 0 0 -1 40 0 0 1 I I #
convexity-sys-attrib $-1 $-1 $121 $75 #
point $-1 -20 -34.641016151377549 -20 #
point $-1 -20 34.641016151377549 -20 #
face $324 $-1 $126 $8 $-1 $325 forward single #
convexity-sys-attrib $-1 $-1 $127 $77 #
coedge $-1 $129 $201 $198 $311 forward $126 $-1 #
convexity-sys-attrib $-1 $-1 $130 $79 #
coedge $-1 $134 $132 $326 $327 forward $82 $-1 #
coedge $-1 $198 $328 $132 $220 reversed $112 $-1 #
edge $-1 $221 -24.641016151377549 $329 10 $132 $330 forward 7 unknown #
vertex $-1 $133 $331 #
ellipse-curve $-1 0 0 20 0 0 1 40 0 0 1 I I #
model_id-kcp-attrib $-1 $-1 $-1 $136 1 990663516 50 791805953 8 #
plane-surface $-1 0 0 20 0 0 1 1 0 0 forward_v I I I I #
convexity-sys-attrib $-1 $-1 $137 $55 #
face $-1 $-1 $156 $19 $-1 $332 reversed single #
loop $-1 $-1 $242 $141 #
plane-surface $-1 0 40 0 0 -1 0 0 0 -1 forward_v I I I I #
coedge $-1 $333 $240 $243 $334 forward $142 $-1 #
coedge $-1 $246 $144 $145 $234 reversed $88 $-1 #
coedge $-1 $240 $333 $144 $232 reversed $142 $-1 #
edge $-1 $247 -20 $335 20 $231 $336 forward 7 unknown #
coedge $-1 $146 $145 $333 $337 forward $58 $-1 #
edge $-1 $238 -30 $335 30 $230 $338 forward 7 unknown #
coedge $-1 $243 $242 $146 $236 reversed $227 $-1 #
edge $-1 $339 -30 $237 30 $235 $340 forward 7 unknown #
vertex $-1 $148 $341 #
vertex $-1 $249 $342 #
straight-curve $-1 30 0 -20 0 -1 0 I I #
coedge $-1 $229 $231 $149 $241 reversed $142 $-1 #
edge $-1 $244 -40 $247 40 $240 $343 forward 7 unknown #
coedge $-1 $235 $150 $155 $250 forward $227 $-1 #
coedge $-1 $150 $235 $229 $334 reversed $227 $-1 #
vertex $-1 $151 $344 #
straight-curve $-1 0 40 20 -1 0 0 I I #
coedge $-1 $152 $230 $154 $249 reversed $88 $-1 #
vertex $-1 $241 $345 #
straight-curve $-1 0 -40 20 1 0 0 I I #
edge $-1 $157 -20 $238 20 $154 $346 forward 7 unknown #
edge $-1 $158 -20 $237 20 $155 $347 forward 7 unknown #
point $-1 30 -40 20 #
point $-1 30 40 20 #
face $-1 $348 $349 $21 $-1 $350 reversed single #
loop $-1 $-1 $170 $160 #
plane-surface $-1 0 40 0 0 -1 0 0 0 -1 forward_v I I I I #
coedge $-1 $262 $351 $352 $353 reversed $161 $-1 #
coedge $-1 $354 $162 $355 $356 reversed $96 $-1 #
coedge $-1 $162 $354 $99 $171 forward $96 $-1 #
coedge $-1 $357 $358 $162 $260 forward $359 $-1 #
edge $-1 $360 -0.52359877559829882 $281 1.0471975511965979 $259 $361 forward 7 unknown #
coedge $-1 $164 $163 $362 $363 reversed $62 $-1 #
coedge $-1 $364 $256 $365 $263 reversed $161 $-1 #
edge $-1 $269 -40 $366 0 $365 $367 forward 7 unknown #
coedge $-1 $368 $369 $164 $265 forward $370 $-1 #
edge $-1 $270 -40 $371 0 $264 $372 forward 7 unknown #
coedge $-1 $267 $165 $369 $373 forward $268 $-1 #
coedge $-1 $165 $266 $374 $375 forward $268 $-1 #
loop $-1 $-1 $165 $376 #
vertex $-1 $377 $378 #
vertex $-1 $373 $379 #
coedge $-1 $380 $381 $167 $272 forward $382 $-1 #
edge $-1 $281 1.0471975511965979 $276 1.5707963267948966 $271 $361 forward 7 unknown #
coedge $-1 $383 $168 $173 $284 reversed $275 $-1 #
coedge $-1 $168 $383 $380 $384 reversed $275 $-1 #
loop $-1 $-1 $168 $385 #
vertex $-1 $384 $386 #
straight-curve $-1 -30 34.641016151377542 -20 0 0 1 I I #
coedge $-1 $387 $170 $381 $388 reversed $254 $-1 #
coedge $-1 $170 $387 $172 $283 reversed $254 $-1 #
coedge $-1 $389 $390 $258 $171 reversed $391 $-1 #
vertex $-1 $392 $393 #
straight-curve $-1 -10 40 -20 0 0 -1 I I #
edge $-1 $176 10 $394 30 $279 $395 forward 7 unknown #
edge $-1 $394 -40 $175 -34.641016151377549 $273 $396 forward 7 unknown #
face $-1 $397 $174 $21 $-1 $398 forward single #
point $-1 -30 34.641016151377549 20 #
point $-1 -10 40 20 #
face $-1 $-1 $399 $23 $-1 $400 reversed single #
plane-surface $-1 8.4238265689906697 0 20 0 0 1 1 0 0 forward_v I I I I #
coedge $-1 $188 $401 $190 $306 forward $179 $-1 #
coedge $-1 $402 $181 $401 $403 reversed $103 $-1 #
coedge $-1 $181 $402 $182 $296 forward $103 $-1 #
coedge $-1 $184 $190 $181 $294 reversed $191 $-1 #
edge $-1 $297 -20 $404 20 $181 $405 forward 7 unknown #
coedge $-1 $183 $182 $406 $407 reversed $65 $-1 #
edge $408 $409 0 $297 20 $292 $410 forward 7 unknown #
vertex $-1 $296 $411 #
straight-curve $-1 10 -20 20 -1 0 0 I I #
coedge $-1 $406 $412 $186 $300 forward $399 $-1 #
edge $413 $304 -7.1054273576010008e-017 $301 1.0471975511965976 $186 $414 forward 7 unknown #
vertex $-1 $300 $415 #
straight-curve $-1 24.641016151377549 -20 0 0 0 1 I I #
coedge $-1 $401 $188 $412 $416 reversed $179 $-1 #
vertex $-1 $416 $417 #
straight-curve $-1 24.641016151377549 20 0 0 0 1 I I #
edge $-1 $404 -20 $192 14.641016151377549 $290 $418 forward 7 unknown #
point $-1 24.641016151377549 20 20 #
point $-1 24.641016151377549 -20 20 #
coedge $-1 $326 $419 $203 $316 reversed $196 $-1 #
coedge $-1 $328 $198 $200 $313 forward $112 $-1 #
edge $-1 $314 0 $221 20 $216 $420 forward 7 unknown #
coedge $-1 $200 $199 $419 $421 reversed $70 $-1 #
edge $-1 $314 -14.641016151377549 $422 20 $310 $423 forward 7 unknown #
vertex $-1 $202 $424 #
ellipse-curve $-1 0 0 0 0 0 -1 40 0 0 1 I I #
edge $-1 $317 -10 $319 10 $203 $425 forward 7 unknown #
vertex $-1 $327 $426 #
straight-curve $-1 10 20 20 1 0 0 I I #
vertex $-1 $205 $427 #
straight-curve $-1 20 20 0 1 0 0 I I #
point $-1 34.641016151377549 20 20 #
point $-1 34.641016151377549 20 0 #
convexity-sys-attrib $-1 $-1 $209 $120 #
model_id-kcp-attrib $-1 $-1 $-1 $214 1 990663516 50 791805953 9 #
cone-surface $-1 0 0 0 0 0 1 40 0 0 1 I I 0 1 40 forward I I I I #
coedge $-1 $428 $309 $218 $327 reversed $196 $-1 #
edge $-1 $329 -20 $317 20 $218 $429 forward 7 unknown #
coedge $-1 $219 $310 $428 $430 reversed $112 $-1 #
vertex $-1 $220 $431 #
straight-curve $-1 10 -20 20 -1 0 0 I I #
point $-1 34.641016151377549 -20 20 #
plane-surface $-1 30 0 0 -1 0 0 0 0 1 forward_v I I I I #
coedge $-1 $231 $229 $233 $337 reversed $142 $-1 #
edge $-1 $244 -20 $339 20 $243 $432 forward 7 unknown #
vertex $-1 $337 $433 #
straight-curve $-1 -30 -40 0 0 0 -1 I I #
edge $-1 $335 -40 $339 40 $333 $434 forward 7 unknown #
straight-curve $-1 0 -40 -20 -1 0 0 I I #
vertex $-1 $236 $435 #
straight-curve $-1 0 40 -20 1 0 0 I I #
point $-1 30 40 -20 #
point $-1 30 -40 -20 #
straight-curve $-1 -30 0 20 0 -1 0 I I #
point $-1 -30 40 20 #
point $-1 -30 -40 20 #
straight-curve $-1 30 -40 0 0 0 -1 I I #
straight-curve $-1 30 40 0 0 0 -1 I I #
face $-1 $376 $436 $21 $-1 $437 reversed single #
loop $-1 $-1 $355 $253 #
plane-surface $-1 30 0 0 -1 0 0 0 0 1 forward_v I I I I #
coedge $-1 $256 $364 $257 $356 forward $161 $-1 #
coedge $-1 $438 $439 $256 $353 forward $440 $-1 #
edge $-1 $366 -2.0943951023931953 $360 -0.52359877559829882 $352 $361 forward 7 unknown #
coedge $-1 $258 $257 $441 $442 reversed $96 $-1 #
coedge $-1 $443 $444 $445 $356 forward $349 $-1 #
edge $-1 $446 -40 $360 0 $355 $447 forward 7 unknown #
coedge $-1 $358 $259 $390 $392 forward $359 $-1 #
coedge $-1 $259 $357 $443 $448 forward $359 $-1 #
loop $-1 $-1 $259 $397 #
vertex $-1 $449 $450 #
ellipse-curve $-1 -10 -3.5527136788005009e-015 -20 0 0 1 34.641016151377549 20 0 1 I I #
coedge $-1 $451 $452 $261 $363 forward $453 $-1 #
edge $-1 $371 -2.6179938779914944 $366 -2.0943951023931953 $362 $361 forward 7 unknown #
coedge $-1 $351 $262 $454 $455 reversed $161 $-1 #
coedge $-1 $456 $457 $458 $263 forward $436 $-1 #
vertex $-1 $459 $460 #
straight-curve $-1 -10 -40 -20 0 0 -1 I I #
coedge $-1 $461 $264 $452 $462 reversed $370 $-1 #
coedge $-1 $264 $461 $266 $373 reversed $370 $-1 #
loop $-1 $-1 $264 $463 #
vertex $-1 $363 $464 #
straight-curve $-1 -30 -34.641016151377556 -20 0 0 -1 I I #
edge $-1 $270 34.641016151377549 $465 40 $369 $396 forward 7 unknown #
coedge $-1 $466 $458 $267 $375 reversed $467 $-1 #
edge $-1 $465 -30 $269 -10 $374 $468 forward 7 unknown #
face $-1 $469 $268 $21 $-1 $398 forward single #
edge $-1 $269 -10 $470 30 $457 $468 forward 7 unknown #
point $-1 -10 -40 20 #
point $-1 -30 -34.641016151377549 20 #
coedge $-1 $381 $271 $274 $384 forward $382 $-1 #
coedge $-1 $271 $380 $278 $388 forward $382 $-1 #
loop $-1 $-1 $271 $471 #
coedge $-1 $274 $273 $387 $472 forward $275 $-1 #
edge $-1 $276 34.641016151377549 $473 40 $274 $474 forward 7 unknown #
face $-1 $475 $275 $21 $-1 $476 reversed single #
point $-1 -30 34.641016151377549 -20 #
coedge $-1 $279 $278 $383 $472 reversed $254 $-1 #
edge $-1 $473 -30 $281 -10 $278 $477 forward 7 unknown #
coedge $-1 $478 $280 $479 $480 reversed $391 $-1 #
coedge $-1 $280 $478 $357 $392 reversed $391 $-1 #
loop $-1 $-1 $280 $475 #
edge $-1 $281 -10 $481 30 $390 $477 forward 7 unknown #
point $-1 -10 40 -20 #
vertex $-1 $283 $482 #
straight-curve $-1 0 40 20 -1 0 0 I I #
straight-curve $-1 -30 0 20 0 -1 0 I I #
face $-1 $483 $359 $21 $-1 $484 reversed single #
plane-surface $-1 0 0 20 0 0 1 1 0 0 forward_v I I I I #
loop $-1 $-1 $412 $288 #
plane-surface $-1 8.4238265689906697 0 0 0 0 1 1 0 0 forward_v I I I I #
coedge $-1 $290 $303 $291 $403 forward $179 $-1 #
coedge $-1 $292 $291 $485 $486 reversed $103 $-1 #
edge $487 $488 0 $404 20 $401 $489 forward 7 unknown #
vertex $-1 $403 $490 #
straight-curve $-1 -10 0 20 0 1 0 I I #
coedge $-1 $485 $299 $295 $407 forward $399 $-1 #
edge $491 $301 -14.641016151377549 $409 20 $295 $492 forward 7 unknown #
convexity-sys-attrib $-1 $-1 $-1 $296 #
vertex $-1 $407 $493 #
straight-curve $-1 -10 -20 0 0 0 1 I I #
point $-1 -10 -20 20 #
coedge $-1 $299 $485 $303 $416 forward $399 $-1 #
convexity-sys-attrib $-1 $-1 $-1 $300 #
ellipse-curve $-1 -10 -3.5527136788005009e-015 0 0 0 -1 34.641016151377549 20 0 1 I I #
point $-1 24.641016151377549 -20 0 #
edge $494 $488 -20 $304 14.641016151377549 $303 $495 forward 7 unknown #
point $-1 24.641016151377549 20 0 #
straight-curve $-1 10 20 20 1 0 0 I I #
coedge $-1 $309 $428 $312 $421 forward $196 $-1 #
straight-curve $-1 34.641016151377549 -20 0 0 0 1 I I #
edge $-1 $422 -20 $319 20 $419 $496 forward 7 unknown #
vertex $-1 $421 $497 #
straight-curve $-1 20 -20 0 -1 0 0 I I #
point $-1 34.641016151377549 -20 0 #
straight-curve $-1 0 20 10 0 0 -1 I I #
point $-1 0 20 20 #
point $-1 0 20 0 #
coedge $-1 $419 $326 $328 $430 forward $196 $-1 #
straight-curve $-1 0 0 20 0 1 0 I I #
edge $-1 $329 -10 $422 10 $428 $498 forward 7 unknown #
point $-1 0 -20 20 #
straight-curve $-1 -30 40 0 0 0 -1 I I #
point $-1 -30 -40 -20 #
straight-curve $-1 -30 0 -20 0 1 0 I I #
point $-1 -30 40 -20 #
loop $-1 $-1 $365 $348 #
plane-surface $-1 0 -40 0 0 1 0 0 0 1 forward_v I I I I #
coedge $-1 $439 $352 $499 $449 forward $440 $-1 #
coedge $-1 $352 $438 $456 $500 forward $440 $-1 #
loop $-1 $-1 $352 $501 #
coedge $-1 $502 $479 $354 $442 forward $503 $-1 #
edge $-1 $176 -1.0471975511965979 $446 0.52359877559829882 $441 $177 forward 7 unknown #
coedge $-1 $504 $355 $358 $448 reversed $349 $-1 #
coedge $-1 $355 $504 $502 $505 reversed $349 $-1 #
coedge $-1 $506 $499 $351 $356 reversed $507 $-1 #
vertex $-1 $505 $508 #
straight-curve $-1 30 -3.5527136788005009e-015 -20 0 0 -1 I I #
edge $-1 $481 -40 $360 3.5527136788005009e-015 $443 $509 forward 7 unknown #
edge $-1 $360 3.5527136788005009e-015 $510 40 $499 $509 forward 7 unknown #
point $-1 30 -3.5527136788005009e-015 -20 #
coedge $-1 $452 $362 $511 $459 forward $453 $-1 #
coedge $-1 $362 $451 $368 $462 forward $453 $-1 #
loop $-1 $-1 $362 $512 #
coedge $-1 $513 $514 $364 $455 forward $515 $-1 #
edge $-1 $446 0.52359877559829882 $269 2.0943951023931953 $454 $177 forward 7 unknown #
coedge $-1 $516 $365 $439 $500 reversed $436 $-1 #
coedge $-1 $365 $516 $513 $377 reversed $436 $-1 #
coedge $-1 $374 $511 $163 $263 reversed $467 $-1 #
edge $-1 $366 10 $517 30 $511 $518 forward 7 unknown #
point $-1 -10 -40 -20 #
coedge $-1 $369 $368 $466 $519 reversed $370 $-1 #
edge $-1 $517 -40 $371 -34.641016151377549 $368 $474 forward 7 unknown #
face $-1 $512 $370 $21 $-1 $476 reversed single #
point $-1 -30 -34.641016151377549 -20 #
vertex $-1 $373 $520 #
coedge $-1 $511 $374 $461 $519 forward $467 $-1 #
loop $-1 $-1 $458 $483 #
straight-curve $-1 0 -40 20 1 0 0 I I #
face $-1 $521 $515 $21 $-1 $398 forward single #
vertex $-1 $522 $523 #
face $-1 $285 $382 $21 $-1 $484 reversed single #
edge $-1 $394 -20 $473 20 $387 $524 forward 7 unknown #
vertex $-1 $388 $525 #
straight-curve $-1 -30 0 -20 0 1 0 I I #
face $-1 $526 $391 $21 $-1 $255 reversed single #
plane-surface $-1 -30 0 0 1 0 0 0 0 -1 forward_v I I I I #
straight-curve $-1 0 40 -20 1 0 0 I I #
coedge $-1 $390 $389 $504 $527 forward $391 $-1 #
coedge $-1 $441 $502 $389 $480 forward $503 $-1 #
edge $-1 $528 -30 $176 10 $389 $395 forward 7 unknown #
vertex $-1 $448 $529 #
point $-1 -30 40 20 #
face $-1 $385 $467 $21 $-1 $437 reversed single #
plane-surface $-1 0 0 -20 0 0 1 1 0 0 forward_v I I I I #
coedge $-1 $412 $406 $402 $486 forward $399 $-1 #
edge $530 $409 -20 $488 20 $402 $531 forward 7 unknown #
convexity-sys-attrib $-1 $-1 $-1 $403 #
vertex $-1 $416 $532 #
straight-curve $-1 -10 20 0 0 0 1 I I #
point $-1 -10 20 20 #
convexity-sys-attrib $-1 $-1 $-1 $407 #
straight-curve $-1 10 -20 0 -1 0 0 I I #
point $-1 -10 -20 0 #
convexity-sys-attrib $-1 $-1 $-1 $416 #
straight-curve $-1 10 20 0 1 0 0 I I #
straight-curve $-1 0 0 0 0 1 0 I I #
point $-1 0 -20 0 #
straight-curve $-1 0 -20 10 0 0 -1 I I #
coedge $-1 $445 $533 $438 $449 reversed $507 $-1 #
edge $-1 $510 -30 $366 10 $456 $518 forward 7 unknown #
face $-1 $471 $440 $21 $-1 $484 reversed single #
coedge $-1 $479 $441 $444 $505 forward $503 $-1 #
loop $-1 $-1 $441 $521 #
coedge $-1 $444 $443 $478 $527 reversed $349 $-1 #
edge $-1 $446 -3.5527136788005009e-015 $528 40 $444 $534 forward 7 unknown #
coedge $-1 $533 $445 $514 $522 reversed $507 $-1 #
loop $-1 $-1 $445 $526 #
point $-1 30 -3.5527136788005009e-015 20 #
straight-curve $-1 30 0 -20 0 -1 0 I I #
vertex $-1 $535 $536 #
coedge $-1 $458 $466 $451 $459 reversed $467 $-1 #
face $-1 $501 $453 $21 $-1 $484 reversed single #
coedge $-1 $514 $454 $457 $377 forward $515 $-1 #
coedge $-1 $454 $513 $506 $522 forward $515 $-1 #
loop $-1 $-1 $454 $469 #
coedge $-1 $457 $456 $533 $535 reversed $436 $-1 #
vertex $-1 $462 $537 #
straight-curve $-1 0 -40 -20 -1 0 0 I I #
edge $-1 $465 -20 $517 20 $461 $538 forward 7 unknown #
point $-1 -30 -40 20 #
face $-1 $463 $503 $21 $-1 $398 forward single #
edge $-1 $470 -40 $446 -3.5527136788005009e-015 $506 $534 forward 7 unknown #
point $-1 30 -40 20 #
straight-curve $-1 -30 40 0 0 0 -1 I I #
point $-1 -30 40 -20 #
face $-1 $-1 $507 $21 $-1 $350 reversed single #
edge $-1 $528 -20 $481 20 $504 $539 forward 7 unknown #
vertex $-1 $505 $540 #
point $-1 30 40 -20 #
convexity-sys-attrib $-1 $-1 $-1 $486 #
straight-curve $-1 -10 0 0 0 1 0 I I #
point $-1 -10 20 0 #
coedge $-1 $499 $506 $516 $535 forward $507 $-1 #
straight-curve $-1 30 0 20 0 1 0 I I #
edge $-1 $470 -20 $510 20 $533 $541 forward 7 unknown #
point $-1 30 -40 -20 #
point $-1 -30 -40 -20 #
straight-curve $-1 -30 -40 0 0 0 -1 I I #
straight-curve $-1 30 40 0 0 0 -1 I I #
point $-1 30 40 20 #
straight-curve $-1 30 -40 0 0 0 -1 I I #
End-of-ACIS-data 