600 0 1 0           
81 GICL ACIS Healer - Source: /gicl/data5/repository/Heriot_Watt/ex36/ex36.sat - 6 0 18 ACIS 6.0.3 Solaris 24 Sat Apr 13 23:38:33 2002 
1 9.999999999999999547e-07 1.000000000000000036e-10 
body $-1 $1 $-1 $-1 #
lump $-1 $-1 $2 $0 #
shell $-1 $-1 $-1 $3 $-1 $1 #
face $-1 $4 $5 $2 $-1 $6 forward single #
face $-1 $7 $8 $2 $-1 $9 forward single #
loop $-1 $-1 $10 $3 #
plane-surface $-1 -20 0 0 -1 0 0 0 0 1 forward_v I I I I #
face $-1 $11 $12 $2 $-1 $13 forward single #
loop $-1 $-1 $14 $4 #
plane-surface $-1 0 0 -20 0 0 -1 -1 0 0 forward_v I I I I #
coedge $-1 $15 $16 $17 $18 reversed $5 $-1 #
face $-1 $19 $20 $2 $-1 $21 forward single #
loop $-1 $-1 $22 $7 #
plane-surface $-1 20 20 10 0 -1 0 0 0 -1 forward_v I I I I #
coedge $-1 $23 $23 $24 $25 forward $8 $-1 #
coedge $-1 $24 $10 $26 $27 reversed $5 $-1 #
coedge $-1 $10 $24 $28 $29 reversed $5 $-1 #
coedge $-1 $30 $31 $10 $18 forward $32 $-1 #
edge $-1 $33 -34.64101615137754919 $34 34.64101615137754919 $17 $35 forward 7 unknown #
face $-1 $36 $37 $2 $-1 $38 forward single #
loop $-1 $-1 $39 $11 #
plane-surface $-1 20 0 0 0 0 1 1 0 0 forward_v I I I I #
coedge $-1 $40 $41 $42 $43 reversed $12 $-1 #
coedge $-1 $14 $14 $44 $45 forward $8 $-1 #
coedge $-1 $16 $15 $14 $25 reversed $5 $-1 #
edge $-1 $46 -34.64101615137754919 $47 34.64101615137754919 $14 $48 forward 7 unknown #
coedge $-1 $49 $44 $15 $27 forward $50 $-1 #
edge $-1 $47 -20 $33 20 $26 $51 forward 7 unknown #
coedge $-1 $44 $52 $16 $29 forward $50 $-1 #
edge $-1 $34 -20 $46 20 $28 $53 forward 7 unknown #
coedge $-1 $54 $17 $52 $55 forward $32 $-1 #
coedge $-1 $17 $56 $49 $57 forward $32 $-1 #
loop $-1 $-1 $17 $58 #
vertex $-1 $57 $59 #
vertex $-1 $18 $60 #
straight-curve $-1 -20 0 20 0 -1 0 I I #
face $-1 $58 $61 $2 $-1 $62 forward single #
loop $-1 $-1 $63 $19 #
plane-surface $-1 20 -20 10 0 1 0 0 0 1 forward_v I I I I #
coedge $-1 $64 $65 $66 $67 reversed $20 $-1 #
coedge $-1 $68 $22 $56 $69 reversed $12 $-1 #
coedge $-1 $22 $68 $64 $70 forward $12 $-1 #
coedge $-1 $66 $49 $22 $43 forward $50 $-1 #
edge $-1 $71 -20 $72 0 $42 $73 forward 7 unknown #
coedge $-1 $26 $28 $23 $45 reversed $50 $-1 #
edge $-1 $47 -2.094395102393195707 $46 2.094395102393195707 $23 $74 forward 7 unknown #
vertex $-1 $45 $75 #
vertex $-1 $27 $76 #
straight-curve $-1 -20 0 -20 0 1 0 I I #
coedge $-1 $42 $26 $31 $57 reversed $50 $-1 #
loop $-1 $-1 $28 $77 #
straight-curve $-1 -20 34.64101615137754919 0 0 0 1 I I #
coedge $-1 $28 $78 $30 $55 reversed $50 $-1 #
straight-curve $-1 -20 -34.64101615137754919 0 0 0 -1 I I #
coedge $-1 $79 $30 $80 $81 forward $32 $-1 #
edge $-1 $34 -2.094395102393195707 $82 -0.5235987755982988157 $30 $83 forward 7 unknown #
coedge $-1 $31 $79 $40 $69 forward $32 $-1 #
edge $-1 $71 0.5235987755982988157 $33 2.094395102393195707 $31 $83 forward 7 unknown #
face $-1 $77 $32 $2 $-1 $84 forward single #
point $-1 -20 34.64101615137754919 20 #
point $-1 -20 -34.64101615137754919 20 #
loop $-1 $-1 $85 $36 #
plane-surface $-1 0 0 10 1 0 0 0 0 -1 forward_v I I I I #
coedge $-1 $86 $80 $78 $87 reversed $37 $-1 #
coedge $-1 $88 $39 $41 $70 reversed $20 $-1 #
coedge $-1 $39 $88 $86 $89 reversed $20 $-1 #
coedge $-1 $78 $42 $39 $67 forward $50 $-1 #
edge $-1 $72 -0.5235987755982988157 $90 0.5235987755982988157 $66 $91 forward 7 unknown #
coedge $-1 $41 $40 $85 $92 forward $12 $-1 #
edge $-1 $93 -10 $71 24.64101615137754919 $56 $94 forward 7 unknown #
edge $-1 $95 -20 $72 14.64101615137754919 $41 $96 forward 7 unknown #
vertex $-1 $43 $97 #
vertex $-1 $67 $98 #
straight-curve $-1 34.64101615137754919 20 0 0 0 -1 I I #
ellipse-curve $-1 0 0 -20 0 0 -1 40 0 0 1 I I #
point $-1 -20 -34.64101615137754919 -20 #
point $-1 -20 34.64101615137754919 -20 #
face $-1 $-1 $50 $2 $-1 $99 forward single #
coedge $-1 $52 $66 $63 $87 forward $50 $-1 #
coedge $-1 $56 $54 $100 $101 forward $32 $-1 #
coedge $-1 $63 $102 $54 $81 reversed $37 $-1 #
edge $-1 $82 -24.64101615137754919 $103 10 $54 $104 forward 7 unknown #
vertex $-1 $55 $105 #
ellipse-curve $-1 0 0 20 0 0 1 40 0 0 1 I I #
plane-surface $-1 0 0 20 0 0 1 1 0 0 forward_v I I I I #
coedge $-1 $100 $106 $68 $92 reversed $61 $-1 #
coedge $-1 $102 $63 $65 $89 forward $37 $-1 #
edge $-1 $90 0 $82 20 $78 $107 forward 7 unknown #
coedge $-1 $65 $64 $106 $108 reversed $20 $-1 #
edge $-1 $90 -14.64101615137754919 $109 20 $86 $110 forward 7 unknown #
vertex $-1 $67 $111 #
ellipse-curve $-1 0 0 0 0 0 -1 40 0 0 1 I I #
edge $-1 $93 -10 $95 10 $68 $112 forward 7 unknown #
vertex $-1 $101 $113 #
straight-curve $-1 10 20 20 1 0 0 I I #
vertex $-1 $70 $114 #
straight-curve $-1 20 20 0 1 0 0 I I #
point $-1 34.64101615137754919 20 20 #
point $-1 34.64101615137754919 20 0 #
cone-surface $-1 0 0 0 0 0 1 40 0 0 1 I I 0 1 40 forward I I I I #
coedge $-1 $115 $85 $79 $101 reversed $61 $-1 #
edge $-1 $103 -20 $93 20 $79 $116 forward 7 unknown #
coedge $-1 $80 $86 $115 $117 reversed $37 $-1 #
vertex $-1 $81 $118 #
straight-curve $-1 10 -20 20 -1 0 0 I I #
point $-1 34.64101615137754919 -20 20 #
coedge $-1 $85 $115 $88 $108 forward $61 $-1 #
straight-curve $-1 34.64101615137754919 -20 0 0 0 1 I I #
edge $-1 $109 -20 $95 20 $106 $119 forward 7 unknown #
vertex $-1 $108 $120 #
straight-curve $-1 20 -20 0 -1 0 0 I I #
point $-1 34.64101615137754919 -20 0 #
straight-curve $-1 0 20 10 0 0 -1 I I #
point $-1 0 20 20 #
point $-1 0 20 0 #
coedge $-1 $106 $100 $102 $117 forward $61 $-1 #
straight-curve $-1 0 0 20 0 1 0 I I #
edge $-1 $103 -10 $109 10 $115 $121 forward 7 unknown #
point $-1 0 -20 20 #
straight-curve $-1 0 0 0 0 1 0 I I #
point $-1 0 -20 0 #
straight-curve $-1 0 -20 10 0 0 -1 I I #
End-of-ACIS-data 