106 0 1 0           
body $-1 $1 $-1 $-1 #
lump $-1 $-1 $2 $0 #
shell $-1 $-1 $-1 $3 $1 #
face $-1 $4 $5 $2 $-1 $6 forward single #
face $-1 $7 $8 $2 $-1 $9 forward single #
loop $-1 $-1 $10 $3 #
plane-surface $-1 -20 0 0 -1 0 0 0 0 1 0 I I I I #
face $-1 $11 $12 $2 $-1 $13 forward single #
loop $-1 $-1 $14 $4 #
plane-surface $-1 0 0 -20 0 0 -1 -1 0 0 0 I I I I #
coedge $-1 $15 $16 $17 $18 1 $5 $-1 #
face $-1 $19 $20 $2 $-1 $21 forward single #
loop $-1 $-1 $22 $7 #
plane-surface $-1 20 20 10 0 -1 0 0 0 -1 0 I I I I #
coedge $-1 $23 $23 $24 $25 0 $8 $-1 #
coedge $-1 $24 $10 $26 $27 1 $5 $-1 #
coedge $-1 $10 $24 $28 $29 1 $5 $-1 #
coedge $-1 $30 $31 $10 $18 0 $32 $-1 #
edge $-1 $33 $34 $17 $35 0 #
face $-1 $36 $37 $2 $-1 $38 forward single #
loop $-1 $-1 $39 $11 #
plane-surface $-1 20 0 0 0 0 1 1 0 0 0 I I I I #
coedge $-1 $40 $41 $42 $43 1 $12 $-1 #
coedge $-1 $14 $14 $44 $45 0 $8 $-1 #
coedge $-1 $16 $15 $14 $25 1 $5 $-1 #
edge $-1 $46 $47 $14 $48 0 #
coedge $-1 $49 $44 $15 $27 0 $50 $-1 #
edge $-1 $47 $33 $26 $51 0 #
coedge $-1 $44 $52 $16 $29 0 $50 $-1 #
edge $-1 $34 $46 $28 $53 0 #
coedge $-1 $54 $17 $52 $55 0 $32 $-1 #
coedge $-1 $17 $56 $49 $57 0 $32 $-1 #
loop $-1 $-1 $17 $58 #
vertex $-1 $57 $59 #
vertex $-1 $18 $60 #
straight-curve $-1 -20 0 20 0 -1 0 I I #
face $-1 $58 $61 $2 $-1 $62 forward single #
loop $-1 $-1 $63 $19 #
plane-surface $-1 20 -20 10 0 1 0 0 0 1 0 I I I I #
coedge $-1 $64 $65 $66 $67 1 $20 $-1 #
coedge $-1 $68 $22 $56 $69 1 $12 $-1 #
coedge $-1 $22 $68 $64 $70 0 $12 $-1 #
coedge $-1 $66 $49 $22 $43 0 $50 $-1 #
edge $-1 $71 $72 $42 $73 0 #
coedge $-1 $26 $28 $23 $45 1 $50 $-1 #
edge $-1 $47 $46 $23 $74 0 #
vertex $-1 $45 $75 #
vertex $-1 $27 $76 #
straight-curve $-1 -20 0 -20 0 1 0 I I #
coedge $-1 $42 $26 $31 $57 1 $50 $-1 #
loop $-1 $-1 $28 $77 #
straight-curve $-1 -20 34.641016151377549 0 0 0 1 I I #
coedge $-1 $28 $78 $30 $55 1 $50 $-1 #
straight-curve $-1 -20 -34.641016151377549 0 0 0 -1 I I #
coedge $-1 $79 $30 $80 $81 0 $32 $-1 #
edge $-1 $34 $82 $30 $83 0 #
coedge $-1 $31 $79 $40 $69 0 $32 $-1 #
edge $-1 $71 $33 $31 $83 0 #
face $-1 $77 $32 $2 $-1 $84 forward single #
point $-1 -20 34.641016151377549 20 #
point $-1 -20 -34.641016151377549 20 #
loop $-1 $-1 $85 $36 #
plane-surface $-1 0 0 10 1 0 0 0 0 -1 0 I I I I #
coedge $-1 $86 $80 $78 $87 1 $37 $-1 #
coedge $-1 $88 $39 $41 $70 1 $20 $-1 #
coedge $-1 $39 $88 $86 $89 1 $20 $-1 #
coedge $-1 $78 $42 $39 $67 0 $50 $-1 #
edge $-1 $72 $90 $66 $91 0 #
coedge $-1 $41 $40 $85 $92 0 $12 $-1 #
edge $-1 $93 $71 $56 $94 0 #
edge $-1 $95 $72 $41 $96 0 #
vertex $-1 $43 $97 #
vertex $-1 $67 $98 #
straight-curve $-1 34.641016151377549 20 0 0 0 -1 I I #
ellipse-curve $-1 0 0 -20 0 0 -1 40 0 0 1 I I #
point $-1 -20 -34.641016151377549 -20 #
point $-1 -20 34.641016151377549 -20 #
face $-1 $-1 $50 $2 $-1 $99 forward single #
coedge $-1 $52 $66 $63 $87 0 $50 $-1 #
coedge $-1 $56 $54 $100 $101 0 $32 $-1 #
coedge $-1 $63 $102 $54 $81 1 $37 $-1 #
edge $-1 $82 $103 $54 $104 0 #
vertex $-1 $55 $105 #
ellipse-curve $-1 0 0 20 0 0 1 40 0 0 1 I I #
plane-surface $-1 0 0 20 0 0 1 1 0 0 0 I I I I #
coedge $-1 $100 $106 $68 $92 1 $61 $-1 #
coedge $-1 $102 $63 $65 $89 0 $37 $-1 #
edge $-1 $90 $82 $78 $107 0 #
coedge $-1 $65 $64 $106 $108 1 $20 $-1 #
edge $-1 $90 $109 $86 $110 0 #
vertex $-1 $67 $111 #
ellipse-curve $-1 0 0 0 0 0 -1 40 0 0 1 I I #
edge $-1 $93 $95 $68 $112 0 #
vertex $-1 $101 $113 #
straight-curve $-1 10 20 20 1 0 0 I I #
vertex $-1 $70 $114 #
straight-curve $-1 20 20 0 1 0 0 I I #
point $-1 34.641016151377549 20 20 #
point $-1 34.641016151377549 20 0 #
cone-surface $-1 0 0 0 0 0 1 40 0 0 1 I I 0 1 0 I I I I #
coedge $-1 $115 $85 $79 $101 1 $61 $-1 #
edge $-1 $103 $93 $79 $116 0 #
coedge $-1 $80 $86 $115 $117 1 $37 $-1 #
vertex $-1 $81 $118 #
straight-curve $-1 10 -20 20 -1 0 0 I I #
point $-1 34.641016151377549 -20 20 #
coedge $-1 $85 $115 $88 $108 0 $61 $-1 #
straight-curve $-1 34.641016151377549 -20 0 0 0 1 I I #
edge $-1 $109 $95 $106 $119 0 #
vertex $-1 $108 $120 #
straight-curve $-1 20 -20 0 -1 0 0 I I #
point $-1 34.641016151377549 -20 0 #
straight-curve $-1 0 20 10 0 0 -1 I I #
point $-1 0 20 20 #
point $-1 0 20 0 #
coedge $-1 $106 $100 $102 $117 0 $61 $-1 #
straight-curve $-1 0 0 20 0 1 0 I I #
edge $-1 $103 $109 $115 $121 0 #
point $-1 0 -20 20 #
straight-curve $-1 0 0 0 0 1 0 I I #
point $-1 0 -20 0 #
straight-curve $-1 0 -20 10 0 0 -1 I I #
End-of-ACIS-data 