600 0 1 0           
99 GICL Pro/E ACIS Translator - Source: f:/data5/repository/PTC/V20/prod_appl/iges/iges_wp.prt.3 - 6 0 13 ACIS 6.0.3 NT 24 Thu Apr 04 13:15:59 2002 
1 9.9999999999999995e-007 1e-010 
body $-1 $1 $-1 $2 #
lump $-1 $-1 $3 $0 #
transform $-1 1 0 0 0 1 0 0 0 1 0 0 0 25.399999999999999 no_rotate no_reflect no_shear #
shell $-1 $-1 $-1 $4 $-1 $1 #
face $-1 $5 $6 $3 $-1 $7 forward single #
face $-1 $8 $9 $3 $-1 $10 forward single #
loop $-1 $-1 $11 $4 #
plane-surface $-1 -12 -4 -4 -1 0 0 0 0 1 forward_v I I I I #
face $-1 $12 $13 $3 $-1 $14 forward single #
loop $-1 $-1 $15 $5 #
cone-surface $-1 -11 4.0415171750221539 3 0 -1 0 -1 0 0 1 I I 0 1 1 forward I I I I #
coedge $-1 $16 $17 $18 $19 reversed $6 $-1 #
face $-1 $20 $21 $3 $-1 $22 forward single #
loop $-1 $-1 $23 $8 #
plane-surface $-1 -12 -4 4 0 0 1 1 0 0 forward_v I I I I #
coedge $-1 $24 $25 $26 $27 reversed $9 $-1 #
coedge $-1 $28 $11 $29 $30 reversed $6 $-1 #
coedge $-1 $11 $28 $31 $32 forward $6 $-1 #
coedge $-1 $25 $24 $11 $19 forward $9 $-1 #
edge $-1 $33 0 $34 8 $11 $35 forward 7 unknown #
face $-1 $36 $37 $3 $-1 $38 forward single #
loop $-1 $-1 $39 $12 #
cone-surface $-1 11 4.0415171750221539 3 0 -1 0 0 0 1 1 I I 0 1 1 forward I I I I #
coedge $-1 $40 $41 $42 $43 reversed $13 $-1 #
coedge $-1 $18 $15 $44 $45 forward $9 $-1 #
coedge $-1 $15 $18 $46 $47 reversed $9 $-1 #
coedge $-1 $41 $40 $15 $27 forward $13 $-1 #
edge $-1 $48 0 $49 8 $26 $50 forward 7 unknown #
coedge $-1 $17 $16 $51 $52 forward $6 $-1 #
coedge $-1 $44 $53 $16 $30 forward $54 $-1 #
edge $-1 $55 0 $33 6 $16 $56 forward 7 unknown #
coedge $-1 $57 $46 $17 $32 reversed $58 $-1 #
edge $-1 $59 0 $34 6 $17 $60 forward 7 unknown #
vertex $-1 $30 $61 #
vertex $-1 $32 $62 #
straight-curve $-1 -12 4 3 0 -1 0 I I #
face $-1 $63 $64 $3 $-1 $65 forward single #
loop $-1 $-1 $66 $20 #
plane-surface $-1 12 -4 4 1 0 0 0 0 -1 forward_v I I I I #
coedge $-1 $67 $68 $69 $70 reversed $21 $-1 #
coedge $-1 $26 $23 $71 $72 reversed $13 $-1 #
coedge $-1 $23 $26 $73 $74 forward $13 $-1 #
coedge $-1 $68 $67 $23 $43 forward $21 $-1 #
edge $-1 $75 0 $76 8 $23 $77 forward 7 unknown #
coedge $-1 $71 $29 $24 $45 reversed $54 $-1 #
edge $-1 $48 0 $33 1.5707963267948974 $24 $78 forward 7 unknown #
coedge $-1 $31 $73 $25 $47 forward $58 $-1 #
edge $-1 $49 0 $34 1.5707963267949014 $25 $79 forward 7 unknown #
vertex $-1 $27 $80 #
vertex $-1 $74 $81 #
straight-curve $-1 -11 4 4 0 -1 0 I I #
coedge $-1 $82 $83 $28 $52 reversed $84 $-1 #
edge $-1 $55 0 $59 8 $28 $85 forward 7 unknown #
coedge $-1 $29 $86 $82 $87 reversed $54 $-1 #
loop $-1 $-1 $44 $88 #
vertex $-1 $52 $89 #
straight-curve $-1 -12 4 -3 0 0 1 I I #
coedge $-1 $90 $31 $83 $91 forward $58 $-1 #
loop $-1 $-1 $57 $92 #
vertex $-1 $32 $93 #
straight-curve $-1 -12 -4 -3 0 0 1 I I #
point $-1 -12 4 3 #
point $-1 -12 -4 3 #
face $-1 $94 $95 $3 $-1 $96 forward single #
loop $-1 $-1 $97 $36 #
cone-surface $-1 11 4.0415171750221539 -3 0 -1 0 1 0 0 1 I I 0 1 1 forward I I I I #
coedge $-1 $98 $99 $100 $101 reversed $37 $-1 #
coedge $-1 $42 $39 $102 $103 forward $21 $-1 #
coedge $-1 $39 $42 $104 $105 reversed $21 $-1 #
coedge $-1 $99 $98 $39 $70 forward $37 $-1 #
edge $-1 $106 0 $107 8 $69 $108 forward 7 unknown #
coedge $-1 $102 $44 $40 $72 forward $54 $-1 #
edge $-1 $48 0 $75 22 $40 $109 forward 7 unknown #
coedge $-1 $46 $104 $41 $74 reversed $58 $-1 #
edge $-1 $49 0 $76 22 $41 $110 forward 7 unknown #
vertex $-1 $72 $111 #
vertex $-1 $74 $112 #
straight-curve $-1 11 4 4 0 -1 0 I I #
ellipse-curve $-1 -11 4 3.0000000000000009 0 -1 0 0 0 0.99999999999999911 1 I I #
ellipse-curve $-1 -11.000000000000002 -4 3.0000000000000031 0 -1 0 1.7763568394002505e-015 0 0.99999999999999689 1 I I #
point $-1 -11 4 4 #
point $-1 -11 -4 4 #
coedge $-1 $113 $51 $53 $87 forward $84 $-1 #
coedge $-1 $51 $113 $57 $91 reversed $84 $-1 #
loop $-1 $-1 $51 $94 #
straight-curve $-1 -12 4 -3 0 -1 0 I I #
coedge $-1 $53 $114 $115 $116 forward $54 $-1 #
edge $-1 $55 0 $117 1.570796326794905 $82 $118 forward 7 unknown #
face $-1 $119 $120 $3 $-1 $121 reversed single #
point $-1 -12 4 -3 #
coedge $-1 $122 $57 $123 $124 reversed $58 $-1 #
edge $-1 $59 0 $125 1.570796326794901 $83 $126 forward 7 unknown #
face $-1 $127 $128 $3 $-1 $129 reversed single #
point $-1 -12 -4 -3 #
face $-1 $88 $84 $3 $-1 $130 forward single #
loop $-1 $-1 $131 $63 #
plane-surface $-1 12 -4 -4 0 0 -1 -1 0 0 forward_v I I I I #
coedge $-1 $132 $133 $134 $135 reversed $64 $-1 #
coedge $-1 $69 $66 $136 $137 reversed $37 $-1 #
coedge $-1 $66 $69 $138 $139 forward $37 $-1 #
coedge $-1 $133 $132 $66 $101 forward $64 $-1 #
edge $-1 $140 0 $141 8 $66 $142 forward 7 unknown #
coedge $-1 $136 $71 $67 $103 reversed $54 $-1 #
edge $-1 $106 0 $75 1.5707963267948966 $67 $143 forward 7 unknown #
coedge $-1 $73 $138 $68 $105 forward $58 $-1 #
edge $-1 $107 0 $76 1.5707963267948903 $68 $144 forward 7 unknown #
vertex $-1 $70 $145 #
vertex $-1 $139 $146 #
straight-curve $-1 12 4 3 0 -1 0 I I #
straight-curve $-1 -11 4 4 1 0 0 I I #
straight-curve $-1 -11 -4 4 1 0 0 I I #
point $-1 11 4 4 #
point $-1 11 -4 4 #
coedge $-1 $83 $82 $131 $147 forward $84 $-1 #
coedge $-1 $86 $136 $132 $148 reversed $54 $-1 #
coedge $-1 $134 $131 $86 $116 reversed $95 $-1 #
edge $-1 $149 0 $117 22 $115 $150 forward 7 unknown #
vertex $-1 $116 $151 #
ellipse-curve $-1 -11.000000000000004 4 -3.0000000000000049 0 -1 0 -0.99999999999999645 0 4.8849813083506888e-015 1 I I #
face $-1 $152 $153 $3 $-1 $154 forward single #
loop $-1 $54 $155 $88 #
plane-surface $-1 0 4 0 0 1 0 1 0 0 forward_v I I I I #
coedge $-1 $138 $90 $133 $156 forward $58 $-1 #
coedge $-1 $131 $134 $90 $124 forward $95 $-1 #
edge $-1 $157 0 $125 22 $123 $158 forward 7 unknown #
vertex $-1 $124 $159 #
ellipse-curve $-1 -11.000000000000002 -4 -3.0000000000000027 0 -1 0 -0.99999999999999822 0 2.6645352591003757e-015 1 I I #
face $-1 $160 $161 $3 $-1 $162 forward single #
loop $-1 $58 $163 $92 #
plane-surface $-1 0 -4 0 0 -1 0 1 0 0 forward_v I I I I #
cone-surface $-1 -11 4.0415171750221539 -3 0 -1 0 0 0 -1 1 I I 0 1 1 forward I I I I #
coedge $-1 $115 $123 $113 $147 reversed $95 $-1 #
coedge $-1 $100 $97 $114 $148 forward $64 $-1 #
coedge $-1 $97 $100 $122 $156 reversed $64 $-1 #
coedge $-1 $123 $115 $97 $135 forward $95 $-1 #
edge $-1 $149 0 $157 8 $134 $164 forward 7 unknown #
coedge $-1 $114 $102 $98 $137 forward $54 $-1 #
edge $-1 $106 0 $140 6 $98 $165 forward 7 unknown #
coedge $-1 $104 $122 $99 $139 reversed $58 $-1 #
edge $-1 $107 0 $141 6 $99 $166 forward 7 unknown #
vertex $-1 $137 $167 #
vertex $-1 $139 $168 #
straight-curve $-1 12 4 -3 0 -1 0 I I #
ellipse-curve $-1 11 4 3 0 -1 0 1 0 0 1 I I #
ellipse-curve $-1 10.999999999999996 -4 2.9999999999999973 0 -1 0 1.0000000000000036 0 2.6645352591003757e-015 1 I I #
point $-1 12 4 3 #
point $-1 12 -4 3 #
edge $-1 $117 0 $125 8 $131 $169 forward 7 unknown #
edge $-1 $149 0 $140 1.5707963267948974 $132 $170 forward 7 unknown #
vertex $-1 $135 $171 #
straight-curve $-1 11 4 -4 -1 0 0 I I #
point $-1 -11 4 -4 #
face $-1 $172 $173 $3 $-1 $174 forward single #
loop $-1 $-1 $175 $119 #
plane-surface $-1 -11 4 4.75 0 0 1 1 0 0 forward_v I I I I #
coedge $-1 $176 $177 $178 $179 reversed $120 $-1 #
edge $-1 $157 0 $141 1.5707963267949014 $133 $180 forward 7 unknown #
vertex $-1 $124 $181 #
straight-curve $-1 11 -4 -4 -1 0 0 I I #
point $-1 -11 -4 -4 #
face $-1 $182 $183 $3 $-1 $184 forward single #
loop $-1 $-1 $185 $127 #
plane-surface $-1 12.75 -4 -3 1 0 0 0 0 1 forward_v I I I I #
coedge $-1 $186 $187 $188 $189 reversed $128 $-1 #
straight-curve $-1 11 4 -4 0 -1 0 I I #
straight-curve $-1 12 4 3 0 0 -1 I I #
straight-curve $-1 12 -4 3 0 0 -1 I I #
point $-1 12 4 -3 #
point $-1 12 -4 -3 #
straight-curve $-1 -11 4 -4 0 -1 0 I I #
ellipse-curve $-1 11 4 -3.0000000000000009 0 -1 0 0 0 -0.99999999999999911 1 I I #
point $-1 11 4 -4 #
face $-1 $190 $191 $3 $-1 $192 forward single #
loop $-1 $-1 $193 $152 #
cone-surface $-1 11 4 3 0 1 0 1.75 0 0 1 I I 0 1 1.75 forward I I I I #
coedge $-1 $194 $178 $195 $196 forward $153 $-1 #
coedge $-1 $197 $155 $198 $199 reversed $120 $-1 #
coedge $-1 $155 $200 $201 $202 reversed $120 $-1 #
coedge $-1 $175 $203 $155 $179 forward $153 $-1 #
edge $-1 $204 0 $205 22 $155 $206 forward 7 unknown #
ellipse-curve $-1 11.000000000000002 -4 -3.0000000000000031 0 -1 0 -1.7763568394002505e-015 0 -0.99999999999999689 1 I I #
point $-1 11 -4 -4 #
face $-1 $207 $208 $3 $-1 $209 forward single #
loop $-1 $-1 $210 $160 #
cone-surface $-1 11 -4 3 0 -1 0 1.75 0 0 1 I I 0 1 1.75 forward I I I I #
coedge $-1 $211 $188 $212 $213 forward $161 $-1 #
coedge $-1 $214 $163 $215 $216 reversed $128 $-1 #
coedge $-1 $163 $217 $218 $219 reversed $128 $-1 #
coedge $-1 $185 $220 $163 $189 forward $161 $-1 #
edge $-1 $221 0 $222 6 $163 $223 forward 7 unknown #
face $-1 $224 $225 $3 $-1 $226 forward single #
loop $-1 $-1 $227 $172 #
plane-surface $-1 12.75 4 3 1 0 0 0 0 -1 forward_v I I I I #
coedge $-1 $228 $201 $229 $230 forward $173 $-1 #
coedge $-1 $203 $175 $231 $232 reversed $153 $-1 #
coedge $-1 $201 $228 $175 $196 reversed $173 $-1 #
edge $-1 $205 0 $233 1 $195 $234 forward 7 unknown #
coedge $-1 $235 $176 $236 $237 reversed $120 $-1 #
coedge $-1 $238 $239 $176 $199 forward $240 $-1 #
edge $-1 $241 0 $204 1.5707963267948966 $176 $242 forward 7 unknown #
coedge $-1 $177 $243 $244 $245 reversed $120 $-1 #
coedge $-1 $193 $195 $177 $202 forward $173 $-1 #
edge $-1 $205 0 $246 1.5707963267948966 $177 $247 forward 7 unknown #
coedge $-1 $178 $194 $238 $248 reversed $153 $-1 #
vertex $-1 $199 $249 #
vertex $-1 $202 $250 #
straight-curve $-1 -11 4 4.75 1 0 0 I I #
face $-1 $251 $252 $3 $-1 $253 forward single #
loop $-1 $-1 $254 $182 #
plane-surface $-1 11 -4 4.75 0 0 1 -1 0 0 forward_v I I I I #
coedge $-1 $255 $218 $256 $257 forward $183 $-1 #
coedge $-1 $220 $185 $258 $259 reversed $161 $-1 #
coedge $-1 $218 $255 $185 $213 reversed $183 $-1 #
edge $-1 $222 0 $260 1 $212 $261 forward 7 unknown #
coedge $-1 $262 $186 $263 $264 reversed $128 $-1 #
coedge $-1 $265 $266 $186 $216 forward $267 $-1 #
edge $-1 $268 0 $221 1.5707963267948966 $186 $269 forward 7 unknown #
coedge $-1 $187 $270 $271 $272 reversed $128 $-1 #
coedge $-1 $210 $212 $187 $219 forward $183 $-1 #
edge $-1 $222 0 $273 1.5707963267948966 $187 $274 forward 7 unknown #
coedge $-1 $188 $211 $265 $275 reversed $161 $-1 #
vertex $-1 $216 $276 #
vertex $-1 $219 $277 #
straight-curve $-1 12.75 -4 -3 0 0 1 I I #
face $-1 $278 $279 $3 $-1 $280 forward single #
loop $-1 $-1 $281 $190 #
cone-surface $-1 11 4 -3 0 1 0 1.75 0 0 1 I I 0 1 1.75 forward I I I I #
coedge $-1 $282 $244 $283 $284 forward $191 $-1 #
coedge $-1 $195 $193 $285 $286 reversed $173 $-1 #
coedge $-1 $244 $282 $193 $230 reversed $191 $-1 #
edge $-1 $246 0 $287 1 $193 $288 forward 7 unknown #
coedge $-1 $285 $289 $194 $232 forward $290 $-1 #
edge $-1 $291 0 $233 22 $231 $292 forward 7 unknown #
vertex $-1 $286 $293 #
straight-curve $-1 11 4 4.75 0 1 0 I I #
coedge $-1 $294 $197 $295 $296 reversed $120 $-1 #
coedge $-1 $297 $298 $197 $237 forward $299 $-1 #
edge $-1 $300 0 $241 6 $197 $301 forward 7 unknown #
coedge $-1 $302 $198 $203 $248 forward $240 $-1 #
coedge $-1 $198 $302 $297 $303 reversed $240 $-1 #
loop $-1 $-1 $238 $304 #
vertex $-1 $237 $305 #
ellipse-curve $-1 -11 4 3 0 1 0 -1.75 0 0 1 I I #
coedge $-1 $200 $294 $306 $307 reversed $120 $-1 #
coedge $-1 $227 $229 $200 $245 forward $191 $-1 #
edge $-1 $246 0 $308 6 $200 $309 forward 7 unknown #
vertex $-1 $202 $310 #
ellipse-curve $-1 11 4 3 0 1 0 0 0 1.75 1 I I #
edge $-1 $204 0 $291 1 $238 $311 forward 7 unknown #
point $-1 -11 4 4.75 #
point $-1 11 4 4.75 #
face $-1 $312 $313 $3 $-1 $314 forward single #
loop $-1 $-1 $315 $207 #
cone-surface $-1 -11 -4 3 0 -1 0 1.75 0 0 1 I I 0 1 1.75 forward I I I I #
coedge $-1 $316 $271 $317 $318 forward $208 $-1 #
coedge $-1 $212 $210 $319 $320 reversed $183 $-1 #
coedge $-1 $271 $316 $210 $257 reversed $208 $-1 #
edge $-1 $273 0 $321 1 $210 $322 forward 7 unknown #
coedge $-1 $319 $323 $211 $259 forward $324 $-1 #
edge $-1 $325 0 $260 6 $258 $326 forward 7 unknown #
vertex $-1 $320 $327 #
straight-curve $-1 12.75 -4 3 0 -1 0 I I #
coedge $-1 $328 $214 $329 $330 reversed $128 $-1 #
coedge $-1 $331 $332 $214 $264 forward $333 $-1 #
edge $-1 $334 0 $268 22 $214 $335 forward 7 unknown #
coedge $-1 $336 $215 $220 $275 forward $267 $-1 #
coedge $-1 $215 $336 $331 $337 reversed $267 $-1 #
loop $-1 $-1 $265 $338 #
vertex $-1 $264 $339 #
ellipse-curve $-1 11 -4 -3 0 -1 0 0 0 -1.75 1 I I #
coedge $-1 $217 $328 $340 $341 reversed $128 $-1 #
coedge $-1 $254 $256 $217 $272 forward $208 $-1 #
edge $-1 $273 0 $342 22 $217 $343 forward 7 unknown #
vertex $-1 $219 $344 #
ellipse-curve $-1 11 -4 3 0 -1 0 1.75 0 0 1 I I #
edge $-1 $221 0 $325 1 $265 $345 forward 7 unknown #
point $-1 12.75 -4 -3 #
point $-1 12.75 -4 3 #
face $-1 $346 $347 $3 $-1 $348 forward single #
loop $-1 $-1 $349 $224 #
plane-surface $-1 11 4 -4.75 0 0 -1 -1 0 0 forward_v I I I I #
coedge $-1 $350 $306 $351 $352 forward $225 $-1 #
coedge $-1 $229 $227 $353 $354 reversed $191 $-1 #
coedge $-1 $306 $350 $227 $284 reversed $225 $-1 #
edge $-1 $308 0 $355 1 $227 $356 forward 7 unknown #
coedge $-1 $353 $231 $228 $286 forward $290 $-1 #
edge $-1 $233 0 $287 1.5707963267948966 $285 $357 forward 7 unknown #
vertex $-1 $286 $358 #
straight-curve $-1 12.75 4 3 0 1 0 I I #
coedge $-1 $231 $359 $302 $360 forward $290 $-1 #
loop $-1 $-1 $353 $361 #
vertex $-1 $232 $362 #
straight-curve $-1 -11 5 4.75 1 0 0 I I #
point $-1 11 5 4.75 #
coedge $-1 $243 $235 $363 $364 reversed $120 $-1 #
coedge $-1 $365 $366 $235 $296 forward $347 $-1 #
edge $-1 $367 0 $300 1.5707963267948966 $235 $368 forward 7 unknown #
coedge $-1 $369 $236 $239 $303 forward $299 $-1 #
coedge $-1 $236 $369 $365 $370 reversed $299 $-1 #
loop $-1 $-1 $297 $346 #
vertex $-1 $296 $371 #
straight-curve $-1 -12.75 4 -3 0 0 1 I I #
coedge $-1 $239 $238 $289 $360 reversed $240 $-1 #
edge $-1 $241 0 $372 1 $297 $373 forward 7 unknown #
face $-1 $361 $240 $3 $-1 $374 forward single #
point $-1 -12.75 4 3 #
coedge $-1 $281 $283 $243 $307 forward $225 $-1 #
edge $-1 $308 0 $375 1.5707963267948966 $243 $376 forward 7 unknown #
vertex $-1 $245 $377 #
straight-curve $-1 12.75 4 3 0 0 -1 I I #
point $-1 12.75 4 3 #
straight-curve $-1 -11 4 4.75 0 1 0 I I #
face $-1 $378 $379 $3 $-1 $380 forward single #
loop $-1 $-1 $381 $251 #
plane-surface $-1 -12.75 -4 3 -1 0 0 0 0 -1 forward_v I I I I #
coedge $-1 $382 $340 $383 $384 forward $252 $-1 #
coedge $-1 $256 $254 $385 $386 reversed $208 $-1 #
coedge $-1 $340 $382 $254 $318 reversed $252 $-1 #
edge $-1 $342 0 $387 1 $254 $388 forward 7 unknown #
coedge $-1 $385 $258 $255 $320 forward $324 $-1 #
edge $-1 $260 0 $321 1.5707963267948943 $319 $389 forward 7 unknown #
vertex $-1 $320 $390 #
straight-curve $-1 11 -4 4.75 0 -1 0 I I #
coedge $-1 $258 $391 $336 $392 forward $324 $-1 #
loop $-1 $-1 $385 $393 #
vertex $-1 $259 $394 #
straight-curve $-1 12.75 -5 -3 0 0 1 I I #
point $-1 12.75 -5 3 #
coedge $-1 $270 $262 $395 $396 reversed $128 $-1 #
coedge $-1 $397 $398 $262 $330 forward $379 $-1 #
edge $-1 $399 0 $334 1.5707963267948966 $262 $400 forward 7 unknown #
coedge $-1 $401 $263 $266 $337 forward $333 $-1 #
coedge $-1 $263 $401 $397 $402 reversed $333 $-1 #
loop $-1 $-1 $331 $378 #
vertex $-1 $330 $403 #
straight-curve $-1 -11 -4 -4.75 1 0 0 I I #
coedge $-1 $266 $265 $323 $392 reversed $267 $-1 #
edge $-1 $268 0 $404 1 $331 $405 forward 7 unknown #
face $-1 $393 $267 $3 $-1 $406 forward single #
point $-1 11 -4 -4.75 #
coedge $-1 $315 $317 $270 $341 forward $252 $-1 #
edge $-1 $342 0 $407 1.5707963267948966 $270 $408 forward 7 unknown #
vertex $-1 $272 $409 #
straight-curve $-1 11 -4 4.75 -1 0 0 I I #
point $-1 11 -4 4.75 #
straight-curve $-1 12.75 -4 -3 0 -1 0 I I #
face $-1 $304 $299 $3 $-1 $410 forward single #
loop $-1 $-1 $365 $278 #
cone-surface $-1 -11 4 -3 0 1 0 1.75 0 0 1 I I 0 1 1.75 forward I I I I #
coedge $-1 $411 $363 $366 $412 forward $279 $-1 #
coedge $-1 $283 $281 $413 $414 reversed $225 $-1 #
coedge $-1 $363 $411 $281 $352 reversed $279 $-1 #
edge $-1 $375 0 $415 1 $281 $416 forward 7 unknown #
coedge $-1 $413 $285 $282 $354 forward $290 $-1 #
edge $-1 $287 0 $355 6 $353 $417 forward 7 unknown #
vertex $-1 $414 $418 #
straight-curve $-1 12.75 4 -3 0 1 0 I I #
ellipse-curve $-1 11 5 3 0 1 0 0 0 1.75 1 I I #
point $-1 12.75 5 3 #
coedge $-1 $289 $419 $369 $420 forward $290 $-1 #
edge $-1 $372 0 $291 1.5707963267948963 $289 $421 forward 7 unknown #
face $-1 $92 $290 $3 $-1 $422 forward single #
point $-1 -11 5 4.75 #
coedge $-1 $349 $351 $294 $364 forward $279 $-1 #
edge $-1 $375 0 $367 22 $294 $423 forward 7 unknown #
coedge $-1 $424 $295 $298 $370 forward $347 $-1 #
coedge $-1 $295 $424 $349 $412 reversed $347 $-1 #
vertex $-1 $364 $425 #
ellipse-curve $-1 -11 4 -3 0 1 0 0 0 -1.75 1 I I #
coedge $-1 $298 $297 $359 $420 reversed $299 $-1 #
edge $-1 $300 0 $426 1 $365 $427 forward 7 unknown #
point $-1 -12.75 4 -3 #
vertex $-1 $360 $428 #
straight-curve $-1 -12.75 4 3 0 1 0 I I #
cone-surface $-1 -11 4 3 0 1 0 1.75 0 0 1 I I 0 1 1.75 forward I I I I #
vertex $-1 $307 $429 #
ellipse-curve $-1 11 4 -3 0 1 0 1.75 0 0 1 I I #
point $-1 12.75 4 -3 #
face $-1 $338 $333 $3 $-1 $430 forward single #
loop $-1 $-1 $397 $312 #
cone-surface $-1 -11 -4 -3 0 -1 0 1.75 0 0 1 I I 0 1 1.75 forward I I I I #
coedge $-1 $431 $395 $398 $432 forward $313 $-1 #
coedge $-1 $317 $315 $433 $434 reversed $252 $-1 #
coedge $-1 $395 $431 $315 $384 reversed $313 $-1 #
edge $-1 $407 0 $435 1 $315 $436 forward 7 unknown #
coedge $-1 $433 $319 $316 $386 forward $324 $-1 #
edge $-1 $321 0 $387 22 $385 $437 forward 7 unknown #
vertex $-1 $434 $438 #
straight-curve $-1 -11 -4 4.75 0 -1 0 I I #
ellipse-curve $-1 10.999999999999998 -5 2.9999999999999978 0 -1 0 1.7500000000000018 0 2.2204460492503131e-015 1 I I #
point $-1 11 -5 4.75 #
coedge $-1 $323 $439 $401 $440 forward $324 $-1 #
edge $-1 $404 0 $325 1.5707963267948992 $323 $441 forward 7 unknown #
face $-1 $-1 $324 $3 $-1 $442 forward single #
point $-1 12.75 -5 -3 #
coedge $-1 $381 $383 $328 $396 forward $313 $-1 #
edge $-1 $407 0 $399 6 $328 $443 forward 7 unknown #
coedge $-1 $444 $329 $332 $402 forward $379 $-1 #
coedge $-1 $329 $444 $381 $432 reversed $379 $-1 #
vertex $-1 $396 $445 #
ellipse-curve $-1 -11 -4 -3 0 -1 0 -1.75 0 0 1 I I #
coedge $-1 $332 $331 $391 $440 reversed $333 $-1 #
edge $-1 $334 0 $446 1 $397 $447 forward 7 unknown #
point $-1 -11 -4 -4.75 #
vertex $-1 $392 $448 #
straight-curve $-1 11 -4 -4.75 0 -1 0 I I #
cone-surface $-1 11 -4 -3 0 -1 0 1.75 0 0 1 I I 0 1 1.75 forward I I I I #
vertex $-1 $341 $449 #
ellipse-curve $-1 -11 -4 3 0 -1 0 0 0 1.75 1 I I #
point $-1 -11 -4 4.75 #
plane-surface $-1 -12.75 4 -3 -1 0 0 0 0 1 forward_v I I I I #
coedge $-1 $351 $349 $450 $451 reversed $279 $-1 #
edge $-1 $367 0 $452 1 $349 $453 forward 7 unknown #
coedge $-1 $450 $353 $350 $414 forward $290 $-1 #
edge $-1 $355 0 $415 1.5707963267948963 $413 $454 forward 7 unknown #
vertex $-1 $451 $455 #
straight-curve $-1 11 4 -4.75 0 1 0 I I #
straight-curve $-1 12.75 5 3 0 0 -1 I I #
point $-1 12.75 5 -3 #
coedge $-1 $359 $450 $424 $456 forward $290 $-1 #
edge $-1 $426 0 $372 6 $359 $457 forward 7 unknown #
ellipse-curve $-1 -11 5 2.9999999999999996 0 1 0 -1.75 0 4.4408920985006262e-016 1 I I #
plane-surface $-1 0 5 0 0 1 0 1 0 0 forward_v I I I I #
straight-curve $-1 11 4 -4.75 -1 0 0 I I #
coedge $-1 $366 $365 $419 $456 reversed $347 $-1 #
point $-1 -11 4 -4.75 #
vertex $-1 $420 $458 #
straight-curve $-1 -12.75 4 -3 0 1 0 I I #
point $-1 -12.75 5 3 #
point $-1 11 4 -4.75 #
plane-surface $-1 -11 -4 -4.75 0 0 -1 1 0 0 forward_v I I I I #
coedge $-1 $383 $381 $459 $460 reversed $313 $-1 #
edge $-1 $399 0 $461 1 $381 $462 forward 7 unknown #
coedge $-1 $459 $385 $382 $434 forward $324 $-1 #
edge $-1 $387 0 $435 1.5707963267948992 $433 $463 forward 7 unknown #
vertex $-1 $460 $464 #
straight-curve $-1 -12.75 -4 3 0 -1 0 I I #
straight-curve $-1 11 -5 4.75 -1 0 0 I I #
point $-1 -11 -5 4.75 #
coedge $-1 $391 $459 $444 $465 forward $324 $-1 #
edge $-1 $446 0 $404 22 $391 $466 forward 7 unknown #
ellipse-curve $-1 11.000000000000002 -5 -3.0000000000000027 0 -1 0 -1.7763568394002505e-015 0 -1.7499999999999973 1 I I #
plane-surface $-1 0 -5 0 0 -1 0 1 0 0 forward_v I I I I #
straight-curve $-1 -12.75 -4 3 0 0 -1 I I #
coedge $-1 $398 $397 $439 $465 reversed $379 $-1 #
point $-1 -12.75 -4 -3 #
vertex $-1 $440 $467 #
straight-curve $-1 -11 -4 -4.75 0 -1 0 I I #
point $-1 11 -5 -4.75 #
point $-1 -12.75 -4 3 #
coedge $-1 $419 $413 $411 $451 forward $290 $-1 #
edge $-1 $415 0 $452 22 $450 $468 forward 7 unknown #
vertex $-1 $456 $469 #
straight-curve $-1 -11 4 -4.75 0 1 0 I I #
ellipse-curve $-1 11 5 -2.9999999999999996 0 1 0 1.75 0 -4.4408920985006262e-016 1 I I #
point $-1 11 5 -4.75 #
edge $-1 $452 0 $426 1.5707963267949008 $419 $470 forward 7 unknown #
straight-curve $-1 -12.75 5 -3 0 0 1 I I #
point $-1 -12.75 5 -3 #
coedge $-1 $439 $433 $431 $460 forward $324 $-1 #
edge $-1 $435 0 $461 6 $459 $471 forward 7 unknown #
vertex $-1 $465 $472 #
straight-curve $-1 -12.75 -4 -3 0 -1 0 I I #
ellipse-curve $-1 -11.000000000000002 -5 3.0000000000000027 0 -1 0 1.7763568394002505e-015 0 1.7499999999999973 1 I I #
point $-1 -12.75 -5 3 #
edge $-1 $461 0 $446 1.5707963267949001 $439 $473 forward 7 unknown #
straight-curve $-1 -11 -5 -4.75 1 0 0 I I #
point $-1 -11 -5 -4.75 #
straight-curve $-1 11 5 -4.75 -1 0 0 I I #
point $-1 -11 5 -4.75 #
ellipse-curve $-1 -11.000000000000004 5 -3.0000000000000036 0 1 0 3.5527136788005009e-015 0 -1.7499999999999964 1 I I #
straight-curve $-1 -12.75 -5 3 0 0 -1 I I #
point $-1 -12.75 -5 -3 #
ellipse-curve $-1 -11.000000000000004 -5 -3.0000000000000027 0 -1 0 -1.7499999999999964 0 2.6645352591003757e-015 1 I I #
End-of-ACIS-data 