600 0 1 0           
119 GICL Pro/E ACIS Translator - Source: f:/data5/repository/PTC/V20/web_demos/models/basic_turning/turning_wp.prt.25 - 6 0 13 ACIS 6.0.3 NT 24 Thu Apr 04 13:11:33 2002 
1 9.9999999999999995e-007 1e-010 
body $-1 $1 $-1 $2 #
lump $-1 $-1 $3 $0 #
transform $-1 1 0 0 0 1 0 0 0 1 0 0 0 25.399999999999999 no_rotate no_reflect no_shear #
shell $-1 $-1 $-1 $4 $-1 $1 #
face $-1 $5 $6 $3 $-1 $7 reversed single #
face $-1 $8 $9 $3 $-1 $10 forward single #
loop $-1 $11 $12 $4 #
plane-surface $-1 0 0 12 0 0 -1 -1 0 0 forward_v I I I I #
face $-1 $13 $14 $3 $-1 $15 forward single #
loop $-1 $-1 $16 $5 #
cone-surface $-1 0 0 12 0 0 -1 -3.75 0 0 1 I I 0 1 3.75 forward I I I I #
loop $-1 $-1 $17 $4 #
coedge $-1 $18 $18 $19 $20 reversed $6 $-1 #
face $-1 $21 $22 $3 $-1 $23 forward single #
loop $-1 $-1 $24 $8 #
cone-surface $-1 0 0 12 0 0 -1 -3.75 0 0 1 I I 0 1 3.75 forward I I I I #
coedge $-1 $19 $25 $26 $27 reversed $9 $-1 #
coedge $-1 $28 $28 $29 $30 reversed $11 $-1 #
coedge $-1 $12 $12 $31 $32 reversed $6 $-1 #
coedge $-1 $33 $16 $12 $20 forward $9 $-1 #
edge $-1 $34 0 $35 3.1415926535897931 $12 $36 forward 7 unknown #
face $-1 $37 $38 $3 $-1 $39 reversed single #
loop $-1 $40 $41 $13 #
plane-surface $-1 0 0 7.9950000000000001 0 0 -1 -1 0 0 forward_v I I I I #
coedge $-1 $31 $42 $33 $43 reversed $14 $-1 #
coedge $-1 $16 $33 $44 $45 reversed $9 $-1 #
coedge $-1 $42 $31 $16 $27 forward $14 $-1 #
edge $-1 $34 0 $46 4.0049999999999999 $26 $47 forward 7 unknown #
coedge $-1 $17 $17 $48 $49 reversed $11 $-1 #
coedge $-1 $50 $51 $17 $30 forward $52 $-1 #
edge $-1 $53 0 $54 3.1415926535897931 $17 $55 forward 7 unknown #
coedge $-1 $26 $24 $18 $32 forward $14 $-1 #
edge $-1 $35 0 $34 3.1415926535897931 $18 $56 forward 7 unknown #
coedge $-1 $25 $19 $24 $43 forward $9 $-1 #
vertex $-1 $32 $57 #
vertex $-1 $32 $58 #
ellipse-curve $-1 0 0 12 0 0 -1 3.75 0 0 1 I I #
face $-1 $59 $60 $3 $-1 $61 forward single #
loop $-1 $-1 $62 $21 #
torus-surface $-1 0 0 7.9325000000000001 0 0 -1 3.6924999999999999 0.0625 -1 0 0 forward_v I I I I #
loop $-1 $-1 $44 $13 #
coedge $-1 $63 $63 $64 $65 forward $22 $-1 #
coedge $-1 $24 $26 $66 $67 reversed $14 $-1 #
edge $-1 $35 0 $68 4.0049999999999999 $24 $69 forward 7 unknown #
coedge $-1 $66 $66 $25 $45 forward $40 $-1 #
edge $-1 $46 0 $68 3.1415926535897931 $25 $70 forward 7 unknown #
vertex $-1 $67 $71 #
straight-curve $-1 3.75 4.5922738268339147e-016 12 0 0 -1 I I #
coedge $-1 $72 $73 $28 $49 forward $74 $-1 #
edge $-1 $54 0 $53 3.1415926535897931 $28 $75 forward 7 unknown #
coedge $-1 $76 $29 $73 $77 forward $52 $-1 #
coedge $-1 $29 $76 $72 $78 reversed $52 $-1 #
loop $-1 $-1 $51 $79 #
vertex $-1 $49 $80 #
vertex $-1 $49 $81 #
ellipse-curve $-1 0 0 12 0 0 1 1.875 0 0 1 I I #
ellipse-curve $-1 0 0 12 0 0 -1 -3.75 0 0 1 I I #
point $-1 3.75 0 12 #
point $-1 -3.75 0 12 #
face $-1 $82 $83 $3 $-1 $84 forward single #
loop $-1 $-1 $85 $37 #
cone-surface $-1 0 0 0 0 0 -1 -3.6299999999999999 0 0 1 I I 0 1 3.6299999999999999 forward I I I I #
coedge $-1 $86 $87 $88 $89 forward $38 $-1 #
coedge $-1 $41 $41 $90 $91 reversed $22 $-1 #
coedge $-1 $87 $86 $41 $65 reversed $38 $-1 #
edge $-1 $92 0 $93 3.1415926535897931 $41 $94 forward 7 unknown #
coedge $-1 $44 $44 $42 $67 forward $40 $-1 #
edge $-1 $68 0 $46 3.1415926535897931 $42 $95 forward 7 unknown #
vertex $-1 $67 $96 #
straight-curve $-1 -3.75 0 12 0 0 -1 I I #
ellipse-curve $-1 -2.2204460492503131e-016 3.3306690738754696e-016 7.9950000000000001 0 0 -1 3.75 -3.3306690738754696e-016 0 1 I I #
point $-1 3.75 0 7.9950000000000001 #
coedge $-1 $97 $48 $51 $78 forward $74 $-1 #
coedge $-1 $48 $97 $50 $77 reversed $74 $-1 #
loop $-1 $-1 $73 $98 #
ellipse-curve $-1 0 0 12 0 0 1 -1.875 0 0 1 I I #
coedge $-1 $51 $50 $99 $100 forward $52 $-1 #
edge $-1 $54 0 $101 6.0149999999999997 $73 $102 forward 7 unknown #
edge $-1 $53 0 $103 6.0149999999999997 $72 $104 forward 7 unknown #
face $-1 $98 $52 $3 $-1 $105 reversed single #
point $-1 1.875 0 12 #
point $-1 -1.875 0 12 #
face $-1 $106 $107 $3 $-1 $108 reversed single #
loop $-1 $109 $110 $59 #
plane-surface $-1 0 0 3.9950000000000001 0 0 -1 -1 0 0 forward_v I I I I #
coedge $-1 $111 $112 $113 $114 forward $60 $-1 #
coedge $-1 $64 $62 $115 $116 reversed $38 $-1 #
coedge $-1 $62 $64 $117 $118 forward $38 $-1 #
coedge $-1 $112 $111 $62 $89 reversed $60 $-1 #
edge $-1 $119 0 $120 3.1415926535897931 $62 $121 forward 7 unknown #
coedge $-1 $115 $117 $63 $91 forward $122 $-1 #
edge $-1 $92 0 $93 3.1415926535897931 $63 $123 forward 7 unknown #
vertex $-1 $91 $124 #
vertex $-1 $91 $125 #
ellipse-curve $-1 -3.3306690738754696e-016 0 7.9950000000000001 0 0 1 3.6925000000000003 -4.5218589614891281e-016 0 1 I I #
ellipse-curve $-1 2.2204460492503131e-016 -3.3306690738754696e-016 7.9950000000000001 0 0 -1 -3.75 3.3306690738754696e-016 0 1 I I #
point $-1 -3.75 0 7.9950000000000001 #
coedge $-1 $73 $72 $126 $127 forward $74 $-1 #
face $-1 $128 $74 $3 $-1 $129 reversed single #
coedge $-1 $126 $126 $76 $100 reversed $130 $-1 #
edge $-1 $101 0 $103 3.1415926535897931 $76 $131 forward 7 unknown #
vertex $-1 $127 $132 #
straight-curve $-1 -1.875 0 12 0 -7.6347029540048477e-017 -1 I I #
vertex $-1 $127 $133 #
straight-curve $-1 1.875 2.2961369134169574e-016 12 0 0 -1 I I #
cone-surface $-1 0 0 12 0 0 -1 -1.875 0 0 1 I I 0 1 1.875 forward I I I I #
face $-1 $134 $135 $3 $-1 $136 forward single #
loop $-1 $-1 $137 $82 #
torus-surface $-1 0 0 3.875 0 0 -1 3.375 0.12 -1 0 0 forward_v I I I I #
loop $-1 $-1 $138 $59 #
coedge $-1 $139 $139 $140 $141 forward $83 $-1 #
coedge $-1 $88 $85 $142 $143 reversed $60 $-1 #
coedge $-1 $85 $88 $144 $145 forward $60 $-1 #
coedge $-1 $138 $138 $85 $114 reversed $109 $-1 #
edge $-1 $146 -1.2246063538223773e-016 $147 3.1415926535897931 $113 $148 forward 7 unknown #
coedge $-1 $149 $90 $86 $116 forward $122 $-1 #
edge $-1 $93 3.1554436208840472e-030 $120 1.5707963267949037 $115 $150 forward 7 unknown #
coedge $-1 $90 $149 $87 $118 reversed $122 $-1 #
edge $-1 $92 0 $119 1.5707963267949037 $117 $151 forward 7 unknown #
vertex $-1 $118 $152 #
vertex $-1 $153 $154 #
ellipse-curve $-1 0 0 7.9325000000000001 0 0 1 3.6299999999999999 -4.4453210643752295e-016 0 1 I I #
loop $-1 $-1 $90 $155 #
ellipse-curve $-1 3.3306690738754696e-016 0 7.9950000000000001 0 0 -1 3.6924999999999994 -4.5218589614891281e-016 0 1 I I #
point $-1 3.6924999999999999 -4.5218589614891281e-016 7.9950000000000001 #
point $-1 -3.6924999999999999 0 7.9950000000000001 #
coedge $-1 $99 $99 $97 $127 reversed $130 $-1 #
edge $-1 $103 0 $101 3.1415926535897931 $97 $156 forward 7 unknown #
face $-1 $157 $158 $3 $-1 $159 forward single #
cone-surface $-1 0 0 12 0 0 -1 -1.875 0 0 1 I I 0 1 1.875 forward I I I I #
loop $-1 $-1 $99 $160 #
ellipse-curve $-1 -5.5511151231257827e-017 0 5.9850000000000003 0 0 -1 -1.875 0 0 1 I I #
point $-1 -1.875 0 5.9850000000000003 #
point $-1 1.875 0 5.9850000000000003 #
face $-1 $161 $162 $3 $-1 $163 forward single #
loop $-1 $-1 $164 $106 #
cone-surface $-1 0 0 0 0 0 -1 -3.2549999999999999 0 0 1 I I 0 1 3.2549999999999999 forward I I I I #
coedge $-1 $165 $166 $167 $168 forward $107 $-1 #
coedge $-1 $113 $113 $169 $170 forward $109 $-1 #
coedge $-1 $110 $110 $171 $172 reversed $83 $-1 #
coedge $-1 $166 $165 $110 $141 reversed $107 $-1 #
edge $-1 $173 0 $174 3.1415926535897931 $110 $175 forward 7 unknown #
coedge $-1 $169 $176 $111 $143 forward $177 $-1 #
edge $-1 $120 0 $147 3.9375 $142 $178 forward 7 unknown #
coedge $-1 $176 $169 $112 $145 reversed $177 $-1 #
edge $-1 $119 0 $146 3.9375000000000004 $144 $179 forward 7 unknown #
vertex $-1 $145 $180 #
vertex $-1 $170 $181 #
ellipse-curve $-1 0 0 3.9950000000000001 0 0 1 3.6299999999999999 0 0 1 I I #
coedge $-1 $117 $115 $176 $153 reversed $122 $-1 #
ellipse-curve $-1 -3.6924999999999994 9.0437179229782542e-016 7.9325000000000001 2.4492127076447274e-016 1 -1.4151733231357602e-030 -4.4408920985006262e-016 1.9721522630525295e-031 0.0625 1 I I #
ellipse-curve $-1 3.6924999999999994 -4.5218589614891271e-016 7.9325000000000001 -1.2246063538223637e-016 -1 -7.0758666156788009e-031 4.4408920985006262e-016 -9.8607613152626476e-032 0.0625 1 I I #
point $-1 3.6299999999999999 -4.4453210643752295e-016 7.9325000000000001 #
edge $-1 $119 0 $120 3.1415926535897931 $149 $182 forward 7 unknown #
point $-1 -3.6299999999999999 0 7.9325000000000001 #
face $-1 $-1 $122 $3 $-1 $183 reversed single #
ellipse-curve $-1 0 0 5.9850000000000003 0 0 -1 1.875 0 0 1 I I #
face $-1 $184 $185 $3 $-1 $186 forward single #
loop $-1 $-1 $187 $128 #
cone-surface $-1 0 0 0 0 0 -1 -2.8500728214834452 0 0 1 I I 0 1 2.8500728214834452 forward I I I I #
face $-1 $188 $189 $3 $-1 $190 forward single #
face $-1 $191 $192 $3 $-1 $193 reversed single #
loop $-1 $-1 $194 $134 #
cone-surface $-1 0 0 -0.14888703445839901 0 0 -1 -1.1917535925942111 0 0 1 I I -0.76604444311897835 0.64278760968653892 1.1917535925942111 forward I I I I #
coedge $-1 $195 $196 $197 $198 forward $135 $-1 #
coedge $-1 $140 $137 $199 $200 reversed $107 $-1 #
coedge $-1 $137 $140 $201 $202 forward $107 $-1 #
coedge $-1 $196 $195 $137 $168 reversed $135 $-1 #
edge $-1 $203 0 $204 3.1415926535897931 $137 $205 forward 7 unknown #
coedge $-1 $144 $142 $138 $170 reversed $177 $-1 #
edge $-1 $146 1.2246063538223773e-016 $147 3.1415926535897931 $169 $206 forward 7 unknown #
coedge $-1 $199 $201 $139 $172 forward $207 $-1 #
edge $-1 $173 0 $174 3.1415926535897931 $139 $208 forward 7 unknown #
vertex $-1 $172 $209 #
vertex $-1 $172 $210 #
ellipse-curve $-1 1.1102230246251565e-016 2.2204460492503131e-016 3.9950000000000001 7.8949192288356565e-016 -1.4862314053033188e-031 1 3.3750000245326661 -6.3534925234436947e-016 -2.6645352591003757e-015 1 I I #
coedge $-1 $142 $144 $149 $153 forward $177 $-1 #
loop $-1 $-1 $176 $211 #
straight-curve $-1 -3.6299999999999999 8.890642128750459e-016 7.9325000000000001 0 0 -1 I I #
straight-curve $-1 3.6299999999999999 -4.4453210643752295e-016 7.9325000000000001 0 0 -1 I I #
point $-1 3.6299999999999999 -4.4453210643752295e-016 3.9949999999999997 #
point $-1 -3.6299999999999999 0 3.9950000000000001 #
ellipse-curve $-1 0 0 7.9325000000000001 0 0 -1 3.6299999999999999 -4.4453210643752295e-016 0 1 I I #
torus-surface $-1 0 0 7.9325000000000001 0 0 -1 3.6924999999999999 0.0625 -1 0 0 forward_v I I I I #
face $-1 $212 $213 $3 $-1 $214 forward single #
loop $-1 $-1 $215 $157 #
cone-surface $-1 0 0 -1.5900728214834894 0 0 -1 -0.99999999999998535 0 0 1 I I -0.70710678118654235 0.70710678118655268 0.99999999999998535 forward I I I I #
coedge $-1 $216 $217 $218 $219 forward $158 $-1 #
face $-1 $220 $221 $3 $-1 $222 reversed single #
loop $-1 $130 $223 $160 #
plane-surface $-1 0 0 5.9850000000000003 0 0 -1 -1 0 0 forward_v I I I I #
face $-1 $224 $225 $3 $-1 $226 forward single #
loop $-1 $-1 $227 $161 #
torus-surface $-1 0 0 1.3435242330745378 0 0 -1 3.067572821483445 0.0625 -1 0 0 forward_v I I I I #
coedge $-1 $228 $229 $230 $231 forward $162 $-1 #
coedge $-1 $167 $164 $232 $233 reversed $135 $-1 #
coedge $-1 $164 $167 $234 $235 forward $135 $-1 #
coedge $-1 $229 $228 $164 $198 reversed $162 $-1 #
edge $-1 $236 3.7227892582651391e-032 $237 3.1415926535897931 $164 $238 forward 7 unknown #
coedge $-1 $239 $171 $165 $200 forward $207 $-1 #
edge $-1 $174 0 $204 1.5707965312337735 $199 $240 forward 7 unknown #
coedge $-1 $171 $239 $166 $202 reversed $207 $-1 #
edge $-1 $173 0 $203 1.5707965312337773 $201 $241 forward 7 unknown #
vertex $-1 $202 $242 #
vertex $-1 $243 $244 #
ellipse-curve $-1 0 0 3.875 0 0 1 3.2549999999999999 -3.986093681691838e-016 0 1 I I #
ellipse-curve $-1 0 0 3.9950000000000001 0 0 -1 3.6299999999999999 0 0 1 I I #
loop $-1 $-1 $171 $245 #
ellipse-curve $-1 0 3.3306690738754696e-016 3.9950000000000001 -7.8949192288356565e-016 1.7459386954276479e-031 -1 3.3750000245326661 -7.4637155480688513e-016 -2.6645352591003757e-015 1 I I #
point $-1 3.3750000245326661 -4.1330464741933822e-016 3.9949999999999974 #
point $-1 -3.3750000245326661 0 3.9949999999999974 #
face $-1 $155 $177 $3 $-1 $246 forward single #
face $-1 $211 $247 $3 $-1 $248 forward single #
loop $-1 $-1 $249 $184 #
cone-surface $-1 0 0 0 0 0 -1 -2.8500728214834452 0 0 1 I I 0 1 2.8500728214834452 forward I I I I #
coedge $-1 $250 $251 $252 $253 forward $185 $-1 #
coedge $-1 $254 $187 $255 $256 forward $158 $-1 #
coedge $-1 $187 $254 $257 $258 reversed $158 $-1 #
coedge $-1 $259 $259 $187 $219 reversed $260 $-1 #
edge $-1 $261 0 $262 3.1415926535897931 $218 $263 forward 7 unknown #
face $-1 $264 $265 $3 $-1 $266 reversed single #
loop $-1 $-1 $267 $188 #
torus-surface $-1 0 0 5.9225000000000003 0 0 -1 2.9375 0.0625 -1 0 0 forward_v I I I I #
coedge $-1 $268 $268 $269 $270 forward $189 $-1 #
face $-1 $271 $272 $3 $-1 $273 forward single #
loop $-1 $-1 $274 $191 #
cone-surface $-1 0 0 0 0 0 -1 -3.005072821483445 0 0 1 I I 0 1 3.005072821483445 forward I I I I #
coedge $-1 $275 $276 $277 $278 forward $192 $-1 #
coedge $-1 $197 $194 $279 $280 reversed $162 $-1 #
coedge $-1 $194 $197 $281 $282 forward $162 $-1 #
coedge $-1 $276 $275 $194 $231 reversed $192 $-1 #
edge $-1 $283 2.1517966742538102e-032 $284 3.1415926535897931 $194 $285 forward 7 unknown #
coedge $-1 $286 $287 $195 $233 forward $288 $-1 #
edge $-1 $204 0 $237 2.2926177349763561 $232 $289 forward 7 unknown #
coedge $-1 $287 $286 $196 $235 reversed $288 $-1 #
edge $-1 $203 4.4408920985006262e-016 $236 2.2926177349763552 $234 $290 forward 7 unknown #
vertex $-1 $235 $291 #
vertex $-1 $292 $293 #
ellipse-curve $-1 -1.1102230246251565e-016 2.2204460492503131e-016 1.5823822650236441 0 0 1 3.254999999999999 -6.2065397309421501e-016 0 1 I I #
coedge $-1 $201 $199 $287 $243 reversed $207 $-1 #
ellipse-curve $-1 -3.3750000000000004 8.2660928883010485e-016 3.8749999999999996 2.449212707644755e-016 1 5.7296417962838272e-031 -2.4532665676701981e-008 6.0085715840221803e-024 0.11999999999999789 1 I I #
ellipse-curve $-1 3.3750000000000004 -4.1330464441505242e-016 3.8749999999999996 -1.2246063538223775e-016 -1 2.8648208981419136e-031 2.4532665676701981e-008 -3.0042857920110902e-024 0.11999999999999789 1 I I #
point $-1 3.2549999999999999 -3.986093681691838e-016 3.8749999999999996 #
edge $-1 $203 0 $204 3.1415926535897931 $239 $294 forward 7 unknown #
point $-1 -3.2549999999999999 0 3.875 #
face $-1 $295 $207 $3 $-1 $296 reversed single #
cone-surface $-1 0 0 0 0 0 -1 -3.6299999999999999 0 0 1 I I 0 1 3.6299999999999999 forward I I I I #
loop $-1 $-1 $297 $212 #
cone-surface $-1 0 0 -0.9900728214834893 0 0 -1 -0.99999999999998535 0 0 1 I I -0.70710678118654235 0.70710678118655268 0.99999999999998535 forward I I I I #
coedge $-1 $298 $299 $300 $301 forward $213 $-1 #
coedge $-1 $302 $215 $303 $304 forward $185 $-1 #
coedge $-1 $215 $302 $305 $306 reversed $185 $-1 #
coedge $-1 $307 $307 $215 $253 reversed $308 $-1 #
edge $-1 $309 0 $310 3.1415926535897931 $252 $311 forward 7 unknown #
coedge $-1 $217 $216 $312 $313 reversed $158 $-1 #
coedge $-1 $314 $315 $216 $256 reversed $316 $-1 #
edge $-1 $262 0 $317 0.20000000000000001 $216 $318 forward 7 unknown #
coedge $-1 $315 $314 $217 $258 forward $316 $-1 #
edge $-1 $261 0 $319 0.20000000000000001 $217 $320 forward 7 unknown #
coedge $-1 $218 $218 $314 $321 forward $260 $-1 #
loop $-1 $322 $259 $323 #
vertex $-1 $219 $324 #
vertex $-1 $219 $325 #
ellipse-curve $-1 1.1102230246251565e-016 -1.1102230246251565e-016 0.38 0 0 -1 2.8500728214834452 -2.3799942614199402e-016 0 1 I I #
face $-1 $79 $326 $3 $-1 $327 reversed single #
loop $-1 $-1 $328 $220 #
cone-surface $-1 0 0 0 0 0 -1 -3 0 0 1 I I 0 1 3 forward I I I I #
coedge $-1 $329 $330 $331 $332 forward $221 $-1 #
coedge $-1 $223 $223 $333 $334 reversed $189 $-1 #
coedge $-1 $330 $329 $223 $270 reversed $221 $-1 #
edge $-1 $335 0 $336 3.1415926535897931 $223 $337 forward 7 unknown #
face $-1 $338 $339 $3 $-1 $340 reversed single #
loop $-1 $-1 $341 $224 #
cone-surface $-1 0 0 0 0 0 -1 -3.005072821483445 0 0 1 I I 0 1 3.005072821483445 forward I I I I #
coedge $-1 $277 $342 $343 $344 reversed $225 $-1 #
coedge $-1 $230 $227 $345 $346 reversed $192 $-1 #
coedge $-1 $227 $230 $347 $348 forward $192 $-1 #
coedge $-1 $349 $274 $227 $278 reversed $225 $-1 #
edge $-1 $350 0 $351 3.1415926535897931 $227 $352 forward 7 unknown #
coedge $-1 $353 $354 $228 $280 forward $355 $-1 #
edge $-1 $237 1.4957464047953731e-031 $284 0.29711253200307169 $279 $356 forward 7 unknown #
coedge $-1 $354 $353 $229 $282 reversed $355 $-1 #
edge $-1 $236 -9.6583918459658194e-016 $283 0.29711253200307186 $281 $357 forward 7 unknown #
vertex $-1 $282 $358 #
vertex $-1 $359 $360 #
ellipse-curve $-1 0 0 1.391402010769474 0 0 1 3.0273985958780365 -3.7073715560651867e-016 0 1 I I #
coedge $-1 $234 $232 $354 $292 reversed $288 $-1 #
coedge $-1 $232 $234 $239 $243 forward $288 $-1 #
loop $-1 $-1 $287 $361 #
straight-curve $-1 -3.2549999999999999 7.972187363383676e-016 3.875 0 0 -1 I I #
straight-curve $-1 3.2549999999999999 -3.986093681691838e-016 3.875 0 0 -1 I I #
point $-1 3.2549999999999999 -3.986093681691838e-016 1.5823822650236445 #
edge $-1 $236 0 $237 3.1415926535897931 $286 $362 forward 7 unknown #
point $-1 -3.254999999999999 0 1.5823822650236441 #
ellipse-curve $-1 0 0 3.875 0 0 -1 3.2549999999999999 -3.986093681691838e-016 0 1 I I #
face $-1 $363 $364 $3 $-1 $365 forward single #
torus-surface $-1 0 0 3.875 0 0 -1 3.375 0.12 -1 0 0 forward_v I I I I #
coedge $-1 $366 $367 $368 $369 forward $247 $-1 #
coedge $-1 $370 $249 $371 $372 forward $213 $-1 #
coedge $-1 $249 $370 $373 $374 reversed $213 $-1 #
coedge $-1 $375 $375 $249 $301 reversed $376 $-1 #
edge $-1 $377 0 $378 3.1415926535897931 $300 $379 forward 7 unknown #
coedge $-1 $251 $250 $380 $381 reversed $185 $-1 #
coedge $-1 $382 $383 $250 $304 reversed $384 $-1 #
edge $-1 $310 1.2725352076061629e-031 $385 0.042426406871193131 $250 $386 forward 7 unknown #
coedge $-1 $383 $382 $251 $306 forward $384 $-1 #
edge $-1 $309 0 $387 0.042426406871192895 $251 $388 forward 7 unknown #
coedge $-1 $252 $252 $382 $389 forward $308 $-1 #
loop $-1 $390 $307 $391 #
vertex $-1 $253 $392 #
vertex $-1 $253 $393 #
ellipse-curve $-1 1.1102230246251565e-016 -2.2204460492503131e-016 0.41000000000000014 0 0 -1 3.0000728214834456 -1.4534621898681405e-016 0 1 I I #
coedge $-1 $394 $394 $254 $313 forward $395 $-1 #
edge $-1 $319 1.224606353822377e-016 $317 3.1415926535897931 $254 $396 forward 7 unknown #
coedge $-1 $257 $255 $259 $321 reversed $316 $-1 #
coedge $-1 $255 $257 $394 $397 forward $316 $-1 #
loop $-1 $-1 $315 $398 #
vertex $-1 $313 $399 #
straight-curve $-1 -2.8500728214834452 6.9804345720901935e-016 0.38 0 0 -1 I I #
vertex $-1 $258 $400 #
straight-curve $-1 2.8500728214834452 -3.4902172860450968e-016 0.38 0 0 -1 I I #
edge $-1 $261 0 $262 3.1415926535897931 $259 $401 forward 7 unknown #
loop $-1 $-1 $380 $323 #
face $-1 $398 $260 $3 $-1 $402 forward single #
point $-1 2.8500728214834452 -3.4902172860450968e-016 0.38 #
point $-1 -2.8500728214834452 0 0.38 #
loop $-1 $-1 $403 $264 #
torus-surface $-1 0 0 4.7895190528383287 0 0 -1 2.9375 0.0625 -1 0 0 forward_v I I I I #
coedge $-1 $404 $405 $406 $407 forward $265 $-1 #
coedge $-1 $269 $267 $408 $409 forward $221 $-1 #
coedge $-1 $267 $269 $410 $411 reversed $221 $-1 #
coedge $-1 $405 $404 $267 $332 reversed $265 $-1 #
edge $-1 $412 0 $413 3.1415926535897931 $331 $414 forward 7 unknown #
coedge $-1 $408 $410 $268 $334 forward $415 $-1 #
edge $-1 $335 0 $336 3.1415926535897931 $268 $416 forward 7 unknown #
vertex $-1 $334 $417 #
vertex $-1 $334 $418 #
ellipse-curve $-1 0 0 5.9850000000000003 0 0 -1 2.9375 0 0 1 I I #
face $-1 $361 $355 $3 $-1 $419 forward single #
loop $-1 $-1 $420 $271 #
torus-surface $-1 0 0 1.3435242330745378 0 0 -1 3.067572821483445 0.0625 -1 0 0 forward_v I I I I #
coedge $-1 $421 $422 $349 $423 reversed $272 $-1 #
coedge $-1 $274 $349 $424 $425 reversed $225 $-1 #
coedge $-1 $422 $421 $274 $344 forward $272 $-1 #
edge $-1 $351 0 $426 0.3335242330745376 $343 $427 forward 7 unknown #
coedge $-1 $428 $420 $275 $346 forward $339 $-1 #
edge $-1 $284 0 $351 0.87266462599714756 $345 $429 forward 7 unknown #
coedge $-1 $420 $428 $276 $348 reversed $339 $-1 #
edge $-1 $283 3.1641356201815443e-015 $350 0.87266462599714756 $347 $430 forward 7 unknown #
coedge $-1 $342 $277 $341 $423 forward $225 $-1 #
vertex $-1 $348 $431 #
vertex $-1 $432 $433 #
ellipse-curve $-1 0 0 1.3435242330745378 0 0 1 3.005072821483445 -3.680031270887565e-016 0 1 I I #
coedge $-1 $281 $279 $420 $359 reversed $355 $-1 #
coedge $-1 $279 $281 $286 $292 forward $355 $-1 #
loop $-1 $-1 $354 $338 #
straight-curve $-1 -3.254999999999999 7.9721873633836741e-016 1.5823822650236441 0.76604444311897868 -1.8762057847076577e-016 -0.64278760968653881 I I #
straight-curve $-1 3.254999999999999 -3.986093681691837e-016 1.5823822650236441 -0.76604444311897868 9.3810289235382885e-017 -0.64278760968653881 I I #
point $-1 3.0273985958780361 -3.7073715560651857e-016 1.3914020107694742 #
edge $-1 $283 -2.1517966742538102e-032 $284 3.1415926535897931 $353 $434 forward 7 unknown #
point $-1 -3.0273985958780365 0 1.391402010769474 #
face $-1 $245 $288 $3 $-1 $435 forward single #
ellipse-curve $-1 2.2204460492503131e-016 -1.1102230246251565e-016 1.5823822650236441 0 0 -1 3.254999999999999 -2.8758706570666805e-016 0 1 I I #
face $-1 $436 $437 $3 $-1 $438 forward single #
loop $-1 $439 $440 $295 #
plane-surface $-1 0 0 1.0100000000000002 0 0 -1 -1 0 0 forward_v I I I I #
coedge $-1 $441 $297 $442 $443 forward $247 $-1 #
coedge $-1 $297 $441 $444 $445 reversed $247 $-1 #
coedge $-1 $440 $440 $297 $369 reversed $364 $-1 #
edge $-1 $446 0 $447 3.1415926535897931 $368 $448 forward 7 unknown #
coedge $-1 $299 $298 $449 $450 reversed $213 $-1 #
coedge $-1 $451 $452 $298 $372 reversed $453 $-1 #
edge $-1 $378 0 $454 0.19999999999999996 $298 $455 forward 7 unknown #
coedge $-1 $452 $451 $299 $374 forward $453 $-1 #
edge $-1 $377 0 $456 0.19999999999999996 $299 $457 forward 7 unknown #
coedge $-1 $300 $300 $451 $458 forward $376 $-1 #
loop $-1 $459 $375 $436 #
vertex $-1 $301 $460 #
vertex $-1 $301 $461 #
ellipse-curve $-1 1.1102230246251565e-016 -1.1102230246251565e-016 0.97999999999999998 0 0 -1 2.8500728214834452 -2.3799942614199402e-016 0 1 I I #
coedge $-1 $462 $462 $302 $381 forward $322 $-1 #
edge $-1 $387 1.2246063538223773e-016 $385 3.1415926535897931 $302 $463 forward 7 unknown #
coedge $-1 $305 $303 $307 $389 reversed $384 $-1 #
coedge $-1 $303 $305 $462 $464 forward $384 $-1 #
loop $-1 $-1 $383 $465 #
vertex $-1 $381 $466 #
straight-curve $-1 -3.0000728214834456 7.3478164782369071e-016 0.41000000000000014 0.70710678118654235 -1.7318549141438341e-016 -0.70710678118655279 I I #
vertex $-1 $306 $467 #
straight-curve $-1 3.0000728214834456 -3.6739082391184536e-016 0.41000000000000014 -0.70710678118654235 8.6592745707191705e-017 -0.70710678118655279 I I #
edge $-1 $309 0 $310 3.1415926535897931 $307 $468 forward 7 unknown #
loop $-1 $-1 $469 $391 #
face $-1 $465 $308 $3 $-1 $470 forward single #
point $-1 3.0000728214834456 -3.6739082391184536e-016 0.41000000000000014 #
point $-1 -3.0000728214834456 0 0.41000000000000014 #
coedge $-1 $312 $312 $315 $397 reversed $395 $-1 #
loop $-1 $-1 $312 $471 #
ellipse-curve $-1 0 -2.2204460492503131e-016 0.17999999999999999 0 0 -1 2.8500728214834452 2.2204460492503131e-016 0 1 I I #
edge $-1 $319 -1.224606353822377e-016 $317 3.1415926535897931 $394 $472 forward 7 unknown #
face $-1 $471 $316 $3 $-1 $473 forward single #
point $-1 -2.8500728214834452 0 0.17999999999999999 #
point $-1 2.8500728214834452 -3.4902172860450968e-016 0.17999999999999999 #
ellipse-curve $-1 0 2.2204460492503131e-016 0.38 0 0 1 2.8500728214834452 -5.7106633352954099e-016 0 1 I I #
plane-surface $-1 0 0 0.38 0 0 -1 -1 0 0 forward_v I I I I #
coedge $-1 $474 $475 $476 $477 forward $326 $-1 #
coedge $-1 $331 $328 $478 $479 forward $265 $-1 #
coedge $-1 $328 $331 $480 $481 reversed $265 $-1 #
coedge $-1 $475 $474 $328 $407 reversed $326 $-1 #
edge $-1 $482 0 $483 3.1415926535897931 $406 $484 forward 7 unknown #
coedge $-1 $485 $333 $329 $409 reversed $415 $-1 #
edge $-1 $413 0 $336 1.5707963267948823 $329 $486 forward 7 unknown #
coedge $-1 $333 $485 $330 $411 forward $415 $-1 #
edge $-1 $412 0 $335 1.5707963267948823 $330 $487 forward 7 unknown #
vertex $-1 $481 $488 #
vertex $-1 $332 $489 #
ellipse-curve $-1 0 0 5.9225000000000003 0 0 -1 3 -3.6738190614671318e-016 0 1 I I #
loop $-1 $-1 $333 $490 #
ellipse-curve $-1 0 0 5.9850000000000003 0 0 1 2.9375 0 0 1 I I #
point $-1 2.9375 0 5.9850000000000003 #
point $-1 -2.9375 0 5.9850000000000003 #
cone-surface $-1 0 0 -0.14888703445839901 0 0 -1 -1.1917535925942111 0 0 1 I I -0.76604444311897835 0.64278760968653892 1.1917535925942111 forward I I I I #
coedge $-1 $345 $347 $353 $359 forward $339 $-1 #
coedge $-1 $343 $341 $428 $432 forward $272 $-1 #
coedge $-1 $341 $343 $491 $492 reversed $272 $-1 #
edge $-1 $350 0 $493 0.3335242330745376 $341 $494 forward 7 unknown #
coedge $-1 $491 $491 $342 $425 forward $439 $-1 #
edge $-1 $426 0 $493 3.1415926535897931 $342 $495 forward 7 unknown #
vertex $-1 $492 $496 #
straight-curve $-1 -3.005072821483445 7.36006254177513e-016 1.3435242330745378 0 0 -1 I I #
coedge $-1 $347 $345 $421 $432 reversed $339 $-1 #
ellipse-curve $-1 -3.0675728214834463 7.51313833600294e-016 1.3435242330745372 2.4492127076449123e-016 1 6.557406274649393e-030 0.040174225605409841 -9.8395223872566555e-018 0.047877777694936841 1 I I #
ellipse-curve $-1 3.0675728214834463 -3.75656916800147e-016 1.3435242330745372 -1.2246063538224561e-016 -1 3.2787031373246965e-030 -0.040174225605409841 4.9197611936283277e-018 0.047877777694936841 1 I I #
point $-1 3.005072821483445 -3.680031270887565e-016 1.3435242330745378 #
edge $-1 $350 0 $351 3.1415926535897931 $428 $497 forward 7 unknown #
point $-1 -3.005072821483445 0 1.3435242330745378 #
ellipse-curve $-1 0 0 1.391402010769474 0 0 -1 3.0273985958780365 -3.7073715560651867e-016 0 1 I I #
cone-surface $-1 0 0 0 0 0 -1 -3.2549999999999999 0 0 1 I I 0 1 3.2549999999999999 forward I I I I #
face $-1 $498 $376 $3 $-1 $499 forward single #
loop $-1 $-1 $500 $363 #
cone-surface $-1 0 0 -0.9900728214834893 0 0 -1 -0.99999999999998535 0 0 1 I I -0.70710678118654235 0.70710678118655268 0.99999999999998535 forward I I I I #
loop $-1 $-1 $424 $295 #
coedge $-1 $368 $368 $501 $502 forward $364 $-1 #
coedge $-1 $367 $366 $503 $504 reversed $247 $-1 #
coedge $-1 $501 $500 $366 $443 reversed $437 $-1 #
edge $-1 $447 1.2725352076061629e-031 $505 0.042426406871193208 $366 $506 forward 7 unknown #
coedge $-1 $500 $501 $367 $445 forward $437 $-1 #
edge $-1 $446 0 $507 0.042426406871192895 $367 $508 forward 7 unknown #
vertex $-1 $369 $509 #
vertex $-1 $369 $510 #
ellipse-curve $-1 1.1102230246251565e-016 -2.2204460492503131e-016 1.0100000000000002 0 0 -1 3.0000728214834456 -1.4534621898681405e-016 0 1 I I #
coedge $-1 $511 $511 $370 $450 forward $512 $-1 #
edge $-1 $456 1.224606353822377e-016 $454 3.1415926535897931 $370 $513 forward 7 unknown #
coedge $-1 $373 $371 $375 $458 reversed $453 $-1 #
coedge $-1 $371 $373 $511 $514 forward $453 $-1 #
loop $-1 $-1 $452 $498 #
vertex $-1 $450 $515 #
straight-curve $-1 -2.8500728214834452 6.9804345720901935e-016 0.97999999999999998 0 0 -1 I I #
vertex $-1 $374 $516 #
straight-curve $-1 2.8500728214834452 -3.4902172860450968e-016 0.97999999999999998 0 0 -1 I I #
edge $-1 $377 0 $378 3.1415926535897931 $375 $517 forward 7 unknown #
loop $-1 $-1 $503 $436 #
point $-1 2.8500728214834452 -3.4902172860450968e-016 0.97999999999999998 #
point $-1 -2.8500728214834452 0 0.97999999999999998 #
coedge $-1 $380 $380 $383 $464 reversed $322 $-1 #
ellipse-curve $-1 1.1102230246251565e-016 -1.1102230246251565e-016 0.38 0 0 -1 2.9700728214834453 1.1102230246251565e-016 0 1 I I #
edge $-1 $387 -1.2246063538223773e-016 $385 3.1415926535897931 $462 $518 forward 7 unknown #
face $-1 $323 $384 $3 $-1 $519 forward single #
point $-1 -2.9700728214834453 0 0.38 #
point $-1 2.9700728214834458 -3.637170048503783e-016 0.37999999999999989 #
ellipse-curve $-1 0 -1.1102230246251565e-016 0.41000000000000014 0 0 1 3.0000728214834456 -2.563685214493297e-016 0 1 I I #
coedge $-1 $520 $520 $521 $522 forward $390 $-1 #
plane-surface $-1 0 0 0.41000000000000014 0 0 -1 -1 0 0 forward_v I I I I #
face $-1 $523 $524 $3 $-1 $525 reversed single #
ellipse-curve $-1 0 2.2204460492503131e-016 0.17999999999999999 0 0 1 2.8500728214834452 -2.2204460492503131e-016 0 1 I I #
cone-surface $-1 0 0 0 0 0 -1 -2.8500728214834452 0 0 1 I I 0 1 2.8500728214834452 forward I I I I #
coedge $-1 $406 $403 $526 $527 forward $326 $-1 #
coedge $-1 $403 $406 $528 $529 reversed $326 $-1 #
coedge $-1 $530 $531 $403 $477 reversed $532 $-1 #
edge $-1 $533 0 $534 3.1415926535897931 $476 $535 forward 7 unknown #
coedge $-1 $536 $537 $404 $479 reversed $538 $-1 #
edge $-1 $483 0 $413 1.1329809471616716 $404 $539 forward 7 unknown #
coedge $-1 $537 $536 $405 $481 forward $538 $-1 #
edge $-1 $482 0 $412 1.1329809471616716 $405 $540 forward 7 unknown #
vertex $-1 $529 $541 #
vertex $-1 $407 $542 #
ellipse-curve $-1 0 0 4.7895190528383287 0 0 -1 3 -3.6738190614671318e-016 0 1 I I #
coedge $-1 $410 $408 $537 $543 reversed $415 $-1 #
ellipse-curve $-1 -2.9374999999999991 7.1945623287064644e-016 5.9225000000000003 2.4492127076447516e-016 1 0 -0.062500000000000888 1.5307579422779913e-017 0 1 I I #
ellipse-curve $-1 2.9374999999999991 -3.5972811643532322e-016 5.9225000000000003 -1.2246063538223758e-016 -1 0 0.062500000000000888 -7.6537897113899565e-018 0 1 I I #
point $-1 3 -3.6738190614671318e-016 5.9225000000000003 #
point $-1 -3 0 5.9225000000000003 #
face $-1 $160 $415 $3 $-1 $544 reversed single #
coedge $-1 $424 $424 $422 $492 forward $439 $-1 #
edge $-1 $493 0 $426 3.1415926535897931 $422 $545 forward 7 unknown #
vertex $-1 $492 $546 #
straight-curve $-1 3.005072821483445 -3.680031270887565e-016 1.3435242330745378 0 0 -1 I I #
ellipse-curve $-1 0 0 1.0100000000000002 0 0 -1 -3.005072821483445 0 0 1 I I #
point $-1 -3.005072821483445 0 1.0100000000000002 #
ellipse-curve $-1 0 0 1.3435242330745378 0 0 -1 3.005072821483445 -3.680031270887565e-016 0 1 I I #
face $-1 $547 $453 $3 $-1 $548 forward single #
plane-surface $-1 0 0 0.97999999999999998 0 0 -1 -1 0 0 forward_v I I I I #
coedge $-1 $442 $444 $549 $550 forward $437 $-1 #
coedge $-1 $444 $442 $440 $502 reversed $437 $-1 #
edge $-1 $446 0 $447 3.1415926535897931 $440 $551 forward 7 unknown #
coedge $-1 $549 $549 $441 $504 forward $459 $-1 #
edge $-1 $507 1.2246063538223773e-016 $505 3.1415926535897931 $441 $552 forward 7 unknown #
vertex $-1 $504 $553 #
straight-curve $-1 -3.0000728214834456 7.3478164782369071e-016 1.0100000000000002 0.70710678118654235 -1.7318549141438341e-016 -0.70710678118655279 I I #
vertex $-1 $445 $554 #
straight-curve $-1 3.0000728214834456 -3.6739082391184536e-016 1.0100000000000002 -0.70710678118654235 8.6592745707191705e-017 -0.70710678118655279 I I #
point $-1 3.0000728214834456 -3.6739082391184536e-016 1.0100000000000002 #
point $-1 -3.0000728214834456 0 1.0100000000000002 #
coedge $-1 $449 $449 $452 $514 reversed $512 $-1 #
loop $-1 $-1 $449 $547 #
ellipse-curve $-1 0 -2.2204460492503131e-016 0.78000000000000003 0 0 -1 2.8500728214834452 2.2204460492503131e-016 0 1 I I #
edge $-1 $456 -1.224606353822377e-016 $454 3.1415926535897931 $511 $555 forward 7 unknown #
point $-1 -2.8500728214834452 0 0.78000000000000003 #
point $-1 2.8500728214834452 -3.4902172860450968e-016 0.78000000000000003 #
ellipse-curve $-1 0 2.2204460492503131e-016 0.97999999999999998 0 0 1 2.8500728214834452 -5.7106633352954099e-016 0 1 I I #
ellipse-curve $-1 1.1102230246251565e-016 1.1102230246251565e-016 0.38 0 0 1 2.9700728214834453 -1.1102230246251565e-016 0 1 I I #
cone-surface $-1 0 0 -1.5900728214834894 0 0 -1 -0.99999999999998535 0 0 1 I I -0.70710678118654235 0.70710678118655268 0.99999999999998535 forward I I I I #
coedge $-1 $469 $469 $556 $557 forward $390 $-1 #
coedge $-1 $558 $559 $469 $522 reversed $560 $-1 #
edge $-1 $561 0 $562 3.1415926535897931 $521 $563 forward 7 unknown #
face $-1 $564 $565 $3 $-1 $566 forward single #
loop $-1 $395 $567 $471 #
plane-surface $-1 0 0 0.17999999999999999 0 0 -1 -1 0 0 forward_v I I I I #
coedge $-1 $568 $569 $474 $527 reversed $570 $-1 #
edge $-1 $534 0 $483 0.52359877559825663 $474 $571 forward 7 unknown #
coedge $-1 $569 $568 $475 $529 forward $570 $-1 #
edge $-1 $533 0 $482 0.52359877559825663 $475 $572 forward 7 unknown #
coedge $-1 $573 $476 $574 $575 reversed $532 $-1 #
coedge $-1 $476 $573 $576 $577 forward $532 $-1 #
loop $-1 $-1 $531 $578 #
vertex $-1 $575 $579 #
vertex $-1 $477 $580 #
ellipse-curve $-1 0 0 4.7582690528383287 0 0 -1 2.9916265877365276 -3.6635649276061089e-016 0 1 I I #
coedge $-1 $480 $478 $569 $581 reversed $538 $-1 #
coedge $-1 $478 $480 $485 $543 forward $538 $-1 #
loop $-1 $-1 $537 $582 #
straight-curve $-1 -3 7.3476381229342635e-016 4.7895190528383287 0 0 1 I I #
straight-curve $-1 3 -3.6738190614671318e-016 4.7895190528383287 0 0 1 I I #
point $-1 3 -3.6738190614671318e-016 4.7895190528383287 #
point $-1 -3 0 4.7895190528383287 #
edge $-1 $412 0 $413 3.1415926535897931 $537 $583 forward 7 unknown #
torus-surface $-1 0 0 5.9225000000000003 0 0 -1 2.9375 0.0625 -1 0 0 forward_v I I I I #
ellipse-curve $-1 0 0 1.0100000000000002 0 0 -1 3.005072821483445 0 0 1 I I #
point $-1 3.005072821483445 0 1.0100000000000002 #
face $-1 $584 $585 $3 $-1 $586 reversed single #
cone-surface $-1 0 0 0 0 0 -1 -2.8500728214834452 0 0 1 I I 0 1 2.8500728214834452 forward I I I I #
coedge $-1 $503 $503 $500 $550 reversed $459 $-1 #
edge $-1 $507 -1.2246063538223773e-016 $505 3.1415926535897931 $549 $587 forward 7 unknown #
ellipse-curve $-1 0 -1.1102230246251565e-016 1.0100000000000002 0 0 1 3.0000728214834456 -2.563685214493297e-016 0 1 I I #
ellipse-curve $-1 1.1102230246251565e-016 -1.1102230246251565e-016 0.97999999999999998 0 0 -1 2.9700728214834453 1.1102230246251565e-016 0 1 I I #
point $-1 -2.9700728214834453 0 0.97999999999999998 #
point $-1 2.9700728214834458 -3.637170048503783e-016 0.97999999999999998 #
ellipse-curve $-1 0 2.2204460492503131e-016 0.78000000000000003 0 0 1 2.8500728214834452 -2.2204460492503131e-016 0 1 I I #
coedge $-1 $588 $589 $520 $557 reversed $590 $-1 #
edge $-1 $562 0 $561 3.1415926535897931 $556 $591 forward 7 unknown #
coedge $-1 $592 $521 $589 $593 reversed $560 $-1 #
coedge $-1 $521 $592 $588 $594 forward $560 $-1 #
loop $-1 $-1 $559 $595 #
vertex $-1 $557 $596 #
vertex $-1 $594 $597 #
ellipse-curve $-1 0 0 0.41000000000000014 0 0 -1 -3.005072821483445 0 0 1 I I #
face $-1 $598 $599 $3 $-1 $600 reversed single #
loop $-1 $-1 $601 $523 #
cone-surface $-1 0 0 2.1500728214834899 0 0 1 -0.99999999999998535 0 0 1 I I -0.70710678118654235 0.70710678118655268 0.99999999999998535 forward I I I I #
coedge $-1 $602 $602 $603 $604 forward $524 $-1 #
coedge $-1 $528 $526 $605 $606 reversed $570 $-1 #
coedge $-1 $526 $528 $536 $581 forward $570 $-1 #
loop $-1 $-1 $569 $607 #
ellipse-curve $-1 -2.9374999999999951 7.1945623287064486e-016 4.7895190528383296 2.4492127076448467e-016 1 5.5466782398343871e-031 -0.05412658773653245 1.3256752650576917e-017 -0.031250000000000888 1 I I #
ellipse-curve $-1 2.9374999999999951 -3.5972811643532243e-016 4.7895190528383296 -1.2246063538224234e-016 -1 2.7733391199171935e-031 0.05412658773653245 -6.6283763252884585e-018 -0.031250000000000888 1 I I #
coedge $-1 $531 $530 $608 $609 forward $532 $-1 #
coedge $-1 $605 $610 $530 $575 forward $611 $-1 #
edge $-1 $612 0 $533 0.8582531754730558 $530 $613 forward 7 unknown #
coedge $-1 $610 $605 $531 $577 reversed $611 $-1 #
edge $-1 $614 -7.6857611993384577e-032 $534 0.8582531754730558 $531 $615 forward 7 unknown #
face $-1 $616 $532 $3 $-1 $617 reversed single #
point $-1 2.9916265877365276 -3.6635649276061089e-016 4.7582690528383287 #
point $-1 -2.9916265877365276 7.3271298552122178e-016 4.7582690528383287 #
edge $-1 $482 0 $483 3.1415926535897931 $569 $618 forward 7 unknown #
face $-1 $490 $538 $3 $-1 $619 reversed single #
ellipse-curve $-1 0 0 5.9225000000000003 0 0 1 3 -3.6738190614671318e-016 0 1 I I #
face $-1 $620 $621 $3 $-1 $622 forward single #
loop $-1 $512 $623 $547 #
plane-surface $-1 0 0 0.78000000000000003 0 0 -1 -1 0 0 forward_v I I I I #
ellipse-curve $-1 1.1102230246251565e-016 1.1102230246251565e-016 0.97999999999999998 0 0 1 2.9700728214834453 -1.1102230246251565e-016 0 1 I I #
coedge $-1 $624 $556 $559 $594 reversed $590 $-1 #
coedge $-1 $556 $624 $558 $593 forward $590 $-1 #
loop $-1 $-1 $589 $625 #
ellipse-curve $-1 0 0 0.41000000000000014 0 0 -1 3.005072821483445 0 0 1 I I #
coedge $-1 $559 $558 $626 $627 forward $560 $-1 #
edge $-1 $628 0 $561 0.33999999999999986 $589 $629 forward 7 unknown #
edge $-1 $630 0 $562 0.33999999999999986 $588 $631 forward 7 unknown #
face $-1 $625 $560 $3 $-1 $632 forward single #
point $-1 -3.005072821483445 0 0.41000000000000014 #
point $-1 3.005072821483445 0 0.41000000000000014 #
face $-1 $633 $634 $3 $-1 $635 forward single #
loop $-1 $636 $637 $564 #
plane-surface $-1 0 0 0.15000000000000036 0 0 -1 -1 0 0 forward_v I I I I #
coedge $-1 $638 $639 $640 $641 forward $565 $-1 #
coedge $-1 $567 $567 $642 $643 reversed $524 $-1 #
coedge $-1 $639 $638 $567 $604 reversed $565 $-1 #
edge $-1 $644 0 $645 3.1415926535897931 $567 $646 forward 7 unknown #
coedge $-1 $576 $574 $568 $606 forward $611 $-1 #
edge $-1 $533 0 $534 3.1415926535897931 $605 $647 forward 7 unknown #
face $-1 $582 $570 $3 $-1 $648 reversed single #
coedge $-1 $649 $650 $573 $609 reversed $651 $-1 #
edge $-1 $612 0 $614 3.1415926535897931 $608 $652 forward 7 unknown #
coedge $-1 $574 $576 $653 $654 forward $611 $-1 #
loop $-1 $-1 $574 $616 #
vertex $-1 $609 $655 #
straight-curve $-1 2.5625 -3.1380537816698417e-016 4.0149999999999988 0.50000000000000011 -6.1230317691118888e-017 0.8660254037844386 I I #
vertex $-1 $609 $656 #
straight-curve $-1 -2.5625 6.2761075633396834e-016 4.0149999999999988 -0.50000000000000011 1.2246063538223778e-016 0.8660254037844386 I I #
face $-1 $607 $611 $3 $-1 $657 reversed single #
cone-surface $-1 0 0 0.57661980560475268 0 0 -1 -0.57735026918962595 0 0 1 I I -0.50000000000000011 0.8660254037844386 0.57735026918962595 forward I I I I #
ellipse-curve $-1 0 0 4.7895190528383287 0 0 1 3 -3.6738190614671318e-016 0 1 I I #
cone-surface $-1 0 0 0 0 0 -1 -3 0 0 1 I I 0 1 3 forward I I I I #
face $-1 $658 $659 $3 $-1 $660 reversed single #
loop $-1 $-1 $661 $584 #
cone-surface $-1 0 0 2.7500728214834451 0 0 1 -0.99999999999999989 0 0 1 I I -0.70710678118654746 0.70710678118654757 0.99999999999999989 forward I I I I #
coedge $-1 $662 $662 $663 $664 forward $585 $-1 #
coedge $-1 $589 $588 $665 $666 forward $590 $-1 #
face $-1 $391 $590 $3 $-1 $667 forward single #
coedge $-1 $665 $665 $592 $627 reversed $668 $-1 #
edge $-1 $628 0 $630 3.1415926535897931 $592 $669 forward 7 unknown #
vertex $-1 $666 $670 #
straight-curve $-1 -3.005072821483445 7.36006254177513e-016 0.75 0 0 -1 I I #
vertex $-1 $666 $671 #
straight-curve $-1 3.005072821483445 -3.680031270887565e-016 0.75 0 0 -1 I I #
cone-surface $-1 0 0 0 0 0 -1 -3.005072821483445 0 0 1 I I 0 1 3.005072821483445 forward I I I I #
face $-1 $672 $673 $3 $-1 $674 forward single #
loop $-1 $-1 $642 $598 #
cone-surface $-1 0 0 2.1500728214834899 0 0 1 -0.99999999999998535 0 0 1 I I -0.70710678118654235 0.70710678118655268 0.99999999999998535 forward I I I I #
loop $-1 $-1 $675 $564 #
coedge $-1 $640 $640 $676 $677 forward $599 $-1 #
coedge $-1 $603 $601 $678 $679 reversed $565 $-1 #
coedge $-1 $601 $603 $680 $681 forward $565 $-1 #
coedge $-1 $637 $637 $601 $641 reversed $599 $-1 #
edge $-1 $682 -1.224606353822377e-016 $683 3.1415926535897931 $640 $684 forward 7 unknown #
coedge $-1 $678 $680 $602 $643 forward $634 $-1 #
edge $-1 $644 0 $645 3.1415926535897927 $602 $685 forward 7 unknown #
vertex $-1 $643 $686 #
vertex $-1 $643 $687 #
ellipse-curve $-1 0 -5.5511151231257827e-016 0.17999999999999999 1.8690165045694727e-017 1.2044132074584232e-033 1 2.9700728214834466 1.9139450746219987e-016 -5.5511151231257827e-017 1 I I #
ellipse-curve $-1 0 0 4.7582690528383287 0 0 1 2.9916265877365276 -3.6635649276061089e-016 0 1 I I #
torus-surface $-1 0 0 4.7895190528383287 0 0 -1 2.9375 0.0625 -1 0 0 forward_v I I I I #
coedge $-1 $688 $608 $689 $690 reversed $651 $-1 #
coedge $-1 $608 $688 $691 $692 forward $651 $-1 #
loop $-1 $-1 $649 $693 #
ellipse-curve $-1 2.2204460492503131e-016 2.2204460492503131e-016 4.0149999999999988 0 0 -1 2.5625 -5.3584998309201548e-016 0 1 I I #
coedge $-1 $691 $689 $610 $654 reversed $694 $-1 #
edge $-1 $614 -2.4492127076447545e-016 $612 3.1415926535897931 $653 $695 forward 7 unknown #
point $-1 2.5625 -3.1380537816698417e-016 4.0149999999999988 #
point $-1 -2.5625 0 4.0149999999999988 #
cone-surface $-1 0 0 0.57661980560475268 0 0 -1 -0.57735026918962595 0 0 1 I I -0.50000000000000011 0.8660254037844386 0.57735026918962595 forward I I I I #
face $-1 $595 $696 $3 $-1 $697 forward single #
loop $-1 $668 $698 $620 #
plane-surface $-1 0 0 0.75 0 0 -1 -1 0 0 forward_v I I I I #
coedge $-1 $699 $700 $701 $702 forward $621 $-1 #
coedge $-1 $623 $623 $703 $704 reversed $585 $-1 #
coedge $-1 $700 $699 $623 $664 reversed $621 $-1 #
edge $-1 $705 0 $706 3.1415926535897931 $623 $707 forward 7 unknown #
coedge $-1 $626 $626 $624 $666 reversed $668 $-1 #
edge $-1 $630 0 $628 3.1415926535897931 $624 $708 forward 7 unknown #
cone-surface $-1 0 0 0 0 0 -1 -3.005072821483445 0 0 1 I I 0 1 3.005072821483445 forward I I I I #
loop $-1 $-1 $626 $620 #
ellipse-curve $-1 0 0 0.75 0 0 -1 -3.005072821483445 0 0 1 I I #
point $-1 -3.005072821483445 0 0.75 #
point $-1 3.005072821483445 0 0.75 #
face $-1 $709 $710 $3 $-1 $711 forward single #
loop $-1 $-1 $712 $633 #
cone-surface $-1 0 0 0 0 0 -1 -3.005072821483445 0 0 1 I I 0 1 3.005072821483445 forward I I I I #
coedge $-1 $713 $713 $714 $715 reversed $636 $-1 #
coedge $-1 $680 $678 $637 $677 reversed $634 $-1 #
edge $-1 $682 1.2246063538223768e-016 $683 3.1415926535897931 $676 $716 forward 7 unknown #
coedge $-1 $676 $642 $638 $679 forward $634 $-1 #
edge $-1 $645 -1.2598101644156078e-031 $683 0.04242640687119148 $678 $717 forward 7 unknown #
coedge $-1 $642 $676 $639 $681 reversed $634 $-1 #
edge $-1 $644 0 $682 0.042426406871191785 $680 $718 forward 7 unknown #
vertex $-1 $681 $719 #
vertex $-1 $677 $720 #
ellipse-curve $-1 -2.2204460492503131e-016 -1.1102230246251565e-016 0.15000000000000036 0 0 1 3.0000728214834451 1.1102230246251565e-016 0 1 I I #
ellipse-curve $-1 1.1102230246251565e-016 4.4408920985006262e-016 0.17999999999999999 -1.8690165045694727e-017 5.0833876423771383e-033 -1 2.9700728214834466 -8.0780621470044101e-016 -5.5511151231257827e-017 1 I I #
point $-1 2.9700728214834466 -3.637170048503784e-016 0.17999999999999994 #
point $-1 -2.9700728214834466 0 0.17999999999999994 #
coedge $-1 $650 $649 $721 $722 forward $651 $-1 #
coedge $-1 $653 $723 $649 $690 forward $694 $-1 #
edge $-1 $724 4.9052959086686911e-032 $612 4.0149999999999988 $649 $725 forward 7 unknown #
coedge $-1 $723 $653 $650 $692 reversed $694 $-1 #
edge $-1 $726 0 $614 4.0149999999999988 $650 $727 forward 7 unknown #
face $-1 $578 $651 $3 $-1 $728 reversed single #
loop $-1 $-1 $691 $729 #
ellipse-curve $-1 2.2204460492503131e-016 -2.2204460492503131e-016 4.0149999999999988 0 0 -1 -2.5625 8.4965536125899965e-016 0 1 I I #
loop $-1 $-1 $703 $658 #
cone-surface $-1 0 0 2.7500728214834451 0 0 1 -0.99999999999999989 0 0 1 I I -0.70710678118654746 0.70710678118654757 0.99999999999999989 forward I I I I #
coedge $-1 $701 $701 $730 $731 forward $659 $-1 #
coedge $-1 $663 $661 $732 $733 reversed $621 $-1 #
coedge $-1 $661 $663 $734 $735 forward $621 $-1 #
coedge $-1 $698 $698 $661 $702 reversed $659 $-1 #
edge $-1 $736 -1.2246063538223768e-016 $737 3.1415926535897931 $701 $738 forward 7 unknown #
coedge $-1 $732 $734 $662 $704 forward $696 $-1 #
edge $-1 $705 0 $706 3.1415926535897931 $662 $739 forward 7 unknown #
vertex $-1 $704 $740 #
vertex $-1 $704 $741 #
ellipse-curve $-1 -1.1102230246251565e-016 -6.6613381477509392e-016 0.78000000000000003 -1.4952132036555792e-016 -1.5224461970632366e-032 1 2.9700728214834444 3.0241680992471582e-016 4.4408920985006262e-016 1 I I #
ellipse-curve $-1 0 0 0.75 0 0 -1 3.005072821483445 0 0 1 I I #
face $-1 $742 $743 $3 $-1 $744 forward single #
loop $-1 $-1 $745 $672 #
cone-surface $-1 0 0 0 0 0 -1 -3.005072821483445 0 0 1 I I 0 1 3.005072821483445 forward I I I I #
coedge $-1 $746 $714 $747 $748 forward $673 $-1 #
coedge $-1 $675 $675 $749 $750 reversed $636 $-1 #
coedge $-1 $712 $751 $675 $715 forward $673 $-1 #
edge $-1 $752 0 $753 3.1415926535897931 $714 $754 forward 7 unknown #
ellipse-curve $-1 -2.2204460492503131e-016 1.1102230246251565e-016 0.15000000000000036 0 0 -1 3.0000728214834451 -1.1102230246251565e-016 0 1 I I #
straight-curve $-1 -2.9700728214834466 7.2743400970075679e-016 0.17999999999999994 -0.70710678118653969 1.7318549141438324e-016 -0.70710678118655534 I I #
straight-curve $-1 2.9700728214834466 -3.637170048503784e-016 0.17999999999999994 0.70710678118653969 -8.6592745707191619e-017 -0.70710678118655534 I I #
point $-1 3.0000728214834456 -3.6739082391184536e-016 0.15000000000000036 #
point $-1 -3.0000728214834451 0 0.15000000000000036 #
coedge $-1 $755 $755 $688 $722 reversed $756 $-1 #
edge $-1 $724 0 $726 3.1415926535897931 $721 $757 forward 7 unknown #
coedge $-1 $689 $691 $755 $758 forward $694 $-1 #
vertex $-1 $722 $759 #
straight-curve $-1 2.5625 3.1380537816698417e-016 0 0 -1.5631650220024122e-016 1 I I #
vertex $-1 $722 $760 #
straight-curve $-1 -2.5625 0 0 0 1.5631650220024122e-016 1 I I #
cone-surface $-1 0 0 0 0 0 -1 -2.5625 0 0 1 I I 0 1 2.5625 forward I I I I #
face $-1 $693 $694 $3 $-1 $761 reversed single #
coedge $-1 $734 $732 $698 $731 reversed $696 $-1 #
edge $-1 $736 1.2246063538223768e-016 $737 3.1415926535897931 $730 $762 forward 7 unknown #
coedge $-1 $730 $703 $699 $733 forward $696 $-1 #
edge $-1 $706 -1.2598101644156279e-031 $737 0.042426406871193673 $732 $763 forward 7 unknown #
coedge $-1 $703 $730 $700 $735 reversed $696 $-1 #
edge $-1 $705 0 $736 0.04242640687119336 $734 $764 forward 7 unknown #
vertex $-1 $735 $765 #
vertex $-1 $731 $766 #
ellipse-curve $-1 -2.2204460492503131e-016 -1.1102230246251565e-016 0.75 0 0 1 3.0000728214834451 1.1102230246251565e-016 0 1 I I #
ellipse-curve $-1 2.2204460492503131e-016 1.1102230246251565e-016 0.78000000000000003 1.4952132036555794e-016 -2.3899632206122302e-032 -1 2.970072821483444 -4.7473930731289376e-016 4.4408920985006262e-016 1 I I #
point $-1 2.9700728214834444 -3.637170048503781e-016 0.78000000000000047 #
point $-1 -2.9700728214834444 0 0.78000000000000047 #
face $-1 $767 $768 $3 $-1 $769 forward single #
loop $-1 $-1 $770 $709 #
cone-surface $-1 0 0 -1.9071438892953125 0 0 -1 -0.99999999999999922 0 0 1 I I -0.70710678118654724 0.70710678118654779 0.99999999999999922 forward I I I I #
coedge $-1 $771 $749 $751 $772 forward $710 $-1 #
coedge $-1 $751 $712 $773 $774 forward $673 $-1 #
coedge $-1 $749 $771 $712 $748 reversed $710 $-1 #
edge $-1 $753 -3.6082248300317588e-016 $775 0.052071067811865296 $747 $776 forward 7 unknown #
coedge $-1 $745 $747 $713 $750 forward $710 $-1 #
edge $-1 $753 0 $752 3.1415926535897931 $749 $777 forward 7 unknown #
coedge $-1 $714 $746 $745 $772 reversed $673 $-1 #
vertex $-1 $750 $778 #
vertex $-1 $750 $779 #
ellipse-curve $-1 0 0 0.15000000000000036 0 0 -1 -3.005072821483445 0 0 1 I I #
coedge $-1 $721 $721 $723 $758 reversed $756 $-1 #
loop $-1 $-1 $755 $780 #
ellipse-curve $-1 0 0 0 0 0 -1 2.5625 0 0 1 I I #
edge $-1 $726 0 $724 3.1415926535897931 $755 $781 forward 7 unknown #
point $-1 2.5625 0 0 #
point $-1 -2.5625 0 0 #
cone-surface $-1 0 0 0 0 0 -1 -2.5625 0 0 1 I I 0 1 2.5625 forward I I I I #
ellipse-curve $-1 -2.2204460492503131e-016 1.1102230246251565e-016 0.75 0 0 -1 3.0000728214834451 -1.1102230246251565e-016 0 1 I I #
straight-curve $-1 -2.9700728214834444 7.274340097007562e-016 0.78000000000000047 -0.70710678118654491 1.7318549141438615e-016 -0.70710678118655013 I I #
straight-curve $-1 2.9700728214834444 -3.637170048503781e-016 0.78000000000000047 0.70710678118654491 -8.6592745707193073e-017 -0.70710678118655013 I I #
point $-1 3.0000728214834447 -3.6739082391184526e-016 0.75 #
point $-1 -3.0000728214834451 0 0.75 #
face $-1 $782 $783 $3 $-1 $784 reversed single #
loop $-1 $-1 $785 $742 #
cone-surface $-1 0 0 -1.9071438892953125 0 0 -1 -0.99999999999999922 0 0 1 I I -0.70710678118654724 0.70710678118654779 0.99999999999999922 forward I I I I #
coedge $-1 $786 $787 $771 $788 forward $743 $-1 #
coedge $-1 $747 $745 $770 $788 reversed $710 $-1 #
edge $-1 $752 0 $789 0.052071067811865657 $745 $790 forward 7 unknown #
coedge $-1 $791 $792 $746 $774 reversed $768 $-1 #
edge $-1 $775 0 $789 3.1415926535897931 $746 $793 forward 7 unknown #
vertex $-1 $748 $794 #
straight-curve $-1 3.005072821483445 -3.680031270887565e-016 0.14999999999999999 0 0 -1 I I #
ellipse-curve $-1 0 0 0.15000000000000036 0 0 -1 3.005072821483445 0 0 1 I I #
point $-1 -3.005072821483445 0 0.15000000000000036 #
point $-1 3.005072821483445 0 0.15000000000000036 #
face $-1 $729 $795 $3 $-1 $796 forward single #
ellipse-curve $-1 0 0 0 0 0 -1 -2.5625 0 0 1 I I #
face $-1 $780 $797 $3 $-1 $798 reversed single #
loop $-1 $-1 $799 $767 #
torus-surface $-1 0 0 -0.027959415460183858 0 0 -1 2.9675728214834449 0.0625 -1 0 0 forward_v I I I I #
coedge $-1 $792 $791 $800 $801 forward $768 $-1 #
coedge $-1 $802 $770 $792 $803 forward $743 $-1 #
coedge $-1 $770 $802 $791 $804 reversed $743 $-1 #
edge $-1 $775 0 $789 3.1415926535897931 $771 $805 forward 7 unknown #
vertex $-1 $788 $806 #
straight-curve $-1 -3.005072821483445 7.36006254177513e-016 0.15000000000000036 0 0 -1 I I #
coedge $-1 $785 $773 $787 $804 forward $768 $-1 #
coedge $-1 $773 $785 $786 $803 reversed $768 $-1 #
ellipse-curve $-1 -1.1102230246251565e-016 4.4408920985006262e-016 0.097928932188134699 0 0 1 3.0050728214834446 -8.1209233693881907e-016 0 1 I I #
point $-1 3.0050728214834446 -3.680031270887565e-016 0.097928932188134699 #
loop $-1 $756 $807 $780 #
plane-surface $-1 0 0 0 0 0 -1 -1 0 0 forward_v I I I I #
loop $-1 $-1 $808 $782 #
torus-surface $-1 0 0 -0.027959415460183858 0 0 -1 2.9675728214834449 0.0625 -1 0 0 forward_v I I I I #
coedge $-1 $800 $809 $810 $811 reversed $783 $-1 #
coedge $-1 $812 $799 $785 $801 reversed $783 $-1 #
edge $-1 $813 2.3076519176228076e-032 $814 3.1415926535897931 $785 $815 forward 7 unknown #
coedge $-1 $787 $786 $816 $817 reversed $743 $-1 #
edge $-1 $789 0 $814 0.11553300858899079 $786 $818 forward 7 unknown #
edge $-1 $775 0 $813 0.11553300858899074 $787 $819 forward 7 unknown #
ellipse-curve $-1 -1.1102230246251565e-016 -1.1102230246251565e-016 0.097928932188134699 0 0 -1 3.0050728214834446 -2.5698082462624084e-016 0 1 I I #
point $-1 -3.0050728214834446 7.36006254177513e-016 0.097928932188134699 #
coedge $-1 $820 $820 $809 $821 forward $795 $-1 #
coedge $-1 $816 $822 $812 $823 reversed $797 $-1 #
coedge $-1 $799 $812 $807 $821 reversed $783 $-1 #
coedge $-1 $822 $816 $799 $811 forward $797 $-1 #
edge $-1 $814 0 $824 0.32159731988480544 $810 $825 forward 7 unknown #
coedge $-1 $809 $800 $808 $823 forward $783 $-1 #
vertex $-1 $804 $826 #
vertex $-1 $817 $827 #
ellipse-curve $-1 0 0 0.016234758363975407 0 0 1 2.9233786476592858 -3.5799880665522302e-016 0 1 I I #
coedge $-1 $810 $808 $802 $817 forward $797 $-1 #
edge $-1 $813 -2.3076519176228076e-032 $814 3.1415926535897931 $802 $828 forward 7 unknown #
straight-curve $-1 -3.0050728214834446 7.36006254177513e-016 0.097928932188134699 0.70710678118654557 -1.731854914143878e-016 -0.70710678118654946 I I #
straight-curve $-1 3.0050728214834446 -3.680031270887565e-016 0.097928932188134699 -0.70710678118654557 8.6592745707193899e-017 -0.70710678118654946 I I #
coedge $-1 $807 $807 $822 $829 forward $795 $-1 #
edge $-1 $824 0 $830 3.1415926535897931 $807 $831 forward 7 unknown #
coedge $-1 $808 $810 $820 $829 reversed $797 $-1 #
edge $-1 $813 -7.7715611723760859e-016 $830 0.32159731988480217 $808 $832 forward 7 unknown #
vertex $-1 $829 $833 #
ellipse-curve $-1 -2.9675728214834445 7.2682170652384471e-016 -0.027959415460183455 2.4492127076447161e-016 1 -5.0782920773603658e-030 0.044194173824158689 -1.0824093213398667e-017 0.044194173824158862 1 I I #
point $-1 2.9233786476592858 -3.5799880665522297e-016 0.016234758363975477 #
point $-1 -2.9233786476592858 0 0.016234758363975407 #
ellipse-curve $-1 0 0 0.016234758363975407 0 0 -1 2.9233786476592858 -3.5799880665522302e-016 0 1 I I #
edge $-1 $830 0 $824 3.1415926535897931 $820 $834 forward 7 unknown #
vertex $-1 $829 $835 #
ellipse-curve $-1 0 0 0 0 0 -1 -2.9116754057370544 0 0 1 I I #
ellipse-curve $-1 2.9675728214834449 -3.6341085326192246e-016 -0.027959415460183927 -1.2246063538223632e-016 -1 -2.0584339245610766e-030 -0.044194173824159133 5.4120466066994323e-018 0.044194173824159334 1 I I #
point $-1 -2.9116754057370544 0 0 #
ellipse-curve $-1 0 0 0 0 0 -1 2.9116754057370544 0 0 1 I I #
point $-1 2.9116754057370544 0 0 #
End-of-ACIS-data 