201 0 1 0           
7 Unknown 11 ACIS 2.1 NT 24 Wed Aug 29 11:40:03 2001 
-1 9.9999999999999995e-007 1e-010 
body $-1 $1 $-1 $2 #
lump $-1 $-1 $3 $0 #
transform $-1 1 6.1230317691118863e-017 -6.1230317691118863e-017 6.1230317691118863e-017 -1 6.1230317691118863e-017 -6.1230317691118863e-017 -6.1230317691118863e-017 -1 13.164 8.3801000000000005 5.0000000000000009 1 rotate no_reflect no_shear #
shell $-1 $-1 $-1 $4 $-1 $1 #
face $-1 $5 $6 $3 $-1 $7 reversed single #
face $-1 $8 $9 $3 $-1 $10 reversed single #
loop $-1 $11 $12 $4 #
plane-surface $-1 -1.1999999999999991 0.80000000000000238 -2.4999999999999991 -6.1230317691118863e-017 6.1230317691118863e-017 -1 -6.1230317691118863e-017 1 6.1230317691118863e-017 forward_v I I I I #
face $-1 $13 $14 $3 $-1 $15 reversed single #
loop $-1 $16 $17 $5 #
cone-surface $-1 -1.1999999999999991 0.80000000000000226 -1.2499999999999991 -6.1230317691118863e-017 6.1230317691118863e-017 -1 -9.1845476536678294e-017 1.5 9.1845476536678294e-017 1 I I 0 1 forward I I I I #
loop $-1 $-1 $18 $4 #
coedge $-1 $12 $12 $19 $20 1 $6 $-1 #
face $-1 $21 $22 $3 $-1 $23 reversed single #
loop $-1 $24 $25 $8 #
cone-surface $-1 -1.1999999999999993 0.80000000000000249 -4.9999999999999991 -6.1230317691118863e-017 6.1230317691118863e-017 -1 -6.1230317691118863e-017 1 6.1230317691118863e-017 1 I I 0 1 forward I I I I #
loop $-1 $-1 $19 $5 #
coedge $-1 $17 $17 $26 $27 1 $9 $-1 #
coedge $-1 $18 $18 $28 $29 0 $11 $-1 #
coedge $-1 $19 $19 $12 $20 0 $16 $-1 #
edge $-1 $30 $30 $12 $31 forward #
face $-1 $32 $33 $3 $-1 $34 reversed single #
loop $-1 $35 $36 $13 #
plane-surface $-1 -1.199999999999996 0.80000000000000027 -18 6.1230317691116866e-017 2.2204460492503131e-016 1 6.1230317691118875e-017 -1 2.2204460492503131e-016 forward_v I I I I #
loop $-1 $-1 $28 $8 #
coedge $-1 $25 $25 $37 $38 1 $14 $-1 #
coedge $-1 $26 $26 $17 $27 0 $39 $-1 #
edge $-1 $40 $40 $26 $41 forward #
coedge $-1 $28 $28 $18 $29 1 $24 $-1 #
edge $-1 $42 $42 $28 $43 forward #
vertex $-1 $20 $44 #
ellipse-curve $-1 -1.1999999999999991 0.80000000000000238 -2.4999999999999991 -6.1230317691118863e-017 6.1230317691118863e-017 -1 -9.1845476536678294e-017 1.5 9.1845476536678294e-017 1 I I #
face $-1 $45 $46 $3 $-1 $47 reversed single #
loop $-1 $48 $49 $21 #
cone-surface $-1 -1.199999999999996 0.79999999999999993 -19.5 6.1230317691116866e-017 2.2204460492503131e-016 1 1.8369095307335664e-016 -3 6.6613381477509392e-016 1 I I 0 1 forward I I I I #
loop $-1 $-1 $50 $13 #
coedge $-1 $36 $36 $51 $52 1 $22 $-1 #
coedge $-1 $37 $37 $25 $38 0 $53 $-1 #
edge $-1 $54 $54 $37 $55 forward #
loop $-1 $56 $26 $57 #
vertex $-1 $27 $58 #
ellipse-curve $-1 -1.1999999999999991 0.80000000000000215 2.2204460492503131e-016 0 0 -1 -9.1845476536678294e-017 1.5 9.1845476536678294e-017 1 I I #
vertex $-1 $29 $59 #
ellipse-curve $-1 -1.1999999999999991 0.80000000000000238 -2.4999999999999991 -6.1230317691118863e-017 6.1230317691118863e-017 -1 -6.1230317691118863e-017 1 6.1230317691118863e-017 1 I I #
point $-1 -1.1999999999999993 2.3000000000000025 -2.4999999999999991 #
face $-1 $60 $61 $3 $-1 $62 reversed single #
loop $-1 $63 $64 $32 #
cone-surface $-1 -1.1999999999999957 0.80000000000000071 -16 6.1230317691116866e-017 2.2204460492503131e-016 1 9.1845476536678319e-017 -1.5 3.3306690738754696e-016 1 I I 0 1 forward I I I I #
loop $-1 $-1 $51 $21 #
coedge $-1 $49 $49 $65 $66 1 $33 $-1 #
coedge $-1 $50 $50 $67 $68 0 $35 $-1 #
coedge $-1 $51 $51 $36 $52 0 $48 $-1 #
edge $-1 $69 $69 $36 $70 forward #
loop $-1 $71 $37 $72 #
vertex $-1 $38 $73 #
ellipse-curve $-1 -1.1999999999999993 0.80000000000000249 -5.0839202169003848 6.1230317691118863e-017 -6.1230317691118863e-017 1 0 1 0 1 I I #
loop $-1 $-1 $74 $57 #
face $-1 $75 $39 $3 $-1 $76 reversed single #
point $-1 -1.1999999999999886 -0.69999999999999785 1.3019912838835301e-016 #
point $-1 -1.1999999999999922 -0.19999999999999774 -2.4999999999999991 #
face $-1 $77 $78 $3 $-1 $62 reversed single #
loop $-1 $-1 $79 $45 #
plane-surface $-1 -1.1999999999999995 0.80000000000000093 -15 -6.1230317691118863e-017 6.1230317691118863e-017 -1 -1 -6.1230317691118863e-017 6.1230317691118863e-017 forward_v I I I I #
loop $-1 $-1 $67 $32 #
coedge $-1 $64 $64 $80 $81 1 $46 $-1 #
coedge $-1 $65 $65 $49 $66 0 $82 $-1 #
edge $-1 $83 $83 $65 $84 forward #
coedge $-1 $67 $67 $50 $68 1 $63 $-1 #
edge $-1 $85 $85 $67 $86 forward #
vertex $-1 $52 $87 #
ellipse-curve $-1 -1.199999999999996 0.80000000000000027 -18 6.1230317691116866e-017 2.2204460492503131e-016 1 1.8369095307335664e-016 -3 6.6613381477509392e-016 1 I I #
loop $-1 $-1 $88 $72 #
face $-1 $89 $53 $3 $-1 $90 reversed single #
point $-1 -1.2000000000000062 -0.19999999999999751 -5.0839202169003848 #
coedge $-1 $91 $92 $93 $94 0 $56 $-1 #
face $-1 $-1 $95 $3 $-1 $96 forward single #
plane-surface $-1 -1.7763568394002506e-016 3.5527136788005011e-016 0 0 0 -1 -1 0 0 forward_v I I I I #
face $-1 $97 $98 $3 $-1 $99 reversed single #
loop $-1 $-1 $100 $60 #
coedge $-1 $101 $102 $103 $104 1 $61 $-1 #
coedge $-1 $80 $80 $64 $81 0 $105 $-1 #
edge $-1 $106 $106 $80 $107 forward #
loop $-1 $108 $65 $109 #
vertex $-1 $66 $110 #
ellipse-curve $-1 -1.199999999999996 0.79999999999999971 -20.539392014169458 6.1230317691116866e-017 2.2204460492503131e-016 1 0 -3.0000000000000004 0 1 I I #
vertex $-1 $68 $111 #
ellipse-curve $-1 -1.199999999999996 0.80000000000000027 -18 6.1230317691116866e-017 2.2204460492503131e-016 1 9.1845476536678319e-017 -1.5 3.3306690738754696e-016 1 I I #
point $-1 -1.1999999999999957 -2.1999999999999997 -18 #
coedge $-1 $112 $113 $114 $115 0 $71 $-1 #
face $-1 $109 $105 $3 $-1 $90 reversed single #
sphere-surface $-1 -1.1999999999999975 0.80000000000000071 -11 6 -6.1230317691118863e-017 1 6.1230317691118863e-017 -6.1230317691118863e-017 6.1230317691118863e-017 -1 forward_v I I I I #
coedge $-1 $116 $74 $117 $118 0 $56 $-1 #
coedge $-1 $74 $116 $119 $120 0 $56 $-1 #
coedge $-1 $121 $122 $74 $94 1 $123 $-1 #
edge $-1 $124 $125 $74 $126 forward #
loop $-1 $127 $128 $75 #
plane-surface $-1 4.8000000000000025 -3.2000000000000002 -2.4999999999999991 -6.1230317691118863e-017 6.1230317691118863e-017 -1 -1 0 6.1230317691118863e-017 forward_v I I I I #
face $-1 $129 $130 $3 $-1 $131 reversed single #
loop $-1 $-1 $132 $77 #
plane-surface $-1 -1.1999999999999991 0.80000000000000049 -7 6.1230317691118863e-017 -6.1230317691118863e-017 1 1 6.1230317691118863e-017 -6.1230317691118863e-017 forward_v I I I I #
coedge $-1 $133 $134 $135 $136 1 $78 $-1 #
coedge $-1 $137 $79 $138 $139 1 $61 $-1 #
coedge $-1 $79 $137 $140 $141 0 $61 $-1 #
coedge $-1 $142 $143 $79 $104 0 $144 $-1 #
edge $-1 $145 $146 $103 $147 forward #
loop $-1 $148 $80 $89 #
vertex $-1 $81 $149 #
ellipse-curve $-1 -1.1999999999999957 0.80000000000000049 -16.809475019311126 -6.1230317691116866e-017 -2.2204460492503131e-016 -1 -2.2204460492503131e-016 -1.5 0 1 I I #
loop $-1 $-1 $150 $109 #
face $-1 $151 $82 $3 $-1 $152 forward single #
point $-1 -1.1999999999999751 3.8000000000000003 -20.539392014169458 #
point $-1 -1.1999999999999855 2.3000000000000003 -18 #
coedge $-1 $153 $88 $154 $155 0 $71 $-1 #
coedge $-1 $88 $153 $156 $157 0 $71 $-1 #
coedge $-1 $158 $159 $88 $115 1 $160 $-1 #
edge $-1 $161 $162 $88 $163 forward #
coedge $-1 $92 $91 $164 $165 0 $56 $-1 #
coedge $-1 $166 $167 $91 $118 1 $168 $-1 #
edge $-1 $125 $169 $91 $170 forward #
coedge $-1 $171 $172 $92 $120 1 $173 $-1 #
edge $-1 $174 $124 $92 $175 forward #
coedge $-1 $176 $93 $172 $177 0 $123 $-1 #
coedge $-1 $93 $176 $166 $178 1 $123 $-1 #
loop $-1 $-1 $176 $179 #
vertex $-1 $120 $180 #
vertex $-1 $94 $181 #
straight-curve $-1 4.7999999999999998 -3.2000000000000002 0 0 1 0 I I #
loop $-1 $-1 $182 $75 #
coedge $-1 $183 $184 $185 $186 0 $95 $-1 #
face $-1 $187 $188 $3 $-1 $131 reversed single #
loop $-1 $-1 $189 $97 #
torus-surface $-1 -1.1999999999999993 0.80000000000000082 -12 -6.1230317691118863e-017 6.1230317691118863e-017 -1 5 3 -1 -6.1230317691118863e-017 6.1230317691118863e-017 forward_v I I I I #
coedge $-1 $190 $191 $192 $193 1 $98 $-1 #
coedge $-1 $194 $100 $195 $196 0 $78 $-1 #
coedge $-1 $100 $194 $197 $198 1 $78 $-1 #
coedge $-1 $143 $199 $100 $136 0 $144 $-1 #
edge $-1 $200 $201 $135 $147 forward #
coedge $-1 $102 $101 $202 $203 1 $61 $-1 #
coedge $-1 $204 $205 $101 $139 0 $148 $-1 #
edge $-1 $206 $145 $138 $207 forward #
coedge $-1 $208 $189 $102 $141 1 $130 $-1 #
edge $-1 $209 $146 $102 $210 forward #
coedge $-1 $211 $103 $189 $212 0 $144 $-1 #
coedge $-1 $103 $135 $204 $213 1 $144 $-1 #
loop $-1 $214 $135 $151 #
vertex $-1 $213 $215 #
vertex $-1 $212 $216 #
straight-curve $-1 -7.1999999999999966 -3.1999999999999984 -15 -1 -6.1230317691118863e-017 6.1230317691118863e-017 I I #
loop $-1 $-1 $197 $89 #
point $-1 -1.200000000000006 2.3000000000000007 -16.809475019311126 #
coedge $-1 $217 $218 $183 $219 1 $108 $-1 #
face $-1 $220 $144 $3 $-1 $221 reversed single #
sphere-surface $-1 -1.1999999999999975 0.80000000000000071 -11 10 -6.1230317691118863e-017 1 6.1230317691118863e-017 -6.1230317691118863e-017 6.1230317691118863e-017 -1 forward_v I I I I #
coedge $-1 $113 $112 $191 $222 0 $71 $-1 #
coedge $-1 $223 $192 $112 $155 1 $144 $-1 #
edge $-1 $162 $224 $112 $225 forward #
coedge $-1 $226 $227 $113 $157 1 $228 $-1 #
edge $-1 $229 $161 $113 $230 forward #
coedge $-1 $231 $114 $227 $232 1 $160 $-1 #
coedge $-1 $114 $231 $223 $233 1 $160 $-1 #
loop $-1 $-1 $159 $234 #
vertex $-1 $232 $235 #
vertex $-1 $155 $236 #
ellipse-curve $-1 -1.1999999999999973 0.80000000000000049 -7 -6.1230317691118863e-017 6.1230317691118863e-017 -1 0 4.4721359549995796 2.7383030528249952e-016 1 I I #
coedge $-1 $237 $238 $116 $165 1 $239 $-1 #
edge $-1 $169 $174 $116 $240 forward #
coedge $-1 $241 $117 $122 $178 0 $168 $-1 #
coedge $-1 $117 $241 $237 $242 1 $168 $-1 #
loop $-1 $-1 $241 $220 #
vertex $-1 $118 $243 #
straight-curve $-1 4.7999999999999998 8.8000000000000007 0 -1 0 0 I I #
coedge $-1 $244 $119 $238 $245 0 $173 $-1 #
coedge $-1 $119 $244 $121 $177 1 $173 $-1 #
loop $-1 $-1 $244 $246 #
vertex $-1 $165 $247 #
straight-curve $-1 -7.2000000000000002 -7.2000000000000002 0 1 0 0 I I #
coedge $-1 $122 $121 $248 $249 0 $123 $-1 #
edge $-1 $124 $250 $121 $251 forward #
edge $-1 $125 $252 $166 $253 forward #
face $-1 $57 $123 $3 $-1 $254 forward single #
point $-1 4.7999999999999998 -7.2000000000000002 0 #
point $-1 4.7999999999999998 8.8000000000000007 0 #
coedge $-1 $248 $255 $241 $256 1 $127 $-1 #
coedge $-1 $257 $128 $150 $219 0 $95 $-1 #
coedge $-1 $128 $257 $258 $259 0 $95 $-1 #
coedge $-1 $260 $260 $128 $186 1 $214 $-1 #
edge $-1 $261 $262 $128 $263 forward #
face $-1 $264 $265 $3 $-1 $266 reversed single #
loop $-1 $-1 $267 $129 #
coedge $-1 $140 $268 $142 $212 1 $130 $-1 #
coedge $-1 $269 $132 $270 $271 0 $98 $-1 #
coedge $-1 $132 $272 $153 $222 1 $98 $-1 #
coedge $-1 $154 $273 $132 $193 0 $144 $-1 #
edge $-1 $274 $224 $192 $275 forward #
coedge $-1 $134 $133 $276 $277 1 $78 $-1 #
coedge $-1 $267 $278 $133 $196 1 $188 $-1 #
edge $-1 $200 $279 $133 $210 forward #
coedge $-1 $205 $204 $134 $198 0 $148 $-1 #
edge $-1 $201 $280 $197 $207 forward #
coedge $-1 $135 $281 $267 $282 0 $144 $-1 #
vertex $-1 $282 $283 #
vertex $-1 $198 $284 #
coedge $-1 $285 $286 $137 $203 0 $228 $-1 #
edge $-1 $209 $206 $202 $287 forward #
coedge $-1 $197 $138 $143 $213 0 $148 $-1 #
coedge $-1 $138 $197 $285 $288 0 $148 $-1 #
vertex $-1 $203 $289 #
ellipse-curve $-1 -1.1999999999999977 0.80000000000000093 -15 6.1230317691118863e-017 -6.1230317691118863e-017 1 0 -4.4721359549995796 -2.7383030528249952e-016 1 I I #
coedge $-1 $268 $140 $286 $290 1 $130 $-1 #
vertex $-1 $290 $291 #
ellipse-curve $-1 -1.1999999999999995 0.80000000000000093 -15 6.1230317691118863e-017 -6.1230317691118863e-017 1 5 3.0615158845559431e-016 -3.0615158845559431e-016 1 I I #
coedge $-1 $273 $142 $292 $293 0 $144 $-1 #
edge $-1 $146 $294 $142 $295 forward #
edge $-1 $145 $201 $204 $225 forward #
loop $-1 $-1 $185 $151 #
point $-1 -3.1999999999999984 -3.1999999999999975 -15 #
point $-1 -4.2000000000000011 -3.1999999999999975 -15 #
coedge $-1 $258 $150 $260 $296 0 $108 $-1 #
coedge $-1 $150 $258 $297 $298 0 $108 $-1 #
edge $-1 $262 $299 $183 $300 forward #
face $-1 $301 $168 $3 $-1 $302 forward single #
plane-surface $-1 -13.199999999999994 -3.1999999999999993 -10.999999999999998 -6.1230317691118863e-017 1 6.1230317691118863e-017 6.1230317691118863e-017 -6.1230317691118863e-017 1 forward_v I I I I #
edge $-1 $224 $229 $153 $163 forward #
coedge $-1 $303 $154 $159 $233 0 $144 $-1 #
vertex $-1 $222 $304 #
ellipse-curve $-1 -1.1999999999999975 -3.1999999999999975 -11 6.1230317691118863e-017 -1 -6.1230317691118863e-017 -2.7383030528249952e-016 2.7383030528249952e-016 -4.4721359549995796 1 I I #
coedge $-1 $305 $156 $272 $306 0 $228 $-1 #
coedge $-1 $156 $307 $158 $232 0 $228 $-1 #
loop $-1 $-1 $276 $308 #
vertex $-1 $157 $309 #
ellipse-curve $-1 -1.1999999999999975 4.8000000000000007 -11 -6.1230317691118863e-017 1 6.1230317691118863e-017 2.7383030528249952e-016 -2.7383030528249952e-016 4.4721359549995796 1 I I #
coedge $-1 $159 $158 $310 $311 0 $160 $-1 #
edge $-1 $312 $161 $227 $313 forward #
edge $-1 $162 $314 $223 $275 forward #
face $-1 $308 $160 $3 $-1 $99 reversed single #
point $-1 0.80000000000000315 4.8000000000000007 -7 #
point $-1 0.80000000000000315 -3.1999999999999975 -7 #
coedge $-1 $315 $164 $167 $242 0 $239 $-1 #
coedge $-1 $164 $315 $171 $245 1 $239 $-1 #
loop $-1 $-1 $315 $301 #
straight-curve $-1 -7.2000000000000002 8.8000000000000007 0 0 -1 0 I I #
coedge $-1 $167 $166 $182 $256 0 $168 $-1 #
edge $-1 $169 $316 $237 $317 forward #
point $-1 -7.2000000000000002 8.8000000000000007 0 #
coedge $-1 $172 $171 $318 $319 0 $173 $-1 #
edge $-1 $174 $320 $171 $321 forward #
face $-1 $179 $173 $3 $-1 $322 forward single #
point $-1 -7.2000000000000002 -7.2000000000000002 0 #
coedge $-1 $318 $182 $176 $249 1 $127 $-1 #
edge $-1 $250 $252 $176 $323 forward #
vertex $-1 $177 $324 #
straight-curve $-1 4.7999999999999998 -7.2000000000000002 0 -6.1230317691118863e-017 6.1230317691118863e-017 -1 I I #
vertex $-1 $178 $325 #
straight-curve $-1 4.7999999999999998 8.8000000000000007 0 -6.1230317691118863e-017 6.1230317691118863e-017 -1 I I #
plane-surface $-1 4.7999999999999998 -3.2000000000000002 0 1 0 -6.1230317691118863e-017 -6.1230317691118863e-017 0 -1 forward_v I I I I #
coedge $-1 $182 $318 $315 $326 1 $127 $-1 #
edge $-1 $252 $316 $241 $327 forward #
coedge $-1 $184 $183 $328 $329 0 $95 $-1 #
coedge $-1 $218 $217 $184 $259 1 $108 $-1 #
edge $-1 $330 $261 $184 $300 forward #
coedge $-1 $185 $185 $217 $296 1 $214 $-1 #
vertex $-1 $186 $331 #
vertex $-1 $186 $332 #
straight-curve $-1 -4.1999999999999957 -3.1999999999999993 -2.4999999999999982 1 6.1230317691118863e-017 -6.1230317691118863e-017 I I #
face $-1 $333 $334 $3 $-1 $335 reversed single #
loop $-1 $-1 $292 $187 #
cone-surface $-1 -1.1999999999999993 0.80000000000000071 -11 -6.1230317691118863e-017 6.1230317691118863e-017 -1 -8 -4.898425415289509e-016 4.898425415289509e-016 1 I I 0 1 forward I I I I #
coedge $-1 $336 $195 $199 $282 1 $188 $-1 #
coedge $-1 $189 $208 $337 $338 1 $130 $-1 #
coedge $-1 $272 $190 $339 $340 0 $98 $-1 #
coedge $-1 $341 $339 $190 $271 1 $334 $-1 #
edge $-1 $274 $342 $190 $343 forward #
coedge $-1 $191 $269 $226 $306 1 $98 $-1 #
coedge $-1 $192 $211 $341 $344 0 $144 $-1 #
vertex $-1 $344 $345 #
straight-curve $-1 -7.1999999999999966 -3.1999999999999993 -7.0000000000000009 1 6.1230317691118863e-017 -6.1230317691118863e-017 I I #
coedge $-1 $346 $285 $194 $277 0 $228 $-1 #
edge $-1 $280 $279 $276 $287 forward #
coedge $-1 $195 $336 $346 $347 1 $188 $-1 #
vertex $-1 $347 $348 #
vertex $-1 $288 $349 #
coedge $-1 $199 $303 $350 $351 0 $144 $-1 #
edge $-1 $352 $200 $199 $353 forward #
point $-1 1.8000000000000023 -3.1999999999999975 -15 #
point $-1 0.80000000000000271 -3.1999999999999975 -15 #
coedge $-1 $276 $202 $205 $288 1 $228 $-1 #
coedge $-1 $202 $354 $208 $290 0 $228 $-1 #
straight-curve $-1 -1.199999999999998 4.8000000000000007 -15 1 6.1230317691118863e-017 -6.1230317691118863e-017 I I #
edge $-1 $280 $206 $205 $230 forward #
point $-1 -3.1999999999999984 4.8000000000000007 -15 #
edge $-1 $355 $209 $286 $356 forward #
point $-1 -4.1999999999999993 4.8000000000000007 -15 #
coedge $-1 $337 $357 $211 $293 1 $265 $-1 #
edge $-1 $294 $358 $211 $359 forward #
vertex $-1 $293 $360 #
intcurve-curve $-1 forward { surfintcur nubs 3 open 9 
	19.273060544737664 3 20.414521931283311 2 21.752334205943246 2 22.510870265265325 2 23.269406324587401 2 
	23.60734673909101 2 23.94528715359462 2 24.27345740727494 2 24.601627660955259 3 
	-4.2000000000000011 -3.1999999999999975 -15 
	-4.5977114966737407 -3.1999999999999975 -15 
	-4.9890309963190385 -3.1999999999999984 -14.970758048595798 
	-5.8064067384822744 -3.1999999999999984 -14.813113691808429 
	-6.227213306127199 -3.199999999999998 -14.669954248918419 
	-6.8346256146172504 -3.199999999999998 -14.324486944653881 
	-7.0597130335198646 -3.1999999999999988 -14.162960996178864 
	-7.4557746579645086 -3.1999999999999988 -13.78466082295196 
	-7.6265412215235351 -3.1999999999999988 -13.567669266990894 
	-7.8123291515241178 -3.1999999999999988 -13.25291958457148 
	-7.8688438798442233 -3.1999999999999984 -13.142827835726989 
	-7.9654093959502719 -3.1999999999999984 -12.915673307155316 
	-8.0054388306968978 -3.1999999999999988 -12.798601450643755 
	-8.0640766138988518 -3.1999999999999988 -12.584447322424827 
	-8.0887632007129913 -3.1999999999999988 -12.466847309619942 
	-8.1208301636167004 -3.1999999999999988 -12.229319184055777 
	-8.1282032302755098 -3.1999999999999988 -12.109390084560108 
	-8.1282032302755098 -3.1999999999999988 -12 
	0.001 
	torus -1.1999999999999993 0.80000000000000082 -12 -6.1230317691118863e-017 6.1230317691118863e-017 -1 5 3 -1 -6.1230317691118863e-017 6.1230317691118863e-017 forward_v I I I I 
	plane -13.199999999999994 -3.1999999999999993 -10.999999999999998 6.1230317691118863e-017 -1 -6.1230317691118863e-017 6.1230317691118863e-017 -6.1230317691118863e-017 1 reverse_v I I I I 
	nullbs 
	nullbs 
	F 19.273060544737664 F 24.601627660955259 } I I #
edge $-1 $262 $261 $217 $361 forward #
coedge $-1 $328 $328 $218 $298 1 $362 $-1 #
edge $-1 $330 $299 $218 $363 forward #
vertex $-1 $329 $364 #
ellipse-curve $-1 -1.1999999999999971 0.80000000000000016 -2.5 6.1230317691118863e-017 -6.1230317691118863e-017 1 0 -5.2678268764263692 -3.2255071318540092e-016 1 I I #
face $-1 $246 $239 $3 $-1 $365 forward single #
plane-surface $-1 4.7999999999999998 8.8000000000000007 0 0 1 6.1230317691118863e-017 0 -6.1230317691118863e-017 1 forward_v I I I I #
coedge $-1 $281 $223 $366 $367 0 $144 $-1 #
point $-1 -3.1999999999999975 -3.1999999999999975 -7 #
coedge $-1 $354 $226 $368 $369 0 $228 $-1 #
edge $-1 $229 $370 $226 $313 forward #
coedge $-1 $227 $371 $372 $373 0 $228 $-1 #
face $-1 $72 $362 $3 $-1 $374 reversed single #
point $-1 -3.1999999999999975 4.8000000000000007 -7 #
coedge $-1 $372 $366 $231 $311 1 $375 $-1 #
edge $-1 $312 $314 $231 $343 forward #
vertex $-1 $373 $376 #
straight-curve $-1 -1.1999999999999975 4.8000000000000007 -7 -1 -6.1230317691118863e-017 6.1230317691118863e-017 I I #
vertex $-1 $367 $377 #
coedge $-1 $238 $237 $255 $326 0 $239 $-1 #
vertex $-1 $242 $378 #
straight-curve $-1 -7.2000000000000002 8.8000000000000007 0 -6.1230317691118863e-017 6.1230317691118863e-017 -1 I I #
coedge $-1 $255 $248 $244 $319 1 $127 $-1 #
edge $-1 $320 $250 $244 $379 forward #
vertex $-1 $245 $380 #
straight-curve $-1 -7.2000000000000002 -7.2000000000000002 0 -6.1230317691118863e-017 6.1230317691118863e-017 -1 I I #
plane-surface $-1 -7.2000000000000002 -7.2000000000000002 0 0 -1 -6.1230317691118863e-017 0 6.1230317691118863e-017 -1 forward_v I I I I #
straight-curve $-1 4.7999999999999998 -3.2000000000000002 -2.5 0 1 0 I I #
point $-1 4.7999999999999998 -7.2000000000000002 -2.4999999999999996 #
point $-1 4.7999999999999998 8.8000000000000007 -2.4999999999999982 #
edge $-1 $316 $320 $315 $381 forward #
straight-curve $-1 4.7999999999999998 8.8000000000000007 -2.5 -1 0 0 I I #
coedge $-1 $297 $297 $257 $329 1 $362 $-1 #
edge $-1 $299 $330 $257 $382 forward #
vertex $-1 $329 $383 #
point $-1 -4.6278273002005186 -3.199999999999998 -2.5 #
point $-1 2.227827300200524 -3.199999999999998 -2.5 #
face $-1 $384 $375 $3 $-1 $335 reversed single #
loop $-1 $-1 $341 $264 #
torus-surface $-1 -1.1999999999999993 0.8000000000000006 -10 6.1230317691118863e-017 -6.1230317691118863e-017 1 5 3 1 6.1230317691118863e-017 -6.1230317691118863e-017 forward_v I I I I #
coedge $-1 $278 $267 $385 $386 1 $188 $-1 #
coedge $-1 $387 $292 $268 $338 0 $265 $-1 #
edge $-1 $294 $355 $337 $388 forward #
coedge $-1 $270 $368 $269 $340 1 $334 $-1 #
edge $-1 $342 $370 $269 $343 forward #
coedge $-1 $389 $270 $273 $344 1 $334 $-1 #
vertex $-1 $271 $390 #
ellipse-curve $-1 -1.1999999999999991 0.80000000000000049 -7 -6.1230317691118863e-017 6.1230317691118863e-017 -1 5 3.0615158845559431e-016 -3.0615158845559431e-016 1 I I #
edge $-1 $358 $274 $273 $391 forward #
point $-1 -4.1999999999999993 -3.1999999999999993 -7.0000000000000009 #
coedge $-1 $371 $276 $278 $347 0 $228 $-1 #
edge $-1 $279 $392 $346 $393 forward #
point $-1 1.8000000000000003 4.8000000000000007 -15 #
point $-1 0.80000000000000271 4.8000000000000007 -15 #
coedge $-1 $394 $385 $281 $351 1 $395 $-1 #
edge $-1 $396 $352 $281 $397 forward #
vertex $-1 $351 $398 #
intcurve-curve $-1 forward { surfintcur nubs 3 open 9 
	8.2005425536517542 3 8.5287128073320737 2 8.8568830610123932 2 9.194823475516003 2 9.532763890019611 2 
	10.291299949341688 2 11.049836008663766 2 12.387648283323699 2 13.529109669869349 3 
	5.7282032302755104 -3.199999999999998 -12 
	5.7282032302755104 -3.199999999999998 -12.109390084560108 
	5.7208301636167009 -3.1999999999999984 -12.229319184055781 
	5.6887632007129918 -3.1999999999999984 -12.466847309619945 
	5.6640766138988541 -3.199999999999998 -12.584447322424827 
	5.6054388306969001 -3.199999999999998 -12.798601450643757 
	5.5654093959502751 -3.199999999999998 -12.915673307155318 
	5.4688438798442256 -3.199999999999998 -13.14282783572699 
	5.4123291515241192 -3.199999999999998 -13.252919584571481 
	5.2265412215235356 -3.199999999999998 -13.567669266990894 
	5.0557746579645073 -3.1999999999999975 -13.784660822951963 
	4.6597130335198624 -3.1999999999999975 -14.162960996178867 
	4.4346256146172509 -3.1999999999999971 -14.324486944653881 
	3.8272133061272013 -3.1999999999999971 -14.669954248918417 
	3.4064067384822776 -3.1999999999999984 -14.813113691808427 
	2.5890309963190403 -3.1999999999999984 -14.970758048595796 
	2.197711496673743 -3.1999999999999975 -15 
	1.8000000000000023 -3.1999999999999975 -15 
	0.001 
	torus -1.1999999999999993 0.80000000000000082 -12 -6.1230317691118863e-017 6.1230317691118863e-017 -1 5 3 -1 -6.1230317691118863e-017 6.1230317691118863e-017 forward_v I I I I 
	plane -13.199999999999994 -3.1999999999999993 -10.999999999999998 6.1230317691118863e-017 -1 -6.1230317691118863e-017 6.1230317691118863e-017 -6.1230317691118863e-017 1 reverse_v I I I I 
	nullbs 
	nullbs 
	F 8.2005425536517542 F 13.529109669869349 } I I #
coedge $-1 $286 $305 $387 $399 0 $228 $-1 #
vertex $-1 $399 $400 #
intcurve-curve $-1 forward { surfintcur nubs 3 open 9 
	8.2005425536517542 3 8.5287128073320755 2 8.8568830610123968 2 9.194823475516003 2 9.532763890019611 2 
	10.291299949341688 2 11.049836008663764 2 12.387648283323699 2 13.529109669869351 3 
	-8.1282032302755081 4.8000000000000007 -12 
	-8.1282032302755081 4.8000000000000007 -12.109390084560108 
	-8.1208301636166986 4.8000000000000007 -12.229319184055779 
	-8.0887632007129895 4.8000000000000007 -12.466847309619947 
	-8.0640766138988518 4.8000000000000007 -12.584447322424833 
	-8.0054388306968978 4.8000000000000007 -12.79860145064376 
	-7.9654093959502719 4.8000000000000007 -12.91567330715532 
	-7.8688438798442224 4.8000000000000007 -13.142827835726992 
	-7.8123291515241187 4.8000000000000007 -13.252919584571483 
	-7.6265412215235333 4.8000000000000007 -13.567669266990896 
	-7.4557746579645032 4.8000000000000007 -13.784660822951963 
	-7.0597130335198583 4.8000000000000007 -14.162960996178867 
	-6.8346256146172495 4.8000000000000007 -14.324486944653881 
	-6.2272133061272008 4.8000000000000007 -14.669954248918419 
	-5.8064067384822762 4.8000000000000007 -14.813113691808429 
	-4.9890309963190393 4.8000000000000007 -14.970758048595798 
	-4.5977114966737398 4.8000000000000007 -15 
	-4.1999999999999993 4.8000000000000007 -15 
	0.001 
	torus -1.1999999999999993 0.80000000000000082 -12 -6.1230317691118863e-017 6.1230317691118863e-017 -1 5 3 -1 -6.1230317691118863e-017 6.1230317691118863e-017 forward_v I I I I 
	plane -1.1999999999999957 4.8000000000000007 -11 -6.1230317691118863e-017 1 6.1230317691118863e-017 -6.1230317691118863e-017 6.1230317691118863e-017 -1 reverse_v I I I I 
	nullbs 
	nullbs 
	F 8.2005425536517542 F 13.529109669869351 } I I #
coedge $-1 $292 $387 $389 $401 0 $265 $-1 #
vertex $-1 $344 $402 #
straight-curve $-1 -8.1282032302755098 -3.1999999999999988 -11 6.1230317691118863e-017 -6.1230317691118863e-017 1 I I #
point $-1 -8.1282032302755098 -3.1999999999999988 -12 #
ellipse-curve $-1 -1.1999999999999975 -3.1999999999999975 -11 -6.1230317691118863e-017 1 6.1230317691118863e-017 -5.6118513129149176e-016 5.6118513129149176e-016 -9.1651513899116797 1 I I #
loop $-1 $228 $328 $308 #
ellipse-curve $-1 -1.1999999999999975 4.8000000000000007 -11 6.1230317691118863e-017 -1 -6.1230317691118863e-017 5.6118513129149176e-016 -5.6118513129149176e-016 9.1651513899116797 1 I I #
point $-1 2.2278273002005196 4.8000000000000007 -2.4999999999999982 #
plane-surface $-1 -7.2000000000000002 8.8000000000000007 0 -1 0 6.1230317691118863e-017 6.1230317691118863e-017 0 1 forward_v I I I I #
coedge $-1 $310 $403 $303 $367 1 $375 $-1 #
edge $-1 $314 $396 $303 $404 forward #
coedge $-1 $339 $389 $305 $369 1 $334 $-1 #
edge $-1 $370 $405 $305 $406 forward #
vertex $-1 $369 $407 #
coedge $-1 $307 $346 $408 $409 0 $228 $-1 #
coedge $-1 $403 $310 $307 $373 1 $375 $-1 #
edge $-1 $410 $312 $307 $411 forward #
plane-surface $-1 -1.1999999999999957 4.8000000000000007 -11 6.1230317691118863e-017 -1 -6.1230317691118863e-017 -6.1230317691118863e-017 6.1230317691118863e-017 -1 forward_v I I I I #
loop $-1 $-1 $366 $333 #
point $-1 1.8000000000000007 4.8000000000000007 -7 #
point $-1 1.8000000000000014 -3.1999999999999993 -7.0000000000000009 #
point $-1 -7.2000000000000002 8.8000000000000007 -2.4999999999999978 #
straight-curve $-1 -7.2000000000000002 -7.2000000000000002 -2.5 1 0 0 I I #
point $-1 -7.2000000000000002 -7.2000000000000002 -2.4999999999999987 #
straight-curve $-1 -7.2000000000000002 8.8000000000000007 -2.5 0 -1 0 I I #
straight-curve $-1 1.8000000000000034 4.8000000000000007 -2.4999999999999982 -1 -6.1230317691118863e-017 6.1230317691118863e-017 I I #
point $-1 -4.6278273002005132 4.8000000000000007 -2.4999999999999982 #
face $-1 $234 $395 $3 $-1 $266 reversed single #
coedge $-1 $350 $408 $336 $386 0 $395 $-1 #
edge $-1 $392 $352 $385 $388 forward #
coedge $-1 $357 $337 $354 $399 1 $265 $-1 #
ellipse-curve $-1 -1.1999999999999993 0.80000000000000082 -12 -6.1230317691118863e-017 6.1230317691118863e-017 -1 8 4.898425415289509e-016 -4.898425415289509e-016 1 I I #
coedge $-1 $368 $341 $357 $401 1 $334 $-1 #
point $-1 -6.1999999999999993 0.80000000000003513 -7 #
intcurve-curve $-1 forward { surfintcur nubs 3 open 9 
	8.2005425536517542 3 8.5287128073320755 2 8.8568830610123968 2 9.1948234755160065 2 9.5327638900196145 2 
	10.291299949341692 2 11.049836008663767 2 12.387648283323703 2 13.529109669869353 3 
	-8.1282032302755098 -3.1999999999999993 -10 
	-8.1282032302755098 -3.1999999999999993 -9.8906099154398923 
	-8.1208301636167004 -3.1999999999999993 -9.7706808159442229 
	-8.0887632007129913 -3.1999999999999993 -9.5331526903800565 
	-8.0640766138988518 -3.1999999999999993 -9.415552677575171 
	-8.0054388306968978 -3.1999999999999993 -9.2013985493562398 
	-7.965409395950271 -3.1999999999999993 -9.0843266928446784 
	-7.8688438798442215 -3.1999999999999993 -8.8571721642730061 
	-7.8123291515241196 -3.1999999999999997 -8.7470804154285151 
	-7.6265412215235342 -3.1999999999999997 -8.4323307330091026 
	-7.4557746579645068 -3.1999999999999993 -8.2153391770480368 
	-7.0597130335198619 -3.1999999999999993 -7.8370390038211335 
	-6.8346256146172477 -3.1999999999999997 -7.6755130553461193 
	-6.227213306127199 -3.1999999999999997 -7.3300457510815828 
	-5.8064067384822744 -3.1999999999999984 -7.1868863081915721 
	-4.9890309963190376 -3.1999999999999984 -7.0292419514042024 
	-4.5977114966737398 -3.1999999999999993 -7.0000000000000009 
	-4.1999999999999993 -3.1999999999999993 -7.0000000000000009 
	0.001 
	torus -1.1999999999999993 0.8000000000000006 -10 6.1230317691118863e-017 -6.1230317691118863e-017 1 5 3 1 6.1230317691118863e-017 -6.1230317691118863e-017 forward_v I I I I 
	plane -13.199999999999994 -3.1999999999999993 -10.999999999999998 6.1230317691118863e-017 -1 -6.1230317691118863e-017 6.1230317691118863e-017 -6.1230317691118863e-017 1 reverse_v I I I I 
	nullbs 
	nullbs 
	F 8.2005425536517542 F 13.529109669869353 } I I #
vertex $-1 $409 $412 #
intcurve-curve $-1 forward { surfintcur nubs 3 open 9 
	19.273060544737664 3 20.414521931283314 2 21.752334205943249 2 22.510870265265325 2 23.269406324587404 2 
	23.607346739091014 2 23.94528715359462 2 24.27345740727494 2 24.601627660955263 3 
	1.8000000000000003 4.8000000000000007 -15 
	2.1977114966737412 4.8000000000000007 -15 
	2.5890309963190381 4.8000000000000016 -14.970758048595798 
	3.4064067384822763 4.8000000000000016 -14.813113691808429 
	3.8272133061272005 4.8000000000000007 -14.669954248918419 
	4.43462561461725 4.8000000000000007 -14.324486944653883 
	4.6597130335198615 4.8000000000000025 -14.162960996178867 
	5.0557746579645064 4.8000000000000025 -13.784660822951961 
	5.2265412215235356 4.8000000000000007 -13.567669266990897 
	5.4123291515241201 4.8000000000000007 -13.252919584571483 
	5.468843879844222 4.8000000000000016 -13.142827835726992 
	5.5654093959502706 4.8000000000000016 -12.915673307155322 
	5.6054388306968992 4.8000000000000007 -12.798601450643762 
	5.6640766138988523 4.8000000000000007 -12.584447322424831 
	5.6887632007129918 4.8000000000000007 -12.466847309619949 
	5.7208301636167009 4.8000000000000007 -12.229319184055782 
	5.7282032302755095 4.8000000000000007 -12.109390084560108 
	5.7282032302755095 4.8000000000000007 -12 
	0.001 
	torus -1.1999999999999993 0.80000000000000082 -12 -6.1230317691118863e-017 6.1230317691118863e-017 -1 5 3 -1 -6.1230317691118863e-017 6.1230317691118863e-017 forward_v I I I I 
	plane -1.1999999999999957 4.8000000000000007 -11 -6.1230317691118863e-017 1 6.1230317691118863e-017 -6.1230317691118863e-017 6.1230317691118863e-017 -1 reverse_v I I I I 
	nullbs 
	nullbs 
	F 19.273060544737664 F 24.601627660955263 } I I #
coedge $-1 $408 $350 $403 $413 0 $395 $-1 #
loop $-1 $-1 $350 $384 #
vertex $-1 $367 $414 #
straight-curve $-1 5.7282032302755104 -3.199999999999998 -11 -6.1230317691118863e-017 6.1230317691118863e-017 -1 I I #
point $-1 5.7282032302755104 -3.199999999999998 -12 #
edge $-1 $405 $355 $354 $415 forward #
point $-1 -8.1282032302755081 4.8000000000000007 -12 #
edge $-1 $405 $358 $357 $416 forward #
point $-1 -8.1282032302755098 -3.1999999999999993 -10 #
coedge $-1 $366 $372 $394 $413 1 $375 $-1 #
intcurve-curve $-1 forward { surfintcur nubs 3 open 9 
	19.273060544737664 3 20.414521931283314 2 21.752334205943249 2 22.510870265265325 2 23.269406324587404 2 
	23.607346739091014 2 23.945287153594624 2 24.273457407274947 2 24.601627660955266 3 
	1.8000000000000014 -3.1999999999999993 -7.0000000000000009 
	2.1977114966737421 -3.1999999999999993 -7.0000000000000009 
	2.5890309963190394 -3.1999999999999984 -7.0292419514042024 
	3.4064067384822758 -3.1999999999999984 -7.1868863081915721 
	3.8272133061272005 -3.1999999999999988 -7.3300457510815828 
	4.43462561461725 -3.1999999999999988 -7.6755130553461202 
	4.6597130335198589 -3.1999999999999984 -7.8370390038211317 
	5.055774657964502 -3.1999999999999984 -8.2153391770480351 
	5.2265412215235365 -3.1999999999999988 -8.4323307330091026 
	5.412329151524121 -3.1999999999999988 -8.7470804154285169 
	5.4688438798442238 -3.1999999999999984 -8.8571721642730079 
	5.5654093959502733 -3.1999999999999984 -9.0843266928446802 
	5.6054388306969001 -3.1999999999999984 -9.2013985493562416 
	5.6640766138988541 -3.1999999999999984 -9.415552677575171 
	5.6887632007129909 -3.1999999999999984 -9.533152690380053 
	5.7208301636167 -3.1999999999999984 -9.7706808159442211 
	5.7282032302755104 -3.1999999999999984 -9.8906099154398941 
	5.7282032302755104 -3.1999999999999984 -10 
	0.001 
	torus -1.1999999999999993 0.8000000000000006 -10 6.1230317691118863e-017 -6.1230317691118863e-017 1 5 3 1 6.1230317691118863e-017 -6.1230317691118863e-017 forward_v I I I I 
	plane -13.199999999999994 -3.1999999999999993 -10.999999999999998 6.1230317691118863e-017 -1 -6.1230317691118863e-017 6.1230317691118863e-017 -6.1230317691118863e-017 1 reverse_v I I I I 
	nullbs 
	nullbs 
	F 19.273060544737664 F 24.601627660955266 } I I #
vertex $-1 $369 $417 #
intcurve-curve $-1 forward { surfintcur nubs 3 open 9 
	19.273060544737664 3 20.414521931283314 2 21.752334205943249 2 22.510870265265325 2 23.269406324587404 2 
	23.607346739091014 2 23.94528715359462 2 24.27345740727494 2 24.601627660955263 3 
	-4.1999999999999993 4.8000000000000007 -7 
	-4.5977114966737398 4.8000000000000007 -7 
	-4.9890309963190385 4.7999999999999998 -7.0292419514042033 
	-5.8064067384822744 4.7999999999999998 -7.186886308191573 
	-6.227213306127199 4.8000000000000007 -7.3300457510815811 
	-6.8346256146172495 4.8000000000000007 -7.6755130553461193 
	-7.0597130335198583 4.7999999999999989 -7.8370390038211317 
	-7.4557746579645023 4.7999999999999989 -8.2153391770480351 
	-7.6265412215235342 4.8000000000000007 -8.4323307330091044 
	-7.8123291515241187 4.8000000000000007 -8.7470804154285187 
	-7.8688438798442233 4.7999999999999989 -8.8571721642730115 
	-7.9654093959502719 4.7999999999999989 -9.084326692844682 
	-8.0054388306968978 4.8000000000000007 -9.2013985493562398 
	-8.0640766138988518 4.8000000000000007 -9.4155526775751675 
	-8.0887632007129895 4.8000000000000007 -9.5331526903800512 
	-8.1208301636166986 4.8000000000000007 -9.7706808159442193 
	-8.1282032302755081 4.8000000000000007 -9.8906099154398923 
	-8.1282032302755081 4.8000000000000007 -10 
	0.001 
	torus -1.1999999999999993 0.8000000000000006 -10 6.1230317691118863e-017 -6.1230317691118863e-017 1 5 3 1 6.1230317691118863e-017 -6.1230317691118863e-017 forward_v I I I I 
	plane -1.1999999999999957 4.8000000000000007 -11 -6.1230317691118863e-017 1 6.1230317691118863e-017 -6.1230317691118863e-017 6.1230317691118863e-017 -1 reverse_v I I I I 
	nullbs 
	nullbs 
	F 19.273060544737664 F 24.601627660955263 } I I #
point $-1 -4.1999999999999993 4.8000000000000007 -7 #
coedge $-1 $385 $394 $371 $409 1 $395 $-1 #
edge $-1 $392 $410 $371 $418 forward #
vertex $-1 $373 $419 #
intcurve-curve $-1 forward { surfintcur nubs 3 open 9 
	8.2005425536517524 3 8.5287128073320737 2 8.8568830610123968 2 9.194823475516003 2 9.532763890019611 2 
	10.291299949341688 2 11.049836008663766 2 12.387648283323703 2 13.529109669869351 3 
	5.7282032302755095 4.8000000000000007 -10 
	5.7282032302755095 4.8000000000000007 -9.8906099154398923 
	5.7208301636167009 4.8000000000000007 -9.7706808159442193 
	5.6887632007129918 4.8000000000000007 -9.5331526903800512 
	5.6640766138988532 4.8000000000000007 -9.4155526775751692 
	5.6054388306968983 4.8000000000000007 -9.2013985493562398 
	5.5654093959502715 4.8000000000000007 -9.0843266928446802 
	5.468843879844222 4.8000000000000007 -8.8571721642730079 
	5.4123291515241201 4.8000000000000007 -8.7470804154285169 
	5.2265412215235356 4.8000000000000007 -8.4323307330091044 
	5.0557746579645073 4.8000000000000007 -8.2153391770480386 
	4.6597130335198624 4.8000000000000007 -7.8370390038211344 
	4.4346256146172509 4.8000000000000007 -7.6755130553461193 
	3.8272133061272005 4.8000000000000007 -7.3300457510815811 
	3.4064067384822749 4.8000000000000007 -7.1868863081915721 
	2.5890309963190381 4.8000000000000007 -7.0292419514042033 
	2.1977114966737408 4.8000000000000007 -7 
	1.8000000000000007 4.8000000000000007 -7 
	0.001 
	torus -1.1999999999999993 0.8000000000000006 -10 6.1230317691118863e-017 -6.1230317691118863e-017 1 5 3 1 6.1230317691118863e-017 -6.1230317691118863e-017 forward_v I I I I 
	plane -1.1999999999999957 4.8000000000000007 -11 -6.1230317691118863e-017 1 6.1230317691118863e-017 -6.1230317691118863e-017 6.1230317691118863e-017 -1 reverse_v I I I I 
	nullbs 
	nullbs 
	F 8.2005425536517524 F 13.529109669869351 } I I #
point $-1 5.7282032302755095 4.8000000000000007 -12 #
edge $-1 $396 $410 $394 $416 forward #
point $-1 5.7282032302755104 -3.1999999999999984 -10 #
straight-curve $-1 -8.1282032302755081 4.8000000000000007 -11 -6.1230317691118863e-017 6.1230317691118863e-017 -1 I I #
ellipse-curve $-1 -1.1999999999999993 0.8000000000000006 -10 6.1230317691118863e-017 -6.1230317691118863e-017 1 8 4.898425415289509e-016 -4.898425415289509e-016 1 I I #
point $-1 -8.1282032302755081 4.8000000000000007 -10 #
straight-curve $-1 5.7282032302755095 4.8000000000000007 -11 6.1230317691118863e-017 -6.1230317691118863e-017 1 I I #
point $-1 5.7282032302755095 4.8000000000000007 -10 #
End-of-ACIS-data 