600 0 1 0           
86 GICL ACIS Healer - Source: /gicl/data5/repository/CMU/scanner-2/lens-housing.sat - 6 0 18 ACIS 6.0.3 Solaris 24 Sat Apr 13 00:28:24 2002 
1 9.999999999999999547e-07 1.000000000000000036e-10 
body $-1 $1 $-1 $-1 #
lump $-1 $-1 $2 $0 #
shell $-1 $-1 $-1 $3 $-1 $1 #
face $-1 $4 $5 $2 $-1 $6 reversed single #
face $-1 $7 $8 $2 $-1 $9 reversed single #
loop $-1 $10 $11 $3 #
cone-surface $-1 11.96400000000000041 7.580099999999999838 10 0 -0 1.000000000000000222 1.000000000000000222 0 0 1 I I 0 1 1 forward I I I I #
face $-1 $12 $13 $2 $-1 $14 reversed single #
loop $-1 $15 $16 $4 #
cone-surface $-1 11.96399999999999864 7.580100000000000726 17 0 -0 1.000000000000000222 -1.000000000000000222 0 0 1 I I 0 1 1 forward I I I I #
loop $-1 $-1 $17 $3 #
coedge $-1 $11 $11 $18 $19 reversed $5 $-1 #
face $-1 $20 $21 $2 $-1 $14 reversed single #
loop $-1 $22 $23 $7 #
cone-surface $-1 11.96399999999999508 5.554150000000000809 15.11899999999999622 0 1 -0 -0.750000000000000111 0 0 1 I I 0 1 0.750000000000000111 forward I I I I #
loop $-1 $-1 $24 $4 #
coedge $-1 $16 $16 $25 $26 reversed $8 $-1 #
coedge $-1 $17 $17 $27 $28 reversed $10 $-1 #
coedge $-1 $18 $18 $11 $19 forward $29 $-1 #
edge $-1 $30 0 $30 6.101834684415481824 $18 $31 forward 7 unknown #
face $-1 $32 $33 $2 $-1 $14 reversed single #
loop $-1 $34 $35 $12 #
loop $-1 $-1 $36 $7 #
coedge $-1 $23 $23 $37 $38 reversed $13 $-1 #
coedge $-1 $24 $24 $39 $40 reversed $15 $-1 #
coedge $-1 $25 $25 $16 $26 forward $41 $-1 #
edge $-1 $42 0 $42 6.101834684415482712 $25 $43 forward 7 unknown #
coedge $-1 $27 $27 $17 $28 forward $44 $-1 #
edge $-1 $45 0 $45 6.087908169052063556 $27 $46 forward 7 unknown #
loop $-1 $41 $18 $32 #
vertex $-1 $19 $47 #
intcurve-curve $-1 forward { surfintcur full nubs 3 periodic 17 
	0 3 0.3815576652526511126 2 0.7631153305053022251 2 1.144287000804586452 2 1.525458671103870456 2 
	1.906630341403154461 2 2.287802011702438687 2 2.669359676955089355 2 3.050917342207740468 2 3.432475007460393357 2 
	3.814032672713046246 2 4.195204343012331805 2 4.576376013311618252 2 4.957547683610904699 2 5.338719353910190257 2 
	5.720277019162836041 2 6.101834684415481824 3 
	12.96400000000000041 7.580099999999999838 12.82771215252207853 
	12.96400000000000041 7.452914111582449763 12.82771215252207853 
	12.93828910036032731 7.318379700944070976 12.8160020831072714 
	12.83583295557011361 7.072513237728593083 12.7752965756603345 
	12.75914722583285332 6.961033663459756937 12.74704594910243394 
	12.58315540084275952 6.785041838469664022 12.69514879121481421 
	12.47164211534255784 6.708288563635671942 12.66791961720417703 
	12.22564415384704795 6.605780716172403366 12.62961495572962356 
	12.0910572234330953 6.580099999999999838 12.61899999999999622 
	11.83694277656690552 6.580099999999999838 12.61899999999999622 
	11.70235584615295288 6.605780716172403366 12.62961495572962178 
	11.45635788465744298 6.708288563635671942 12.66791961720417703 
	11.3448445991572413 6.785041838469664022 12.69514879121481421 
	11.1688527741671475 6.961033663459756937 12.74704594910243394 
	11.09216704442988721 7.072513237728592195 12.77529657566033272 
	10.98971089963967351 7.318379700944070976 12.81600208310726963 
	10.96400000000000041 7.452914111582449763 12.82771215252207497 
	10.96400000000000041 7.707285888417550801 12.82771215252207497 
	10.98971089963967351 7.841820299055929588 12.81600208310726963 
	11.09216704442988899 8.087686762271410146 12.77529657566033094 
	11.16885277416714928 8.199166336540244515 12.74704594910243216 
	11.34484459915724486 8.375158161530338319 12.69514879121481243 
	11.45635788465744653 8.451911436364330399 12.66791961720417703 
	11.70235584615295821 8.554419283827597198 12.62961495572962178 
	11.83694277656691085 8.580100000000001614 12.61899999999999622 
	12.09105722343310241 8.580099999999998062 12.61899999999999622 
	12.22564415384705683 8.554419283827593645 12.62961495572962356 
	12.47164211534256673 8.451911436364323293 12.66791961720417881 
	12.5831554008427684 8.375158161530329437 12.69514879121481599 
	12.75914722583285865 8.199166336540235633 12.74704594910243571 
	12.83583295557011716 8.087686762271401264 12.7752965756603345 
	12.93828910036032909 7.841820299055925148 12.8160020831072714 
	12.96400000000000041 7.707285888417548136 12.82771215252207853 
	12.96400000000000041 7.580099999999999838 12.82771215252207853 
	0.001000000000000000021 
	cone 11.96400000000000041 7.580099999999999838 10 0 -0 1.000000000000000222 1.000000000000000222 0 0 1 I I 0 1 1 forward I I I I 
	cone 11.96399999999999864 7.546000000000000263 15.118999999999998 0 1 -0 1.767766952966369765 0 1.76776695296636932 1 I I 0 -1 2.500000000000000888 forward I I I I 
	nullbs 
	nullbs 
	I I 
	0 
	0 
	0 
	} I I #
face $-1 $48 $29 $2 $-1 $49 reversed single #
loop $-1 $50 $51 $20 #
loop $-1 $-1 $52 $12 #
coedge $-1 $35 $35 $53 $54 reversed $21 $-1 #
coedge $-1 $36 $36 $55 $56 reversed $22 $-1 #
coedge $-1 $37 $37 $23 $38 forward $57 $-1 #
edge $-1 $58 -3.141592653589800221 $58 3.141592653589786011 $37 $59 forward 7 unknown #
coedge $-1 $39 $39 $24 $40 forward $60 $-1 #
edge $-1 $61 0 $61 6.087908169052063556 $39 $62 forward 7 unknown #
loop $-1 $63 $25 $32 #
vertex $-1 $26 $64 #
intcurve-curve $-1 forward { surfintcur full nubs 3 periodic 17 
	0 3 0.381557665252653111 2 0.7631153305053062219 2 1.144287000804592225 2 1.525458671103878006 2 
	1.906630341403163786 2 2.287802011702449789 2 2.669359676955095573 2 3.050917342207741356 2 3.432475007460400462 2 
	3.814032672713059569 2 4.195204343012342463 2 4.576376013311626245 2 4.957547683610910028 2 5.33871935391019381 2 
	5.720277019162837817 2 6.101834684415482712 3 
	12.96399999999999864 7.580100000000000726 17.41028784747791747 
	12.96399999999999864 7.707285888417551689 17.41028784747791747 
	12.93828910036032553 7.841820299055930477 17.42199791689272459 
	12.83583295557011184 8.087686762271410146 17.4627034243396615 
	12.75914722583284977 8.199166336540246292 17.49095405089756383 
	12.58315540084275597 8.375158161530340095 17.54285120878518356 
	12.47164211534255251 8.451911436364330399 17.57008038279581896 
	12.22564415384704084 8.554419283827598974 17.60838504427037421 
	12.0910572234330882 8.580100000000001614 17.61899999999999977 
	11.83694277656689664 8.580099999999999838 17.61899999999999977 
	11.702355846152944 8.554419283827595422 17.60838504427037066 
	11.4563578846574341 8.45191143636432507 17.57008038279581541 
	11.34484459915723242 8.375158161530331213 17.54285120878518001 
	11.16885277416714217 8.19916633654023741 17.49095405089756028 
	11.09216704442988366 8.08768676227140304 17.4627034243396615 
	10.98971089963967174 7.841820299055926036 17.42199791689272459 
	10.96399999999999864 7.707285888417549025 17.41028784747791747 
	10.96399999999999864 7.452914111582447987 17.41028784747791747 
	10.98971089963967351 7.318379700944066535 17.42199791689272459 
	11.09216704442989077 7.072513237728584201 17.46270342433966505 
	11.16885277416715461 6.961033663459748055 17.49095405089756383 
	11.34484459915725196 6.785041838469656028 17.54285120878518356 
	11.45635788465745364 6.708288563635665724 17.57008038279582252 
	11.70235584615296531 6.605780716172400702 17.60838504427037421 
	11.83694277656691796 6.58009999999999895 17.61899999999999977 
	12.09105722343310774 6.580100000000002503 17.61899999999999977 
	12.22564415384706038 6.605780716172407807 17.60838504427037066 
	12.4716421153425685 6.708288563635679935 17.57008038279581541 
	12.5831554008427684 6.785041838469672903 17.54285120878518001 
	12.75914722583285865 6.961033663459766707 17.49095405089756028 
	12.83583295557011539 7.072513237728600188 17.4627034243396615 
	12.93828910036032731 7.318379700944075417 17.42199791689272459 
	12.96399999999999864 7.452914111582452428 17.41028784747791747 
	12.96399999999999864 7.580100000000000726 17.41028784747791747 
	0.001000000000000000021 
	cone 11.96399999999999864 7.580100000000000726 17 0 -0 1.000000000000000222 -1.000000000000000222 0 0 1 I I 0 1 1 forward I I I I 
	cone 11.96399999999999864 7.546000000000000263 15.118999999999998 0 1 -0 1.767766952966369765 0 1.76776695296636932 1 I I 0 -1 2.500000000000000888 forward I I I I 
	nullbs 
	nullbs 
	I I 
	0 
	0 
	0 
	} I I #
loop $-1 $60 $27 $65 #
vertex $-1 $28 $66 #
intcurve-curve $-1 forward { surfintcur full nubs 3 periodic 17 
	0 3 0.38062200213783004 2 0.76124400427566008 2 1.141610523269341648 2 1.521977042263023217 2 
	1.902343561256705229 2 2.282710080250387463 2 2.663332082388209621 2 3.043954084526032222 2 3.424576086663867258 2 
	3.805198088801702738 2 4.185564607795382308 2 4.565931126789061878 2 4.946297645782742336 2 5.326664164776422794 2 
	5.707286166914243175 2 6.087908169052063556 3 
	12.96400000000000041 7.580099999999999838 12.55726230851009717 
	12.96400000000000041 7.706974000712609296 12.55726230851009717 
	12.9384048627966024 7.841407976217138476 12.54684350295128858 
	12.83601551505492644 8.087382804533728375 12.51035233280382286 
	12.7592733475773823 8.199040214795713766 12.48492255784672267 
	12.58299939443184101 8.37531416794125505 12.4380202820693011 
	12.47131890694516443 8.452101611789508695 12.41334561505970413 
	12.2252566747126501 8.554525092761569027 12.37861990329409423 
	12.09078883966455464 8.580100000000001614 12.36899999999999622 
	11.83721116033543197 8.580099999999998062 12.368999999999998 
	11.70274332528733652 8.554525092761565475 12.37861990329409423 
	11.45668109305482396 8.452101611789503366 12.41334561505970591 
	11.34500060556814915 8.375314167941244392 12.43802028206930288 
	11.16872665242261142 8.199040214795704884 12.48492255784672444 
	11.09198448494506906 8.087382804533719494 12.51035233280382464 
	10.98959513720339842 7.841407976217134035 12.54684350295128858 
	10.96400000000000041 7.70697400071260752 12.55726230851009717 
	10.96400000000000041 7.453225999287388603 12.55726230851009717 
	10.9895951372034002 7.318792023782858536 12.54684350295128681 
	11.09198448494507794 7.072817195466265972 12.51035233280382108 
	11.16872665242262386 6.961159785204278805 12.48492255784672089 
	11.34500060556816869 6.784885832058739297 12.43802028206929933 
	11.4566810930548435 6.708098388210484764 12.41334561505970235 
	11.70274332528735783 6.605674907238427984 12.37861990329409423 
	11.83721116033545329 6.580099999999998062 12.36899999999999622 
	12.09078883966457418 6.580100000000001614 12.368999999999998 
	12.22525667471267141 6.60567490723843509 12.37861990329409601 
	12.47131890694518219 6.708098388210499863 12.41334561505970768 
	12.58299939443185522 6.78488583205875706 12.43802028206930466 
	12.75927334757739118 6.961159785204298345 12.48492255784672622 
	12.83601551505493177 7.072817195466282847 12.51035233280382464 
	12.9384048627966024 7.318792023782867417 12.54684350295128858 
	12.96400000000000041 7.453225999287393044 12.55726230851009717 
	12.96400000000000041 7.580099999999999838 12.55726230851009717 
	0.001000000000000000021 
	cone 11.96400000000000041 7.580099999999999838 10 0 -0 1.000000000000000222 1.000000000000000222 0 0 1 I I 0 1 1 forward I I I I 
	cone 11.96399999999999864 7.546000000000000263 15.118999999999998 0 1 -0 1.944543648263006075 0 1.944543648263006075 1 I I 0 1 2.750000000000000444 forward I I I I 
	nullbs 
	nullbs 
	I I 
	0 
	0 
	0 
	} I I #
point $-1 12.96400000000000041 7.580099999999999838 12.82771215252207675 #
face $-1 $67 $68 $2 $-1 $69 forward single #
cone-surface $-1 11.96399999999999864 7.546000000000000263 15.118999999999998 0 1 -0 1.767766952966369765 0 1.76776695296636932 1 I I 0 1 2.500000000000000888 forward I I I I #
loop $-1 $-1 $70 $20 #
coedge $-1 $51 $51 $71 $72 reversed $33 $-1 #
coedge $-1 $52 $52 $73 $74 reversed $34 $-1 #
coedge $-1 $53 $53 $35 $54 forward $75 $-1 #
edge $-1 $76 -3.141592653589800221 $76 3.141592653589786011 $53 $77 forward 7 unknown #
coedge $-1 $55 $55 $36 $56 forward $78 $-1 #
edge $-1 $79 -3.141592653589800221 $79 3.141592653589786011 $55 $80 forward 7 unknown #
loop $-1 $81 $37 $67 #
vertex $-1 $38 $82 #
ellipse-curve $-1 11.96399999999999508 5.931999999999999496 15.11899999999999622 0 -1 0 -0.750000000000000111 0 0 1 I I #
loop $-1 $83 $39 $65 #
vertex $-1 $40 $84 #
intcurve-curve $-1 forward { surfintcur full nubs 3 periodic 17 
	0 3 0.3806220021378281526 2 0.7612440042756563052 2 1.141610523269336319 2 1.521977042263016111 2 
	1.902343561256696347 2 2.282710080250376361 2 2.663332082388204292 2 3.043954084526032222 2 3.424576086663861929 2 
	3.80519808880169208 2 4.185564607795373426 2 4.565931126789054773 2 4.946297645782737007 2 5.326664164776418353 2 
	5.707286166914240511 2 6.087908169052063556 3 
	12.96399999999999864 7.580100000000000726 17.68073769148989882 
	12.96399999999999864 7.453225999287391268 17.68073769148989882 
	12.93840486279660063 7.318792023782863865 17.69115649704870918 
	12.83601551505492644 7.072817195466274853 17.72764766719617313 
	12.7592733475773823 6.961159785204289463 17.75307744215327332 
	12.58299939443184279 6.784885832058749067 17.79997971793069667 
	12.47131890694516798 6.708098388210492757 17.82465438494029186 
	12.22525667471265542 6.605674907238432425 17.85938009670590176 
	12.09078883966455997 6.580100000000000726 17.86899999999999977 
	11.83721116033543908 6.580100000000000726 17.86899999999999977 
	11.70274332528734362 6.605674907238432425 17.85938009670590176 
	11.45668109305483107 6.708098388210492757 17.82465438494029186 
	11.34500060556815626 6.784885832058749067 17.79997971793069311 
	11.16872665242261498 6.961159785204289463 17.75307744215327332 
	11.09198448494507261 7.072817195466274853 17.72764766719617313 
	10.98959513720339665 7.318792023782863865 17.69115649704870918 
	10.96399999999999864 7.453225999287391268 17.68073769148989882 
	10.96399999999999864 7.706974000712610184 17.68073769148989882 
	10.98959513720339842 7.841407976217138476 17.69115649704870918 
	11.09198448494507261 8.087382804533728375 17.72764766719617313 
	11.16872665242261675 8.199040214795715542 17.75307744215327332 
	11.34500060556815981 8.37531416794125505 17.79997971793069667 
	11.45668109305483462 8.452101611789510471 17.82465438494029186 
	11.70274332528734895 8.554525092761570804 17.85938009670590176 
	11.83721116033544618 8.580100000000001614 17.86899999999999977 
	12.09078883966456708 8.580099999999999838 17.86899999999999622 
	12.22525667471266431 8.554525092761567251 17.85938009670589821 
	12.47131890694517686 8.452101611789503366 17.82465438494028831 
	12.58299939443185167 8.375314167941246168 17.79997971793069311 
	12.75927334757738763 8.199040214795704884 17.75307744215326977 
	12.83601551505492999 8.08738280453372127 17.72764766719616958 
	12.9384048627966024 7.841407976217135811 17.69115649704870563 
	12.96399999999999864 7.706974000712608408 17.68073769148989882 
	12.96399999999999864 7.580100000000000726 17.68073769148989882 
	0.001000000000000000021 
	cone 11.96399999999999864 7.580100000000000726 17 0 -0 1.000000000000000222 -1.000000000000000222 0 0 1 I I 0 1 1 forward I I I I 
	cone 11.96399999999999864 7.546000000000000263 15.118999999999998 0 1 -0 1.944543648263006075 0 1.944543648263006075 1 I I 0 1 2.750000000000000444 forward I I I I 
	nullbs 
	nullbs 
	I I 
	0 
	0 
	0 
	} I I #
loop $-1 $85 $86 $32 #
point $-1 12.96399999999999864 7.580100000000000726 17.41028784747791747 #
face $-1 $87 $44 $2 $-1 $88 forward single #
point $-1 12.96400000000000041 7.580099999999999838 12.55726230851009717 #
face $-1 $89 $57 $2 $-1 $90 forward single #
loop $-1 $91 $92 $48 #
plane-surface $-1 11.96400000000000041 9.312300000000000466 15.11900000000000155 0 -1 0 -0.7071067811865476838 0 -0.7071067811865476838 forward_v I I I I #
coedge $-1 $70 $70 $92 $93 reversed $50 $-1 #
coedge $-1 $71 $71 $51 $72 forward $94 $-1 #
edge $-1 $95 -3.141592653589800221 $95 3.141592653589786011 $71 $96 forward 7 unknown #
coedge $-1 $73 $73 $52 $74 forward $97 $-1 #
edge $-1 $98 -3.141592653589800221 $98 3.141592653589786011 $73 $99 forward 7 unknown #
loop $-1 $100 $53 $101 #
vertex $-1 $54 $102 #
ellipse-curve $-1 11.96399999999999864 1.796390228647902099 15.118999999999998 0 -1 0 -0.750000000000000111 0 0 1 I I #
loop $-1 $103 $55 $89 #
vertex $-1 $56 $104 #
ellipse-curve $-1 11.96399999999999508 5.681999999999999496 15.11899999999999622 0 1 -0 -0.750000000000000111 0 0 1 I I #
loop $-1 $-1 $105 $67 #
point $-1 12.71399999999999508 5.931999999999999496 15.11899999999999089 #
loop $-1 $106 $107 $65 #
point $-1 12.96399999999999864 7.580100000000000726 17.68073769148989882 #
loop $-1 $-1 $108 $32 #
coedge $-1 $86 $86 $105 $109 reversed $63 $-1 #
face $-1 $110 $111 $2 $-1 $112 reversed single #
cone-surface $-1 11.96399999999999864 7.546000000000000263 15.118999999999998 0 1 -0 1.944543648263006075 0 1.944543648263006075 1 I I 0 1 2.750000000000000444 forward I I I I #
face $-1 $113 $78 $2 $-1 $114 forward single #
plane-surface $-1 11.96400000000000041 5.931999999999999496 15.11900000000000155 0 1 -0 0.7071067811865475727 0 0.7071067811865475727 forward_v I I I I #
loop $-1 $-1 $115 $48 #
coedge $-1 $92 $92 $70 $93 forward $68 $-1 #
edge $-1 $116 -3.141592653589800221 $116 3.141592653589786011 $92 $117 forward 7 unknown #
loop $-1 $118 $71 $110 #
vertex $-1 $72 $119 #
ellipse-curve $-1 11.96399999999999508 9.562300000000000466 15.11899999999999622 0 -1 0 -0.750000000000000111 0 0 1 I I #
loop $-1 $120 $73 $121 #
vertex $-1 $74 $122 #
ellipse-curve $-1 11.96399999999999864 1.546260096012960439 15.118999999999998 0 1 -0 -0.750000000000000111 0 0 1 I I #
loop $-1 $-1 $123 $101 #
face $-1 $124 $75 $2 $-1 $125 reversed single #
point $-1 12.71399999999999864 1.796390228647902099 15.11899999999999267 #
loop $-1 $-1 $126 $89 #
point $-1 12.71399999999999508 5.681999999999999496 15.11900000000000155 #
coedge $-1 $105 $105 $86 $109 forward $81 $-1 #
loop $-1 $-1 $127 $65 #
coedge $-1 $107 $107 $128 $129 reversed $83 $-1 #
coedge $-1 $108 $108 $115 $130 reversed $85 $-1 #
edge $-1 $131 -3.141592653589800221 $131 3.141592653589786011 $105 $132 forward 7 unknown #
face $-1 $-1 $94 $2 $-1 $133 forward single #
loop $-1 $134 $135 $87 #
plane-surface $-1 11.96399999999999864 13.58010000000000161 15.11900000000000333 0 -1 0 0 0 -1.000000000000000222 forward_v I I I I #
face $-1 $136 $137 $2 $-1 $138 reversed single #
plane-surface $-1 11.96400000000000041 5.681999999999999496 15.11900000000000155 0 -1 0 -0.7071067811865475727 0 -0.7071067811865475727 forward_v I I I I #
coedge $-1 $115 $115 $108 $130 forward $91 $-1 #
vertex $-1 $93 $139 #
ellipse-curve $-1 11.96399999999999508 9.312300000000000466 15.11899999999999622 0 1 -0 -0.750000000000000111 0 0 1 I I #
loop $-1 $-1 $140 $110 #
point $-1 12.71399999999999508 9.562300000000000466 15.11899999999999089 #
loop $-1 $-1 $141 $121 #
face $-1 $142 $97 $2 $-1 $143 forward single #
point $-1 12.71399999999999864 1.546260096012960439 15.11900000000000333 #
coedge $-1 $123 $123 $144 $145 reversed $100 $-1 #
face $-1 $146 $147 $2 $-1 $49 reversed single #
torus-surface $-1 11.96399999999999864 2.296000000000002039 15.118999999999998 0 1 -0 0.7302496488764824711 0.5 0 -0 1.000000000000000222 forward_v I I I I #
coedge $-1 $126 $126 $148 $149 forward $103 $-1 #
coedge $-1 $127 $127 $150 $151 reversed $106 $-1 #
coedge $-1 $128 $128 $107 $129 forward $152 $-1 #
edge $-1 $153 -3.141592653589800221 $153 3.141592653589786011 $107 $154 forward 7 unknown #
edge $-1 $155 -3.141592653589799777 $155 3.141592653589786455 $115 $156 forward 7 unknown #
vertex $-1 $109 $157 #
ellipse-curve $-1 11.96399999999999864 5.931999999999999496 15.118999999999998 0 1 -0 1.767766952966369765 0 1.76776695296636932 1 I I #
plane-surface $-1 11.96400000000000041 9.562300000000000466 15.11900000000000155 0 1 -0 0.7071067811865476838 0 0.7071067811865476838 forward_v I I I I #
loop $-1 $-1 $158 $87 #
coedge $-1 $135 $135 $159 $160 forward $111 $-1 #
face $-1 $101 $161 $2 $-1 $162 reversed single #
loop $-1 $163 $148 $113 #
torus-surface $-1 11.96399999999999864 5.682000936329381524 15.118999999999998 0 -1 0 2 0.5 0 0 -1.000000000000000222 forward_v I I I I #
point $-1 12.71399999999999508 9.312300000000000466 15.11900000000000155 #
coedge $-1 $140 $140 $164 $165 forward $118 $-1 #
coedge $-1 $141 $141 $166 $167 forward $120 $-1 #
face $-1 $168 $152 $2 $-1 $169 forward single #
torus-surface $-1 11.96399999999999864 2.296000000000002039 15.118999999999998 0 1 -0 0.7302496488764824711 0.75 0 -0 1.000000000000000222 forward_v I I I I #
coedge $-1 $144 $144 $123 $145 forward $170 $-1 #
edge $-1 $171 -3.141592653589801998 $171 3.141592653589784234 $144 $172 forward 7 unknown #
face $-1 $173 $174 $2 $-1 $175 reversed single #
loop $-1 $176 $164 $124 #
coedge $-1 $148 $148 $126 $149 reversed $137 $-1 #
edge $-1 $177 7.034373084027456967e-15 $177 6.283185307179593337 $126 $178 forward 7 unknown #
coedge $-1 $150 $150 $127 $151 forward $179 $-1 #
edge $-1 $180 -3.141592653589800221 $180 3.141592653589786011 $127 $181 forward 7 unknown #
loop $-1 $182 $128 $142 #
vertex $-1 $129 $183 #
ellipse-curve $-1 11.96399999999999864 5.682000936329381524 15.118999999999998 0 -1 0 -1.944543648263006519 0 -1.944543648263006519 1 I I #
vertex $-1 $130 $184 #
ellipse-curve $-1 11.96399999999999864 9.312300000000000466 15.118999999999998 0 -1 0 1.767766952966369765 0 1.76776695296636932 1 I I #
point $-1 10.19623304703364219 5.931999999999999496 13.35123304703361669 #
coedge $-1 $158 $158 $185 $186 reversed $134 $-1 #
coedge $-1 $159 $159 $135 $160 reversed $187 $-1 #
edge $-1 $188 -3.141592653589786011 $188 3.141592653589800221 $135 $189 forward 7 unknown #
loop $-1 $170 $190 $136 #
cone-surface $-1 11.96399999999999864 3.633780860397098245 15.118999999999998 0 -1 0 -1.24869238465262189 0 -1.248692384652621001 1 I I -0.3511234415883917048 0.9363291775690445462 1.765917705607738863 forward I I I I #
loop $-1 $-1 $191 $113 #
coedge $-1 $164 $164 $140 $165 reversed $147 $-1 #
edge $-1 $192 -3.141592653589800221 $192 3.141592653589786011 $140 $193 forward 7 unknown #
coedge $-1 $166 $166 $141 $167 reversed $194 $-1 #
edge $-1 $195 -3.141592653589786455 $195 3.141592653589799777 $166 $196 forward 7 unknown #
face $-1 $197 $179 $2 $-1 $198 forward single #
torus-surface $-1 11.96399999999999864 5.682000936329381524 15.118999999999998 0 -1 0 2 0.75 0 0 -1.000000000000000222 forward_v I I I I #
loop $-1 $-1 $144 $136 #
vertex $-1 $145 $199 #
ellipse-curve $-1 11.96399999999999864 2.120438279205806076 15.118999999999998 0 -1 0 -0.8474068341206034694 0 -0.8474068341206028032 1 I I #
face $-1 $200 $201 $2 $-1 $202 reversed single #
loop $-1 $203 $204 $146 #
torus-surface $-1 11.96399999999999864 9.562333047033632738 15.118999999999998 0 1 -0 2 0.5 0 -0 1.000000000000000222 forward_v I I I I #
loop $-1 $-1 $205 $124 #
vertex $-1 $149 $206 #
ellipse-curve $-1 11.96399999999999864 5.681999999999999496 15.118999999999998 0 -1 0 -1.76776695296574915 0 -1.76776695296574915 1 I I #
loop $-1 $207 $150 $168 #
vertex $-1 $151 $208 #
ellipse-curve $-1 11.96399999999999864 9.562333047033632738 15.118999999999998 0 1 -0 1.944543648263006519 0 1.944543648263006519 1 I I #
loop $-1 $-1 $209 $142 #
point $-1 13.90854364826302181 5.682000936329381524 17.06354364826299275 #
point $-1 10.19623304703361732 9.312300000000000466 13.35123304703364155 #
coedge $-1 $185 $185 $158 $186 forward $210 $-1 #
edge $-1 $211 1.184237892933498864e-15 $211 6.28318530717958712 $185 $212 forward 7 unknown #
loop $-1 $213 $159 $214 #
vertex $-1 $160 $215 #
ellipse-curve $-1 11.96400000000000041 13.58010000000000161 15.11900000000000155 0 -1 0 -1.250000000000000222 0 0 1 I I #
coedge $-1 $190 $190 $191 $216 reversed $161 $-1 #
coedge $-1 $191 $191 $190 $216 forward $163 $-1 #
vertex $-1 $165 $217 #
ellipse-curve $-1 11.96399999999999864 9.562300000000000466 15.118999999999998 0 1 -0 1.767766952966369765 0 1.76776695296636932 1 I I #
loop $-1 $218 $166 $197 #
vertex $-1 $167 $219 #
ellipse-curve $-1 11.96399999999999864 2.032657418808706318 15.118999999999998 -3.507370353341458966e-15 -1 -1.577721810442023611e-30 -1.01292801184107728 3.552713678800500929e-15 -1.012928011841076392 1 I I #
face $-1 $65 $194 $2 $-1 $220 forward single #
torus-surface $-1 11.96399999999999864 9.562333047033632738 15.118999999999998 0 1 -0 2 0.75 0 -0 1.000000000000000222 forward_v I I I I #
point $-1 12.81140683412061065 2.120438279205806076 15.96640683412059403 #
face $-1 $221 $222 $2 $-1 $223 forward single #
loop $-1 $224 $225 $173 #
cone-surface $-1 11.96399999999999864 10.04976991411009024 15.118999999999998 0 -1 0 1.569543648263006741 -0 1.569543648263007629 1 I I 0.7071067811865475727 0.7071067811865475727 2.219669914110091291 forward I I I I #
loop $-1 $-1 $226 $146 #
coedge $-1 $204 $204 $205 $227 reversed $174 $-1 #
coedge $-1 $205 $205 $204 $227 forward $176 $-1 #
point $-1 10.19623304703364219 5.682000936329381524 13.35123304703361669 #
loop $-1 $-1 $228 $168 #
point $-1 10.01945635173700744 9.562333047033632738 13.17445635173697838 #
coedge $-1 $209 $209 $229 $230 forward $182 $-1 #
loop $-1 $231 $185 $232 #
vertex $-1 $186 $233 #
ellipse-curve $-1 11.96400000000000041 13.58010000000000161 15.11900000000000155 6.123031769111887524e-17 -1 6.123031769111887524e-17 -1.500000000000000222 -9.184547653667829437e-17 0 1 I I #
loop $-1 $-1 $234 $214 #
face $-1 $235 $187 $2 $-1 $236 reversed single #
point $-1 13.21400000000000219 13.58010000000000161 15.11900000000001043 #
edge $-1 $237 -3.141592653589799333 $237 3.141592653589786899 $191 $238 forward 7 unknown #
point $-1 10.19623304703364219 9.562300000000000466 13.35123304703361669 #
loop $-1 $-1 $229 $197 #
point $-1 12.97692801184107125 2.032657418808702765 16.13192801184108305 #
cone-surface $-1 11.96399999999999864 3.546000000000000263 15.118999999999998 0 -1 0 -1.414213562373095368 0 -1.414213562373095368 1 I I -0.3511234415883917048 0.9363291775690445462 2.000000000000000444 forward I I I I #
face $-1 $214 $239 $2 $-1 $240 reversed single #
loop $-1 $241 $242 $200 #
plane-surface $-1 11.47379999999999889 10.33010000000000161 17.93320000000000292 0 -1 0 0 0 -1.000000000000000222 forward_v I I I I #
loop $-1 $-1 $243 $173 #
coedge $-1 $225 $225 $242 $244 reversed $201 $-1 #
coedge $-1 $226 $226 $243 $245 reversed $203 $-1 #
edge $-1 $246 -3.141592653589800221 $246 3.141592653589786011 $204 $247 forward 7 unknown #
coedge $-1 $228 $228 $248 $249 forward $207 $-1 #
coedge $-1 $229 $229 $209 $230 reversed $218 $-1 #
edge $-1 $250 -3.141592653589786011 $250 3.141592653589800221 $229 $251 forward 7 unknown #
loop $-1 $-1 $252 $232 #
face $-1 $253 $210 $2 $-1 $254 forward single #
point $-1 10.46399999999999864 13.58010000000000161 15.11899999999999977 #
coedge $-1 $234 $234 $255 $256 forward $213 $-1 #
face $-1 $257 $258 $2 $-1 $259 forward single #
cone-surface $-1 11.96400000000000041 13.58010000000000161 15.11900000000000155 7.38051387058546514e-17 -1 0 -1.250000000000000222 0 0 1 I I 0 1 1.25 forward I I I I #
vertex $-1 $216 $260 #
ellipse-curve $-1 11.96399999999999864 5.506439215535185561 15.118999999999998 0 -1 0 -1.745255917814042768 0 -1.745255917814041435 1 I I #
loop $-1 $261 $262 $221 #
torus-surface $-1 11.96400000000000041 10.83010000000000161 15.11900000000000155 0 -1 0 1.75 -0.5 0 0 -1.000000000000000222 forward_v I I I I #
loop $-1 $-1 $263 $200 #
coedge $-1 $242 $242 $225 $244 forward $222 $-1 #
coedge $-1 $243 $243 $226 $245 forward $224 $-1 #
edge $-1 $264 -3.141592653589799777 $264 3.141592653589786455 $242 $265 forward 7 unknown #
edge $-1 $266 -3.141592653589800666 $266 3.141592653589785566 $243 $267 forward 7 unknown #
vertex $-1 $227 $268 #
ellipse-curve $-1 11.96399999999999864 9.562333047033632738 15.118999999999998 0 1 -0 1.767766952966369765 0 1.76776695296636932 1 I I #
coedge $-1 $248 $248 $228 $249 reversed $269 $-1 #
edge $-1 $270 -3.141592653589786011 $270 3.141592653589800221 $248 $271 forward 7 unknown #
vertex $-1 $230 $272 #
ellipse-curve $-1 11.96400000000000219 5.418658355138087579 15.11899999999999977 0 1 -0 -1.910777095534515801 0 -1.91077709553451669 1 I I #
coedge $-1 $252 $252 $273 $274 reversed $231 $-1 #
face $-1 $275 $269 $2 $-1 $276 forward single #
cone-surface $-1 11.96400000000000041 13.58010000000000161 15.11900000000000155 7.38051387058546514e-17 -1 0 -1.500000000000000222 -1.107077080587819525e-16 0 1 I I 0 1 1.500000000000000222 forward I I I I #
coedge $-1 $255 $255 $234 $256 reversed $261 $-1 #
edge $-1 $277 -3.141592653589800221 $277 3.141592653589786011 $255 $278 forward 7 unknown #
face $-1 $232 $279 $2 $-1 $280 forward single #
loop $-1 $281 $273 $235 #
torus-surface $-1 11.96400000000000041 10.83010000000000161 15.11900000000000155 0 -1 0 1.75 -0.25 0 0 -1.000000000000000222 forward_v I I I I #
point $-1 13.70925591781405473 5.506439215535185561 16.86425591781403099 #
loop $-1 $-1 $255 $221 #
coedge $-1 $262 $262 $263 $282 reversed $239 $-1 #
coedge $-1 $263 $263 $262 $282 forward $241 $-1 #
vertex $-1 $244 $283 #
ellipse-curve $-1 11.96399999999999864 10.33010000000000161 15.118999999999998 0 -1 0 1.371320343559644162 -0 1.37132034355964505 1 I I #
vertex $-1 $245 $284 #
ellipse-curve $-1 11.96399999999999864 9.915886437626905803 15.118999999999998 0 -1 0 1.66421356237309559 -0 1.664213562373096478 1 I I #
point $-1 10.19623304703364219 9.562333047033632738 13.35123304703361669 #
loop $-1 $285 $248 $253 #
vertex $-1 $249 $286 #
ellipse-curve $-1 11.96399999999999864 10.09266313292354411 15.118999999999998 -4.964071580824057839e-16 -1 4.964071580824055867e-16 1.789213562373095145 -0 1.789213562373096034 1 I I #
point $-1 13.87477709553453131 5.418658355138087579 17.02977709553450225 #
coedge $-1 $273 $273 $252 $274 forward $258 $-1 #
edge $-1 $287 -3.141592653589798889 $287 3.141592653589787343 $252 $288 forward 7 unknown #
face $-1 $121 $289 $2 $-1 $290 reversed single #
cone-surface $-1 11.96399999999999864 10.22654660940672855 15.118999999999998 0 -1 0 1.694543648263006075 0 1.694543648263006075 1 I I 0.7071067811865475727 0.7071067811865475727 2.396446609406726491 forward I I I I #
vertex $-1 $256 $291 #
ellipse-curve $-1 11.96400000000000041 10.83010000000000161 15.11900000000000155 7.38051387058546514e-17 -1 0 -1.250000000000000222 0 0 1 I I #
loop $-1 $292 $293 $257 #
torus-surface $-1 11.96399999999999864 10.33010000000000161 15.118999999999998 0 -1 0 1.939339828220179918 0.25 0 0 -1.000000000000000222 forward_v I I I I #
loop $-1 $-1 $294 $235 #
edge $-1 $295 -3.141592653589800221 $295 3.141592653589786011 $262 $296 forward 7 unknown #
point $-1 10.59267965644034604 10.33010000000000161 13.74767965644036316 #
point $-1 10.29978643762689217 9.915886437626905803 13.4547864376269164 #
loop $-1 $-1 $297 $253 #
point $-1 10.17478643762691704 10.09266313292354411 13.32978643762688975 #
vertex $-1 $274 $298 #
ellipse-curve $-1 11.96400000000000041 10.83010000000000161 15.11900000000000155 0 -1 0 -1.500000000000000222 -1.107077080587819525e-16 0 1 I I #
loop $-1 $299 $300 $275 #
plane-surface $-1 11.47379999999999889 10.58010000000000161 17.93320000000000292 0 -1 0 0 0 -1.000000000000000222 forward_v I I I I #
point $-1 13.21400000000000041 10.83010000000000161 15.11899999999999267 #
loop $-1 $-1 $301 $257 #
coedge $-1 $293 $293 $302 $303 forward $279 $-1 #
coedge $-1 $294 $294 $300 $304 forward $281 $-1 #
vertex $-1 $282 $305 #
ellipse-curve $-1 11.96400000000000041 10.33010000000000161 15.11900000000000155 0 1 -0 0 0 -1.750000000000000222 1 I I #
coedge $-1 $297 $297 $301 $306 reversed $285 $-1 #
point $-1 13.46400000000000219 10.83010000000000161 15.11899999999999267 #
loop $-1 $-1 $302 $275 #
coedge $-1 $300 $300 $294 $304 reversed $289 $-1 #
coedge $-1 $301 $301 $297 $306 forward $292 $-1 #
coedge $-1 $302 $302 $293 $303 reversed $299 $-1 #
edge $-1 $307 -3.141592653589800221 $307 3.141592653589786011 $302 $308 forward 7 unknown #
edge $-1 $309 -3.141592653589786011 $309 3.141592653589800221 $300 $310 forward 7 unknown #
point $-1 11.96399999999998798 10.33010000000000161 16.86900000000000333 #
edge $-1 $311 -3.141592653589786455 $311 3.141592653589799777 $297 $312 forward 7 unknown #
vertex $-1 $303 $313 #
ellipse-curve $-1 11.96399999999999864 10.58010000000000161 15.118999999999998 0 -1 0 1.371320343559643717 0 1.371320343559643717 1 I I #
vertex $-1 $304 $314 #
ellipse-curve $-1 11.96400000000000041 10.58010000000000161 15.11900000000000155 0 1 -0 -1.750000000000000222 0 0 1 I I #
vertex $-1 $306 $315 #
ellipse-curve $-1 11.96399999999999864 10.50687669529663992 15.118999999999998 -5.935750479654711023e-16 1 5.935750479654714967e-16 1.496320343559643051 0 1.496320343559642163 1 I I #
point $-1 10.59267965644034604 10.58010000000000161 13.74767965644036494 #
point $-1 13.71400000000000219 10.58010000000000161 15.11899999999998911 #
point $-1 10.46767965644034781 10.50687669529663992 13.62267965644036849 #
End-of-ACIS-data 