201 0 1 0           
7 Unknown 11 ACIS 2.1 NT 24 Wed Aug 29 11:31:51 2001 
-1 9.9999999999999995e-007 1e-010 
body $-1 $1 $-1 $2 #
lump $-1 $-1 $3 $0 #
transform $-1 -0.70710678118654757 0 -0.70710678118654757 0.70710678118654757 0 -0.70710678118654757 0 -1 0 11.964 5.8069999999999995 15.119000000000002 1 rotate no_reflect no_shear #
shell $-1 $-1 $-1 $4 $-1 $1 #
face $-1 $5 $6 $3 $-1 $7 reversed single #
face $-1 $8 $9 $3 $-1 $10 reversed single #
loop $-1 $11 $12 $4 #
cone-surface $-1 3.6196796128939379 3.6196796128939379 -1.7731000000000003 -0.70710678118654757 -0.70710678118654757 0 -0.70710678118654757 0.70710678118654757 0 1 I I 0 1 forward I I I I #
face $-1 $13 $14 $3 $-1 $15 reversed single #
loop $-1 $16 $17 $5 #
cone-surface $-1 -1.3300678554118939 -1.3300678554118956 -1.7731000000000012 -0.70710678118654757 -0.70710678118654757 0 0.70710678118654757 -0.70710678118654757 0 1 I I 0 1 forward I I I I #
loop $-1 $-1 $18 $4 #
coedge $-1 $12 $12 $19 $20 1 $6 $-1 #
face $-1 $21 $22 $3 $-1 $15 reversed single #
loop $-1 $23 $24 $8 #
cone-surface $-1 7.1054273576010019e-015 0 0.25284999999999869 0 0 -1 0.53033008588991071 -0.53033008588991071 0 1 I I 0 1 forward I I I I #
loop $-1 $-1 $25 $5 #
coedge $-1 $17 $17 $26 $27 1 $9 $-1 #
coedge $-1 $18 $18 $28 $29 1 $11 $-1 #
coedge $-1 $19 $19 $12 $20 0 $30 $-1 #
edge $-1 $31 $31 $19 $32 forward #
face $-1 $33 $34 $3 $-1 $15 reversed single #
loop $-1 $35 $36 $13 #
loop $-1 $-1 $37 $8 #
coedge $-1 $24 $24 $38 $39 1 $14 $-1 #
coedge $-1 $25 $25 $40 $41 1 $16 $-1 #
coedge $-1 $26 $26 $17 $27 0 $42 $-1 #
edge $-1 $43 $43 $26 $44 forward #
coedge $-1 $28 $28 $18 $29 0 $45 $-1 #
edge $-1 $46 $46 $28 $47 forward #
loop $-1 $42 $19 $33 #
vertex $-1 $20 $48 #
intcurve-curve $-1 forward { surfintcur nubs 3 periodic 17 
	0 3 0.38155766525265111 2 0.76311533050530223 2 1.1442870008045865 2 1.5254586711038705 2 
	1.9066303414031545 2 2.2878020117024387 2 2.6693596769550894 2 3.0509173422077405 2 3.4324750074603934 2 
	3.8140326727130462 2 4.1952043430123318 2 4.5763760133116183 2 4.9575476836109047 2 5.3387193539101903 2 
	5.720277019162836 2 6.1018346844154818 3 
	0.9130783934154203 2.3272919557885152 -1.7731000000000003 
	0.9130783934154203 2.3272919557885152 -1.6459141115824498 
	0.93953901439241472 2.3173918737942705 -1.5113797009440715 
	1.0407695894951743 2.2737275793862484 -1.2655132377285931 
	1.1149707986244906 2.2394787894806525 -1.1540336634597579 
	1.2761126437750259 2.1517306088634061 -0.97804183846966475 
	1.3742183777336394 2.0921327420828515 -0.90128856363567234 
	1.5752506903448948 1.9452714012310213 -0.79878071617240398 
	1.6779239286780965 1.8576099772546475 -0.77310000000000001 
	1.8576099772546477 1.6779239286780967 -0.77310000000000012 
	1.9452714012310222 1.5752506903448948 -0.79878071617240398 
	2.0921327420828519 1.3742183777336399 -0.90128856363567222 
	2.1517306088634065 1.2761126437750261 -0.97804183846966453 
	2.2394787894806525 1.1149707986244906 -1.1540336634597574 
	2.2737275793862488 1.0407695894951754 -1.2655132377285925 
	2.3173918737942709 0.93953901439241572 -1.511379700944071 
	2.3272919557885166 0.91307839341542141 -1.6459141115824498 
	2.3272919557885166 0.91307839341542141 -1.9002858884175513 
	2.3173918737942714 0.93953901439241616 -2.0348202990559301 
	2.2737275793862493 1.0407695894951767 -2.2806867622714098 
	2.239478789480652 1.1149707986244926 -2.3921663365402455 
	2.1517306088634047 1.276112643775029 -2.5681581615303388 
	2.0921327420828497 1.3742183777336427 -2.64491143636433 
	1.9452714012310184 1.5752506903448988 -2.7474192838275977 
	1.8576099772546435 1.6779239286781009 -2.7731000000000012 
	1.6779239286780907 1.8576099772546528 -2.7730999999999995 
	1.5752506903448882 1.9452714012310277 -2.7474192838275941 
	1.3742183777336323 2.0921327420828568 -2.6449114363643229 
	1.2761126437750185 2.1517306088634105 -2.5681581615303299 
	1.1149707986244852 2.2394787894806552 -2.3921663365402361 
	1.0407695894951712 2.2737275793862497 -2.2806867622714018 
	0.93953901439241383 2.3173918737942709 -2.0348202990559257 
	0.9130783934154203 2.3272919557885152 -1.9002858884175489 
	0.9130783934154203 2.3272919557885152 -1.7731000000000003 
	0.001 
	cone 3.6196796128939379 3.6196796128939379 -1.7731000000000003 -0.70710678118654757 -0.70710678118654757 0 -0.70710678118654757 0.70710678118654757 0 1 I I 0 1 forward I I I I 
	cone 3.5527136788005009e-015 1.7763568394002505e-015 -1.7390000000000008 0 0 -1 -2.5000000000000009 4.4408920985006262e-016 0 1 I I 0 -1 forward I I I I 
	nullbs 
	nullbs 
	I I } I I #
face $-1 $49 $30 $3 $-1 $50 reversed single #
loop $-1 $51 $52 $21 #
loop $-1 $-1 $53 $13 #
coedge $-1 $36 $36 $54 $55 1 $22 $-1 #
coedge $-1 $37 $37 $56 $57 1 $23 $-1 #
coedge $-1 $38 $38 $24 $39 0 $58 $-1 #
edge $-1 $59 $59 $38 $60 forward #
coedge $-1 $40 $40 $25 $41 0 $61 $-1 #
edge $-1 $62 $62 $40 $63 forward #
loop $-1 $64 $26 $33 #
vertex $-1 $27 $65 #
intcurve-curve $-1 forward { surfintcur nubs 3 periodic 17 
	0 3 0.38155766525265311 2 0.76311533050530622 2 1.1442870008045922 2 1.525458671103878 2 
	1.9066303414031638 2 2.2878020117024498 2 2.6693596769550956 2 3.0509173422077414 2 3.4324750074604005 2 
	3.8140326727130596 2 4.1952043430123425 2 4.5763760133116262 2 4.95754768361091 2 5.3387193539101938 2 
	5.7202770191628378 2 6.1018346844154827 3 
	-2.3272919557885094 -0.9130783934154163 -1.7731000000000012 
	-2.3272919557885094 -0.9130783934154163 -1.9002858884175522 
	-2.3173918737942643 -0.93953901439241116 -2.0348202990559314 
	-2.2737275793862421 -1.0407695894951718 -2.2806867622714111 
	-2.2394787894806458 -1.1149707986244879 -2.3921663365402464 
	-2.1517306088633985 -1.2761126437750245 -2.5681581615303397 
	-2.0921327420828431 -1.3742183777336388 -2.6449114363643318 
	-1.9452714012310117 -1.5752506903448948 -2.7474192838275995 
	-1.8576099772546373 -1.6779239286780967 -2.7731000000000021 
	-1.6779239286780849 -1.8576099772546484 -2.7731000000000003 
	-1.575250690344882 -1.9452714012310222 -2.7474192838275955 
	-1.3742183777336265 -2.0921327420828515 -2.6449114363643251 
	-1.2761126437750132 -2.1517306088634065 -2.5681581615303313 
	-1.1149707986244795 -2.2394787894806512 -2.392166336540237 
	-1.0407695894951656 -2.2737275793862457 -2.2806867622714027 
	-0.93953901439240839 -2.3173918737942669 -2.0348202990559265 
	-0.91307839341541452 -2.3272919557885112 -1.9002858884175498 
	-0.91307839341541452 -2.3272919557885112 -1.6459141115824483 
	-0.93953901439241017 -2.317391873794266 -1.511379700944067 
	-1.0407695894951734 -2.2737275793862421 -1.2655132377285851 
	-1.1149707986244917 -2.2394787894806454 -1.1540336634597486 
	-1.2761126437750303 -2.1517306088633963 -0.97804183846965642 
	-1.3742183777336443 -2.0921327420828404 -0.90128856363566612 
	-1.5752506903448993 -1.9452714012310088 -0.79878071617240132 
	-1.6779239286781005 -1.8576099772546337 -0.77309999999999923 
	-1.8576099772546506 -1.6779239286780818 -0.77310000000000278 
	-1.9452714012310244 -1.5752506903448795 -0.79878071617240853 
	-2.0921327420828524 -1.374218377733625 -0.90128856363568011 
	-2.1517306088634056 -1.2761126437750123 -0.97804183846967341 
	-2.2394787894806494 -1.1149707986244799 -1.1540336634597672 
	-2.2737275793862444 -1.0407695894951665 -1.2655132377286011 
	-2.3173918737942647 -0.93953901439240994 -1.5113797009440761 
	-2.3272919557885094 -0.9130783934154163 -1.6459141115824529 
	-2.3272919557885094 -0.9130783934154163 -1.7731000000000012 
	0.001 
	cone -1.3300678554118939 -1.3300678554118956 -1.7731000000000012 -0.70710678118654757 -0.70710678118654757 0 0.70710678118654757 -0.70710678118654757 0 1 I I 0 1 forward I I I I 
	cone 3.5527136788005009e-015 1.7763568394002505e-015 -1.7390000000000008 0 0 -1 -2.5000000000000009 4.4408920985006262e-016 0 1 I I 0 -1 forward I I I I 
	nullbs 
	nullbs 
	I I } I I #
loop $-1 $61 $28 $66 #
vertex $-1 $29 $67 #
intcurve-curve $-1 forward { surfintcur nubs 3 periodic 17 
	0 3 0.38062200213783004 2 0.76124400427566008 2 1.1416105232693416 2 1.5219770422630232 2 
	1.9023435612567052 2 2.2827100802503875 2 2.6633320823882096 2 3.0439540845260322 2 3.4245760866638673 2 
	3.8051980888017027 2 4.1855646077953823 2 4.5659311267890619 2 4.9462976457827423 2 5.3266641647764228 2 
	5.7072861669142432 2 6.0879081690520636 3 
	1.104315312087135 2.5185288744602299 -1.7731000000000003 
	1.104315312087135 2.5185288744602299 -1.8999740007126102 
	1.1297810152315562 2.5077975874408049 -2.034407976217139 
	1.2279843712056673 2.4612005391961036 -2.280382804533728 
	1.3002308445482065 2.4249171984859919 -2.3920402147957143 
	1.4580402694192751 2.3334376081255166 -2.5683141679412547 
	1.5544579238133287 2.2719152024634743 -2.6451016117895101 
	1.7530049830898309 2.1224777157289569 -2.7475250927615704 
	1.8548903999574289 2.0341968965685884 -2.7731000000000012 
	2.0341968965685981 1.8548903999574189 -2.7730999999999995 
	2.1224777157289654 1.7530049830898204 -2.7475250927615669 
	2.2719152024634814 1.5544579238133187 -2.6451016117895034 
	2.3334376081255233 1.4580402694192658 -2.5683141679412458 
	2.4249171984859959 1.3002308445482003 -2.3920402147957045 
	2.4612005391961067 1.2279843712056631 -2.2803828045337196 
	2.5077975874408063 1.1297810152315557 -2.0344079762171341 
	2.5185288744602308 1.1043153120871358 -1.8999740007126078 
	2.5185288744602308 1.1043153120871358 -1.6462259992873887 
	2.5077975874408058 1.1297810152315579 -1.5117920237828586 
	2.4612005391961032 1.2279843712056715 -1.2658171954662665 
	2.4249171984859896 1.3002308445482118 -1.1541597852042789 
	2.3334376081255126 1.4580402694192824 -0.97788583205873991 
	2.2719152024634703 1.554457923813336 -0.90109838821048549 
	2.1224777157289521 1.7530049830898373 -0.79867490723842816 
	2.0341968965685835 1.8548903999574344 -0.77309999999999823 
	1.8548903999574138 2.0341968965686021 -0.77310000000000179 
	1.7530049830898151 2.1224777157289694 -0.79867490723843559 
	1.554457923813314 2.2719152024634841 -0.90109838821050015 
	1.458040269419262 2.3334376081255246 -0.97788583205875756 
	1.300230844548198 2.4249171984859963 -1.1541597852042984 
	1.2279843712056624 2.4612005391961067 -1.2658171954662834 
	1.1297810152315555 2.5077975874408058 -1.5117920237828681 
	1.104315312087135 2.5185288744602299 -1.6462259992873935 
	1.104315312087135 2.5185288744602299 -1.7731000000000003 
	0.001 
	cone 3.6196796128939379 3.6196796128939379 -1.7731000000000003 -0.70710678118654757 -0.70710678118654757 0 -0.70710678118654757 0.70710678118654757 0 1 I I 0 1 forward I I I I 
	cone 3.5527136788005009e-015 1.7763568394002505e-015 -1.7390000000000008 0 0 -1 -2.7500000000000004 0 0 1 I I 0 1 forward I I I I 
	nullbs 
	nullbs 
	I I } I I #
point $-1 0.91307839341542063 2.3272919557885157 -1.7731000000000003 #
face $-1 $68 $69 $3 $-1 $70 forward single #
cone-surface $-1 3.5527136788005009e-015 1.7763568394002505e-015 -1.7390000000000008 0 0 -1 -2.5000000000000009 4.4408920985006262e-016 0 1 I I 0 1 forward I I I I #
loop $-1 $-1 $71 $21 #
coedge $-1 $52 $52 $72 $73 1 $34 $-1 #
coedge $-1 $53 $53 $74 $75 1 $35 $-1 #
coedge $-1 $54 $54 $36 $55 0 $76 $-1 #
edge $-1 $77 $77 $54 $78 forward #
coedge $-1 $56 $56 $37 $57 0 $79 $-1 #
edge $-1 $80 $80 $56 $81 forward #
loop $-1 $82 $38 $68 #
vertex $-1 $39 $83 #
ellipse-curve $-1 7.1054273576010019e-015 0 -0.125 0 0 1 0.53033008588991071 -0.53033008588991071 0 1 I I #
loop $-1 $84 $40 $66 #
vertex $-1 $41 $85 #
intcurve-curve $-1 forward { surfintcur nubs 3 periodic 17 
	0 3 0.38062200213782815 2 0.76124400427565631 2 1.1416105232693363 2 1.5219770422630161 2 
	1.9023435612566963 2 2.2827100802503764 2 2.6633320823882043 2 3.0439540845260322 2 3.4245760866638619 2 
	3.8051980888016921 2 4.1855646077953734 2 4.5659311267890548 2 4.946297645782737 2 5.3266641647764184 2 
	5.7072861669142405 2 6.0879081690520636 3 
	-2.5185288744602241 -1.1043153120871307 -1.7731000000000012 
	-2.5185288744602241 -1.1043153120871307 -1.6462259992873918 
	-2.5077975874407992 -1.1297810152315519 -1.5117920237828641 
	-2.4612005391960983 -1.2279843712056622 -1.2658171954662758 
	-2.4249171984859874 -1.3002308445482011 -1.1541597852042895 
	-2.3334376081255126 -1.4580402694192685 -0.97788583205874957 
	-2.2719152024634708 -1.5544579238133216 -0.90109838821049337 
	-2.1224777157289543 -1.7530049830898224 -0.79867490723843271 
	-2.0341968965685866 -1.8548903999574198 -0.7731000000000009 
	-1.854890399957418 -2.0341968965685884 -0.7731000000000009 
	-1.75300498308982 -2.122477715728956 -0.7986749072384326 
	-1.5544579238133189 -2.2719152024634726 -0.90109838821049359 
	-1.4580402694192662 -2.3334376081255144 -0.97788583205874968 
	-1.3002308445481989 -2.4249171984859892 -1.1541597852042895 
	-1.2279843712056604 -2.4612005391961 -1.2658171954662758 
	-1.1297810152315502 -2.5077975874408009 -1.5117920237828641 
	-1.104315312087129 -2.5185288744602259 -1.6462259992873918 
	-1.1043153120871287 -2.5185288744602259 -1.8999740007126109 
	-1.1297810152315504 -2.5077975874408009 -2.034407976217139 
	-1.2279843712056613 -2.4612005391960996 -2.2803828045337284 
	-1.3002308445482003 -2.4249171984859874 -2.3920402147957152 
	-1.4580402694192689 -2.3334376081255122 -2.5683141679412556 
	-1.554457923813322 -2.2719152024634699 -2.645101611789511 
	-1.753004983089824 -2.1224777157289525 -2.7475250927615713 
	-1.8548903999574229 -2.0341968965685844 -2.7731000000000021 
	-2.0341968965685915 -1.854890399957414 -2.7731000000000003 
	-2.1224777157289596 -1.7530049830898156 -2.7475250927615673 
	-2.2719152024634757 -1.554457923813314 -2.6451016117895039 
	-2.3334376081255166 -1.4580402694192609 -2.5683141679412467 
	-2.4249171984859892 -1.3002308445481958 -2.3920402147957058 
	-2.4612005391960996 -1.2279843712056591 -2.2803828045337213 
	-2.5077975874407996 -1.1297810152315511 -2.0344079762171359 
	-2.5185288744602241 -1.104315312087131 -1.8999740007126089 
	-2.5185288744602241 -1.1043153120871307 -1.7731000000000012 
	0.001 
	cone -1.3300678554118939 -1.3300678554118956 -1.7731000000000012 -0.70710678118654757 -0.70710678118654757 0 0.70710678118654757 -0.70710678118654757 0 1 I I 0 1 forward I I I I 
	cone 3.5527136788005009e-015 1.7763568394002505e-015 -1.7390000000000008 0 0 -1 -2.7500000000000004 0 0 1 I I 0 1 forward I I I I 
	nullbs 
	nullbs 
	I I } I I #
loop $-1 $86 $87 $33 #
point $-1 -2.3272919557885094 -0.9130783934154163 -1.7731000000000012 #
face $-1 $88 $45 $3 $-1 $89 forward single #
point $-1 1.1043153120871347 2.5185288744602299 -1.7731000000000003 #
face $-1 $90 $58 $3 $-1 $91 forward single #
loop $-1 $92 $93 $49 #
plane-surface $-1 0 0 -3.5053000000000001 0 0 1 1.0000000000000002 0 0 forward_v I I I I #
coedge $-1 $71 $71 $93 $94 1 $51 $-1 #
coedge $-1 $72 $72 $52 $73 0 $95 $-1 #
edge $-1 $96 $96 $72 $97 forward #
coedge $-1 $74 $74 $53 $75 0 $98 $-1 #
edge $-1 $99 $99 $74 $100 forward #
loop $-1 $101 $54 $102 #
vertex $-1 $55 $103 #
ellipse-curve $-1 3.5527136788005009e-015 1.7763568394002505e-015 4.0106097713520974 0 0 1 0.53033008588991071 -0.53033008588991071 0 1 I I #
loop $-1 $104 $56 $90 #
vertex $-1 $57 $105 #
ellipse-curve $-1 7.1054273576010019e-015 0 0.125 0 0 -1 0.53033008588991071 -0.53033008588991071 0 1 I I #
loop $-1 $-1 $106 $68 #
point $-1 -0.53033008588989994 0.53033008588991437 -0.125 #
loop $-1 $107 $108 $66 #
point $-1 -2.5185288744602241 -1.104315312087131 -1.7731000000000012 #
loop $-1 $-1 $109 $33 #
coedge $-1 $87 $87 $106 $110 1 $64 $-1 #
face $-1 $111 $112 $3 $-1 $113 reversed single #
cone-surface $-1 3.5527136788005009e-015 1.7763568394002505e-015 -1.7390000000000008 0 0 -1 -2.7500000000000004 0 0 1 I I 0 1 forward I I I I #
face $-1 $114 $79 $3 $-1 $115 forward single #
plane-surface $-1 0 0 -0.125 0 0 -1 -1 0 0 forward_v I I I I #
loop $-1 $-1 $116 $49 #
coedge $-1 $93 $93 $71 $94 0 $69 $-1 #
edge $-1 $117 $117 $93 $118 forward #
loop $-1 $119 $72 $111 #
vertex $-1 $73 $120 #
ellipse-curve $-1 7.1054273576010019e-015 0 -3.7553000000000001 0 0 1 0.53033008588991071 -0.53033008588991071 0 1 I I #
loop $-1 $121 $74 $122 #
vertex $-1 $75 $123 #
ellipse-curve $-1 3.5527136788005009e-015 1.7763568394002505e-015 4.2607399039870391 0 0 -1 0.53033008588991071 -0.53033008588991071 0 1 I I #
loop $-1 $-1 $124 $102 #
face $-1 $125 $76 $3 $-1 $126 reversed single #
point $-1 -0.53033008588990349 0.53033008588991615 4.0106097713520974 #
loop $-1 $-1 $127 $90 #
point $-1 -0.53033008588990727 0.53033008588990704 0.125 #
coedge $-1 $106 $106 $87 $110 0 $82 $-1 #
loop $-1 $-1 $128 $66 #
coedge $-1 $108 $108 $129 $130 1 $84 $-1 #
coedge $-1 $109 $109 $116 $131 1 $86 $-1 #
edge $-1 $132 $132 $106 $133 forward #
face $-1 $-1 $95 $3 $-1 $134 forward single #
loop $-1 $135 $136 $88 #
plane-surface $-1 0 -2.6645352591003757e-015 -7.7731000000000012 0 0 1 0.70710678118654757 0.70710678118654757 0 forward_v I I I I #
face $-1 $137 $138 $3 $-1 $139 reversed single #
plane-surface $-1 0 0 0.125 0 0 1 1 0 0 forward_v I I I I #
coedge $-1 $116 $116 $109 $131 0 $92 $-1 #
vertex $-1 $94 $140 #
ellipse-curve $-1 7.1054273576010019e-015 0 -3.5053000000000001 0 0 -1 0.53033008588991071 -0.53033008588991071 0 1 I I #
loop $-1 $-1 $141 $111 #
point $-1 -0.53033008588989994 0.53033008588991437 -3.7553000000000001 #
loop $-1 $-1 $142 $122 #
face $-1 $143 $98 $3 $-1 $144 forward single #
point $-1 -0.53033008588991082 0.53033008588990882 4.2607399039870391 #
coedge $-1 $124 $124 $145 $146 1 $101 $-1 #
face $-1 $147 $148 $3 $-1 $50 reversed single #
torus-surface $-1 3.5527136788005009e-015 1.7763568394002505e-015 3.5109999999999975 0 0 -1 0.73024964887648247 0.5 -0.70710678118654757 -0.70710678118654757 0 forward_v I I I I #
coedge $-1 $127 $127 $149 $150 0 $104 $-1 #
coedge $-1 $128 $128 $151 $152 1 $107 $-1 #
coedge $-1 $129 $129 $108 $130 0 $153 $-1 #
edge $-1 $154 $154 $108 $155 forward #
edge $-1 $156 $156 $116 $157 forward #
vertex $-1 $110 $158 #
ellipse-curve $-1 3.5527136788005009e-015 1.7763568394002505e-015 -0.125 0 0 -1 -2.5000000000000009 4.4408920985006262e-016 0 1 I I #
plane-surface $-1 0 0 -3.7553000000000001 0 0 -1 -1.0000000000000002 0 0 forward_v I I I I #
loop $-1 $-1 $159 $88 #
coedge $-1 $136 $136 $160 $161 0 $112 $-1 #
face $-1 $102 $162 $3 $-1 $163 reversed single #
loop $-1 $164 $149 $114 #
torus-surface $-1 3.5527136788005009e-015 1.7763568394002505e-015 0.12499906367061797 0 0 1 2 0.5 0.70710678118654757 0.70710678118654757 0 forward_v I I I I #
point $-1 -0.53033008588990727 0.53033008588990704 -3.5053000000000001 #
coedge $-1 $141 $141 $165 $166 0 $119 $-1 #
coedge $-1 $142 $142 $167 $168 0 $121 $-1 #
face $-1 $169 $153 $3 $-1 $170 forward single #
torus-surface $-1 3.5527136788005009e-015 1.7763568394002505e-015 3.5109999999999975 0 0 -1 0.73024964887648247 0.75 -0.70710678118654757 -0.70710678118654757 0 forward_v I I I I #
coedge $-1 $145 $145 $124 $146 0 $171 $-1 #
edge $-1 $172 $172 $145 $173 forward #
face $-1 $174 $175 $3 $-1 $176 reversed single #
loop $-1 $177 $165 $125 #
coedge $-1 $149 $149 $127 $150 1 $138 $-1 #
edge $-1 $178 $178 $127 $179 forward #
coedge $-1 $151 $151 $128 $152 0 $180 $-1 #
edge $-1 $181 $181 $128 $182 forward #
loop $-1 $183 $129 $143 #
vertex $-1 $130 $184 #
ellipse-curve $-1 3.5527136788005009e-015 1.7763568394002505e-015 0.12499906367061797 0 0 1 2.7500000000000009 0 0 1 I I #
vertex $-1 $131 $185 #
ellipse-curve $-1 3.5527136788005009e-015 1.7763568394002505e-015 -3.5053000000000001 0 0 1 -2.5000000000000009 4.4408920985006262e-016 0 1 I I #
point $-1 2.5000000000000044 1.8789684435097104e-014 -0.125 #
coedge $-1 $159 $159 $186 $187 1 $135 $-1 #
coedge $-1 $160 $160 $136 $161 1 $188 $-1 #
edge $-1 $189 $189 $136 $190 forward #
loop $-1 $171 $191 $137 #
cone-surface $-1 3.5527136788005009e-015 1.7763568394002505e-015 2.1732191396029013 0 0 1 1.7659177056077389 -5.5511151231257827e-016 0 1 I I -0.3511234415883917 0.93632917756904455 forward I I I I #
loop $-1 $-1 $192 $114 #
coedge $-1 $165 $165 $141 $166 1 $148 $-1 #
edge $-1 $193 $193 $141 $194 forward #
coedge $-1 $167 $167 $142 $168 1 $195 $-1 #
edge $-1 $196 $196 $167 $197 forward #
face $-1 $198 $180 $3 $-1 $199 forward single #
torus-surface $-1 3.5527136788005009e-015 1.7763568394002505e-015 0.12499906367061797 0 0 1 2 0.75 0.70710678118654757 0.70710678118654757 0 forward_v I I I I #
loop $-1 $-1 $145 $137 #
vertex $-1 $146 $200 #
ellipse-curve $-1 3.5527136788005009e-015 1.7763568394002505e-015 3.6865617207941934 0 0 1 1.1984142376610045 -4.4408920985006262e-016 0 1 I I #
face $-1 $201 $202 $3 $-1 $203 reversed single #
loop $-1 $204 $205 $147 #
torus-surface $-1 3.5527136788005009e-015 1.7763568394002505e-015 -3.7553330470336324 0 0 -1 2 0.5 -0.70710678118654757 -0.70710678118654757 0 forward_v I I I I #
loop $-1 $-1 $206 $125 #
vertex $-1 $150 $207 #
ellipse-curve $-1 3.5527136788005009e-015 1.7763568394002505e-015 0.125 0 0 1 2.4999999999991234 0 0 1 I I #
loop $-1 $208 $151 $169 #
vertex $-1 $152 $209 #
ellipse-curve $-1 3.5527136788005009e-015 1.7763568394002505e-015 -3.7553330470336324 0 0 -1 -2.7500000000000009 0 0 1 I I #
loop $-1 $-1 $210 $143 #
point $-1 -2.75 2.1316282072803006e-014 0.12499906367061797 #
point $-1 2.5000000000000044 -1.6125149175996729e-014 -3.5053000000000001 #
coedge $-1 $186 $186 $159 $187 0 $211 $-1 #
edge $-1 $212 $212 $186 $213 forward #
loop $-1 $214 $160 $215 #
vertex $-1 $161 $216 #
ellipse-curve $-1 0 0 -7.7731000000000012 0 0 1 0.88388347648318444 -0.88388347648318444 0 1 I I #
coedge $-1 $191 $191 $192 $217 1 $162 $-1 #
coedge $-1 $192 $192 $191 $217 0 $164 $-1 #
vertex $-1 $166 $218 #
ellipse-curve $-1 3.5527136788005009e-015 1.7763568394002505e-015 -3.7553000000000001 0 0 -1 -2.5000000000000009 4.4408920985006262e-016 0 1 I I #
loop $-1 $219 $167 $198 #
vertex $-1 $168 $220 #
ellipse-curve $-1 3.5527136788005009e-015 1.7763568394002505e-015 3.7743425811912932 2.4800853609804039e-015 -2.4800853609804015e-015 1 1.4324965320532657 -6.6613381477509392e-016 -3.5527136788005009e-015 1 I I #
face $-1 $66 $195 $3 $-1 $221 forward single #
torus-surface $-1 3.5527136788005009e-015 1.7763568394002505e-015 -3.7553330470336324 0 0 -1 2 0.75 -0.70710678118654757 -0.70710678118654757 0 forward_v I I I I #
point $-1 -1.1984142376610016 1.1546319456101628e-014 3.6865617207941934 #
face $-1 $222 $223 $3 $-1 $224 forward single #
loop $-1 $225 $226 $174 #
cone-surface $-1 3.5527136788005009e-015 1.7763568394002505e-015 -4.2427699141100916 0 0 1 -2.2196699141100913 -6.6613381477509392e-016 0 1 I I 0.70710678118654757 0.70710678118654757 forward I I I I #
loop $-1 $-1 $227 $147 #
coedge $-1 $205 $205 $206 $228 1 $175 $-1 #
coedge $-1 $206 $206 $205 $228 0 $177 $-1 #
point $-1 2.5000000000000036 1.865174681370263e-014 0.12499906367061797 #
loop $-1 $-1 $229 $169 #
point $-1 2.7500000000000036 2.2204460492503131e-014 -3.7553330470336324 #
coedge $-1 $210 $210 $230 $231 0 $183 $-1 #
loop $-1 $232 $186 $233 #
vertex $-1 $187 $234 #
ellipse-curve $-1 0 0 -7.7731000000000012 -8.6592745707193554e-017 0 1 1.0606601717798214 -1.0606601717798214 9.1845476536678294e-017 1 I I #
loop $-1 $-1 $235 $215 #
face $-1 $236 $188 $3 $-1 $237 reversed single #
point $-1 -0.88388347648319154 0.88388347648317822 -7.7731000000000012 #
edge $-1 $238 $238 $192 $239 forward #
point $-1 2.5000000000000044 1.8789684435097104e-014 -3.7553000000000001 #
loop $-1 $-1 $230 $198 #
point $-1 -1.4324965320532641 -7.1054273576010019e-015 3.7743425811912967 #
cone-surface $-1 3.5527136788005009e-015 1.7763568394002505e-015 2.2609999999999992 0 0 1 2.0000000000000004 0 0 1 I I -0.3511234415883917 0.93632917756904455 forward I I I I #
face $-1 $215 $240 $3 $-1 $241 reversed single #
loop $-1 $242 $243 $201 #
plane-surface $-1 -1.6433161594775356 -2.3365636477528282 -4.5231000000000012 0 0 1 0.70710678118654757 0.70710678118654757 0 forward_v I I I I #
loop $-1 $-1 $244 $174 #
coedge $-1 $226 $226 $243 $245 1 $202 $-1 #
coedge $-1 $227 $227 $244 $246 1 $204 $-1 #
edge $-1 $247 $247 $205 $248 forward #
coedge $-1 $229 $229 $249 $250 0 $208 $-1 #
coedge $-1 $230 $230 $210 $231 1 $219 $-1 #
edge $-1 $251 $251 $230 $252 forward #
loop $-1 $-1 $253 $233 #
face $-1 $254 $211 $3 $-1 $255 forward single #
point $-1 1.0606601717798227 -1.060660171779821 -7.7731000000000012 #
coedge $-1 $235 $235 $256 $257 0 $214 $-1 #
face $-1 $258 $259 $3 $-1 $260 forward single #
cone-surface $-1 0 0 -7.7731000000000012 -5.2188114065323547e-017 5.2188114065323547e-017 1 0.88388347648318444 -0.88388347648318444 0 1 I I 0 1 forward I I I I #
vertex $-1 $217 $261 #
ellipse-curve $-1 3.5527136788005009e-015 1.7763568394002505e-015 0.30056078446481393 0 0 1 2.4681645887845218 -8.8817841970012523e-016 0 1 I I #
loop $-1 $262 $263 $222 #
torus-surface $-1 0 0 -5.0231000000000012 0 0 1 1.75 -0.5 0.70710678118654757 0.70710678118654757 0 forward_v I I I I #
loop $-1 $-1 $264 $201 #
coedge $-1 $243 $243 $226 $245 0 $223 $-1 #
coedge $-1 $244 $244 $227 $246 0 $225 $-1 #
edge $-1 $265 $265 $243 $266 forward #
edge $-1 $267 $267 $244 $268 forward #
vertex $-1 $228 $269 #
ellipse-curve $-1 3.5527136788005009e-015 1.7763568394002505e-015 -3.7553330470336324 0 0 -1 -2.5000000000000009 4.4408920985006262e-016 0 1 I I #
coedge $-1 $249 $249 $229 $250 1 $270 $-1 #
edge $-1 $271 $271 $249 $272 forward #
vertex $-1 $231 $273 #
ellipse-curve $-1 0 2.6645352591003757e-015 0.38834164486191192 0 0 -1 2.7022468831767839 6.6613381477509392e-016 0 1 I I #
coedge $-1 $253 $253 $274 $275 1 $232 $-1 #
face $-1 $276 $270 $3 $-1 $277 forward single #
cone-surface $-1 0 0 -7.7731000000000012 -5.2188114065323547e-017 5.2188114065323547e-017 1 1.0606601717798214 -1.0606601717798214 1.1070770805878195e-016 1 I I 0 1 forward I I I I #
coedge $-1 $256 $256 $235 $257 1 $262 $-1 #
edge $-1 $278 $278 $256 $279 forward #
face $-1 $233 $280 $3 $-1 $281 forward single #
loop $-1 $282 $274 $236 #
torus-surface $-1 0 0 -5.0231000000000012 0 0 1 1.75 -0.25 0.70710678118654757 0.70710678118654757 0 forward_v I I I I #
point $-1 -2.4681645887845214 1.865174681370263e-014 0.30056078446481393 #
loop $-1 $-1 $256 $222 #
coedge $-1 $263 $263 $264 $283 1 $240 $-1 #
coedge $-1 $264 $264 $263 $283 0 $242 $-1 #
vertex $-1 $245 $284 #
ellipse-curve $-1 3.5527136788005009e-015 1.7763568394002505e-015 -4.5231000000000012 0 0 1 -1.9393398282201815 -6.6613381477509392e-016 0 1 I I #
vertex $-1 $246 $285 #
ellipse-curve $-1 3.5527136788005009e-015 1.7763568394002505e-015 -4.1088864376269072 0 0 1 -2.3535533905932748 -6.6613381477509392e-016 0 1 I I #
point $-1 2.5000000000000036 1.865174681370263e-014 -3.7553330470336324 #
loop $-1 $286 $249 $254 #
vertex $-1 $250 $287 #
ellipse-curve $-1 3.5527136788005009e-015 1.7763568394002505e-015 -4.2856631329235437 1.9721522630525295e-031 -7.0202573541922304e-016 1 -2.5303300858899114 -6.6613381477509392e-016 0 1 I I #
point $-1 -2.7022468831767839 2.042810365310288e-014 0.38834164486191192 #
coedge $-1 $274 $274 $253 $275 0 $259 $-1 #
edge $-1 $288 $288 $253 $289 forward #
face $-1 $122 $290 $3 $-1 $291 reversed single #
cone-surface $-1 3.5527136788005009e-015 1.7763568394002505e-015 -4.4195466094067282 0 0 1 -2.3964466094067265 0 0 1 I I 0.70710678118654757 0.70710678118654757 forward I I I I #
vertex $-1 $257 $292 #
ellipse-curve $-1 0 0 -5.0231000000000012 -5.2188114065323547e-017 5.2188114065323547e-017 1 0.88388347648318444 -0.88388347648318444 0 1 I I #
loop $-1 $293 $294 $258 #
torus-surface $-1 3.5527136788005009e-015 1.7763568394002505e-015 -4.5231000000000012 0 0 1 1.9393398282201799 0.25 0.70710678118654757 0.70710678118654757 0 forward_v I I I I #
loop $-1 $-1 $295 $236 #
edge $-1 $296 $296 $263 $297 forward #
point $-1 1.9393398282201844 -1.0658141036401503e-014 -4.5231000000000012 #
point $-1 2.3535533905932766 -1.5987211554602254e-014 -4.1088864376269072 #
loop $-1 $-1 $298 $254 #
point $-1 2.5303300858899131 2.042810365310288e-014 -4.2856631329235437 #
vertex $-1 $275 $299 #
ellipse-curve $-1 0 0 -5.0231000000000012 0 0 1 1.0606601717798214 -1.0606601717798214 1.1070770805878195e-016 1 I I #
loop $-1 $300 $301 $276 #
plane-surface $-1 -1.6433161594775356 -2.3365636477528282 -4.7731000000000012 0 0 1 0.70710678118654757 0.70710678118654757 0 forward_v I I I I #
point $-1 -0.88388347648317733 0.88388347648319066 -5.0231000000000012 #
loop $-1 $-1 $302 $258 #
coedge $-1 $294 $294 $303 $304 0 $280 $-1 #
coedge $-1 $295 $295 $301 $305 0 $282 $-1 #
vertex $-1 $283 $306 #
ellipse-curve $-1 0 0 -4.5231000000000012 0 0 -1 1.2374368670764582 1.2374368670764582 0 1 I I #
coedge $-1 $298 $298 $302 $307 1 $286 $-1 #
point $-1 -1.0606601717798156 1.060660171779829 -5.0231000000000012 #
loop $-1 $-1 $303 $276 #
coedge $-1 $301 $301 $295 $305 1 $290 $-1 #
coedge $-1 $302 $302 $298 $307 0 $293 $-1 #
coedge $-1 $303 $303 $294 $304 1 $300 $-1 #
edge $-1 $308 $308 $303 $309 forward #
edge $-1 $310 $310 $301 $311 forward #
point $-1 -1.2374368670764504 -1.2374368670764682 -4.5231000000000012 #
edge $-1 $312 $312 $298 $313 forward #
vertex $-1 $304 $314 #
ellipse-curve $-1 3.5527136788005009e-015 1.7763568394002505e-015 -4.7731000000000012 0 0 1 -1.9393398282201801 0 0 1 I I #
vertex $-1 $305 $315 #
ellipse-curve $-1 0 0 -4.7731000000000012 0 0 -1 1.2374368670764582 -1.2374368670764582 0 1 I I #
vertex $-1 $307 $316 #
ellipse-curve $-1 3.5527136788005009e-015 1.7763568394002505e-015 -4.6998766952966395 -2.9582283945787943e-031 -8.3944188311902985e-016 -1 -2.1161165235168156 6.6613381477509392e-016 0 1 I I #
point $-1 1.9393398282201826 -1.1546319456101628e-014 -4.7731000000000012 #
point $-1 -1.2374368670764504 1.2374368670764682 -4.7731000000000012 #
point $-1 2.1161165235168156 -1.4210854715202004e-014 -4.6998766952966395 #
End-of-ACIS-data 