600 0 1 0           
79 GICL ACIS Healer - Source: /gicl/data5/repository/CMU/scanner-2/motor.sat - 6 0 18 ACIS 6.0.3 Solaris 24 Sat Apr 13 00:28:25 2002 
1 9.999999999999999547e-07 1.000000000000000036e-10 
body $-1 $1 $-1 $-1 #
lump $-1 $-1 $2 $0 #
shell $-1 $-1 $-1 $3 $-1 $1 #
face $-1 $4 $5 $2 $-1 $6 forward single #
face $-1 $7 $8 $2 $-1 $9 reversed single #
loop $-1 $10 $11 $3 #
cone-surface $-1 11.96400000000000041 7.580100000000000726 17 0 0 1 -1 0 0 1 I I 0 1 1 forward I I I I #
face $-1 $12 $13 $2 $-1 $14 forward single #
loop $-1 $-1 $15 $4 #
plane-surface $-1 11.96399999999999864 7.580100000000003391 17 0 0 1 1 0 0 forward_v I I I I #
loop $-1 $-1 $16 $3 #
coedge $-1 $11 $11 $17 $18 reversed $5 $-1 #
face $-1 $19 $20 $2 $-1 $21 forward single #
loop $-1 $22 $23 $7 #
cone-surface $-1 11.96400000000000041 7.580100000000000726 20.5 0 0 1 1.5 0 0 1 I I 0 1 1.5 forward I I I I #
coedge $-1 $15 $15 $16 $24 reversed $8 $-1 #
coedge $-1 $16 $16 $15 $24 forward $10 $-1 #
coedge $-1 $17 $17 $11 $18 forward $20 $-1 #
edge $-1 $25 -3.141592653589786011 $25 3.141592653589800221 $17 $26 forward 7 unknown #
face $-1 $27 $28 $2 $-1 $29 forward single #
loop $-1 $30 $17 $12 #
plane-surface $-1 11.96400000000000041 7.580100000000000726 18 0 0 -1 -1 0 0 forward_v I I I I #
loop $-1 $-1 $31 $7 #
coedge $-1 $23 $23 $32 $33 reversed $13 $-1 #
edge $-1 $34 0 $34 6.283185307179586232 $16 $35 forward 7 unknown #
vertex $-1 $18 $36 #
ellipse-curve $-1 11.96400000000000041 7.580100000000000726 18 0 0 1 -1 0 0 1 I I #
face $-1 $37 $38 $2 $-1 $39 forward single #
loop $-1 $40 $41 $19 #
cone-surface $-1 11.96400000000000041 7.580100000000000726 25.5 0 0 1 3 0 0 1 I I 0 1 3 forward I I I I #
loop $-1 $-1 $32 $12 #
coedge $-1 $31 $31 $42 $43 reversed $22 $-1 #
coedge $-1 $32 $32 $23 $33 forward $30 $-1 #
edge $-1 $44 0 $44 6.283185307179586232 $32 $45 forward 7 unknown #
vertex $-1 $24 $46 #
ellipse-curve $-1 11.96400000000000041 7.580100000000000726 17 0 0 1 -1 0 0 1 I I #
point $-1 12.96400000000000041 7.580100000000007832 18 #
face $-1 $-1 $47 $2 $-1 $48 forward single #
loop $-1 $49 $42 $27 #
plane-surface $-1 11.96400000000000041 7.580100000000000726 23 0 0 -1 -1 0 0 forward_v I I I I #
loop $-1 $-1 $50 $19 #
coedge $-1 $41 $41 $51 $52 reversed $28 $-1 #
coedge $-1 $42 $42 $31 $43 forward $38 $-1 #
edge $-1 $53 0 $53 6.283185307179586232 $42 $54 forward 7 unknown #
vertex $-1 $33 $55 #
ellipse-curve $-1 11.96400000000000041 7.580100000000000726 18 0 0 -1 1.5 0 0 1 I I #
point $-1 10.96400000000000041 7.580100000000000726 17 #
loop $-1 $-1 $56 $37 #
plane-surface $-1 11.96400000000000041 7.580100000000000726 28 0 0 1 1 0 0 forward_v I I I I #
loop $-1 $-1 $51 $27 #
coedge $-1 $50 $50 $56 $57 reversed $40 $-1 #
coedge $-1 $51 $51 $41 $52 forward $49 $-1 #
edge $-1 $58 0 $58 6.283185307179586232 $51 $59 forward 7 unknown #
vertex $-1 $43 $60 #
ellipse-curve $-1 11.96400000000000041 7.580100000000000726 23 0 0 1 1.5 0 0 1 I I #
point $-1 13.46400000000000041 7.580100000000000726 18 #
coedge $-1 $56 $56 $50 $57 forward $47 $-1 #
edge $-1 $61 0 $61 6.283185307179586232 $56 $62 forward 7 unknown #
vertex $-1 $52 $63 #
ellipse-curve $-1 11.96400000000000041 7.580100000000000726 23 0 0 -1 3 0 0 1 I I #
point $-1 13.46400000000000041 7.580100000000000726 23 #
vertex $-1 $57 $64 #
ellipse-curve $-1 11.96400000000000041 7.580100000000000726 28 0 0 1 3 0 0 1 I I #
point $-1 14.96400000000000041 7.580100000000000726 23 #
point $-1 14.96400000000000041 7.580100000000000726 28 #
End-of-ACIS-data 