700 0 2 0           
24 FBMach with ACIS - 7.0.3 13 ACIS 7.0.3 NT 24 Mon May 13 16:54:17 2002 
1 9.9999999999999995e-007 1e-010 
body $2 -1 $-1 $3 $-1 $4 #
bdycol-kcp $-1 -1 1 3 $5 $6 $7 #
model_id-kcp-attrib $-1 -1 $-1 $-1 $0 1 1021323256 1021323256 -1816461311 1 #
lump $-1 -1 $-1 $-1 $8 $0 #
transform $-1 -1 1 0 0 0 1 0 0 0 1 0 0 0 1 rotate no_reflect no_shear #
body $9 -1 $-1 $10 $-1 $11 #
body $12 -1 $-1 $13 $-1 $14 #
body $15 -1 $-1 $16 $-1 $17 #
shell $-1 -1 $-1 $-1 $-1 $18 $-1 $3 #
model_id-kcp-attrib $-1 -1 $-1 $-1 $5 1 1021323256 1021323256 -1816461310 1 #
lump $-1 -1 $-1 $-1 $19 $5 #
transform $-1 -1 1 0 0 0 1 0 0 0 1 11.964 7.5801000000000007 9.25 1 no_rotate no_reflect no_shear #
rgb_color-st-attrib $-1 -1 $20 $-1 $6 0.5 1 1 #
lump $-1 -1 $-1 $-1 $21 $6 #
transform $-1 -1 1 0 0 0 1 0 0 0 1 11.964 7.5801000000000007 9.25 1 no_rotate no_reflect no_shear #
rgb_color-st-attrib $-1 -1 $22 $-1 $7 1 0.5 1 #
lump $-1 -1 $-1 $-1 $23 $7 #
transform $-1 -1 1 0 0 0 1 0 0 0 1 11.964 7.5801000000000007 9.25 1 no_rotate no_reflect no_shear #
face $24 -1 $-1 $25 $26 $8 $-1 $27 reversed single #
shell $-1 -1 $-1 $-1 $-1 $28 $-1 $10 #
model_id-kcp-attrib $-1 -1 $-1 $12 $6 1 1021323256 1021323257 -1827733501 1 #
shell $-1 -1 $-1 $-1 $-1 $29 $-1 $13 #
model_id-kcp-attrib $-1 -1 $-1 $15 $7 1 1021323256 1021323257 -1821835260 1 #
shell $-1 -1 $-1 $-1 $-1 $30 $-1 $16 #
model_id-kcp-attrib $-1 -1 $-1 $-1 $18 1 1021323256 1021323256 -1816461311 2 #
face $31 -1 $-1 $32 $33 $8 $-1 $34 forward single #
loop $-1 -1 $-1 $-1 $35 $18 #
plane-surface $-1 -1 $-1 11.964000000000002 7.5801000000000034 13.5 0 0 -1 -1 0 0 forward_v I I I I #
face $36 -1 $-1 $37 $38 $19 $-1 $39 forward single #
face $-1 -1 $-1 $40 $41 $21 $-1 $42 reversed single #
face $-1 -1 $-1 $43 $44 $23 $-1 $45 forward single #
model_id-kcp-attrib $-1 -1 $-1 $-1 $25 1 1021323256 1021323256 -1816461311 3 #
face $46 -1 $-1 $47 $48 $8 $-1 $49 forward single #
loop $-1 -1 $-1 $50 $51 $25 #
cone-surface $-1 -1 $-1 11.964 7.5800999999999998 10 0 0 1 1 0 0 1 I I 0 1 1 forward I I I I #
coedge $-1 -1 $-1 $35 $35 $51 $52 reversed $26 $-1 #
model_id-kcp-attrib $-1 -1 $-1 $-1 $28 1 1021323256 1021323256 -1816461310 2 #
face $53 -1 $-1 $54 $55 $19 $-1 $56 reversed single #
loop $-1 -1 $-1 $-1 $57 $28 #
plane-surface $-1 -1 $-1 0 0 4.25 0 0 1 1 0 0 forward_v I I I I #
face $-1 -1 $-1 $58 $59 $21 $-1 $42 reversed single #
loop $-1 -1 $-1 $-1 $60 $29 #
cone-surface $-1 -1 $-1 0 0 4.25 0 0 1 1.5036 0 0 1 I I 0 1 1.5036 forward I I I I #
face $-1 -1 $-1 $61 $62 $23 $-1 $63 forward single #
loop $-1 -1 $-1 $64 $65 $30 #
cone-surface $-1 -1 $-1 0 -8.8817841970012523e-016 -1.7499999999999982 0 0 1 1 0 0 1 I I 0 -1 1 forward I I I I #
model_id-kcp-attrib $-1 -1 $-1 $-1 $32 1 1021323256 1021323256 -1816461311 4 #
face $66 -1 $-1 $67 $68 $8 $-1 $69 forward single #
loop $-1 -1 $-1 $70 $71 $32 #
cone-surface $-1 -1 $-1 11.964 7.5801000000000007 6.25 0 -6.1230317691118863e-017 -1 1.5036 0 0 1 I I 0 1 1.5036 forward I I I I #
loop $-1 -1 $-1 $-1 $72 $25 #
coedge $-1 -1 $-1 $51 $51 $35 $52 forward $33 $-1 #
edge $73 -1 $-1 $74 0 $74 6.2831853071795862 $51 $75 forward @7 unknown #
model_id-kcp-attrib $-1 -1 $-1 $-1 $37 1 1021323256 1021323256 -1816461310 3 #
face $-1 -1 $-1 $76 $77 $19 $-1 $78 reversed single #
loop $-1 -1 $-1 $-1 $79 $37 #
plane-surface $-1 -1 $-1 0 0 -4.25 0 0 1 1 0 0 forward_v I I I I #
coedge $-1 -1 $-1 $80 $81 $82 $83 forward $38 $-1 #
face $-1 -1 $-1 $84 $85 $21 $-1 $42 reversed single #
loop $-1 -1 $-1 $-1 $86 $40 #
coedge $-1 -1 $-1 $87 $88 $89 $90 reversed $41 $-1 #
face $-1 -1 $-1 $91 $92 $23 $-1 $93 forward single #
loop $-1 -1 $-1 $94 $95 $43 #
cone-surface $-1 -1 $-1 0 0 -1.7499999999999982 0 0 1 1.5036 0 0 1 I I 0 1 1.5036 forward I I I I #
loop $-1 -1 $-1 $-1 $96 $30 #
coedge $-1 -1 $-1 $65 $65 $97 $98 forward $44 $-1 #
model_id-kcp-attrib $-1 -1 $-1 $-1 $47 1 1021323256 1021323256 -1816461311 5 #
face $99 -1 $-1 $-1 $100 $8 $-1 $101 forward single #
loop $-1 -1 $-1 $102 $103 $47 #
plane-surface $-1 -1 $-1 11.964 7.5801000000000007 7.5 0 6.1230317691118863e-017 1 -1 0 0 forward_v I I I I #
loop $-1 -1 $-1 $-1 $104 $32 #
coedge $-1 -1 $-1 $71 $71 $105 $106 reversed $48 $-1 #
coedge $-1 -1 $-1 $72 $72 $103 $107 reversed $50 $-1 #
attrib_edge_convexity-kcp-attrib $-1 -1 $108 $-1 $52 1 #
vertex $-1 -1 $-1 $52 $109 #
ellipse-curve $-1 -1 $-1 11.964 7.5801000000000007 13.5 0 0 -1 1 0 0 1 I I #
face $-1 -1 $-1 $110 $111 $19 $-1 $112 reversed single #
loop $-1 -1 $-1 $-1 $113 $54 #
plane-surface $-1 -1 $-1 0 -1.5035999999999996 0 0 1 0 0 0 1 forward_v I I I I #
coedge $-1 -1 $-1 $114 $115 $116 $117 forward $55 $-1 #
coedge $-1 -1 $-1 $118 $57 $119 $120 forward $38 $-1 #
coedge $-1 -1 $-1 $57 $118 $121 $122 forward $38 $-1 #
coedge $-1 -1 $-1 $123 $124 $57 $83 reversed $125 $-1 #
edge $-1 -1 $-1 $126 -1.5035999999999996 $127 1.5035999999999996 $82 $128 forward @7 unknown #
face $-1 -1 $-1 $129 $130 $21 $-1 $42 reversed single #
loop $-1 -1 $-1 $-1 $131 $58 #
coedge $-1 -1 $-1 $132 $133 $134 $135 reversed $59 $-1 #
coedge $-1 -1 $-1 $136 $60 $137 $138 reversed $41 $-1 #
coedge $-1 -1 $-1 $60 $136 $139 $140 reversed $41 $-1 #
coedge $-1 -1 $-1 $141 $142 $143 $90 forward $144 $-1 #
edge $-1 -1 $-1 $145 -8.5 $146 0 $89 $147 forward @7 unknown #
face $-1 -1 $-1 $-1 $148 $23 $-1 $149 reversed single #
loop $-1 -1 $-1 $150 $151 $61 #
plane-surface $-1 -1 $-1 -0.045781818181818174 -3.494608470383483e-016 4.2500000000000018 -1.8144115782579535e-032 2.4192154376772707e-032 1 1 0 1.8144115782579535e-032 forward_v I I I I #
loop $-1 -1 $-1 $-1 $152 $43 #
coedge $-1 -1 $-1 $95 $95 $151 $153 forward $62 $-1 #
coedge $-1 -1 $-1 $96 $96 $154 $155 reversed $64 $-1 #
coedge $-1 -1 $-1 $97 $97 $65 $98 reversed $150 $-1 #
edge $-1 -1 $-1 $156 1.6315034041390372e-031 $156 6.2831853071795862 $65 $157 forward @7 unknown #
model_id-kcp-attrib $-1 -1 $-1 $-1 $67 1 1021323256 1021323256 -1816461311 6 #
loop $-1 -1 $-1 $-1 $158 $67 #
plane-surface $-1 -1 $-1 11.964 7.5801000000000007 5 0 -6.1230317691118863e-017 -1 1 0 0 forward_v I I I I #
loop $-1 -1 $-1 $-1 $105 $47 #
coedge $-1 -1 $-1 $103 $103 $72 $107 forward $68 $-1 #
coedge $-1 -1 $-1 $104 $104 $158 $159 reversed $70 $-1 #
coedge $-1 -1 $-1 $105 $105 $71 $106 forward $102 $-1 #
edge $160 -1 $-1 $161 0 $161 6.2831853071795862 $105 $162 forward @7 unknown #
edge $163 -1 $-1 $164 -5.4383446804634572e-032 $164 6.2831853071795862 $103 $165 forward @7 unknown #
convexity-sys-attrib $-1 -1 $-1 $73 $52 #
point $-1 -1 $-1 12.964 7.5801000000000007 13.5 #
face $-1 -1 $-1 $166 $167 $19 $-1 $168 reversed single #
loop $-1 -1 $-1 $-1 $169 $76 #
plane-surface $-1 -1 $-1 -1.5036000000000005 0 0 1 0 0 0 0 -1 forward_v I I I I #
coedge $-1 -1 $-1 $170 $121 $171 $172 forward $77 $-1 #
coedge $-1 -1 $-1 $173 $79 $170 $174 forward $55 $-1 #
coedge $-1 -1 $-1 $79 $173 $175 $176 forward $55 $-1 #
coedge $-1 -1 $-1 $124 $123 $79 $117 reversed $125 $-1 #
edge $-1 -1 $-1 $177 -1.5035999999999996 $178 1.5035999999999996 $116 $179 forward @7 unknown #
coedge $-1 -1 $-1 $81 $80 $180 $181 forward $38 $-1 #
coedge $-1 -1 $-1 $182 $183 $80 $120 reversed $167 $-1 #
edge $-1 -1 $-1 $127 -1.5036000000000005 $184 1.5036000000000005 $119 $185 forward @7 unknown #
coedge $-1 -1 $-1 $113 $186 $81 $122 reversed $77 $-1 #
edge $-1 -1 $-1 $187 -1.5036000000000005 $126 1.5036000000000005 $121 $188 forward @7 unknown #
coedge $-1 -1 $-1 $116 $82 $186 $189 forward $125 $-1 #
coedge $-1 -1 $-1 $82 $116 $182 $190 reversed $125 $-1 #
loop $-1 -1 $-1 $-1 $123 $166 #
vertex $-1 -1 $-1 $83 $191 #
vertex $-1 -1 $-1 $83 $192 #
straight-curve $-1 -1 $-1 1.5036000000000005 0 4.25 0 1 0 I I #
face $-1 -1 $-1 $193 $194 $21 $-1 $195 reversed single #
loop $-1 -1 $-1 $-1 $196 $84 #
coedge $-1 -1 $-1 $197 $198 $199 $200 reversed $85 $-1 #
coedge $-1 -1 $-1 $201 $86 $202 $203 reversed $59 $-1 #
coedge $-1 -1 $-1 $86 $201 $60 $90 forward $59 $-1 #
coedge $-1 -1 $-1 $204 $205 $86 $135 forward $206 $-1 #
edge $-1 -1 $-1 $207 -3.1415926535897931 $146 -1.5707963267948966 $134 $208 forward @7 unknown #
coedge $-1 -1 $-1 $88 $87 $198 $209 forward $41 $-1 #
coedge $-1 -1 $-1 $210 $211 $87 $138 forward $212 $-1 #
edge $-1 -1 $-1 $213 0 $145 1.5707963267948966 $137 $214 forward @7 unknown #
coedge $-1 -1 $-1 $215 $216 $88 $140 forward $217 $-1 #
edge $-1 -1 $-1 $146 -1.5707963267948966 $218 0 $139 $208 forward @7 unknown #
coedge $-1 -1 $-1 $219 $89 $216 $220 reversed $144 $-1 #
coedge $-1 -1 $-1 $89 $219 $210 $221 reversed $144 $-1 #
coedge $-1 -1 $-1 $222 $223 $133 $90 reversed $224 $-1 #
loop $-1 -1 $-1 $-1 $89 $225 #
vertex $-1 -1 $-1 $221 $226 #
vertex $-1 -1 $-1 $227 $228 #
straight-curve $-1 -1 $-1 0 1.5035999999999996 4.25 0 0 1 I I #
loop $-1 -1 $-1 $229 $230 $91 #
plane-surface $-1 -1 $-1 -0.045781818181818174 -3.494608470383483e-016 -1.7499999999999982 -1.8144115782579535e-032 2.4192154376772707e-032 1 1 0 1.8144115782579535e-032 forward_v I I I I #
loop $-1 -1 $-1 $-1 $97 $61 #
coedge $-1 -1 $-1 $151 $151 $95 $153 reversed $92 $-1 #
coedge $-1 -1 $-1 $152 $152 $230 $231 reversed $94 $-1 #
edge $-1 -1 $-1 $232 -3.1415926535897931 $232 3.1415926535897931 $95 $233 forward @7 unknown #
coedge $-1 -1 $-1 $154 $154 $96 $155 forward $229 $-1 #
edge $234 -1 $-1 $235 1.6315034041390372e-031 $235 6.2831853071795862 $96 $236 forward @7 unknown #
vertex $-1 -1 $-1 $98 $237 #
ellipse-curve $-1 -1 $-1 0 -8.8817841970012523e-016 4.2500000000000018 0 6.1230317691118863e-017 1 1 0 0 1 I I #
coedge $-1 -1 $-1 $158 $158 $104 $159 forward $100 $-1 #
edge $-1 -1 $-1 $238 0 $238 6.2831853071795862 $158 $239 forward @7 unknown #
attrib_edge_convexity-kcp-attrib $-1 -1 $240 $-1 $106 1 #
vertex $-1 -1 $-1 $106 $241 #
ellipse-curve $-1 -1 $-1 11.964 7.5801000000000007 7.5 0 6.1230317691118863e-017 1 1.5036 0 0 1 I I #
attrib_edge_convexity-kcp-attrib $-1 -1 $242 $-1 $107 2 #
vertex $-1 -1 $-1 $107 $243 #
ellipse-curve $-1 -1 $-1 11.964 7.5800999999999998 7.5 0 -6.1230317691118863e-017 -1 1 0 0 1 I I #
face $-1 -1 $-1 $-1 $125 $19 $-1 $244 reversed single #
loop $-1 -1 $-1 $-1 $182 $110 #
plane-surface $-1 -1 $-1 0 1.5035999999999996 0 0 -1 0 0 0 -1 forward_v I I I I #
coedge $-1 -1 $-1 $245 $180 $183 $246 forward $111 $-1 #
coedge $-1 -1 $-1 $186 $113 $114 $174 reversed $77 $-1 #
coedge $-1 -1 $-1 $180 $245 $113 $172 reversed $111 $-1 #
edge $-1 -1 $-1 $187 -4.25 $247 4.25 $171 $248 forward @7 unknown #
coedge $-1 -1 $-1 $115 $114 $245 $249 forward $55 $-1 #
edge $-1 -1 $-1 $178 -1.5036000000000005 $247 1.5036000000000005 $170 $250 forward @7 unknown #
coedge $-1 -1 $-1 $183 $182 $115 $176 reversed $167 $-1 #
edge $-1 -1 $-1 $251 -1.5036000000000005 $177 1.5036000000000005 $175 $252 forward @7 unknown #
vertex $-1 -1 $-1 $117 $253 #
vertex $-1 -1 $-1 $189 $254 #
straight-curve $-1 -1 $-1 1.5036000000000005 0 -4.25 0 -1 0 I I #
coedge $-1 -1 $-1 $169 $171 $118 $181 reversed $111 $-1 #
edge $-1 -1 $-1 $184 -1.5035999999999996 $187 1.5035999999999996 $180 $255 forward @7 unknown #
coedge $-1 -1 $-1 $175 $119 $124 $190 forward $167 $-1 #
coedge $-1 -1 $-1 $119 $175 $169 $246 reversed $167 $-1 #
vertex $-1 -1 $-1 $120 $256 #
straight-curve $-1 -1 $-1 0 1.5035999999999996 4.25 -1 0 0 I I #
coedge $-1 -1 $-1 $121 $170 $123 $189 reversed $77 $-1 #
vertex $-1 -1 $-1 $181 $257 #
straight-curve $-1 -1 $-1 0 -1.5035999999999996 4.25 1 0 0 I I #
edge $-1 -1 $-1 $126 -4.25 $178 4.25 $123 $258 forward @7 unknown #
edge $-1 -1 $-1 $127 -4.25 $177 4.25 $124 $259 forward @7 unknown #
point $-1 -1 $-1 1.5036000000000005 -1.5035999999999996 4.25 #
point $-1 -1 $-1 1.5036000000000005 1.5035999999999996 4.25 #
face $-1 -1 $-1 $260 $224 $21 $-1 $261 reversed single #
loop $-1 -1 $-1 $-1 $262 $129 #
plane-surface $-1 -1 $-1 1.5036000000000005 0 0 -1 0 0 0 0 1 forward_v I I I I #
coedge $-1 -1 $-1 $263 $264 $265 $266 reversed $130 $-1 #
coedge $-1 -1 $-1 $267 $131 $264 $268 forward $85 $-1 #
coedge $-1 -1 $-1 $131 $267 $269 $209 reversed $85 $-1 #
coedge $-1 -1 $-1 $270 $271 $131 $200 forward $272 $-1 #
edge $-1 -1 $-1 $273 -1.5707963267948966 $213 0 $199 $214 forward @7 unknown #
coedge $-1 -1 $-1 $133 $132 $274 $275 reversed $59 $-1 #
coedge $-1 -1 $-1 $276 $277 $278 $203 forward $279 $-1 #
edge $-1 -1 $-1 $280 -8.5 $207 0 $202 $281 forward @7 unknown #
coedge $-1 -1 $-1 $205 $134 $223 $227 forward $206 $-1 #
coedge $-1 -1 $-1 $134 $204 $276 $282 forward $206 $-1 #
loop $-1 -1 $-1 $-1 $134 $283 #
vertex $-1 -1 $-1 $284 $285 #
ellipse-curve $-1 -1 $-1 0 0 4.25 0 0 -1 1.5036 0 0 1 I I #
edge $-1 -1 $-1 $213 -8.5 $218 0 $269 $286 forward @7 unknown #
coedge $-1 -1 $-1 $211 $137 $142 $221 forward $212 $-1 #
coedge $-1 -1 $-1 $137 $210 $287 $288 forward $212 $-1 #
loop $-1 -1 $-1 $-1 $137 $289 #
vertex $-1 -1 $-1 $290 $291 #
ellipse-curve $-1 -1 $-1 0 0 -4.25 0 0 1 1.5036 0 0 1 I I #
coedge $-1 -1 $-1 $216 $139 $292 $293 forward $217 $-1 #
coedge $-1 -1 $-1 $139 $215 $141 $220 forward $217 $-1 #
loop $-1 -1 $-1 $-1 $139 $294 #
vertex $-1 -1 $-1 $293 $295 #
coedge $-1 -1 $-1 $142 $141 $296 $297 forward $144 $-1 #
edge $-1 -1 $-1 $298 -1.5036000000000005 $146 0 $141 $299 forward @7 unknown #
edge $-1 -1 $-1 $145 0 $300 1.5036000000000005 $142 $301 forward @7 unknown #
coedge $-1 -1 $-1 $302 $143 $303 $304 reversed $224 $-1 #
coedge $-1 -1 $-1 $143 $302 $204 $227 reversed $224 $-1 #
loop $-1 -1 $-1 $-1 $143 $193 #
face $-1 -1 $-1 $305 $144 $21 $-1 $261 reversed single #
point $-1 -1 $-1 0 1.5035999999999996 -4.25 #
edge $-1 -1 $-1 $146 0 $306 1.5036000000000005 $223 $299 forward @7 unknown #
point $-1 -1 $-1 0 1.5035999999999996 4.25 #
loop $-1 -1 $-1 $-1 $154 $91 #
coedge $-1 -1 $-1 $230 $230 $152 $231 forward $148 $-1 #
edge $307 -1 $-1 $308 -3.1415926535897931 $308 3.1415926535897931 $152 $309 forward @7 unknown #
vertex $-1 -1 $-1 $153 $310 #
ellipse-curve $-1 -1 $-1 0 0 4.2500000000000018 0 -6.1230317691118863e-017 -1 1.5036 0 0 1 I I #
convexity-sys-attrib $-1 -1 $-1 $-1 $155 #
vertex $-1 -1 $-1 $155 $311 #
ellipse-curve $-1 -1 $-1 0 -8.8817841970012523e-016 -1.7499999999999982 0 6.1230317691118863e-017 1 1 0 0 1 I I #
point $-1 -1 $-1 1 -8.8817841970012523e-016 4.2499999999999991 #
vertex $-1 -1 $-1 $159 $312 #
ellipse-curve $-1 -1 $-1 11.964 7.5801000000000007 5 0 -6.1230317691118863e-017 -1 1.5036 0 0 1 I I #
convexity-sys-attrib $-1 -1 $-1 $160 $106 #
point $-1 -1 $-1 13.467600000000001 7.5801000000000007 7.5 #
convexity-sys-attrib $-1 -1 $-1 $163 $107 #
point $-1 -1 $-1 12.964 7.5800999999999998 7.4999999999999991 #
plane-surface $-1 -1 $-1 1.5036000000000005 0 0 -1 0 0 0 0 1 forward_v I I I I #
coedge $-1 -1 $-1 $171 $169 $173 $249 reversed $111 $-1 #
edge $-1 -1 $-1 $184 -4.25 $251 4.25 $183 $313 forward @7 unknown #
vertex $-1 -1 $-1 $249 $314 #
straight-curve $-1 -1 $-1 -1.5036000000000005 -1.5035999999999996 0 0 0 -1 I I #
edge $-1 -1 $-1 $247 -1.5035999999999996 $251 1.5035999999999996 $245 $315 forward @7 unknown #
straight-curve $-1 -1 $-1 0 -1.5035999999999996 -4.25 -1 0 0 I I #
vertex $-1 -1 $-1 $176 $316 #
straight-curve $-1 -1 $-1 0 1.5035999999999996 -4.25 1 0 0 I I #
point $-1 -1 $-1 1.5036000000000005 1.5035999999999996 -4.25 #
point $-1 -1 $-1 1.5036000000000005 -1.5035999999999996 -4.25 #
straight-curve $-1 -1 $-1 -1.5036000000000005 0 4.25 0 -1 0 I I #
point $-1 -1 $-1 -1.5036000000000005 1.5035999999999996 4.25 #
point $-1 -1 $-1 -1.5036000000000005 -1.5035999999999996 4.25 #
straight-curve $-1 -1 $-1 1.5036000000000005 -1.5035999999999996 0 0 0 -1 I I #
straight-curve $-1 -1 $-1 1.5036000000000005 1.5035999999999996 0 0 0 -1 I I #
face $-1 -1 $-1 $317 $318 $21 $-1 $319 reversed single #
plane-surface $-1 -1 $-1 0 1.5035999999999996 0 0 -1 0 0 0 -1 forward_v I I I I #
coedge $-1 -1 $-1 $287 $292 $136 $209 reversed $194 $-1 #
coedge $-1 -1 $-1 $320 $196 $132 $203 forward $130 $-1 #
coedge $-1 -1 $-1 $196 $320 $321 $268 reversed $130 $-1 #
coedge $-1 -1 $-1 $322 $323 $196 $266 forward $324 $-1 #
edge $-1 -1 $-1 $280 -3.1415926535897931 $273 -1.5707963267948966 $265 $214 forward @7 unknown #
coedge $-1 -1 $-1 $198 $197 $325 $326 reversed $85 $-1 #
edge $-1 -1 $-1 $273 -8.5 $327 0 $321 $328 forward @7 unknown #
coedge $-1 -1 $-1 $329 $330 $262 $209 forward $331 $-1 #
coedge $-1 -1 $-1 $271 $199 $330 $290 forward $272 $-1 #
coedge $-1 -1 $-1 $199 $270 $332 $333 forward $272 $-1 #
loop $-1 -1 $-1 $-1 $199 $334 #
vertex $-1 -1 $-1 $335 $336 #
coedge $-1 -1 $-1 $337 $303 $201 $275 forward $338 $-1 #
edge $-1 -1 $-1 $145 1.5707963267948966 $280 3.1415926535897931 $274 $214 forward @7 unknown #
coedge $-1 -1 $-1 $339 $202 $205 $282 reversed $279 $-1 #
coedge $-1 -1 $-1 $202 $339 $337 $340 reversed $279 $-1 #
coedge $-1 -1 $-1 $341 $342 $263 $203 reversed $318 $-1 #
loop $-1 -1 $-1 $-1 $202 $343 #
vertex $-1 -1 $-1 $340 $344 #
straight-curve $-1 -1 $-1 -1.5036000000000005 0 4.25 0 0 1 I I #
edge $-1 -1 $-1 $306 -1.5035999999999996 $207 0 $276 $345 forward @7 unknown #
face $-1 -1 $-1 $294 $206 $21 $-1 $346 forward single #
edge $-1 -1 $-1 $207 0 $347 1.5035999999999996 $342 $345 forward @7 unknown #
point $-1 -1 $-1 -1.5036000000000005 0 4.25 #
straight-curve $-1 -1 $-1 1.5036000000000005 0 4.25 0 0 1 I I #
coedge $-1 -1 $-1 $296 $262 $211 $288 reversed $194 $-1 #
edge $-1 -1 $-1 $300 -1.5035999999999996 $213 0 $287 $348 forward @7 unknown #
face $-1 -1 $-1 $349 $212 $21 $-1 $350 reversed single #
edge $-1 -1 $-1 $213 0 $351 1.5035999999999996 $330 $348 forward @7 unknown #
point $-1 -1 $-1 1.5036000000000005 0 -4.25 #
coedge $-1 -1 $-1 $262 $296 $215 $293 reversed $194 $-1 #
edge $-1 -1 $-1 $218 0 $298 1.5035999999999996 $292 $352 forward @7 unknown #
face $-1 -1 $-1 $353 $217 $21 $-1 $346 forward single #
point $-1 -1 $-1 1.5036000000000005 0 4.25 #
coedge $-1 -1 $-1 $292 $287 $219 $297 reversed $194 $-1 #
edge $-1 -1 $-1 $298 -4.25 $300 4.25 $296 $354 forward @7 unknown #
vertex $-1 -1 $-1 $293 $355 #
straight-curve $-1 -1 $-1 0 1.5035999999999996 4.25 -1 0 0 I I #
vertex $-1 -1 $-1 $288 $356 #
straight-curve $-1 -1 $-1 0 1.5035999999999996 -4.25 1 0 0 I I #
coedge $-1 -1 $-1 $223 $222 $339 $357 reversed $224 $-1 #
coedge $-1 -1 $-1 $274 $337 $222 $304 forward $338 $-1 #
edge $-1 -1 $-1 $358 -1.5036000000000005 $145 0 $222 $301 forward @7 unknown #
face $-1 -1 $-1 $-1 $331 $21 $-1 $195 reversed single #
vertex $-1 -1 $-1 $227 $359 #
convexity-sys-attrib $-1 -1 $-1 $-1 $231 #
vertex $-1 -1 $-1 $231 $360 #
ellipse-curve $-1 -1 $-1 0 0 -1.7499999999999982 0 -6.1230317691118863e-017 -1 1.5036 0 0 1 I I #
point $-1 -1 $-1 -1.5036 1.8413181136073264e-016 4.2500000000000018 #
point $-1 -1 $-1 1 -8.8817841970012523e-016 -1.7500000000000009 #
point $-1 -1 $-1 13.467600000000001 7.5801000000000007 5 #
straight-curve $-1 -1 $-1 -1.5036000000000005 1.5035999999999996 0 0 0 -1 I I #
point $-1 -1 $-1 -1.5036000000000005 -1.5035999999999996 -4.25 #
straight-curve $-1 -1 $-1 -1.5036000000000005 0 -4.25 0 1 0 I I #
point $-1 -1 $-1 -1.5036000000000005 1.5035999999999996 -4.25 #
face $-1 -1 $-1 $283 $361 $21 $-1 $346 forward single #
loop $-1 -1 $-1 $-1 $278 $260 #
plane-surface $-1 -1 $-1 -1.5036000000000005 0 0 1 0 0 0 0 -1 forward_v I I I I #
coedge $-1 -1 $-1 $264 $263 $362 $363 reversed $130 $-1 #
coedge $-1 -1 $-1 $364 $365 $366 $268 forward $367 $-1 #
coedge $-1 -1 $-1 $323 $265 $365 $335 forward $324 $-1 #
coedge $-1 -1 $-1 $265 $322 $341 $368 forward $324 $-1 #
loop $-1 -1 $-1 $-1 $265 $369 #
coedge $-1 -1 $-1 $370 $371 $267 $326 forward $372 $-1 #
edge $-1 -1 $-1 $218 0 $327 1.5707963267948966 $325 $208 forward @7 unknown #
vertex $-1 -1 $-1 $373 $374 #
straight-curve $-1 -1 $-1 0 -1.5035999999999996 4.25 0 0 1 I I #
coedge $-1 -1 $-1 $375 $269 $371 $376 reversed $331 $-1 #
coedge $-1 -1 $-1 $269 $375 $270 $290 reversed $331 $-1 #
loop $-1 -1 $-1 $-1 $269 $305 #
coedge $-1 -1 $-1 $377 $366 $271 $333 reversed $378 $-1 #
edge $-1 -1 $-1 $351 -1.5036000000000005 $273 0 $332 $379 forward @7 unknown #
face $-1 -1 $-1 $289 $272 $21 $-1 $350 reversed single #
edge $-1 -1 $-1 $273 0 $380 1.5036000000000005 $365 $379 forward @7 unknown #
point $-1 -1 $-1 0 -1.5035999999999996 -4.25 #
coedge $-1 -1 $-1 $303 $274 $277 $340 forward $338 $-1 #
loop $-1 -1 $-1 $-1 $274 $349 #
coedge $-1 -1 $-1 $277 $276 $302 $357 forward $279 $-1 #
edge $-1 -1 $-1 $280 0 $358 1.5035999999999996 $277 $381 forward @7 unknown #
coedge $-1 -1 $-1 $382 $278 $323 $368 reversed $318 $-1 #
coedge $-1 -1 $-1 $278 $382 $383 $284 reversed $318 $-1 #
face $-1 -1 $-1 $225 $279 $21 $-1 $319 reversed single #
point $-1 -1 $-1 -1.5036000000000005 0 -4.25 #
straight-curve $-1 -1 $-1 -1.5036000000000005 0 4.25 0 -1 0 I I #
plane-surface $-1 -1 $-1 0 0 4.25 0 0 1 1 0 0 forward_v I I I I #
vertex $-1 -1 $-1 $284 $384 #
straight-curve $-1 -1 $-1 1.5036000000000005 0 -4.25 0 -1 0 I I #
face $-1 -1 $-1 $385 $338 $21 $-1 $350 reversed single #
plane-surface $-1 -1 $-1 0 0 -4.25 0 0 1 1 0 0 forward_v I I I I #
vertex $-1 -1 $-1 $386 $387 #
straight-curve $-1 -1 $-1 1.5036000000000005 0 4.25 0 1 0 I I #
face $-1 -1 $-1 $388 $372 $21 $-1 $346 forward single #
straight-curve $-1 -1 $-1 1.5036000000000005 1.5035999999999996 0 0 0 -1 I I #
point $-1 -1 $-1 1.5036000000000005 1.5035999999999996 4.25 #
point $-1 -1 $-1 1.5036000000000005 1.5035999999999996 -4.25 #
edge $-1 -1 $-1 $306 -4.25 $358 4.25 $302 $389 forward @7 unknown #
vertex $-1 -1 $-1 $304 $390 #
point $-1 -1 $-1 -1.5036000000000005 1.5035999999999996 4.25 #
point $-1 -1 $-1 -1.5036 1.8413181136073264e-016 -1.7499999999999982 #
loop $-1 -1 $-1 $-1 $362 $317 #
coedge $-1 -1 $-1 $383 $391 $320 $363 forward $361 $-1 #
edge $-1 -1 $-1 $327 1.5707963267948966 $207 3.1415926535897931 $362 $208 forward @7 unknown #
coedge $-1 -1 $-1 $392 $321 $391 $393 reversed $367 $-1 #
coedge $-1 -1 $-1 $321 $392 $322 $335 reversed $367 $-1 #
coedge $-1 -1 $-1 $332 $394 $197 $268 reversed $378 $-1 #
loop $-1 -1 $-1 $-1 $321 $385 #
edge $-1 -1 $-1 $380 -1.5035999999999996 $280 0 $341 $381 forward @7 unknown #
face $-1 -1 $-1 $334 $324 $21 $-1 $350 reversed single #
coedge $-1 -1 $-1 $371 $325 $394 $373 forward $372 $-1 #
coedge $-1 -1 $-1 $325 $370 $329 $376 forward $372 $-1 #
loop $-1 -1 $-1 $-1 $325 $353 #
edge $-1 -1 $-1 $327 0 $395 1.5036000000000005 $394 $396 forward @7 unknown #
point $-1 -1 $-1 0 -1.5035999999999996 4.25 #
coedge $-1 -1 $-1 $330 $329 $377 $386 forward $331 $-1 #
edge $-1 -1 $-1 $395 -1.5035999999999996 $218 0 $329 $352 forward @7 unknown #
coedge $-1 -1 $-1 $394 $332 $375 $386 reversed $378 $-1 #
loop $-1 -1 $-1 $-1 $366 $388 #
straight-curve $-1 -1 $-1 0 -1.5035999999999996 -4.25 -1 0 0 I I #
vertex $-1 -1 $-1 $368 $397 #
straight-curve $-1 -1 $-1 -1.5036000000000005 0 -4.25 0 1 0 I I #
coedge $-1 -1 $-1 $342 $341 $392 $398 reversed $318 $-1 #
coedge $-1 -1 $-1 $391 $362 $342 $284 forward $361 $-1 #
point $-1 -1 $-1 -1.5036000000000005 -1.5035999999999996 4.25 #
face $-1 -1 $-1 $343 $367 $21 $-1 $399 reversed single #
edge $-1 -1 $-1 $395 -4.25 $351 4.25 $375 $400 forward @7 unknown #
point $-1 -1 $-1 1.5036000000000005 -1.5035999999999996 -4.25 #
face $-1 -1 $-1 $369 $378 $21 $-1 $399 reversed single #
straight-curve $-1 -1 $-1 -1.5036000000000005 1.5035999999999996 0 0 0 -1 I I #
point $-1 -1 $-1 -1.5036000000000005 1.5035999999999996 -4.25 #
coedge $-1 -1 $-1 $362 $383 $364 $393 forward $361 $-1 #
coedge $-1 -1 $-1 $365 $364 $382 $398 forward $367 $-1 #
edge $-1 -1 $-1 $347 -1.5036000000000005 $327 0 $364 $396 forward @7 unknown #
coedge $-1 -1 $-1 $366 $377 $370 $373 reversed $378 $-1 #
vertex $-1 -1 $-1 $376 $401 #
straight-curve $-1 -1 $-1 0 -1.5035999999999996 4.25 1 0 0 I I #
point $-1 -1 $-1 -1.5036000000000005 -1.5035999999999996 -4.25 #
edge $-1 -1 $-1 $347 -4.25 $380 4.25 $382 $402 forward @7 unknown #
plane-surface $-1 -1 $-1 0 -1.5035999999999996 0 0 1 0 0 0 1 forward_v I I I I #
straight-curve $-1 -1 $-1 1.5036000000000005 -1.5035999999999996 0 0 0 -1 I I #
point $-1 -1 $-1 1.5036000000000005 -1.5035999999999996 4.25 #
straight-curve $-1 -1 $-1 -1.5036000000000005 -1.5035999999999996 0 0 0 -1 I I #
End-of-ACIS-data 