600 0 1 0           
83 GICL ACIS Healer - Source: /gicl/data5/repository/CMU/scanner-2/pivot-pin.sat - 6 0 18 ACIS 6.0.3 Solaris 24 Sat Apr 13 00:28:26 2002 
1 9.999999999999999547e-07 1.000000000000000036e-10 
body $-1 $1 $-1 $2 #
lump $-1 $-1 $3 $0 #
transform $-1 1 0 0 0 1 0 0 0 1 0 0 0 1 no_rotate no_reflect no_shear #
shell $-1 $-1 $-1 $4 $-1 $1 #
face $-1 $5 $6 $3 $-1 $7 reversed single #
face $-1 $8 $9 $3 $-1 $10 forward single #
loop $-1 $-1 $11 $4 #
plane-surface $-1 11.96400000000000219 7.580100000000003391 13.5 0 0 -1 -1 0 0 forward_v I I I I #
face $-1 $12 $13 $3 $-1 $14 forward single #
loop $-1 $15 $16 $5 #
cone-surface $-1 11.96400000000000041 7.580099999999999838 10 0 0 1 1 0 0 1 I I 0 1 1 forward I I I I #
coedge $-1 $11 $11 $16 $17 reversed $6 $-1 #
face $-1 $18 $19 $3 $-1 $20 forward single #
loop $-1 $21 $22 $8 #
cone-surface $-1 11.96400000000000041 7.580100000000000726 6.25 0 -6.123031769111886291e-17 -1 1.503600000000000048 0 0 1 I I 0 1 1.503600000000000048 forward I I I I #
loop $-1 $-1 $23 $5 #
coedge $-1 $16 $16 $11 $17 forward $9 $-1 #
edge $-1 $24 0 $24 6.283185307179586232 $16 $25 forward 7 unknown #
face $-1 $-1 $26 $3 $-1 $27 forward single #
loop $-1 $28 $29 $12 #
plane-surface $-1 11.96400000000000041 7.580100000000000726 7.5 0 6.123031769111886291e-17 1 -1 0 0 forward_v I I I I #
loop $-1 $-1 $30 $8 #
coedge $-1 $22 $22 $31 $32 reversed $13 $-1 #
coedge $-1 $23 $23 $29 $33 reversed $15 $-1 #
vertex $-1 $17 $34 #
ellipse-curve $-1 11.96400000000000041 7.580100000000000726 13.5 0 0 -1 1 0 0 1 I I #
loop $-1 $-1 $35 $18 #
plane-surface $-1 11.96400000000000041 7.580100000000000726 5 0 -6.123031769111886291e-17 -1 1 0 0 forward_v I I I I #
loop $-1 $-1 $31 $12 #
coedge $-1 $29 $29 $23 $33 forward $19 $-1 #
coedge $-1 $30 $30 $35 $36 reversed $21 $-1 #
coedge $-1 $31 $31 $22 $32 forward $28 $-1 #
edge $-1 $37 0 $37 6.283185307179586232 $31 $38 forward 7 unknown #
edge $-1 $39 -5.43834468046345724e-32 $39 6.283185307179586232 $29 $40 forward 7 unknown #
point $-1 12.96400000000000041 7.580100000000000726 13.5 #
coedge $-1 $35 $35 $30 $36 forward $26 $-1 #
edge $-1 $41 0 $41 6.283185307179586232 $35 $42 forward 7 unknown #
vertex $-1 $32 $43 #
ellipse-curve $-1 11.96400000000000041 7.580100000000000726 7.5 0 6.123031769111886291e-17 1 1.503600000000000048 0 0 1 I I #
vertex $-1 $33 $44 #
ellipse-curve $-1 11.96400000000000041 7.580099999999999838 7.5 0 -6.123031769111886291e-17 -1 1 0 0 1 I I #
vertex $-1 $36 $45 #
ellipse-curve $-1 11.96400000000000041 7.580100000000000726 5 0 -6.123031769111886291e-17 -1 1.503600000000000048 0 0 1 I I #
point $-1 13.4676000000000009 7.580100000000000726 7.5 #
point $-1 12.96400000000000041 7.580099999999999838 7.499999999999999112 #
point $-1 13.4676000000000009 7.580100000000000726 5 #
End-of-ACIS-data 