600 0 1 0           
92 GICL Pro/E ACIS Translator - Source: f:/data5/repository/PTC/V18/process18/adj-250.prt - 6 0 13 ACIS 6.0.3 NT 24 Thu Apr 04 09:57:27 2002 
1 9.9999999999999995e-007 1e-010 
body $-1 $1 $-1 $2 #
lump $-1 $-1 $3 $0 #
transform $-1 1 0 0 0 1 0 0 0 1 0 0 0 25.399999999999999 no_rotate no_reflect no_shear #
shell $-1 $-1 $-1 $4 $-1 $1 #
face $-1 $5 $6 $3 $-1 $7 reversed single #
face $-1 $8 $9 $3 $-1 $10 forward single #
loop $-1 $11 $12 $4 #
plane-surface $-1 -0.1875 0 0 1 0 0 0 0 -1 forward_v I I I I #
face $-1 $13 $14 $3 $-1 $15 forward single #
loop $-1 $-1 $16 $5 #
cone-surface $-1 -0.1875 0 0 1 0 0 0 0 -0.75 1 I I 0 1 0.75 forward I I I I #
loop $-1 $-1 $17 $4 #
coedge $-1 $18 $18 $19 $20 reversed $6 $-1 #
face $-1 $21 $22 $3 $-1 $23 forward single #
loop $-1 $-1 $24 $8 #
cone-surface $-1 0 0 -9.0999999999999996 0 0 1 0 -0.1875 0 1 I I 0 1 0.1875 forward I I I I #
coedge $-1 $25 $26 $24 $27 reversed $9 $-1 #
coedge $-1 $28 $28 $29 $30 reversed $11 $-1 #
coedge $-1 $12 $12 $31 $32 reversed $6 $-1 #
coedge $-1 $26 $33 $12 $20 forward $9 $-1 #
edge $-1 $34 0 $35 3.1415926535897931 $12 $36 forward 7 unknown #
face $-1 $37 $38 $3 $-1 $39 forward single #
loop $-1 $-1 $40 $13 #
cone-surface $-1 0 0 -9.0999999999999996 0 0 1 0 -0.1875 0 1 I I 0 1 0.1875 forward I I I I #
coedge $-1 $41 $42 $16 $27 forward $14 $-1 #
coedge $-1 $33 $16 $43 $44 reversed $9 $-1 #
coedge $-1 $16 $19 $45 $46 reversed $9 $-1 #
edge $-1 $47 0 $48 1 $16 $49 forward 7 unknown #
coedge $-1 $17 $17 $50 $51 reversed $11 $-1 #
coedge $-1 $52 $53 $17 $30 forward $54 $-1 #
edge $-1 $55 0 $56 3.1415926535897931 $17 $57 forward 7 unknown #
coedge $-1 $58 $59 $18 $32 forward $60 $-1 #
edge $-1 $35 0 $34 3.1415926535897931 $18 $61 forward 7 unknown #
coedge $-1 $19 $25 $58 $62 reversed $9 $-1 #
vertex $-1 $32 $63 #
vertex $-1 $32 $64 #
ellipse-curve $-1 -0.1875 0 0 1 0 0 0 0 0.75 1 I I #
face $-1 $65 $66 $3 $-1 $67 forward single #
loop $-1 $-1 $68 $21 #
cone-surface $-1 0 0 -4.0333333333333332 0 0 1 0 -0.44999999999999996 0 1 I I -0.41036467732879783 0.91192150517510639 0.44999999999999996 forward I I I I #
coedge $-1 $69 $70 $71 $72 forward $22 $-1 #
coedge $-1 $73 $24 $74 $75 forward $14 $-1 #
coedge $-1 $24 $71 $76 $77 forward $14 $-1 #
coedge $-1 $78 $78 $25 $44 forward $79 $-1 #
edge $-1 $80 0 $47 3.1415926535897931 $43 $81 forward 7 unknown #
coedge $-1 $70 $74 $26 $46 forward $22 $-1 #
edge $-1 $48 0 $35 1 $26 $82 forward 7 unknown #
vertex $-1 $83 $84 #
vertex $-1 $46 $85 #
intcurve-curve $-1 forward { surfintcur full nurbs 3 open 10 
	0 3 0.11083389598628407 1 0.22200451084911069 1 0.33330104592735843 1 0.44450475212120755 1 
	0.55549775501324583 1 0.66668610437182829 1 0.77797857371941681 1 0.88915446391426978 1 1 3 
	0.1875 -1.8369095307335659e-016 -0.75 1 
	0.18753407121616616 -0.010646564846058278 -0.74999867230384509 1 
	0.18571361320633809 -0.031841667138424713 -0.7495546438378724 1 
	0.17728832788624665 -0.064034984448959872 -0.74748565013236712 1 
	0.16318075460931358 -0.094338897099544017 -0.74423322454112462 1.0000000000000002 
	0.14408281236919893 -0.1214347861680601 -0.74024636409299271 1 
	0.12140816189867561 -0.1441013055422512 -0.73612805556706906 1 
	0.094368115461598956 -0.16316044744917521 -0.73210404820417019 1.0000000000000002 
	0.064081460385740474 -0.1772717891109768 -0.72877985737514772 1 
	0.031878128939083865 -0.18570917181455043 -0.72664535495679083 0.99999999999999989 
	0.010661400760021431 -0.18753292005457756 -0.72618736700225461 1 
	0 -0.18750000000000028 -0.72618437741389064 1 
	0.001 
	cone -0.1875 0 0 1 0 0 0 0 -0.75 1 I I 0 1 0.75 forward I I I I 
	cone 0 0 -9.0999999999999996 0 0 1 0 -0.1875 0 1 I I 0 1 0.1875 forward I I I I 
	nullbs 
	nullbs 
	I I 
	0 
	0 
	0 
	} I I #
coedge $-1 $86 $87 $28 $51 forward $88 $-1 #
edge $-1 $56 0 $55 3.1415926535897931 $28 $89 forward 7 unknown #
coedge $-1 $90 $29 $87 $91 forward $54 $-1 #
coedge $-1 $29 $90 $86 $92 reversed $54 $-1 #
loop $-1 $-1 $52 $93 #
vertex $-1 $51 $94 #
vertex $-1 $51 $95 #
ellipse-curve $-1 -0.1875 0 0 -1 0 0 0 0 -0.5 1 I I #
coedge $-1 $96 $31 $33 $62 forward $60 $-1 #
coedge $-1 $31 $76 $70 $97 reversed $60 $-1 #
loop $-1 $-1 $31 $98 #
ellipse-curve $-1 -0.1875 0 0 1 0 0 0 0 -0.75 1 I I #
edge $-1 $34 0 $80 0.375 $58 $99 forward 7 unknown #
point $-1 -0.1875 0 0.75 #
point $-1 -0.1875 0 -0.75 #
face $-1 $100 $101 $3 $-1 $102 reversed single #
loop $-1 $-1 $103 $37 #
cone-surface $-1 0 0 -9.0999999999999996 0 0 1 0 -0.29999999999999999 0 1 I I 0 1 0.29999999999999999 forward I I I I #
coedge $-1 $104 $105 $106 $107 forward $38 $-1 #
coedge $-1 $74 $40 $108 $109 forward $22 $-1 #
coedge $-1 $40 $45 $59 $97 forward $22 $-1 #
coedge $-1 $42 $73 $40 $72 reversed $14 $-1 #
edge $-1 $110 4.4408920985006262e-016 $111 2.7238156225861094 $40 $112 forward 7 unknown #
coedge $-1 $71 $41 $113 $114 reversed $14 $-1 #
coedge $-1 $45 $69 $41 $75 reversed $22 $-1 #
edge $-1 $48 3.3306690738754696e-016 $115 2.7238156225861094 $74 $116 forward 7 unknown #
coedge $-1 $59 $96 $42 $77 reversed $60 $-1 #
edge $-1 $110 0 $47 1 $76 $117 forward 7 unknown #
coedge $-1 $43 $43 $96 $83 forward $79 $-1 #
loop $-1 $-1 $43 $118 #
vertex $-1 $83 $119 #
ellipse-curve $-1 0.1875 0 0 1 0 0 0 0 0.75 1 I I #
intcurve-curve $-1 forward { surfintcur full nurbs 3 open 10 
	0 3 0.11085940036168479 1 0.22204687690921418 1 0.33333972707082804 1 0.44451930417949193 1 
	0.55551290092639605 1 0.66672474359581546 1 0.77802050375837883 1 0.88918103589196706 1 1 3 
	0 -0.18750000000000028 -0.72618437741389064 1 
	-0.010676493914432095 -0.18753254931337596 -0.72618751378210444 0.99999999999999989 
	-0.031918554883008189 -0.18570488333878121 -0.72664646069756655 1 
	-0.064157845839913755 -0.17724584836515173 -0.72878631740639799 1 
	-0.094438124055991474 -0.16311804940814342 -0.73211349228241018 1 
	-0.12144138542159892 -0.14407131426897443 -0.73613380074270618 1 
	-0.1441150407815274 -0.12139918895257484 -0.74025251008599824 1.0000000000000002 
	-0.16322264819567706 -0.094268872383847555 -0.7442424350692759 0.99999999999999989 
	-0.17731356235068929 -0.063961326932991169 -0.74749175729000461 1.0000000000000002 
	-0.18571876349031868 -0.031796441823485601 -0.74955592778995384 0.99999999999999978 
	-0.18753482536927282 -0.010629319381623465 -0.7499989028837708 1.0000000000000002 
	-0.1875 -1.8369095307335659e-016 -0.75 1 
	0.001 
	cone -0.1875 0 0 1 0 0 0 0 -0.75 1 I I 0 1 0.75 forward I I I I 
	cone 0 0 -9.0999999999999996 0 0 1 0 -0.1875 0 1 I I 0 1 0.1875 forward I I I I 
	nullbs 
	nullbs 
	I I 
	0 
	0 
	0 
	} I I #
edge $-1 $47 0 $80 3.1415926535897931 $78 $120 forward 7 unknown #
point $-1 0.1875 0 -0.75 #
point $-1 0 -0.18750000000000028 -0.72618437741389064 #
coedge $-1 $121 $50 $53 $92 forward $88 $-1 #
coedge $-1 $50 $121 $52 $91 reversed $88 $-1 #
loop $-1 $-1 $86 $122 #
ellipse-curve $-1 -0.1875 0 0 -1 0 0 0 0 0.5 1 I I #
coedge $-1 $53 $52 $123 $124 reversed $54 $-1 #
edge $-1 $56 0 $125 0.59999999999999998 $87 $126 forward 7 unknown #
edge $-1 $55 0 $127 0.59999999999999998 $86 $128 forward 7 unknown #
face $-1 $122 $54 $3 $-1 $129 forward single #
point $-1 -0.1875 0 -0.5 #
point $-1 -0.1875 0 0.5 #
coedge $-1 $76 $58 $78 $83 reversed $60 $-1 #
edge $-1 $35 0 $110 1 $59 $130 forward 7 unknown #
face $-1 $118 $60 $3 $-1 $131 forward single #
straight-curve $-1 -0.1875 9.1845476536678294e-017 0.75 1 0 0 I I #
face $-1 $132 $133 $3 $-1 $134 forward single #
loop $-1 $-1 $135 $65 #
plane-surface $-1 0 0 -8.6999999999999993 0 0 1 0 -1 0 forward_v I I I I #
coedge $-1 $136 $137 $135 $138 forward $66 $-1 #
coedge $-1 $108 $68 $139 $140 reversed $38 $-1 #
coedge $-1 $68 $108 $141 $142 forward $38 $-1 #
coedge $-1 $137 $136 $68 $107 reversed $66 $-1 #
edge $-1 $143 3.4238754566884197e-032 $144 3.1415926535897931 $68 $145 forward 7 unknown #
coedge $-1 $105 $104 $69 $109 reversed $38 $-1 #
edge $-1 $111 0 $115 3.1415926535897931 $69 $146 forward 7 unknown #
vertex $-1 $97 $147 #
vertex $-1 $109 $148 #
straight-curve $-1 -2.2961369134169574e-017 0.1875 -0.7261843774138903 0 0 -1 I I #
coedge $-1 $139 $141 $73 $114 forward $149 $-1 #
edge $-1 $111 0 $115 3.1415926535897931 $73 $150 forward 7 unknown #
vertex $-1 $75 $151 #
straight-curve $-1 4.5922738268339147e-017 -0.1875 -0.7261843774138903 0 0 -1 I I #
intcurve-curve $-1 forward { surfintcur full nurbs 3 open 10 
	0 3 0.11085981676458356 1 0.22204754812473074 1 0.33334048827720941 1 0.44451982318765815 1 
	0.55551334708477373 1 0.66672536767471025 1 0.77802109310189249 1 0.88918168049785884 1 1 3 
	2.3314683517128287e-015 0.18749999999999989 -0.72618437741389075 1 
	0.01067698576889293 0.18753252418391797 -0.72618752156981681 1 
	0.031919851591619093 0.18570472404037647 -0.72664650143973475 1.0000000000000004 
	0.064159749740169747 0.17724520297697274 -0.72878647848475897 0.99999999999999989 
	0.094440248308402697 0.16311679590025835 -0.73211377328793725 1 
	0.12144243334217812 0.14407034682117764 -0.73613398430021482 0.99999999999999989 
	0.14411581413371594 0.12139834103763862 -0.74025265805754137 1.0000000000000002 
	0.16322368454721017 0.094267076877354972 -0.74424266321440857 1 
	0.17731410531690284 0.063959898351902397 -0.74749188855676496 0.99999999999999978 
	0.18571909720154633 0.031794151941173784 -0.74955601038174979 1.0000000000000004 
	0.1875349312706083 0.010628371889805192 -0.74999893010808338 0.99999999999999989 
	0.1875 0 -0.75 1 
	0.001 
	cone -0.1875 0 0 1 0 0 0 0 -0.75 1 I I 0 1 0.75 forward I I I I 
	cone 0 0 -9.0999999999999996 0 0 1 0 -0.1875 0 1 I I 0 1 0.1875 forward I I I I 
	nullbs 
	nullbs 
	I I 
	0 
	0 
	0 
	} I I #
face $-1 $93 $79 $3 $-1 $152 forward single #
point $-1 0.1875 0 0.75 #
ellipse-curve $-1 0.1875 0 0 1 0 0 0 0 -0.75 1 I I #
coedge $-1 $87 $86 $153 $154 reversed $88 $-1 #
face $-1 $155 $88 $3 $-1 $156 forward single #
coedge $-1 $153 $153 $90 $124 forward $157 $-1 #
edge $-1 $127 0 $125 3.1415926535897931 $123 $158 forward 7 unknown #
vertex $-1 $154 $159 #
straight-curve $-1 -0.1875 0 0.5 -1 0 0 I I #
vertex $-1 $154 $160 #
straight-curve $-1 -0.1875 6.1230317691118863e-017 -0.5 -1 0 0 I I #
cone-surface $-1 -0.1875 0 0 -1 0 0 0 0 0.5 1 I I 0 1 0.5 forward I I I I #
intcurve-curve $-1 forward { surfintcur full nurbs 3 open 10 
	0 3 0.11083315577967216 1 0.22200385541052509 1 0.33330035944666475 1 0.44450419599412999 1 
	0.55549713446325699 1 0.66668521054714458 1 0.77797778525742778 1 0.88915397368201821 1 1 3 
	-0.1875 0 -0.75 1 
	-0.18753419620383713 0.010645468028301986 -0.74999870436693494 1 
	-0.18571399722474294 0.03183902959875453 -0.74955473905636527 1 
	-0.17728894414775062 0.06403339865336008 -0.74748579849583185 1 
	-0.16318185451062822 0.09433696832215463 -0.74423346757334563 1 
	-0.14408382952137191 0.12143364701118316 -0.74024655984767473 1.0000000000000002 
	-0.12140940301801897 0.14410017524905752 -0.73612827167980543 0.99999999999999978 
	-0.094370609610955017 0.16315897402883714 -0.73210437811460827 1 
	-0.064083696912279553 0.17727103248657286 -0.72878004638036287 0.99999999999999978 
	-0.031879656518919948 0.18570898401039654 -0.72664540294616753 1 
	-0.010661980537185135 0.18753289025977363 -0.72618737621550822 1 
	2.3314683517128287e-015 0.18749999999999989 -0.72618437741389075 1 
	0.001 
	cone -0.1875 0 0 1 0 0 0 0 -0.75 1 I I 0 1 0.75 forward I I I I 
	cone 0 0 -9.0999999999999996 0 0 1 0 -0.1875 0 1 I I 0 1 0.1875 forward I I I I 
	nullbs 
	nullbs 
	I I 
	0 
	0 
	0 
	} I I #
cone-surface $-1 -0.1875 0 0 1 0 0 0 0 -0.75 1 I I 0 1 0.75 forward I I I I #
face $-1 $98 $149 $3 $-1 $161 forward single #
loop $-1 $-1 $162 $100 #
cone-surface $-1 0 0 -9.0999999999999996 0 0 1 0 -0.29999999999999999 0 1 I I 0 1 0.29999999999999999 forward I I I I #
coedge $-1 $163 $163 $103 $138 reversed $101 $-1 #
coedge $-1 $106 $103 $164 $165 reversed $66 $-1 #
coedge $-1 $103 $106 $166 $167 forward $66 $-1 #
edge $-1 $168 1.2246063538223773e-016 $169 3.1415926535897931 $103 $170 forward 7 unknown #
coedge $-1 $171 $113 $104 $140 forward $149 $-1 #
edge $-1 $115 -4.6155584115990985e-033 $144 0.27414640249326677 $104 $172 forward 7 unknown #
coedge $-1 $113 $171 $105 $142 reversed $149 $-1 #
edge $-1 $111 0 $143 0.27414640249326633 $105 $173 forward 7 unknown #
vertex $-1 $142 $174 #
vertex $-1 $140 $175 #
ellipse-curve $-1 2.7755575615628914e-017 0 -3.7000000000000002 0 0 1 -6.4493766230300221e-017 0.29999999999999999 0 1 I I #
ellipse-curve $-1 -6.9388939039072284e-018 0 -3.4499999999999997 0 0 1 -1.6022475230262345e-017 0.1875 0 1 I I #
point $-1 2.3314683517128287e-015 0.18749999999999989 -0.72618437741389075 #
point $-1 -2.2961369134169574e-017 0.1875 -3.4499999999999997 #
loop $-1 $-1 $113 $132 #
ellipse-curve $-1 6.9388939039072284e-018 -6.9388939039072284e-018 -3.4499999999999997 0 0 -1 -2.9900263038076802e-017 0.1875 0 1 I I #
point $-1 0 -0.1875 -3.4499999999999997 #
plane-surface $-1 0.1875 0 0 1 0 0 0 0 -1 forward_v I I I I #
coedge $-1 $123 $123 $121 $154 forward $157 $-1 #
edge $-1 $125 0 $127 3.1415926535897931 $153 $176 forward 7 unknown #
face $-1 $-1 $157 $3 $-1 $177 forward single #
cone-surface $-1 -0.1875 0 0 -1 0 0 0 0 0.5 1 I I 0 1 0.5 forward I I I I #
loop $-1 $-1 $123 $155 #
ellipse-curve $-1 -0.78749999999999998 0 0 -1 0 0 0 0 -0.5 1 I I #
point $-1 -0.78749999999999998 0 0.5 #
point $-1 -0.78749999999999998 0 -0.5 #
cone-surface $-1 0 0 -4.0333333333333332 0 0 1 0 -0.44999999999999996 0 1 I I -0.41036467732879783 0.91192150517510639 0.44999999999999996 forward I I I I #
coedge $-1 $164 $166 $171 $178 forward $133 $-1 #
coedge $-1 $135 $135 $179 $180 forward $101 $-1 #
coedge $-1 $179 $162 $136 $165 forward $133 $-1 #
edge $-1 $144 0 $169 4.9999999999999991 $136 $181 forward 7 unknown #
coedge $-1 $162 $179 $137 $167 reversed $133 $-1 #
edge $-1 $143 -4.4408920985006262e-016 $168 4.9999999999999991 $137 $182 forward 7 unknown #
vertex $-1 $167 $183 #
vertex $-1 $165 $184 #
ellipse-curve $-1 0 0 -8.6999999999999993 0 0 1 0 0.29999999999999999 0 1 I I #
coedge $-1 $141 $139 $162 $178 reversed $149 $-1 #
straight-curve $-1 4.5922738268339147e-017 -0.1875 -3.4499999999999997 1.0050703824822304e-016 -0.41036467732879767 -0.91192150517510651 I I #
straight-curve $-1 -2.2961369134169574e-017 0.1875 -3.4499999999999997 -5.025351912411152e-017 0.41036467732879767 -0.91192150517510651 I I #
point $-1 -3.6738190614671308e-017 0.29999999999999993 -3.6999999999999997 #
point $-1 7.3476381229342628e-017 -0.29999999999999999 -3.7000000000000002 #
ellipse-curve $-1 -0.78749999999999998 0 0 -1 0 0 0 0 0.5 1 I I #
plane-surface $-1 -0.78749999999999998 0 0 -1 0 0 0 0 1 forward_v I I I I #
edge $-1 $143 -3.4238754566884197e-032 $144 3.1415926535897931 $171 $185 forward 7 unknown #
coedge $-1 $166 $164 $163 $180 reversed $133 $-1 #
edge $-1 $168 -1.2246063538223773e-016 $169 3.1415926535897931 $163 $186 forward 7 unknown #
straight-curve $-1 7.3476381229342628e-017 -0.29999999999999999 -3.7000000000000002 0 0 -1 I I #
straight-curve $-1 -3.6738190614671314e-017 0.29999999999999999 -3.7000000000000002 0 0 -1 I I #
point $-1 -3.6738190614671314e-017 0.29999999999999999 -8.6999999999999993 #
point $-1 0 -0.29999999999999999 -8.6999999999999993 #
ellipse-curve $-1 1.3877787807814457e-017 0 -3.7000000000000002 0 0 -1 -5.0615978422485771e-017 0.29999999999999999 0 1 I I #
ellipse-curve $-1 0 0 -8.6999999999999993 0 0 -1 0 0.29999999999999999 0 1 I I #
End-of-ACIS-data 