700 0 2 0           
24 FBMach with ACIS - 7.0.3 13 ACIS 7.0.3 NT 24 Wed May 15 14:36:36 2002 
1 9.9999999999999995e-007 1e-010 
body $2 -1 $-1 $3 $-1 $4 #
bdycol-kcp $-1 -1 1 2 $5 $6 #
model_id-kcp-attrib $-1 -1 $-1 $-1 $0 1 1021487796 1021487796 1975844865 1 #
lump $-1 -1 $-1 $-1 $7 $0 #
transform $-1 -1 1 0 0 0 1 0 0 0 1 0 0 0 1 rotate no_reflect no_shear #
body $8 -1 $-1 $9 $-1 $10 #
body $11 -1 $-1 $12 $-1 $13 #
shell $-1 -1 $-1 $-1 $-1 $14 $-1 $3 #
rgb_color-st-attrib $-1 -1 $15 $-1 $5 1 0.5 1 #
lump $-1 -1 $-1 $-1 $16 $5 #
transform $-1 -1 1 0 0 0 1 0 0 0 1 -6.1912499999999993 0 -100.96499999999997 1 no_rotate no_reflect no_shear #
model_id-kcp-attrib $-1 -1 $-1 $-1 $6 1 1021487796 1021487796 1975844866 1 #
lump $-1 -1 $-1 $-1 $17 $6 #
transform $-1 -1 1 0 0 0 1 0 0 0 1 -6.1912499999999993 0 -100.96499999999997 1 no_rotate no_reflect no_shear #
face $18 -1 $-1 $19 $20 $7 $-1 $21 reversed single #
model_id-kcp-attrib $-1 -1 $-1 $8 $5 1 1021487796 1021487796 1969881091 1 #
shell $-1 -1 $-1 $-1 $-1 $22 $-1 $9 #
shell $-1 -1 $-1 $-1 $-1 $23 $-1 $12 #
model_id-kcp-attrib $-1 -1 $-1 $-1 $14 1 1021487796 1021487796 1975844865 2 #
face $24 -1 $-1 $25 $26 $7 $-1 $27 forward single #
loop $-1 -1 $-1 $28 $29 $14 #
plane-surface $-1 -1 $-1 -4.7624999999999993 0 0 1 0 0 0 0 -25.399999999999999 forward_v I I I I #
face $-1 -1 $-1 $30 $31 $16 $-1 $32 forward single #
face $-1 -1 $-1 $33 $34 $17 $-1 $35 forward single #
model_id-kcp-attrib $-1 -1 $-1 $-1 $19 1 1021487796 1021487796 1975844865 3 #
face $36 -1 $-1 $37 $38 $7 $-1 $39 forward single #
loop $-1 -1 $-1 $-1 $40 $19 #
cone-surface $-1 -1 $-1 -4.7624999999999993 0 0 1 0 0 0 0 -19.049999999999997 1 I I 0 1 19.049999999999997 forward I I I I #
loop $-1 -1 $-1 $-1 $41 $14 #
coedge $-1 -1 $-1 $42 $42 $43 $44 reversed $20 $-1 #
face $-1 -1 $-1 $45 $46 $16 $-1 $47 forward single #
loop $-1 -1 $-1 $-1 $48 $22 #
plane-surface $-1 -1 $-1 1.4287500000000106 5.9483605934744821 -120.01499999999997 0 0 -1 -1 0 0 forward_v I I I I #
face $49 -1 $-1 $50 $51 $17 $-1 $52 reversed single #
loop $-1 -1 $-1 $-1 $53 $23 #
plane-surface $-1 -1 $-1 0 0 120.01499999999999 0 0 1 1 0 0 forward_v I I I I #
model_id-kcp-attrib $-1 -1 $-1 $-1 $25 1 1021487796 1021487796 1975844865 4 #
face $54 -1 $-1 $55 $56 $7 $-1 $57 forward single #
loop $-1 -1 $-1 $-1 $58 $25 #
cone-surface $-1 -1 $-1 0 0 -231.13999999999999 0 0 1 0 -4.7624999999999993 0 1 I I 0 1 4.7624999999999993 forward I I I I #
coedge $-1 -1 $-1 $59 $60 $58 $61 reversed $26 $-1 #
coedge $-1 -1 $-1 $62 $62 $63 $64 reversed $28 $-1 #
coedge $-1 -1 $-1 $29 $29 $65 $66 reversed $20 $-1 #
coedge $-1 -1 $-1 $60 $67 $29 $44 forward $26 $-1 #
edge $68 -1 $-1 $69 0 $70 3.1415926535897931 $29 $71 forward @7 unknown #
face $-1 -1 $-1 $72 $73 $16 $-1 $74 forward single #
loop $-1 -1 $-1 $-1 $75 $30 #
plane-surface $-1 -1 $-1 1.428750000000008 19.049999999999997 -120.01499999999997 0 1 0 0 0 1 forward_v I I I I #
coedge $-1 -1 $-1 $76 $77 $78 $79 forward $31 $-1 #
model_id-kcp-attrib $-1 -1 $-1 $-1 $33 1 1021487796 1021487796 1975844866 2 #
face $-1 -1 $-1 $80 $81 $17 $-1 $82 reversed single #
loop $-1 -1 $-1 $-1 $83 $33 #
plane-surface $-1 -1 $-1 0 0 -120.01499999999999 0 0 1 1 0 0 forward_v I I I I #
coedge $-1 -1 $-1 $84 $85 $86 $87 forward $34 $-1 #
model_id-kcp-attrib $-1 -1 $-1 $-1 $37 1 1021487796 1021487796 1975844865 5 #
face $88 -1 $-1 $89 $90 $7 $-1 $91 forward single #
loop $-1 -1 $-1 $-1 $92 $37 #
cone-surface $-1 -1 $-1 0 0 -231.13999999999999 0 0 1 0 -4.7624999999999993 0 1 I I 0 1 4.7624999999999993 forward I I I I #
coedge $-1 -1 $-1 $93 $94 $40 $61 forward $38 $-1 #
coedge $-1 -1 $-1 $67 $40 $95 $96 reversed $26 $-1 #
coedge $-1 -1 $-1 $40 $43 $97 $98 reversed $26 $-1 #
edge $-1 -1 $-1 $99 0 $100 1 $40 $101 forward @7 unknown #
coedge $-1 -1 $-1 $41 $41 $102 $103 reversed $28 $-1 #
coedge $-1 -1 $-1 $104 $105 $41 $64 forward $106 $-1 #
edge $107 -1 $-1 $108 0 $109 3.1415926535897931 $41 $110 forward @7 unknown #
coedge $-1 -1 $-1 $111 $112 $42 $66 forward $113 $-1 #
edge $114 -1 $-1 $70 0 $69 3.1415926535897931 $42 $115 forward @7 unknown #
coedge $-1 -1 $-1 $43 $59 $111 $116 reversed $26 $-1 #
attrib_edge_convexity-kcp-attrib $-1 -1 $117 $-1 $44 1 #
vertex $-1 -1 $-1 $66 $118 #
vertex $-1 -1 $-1 $66 $119 #
ellipse-curve $-1 -1 $-1 -4.7624999999999993 0 0 1 0 0 0 0 19.049999999999997 1 I I #
face $-1 -1 $-1 $120 $121 $16 $-1 $122 forward single #
loop $-1 -1 $-1 $-1 $123 $45 #
plane-surface $-1 -1 $-1 1.428750000000008 19.049999999999997 120.01499999999999 0 0 1 1 0 0 forward_v I I I I #
coedge $-1 -1 $-1 $124 $125 $126 $127 forward $46 $-1 #
coedge $-1 -1 $-1 $128 $48 $125 $129 reversed $31 $-1 #
coedge $-1 -1 $-1 $48 $128 $130 $131 forward $31 $-1 #
coedge $-1 -1 $-1 $132 $126 $48 $79 reversed $133 $-1 #
edge $-1 -1 $-1 $134 5.9483605934744821 $135 19.049999999999997 $48 $136 forward @7 unknown #
face $137 -1 $-1 $138 $139 $17 $-1 $140 reversed single #
loop $-1 -1 $-1 $-1 $141 $50 #
plane-surface $-1 -1 $-1 0 -19.049999999999997 0 0 1 0 0 0 1 forward_v I I I I #
coedge $-1 -1 $-1 $142 $143 $144 $145 forward $51 $-1 #
coedge $-1 -1 $-1 $146 $53 $147 $148 forward $34 $-1 #
coedge $-1 -1 $-1 $53 $146 $149 $150 forward $34 $-1 #
coedge $-1 -1 $-1 $151 $152 $53 $87 reversed $153 $-1 #
edge $-1 -1 $-1 $154 -19.049999999999997 $155 19.049999999999997 $86 $156 forward @7 unknown #
model_id-kcp-attrib $-1 -1 $-1 $-1 $55 1 1021487796 1021487796 1975844865 6 #
face $157 -1 $-1 $158 $159 $7 $-1 $160 forward single #
loop $-1 -1 $-1 $-1 $161 $55 #
cone-surface $-1 -1 $-1 0 0 -102.44666666666666 0 0 1 0 -11.429999999999998 0 1 I I -0.41036467732879783 0.91192150517510639 11.429999999999998 forward I I I I #
coedge $-1 -1 $-1 $162 $163 $164 $165 forward $56 $-1 #
coedge $-1 -1 $-1 $166 $58 $167 $168 forward $38 $-1 #
coedge $-1 -1 $-1 $58 $164 $169 $170 forward $38 $-1 #
coedge $-1 -1 $-1 $171 $171 $59 $96 forward $172 $-1 #
edge $-1 -1 $-1 $173 0 $99 3.1415926535897931 $95 $174 forward @7 unknown #
coedge $-1 -1 $-1 $163 $167 $60 $98 forward $56 $-1 #
edge $-1 -1 $-1 $100 0 $70 1 $60 $175 forward @7 unknown #
vertex $-1 -1 $-1 $176 $177 #
vertex $-1 -1 $-1 $98 $178 #
intcurve-curve $-1 -1 $-1 forward { surfintcur full nurbs 3 open 10 
	0 3 0.11083389598628407 1 0.22200451084911069 1 0.33330104592735843 1 0.44450475212120755 1 
	0.55549775501324583 1 0.66668610437182829 1 0.77797857371941681 1 0.88915446391426978 1 1 3 
	4.7624999999999993 -4.665750208063257e-015 -19.049999999999997 1 
	4.7633654088906203 -0.27042274708988023 -19.049966276517665 1 
	4.7171257754409872 -0.80877834531598769 -19.038687953481958 1 
	4.503123528310665 -1.6264886050035807 -18.986135513362125 1 
	4.1447911670765647 -2.396207986328418 -18.903523903344563 1.0000000000000002 
	3.6597034341776524 -3.0844435686687262 -18.802257647962016 1 
	3.0837673122263602 -3.6601731607731804 -18.697652611403552 1 
	2.3969501327246134 -4.14427536520905 -18.595442824385923 1.0000000000000002 
	1.627669093797808 -4.5027034434188105 -18.51100837732875 1 
	0.80970447505273013 -4.717012964089581 -18.456792015902487 0.99999999999999989 
	0.27079957930454435 -4.7633361693862692 -18.445159121857266 1 
	0 -4.7625000000000064 -18.445083186312822 1 
	0.025399999999999999 
	cone -4.7624999999999993 0 0 1 0 0 0 0 -19.049999999999997 1 I I 0 1 19.049999999999997 forward I I I I 
	cone 0 0 -231.13999999999999 0 0 1 0 -4.7624999999999993 0 1 I I 0 1 4.7624999999999993 forward I I I I 
	nullbs 
	nullbs 
	I I 
	0 
	0 
	0 
	} I I #
coedge $-1 -1 $-1 $179 $180 $62 $103 forward $181 $-1 #
edge $182 -1 $-1 $109 0 $108 3.1415926535897931 $62 $183 forward @7 unknown #
coedge $-1 -1 $-1 $184 $63 $180 $185 forward $106 $-1 #
coedge $-1 -1 $-1 $63 $184 $179 $186 reversed $106 $-1 #
loop $-1 -1 $-1 $-1 $104 $187 #
attrib_edge_convexity-kcp-attrib $-1 -1 $188 $-1 $64 2 #
vertex $-1 -1 $-1 $103 $189 #
vertex $-1 -1 $-1 $103 $190 #
ellipse-curve $-1 -1 $-1 -4.7624999999999993 0 0 -1 0 0 0 0 -12.699999999999999 1 I I #
coedge $-1 -1 $-1 $191 $65 $67 $116 forward $113 $-1 #
coedge $-1 -1 $-1 $65 $169 $163 $192 reversed $113 $-1 #
loop $-1 -1 $-1 $-1 $65 $193 #
attrib_edge_convexity-kcp-attrib $-1 -1 $194 $-1 $66 1 #
ellipse-curve $-1 -1 $-1 -4.7624999999999993 0 0 1 0 0 0 0 -19.049999999999997 1 I I #
edge $-1 -1 $-1 $69 0 $173 0.37499999999999994 $111 $195 forward @7 unknown #
convexity-sys-attrib $-1 -1 $-1 $68 $44 #
point $-1 -1 $-1 -4.7624999999999993 0 19.049999999999997 #
point $-1 -1 $-1 -4.7624999999999993 0 -19.049999999999997 #
face $-1 -1 $-1 $196 $197 $16 $-1 $198 forward single #
loop $-1 -1 $-1 $-1 $199 $72 #
plane-surface $-1 -1 $-1 1.428750000000008 -19.049999999999997 120.01499999999999 0 -1 0 0 0 -1 forward_v I I I I #
coedge $-1 -1 $-1 $200 $201 $202 $203 forward $73 $-1 #
coedge $-1 -1 $-1 $204 $75 $201 $205 reversed $46 $-1 #
coedge $-1 -1 $-1 $75 $204 $76 $129 forward $46 $-1 #
coedge $-1 -1 $-1 $78 $202 $75 $127 reversed $133 $-1 #
edge $-1 -1 $-1 $135 -170.49749999999995 $206 69.532499999999999 $75 $207 forward @7 unknown #
coedge $-1 -1 $-1 $77 $76 $208 $209 reversed $31 $-1 #
edge $-1 -1 $-1 $210 0 $135 15.239999999999998 $125 $211 forward @7 unknown #
coedge $-1 -1 $-1 $212 $213 $77 $131 reversed $214 $-1 #
edge $-1 -1 $-1 $215 0 $134 15.239999999999998 $77 $216 forward @7 unknown #
coedge $-1 -1 $-1 $217 $78 $213 $218 reversed $133 $-1 #
loop $-1 -1 $-1 $-1 $78 $219 #
vertex $-1 -1 $-1 $131 $220 #
vertex $-1 -1 $-1 $129 $221 #
straight-curve $-1 -1 $-1 -13.81124999999999 0 -120.01499999999999 0 1 0 I I #
model_id-kcp-attrib $-1 -1 $-1 $-1 $80 1 1021487796 1021487796 1975844866 3 #
face $-1 -1 $-1 $222 $223 $17 $-1 $224 reversed single #
loop $-1 -1 $-1 $-1 $225 $80 #
plane-surface $-1 -1 $-1 -13.811249999999998 0 0 1 0 0 0 0 -1 forward_v I I I I #
coedge $-1 -1 $-1 $226 $149 $227 $228 forward $81 $-1 #
coedge $-1 -1 $-1 $229 $83 $226 $230 forward $51 $-1 #
coedge $-1 -1 $-1 $83 $229 $231 $232 forward $51 $-1 #
coedge $-1 -1 $-1 $152 $151 $83 $145 reversed $153 $-1 #
edge $-1 -1 $-1 $233 -19.049999999999997 $234 19.049999999999997 $144 $235 forward @7 unknown #
coedge $-1 -1 $-1 $85 $84 $236 $237 forward $34 $-1 #
coedge $-1 -1 $-1 $238 $239 $84 $148 reversed $223 $-1 #
edge $-1 -1 $-1 $155 -13.811249999999998 $240 13.811249999999998 $147 $241 forward @7 unknown #
coedge $-1 -1 $-1 $141 $242 $85 $150 reversed $81 $-1 #
edge $-1 -1 $-1 $243 -13.811249999999998 $154 13.811249999999998 $149 $244 forward @7 unknown #
coedge $-1 -1 $-1 $144 $86 $242 $245 forward $153 $-1 #
coedge $-1 -1 $-1 $86 $144 $238 $246 reversed $153 $-1 #
loop $-1 -1 $-1 $-1 $151 $222 #
vertex $-1 -1 $-1 $87 $247 #
vertex $-1 -1 $-1 $87 $248 #
straight-curve $-1 -1 $-1 13.811249999999998 0 120.01499999999999 0 1 0 I I #
model_id-kcp-attrib $-1 -1 $-1 $-1 $89 1 1021487796 1021487796 1975844865 7 #
face $249 -1 $-1 $250 $251 $7 $-1 $252 reversed single #
loop $-1 -1 $-1 $-1 $253 $89 #
cone-surface $-1 -1 $-1 0 0 -231.13999999999999 0 0 1 0 -7.6199999999999992 0 1 I I 0 1 7.6199999999999992 forward I I I I #
coedge $-1 -1 $-1 $254 $255 $256 $257 forward $90 $-1 #
coedge $-1 -1 $-1 $167 $92 $258 $259 forward $56 $-1 #
coedge $-1 -1 $-1 $92 $97 $112 $192 forward $56 $-1 #
coedge $-1 -1 $-1 $94 $166 $92 $165 reversed $38 $-1 #
edge $-1 -1 $-1 $260 4.1961185182683086e-016 $261 2.723815622586109 $92 $262 forward @7 unknown #
coedge $-1 -1 $-1 $164 $93 $263 $264 reversed $38 $-1 #
coedge $-1 -1 $-1 $97 $162 $93 $168 reversed $56 $-1 #
edge $-1 -1 $-1 $100 2.7974123455122054e-016 $265 2.723815622586109 $167 $266 forward @7 unknown #
coedge $-1 -1 $-1 $112 $191 $94 $170 reversed $113 $-1 #
edge $-1 -1 $-1 $260 0 $99 1 $169 $267 forward @7 unknown #
coedge $-1 -1 $-1 $95 $95 $191 $176 forward $172 $-1 #
loop $-1 -1 $-1 $-1 $95 $268 #
vertex $-1 -1 $-1 $176 $269 #
ellipse-curve $-1 -1 $-1 4.7624999999999993 0 0 1 0 0 0 0 19.049999999999997 1 I I #
intcurve-curve $-1 -1 $-1 forward { surfintcur full nurbs 3 open 10 
	0 3 0.11085940036168479 1 0.22204687690921418 1 0.33333972707082804 1 0.44451930417949193 1 
	0.55551290092639605 1 0.66672474359581546 1 0.77802050375837883 1 0.88918103589196706 1 1 3 
	0 -4.7625000000000064 -18.445083186312822 1 
	-0.27118294542657517 -4.7633267525597489 -18.445162850065451 0.99999999999999989 
	-0.81073129402840793 -4.7169040368050421 -18.45682010171819 1 
	-1.6296092843338092 -4.5020445484748537 -18.511172462122509 1 
	-2.3987283510221835 -4.1431984549668428 -18.595682703973218 1 
	-3.0846111897086126 -3.6594113824319505 -18.697798538864735 1 
	-3.6605220358507955 -3.0835393993954008 -18.802413756184354 1.0000000000000002 
	-4.1458552641701969 -2.3944293585497278 -18.903757850759607 0.99999999999999989 
	-4.5037644837075081 -1.6246177040979757 -18.986290635166117 1.0000000000000002 
	-4.7172565926540946 -0.80762962231653423 -19.038720565864825 0.99999999999999978 
	-4.7633845643795292 -0.26998471229323601 -19.049972133247778 1.0000000000000002 
	-4.7624999999999993 -4.665750208063257e-015 -19.049999999999997 1 
	0.025399999999999999 
	cone -4.7624999999999993 0 0 1 0 0 0 0 -19.049999999999997 1 I I 0 1 19.049999999999997 forward I I I I 
	cone 0 0 -231.13999999999999 0 0 1 0 -4.7624999999999993 0 1 I I 0 1 4.7624999999999993 forward I I I I 
	nullbs 
	nullbs 
	I I 
	0 
	0 
	0 
	} I I #
edge $-1 -1 $-1 $99 0 $173 3.1415926535897931 $171 $270 forward @7 unknown #
point $-1 -1 $-1 4.7624999999999993 0 -19.049999999999997 #
point $-1 -1 $-1 0 -4.7625000000000064 -18.445083186312822 #
coedge $-1 -1 $-1 $271 $102 $105 $186 forward $181 $-1 #
coedge $-1 -1 $-1 $102 $271 $104 $185 reversed $181 $-1 #
loop $-1 -1 $-1 $-1 $179 $272 #
attrib_edge_convexity-kcp-attrib $-1 -1 $273 $-1 $103 2 #
ellipse-curve $-1 -1 $-1 -4.7624999999999993 0 0 -1 0 0 0 0 12.699999999999999 1 I I #
coedge $-1 -1 $-1 $105 $104 $274 $275 reversed $106 $-1 #
edge $-1 -1 $-1 $109 0 $276 0.59999999999999998 $180 $277 forward @7 unknown #
edge $-1 -1 $-1 $108 0 $278 0.59999999999999998 $179 $279 forward @7 unknown #
face $280 -1 $-1 $272 $106 $7 $-1 $281 forward single #
convexity-sys-attrib $-1 -1 $-1 $107 $64 #
point $-1 -1 $-1 -4.7624999999999993 0 -12.699999999999999 #
point $-1 -1 $-1 -4.7624999999999993 0 12.699999999999999 #
coedge $-1 -1 $-1 $169 $111 $171 $176 reversed $113 $-1 #
edge $-1 -1 $-1 $70 0 $260 1 $112 $282 forward @7 unknown #
face $283 -1 $-1 $268 $113 $7 $-1 $284 forward single #
convexity-sys-attrib $-1 -1 $-1 $114 $66 #
straight-curve $-1 -1 $-1 -4.7624999999999993 2.3328751040316285e-015 19.049999999999997 25.399999999999999 0 0 I I #
face $-1 -1 $-1 $285 $286 $16 $-1 $287 forward single #
loop $-1 -1 $-1 $-1 $288 $120 #
plane-surface $-1 -1 $-1 1.428750000000008 -19.049999999999997 -120.01499999999997 0 0 -1 -1 0 0 forward_v I I I I #
coedge $-1 -1 $-1 $289 $290 $291 $292 forward $121 $-1 #
coedge $-1 -1 $-1 $293 $123 $290 $294 reversed $73 $-1 #
coedge $-1 -1 $-1 $123 $293 $124 $205 forward $73 $-1 #
coedge $-1 -1 $-1 $126 $291 $123 $203 reversed $133 $-1 #
edge $-1 -1 $-1 $206 -19.049999999999997 $295 19.049999999999997 $123 $296 forward @7 unknown #
coedge $-1 -1 $-1 $125 $124 $297 $298 reversed $46 $-1 #
edge $-1 -1 $-1 $299 0 $206 15.239999999999998 $201 $300 forward @7 unknown #
vertex $-1 -1 $-1 $205 $301 #
straight-curve $-1 -1 $-1 -13.81124999999999 19.049999999999997 50.482499999999987 0 0 1 I I #
coedge $-1 -1 $-1 $297 $302 $128 $209 forward $303 $-1 #
edge $304 -1 $-1 $215 5.9483605934744821 $210 19.049999999999997 $128 $305 forward @7 unknown #
vertex $-1 -1 $-1 $209 $306 #
straight-curve $-1 -1 $-1 1.428750000000008 19.049999999999997 -120.01499999999997 -1 0 0 I I #
coedge $-1 -1 $-1 $307 $130 $302 $308 reversed $214 $-1 #
coedge $-1 -1 $-1 $130 $307 $132 $218 forward $214 $-1 #
loop $-1 -1 $-1 $-1 $213 $309 #
vertex $-1 -1 $-1 $308 $310 #
straight-curve $-1 -1 $-1 1.4287500000000106 5.9483605934744821 -120.01499999999997 -1 0 0 I I #
coedge $-1 -1 $-1 $311 $132 $312 $313 reversed $133 $-1 #
edge $-1 -1 $-1 $314 -137.15999999999997 $134 -10.160000000000039 $213 $315 forward @7 unknown #
face $-1 -1 $-1 $316 $317 $16 $-1 $318 reversed single #
point $-1 -1 $-1 -13.811249999999987 5.9483605934744821 -120.01499999999997 #
point $-1 -1 $-1 -13.81124999999999 19.049999999999997 -120.01499999999997 #
face $-1 -1 $-1 $-1 $153 $17 $-1 $319 reversed single #
loop $-1 -1 $-1 $-1 $238 $138 #
plane-surface $-1 -1 $-1 0 19.049999999999997 0 0 -1 0 0 0 -1 forward_v I I I I #
coedge $-1 -1 $-1 $320 $236 $239 $321 forward $139 $-1 #
coedge $-1 -1 $-1 $242 $141 $142 $230 reversed $81 $-1 #
coedge $-1 -1 $-1 $236 $320 $141 $228 reversed $139 $-1 #
edge $-1 -1 $-1 $243 -120.01499999999999 $322 120.01499999999999 $227 $323 forward @7 unknown #
coedge $-1 -1 $-1 $143 $142 $320 $324 forward $51 $-1 #
edge $-1 -1 $-1 $234 -13.811249999999998 $322 13.811249999999998 $226 $325 forward @7 unknown #
coedge $-1 -1 $-1 $239 $238 $143 $232 reversed $223 $-1 #
edge $-1 -1 $-1 $326 -13.811249999999998 $233 13.811249999999998 $231 $327 forward @7 unknown #
vertex $-1 -1 $-1 $145 $328 #
vertex $-1 -1 $-1 $245 $329 #
straight-curve $-1 -1 $-1 13.811249999999998 0 -120.01499999999999 0 -1 0 I I #
coedge $-1 -1 $-1 $225 $227 $146 $237 reversed $139 $-1 #
edge $-1 -1 $-1 $240 -19.049999999999997 $243 19.049999999999997 $236 $330 forward @7 unknown #
coedge $-1 -1 $-1 $231 $147 $152 $246 forward $223 $-1 #
coedge $-1 -1 $-1 $147 $231 $225 $321 reversed $223 $-1 #
vertex $-1 -1 $-1 $148 $331 #
straight-curve $-1 -1 $-1 0 19.049999999999997 120.01499999999999 -1 0 0 I I #
coedge $-1 -1 $-1 $149 $226 $151 $245 reversed $81 $-1 #
vertex $-1 -1 $-1 $237 $332 #
straight-curve $-1 -1 $-1 0 -19.049999999999997 120.01499999999999 1 0 0 I I #
edge $-1 -1 $-1 $154 -120.01499999999999 $234 120.01499999999999 $151 $333 forward @7 unknown #
edge $-1 -1 $-1 $155 -120.01499999999999 $233 120.01499999999999 $152 $334 forward @7 unknown #
point $-1 -1 $-1 13.811249999999998 -19.049999999999997 120.01499999999999 #
point $-1 -1 $-1 13.811249999999998 19.049999999999997 120.01499999999999 #
model_id-kcp-attrib $-1 -1 $-1 $-1 $158 1 1021487796 1021487796 1975844865 8 #
face $335 -1 $-1 $336 $337 $7 $-1 $338 forward single #
loop $-1 -1 $-1 $-1 $339 $158 #
plane-surface $-1 -1 $-1 0 0 -220.97999999999996 0 0 1 0 -25.399999999999999 0 forward_v I I I I #
coedge $-1 -1 $-1 $340 $341 $339 $342 forward $159 $-1 #
coedge $-1 -1 $-1 $258 $161 $343 $344 reversed $90 $-1 #
coedge $-1 -1 $-1 $161 $258 $345 $346 forward $90 $-1 #
coedge $-1 -1 $-1 $341 $340 $161 $257 reversed $159 $-1 #
edge $-1 -1 $-1 $347 5.434385993627848e-032 $348 3.1415926535897931 $161 $349 forward @7 unknown #
coedge $-1 -1 $-1 $255 $254 $162 $259 reversed $90 $-1 #
edge $-1 -1 $-1 $261 0 $265 3.1415926535897931 $162 $350 forward @7 unknown #
vertex $-1 -1 $-1 $192 $351 #
vertex $-1 -1 $-1 $259 $352 #
straight-curve $-1 -1 $-1 -5.8321877600790713e-016 4.7624999999999993 -18.445083186312814 0 0 -25.399999999999999 I I #
coedge $-1 -1 $-1 $343 $345 $166 $264 forward $353 $-1 #
edge $-1 -1 $-1 $261 0 $265 3.1415926535897931 $166 $354 forward @7 unknown #
vertex $-1 -1 $-1 $168 $355 #
straight-curve $-1 -1 $-1 1.1664375520158143e-015 -4.7624999999999993 -18.445083186312814 0 0 -25.399999999999999 I I #
intcurve-curve $-1 -1 $-1 forward { surfintcur full nurbs 3 open 10 
	0 3 0.11085981676458356 1 0.22204754812473074 1 0.33334048827720941 1 0.44451982318765815 1 
	0.55551334708477373 1 0.66672536767471025 1 0.77802109310189249 1 0.88918168049785884 1 1 3 
	5.9219296133505847e-014 4.7624999999999966 -18.445083186312825 1 
	0.27119543852988043 4.763326114271516 -18.445163047873347 1 
	0.81076423042712487 4.7168999906255618 -18.45682113656926 1.0000000000000004 
	1.6296576434003114 4.5020281556151076 -18.511176553512875 0.99999999999999989 
	2.3987823070334282 4.1431666158665621 -18.595689841513604 1 
	3.0846378068913243 3.6593868092579118 -18.697803201225454 0.99999999999999989 
	3.6605416789963847 3.0835178623560209 -18.802417514661549 1.0000000000000002 
	4.1458815874991384 2.3943837526848162 -18.903763645645977 1 
	4.5037782750493314 1.6245814181383209 -18.98629396934183 0.99999999999999978 
	4.7172650689192768 0.80757145930581409 -19.038722663696444 1.0000000000000004 
	4.763387254273451 0.26996064600105185 -19.049972824745318 0.99999999999999989 
	4.7624999999999993 0 -19.049999999999997 1 
	0.025399999999999999 
	cone -4.7624999999999993 0 0 1 0 0 0 0 -19.049999999999997 1 I I 0 1 19.049999999999997 forward I I I I 
	cone 0 0 -231.13999999999999 0 0 1 0 -4.7624999999999993 0 1 I I 0 1 4.7624999999999993 forward I I I I 
	nullbs 
	nullbs 
	I I 
	0 
	0 
	0 
	} I I #
face $356 -1 $-1 $187 $172 $7 $-1 $357 forward single #
point $-1 -1 $-1 4.7624999999999993 0 19.049999999999997 #
ellipse-curve $-1 -1 $-1 4.7624999999999993 0 0 1 0 0 0 0 -19.049999999999997 1 I I #
coedge $-1 -1 $-1 $180 $179 $358 $359 reversed $181 $-1 #
face $360 -1 $-1 $361 $181 $7 $-1 $362 forward single #
convexity-sys-attrib $-1 -1 $-1 $182 $103 #
coedge $-1 -1 $-1 $358 $358 $184 $275 forward $363 $-1 #
edge $364 -1 $-1 $278 0 $276 3.1415926535897931 $274 $365 forward @7 unknown #
vertex $-1 -1 $-1 $359 $366 #
straight-curve $-1 -1 $-1 -4.7624999999999993 0 12.699999999999999 -25.399999999999999 0 0 I I #
vertex $-1 -1 $-1 $359 $367 #
straight-curve $-1 -1 $-1 -4.7624999999999993 1.5552500693544191e-015 -12.699999999999999 -25.399999999999999 0 0 I I #
model_id-kcp-attrib $-1 -1 $-1 $-1 $187 1 1021487796 1021487796 1975844865 13 #
cone-surface $-1 -1 $-1 -4.7624999999999993 0 0 -1 0 0 0 0 12.699999999999999 1 I I 0 1 12.699999999999999 forward I I I I #
intcurve-curve $-1 -1 $-1 forward { surfintcur full nurbs 3 open 10 
	0 3 0.11083315577967216 1 0.22200385541052509 1 0.33330035944666475 1 0.44450419599412999 1 
	0.55549713446325699 1 0.66668521054714458 1 0.77797778525742778 1 0.88915397368201821 1 1 3 
	-4.7624999999999993 0 -19.049999999999997 1 
	-4.7633685835774626 0.2703948879188704 -19.049967090920145 1 
	-4.7171355295084707 0.80871135180836506 -19.038690372031677 1 
	-4.5031391813528652 1.6264483257953459 -18.986139281794127 1 
	-4.1448191045699563 2.3961589953827276 -18.903530076362976 1 
	-3.6597292698428463 3.0844146340840521 -18.802262620130936 1.0000000000000002 
	-3.0837988366576816 3.6601444513260608 -18.697658100667056 0.99999999999999978 
	-2.3970134841182573 4.144237940332463 -18.59545120411105 1 
	-1.6277259015719006 4.5026842251589505 -18.511013178061216 0.99999999999999978 
	-0.80974327558056658 4.7170081938640722 -18.456793234832656 1 
	-0.27081430564450243 4.7633354125982494 -18.445159355873908 1 
	5.9219296133505847e-014 4.7624999999999966 -18.445083186312825 1 
	0.025399999999999999 
	cone -4.7624999999999993 0 0 1 0 0 0 0 -19.049999999999997 1 I I 0 1 19.049999999999997 forward I I I I 
	cone 0 0 -231.13999999999999 0 0 1 0 -4.7624999999999993 0 1 I I 0 1 4.7624999999999993 forward I I I I 
	nullbs 
	nullbs 
	I I 
	0 
	0 
	0 
	} I I #
model_id-kcp-attrib $-1 -1 $-1 $-1 $193 1 1021487796 1021487796 1975844865 11 #
cone-surface $-1 -1 $-1 -4.7624999999999993 0 0 1 0 0 0 0 -19.049999999999997 1 I I 0 1 19.049999999999997 forward I I I I #
face $-1 -1 $-1 $368 $369 $16 $-1 $370 forward single #
loop $-1 -1 $-1 $-1 $371 $196 #
plane-surface $-1 -1 $-1 1.4287500000000106 -5.9483605934744821 -120.01499999999997 0 1 0 0 0 1 forward_v I I I I #
coedge $-1 -1 $-1 $372 $373 $374 $375 forward $197 $-1 #
coedge $-1 -1 $-1 $376 $199 $373 $377 reversed $121 $-1 #
coedge $-1 -1 $-1 $199 $376 $200 $294 forward $121 $-1 #
coedge $-1 -1 $-1 $202 $374 $199 $292 reversed $133 $-1 #
edge $-1 -1 $-1 $295 -69.532499999999999 $378 170.49749999999995 $199 $379 forward @7 unknown #
coedge $-1 -1 $-1 $201 $200 $380 $381 reversed $73 $-1 #
edge $-1 -1 $-1 $382 0 $295 15.239999999999998 $290 $383 forward @7 unknown #
vertex $-1 -1 $-1 $294 $384 #
straight-curve $-1 -1 $-1 -13.81124999999999 0 120.01499999999999 0 -1 0 I I #
coedge $-1 -1 $-1 $380 $208 $204 $298 forward $303 $-1 #
edge $385 -1 $-1 $210 -170.49749999999997 $299 69.532499999999999 $204 $386 forward @7 unknown #
vertex $-1 -1 $-1 $298 $387 #
straight-curve $-1 -1 $-1 1.428750000000008 19.049999999999997 120.01499999999999 -1 0 0 I I #
point $-1 -1 $-1 -13.81124999999999 19.049999999999997 120.01499999999999 #
coedge $-1 -1 $-1 $208 $388 $212 $308 forward $303 $-1 #
loop $-1 -1 $-1 $-1 $302 $316 #
convexity-sys-attrib $-1 -1 $-1 $-1 $209 #
straight-curve $-1 -1 $-1 1.428750000000008 0 -120.01499999999999 0 1 0 I I #
point $-1 -1 $-1 1.428750000000008 19.049999999999997 -120.01499999999999 #
coedge $-1 -1 $-1 $213 $212 $389 $390 forward $214 $-1 #
edge $391 -1 $-1 $392 -137.15999999999997 $215 -10.160000000000025 $212 $393 forward @7 unknown #
face $-1 -1 $-1 $394 $214 $16 $-1 $395 forward single #
point $-1 -1 $-1 1.4287500000000106 5.9483605934744821 -120.01499999999999 #
coedge $-1 -1 $-1 $396 $217 $397 $398 reversed $133 $-1 #
coedge $-1 -1 $-1 $389 $399 $217 $313 forward $400 $401 #
edge $-1 -1 $-1 $402 8.9031709471763936 $314 17.806341894352787 $312 $403 forward @7 unknown #
vertex $-1 -1 $-1 $390 $404 #
straight-curve $-1 -1 $-1 -13.81124999999999 5.9483605934744803 -130.17500000000001 0 0 -1 I I #
face $-1 -1 $-1 $-1 $405 $16 $-1 $406 forward single #
loop $-1 -1 $-1 $133 $407 $219 #
plane-surface $-1 -1 $-1 -13.81124999999999 -4.163336342344337e-016 -5.2100158218045465 1 -3.7658125701940768e-019 -2.4400381712467123e-019 -2.4400381712467123e-019 0 -1 forward_v I I I I #
plane-surface $-1 -1 $-1 13.811249999999998 0 0 -1 0 0 0 0 1 forward_v I I I I #
coedge $-1 -1 $-1 $227 $225 $229 $324 reversed $139 $-1 #
edge $-1 -1 $-1 $240 -120.01499999999999 $326 120.01499999999999 $239 $408 forward @7 unknown #
vertex $-1 -1 $-1 $324 $409 #
straight-curve $-1 -1 $-1 -13.811249999999998 -19.049999999999997 0 0 0 -1 I I #
edge $-1 -1 $-1 $322 -19.049999999999997 $326 19.049999999999997 $320 $410 forward @7 unknown #
straight-curve $-1 -1 $-1 0 -19.049999999999997 -120.01499999999999 -1 0 0 I I #
vertex $-1 -1 $-1 $232 $411 #
straight-curve $-1 -1 $-1 0 19.049999999999997 -120.01499999999999 1 0 0 I I #
point $-1 -1 $-1 13.811249999999998 19.049999999999997 -120.01499999999999 #
point $-1 -1 $-1 13.811249999999998 -19.049999999999997 -120.01499999999999 #
straight-curve $-1 -1 $-1 -13.811249999999998 0 120.01499999999999 0 -1 0 I I #
point $-1 -1 $-1 -13.811249999999998 19.049999999999997 120.01499999999999 #
point $-1 -1 $-1 -13.811249999999998 -19.049999999999997 120.01499999999999 #
straight-curve $-1 -1 $-1 13.811249999999998 -19.049999999999997 0 0 0 -1 I I #
straight-curve $-1 -1 $-1 13.811249999999998 19.049999999999997 0 0 0 -1 I I #
model_id-kcp-attrib $-1 -1 $-1 $-1 $250 1 1021487796 1021487796 1975844865 9 #
face $412 -1 $-1 $193 $353 $7 $-1 $413 forward single #
loop $-1 -1 $-1 $-1 $414 $250 #
cone-surface $-1 -1 $-1 0 0 -231.13999999999999 0 0 1 0 -7.6199999999999992 0 1 I I 0 1 7.6199999999999992 forward I I I I #
coedge $-1 -1 $-1 $415 $415 $253 $342 reversed $251 $-1 #
coedge $-1 -1 $-1 $256 $253 $416 $417 reversed $159 $-1 #
coedge $-1 -1 $-1 $253 $256 $418 $419 forward $159 $-1 #
edge $420 -1 $-1 $421 1.2246063538223773e-016 $422 3.1415926535897931 $253 $423 forward @7 unknown #
coedge $-1 -1 $-1 $424 $263 $254 $344 forward $353 $-1 #
edge $-1 -1 $-1 $265 -4.6155584115990985e-033 $348 0.27414640249326722 $254 $425 forward @7 unknown #
coedge $-1 -1 $-1 $263 $424 $255 $346 reversed $353 $-1 #
edge $-1 -1 $-1 $261 0 $347 0.27414640249326666 $255 $426 forward @7 unknown #
vertex $-1 -1 $-1 $346 $427 #
vertex $-1 -1 $-1 $344 $428 #
ellipse-curve $-1 -1 $-1 7.0499162063697436e-016 0 -93.980000000000004 0 0 1 -1.6381416622496255e-015 7.6199999999999992 0 1 I I #
ellipse-curve $-1 -1 $-1 -1.7624790515924359e-016 0 -87.629999999999981 0 0 1 -4.0697087084866354e-016 4.7624999999999993 0 1 I I #
point $-1 -1 $-1 5.9219296133505847e-014 4.7624999999999966 -18.445083186312825 #
point $-1 -1 $-1 -5.8321877600790713e-016 4.7624999999999993 -87.629999999999981 #
loop $-1 -1 $-1 $-1 $263 $336 #
ellipse-curve $-1 -1 $-1 1.7624790515924359e-016 -1.7624790515924359e-016 -87.629999999999981 0 0 -1 -7.5946668116715077e-016 4.7624999999999993 0 1 I I #
point $-1 -1 $-1 0 -4.7624999999999993 -87.629999999999981 #
model_id-kcp-attrib $-1 -1 $-1 $-1 $268 1 1021487796 1021487796 1975844865 12 #
plane-surface $-1 -1 $-1 4.7624999999999993 0 0 1 0 0 0 0 -25.399999999999999 forward_v I I I I #
coedge $-1 -1 $-1 $274 $274 $271 $359 forward $363 $-1 #
edge $429 -1 $-1 $276 0 $278 3.1415926535897931 $358 $430 forward @7 unknown #
model_id-kcp-attrib $-1 -1 $-1 $-1 $272 1 1021487796 1021487796 1975844865 14 #
face $431 -1 $-1 $-1 $363 $7 $-1 $432 forward single #
cone-surface $-1 -1 $-1 -4.7624999999999993 0 0 -1 0 0 0 0 12.699999999999999 1 I I 0 1 12.699999999999999 forward I I I I #
loop $-1 -1 $-1 $-1 $274 $361 #
attrib_edge_convexity-kcp-attrib $-1 -1 $433 $-1 $275 1 #
ellipse-curve $-1 -1 $-1 -20.002499999999998 0 0 -1 0 0 0 0 -12.699999999999999 1 I I #
point $-1 -1 $-1 -20.002499999999998 0 12.699999999999999 #
point $-1 -1 $-1 -20.002499999999998 0 -12.699999999999999 #
face $-1 -1 $-1 $309 $400 $16 $-1 $434 forward single #
loop $-1 -1 $-1 $-1 $397 $285 #
spline-surface $-1 -1 $-1 forward { sumsur 
	straight 1.4287500000000106 -5.9483605934744812 6.984999999999971 -1 0 0 I I 
	intcurve forward { exactcur full nurbs 2 open 2 
	0 2 8.9031709471763936 2 
	1.4287500000000075 -5.9483605934744856 6.9849999999999728 1 
	1.4287500000000077 -2.2878309974901874 13.334999999999994 1.140175425099142 
	1.4287500000000106 0 13.334999999999994 1 
	0 
	null_surface 
	null_surface 
	nullbs 
	nullbs 
	I I 
	0 
	0 
	0 
	F 1 F 0 } I I 
	1.4287500000000106 -5.9483605934744812 6.984999999999971 
	none F 0 F 15.239999999999998 F 0 F 8.9031709471763936 OPEN OPEN NON_SINGULAR NON_SINGULAR 
	0 
	0 
	0 
	0 
	0 
	0 
	} I I I I #
coedge $-1 -1 $-1 $435 $436 $396 $437 forward $286 $-1 #
coedge $-1 -1 $-1 $438 $288 $436 $439 reversed $197 $-1 #
coedge $-1 -1 $-1 $288 $438 $289 $377 forward $197 $-1 #
coedge $-1 -1 $-1 $291 $396 $288 $375 reversed $133 $-1 #
edge $-1 -1 $-1 $378 -19.049999999999997 $440 -5.9483605934744821 $288 $441 forward @7 unknown #
coedge $-1 -1 $-1 $290 $289 $442 $443 reversed $121 $-1 #
edge $-1 -1 $-1 $444 0 $378 15.239999999999998 $373 $445 forward @7 unknown #
vertex $-1 -1 $-1 $377 $446 #
straight-curve $-1 -1 $-1 -13.81124999999999 -19.049999999999997 50.482499999999987 0 0 -1 I I #
coedge $-1 -1 $-1 $442 $297 $293 $381 forward $303 $-1 #
edge $447 -1 $-1 $299 -19.049999999999997 $382 19.049999999999997 $293 $448 forward @7 unknown #
vertex $-1 -1 $-1 $381 $449 #
straight-curve $-1 -1 $-1 1.428750000000008 -19.049999999999997 120.01499999999999 -1 0 0 I I #
point $-1 -1 $-1 -13.81124999999999 -19.049999999999997 120.01499999999999 #
convexity-sys-attrib $-1 -1 $-1 $-1 $298 #
straight-curve $-1 -1 $-1 1.428750000000008 19.049999999999997 50.482499999999987 0 0 1 I I #
point $-1 -1 $-1 1.428750000000008 19.049999999999997 120.01499999999999 #
coedge $-1 -1 $-1 $302 $450 $451 $452 forward $303 $-1 #
coedge $-1 -1 $-1 $451 $312 $307 $390 reversed $400 $453 #
edge $-1 -1 $-1 $392 0 $314 15.239999999999998 $307 $454 forward @7 unknown #
convexity-sys-attrib $-1 -1 $-1 $-1 $308 #
vertex $-1 -1 $-1 $308 $455 #
straight-curve $-1 -1 $-1 1.428750000000008 5.9483605934744803 -130.17500000000001 0 0 -1 I I #
face $-1 -1 $-1 $219 $456 $16 $-1 $457 forward single #
plane-surface $-1 -1 $-1 1.4287500000000106 5.9483605934744812 6.984999999999971 0 -1 0 0 0 -1 forward_v I I I I #
coedge $-1 -1 $-1 $374 $311 $371 $437 reversed $133 $-1 #
coedge $-1 -1 $-1 $458 $459 $311 $398 forward $369 $460 #
edge $-1 -1 $-1 $461 0 $402 8.9031709471763936 $397 $462 forward @7 unknown #
coedge $-1 -1 $-1 $312 $451 $458 $463 forward $400 $464 #
loop $-1 -1 $-1 $-1 $312 $368 #
pcurve $-1 -1 $-1 0 forward { exppc nubs 1 open 2 
	8.9031709471763936 1 17.806341894352787 1 
	15.239999999999998 8.9031709471763936 
	15.239999999999998 17.806341894352787 
	0 
	spline forward { sumsur 
	straight 1.4287500000000106 0 13.334999999999994 -1 0 0 I I 
	intcurve forward { exactcur full nurbs 2 open 2 
	8.9031709471763936 2 17.806341894352787 2 
	1.4287500000000106 0 13.334999999999994 1 
	1.4287500000000077 2.2878309974901874 13.334999999999994 1.140175425099142 
	1.4287500000000075 5.9483605934744856 6.9849999999999728 1 
	0 
	null_surface 
	null_surface 
	nullbs 
	nullbs 
	I I 
	0 
	0 
	0 
	F 1 F 0 } I I 
	1.4287500000000106 0 13.334999999999994 
	none F 0 F 15.239999999999998 F 8.9031709471763936 F 17.806341894352787 OPEN OPEN NON_SINGULAR NON_SINGULAR 
	0 
	0 
	0 
	0 
	0 
	0 
	} I I I I 
	} 0 0 #
vertex $-1 -1 $-1 $463 $465 #
intcurve-curve $-1 -1 $-1 forward { exactcur full nurbs 2 open 2 
	8.9031709471763936 2 17.806341894352787 2 
	-13.811249999999987 0 13.334999999999994 1 
	-13.81124999999999 2.2878309974901874 13.334999999999994 1.140175425099142 
	-13.81124999999999 5.9483605934744856 6.9849999999999728 1 
	0 
	null_surface 
	null_surface 
	nullbs 
	nullbs 
	I I 
	0 
	0 
	0 
	F 1 F 0 } I I #
point $-1 -1 $-1 -13.811249999999987 5.9483605934744812 6.984999999999971 #
loop $-1 -1 $-1 $303 $466 $316 #
plane-surface $-1 -1 $-1 1.4287500000000082 -4.163336342344337e-016 -5.2100158218045465 1 -3.7658125701940768e-019 -2.4400381712467123e-019 -2.4400381712467123e-019 0 -1 forward_v I I I I #
coedge $-1 -1 $-1 $407 $407 $467 $468 reversed $317 $-1 #
straight-curve $-1 -1 $-1 -13.811249999999998 19.049999999999997 0 0 0 -1 I I #
point $-1 -1 $-1 -13.811249999999998 -19.049999999999997 -120.01499999999999 #
straight-curve $-1 -1 $-1 -13.811249999999998 0 -120.01499999999999 0 1 0 I I #
point $-1 -1 $-1 -13.811249999999998 19.049999999999997 -120.01499999999999 #
model_id-kcp-attrib $-1 -1 $-1 $-1 $336 1 1021487796 1021487796 1975844865 10 #
cone-surface $-1 -1 $-1 0 0 -102.44666666666666 0 0 1 0 -11.429999999999998 0 1 I I -0.41036467732879783 0.91192150517510639 11.429999999999998 forward I I I I #
coedge $-1 -1 $-1 $416 $418 $424 $469 forward $337 $-1 #
coedge $-1 -1 $-1 $339 $339 $470 $471 forward $251 $-1 #
coedge $-1 -1 $-1 $470 $414 $340 $417 forward $337 $-1 #
edge $-1 -1 $-1 $348 0 $422 4.9999999999999982 $340 $472 forward @7 unknown #
coedge $-1 -1 $-1 $414 $470 $341 $419 reversed $337 $-1 #
edge $-1 -1 $-1 $347 -5.5948246910244108e-016 $421 4.9999999999999982 $341 $473 forward @7 unknown #
attrib_edge_convexity-kcp-attrib $-1 -1 $474 $-1 $342 1 #
vertex $-1 -1 $-1 $419 $475 #
vertex $-1 -1 $-1 $417 $476 #
ellipse-curve $-1 -1 $-1 0 0 -220.97999999999996 0 0 1 0 7.6199999999999992 0 1 I I #
coedge $-1 -1 $-1 $345 $343 $414 $469 reversed $353 $-1 #
straight-curve $-1 -1 $-1 1.1664375520158143e-015 -4.7624999999999993 -87.629999999999981 2.552878771504865e-015 -10.423262804151459 -23.162806231447703 I I #
straight-curve $-1 -1 $-1 -5.8321877600790713e-016 4.7624999999999993 -87.629999999999981 -1.2764393857524325e-015 10.423262804151459 -23.162806231447703 I I #
point $-1 -1 $-1 -9.3315004161265117e-016 7.6199999999999974 -93.97999999999999 #
point $-1 -1 $-1 1.8663000832253027e-015 -7.6199999999999992 -93.980000000000004 #
attrib_edge_convexity-kcp-attrib $-1 -1 $477 $-1 $359 1 #
ellipse-curve $-1 -1 $-1 -20.002499999999998 0 0 -1 0 0 0 0 12.699999999999999 1 I I #
model_id-kcp-attrib $-1 -1 $-1 $-1 $361 1 1021487796 1021487796 1975844865 15 #
plane-surface $-1 -1 $-1 -20.002499999999998 0 0 -1 0 0 0 0 25.399999999999999 forward_v I I I I #
convexity-sys-attrib $-1 -1 $-1 $364 $275 #
spline-surface $-1 -1 $-1 forward { ref 7 } I I I I #
coedge $-1 -1 $-1 $478 $371 $459 $479 reversed $286 $-1 #
coedge $-1 -1 $-1 $371 $478 $372 $439 forward $286 $-1 #
edge $-1 -1 $-1 $440 10.160000000000039 $461 137.15999999999997 $371 $480 forward @7 unknown #
coedge $-1 -1 $-1 $373 $372 $481 $482 reversed $197 $-1 #
edge $-1 -1 $-1 $483 0 $440 15.239999999999998 $436 $484 forward @7 unknown #
vertex $-1 -1 $-1 $439 $485 #
straight-curve $-1 -1 $-1 -13.81124999999999 0 -120.01499999999999 0 1 0 I I #
coedge $-1 -1 $-1 $481 $380 $376 $443 forward $303 $-1 #
edge $486 -1 $-1 $382 -69.532499999999999 $444 170.49749999999997 $376 $487 forward @7 unknown #
vertex $-1 -1 $-1 $443 $488 #
straight-curve $-1 -1 $-1 1.428750000000008 -19.049999999999997 -120.01499999999997 -1 0 0 I I #
point $-1 -1 $-1 -13.81124999999999 -19.049999999999997 -120.01499999999997 #
convexity-sys-attrib $-1 -1 $-1 $-1 $381 #
straight-curve $-1 -1 $-1 1.428750000000008 0 120.01499999999999 0 -1 0 I I #
point $-1 -1 $-1 1.428750000000008 -19.049999999999997 120.01499999999999 #
coedge $-1 -1 $-1 $388 $489 $490 $491 forward $303 $-1 #
coedge $-1 -1 $-1 $399 $389 $388 $452 reversed $400 $492 #
edge $493 -1 $-1 $494 8.9031709471763936 $392 17.806341894352787 $451 $495 forward @7 unknown #
pcurve $-1 -1 $-1 0 forward { exppc nubs 1 open 2 
	-15.239999999999998 1 0 1 
	15.239999999999995 17.806341894352787 
	0 17.806341894352787 
	0 
	spline forward { ref 7 } I I I I 
	} 0 0 #
straight-curve $-1 -1 $-1 1.4287500000000106 5.9483605934744812 6.984999999999971 -1 0 0 F 0 F 15.239999999999998 #
point $-1 -1 $-1 1.4287500000000106 5.9483605934744812 6.984999999999971 #
loop $-1 -1 $-1 $496 $467 $394 #
cone-surface $-1 -1 $-1 1.428750000000008 0 100.96499999999997 -1 0 0 0 0 12.699999999999999 1 I I 0 -1 12.699999999999999 forward I I I I #
coedge $-1 -1 $-1 $490 $397 $399 $463 reversed $369 $497 #
coedge $-1 -1 $-1 $397 $490 $435 $479 forward $369 $498 #
pcurve $-1 -1 $-1 0 forward { exppc nubs 1 open 2 
	0 1 8.9031709471763936 1 
	15.239999999999998 0 
	15.239999999999998 8.9031709471763865 
	0 
	spline forward { ref 4 } I I I I 
	} 0 0 #
vertex $-1 -1 $-1 $479 $499 #
intcurve-curve $-1 -1 $-1 forward { exactcur full nurbs 2 open 2 
	0 2 8.9031709471763936 2 
	-13.81124999999999 -5.9483605934744856 6.9849999999999728 1 
	-13.81124999999999 -2.2878309974901874 13.334999999999994 1.140175425099142 
	-13.811249999999987 0 13.334999999999994 1 
	0 
	null_surface 
	null_surface 
	nullbs 
	nullbs 
	I I 
	0 
	0 
	0 
	F 1 F 0 } I I #
edge $-1 -1 $-1 $494 0 $402 15.239999999999998 $399 $500 forward @7 unknown #
pcurve $-1 -1 $-1 0 forward { exppc nubs 1 open 2 
	0 1 15.239999999999998 1 
	0 8.9031709471763936 
	15.239999999999998 8.9031709471763936 
	0 
	spline forward { ref 7 } I I I I 
	} 0 0 #
point $-1 -1 $-1 -13.811249999999987 0 13.334999999999994 #
coedge $-1 -1 $-1 $466 $466 $501 $502 forward $405 $-1 #
coedge $-1 -1 $-1 $467 $467 $407 $468 forward $456 $-1 #
edge $-1 -1 $-1 $503 0 $503 6.2831853071795862 $467 $504 forward @7 unknown #
edge $-1 -1 $-1 $347 -5.434385993627848e-032 $348 3.1415926535897931 $424 $505 forward @7 unknown #
coedge $-1 -1 $-1 $418 $416 $415 $471 reversed $337 $-1 #
edge $506 -1 $-1 $421 -1.2246063538223773e-016 $422 3.1415926535897931 $415 $507 forward @7 unknown #
straight-curve $-1 -1 $-1 1.8663000832253027e-015 -7.6199999999999992 -93.980000000000004 0 0 -25.399999999999999 I I #
straight-curve $-1 -1 $-1 -9.3315004161265137e-016 7.6199999999999992 -93.980000000000004 0 0 -25.399999999999999 I I #
convexity-sys-attrib $-1 -1 $-1 $420 $342 #
point $-1 -1 $-1 -9.3315004161265137e-016 7.6199999999999992 -220.97999999999996 #
point $-1 -1 $-1 0 -7.6199999999999992 -220.97999999999996 #
convexity-sys-attrib $-1 -1 $-1 $429 $359 #
coedge $-1 -1 $-1 $436 $435 $489 $508 reversed $286 $-1 #
edge $-1 -1 $-1 $509 0 $461 15.239999999999998 $459 $510 forward @7 unknown #
straight-curve $-1 -1 $-1 -13.81124999999999 -5.9483605934744803 -130.17500000000001 0 0 1 I I #
coedge $-1 -1 $-1 $489 $442 $438 $482 forward $303 $-1 #
edge $511 -1 $-1 $444 -19.049999999999997 $483 -5.9483605934744821 $438 $512 forward @7 unknown #
vertex $-1 -1 $-1 $482 $513 #
straight-curve $-1 -1 $-1 1.4287500000000106 -5.9483605934744821 -120.01499999999997 -1 0 0 I I #
point $-1 -1 $-1 -13.811249999999987 -5.9483605934744821 -120.01499999999997 #
convexity-sys-attrib $-1 -1 $-1 $-1 $443 #
straight-curve $-1 -1 $-1 1.428750000000008 -19.049999999999997 50.482499999999987 0 0 -1 I I #
point $-1 -1 $-1 1.428750000000008 -19.049999999999997 -120.01499999999999 #
coedge $-1 -1 $-1 $450 $481 $478 $508 forward $303 $-1 #
coedge $-1 -1 $-1 $459 $458 $450 $491 reversed $369 $514 #
edge $515 -1 $-1 $509 0 $494 8.9031709471763936 $490 $516 forward @7 unknown #
pcurve $-1 -1 $-1 0 forward { exppc nubs 1 open 2 
	-17.806341894352787 1 -8.9031709471763936 1 
	0 17.806341894352787 
	0 8.9031709471763936 
	0 
	spline forward { ref 7 } I I I I 
	} 0 0 #
convexity-sys-attrib $-1 -1 $-1 $-1 $452 #
vertex $-1 -1 $-1 $491 $517 #
intcurve-curve $-1 -1 $-1 forward { ref 8 } I I #
loop $-1 -1 $-1 $-1 $501 $394 #
pcurve $-1 -1 $-1 0 forward { exppc nubs 1 open 2 
	-15.239999999999998 1 0 1 
	15.239999999999998 8.9031709471763936 
	2.8865798640254019e-015 8.9031709471763936 
	0 
	spline forward { ref 4 } I I I I 
	} 0 0 #
pcurve $-1 -1 $-1 0 forward { exppc nubs 1 open 2 
	0 1 15.239999999999998 1 
	0 0 
	15.239999999999998 0 
	0 
	spline forward { ref 4 } I I I I 
	} 0 0 #
point $-1 -1 $-1 -13.811249999999987 -5.9483605934744812 6.984999999999971 #
straight-curve $-1 -1 $-1 1.4287500000000106 0 13.334999999999994 -1 0 0 F 0 F 15.239999999999998 #
coedge $-1 -1 $-1 $501 $501 $466 $502 reversed $496 $-1 #
edge $518 -1 $-1 $519 -3.1415926535897931 $519 3.1415926535897931 $501 $520 forward @7 unknown #
vertex $-1 -1 $-1 $468 $521 #
ellipse-curve $-1 -1 $-1 -13.81124999999999 0 100.96499999999997 -1 0 0 0 0 12.699999999999999 1 I I #
ellipse-curve $-1 -1 $-1 3.5249581031848718e-016 0 -93.980000000000004 0 0 -1 -1.2856458519311385e-015 7.6199999999999992 0 1 I I #
attrib_edge_convexity-kcp-attrib $-1 -1 $522 $-1 $471 1 #
ellipse-curve $-1 -1 $-1 0 0 -220.97999999999996 0 0 -1 0 7.6199999999999992 0 1 I I #
edge $523 -1 $-1 $483 10.160000000000025 $509 137.15999999999997 $478 $524 forward @7 unknown #
vertex $-1 -1 $-1 $508 $525 #
straight-curve $-1 -1 $-1 1.4287500000000106 -5.9483605934744812 6.984999999999971 -1 0 0 F 0 F 15.239999999999998 #
convexity-sys-attrib $-1 -1 $-1 $-1 $482 #
straight-curve $-1 -1 $-1 1.428750000000008 0 -120.01499999999999 0 1 0 I I #
point $-1 -1 $-1 1.4287500000000106 -5.9483605934744821 -120.01499999999999 #
pcurve $-1 -1 $-1 0 forward { exppc nubs 1 open 2 
	-8.9031709471763936 1 0 1 
	0 8.9031709471763865 
	0 0 
	0 
	spline forward { ref 4 } I I I I 
	} 0 0 #
convexity-sys-attrib $-1 -1 $-1 $-1 $491 #
intcurve-curve $-1 -1 $-1 forward { ref 5 } I I #
point $-1 -1 $-1 1.4287500000000106 0 13.334999999999994 #
convexity-sys-attrib $-1 -1 $-1 $-1 $502 #
vertex $-1 -1 $-1 $502 $526 #
ellipse-curve $-1 -1 $-1 1.428750000000008 0 100.96499999999997 -1 0 0 0 0 12.699999999999999 1 I I #
point $-1 -1 $-1 -13.811249999999998 0 113.66499999999998 #
convexity-sys-attrib $-1 -1 $-1 $506 $471 #
convexity-sys-attrib $-1 -1 $-1 $-1 $508 #
straight-curve $-1 -1 $-1 1.428750000000008 -5.9483605934744803 -130.17500000000001 0 0 1 I I #
point $-1 -1 $-1 1.4287500000000106 -5.9483605934744812 6.984999999999971 #
point $-1 -1 $-1 1.42875 0 88.264999999999972 #
End-of-ACIS-data 