600 0 1 0           
89 GICL ACIS Healer - Source: /gicl/data5/repository/PTC/V18/process18/adj-250.prt.sat - 6 0 18 ACIS 6.0.3 Solaris 24 Sat Apr 13 21:18:05 2002 
1 9.999999999999999547e-07 1.000000000000000036e-10 
body $-1 $1 $-1 $-1 #
lump $-1 $-1 $2 $0 #
shell $-1 $-1 $-1 $3 $-1 $1 #
face $-1 $4 $5 $2 $-1 $6 reversed single #
face $-1 $7 $8 $2 $-1 $9 forward single #
loop $-1 $10 $11 $3 #
plane-surface $-1 -4.762499999999999289 0 0 1 0 0 0 0 -25.39999999999999858 forward_v I I I I #
face $-1 $12 $13 $2 $-1 $14 forward single #
loop $-1 $-1 $15 $4 #
cone-surface $-1 -4.762499999999999289 0 0 1 0 0 0 0 -19.04999999999999716 1 I I 0 1 19.04999999999999716 forward I I I I #
loop $-1 $-1 $16 $3 #
coedge $-1 $17 $17 $18 $19 reversed $5 $-1 #
face $-1 $20 $21 $2 $-1 $22 forward single #
loop $-1 $-1 $23 $7 #
cone-surface $-1 0 0 -231.1399999999999864 0 0 1 0 -4.762499999999999289 0 1 I I 0 1 4.762499999999999289 forward I I I I #
coedge $-1 $24 $25 $23 $26 reversed $8 $-1 #
coedge $-1 $27 $27 $28 $29 reversed $10 $-1 #
coedge $-1 $11 $11 $30 $31 reversed $5 $-1 #
coedge $-1 $25 $32 $11 $19 forward $8 $-1 #
edge $-1 $33 0 $34 3.141592653589793116 $11 $35 forward 7 unknown #
face $-1 $36 $37 $2 $-1 $38 forward single #
loop $-1 $-1 $39 $12 #
cone-surface $-1 0 0 -231.1399999999999864 0 0 1 0 -4.762499999999999289 0 1 I I 0 1 4.762499999999999289 forward I I I I #
coedge $-1 $40 $41 $15 $26 forward $13 $-1 #
coedge $-1 $32 $15 $42 $43 reversed $8 $-1 #
coedge $-1 $15 $18 $44 $45 reversed $8 $-1 #
edge $-1 $46 0 $47 1 $15 $48 forward 7 unknown #
coedge $-1 $16 $16 $49 $50 reversed $10 $-1 #
coedge $-1 $51 $52 $16 $29 forward $53 $-1 #
edge $-1 $54 0 $55 3.141592653589793116 $16 $56 forward 7 unknown #
coedge $-1 $57 $58 $17 $31 forward $59 $-1 #
edge $-1 $34 0 $33 3.141592653589793116 $17 $60 forward 7 unknown #
coedge $-1 $18 $24 $57 $61 reversed $8 $-1 #
vertex $-1 $31 $62 #
vertex $-1 $31 $63 #
ellipse-curve $-1 -4.762499999999999289 0 0 1 0 0 0 0 19.04999999999999716 1 I I #
face $-1 $64 $65 $2 $-1 $66 forward single #
loop $-1 $-1 $67 $20 #
cone-surface $-1 0 0 -102.4466666666666583 0 0 1 0 -11.42999999999999794 0 1 I I -0.4103646773287978333 0.911921505175106395 11.42999999999999794 forward I I I I #
coedge $-1 $68 $69 $70 $71 forward $21 $-1 #
coedge $-1 $72 $23 $73 $74 forward $13 $-1 #
coedge $-1 $23 $70 $75 $76 forward $13 $-1 #
coedge $-1 $77 $77 $24 $43 forward $78 $-1 #
edge $-1 $79 0 $46 3.141592653589793116 $42 $80 forward 7 unknown #
coedge $-1 $69 $73 $25 $45 forward $21 $-1 #
edge $-1 $47 0 $34 1 $25 $81 forward 7 unknown #
vertex $-1 $82 $83 #
vertex $-1 $45 $84 #
intcurve-curve $-1 forward { surfintcur full nurbs 3 open 10 
	0 3 0.11083389598628407 1 0.2220045108491106867 1 0.3333010459273584303 1 0.444504752121207547 1 
	0.5554977550132458308 1 0.666686104371828292 1 0.7779785737194168105 1 0.889154463914269777 1 1 3 
	4.762499999999999289 -4.665750208063257038e-15 -19.04999999999999716 1 
	4.763365408890620323 -0.2704227470898802332 -19.04996627651766516 1 
	4.717125775440987212 -0.8087783453159876901 -19.03868795348195775 1 
	4.50312352831066498 -1.626488605003580723 -18.98613551336212524 1 
	4.144791167076564697 -2.396207986328418027 -18.90352390334456345 1.000000000000000222 
	3.659703434177652426 -3.084443568668726154 -18.8022576479620156 1 
	3.083767312226360247 -3.660173160773180445 -18.6976526114035515 1 
	2.396950132724613436 -4.144275365209050044 -18.59544282438592333 1.000000000000000222 
	1.627669093797807998 -4.502703443418810458 -18.51100837732874993 1 
	0.8097044750527301327 -4.71701296408958104 -18.45679201590248653 0.999999999999999889 
	0.2707995793045443467 -4.763336169386269248 -18.44515912185726592 1 
	0 -4.762500000000006395 -18.44508318631282151 1 
	0.02539999999999999897 
	cone -4.762499999999999289 0 0 1 0 0 0 0 -19.04999999999999716 1 I I 0 1 19.04999999999999716 forward I I I I 
	cone 0 0 -231.1399999999999864 0 0 1 0 -4.762499999999999289 0 1 I I 0 1 4.762499999999999289 forward I I I I 
	nullbs 
	nullbs 
	I I 
	0 
	0 
	0 
	} I I #
coedge $-1 $85 $86 $27 $50 forward $87 $-1 #
edge $-1 $55 0 $54 3.141592653589793116 $27 $88 forward 7 unknown #
coedge $-1 $89 $28 $86 $90 forward $53 $-1 #
coedge $-1 $28 $89 $85 $91 reversed $53 $-1 #
loop $-1 $-1 $51 $92 #
vertex $-1 $50 $93 #
vertex $-1 $50 $94 #
ellipse-curve $-1 -4.762499999999999289 0 0 -1 0 0 0 0 -12.69999999999999929 1 I I #
coedge $-1 $95 $30 $32 $61 forward $59 $-1 #
coedge $-1 $30 $75 $69 $96 reversed $59 $-1 #
loop $-1 $-1 $30 $97 #
ellipse-curve $-1 -4.762499999999999289 0 0 1 0 0 0 0 -19.04999999999999716 1 I I #
edge $-1 $33 0 $79 0.3749999999999999445 $57 $98 forward 7 unknown #
point $-1 -4.762499999999999289 0 19.04999999999999716 #
point $-1 -4.762499999999999289 0 -19.04999999999999716 #
face $-1 $99 $100 $2 $-1 $101 reversed single #
loop $-1 $-1 $102 $36 #
cone-surface $-1 0 0 -231.1399999999999864 0 0 1 0 -7.619999999999999218 0 1 I I 0 1 7.619999999999999218 forward I I I I #
coedge $-1 $103 $104 $105 $106 forward $37 $-1 #
coedge $-1 $73 $39 $107 $108 forward $21 $-1 #
coedge $-1 $39 $44 $58 $96 forward $21 $-1 #
coedge $-1 $41 $72 $39 $71 reversed $13 $-1 #
edge $-1 $109 4.196118518268308619e-16 $110 2.723815622586108987 $39 $111 forward 7 unknown #
coedge $-1 $70 $40 $112 $113 reversed $13 $-1 #
coedge $-1 $44 $68 $40 $74 reversed $21 $-1 #
edge $-1 $47 2.797412345512205417e-16 $114 2.723815622586108987 $73 $115 forward 7 unknown #
coedge $-1 $58 $95 $41 $76 reversed $59 $-1 #
edge $-1 $109 0 $46 1 $75 $116 forward 7 unknown #
coedge $-1 $42 $42 $95 $82 forward $78 $-1 #
loop $-1 $-1 $42 $117 #
vertex $-1 $82 $118 #
ellipse-curve $-1 4.762499999999999289 0 0 1 0 0 0 0 19.04999999999999716 1 I I #
intcurve-curve $-1 forward { surfintcur full nurbs 3 open 10 
	0 3 0.1108594003616847901 1 0.2220468769092141803 1 0.3333397270708280402 1 0.4445193041794919253 1 
	0.5555129009263960471 1 0.6667247435958154611 1 0.7780205037583788341 1 0.8891810358919670643 1 1 3 
	0 -4.762500000000006395 -18.44508318631282151 1 
	-0.2711829454265751727 -4.763326752559748911 -18.44516285006545075 0.999999999999999889 
	-0.8107312940284079339 -4.716904036805042111 -18.45682010171818987 1 
	-1.629609284333809249 -4.502044548474853691 -18.51117246212250933 1 
	-2.398728351022183514 -4.143198454966842803 -18.59568270397321754 1 
	-3.084611189708612589 -3.659411382431950521 -18.69779853886473475 1 
	-3.660522035850795497 -3.083539399395400782 -18.80241375618435384 1.000000000000000222 
	-4.145855264170196897 -2.394429358549727826 -18.90375785075960735 0.999999999999999889 
	-4.503764483707508148 -1.624617704097975679 -18.98629063516611737 1.000000000000000222 
	-4.717256592654094582 -0.8076296223165342347 -19.03872056586482486 0.999999999999999778 
	-4.763384564379529174 -0.2699847122932360066 -19.04997213324777761 1.000000000000000222 
	-4.762499999999999289 -4.665750208063257038e-15 -19.04999999999999716 1 
	0.02539999999999999897 
	cone -4.762499999999999289 0 0 1 0 0 0 0 -19.04999999999999716 1 I I 0 1 19.04999999999999716 forward I I I I 
	cone 0 0 -231.1399999999999864 0 0 1 0 -4.762499999999999289 0 1 I I 0 1 4.762499999999999289 forward I I I I 
	nullbs 
	nullbs 
	I I 
	0 
	0 
	0 
	} I I #
edge $-1 $46 0 $79 3.141592653589793116 $77 $119 forward 7 unknown #
point $-1 4.762499999999999289 0 -19.04999999999999716 #
point $-1 0 -4.762500000000006395 -18.44508318631282151 #
coedge $-1 $120 $49 $52 $91 forward $87 $-1 #
coedge $-1 $49 $120 $51 $90 reversed $87 $-1 #
loop $-1 $-1 $85 $121 #
ellipse-curve $-1 -4.762499999999999289 0 0 -1 0 0 0 0 12.69999999999999929 1 I I #
coedge $-1 $52 $51 $122 $123 reversed $53 $-1 #
edge $-1 $55 0 $124 0.5999999999999999778 $86 $125 forward 7 unknown #
edge $-1 $54 0 $126 0.5999999999999999778 $85 $127 forward 7 unknown #
face $-1 $121 $53 $2 $-1 $128 forward single #
point $-1 -4.762499999999999289 0 -12.69999999999999929 #
point $-1 -4.762499999999999289 0 12.69999999999999929 #
coedge $-1 $75 $57 $77 $82 reversed $59 $-1 #
edge $-1 $34 0 $109 1 $58 $129 forward 7 unknown #
face $-1 $117 $59 $2 $-1 $130 forward single #
straight-curve $-1 -4.762499999999999289 2.332875104031628519e-15 19.04999999999999716 25.39999999999999858 0 0 I I #
face $-1 $131 $132 $2 $-1 $133 forward single #
loop $-1 $-1 $134 $64 #
plane-surface $-1 0 0 -220.9799999999999613 0 0 1 0 -25.39999999999999858 0 forward_v I I I I #
coedge $-1 $135 $136 $134 $137 forward $65 $-1 #
coedge $-1 $107 $67 $138 $139 reversed $37 $-1 #
coedge $-1 $67 $107 $140 $141 forward $37 $-1 #
coedge $-1 $136 $135 $67 $106 reversed $65 $-1 #
edge $-1 $142 5.434385993627847997e-32 $143 3.141592653589793116 $67 $144 forward 7 unknown #
coedge $-1 $104 $103 $68 $108 reversed $37 $-1 #
edge $-1 $110 0 $114 3.141592653589793116 $68 $145 forward 7 unknown #
vertex $-1 $96 $146 #
vertex $-1 $108 $147 #
straight-curve $-1 -5.832187760079071298e-16 4.762499999999999289 -18.44508318631281441 0 0 -25.39999999999999858 I I #
coedge $-1 $138 $140 $72 $113 forward $148 $-1 #
edge $-1 $110 0 $114 3.141592653589793116 $72 $149 forward 7 unknown #
vertex $-1 $74 $150 #
straight-curve $-1 1.16643755201581426e-15 -4.762499999999999289 -18.44508318631281441 0 0 -25.39999999999999858 I I #
intcurve-curve $-1 forward { surfintcur full nurbs 3 open 10 
	0 3 0.110859816764583563 1 0.222047548124730737 1 0.3333404882772094124 1 0.4445198231876581474 1 
	0.5555133470847737343 1 0.6667253676747102453 1 0.7780210931018924914 1 0.8891816804978588396 1 1 3 
	5.921929613350584734e-14 4.762499999999996625 -18.44508318631282506 1 
	0.2711954385298804282 4.763326114271515976 -18.44516304787334704 1 
	0.8107642304271248657 4.716899990625561756 -18.45682113656926049 1.000000000000000444 
	1.629657643400311384 4.502028155615107607 -18.51117655351287539 0.999999999999999889 
	2.398782307033428207 4.143166615866562097 -18.59568984151360382 1 
	3.084637806891324274 3.659386809257911821 -18.69780320122545447 0.999999999999999889 
	3.660541678996384718 3.083517862356020878 -18.80241751466154909 1.000000000000000222 
	4.145881587499138377 2.39438375268481618 -18.90376364564597722 1 
	4.50377827504933137 1.62458141813832091 -18.98629396934182978 0.999999999999999778 
	4.717265068919276771 0.8075714593058140878 -19.0387226636964435 1.000000000000000444 
	4.763387254273450999 0.2699606460010518516 -19.04997282474531772 0.999999999999999889 
	4.762499999999999289 0 -19.04999999999999716 1 
	0.02539999999999999897 
	cone -4.762499999999999289 0 0 1 0 0 0 0 -19.04999999999999716 1 I I 0 1 19.04999999999999716 forward I I I I 
	cone 0 0 -231.1399999999999864 0 0 1 0 -4.762499999999999289 0 1 I I 0 1 4.762499999999999289 forward I I I I 
	nullbs 
	nullbs 
	I I 
	0 
	0 
	0 
	} I I #
face $-1 $92 $78 $2 $-1 $151 forward single #
point $-1 4.762499999999999289 0 19.04999999999999716 #
ellipse-curve $-1 4.762499999999999289 0 0 1 0 0 0 0 -19.04999999999999716 1 I I #
coedge $-1 $86 $85 $152 $153 reversed $87 $-1 #
face $-1 $154 $87 $2 $-1 $155 forward single #
coedge $-1 $152 $152 $89 $123 forward $156 $-1 #
edge $-1 $126 0 $124 3.141592653589793116 $122 $157 forward 7 unknown #
vertex $-1 $153 $158 #
straight-curve $-1 -4.762499999999999289 0 12.69999999999999929 -25.39999999999999858 0 0 I I #
vertex $-1 $153 $159 #
straight-curve $-1 -4.762499999999999289 1.555250069354419078e-15 -12.69999999999999929 -25.39999999999999858 0 0 I I #
cone-surface $-1 -4.762499999999999289 0 0 -1 0 0 0 0 12.69999999999999929 1 I I 0 1 12.69999999999999929 forward I I I I #
intcurve-curve $-1 forward { surfintcur full nurbs 3 open 10 
	0 3 0.1108331557796721628 1 0.2220038554105250861 1 0.3333003594466647512 1 0.4445041959941299914 1 
	0.5554971344632569918 1 0.66668521054714458 1 0.7779777852574277786 1 0.889153973682018206 1 1 3 
	-4.762499999999999289 0 -19.04999999999999716 1 
	-4.763368583577462623 0.2703948879188703969 -19.04996709092014484 1 
	-4.717135529508470704 0.8087113518083650643 -19.03869037203167736 1 
	-4.503139181352865172 1.626448325795345928 -18.98613928179412724 1 
	-4.144819104569956281 2.396158995382727586 -18.90353007636297633 1 
	-3.6597292698428463 3.084414634084052143 -18.80226262013093574 1.000000000000000222 
	-3.083798836657681619 3.66014445132606081 -18.69765810066705569 0.999999999999999778 
	-2.39701348411825732 4.144237940332462955 -18.59545120411105046 1 
	-1.627725901571900557 4.502684225158950504 -18.51101317806121571 0.999999999999999778 
	-0.8097432755805665794 4.717008193864072219 -18.45679323483265577 1 
	-0.2708143056445024288 4.763335412598249441 -18.44515935587390842 1 
	5.921929613350584734e-14 4.762499999999996625 -18.44508318631282506 1 
	0.02539999999999999897 
	cone -4.762499999999999289 0 0 1 0 0 0 0 -19.04999999999999716 1 I I 0 1 19.04999999999999716 forward I I I I 
	cone 0 0 -231.1399999999999864 0 0 1 0 -4.762499999999999289 0 1 I I 0 1 4.762499999999999289 forward I I I I 
	nullbs 
	nullbs 
	I I 
	0 
	0 
	0 
	} I I #
cone-surface $-1 -4.762499999999999289 0 0 1 0 0 0 0 -19.04999999999999716 1 I I 0 1 19.04999999999999716 forward I I I I #
face $-1 $97 $148 $2 $-1 $160 forward single #
loop $-1 $-1 $161 $99 #
cone-surface $-1 0 0 -231.1399999999999864 0 0 1 0 -7.619999999999999218 0 1 I I 0 1 7.619999999999999218 forward I I I I #
coedge $-1 $162 $162 $102 $137 reversed $100 $-1 #
coedge $-1 $105 $102 $163 $164 reversed $65 $-1 #
coedge $-1 $102 $105 $165 $166 forward $65 $-1 #
edge $-1 $167 1.224606353822377258e-16 $168 3.141592653589793116 $102 $169 forward 7 unknown #
coedge $-1 $170 $112 $103 $139 forward $148 $-1 #
edge $-1 $114 -4.615558411599098505e-33 $143 0.2741464024932672161 $103 $171 forward 7 unknown #
coedge $-1 $112 $170 $104 $141 reversed $148 $-1 #
edge $-1 $110 0 $142 0.274146402493266661 $104 $172 forward 7 unknown #
vertex $-1 $141 $173 #
vertex $-1 $139 $174 #
ellipse-curve $-1 7.049916206369743637e-16 0 -93.98000000000000398 0 0 1 -1.638141662249625535e-15 7.619999999999999218 0 1 I I #
ellipse-curve $-1 -1.762479051592435909e-16 0 -87.62999999999998124 0 0 1 -4.069708708486635388e-16 4.762499999999999289 0 1 I I #
point $-1 5.921929613350584734e-14 4.762499999999996625 -18.44508318631282506 #
point $-1 -5.832187760079071298e-16 4.762499999999999289 -87.62999999999998124 #
loop $-1 $-1 $112 $131 #
ellipse-curve $-1 1.762479051592435909e-16 -1.762479051592435909e-16 -87.62999999999998124 0 0 -1 -7.5946668116715077e-16 4.762499999999999289 0 1 I I #
point $-1 0 -4.762499999999999289 -87.62999999999998124 #
plane-surface $-1 4.762499999999999289 0 0 1 0 0 0 0 -25.39999999999999858 forward_v I I I I #
coedge $-1 $122 $122 $120 $153 forward $156 $-1 #
edge $-1 $124 0 $126 3.141592653589793116 $152 $175 forward 7 unknown #
face $-1 $-1 $156 $2 $-1 $176 forward single #
cone-surface $-1 -4.762499999999999289 0 0 -1 0 0 0 0 12.69999999999999929 1 I I 0 1 12.69999999999999929 forward I I I I #
loop $-1 $-1 $122 $154 #
ellipse-curve $-1 -20.00249999999999773 0 0 -1 0 0 0 0 -12.69999999999999929 1 I I #
point $-1 -20.00249999999999773 0 12.69999999999999929 #
point $-1 -20.00249999999999773 0 -12.69999999999999929 #
cone-surface $-1 0 0 -102.4466666666666583 0 0 1 0 -11.42999999999999794 0 1 I I -0.4103646773287978333 0.911921505175106395 11.42999999999999794 forward I I I I #
coedge $-1 $163 $165 $170 $177 forward $132 $-1 #
coedge $-1 $134 $134 $178 $179 forward $100 $-1 #
coedge $-1 $178 $161 $135 $164 forward $132 $-1 #
edge $-1 $143 0 $168 4.999999999999998224 $135 $180 forward 7 unknown #
coedge $-1 $161 $178 $136 $166 reversed $132 $-1 #
edge $-1 $142 -5.594824691024410835e-16 $167 4.999999999999998224 $136 $181 forward 7 unknown #
vertex $-1 $166 $182 #
vertex $-1 $164 $183 #
ellipse-curve $-1 0 0 -220.9799999999999613 0 0 1 0 7.619999999999999218 0 1 I I #
coedge $-1 $140 $138 $161 $177 reversed $148 $-1 #
straight-curve $-1 1.16643755201581426e-15 -4.762499999999999289 -87.62999999999998124 2.552878771504864989e-15 -10.42326280415145945 -23.16280623144770345 I I #
straight-curve $-1 -5.832187760079071298e-16 4.762499999999999289 -87.62999999999998124 -1.276439385752432494e-15 10.42326280415145945 -23.16280623144770345 I I #
point $-1 -9.33150041612651171e-16 7.619999999999997442 -93.97999999999998977 #
point $-1 1.866300083225302736e-15 -7.619999999999999218 -93.98000000000000398 #
ellipse-curve $-1 -20.00249999999999773 0 0 -1 0 0 0 0 12.69999999999999929 1 I I #
plane-surface $-1 -20.00249999999999773 0 0 -1 0 0 0 0 25.39999999999999858 forward_v I I I I #
edge $-1 $142 -5.434385993627847997e-32 $143 3.141592653589793116 $170 $184 forward 7 unknown #
coedge $-1 $165 $163 $162 $179 reversed $132 $-1 #
edge $-1 $167 -1.224606353822377258e-16 $168 3.141592653589793116 $162 $185 forward 7 unknown #
straight-curve $-1 1.866300083225302736e-15 -7.619999999999999218 -93.98000000000000398 0 0 -25.39999999999999858 I I #
straight-curve $-1 -9.331500416126513682e-16 7.619999999999999218 -93.98000000000000398 0 0 -25.39999999999999858 I I #
point $-1 -9.331500416126513682e-16 7.619999999999999218 -220.9799999999999613 #
point $-1 0 -7.619999999999999218 -220.9799999999999613 #
ellipse-curve $-1 3.524958103184871819e-16 0 -93.98000000000000398 0 0 -1 -1.285645851931138451e-15 7.619999999999999218 0 1 I I #
ellipse-curve $-1 0 0 -220.9799999999999613 0 0 -1 0 7.619999999999999218 0 1 I I #
End-of-ACIS-data 