700 0 2 0           
24 FBMach with ACIS - 7.0.3 13 ACIS 7.0.3 NT 24 Wed May 15 14:39:13 2002 
1 9.9999999999999995e-007 1e-010 
body $2 -1 $-1 $3 $-1 $4 #
bdycol-kcp $-1 -1 1 2 $5 $6 #
model_id-kcp-attrib $-1 -1 $-1 $-1 $0 1 1021487952 1021487952 -1609629695 1 #
lump $-1 -1 $-1 $-1 $7 $0 #
transform $-1 -1 1 0 0 0 1 0 0 0 1 0 0 0 1 rotate no_reflect no_shear #
body $8 -1 $-1 $9 $-1 $10 #
body $11 -1 $-1 $12 $-1 $13 #
shell $-1 -1 $-1 $-1 $-1 $14 $-1 $3 #
model_id-kcp-attrib $-1 -1 $-1 $-1 $5 1 1021487952 1021487952 -1609629694 1 #
lump $-1 -1 $-1 $-1 $15 $5 #
transform $-1 -1 1 0 0 0 1 0 0 0 1 -6.1912499999999993 0 -100.96499999999997 1 no_rotate no_reflect no_shear #
rgb_color-st-attrib $-1 -1 $16 $-1 $6 1 0.5 1 #
lump $-1 -1 $-1 $-1 $17 $6 #
transform $-1 -1 1 0 0 0 1 0 0 0 1 -6.1912499999999993 0 -100.96499999999997 1 no_rotate no_reflect no_shear #
face $18 -1 $-1 $19 $20 $7 $-1 $21 reversed single #
shell $-1 -1 $-1 $-1 $-1 $22 $-1 $9 #
model_id-kcp-attrib $-1 -1 $-1 $11 $6 1 1021487952 1021487953 -1597964285 1 #
shell $-1 -1 $-1 $-1 $-1 $23 $-1 $12 #
model_id-kcp-attrib $-1 -1 $-1 $-1 $14 1 1021487952 1021487952 -1609629695 2 #
face $24 -1 $-1 $25 $26 $7 $-1 $27 forward single #
loop $-1 -1 $-1 $28 $29 $14 #
plane-surface $-1 -1 $-1 -4.7624999999999993 0 0 1 0 0 0 0 -25.399999999999999 forward_v I I I I #
face $-1 -1 $-1 $30 $31 $15 $-1 $32 forward single #
face $-1 -1 $-1 $33 $34 $17 $-1 $35 forward single #
model_id-kcp-attrib $-1 -1 $-1 $-1 $19 1 1021487952 1021487952 -1609629695 3 #
face $36 -1 $-1 $37 $38 $7 $-1 $39 forward single #
loop $-1 -1 $-1 $-1 $40 $19 #
cone-surface $-1 -1 $-1 -4.7624999999999993 0 0 1 0 0 0 0 -19.049999999999997 1 I I 0 1 19.049999999999997 forward I I I I #
loop $-1 -1 $-1 $-1 $41 $14 #
coedge $-1 -1 $-1 $42 $42 $43 $44 reversed $20 $-1 #
face $45 -1 $-1 $46 $47 $15 $-1 $48 reversed single #
loop $-1 -1 $-1 $-1 $49 $22 #
plane-surface $-1 -1 $-1 0 0 120.01499999999999 0 0 1 1 0 0 forward_v I I I I #
face $-1 -1 $-1 $50 $51 $17 $-1 $52 forward single #
loop $-1 -1 $-1 $-1 $53 $23 #
plane-surface $-1 -1 $-1 1.4287500000000106 5.9483605934744821 -120.01499999999997 0 0 -1 -1 0 0 forward_v I I I I #
model_id-kcp-attrib $-1 -1 $-1 $-1 $25 1 1021487952 1021487952 -1609629695 4 #
face $54 -1 $-1 $55 $56 $7 $-1 $57 forward single #
loop $-1 -1 $-1 $-1 $58 $25 #
cone-surface $-1 -1 $-1 0 0 -231.13999999999999 0 0 1 0 -4.7624999999999993 0 1 I I 0 1 4.7624999999999993 forward I I I I #
coedge $-1 -1 $-1 $59 $60 $58 $61 reversed $26 $-1 #
coedge $-1 -1 $-1 $62 $62 $63 $64 reversed $28 $-1 #
coedge $-1 -1 $-1 $29 $29 $65 $66 reversed $20 $-1 #
coedge $-1 -1 $-1 $60 $67 $29 $44 forward $26 $-1 #
edge $68 -1 $-1 $69 0 $70 3.1415926535897931 $29 $71 forward @7 unknown #
model_id-kcp-attrib $-1 -1 $-1 $-1 $30 1 1021487952 1021487952 -1609629694 2 #
face $-1 -1 $-1 $72 $73 $15 $-1 $74 reversed single #
loop $-1 -1 $-1 $-1 $75 $30 #
plane-surface $-1 -1 $-1 0 0 -120.01499999999999 0 0 1 1 0 0 forward_v I I I I #
coedge $-1 -1 $-1 $76 $77 $78 $79 forward $31 $-1 #
face $-1 -1 $-1 $80 $81 $17 $-1 $82 forward single #
loop $-1 -1 $-1 $-1 $83 $33 #
plane-surface $-1 -1 $-1 1.428750000000008 19.049999999999997 -120.01499999999997 0 1 0 0 0 1 forward_v I I I I #
coedge $-1 -1 $-1 $84 $85 $86 $87 forward $34 $-1 #
model_id-kcp-attrib $-1 -1 $-1 $-1 $37 1 1021487952 1021487952 -1609629695 5 #
face $88 -1 $-1 $89 $90 $7 $-1 $91 forward single #
loop $-1 -1 $-1 $-1 $92 $37 #
cone-surface $-1 -1 $-1 0 0 -231.13999999999999 0 0 1 0 -4.7624999999999993 0 1 I I 0 1 4.7624999999999993 forward I I I I #
coedge $-1 -1 $-1 $93 $94 $40 $61 forward $38 $-1 #
coedge $-1 -1 $-1 $67 $40 $95 $96 reversed $26 $-1 #
coedge $-1 -1 $-1 $40 $43 $97 $98 reversed $26 $-1 #
edge $-1 -1 $-1 $99 0 $100 1 $40 $101 forward @7 unknown #
coedge $-1 -1 $-1 $41 $41 $102 $103 reversed $28 $-1 #
coedge $-1 -1 $-1 $104 $105 $41 $64 forward $106 $-1 #
edge $107 -1 $-1 $108 0 $109 3.1415926535897931 $41 $110 forward @7 unknown #
coedge $-1 -1 $-1 $111 $112 $42 $66 forward $113 $-1 #
edge $114 -1 $-1 $70 0 $69 3.1415926535897931 $42 $115 forward @7 unknown #
coedge $-1 -1 $-1 $43 $59 $111 $116 reversed $26 $-1 #
attrib_edge_convexity-kcp-attrib $-1 -1 $117 $-1 $44 1 #
vertex $-1 -1 $-1 $66 $118 #
vertex $-1 -1 $-1 $66 $119 #
ellipse-curve $-1 -1 $-1 -4.7624999999999993 0 0 1 0 0 0 0 19.049999999999997 1 I I #
face $120 -1 $-1 $121 $122 $15 $-1 $123 reversed single #
loop $-1 -1 $-1 $-1 $124 $46 #
plane-surface $-1 -1 $-1 0 -19.049999999999997 0 0 1 0 0 0 1 forward_v I I I I #
coedge $-1 -1 $-1 $125 $126 $127 $128 forward $47 $-1 #
coedge $-1 -1 $-1 $129 $49 $130 $131 forward $31 $-1 #
coedge $-1 -1 $-1 $49 $129 $132 $133 forward $31 $-1 #
coedge $-1 -1 $-1 $134 $135 $49 $79 reversed $136 $-1 #
edge $-1 -1 $-1 $137 -19.049999999999997 $138 19.049999999999997 $78 $139 forward @7 unknown #
face $-1 -1 $-1 $140 $141 $17 $-1 $142 forward single #
loop $-1 -1 $-1 $-1 $143 $50 #
plane-surface $-1 -1 $-1 1.428750000000008 19.049999999999997 120.01499999999999 0 0 1 1 0 0 forward_v I I I I #
coedge $-1 -1 $-1 $144 $145 $146 $147 forward $51 $-1 #
coedge $-1 -1 $-1 $148 $53 $145 $149 reversed $34 $-1 #
coedge $-1 -1 $-1 $53 $148 $150 $151 forward $34 $-1 #
coedge $-1 -1 $-1 $152 $146 $53 $87 reversed $153 $-1 #
edge $-1 -1 $-1 $154 5.9483605934744821 $155 19.049999999999997 $53 $156 forward @7 unknown #
model_id-kcp-attrib $-1 -1 $-1 $-1 $55 1 1021487952 1021487952 -1609629695 6 #
face $157 -1 $-1 $158 $159 $7 $-1 $160 forward single #
loop $-1 -1 $-1 $-1 $161 $55 #
cone-surface $-1 -1 $-1 0 0 -102.44666666666666 0 0 1 0 -11.429999999999998 0 1 I I -0.41036467732879783 0.91192150517510639 11.429999999999998 forward I I I I #
coedge $-1 -1 $-1 $162 $163 $164 $165 forward $56 $-1 #
coedge $-1 -1 $-1 $166 $58 $167 $168 forward $38 $-1 #
coedge $-1 -1 $-1 $58 $164 $169 $170 forward $38 $-1 #
coedge $-1 -1 $-1 $171 $171 $59 $96 forward $172 $-1 #
edge $-1 -1 $-1 $173 0 $99 3.1415926535897931 $95 $174 forward @7 unknown #
coedge $-1 -1 $-1 $163 $167 $60 $98 forward $56 $-1 #
edge $-1 -1 $-1 $100 0 $70 1 $60 $175 forward @7 unknown #
vertex $-1 -1 $-1 $176 $177 #
vertex $-1 -1 $-1 $98 $178 #
intcurve-curve $-1 -1 $-1 forward { surfintcur full nurbs 3 open 10 
	0 3 0.11083389598628407 1 0.22200451084911069 1 0.33330104592735843 1 0.44450475212120755 1 
	0.55549775501324583 1 0.66668610437182829 1 0.77797857371941681 1 0.88915446391426978 1 1 3 
	4.7624999999999993 -4.665750208063257e-015 -19.049999999999997 1 
	4.7633654088906203 -0.27042274708988023 -19.049966276517665 1 
	4.7171257754409872 -0.80877834531598769 -19.038687953481958 1 
	4.503123528310665 -1.6264886050035807 -18.986135513362125 1 
	4.1447911670765647 -2.396207986328418 -18.903523903344563 1.0000000000000002 
	3.6597034341776524 -3.0844435686687262 -18.802257647962016 1 
	3.0837673122263602 -3.6601731607731804 -18.697652611403552 1 
	2.3969501327246134 -4.14427536520905 -18.595442824385923 1.0000000000000002 
	1.627669093797808 -4.5027034434188105 -18.51100837732875 1 
	0.80970447505273013 -4.717012964089581 -18.456792015902487 0.99999999999999989 
	0.27079957930454435 -4.7633361693862692 -18.445159121857266 1 
	0 -4.7625000000000064 -18.445083186312822 1 
	0.025399999999999999 
	cone -4.7624999999999993 0 0 1 0 0 0 0 -19.049999999999997 1 I I 0 1 19.049999999999997 forward I I I I 
	cone 0 0 -231.13999999999999 0 0 1 0 -4.7624999999999993 0 1 I I 0 1 4.7624999999999993 forward I I I I 
	nullbs 
	nullbs 
	I I 
	0 
	0 
	0 
	} I I #
coedge $-1 -1 $-1 $179 $180 $62 $103 forward $181 $-1 #
edge $182 -1 $-1 $109 0 $108 3.1415926535897931 $62 $183 forward @7 unknown #
coedge $-1 -1 $-1 $184 $63 $180 $185 forward $106 $-1 #
coedge $-1 -1 $-1 $63 $184 $179 $186 reversed $106 $-1 #
loop $-1 -1 $-1 $-1 $104 $187 #
attrib_edge_convexity-kcp-attrib $-1 -1 $188 $-1 $64 2 #
vertex $-1 -1 $-1 $103 $189 #
vertex $-1 -1 $-1 $103 $190 #
ellipse-curve $-1 -1 $-1 -4.7624999999999993 0 0 -1 0 0 0 0 -12.699999999999999 1 I I #
coedge $-1 -1 $-1 $191 $65 $67 $116 forward $113 $-1 #
coedge $-1 -1 $-1 $65 $169 $163 $192 reversed $113 $-1 #
loop $-1 -1 $-1 $-1 $65 $193 #
attrib_edge_convexity-kcp-attrib $-1 -1 $194 $-1 $66 1 #
ellipse-curve $-1 -1 $-1 -4.7624999999999993 0 0 1 0 0 0 0 -19.049999999999997 1 I I #
edge $-1 -1 $-1 $69 0 $173 0.37499999999999994 $111 $195 forward @7 unknown #
convexity-sys-attrib $-1 -1 $-1 $68 $44 #
point $-1 -1 $-1 -4.7624999999999993 0 19.049999999999997 #
point $-1 -1 $-1 -4.7624999999999993 0 -19.049999999999997 #
model_id-kcp-attrib $-1 -1 $-1 $-1 $72 1 1021487952 1021487952 -1609629694 3 #
face $-1 -1 $-1 $196 $197 $15 $-1 $198 reversed single #
loop $-1 -1 $-1 $-1 $199 $72 #
plane-surface $-1 -1 $-1 -13.811249999999998 0 0 1 0 0 0 0 -1 forward_v I I I I #
coedge $-1 -1 $-1 $200 $132 $201 $202 forward $73 $-1 #
coedge $-1 -1 $-1 $203 $75 $200 $204 forward $47 $-1 #
coedge $-1 -1 $-1 $75 $203 $205 $206 forward $47 $-1 #
coedge $-1 -1 $-1 $135 $134 $75 $128 reversed $136 $-1 #
edge $-1 -1 $-1 $207 -19.049999999999997 $208 19.049999999999997 $127 $209 forward @7 unknown #
coedge $-1 -1 $-1 $77 $76 $210 $211 forward $31 $-1 #
coedge $-1 -1 $-1 $212 $213 $76 $131 reversed $197 $-1 #
edge $-1 -1 $-1 $138 -13.811249999999998 $214 13.811249999999998 $130 $215 forward @7 unknown #
coedge $-1 -1 $-1 $124 $216 $77 $133 reversed $73 $-1 #
edge $-1 -1 $-1 $217 -13.811249999999998 $137 13.811249999999998 $132 $218 forward @7 unknown #
coedge $-1 -1 $-1 $127 $78 $216 $219 forward $136 $-1 #
coedge $-1 -1 $-1 $78 $127 $212 $220 reversed $136 $-1 #
loop $-1 -1 $-1 $-1 $134 $196 #
vertex $-1 -1 $-1 $79 $221 #
vertex $-1 -1 $-1 $79 $222 #
straight-curve $-1 -1 $-1 13.811249999999998 0 120.01499999999999 0 1 0 I I #
face $-1 -1 $-1 $223 $224 $17 $-1 $225 forward single #
loop $-1 -1 $-1 $-1 $226 $80 #
plane-surface $-1 -1 $-1 1.428750000000008 -19.049999999999997 120.01499999999999 0 -1 0 0 0 -1 forward_v I I I I #
coedge $-1 -1 $-1 $227 $228 $229 $230 forward $81 $-1 #
coedge $-1 -1 $-1 $231 $83 $228 $232 reversed $51 $-1 #
coedge $-1 -1 $-1 $83 $231 $84 $149 forward $51 $-1 #
coedge $-1 -1 $-1 $86 $229 $83 $147 reversed $153 $-1 #
edge $-1 -1 $-1 $155 -170.49749999999995 $233 69.532499999999999 $83 $234 forward @7 unknown #
coedge $-1 -1 $-1 $85 $84 $235 $236 reversed $34 $-1 #
edge $-1 -1 $-1 $237 0 $155 15.239999999999998 $145 $238 forward @7 unknown #
coedge $-1 -1 $-1 $239 $240 $85 $151 reversed $241 $-1 #
edge $-1 -1 $-1 $242 0 $154 15.239999999999998 $85 $243 forward @7 unknown #
coedge $-1 -1 $-1 $244 $86 $240 $245 reversed $153 $-1 #
loop $-1 -1 $-1 $-1 $86 $246 #
vertex $-1 -1 $-1 $151 $247 #
vertex $-1 -1 $-1 $149 $248 #
straight-curve $-1 -1 $-1 -13.81124999999999 0 -120.01499999999999 0 1 0 I I #
model_id-kcp-attrib $-1 -1 $-1 $-1 $89 1 1021487952 1021487952 -1609629695 7 #
face $249 -1 $-1 $250 $251 $7 $-1 $252 reversed single #
loop $-1 -1 $-1 $-1 $253 $89 #
cone-surface $-1 -1 $-1 0 0 -231.13999999999999 0 0 1 0 -7.6199999999999992 0 1 I I 0 1 7.6199999999999992 forward I I I I #
coedge $-1 -1 $-1 $254 $255 $256 $257 forward $90 $-1 #
coedge $-1 -1 $-1 $167 $92 $258 $259 forward $56 $-1 #
coedge $-1 -1 $-1 $92 $97 $112 $192 forward $56 $-1 #
coedge $-1 -1 $-1 $94 $166 $92 $165 reversed $38 $-1 #
edge $-1 -1 $-1 $260 4.1961185182683086e-016 $261 2.723815622586109 $92 $262 forward @7 unknown #
coedge $-1 -1 $-1 $164 $93 $263 $264 reversed $38 $-1 #
coedge $-1 -1 $-1 $97 $162 $93 $168 reversed $56 $-1 #
edge $-1 -1 $-1 $100 2.7974123455122054e-016 $265 2.723815622586109 $167 $266 forward @7 unknown #
coedge $-1 -1 $-1 $112 $191 $94 $170 reversed $113 $-1 #
edge $-1 -1 $-1 $260 0 $99 1 $169 $267 forward @7 unknown #
coedge $-1 -1 $-1 $95 $95 $191 $176 forward $172 $-1 #
loop $-1 -1 $-1 $-1 $95 $268 #
vertex $-1 -1 $-1 $176 $269 #
ellipse-curve $-1 -1 $-1 4.7624999999999993 0 0 1 0 0 0 0 19.049999999999997 1 I I #
intcurve-curve $-1 -1 $-1 forward { surfintcur full nurbs 3 open 10 
	0 3 0.11085940036168479 1 0.22204687690921418 1 0.33333972707082804 1 0.44451930417949193 1 
	0.55551290092639605 1 0.66672474359581546 1 0.77802050375837883 1 0.88918103589196706 1 1 3 
	0 -4.7625000000000064 -18.445083186312822 1 
	-0.27118294542657517 -4.7633267525597489 -18.445162850065451 0.99999999999999989 
	-0.81073129402840793 -4.7169040368050421 -18.45682010171819 1 
	-1.6296092843338092 -4.5020445484748537 -18.511172462122509 1 
	-2.3987283510221835 -4.1431984549668428 -18.595682703973218 1 
	-3.0846111897086126 -3.6594113824319505 -18.697798538864735 1 
	-3.6605220358507955 -3.0835393993954008 -18.802413756184354 1.0000000000000002 
	-4.1458552641701969 -2.3944293585497278 -18.903757850759607 0.99999999999999989 
	-4.5037644837075081 -1.6246177040979757 -18.986290635166117 1.0000000000000002 
	-4.7172565926540946 -0.80762962231653423 -19.038720565864825 0.99999999999999978 
	-4.7633845643795292 -0.26998471229323601 -19.049972133247778 1.0000000000000002 
	-4.7624999999999993 -4.665750208063257e-015 -19.049999999999997 1 
	0.025399999999999999 
	cone -4.7624999999999993 0 0 1 0 0 0 0 -19.049999999999997 1 I I 0 1 19.049999999999997 forward I I I I 
	cone 0 0 -231.13999999999999 0 0 1 0 -4.7624999999999993 0 1 I I 0 1 4.7624999999999993 forward I I I I 
	nullbs 
	nullbs 
	I I 
	0 
	0 
	0 
	} I I #
edge $-1 -1 $-1 $99 0 $173 3.1415926535897931 $171 $270 forward @7 unknown #
point $-1 -1 $-1 4.7624999999999993 0 -19.049999999999997 #
point $-1 -1 $-1 0 -4.7625000000000064 -18.445083186312822 #
coedge $-1 -1 $-1 $271 $102 $105 $186 forward $181 $-1 #
coedge $-1 -1 $-1 $102 $271 $104 $185 reversed $181 $-1 #
loop $-1 -1 $-1 $-1 $179 $272 #
attrib_edge_convexity-kcp-attrib $-1 -1 $273 $-1 $103 2 #
ellipse-curve $-1 -1 $-1 -4.7624999999999993 0 0 -1 0 0 0 0 12.699999999999999 1 I I #
coedge $-1 -1 $-1 $105 $104 $274 $275 reversed $106 $-1 #
edge $-1 -1 $-1 $109 0 $276 0.59999999999999998 $180 $277 forward @7 unknown #
edge $-1 -1 $-1 $108 0 $278 0.59999999999999998 $179 $279 forward @7 unknown #
face $280 -1 $-1 $272 $106 $7 $-1 $281 forward single #
convexity-sys-attrib $-1 -1 $-1 $107 $64 #
point $-1 -1 $-1 -4.7624999999999993 0 -12.699999999999999 #
point $-1 -1 $-1 -4.7624999999999993 0 12.699999999999999 #
coedge $-1 -1 $-1 $169 $111 $171 $176 reversed $113 $-1 #
edge $-1 -1 $-1 $70 0 $260 1 $112 $282 forward @7 unknown #
face $283 -1 $-1 $268 $113 $7 $-1 $284 forward single #
convexity-sys-attrib $-1 -1 $-1 $114 $66 #
straight-curve $-1 -1 $-1 -4.7624999999999993 2.3328751040316285e-015 19.049999999999997 25.399999999999999 0 0 I I #
face $-1 -1 $-1 $-1 $136 $15 $-1 $285 reversed single #
loop $-1 -1 $-1 $-1 $212 $121 #
plane-surface $-1 -1 $-1 0 19.049999999999997 0 0 -1 0 0 0 -1 forward_v I I I I #
coedge $-1 -1 $-1 $286 $210 $213 $287 forward $122 $-1 #
coedge $-1 -1 $-1 $216 $124 $125 $204 reversed $73 $-1 #
coedge $-1 -1 $-1 $210 $286 $124 $202 reversed $122 $-1 #
edge $-1 -1 $-1 $217 -120.01499999999999 $288 120.01499999999999 $201 $289 forward @7 unknown #
coedge $-1 -1 $-1 $126 $125 $286 $290 forward $47 $-1 #
edge $-1 -1 $-1 $208 -13.811249999999998 $288 13.811249999999998 $200 $291 forward @7 unknown #
coedge $-1 -1 $-1 $213 $212 $126 $206 reversed $197 $-1 #
edge $-1 -1 $-1 $292 -13.811249999999998 $207 13.811249999999998 $205 $293 forward @7 unknown #
vertex $-1 -1 $-1 $128 $294 #
vertex $-1 -1 $-1 $219 $295 #
straight-curve $-1 -1 $-1 13.811249999999998 0 -120.01499999999999 0 -1 0 I I #
coedge $-1 -1 $-1 $199 $201 $129 $211 reversed $122 $-1 #
edge $-1 -1 $-1 $214 -19.049999999999997 $217 19.049999999999997 $210 $296 forward @7 unknown #
coedge $-1 -1 $-1 $205 $130 $135 $220 forward $197 $-1 #
coedge $-1 -1 $-1 $130 $205 $199 $287 reversed $197 $-1 #
vertex $-1 -1 $-1 $131 $297 #
straight-curve $-1 -1 $-1 0 19.049999999999997 120.01499999999999 -1 0 0 I I #
coedge $-1 -1 $-1 $132 $200 $134 $219 reversed $73 $-1 #
vertex $-1 -1 $-1 $211 $298 #
straight-curve $-1 -1 $-1 0 -19.049999999999997 120.01499999999999 1 0 0 I I #
edge $-1 -1 $-1 $137 -120.01499999999999 $208 120.01499999999999 $134 $299 forward @7 unknown #
edge $-1 -1 $-1 $138 -120.01499999999999 $207 120.01499999999999 $135 $300 forward @7 unknown #
point $-1 -1 $-1 13.811249999999998 -19.049999999999997 120.01499999999999 #
point $-1 -1 $-1 13.811249999999998 19.049999999999997 120.01499999999999 #
face $-1 -1 $-1 $301 $302 $17 $-1 $303 forward single #
loop $-1 -1 $-1 $-1 $304 $140 #
plane-surface $-1 -1 $-1 1.428750000000008 -19.049999999999997 -120.01499999999997 0 0 -1 -1 0 0 forward_v I I I I #
coedge $-1 -1 $-1 $305 $306 $307 $308 forward $141 $-1 #
coedge $-1 -1 $-1 $309 $143 $306 $310 reversed $81 $-1 #
coedge $-1 -1 $-1 $143 $309 $144 $232 forward $81 $-1 #
coedge $-1 -1 $-1 $146 $307 $143 $230 reversed $153 $-1 #
edge $-1 -1 $-1 $233 -19.049999999999997 $311 19.049999999999997 $143 $312 forward @7 unknown #
coedge $-1 -1 $-1 $145 $144 $313 $314 reversed $51 $-1 #
edge $-1 -1 $-1 $315 0 $233 15.239999999999998 $228 $316 forward @7 unknown #
vertex $-1 -1 $-1 $232 $317 #
straight-curve $-1 -1 $-1 -13.81124999999999 19.049999999999997 50.482499999999987 0 0 1 I I #
coedge $-1 -1 $-1 $313 $318 $148 $236 forward $319 $-1 #
edge $320 -1 $-1 $242 5.9483605934744821 $237 19.049999999999997 $148 $321 forward @7 unknown #
vertex $-1 -1 $-1 $236 $322 #
straight-curve $-1 -1 $-1 1.428750000000008 19.049999999999997 -120.01499999999997 -1 0 0 I I #
coedge $-1 -1 $-1 $323 $150 $318 $324 reversed $241 $-1 #
coedge $-1 -1 $-1 $150 $323 $152 $245 forward $241 $-1 #
loop $-1 -1 $-1 $-1 $240 $325 #
vertex $-1 -1 $-1 $324 $326 #
straight-curve $-1 -1 $-1 1.4287500000000106 5.9483605934744821 -120.01499999999997 -1 0 0 I I #
coedge $-1 -1 $-1 $327 $152 $328 $329 reversed $153 $-1 #
edge $-1 -1 $-1 $330 -137.15999999999997 $154 -10.160000000000039 $240 $331 forward @7 unknown #
face $-1 -1 $-1 $332 $333 $17 $-1 $334 reversed single #
point $-1 -1 $-1 -13.811249999999987 5.9483605934744821 -120.01499999999997 #
point $-1 -1 $-1 -13.81124999999999 19.049999999999997 -120.01499999999997 #
model_id-kcp-attrib $-1 -1 $-1 $-1 $158 1 1021487952 1021487952 -1609629695 8 #
face $335 -1 $-1 $336 $337 $7 $-1 $338 forward single #
loop $-1 -1 $-1 $-1 $339 $158 #
plane-surface $-1 -1 $-1 0 0 -220.97999999999996 0 0 1 0 -25.399999999999999 0 forward_v I I I I #
coedge $-1 -1 $-1 $340 $341 $339 $342 forward $159 $-1 #
coedge $-1 -1 $-1 $258 $161 $343 $344 reversed $90 $-1 #
coedge $-1 -1 $-1 $161 $258 $345 $346 forward $90 $-1 #
coedge $-1 -1 $-1 $341 $340 $161 $257 reversed $159 $-1 #
edge $-1 -1 $-1 $347 5.434385993627848e-032 $348 3.1415926535897931 $161 $349 forward @7 unknown #
coedge $-1 -1 $-1 $255 $254 $162 $259 reversed $90 $-1 #
edge $-1 -1 $-1 $261 0 $265 3.1415926535897931 $162 $350 forward @7 unknown #
vertex $-1 -1 $-1 $192 $351 #
vertex $-1 -1 $-1 $259 $352 #
straight-curve $-1 -1 $-1 -5.8321877600790713e-016 4.7624999999999993 -18.445083186312814 0 0 -25.399999999999999 I I #
coedge $-1 -1 $-1 $343 $345 $166 $264 forward $353 $-1 #
edge $-1 -1 $-1 $261 0 $265 3.1415926535897931 $166 $354 forward @7 unknown #
vertex $-1 -1 $-1 $168 $355 #
straight-curve $-1 -1 $-1 1.1664375520158143e-015 -4.7624999999999993 -18.445083186312814 0 0 -25.399999999999999 I I #
intcurve-curve $-1 -1 $-1 forward { surfintcur full nurbs 3 open 10 
	0 3 0.11085981676458356 1 0.22204754812473074 1 0.33334048827720941 1 0.44451982318765815 1 
	0.55551334708477373 1 0.66672536767471025 1 0.77802109310189249 1 0.88918168049785884 1 1 3 
	5.9219296133505847e-014 4.7624999999999966 -18.445083186312825 1 
	0.27119543852988043 4.763326114271516 -18.445163047873347 1 
	0.81076423042712487 4.7168999906255618 -18.45682113656926 1.0000000000000004 
	1.6296576434003114 4.5020281556151076 -18.511176553512875 0.99999999999999989 
	2.3987823070334282 4.1431666158665621 -18.595689841513604 1 
	3.0846378068913243 3.6593868092579118 -18.697803201225454 0.99999999999999989 
	3.6605416789963847 3.0835178623560209 -18.802417514661549 1.0000000000000002 
	4.1458815874991384 2.3943837526848162 -18.903763645645977 1 
	4.5037782750493314 1.6245814181383209 -18.98629396934183 0.99999999999999978 
	4.7172650689192768 0.80757145930581409 -19.038722663696444 1.0000000000000004 
	4.763387254273451 0.26996064600105185 -19.049972824745318 0.99999999999999989 
	4.7624999999999993 0 -19.049999999999997 1 
	0.025399999999999999 
	cone -4.7624999999999993 0 0 1 0 0 0 0 -19.049999999999997 1 I I 0 1 19.049999999999997 forward I I I I 
	cone 0 0 -231.13999999999999 0 0 1 0 -4.7624999999999993 0 1 I I 0 1 4.7624999999999993 forward I I I I 
	nullbs 
	nullbs 
	I I 
	0 
	0 
	0 
	} I I #
face $356 -1 $-1 $187 $172 $7 $-1 $357 forward single #
point $-1 -1 $-1 4.7624999999999993 0 19.049999999999997 #
ellipse-curve $-1 -1 $-1 4.7624999999999993 0 0 1 0 0 0 0 -19.049999999999997 1 I I #
coedge $-1 -1 $-1 $180 $179 $358 $359 reversed $181 $-1 #
face $360 -1 $-1 $361 $181 $7 $-1 $362 forward single #
convexity-sys-attrib $-1 -1 $-1 $182 $103 #
coedge $-1 -1 $-1 $358 $358 $184 $275 forward $363 $-1 #
edge $364 -1 $-1 $278 0 $276 3.1415926535897931 $274 $365 forward @7 unknown #
vertex $-1 -1 $-1 $359 $366 #
straight-curve $-1 -1 $-1 -4.7624999999999993 0 12.699999999999999 -25.399999999999999 0 0 I I #
vertex $-1 -1 $-1 $359 $367 #
straight-curve $-1 -1 $-1 -4.7624999999999993 1.5552500693544191e-015 -12.699999999999999 -25.399999999999999 0 0 I I #
model_id-kcp-attrib $-1 -1 $-1 $-1 $187 1 1021487952 1021487952 -1609629695 13 #
cone-surface $-1 -1 $-1 -4.7624999999999993 0 0 -1 0 0 0 0 12.699999999999999 1 I I 0 1 12.699999999999999 forward I I I I #
intcurve-curve $-1 -1 $-1 forward { surfintcur full nurbs 3 open 10 
	0 3 0.11083315577967216 1 0.22200385541052509 1 0.33330035944666475 1 0.44450419599412999 1 
	0.55549713446325699 1 0.66668521054714458 1 0.77797778525742778 1 0.88915397368201821 1 1 3 
	-4.7624999999999993 0 -19.049999999999997 1 
	-4.7633685835774626 0.2703948879188704 -19.049967090920145 1 
	-4.7171355295084707 0.80871135180836506 -19.038690372031677 1 
	-4.5031391813528652 1.6264483257953459 -18.986139281794127 1 
	-4.1448191045699563 2.3961589953827276 -18.903530076362976 1 
	-3.6597292698428463 3.0844146340840521 -18.802262620130936 1.0000000000000002 
	-3.0837988366576816 3.6601444513260608 -18.697658100667056 0.99999999999999978 
	-2.3970134841182573 4.144237940332463 -18.59545120411105 1 
	-1.6277259015719006 4.5026842251589505 -18.511013178061216 0.99999999999999978 
	-0.80974327558056658 4.7170081938640722 -18.456793234832656 1 
	-0.27081430564450243 4.7633354125982494 -18.445159355873908 1 
	5.9219296133505847e-014 4.7624999999999966 -18.445083186312825 1 
	0.025399999999999999 
	cone -4.7624999999999993 0 0 1 0 0 0 0 -19.049999999999997 1 I I 0 1 19.049999999999997 forward I I I I 
	cone 0 0 -231.13999999999999 0 0 1 0 -4.7624999999999993 0 1 I I 0 1 4.7624999999999993 forward I I I I 
	nullbs 
	nullbs 
	I I 
	0 
	0 
	0 
	} I I #
model_id-kcp-attrib $-1 -1 $-1 $-1 $193 1 1021487952 1021487952 -1609629695 11 #
cone-surface $-1 -1 $-1 -4.7624999999999993 0 0 1 0 0 0 0 -19.049999999999997 1 I I 0 1 19.049999999999997 forward I I I I #
plane-surface $-1 -1 $-1 13.811249999999998 0 0 -1 0 0 0 0 1 forward_v I I I I #
coedge $-1 -1 $-1 $201 $199 $203 $290 reversed $122 $-1 #
edge $-1 -1 $-1 $214 -120.01499999999999 $292 120.01499999999999 $213 $368 forward @7 unknown #
vertex $-1 -1 $-1 $290 $369 #
straight-curve $-1 -1 $-1 -13.811249999999998 -19.049999999999997 0 0 0 -1 I I #
edge $-1 -1 $-1 $288 -19.049999999999997 $292 19.049999999999997 $286 $370 forward @7 unknown #
straight-curve $-1 -1 $-1 0 -19.049999999999997 -120.01499999999999 -1 0 0 I I #
vertex $-1 -1 $-1 $206 $371 #
straight-curve $-1 -1 $-1 0 19.049999999999997 -120.01499999999999 1 0 0 I I #
point $-1 -1 $-1 13.811249999999998 19.049999999999997 -120.01499999999999 #
point $-1 -1 $-1 13.811249999999998 -19.049999999999997 -120.01499999999999 #
straight-curve $-1 -1 $-1 -13.811249999999998 0 120.01499999999999 0 -1 0 I I #
point $-1 -1 $-1 -13.811249999999998 19.049999999999997 120.01499999999999 #
point $-1 -1 $-1 -13.811249999999998 -19.049999999999997 120.01499999999999 #
straight-curve $-1 -1 $-1 13.811249999999998 -19.049999999999997 0 0 0 -1 I I #
straight-curve $-1 -1 $-1 13.811249999999998 19.049999999999997 0 0 0 -1 I I #
face $-1 -1 $-1 $372 $373 $17 $-1 $374 forward single #
loop $-1 -1 $-1 $-1 $375 $223 #
plane-surface $-1 -1 $-1 1.4287500000000106 -5.9483605934744821 -120.01499999999997 0 1 0 0 0 1 forward_v I I I I #
coedge $-1 -1 $-1 $376 $377 $378 $379 forward $224 $-1 #
coedge $-1 -1 $-1 $380 $226 $377 $381 reversed $141 $-1 #
coedge $-1 -1 $-1 $226 $380 $227 $310 forward $141 $-1 #
coedge $-1 -1 $-1 $229 $378 $226 $308 reversed $153 $-1 #
edge $-1 -1 $-1 $311 -69.532499999999999 $382 170.49749999999995 $226 $383 forward @7 unknown #
coedge $-1 -1 $-1 $228 $227 $384 $385 reversed $81 $-1 #
edge $-1 -1 $-1 $386 0 $311 15.239999999999998 $306 $387 forward @7 unknown #
vertex $-1 -1 $-1 $310 $388 #
straight-curve $-1 -1 $-1 -13.81124999999999 0 120.01499999999999 0 -1 0 I I #
coedge $-1 -1 $-1 $384 $235 $231 $314 forward $319 $-1 #
edge $389 -1 $-1 $237 -170.49749999999997 $315 69.532499999999999 $231 $390 forward @7 unknown #
vertex $-1 -1 $-1 $314 $391 #
straight-curve $-1 -1 $-1 1.428750000000008 19.049999999999997 120.01499999999999 -1 0 0 I I #
point $-1 -1 $-1 -13.81124999999999 19.049999999999997 120.01499999999999 #
coedge $-1 -1 $-1 $235 $392 $239 $324 forward $319 $-1 #
loop $-1 -1 $-1 $-1 $318 $332 #
convexity-sys-attrib $-1 -1 $-1 $-1 $236 #
straight-curve $-1 -1 $-1 1.428750000000008 0 -120.01499999999999 0 1 0 I I #
point $-1 -1 $-1 1.428750000000008 19.049999999999997 -120.01499999999999 #
coedge $-1 -1 $-1 $240 $239 $393 $394 forward $241 $-1 #
edge $395 -1 $-1 $396 -137.15999999999997 $242 -10.160000000000025 $239 $397 forward @7 unknown #
face $-1 -1 $-1 $398 $241 $17 $-1 $399 forward single #
point $-1 -1 $-1 1.4287500000000106 5.9483605934744821 -120.01499999999999 #
coedge $-1 -1 $-1 $400 $244 $401 $402 reversed $153 $-1 #
coedge $-1 -1 $-1 $393 $403 $244 $329 forward $404 $405 #
edge $-1 -1 $-1 $406 8.9031709471763936 $330 17.806341894352787 $328 $407 forward @7 unknown #
vertex $-1 -1 $-1 $394 $408 #
straight-curve $-1 -1 $-1 -13.81124999999999 5.9483605934744803 -130.17500000000001 0 0 -1 I I #
face $-1 -1 $-1 $-1 $409 $17 $-1 $410 forward single #
loop $-1 -1 $-1 $153 $411 $246 #
plane-surface $-1 -1 $-1 -13.81124999999999 -4.163336342344337e-016 -5.2100158218045465 1 -3.7658125701940768e-019 -2.4400381712467123e-019 -2.4400381712467123e-019 0 -1 forward_v I I I I #
model_id-kcp-attrib $-1 -1 $-1 $-1 $250 1 1021487952 1021487952 -1609629695 9 #
face $412 -1 $-1 $193 $353 $7 $-1 $413 forward single #
loop $-1 -1 $-1 $-1 $414 $250 #
cone-surface $-1 -1 $-1 0 0 -231.13999999999999 0 0 1 0 -7.6199999999999992 0 1 I I 0 1 7.6199999999999992 forward I I I I #
coedge $-1 -1 $-1 $415 $415 $253 $342 reversed $251 $-1 #
coedge $-1 -1 $-1 $256 $253 $416 $417 reversed $159 $-1 #
coedge $-1 -1 $-1 $253 $256 $418 $419 forward $159 $-1 #
edge $420 -1 $-1 $421 1.2246063538223773e-016 $422 3.1415926535897931 $253 $423 forward @7 unknown #
coedge $-1 -1 $-1 $424 $263 $254 $344 forward $353 $-1 #
edge $-1 -1 $-1 $265 -4.6155584115990985e-033 $348 0.27414640249326722 $254 $425 forward @7 unknown #
coedge $-1 -1 $-1 $263 $424 $255 $346 reversed $353 $-1 #
edge $-1 -1 $-1 $261 0 $347 0.27414640249326666 $255 $426 forward @7 unknown #
vertex $-1 -1 $-1 $346 $427 #
vertex $-1 -1 $-1 $344 $428 #
ellipse-curve $-1 -1 $-1 7.0499162063697436e-016 0 -93.980000000000004 0 0 1 -1.6381416622496255e-015 7.6199999999999992 0 1 I I #
ellipse-curve $-1 -1 $-1 -1.7624790515924359e-016 0 -87.629999999999981 0 0 1 -4.0697087084866354e-016 4.7624999999999993 0 1 I I #
point $-1 -1 $-1 5.9219296133505847e-014 4.7624999999999966 -18.445083186312825 #
point $-1 -1 $-1 -5.8321877600790713e-016 4.7624999999999993 -87.629999999999981 #
loop $-1 -1 $-1 $-1 $263 $336 #
ellipse-curve $-1 -1 $-1 1.7624790515924359e-016 -1.7624790515924359e-016 -87.629999999999981 0 0 -1 -7.5946668116715077e-016 4.7624999999999993 0 1 I I #
point $-1 -1 $-1 0 -4.7624999999999993 -87.629999999999981 #
model_id-kcp-attrib $-1 -1 $-1 $-1 $268 1 1021487952 1021487952 -1609629695 12 #
plane-surface $-1 -1 $-1 4.7624999999999993 0 0 1 0 0 0 0 -25.399999999999999 forward_v I I I I #
coedge $-1 -1 $-1 $274 $274 $271 $359 forward $363 $-1 #
edge $429 -1 $-1 $276 0 $278 3.1415926535897931 $358 $430 forward @7 unknown #
model_id-kcp-attrib $-1 -1 $-1 $-1 $272 1 1021487952 1021487952 -1609629695 14 #
face $431 -1 $-1 $-1 $363 $7 $-1 $432 forward single #
cone-surface $-1 -1 $-1 -4.7624999999999993 0 0 -1 0 0 0 0 12.699999999999999 1 I I 0 1 12.699999999999999 forward I I I I #
loop $-1 -1 $-1 $-1 $274 $361 #
attrib_edge_convexity-kcp-attrib $-1 -1 $433 $-1 $275 1 #
ellipse-curve $-1 -1 $-1 -20.002499999999998 0 0 -1 0 0 0 0 -12.699999999999999 1 I I #
point $-1 -1 $-1 -20.002499999999998 0 12.699999999999999 #
point $-1 -1 $-1 -20.002499999999998 0 -12.699999999999999 #
straight-curve $-1 -1 $-1 -13.811249999999998 19.049999999999997 0 0 0 -1 I I #
point $-1 -1 $-1 -13.811249999999998 -19.049999999999997 -120.01499999999999 #
straight-curve $-1 -1 $-1 -13.811249999999998 0 -120.01499999999999 0 1 0 I I #
point $-1 -1 $-1 -13.811249999999998 19.049999999999997 -120.01499999999999 #
face $-1 -1 $-1 $325 $404 $17 $-1 $434 forward single #
loop $-1 -1 $-1 $-1 $401 $301 #
spline-surface $-1 -1 $-1 forward { sumsur 
	straight 1.4287500000000106 -5.9483605934744812 6.984999999999971 -1 0 0 I I 
	intcurve forward { exactcur full nurbs 2 open 2 
	0 2 8.9031709471763936 2 
	1.4287500000000075 -5.9483605934744856 6.9849999999999728 1 
	1.4287500000000077 -2.2878309974901874 13.334999999999994 1.140175425099142 
	1.4287500000000106 0 13.334999999999994 1 
	0 
	null_surface 
	null_surface 
	nullbs 
	nullbs 
	I I 
	0 
	0 
	0 
	F 1 F 0 } I I 
	1.4287500000000106 -5.9483605934744812 6.984999999999971 
	none F 0 F 15.239999999999998 F 0 F 8.9031709471763936 OPEN OPEN NON_SINGULAR NON_SINGULAR 
	0 
	0 
	0 
	0 
	0 
	0 
	} I I I I #
coedge $-1 -1 $-1 $435 $436 $400 $437 forward $302 $-1 #
coedge $-1 -1 $-1 $438 $304 $436 $439 reversed $224 $-1 #
coedge $-1 -1 $-1 $304 $438 $305 $381 forward $224 $-1 #
coedge $-1 -1 $-1 $307 $400 $304 $379 reversed $153 $-1 #
edge $-1 -1 $-1 $382 -19.049999999999997 $440 -5.9483605934744821 $304 $441 forward @7 unknown #
coedge $-1 -1 $-1 $306 $305 $442 $443 reversed $141 $-1 #
edge $-1 -1 $-1 $444 0 $382 15.239999999999998 $377 $445 forward @7 unknown #
vertex $-1 -1 $-1 $381 $446 #
straight-curve $-1 -1 $-1 -13.81124999999999 -19.049999999999997 50.482499999999987 0 0 -1 I I #
coedge $-1 -1 $-1 $442 $313 $309 $385 forward $319 $-1 #
edge $447 -1 $-1 $315 -19.049999999999997 $386 19.049999999999997 $309 $448 forward @7 unknown #
vertex $-1 -1 $-1 $385 $449 #
straight-curve $-1 -1 $-1 1.428750000000008 -19.049999999999997 120.01499999999999 -1 0 0 I I #
point $-1 -1 $-1 -13.81124999999999 -19.049999999999997 120.01499999999999 #
convexity-sys-attrib $-1 -1 $-1 $-1 $314 #
straight-curve $-1 -1 $-1 1.428750000000008 19.049999999999997 50.482499999999987 0 0 1 I I #
point $-1 -1 $-1 1.428750000000008 19.049999999999997 120.01499999999999 #
coedge $-1 -1 $-1 $318 $450 $451 $452 forward $319 $-1 #
coedge $-1 -1 $-1 $451 $328 $323 $394 reversed $404 $453 #
edge $-1 -1 $-1 $396 0 $330 15.239999999999998 $323 $454 forward @7 unknown #
convexity-sys-attrib $-1 -1 $-1 $-1 $324 #
vertex $-1 -1 $-1 $324 $455 #
straight-curve $-1 -1 $-1 1.428750000000008 5.9483605934744803 -130.17500000000001 0 0 -1 I I #
face $-1 -1 $-1 $246 $456 $17 $-1 $457 forward single #
plane-surface $-1 -1 $-1 1.4287500000000106 5.9483605934744812 6.984999999999971 0 -1 0 0 0 -1 forward_v I I I I #
coedge $-1 -1 $-1 $378 $327 $375 $437 reversed $153 $-1 #
coedge $-1 -1 $-1 $458 $459 $327 $402 forward $373 $460 #
edge $-1 -1 $-1 $461 0 $406 8.9031709471763936 $401 $462 forward @7 unknown #
coedge $-1 -1 $-1 $328 $451 $458 $463 forward $404 $464 #
loop $-1 -1 $-1 $-1 $328 $372 #
pcurve $-1 -1 $-1 0 forward { exppc nubs 1 open 2 
	8.9031709471763936 1 17.806341894352787 1 
	15.239999999999998 8.9031709471763936 
	15.239999999999998 17.806341894352787 
	0 
	spline forward { sumsur 
	straight 1.4287500000000106 0 13.334999999999994 -1 0 0 I I 
	intcurve forward { exactcur full nurbs 2 open 2 
	8.9031709471763936 2 17.806341894352787 2 
	1.4287500000000106 0 13.334999999999994 1 
	1.4287500000000077 2.2878309974901874 13.334999999999994 1.140175425099142 
	1.4287500000000075 5.9483605934744856 6.9849999999999728 1 
	0 
	null_surface 
	null_surface 
	nullbs 
	nullbs 
	I I 
	0 
	0 
	0 
	F 1 F 0 } I I 
	1.4287500000000106 0 13.334999999999994 
	none F 0 F 15.239999999999998 F 8.9031709471763936 F 17.806341894352787 OPEN OPEN NON_SINGULAR NON_SINGULAR 
	0 
	0 
	0 
	0 
	0 
	0 
	} I I I I 
	} 0 0 #
vertex $-1 -1 $-1 $463 $465 #
intcurve-curve $-1 -1 $-1 forward { exactcur full nurbs 2 open 2 
	8.9031709471763936 2 17.806341894352787 2 
	-13.811249999999987 0 13.334999999999994 1 
	-13.81124999999999 2.2878309974901874 13.334999999999994 1.140175425099142 
	-13.81124999999999 5.9483605934744856 6.9849999999999728 1 
	0 
	null_surface 
	null_surface 
	nullbs 
	nullbs 
	I I 
	0 
	0 
	0 
	F 1 F 0 } I I #
point $-1 -1 $-1 -13.811249999999987 5.9483605934744812 6.984999999999971 #
loop $-1 -1 $-1 $319 $466 $332 #
plane-surface $-1 -1 $-1 1.4287500000000082 -4.163336342344337e-016 -5.2100158218045465 1 -3.7658125701940768e-019 -2.4400381712467123e-019 -2.4400381712467123e-019 0 -1 forward_v I I I I #
coedge $-1 -1 $-1 $411 $411 $467 $468 reversed $333 $-1 #
model_id-kcp-attrib $-1 -1 $-1 $-1 $336 1 1021487952 1021487952 -1609629695 10 #
cone-surface $-1 -1 $-1 0 0 -102.44666666666666 0 0 1 0 -11.429999999999998 0 1 I I -0.41036467732879783 0.91192150517510639 11.429999999999998 forward I I I I #
coedge $-1 -1 $-1 $416 $418 $424 $469 forward $337 $-1 #
coedge $-1 -1 $-1 $339 $339 $470 $471 forward $251 $-1 #
coedge $-1 -1 $-1 $470 $414 $340 $417 forward $337 $-1 #
edge $-1 -1 $-1 $348 0 $422 4.9999999999999982 $340 $472 forward @7 unknown #
coedge $-1 -1 $-1 $414 $470 $341 $419 reversed $337 $-1 #
edge $-1 -1 $-1 $347 -5.5948246910244108e-016 $421 4.9999999999999982 $341 $473 forward @7 unknown #
attrib_edge_convexity-kcp-attrib $-1 -1 $474 $-1 $342 1 #
vertex $-1 -1 $-1 $419 $475 #
vertex $-1 -1 $-1 $417 $476 #
ellipse-curve $-1 -1 $-1 0 0 -220.97999999999996 0 0 1 0 7.6199999999999992 0 1 I I #
coedge $-1 -1 $-1 $345 $343 $414 $469 reversed $353 $-1 #
straight-curve $-1 -1 $-1 1.1664375520158143e-015 -4.7624999999999993 -87.629999999999981 2.552878771504865e-015 -10.423262804151459 -23.162806231447703 I I #
straight-curve $-1 -1 $-1 -5.8321877600790713e-016 4.7624999999999993 -87.629999999999981 -1.2764393857524325e-015 10.423262804151459 -23.162806231447703 I I #
point $-1 -1 $-1 -9.3315004161265117e-016 7.6199999999999974 -93.97999999999999 #
point $-1 -1 $-1 1.8663000832253027e-015 -7.6199999999999992 -93.980000000000004 #
attrib_edge_convexity-kcp-attrib $-1 -1 $477 $-1 $359 1 #
ellipse-curve $-1 -1 $-1 -20.002499999999998 0 0 -1 0 0 0 0 12.699999999999999 1 I I #
model_id-kcp-attrib $-1 -1 $-1 $-1 $361 1 1021487952 1021487952 -1609629695 15 #
plane-surface $-1 -1 $-1 -20.002499999999998 0 0 -1 0 0 0 0 25.399999999999999 forward_v I I I I #
convexity-sys-attrib $-1 -1 $-1 $364 $275 #
spline-surface $-1 -1 $-1 forward { ref 7 } I I I I #
coedge $-1 -1 $-1 $478 $375 $459 $479 reversed $302 $-1 #
coedge $-1 -1 $-1 $375 $478 $376 $439 forward $302 $-1 #
edge $-1 -1 $-1 $440 10.160000000000039 $461 137.15999999999997 $375 $480 forward @7 unknown #
coedge $-1 -1 $-1 $377 $376 $481 $482 reversed $224 $-1 #
edge $-1 -1 $-1 $483 0 $440 15.239999999999998 $436 $484 forward @7 unknown #
vertex $-1 -1 $-1 $439 $485 #
straight-curve $-1 -1 $-1 -13.81124999999999 0 -120.01499999999999 0 1 0 I I #
coedge $-1 -1 $-1 $481 $384 $380 $443 forward $319 $-1 #
edge $486 -1 $-1 $386 -69.532499999999999 $444 170.49749999999997 $380 $487 forward @7 unknown #
vertex $-1 -1 $-1 $443 $488 #
straight-curve $-1 -1 $-1 1.428750000000008 -19.049999999999997 -120.01499999999997 -1 0 0 I I #
point $-1 -1 $-1 -13.81124999999999 -19.049999999999997 -120.01499999999997 #
convexity-sys-attrib $-1 -1 $-1 $-1 $385 #
straight-curve $-1 -1 $-1 1.428750000000008 0 120.01499999999999 0 -1 0 I I #
point $-1 -1 $-1 1.428750000000008 -19.049999999999997 120.01499999999999 #
coedge $-1 -1 $-1 $392 $489 $490 $491 forward $319 $-1 #
coedge $-1 -1 $-1 $403 $393 $392 $452 reversed $404 $492 #
edge $493 -1 $-1 $494 8.9031709471763936 $396 17.806341894352787 $451 $495 forward @7 unknown #
pcurve $-1 -1 $-1 0 forward { exppc nubs 1 open 2 
	-15.239999999999998 1 0 1 
	15.239999999999995 17.806341894352787 
	0 17.806341894352787 
	0 
	spline forward { ref 7 } I I I I 
	} 0 0 #
straight-curve $-1 -1 $-1 1.4287500000000106 5.9483605934744812 6.984999999999971 -1 0 0 F 0 F 15.239999999999998 #
point $-1 -1 $-1 1.4287500000000106 5.9483605934744812 6.984999999999971 #
loop $-1 -1 $-1 $496 $467 $398 #
cone-surface $-1 -1 $-1 1.428750000000008 0 100.96499999999997 -1 0 0 0 0 12.699999999999999 1 I I 0 -1 12.699999999999999 forward I I I I #
coedge $-1 -1 $-1 $490 $401 $403 $463 reversed $373 $497 #
coedge $-1 -1 $-1 $401 $490 $435 $479 forward $373 $498 #
pcurve $-1 -1 $-1 0 forward { exppc nubs 1 open 2 
	0 1 8.9031709471763936 1 
	15.239999999999998 0 
	15.239999999999998 8.9031709471763865 
	0 
	spline forward { ref 4 } I I I I 
	} 0 0 #
vertex $-1 -1 $-1 $479 $499 #
intcurve-curve $-1 -1 $-1 forward { exactcur full nurbs 2 open 2 
	0 2 8.9031709471763936 2 
	-13.81124999999999 -5.9483605934744856 6.9849999999999728 1 
	-13.81124999999999 -2.2878309974901874 13.334999999999994 1.140175425099142 
	-13.811249999999987 0 13.334999999999994 1 
	0 
	null_surface 
	null_surface 
	nullbs 
	nullbs 
	I I 
	0 
	0 
	0 
	F 1 F 0 } I I #
edge $-1 -1 $-1 $494 0 $406 15.239999999999998 $403 $500 forward @7 unknown #
pcurve $-1 -1 $-1 0 forward { exppc nubs 1 open 2 
	0 1 15.239999999999998 1 
	0 8.9031709471763936 
	15.239999999999998 8.9031709471763936 
	0 
	spline forward { ref 7 } I I I I 
	} 0 0 #
point $-1 -1 $-1 -13.811249999999987 0 13.334999999999994 #
coedge $-1 -1 $-1 $466 $466 $501 $502 forward $409 $-1 #
coedge $-1 -1 $-1 $467 $467 $411 $468 forward $456 $-1 #
edge $-1 -1 $-1 $503 0 $503 6.2831853071795862 $467 $504 forward @7 unknown #
edge $-1 -1 $-1 $347 -5.434385993627848e-032 $348 3.1415926535897931 $424 $505 forward @7 unknown #
coedge $-1 -1 $-1 $418 $416 $415 $471 reversed $337 $-1 #
edge $506 -1 $-1 $421 -1.2246063538223773e-016 $422 3.1415926535897931 $415 $507 forward @7 unknown #
straight-curve $-1 -1 $-1 1.8663000832253027e-015 -7.6199999999999992 -93.980000000000004 0 0 -25.399999999999999 I I #
straight-curve $-1 -1 $-1 -9.3315004161265137e-016 7.6199999999999992 -93.980000000000004 0 0 -25.399999999999999 I I #
convexity-sys-attrib $-1 -1 $-1 $420 $342 #
point $-1 -1 $-1 -9.3315004161265137e-016 7.6199999999999992 -220.97999999999996 #
point $-1 -1 $-1 0 -7.6199999999999992 -220.97999999999996 #
convexity-sys-attrib $-1 -1 $-1 $429 $359 #
coedge $-1 -1 $-1 $436 $435 $489 $508 reversed $302 $-1 #
edge $-1 -1 $-1 $509 0 $461 15.239999999999998 $459 $510 forward @7 unknown #
straight-curve $-1 -1 $-1 -13.81124999999999 -5.9483605934744803 -130.17500000000001 0 0 1 I I #
coedge $-1 -1 $-1 $489 $442 $438 $482 forward $319 $-1 #
edge $511 -1 $-1 $444 -19.049999999999997 $483 -5.9483605934744821 $438 $512 forward @7 unknown #
vertex $-1 -1 $-1 $482 $513 #
straight-curve $-1 -1 $-1 1.4287500000000106 -5.9483605934744821 -120.01499999999997 -1 0 0 I I #
point $-1 -1 $-1 -13.811249999999987 -5.9483605934744821 -120.01499999999997 #
convexity-sys-attrib $-1 -1 $-1 $-1 $443 #
straight-curve $-1 -1 $-1 1.428750000000008 -19.049999999999997 50.482499999999987 0 0 -1 I I #
point $-1 -1 $-1 1.428750000000008 -19.049999999999997 -120.01499999999999 #
coedge $-1 -1 $-1 $450 $481 $478 $508 forward $319 $-1 #
coedge $-1 -1 $-1 $459 $458 $450 $491 reversed $373 $514 #
edge $515 -1 $-1 $509 0 $494 8.9031709471763936 $490 $516 forward @7 unknown #
pcurve $-1 -1 $-1 0 forward { exppc nubs 1 open 2 
	-17.806341894352787 1 -8.9031709471763936 1 
	0 17.806341894352787 
	0 8.9031709471763936 
	0 
	spline forward { ref 7 } I I I I 
	} 0 0 #
convexity-sys-attrib $-1 -1 $-1 $-1 $452 #
vertex $-1 -1 $-1 $491 $517 #
intcurve-curve $-1 -1 $-1 forward { ref 8 } I I #
loop $-1 -1 $-1 $-1 $501 $398 #
pcurve $-1 -1 $-1 0 forward { exppc nubs 1 open 2 
	-15.239999999999998 1 0 1 
	15.239999999999998 8.9031709471763936 
	2.8865798640254019e-015 8.9031709471763936 
	0 
	spline forward { ref 4 } I I I I 
	} 0 0 #
pcurve $-1 -1 $-1 0 forward { exppc nubs 1 open 2 
	0 1 15.239999999999998 1 
	0 0 
	15.239999999999998 0 
	0 
	spline forward { ref 4 } I I I I 
	} 0 0 #
point $-1 -1 $-1 -13.811249999999987 -5.9483605934744812 6.984999999999971 #
straight-curve $-1 -1 $-1 1.4287500000000106 0 13.334999999999994 -1 0 0 F 0 F 15.239999999999998 #
coedge $-1 -1 $-1 $501 $501 $466 $502 reversed $496 $-1 #
edge $518 -1 $-1 $519 -3.1415926535897931 $519 3.1415926535897931 $501 $520 forward @7 unknown #
vertex $-1 -1 $-1 $468 $521 #
ellipse-curve $-1 -1 $-1 -13.81124999999999 0 100.96499999999997 -1 0 0 0 0 12.699999999999999 1 I I #
ellipse-curve $-1 -1 $-1 3.5249581031848718e-016 0 -93.980000000000004 0 0 -1 -1.2856458519311385e-015 7.6199999999999992 0 1 I I #
attrib_edge_convexity-kcp-attrib $-1 -1 $522 $-1 $471 1 #
ellipse-curve $-1 -1 $-1 0 0 -220.97999999999996 0 0 -1 0 7.6199999999999992 0 1 I I #
edge $523 -1 $-1 $483 10.160000000000025 $509 137.15999999999997 $478 $524 forward @7 unknown #
vertex $-1 -1 $-1 $508 $525 #
straight-curve $-1 -1 $-1 1.4287500000000106 -5.9483605934744812 6.984999999999971 -1 0 0 F 0 F 15.239999999999998 #
convexity-sys-attrib $-1 -1 $-1 $-1 $482 #
straight-curve $-1 -1 $-1 1.428750000000008 0 -120.01499999999999 0 1 0 I I #
point $-1 -1 $-1 1.4287500000000106 -5.9483605934744821 -120.01499999999999 #
pcurve $-1 -1 $-1 0 forward { exppc nubs 1 open 2 
	-8.9031709471763936 1 0 1 
	0 8.9031709471763865 
	0 0 
	0 
	spline forward { ref 4 } I I I I 
	} 0 0 #
convexity-sys-attrib $-1 -1 $-1 $-1 $491 #
intcurve-curve $-1 -1 $-1 forward { ref 5 } I I #
point $-1 -1 $-1 1.4287500000000106 0 13.334999999999994 #
convexity-sys-attrib $-1 -1 $-1 $-1 $502 #
vertex $-1 -1 $-1 $502 $526 #
ellipse-curve $-1 -1 $-1 1.428750000000008 0 100.96499999999997 -1 0 0 0 0 12.699999999999999 1 I I #
point $-1 -1 $-1 -13.811249999999998 0 113.66499999999998 #
convexity-sys-attrib $-1 -1 $-1 $506 $471 #
convexity-sys-attrib $-1 -1 $-1 $-1 $508 #
straight-curve $-1 -1 $-1 1.428750000000008 -5.9483605934744803 -130.17500000000001 0 0 1 I I #
point $-1 -1 $-1 1.4287500000000106 -5.9483605934744812 6.984999999999971 #
point $-1 -1 $-1 1.42875 0 88.264999999999972 #
End-of-ACIS-data 