600 0 1 0           
86 GICL ACIS Healer - Source: /gicl/data5/repository/PTC/V18/process18/cm56-491.sat - 6 0 18 ACIS 6.0.3 Solaris 24 Sat Apr 13 21:16:52 2002 
1 9.999999999999999547e-07 1.000000000000000036e-10 
body $-1 $1 $-1 $-1 #
lump $-1 $-1 $2 $0 #
shell $-1 $-1 $-1 $3 $-1 $1 #
face $-1 $4 $5 $2 $-1 $6 reversed single #
face $-1 $7 $8 $2 $-1 $9 reversed single #
loop $-1 $10 $11 $3 #
plane-surface $-1 0 2.539999999999999591 0 0 1 0 25.39999999999999858 0 0 forward_v I I I I #
face $-1 $12 $13 $2 $-1 $9 reversed single #
loop $-1 $-1 $14 $4 #
cone-surface $-1 142.1302784172378324 2.539999999999999591 385.6866829674402197 0 1 0 1.746249999999999636 0 -3.024593722717151323 1 I I 0 1 3.492499999999999272 forward I I I I #
loop $-1 $15 $16 $3 #
coedge $-1 $17 $17 $18 $19 reversed $5 $-1 #
face $-1 $20 $21 $2 $-1 $22 forward single #
loop $-1 $-1 $23 $7 #
coedge $-1 $24 $18 $25 $26 forward $8 $-1 #
loop $-1 $27 $28 $3 #
coedge $-1 $29 $29 $30 $31 reversed $10 $-1 #
coedge $-1 $11 $11 $32 $33 reversed $5 $-1 #
coedge $-1 $14 $34 $11 $19 forward $8 $-1 #
edge $-1 $35 -3.141592653589793116 $36 1.237873622013621178e-15 $11 $37 reversed 7 unknown #
face $-1 $38 $39 $2 $-1 $40 forward single #
loop $-1 $41 $42 $12 #
plane-surface $-1 0 8.889999999999998792 0 0 1 0 12.69999999999999929 0 -21.99704525612473915 forward_v I I I I #
coedge $-1 $43 $32 $34 $44 forward $13 $-1 #
coedge $-1 $34 $14 $42 $45 reversed $8 $-1 #
coedge $-1 $32 $43 $14 $26 reversed $13 $-1 #
edge $-1 $36 0 $46 0.25 $25 $47 forward 7 unknown #
loop $-1 $-1 $48 $3 #
coedge $-1 $49 $49 $50 $51 reversed $15 $-1 #
coedge $-1 $16 $16 $52 $53 reversed $10 $-1 #
coedge $-1 $54 $55 $16 $31 forward $56 $-1 #
edge $-1 $57 -3.141592653589793116 $58 -0 $16 $59 reversed 7 unknown #
coedge $-1 $23 $25 $17 $33 forward $13 $-1 #
edge $-1 $36 1.237873622013621178e-15 $35 3.141592653589793116 $17 $60 reversed 7 unknown #
coedge $-1 $18 $24 $23 $44 reversed $8 $-1 #
vertex $-1 $33 $61 #
vertex $-1 $33 $62 #
ellipse-curve $-1 142.1302784172378324 2.539999999999999591 385.6866829674402197 0 1 0 1.746249999999999636 0 -3.024593722717151323 1 I I #
face $-1 $63 $64 $2 $-1 $65 forward single #
loop $-1 $-1 $66 $20 #
cone-surface $-1 228.5999999999999943 2.539999999999999591 435.6099999999999568 0 1 0 88.89999999999999147 0 0 1 I I 0 1 88.89999999999999147 forward I I I I #
loop $-1 $-1 $67 $12 #
coedge $-1 $68 $68 $24 $45 forward $21 $-1 #
coedge $-1 $25 $23 $68 $69 reversed $13 $-1 #
edge $-1 $35 0 $70 0.25 $23 $71 forward 7 unknown #
edge $-1 $70 -3.141592653589791784 $46 1.456321908251292409e-16 $42 $72 reversed 7 unknown #
vertex $-1 $69 $73 #
straight-curve $-1 143.8765284172378074 2.539999999999999591 382.6620892447230631 0 25.39999999999999858 0 I I #
coedge $-1 $74 $75 $76 $77 reversed $27 $-1 #
coedge $-1 $28 $28 $78 $79 reversed $15 $-1 #
coedge $-1 $80 $81 $28 $51 forward $82 $-1 #
edge $-1 $83 -3.141592653589800221 $84 6.917529064193667783e-15 $28 $85 reversed 7 unknown #
coedge $-1 $86 $87 $29 $53 forward $88 $-1 #
edge $-1 $58 -0 $57 3.141592653589793116 $29 $89 reversed 7 unknown #
coedge $-1 $90 $30 $87 $91 forward $56 $-1 #
coedge $-1 $30 $90 $86 $92 reversed $56 $-1 #
loop $-1 $-1 $54 $93 #
vertex $-1 $53 $94 #
vertex $-1 $53 $95 #
ellipse-curve $-1 228.5999999999999943 2.539999999999999591 535.4566340651192604 0 1 0 -3.492499999999999272 0 0 1 I I #
ellipse-curve $-1 142.1302784172378324 2.539999999999999591 385.6866829674402197 0 1 0 1.746249999999999636 0 -3.024593722717151323 1 I I #
point $-1 140.384028417237829 2.539999999999999591 388.7112766901573764 #
point $-1 143.8765284172378074 2.539999999999999591 382.6620892447231199 #
face $-1 $96 $97 $2 $-1 $98 forward single #
loop $-1 $-1 $99 $38 #
plane-surface $-1 134.2092304172032584 2.539999999999999591 389.722658510124802 -0.8910065241883666776 0 0.453990499739549247 11.53135869338454889 0 22.63156571438451081 forward_v I I I I #
coedge $-1 $100 $101 $102 $103 reversed $39 $-1 #
coedge $-1 $104 $105 $101 $106 reversed $41 $-1 #
coedge $-1 $42 $42 $43 $69 forward $21 $-1 #
edge $-1 $46 1.456321908251292409e-16 $70 3.141592653589794448 $68 $107 reversed 7 unknown #
vertex $-1 $69 $108 #
straight-curve $-1 140.384028417237829 2.539999999999999591 388.7112766901573764 0 25.39999999999999858 0 I I #
ellipse-curve $-1 142.1302784172378324 8.889999999999998792 385.6866829674402197 0 1 0 1.746249999999999636 0 -3.024593722717151323 1 I I #
point $-1 143.8765284172378358 8.889999999999998792 382.6620892447230631 #
coedge $-1 $109 $48 $110 $111 reversed $27 $-1 #
coedge $-1 $48 $112 $113 $114 reversed $27 $-1 #
coedge $-1 $115 $116 $48 $77 forward $117 $-1 #
edge $-1 $118 -167.4116054213582174 $119 -146.1237103099743706 $48 $120 forward 7 unknown #
coedge $-1 $121 $122 $49 $79 forward $123 $-1 #
edge $-1 $84 6.917529064193667783e-15 $83 3.141592653589786011 $49 $124 reversed 7 unknown #
coedge $-1 $125 $50 $122 $126 forward $82 $-1 #
coedge $-1 $50 $125 $121 $127 reversed $82 $-1 #
loop $-1 $-1 $80 $128 #
vertex $-1 $79 $129 #
vertex $-1 $79 $130 #
ellipse-curve $-1 315.0697215827620994 2.539999999999999591 385.6866829674402197 0 1 0 1.746249999999999636 0 3.024593722717151323 1 I I #
coedge $-1 $131 $52 $55 $92 forward $88 $-1 #
coedge $-1 $52 $131 $54 $91 reversed $88 $-1 #
loop $-1 $-1 $86 $132 #
ellipse-curve $-1 228.5999999999999943 2.539999999999999591 535.4566340651192604 0 1 0 -3.492499999999999272 0 0 1 I I #
coedge $-1 $55 $54 $133 $134 reversed $56 $-1 #
edge $-1 $58 0 $135 0.25 $87 $136 forward 7 unknown #
edge $-1 $57 0 $137 0.25 $86 $138 forward 7 unknown #
face $-1 $132 $56 $2 $-1 $139 reversed single #
point $-1 232.0924999999999727 2.539999999999999591 535.4566340651192604 #
point $-1 225.1074999999999591 2.539999999999999591 535.4566340651192604 #
face $-1 $140 $141 $2 $-1 $142 forward single #
loop $-1 $-1 $143 $63 #
cone-surface $-1 142.1302784172378324 2.539999999999999591 385.6866829674402197 0 1 0 4.444999999999999396 0 -7.698965839643657993 1 I I 0 1 8.889999999999998792 forward I I I I #
coedge $-1 $144 $102 $105 $145 reversed $64 $-1 #
coedge $-1 $146 $66 $147 $148 forward $39 $-1 #
coedge $-1 $66 $149 $67 $106 forward $39 $-1 #
coedge $-1 $99 $150 $66 $103 forward $64 $-1 #
edge $-1 $151 0 $152 6.349999999999999645 $66 $153 forward 7 unknown #
coedge $-1 $154 $67 $155 $156 forward $41 $-1 #
coedge $-1 $67 $154 $99 $145 forward $41 $-1 #
edge $-1 $157 2.402033379306537597 $152 2.833954376676449893 $101 $158 reversed 7 unknown #
ellipse-curve $-1 142.1302784172378324 8.889999999999998792 385.6866829674402197 0 1 0 1.746249999999999636 0 -3.024593722717151323 1 I I #
point $-1 140.3840284172378574 8.889999999999998792 388.7112766901573195 #
coedge $-1 $159 $74 $160 $161 reversed $27 $-1 #
coedge $-1 $162 $163 $74 $111 forward $164 $-1 #
edge $-1 $165 0.5759586531581282198 $118 2.56563400043166645 $74 $166 forward 7 unknown #
coedge $-1 $75 $167 $168 $169 reversed $27 $-1 #
coedge $-1 $149 $170 $75 $114 forward $39 $-1 #
edge $-1 $119 0.7395592742832565181 $171 2.402033379306538485 $75 $172 forward 7 unknown #
coedge $-1 $173 $76 $170 $174 forward $117 $-1 #
coedge $-1 $76 $173 $162 $175 reversed $117 $-1 #
loop $-1 $-1 $173 $176 #
vertex $-1 $111 $177 #
vertex $-1 $114 $178 #
straight-curve $-1 148.3528145993145984 2.539999999999999591 368.0472199475790376 -0.9986295347545740553 0 -0.05233595624294234971 I I #
coedge $-1 $179 $78 $81 $127 forward $123 $-1 #
coedge $-1 $78 $179 $80 $126 reversed $123 $-1 #
loop $-1 $-1 $121 $180 #
ellipse-curve $-1 315.0697215827620994 2.539999999999999591 385.6866829674402197 0 1 0 1.746249999999999636 0 3.024593722717151323 1 I I #
coedge $-1 $81 $80 $181 $182 reversed $82 $-1 #
edge $-1 $84 0 $183 0.25 $122 $184 forward 7 unknown #
edge $-1 $83 0 $185 0.25 $121 $186 forward 7 unknown #
face $-1 $180 $82 $2 $-1 $187 reversed single #
point $-1 313.3234715827620676 2.539999999999999591 382.6620892447230631 #
point $-1 316.8159715827620744 2.539999999999999591 388.7112766901573764 #
coedge $-1 $87 $86 $188 $189 reversed $88 $-1 #
face $-1 $190 $88 $2 $-1 $139 reversed single #
coedge $-1 $188 $188 $90 $134 forward $191 $-1 #
edge $-1 $137 -3.141592653589793116 $135 -0 $133 $192 reversed 7 unknown #
vertex $-1 $189 $193 #
straight-curve $-1 225.1075000000000159 2.539999999999999591 535.4566340651192604 0 25.39999999999999858 0 I I #
vertex $-1 $189 $194 #
straight-curve $-1 232.0924999999999727 2.539999999999999591 535.4566340651192604 0 25.39999999999999858 0 I I #
cone-surface $-1 228.5999999999999943 2.539999999999999591 535.4566340651192604 0 1 0 -3.492499999999999272 0 0 1 I I 0 1 3.492499999999999272 forward I I I I #
face $-1 $195 $196 $2 $-1 $40 forward single #
loop $-1 $-1 $168 $96 #
plane-surface $-1 162.9237325572234454 2.539999999999999591 375.694744056418358 -0.05233595624294262727 0 -0.9986295347545739443 -25.36519018276617743 0 1.329333288570742733 forward_v I I I I #
coedge $-1 $197 $198 $144 $199 forward $97 $-1 #
coedge $-1 $150 $99 $143 $199 reversed $64 $-1 #
edge $-1 $200 204.0875734716612442 $152 225.3754685830450342 $105 $201 forward 7 unknown #
coedge $-1 $202 $100 $203 $204 forward $39 $-1 #
coedge $-1 $205 $206 $100 $148 reversed $27 $-1 #
edge $-1 $151 2.833954376676450782 $207 3.141592653589793116 $147 $208 forward 7 unknown #
coedge $-1 $101 $113 $209 $210 forward $39 $-1 #
coedge $-1 $102 $144 $205 $211 forward $64 $-1 #
vertex $-1 $211 $212 #
vertex $-1 $106 $213 #
straight-curve $-1 143.8737325572234909 2.539999999999999591 408.6903119406053975 0 1 0 I I #
coedge $-1 $105 $104 $197 $214 forward $41 $-1 #
coedge $-1 $209 $215 $104 $156 reversed $141 $-1 #
edge $-1 $157 -71.51905377922928153 $216 -50.23115866784543471 $104 $217 forward 7 unknown #
vertex $-1 $106 $218 #
ellipse-curve $-1 228.5999999999999943 8.889999999999998792 435.6099999999999568 -0 -1 -0 88.89999999999999147 0 0 1 I I #
coedge $-1 $219 $109 $220 $221 reversed $27 $-1 #
coedge $-1 $222 $223 $109 $161 forward $224 $-1 #
edge $-1 $225 -110.9492927868925136 $165 -89.66139767550873785 $109 $226 forward 7 unknown #
coedge $-1 $227 $110 $116 $175 forward $164 $-1 #
coedge $-1 $110 $227 $222 $228 reversed $164 $-1 #
loop $-1 $-1 $162 $229 #
vertex $-1 $161 $230 #
ellipse-curve $-1 315.0697215827620994 2.539999999999999591 385.6866829674402197 0 1 0 4.444999999999999396 0 7.698965839643657993 1 I I #
coedge $-1 $112 $205 $198 $231 reversed $27 $-1 #
coedge $-1 $215 $209 $112 $169 forward $141 $-1 #
edge $-1 $171 -71.51905377922922469 $232 -50.23115866784543471 $112 $233 forward 7 unknown #
coedge $-1 $113 $234 $115 $174 reversed $39 $-1 #
vertex $-1 $114 $235 #
ellipse-curve $-1 228.5999999999999943 2.539999999999999591 435.6099999999999568 0 1 0 88.89999999999999147 0 0 1 I I #
coedge $-1 $116 $115 $236 $237 reversed $117 $-1 #
edge $-1 $119 0 $238 6.349999999999999645 $170 $239 forward 7 unknown #
edge $-1 $118 0 $240 6.349999999999999645 $162 $241 forward 7 unknown #
face $-1 $242 $117 $2 $-1 $243 forward single #
point $-1 315.534988233761851 2.539999999999999591 376.8088664034720523 #
point $-1 294.2762674427764296 2.539999999999999591 375.6947440564182443 #
coedge $-1 $122 $121 $244 $245 reversed $123 $-1 #
face $-1 $-1 $123 $2 $-1 $187 reversed single #
coedge $-1 $244 $244 $125 $182 forward $246 $-1 #
edge $-1 $185 -3.141592653589800221 $183 2.09710354788188647e-14 $181 $247 reversed 7 unknown #
vertex $-1 $245 $248 #
straight-curve $-1 316.8159715827620744 2.539999999999999591 388.7112766901573764 0 25.39999999999999858 0 I I #
vertex $-1 $245 $249 #
straight-curve $-1 313.3234715827620676 2.539999999999999591 382.6620892447230631 0 25.39999999999999858 0 I I #
cone-surface $-1 315.0697215827620994 2.539999999999999591 385.6866829674402197 0 1 0 1.746249999999999636 0 3.024593722717151323 1 I I 0 1 3.492499999999999272 forward I I I I #
coedge $-1 $133 $133 $131 $189 forward $191 $-1 #
edge $-1 $135 -0 $137 3.141592653589793116 $188 $250 reversed 7 unknown #
face $-1 $251 $252 $2 $-1 $253 forward single #
loop $-1 $254 $133 $255 #
ellipse-curve $-1 228.5999999999999943 8.889999999999998792 535.4566340651192604 0 1 0 -3.492499999999999272 0 0 1 I I #
point $-1 225.1074999999999591 8.889999999999998792 535.4566340651192604 #
point $-1 232.0924999999999727 8.889999999999998792 535.4566340651192604 #
face $-1 $255 $256 $2 $-1 $257 forward single #
loop $-1 $-1 $258 $140 #
coedge $-1 $259 $143 $154 $214 reversed $97 $-1 #
coedge $-1 $143 $259 $167 $231 forward $97 $-1 #
edge $-1 $260 0 $200 6.349999999999999645 $143 $261 forward 7 unknown #
vertex $-1 $145 $262 #
straight-curve $-1 41.55541094617178999 8.889999999999998792 207.8792990411020298 0.453990499739549247 -0 0.8910065241883666776 I I #
coedge $-1 $263 $146 $264 $265 reversed $39 $-1 #
coedge $-1 $266 $267 $146 $204 reversed $196 $-1 #
edge $-1 $207 0 $268 8.849999999999999645 $146 $269 forward 7 unknown #
coedge $-1 $167 $147 $150 $211 reversed $27 $-1 #
coedge $-1 $147 $270 $266 $271 reversed $27 $-1 #
vertex $-1 $148 $272 #
ellipse-curve $-1 228.5999999999999943 2.539999999999999591 435.6099999999999568 0 1 0 88.89999999999999147 0 0 1 I I #
coedge $-1 $168 $155 $149 $210 reversed $141 $-1 #
edge $-1 $171 -0 $157 6.349999999999999645 $149 $273 reversed 7 unknown #
edge $-1 $260 204.0875734716612442 $151 225.375468583045091 $205 $274 forward 7 unknown #
point $-1 143.8737325572234909 2.539999999999999591 408.6903119406054543 #
point $-1 143.8737325572234909 8.889999999999998792 408.6903119406053975 #
edge $-1 $216 0.5759586531581265545 $200 2.56563400043166645 $154 $275 forward 7 unknown #
coedge $-1 $155 $168 $259 $276 forward $141 $-1 #
vertex $-1 $214 $277 #
straight-curve $-1 91.50269315558441008 8.889999999999998792 379.4377621255447366 -0.9986295347545739443 0 0.05233595624294262727 I I #
point $-1 162.9237325572235022 8.889999999999998792 375.6947440564183012 #
coedge $-1 $278 $159 $279 $280 reversed $27 $-1 #
coedge $-1 $281 $263 $159 $221 forward $39 $-1 #
edge $-1 $282 0 $225 0.3076382769133432227 $159 $283 forward 7 unknown #
coedge $-1 $284 $160 $163 $228 forward $224 $-1 #
coedge $-1 $160 $284 $281 $285 reversed $224 $-1 #
loop $-1 $-1 $160 $286 #
vertex $-1 $221 $287 #
straight-curve $-1 363.6961923208472172 2.539999999999999591 309.8337682133987983 0.4539904997395479702 0 -0.8910065241883673437 I I #
coedge $-1 $163 $162 $288 $289 reversed $164 $-1 #
edge $-1 $165 0 $290 6.349999999999999645 $222 $291 forward 7 unknown #
face $-1 $176 $164 $2 $-1 $292 forward single #
point $-1 322.9907695827967018 2.539999999999999591 389.722658510124802 #
edge $-1 $232 0.5759586531581265545 $260 2.56563400043166645 $167 $293 forward 7 unknown #
vertex $-1 $169 $294 #
straight-curve $-1 91.50269315558441008 2.539999999999999591 379.4377621255447366 -0.9986295347545739443 0 0.05233595624294262727 I I #
coedge $-1 $170 $281 $295 $296 forward $39 $-1 #
point $-1 162.9237325572234454 2.539999999999999591 375.694744056418358 #
coedge $-1 $295 $288 $173 $237 forward $297 $-1 #
edge $-1 $240 -167.4116054213582174 $238 -146.1237103099743706 $236 $298 forward 7 unknown #
vertex $-1 $174 $299 #
straight-curve $-1 294.2762674427764296 2.539999999999999591 375.6947440564182443 0 1 0 I I #
vertex $-1 $237 $300 #
straight-curve $-1 315.534988233761851 2.539999999999999591 376.8088664034719955 0 1 0 I I #
face $-1 $128 $246 $2 $-1 $301 forward single #
plane-surface $-1 315.534988233761851 2.539999999999999591 376.8088664034719955 0.05233595624294234971 0 -0.9986295347545740553 -25.36519018276618098 0 -1.329333288570735627 forward_v I I I I #
coedge $-1 $181 $181 $179 $245 forward $246 $-1 #
edge $-1 $183 2.09710354788188647e-14 $185 3.141592653589786011 $244 $302 reversed 7 unknown #
loop $-1 $297 $181 $242 #
ellipse-curve $-1 315.0697215827620994 8.889999999999998792 385.6866829674402197 0 1 0 1.746249999999999636 0 3.024593722717151323 1 I I #
point $-1 316.8159715827620175 8.889999999999998792 388.7112766901573764 #
point $-1 313.3234715827620676 8.889999999999998792 382.6620892447230631 #
ellipse-curve $-1 228.5999999999999943 8.889999999999998792 535.4566340651192604 0 1 0 -3.492499999999999272 0 0 1 I I #
face $-1 $303 $304 $2 $-1 $305 forward single #
loop $-1 $-1 $306 $190 #
plane-surface $-1 209.5499999999999829 2.539999999999999591 522.4449440029760581 -0.8386705679454239393 0 0.5446390350150273063 13.83383148938169072 0 21.30223242581376297 forward_v I I I I #
loop $-1 $-1 $307 $255 #
face $-1 $93 $191 $2 $-1 $308 forward single #
loop $-1 $-1 $309 $195 #
plane-surface $-1 236.0557813490347883 2.539999999999999591 540.2984750864029593 0.8386705679454214968 0 0.5446390350150310811 13.83383148938178842 0 -21.30223242581370613 forward_v I I I I #
coedge $-1 $279 $310 $311 $312 reversed $196 $-1 #
coedge $-1 $198 $197 $215 $276 reversed $97 $-1 #
vertex $-1 $231 $313 #
straight-curve $-1 134.2092304172032584 2.539999999999999591 389.722658510124802 0 1 0 I I #
point $-1 134.2092304172032584 8.889999999999998792 389.722658510124802 #
coedge $-1 $220 $202 $314 $315 reversed $39 $-1 #
coedge $-1 $316 $317 $202 $265 forward $318 $-1 #
edge $-1 $319 -7.209970653256143364e-12 $268 3.141592653582583772 $202 $320 forward 7 unknown #
coedge $-1 $321 $203 $206 $271 forward $196 $-1 #
coedge $-1 $203 $314 $322 $323 reversed $196 $-1 #
vertex $-1 $265 $324 #
straight-curve $-1 139.6999999999999886 2.539999999999999591 435.6099999999999568 0 25.39999999999999858 0 I I #
coedge $-1 $206 $325 $306 $326 reversed $27 $-1 #
edge $-1 $207 -3.141592653589793116 $327 -1.786756825479854038 $206 $328 forward 7 unknown #
point $-1 139.6999999999999886 2.539999999999999591 435.6099999999999568 #
straight-curve $-1 162.9237325572235022 2.539999999999999591 375.6947440564183012 -0 -1 -0 I I #
straight-curve $-1 41.55541094617178999 2.539999999999999591 207.8792990411020298 0.453990499739549247 -0 0.8910065241883666776 I I #
ellipse-curve $-1 142.1302784172378324 8.889999999999998792 385.6866829674402197 0 1 0 4.444999999999999396 0 -7.698965839643657993 1 I I #
edge $-1 $232 0 $216 6.349999999999999645 $215 $329 forward 7 unknown #
point $-1 141.6650117662380808 8.889999999999998792 376.8088664034720523 #
coedge $-1 $325 $219 $330 $331 reversed $27 $-1 #
coedge $-1 $314 $258 $219 $280 forward $196 $-1 #
edge $-1 $332 -1.354835828109938634 $282 0 $219 $333 forward 7 unknown #
coedge $-1 $234 $220 $223 $285 forward $39 $-1 #
vertex $-1 $280 $334 #
ellipse-curve $-1 228.5999999999999943 2.539999999999999591 435.6099999999999568 0 1 0 88.89999999999999147 0 0 1 I I #
coedge $-1 $223 $222 $335 $336 reversed $224 $-1 #
edge $-1 $225 -0 $337 6.349999999999999645 $281 $338 reversed 7 unknown #
face $-1 $229 $224 $2 $-1 $339 forward single #
point $-1 313.3262674427764978 2.539999999999999591 408.6903119406053975 #
coedge $-1 $236 $335 $227 $289 forward $297 $-1 #
edge $-1 $290 0.5759586531581282198 $240 2.565634000431666895 $288 $340 forward 7 unknown #
vertex $-1 $289 $341 #
straight-curve $-1 322.9907695827967018 2.539999999999999591 389.722658510124802 0 1 0 I I #
cone-surface $-1 315.0697215827620994 2.539999999999999591 385.6866829674402197 0 1 0 4.444999999999999396 0 7.698965839643657993 1 I I 0 1 8.889999999999998792 forward I I I I #
ellipse-curve $-1 142.1302784172378324 2.539999999999999591 385.6866829674402197 0 1 0 4.444999999999999396 0 -7.698965839643657993 1 I I #
point $-1 141.6650117662380808 2.539999999999999591 376.8088664034720523 #
coedge $-1 $335 $236 $234 $296 reversed $297 $-1 #
edge $-1 $337 0.3076382769133426121 $238 0.7395592742832565181 $234 $342 reversed 7 unknown #
loop $-1 $-1 $295 $242 #
straight-curve $-1 148.3528145993145984 8.889999999999998792 368.0472199475790376 -0.9986295347545740553 0 -0.05233595624294234971 I I #
point $-1 294.2762674427764296 8.889999999999998792 375.6947440564182443 #
point $-1 315.534988233761851 8.889999999999998792 376.8088664034719955 #
plane-surface $-1 0 8.889999999999998792 0 0 1 0 12.69999999999999929 0 21.99704525612473915 forward_v I I I I #
ellipse-curve $-1 315.0697215827620994 8.889999999999998792 385.6866829674402197 0 1 0 1.746249999999999636 0 3.024593722717151323 1 I I #
face $-1 $343 $344 $2 $-1 $345 forward single #
loop $-1 $-1 $346 $251 #
cone-surface $-1 228.5999999999999943 2.539999999999999591 535.4566340651192604 0 1 0 -8.889999999999998792 0 0 1 I I 0 1 8.889999999999998792 forward I I I I #
coedge $-1 $347 $348 $270 $326 forward $252 $-1 #
coedge $-1 $349 $350 $310 $351 reversed $254 $-1 #
plane-surface $-1 0 8.889999999999998792 0 0 1 0 -25.39999999999999858 0 0 forward_v I I I I #
coedge $-1 $352 $311 $350 $353 reversed $256 $-1 #
coedge $-1 $258 $321 $307 $351 forward $196 $-1 #
coedge $-1 $309 $330 $258 $312 forward $256 $-1 #
edge $-1 $332 0 $354 6.349999999999999645 $258 $355 forward 7 unknown #
point $-1 134.2092304172032584 2.539999999999999591 389.722658510124802 #
coedge $-1 $267 $279 $263 $315 forward $196 $-1 #
edge $-1 $282 0 $319 8.849999999999999645 $263 $356 forward 7 unknown #
coedge $-1 $357 $264 $358 $359 reversed $318 $-1 #
coedge $-1 $264 $357 $360 $361 forward $318 $-1 #
loop $-1 $-1 $317 $343 #
vertex $-1 $315 $362 #
ellipse-curve $-1 228.5999999999999943 227.3299999999999557 435.6099999999999568 0 1 0 88.89999999999999147 0 0 1 I I #
coedge $-1 $310 $266 $348 $363 forward $196 $-1 #
coedge $-1 $360 $358 $267 $323 forward $344 $-1 #
edge $-1 $268 -3.14159265359700246 $319 -7.209970653256143364e-12 $267 $364 forward 7 unknown #
point $-1 139.6999999999999886 227.3299999999999557 435.6099999993590473 #
coedge $-1 $270 $278 $365 $366 reversed $27 $-1 #
edge $-1 $327 276.1441538472950015 $367 297.432048958678763 $270 $368 forward 7 unknown #
vertex $-1 $271 $369 #
ellipse-curve $-1 228.5999999999999943 2.539999999999999591 435.6099999999999568 0 1 0 88.89999999999999147 0 0 1 I I #
straight-curve $-1 141.6650117662380808 2.539999999999999591 376.8088664034720523 0 1 0 I I #
coedge $-1 $311 $352 $278 $331 forward $256 $-1 #
edge $-1 $370 -162.2836179985506533 $332 -140.9957228871667212 $278 $371 forward 7 unknown #
vertex $-1 $331 $372 #
ellipse-curve $-1 228.5999999999999943 2.539999999999999591 435.6099999999999568 0 1 0 88.89999999999999147 0 0 1 I I #
point $-1 317.5 2.539999999999999591 435.6099999999999568 #
coedge $-1 $288 $295 $284 $336 forward $297 $-1 #
edge $-1 $337 -110.9492927868925705 $290 -89.66139767550873785 $335 $373 forward 7 unknown #
vertex $-1 $296 $374 #
straight-curve $-1 313.3262674427764978 2.539999999999999591 408.6903119406054543 -0 -1 -0 I I #
plane-surface $-1 313.3262674427764978 2.539999999999999591 408.6903119406054543 0.8910065241883673437 0 0.4539904997395479702 11.53135869338451691 0 -22.63156571438452858 forward_v I I I I #
ellipse-curve $-1 315.0697215827620994 8.889999999999998792 385.6866829674402197 0 1 0 4.444999999999999396 0 7.698965839643657993 1 I I #
point $-1 322.9907695827967018 8.889999999999998792 389.722658510124802 #
ellipse-curve $-1 228.5999999999999943 8.889999999999998792 435.6099999999999568 -0 -1 -0 88.89999999999999147 0 0 1 I I #
face $-1 $375 $318 $2 $-1 $345 forward single #
loop $-1 $-1 $358 $303 #
torus-surface $-1 228.5999999999999943 227.3299999999999557 435.6099999999999568 0 1 0 85.0899999999999892 3.809999999999999609 -0.9999956395129631082 0 -0.002953126319661861579 forward_v I I I I #
coedge $-1 $376 $365 $352 $377 forward $304 $-1 #
coedge $-1 $378 $306 $379 $380 forward $252 $-1 #
coedge $-1 $306 $378 $321 $363 reversed $252 $-1 #
coedge $-1 $381 $307 $378 $382 forward $254 $-1 #
coedge $-1 $307 $381 $309 $353 forward $254 $-1 #
edge $-1 $383 -1.786756825479852928 $354 -1.354835828109938412 $310 $384 reversed 7 unknown #
coedge $-1 $330 $309 $346 $377 reversed $256 $-1 #
edge $-1 $385 -162.2836179985506249 $354 -140.9957228871667212 $350 $386 forward 7 unknown #
vertex $-1 $351 $387 #
straight-curve $-1 247.6500000000001762 2.539999999999999591 522.4449440029760581 0 1 0 I I #
straight-curve $-1 317.5 2.539999999999999591 435.6099999999999568 0 25.39999999999999858 0 I I #
coedge $-1 $317 $316 $388 $389 reversed $318 $-1 #
coedge $-1 $322 $390 $316 $359 forward $344 $-1 #
edge $-1 $391 -4.33598913630205105e-15 $268 1.570796326795257825 $358 $392 forward 7 unknown #
coedge $-1 $390 $322 $317 $361 reversed $344 $-1 #
edge $-1 $393 -1.463979131648167183e-14 $319 1.570796326795232734 $360 $394 forward 7 unknown #
point $-1 317.5 227.3299999999999557 435.6100000006409232 #
edge $-1 $327 -0 $383 6.349999999999999645 $321 $395 reversed 7 unknown #
ellipse-curve $-1 228.5999999999999943 227.3299999999999557 435.6099999999999568 0 1 0 88.89999999999999147 0 0 1 I I #
coedge $-1 $346 $379 $325 $366 forward $304 $-1 #
edge $-1 $367 0.5759586531581263324 $370 2.565634000431650907 $325 $396 forward 7 unknown #
vertex $-1 $326 $397 #
straight-curve $-1 59.15111452356797628 2.539999999999999591 290.850969661056638 0.5446390350150273063 -0 0.8386705679454239393 I I #
point $-1 209.5499999999998977 2.539999999999999591 522.4449440029760581 #
vertex $-1 $366 $398 #
straight-curve $-1 324.441774454513336 2.539999999999999591 404.1959810113206686 0.5446390350150310811 0 -0.8386705679454214968 I I #
point $-1 247.6500000000001478 2.539999999999999591 522.4449440029760581 #
straight-curve $-1 363.6961923208472172 8.889999999999998792 309.8337682133987983 0.4539904997395479702 0 -0.8910065241883673437 I I #
point $-1 313.3262674427764978 8.889999999999998792 408.6903119406054543 #
face $-1 $399 $400 $2 $-1 $401 forward single #
coedge $-1 $379 $346 $381 $402 reversed $304 $-1 #
edge $-1 $370 0 $385 6.349999999999999645 $346 $403 forward 7 unknown #
coedge $-1 $348 $347 $349 $382 reversed $252 $-1 #
coedge $-1 $365 $376 $347 $380 reversed $304 $-1 #
edge $-1 $367 0 $404 6.349999999999999645 $347 $405 forward 7 unknown #
coedge $-1 $350 $349 $376 $402 forward $254 $-1 #
edge $-1 $383 276.1441538472950583 $404 297.432048958678763 $349 $406 forward 7 unknown #
vertex $-1 $351 $407 #
ellipse-curve $-1 228.5999999999999943 8.889999999999998792 435.6099999999999568 -0 -1 -0 88.89999999999999147 0 0 1 I I #
vertex $-1 $353 $408 #
straight-curve $-1 324.441774454513336 8.889999999999998792 404.1959810113206686 0.5446390350150310811 0 -0.8386705679454214968 I I #
point $-1 247.6500000000001762 8.889999999999998792 522.4449440029760581 #
coedge $-1 $409 $409 $357 $389 forward $410 $-1 #
edge $-1 $393 1.570796326794909437 $391 4.712388980384679016 $388 $411 forward 7 unknown #
coedge $-1 $358 $360 $409 $412 reversed $344 $-1 #
vertex $-1 $412 $413 #
ellipse-curve $-1 143.5099999999999909 227.3299999999999557 435.6099999996696397 -8.152759406694328334e-11 -8.644936618411586905e-11 1 1.376143643483373914e-12 3.810000000000008935 3.293720851615944412e-10 1 I I #
vertex $-1 $412 $414 #
ellipse-curve $-1 313.6899999999999409 227.3299999999999272 435.6100000003301034 8.156802650384388623e-11 -8.64256814262575954e-11 -1 -1.308464447902224331e-12 3.810000000000053788 -3.292818462341528774e-10 1 I I #
straight-curve $-1 209.5500000000000114 2.539999999999999591 522.4449440029760581 -0 -1 -0 I I #
ellipse-curve $-1 228.5999999999999943 2.539999999999999591 535.4566340651192604 0 1 0 -8.889999999999998792 0 0 1 I I #
point $-1 221.1442186509651435 2.539999999999999591 540.2984750864028456 #
point $-1 236.0557813490347598 2.539999999999999591 540.2984750864029593 #
face $-1 $415 $416 $2 $-1 $417 forward single #
loop $-1 $410 $418 $375 #
plane-surface $-1 228.5999999999999943 231.1399999999999864 435.6099999999999568 0 1 0 25.39999999999999858 0 0 forward_v I I I I #
edge $-1 $404 0.5759586531581263324 $385 2.565634000431656236 $381 $419 forward 7 unknown #
straight-curve $-1 236.0557813490348451 2.539999999999999591 540.2984750864029593 0 1 0 I I #
vertex $-1 $402 $420 #
straight-curve $-1 221.1442186509651435 2.539999999999999591 540.2984750864028456 0 1 0 I I #
straight-curve $-1 59.15111452356797628 8.889999999999998792 290.850969661056638 0.5446390350150273063 -0 0.8386705679454239393 I I #
point $-1 209.5500000000000114 8.889999999999998792 522.4449440029760581 #
point $-1 236.0557813490348451 8.889999999999998792 540.2984750864029593 #
coedge $-1 $388 $388 $390 $412 forward $410 $-1 #
loop $-1 $-1 $388 $375 #
ellipse-curve $-1 228.5999999999999943 231.1399999999999864 435.6099999999999568 0 1 0 0 0 85.0899999999999892 1 I I #
edge $-1 $391 -1.570796326794907438 $393 1.570796326794909437 $409 $421 forward 7 unknown #
point $-1 143.5100000000013836 231.1399999999999864 435.6099999999990473 #
point $-1 313.6899999999985766 231.1399999999999864 435.6099999999988768 #
face $-1 $422 $423 $2 $-1 $417 forward single #
loop $-1 $-1 $424 $399 #
cone-surface $-1 228.5999999999999943 229.8699999999999477 435.6099999999999568 0 1 0 76.19999999999997442 0 0 1 I I 0 1 76.19999999999998863 forward I I I I #
coedge $-1 $425 $425 $426 $427 forward $400 $-1 #
ellipse-curve $-1 228.5999999999999943 8.889999999999998792 535.4566340651192604 0 1 0 -8.889999999999998792 0 0 1 I I #
point $-1 221.1442186509651435 8.889999999999998792 540.2984750864028456 #
ellipse-curve $-1 228.5999999999999943 231.1399999999999864 435.6099999999999568 0 1 0 0 0 85.0899999999999892 1 I I #
face $-1 $428 $429 $2 $-1 $430 forward single #
loop $-1 $-1 $431 $415 #
coedge $-1 $426 $432 $433 $434 forward $416 $-1 #
coedge $-1 $418 $418 $435 $436 reversed $400 $-1 #
coedge $-1 $437 $424 $418 $427 reversed $416 $-1 #
edge $-1 $438 -0 $439 3.141592653589793116 $418 $440 reversed 7 unknown #
face $-1 $441 $442 $2 $-1 $430 forward single #
loop $-1 $-1 $443 $422 #
torus-surface $-1 228.5999999999999943 252.7299999999999613 435.6099999999999568 0 1 0 72.38999999999997215 3.809999999999999609 -0.9999956395129631082 0 -0.002953126319662140436 forward_v I I I I #
coedge $-1 $435 $444 $437 $445 forward $423 $-1 #
coedge $-1 $424 $437 $446 $447 reversed $416 $-1 #
coedge $-1 $444 $435 $424 $434 reversed $423 $-1 #
edge $-1 $448 0 $439 0.8499999999999990896 $433 $449 forward 7 unknown #
coedge $-1 $433 $431 $425 $436 forward $423 $-1 #
edge $-1 $438 -0 $439 3.141592653589793116 $435 $450 reversed 7 unknown #
coedge $-1 $432 $426 $431 $445 reversed $416 $-1 #
vertex $-1 $436 $451 #
vertex $-1 $434 $452 #
ellipse-curve $-1 228.5999999999999943 231.1399999999999864 435.6099999999999568 0 1 0 76.19999999999997442 0 0 1 I I #
face $-1 $453 $454 $2 $-1 $455 forward single #
loop $-1 $-1 $456 $428 #
coedge $-1 $457 $458 $459 $460 forward $429 $-1 #
coedge $-1 $431 $433 $457 $461 reversed $423 $-1 #
edge $-1 $462 0 $438 0.8499999999999990896 $431 $463 forward 7 unknown #
coedge $-1 $459 $456 $432 $447 forward $442 $-1 #
edge $-1 $448 -3.141592653597008677 $462 -7.20837213191585427e-12 $432 $464 forward 7 unknown #
vertex $-1 $461 $465 #
straight-curve $-1 152.3999999999999773 252.7299999999999613 435.6099999999999568 0 -25.39999999999999858 0 I I #
ellipse-curve $-1 228.5999999999999943 231.1399999999999864 435.6099999999999568 -0 -1 -0 76.19999999999997442 0 0 1 I I #
point $-1 304.7999999999999545 231.1399999999999864 435.6099999999999568 #
point $-1 152.3999999999999773 231.1399999999999864 435.6099999999999568 #
face $-1 $466 $467 $2 $-1 $468 forward single #
loop $-1 $469 $470 $441 #
plane-surface $-1 0 256.5399999999999636 0 0 1 0 25.39999999999999858 0 0 forward_v I I I I #
coedge $-1 $446 $471 $472 $473 forward $442 $-1 #
coedge $-1 $472 $443 $444 $461 forward $429 $-1 #
coedge $-1 $443 $472 $470 $474 reversed $429 $-1 #
coedge $-1 $471 $446 $443 $460 reversed $442 $-1 #
edge $-1 $475 6.434048351711523661e-15 $462 1.570796326795216524 $459 $476 forward 7 unknown #
edge $-1 $462 -7.20837213191585427e-12 $448 3.141592653582577555 $444 $477 forward 7 unknown #
vertex $-1 $461 $478 #
straight-curve $-1 304.7999999999999545 252.7299999999999613 435.6099999999999568 0 -25.39999999999999858 0 I I #
ellipse-curve $-1 228.5999999999999943 252.7299999999999613 435.6099999999999568 0 1 0 76.19999999999997442 0 0 1 I I #
point $-1 152.4000000000000057 252.7299999999999613 435.6099999994501104 #
face $-1 $479 $480 $2 $-1 $468 forward single #
loop $-1 $-1 $481 $453 #
cone-surface $-1 203.1999999999999886 256.5399999999999636 469.8999999999999773 0 1 0 6.349999999999999645 0 0 1 I I 0 1 6.349999999999999645 forward I I I I #
loop $-1 $482 $483 $441 #
coedge $-1 $484 $484 $458 $474 forward $454 $-1 #
coedge $-1 $456 $459 $484 $485 reversed $442 $-1 #
coedge $-1 $458 $457 $456 $473 reversed $429 $-1 #
edge $-1 $486 3.356894814470815859e-15 $448 1.57079632679524317 $456 $487 forward 7 unknown #
edge $-1 $475 1.570796326794913211 $486 4.712388980384672799 $470 $488 forward 7 unknown #
vertex $-1 $485 $489 #
ellipse-curve $-1 300.9899999999999523 252.7299999999999613 435.6100000002847423 6.941482229636521752e-11 -7.444119394977745251e-11 -1 -1.218225520460691688e-12 3.810000000000008935 -2.8362094894873734e-10 1 I I #
ellipse-curve $-1 228.5999999999999943 252.7299999999999613 435.6099999999999568 0 1 0 76.19999999999997442 0 0 1 I I #
point $-1 304.7999999999999545 252.7299999999999613 435.6100000005492348 #
face $-1 $490 $491 $2 $-1 $492 forward single #
loop $-1 $-1 $493 $466 #
coedge $-1 $494 $495 $496 $497 forward $467 $-1 #
loop $-1 $498 $499 $441 #
coedge $-1 $500 $500 $495 $501 reversed $469 $-1 #
coedge $-1 $470 $470 $471 $485 forward $454 $-1 #
edge $-1 $486 -1.570796326794913211 $475 1.570796326794913211 $484 $502 forward 7 unknown #
vertex $-1 $485 $503 #
ellipse-curve $-1 156.210000000000008 252.7300000000000182 435.6099999997147734 -6.934089460213187307e-11 -7.453593298121222732e-11 1 1.263344984181458009e-12 3.809999999999963638 2.839819046585034398e-10 1 I I #
ellipse-curve $-1 228.5999999999999943 256.5399999999999636 435.6099999999999568 0 1 0 0 0 72.38999999999997215 1 I I #
point $-1 300.9899999999987585 256.5399999999999636 435.6099999999987631 #
face $-1 $504 $505 $2 $-1 $506 forward single #
loop $-1 $-1 $507 $479 #
plane-surface $-1 0 269.2399999999999523 0 0 1 0 25.39999999999999858 0 0 forward_v I I I I #
coedge $-1 $508 $509 $510 $511 forward $480 $-1 #
coedge $-1 $510 $481 $507 $512 reversed $467 $-1 #
coedge $-1 $481 $510 $483 $501 forward $467 $-1 #
coedge $-1 $509 $508 $481 $497 reversed $480 $-1 #
edge $-1 $513 0 $514 0.4999999999999995559 $496 $515 forward 7 unknown #
loop $-1 $-1 $516 $441 #
coedge $-1 $517 $517 $518 $519 reversed $482 $-1 #
coedge $-1 $483 $483 $509 $520 reversed $469 $-1 #
edge $-1 $521 -3.141592653589793116 $513 0 $483 $522 forward 7 unknown #
ellipse-curve $-1 228.5999999999999943 256.5399999999999636 435.6099999999999568 0 1 0 0 0 72.38999999999997215 1 I I #
point $-1 156.2100000000012585 256.5399999999999636 435.6099999999987631 #
face $-1 $523 $524 $2 $-1 $506 forward single #
loop $-1 $-1 $525 $490 #
cone-surface $-1 218.4399999999999693 256.5399999999999636 444.5 0 1 0 9.524999999999998579 0 0 1 I I 0 1 9.524999999999998579 forward I I I I #
coedge $-1 $526 $526 $494 $512 forward $491 $-1 #
coedge $-1 $496 $493 $526 $527 reversed $480 $-1 #
coedge $-1 $493 $496 $500 $520 forward $480 $-1 #
coedge $-1 $495 $494 $493 $511 reversed $467 $-1 #
edge $-1 $521 0 $528 0.4999999999999995559 $493 $529 forward 7 unknown #
edge $-1 $528 -3.141592653589793116 $514 0 $507 $530 forward 7 unknown #
vertex $-1 $520 $531 #
vertex $-1 $527 $532 #
straight-curve $-1 209.5499999999999829 256.5399999999999636 469.8999999999999773 0 25.39999999999999858 0 I I #
coedge $-1 $533 $533 $534 $535 reversed $498 $-1 #
coedge $-1 $499 $499 $536 $537 reversed $482 $-1 #
coedge $-1 $525 $538 $499 $519 forward $505 $-1 #
edge $-1 $539 -3.141592653589793116 $540 0 $499 $541 forward 7 unknown #
edge $-1 $513 0 $521 3.141592653589793116 $500 $542 forward 7 unknown #
vertex $-1 $520 $543 #
ellipse-curve $-1 203.1999999999999886 256.5399999999999636 469.8999999999999773 0 1 0 6.349999999999999645 0 0 1 I I #
face $-1 $544 $545 $2 $-1 $546 forward single #
loop $-1 $-1 $547 $504 #
coedge $-1 $548 $518 $549 $550 forward $505 $-1 #
coedge $-1 $507 $507 $508 $527 forward $491 $-1 #
edge $-1 $514 0 $528 3.141592653589793116 $526 $551 forward 7 unknown #
vertex $-1 $527 $552 #
straight-curve $-1 196.8499999999999943 256.5399999999999636 469.8999999999999773 0 25.39999999999999858 0 I I #
ellipse-curve $-1 203.1999999999999886 269.2399999999999523 469.8999999999999773 0 1 0 6.349999999999999645 0 0 1 I I #
point $-1 209.5499999999999829 256.5399999999999636 469.8999999999999773 #
point $-1 209.5499999999999829 269.2399999999999523 469.8999999999999773 #
coedge $-1 $516 $516 $553 $554 reversed $498 $-1 #
coedge $-1 $555 $556 $516 $535 forward $557 $-1 #
edge $-1 $558 -3.141592653589793116 $559 0 $516 $560 forward 7 unknown #
coedge $-1 $547 $549 $517 $537 forward $524 $-1 #
edge $-1 $540 0 $539 3.141592653589793116 $517 $561 forward 7 unknown #
coedge $-1 $518 $548 $547 $562 reversed $505 $-1 #
vertex $-1 $537 $563 #
vertex $-1 $537 $564 #
ellipse-curve $-1 218.4399999999999693 256.5399999999999636 444.5 0 1 0 9.524999999999998579 0 0 1 I I #
ellipse-curve $-1 203.1999999999999886 256.5399999999999636 469.8999999999999773 0 1 0 6.349999999999999645 0 0 1 I I #
point $-1 196.8499999999999943 256.5399999999999636 469.8999999999999773 #
face $-1 $565 $557 $2 $-1 $566 forward single #
loop $-1 $-1 $567 $523 #
plane-surface $-1 0 307.339999999999975 0 0 1 0 25.39999999999999858 0 0 forward_v I I I I #
coedge $-1 $568 $536 $538 $562 forward $524 $-1 #
coedge $-1 $538 $525 $567 $569 reversed $505 $-1 #
coedge $-1 $536 $568 $525 $550 reversed $524 $-1 #
edge $-1 $540 0 $570 2.000000000000000444 $549 $571 forward 7 unknown #
ellipse-curve $-1 203.1999999999999886 269.2399999999999523 469.8999999999999773 0 1 0 6.349999999999999645 0 0 1 I I #
point $-1 196.8499999999999943 269.2399999999999523 469.8999999999999773 #
coedge $-1 $572 $573 $533 $554 forward $574 $-1 #
edge $-1 $559 0 $558 3.141592653589793116 $533 $575 forward 7 unknown #
coedge $-1 $576 $534 $573 $577 forward $557 $-1 #
coedge $-1 $534 $576 $572 $578 reversed $557 $-1 #
loop $-1 $-1 $555 $544 #
vertex $-1 $554 $579 #
vertex $-1 $554 $580 #
ellipse-curve $-1 188.4171999999999798 256.5399999999999636 444.5 0 1 0 9.524999999999998579 0 0 1 I I #
ellipse-curve $-1 218.4399999999999693 256.5399999999999636 444.5 0 1 0 9.524999999999998579 0 0 1 I I #
edge $-1 $539 0 $581 2.000000000000000444 $547 $582 forward 7 unknown #
point $-1 208.914999999999992 256.5399999999999636 444.5 #
point $-1 227.964999999999975 256.5399999999999636 444.5 #
face $-1 $583 $574 $2 $-1 $566 forward single #
cone-surface $-1 188.4171999999999798 256.5399999999999636 444.5 0 1 0 9.524999999999998579 0 0 1 I I 0 1 9.524999999999998579 forward I I I I #
coedge $-1 $584 $584 $548 $569 forward $545 $-1 #
coedge $-1 $549 $547 $584 $585 reversed $524 $-1 #
edge $-1 $581 -3.141592653589793116 $570 0 $567 $586 forward 7 unknown #
vertex $-1 $585 $587 #
straight-curve $-1 227.964999999999975 256.5399999999999636 444.5 0 25.39999999999999858 0 I I #
coedge $-1 $588 $553 $556 $578 forward $574 $-1 #
coedge $-1 $553 $588 $555 $577 reversed $574 $-1 #
loop $-1 $-1 $572 $565 #
ellipse-curve $-1 188.4171999999999798 256.5399999999999636 444.5 0 1 0 9.524999999999998579 0 0 1 I I #
coedge $-1 $556 $555 $589 $590 reversed $557 $-1 #
edge $-1 $559 0 $591 1.000000000000001332 $573 $592 forward 7 unknown #
edge $-1 $558 0 $593 1.000000000000001332 $572 $594 forward 7 unknown #
point $-1 178.8922000000000025 256.5399999999999636 444.5 #
point $-1 197.9421999999999855 256.5399999999999636 444.5 #
vertex $-1 $585 $595 #
straight-curve $-1 208.914999999999992 256.5399999999999636 444.5 0 25.39999999999999858 0 I I #
face $-1 $286 $596 $2 $-1 $597 forward single #
coedge $-1 $567 $567 $568 $585 forward $545 $-1 #
edge $-1 $570 0 $581 3.141592653589793116 $584 $598 forward 7 unknown #
ellipse-curve $-1 218.4399999999999693 307.339999999999975 444.5 0 1 0 9.524999999999998579 0 0 1 I I #
point $-1 227.964999999999975 307.339999999999975 444.5 #
coedge $-1 $573 $572 $599 $600 reversed $574 $-1 #
coedge $-1 $599 $599 $576 $590 forward $596 $-1 #
edge $-1 $593 -3.141592653589793116 $591 0 $589 $601 forward 7 unknown #
vertex $-1 $600 $602 #
straight-curve $-1 197.9421999999999855 256.5399999999999636 444.5 0 25.39999999999999858 0 I I #
vertex $-1 $600 $603 #
straight-curve $-1 178.8922000000000025 256.5399999999999636 444.5 0 25.39999999999999858 0 I I #
point $-1 208.914999999999992 307.339999999999975 444.5 #
loop $-1 $-1 $589 $583 #
plane-surface $-1 0 281.9399999999999977 0 0 1 0 25.39999999999999858 0 0 forward_v I I I I #
ellipse-curve $-1 218.4399999999999693 307.339999999999975 444.5 0 1 0 9.524999999999998579 0 0 1 I I #
coedge $-1 $589 $589 $588 $600 forward $596 $-1 #
edge $-1 $591 0 $593 3.141592653589793116 $599 $604 forward 7 unknown #
ellipse-curve $-1 188.4171999999999798 281.9399999999999977 444.5 0 1 0 9.524999999999998579 0 0 1 I I #
point $-1 197.9421999999999855 281.9399999999999977 444.5 #
point $-1 178.8922000000000025 281.9399999999999977 444.5 #
ellipse-curve $-1 188.4171999999999798 281.9399999999999977 444.5 0 1 0 9.524999999999998579 0 0 1 I I #
End-of-ACIS-data 