600 0 1 0           
93 GICL Pro/E ACIS Translator - Source: f:/data5/repository/PTC/V18/process18/cm56-491.prt - 6 0 13 ACIS 6.0.3 NT 24 Thu Apr 04 09:57:21 2002 
1 9.9999999999999995e-007 1e-010 
body $-1 $1 $-1 $2 #
lump $-1 $-1 $3 $0 #
transform $-1 1 0 0 0 1 0 0 0 1 0 0 0 25.399999999999999 no_rotate no_reflect no_shear #
shell $-1 $-1 $-1 $4 $-1 $1 #
face $-1 $5 $6 $3 $-1 $7 reversed single #
face $-1 $8 $9 $3 $-1 $10 reversed single #
loop $-1 $11 $12 $4 #
plane-surface $-1 0 0.099999999999999992 0 0 1 0 1 0 0 forward_v I I I I #
face $-1 $13 $14 $3 $-1 $15 reversed single #
loop $-1 $-1 $16 $5 #
cone-surface $-1 5.595680252647159 0.099999999999999992 15.184515077458277 0 1 0 0.068749999999999992 0 -0.11907849302036029 1 I I 0 1 0.13749999999999998 forward I I I I #
loop $-1 $17 $18 $4 #
coedge $-1 $19 $19 $20 $21 reversed $6 $-1 #
face $-1 $22 $23 $3 $-1 $24 forward single #
loop $-1 $-1 $25 $8 #
cone-surface $-1 5.595680252647159 0.099999999999999992 15.184515077458277 0 1 0 0.068749999999999992 0 -0.11907849302036029 1 I I 0 1 0.13749999999999998 forward I I I I #
coedge $-1 $26 $20 $27 $28 forward $9 $-1 #
loop $-1 $29 $30 $4 #
coedge $-1 $31 $31 $32 $33 reversed $11 $-1 #
coedge $-1 $12 $12 $34 $35 reversed $6 $-1 #
coedge $-1 $16 $36 $12 $21 forward $9 $-1 #
edge $-1 $37 0 $38 3.1415926535897993 $12 $39 forward 7 unknown #
face $-1 $40 $41 $3 $-1 $42 forward single #
loop $-1 $43 $44 $13 #
plane-surface $-1 0 0.34999999999999998 0 0 1 0 0.5 0 -0.8660254037844386 forward_v I I I I #
coedge $-1 $45 $34 $36 $46 forward $14 $-1 #
coedge $-1 $36 $16 $44 $47 reversed $9 $-1 #
coedge $-1 $34 $45 $16 $28 reversed $14 $-1 #
edge $-1 $38 0 $48 0.25 $27 $49 forward 7 unknown #
loop $-1 $-1 $50 $4 #
coedge $-1 $51 $51 $52 $53 reversed $17 $-1 #
coedge $-1 $18 $18 $54 $55 reversed $11 $-1 #
coedge $-1 $56 $57 $18 $33 forward $58 $-1 #
edge $-1 $59 0 $60 3.1415926535897931 $18 $61 forward 7 unknown #
coedge $-1 $25 $27 $19 $35 forward $14 $-1 #
edge $-1 $38 0 $37 3.1415926535897869 $19 $62 forward 7 unknown #
coedge $-1 $20 $26 $25 $46 reversed $9 $-1 #
vertex $-1 $35 $63 #
vertex $-1 $35 $64 #
ellipse-curve $-1 5.595680252647159 0.099999999999999992 15.184515077458277 0 -1 0 -0.068749999999999645 0 0.11907849302036055 1 I I #
face $-1 $65 $66 $3 $-1 $67 forward single #
loop $-1 $-1 $68 $22 #
cone-surface $-1 9 0.099999999999999992 17.149999999999999 0 1 0 3.5 0 0 1 I I 0 1 3.5 forward I I I I #
loop $-1 $-1 $69 $13 #
coedge $-1 $70 $70 $26 $47 forward $23 $-1 #
coedge $-1 $27 $25 $70 $71 reversed $14 $-1 #
edge $-1 $37 0 $72 0.25 $25 $73 forward 7 unknown #
edge $-1 $72 0 $48 3.1415926535897993 $44 $74 forward 7 unknown #
vertex $-1 $71 $75 #
straight-curve $-1 5.6644302526471586 0.099999999999999992 15.065436584437917 0 1 0 I I #
coedge $-1 $76 $77 $78 $79 reversed $29 $-1 #
coedge $-1 $30 $30 $80 $81 reversed $17 $-1 #
coedge $-1 $82 $83 $30 $53 forward $84 $-1 #
edge $-1 $85 0 $86 3.1415926535897931 $30 $87 forward 7 unknown #
coedge $-1 $88 $89 $31 $55 forward $90 $-1 #
edge $-1 $60 0 $59 3.1415926535897931 $31 $91 forward 7 unknown #
coedge $-1 $92 $32 $89 $93 forward $58 $-1 #
coedge $-1 $32 $92 $88 $94 reversed $58 $-1 #
loop $-1 $-1 $56 $95 #
vertex $-1 $55 $96 #
vertex $-1 $55 $97 #
ellipse-curve $-1 9 0.099999999999999992 21.080969845083438 0 -1 0 0.13749999999999929 0 0 1 I I #
ellipse-curve $-1 5.595680252647159 0.099999999999999992 15.184515077458277 0 -1 0 0.068749999999999645 0 -0.11907849302035878 1 I I #
point $-1 5.5269302526471593 0.099999999999999992 15.303593570478638 #
point $-1 5.6644302526471586 0.099999999999999992 15.065436584437919 #
face $-1 $98 $99 $3 $-1 $100 forward single #
loop $-1 $-1 $101 $40 #
plane-surface $-1 5.2838279691812309 0.099999999999999992 15.343411752367119 -0.89100652418836668 0 0.45399049973954925 0.45399049973954919 0 0.89100652418836657 forward_v I I I I #
coedge $-1 $102 $103 $104 $105 reversed $41 $-1 #
coedge $-1 $106 $107 $103 $108 reversed $43 $-1 #
coedge $-1 $44 $44 $45 $71 forward $23 $-1 #
edge $-1 $48 0 $72 3.1415926535898091 $70 $109 forward 7 unknown #
vertex $-1 $71 $110 #
straight-curve $-1 5.5269302526471593 0.099999999999999992 15.303593570478638 0 1 0 I I #
ellipse-curve $-1 5.5956802526471598 0.34999999999999998 15.184515077458276 0 -1 0 -0.068749999999999645 0 0.11907849302036055 1 I I #
point $-1 5.6644302526471595 0.34999999999999998 15.065436584437917 #
coedge $-1 $111 $50 $112 $113 reversed $29 $-1 #
coedge $-1 $50 $114 $115 $116 reversed $29 $-1 #
coedge $-1 $117 $118 $50 $79 forward $119 $-1 #
edge $-1 $120 0 $121 0.83810610674739328 $50 $122 forward 7 unknown #
coedge $-1 $123 $124 $51 $81 forward $125 $-1 #
edge $-1 $86 0 $85 3.1415926535897931 $51 $126 forward 7 unknown #
coedge $-1 $127 $52 $124 $128 forward $84 $-1 #
coedge $-1 $52 $127 $123 $129 reversed $84 $-1 #
loop $-1 $-1 $82 $130 #
vertex $-1 $81 $131 #
vertex $-1 $81 $132 #
ellipse-curve $-1 12.404319747352838 0.099999999999999992 15.184515077458277 0 -1 0 -0.068749999999999645 0 -0.11907849302036055 1 I I #
coedge $-1 $133 $54 $57 $94 forward $90 $-1 #
coedge $-1 $54 $133 $56 $93 reversed $90 $-1 #
loop $-1 $-1 $88 $134 #
ellipse-curve $-1 9 0.099999999999999992 21.080969845083438 0 -1 0 -0.13750000000000107 0 0 1 I I #
coedge $-1 $57 $56 $135 $136 reversed $58 $-1 #
edge $-1 $60 0 $137 0.25 $89 $138 forward 7 unknown #
edge $-1 $59 0 $139 0.25 $88 $140 forward 7 unknown #
face $-1 $134 $58 $3 $-1 $141 reversed single #
point $-1 9.1374999999999993 0.099999999999999992 21.080969845083438 #
point $-1 8.8624999999999989 0.099999999999999992 21.080969845083438 #
face $-1 $142 $143 $3 $-1 $144 forward single #
loop $-1 $-1 $145 $65 #
cone-surface $-1 5.595680252647159 0.099999999999999992 15.184515077458277 0 1 0 0.17499999999999999 0 -0.30310889132455349 1 I I 0 1 0.34999999999999998 forward I I I I #
coedge $-1 $146 $104 $107 $147 reversed $66 $-1 #
coedge $-1 $148 $68 $149 $150 forward $41 $-1 #
coedge $-1 $68 $151 $69 $108 forward $41 $-1 #
coedge $-1 $101 $152 $68 $105 forward $66 $-1 #
edge $-1 $153 3.1554436208840472e-030 $154 0.25 $68 $155 forward 7 unknown #
coedge $-1 $156 $69 $157 $158 forward $43 $-1 #
coedge $-1 $69 $156 $101 $147 forward $43 $-1 #
edge $-1 $159 0 $154 0.43192099736991729 $103 $160 forward 7 unknown #
ellipse-curve $-1 5.5956802526471616 0.34999999999999998 15.184515077458276 0 -1 0 0.068749999999997868 0 -0.11907849302035878 1 I I #
point $-1 5.5269302526471602 0.34999999999999998 15.303593570478636 #
coedge $-1 $161 $76 $162 $163 reversed $29 $-1 #
coedge $-1 $164 $165 $76 $113 forward $166 $-1 #
edge $-1 $167 0 $120 1.9896753472735307 $76 $168 forward 7 unknown #
coedge $-1 $77 $169 $170 $171 reversed $29 $-1 #
coedge $-1 $151 $172 $77 $116 forward $41 $-1 #
edge $-1 $121 0 $173 1.6624741050232832 $77 $174 forward 7 unknown #
coedge $-1 $175 $78 $172 $176 forward $119 $-1 #
coedge $-1 $78 $175 $164 $177 reversed $119 $-1 #
loop $-1 $-1 $175 $178 #
vertex $-1 $113 $179 #
vertex $-1 $116 $180 #
straight-curve $-1 12.422637332037869 0.099999999999999992 14.834994740294174 -0.99862953475457394 0 -0.052335956242941843 I I #
coedge $-1 $181 $80 $83 $129 forward $125 $-1 #
coedge $-1 $80 $181 $82 $128 reversed $125 $-1 #
loop $-1 $-1 $123 $182 #
ellipse-curve $-1 12.404319747352838 0.099999999999999992 15.184515077458277 0 -1 0 0.068749999999999645 0 0.11907849302036055 1 I I #
coedge $-1 $83 $82 $183 $184 reversed $84 $-1 #
edge $-1 $86 0 $185 0.25 $124 $186 forward 7 unknown #
edge $-1 $85 0 $187 0.25 $123 $188 forward 7 unknown #
face $-1 $182 $84 $3 $-1 $189 reversed single #
point $-1 12.335569747352839 0.099999999999999992 15.065436584437917 #
point $-1 12.473069747352838 0.099999999999999992 15.303593570478638 #
coedge $-1 $89 $88 $190 $191 reversed $90 $-1 #
face $-1 $192 $90 $3 $-1 $193 reversed single #
coedge $-1 $190 $190 $92 $136 forward $194 $-1 #
edge $-1 $139 0 $137 3.1415926535897931 $135 $195 forward 7 unknown #
vertex $-1 $191 $196 #
straight-curve $-1 8.8625000000000007 0.099999999999999992 21.080969845083438 0 1 0 I I #
vertex $-1 $191 $197 #
straight-curve $-1 9.1374999999999993 0.099999999999999992 21.080969845083438 0 1 0 I I #
cone-surface $-1 9 0.099999999999999992 21.080969845083438 0 1 0 -0.13749999999999998 0 0 1 I I 0 1 0.13749999999999998 forward I I I I #
face $-1 $198 $199 $3 $-1 $200 forward single #
loop $-1 $-1 $170 $98 #
plane-surface $-1 6.4143201794182465 0.099999999999999992 14.791131655764502 -0.052335956242942627 0 -0.99862953475457394 -0.99862953475457394 0 0.052335956242942627 forward_v I I I I #
coedge $-1 $201 $202 $146 $203 forward $99 $-1 #
coedge $-1 $152 $101 $145 $203 reversed $66 $-1 #
edge $-1 $204 8.0644912923508643e-016 $154 0.83810610674739472 $107 $205 forward 7 unknown #
coedge $-1 $206 $102 $207 $208 forward $41 $-1 #
coedge $-1 $209 $210 $102 $150 reversed $29 $-1 #
edge $-1 $153 1.0875654118777042e-016 $211 0.3076382769133435 $149 $212 forward 7 unknown #
coedge $-1 $103 $115 $213 $214 forward $41 $-1 #
coedge $-1 $104 $146 $209 $215 forward $66 $-1 #
vertex $-1 $215 $216 #
vertex $-1 $108 $217 #
straight-curve $-1 5.6643201794182483 0.099999999999999992 16.090169761441157 -3.5527136788005009e-015 1 0 I I #
coedge $-1 $107 $106 $201 $218 forward $43 $-1 #
coedge $-1 $213 $219 $106 $158 reversed $143 $-1 #
edge $-1 $159 0 $220 0.83810610674739416 $106 $221 forward 7 unknown #
vertex $-1 $108 $222 #
ellipse-curve $-1 8.9999999999999609 0.34999999999999998 17.149999999999967 0 1 0 -2.5856798205817144 0 -2.3588683442354643 1 I I #
coedge $-1 $223 $111 $224 $225 reversed $29 $-1 #
coedge $-1 $226 $227 $111 $163 forward $228 $-1 #
edge $-1 $229 3.9719401956195851e-015 $167 0.83810610674739983 $111 $230 forward 7 unknown #
coedge $-1 $231 $112 $118 $177 forward $166 $-1 #
coedge $-1 $112 $231 $226 $232 reversed $166 $-1 #
loop $-1 $-1 $164 $233 #
vertex $-1 $163 $234 #
ellipse-curve $-1 12.404319747352838 0.099999999999999992 15.184515077458277 0 1 0 0.31185228346592986 0 0.1588966749088403 1 I I #
coedge $-1 $114 $209 $202 $235 reversed $29 $-1 #
coedge $-1 $219 $213 $114 $171 forward $143 $-1 #
edge $-1 $173 0 $236 0.83810610674739239 $114 $237 forward 7 unknown #
coedge $-1 $115 $238 $117 $176 reversed $41 $-1 #
vertex $-1 $116 $239 #
ellipse-curve $-1 9 0.099999999999999992 17.149999999999999 0 1 0 2.5856798205817526 0 -2.3588683442354981 1 I I #
coedge $-1 $118 $117 $240 $241 reversed $119 $-1 #
edge $-1 $121 0 $242 0.25 $172 $243 forward 7 unknown #
edge $-1 $120 1.2621774483536189e-029 $244 0.25 $164 $245 forward 7 unknown #
face $-1 $246 $119 $3 $-1 $247 forward single #
point $-1 12.422637332037869 0.099999999999999992 14.834994740294174 #
point $-1 11.585679820581753 0.099999999999999992 14.791131655764501 #
coedge $-1 $124 $123 $248 $249 reversed $125 $-1 #
face $-1 $-1 $125 $3 $-1 $250 reversed single #
coedge $-1 $248 $248 $127 $184 forward $251 $-1 #
edge $-1 $187 0 $185 3.1415926535897962 $183 $252 forward 7 unknown #
vertex $-1 $249 $253 #
straight-curve $-1 12.473069747352838 0.099999999999999992 15.303593570478638 0 1 0 I I #
vertex $-1 $249 $254 #
straight-curve $-1 12.335569747352839 0.099999999999999992 15.065436584437917 0 1 0 I I #
cone-surface $-1 12.404319747352838 0.099999999999999992 15.184515077458277 0 1 0 0.068749999999999992 0 0.11907849302036029 1 I I 0 1 0.13749999999999998 forward I I I I #
coedge $-1 $135 $135 $133 $191 forward $194 $-1 #
edge $-1 $137 0 $139 3.1415926535897416 $190 $255 forward 7 unknown #
face $-1 $256 $257 $3 $-1 $258 forward single #
cone-surface $-1 9 0.099999999999999992 21.080969845083438 0 1 0 -0.13749999999999998 0 0 1 I I 0 1 0.13749999999999998 forward I I I I #
loop $-1 $259 $135 $260 #
ellipse-curve $-1 9 0.34999999999999998 21.080969845083438 0 -1 0 0.13749999999999929 0 0 1 I I #
point $-1 8.8624999999999989 0.34999999999999998 21.080969845083438 #
point $-1 9.1374999999999993 0.34999999999999998 21.080969845083438 #
face $-1 $260 $261 $3 $-1 $262 forward single #
loop $-1 $-1 $263 $142 #
cone-surface $-1 9 0.099999999999999992 17.149999999999999 0 1 0 3.5 0 0 1 I I 0 1 3.5 forward I I I I #
coedge $-1 $264 $145 $156 $218 reversed $99 $-1 #
coedge $-1 $145 $264 $169 $235 forward $99 $-1 #
edge $-1 $265 0 $204 0.25 $145 $266 forward 7 unknown #
vertex $-1 $147 $267 #
straight-curve $-1 5.28382796918123 0.34999999999999998 15.343411752367118 0.45399049973954952 0 0.89100652418836646 I I #
coedge $-1 $268 $148 $269 $270 reversed $41 $-1 #
coedge $-1 $271 $272 $148 $208 reversed $199 $-1 #
edge $-1 $211 0 $273 8.8499999999999996 $148 $274 forward 7 unknown #
coedge $-1 $169 $149 $152 $215 reversed $29 $-1 #
coedge $-1 $149 $275 $271 $276 reversed $29 $-1 #
vertex $-1 $150 $277 #
ellipse-curve $-1 9 0.099999999999999992 17.149999999999999 0 1 0 -3.3356798205817517 0 -1.0598302385588418 1 I I #
coedge $-1 $170 $157 $151 $214 reversed $143 $-1 #
edge $-1 $173 0 $159 0.25 $151 $278 forward 7 unknown #
edge $-1 $265 0 $153 0.83810610674739139 $209 $279 forward 7 unknown #
point $-1 5.6643201794182474 0.099999999999999992 16.090169761441157 #
point $-1 5.6643201794182501 0.34999999999999998 16.090169761441157 #
edge $-1 $220 5.3387000036185473e-015 $204 1.9896753472735544 $156 $280 forward 7 unknown #
coedge $-1 $157 $170 $264 $281 forward $143 $-1 #
vertex $-1 $218 $282 #
straight-curve $-1 6.4143201794182465 0.34999999999999998 14.791131655764502 -0.99862953475457394 0 0.052335956242941899 I I #
point $-1 6.4143201794182465 0.34999999999999998 14.791131655764502 #
coedge $-1 $283 $161 $284 $285 reversed $29 $-1 #
coedge $-1 $286 $268 $161 $225 forward $41 $-1 #
edge $-1 $287 0 $229 0.30763827691334245 $161 $288 forward 7 unknown #
coedge $-1 $289 $162 $165 $232 forward $228 $-1 #
coedge $-1 $162 $289 $286 $290 reversed $228 $-1 #
loop $-1 $-1 $162 $291 #
vertex $-1 $225 $292 #
straight-curve $-1 12.335679820581751 0.099999999999999992 16.090169761441164 0.4539904997395478 0 -0.89100652418836734 I I #
coedge $-1 $165 $164 $293 $294 reversed $166 $-1 #
edge $-1 $167 0 $295 0.25 $226 $296 forward 7 unknown #
face $-1 $178 $166 $3 $-1 $297 forward single #
point $-1 12.716172030818768 0.099999999999999992 15.343411752367118 #
edge $-1 $236 0 $265 1.9896753472735422 $169 $298 forward 7 unknown #
vertex $-1 $171 $299 #
straight-curve $-1 6.4143201794182456 0.099999999999999992 14.791131655764502 -0.99862953475457394 0 0.052335956242941899 I I #
coedge $-1 $172 $286 $300 $301 forward $41 $-1 #
point $-1 6.4143201794182456 0.099999999999999992 14.791131655764502 #
coedge $-1 $300 $293 $175 $241 forward $302 $-1 #
edge $-1 $244 0 $242 0.83810610674739316 $240 $303 forward 7 unknown #
vertex $-1 $176 $304 #
straight-curve $-1 11.585679820581753 0.099999999999999992 14.791131655764501 0 1 0 I I #
vertex $-1 $241 $305 #
straight-curve $-1 12.422637332037869 0.099999999999999992 14.834994740294176 0 1 -7.1054273576010019e-015 I I #
face $-1 $130 $251 $3 $-1 $306 forward single #
plane-surface $-1 12.422637332037869 0.099999999999999992 14.834994740294174 0.05233595624294235 0 -0.99862953475457406 -0.99862953475457406 0 -0.05233595624294235 forward_v I I I I #
coedge $-1 $183 $183 $181 $249 forward $251 $-1 #
edge $-1 $185 0 $187 3.14159265358979 $248 $307 forward 7 unknown #
cone-surface $-1 12.404319747352838 0.099999999999999992 15.184515077458277 0 1 0 0.068749999999999992 0 0.11907849302036029 1 I I 0 1 0.13749999999999998 forward I I I I #
loop $-1 $302 $183 $246 #
ellipse-curve $-1 12.404319747352835 0.34999999999999998 15.184515077458274 0 -1 0 -0.068749999999997868 0 -0.119078493020357 1 I I #
point $-1 12.473069747352836 0.34999999999999998 15.303593570478638 #
point $-1 12.335569747352837 0.34999999999999998 15.065436584437917 #
ellipse-curve $-1 8.9999999999999982 0.34999999999999998 21.080969845083441 0 -1 0 -0.13749999999999929 0 -3.5527136788005009e-015 1 I I #
face $-1 $308 $309 $3 $-1 $310 forward single #
loop $-1 $-1 $311 $192 #
plane-surface $-1 8.25 0.099999999999999992 20.568698582794333 -0.83867056794542394 0 0.54463903501502731 0.5446390350150272 0 0.83867056794542383 forward_v I I I I #
loop $-1 $-1 $312 $260 #
face $-1 $95 $194 $3 $-1 $313 forward single #
loop $-1 $-1 $314 $198 #
plane-surface $-1 9.2935346987808973 0.099999999999999992 21.2715935073387 0.8386705679454215 0 0.54463903501503108 0.54463903501503108 0 -0.8386705679454215 forward_v I I I I #
coedge $-1 $284 $315 $316 $317 reversed $199 $-1 #
coedge $-1 $202 $201 $219 $281 reversed $99 $-1 #
vertex $-1 $235 $318 #
straight-curve $-1 5.2838279691812309 0.099999999999999992 15.343411752367119 0 1 0 I I #
point $-1 5.2838279691812318 0.34999999999999998 15.343411752367118 #
coedge $-1 $224 $206 $319 $320 reversed $41 $-1 #
coedge $-1 $321 $322 $206 $270 forward $323 $-1 #
edge $-1 $324 0 $273 3.141592653589794 $206 $325 forward 7 unknown #
coedge $-1 $326 $207 $210 $276 forward $199 $-1 #
coedge $-1 $207 $319 $327 $328 reversed $199 $-1 #
vertex $-1 $270 $329 #
straight-curve $-1 5.5 0.099999999999999992 17.149999999999999 0 1 0 I I #
coedge $-1 $210 $330 $311 $331 reversed $29 $-1 #
edge $-1 $211 0 $332 1.3548358281099402 $210 $333 forward 7 unknown #
point $-1 5.5 0.099999999999999992 17.149999999999999 #
straight-curve $-1 6.4143201794182456 0.099999999999999992 14.791131655764502 3.5527136788005009e-015 1 0 I I #
straight-curve $-1 5.2838279691812309 0.099999999999999992 15.343411752367119 0.45399049973954952 0 0.89100652418836646 I I #
ellipse-curve $-1 5.595680252647159 0.34999999999999998 15.184515077458272 0 1 0 -0.018317584685028088 0 -0.34952033716409758 1 I I #
edge $-1 $236 0 $220 0.25 $219 $334 forward 7 unknown #
point $-1 5.5773626679621291 0.34999999999999998 14.834994740294176 #
coedge $-1 $330 $223 $335 $336 reversed $29 $-1 #
coedge $-1 $319 $263 $223 $285 forward $199 $-1 #
edge $-1 $337 1.4863393962328633e-015 $287 1.3548358281099402 $223 $338 forward 7 unknown #
coedge $-1 $238 $224 $227 $290 forward $41 $-1 #
vertex $-1 $285 $339 #
ellipse-curve $-1 9 0.099999999999999992 17.149999999999999 0 1 0 3.5 0 0 1 I I #
coedge $-1 $227 $226 $340 $341 reversed $228 $-1 #
edge $-1 $229 0 $342 0.25 $286 $343 forward 7 unknown #
face $-1 $233 $228 $3 $-1 $344 forward single #
point $-1 12.335679820581753 0.099999999999999992 16.09016976144116 #
coedge $-1 $240 $340 $231 $294 forward $302 $-1 #
edge $-1 $295 -2.2657612747451748e-015 $244 1.9896753472735391 $293 $345 forward 7 unknown #
vertex $-1 $294 $346 #
straight-curve $-1 12.716172030818768 0.099999999999999992 15.343411752367121 0 1 0 I I #
cone-surface $-1 12.404319747352838 0.099999999999999992 15.184515077458277 0 1 0 0.17499999999999999 0 0.30310889132455349 1 I I 0 1 0.34999999999999998 forward I I I I #
ellipse-curve $-1 5.595680252647159 0.099999999999999992 15.184515077458277 0 1 0 -0.018317584685028976 0 -0.34952033716410114 1 I I #
point $-1 5.57736266796213 0.099999999999999992 14.834994740294176 #
coedge $-1 $340 $240 $238 $301 reversed $302 $-1 #
edge $-1 $342 9.7880887068996085e-016 $242 0.43192099736992007 $238 $347 forward 7 unknown #
loop $-1 $-1 $300 $246 #
straight-curve $-1 12.422637332037866 0.34999999999999998 14.834994740294174 -0.99862953475457394 0 -0.052335956242941843 I I #
point $-1 11.585679820581749 0.34999999999999998 14.791131655764502 #
point $-1 12.422637332037866 0.34999999999999998 14.834994740294174 #
plane-surface $-1 0 0.34999999999999998 0 0 1 0 0.5 0 0.8660254037844386 forward_v I I I I #
ellipse-curve $-1 12.404319747352835 0.34999999999999998 15.184515077458274 0 -1 0 0.068750000000001421 0 0.11907849302036411 1 I I #
face $-1 $348 $349 $3 $-1 $350 forward single #
loop $-1 $-1 $351 $256 #
cone-surface $-1 9 0.099999999999999992 21.080969845083438 0 1 0 -0.34999999999999998 0 0 1 I I 0 1 0.34999999999999998 forward I I I I #
coedge $-1 $352 $353 $275 $331 forward $257 $-1 #
coedge $-1 $354 $355 $315 $356 reversed $259 $-1 #
plane-surface $-1 0 0.34999999999999998 0 0 1 0 -1 0 0 forward_v I I I I #
coedge $-1 $357 $316 $355 $358 reversed $261 $-1 #
coedge $-1 $263 $326 $312 $356 forward $199 $-1 #
coedge $-1 $314 $335 $263 $317 forward $261 $-1 #
edge $-1 $337 1.2621774483536189e-029 $359 0.25 $263 $360 forward 7 unknown #
point $-1 5.2838279691812309 0.099999999999999992 15.343411752367119 #
coedge $-1 $272 $284 $268 $320 forward $199 $-1 #
edge $-1 $287 0 $324 8.8499999999999996 $268 $361 forward 7 unknown #
coedge $-1 $362 $269 $363 $364 reversed $323 $-1 #
coedge $-1 $269 $362 $365 $366 forward $323 $-1 #
loop $-1 $-1 $322 $348 #
vertex $-1 $320 $367 #
ellipse-curve $-1 9 8.9499999999999993 17.149999999999999 0 1 0 3.5 0 2.5234925260519958e-011 1 I I #
coedge $-1 $315 $271 $353 $368 forward $199 $-1 #
coedge $-1 $365 $363 $272 $328 forward $349 $-1 #
edge $-1 $273 0 $324 3.1415926535897922 $272 $369 forward 7 unknown #
point $-1 5.5 8.9499999999999993 17.149999999974767 #
coedge $-1 $275 $283 $370 $371 reversed $29 $-1 #
edge $-1 $332 0 $372 0.83810610674739217 $275 $373 forward 7 unknown #
vertex $-1 $276 $374 #
ellipse-curve $-1 9 0.099999999999999992 17.149999999999999 0 1 0 -3.5 0 0 1 I I #
straight-curve $-1 5.5773626679621291 0.099999999999999992 14.834994740294176 0 1 0 I I #
coedge $-1 $316 $357 $283 $336 forward $261 $-1 #
edge $-1 $375 0 $337 0.83810610674739905 $283 $376 forward 7 unknown #
vertex $-1 $336 $377 #
ellipse-curve $-1 9 0.099999999999999992 17.149999999999999 0 1 0 0.75 0 3.4186985827943346 1 I I #
point $-1 12.5 0.099999999999999992 17.149999999999999 #
coedge $-1 $293 $300 $289 $341 forward $302 $-1 #
edge $-1 $342 3.9719401956195851e-015 $295 0.83810610674739738 $340 $378 forward 7 unknown #
vertex $-1 $301 $379 #
straight-curve $-1 12.335679820581753 0.099999999999999992 16.09016976144116 0 1 0 I I #
plane-surface $-1 12.335679820581753 0.099999999999999992 16.09016976144116 0.89100652418836734 0 0.45399049973954797 0.45399049973954797 0 -0.89100652418836734 forward_v I I I I #
ellipse-curve $-1 12.404319747352835 0.34999999999999998 15.184515077458274 0 1 0 0.31185228346592986 0 0.15889667490884385 1 I I #
point $-1 12.716172030818766 0.34999999999999998 15.343411752367119 #
ellipse-curve $-1 9.0000000000000426 0.34999999999999998 17.149999999999977 0 1 0 3.33567982058171 0 -1.0598302385588134 1 I I #
face $-1 $380 $323 $3 $-1 $381 forward single #
loop $-1 $-1 $363 $308 #
torus-surface $-1 9 8.9499999999999993 17.149999999999999 0 1 0 3.3499999999999996 0.14999999999999999 -0.99999563951296311 0 -0.0029531263196618616 forward_v I I I I #
coedge $-1 $382 $370 $357 $383 forward $309 $-1 #
coedge $-1 $384 $311 $385 $386 forward $257 $-1 #
coedge $-1 $311 $384 $326 $368 reversed $257 $-1 #
coedge $-1 $387 $312 $384 $388 forward $259 $-1 #
coedge $-1 $312 $387 $314 $358 forward $259 $-1 #
edge $-1 $389 0 $359 0.43192099736992395 $315 $390 forward 7 unknown #
coedge $-1 $335 $314 $351 $383 reversed $261 $-1 #
edge $-1 $391 -9.6747327485330414e-016 $359 0.83810610674739616 $355 $392 forward 7 unknown #
vertex $-1 $356 $393 #
straight-curve $-1 9.7500000000000036 0.099999999999999992 20.568698582794333 7.1054273576010019e-015 1 0 I I #
straight-curve $-1 12.5 0.099999999999999992 17.149999999999999 0 1 0 I I #
coedge $-1 $322 $321 $394 $395 reversed $323 $-1 #
coedge $-1 $327 $396 $321 $364 forward $349 $-1 #
edge $-1 $397 0 $273 1.5707963267952578 $363 $398 forward 7 unknown #
coedge $-1 $396 $327 $322 $366 reversed $349 $-1 #
edge $-1 $399 -1.1842378971837046e-014 $324 1.5707963267952283 $365 $400 forward 7 unknown #
point $-1 12.5 8.9499999999999993 17.150000000025234 #
edge $-1 $332 1.2621774483536189e-029 $389 0.25 $326 $401 forward 7 unknown #
ellipse-curve $-1 9 8.9499999999999993 17.149999999999999 0 1 0 -3.5 0 -2.5231372546841158e-011 1 I I #
coedge $-1 $351 $385 $330 $371 forward $309 $-1 #
edge $-1 $372 0 $375 1.9896753472735287 $330 $402 forward 7 unknown #
vertex $-1 $331 $403 #
straight-curve $-1 8.25 0.099999999999999992 20.568698582794333 0.54463903501502708 0 0.83867056794542394 I I #
point $-1 8.25 0.099999999999999992 20.568698582794333 #
vertex $-1 $371 $404 #
straight-curve $-1 9.2935346987808973 0.099999999999999992 21.2715935073387 0.54463903501503153 0 -0.83867056794542105 I I #
point $-1 9.7500000000000053 0.099999999999999992 20.568698582794333 #
straight-curve $-1 12.335679820581751 0.34999999999999998 16.090169761441164 0.45399049973954692 0 -0.89100652418836779 I I #
point $-1 12.335679820581753 0.34999999999999998 16.09016976144116 #
face $-1 $405 $406 $3 $-1 $407 forward single #
torus-surface $-1 9 8.9499999999999993 17.149999999999999 0 1 0 3.3499999999999996 0.14999999999999999 0.99999563951296311 0 0.002953126319661862 forward_v I I I I #
coedge $-1 $385 $351 $387 $408 reversed $309 $-1 #
edge $-1 $375 0 $391 0.25 $351 $409 forward 7 unknown #
coedge $-1 $353 $352 $354 $388 reversed $257 $-1 #
coedge $-1 $370 $382 $352 $386 reversed $309 $-1 #
edge $-1 $372 0 $410 0.25 $352 $411 forward 7 unknown #
coedge $-1 $355 $354 $382 $408 forward $259 $-1 #
edge $-1 $389 0 $410 0.83810610674739217 $354 $412 forward 7 unknown #
vertex $-1 $356 $413 #
ellipse-curve $-1 9 0.34999999999999998 17.150000000000091 0 1 0 -0.75 0 3.4186985827942422 1 I I #
vertex $-1 $358 $414 #
straight-curve $-1 9.2935346987808973 0.34999999999999998 21.2715935073387 0.54463903501503153 0 -0.83867056794542105 I I #
point $-1 9.75 0.34999999999999998 20.568698582794333 #
coedge $-1 $415 $415 $362 $395 forward $416 $-1 #
edge $-1 $399 2.3331254010065226e-014 $397 3.1415926534866987 $394 $417 forward 7 unknown #
coedge $-1 $363 $365 $415 $418 reversed $349 $-1 #
vertex $-1 $418 $419 #
ellipse-curve $-1 5.6500000000000004 8.9499999999999993 17.149999999986996 -8.1527594066943283e-011 -8.6449366184115869e-011 1 5.4178883601707639e-014 0.15000000000000036 1.2967404927621828e-011 1 I I #
vertex $-1 $418 $420 #
ellipse-curve $-1 12.349999999999998 8.9499999999999975 17.150000000012998 8.1568026503843886e-011 -8.6425681426257595e-011 -1 -5.1514348342607263e-014 0.15000000000000213 -1.2963852213943028e-011 1 I I #
straight-curve $-1 8.2499999999999982 0.099999999999999992 20.568698582794333 7.1054273576010019e-015 1 0 I I #
ellipse-curve $-1 9 0.099999999999999992 21.080969845083438 0 1 0 -0.29353469878089911 0 0.19062366225525906 1 I I #
point $-1 8.7064653012191009 0.099999999999999992 21.271593507338697 #
point $-1 9.2935346987808973 0.099999999999999992 21.2715935073387 #
face $-1 $421 $422 $3 $-1 $423 forward single #
loop $-1 $416 $424 $380 #
plane-surface $-1 9 9.0999999999999996 17.149999999999999 0 1 0 1 0 0 forward_v I I I I #
edge $-1 $410 2.7755575615628736e-015 $391 1.9896753472735287 $387 $425 forward 7 unknown #
straight-curve $-1 9.2935346987808973 0.099999999999999992 21.2715935073387 0 1 0 I I #
vertex $-1 $408 $426 #
straight-curve $-1 8.7064653012191009 0.099999999999999992 21.271593507338697 0 1 0 I I #
straight-curve $-1 8.25 0.34999999999999998 20.568698582794333 0.54463903501502708 0 0.83867056794542394 I I #
point $-1 8.25 0.34999999999999998 20.568698582794333 #
point $-1 9.2935346987808956 0.34999999999999998 21.2715935073387 #
coedge $-1 $394 $394 $396 $418 forward $416 $-1 #
loop $-1 $-1 $394 $380 #
ellipse-curve $-1 9 9.0999999999999996 17.150000000172682 0 1 0 3.3499999999999464 0 -1.7264767393498914e-010 1 I I #
edge $-1 $397 0 $399 3.1415926534867222 $415 $427 forward 7 unknown #
point $-1 5.6500000000000545 9.0999999999999996 17.149999999999963 #
point $-1 12.349999999999945 9.0999999999999996 17.149999999999956 #
face $-1 $428 $429 $3 $-1 $430 forward single #
loop $-1 $-1 $431 $405 #
cone-surface $-1 9 9.0499999999999989 17.149999999999999 0 1 0 3 0 0 1 I I 0 1 3 forward I I I I #
coedge $-1 $432 $432 $433 $434 forward $406 $-1 #
ellipse-curve $-1 9 0.34999999999999998 21.080969845083438 0 1 0 -0.29353469878090088 0 0.19062366225525906 1 I I #
point $-1 8.7064653012191009 0.34999999999999998 21.271593507338697 #
ellipse-curve $-1 9 9.0999999999999996 17.149999999827315 0 1 0 -3.3499999999999455 0 1.7264767393498914e-010 1 I I #
face $-1 $435 $436 $3 $-1 $437 forward single #
loop $-1 $-1 $438 $421 #
cone-surface $-1 9 9.0499999999999989 17.149999999999999 0 1 0 3 0 0 1 I I 0 1 3 forward I I I I #
coedge $-1 $433 $439 $440 $441 forward $422 $-1 #
coedge $-1 $424 $424 $442 $443 reversed $406 $-1 #
coedge $-1 $444 $431 $424 $434 reversed $422 $-1 #
edge $-1 $445 0 $446 3.1415926535897931 $424 $447 forward 7 unknown #
face $-1 $448 $449 $3 $-1 $450 forward single #
loop $-1 $-1 $451 $428 #
torus-surface $-1 9 9.9499999999999993 17.149999999999999 0 1 0 2.8499999999999992 0.14999999999999999 0.99999563951296311 0 0.0029531263196621413 forward_v I I I I #
coedge $-1 $442 $452 $444 $453 forward $429 $-1 #
coedge $-1 $431 $444 $454 $455 reversed $422 $-1 #
coedge $-1 $452 $442 $431 $441 reversed $429 $-1 #
edge $-1 $456 0 $446 0.84999999999999964 $440 $457 forward 7 unknown #
coedge $-1 $440 $438 $432 $443 forward $429 $-1 #
edge $-1 $445 0 $446 3.1415926535897931 $442 $458 forward 7 unknown #
coedge $-1 $439 $433 $438 $453 reversed $422 $-1 #
vertex $-1 $443 $459 #
vertex $-1 $441 $460 #
ellipse-curve $-1 9 9.0999999999999996 17.149999999999999 0 -1 0 3 0 0 1 I I #
face $-1 $461 $462 $3 $-1 $463 forward single #
loop $-1 $-1 $464 $435 #
torus-surface $-1 9 9.9499999999999993 17.149999999999999 0 1 0 2.8499999999999992 0.14999999999999999 -0.99999563951296311 0 -0.0029531263196621404 forward_v I I I I #
coedge $-1 $465 $466 $467 $468 forward $436 $-1 #
coedge $-1 $438 $440 $465 $469 reversed $429 $-1 #
edge $-1 $470 0 $445 0.84999999999999964 $438 $471 forward 7 unknown #
coedge $-1 $467 $464 $439 $455 forward $449 $-1 #
edge $-1 $456 -5.921189464667505e-015 $470 3.141592653589794 $439 $472 forward 7 unknown #
vertex $-1 $469 $473 #
straight-curve $-1 6 9.9499999999999993 17.149999999999999 0 -1 0 I I #
ellipse-curve $-1 9 9.0999999999999996 17.149999999999999 0 1 0 3 0 0 1 I I #
point $-1 12 9.0999999999999996 17.149999999999999 #
point $-1 6 9.0999999999999996 17.149999999999999 #
face $-1 $474 $475 $3 $-1 $476 forward single #
loop $-1 $477 $478 $448 #
plane-surface $-1 0 10.1 0 0 1 0 1 0 0 forward_v I I I I #
coedge $-1 $454 $479 $480 $481 forward $449 $-1 #
coedge $-1 $480 $451 $452 $469 forward $436 $-1 #
coedge $-1 $451 $480 $478 $482 reversed $436 $-1 #
coedge $-1 $479 $454 $451 $468 reversed $449 $-1 #
edge $-1 $483 1.1842378886589056e-014 $470 1.5707963267952163 $467 $484 forward 7 unknown #
edge $-1 $470 0 $456 3.141592653589786 $452 $485 forward 7 unknown #
vertex $-1 $469 $486 #
straight-curve $-1 12 9.9499999999999993 17.149999999999999 0 -1 0 I I #
ellipse-curve $-1 9 9.9499999999999993 17.149999999999999 0 1 0 -2.9999999999999991 0 -2.162892087653745e-011 1 I I #
point $-1 6.0000000000000009 9.9499999999999993 17.149999999978352 #
face $-1 $487 $488 $3 $-1 $489 forward single #
loop $-1 $-1 $490 $461 #
cone-surface $-1 8 10.1 18.5 0 1 0 0.25 0 0 1 I I 0 1 0.25 forward I I I I #
loop $-1 $491 $492 $448 #
coedge $-1 $493 $493 $466 $482 forward $462 $-1 #
coedge $-1 $464 $467 $493 $494 reversed $449 $-1 #
coedge $-1 $466 $465 $464 $481 reversed $436 $-1 #
edge $-1 $495 0 $456 1.5707963267952401 $464 $496 forward 7 unknown #
edge $-1 $483 3.2410721280263398e-014 $495 3.1415926535267742 $478 $497 forward 7 unknown #
vertex $-1 $494 $498 #
ellipse-curve $-1 11.849999999999998 9.9499999999999993 17.150000000011211 6.9414822296365218e-011 -7.4441193949777453e-011 -1 -4.7961634663806763e-014 0.15000000000000036 -1.1166179092469974e-011 1 I I #
ellipse-curve $-1 9 9.9499999999999993 17.149999999999999 0 1 0 2.9999999999999982 0 2.1625368162858649e-011 1 I I #
point $-1 11.999999999999998 9.9499999999999993 17.150000000021624 #
face $-1 $499 $500 $3 $-1 $501 forward single #
loop $-1 $-1 $502 $474 #
cone-surface $-1 8 10.1 18.5 0 1 0 0.25 0 0 1 I I 0 1 0.25 forward I I I I #
coedge $-1 $503 $504 $505 $506 forward $475 $-1 #
loop $-1 $507 $508 $448 #
coedge $-1 $509 $509 $504 $510 reversed $477 $-1 #
coedge $-1 $478 $478 $479 $494 forward $462 $-1 #
edge $-1 $495 0 $483 3.1415926535268044 $493 $511 forward 7 unknown #
vertex $-1 $494 $512 #
ellipse-curve $-1 6.1500000000000004 9.9500000000000011 17.149999999988772 -6.9340894602131873e-011 -7.4535932981212227e-011 1 4.9737991503207013e-014 0.14999999999999858 1.1180389947185176e-011 1 I I #
ellipse-curve $-1 8.9999999999999964 10.1 17.150000000089801 0 1 0 2.8499999999999535 0 -8.9755758381215855e-011 1 I I #
point $-1 11.849999999999952 10.1 17.149999999999952 #
face $-1 $513 $514 $3 $-1 $515 forward single #
loop $-1 $-1 $516 $487 #
plane-surface $-1 0 10.6 0 0 1 0 1 0 0 forward_v I I I I #
coedge $-1 $517 $518 $519 $520 forward $488 $-1 #
coedge $-1 $519 $490 $516 $521 reversed $475 $-1 #
coedge $-1 $490 $519 $492 $510 forward $475 $-1 #
coedge $-1 $518 $517 $490 $506 reversed $488 $-1 #
edge $-1 $522 0 $523 0.5 $505 $524 forward 7 unknown #
loop $-1 $-1 $525 $448 #
coedge $-1 $526 $526 $527 $528 reversed $491 $-1 #
coedge $-1 $492 $492 $518 $529 reversed $477 $-1 #
edge $-1 $530 0 $522 3.1415926535897931 $492 $531 forward 7 unknown #
ellipse-curve $-1 9 10.1 17.149999999910193 0 1 0 -2.8499999999999499 0 8.9759311094894656e-011 1 I I #
point $-1 6.1500000000000501 10.1 17.149999999999952 #
face $-1 $532 $533 $3 $-1 $534 forward single #
loop $-1 $-1 $535 $499 #
cone-surface $-1 8.5999999999999996 10.1 17.5 0 1 0 0.375 0 0 1 I I 0 1 0.375 forward I I I I #
coedge $-1 $536 $536 $503 $521 forward $500 $-1 #
coedge $-1 $505 $502 $536 $537 reversed $488 $-1 #
coedge $-1 $502 $505 $509 $529 forward $488 $-1 #
coedge $-1 $504 $503 $502 $520 reversed $475 $-1 #
edge $-1 $530 0 $538 0.5 $502 $539 forward 7 unknown #
edge $-1 $538 0 $523 3.1415926535897931 $516 $540 forward 7 unknown #
vertex $-1 $529 $541 #
vertex $-1 $537 $542 #
straight-curve $-1 8.25 10.1 18.5 0 1 0 I I #
coedge $-1 $543 $543 $544 $545 reversed $507 $-1 #
coedge $-1 $508 $508 $546 $547 reversed $491 $-1 #
coedge $-1 $535 $548 $508 $528 forward $514 $-1 #
edge $-1 $549 0 $550 3.1415926535897931 $508 $551 forward 7 unknown #
edge $-1 $522 0 $530 3.1415926535897931 $509 $552 forward 7 unknown #
vertex $-1 $529 $553 #
ellipse-curve $-1 8 10.1 18.5 0 1 0 -0.25 0 0 1 I I #
face $-1 $554 $555 $3 $-1 $556 forward single #
loop $-1 $-1 $557 $513 #
cone-surface $-1 8.5999999999999996 10.1 17.5 0 1 0 0.375 0 0 1 I I 0 1 0.375 forward I I I I #
coedge $-1 $558 $527 $559 $560 forward $514 $-1 #
coedge $-1 $516 $516 $517 $537 forward $500 $-1 #
edge $-1 $523 0 $538 3.1415926535897931 $536 $561 forward 7 unknown #
vertex $-1 $537 $562 #
straight-curve $-1 7.75 10.1 18.5 0 1 0 I I #
ellipse-curve $-1 8 10.6 18.5 0 1 0 -0.25 0 0 1 I I #
point $-1 8.25 10.1 18.5 #
point $-1 8.25 10.6 18.5 #
coedge $-1 $525 $525 $563 $564 reversed $507 $-1 #
coedge $-1 $565 $566 $525 $545 forward $567 $-1 #
edge $-1 $568 0 $569 3.1415926535897931 $525 $570 forward 7 unknown #
coedge $-1 $557 $559 $526 $547 forward $533 $-1 #
edge $-1 $550 0 $549 3.1415926535897931 $526 $571 forward 7 unknown #
coedge $-1 $527 $558 $557 $572 reversed $514 $-1 #
vertex $-1 $547 $573 #
vertex $-1 $547 $574 #
ellipse-curve $-1 8.5999999999999996 10.1 17.5 0 1 0 -0.375 0 0 1 I I #
ellipse-curve $-1 8 10.1 18.5 0 1 0 0.25 0 0 1 I I #
point $-1 7.75 10.1 18.5 #
face $-1 $575 $567 $3 $-1 $576 forward single #
loop $-1 $-1 $577 $532 #
plane-surface $-1 0 12.1 0 0 1 0 1 0 0 forward_v I I I I #
coedge $-1 $578 $546 $548 $572 forward $533 $-1 #
coedge $-1 $548 $535 $577 $579 reversed $514 $-1 #
coedge $-1 $546 $578 $535 $560 reversed $533 $-1 #
edge $-1 $550 0 $580 2 $559 $581 forward 7 unknown #
ellipse-curve $-1 8 10.6 18.5 0 1 0 0.25 0 0 1 I I #
point $-1 7.75 10.6 18.5 #
coedge $-1 $582 $583 $543 $564 forward $584 $-1 #
edge $-1 $569 0 $568 3.1415926535897931 $543 $585 forward 7 unknown #
coedge $-1 $586 $544 $583 $587 forward $567 $-1 #
coedge $-1 $544 $586 $582 $588 reversed $567 $-1 #
loop $-1 $-1 $565 $554 #
vertex $-1 $564 $589 #
vertex $-1 $564 $590 #
ellipse-curve $-1 7.4180000000000001 10.1 17.5 0 1 0 -0.375 0 0 1 I I #
ellipse-curve $-1 8.5999999999999996 10.1 17.5 0 1 0 0.375 0 0 1 I I #
edge $-1 $549 0 $591 2 $557 $592 forward 7 unknown #
point $-1 8.2249999999999996 10.1 17.5 #
point $-1 8.9749999999999996 10.1 17.5 #
face $-1 $593 $584 $3 $-1 $594 forward single #
cone-surface $-1 7.4180000000000001 10.1 17.5 0 1 0 0.375 0 0 1 I I 0 1 0.375 forward I I I I #
coedge $-1 $595 $595 $558 $579 forward $555 $-1 #
coedge $-1 $559 $557 $595 $596 reversed $533 $-1 #
edge $-1 $591 0 $580 3.1415926535897931 $577 $597 forward 7 unknown #
vertex $-1 $596 $598 #
straight-curve $-1 8.9749999999999996 10.1 17.5 0 1 0 I I #
coedge $-1 $599 $563 $566 $588 forward $584 $-1 #
coedge $-1 $563 $599 $565 $587 reversed $584 $-1 #
loop $-1 $-1 $582 $575 #
ellipse-curve $-1 7.4180000000000001 10.1 17.5 0 1 0 0.375 0 0 1 I I #
coedge $-1 $566 $565 $600 $601 reversed $567 $-1 #
edge $-1 $569 0 $602 1 $583 $603 forward 7 unknown #
edge $-1 $568 0 $604 1 $582 $605 forward 7 unknown #
point $-1 7.0430000000000001 10.1 17.5 #
point $-1 7.7930000000000001 10.1 17.5 #
vertex $-1 $596 $606 #
straight-curve $-1 8.2249999999999996 10.1 17.5 0 1 0 I I #
face $-1 $291 $607 $3 $-1 $608 forward single #
cone-surface $-1 7.4180000000000001 10.1 17.5 0 1 0 0.375 0 0 1 I I 0 1 0.375 forward I I I I #
coedge $-1 $577 $577 $578 $596 forward $555 $-1 #
edge $-1 $580 0 $591 3.1415926535897931 $595 $609 forward 7 unknown #
ellipse-curve $-1 8.6000000000000014 12.1 17.5 0 1 0 -0.37500000000000178 0 0 1 I I #
point $-1 8.9749999999999996 12.1 17.5 #
coedge $-1 $583 $582 $610 $611 reversed $584 $-1 #
coedge $-1 $610 $610 $586 $601 forward $607 $-1 #
edge $-1 $604 0 $602 3.1415926535897931 $600 $612 forward 7 unknown #
vertex $-1 $611 $613 #
straight-curve $-1 7.7930000000000001 10.1 17.5 0 1 0 I I #
vertex $-1 $611 $614 #
straight-curve $-1 7.0430000000000001 10.1 17.5 0 1 0 I I #
point $-1 8.2249999999999996 12.1 17.5 #
loop $-1 $-1 $600 $593 #
plane-surface $-1 0 11.1 0 0 1 0 1 0 0 forward_v I I I I #
ellipse-curve $-1 8.5999999999999979 12.1 17.5 0 1 0 0.37500000000000178 0 0 1 I I #
coedge $-1 $600 $600 $599 $611 forward $607 $-1 #
edge $-1 $602 0 $604 3.1415926535897931 $610 $615 forward 7 unknown #
ellipse-curve $-1 7.4180000000000001 11.1 17.5 0 1 0 -0.375 0 0 1 I I #
point $-1 7.7930000000000001 11.1 17.5 #
point $-1 7.0430000000000001 11.1 17.5 #
ellipse-curve $-1 7.418000000000001 11.1 17.5 0 1 0 0.37499999999999911 0 0 1 I I #
End-of-ACIS-data 