600 0 1 0           
93 GICL Pro/E ACIS Translator - Source: f:/data5/repository/PTC/V18/process18/fx55-100.prt - 6 0 13 ACIS 6.0.3 NT 24 Thu Apr 04 13:31:01 2002 
1 9.9999999999999995e-007 1e-010 
body $-1 $1 $-1 $2 #
lump $-1 $-1 $3 $0 #
transform $-1 1 0 0 0 1 0 0 0 1 0 0 0 25.399999999999999 no_rotate no_reflect no_shear #
shell $-1 $-1 $-1 $4 $-1 $1 #
face $-1 $5 $6 $3 $-1 $7 forward single #
face $-1 $8 $9 $3 $-1 $10 reversed single #
loop $-1 $11 $12 $4 #
plane-surface $-1 -2 3.0625 0.03125 0 0 1 0 -1 0 forward_v I I I I #
face $-1 $13 $14 $3 $-1 $15 reversed single #
loop $-1 $-1 $16 $5 #
cone-surface $-1 -1.4141999999999999 2.4375 0.03125 0 0 -1 -0.3125 0 0 1 I I 0 1 0.3125 forward I I I I #
loop $-1 $17 $18 $4 #
coedge $-1 $19 $19 $20 $21 forward $6 $-1 #
face $-1 $22 $23 $3 $-1 $24 reversed single #
loop $-1 $-1 $25 $8 #
cone-surface $-1 -1.4141999999999999 2.4375 0.03125 0 0 -1 -0.3125 0 0 1 I I 0 1 0.3125 forward I I I I #
coedge $-1 $26 $20 $27 $28 forward $9 $-1 #
loop $-1 $-1 $29 $4 #
coedge $-1 $30 $30 $31 $32 forward $11 $-1 #
coedge $-1 $12 $12 $33 $34 forward $6 $-1 #
coedge $-1 $16 $35 $12 $21 reversed $9 $-1 #
edge $-1 $36 0 $37 3.1415926535897931 $12 $38 forward 7 unknown #
face $-1 $39 $40 $3 $-1 $41 reversed single #
loop $-1 $42 $43 $13 #
plane-surface $-1 -2 3.0625 -0.03125 0 0 1 0 -1 0 forward_v I I I I #
coedge $-1 $44 $33 $35 $45 forward $14 $-1 #
coedge $-1 $35 $16 $43 $46 forward $9 $-1 #
coedge $-1 $33 $44 $16 $28 reversed $14 $-1 #
edge $-1 $36 0 $47 0.0625 $27 $48 forward 7 unknown #
coedge $-1 $49 $50 $51 $52 forward $17 $-1 #
coedge $-1 $18 $18 $53 $54 forward $11 $-1 #
coedge $-1 $55 $56 $18 $32 reversed $40 $-1 #
edge $-1 $57 0 $58 3.1415926535897931 $18 $59 forward 7 unknown #
coedge $-1 $25 $27 $19 $34 reversed $14 $-1 #
edge $-1 $37 0 $36 3.1415926535897931 $19 $60 forward 7 unknown #
coedge $-1 $20 $26 $25 $45 reversed $9 $-1 #
vertex $-1 $34 $61 #
vertex $-1 $34 $62 #
ellipse-curve $-1 -1.4141999999999999 2.4375 0.03125 0 0 -1 0.3125 0 0 1 I I #
face $-1 $63 $64 $3 $-1 $65 reversed single #
loop $-1 $-1 $55 $22 #
cone-surface $-1 1.4241999999999999 2.4375 0.03125 0 0 -1 -0.3125 0 0 1 I I 0 1 0.3125 forward I I I I #
loop $-1 $66 $67 $13 #
coedge $-1 $68 $68 $26 $46 reversed $23 $-1 #
coedge $-1 $27 $25 $68 $69 forward $14 $-1 #
edge $-1 $37 0 $70 0.0625 $25 $71 forward 7 unknown #
edge $-1 $47 0 $70 3.1415926535897931 $26 $72 forward 7 unknown #
vertex $-1 $28 $73 #
straight-curve $-1 -1.1016999999999999 2.4375 0.03125 0 0 -1 I I #
coedge $-1 $74 $29 $75 $76 forward $17 $-1 #
coedge $-1 $29 $77 $78 $79 forward $17 $-1 #
coedge $-1 $80 $81 $29 $52 reversed $82 $-1 #
edge $-1 $83 0 $84 0.8549913195752592 $29 $85 forward 7 unknown #
coedge $-1 $86 $87 $30 $54 reversed $64 $-1 #
edge $-1 $58 0 $57 3.1415926535897931 $30 $88 forward 7 unknown #
coedge $-1 $89 $31 $87 $90 forward $40 $-1 #
coedge $-1 $31 $89 $86 $91 reversed $40 $-1 #
vertex $-1 $54 $92 #
vertex $-1 $54 $93 #
ellipse-curve $-1 1.4241999999999999 2.4375 0.03125 0 0 -1 0.3125 0 0 1 I I #
ellipse-curve $-1 -1.4141999999999999 2.4375 0.03125 0 0 -1 -0.3125 0 0 1 I I #
point $-1 -1.1016999999999999 2.4375 0.03125 #
point $-1 -1.7266999999999999 2.4375 0.03125 #
face $-1 $94 $95 $3 $-1 $96 reversed single #
loop $-1 $-1 $86 $39 #
cone-surface $-1 1.4241999999999999 2.4375 0.03125 0 0 -1 -0.3125 0 0 1 I I 0 1 0.3125 forward I I I I #
loop $-1 $-1 $97 $13 #
coedge $-1 $98 $98 $89 $99 reversed $42 $-1 #
coedge $-1 $43 $43 $44 $69 reversed $23 $-1 #
edge $-1 $70 0 $47 3.1415926535897931 $44 $100 forward 7 unknown #
vertex $-1 $69 $101 #
straight-curve $-1 -1.7266999999999999 2.4375 0.03125 0 0 -1 I I #
ellipse-curve $-1 -1.4141999999999999 2.4375 -0.03125 0 0 -1 0.3125 0 0 1 I I #
point $-1 -1.1016999999999999 2.4375 -0.03125 #
coedge $-1 $102 $49 $103 $104 forward $17 $-1 #
coedge $-1 $105 $106 $49 $76 reversed $107 $-1 #
edge $-1 $84 0 $108 1.0512195493536376 $49 $109 forward 7 unknown #
coedge $-1 $50 $110 $111 $112 reversed $17 $-1 #
coedge $-1 $113 $114 $50 $79 reversed $115 $-1 #
edge $-1 $116 0 $83 1.5707963267948966 $50 $117 forward 7 unknown #
coedge $-1 $118 $51 $114 $119 reversed $82 $-1 #
coedge $-1 $51 $118 $105 $120 forward $82 $-1 #
loop $-1 $-1 $118 $121 #
vertex $-1 $79 $122 #
vertex $-1 $76 $123 #
straight-curve $-1 -2 2.8125 0.03125 0 -1 0 I I #
coedge $-1 $124 $53 $56 $91 forward $64 $-1 #
coedge $-1 $53 $124 $55 $90 reversed $64 $-1 #
ellipse-curve $-1 1.4241999999999999 2.4375 0.03125 0 0 -1 -0.3125 0 0 1 I I #
coedge $-1 $56 $55 $67 $99 forward $40 $-1 #
edge $-1 $57 0 $125 0.0625 $87 $126 forward 7 unknown #
edge $-1 $58 0 $127 0.0625 $86 $128 forward 7 unknown #
point $-1 1.7366999999999999 2.4375 0.03125 #
point $-1 1.1116999999999999 2.4375 0.03125 #
face $-1 $129 $130 $3 $-1 $131 forward single #
loop $-1 $-1 $111 $63 #
plane-surface $-1 0 3.0625 0 0 -1 0 1 0 0 forward_v I I I I #
coedge $-1 $132 $133 $134 $135 forward $66 $-1 #
coedge $-1 $67 $67 $124 $136 reversed $42 $-1 #
edge $-1 $125 0 $127 3.1415926535897931 $89 $137 forward 7 unknown #
ellipse-curve $-1 -1.4141999999999997 2.4375 -0.03125 0 0 -1 -0.31250000000000022 0 0 1 I I #
point $-1 -1.7266999999999999 2.4375 -0.03125 #
coedge $-1 $138 $74 $139 $140 forward $17 $-1 #
coedge $-1 $141 $142 $74 $104 reversed $143 $-1 #
edge $-1 $108 -6.059784698631005e-016 $144 1.1500260412742198 $74 $145 forward 7 unknown #
coedge $-1 $146 $75 $81 $120 reversed $107 $-1 #
coedge $-1 $75 $146 $141 $147 forward $107 $-1 #
loop $-1 $-1 $146 $148 #
vertex $-1 $104 $149 #
ellipse-curve $-1 -1.75 1.9575086804247408 0.03125 2.7755575615628914e-017 0 1 -0.25 0 6.9388939039072284e-018 1 I I #
coedge $-1 $77 $150 $151 $152 forward $17 $-1 #
coedge $-1 $153 $154 $77 $112 forward $95 $-1 #
edge $-1 $116 -1.1102230246251565e-015 $155 0.23445554337722352 $77 $156 forward 7 unknown #
coedge $-1 $157 $78 $154 $158 reversed $115 $-1 #
coedge $-1 $78 $157 $80 $119 forward $115 $-1 #
loop $-1 $-1 $157 $159 #
vertex $-1 $79 $160 #
ellipse-curve $-1 -1.75 2.8125 0.03125 0 -2.7755575615628914e-017 1 0 0.25 6.9388939039072284e-018 1 I I #
coedge $-1 $81 $80 $161 $162 forward $82 $-1 #
edge $-1 $163 0 $83 0.0625 $80 $164 forward 7 unknown #
edge $-1 $165 0 $84 0.0625 $81 $166 forward 7 unknown #
face $-1 $159 $82 $3 $-1 $167 forward single #
point $-1 -2 2.8125 0.031250000000000007 #
point $-1 -2 1.9575086804247408 0.031250000000000007 #
coedge $-1 $87 $86 $98 $136 forward $64 $-1 #
vertex $-1 $90 $168 #
straight-curve $-1 1.7366999999999999 2.4375 0.03125 0 0 -1 I I #
vertex $-1 $136 $169 #
straight-curve $-1 1.1116999999999999 2.4375 0.03125 0 0 -1 I I #
face $-1 $170 $171 $3 $-1 $172 reversed single #
loop $-1 $-1 $173 $94 #
cone-surface $-1 -1.5155444566227734 2.8125 -0.031312501528132329 0 0 1 0 0.25 0 1 I I 0 1 0.25 forward I I I I #
coedge $-1 $174 $97 $173 $175 forward $66 $-1 #
coedge $-1 $97 $161 $157 $176 forward $66 $-1 #
coedge $-1 $154 $153 $97 $135 reversed $95 $-1 #
edge $-1 $177 0 $178 0.23445554337722552 $134 $179 forward 7 unknown #
edge $-1 $127 0 $125 3.1415926535897931 $124 $180 forward 7 unknown #
ellipse-curve $-1 1.4241999999999999 2.4375 -0.03125 0 0 -1 0.3125 0 0 1 I I #
coedge $-1 $181 $102 $182 $183 reversed $17 $-1 #
coedge $-1 $184 $185 $102 $140 reversed $186 $-1 #
edge $-1 $144 0 $187 1.0512195493536398 $102 $188 forward 7 unknown #
coedge $-1 $189 $103 $106 $147 reversed $143 $-1 #
coedge $-1 $103 $189 $184 $190 reversed $143 $-1 #
loop $-1 $-1 $189 $191 #
vertex $-1 $140 $192 #
straight-curve $-1 -1.8741282031752573 1.7405013322162479 0.03125 0.86802939283396996 -0.49651281270103137 0 I I #
coedge $-1 $106 $105 $193 $194 reversed $107 $-1 #
edge $-1 $195 0 $108 0.0625 $141 $196 forward 7 unknown #
face $-1 $121 $107 $3 $-1 $197 forward single #
point $-1 -1.8741282031752577 1.7405013322162484 0.031250000000000007 #
coedge $-1 $110 $198 $199 $200 reversed $17 $-1 #
coedge $-1 $201 $202 $110 $152 reversed $130 $-1 #
edge $-1 $203 0 $155 0.4851277481909958 $110 $204 forward 7 unknown #
coedge $-1 $134 $111 $202 $205 reversed $95 $-1 #
coedge $-1 $111 $134 $113 $158 forward $95 $-1 #
vertex $-1 $112 $206 #
straight-curve $-1 -1.7499999999999989 3.0625 0.03125 1 0 0 I I #
coedge $-1 $114 $113 $133 $176 reversed $115 $-1 #
edge $-1 $177 0 $116 0.0625 $154 $207 forward 7 unknown #
face $-1 $208 $115 $3 $-1 $209 forward single #
point $-1 -1.75 3.0625 0.031250000000000007 #
coedge $-1 $133 $193 $118 $162 reversed $66 $-1 #
edge $-1 $163 0 $165 0.8549913195752592 $118 $210 forward 7 unknown #
vertex $-1 $119 $211 #
straight-curve $-1 -2 2.8125 -0.03125 0 0 1 I I #
vertex $-1 $120 $212 #
straight-curve $-1 -2 1.9575086804247408 -0.03125 0 0 1 I I #
plane-surface $-1 -2 0 0 -1 0 0 0 -1 0 forward_v I I I I #
point $-1 1.7366999999999999 2.4375 -0.03125 #
point $-1 1.1116999999999999 2.4375 -0.03125 #
face $-1 $213 $214 $3 $-1 $215 forward single #
loop $-1 $-1 $216 $129 #
cone-surface $-1 -1.2878587085651816e-014 5.6875 0 0 0 1 -1.4523687548277708 -2.6250000000000058 0 1 I I 0 1 3 forward I I I I #
coedge $-1 $202 $201 $132 $175 reversed $130 $-1 #
coedge $-1 $217 $132 $216 $218 forward $66 $-1 #
edge $-1 $178 -4.4408920985007524e-015 $219 0.48512774819098331 $132 $220 forward 7 unknown #
edge $-1 $163 0 $177 1.5707963267948992 $133 $221 forward 7 unknown #
vertex $-1 $158 $222 #
vertex $-1 $135 $223 #
straight-curve $-1 -1.75 3.0625 -0.03125 1 0 0 I I #
ellipse-curve $-1 1.4241999999999999 2.4375 -0.03125 0 0 -1 -0.3125 0 0 1 I I #
coedge $-1 $224 $138 $225 $226 reversed $17 $-1 #
coedge $-1 $227 $228 $138 $183 forward $229 $-1 #
edge $-1 $230 0 $187 3.8899913195752602 $138 $231 forward 7 unknown #
coedge $-1 $232 $139 $142 $190 forward $186 $-1 #
coedge $-1 $139 $232 $227 $233 reversed $186 $-1 #
loop $-1 $-1 $232 $234 #
vertex $-1 $183 $235 #
ellipse-curve $-1 -0.99999999999999956 0.95249131957526068 0.03125 0 0 -1 0.12412820317525741 0.21700734820849199 0 1 I I #
coedge $-1 $142 $141 $236 $237 forward $143 $-1 #
edge $-1 $144 0 $238 0.0625 $142 $239 forward 7 unknown #
face $-1 $148 $143 $3 $-1 $240 forward single #
point $-1 -0.87587179682474214 1.1694986677837527 0.03125 #
coedge $-1 $161 $236 $146 $194 forward $66 $-1 #
edge $-1 $195 0 $165 1.0512195493536396 $193 $241 forward 7 unknown #
vertex $-1 $147 $242 #
straight-curve $-1 -1.8741282031752577 1.7405013322162484 -0.03125 0 0 1 I I #
cone-surface $-1 -1.75 1.9575086804247408 -0.031312501528132329 0 0 1 -0.12412820317525779 -0.21700734820849252 0 1 I I 0 1 0.25 forward I I I I #
coedge $-1 $150 $243 $244 $245 forward $17 $-1 #
coedge $-1 $246 $247 $150 $200 forward $171 $-1 #
edge $-1 $203 -7.8949192862233902e-016 $248 0.97025549638193898 $150 $249 forward 7 unknown #
coedge $-1 $173 $151 $247 $250 reversed $130 $-1 #
coedge $-1 $151 $173 $153 $205 forward $130 $-1 #
vertex $-1 $152 $251 #
ellipse-curve $-1 -1.5155444566227712 2.8125000000000093 0.03125 -1.2943018081428523e-017 -2.4553009198441768e-017 1 0.11658034281713348 0.22115384615383693 6.9388939039072284e-018 1 I I #
edge $-1 $178 0 $155 0.0625 $153 $252 forward 7 unknown #
point $-1 -1.5155444566227754 3.0625 0.03125 #
straight-curve $-1 -1.75 3.0625 -0.03125 0 0 1 I I #
face $-1 $-1 $253 $3 $-1 $254 reversed single #
cone-surface $-1 -1.75 2.8125 -0.031312501528132329 0 0 1 -0.25 0 0 1 I I 0 1 0.25 forward I I I I #
straight-curve $-1 -2 2.8125 -0.03125 0 -1 0 I I #
point $-1 -2 2.8125 -0.03125 #
point $-1 -2 1.9575086804247408 -0.03125 #
face $-1 $255 $256 $3 $-1 $257 reversed single #
loop $-1 $-1 $258 $170 #
cone-surface $-1 1.5155444566227478 2.8125 -0.031312501528132329 0 0 1 -0.11658034281713592 0.22115384615384623 0 1 I I 0 1 0.25 forward I I I I #
coedge $-1 $247 $246 $174 $218 reversed $171 $-1 #
coedge $-1 $259 $174 $258 $260 forward $66 $-1 #
edge $-1 $219 2.6645352591003729e-015 $261 0.97025549638193809 $216 $262 forward 7 unknown #
vertex $-1 $250 $263 #
ellipse-curve $-1 -1.5155444566227718 2.8125000000000071 -0.03125 0 0 -1 -1.5543122344752192e-015 0.24999999999999289 0 1 I I #
ellipse-curve $-1 -1.7500000000000002 2.8125000000000004 -0.03125 0 0 -1 -0.24999999999999978 -4.4408920985006262e-016 0 1 I I #
point $-1 -1.75 3.0625 -0.03125 #
point $-1 -1.5155444566227745 3.0625 -0.03125 #
coedge $-1 $264 $181 $265 $266 forward $17 $-1 #
coedge $-1 $267 $268 $181 $226 forward $269 $-1 #
edge $-1 $270 0 $230 1.5 $181 $271 forward 7 unknown #
coedge $-1 $272 $182 $185 $233 forward $229 $-1 #
coedge $-1 $182 $272 $273 $274 reversed $229 $-1 #
loop $-1 $-1 $272 $275 #
vertex $-1 $226 $276 #
straight-curve $-1 -0.75 -2.9375 0.03125 0 1 0 I I #
coedge $-1 $185 $184 $277 $278 reversed $186 $-1 #
edge $-1 $187 0 $279 0.0625 $227 $280 forward 7 unknown #
face $-1 $191 $186 $3 $-1 $281 reversed single #
point $-1 -0.75 0.95249131957526023 0.03125 #
coedge $-1 $193 $277 $189 $237 reversed $66 $-1 #
edge $-1 $195 0 $238 1.1500260412742207 $189 $282 forward 7 unknown #
vertex $-1 $190 $283 #
straight-curve $-1 -0.87587179682474214 1.1694986677837527 0.03125 0 0 -1 I I #
plane-surface $-1 -1.375 1.4550000000000005 0 -0.49651281270103131 -0.86802939283396996 0 0.86802939283396996 -0.49651281270103131 0 forward_v I I I I #
ellipse-curve $-1 -1.7500000000000004 1.9575086804247406 -0.03125 0 0 -1 -0.1241282031752573 -0.21700734820849221 0 1 I I #
point $-1 -1.8741282031752577 1.7405013322162484 -0.03125 #
coedge $-1 $198 $284 $285 $286 reversed $17 $-1 #
coedge $-1 $287 $288 $198 $245 reversed $214 $-1 #
edge $-1 $289 0 $248 0.48512774819097237 $198 $290 forward 7 unknown #
coedge $-1 $216 $199 $288 $291 reversed $171 $-1 #
coedge $-1 $199 $216 $201 $250 forward $171 $-1 #
vertex $-1 $200 $292 #
ellipse-curve $-1 -1.4432899320127035e-014 5.6874999999999929 0.03125 0 0 1 -1.398964113805621 -2.6538461538461475 0 1 I I #
edge $-1 $219 6.2501528132329065e-005 $203 0.062562501528132336 $247 $293 forward 7 unknown #
point $-1 -1.3989641138056377 3.0336538461538463 0.031250000000000007 #
straight-curve $-1 -1.5155444566227734 3.0625 -0.03125 0 0 1 I I #
loop $-1 $-1 $294 $208 #
cone-surface $-1 2 -2.9375 -0.09375 -1 0 0 0 -0.0625 0 1 I I 0 1 0.0625 forward I I I I #
face $-1 $295 $296 $3 $-1 $297 forward single #
loop $-1 $-1 $298 $213 #
plane-surface $-1 0 3.0625 0 0 -1 0 1 0 0 forward_v I I I I #
coedge $-1 $288 $287 $217 $260 reversed $214 $-1 #
coedge $-1 $299 $217 $298 $300 forward $66 $-1 #
edge $-1 $261 0 $301 0.48512774819098087 $217 $302 forward 7 unknown #
vertex $-1 $291 $303 #
ellipse-curve $-1 -1.354472090042691e-014 5.6875000000000053 -0.03125 0 0 1 -1.3989641138056315 -2.653846153846156 0 1 I I #
point $-1 -1.3989641138056377 3.0336538461538463 -0.03125 #
coedge $-1 $304 $224 $305 $306 forward $17 $-1 #
coedge $-1 $307 $308 $224 $266 reversed $309 $-1 #
edge $-1 $270 0 $310 3.8899913195752602 $224 $311 forward 7 unknown #
coedge $-1 $312 $225 $313 $314 reversed $269 $-1 #
coedge $-1 $225 $312 $315 $316 forward $269 $-1 #
loop $-1 $-1 $225 $317 #
vertex $-1 $266 $318 #
straight-curve $-1 0.75 -2.9375 0.03125 -1 0 0 I I #
coedge $-1 $228 $227 $319 $320 reversed $229 $-1 #
coedge $-1 $321 $313 $228 $274 forward $322 $-1 #
edge $-1 $230 -3.4694469519536142e-018 $323 0.062499999999999986 $228 $324 forward 7 unknown #
face $-1 $234 $229 $3 $-1 $325 reversed single #
point $-1 -0.75 -2.9375 0.03125 #
coedge $-1 $236 $319 $232 $278 forward $66 $-1 #
edge $-1 $279 0 $238 1.051219549353638 $277 $326 forward 7 unknown #
vertex $-1 $233 $327 #
straight-curve $-1 -0.75 0.95249131957526023 0.03125 0 0 -1 I I #
cone-surface $-1 -1 0.95249131957526023 0.031312501528132329 0 0 -1 0.25 0 0 1 I I 0 1 0.25 forward I I I I #
straight-curve $-1 -1.8741282031752577 1.7405013322162484 -0.03125 0.86802939283396985 -0.49651281270103143 0 I I #
point $-1 -0.87587179682474214 1.1694986677837527 -0.031250000000000007 #
coedge $-1 $243 $328 $329 $330 forward $17 $-1 #
coedge $-1 $331 $332 $243 $286 forward $256 $-1 #
edge $-1 $289 -2.4424906541753444e-015 $333 0.23445554337724994 $243 $334 forward 7 unknown #
coedge $-1 $258 $244 $332 $335 reversed $214 $-1 #
coedge $-1 $244 $258 $246 $291 forward $214 $-1 #
vertex $-1 $245 $336 #
ellipse-curve $-1 1.5155444566227469 2.812500000000004 0.03125 2.2186712959341666e-031 8.3266726846888072e-017 1 6.6613381477509392e-016 0.249999999999996 -2.0816681711721685e-017 1 I I #
edge $-1 $261 6.2501528132329065e-005 $248 0.062562501528132308 $246 $337 forward 7 unknown #
point $-1 1.398964113805613 3.0336538461538467 0.031249999999999979 #
straight-curve $-1 -1.3989641138056377 3.0336538461538463 -0.031312501528132329 0 0 1 I I #
coedge $-1 $338 $339 $340 $341 forward $253 $-1 #
face $-1 $342 $343 $3 $-1 $344 reversed single #
loop $-1 $-1 $345 $255 #
cone-surface $-1 1.75 2.8125 -0.031312501528132329 0 0 1 0 0.25 0 1 I I 0 1 0.25 forward I I I I #
coedge $-1 $332 $331 $259 $300 reversed $256 $-1 #
coedge $-1 $346 $259 $345 $347 forward $66 $-1 #
edge $-1 $301 -1.1102230246251565e-015 $348 0.23445554337725127 $298 $349 forward 7 unknown #
vertex $-1 $335 $350 #
ellipse-curve $-1 1.5155444566227461 2.8125000000000058 -0.03125 0 0 -1 -0.11658034281713414 0.22115384615384048 0 1 I I #
point $-1 1.3989641138056119 3.0336538461538463 -0.03125 #
coedge $-1 $351 $264 $352 $353 reversed $17 $-1 #
coedge $-1 $354 $355 $264 $306 reversed $356 $-1 #
edge $-1 $310 0 $357 1.0512195493536376 $264 $358 forward 7 unknown #
coedge $-1 $359 $265 $360 $361 forward $309 $-1 #
coedge $-1 $265 $359 $354 $362 reversed $309 $-1 #
loop $-1 $-1 $265 $363 #
vertex $-1 $306 $364 #
straight-curve $-1 0.75 -2.9375 0.03125 0 1 0 I I #
coedge $-1 $268 $267 $365 $366 reversed $269 $-1 #
coedge $-1 $273 $367 $267 $314 forward $322 $-1 #
edge $-1 $368 0 $230 1.5707963267948948 $267 $369 forward 7 unknown #
coedge $-1 $370 $360 $268 $316 reversed $371 $-1 #
edge $-1 $372 0 $270 1.5707963267949021 $268 $373 forward 7 unknown #
face $-1 $374 $269 $3 $-1 $375 forward single #
point $-1 0.75 -2.9375 0.03125 #
coedge $-1 $277 $376 $272 $320 forward $66 $-1 #
edge $-1 $323 0 $279 3.8899913195752602 $272 $377 forward 7 unknown #
coedge $-1 $367 $273 $338 $378 reversed $322 $-1 #
loop $-1 $-1 $273 $374 #
vertex $-1 $274 $379 #
straight-curve $-1 -0.75 -2.9375 0.031249999999999997 0 0 -1 I I #
plane-surface $-1 -0.75 -0.91999999999999993 0 1 0 0 0 1 0 forward_v I I I I #
ellipse-curve $-1 -0.99999999999999978 0.95249131957526023 -0.03125 2.7755575615628938e-017 0 1 0.24999999999999978 0 -6.9388939039072284e-018 1 I I #
point $-1 -0.75 0.95249131957526023 -0.031250000000000007 #
coedge $-1 $284 $351 $380 $381 reversed $17 $-1 #
coedge $-1 $382 $383 $284 $330 reversed $296 $-1 #
edge $-1 $384 0 $333 1.5707963267948983 $284 $385 forward 7 unknown #
coedge $-1 $298 $285 $383 $386 reversed $256 $-1 #
coedge $-1 $285 $298 $287 $335 forward $256 $-1 #
vertex $-1 $286 $387 #
straight-curve $-1 1.5155444566227501 3.0625 0.03125 1 0 0 I I #
edge $-1 $301 0 $289 0.062499999999999979 $332 $388 forward 7 unknown #
point $-1 1.5155444566227476 3.0625 0.031249999999999979 #
straight-curve $-1 1.3989641138056119 3.0336538461538463 -0.031312501528132329 1.77458221379771e-014 7.0983288551908402e-015 1 I I #
coedge $-1 $389 $294 $321 $378 forward $253 $-1 #
coedge $-1 $294 $389 $390 $391 reversed $253 $-1 #
coedge $-1 $392 $393 $294 $341 reversed $394 $-1 #
edge $-1 $395 0 $396 1.5 $340 $397 forward 7 unknown #
face $-1 $398 $399 $3 $-1 $400 forward single #
loop $-1 $-1 $380 $295 #
plane-surface $-1 2 0 0 -1 0 0 0 -1 0 forward_v I I I I #
coedge $-1 $383 $382 $299 $347 reversed $296 $-1 #
coedge $-1 $401 $299 $402 $403 forward $66 $-1 #
edge $-1 $348 0 $404 1.570796326794893 $299 $405 forward 7 unknown #
vertex $-1 $386 $406 #
straight-curve $-1 1.5155444566227487 3.0625 -0.03125 1 0 0 I I #
point $-1 1.5155444566227476 3.0625 -0.03125 #
coedge $-1 $328 $304 $407 $408 forward $17 $-1 #
coedge $-1 $409 $410 $304 $353 forward $411 $-1 #
edge $-1 $412 -1.5974394269164684e-015 $357 1.1500260412742185 $304 $413 forward 7 unknown #
coedge $-1 $414 $305 $308 $362 forward $356 $-1 #
coedge $-1 $305 $414 $409 $415 reversed $356 $-1 #
loop $-1 $-1 $414 $416 #
vertex $-1 $353 $417 #
ellipse-curve $-1 1 0.95249131957526023 0.03125 0 0 -1 -0.25 0 0 1 I I #
coedge $-1 $308 $307 $418 $419 forward $309 $-1 #
coedge $-1 $315 $390 $307 $361 reversed $371 $-1 #
edge $-1 $270 0 $420 0.062499999999999993 $307 $421 forward 7 unknown #
edge $-1 $310 0 $422 0.0625 $308 $423 forward 7 unknown #
face $-1 $424 $309 $3 $-1 $425 forward single #
point $-1 0.75 0.95249131957526023 0.03125 #
coedge $-1 $426 $427 $312 $366 forward $428 $-1 #
edge $-1 $372 0 $368 1.5 $365 $429 forward 7 unknown #
coedge $-1 $313 $321 $430 $431 reversed $322 $-1 #
vertex $-1 $432 $433 #
ellipse-curve $-1 -0.75 -2.9375 -0.093750000000000222 -1 0 0 0 -0.125 2.3592239273284576e-016 1 I I #
coedge $-1 $390 $315 $434 $435 forward $371 $-1 #
loop $-1 $-1 $370 $424 #
vertex $-1 $366 $436 #
ellipse-curve $-1 0.75 -2.9375000000000004 -0.093749999999999736 -1 0 0 0 -0.12499999999999956 -2.4980018054066022e-016 1 I I #
face $-1 $275 $322 $3 $-1 $437 reversed single #
cone-surface $-1 2 -2.9375 -0.09375 -1 0 0 0 -0.125 0 1 I I 0 1 0.125 forward I I I I #
coedge $-1 $319 $418 $389 $438 forward $66 $-1 #
straight-curve $-1 -0.75 -2.9375 -0.03125 0 1 0 I I #
edge $-1 $396 0 $323 1.5707963267948954 $321 $439 forward 7 unknown #
point $-1 -0.75 -2.9375 -0.031249999999999993 #
coedge $-1 $440 $441 $328 $381 forward $343 $-1 #
edge $-1 $384 0 $442 0.85499131957526009 $328 $443 forward 7 unknown #
coedge $-1 $345 $329 $441 $444 reversed $296 $-1 #
coedge $-1 $329 $345 $331 $386 forward $296 $-1 #
vertex $-1 $330 $445 #
ellipse-curve $-1 1.75 2.8125000000000004 0.03125 -2.7755575615628914e-017 4.9303806576313238e-032 1 0.25 -4.4408920985006262e-016 6.9388939039072284e-018 1 I I #
edge $-1 $348 0 $333 0.0625 $331 $446 forward 7 unknown #
point $-1 1.75 3.0625 0.031250000000000007 #
straight-curve $-1 1.5155444566227476 3.0625 -0.03125 0 0 1 I I #
coedge $-1 $339 $338 $376 $438 reversed $253 $-1 #
coedge $-1 $360 $370 $339 $391 forward $371 $-1 #
edge $-1 $395 0 $420 1.5707963267949074 $339 $447 forward 7 unknown #
coedge $-1 $448 $340 $449 $450 reversed $394 $-1 #
coedge $-1 $340 $451 $452 $453 forward $394 $-1 #
loop $-1 $-1 $393 $454 #
vertex $-1 $450 $455 #
vertex $-1 $453 $456 #
straight-curve $-1 0.75 -3 -0.09375 -1 0 0 I I #
face $-1 $416 $411 $3 $-1 $457 reversed single #
loop $-1 $-1 $458 $342 #
cone-surface $-1 1.75 1.9575086804247399 -0.031312501528132329 0 0 1 0.25 0 0 1 I I 0 1 0.25 forward I I I I #
coedge $-1 $459 $346 $458 $460 forward $66 $-1 #
coedge $-1 $441 $440 $346 $403 reversed $343 $-1 #
edge $-1 $404 0 $461 0.85499131957526009 $346 $462 forward 7 unknown #
vertex $-1 $403 $463 #
ellipse-curve $-1 1.7499999999999996 2.8124999999999996 -0.03125 0 0 -1 4.4408920985006262e-016 0.25000000000000044 0 1 I I #
point $-1 1.75 3.0625 -0.03125 #
coedge $-1 $464 $465 $351 $408 reversed $399 $-1 #
edge $-1 $412 0 $442 1.0512195493536396 $351 $466 forward 7 unknown #
coedge $-1 $467 $352 $355 $415 forward $411 $-1 #
coedge $-1 $352 $467 $464 $468 forward $411 $-1 #
loop $-1 $-1 $352 $398 #
vertex $-1 $408 $469 #
straight-curve $-1 1.8741282031752564 1.7405013322162466 0.03125 -0.86802939283397018 -0.49651281270103076 0 I I #
coedge $-1 $355 $354 $470 $471 reversed $356 $-1 #
edge $-1 $357 0 $472 0.0625 $409 $473 forward 7 unknown #
face $-1 $363 $356 $3 $-1 $474 reversed single #
point $-1 0.87587179682474225 1.1694986677837527 0.03125 #
coedge $-1 $376 $470 $359 $419 reversed $66 $-1 #
edge $-1 $420 0 $422 3.8899913195752602 $418 $475 forward 7 unknown #
vertex $-1 $438 $476 #
straight-curve $-1 0.75 -2.9375 0.03125 0 0 -1 I I #
vertex $-1 $419 $477 #
straight-curve $-1 0.75 0.95249131957526023 0.03125 0 0 -1 I I #
face $-1 $478 $371 $3 $-1 $479 forward single #
plane-surface $-1 0.75 -0.91999999999999993 0 1 0 0 0 1 0 forward_v I I I I #
coedge $-1 $480 $365 $481 $432 reversed $428 $-1 #
coedge $-1 $365 $482 $483 $484 forward $428 $-1 #
loop $-1 $-1 $485 $486 #
straight-curve $-1 0.75 -3.0625 -0.09375 -1 0 0 I I #
coedge $-1 $452 $481 $367 $431 forward $487 $-1 #
edge $-1 $368 0 $396 0.0625 $430 $488 forward 7 unknown #
edge $-1 $489 0 $368 0.375 $426 $490 forward 7 unknown #
point $-1 -0.75 -3.0625 -0.093749999999999986 #
coedge $-1 $483 $449 $370 $435 reversed $491 $-1 #
edge $-1 $372 0 $395 0.0625 $434 $492 forward 7 unknown #
point $-1 0.75 -3.0625 -0.093749999999999986 #
plane-surface $-1 -0.75 -3.0037912607362385 -0.027458739263761165 1 0 0 0 0 1 forward_v I I I I #
edge $-1 $420 0 $323 1.5 $376 $493 forward 7 unknown #
ellipse-curve $-1 -0.75 -2.9375 -0.093750000000000056 -1 0 0 0 -0.0625 6.9388939039072284e-017 1 I I #
coedge $-1 $402 $380 $465 $494 reversed $343 $-1 #
coedge $-1 $380 $402 $382 $444 forward $343 $-1 #
vertex $-1 $381 $495 #
straight-curve $-1 2 2.8125 0.03125 0 -1 0 I I #
edge $-1 $404 0 $384 0.0625 $441 $496 forward 7 unknown #
point $-1 2 2.8125 0.031250000000000007 #
straight-curve $-1 1.75 3.0625 -0.03125 0 0 1 I I #
ellipse-curve $-1 0.75 -2.9375000000000004 -0.09374999999999975 -1 0 0 0 -0.062499999999999556 -2.3592239273284576e-016 1 I I #
coedge $-1 $497 $392 $498 $499 forward $394 $-1 #
coedge $-1 $434 $500 $392 $450 forward $491 $-1 #
edge $-1 $501 0 $395 0.375 $392 $502 forward 7 unknown #
coedge $-1 $393 $497 $503 $504 forward $394 $-1 #
coedge $-1 $505 $430 $393 $453 reversed $487 $-1 #
edge $-1 $506 0 $396 0.375 $452 $507 forward 7 unknown #
face $-1 $508 $394 $3 $-1 $509 reversed single #
point $-1 0.75 -3 -0.093749999999999986 #
point $-1 -0.75 -3 -0.093749999999999986 #
plane-surface $-1 1.375 1.4550000000000001 0 -0.49651281270103093 0.86802939283397029 0 -0.86802939283397018 -0.49651281270103087 0 forward_v I I I I #
coedge $-1 $465 $464 $401 $460 reversed $399 $-1 #
coedge $-1 $470 $401 $467 $510 forward $66 $-1 #
edge $-1 $461 0 $511 1.0512195493536411 $401 $512 forward 7 unknown #
vertex $-1 $460 $513 #
straight-curve $-1 2 2.8125 -0.03125 0 -1 0 I I #
point $-1 2 2.8125 -0.03125 #
coedge $-1 $458 $407 $410 $468 reversed $399 $-1 #
coedge $-1 $407 $458 $440 $494 forward $399 $-1 #
ellipse-curve $-1 1.7500000000000004 1.9575086804247397 0.03125 -1.3780998917052069e-017 2.4092655449391776e-017 1 0.1241282031752573 -0.21700734820849221 6.9388939039072284e-018 1 I I #
coedge $-1 $410 $409 $459 $510 reversed $411 $-1 #
edge $-1 $511 0 $412 0.0625 $410 $514 forward 7 unknown #
point $-1 1.8741282031752577 1.7405013322162475 0.031250000000000007 #
coedge $-1 $418 $459 $414 $471 forward $66 $-1 #
edge $-1 $472 0 $422 1.0512195493536367 $470 $515 forward 7 unknown #
vertex $-1 $471 $516 #
straight-curve $-1 0.87587179682474225 1.1694986677837527 0.03125 0 0 -1 I I #
cone-surface $-1 1 0.95249131957526012 0.031312501528132329 0 0 -1 -0.12412820317525775 0.21700734820849255 0 1 I I 0 1 0.25 forward I I I I #
straight-curve $-1 0.75 -2.9375 -0.03125 0 1 0 I I #
point $-1 0.75 -2.9375 -0.031249999999999993 #
point $-1 0.75 0.95249131957526023 -0.031250000000000007 #
face $-1 $454 $491 $3 $-1 $517 forward single #
plane-surface $-1 0.75 -3.0037912607362385 -0.027458739263761165 1 0 0 0 0 1 forward_v I I I I #
coedge $-1 $485 $426 $518 $519 forward $428 $-1 #
coedge $-1 $430 $505 $426 $432 forward $487 $-1 #
coedge $-1 $427 $485 $520 $521 forward $428 $-1 #
coedge $-1 $500 $434 $427 $484 reversed $491 $-1 #
edge $-1 $522 0 $372 0.375 $427 $523 forward 7 unknown #
coedge $-1 $482 $480 $524 $525 forward $428 $-1 #
face $-1 $526 $428 $3 $-1 $527 forward single #
loop $-1 $-1 $481 $508 #
straight-curve $-1 -0.75 -3.0625 -0.09375 0 1 0 I I #
vertex $-1 $519 $528 #
straight-curve $-1 -0.75 -3.0625 -0.46875 0 0 1 I I #
loop $-1 $-1 $449 $478 #
straight-curve $-1 0.75 -3.0625 -0.09375 0 1 0 I I #
straight-curve $-1 0.75 -2.9375 -0.03125 -1 0 0 I I #
edge $-1 $461 0 $442 0.0625 $440 $529 forward 7 unknown #
point $-1 2 1.9575086804247399 0.03125 #
straight-curve $-1 2 2.8125 -0.03125 0 0 1 I I #
coedge $-1 $451 $448 $530 $531 reversed $394 $-1 #
coedge $-1 $532 $533 $448 $499 reversed $534 $-1 #
edge $-1 $501 0 $535 1.5707963267948961 $448 $536 forward 7 unknown #
coedge $-1 $449 $483 $532 $537 reversed $491 $-1 #
vertex $-1 $499 $538 #
straight-curve $-1 0.75 -3 -0.46875 0 0 1 I I #
coedge $-1 $539 $540 $451 $504 reversed $541 $-1 #
edge $-1 $542 0 $506 1.5707963267948957 $451 $543 forward 7 unknown #
coedge $-1 $481 $452 $540 $544 forward $487 $-1 #
vertex $-1 $544 $545 #
straight-curve $-1 -0.75 -3 -0.46875 0 0 1 I I #
face $-1 $486 $487 $3 $-1 $546 reversed single #
plane-surface $-1 -1.0495999999999999 -3 0.03125 0 -1 0 1 0 0 forward_v I I I I #
edge $-1 $511 0 $472 1.15002604127422 $459 $547 forward 7 unknown #
vertex $-1 $510 $548 #
ellipse-curve $-1 1.7500000000000009 1.9575086804247397 -0.03125 0 0 -1 0.24999999999999911 2.2204460492503131e-016 0 1 I I #
point $-1 2 1.9575086804247399 -0.03125 #
straight-curve $-1 1.8741282031752577 1.7405013322162475 -0.03125 0 0 1 I I #
ellipse-curve $-1 1 0.95249131957525979 -0.03125 -1.3780998917052031e-017 2.4092655449391699e-017 1 -0.12412820317525775 0.21700734820849288 -6.9388939039072284e-018 1 I I #
point $-1 0.87587179682474225 1.1694986677837527 -0.031250000000000007 #
plane-surface $-1 0.75 -3.03125 -0.40625 1 0 0 0 0 1 forward_v I I I I #
coedge $-1 $540 $539 $480 $519 reversed $541 $-1 #
edge $-1 $489 0 $549 1.5707963267948957 $480 $550 forward 7 unknown #
coedge $-1 $533 $532 $482 $521 reversed $534 $-1 #
edge $-1 $551 0 $522 1.5707963267948961 $482 $552 forward 7 unknown #
vertex $-1 $484 $553 #
straight-curve $-1 0.75 -3.0625 -0.46875 0 0 1 I I #
coedge $-1 $554 $555 $485 $525 reversed $556 $-1 #
edge $-1 $549 0 $551 1 $485 $557 forward 7 unknown #
face $-1 $558 $556 $3 $-1 $559 forward single #
plane-surface $-1 -1.0495999999999999 -3.0625 0.03125 0 -1 0 1 0 0 forward_v I I I I #
point $-1 -0.75 -3.0625 -0.46875 #
straight-curve $-1 2 1.9575086804247399 -0.03125 0 0 1 I I #
coedge $-1 $555 $554 $497 $531 forward $556 $-1 #
edge $-1 $542 0 $535 1 $497 $560 forward 7 unknown #
coedge $-1 $520 $498 $500 $537 forward $534 $-1 #
coedge $-1 $498 $520 $555 $561 reversed $534 $-1 #
loop $-1 $-1 $498 $558 #
vertex $-1 $531 $562 #
ellipse-curve $-1 0.5 -3 -0.46874999999999989 0 1 0 0.25 0 -1.1102230246251565e-016 1 I I #
edge $-1 $501 0 $522 0.0625 $500 $563 forward 7 unknown #
point $-1 0.75 -3 -0.46875 #
coedge $-1 $518 $503 $554 $564 forward $541 $-1 #
coedge $-1 $503 $518 $505 $544 reversed $541 $-1 #
loop $-1 $-1 $503 $565 #
vertex $-1 $504 $566 #
ellipse-curve $-1 -0.49999999999999989 -3 -0.46874999999999989 0 1 0 -1.1102230246251565e-016 0 -0.25000000000000011 1 I I #
edge $-1 $506 0 $489 0.0625 $505 $567 forward 7 unknown #
point $-1 -0.75 -3 -0.46875 #
plane-surface $-1 -0.75 -3.03125 -0.40625 1 0 0 0 0 1 forward_v I I I I #
straight-curve $-1 1.8741282031752577 1.7405013322162475 -0.03125 -0.86802939283397029 -0.49651281270103098 0 I I #
point $-1 1.8741282031752577 1.7405013322162475 -0.03125 #
vertex $-1 $519 $568 #
ellipse-curve $-1 -0.49999999999999989 -3.0625 -0.46874999999999989 0 -1 0 -0.25000000000000011 0 -1.1102230246251565e-016 1 I I #
vertex $-1 $521 $569 #
ellipse-curve $-1 0.5 -3.0625 -0.46874999999999989 0 -1 0 0 0 -0.25000000000000011 1 I I #
point $-1 0.75 -3.0625 -0.46875 #
coedge $-1 $530 $524 $539 $564 reversed $556 $-1 #
coedge $-1 $524 $530 $533 $561 forward $556 $-1 #
loop $-1 $-1 $530 $526 #
straight-curve $-1 -0.5 -3.0625 -0.71875 1 0 0 I I #
face $-1 $565 $534 $3 $-1 $570 forward single #
plane-surface $-1 0 -3.03125 -0.71875 0 0 -1 1 0 0 forward_v I I I I #
straight-curve $-1 -0.5 -3 -0.71875 1 0 0 I I #
edge $-1 $535 0 $551 0.0625 $555 $571 forward 7 unknown #
point $-1 0.5 -3 -0.71875 #
straight-curve $-1 0.75 -3 -0.46875 0 -1 0 I I #
edge $-1 $542 0 $549 0.0625 $554 $572 forward 7 unknown #
face $-1 $317 $541 $3 $-1 $573 forward single #
point $-1 -0.5 -3 -0.71875 #
straight-curve $-1 -0.75 -3 -0.46875 0 -1 0 I I #
point $-1 -0.5 -3.0625 -0.71875 #
point $-1 0.5 -3.0625 -0.71875 #
cone-surface $-1 0.5 -2.9999374984718679 -0.46875 0 -1 0 0.25 0 0 1 I I 0 1 0.25 forward I I I I #
straight-curve $-1 0.5 -3 -0.71875 0 -1 0 I I #
straight-curve $-1 -0.5 -3 -0.71875 0 -1 0 I I #
cone-surface $-1 -0.5 -2.9999374984718679 -0.46875 0 -1 0 0 0 -0.25 1 I I 0 1 0.25 forward I I I I #
End-of-ACIS-data 