600 0 1 0           
90 GICL ACIS Healer - Source: /gicl/data5/repository/PTC/V18/process18/fx55-100.prt.sat - 6 0 18 ACIS 6.0.3 Solaris 24 Sat Apr 13 21:17:58 2002 
1 9.999999999999999547e-07 1.000000000000000036e-10 
body $-1 $1 $-1 $-1 #
lump $-1 $-1 $2 $0 #
shell $-1 $-1 $-1 $3 $-1 $1 #
face $-1 $4 $5 $2 $-1 $6 forward single #
face $-1 $7 $8 $2 $-1 $9 reversed single #
loop $-1 $10 $11 $3 #
plane-surface $-1 -50.79999999999999716 77.78749999999999432 0.7937499999999999556 0 0 1 0 -25.39999999999999858 0 forward_v I I I I #
face $-1 $12 $13 $2 $-1 $14 reversed single #
loop $-1 $-1 $15 $4 #
cone-surface $-1 -35.92067999999999728 61.91249999999999432 0.7937499999999999556 0 0 -1 -7.9375 0 0 1 I I 0 1 7.9375 forward I I I I #
loop $-1 $16 $17 $3 #
coedge $-1 $18 $18 $19 $20 forward $5 $-1 #
face $-1 $21 $22 $2 $-1 $23 reversed single #
loop $-1 $-1 $24 $7 #
cone-surface $-1 -35.92067999999999728 61.91249999999999432 0.7937499999999999556 0 0 -1 -7.9375 0 0 1 I I 0 1 7.9375 forward I I I I #
coedge $-1 $25 $19 $26 $27 forward $8 $-1 #
loop $-1 $-1 $28 $3 #
coedge $-1 $29 $29 $30 $31 forward $10 $-1 #
coedge $-1 $11 $11 $32 $33 forward $5 $-1 #
coedge $-1 $15 $34 $11 $20 reversed $8 $-1 #
edge $-1 $35 0 $36 3.141592653589793116 $11 $37 forward 7 unknown #
face $-1 $38 $39 $2 $-1 $40 reversed single #
loop $-1 $41 $42 $12 #
plane-surface $-1 -50.79999999999999716 77.78749999999999432 -0.7937499999999999556 0 0 1 0 -25.39999999999999858 0 forward_v I I I I #
coedge $-1 $43 $32 $34 $44 forward $13 $-1 #
coedge $-1 $34 $15 $42 $45 forward $8 $-1 #
coedge $-1 $32 $43 $15 $27 reversed $13 $-1 #
edge $-1 $35 0 $46 0.0625 $26 $47 forward 7 unknown #
coedge $-1 $48 $49 $50 $51 forward $16 $-1 #
coedge $-1 $17 $17 $52 $53 forward $10 $-1 #
coedge $-1 $54 $55 $17 $31 reversed $39 $-1 #
edge $-1 $56 0 $57 3.141592653589793116 $17 $58 forward 7 unknown #
coedge $-1 $24 $26 $18 $33 reversed $13 $-1 #
edge $-1 $36 0 $35 3.141592653589793116 $18 $59 forward 7 unknown #
coedge $-1 $19 $25 $24 $44 reversed $8 $-1 #
vertex $-1 $33 $60 #
vertex $-1 $33 $61 #
ellipse-curve $-1 -35.92067999999999728 61.91249999999999432 0.7937499999999999556 0 0 -1 7.9375 0 0 1 I I #
face $-1 $62 $63 $2 $-1 $64 reversed single #
loop $-1 $-1 $54 $21 #
cone-surface $-1 36.17467999999999506 61.91249999999999432 0.7937499999999999556 0 0 -1 -7.9375 0 0 1 I I 0 1 7.9375 forward I I I I #
loop $-1 $65 $66 $12 #
coedge $-1 $67 $67 $25 $45 reversed $22 $-1 #
coedge $-1 $26 $24 $67 $68 forward $13 $-1 #
edge $-1 $36 0 $69 0.0625 $24 $70 forward 7 unknown #
edge $-1 $46 0 $69 3.141592653589793116 $25 $71 forward 7 unknown #
vertex $-1 $27 $72 #
straight-curve $-1 -27.98317999999999728 61.91249999999999432 0.7937499999999999556 0 0 -25.39999999999999858 I I #
coedge $-1 $73 $28 $74 $75 forward $16 $-1 #
coedge $-1 $28 $76 $77 $78 forward $16 $-1 #
coedge $-1 $79 $80 $28 $51 reversed $81 $-1 #
edge $-1 $82 0 $83 0.854991319575259312 $28 $84 forward 7 unknown #
coedge $-1 $85 $86 $29 $53 reversed $63 $-1 #
edge $-1 $57 0 $56 3.141592653589793116 $29 $87 forward 7 unknown #
coedge $-1 $88 $30 $86 $89 forward $39 $-1 #
coedge $-1 $30 $88 $85 $90 reversed $39 $-1 #
vertex $-1 $53 $91 #
vertex $-1 $53 $92 #
ellipse-curve $-1 36.17467999999999506 61.91249999999999432 0.7937499999999999556 0 0 -1 7.9375 0 0 1 I I #
ellipse-curve $-1 -35.92067999999999728 61.91249999999999432 0.7937499999999999556 0 0 -1 -7.9375 0 0 1 I I #
point $-1 -27.98317999999999728 61.91249999999999432 0.7937499999999999556 #
point $-1 -43.85817999999999728 61.91249999999999432 0.7937499999999999556 #
face $-1 $93 $94 $2 $-1 $95 reversed single #
loop $-1 $-1 $85 $38 #
cone-surface $-1 36.17467999999999506 61.91249999999999432 0.7937499999999999556 0 0 -1 -7.9375 0 0 1 I I 0 1 7.9375 forward I I I I #
loop $-1 $-1 $96 $12 #
coedge $-1 $97 $97 $88 $98 reversed $41 $-1 #
coedge $-1 $42 $42 $43 $68 reversed $22 $-1 #
edge $-1 $69 0 $46 3.141592653589793116 $43 $99 forward 7 unknown #
vertex $-1 $68 $100 #
straight-curve $-1 -43.85817999999999728 61.91249999999999432 0.7937499999999999556 0 0 -25.39999999999999858 I I #
ellipse-curve $-1 -35.92067999999999728 61.91249999999999432 -0.7937499999999999556 0 0 -1 7.9375 0 0 1 I I #
point $-1 -27.98317999999999728 61.91249999999999432 -0.7937499999999999556 #
coedge $-1 $101 $48 $102 $103 forward $16 $-1 #
coedge $-1 $104 $105 $48 $75 reversed $106 $-1 #
edge $-1 $83 0 $107 1.051219549353637372 $48 $108 forward 7 unknown #
coedge $-1 $49 $109 $110 $111 reversed $16 $-1 #
coedge $-1 $112 $113 $49 $78 reversed $114 $-1 #
edge $-1 $115 0 $82 1.570796326794896558 $49 $116 forward 7 unknown #
coedge $-1 $117 $50 $113 $118 reversed $81 $-1 #
coedge $-1 $50 $117 $104 $119 forward $81 $-1 #
loop $-1 $-1 $117 $120 #
vertex $-1 $78 $121 #
vertex $-1 $75 $122 #
straight-curve $-1 -50.79999999999999716 71.4375 0.7937499999999999556 0 -25.39999999999999858 0 I I #
coedge $-1 $123 $52 $55 $90 forward $63 $-1 #
coedge $-1 $52 $123 $54 $89 reversed $63 $-1 #
ellipse-curve $-1 36.17467999999999506 61.91249999999999432 0.7937499999999999556 0 0 -1 -7.9375 0 0 1 I I #
coedge $-1 $55 $54 $66 $98 forward $39 $-1 #
edge $-1 $56 0 $124 0.0625 $86 $125 forward 7 unknown #
edge $-1 $57 0 $126 0.0625 $85 $127 forward 7 unknown #
point $-1 44.11217999999999506 61.91249999999999432 0.7937499999999999556 #
point $-1 28.23717999999999506 61.91249999999999432 0.7937499999999999556 #
face $-1 $128 $129 $2 $-1 $130 forward single #
loop $-1 $-1 $110 $62 #
plane-surface $-1 0 77.78749999999999432 0 0 -1 0 25.39999999999999858 0 0 forward_v I I I I #
coedge $-1 $131 $132 $133 $134 forward $65 $-1 #
coedge $-1 $66 $66 $123 $135 reversed $41 $-1 #
edge $-1 $124 0 $126 3.141592653589793116 $88 $136 forward 7 unknown #
ellipse-curve $-1 -35.92067999999999017 61.91249999999999432 -0.7937499999999999556 0 0 -1 -7.937500000000005329 0 0 1 I I #
point $-1 -43.85817999999999728 61.91249999999999432 -0.7937499999999999556 #
coedge $-1 $137 $73 $138 $139 forward $16 $-1 #
coedge $-1 $140 $141 $73 $103 reversed $142 $-1 #
edge $-1 $107 -5.206138283690920965e-16 $143 1.150026041274219812 $73 $144 forward 7 unknown #
coedge $-1 $145 $74 $80 $119 reversed $106 $-1 #
coedge $-1 $74 $145 $140 $146 forward $106 $-1 #
loop $-1 $-1 $145 $147 #
vertex $-1 $103 $148 #
ellipse-curve $-1 -44.44999999999999574 49.7207204827884155 0.7937499999999999556 2.775557561562891351e-17 0 1 -6.349999999999999645 0 1.762479051592435909e-16 1 I I #
coedge $-1 $76 $149 $150 $151 forward $16 $-1 #
coedge $-1 $152 $153 $76 $111 forward $94 $-1 #
edge $-1 $115 -1.118964938204882167e-15 $154 0.2344555433772235464 $76 $155 forward 7 unknown #
coedge $-1 $156 $77 $153 $157 reversed $114 $-1 #
coedge $-1 $77 $156 $79 $118 forward $114 $-1 #
loop $-1 $-1 $156 $158 #
vertex $-1 $78 $159 #
ellipse-curve $-1 -44.44999999999999574 71.4375 0.7937499999999999556 0 -2.775557561562891351e-17 1 0 6.349999999999999645 1.762479051592435909e-16 1 I I #
coedge $-1 $80 $79 $160 $161 forward $81 $-1 #
edge $-1 $162 0 $82 0.06250000000000001388 $79 $163 forward 7 unknown #
edge $-1 $164 0 $83 0.06250000000000001388 $80 $165 forward 7 unknown #
face $-1 $158 $81 $2 $-1 $166 forward single #
point $-1 -50.79999999999999716 71.4375 0.7937500000000001776 #
point $-1 -50.79999999999999716 49.7207204827884155 0.7937500000000001776 #
coedge $-1 $86 $85 $97 $135 forward $63 $-1 #
vertex $-1 $89 $167 #
straight-curve $-1 44.11217999999999506 61.91249999999999432 0.7937499999999999556 0 0 -25.39999999999999858 I I #
vertex $-1 $135 $168 #
straight-curve $-1 28.23717999999999506 61.91249999999999432 0.7937499999999999556 0 0 -25.39999999999999858 I I #
face $-1 $169 $170 $2 $-1 $171 reversed single #
loop $-1 $-1 $172 $93 #
cone-surface $-1 -38.49482919821844007 71.4375 -0.7953375388145611513 0 0 1 0 6.349999999999999645 0 1 I I 0 1 6.349999999999999645 forward I I I I #
coedge $-1 $173 $96 $172 $174 forward $65 $-1 #
coedge $-1 $96 $160 $156 $175 forward $65 $-1 #
coedge $-1 $153 $152 $96 $134 reversed $94 $-1 #
edge $-1 $176 0 $177 0.2344555433772254893 $133 $178 forward 7 unknown #
edge $-1 $126 0 $124 3.141592653589793116 $123 $179 forward 7 unknown #
ellipse-curve $-1 36.17467999999999506 61.91249999999999432 -0.7937499999999999556 0 0 -1 7.9375 0 0 1 I I #
coedge $-1 $180 $101 $181 $182 reversed $16 $-1 #
coedge $-1 $183 $184 $101 $139 reversed $185 $-1 #
edge $-1 $143 -1.762149508984075825e-16 $186 1.051219549353640259 $101 $187 forward 7 unknown #
coedge $-1 $188 $102 $105 $146 reversed $142 $-1 #
coedge $-1 $102 $188 $183 $189 reversed $142 $-1 #
loop $-1 $-1 $188 $190 #
vertex $-1 $139 $191 #
straight-curve $-1 -47.60285636065153625 44.20873383829269443 0.7937499999999999556 22.04794657798283453 -12.6114254426061958 0 I I #
coedge $-1 $105 $104 $192 $193 reversed $106 $-1 #
edge $-1 $194 0 $107 0.06250000000000001388 $140 $195 forward 7 unknown #
face $-1 $120 $106 $2 $-1 $196 forward single #
point $-1 -47.60285636065154335 44.20873383829270864 0.7937500000000001776 #
coedge $-1 $109 $197 $198 $199 reversed $16 $-1 #
coedge $-1 $200 $201 $109 $151 reversed $129 $-1 #
edge $-1 $202 7.048598035936787462e-16 $154 0.485127748190995689 $109 $203 forward 7 unknown #
coedge $-1 $133 $110 $201 $204 reversed $94 $-1 #
coedge $-1 $110 $133 $112 $157 forward $94 $-1 #
vertex $-1 $111 $205 #
straight-curve $-1 -44.44999999999996732 77.78749999999999432 0.7937499999999999556 25.39999999999999858 0 0 I I #
coedge $-1 $113 $112 $132 $175 reversed $114 $-1 #
edge $-1 $176 0 $115 0.06250000000000001388 $153 $206 forward 7 unknown #
face $-1 $207 $114 $2 $-1 $208 forward single #
point $-1 -44.44999999999999574 77.78749999999999432 0.7937500000000001776 #
coedge $-1 $132 $192 $117 $161 reversed $65 $-1 #
edge $-1 $162 0 $164 0.854991319575259312 $117 $209 forward 7 unknown #
vertex $-1 $118 $210 #
straight-curve $-1 -50.79999999999999716 71.4375 -0.7937499999999999556 0 0 25.39999999999999858 I I #
vertex $-1 $119 $211 #
straight-curve $-1 -50.79999999999999716 49.7207204827884155 -0.7937499999999999556 0 0 25.39999999999999858 I I #
plane-surface $-1 -50.79999999999999716 0 0 -1 0 0 0 -25.39999999999999858 0 forward_v I I I I #
point $-1 44.11217999999999506 61.91249999999999432 -0.7937499999999999556 #
point $-1 28.23717999999999506 61.91249999999999432 -0.7937499999999999556 #
face $-1 $212 $213 $2 $-1 $214 forward single #
loop $-1 $-1 $215 $128 #
cone-surface $-1 -3.271161119755560827e-13 144.4625000000000057 0 0 0 1 -36.89016637262538012 -66.67500000000013927 0 1 I I 0 1 76.19999999999998863 forward I I I I #
coedge $-1 $201 $200 $131 $174 reversed $129 $-1 #
coedge $-1 $216 $131 $215 $217 forward $65 $-1 #
edge $-1 $177 -3.853435505943165822e-15 $218 0.4851277481909831435 $131 $219 forward 7 unknown #
edge $-1 $162 -4.615730370095143623e-16 $176 1.570796326794899667 $132 $220 forward 7 unknown #
vertex $-1 $157 $221 #
vertex $-1 $134 $222 #
straight-curve $-1 -44.44999999999999574 77.78749999999999432 -0.7937499999999999556 25.39999999999999858 0 0 I I #
ellipse-curve $-1 36.17467999999999506 61.91249999999999432 -0.7937499999999999556 0 0 -1 -7.9375 0 0 1 I I #
coedge $-1 $223 $137 $224 $225 reversed $16 $-1 #
coedge $-1 $226 $227 $137 $182 forward $228 $-1 #
edge $-1 $229 0 $186 3.889991319575260231 $137 $230 forward 7 unknown #
coedge $-1 $231 $138 $141 $189 forward $185 $-1 #
coedge $-1 $138 $231 $226 $232 reversed $185 $-1 #
loop $-1 $-1 $231 $233 #
vertex $-1 $182 $234 #
ellipse-curve $-1 -25.39999999999998792 24.19327951721162151 0.7937499999999999556 0 0 -1 3.152856360651538292 5.511986644495696197 0 1 I I #
coedge $-1 $141 $140 $235 $236 forward $142 $-1 #
edge $-1 $143 0 $237 0.06250000000000001388 $141 $238 forward 7 unknown #
face $-1 $147 $142 $2 $-1 $239 forward single #
point $-1 -22.24714363934845096 29.70526616170731771 0.7937499999999999556 #
coedge $-1 $160 $235 $145 $193 forward $65 $-1 #
edge $-1 $194 -8.810747544920374193e-17 $164 1.051219549353639815 $192 $240 forward 7 unknown #
vertex $-1 $146 $241 #
straight-curve $-1 -47.60285636065154335 44.20873383829270864 -0.7937499999999999556 0 0 25.39999999999999858 I I #
cone-surface $-1 -44.44999999999999574 49.7207204827884155 -0.7953375388145611513 0 0 1 -3.152856360651547618 -5.51198664449570952 0 1 I I 0 1 6.349999999999999645 forward I I I I #
coedge $-1 $149 $242 $243 $244 forward $16 $-1 #
coedge $-1 $245 $246 $149 $199 forward $170 $-1 #
edge $-1 $202 -7.831775595484795687e-16 $247 0.9702554963819389755 $149 $248 forward 7 unknown #
coedge $-1 $172 $150 $246 $249 reversed $129 $-1 #
coedge $-1 $150 $172 $152 $204 forward $129 $-1 #
vertex $-1 $151 $250 #
ellipse-curve $-1 -38.49482919821838323 71.43750000000022737 0.7937499999999999556 -1.294301808142852304e-17 -2.455300919844176835e-17 1 2.961140707555190321 5.617307692307457856 1.762479051592435909e-16 1 I I #
edge $-1 $177 0 $154 0.0625 $152 $251 forward 7 unknown #
point $-1 -38.49482919821848981 77.78749999999999432 0.7937499999999999556 #
straight-curve $-1 -44.44999999999999574 77.78749999999999432 -0.7937499999999999556 0 0 25.39999999999999858 I I #
face $-1 $-1 $252 $2 $-1 $253 reversed single #
cone-surface $-1 -44.44999999999999574 71.4375 -0.7953375388145611513 0 0 1 -6.349999999999999645 0 0 1 I I 0 1 6.349999999999999645 forward I I I I #
straight-curve $-1 -50.79999999999999716 71.4375 -0.7937499999999999556 0 -25.39999999999999858 0 I I #
point $-1 -50.79999999999999716 71.4375 -0.7937499999999999556 #
point $-1 -50.79999999999999716 49.7207204827884155 -0.7937499999999999556 #
face $-1 $254 $255 $2 $-1 $256 reversed single #
loop $-1 $-1 $257 $169 #
cone-surface $-1 38.49482919821779348 71.4375 -0.7953375388145611513 0 0 1 -2.96114070755525205 5.617307692307694111 0 1 I I 0 1 6.349999999999999645 forward I I I I #
coedge $-1 $246 $245 $173 $217 reversed $170 $-1 #
coedge $-1 $258 $173 $257 $259 forward $65 $-1 #
edge $-1 $218 2.584485946509962066e-15 $260 0.9702554963819380873 $215 $261 forward 7 unknown #
vertex $-1 $249 $262 #
ellipse-curve $-1 -38.49482919821840454 71.43750000000017053 -0.7937499999999999556 0 0 -1 -3.947953075567056279e-14 6.349999999999819345 0 1 I I #
ellipse-curve $-1 -44.45000000000000284 71.43750000000001421 -0.7937499999999999556 0 0 -1 -6.349999999999994316 -1.127986593019158982e-14 0 1 I I #
point $-1 -44.44999999999999574 77.78749999999999432 -0.7937499999999999556 #
point $-1 -38.49482919821846849 77.78749999999999432 -0.7937499999999999556 #
coedge $-1 $263 $180 $264 $265 forward $16 $-1 #
coedge $-1 $266 $267 $180 $225 forward $268 $-1 #
edge $-1 $269 0 $229 1.499999999999999778 $180 $270 forward 7 unknown #
coedge $-1 $271 $181 $184 $232 forward $228 $-1 #
coedge $-1 $181 $271 $272 $273 reversed $228 $-1 #
loop $-1 $-1 $271 $274 #
vertex $-1 $225 $275 #
straight-curve $-1 -19.04999999999999716 -74.61249999999999716 0.7937499999999999556 0 25.39999999999999858 0 I I #
coedge $-1 $184 $183 $276 $277 reversed $185 $-1 #
edge $-1 $186 0 $278 0.06250000000000001388 $226 $279 forward 7 unknown #
face $-1 $190 $185 $2 $-1 $280 reversed single #
point $-1 -19.04999999999999716 24.1932795172116073 0.7937499999999999556 #
coedge $-1 $192 $276 $188 $236 reversed $65 $-1 #
edge $-1 $194 0 $237 1.150026041274220479 $188 $281 forward 7 unknown #
vertex $-1 $189 $282 #
straight-curve $-1 -22.24714363934845096 29.70526616170731771 0.7937499999999999556 0 0 -25.39999999999999858 I I #
plane-surface $-1 -34.92499999999999716 36.95700000000000784 0 -0.4965128127010313142 -0.8680293928339699594 0 22.04794657798283453 -12.61142544260619403 0 forward_v I I I I #
ellipse-curve $-1 -44.45000000000000995 49.72072048278840839 -0.7937499999999999556 0 0 -1 -3.152856360651535184 -5.511986644495701526 0 1 I I #
point $-1 -47.60285636065154335 44.20873383829270864 -0.7937499999999999556 #
coedge $-1 $197 $283 $284 $285 reversed $16 $-1 #
coedge $-1 $286 $287 $197 $244 reversed $213 $-1 #
edge $-1 $288 4.266053826906166386e-16 $247 0.4851277481909724854 $197 $289 forward 7 unknown #
coedge $-1 $215 $198 $287 $290 reversed $170 $-1 #
coedge $-1 $198 $215 $200 $249 forward $170 $-1 #
vertex $-1 $199 $291 #
ellipse-curve $-1 -3.665956427312266896e-13 144.4624999999998067 0.7937499999999999556 0 0 1 -35.5336884906627688 -67.4076923076921446 0 1 I I #
edge $-1 $218 6.250152813233054224e-05 $202 0.062562501528132336 $246 $292 forward 7 unknown #
point $-1 -35.53368849066319513 77.05480769230769056 0.7937500000000001776 #
straight-curve $-1 -38.49482919821844007 77.78749999999999432 -0.7937499999999999556 0 0 25.39999999999999858 I I #
loop $-1 $-1 $293 $207 #
cone-surface $-1 50.79999999999999716 -74.61249999999999716 -2.381249999999999645 -1 0 0 0 -1.587499999999999911 0 1 I I 0 1 1.587499999999999911 forward I I I I #
face $-1 $294 $295 $2 $-1 $296 forward single #
loop $-1 $-1 $297 $212 #
plane-surface $-1 0 77.78749999999999432 0 0 -1 0 25.39999999999999858 0 0 forward_v I I I I #
coedge $-1 $287 $286 $216 $259 reversed $213 $-1 #
coedge $-1 $298 $216 $297 $299 forward $65 $-1 #
edge $-1 $260 -2.643224263476223561e-16 $300 0.4851277481909803124 $216 $301 forward 7 unknown #
vertex $-1 $290 $302 #
ellipse-curve $-1 -3.440359108708434785e-13 144.4625000000001194 -0.7937499999999999556 0 0 1 -35.53368849066303881 -67.40769230769235776 0 1 I I #
point $-1 -35.53368849066319513 77.05480769230769056 -0.7937499999999999556 #
coedge $-1 $303 $223 $304 $305 forward $16 $-1 #
coedge $-1 $306 $307 $223 $265 reversed $308 $-1 #
edge $-1 $269 0 $309 3.889991319575260231 $223 $310 forward 7 unknown #
coedge $-1 $311 $224 $312 $313 reversed $268 $-1 #
coedge $-1 $224 $311 $314 $315 forward $268 $-1 #
loop $-1 $-1 $224 $316 #
vertex $-1 $265 $317 #
straight-curve $-1 19.04999999999999716 -74.61249999999999716 0.7937499999999999556 -25.39999999999999858 0 0 I I #
coedge $-1 $227 $226 $318 $319 reversed $228 $-1 #
coedge $-1 $320 $312 $227 $273 forward $321 $-1 #
edge $-1 $229 -4.370956789862820965e-18 $322 0.06249999999999997918 $227 $323 forward 7 unknown #
face $-1 $233 $228 $2 $-1 $324 reversed single #
point $-1 -19.04999999999999716 -74.61249999999999716 0.7937499999999999556 #
coedge $-1 $235 $318 $231 $277 forward $65 $-1 #
edge $-1 $278 0 $237 1.051219549353638705 $276 $325 forward 7 unknown #
vertex $-1 $232 $326 #
straight-curve $-1 -19.04999999999999716 24.1932795172116073 0.7937499999999999556 0 0 -25.39999999999999858 I I #
cone-surface $-1 -25.39999999999999858 24.1932795172116073 0.7953375388145611513 0 0 -1 6.349999999999999645 0 0 1 I I 0 1 6.349999999999999645 forward I I I I #
straight-curve $-1 -47.60285636065154335 44.20873383829270864 -0.7937499999999999556 22.04794657798283453 -12.61142544260619758 0 I I #
point $-1 -22.24714363934845096 29.70526616170731771 -0.7937500000000001776 #
coedge $-1 $242 $327 $328 $329 forward $16 $-1 #
coedge $-1 $330 $331 $242 $285 forward $255 $-1 #
edge $-1 $288 -2.517671110960985171e-15 $332 0.234455543377249831 $242 $333 forward 7 unknown #
coedge $-1 $257 $243 $331 $334 reversed $213 $-1 #
coedge $-1 $243 $257 $245 $290 forward $213 $-1 #
vertex $-1 $244 $335 #
ellipse-curve $-1 38.49482919821777216 71.43750000000009948 0.7937499999999999556 2.218671295934166643e-31 8.326672684688807173e-17 1 1.691979889528738315e-14 6.349999999999898392 -5.287437154777307235e-16 1 I I #
edge $-1 $260 6.250152813233054224e-05 $247 0.06256250152813230825 $245 $336 forward 7 unknown #
point $-1 35.53368849066256985 77.05480769230770477 0.7937499999999994005 #
straight-curve $-1 -35.53368849066319513 77.05480769230769056 -0.7953375388145611513 0 0 25.39999999999999858 I I #
coedge $-1 $337 $338 $339 $340 forward $252 $-1 #
face $-1 $341 $342 $2 $-1 $343 reversed single #
loop $-1 $-1 $344 $254 #
cone-surface $-1 44.44999999999999574 71.4375 -0.7953375388145611513 0 0 1 0 6.349999999999999645 0 1 I I 0 1 6.349999999999999645 forward I I I I #
coedge $-1 $331 $330 $258 $299 reversed $255 $-1 #
coedge $-1 $345 $258 $344 $346 forward $65 $-1 #
edge $-1 $300 -1.118964938204882167e-15 $347 0.2344555433772512187 $297 $348 forward 7 unknown #
vertex $-1 $334 $349 #
ellipse-curve $-1 38.49482919821775084 71.43750000000014211 -0.7937499999999999556 0 0 -1 -2.961140707555207197 5.617307692307547562 0 1 I I #
point $-1 35.53368849066254143 77.05480769230769056 -0.7937499999999999556 #
coedge $-1 $350 $263 $351 $352 reversed $16 $-1 #
coedge $-1 $353 $354 $263 $305 reversed $355 $-1 #
edge $-1 $309 0 $356 1.051219549353637817 $263 $357 forward 7 unknown #
coedge $-1 $358 $264 $359 $360 forward $308 $-1 #
coedge $-1 $264 $358 $353 $361 reversed $308 $-1 #
loop $-1 $-1 $264 $362 #
vertex $-1 $305 $363 #
straight-curve $-1 19.04999999999999716 -74.61249999999999716 0.7937499999999999556 0 25.39999999999999858 0 I I #
coedge $-1 $267 $266 $364 $365 reversed $268 $-1 #
coedge $-1 $272 $366 $266 $313 forward $321 $-1 #
edge $-1 $367 -6.906111727983071156e-17 $229 1.570796326794894782 $266 $368 forward 7 unknown #
coedge $-1 $369 $359 $267 $315 reversed $370 $-1 #
edge $-1 $371 -9.965781480887646876e-17 $269 1.570796326794903219 $267 $372 forward 7 unknown #
face $-1 $373 $268 $2 $-1 $374 forward single #
point $-1 19.04999999999999716 -74.61249999999999716 0.7937499999999999556 #
coedge $-1 $276 $375 $271 $319 forward $65 $-1 #
edge $-1 $322 0 $278 3.889991319575260231 $271 $376 forward 7 unknown #
coedge $-1 $366 $272 $337 $377 reversed $321 $-1 #
loop $-1 $-1 $272 $373 #
vertex $-1 $273 $378 #
straight-curve $-1 -19.04999999999999716 -74.61249999999999716 0.7937499999999998446 0 0 -25.39999999999999858 I I #
plane-surface $-1 -19.04999999999999716 -23.36799999999999855 0 1 0 0 0 25.39999999999999858 0 forward_v I I I I #
ellipse-curve $-1 -25.39999999999999147 24.1932795172116073 -0.7937499999999999556 2.775557561562893816e-17 0 1 6.349999999999994316 0 -1.762479051592435909e-16 1 I I #
point $-1 -19.04999999999999716 24.1932795172116073 -0.7937500000000001776 #
coedge $-1 $283 $350 $379 $380 reversed $16 $-1 #
coedge $-1 $381 $382 $283 $329 reversed $295 $-1 #
edge $-1 $383 -4.615730370095134748e-16 $332 1.570796326794898556 $283 $384 forward 7 unknown #
coedge $-1 $297 $284 $382 $385 reversed $255 $-1 #
coedge $-1 $284 $297 $286 $334 forward $255 $-1 #
vertex $-1 $285 $386 #
straight-curve $-1 38.49482919821785032 77.78749999999999432 0.7937499999999999556 25.39999999999999858 0 0 I I #
edge $-1 $300 0 $288 0.06249999999999997918 $331 $387 forward 7 unknown #
point $-1 38.49482919821778637 77.78749999999999432 0.7937499999999994005 #
straight-curve $-1 35.53368849066254143 77.05480769230769056 -0.7953375388145611513 4.50743882304618299e-13 1.802975529218473398e-13 25.39999999999999858 I I #
coedge $-1 $388 $293 $320 $377 forward $252 $-1 #
coedge $-1 $293 $388 $389 $390 reversed $252 $-1 #
coedge $-1 $391 $392 $293 $340 reversed $393 $-1 #
edge $-1 $394 0 $395 1.499999999999999778 $339 $396 forward 7 unknown #
face $-1 $397 $398 $2 $-1 $399 forward single #
loop $-1 $-1 $379 $294 #
plane-surface $-1 50.79999999999999716 0 0 -1 0 0 0 -25.39999999999999858 0 forward_v I I I I #
coedge $-1 $382 $381 $298 $346 reversed $295 $-1 #
coedge $-1 $400 $298 $401 $402 forward $65 $-1 #
edge $-1 $347 -6.5739190119536672e-16 $403 1.570796326794892561 $298 $404 forward 7 unknown #
vertex $-1 $385 $405 #
straight-curve $-1 38.49482919821781479 77.78749999999999432 -0.7937499999999999556 25.39999999999999858 0 0 I I #
point $-1 38.49482919821778637 77.78749999999999432 -0.7937499999999999556 #
coedge $-1 $327 $303 $406 $407 forward $16 $-1 #
coedge $-1 $408 $409 $303 $352 forward $410 $-1 #
edge $-1 $411 -1.630803391477061753e-15 $356 1.150026041274218036 $303 $412 forward 7 unknown #
coedge $-1 $413 $304 $307 $361 forward $355 $-1 #
coedge $-1 $304 $413 $408 $414 reversed $355 $-1 #
loop $-1 $-1 $413 $415 #
vertex $-1 $352 $416 #
ellipse-curve $-1 25.39999999999999858 24.1932795172116073 0.7937499999999999556 0 0 -1 -6.349999999999999645 0 0 1 I I #
coedge $-1 $307 $306 $417 $418 forward $308 $-1 #
coedge $-1 $314 $389 $306 $360 reversed $370 $-1 #
edge $-1 $269 0 $419 0.06249999999999999306 $306 $420 forward 7 unknown #
edge $-1 $309 0 $421 0.06250000000000001388 $307 $422 forward 7 unknown #
face $-1 $423 $308 $2 $-1 $424 forward single #
point $-1 19.04999999999999716 24.1932795172116073 0.7937499999999999556 #
coedge $-1 $425 $426 $311 $365 forward $427 $-1 #
edge $-1 $371 0 $367 1.499999999999999778 $364 $428 forward 7 unknown #
coedge $-1 $312 $320 $429 $430 reversed $321 $-1 #
vertex $-1 $431 $432 #
ellipse-curve $-1 -19.04999999999999716 -74.61249999999999716 -2.381250000000005418 -1 0 0 0 -3.174999999999999822 5.992428775414281796e-15 1 I I #
coedge $-1 $389 $314 $433 $434 forward $370 $-1 #
loop $-1 $-1 $369 $423 #
vertex $-1 $365 $435 #
ellipse-curve $-1 19.04999999999999716 -74.61250000000001137 -2.381249999999992983 -1 0 0 0 -3.17499999999998872 -6.344924585732769471e-15 1 I I #
face $-1 $274 $321 $2 $-1 $436 reversed single #
cone-surface $-1 50.79999999999999716 -74.61249999999999716 -2.381249999999999645 -1 0 0 0 -3.174999999999999822 0 1 I I 0 1 3.174999999999999822 forward I I I I #
coedge $-1 $318 $417 $388 $437 forward $65 $-1 #
straight-curve $-1 -19.04999999999999716 -74.61249999999999716 -0.7937499999999999556 0 25.39999999999999858 0 I I #
edge $-1 $395 8.741913579731512164e-18 $322 1.570796326794895448 $320 $438 forward 7 unknown #
point $-1 -19.04999999999999716 -74.61249999999999716 -0.7937499999999997335 #
coedge $-1 $439 $440 $327 $380 forward $342 $-1 #
edge $-1 $383 0 $441 0.8549913195752600892 $327 $442 forward 7 unknown #
coedge $-1 $344 $328 $440 $443 reversed $295 $-1 #
coedge $-1 $328 $344 $330 $385 forward $295 $-1 #
vertex $-1 $329 $444 #
ellipse-curve $-1 44.44999999999999574 71.43750000000001421 0.7937499999999999556 -2.775557561562891351e-17 4.930380657631323784e-32 1 6.349999999999999645 -1.127986593019158982e-14 1.762479051592435909e-16 1 I I #
edge $-1 $347 0 $332 0.06250000000000001388 $330 $445 forward 7 unknown #
point $-1 44.44999999999999574 77.78749999999999432 0.7937500000000001776 #
straight-curve $-1 38.49482919821778637 77.78749999999999432 -0.7937499999999999556 0 0 25.39999999999999858 I I #
coedge $-1 $338 $337 $375 $437 reversed $252 $-1 #
coedge $-1 $359 $369 $338 $390 forward $370 $-1 #
edge $-1 $394 -1.41618999991585225e-16 $419 1.570796326794909437 $338 $446 forward 7 unknown #
coedge $-1 $447 $339 $448 $449 reversed $393 $-1 #
coedge $-1 $339 $450 $451 $452 forward $393 $-1 #
loop $-1 $-1 $392 $453 #
vertex $-1 $449 $454 #
vertex $-1 $452 $455 #
straight-curve $-1 19.04999999999999716 -76.19999999999998863 -2.381249999999999645 -25.39999999999999858 0 0 I I #
face $-1 $415 $410 $2 $-1 $456 reversed single #
loop $-1 $-1 $457 $341 #
cone-surface $-1 44.44999999999999574 49.72072048278839418 -0.7953375388145611513 0 0 1 6.349999999999999645 0 0 1 I I 0 1 6.349999999999999645 forward I I I I #
coedge $-1 $458 $345 $457 $459 forward $65 $-1 #
coedge $-1 $440 $439 $345 $402 reversed $342 $-1 #
edge $-1 $403 0 $460 0.8549913195752600892 $345 $461 forward 7 unknown #
vertex $-1 $402 $462 #
ellipse-curve $-1 44.44999999999998863 71.43749999999998579 -0.7937499999999999556 0 0 -1 1.127986593019158982e-14 6.350000000000011191 0 1 I I #
point $-1 44.44999999999999574 77.78749999999999432 -0.7937499999999999556 #
coedge $-1 $463 $464 $350 $407 reversed $398 $-1 #
edge $-1 $411 -6.167523281444255896e-16 $441 1.051219549353639815 $350 $465 forward 7 unknown #
coedge $-1 $466 $351 $354 $414 forward $410 $-1 #
coedge $-1 $351 $466 $463 $467 forward $410 $-1 #
loop $-1 $-1 $351 $397 #
vertex $-1 $407 $468 #
straight-curve $-1 47.60285636065150783 44.2087338382926589 0.7937499999999999556 -22.04794657798284163 -12.61142544260617981 0 I I #
coedge $-1 $354 $353 $469 $470 reversed $355 $-1 #
edge $-1 $356 0 $471 0.06250000000000001388 $408 $472 forward 7 unknown #
face $-1 $362 $355 $2 $-1 $473 reversed single #
point $-1 22.24714363934845096 29.70526616170731771 0.7937499999999999556 #
coedge $-1 $375 $469 $358 $418 reversed $65 $-1 #
edge $-1 $419 0 $421 3.889991319575260231 $417 $474 forward 7 unknown #
vertex $-1 $437 $475 #
straight-curve $-1 19.04999999999999716 -74.61249999999999716 0.7937499999999999556 0 0 -25.39999999999999858 I I #
vertex $-1 $418 $476 #
straight-curve $-1 19.04999999999999716 24.1932795172116073 0.7937499999999999556 0 0 -25.39999999999999858 I I #
face $-1 $477 $370 $2 $-1 $478 forward single #
plane-surface $-1 19.04999999999999716 -23.36799999999999855 0 1 0 0 0 25.39999999999999858 0 forward_v I I I I #
coedge $-1 $479 $364 $480 $431 reversed $427 $-1 #
coedge $-1 $364 $481 $482 $483 forward $427 $-1 #
loop $-1 $-1 $484 $485 #
straight-curve $-1 19.04999999999999716 -77.78749999999999432 -2.381249999999999645 -25.39999999999999858 0 0 I I #
coedge $-1 $451 $480 $366 $430 forward $486 $-1 #
edge $-1 $367 0 $395 0.06250000000000022204 $429 $487 forward 7 unknown #
edge $-1 $488 0 $367 0.3750000000000000555 $425 $489 forward 7 unknown #
point $-1 -19.04999999999999716 -77.78749999999999432 -2.381249999999999645 #
coedge $-1 $482 $448 $369 $434 reversed $490 $-1 #
edge $-1 $371 0 $394 0.06250000000000022204 $433 $491 forward 7 unknown #
point $-1 19.04999999999999716 -77.78749999999999432 -2.381249999999999645 #
plane-surface $-1 -19.04999999999999716 -76.29629802270045502 -0.6974519772995335654 1 0 0 0 0 25.39999999999999858 forward_v I I I I #
edge $-1 $419 0 $322 1.499999999999999778 $375 $492 forward 7 unknown #
ellipse-curve $-1 -19.04999999999999716 -74.61249999999999716 -2.381250000000001421 -1 0 0 0 -1.587499999999999911 1.762479051592436008e-15 1 I I #
coedge $-1 $401 $379 $464 $493 reversed $342 $-1 #
coedge $-1 $379 $401 $381 $443 forward $342 $-1 #
vertex $-1 $380 $494 #
straight-curve $-1 50.79999999999999716 71.4375 0.7937499999999999556 0 -25.39999999999999858 0 I I #
edge $-1 $403 0 $383 0.06250000000000001388 $440 $495 forward 7 unknown #
point $-1 50.79999999999999716 71.4375 0.7937500000000001776 #
straight-curve $-1 44.44999999999999574 77.78749999999999432 -0.7937499999999999556 0 0 25.39999999999999858 I I #
ellipse-curve $-1 19.04999999999999716 -74.61250000000001137 -2.381249999999993427 -1 0 0 0 -1.587499999999988587 -5.992428775414281796e-15 1 I I #
coedge $-1 $496 $391 $497 $498 forward $393 $-1 #
coedge $-1 $433 $499 $391 $449 forward $490 $-1 #
edge $-1 $500 0 $394 0.3750000000000000555 $391 $501 forward 7 unknown #
coedge $-1 $392 $496 $502 $503 forward $393 $-1 #
coedge $-1 $504 $429 $392 $452 reversed $486 $-1 #
edge $-1 $505 0 $395 0.3750000000000000555 $451 $506 forward 7 unknown #
face $-1 $507 $393 $2 $-1 $508 reversed single #
point $-1 19.04999999999999716 -76.19999999999998863 -2.381249999999999645 #
point $-1 -19.04999999999999716 -76.19999999999998863 -2.381249999999999645 #
plane-surface $-1 34.92499999999999716 36.95700000000000074 0 -0.4965128127010309256 0.8680293928339702925 0 -22.04794657798284163 -12.61142544260618337 0 forward_v I I I I #
coedge $-1 $464 $463 $400 $459 reversed $398 $-1 #
coedge $-1 $469 $400 $466 $509 forward $65 $-1 #
edge $-1 $460 -2.307865185047573783e-16 $510 1.051219549353641369 $400 $511 forward 7 unknown #
vertex $-1 $459 $512 #
straight-curve $-1 50.79999999999999716 71.4375 -0.7937499999999999556 0 -25.39999999999999858 0 I I #
point $-1 50.79999999999999716 71.4375 -0.7937499999999999556 #
coedge $-1 $457 $406 $409 $467 reversed $398 $-1 #
coedge $-1 $406 $457 $439 $493 forward $398 $-1 #
ellipse-curve $-1 44.45000000000000995 49.72072048278838707 0.7937499999999999556 -1.37809989170520691e-17 2.409265544939177555e-17 1 3.152856360651535184 -5.511986644495701526 1.762479051592435909e-16 1 I I #
coedge $-1 $409 $408 $458 $509 reversed $410 $-1 #
edge $-1 $510 0 $411 0.06250000000000001388 $409 $513 forward 7 unknown #
point $-1 47.60285636065154335 44.20873383829268022 0.7937500000000001776 #
coedge $-1 $417 $458 $413 $470 forward $65 $-1 #
edge $-1 $471 -8.810747544920308866e-17 $421 1.051219549353636706 $469 $514 forward 7 unknown #
vertex $-1 $470 $515 #
straight-curve $-1 22.24714363934845096 29.70526616170731771 0.7937499999999999556 0 0 -25.39999999999999858 I I #
cone-surface $-1 25.39999999999999858 24.1932795172116073 0.7953375388145611513 0 0 -1 -3.15285636065154673 5.511986644495710408 0 1 I I 0 1 6.349999999999999645 forward I I I I #
straight-curve $-1 19.04999999999999716 -74.61249999999999716 -0.7937499999999999556 0 25.39999999999999858 0 I I #
point $-1 19.04999999999999716 -74.61249999999999716 -0.7937499999999997335 #
point $-1 19.04999999999999716 24.1932795172116073 -0.7937500000000001776 #
face $-1 $453 $490 $2 $-1 $516 forward single #
plane-surface $-1 19.04999999999999716 -76.29629802270045502 -0.6974519772995335654 1 0 0 0 0 25.39999999999999858 forward_v I I I I #
coedge $-1 $484 $425 $517 $518 forward $427 $-1 #
coedge $-1 $429 $504 $425 $431 forward $486 $-1 #
coedge $-1 $426 $484 $519 $520 forward $427 $-1 #
coedge $-1 $499 $433 $426 $483 reversed $490 $-1 #
edge $-1 $521 0 $371 0.3750000000000000555 $426 $522 forward 7 unknown #
coedge $-1 $481 $479 $523 $524 forward $427 $-1 #
face $-1 $525 $427 $2 $-1 $526 forward single #
loop $-1 $-1 $480 $507 #
straight-curve $-1 -19.04999999999999716 -77.78749999999999432 -2.381249999999999645 0 25.39999999999999858 0 I I #
vertex $-1 $518 $527 #
straight-curve $-1 -19.04999999999999716 -77.78749999999999432 -11.90625 0 0 25.39999999999999858 I I #
loop $-1 $-1 $448 $477 #
straight-curve $-1 19.04999999999999716 -77.78749999999999432 -2.381249999999999645 0 25.39999999999999858 0 I I #
straight-curve $-1 19.04999999999999716 -74.61249999999999716 -0.7937499999999999556 -25.39999999999999858 0 0 I I #
edge $-1 $460 0 $441 0.0625 $439 $528 forward 7 unknown #
point $-1 50.79999999999999716 49.72072048278839418 0.7937499999999999556 #
straight-curve $-1 50.79999999999999716 71.4375 -0.7937499999999999556 0 0 25.39999999999999858 I I #
coedge $-1 $450 $447 $529 $530 reversed $393 $-1 #
coedge $-1 $531 $532 $447 $498 reversed $533 $-1 #
edge $-1 $500 1.153932592523786645e-16 $534 1.570796326794896114 $447 $535 forward 7 unknown #
coedge $-1 $448 $482 $531 $536 reversed $490 $-1 #
vertex $-1 $498 $537 #
straight-curve $-1 19.04999999999999716 -76.19999999999998863 -11.90625 0 0 25.39999999999999858 I I #
coedge $-1 $538 $539 $450 $503 reversed $540 $-1 #
edge $-1 $541 1.153932592523785413e-16 $505 1.57079632679489567 $450 $542 forward 7 unknown #
coedge $-1 $480 $451 $539 $543 forward $486 $-1 #
vertex $-1 $543 $544 #
straight-curve $-1 -19.04999999999999716 -76.19999999999998863 -11.90625 0 0 25.39999999999999858 I I #
face $-1 $485 $486 $2 $-1 $545 reversed single #
plane-surface $-1 -26.65983999999999554 -76.19999999999998863 0.7937499999999999556 0 -1 0 25.39999999999999858 0 0 forward_v I I I I #
edge $-1 $510 0 $471 1.15002604127421959 $458 $546 forward 7 unknown #
vertex $-1 $509 $547 #
ellipse-curve $-1 44.45000000000001705 49.72072048278838707 -0.7937499999999999556 0 0 -1 6.34999999999997744 5.63993296509579491e-15 0 1 I I #
point $-1 50.79999999999999716 49.72072048278839418 -0.7937499999999999556 #
straight-curve $-1 47.60285636065154335 44.20873383829268022 -0.7937499999999999556 0 0 25.39999999999999858 I I #
ellipse-curve $-1 25.39999999999999858 24.19327951721159664 -0.7937499999999999556 -1.378099891705203059e-17 2.409265544939169852e-17 1 -3.15285636065154673 5.511986644495718402 -1.762479051592435909e-16 1 I I #
point $-1 22.24714363934845096 29.70526616170731771 -0.7937500000000001776 #
plane-surface $-1 19.04999999999999716 -76.99374999999999147 -10.31874999999999964 1 0 0 0 0 25.39999999999999858 forward_v I I I I #
coedge $-1 $539 $538 $479 $518 reversed $540 $-1 #
edge $-1 $488 1.153932592523785413e-16 $548 1.57079632679489567 $479 $549 forward 7 unknown #
coedge $-1 $532 $531 $481 $520 reversed $533 $-1 #
edge $-1 $550 0 $521 1.570796326794896114 $481 $551 forward 7 unknown #
vertex $-1 $483 $552 #
straight-curve $-1 19.04999999999999716 -77.78749999999999432 -11.90625 0 0 25.39999999999999858 I I #
coedge $-1 $553 $554 $484 $524 reversed $555 $-1 #
edge $-1 $548 0 $550 1 $484 $556 forward 7 unknown #
face $-1 $557 $555 $2 $-1 $558 forward single #
plane-surface $-1 -26.65983999999999554 -77.78749999999999432 0.7937499999999999556 0 -1 0 25.39999999999999858 0 0 forward_v I I I I #
point $-1 -19.04999999999999716 -77.78749999999999432 -11.90625 #
straight-curve $-1 50.79999999999999716 49.72072048278839418 -0.7937499999999999556 0 0 25.39999999999999858 I I #
coedge $-1 $554 $553 $496 $530 forward $555 $-1 #
edge $-1 $541 0 $534 1 $496 $559 forward 7 unknown #
coedge $-1 $519 $497 $499 $536 forward $533 $-1 #
coedge $-1 $497 $519 $554 $560 reversed $533 $-1 #
loop $-1 $-1 $497 $557 #
vertex $-1 $530 $561 #
ellipse-curve $-1 12.69999999999999929 -76.19999999999998863 -11.90624999999999645 0 1 0 6.349999999999999645 0 -2.819966482547897455e-15 1 I I #
edge $-1 $500 0 $521 0.06250000000000022204 $499 $562 forward 7 unknown #
point $-1 19.04999999999999716 -76.19999999999998863 -11.90625 #
coedge $-1 $517 $502 $553 $563 forward $540 $-1 #
coedge $-1 $502 $517 $504 $543 reversed $540 $-1 #
loop $-1 $-1 $502 $564 #
vertex $-1 $503 $565 #
ellipse-curve $-1 -12.69999999999999574 -76.19999999999998863 -11.90624999999999645 0 1 0 -2.819966482547897455e-15 0 -6.350000000000002309 1 I I #
edge $-1 $505 0 $488 0.06250000000000022204 $504 $566 forward 7 unknown #
point $-1 -19.04999999999999716 -76.19999999999998863 -11.90625 #
plane-surface $-1 -19.04999999999999716 -76.99374999999999147 -10.31874999999999964 1 0 0 0 0 25.39999999999999858 forward_v I I I I #
straight-curve $-1 47.60285636065154335 44.20873383829268022 -0.7937499999999999556 -22.04794657798284518 -12.61142544260618692 0 I I #
point $-1 47.60285636065154335 44.20873383829268022 -0.7937499999999999556 #
vertex $-1 $518 $567 #
ellipse-curve $-1 -12.69999999999999574 -77.78749999999999432 -11.90624999999999645 0 -1 0 -6.350000000000002309 0 -2.819966482547897455e-15 1 I I #
vertex $-1 $520 $568 #
ellipse-curve $-1 12.69999999999999929 -77.78749999999999432 -11.90624999999999645 0 -1 0 0 0 -6.350000000000002309 1 I I #
point $-1 19.04999999999999716 -77.78749999999999432 -11.90625 #
coedge $-1 $529 $523 $538 $563 reversed $555 $-1 #
coedge $-1 $523 $529 $532 $560 forward $555 $-1 #
loop $-1 $-1 $529 $525 #
straight-curve $-1 -12.69999999999999929 -77.78749999999999432 -18.25624999999999787 25.39999999999999858 0 0 I I #
face $-1 $564 $533 $2 $-1 $569 forward single #
plane-surface $-1 0 -76.99374999999999147 -18.25624999999999787 0 0 -1 25.39999999999999858 0 0 forward_v I I I I #
straight-curve $-1 -12.69999999999999929 -76.19999999999998863 -18.25624999999999787 25.39999999999999858 0 0 I I #
edge $-1 $534 0 $550 0.06250000000000022204 $554 $570 forward 7 unknown #
point $-1 12.69999999999999929 -76.19999999999998863 -18.25624999999999787 #
straight-curve $-1 19.04999999999999716 -76.19999999999998863 -11.90625 0 -25.39999999999999858 0 I I #
edge $-1 $541 0 $548 0.06250000000000022204 $553 $571 forward 7 unknown #
face $-1 $316 $540 $2 $-1 $572 forward single #
point $-1 -12.69999999999999929 -76.19999999999998863 -18.25624999999999787 #
straight-curve $-1 -19.04999999999999716 -76.19999999999998863 -11.90625 0 -25.39999999999999858 0 I I #
point $-1 -12.69999999999999929 -77.78749999999999432 -18.25624999999999787 #
point $-1 12.69999999999999929 -77.78749999999999432 -18.25624999999999787 #
cone-surface $-1 12.69999999999999929 -76.1984124611854412 -11.90625 0 -1 0 6.349999999999999645 0 0 1 I I 0 1 6.349999999999999645 forward I I I I #
straight-curve $-1 12.69999999999999929 -76.19999999999998863 -18.25624999999999787 0 -25.39999999999999858 0 I I #
straight-curve $-1 -12.69999999999999929 -76.19999999999998863 -18.25624999999999787 0 -25.39999999999999858 0 I I #
cone-surface $-1 -12.69999999999999929 -76.1984124611854412 -11.90625 0 -1 0 0 0 -6.349999999999999645 1 I I 0 1 6.349999999999999645 forward I I I I #
End-of-ACIS-data 