700 0 2 0           
24 FBMach with ACIS - 7.0.3 13 ACIS 7.0.3 NT 24 Wed May 15 14:36:38 2002 
1 9.9999999999999995e-007 1e-010 
body $2 -1 $-1 $3 $-1 $4 #
bdycol-kcp $-1 -1 1 3 $5 $6 $7 #
model_id-kcp-attrib $-1 -1 $-1 $-1 $0 1 1021487798 1021487798 509870081 1 #
lump $-1 -1 $-1 $-1 $8 $0 #
transform $-1 -1 1.0000000000000004 0 5.5511151231257827e-017 0 1 0 -5.5511151231257827e-017 0 1.0000000000000004 0 0 0 1 rotate no_reflect no_shear #
body $9 -1 $-1 $10 $-1 $11 #
body $12 -1 $-1 $13 $-1 $14 #
body $15 -1 $-1 $16 $-1 $17 #
shell $-1 -1 $-1 $-1 $-1 $18 $-1 $3 #
model_id-kcp-attrib $-1 -1 $-1 $-1 $5 1 1021487798 1021487798 510525442 1 #
lump $-1 -1 $-1 $-1 $19 $5 #
transform $-1 -1 1 0 0 0 1 0 0 0 1 -8.8817841970012523e-016 -8.8899999999999988 1.7763568394002505e-015 1 no_rotate no_reflect no_shear #
rgb_color-st-attrib $-1 -1 $20 $-1 $6 1 0.5 1 #
lump $-1 -1 $-1 $-1 $21 $6 #
transform $-1 -1 1 0 0 0 1 0 0 0 1 -8.8817841970012523e-016 -8.8899999999999988 1.7763568394002505e-015 1 no_rotate no_reflect no_shear #
rgb_color-st-attrib $-1 -1 $22 $-1 $7 0.5 1 1 #
lump $-1 -1 $-1 $23 $24 $7 #
transform $-1 -1 1 0 0 0 1 0 0 0 1 -8.8817841970012523e-016 -8.8899999999999988 1.7763568394002505e-015 1 no_rotate no_reflect no_shear #
face $25 -1 $-1 $26 $27 $8 $-1 $28 reversed single #
shell $-1 -1 $-1 $-1 $-1 $29 $-1 $10 #
model_id-kcp-attrib $-1 -1 $-1 $12 $6 1 1021487798 1021487798 515440644 1 #
shell $-1 -1 $-1 $-1 $-1 $30 $-1 $13 #
model_id-kcp-attrib $-1 -1 $-1 $15 $7 1 1021487798 1021487798 517734403 1 #
lump $-1 -1 $-1 $-1 $31 $7 #
shell $-1 -1 $-1 $-1 $-1 $32 $-1 $16 #
model_id-kcp-attrib $-1 -1 $-1 $-1 $18 1 1021487798 1021487798 509870081 2 #
face $33 -1 $-1 $34 $35 $8 $-1 $36 forward single #
loop $-1 -1 $-1 $-1 $37 $18 #
plane-surface $-1 -1 $-1 0 -17.779999999999998 0 0 1 0 25.399999999999999 0 0 forward_v I I I I #
face $38 -1 $-1 $39 $40 $19 $-1 $41 forward single #
face $-1 -1 $-1 $42 $43 $21 $-1 $44 forward single #
shell $-1 -1 $-1 $-1 $-1 $45 $-1 $23 #
face $-1 -1 $-1 $46 $47 $24 $-1 $48 reversed single #
model_id-kcp-attrib $-1 -1 $-1 $-1 $26 1 1021487798 1021487798 509870081 3 #
face $49 -1 $-1 $50 $51 $8 $-1 $52 forward single #
loop $-1 -1 $-1 $-1 $53 $26 #
cone-surface $-1 -1 $-1 0 -18.668999999999997 0 0 1 0 3.1749999999999998 0 0 1 I I 0 1 3.1749999999999998 forward I I I I #
coedge $-1 -1 $-1 $54 $54 $53 $55 reversed $27 $-1 #
model_id-kcp-attrib $-1 -1 $-1 $-1 $29 1 1021487798 1021487798 510525442 4 #
face $56 -1 $-1 $57 $58 $19 $-1 $59 reversed single #
loop $-1 -1 $-1 $-1 $60 $29 #
plane-surface $-1 -1 $-1 0 0 5.4992613140311883 0 0 1 1 0 0 forward_v I I I I #
face $-1 -1 $-1 $61 $62 $21 $-1 $63 forward single #
loop $-1 -1 $-1 $64 $65 $30 #
cone-surface $-1 -1 $-1 8.8817841970012523e-016 3.8099999999999987 -1.7763568394002505e-015 0 -1 0 3.1749999999999998 0 0 1 I I 0 -1 3.1749999999999998 forward I I I I #
face $-1 -1 $-1 $66 $67 $31 $-1 $68 reversed single #
face $-1 -1 $-1 $69 $70 $24 $-1 $71 reversed single #
loop $-1 -1 $-1 $-1 $72 $32 #
plane-surface $-1 -1 $-1 6.3499999999999996 -8.8899999999999988 -1.7763568394002505e-015 0.86602540378443882 0 -0.49999999999999983 0 1 0 forward_v I I I I #
model_id-kcp-attrib $-1 -1 $-1 $-1 $34 1 1021487798 1021487798 509870081 4 #
face $73 -1 $-1 $74 $75 $8 $-1 $76 reversed single #
loop $-1 -1 $-1 $-1 $77 $34 #
cone-surface $-1 -1 $-1 0 -18.668999999999997 0 0 1 0 3.1749999999999998 0 0 1 I I 0 1 3.1749999999999998 forward I I I I #
coedge $-1 -1 $-1 $78 $79 $37 $55 forward $35 $-1 #
coedge $-1 -1 $-1 $37 $37 $80 $81 forward $27 $-1 #
edge $82 -1 $-1 $83 0 $84 3.1415926535897931 $37 $85 forward @7 unknown #
model_id-kcp-attrib $-1 -1 $-1 $-1 $39 1 1021487798 1021487798 510525442 3 #
face $86 -1 $-1 $87 $88 $19 $-1 $89 reversed single #
loop $-1 -1 $-1 $-1 $90 $39 #
plane-surface $-1 -1 $-1 0 0 -5.4992613140311883 0 0 1 1 0 0 forward_v I I I I #
coedge $-1 -1 $-1 $91 $92 $93 $94 forward $40 $-1 #
face $-1 -1 $-1 $95 $96 $21 $-1 $97 forward single #
loop $-1 -1 $-1 $-1 $98 $42 #
plane-surface $-1 -1 $-1 -3.1749999999999989 3.8099999999999996 5.4992613140311875 0 0 1 1 0 0 forward_v I I I I #
loop $-1 -1 $-1 $-1 $99 $30 #
coedge $-1 -1 $-1 $65 $65 $100 $101 forward $43 $-1 #
face $-1 -1 $-1 $102 $103 $31 $-1 $104 forward single #
loop $-1 -1 $-1 $-1 $105 $45 #
plane-surface $-1 -1 $-1 -6.3500000000000005 0 0 1 0 0 0 0 -1 forward_v I I I I #
face $-1 -1 $-1 $106 $107 $24 $-1 $108 reversed single #
loop $-1 -1 $-1 $-1 $109 $46 #
plane-surface $-1 -1 $-1 3.1750000000000007 -8.8899999999999988 5.4992613140311883 0.86602540378443871 0 0.49999999999999989 0 1 0 forward_v I I I I #
coedge $-1 -1 $-1 $110 $111 $112 $113 reversed $47 $-1 #
model_id-kcp-attrib $-1 -1 $-1 $-1 $50 1 1021487798 1021487798 509870081 5 #
face $114 -1 $-1 $115 $116 $8 $-1 $117 reversed single #
loop $-1 -1 $-1 $118 $119 $50 #
plane-surface $-1 -1 $-1 0 -5.0799999999999992 0 0 1 0 25.399999999999999 0 0 forward_v I I I I #
coedge $-1 -1 $-1 $120 $121 $122 $123 forward $51 $-1 #
coedge $-1 -1 $-1 $124 $53 $120 $125 forward $35 $-1 #
coedge $-1 -1 $-1 $53 $124 $121 $126 reversed $35 $-1 #
coedge $-1 -1 $-1 $121 $120 $54 $81 reversed $51 $-1 #
edge $127 -1 $-1 $83 0 $84 3.1415926535897931 $54 $128 forward @7 unknown #
attrib_edge_convexity-kcp-attrib $-1 -1 $129 $-1 $55 1 #
vertex $-1 -1 $-1 $81 $130 #
vertex $-1 -1 $-1 $81 $131 #
ellipse-curve $-1 -1 $-1 -1.7624790515924359e-016 -17.779999999999998 0 0 1 0 3.1749999999999998 0 0 1 I I #
model_id-kcp-attrib $-1 -1 $-1 $-1 $57 1 1021487798 1021487798 510525442 2 #
face $-1 -1 $-1 $132 $133 $19 $-1 $134 reversed single #
loop $-1 -1 $-1 $-1 $135 $57 #
plane-surface $-1 -1 $-1 0 -8.8899999999999988 0 0 1 0 0 0 1 forward_v I I I I #
coedge $-1 -1 $-1 $136 $137 $138 $139 forward $58 $-1 #
coedge $-1 -1 $-1 $140 $60 $141 $142 forward $40 $-1 #
coedge $-1 -1 $-1 $60 $140 $143 $144 forward $40 $-1 #
coedge $-1 -1 $-1 $145 $146 $60 $94 reversed $147 $-1 #
edge $-1 -1 $-1 $148 -8.8899999999999988 $149 8.8899999999999988 $93 $150 forward @7 unknown #
face $-1 -1 $-1 $151 $152 $21 $-1 $153 forward single #
loop $-1 -1 $-1 $-1 $154 $61 #
plane-surface $-1 -1 $-1 3.1750000000000016 3.8099999999999996 5.4992613140311883 0.86602540378443871 0 0.49999999999999989 0.49999999999999989 0 -0.86602540378443871 forward_v I I I I #
coedge $-1 -1 $-1 $155 $156 $157 $158 forward $62 $-1 #
coedge $-1 -1 $-1 $99 $99 $159 $160 reversed $64 $-1 #
coedge $-1 -1 $-1 $100 $100 $65 $101 reversed $161 $-1 #
edge $-1 -1 $-1 $162 -3.1415926535897931 $162 3.1415926535897931 $65 $163 forward @7 unknown #
face $-1 -1 $-1 $164 $165 $31 $-1 $166 reversed single #
loop $-1 -1 $-1 $-1 $167 $66 #
plane-surface $-1 -1 $-1 0 0 5.4992613140311883 0 0 1 1 0 0 forward_v I I I I #
coedge $-1 -1 $-1 $168 $169 $170 $171 forward $67 $-1 #
face $-1 -1 $-1 $172 $173 $24 $-1 $174 reversed single #
loop $-1 -1 $-1 $-1 $175 $69 #
plane-surface $-1 -1 $-1 6.3500000000000005 0 0 -1 0 0 0 0 1 forward_v I I I I #
coedge $-1 -1 $-1 $176 $177 $178 $179 reversed $70 $-1 #
coedge $-1 -1 $-1 $180 $72 $181 $182 reversed $47 $-1 #
coedge $-1 -1 $-1 $72 $180 $177 $183 forward $47 $-1 #
coedge $-1 -1 $-1 $184 $185 $72 $113 forward $186 $-1 #
edge $-1 -1 $-1 $187 -4.762500000000002 $188 1.5874999999999986 $112 $189 forward @7 unknown #
model_id-kcp-attrib $-1 -1 $-1 $-1 $74 1 1021487798 1021487798 509870081 6 #
face $190 -1 $-1 $191 $192 $8 $-1 $193 reversed single #
loop $-1 -1 $-1 $-1 $194 $74 #
plane-surface $-1 -1 $-1 3.1749999999999998 0 -5.4992613140311866 -0.86602540378443882 0 0.49999999999999989 12.699999999999999 0 21.99704525612475 forward_v I I I I #
loop $-1 -1 $-1 $-1 $195 $50 #
coedge $-1 -1 $-1 $122 $122 $124 $196 forward $75 $-1 #
coedge $-1 -1 $-1 $80 $77 $78 $125 reversed $51 $-1 #
coedge $-1 -1 $-1 $77 $80 $79 $126 forward $51 $-1 #
coedge $-1 -1 $-1 $119 $119 $77 $123 reversed $75 $-1 #
edge $197 -1 $-1 $198 0 $199 3.1415926535897931 $122 $200 forward @7 unknown #
coedge $-1 -1 $-1 $79 $78 $119 $196 reversed $35 $-1 #
edge $-1 -1 $-1 $84 0 $199 0.5 $78 $201 forward @7 unknown #
edge $-1 -1 $-1 $83 0 $198 0.5 $79 $202 forward @7 unknown #
attrib_edge_convexity-kcp-attrib $-1 -1 $203 $-1 $81 1 #
ellipse-curve $-1 -1 $-1 -1.7624790515924359e-016 -17.779999999999998 0 0 -1 0 3.1749999999999998 0 0 1 I I #
convexity-sys-attrib $-1 -1 $-1 $82 $55 #
point $-1 -1 $-1 3.1749999999999998 -17.779999999999998 0 #
point $-1 -1 $-1 -3.1749999999999998 -17.779999999999998 3.8881251733860477e-016 #
face $204 -1 $-1 $205 $206 $19 $-1 $207 reversed single #
loop $-1 -1 $-1 $-1 $208 $87 #
plane-surface $-1 -1 $-1 -6.3500000000000005 0 0 1 0 0 0 0 -1 forward_v I I I I #
coedge $-1 -1 $-1 $209 $143 $210 $211 forward $88 $-1 #
coedge $-1 -1 $-1 $212 $90 $209 $213 forward $58 $-1 #
coedge $-1 -1 $-1 $90 $212 $214 $215 forward $58 $-1 #
coedge $-1 -1 $-1 $146 $145 $90 $139 reversed $147 $-1 #
edge $-1 -1 $-1 $216 -8.8899999999999988 $217 8.8899999999999988 $138 $218 forward @7 unknown #
coedge $-1 -1 $-1 $92 $91 $219 $220 forward $40 $-1 #
coedge $-1 -1 $-1 $221 $222 $91 $142 reversed $206 $-1 #
edge $-1 -1 $-1 $149 -6.3500000000000005 $223 6.3500000000000005 $141 $224 forward @7 unknown #
coedge $-1 -1 $-1 $135 $225 $92 $144 reversed $88 $-1 #
edge $-1 -1 $-1 $226 -6.3500000000000005 $148 6.3500000000000005 $143 $227 forward @7 unknown #
coedge $-1 -1 $-1 $138 $93 $225 $228 forward $147 $-1 #
coedge $-1 -1 $-1 $93 $138 $221 $229 reversed $147 $-1 #
loop $-1 -1 $-1 $-1 $145 $205 #
vertex $-1 -1 $-1 $94 $230 #
vertex $-1 -1 $-1 $94 $231 #
straight-curve $-1 -1 $-1 6.3500000000000005 0 5.4992613140311883 0 1 0 I I #
face $-1 -1 $-1 $232 $233 $21 $-1 $234 forward single #
loop $-1 -1 $-1 $-1 $235 $95 #
plane-surface $-1 -1 $-1 6.3500000000000005 3.8099999999999996 6.2044339312005183e-016 0.86602540378443882 0 -0.49999999999999983 -0.49999999999999983 0 -0.86602540378443882 forward_v I I I I #
coedge $-1 -1 $-1 $236 $237 $238 $239 forward $96 $-1 #
coedge $-1 -1 $-1 $240 $98 $237 $241 reversed $62 $-1 #
coedge $-1 -1 $-1 $98 $240 $242 $243 forward $62 $-1 #
coedge $-1 -1 $-1 $244 $238 $98 $158 reversed $245 $-1 #
edge $-1 -1 $-1 $246 -3.1749999999999989 $247 3.1750000000000016 $98 $248 forward @7 unknown #
coedge $-1 -1 $-1 $159 $159 $99 $160 forward $249 $-1 #
edge $250 -1 $-1 $251 0 $251 6.2831853071795862 $99 $252 forward @7 unknown #
loop $-1 -1 $-1 $-1 $100 $253 #
vertex $-1 -1 $-1 $101 $254 #
ellipse-curve $-1 -1 $-1 8.8817841970012523e-016 -8.8900000000000006 -1.7763568394002505e-015 0 -1 0 3.1749999999999998 0 0 1 I I #
face $-1 -1 $-1 $255 $256 $31 $-1 $166 reversed single #
loop $-1 -1 $-1 $-1 $257 $102 #
plane-surface $-1 -1 $-1 0 -8.8899999999999988 0 0 1 0 0 0 1 forward_v I I I I #
coedge $-1 -1 $-1 $258 $259 $260 $261 forward $103 $-1 #
coedge $-1 -1 $-1 $262 $105 $263 $264 forward $67 $-1 #
coedge $-1 -1 $-1 $105 $262 $265 $266 reversed $67 $-1 #
coedge $-1 -1 $-1 $267 $268 $269 $171 reversed $270 $-1 #
edge $-1 -1 $-1 $271 -4.4449999999999994 $272 13.334999999999997 $105 $273 forward @7 unknown #
face $-1 -1 $-1 $274 $186 $24 $-1 $174 reversed single #
loop $-1 -1 $-1 $-1 $275 $106 #
plane-surface $-1 -1 $-1 0 8.8899999999999988 0 0 -1 0 0 0 -1 forward_v I I I I #
coedge $-1 -1 $-1 $276 $277 $278 $183 forward $107 $-1 #
coedge $-1 -1 $-1 $279 $109 $280 $281 reversed $70 $-1 #
coedge $-1 -1 $-1 $109 $279 $175 $183 reversed $70 $-1 #
coedge $-1 -1 $-1 $282 $283 $109 $179 forward $284 $-1 #
edge $-1 -1 $-1 $285 -1.5875000000000017 $286 4.762500000000002 $178 $287 forward @7 unknown #
coedge $-1 -1 $-1 $111 $110 $288 $289 reversed $47 $-1 #
coedge $-1 -1 $-1 $290 $291 $110 $182 forward $292 $-1 #
edge $-1 -1 $-1 $293 -4.4449999999999994 $187 13.334999999999997 $181 $294 forward @7 unknown #
edge $-1 -1 $-1 $286 -4.4449999999999994 $188 13.334999999999997 $175 $295 forward @7 unknown #
coedge $-1 -1 $-1 $185 $112 $296 $297 forward $186 $-1 #
coedge $-1 -1 $-1 $112 $184 $290 $298 reversed $186 $-1 #
loop $-1 -1 $-1 $-1 $112 $172 #
vertex $-1 -1 $-1 $298 $299 #
vertex $-1 -1 $-1 $297 $300 #
straight-curve $-1 -1 $-1 5.5562500000000012 8.889999999999997 -1.3748153285077973 0.49999999999999983 0 0.86602540378443882 I I #
model_id-kcp-attrib $-1 -1 $-1 $-1 $115 1 1021487798 1021487798 509870081 7 #
face $301 -1 $-1 $302 $303 $8 $-1 $304 reversed single #
loop $-1 -1 $-1 $-1 $305 $115 #
plane-surface $-1 -1 $-1 -3.1749999999999998 0 -5.4992613140311866 0 0 1 25.399999999999999 0 0 forward_v I I I I #
coedge $-1 -1 $-1 $306 $307 $308 $309 reversed $116 $-1 #
coedge $-1 -1 $-1 $310 $311 $307 $312 forward $118 $-1 #
edge $313 -1 $-1 $198 0 $199 3.1415926535897931 $124 $314 forward @7 unknown #
attrib_edge_convexity-kcp-attrib $-1 -1 $315 $-1 $123 2 #
vertex $-1 -1 $-1 $126 $316 #
vertex $-1 -1 $-1 $196 $317 #
ellipse-curve $-1 -1 $-1 0 -5.0799999999999992 0 0 -1 0 3.1749999999999998 0 0 1 I I #
straight-curve $-1 -1 $-1 -3.1749999999999998 -17.779999999999998 3.8881251733860477e-016 0 25.399999999999999 0 I I #
straight-curve $-1 -1 $-1 3.1749999999999998 -17.779999999999998 0 0 25.399999999999999 0 I I #
convexity-sys-attrib $-1 -1 $-1 $127 $81 #
model_id-kcp-attrib $-1 -1 $-1 $-1 $132 1 1021487798 1021487798 510525442 5 #
face $-1 -1 $-1 $-1 $147 $19 $-1 $318 reversed single #
loop $-1 -1 $-1 $-1 $221 $132 #
plane-surface $-1 -1 $-1 0 8.8899999999999988 0 0 -1 0 0 0 -1 forward_v I I I I #
coedge $-1 -1 $-1 $319 $219 $222 $320 forward $133 $-1 #
coedge $-1 -1 $-1 $225 $135 $136 $213 reversed $88 $-1 #
coedge $-1 -1 $-1 $219 $319 $135 $211 reversed $133 $-1 #
edge $-1 -1 $-1 $226 -5.4992613140311883 $321 5.4992613140311883 $210 $322 forward @7 unknown #
coedge $-1 -1 $-1 $137 $136 $319 $323 forward $58 $-1 #
edge $-1 -1 $-1 $217 -6.3500000000000005 $321 6.3500000000000005 $209 $324 forward @7 unknown #
coedge $-1 -1 $-1 $222 $221 $137 $215 reversed $206 $-1 #
edge $-1 -1 $-1 $325 -6.3500000000000005 $216 6.3500000000000005 $214 $326 forward @7 unknown #
vertex $-1 -1 $-1 $139 $327 #
vertex $-1 -1 $-1 $228 $328 #
straight-curve $-1 -1 $-1 6.3500000000000005 0 -5.4992613140311883 0 -1 0 I I #
coedge $-1 -1 $-1 $208 $210 $140 $220 reversed $133 $-1 #
edge $-1 -1 $-1 $223 -8.8899999999999988 $226 8.8899999999999988 $219 $329 forward @7 unknown #
coedge $-1 -1 $-1 $214 $141 $146 $229 forward $206 $-1 #
coedge $-1 -1 $-1 $141 $214 $208 $320 reversed $206 $-1 #
vertex $-1 -1 $-1 $142 $330 #
straight-curve $-1 -1 $-1 0 8.8899999999999988 5.4992613140311883 -1 0 0 I I #
coedge $-1 -1 $-1 $143 $209 $145 $228 reversed $88 $-1 #
vertex $-1 -1 $-1 $220 $331 #
straight-curve $-1 -1 $-1 0 -8.8899999999999988 5.4992613140311883 1 0 0 I I #
edge $-1 -1 $-1 $148 -5.4992613140311883 $217 5.4992613140311883 $145 $332 forward @7 unknown #
edge $-1 -1 $-1 $149 -5.4992613140311883 $216 5.4992613140311883 $146 $333 forward @7 unknown #
point $-1 -1 $-1 6.3500000000000005 -8.8899999999999988 5.4992613140311883 #
point $-1 -1 $-1 6.3500000000000005 8.8899999999999988 5.4992613140311883 #
face $-1 -1 $-1 $334 $335 $21 $-1 $336 forward single #
loop $-1 -1 $-1 $-1 $337 $151 #
plane-surface $-1 -1 $-1 3.1750000000000016 3.8099999999999996 -5.4992613140311883 0 0 -1 -1 0 0 forward_v I I I I #
coedge $-1 -1 $-1 $338 $339 $340 $341 forward $152 $-1 #
coedge $-1 -1 $-1 $342 $154 $339 $343 reversed $96 $-1 #
coedge $-1 -1 $-1 $154 $342 $155 $241 forward $96 $-1 #
coedge $-1 -1 $-1 $157 $340 $154 $239 reversed $245 $-1 #
edge $-1 -1 $-1 $247 -1.5875000000000012 $344 4.7625000000000002 $154 $345 forward @7 unknown #
coedge $-1 -1 $-1 $156 $155 $346 $347 reversed $62 $-1 #
edge $-1 -1 $-1 $348 0 $247 12.699999999999999 $237 $349 forward @7 unknown #
coedge $-1 -1 $-1 $350 $351 $156 $243 reversed $352 $-1 #
edge $-1 -1 $-1 $353 0 $246 12.699999999999999 $156 $354 forward @7 unknown #
coedge $-1 -1 $-1 $355 $157 $351 $356 reversed $245 $-1 #
loop $-1 -1 $-1 $161 $157 $253 #
vertex $-1 -1 $-1 $243 $357 #
vertex $-1 -1 $-1 $241 $358 #
straight-curve $-1 -1 $-1 0 -8.8900000000000006 5.4992613140311883 1 0 0 I I #
loop $-1 -1 $-1 $-1 $159 $359 #
convexity-sys-attrib $-1 -1 $-1 $-1 $160 #
vertex $-1 -1 $-1 $160 $360 #
ellipse-curve $-1 -1 $-1 8.8817841970012523e-016 3.8099999999999987 -1.7763568394002505e-015 0 -1 0 3.1749999999999998 0 0 1 I I #
face $-1 -1 $-1 $359 $245 $21 $-1 $361 reversed single #
point $-1 -1 $-1 -3.1749999999999989 -8.8899999999999988 -1.7763568394002505e-015 #
face $-1 -1 $-1 $362 $270 $31 $-1 $68 reversed single #
loop $-1 -1 $-1 $-1 $363 $164 #
coedge $-1 -1 $-1 $265 $364 $365 $366 forward $165 $-1 #
coedge $-1 -1 $-1 $367 $167 $368 $369 forward $103 $-1 #
coedge $-1 -1 $-1 $167 $367 $370 $371 forward $103 $-1 #
coedge $-1 -1 $-1 $372 $373 $167 $261 reversed $374 $-1 #
edge $-1 -1 $-1 $375 -4.4449999999999994 $376 13.334999999999997 $167 $377 forward @7 unknown #
coedge $-1 -1 $-1 $169 $168 $378 $379 reversed $67 $-1 #
coedge $-1 -1 $-1 $380 $381 $168 $264 reversed $382 $-1 #
edge $-1 -1 $-1 $272 8.8817841970012504e-016 $383 5.4992613140311883 $263 $384 forward @7 unknown #
coedge $-1 -1 $-1 $364 $257 $169 $266 forward $165 $-1 #
edge $-1 -1 $-1 $271 1.7763568394002505e-015 $385 5.4992613140311883 $169 $386 forward @7 unknown #
coedge $-1 -1 $-1 $387 $170 $388 $389 reversed $270 $-1 #
coedge $-1 -1 $-1 $170 $387 $390 $391 forward $270 $-1 #
coedge $-1 -1 $-1 $373 $372 $392 $171 forward $374 $-1 #
loop $-1 -1 $-1 $-1 $170 $255 #
vertex $-1 -1 $-1 $266 $393 #
vertex $-1 -1 $-1 $264 $394 #
straight-curve $-1 -1 $-1 -6.3500000000000005 -4.4449999999999994 4.4408920985006262e-016 0 1 0 I I #
face $-1 -1 $-1 $395 $284 $24 $-1 $166 reversed single #
coedge $-1 -1 $-1 $396 $397 $279 $398 forward $173 $-1 #
coedge $-1 -1 $-1 $399 $175 $397 $400 reversed $107 $-1 #
coedge $-1 -1 $-1 $175 $399 $282 $401 forward $107 $-1 #
coedge $-1 -1 $-1 $402 $296 $111 $183 reversed $403 $-1 #
coedge $-1 -1 $-1 $177 $176 $275 $398 reversed $70 $-1 #
coedge $-1 -1 $-1 $404 $405 $176 $281 forward $406 $-1 #
edge $-1 -1 $-1 $407 -13.334999999999997 $285 4.4449999999999994 $280 $408 forward @7 unknown #
coedge $-1 -1 $-1 $283 $178 $277 $401 reversed $284 $-1 #
coedge $-1 -1 $-1 $178 $282 $404 $409 reversed $284 $-1 #
loop $-1 -1 $-1 $-1 $178 $274 #
vertex $-1 -1 $-1 $409 $410 #
vertex $-1 -1 $-1 $411 $412 #
straight-curve $-1 -1 $-1 3.9687500000000013 -8.8899999999999988 4.1244459855233906 0.49999999999999989 0 -0.86602540378443871 I I #
coedge $-1 -1 $-1 $413 $414 $180 $289 forward $415 $-1 #
edge $-1 -1 $-1 $286 -1.5874999999999986 $293 4.762500000000002 $288 $416 forward @7 unknown #
coedge $-1 -1 $-1 $417 $181 $185 $298 forward $292 $-1 #
coedge $-1 -1 $-1 $181 $417 $413 $418 forward $292 $-1 #
loop $-1 -1 $-1 $-1 $181 $419 #
vertex $-1 -1 $-1 $289 $420 #
straight-curve $-1 -1 $-1 3.1750000000000007 -4.4449999999999994 -5.4992613140311883 0 1 0 I I #
straight-curve $-1 -1 $-1 6.3500000000000005 -4.4449999999999994 1.7763568394002505e-015 0 1 0 I I #
coedge $-1 -1 $-1 $278 $421 $184 $297 reversed $403 $-1 #
edge $-1 -1 $-1 $188 1.7763568394002505e-015 $422 5.4992613140311883 $296 $423 forward @7 unknown #
edge $-1 -1 $-1 $187 3.1750000000000007 $422 6.3500000000000005 $185 $424 forward @7 unknown #
point $-1 -1 $-1 3.1750000000000007 8.8899999999999988 -5.4992613140311883 #
point $-1 -1 $-1 6.3499999999999996 8.8899999999999988 -1.7763568394002505e-015 #
model_id-kcp-attrib $-1 -1 $-1 $-1 $191 1 1021487798 1021487798 509870081 8 #
face $425 -1 $-1 $426 $427 $8 $-1 $428 reversed single #
loop $-1 -1 $-1 $-1 $429 $191 #
plane-surface $-1 -1 $-1 -6.3499999999999996 0 0 0.86602540378443871 0 0.50000000000000011 12.699999999999999 0 -21.997045256124739 forward_v I I I I #
coedge $-1 -1 $-1 $430 $431 $432 $433 reversed $192 $-1 #
coedge $-1 -1 $-1 $434 $194 $435 $436 forward $116 $-1 #
coedge $-1 -1 $-1 $194 $434 $195 $312 reversed $116 $-1 #
coedge $-1 -1 $-1 $431 $430 $194 $309 forward $192 $-1 #
edge $437 -1 $-1 $438 0 $439 0.19999999999999998 $308 $440 forward @7 unknown #
coedge $-1 -1 $-1 $441 $195 $442 $443 forward $118 $-1 #
coedge $-1 -1 $-1 $195 $444 $431 $445 forward $118 $-1 #
edge $446 -1 $-1 $439 0 $447 0.25 $195 $448 forward @7 unknown #
attrib_edge_convexity-kcp-attrib $-1 -1 $449 $-1 $196 2 #
ellipse-curve $-1 -1 $-1 0 -5.0799999999999992 0 0 1 0 3.1749999999999998 0 0 1 I I #
convexity-sys-attrib $-1 -1 $-1 $197 $123 #
point $-1 -1 $-1 3.1749999999999998 -5.0799999999999983 0 #
point $-1 -1 $-1 -3.1749999999999998 -5.0799999999999992 0 #
plane-surface $-1 -1 $-1 6.3500000000000005 0 0 -1 0 0 0 0 1 forward_v I I I I #
coedge $-1 -1 $-1 $210 $208 $212 $323 reversed $133 $-1 #
edge $-1 -1 $-1 $223 -5.4992613140311883 $325 5.4992613140311883 $222 $450 forward @7 unknown #
vertex $-1 -1 $-1 $323 $451 #
straight-curve $-1 -1 $-1 -6.3500000000000005 -8.8899999999999988 0 0 0 -1 I I #
edge $-1 -1 $-1 $321 -8.8899999999999988 $325 8.8899999999999988 $319 $452 forward @7 unknown #
straight-curve $-1 -1 $-1 0 -8.8899999999999988 -5.4992613140311883 -1 0 0 I I #
vertex $-1 -1 $-1 $215 $453 #
straight-curve $-1 -1 $-1 0 8.8899999999999988 -5.4992613140311883 1 0 0 I I #
point $-1 -1 $-1 6.3500000000000005 8.8899999999999988 -5.4992613140311883 #
point $-1 -1 $-1 6.3500000000000005 -8.8899999999999988 -5.4992613140311883 #
straight-curve $-1 -1 $-1 -6.3500000000000005 0 5.4992613140311883 0 -1 0 I I #
point $-1 -1 $-1 -6.3500000000000005 8.8899999999999988 5.4992613140311883 #
point $-1 -1 $-1 -6.3500000000000005 -8.8899999999999988 5.4992613140311883 #
straight-curve $-1 -1 $-1 6.3500000000000005 -8.8899999999999988 0 0 0 -1 I I #
straight-curve $-1 -1 $-1 6.3500000000000005 8.8899999999999988 0 0 0 -1 I I #
face $-1 -1 $-1 $253 $352 $21 $-1 $454 forward single #
loop $-1 -1 $-1 $-1 $455 $232 #
plane-surface $-1 -1 $-1 -3.1749999999999994 3.8099999999999996 -5.4992613140311883 -0.86602540378443871 0 -0.50000000000000011 -0.50000000000000011 0 0.86602540378443871 forward_v I I I I #
coedge $-1 -1 $-1 $456 $457 $458 $459 forward $233 $-1 #
coedge $-1 -1 $-1 $460 $235 $457 $461 reversed $152 $-1 #
coedge $-1 -1 $-1 $235 $460 $236 $343 forward $152 $-1 #
coedge $-1 -1 $-1 $238 $458 $235 $341 reversed $245 $-1 #
edge $-1 -1 $-1 $344 -1.5875000000000012 $462 4.762500000000002 $235 $463 forward @7 unknown #
coedge $-1 -1 $-1 $237 $236 $464 $465 reversed $96 $-1 #
edge $-1 -1 $-1 $466 0 $344 12.699999999999999 $339 $467 forward @7 unknown #
vertex $-1 -1 $-1 $343 $468 #
straight-curve $-1 -1 $-1 3.9687500000000013 -8.8900000000000006 4.1244459855233906 0.49999999999999989 0 -0.86602540378443871 I I #
coedge $-1 -1 $-1 $464 $469 $240 $347 forward $470 $-1 #
edge $471 -1 $-1 $353 -3.1749999999999989 $348 3.1750000000000012 $240 $472 forward @7 unknown #
vertex $-1 -1 $-1 $347 $473 #
straight-curve $-1 -1 $-1 3.1750000000000016 3.8099999999999996 5.4992613140311883 0 -1 0 I I #
coedge $-1 -1 $-1 $474 $242 $469 $475 reversed $352 $-1 #
coedge $-1 -1 $-1 $242 $474 $244 $356 forward $352 $-1 #
loop $-1 -1 $-1 $-1 $351 $334 #
vertex $-1 -1 $-1 $475 $476 #
straight-curve $-1 -1 $-1 -3.1749999999999989 3.8099999999999996 5.4992613140311875 0 -1 0 I I #
coedge $-1 -1 $-1 $458 $244 $455 $477 reversed $245 $-1 #
edge $-1 -1 $-1 $478 -1.5875000000000026 $246 4.7625000000000028 $351 $479 forward @7 unknown #
point $-1 -1 $-1 -3.1749999999999989 -8.8899999999999988 5.4992613140311875 #
point $-1 -1 $-1 3.1750000000000016 -8.8899999999999988 5.4992613140311883 #
face $-1 -1 $-1 $-1 $470 $21 $-1 $480 forward single #
point $-1 -1 $-1 3.1750000000000007 3.8100000000000005 -1.7763568394002505e-015 #
plane-surface $-1 -1 $-1 7.9032674829206187e-016 -8.8900000000000006 -1.0547118733938987e-015 -5.8229791118654781e-032 1 3.9766686617617876e-032 0 -3.9766686617617876e-032 1 forward_v I I I I #
face $-1 -1 $-1 $481 $382 $31 $-1 $174 reversed single #
coedge $-1 -1 $-1 $370 $388 $372 $482 forward $256 $-1 #
coedge $-1 -1 $-1 $257 $265 $483 $484 reversed $165 $-1 #
coedge $-1 -1 $-1 $485 $392 $257 $366 reversed $486 $-1 #
edge $-1 -1 $-1 $487 -1.5875000000000021 $271 4.7625000000000002 $257 $488 forward @7 unknown #
coedge $-1 -1 $-1 $259 $258 $387 $489 forward $103 $-1 #
coedge $-1 -1 $-1 $490 $390 $258 $369 reversed $491 $-1 #
edge $-1 -1 $-1 $376 3.1749999999999985 $492 6.3500000000000005 $368 $493 forward @7 unknown #
coedge $-1 -1 $-1 $388 $363 $259 $371 reversed $256 $-1 #
edge $-1 -1 $-1 $494 -6.3500000000000005 $375 -3.1749999999999985 $370 $495 forward @7 unknown #
coedge $-1 -1 $-1 $269 $260 $363 $482 reversed $374 $-1 #
coedge $-1 -1 $-1 $260 $269 $490 $496 reversed $374 $-1 #
loop $-1 -1 $-1 $-1 $373 $497 #
vertex $-1 -1 $-1 $261 $498 #
vertex $-1 -1 $-1 $369 $499 #
straight-curve $-1 -1 $-1 -3.1749999999999989 -4.4449999999999994 5.4992613140311875 0 1 0 I I #
coedge $-1 -1 $-1 $500 $483 $262 $379 forward $501 $-1 #
edge $-1 -1 $-1 $385 -8.8899999999999988 $383 8.8899999999999988 $262 $502 forward @7 unknown #
coedge $-1 -1 $-1 $381 $263 $503 $504 forward $382 $-1 #
coedge $-1 -1 $-1 $263 $380 $500 $505 reversed $382 $-1 #
loop $-1 -1 $-1 $-1 $380 $362 #
vertex $-1 -1 $-1 $505 $506 #
straight-curve $-1 -1 $-1 -6.3500000000000005 8.8899999999999988 0 0 0 -1 I I #
vertex $-1 -1 $-1 $379 $507 #
straight-curve $-1 -1 $-1 -6.3500000000000005 -8.8899999999999988 0 0 0 -1 I I #
coedge $-1 -1 $-1 $268 $267 $367 $489 reversed $270 $-1 #
coedge $-1 -1 $-1 $363 $370 $267 $389 forward $256 $-1 #
edge $-1 -1 $-1 $494 -5.4992613140311883 $271 1.7763568394002505e-015 $267 $386 forward @7 unknown #
coedge $-1 -1 $-1 $368 $490 $268 $391 reversed $491 $-1 #
edge $-1 -1 $-1 $492 -5.4992613140311883 $272 8.8817841970012504e-016 $390 $384 forward @7 unknown #
coedge $-1 -1 $-1 $365 $503 $105 $171 reversed $486 $-1 #
point $-1 -1 $-1 -6.3499999999999996 -8.8899999999999988 -1.7763568394002505e-015 #
point $-1 -1 $-1 -6.3500000000000005 8.8899999999999988 -8.8817841970012504e-016 #
face $-1 -1 $-1 $419 $406 $24 $-1 $104 forward single #
coedge $-1 -1 $-1 $397 $275 $405 $508 reversed $173 $-1 #
coedge $-1 -1 $-1 $275 $396 $276 $400 forward $173 $-1 #
edge $-1 -1 $-1 $188 -4.762500000000002 $407 1.5875000000000017 $275 $509 forward @7 unknown #
coedge $-1 -1 $-1 $277 $276 $510 $511 reversed $107 $-1 #
edge $-1 -1 $-1 $512 -5.4992613140311883 $188 1.7763568394002505e-015 $276 $423 forward @7 unknown #
edge $-1 -1 $-1 $513 -5.4992613140311883 $286 1.7763568394002505e-015 $277 $514 forward @7 unknown #
coedge $-1 -1 $-1 $421 $278 $414 $411 forward $403 $-1 #
loop $-1 -1 $-1 $-1 $278 $515 #
coedge $-1 -1 $-1 $510 $280 $283 $409 forward $406 $-1 #
coedge $-1 -1 $-1 $280 $510 $396 $508 forward $406 $-1 #
loop $-1 -1 $-1 $-1 $280 $395 #
vertex $-1 -1 $-1 $398 $516 #
straight-curve $-1 -1 $-1 3.1750000000000012 -4.4449999999999994 5.4992613140311883 0 -1 0 I I #
edge $-1 -1 $-1 $285 3.1750000000000007 $513 6.3500000000000005 $283 $495 forward @7 unknown #
point $-1 -1 $-1 3.1750000000000007 -8.8899999999999988 5.4992613140311883 #
edge $-1 -1 $-1 $286 1.7763568394002505e-015 $517 5.4992613140311883 $402 $514 forward @7 unknown #
point $-1 -1 $-1 6.3499999999999996 -8.8899999999999988 -1.7763568394002505e-015 #
coedge $-1 -1 $-1 $414 $288 $291 $418 reversed $415 $-1 #
coedge $-1 -1 $-1 $288 $413 $402 $411 reversed $415 $-1 #
loop $-1 -1 $-1 $-1 $288 $518 #
straight-curve $-1 -1 $-1 5.5562500000000012 -8.8899999999999988 -1.3748153285077973 -0.49999999999999983 0 -0.86602540378443882 I I #
coedge $-1 -1 $-1 $291 $290 $421 $519 forward $292 $-1 #
edge $-1 -1 $-1 $517 -6.3500000000000005 $293 -3.1750000000000007 $413 $520 forward @7 unknown #
face $-1 -1 $-1 $518 $292 $24 $-1 $521 reversed single #
point $-1 -1 $-1 3.1750000000000007 -8.8899999999999988 -5.4992613140311883 #
coedge $-1 -1 $-1 $296 $402 $417 $519 reversed $403 $-1 #
vertex $-1 -1 $-1 $519 $522 #
straight-curve $-1 -1 $-1 6.3500000000000005 8.8899999999999988 0 0 0 -1 I I #
straight-curve $-1 -1 $-1 0 8.8899999999999988 -5.4992613140311883 1 0 0 I I #
model_id-kcp-attrib $-1 -1 $-1 $-1 $302 1 1021487798 1021487798 509870081 9 #
face $523 -1 $-1 $524 $525 $8 $-1 $526 reversed single #
loop $-1 -1 $-1 $-1 $527 $302 #
plane-surface $-1 -1 $-1 -3.1749999999999998 0 5.4992613140311901 0.86602540378443871 0 -0.49999999999999994 -12.699999999999999 0 -21.997045256124746 forward_v I I I I #
coedge $-1 -1 $-1 $528 $529 $530 $531 reversed $303 $-1 #
coedge $-1 -1 $-1 $308 $305 $532 $533 forward $192 $-1 #
coedge $-1 -1 $-1 $305 $308 $311 $445 reversed $192 $-1 #
coedge $-1 -1 $-1 $529 $528 $305 $433 forward $303 $-1 #
edge $534 -1 $-1 $535 0 $536 0.19999999999999998 $305 $537 forward @7 unknown #
coedge $-1 -1 $-1 $307 $306 $538 $539 forward $116 $-1 #
coedge $-1 -1 $-1 $532 $540 $306 $436 reversed $541 $-1 #
edge $542 -1 $-1 $438 0 $543 0.25 $435 $544 forward @7 unknown #
attrib_edge_convexity-kcp-attrib $-1 -1 $545 $-1 $309 1 #
vertex $-1 -1 $-1 $533 $546 #
vertex $-1 -1 $-1 $445 $547 #
straight-curve $-1 -1 $-1 3.1749999999999998 0 -5.4992613140311866 0 -25.399999999999999 0 I I #
coedge $-1 -1 $-1 $548 $310 $549 $550 forward $118 $-1 #
coedge $-1 -1 $-1 $538 $551 $310 $443 reversed $552 $-1 #
edge $553 -1 $-1 $447 0 $554 0.25000000000000017 $310 $555 forward @7 unknown #
coedge $-1 -1 $-1 $311 $548 $529 $556 forward $118 $-1 #
edge $557 -1 $-1 $536 0 $439 0.25 $311 $558 forward @7 unknown #
attrib_edge_convexity-kcp-attrib $-1 -1 $559 $-1 $312 1 #
vertex $-1 -1 $-1 $443 $560 #
straight-curve $-1 -1 $-1 3.1749999999999998 -5.0799999999999992 -5.4992613140311866 12.699999999999996 0 21.997045256124746 I I #
convexity-sys-attrib $-1 -1 $-1 $313 $196 #
straight-curve $-1 -1 $-1 -6.3500000000000005 8.8899999999999988 0 0 0 -1 I I #
point $-1 -1 $-1 -6.3500000000000005 -8.8899999999999988 -5.4992613140311883 #
straight-curve $-1 -1 $-1 -6.3500000000000005 0 -5.4992613140311883 0 1 0 I I #
point $-1 -1 $-1 -6.3500000000000005 8.8899999999999988 -5.4992613140311883 #
plane-surface $-1 -1 $-1 -6.3500000000000005 3.8099999999999996 -4.3792595914772164e-015 -0.86602540378443871 0 0.49999999999999983 0.49999999999999983 0 0.86602540378443871 forward_v I I I I #
coedge $-1 -1 $-1 $561 $562 $355 $477 forward $335 $-1 #
coedge $-1 -1 $-1 $563 $337 $562 $564 reversed $233 $-1 #
coedge $-1 -1 $-1 $337 $563 $338 $461 forward $233 $-1 #
coedge $-1 -1 $-1 $340 $355 $337 $459 reversed $245 $-1 #
edge $-1 -1 $-1 $462 -3.1750000000000016 $565 3.1749999999999994 $337 $566 forward @7 unknown #
coedge $-1 -1 $-1 $339 $338 $567 $568 reversed $152 $-1 #
edge $-1 -1 $-1 $569 0 $462 12.699999999999999 $457 $570 forward @7 unknown #
vertex $-1 -1 $-1 $461 $571 #
straight-curve $-1 -1 $-1 5.5562500000000004 -8.8900000000000006 -1.3748153285077971 -0.49999999999999983 0 -0.86602540378443882 I I #
coedge $-1 -1 $-1 $567 $346 $342 $465 forward $470 $-1 #
edge $572 -1 $-1 $348 -1.5875000000000012 $466 4.7625000000000002 $342 $573 forward @7 unknown #
vertex $-1 -1 $-1 $465 $574 #
straight-curve $-1 -1 $-1 6.3500000000000005 3.8099999999999996 6.2044339312005183e-016 0 -1 0 I I #
point $-1 -1 $-1 6.3500000000000005 -8.8899999999999988 6.2044339312005183e-016 #
coedge $-1 -1 $-1 $346 $575 $350 $475 forward $470 $-1 #
loop $-1 -1 $-1 $249 $469 $359 #
convexity-sys-attrib $-1 -1 $-1 $-1 $347 #
straight-curve $-1 -1 $-1 0 3.8099999999999987 5.4992613140311883 1 0 0 I I #
point $-1 -1 $-1 3.1750000000000012 3.8099999999999996 5.4992613140311883 #
coedge $-1 -1 $-1 $351 $350 $561 $576 forward $352 $-1 #
edge $577 -1 $-1 $578 -1.5875000000000026 $353 4.7625000000000028 $350 $579 forward @7 unknown #
point $-1 -1 $-1 -3.1749999999999989 3.8099999999999996 5.4992613140311875 #
edge $-1 -1 $-1 $565 -1.5875000000000017 $478 4.7624999999999984 $455 $580 forward @7 unknown #
vertex $-1 -1 $-1 $576 $581 #
straight-curve $-1 -1 $-1 -5.5562500000000004 -8.8900000000000006 1.3748153285077949 0.49999999999999983 0 0.86602540378443871 I I #
plane-surface $-1 -1 $-1 7.9032674829206187e-016 3.8099999999999996 -1.0547118733938987e-015 -5.8229791118654781e-032 1 3.9766686617617876e-032 0 -3.9766686617617876e-032 1 forward_v I I I I #
face $-1 -1 $-1 $582 $491 $31 $-1 $174 reversed single #
edge $-1 -1 $-1 $271 -1.5874999999999999 $375 4.7625000000000046 $363 $583 forward @7 unknown #
coedge $-1 -1 $-1 $378 $584 $364 $484 forward $501 $-1 #
edge $-1 -1 $-1 $487 3.1749999999999989 $385 6.3500000000000005 $364 $520 forward @7 unknown #
coedge $-1 -1 $-1 $503 $365 $584 $585 reversed $486 $-1 #
loop $-1 -1 $-1 $-1 $503 $586 #
vertex $-1 -1 $-1 $484 $587 #
straight-curve $-1 -1 $-1 -3.96875 -8.8899999999999988 -4.1244459855233906 -0.50000000000000011 0 0.86602540378443871 I I #
edge $-1 -1 $-1 $492 -8.8899999999999988 $494 8.8899999999999988 $387 $588 forward @7 unknown #
coedge $-1 -1 $-1 $390 $368 $373 $496 forward $491 $-1 #
loop $-1 -1 $-1 $-1 $490 $481 #
vertex $-1 -1 $-1 $369 $589 #
straight-curve $-1 -1 $-1 0 8.8899999999999988 5.4992613140311883 -1 0 0 I I #
vertex $-1 -1 $-1 $489 $590 #
straight-curve $-1 -1 $-1 0 -8.8899999999999988 5.4992613140311883 1 0 0 I I #
edge $-1 -1 $-1 $376 -4.7625000000000046 $272 1.5874999999999995 $490 $591 forward @7 unknown #
face $-1 -1 $-1 $586 $374 $31 $-1 $592 reversed single #
point $-1 -1 $-1 -3.1749999999999985 -8.8899999999999988 5.4992613140311883 #
point $-1 -1 $-1 -3.1749999999999985 8.8899999999999988 5.4992613140311883 #
coedge $-1 -1 $-1 $584 $378 $381 $505 forward $501 $-1 #
loop $-1 -1 $-1 $-1 $584 $582 #
straight-curve $-1 -1 $-1 -6.3500000000000005 0 -5.4992613140311883 0 1 0 I I #
coedge $-1 -1 $-1 $392 $485 $380 $504 reversed $486 $-1 #
edge $-1 -1 $-1 $272 -4.7625000000000011 $593 1.5875000000000021 $380 $594 forward @7 unknown #
edge $-1 -1 $-1 $383 -6.3500000000000005 $593 -3.1749999999999989 $381 $424 forward @7 unknown #
point $-1 -1 $-1 -6.3500000000000005 8.8899999999999988 -5.4992613140311883 #
point $-1 -1 $-1 -6.3500000000000005 -8.8899999999999988 -5.4992613140311883 #
edge $-1 -1 $-1 $512 -6.3500000000000005 $407 -3.1750000000000007 $396 $493 forward @7 unknown #
straight-curve $-1 -1 $-1 3.9687500000000013 8.8899999999999988 4.1244459855233906 -0.49999999999999989 0 0.86602540378443871 I I #
coedge $-1 -1 $-1 $405 $404 $399 $511 forward $406 $-1 #
edge $-1 -1 $-1 $513 -8.8899999999999988 $512 8.8899999999999988 $399 $595 forward @7 unknown #
vertex $-1 -1 $-1 $511 $596 #
vertex $-1 -1 $-1 $511 $597 #
straight-curve $-1 -1 $-1 6.3500000000000005 -8.8899999999999988 0 0 0 -1 I I #
face $-1 -1 $-1 $-1 $403 $24 $-1 $108 reversed single #
point $-1 -1 $-1 3.1750000000000007 8.8899999999999988 5.4992613140311883 #
vertex $-1 -1 $-1 $411 $598 #
face $-1 -1 $-1 $515 $415 $24 $-1 $166 reversed single #
edge $-1 -1 $-1 $422 -8.8899999999999988 $517 8.8899999999999988 $421 $599 forward @7 unknown #
straight-curve $-1 -1 $-1 0 -8.8899999999999988 -5.4992613140311883 -1 0 0 I I #
plane-surface $-1 -1 $-1 0 0 -5.4992613140311883 0 0 1 1 0 0 forward_v I I I I #
point $-1 -1 $-1 6.3500000000000005 8.8899999999999988 -5.4992613140311883 #
model_id-kcp-attrib $-1 -1 $-1 $-1 $426 1 1021487798 1021487798 509870081 10 #
face $600 -1 $-1 $601 $552 $8 $-1 $602 reversed single #
loop $-1 -1 $-1 $-1 $603 $426 #
plane-surface $-1 -1 $-1 3.1749999999999998 0 5.4992613140311901 0 0 -1 -25.399999999999999 0 0 forward_v I I I I #
coedge $-1 -1 $-1 $604 $605 $606 $607 reversed $427 $-1 #
coedge $-1 -1 $-1 $432 $429 $608 $609 forward $303 $-1 #
coedge $-1 -1 $-1 $429 $432 $444 $556 reversed $303 $-1 #
coedge $-1 -1 $-1 $605 $604 $429 $531 forward $427 $-1 #
edge $610 -1 $-1 $611 0 $612 0.19999999999999998 $530 $613 forward @7 unknown #
coedge $-1 -1 $-1 $608 $435 $430 $533 reversed $541 $-1 #
edge $614 -1 $-1 $535 0 $438 0.25 $532 $615 forward @7 unknown #
attrib_edge_convexity-kcp-attrib $-1 -1 $616 $-1 $433 1 #
vertex $-1 -1 $-1 $533 $617 #
vertex $-1 -1 $-1 $445 $618 #
straight-curve $-1 -1 $-1 -3.1749999999999989 0 -5.4992613140311866 0 -25.399999999999999 0 I I #
coedge $-1 -1 $-1 $619 $442 $434 $539 reversed $552 $-1 #
edge $620 -1 $-1 $543 0 $447 0.19999999999999998 $434 $621 forward @7 unknown #
coedge $-1 -1 $-1 $435 $622 $619 $623 reversed $541 $-1 #
loop $-1 -1 $-1 $-1 $608 $601 #
attrib_edge_convexity-kcp-attrib $-1 -1 $624 $-1 $436 1 #
vertex $-1 -1 $-1 $436 $625 #
straight-curve $-1 -1 $-1 3.1749999999999998 0 -5.4992613140311866 12.699999999999996 0 21.997045256124746 I I #
convexity-sys-attrib $-1 -1 $-1 $437 $309 #
point $-1 -1 $-1 3.1749999999999998 0 -5.4992613140311866 #
point $-1 -1 $-1 3.1749999999999998 -5.0799999999999992 -5.4992613140311866 #
coedge $-1 -1 $-1 $444 $441 $605 $626 forward $118 $-1 #
coedge $-1 -1 $-1 $603 $606 $441 $550 reversed $525 $-1 #
edge $627 -1 $-1 $554 0 $628 0.25 $441 $629 forward @7 unknown #
coedge $-1 -1 $-1 $442 $619 $603 $630 forward $552 $-1 #
loop $-1 -1 $-1 $-1 $538 $524 #
attrib_edge_convexity-kcp-attrib $-1 -1 $631 $-1 $443 1 #
vertex $-1 -1 $-1 $550 $632 #
straight-curve $-1 -1 $-1 6.3499999999999996 -5.0799999999999992 0 -12.699999999999999 0 21.997045256124746 I I #
edge $633 -1 $-1 $612 0 $536 0.25000000000000006 $444 $634 forward @7 unknown #
attrib_edge_convexity-kcp-attrib $-1 -1 $635 $-1 $445 1 #
straight-curve $-1 -1 $-1 -3.1749999999999998 -5.0799999999999992 -5.4992613140311866 25.399999999999999 0 0 I I #
convexity-sys-attrib $-1 -1 $-1 $446 $312 #
point $-1 -1 $-1 6.3499999999999996 -5.0799999999999992 0 #
coedge $-1 -1 $-1 $636 $455 $474 $576 reversed $335 $-1 #
coedge $-1 -1 $-1 $455 $636 $456 $564 forward $335 $-1 #
coedge $-1 -1 $-1 $457 $456 $637 $638 reversed $233 $-1 #
edge $-1 -1 $-1 $639 0 $565 12.699999999999999 $562 $640 forward @7 unknown #
vertex $-1 -1 $-1 $564 $641 #
straight-curve $-1 -1 $-1 0 -8.8900000000000006 -5.4992613140311883 -1 0 0 I I #
coedge $-1 -1 $-1 $637 $464 $460 $568 forward $470 $-1 #
edge $642 -1 $-1 $466 -1.5875000000000012 $569 4.7625000000000028 $460 $643 forward @7 unknown #
vertex $-1 -1 $-1 $568 $644 #
straight-curve $-1 -1 $-1 3.1750000000000016 3.8099999999999996 -5.4992613140311883 0 -1 0 I I #
point $-1 -1 $-1 3.1750000000000016 -8.8899999999999988 -5.4992613140311883 #
convexity-sys-attrib $-1 -1 $-1 $-1 $465 #
straight-curve $-1 -1 $-1 3.9687500000000013 3.8099999999999987 4.1244459855233906 0.49999999999999989 0 -0.86602540378443871 I I #
point $-1 -1 $-1 6.3500000000000005 3.8099999999999996 6.2044339312005183e-016 #
coedge $-1 -1 $-1 $469 $637 $636 $645 forward $470 $-1 #
edge $-1 -1 $-1 $578 0 $478 12.699999999999999 $474 $646 forward @7 unknown #
convexity-sys-attrib $-1 -1 $-1 $-1 $475 #
vertex $-1 -1 $-1 $475 $647 #
straight-curve $-1 -1 $-1 -5.5562500000000004 3.8099999999999987 1.3748153285077949 0.49999999999999983 0 0.86602540378443871 I I #
straight-curve $-1 -1 $-1 -3.9687499999999996 -8.8900000000000006 -4.1244459855233906 -0.50000000000000011 0 0.86602540378443871 I I #
point $-1 -1 $-1 -6.3500000000000005 -8.8899999999999988 -4.3792595914772164e-015 #
face $-1 -1 $-1 $497 $501 $31 $-1 $521 reversed single #
straight-curve $-1 -1 $-1 -5.5562500000000004 -8.8899999999999988 1.3748153285077949 0.49999999999999983 0 0.86602540378443871 I I #
coedge $-1 -1 $-1 $483 $500 $485 $585 forward $501 $-1 #
edge $-1 -1 $-1 $593 -13.334999999999997 $487 4.4449999999999994 $584 $648 forward @7 unknown #
face $-1 -1 $-1 $-1 $486 $31 $-1 $649 reversed single #
point $-1 -1 $-1 -3.1749999999999989 -8.8899999999999988 -5.4992613140311883 #
straight-curve $-1 -1 $-1 -6.3500000000000005 0 5.4992613140311883 0 -1 0 I I #
point $-1 -1 $-1 -6.3500000000000005 8.8899999999999988 5.4992613140311883 #
point $-1 -1 $-1 -6.3500000000000005 -8.8899999999999988 5.4992613140311883 #
straight-curve $-1 -1 $-1 -5.5562500000000004 8.889999999999997 1.3748153285077949 -0.49999999999999983 0 -0.86602540378443871 I I #
plane-surface $-1 -1 $-1 -6.3499999999999996 -8.8899999999999988 -1.7763568394002505e-015 -0.86602540378443871 0 0.49999999999999983 0 -1 0 forward_v I I I I #
vertex $-1 -1 $-1 $504 $650 #
straight-curve $-1 -1 $-1 -3.96875 8.8899999999999988 -4.1244459855233906 0.50000000000000011 0 -0.86602540378443871 I I #
straight-curve $-1 -1 $-1 6.3500000000000005 0 5.4992613140311883 0 1 0 I I #
point $-1 -1 $-1 6.3500000000000005 8.8899999999999988 5.4992613140311883 #
point $-1 -1 $-1 6.3500000000000005 -8.8899999999999988 5.4992613140311883 #
point $-1 -1 $-1 6.3500000000000005 -8.8899999999999988 -5.4992613140311883 #
straight-curve $-1 -1 $-1 6.3500000000000005 0 -5.4992613140311883 0 -1 0 I I #
model_id-kcp-attrib $-1 -1 $-1 $-1 $524 1 1021487798 1021487798 509870081 11 #
face $651 -1 $-1 $-1 $541 $8 $-1 $652 forward single #
plane-surface $-1 -1 $-1 6.3499999999999996 0 0 -0.86602540378443871 0 -0.49999999999999994 -12.699999999999999 0 21.997045256124746 forward_v I I I I #
coedge $-1 -1 $-1 $653 $549 $551 $630 reversed $525 $-1 #
coedge $-1 -1 $-1 $530 $527 $654 $655 forward $427 $-1 #
coedge $-1 -1 $-1 $527 $530 $548 $626 reversed $427 $-1 #
coedge $-1 -1 $-1 $549 $653 $527 $607 forward $525 $-1 #
edge $-1 -1 $-1 $656 0 $628 0.19999999999999998 $606 $657 forward @7 unknown #
coedge $-1 -1 $-1 $654 $532 $528 $609 reversed $541 $-1 #
edge $658 -1 $-1 $611 0 $535 0.25000000000000006 $608 $659 forward @7 unknown #
attrib_edge_convexity-kcp-attrib $-1 -1 $660 $-1 $531 1 #
vertex $-1 -1 $-1 $655 $661 #
vertex $-1 -1 $-1 $556 $662 #
straight-curve $-1 -1 $-1 -6.3500000000000014 0 1.4099832412739487e-015 0 -25.399999999999999 0 I I #
model_id-kcp-attrib $-1 -1 $663 $-1 $533 1 1021487798 1021487798 509870081 15 #
straight-curve $-1 -1 $-1 -3.1749999999999998 0 -5.4992613140311866 25.399999999999999 0 0 I I #
convexity-sys-attrib $-1 -1 $-1 $534 $433 #
point $-1 -1 $-1 -3.1749999999999998 0 -5.4992613140311866 #
point $-1 -1 $-1 -3.1749999999999998 -5.0799999999999992 -5.4992613140311866 #
coedge $-1 -1 $-1 $551 $538 $540 $623 forward $552 $-1 #
attrib_edge_convexity-kcp-attrib $-1 -1 $664 $-1 $539 1 #
straight-curve $-1 -1 $-1 6.3499999999999988 0 0 0 -25.399999999999999 0 I I #
coedge $-1 -1 $-1 $540 $654 $653 $665 reversed $541 $-1 #
edge $-1 -1 $-1 $543 0 $666 0.25000000000000017 $540 $667 forward @7 unknown #
convexity-sys-attrib $-1 -1 $-1 $542 $436 #
point $-1 -1 $-1 6.3499999999999996 0 0 #
edge $668 -1 $-1 $628 0 $612 0.25000000000000017 $548 $669 forward @7 unknown #
attrib_edge_convexity-kcp-attrib $-1 -1 $670 $-1 $550 1 #
vertex $-1 -1 $-1 $626 $671 #
straight-curve $-1 -1 $-1 3.1749999999999998 -5.0799999999999992 5.4992613140311901 -25.399999999999999 0 0 I I #
edge $-1 -1 $-1 $666 0 $554 0.19999999999999998 $551 $672 forward @7 unknown #
convexity-sys-attrib $-1 -1 $-1 $553 $443 #
point $-1 -1 $-1 3.1749999999999998 -5.0799999999999992 5.4992613140311901 #
attrib_edge_convexity-kcp-attrib $-1 -1 $673 $-1 $556 1 #
straight-curve $-1 -1 $-1 -6.3499999999999996 -5.0799999999999992 0 12.699999999999999 0 -21.997045256124739 I I #
convexity-sys-attrib $-1 -1 $-1 $557 $445 #
coedge $-1 -1 $-1 $562 $561 $575 $645 reversed $335 $-1 #
coedge $-1 -1 $-1 $575 $567 $563 $638 forward $470 $-1 #
edge $674 -1 $-1 $569 -3.1750000000000007 $639 3.1749999999999994 $563 $675 forward @7 unknown #
vertex $-1 -1 $-1 $638 $676 #
straight-curve $-1 -1 $-1 -3.1749999999999994 3.8099999999999996 -5.4992613140311883 0 -1 0 I I #
point $-1 -1 $-1 -3.1749999999999994 -8.8899999999999988 -5.4992613140311883 #
convexity-sys-attrib $-1 -1 $-1 $-1 $568 #
straight-curve $-1 -1 $-1 5.5562500000000004 3.8099999999999987 -1.3748153285077971 -0.49999999999999983 0 -0.86602540378443882 I I #
point $-1 -1 $-1 3.1750000000000007 3.8099999999999996 -5.4992613140311883 #
edge $677 -1 $-1 $639 -1.5875000000000017 $578 4.7624999999999984 $636 $678 forward @7 unknown #
straight-curve $-1 -1 $-1 -6.3500000000000005 3.8099999999999996 -4.3792595914772164e-015 0 -1 0 I I #
point $-1 -1 $-1 -6.3500000000000005 3.8099999999999996 -4.3792595914772164e-015 #
straight-curve $-1 -1 $-1 -3.1749999999999994 -4.4449999999999994 -5.4992613140311883 0 -1 0 I I #
plane-surface $-1 -1 $-1 -3.1749999999999989 -8.8899999999999988 -5.4992613140311883 -0.86602540378443871 0 -0.50000000000000011 0 -1 0 forward_v I I I I #
point $-1 -1 $-1 -3.1749999999999989 8.8899999999999988 -5.4992613140311883 #
model_id-kcp-attrib $-1 -1 $-1 $-1 $601 1 1021487798 1021487798 509870081 12 #
plane-surface $-1 -1 $-1 0 0 0 0 1 0 25.399999999999999 0 0 forward_v I I I I #
coedge $-1 -1 $-1 $606 $603 $622 $665 forward $525 $-1 #
coedge $-1 -1 $-1 $622 $608 $604 $655 reversed $541 $-1 #
edge $-1 -1 $-1 $656 0 $611 0.25000000000000017 $654 $679 forward @7 unknown #
vertex $-1 -1 $-1 $665 $680 #
straight-curve $-1 -1 $-1 -3.1749999999999998 0 5.4992613140311901 0 -25.399999999999999 0 I I #
attrib_edge_convexity-kcp-attrib $-1 -1 $681 $-1 $609 1 #
straight-curve $-1 -1 $-1 -6.3499999999999996 0 0 12.699999999999999 0 -21.997045256124739 I I #
convexity-sys-attrib $-1 -1 $-1 $610 $531 #
point $-1 -1 $-1 -6.3499999999999996 0 0 #
point $-1 -1 $-1 -6.3499999999999996 -5.0799999999999992 0 #
attrib_edge_convexity-kcp-attrib $-1 -1 $682 $614 $533 1 #
convexity-sys-attrib $-1 -1 $-1 $620 $539 #
edge $683 -1 $-1 $666 0 $656 0.25 $622 $684 forward @7 unknown #
vertex $-1 -1 $-1 $623 $685 #
straight-curve $-1 -1 $-1 6.3499999999999996 0 0 -12.699999999999999 0 21.997045256124746 I I #
attrib_edge_convexity-kcp-attrib $-1 -1 $686 $-1 $626 1 #
straight-curve $-1 -1 $-1 -3.1749999999999998 -5.0799999999999992 5.4992613140311901 -12.699999999999999 0 -21.997045256124746 I I #
convexity-sys-attrib $-1 -1 $-1 $627 $550 #
point $-1 -1 $-1 -3.1749999999999998 -5.0799999999999992 5.4992613140311901 #
straight-curve $-1 -1 $-1 3.1749999999999985 0 5.4992613140311883 0 -25.399999999999999 0 I I #
convexity-sys-attrib $-1 -1 $-1 $633 $556 #
convexity-sys-attrib $-1 -1 $-1 $-1 $638 #
straight-curve $-1 -1 $-1 0 3.8099999999999987 -5.4992613140311883 -1 0 0 I I #
point $-1 -1 $-1 -3.1749999999999994 3.8099999999999996 -5.4992613140311883 #
convexity-sys-attrib $-1 -1 $-1 $-1 $645 #
straight-curve $-1 -1 $-1 -3.9687499999999996 3.8099999999999987 -4.1244459855233906 -0.50000000000000011 0 0.86602540378443871 I I #
straight-curve $-1 -1 $-1 -3.1749999999999998 0 5.4992613140311901 -12.699999999999999 0 -21.997045256124746 I I #
point $-1 -1 $-1 -3.1749999999999998 0 5.4992613140311901 #
convexity-sys-attrib $-1 -1 $-1 $658 $609 #
convexity-sys-attrib $-1 -1 $-1 $663 $533 #
model_id-kcp-attrib $-1 -1 $-1 $-1 $665 1 1021487798 1021487798 509870081 14 #
straight-curve $-1 -1 $-1 3.1749999999999998 0 5.4992613140311901 -25.399999999999999 0 0 I I #
point $-1 -1 $-1 3.1749999999999998 0 5.4992613140311901 #
convexity-sys-attrib $-1 -1 $-1 $668 $626 #
End-of-ACIS-data 