700 0 2 0           
24 FBMach with ACIS - 7.0.3 13 ACIS 7.0.3 NT 24 Wed May 15 14:35:20 2002 
1 9.9999999999999995e-007 1e-010 
body $2 -1 $-1 $3 $-1 $4 #
bdycol-kcp $-1 -1 1 3 $5 $6 $7 #
model_id-kcp-attrib $-1 -1 $-1 $-1 $0 1 1021487719 1021487719 1183580161 1 #
lump $-1 -1 $-1 $-1 $8 $0 #
transform $-1 -1 1 0 0 0 1 0 0 0 1 0 0 0 1 rotate no_reflect no_shear #
body $9 -1 $-1 $10 $-1 $11 #
body $12 -1 $-1 $13 $-1 $14 #
body $15 -1 $-1 $16 $-1 $17 #
shell $-1 -1 $-1 $-1 $-1 $18 $-1 $3 #
model_id-kcp-attrib $-1 -1 $-1 $-1 $5 1 1021487719 1021487719 1183580162 1 #
lump $-1 -1 $-1 $-1 $19 $5 #
transform $-1 -1 1 0 0 0 1 0 0 0 1 1.2699999999999996 -2.2204460492503131e-016 0 1 no_rotate no_reflect no_shear #
rgb_color-st-attrib $-1 -1 $20 $-1 $6 0.5 1 1 #
lump $-1 -1 $-1 $-1 $21 $6 #
transform $-1 -1 1 0 0 0 1 0 0 0 1 1.2699999999999996 -2.2204460492503131e-016 0 1 no_rotate no_reflect no_shear #
rgb_color-st-attrib $-1 -1 $22 $-1 $7 1 0.5 1 #
lump $-1 -1 $-1 $-1 $23 $7 #
transform $-1 -1 1 0 0 0 1 0 0 0 1 1.2699999999999996 -2.2204460492503131e-016 0 1 no_rotate no_reflect no_shear #
face $24 -1 $-1 $25 $26 $8 $-1 $27 reversed single #
shell $-1 -1 $-1 $-1 $-1 $28 $-1 $10 #
model_id-kcp-attrib $-1 -1 $-1 $12 $6 1 1021487719 1021487720 1174929411 1 #
shell $-1 -1 $-1 $-1 $-1 $29 $-1 $13 #
model_id-kcp-attrib $-1 -1 $-1 $15 $7 1 1021487719 1021487720 1184759812 1 #
shell $-1 -1 $-1 $-1 $-1 $30 $-1 $16 #
model_id-kcp-attrib $-1 -1 $-1 $-1 $18 1 1021487719 1021487719 1183580161 2 #
face $31 -1 $-1 $32 $33 $8 $-1 $34 forward single #
loop $-1 -1 $-1 $-1 $35 $18 #
plane-surface $-1 -1 $-1 -15.875 0 0 1 0 0 0 0 -25.399999999999999 forward_v I I I I #
face $-1 -1 $-1 $36 $37 $19 $-1 $38 forward single #
face $-1 -1 $-1 $39 $40 $21 $-1 $41 reversed single #
face $-1 -1 $-1 $42 $43 $23 $-1 $44 forward single #
model_id-kcp-attrib $-1 -1 $-1 $-1 $25 1 1021487719 1021487719 1183580161 3 #
face $45 -1 $-1 $46 $47 $8 $-1 $48 forward single #
loop $-1 -1 $-1 $-1 $49 $25 #
cone-surface $-1 -1 $-1 -15.875 0 0 1 0 0 0 0 -1.2699999999999998 1 I I 0 1 1.2699999999999998 forward I I I I #
coedge $-1 -1 $-1 $50 $50 $51 $52 reversed $26 $-1 #
face $-1 -1 $-1 $53 $54 $19 $-1 $55 reversed single #
loop $-1 -1 $-1 $-1 $56 $28 #
plane-surface $-1 -1 $-1 0 0 3.1749999999999998 0 0 1 1 0 0 forward_v I I I I #
face $-1 -1 $-1 $57 $58 $21 $-1 $41 reversed single #
loop $-1 -1 $-1 $-1 $59 $29 #
cone-surface $-1 -1 $-1 -17.145 -2.2204460492503131e-016 -1.7624790515924362e-016 -1 0 0 0 3.1749999999999998 5.6506042249784826e-016 1 I I 0 1 3.1749999999999998 forward I I I I #
face $-1 -1 $-1 $60 $61 $23 $-1 $62 forward single #
loop $-1 -1 $-1 $63 $64 $30 #
cone-surface $-1 -1 $-1 14.605 2.2204460492503131e-016 0 -1 0 0 0 0 -1.2699999999999998 1 I I 0 -1 1.2699999999999998 forward I I I I #
model_id-kcp-attrib $-1 -1 $-1 $-1 $32 1 1021487719 1021487719 1183580161 4 #
face $65 -1 $-1 $66 $67 $8 $-1 $68 reversed single #
loop $-1 -1 $-1 $-1 $69 $32 #
cone-surface $-1 -1 $-1 -15.875 0 0 1 0 0 0 0 -1.2699999999999998 1 I I 0 1 1.2699999999999998 forward I I I I #
coedge $-1 -1 $-1 $51 $70 $71 $72 reversed $33 $-1 #
coedge $-1 -1 $-1 $35 $35 $73 $74 reversed $26 $-1 #
coedge $-1 -1 $-1 $75 $49 $35 $52 forward $33 $-1 #
edge $76 -1 $-1 $77 0 $78 3.1415926535897931 $35 $79 forward @7 unknown #
face $-1 -1 $-1 $80 $81 $19 $-1 $82 reversed single #
loop $-1 -1 $-1 $-1 $83 $36 #
plane-surface $-1 -1 $-1 0 0 -3.1749999999999998 0 0 1 1 0 0 forward_v I I I I #
coedge $-1 -1 $-1 $84 $85 $86 $87 forward $37 $-1 #
face $-1 -1 $-1 $88 $89 $21 $-1 $41 reversed single #
loop $-1 -1 $-1 $-1 $90 $39 #
coedge $-1 -1 $-1 $91 $92 $93 $94 reversed $40 $-1 #
face $-1 -1 $-1 $95 $96 $23 $-1 $97 reversed single #
loop $-1 -1 $-1 $98 $99 $42 #
cone-surface $-1 -1 $-1 14.605 -2.2204460492503131e-016 -1.7624790515924362e-016 -1 0 0 0 3.1749999999999998 5.6506042249784826e-016 1 I I 0 1 3.1749999999999998 forward I I I I #
loop $-1 -1 $-1 $-1 $100 $30 #
coedge $-1 -1 $-1 $64 $64 $101 $102 forward $43 $-1 #
model_id-kcp-attrib $-1 -1 $-1 $-1 $46 1 1021487719 1021487719 1183580161 5 #
face $103 -1 $-1 $104 $105 $8 $-1 $106 forward single #
loop $-1 -1 $-1 $107 $108 $46 #
plane-surface $-1 -1 $-1 15.875 0 0 1 0 0 0 -25.399999999999999 0 forward_v I I I I #
coedge $-1 -1 $-1 $73 $109 $75 $110 reversed $47 $-1 #
coedge $-1 -1 $-1 $49 $75 $111 $112 reversed $33 $-1 #
coedge $-1 -1 $-1 $109 $73 $49 $72 forward $47 $-1 #
edge $-1 -1 $-1 $77 0 $113 1.2499999999999998 $71 $114 forward @7 unknown #
coedge $-1 -1 $-1 $71 $69 $50 $74 forward $47 $-1 #
edge $115 -1 $-1 $78 0 $77 3.1415926535897931 $50 $116 forward @7 unknown #
coedge $-1 -1 $-1 $70 $51 $69 $110 forward $33 $-1 #
attrib_edge_convexity-kcp-attrib $-1 -1 $117 $-1 $52 1 #
vertex $-1 -1 $-1 $74 $118 #
vertex $-1 -1 $-1 $74 $119 #
ellipse-curve $-1 -1 $-1 -15.875 0 0 1 0 0 0 0 1.2699999999999998 1 I I #
face $120 -1 $-1 $121 $122 $19 $-1 $123 reversed single #
loop $-1 -1 $-1 $-1 $124 $53 #
plane-surface $-1 -1 $-1 0 -3.1749999999999998 0 0 1 0 0 0 1 forward_v I I I I #
coedge $-1 -1 $-1 $125 $126 $127 $128 forward $54 $-1 #
coedge $-1 -1 $-1 $129 $56 $130 $131 forward $37 $-1 #
coedge $-1 -1 $-1 $56 $129 $132 $133 forward $37 $-1 #
coedge $-1 -1 $-1 $134 $135 $56 $87 reversed $136 $-1 #
edge $-1 -1 $-1 $137 -3.1749999999999998 $138 3.1749999999999998 $86 $139 forward @7 unknown #
face $-1 -1 $-1 $140 $141 $21 $-1 $41 reversed single #
loop $-1 -1 $-1 $-1 $142 $57 #
coedge $-1 -1 $-1 $143 $144 $145 $146 reversed $58 $-1 #
coedge $-1 -1 $-1 $147 $59 $148 $149 forward $40 $-1 #
coedge $-1 -1 $-1 $59 $147 $150 $151 reversed $40 $-1 #
coedge $-1 -1 $-1 $152 $153 $59 $94 forward $154 $-1 #
edge $-1 -1 $-1 $155 -1.5707963267948963 $156 1.779717866134955e-016 $93 $157 forward @7 unknown #
face $-1 -1 $-1 $-1 $158 $23 $-1 $159 forward single #
loop $-1 -1 $-1 $160 $161 $60 #
plane-surface $-1 -1 $-1 -17.145000000000003 -0.20616883116883106 -2.0167850073953738e-016 1 5.928421083957657e-033 -1.6599579035081427e-031 -1.6599579035081427e-031 0 -1 forward_v I I I I #
loop $-1 -1 $-1 $-1 $162 $42 #
coedge $-1 -1 $-1 $99 $99 $161 $163 forward $61 $-1 #
coedge $-1 -1 $-1 $100 $100 $164 $165 reversed $63 $-1 #
coedge $-1 -1 $-1 $101 $101 $64 $102 reversed $160 $-1 #
edge $-1 -1 $-1 $166 1.7483827159451285e-016 $166 6.2831853071795862 $64 $167 forward @7 unknown #
model_id-kcp-attrib $-1 -1 $-1 $-1 $66 1 1021487719 1021487719 1183580161 6 #
face $168 -1 $-1 $169 $170 $8 $-1 $171 forward single #
loop $-1 -1 $-1 $-1 $172 $66 #
cone-surface $-1 -1 $-1 15.748000000000001 0 0 1 0 0 0 -3.1749999999999998 0 1 I I 0 1 3.1749999999999998 forward I I I I #
loop $-1 -1 $-1 $-1 $111 $46 #
coedge $-1 -1 $-1 $173 $173 $174 $175 forward $67 $-1 #
coedge $-1 -1 $-1 $69 $71 $176 $177 reversed $47 $-1 #
edge $-1 -1 $-1 $78 0 $178 1.2499999999999998 $69 $179 forward @7 unknown #
coedge $-1 -1 $-1 $176 $176 $70 $112 forward $107 $-1 #
edge $180 -1 $-1 $113 0 $178 3.1415926535897936 $70 $181 forward @7 unknown #
vertex $-1 -1 $-1 $177 $182 #
straight-curve $-1 -1 $-1 -15.875 1.5552500693544188e-016 1.2699999999999998 25.399999999999999 0 0 I I #
attrib_edge_convexity-kcp-attrib $-1 -1 $183 $-1 $74 1 #
ellipse-curve $-1 -1 $-1 -15.875 0 0 1 0 0 0 0 -1.2699999999999998 1 I I #
convexity-sys-attrib $-1 -1 $-1 $76 $52 #
point $-1 -1 $-1 -15.875 0 1.2699999999999998 #
point $-1 -1 $-1 -15.875 0 -1.2699999999999998 #
model_id-kcp-attrib $-1 -1 $-1 $-1 $80 1 1021487719 1021487719 1183580162 2 #
face $-1 -1 $-1 $184 $185 $19 $-1 $186 reversed single #
loop $-1 -1 $-1 $-1 $187 $80 #
plane-surface $-1 -1 $-1 -17.145 0 0 1 0 0 0 0 -1 forward_v I I I I #
coedge $-1 -1 $-1 $188 $132 $189 $190 forward $81 $-1 #
coedge $-1 -1 $-1 $191 $83 $188 $192 forward $54 $-1 #
coedge $-1 -1 $-1 $83 $191 $193 $194 forward $54 $-1 #
coedge $-1 -1 $-1 $135 $134 $83 $128 reversed $136 $-1 #
edge $-1 -1 $-1 $195 -3.1749999999999998 $196 3.1749999999999998 $127 $197 forward @7 unknown #
coedge $-1 -1 $-1 $85 $84 $198 $199 forward $37 $-1 #
coedge $-1 -1 $-1 $200 $201 $84 $131 reversed $185 $-1 #
edge $-1 -1 $-1 $138 -17.145 $202 17.145 $130 $203 forward @7 unknown #
coedge $-1 -1 $-1 $124 $204 $85 $133 reversed $81 $-1 #
edge $-1 -1 $-1 $205 -17.145 $137 17.145 $132 $206 forward @7 unknown #
coedge $-1 -1 $-1 $127 $86 $204 $207 forward $136 $-1 #
coedge $-1 -1 $-1 $86 $127 $200 $208 reversed $136 $-1 #
loop $-1 -1 $-1 $-1 $134 $184 #
vertex $-1 -1 $-1 $87 $209 #
vertex $-1 -1 $-1 $87 $210 #
straight-curve $-1 -1 $-1 17.145 0 3.1749999999999998 0 1 0 I I #
face $-1 -1 $-1 $211 $212 $21 $-1 $213 reversed single #
loop $-1 -1 $-1 $-1 $214 $88 #
coedge $-1 -1 $-1 $215 $216 $214 $217 forward $89 $-1 #
coedge $-1 -1 $-1 $218 $90 $219 $220 reversed $58 $-1 #
coedge $-1 -1 $-1 $90 $218 $92 $151 forward $58 $-1 #
coedge $-1 -1 $-1 $221 $222 $90 $146 forward $223 $-1 #
edge $-1 -1 $-1 $224 -1.5707963267948968 $225 -1.779717866134955e-016 $145 $226 forward @7 unknown #
coedge $-1 -1 $-1 $92 $91 $227 $228 reversed $40 $-1 #
coedge $-1 -1 $-1 $216 $215 $229 $149 reversed $89 $-1 #
edge $-1 -1 $-1 $155 -34.289999999999999 $230 0 $229 $231 forward @7 unknown #
coedge $-1 -1 $-1 $232 $233 $234 $151 forward $235 $-1 #
edge $-1 -1 $-1 $156 -34.289999999999999 $225 0 $150 $236 forward @7 unknown #
coedge $-1 -1 $-1 $153 $93 $233 $237 reversed $154 $-1 #
coedge $-1 -1 $-1 $93 $152 $238 $239 reversed $154 $-1 #
loop $-1 -1 $-1 $-1 $93 $240 #
vertex $-1 -1 $-1 $239 $241 #
vertex $-1 -1 $-1 $242 $243 #
ellipse-curve $-1 -1 $-1 17.145 -2.2204460492503131e-016 -1.7624790515924362e-016 -1 0 0 0 3.1749999999999998 5.6506042249784826e-016 1 I I #
loop $-1 -1 $-1 $244 $245 $95 #
plane-surface $-1 -1 $-1 14.604999999999997 -0.20616883116883106 -2.0167850073953738e-016 1 5.928421083957657e-033 -1.6599579035081427e-031 -1.6599579035081427e-031 0 -1 forward_v I I I I #
loop $-1 -1 $-1 $-1 $101 $60 #
coedge $-1 -1 $-1 $161 $161 $99 $163 reversed $96 $-1 #
coedge $-1 -1 $-1 $162 $162 $245 $246 reversed $98 $-1 #
edge $-1 -1 $-1 $247 -3.1415926535897931 $247 3.1415926535897931 $99 $248 forward @7 unknown #
coedge $-1 -1 $-1 $164 $164 $100 $165 forward $244 $-1 #
edge $249 -1 $-1 $250 -3.1415926535897931 $250 3.1415926535897931 $100 $251 forward @7 unknown #
vertex $-1 -1 $-1 $102 $252 #
ellipse-curve $-1 -1 $-1 -17.145 2.2204460492503131e-016 0 -1 0 0 0 0 -1.2699999999999998 1 I I #
model_id-kcp-attrib $-1 -1 $-1 $-1 $104 1 1021487719 1021487719 1183580161 7 #
face $253 -1 $-1 $-1 $254 $8 $-1 $255 forward single #
loop $-1 -1 $-1 $-1 $256 $104 #
plane-surface $-1 -1 $-1 18.414999999999999 0 0 1 0 0 0 -25.399999999999999 0 forward_v I I I I #
coedge $-1 -1 $-1 $257 $258 $259 $260 forward $105 $-1 #
coedge $-1 -1 $-1 $108 $108 $261 $262 reversed $67 $-1 #
coedge $-1 -1 $-1 $258 $257 $108 $175 reversed $105 $-1 #
edge $263 -1 $-1 $264 -1.2246063538223773e-016 $265 3.1415926535897931 $108 $266 forward @7 unknown #
coedge $-1 -1 $-1 $111 $111 $109 $177 forward $107 $-1 #
edge $267 -1 $-1 $178 0 $113 3.1415926535897931 $109 $268 forward @7 unknown #
vertex $-1 -1 $-1 $177 $269 #
straight-curve $-1 -1 $-1 -15.875 0 -1.2699999999999998 25.399999999999999 0 0 I I #
attrib_edge_convexity-kcp-attrib $-1 -1 $270 $-1 $112 2 #
ellipse-curve $-1 -1 $-1 15.875 -2.203098814490545e-016 0 1 1.3142064458012402e-030 4.4408920985006262e-015 -5.6399329650957949e-015 3.7583488838449638e-016 1.2699999999999998 1 I I #
point $-1 -1 $-1 15.874999999999993 1.5552500693544188e-016 1.2699999999999998 #
convexity-sys-attrib $-1 -1 $-1 $115 $74 #
face $271 -1 $-1 $-1 $136 $19 $-1 $272 reversed single #
loop $-1 -1 $-1 $-1 $200 $121 #
plane-surface $-1 -1 $-1 0 3.1749999999999998 0 0 -1 0 0 0 -1 forward_v I I I I #
coedge $-1 -1 $-1 $273 $198 $201 $274 forward $122 $-1 #
coedge $-1 -1 $-1 $204 $124 $125 $192 reversed $81 $-1 #
coedge $-1 -1 $-1 $198 $273 $124 $190 reversed $122 $-1 #
edge $-1 -1 $-1 $205 -3.1749999999999998 $275 3.1749999999999998 $189 $276 forward @7 unknown #
coedge $-1 -1 $-1 $126 $125 $273 $277 forward $54 $-1 #
edge $-1 -1 $-1 $196 -17.145 $275 17.145 $188 $278 forward @7 unknown #
coedge $-1 -1 $-1 $201 $200 $126 $194 reversed $185 $-1 #
edge $-1 -1 $-1 $279 -17.145 $195 17.145 $193 $280 forward @7 unknown #
vertex $-1 -1 $-1 $128 $281 #
vertex $-1 -1 $-1 $207 $282 #
straight-curve $-1 -1 $-1 17.145 0 -3.1749999999999998 0 -1 0 I I #
coedge $-1 -1 $-1 $187 $189 $129 $199 reversed $122 $-1 #
edge $-1 -1 $-1 $202 -3.1749999999999998 $205 3.1749999999999998 $198 $283 forward @7 unknown #
coedge $-1 -1 $-1 $193 $130 $135 $208 forward $185 $-1 #
coedge $-1 -1 $-1 $130 $193 $187 $274 reversed $185 $-1 #
vertex $-1 -1 $-1 $131 $284 #
straight-curve $-1 -1 $-1 0 3.1749999999999998 3.1749999999999998 -1 0 0 I I #
coedge $-1 -1 $-1 $132 $188 $134 $207 reversed $81 $-1 #
vertex $-1 -1 $-1 $199 $285 #
straight-curve $-1 -1 $-1 0 -3.1749999999999998 3.1749999999999998 1 0 0 I I #
edge $-1 -1 $-1 $137 -3.1749999999999998 $196 3.1749999999999998 $134 $286 forward @7 unknown #
edge $-1 -1 $-1 $138 -3.1749999999999998 $195 3.1749999999999998 $135 $287 forward @7 unknown #
point $-1 -1 $-1 17.145 -3.1749999999999998 3.1749999999999998 #
point $-1 -1 $-1 17.145 3.1749999999999998 3.1749999999999998 #
face $-1 -1 $-1 $288 $289 $21 $-1 $290 reversed single #
loop $-1 -1 $-1 $-1 $234 $140 #
plane-surface $-1 -1 $-1 0 3.1749999999999998 0 0 -1 0 0 0 -1 forward_v I I I I #
coedge $-1 -1 $-1 $291 $292 $293 $217 reversed $141 $-1 #
coedge $-1 -1 $-1 $148 $142 $294 $295 reversed $89 $-1 #
coedge $-1 -1 $-1 $142 $148 $296 $297 reversed $89 $-1 #
edge $-1 -1 $-1 $298 -34.289999999999999 $299 0 $293 $300 forward @7 unknown #
coedge $-1 -1 $-1 $144 $143 $301 $302 reversed $58 $-1 #
coedge $-1 -1 $-1 $303 $304 $305 $220 forward $289 $-1 #
edge $-1 -1 $-1 $306 -34.289999999999999 $224 0 $219 $307 forward @7 unknown #
coedge $-1 -1 $-1 $222 $145 $308 $309 forward $223 $-1 #
coedge $-1 -1 $-1 $145 $221 $303 $310 reversed $223 $-1 #
loop $-1 -1 $-1 $-1 $145 $311 #
vertex $-1 -1 $-1 $310 $312 #
vertex $-1 -1 $-1 $309 $313 #
ellipse-curve $-1 -1 $-1 -17.145 -2.2204460492503131e-016 -1.7624790515924362e-016 1 0 0 0 3.1749999999999998 5.6506042249784826e-016 1 I I #
coedge $-1 -1 $-1 $314 $315 $147 $228 forward $316 $-1 #
edge $-1 -1 $-1 $225 -1.779717866134955e-016 $230 1.5707963267948963 $227 $226 forward @7 unknown #
coedge $-1 -1 $-1 $317 $318 $319 $149 forward $320 $-1 #
vertex $-1 -1 $-1 $321 $322 #
straight-curve $-1 -1 $-1 -17.145 -2.2204460492503131e-016 3.1749999999999998 -1 0 0 I I #
coedge $-1 -1 $-1 $323 $150 $315 $324 reversed $235 $-1 #
coedge $-1 -1 $-1 $150 $323 $152 $237 forward $235 $-1 #
coedge $-1 -1 $-1 $325 $308 $144 $151 reversed $212 $-1 #
loop $-1 -1 $-1 $-1 $150 $326 #
straight-curve $-1 -1 $-1 -17.145 3.1749999999999998 -1.7624790515924362e-016 -1 0 0 I I #
edge $-1 -1 $-1 $327 -3.1749999999999998 $156 1.7624790515924362e-016 $152 $328 forward @7 unknown #
coedge $-1 -1 $-1 $329 $319 $153 $239 forward $330 $-1 #
edge $-1 -1 $-1 $155 -2.2204460492503131e-016 $327 3.1749999999999998 $153 $331 forward @7 unknown #
face $-1 -1 $-1 $332 $154 $21 $-1 $333 reversed single #
point $-1 -1 $-1 17.145 -2.2204460492503131e-016 3.1749999999999998 #
edge $-1 -1 $-1 $156 1.7624790515924362e-016 $334 3.1749999999999998 $335 $328 forward @7 unknown #
point $-1 -1 $-1 17.145 3.1749999999999998 -1.7624790515924362e-016 #
loop $-1 -1 $-1 $-1 $164 $95 #
coedge $-1 -1 $-1 $245 $245 $162 $246 forward $158 $-1 #
edge $336 -1 $-1 $337 -3.1415926535897931 $337 3.1415926535897931 $162 $338 forward @7 unknown #
vertex $-1 -1 $-1 $163 $339 #
ellipse-curve $-1 -1 $-1 -17.145 -2.2204460492503131e-016 -1.7624790515924362e-016 1 0 0 0 3.1749999999999998 5.6506042249784826e-016 1 I I #
convexity-sys-attrib $-1 -1 $-1 $-1 $165 #
vertex $-1 -1 $-1 $165 $340 #
ellipse-curve $-1 -1 $-1 14.605 2.2204460492503131e-016 0 -1 0 0 0 0 -1.2699999999999998 1 I I #
point $-1 -1 $-1 -17.145000000000007 0 -1.2699999999999998 #
model_id-kcp-attrib $-1 -1 $-1 $-1 $169 1 1021487719 1021487719 1183580161 8 #
loop $-1 -1 $-1 $-1 $261 $169 #
cone-surface $-1 -1 $-1 15.748000000000001 0 0 1 0 0 0 -3.1749999999999998 0 1 I I 0 1 3.1749999999999998 forward I I I I #
coedge $-1 -1 $-1 $259 $259 $341 $342 forward $170 $-1 #
coedge $-1 -1 $-1 $174 $172 $343 $344 forward $105 $-1 #
coedge $-1 -1 $-1 $172 $174 $345 $346 reversed $105 $-1 #
coedge $-1 -1 $-1 $256 $256 $172 $260 reversed $170 $-1 #
edge $-1 -1 $-1 $347 3.9127579154120494e-032 $348 3.1415926535897931 $259 $349 forward @7 unknown #
coedge $-1 -1 $-1 $343 $345 $173 $262 forward $254 $-1 #
edge $350 -1 $-1 $264 1.2246063538223773e-016 $265 3.1415926535897931 $261 $351 forward @7 unknown #
attrib_edge_convexity-kcp-attrib $-1 -1 $352 $-1 $175 1 #
vertex $-1 -1 $-1 $346 $353 #
vertex $-1 -1 $-1 $344 $354 #
ellipse-curve $-1 -1 $-1 15.875 0 0 -1 0 0 0 3.1749999999999998 0 1 I I #
attrib_edge_convexity-kcp-attrib $-1 -1 $355 $-1 $177 2 #
ellipse-curve $-1 -1 $-1 15.875 2.203098814490545e-016 0 1 -7.7037197775489443e-031 -4.4408920985006262e-015 -5.6399329650957949e-015 -2.203098814490545e-016 -1.2699999999999998 1 I I #
point $-1 -1 $-1 15.874999999999993 0 -1.2699999999999998 #
convexity-sys-attrib $-1 -1 $-1 $180 $112 #
model_id-kcp-attrib $-1 -1 $-1 $-1 $184 1 1021487719 1021487719 1183580162 3 #
plane-surface $-1 -1 $-1 17.145 0 0 -1 0 0 0 0 1 forward_v I I I I #
coedge $-1 -1 $-1 $189 $187 $191 $277 reversed $122 $-1 #
edge $-1 -1 $-1 $202 -3.1749999999999998 $279 3.1749999999999998 $201 $356 forward @7 unknown #
vertex $-1 -1 $-1 $277 $357 #
straight-curve $-1 -1 $-1 -17.145 -3.1749999999999998 0 0 0 -1 I I #
edge $-1 -1 $-1 $275 -3.1749999999999998 $279 3.1749999999999998 $273 $358 forward @7 unknown #
straight-curve $-1 -1 $-1 0 -3.1749999999999998 -3.1749999999999998 -1 0 0 I I #
vertex $-1 -1 $-1 $194 $359 #
straight-curve $-1 -1 $-1 0 3.1749999999999998 -3.1749999999999998 1 0 0 I I #
point $-1 -1 $-1 17.145 3.1749999999999998 -3.1749999999999998 #
point $-1 -1 $-1 17.145 -3.1749999999999998 -3.1749999999999998 #
straight-curve $-1 -1 $-1 -17.145 0 3.1749999999999998 0 -1 0 I I #
point $-1 -1 $-1 -17.145 3.1749999999999998 3.1749999999999998 #
point $-1 -1 $-1 -17.145 -3.1749999999999998 3.1749999999999998 #
straight-curve $-1 -1 $-1 17.145 -3.1749999999999998 0 0 0 -1 I I #
straight-curve $-1 -1 $-1 17.145 3.1749999999999998 0 0 0 -1 I I #
face $-1 -1 $-1 $311 $360 $21 $-1 $361 reversed single #
loop $-1 -1 $-1 $-1 $219 $211 #
plane-surface $-1 -1 $-1 0 0 -3.1749999999999998 0 0 1 1 0 0 forward_v I I I I #
coedge $-1 -1 $-1 $362 $214 $363 $364 reversed $141 $-1 #
coedge $-1 -1 $-1 $214 $362 $365 $366 reversed $141 $-1 #
coedge $-1 -1 $-1 $367 $368 $369 $217 forward $370 $-1 #
coedge $-1 -1 $-1 $371 $372 $215 $295 forward $373 $-1 #
edge $-1 -1 $-1 $230 1.5707963267948963 $299 3.1415926535897931 $294 $226 forward @7 unknown #
coedge $-1 -1 $-1 $374 $375 $216 $297 forward $376 $-1 #
edge $-1 -1 $-1 $298 -3.1415926535897931 $155 -1.5707963267948963 $296 $157 forward @7 unknown #
vertex $-1 -1 $-1 $377 $378 #
vertex $-1 -1 $-1 $379 $380 #
straight-curve $-1 -1 $-1 -17.145 -3.1749999999999998 -1.7624790515924362e-016 -1 0 0 I I #
coedge $-1 -1 $-1 $381 $335 $218 $302 forward $382 $-1 #
edge $-1 -1 $-1 $156 1.779717866134955e-016 $306 1.5707963267948968 $301 $157 forward @7 unknown #
coedge $-1 -1 $-1 $383 $219 $222 $310 forward $289 $-1 #
coedge $-1 -1 $-1 $219 $383 $381 $384 forward $289 $-1 #
coedge $-1 -1 $-1 $385 $386 $362 $220 reversed $387 $-1 #
vertex $-1 -1 $-1 $388 $389 #
straight-curve $-1 -1 $-1 -17.145 -2.2204460492503131e-016 -3.1749999999999998 -1 0 0 I I #
coedge $-1 -1 $-1 $234 $390 $221 $309 reversed $212 $-1 #
edge $-1 -1 $-1 $225 1.7624790515924362e-016 $391 3.1749999999999998 $308 $392 forward @7 unknown #
edge $-1 -1 $-1 $224 -2.2204460492503131e-016 $391 3.1749999999999998 $222 $393 forward @7 unknown #
face $-1 -1 $-1 $394 $223 $21 $-1 $361 reversed single #
point $-1 -1 $-1 -17.145 -2.2204460492503131e-016 -3.1749999999999998 #
point $-1 -1 $-1 -17.145 3.1749999999999998 -1.7624790515924362e-016 #
coedge $-1 -1 $-1 $315 $227 $395 $396 reversed $316 $-1 #
coedge $-1 -1 $-1 $227 $314 $232 $324 forward $316 $-1 #
loop $-1 -1 $-1 $-1 $227 $394 #
coedge $-1 -1 $-1 $397 $229 $372 $321 forward $320 $-1 #
coedge $-1 -1 $-1 $229 $397 $374 $398 forward $320 $-1 #
coedge $-1 -1 $-1 $238 $395 $91 $149 reversed $330 $-1 #
loop $-1 -1 $-1 $-1 $229 $399 #
edge $-1 -1 $-1 $230 2.2204460492503131e-016 $400 3.1749999999999998 $372 $401 forward @7 unknown #
point $-1 -1 $-1 -17.145 -2.2204460492503131e-016 3.1749999999999998 #
coedge $-1 -1 $-1 $233 $232 $329 $402 reversed $235 $-1 #
edge $-1 -1 $-1 $403 -3.1749999999999998 $225 1.7624790515924362e-016 $232 $392 forward @7 unknown #
coedge $-1 -1 $-1 $390 $234 $335 $242 forward $212 $-1 #
face $-1 -1 $-1 $-1 $235 $21 $-1 $213 reversed single #
vertex $-1 -1 $-1 $239 $404 #
straight-curve $-1 -1 $-1 17.145 3.1749999999999998 0 0 0 -1 I I #
coedge $-1 -1 $-1 $395 $238 $323 $402 forward $330 $-1 #
loop $-1 -1 $-1 $-1 $319 $405 #
straight-curve $-1 -1 $-1 17.145 0 3.1749999999999998 0 1 0 I I #
face $-1 -1 $-1 $406 $382 $21 $-1 $333 reversed single #
plane-surface $-1 -1 $-1 17.145 0 0 -1 0 0 0 0 1 forward_v I I I I #
vertex $-1 -1 $-1 $384 $407 #
coedge $-1 -1 $-1 $301 $381 $325 $242 reversed $382 $-1 #
convexity-sys-attrib $-1 -1 $-1 $-1 $246 #
vertex $-1 -1 $-1 $246 $408 #
ellipse-curve $-1 -1 $-1 14.605 -2.2204460492503131e-016 -1.7624790515924362e-016 1 0 0 0 3.1749999999999998 5.6506042249784826e-016 1 I I #
point $-1 -1 $-1 -17.145 -3.1749999999999998 -1.1301208449956967e-015 #
point $-1 -1 $-1 14.604999999999993 3.7756961186047319e-016 1.2699999999999998 #
coedge $-1 -1 $-1 $345 $343 $256 $342 reversed $254 $-1 #
edge $-1 -1 $-1 $347 1.9563789577060247e-032 $348 3.1415926535897931 $256 $409 forward @7 unknown #
coedge $-1 -1 $-1 $341 $261 $257 $344 reversed $254 $-1 #
edge $-1 -1 $-1 $348 0 $265 0.099999999999999978 $343 $410 forward @7 unknown #
coedge $-1 -1 $-1 $261 $341 $258 $346 forward $254 $-1 #
edge $-1 -1 $-1 $347 0 $264 0.099999999999999978 $345 $411 forward @7 unknown #
vertex $-1 -1 $-1 $260 $412 #
vertex $-1 -1 $-1 $260 $413 #
ellipse-curve $-1 -1 $-1 18.414999999999999 -3.5249581031848718e-016 -1.7624790515924359e-016 -1 0 0 0 3.1749999999999998 5.6506042249784836e-016 1 I I #
attrib_edge_convexity-kcp-attrib $-1 -1 $414 $-1 $262 1 #
ellipse-curve $-1 -1 $-1 15.875 0 0 1 0 0 0 3.1749999999999998 0 1 I I #
convexity-sys-attrib $-1 -1 $-1 $263 $175 #
point $-1 -1 $-1 15.875 3.1749999999999998 3.8881251733860477e-016 #
point $-1 -1 $-1 15.875 -3.1749999999999998 0 #
convexity-sys-attrib $-1 -1 $-1 $267 $177 #
straight-curve $-1 -1 $-1 -17.145 3.1749999999999998 0 0 0 -1 I I #
point $-1 -1 $-1 -17.145 -3.1749999999999998 -3.1749999999999998 #
straight-curve $-1 -1 $-1 -17.145 0 -3.1749999999999998 0 1 0 I I #
point $-1 -1 $-1 -17.145 3.1749999999999998 -3.1749999999999998 #
loop $-1 -1 $-1 $-1 $365 $288 #
plane-surface $-1 -1 $-1 -17.145 0 0 1 0 0 0 0 -1 forward_v I I I I #
coedge $-1 -1 $-1 $292 $291 $143 $220 forward $141 $-1 #
coedge $-1 -1 $-1 $415 $416 $291 $364 forward $417 $-1 #
edge $-1 -1 $-1 $306 1.5707963267948968 $298 3.1415926535897931 $363 $157 forward @7 unknown #
coedge $-1 -1 $-1 $418 $419 $292 $366 forward $360 $-1 #
edge $-1 -1 $-1 $299 -3.1415926535897931 $224 -1.5707963267948968 $365 $226 forward @7 unknown #
coedge $-1 -1 $-1 $420 $293 $419 $379 forward $370 $-1 #
coedge $-1 -1 $-1 $293 $420 $415 $377 reversed $370 $-1 #
coedge $-1 -1 $-1 $421 $422 $142 $217 reversed $423 $-1 #
loop $-1 -1 $-1 $-1 $293 $424 #
coedge $-1 -1 $-1 $372 $294 $422 $425 reversed $373 $-1 #
coedge $-1 -1 $-1 $294 $371 $317 $321 reversed $373 $-1 #
loop $-1 -1 $-1 $-1 $294 $426 #
coedge $-1 -1 $-1 $375 $296 $318 $398 reversed $376 $-1 #
coedge $-1 -1 $-1 $296 $374 $421 $427 forward $376 $-1 #
loop $-1 -1 $-1 $-1 $296 $428 #
edge $-1 -1 $-1 $298 1.7624790515924362e-016 $429 3.1749999999999998 $415 $430 forward @7 unknown #
point $-1 -1 $-1 17.145 -3.1749999999999998 -1.7624790515924362e-016 #
edge $-1 -1 $-1 $299 1.7624790515924362e-016 $431 3.1749999999999998 $419 $432 forward @7 unknown #
point $-1 -1 $-1 -17.145 -3.1749999999999998 -1.7624790515924362e-016 #
coedge $-1 -1 $-1 $335 $301 $304 $384 reversed $382 $-1 #
loop $-1 -1 $-1 $-1 $301 $332 #
coedge $-1 -1 $-1 $304 $303 $390 $433 forward $289 $-1 #
edge $-1 -1 $-1 $334 -3.1749999999999998 $306 2.2204460492503131e-016 $381 $434 forward @7 unknown #
coedge $-1 -1 $-1 $435 $305 $416 $388 forward $387 $-1 #
coedge $-1 -1 $-1 $305 $435 $418 $436 forward $387 $-1 #
loop $-1 -1 $-1 $-1 $305 $437 #
edge $-1 -1 $-1 $306 2.2204460492503131e-016 $429 3.1749999999999998 $416 $434 forward @7 unknown #
point $-1 -1 $-1 17.145 -2.2204460492503131e-016 -3.1749999999999998 #
coedge $-1 -1 $-1 $308 $325 $383 $433 reversed $212 $-1 #
vertex $-1 -1 $-1 $433 $438 #
straight-curve $-1 -1 $-1 -17.145 3.1749999999999998 0 0 0 -1 I I #
straight-curve $-1 -1 $-1 -17.145 0 -3.1749999999999998 0 1 0 I I #
face $-1 -1 $-1 $426 $316 $21 $-1 $361 reversed single #
coedge $-1 -1 $-1 $319 $329 $314 $396 forward $330 $-1 #
edge $-1 -1 $-1 $403 -3.1749999999999998 $230 2.2204460492503131e-016 $314 $401 forward @7 unknown #
coedge $-1 -1 $-1 $318 $317 $439 $440 forward $320 $-1 #
edge $-1 -1 $-1 $441 -3.1749999999999998 $155 -2.2204460492503131e-016 $374 $331 forward @7 unknown #
face $-1 -1 $-1 $437 $320 $21 $-1 $442 forward single #
vertex $-1 -1 $-1 $321 $443 #
straight-curve $-1 -1 $-1 -17.145 0 3.1749999999999998 0 -1 0 I I #
edge $-1 -1 $-1 $327 -17.145 $403 17.145 $323 $444 forward @7 unknown #
vertex $-1 -1 $-1 $402 $445 #
point $-1 -1 $-1 17.145 3.1749999999999998 3.1749999999999998 #
face $-1 -1 $-1 $428 $330 $21 $-1 $442 forward single #
face $-1 -1 $-1 $446 $417 $21 $-1 $333 reversed single #
point $-1 -1 $-1 17.145 3.1749999999999998 -3.1749999999999998 #
point $-1 -1 $-1 14.605 -3.1749999999999998 -1.1301208449956967e-015 #
ellipse-curve $-1 -1 $-1 18.414999999999999 0 8.8123952579621795e-017 1 0 0 0 3.1749999999999998 3.0068856475898295e-016 1 I I #
straight-curve $-1 -1 $-1 18.414999999999999 -3.1749999999999998 -7.7762503467720954e-016 -25.399999999999999 0 0 I I #
straight-curve $-1 -1 $-1 18.414999999999999 3.1749999999999998 3.8881251733860477e-016 -25.399999999999999 0 0 I I #
point $-1 -1 $-1 18.414999999999999 3.1749999999999998 3.8881251733860477e-016 #
point $-1 -1 $-1 18.414999999999999 -3.1749999999999998 -7.7762503467720954e-016 #
convexity-sys-attrib $-1 -1 $-1 $350 $262 #
coedge $-1 -1 $-1 $416 $363 $368 $377 forward $417 $-1 #
coedge $-1 -1 $-1 $363 $415 $385 $388 reversed $417 $-1 #
loop $-1 -1 $-1 $-1 $363 $406 #
coedge $-1 -1 $-1 $419 $365 $386 $436 reversed $360 $-1 #
coedge $-1 -1 $-1 $365 $418 $367 $379 reversed $360 $-1 #
coedge $-1 -1 $-1 $368 $367 $435 $447 reversed $370 $-1 #
coedge $-1 -1 $-1 $439 $369 $375 $427 reversed $423 $-1 #
coedge $-1 -1 $-1 $369 $439 $371 $425 forward $423 $-1 #
loop $-1 -1 $-1 $-1 $369 $446 #
face $-1 -1 $-1 $326 $370 $21 $-1 $448 reversed single #
edge $-1 -1 $-1 $400 -3.1749999999999998 $299 1.7624790515924362e-016 $371 $432 forward @7 unknown #
face $-1 -1 $-1 $405 $373 $21 $-1 $361 reversed single #
edge $-1 -1 $-1 $441 -3.1749999999999998 $298 1.7624790515924362e-016 $375 $430 forward @7 unknown #
face $-1 -1 $-1 $240 $376 $21 $-1 $333 reversed single #
vertex $-1 -1 $-1 $377 $449 #
straight-curve $-1 -1 $-1 17.145 -3.1749999999999998 0 0 0 -1 I I #
vertex $-1 -1 $-1 $436 $450 #
straight-curve $-1 -1 $-1 -17.145 -3.1749999999999998 0 0 0 -1 I I #
edge $-1 -1 $-1 $391 -17.145 $334 17.145 $390 $451 forward @7 unknown #
straight-curve $-1 -1 $-1 17.145 0 -3.1749999999999998 0 -1 0 I I #
coedge $-1 -1 $-1 $386 $385 $420 $447 forward $387 $-1 #
edge $-1 -1 $-1 $431 -3.1749999999999998 $224 -2.2204460492503131e-016 $418 $393 forward @7 unknown #
face $-1 -1 $-1 $424 $387 $21 $-1 $290 reversed single #
point $-1 -1 $-1 -17.145 3.1749999999999998 -3.1749999999999998 #
coedge $-1 -1 $-1 $422 $421 $397 $440 reversed $423 $-1 #
edge $-1 -1 $-1 $400 -17.145 $441 17.145 $439 $452 forward @7 unknown #
vertex $-1 -1 $-1 $398 $453 #
plane-surface $-1 -1 $-1 0 0 3.1749999999999998 0 0 1 1 0 0 forward_v I I I I #
point $-1 -1 $-1 -17.145 -3.1749999999999998 3.1749999999999998 #
straight-curve $-1 -1 $-1 0 3.1749999999999998 3.1749999999999998 -1 0 0 I I #
point $-1 -1 $-1 -17.145 3.1749999999999998 3.1749999999999998 #
face $-1 -1 $-1 $399 $423 $21 $-1 $448 reversed single #
edge $-1 -1 $-1 $429 -17.145 $431 17.145 $420 $454 forward @7 unknown #
plane-surface $-1 -1 $-1 0 -3.1749999999999998 0 0 1 0 0 0 1 forward_v I I I I #
point $-1 -1 $-1 17.145 -3.1749999999999998 -3.1749999999999998 #
point $-1 -1 $-1 -17.145 -3.1749999999999998 -3.1749999999999998 #
straight-curve $-1 -1 $-1 0 3.1749999999999998 -3.1749999999999998 1 0 0 I I #
straight-curve $-1 -1 $-1 0 -3.1749999999999998 3.1749999999999998 1 0 0 I I #
point $-1 -1 $-1 17.145 -3.1749999999999998 3.1749999999999998 #
straight-curve $-1 -1 $-1 0 -3.1749999999999998 -3.1749999999999998 -1 0 0 I I #
End-of-ACIS-data 