600 0 1 0           
92 GICL Pro/E ACIS Translator - Source: f:/data5/repository/PTC/V18/process18/hb25-20.prt - 6 0 13 ACIS 6.0.3 NT 24 Thu Apr 04 13:31:01 2002 
1 9.9999999999999995e-007 1e-010 
body $-1 $1 $-1 $2 #
lump $-1 $-1 $3 $0 #
transform $-1 1 0 0 0 1 0 0 0 1 0 0 0 25.399999999999999 no_rotate no_reflect no_shear #
shell $-1 $-1 $-1 $4 $-1 $1 #
face $-1 $5 $6 $3 $-1 $7 reversed single #
face $-1 $8 $9 $3 $-1 $10 forward single #
loop $-1 $-1 $11 $4 #
plane-surface $-1 -0.625 0 0 1 0 0 0 0 -1 forward_v I I I I #
face $-1 $12 $13 $3 $-1 $14 forward single #
loop $-1 $-1 $15 $5 #
cone-surface $-1 -0.625 0 0 1 0 0 0 0 -0.049999999999999996 1 I I 0 1 0.049999999999999996 forward I I I I #
coedge $-1 $16 $16 $17 $18 reversed $6 $-1 #
face $-1 $19 $20 $3 $-1 $21 reversed single #
loop $-1 $-1 $22 $8 #
cone-surface $-1 -0.625 0 0 1 0 0 0 0 -0.049999999999999996 1 I I 0 1 0.049999999999999996 forward I I I I #
coedge $-1 $17 $23 $24 $25 reversed $9 $-1 #
coedge $-1 $11 $11 $26 $27 reversed $6 $-1 #
coedge $-1 $28 $15 $11 $18 forward $9 $-1 #
edge $-1 $29 0 $30 3.1415926535897931 $11 $31 forward 7 unknown #
face $-1 $32 $33 $3 $-1 $34 forward single #
loop $-1 $35 $36 $12 #
plane-surface $-1 0.625 0 0 1 0 0 0 -1 0 forward_v I I I I #
coedge $-1 $26 $37 $28 $38 reversed $13 $-1 #
coedge $-1 $15 $28 $39 $40 reversed $9 $-1 #
coedge $-1 $37 $26 $15 $25 forward $13 $-1 #
edge $-1 $29 0 $41 1.2499999999999998 $24 $42 forward 7 unknown #
coedge $-1 $24 $22 $16 $27 forward $13 $-1 #
edge $-1 $30 0 $29 3.1415926535897931 $16 $43 forward 7 unknown #
coedge $-1 $23 $17 $22 $38 forward $9 $-1 #
vertex $-1 $27 $44 #
vertex $-1 $27 $45 #
ellipse-curve $-1 -0.625 0 0 1 0 0 0 0 0.049999999999999996 1 I I #
face $-1 $46 $47 $3 $-1 $48 forward single #
loop $-1 $-1 $49 $19 #
cone-surface $-1 0.62000000000000011 0 0 1 0 0 0 -0.125 0 1 I I 0 1 0.125 forward I I I I #
loop $-1 $-1 $39 $12 #
coedge $-1 $50 $50 $51 $52 forward $20 $-1 #
coedge $-1 $22 $24 $53 $54 reversed $13 $-1 #
edge $-1 $30 0 $55 1.2499999999999998 $22 $56 forward 7 unknown #
coedge $-1 $53 $53 $23 $40 forward $35 $-1 #
edge $-1 $41 0 $55 3.1415926535897936 $23 $57 forward 7 unknown #
vertex $-1 $54 $58 #
straight-curve $-1 -0.625 6.1230317691118857e-018 0.049999999999999996 1 0 0 I I #
ellipse-curve $-1 -0.625 0 0 1 0 0 0 0 -0.049999999999999996 1 I I #
point $-1 -0.625 0 0.049999999999999996 #
point $-1 -0.625 0 -0.049999999999999996 #
face $-1 $-1 $59 $3 $-1 $60 forward single #
loop $-1 $-1 $61 $32 #
plane-surface $-1 0.72499999999999998 0 0 1 0 0 0 -1 0 forward_v I I I I #
coedge $-1 $62 $63 $64 $65 forward $33 $-1 #
coedge $-1 $36 $36 $66 $67 reversed $20 $-1 #
coedge $-1 $63 $62 $36 $52 reversed $33 $-1 #
edge $-1 $68 -1.2246063538223773e-016 $69 3.1415926535897931 $36 $70 forward 7 unknown #
coedge $-1 $39 $39 $37 $54 forward $35 $-1 #
edge $-1 $55 0 $41 3.1415926535897931 $37 $71 forward 7 unknown #
vertex $-1 $54 $72 #
straight-curve $-1 -0.625 0 -0.049999999999999996 1 0 0 I I #
ellipse-curve $-1 0.625 -8.6736173798840355e-018 0 1 1.3142064458012402e-030 4.4408920985006262e-015 -2.2204460492503131e-016 1.4796649148995921e-017 0.049999999999999996 1 I I #
point $-1 0.62499999999999978 6.1230317691118857e-018 0.049999999999999996 #
loop $-1 $-1 $66 $46 #
cone-surface $-1 0.62000000000000011 0 0 1 0 0 0 -0.125 0 1 I I 0 1 0.125 forward I I I I #
coedge $-1 $64 $64 $73 $74 forward $47 $-1 #
coedge $-1 $51 $49 $75 $76 forward $33 $-1 #
coedge $-1 $49 $51 $77 $78 reversed $33 $-1 #
coedge $-1 $61 $61 $49 $65 reversed $47 $-1 #
edge $-1 $79 0 $80 3.1415926535897931 $64 $81 forward 7 unknown #
coedge $-1 $75 $77 $50 $67 forward $59 $-1 #
edge $-1 $68 1.2246063538223773e-016 $69 3.1415926535897931 $66 $82 forward 7 unknown #
vertex $-1 $78 $83 #
vertex $-1 $76 $84 #
ellipse-curve $-1 0.625 0 0 -1 0 0 0 0.125 0 1 I I #
ellipse-curve $-1 0.625 8.6736173798840355e-018 0 1 -7.7037197775489443e-031 -4.4408920985006262e-015 -2.2204460492503131e-016 -8.6736173798840355e-018 -0.049999999999999996 1 I I #
point $-1 0.62499999999999978 0 -0.049999999999999996 #
coedge $-1 $77 $75 $61 $74 reversed $59 $-1 #
edge $-1 $79 0 $80 3.1415926535897931 $61 $85 forward 7 unknown #
coedge $-1 $73 $66 $62 $76 reversed $59 $-1 #
edge $-1 $80 0 $69 0.099999999999999978 $75 $86 forward 7 unknown #
coedge $-1 $66 $73 $63 $78 forward $59 $-1 #
edge $-1 $79 0 $68 0.099999999999999978 $77 $87 forward 7 unknown #
vertex $-1 $65 $88 #
vertex $-1 $65 $89 #
ellipse-curve $-1 0.72499999999999998 -1.3877787807814457e-017 -6.9388939039072284e-018 -1 0 0 0 0.125 2.2246473326686944e-017 1 I I #
ellipse-curve $-1 0.625 0 0 1 0 0 0 0.125 0 1 I I #
point $-1 0.625 0.125 1.5307579422779716e-017 #
point $-1 0.625 -0.125 0 #
ellipse-curve $-1 0.72499999999999998 0 3.4694469519536142e-018 1 0 0 0 0.125 1.1838132470826102e-017 1 I I #
straight-curve $-1 0.72499999999999998 -0.125 -3.0615158845559431e-017 -1 0 0 I I #
straight-curve $-1 0.72499999999999998 0.125 1.5307579422779716e-017 -1 0 0 I I #
point $-1 0.72499999999999998 0.125 1.5307579422779716e-017 #
point $-1 0.72499999999999998 -0.125 -3.0615158845559431e-017 #
End-of-ACIS-data 