600 0 1 0           
89 GICL ACIS Healer - Source: /gicl/data5/repository/PTC/V18/process18/hb25-10.prt.sat - 6 0 18 ACIS 6.0.3 Solaris 24 Sat Apr 13 21:18:06 2002 
1 9.999999999999999547e-07 1.000000000000000036e-10 
body $-1 $1 $-1 $-1 #
lump $-1 $-1 $2 $0 #
shell $-1 $-1 $-1 $3 $-1 $1 #
face $-1 $4 $5 $2 $-1 $6 reversed single #
face $-1 $7 $8 $2 $-1 $9 forward single #
loop $-1 $-1 $10 $3 #
plane-surface $-1 0 -17.77999999999999758 0 0 1 0 25.39999999999999858 0 0 forward_v I I I I #
face $-1 $11 $12 $2 $-1 $13 forward single #
loop $-1 $-1 $14 $4 #
cone-surface $-1 0 -18.66899999999999693 0 0 1 0 3.174999999999999822 0 0 1 I I 0 1 3.174999999999999822 forward I I I I #
coedge $-1 $15 $15 $14 $16 reversed $5 $-1 #
face $-1 $17 $18 $2 $-1 $19 reversed single #
loop $-1 $-1 $20 $7 #
cone-surface $-1 0 -18.66899999999999693 0 0 1 0 3.174999999999999822 0 0 1 I I 0 1 3.174999999999999822 forward I I I I #
coedge $-1 $21 $22 $10 $16 forward $8 $-1 #
coedge $-1 $10 $10 $23 $24 forward $5 $-1 #
edge $-1 $25 0 $26 3.141592653589793116 $10 $27 forward 7 unknown #
face $-1 $28 $29 $2 $-1 $30 reversed single #
loop $-1 $31 $32 $11 #
plane-surface $-1 0 -5.079999999999999183 0 0 1 0 25.39999999999999858 0 0 forward_v I I I I #
coedge $-1 $33 $34 $35 $36 forward $12 $-1 #
coedge $-1 $37 $14 $33 $38 forward $8 $-1 #
coedge $-1 $14 $37 $34 $39 reversed $8 $-1 #
coedge $-1 $34 $33 $15 $24 reversed $12 $-1 #
edge $-1 $25 0 $26 3.141592653589793116 $15 $40 forward 7 unknown #
vertex $-1 $24 $41 #
vertex $-1 $24 $42 #
ellipse-curve $-1 -1.762479051592435909e-16 -17.77999999999999758 0 0 1 0 3.174999999999999822 0 0 1 I I #
face $-1 $43 $44 $2 $-1 $45 reversed single #
loop $-1 $-1 $46 $17 #
plane-surface $-1 3.174999999999999822 0 -5.499261314031186565 -0.8660254037844388186 0 0.499999999999999889 12.69999999999999929 0 21.99704525612474981 forward_v I I I I #
loop $-1 $-1 $47 $11 #
coedge $-1 $35 $35 $37 $48 forward $18 $-1 #
coedge $-1 $23 $20 $21 $38 reversed $12 $-1 #
coedge $-1 $20 $23 $22 $39 forward $12 $-1 #
coedge $-1 $32 $32 $20 $36 reversed $18 $-1 #
edge $-1 $49 0 $50 3.141592653589793116 $35 $51 forward 7 unknown #
coedge $-1 $22 $21 $32 $48 reversed $8 $-1 #
edge $-1 $26 0 $50 0.5 $21 $52 forward 7 unknown #
edge $-1 $25 0 $49 0.5 $22 $53 forward 7 unknown #
ellipse-curve $-1 -1.762479051592435909e-16 -17.77999999999999758 0 0 -1 0 3.174999999999999822 0 0 1 I I #
point $-1 3.174999999999999822 -17.77999999999999758 0 #
point $-1 -3.174999999999999822 -17.77999999999999758 3.888125173386047696e-16 #
face $-1 $54 $55 $2 $-1 $56 reversed single #
loop $-1 $-1 $57 $28 #
plane-surface $-1 -3.174999999999999822 0 -5.499261314031186565 0 0 1 25.39999999999999858 0 0 forward_v I I I I #
coedge $-1 $58 $59 $60 $61 reversed $29 $-1 #
coedge $-1 $62 $63 $59 $64 forward $31 $-1 #
edge $-1 $49 0 $50 3.141592653589793116 $37 $65 forward 7 unknown #
vertex $-1 $39 $66 #
vertex $-1 $48 $67 #
ellipse-curve $-1 0 -5.079999999999999183 0 0 -1 0 3.174999999999999822 0 0 1 I I #
straight-curve $-1 -3.174999999999999822 -17.77999999999999758 3.888125173386047696e-16 0 25.39999999999999858 0 I I #
straight-curve $-1 3.174999999999999822 -17.77999999999999758 0 0 25.39999999999999858 0 I I #
face $-1 $68 $69 $2 $-1 $70 reversed single #
loop $-1 $-1 $71 $43 #
plane-surface $-1 -6.349999999999999645 0 0 0.8660254037844387076 0 0.500000000000000111 12.69999999999999929 0 -21.99704525612473915 forward_v I I I I #
coedge $-1 $72 $73 $74 $75 reversed $44 $-1 #
coedge $-1 $76 $46 $77 $78 forward $29 $-1 #
coedge $-1 $46 $76 $47 $64 reversed $29 $-1 #
coedge $-1 $73 $72 $46 $61 forward $44 $-1 #
edge $-1 $79 0 $80 0.1999999999999999833 $60 $81 forward 7 unknown #
coedge $-1 $82 $47 $83 $84 forward $31 $-1 #
coedge $-1 $47 $85 $73 $86 forward $31 $-1 #
edge $-1 $80 0 $87 0.25 $47 $88 forward 7 unknown #
ellipse-curve $-1 0 -5.079999999999999183 0 0 1 0 3.174999999999999822 0 0 1 I I #
point $-1 3.174999999999999822 -5.079999999999998295 0 #
point $-1 -3.174999999999999822 -5.079999999999999183 0 #
face $-1 $89 $90 $2 $-1 $91 reversed single #
loop $-1 $-1 $92 $54 #
plane-surface $-1 -3.174999999999999822 0 5.499261314031190118 0.8660254037844387076 0 -0.4999999999999999445 -12.69999999999999929 0 -21.99704525612474626 forward_v I I I I #
coedge $-1 $93 $94 $95 $96 reversed $55 $-1 #
coedge $-1 $60 $57 $97 $98 forward $44 $-1 #
coedge $-1 $57 $60 $63 $86 reversed $44 $-1 #
coedge $-1 $94 $93 $57 $75 forward $55 $-1 #
edge $-1 $99 0 $100 0.1999999999999999833 $57 $101 forward 7 unknown #
coedge $-1 $59 $58 $102 $103 forward $29 $-1 #
coedge $-1 $97 $104 $58 $78 reversed $105 $-1 #
edge $-1 $79 0 $106 0.25 $77 $107 forward 7 unknown #
vertex $-1 $98 $108 #
vertex $-1 $86 $109 #
straight-curve $-1 3.174999999999999822 0 -5.499261314031186565 0 -25.39999999999999858 0 I I #
coedge $-1 $110 $62 $111 $112 forward $31 $-1 #
coedge $-1 $102 $113 $62 $84 reversed $114 $-1 #
edge $-1 $87 0 $115 0.2500000000000001665 $62 $116 forward 7 unknown #
coedge $-1 $63 $110 $94 $117 forward $31 $-1 #
edge $-1 $100 0 $80 0.25 $63 $118 forward 7 unknown #
vertex $-1 $84 $119 #
straight-curve $-1 3.174999999999999822 -5.079999999999999183 -5.499261314031186565 12.69999999999999574 0 21.99704525612474626 I I #
face $-1 $120 $114 $2 $-1 $121 reversed single #
loop $-1 $-1 $122 $68 #
plane-surface $-1 3.174999999999999822 0 5.499261314031190118 0 0 -1 -25.39999999999999858 0 0 forward_v I I I I #
coedge $-1 $123 $124 $125 $126 reversed $69 $-1 #
coedge $-1 $74 $71 $127 $128 forward $55 $-1 #
coedge $-1 $71 $74 $85 $117 reversed $55 $-1 #
coedge $-1 $124 $123 $71 $96 forward $69 $-1 #
edge $-1 $129 0 $130 0.1999999999999999833 $95 $131 forward 7 unknown #
coedge $-1 $127 $77 $72 $98 reversed $105 $-1 #
edge $-1 $99 0 $79 0.25 $97 $132 forward 7 unknown #
vertex $-1 $98 $133 #
vertex $-1 $86 $134 #
straight-curve $-1 -3.174999999999998934 0 -5.499261314031186565 0 -25.39999999999999858 0 I I #
coedge $-1 $135 $83 $76 $103 reversed $114 $-1 #
edge $-1 $106 0 $87 0.1999999999999999833 $76 $136 forward 7 unknown #
coedge $-1 $77 $137 $135 $138 reversed $105 $-1 #
loop $-1 $-1 $127 $120 #
vertex $-1 $78 $139 #
straight-curve $-1 3.174999999999999822 0 -5.499261314031186565 12.69999999999999574 0 21.99704525612474626 I I #
point $-1 3.174999999999999822 0 -5.499261314031186565 #
point $-1 3.174999999999999822 -5.079999999999999183 -5.499261314031186565 #
coedge $-1 $85 $82 $124 $140 forward $31 $-1 #
coedge $-1 $122 $125 $82 $112 reversed $90 $-1 #
edge $-1 $115 0 $141 0.25 $82 $142 forward 7 unknown #
coedge $-1 $83 $135 $122 $143 forward $114 $-1 #
loop $-1 $-1 $102 $89 #
vertex $-1 $112 $144 #
straight-curve $-1 6.349999999999999645 -5.079999999999999183 0 -12.69999999999999929 0 21.99704525612474626 I I #
edge $-1 $130 0 $100 0.2500000000000000555 $85 $145 forward 7 unknown #
straight-curve $-1 -3.174999999999999822 -5.079999999999999183 -5.499261314031186565 25.39999999999999858 0 0 I I #
point $-1 6.349999999999999645 -5.079999999999999183 0 #
face $-1 $-1 $105 $2 $-1 $146 forward single #
plane-surface $-1 6.349999999999999645 0 0 -0.8660254037844387076 0 -0.4999999999999999445 -12.69999999999999929 0 21.99704525612474626 forward_v I I I I #
coedge $-1 $147 $111 $113 $143 reversed $90 $-1 #
coedge $-1 $95 $92 $148 $149 forward $69 $-1 #
coedge $-1 $92 $95 $110 $140 reversed $69 $-1 #
coedge $-1 $111 $147 $92 $126 forward $90 $-1 #
edge $-1 $150 0 $141 0.1999999999999999833 $125 $151 forward 7 unknown #
coedge $-1 $148 $97 $93 $128 reversed $105 $-1 #
edge $-1 $129 0 $99 0.2500000000000000555 $127 $152 forward 7 unknown #
vertex $-1 $149 $153 #
vertex $-1 $117 $154 #
straight-curve $-1 -6.350000000000001421 0 1.409983241273948727e-15 0 -25.39999999999999858 0 I I #
straight-curve $-1 -3.174999999999999822 0 -5.499261314031186565 25.39999999999999858 0 0 I I #
point $-1 -3.174999999999999822 0 -5.499261314031186565 #
point $-1 -3.174999999999999822 -5.079999999999999183 -5.499261314031186565 #
coedge $-1 $113 $102 $104 $138 forward $114 $-1 #
straight-curve $-1 6.349999999999998757 0 0 0 -25.39999999999999858 0 I I #
coedge $-1 $104 $148 $147 $155 reversed $105 $-1 #
edge $-1 $106 0 $156 0.2500000000000001665 $104 $157 forward 7 unknown #
point $-1 6.349999999999999645 0 0 #
edge $-1 $141 0 $130 0.2500000000000001665 $110 $158 forward 7 unknown #
vertex $-1 $140 $159 #
straight-curve $-1 3.174999999999999822 -5.079999999999999183 5.499261314031190118 -25.39999999999999858 0 0 I I #
edge $-1 $156 0 $115 0.1999999999999999833 $113 $160 forward 7 unknown #
point $-1 3.174999999999999822 -5.079999999999999183 5.499261314031190118 #
straight-curve $-1 -6.349999999999999645 -5.079999999999999183 0 12.69999999999999929 0 -21.99704525612473915 I I #
plane-surface $-1 0 0 0 0 1 0 25.39999999999999858 0 0 forward_v I I I I #
coedge $-1 $125 $122 $137 $155 forward $90 $-1 #
coedge $-1 $137 $127 $123 $149 reversed $105 $-1 #
edge $-1 $150 0 $129 0.2500000000000001665 $148 $161 forward 7 unknown #
vertex $-1 $155 $162 #
straight-curve $-1 -3.174999999999999822 0 5.499261314031190118 0 -25.39999999999999858 0 I I #
straight-curve $-1 -6.349999999999999645 0 0 12.69999999999999929 0 -21.99704525612473915 I I #
point $-1 -6.349999999999999645 0 0 #
point $-1 -6.349999999999999645 -5.079999999999999183 0 #
edge $-1 $156 0 $150 0.25 $137 $163 forward 7 unknown #
vertex $-1 $138 $164 #
straight-curve $-1 6.349999999999999645 0 0 -12.69999999999999929 0 21.99704525612474626 I I #
straight-curve $-1 -3.174999999999999822 -5.079999999999999183 5.499261314031190118 -12.69999999999999929 0 -21.99704525612474626 I I #
point $-1 -3.174999999999999822 -5.079999999999999183 5.499261314031190118 #
straight-curve $-1 3.17499999999999849 0 5.499261314031188341 0 -25.39999999999999858 0 I I #
straight-curve $-1 -3.174999999999999822 0 5.499261314031190118 -12.69999999999999929 0 -21.99704525612474626 I I #
point $-1 -3.174999999999999822 0 5.499261314031190118 #
straight-curve $-1 3.174999999999999822 0 5.499261314031190118 -25.39999999999999858 0 0 I I #
point $-1 3.174999999999999822 0 5.499261314031190118 #
End-of-ACIS-data 