700 0 2 0           
24 FBMach with ACIS - 7.0.3 13 ACIS 7.0.3 NT 24 Wed May 15 14:39:02 2002 
1 9.9999999999999995e-007 1e-010 
body $2 -1 $-1 $3 $-1 $4 #
bdycol-kcp $-1 -1 1 3 $5 $6 $7 #
model_id-kcp-attrib $-1 -1 $-1 $-1 $0 1 1021487942 1021487942 2143617025 1 #
lump $-1 -1 $-1 $-1 $8 $0 #
transform $-1 -1 1 0 0 0 1 0 0 0 1 0 0 0 1 rotate no_reflect no_shear #
body $9 -1 $-1 $10 $-1 $11 #
body $12 -1 $-1 $13 $-1 $14 #
body $15 -1 $-1 $16 $-1 $17 #
shell $-1 -1 $-1 $-1 $-1 $18 $-1 $3 #
rgb_color-st-attrib $-1 -1 $19 $-1 $5 0.5 1 1 #
lump $-1 -1 $-1 $-1 $20 $5 #
transform $-1 -1 1 0 0 0 1 0 0 0 1 1.2699999999999996 -2.2204460492503131e-016 0 1 no_rotate no_reflect no_shear #
rgb_color-st-attrib $-1 -1 $21 $-1 $6 1 0.5 1 #
lump $-1 -1 $-1 $-1 $22 $6 #
transform $-1 -1 1 0 0 0 1 0 0 0 1 1.2699999999999996 -2.2204460492503131e-016 0 1 no_rotate no_reflect no_shear #
model_id-kcp-attrib $-1 -1 $-1 $-1 $7 1 1021487942 1021487942 2143617026 1 #
lump $-1 -1 $-1 $-1 $23 $7 #
transform $-1 -1 1 0 0 0 1 0 0 0 1 1.2699999999999996 -2.2204460492503131e-016 0 1 no_rotate no_reflect no_shear #
face $24 -1 $-1 $25 $26 $8 $-1 $27 reversed single #
model_id-kcp-attrib $-1 -1 $-1 $9 $5 1 1021487942 1021487942 2132803587 1 #
shell $-1 -1 $-1 $-1 $-1 $28 $-1 $10 #
model_id-kcp-attrib $-1 -1 $-1 $12 $6 1 1021487942 1021487942 2142633988 1 #
shell $-1 -1 $-1 $-1 $-1 $29 $-1 $13 #
shell $-1 -1 $-1 $-1 $-1 $30 $-1 $16 #
model_id-kcp-attrib $-1 -1 $-1 $-1 $18 1 1021487942 1021487942 2143617025 2 #
face $31 -1 $-1 $32 $33 $8 $-1 $34 forward single #
loop $-1 -1 $-1 $-1 $35 $18 #
plane-surface $-1 -1 $-1 -15.875 0 0 1 0 0 0 0 -25.399999999999999 forward_v I I I I #
face $-1 -1 $-1 $36 $37 $20 $-1 $38 reversed single #
face $-1 -1 $-1 $39 $40 $22 $-1 $41 forward single #
face $-1 -1 $-1 $42 $43 $23 $-1 $44 forward single #
model_id-kcp-attrib $-1 -1 $-1 $-1 $25 1 1021487942 1021487942 2143617025 3 #
face $45 -1 $-1 $46 $47 $8 $-1 $48 forward single #
loop $-1 -1 $-1 $-1 $49 $25 #
cone-surface $-1 -1 $-1 -15.875 0 0 1 0 0 0 0 -1.2699999999999998 1 I I 0 1 1.2699999999999998 forward I I I I #
coedge $-1 -1 $-1 $50 $50 $51 $52 reversed $26 $-1 #
face $-1 -1 $-1 $53 $54 $20 $-1 $38 reversed single #
loop $-1 -1 $-1 $-1 $55 $28 #
cone-surface $-1 -1 $-1 -17.145 -2.2204460492503131e-016 -1.7624790515924362e-016 -1 0 0 0 3.1749999999999998 5.6506042249784826e-016 1 I I 0 1 3.1749999999999998 forward I I I I #
face $-1 -1 $-1 $56 $57 $22 $-1 $58 forward single #
loop $-1 -1 $-1 $59 $60 $29 #
cone-surface $-1 -1 $-1 14.605 2.2204460492503131e-016 0 -1 0 0 0 0 -1.2699999999999998 1 I I 0 -1 1.2699999999999998 forward I I I I #
face $-1 -1 $-1 $61 $62 $23 $-1 $63 reversed single #
loop $-1 -1 $-1 $-1 $64 $30 #
plane-surface $-1 -1 $-1 0 0 3.1749999999999998 0 0 1 1 0 0 forward_v I I I I #
model_id-kcp-attrib $-1 -1 $-1 $-1 $32 1 1021487942 1021487942 2143617025 4 #
face $65 -1 $-1 $66 $67 $8 $-1 $68 reversed single #
loop $-1 -1 $-1 $-1 $69 $32 #
cone-surface $-1 -1 $-1 -15.875 0 0 1 0 0 0 0 -1.2699999999999998 1 I I 0 1 1.2699999999999998 forward I I I I #
coedge $-1 -1 $-1 $51 $70 $71 $72 reversed $33 $-1 #
coedge $-1 -1 $-1 $35 $35 $73 $74 reversed $26 $-1 #
coedge $-1 -1 $-1 $75 $49 $35 $52 forward $33 $-1 #
edge $76 -1 $-1 $77 0 $78 3.1415926535897931 $35 $79 forward @7 unknown #
face $-1 -1 $-1 $80 $81 $20 $-1 $38 reversed single #
loop $-1 -1 $-1 $-1 $82 $36 #
coedge $-1 -1 $-1 $83 $84 $85 $86 reversed $37 $-1 #
face $-1 -1 $-1 $87 $88 $22 $-1 $89 reversed single #
loop $-1 -1 $-1 $90 $91 $39 #
cone-surface $-1 -1 $-1 14.605 -2.2204460492503131e-016 -1.7624790515924362e-016 -1 0 0 0 3.1749999999999998 5.6506042249784826e-016 1 I I 0 1 3.1749999999999998 forward I I I I #
loop $-1 -1 $-1 $-1 $92 $29 #
coedge $-1 -1 $-1 $60 $60 $93 $94 forward $40 $-1 #
face $-1 -1 $-1 $95 $96 $23 $-1 $97 reversed single #
loop $-1 -1 $-1 $-1 $98 $42 #
plane-surface $-1 -1 $-1 0 0 -3.1749999999999998 0 0 1 1 0 0 forward_v I I I I #
coedge $-1 -1 $-1 $99 $100 $101 $102 forward $43 $-1 #
model_id-kcp-attrib $-1 -1 $-1 $-1 $46 1 1021487942 1021487942 2143617025 5 #
face $103 -1 $-1 $104 $105 $8 $-1 $106 forward single #
loop $-1 -1 $-1 $107 $108 $46 #
plane-surface $-1 -1 $-1 15.875 0 0 1 0 0 0 -25.399999999999999 0 forward_v I I I I #
coedge $-1 -1 $-1 $73 $109 $75 $110 reversed $47 $-1 #
coedge $-1 -1 $-1 $49 $75 $111 $112 reversed $33 $-1 #
coedge $-1 -1 $-1 $109 $73 $49 $72 forward $47 $-1 #
edge $-1 -1 $-1 $77 0 $113 1.2499999999999998 $71 $114 forward @7 unknown #
coedge $-1 -1 $-1 $71 $69 $50 $74 forward $47 $-1 #
edge $115 -1 $-1 $78 0 $77 3.1415926535897931 $50 $116 forward @7 unknown #
coedge $-1 -1 $-1 $70 $51 $69 $110 forward $33 $-1 #
attrib_edge_convexity-kcp-attrib $-1 -1 $117 $-1 $52 1 #
vertex $-1 -1 $-1 $74 $118 #
vertex $-1 -1 $-1 $74 $119 #
ellipse-curve $-1 -1 $-1 -15.875 0 0 1 0 0 0 0 1.2699999999999998 1 I I #
face $-1 -1 $-1 $120 $121 $20 $-1 $38 reversed single #
loop $-1 -1 $-1 $-1 $122 $53 #
coedge $-1 -1 $-1 $123 $124 $125 $126 reversed $54 $-1 #
coedge $-1 -1 $-1 $127 $55 $128 $129 forward $37 $-1 #
coedge $-1 -1 $-1 $55 $127 $130 $131 reversed $37 $-1 #
coedge $-1 -1 $-1 $132 $133 $55 $86 forward $134 $-1 #
edge $-1 -1 $-1 $135 -1.5707963267948963 $136 1.779717866134955e-016 $85 $137 forward @7 unknown #
face $-1 -1 $-1 $-1 $138 $22 $-1 $139 forward single #
loop $-1 -1 $-1 $140 $141 $56 #
plane-surface $-1 -1 $-1 -17.145000000000003 -0.20616883116883106 -2.0167850073953738e-016 1 5.928421083957657e-033 -1.6599579035081427e-031 -1.6599579035081427e-031 0 -1 forward_v I I I I #
loop $-1 -1 $-1 $-1 $142 $39 #
coedge $-1 -1 $-1 $91 $91 $141 $143 forward $57 $-1 #
coedge $-1 -1 $-1 $92 $92 $144 $145 reversed $59 $-1 #
coedge $-1 -1 $-1 $93 $93 $60 $94 reversed $140 $-1 #
edge $-1 -1 $-1 $146 1.7483827159451285e-016 $146 6.2831853071795862 $60 $147 forward @7 unknown #
face $148 -1 $-1 $149 $150 $23 $-1 $151 reversed single #
loop $-1 -1 $-1 $-1 $152 $61 #
plane-surface $-1 -1 $-1 0 -3.1749999999999998 0 0 1 0 0 0 1 forward_v I I I I #
coedge $-1 -1 $-1 $153 $154 $155 $156 forward $62 $-1 #
coedge $-1 -1 $-1 $157 $64 $158 $159 forward $43 $-1 #
coedge $-1 -1 $-1 $64 $157 $160 $161 forward $43 $-1 #
coedge $-1 -1 $-1 $162 $163 $64 $102 reversed $164 $-1 #
edge $-1 -1 $-1 $165 -3.1749999999999998 $166 3.1749999999999998 $101 $167 forward @7 unknown #
model_id-kcp-attrib $-1 -1 $-1 $-1 $66 1 1021487942 1021487942 2143617025 6 #
face $168 -1 $-1 $169 $170 $8 $-1 $171 forward single #
loop $-1 -1 $-1 $-1 $172 $66 #
cone-surface $-1 -1 $-1 15.748000000000001 0 0 1 0 0 0 -3.1749999999999998 0 1 I I 0 1 3.1749999999999998 forward I I I I #
loop $-1 -1 $-1 $-1 $111 $46 #
coedge $-1 -1 $-1 $173 $173 $174 $175 forward $67 $-1 #
coedge $-1 -1 $-1 $69 $71 $176 $177 reversed $47 $-1 #
edge $-1 -1 $-1 $78 0 $178 1.2499999999999998 $69 $179 forward @7 unknown #
coedge $-1 -1 $-1 $176 $176 $70 $112 forward $107 $-1 #
edge $180 -1 $-1 $113 0 $178 3.1415926535897936 $70 $181 forward @7 unknown #
vertex $-1 -1 $-1 $177 $182 #
straight-curve $-1 -1 $-1 -15.875 1.5552500693544188e-016 1.2699999999999998 25.399999999999999 0 0 I I #
attrib_edge_convexity-kcp-attrib $-1 -1 $183 $-1 $74 1 #
ellipse-curve $-1 -1 $-1 -15.875 0 0 1 0 0 0 0 -1.2699999999999998 1 I I #
convexity-sys-attrib $-1 -1 $-1 $76 $52 #
point $-1 -1 $-1 -15.875 0 1.2699999999999998 #
point $-1 -1 $-1 -15.875 0 -1.2699999999999998 #
face $-1 -1 $-1 $184 $185 $20 $-1 $186 reversed single #
loop $-1 -1 $-1 $-1 $187 $80 #
coedge $-1 -1 $-1 $188 $189 $187 $190 forward $81 $-1 #
coedge $-1 -1 $-1 $191 $82 $192 $193 reversed $54 $-1 #
coedge $-1 -1 $-1 $82 $191 $84 $131 forward $54 $-1 #
coedge $-1 -1 $-1 $194 $195 $82 $126 forward $196 $-1 #
edge $-1 -1 $-1 $197 -1.5707963267948968 $198 -1.779717866134955e-016 $125 $199 forward @7 unknown #
coedge $-1 -1 $-1 $84 $83 $200 $201 reversed $37 $-1 #
coedge $-1 -1 $-1 $189 $188 $202 $129 reversed $81 $-1 #
edge $-1 -1 $-1 $135 -34.289999999999999 $203 0 $202 $204 forward @7 unknown #
coedge $-1 -1 $-1 $205 $206 $207 $131 forward $208 $-1 #
edge $-1 -1 $-1 $136 -34.289999999999999 $198 0 $130 $209 forward @7 unknown #
coedge $-1 -1 $-1 $133 $85 $206 $210 reversed $134 $-1 #
coedge $-1 -1 $-1 $85 $132 $211 $212 reversed $134 $-1 #
loop $-1 -1 $-1 $-1 $85 $213 #
vertex $-1 -1 $-1 $212 $214 #
vertex $-1 -1 $-1 $215 $216 #
ellipse-curve $-1 -1 $-1 17.145 -2.2204460492503131e-016 -1.7624790515924362e-016 -1 0 0 0 3.1749999999999998 5.6506042249784826e-016 1 I I #
loop $-1 -1 $-1 $217 $218 $87 #
plane-surface $-1 -1 $-1 14.604999999999997 -0.20616883116883106 -2.0167850073953738e-016 1 5.928421083957657e-033 -1.6599579035081427e-031 -1.6599579035081427e-031 0 -1 forward_v I I I I #
loop $-1 -1 $-1 $-1 $93 $56 #
coedge $-1 -1 $-1 $141 $141 $91 $143 reversed $88 $-1 #
coedge $-1 -1 $-1 $142 $142 $218 $219 reversed $90 $-1 #
edge $-1 -1 $-1 $220 -3.1415926535897931 $220 3.1415926535897931 $91 $221 forward @7 unknown #
coedge $-1 -1 $-1 $144 $144 $92 $145 forward $217 $-1 #
edge $222 -1 $-1 $223 -3.1415926535897931 $223 3.1415926535897931 $92 $224 forward @7 unknown #
vertex $-1 -1 $-1 $94 $225 #
ellipse-curve $-1 -1 $-1 -17.145 2.2204460492503131e-016 0 -1 0 0 0 0 -1.2699999999999998 1 I I #
model_id-kcp-attrib $-1 -1 $-1 $-1 $95 1 1021487942 1021487942 2143617026 2 #
face $-1 -1 $-1 $226 $227 $23 $-1 $228 reversed single #
loop $-1 -1 $-1 $-1 $229 $95 #
plane-surface $-1 -1 $-1 -17.145 0 0 1 0 0 0 0 -1 forward_v I I I I #
coedge $-1 -1 $-1 $230 $160 $231 $232 forward $96 $-1 #
coedge $-1 -1 $-1 $233 $98 $230 $234 forward $62 $-1 #
coedge $-1 -1 $-1 $98 $233 $235 $236 forward $62 $-1 #
coedge $-1 -1 $-1 $163 $162 $98 $156 reversed $164 $-1 #
edge $-1 -1 $-1 $237 -3.1749999999999998 $238 3.1749999999999998 $155 $239 forward @7 unknown #
coedge $-1 -1 $-1 $100 $99 $240 $241 forward $43 $-1 #
coedge $-1 -1 $-1 $242 $243 $99 $159 reversed $227 $-1 #
edge $-1 -1 $-1 $166 -17.145 $244 17.145 $158 $245 forward @7 unknown #
coedge $-1 -1 $-1 $152 $246 $100 $161 reversed $96 $-1 #
edge $-1 -1 $-1 $247 -17.145 $165 17.145 $160 $248 forward @7 unknown #
coedge $-1 -1 $-1 $155 $101 $246 $249 forward $164 $-1 #
coedge $-1 -1 $-1 $101 $155 $242 $250 reversed $164 $-1 #
loop $-1 -1 $-1 $-1 $162 $226 #
vertex $-1 -1 $-1 $102 $251 #
vertex $-1 -1 $-1 $102 $252 #
straight-curve $-1 -1 $-1 17.145 0 3.1749999999999998 0 1 0 I I #
model_id-kcp-attrib $-1 -1 $-1 $-1 $104 1 1021487942 1021487942 2143617025 7 #
face $253 -1 $-1 $-1 $254 $8 $-1 $255 forward single #
loop $-1 -1 $-1 $-1 $256 $104 #
plane-surface $-1 -1 $-1 18.414999999999999 0 0 1 0 0 0 -25.399999999999999 0 forward_v I I I I #
coedge $-1 -1 $-1 $257 $258 $259 $260 forward $105 $-1 #
coedge $-1 -1 $-1 $108 $108 $261 $262 reversed $67 $-1 #
coedge $-1 -1 $-1 $258 $257 $108 $175 reversed $105 $-1 #
edge $263 -1 $-1 $264 -1.2246063538223773e-016 $265 3.1415926535897931 $108 $266 forward @7 unknown #
coedge $-1 -1 $-1 $111 $111 $109 $177 forward $107 $-1 #
edge $267 -1 $-1 $178 0 $113 3.1415926535897931 $109 $268 forward @7 unknown #
vertex $-1 -1 $-1 $177 $269 #
straight-curve $-1 -1 $-1 -15.875 0 -1.2699999999999998 25.399999999999999 0 0 I I #
attrib_edge_convexity-kcp-attrib $-1 -1 $270 $-1 $112 2 #
ellipse-curve $-1 -1 $-1 15.875 -2.203098814490545e-016 0 1 1.3142064458012402e-030 4.4408920985006262e-015 -5.6399329650957949e-015 3.7583488838449638e-016 1.2699999999999998 1 I I #
point $-1 -1 $-1 15.874999999999993 1.5552500693544188e-016 1.2699999999999998 #
convexity-sys-attrib $-1 -1 $-1 $115 $74 #
face $-1 -1 $-1 $271 $272 $20 $-1 $273 reversed single #
loop $-1 -1 $-1 $-1 $207 $120 #
plane-surface $-1 -1 $-1 0 3.1749999999999998 0 0 -1 0 0 0 -1 forward_v I I I I #
coedge $-1 -1 $-1 $274 $275 $276 $190 reversed $121 $-1 #
coedge $-1 -1 $-1 $128 $122 $277 $278 reversed $81 $-1 #
coedge $-1 -1 $-1 $122 $128 $279 $280 reversed $81 $-1 #
edge $-1 -1 $-1 $281 -34.289999999999999 $282 0 $276 $283 forward @7 unknown #
coedge $-1 -1 $-1 $124 $123 $284 $285 reversed $54 $-1 #
coedge $-1 -1 $-1 $286 $287 $288 $193 forward $272 $-1 #
edge $-1 -1 $-1 $289 -34.289999999999999 $197 0 $192 $290 forward @7 unknown #
coedge $-1 -1 $-1 $195 $125 $291 $292 forward $196 $-1 #
coedge $-1 -1 $-1 $125 $194 $286 $293 reversed $196 $-1 #
loop $-1 -1 $-1 $-1 $125 $294 #
vertex $-1 -1 $-1 $293 $295 #
vertex $-1 -1 $-1 $292 $296 #
ellipse-curve $-1 -1 $-1 -17.145 -2.2204460492503131e-016 -1.7624790515924362e-016 1 0 0 0 3.1749999999999998 5.6506042249784826e-016 1 I I #
coedge $-1 -1 $-1 $297 $298 $127 $201 forward $299 $-1 #
edge $-1 -1 $-1 $198 -1.779717866134955e-016 $203 1.5707963267948963 $200 $199 forward @7 unknown #
coedge $-1 -1 $-1 $300 $301 $302 $129 forward $303 $-1 #
vertex $-1 -1 $-1 $304 $305 #
straight-curve $-1 -1 $-1 -17.145 -2.2204460492503131e-016 3.1749999999999998 -1 0 0 I I #
coedge $-1 -1 $-1 $306 $130 $298 $307 reversed $208 $-1 #
coedge $-1 -1 $-1 $130 $306 $132 $210 forward $208 $-1 #
coedge $-1 -1 $-1 $308 $291 $124 $131 reversed $185 $-1 #
loop $-1 -1 $-1 $-1 $130 $309 #
straight-curve $-1 -1 $-1 -17.145 3.1749999999999998 -1.7624790515924362e-016 -1 0 0 I I #
edge $-1 -1 $-1 $310 -3.1749999999999998 $136 1.7624790515924362e-016 $132 $311 forward @7 unknown #
coedge $-1 -1 $-1 $312 $302 $133 $212 forward $313 $-1 #
edge $-1 -1 $-1 $135 -2.2204460492503131e-016 $310 3.1749999999999998 $133 $314 forward @7 unknown #
face $-1 -1 $-1 $315 $134 $20 $-1 $316 reversed single #
point $-1 -1 $-1 17.145 -2.2204460492503131e-016 3.1749999999999998 #
edge $-1 -1 $-1 $136 1.7624790515924362e-016 $317 3.1749999999999998 $318 $311 forward @7 unknown #
point $-1 -1 $-1 17.145 3.1749999999999998 -1.7624790515924362e-016 #
loop $-1 -1 $-1 $-1 $144 $87 #
coedge $-1 -1 $-1 $218 $218 $142 $219 forward $138 $-1 #
edge $319 -1 $-1 $320 -3.1415926535897931 $320 3.1415926535897931 $142 $321 forward @7 unknown #
vertex $-1 -1 $-1 $143 $322 #
ellipse-curve $-1 -1 $-1 -17.145 -2.2204460492503131e-016 -1.7624790515924362e-016 1 0 0 0 3.1749999999999998 5.6506042249784826e-016 1 I I #
convexity-sys-attrib $-1 -1 $-1 $-1 $145 #
vertex $-1 -1 $-1 $145 $323 #
ellipse-curve $-1 -1 $-1 14.605 2.2204460492503131e-016 0 -1 0 0 0 0 -1.2699999999999998 1 I I #
point $-1 -1 $-1 -17.145000000000007 0 -1.2699999999999998 #
face $324 -1 $-1 $-1 $164 $23 $-1 $325 reversed single #
loop $-1 -1 $-1 $-1 $242 $149 #
plane-surface $-1 -1 $-1 0 3.1749999999999998 0 0 -1 0 0 0 -1 forward_v I I I I #
coedge $-1 -1 $-1 $326 $240 $243 $327 forward $150 $-1 #
coedge $-1 -1 $-1 $246 $152 $153 $234 reversed $96 $-1 #
coedge $-1 -1 $-1 $240 $326 $152 $232 reversed $150 $-1 #
edge $-1 -1 $-1 $247 -3.1749999999999998 $328 3.1749999999999998 $231 $329 forward @7 unknown #
coedge $-1 -1 $-1 $154 $153 $326 $330 forward $62 $-1 #
edge $-1 -1 $-1 $238 -17.145 $328 17.145 $230 $331 forward @7 unknown #
coedge $-1 -1 $-1 $243 $242 $154 $236 reversed $227 $-1 #
edge $-1 -1 $-1 $332 -17.145 $237 17.145 $235 $333 forward @7 unknown #
vertex $-1 -1 $-1 $156 $334 #
vertex $-1 -1 $-1 $249 $335 #
straight-curve $-1 -1 $-1 17.145 0 -3.1749999999999998 0 -1 0 I I #
coedge $-1 -1 $-1 $229 $231 $157 $241 reversed $150 $-1 #
edge $-1 -1 $-1 $244 -3.1749999999999998 $247 3.1749999999999998 $240 $336 forward @7 unknown #
coedge $-1 -1 $-1 $235 $158 $163 $250 forward $227 $-1 #
coedge $-1 -1 $-1 $158 $235 $229 $327 reversed $227 $-1 #
vertex $-1 -1 $-1 $159 $337 #
straight-curve $-1 -1 $-1 0 3.1749999999999998 3.1749999999999998 -1 0 0 I I #
coedge $-1 -1 $-1 $160 $230 $162 $249 reversed $96 $-1 #
vertex $-1 -1 $-1 $241 $338 #
straight-curve $-1 -1 $-1 0 -3.1749999999999998 3.1749999999999998 1 0 0 I I #
edge $-1 -1 $-1 $165 -3.1749999999999998 $238 3.1749999999999998 $162 $339 forward @7 unknown #
edge $-1 -1 $-1 $166 -3.1749999999999998 $237 3.1749999999999998 $163 $340 forward @7 unknown #
point $-1 -1 $-1 17.145 -3.1749999999999998 3.1749999999999998 #
point $-1 -1 $-1 17.145 3.1749999999999998 3.1749999999999998 #
model_id-kcp-attrib $-1 -1 $-1 $-1 $169 1 1021487942 1021487942 2143617025 8 #
loop $-1 -1 $-1 $-1 $261 $169 #
cone-surface $-1 -1 $-1 15.748000000000001 0 0 1 0 0 0 -3.1749999999999998 0 1 I I 0 1 3.1749999999999998 forward I I I I #
coedge $-1 -1 $-1 $259 $259 $341 $342 forward $170 $-1 #
coedge $-1 -1 $-1 $174 $172 $343 $344 forward $105 $-1 #
coedge $-1 -1 $-1 $172 $174 $345 $346 reversed $105 $-1 #
coedge $-1 -1 $-1 $256 $256 $172 $260 reversed $170 $-1 #
edge $-1 -1 $-1 $347 3.9127579154120494e-032 $348 3.1415926535897931 $259 $349 forward @7 unknown #
coedge $-1 -1 $-1 $343 $345 $173 $262 forward $254 $-1 #
edge $350 -1 $-1 $264 1.2246063538223773e-016 $265 3.1415926535897931 $261 $351 forward @7 unknown #
attrib_edge_convexity-kcp-attrib $-1 -1 $352 $-1 $175 1 #
vertex $-1 -1 $-1 $346 $353 #
vertex $-1 -1 $-1 $344 $354 #
ellipse-curve $-1 -1 $-1 15.875 0 0 -1 0 0 0 3.1749999999999998 0 1 I I #
attrib_edge_convexity-kcp-attrib $-1 -1 $355 $-1 $177 2 #
ellipse-curve $-1 -1 $-1 15.875 2.203098814490545e-016 0 1 -7.7037197775489443e-031 -4.4408920985006262e-015 -5.6399329650957949e-015 -2.203098814490545e-016 -1.2699999999999998 1 I I #
point $-1 -1 $-1 15.874999999999993 0 -1.2699999999999998 #
convexity-sys-attrib $-1 -1 $-1 $180 $112 #
face $-1 -1 $-1 $294 $356 $20 $-1 $357 reversed single #
loop $-1 -1 $-1 $-1 $192 $184 #
plane-surface $-1 -1 $-1 0 0 -3.1749999999999998 0 0 1 1 0 0 forward_v I I I I #
coedge $-1 -1 $-1 $358 $187 $359 $360 reversed $121 $-1 #
coedge $-1 -1 $-1 $187 $358 $361 $362 reversed $121 $-1 #
coedge $-1 -1 $-1 $363 $364 $365 $190 forward $366 $-1 #
coedge $-1 -1 $-1 $367 $368 $188 $278 forward $369 $-1 #
edge $-1 -1 $-1 $203 1.5707963267948963 $282 3.1415926535897931 $277 $199 forward @7 unknown #
coedge $-1 -1 $-1 $370 $371 $189 $280 forward $372 $-1 #
edge $-1 -1 $-1 $281 -3.1415926535897931 $135 -1.5707963267948963 $279 $137 forward @7 unknown #
vertex $-1 -1 $-1 $373 $374 #
vertex $-1 -1 $-1 $375 $376 #
straight-curve $-1 -1 $-1 -17.145 -3.1749999999999998 -1.7624790515924362e-016 -1 0 0 I I #
coedge $-1 -1 $-1 $377 $318 $191 $285 forward $378 $-1 #
edge $-1 -1 $-1 $136 1.779717866134955e-016 $289 1.5707963267948968 $284 $137 forward @7 unknown #
coedge $-1 -1 $-1 $379 $192 $195 $293 forward $272 $-1 #
coedge $-1 -1 $-1 $192 $379 $377 $380 forward $272 $-1 #
coedge $-1 -1 $-1 $381 $382 $358 $193 reversed $383 $-1 #
vertex $-1 -1 $-1 $384 $385 #
straight-curve $-1 -1 $-1 -17.145 -2.2204460492503131e-016 -3.1749999999999998 -1 0 0 I I #
coedge $-1 -1 $-1 $207 $386 $194 $292 reversed $185 $-1 #
edge $-1 -1 $-1 $198 1.7624790515924362e-016 $387 3.1749999999999998 $291 $388 forward @7 unknown #
edge $-1 -1 $-1 $197 -2.2204460492503131e-016 $387 3.1749999999999998 $195 $389 forward @7 unknown #
face $-1 -1 $-1 $390 $196 $20 $-1 $357 reversed single #
point $-1 -1 $-1 -17.145 -2.2204460492503131e-016 -3.1749999999999998 #
point $-1 -1 $-1 -17.145 3.1749999999999998 -1.7624790515924362e-016 #
coedge $-1 -1 $-1 $298 $200 $391 $392 reversed $299 $-1 #
coedge $-1 -1 $-1 $200 $297 $205 $307 forward $299 $-1 #
loop $-1 -1 $-1 $-1 $200 $390 #
coedge $-1 -1 $-1 $393 $202 $368 $304 forward $303 $-1 #
coedge $-1 -1 $-1 $202 $393 $370 $394 forward $303 $-1 #
coedge $-1 -1 $-1 $211 $391 $83 $129 reversed $313 $-1 #
loop $-1 -1 $-1 $-1 $202 $395 #
edge $-1 -1 $-1 $203 2.2204460492503131e-016 $396 3.1749999999999998 $368 $397 forward @7 unknown #
point $-1 -1 $-1 -17.145 -2.2204460492503131e-016 3.1749999999999998 #
coedge $-1 -1 $-1 $206 $205 $312 $398 reversed $208 $-1 #
edge $-1 -1 $-1 $399 -3.1749999999999998 $198 1.7624790515924362e-016 $205 $388 forward @7 unknown #
coedge $-1 -1 $-1 $386 $207 $318 $215 forward $185 $-1 #
face $-1 -1 $-1 $-1 $208 $20 $-1 $186 reversed single #
vertex $-1 -1 $-1 $212 $400 #
straight-curve $-1 -1 $-1 17.145 3.1749999999999998 0 0 0 -1 I I #
coedge $-1 -1 $-1 $391 $211 $306 $398 forward $313 $-1 #
loop $-1 -1 $-1 $-1 $302 $401 #
straight-curve $-1 -1 $-1 17.145 0 3.1749999999999998 0 1 0 I I #
face $-1 -1 $-1 $402 $378 $20 $-1 $316 reversed single #
plane-surface $-1 -1 $-1 17.145 0 0 -1 0 0 0 0 1 forward_v I I I I #
vertex $-1 -1 $-1 $380 $403 #
coedge $-1 -1 $-1 $284 $377 $308 $215 reversed $378 $-1 #
convexity-sys-attrib $-1 -1 $-1 $-1 $219 #
vertex $-1 -1 $-1 $219 $404 #
ellipse-curve $-1 -1 $-1 14.605 -2.2204460492503131e-016 -1.7624790515924362e-016 1 0 0 0 3.1749999999999998 5.6506042249784826e-016 1 I I #
point $-1 -1 $-1 -17.145 -3.1749999999999998 -1.1301208449956967e-015 #
point $-1 -1 $-1 14.604999999999993 3.7756961186047319e-016 1.2699999999999998 #
model_id-kcp-attrib $-1 -1 $-1 $-1 $226 1 1021487942 1021487942 2143617026 3 #
plane-surface $-1 -1 $-1 17.145 0 0 -1 0 0 0 0 1 forward_v I I I I #
coedge $-1 -1 $-1 $231 $229 $233 $330 reversed $150 $-1 #
edge $-1 -1 $-1 $244 -3.1749999999999998 $332 3.1749999999999998 $243 $405 forward @7 unknown #
vertex $-1 -1 $-1 $330 $406 #
straight-curve $-1 -1 $-1 -17.145 -3.1749999999999998 0 0 0 -1 I I #
edge $-1 -1 $-1 $328 -3.1749999999999998 $332 3.1749999999999998 $326 $407 forward @7 unknown #
straight-curve $-1 -1 $-1 0 -3.1749999999999998 -3.1749999999999998 -1 0 0 I I #
vertex $-1 -1 $-1 $236 $408 #
straight-curve $-1 -1 $-1 0 3.1749999999999998 -3.1749999999999998 1 0 0 I I #
point $-1 -1 $-1 17.145 3.1749999999999998 -3.1749999999999998 #
point $-1 -1 $-1 17.145 -3.1749999999999998 -3.1749999999999998 #
straight-curve $-1 -1 $-1 -17.145 0 3.1749999999999998 0 -1 0 I I #
point $-1 -1 $-1 -17.145 3.1749999999999998 3.1749999999999998 #
point $-1 -1 $-1 -17.145 -3.1749999999999998 3.1749999999999998 #
straight-curve $-1 -1 $-1 17.145 -3.1749999999999998 0 0 0 -1 I I #
straight-curve $-1 -1 $-1 17.145 3.1749999999999998 0 0 0 -1 I I #
coedge $-1 -1 $-1 $345 $343 $256 $342 reversed $254 $-1 #
edge $-1 -1 $-1 $347 1.9563789577060247e-032 $348 3.1415926535897931 $256 $409 forward @7 unknown #
coedge $-1 -1 $-1 $341 $261 $257 $344 reversed $254 $-1 #
edge $-1 -1 $-1 $348 0 $265 0.099999999999999978 $343 $410 forward @7 unknown #
coedge $-1 -1 $-1 $261 $341 $258 $346 forward $254 $-1 #
edge $-1 -1 $-1 $347 0 $264 0.099999999999999978 $345 $411 forward @7 unknown #
vertex $-1 -1 $-1 $260 $412 #
vertex $-1 -1 $-1 $260 $413 #
ellipse-curve $-1 -1 $-1 18.414999999999999 -3.5249581031848718e-016 -1.7624790515924359e-016 -1 0 0 0 3.1749999999999998 5.6506042249784836e-016 1 I I #
attrib_edge_convexity-kcp-attrib $-1 -1 $414 $-1 $262 1 #
ellipse-curve $-1 -1 $-1 15.875 0 0 1 0 0 0 3.1749999999999998 0 1 I I #
convexity-sys-attrib $-1 -1 $-1 $263 $175 #
point $-1 -1 $-1 15.875 3.1749999999999998 3.8881251733860477e-016 #
point $-1 -1 $-1 15.875 -3.1749999999999998 0 #
convexity-sys-attrib $-1 -1 $-1 $267 $177 #
loop $-1 -1 $-1 $-1 $361 $271 #
plane-surface $-1 -1 $-1 -17.145 0 0 1 0 0 0 0 -1 forward_v I I I I #
coedge $-1 -1 $-1 $275 $274 $123 $193 forward $121 $-1 #
coedge $-1 -1 $-1 $415 $416 $274 $360 forward $417 $-1 #
edge $-1 -1 $-1 $289 1.5707963267948968 $281 3.1415926535897931 $359 $137 forward @7 unknown #
coedge $-1 -1 $-1 $418 $419 $275 $362 forward $356 $-1 #
edge $-1 -1 $-1 $282 -3.1415926535897931 $197 -1.5707963267948968 $361 $199 forward @7 unknown #
coedge $-1 -1 $-1 $420 $276 $419 $375 forward $366 $-1 #
coedge $-1 -1 $-1 $276 $420 $415 $373 reversed $366 $-1 #
coedge $-1 -1 $-1 $421 $422 $122 $190 reversed $423 $-1 #
loop $-1 -1 $-1 $-1 $276 $424 #
coedge $-1 -1 $-1 $368 $277 $422 $425 reversed $369 $-1 #
coedge $-1 -1 $-1 $277 $367 $300 $304 reversed $369 $-1 #
loop $-1 -1 $-1 $-1 $277 $426 #
coedge $-1 -1 $-1 $371 $279 $301 $394 reversed $372 $-1 #
coedge $-1 -1 $-1 $279 $370 $421 $427 forward $372 $-1 #
loop $-1 -1 $-1 $-1 $279 $428 #
edge $-1 -1 $-1 $281 1.7624790515924362e-016 $429 3.1749999999999998 $415 $430 forward @7 unknown #
point $-1 -1 $-1 17.145 -3.1749999999999998 -1.7624790515924362e-016 #
edge $-1 -1 $-1 $282 1.7624790515924362e-016 $431 3.1749999999999998 $419 $432 forward @7 unknown #
point $-1 -1 $-1 -17.145 -3.1749999999999998 -1.7624790515924362e-016 #
coedge $-1 -1 $-1 $318 $284 $287 $380 reversed $378 $-1 #
loop $-1 -1 $-1 $-1 $284 $315 #
coedge $-1 -1 $-1 $287 $286 $386 $433 forward $272 $-1 #
edge $-1 -1 $-1 $317 -3.1749999999999998 $289 2.2204460492503131e-016 $377 $434 forward @7 unknown #
coedge $-1 -1 $-1 $435 $288 $416 $384 forward $383 $-1 #
coedge $-1 -1 $-1 $288 $435 $418 $436 forward $383 $-1 #
loop $-1 -1 $-1 $-1 $288 $437 #
edge $-1 -1 $-1 $289 2.2204460492503131e-016 $429 3.1749999999999998 $416 $434 forward @7 unknown #
point $-1 -1 $-1 17.145 -2.2204460492503131e-016 -3.1749999999999998 #
coedge $-1 -1 $-1 $291 $308 $379 $433 reversed $185 $-1 #
vertex $-1 -1 $-1 $433 $438 #
straight-curve $-1 -1 $-1 -17.145 3.1749999999999998 0 0 0 -1 I I #
straight-curve $-1 -1 $-1 -17.145 0 -3.1749999999999998 0 1 0 I I #
face $-1 -1 $-1 $426 $299 $20 $-1 $357 reversed single #
coedge $-1 -1 $-1 $302 $312 $297 $392 forward $313 $-1 #
edge $-1 -1 $-1 $399 -3.1749999999999998 $203 2.2204460492503131e-016 $297 $397 forward @7 unknown #
coedge $-1 -1 $-1 $301 $300 $439 $440 forward $303 $-1 #
edge $-1 -1 $-1 $441 -3.1749999999999998 $135 -2.2204460492503131e-016 $370 $314 forward @7 unknown #
face $-1 -1 $-1 $437 $303 $20 $-1 $442 forward single #
vertex $-1 -1 $-1 $304 $443 #
straight-curve $-1 -1 $-1 -17.145 0 3.1749999999999998 0 -1 0 I I #
edge $-1 -1 $-1 $310 -17.145 $399 17.145 $306 $444 forward @7 unknown #
vertex $-1 -1 $-1 $398 $445 #
point $-1 -1 $-1 17.145 3.1749999999999998 3.1749999999999998 #
face $-1 -1 $-1 $428 $313 $20 $-1 $442 forward single #
face $-1 -1 $-1 $446 $417 $20 $-1 $316 reversed single #
point $-1 -1 $-1 17.145 3.1749999999999998 -3.1749999999999998 #
point $-1 -1 $-1 14.605 -3.1749999999999998 -1.1301208449956967e-015 #
straight-curve $-1 -1 $-1 -17.145 3.1749999999999998 0 0 0 -1 I I #
point $-1 -1 $-1 -17.145 -3.1749999999999998 -3.1749999999999998 #
straight-curve $-1 -1 $-1 -17.145 0 -3.1749999999999998 0 1 0 I I #
point $-1 -1 $-1 -17.145 3.1749999999999998 -3.1749999999999998 #
ellipse-curve $-1 -1 $-1 18.414999999999999 0 8.8123952579621795e-017 1 0 0 0 3.1749999999999998 3.0068856475898295e-016 1 I I #
straight-curve $-1 -1 $-1 18.414999999999999 -3.1749999999999998 -7.7762503467720954e-016 -25.399999999999999 0 0 I I #
straight-curve $-1 -1 $-1 18.414999999999999 3.1749999999999998 3.8881251733860477e-016 -25.399999999999999 0 0 I I #
point $-1 -1 $-1 18.414999999999999 3.1749999999999998 3.8881251733860477e-016 #
point $-1 -1 $-1 18.414999999999999 -3.1749999999999998 -7.7762503467720954e-016 #
convexity-sys-attrib $-1 -1 $-1 $350 $262 #
coedge $-1 -1 $-1 $416 $359 $364 $373 forward $417 $-1 #
coedge $-1 -1 $-1 $359 $415 $381 $384 reversed $417 $-1 #
loop $-1 -1 $-1 $-1 $359 $402 #
coedge $-1 -1 $-1 $419 $361 $382 $436 reversed $356 $-1 #
coedge $-1 -1 $-1 $361 $418 $363 $375 reversed $356 $-1 #
coedge $-1 -1 $-1 $364 $363 $435 $447 reversed $366 $-1 #
coedge $-1 -1 $-1 $439 $365 $371 $427 reversed $423 $-1 #
coedge $-1 -1 $-1 $365 $439 $367 $425 forward $423 $-1 #
loop $-1 -1 $-1 $-1 $365 $446 #
face $-1 -1 $-1 $309 $366 $20 $-1 $448 reversed single #
edge $-1 -1 $-1 $396 -3.1749999999999998 $282 1.7624790515924362e-016 $367 $432 forward @7 unknown #
face $-1 -1 $-1 $401 $369 $20 $-1 $357 reversed single #
edge $-1 -1 $-1 $441 -3.1749999999999998 $281 1.7624790515924362e-016 $371 $430 forward @7 unknown #
face $-1 -1 $-1 $213 $372 $20 $-1 $316 reversed single #
vertex $-1 -1 $-1 $373 $449 #
straight-curve $-1 -1 $-1 17.145 -3.1749999999999998 0 0 0 -1 I I #
vertex $-1 -1 $-1 $436 $450 #
straight-curve $-1 -1 $-1 -17.145 -3.1749999999999998 0 0 0 -1 I I #
edge $-1 -1 $-1 $387 -17.145 $317 17.145 $386 $451 forward @7 unknown #
straight-curve $-1 -1 $-1 17.145 0 -3.1749999999999998 0 -1 0 I I #
coedge $-1 -1 $-1 $382 $381 $420 $447 forward $383 $-1 #
edge $-1 -1 $-1 $431 -3.1749999999999998 $197 -2.2204460492503131e-016 $418 $389 forward @7 unknown #
face $-1 -1 $-1 $424 $383 $20 $-1 $273 reversed single #
point $-1 -1 $-1 -17.145 3.1749999999999998 -3.1749999999999998 #
coedge $-1 -1 $-1 $422 $421 $393 $440 reversed $423 $-1 #
edge $-1 -1 $-1 $396 -17.145 $441 17.145 $439 $452 forward @7 unknown #
vertex $-1 -1 $-1 $394 $453 #
plane-surface $-1 -1 $-1 0 0 3.1749999999999998 0 0 1 1 0 0 forward_v I I I I #
point $-1 -1 $-1 -17.145 -3.1749999999999998 3.1749999999999998 #
straight-curve $-1 -1 $-1 0 3.1749999999999998 3.1749999999999998 -1 0 0 I I #
point $-1 -1 $-1 -17.145 3.1749999999999998 3.1749999999999998 #
face $-1 -1 $-1 $395 $423 $20 $-1 $448 reversed single #
edge $-1 -1 $-1 $429 -17.145 $431 17.145 $420 $454 forward @7 unknown #
plane-surface $-1 -1 $-1 0 -3.1749999999999998 0 0 1 0 0 0 1 forward_v I I I I #
point $-1 -1 $-1 17.145 -3.1749999999999998 -3.1749999999999998 #
point $-1 -1 $-1 -17.145 -3.1749999999999998 -3.1749999999999998 #
straight-curve $-1 -1 $-1 0 3.1749999999999998 -3.1749999999999998 1 0 0 I I #
straight-curve $-1 -1 $-1 0 -3.1749999999999998 3.1749999999999998 1 0 0 I I #
point $-1 -1 $-1 17.145 -3.1749999999999998 3.1749999999999998 #
straight-curve $-1 -1 $-1 0 -3.1749999999999998 -3.1749999999999998 -1 0 0 I I #
End-of-ACIS-data 