600 0 1 0           
89 GICL ACIS Healer - Source: /gicl/data5/repository/PTC/V18/process18/hb25-20.prt.sat - 6 0 18 ACIS 6.0.3 Solaris 24 Sat Apr 13 21:17:59 2002 
1 9.999999999999999547e-07 1.000000000000000036e-10 
body $-1 $1 $-1 $-1 #
lump $-1 $-1 $2 $0 #
shell $-1 $-1 $-1 $3 $-1 $1 #
face $-1 $4 $5 $2 $-1 $6 reversed single #
face $-1 $7 $8 $2 $-1 $9 forward single #
loop $-1 $-1 $10 $3 #
plane-surface $-1 -15.875 0 0 1 0 0 0 0 -25.39999999999999858 forward_v I I I I #
face $-1 $11 $12 $2 $-1 $13 forward single #
loop $-1 $-1 $14 $4 #
cone-surface $-1 -15.875 0 0 1 0 0 0 0 -1.269999999999999796 1 I I 0 1 1.269999999999999796 forward I I I I #
coedge $-1 $15 $15 $16 $17 reversed $5 $-1 #
face $-1 $18 $19 $2 $-1 $20 reversed single #
loop $-1 $-1 $21 $7 #
cone-surface $-1 -15.875 0 0 1 0 0 0 0 -1.269999999999999796 1 I I 0 1 1.269999999999999796 forward I I I I #
coedge $-1 $16 $22 $23 $24 reversed $8 $-1 #
coedge $-1 $10 $10 $25 $26 reversed $5 $-1 #
coedge $-1 $27 $14 $10 $17 forward $8 $-1 #
edge $-1 $28 0 $29 3.141592653589793116 $10 $30 forward 7 unknown #
face $-1 $31 $32 $2 $-1 $33 forward single #
loop $-1 $34 $35 $11 #
plane-surface $-1 15.875 0 0 1 0 0 0 -25.39999999999999858 0 forward_v I I I I #
coedge $-1 $25 $36 $27 $37 reversed $12 $-1 #
coedge $-1 $14 $27 $38 $39 reversed $8 $-1 #
coedge $-1 $36 $25 $14 $24 forward $12 $-1 #
edge $-1 $28 0 $40 1.249999999999999778 $23 $41 forward 7 unknown #
coedge $-1 $23 $21 $15 $26 forward $12 $-1 #
edge $-1 $29 0 $28 3.141592653589793116 $15 $42 forward 7 unknown #
coedge $-1 $22 $16 $21 $37 forward $8 $-1 #
vertex $-1 $26 $43 #
vertex $-1 $26 $44 #
ellipse-curve $-1 -15.875 0 0 1 0 0 0 0 1.269999999999999796 1 I I #
face $-1 $45 $46 $2 $-1 $47 forward single #
loop $-1 $-1 $48 $18 #
cone-surface $-1 15.74800000000000111 0 0 1 0 0 0 -3.174999999999999822 0 1 I I 0 1 3.174999999999999822 forward I I I I #
loop $-1 $-1 $38 $11 #
coedge $-1 $49 $49 $50 $51 forward $19 $-1 #
coedge $-1 $21 $23 $52 $53 reversed $12 $-1 #
edge $-1 $29 0 $54 1.249999999999999778 $21 $55 forward 7 unknown #
coedge $-1 $52 $52 $22 $39 forward $34 $-1 #
edge $-1 $40 0 $54 3.14159265358979356 $22 $56 forward 7 unknown #
vertex $-1 $53 $57 #
straight-curve $-1 -15.875 1.555250069354418783e-16 1.269999999999999796 25.39999999999999858 0 0 I I #
ellipse-curve $-1 -15.875 0 0 1 0 0 0 0 -1.269999999999999796 1 I I #
point $-1 -15.875 0 1.269999999999999796 #
point $-1 -15.875 0 -1.269999999999999796 #
face $-1 $-1 $58 $2 $-1 $59 forward single #
loop $-1 $-1 $60 $31 #
plane-surface $-1 18.41499999999999915 0 0 1 0 0 0 -25.39999999999999858 0 forward_v I I I I #
coedge $-1 $61 $62 $63 $64 forward $32 $-1 #
coedge $-1 $35 $35 $65 $66 reversed $19 $-1 #
coedge $-1 $62 $61 $35 $51 reversed $32 $-1 #
edge $-1 $67 -1.224606353822377258e-16 $68 3.141592653589793116 $35 $69 forward 7 unknown #
coedge $-1 $38 $38 $36 $53 forward $34 $-1 #
edge $-1 $54 0 $40 3.141592653589793116 $36 $70 forward 7 unknown #
vertex $-1 $53 $71 #
straight-curve $-1 -15.875 0 -1.269999999999999796 25.39999999999999858 0 0 I I #
ellipse-curve $-1 15.875 -2.20309881449054501e-16 0 1 1.31420644580124024e-30 4.440892098500626162e-15 -5.63993296509579491e-15 3.758348883844963793e-16 1.269999999999999796 1 I I #
point $-1 15.87499999999999289 1.555250069354418783e-16 1.269999999999999796 #
loop $-1 $-1 $65 $45 #
cone-surface $-1 15.74800000000000111 0 0 1 0 0 0 -3.174999999999999822 0 1 I I 0 1 3.174999999999999822 forward I I I I #
coedge $-1 $63 $63 $72 $73 forward $46 $-1 #
coedge $-1 $50 $48 $74 $75 forward $32 $-1 #
coedge $-1 $48 $50 $76 $77 reversed $32 $-1 #
coedge $-1 $60 $60 $48 $64 reversed $46 $-1 #
edge $-1 $78 3.912757915412049441e-32 $79 3.141592653589793116 $63 $80 forward 7 unknown #
coedge $-1 $74 $76 $49 $66 forward $58 $-1 #
edge $-1 $67 1.224606353822377258e-16 $68 3.141592653589793116 $65 $81 forward 7 unknown #
vertex $-1 $77 $82 #
vertex $-1 $75 $83 #
ellipse-curve $-1 15.875 0 0 -1 0 0 0 3.174999999999999822 0 1 I I #
ellipse-curve $-1 15.875 2.20309881449054501e-16 0 1 -7.703719777548944288e-31 -4.440892098500626162e-15 -5.63993296509579491e-15 -2.20309881449054501e-16 -1.269999999999999796 1 I I #
point $-1 15.87499999999999289 0 -1.269999999999999796 #
coedge $-1 $76 $74 $60 $73 reversed $58 $-1 #
edge $-1 $78 1.956378957706024721e-32 $79 3.141592653589793116 $60 $84 forward 7 unknown #
coedge $-1 $72 $65 $61 $75 reversed $58 $-1 #
edge $-1 $79 0 $68 0.0999999999999999778 $74 $85 forward 7 unknown #
coedge $-1 $65 $72 $62 $77 forward $58 $-1 #
edge $-1 $78 0 $67 0.0999999999999999778 $76 $86 forward 7 unknown #
vertex $-1 $64 $87 #
vertex $-1 $64 $88 #
ellipse-curve $-1 18.41499999999999915 -3.524958103184871819e-16 -1.762479051592435909e-16 -1 0 0 0 3.174999999999999822 5.650604224978483606e-16 1 I I #
ellipse-curve $-1 15.875 0 0 1 0 0 0 3.174999999999999822 0 1 I I #
point $-1 15.875 3.174999999999999822 3.888125173386047696e-16 #
point $-1 15.875 -3.174999999999999822 0 #
ellipse-curve $-1 18.41499999999999915 0 8.812395257962179547e-17 1 0 0 0 3.174999999999999822 3.006885647589829495e-16 1 I I #
straight-curve $-1 18.41499999999999915 -3.174999999999999822 -7.776250346772095392e-16 -25.39999999999999858 0 0 I I #
straight-curve $-1 18.41499999999999915 3.174999999999999822 3.888125173386047696e-16 -25.39999999999999858 0 0 I I #
point $-1 18.41499999999999915 3.174999999999999822 3.888125173386047696e-16 #
point $-1 18.41499999999999915 -3.174999999999999822 -7.776250346772095392e-16 #
End-of-ACIS-data 