600 0 1 0           
92 GICL Pro/E ACIS Translator - Source: f:/data5/repository/PTC/V18/process18/hb25-10.prt - 6 0 13 ACIS 6.0.3 NT 24 Thu Apr 04 13:31:04 2002 
1 9.9999999999999995e-007 1e-010 
body $-1 $1 $-1 $2 #
lump $-1 $-1 $3 $0 #
transform $-1 1 0 0 0 1 0 0 0 1 0 0 0 25.399999999999999 no_rotate no_reflect no_shear #
shell $-1 $-1 $-1 $4 $-1 $1 #
face $-1 $5 $6 $3 $-1 $7 reversed single #
face $-1 $8 $9 $3 $-1 $10 forward single #
loop $-1 $-1 $11 $4 #
plane-surface $-1 0 -0.69999999999999996 0 0 1 0 1 0 0 forward_v I I I I #
face $-1 $12 $13 $3 $-1 $14 forward single #
loop $-1 $-1 $15 $5 #
cone-surface $-1 0 -0.73499999999999988 0 0 1 0 0.125 0 0 1 I I 0 1 0.125 forward I I I I #
coedge $-1 $16 $16 $15 $17 reversed $6 $-1 #
face $-1 $18 $19 $3 $-1 $20 reversed single #
loop $-1 $-1 $21 $8 #
cone-surface $-1 0 -0.73499999999999988 0 0 1 0 0.125 0 0 1 I I 0 1 0.125 forward I I I I #
coedge $-1 $22 $23 $11 $17 forward $9 $-1 #
coedge $-1 $11 $11 $24 $25 forward $6 $-1 #
edge $-1 $26 0 $27 3.1415926535897931 $11 $28 forward 7 unknown #
face $-1 $29 $30 $3 $-1 $31 reversed single #
loop $-1 $32 $33 $12 #
plane-surface $-1 0 -0.19999999999999998 0 0 1 0 1 0 0 forward_v I I I I #
coedge $-1 $34 $35 $36 $37 forward $13 $-1 #
coedge $-1 $38 $15 $34 $39 forward $9 $-1 #
coedge $-1 $15 $38 $35 $40 reversed $9 $-1 #
coedge $-1 $35 $34 $16 $25 reversed $13 $-1 #
edge $-1 $26 0 $27 3.1415926535897931 $16 $41 forward 7 unknown #
vertex $-1 $25 $42 #
vertex $-1 $25 $43 #
ellipse-curve $-1 -6.9388939039072284e-018 -0.69999999999999996 0 0 1 0 0.125 0 0 1 I I #
face $-1 $44 $45 $3 $-1 $46 reversed single #
loop $-1 $-1 $47 $18 #
plane-surface $-1 0.125 0 -0.2165063509461097 -0.86602540378443882 0 0.49999999999999989 0.5 0 0.86602540378443904 forward_v I I I I #
loop $-1 $-1 $48 $12 #
coedge $-1 $36 $36 $38 $49 forward $19 $-1 #
coedge $-1 $24 $21 $22 $39 reversed $13 $-1 #
coedge $-1 $21 $24 $23 $40 forward $13 $-1 #
coedge $-1 $33 $33 $21 $37 reversed $19 $-1 #
edge $-1 $50 0 $51 3.1415926535897931 $36 $52 forward 7 unknown #
coedge $-1 $23 $22 $33 $49 reversed $9 $-1 #
edge $-1 $27 0 $51 0.5 $22 $53 forward 7 unknown #
edge $-1 $26 0 $50 0.5 $23 $54 forward 7 unknown #
ellipse-curve $-1 -6.9388939039072284e-018 -0.69999999999999996 0 0 -1 0 0.125 0 0 1 I I #
point $-1 0.125 -0.69999999999999996 0 #
point $-1 -0.125 -0.69999999999999996 1.5307579422779716e-017 #
face $-1 $55 $56 $3 $-1 $57 reversed single #
loop $-1 $-1 $58 $29 #
plane-surface $-1 -0.125 0 -0.2165063509461097 0 0 1 1 0 0 forward_v I I I I #
coedge $-1 $59 $60 $61 $62 reversed $30 $-1 #
coedge $-1 $63 $64 $60 $65 forward $32 $-1 #
edge $-1 $50 0 $51 3.1415926535897931 $38 $66 forward 7 unknown #
vertex $-1 $40 $67 #
vertex $-1 $49 $68 #
ellipse-curve $-1 0 -0.19999999999999998 0 0 -1 0 0.125 0 0 1 I I #
straight-curve $-1 -0.125 -0.69999999999999996 1.5307579422779716e-017 0 1 0 I I #
straight-curve $-1 0.125 -0.69999999999999996 0 0 1 0 I I #
face $-1 $69 $70 $3 $-1 $71 reversed single #
loop $-1 $-1 $72 $44 #
plane-surface $-1 -0.25 0 0 0.86602540378443871 0 0.50000000000000011 0.5 0 -0.8660254037844386 forward_v I I I I #
coedge $-1 $73 $74 $75 $76 reversed $45 $-1 #
coedge $-1 $77 $47 $78 $79 forward $30 $-1 #
coedge $-1 $47 $77 $48 $65 reversed $30 $-1 #
coedge $-1 $74 $73 $47 $62 forward $45 $-1 #
edge $-1 $80 0 $81 0.19999999999999998 $61 $82 forward 7 unknown #
coedge $-1 $83 $48 $84 $85 forward $32 $-1 #
coedge $-1 $48 $86 $74 $87 forward $32 $-1 #
edge $-1 $81 0 $88 0.25000000000000006 $48 $89 forward 7 unknown #
ellipse-curve $-1 0 -0.19999999999999998 0 0 1 0 0.125 0 0 1 I I #
point $-1 0.125 -0.19999999999999996 0 #
point $-1 -0.125 -0.19999999999999998 0 #
face $-1 $90 $91 $3 $-1 $92 reversed single #
loop $-1 $-1 $93 $55 #
plane-surface $-1 -0.125 0 0.21650635094610984 0.86602540378443871 0 -0.49999999999999994 -0.5 0 -0.86602540378443882 forward_v I I I I #
coedge $-1 $94 $95 $96 $97 reversed $56 $-1 #
coedge $-1 $61 $58 $98 $99 forward $45 $-1 #
coedge $-1 $58 $61 $64 $87 reversed $45 $-1 #
coedge $-1 $95 $94 $58 $76 forward $56 $-1 #
edge $-1 $100 0 $101 0.19999999999999998 $58 $102 forward 7 unknown #
coedge $-1 $60 $59 $103 $104 forward $30 $-1 #
coedge $-1 $98 $105 $59 $79 reversed $106 $-1 #
edge $-1 $80 0 $107 0.25000000000000006 $78 $108 forward 7 unknown #
vertex $-1 $99 $109 #
vertex $-1 $87 $110 #
straight-curve $-1 0.125 0 -0.2165063509461097 0 -1 0 I I #
coedge $-1 $111 $63 $112 $113 forward $32 $-1 #
coedge $-1 $103 $114 $63 $85 reversed $115 $-1 #
edge $-1 $88 0 $116 0.25000000000000006 $63 $117 forward 7 unknown #
coedge $-1 $64 $111 $95 $118 forward $32 $-1 #
edge $-1 $101 0 $81 0.25 $64 $119 forward 7 unknown #
vertex $-1 $85 $120 #
straight-curve $-1 0.125 -0.19999999999999998 -0.2165063509461097 0.49999999999999989 0 0.86602540378443882 I I #
face $-1 $121 $115 $3 $-1 $122 reversed single #
loop $-1 $-1 $123 $69 #
plane-surface $-1 0.125 0 0.21650635094610984 0 0 -1 -1 0 0 forward_v I I I I #
coedge $-1 $124 $125 $126 $127 reversed $70 $-1 #
coedge $-1 $75 $72 $128 $129 forward $56 $-1 #
coedge $-1 $72 $75 $86 $118 reversed $56 $-1 #
coedge $-1 $125 $124 $72 $97 forward $70 $-1 #
edge $-1 $130 0 $131 0.19999999999999998 $96 $132 forward 7 unknown #
coedge $-1 $128 $78 $73 $99 reversed $106 $-1 #
edge $-1 $100 0 $80 0.25 $98 $133 forward 7 unknown #
vertex $-1 $99 $134 #
vertex $-1 $87 $135 #
straight-curve $-1 -0.12499999999999997 0 -0.2165063509461097 0 -1 0 I I #
coedge $-1 $136 $84 $77 $104 reversed $115 $-1 #
edge $-1 $107 0 $88 0.19999999999999998 $77 $137 forward 7 unknown #
coedge $-1 $78 $138 $136 $139 reversed $106 $-1 #
loop $-1 $-1 $128 $121 #
vertex $-1 $79 $140 #
straight-curve $-1 0.125 0 -0.2165063509461097 0.49999999999999989 0 0.86602540378443882 I I #
point $-1 0.125 0 -0.2165063509461097 #
point $-1 0.125 -0.19999999999999998 -0.2165063509461097 #
coedge $-1 $86 $83 $125 $141 forward $32 $-1 #
coedge $-1 $123 $126 $83 $113 reversed $91 $-1 #
edge $-1 $116 0 $142 0.25 $83 $143 forward 7 unknown #
coedge $-1 $84 $136 $123 $144 forward $115 $-1 #
loop $-1 $-1 $103 $90 #
vertex $-1 $113 $145 #
straight-curve $-1 0.25 -0.19999999999999998 0 -0.5 0 0.86602540378443882 I I #
edge $-1 $131 0 $101 0.25000000000000011 $86 $146 forward 7 unknown #
straight-curve $-1 -0.125 -0.19999999999999998 -0.2165063509461097 1 0 0 I I #
point $-1 0.25 -0.19999999999999998 0 #
face $-1 $-1 $106 $3 $-1 $147 forward single #
plane-surface $-1 0.25 0 0 -0.86602540378443871 0 -0.49999999999999994 -0.5 0 0.86602540378443882 forward_v I I I I #
coedge $-1 $148 $112 $114 $144 reversed $91 $-1 #
coedge $-1 $96 $93 $149 $150 forward $70 $-1 #
coedge $-1 $93 $96 $111 $141 reversed $70 $-1 #
coedge $-1 $112 $148 $93 $127 forward $91 $-1 #
edge $-1 $151 0 $142 0.19999999999999998 $126 $152 forward 7 unknown #
coedge $-1 $149 $98 $94 $129 reversed $106 $-1 #
edge $-1 $130 0 $100 0.25000000000000011 $128 $153 forward 7 unknown #
vertex $-1 $150 $154 #
vertex $-1 $118 $155 #
straight-curve $-1 -0.25000000000000006 0 5.5511151231257827e-017 0 -1 0 I I #
straight-curve $-1 -0.125 0 -0.2165063509461097 1 0 0 I I #
point $-1 -0.125 0 -0.2165063509461097 #
point $-1 -0.125 -0.19999999999999998 -0.2165063509461097 #
coedge $-1 $114 $103 $105 $139 forward $115 $-1 #
straight-curve $-1 0.24999999999999997 0 0 0 -1 0 I I #
coedge $-1 $105 $149 $148 $156 reversed $106 $-1 #
edge $-1 $107 0 $157 0.25000000000000006 $105 $158 forward 7 unknown #
point $-1 0.25 0 0 #
edge $-1 $142 0 $131 0.25000000000000006 $111 $159 forward 7 unknown #
vertex $-1 $141 $160 #
straight-curve $-1 0.125 -0.19999999999999998 0.21650635094610984 -1 0 0 I I #
edge $-1 $157 0 $116 0.19999999999999998 $114 $161 forward 7 unknown #
point $-1 0.125 -0.19999999999999998 0.21650635094610984 #
straight-curve $-1 -0.25 -0.19999999999999998 0 0.5 0 -0.8660254037844386 I I #
plane-surface $-1 0 0 0 0 1 0 1 0 0 forward_v I I I I #
coedge $-1 $126 $123 $138 $156 forward $91 $-1 #
coedge $-1 $138 $128 $124 $150 reversed $106 $-1 #
edge $-1 $151 0 $130 0.25000000000000006 $149 $162 forward 7 unknown #
vertex $-1 $156 $163 #
straight-curve $-1 -0.125 0 0.21650635094610984 0 -1 0 I I #
straight-curve $-1 -0.25 0 0 0.5 0 -0.8660254037844386 I I #
point $-1 -0.25 0 0 #
point $-1 -0.25 -0.19999999999999998 0 #
edge $-1 $157 0 $151 0.25 $138 $164 forward 7 unknown #
vertex $-1 $139 $165 #
straight-curve $-1 0.25 0 0 -0.5 0 0.86602540378443882 I I #
straight-curve $-1 -0.125 -0.19999999999999998 0.21650635094610984 -0.5 0 -0.86602540378443882 I I #
point $-1 -0.125 -0.19999999999999998 0.21650635094610984 #
straight-curve $-1 0.12499999999999994 0 0.21650635094610979 0 -1 0 I I #
straight-curve $-1 -0.125 0 0.21650635094610984 -0.5 0 -0.86602540378443882 I I #
point $-1 -0.125 0 0.21650635094610984 #
straight-curve $-1 0.125 0 0.21650635094610984 -1 0 0 I I #
point $-1 0.125 0 0.21650635094610984 #
End-of-ACIS-data 