600 0 1 0           
84 GICL ACIS Healer - Source: /gicl/data5/repository/PTC/V18/process18/hfx-20.sat - 6 0 18 ACIS 6.0.3 Solaris 24 Sat Apr 13 21:17:09 2002 
1 9.999999999999999547e-07 1.000000000000000036e-10 
body $-1 $1 $-1 $-1 #
lump $-1 $-1 $2 $0 #
shell $-1 $-1 $-1 $3 $-1 $1 #
face $-1 $4 $5 $2 $-1 $6 reversed single #
face $-1 $7 $8 $2 $-1 $9 reversed single #
loop $-1 $10 $11 $3 #
plane-surface $-1 3.174999999999999822 0 0 -1 0 0 0 0 25.39999999999999858 forward_v I I I I #
face $-1 $12 $13 $2 $-1 $14 reversed single #
loop $-1 $-1 $15 $4 #
cone-surface $-1 -3.174999999999999822 0 0 1 0 0 0 6.349999999999999645 0 1 I I 0 1 6.349999999999999645 forward I I I I #
loop $-1 $-1 $16 $3 #
coedge $-1 $17 $17 $18 $19 reversed $5 $-1 #
face $-1 $20 $21 $2 $-1 $22 forward single #
loop $-1 $-1 $23 $7 #
cone-surface $-1 -3.174999999999999822 0 0 1 0 0 0 6.349999999999999645 0 1 I I 0 1 6.349999999999999645 forward I I I I #
coedge $-1 $18 $24 $25 $26 forward $8 $-1 #
coedge $-1 $27 $28 $29 $30 forward $10 $-1 #
coedge $-1 $11 $11 $31 $32 reversed $5 $-1 #
coedge $-1 $33 $15 $11 $19 forward $8 $-1 #
edge $-1 $34 0 $35 3.141592653589793116 $11 $36 forward 7 unknown #
face $-1 $37 $38 $2 $-1 $39 forward single #
loop $-1 $-1 $40 $12 #
plane-surface $-1 -9.524999999999998579 10.64927374284274819 3.174999999999999822 0 -0.2857142857142856984 0.9583148474999099165 0 -24.34119712649771117 -7.257142857142856229 forward_v I I I I #
coedge $-1 $41 $42 $43 $44 reversed $13 $-1 #
coedge $-1 $15 $45 $46 $47 forward $8 $-1 #
coedge $-1 $46 $31 $15 $26 reversed $13 $-1 #
edge $-1 $48 0 $34 0.25 $25 $49 forward 7 unknown #
coedge $-1 $50 $16 $51 $52 forward $10 $-1 #
coedge $-1 $16 $53 $54 $55 forward $10 $-1 #
coedge $-1 $56 $57 $16 $30 reversed $58 $-1 #
edge $-1 $59 0 $60 0.3600000000000000422 $16 $61 forward 7 unknown #
coedge $-1 $25 $62 $17 $32 forward $13 $-1 #
edge $-1 $35 0 $34 3.141592653589793116 $17 $63 forward 7 unknown #
coedge $-1 $64 $18 $62 $65 reversed $8 $-1 #
vertex $-1 $32 $66 #
vertex $-1 $32 $67 #
ellipse-curve $-1 3.174999999999999822 0 0 1 0 0 0 -6.349999999999999645 0 1 I I #
face $-1 $68 $69 $2 $-1 $70 forward single #
loop $-1 $-1 $71 $20 #
plane-surface $-1 3.174999999999999822 19.79327374284274654 3.174999999999999822 0 0 1 0 -25.39999999999999858 0 forward_v I I I I #
coedge $-1 $72 $73 $74 $75 reversed $21 $-1 #
coedge $-1 $76 $23 $77 $78 forward $13 $-1 #
coedge $-1 $23 $79 $80 $81 reversed $13 $-1 #
coedge $-1 $73 $72 $23 $44 forward $21 $-1 #
edge $-1 $82 0 $83 0.2499999999999999722 $23 $84 forward 7 unknown #
coedge $-1 $24 $64 $85 $86 reversed $8 $-1 #
coedge $-1 $87 $25 $24 $47 reversed $13 $-1 #
edge $-1 $88 -3.083761640722117101e-16 $48 0.2897517014360477816 $46 $89 forward 7 unknown #
vertex $-1 $47 $90 #
straight-curve $-1 -3.174999999999999822 -6.349999999999999645 7.776250346772095392e-16 25.39999999999999858 0 0 I I #
coedge $-1 $91 $27 $92 $93 forward $10 $-1 #
coedge $-1 $94 $95 $27 $52 reversed $96 $-1 #
edge $-1 $60 0 $97 0.25 $27 $98 forward 7 unknown #
coedge $-1 $28 $99 $100 $101 reversed $10 $-1 #
coedge $-1 $102 $103 $28 $55 reversed $104 $-1 #
edge $-1 $105 -5.7539575803561362e-17 $59 2.562089250717698441 $28 $106 forward 7 unknown #
coedge $-1 $107 $29 $103 $108 forward $58 $-1 #
coedge $-1 $29 $109 $94 $110 reversed $58 $-1 #
loop $-1 $-1 $109 $111 #
vertex $-1 $55 $112 #
vertex $-1 $52 $113 #
straight-curve $-1 3.174999999999999822 10.64927374284274642 -3.174999999999999822 0 25.39999999999999858 0 I I #
coedge $-1 $31 $114 $33 $65 forward $13 $-1 #
ellipse-curve $-1 3.174999999999999822 0 0 1 0 0 0 6.349999999999999645 0 1 I I #
coedge $-1 $45 $33 $114 $115 reversed $8 $-1 #
edge $-1 $116 0 $35 0.25 $62 $117 forward 7 unknown #
point $-1 3.174999999999999822 -6.349999999999999645 0 #
point $-1 3.174999999999999822 6.349999999999999645 0 #
face $-1 $118 $119 $2 $-1 $120 forward single #
loop $-1 $-1 $121 $37 #
cone-surface $-1 3.174999999999999822 0 0 -1 0 0 0 0 11.11249999999999893 1 I I 0 1 11.11249999999999893 forward I I I I #
coedge $-1 $92 $74 $122 $123 reversed $38 $-1 #
coedge $-1 $43 $40 $124 $125 forward $21 $-1 #
coedge $-1 $40 $43 $126 $127 reversed $21 $-1 #
coedge $-1 $71 $128 $40 $75 forward $38 $-1 #
edge $-1 $129 0 $130 0.2499999999999999722 $74 $131 forward 7 unknown #
coedge $-1 $114 $41 $132 $133 forward $13 $-1 #
coedge $-1 $124 $134 $41 $78 reversed $135 $-1 #
edge $-1 $82 4.405373772460162445e-17 $136 0.5795034028720951191 $41 $137 forward 7 unknown #
coedge $-1 $42 $138 $139 $140 forward $13 $-1 #
coedge $-1 $141 $126 $42 $81 forward $119 $-1 #
edge $-1 $83 0 $142 2.562089250717697997 $80 $143 forward 7 unknown #
vertex $-1 $78 $144 #
vertex $-1 $81 $145 #
straight-curve $-1 -9.524999999999998579 6.085299281624427792 1.814285714285714057 25.39999999999999858 0 0 I I #
coedge $-1 $146 $147 $45 $86 forward $148 $-1 #
edge $-1 $88 0 $149 2.562089250717697553 $85 $150 forward 7 unknown #
coedge $-1 $138 $46 $151 $152 reversed $13 $-1 #
vertex $-1 $153 $154 #
ellipse-curve $-1 -3.174999999999999822 0 0 -1 0 0 0 -6.085299281624426904 -1.81428571428571539 1 I I #
point $-1 -3.174999999999999822 -6.349999999999999645 7.776250346772095392e-16 #
coedge $-1 $155 $50 $121 $156 forward $10 $-1 #
coedge $-1 $157 $71 $50 $93 reversed $38 $-1 #
edge $-1 $97 0 $158 0.3599999999999999312 $50 $159 forward 7 unknown #
coedge $-1 $160 $51 $57 $110 forward $96 $-1 #
coedge $-1 $51 $160 $157 $161 reversed $96 $-1 #
loop $-1 $-1 $94 $162 #
vertex $-1 $93 $163 #
straight-curve $-1 3.174999999999999822 19.79327374284274654 -3.174999999999999822 0 0 25.39999999999999858 I I #
coedge $-1 $53 $155 $164 $165 reversed $10 $-1 #
coedge $-1 $166 $167 $53 $101 forward $168 $-1 #
edge $-1 $105 5.575332783373919333e-07 $169 0.3600005575332781982 $53 $170 forward 7 unknown #
coedge $-1 $171 $54 $167 $172 reversed $104 $-1 #
coedge $-1 $54 $171 $56 $108 reversed $104 $-1 #
loop $-1 $-1 $171 $173 #
vertex $-1 $55 $174 #
ellipse-curve $-1 3.174999999999999822 -7.049916206369743637e-16 0 1 0 0 0 -10.64927374284274819 -3.174999999999995381 1 I I #
coedge $-1 $109 $56 $175 $176 reversed $58 $-1 #
edge $-1 $59 -7.764378988395785379e-33 $177 0.25 $103 $178 forward 7 unknown #
coedge $-1 $57 $107 $179 $180 forward $58 $-1 #
edge $-1 $60 0 $181 0.5 $57 $182 forward 7 unknown #
face $-1 $183 $58 $2 $-1 $184 forward single #
point $-1 3.174999999999999822 10.64927374284274642 -3.175000000000002487 #
point $-1 3.174999999999999822 19.79327374284274654 -3.174999999999999822 #
coedge $-1 $62 $76 $64 $115 forward $13 $-1 #
edge $-1 $149 4.405373772460166143e-17 $116 0.2897517014360480592 $114 $185 forward 7 unknown #
vertex $-1 $65 $186 #
straight-curve $-1 -3.174999999999999822 6.349999999999999645 0 25.39999999999999858 0 0 I I #
face $-1 $187 $188 $2 $-1 $189 reversed single #
loop $-1 $-1 $190 $68 #
plane-surface $-1 -3.174999999999999822 0 0 -1 0 0 0 0 25.39999999999999858 forward_v I I I I #
coedge $-1 $122 $191 $91 $156 reversed $69 $-1 #
coedge $-1 $192 $121 $71 $123 forward $69 $-1 #
edge $-1 $158 3.882189494197892689e-33 $130 0.25 $122 $193 forward 7 unknown #
coedge $-1 $194 $77 $72 $125 reversed $135 $-1 #
edge $-1 $129 0 $82 0.1875 $124 $195 forward 7 unknown #
coedge $-1 $80 $190 $73 $127 forward $119 $-1 #
edge $-1 $130 -7.201542382051201928e-17 $83 0.1874999999999999167 $126 $196 forward 7 unknown #
coedge $-1 $74 $157 $194 $197 forward $38 $-1 #
vertex $-1 $197 $198 #
vertex $-1 $127 $199 #
straight-curve $-1 -9.524999999999998579 10.64927374284274819 3.174999999999999822 25.39999999999999858 0 0 I I #
coedge $-1 $200 $201 $76 $133 reversed $202 $-1 #
edge $-1 $136 0 $149 0.2499999999999999722 $76 $203 forward 7 unknown #
coedge $-1 $77 $179 $200 $204 reversed $135 $-1 #
loop $-1 $-1 $205 $206 #
vertex $-1 $133 $207 #
ellipse-curve $-1 -9.524999999999998579 -2.467470672229410174e-15 1.057487430955461447e-15 -1 0 0 0 6.085299281624430456 1.814285714285713391 1 I I #
coedge $-1 $79 $87 $208 $209 reversed $13 $-1 #
coedge $-1 $210 $211 $79 $140 reversed $188 $-1 #
edge $-1 $212 0 $142 0.2499999999999999722 $79 $213 forward 7 unknown #
coedge $-1 $190 $80 $211 $214 reversed $119 $-1 #
vertex $-1 $214 $215 #
ellipse-curve $-1 -3.174999999999999822 0 0 1 0 0 0 6.08529928162442868 1.814285714285714723 1 I I #
point $-1 -9.524999999999998579 6.08529928162442868 1.814285714285714501 #
point $-1 -3.174999999999999822 6.08529928162442868 1.814285714285714723 #
coedge $-1 $216 $85 $201 $217 forward $148 $-1 #
coedge $-1 $85 $216 $218 $153 reversed $148 $-1 #
loop $-1 $-1 $85 $219 #
vertex $-1 $217 $220 #
ellipse-curve $-1 -3.174999999999999822 0 0 1 0 0 0 -6.085299281624426015 -1.814285714285717166 1 I I #
coedge $-1 $218 $221 $87 $152 forward $222 $-1 #
edge $-1 $223 0 $88 0.2499999999999999722 $87 $224 forward 7 unknown #
edge $-1 $88 0 $225 0.1874999999999999445 $147 $226 forward 7 unknown #
point $-1 -3.174999999999999822 -6.085299281624426015 -1.814285714285717166 #
coedge $-1 $99 $91 $227 $228 reversed $10 $-1 #
edge $-1 $158 -5.753957580356134967e-16 $229 2.562089250717697553 $91 $230 forward 7 unknown #
coedge $-1 $128 $92 $95 $161 forward $38 $-1 #
vertex $-1 $156 $231 #
straight-curve $-1 3.174999999999999822 19.79327374284274654 3.174999999999999822 0 -25.39999999999999858 0 I I #
coedge $-1 $95 $94 $205 $232 forward $96 $-1 #
edge $-1 $97 0 $233 0.5 $95 $234 forward 7 unknown #
face $-1 $111 $96 $2 $-1 $235 forward single #
point $-1 3.174999999999999822 19.79327374284274654 3.174999999999999822 #
coedge $-1 $236 $237 $99 $165 forward $238 $-1 #
edge $-1 $169 0 $239 0.25 $99 $240 forward 7 unknown #
coedge $-1 $241 $100 $237 $242 forward $168 $-1 #
coedge $-1 $100 $243 $102 $172 forward $168 $-1 #
loop $-1 $-1 $167 $244 #
vertex $-1 $101 $245 #
straight-curve $-1 3.174999999999999822 -10.6492595814974802 -3.174999999999999822 0 -25.39999999999999858 0 I I #
coedge $-1 $103 $102 $216 $246 reversed $104 $-1 #
edge $-1 $225 3.105751595358314151e-32 $105 0.25 $102 $247 forward 7 unknown #
face $-1 $219 $104 $2 $-1 $248 forward single #
point $-1 3.174999999999999822 -10.64927374284274997 -3.174999999999995381 #
coedge $-1 $201 $200 $107 $176 forward $202 $-1 #
edge $-1 $249 0 $177 0.2499999999999999722 $107 $250 forward 7 unknown #
vertex $-1 $246 $251 #
straight-curve $-1 3.174999999999999822 10.64927374284274819 -3.175000000000000711 -25.39999999999999858 0 2.819966482547897455e-15 I I #
coedge $-1 $134 $205 $109 $180 reversed $135 $-1 #
edge $-1 $249 0 $181 0.3599999999999999312 $179 $252 forward 7 unknown #
vertex $-1 $180 $253 #
straight-curve $-1 3.174999999999999822 19.79327374284274654 -3.174999999999999822 -25.39999999999999858 0 0 I I #
face $-1 $-1 $222 $2 $-1 $254 reversed single #
plane-surface $-1 3.174999999999999822 10.64927374284274819 -3.174999999999999822 0 0 -1 0 25.39999999999999858 0 forward_v I I I I #
ellipse-curve $-1 -3.174999999999999822 0 0 1 0 0 0 6.085299281624426015 -1.81428571428571761 1 I I #
point $-1 -3.174999999999999822 6.349999999999999645 0 #
face $-1 $255 $256 $2 $-1 $257 forward single #
loop $-1 $-1 $139 $118 #
plane-surface $-1 -9.524999999999998579 -10.64927374284274819 3.174999999999999822 0 -0.2857142857142856984 -0.9583148474999099165 0 24.34119712649771117 -7.257142857142856229 forward_v I I I I #
coedge $-1 $126 $141 $192 $258 forward $119 $-1 #
coedge $-1 $121 $192 $259 $260 forward $69 $-1 #
coedge $-1 $191 $122 $190 $258 reversed $69 $-1 #
straight-curve $-1 3.174999999999999822 10.64927374284274819 3.174999999999998934 -25.39999999999999858 0 2.819966482547897455e-15 I I #
coedge $-1 $205 $124 $128 $197 reversed $135 $-1 #
straight-curve $-1 -9.524999999999998579 10.64927374284274819 3.174999999999999822 0 -24.34119712649770761 -7.257142857142855341 I I #
straight-curve $-1 -3.174999999999999822 10.64927374284274642 3.174999999999999378 0 -24.34119712649771117 -7.257142857142856229 I I #
edge $-1 $233 0 $129 0.3599999999999999312 $194 $261 forward 7 unknown #
point $-1 -9.524999999999998579 10.64927374284274819 3.174999999999999822 #
point $-1 -3.174999999999999822 10.64927374284274819 3.174999999999999822 #
coedge $-1 $175 $132 $134 $204 forward $202 $-1 #
coedge $-1 $132 $175 $146 $217 reversed $202 $-1 #
loop $-1 $-1 $132 $262 #
straight-curve $-1 -9.524999999999998579 6.085299281624426904 -1.81428571428571761 25.39999999999999858 -2.819966482547897455e-15 0 I I #
edge $-1 $136 -7.493068782621960748e-18 $249 0.1874999999999999722 $134 $263 forward 7 unknown #
coedge $-1 $179 $194 $160 $232 reversed $135 $-1 #
face $-1 $162 $135 $2 $-1 $264 reversed single #
point $-1 -9.524999999999998579 6.085299281624426904 -1.814285714285716944 #
coedge $-1 $265 $266 $138 $209 forward $256 $-1 #
edge $-1 $212 4.405373772460162445e-17 $223 0.5795034028720950081 $138 $267 forward 7 unknown #
coedge $-1 $268 $139 $266 $269 reversed $188 $-1 #
coedge $-1 $139 $268 $141 $214 forward $188 $-1 #
vertex $-1 $140 $270 #
straight-curve $-1 -9.524999999999998579 -6.085299281624427792 1.814285714285714057 25.39999999999999858 0 0 I I #
edge $-1 $271 -4.995379188414654622e-18 $142 0.1875000000000000555 $141 $272 forward 7 unknown #
point $-1 -3.174999999999999822 -6.085299281624426015 1.814285714285714057 #
coedge $-1 $147 $146 $171 $246 forward $148 $-1 #
edge $-1 $149 0 $177 0.1874999999999999722 $146 $273 forward 7 unknown #
coedge $-1 $274 $151 $147 $153 forward $222 $-1 #
face $-1 $262 $148 $2 $-1 $275 forward single #
point $-1 -3.174999999999999822 6.085299281624426904 -1.81428571428571761 #
coedge $-1 $151 $274 $265 $276 reversed $222 $-1 #
loop $-1 $-1 $274 $183 #
vertex $-1 $209 $277 #
straight-curve $-1 -9.524999999999998579 -6.085299281624426904 -1.81428571428571761 25.39999999999999858 0 8.459899447643691576e-15 I I #
vertex $-1 $153 $278 #
straight-curve $-1 -3.174999999999999822 -6.085299281624426015 -1.814285714285717166 0 -24.34119712649771472 -7.257142857142837578 I I #
coedge $-1 $259 $279 $155 $228 forward $280 $-1 #
edge $-1 $239 0 $229 0.3600000000000000422 $155 $281 forward 7 unknown #
vertex $-1 $228 $282 #
ellipse-curve $-1 3.174999999999999822 3.524958103184871819e-16 -1.409983241273948727e-15 1 0 0 0 10.64927374284274642 3.175000000000007372 1 I I #
point $-1 3.174999999999999822 10.64927374284274819 3.174999999999999822 #
edge $-1 $181 0 $233 0.25 $205 $283 forward 7 unknown #
vertex $-1 $197 $284 #
straight-curve $-1 3.174999999999999822 19.79327374284274654 3.174999999999999822 -25.39999999999999858 0 0 I I #
plane-surface $-1 3.174999999999999822 19.79327374284274654 -3.174999999999999822 0 1 0 0 0 25.39999999999999858 forward_v I I I I #
coedge $-1 $285 $164 $279 $286 forward $238 $-1 #
coedge $-1 $164 $285 $166 $242 reversed $238 $-1 #
loop $-1 $-1 $236 $255 #
vertex $-1 $165 $287 #
straight-curve $-1 3.174999999999999822 -19.79327374284274654 -3.174999999999999822 0 0 25.39999999999999858 I I #
coedge $-1 $243 $166 $288 $289 reversed $168 $-1 #
edge $-1 $169 0 $290 0.5 $166 $291 forward 7 unknown #
coedge $-1 $167 $241 $274 $292 forward $168 $-1 #
face $-1 $173 $168 $2 $-1 $293 reversed single #
point $-1 3.174999999999999822 -19.79327374284274654 -3.174999999999999822 #
edge $-1 $177 -2.87697879017806847e-16 $225 2.562089250717698441 $216 $294 forward 7 unknown #
straight-curve $-1 -3.174999999999999822 -10.64927374284274819 -3.174999999999999822 25.39999999999999858 1.127986593019158982e-14 -2.255973186038317964e-14 I I #
cone-surface $-1 3.174999999999999822 0 0 -1 0 0 0 0 11.11249999999999893 1 I I 0 1 11.11249999999999893 forward I I I I #
vertex $-1 $204 $295 #
straight-curve $-1 -9.524999999999998579 10.64927374284274819 -3.174999999999999822 25.39999999999999858 0 0 I I #
point $-1 -3.174999999999999822 10.64927374284274819 -3.174999999999999822 #
straight-curve $-1 -9.524999999999998579 10.64927374284274819 -3.174999999999999822 0 25.39999999999999858 0 I I #
point $-1 -9.524999999999998579 19.79327374284274654 -3.174999999999999822 #
plane-surface $-1 -9.524999999999998579 -6.085299281624426904 -1.81428571428571761 0 -0.2857142857142850323 0.9583148474999101385 0 -24.34119712649771472 -7.257142857142837578 forward_v I I I I #
face $-1 $296 $238 $2 $-1 $297 reversed single #
loop $-1 $-1 $298 $187 #
plane-surface $-1 -9.524999999999998579 0 0 -1 0 0 0 -25.39999999999999858 0 forward_v I I I I #
edge $-1 $271 -5.7539575803561362e-17 $130 2.562089250717697997 $190 $299 forward 7 unknown #
coedge $-1 $300 $227 $191 $260 reversed $280 $-1 #
edge $-1 $271 1.552875797679157076e-32 $229 0.25 $191 $301 forward 7 unknown #
straight-curve $-1 -9.524999999999998579 19.79327374284274654 3.174999999999999822 0 -25.39999999999999858 0 I I #
face $-1 $206 $202 $2 $-1 $302 forward single #
straight-curve $-1 -9.524999999999998579 6.085299281624426904 -1.81428571428571761 0 24.34119712649771472 -7.257142857142837578 I I #
plane-surface $-1 -9.524999999999998579 0 0 1 0 0 0 25.39999999999999858 0 forward_v I I I I #
coedge $-1 $288 $208 $221 $276 forward $256 $-1 #
coedge $-1 $208 $303 $210 $269 forward $256 $-1 #
ellipse-curve $-1 -9.524999999999998579 2.467470672229410174e-15 -4.406197628981089773e-17 1 0 0 0 -6.085299281624430456 1.814285714285712725 1 I I #
coedge $-1 $211 $210 $300 $304 forward $188 $-1 #
edge $-1 $305 0 $212 0.1875000000000000278 $266 $306 forward 7 unknown #
point $-1 -9.524999999999998579 -6.08529928162442868 1.814285714285712725 #
vertex $-1 $214 $307 #
straight-curve $-1 -3.174999999999999822 -10.64927374284274642 3.174999999999999378 0 24.34119712649770761 -7.257142857142857117 I I #
straight-curve $-1 -3.174999999999999822 6.085299281624426904 -1.81428571428571761 0 24.34119712649771472 -7.257142857142836689 I I #
coedge $-1 $221 $218 $243 $292 reversed $222 $-1 #
plane-surface $-1 -3.174999999999999822 0 0 -1 0 0 0 0 25.39999999999999858 forward_v I I I I #
edge $-1 $223 0 $308 0.1875000000000002498 $265 $309 forward 7 unknown #
point $-1 -9.524999999999998579 -6.085299281624426904 -1.81428571428571761 #
point $-1 -3.174999999999999822 -10.64927374284274642 -3.174999999999999822 #
coedge $-1 $227 $310 $236 $286 reversed $280 $-1 #
loop $-1 $-1 $310 $296 #
straight-curve $-1 3.174999999999999822 -19.79327374284274654 3.174999999999999822 0 25.39999999999999858 0 I I #
point $-1 3.174999999999999822 -10.64927374284274642 3.174999999999999822 #
straight-curve $-1 -9.524999999999998579 19.79327374284274654 -3.174999999999999822 0 0 25.39999999999999858 I I #
point $-1 -9.524999999999998579 19.79327374284274654 3.174999999999999822 #
coedge $-1 $237 $236 $298 $311 reversed $238 $-1 #
edge $-1 $239 0 $312 0.5 $236 $313 forward 7 unknown #
point $-1 3.174999999999999822 -19.79327374284274654 3.174999999999999822 #
coedge $-1 $298 $265 $241 $289 forward $256 $-1 #
edge $-1 $308 0 $290 0.3599999999999996536 $288 $314 forward 7 unknown #
vertex $-1 $289 $315 #
straight-curve $-1 3.174999999999999822 -19.79327374284274654 -3.174999999999999822 -25.39999999999999858 0 0 I I #
edge $-1 $308 0 $225 0.2499999999999999722 $243 $316 forward 7 unknown #
plane-surface $-1 3.174999999999999822 -10.64927374284274819 -3.174999999999999822 0 0 1 0 -25.39999999999999858 0 forward_v I I I I #
ellipse-curve $-1 -3.174999999999999822 0 -1.409983241273948727e-15 -1 0 0 0 10.64927374284274642 -3.175000000000001155 1 I I #
point $-1 -9.524999999999998579 10.64927374284274819 -3.174999999999999822 #
face $-1 $244 $280 $2 $-1 $317 reversed single #
plane-surface $-1 3.174999999999999822 -19.79327374284274654 -3.174999999999999822 0 1 0 0 0 25.39999999999999858 forward_v I I I I #
coedge $-1 $303 $288 $285 $311 forward $256 $-1 #
ellipse-curve $-1 -3.174999999999999822 7.049916206369743637e-16 0 -1 0 0 0 -10.64927374284274819 3.175000000000001155 1 I I #
coedge $-1 $310 $259 $268 $304 reversed $280 $-1 #
straight-curve $-1 -3.174999999999999822 -10.64927374284274819 3.174999999999999822 25.39999999999999858 5.63993296509579491e-15 5.63993296509579491e-15 I I #
plane-surface $-1 -9.524999999999998579 6.085299281624426904 -1.81428571428571761 0 -0.2857142857142850323 -0.9583148474999101385 0 24.34119712649771472 -7.257142857142837578 forward_v I I I I #
coedge $-1 $266 $298 $310 $318 forward $256 $-1 #
edge $-1 $305 0 $271 0.2499999999999999722 $300 $319 forward 7 unknown #
vertex $-1 $269 $320 #
straight-curve $-1 -9.524999999999998579 -10.64927374284274819 3.174999999999999822 0 24.34119712649771117 -7.257142857142856229 I I #
point $-1 -3.174999999999999822 -10.64927374284274642 3.174999999999999822 #
vertex $-1 $289 $321 #
straight-curve $-1 -9.524999999999998579 -6.085299281624426904 -1.81428571428571761 0 -24.34119712649771472 -7.25714285714284113 I I #
coedge $-1 $279 $300 $303 $318 reversed $280 $-1 #
edge $-1 $290 0 $312 0.25 $298 $322 forward 7 unknown #
vertex $-1 $318 $323 #
straight-curve $-1 3.174999999999999822 -19.79327374284274654 3.174999999999999822 -25.39999999999999858 0 0 I I #
straight-curve $-1 -9.524999999999998579 -10.6492737428427553 -3.174999999999999822 0 -25.39999999999999858 0 I I #
point $-1 -9.524999999999998579 -19.79327374284274654 -3.174999999999999822 #
straight-curve $-1 -9.524999999999998579 -10.64927374284274819 -3.174999999999999822 25.39999999999999858 0 0 I I #
plane-surface $-1 3.174999999999999822 -19.79327374284274654 3.174999999999999822 0 0 -1 0 25.39999999999999858 0 forward_v I I I I #
edge $-1 $312 0 $305 0.3599999999999999312 $303 $324 forward 7 unknown #
straight-curve $-1 -9.524999999999998579 -10.64927374284274819 3.174999999999999822 25.39999999999999858 0 0 I I #
point $-1 -9.524999999999998579 -10.64927374284274819 3.174999999999999822 #
point $-1 -9.524999999999998579 -10.6492737428427553 -3.174999999999999822 #
straight-curve $-1 -9.524999999999998579 -19.79327374284274654 -3.174999999999999822 0 0 25.39999999999999858 I I #
point $-1 -9.524999999999998579 -19.79327374284274654 3.174999999999999822 #
straight-curve $-1 -9.524999999999998579 -19.79327374284274654 3.174999999999999822 0 25.39999999999999858 0 I I #
End-of-ACIS-data 