600 0 1 0           
91 GICL Pro/E ACIS Translator - Source: f:/data5/repository/PTC/V18/process18/hfx-20.prt - 6 0 13 ACIS 6.0.3 NT 24 Thu Apr 04 09:57:25 2002 
1 9.9999999999999995e-007 1e-010 
body $-1 $1 $-1 $2 #
lump $-1 $-1 $3 $0 #
transform $-1 1 0 0 0 1 0 0 0 1 0 0 0 25.399999999999999 no_rotate no_reflect no_shear #
shell $-1 $-1 $-1 $4 $-1 $1 #
face $-1 $5 $6 $3 $-1 $7 reversed single #
face $-1 $8 $9 $3 $-1 $10 reversed single #
loop $-1 $11 $12 $4 #
plane-surface $-1 0.125 0 0 -1 0 0 0 0 1 forward_v I I I I #
face $-1 $13 $14 $3 $-1 $15 reversed single #
loop $-1 $-1 $16 $5 #
cone-surface $-1 -0.125 0 0 1 0 0 0 0.25 0 1 I I 0 1 0.25 forward I I I I #
loop $-1 $-1 $17 $4 #
coedge $-1 $18 $18 $19 $20 reversed $6 $-1 #
face $-1 $21 $22 $3 $-1 $23 forward single #
loop $-1 $-1 $24 $8 #
cone-surface $-1 -0.125 0 0 1 0 0 0 0.25 0 1 I I 0 1 0.25 forward I I I I #
coedge $-1 $19 $25 $26 $27 forward $9 $-1 #
coedge $-1 $28 $29 $30 $31 forward $11 $-1 #
coedge $-1 $12 $12 $32 $33 reversed $6 $-1 #
coedge $-1 $34 $16 $12 $20 forward $9 $-1 #
edge $-1 $35 0 $36 3.1415926535897931 $12 $37 forward 7 unknown #
face $-1 $38 $39 $3 $-1 $40 forward single #
loop $-1 $-1 $41 $13 #
plane-surface $-1 -0.375 0.41926274578121059 0.125 0 -0.2857142857142857 0.95831484749990992 0 -0.95831484749990992 -0.2857142857142857 forward_v I I I I #
coedge $-1 $42 $43 $44 $45 reversed $14 $-1 #
coedge $-1 $16 $46 $47 $48 forward $9 $-1 #
coedge $-1 $47 $32 $16 $27 reversed $14 $-1 #
edge $-1 $49 0 $35 0.25 $26 $50 forward 7 unknown #
coedge $-1 $51 $17 $52 $53 forward $11 $-1 #
coedge $-1 $17 $54 $55 $56 forward $11 $-1 #
coedge $-1 $57 $58 $17 $31 reversed $59 $-1 #
edge $-1 $60 0 $61 0.36000000000000004 $17 $62 forward 7 unknown #
coedge $-1 $26 $63 $18 $33 forward $14 $-1 #
edge $-1 $36 0 $35 3.1415926535897931 $18 $64 forward 7 unknown #
coedge $-1 $65 $19 $63 $66 reversed $9 $-1 #
vertex $-1 $33 $67 #
vertex $-1 $33 $68 #
ellipse-curve $-1 0.125 0 0 1 0 0 0 -0.25 0 1 I I #
face $-1 $69 $70 $3 $-1 $71 forward single #
loop $-1 $-1 $72 $21 #
plane-surface $-1 0.125 0.77926274578121058 0.125 0 0 1 0 -1 0 forward_v I I I I #
coedge $-1 $73 $74 $75 $76 reversed $22 $-1 #
coedge $-1 $77 $24 $78 $79 forward $14 $-1 #
coedge $-1 $24 $80 $81 $82 reversed $14 $-1 #
coedge $-1 $74 $73 $24 $45 forward $22 $-1 #
edge $-1 $83 0 $84 0.25 $24 $85 forward 7 unknown #
coedge $-1 $25 $65 $86 $87 reversed $9 $-1 #
coedge $-1 $88 $26 $25 $48 reversed $14 $-1 #
edge $-1 $89 -2.7755575615628914e-016 $49 0.28975170143604778 $47 $90 forward 7 unknown #
vertex $-1 $48 $91 #
straight-curve $-1 -0.125 -0.25 3.0615158845559431e-017 1 0 0 I I #
coedge $-1 $92 $28 $93 $94 forward $11 $-1 #
coedge $-1 $95 $96 $28 $53 reversed $97 $-1 #
edge $-1 $61 0 $98 0.25 $28 $99 forward 7 unknown #
coedge $-1 $29 $100 $101 $102 reversed $11 $-1 #
coedge $-1 $103 $104 $29 $56 reversed $105 $-1 #
edge $-1 $106 0 $60 2.5620892507176984 $29 $107 forward 7 unknown #
coedge $-1 $108 $30 $104 $109 forward $59 $-1 #
coedge $-1 $30 $110 $95 $111 reversed $59 $-1 #
loop $-1 $-1 $110 $112 #
vertex $-1 $56 $113 #
vertex $-1 $53 $114 #
straight-curve $-1 0.125 0.41926274578121053 -0.125 0 1 0 I I #
coedge $-1 $32 $115 $34 $66 forward $14 $-1 #
ellipse-curve $-1 0.125 0 0 1 0 0 0 0.25 0 1 I I #
coedge $-1 $46 $34 $115 $116 reversed $9 $-1 #
edge $-1 $117 0 $36 0.25 $63 $118 forward 7 unknown #
point $-1 0.125 -0.25 0 #
point $-1 0.125 0.25 0 #
face $-1 $119 $120 $3 $-1 $121 forward single #
loop $-1 $-1 $122 $38 #
cone-surface $-1 0.125 0 0 -1 0 0 0 0 0.4375 1 I I 0 1 0.4375 forward I I I I #
coedge $-1 $93 $75 $123 $124 reversed $39 $-1 #
coedge $-1 $44 $41 $125 $126 forward $22 $-1 #
coedge $-1 $41 $44 $127 $128 reversed $22 $-1 #
coedge $-1 $72 $129 $41 $76 forward $39 $-1 #
edge $-1 $130 0 $131 0.25 $75 $132 forward 7 unknown #
coedge $-1 $115 $42 $133 $134 forward $14 $-1 #
coedge $-1 $125 $135 $42 $79 reversed $136 $-1 #
edge $-1 $83 0 $137 0.57950340287209512 $42 $138 forward 7 unknown #
coedge $-1 $43 $139 $140 $141 forward $14 $-1 #
coedge $-1 $142 $127 $43 $82 forward $120 $-1 #
edge $-1 $84 0 $143 2.5620892507176984 $81 $144 forward 7 unknown #
vertex $-1 $79 $145 #
vertex $-1 $82 $146 #
straight-curve $-1 -0.375 0.23957871187497748 0.071428571428571425 1 0 0 I I #
coedge $-1 $147 $148 $46 $87 forward $149 $-1 #
edge $-1 $89 0 $150 2.5620892507176971 $86 $151 forward 7 unknown #
coedge $-1 $139 $47 $152 $153 reversed $14 $-1 #
vertex $-1 $154 $155 #
ellipse-curve $-1 -0.125 0 0 -1 0 0 0 -0.23957871187497745 -0.07142857142857148 1 I I #
point $-1 -0.125 -0.25 3.0615158845559431e-017 #
coedge $-1 $156 $51 $122 $157 forward $11 $-1 #
coedge $-1 $158 $72 $51 $94 reversed $39 $-1 #
edge $-1 $98 0 $159 0.35999999999999999 $51 $160 forward 7 unknown #
coedge $-1 $161 $52 $58 $111 forward $97 $-1 #
coedge $-1 $52 $161 $158 $162 reversed $97 $-1 #
loop $-1 $-1 $95 $163 #
vertex $-1 $94 $164 #
straight-curve $-1 0.125 0.77926274578121058 -0.125 0 0 1 I I #
coedge $-1 $54 $156 $165 $166 reversed $11 $-1 #
coedge $-1 $167 $168 $54 $102 forward $169 $-1 #
edge $-1 $106 5.5753327832253063e-007 $170 0.36000055753327825 $54 $171 forward 7 unknown #
coedge $-1 $172 $55 $168 $173 reversed $105 $-1 #
coedge $-1 $55 $172 $57 $109 reversed $105 $-1 #
loop $-1 $-1 $172 $174 #
vertex $-1 $56 $175 #
ellipse-curve $-1 0.125 -2.7755575615628914e-017 0 1 0 0 0 -0.41926274578121059 -0.12499999999999982 1 I I #
coedge $-1 $110 $57 $176 $177 reversed $59 $-1 #
edge $-1 $60 -9.2444637330587321e-033 $178 0.25 $104 $179 forward 7 unknown #
coedge $-1 $58 $108 $180 $181 forward $59 $-1 #
edge $-1 $61 0 $182 0.5 $58 $183 forward 7 unknown #
face $-1 $184 $59 $3 $-1 $185 forward single #
point $-1 0.125 0.41926274578121053 -0.12500000000000011 #
point $-1 0.125 0.77926274578121058 -0.125 #
coedge $-1 $63 $77 $65 $116 forward $14 $-1 #
edge $-1 $150 5.5511151231257827e-017 $117 0.28975170143604806 $115 $186 forward 7 unknown #
vertex $-1 $66 $187 #
straight-curve $-1 -0.125 0.25 0 1 0 0 I I #
face $-1 $188 $189 $3 $-1 $190 reversed single #
loop $-1 $-1 $191 $69 #
plane-surface $-1 -0.125 0 0 -1 0 0 0 0 1 forward_v I I I I #
coedge $-1 $123 $192 $92 $157 reversed $70 $-1 #
coedge $-1 $193 $122 $72 $124 forward $70 $-1 #
edge $-1 $159 3.0814879110195774e-033 $131 0.25 $123 $194 forward 7 unknown #
coedge $-1 $195 $78 $73 $126 reversed $136 $-1 #
edge $-1 $130 0 $83 0.1875 $125 $196 forward 7 unknown #
coedge $-1 $81 $191 $74 $128 forward $120 $-1 #
edge $-1 $131 -5.716224265753141e-017 $84 0.18749999999999992 $127 $197 forward 7 unknown #
coedge $-1 $75 $158 $195 $198 forward $39 $-1 #
vertex $-1 $198 $199 #
vertex $-1 $128 $200 #
straight-curve $-1 -0.375 0.41926274578121059 0.125 1 0 0 I I #
coedge $-1 $201 $202 $77 $134 reversed $203 $-1 #
edge $-1 $137 0 $150 0.25 $77 $204 forward 7 unknown #
coedge $-1 $78 $180 $201 $205 reversed $136 $-1 #
loop $-1 $-1 $206 $207 #
vertex $-1 $134 $208 #
ellipse-curve $-1 -0.375 -9.7144514654701197e-017 4.163336342344337e-017 -1 0 0 0 0.23957871187497759 0.071428571428571397 1 I I #
coedge $-1 $80 $88 $209 $210 reversed $14 $-1 #
coedge $-1 $211 $212 $80 $141 reversed $189 $-1 #
edge $-1 $213 0 $143 0.25 $80 $214 forward 7 unknown #
coedge $-1 $191 $81 $212 $215 reversed $120 $-1 #
vertex $-1 $215 $216 #
ellipse-curve $-1 -0.125 0 0 1 0 0 0 0.23957871187497751 0.071428571428571452 1 I I #
point $-1 -0.375 0.23957871187497751 0.071428571428571438 #
point $-1 -0.125 0.23957871187497751 0.071428571428571452 #
coedge $-1 $217 $86 $202 $218 forward $149 $-1 #
coedge $-1 $86 $217 $219 $154 reversed $149 $-1 #
loop $-1 $-1 $86 $220 #
vertex $-1 $218 $221 #
ellipse-curve $-1 -0.125 0 0 1 0 0 0 -0.23957871187497742 -0.07142857142857155 1 I I #
coedge $-1 $219 $222 $88 $153 forward $223 $-1 #
edge $-1 $224 0 $89 0.25 $88 $225 forward 7 unknown #
edge $-1 $89 0 $226 0.18750000000000003 $148 $227 forward 7 unknown #
point $-1 -0.125 -0.23957871187497742 -0.07142857142857155 #
coedge $-1 $100 $92 $228 $229 reversed $11 $-1 #
edge $-1 $159 -6.1628706673069904e-016 $230 2.5620892507176976 $92 $231 forward 7 unknown #
coedge $-1 $129 $93 $96 $162 forward $39 $-1 #
vertex $-1 $157 $232 #
straight-curve $-1 0.125 0.77926274578121058 0.125 0 -1 0 I I #
coedge $-1 $96 $95 $206 $233 forward $97 $-1 #
edge $-1 $98 0 $234 0.5 $96 $235 forward 7 unknown #
face $-1 $112 $97 $3 $-1 $236 forward single #
point $-1 0.125 0.77926274578121058 0.125 #
coedge $-1 $237 $238 $100 $166 forward $239 $-1 #
edge $-1 $170 0 $240 0.25 $100 $241 forward 7 unknown #
coedge $-1 $242 $101 $238 $243 forward $169 $-1 #
coedge $-1 $101 $244 $103 $173 forward $169 $-1 #
loop $-1 $-1 $168 $245 #
vertex $-1 $102 $246 #
straight-curve $-1 0.125 -0.41926218824793232 -0.125 0 -1 0 I I #
coedge $-1 $104 $103 $217 $247 reversed $105 $-1 #
edge $-1 $226 2.4651903288156619e-032 $106 0.25 $103 $248 forward 7 unknown #
face $-1 $220 $105 $3 $-1 $249 forward single #
point $-1 0.125 -0.41926274578121064 -0.12499999999999982 #
coedge $-1 $202 $201 $108 $177 forward $203 $-1 #
edge $-1 $250 0 $178 0.25 $108 $251 forward 7 unknown #
vertex $-1 $247 $252 #
straight-curve $-1 0.125 0.41926274578121059 -0.12500000000000003 -1 0 1.1102230246251565e-016 I I #
coedge $-1 $135 $206 $110 $181 reversed $136 $-1 #
edge $-1 $250 0 $182 0.35999999999999999 $180 $253 forward 7 unknown #
vertex $-1 $181 $254 #
straight-curve $-1 0.125 0.77926274578121058 -0.125 -1 0 0 I I #
face $-1 $-1 $223 $3 $-1 $255 reversed single #
plane-surface $-1 0.125 0.41926274578121059 -0.125 0 0 -1 0 1 0 forward_v I I I I #
ellipse-curve $-1 -0.125 0 0 1 0 0 0 0.23957871187497742 -0.071428571428571563 1 I I #
point $-1 -0.125 0.25 0 #
face $-1 $256 $257 $3 $-1 $258 forward single #
loop $-1 $-1 $140 $119 #
plane-surface $-1 -0.375 -0.41926274578121059 0.125 0 -0.2857142857142857 -0.95831484749990992 0 0.95831484749990992 -0.2857142857142857 forward_v I I I I #
coedge $-1 $127 $142 $193 $259 forward $120 $-1 #
coedge $-1 $122 $193 $260 $261 forward $70 $-1 #
coedge $-1 $192 $123 $191 $259 reversed $70 $-1 #
straight-curve $-1 0.125 0.41926274578121059 0.12499999999999997 -1 0 1.1102230246251565e-016 I I #
coedge $-1 $206 $125 $129 $198 reversed $136 $-1 #
straight-curve $-1 -0.375 0.41926274578121059 0.125 0 -0.95831484749990981 -0.28571428571428564 I I #
straight-curve $-1 -0.125 0.41926274578121053 0.12499999999999999 0 -0.95831484749990992 -0.2857142857142857 I I #
edge $-1 $234 0 $130 0.35999999999999999 $195 $262 forward 7 unknown #
point $-1 -0.375 0.41926274578121059 0.125 #
point $-1 -0.125 0.41926274578121059 0.125 #
coedge $-1 $176 $133 $135 $205 forward $203 $-1 #
coedge $-1 $133 $176 $147 $218 reversed $203 $-1 #
loop $-1 $-1 $133 $263 #
straight-curve $-1 -0.375 0.23957871187497745 -0.071428571428571563 1 -1.1102230246251565e-016 0 I I #
edge $-1 $137 -7.9301644616082436e-018 $250 0.18750000000000006 $135 $264 forward 7 unknown #
coedge $-1 $180 $195 $161 $233 reversed $136 $-1 #
face $-1 $163 $136 $3 $-1 $265 reversed single #
point $-1 -0.375 0.23957871187497745 -0.071428571428571536 #
coedge $-1 $266 $267 $139 $210 forward $257 $-1 #
edge $-1 $213 0 $224 0.57950340287209501 $139 $268 forward 7 unknown #
coedge $-1 $269 $140 $267 $270 reversed $189 $-1 #
coedge $-1 $140 $269 $142 $215 forward $189 $-1 #
vertex $-1 $141 $271 #
straight-curve $-1 -0.375 -0.23957871187497748 0.071428571428571425 1 0 0 I I #
edge $-1 $272 -3.9650822308041318e-018 $143 0.18750000000000003 $142 $273 forward 7 unknown #
point $-1 -0.125 -0.23957871187497742 0.071428571428571425 #
coedge $-1 $148 $147 $172 $247 forward $149 $-1 #
edge $-1 $150 0 $178 0.18750000000000006 $147 $274 forward 7 unknown #
coedge $-1 $275 $152 $148 $154 forward $223 $-1 #
face $-1 $263 $149 $3 $-1 $276 forward single #
point $-1 -0.125 0.23957871187497745 -0.071428571428571563 #
coedge $-1 $152 $275 $266 $277 reversed $223 $-1 #
loop $-1 $-1 $275 $184 #
vertex $-1 $210 $278 #
straight-curve $-1 -0.375 -0.23957871187497745 -0.071428571428571563 1 0 3.3306690738754696e-016 I I #
vertex $-1 $154 $279 #
straight-curve $-1 -0.125 -0.23957871187497742 -0.07142857142857155 0 -0.95831484749991003 -0.28571428571428498 I I #
coedge $-1 $260 $280 $156 $229 forward $281 $-1 #
edge $-1 $240 0 $230 0.36000000000000004 $156 $282 forward 7 unknown #
vertex $-1 $229 $283 #
ellipse-curve $-1 0.125 1.3877787807814457e-017 -5.5511151231257827e-017 1 0 0 0 0.41926274578121048 0.12500000000000031 1 I I #
point $-1 0.125 0.41926274578121059 0.125 #
edge $-1 $182 0 $234 0.25 $206 $284 forward 7 unknown #
vertex $-1 $198 $285 #
straight-curve $-1 0.125 0.77926274578121058 0.125 -1 0 0 I I #
plane-surface $-1 0.125 0.77926274578121058 -0.125 0 1 0 0 0 1 forward_v I I I I #
coedge $-1 $286 $165 $280 $287 forward $239 $-1 #
coedge $-1 $165 $286 $167 $243 reversed $239 $-1 #
loop $-1 $-1 $237 $256 #
vertex $-1 $166 $288 #
straight-curve $-1 0.125 -0.77926274578121058 -0.125 0 0 1 I I #
coedge $-1 $244 $167 $289 $290 reversed $169 $-1 #
edge $-1 $170 0 $291 0.5 $167 $292 forward 7 unknown #
coedge $-1 $168 $242 $275 $293 forward $169 $-1 #
face $-1 $174 $169 $3 $-1 $294 reversed single #
point $-1 0.125 -0.77926274578121058 -0.125 #
edge $-1 $178 -2.5376526277146434e-016 $226 2.5620892507176984 $217 $295 forward 7 unknown #
straight-curve $-1 -0.125 -0.41926274578121059 -0.125 1 4.4408920985006262e-016 -8.8817841970012523e-016 I I #
cone-surface $-1 0.125 0 0 -1 0 0 0 0 0.4375 1 I I 0 1 0.4375 forward I I I I #
vertex $-1 $205 $296 #
straight-curve $-1 -0.375 0.41926274578121059 -0.125 1 0 0 I I #
point $-1 -0.125 0.41926274578121059 -0.125 #
straight-curve $-1 -0.375 0.41926274578121059 -0.125 0 1 0 I I #
point $-1 -0.375 0.77926274578121058 -0.125 #
plane-surface $-1 -0.375 -0.23957871187497745 -0.071428571428571563 0 -0.28571428571428503 0.95831484749991014 0 -0.95831484749991003 -0.28571428571428498 forward_v I I I I #
face $-1 $297 $239 $3 $-1 $298 reversed single #
loop $-1 $-1 $299 $188 #
plane-surface $-1 -0.375 0 0 -1 0 0 0 -1 0 forward_v I I I I #
edge $-1 $272 -1.0875654118777042e-016 $131 2.5620892507176984 $191 $300 forward 7 unknown #
coedge $-1 $301 $228 $192 $261 reversed $281 $-1 #
edge $-1 $272 1.2325951644078309e-032 $230 0.25 $192 $302 forward 7 unknown #
straight-curve $-1 -0.375 0.77926274578121058 0.125 0 -1 0 I I #
face $-1 $207 $203 $3 $-1 $303 forward single #
straight-curve $-1 -0.375 0.23957871187497745 -0.071428571428571563 0 0.95831484749991003 -0.28571428571428498 I I #
plane-surface $-1 -0.375 0 0 1 0 0 0 1 0 forward_v I I I I #
coedge $-1 $289 $209 $222 $277 forward $257 $-1 #
coedge $-1 $209 $304 $211 $270 forward $257 $-1 #
ellipse-curve $-1 -0.375 9.7144514654701197e-017 -1.7347234759768071e-018 1 0 0 0 -0.23957871187497759 0.071428571428571369 1 I I #
coedge $-1 $212 $211 $301 $305 forward $189 $-1 #
edge $-1 $306 0 $213 0.1875 $267 $307 forward 7 unknown #
point $-1 -0.375 -0.23957871187497751 0.071428571428571369 #
vertex $-1 $215 $308 #
straight-curve $-1 -0.125 -0.41926274578121053 0.12499999999999999 0 0.95831484749990981 -0.2857142857142857 I I #
straight-curve $-1 -0.125 0.23957871187497745 -0.071428571428571563 0 0.95831484749991003 -0.28571428571428492 I I #
coedge $-1 $222 $219 $244 $293 reversed $223 $-1 #
plane-surface $-1 -0.125 0 0 -1 0 0 0 0 1 forward_v I I I I #
edge $-1 $224 0 $309 0.18750000000000028 $266 $310 forward 7 unknown #
point $-1 -0.375 -0.23957871187497745 -0.071428571428571563 #
point $-1 -0.125 -0.41926274578121053 -0.125 #
coedge $-1 $228 $311 $237 $287 reversed $281 $-1 #
loop $-1 $-1 $311 $297 #
straight-curve $-1 0.125 -0.77926274578121058 0.125 0 1 0 I I #
point $-1 0.125 -0.41926274578121053 0.125 #
straight-curve $-1 -0.375 0.77926274578121058 -0.125 0 0 1 I I #
point $-1 -0.375 0.77926274578121058 0.125 #
coedge $-1 $238 $237 $299 $312 reversed $239 $-1 #
edge $-1 $240 0 $313 0.5 $237 $314 forward 7 unknown #
point $-1 0.125 -0.77926274578121058 0.125 #
coedge $-1 $299 $266 $242 $290 forward $257 $-1 #
edge $-1 $309 0 $291 0.35999999999999971 $289 $315 forward 7 unknown #
vertex $-1 $290 $316 #
straight-curve $-1 0.125 -0.77926274578121058 -0.125 -1 0 0 I I #
edge $-1 $309 0 $226 0.25 $244 $317 forward 7 unknown #
plane-surface $-1 0.125 -0.41926274578121059 -0.125 0 0 1 0 -1 0 forward_v I I I I #
ellipse-curve $-1 -0.125 0 -5.5511151231257827e-017 -1 0 0 0 0.41926274578121053 -0.12500000000000006 1 I I #
point $-1 -0.375 0.41926274578121059 -0.125 #
face $-1 $245 $281 $3 $-1 $318 reversed single #
plane-surface $-1 0.125 -0.77926274578121058 -0.125 0 1 0 0 0 1 forward_v I I I I #
coedge $-1 $304 $289 $286 $312 forward $257 $-1 #
ellipse-curve $-1 -0.125 2.7755575615628914e-017 0 -1 0 0 0 -0.41926274578121059 0.12500000000000006 1 I I #
coedge $-1 $311 $260 $269 $305 reversed $281 $-1 #
straight-curve $-1 -0.125 -0.41926274578121059 0.125 1 2.2204460492503131e-016 2.2204460492503131e-016 I I #
plane-surface $-1 -0.375 0.23957871187497745 -0.071428571428571563 0 -0.28571428571428503 -0.95831484749991014 0 0.95831484749991003 -0.28571428571428498 forward_v I I I I #
coedge $-1 $267 $299 $311 $319 forward $257 $-1 #
edge $-1 $306 0 $272 0.25 $301 $320 forward 7 unknown #
vertex $-1 $270 $321 #
straight-curve $-1 -0.375 -0.41926274578121059 0.125 0 0.95831484749990992 -0.2857142857142857 I I #
point $-1 -0.125 -0.41926274578121053 0.125 #
vertex $-1 $290 $322 #
straight-curve $-1 -0.375 -0.23957871187497745 -0.071428571428571563 0 -0.95831484749991014 -0.28571428571428509 I I #
coedge $-1 $280 $301 $304 $319 reversed $281 $-1 #
edge $-1 $291 0 $313 0.25 $299 $323 forward 7 unknown #
vertex $-1 $319 $324 #
straight-curve $-1 0.125 -0.77926274578121058 0.125 -1 0 0 I I #
straight-curve $-1 -0.375 -0.41926274578121087 -0.125 0 -1 0 I I #
point $-1 -0.375 -0.77926274578121058 -0.125 #
straight-curve $-1 -0.375 -0.41926274578121059 -0.125 1 0 0 I I #
plane-surface $-1 0.125 -0.77926274578121058 0.125 0 0 -1 0 1 0 forward_v I I I I #
edge $-1 $313 0 $306 0.35999999999999999 $304 $325 forward 7 unknown #
straight-curve $-1 -0.375 -0.41926274578121059 0.125 1 0 0 I I #
point $-1 -0.375 -0.41926274578121059 0.125 #
point $-1 -0.375 -0.41926274578121087 -0.125 #
straight-curve $-1 -0.375 -0.77926274578121058 -0.125 0 0 1 I I #
point $-1 -0.375 -0.77926274578121058 0.125 #
straight-curve $-1 -0.375 -0.77926274578121058 0.125 0 1 0 I I #
End-of-ACIS-data 