600 0 1 0           
85 GICL ACIS Healer - Source: /gicl/data5/repository/PTC/V18/process18/hg89-30.sat - 6 0 18 ACIS 6.0.3 Solaris 24 Sat Apr 13 21:17:10 2002 
1 9.999999999999999547e-07 1.000000000000000036e-10 
body $-1 $1 $-1 $-1 #
lump $-1 $-1 $2 $0 #
shell $-1 $-1 $-1 $3 $-1 $1 #
face $-1 $4 $5 $2 $-1 $6 reversed single #
face $-1 $7 $8 $2 $-1 $9 forward single #
loop $-1 $-1 $10 $3 #
cone-surface $-1 0 0 -1.524000000000001354 0 0 1 0 -1.587499999999999911 0 1 I I 0 1 1.587499999999999911 forward I I I I #
face $-1 $11 $12 $2 $-1 $13 forward single #
loop $-1 $14 $15 $4 #
plane-surface $-1 0 0 3.809999999999999609 0 0 1 0 -25.39999999999999858 0 forward_v I I I I #
coedge $-1 $16 $17 $18 $19 forward $5 $-1 #
face $-1 $20 $21 $2 $-1 $22 forward single #
loop $-1 $-1 $23 $7 #
torus-surface $-1 0 0 2.539999999999999591 0 0 1 4.444999999999999396 1.269999999999999796 0 -1 0 forward_v I I I I #
loop $-1 $-1 $18 $4 #
coedge $-1 $24 $24 $25 $26 reversed $8 $-1 #
coedge $-1 $27 $10 $28 $29 reversed $5 $-1 #
coedge $-1 $10 $27 $30 $31 forward $5 $-1 #
coedge $-1 $32 $32 $10 $19 reversed $14 $-1 #
edge $-1 $33 1.224606353822377012e-16 $34 3.141592653589793116 $10 $35 forward 7 unknown #
face $-1 $36 $37 $2 $-1 $38 reversed single #
loop $-1 $-1 $39 $11 #
torus-surface $-1 0 0 2.539999999999999591 0 0 1 4.444999999999999396 1.269999999999999796 0 -1 0 forward_v I I I I #
coedge $-1 $25 $40 $41 $42 forward $12 $-1 #
coedge $-1 $15 $15 $43 $44 forward $8 $-1 #
coedge $-1 $45 $23 $15 $26 forward $12 $-1 #
edge $-1 $46 0 $47 3.141592653589793116 $15 $48 forward 7 unknown #
coedge $-1 $17 $16 $49 $50 reversed $5 $-1 #
coedge $-1 $51 $52 $16 $29 forward $53 $-1 #
edge $-1 $54 0 $34 0.2000000000000000111 $16 $55 forward 7 unknown #
coedge $-1 $52 $51 $17 $31 reversed $53 $-1 #
edge $-1 $56 0 $33 0.2000000000000000111 $17 $57 forward 7 unknown #
coedge $-1 $18 $18 $51 $58 forward $14 $-1 #
vertex $-1 $31 $59 #
vertex $-1 $29 $60 #
ellipse-curve $-1 4.406197628981089773e-17 0 3.809999999999999609 0 0 1 -4.406197628981089773e-17 1.587499999999999911 0 1 I I #
face $-1 $61 $62 $2 $-1 $63 forward single #
loop $-1 $64 $65 $20 #
plane-surface $-1 0 0 2.539999999999999591 0 0 1 0 -25.39999999999999858 0 forward_v I I I I #
coedge $-1 $43 $66 $45 $67 forward $21 $-1 #
coedge $-1 $23 $45 $68 $69 reversed $12 $-1 #
coedge $-1 $66 $43 $23 $42 reversed $21 $-1 #
edge $-1 $70 -7.212078703273657904e-17 $46 1.570796326794897002 $41 $71 forward 7 unknown #
coedge $-1 $41 $39 $24 $44 reversed $21 $-1 #
edge $-1 $46 0 $47 3.141592653589793116 $24 $72 forward 7 unknown #
coedge $-1 $40 $25 $39 $67 reversed $12 $-1 #
vertex $-1 $44 $73 #
vertex $-1 $44 $74 #
ellipse-curve $-1 0 0 3.809999999999999609 0 0 -1 -5.443375242740466479e-16 4.444999999999999396 0 1 I I #
coedge $-1 $75 $75 $27 $50 forward $76 $-1 #
edge $-1 $56 0 $54 3.141592653589793116 $27 $77 forward 7 unknown #
coedge $-1 $30 $28 $32 $58 reversed $53 $-1 #
coedge $-1 $28 $30 $75 $78 forward $53 $-1 #
loop $-1 $-1 $52 $79 #
vertex $-1 $50 $80 #
straight-curve $-1 3.888125173386047696e-16 -1.587499999999999911 -1.270000000000000018 0 0 25.39999999999999858 I I #
vertex $-1 $31 $81 #
straight-curve $-1 -1.944062586693023848e-16 1.587499999999999911 -1.270000000000000018 0 0 25.39999999999999858 I I #
edge $-1 $33 -1.224606353822377258e-16 $34 3.141592653589793116 $32 $82 forward 7 unknown #
point $-1 -1.944062586693023848e-16 1.587499999999999911 3.810000000000000497 #
point $-1 0 -1.587499999999999911 3.809999999999999609 #
face $-1 $83 $84 $2 $-1 $85 forward single #
loop $-1 $-1 $86 $36 #
cone-surface $-1 0 0 -1.524000000000001354 0 0 1 0 -3.174999999999999822 0 1 I I 0 1 3.174999999999999822 forward I I I I #
loop $-1 $-1 $87 $20 #
coedge $-1 $88 $88 $86 $89 reversed $37 $-1 #
coedge $-1 $39 $41 $87 $90 forward $21 $-1 #
edge $-1 $91 -7.212078703273657904e-17 $47 1.570796326794897002 $39 $92 forward 7 unknown #
coedge $-1 $87 $87 $40 $69 forward $64 $-1 #
edge $-1 $70 0 $91 3.141592653589793116 $68 $93 forward 7 unknown #
vertex $-1 $69 $94 #
ellipse-curve $-1 -5.443375242740467465e-16 4.444999999999999396 2.540000000000000036 1 1.224606353822377012e-16 -3.487204643940095845e-32 -1.555250069354418043e-16 1.269999999999999574 -3.524958103184871819e-16 1 I I #
ellipse-curve $-1 0 -1.762479051592435909e-16 3.809999999999999609 0 0 1 -5.443375242740466479e-16 4.444999999999999396 0 1 I I #
point $-1 -5.443375242740466479e-16 4.444999999999999396 3.809999999999999609 #
point $-1 0 -4.444999999999999396 3.809999999999999609 #
coedge $-1 $49 $49 $52 $78 reversed $76 $-1 #
loop $-1 $95 $75 $96 #
ellipse-curve $-1 4.406197628981089773e-17 -4.406197628981089773e-17 -1.269999999999999796 -1.667734961217822047e-32 1.11022302462515654e-16 1 -2.384682349591132702e-16 1.587499999999999911 -1.762479051592435909e-16 1 I I #
edge $-1 $56 0 $54 3.141592653589793116 $75 $97 forward 7 unknown #
face $-1 $-1 $53 $2 $-1 $98 reversed single #
point $-1 0 -1.587499999999999911 -1.270000000000000018 #
point $-1 -1.944062586693023848e-16 1.587499999999999911 -1.270000000000000018 #
ellipse-curve $-1 -4.406197628981089773e-17 0 3.809999999999999609 0 0 -1 4.406197628981089773e-17 1.587499999999999911 0 1 I I #
face $-1 $99 $100 $2 $-1 $101 forward single #
loop $-1 $-1 $102 $61 #
cone-surface $-1 0 0 -1.524000000000001354 0 0 1 0 -3.174999999999999822 0 1 I I 0 1 3.174999999999999822 forward I I I I #
coedge $-1 $103 $104 $65 $89 forward $62 $-1 #
coedge $-1 $68 $68 $66 $90 reversed $64 $-1 #
coedge $-1 $65 $65 $105 $106 forward $37 $-1 #
edge $-1 $107 -9.781894788530123603e-33 $108 3.141592653589793116 $65 $109 forward 7 unknown #
edge $-1 $70 1.207641331917299631e-32 $91 3.141592653589793116 $87 $110 forward 7 unknown #
vertex $-1 $69 $111 #
ellipse-curve $-1 1.088675048548093493e-15 -4.444999999999999396 2.540000000000000036 -1 -2.449212707644754023e-16 -6.974409287880191689e-32 3.110500138708836086e-16 -1.269999999999999574 -3.524958103184871819e-16 1 I I #
ellipse-curve $-1 1.762479051592435909e-16 0 2.539999999999999591 0 0 -1 -8.761104363687321171e-16 5.71499999999999897 0 1 I I #
point $-1 -6.998625312094885755e-16 5.71499999999999897 2.539999999999999591 #
loop $-1 $-1 $112 $96 #
face $-1 $79 $76 $2 $-1 $113 reversed single #
ellipse-curve $-1 -8.812395257962179547e-17 -4.406197628981089773e-17 -1.269999999999999796 7.43288587911948837e-33 -1.11022302462515654e-16 -1 -1.062823060896805893e-16 1.587499999999999911 -1.762479051592435909e-16 1 I I #
cone-surface $-1 0 0 -1.524000000000001354 0 0 1 0 -1.587499999999999911 0 1 I I 0 1 1.587499999999999911 forward I I I I #
face $-1 $114 $115 $2 $-1 $116 forward single #
loop $-1 $117 $118 $83 #
plane-surface $-1 0 0 0 0 0 1 0 -25.39999999999999858 0 forward_v I I I I #
coedge $-1 $119 $120 $121 $122 forward $84 $-1 #
coedge $-1 $123 $86 $119 $124 forward $62 $-1 #
coedge $-1 $86 $123 $120 $125 reversed $62 $-1 #
coedge $-1 $120 $119 $88 $106 reversed $84 $-1 #
edge $-1 $107 0 $108 3.141592653589793116 $88 $126 forward 7 unknown #
vertex $-1 $106 $127 #
vertex $-1 $106 $128 #
ellipse-curve $-1 -5.287437154777307235e-16 -1.762479051592435909e-16 2.539999999999999591 4.893065764958821089e-33 1.11022302462515654e-16 -1 1.399311981391260032e-16 3.174999999999999822 3.524958103184871819e-16 1 I I #
ellipse-curve $-1 -1.762479051592435909e-16 0 2.539999999999999591 0 0 1 -5.236146260502449352e-16 5.71499999999999897 0 1 I I #
point $-1 1.399725062418977151e-15 -5.71499999999999897 2.539999999999999591 #
coedge $-1 $129 $129 $130 $131 reversed $95 $-1 #
plane-surface $-1 0 0 -1.269999999999999796 0 0 1 0 -25.39999999999999858 0 forward_v I I I I #
face $-1 $96 $132 $2 $-1 $133 forward single #
loop $-1 $-1 $134 $99 #
torus-surface $-1 0 0 0 0 0 1 4.444999999999999396 1.269999999999999796 0 -1 0 forward_v I I I I #
loop $-1 $-1 $121 $83 #
coedge $-1 $135 $135 $136 $137 reversed $100 $-1 #
coedge $-1 $105 $102 $103 $124 reversed $84 $-1 #
coedge $-1 $102 $105 $104 $125 forward $84 $-1 #
coedge $-1 $138 $138 $102 $122 reversed $117 $-1 #
edge $-1 $139 1.224606353822377258e-16 $140 3.141592653589793116 $102 $141 forward 7 unknown #
coedge $-1 $104 $103 $138 $142 reversed $62 $-1 #
edge $-1 $108 0 $140 0.1000000000000000056 $119 $143 forward 7 unknown #
edge $-1 $107 0 $139 0.1000000000000000056 $120 $144 forward 7 unknown #
ellipse-curve $-1 8.812395257962179547e-17 -8.812395257962179547e-17 2.539999999999999591 1.667734961217822047e-32 -1.11022302462515654e-16 1 -4.769364699182265404e-16 3.174999999999999822 3.524958103184871819e-16 1 I I #
point $-1 -3.888125173386047696e-16 3.174999999999999822 2.540000000000000036 #
point $-1 0 -3.174999999999999822 2.540000000000000036 #
coedge $-1 $112 $112 $145 $146 forward $95 $-1 #
coedge $-1 $147 $148 $112 $131 forward $132 $-1 #
edge $-1 $149 0 $150 3.141592653589793116 $112 $151 forward 7 unknown #
loop $-1 $-1 $147 $114 #
torus-surface $-1 0 0 0 0 0 1 4.444999999999999396 1.269999999999999796 0 -1 0 forward_v I I I I #
coedge $-1 $136 $145 $148 $152 forward $115 $-1 #
coedge $-1 $118 $118 $153 $154 forward $100 $-1 #
coedge $-1 $155 $134 $118 $137 forward $115 $-1 #
edge $-1 $156 0 $157 3.141592653589793116 $118 $158 forward 7 unknown #
coedge $-1 $121 $121 $123 $142 forward $117 $-1 #
vertex $-1 $125 $159 #
vertex $-1 $124 $160 #
ellipse-curve $-1 0 -8.812395257962179547e-17 0 0 0 1 0 3.174999999999999822 0 1 I I #
edge $-1 $139 -1.224606353822377258e-16 $140 3.141592653589793116 $138 $161 forward 7 unknown #
straight-curve $-1 7.776250346772095392e-16 -3.174999999999999822 2.540000000000000036 0 0 -25.39999999999999858 I I #
straight-curve $-1 -3.888125173386047696e-16 3.174999999999999822 2.540000000000000036 0 0 -25.39999999999999858 I I #
coedge $-1 $134 $155 $129 $146 reversed $115 $-1 #
edge $-1 $149 0 $150 3.141592653589793116 $129 $162 forward 7 unknown #
coedge $-1 $153 $130 $155 $163 forward $132 $-1 #
coedge $-1 $130 $153 $134 $152 reversed $132 $-1 #
vertex $-1 $146 $164 #
vertex $-1 $146 $165 #
ellipse-curve $-1 0 -1.762479051592435909e-16 -1.269999999999999796 0 0 1 -5.443375242740466479e-16 4.444999999999999396 0 1 I I #
edge $-1 $149 1.44241574065473232e-16 $156 1.57079632679489567 $134 $166 forward 7 unknown #
coedge $-1 $148 $147 $135 $154 reversed $132 $-1 #
edge $-1 $156 1.207641331917299631e-32 $157 3.141592653589793116 $135 $167 forward 7 unknown #
coedge $-1 $145 $136 $147 $163 reversed $115 $-1 #
vertex $-1 $154 $168 #
vertex $-1 $154 $169 #
ellipse-curve $-1 1.762479051592435909e-16 0 0 0 0 -1 -8.761104363687321171e-16 5.71499999999999897 0 1 I I #
point $-1 -3.888125173386047696e-16 3.174999999999999822 0 #
point $-1 0 -3.174999999999999822 0 #
ellipse-curve $-1 0 -8.812395257962179547e-17 0 0 0 -1 0 3.174999999999999822 0 1 I I #
ellipse-curve $-1 0 0 -1.269999999999999796 0 0 -1 -5.443375242740466479e-16 4.444999999999999396 0 1 I I #
edge $-1 $150 1.44241574065473232e-16 $157 1.57079632679489567 $155 $170 forward 7 unknown #
point $-1 -5.443375242740466479e-16 4.444999999999999396 -1.269999999999999796 #
point $-1 1.088675048548093296e-15 -4.444999999999999396 -1.269999999999999796 #
ellipse-curve $-1 -5.443375242740465493e-16 4.444999999999998508 4.846817391879198627e-16 1 1.224606353822377012e-16 6.34955028540165315e-33 -7.826979293989726069e-32 7.049916206369743637e-16 -1.270000000000000462 1 I I #
ellipse-curve $-1 -1.762479051592435909e-16 0 0 0 0 1 -5.236146260502449352e-16 5.71499999999999897 0 1 I I #
point $-1 -6.998625312094885755e-16 5.71499999999999897 0 #
point $-1 0 -5.71499999999999897 0 #
ellipse-curve $-1 0 -4.444999999999998508 4.846817391879198627e-16 -1 0 0 0 -7.049916206369743637e-16 -1.270000000000000462 1 I I #
End-of-ACIS-data 