600 0 1 0           
89 GICL ACIS Healer - Source: /gicl/data5/repository/PTC/V18/process18/hn25-20.prt.sat - 6 0 18 ACIS 6.0.3 Solaris 24 Sat Apr 13 21:18:03 2002 
1 9.999999999999999547e-07 1.000000000000000036e-10 
body $-1 $1 $-1 $-1 #
lump $-1 $-1 $2 $0 #
shell $-1 $-1 $-1 $3 $-1 $1 #
face $-1 $4 $5 $2 $-1 $6 reversed single #
face $-1 $7 $8 $2 $-1 $9 forward single #
loop $-1 $10 $11 $3 #
plane-surface $-1 0 0 -0.9524999999999999023 0 0 1 25.39999999999999858 0 0 forward_v I I I I #
face $-1 $12 $13 $2 $-1 $14 forward single #
loop $-1 $-1 $15 $4 #
plane-surface $-1 -2.749630657015591506 0 -0.9524999999999999023 -0.8660254037844388186 -0.499999999999999889 0 12.69999999999999929 -21.99704525612474981 0 forward_v I I I I #
loop $-1 $-1 $16 $3 #
coedge $-1 $17 $18 $19 $20 reversed $5 $-1 #
face $-1 $21 $22 $2 $-1 $23 forward single #
loop $-1 $-1 $24 $7 #
plane-surface $-1 -1.374815328507797974 -2.381249999999999645 -0.9524999999999999023 0 -1 0 25.39999999999999858 0 0 forward_v I I I I #
coedge $-1 $25 $19 $26 $27 forward $8 $-1 #
coedge $-1 $28 $28 $29 $30 reversed $10 $-1 #
coedge $-1 $31 $11 $32 $33 reversed $5 $-1 #
coedge $-1 $11 $34 $35 $36 reversed $5 $-1 #
coedge $-1 $15 $37 $11 $20 forward $8 $-1 #
edge $-1 $38 0 $39 0.1082531754730547691 $11 $40 forward 7 unknown #
face $-1 $41 $42 $2 $-1 $43 forward single #
loop $-1 $-1 $44 $12 #
plane-surface $-1 1.374815328507793977 -2.381249999999999645 -0.9524999999999999023 0.8660254037844387076 -0.500000000000000111 0 12.69999999999999929 21.9970452561247356 0 forward_v I I I I #
coedge $-1 $45 $35 $46 $47 forward $13 $-1 #
coedge $-1 $37 $15 $48 $49 reversed $8 $-1 #
coedge $-1 $35 $45 $15 $27 reversed $13 $-1 #
edge $-1 $39 0 $50 0.07499999999999999722 $26 $51 forward 7 unknown #
coedge $-1 $16 $16 $52 $53 reversed $10 $-1 #
coedge $-1 $54 $55 $16 $30 forward $56 $-1 #
edge $-1 $57 0 $58 3.141592653589793116 $16 $59 forward 7 unknown #
coedge $-1 $60 $17 $61 $62 reversed $5 $-1 #
coedge $-1 $63 $64 $17 $33 forward $65 $-1 #
edge $-1 $66 0 $38 0.1082531754730547829 $17 $67 forward 7 unknown #
coedge $-1 $18 $60 $68 $69 reversed $5 $-1 #
coedge $-1 $24 $26 $18 $36 forward $13 $-1 #
edge $-1 $39 0 $70 0.1082531754730548107 $18 $71 forward 7 unknown #
coedge $-1 $19 $25 $63 $72 reversed $8 $-1 #
vertex $-1 $33 $73 #
vertex $-1 $36 $74 #
straight-curve $-1 -2.749630657015591506 0 -0.9524999999999999023 12.69999999999999574 -21.99704525612474271 0 I I #
face $-1 $75 $76 $2 $-1 $77 forward single #
loop $-1 $-1 $78 $21 #
plane-surface $-1 2.749630657015591506 0 -0.9524999999999999023 0.8660254037844388186 0.499999999999999889 0 -12.69999999999999929 21.99704525612474981 0 forward_v I I I I #
coedge $-1 $79 $68 $80 $81 forward $22 $-1 #
coedge $-1 $26 $24 $82 $83 reversed $13 $-1 #
coedge $-1 $68 $79 $24 $47 reversed $22 $-1 #
edge $-1 $70 0 $84 0.07499999999999999722 $24 $85 forward 7 unknown #
coedge $-1 $82 $86 $25 $49 forward $87 $-1 #
edge $-1 $88 0 $50 0.1082531754730547691 $48 $89 forward 7 unknown #
vertex $-1 $83 $90 #
straight-curve $-1 -1.374815328507796641 -2.381249999999998757 -0.9524999999999999023 0 0 25.39999999999999858 I I #
coedge $-1 $91 $92 $28 $53 forward $93 $-1 #
edge $-1 $58 0 $57 3.141592653589793116 $28 $94 forward 7 unknown #
coedge $-1 $95 $29 $92 $96 reversed $56 $-1 #
coedge $-1 $29 $95 $91 $97 forward $56 $-1 #
loop $-1 $-1 $54 $98 #
vertex $-1 $53 $99 #
vertex $-1 $53 $100 #
ellipse-curve $-1 4.406197628981089773e-17 -1.762479051592435909e-16 -0.9524999999999999023 0 0 -1 1.269999999999999796 1.762479051592435909e-16 0 1 I I #
coedge $-1 $34 $31 $101 $102 reversed $5 $-1 #
coedge $-1 $103 $104 $31 $62 forward $76 $-1 #
edge $-1 $105 0 $66 0.1082531754730549078 $31 $106 forward 7 unknown #
coedge $-1 $107 $32 $37 $72 forward $65 $-1 #
coedge $-1 $32 $107 $103 $108 reversed $65 $-1 #
loop $-1 $-1 $63 $75 #
vertex $-1 $62 $109 #
straight-curve $-1 -1.374815328507796863 2.381249999999999645 -0.9524999999999999023 -12.69999999999999574 -21.99704525612474271 0 I I #
coedge $-1 $44 $46 $34 $69 forward $22 $-1 #
edge $-1 $70 0 $110 0.1082531754730548385 $34 $111 forward 7 unknown #
vertex $-1 $36 $112 #
straight-curve $-1 -1.374815328507797974 -2.381249999999999645 -0.9524999999999999023 25.39999999999999858 0 0 I I #
edge $-1 $38 0 $88 0.07499999999999999722 $63 $113 forward 7 unknown #
point $-1 -2.749630657015591506 0 -0.9524999999999999023 #
point $-1 -1.374815328507797974 -2.381249999999999645 -0.9524999999999999023 #
face $-1 $114 $65 $2 $-1 $115 forward single #
loop $-1 $-1 $103 $41 #
plane-surface $-1 1.374815328507797529 2.381249999999999645 -0.9524999999999999023 0 1 0 -25.39999999999999858 0 0 forward_v I I I I #
coedge $-1 $116 $101 $104 $117 forward $42 $-1 #
coedge $-1 $46 $44 $118 $119 reversed $22 $-1 #
coedge $-1 $101 $116 $44 $81 reversed $42 $-1 #
edge $-1 $110 0 $120 0.07499999999999999722 $44 $121 forward 7 unknown #
coedge $-1 $118 $48 $45 $83 forward $87 $-1 #
edge $-1 $50 0 $84 0.1082531754730548107 $82 $122 forward 7 unknown #
vertex $-1 $83 $123 #
straight-curve $-1 1.374815328507793977 -2.381249999999999645 -0.9524999999999999023 0 0 25.39999999999999858 I I #
coedge $-1 $48 $124 $107 $125 forward $87 $-1 #
loop $-1 $126 $118 $114 #
vertex $-1 $49 $127 #
straight-curve $-1 -2.749630657015591506 0 0.9524999999999999023 12.69999999999999574 -21.99704525612474271 0 I I #
point $-1 -1.374815328507797974 -2.381249999999999645 0.9524999999999999023 #
coedge $-1 $128 $52 $55 $97 reversed $93 $-1 #
coedge $-1 $52 $128 $54 $96 forward $93 $-1 #
loop $-1 $-1 $91 $129 #
ellipse-curve $-1 4.406197628981089773e-17 1.321859288694326809e-16 -0.9524999999999999023 0 0 -1 -1.269999999999999796 -1.321859288694326809e-16 0 1 I I #
coedge $-1 $55 $54 $130 $131 reversed $56 $-1 #
edge $-1 $132 0 $58 0.07499999999999999722 $92 $133 forward 7 unknown #
edge $-1 $134 0 $57 0.07499999999999999722 $91 $135 forward 7 unknown #
face $-1 $129 $56 $2 $-1 $136 reversed single #
point $-1 1.269999999999999796 0 -0.9524999999999999023 #
point $-1 -1.269999999999999796 0 -0.9524999999999999023 #
coedge $-1 $78 $80 $60 $102 forward $42 $-1 #
edge $-1 $110 0 $105 0.1082531754730547691 $60 $137 forward 7 unknown #
coedge $-1 $138 $61 $64 $108 forward $76 $-1 #
coedge $-1 $61 $138 $78 $117 reversed $76 $-1 #
vertex $-1 $102 $139 #
straight-curve $-1 1.374815328507797529 2.381249999999999645 -0.9524999999999999023 -25.39999999999999858 0 0 I I #
coedge $-1 $64 $63 $86 $125 reversed $65 $-1 #
edge $-1 $66 0 $140 0.07499999999999999722 $103 $141 forward 7 unknown #
point $-1 -1.374815328507796863 2.381249999999999645 -0.9524999999999999023 #
vertex $-1 $69 $142 #
straight-curve $-1 1.374815328507793977 -2.381249999999999645 -0.9524999999999999023 12.69999999999999929 21.99704525612473915 0 I I #
point $-1 1.374815328507793977 -2.381249999999999645 -0.9524999999999999023 #
straight-curve $-1 -2.749630657015592394 3.524958103184871819e-16 -0.9524999999999999023 0 0 25.39999999999999858 I I #
face $-1 $98 $87 $2 $-1 $143 forward single #
plane-surface $-1 -1.374815328507796863 2.381249999999999645 -0.9524999999999999023 -0.8660254037844387076 0.499999999999999889 0 -12.69999999999999929 -21.99704525612474626 0 forward_v I I I I #
coedge $-1 $80 $78 $144 $145 reversed $42 $-1 #
edge $-1 $105 0 $146 0.07499999999999999722 $78 $147 forward 7 unknown #
coedge $-1 $144 $82 $79 $119 forward $87 $-1 #
edge $-1 $84 0 $120 0.1082531754730548385 $118 $148 forward 7 unknown #
vertex $-1 $145 $149 #
straight-curve $-1 2.749630657015591062 1.057487430955461447e-15 -0.9524999999999999023 0 0 25.39999999999999858 I I #
straight-curve $-1 -1.374815328507797974 -2.381249999999999645 0.9524999999999999023 25.39999999999999858 0 0 I I #
point $-1 1.374815328507793977 -2.381249999999999645 0.9524999999999999023 #
coedge $-1 $86 $144 $138 $150 forward $87 $-1 #
edge $-1 $140 0 $88 0.1082531754730547829 $86 $151 forward 7 unknown #
loop $-1 $-1 $130 $114 #
point $-1 -2.749630657015591506 0 0.9524999999999999023 #
coedge $-1 $92 $91 $152 $153 reversed $93 $-1 #
face $-1 $-1 $93 $2 $-1 $154 reversed single #
coedge $-1 $152 $152 $95 $131 forward $126 $-1 #
edge $-1 $134 0 $132 3.141592653589793116 $130 $155 forward 7 unknown #
vertex $-1 $153 $156 #
straight-curve $-1 -1.269999999999999796 0 0.9524999999999999023 0 0 -25.39999999999999858 I I #
vertex $-1 $153 $157 #
straight-curve $-1 1.269999999999999796 1.555250069354418783e-16 0.9524999999999999023 0 0 -25.39999999999999858 I I #
cone-surface $-1 0 0 0.9524999999999999023 0 0 -1 -1.269999999999999796 0 0 1 I I 0 1 1.269999999999999796 forward I I I I #
straight-curve $-1 2.749630657015591506 0 -0.9524999999999999023 -12.69999999999999574 21.99704525612474271 0 I I #
coedge $-1 $104 $103 $124 $150 reversed $76 $-1 #
point $-1 1.374815328507797529 2.381249999999999645 -0.9524999999999999023 #
vertex $-1 $125 $158 #
straight-curve $-1 -1.374815328507796863 2.381249999999999645 -0.9524999999999999023 0 0 25.39999999999999858 I I #
point $-1 2.749630657015591506 0 -0.9524999999999999023 #
plane-surface $-1 0 0 0.9524999999999999023 0 0 1 25.39999999999999858 0 0 forward_v I I I I #
coedge $-1 $124 $118 $116 $145 forward $87 $-1 #
edge $-1 $120 0 $146 0.1082531754730547691 $144 $159 forward 7 unknown #
vertex $-1 $150 $160 #
straight-curve $-1 1.374815328507796419 2.381249999999999201 -0.9524999999999999023 0 0 25.39999999999999858 I I #
straight-curve $-1 1.374815328507793977 -2.381249999999999645 0.9524999999999999023 12.69999999999999929 21.99704525612473915 0 I I #
point $-1 2.749630657015591506 0 0.9524999999999999023 #
edge $-1 $146 0 $140 0.1082531754730549078 $124 $161 forward 7 unknown #
straight-curve $-1 -1.374815328507796863 2.381249999999999645 0.9524999999999999023 -12.69999999999999574 -21.99704525612474271 0 I I #
coedge $-1 $130 $130 $128 $153 forward $126 $-1 #
edge $-1 $132 0 $134 3.141592653589793116 $152 $162 forward 7 unknown #
cone-surface $-1 0 0 0.9524999999999999023 0 0 -1 -1.269999999999999796 0 0 1 I I 0 1 1.269999999999999796 forward I I I I #
ellipse-curve $-1 0 0 0.9524999999999999023 0 0 -1 1.269999999999999796 0 0 1 I I #
point $-1 -1.269999999999999796 0 0.9524999999999999023 #
point $-1 1.269999999999999796 0 0.9524999999999999023 #
point $-1 -1.374815328507796863 2.381249999999999645 0.9524999999999999023 #
straight-curve $-1 2.749630657015591506 0 0.9524999999999999023 -12.69999999999999574 21.99704525612474271 0 I I #
point $-1 1.374815328507797529 2.381249999999999645 0.9524999999999999023 #
straight-curve $-1 1.374815328507797529 2.381249999999999645 0.9524999999999999023 -25.39999999999999858 0 0 I I #
ellipse-curve $-1 0 0 0.9524999999999999023 0 0 -1 -1.269999999999999796 0 0 1 I I #
End-of-ACIS-data 