700 0 2 0           
24 FBMach with ACIS - 7.0.3 13 ACIS 7.0.3 NT 24 Wed May 15 14:39:25 2002 
1 9.9999999999999995e-007 1e-010 
body $2 -1 $-1 $3 $-1 $4 #
bdycol-kcp $-1 -1 1 3 $5 $6 $7 #
model_id-kcp-attrib $-1 -1 $-1 $-1 $0 1 1021487964 1021487964 -2065825791 1 #
lump $-1 -1 $-1 $-1 $8 $0 #
transform $-1 -1 1.0000000000000004 0 0 0 1.0000000000000004 0 0 0 1 -1.7763568394002505e-015 0 0 1 rotate no_reflect no_shear #
body $9 -1 $-1 $10 $-1 $11 #
body $12 -1 $-1 $13 $-1 $14 #
body $15 -1 $-1 $16 $-1 $17 #
shell $-1 -1 $-1 $-1 $-1 $18 $-1 $3 #
model_id-kcp-attrib $-1 -1 $-1 $-1 $5 1 1021487964 1021487964 -2065825790 1 #
lump $-1 -1 $-1 $-1 $19 $5 #
transform $-1 -1 1 0 0 0 1 0 0 0 1 0 0 2.5399999999999996 1 no_rotate no_reflect no_shear #
rgb_color-st-attrib $-1 -1 $20 $-1 $6 0.5 1 1 #
lump $-1 -1 $-1 $-1 $21 $6 #
transform $-1 -1 1 0 0 0 1 0 0 0 1 0 0 0 1 no_rotate no_reflect no_shear #
rgb_color-st-attrib $-1 -1 $22 $-1 $7 0.5 1 1 #
lump $-1 -1 $-1 $23 $24 $7 #
transform $-1 -1 1 0 0 0 1 0 0 0 1 0 0 2.5399999999999996 1 no_rotate no_reflect no_shear #
face $25 -1 $-1 $26 $27 $8 $-1 $28 reversed single #
shell $-1 -1 $-1 $-1 $-1 $29 $-1 $10 #
model_id-kcp-attrib $-1 -1 $-1 $12 $6 1 1021487964 1021487965 -2076770300 1 #
shell $-1 -1 $-1 $-1 $-1 $30 $-1 $13 #
model_id-kcp-attrib $-1 -1 $-1 $15 $7 1 1021487964 1021487965 -2069233661 1 #
lump $-1 -1 $-1 $-1 $31 $7 #
shell $-1 -1 $-1 $-1 $-1 $32 $-1 $16 #
model_id-kcp-attrib $-1 -1 $-1 $-1 $18 1 1021487964 1021487964 -2065825791 2 #
face $33 -1 $-1 $34 $35 $8 $-1 $36 reversed single #
loop $-1 -1 $-1 $37 $38 $18 #
plane-surface $-1 -1 $-1 0 0 0 0 0 1 25.399999999999999 0 0 forward_v I I I I #
face $39 -1 $-1 $40 $41 $19 $-1 $42 forward single #
face $-1 -1 $-1 $43 $44 $21 $-1 $45 forward single #
shell $-1 -1 $-1 $-1 $-1 $46 $-1 $23 #
face $-1 -1 $-1 $47 $48 $24 $-1 $49 reversed single #
model_id-kcp-attrib $-1 -1 $-1 $-1 $26 1 1021487964 1021487964 -2065825791 3 #
face $50 -1 $-1 $51 $52 $8 $-1 $53 reversed single #
loop $-1 -1 $-1 $-1 $54 $26 #
cone-surface $-1 -1 $-1 0 0 0 0 0 1 3.1749999999999998 0 0 1 I I 0 1 3.1749999999999998 forward I I I I #
loop $-1 -1 $-1 $-1 $55 $18 #
coedge $-1 -1 $-1 $56 $56 $57 $58 reversed $27 $-1 #
model_id-kcp-attrib $-1 -1 $-1 $-1 $29 1 1021487964 1021487964 -2065825790 3 #
face $59 -1 $-1 $60 $61 $19 $-1 $62 reversed single #
loop $-1 -1 $-1 $-1 $63 $29 #
plane-surface $-1 -1 $-1 0 0 2.5399999999999996 0 0 1 1 0 0 forward_v I I I I #
face $-1 -1 $-1 $64 $65 $21 $-1 $66 forward single #
loop $-1 -1 $-1 $67 $68 $30 #
cone-surface $-1 -1 $-1 0 0 0 0 0 1 -3.1749999999999998 0 0 1 I I 0 1 3.1749999999999998 forward I I I I #
face $-1 -1 $-1 $69 $70 $31 $-1 $71 reversed single #
face $-1 -1 $-1 $72 $73 $24 $-1 $74 reversed single #
loop $-1 -1 $-1 $-1 $75 $32 #
plane-surface $-1 -1 $-1 -6.3499999999999996 0 -2.5399999999999996 -0.86602540378443882 -0.49999999999999983 0 0 0 -1 forward_v I I I I #
model_id-kcp-attrib $-1 -1 $-1 $-1 $34 1 1021487964 1021487964 -2065825791 4 #
face $76 -1 $-1 $77 $78 $8 $-1 $79 forward single #
loop $-1 -1 $-1 $-1 $80 $34 #
cone-surface $-1 -1 $-1 0 0 0 0 0 1 3.1749999999999998 0 0 1 I I 0 1 3.1749999999999998 forward I I I I #
coedge $-1 -1 $-1 $81 $57 $82 $83 forward $35 $-1 #
coedge $-1 -1 $-1 $84 $85 $86 $87 reversed $37 $-1 #
coedge $-1 -1 $-1 $38 $38 $88 $89 reversed $27 $-1 #
coedge $-1 -1 $-1 $54 $90 $38 $58 forward $35 $-1 #
edge $91 -1 $-1 $92 0 $93 3.1415926535897931 $38 $94 forward @7 unknown #
model_id-kcp-attrib $-1 -1 $-1 $-1 $40 1 1021487964 1021487964 -2065825790 2 #
face $95 -1 $-1 $96 $97 $19 $-1 $98 reversed single #
loop $-1 -1 $-1 $-1 $99 $40 #
plane-surface $-1 -1 $-1 0 0 -2.5399999999999996 0 0 1 1 0 0 forward_v I I I I #
coedge $-1 -1 $-1 $100 $101 $102 $103 forward $41 $-1 #
face $-1 -1 $-1 $-1 $104 $21 $-1 $105 reversed single #
loop $-1 -1 $-1 $-1 $106 $43 #
plane-surface $-1 -1 $-1 0 0 5.0799999999999992 0 0 1 1 0 0 forward_v I I I I #
loop $-1 -1 $-1 $-1 $107 $30 #
coedge $-1 -1 $-1 $68 $68 $106 $108 forward $44 $-1 #
face $-1 -1 $-1 $109 $110 $31 $-1 $111 reversed single #
loop $-1 -1 $-1 $-1 $112 $46 #
plane-surface $-1 -1 $-1 6.3499999999999996 0 0 -1 0 0 0 0 1 forward_v I I I I #
face $-1 -1 $-1 $113 $114 $24 $-1 $115 reversed single #
loop $-1 -1 $-1 $-1 $116 $47 #
plane-surface $-1 -1 $-1 -3.1749999999999989 5.4992613140311875 -2.5399999999999996 -0.86602540378443882 0.49999999999999983 0 0 0 -1 forward_v I I I I #
coedge $-1 -1 $-1 $117 $118 $119 $120 reversed $48 $-1 #
model_id-kcp-attrib $-1 -1 $-1 $-1 $51 1 1021487964 1021487964 -2065825791 5 #
face $121 -1 $-1 $122 $123 $8 $-1 $124 forward single #
loop $-1 -1 $-1 $125 $126 $51 #
plane-surface $-1 -1 $-1 0 0 5.0799999999999992 0 0 1 25.399999999999999 0 0 forward_v I I I I #
coedge $-1 -1 $-1 $127 $88 $90 $128 forward $52 $-1 #
coedge $-1 -1 $-1 $90 $54 $126 $129 reversed $35 $-1 #
coedge $-1 -1 $-1 $88 $127 $54 $83 reversed $52 $-1 #
edge $-1 -1 $-1 $93 0 $130 0.19999999999999998 $82 $131 forward @7 unknown #
coedge $-1 -1 $-1 $132 $55 $133 $134 reversed $37 $-1 #
coedge $-1 -1 $-1 $55 $135 $136 $137 reversed $37 $-1 #
coedge $-1 -1 $-1 $138 $139 $55 $87 forward $140 $-1 #
edge $141 -1 $-1 $142 0 $143 0.25000000000000006 $55 $144 forward @7 unknown #
coedge $-1 -1 $-1 $80 $82 $56 $89 forward $52 $-1 #
edge $145 -1 $-1 $93 0 $92 3.1415926535897931 $56 $146 forward @7 unknown #
coedge $-1 -1 $-1 $57 $81 $80 $128 reversed $35 $-1 #
attrib_edge_convexity-kcp-attrib $-1 -1 $147 $-1 $58 1 #
vertex $-1 -1 $-1 $89 $148 #
vertex $-1 -1 $-1 $89 $149 #
ellipse-curve $-1 -1 $-1 0 0 0 0 0 -1 -3.1749999999999998 0 0 1 I I #
model_id-kcp-attrib $-1 -1 $-1 $-1 $60 1 1021487964 1021487964 -2065825790 4 #
face $-1 -1 $-1 $150 $151 $19 $-1 $152 reversed single #
loop $-1 -1 $-1 $-1 $153 $60 #
plane-surface $-1 -1 $-1 0 -5.4992613140311875 0 0 1 0 0 0 1 forward_v I I I I #
coedge $-1 -1 $-1 $154 $155 $156 $157 forward $61 $-1 #
coedge $-1 -1 $-1 $158 $63 $159 $160 forward $41 $-1 #
coedge $-1 -1 $-1 $63 $158 $161 $162 forward $41 $-1 #
coedge $-1 -1 $-1 $163 $164 $63 $103 reversed $165 $-1 #
edge $-1 -1 $-1 $166 -5.4992613140311875 $167 5.4992613140311875 $102 $168 forward @7 unknown #
loop $-1 -1 $-1 $-1 $169 $64 #
plane-surface $-1 -1 $-1 0 0 0 0 0 1 1 0 0 forward_v I I I I #
coedge $-1 -1 $-1 $106 $106 $68 $108 reversed $65 $-1 #
coedge $-1 -1 $-1 $107 $107 $169 $170 reversed $67 $-1 #
edge $-1 -1 $-1 $171 -3.1415926535897931 $171 3.1415926535897931 $68 $172 forward @7 unknown #
face $-1 -1 $-1 $173 $174 $31 $-1 $175 reversed single #
loop $-1 -1 $-1 $-1 $176 $69 #
plane-surface $-1 -1 $-1 0 5.4992613140311875 0 0 -1 0 0 0 -1 forward_v I I I I #
coedge $-1 -1 $-1 $177 $178 $179 $180 forward $70 $-1 #
face $-1 -1 $-1 $181 $182 $24 $-1 $183 forward single #
loop $-1 -1 $-1 $-1 $184 $72 #
plane-surface $-1 -1 $-1 -6.3499999999999996 0 0 1 0 0 0 0 -1 forward_v I I I I #
coedge $-1 -1 $-1 $185 $186 $187 $188 reversed $73 $-1 #
coedge $-1 -1 $-1 $189 $75 $190 $191 reversed $48 $-1 #
coedge $-1 -1 $-1 $75 $189 $185 $192 forward $48 $-1 #
coedge $-1 -1 $-1 $193 $194 $75 $120 forward $195 $-1 #
edge $-1 -1 $-1 $196 -4.7625000000000028 $197 1.5874999999999995 $119 $198 forward @7 unknown #
model_id-kcp-attrib $-1 -1 $-1 $-1 $77 1 1021487964 1021487964 -2065825791 6 #
face $199 -1 $-1 $200 $201 $8 $-1 $202 forward single #
loop $-1 -1 $-1 $-1 $203 $77 #
plane-surface $-1 -1 $-1 -3.1749999999999998 -5.4992613140311875 0 0 -1 0 25.399999999999999 0 0 forward_v I I I I #
loop $-1 -1 $-1 $-1 $204 $51 #
coedge $-1 -1 $-1 $205 $205 $81 $129 forward $78 $-1 #
coedge $-1 -1 $-1 $82 $80 $205 $206 reversed $52 $-1 #
edge $-1 -1 $-1 $92 0 $207 0.19999999999999998 $80 $208 forward @7 unknown #
edge $-1 -1 $-1 $207 0 $130 3.1415926535897931 $126 $209 forward @7 unknown #
vertex $-1 -1 $-1 $206 $210 #
straight-curve $-1 -1 $-1 3.1749999999999998 0 0 0 -3.8881251733860486e-015 25.399999999999999 I I #
coedge $-1 -1 $-1 $211 $84 $212 $213 reversed $37 $-1 #
coedge $-1 -1 $-1 $214 $215 $84 $134 forward $216 $-1 #
edge $217 -1 $-1 $218 0 $142 0.25 $84 $219 forward @7 unknown #
coedge $-1 -1 $-1 $85 $211 $220 $221 reversed $37 $-1 #
coedge $-1 -1 $-1 $222 $223 $85 $137 forward $224 $-1 #
edge $225 -1 $-1 $143 0 $226 0.25000000000000006 $85 $227 forward @7 unknown #
coedge $-1 -1 $-1 $228 $86 $223 $229 forward $140 $-1 #
coedge $-1 -1 $-1 $86 $228 $214 $230 reversed $140 $-1 #
loop $-1 -1 $-1 $-1 $138 $231 #
attrib_edge_convexity-kcp-attrib $-1 -1 $232 $-1 $87 1 #
vertex $-1 -1 $-1 $134 $233 #
vertex $-1 -1 $-1 $137 $234 #
straight-curve $-1 -1 $-1 -3.1749999999999998 5.4992613140311875 0 -12.699999999999996 -21.997045256124746 0 I I #
attrib_edge_convexity-kcp-attrib $-1 -1 $235 $-1 $89 1 #
ellipse-curve $-1 -1 $-1 0 0 0 0 0 -1 3.1749999999999998 0 0 1 I I #
convexity-sys-attrib $-1 -1 $-1 $91 $58 #
point $-1 -1 $-1 -3.1749999999999998 0 0 #
point $-1 -1 $-1 3.1749999999999998 0 0 #
face $236 -1 $-1 $237 $238 $19 $-1 $239 reversed single #
loop $-1 -1 $-1 $-1 $240 $96 #
plane-surface $-1 -1 $-1 -6.3499999999999996 0 0 1 0 0 0 0 -1 forward_v I I I I #
coedge $-1 -1 $-1 $241 $161 $242 $243 forward $97 $-1 #
coedge $-1 -1 $-1 $244 $99 $241 $245 forward $61 $-1 #
coedge $-1 -1 $-1 $99 $244 $246 $247 forward $61 $-1 #
coedge $-1 -1 $-1 $164 $163 $99 $157 reversed $165 $-1 #
edge $-1 -1 $-1 $248 -5.4992613140311875 $249 5.4992613140311875 $156 $250 forward @7 unknown #
coedge $-1 -1 $-1 $101 $100 $251 $252 forward $41 $-1 #
coedge $-1 -1 $-1 $253 $254 $100 $160 reversed $238 $-1 #
edge $-1 -1 $-1 $167 -6.3499999999999996 $255 6.3499999999999996 $159 $256 forward @7 unknown #
coedge $-1 -1 $-1 $153 $257 $101 $162 reversed $97 $-1 #
edge $-1 -1 $-1 $258 -6.3499999999999996 $166 6.3499999999999996 $161 $259 forward @7 unknown #
coedge $-1 -1 $-1 $156 $102 $257 $260 forward $165 $-1 #
coedge $-1 -1 $-1 $102 $156 $253 $261 reversed $165 $-1 #
loop $-1 -1 $-1 $-1 $163 $237 #
vertex $-1 -1 $-1 $103 $262 #
vertex $-1 -1 $-1 $103 $263 #
straight-curve $-1 -1 $-1 6.3499999999999996 0 2.5399999999999996 0 1 0 I I #
coedge $-1 -1 $-1 $169 $169 $107 $170 forward $104 $-1 #
edge $-1 -1 $-1 $264 -3.1415926535897931 $264 3.1415926535897931 $107 $265 forward @7 unknown #
vertex $-1 -1 $-1 $108 $266 #
ellipse-curve $-1 -1 $-1 0 0 5.0799999999999992 0 0 -1 3.1749999999999998 0 0 1 I I #
face $-1 -1 $-1 $267 $268 $31 $-1 $175 reversed single #
loop $-1 -1 $-1 $-1 $269 $109 #
plane-surface $-1 -1 $-1 0 0 -2.5399999999999996 0 0 1 1 0 0 forward_v I I I I #
coedge $-1 -1 $-1 $270 $271 $272 $273 forward $110 $-1 #
coedge $-1 -1 $-1 $274 $112 $275 $276 reversed $70 $-1 #
coedge $-1 -1 $-1 $112 $274 $277 $278 reversed $70 $-1 #
coedge $-1 -1 $-1 $279 $280 $281 $180 reversed $282 $-1 #
edge $-1 -1 $-1 $283 -1.2699999999999998 $284 3.8099999999999996 $112 $285 forward @7 unknown #
face $-1 -1 $-1 $286 $195 $24 $-1 $183 forward single #
loop $-1 -1 $-1 $-1 $187 $113 #
plane-surface $-1 -1 $-1 0 0 2.5399999999999996 0 0 1 1 0 0 forward_v I I I I #
coedge $-1 -1 $-1 $287 $288 $118 $192 reversed $114 $-1 #
coedge $-1 -1 $-1 $289 $116 $290 $192 reversed $73 $-1 #
coedge $-1 -1 $-1 $116 $289 $291 $292 reversed $73 $-1 #
coedge $-1 -1 $-1 $293 $294 $116 $188 forward $182 $-1 #
edge $-1 -1 $-1 $197 -4.7625000000000011 $295 1.5875000000000017 $187 $296 forward @7 unknown #
coedge $-1 -1 $-1 $118 $117 $297 $298 reversed $48 $-1 #
coedge $-1 -1 $-1 $299 $300 $117 $191 forward $301 $-1 #
edge $-1 -1 $-1 $302 -1.2699999999999998 $196 3.8099999999999996 $190 $303 forward @7 unknown #
edge $-1 -1 $-1 $304 -1.2699999999999998 $197 3.8099999999999996 $290 $305 forward @7 unknown #
coedge $-1 -1 $-1 $194 $119 $288 $306 forward $195 $-1 #
coedge $-1 -1 $-1 $119 $193 $299 $307 forward $195 $-1 #
loop $-1 -1 $-1 $-1 $119 $181 #
vertex $-1 -1 $-1 $120 $308 #
vertex $-1 -1 $-1 $306 $309 #
straight-curve $-1 -1 $-1 -5.5562500000000004 -1.3748153285077962 2.5399999999999991 -0.49999999999999983 0.86602540378443882 0 I I #
model_id-kcp-attrib $-1 -1 $-1 $-1 $122 1 1021487964 1021487964 -2065825791 7 #
face $310 -1 $-1 $311 $312 $8 $-1 $313 forward single #
loop $-1 -1 $-1 $-1 $314 $122 #
plane-surface $-1 -1 $-1 3.1749999999999998 -5.4992613140311875 0 0.86602540378443882 -0.49999999999999989 0 12.699999999999999 21.99704525612475 0 forward_v I I I I #
coedge $-1 -1 $-1 $315 $220 $316 $317 forward $123 $-1 #
coedge $-1 -1 $-1 $318 $319 $315 $320 forward $125 $-1 #
coedge $-1 -1 $-1 $126 $126 $127 $206 forward $78 $-1 #
edge $-1 -1 $-1 $130 0 $207 3.1415926535897931 $205 $321 forward @7 unknown #
vertex $-1 -1 $-1 $206 $322 #
straight-curve $-1 -1 $-1 -3.1749999999999998 3.8881251733860477e-016 0 0 0 25.399999999999999 I I #
ellipse-curve $-1 -1 $-1 8.8123952579621795e-017 -1.7624790515924359e-016 5.0799999999999992 0 0 -1 -3.1749999999999998 1.7624790515924359e-016 0 1 I I #
point $-1 -1 $-1 3.1749999999999998 0 5.0799999999999992 #
coedge $-1 -1 $-1 $135 $132 $323 $324 reversed $37 $-1 #
coedge $-1 -1 $-1 $325 $326 $132 $213 forward $312 $-1 #
edge $327 -1 $-1 $328 0 $218 0.25000000000000006 $132 $329 forward @7 unknown #
coedge $-1 -1 $-1 $330 $133 $139 $230 forward $216 $-1 #
coedge $-1 -1 $-1 $133 $330 $325 $331 reversed $216 $-1 #
loop $-1 -1 $-1 $-1 $214 $311 #
attrib_edge_convexity-kcp-attrib $-1 -1 $332 $-1 $134 1 #
vertex $-1 -1 $-1 $213 $333 #
straight-curve $-1 -1 $-1 3.1749999999999998 5.4992613140311875 0 -25.399999999999999 0 0 I I #
coedge $-1 -1 $-1 $203 $334 $135 $221 forward $123 $-1 #
edge $335 -1 $-1 $226 0 $336 0.25 $135 $337 forward @7 unknown #
coedge $-1 -1 $-1 $338 $136 $334 $339 forward $224 $-1 #
coedge $-1 -1 $-1 $136 $338 $138 $229 reversed $224 $-1 #
loop $-1 -1 $-1 $-1 $222 $340 #
attrib_edge_convexity-kcp-attrib $-1 -1 $341 $-1 $137 1 #
vertex $-1 -1 $-1 $137 $342 #
straight-curve $-1 -1 $-1 -6.3499999999999996 0 0 12.699999999999996 -21.997045256124746 0 I I #
coedge $-1 -1 $-1 $139 $138 $343 $344 reversed $140 $-1 #
edge $-1 -1 $-1 $143 0 $345 0.19999999999999998 $223 $346 forward @7 unknown #
edge $-1 -1 $-1 $142 0 $347 0.19999999999999998 $214 $348 forward @7 unknown #
face $349 -1 $-1 $340 $140 $8 $-1 $350 forward single #
convexity-sys-attrib $-1 -1 $-1 $141 $87 #
point $-1 -1 $-1 -3.1749999999999998 5.4992613140311875 0 #
point $-1 -1 $-1 -6.3499999999999996 0 0 #
convexity-sys-attrib $-1 -1 $-1 $145 $89 #
model_id-kcp-attrib $-1 -1 $-1 $-1 $150 1 1021487964 1021487964 -2065825790 5 #
face $-1 -1 $-1 $-1 $165 $19 $-1 $351 reversed single #
loop $-1 -1 $-1 $-1 $253 $150 #
plane-surface $-1 -1 $-1 0 5.4992613140311875 0 0 -1 0 0 0 -1 forward_v I I I I #
coedge $-1 -1 $-1 $352 $251 $254 $353 forward $151 $-1 #
coedge $-1 -1 $-1 $257 $153 $154 $245 reversed $97 $-1 #
coedge $-1 -1 $-1 $251 $352 $153 $243 reversed $151 $-1 #
edge $-1 -1 $-1 $258 -2.5399999999999996 $354 2.5399999999999996 $242 $355 forward @7 unknown #
coedge $-1 -1 $-1 $155 $154 $352 $356 forward $61 $-1 #
edge $-1 -1 $-1 $249 -6.3499999999999996 $354 6.3499999999999996 $241 $357 forward @7 unknown #
coedge $-1 -1 $-1 $254 $253 $155 $247 reversed $238 $-1 #
edge $-1 -1 $-1 $358 -6.3499999999999996 $248 6.3499999999999996 $246 $359 forward @7 unknown #
vertex $-1 -1 $-1 $157 $360 #
vertex $-1 -1 $-1 $260 $361 #
straight-curve $-1 -1 $-1 6.3499999999999996 0 -2.5399999999999996 0 -1 0 I I #
coedge $-1 -1 $-1 $240 $242 $158 $252 reversed $151 $-1 #
edge $-1 -1 $-1 $255 -5.4992613140311875 $258 5.4992613140311875 $251 $362 forward @7 unknown #
coedge $-1 -1 $-1 $246 $159 $164 $261 forward $238 $-1 #
coedge $-1 -1 $-1 $159 $246 $240 $353 reversed $238 $-1 #
vertex $-1 -1 $-1 $160 $363 #
straight-curve $-1 -1 $-1 0 5.4992613140311875 2.5399999999999996 -1 0 0 I I #
coedge $-1 -1 $-1 $161 $241 $163 $260 reversed $97 $-1 #
vertex $-1 -1 $-1 $252 $364 #
straight-curve $-1 -1 $-1 0 -5.4992613140311875 2.5399999999999996 1 0 0 I I #
edge $-1 -1 $-1 $166 -2.5399999999999996 $249 2.5399999999999996 $163 $365 forward @7 unknown #
edge $-1 -1 $-1 $167 -2.5399999999999996 $248 2.5399999999999996 $164 $366 forward @7 unknown #
point $-1 -1 $-1 6.3499999999999996 -5.4992613140311875 2.5399999999999996 #
point $-1 -1 $-1 6.3499999999999996 5.4992613140311875 2.5399999999999996 #
vertex $-1 -1 $-1 $170 $367 #
ellipse-curve $-1 -1 $-1 0 0 0 0 0 -1 -3.1749999999999998 0 0 1 I I #
point $-1 -1 $-1 -3.1749999999999998 0 5.0799999999999992 #
face $-1 -1 $-1 $368 $369 $31 $-1 $183 forward single #
loop $-1 -1 $-1 $-1 $370 $173 #
coedge $-1 -1 $-1 $277 $371 $372 $373 forward $174 $-1 #
coedge $-1 -1 $-1 $374 $176 $375 $376 reversed $110 $-1 #
coedge $-1 -1 $-1 $176 $374 $377 $378 reversed $110 $-1 #
coedge $-1 -1 $-1 $379 $380 $176 $273 reversed $381 $-1 #
edge $-1 -1 $-1 $382 -1.2699999999999998 $383 3.8099999999999996 $176 $384 forward @7 unknown #
coedge $-1 -1 $-1 $178 $177 $385 $386 forward $70 $-1 #
coedge $-1 -1 $-1 $387 $388 $177 $276 forward $369 $-1 #
edge $-1 -1 $-1 $389 -5.4992613140311875 $284 0 $177 $390 forward @7 unknown #
coedge $-1 -1 $-1 $371 $269 $178 $278 forward $174 $-1 #
edge $-1 -1 $-1 $283 0 $391 5.4992613140311875 $178 $392 forward @7 unknown #
coedge $-1 -1 $-1 $393 $179 $394 $395 reversed $282 $-1 #
coedge $-1 -1 $-1 $179 $393 $396 $397 reversed $282 $-1 #
coedge $-1 -1 $-1 $380 $379 $398 $180 forward $381 $-1 #
loop $-1 -1 $-1 $-1 $179 $399 #
vertex $-1 -1 $-1 $278 $400 #
vertex $-1 -1 $-1 $397 $401 #
straight-curve $-1 -1 $-1 6.3499999999999996 1.3322676295501878e-015 -1.2699999999999998 0 0 1 I I #
face $-1 -1 $-1 $402 $403 $24 $-1 $111 reversed single #
coedge $-1 -1 $-1 $404 $184 $405 $406 reversed $114 $-1 #
coedge $-1 -1 $-1 $184 $404 $193 $306 reversed $114 $-1 #
coedge $-1 -1 $-1 $186 $185 $407 $408 reversed $73 $-1 #
coedge $-1 -1 $-1 $409 $410 $184 $192 forward $411 $-1 #
coedge $-1 -1 $-1 $412 $413 $186 $292 forward $403 $-1 #
edge $-1 -1 $-1 $295 -3.8099999999999996 $414 1.2699999999999998 $291 $415 forward @7 unknown #
coedge $-1 -1 $-1 $294 $187 $413 $416 forward $182 $-1 #
coedge $-1 -1 $-1 $187 $293 $409 $417 forward $182 $-1 #
vertex $-1 -1 $-1 $416 $418 #
straight-curve $-1 -1 $-1 -3.96875 4.1244459855233897 2.5399999999999991 0.49999999999999983 0.86602540378443882 0 I I #
coedge $-1 -1 $-1 $419 $405 $189 $298 forward $420 $-1 #
edge $-1 -1 $-1 $304 -1.5874999999999995 $302 4.7625000000000028 $297 $421 forward @7 unknown #
coedge $-1 -1 $-1 $422 $190 $194 $307 reversed $301 $-1 #
coedge $-1 -1 $-1 $190 $422 $419 $423 reversed $301 $-1 #
loop $-1 -1 $-1 $-1 $190 $424 #
vertex $-1 -1 $-1 $423 $425 #
straight-curve $-1 -1 $-1 -3.1750000000000007 -5.4992613140311875 -1.2699999999999998 0 0 1 I I #
vertex $-1 -1 $-1 $426 $427 #
straight-curve $-1 -1 $-1 -6.3499999999999996 -1.3322676295501878e-015 -1.2699999999999998 0 0 1 I I #
edge $-1 -1 $-1 $197 0 $428 5.4992613140311875 $288 $429 forward @7 unknown #
edge $-1 -1 $-1 $428 -6.3499999999999996 $196 -3.1749999999999989 $299 $430 forward @7 unknown #
point $-1 -1 $-1 -3.1749999999999989 -5.4992613140311875 2.5399999999999996 #
point $-1 -1 $-1 -6.3499999999999996 0 2.5399999999999996 #
model_id-kcp-attrib $-1 -1 $-1 $-1 $200 1 1021487964 1021487964 -2065825791 8 #
face $431 -1 $-1 $231 $216 $8 $-1 $432 forward single #
loop $-1 -1 $-1 $-1 $325 $200 #
plane-surface $-1 -1 $-1 6.3499999999999996 0 0 0.86602540378443882 0.49999999999999989 0 -12.699999999999999 21.99704525612475 0 forward_v I I I I #
coedge $-1 -1 $-1 $433 $323 $326 $434 forward $201 $-1 #
coedge $-1 -1 $-1 $334 $203 $204 $320 reversed $123 $-1 #
coedge $-1 -1 $-1 $323 $433 $203 $317 reversed $201 $-1 #
edge $435 -1 $-1 $336 0 $436 0.19999999999999998 $203 $437 forward @7 unknown #
coedge $-1 -1 $-1 $438 $204 $433 $439 forward $125 $-1 #
coedge $-1 -1 $-1 $204 $343 $338 $440 forward $125 $-1 #
edge $441 -1 $-1 $442 0 $436 0.25 $204 $443 forward @7 unknown #
ellipse-curve $-1 -1 $-1 0 -8.8123952579621795e-017 5.0799999999999992 0 0 -1 3.1749999999999998 8.8123952579621795e-017 0 1 I I #
point $-1 -1 $-1 -3.1749999999999998 0 5.0799999999999992 #
coedge $-1 -1 $-1 $314 $316 $211 $324 forward $201 $-1 #
edge $444 -1 $-1 $336 0 $328 0.25000000000000006 $211 $445 forward @7 unknown #
coedge $-1 -1 $-1 $446 $212 $215 $331 forward $312 $-1 #
coedge $-1 -1 $-1 $212 $446 $314 $434 reversed $312 $-1 #
attrib_edge_convexity-kcp-attrib $-1 -1 $447 $-1 $213 1 #
vertex $-1 -1 $-1 $324 $448 #
straight-curve $-1 -1 $-1 6.3499999999999996 0 0 -12.699999999999996 21.997045256124746 0 I I #
coedge $-1 -1 $-1 $215 $214 $449 $450 reversed $216 $-1 #
edge $451 -1 $-1 $218 0 $452 0.19999999999999998 $325 $453 forward @7 unknown #
convexity-sys-attrib $-1 -1 $-1 $217 $134 #
point $-1 -1 $-1 3.1749999999999998 5.4992613140311875 0 #
coedge $-1 -1 $-1 $220 $315 $222 $339 reversed $123 $-1 #
attrib_edge_convexity-kcp-attrib $-1 -1 $454 $-1 $221 1 #
vertex $-1 -1 $-1 $221 $455 #
straight-curve $-1 -1 $-1 -3.1749999999999998 -5.4992613140311875 0 25.399999999999999 0 0 I I #
coedge $-1 -1 $-1 $223 $222 $319 $440 reversed $224 $-1 #
edge $456 -1 $-1 $226 0 $442 0.19999999999999998 $222 $457 forward @7 unknown #
face $458 -1 $-1 $-1 $224 $8 $-1 $459 forward single #
convexity-sys-attrib $-1 -1 $-1 $225 $137 #
point $-1 -1 $-1 -3.1749999999999998 -5.4992613140311875 0 #
coedge $-1 -1 $-1 $319 $449 $228 $344 forward $125 $-1 #
edge $-1 -1 $-1 $347 0 $345 0.25000000000000006 $343 $460 forward @7 unknown #
vertex $-1 -1 $-1 $440 $461 #
straight-curve $-1 -1 $-1 -6.3499999999999996 0 0 0 0 25.399999999999999 I I #
vertex $-1 -1 $-1 $344 $462 #
straight-curve $-1 -1 $-1 -3.1749999999999998 5.4992613140311875 0 0 0 25.399999999999999 I I #
model_id-kcp-attrib $-1 -1 $-1 $-1 $231 1 1021487964 1021487964 -2065825791 10 #
plane-surface $-1 -1 $-1 -3.1749999999999998 5.4992613140311875 0 -0.86602540378443882 0.49999999999999989 0 -12.699999999999999 -21.99704525612475 0 forward_v I I I I #
plane-surface $-1 -1 $-1 6.3499999999999996 0 0 -1 0 0 0 0 1 forward_v I I I I #
coedge $-1 -1 $-1 $242 $240 $244 $356 reversed $151 $-1 #
edge $-1 -1 $-1 $255 -2.5399999999999996 $358 2.5399999999999996 $254 $463 forward @7 unknown #
vertex $-1 -1 $-1 $356 $464 #
straight-curve $-1 -1 $-1 -6.3499999999999996 -5.4992613140311875 0 0 0 -1 I I #
edge $-1 -1 $-1 $354 -5.4992613140311875 $358 5.4992613140311875 $352 $465 forward @7 unknown #
straight-curve $-1 -1 $-1 0 -5.4992613140311875 -2.5399999999999996 -1 0 0 I I #
vertex $-1 -1 $-1 $247 $466 #
straight-curve $-1 -1 $-1 0 5.4992613140311875 -2.5399999999999996 1 0 0 I I #
point $-1 -1 $-1 6.3499999999999996 5.4992613140311875 -2.5399999999999996 #
point $-1 -1 $-1 6.3499999999999996 -5.4992613140311875 -2.5399999999999996 #
straight-curve $-1 -1 $-1 -6.3499999999999996 0 2.5399999999999996 0 -1 0 I I #
point $-1 -1 $-1 -6.3499999999999996 5.4992613140311875 2.5399999999999996 #
point $-1 -1 $-1 -6.3499999999999996 -5.4992613140311875 2.5399999999999996 #
straight-curve $-1 -1 $-1 6.3499999999999996 -5.4992613140311875 0 0 0 -1 I I #
straight-curve $-1 -1 $-1 6.3499999999999996 5.4992613140311875 0 0 0 -1 I I #
point $-1 -1 $-1 3.1749999999999998 0 0 #
face $-1 -1 $-1 $399 $467 $31 $-1 $183 forward single #
loop $-1 -1 $-1 $-1 $387 $267 #
coedge $-1 -1 $-1 $377 $394 $379 $468 forward $268 $-1 #
coedge $-1 -1 $-1 $269 $277 $469 $470 forward $174 $-1 #
coedge $-1 -1 $-1 $471 $398 $269 $373 reversed $472 $-1 #
edge $-1 -1 $-1 $473 -1.5875000000000017 $283 4.7625000000000002 $269 $474 forward @7 unknown #
coedge $-1 -1 $-1 $271 $270 $393 $475 forward $110 $-1 #
coedge $-1 -1 $-1 $476 $396 $270 $376 forward $467 $-1 #
edge $-1 -1 $-1 $477 -6.3499999999999996 $383 -3.1749999999999998 $270 $478 forward @7 unknown #
coedge $-1 -1 $-1 $394 $370 $271 $378 forward $268 $-1 #
edge $-1 -1 $-1 $382 3.1749999999999998 $479 6.3499999999999996 $271 $480 forward @7 unknown #
coedge $-1 -1 $-1 $281 $272 $370 $468 reversed $381 $-1 #
coedge $-1 -1 $-1 $272 $281 $476 $481 reversed $381 $-1 #
loop $-1 -1 $-1 $-1 $380 $482 #
vertex $-1 -1 $-1 $378 $483 #
vertex $-1 -1 $-1 $273 $484 #
straight-curve $-1 -1 $-1 3.1750000000000007 5.4992613140311875 -1.2699999999999998 0 0 1 I I #
coedge $-1 -1 $-1 $485 $469 $274 $386 reversed $486 $-1 #
edge $-1 -1 $-1 $389 -2.5399999999999996 $391 2.5399999999999996 $274 $487 forward @7 unknown #
coedge $-1 -1 $-1 $388 $275 $488 $489 forward $369 $-1 #
coedge $-1 -1 $-1 $275 $387 $485 $490 forward $369 $-1 #
vertex $-1 -1 $-1 $276 $491 #
straight-curve $-1 -1 $-1 6.3499999999999996 0 2.5399999999999996 0 1 0 I I #
vertex $-1 -1 $-1 $386 $492 #
straight-curve $-1 -1 $-1 6.3499999999999996 0 -2.5399999999999996 0 -1 0 I I #
coedge $-1 -1 $-1 $280 $279 $374 $475 reversed $282 $-1 #
coedge $-1 -1 $-1 $370 $377 $279 $395 forward $268 $-1 #
edge $-1 -1 $-1 $479 -5.4992613140311875 $283 0 $279 $392 forward @7 unknown #
coedge $-1 -1 $-1 $375 $476 $280 $397 forward $467 $-1 #
edge $-1 -1 $-1 $284 0 $477 5.4992613140311875 $280 $390 forward @7 unknown #
coedge $-1 -1 $-1 $372 $488 $112 $180 reversed $472 $-1 #
face $-1 -1 $-1 $493 $282 $31 $-1 $71 reversed single #
point $-1 -1 $-1 6.3499999999999996 0 -2.5399999999999996 #
point $-1 -1 $-1 6.3499999999999996 0 2.5399999999999996 #
face $-1 -1 $-1 $494 $495 $24 $-1 $175 reversed single #
loop $-1 -1 $-1 $-1 $291 $286 #
coedge $-1 -1 $-1 $288 $287 $422 $496 reversed $114 $-1 #
coedge $-1 -1 $-1 $297 $419 $287 $406 forward $420 $-1 #
edge $-1 -1 $-1 $497 -5.4992613140311875 $304 0 $287 $498 forward @7 unknown #
coedge $-1 -1 $-1 $499 $500 $289 $408 forward $495 $-1 #
edge $-1 -1 $-1 $414 -1.5875000000000017 $304 4.7625000000000011 $407 $501 forward @7 unknown #
coedge $-1 -1 $-1 $502 $290 $294 $417 reversed $411 $-1 #
coedge $-1 -1 $-1 $290 $502 $499 $426 reversed $411 $-1 #
loop $-1 -1 $-1 $-1 $290 $503 #
coedge $-1 -1 $-1 $504 $291 $500 $505 reversed $403 $-1 #
coedge $-1 -1 $-1 $291 $504 $293 $416 reversed $403 $-1 #
vertex $-1 -1 $-1 $292 $506 #
straight-curve $-1 -1 $-1 -3.1749999999999989 5.4992613140311875 -1.2699999999999998 0 0 -1 I I #
edge $-1 -1 $-1 $295 3.1749999999999989 $507 6.3499999999999996 $413 $478 forward @7 unknown #
edge $-1 -1 $-1 $507 -5.4992613140311875 $197 0 $409 $429 forward @7 unknown #
point $-1 -1 $-1 -3.1749999999999989 5.4992613140311875 2.5399999999999996 #
coedge $-1 -1 $-1 $405 $297 $300 $423 forward $420 $-1 #
loop $-1 -1 $-1 $-1 $297 $494 #
straight-curve $-1 -1 $-1 -5.5562500000000004 -1.3748153285077962 -2.5399999999999996 0.49999999999999983 -0.86602540378443882 0 I I #
coedge $-1 -1 $-1 $300 $299 $404 $496 forward $301 $-1 #
edge $-1 -1 $-1 $302 3.1749999999999989 $497 6.3499999999999996 $300 $508 forward @7 unknown #
face $-1 -1 $-1 $503 $301 $24 $-1 $509 reversed single #
point $-1 -1 $-1 -3.1749999999999989 -5.4992613140311875 -2.5399999999999996 #
edge $-1 -1 $-1 $304 0 $510 5.4992613140311875 $410 $498 forward @7 unknown #
point $-1 -1 $-1 -6.3499999999999996 0 -2.5399999999999996 #
vertex $-1 -1 $-1 $306 $511 #
straight-curve $-1 -1 $-1 -6.3499999999999996 0 2.5399999999999996 0 -1 0 I I #
straight-curve $-1 -1 $-1 0 -5.4992613140311875 2.5399999999999996 1 0 0 I I #
model_id-kcp-attrib $-1 -1 $-1 $-1 $311 1 1021487964 1021487964 -2065825791 9 #
plane-surface $-1 -1 $-1 3.1749999999999998 5.4992613140311875 0 0 1 0 -25.399999999999999 0 0 forward_v I I I I #
coedge $-1 -1 $-1 $316 $314 $318 $439 reversed $201 $-1 #
edge $512 -1 $-1 $328 0 $513 0.19999999999999998 $314 $514 forward @7 unknown #
attrib_edge_convexity-kcp-attrib $-1 -1 $515 $-1 $317 1 #
vertex $-1 -1 $-1 $439 $516 #
straight-curve $-1 -1 $-1 3.1749999999999998 -5.4992613140311875 0 0 0 25.399999999999999 I I #
coedge $-1 -1 $-1 $449 $318 $446 $517 forward $125 $-1 #
edge $518 -1 $-1 $436 0 $513 0.25000000000000006 $318 $519 forward @7 unknown #
edge $-1 -1 $-1 $345 0 $442 0.25000000000000006 $319 $520 forward @7 unknown #
model_id-kcp-attrib $-1 -1 $521 $-1 $320 1 1021487964 1021487964 -2065825791 13 #
vertex $-1 -1 $-1 $440 $522 #
straight-curve $-1 -1 $-1 -3.1749999999999998 -5.4992613140311875 5.0799999999999992 25.399999999999999 0 0 I I #
attrib_edge_convexity-kcp-attrib $-1 -1 $523 $-1 $324 1 #
straight-curve $-1 -1 $-1 3.1749999999999998 -5.4992613140311875 0 12.699999999999996 21.997045256124746 0 I I #
coedge $-1 -1 $-1 $326 $325 $438 $517 reversed $312 $-1 #
convexity-sys-attrib $-1 -1 $-1 $327 $213 #
point $-1 -1 $-1 6.3499999999999996 0 0 #
coedge $-1 -1 $-1 $343 $438 $330 $450 forward $125 $-1 #
edge $524 -1 $-1 $452 0 $347 0.25 $449 $525 forward @7 unknown #
attrib_edge_convexity-kcp-attrib $-1 -1 $526 $-1 $331 1 #
vertex $-1 -1 $-1 $450 $527 #
straight-curve $-1 -1 $-1 3.1749999999999998 5.4992613140311875 0 0 0 25.399999999999999 I I #
convexity-sys-attrib $-1 -1 $-1 $335 $221 #
point $-1 -1 $-1 3.1749999999999998 -5.4992613140311875 0 #
attrib_edge_convexity-kcp-attrib $-1 -1 $528 $-1 $339 1 #
straight-curve $-1 -1 $-1 -3.1749999999999998 -5.4992613140311875 0 0 0 25.399999999999999 I I #
model_id-kcp-attrib $-1 -1 $-1 $-1 $340 1 1021487964 1021487964 -2065825791 11 #
plane-surface $-1 -1 $-1 -6.3499999999999996 0 0 -0.86602540378443882 -0.49999999999999989 0 12.699999999999999 -21.99704525612475 0 forward_v I I I I #
straight-curve $-1 -1 $-1 -3.1749999999999998 5.4992613140311875 5.0799999999999992 -12.699999999999996 -21.997045256124746 0 I I #
point $-1 -1 $-1 -6.3499999999999996 0 5.0799999999999992 #
point $-1 -1 $-1 -3.1749999999999998 5.4992613140311875 5.0799999999999992 #
straight-curve $-1 -1 $-1 -6.3499999999999996 5.4992613140311875 0 0 0 -1 I I #
point $-1 -1 $-1 -6.3499999999999996 -5.4992613140311875 -2.5399999999999996 #
straight-curve $-1 -1 $-1 -6.3499999999999996 0 -2.5399999999999996 0 1 0 I I #
point $-1 -1 $-1 -6.3499999999999996 5.4992613140311875 -2.5399999999999996 #
loop $-1 -1 $-1 $-1 $476 $368 #
edge $-1 -1 $-1 $283 -1.5874999999999995 $382 4.7625000000000028 $370 $529 forward @7 unknown #
coedge $-1 -1 $-1 $385 $530 $371 $470 reversed $486 $-1 #
edge $-1 -1 $-1 $391 -6.3499999999999996 $473 -3.1749999999999998 $469 $508 forward @7 unknown #
coedge $-1 -1 $-1 $488 $372 $530 $531 reversed $472 $-1 #
loop $-1 -1 $-1 $-1 $488 $532 #
vertex $-1 -1 $-1 $373 $533 #
straight-curve $-1 -1 $-1 3.9687500000000004 -4.1244459855233897 -2.5399999999999996 0.49999999999999983 0.86602540378443882 0 I I #
edge $-1 -1 $-1 $477 -2.5399999999999996 $479 2.5399999999999996 $393 $534 forward @7 unknown #
coedge $-1 -1 $-1 $396 $375 $380 $481 forward $467 $-1 #
vertex $-1 -1 $-1 $397 $535 #
straight-curve $-1 -1 $-1 0 5.4992613140311875 2.5399999999999996 -1 0 0 I I #
vertex $-1 -1 $-1 $395 $536 #
straight-curve $-1 -1 $-1 0 5.4992613140311875 -2.5399999999999996 1 0 0 I I #
edge $-1 -1 $-1 $383 -4.7625000000000028 $284 1.5874999999999995 $476 $537 forward @7 unknown #
face $-1 -1 $-1 $532 $381 $31 $-1 $538 reversed single #
point $-1 -1 $-1 3.1749999999999998 5.4992613140311875 -2.5399999999999996 #
point $-1 -1 $-1 3.1749999999999998 5.4992613140311875 2.5399999999999996 #
coedge $-1 -1 $-1 $530 $385 $388 $490 reversed $486 $-1 #
loop $-1 -1 $-1 $-1 $530 $493 #
straight-curve $-1 -1 $-1 6.3499999999999996 -5.4992613140311875 0 0 0 -1 I I #
coedge $-1 -1 $-1 $398 $471 $387 $489 reversed $472 $-1 #
edge $-1 -1 $-1 $284 -4.7625000000000002 $539 1.5875000000000017 $387 $540 forward @7 unknown #
edge $-1 -1 $-1 $539 3.1749999999999998 $389 6.3499999999999996 $485 $430 forward @7 unknown #
point $-1 -1 $-1 6.3499999999999996 -5.4992613140311875 2.5399999999999996 #
point $-1 -1 $-1 6.3499999999999996 -5.4992613140311875 -2.5399999999999996 #
face $-1 -1 $-1 $482 $486 $31 $-1 $509 reversed single #
face $-1 -1 $-1 $424 $420 $24 $-1 $175 reversed single #
loop $-1 -1 $-1 $-1 $407 $402 #
edge $-1 -1 $-1 $428 -2.5399999999999996 $497 2.5399999999999996 $404 $541 forward @7 unknown #
vertex $-1 -1 $-1 $406 $542 #
straight-curve $-1 -1 $-1 -6.3499999999999996 0 -2.5399999999999996 0 1 0 I I #
coedge $-1 -1 $-1 $500 $407 $410 $426 forward $495 $-1 #
coedge $-1 -1 $-1 $407 $499 $412 $505 forward $495 $-1 #
straight-curve $-1 -1 $-1 -3.96875 4.1244459855233897 -2.5399999999999996 -0.49999999999999983 -0.86602540378443882 0 I I #
coedge $-1 -1 $-1 $410 $409 $504 $543 forward $411 $-1 #
face $-1 -1 $-1 $-1 $411 $24 $-1 $115 reversed single #
coedge $-1 -1 $-1 $413 $412 $502 $543 reversed $403 $-1 #
edge $-1 -1 $-1 $510 -6.3499999999999996 $414 -3.1749999999999989 $412 $480 forward @7 unknown #
point $-1 -1 $-1 -3.1749999999999989 5.4992613140311875 -2.5399999999999996 #
vertex $-1 -1 $-1 $416 $544 #
straight-curve $-1 -1 $-1 0 -5.4992613140311875 -2.5399999999999996 -1 0 0 I I #
plane-surface $-1 -1 $-1 0 -5.4992613140311875 0 0 1 0 0 0 1 forward_v I I I I #
vertex $-1 -1 $-1 $505 $545 #
point $-1 -1 $-1 -6.3499999999999996 -5.4992613140311875 2.5399999999999996 #
attrib_edge_convexity-kcp-attrib $-1 -1 $546 $-1 $434 1 #
vertex $-1 -1 $-1 $517 $547 #
straight-curve $-1 -1 $-1 6.3499999999999996 0 0 0 0 25.399999999999999 I I #
convexity-sys-attrib $-1 -1 $-1 $435 $317 #
point $-1 -1 $-1 3.1749999999999998 -5.4992613140311875 5.0799999999999992 #
edge $548 -1 $-1 $513 0 $452 0.25000000000000006 $438 $549 forward @7 unknown #
attrib_edge_convexity-kcp-attrib $-1 -1 $550 $-1 $439 1 #
straight-curve $-1 -1 $-1 3.1749999999999998 -5.4992613140311875 5.0799999999999992 12.699999999999996 21.997045256124746 0 I I #
straight-curve $-1 -1 $-1 -6.3499999999999996 0 5.0799999999999992 12.699999999999996 -21.997045256124746 0 I I #
attrib_edge_convexity-kcp-attrib $-1 -1 $551 $441 $320 1 #
point $-1 -1 $-1 -3.1749999999999998 -5.4992613140311875 5.0799999999999992 #
convexity-sys-attrib $-1 -1 $-1 $444 $324 #
model_id-kcp-attrib $-1 -1 $-1 $-1 $450 1 1021487964 1021487964 -2065825791 14 #
straight-curve $-1 -1 $-1 3.1749999999999998 5.4992613140311875 5.0799999999999992 -25.399999999999999 0 0 I I #
convexity-sys-attrib $-1 -1 $-1 $451 $331 #
point $-1 -1 $-1 3.1749999999999998 5.4992613140311875 5.0799999999999992 #
convexity-sys-attrib $-1 -1 $-1 $456 $339 #
straight-curve $-1 -1 $-1 5.5562500000000004 1.3748153285077962 -2.5399999999999996 -0.49999999999999983 0.86602540378443882 0 I I #
coedge $-1 -1 $-1 $469 $485 $471 $531 forward $486 $-1 #
edge $-1 -1 $-1 $539 -3.8099999999999996 $473 1.2699999999999998 $530 $552 forward @7 unknown #
face $-1 -1 $-1 $-1 $472 $31 $-1 $553 reversed single #
point $-1 -1 $-1 3.1749999999999998 -5.4992613140311875 -2.5399999999999996 #
straight-curve $-1 -1 $-1 6.3499999999999996 5.4992613140311875 0 0 0 -1 I I #
point $-1 -1 $-1 6.3499999999999996 5.4992613140311875 2.5399999999999996 #
point $-1 -1 $-1 6.3499999999999996 5.4992613140311875 -2.5399999999999996 #
straight-curve $-1 -1 $-1 5.5562500000000004 1.3748153285077962 2.5399999999999991 0.49999999999999983 -0.86602540378443882 0 I I #
plane-surface $-1 -1 $-1 6.3499999999999996 0 -2.5399999999999996 0.86602540378443882 0.49999999999999983 0 0 0 1 forward_v I I I I #
vertex $-1 -1 $-1 $490 $554 #
straight-curve $-1 -1 $-1 3.9687500000000004 -4.1244459855233897 2.5399999999999991 -0.49999999999999983 -0.86602540378443882 0 I I #
straight-curve $-1 -1 $-1 -6.3499999999999996 -5.4992613140311875 0 0 0 -1 I I #
point $-1 -1 $-1 -6.3499999999999996 -5.4992613140311875 -2.5399999999999996 #
edge $-1 -1 $-1 $507 -2.5399999999999996 $510 2.5399999999999996 $504 $555 forward @7 unknown #
point $-1 -1 $-1 -6.3499999999999996 5.4992613140311875 2.5399999999999996 #
point $-1 -1 $-1 -6.3499999999999996 5.4992613140311875 -2.5399999999999996 #
convexity-sys-attrib $-1 -1 $-1 $512 $434 #
point $-1 -1 $-1 6.3499999999999996 0 5.0799999999999992 #
attrib_edge_convexity-kcp-attrib $-1 -1 $556 $-1 $517 1 #
straight-curve $-1 -1 $-1 6.3499999999999996 0 5.0799999999999992 -12.699999999999996 21.997045256124746 0 I I #
convexity-sys-attrib $-1 -1 $-1 $518 $439 #
convexity-sys-attrib $-1 -1 $-1 $521 $320 #
straight-curve $-1 -1 $-1 3.1750000000000003 -5.4992613140311875 -1.2699999999999998 0 0 -1 I I #
plane-surface $-1 -1 $-1 3.1749999999999998 -5.4992613140311875 -2.5399999999999996 0.86602540378443882 -0.49999999999999983 0 0 0 1 forward_v I I I I #
point $-1 -1 $-1 3.1749999999999998 -5.4992613140311875 2.5399999999999996 #
straight-curve $-1 -1 $-1 -6.3499999999999996 5.4992613140311875 0 0 0 -1 I I #
convexity-sys-attrib $-1 -1 $-1 $548 $517 #
End-of-ACIS-data 