700 0 2 0           
24 FBMach with ACIS - 7.0.3 13 ACIS 7.0.3 NT 24 Wed May 15 14:36:33 2002 
1 9.9999999999999995e-007 1e-010 
body $2 -1 $-1 $3 $-1 $4 #
bdycol-kcp $-1 -1 1 3 $5 $6 $7 #
model_id-kcp-attrib $-1 -1 $-1 $-1 $0 1 1021487792 1021487792 1269104641 1 #
lump $-1 -1 $-1 $-1 $8 $0 #
transform $-1 -1 1.0000000000000004 -5.5511151231257827e-017 0 5.5511151231257827e-017 1.0000000000000004 0 0 0 1 0 2.2204460492503131e-016 0 1 rotate no_reflect no_shear #
body $9 -1 $-1 $10 $-1 $11 #
body $12 -1 $-1 $13 $-1 $14 #
body $15 -1 $-1 $16 $-1 $17 #
shell $-1 -1 $-1 $-1 $-1 $18 $-1 $3 #
model_id-kcp-attrib $-1 -1 $-1 $-1 $5 1 1021487792 1021487792 1269104642 1 #
lump $-1 -1 $-1 $-1 $19 $5 #
transform $-1 -1 1 0 0 0 1 0 0 0 1 -4.4408920985006262e-016 0 0 1 no_rotate no_reflect no_shear #
rgb_color-st-attrib $-1 -1 $20 $-1 $6 0.5 1 1 #
lump $-1 -1 $-1 $21 $22 $6 #
transform $-1 -1 1 0 0 0 1 0 0 0 1 -4.4408920985006262e-016 0 0 1 no_rotate no_reflect no_shear #
rgb_color-st-attrib $-1 -1 $23 $-1 $7 0.5 1 1 #
lump $-1 -1 $-1 $-1 $24 $7 #
transform $-1 -1 1 0 0 0 1 0 0 0 1 0 0 0 1 no_rotate no_reflect no_shear #
face $25 -1 $-1 $26 $27 $8 $-1 $28 reversed single #
shell $-1 -1 $-1 $-1 $-1 $29 $-1 $10 #
model_id-kcp-attrib $-1 -1 $-1 $12 $6 1 1021487792 1021487793 1265696771 1 #
lump $-1 -1 $-1 $-1 $30 $6 #
shell $-1 -1 $-1 $-1 $-1 $31 $-1 $13 #
model_id-kcp-attrib $-1 -1 $-1 $15 $7 1 1021487792 1021487793 1274216452 1 #
shell $-1 -1 $-1 $-1 $-1 $32 $-1 $16 #
model_id-kcp-attrib $-1 -1 $-1 $-1 $18 1 1021487792 1021487792 1269104641 2 #
face $33 -1 $-1 $34 $35 $8 $-1 $36 forward single #
loop $-1 -1 $-1 $37 $38 $18 #
plane-surface $-1 -1 $-1 0 0 -0.9524999999999999 0 0 1 25.399999999999999 0 0 forward_v I I I I #
face $39 -1 $-1 $40 $41 $19 $-1 $42 forward single #
shell $-1 -1 $-1 $-1 $-1 $43 $-1 $21 #
face $-1 -1 $-1 $44 $45 $22 $-1 $46 reversed single #
face $-1 -1 $-1 $47 $48 $24 $-1 $49 forward single #
model_id-kcp-attrib $-1 -1 $-1 $-1 $26 1 1021487792 1021487792 1269104641 3 #
face $50 -1 $-1 $51 $52 $8 $-1 $53 forward single #
loop $-1 -1 $-1 $-1 $54 $26 #
plane-surface $-1 -1 $-1 -2.7496306570155915 0 -0.9524999999999999 -0.86602540378443882 -0.49999999999999989 0 12.699999999999999 -21.99704525612475 0 forward_v I I I I #
loop $-1 -1 $-1 $-1 $55 $18 #
coedge $-1 -1 $-1 $56 $57 $58 $59 reversed $27 $-1 #
model_id-kcp-attrib $-1 -1 $-1 $-1 $29 1 1021487792 1021487792 1269104642 5 #
face $60 -1 $-1 $61 $62 $19 $-1 $63 reversed single #
loop $-1 -1 $-1 $-1 $64 $29 #
plane-surface $-1 -1 $-1 0 0 0.9524999999999999 0 0 1 1 0 0 forward_v I I I I #
face $-1 -1 $-1 $65 $66 $30 $-1 $67 reversed single #
face $-1 -1 $-1 $68 $69 $22 $-1 $70 reversed single #
loop $-1 -1 $-1 $-1 $71 $31 #
plane-surface $-1 -1 $-1 -2.7496306570155915 4.4408920985006262e-016 -0.9524999999999999 -0.86602540378443871 -0.49999999999999983 0 0 0 -1 forward_v I I I I #
face $-1 -1 $-1 $72 $73 $24 $-1 $74 forward single #
loop $-1 -1 $-1 $75 $76 $32 #
cone-surface $-1 -1 $-1 4.4061976289810898e-017 -1.7624790515924359e-016 -0.9524999999999999 0 0 1 1.2699999999999998 1.7624790515924359e-016 0 1 I I 0 1 1.2699999999999998 forward I I I I #
model_id-kcp-attrib $-1 -1 $-1 $-1 $34 1 1021487792 1021487792 1269104641 4 #
face $77 -1 $-1 $78 $79 $8 $-1 $80 forward single #
loop $-1 -1 $-1 $-1 $81 $34 #
plane-surface $-1 -1 $-1 -1.374815328507798 -2.3812499999999996 -0.9524999999999999 0 -1 0 25.399999999999999 0 0 forward_v I I I I #
coedge $-1 -1 $-1 $82 $58 $83 $84 forward $35 $-1 #
coedge $-1 -1 $-1 $85 $85 $86 $87 reversed $37 $-1 #
coedge $-1 -1 $-1 $88 $38 $89 $90 reversed $27 $-1 #
coedge $-1 -1 $-1 $38 $91 $92 $93 reversed $27 $-1 #
coedge $-1 -1 $-1 $54 $94 $38 $59 forward $35 $-1 #
edge $95 -1 $-1 $96 0 $97 0.10825317547305477 $38 $98 forward @7 unknown #
model_id-kcp-attrib $-1 -1 $-1 $-1 $40 1 1021487792 1021487792 1269104642 2 #
face $99 -1 $-1 $100 $101 $19 $-1 $102 reversed single #
loop $-1 -1 $-1 $-1 $103 $40 #
plane-surface $-1 -1 $-1 0 0 -0.9524999999999999 0 0 1 1 0 0 forward_v I I I I #
coedge $-1 -1 $-1 $104 $105 $106 $107 forward $41 $-1 #
face $-1 -1 $-1 $108 $109 $30 $-1 $110 reversed single #
loop $-1 -1 $-1 $-1 $111 $43 #
plane-surface $-1 -1 $-1 2.749630657015592 0 0 -1 0 0 0 0 1 forward_v I I I I #
face $-1 -1 $-1 $112 $113 $22 $-1 $114 reversed single #
loop $-1 -1 $-1 $-1 $115 $44 #
plane-surface $-1 -1 $-1 -1.3748153285077966 2.3812499999999996 -0.9524999999999999 -0.86602540378443871 0.49999999999999983 0 0 0 -1 forward_v I I I I #
coedge $-1 -1 $-1 $116 $117 $118 $119 reversed $45 $-1 #
face $-1 -1 $-1 $-1 $120 $24 $-1 $121 reversed single #
loop $-1 -1 $-1 $-1 $122 $47 #
plane-surface $-1 -1 $-1 0 0 0.9524999999999999 -6.1136842428313291e-033 1.7105694144590052e-049 1 1 0 6.1136842428313291e-033 forward_v I I I I #
loop $-1 -1 $-1 $-1 $123 $32 #
coedge $-1 -1 $-1 $76 $76 $122 $124 forward $48 $-1 #
model_id-kcp-attrib $-1 -1 $-1 $-1 $51 1 1021487792 1021487792 1269104641 5 #
face $125 -1 $-1 $126 $127 $8 $-1 $128 forward single #
loop $-1 -1 $-1 $-1 $129 $51 #
plane-surface $-1 -1 $-1 1.374815328507794 -2.3812499999999996 -0.9524999999999999 0.86602540378443871 -0.50000000000000011 0 12.699999999999999 21.997045256124736 0 forward_v I I I I #
coedge $-1 -1 $-1 $130 $92 $131 $132 forward $52 $-1 #
coedge $-1 -1 $-1 $94 $54 $133 $134 reversed $35 $-1 #
coedge $-1 -1 $-1 $92 $130 $54 $84 reversed $52 $-1 #
edge $135 -1 $-1 $97 0 $136 0.074999999999999997 $83 $137 forward @7 unknown #
coedge $-1 -1 $-1 $55 $55 $138 $139 reversed $37 $-1 #
coedge $-1 -1 $-1 $140 $141 $55 $87 forward $142 $-1 #
edge $143 -1 $-1 $144 0 $145 3.1415926535897931 $55 $146 forward @7 unknown #
coedge $-1 -1 $-1 $147 $56 $148 $149 reversed $27 $-1 #
coedge $-1 -1 $-1 $150 $151 $56 $90 forward $152 $-1 #
edge $153 -1 $-1 $154 0 $96 0.10825317547305478 $56 $155 forward @7 unknown #
coedge $-1 -1 $-1 $57 $147 $156 $157 reversed $27 $-1 #
coedge $-1 -1 $-1 $81 $83 $57 $93 forward $52 $-1 #
edge $158 -1 $-1 $97 0 $159 0.10825317547305481 $57 $160 forward @7 unknown #
coedge $-1 -1 $-1 $58 $82 $150 $161 reversed $35 $-1 #
attrib_edge_convexity-kcp-attrib $-1 -1 $162 $-1 $59 1 #
vertex $-1 -1 $-1 $90 $163 #
vertex $-1 -1 $-1 $93 $164 #
straight-curve $-1 -1 $-1 -2.7496306570155915 0 -0.9524999999999999 12.699999999999996 -21.997045256124743 0 I I #
model_id-kcp-attrib $-1 -1 $-1 $-1 $61 1 1021487792 1021487792 1269104642 3 #
face $-1 -1 $-1 $165 $166 $19 $-1 $167 reversed single #
loop $-1 -1 $-1 $-1 $168 $61 #
plane-surface $-1 -1 $-1 0 -2.3812499999999996 0 0 1 0 0 0 1 forward_v I I I I #
coedge $-1 -1 $-1 $169 $170 $171 $172 forward $62 $-1 #
coedge $-1 -1 $-1 $173 $64 $174 $175 forward $41 $-1 #
coedge $-1 -1 $-1 $64 $173 $176 $177 forward $41 $-1 #
coedge $-1 -1 $-1 $178 $179 $64 $107 reversed $180 $-1 #
edge $-1 -1 $-1 $181 -2.3812499999999996 $182 2.3812499999999996 $106 $183 forward @7 unknown #
face $-1 -1 $-1 $184 $185 $30 $-1 $186 reversed single #
loop $-1 -1 $-1 $-1 $187 $65 #
plane-surface $-1 -1 $-1 0 2.3812499999999996 0 0 -1 0 0 0 -1 forward_v I I I I #
coedge $-1 -1 $-1 $188 $189 $190 $191 forward $66 $-1 #
face $-1 -1 $-1 $192 $193 $22 $-1 $194 forward single #
loop $-1 -1 $-1 $-1 $195 $68 #
plane-surface $-1 -1 $-1 -2.749630657015592 0 0 1 0 0 0 0 -1 forward_v I I I I #
coedge $-1 -1 $-1 $196 $197 $198 $199 reversed $69 $-1 #
coedge $-1 -1 $-1 $200 $71 $201 $202 reversed $45 $-1 #
coedge $-1 -1 $-1 $71 $200 $196 $203 forward $45 $-1 #
coedge $-1 -1 $-1 $204 $205 $71 $119 forward $206 $-1 #
edge $-1 -1 $-1 $207 -2.0622229927616935 $208 0.68740766425389777 $118 $209 forward @7 unknown #
loop $-1 -1 $-1 $-1 $210 $72 #
plane-surface $-1 -1 $-1 0 0 -0.9524999999999999 -6.1136842428313291e-033 1.7105694144590052e-049 1 1 0 6.1136842428313291e-033 forward_v I I I I #
coedge $-1 -1 $-1 $122 $122 $76 $124 reversed $73 $-1 #
coedge $-1 -1 $-1 $123 $123 $210 $211 reversed $75 $-1 #
edge $-1 -1 $-1 $212 -3.1415926535897931 $212 3.1415926535897931 $76 $213 forward @7 unknown #
model_id-kcp-attrib $-1 -1 $-1 $-1 $78 1 1021487792 1021487792 1269104641 6 #
face $214 -1 $-1 $215 $216 $8 $-1 $217 forward single #
loop $-1 -1 $-1 $-1 $218 $78 #
plane-surface $-1 -1 $-1 2.7496306570155915 0 -0.9524999999999999 0.86602540378443882 0.49999999999999989 0 -12.699999999999999 21.99704525612475 0 forward_v I I I I #
coedge $-1 -1 $-1 $219 $156 $220 $221 forward $79 $-1 #
coedge $-1 -1 $-1 $83 $81 $222 $223 reversed $52 $-1 #
coedge $-1 -1 $-1 $156 $219 $81 $132 reversed $79 $-1 #
edge $224 -1 $-1 $159 0 $225 0.074999999999999997 $81 $226 forward @7 unknown #
coedge $-1 -1 $-1 $222 $227 $82 $134 forward $228 $-1 #
edge $229 -1 $-1 $230 0 $136 0.10825317547305477 $133 $231 forward @7 unknown #
attrib_edge_convexity-kcp-attrib $-1 -1 $232 $-1 $84 1 #
vertex $-1 -1 $-1 $223 $233 #
straight-curve $-1 -1 $-1 -1.3748153285077966 -2.3812499999999988 -0.9524999999999999 0 0 25.399999999999999 I I #
coedge $-1 -1 $-1 $234 $235 $85 $139 forward $236 $-1 #
edge $237 -1 $-1 $145 0 $144 3.1415926535897931 $85 $238 forward @7 unknown #
coedge $-1 -1 $-1 $239 $86 $235 $240 reversed $142 $-1 #
coedge $-1 -1 $-1 $86 $239 $234 $241 forward $142 $-1 #
loop $-1 -1 $-1 $-1 $140 $242 #
attrib_edge_convexity-kcp-attrib $-1 -1 $243 $-1 $87 1 #
vertex $-1 -1 $-1 $139 $244 #
vertex $-1 -1 $-1 $139 $245 #
ellipse-curve $-1 -1 $-1 4.4061976289810898e-017 -1.7624790515924359e-016 -0.9524999999999999 0 0 -1 1.2699999999999998 1.7624790515924359e-016 0 1 I I #
coedge $-1 -1 $-1 $91 $88 $246 $247 reversed $27 $-1 #
coedge $-1 -1 $-1 $248 $249 $88 $149 forward $216 $-1 #
edge $250 -1 $-1 $251 0 $154 0.10825317547305491 $88 $252 forward @7 unknown #
coedge $-1 -1 $-1 $253 $89 $94 $161 forward $152 $-1 #
coedge $-1 -1 $-1 $89 $253 $248 $254 reversed $152 $-1 #
loop $-1 -1 $-1 $-1 $150 $215 #
attrib_edge_convexity-kcp-attrib $-1 -1 $255 $-1 $90 1 #
vertex $-1 -1 $-1 $149 $256 #
straight-curve $-1 -1 $-1 -1.3748153285077969 2.3812499999999996 -0.9524999999999999 -12.699999999999996 -21.997045256124743 0 I I #
coedge $-1 -1 $-1 $129 $131 $91 $157 forward $79 $-1 #
edge $257 -1 $-1 $159 0 $258 0.10825317547305484 $91 $259 forward @7 unknown #
attrib_edge_convexity-kcp-attrib $-1 -1 $260 $-1 $93 1 #
vertex $-1 -1 $-1 $93 $261 #
straight-curve $-1 -1 $-1 -1.374815328507798 -2.3812499999999996 -0.9524999999999999 25.399999999999999 0 0 I I #
edge $262 -1 $-1 $96 0 $230 0.074999999999999997 $150 $263 forward @7 unknown #
convexity-sys-attrib $-1 -1 $-1 $95 $59 #
point $-1 -1 $-1 -2.7496306570155915 0 -0.9524999999999999 #
point $-1 -1 $-1 -1.374815328507798 -2.3812499999999996 -0.9524999999999999 #
face $264 -1 $-1 $265 $266 $19 $-1 $267 reversed single #
loop $-1 -1 $-1 $-1 $268 $100 #
plane-surface $-1 -1 $-1 -2.749630657015592 0 0 1 0 0 0 0 -1 forward_v I I I I #
coedge $-1 -1 $-1 $269 $176 $270 $271 forward $101 $-1 #
coedge $-1 -1 $-1 $272 $103 $269 $273 forward $62 $-1 #
coedge $-1 -1 $-1 $103 $272 $274 $275 forward $62 $-1 #
coedge $-1 -1 $-1 $179 $178 $103 $172 reversed $180 $-1 #
edge $-1 -1 $-1 $276 -2.3812499999999996 $277 2.3812499999999996 $171 $278 forward @7 unknown #
coedge $-1 -1 $-1 $105 $104 $279 $280 forward $41 $-1 #
coedge $-1 -1 $-1 $281 $282 $104 $175 reversed $266 $-1 #
edge $-1 -1 $-1 $182 -2.749630657015592 $283 2.749630657015592 $174 $284 forward @7 unknown #
coedge $-1 -1 $-1 $168 $285 $105 $177 reversed $101 $-1 #
edge $-1 -1 $-1 $286 -2.749630657015592 $181 2.749630657015592 $176 $287 forward @7 unknown #
coedge $-1 -1 $-1 $171 $106 $285 $288 forward $180 $-1 #
coedge $-1 -1 $-1 $106 $171 $281 $289 reversed $180 $-1 #
loop $-1 -1 $-1 $-1 $178 $265 #
vertex $-1 -1 $-1 $107 $290 #
vertex $-1 -1 $-1 $107 $291 #
straight-curve $-1 -1 $-1 2.749630657015592 0 0.9524999999999999 0 1 0 I I #
face $-1 -1 $-1 $292 $293 $30 $-1 $186 reversed single #
loop $-1 -1 $-1 $-1 $294 $108 #
plane-surface $-1 -1 $-1 0 0 -0.9524999999999999 0 0 1 1 0 0 forward_v I I I I #
coedge $-1 -1 $-1 $295 $296 $297 $298 forward $109 $-1 #
coedge $-1 -1 $-1 $299 $111 $300 $301 reversed $66 $-1 #
coedge $-1 -1 $-1 $111 $299 $302 $303 reversed $66 $-1 #
coedge $-1 -1 $-1 $304 $305 $306 $191 reversed $307 $-1 #
edge $-1 -1 $-1 $308 -0.47624999999999995 $309 1.42875 $111 $310 forward @7 unknown #
face $-1 -1 $-1 $311 $206 $22 $-1 $194 forward single #
loop $-1 -1 $-1 $-1 $198 $112 #
plane-surface $-1 -1 $-1 0 0 0.9524999999999999 0 0 1 1 0 0 forward_v I I I I #
coedge $-1 -1 $-1 $312 $313 $117 $203 reversed $113 $-1 #
coedge $-1 -1 $-1 $314 $115 $315 $203 reversed $69 $-1 #
coedge $-1 -1 $-1 $115 $314 $316 $317 reversed $69 $-1 #
coedge $-1 -1 $-1 $318 $319 $115 $199 forward $193 $-1 #
edge $-1 -1 $-1 $208 -2.0622229927616926 $320 0.68740766425389821 $198 $321 forward @7 unknown #
coedge $-1 -1 $-1 $117 $116 $322 $323 reversed $45 $-1 #
coedge $-1 -1 $-1 $324 $325 $116 $202 forward $326 $-1 #
edge $-1 -1 $-1 $327 -0.47624999999999995 $207 1.42875 $201 $328 forward @7 unknown #
edge $-1 -1 $-1 $329 -0.47624999999999995 $208 1.42875 $315 $330 forward @7 unknown #
coedge $-1 -1 $-1 $205 $118 $313 $331 forward $206 $-1 #
coedge $-1 -1 $-1 $118 $204 $324 $332 forward $206 $-1 #
loop $-1 -1 $-1 $-1 $118 $192 #
vertex $-1 -1 $-1 $119 $333 #
vertex $-1 -1 $-1 $331 $334 #
straight-curve $-1 -1 $-1 -2.4059268248886427 -0.59531249999999936 0.95249999999999979 -0.49999999999999983 0.86602540378443871 0 I I #
coedge $-1 -1 $-1 $210 $210 $123 $211 forward $120 $-1 #
edge $-1 -1 $-1 $335 -3.1415926535897931 $335 3.1415926535897931 $123 $336 forward @7 unknown #
vertex $-1 -1 $-1 $124 $337 #
ellipse-curve $-1 -1 $-1 4.4061976289810898e-017 1.3218592886943268e-016 0.9524999999999999 0 0 -1 -1.2699999999999998 -1.3218592886943268e-016 0 1 I I #
model_id-kcp-attrib $-1 -1 $-1 $-1 $126 1 1021487792 1021487792 1269104641 7 #
face $338 -1 $-1 $339 $152 $8 $-1 $340 forward single #
loop $-1 -1 $-1 $-1 $248 $126 #
plane-surface $-1 -1 $-1 1.3748153285077975 2.3812499999999996 -0.9524999999999999 0 1 0 -25.399999999999999 0 0 forward_v I I I I #
coedge $-1 -1 $-1 $341 $246 $249 $342 forward $127 $-1 #
coedge $-1 -1 $-1 $131 $129 $343 $344 reversed $79 $-1 #
coedge $-1 -1 $-1 $246 $341 $129 $221 reversed $127 $-1 #
edge $345 -1 $-1 $258 0 $346 0.074999999999999997 $129 $347 forward @7 unknown #
coedge $-1 -1 $-1 $343 $133 $130 $223 forward $228 $-1 #
edge $348 -1 $-1 $136 0 $225 0.10825317547305481 $222 $349 forward @7 unknown #
attrib_edge_convexity-kcp-attrib $-1 -1 $350 $-1 $132 1 #
vertex $-1 -1 $-1 $223 $351 #
straight-curve $-1 -1 $-1 1.374815328507794 -2.3812499999999996 -0.9524999999999999 0 0 25.399999999999999 I I #
coedge $-1 -1 $-1 $133 $352 $253 $353 forward $228 $-1 #
loop $-1 -1 $-1 $354 $343 $339 #
attrib_edge_convexity-kcp-attrib $-1 -1 $355 $-1 $134 1 #
vertex $-1 -1 $-1 $134 $356 #
straight-curve $-1 -1 $-1 -2.7496306570155915 0 0.9524999999999999 12.699999999999996 -21.997045256124743 0 I I #
convexity-sys-attrib $-1 -1 $-1 $135 $84 #
point $-1 -1 $-1 -1.374815328507798 -2.3812499999999996 0.9524999999999999 #
coedge $-1 -1 $-1 $357 $138 $141 $241 reversed $236 $-1 #
coedge $-1 -1 $-1 $138 $357 $140 $240 forward $236 $-1 #
loop $-1 -1 $-1 $-1 $234 $358 #
attrib_edge_convexity-kcp-attrib $-1 -1 $359 $-1 $139 1 #
ellipse-curve $-1 -1 $-1 4.4061976289810898e-017 1.3218592886943268e-016 -0.9524999999999999 0 0 -1 -1.2699999999999998 -1.3218592886943268e-016 0 1 I I #
coedge $-1 -1 $-1 $141 $140 $360 $361 reversed $142 $-1 #
edge $-1 -1 $-1 $362 0 $145 0.074999999999999997 $235 $363 forward @7 unknown #
edge $-1 -1 $-1 $364 0 $144 0.074999999999999997 $234 $365 forward @7 unknown #
face $366 -1 $-1 $358 $142 $8 $-1 $367 reversed single #
convexity-sys-attrib $-1 -1 $-1 $143 $87 #
point $-1 -1 $-1 1.2699999999999998 0 -0.9524999999999999 #
point $-1 -1 $-1 -1.2699999999999998 0 -0.9524999999999999 #
coedge $-1 -1 $-1 $218 $220 $147 $247 forward $127 $-1 #
edge $368 -1 $-1 $258 0 $251 0.10825317547305477 $147 $369 forward @7 unknown #
coedge $-1 -1 $-1 $370 $148 $151 $254 forward $216 $-1 #
coedge $-1 -1 $-1 $148 $370 $218 $342 reversed $216 $-1 #
attrib_edge_convexity-kcp-attrib $-1 -1 $371 $-1 $149 1 #
vertex $-1 -1 $-1 $247 $372 #
straight-curve $-1 -1 $-1 1.3748153285077975 2.3812499999999996 -0.9524999999999999 -25.399999999999999 0 0 I I #
coedge $-1 -1 $-1 $151 $150 $227 $353 reversed $152 $-1 #
edge $-1 -1 $-1 $154 0 $373 0.074999999999999997 $248 $374 forward @7 unknown #
convexity-sys-attrib $-1 -1 $-1 $153 $90 #
point $-1 -1 $-1 -1.3748153285077969 2.3812499999999996 -0.9524999999999999 #
attrib_edge_convexity-kcp-attrib $-1 -1 $375 $-1 $157 1 #
vertex $-1 -1 $-1 $157 $376 #
straight-curve $-1 -1 $-1 1.374815328507794 -2.3812499999999996 -0.9524999999999999 12.699999999999999 21.997045256124739 0 I I #
convexity-sys-attrib $-1 -1 $-1 $158 $93 #
point $-1 -1 $-1 1.374815328507794 -2.3812499999999996 -0.9524999999999999 #
attrib_edge_convexity-kcp-attrib $-1 -1 $377 $-1 $161 1 #
straight-curve $-1 -1 $-1 -2.7496306570155924 3.5249581031848718e-016 -0.9524999999999999 0 0 25.399999999999999 I I #
model_id-kcp-attrib $-1 -1 $-1 $-1 $165 1 1021487792 1021487792 1269104642 4 #
face $-1 -1 $-1 $-1 $180 $19 $-1 $378 reversed single #
loop $-1 -1 $-1 $-1 $281 $165 #
plane-surface $-1 -1 $-1 0 2.3812499999999996 0 0 -1 0 0 0 -1 forward_v I I I I #
coedge $-1 -1 $-1 $379 $279 $282 $380 forward $166 $-1 #
coedge $-1 -1 $-1 $285 $168 $169 $273 reversed $101 $-1 #
coedge $-1 -1 $-1 $279 $379 $168 $271 reversed $166 $-1 #
edge $-1 -1 $-1 $286 -0.9524999999999999 $381 0.9524999999999999 $270 $382 forward @7 unknown #
coedge $-1 -1 $-1 $170 $169 $379 $383 forward $62 $-1 #
edge $-1 -1 $-1 $277 -2.749630657015592 $381 2.749630657015592 $269 $384 forward @7 unknown #
coedge $-1 -1 $-1 $282 $281 $170 $275 reversed $266 $-1 #
edge $-1 -1 $-1 $385 -2.749630657015592 $276 2.749630657015592 $274 $386 forward @7 unknown #
vertex $-1 -1 $-1 $172 $387 #
vertex $-1 -1 $-1 $288 $388 #
straight-curve $-1 -1 $-1 2.749630657015592 0 -0.9524999999999999 0 -1 0 I I #
coedge $-1 -1 $-1 $268 $270 $173 $280 reversed $166 $-1 #
edge $-1 -1 $-1 $283 -2.3812499999999996 $286 2.3812499999999996 $279 $389 forward @7 unknown #
coedge $-1 -1 $-1 $274 $174 $179 $289 forward $266 $-1 #
coedge $-1 -1 $-1 $174 $274 $268 $380 reversed $266 $-1 #
vertex $-1 -1 $-1 $175 $390 #
straight-curve $-1 -1 $-1 0 2.3812499999999996 0.9524999999999999 -1 0 0 I I #
coedge $-1 -1 $-1 $176 $269 $178 $288 reversed $101 $-1 #
vertex $-1 -1 $-1 $280 $391 #
straight-curve $-1 -1 $-1 0 -2.3812499999999996 0.9524999999999999 1 0 0 I I #
edge $-1 -1 $-1 $181 -0.9524999999999999 $277 0.9524999999999999 $178 $392 forward @7 unknown #
edge $-1 -1 $-1 $182 -0.9524999999999999 $276 0.9524999999999999 $179 $393 forward @7 unknown #
point $-1 -1 $-1 2.749630657015592 -2.3812499999999996 0.9524999999999999 #
point $-1 -1 $-1 2.749630657015592 2.3812499999999996 0.9524999999999999 #
face $-1 -1 $-1 $394 $395 $30 $-1 $194 forward single #
loop $-1 -1 $-1 $-1 $396 $184 #
coedge $-1 -1 $-1 $302 $397 $398 $399 forward $185 $-1 #
coedge $-1 -1 $-1 $400 $187 $401 $402 reversed $109 $-1 #
coedge $-1 -1 $-1 $187 $400 $403 $404 reversed $109 $-1 #
coedge $-1 -1 $-1 $405 $406 $187 $298 reversed $407 $-1 #
edge $-1 -1 $-1 $408 -0.47624999999999995 $409 1.42875 $187 $410 forward @7 unknown #
coedge $-1 -1 $-1 $189 $188 $411 $412 forward $66 $-1 #
coedge $-1 -1 $-1 $413 $414 $188 $301 forward $395 $-1 #
edge $-1 -1 $-1 $415 -2.3812499999999996 $309 0 $188 $416 forward @7 unknown #
coedge $-1 -1 $-1 $397 $294 $189 $303 forward $185 $-1 #
edge $-1 -1 $-1 $308 0 $417 2.3812499999999996 $189 $418 forward @7 unknown #
coedge $-1 -1 $-1 $419 $190 $420 $421 reversed $307 $-1 #
coedge $-1 -1 $-1 $190 $419 $422 $423 reversed $307 $-1 #
coedge $-1 -1 $-1 $406 $405 $424 $191 forward $407 $-1 #
loop $-1 -1 $-1 $-1 $190 $425 #
vertex $-1 -1 $-1 $303 $426 #
vertex $-1 -1 $-1 $423 $427 #
straight-curve $-1 -1 $-1 2.749630657015592 2.2204460492503131e-015 -0.47624999999999995 0 0 1 I I #
face $-1 -1 $-1 $428 $429 $22 $-1 $110 reversed single #
coedge $-1 -1 $-1 $430 $195 $431 $432 reversed $113 $-1 #
coedge $-1 -1 $-1 $195 $430 $204 $331 reversed $113 $-1 #
coedge $-1 -1 $-1 $197 $196 $433 $434 reversed $69 $-1 #
coedge $-1 -1 $-1 $435 $436 $195 $203 forward $437 $-1 #
coedge $-1 -1 $-1 $438 $439 $197 $317 forward $429 $-1 #
edge $-1 -1 $-1 $320 -1.42875 $440 0.47624999999999995 $316 $441 forward @7 unknown #
coedge $-1 -1 $-1 $319 $198 $439 $442 forward $193 $-1 #
coedge $-1 -1 $-1 $198 $318 $435 $443 forward $193 $-1 #
vertex $-1 -1 $-1 $442 $444 #
straight-curve $-1 -1 $-1 -1.7185191606347456 1.7859374999999995 0.95249999999999979 0.49999999999999983 0.86602540378443871 0 I I #
coedge $-1 -1 $-1 $445 $431 $200 $323 forward $446 $-1 #
edge $-1 -1 $-1 $329 -0.68740766425389777 $327 2.0622229927616935 $322 $447 forward @7 unknown #
coedge $-1 -1 $-1 $448 $201 $205 $332 reversed $326 $-1 #
coedge $-1 -1 $-1 $201 $448 $445 $449 reversed $326 $-1 #
loop $-1 -1 $-1 $-1 $201 $450 #
vertex $-1 -1 $-1 $449 $451 #
straight-curve $-1 -1 $-1 -1.3748153285077958 -2.3812499999999996 -0.47624999999999995 0 0 1 I I #
vertex $-1 -1 $-1 $452 $453 #
straight-curve $-1 -1 $-1 -2.749630657015592 2.2204460492503131e-016 -0.47624999999999995 0 0 1 I I #
edge $-1 -1 $-1 $208 -4.4408920985006262e-016 $454 2.3812499999999996 $313 $455 forward @7 unknown #
edge $-1 -1 $-1 $454 -2.749630657015592 $207 -1.3748153285077958 $324 $456 forward @7 unknown #
point $-1 -1 $-1 -1.3748153285077958 -2.3812499999999988 0.9524999999999999 #
point $-1 -1 $-1 -2.7496306570155915 4.4408920985006262e-016 0.9524999999999999 #
vertex $-1 -1 $-1 $211 $457 #
ellipse-curve $-1 -1 $-1 4.4061976289810898e-017 -1.7624790515924359e-016 -0.9524999999999999 0 0 -1 1.2699999999999998 1.7624790515924359e-016 0 1 I I #
point $-1 -1 $-1 1.2699999999999998 0 0.9524999999999999 #
model_id-kcp-attrib $-1 -1 $-1 $-1 $215 1 1021487792 1021487792 1269104641 8 #
face $458 -1 $-1 $242 $228 $8 $-1 $459 forward single #
plane-surface $-1 -1 $-1 -1.3748153285077969 2.3812499999999996 -0.9524999999999999 -0.86602540378443871 0.49999999999999989 0 -12.699999999999999 -21.997045256124746 0 forward_v I I I I #
coedge $-1 -1 $-1 $220 $218 $460 $461 reversed $127 $-1 #
edge $-1 -1 $-1 $251 0 $462 0.074999999999999997 $218 $463 forward @7 unknown #
coedge $-1 -1 $-1 $460 $222 $219 $344 forward $228 $-1 #
edge $464 -1 $-1 $225 0 $346 0.10825317547305484 $343 $465 forward @7 unknown #
attrib_edge_convexity-kcp-attrib $-1 -1 $466 $-1 $221 1 #
vertex $-1 -1 $-1 $461 $467 #
straight-curve $-1 -1 $-1 2.7496306570155911 1.0574874309554614e-015 -0.9524999999999999 0 0 25.399999999999999 I I #
model_id-kcp-attrib $-1 -1 $468 $-1 $223 1 1021487792 1021487792 1269104641 13 #
straight-curve $-1 -1 $-1 -1.374815328507798 -2.3812499999999996 0.9524999999999999 25.399999999999999 0 0 I I #
convexity-sys-attrib $-1 -1 $-1 $224 $132 #
point $-1 -1 $-1 1.374815328507794 -2.3812499999999996 0.9524999999999999 #
coedge $-1 -1 $-1 $227 $460 $370 $469 forward $228 $-1 #
edge $-1 -1 $-1 $373 0 $230 0.10825317547305478 $227 $470 forward @7 unknown #
loop $-1 -1 $-1 $-1 $360 $339 #
convexity-sys-attrib $-1 -1 $-1 $229 $134 #
point $-1 -1 $-1 -2.7496306570155915 0 0.9524999999999999 #
coedge $-1 -1 $-1 $235 $234 $471 $472 reversed $236 $-1 #
face $473 -1 $-1 $-1 $236 $8 $-1 $474 reversed single #
convexity-sys-attrib $-1 -1 $-1 $237 $139 #
coedge $-1 -1 $-1 $471 $471 $239 $361 forward $354 $-1 #
edge $-1 -1 $-1 $364 0 $362 3.1415926535897931 $360 $475 forward @7 unknown #
vertex $-1 -1 $-1 $472 $476 #
straight-curve $-1 -1 $-1 -1.2699999999999998 0 0.9524999999999999 0 0 -25.399999999999999 I I #
vertex $-1 -1 $-1 $472 $477 #
straight-curve $-1 -1 $-1 1.2699999999999998 1.5552500693544188e-016 0.9524999999999999 0 0 -25.399999999999999 I I #
model_id-kcp-attrib $-1 -1 $-1 $-1 $242 1 1021487792 1021487792 1269104641 10 #
cone-surface $-1 -1 $-1 0 0 0.9524999999999999 0 0 -1 -1.2699999999999998 0 0 1 I I 0 1 1.2699999999999998 forward I I I I #
attrib_edge_convexity-kcp-attrib $-1 -1 $478 $-1 $247 1 #
straight-curve $-1 -1 $-1 2.7496306570155915 0 -0.9524999999999999 -12.699999999999996 21.997045256124743 0 I I #
coedge $-1 -1 $-1 $249 $248 $352 $469 reversed $216 $-1 #
convexity-sys-attrib $-1 -1 $-1 $250 $149 #
point $-1 -1 $-1 1.3748153285077975 2.3812499999999996 -0.9524999999999999 #
vertex $-1 -1 $-1 $353 $479 #
straight-curve $-1 -1 $-1 -1.3748153285077969 2.3812499999999996 -0.9524999999999999 0 0 25.399999999999999 I I #
convexity-sys-attrib $-1 -1 $-1 $257 $157 #
point $-1 -1 $-1 2.7496306570155915 0 -0.9524999999999999 #
convexity-sys-attrib $-1 -1 $-1 $262 $161 #
plane-surface $-1 -1 $-1 2.749630657015592 0 0 -1 0 0 0 0 1 forward_v I I I I #
coedge $-1 -1 $-1 $270 $268 $272 $383 reversed $166 $-1 #
edge $-1 -1 $-1 $283 -0.9524999999999999 $385 0.9524999999999999 $282 $480 forward @7 unknown #
vertex $-1 -1 $-1 $383 $481 #
straight-curve $-1 -1 $-1 -2.749630657015592 -2.3812499999999996 0 0 0 -1 I I #
edge $-1 -1 $-1 $381 -2.3812499999999996 $385 2.3812499999999996 $379 $482 forward @7 unknown #
straight-curve $-1 -1 $-1 0 -2.3812499999999996 -0.9524999999999999 -1 0 0 I I #
vertex $-1 -1 $-1 $275 $483 #
straight-curve $-1 -1 $-1 0 2.3812499999999996 -0.9524999999999999 1 0 0 I I #
point $-1 -1 $-1 2.749630657015592 2.3812499999999996 -0.9524999999999999 #
point $-1 -1 $-1 2.749630657015592 -2.3812499999999996 -0.9524999999999999 #
straight-curve $-1 -1 $-1 -2.749630657015592 0 0.9524999999999999 0 -1 0 I I #
point $-1 -1 $-1 -2.749630657015592 2.3812499999999996 0.9524999999999999 #
point $-1 -1 $-1 -2.749630657015592 -2.3812499999999996 0.9524999999999999 #
straight-curve $-1 -1 $-1 2.749630657015592 -2.3812499999999996 0 0 0 -1 I I #
straight-curve $-1 -1 $-1 2.749630657015592 2.3812499999999996 0 0 0 -1 I I #
face $-1 -1 $-1 $425 $484 $30 $-1 $194 forward single #
loop $-1 -1 $-1 $-1 $413 $292 #
coedge $-1 -1 $-1 $403 $420 $405 $485 forward $293 $-1 #
coedge $-1 -1 $-1 $294 $302 $486 $487 forward $185 $-1 #
coedge $-1 -1 $-1 $488 $424 $294 $399 reversed $489 $-1 #
edge $-1 -1 $-1 $490 -0.68740766425389832 $308 2.0622229927616953 $294 $491 forward @7 unknown #
coedge $-1 -1 $-1 $296 $295 $419 $492 forward $109 $-1 #
coedge $-1 -1 $-1 $493 $422 $295 $402 forward $484 $-1 #
edge $-1 -1 $-1 $494 -2.749630657015592 $409 -1.3748153285077971 $295 $495 forward @7 unknown #
coedge $-1 -1 $-1 $420 $396 $296 $404 forward $293 $-1 #
edge $-1 -1 $-1 $408 1.3748153285077971 $496 2.749630657015592 $296 $497 forward @7 unknown #
coedge $-1 -1 $-1 $306 $297 $396 $485 reversed $407 $-1 #
coedge $-1 -1 $-1 $297 $306 $493 $498 reversed $407 $-1 #
loop $-1 -1 $-1 $-1 $406 $499 #
vertex $-1 -1 $-1 $404 $500 #
vertex $-1 -1 $-1 $298 $501 #
straight-curve $-1 -1 $-1 1.3748153285077971 2.3812499999999996 -0.47624999999999995 0 0 1 I I #
coedge $-1 -1 $-1 $502 $486 $299 $412 reversed $503 $-1 #
edge $-1 -1 $-1 $415 -0.9524999999999999 $417 0.9524999999999999 $299 $504 forward @7 unknown #
coedge $-1 -1 $-1 $414 $300 $505 $506 forward $395 $-1 #
coedge $-1 -1 $-1 $300 $413 $502 $507 forward $395 $-1 #
vertex $-1 -1 $-1 $301 $508 #
straight-curve $-1 -1 $-1 2.749630657015592 0 0.9524999999999999 0 1 0 I I #
vertex $-1 -1 $-1 $412 $509 #
straight-curve $-1 -1 $-1 2.749630657015592 0 -0.9524999999999999 0 -1 0 I I #
coedge $-1 -1 $-1 $305 $304 $400 $492 reversed $307 $-1 #
coedge $-1 -1 $-1 $396 $403 $304 $421 forward $293 $-1 #
edge $-1 -1 $-1 $496 -2.3812499999999996 $308 0 $304 $418 forward @7 unknown #
coedge $-1 -1 $-1 $401 $493 $305 $423 forward $484 $-1 #
edge $-1 -1 $-1 $309 0 $494 2.3812499999999996 $305 $416 forward @7 unknown #
coedge $-1 -1 $-1 $398 $505 $111 $191 reversed $489 $-1 #
face $-1 -1 $-1 $510 $307 $30 $-1 $67 reversed single #
point $-1 -1 $-1 2.7496306570155924 0 -0.9524999999999999 #
point $-1 -1 $-1 2.7496306570155924 0 0.9524999999999999 #
face $-1 -1 $-1 $511 $512 $22 $-1 $186 reversed single #
loop $-1 -1 $-1 $-1 $316 $311 #
coedge $-1 -1 $-1 $313 $312 $448 $513 reversed $113 $-1 #
coedge $-1 -1 $-1 $322 $445 $312 $432 forward $446 $-1 #
edge $-1 -1 $-1 $514 -2.3812499999999996 $329 4.4408920985006262e-016 $312 $515 forward @7 unknown #
coedge $-1 -1 $-1 $516 $517 $314 $434 forward $512 $-1 #
edge $-1 -1 $-1 $440 -0.68740766425389821 $329 2.0622229927616926 $433 $518 forward @7 unknown #
coedge $-1 -1 $-1 $519 $315 $319 $443 reversed $437 $-1 #
coedge $-1 -1 $-1 $315 $519 $516 $452 reversed $437 $-1 #
loop $-1 -1 $-1 $-1 $315 $520 #
coedge $-1 -1 $-1 $521 $316 $517 $522 reversed $429 $-1 #
coedge $-1 -1 $-1 $316 $521 $318 $442 reversed $429 $-1 #
vertex $-1 -1 $-1 $317 $523 #
straight-curve $-1 -1 $-1 -1.3748153285077969 2.3812499999999996 -0.47624999999999995 0 0 -1 I I #
edge $-1 -1 $-1 $320 1.3748153285077966 $524 2.749630657015592 $439 $495 forward @7 unknown #
edge $-1 -1 $-1 $524 -2.3812499999999996 $208 -4.4408920985006262e-016 $435 $455 forward @7 unknown #
point $-1 -1 $-1 -1.3748153285077966 2.3812499999999996 0.9524999999999999 #
coedge $-1 -1 $-1 $431 $322 $325 $449 forward $446 $-1 #
loop $-1 -1 $-1 $-1 $322 $511 #
straight-curve $-1 -1 $-1 -2.4059268248886427 -0.59531249999999936 -0.9524999999999999 0.49999999999999983 -0.86602540378443871 0 I I #
coedge $-1 -1 $-1 $325 $324 $430 $513 forward $326 $-1 #
edge $-1 -1 $-1 $327 1.3748153285077958 $514 2.749630657015592 $325 $525 forward @7 unknown #
face $-1 -1 $-1 $520 $326 $22 $-1 $526 reversed single #
point $-1 -1 $-1 -1.3748153285077958 -2.3812499999999988 -0.9524999999999999 #
edge $-1 -1 $-1 $329 4.4408920985006262e-016 $527 2.3812499999999996 $436 $515 forward @7 unknown #
point $-1 -1 $-1 -2.7496306570155915 4.4408920985006262e-016 -0.9524999999999999 #
vertex $-1 -1 $-1 $331 $528 #
straight-curve $-1 -1 $-1 -2.749630657015592 0 0.9524999999999999 0 -1 0 I I #
straight-curve $-1 -1 $-1 0 -2.3812499999999996 0.9524999999999999 1 0 0 I I #
point $-1 -1 $-1 -1.2699999999999998 0 -0.9524999999999999 #
model_id-kcp-attrib $-1 -1 $-1 $-1 $339 1 1021487792 1021487792 1269104641 9 #
plane-surface $-1 -1 $-1 0 0 0.9524999999999999 0 0 1 25.399999999999999 0 0 forward_v I I I I #
coedge $-1 -1 $-1 $352 $343 $341 $461 forward $228 $-1 #
edge $-1 -1 $-1 $346 0 $462 0.10825317547305477 $460 $529 forward @7 unknown #
vertex $-1 -1 $-1 $469 $530 #
straight-curve $-1 -1 $-1 1.3748153285077964 2.3812499999999992 -0.9524999999999999 0 0 25.399999999999999 I I #
attrib_edge_convexity-kcp-attrib $-1 -1 $531 $-1 $344 1 #
straight-curve $-1 -1 $-1 1.374815328507794 -2.3812499999999996 0.9524999999999999 12.699999999999999 21.997045256124739 0 I I #
convexity-sys-attrib $-1 -1 $-1 $345 $221 #
point $-1 -1 $-1 2.7496306570155915 0 0.9524999999999999 #
attrib_edge_convexity-kcp-attrib $-1 -1 $532 $348 $223 1 #
edge $533 -1 $-1 $462 0 $373 0.10825317547305491 $352 $534 forward @7 unknown #
straight-curve $-1 -1 $-1 -1.3748153285077969 2.3812499999999996 0.9524999999999999 -12.699999999999996 -21.997045256124743 0 I I #
coedge $-1 -1 $-1 $360 $360 $357 $472 forward $354 $-1 #
edge $-1 -1 $-1 $362 0 $364 3.1415926535897931 $471 $535 forward @7 unknown #
model_id-kcp-attrib $-1 -1 $-1 $-1 $358 1 1021487792 1021487792 1269104641 11 #
cone-surface $-1 -1 $-1 0 0 0.9524999999999999 0 0 -1 -1.2699999999999998 0 0 1 I I 0 1 1.2699999999999998 forward I I I I #
ellipse-curve $-1 -1 $-1 0 0 0.9524999999999999 0 0 -1 1.2699999999999998 0 0 1 I I #
point $-1 -1 $-1 -1.2699999999999998 0 0.9524999999999999 #
point $-1 -1 $-1 1.2699999999999998 0 0.9524999999999999 #
convexity-sys-attrib $-1 -1 $-1 $368 $247 #
point $-1 -1 $-1 -1.3748153285077969 2.3812499999999996 0.9524999999999999 #
straight-curve $-1 -1 $-1 -2.749630657015592 2.3812499999999996 0 0 0 -1 I I #
point $-1 -1 $-1 -2.749630657015592 -2.3812499999999996 -0.9524999999999999 #
straight-curve $-1 -1 $-1 -2.749630657015592 0 -0.9524999999999999 0 1 0 I I #
point $-1 -1 $-1 -2.749630657015592 2.3812499999999996 -0.9524999999999999 #
loop $-1 -1 $-1 $-1 $493 $394 #
edge $-1 -1 $-1 $308 -0.68740766425389777 $408 2.0622229927616931 $396 $536 forward @7 unknown #
coedge $-1 -1 $-1 $411 $537 $397 $487 reversed $503 $-1 #
edge $-1 -1 $-1 $417 -2.749630657015592 $490 -1.3748153285077944 $486 $525 forward @7 unknown #
coedge $-1 -1 $-1 $505 $398 $537 $538 reversed $489 $-1 #
loop $-1 -1 $-1 $-1 $505 $539 #
vertex $-1 -1 $-1 $399 $540 #
straight-curve $-1 -1 $-1 1.7185191606347439 -1.7859374999999997 -0.9524999999999999 0.50000000000000011 0.86602540378443871 0 I I #
edge $-1 -1 $-1 $494 -0.9524999999999999 $496 0.9524999999999999 $419 $541 forward @7 unknown #
coedge $-1 -1 $-1 $422 $401 $406 $498 forward $484 $-1 #
vertex $-1 -1 $-1 $423 $542 #
straight-curve $-1 -1 $-1 0 2.3812499999999996 0.9524999999999999 -1 0 0 I I #
vertex $-1 -1 $-1 $421 $543 #
straight-curve $-1 -1 $-1 0 2.3812499999999996 -0.9524999999999999 1 0 0 I I #
edge $-1 -1 $-1 $409 -2.0622229927616931 $309 0.68740766425389777 $493 $544 forward @7 unknown #
face $-1 -1 $-1 $539 $407 $30 $-1 $545 reversed single #
point $-1 -1 $-1 1.3748153285077971 2.3812499999999988 -0.9524999999999999 #
point $-1 -1 $-1 1.3748153285077971 2.3812499999999988 0.9524999999999999 #
coedge $-1 -1 $-1 $537 $411 $414 $507 reversed $503 $-1 #
loop $-1 -1 $-1 $-1 $537 $510 #
straight-curve $-1 -1 $-1 2.749630657015592 -2.3812499999999996 0 0 0 -1 I I #
coedge $-1 -1 $-1 $424 $488 $413 $506 reversed $489 $-1 #
edge $-1 -1 $-1 $309 -2.0622229927616953 $546 0.68740766425389832 $413 $547 forward @7 unknown #
edge $-1 -1 $-1 $546 1.3748153285077944 $415 2.749630657015592 $502 $456 forward @7 unknown #
point $-1 -1 $-1 2.749630657015592 -2.3812499999999996 0.9524999999999999 #
point $-1 -1 $-1 2.749630657015592 -2.3812499999999996 -0.9524999999999999 #
face $-1 -1 $-1 $499 $503 $30 $-1 $526 reversed single #
face $-1 -1 $-1 $450 $446 $22 $-1 $186 reversed single #
loop $-1 -1 $-1 $-1 $433 $428 #
edge $-1 -1 $-1 $454 -0.9524999999999999 $514 0.9524999999999999 $430 $548 forward @7 unknown #
vertex $-1 -1 $-1 $432 $549 #
straight-curve $-1 -1 $-1 -2.749630657015592 0 -0.9524999999999999 0 1 0 I I #
coedge $-1 -1 $-1 $517 $433 $436 $452 forward $512 $-1 #
coedge $-1 -1 $-1 $433 $516 $438 $522 forward $512 $-1 #
straight-curve $-1 -1 $-1 -1.7185191606347456 1.7859374999999995 -0.9524999999999999 -0.49999999999999983 -0.86602540378443871 0 I I #
coedge $-1 -1 $-1 $436 $435 $521 $550 forward $437 $-1 #
face $-1 -1 $-1 $-1 $437 $22 $-1 $114 reversed single #
coedge $-1 -1 $-1 $439 $438 $519 $550 reversed $429 $-1 #
edge $-1 -1 $-1 $527 -2.749630657015592 $440 -1.3748153285077966 $438 $497 forward @7 unknown #
point $-1 -1 $-1 -1.3748153285077966 2.3812499999999996 -0.9524999999999999 #
vertex $-1 -1 $-1 $442 $551 #
straight-curve $-1 -1 $-1 0 -2.3812499999999996 -0.9524999999999999 -1 0 0 I I #
plane-surface $-1 -1 $-1 0 -2.3812499999999996 0 0 1 0 0 0 1 forward_v I I I I #
vertex $-1 -1 $-1 $522 $552 #
point $-1 -1 $-1 -2.749630657015592 -2.3812499999999996 0.9524999999999999 #
straight-curve $-1 -1 $-1 2.7496306570155915 0 0.9524999999999999 -12.699999999999996 21.997045256124743 0 I I #
point $-1 -1 $-1 1.3748153285077975 2.3812499999999996 0.9524999999999999 #
convexity-sys-attrib $-1 -1 $-1 $464 $344 #
convexity-sys-attrib $-1 -1 $-1 $468 $223 #
model_id-kcp-attrib $-1 -1 $-1 $-1 $469 1 1021487792 1021487792 1269104641 14 #
straight-curve $-1 -1 $-1 1.3748153285077975 2.3812499999999996 0.9524999999999999 -25.399999999999999 0 0 I I #
ellipse-curve $-1 -1 $-1 0 0 0.9524999999999999 0 0 -1 -1.2699999999999998 0 0 1 I I #
straight-curve $-1 -1 $-1 2.4059268248886436 0.5953124999999998 -0.9524999999999999 -0.49999999999999983 0.86602540378443871 0 I I #
coedge $-1 -1 $-1 $486 $502 $488 $538 forward $503 $-1 #
edge $-1 -1 $-1 $546 -1.42875 $490 0.47624999999999995 $537 $553 forward @7 unknown #
face $-1 -1 $-1 $-1 $489 $30 $-1 $554 reversed single #
point $-1 -1 $-1 1.3748153285077944 -2.3812499999999996 -0.9524999999999999 #
straight-curve $-1 -1 $-1 2.749630657015592 2.3812499999999996 0 0 0 -1 I I #
point $-1 -1 $-1 2.749630657015592 2.3812499999999996 0.9524999999999999 #
point $-1 -1 $-1 2.749630657015592 2.3812499999999996 -0.9524999999999999 #
straight-curve $-1 -1 $-1 2.4059268248886436 0.5953124999999998 0.95249999999999979 0.49999999999999983 -0.86602540378443871 0 I I #
plane-surface $-1 -1 $-1 2.7496306570155924 0 -0.9524999999999999 0.86602540378443871 0.49999999999999983 0 0 0 1 forward_v I I I I #
vertex $-1 -1 $-1 $507 $555 #
straight-curve $-1 -1 $-1 1.7185191606347439 -1.7859374999999997 0.9524999999999999 -0.50000000000000011 -0.86602540378443871 0 I I #
straight-curve $-1 -1 $-1 -2.749630657015592 -2.3812499999999996 0 0 0 -1 I I #
point $-1 -1 $-1 -2.749630657015592 -2.3812499999999996 -0.9524999999999999 #
edge $-1 -1 $-1 $524 -0.9524999999999999 $527 0.9524999999999999 $521 $556 forward @7 unknown #
point $-1 -1 $-1 -2.749630657015592 2.3812499999999996 0.9524999999999999 #
point $-1 -1 $-1 -2.749630657015592 2.3812499999999996 -0.9524999999999999 #
straight-curve $-1 -1 $-1 1.3748153285077946 -2.3812499999999996 -0.47624999999999995 0 0 -1 I I #
plane-surface $-1 -1 $-1 1.3748153285077944 -2.3812499999999996 -0.9524999999999999 0.86602540378443871 -0.50000000000000011 0 0 0 1 forward_v I I I I #
point $-1 -1 $-1 1.3748153285077944 -2.3812499999999996 0.9524999999999999 #
straight-curve $-1 -1 $-1 -2.749630657015592 2.3812499999999996 0 0 0 -1 I I #
End-of-ACIS-data 