700 0 2 0           
24 FBMach with ACIS - 7.0.3 13 ACIS 7.0.3 NT 24 Wed May 15 14:39:09 2002 
1 9.9999999999999995e-007 1e-010 
body $2 -1 $-1 $3 $-1 $4 #
bdycol-kcp $-1 -1 1 3 $5 $6 $7 #
model_id-kcp-attrib $-1 -1 $-1 $-1 $0 1 1021487948 1021487949 -615055359 1 #
lump $-1 -1 $-1 $-1 $8 $0 #
transform $-1 -1 1.0000000000000004 -5.5511151231257827e-017 0 5.5511151231257827e-017 1.0000000000000004 0 0 0 1 0 2.2204460492503131e-016 0 1 rotate no_reflect no_shear #
body $9 -1 $-1 $10 $-1 $11 #
body $12 -1 $-1 $13 $-1 $14 #
body $15 -1 $-1 $16 $-1 $17 #
shell $-1 -1 $-1 $-1 $-1 $18 $-1 $3 #
rgb_color-st-attrib $-1 -1 $19 $-1 $5 0.5 1 1 #
lump $-1 -1 $-1 $20 $21 $5 #
transform $-1 -1 1 0 0 0 1 0 0 0 1 -4.4408920985006262e-016 0 0 1 no_rotate no_reflect no_shear #
model_id-kcp-attrib $-1 -1 $-1 $-1 $6 1 1021487948 1021487949 -615055358 1 #
lump $-1 -1 $-1 $-1 $22 $6 #
transform $-1 -1 1 0 0 0 1 0 0 0 1 -4.4408920985006262e-016 0 0 1 no_rotate no_reflect no_shear #
rgb_color-st-attrib $-1 -1 $23 $-1 $7 0.5 1 1 #
lump $-1 -1 $-1 $-1 $24 $7 #
transform $-1 -1 1 0 0 0 1 0 0 0 1 0 0 0 1 no_rotate no_reflect no_shear #
face $25 -1 $-1 $26 $27 $8 $-1 $28 reversed single #
model_id-kcp-attrib $-1 -1 $-1 $9 $5 1 1021487948 1021487949 -619970557 1 #
lump $-1 -1 $-1 $-1 $29 $5 #
shell $-1 -1 $-1 $-1 $-1 $30 $-1 $10 #
shell $-1 -1 $-1 $-1 $-1 $31 $-1 $13 #
model_id-kcp-attrib $-1 -1 $-1 $15 $7 1 1021487948 1021487949 -611450876 1 #
shell $-1 -1 $-1 $-1 $-1 $32 $-1 $16 #
model_id-kcp-attrib $-1 -1 $-1 $-1 $18 1 1021487948 1021487949 -615055359 2 #
face $33 -1 $-1 $34 $35 $8 $-1 $36 forward single #
loop $-1 -1 $-1 $37 $38 $18 #
plane-surface $-1 -1 $-1 0 0 -0.9524999999999999 0 0 1 25.399999999999999 0 0 forward_v I I I I #
shell $-1 -1 $-1 $-1 $-1 $39 $-1 $20 #
face $-1 -1 $-1 $40 $41 $21 $-1 $42 reversed single #
face $43 -1 $-1 $44 $45 $22 $-1 $46 forward single #
face $-1 -1 $-1 $47 $48 $24 $-1 $49 forward single #
model_id-kcp-attrib $-1 -1 $-1 $-1 $26 1 1021487948 1021487949 -615055359 3 #
face $50 -1 $-1 $51 $52 $8 $-1 $53 forward single #
loop $-1 -1 $-1 $-1 $54 $26 #
plane-surface $-1 -1 $-1 -2.7496306570155915 0 -0.9524999999999999 -0.86602540378443882 -0.49999999999999989 0 12.699999999999999 -21.99704525612475 0 forward_v I I I I #
loop $-1 -1 $-1 $-1 $55 $18 #
coedge $-1 -1 $-1 $56 $57 $58 $59 reversed $27 $-1 #
face $-1 -1 $-1 $60 $61 $29 $-1 $62 reversed single #
face $-1 -1 $-1 $63 $64 $21 $-1 $65 reversed single #
loop $-1 -1 $-1 $-1 $66 $30 #
plane-surface $-1 -1 $-1 -2.7496306570155915 4.4408920985006262e-016 -0.9524999999999999 -0.86602540378443871 -0.49999999999999983 0 0 0 -1 forward_v I I I I #
model_id-kcp-attrib $-1 -1 $-1 $-1 $31 1 1021487948 1021487949 -615055358 5 #
face $67 -1 $-1 $68 $69 $22 $-1 $70 reversed single #
loop $-1 -1 $-1 $-1 $71 $31 #
plane-surface $-1 -1 $-1 0 0 0.9524999999999999 0 0 1 1 0 0 forward_v I I I I #
face $-1 -1 $-1 $72 $73 $24 $-1 $74 forward single #
loop $-1 -1 $-1 $75 $76 $32 #
cone-surface $-1 -1 $-1 4.4061976289810898e-017 -1.7624790515924359e-016 -0.9524999999999999 0 0 1 1.2699999999999998 1.7624790515924359e-016 0 1 I I 0 1 1.2699999999999998 forward I I I I #
model_id-kcp-attrib $-1 -1 $-1 $-1 $34 1 1021487948 1021487949 -615055359 4 #
face $77 -1 $-1 $78 $79 $8 $-1 $80 forward single #
loop $-1 -1 $-1 $-1 $81 $34 #
plane-surface $-1 -1 $-1 -1.374815328507798 -2.3812499999999996 -0.9524999999999999 0 -1 0 25.399999999999999 0 0 forward_v I I I I #
coedge $-1 -1 $-1 $82 $58 $83 $84 forward $35 $-1 #
coedge $-1 -1 $-1 $85 $85 $86 $87 reversed $37 $-1 #
coedge $-1 -1 $-1 $88 $38 $89 $90 reversed $27 $-1 #
coedge $-1 -1 $-1 $38 $91 $92 $93 reversed $27 $-1 #
coedge $-1 -1 $-1 $54 $94 $38 $59 forward $35 $-1 #
edge $95 -1 $-1 $96 0 $97 0.10825317547305477 $38 $98 forward @7 unknown #
face $-1 -1 $-1 $99 $100 $29 $-1 $101 reversed single #
loop $-1 -1 $-1 $-1 $102 $39 #
plane-surface $-1 -1 $-1 2.749630657015592 0 0 -1 0 0 0 0 1 forward_v I I I I #
face $-1 -1 $-1 $103 $104 $21 $-1 $105 reversed single #
loop $-1 -1 $-1 $-1 $106 $40 #
plane-surface $-1 -1 $-1 -1.3748153285077966 2.3812499999999996 -0.9524999999999999 -0.86602540378443871 0.49999999999999983 0 0 0 -1 forward_v I I I I #
coedge $-1 -1 $-1 $107 $108 $109 $110 reversed $41 $-1 #
model_id-kcp-attrib $-1 -1 $-1 $-1 $44 1 1021487948 1021487949 -615055358 2 #
face $111 -1 $-1 $112 $113 $22 $-1 $114 reversed single #
loop $-1 -1 $-1 $-1 $115 $44 #
plane-surface $-1 -1 $-1 0 0 -0.9524999999999999 0 0 1 1 0 0 forward_v I I I I #
coedge $-1 -1 $-1 $116 $117 $118 $119 forward $45 $-1 #
face $-1 -1 $-1 $-1 $120 $24 $-1 $121 reversed single #
loop $-1 -1 $-1 $-1 $122 $47 #
plane-surface $-1 -1 $-1 0 0 0.9524999999999999 -6.1136842428313291e-033 1.7105694144590052e-049 1 1 0 6.1136842428313291e-033 forward_v I I I I #
loop $-1 -1 $-1 $-1 $123 $32 #
coedge $-1 -1 $-1 $76 $76 $122 $124 forward $48 $-1 #
model_id-kcp-attrib $-1 -1 $-1 $-1 $51 1 1021487948 1021487949 -615055359 5 #
face $125 -1 $-1 $126 $127 $8 $-1 $128 forward single #
loop $-1 -1 $-1 $-1 $129 $51 #
plane-surface $-1 -1 $-1 1.374815328507794 -2.3812499999999996 -0.9524999999999999 0.86602540378443871 -0.50000000000000011 0 12.699999999999999 21.997045256124736 0 forward_v I I I I #
coedge $-1 -1 $-1 $130 $92 $131 $132 forward $52 $-1 #
coedge $-1 -1 $-1 $94 $54 $133 $134 reversed $35 $-1 #
coedge $-1 -1 $-1 $92 $130 $54 $84 reversed $52 $-1 #
edge $135 -1 $-1 $97 0 $136 0.074999999999999997 $83 $137 forward @7 unknown #
coedge $-1 -1 $-1 $55 $55 $138 $139 reversed $37 $-1 #
coedge $-1 -1 $-1 $140 $141 $55 $87 forward $142 $-1 #
edge $143 -1 $-1 $144 0 $145 3.1415926535897931 $55 $146 forward @7 unknown #
coedge $-1 -1 $-1 $147 $56 $148 $149 reversed $27 $-1 #
coedge $-1 -1 $-1 $150 $151 $56 $90 forward $152 $-1 #
edge $153 -1 $-1 $154 0 $96 0.10825317547305478 $56 $155 forward @7 unknown #
coedge $-1 -1 $-1 $57 $147 $156 $157 reversed $27 $-1 #
coedge $-1 -1 $-1 $81 $83 $57 $93 forward $52 $-1 #
edge $158 -1 $-1 $97 0 $159 0.10825317547305481 $57 $160 forward @7 unknown #
coedge $-1 -1 $-1 $58 $82 $150 $161 reversed $35 $-1 #
attrib_edge_convexity-kcp-attrib $-1 -1 $162 $-1 $59 1 #
vertex $-1 -1 $-1 $90 $163 #
vertex $-1 -1 $-1 $93 $164 #
straight-curve $-1 -1 $-1 -2.7496306570155915 0 -0.9524999999999999 12.699999999999996 -21.997045256124743 0 I I #
face $-1 -1 $-1 $165 $166 $29 $-1 $167 reversed single #
loop $-1 -1 $-1 $-1 $168 $60 #
plane-surface $-1 -1 $-1 0 2.3812499999999996 0 0 -1 0 0 0 -1 forward_v I I I I #
coedge $-1 -1 $-1 $169 $170 $171 $172 forward $61 $-1 #
face $-1 -1 $-1 $173 $174 $21 $-1 $175 forward single #
loop $-1 -1 $-1 $-1 $176 $63 #
plane-surface $-1 -1 $-1 -2.749630657015592 0 0 1 0 0 0 0 -1 forward_v I I I I #
coedge $-1 -1 $-1 $177 $178 $179 $180 reversed $64 $-1 #
coedge $-1 -1 $-1 $181 $66 $182 $183 reversed $41 $-1 #
coedge $-1 -1 $-1 $66 $181 $177 $184 forward $41 $-1 #
coedge $-1 -1 $-1 $185 $186 $66 $110 forward $187 $-1 #
edge $-1 -1 $-1 $188 -2.0622229927616935 $189 0.68740766425389777 $109 $190 forward @7 unknown #
model_id-kcp-attrib $-1 -1 $-1 $-1 $68 1 1021487948 1021487949 -615055358 3 #
face $-1 -1 $-1 $191 $192 $22 $-1 $193 reversed single #
loop $-1 -1 $-1 $-1 $194 $68 #
plane-surface $-1 -1 $-1 0 -2.3812499999999996 0 0 1 0 0 0 1 forward_v I I I I #
coedge $-1 -1 $-1 $195 $196 $197 $198 forward $69 $-1 #
coedge $-1 -1 $-1 $199 $71 $200 $201 forward $45 $-1 #
coedge $-1 -1 $-1 $71 $199 $202 $203 forward $45 $-1 #
coedge $-1 -1 $-1 $204 $205 $71 $119 reversed $206 $-1 #
edge $-1 -1 $-1 $207 -2.3812499999999996 $208 2.3812499999999996 $118 $209 forward @7 unknown #
loop $-1 -1 $-1 $-1 $210 $72 #
plane-surface $-1 -1 $-1 0 0 -0.9524999999999999 -6.1136842428313291e-033 1.7105694144590052e-049 1 1 0 6.1136842428313291e-033 forward_v I I I I #
coedge $-1 -1 $-1 $122 $122 $76 $124 reversed $73 $-1 #
coedge $-1 -1 $-1 $123 $123 $210 $211 reversed $75 $-1 #
edge $-1 -1 $-1 $212 -3.1415926535897931 $212 3.1415926535897931 $76 $213 forward @7 unknown #
model_id-kcp-attrib $-1 -1 $-1 $-1 $78 1 1021487948 1021487949 -615055359 6 #
face $214 -1 $-1 $215 $216 $8 $-1 $217 forward single #
loop $-1 -1 $-1 $-1 $218 $78 #
plane-surface $-1 -1 $-1 2.7496306570155915 0 -0.9524999999999999 0.86602540378443882 0.49999999999999989 0 -12.699999999999999 21.99704525612475 0 forward_v I I I I #
coedge $-1 -1 $-1 $219 $156 $220 $221 forward $79 $-1 #
coedge $-1 -1 $-1 $83 $81 $222 $223 reversed $52 $-1 #
coedge $-1 -1 $-1 $156 $219 $81 $132 reversed $79 $-1 #
edge $224 -1 $-1 $159 0 $225 0.074999999999999997 $81 $226 forward @7 unknown #
coedge $-1 -1 $-1 $222 $227 $82 $134 forward $228 $-1 #
edge $229 -1 $-1 $230 0 $136 0.10825317547305477 $133 $231 forward @7 unknown #
attrib_edge_convexity-kcp-attrib $-1 -1 $232 $-1 $84 1 #
vertex $-1 -1 $-1 $223 $233 #
straight-curve $-1 -1 $-1 -1.3748153285077966 -2.3812499999999988 -0.9524999999999999 0 0 25.399999999999999 I I #
coedge $-1 -1 $-1 $234 $235 $85 $139 forward $236 $-1 #
edge $237 -1 $-1 $145 0 $144 3.1415926535897931 $85 $238 forward @7 unknown #
coedge $-1 -1 $-1 $239 $86 $235 $240 reversed $142 $-1 #
coedge $-1 -1 $-1 $86 $239 $234 $241 forward $142 $-1 #
loop $-1 -1 $-1 $-1 $140 $242 #
attrib_edge_convexity-kcp-attrib $-1 -1 $243 $-1 $87 1 #
vertex $-1 -1 $-1 $139 $244 #
vertex $-1 -1 $-1 $139 $245 #
ellipse-curve $-1 -1 $-1 4.4061976289810898e-017 -1.7624790515924359e-016 -0.9524999999999999 0 0 -1 1.2699999999999998 1.7624790515924359e-016 0 1 I I #
coedge $-1 -1 $-1 $91 $88 $246 $247 reversed $27 $-1 #
coedge $-1 -1 $-1 $248 $249 $88 $149 forward $216 $-1 #
edge $250 -1 $-1 $251 0 $154 0.10825317547305491 $88 $252 forward @7 unknown #
coedge $-1 -1 $-1 $253 $89 $94 $161 forward $152 $-1 #
coedge $-1 -1 $-1 $89 $253 $248 $254 reversed $152 $-1 #
loop $-1 -1 $-1 $-1 $150 $215 #
attrib_edge_convexity-kcp-attrib $-1 -1 $255 $-1 $90 1 #
vertex $-1 -1 $-1 $149 $256 #
straight-curve $-1 -1 $-1 -1.3748153285077969 2.3812499999999996 -0.9524999999999999 -12.699999999999996 -21.997045256124743 0 I I #
coedge $-1 -1 $-1 $129 $131 $91 $157 forward $79 $-1 #
edge $257 -1 $-1 $159 0 $258 0.10825317547305484 $91 $259 forward @7 unknown #
attrib_edge_convexity-kcp-attrib $-1 -1 $260 $-1 $93 1 #
vertex $-1 -1 $-1 $93 $261 #
straight-curve $-1 -1 $-1 -1.374815328507798 -2.3812499999999996 -0.9524999999999999 25.399999999999999 0 0 I I #
edge $262 -1 $-1 $96 0 $230 0.074999999999999997 $150 $263 forward @7 unknown #
convexity-sys-attrib $-1 -1 $-1 $95 $59 #
point $-1 -1 $-1 -2.7496306570155915 0 -0.9524999999999999 #
point $-1 -1 $-1 -1.374815328507798 -2.3812499999999996 -0.9524999999999999 #
face $-1 -1 $-1 $264 $265 $29 $-1 $167 reversed single #
loop $-1 -1 $-1 $-1 $266 $99 #
plane-surface $-1 -1 $-1 0 0 -0.9524999999999999 0 0 1 1 0 0 forward_v I I I I #
coedge $-1 -1 $-1 $267 $268 $269 $270 forward $100 $-1 #
coedge $-1 -1 $-1 $271 $102 $272 $273 reversed $61 $-1 #
coedge $-1 -1 $-1 $102 $271 $274 $275 reversed $61 $-1 #
coedge $-1 -1 $-1 $276 $277 $278 $172 reversed $279 $-1 #
edge $-1 -1 $-1 $280 -0.47624999999999995 $281 1.42875 $102 $282 forward @7 unknown #
face $-1 -1 $-1 $283 $187 $21 $-1 $175 forward single #
loop $-1 -1 $-1 $-1 $179 $103 #
plane-surface $-1 -1 $-1 0 0 0.9524999999999999 0 0 1 1 0 0 forward_v I I I I #
coedge $-1 -1 $-1 $284 $285 $108 $184 reversed $104 $-1 #
coedge $-1 -1 $-1 $286 $106 $287 $184 reversed $64 $-1 #
coedge $-1 -1 $-1 $106 $286 $288 $289 reversed $64 $-1 #
coedge $-1 -1 $-1 $290 $291 $106 $180 forward $174 $-1 #
edge $-1 -1 $-1 $189 -2.0622229927616926 $292 0.68740766425389821 $179 $293 forward @7 unknown #
coedge $-1 -1 $-1 $108 $107 $294 $295 reversed $41 $-1 #
coedge $-1 -1 $-1 $296 $297 $107 $183 forward $298 $-1 #
edge $-1 -1 $-1 $299 -0.47624999999999995 $188 1.42875 $182 $300 forward @7 unknown #
edge $-1 -1 $-1 $301 -0.47624999999999995 $189 1.42875 $287 $302 forward @7 unknown #
coedge $-1 -1 $-1 $186 $109 $285 $303 forward $187 $-1 #
coedge $-1 -1 $-1 $109 $185 $296 $304 forward $187 $-1 #
loop $-1 -1 $-1 $-1 $109 $173 #
vertex $-1 -1 $-1 $110 $305 #
vertex $-1 -1 $-1 $303 $306 #
straight-curve $-1 -1 $-1 -2.4059268248886427 -0.59531249999999936 0.95249999999999979 -0.49999999999999983 0.86602540378443871 0 I I #
face $307 -1 $-1 $308 $309 $22 $-1 $310 reversed single #
loop $-1 -1 $-1 $-1 $311 $112 #
plane-surface $-1 -1 $-1 -2.749630657015592 0 0 1 0 0 0 0 -1 forward_v I I I I #
coedge $-1 -1 $-1 $312 $202 $313 $314 forward $113 $-1 #
coedge $-1 -1 $-1 $315 $115 $312 $316 forward $69 $-1 #
coedge $-1 -1 $-1 $115 $315 $317 $318 forward $69 $-1 #
coedge $-1 -1 $-1 $205 $204 $115 $198 reversed $206 $-1 #
edge $-1 -1 $-1 $319 -2.3812499999999996 $320 2.3812499999999996 $197 $321 forward @7 unknown #
coedge $-1 -1 $-1 $117 $116 $322 $323 forward $45 $-1 #
coedge $-1 -1 $-1 $324 $325 $116 $201 reversed $309 $-1 #
edge $-1 -1 $-1 $208 -2.749630657015592 $326 2.749630657015592 $200 $327 forward @7 unknown #
coedge $-1 -1 $-1 $194 $328 $117 $203 reversed $113 $-1 #
edge $-1 -1 $-1 $329 -2.749630657015592 $207 2.749630657015592 $202 $330 forward @7 unknown #
coedge $-1 -1 $-1 $197 $118 $328 $331 forward $206 $-1 #
coedge $-1 -1 $-1 $118 $197 $324 $332 reversed $206 $-1 #
loop $-1 -1 $-1 $-1 $204 $308 #
vertex $-1 -1 $-1 $119 $333 #
vertex $-1 -1 $-1 $119 $334 #
straight-curve $-1 -1 $-1 2.749630657015592 0 0.9524999999999999 0 1 0 I I #
coedge $-1 -1 $-1 $210 $210 $123 $211 forward $120 $-1 #
edge $-1 -1 $-1 $335 -3.1415926535897931 $335 3.1415926535897931 $123 $336 forward @7 unknown #
vertex $-1 -1 $-1 $124 $337 #
ellipse-curve $-1 -1 $-1 4.4061976289810898e-017 1.3218592886943268e-016 0.9524999999999999 0 0 -1 -1.2699999999999998 -1.3218592886943268e-016 0 1 I I #
model_id-kcp-attrib $-1 -1 $-1 $-1 $126 1 1021487948 1021487949 -615055359 7 #
face $338 -1 $-1 $339 $152 $8 $-1 $340 forward single #
loop $-1 -1 $-1 $-1 $248 $126 #
plane-surface $-1 -1 $-1 1.3748153285077975 2.3812499999999996 -0.9524999999999999 0 1 0 -25.399999999999999 0 0 forward_v I I I I #
coedge $-1 -1 $-1 $341 $246 $249 $342 forward $127 $-1 #
coedge $-1 -1 $-1 $131 $129 $343 $344 reversed $79 $-1 #
coedge $-1 -1 $-1 $246 $341 $129 $221 reversed $127 $-1 #
edge $345 -1 $-1 $258 0 $346 0.074999999999999997 $129 $347 forward @7 unknown #
coedge $-1 -1 $-1 $343 $133 $130 $223 forward $228 $-1 #
edge $348 -1 $-1 $136 0 $225 0.10825317547305481 $222 $349 forward @7 unknown #
attrib_edge_convexity-kcp-attrib $-1 -1 $350 $-1 $132 1 #
vertex $-1 -1 $-1 $223 $351 #
straight-curve $-1 -1 $-1 1.374815328507794 -2.3812499999999996 -0.9524999999999999 0 0 25.399999999999999 I I #
coedge $-1 -1 $-1 $133 $352 $253 $353 forward $228 $-1 #
loop $-1 -1 $-1 $354 $343 $339 #
attrib_edge_convexity-kcp-attrib $-1 -1 $355 $-1 $134 1 #
vertex $-1 -1 $-1 $134 $356 #
straight-curve $-1 -1 $-1 -2.7496306570155915 0 0.9524999999999999 12.699999999999996 -21.997045256124743 0 I I #
convexity-sys-attrib $-1 -1 $-1 $135 $84 #
point $-1 -1 $-1 -1.374815328507798 -2.3812499999999996 0.9524999999999999 #
coedge $-1 -1 $-1 $357 $138 $141 $241 reversed $236 $-1 #
coedge $-1 -1 $-1 $138 $357 $140 $240 forward $236 $-1 #
loop $-1 -1 $-1 $-1 $234 $358 #
attrib_edge_convexity-kcp-attrib $-1 -1 $359 $-1 $139 1 #
ellipse-curve $-1 -1 $-1 4.4061976289810898e-017 1.3218592886943268e-016 -0.9524999999999999 0 0 -1 -1.2699999999999998 -1.3218592886943268e-016 0 1 I I #
coedge $-1 -1 $-1 $141 $140 $360 $361 reversed $142 $-1 #
edge $-1 -1 $-1 $362 0 $145 0.074999999999999997 $235 $363 forward @7 unknown #
edge $-1 -1 $-1 $364 0 $144 0.074999999999999997 $234 $365 forward @7 unknown #
face $366 -1 $-1 $358 $142 $8 $-1 $367 reversed single #
convexity-sys-attrib $-1 -1 $-1 $143 $87 #
point $-1 -1 $-1 1.2699999999999998 0 -0.9524999999999999 #
point $-1 -1 $-1 -1.2699999999999998 0 -0.9524999999999999 #
coedge $-1 -1 $-1 $218 $220 $147 $247 forward $127 $-1 #
edge $368 -1 $-1 $258 0 $251 0.10825317547305477 $147 $369 forward @7 unknown #
coedge $-1 -1 $-1 $370 $148 $151 $254 forward $216 $-1 #
coedge $-1 -1 $-1 $148 $370 $218 $342 reversed $216 $-1 #
attrib_edge_convexity-kcp-attrib $-1 -1 $371 $-1 $149 1 #
vertex $-1 -1 $-1 $247 $372 #
straight-curve $-1 -1 $-1 1.3748153285077975 2.3812499999999996 -0.9524999999999999 -25.399999999999999 0 0 I I #
coedge $-1 -1 $-1 $151 $150 $227 $353 reversed $152 $-1 #
edge $-1 -1 $-1 $154 0 $373 0.074999999999999997 $248 $374 forward @7 unknown #
convexity-sys-attrib $-1 -1 $-1 $153 $90 #
point $-1 -1 $-1 -1.3748153285077969 2.3812499999999996 -0.9524999999999999 #
attrib_edge_convexity-kcp-attrib $-1 -1 $375 $-1 $157 1 #
vertex $-1 -1 $-1 $157 $376 #
straight-curve $-1 -1 $-1 1.374815328507794 -2.3812499999999996 -0.9524999999999999 12.699999999999999 21.997045256124739 0 I I #
convexity-sys-attrib $-1 -1 $-1 $158 $93 #
point $-1 -1 $-1 1.374815328507794 -2.3812499999999996 -0.9524999999999999 #
attrib_edge_convexity-kcp-attrib $-1 -1 $377 $-1 $161 1 #
straight-curve $-1 -1 $-1 -2.7496306570155924 3.5249581031848718e-016 -0.9524999999999999 0 0 25.399999999999999 I I #
face $-1 -1 $-1 $378 $379 $29 $-1 $175 forward single #
loop $-1 -1 $-1 $-1 $380 $165 #
coedge $-1 -1 $-1 $274 $381 $382 $383 forward $166 $-1 #
coedge $-1 -1 $-1 $384 $168 $385 $386 reversed $100 $-1 #
coedge $-1 -1 $-1 $168 $384 $387 $388 reversed $100 $-1 #
coedge $-1 -1 $-1 $389 $390 $168 $270 reversed $391 $-1 #
edge $-1 -1 $-1 $392 -0.47624999999999995 $393 1.42875 $168 $394 forward @7 unknown #
coedge $-1 -1 $-1 $170 $169 $395 $396 forward $61 $-1 #
coedge $-1 -1 $-1 $397 $398 $169 $273 forward $379 $-1 #
edge $-1 -1 $-1 $399 -2.3812499999999996 $281 0 $169 $400 forward @7 unknown #
coedge $-1 -1 $-1 $381 $266 $170 $275 forward $166 $-1 #
edge $-1 -1 $-1 $280 0 $401 2.3812499999999996 $170 $402 forward @7 unknown #
coedge $-1 -1 $-1 $403 $171 $404 $405 reversed $279 $-1 #
coedge $-1 -1 $-1 $171 $403 $406 $407 reversed $279 $-1 #
coedge $-1 -1 $-1 $390 $389 $408 $172 forward $391 $-1 #
loop $-1 -1 $-1 $-1 $171 $409 #
vertex $-1 -1 $-1 $275 $410 #
vertex $-1 -1 $-1 $407 $411 #
straight-curve $-1 -1 $-1 2.749630657015592 2.2204460492503131e-015 -0.47624999999999995 0 0 1 I I #
face $-1 -1 $-1 $412 $413 $21 $-1 $101 reversed single #
coedge $-1 -1 $-1 $414 $176 $415 $416 reversed $104 $-1 #
coedge $-1 -1 $-1 $176 $414 $185 $303 reversed $104 $-1 #
coedge $-1 -1 $-1 $178 $177 $417 $418 reversed $64 $-1 #
coedge $-1 -1 $-1 $419 $420 $176 $184 forward $421 $-1 #
coedge $-1 -1 $-1 $422 $423 $178 $289 forward $413 $-1 #
edge $-1 -1 $-1 $292 -1.42875 $424 0.47624999999999995 $288 $425 forward @7 unknown #
coedge $-1 -1 $-1 $291 $179 $423 $426 forward $174 $-1 #
coedge $-1 -1 $-1 $179 $290 $419 $427 forward $174 $-1 #
vertex $-1 -1 $-1 $426 $428 #
straight-curve $-1 -1 $-1 -1.7185191606347456 1.7859374999999995 0.95249999999999979 0.49999999999999983 0.86602540378443871 0 I I #
coedge $-1 -1 $-1 $429 $415 $181 $295 forward $430 $-1 #
edge $-1 -1 $-1 $301 -0.68740766425389777 $299 2.0622229927616935 $294 $431 forward @7 unknown #
coedge $-1 -1 $-1 $432 $182 $186 $304 reversed $298 $-1 #
coedge $-1 -1 $-1 $182 $432 $429 $433 reversed $298 $-1 #
loop $-1 -1 $-1 $-1 $182 $434 #
vertex $-1 -1 $-1 $433 $435 #
straight-curve $-1 -1 $-1 -1.3748153285077958 -2.3812499999999996 -0.47624999999999995 0 0 1 I I #
vertex $-1 -1 $-1 $436 $437 #
straight-curve $-1 -1 $-1 -2.749630657015592 2.2204460492503131e-016 -0.47624999999999995 0 0 1 I I #
edge $-1 -1 $-1 $189 -4.4408920985006262e-016 $438 2.3812499999999996 $285 $439 forward @7 unknown #
edge $-1 -1 $-1 $438 -2.749630657015592 $188 -1.3748153285077958 $296 $440 forward @7 unknown #
point $-1 -1 $-1 -1.3748153285077958 -2.3812499999999988 0.9524999999999999 #
point $-1 -1 $-1 -2.7496306570155915 4.4408920985006262e-016 0.9524999999999999 #
model_id-kcp-attrib $-1 -1 $-1 $-1 $191 1 1021487948 1021487949 -615055358 4 #
face $-1 -1 $-1 $-1 $206 $22 $-1 $441 reversed single #
loop $-1 -1 $-1 $-1 $324 $191 #
plane-surface $-1 -1 $-1 0 2.3812499999999996 0 0 -1 0 0 0 -1 forward_v I I I I #
coedge $-1 -1 $-1 $442 $322 $325 $443 forward $192 $-1 #
coedge $-1 -1 $-1 $328 $194 $195 $316 reversed $113 $-1 #
coedge $-1 -1 $-1 $322 $442 $194 $314 reversed $192 $-1 #
edge $-1 -1 $-1 $329 -0.9524999999999999 $444 0.9524999999999999 $313 $445 forward @7 unknown #
coedge $-1 -1 $-1 $196 $195 $442 $446 forward $69 $-1 #
edge $-1 -1 $-1 $320 -2.749630657015592 $444 2.749630657015592 $312 $447 forward @7 unknown #
coedge $-1 -1 $-1 $325 $324 $196 $318 reversed $309 $-1 #
edge $-1 -1 $-1 $448 -2.749630657015592 $319 2.749630657015592 $317 $449 forward @7 unknown #
vertex $-1 -1 $-1 $198 $450 #
vertex $-1 -1 $-1 $331 $451 #
straight-curve $-1 -1 $-1 2.749630657015592 0 -0.9524999999999999 0 -1 0 I I #
coedge $-1 -1 $-1 $311 $313 $199 $323 reversed $192 $-1 #
edge $-1 -1 $-1 $326 -2.3812499999999996 $329 2.3812499999999996 $322 $452 forward @7 unknown #
coedge $-1 -1 $-1 $317 $200 $205 $332 forward $309 $-1 #
coedge $-1 -1 $-1 $200 $317 $311 $443 reversed $309 $-1 #
vertex $-1 -1 $-1 $201 $453 #
straight-curve $-1 -1 $-1 0 2.3812499999999996 0.9524999999999999 -1 0 0 I I #
coedge $-1 -1 $-1 $202 $312 $204 $331 reversed $113 $-1 #
vertex $-1 -1 $-1 $323 $454 #
straight-curve $-1 -1 $-1 0 -2.3812499999999996 0.9524999999999999 1 0 0 I I #
edge $-1 -1 $-1 $207 -0.9524999999999999 $320 0.9524999999999999 $204 $455 forward @7 unknown #
edge $-1 -1 $-1 $208 -0.9524999999999999 $319 0.9524999999999999 $205 $456 forward @7 unknown #
point $-1 -1 $-1 2.749630657015592 -2.3812499999999996 0.9524999999999999 #
point $-1 -1 $-1 2.749630657015592 2.3812499999999996 0.9524999999999999 #
vertex $-1 -1 $-1 $211 $457 #
ellipse-curve $-1 -1 $-1 4.4061976289810898e-017 -1.7624790515924359e-016 -0.9524999999999999 0 0 -1 1.2699999999999998 1.7624790515924359e-016 0 1 I I #
point $-1 -1 $-1 1.2699999999999998 0 0.9524999999999999 #
model_id-kcp-attrib $-1 -1 $-1 $-1 $215 1 1021487948 1021487949 -615055359 8 #
face $458 -1 $-1 $242 $228 $8 $-1 $459 forward single #
plane-surface $-1 -1 $-1 -1.3748153285077969 2.3812499999999996 -0.9524999999999999 -0.86602540378443871 0.49999999999999989 0 -12.699999999999999 -21.997045256124746 0 forward_v I I I I #
coedge $-1 -1 $-1 $220 $218 $460 $461 reversed $127 $-1 #
edge $-1 -1 $-1 $251 0 $462 0.074999999999999997 $218 $463 forward @7 unknown #
coedge $-1 -1 $-1 $460 $222 $219 $344 forward $228 $-1 #
edge $464 -1 $-1 $225 0 $346 0.10825317547305484 $343 $465 forward @7 unknown #
attrib_edge_convexity-kcp-attrib $-1 -1 $466 $-1 $221 1 #
vertex $-1 -1 $-1 $461 $467 #
straight-curve $-1 -1 $-1 2.7496306570155911 1.0574874309554614e-015 -0.9524999999999999 0 0 25.399999999999999 I I #
model_id-kcp-attrib $-1 -1 $468 $-1 $223 1 1021487948 1021487949 -615055359 13 #
straight-curve $-1 -1 $-1 -1.374815328507798 -2.3812499999999996 0.9524999999999999 25.399999999999999 0 0 I I #
convexity-sys-attrib $-1 -1 $-1 $224 $132 #
point $-1 -1 $-1 1.374815328507794 -2.3812499999999996 0.9524999999999999 #
coedge $-1 -1 $-1 $227 $460 $370 $469 forward $228 $-1 #
edge $-1 -1 $-1 $373 0 $230 0.10825317547305478 $227 $470 forward @7 unknown #
loop $-1 -1 $-1 $-1 $360 $339 #
convexity-sys-attrib $-1 -1 $-1 $229 $134 #
point $-1 -1 $-1 -2.7496306570155915 0 0.9524999999999999 #
coedge $-1 -1 $-1 $235 $234 $471 $472 reversed $236 $-1 #
face $473 -1 $-1 $-1 $236 $8 $-1 $474 reversed single #
convexity-sys-attrib $-1 -1 $-1 $237 $139 #
coedge $-1 -1 $-1 $471 $471 $239 $361 forward $354 $-1 #
edge $-1 -1 $-1 $364 0 $362 3.1415926535897931 $360 $475 forward @7 unknown #
vertex $-1 -1 $-1 $472 $476 #
straight-curve $-1 -1 $-1 -1.2699999999999998 0 0.9524999999999999 0 0 -25.399999999999999 I I #
vertex $-1 -1 $-1 $472 $477 #
straight-curve $-1 -1 $-1 1.2699999999999998 1.5552500693544188e-016 0.9524999999999999 0 0 -25.399999999999999 I I #
model_id-kcp-attrib $-1 -1 $-1 $-1 $242 1 1021487948 1021487949 -615055359 10 #
cone-surface $-1 -1 $-1 0 0 0.9524999999999999 0 0 -1 -1.2699999999999998 0 0 1 I I 0 1 1.2699999999999998 forward I I I I #
attrib_edge_convexity-kcp-attrib $-1 -1 $478 $-1 $247 1 #
straight-curve $-1 -1 $-1 2.7496306570155915 0 -0.9524999999999999 -12.699999999999996 21.997045256124743 0 I I #
coedge $-1 -1 $-1 $249 $248 $352 $469 reversed $216 $-1 #
convexity-sys-attrib $-1 -1 $-1 $250 $149 #
point $-1 -1 $-1 1.3748153285077975 2.3812499999999996 -0.9524999999999999 #
vertex $-1 -1 $-1 $353 $479 #
straight-curve $-1 -1 $-1 -1.3748153285077969 2.3812499999999996 -0.9524999999999999 0 0 25.399999999999999 I I #
convexity-sys-attrib $-1 -1 $-1 $257 $157 #
point $-1 -1 $-1 2.7496306570155915 0 -0.9524999999999999 #
convexity-sys-attrib $-1 -1 $-1 $262 $161 #
face $-1 -1 $-1 $409 $480 $29 $-1 $175 forward single #
loop $-1 -1 $-1 $-1 $397 $264 #
coedge $-1 -1 $-1 $387 $404 $389 $481 forward $265 $-1 #
coedge $-1 -1 $-1 $266 $274 $482 $483 forward $166 $-1 #
coedge $-1 -1 $-1 $484 $408 $266 $383 reversed $485 $-1 #
edge $-1 -1 $-1 $486 -0.68740766425389832 $280 2.0622229927616953 $266 $487 forward @7 unknown #
coedge $-1 -1 $-1 $268 $267 $403 $488 forward $100 $-1 #
coedge $-1 -1 $-1 $489 $406 $267 $386 forward $480 $-1 #
edge $-1 -1 $-1 $490 -2.749630657015592 $393 -1.3748153285077971 $267 $491 forward @7 unknown #
coedge $-1 -1 $-1 $404 $380 $268 $388 forward $265 $-1 #
edge $-1 -1 $-1 $392 1.3748153285077971 $492 2.749630657015592 $268 $493 forward @7 unknown #
coedge $-1 -1 $-1 $278 $269 $380 $481 reversed $391 $-1 #
coedge $-1 -1 $-1 $269 $278 $489 $494 reversed $391 $-1 #
loop $-1 -1 $-1 $-1 $390 $495 #
vertex $-1 -1 $-1 $388 $496 #
vertex $-1 -1 $-1 $270 $497 #
straight-curve $-1 -1 $-1 1.3748153285077971 2.3812499999999996 -0.47624999999999995 0 0 1 I I #
coedge $-1 -1 $-1 $498 $482 $271 $396 reversed $499 $-1 #
edge $-1 -1 $-1 $399 -0.9524999999999999 $401 0.9524999999999999 $271 $500 forward @7 unknown #
coedge $-1 -1 $-1 $398 $272 $501 $502 forward $379 $-1 #
coedge $-1 -1 $-1 $272 $397 $498 $503 forward $379 $-1 #
vertex $-1 -1 $-1 $273 $504 #
straight-curve $-1 -1 $-1 2.749630657015592 0 0.9524999999999999 0 1 0 I I #
vertex $-1 -1 $-1 $396 $505 #
straight-curve $-1 -1 $-1 2.749630657015592 0 -0.9524999999999999 0 -1 0 I I #
coedge $-1 -1 $-1 $277 $276 $384 $488 reversed $279 $-1 #
coedge $-1 -1 $-1 $380 $387 $276 $405 forward $265 $-1 #
edge $-1 -1 $-1 $492 -2.3812499999999996 $280 0 $276 $402 forward @7 unknown #
coedge $-1 -1 $-1 $385 $489 $277 $407 forward $480 $-1 #
edge $-1 -1 $-1 $281 0 $490 2.3812499999999996 $277 $400 forward @7 unknown #
coedge $-1 -1 $-1 $382 $501 $102 $172 reversed $485 $-1 #
face $-1 -1 $-1 $506 $279 $29 $-1 $62 reversed single #
point $-1 -1 $-1 2.7496306570155924 0 -0.9524999999999999 #
point $-1 -1 $-1 2.7496306570155924 0 0.9524999999999999 #
face $-1 -1 $-1 $507 $508 $21 $-1 $167 reversed single #
loop $-1 -1 $-1 $-1 $288 $283 #
coedge $-1 -1 $-1 $285 $284 $432 $509 reversed $104 $-1 #
coedge $-1 -1 $-1 $294 $429 $284 $416 forward $430 $-1 #
edge $-1 -1 $-1 $510 -2.3812499999999996 $301 4.4408920985006262e-016 $284 $511 forward @7 unknown #
coedge $-1 -1 $-1 $512 $513 $286 $418 forward $508 $-1 #
edge $-1 -1 $-1 $424 -0.68740766425389821 $301 2.0622229927616926 $417 $514 forward @7 unknown #
coedge $-1 -1 $-1 $515 $287 $291 $427 reversed $421 $-1 #
coedge $-1 -1 $-1 $287 $515 $512 $436 reversed $421 $-1 #
loop $-1 -1 $-1 $-1 $287 $516 #
coedge $-1 -1 $-1 $517 $288 $513 $518 reversed $413 $-1 #
coedge $-1 -1 $-1 $288 $517 $290 $426 reversed $413 $-1 #
vertex $-1 -1 $-1 $289 $519 #
straight-curve $-1 -1 $-1 -1.3748153285077969 2.3812499999999996 -0.47624999999999995 0 0 -1 I I #
edge $-1 -1 $-1 $292 1.3748153285077966 $520 2.749630657015592 $423 $491 forward @7 unknown #
edge $-1 -1 $-1 $520 -2.3812499999999996 $189 -4.4408920985006262e-016 $419 $439 forward @7 unknown #
point $-1 -1 $-1 -1.3748153285077966 2.3812499999999996 0.9524999999999999 #
coedge $-1 -1 $-1 $415 $294 $297 $433 forward $430 $-1 #
loop $-1 -1 $-1 $-1 $294 $507 #
straight-curve $-1 -1 $-1 -2.4059268248886427 -0.59531249999999936 -0.9524999999999999 0.49999999999999983 -0.86602540378443871 0 I I #
coedge $-1 -1 $-1 $297 $296 $414 $509 forward $298 $-1 #
edge $-1 -1 $-1 $299 1.3748153285077958 $510 2.749630657015592 $297 $521 forward @7 unknown #
face $-1 -1 $-1 $516 $298 $21 $-1 $522 reversed single #
point $-1 -1 $-1 -1.3748153285077958 -2.3812499999999988 -0.9524999999999999 #
edge $-1 -1 $-1 $301 4.4408920985006262e-016 $523 2.3812499999999996 $420 $511 forward @7 unknown #
point $-1 -1 $-1 -2.7496306570155915 4.4408920985006262e-016 -0.9524999999999999 #
vertex $-1 -1 $-1 $303 $524 #
straight-curve $-1 -1 $-1 -2.749630657015592 0 0.9524999999999999 0 -1 0 I I #
straight-curve $-1 -1 $-1 0 -2.3812499999999996 0.9524999999999999 1 0 0 I I #
plane-surface $-1 -1 $-1 2.749630657015592 0 0 -1 0 0 0 0 1 forward_v I I I I #
coedge $-1 -1 $-1 $313 $311 $315 $446 reversed $192 $-1 #
edge $-1 -1 $-1 $326 -0.9524999999999999 $448 0.9524999999999999 $325 $525 forward @7 unknown #
vertex $-1 -1 $-1 $446 $526 #
straight-curve $-1 -1 $-1 -2.749630657015592 -2.3812499999999996 0 0 0 -1 I I #
edge $-1 -1 $-1 $444 -2.3812499999999996 $448 2.3812499999999996 $442 $527 forward @7 unknown #
straight-curve $-1 -1 $-1 0 -2.3812499999999996 -0.9524999999999999 -1 0 0 I I #
vertex $-1 -1 $-1 $318 $528 #
straight-curve $-1 -1 $-1 0 2.3812499999999996 -0.9524999999999999 1 0 0 I I #
point $-1 -1 $-1 2.749630657015592 2.3812499999999996 -0.9524999999999999 #
point $-1 -1 $-1 2.749630657015592 -2.3812499999999996 -0.9524999999999999 #
straight-curve $-1 -1 $-1 -2.749630657015592 0 0.9524999999999999 0 -1 0 I I #
point $-1 -1 $-1 -2.749630657015592 2.3812499999999996 0.9524999999999999 #
point $-1 -1 $-1 -2.749630657015592 -2.3812499999999996 0.9524999999999999 #
straight-curve $-1 -1 $-1 2.749630657015592 -2.3812499999999996 0 0 0 -1 I I #
straight-curve $-1 -1 $-1 2.749630657015592 2.3812499999999996 0 0 0 -1 I I #
point $-1 -1 $-1 -1.2699999999999998 0 -0.9524999999999999 #
model_id-kcp-attrib $-1 -1 $-1 $-1 $339 1 1021487948 1021487949 -615055359 9 #
plane-surface $-1 -1 $-1 0 0 0.9524999999999999 0 0 1 25.399999999999999 0 0 forward_v I I I I #
coedge $-1 -1 $-1 $352 $343 $341 $461 forward $228 $-1 #
edge $-1 -1 $-1 $346 0 $462 0.10825317547305477 $460 $529 forward @7 unknown #
vertex $-1 -1 $-1 $469 $530 #
straight-curve $-1 -1 $-1 1.3748153285077964 2.3812499999999992 -0.9524999999999999 0 0 25.399999999999999 I I #
attrib_edge_convexity-kcp-attrib $-1 -1 $531 $-1 $344 1 #
straight-curve $-1 -1 $-1 1.374815328507794 -2.3812499999999996 0.9524999999999999 12.699999999999999 21.997045256124739 0 I I #
convexity-sys-attrib $-1 -1 $-1 $345 $221 #
point $-1 -1 $-1 2.7496306570155915 0 0.9524999999999999 #
attrib_edge_convexity-kcp-attrib $-1 -1 $532 $348 $223 1 #
edge $533 -1 $-1 $462 0 $373 0.10825317547305491 $352 $534 forward @7 unknown #
straight-curve $-1 -1 $-1 -1.3748153285077969 2.3812499999999996 0.9524999999999999 -12.699999999999996 -21.997045256124743 0 I I #
coedge $-1 -1 $-1 $360 $360 $357 $472 forward $354 $-1 #
edge $-1 -1 $-1 $362 0 $364 3.1415926535897931 $471 $535 forward @7 unknown #
model_id-kcp-attrib $-1 -1 $-1 $-1 $358 1 1021487948 1021487949 -615055359 11 #
cone-surface $-1 -1 $-1 0 0 0.9524999999999999 0 0 -1 -1.2699999999999998 0 0 1 I I 0 1 1.2699999999999998 forward I I I I #
ellipse-curve $-1 -1 $-1 0 0 0.9524999999999999 0 0 -1 1.2699999999999998 0 0 1 I I #
point $-1 -1 $-1 -1.2699999999999998 0 0.9524999999999999 #
point $-1 -1 $-1 1.2699999999999998 0 0.9524999999999999 #
convexity-sys-attrib $-1 -1 $-1 $368 $247 #
point $-1 -1 $-1 -1.3748153285077969 2.3812499999999996 0.9524999999999999 #
loop $-1 -1 $-1 $-1 $489 $378 #
edge $-1 -1 $-1 $280 -0.68740766425389777 $392 2.0622229927616931 $380 $536 forward @7 unknown #
coedge $-1 -1 $-1 $395 $537 $381 $483 reversed $499 $-1 #
edge $-1 -1 $-1 $401 -2.749630657015592 $486 -1.3748153285077944 $482 $521 forward @7 unknown #
coedge $-1 -1 $-1 $501 $382 $537 $538 reversed $485 $-1 #
loop $-1 -1 $-1 $-1 $501 $539 #
vertex $-1 -1 $-1 $383 $540 #
straight-curve $-1 -1 $-1 1.7185191606347439 -1.7859374999999997 -0.9524999999999999 0.50000000000000011 0.86602540378443871 0 I I #
edge $-1 -1 $-1 $490 -0.9524999999999999 $492 0.9524999999999999 $403 $541 forward @7 unknown #
coedge $-1 -1 $-1 $406 $385 $390 $494 forward $480 $-1 #
vertex $-1 -1 $-1 $407 $542 #
straight-curve $-1 -1 $-1 0 2.3812499999999996 0.9524999999999999 -1 0 0 I I #
vertex $-1 -1 $-1 $405 $543 #
straight-curve $-1 -1 $-1 0 2.3812499999999996 -0.9524999999999999 1 0 0 I I #
edge $-1 -1 $-1 $393 -2.0622229927616931 $281 0.68740766425389777 $489 $544 forward @7 unknown #
face $-1 -1 $-1 $539 $391 $29 $-1 $545 reversed single #
point $-1 -1 $-1 1.3748153285077971 2.3812499999999988 -0.9524999999999999 #
point $-1 -1 $-1 1.3748153285077971 2.3812499999999988 0.9524999999999999 #
coedge $-1 -1 $-1 $537 $395 $398 $503 reversed $499 $-1 #
loop $-1 -1 $-1 $-1 $537 $506 #
straight-curve $-1 -1 $-1 2.749630657015592 -2.3812499999999996 0 0 0 -1 I I #
coedge $-1 -1 $-1 $408 $484 $397 $502 reversed $485 $-1 #
edge $-1 -1 $-1 $281 -2.0622229927616953 $546 0.68740766425389832 $397 $547 forward @7 unknown #
edge $-1 -1 $-1 $546 1.3748153285077944 $399 2.749630657015592 $498 $440 forward @7 unknown #
point $-1 -1 $-1 2.749630657015592 -2.3812499999999996 0.9524999999999999 #
point $-1 -1 $-1 2.749630657015592 -2.3812499999999996 -0.9524999999999999 #
face $-1 -1 $-1 $495 $499 $29 $-1 $522 reversed single #
face $-1 -1 $-1 $434 $430 $21 $-1 $167 reversed single #
loop $-1 -1 $-1 $-1 $417 $412 #
edge $-1 -1 $-1 $438 -0.9524999999999999 $510 0.9524999999999999 $414 $548 forward @7 unknown #
vertex $-1 -1 $-1 $416 $549 #
straight-curve $-1 -1 $-1 -2.749630657015592 0 -0.9524999999999999 0 1 0 I I #
coedge $-1 -1 $-1 $513 $417 $420 $436 forward $508 $-1 #
coedge $-1 -1 $-1 $417 $512 $422 $518 forward $508 $-1 #
straight-curve $-1 -1 $-1 -1.7185191606347456 1.7859374999999995 -0.9524999999999999 -0.49999999999999983 -0.86602540378443871 0 I I #
coedge $-1 -1 $-1 $420 $419 $517 $550 forward $421 $-1 #
face $-1 -1 $-1 $-1 $421 $21 $-1 $105 reversed single #
coedge $-1 -1 $-1 $423 $422 $515 $550 reversed $413 $-1 #
edge $-1 -1 $-1 $523 -2.749630657015592 $424 -1.3748153285077966 $422 $493 forward @7 unknown #
point $-1 -1 $-1 -1.3748153285077966 2.3812499999999996 -0.9524999999999999 #
vertex $-1 -1 $-1 $426 $551 #
straight-curve $-1 -1 $-1 0 -2.3812499999999996 -0.9524999999999999 -1 0 0 I I #
plane-surface $-1 -1 $-1 0 -2.3812499999999996 0 0 1 0 0 0 1 forward_v I I I I #
vertex $-1 -1 $-1 $518 $552 #
point $-1 -1 $-1 -2.749630657015592 -2.3812499999999996 0.9524999999999999 #
straight-curve $-1 -1 $-1 -2.749630657015592 2.3812499999999996 0 0 0 -1 I I #
point $-1 -1 $-1 -2.749630657015592 -2.3812499999999996 -0.9524999999999999 #
straight-curve $-1 -1 $-1 -2.749630657015592 0 -0.9524999999999999 0 1 0 I I #
point $-1 -1 $-1 -2.749630657015592 2.3812499999999996 -0.9524999999999999 #
straight-curve $-1 -1 $-1 2.7496306570155915 0 0.9524999999999999 -12.699999999999996 21.997045256124743 0 I I #
point $-1 -1 $-1 1.3748153285077975 2.3812499999999996 0.9524999999999999 #
convexity-sys-attrib $-1 -1 $-1 $464 $344 #
convexity-sys-attrib $-1 -1 $-1 $468 $223 #
model_id-kcp-attrib $-1 -1 $-1 $-1 $469 1 1021487948 1021487949 -615055359 14 #
straight-curve $-1 -1 $-1 1.3748153285077975 2.3812499999999996 0.9524999999999999 -25.399999999999999 0 0 I I #
ellipse-curve $-1 -1 $-1 0 0 0.9524999999999999 0 0 -1 -1.2699999999999998 0 0 1 I I #
straight-curve $-1 -1 $-1 2.4059268248886436 0.5953124999999998 -0.9524999999999999 -0.49999999999999983 0.86602540378443871 0 I I #
coedge $-1 -1 $-1 $482 $498 $484 $538 forward $499 $-1 #
edge $-1 -1 $-1 $546 -1.42875 $486 0.47624999999999995 $537 $553 forward @7 unknown #
face $-1 -1 $-1 $-1 $485 $29 $-1 $554 reversed single #
point $-1 -1 $-1 1.3748153285077944 -2.3812499999999996 -0.9524999999999999 #
straight-curve $-1 -1 $-1 2.749630657015592 2.3812499999999996 0 0 0 -1 I I #
point $-1 -1 $-1 2.749630657015592 2.3812499999999996 0.9524999999999999 #
point $-1 -1 $-1 2.749630657015592 2.3812499999999996 -0.9524999999999999 #
straight-curve $-1 -1 $-1 2.4059268248886436 0.5953124999999998 0.95249999999999979 0.49999999999999983 -0.86602540378443871 0 I I #
plane-surface $-1 -1 $-1 2.7496306570155924 0 -0.9524999999999999 0.86602540378443871 0.49999999999999983 0 0 0 1 forward_v I I I I #
vertex $-1 -1 $-1 $503 $555 #
straight-curve $-1 -1 $-1 1.7185191606347439 -1.7859374999999997 0.9524999999999999 -0.50000000000000011 -0.86602540378443871 0 I I #
straight-curve $-1 -1 $-1 -2.749630657015592 -2.3812499999999996 0 0 0 -1 I I #
point $-1 -1 $-1 -2.749630657015592 -2.3812499999999996 -0.9524999999999999 #
edge $-1 -1 $-1 $520 -0.9524999999999999 $523 0.9524999999999999 $517 $556 forward @7 unknown #
point $-1 -1 $-1 -2.749630657015592 2.3812499999999996 0.9524999999999999 #
point $-1 -1 $-1 -2.749630657015592 2.3812499999999996 -0.9524999999999999 #
straight-curve $-1 -1 $-1 1.3748153285077946 -2.3812499999999996 -0.47624999999999995 0 0 -1 I I #
plane-surface $-1 -1 $-1 1.3748153285077944 -2.3812499999999996 -0.9524999999999999 0.86602540378443871 -0.50000000000000011 0 0 0 1 forward_v I I I I #
point $-1 -1 $-1 1.3748153285077944 -2.3812499999999996 0.9524999999999999 #
straight-curve $-1 -1 $-1 -2.749630657015592 2.3812499999999996 0 0 0 -1 I I #
End-of-ACIS-data 