600 0 1 0           
89 GICL ACIS Healer - Source: /gicl/data5/repository/PTC/V18/process18/hn50-20.prt.sat - 6 0 18 ACIS 6.0.3 Solaris 24 Sat Apr 13 21:18:04 2002 
1 9.999999999999999547e-07 1.000000000000000036e-10 
body $-1 $1 $-1 $-1 #
lump $-1 $-1 $2 $0 #
shell $-1 $-1 $-1 $3 $-1 $1 #
face $-1 $4 $5 $2 $-1 $6 reversed single #
face $-1 $7 $8 $2 $-1 $9 reversed single #
loop $-1 $10 $11 $3 #
plane-surface $-1 0 0 0 0 0 1 25.39999999999999858 0 0 forward_v I I I I #
face $-1 $12 $13 $2 $-1 $14 reversed single #
loop $-1 $-1 $15 $4 #
cone-surface $-1 0 0 0 0 0 1 6.349999999999999645 0 0 1 I I 0 1 6.349999999999999645 forward I I I I #
loop $-1 $-1 $16 $3 #
coedge $-1 $17 $17 $18 $19 reversed $5 $-1 #
face $-1 $20 $21 $2 $-1 $22 forward single #
loop $-1 $-1 $23 $7 #
cone-surface $-1 0 0 0 0 0 1 6.349999999999999645 0 0 1 I I 0 1 6.349999999999999645 forward I I I I #
coedge $-1 $24 $18 $25 $26 forward $8 $-1 #
coedge $-1 $27 $28 $29 $30 reversed $10 $-1 #
coedge $-1 $11 $11 $31 $32 reversed $5 $-1 #
coedge $-1 $15 $33 $11 $19 forward $8 $-1 #
edge $-1 $34 0 $35 3.141592653589793116 $11 $36 forward 7 unknown #
face $-1 $37 $38 $2 $-1 $39 forward single #
loop $-1 $40 $41 $12 #
plane-surface $-1 0 0 7.619999999999999218 0 0 1 25.39999999999999858 0 0 forward_v I I I I #
coedge $-1 $42 $31 $33 $43 forward $13 $-1 #
coedge $-1 $33 $15 $41 $44 reversed $8 $-1 #
coedge $-1 $31 $42 $15 $26 reversed $13 $-1 #
edge $-1 $35 0 $45 0.2999999999999999889 $25 $46 forward 7 unknown #
coedge $-1 $47 $16 $48 $49 reversed $10 $-1 #
coedge $-1 $16 $50 $51 $52 reversed $10 $-1 #
coedge $-1 $53 $54 $16 $30 forward $55 $-1 #
edge $-1 $56 0 $57 0.500000000000000111 $16 $58 forward 7 unknown #
coedge $-1 $23 $25 $17 $32 forward $13 $-1 #
edge $-1 $35 0 $34 3.141592653589793116 $17 $59 forward 7 unknown #
coedge $-1 $18 $24 $23 $43 reversed $8 $-1 #
vertex $-1 $32 $60 #
vertex $-1 $32 $61 #
ellipse-curve $-1 0 0 0 0 0 -1 -6.349999999999999645 0 0 1 I I #
face $-1 $62 $63 $2 $-1 $64 forward single #
loop $-1 $-1 $65 $20 #
plane-surface $-1 -6.349999999999999645 -10.99852262806237491 0 0 -1 0 25.39999999999999858 0 0 forward_v I I I I #
loop $-1 $-1 $66 $12 #
coedge $-1 $67 $67 $24 $44 forward $21 $-1 #
coedge $-1 $25 $23 $67 $68 reversed $13 $-1 #
edge $-1 $34 0 $69 0.2999999999999999889 $23 $70 forward 7 unknown #
edge $-1 $69 0 $45 3.141592653589793116 $41 $71 forward 7 unknown #
vertex $-1 $68 $72 #
straight-curve $-1 6.349999999999999645 0 0 0 -5.184166897848063726e-15 25.39999999999999858 I I #
coedge $-1 $73 $27 $74 $75 reversed $10 $-1 #
coedge $-1 $76 $77 $27 $49 forward $78 $-1 #
edge $-1 $79 0 $56 0.5 $27 $80 forward 7 unknown #
coedge $-1 $28 $73 $81 $82 reversed $10 $-1 #
coedge $-1 $83 $84 $28 $52 forward $85 $-1 #
edge $-1 $57 0 $86 0.500000000000000111 $28 $87 forward 7 unknown #
coedge $-1 $88 $29 $84 $89 forward $55 $-1 #
coedge $-1 $29 $88 $76 $90 reversed $55 $-1 #
loop $-1 $-1 $53 $91 #
vertex $-1 $49 $92 #
vertex $-1 $52 $93 #
straight-curve $-1 -6.349999999999999645 10.99852262806237491 0 -12.69999999999999574 -21.99704525612474626 0 I I #
ellipse-curve $-1 0 0 0 0 0 -1 6.349999999999999645 0 0 1 I I #
point $-1 -6.349999999999999645 0 0 #
point $-1 6.349999999999999645 0 0 #
face $-1 $94 $95 $2 $-1 $96 forward single #
loop $-1 $-1 $97 $37 #
plane-surface $-1 6.349999999999999645 -10.99852262806237491 0 0.8660254037844388186 -0.499999999999999889 0 12.69999999999999929 21.99704525612474981 0 forward_v I I I I #
coedge $-1 $98 $81 $99 $100 forward $38 $-1 #
coedge $-1 $101 $102 $98 $103 forward $40 $-1 #
coedge $-1 $41 $41 $42 $68 forward $21 $-1 #
edge $-1 $45 0 $69 3.141592653589793116 $67 $104 forward 7 unknown #
vertex $-1 $68 $105 #
straight-curve $-1 -6.349999999999999645 7.776250346772095392e-16 0 0 0 25.39999999999999858 I I #
ellipse-curve $-1 1.762479051592435909e-16 -3.524958103184871819e-16 7.619999999999999218 0 0 -1 -6.349999999999999645 3.524958103184871819e-16 0 1 I I #
point $-1 6.349999999999999645 0 7.619999999999999218 #
coedge $-1 $50 $47 $106 $107 reversed $10 $-1 #
coedge $-1 $108 $109 $47 $75 forward $95 $-1 #
edge $-1 $110 0 $79 0.500000000000000111 $47 $111 forward 7 unknown #
coedge $-1 $112 $48 $54 $90 forward $78 $-1 #
coedge $-1 $48 $112 $108 $113 reversed $78 $-1 #
loop $-1 $-1 $76 $94 #
vertex $-1 $75 $114 #
straight-curve $-1 6.349999999999999645 10.99852262806237491 0 -25.39999999999999858 0 0 I I #
coedge $-1 $65 $115 $50 $82 forward $38 $-1 #
edge $-1 $86 0 $116 0.5 $50 $117 forward 7 unknown #
coedge $-1 $118 $51 $115 $119 forward $85 $-1 #
coedge $-1 $51 $118 $53 $89 reversed $85 $-1 #
loop $-1 $-1 $83 $120 #
vertex $-1 $52 $121 #
straight-curve $-1 -12.69999999999999929 0 0 12.69999999999999574 -21.99704525612474626 0 I I #
coedge $-1 $54 $53 $122 $123 reversed $55 $-1 #
edge $-1 $57 0 $124 0.2999999999999999889 $84 $125 forward 7 unknown #
edge $-1 $56 0 $126 0.2999999999999999889 $76 $127 forward 7 unknown #
face $-1 $120 $55 $2 $-1 $128 forward single #
point $-1 -6.349999999999999645 10.99852262806237491 0 #
point $-1 -12.69999999999999929 0 0 #
face $-1 $91 $78 $2 $-1 $129 forward single #
loop $-1 $-1 $108 $62 #
plane-surface $-1 12.69999999999999929 0 0 0.8660254037844388186 0.499999999999999889 0 -12.69999999999999929 21.99704525612474981 0 forward_v I I I I #
coedge $-1 $130 $106 $109 $131 forward $63 $-1 #
coedge $-1 $115 $65 $66 $103 reversed $38 $-1 #
coedge $-1 $106 $130 $65 $100 reversed $63 $-1 #
edge $-1 $116 0 $132 0.2999999999999999889 $65 $133 forward 7 unknown #
coedge $-1 $134 $66 $130 $135 forward $40 $-1 #
coedge $-1 $66 $122 $118 $136 forward $40 $-1 #
edge $-1 $137 0 $132 0.5 $66 $138 forward 7 unknown #
ellipse-curve $-1 0 -1.762479051592435909e-16 7.619999999999999218 0 0 -1 6.349999999999999645 1.762479051592435909e-16 0 1 I I #
point $-1 -6.349999999999999645 0 7.619999999999999218 #
coedge $-1 $97 $99 $73 $107 forward $63 $-1 #
edge $-1 $116 0 $110 0.500000000000000111 $73 $139 forward 7 unknown #
coedge $-1 $140 $74 $77 $113 forward $95 $-1 #
coedge $-1 $74 $140 $97 $131 reversed $95 $-1 #
vertex $-1 $107 $141 #
straight-curve $-1 12.69999999999999929 0 0 -12.69999999999999574 21.99704525612474626 0 I I #
coedge $-1 $77 $76 $142 $143 reversed $78 $-1 #
edge $-1 $79 0 $144 0.2999999999999999889 $108 $145 forward 7 unknown #
point $-1 6.349999999999999645 10.99852262806237491 0 #
coedge $-1 $81 $98 $83 $119 reversed $38 $-1 #
vertex $-1 $82 $146 #
straight-curve $-1 -6.349999999999999645 -10.99852262806237491 0 25.39999999999999858 0 0 I I #
coedge $-1 $84 $83 $102 $136 reversed $85 $-1 #
edge $-1 $86 0 $137 0.2999999999999999889 $83 $147 forward 7 unknown #
face $-1 $-1 $85 $2 $-1 $148 forward single #
point $-1 -6.349999999999999645 -10.99852262806237491 0 #
coedge $-1 $102 $142 $88 $123 forward $40 $-1 #
edge $-1 $126 0 $124 0.500000000000000111 $122 $149 forward 7 unknown #
vertex $-1 $136 $150 #
straight-curve $-1 -12.69999999999999929 0 0 0 0 25.39999999999999858 I I #
vertex $-1 $123 $151 #
straight-curve $-1 -6.349999999999999645 10.99852262806237491 0 0 0 25.39999999999999858 I I #
plane-surface $-1 -6.349999999999999645 10.99852262806237491 0 -0.8660254037844388186 0.499999999999999889 0 -12.69999999999999929 -21.99704525612474981 0 forward_v I I I I #
plane-surface $-1 6.349999999999999645 10.99852262806237491 0 0 1 0 -25.39999999999999858 0 0 forward_v I I I I #
coedge $-1 $99 $97 $101 $135 reversed $63 $-1 #
edge $-1 $110 0 $152 0.2999999999999999889 $97 $153 forward 7 unknown #
vertex $-1 $135 $154 #
straight-curve $-1 6.349999999999999645 -10.99852262806237491 0 0 0 25.39999999999999858 I I #
coedge $-1 $142 $101 $140 $155 forward $40 $-1 #
edge $-1 $132 0 $152 0.500000000000000111 $101 $156 forward 7 unknown #
edge $-1 $124 0 $137 0.500000000000000111 $102 $157 forward 7 unknown #
vertex $-1 $136 $158 #
straight-curve $-1 -6.349999999999999645 -10.99852262806237491 7.619999999999999218 25.39999999999999858 0 0 I I #
straight-curve $-1 6.349999999999999645 -10.99852262806237491 0 12.69999999999999574 21.99704525612474626 0 I I #
coedge $-1 $109 $108 $134 $155 reversed $95 $-1 #
point $-1 12.69999999999999929 0 0 #
coedge $-1 $122 $134 $112 $143 forward $40 $-1 #
edge $-1 $144 0 $126 0.5 $142 $159 forward 7 unknown #
vertex $-1 $143 $160 #
straight-curve $-1 6.349999999999999645 10.99852262806237491 0 0 0 25.39999999999999858 I I #
point $-1 6.349999999999999645 -10.99852262806237491 0 #
straight-curve $-1 -6.349999999999999645 -10.99852262806237491 0 0 0 25.39999999999999858 I I #
plane-surface $-1 -12.69999999999999929 0 0 -0.8660254037844388186 -0.499999999999999889 0 12.69999999999999929 -21.99704525612474981 0 forward_v I I I I #
straight-curve $-1 -6.349999999999999645 10.99852262806237491 7.619999999999999218 -12.69999999999999574 -21.99704525612474626 0 I I #
point $-1 -12.69999999999999929 0 7.619999999999999218 #
point $-1 -6.349999999999999645 10.99852262806237491 7.619999999999999218 #
vertex $-1 $155 $161 #
straight-curve $-1 12.69999999999999929 0 0 0 0 25.39999999999999858 I I #
point $-1 6.349999999999999645 -10.99852262806237491 7.619999999999999218 #
edge $-1 $152 0 $144 0.500000000000000111 $134 $162 forward 7 unknown #
straight-curve $-1 6.349999999999999645 -10.99852262806237491 7.619999999999999218 12.69999999999999574 21.99704525612474626 0 I I #
straight-curve $-1 -12.69999999999999929 0 7.619999999999999218 12.69999999999999574 -21.99704525612474626 0 I I #
point $-1 -6.349999999999999645 -10.99852262806237491 7.619999999999999218 #
straight-curve $-1 6.349999999999999645 10.99852262806237491 7.619999999999999218 -25.39999999999999858 0 0 I I #
point $-1 6.349999999999999645 10.99852262806237491 7.619999999999999218 #
point $-1 12.69999999999999929 0 7.619999999999999218 #
straight-curve $-1 12.69999999999999929 0 7.619999999999999218 -12.69999999999999574 21.99704525612474626 0 I I #
End-of-ACIS-data 