700 0 2 0           
24 FBMach with ACIS - 7.0.3 13 ACIS 7.0.3 NT 24 Wed May 15 14:39:11 2002 
1 9.9999999999999995e-007 1e-010 
body $2 -1 $-1 $3 $-1 $4 #
bdycol-kcp $-1 -1 1 3 $5 $6 $7 #
model_id-kcp-attrib $-1 -1 $-1 $-1 $0 1 1021487950 1021487950 713293825 1 #
lump $-1 -1 $-1 $-1 $8 $0 #
transform $-1 -1 1.0000000000000004 0 0 0 1.0000000000000004 0 0 0 1 -3.5527136788005009e-015 0 0 1 rotate no_reflect no_shear #
body $9 -1 $-1 $10 $-1 $11 #
body $12 -1 $-1 $13 $-1 $14 #
body $15 -1 $-1 $16 $-1 $17 #
shell $-1 -1 $-1 $-1 $-1 $18 $-1 $3 #
model_id-kcp-attrib $-1 -1 $-1 $-1 $5 1 1021487950 1021487950 713293826 1 #
lump $-1 -1 $-1 $-1 $19 $5 #
transform $-1 -1 1 0 0 0 1 0 0 0 1 0 0 3.8099999999999996 1 no_rotate no_reflect no_shear #
rgb_color-st-attrib $-1 -1 $20 $-1 $6 0.5 1 1 #
lump $-1 -1 $-1 $21 $22 $6 #
transform $-1 -1 1 0 0 0 1 0 0 0 1 0 0 3.8099999999999996 1 no_rotate no_reflect no_shear #
rgb_color-st-attrib $-1 -1 $23 $-1 $7 0.5 1 1 #
lump $-1 -1 $-1 $-1 $24 $7 #
transform $-1 -1 1 0 0 0 1 0 0 0 1 0 0 0 1 no_rotate no_reflect no_shear #
face $25 -1 $-1 $26 $27 $8 $-1 $28 reversed single #
shell $-1 -1 $-1 $-1 $-1 $29 $-1 $10 #
model_id-kcp-attrib $-1 -1 $-1 $12 $6 1 1021487950 1021487951 710541315 1 #
lump $-1 -1 $-1 $-1 $30 $6 #
shell $-1 -1 $-1 $-1 $-1 $31 $-1 $13 #
model_id-kcp-attrib $-1 -1 $-1 $15 $7 1 1021487950 1021487951 719060996 1 #
shell $-1 -1 $-1 $-1 $-1 $32 $-1 $16 #
model_id-kcp-attrib $-1 -1 $-1 $-1 $18 1 1021487950 1021487950 713293825 2 #
face $33 -1 $-1 $34 $35 $8 $-1 $36 reversed single #
loop $-1 -1 $-1 $37 $38 $18 #
plane-surface $-1 -1 $-1 0 0 0 0 0 1 25.399999999999999 0 0 forward_v I I I I #
face $39 -1 $-1 $40 $41 $19 $-1 $42 forward single #
shell $-1 -1 $-1 $-1 $-1 $43 $-1 $21 #
face $-1 -1 $-1 $44 $45 $22 $-1 $46 reversed single #
face $-1 -1 $-1 $47 $48 $24 $-1 $49 forward single #
model_id-kcp-attrib $-1 -1 $-1 $-1 $26 1 1021487950 1021487950 713293825 3 #
face $50 -1 $-1 $51 $52 $8 $-1 $53 reversed single #
loop $-1 -1 $-1 $-1 $54 $26 #
cone-surface $-1 -1 $-1 0 0 0 0 0 1 6.3499999999999996 0 0 1 I I 0 1 6.3499999999999996 forward I I I I #
loop $-1 -1 $-1 $-1 $55 $18 #
coedge $-1 -1 $-1 $56 $56 $57 $58 reversed $27 $-1 #
model_id-kcp-attrib $-1 -1 $-1 $-1 $29 1 1021487950 1021487950 713293826 3 #
face $59 -1 $-1 $60 $61 $19 $-1 $62 reversed single #
loop $-1 -1 $-1 $-1 $63 $29 #
plane-surface $-1 -1 $-1 0 0 3.8099999999999996 0 0 1 1 0 0 forward_v I I I I #
face $-1 -1 $-1 $64 $65 $30 $-1 $66 reversed single #
face $-1 -1 $-1 $67 $68 $22 $-1 $69 reversed single #
loop $-1 -1 $-1 $-1 $70 $31 #
plane-surface $-1 -1 $-1 -12.699999999999999 0 -3.8099999999999996 -0.86602540378443882 -0.49999999999999983 0 0 0 -1 forward_v I I I I #
face $-1 -1 $-1 $71 $72 $24 $-1 $73 forward single #
loop $-1 -1 $-1 $74 $75 $32 #
cone-surface $-1 -1 $-1 0 0 0 0 0 1 -6.3499999999999996 0 0 1 I I 0 1 6.3499999999999996 forward I I I I #
model_id-kcp-attrib $-1 -1 $-1 $-1 $34 1 1021487950 1021487950 713293825 4 #
face $76 -1 $-1 $77 $78 $8 $-1 $79 forward single #
loop $-1 -1 $-1 $-1 $80 $34 #
cone-surface $-1 -1 $-1 0 0 0 0 0 1 6.3499999999999996 0 0 1 I I 0 1 6.3499999999999996 forward I I I I #
coedge $-1 -1 $-1 $81 $57 $82 $83 forward $35 $-1 #
coedge $-1 -1 $-1 $84 $85 $86 $87 reversed $37 $-1 #
coedge $-1 -1 $-1 $38 $38 $88 $89 reversed $27 $-1 #
coedge $-1 -1 $-1 $54 $90 $38 $58 forward $35 $-1 #
edge $91 -1 $-1 $92 0 $93 3.1415926535897931 $38 $94 forward @7 unknown #
model_id-kcp-attrib $-1 -1 $-1 $-1 $40 1 1021487950 1021487950 713293826 2 #
face $95 -1 $-1 $96 $97 $19 $-1 $98 reversed single #
loop $-1 -1 $-1 $-1 $99 $40 #
plane-surface $-1 -1 $-1 0 0 -3.8099999999999996 0 0 1 1 0 0 forward_v I I I I #
coedge $-1 -1 $-1 $100 $101 $102 $103 forward $41 $-1 #
face $-1 -1 $-1 $104 $105 $30 $-1 $106 reversed single #
loop $-1 -1 $-1 $-1 $107 $43 #
plane-surface $-1 -1 $-1 12.699999999999999 0 0 -1 0 0 0 0 1 forward_v I I I I #
face $-1 -1 $-1 $108 $109 $22 $-1 $110 reversed single #
loop $-1 -1 $-1 $-1 $111 $44 #
plane-surface $-1 -1 $-1 -6.3499999999999979 10.998522628062375 -3.8099999999999996 -0.86602540378443882 0.49999999999999983 0 0 0 -1 forward_v I I I I #
coedge $-1 -1 $-1 $112 $113 $114 $115 reversed $45 $-1 #
face $-1 -1 $-1 $-1 $116 $24 $-1 $117 reversed single #
loop $-1 -1 $-1 $-1 $118 $47 #
plane-surface $-1 -1 $-1 0 0 7.6199999999999992 0 0 1 1 0 0 forward_v I I I I #
loop $-1 -1 $-1 $-1 $119 $32 #
coedge $-1 -1 $-1 $75 $75 $118 $120 forward $48 $-1 #
model_id-kcp-attrib $-1 -1 $-1 $-1 $51 1 1021487950 1021487950 713293825 5 #
face $121 -1 $-1 $122 $123 $8 $-1 $124 forward single #
loop $-1 -1 $-1 $125 $126 $51 #
plane-surface $-1 -1 $-1 0 0 7.6199999999999992 0 0 1 25.399999999999999 0 0 forward_v I I I I #
coedge $-1 -1 $-1 $127 $88 $90 $128 forward $52 $-1 #
coedge $-1 -1 $-1 $90 $54 $126 $129 reversed $35 $-1 #
coedge $-1 -1 $-1 $88 $127 $54 $83 reversed $52 $-1 #
edge $-1 -1 $-1 $93 0 $130 0.29999999999999999 $82 $131 forward @7 unknown #
coedge $-1 -1 $-1 $132 $55 $133 $134 reversed $37 $-1 #
coedge $-1 -1 $-1 $55 $135 $136 $137 reversed $37 $-1 #
coedge $-1 -1 $-1 $138 $139 $55 $87 forward $140 $-1 #
edge $141 -1 $-1 $142 0 $143 0.50000000000000011 $55 $144 forward @7 unknown #
coedge $-1 -1 $-1 $80 $82 $56 $89 forward $52 $-1 #
edge $145 -1 $-1 $93 0 $92 3.1415926535897931 $56 $146 forward @7 unknown #
coedge $-1 -1 $-1 $57 $81 $80 $128 reversed $35 $-1 #
attrib_edge_convexity-kcp-attrib $-1 -1 $147 $-1 $58 1 #
vertex $-1 -1 $-1 $89 $148 #
vertex $-1 -1 $-1 $89 $149 #
ellipse-curve $-1 -1 $-1 0 0 0 0 0 -1 -6.3499999999999996 0 0 1 I I #
model_id-kcp-attrib $-1 -1 $-1 $-1 $60 1 1021487950 1021487950 713293826 4 #
face $-1 -1 $-1 $150 $151 $19 $-1 $152 reversed single #
loop $-1 -1 $-1 $-1 $153 $60 #
plane-surface $-1 -1 $-1 0 -10.998522628062375 0 0 1 0 0 0 1 forward_v I I I I #
coedge $-1 -1 $-1 $154 $155 $156 $157 forward $61 $-1 #
coedge $-1 -1 $-1 $158 $63 $159 $160 forward $41 $-1 #
coedge $-1 -1 $-1 $63 $158 $161 $162 forward $41 $-1 #
coedge $-1 -1 $-1 $163 $164 $63 $103 reversed $165 $-1 #
edge $-1 -1 $-1 $166 -10.998522628062375 $167 10.998522628062375 $102 $168 forward @7 unknown #
face $-1 -1 $-1 $169 $170 $30 $-1 $171 reversed single #
loop $-1 -1 $-1 $-1 $172 $64 #
plane-surface $-1 -1 $-1 0 10.998522628062375 0 0 -1 0 0 0 -1 forward_v I I I I #
coedge $-1 -1 $-1 $173 $174 $175 $176 forward $65 $-1 #
face $-1 -1 $-1 $177 $178 $22 $-1 $179 forward single #
loop $-1 -1 $-1 $-1 $180 $67 #
plane-surface $-1 -1 $-1 -12.699999999999999 0 0 1 0 0 0 0 -1 forward_v I I I I #
coedge $-1 -1 $-1 $181 $182 $183 $184 reversed $68 $-1 #
coedge $-1 -1 $-1 $185 $70 $186 $187 reversed $45 $-1 #
coedge $-1 -1 $-1 $70 $185 $181 $188 forward $45 $-1 #
coedge $-1 -1 $-1 $189 $190 $70 $115 forward $191 $-1 #
edge $-1 -1 $-1 $192 -9.5250000000000057 $193 3.1749999999999989 $114 $194 forward @7 unknown #
loop $-1 -1 $-1 $-1 $195 $71 #
plane-surface $-1 -1 $-1 0 0 0 0 0 1 1 0 0 forward_v I I I I #
coedge $-1 -1 $-1 $118 $118 $75 $120 reversed $72 $-1 #
coedge $-1 -1 $-1 $119 $119 $195 $196 reversed $74 $-1 #
edge $-1 -1 $-1 $197 -3.1415926535897931 $197 3.1415926535897931 $75 $198 forward @7 unknown #
model_id-kcp-attrib $-1 -1 $-1 $-1 $77 1 1021487950 1021487950 713293825 6 #
face $199 -1 $-1 $200 $201 $8 $-1 $202 forward single #
loop $-1 -1 $-1 $-1 $203 $77 #
plane-surface $-1 -1 $-1 -6.3499999999999996 -10.998522628062375 0 0 -1 0 25.399999999999999 0 0 forward_v I I I I #
loop $-1 -1 $-1 $-1 $204 $51 #
coedge $-1 -1 $-1 $205 $205 $81 $129 forward $78 $-1 #
coedge $-1 -1 $-1 $82 $80 $205 $206 reversed $52 $-1 #
edge $-1 -1 $-1 $92 0 $207 0.29999999999999999 $80 $208 forward @7 unknown #
edge $-1 -1 $-1 $207 0 $130 3.1415926535897931 $126 $209 forward @7 unknown #
vertex $-1 -1 $-1 $206 $210 #
straight-curve $-1 -1 $-1 6.3499999999999996 0 0 0 -5.1841668978480637e-015 25.399999999999999 I I #
coedge $-1 -1 $-1 $211 $84 $212 $213 reversed $37 $-1 #
coedge $-1 -1 $-1 $214 $215 $84 $134 forward $216 $-1 #
edge $217 -1 $-1 $218 0 $142 0.5 $84 $219 forward @7 unknown #
coedge $-1 -1 $-1 $85 $211 $220 $221 reversed $37 $-1 #
coedge $-1 -1 $-1 $222 $223 $85 $137 forward $224 $-1 #
edge $225 -1 $-1 $143 0 $226 0.50000000000000011 $85 $227 forward @7 unknown #
coedge $-1 -1 $-1 $228 $86 $223 $229 forward $140 $-1 #
coedge $-1 -1 $-1 $86 $228 $214 $230 reversed $140 $-1 #
loop $-1 -1 $-1 $-1 $138 $231 #
attrib_edge_convexity-kcp-attrib $-1 -1 $232 $-1 $87 1 #
vertex $-1 -1 $-1 $134 $233 #
vertex $-1 -1 $-1 $137 $234 #
straight-curve $-1 -1 $-1 -6.3499999999999996 10.998522628062375 0 -12.699999999999996 -21.997045256124746 0 I I #
attrib_edge_convexity-kcp-attrib $-1 -1 $235 $-1 $89 1 #
ellipse-curve $-1 -1 $-1 0 0 0 0 0 -1 6.3499999999999996 0 0 1 I I #
convexity-sys-attrib $-1 -1 $-1 $91 $58 #
point $-1 -1 $-1 -6.3499999999999996 0 0 #
point $-1 -1 $-1 6.3499999999999996 0 0 #
face $236 -1 $-1 $237 $238 $19 $-1 $239 reversed single #
loop $-1 -1 $-1 $-1 $240 $96 #
plane-surface $-1 -1 $-1 -12.699999999999999 0 0 1 0 0 0 0 -1 forward_v I I I I #
coedge $-1 -1 $-1 $241 $161 $242 $243 forward $97 $-1 #
coedge $-1 -1 $-1 $244 $99 $241 $245 forward $61 $-1 #
coedge $-1 -1 $-1 $99 $244 $246 $247 forward $61 $-1 #
coedge $-1 -1 $-1 $164 $163 $99 $157 reversed $165 $-1 #
edge $-1 -1 $-1 $248 -10.998522628062375 $249 10.998522628062375 $156 $250 forward @7 unknown #
coedge $-1 -1 $-1 $101 $100 $251 $252 forward $41 $-1 #
coedge $-1 -1 $-1 $253 $254 $100 $160 reversed $238 $-1 #
edge $-1 -1 $-1 $167 -12.699999999999999 $255 12.699999999999999 $159 $256 forward @7 unknown #
coedge $-1 -1 $-1 $153 $257 $101 $162 reversed $97 $-1 #
edge $-1 -1 $-1 $258 -12.699999999999999 $166 12.699999999999999 $161 $259 forward @7 unknown #
coedge $-1 -1 $-1 $156 $102 $257 $260 forward $165 $-1 #
coedge $-1 -1 $-1 $102 $156 $253 $261 reversed $165 $-1 #
loop $-1 -1 $-1 $-1 $163 $237 #
vertex $-1 -1 $-1 $103 $262 #
vertex $-1 -1 $-1 $103 $263 #
straight-curve $-1 -1 $-1 12.699999999999999 0 3.8099999999999996 0 1 0 I I #
face $-1 -1 $-1 $264 $265 $30 $-1 $171 reversed single #
loop $-1 -1 $-1 $-1 $266 $104 #
plane-surface $-1 -1 $-1 0 0 -3.8099999999999996 0 0 1 1 0 0 forward_v I I I I #
coedge $-1 -1 $-1 $267 $268 $269 $270 forward $105 $-1 #
coedge $-1 -1 $-1 $271 $107 $272 $273 reversed $65 $-1 #
coedge $-1 -1 $-1 $107 $271 $274 $275 reversed $65 $-1 #
coedge $-1 -1 $-1 $276 $277 $278 $176 reversed $279 $-1 #
edge $-1 -1 $-1 $280 -1.9049999999999998 $281 5.7149999999999999 $107 $282 forward @7 unknown #
face $-1 -1 $-1 $283 $191 $22 $-1 $179 forward single #
loop $-1 -1 $-1 $-1 $183 $108 #
plane-surface $-1 -1 $-1 0 0 3.8099999999999996 0 0 1 1 0 0 forward_v I I I I #
coedge $-1 -1 $-1 $284 $285 $113 $188 reversed $109 $-1 #
coedge $-1 -1 $-1 $286 $111 $287 $188 reversed $68 $-1 #
coedge $-1 -1 $-1 $111 $286 $288 $289 reversed $68 $-1 #
coedge $-1 -1 $-1 $290 $291 $111 $184 forward $178 $-1 #
edge $-1 -1 $-1 $193 -9.5250000000000021 $292 3.1750000000000034 $183 $293 forward @7 unknown #
coedge $-1 -1 $-1 $113 $112 $294 $295 reversed $45 $-1 #
coedge $-1 -1 $-1 $296 $297 $112 $187 forward $298 $-1 #
edge $-1 -1 $-1 $299 -1.9049999999999998 $192 5.7149999999999999 $186 $300 forward @7 unknown #
edge $-1 -1 $-1 $301 -1.9049999999999998 $193 5.7149999999999999 $287 $302 forward @7 unknown #
coedge $-1 -1 $-1 $190 $114 $285 $303 forward $191 $-1 #
coedge $-1 -1 $-1 $114 $189 $296 $304 forward $191 $-1 #
loop $-1 -1 $-1 $-1 $114 $177 #
vertex $-1 -1 $-1 $115 $305 #
vertex $-1 -1 $-1 $303 $306 #
straight-curve $-1 -1 $-1 -11.112500000000001 -2.7496306570155924 3.8099999999999992 -0.49999999999999983 0.86602540378443882 0 I I #
coedge $-1 -1 $-1 $195 $195 $119 $196 forward $116 $-1 #
edge $-1 -1 $-1 $307 -3.1415926535897931 $307 3.1415926535897931 $119 $308 forward @7 unknown #
vertex $-1 -1 $-1 $120 $309 #
ellipse-curve $-1 -1 $-1 0 0 7.6199999999999992 0 0 -1 6.3499999999999996 0 0 1 I I #
model_id-kcp-attrib $-1 -1 $-1 $-1 $122 1 1021487950 1021487950 713293825 7 #
face $310 -1 $-1 $311 $312 $8 $-1 $313 forward single #
loop $-1 -1 $-1 $-1 $314 $122 #
plane-surface $-1 -1 $-1 6.3499999999999996 -10.998522628062375 0 0.86602540378443882 -0.49999999999999989 0 12.699999999999999 21.99704525612475 0 forward_v I I I I #
coedge $-1 -1 $-1 $315 $220 $316 $317 forward $123 $-1 #
coedge $-1 -1 $-1 $318 $319 $315 $320 forward $125 $-1 #
coedge $-1 -1 $-1 $126 $126 $127 $206 forward $78 $-1 #
edge $-1 -1 $-1 $130 0 $207 3.1415926535897931 $205 $321 forward @7 unknown #
vertex $-1 -1 $-1 $206 $322 #
straight-curve $-1 -1 $-1 -6.3499999999999996 7.7762503467720954e-016 0 0 0 25.399999999999999 I I #
ellipse-curve $-1 -1 $-1 1.7624790515924359e-016 -3.5249581031848718e-016 7.6199999999999992 0 0 -1 -6.3499999999999996 3.5249581031848718e-016 0 1 I I #
point $-1 -1 $-1 6.3499999999999996 0 7.6199999999999992 #
coedge $-1 -1 $-1 $135 $132 $323 $324 reversed $37 $-1 #
coedge $-1 -1 $-1 $325 $326 $132 $213 forward $312 $-1 #
edge $327 -1 $-1 $328 0 $218 0.50000000000000011 $132 $329 forward @7 unknown #
coedge $-1 -1 $-1 $330 $133 $139 $230 forward $216 $-1 #
coedge $-1 -1 $-1 $133 $330 $325 $331 reversed $216 $-1 #
loop $-1 -1 $-1 $-1 $214 $311 #
attrib_edge_convexity-kcp-attrib $-1 -1 $332 $-1 $134 1 #
vertex $-1 -1 $-1 $213 $333 #
straight-curve $-1 -1 $-1 6.3499999999999996 10.998522628062375 0 -25.399999999999999 0 0 I I #
coedge $-1 -1 $-1 $203 $334 $135 $221 forward $123 $-1 #
edge $335 -1 $-1 $226 0 $336 0.5 $135 $337 forward @7 unknown #
coedge $-1 -1 $-1 $338 $136 $334 $339 forward $224 $-1 #
coedge $-1 -1 $-1 $136 $338 $138 $229 reversed $224 $-1 #
loop $-1 -1 $-1 $-1 $222 $340 #
attrib_edge_convexity-kcp-attrib $-1 -1 $341 $-1 $137 1 #
vertex $-1 -1 $-1 $137 $342 #
straight-curve $-1 -1 $-1 -12.699999999999999 0 0 12.699999999999996 -21.997045256124746 0 I I #
coedge $-1 -1 $-1 $139 $138 $343 $344 reversed $140 $-1 #
edge $-1 -1 $-1 $143 0 $345 0.29999999999999999 $223 $346 forward @7 unknown #
edge $-1 -1 $-1 $142 0 $347 0.29999999999999999 $214 $348 forward @7 unknown #
face $349 -1 $-1 $340 $140 $8 $-1 $350 forward single #
convexity-sys-attrib $-1 -1 $-1 $141 $87 #
point $-1 -1 $-1 -6.3499999999999996 10.998522628062375 0 #
point $-1 -1 $-1 -12.699999999999999 0 0 #
convexity-sys-attrib $-1 -1 $-1 $145 $89 #
model_id-kcp-attrib $-1 -1 $-1 $-1 $150 1 1021487950 1021487950 713293826 5 #
face $-1 -1 $-1 $-1 $165 $19 $-1 $351 reversed single #
loop $-1 -1 $-1 $-1 $253 $150 #
plane-surface $-1 -1 $-1 0 10.998522628062375 0 0 -1 0 0 0 -1 forward_v I I I I #
coedge $-1 -1 $-1 $352 $251 $254 $353 forward $151 $-1 #
coedge $-1 -1 $-1 $257 $153 $154 $245 reversed $97 $-1 #
coedge $-1 -1 $-1 $251 $352 $153 $243 reversed $151 $-1 #
edge $-1 -1 $-1 $258 -3.8099999999999996 $354 3.8099999999999996 $242 $355 forward @7 unknown #
coedge $-1 -1 $-1 $155 $154 $352 $356 forward $61 $-1 #
edge $-1 -1 $-1 $249 -12.699999999999999 $354 12.699999999999999 $241 $357 forward @7 unknown #
coedge $-1 -1 $-1 $254 $253 $155 $247 reversed $238 $-1 #
edge $-1 -1 $-1 $358 -12.699999999999999 $248 12.699999999999999 $246 $359 forward @7 unknown #
vertex $-1 -1 $-1 $157 $360 #
vertex $-1 -1 $-1 $260 $361 #
straight-curve $-1 -1 $-1 12.699999999999999 0 -3.8099999999999996 0 -1 0 I I #
coedge $-1 -1 $-1 $240 $242 $158 $252 reversed $151 $-1 #
edge $-1 -1 $-1 $255 -10.998522628062375 $258 10.998522628062375 $251 $362 forward @7 unknown #
coedge $-1 -1 $-1 $246 $159 $164 $261 forward $238 $-1 #
coedge $-1 -1 $-1 $159 $246 $240 $353 reversed $238 $-1 #
vertex $-1 -1 $-1 $160 $363 #
straight-curve $-1 -1 $-1 0 10.998522628062375 3.8099999999999996 -1 0 0 I I #
coedge $-1 -1 $-1 $161 $241 $163 $260 reversed $97 $-1 #
vertex $-1 -1 $-1 $252 $364 #
straight-curve $-1 -1 $-1 0 -10.998522628062375 3.8099999999999996 1 0 0 I I #
edge $-1 -1 $-1 $166 -3.8099999999999996 $249 3.8099999999999996 $163 $365 forward @7 unknown #
edge $-1 -1 $-1 $167 -3.8099999999999996 $248 3.8099999999999996 $164 $366 forward @7 unknown #
point $-1 -1 $-1 12.699999999999999 -10.998522628062375 3.8099999999999996 #
point $-1 -1 $-1 12.699999999999999 10.998522628062375 3.8099999999999996 #
face $-1 -1 $-1 $367 $368 $30 $-1 $179 forward single #
loop $-1 -1 $-1 $-1 $369 $169 #
coedge $-1 -1 $-1 $274 $370 $371 $372 forward $170 $-1 #
coedge $-1 -1 $-1 $373 $172 $374 $375 reversed $105 $-1 #
coedge $-1 -1 $-1 $172 $373 $376 $377 reversed $105 $-1 #
coedge $-1 -1 $-1 $378 $379 $172 $270 reversed $380 $-1 #
edge $-1 -1 $-1 $381 -1.9049999999999998 $382 5.7149999999999999 $172 $383 forward @7 unknown #
coedge $-1 -1 $-1 $174 $173 $384 $385 forward $65 $-1 #
coedge $-1 -1 $-1 $386 $387 $173 $273 forward $368 $-1 #
edge $-1 -1 $-1 $388 -10.998522628062375 $281 0 $173 $389 forward @7 unknown #
coedge $-1 -1 $-1 $370 $266 $174 $275 forward $170 $-1 #
edge $-1 -1 $-1 $280 0 $390 10.998522628062375 $174 $391 forward @7 unknown #
coedge $-1 -1 $-1 $392 $175 $393 $394 reversed $279 $-1 #
coedge $-1 -1 $-1 $175 $392 $395 $396 reversed $279 $-1 #
coedge $-1 -1 $-1 $379 $378 $397 $176 forward $380 $-1 #
loop $-1 -1 $-1 $-1 $175 $398 #
vertex $-1 -1 $-1 $275 $399 #
vertex $-1 -1 $-1 $396 $400 #
straight-curve $-1 -1 $-1 12.699999999999999 2.6645352591003757e-015 -1.9049999999999998 0 0 1 I I #
face $-1 -1 $-1 $401 $402 $22 $-1 $106 reversed single #
coedge $-1 -1 $-1 $403 $180 $404 $405 reversed $109 $-1 #
coedge $-1 -1 $-1 $180 $403 $189 $303 reversed $109 $-1 #
coedge $-1 -1 $-1 $182 $181 $406 $407 reversed $68 $-1 #
coedge $-1 -1 $-1 $408 $409 $180 $188 forward $410 $-1 #
coedge $-1 -1 $-1 $411 $412 $182 $289 forward $402 $-1 #
edge $-1 -1 $-1 $292 -5.7149999999999999 $413 1.9049999999999998 $288 $414 forward @7 unknown #
coedge $-1 -1 $-1 $291 $183 $412 $415 forward $178 $-1 #
coedge $-1 -1 $-1 $183 $290 $408 $416 forward $178 $-1 #
vertex $-1 -1 $-1 $415 $417 #
straight-curve $-1 -1 $-1 -7.9375 8.2488919710467794 3.8099999999999992 0.49999999999999983 0.86602540378443882 0 I I #
coedge $-1 -1 $-1 $418 $404 $185 $295 forward $419 $-1 #
edge $-1 -1 $-1 $301 -3.1749999999999989 $299 9.5250000000000057 $294 $420 forward @7 unknown #
coedge $-1 -1 $-1 $421 $186 $190 $304 reversed $298 $-1 #
coedge $-1 -1 $-1 $186 $421 $418 $422 reversed $298 $-1 #
loop $-1 -1 $-1 $-1 $186 $423 #
vertex $-1 -1 $-1 $422 $424 #
straight-curve $-1 -1 $-1 -6.3500000000000014 -10.998522628062375 -1.9049999999999998 0 0 1 I I #
vertex $-1 -1 $-1 $425 $426 #
straight-curve $-1 -1 $-1 -12.699999999999999 -2.6645352591003757e-015 -1.9049999999999998 0 0 1 I I #
edge $-1 -1 $-1 $193 0 $427 10.998522628062375 $285 $428 forward @7 unknown #
edge $-1 -1 $-1 $427 -12.699999999999999 $192 -6.3499999999999979 $296 $429 forward @7 unknown #
point $-1 -1 $-1 -6.3499999999999979 -10.998522628062375 3.8099999999999996 #
point $-1 -1 $-1 -12.699999999999999 0 3.8099999999999996 #
vertex $-1 -1 $-1 $196 $430 #
ellipse-curve $-1 -1 $-1 0 0 0 0 0 -1 -6.3499999999999996 0 0 1 I I #
point $-1 -1 $-1 -6.3499999999999996 0 7.6199999999999992 #
model_id-kcp-attrib $-1 -1 $-1 $-1 $200 1 1021487950 1021487950 713293825 8 #
face $431 -1 $-1 $231 $216 $8 $-1 $432 forward single #
loop $-1 -1 $-1 $-1 $325 $200 #
plane-surface $-1 -1 $-1 12.699999999999999 0 0 0.86602540378443882 0.49999999999999989 0 -12.699999999999999 21.99704525612475 0 forward_v I I I I #
coedge $-1 -1 $-1 $433 $323 $326 $434 forward $201 $-1 #
coedge $-1 -1 $-1 $334 $203 $204 $320 reversed $123 $-1 #
coedge $-1 -1 $-1 $323 $433 $203 $317 reversed $201 $-1 #
edge $435 -1 $-1 $336 0 $436 0.29999999999999999 $203 $437 forward @7 unknown #
coedge $-1 -1 $-1 $438 $204 $433 $439 forward $125 $-1 #
coedge $-1 -1 $-1 $204 $343 $338 $440 forward $125 $-1 #
edge $441 -1 $-1 $442 0 $436 0.5 $204 $443 forward @7 unknown #
ellipse-curve $-1 -1 $-1 0 -1.7624790515924359e-016 7.6199999999999992 0 0 -1 6.3499999999999996 1.7624790515924359e-016 0 1 I I #
point $-1 -1 $-1 -6.3499999999999996 0 7.6199999999999992 #
coedge $-1 -1 $-1 $314 $316 $211 $324 forward $201 $-1 #
edge $444 -1 $-1 $336 0 $328 0.50000000000000011 $211 $445 forward @7 unknown #
coedge $-1 -1 $-1 $446 $212 $215 $331 forward $312 $-1 #
coedge $-1 -1 $-1 $212 $446 $314 $434 reversed $312 $-1 #
attrib_edge_convexity-kcp-attrib $-1 -1 $447 $-1 $213 1 #
vertex $-1 -1 $-1 $324 $448 #
straight-curve $-1 -1 $-1 12.699999999999999 0 0 -12.699999999999996 21.997045256124746 0 I I #
coedge $-1 -1 $-1 $215 $214 $449 $450 reversed $216 $-1 #
edge $451 -1 $-1 $218 0 $452 0.29999999999999999 $325 $453 forward @7 unknown #
convexity-sys-attrib $-1 -1 $-1 $217 $134 #
point $-1 -1 $-1 6.3499999999999996 10.998522628062375 0 #
coedge $-1 -1 $-1 $220 $315 $222 $339 reversed $123 $-1 #
attrib_edge_convexity-kcp-attrib $-1 -1 $454 $-1 $221 1 #
vertex $-1 -1 $-1 $221 $455 #
straight-curve $-1 -1 $-1 -6.3499999999999996 -10.998522628062375 0 25.399999999999999 0 0 I I #
coedge $-1 -1 $-1 $223 $222 $319 $440 reversed $224 $-1 #
edge $456 -1 $-1 $226 0 $442 0.29999999999999999 $222 $457 forward @7 unknown #
face $458 -1 $-1 $-1 $224 $8 $-1 $459 forward single #
convexity-sys-attrib $-1 -1 $-1 $225 $137 #
point $-1 -1 $-1 -6.3499999999999996 -10.998522628062375 0 #
coedge $-1 -1 $-1 $319 $449 $228 $344 forward $125 $-1 #
edge $-1 -1 $-1 $347 0 $345 0.50000000000000011 $343 $460 forward @7 unknown #
vertex $-1 -1 $-1 $440 $461 #
straight-curve $-1 -1 $-1 -12.699999999999999 0 0 0 0 25.399999999999999 I I #
vertex $-1 -1 $-1 $344 $462 #
straight-curve $-1 -1 $-1 -6.3499999999999996 10.998522628062375 0 0 0 25.399999999999999 I I #
model_id-kcp-attrib $-1 -1 $-1 $-1 $231 1 1021487950 1021487950 713293825 10 #
plane-surface $-1 -1 $-1 -6.3499999999999996 10.998522628062375 0 -0.86602540378443882 0.49999999999999989 0 -12.699999999999999 -21.99704525612475 0 forward_v I I I I #
plane-surface $-1 -1 $-1 12.699999999999999 0 0 -1 0 0 0 0 1 forward_v I I I I #
coedge $-1 -1 $-1 $242 $240 $244 $356 reversed $151 $-1 #
edge $-1 -1 $-1 $255 -3.8099999999999996 $358 3.8099999999999996 $254 $463 forward @7 unknown #
vertex $-1 -1 $-1 $356 $464 #
straight-curve $-1 -1 $-1 -12.699999999999999 -10.998522628062375 0 0 0 -1 I I #
edge $-1 -1 $-1 $354 -10.998522628062375 $358 10.998522628062375 $352 $465 forward @7 unknown #
straight-curve $-1 -1 $-1 0 -10.998522628062375 -3.8099999999999996 -1 0 0 I I #
vertex $-1 -1 $-1 $247 $466 #
straight-curve $-1 -1 $-1 0 10.998522628062375 -3.8099999999999996 1 0 0 I I #
point $-1 -1 $-1 12.699999999999999 10.998522628062375 -3.8099999999999996 #
point $-1 -1 $-1 12.699999999999999 -10.998522628062375 -3.8099999999999996 #
straight-curve $-1 -1 $-1 -12.699999999999999 0 3.8099999999999996 0 -1 0 I I #
point $-1 -1 $-1 -12.699999999999999 10.998522628062375 3.8099999999999996 #
point $-1 -1 $-1 -12.699999999999999 -10.998522628062375 3.8099999999999996 #
straight-curve $-1 -1 $-1 12.699999999999999 -10.998522628062375 0 0 0 -1 I I #
straight-curve $-1 -1 $-1 12.699999999999999 10.998522628062375 0 0 0 -1 I I #
face $-1 -1 $-1 $398 $467 $30 $-1 $179 forward single #
loop $-1 -1 $-1 $-1 $386 $264 #
coedge $-1 -1 $-1 $376 $393 $378 $468 forward $265 $-1 #
coedge $-1 -1 $-1 $266 $274 $469 $470 forward $170 $-1 #
coedge $-1 -1 $-1 $471 $397 $266 $372 reversed $472 $-1 #
edge $-1 -1 $-1 $473 -3.1750000000000034 $280 9.5250000000000004 $266 $474 forward @7 unknown #
coedge $-1 -1 $-1 $268 $267 $392 $475 forward $105 $-1 #
coedge $-1 -1 $-1 $476 $395 $267 $375 forward $467 $-1 #
edge $-1 -1 $-1 $477 -12.699999999999999 $382 -6.3499999999999996 $267 $478 forward @7 unknown #
coedge $-1 -1 $-1 $393 $369 $268 $377 forward $265 $-1 #
edge $-1 -1 $-1 $381 6.3499999999999996 $479 12.699999999999999 $268 $480 forward @7 unknown #
coedge $-1 -1 $-1 $278 $269 $369 $468 reversed $380 $-1 #
coedge $-1 -1 $-1 $269 $278 $476 $481 reversed $380 $-1 #
loop $-1 -1 $-1 $-1 $379 $482 #
vertex $-1 -1 $-1 $377 $483 #
vertex $-1 -1 $-1 $270 $484 #
straight-curve $-1 -1 $-1 6.3500000000000014 10.998522628062375 -1.9049999999999998 0 0 1 I I #
coedge $-1 -1 $-1 $485 $469 $271 $385 reversed $486 $-1 #
edge $-1 -1 $-1 $388 -3.8099999999999996 $390 3.8099999999999996 $271 $487 forward @7 unknown #
coedge $-1 -1 $-1 $387 $272 $488 $489 forward $368 $-1 #
coedge $-1 -1 $-1 $272 $386 $485 $490 forward $368 $-1 #
vertex $-1 -1 $-1 $273 $491 #
straight-curve $-1 -1 $-1 12.699999999999999 0 3.8099999999999996 0 1 0 I I #
vertex $-1 -1 $-1 $385 $492 #
straight-curve $-1 -1 $-1 12.699999999999999 0 -3.8099999999999996 0 -1 0 I I #
coedge $-1 -1 $-1 $277 $276 $373 $475 reversed $279 $-1 #
coedge $-1 -1 $-1 $369 $376 $276 $394 forward $265 $-1 #
edge $-1 -1 $-1 $479 -10.998522628062375 $280 0 $276 $391 forward @7 unknown #
coedge $-1 -1 $-1 $374 $476 $277 $396 forward $467 $-1 #
edge $-1 -1 $-1 $281 0 $477 10.998522628062375 $277 $389 forward @7 unknown #
coedge $-1 -1 $-1 $371 $488 $107 $176 reversed $472 $-1 #
face $-1 -1 $-1 $493 $279 $30 $-1 $66 reversed single #
point $-1 -1 $-1 12.699999999999999 0 -3.8099999999999996 #
point $-1 -1 $-1 12.699999999999999 0 3.8099999999999996 #
face $-1 -1 $-1 $494 $495 $22 $-1 $171 reversed single #
loop $-1 -1 $-1 $-1 $288 $283 #
coedge $-1 -1 $-1 $285 $284 $421 $496 reversed $109 $-1 #
coedge $-1 -1 $-1 $294 $418 $284 $405 forward $419 $-1 #
edge $-1 -1 $-1 $497 -10.998522628062375 $301 0 $284 $498 forward @7 unknown #
coedge $-1 -1 $-1 $499 $500 $286 $407 forward $495 $-1 #
edge $-1 -1 $-1 $413 -3.1750000000000034 $301 9.5250000000000021 $406 $501 forward @7 unknown #
coedge $-1 -1 $-1 $502 $287 $291 $416 reversed $410 $-1 #
coedge $-1 -1 $-1 $287 $502 $499 $425 reversed $410 $-1 #
loop $-1 -1 $-1 $-1 $287 $503 #
coedge $-1 -1 $-1 $504 $288 $500 $505 reversed $402 $-1 #
coedge $-1 -1 $-1 $288 $504 $290 $415 reversed $402 $-1 #
vertex $-1 -1 $-1 $289 $506 #
straight-curve $-1 -1 $-1 -6.3499999999999979 10.998522628062375 -1.9049999999999998 0 0 -1 I I #
edge $-1 -1 $-1 $292 6.3499999999999979 $507 12.699999999999999 $412 $478 forward @7 unknown #
edge $-1 -1 $-1 $507 -10.998522628062375 $193 0 $408 $428 forward @7 unknown #
point $-1 -1 $-1 -6.3499999999999979 10.998522628062375 3.8099999999999996 #
coedge $-1 -1 $-1 $404 $294 $297 $422 forward $419 $-1 #
loop $-1 -1 $-1 $-1 $294 $494 #
straight-curve $-1 -1 $-1 -11.112500000000001 -2.7496306570155924 -3.8099999999999996 0.49999999999999983 -0.86602540378443882 0 I I #
coedge $-1 -1 $-1 $297 $296 $403 $496 forward $298 $-1 #
edge $-1 -1 $-1 $299 6.3499999999999979 $497 12.699999999999999 $297 $508 forward @7 unknown #
face $-1 -1 $-1 $503 $298 $22 $-1 $509 reversed single #
point $-1 -1 $-1 -6.3499999999999979 -10.998522628062375 -3.8099999999999996 #
edge $-1 -1 $-1 $301 0 $510 10.998522628062375 $409 $498 forward @7 unknown #
point $-1 -1 $-1 -12.699999999999999 0 -3.8099999999999996 #
vertex $-1 -1 $-1 $303 $511 #
straight-curve $-1 -1 $-1 -12.699999999999999 0 3.8099999999999996 0 -1 0 I I #
straight-curve $-1 -1 $-1 0 -10.998522628062375 3.8099999999999996 1 0 0 I I #
point $-1 -1 $-1 6.3499999999999996 0 0 #
model_id-kcp-attrib $-1 -1 $-1 $-1 $311 1 1021487950 1021487950 713293825 9 #
plane-surface $-1 -1 $-1 6.3499999999999996 10.998522628062375 0 0 1 0 -25.399999999999999 0 0 forward_v I I I I #
coedge $-1 -1 $-1 $316 $314 $318 $439 reversed $201 $-1 #
edge $512 -1 $-1 $328 0 $513 0.29999999999999999 $314 $514 forward @7 unknown #
attrib_edge_convexity-kcp-attrib $-1 -1 $515 $-1 $317 1 #
vertex $-1 -1 $-1 $439 $516 #
straight-curve $-1 -1 $-1 6.3499999999999996 -10.998522628062375 0 0 0 25.399999999999999 I I #
coedge $-1 -1 $-1 $449 $318 $446 $517 forward $125 $-1 #
edge $518 -1 $-1 $436 0 $513 0.50000000000000011 $318 $519 forward @7 unknown #
edge $-1 -1 $-1 $345 0 $442 0.50000000000000011 $319 $520 forward @7 unknown #
model_id-kcp-attrib $-1 -1 $521 $-1 $320 1 1021487950 1021487950 713293825 13 #
vertex $-1 -1 $-1 $440 $522 #
straight-curve $-1 -1 $-1 -6.3499999999999996 -10.998522628062375 7.6199999999999992 25.399999999999999 0 0 I I #
attrib_edge_convexity-kcp-attrib $-1 -1 $523 $-1 $324 1 #
straight-curve $-1 -1 $-1 6.3499999999999996 -10.998522628062375 0 12.699999999999996 21.997045256124746 0 I I #
coedge $-1 -1 $-1 $326 $325 $438 $517 reversed $312 $-1 #
convexity-sys-attrib $-1 -1 $-1 $327 $213 #
point $-1 -1 $-1 12.699999999999999 0 0 #
coedge $-1 -1 $-1 $343 $438 $330 $450 forward $125 $-1 #
edge $524 -1 $-1 $452 0 $347 0.5 $449 $525 forward @7 unknown #
attrib_edge_convexity-kcp-attrib $-1 -1 $526 $-1 $331 1 #
vertex $-1 -1 $-1 $450 $527 #
straight-curve $-1 -1 $-1 6.3499999999999996 10.998522628062375 0 0 0 25.399999999999999 I I #
convexity-sys-attrib $-1 -1 $-1 $335 $221 #
point $-1 -1 $-1 6.3499999999999996 -10.998522628062375 0 #
attrib_edge_convexity-kcp-attrib $-1 -1 $528 $-1 $339 1 #
straight-curve $-1 -1 $-1 -6.3499999999999996 -10.998522628062375 0 0 0 25.399999999999999 I I #
model_id-kcp-attrib $-1 -1 $-1 $-1 $340 1 1021487950 1021487950 713293825 11 #
plane-surface $-1 -1 $-1 -12.699999999999999 0 0 -0.86602540378443882 -0.49999999999999989 0 12.699999999999999 -21.99704525612475 0 forward_v I I I I #
straight-curve $-1 -1 $-1 -6.3499999999999996 10.998522628062375 7.6199999999999992 -12.699999999999996 -21.997045256124746 0 I I #
point $-1 -1 $-1 -12.699999999999999 0 7.6199999999999992 #
point $-1 -1 $-1 -6.3499999999999996 10.998522628062375 7.6199999999999992 #
straight-curve $-1 -1 $-1 -12.699999999999999 10.998522628062375 0 0 0 -1 I I #
point $-1 -1 $-1 -12.699999999999999 -10.998522628062375 -3.8099999999999996 #
straight-curve $-1 -1 $-1 -12.699999999999999 0 -3.8099999999999996 0 1 0 I I #
point $-1 -1 $-1 -12.699999999999999 10.998522628062375 -3.8099999999999996 #
loop $-1 -1 $-1 $-1 $476 $367 #
edge $-1 -1 $-1 $280 -3.1749999999999989 $381 9.5250000000000057 $369 $529 forward @7 unknown #
coedge $-1 -1 $-1 $384 $530 $370 $470 reversed $486 $-1 #
edge $-1 -1 $-1 $390 -12.699999999999999 $473 -6.3499999999999996 $469 $508 forward @7 unknown #
coedge $-1 -1 $-1 $488 $371 $530 $531 reversed $472 $-1 #
loop $-1 -1 $-1 $-1 $488 $532 #
vertex $-1 -1 $-1 $372 $533 #
straight-curve $-1 -1 $-1 7.9375000000000009 -8.2488919710467794 -3.8099999999999996 0.49999999999999983 0.86602540378443882 0 I I #
edge $-1 -1 $-1 $477 -3.8099999999999996 $479 3.8099999999999996 $392 $534 forward @7 unknown #
coedge $-1 -1 $-1 $395 $374 $379 $481 forward $467 $-1 #
vertex $-1 -1 $-1 $396 $535 #
straight-curve $-1 -1 $-1 0 10.998522628062375 3.8099999999999996 -1 0 0 I I #
vertex $-1 -1 $-1 $394 $536 #
straight-curve $-1 -1 $-1 0 10.998522628062375 -3.8099999999999996 1 0 0 I I #
edge $-1 -1 $-1 $382 -9.5250000000000057 $281 3.1749999999999989 $476 $537 forward @7 unknown #
face $-1 -1 $-1 $532 $380 $30 $-1 $538 reversed single #
point $-1 -1 $-1 6.3499999999999996 10.998522628062375 -3.8099999999999996 #
point $-1 -1 $-1 6.3499999999999996 10.998522628062375 3.8099999999999996 #
coedge $-1 -1 $-1 $530 $384 $387 $490 reversed $486 $-1 #
loop $-1 -1 $-1 $-1 $530 $493 #
straight-curve $-1 -1 $-1 12.699999999999999 -10.998522628062375 0 0 0 -1 I I #
coedge $-1 -1 $-1 $397 $471 $386 $489 reversed $472 $-1 #
edge $-1 -1 $-1 $281 -9.5250000000000004 $539 3.1750000000000034 $386 $540 forward @7 unknown #
edge $-1 -1 $-1 $539 6.3499999999999996 $388 12.699999999999999 $485 $429 forward @7 unknown #
point $-1 -1 $-1 12.699999999999999 -10.998522628062375 3.8099999999999996 #
point $-1 -1 $-1 12.699999999999999 -10.998522628062375 -3.8099999999999996 #
face $-1 -1 $-1 $482 $486 $30 $-1 $509 reversed single #
face $-1 -1 $-1 $423 $419 $22 $-1 $171 reversed single #
loop $-1 -1 $-1 $-1 $406 $401 #
edge $-1 -1 $-1 $427 -3.8099999999999996 $497 3.8099999999999996 $403 $541 forward @7 unknown #
vertex $-1 -1 $-1 $405 $542 #
straight-curve $-1 -1 $-1 -12.699999999999999 0 -3.8099999999999996 0 1 0 I I #
coedge $-1 -1 $-1 $500 $406 $409 $425 forward $495 $-1 #
coedge $-1 -1 $-1 $406 $499 $411 $505 forward $495 $-1 #
straight-curve $-1 -1 $-1 -7.9375 8.2488919710467794 -3.8099999999999996 -0.49999999999999983 -0.86602540378443882 0 I I #
coedge $-1 -1 $-1 $409 $408 $504 $543 forward $410 $-1 #
face $-1 -1 $-1 $-1 $410 $22 $-1 $110 reversed single #
coedge $-1 -1 $-1 $412 $411 $502 $543 reversed $402 $-1 #
edge $-1 -1 $-1 $510 -12.699999999999999 $413 -6.3499999999999979 $411 $480 forward @7 unknown #
point $-1 -1 $-1 -6.3499999999999979 10.998522628062375 -3.8099999999999996 #
vertex $-1 -1 $-1 $415 $544 #
straight-curve $-1 -1 $-1 0 -10.998522628062375 -3.8099999999999996 -1 0 0 I I #
plane-surface $-1 -1 $-1 0 -10.998522628062375 0 0 1 0 0 0 1 forward_v I I I I #
vertex $-1 -1 $-1 $505 $545 #
point $-1 -1 $-1 -12.699999999999999 -10.998522628062375 3.8099999999999996 #
attrib_edge_convexity-kcp-attrib $-1 -1 $546 $-1 $434 1 #
vertex $-1 -1 $-1 $517 $547 #
straight-curve $-1 -1 $-1 12.699999999999999 0 0 0 0 25.399999999999999 I I #
convexity-sys-attrib $-1 -1 $-1 $435 $317 #
point $-1 -1 $-1 6.3499999999999996 -10.998522628062375 7.6199999999999992 #
edge $548 -1 $-1 $513 0 $452 0.50000000000000011 $438 $549 forward @7 unknown #
attrib_edge_convexity-kcp-attrib $-1 -1 $550 $-1 $439 1 #
straight-curve $-1 -1 $-1 6.3499999999999996 -10.998522628062375 7.6199999999999992 12.699999999999996 21.997045256124746 0 I I #
straight-curve $-1 -1 $-1 -12.699999999999999 0 7.6199999999999992 12.699999999999996 -21.997045256124746 0 I I #
attrib_edge_convexity-kcp-attrib $-1 -1 $551 $441 $320 1 #
point $-1 -1 $-1 -6.3499999999999996 -10.998522628062375 7.6199999999999992 #
convexity-sys-attrib $-1 -1 $-1 $444 $324 #
model_id-kcp-attrib $-1 -1 $-1 $-1 $450 1 1021487950 1021487950 713293825 14 #
straight-curve $-1 -1 $-1 6.3499999999999996 10.998522628062375 7.6199999999999992 -25.399999999999999 0 0 I I #
convexity-sys-attrib $-1 -1 $-1 $451 $331 #
point $-1 -1 $-1 6.3499999999999996 10.998522628062375 7.6199999999999992 #
convexity-sys-attrib $-1 -1 $-1 $456 $339 #
straight-curve $-1 -1 $-1 11.112500000000001 2.7496306570155924 -3.8099999999999996 -0.49999999999999983 0.86602540378443882 0 I I #
coedge $-1 -1 $-1 $469 $485 $471 $531 forward $486 $-1 #
edge $-1 -1 $-1 $539 -5.7149999999999999 $473 1.9049999999999998 $530 $552 forward @7 unknown #
face $-1 -1 $-1 $-1 $472 $30 $-1 $553 reversed single #
point $-1 -1 $-1 6.3499999999999996 -10.998522628062375 -3.8099999999999996 #
straight-curve $-1 -1 $-1 12.699999999999999 10.998522628062375 0 0 0 -1 I I #
point $-1 -1 $-1 12.699999999999999 10.998522628062375 3.8099999999999996 #
point $-1 -1 $-1 12.699999999999999 10.998522628062375 -3.8099999999999996 #
straight-curve $-1 -1 $-1 11.112500000000001 2.7496306570155924 3.8099999999999992 0.49999999999999983 -0.86602540378443882 0 I I #
plane-surface $-1 -1 $-1 12.699999999999999 0 -3.8099999999999996 0.86602540378443882 0.49999999999999983 0 0 0 1 forward_v I I I I #
vertex $-1 -1 $-1 $490 $554 #
straight-curve $-1 -1 $-1 7.9375000000000009 -8.2488919710467794 3.8099999999999992 -0.49999999999999983 -0.86602540378443882 0 I I #
straight-curve $-1 -1 $-1 -12.699999999999999 -10.998522628062375 0 0 0 -1 I I #
point $-1 -1 $-1 -12.699999999999999 -10.998522628062375 -3.8099999999999996 #
edge $-1 -1 $-1 $507 -3.8099999999999996 $510 3.8099999999999996 $504 $555 forward @7 unknown #
point $-1 -1 $-1 -12.699999999999999 10.998522628062375 3.8099999999999996 #
point $-1 -1 $-1 -12.699999999999999 10.998522628062375 -3.8099999999999996 #
convexity-sys-attrib $-1 -1 $-1 $512 $434 #
point $-1 -1 $-1 12.699999999999999 0 7.6199999999999992 #
attrib_edge_convexity-kcp-attrib $-1 -1 $556 $-1 $517 1 #
straight-curve $-1 -1 $-1 12.699999999999999 0 7.6199999999999992 -12.699999999999996 21.997045256124746 0 I I #
convexity-sys-attrib $-1 -1 $-1 $518 $439 #
convexity-sys-attrib $-1 -1 $-1 $521 $320 #
straight-curve $-1 -1 $-1 6.3500000000000005 -10.998522628062375 -1.9049999999999998 0 0 -1 I I #
plane-surface $-1 -1 $-1 6.3499999999999996 -10.998522628062375 -3.8099999999999996 0.86602540378443882 -0.49999999999999983 0 0 0 1 forward_v I I I I #
point $-1 -1 $-1 6.3499999999999996 -10.998522628062375 3.8099999999999996 #
straight-curve $-1 -1 $-1 -12.699999999999999 10.998522628062375 0 0 0 -1 I I #
convexity-sys-attrib $-1 -1 $-1 $548 $517 #
End-of-ACIS-data 