700 0 2 0           
24 FBMach with ACIS - 7.0.3 13 ACIS 7.0.3 NT 24 Wed May 15 14:41:11 2002 
1 9.9999999999999995e-007 1e-010 
body $2 -1 $-1 $3 $-1 $4 #
bdycol-kcp $-1 -1 1 3 $5 $6 $7 #
model_id-kcp-attrib $-1 -1 $-1 $-1 $0 1 1021488071 1021488071 -885456895 1 #
lump $-1 -1 $-1 $-1 $8 $0 #
transform $-1 -1 1.0000000000000004 0 0 0 1.0000000000000004 0 0 0 1 -3.5527136788005009e-015 8.8817841970012523e-016 0 1 rotate no_reflect no_shear #
body $9 -1 $-1 $10 $-1 $11 #
body $12 -1 $-1 $13 $-1 $14 #
body $15 -1 $-1 $16 $-1 $17 #
shell $-1 -1 $-1 $-1 $-1 $18 $-1 $3 #
rgb_color-st-attrib $-1 -1 $19 $-1 $5 0.5 1 1 #
lump $-1 -1 $-1 $20 $21 $5 #
transform $-1 -1 1 0 0 0 1 0 0 0 1 0 0 2.5399999999999996 1 no_rotate no_reflect no_shear #
model_id-kcp-attrib $-1 -1 $-1 $-1 $6 1 1021488071 1021488071 -885456894 1 #
lump $-1 -1 $-1 $-1 $22 $6 #
transform $-1 -1 1 0 0 0 1 0 0 0 1 0 0 2.5399999999999996 1 no_rotate no_reflect no_shear #
rgb_color-st-attrib $-1 -1 $23 $-1 $7 0.5 1 1 #
lump $-1 -1 $-1 $-1 $24 $7 #
transform $-1 -1 1 0 0 0 1 0 0 0 1 0 0 0 1 no_rotate no_reflect no_shear #
face $25 -1 $-1 $26 $27 $8 $-1 $28 reversed single #
model_id-kcp-attrib $-1 -1 $-1 $9 $5 1 1021488071 1021488071 -888471549 1 #
lump $-1 -1 $-1 $-1 $29 $5 #
shell $-1 -1 $-1 $-1 $-1 $30 $-1 $10 #
shell $-1 -1 $-1 $-1 $-1 $31 $-1 $13 #
model_id-kcp-attrib $-1 -1 $-1 $15 $7 1 1021488071 1021488071 -878575612 1 #
shell $-1 -1 $-1 $-1 $-1 $32 $-1 $16 #
model_id-kcp-attrib $-1 -1 $-1 $-1 $18 1 1021488071 1021488071 -885456895 2 #
face $33 -1 $-1 $34 $35 $8 $-1 $36 reversed single #
loop $-1 -1 $-1 $37 $38 $18 #
plane-surface $-1 -1 $-1 0 0 0 0 0 1 25.399999999999999 0 0 forward_v I I I I #
shell $-1 -1 $-1 $-1 $-1 $39 $-1 $20 #
face $-1 -1 $-1 $40 $41 $21 $-1 $42 reversed single #
face $43 -1 $-1 $44 $45 $22 $-1 $46 forward single #
face $-1 -1 $-1 $47 $48 $24 $-1 $49 forward single #
model_id-kcp-attrib $-1 -1 $-1 $-1 $26 1 1021488071 1021488071 -885456895 3 #
face $50 -1 $-1 $51 $52 $8 $-1 $53 reversed single #
loop $-1 -1 $-1 $-1 $54 $26 #
cone-surface $-1 -1 $-1 0 0 0 0 0 1 9.5249999999999986 0 0 1 I I 0 1 9.5249999999999986 forward I I I I #
loop $-1 -1 $-1 $-1 $55 $18 #
coedge $-1 -1 $-1 $56 $56 $57 $58 reversed $27 $-1 #
face $-1 -1 $-1 $59 $60 $29 $-1 $61 reversed single #
face $-1 -1 $-1 $62 $63 $21 $-1 $64 reversed single #
loop $-1 -1 $-1 $-1 $65 $30 #
plane-surface $-1 -1 $-1 -16.509999999999998 0 -2.5399999999999996 -0.86602540378443882 -0.49999999999999983 0 0 0 -1 forward_v I I I I #
model_id-kcp-attrib $-1 -1 $-1 $-1 $31 1 1021488071 1021488071 -885456894 3 #
face $66 -1 $-1 $67 $68 $22 $-1 $69 reversed single #
loop $-1 -1 $-1 $-1 $70 $31 #
plane-surface $-1 -1 $-1 0 0 2.5399999999999996 0 0 1 1 0 0 forward_v I I I I #
face $-1 -1 $-1 $71 $72 $24 $-1 $73 forward single #
loop $-1 -1 $-1 $74 $75 $32 #
cone-surface $-1 -1 $-1 0 0 0 0 0 1 -9.5249999999999986 0 0 1 I I 0 1 9.5249999999999986 forward I I I I #
model_id-kcp-attrib $-1 -1 $-1 $-1 $34 1 1021488071 1021488071 -885456895 4 #
face $76 -1 $-1 $77 $78 $8 $-1 $79 forward single #
loop $-1 -1 $-1 $-1 $80 $34 #
cone-surface $-1 -1 $-1 0 0 0 0 0 1 9.5249999999999986 0 0 1 I I 0 1 9.5249999999999986 forward I I I I #
coedge $-1 -1 $-1 $81 $57 $82 $83 forward $35 $-1 #
coedge $-1 -1 $-1 $84 $85 $86 $87 reversed $37 $-1 #
coedge $-1 -1 $-1 $38 $38 $88 $89 reversed $27 $-1 #
coedge $-1 -1 $-1 $54 $90 $38 $58 forward $35 $-1 #
edge $91 -1 $-1 $92 0 $93 3.1415926535897931 $38 $94 forward @7 unknown #
face $-1 -1 $-1 $95 $96 $29 $-1 $97 reversed single #
loop $-1 -1 $-1 $-1 $98 $39 #
plane-surface $-1 -1 $-1 16.509999999999998 0 0 -1 0 0 0 0 1 forward_v I I I I #
face $-1 -1 $-1 $99 $100 $21 $-1 $101 reversed single #
loop $-1 -1 $-1 $-1 $102 $40 #
plane-surface $-1 -1 $-1 -8.254999999999999 14.298079416481087 -2.5399999999999996 -0.86602540378443882 0.49999999999999983 0 0 0 -1 forward_v I I I I #
coedge $-1 -1 $-1 $103 $104 $105 $106 reversed $41 $-1 #
model_id-kcp-attrib $-1 -1 $-1 $-1 $44 1 1021488071 1021488071 -885456894 2 #
face $107 -1 $-1 $108 $109 $22 $-1 $110 reversed single #
loop $-1 -1 $-1 $-1 $111 $44 #
plane-surface $-1 -1 $-1 0 0 -2.5399999999999996 0 0 1 1 0 0 forward_v I I I I #
coedge $-1 -1 $-1 $112 $113 $114 $115 forward $45 $-1 #
face $-1 -1 $-1 $-1 $116 $24 $-1 $117 reversed single #
loop $-1 -1 $-1 $-1 $118 $47 #
plane-surface $-1 -1 $-1 0 0 5.0799999999999992 0 0 1 1 0 0 forward_v I I I I #
loop $-1 -1 $-1 $-1 $119 $32 #
coedge $-1 -1 $-1 $75 $75 $118 $120 forward $48 $-1 #
model_id-kcp-attrib $-1 -1 $-1 $-1 $51 1 1021488071 1021488071 -885456895 5 #
face $121 -1 $-1 $122 $123 $8 $-1 $124 forward single #
loop $-1 -1 $-1 $125 $126 $51 #
plane-surface $-1 -1 $-1 0 0 5.0799999999999992 0 0 1 25.399999999999999 0 0 forward_v I I I I #
coedge $-1 -1 $-1 $127 $88 $90 $128 forward $52 $-1 #
coedge $-1 -1 $-1 $90 $54 $126 $129 reversed $35 $-1 #
coedge $-1 -1 $-1 $88 $127 $54 $83 reversed $52 $-1 #
edge $-1 -1 $-1 $93 0 $130 0.19999999999999998 $82 $131 forward @7 unknown #
coedge $-1 -1 $-1 $132 $55 $133 $134 reversed $37 $-1 #
coedge $-1 -1 $-1 $55 $135 $136 $137 reversed $37 $-1 #
coedge $-1 -1 $-1 $138 $139 $55 $87 forward $140 $-1 #
edge $141 -1 $-1 $142 0 $143 0.65000000000000024 $55 $144 forward @7 unknown #
coedge $-1 -1 $-1 $80 $82 $56 $89 forward $52 $-1 #
edge $145 -1 $-1 $93 0 $92 3.1415926535897931 $56 $146 forward @7 unknown #
coedge $-1 -1 $-1 $57 $81 $80 $128 reversed $35 $-1 #
attrib_edge_convexity-kcp-attrib $-1 -1 $147 $-1 $58 1 #
vertex $-1 -1 $-1 $89 $148 #
vertex $-1 -1 $-1 $89 $149 #
ellipse-curve $-1 -1 $-1 0 0 0 0 0 -1 -9.5249999999999986 0 0 1 I I #
face $-1 -1 $-1 $150 $151 $29 $-1 $152 reversed single #
loop $-1 -1 $-1 $-1 $153 $59 #
plane-surface $-1 -1 $-1 0 14.298079416481087 0 0 -1 0 0 0 -1 forward_v I I I I #
coedge $-1 -1 $-1 $154 $155 $156 $157 forward $60 $-1 #
face $-1 -1 $-1 $158 $159 $21 $-1 $160 forward single #
loop $-1 -1 $-1 $-1 $161 $62 #
plane-surface $-1 -1 $-1 -16.509999999999998 0 0 1 0 0 0 0 -1 forward_v I I I I #
coedge $-1 -1 $-1 $162 $163 $164 $165 reversed $63 $-1 #
coedge $-1 -1 $-1 $166 $65 $167 $168 reversed $41 $-1 #
coedge $-1 -1 $-1 $65 $166 $162 $169 forward $41 $-1 #
coedge $-1 -1 $-1 $170 $171 $65 $106 forward $172 $-1 #
edge $-1 -1 $-1 $173 -12.382500000000007 $174 4.1274999999999977 $105 $175 forward @7 unknown #
model_id-kcp-attrib $-1 -1 $-1 $-1 $67 1 1021488071 1021488071 -885456894 4 #
face $-1 -1 $-1 $176 $177 $22 $-1 $178 reversed single #
loop $-1 -1 $-1 $-1 $179 $67 #
plane-surface $-1 -1 $-1 0 -14.298079416481087 0 0 1 0 0 0 1 forward_v I I I I #
coedge $-1 -1 $-1 $180 $181 $182 $183 forward $68 $-1 #
coedge $-1 -1 $-1 $184 $70 $185 $186 forward $45 $-1 #
coedge $-1 -1 $-1 $70 $184 $187 $188 forward $45 $-1 #
coedge $-1 -1 $-1 $189 $190 $70 $115 reversed $191 $-1 #
edge $-1 -1 $-1 $192 -14.298079416481087 $193 14.298079416481087 $114 $194 forward @7 unknown #
loop $-1 -1 $-1 $-1 $195 $71 #
plane-surface $-1 -1 $-1 0 0 0 0 0 1 1 0 0 forward_v I I I I #
coedge $-1 -1 $-1 $118 $118 $75 $120 reversed $72 $-1 #
coedge $-1 -1 $-1 $119 $119 $195 $196 reversed $74 $-1 #
edge $-1 -1 $-1 $197 -3.1415926535897931 $197 3.1415926535897931 $75 $198 forward @7 unknown #
model_id-kcp-attrib $-1 -1 $-1 $-1 $77 1 1021488071 1021488071 -885456895 6 #
face $199 -1 $-1 $200 $201 $8 $-1 $202 forward single #
loop $-1 -1 $-1 $-1 $203 $77 #
plane-surface $-1 -1 $-1 -8.254999999999999 -14.298079416481087 0 0 -1 0 25.399999999999999 0 0 forward_v I I I I #
loop $-1 -1 $-1 $-1 $204 $51 #
coedge $-1 -1 $-1 $205 $205 $81 $129 forward $78 $-1 #
coedge $-1 -1 $-1 $82 $80 $205 $206 reversed $52 $-1 #
edge $-1 -1 $-1 $92 0 $207 0.19999999999999998 $80 $208 forward @7 unknown #
edge $-1 -1 $-1 $207 0 $130 3.1415926535897931 $126 $209 forward @7 unknown #
vertex $-1 -1 $-1 $206 $210 #
straight-curve $-1 -1 $-1 9.5249999999999986 0 0 0 -1.1664375520158143e-014 25.399999999999999 I I #
coedge $-1 -1 $-1 $211 $84 $212 $213 reversed $37 $-1 #
coedge $-1 -1 $-1 $214 $215 $84 $134 forward $216 $-1 #
edge $217 -1 $-1 $218 0 $142 0.64999999999999991 $84 $219 forward @7 unknown #
coedge $-1 -1 $-1 $85 $211 $220 $221 reversed $37 $-1 #
coedge $-1 -1 $-1 $222 $223 $85 $137 forward $224 $-1 #
edge $225 -1 $-1 $143 0 $226 0.65000000000000024 $85 $227 forward @7 unknown #
coedge $-1 -1 $-1 $228 $86 $223 $229 forward $140 $-1 #
coedge $-1 -1 $-1 $86 $228 $214 $230 reversed $140 $-1 #
loop $-1 -1 $-1 $-1 $138 $231 #
attrib_edge_convexity-kcp-attrib $-1 -1 $232 $-1 $87 1 #
vertex $-1 -1 $-1 $134 $233 #
vertex $-1 -1 $-1 $137 $234 #
straight-curve $-1 -1 $-1 -8.254999999999999 14.298079416481087 0 -12.699999999999996 -21.997045256124743 0 I I #
attrib_edge_convexity-kcp-attrib $-1 -1 $235 $-1 $89 1 #
ellipse-curve $-1 -1 $-1 0 0 0 0 0 -1 9.5249999999999986 0 0 1 I I #
convexity-sys-attrib $-1 -1 $-1 $91 $58 #
point $-1 -1 $-1 -9.5249999999999986 0 0 #
point $-1 -1 $-1 9.5249999999999986 0 0 #
face $-1 -1 $-1 $236 $237 $29 $-1 $152 reversed single #
loop $-1 -1 $-1 $-1 $238 $95 #
plane-surface $-1 -1 $-1 0 0 -2.5399999999999996 0 0 1 1 0 0 forward_v I I I I #
coedge $-1 -1 $-1 $239 $240 $241 $242 forward $96 $-1 #
coedge $-1 -1 $-1 $243 $98 $244 $245 reversed $60 $-1 #
coedge $-1 -1 $-1 $98 $243 $246 $247 reversed $60 $-1 #
coedge $-1 -1 $-1 $248 $249 $250 $157 reversed $251 $-1 #
edge $-1 -1 $-1 $252 -1.2699999999999998 $253 3.8099999999999996 $98 $254 forward @7 unknown #
face $-1 -1 $-1 $255 $172 $21 $-1 $160 forward single #
loop $-1 -1 $-1 $-1 $164 $99 #
plane-surface $-1 -1 $-1 0 0 2.5399999999999996 0 0 1 1 0 0 forward_v I I I I #
coedge $-1 -1 $-1 $256 $257 $104 $169 reversed $100 $-1 #
coedge $-1 -1 $-1 $258 $102 $259 $169 reversed $63 $-1 #
coedge $-1 -1 $-1 $102 $258 $260 $261 reversed $63 $-1 #
coedge $-1 -1 $-1 $262 $263 $102 $165 forward $159 $-1 #
edge $-1 -1 $-1 $174 -12.3825 $264 4.1275000000000039 $164 $265 forward @7 unknown #
coedge $-1 -1 $-1 $104 $103 $266 $267 reversed $41 $-1 #
coedge $-1 -1 $-1 $268 $269 $103 $168 forward $270 $-1 #
edge $-1 -1 $-1 $271 -1.2699999999999998 $173 3.8099999999999996 $167 $272 forward @7 unknown #
edge $-1 -1 $-1 $273 -1.2699999999999998 $174 3.8099999999999996 $259 $274 forward @7 unknown #
coedge $-1 -1 $-1 $171 $105 $257 $275 forward $172 $-1 #
coedge $-1 -1 $-1 $105 $170 $268 $276 forward $172 $-1 #
loop $-1 -1 $-1 $-1 $105 $158 #
vertex $-1 -1 $-1 $106 $277 #
vertex $-1 -1 $-1 $275 $278 #
straight-curve $-1 -1 $-1 -14.446250000000001 -3.5745198541202696 2.5399999999999991 -0.49999999999999983 0.86602540378443882 0 I I #
face $279 -1 $-1 $280 $281 $22 $-1 $282 reversed single #
loop $-1 -1 $-1 $-1 $283 $108 #
plane-surface $-1 -1 $-1 -16.509999999999998 0 0 1 0 0 0 0 -1 forward_v I I I I #
coedge $-1 -1 $-1 $284 $187 $285 $286 forward $109 $-1 #
coedge $-1 -1 $-1 $287 $111 $284 $288 forward $68 $-1 #
coedge $-1 -1 $-1 $111 $287 $289 $290 forward $68 $-1 #
coedge $-1 -1 $-1 $190 $189 $111 $183 reversed $191 $-1 #
edge $-1 -1 $-1 $291 -14.298079416481087 $292 14.298079416481087 $182 $293 forward @7 unknown #
coedge $-1 -1 $-1 $113 $112 $294 $295 forward $45 $-1 #
coedge $-1 -1 $-1 $296 $297 $112 $186 reversed $281 $-1 #
edge $-1 -1 $-1 $193 -16.509999999999998 $298 16.509999999999998 $185 $299 forward @7 unknown #
coedge $-1 -1 $-1 $179 $300 $113 $188 reversed $109 $-1 #
edge $-1 -1 $-1 $301 -16.509999999999998 $192 16.509999999999998 $187 $302 forward @7 unknown #
coedge $-1 -1 $-1 $182 $114 $300 $303 forward $191 $-1 #
coedge $-1 -1 $-1 $114 $182 $296 $304 reversed $191 $-1 #
loop $-1 -1 $-1 $-1 $189 $280 #
vertex $-1 -1 $-1 $115 $305 #
vertex $-1 -1 $-1 $115 $306 #
straight-curve $-1 -1 $-1 16.509999999999998 0 2.5399999999999996 0 1 0 I I #
coedge $-1 -1 $-1 $195 $195 $119 $196 forward $116 $-1 #
edge $-1 -1 $-1 $307 -3.1415926535897931 $307 3.1415926535897931 $119 $308 forward @7 unknown #
vertex $-1 -1 $-1 $120 $309 #
ellipse-curve $-1 -1 $-1 0 0 5.0799999999999992 0 0 -1 9.5249999999999986 0 0 1 I I #
model_id-kcp-attrib $-1 -1 $-1 $-1 $122 1 1021488071 1021488071 -885456895 7 #
face $310 -1 $-1 $311 $312 $8 $-1 $313 forward single #
loop $-1 -1 $-1 $-1 $314 $122 #
plane-surface $-1 -1 $-1 8.254999999999999 -14.298079416481087 0 0.86602540378443882 -0.49999999999999989 0 12.699999999999999 21.99704525612475 0 forward_v I I I I #
coedge $-1 -1 $-1 $315 $220 $316 $317 forward $123 $-1 #
coedge $-1 -1 $-1 $318 $319 $315 $320 forward $125 $-1 #
coedge $-1 -1 $-1 $126 $126 $127 $206 forward $78 $-1 #
edge $-1 -1 $-1 $130 0 $207 3.1415926535897931 $205 $321 forward @7 unknown #
vertex $-1 -1 $-1 $206 $322 #
straight-curve $-1 -1 $-1 -9.5249999999999986 1.1664375520158143e-015 0 0 0 25.399999999999999 I I #
ellipse-curve $-1 -1 $-1 7.0499162063697436e-016 3.5249581031848718e-016 5.0799999999999992 0 0 -1 -9.5249999999999986 -3.5249581031848718e-016 0 1 I I #
point $-1 -1 $-1 9.5249999999999986 0 5.0799999999999992 #
coedge $-1 -1 $-1 $135 $132 $323 $324 reversed $37 $-1 #
coedge $-1 -1 $-1 $325 $326 $132 $213 forward $312 $-1 #
edge $327 -1 $-1 $328 0 $218 0.65000000000000024 $132 $329 forward @7 unknown #
coedge $-1 -1 $-1 $330 $133 $139 $230 forward $216 $-1 #
coedge $-1 -1 $-1 $133 $330 $325 $331 reversed $216 $-1 #
loop $-1 -1 $-1 $-1 $214 $311 #
attrib_edge_convexity-kcp-attrib $-1 -1 $332 $-1 $134 1 #
vertex $-1 -1 $-1 $213 $333 #
straight-curve $-1 -1 $-1 8.254999999999999 14.298079416481087 0 -25.399999999999999 0 0 I I #
coedge $-1 -1 $-1 $203 $334 $135 $221 forward $123 $-1 #
edge $335 -1 $-1 $226 0 $336 0.64999999999999991 $135 $337 forward @7 unknown #
coedge $-1 -1 $-1 $338 $136 $334 $339 forward $224 $-1 #
coedge $-1 -1 $-1 $136 $338 $138 $229 reversed $224 $-1 #
loop $-1 -1 $-1 $-1 $222 $340 #
attrib_edge_convexity-kcp-attrib $-1 -1 $341 $-1 $137 1 #
vertex $-1 -1 $-1 $137 $342 #
straight-curve $-1 -1 $-1 -16.509999999999998 0 0 12.699999999999996 -21.997045256124743 0 I I #
coedge $-1 -1 $-1 $139 $138 $343 $344 reversed $140 $-1 #
edge $-1 -1 $-1 $143 0 $345 0.19999999999999998 $223 $346 forward @7 unknown #
edge $-1 -1 $-1 $142 0 $347 0.19999999999999998 $214 $348 forward @7 unknown #
face $349 -1 $-1 $340 $140 $8 $-1 $350 forward single #
convexity-sys-attrib $-1 -1 $-1 $141 $87 #
point $-1 -1 $-1 -8.254999999999999 14.298079416481087 0 #
point $-1 -1 $-1 -16.509999999999998 0 0 #
convexity-sys-attrib $-1 -1 $-1 $145 $89 #
face $-1 -1 $-1 $351 $352 $29 $-1 $160 forward single #
loop $-1 -1 $-1 $-1 $353 $150 #
coedge $-1 -1 $-1 $246 $354 $355 $356 forward $151 $-1 #
coedge $-1 -1 $-1 $357 $153 $358 $359 reversed $96 $-1 #
coedge $-1 -1 $-1 $153 $357 $360 $361 reversed $96 $-1 #
coedge $-1 -1 $-1 $362 $363 $153 $242 reversed $364 $-1 #
edge $-1 -1 $-1 $365 -1.2699999999999998 $366 3.8099999999999996 $153 $367 forward @7 unknown #
coedge $-1 -1 $-1 $155 $154 $368 $369 forward $60 $-1 #
coedge $-1 -1 $-1 $370 $371 $154 $245 forward $352 $-1 #
edge $-1 -1 $-1 $372 -14.298079416481087 $253 0 $154 $373 forward @7 unknown #
coedge $-1 -1 $-1 $354 $238 $155 $247 forward $151 $-1 #
edge $-1 -1 $-1 $252 0 $374 14.298079416481087 $155 $375 forward @7 unknown #
coedge $-1 -1 $-1 $376 $156 $377 $378 reversed $251 $-1 #
coedge $-1 -1 $-1 $156 $376 $379 $380 reversed $251 $-1 #
coedge $-1 -1 $-1 $363 $362 $381 $157 forward $364 $-1 #
loop $-1 -1 $-1 $-1 $156 $382 #
vertex $-1 -1 $-1 $247 $383 #
vertex $-1 -1 $-1 $380 $384 #
straight-curve $-1 -1 $-1 16.509999999999998 -8.8817841970012523e-016 -1.2699999999999998 0 0 1 I I #
face $-1 -1 $-1 $385 $386 $21 $-1 $97 reversed single #
coedge $-1 -1 $-1 $387 $161 $388 $389 reversed $100 $-1 #
coedge $-1 -1 $-1 $161 $387 $170 $275 reversed $100 $-1 #
coedge $-1 -1 $-1 $163 $162 $390 $391 reversed $63 $-1 #
coedge $-1 -1 $-1 $392 $393 $161 $169 forward $394 $-1 #
coedge $-1 -1 $-1 $395 $396 $163 $261 forward $386 $-1 #
edge $-1 -1 $-1 $264 -3.8099999999999996 $397 1.2699999999999998 $260 $398 forward @7 unknown #
coedge $-1 -1 $-1 $263 $164 $396 $399 forward $159 $-1 #
coedge $-1 -1 $-1 $164 $262 $392 $400 forward $159 $-1 #
vertex $-1 -1 $-1 $399 $401 #
straight-curve $-1 -1 $-1 -10.318750000000001 10.723559562360814 2.5399999999999991 0.49999999999999983 0.86602540378443882 0 I I #
coedge $-1 -1 $-1 $402 $388 $166 $267 forward $403 $-1 #
edge $-1 -1 $-1 $273 -4.1274999999999977 $271 12.382500000000007 $266 $404 forward @7 unknown #
coedge $-1 -1 $-1 $405 $167 $171 $276 reversed $270 $-1 #
coedge $-1 -1 $-1 $167 $405 $402 $406 reversed $270 $-1 #
loop $-1 -1 $-1 $-1 $167 $407 #
vertex $-1 -1 $-1 $406 $408 #
straight-curve $-1 -1 $-1 -8.2550000000000008 -14.298079416481087 -1.2699999999999998 0 0 1 I I #
vertex $-1 -1 $-1 $409 $410 #
straight-curve $-1 -1 $-1 -16.509999999999998 8.8817841970012523e-016 -1.2699999999999998 0 0 1 I I #
edge $-1 -1 $-1 $174 0 $411 14.298079416481087 $257 $412 forward @7 unknown #
edge $-1 -1 $-1 $411 -16.509999999999998 $173 -8.254999999999999 $268 $413 forward @7 unknown #
point $-1 -1 $-1 -8.254999999999999 -14.298079416481087 2.5399999999999996 #
point $-1 -1 $-1 -16.509999999999998 0 2.5399999999999996 #
model_id-kcp-attrib $-1 -1 $-1 $-1 $176 1 1021488071 1021488071 -885456894 5 #
face $-1 -1 $-1 $-1 $191 $22 $-1 $414 reversed single #
loop $-1 -1 $-1 $-1 $296 $176 #
plane-surface $-1 -1 $-1 0 14.298079416481087 0 0 -1 0 0 0 -1 forward_v I I I I #
coedge $-1 -1 $-1 $415 $294 $297 $416 forward $177 $-1 #
coedge $-1 -1 $-1 $300 $179 $180 $288 reversed $109 $-1 #
coedge $-1 -1 $-1 $294 $415 $179 $286 reversed $177 $-1 #
edge $-1 -1 $-1 $301 -2.5399999999999996 $417 2.5399999999999996 $285 $418 forward @7 unknown #
coedge $-1 -1 $-1 $181 $180 $415 $419 forward $68 $-1 #
edge $-1 -1 $-1 $292 -16.509999999999998 $417 16.509999999999998 $284 $420 forward @7 unknown #
coedge $-1 -1 $-1 $297 $296 $181 $290 reversed $281 $-1 #
edge $-1 -1 $-1 $421 -16.509999999999998 $291 16.509999999999998 $289 $422 forward @7 unknown #
vertex $-1 -1 $-1 $183 $423 #
vertex $-1 -1 $-1 $303 $424 #
straight-curve $-1 -1 $-1 16.509999999999998 0 -2.5399999999999996 0 -1 0 I I #
coedge $-1 -1 $-1 $283 $285 $184 $295 reversed $177 $-1 #
edge $-1 -1 $-1 $298 -14.298079416481087 $301 14.298079416481087 $294 $425 forward @7 unknown #
coedge $-1 -1 $-1 $289 $185 $190 $304 forward $281 $-1 #
coedge $-1 -1 $-1 $185 $289 $283 $416 reversed $281 $-1 #
vertex $-1 -1 $-1 $186 $426 #
straight-curve $-1 -1 $-1 0 14.298079416481087 2.5399999999999996 -1 0 0 I I #
coedge $-1 -1 $-1 $187 $284 $189 $303 reversed $109 $-1 #
vertex $-1 -1 $-1 $295 $427 #
straight-curve $-1 -1 $-1 0 -14.298079416481087 2.5399999999999996 1 0 0 I I #
edge $-1 -1 $-1 $192 -2.5399999999999996 $292 2.5399999999999996 $189 $428 forward @7 unknown #
edge $-1 -1 $-1 $193 -2.5399999999999996 $291 2.5399999999999996 $190 $429 forward @7 unknown #
point $-1 -1 $-1 16.509999999999998 -14.298079416481087 2.5399999999999996 #
point $-1 -1 $-1 16.509999999999998 14.298079416481087 2.5399999999999996 #
vertex $-1 -1 $-1 $196 $430 #
ellipse-curve $-1 -1 $-1 0 0 0 0 0 -1 -9.5249999999999986 0 0 1 I I #
point $-1 -1 $-1 -9.5249999999999986 0 5.0799999999999992 #
model_id-kcp-attrib $-1 -1 $-1 $-1 $200 1 1021488071 1021488071 -885456895 8 #
face $431 -1 $-1 $231 $216 $8 $-1 $432 forward single #
loop $-1 -1 $-1 $-1 $325 $200 #
plane-surface $-1 -1 $-1 16.509999999999998 0 0 0.86602540378443882 0.49999999999999989 0 -12.699999999999999 21.99704525612475 0 forward_v I I I I #
coedge $-1 -1 $-1 $433 $323 $326 $434 forward $201 $-1 #
coedge $-1 -1 $-1 $334 $203 $204 $320 reversed $123 $-1 #
coedge $-1 -1 $-1 $323 $433 $203 $317 reversed $201 $-1 #
edge $435 -1 $-1 $336 0 $436 0.19999999999999998 $203 $437 forward @7 unknown #
coedge $-1 -1 $-1 $438 $204 $433 $439 forward $125 $-1 #
coedge $-1 -1 $-1 $204 $343 $338 $440 forward $125 $-1 #
edge $441 -1 $-1 $442 0 $436 0.64999999999999991 $204 $443 forward @7 unknown #
ellipse-curve $-1 -1 $-1 7.0499162063697436e-016 -7.0499162063697436e-016 5.0799999999999992 0 0 -1 9.5249999999999986 7.0499162063697436e-016 0 1 I I #
point $-1 -1 $-1 -9.5249999999999986 0 5.0799999999999992 #
coedge $-1 -1 $-1 $314 $316 $211 $324 forward $201 $-1 #
edge $444 -1 $-1 $336 0 $328 0.65000000000000024 $211 $445 forward @7 unknown #
coedge $-1 -1 $-1 $446 $212 $215 $331 forward $312 $-1 #
coedge $-1 -1 $-1 $212 $446 $314 $434 reversed $312 $-1 #
attrib_edge_convexity-kcp-attrib $-1 -1 $447 $-1 $213 1 #
vertex $-1 -1 $-1 $324 $448 #
straight-curve $-1 -1 $-1 16.509999999999998 0 0 -12.699999999999996 21.997045256124743 0 I I #
coedge $-1 -1 $-1 $215 $214 $449 $450 reversed $216 $-1 #
edge $451 -1 $-1 $218 0 $452 0.19999999999999998 $325 $453 forward @7 unknown #
convexity-sys-attrib $-1 -1 $-1 $217 $134 #
point $-1 -1 $-1 8.254999999999999 14.298079416481087 0 #
coedge $-1 -1 $-1 $220 $315 $222 $339 reversed $123 $-1 #
attrib_edge_convexity-kcp-attrib $-1 -1 $454 $-1 $221 1 #
vertex $-1 -1 $-1 $221 $455 #
straight-curve $-1 -1 $-1 -8.254999999999999 -14.298079416481087 0 25.399999999999999 0 0 I I #
coedge $-1 -1 $-1 $223 $222 $319 $440 reversed $224 $-1 #
edge $456 -1 $-1 $226 0 $442 0.19999999999999998 $222 $457 forward @7 unknown #
face $458 -1 $-1 $-1 $224 $8 $-1 $459 forward single #
convexity-sys-attrib $-1 -1 $-1 $225 $137 #
point $-1 -1 $-1 -8.254999999999999 -14.298079416481087 0 #
coedge $-1 -1 $-1 $319 $449 $228 $344 forward $125 $-1 #
edge $-1 -1 $-1 $347 0 $345 0.65000000000000024 $343 $460 forward @7 unknown #
vertex $-1 -1 $-1 $440 $461 #
straight-curve $-1 -1 $-1 -16.509999999999998 2.8199664825478975e-015 0 0 0 25.399999999999999 I I #
vertex $-1 -1 $-1 $344 $462 #
straight-curve $-1 -1 $-1 -8.254999999999999 14.298079416481087 0 0 0 25.399999999999999 I I #
model_id-kcp-attrib $-1 -1 $-1 $-1 $231 1 1021488071 1021488071 -885456895 10 #
plane-surface $-1 -1 $-1 -8.254999999999999 14.298079416481087 0 -0.86602540378443882 0.49999999999999989 0 -12.699999999999999 -21.99704525612475 0 forward_v I I I I #
face $-1 -1 $-1 $382 $463 $29 $-1 $160 forward single #
loop $-1 -1 $-1 $-1 $370 $236 #
coedge $-1 -1 $-1 $360 $377 $362 $464 forward $237 $-1 #
coedge $-1 -1 $-1 $238 $246 $465 $466 forward $151 $-1 #
coedge $-1 -1 $-1 $467 $381 $238 $356 reversed $468 $-1 #
edge $-1 -1 $-1 $469 -4.1275000000000039 $252 12.3825 $238 $470 forward @7 unknown #
coedge $-1 -1 $-1 $240 $239 $376 $471 forward $96 $-1 #
coedge $-1 -1 $-1 $472 $379 $239 $359 forward $463 $-1 #
edge $-1 -1 $-1 $473 -16.509999999999998 $366 -8.254999999999999 $239 $474 forward @7 unknown #
coedge $-1 -1 $-1 $377 $353 $240 $361 forward $237 $-1 #
edge $-1 -1 $-1 $365 8.254999999999999 $475 16.509999999999998 $240 $476 forward @7 unknown #
coedge $-1 -1 $-1 $250 $241 $353 $464 reversed $364 $-1 #
coedge $-1 -1 $-1 $241 $250 $472 $477 reversed $364 $-1 #
loop $-1 -1 $-1 $-1 $363 $478 #
vertex $-1 -1 $-1 $361 $479 #
vertex $-1 -1 $-1 $242 $480 #
straight-curve $-1 -1 $-1 8.2550000000000008 14.298079416481087 -1.2699999999999998 0 0 1 I I #
coedge $-1 -1 $-1 $481 $465 $243 $369 reversed $482 $-1 #
edge $-1 -1 $-1 $372 -2.5399999999999996 $374 2.5399999999999996 $243 $483 forward @7 unknown #
coedge $-1 -1 $-1 $371 $244 $484 $485 forward $352 $-1 #
coedge $-1 -1 $-1 $244 $370 $481 $486 forward $352 $-1 #
vertex $-1 -1 $-1 $245 $487 #
straight-curve $-1 -1 $-1 16.509999999999998 0 2.5399999999999996 0 1 0 I I #
vertex $-1 -1 $-1 $369 $488 #
straight-curve $-1 -1 $-1 16.509999999999998 0 -2.5399999999999996 0 -1 0 I I #
coedge $-1 -1 $-1 $249 $248 $357 $471 reversed $251 $-1 #
coedge $-1 -1 $-1 $353 $360 $248 $378 forward $237 $-1 #
edge $-1 -1 $-1 $475 -14.298079416481087 $252 0 $248 $375 forward @7 unknown #
coedge $-1 -1 $-1 $358 $472 $249 $380 forward $463 $-1 #
edge $-1 -1 $-1 $253 0 $473 14.298079416481087 $249 $373 forward @7 unknown #
coedge $-1 -1 $-1 $355 $484 $98 $157 reversed $468 $-1 #
face $-1 -1 $-1 $489 $251 $29 $-1 $61 reversed single #
point $-1 -1 $-1 16.509999999999998 0 -2.5399999999999996 #
point $-1 -1 $-1 16.509999999999998 0 2.5399999999999996 #
face $-1 -1 $-1 $490 $491 $21 $-1 $152 reversed single #
loop $-1 -1 $-1 $-1 $260 $255 #
coedge $-1 -1 $-1 $257 $256 $405 $492 reversed $100 $-1 #
coedge $-1 -1 $-1 $266 $402 $256 $389 forward $403 $-1 #
edge $-1 -1 $-1 $493 -14.298079416481087 $273 0 $256 $494 forward @7 unknown #
coedge $-1 -1 $-1 $495 $496 $258 $391 forward $491 $-1 #
edge $-1 -1 $-1 $397 -4.1275000000000039 $273 12.3825 $390 $497 forward @7 unknown #
coedge $-1 -1 $-1 $498 $259 $263 $400 reversed $394 $-1 #
coedge $-1 -1 $-1 $259 $498 $495 $409 reversed $394 $-1 #
loop $-1 -1 $-1 $-1 $259 $499 #
coedge $-1 -1 $-1 $500 $260 $496 $501 reversed $386 $-1 #
coedge $-1 -1 $-1 $260 $500 $262 $399 reversed $386 $-1 #
vertex $-1 -1 $-1 $261 $502 #
straight-curve $-1 -1 $-1 -8.254999999999999 14.298079416481087 -1.2699999999999998 0 0 -1 I I #
edge $-1 -1 $-1 $264 8.254999999999999 $503 16.509999999999998 $396 $474 forward @7 unknown #
edge $-1 -1 $-1 $503 -14.298079416481087 $174 0 $392 $412 forward @7 unknown #
point $-1 -1 $-1 -8.254999999999999 14.298079416481087 2.5399999999999996 #
coedge $-1 -1 $-1 $388 $266 $269 $406 forward $403 $-1 #
loop $-1 -1 $-1 $-1 $266 $490 #
straight-curve $-1 -1 $-1 -14.446250000000001 -3.5745198541202696 -2.5399999999999996 0.49999999999999983 -0.86602540378443882 0 I I #
coedge $-1 -1 $-1 $269 $268 $387 $492 forward $270 $-1 #
edge $-1 -1 $-1 $271 8.254999999999999 $493 16.509999999999998 $269 $504 forward @7 unknown #
face $-1 -1 $-1 $499 $270 $21 $-1 $505 reversed single #
point $-1 -1 $-1 -8.254999999999999 -14.298079416481087 -2.5399999999999996 #
edge $-1 -1 $-1 $273 0 $506 14.298079416481087 $393 $494 forward @7 unknown #
point $-1 -1 $-1 -16.509999999999998 0 -2.5399999999999996 #
vertex $-1 -1 $-1 $275 $507 #
straight-curve $-1 -1 $-1 -16.509999999999998 0 2.5399999999999996 0 -1 0 I I #
straight-curve $-1 -1 $-1 0 -14.298079416481087 2.5399999999999996 1 0 0 I I #
plane-surface $-1 -1 $-1 16.509999999999998 0 0 -1 0 0 0 0 1 forward_v I I I I #
coedge $-1 -1 $-1 $285 $283 $287 $419 reversed $177 $-1 #
edge $-1 -1 $-1 $298 -2.5399999999999996 $421 2.5399999999999996 $297 $508 forward @7 unknown #
vertex $-1 -1 $-1 $419 $509 #
straight-curve $-1 -1 $-1 -16.509999999999998 -14.298079416481087 0 0 0 -1 I I #
edge $-1 -1 $-1 $417 -14.298079416481087 $421 14.298079416481087 $415 $510 forward @7 unknown #
straight-curve $-1 -1 $-1 0 -14.298079416481087 -2.5399999999999996 -1 0 0 I I #
vertex $-1 -1 $-1 $290 $511 #
straight-curve $-1 -1 $-1 0 14.298079416481087 -2.5399999999999996 1 0 0 I I #
point $-1 -1 $-1 16.509999999999998 14.298079416481087 -2.5399999999999996 #
point $-1 -1 $-1 16.509999999999998 -14.298079416481087 -2.5399999999999996 #
straight-curve $-1 -1 $-1 -16.509999999999998 0 2.5399999999999996 0 -1 0 I I #
point $-1 -1 $-1 -16.509999999999998 14.298079416481087 2.5399999999999996 #
point $-1 -1 $-1 -16.509999999999998 -14.298079416481087 2.5399999999999996 #
straight-curve $-1 -1 $-1 16.509999999999998 -14.298079416481087 0 0 0 -1 I I #
straight-curve $-1 -1 $-1 16.509999999999998 14.298079416481087 0 0 0 -1 I I #
point $-1 -1 $-1 9.5249999999999986 0 0 #
model_id-kcp-attrib $-1 -1 $-1 $-1 $311 1 1021488071 1021488071 -885456895 9 #
plane-surface $-1 -1 $-1 8.254999999999999 14.298079416481087 0 0 1 0 -25.399999999999999 0 0 forward_v I I I I #
coedge $-1 -1 $-1 $316 $314 $318 $439 reversed $201 $-1 #
edge $512 -1 $-1 $328 0 $513 0.19999999999999998 $314 $514 forward @7 unknown #
attrib_edge_convexity-kcp-attrib $-1 -1 $515 $-1 $317 1 #
vertex $-1 -1 $-1 $439 $516 #
straight-curve $-1 -1 $-1 8.254999999999999 -14.298079416481087 0 0 0 25.399999999999999 I I #
coedge $-1 -1 $-1 $449 $318 $446 $517 forward $125 $-1 #
edge $518 -1 $-1 $436 0 $513 0.65000000000000024 $318 $519 forward @7 unknown #
edge $-1 -1 $-1 $345 0 $442 0.65000000000000024 $319 $520 forward @7 unknown #
model_id-kcp-attrib $-1 -1 $521 $-1 $320 1 1021488071 1021488071 -885456895 13 #
vertex $-1 -1 $-1 $440 $522 #
straight-curve $-1 -1 $-1 -8.254999999999999 -14.298079416481087 5.0799999999999992 25.399999999999999 0 0 I I #
attrib_edge_convexity-kcp-attrib $-1 -1 $523 $-1 $324 1 #
straight-curve $-1 -1 $-1 8.254999999999999 -14.298079416481087 0 12.699999999999996 21.997045256124743 0 I I #
coedge $-1 -1 $-1 $326 $325 $438 $517 reversed $312 $-1 #
convexity-sys-attrib $-1 -1 $-1 $327 $213 #
point $-1 -1 $-1 16.509999999999998 0 0 #
coedge $-1 -1 $-1 $343 $438 $330 $450 forward $125 $-1 #
edge $524 -1 $-1 $452 0 $347 0.64999999999999991 $449 $525 forward @7 unknown #
attrib_edge_convexity-kcp-attrib $-1 -1 $526 $-1 $331 1 #
vertex $-1 -1 $-1 $450 $527 #
straight-curve $-1 -1 $-1 8.254999999999999 14.298079416481086 0 0 0 25.399999999999999 I I #
convexity-sys-attrib $-1 -1 $-1 $335 $221 #
point $-1 -1 $-1 8.254999999999999 -14.298079416481087 0 #
attrib_edge_convexity-kcp-attrib $-1 -1 $528 $-1 $339 1 #
straight-curve $-1 -1 $-1 -8.254999999999999 -14.298079416481086 0 0 0 25.399999999999999 I I #
model_id-kcp-attrib $-1 -1 $-1 $-1 $340 1 1021488071 1021488071 -885456895 11 #
plane-surface $-1 -1 $-1 -16.509999999999998 0 0 -0.86602540378443882 -0.49999999999999989 0 12.699999999999999 -21.99704525612475 0 forward_v I I I I #
straight-curve $-1 -1 $-1 -8.254999999999999 14.298079416481087 5.0799999999999992 -12.699999999999996 -21.997045256124743 0 I I #
point $-1 -1 $-1 -16.509999999999998 0 5.0799999999999992 #
point $-1 -1 $-1 -8.254999999999999 14.298079416481087 5.0799999999999992 #
loop $-1 -1 $-1 $-1 $472 $351 #
edge $-1 -1 $-1 $252 -4.1274999999999977 $365 12.382500000000007 $353 $529 forward @7 unknown #
coedge $-1 -1 $-1 $368 $530 $354 $466 reversed $482 $-1 #
edge $-1 -1 $-1 $374 -16.509999999999998 $469 -8.254999999999999 $465 $504 forward @7 unknown #
coedge $-1 -1 $-1 $484 $355 $530 $531 reversed $468 $-1 #
loop $-1 -1 $-1 $-1 $484 $532 #
vertex $-1 -1 $-1 $356 $533 #
straight-curve $-1 -1 $-1 10.318750000000001 -10.723559562360814 -2.5399999999999996 0.49999999999999983 0.86602540378443882 0 I I #
edge $-1 -1 $-1 $473 -2.5399999999999996 $475 2.5399999999999996 $376 $534 forward @7 unknown #
coedge $-1 -1 $-1 $379 $358 $363 $477 forward $463 $-1 #
vertex $-1 -1 $-1 $380 $535 #
straight-curve $-1 -1 $-1 0 14.298079416481087 2.5399999999999996 -1 0 0 I I #
vertex $-1 -1 $-1 $378 $536 #
straight-curve $-1 -1 $-1 0 14.298079416481087 -2.5399999999999996 1 0 0 I I #
edge $-1 -1 $-1 $366 -12.382500000000007 $253 4.1274999999999977 $472 $537 forward @7 unknown #
face $-1 -1 $-1 $532 $364 $29 $-1 $538 reversed single #
point $-1 -1 $-1 8.254999999999999 14.298079416481087 -2.5399999999999996 #
point $-1 -1 $-1 8.254999999999999 14.298079416481087 2.5399999999999996 #
coedge $-1 -1 $-1 $530 $368 $371 $486 reversed $482 $-1 #
loop $-1 -1 $-1 $-1 $530 $489 #
straight-curve $-1 -1 $-1 16.509999999999998 -14.298079416481087 0 0 0 -1 I I #
coedge $-1 -1 $-1 $381 $467 $370 $485 reversed $468 $-1 #
edge $-1 -1 $-1 $253 -12.3825 $539 4.1275000000000039 $370 $540 forward @7 unknown #
edge $-1 -1 $-1 $539 8.254999999999999 $372 16.509999999999998 $481 $413 forward @7 unknown #
point $-1 -1 $-1 16.509999999999998 -14.298079416481087 2.5399999999999996 #
point $-1 -1 $-1 16.509999999999998 -14.298079416481087 -2.5399999999999996 #
face $-1 -1 $-1 $478 $482 $29 $-1 $505 reversed single #
face $-1 -1 $-1 $407 $403 $21 $-1 $152 reversed single #
loop $-1 -1 $-1 $-1 $390 $385 #
edge $-1 -1 $-1 $411 -2.5399999999999996 $493 2.5399999999999996 $387 $541 forward @7 unknown #
vertex $-1 -1 $-1 $389 $542 #
straight-curve $-1 -1 $-1 -16.509999999999998 0 -2.5399999999999996 0 1 0 I I #
coedge $-1 -1 $-1 $496 $390 $393 $409 forward $491 $-1 #
coedge $-1 -1 $-1 $390 $495 $395 $501 forward $491 $-1 #
straight-curve $-1 -1 $-1 -10.318750000000001 10.723559562360814 -2.5399999999999996 -0.49999999999999983 -0.86602540378443882 0 I I #
coedge $-1 -1 $-1 $393 $392 $500 $543 forward $394 $-1 #
face $-1 -1 $-1 $-1 $394 $21 $-1 $101 reversed single #
coedge $-1 -1 $-1 $396 $395 $498 $543 reversed $386 $-1 #
edge $-1 -1 $-1 $506 -16.509999999999998 $397 -8.254999999999999 $395 $476 forward @7 unknown #
point $-1 -1 $-1 -8.254999999999999 14.298079416481087 -2.5399999999999996 #
vertex $-1 -1 $-1 $399 $544 #
straight-curve $-1 -1 $-1 0 -14.298079416481087 -2.5399999999999996 -1 0 0 I I #
plane-surface $-1 -1 $-1 0 -14.298079416481087 0 0 1 0 0 0 1 forward_v I I I I #
vertex $-1 -1 $-1 $501 $545 #
point $-1 -1 $-1 -16.509999999999998 -14.298079416481087 2.5399999999999996 #
straight-curve $-1 -1 $-1 -16.509999999999998 14.298079416481087 0 0 0 -1 I I #
point $-1 -1 $-1 -16.509999999999998 -14.298079416481087 -2.5399999999999996 #
straight-curve $-1 -1 $-1 -16.509999999999998 0 -2.5399999999999996 0 1 0 I I #
point $-1 -1 $-1 -16.509999999999998 14.298079416481087 -2.5399999999999996 #
attrib_edge_convexity-kcp-attrib $-1 -1 $546 $-1 $434 1 #
vertex $-1 -1 $-1 $517 $547 #
straight-curve $-1 -1 $-1 16.509999999999998 -2.8199664825478975e-015 0 0 0 25.399999999999999 I I #
convexity-sys-attrib $-1 -1 $-1 $435 $317 #
point $-1 -1 $-1 8.254999999999999 -14.298079416481087 5.0799999999999992 #
edge $548 -1 $-1 $513 0 $452 0.65000000000000024 $438 $549 forward @7 unknown #
attrib_edge_convexity-kcp-attrib $-1 -1 $550 $-1 $439 1 #
straight-curve $-1 -1 $-1 8.254999999999999 -14.298079416481087 5.0799999999999992 12.699999999999996 21.997045256124743 0 I I #
straight-curve $-1 -1 $-1 -16.509999999999998 0 5.0799999999999992 12.699999999999996 -21.997045256124743 0 I I #
attrib_edge_convexity-kcp-attrib $-1 -1 $551 $441 $320 1 #
point $-1 -1 $-1 -8.254999999999999 -14.298079416481087 5.0799999999999992 #
convexity-sys-attrib $-1 -1 $-1 $444 $324 #
model_id-kcp-attrib $-1 -1 $-1 $-1 $450 1 1021488071 1021488071 -885456895 14 #
straight-curve $-1 -1 $-1 8.254999999999999 14.298079416481087 5.0799999999999992 -25.399999999999999 0 0 I I #
convexity-sys-attrib $-1 -1 $-1 $451 $331 #
point $-1 -1 $-1 8.254999999999999 14.298079416481087 5.0799999999999992 #
convexity-sys-attrib $-1 -1 $-1 $456 $339 #
straight-curve $-1 -1 $-1 14.446250000000001 3.5745198541202696 -2.5399999999999996 -0.49999999999999983 0.86602540378443882 0 I I #
coedge $-1 -1 $-1 $465 $481 $467 $531 forward $482 $-1 #
edge $-1 -1 $-1 $539 -3.8099999999999996 $469 1.2699999999999998 $530 $552 forward @7 unknown #
face $-1 -1 $-1 $-1 $468 $29 $-1 $553 reversed single #
point $-1 -1 $-1 8.254999999999999 -14.298079416481087 -2.5399999999999996 #
straight-curve $-1 -1 $-1 16.509999999999998 14.298079416481087 0 0 0 -1 I I #
point $-1 -1 $-1 16.509999999999998 14.298079416481087 2.5399999999999996 #
point $-1 -1 $-1 16.509999999999998 14.298079416481087 -2.5399999999999996 #
straight-curve $-1 -1 $-1 14.446250000000001 3.5745198541202696 2.5399999999999991 0.49999999999999983 -0.86602540378443882 0 I I #
plane-surface $-1 -1 $-1 16.509999999999998 0 -2.5399999999999996 0.86602540378443882 0.49999999999999983 0 0 0 1 forward_v I I I I #
vertex $-1 -1 $-1 $486 $554 #
straight-curve $-1 -1 $-1 10.318750000000001 -10.723559562360814 2.5399999999999991 -0.49999999999999983 -0.86602540378443882 0 I I #
straight-curve $-1 -1 $-1 -16.509999999999998 -14.298079416481087 0 0 0 -1 I I #
point $-1 -1 $-1 -16.509999999999998 -14.298079416481087 -2.5399999999999996 #
edge $-1 -1 $-1 $503 -2.5399999999999996 $506 2.5399999999999996 $500 $555 forward @7 unknown #
point $-1 -1 $-1 -16.509999999999998 14.298079416481087 2.5399999999999996 #
point $-1 -1 $-1 -16.509999999999998 14.298079416481087 -2.5399999999999996 #
convexity-sys-attrib $-1 -1 $-1 $512 $434 #
point $-1 -1 $-1 16.509999999999998 0 5.0799999999999992 #
attrib_edge_convexity-kcp-attrib $-1 -1 $556 $-1 $517 1 #
straight-curve $-1 -1 $-1 16.509999999999998 0 5.0799999999999992 -12.699999999999996 21.997045256124743 0 I I #
convexity-sys-attrib $-1 -1 $-1 $518 $439 #
convexity-sys-attrib $-1 -1 $-1 $521 $320 #
straight-curve $-1 -1 $-1 8.254999999999999 -14.298079416481087 -1.2699999999999998 0 0 -1 I I #
plane-surface $-1 -1 $-1 8.254999999999999 -14.298079416481087 -2.5399999999999996 0.86602540378443882 -0.49999999999999983 0 0 0 1 forward_v I I I I #
point $-1 -1 $-1 8.254999999999999 -14.298079416481087 2.5399999999999996 #
straight-curve $-1 -1 $-1 -16.509999999999998 14.298079416481087 0 0 0 -1 I I #
convexity-sys-attrib $-1 -1 $-1 $548 $517 #
End-of-ACIS-data 