600 0 1 0           
92 GICL Pro/E ACIS Translator - Source: f:/data5/repository/PTC/V18/process18/hs10-12.prt - 6 0 13 ACIS 6.0.3 NT 24 Thu Apr 04 09:57:27 2002 
1 9.9999999999999995e-007 1e-010 
body $-1 $1 $-1 $2 #
lump $-1 $-1 $3 $0 #
transform $-1 1 0 0 0 1 0 0 0 1 0 0 0 25.399999999999999 no_rotate no_reflect no_shear #
shell $-1 $-1 $-1 $4 $-1 $1 #
face $-1 $5 $6 $3 $-1 $7 reversed single #
face $-1 $8 $9 $3 $-1 $10 forward single #
loop $-1 $-1 $11 $4 #
plane-surface $-1 0 0 0 0 1 0 1 0 0 forward_v I I I I #
face $-1 $12 $13 $3 $-1 $14 forward single #
loop $-1 $-1 $15 $5 #
cone-surface $-1 0 -0.021566507068988772 0 0 1 0 0.049999999999999996 0 0 1 I I 0 1 0.049999999999999996 forward I I I I #
coedge $-1 $16 $16 $15 $17 reversed $6 $-1 #
face $-1 $18 $19 $3 $-1 $20 reversed single #
loop $-1 $-1 $21 $8 #
cone-surface $-1 0 -0.021566507068988772 0 0 1 0 0.049999999999999996 0 0 1 I I 0 1 0.049999999999999996 forward I I I I #
coedge $-1 $22 $23 $11 $17 forward $9 $-1 #
coedge $-1 $11 $11 $24 $25 forward $6 $-1 #
edge $-1 $26 0 $27 3.1415926535897936 $11 $28 forward 7 unknown #
face $-1 $29 $30 $3 $-1 $31 forward single #
loop $-1 $32 $33 $12 #
plane-surface $-1 0 0.375 0 0 1 0 1 0 0 forward_v I I I I #
coedge $-1 $34 $35 $36 $37 forward $13 $-1 #
coedge $-1 $38 $15 $34 $39 forward $9 $-1 #
coedge $-1 $15 $38 $35 $40 reversed $9 $-1 #
coedge $-1 $35 $34 $16 $25 reversed $13 $-1 #
edge $-1 $26 0 $27 3.1415926535897931 $16 $41 forward 7 unknown #
vertex $-1 $25 $42 #
vertex $-1 $25 $43 #
ellipse-curve $-1 0 0 -8.6736173798840355e-018 6.9388939039072284e-017 1 1.2037062152420225e-032 0.049999999999999996 -3.4694469519536142e-018 8.6736173798840355e-018 1 I I #
face $-1 $-1 $44 $3 $-1 $45 forward single #
loop $-1 $-1 $46 $18 #
sphere-surface $-1 0 0.13133014137977592 0 0.29999999999999999 1 0 0 0 0 1 forward_v I I I I #
loop $-1 $-1 $47 $12 #
coedge $-1 $48 $48 $49 $50 forward $19 $-1 #
coedge $-1 $24 $21 $22 $39 reversed $13 $-1 #
coedge $-1 $21 $24 $23 $40 forward $13 $-1 #
coedge $-1 $47 $47 $21 $37 reversed $32 $-1 #
edge $-1 $51 0 $52 3.1415926535897931 $36 $53 forward 7 unknown #
coedge $-1 $23 $22 $47 $54 reversed $9 $-1 #
edge $-1 $27 0 $52 0.375 $22 $55 forward 7 unknown #
edge $-1 $26 0 $51 0.37499999999999994 $23 $56 forward 7 unknown #
ellipse-curve $-1 0 0 8.6736173798840355e-018 -6.9388939039072284e-017 -1 1.2037062152420225e-032 0.049999999999999996 -3.4694469519536142e-018 -8.6736173798840355e-018 1 I I #
point $-1 0.049999999999999996 -3.4694469519536142e-018 0 #
point $-1 -0.049999999999999996 -3.4694469519536142e-018 6.1230317691118857e-018 #
loop $-1 $-1 $57 $29 #
sphere-surface $-1 0 0.13133014137977592 0 0.29999999999999999 1 0 0 0 0 1 forward_v I I I I #
coedge $-1 $49 $58 $59 $60 reversed $30 $-1 #
coedge $-1 $36 $36 $38 $54 forward $32 $-1 #
coedge $-1 $33 $33 $57 $61 reversed $19 $-1 #
coedge $-1 $58 $46 $33 $50 reversed $30 $-1 #
edge $-1 $62 0 $63 3.1415926535897931 $33 $64 forward 7 unknown #
vertex $-1 $40 $65 #
vertex $-1 $54 $66 #
ellipse-curve $-1 0 0.375 0 0 -1 0 0.049999999999999996 0 0 1 I I #
edge $-1 $51 0 $52 3.1415926535897931 $38 $67 forward 7 unknown #
straight-curve $-1 -0.049999999999999996 -3.4694469519536142e-018 6.1230317691118857e-018 0 1 0 I I #
straight-curve $-1 0.049999999999999996 -3.4694469519536142e-018 0 0 1 0 I I #
coedge $-1 $59 $68 $48 $61 forward $44 $-1 #
coedge $-1 $46 $49 $68 $69 forward $30 $-1 #
coedge $-1 $68 $57 $46 $60 forward $44 $-1 #
edge $-1 $63 0 $70 0.62282658541200331 $59 $71 forward 7 unknown #
edge $-1 $62 0 $63 3.1415926535897931 $48 $72 forward 7 unknown #
vertex $-1 $61 $73 #
vertex $-1 $61 $74 #
ellipse-curve $-1 1.3877787807814457e-017 0.375 6.9388939039072284e-018 0 -1 0 0.17500000000000004 0 -6.9388939039072284e-018 1 I I #
point $-1 0.049999999999999996 0.37499999999999994 0 #
point $-1 -0.049999999999999996 0.375 0 #
ellipse-curve $-1 0 0.375 0 0 1 0 0.049999999999999996 0 0 1 I I #
coedge $-1 $57 $59 $58 $69 reversed $44 $-1 #
edge $-1 $62 0 $70 0.6228265854120032 $68 $75 forward 7 unknown #
vertex $-1 $69 $76 #
ellipse-curve $-1 0 0.13133014137977592 0 -1.2246063538223778e-016 -1.7119377283442093e-032 -1 -0.17500000000000007 0.24366985862022408 2.1430611191891611e-017 1 I I #
ellipse-curve $-1 1.3877787807814457e-017 0.375 -6.9388939039072284e-018 0 1 0 0.17500000000000004 0 6.9388939039072284e-018 1 I I #
point $-1 0.17500000000000007 0.375 0 #
point $-1 -0.17500000000000007 0.375 -2.1430611191891611e-017 #
ellipse-curve $-1 0 0.13133014137977592 0 0 0 1 0.17500000000000007 0.24366985862022408 0 1 I I #
point $-1 1.8369095307335657e-017 0.43133014137977588 0 #
End-of-ACIS-data 