700 0 2 0           
24 FBMach with ACIS - 7.0.3 13 ACIS 7.0.3 NT 24 Wed May 15 14:36:40 2002 
1 9.9999999999999995e-007 1e-010 
body $2 -1 $-1 $3 $-1 $4 #
bdycol-kcp $-1 -1 1 3 $5 $6 $7 #
model_id-kcp-attrib $-1 -1 $-1 $-1 $0 1 1021487799 1021487799 -79626239 1 #
lump $-1 -1 $-1 $-1 $8 $0 #
transform $-1 -1 1 0 0 0 1 0 0 0 1 0 0 0 1 rotate no_reflect no_shear #
body $9 -1 $-1 $10 $-1 $11 #
body $12 -1 $-1 $13 $-1 $14 #
body $15 -1 $-1 $16 $-1 $17 #
shell $-1 -1 $-1 $-1 $-1 $18 $-1 $3 #
model_id-kcp-attrib $-1 -1 $-1 $-1 $5 1 1021487799 1021487799 -79626238 1 #
lump $-1 -1 $-1 $-1 $19 $5 #
transform $-1 -1 1 0 0 0 1 0 0 0 1 0 3.3357855910463083 0 1 no_rotate no_reflect no_shear #
rgb_color-st-attrib $-1 -1 $20 $-1 $6 0.5 0.5 1 #
lump $-1 -1 $-1 $-1 $21 $6 #
transform $-1 -1 1 0 0 0 1 0 0 0 1 0 3.3357855910463083 0 1 no_rotate no_reflect no_shear #
rgb_color-st-attrib $-1 -1 $22 $-1 $7 1 0.5 1 #
lump $-1 -1 $-1 $-1 $23 $7 #
transform $-1 -1 1 0 0 0 1 0 0 0 1 0 3.3357855910463083 0 1 no_rotate no_reflect no_shear #
face $24 -1 $-1 $25 $26 $8 $-1 $27 reversed single #
shell $-1 -1 $-1 $-1 $-1 $28 $-1 $10 #
model_id-kcp-attrib $-1 -1 $-1 $12 $6 1 1021487799 1021487799 -75694077 1 #
shell $-1 -1 $-1 $-1 $-1 $29 $-1 $13 #
model_id-kcp-attrib $-1 -1 $-1 $15 $7 1 1021487799 1021487799 -70451196 1 #
shell $-1 -1 $-1 $-1 $-1 $30 $-1 $16 #
model_id-kcp-attrib $-1 -1 $-1 $-1 $18 1 1021487799 1021487799 -79626239 2 #
face $31 -1 $-1 $32 $33 $8 $-1 $34 forward single #
loop $-1 -1 $-1 $-1 $35 $18 #
plane-surface $-1 -1 $-1 0 0 0 0 1 0 25.399999999999999 0 0 forward_v I I I I #
face $-1 -1 $-1 $36 $37 $19 $-1 $38 forward single #
face $-1 -1 $-1 $39 $40 $21 $-1 $41 reversed single #
face $-1 -1 $-1 $42 $43 $23 $-1 $44 forward single #
model_id-kcp-attrib $-1 -1 $-1 $-1 $25 1 1021487799 1021487799 -79626239 3 #
face $45 -1 $-1 $46 $47 $8 $-1 $34 forward single #
loop $-1 -1 $-1 $-1 $48 $25 #
cone-surface $-1 -1 $-1 0 -0.54778927955231482 0 0 1 0 1.2699999999999998 0 0 1 I I 0 1 1.2699999999999998 forward I I I I #
coedge $-1 -1 $-1 $49 $49 $48 $50 reversed $26 $-1 #
face $-1 -1 $-1 $51 $52 $19 $-1 $53 reversed single #
loop $-1 -1 $-1 $-1 $54 $28 #
plane-surface $-1 -1 $-1 0 0 7.6199999999999992 0 0 1 1 0 0 forward_v I I I I #
face $-1 -1 $-1 $55 $56 $21 $-1 $57 forward single #
loop $-1 -1 $-1 $-1 $58 $29 #
plane-surface $-1 -1 $-1 0 -3.3357855910463101 0 0 -1 0 1 0 0 forward_v I I I I #
face $-1 -1 $-1 $59 $60 $23 $-1 $61 forward single #
loop $-1 -1 $-1 $62 $63 $30 #
cone-surface $-1 -1 $-1 0 6.1892144089536885 0 0 -1 0 1.2699999999999998 0 0 1 I I 0 -1 1.2699999999999998 forward I I I I #
model_id-kcp-attrib $-1 -1 $-1 $-1 $32 1 1021487799 1021487799 -79626239 4 #
face $64 -1 $-1 $65 $66 $8 $-1 $67 reversed single #
loop $-1 -1 $-1 $-1 $68 $32 #
coedge $-1 -1 $-1 $69 $70 $35 $50 forward $33 $-1 #
coedge $-1 -1 $-1 $35 $35 $71 $72 forward $26 $-1 #
edge $73 -1 $-1 $74 0 $75 3.1415926535897931 $35 $76 forward @7 unknown #
face $-1 -1 $-1 $77 $78 $19 $-1 $79 reversed single #
loop $-1 -1 $-1 $-1 $80 $36 #
plane-surface $-1 -1 $-1 0 0 -7.6199999999999992 0 0 1 1 0 0 forward_v I I I I #
coedge $-1 -1 $-1 $81 $82 $83 $84 forward $37 $-1 #
face $-1 -1 $-1 $-1 $85 $21 $-1 $86 reversed single #
loop $-1 -1 $-1 $87 $88 $39 #
cone-surface $-1 -1 $-1 0 -3.3357855910463083 0 0 -1 0 4.4450000000000012 0 -2.7216876213702342e-016 1 I I 0 1 4.4450000000000012 forward I I I I #
coedge $-1 -1 $-1 $58 $58 $89 $90 forward $40 $-1 #
face $-1 -1 $-1 $91 $92 $23 $-1 $93 reversed single #
loop $-1 -1 $-1 $94 $95 $42 #
cone-surface $-1 -1 $-1 0 6.1892144089536885 0 0 -1 0 4.4450000000000012 0 -2.7216876213702342e-016 1 I I 0 1 4.4450000000000012 forward I I I I #
loop $-1 -1 $-1 $-1 $96 $30 #
coedge $-1 -1 $-1 $63 $63 $97 $98 forward $43 $-1 #
model_id-kcp-attrib $-1 -1 $-1 $-1 $46 1 1021487799 1021487799 -79626239 5 #
face $99 -1 $-1 $100 $101 $8 $-1 $102 forward single #
loop $-1 -1 $-1 $103 $104 $46 #
plane-surface $-1 -1 $-1 0 9.5249999999999986 0 0 1 0 25.399999999999999 0 0 forward_v I I I I #
coedge $-1 -1 $-1 $105 $106 $107 $108 forward $47 $-1 #
coedge $-1 -1 $-1 $109 $48 $105 $110 forward $33 $-1 #
coedge $-1 -1 $-1 $48 $109 $106 $111 reversed $33 $-1 #
coedge $-1 -1 $-1 $106 $105 $49 $72 reversed $47 $-1 #
edge $112 -1 $-1 $74 0 $75 3.1415926535897931 $49 $113 reversed @7 unknown #
attrib_edge_convexity-kcp-attrib $-1 -1 $114 $-1 $50 1 #
vertex $-1 -1 $-1 $72 $115 #
vertex $-1 -1 $-1 $72 $116 #
ellipse-curve $-1 -1 $-1 0 0 0 0 1 0 1.2699999999999998 0 0 1 I I #
face $-1 -1 $-1 $117 $118 $19 $-1 $119 reversed single #
loop $-1 -1 $-1 $-1 $120 $51 #
plane-surface $-1 -1 $-1 0 -7.6199999999999992 0 0 1 0 0 0 1 forward_v I I I I #
coedge $-1 -1 $-1 $121 $122 $123 $124 forward $52 $-1 #
coedge $-1 -1 $-1 $125 $54 $126 $127 forward $37 $-1 #
coedge $-1 -1 $-1 $54 $125 $128 $129 forward $37 $-1 #
coedge $-1 -1 $-1 $130 $131 $54 $84 reversed $132 $-1 #
edge $-1 -1 $-1 $133 -7.6199999999999992 $134 7.6199999999999992 $83 $135 forward @7 unknown #
loop $-1 -1 $-1 $-1 $136 $55 #
plane-surface $-1 -1 $-1 0 -7.6199999999999992 0 0 1 0 0 0 1 forward_v I I I I #
loop $-1 -1 $-1 $-1 $89 $39 #
coedge $-1 -1 $-1 $88 $88 $136 $137 reversed $56 $-1 #
coedge $-1 -1 $-1 $89 $89 $58 $90 reversed $87 $-1 #
edge $138 -1 $-1 $139 -3.1415926535897931 $139 3.1415926535897931 $89 $140 forward @7 unknown #
face $-1 -1 $-1 $-1 $141 $23 $-1 $142 forward single #
loop $-1 -1 $-1 $143 $144 $59 #
plane-surface $-1 -1 $-1 -0.31429292929292929 -3.3357855910463119 1.1102230246251565e-016 0 1 0 0 0 1 forward_v I I I I #
loop $-1 -1 $-1 $-1 $145 $42 #
coedge $-1 -1 $-1 $95 $95 $144 $146 forward $60 $-1 #
coedge $-1 -1 $-1 $96 $96 $147 $148 reversed $62 $-1 #
coedge $-1 -1 $-1 $97 $97 $63 $98 reversed $143 $-1 #
edge $-1 -1 $-1 $149 -3.1415926535897931 $149 3.1415926535897931 $63 $150 forward @7 unknown #
model_id-kcp-attrib $-1 -1 $-1 $-1 $65 1 1021487799 1021487799 -79626239 6 #
face $151 -1 $-1 $-1 $152 $8 $-1 $102 forward single #
loop $-1 -1 $-1 $-1 $153 $65 #
sphere-surface $-1 -1 $-1 0 3.3357855910463079 0 7.6199999999999992 1 0 0 0 0 1 forward_v I I I I #
loop $-1 -1 $-1 $-1 $154 $46 #
coedge $-1 -1 $-1 $155 $155 $156 $157 forward $66 $-1 #
coedge $-1 -1 $-1 $71 $68 $69 $110 reversed $47 $-1 #
coedge $-1 -1 $-1 $68 $71 $70 $111 forward $47 $-1 #
coedge $-1 -1 $-1 $154 $154 $68 $108 reversed $103 $-1 #
edge $158 -1 $-1 $159 0 $160 3.1415926535897931 $107 $161 reversed @7 unknown #
coedge $-1 -1 $-1 $70 $69 $154 $162 reversed $33 $-1 #
edge $-1 -1 $-1 $75 0 $160 0.37499999999999994 $69 $163 forward @7 unknown #
edge $-1 -1 $-1 $74 0 $159 0.37499999999999994 $70 $164 forward @7 unknown #
attrib_edge_convexity-kcp-attrib $-1 -1 $165 $-1 $72 1 #
ellipse-curve $-1 -1 $-1 0 0 0 0 1 0 1.2699999999999998 0 0 1 I I #
convexity-sys-attrib $-1 -1 $-1 $73 $50 #
point $-1 -1 $-1 1.2699999999999998 -8.8123952579621795e-017 0 #
point $-1 -1 $-1 -1.2699999999999998 -8.8123952579621795e-017 1.5552500693544188e-016 #
face $-1 -1 $-1 $166 $167 $19 $-1 $168 reversed single #
loop $-1 -1 $-1 $-1 $169 $77 #
plane-surface $-1 -1 $-1 -7.6199999999999992 0 0 1 0 0 0 0 -1 forward_v I I I I #
coedge $-1 -1 $-1 $170 $128 $171 $172 forward $78 $-1 #
coedge $-1 -1 $-1 $173 $80 $170 $174 forward $52 $-1 #
coedge $-1 -1 $-1 $80 $173 $175 $176 forward $52 $-1 #
coedge $-1 -1 $-1 $131 $130 $80 $124 reversed $132 $-1 #
edge $-1 -1 $-1 $177 -7.6199999999999992 $178 7.6199999999999992 $123 $179 forward @7 unknown #
coedge $-1 -1 $-1 $82 $81 $180 $181 forward $37 $-1 #
coedge $-1 -1 $-1 $182 $183 $81 $127 reversed $167 $-1 #
edge $-1 -1 $-1 $134 -7.6199999999999992 $184 7.6199999999999992 $126 $185 forward @7 unknown #
coedge $-1 -1 $-1 $120 $186 $82 $129 reversed $78 $-1 #
edge $-1 -1 $-1 $187 -7.6199999999999992 $133 7.6199999999999992 $128 $188 forward @7 unknown #
coedge $-1 -1 $-1 $123 $83 $186 $189 forward $132 $-1 #
coedge $-1 -1 $-1 $83 $123 $182 $190 reversed $132 $-1 #
loop $-1 -1 $-1 $-1 $130 $166 #
vertex $-1 -1 $-1 $84 $191 #
vertex $-1 -1 $-1 $84 $192 #
straight-curve $-1 -1 $-1 7.6199999999999992 0 7.6199999999999992 0 1 0 I I #
coedge $-1 -1 $-1 $136 $136 $88 $137 forward $85 $-1 #
edge $-1 -1 $-1 $193 -3.1415926535897931 $193 3.1415926535897931 $136 $194 forward @7 unknown #
convexity-sys-attrib $-1 -1 $-1 $-1 $90 #
vertex $-1 -1 $-1 $90 $195 #
ellipse-curve $-1 -1 $-1 0 -3.3357855910463101 0 0 1 0 4.4450000000000012 0 -2.7216876213702342e-016 1 I I #
loop $-1 -1 $-1 $196 $197 $91 #
plane-surface $-1 -1 $-1 -0.31429292929292929 6.1892144089536867 1.1102230246251565e-016 0 1 0 0 0 1 forward_v I I I I #
loop $-1 -1 $-1 $-1 $97 $59 #
coedge $-1 -1 $-1 $144 $144 $95 $146 reversed $92 $-1 #
coedge $-1 -1 $-1 $145 $145 $197 $198 reversed $94 $-1 #
edge $-1 -1 $-1 $199 -3.1415926535897931 $199 3.1415926535897931 $95 $200 forward @7 unknown #
coedge $-1 -1 $-1 $147 $147 $96 $148 forward $196 $-1 #
edge $201 -1 $-1 $202 0 $202 6.2831853071795862 $96 $203 forward @7 unknown #
vertex $-1 -1 $-1 $98 $204 #
ellipse-curve $-1 -1 $-1 0 -3.3357855910463101 0 0 -1 0 1.2699999999999998 0 0 1 I I #
model_id-kcp-attrib $-1 -1 $-1 $-1 $100 1 1021487799 1021487799 -79626239 7 #
loop $-1 -1 $-1 $-1 $205 $100 #
coedge $-1 -1 $-1 $156 $206 $207 $208 reversed $101 $-1 #
coedge $-1 -1 $-1 $107 $107 $109 $162 forward $103 $-1 #
coedge $-1 -1 $-1 $104 $104 $205 $209 reversed $66 $-1 #
coedge $-1 -1 $-1 $206 $153 $104 $157 reversed $101 $-1 #
edge $210 -1 $-1 $211 -4.7123889803846897 $212 -1.5707963267948966 $104 $213 reversed @7 unknown #
attrib_edge_convexity-kcp-attrib $-1 -1 $214 $-1 $108 2 #
vertex $-1 -1 $-1 $111 $215 #
vertex $-1 -1 $-1 $162 $216 #
ellipse-curve $-1 -1 $-1 0 9.5249999999999986 0 0 1 0 1.2699999999999998 0 0 1 I I #
edge $217 -1 $-1 $159 0 $160 3.1415926535897931 $109 $218 reversed @7 unknown #
straight-curve $-1 -1 $-1 -1.2699999999999998 -8.8123952579621795e-017 1.5552500693544188e-016 0 25.399999999999999 0 I I #
straight-curve $-1 -1 $-1 1.2699999999999998 -8.8123952579621795e-017 0 0 25.399999999999999 0 I I #
convexity-sys-attrib $-1 -1 $-1 $112 $72 #
face $-1 -1 $-1 $-1 $132 $19 $-1 $219 reversed single #
loop $-1 -1 $-1 $-1 $182 $117 #
plane-surface $-1 -1 $-1 0 7.6199999999999992 0 0 -1 0 0 0 -1 forward_v I I I I #
coedge $-1 -1 $-1 $220 $180 $183 $221 forward $118 $-1 #
coedge $-1 -1 $-1 $186 $120 $121 $174 reversed $78 $-1 #
coedge $-1 -1 $-1 $180 $220 $120 $172 reversed $118 $-1 #
edge $-1 -1 $-1 $187 -7.6199999999999992 $222 7.6199999999999992 $171 $223 forward @7 unknown #
coedge $-1 -1 $-1 $122 $121 $220 $224 forward $52 $-1 #
edge $-1 -1 $-1 $178 -7.6199999999999992 $222 7.6199999999999992 $170 $225 forward @7 unknown #
coedge $-1 -1 $-1 $183 $182 $122 $176 reversed $167 $-1 #
edge $-1 -1 $-1 $226 -7.6199999999999992 $177 7.6199999999999992 $175 $227 forward @7 unknown #
vertex $-1 -1 $-1 $124 $228 #
vertex $-1 -1 $-1 $189 $229 #
straight-curve $-1 -1 $-1 7.6199999999999992 0 -7.6199999999999992 0 -1 0 I I #
coedge $-1 -1 $-1 $169 $171 $125 $181 reversed $118 $-1 #
edge $-1 -1 $-1 $184 -7.6199999999999992 $187 7.6199999999999992 $180 $230 forward @7 unknown #
coedge $-1 -1 $-1 $175 $126 $131 $190 forward $167 $-1 #
coedge $-1 -1 $-1 $126 $175 $169 $221 reversed $167 $-1 #
vertex $-1 -1 $-1 $127 $231 #
straight-curve $-1 -1 $-1 0 7.6199999999999992 7.6199999999999992 -1 0 0 I I #
coedge $-1 -1 $-1 $128 $170 $130 $189 reversed $78 $-1 #
vertex $-1 -1 $-1 $181 $232 #
straight-curve $-1 -1 $-1 0 -7.6199999999999992 7.6199999999999992 1 0 0 I I #
edge $-1 -1 $-1 $133 -7.6199999999999992 $178 7.6199999999999992 $130 $233 forward @7 unknown #
edge $-1 -1 $-1 $134 -7.6199999999999992 $177 7.6199999999999992 $131 $234 forward @7 unknown #
point $-1 -1 $-1 7.6199999999999992 -7.6199999999999992 7.6199999999999992 #
point $-1 -1 $-1 7.6199999999999992 7.6199999999999992 7.6199999999999992 #
vertex $-1 -1 $-1 $137 $235 #
ellipse-curve $-1 -1 $-1 0 -7.6199999999999992 0 0 -1 0 4.4450000000000012 0 -2.7216876213702342e-016 1 I I #
point $-1 -1 $-1 -4.4450000000000012 -3.3357855910463101 8.1650628641107022e-016 #
loop $-1 -1 $-1 $-1 $147 $91 #
coedge $-1 -1 $-1 $197 $197 $145 $198 forward $141 $-1 #
edge $236 -1 $-1 $237 -3.1415926535897931 $237 3.1415926535897931 $145 $238 forward @7 unknown #
vertex $-1 -1 $-1 $146 $239 #
ellipse-curve $-1 -1 $-1 0 -3.3357855910463101 0 0 1 0 4.4450000000000012 0 -2.7216876213702342e-016 1 I I #
convexity-sys-attrib $-1 -1 $-1 $-1 $148 #
vertex $-1 -1 $-1 $148 $240 #
ellipse-curve $-1 -1 $-1 0 6.1892144089536885 0 0 -1 0 1.2699999999999998 0 0 1 I I #
point $-1 -1 $-1 -1.2699999999999996 -3.3357855910463083 0 #
coedge $-1 -1 $-1 $207 $241 $155 $209 forward $152 $-1 #
coedge $-1 -1 $-1 $153 $156 $241 $242 forward $101 $-1 #
coedge $-1 -1 $-1 $241 $205 $153 $208 forward $152 $-1 #
edge $-1 -1 $-1 $212 -6.1185746839724547e-017 $243 0.62282658541200309 $207 $244 forward @7 unknown #
edge $245 -1 $-1 $211 -1.5707963267948966 $212 1.5707963267948966 $155 $246 forward @7 unknown #
attrib_edge_convexity-kcp-attrib $-1 -1 $247 $-1 $157 1 #
vertex $-1 -1 $-1 $209 $248 #
vertex $-1 -1 $-1 $209 $249 #
ellipse-curve $-1 -1 $-1 0 9.5249999999999986 0 0 1 0 0 0 -4.4450000000000012 1 I I #
convexity-sys-attrib $-1 -1 $-1 $158 $108 #
point $-1 -1 $-1 1.2699999999999998 9.5249999999999986 0 #
point $-1 -1 $-1 -1.2699999999999998 9.5249999999999986 0 #
attrib_edge_convexity-kcp-attrib $-1 -1 $250 $-1 $162 2 #
ellipse-curve $-1 -1 $-1 0 9.5249999999999986 0 0 -1 0 1.2699999999999998 0 0 1 I I #
plane-surface $-1 -1 $-1 7.6199999999999992 0 0 -1 0 0 0 0 1 forward_v I I I I #
coedge $-1 -1 $-1 $171 $169 $173 $224 reversed $118 $-1 #
edge $-1 -1 $-1 $184 -7.6199999999999992 $226 7.6199999999999992 $183 $251 forward @7 unknown #
vertex $-1 -1 $-1 $224 $252 #
straight-curve $-1 -1 $-1 -7.6199999999999992 -7.6199999999999992 0 0 0 -1 I I #
edge $-1 -1 $-1 $222 -7.6199999999999992 $226 7.6199999999999992 $220 $253 forward @7 unknown #
straight-curve $-1 -1 $-1 0 -7.6199999999999992 -7.6199999999999992 -1 0 0 I I #
vertex $-1 -1 $-1 $176 $254 #
straight-curve $-1 -1 $-1 0 7.6199999999999992 -7.6199999999999992 1 0 0 I I #
point $-1 -1 $-1 7.6199999999999992 7.6199999999999992 -7.6199999999999992 #
point $-1 -1 $-1 7.6199999999999992 -7.6199999999999992 -7.6199999999999992 #
straight-curve $-1 -1 $-1 -7.6199999999999992 0 7.6199999999999992 0 -1 0 I I #
point $-1 -1 $-1 -7.6199999999999992 7.6199999999999992 7.6199999999999992 #
point $-1 -1 $-1 -7.6199999999999992 -7.6199999999999992 7.6199999999999992 #
straight-curve $-1 -1 $-1 7.6199999999999992 -7.6199999999999992 0 0 0 -1 I I #
straight-curve $-1 -1 $-1 7.6199999999999992 7.6199999999999992 0 0 0 -1 I I #
point $-1 -1 $-1 -4.4450000000000012 -7.6199999999999992 8.1650628641107022e-016 #
convexity-sys-attrib $-1 -1 $-1 $-1 $198 #
vertex $-1 -1 $-1 $198 $255 #
ellipse-curve $-1 -1 $-1 0 6.1892144089536885 0 0 1 0 4.4450000000000012 0 -2.7216876213702342e-016 1 I I #
point $-1 -1 $-1 -4.4450000000000012 -3.3357855910463101 8.1650628641107022e-016 #
point $-1 -1 $-1 1.2699999999999998 6.1892144089536902 0 #
coedge $-1 -1 $-1 $205 $207 $206 $242 reversed $152 $-1 #
edge $-1 -1 $-1 $211 -6.1185746839724535e-017 $243 0.62282658541200309 $241 $256 forward @7 unknown #
vertex $-1 -1 $-1 $242 $257 #
ellipse-curve $-1 -1 $-1 0 3.3357855910463079 0 -1.2246063538223778e-016 -1.7119377283442093e-032 -1 -4.4450000000000012 6.1892144089536911 5.4433752427404685e-016 1 I I #
attrib_edge_convexity-kcp-attrib $-1 -1 $258 $-1 $209 1 #
ellipse-curve $-1 -1 $-1 0 9.5249999999999986 0 0 1 0 0 0 -4.4450000000000012 1 I I #
convexity-sys-attrib $-1 -1 $-1 $210 $157 #
point $-1 -1 $-1 4.4450000000000012 9.5249999999999986 0 #
point $-1 -1 $-1 -4.4450000000000012 9.5249999999999986 -5.4433752427404685e-016 #
convexity-sys-attrib $-1 -1 $-1 $217 $162 #
straight-curve $-1 -1 $-1 -7.6199999999999992 7.6199999999999992 0 0 0 -1 I I #
point $-1 -1 $-1 -7.6199999999999992 -7.6199999999999992 -7.6199999999999992 #
straight-curve $-1 -1 $-1 -7.6199999999999992 0 -7.6199999999999992 0 1 0 I I #
point $-1 -1 $-1 -7.6199999999999992 7.6199999999999992 -7.6199999999999992 #
point $-1 -1 $-1 -4.4450000000000012 6.1892144089536885 8.1650628641107022e-016 #
ellipse-curve $-1 -1 $-1 0 3.3357855910463079 0 0 0 1 4.4450000000000012 6.1892144089536911 0 1 I I #
point $-1 -1 $-1 4.6657502080632568e-016 10.955785591046308 0 #
convexity-sys-attrib $-1 -1 $-1 $245 $209 #
End-of-ACIS-data 