600 0 1 0           
93 GICL Pro/E ACIS Translator - Source: f:/data5/repository/PTC/V18/process18/hs25-20r.prt - 6 0 13 ACIS 6.0.3 NT 24 Thu Apr 04 13:31:05 2002 
1 9.9999999999999995e-007 1e-010 
body $-1 $1 $-1 $2 #
lump $-1 $-1 $3 $0 #
transform $-1 1 0 0 0 1 0 0 0 1 0 0 0 25.399999999999999 no_rotate no_reflect no_shear #
shell $-1 $-1 $-1 $4 $-1 $1 #
face $-1 $5 $6 $3 $-1 $7 reversed single #
face $-1 $8 $9 $3 $-1 $10 forward single #
loop $-1 $11 $12 $4 #
plane-surface $-1 -0.125 0 0 0 1 0 1 0 0 forward_v I I I I #
face $-1 $13 $14 $3 $-1 $15 forward single #
loop $-1 $-1 $16 $5 #
cone-surface $-1 -0.125 -0.79188750500400396 0 0 1 0 0.125 0 0 1 I I 0 1 0.125 forward I I I I #
loop $-1 $-1 $17 $4 #
coedge $-1 $18 $18 $16 $19 reversed $6 $-1 #
face $-1 $20 $21 $3 $-1 $22 reversed single #
loop $-1 $-1 $23 $8 #
cone-surface $-1 -0.125 -0.79188750500400396 0 0 1 0 0.125 0 0 1 I I 0 1 0.125 forward I I I I #
coedge $-1 $24 $25 $12 $19 forward $9 $-1 #
coedge $-1 $26 $26 $27 $28 reversed $11 $-1 #
coedge $-1 $12 $12 $29 $30 forward $6 $-1 #
edge $-1 $31 0 $32 3.1415926535897931 $12 $33 forward 7 unknown #
face $-1 $34 $35 $3 $-1 $36 forward single #
loop $-1 $-1 $37 $13 #
plane-surface $-1 -0.125 -0.75 0 0 1 0 1 0 0 forward_v I I I I #
coedge $-1 $38 $39 $37 $40 forward $14 $-1 #
coedge $-1 $41 $16 $38 $42 reversed $9 $-1 #
coedge $-1 $16 $41 $39 $43 forward $9 $-1 #
coedge $-1 $17 $17 $44 $45 forward $11 $-1 #
coedge $-1 $46 $47 $17 $28 forward $35 $-1 #
edge $-1 $48 0 $49 3.1415926535897931 $17 $50 forward 7 unknown #
coedge $-1 $39 $38 $18 $30 reversed $14 $-1 #
edge $-1 $31 0 $32 3.1415926535897931 $18 $51 forward 7 unknown #
vertex $-1 $30 $52 #
vertex $-1 $30 $53 #
ellipse-curve $-1 -0.125 0 1.3877787807814457e-017 0 -1 0 0.125 0 -1.3877787807814457e-017 1 I I #
face $-1 $-1 $54 $3 $-1 $55 forward single #
loop $-1 $-1 $27 $20 #
sphere-surface $-1 -0.125 -0.31224989991991997 0 0.39999999999999997 1 0 0 0 0 1 forward_v I I I I #
coedge $-1 $56 $56 $23 $40 reversed $21 $-1 #
coedge $-1 $29 $23 $24 $42 forward $14 $-1 #
coedge $-1 $23 $29 $25 $43 reversed $14 $-1 #
edge $-1 $57 0 $58 3.1415926535897931 $37 $59 forward 7 unknown #
coedge $-1 $25 $24 $56 $60 reversed $9 $-1 #
edge $-1 $58 0 $32 0.75 $38 $61 forward 7 unknown #
edge $-1 $57 0 $31 0.75 $39 $62 forward 7 unknown #
coedge $-1 $63 $64 $26 $45 reversed $54 $-1 #
edge $-1 $48 0 $49 3.1415926535897931 $26 $65 forward 7 unknown #
coedge $-1 $47 $27 $64 $66 forward $35 $-1 #
coedge $-1 $27 $46 $63 $67 reversed $35 $-1 #
vertex $-1 $45 $68 #
vertex $-1 $45 $69 #
ellipse-curve $-1 -0.125 0 6.9388939039072284e-018 2.2204460492503136e-016 1 -6.1629758220391575e-033 0.24999999999999994 -5.5511151231257827e-017 -6.9388939039072284e-018 1 I I #
ellipse-curve $-1 -0.125 0 -1.3877787807814457e-017 0 1 0 0.125 0 1.3877787807814457e-017 1 I I #
point $-1 0 0 0 #
point $-1 -0.25 0 0 #
loop $-1 $-1 $64 $34 #
sphere-surface $-1 -0.125 -0.31224989991991997 0 0.39999999999999997 1 0 0 0 0 1 forward_v I I I I #
coedge $-1 $37 $37 $41 $60 forward $21 $-1 #
vertex $-1 $60 $70 #
vertex $-1 $60 $71 #
ellipse-curve $-1 -0.125 -0.75 -6.9388939039072284e-018 0 1 0 0.125 0 6.9388939039072284e-018 1 I I #
edge $-1 $57 0 $58 3.1415926535897931 $56 $72 forward 7 unknown #
straight-curve $-1 -0.25 -0.75 1.5307579422779716e-017 0 1 0 I I #
straight-curve $-1 0 -0.75 0 0 1 0 I I #
coedge $-1 $64 $44 $47 $67 forward $54 $-1 #
coedge $-1 $44 $63 $46 $66 reversed $54 $-1 #
ellipse-curve $-1 -0.125 0 -6.9388939039072284e-018 -2.2204460492503136e-016 -1 -6.1629758220391575e-033 0.24999999999999994 -5.5511151231257827e-017 6.9388939039072284e-018 1 I I #
edge $-1 $49 0 $73 0.67513153293703154 $46 $74 forward 7 unknown #
edge $-1 $48 0 $73 0.67513153293703143 $47 $75 forward 7 unknown #
point $-1 0.12499999999999994 -5.5511151231257827e-017 0 #
point $-1 -0.37499999999999994 -5.5511151231257827e-017 3.0615158845559425e-017 #
point $-1 0 -0.75 0 #
point $-1 -0.25 -0.75 1.5307579422779716e-017 #
ellipse-curve $-1 -0.125 -0.75 6.9388939039072284e-018 0 -1 0 0.125 0 -6.9388939039072284e-018 1 I I #
vertex $-1 $67 $76 #
ellipse-curve $-1 -0.125 -0.31224989991991997 0 -1.2246063538223778e-016 -2.8888949165808543e-032 -1 -0.24999999999999994 0.31224989991991992 3.0615158845559425e-017 1 I I #
ellipse-curve $-1 -0.125 -0.31224989991991997 0 0 0 1 0.24999999999999994 0.31224989991991992 0 1 I I #
point $-1 -0.12499999999999997 0.087750100080079996 0 #
End-of-ACIS-data 