600 0 1 0           
90 GICL ACIS Healer - Source: /gicl/data5/repository/PTC/V18/process18/hs25-20r.prt.sat - 6 0 18 ACIS 6.0.3 Solaris 24 Sat Apr 13 21:18:08 2002 
1 9.999999999999999547e-07 1.000000000000000036e-10 
body $-1 $1 $-1 $-1 #
lump $-1 $-1 $2 $0 #
shell $-1 $-1 $-1 $3 $-1 $1 #
face $-1 $4 $5 $2 $-1 $6 reversed single #
face $-1 $7 $8 $2 $-1 $9 forward single #
loop $-1 $10 $11 $3 #
plane-surface $-1 -3.174999999999999822 0 0 0 1 0 25.39999999999999858 0 0 forward_v I I I I #
face $-1 $12 $13 $2 $-1 $9 forward single #
loop $-1 $-1 $14 $4 #
cone-surface $-1 -3.174999999999999822 -20.11394262710170011 0 0 1 0 3.174999999999999822 0 0 1 I I 0 1 3.174999999999999822 forward I I I I #
loop $-1 $-1 $15 $3 #
coedge $-1 $16 $16 $14 $17 reversed $5 $-1 #
face $-1 $18 $19 $2 $-1 $20 reversed single #
loop $-1 $-1 $21 $7 #
coedge $-1 $22 $23 $11 $17 forward $8 $-1 #
coedge $-1 $24 $24 $25 $26 reversed $10 $-1 #
coedge $-1 $11 $11 $27 $28 forward $5 $-1 #
edge $-1 $29 -0 $30 3.141592653589793116 $11 $31 reversed 7 unknown #
face $-1 $32 $33 $2 $-1 $34 forward single #
loop $-1 $-1 $35 $12 #
plane-surface $-1 -3.174999999999999822 -19.04999999999999716 0 0 1 0 25.39999999999999858 0 0 forward_v I I I I #
coedge $-1 $36 $37 $35 $38 forward $13 $-1 #
coedge $-1 $39 $14 $36 $40 reversed $8 $-1 #
coedge $-1 $14 $39 $37 $41 forward $8 $-1 #
coedge $-1 $15 $15 $42 $43 forward $10 $-1 #
coedge $-1 $44 $45 $15 $26 forward $33 $-1 #
edge $-1 $46 -1.570796326794896558 $47 1.57079632679489678 $15 $48 forward 7 unknown #
coedge $-1 $37 $36 $16 $28 reversed $13 $-1 #
edge $-1 $29 0 $30 3.141592653589793116 $16 $49 forward 7 unknown #
vertex $-1 $28 $50 #
vertex $-1 $28 $51 #
ellipse-curve $-1 -3.174999999999999822 0 0 0 1 0 3.174999999999999822 0 0 1 I I #
face $-1 $-1 $52 $2 $-1 $34 forward single #
loop $-1 $-1 $25 $18 #
sphere-surface $-1 -3.174999999999999822 -7.931147457965966652 0 10.15999999999999837 1 0 0 0 0 1 forward_v I I I I #
coedge $-1 $53 $53 $21 $38 reversed $19 $-1 #
coedge $-1 $27 $21 $22 $40 forward $13 $-1 #
coedge $-1 $21 $27 $23 $41 reversed $13 $-1 #
edge $-1 $54 0 $55 3.141592653589793116 $35 $56 forward 7 unknown #
coedge $-1 $23 $22 $53 $57 reversed $8 $-1 #
edge $-1 $55 0 $30 0.749999999999999889 $36 $58 forward 7 unknown #
edge $-1 $54 0 $29 0.749999999999999889 $37 $59 forward 7 unknown #
coedge $-1 $60 $61 $24 $43 reversed $52 $-1 #
edge $-1 $46 -4.712388980384689674 $47 -1.57079632679489678 $24 $62 reversed 7 unknown #
coedge $-1 $45 $25 $61 $63 forward $33 $-1 #
coedge $-1 $25 $44 $60 $64 reversed $33 $-1 #
vertex $-1 $43 $65 #
vertex $-1 $43 $66 #
ellipse-curve $-1 -3.174999999999999822 0 0 0 1 0 0 0 -6.349999999999996092 1 I I #
ellipse-curve $-1 -3.174999999999999822 0 0 0 1 0 3.174999999999999822 0 0 1 I I #
point $-1 0 0 0 #
point $-1 -6.349999999999999645 0 0 #
loop $-1 $-1 $61 $32 #
coedge $-1 $35 $35 $39 $57 forward $19 $-1 #
vertex $-1 $57 $67 #
vertex $-1 $57 $68 #
ellipse-curve $-1 -3.174999999999999822 -19.04999999999999716 0 0 1 0 3.174999999999999822 0 0 1 I I #
edge $-1 $54 -0 $55 3.141592653589793116 $53 $69 reversed 7 unknown #
straight-curve $-1 -6.349999999999999645 -19.04999999999999716 3.888125173386047696e-16 0 25.39999999999999858 0 I I #
straight-curve $-1 0 -19.04999999999999716 0 0 25.39999999999999858 0 I I #
coedge $-1 $61 $42 $45 $64 forward $52 $-1 #
coedge $-1 $42 $60 $44 $63 reversed $52 $-1 #
ellipse-curve $-1 -3.174999999999999822 0 0 0 1 0 0 0 -6.349999999999996092 1 I I #
edge $-1 $47 -1.376679303893802189e-16 $70 0.6751315329370314311 $44 $71 forward 7 unknown #
edge $-1 $46 -6.883396519469012179e-17 $70 0.6751315329370314311 $45 $72 forward 7 unknown #
point $-1 3.17499999999999849 -1.409983241273948727e-15 0 #
point $-1 -9.524999999999998579 -1.409983241273948727e-15 7.77625034677209342e-16 #
point $-1 0 -19.04999999999999716 0 #
point $-1 -6.349999999999999645 -19.04999999999999716 3.888125173386047696e-16 #
ellipse-curve $-1 -3.174999999999999822 -19.04999999999999716 0 0 1 0 3.174999999999999822 0 0 1 I I #
vertex $-1 $64 $73 #
ellipse-curve $-1 -3.174999999999999822 -7.931147457965966652 0 -1.224606353822377751e-16 -2.888894916580854327e-32 -1 -6.349999999999997868 7.931147457965965764 7.77625034677209342e-16 1 I I #
ellipse-curve $-1 -3.174999999999999822 -7.931147457965966652 0 0 0 1 6.349999999999997868 7.931147457965965764 0 1 I I #
point $-1 -3.174999999999998934 2.228852542034031714 0 #
End-of-ACIS-data 