700 0 2 0           
24 FBMach with ACIS - 7.0.3 13 ACIS 7.0.3 NT 24 Wed May 15 14:39:18 2002 
1 9.9999999999999995e-007 1e-010 
body $2 -1 $-1 $3 $-1 $4 #
bdycol-kcp $-1 -1 1 2 $5 $6 #
model_id-kcp-attrib $-1 -1 $-1 $-1 $0 1 1021487958 1021487958 1503592449 1 #
lump $-1 -1 $-1 $-1 $7 $0 #
transform $-1 -1 1 0 0 0 1 0 0 0 1 0 0 0 1 rotate no_reflect no_shear #
body $8 -1 $-1 $9 $-1 $10 #
body $11 -1 $-1 $12 $-1 $13 #
shell $-1 -1 $-1 $-1 $-1 $14 $-1 $3 #
rgb_color-st-attrib $-1 -1 $15 $-1 $5 1 0.5 1 #
lump $-1 -1 $-1 $-1 $16 $5 #
transform $-1 -1 1 0 0 0 1 0 0 0 1 -3.1749999999999994 -8.4105737289829818 0 1 no_rotate no_reflect no_shear #
model_id-kcp-attrib $-1 -1 $-1 $-1 $6 1 1021487958 1021487958 1503592450 1 #
lump $-1 -1 $-1 $-1 $17 $6 #
transform $-1 -1 1 0 0 0 1 0 0 0 1 -3.1749999999999994 -8.4105737289829818 0 1 no_rotate no_reflect no_shear #
face $18 -1 $-1 $19 $20 $7 $-1 $21 reversed single #
model_id-kcp-attrib $-1 -1 $-1 $8 $5 1 1021487958 1021487958 1494679555 1 #
shell $-1 -1 $-1 $-1 $-1 $22 $-1 $9 #
shell $-1 -1 $-1 $-1 $-1 $23 $-1 $12 #
model_id-kcp-attrib $-1 -1 $-1 $-1 $14 1 1021487958 1021487958 1503592449 2 #
face $24 -1 $-1 $25 $26 $7 $-1 $27 forward single #
loop $-1 -1 $-1 $28 $29 $14 #
plane-surface $-1 -1 $-1 -3.1749999999999998 0 0 0 1 0 25.399999999999999 0 0 forward_v I I I I #
face $-1 -1 $-1 $30 $31 $16 $-1 $32 forward single #
face $-1 -1 $-1 $33 $34 $17 $-1 $35 forward single #
model_id-kcp-attrib $-1 -1 $-1 $-1 $19 1 1021487958 1021487958 1503592449 3 #
face $36 -1 $-1 $37 $38 $7 $-1 $27 forward single #
loop $-1 -1 $-1 $-1 $39 $19 #
cone-surface $-1 -1 $-1 -3.1749999999999998 -20.1139426271017 0 0 1 0 3.1749999999999998 0 0 1 I I 0 1 3.1749999999999998 forward I I I I #
loop $-1 -1 $-1 $-1 $40 $14 #
coedge $-1 -1 $-1 $41 $41 $39 $42 reversed $20 $-1 #
face $-1 -1 $-1 $43 $44 $16 $-1 $45 forward single #
loop $-1 -1 $-1 $46 $47 $22 #
cone-surface $-1 -1 $-1 -4.4408920985006262e-016 8.4105737289829818 0 0 -1 0 3.1749999999999998 0 0 1 I I 0 -1 3.1749999999999998 forward I I I I #
face $-1 -1 $-1 $48 $49 $17 $-1 $50 reversed single #
loop $-1 -1 $-1 $-1 $51 $23 #
plane-surface $-1 -1 $-1 0 0 10.159999999999998 0 0 1 1 0 0 forward_v I I I I #
model_id-kcp-attrib $-1 -1 $-1 $-1 $25 1 1021487958 1021487958 1503592449 4 #
face $52 -1 $-1 $53 $54 $7 $-1 $55 reversed single #
loop $-1 -1 $-1 $-1 $56 $25 #
coedge $-1 -1 $-1 $57 $58 $29 $42 forward $26 $-1 #
coedge $-1 -1 $-1 $59 $59 $60 $61 reversed $28 $-1 #
coedge $-1 -1 $-1 $29 $29 $62 $63 forward $20 $-1 #
edge $64 -1 $-1 $65 0 $66 3.1415926535897931 $29 $67 reversed @7 unknown #
face $-1 -1 $-1 $68 $69 $16 $-1 $70 reversed single #
loop $-1 -1 $-1 $71 $72 $30 #
cone-surface $-1 -1 $-1 -4.4408920985006262e-016 8.4105737289829818 0 0 -1 0 6.3499999999999961 0 -3.8881251733860452e-016 1 I I 0 1 6.3499999999999961 forward I I I I #
loop $-1 -1 $-1 $-1 $73 $22 #
coedge $-1 -1 $-1 $47 $47 $74 $75 forward $31 $-1 #
face $76 -1 $-1 $77 $78 $17 $-1 $79 reversed single #
loop $-1 -1 $-1 $-1 $80 $33 #
plane-surface $-1 -1 $-1 0 0 -10.159999999999998 0 0 1 1 0 0 forward_v I I I I #
coedge $-1 -1 $-1 $81 $82 $83 $84 forward $34 $-1 #
model_id-kcp-attrib $-1 -1 $-1 $-1 $37 1 1021487958 1021487958 1503592449 5 #
face $85 -1 $-1 $86 $87 $7 $-1 $88 forward single #
loop $-1 -1 $-1 $-1 $89 $37 #
plane-surface $-1 -1 $-1 -3.1749999999999998 -19.049999999999997 0 0 1 0 25.399999999999999 0 0 forward_v I I I I #
coedge $-1 -1 $-1 $90 $91 $89 $92 forward $38 $-1 #
coedge $-1 -1 $-1 $93 $39 $90 $94 reversed $26 $-1 #
coedge $-1 -1 $-1 $39 $93 $91 $95 forward $26 $-1 #
coedge $-1 -1 $-1 $40 $40 $96 $97 forward $28 $-1 #
coedge $-1 -1 $-1 $98 $99 $40 $61 forward $87 $-1 #
edge $100 -1 $-1 $101 -1.5707963267948966 $102 1.5707963267948968 $40 $103 forward @7 unknown #
coedge $-1 -1 $-1 $91 $90 $41 $63 reversed $38 $-1 #
edge $104 -1 $-1 $65 0 $66 3.1415926535897931 $41 $105 forward @7 unknown #
attrib_edge_convexity-kcp-attrib $-1 -1 $106 $-1 $42 2 #
vertex $-1 -1 $-1 $63 $107 #
vertex $-1 -1 $-1 $63 $108 #
ellipse-curve $-1 -1 $-1 -3.1749999999999998 0 0 0 1 0 3.1749999999999998 0 0 1 I I #
face $-1 -1 $-1 $-1 $109 $16 $-1 $110 forward single #
loop $-1 -1 $-1 $111 $112 $43 #
plane-surface $-1 -1 $-1 -0.38484848484848466 -10.639426271017015 1.6653345369377348e-016 9.3906189969889305e-032 1 -1.8259536938589579e-032 0 1.8259536938589579e-032 1 forward_v I I I I #
loop $-1 -1 $-1 $-1 $113 $30 #
coedge $-1 -1 $-1 $72 $72 $112 $114 forward $44 $-1 #
coedge $-1 -1 $-1 $73 $73 $115 $116 reversed $46 $-1 #
coedge $-1 -1 $-1 $74 $74 $47 $75 reversed $111 $-1 #
edge $-1 -1 $-1 $117 0 $117 6.2831853071795862 $47 $118 forward @7 unknown #
model_id-kcp-attrib $-1 -1 $-1 $-1 $48 1 1021487958 1021487958 1503592450 2 #
face $-1 -1 $-1 $119 $120 $17 $-1 $121 reversed single #
loop $-1 -1 $-1 $-1 $122 $48 #
plane-surface $-1 -1 $-1 0 -10.639426271017015 0 0 1 0 0 0 1 forward_v I I I I #
coedge $-1 -1 $-1 $123 $124 $125 $126 forward $49 $-1 #
coedge $-1 -1 $-1 $127 $51 $128 $129 forward $34 $-1 #
coedge $-1 -1 $-1 $51 $127 $130 $131 forward $34 $-1 #
coedge $-1 -1 $-1 $132 $133 $51 $84 reversed $134 $-1 #
edge $-1 -1 $-1 $135 -10.639426271017015 $136 10.639426271017015 $83 $137 forward @7 unknown #
model_id-kcp-attrib $-1 -1 $-1 $-1 $53 1 1021487958 1021487958 1503592449 6 #
face $138 -1 $-1 $-1 $139 $7 $-1 $88 forward single #
loop $-1 -1 $-1 $-1 $60 $53 #
sphere-surface $-1 -1 $-1 -3.1749999999999998 -7.9311474579659667 0 10.159999999999998 1 0 0 0 0 1 forward_v I I I I #
coedge $-1 -1 $-1 $140 $140 $56 $92 reversed $54 $-1 #
coedge $-1 -1 $-1 $62 $56 $57 $94 forward $38 $-1 #
coedge $-1 -1 $-1 $56 $62 $58 $95 reversed $38 $-1 #
edge $141 -1 $-1 $142 0 $143 3.1415926535897931 $89 $144 forward @7 unknown #
coedge $-1 -1 $-1 $58 $57 $140 $145 reversed $26 $-1 #
edge $-1 -1 $-1 $143 0 $66 0.74999999999999989 $90 $146 forward @7 unknown #
edge $-1 -1 $-1 $142 0 $65 0.74999999999999989 $91 $147 forward @7 unknown #
coedge $-1 -1 $-1 $148 $149 $59 $97 reversed $139 $-1 #
edge $150 -1 $-1 $101 -4.7123889803846897 $102 -1.5707963267948968 $59 $151 reversed @7 unknown #
coedge $-1 -1 $-1 $99 $60 $149 $152 forward $87 $-1 #
coedge $-1 -1 $-1 $60 $98 $148 $153 reversed $87 $-1 #
attrib_edge_convexity-kcp-attrib $-1 -1 $154 $-1 $61 1 #
vertex $-1 -1 $-1 $97 $155 #
vertex $-1 -1 $-1 $97 $156 #
ellipse-curve $-1 -1 $-1 -3.1749999999999998 0 0 0 1 0 0 0 -6.3499999999999961 1 I I #
attrib_edge_convexity-kcp-attrib $-1 -1 $157 $-1 $63 2 #
ellipse-curve $-1 -1 $-1 -3.1749999999999998 0 0 0 1 0 3.1749999999999998 0 0 1 I I #
convexity-sys-attrib $-1 -1 $-1 $64 $42 #
point $-1 -1 $-1 0 0 0 #
point $-1 -1 $-1 -6.3499999999999996 0 0 #
loop $-1 -1 $-1 $158 $159 $68 #
plane-surface $-1 -1 $-1 -0.38484848484848466 8.4105737289829818 1.6653345369377348e-016 9.3906189969889305e-032 1 -1.8259536938589579e-032 0 1.8259536938589579e-032 1 forward_v I I I I #
loop $-1 -1 $-1 $-1 $74 $43 #
coedge $-1 -1 $-1 $112 $112 $72 $114 reversed $69 $-1 #
coedge $-1 -1 $-1 $113 $113 $159 $160 reversed $71 $-1 #
edge $-1 -1 $-1 $161 -3.1415926535897931 $161 3.1415926535897931 $72 $162 forward @7 unknown #
coedge $-1 -1 $-1 $115 $115 $73 $116 forward $158 $-1 #
edge $163 -1 $-1 $164 -3.1415926535897931 $164 3.1415926535897931 $73 $165 forward @7 unknown #
vertex $-1 -1 $-1 $75 $166 #
ellipse-curve $-1 -1 $-1 -4.4408920985006262e-016 -10.639426271017015 0 0 -1 0 3.1749999999999998 0 0 1 I I #
face $-1 -1 $-1 $167 $168 $17 $-1 $169 reversed single #
loop $-1 -1 $-1 $-1 $170 $77 #
plane-surface $-1 -1 $-1 -10.159999999999998 0 0 1 0 0 0 0 -1 forward_v I I I I #
coedge $-1 -1 $-1 $171 $130 $172 $173 forward $78 $-1 #
coedge $-1 -1 $-1 $174 $80 $171 $175 forward $49 $-1 #
coedge $-1 -1 $-1 $80 $174 $176 $177 forward $49 $-1 #
coedge $-1 -1 $-1 $133 $132 $80 $126 reversed $134 $-1 #
edge $-1 -1 $-1 $178 -10.639426271017015 $179 10.639426271017015 $125 $180 forward @7 unknown #
coedge $-1 -1 $-1 $82 $81 $181 $182 forward $34 $-1 #
coedge $-1 -1 $-1 $183 $184 $81 $129 reversed $168 $-1 #
edge $-1 -1 $-1 $136 -10.159999999999998 $185 10.159999999999998 $128 $186 forward @7 unknown #
coedge $-1 -1 $-1 $122 $187 $82 $131 reversed $78 $-1 #
edge $-1 -1 $-1 $188 -10.159999999999998 $135 10.159999999999998 $130 $189 forward @7 unknown #
coedge $-1 -1 $-1 $125 $83 $187 $190 forward $134 $-1 #
coedge $-1 -1 $-1 $83 $125 $183 $191 reversed $134 $-1 #
loop $-1 -1 $-1 $-1 $132 $167 #
vertex $-1 -1 $-1 $84 $192 #
vertex $-1 -1 $-1 $84 $193 #
straight-curve $-1 -1 $-1 10.159999999999998 0 10.159999999999998 0 1 0 I I #
model_id-kcp-attrib $-1 -1 $-1 $-1 $86 1 1021487958 1021487958 1503592449 7 #
loop $-1 -1 $-1 $-1 $149 $86 #
coedge $-1 -1 $-1 $89 $89 $93 $145 forward $54 $-1 #
attrib_edge_convexity-kcp-attrib $-1 -1 $194 $-1 $92 1 #
vertex $-1 -1 $-1 $145 $195 #
vertex $-1 -1 $-1 $145 $196 #
ellipse-curve $-1 -1 $-1 -3.1749999999999998 -19.049999999999997 0 0 1 0 3.1749999999999998 0 0 1 I I #
edge $197 -1 $-1 $142 0 $143 3.1415926535897931 $140 $198 reversed @7 unknown #
straight-curve $-1 -1 $-1 -6.3499999999999996 -19.049999999999997 3.8881251733860477e-016 0 25.399999999999999 0 I I #
straight-curve $-1 -1 $-1 0 -19.049999999999997 0 0 25.399999999999999 0 I I #
coedge $-1 -1 $-1 $149 $96 $99 $153 forward $139 $-1 #
coedge $-1 -1 $-1 $96 $148 $98 $152 reversed $139 $-1 #
attrib_edge_convexity-kcp-attrib $-1 -1 $199 $-1 $97 1 #
ellipse-curve $-1 -1 $-1 -3.1749999999999998 0 0 0 1 0 0 0 -6.3499999999999961 1 I I #
edge $-1 -1 $-1 $102 -1.3766793038938022e-016 $200 0.67513153293703143 $98 $201 forward @7 unknown #
edge $-1 -1 $-1 $101 -6.8833965194690122e-017 $200 0.67513153293703143 $99 $202 forward @7 unknown #
convexity-sys-attrib $-1 -1 $-1 $100 $61 #
point $-1 -1 $-1 3.1749999999999985 -1.4099832412739487e-015 0 #
point $-1 -1 $-1 -9.5249999999999986 -1.4099832412739487e-015 7.7762503467720934e-016 #
convexity-sys-attrib $-1 -1 $-1 $104 $63 #
loop $-1 -1 $-1 $-1 $115 $68 #
coedge $-1 -1 $-1 $159 $159 $113 $160 forward $109 $-1 #
edge $203 -1 $-1 $204 -3.1415926535897931 $204 3.1415926535897931 $113 $205 forward @7 unknown #
vertex $-1 -1 $-1 $114 $206 #
ellipse-curve $-1 -1 $-1 -4.4408920985006262e-016 -10.639426271017015 0 0 1 0 6.3499999999999961 0 -3.8881251733860452e-016 1 I I #
convexity-sys-attrib $-1 -1 $-1 $-1 $116 #
vertex $-1 -1 $-1 $116 $207 #
ellipse-curve $-1 -1 $-1 -4.4408920985006262e-016 8.4105737289829818 0 0 -1 0 3.1749999999999998 0 0 1 I I #
point $-1 -1 $-1 3.1749999999999989 -10.639426271017015 0 #
face $-1 -1 $-1 $-1 $134 $17 $-1 $208 reversed single #
loop $-1 -1 $-1 $-1 $183 $119 #
plane-surface $-1 -1 $-1 0 10.639426271017015 0 0 -1 0 0 0 -1 forward_v I I I I #
coedge $-1 -1 $-1 $209 $181 $184 $210 forward $120 $-1 #
coedge $-1 -1 $-1 $187 $122 $123 $175 reversed $78 $-1 #
coedge $-1 -1 $-1 $181 $209 $122 $173 reversed $120 $-1 #
edge $-1 -1 $-1 $188 -10.159999999999998 $211 10.159999999999998 $172 $212 forward @7 unknown #
coedge $-1 -1 $-1 $124 $123 $209 $213 forward $49 $-1 #
edge $-1 -1 $-1 $179 -10.159999999999998 $211 10.159999999999998 $171 $214 forward @7 unknown #
coedge $-1 -1 $-1 $184 $183 $124 $177 reversed $168 $-1 #
edge $-1 -1 $-1 $215 -10.159999999999998 $178 10.159999999999998 $176 $216 forward @7 unknown #
vertex $-1 -1 $-1 $126 $217 #
vertex $-1 -1 $-1 $190 $218 #
straight-curve $-1 -1 $-1 10.159999999999998 0 -10.159999999999998 0 -1 0 I I #
coedge $-1 -1 $-1 $170 $172 $127 $182 reversed $120 $-1 #
edge $-1 -1 $-1 $185 -10.639426271017015 $188 10.639426271017015 $181 $219 forward @7 unknown #
coedge $-1 -1 $-1 $176 $128 $133 $191 forward $168 $-1 #
coedge $-1 -1 $-1 $128 $176 $170 $210 reversed $168 $-1 #
vertex $-1 -1 $-1 $129 $220 #
straight-curve $-1 -1 $-1 0 10.639426271017015 10.159999999999998 -1 0 0 I I #
coedge $-1 -1 $-1 $130 $171 $132 $190 reversed $78 $-1 #
vertex $-1 -1 $-1 $182 $221 #
straight-curve $-1 -1 $-1 0 -10.639426271017015 10.159999999999998 1 0 0 I I #
edge $-1 -1 $-1 $135 -10.159999999999998 $179 10.159999999999998 $132 $222 forward @7 unknown #
edge $-1 -1 $-1 $136 -10.159999999999998 $178 10.159999999999998 $133 $223 forward @7 unknown #
point $-1 -1 $-1 10.159999999999998 -10.639426271017015 10.159999999999998 #
point $-1 -1 $-1 10.159999999999998 10.639426271017015 10.159999999999998 #
convexity-sys-attrib $-1 -1 $-1 $141 $92 #
point $-1 -1 $-1 0 -19.049999999999997 0 #
point $-1 -1 $-1 -6.3499999999999996 -19.049999999999997 3.8881251733860477e-016 #
attrib_edge_convexity-kcp-attrib $-1 -1 $224 $-1 $145 1 #
ellipse-curve $-1 -1 $-1 -3.1749999999999998 -19.049999999999997 0 0 1 0 3.1749999999999998 0 0 1 I I #
convexity-sys-attrib $-1 -1 $-1 $150 $97 #
vertex $-1 -1 $-1 $153 $225 #
ellipse-curve $-1 -1 $-1 -3.1749999999999998 -7.9311474579659667 0 -1.2246063538223778e-016 -2.8888949165808543e-032 -1 -6.3499999999999979 7.9311474579659658 7.7762503467720934e-016 1 I I #
ellipse-curve $-1 -1 $-1 -3.1749999999999998 -7.9311474579659667 0 0 0 1 6.3499999999999979 7.9311474579659658 0 1 I I #
convexity-sys-attrib $-1 -1 $-1 $-1 $160 #
vertex $-1 -1 $-1 $160 $226 #
ellipse-curve $-1 -1 $-1 -4.4408920985006262e-016 8.4105737289829818 0 0 1 0 6.3499999999999961 0 -3.8881251733860452e-016 1 I I #
point $-1 -1 $-1 -6.3499999999999961 -10.639426271017015 1.1664375520158135e-015 #
point $-1 -1 $-1 -3.1750000000000003 8.4105737289829818 0 #
plane-surface $-1 -1 $-1 10.159999999999998 0 0 -1 0 0 0 0 1 forward_v I I I I #
coedge $-1 -1 $-1 $172 $170 $174 $213 reversed $120 $-1 #
edge $-1 -1 $-1 $185 -10.159999999999998 $215 10.159999999999998 $184 $227 forward @7 unknown #
vertex $-1 -1 $-1 $213 $228 #
straight-curve $-1 -1 $-1 -10.159999999999998 -10.639426271017015 0 0 0 -1 I I #
edge $-1 -1 $-1 $211 -10.639426271017015 $215 10.639426271017015 $209 $229 forward @7 unknown #
straight-curve $-1 -1 $-1 0 -10.639426271017015 -10.159999999999998 -1 0 0 I I #
vertex $-1 -1 $-1 $177 $230 #
straight-curve $-1 -1 $-1 0 10.639426271017015 -10.159999999999998 1 0 0 I I #
point $-1 -1 $-1 10.159999999999998 10.639426271017015 -10.159999999999998 #
point $-1 -1 $-1 10.159999999999998 -10.639426271017015 -10.159999999999998 #
straight-curve $-1 -1 $-1 -10.159999999999998 0 10.159999999999998 0 -1 0 I I #
point $-1 -1 $-1 -10.159999999999998 10.639426271017015 10.159999999999998 #
point $-1 -1 $-1 -10.159999999999998 -10.639426271017015 10.159999999999998 #
straight-curve $-1 -1 $-1 10.159999999999998 -10.639426271017015 0 0 0 -1 I I #
straight-curve $-1 -1 $-1 10.159999999999998 10.639426271017015 0 0 0 -1 I I #
convexity-sys-attrib $-1 -1 $-1 $197 $145 #
point $-1 -1 $-1 -3.1749999999999989 2.2288525420340317 0 #
point $-1 -1 $-1 -6.3499999999999961 8.4105737289829818 1.1664375520158135e-015 #
straight-curve $-1 -1 $-1 -10.159999999999998 10.639426271017015 0 0 0 -1 I I #
point $-1 -1 $-1 -10.159999999999998 -10.639426271017015 -10.159999999999998 #
straight-curve $-1 -1 $-1 -10.159999999999998 0 -10.159999999999998 0 1 0 I I #
point $-1 -1 $-1 -10.159999999999998 10.639426271017015 -10.159999999999998 #
End-of-ACIS-data 