700 0 2 0           
24 FBMach with ACIS - 7.0.3 13 ACIS 7.0.3 NT 24 Wed May 15 14:39:20 2002 
1 9.9999999999999995e-007 1e-010 
body $2 -1 $-1 $3 $-1 $4 #
bdycol-kcp $-1 -1 1 3 $5 $6 $7 #
model_id-kcp-attrib $-1 -1 $-1 $-1 $0 1 1021487960 1021487960 1301544961 1 #
lump $-1 -1 $-1 $-1 $8 $0 #
transform $-1 -1 1 0 0 0 1 0 0 0 1 0 0 0 1 rotate no_reflect no_shear #
body $9 -1 $-1 $10 $-1 $11 #
body $12 -1 $-1 $13 $-1 $14 #
body $15 -1 $-1 $16 $-1 $17 #
shell $-1 -1 $-1 $-1 $-1 $18 $-1 $3 #
rgb_color-st-attrib $-1 -1 $19 $-1 $5 0.5 1 1 #
lump $-1 -1 $-1 $-1 $20 $5 #
transform $-1 -1 1 0 0 0 1 0 0 0 1 0 0 0 1 no_rotate no_reflect no_shear #
model_id-kcp-attrib $-1 -1 $-1 $-1 $6 1 1021487960 1021487960 1301544962 1 #
lump $-1 -1 $-1 $-1 $21 $6 #
transform $-1 -1 1 0 0 0 1 0 0 0 1 0 0 -2.2204460492503131e-016 1 no_rotate no_reflect no_shear #
rgb_color-st-attrib $-1 -1 $22 $-1 $7 0.5 1 1 #
lump $-1 -1 $-1 $-1 $23 $7 #
transform $-1 -1 1 0 0 0 1 0 0 0 1 0 0 -2.2204460492503131e-016 1 no_rotate no_reflect no_shear #
face $24 -1 $-1 $25 $26 $8 $-1 $27 reversed single #
model_id-kcp-attrib $-1 -1 $-1 $9 $5 1 1021487960 1021487960 1295253508 1 #
shell $-1 -1 $-1 $-1 $-1 $28 $-1 $10 #
shell $-1 -1 $-1 $-1 $-1 $29 $-1 $13 #
model_id-kcp-attrib $-1 -1 $-1 $15 $7 1 1021487960 1021487960 1308098563 1 #
shell $-1 -1 $-1 $-1 $-1 $30 $-1 $16 #
model_id-kcp-attrib $-1 -1 $-1 $-1 $18 1 1021487960 1021487960 1301544961 2 #
face $31 -1 $-1 $32 $33 $8 $-1 $34 forward single #
loop $-1 -1 $-1 $-1 $35 $18 #
cone-surface $-1 -1 $-1 -0.43656250000000052 0 0 1 0 0 0 -1.2699999999999998 0 1 I I 0 1 1.2699999999999998 forward I I I I #
face $-1 -1 $-1 $36 $37 $20 $-1 $38 forward single #
face $-1 -1 $-1 $39 $40 $21 $-1 $41 forward single #
face $-1 -1 $-1 $42 $43 $23 $-1 $44 reversed single #
model_id-kcp-attrib $-1 -1 $-1 $-1 $25 1 1021487960 1021487960 1301544961 3 #
face $45 -1 $-1 $46 $47 $8 $-1 $48 forward single #
loop $-1 -1 $-1 $49 $50 $25 #
plane-surface $-1 -1 $-1 0.39687499999999998 0 0 1 0 0 0 -25.399999999999999 0 forward_v I I I I #
coedge $-1 -1 $-1 $51 $52 $53 $54 forward $26 $-1 #
face $-1 -1 $-1 $55 $56 $20 $-1 $57 reversed single #
loop $-1 -1 $-1 $58 $59 $28 #
cone-surface $-1 -1 $-1 0.39687499999999998 0 8.8123952579621795e-017 -1 0 0 0 1.2699999999999998 -8.8123952579621795e-017 1 I I 0 1 1.2699999999999998 forward I I I I #
face $-1 -1 $-1 $60 $61 $21 $-1 $62 reversed single #
loop $-1 -1 $-1 $-1 $63 $29 #
plane-surface $-1 -1 $-1 0 0 3.9687500000000009 0 0 1 1 0 0 forward_v I I I I #
face $-1 -1 $-1 $64 $65 $23 $-1 $44 reversed single #
loop $-1 -1 $-1 $-1 $66 $30 #
cone-surface $-1 -1 $-1 0.39687499999999998 -1.1522391096663737e-047 -3.0669911055269942e-016 1 0 0 0 3.96875 1.0147593621509867e-015 1 I I 0 1 3.96875 forward I I I I #
model_id-kcp-attrib $-1 -1 $-1 $-1 $32 1 1021487960 1021487960 1301544961 4 #
face $67 -1 $-1 $68 $69 $8 $-1 $70 forward single #
loop $-1 -1 $-1 $-1 $71 $32 #
cone-surface $-1 -1 $-1 -0.43656250000000052 0 0 1 0 0 0 -3.96875 0 1 I I 0 1 3.96875 forward I I I I #
loop $-1 -1 $-1 $-1 $53 $25 #
coedge $-1 -1 $-1 $72 $72 $71 $73 reversed $33 $-1 #
coedge $-1 -1 $-1 $74 $35 $75 $76 reversed $26 $-1 #
coedge $-1 -1 $-1 $35 $74 $77 $78 forward $26 $-1 #
coedge $-1 -1 $-1 $79 $79 $35 $54 reversed $49 $-1 #
edge $80 -1 $-1 $81 1.224606353822377e-016 $82 3.1415926535897931 $35 $83 forward @7 unknown #
face $-1 -1 $-1 $-1 $84 $20 $-1 $85 forward single #
loop $-1 -1 $-1 $-1 $86 $36 #
plane-surface $-1 -1 $-1 -0.3968749999999997 1.2111523905001707e-016 1.1102230246251565e-016 1 -1.3755789546370492e-032 -2.2926315910617489e-033 -2.2926315910617489e-033 0 -1 forward_v I I I I #
loop $-1 -1 $-1 $-1 $87 $28 #
coedge $-1 -1 $-1 $59 $59 $86 $88 forward $37 $-1 #
face $-1 -1 $-1 $89 $90 $21 $-1 $91 reversed single #
loop $-1 -1 $-1 $-1 $92 $39 #
plane-surface $-1 -1 $-1 0 0 -3.9687500000000009 0 0 1 1 0 0 forward_v I I I I #
coedge $-1 -1 $-1 $93 $94 $95 $96 forward $40 $-1 #
face $-1 -1 $-1 $97 $98 $23 $-1 $44 reversed single #
loop $-1 -1 $-1 $-1 $99 $42 #
coedge $-1 -1 $-1 $100 $101 $102 $103 reversed $43 $-1 #
model_id-kcp-attrib $-1 -1 $-1 $-1 $46 1 1021487960 1021487960 1301544961 5 #
face $104 -1 $-1 $105 $106 $8 $-1 $107 reversed single #
loop $-1 -1 $-1 $-1 $108 $46 #
cone-surface $-1 -1 $-1 -0.43656250000000052 0 0 1 0 0 0 -3.96875 0 1 I I 0 1 3.96875 forward I I I I #
coedge $-1 -1 $-1 $109 $110 $50 $73 forward $47 $-1 #
coedge $-1 -1 $-1 $50 $50 $111 $112 forward $33 $-1 #
edge $113 -1 $-1 $114 0 $115 3.1415926535897936 $50 $116 forward @7 unknown #
coedge $-1 -1 $-1 $52 $51 $117 $118 reversed $26 $-1 #
coedge $-1 -1 $-1 $119 $120 $51 $76 forward $121 $-1 #
edge $-1 -1 $-1 $122 0 $82 0.03125 $51 $123 forward @7 unknown #
coedge $-1 -1 $-1 $120 $119 $52 $78 reversed $121 $-1 #
edge $-1 -1 $-1 $124 0 $81 0.03124999999999999 $52 $125 forward @7 unknown #
coedge $-1 -1 $-1 $53 $53 $119 $126 forward $49 $-1 #
attrib_edge_convexity-kcp-attrib $-1 -1 $127 $-1 $54 1 #
vertex $-1 -1 $-1 $78 $128 #
vertex $-1 -1 $-1 $76 $129 #
ellipse-curve $-1 -1 $-1 0.39687499999999998 0 8.8123952579621795e-017 1 0 0 0 1.2699999999999998 -8.8123952579621795e-017 1 I I #
loop $-1 -1 $-1 $-1 $130 $55 #
plane-surface $-1 -1 $-1 0.39687500000000003 1.2111523905001707e-016 1.1102230246251565e-016 1 -1.3755789546370492e-032 -2.2926315910617489e-033 -2.2926315910617489e-033 0 -1 forward_v I I I I #
coedge $-1 -1 $-1 $86 $86 $59 $88 reversed $56 $-1 #
coedge $-1 -1 $-1 $87 $87 $130 $131 reversed $58 $-1 #
edge $-1 -1 $-1 $132 1.2246063538223768e-016 $132 6.2831853071795862 $59 $133 forward @7 unknown #
face $134 -1 $-1 $135 $136 $21 $-1 $137 reversed single #
loop $-1 -1 $-1 $-1 $138 $60 #
plane-surface $-1 -1 $-1 0 -3.9687500000000004 0 0 1 0 0 0 1 forward_v I I I I #
coedge $-1 -1 $-1 $139 $140 $141 $142 forward $61 $-1 #
coedge $-1 -1 $-1 $143 $63 $144 $145 forward $40 $-1 #
coedge $-1 -1 $-1 $63 $143 $146 $147 forward $40 $-1 #
coedge $-1 -1 $-1 $148 $149 $63 $96 reversed $150 $-1 #
edge $-1 -1 $-1 $151 -3.9687500000000004 $152 3.9687500000000004 $95 $153 forward @7 unknown #
face $-1 -1 $-1 $154 $155 $23 $-1 $44 reversed single #
loop $-1 -1 $-1 $-1 $156 $64 #
coedge $-1 -1 $-1 $157 $158 $159 $160 reversed $65 $-1 #
coedge $-1 -1 $-1 $161 $66 $162 $163 forward $43 $-1 #
coedge $-1 -1 $-1 $66 $161 $164 $165 reversed $43 $-1 #
coedge $-1 -1 $-1 $166 $167 $66 $103 forward $168 $-1 #
edge $-1 -1 $-1 $169 -1.5707963267948968 $170 -2.5568739833725648e-016 $102 $171 forward @7 unknown #
model_id-kcp-attrib $-1 -1 $-1 $-1 $68 1 1021487960 1021487960 1301544961 6 #
face $172 -1 $-1 $-1 $121 $8 $-1 $173 reversed single #
loop $-1 -1 $-1 $174 $175 $68 #
plane-surface $-1 -1 $-1 -0.39687499999999998 0 0 1 0 0 0 -25.399999999999999 0 forward_v I I I I #
coedge $-1 -1 $-1 $176 $177 $178 $179 forward $69 $-1 #
coedge $-1 -1 $-1 $180 $71 $176 $181 forward $47 $-1 #
coedge $-1 -1 $-1 $71 $180 $177 $182 reversed $47 $-1 #
coedge $-1 -1 $-1 $177 $176 $72 $112 reversed $69 $-1 #
edge $183 -1 $-1 $114 1.2520825329318559e-032 $115 3.1415926535897931 $72 $184 forward @7 unknown #
attrib_edge_convexity-kcp-attrib $-1 -1 $185 $-1 $73 1 #
vertex $-1 -1 $-1 $112 $186 #
vertex $-1 -1 $-1 $112 $187 #
ellipse-curve $-1 -1 $-1 0.39687499999999998 -3.5249581031848718e-016 -7.0499162063697436e-016 -1 0 0 0 3.96875 1.1910072673102303e-015 1 I I #
coedge $-1 -1 $-1 $175 $175 $74 $118 forward $106 $-1 #
edge $-1 -1 $-1 $124 -1.5284210607078321e-032 $122 3.1415926535897931 $74 $188 forward @7 unknown #
coedge $-1 -1 $-1 $77 $75 $79 $126 reversed $121 $-1 #
coedge $-1 -1 $-1 $75 $77 $175 $189 forward $121 $-1 #
loop $-1 -1 $-1 $-1 $120 $105 #
vertex $-1 -1 $-1 $118 $190 #
straight-curve $-1 -1 $-1 -0.39687499999999998 -1.2699999999999998 -3.1105001387088376e-016 25.399999999999999 0 0 I I #
vertex $-1 -1 $-1 $78 $191 #
straight-curve $-1 -1 $-1 -0.39687499999999998 1.2699999999999998 1.5552500693544188e-016 25.399999999999999 0 0 I I #
edge $192 -1 $-1 $81 -1.2246063538223768e-016 $82 3.1415926535897931 $79 $193 forward @7 unknown #
convexity-sys-attrib $-1 -1 $-1 $80 $54 #
point $-1 -1 $-1 0.39687499999999981 1.2699999999999998 1.5552500693544188e-016 #
point $-1 -1 $-1 0.39687499999999998 -1.2699999999999998 0 #
coedge $-1 -1 $-1 $130 $130 $87 $131 forward $84 $-1 #
edge $-1 -1 $-1 $194 -3.1415926535897931 $194 3.1415926535897931 $87 $195 forward @7 unknown #
vertex $-1 -1 $-1 $88 $196 #
ellipse-curve $-1 -1 $-1 -0.39687499999999976 0 -8.8123952579621795e-017 1 0 0 0 1.2699999999999998 8.8123952579621795e-017 1 I I #
model_id-kcp-attrib $-1 -1 $-1 $-1 $89 1 1021487960 1021487960 1301544962 3 #
face $-1 -1 $-1 $197 $198 $21 $-1 $199 reversed single #
loop $-1 -1 $-1 $-1 $200 $89 #
plane-surface $-1 -1 $-1 -0.39687499999999998 0 0 1 0 0 0 0 -1 forward_v I I I I #
coedge $-1 -1 $-1 $201 $146 $202 $203 forward $90 $-1 #
coedge $-1 -1 $-1 $204 $92 $201 $205 forward $61 $-1 #
coedge $-1 -1 $-1 $92 $204 $206 $207 forward $61 $-1 #
coedge $-1 -1 $-1 $149 $148 $92 $142 reversed $150 $-1 #
edge $-1 -1 $-1 $208 -3.9687500000000004 $209 3.9687500000000004 $141 $210 forward @7 unknown #
coedge $-1 -1 $-1 $94 $93 $211 $212 forward $40 $-1 #
coedge $-1 -1 $-1 $213 $214 $93 $145 reversed $198 $-1 #
edge $-1 -1 $-1 $152 -0.39687499999999998 $215 0.39687499999999998 $144 $216 forward @7 unknown #
coedge $-1 -1 $-1 $138 $217 $94 $147 reversed $90 $-1 #
edge $-1 -1 $-1 $218 -0.39687499999999998 $151 0.39687499999999998 $146 $219 forward @7 unknown #
coedge $-1 -1 $-1 $141 $95 $217 $220 forward $150 $-1 #
coedge $-1 -1 $-1 $95 $141 $213 $221 reversed $150 $-1 #
loop $-1 -1 $-1 $-1 $148 $197 #
vertex $-1 -1 $-1 $96 $222 #
vertex $-1 -1 $-1 $96 $223 #
straight-curve $-1 -1 $-1 0.39687499999999998 0 3.9687500000000009 0 1 0 I I #
face $-1 -1 $-1 $224 $225 $23 $-1 $226 reversed single #
loop $-1 -1 $-1 $-1 $227 $97 #
coedge $-1 -1 $-1 $228 $229 $227 $230 forward $98 $-1 #
coedge $-1 -1 $-1 $231 $99 $232 $233 reversed $65 $-1 #
coedge $-1 -1 $-1 $99 $231 $101 $165 forward $65 $-1 #
coedge $-1 -1 $-1 $234 $235 $99 $160 forward $236 $-1 #
edge $-1 -1 $-1 $237 -1.5707963267948963 $238 2.5568739833725648e-016 $159 $239 forward @7 unknown #
coedge $-1 -1 $-1 $101 $100 $240 $241 reversed $43 $-1 #
coedge $-1 -1 $-1 $229 $228 $242 $163 reversed $98 $-1 #
edge $-1 -1 $-1 $169 -0.79374999999999996 $243 0 $242 $244 forward @7 unknown #
coedge $-1 -1 $-1 $245 $246 $247 $165 forward $248 $-1 #
edge $-1 -1 $-1 $170 -0.79374999999999996 $238 0 $164 $249 forward @7 unknown #
coedge $-1 -1 $-1 $167 $102 $246 $250 forward $168 $-1 #
coedge $-1 -1 $-1 $102 $166 $251 $252 reversed $168 $-1 #
loop $-1 -1 $-1 $-1 $102 $253 #
vertex $-1 -1 $-1 $252 $254 #
vertex $-1 -1 $-1 $250 $255 #
ellipse-curve $-1 -1 $-1 -0.39687499999999998 -1.1522391096663737e-047 -3.0669911055269942e-016 1 0 0 0 3.96875 1.0147593621509867e-015 1 I I #
model_id-kcp-attrib $-1 -1 $-1 $-1 $105 1 1021487960 1021487960 1301544961 7 #
cone-surface $-1 -1 $-1 -0.43656250000000052 0 0 1 0 0 0 -1.2699999999999998 0 1 I I 0 1 1.2699999999999998 forward I I I I #
loop $-1 -1 $-1 $-1 $178 $68 #
coedge $-1 -1 $-1 $117 $117 $120 $189 reversed $106 $-1 #
coedge $-1 -1 $-1 $111 $108 $109 $181 reversed $69 $-1 #
coedge $-1 -1 $-1 $108 $111 $110 $182 forward $69 $-1 #
coedge $-1 -1 $-1 $256 $256 $108 $179 reversed $174 $-1 #
edge $-1 -1 $-1 $257 1.2246063538223773e-016 $258 3.1415926535897931 $108 $259 forward @7 unknown #
coedge $-1 -1 $-1 $110 $109 $256 $260 reversed $47 $-1 #
edge $-1 -1 $-1 $115 0 $258 0.03125 $176 $261 forward @7 unknown #
edge $-1 -1 $-1 $114 0 $257 0.03125 $177 $262 forward @7 unknown #
attrib_edge_convexity-kcp-attrib $-1 -1 $263 $-1 $112 1 #
ellipse-curve $-1 -1 $-1 0.39687499999999998 3.5249581031848718e-016 3.5249581031848718e-016 1 0 0 0 3.96875 1.3351983635476877e-016 1 I I #
convexity-sys-attrib $-1 -1 $-1 $113 $73 #
point $-1 -1 $-1 0.39687499999999998 3.96875 4.8601564667325597e-016 #
point $-1 -1 $-1 0.39687499999999998 -3.96875 0 #
ellipse-curve $-1 -1 $-1 -0.39687499999999998 0 4.4061976289810898e-017 1 0 0 0 1.2699999999999998 1.1146303064563099e-016 1 I I #
edge $-1 -1 $-1 $124 0 $122 3.1415926535897936 $175 $264 forward @7 unknown #
point $-1 -1 $-1 -0.39687499999999998 -1.2699999999999998 0 #
point $-1 -1 $-1 -0.39687499999999998 1.2699999999999998 1.5552500693544188e-016 #
attrib_edge_convexity-kcp-attrib $-1 -1 $265 $-1 $126 1 #
ellipse-curve $-1 -1 $-1 0.39687499999999998 0 -8.8123952579621795e-017 -1 0 0 0 1.2699999999999998 8.8123952579621795e-017 1 I I #
vertex $-1 -1 $-1 $131 $266 #
ellipse-curve $-1 -1 $-1 0.39687499999999998 0 8.8123952579621795e-017 1 0 0 0 1.2699999999999998 -8.8123952579621795e-017 1 I I #
point $-1 -1 $-1 -0.39687499999999992 1.2699999999999998 1.5552500693544188e-016 #
face $267 -1 $-1 $-1 $150 $21 $-1 $268 reversed single #
loop $-1 -1 $-1 $-1 $213 $135 #
plane-surface $-1 -1 $-1 0 3.9687500000000004 0 0 -1 0 0 0 -1 forward_v I I I I #
coedge $-1 -1 $-1 $269 $211 $214 $270 forward $136 $-1 #
coedge $-1 -1 $-1 $217 $138 $139 $205 reversed $90 $-1 #
coedge $-1 -1 $-1 $211 $269 $138 $203 reversed $136 $-1 #
edge $-1 -1 $-1 $218 -3.9687500000000009 $271 3.9687500000000009 $202 $272 forward @7 unknown #
coedge $-1 -1 $-1 $140 $139 $269 $273 forward $61 $-1 #
edge $-1 -1 $-1 $209 -0.39687499999999998 $271 0.39687499999999998 $201 $274 forward @7 unknown #
coedge $-1 -1 $-1 $214 $213 $140 $207 reversed $198 $-1 #
edge $-1 -1 $-1 $275 -0.39687499999999998 $208 0.39687499999999998 $206 $276 forward @7 unknown #
vertex $-1 -1 $-1 $142 $277 #
vertex $-1 -1 $-1 $220 $278 #
straight-curve $-1 -1 $-1 0.39687499999999998 0 -3.9687500000000009 0 -1 0 I I #
coedge $-1 -1 $-1 $200 $202 $143 $212 reversed $136 $-1 #
edge $-1 -1 $-1 $215 -3.9687500000000004 $218 3.9687500000000004 $211 $279 forward @7 unknown #
coedge $-1 -1 $-1 $206 $144 $149 $221 forward $198 $-1 #
coedge $-1 -1 $-1 $144 $206 $200 $270 reversed $198 $-1 #
vertex $-1 -1 $-1 $145 $280 #
straight-curve $-1 -1 $-1 0 3.9687500000000004 3.9687500000000009 -1 0 0 I I #
coedge $-1 -1 $-1 $146 $201 $148 $220 reversed $90 $-1 #
vertex $-1 -1 $-1 $212 $281 #
straight-curve $-1 -1 $-1 0 -3.9687500000000004 3.9687500000000009 1 0 0 I I #
edge $-1 -1 $-1 $151 -3.9687500000000009 $209 3.9687500000000009 $148 $282 forward @7 unknown #
edge $-1 -1 $-1 $152 -3.9687500000000009 $208 3.9687500000000009 $149 $283 forward @7 unknown #
point $-1 -1 $-1 0.39687499999999998 -3.9687500000000004 3.9687500000000009 #
point $-1 -1 $-1 0.39687499999999998 3.9687500000000004 3.9687500000000009 #
face $-1 -1 $-1 $284 $285 $23 $-1 $286 forward single #
loop $-1 -1 $-1 $-1 $247 $154 #
plane-surface $-1 -1 $-1 0 3.9687500000000004 0 0 -1 0 0 0 -1 forward_v I I I I #
coedge $-1 -1 $-1 $287 $288 $289 $230 reversed $155 $-1 #
coedge $-1 -1 $-1 $162 $156 $290 $291 reversed $98 $-1 #
coedge $-1 -1 $-1 $156 $162 $292 $293 reversed $98 $-1 #
edge $-1 -1 $-1 $294 -0.79374999999999996 $295 0 $289 $296 forward @7 unknown #
coedge $-1 -1 $-1 $158 $157 $297 $298 reversed $65 $-1 #
coedge $-1 -1 $-1 $299 $300 $301 $233 forward $285 $-1 #
edge $-1 -1 $-1 $302 -0.79374999999999996 $237 0 $232 $303 forward @7 unknown #
coedge $-1 -1 $-1 $235 $159 $304 $305 reversed $236 $-1 #
coedge $-1 -1 $-1 $159 $234 $299 $306 reversed $236 $-1 #
loop $-1 -1 $-1 $-1 $159 $307 #
vertex $-1 -1 $-1 $306 $308 #
vertex $-1 -1 $-1 $309 $310 #
ellipse-curve $-1 -1 $-1 0.39687499999999998 -1.1522391096663737e-047 -3.0669911055269942e-016 -1 0 0 0 3.96875 1.0147593621509867e-015 1 I I #
coedge $-1 -1 $-1 $311 $312 $161 $241 forward $313 $-1 #
edge $-1 -1 $-1 $238 2.5568739833725648e-016 $243 1.5707963267948968 $240 $239 forward @7 unknown #
coedge $-1 -1 $-1 $314 $315 $316 $163 forward $317 $-1 #
vertex $-1 -1 $-1 $318 $319 #
straight-curve $-1 -1 $-1 0.39687499999999998 -1.1522391096663737e-047 -3.9687500000000009 1 0 0 I I #
coedge $-1 -1 $-1 $320 $164 $312 $309 forward $248 $-1 #
coedge $-1 -1 $-1 $164 $320 $166 $250 reversed $248 $-1 #
coedge $-1 -1 $-1 $321 $304 $158 $165 reversed $225 $-1 #
loop $-1 -1 $-1 $-1 $164 $322 #
straight-curve $-1 -1 $-1 0.39687499999999998 3.9687500000000004 -3.0669911055269942e-016 1 0 0 I I #
edge $-1 -1 $-1 $170 3.0669911055269942e-016 $323 3.9687500000000009 $246 $324 forward @7 unknown #
coedge $-1 -1 $-1 $325 $316 $167 $252 forward $326 $-1 #
edge $-1 -1 $-1 $169 -1.1522391096663737e-047 $323 3.9687500000000004 $167 $327 forward @7 unknown #
face $-1 -1 $-1 $328 $168 $23 $-1 $329 reversed single #
point $-1 -1 $-1 -0.39687499999999998 -1.1522391096663737e-047 -3.9687500000000009 #
point $-1 -1 $-1 -0.39687499999999998 3.9687500000000004 -3.0669911055269942e-016 #
coedge $-1 -1 $-1 $178 $178 $180 $260 forward $174 $-1 #
vertex $-1 -1 $-1 $182 $330 #
vertex $-1 -1 $-1 $181 $331 #
ellipse-curve $-1 -1 $-1 -0.39687499999999998 -1.7624790515924359e-016 5.2874371547773072e-016 1 0 0 0 3.96875 -5.2874371547773072e-016 1 I I #
edge $-1 -1 $-1 $257 -1.2246063538223773e-016 $258 3.1415926535897931 $256 $332 forward @7 unknown #
straight-curve $-1 -1 $-1 0.39687499999999998 -3.96875 -9.7203129334651195e-016 -25.399999999999999 0 0 I I #
straight-curve $-1 -1 $-1 0.39687499999999998 3.96875 4.8601564667325597e-016 -25.399999999999999 0 0 I I #
convexity-sys-attrib $-1 -1 $-1 $183 $112 #
ellipse-curve $-1 -1 $-1 -0.39687499999999998 -1.3218592886943268e-016 -1.7624790515924359e-016 -1 0 0 0 1.27 3.3177291209468547e-016 1 I I #
convexity-sys-attrib $-1 -1 $-1 $192 $126 #
point $-1 -1 $-1 0.39687499999999998 -1.2699999999999998 0 #
model_id-kcp-attrib $-1 -1 $-1 $-1 $197 1 1021487960 1021487960 1301544962 2 #
plane-surface $-1 -1 $-1 0.39687499999999998 0 0 -1 0 0 0 0 1 forward_v I I I I #
coedge $-1 -1 $-1 $202 $200 $204 $273 reversed $136 $-1 #
edge $-1 -1 $-1 $215 -3.9687500000000009 $275 3.9687500000000009 $214 $333 forward @7 unknown #
vertex $-1 -1 $-1 $273 $334 #
straight-curve $-1 -1 $-1 -0.39687499999999998 -3.9687500000000004 0 0 0 -1 I I #
edge $-1 -1 $-1 $271 -3.9687500000000004 $275 3.9687500000000004 $269 $335 forward @7 unknown #
straight-curve $-1 -1 $-1 0 -3.9687500000000004 -3.9687500000000009 -1 0 0 I I #
vertex $-1 -1 $-1 $207 $336 #
straight-curve $-1 -1 $-1 0 3.9687500000000004 -3.9687500000000009 1 0 0 I I #
point $-1 -1 $-1 0.39687499999999998 3.9687500000000004 -3.9687500000000009 #
point $-1 -1 $-1 0.39687499999999998 -3.9687500000000004 -3.9687500000000009 #
straight-curve $-1 -1 $-1 -0.39687499999999998 0 3.9687500000000009 0 -1 0 I I #
point $-1 -1 $-1 -0.39687499999999998 3.9687500000000004 3.9687500000000009 #
point $-1 -1 $-1 -0.39687499999999998 -3.9687500000000004 3.9687500000000009 #
straight-curve $-1 -1 $-1 0.39687499999999998 -3.9687500000000004 0 0 0 -1 I I #
straight-curve $-1 -1 $-1 0.39687499999999998 3.9687500000000004 0 0 0 -1 I I #
face $-1 -1 $-1 $307 $337 $23 $-1 $338 reversed single #
loop $-1 -1 $-1 $-1 $232 $224 #
plane-surface $-1 -1 $-1 0 0 3.9687500000000009 0 0 1 1 0 0 forward_v I I I I #
coedge $-1 -1 $-1 $339 $227 $340 $341 reversed $155 $-1 #
coedge $-1 -1 $-1 $227 $339 $342 $343 reversed $155 $-1 #
coedge $-1 -1 $-1 $344 $345 $346 $230 forward $347 $-1 #
coedge $-1 -1 $-1 $348 $349 $228 $291 forward $350 $-1 #
edge $-1 -1 $-1 $243 1.5707963267948968 $295 3.1415926535897931 $290 $239 forward @7 unknown #
coedge $-1 -1 $-1 $351 $352 $229 $293 forward $353 $-1 #
edge $-1 -1 $-1 $294 -3.1415926535897931 $169 -1.5707963267948968 $292 $171 forward @7 unknown #
vertex $-1 -1 $-1 $354 $355 #
vertex $-1 -1 $-1 $356 $357 #
straight-curve $-1 -1 $-1 0.39687499999999998 -3.9687500000000004 -3.0669911055269942e-016 1 0 0 I I #
coedge $-1 -1 $-1 $358 $359 $231 $298 forward $360 $-1 #
edge $-1 -1 $-1 $170 -2.5568739833725648e-016 $302 1.5707963267948963 $297 $171 forward @7 unknown #
coedge $-1 -1 $-1 $361 $232 $235 $306 forward $285 $-1 #
coedge $-1 -1 $-1 $232 $361 $358 $362 forward $285 $-1 #
coedge $-1 -1 $-1 $363 $364 $339 $233 reversed $365 $-1 #
vertex $-1 -1 $-1 $366 $367 #
straight-curve $-1 -1 $-1 0.39687499999999998 -1.1522391096663737e-047 3.9687500000000009 1 0 0 I I #
coedge $-1 -1 $-1 $247 $368 $234 $305 forward $225 $-1 #
edge $-1 -1 $-1 $369 -3.9687500000000009 $238 3.0669911055269942e-016 $234 $370 forward @7 unknown #
edge $-1 -1 $-1 $237 -1.1522391096663737e-047 $369 3.9687500000000004 $235 $371 forward @7 unknown #
face $-1 -1 $-1 $372 $236 $23 $-1 $338 reversed single #
point $-1 -1 $-1 0.39687499999999998 -1.1522391096663737e-047 3.9687500000000009 #
edge $-1 -1 $-1 $238 3.0669911055269942e-016 $373 3.9687500000000009 $312 $370 forward @7 unknown #
point $-1 -1 $-1 0.39687499999999998 3.9687500000000004 -3.0669911055269942e-016 #
coedge $-1 -1 $-1 $312 $240 $374 $375 reversed $313 $-1 #
coedge $-1 -1 $-1 $240 $311 $245 $309 reversed $313 $-1 #
loop $-1 -1 $-1 $-1 $240 $372 #
coedge $-1 -1 $-1 $376 $242 $349 $318 forward $317 $-1 #
coedge $-1 -1 $-1 $242 $376 $351 $377 forward $317 $-1 #
coedge $-1 -1 $-1 $251 $374 $100 $163 reversed $326 $-1 #
loop $-1 -1 $-1 $-1 $242 $378 #
edge $-1 -1 $-1 $243 1.1522391096663737e-047 $379 3.9687500000000004 $349 $380 forward @7 unknown #
point $-1 -1 $-1 0.39687499999999998 -1.1522391096663737e-047 -3.9687500000000009 #
coedge $-1 -1 $-1 $246 $245 $325 $381 reversed $248 $-1 #
coedge $-1 -1 $-1 $368 $247 $359 $382 reversed $225 $-1 #
face $-1 -1 $-1 $-1 $248 $23 $-1 $226 reversed single #
vertex $-1 -1 $-1 $381 $383 #
straight-curve $-1 -1 $-1 -0.39687499999999998 3.9687500000000004 0 0 0 -1 I I #
coedge $-1 -1 $-1 $374 $251 $320 $381 forward $326 $-1 #
loop $-1 -1 $-1 $-1 $316 $384 #
straight-curve $-1 -1 $-1 -0.39687499999999998 0 -3.9687500000000009 0 1 0 I I #
face $-1 -1 $-1 $385 $360 $23 $-1 $329 reversed single #
plane-surface $-1 -1 $-1 -0.39687499999999998 0 0 1 0 0 0 0 -1 forward_v I I I I #
point $-1 -1 $-1 -0.39687499999999998 3.96875 4.8601564667325597e-016 #
point $-1 -1 $-1 -0.39687499999999998 -3.96875 0 #
ellipse-curve $-1 -1 $-1 -0.39687499999999998 -1.7624790515924359e-016 -5.2874371547773072e-016 -1 0 0 0 3.96875 5.2874371547773072e-016 1 I I #
straight-curve $-1 -1 $-1 -0.39687499999999998 3.9687500000000004 0 0 0 -1 I I #
point $-1 -1 $-1 -0.39687499999999998 -3.9687500000000004 -3.9687500000000009 #
straight-curve $-1 -1 $-1 -0.39687499999999998 0 -3.9687500000000009 0 1 0 I I #
point $-1 -1 $-1 -0.39687499999999998 3.9687500000000004 -3.9687500000000009 #
loop $-1 -1 $-1 $-1 $342 $284 #
plane-surface $-1 -1 $-1 0.39687499999999998 0 0 -1 0 0 0 0 1 forward_v I I I I #
coedge $-1 -1 $-1 $288 $287 $157 $233 forward $155 $-1 #
coedge $-1 -1 $-1 $386 $387 $287 $341 forward $388 $-1 #
edge $-1 -1 $-1 $302 1.5707963267948963 $294 3.1415926535897931 $340 $171 forward @7 unknown #
coedge $-1 -1 $-1 $389 $390 $288 $343 forward $337 $-1 #
edge $-1 -1 $-1 $295 -3.1415926535897931 $237 -1.5707963267948963 $342 $239 forward @7 unknown #
coedge $-1 -1 $-1 $391 $289 $390 $392 reversed $347 $-1 #
coedge $-1 -1 $-1 $289 $391 $386 $393 forward $347 $-1 #
coedge $-1 -1 $-1 $394 $395 $156 $230 reversed $396 $-1 #
loop $-1 -1 $-1 $-1 $289 $397 #
coedge $-1 -1 $-1 $349 $290 $395 $356 forward $350 $-1 #
coedge $-1 -1 $-1 $290 $348 $314 $318 reversed $350 $-1 #
loop $-1 -1 $-1 $-1 $290 $398 #
coedge $-1 -1 $-1 $352 $292 $315 $377 reversed $353 $-1 #
coedge $-1 -1 $-1 $292 $351 $394 $354 reversed $353 $-1 #
loop $-1 -1 $-1 $-1 $292 $399 #
edge $-1 -1 $-1 $294 3.0669911055269942e-016 $400 3.9687500000000009 $352 $401 forward @7 unknown #
point $-1 -1 $-1 -0.39687499999999998 -3.9687500000000004 -3.0669911055269942e-016 #
edge $-1 -1 $-1 $295 3.0669911055269942e-016 $379 3.9687500000000009 $348 $402 forward @7 unknown #
point $-1 -1 $-1 0.39687499999999998 -3.9687500000000004 -3.0669911055269942e-016 #
coedge $-1 -1 $-1 $359 $297 $300 $362 reversed $360 $-1 #
coedge $-1 -1 $-1 $297 $358 $321 $382 forward $360 $-1 #
loop $-1 -1 $-1 $-1 $297 $328 #
coedge $-1 -1 $-1 $300 $299 $368 $403 forward $285 $-1 #
edge $-1 -1 $-1 $404 -3.9687500000000004 $302 1.1522391096663737e-047 $358 $405 forward @7 unknown #
coedge $-1 -1 $-1 $406 $301 $387 $366 forward $365 $-1 #
coedge $-1 -1 $-1 $301 $406 $389 $407 forward $365 $-1 #
loop $-1 -1 $-1 $-1 $301 $408 #
edge $-1 -1 $-1 $302 1.1522391096663737e-047 $409 3.9687500000000004 $387 $405 forward @7 unknown #
point $-1 -1 $-1 -0.39687499999999998 -1.1522391096663737e-047 3.9687500000000009 #
coedge $-1 -1 $-1 $304 $321 $361 $403 reversed $225 $-1 #
vertex $-1 -1 $-1 $306 $410 #
straight-curve $-1 -1 $-1 0.39687499999999998 3.9687500000000004 0 0 0 -1 I I #
straight-curve $-1 -1 $-1 0.39687499999999998 0 3.9687500000000009 0 1 0 I I #
face $-1 -1 $-1 $398 $313 $23 $-1 $338 reversed single #
vertex $-1 -1 $-1 $375 $411 #
coedge $-1 -1 $-1 $316 $325 $311 $375 forward $326 $-1 #
edge $-1 -1 $-1 $373 -3.9687500000000004 $243 1.1522391096663737e-047 $311 $380 forward @7 unknown #
coedge $-1 -1 $-1 $315 $314 $412 $413 forward $317 $-1 #
edge $-1 -1 $-1 $400 -3.9687500000000004 $169 -1.1522391096663737e-047 $351 $327 forward @7 unknown #
face $-1 -1 $-1 $397 $317 $23 $-1 $414 reversed single #
vertex $-1 -1 $-1 $356 $415 #
straight-curve $-1 -1 $-1 0.39687499999999998 0 -3.9687500000000009 0 -1 0 I I #
edge $-1 -1 $-1 $323 -0.39687499999999998 $373 0.39687499999999998 $320 $416 forward @7 unknown #
edge $-1 -1 $-1 $404 -3.9687500000000009 $170 3.0669911055269942e-016 $321 $324 forward @7 unknown #
point $-1 -1 $-1 -0.39687499999999998 3.9687500000000004 -3.9687500000000009 #
face $-1 -1 $-1 $399 $326 $23 $-1 $414 reversed single #
face $-1 -1 $-1 $417 $388 $23 $-1 $329 reversed single #
coedge $-1 -1 $-1 $387 $340 $345 $393 reversed $388 $-1 #
coedge $-1 -1 $-1 $340 $386 $363 $366 reversed $388 $-1 #
loop $-1 -1 $-1 $-1 $340 $385 #
coedge $-1 -1 $-1 $390 $342 $364 $407 reversed $337 $-1 #
coedge $-1 -1 $-1 $342 $389 $344 $392 forward $337 $-1 #
coedge $-1 -1 $-1 $345 $344 $406 $418 reversed $347 $-1 #
edge $-1 -1 $-1 $419 -3.9687500000000009 $295 3.0669911055269942e-016 $390 $402 forward @7 unknown #
edge $-1 -1 $-1 $409 -3.9687500000000009 $294 3.0669911055269942e-016 $386 $401 forward @7 unknown #
coedge $-1 -1 $-1 $412 $346 $352 $354 forward $396 $-1 #
coedge $-1 -1 $-1 $346 $412 $348 $356 reversed $396 $-1 #
loop $-1 -1 $-1 $-1 $346 $417 #
face $-1 -1 $-1 $322 $347 $23 $-1 $420 reversed single #
face $-1 -1 $-1 $384 $350 $23 $-1 $338 reversed single #
face $-1 -1 $-1 $253 $353 $23 $-1 $329 reversed single #
vertex $-1 -1 $-1 $377 $421 #
straight-curve $-1 -1 $-1 -0.39687499999999998 -3.9687500000000004 0 0 0 -1 I I #
straight-curve $-1 -1 $-1 0.39687499999999998 -3.9687500000000004 0 0 0 -1 I I #
edge $-1 -1 $-1 $369 -0.39687499999999998 $404 0.39687499999999998 $368 $422 forward @7 unknown #
vertex $-1 -1 $-1 $403 $423 #
straight-curve $-1 -1 $-1 -0.39687499999999998 0 3.9687500000000009 0 -1 0 I I #
coedge $-1 -1 $-1 $364 $363 $391 $418 forward $365 $-1 #
edge $-1 -1 $-1 $419 -3.9687500000000004 $237 -1.1522391096663737e-047 $389 $371 forward @7 unknown #
face $-1 -1 $-1 $378 $365 $23 $-1 $286 forward single #
vertex $-1 -1 $-1 $366 $424 #
point $-1 -1 $-1 0.39687499999999998 3.9687500000000004 3.9687500000000009 #
point $-1 -1 $-1 0.39687499999999998 3.9687500000000004 -3.9687500000000009 #
coedge $-1 -1 $-1 $395 $394 $376 $413 reversed $396 $-1 #
edge $-1 -1 $-1 $379 -0.39687499999999998 $400 0.39687499999999998 $412 $425 forward @7 unknown #
plane-surface $-1 -1 $-1 0 0 -3.9687500000000009 0 0 1 1 0 0 forward_v I I I I #
point $-1 -1 $-1 0.39687499999999998 -3.9687500000000004 -3.9687500000000009 #
straight-curve $-1 -1 $-1 0 3.9687500000000004 -3.9687500000000009 1 0 0 I I #
face $-1 -1 $-1 $408 $396 $23 $-1 $420 reversed single #
edge $-1 -1 $-1 $409 -0.39687499999999998 $419 0.39687499999999998 $391 $426 forward @7 unknown #
vertex $-1 -1 $-1 $407 $427 #
plane-surface $-1 -1 $-1 0 -3.9687500000000004 0 0 1 0 0 0 1 forward_v I I I I #
point $-1 -1 $-1 -0.39687499999999998 -3.9687500000000004 -3.9687500000000009 #
straight-curve $-1 -1 $-1 0 3.9687500000000004 3.9687500000000009 -1 0 0 I I #
point $-1 -1 $-1 -0.39687499999999998 3.9687500000000004 3.9687500000000009 #
point $-1 -1 $-1 -0.39687499999999998 -3.9687500000000004 3.9687500000000009 #
straight-curve $-1 -1 $-1 0 -3.9687500000000004 -3.9687500000000009 -1 0 0 I I #
straight-curve $-1 -1 $-1 0 -3.9687500000000004 3.9687500000000009 1 0 0 I I #
point $-1 -1 $-1 0.39687499999999998 -3.9687500000000004 3.9687500000000009 #
End-of-ACIS-data 