600 0 1 0           
89 GICL ACIS Healer - Source: /gicl/data5/repository/PTC/V18/process18/hw25-10.prt.sat - 6 0 18 ACIS 6.0.3 Solaris 24 Sat Apr 13 21:18:09 2002 
1 9.999999999999999547e-07 1.000000000000000036e-10 
body $-1 $1 $-1 $-1 #
lump $-1 $-1 $2 $0 #
shell $-1 $-1 $-1 $3 $-1 $1 #
face $-1 $4 $5 $2 $-1 $6 reversed single #
face $-1 $7 $8 $2 $-1 $9 forward single #
loop $-1 $-1 $10 $3 #
cone-surface $-1 -0.4365625000000005196 0 0 1 0 0 0 -1.269999999999999796 0 1 I I 0 1 1.269999999999999796 forward I I I I #
face $-1 $11 $12 $2 $-1 $13 forward single #
loop $-1 $14 $15 $4 #
plane-surface $-1 0.3968749999999999778 0 0 1 0 0 0 -25.39999999999999858 0 forward_v I I I I #
coedge $-1 $16 $17 $18 $19 forward $5 $-1 #
face $-1 $20 $21 $2 $-1 $22 forward single #
loop $-1 $-1 $23 $7 #
cone-surface $-1 -0.4365625000000005196 0 0 1 0 0 0 -3.96875 0 1 I I 0 1 3.96875 forward I I I I #
loop $-1 $-1 $18 $4 #
coedge $-1 $24 $24 $23 $25 reversed $8 $-1 #
coedge $-1 $26 $10 $27 $28 reversed $5 $-1 #
coedge $-1 $10 $26 $29 $30 forward $5 $-1 #
coedge $-1 $31 $31 $10 $19 reversed $14 $-1 #
edge $-1 $32 1.224606353822377012e-16 $33 3.141592653589793116 $10 $34 forward 7 unknown #
face $-1 $35 $36 $2 $-1 $37 reversed single #
loop $-1 $-1 $38 $11 #
cone-surface $-1 -0.4365625000000005196 0 0 1 0 0 0 -3.96875 0 1 I I 0 1 3.96875 forward I I I I #
coedge $-1 $39 $40 $15 $25 forward $12 $-1 #
coedge $-1 $15 $15 $41 $42 forward $8 $-1 #
edge $-1 $43 0 $44 3.14159265358979356 $15 $45 forward 7 unknown #
coedge $-1 $17 $16 $46 $47 reversed $5 $-1 #
coedge $-1 $48 $49 $16 $28 forward $50 $-1 #
edge $-1 $51 0 $33 0.03125 $16 $52 forward 7 unknown #
coedge $-1 $49 $48 $17 $30 reversed $50 $-1 #
edge $-1 $53 0 $32 0.03124999999999998959 $17 $54 forward 7 unknown #
coedge $-1 $18 $18 $48 $55 forward $14 $-1 #
vertex $-1 $30 $56 #
vertex $-1 $28 $57 #
ellipse-curve $-1 0.3968749999999999778 0 8.812395257962179547e-17 1 0 0 0 1.269999999999999796 -8.812395257962179547e-17 1 I I #
face $-1 $-1 $50 $2 $-1 $58 reversed single #
loop $-1 $59 $60 $20 #
plane-surface $-1 -0.3968749999999999778 0 0 1 0 0 0 -25.39999999999999858 0 forward_v I I I I #
coedge $-1 $61 $62 $63 $64 forward $21 $-1 #
coedge $-1 $65 $23 $61 $66 forward $12 $-1 #
coedge $-1 $23 $65 $62 $67 reversed $12 $-1 #
coedge $-1 $62 $61 $24 $42 reversed $21 $-1 #
edge $-1 $43 1.25208253293185592e-32 $44 3.141592653589793116 $24 $68 forward 7 unknown #
vertex $-1 $42 $69 #
vertex $-1 $42 $70 #
ellipse-curve $-1 0.3968749999999999778 -3.524958103184871819e-16 -7.049916206369743637e-16 -1 0 0 0 3.96875 1.191007267310230338e-15 1 I I #
coedge $-1 $60 $60 $26 $47 forward $36 $-1 #
edge $-1 $53 -1.528421060707832112e-32 $51 3.141592653589793116 $26 $71 forward 7 unknown #
coedge $-1 $29 $27 $31 $55 reversed $50 $-1 #
coedge $-1 $27 $29 $60 $72 forward $50 $-1 #
loop $-1 $-1 $49 $35 #
vertex $-1 $47 $73 #
straight-curve $-1 -0.3968749999999999778 -1.269999999999999796 -3.110500138708837565e-16 25.39999999999999858 0 0 I I #
vertex $-1 $30 $74 #
straight-curve $-1 -0.3968749999999999778 1.269999999999999796 1.555250069354418783e-16 25.39999999999999858 0 0 I I #
edge $-1 $32 -1.224606353822376765e-16 $33 3.141592653589793116 $31 $75 forward 7 unknown #
point $-1 0.3968749999999998113 1.269999999999999796 1.555250069354418783e-16 #
point $-1 0.3968749999999999778 -1.269999999999999796 0 #
cone-surface $-1 -0.4365625000000005196 0 0 1 0 0 0 -1.269999999999999796 0 1 I I 0 1 1.269999999999999796 forward I I I I #
loop $-1 $-1 $63 $20 #
coedge $-1 $46 $46 $49 $72 reversed $36 $-1 #
coedge $-1 $41 $38 $39 $66 reversed $21 $-1 #
coedge $-1 $38 $41 $40 $67 forward $21 $-1 #
coedge $-1 $76 $76 $38 $64 reversed $59 $-1 #
edge $-1 $77 1.224606353822377258e-16 $78 3.141592653589793116 $38 $79 forward 7 unknown #
coedge $-1 $40 $39 $76 $80 reversed $12 $-1 #
edge $-1 $44 0 $78 0.03125 $61 $81 forward 7 unknown #
edge $-1 $43 0 $77 0.03125 $62 $82 forward 7 unknown #
ellipse-curve $-1 0.3968749999999999778 3.524958103184871819e-16 3.524958103184871819e-16 1 0 0 0 3.96875 1.335198363547687678e-16 1 I I #
point $-1 0.3968749999999999778 3.96875 4.860156466732559744e-16 #
point $-1 0.3968749999999999778 -3.96875 0 #
ellipse-curve $-1 -0.3968749999999999778 0 4.406197628981089773e-17 1 0 0 0 1.269999999999999796 1.114630306456309929e-16 1 I I #
edge $-1 $53 0 $51 3.14159265358979356 $60 $83 forward 7 unknown #
point $-1 -0.3968749999999999778 -1.269999999999999796 0 #
point $-1 -0.3968749999999999778 1.269999999999999796 1.555250069354418783e-16 #
ellipse-curve $-1 0.3968749999999999778 0 -8.812395257962179547e-17 -1 0 0 0 1.269999999999999796 8.812395257962179547e-17 1 I I #
coedge $-1 $63 $63 $65 $80 forward $59 $-1 #
vertex $-1 $67 $84 #
vertex $-1 $66 $85 #
ellipse-curve $-1 -0.3968749999999999778 -1.762479051592435909e-16 5.287437154777307235e-16 1 0 0 0 3.96875 -5.287437154777307235e-16 1 I I #
edge $-1 $77 -1.224606353822377258e-16 $78 3.141592653589793116 $76 $86 forward 7 unknown #
straight-curve $-1 0.3968749999999999778 -3.96875 -9.720312933465119487e-16 -25.39999999999999858 0 0 I I #
straight-curve $-1 0.3968749999999999778 3.96875 4.860156466732559744e-16 -25.39999999999999858 0 0 I I #
ellipse-curve $-1 -0.3968749999999999778 -1.321859288694326809e-16 -1.762479051592435909e-16 -1 0 0 0 1.270000000000000018 3.317729120946854692e-16 1 I I #
point $-1 -0.3968749999999999778 3.96875 4.860156466732559744e-16 #
point $-1 -0.3968749999999999778 -3.96875 0 #
ellipse-curve $-1 -0.3968749999999999778 -1.762479051592435909e-16 -5.287437154777307235e-16 -1 0 0 0 3.96875 5.287437154777307235e-16 1 I I #
End-of-ACIS-data 