600 0 1 0           
92 GICL Pro/E ACIS Translator - Source: f:/data5/repository/PTC/V18/process18/hw25-10.prt - 6 0 13 ACIS 6.0.3 NT 24 Thu Apr 04 13:31:05 2002 
1 9.9999999999999995e-007 1e-010 
body $-1 $1 $-1 $2 #
lump $-1 $-1 $3 $0 #
transform $-1 1 0 0 0 1 0 0 0 1 0 0 0 25.399999999999999 no_rotate no_reflect no_shear #
shell $-1 $-1 $-1 $4 $-1 $1 #
face $-1 $5 $6 $3 $-1 $7 reversed single #
face $-1 $8 $9 $3 $-1 $10 forward single #
loop $-1 $-1 $11 $4 #
cone-surface $-1 -0.017187500000000022 0 0 1 0 0 0 -0.049999999999999996 0 1 I I 0 1 0.049999999999999996 forward I I I I #
face $-1 $12 $13 $3 $-1 $14 forward single #
loop $-1 $15 $16 $5 #
plane-surface $-1 0.015625 0 0 1 0 0 0 -1 0 forward_v I I I I #
coedge $-1 $17 $18 $19 $20 forward $6 $-1 #
face $-1 $21 $22 $3 $-1 $23 forward single #
loop $-1 $-1 $24 $8 #
cone-surface $-1 -0.017187500000000022 0 0 1 0 0 0 -0.15625 0 1 I I 0 1 0.15625 forward I I I I #
loop $-1 $-1 $19 $5 #
coedge $-1 $25 $25 $24 $26 reversed $9 $-1 #
coedge $-1 $27 $11 $28 $29 reversed $6 $-1 #
coedge $-1 $11 $27 $30 $31 forward $6 $-1 #
coedge $-1 $32 $32 $11 $20 reversed $15 $-1 #
edge $-1 $33 1.2246063538223773e-016 $34 3.1415926535897931 $11 $35 forward 7 unknown #
face $-1 $36 $37 $3 $-1 $38 reversed single #
loop $-1 $-1 $39 $12 #
cone-surface $-1 -0.017187500000000022 0 0 1 0 0 0 -0.15625 0 1 I I 0 1 0.15625 forward I I I I #
coedge $-1 $40 $41 $16 $26 forward $13 $-1 #
coedge $-1 $16 $16 $42 $43 forward $9 $-1 #
edge $-1 $44 0 $45 3.1415926535897936 $16 $46 forward 7 unknown #
coedge $-1 $18 $17 $47 $48 reversed $6 $-1 #
coedge $-1 $49 $50 $17 $29 forward $51 $-1 #
edge $-1 $52 0 $34 0.03125 $17 $53 forward 7 unknown #
coedge $-1 $50 $49 $18 $31 reversed $51 $-1 #
edge $-1 $54 0 $33 0.031249999999999993 $18 $55 forward 7 unknown #
coedge $-1 $19 $19 $49 $56 forward $15 $-1 #
vertex $-1 $31 $57 #
vertex $-1 $29 $58 #
ellipse-curve $-1 0.015625 0 3.4694469519536142e-018 1 0 0 0 0.049999999999999996 -3.4694469519536142e-018 1 I I #
face $-1 $-1 $51 $3 $-1 $59 reversed single #
loop $-1 $60 $61 $21 #
plane-surface $-1 -0.015625 0 0 1 0 0 0 -1 0 forward_v I I I I #
coedge $-1 $62 $63 $64 $65 forward $22 $-1 #
coedge $-1 $66 $24 $62 $67 forward $13 $-1 #
coedge $-1 $24 $66 $63 $68 reversed $13 $-1 #
coedge $-1 $63 $62 $25 $43 reversed $22 $-1 #
edge $-1 $44 0 $45 3.1415926535897931 $25 $69 forward 7 unknown #
vertex $-1 $43 $70 #
vertex $-1 $43 $71 #
ellipse-curve $-1 0.015625 -1.3877787807814457e-017 -2.7755575615628914e-017 -1 0 0 0 0.15625 4.6890049894103558e-017 1 I I #
coedge $-1 $61 $61 $27 $48 forward $37 $-1 #
edge $-1 $54 0 $52 3.1415926535897931 $27 $72 forward 7 unknown #
coedge $-1 $30 $28 $32 $56 reversed $51 $-1 #
coedge $-1 $28 $30 $61 $73 forward $51 $-1 #
loop $-1 $-1 $50 $36 #
vertex $-1 $48 $74 #
straight-curve $-1 -0.015625 -0.049999999999999996 -1.2246063538223771e-017 1 0 0 I I #
vertex $-1 $31 $75 #
straight-curve $-1 -0.015625 0.049999999999999996 6.1230317691118857e-018 1 0 0 I I #
edge $-1 $33 -1.2246063538223773e-016 $34 3.1415926535897931 $32 $76 forward 7 unknown #
point $-1 0.015624999999999993 0.049999999999999996 6.1230317691118857e-018 #
point $-1 0.015625 -0.049999999999999996 0 #
cone-surface $-1 -0.017187500000000022 0 0 1 0 0 0 -0.049999999999999996 0 1 I I 0 1 0.049999999999999996 forward I I I I #
loop $-1 $-1 $64 $21 #
coedge $-1 $47 $47 $50 $73 reversed $37 $-1 #
coedge $-1 $42 $39 $40 $67 reversed $22 $-1 #
coedge $-1 $39 $42 $41 $68 forward $22 $-1 #
coedge $-1 $77 $77 $39 $65 reversed $60 $-1 #
edge $-1 $78 1.2246063538223773e-016 $79 3.1415926535897931 $39 $80 forward 7 unknown #
coedge $-1 $41 $40 $77 $81 reversed $13 $-1 #
edge $-1 $45 0 $79 0.03125 $62 $82 forward 7 unknown #
edge $-1 $44 0 $78 0.03125 $63 $83 forward 7 unknown #
ellipse-curve $-1 0.015625 1.3877787807814457e-017 1.3877787807814457e-017 1 0 0 0 0.15625 5.2566864706601879e-018 1 I I #
point $-1 0.015625 0.15625 1.9134474278474645e-017 #
point $-1 0.015625 -0.15625 0 #
ellipse-curve $-1 -0.015625 0 1.7347234759768071e-018 1 0 0 0 0.049999999999999996 4.3883082931350786e-018 1 I I #
edge $-1 $54 0 $52 3.1415926535897936 $61 $84 forward 7 unknown #
point $-1 -0.015625 -0.049999999999999996 0 #
point $-1 -0.015625 0.049999999999999996 6.1230317691118857e-018 #
ellipse-curve $-1 0.015625 0 -3.4694469519536142e-018 -1 0 0 0 0.049999999999999996 3.4694469519536142e-018 1 I I #
coedge $-1 $64 $64 $66 $81 forward $60 $-1 #
vertex $-1 $68 $85 #
vertex $-1 $67 $86 #
ellipse-curve $-1 -0.015625 -6.9388939039072284e-018 2.0816681711721685e-017 1 0 0 0 0.15625 -2.0816681711721685e-017 1 I I #
edge $-1 $78 -1.2246063538223773e-016 $79 3.1415926535897931 $77 $87 forward 7 unknown #
straight-curve $-1 0.015625 -0.15625 -3.8268948556949289e-017 -1 0 0 I I #
straight-curve $-1 0.015625 0.15625 1.9134474278474645e-017 -1 0 0 I I #
ellipse-curve $-1 -0.015625 -5.2041704279304213e-018 -6.9388939039072284e-018 -1 0 0 0 0.050000000000000003 1.3061925673019114e-017 1 I I #
point $-1 -0.015625 0.15625 1.9134474278474645e-017 #
point $-1 -0.015625 -0.15625 0 #
ellipse-curve $-1 -0.015625 -6.9388939039072284e-018 -2.0816681711721685e-017 -1 0 0 0 0.15625 2.0816681711721685e-017 1 I I #
End-of-ACIS-data 