600 0 1 0           
85 GICL ACIS Healer - Source: /gicl/data5/repository/PTC/V18/process18/hw25-15.sat - 6 0 18 ACIS 6.0.3 Solaris 24 Sat Apr 13 21:17:19 2002 
1 9.999999999999999547e-07 1.000000000000000036e-10 
body $-1 $1 $-1 $-1 #
lump $-1 $-1 $2 $0 #
shell $-1 $-1 $-1 $3 $-1 $1 #
face $-1 $4 $5 $2 $-1 $6 reversed single #
face $-1 $7 $8 $2 $-1 $9 forward single #
loop $-1 $10 $11 $3 #
plane-surface $-1 0 0 0 0 0 1 25.39999999999999858 0 0 forward_v I I I I #
face $-1 $12 $13 $2 $-1 $14 forward single #
loop $-1 $-1 $15 $4 #
cone-surface $-1 0 0 0 0 0 1 6.349999999999999645 0 0 1 I I 0 1 6.349999999999999645 forward I I I I #
loop $-1 $-1 $16 $3 #
coedge $-1 $17 $17 $18 $19 reversed $5 $-1 #
face $-1 $20 $21 $2 $-1 $22 forward single #
loop $-1 $-1 $23 $7 #
cone-surface $-1 0 0 0 0 0 1 6.349999999999999645 0 0 1 I I 0 1 6.349999999999999645 forward I I I I #
coedge $-1 $24 $18 $25 $26 forward $8 $-1 #
coedge $-1 $27 $27 $28 $29 reversed $10 $-1 #
coedge $-1 $11 $11 $30 $31 reversed $5 $-1 #
coedge $-1 $15 $32 $11 $19 forward $8 $-1 #
edge $-1 $33 0 $34 3.141592653589793116 $11 $35 forward 7 unknown #
face $-1 $36 $37 $2 $-1 $38 reversed single #
loop $-1 $39 $40 $12 #
plane-surface $-1 0 0 1.269999999999999796 0 0 1 25.39999999999999858 0 0 forward_v I I I I #
coedge $-1 $41 $30 $32 $42 forward $13 $-1 #
coedge $-1 $32 $15 $40 $43 reversed $8 $-1 #
coedge $-1 $30 $41 $15 $26 reversed $13 $-1 #
edge $-1 $34 0 $44 0.04999999999999999584 $25 $45 forward 7 unknown #
coedge $-1 $16 $16 $46 $47 reversed $10 $-1 #
coedge $-1 $48 $49 $16 $29 forward $37 $-1 #
edge $-1 $50 0 $51 3.141592653589793116 $16 $52 forward 7 unknown #
coedge $-1 $23 $25 $17 $31 forward $13 $-1 #
edge $-1 $34 0 $33 3.141592653589793116 $17 $53 forward 7 unknown #
coedge $-1 $18 $24 $23 $42 reversed $8 $-1 #
vertex $-1 $31 $54 #
vertex $-1 $31 $55 #
ellipse-curve $-1 0 0 0 0 0 1 -6.349999999999999645 0 0 1 I I #
face $-1 $-1 $56 $2 $-1 $57 reversed single #
loop $-1 $-1 $48 $20 #
cone-surface $-1 0 0 0 0 0 1 3.174999999999999822 0 0 1 I I 0 1 3.174999999999999822 forward I I I I #
loop $-1 $-1 $58 $12 #
coedge $-1 $59 $59 $24 $43 forward $21 $-1 #
coedge $-1 $25 $23 $59 $60 reversed $13 $-1 #
edge $-1 $33 0 $61 0.04999999999999999584 $23 $62 forward 7 unknown #
edge $-1 $61 0 $44 3.141592653589793116 $40 $63 forward 7 unknown #
vertex $-1 $60 $64 #
straight-curve $-1 6.349999999999999645 0 0 0 0 25.39999999999999858 I I #
coedge $-1 $65 $66 $27 $47 forward $56 $-1 #
edge $-1 $51 0 $50 3.141592653589793116 $27 $67 forward 7 unknown #
coedge $-1 $68 $28 $66 $69 forward $37 $-1 #
coedge $-1 $28 $68 $65 $70 reversed $37 $-1 #
vertex $-1 $47 $71 #
vertex $-1 $47 $72 #
ellipse-curve $-1 0 0 0 0 0 -1 -3.174999999999999822 0 0 1 I I #
ellipse-curve $-1 0 0 0 0 0 1 6.349999999999999645 0 0 1 I I #
point $-1 -6.349999999999999645 0 0 #
point $-1 6.349999999999999645 0 0 #
loop $-1 $-1 $65 $36 #
cone-surface $-1 0 0 0 0 0 1 3.174999999999999822 0 0 1 I I 0 1 3.174999999999999822 forward I I I I #
coedge $-1 $73 $73 $68 $74 forward $39 $-1 #
coedge $-1 $40 $40 $41 $60 forward $21 $-1 #
edge $-1 $44 0 $61 3.141592653589793116 $59 $75 forward 7 unknown #
vertex $-1 $60 $76 #
straight-curve $-1 -6.349999999999999645 7.776250346772095392e-16 0 0 0 25.39999999999999858 I I #
ellipse-curve $-1 0 0 1.269999999999999796 0 0 1 -6.349999999999999645 0 0 1 I I #
point $-1 6.349999999999999645 0 1.269999999999999796 #
coedge $-1 $77 $46 $49 $70 forward $56 $-1 #
coedge $-1 $46 $77 $48 $69 reversed $56 $-1 #
ellipse-curve $-1 0 0 0 0 0 -1 3.174999999999999822 0 0 1 I I #
coedge $-1 $49 $48 $58 $74 reversed $37 $-1 #
edge $-1 $51 0 $78 0.04999999999999999584 $66 $79 forward 7 unknown #
edge $-1 $50 0 $80 0.04999999999999999584 $65 $81 forward 7 unknown #
point $-1 -3.174999999999999822 0 0 #
point $-1 3.174999999999999822 0 0 #
coedge $-1 $58 $58 $77 $82 forward $39 $-1 #
edge $-1 $80 0 $78 3.141592653589793116 $58 $83 forward 7 unknown #
ellipse-curve $-1 0 0 1.269999999999999796 0 0 1 6.349999999999999645 0 0 1 I I #
point $-1 -6.349999999999999645 0 1.269999999999999796 #
coedge $-1 $66 $65 $73 $82 reversed $56 $-1 #
vertex $-1 $82 $84 #
straight-curve $-1 3.174999999999999822 0 0 0 -1.555250069354419433e-14 25.39999999999999858 I I #
vertex $-1 $82 $85 #
straight-curve $-1 -3.174999999999999822 3.888125173386047696e-16 0 0 0 25.39999999999999858 I I #
edge $-1 $78 0 $80 3.141592653589793116 $73 $86 forward 7 unknown #
ellipse-curve $-1 8.812395257962179547e-17 -1.762479051592435909e-16 1.269999999999999796 0 0 -1 -3.174999999999999822 1.762479051592435909e-16 0 1 I I #
point $-1 3.174999999999999822 0 1.269999999999999796 #
point $-1 -3.174999999999999822 0 1.269999999999999796 #
ellipse-curve $-1 0 -8.812395257962179547e-17 1.269999999999999796 0 0 -1 3.174999999999999822 8.812395257962179547e-17 0 1 I I #
End-of-ACIS-data 