700 0 2 0           
24 FBMach with ACIS - 7.0.3 13 ACIS 7.0.3 NT 24 Wed May 15 14:36:42 2002 
1 9.9999999999999995e-007 1e-010 
body $2 -1 $-1 $3 $-1 $4 #
bdycol-kcp $-1 -1 1 3 $5 $6 $7 #
model_id-kcp-attrib $-1 -1 $-1 $-1 $0 1 1021487802 1021487802 -79626239 1 #
lump $-1 -1 $-1 $-1 $8 $0 #
transform $-1 -1 1 0 0 0 1 0 0 0 1 0 0 0 1 rotate no_reflect no_shear #
body $9 -1 $-1 $10 $-1 $11 #
body $12 -1 $-1 $13 $-1 $14 #
body $15 -1 $-1 $16 $-1 $17 #
shell $-1 -1 $-1 $-1 $-1 $18 $-1 $3 #
model_id-kcp-attrib $-1 -1 $-1 $-1 $5 1 1021487802 1021487802 -79626238 1 #
lump $-1 -1 $-1 $-1 $19 $5 #
transform $-1 -1 1 0 0 0 1 0 0 0 1 0 0 -2.2204460492503131e-016 1 no_rotate no_reflect no_shear #
rgb_color-st-attrib $-1 -1 $20 $-1 $6 0.5 1 1 #
lump $-1 -1 $-1 $-1 $21 $6 #
transform $-1 -1 1 0 0 0 1 0 0 0 1 0 0 -2.2204460492503131e-016 1 no_rotate no_reflect no_shear #
rgb_color-st-attrib $-1 -1 $22 $-1 $7 0.5 1 1 #
lump $-1 -1 $-1 $-1 $23 $7 #
transform $-1 -1 1 0 0 0 1 0 0 0 1 0 0 0 1 no_rotate no_reflect no_shear #
face $24 -1 $-1 $25 $26 $8 $-1 $27 reversed single #
shell $-1 -1 $-1 $-1 $-1 $28 $-1 $10 #
model_id-kcp-attrib $-1 -1 $-1 $12 $6 1 1021487802 1021487802 -73072637 1 #
shell $-1 -1 $-1 $-1 $-1 $29 $-1 $13 #
model_id-kcp-attrib $-1 -1 $-1 $15 $7 1 1021487802 1021487802 -69140476 1 #
shell $-1 -1 $-1 $-1 $-1 $30 $-1 $16 #
model_id-kcp-attrib $-1 -1 $-1 $-1 $18 1 1021487802 1021487802 -79626239 2 #
face $31 -1 $-1 $32 $33 $8 $-1 $34 forward single #
loop $-1 -1 $-1 $-1 $35 $18 #
cone-surface $-1 -1 $-1 -0.43656250000000052 0 0 1 0 0 0 -1.2699999999999998 0 1 I I 0 1 1.2699999999999998 forward I I I I #
face $-1 -1 $-1 $36 $37 $19 $-1 $38 forward single #
face $-1 -1 $-1 $39 $40 $21 $-1 $41 reversed single #
face $-1 -1 $-1 $42 $43 $23 $-1 $44 forward single #
model_id-kcp-attrib $-1 -1 $-1 $-1 $25 1 1021487802 1021487802 -79626239 3 #
face $45 -1 $-1 $46 $47 $8 $-1 $48 forward single #
loop $-1 -1 $-1 $49 $50 $25 #
plane-surface $-1 -1 $-1 0.39687499999999998 0 0 1 0 0 0 -25.399999999999999 0 forward_v I I I I #
coedge $-1 -1 $-1 $51 $52 $53 $54 forward $26 $-1 #
face $-1 -1 $-1 $55 $56 $19 $-1 $57 reversed single #
loop $-1 -1 $-1 $-1 $58 $28 #
plane-surface $-1 -1 $-1 0 0 3.9687500000000009 0 0 1 1 0 0 forward_v I I I I #
face $-1 -1 $-1 $59 $60 $21 $-1 $41 reversed single #
loop $-1 -1 $-1 $-1 $61 $29 #
cone-surface $-1 -1 $-1 0.39687499999999998 -1.1522391096663737e-047 -3.0669911055269942e-016 1 0 0 0 3.96875 1.0147593621509867e-015 1 I I 0 1 3.96875 forward I I I I #
face $-1 -1 $-1 $62 $63 $23 $-1 $64 reversed single #
loop $-1 -1 $-1 $65 $66 $30 #
cone-surface $-1 -1 $-1 0.39687499999999998 0 8.8123952579621795e-017 -1 0 0 0 1.2699999999999998 -8.8123952579621795e-017 1 I I 0 1 1.2699999999999998 forward I I I I #
model_id-kcp-attrib $-1 -1 $-1 $-1 $32 1 1021487802 1021487802 -79626239 4 #
face $67 -1 $-1 $68 $69 $8 $-1 $70 forward single #
loop $-1 -1 $-1 $-1 $71 $32 #
cone-surface $-1 -1 $-1 -0.43656250000000052 0 0 1 0 0 0 -3.96875 0 1 I I 0 1 3.96875 forward I I I I #
loop $-1 -1 $-1 $-1 $53 $25 #
coedge $-1 -1 $-1 $72 $72 $71 $73 reversed $33 $-1 #
coedge $-1 -1 $-1 $74 $35 $75 $76 reversed $26 $-1 #
coedge $-1 -1 $-1 $35 $74 $77 $78 forward $26 $-1 #
coedge $-1 -1 $-1 $79 $79 $35 $54 reversed $49 $-1 #
edge $80 -1 $-1 $81 1.224606353822377e-016 $82 3.1415926535897931 $35 $83 forward @7 unknown #
face $-1 -1 $-1 $84 $85 $19 $-1 $86 reversed single #
loop $-1 -1 $-1 $-1 $87 $36 #
plane-surface $-1 -1 $-1 0 0 -3.9687500000000009 0 0 1 1 0 0 forward_v I I I I #
coedge $-1 -1 $-1 $88 $89 $90 $91 forward $37 $-1 #
face $-1 -1 $-1 $92 $93 $21 $-1 $41 reversed single #
loop $-1 -1 $-1 $-1 $94 $39 #
coedge $-1 -1 $-1 $95 $96 $97 $98 reversed $40 $-1 #
face $-1 -1 $-1 $-1 $99 $23 $-1 $100 forward single #
loop $-1 -1 $-1 $-1 $101 $42 #
plane-surface $-1 -1 $-1 -0.3968749999999997 1.2111523905001707e-016 1.1102230246251565e-016 1 -1.3755789546370492e-032 -2.2926315910617489e-033 -2.2926315910617489e-033 0 -1 forward_v I I I I #
loop $-1 -1 $-1 $-1 $102 $30 #
coedge $-1 -1 $-1 $66 $66 $101 $103 forward $43 $-1 #
model_id-kcp-attrib $-1 -1 $-1 $-1 $46 1 1021487802 1021487802 -79626239 5 #
face $104 -1 $-1 $105 $106 $8 $-1 $107 reversed single #
loop $-1 -1 $-1 $-1 $108 $46 #
cone-surface $-1 -1 $-1 -0.43656250000000052 0 0 1 0 0 0 -3.96875 0 1 I I 0 1 3.96875 forward I I I I #
coedge $-1 -1 $-1 $109 $110 $50 $73 forward $47 $-1 #
coedge $-1 -1 $-1 $50 $50 $111 $112 forward $33 $-1 #
edge $113 -1 $-1 $114 0 $115 3.1415926535897936 $50 $116 forward @7 unknown #
coedge $-1 -1 $-1 $52 $51 $117 $118 reversed $26 $-1 #
coedge $-1 -1 $-1 $119 $120 $51 $76 forward $121 $-1 #
edge $-1 -1 $-1 $122 0 $82 0.03125 $51 $123 forward @7 unknown #
coedge $-1 -1 $-1 $120 $119 $52 $78 reversed $121 $-1 #
edge $-1 -1 $-1 $124 0 $81 0.03124999999999999 $52 $125 forward @7 unknown #
coedge $-1 -1 $-1 $53 $53 $119 $126 forward $49 $-1 #
attrib_edge_convexity-kcp-attrib $-1 -1 $127 $-1 $54 1 #
vertex $-1 -1 $-1 $78 $128 #
vertex $-1 -1 $-1 $76 $129 #
ellipse-curve $-1 -1 $-1 0.39687499999999998 0 8.8123952579621795e-017 1 0 0 0 1.2699999999999998 -8.8123952579621795e-017 1 I I #
face $130 -1 $-1 $131 $132 $19 $-1 $133 reversed single #
loop $-1 -1 $-1 $-1 $134 $55 #
plane-surface $-1 -1 $-1 0 -3.9687500000000004 0 0 1 0 0 0 1 forward_v I I I I #
coedge $-1 -1 $-1 $135 $136 $137 $138 forward $56 $-1 #
coedge $-1 -1 $-1 $139 $58 $140 $141 forward $37 $-1 #
coedge $-1 -1 $-1 $58 $139 $142 $143 forward $37 $-1 #
coedge $-1 -1 $-1 $144 $145 $58 $91 reversed $146 $-1 #
edge $-1 -1 $-1 $147 -3.9687500000000004 $148 3.9687500000000004 $90 $149 forward @7 unknown #
face $-1 -1 $-1 $150 $151 $21 $-1 $41 reversed single #
loop $-1 -1 $-1 $-1 $152 $59 #
coedge $-1 -1 $-1 $153 $154 $155 $156 reversed $60 $-1 #
coedge $-1 -1 $-1 $157 $61 $158 $159 forward $40 $-1 #
coedge $-1 -1 $-1 $61 $157 $160 $161 reversed $40 $-1 #
coedge $-1 -1 $-1 $162 $163 $61 $98 forward $164 $-1 #
edge $-1 -1 $-1 $165 -1.5707963267948968 $166 -2.5568739833725648e-016 $97 $167 forward @7 unknown #
loop $-1 -1 $-1 $-1 $168 $62 #
plane-surface $-1 -1 $-1 0.39687500000000003 1.2111523905001707e-016 1.1102230246251565e-016 1 -1.3755789546370492e-032 -2.2926315910617489e-033 -2.2926315910617489e-033 0 -1 forward_v I I I I #
coedge $-1 -1 $-1 $101 $101 $66 $103 reversed $63 $-1 #
coedge $-1 -1 $-1 $102 $102 $168 $169 reversed $65 $-1 #
edge $-1 -1 $-1 $170 1.2246063538223768e-016 $170 6.2831853071795862 $66 $171 forward @7 unknown #
model_id-kcp-attrib $-1 -1 $-1 $-1 $68 1 1021487802 1021487802 -79626239 6 #
face $172 -1 $-1 $-1 $121 $8 $-1 $173 reversed single #
loop $-1 -1 $-1 $174 $175 $68 #
plane-surface $-1 -1 $-1 -0.39687499999999998 0 0 1 0 0 0 -25.399999999999999 0 forward_v I I I I #
coedge $-1 -1 $-1 $176 $177 $178 $179 forward $69 $-1 #
coedge $-1 -1 $-1 $180 $71 $176 $181 forward $47 $-1 #
coedge $-1 -1 $-1 $71 $180 $177 $182 reversed $47 $-1 #
coedge $-1 -1 $-1 $177 $176 $72 $112 reversed $69 $-1 #
edge $183 -1 $-1 $114 1.2520825329318559e-032 $115 3.1415926535897931 $72 $184 forward @7 unknown #
attrib_edge_convexity-kcp-attrib $-1 -1 $185 $-1 $73 1 #
vertex $-1 -1 $-1 $112 $186 #
vertex $-1 -1 $-1 $112 $187 #
ellipse-curve $-1 -1 $-1 0.39687499999999998 -3.5249581031848718e-016 -7.0499162063697436e-016 -1 0 0 0 3.96875 1.1910072673102303e-015 1 I I #
coedge $-1 -1 $-1 $175 $175 $74 $118 forward $106 $-1 #
edge $-1 -1 $-1 $124 -1.5284210607078321e-032 $122 3.1415926535897931 $74 $188 forward @7 unknown #
coedge $-1 -1 $-1 $77 $75 $79 $126 reversed $121 $-1 #
coedge $-1 -1 $-1 $75 $77 $175 $189 forward $121 $-1 #
loop $-1 -1 $-1 $-1 $120 $105 #
vertex $-1 -1 $-1 $118 $190 #
straight-curve $-1 -1 $-1 -0.39687499999999998 -1.2699999999999998 -3.1105001387088376e-016 25.399999999999999 0 0 I I #
vertex $-1 -1 $-1 $78 $191 #
straight-curve $-1 -1 $-1 -0.39687499999999998 1.2699999999999998 1.5552500693544188e-016 25.399999999999999 0 0 I I #
edge $192 -1 $-1 $81 -1.2246063538223768e-016 $82 3.1415926535897931 $79 $193 forward @7 unknown #
convexity-sys-attrib $-1 -1 $-1 $80 $54 #
point $-1 -1 $-1 0.39687499999999981 1.2699999999999998 1.5552500693544188e-016 #
point $-1 -1 $-1 0.39687499999999998 -1.2699999999999998 0 #
model_id-kcp-attrib $-1 -1 $-1 $-1 $84 1 1021487802 1021487802 -79626238 3 #
face $-1 -1 $-1 $194 $195 $19 $-1 $196 reversed single #
loop $-1 -1 $-1 $-1 $197 $84 #
plane-surface $-1 -1 $-1 -0.39687499999999998 0 0 1 0 0 0 0 -1 forward_v I I I I #
coedge $-1 -1 $-1 $198 $142 $199 $200 forward $85 $-1 #
coedge $-1 -1 $-1 $201 $87 $198 $202 forward $56 $-1 #
coedge $-1 -1 $-1 $87 $201 $203 $204 forward $56 $-1 #
coedge $-1 -1 $-1 $145 $144 $87 $138 reversed $146 $-1 #
edge $-1 -1 $-1 $205 -3.9687500000000004 $206 3.9687500000000004 $137 $207 forward @7 unknown #
coedge $-1 -1 $-1 $89 $88 $208 $209 forward $37 $-1 #
coedge $-1 -1 $-1 $210 $211 $88 $141 reversed $195 $-1 #
edge $-1 -1 $-1 $148 -0.39687499999999998 $212 0.39687499999999998 $140 $213 forward @7 unknown #
coedge $-1 -1 $-1 $134 $214 $89 $143 reversed $85 $-1 #
edge $-1 -1 $-1 $215 -0.39687499999999998 $147 0.39687499999999998 $142 $216 forward @7 unknown #
coedge $-1 -1 $-1 $137 $90 $214 $217 forward $146 $-1 #
coedge $-1 -1 $-1 $90 $137 $210 $218 reversed $146 $-1 #
loop $-1 -1 $-1 $-1 $144 $194 #
vertex $-1 -1 $-1 $91 $219 #
vertex $-1 -1 $-1 $91 $220 #
straight-curve $-1 -1 $-1 0.39687499999999998 0 3.9687500000000009 0 1 0 I I #
face $-1 -1 $-1 $221 $222 $21 $-1 $223 reversed single #
loop $-1 -1 $-1 $-1 $224 $92 #
coedge $-1 -1 $-1 $225 $226 $224 $227 forward $93 $-1 #
coedge $-1 -1 $-1 $228 $94 $229 $230 reversed $60 $-1 #
coedge $-1 -1 $-1 $94 $228 $96 $161 forward $60 $-1 #
coedge $-1 -1 $-1 $231 $232 $94 $156 forward $233 $-1 #
edge $-1 -1 $-1 $234 -1.5707963267948963 $235 2.5568739833725648e-016 $155 $236 forward @7 unknown #
coedge $-1 -1 $-1 $96 $95 $237 $238 reversed $40 $-1 #
coedge $-1 -1 $-1 $226 $225 $239 $159 reversed $93 $-1 #
edge $-1 -1 $-1 $165 -0.79374999999999996 $240 0 $239 $241 forward @7 unknown #
coedge $-1 -1 $-1 $242 $243 $244 $161 forward $245 $-1 #
edge $-1 -1 $-1 $166 -0.79374999999999996 $235 0 $160 $246 forward @7 unknown #
coedge $-1 -1 $-1 $163 $97 $243 $247 forward $164 $-1 #
coedge $-1 -1 $-1 $97 $162 $248 $249 reversed $164 $-1 #
loop $-1 -1 $-1 $-1 $97 $250 #
vertex $-1 -1 $-1 $249 $251 #
vertex $-1 -1 $-1 $247 $252 #
ellipse-curve $-1 -1 $-1 -0.39687499999999998 -1.1522391096663737e-047 -3.0669911055269942e-016 1 0 0 0 3.96875 1.0147593621509867e-015 1 I I #
coedge $-1 -1 $-1 $168 $168 $102 $169 forward $99 $-1 #
edge $-1 -1 $-1 $253 -3.1415926535897931 $253 3.1415926535897931 $102 $254 forward @7 unknown #
vertex $-1 -1 $-1 $103 $255 #
ellipse-curve $-1 -1 $-1 -0.39687499999999976 0 -8.8123952579621795e-017 1 0 0 0 1.2699999999999998 8.8123952579621795e-017 1 I I #
model_id-kcp-attrib $-1 -1 $-1 $-1 $105 1 1021487802 1021487802 -79626239 7 #
cone-surface $-1 -1 $-1 -0.43656250000000052 0 0 1 0 0 0 -1.2699999999999998 0 1 I I 0 1 1.2699999999999998 forward I I I I #
loop $-1 -1 $-1 $-1 $178 $68 #
coedge $-1 -1 $-1 $117 $117 $120 $189 reversed $106 $-1 #
coedge $-1 -1 $-1 $111 $108 $109 $181 reversed $69 $-1 #
coedge $-1 -1 $-1 $108 $111 $110 $182 forward $69 $-1 #
coedge $-1 -1 $-1 $256 $256 $108 $179 reversed $174 $-1 #
edge $-1 -1 $-1 $257 1.2246063538223773e-016 $258 3.1415926535897931 $108 $259 forward @7 unknown #
coedge $-1 -1 $-1 $110 $109 $256 $260 reversed $47 $-1 #
edge $-1 -1 $-1 $115 0 $258 0.03125 $176 $261 forward @7 unknown #
edge $-1 -1 $-1 $114 0 $257 0.03125 $177 $262 forward @7 unknown #
attrib_edge_convexity-kcp-attrib $-1 -1 $263 $-1 $112 1 #
ellipse-curve $-1 -1 $-1 0.39687499999999998 3.5249581031848718e-016 3.5249581031848718e-016 1 0 0 0 3.96875 1.3351983635476877e-016 1 I I #
convexity-sys-attrib $-1 -1 $-1 $113 $73 #
point $-1 -1 $-1 0.39687499999999998 3.96875 4.8601564667325597e-016 #
point $-1 -1 $-1 0.39687499999999998 -3.96875 0 #
ellipse-curve $-1 -1 $-1 -0.39687499999999998 0 4.4061976289810898e-017 1 0 0 0 1.2699999999999998 1.1146303064563099e-016 1 I I #
edge $-1 -1 $-1 $124 0 $122 3.1415926535897936 $175 $264 forward @7 unknown #
point $-1 -1 $-1 -0.39687499999999998 -1.2699999999999998 0 #
point $-1 -1 $-1 -0.39687499999999998 1.2699999999999998 1.5552500693544188e-016 #
attrib_edge_convexity-kcp-attrib $-1 -1 $265 $-1 $126 1 #
ellipse-curve $-1 -1 $-1 0.39687499999999998 0 -8.8123952579621795e-017 -1 0 0 0 1.2699999999999998 8.8123952579621795e-017 1 I I #
face $266 -1 $-1 $-1 $146 $19 $-1 $267 reversed single #
loop $-1 -1 $-1 $-1 $210 $131 #
plane-surface $-1 -1 $-1 0 3.9687500000000004 0 0 -1 0 0 0 -1 forward_v I I I I #
coedge $-1 -1 $-1 $268 $208 $211 $269 forward $132 $-1 #
coedge $-1 -1 $-1 $214 $134 $135 $202 reversed $85 $-1 #
coedge $-1 -1 $-1 $208 $268 $134 $200 reversed $132 $-1 #
edge $-1 -1 $-1 $215 -3.9687500000000009 $270 3.9687500000000009 $199 $271 forward @7 unknown #
coedge $-1 -1 $-1 $136 $135 $268 $272 forward $56 $-1 #
edge $-1 -1 $-1 $206 -0.39687499999999998 $270 0.39687499999999998 $198 $273 forward @7 unknown #
coedge $-1 -1 $-1 $211 $210 $136 $204 reversed $195 $-1 #
edge $-1 -1 $-1 $274 -0.39687499999999998 $205 0.39687499999999998 $203 $275 forward @7 unknown #
vertex $-1 -1 $-1 $138 $276 #
vertex $-1 -1 $-1 $217 $277 #
straight-curve $-1 -1 $-1 0.39687499999999998 0 -3.9687500000000009 0 -1 0 I I #
coedge $-1 -1 $-1 $197 $199 $139 $209 reversed $132 $-1 #
edge $-1 -1 $-1 $212 -3.9687500000000004 $215 3.9687500000000004 $208 $278 forward @7 unknown #
coedge $-1 -1 $-1 $203 $140 $145 $218 forward $195 $-1 #
coedge $-1 -1 $-1 $140 $203 $197 $269 reversed $195 $-1 #
vertex $-1 -1 $-1 $141 $279 #
straight-curve $-1 -1 $-1 0 3.9687500000000004 3.9687500000000009 -1 0 0 I I #
coedge $-1 -1 $-1 $142 $198 $144 $217 reversed $85 $-1 #
vertex $-1 -1 $-1 $209 $280 #
straight-curve $-1 -1 $-1 0 -3.9687500000000004 3.9687500000000009 1 0 0 I I #
edge $-1 -1 $-1 $147 -3.9687500000000009 $206 3.9687500000000009 $144 $281 forward @7 unknown #
edge $-1 -1 $-1 $148 -3.9687500000000009 $205 3.9687500000000009 $145 $282 forward @7 unknown #
point $-1 -1 $-1 0.39687499999999998 -3.9687500000000004 3.9687500000000009 #
point $-1 -1 $-1 0.39687499999999998 3.9687500000000004 3.9687500000000009 #
face $-1 -1 $-1 $283 $284 $21 $-1 $285 forward single #
loop $-1 -1 $-1 $-1 $244 $150 #
plane-surface $-1 -1 $-1 0 3.9687500000000004 0 0 -1 0 0 0 -1 forward_v I I I I #
coedge $-1 -1 $-1 $286 $287 $288 $227 reversed $151 $-1 #
coedge $-1 -1 $-1 $158 $152 $289 $290 reversed $93 $-1 #
coedge $-1 -1 $-1 $152 $158 $291 $292 reversed $93 $-1 #
edge $-1 -1 $-1 $293 -0.79374999999999996 $294 0 $288 $295 forward @7 unknown #
coedge $-1 -1 $-1 $154 $153 $296 $297 reversed $60 $-1 #
coedge $-1 -1 $-1 $298 $299 $300 $230 forward $284 $-1 #
edge $-1 -1 $-1 $301 -0.79374999999999996 $234 0 $229 $302 forward @7 unknown #
coedge $-1 -1 $-1 $232 $155 $303 $304 reversed $233 $-1 #
coedge $-1 -1 $-1 $155 $231 $298 $305 reversed $233 $-1 #
loop $-1 -1 $-1 $-1 $155 $306 #
vertex $-1 -1 $-1 $305 $307 #
vertex $-1 -1 $-1 $308 $309 #
ellipse-curve $-1 -1 $-1 0.39687499999999998 -1.1522391096663737e-047 -3.0669911055269942e-016 -1 0 0 0 3.96875 1.0147593621509867e-015 1 I I #
coedge $-1 -1 $-1 $310 $311 $157 $238 forward $312 $-1 #
edge $-1 -1 $-1 $235 2.5568739833725648e-016 $240 1.5707963267948968 $237 $236 forward @7 unknown #
coedge $-1 -1 $-1 $313 $314 $315 $159 forward $316 $-1 #
vertex $-1 -1 $-1 $317 $318 #
straight-curve $-1 -1 $-1 0.39687499999999998 -1.1522391096663737e-047 -3.9687500000000009 1 0 0 I I #
coedge $-1 -1 $-1 $319 $160 $311 $308 forward $245 $-1 #
coedge $-1 -1 $-1 $160 $319 $162 $247 reversed $245 $-1 #
coedge $-1 -1 $-1 $320 $303 $154 $161 reversed $222 $-1 #
loop $-1 -1 $-1 $-1 $160 $321 #
straight-curve $-1 -1 $-1 0.39687499999999998 3.9687500000000004 -3.0669911055269942e-016 1 0 0 I I #
edge $-1 -1 $-1 $166 3.0669911055269942e-016 $322 3.9687500000000009 $243 $323 forward @7 unknown #
coedge $-1 -1 $-1 $324 $315 $163 $249 forward $325 $-1 #
edge $-1 -1 $-1 $165 -1.1522391096663737e-047 $322 3.9687500000000004 $163 $326 forward @7 unknown #
face $-1 -1 $-1 $327 $164 $21 $-1 $328 reversed single #
point $-1 -1 $-1 -0.39687499999999998 -1.1522391096663737e-047 -3.9687500000000009 #
point $-1 -1 $-1 -0.39687499999999998 3.9687500000000004 -3.0669911055269942e-016 #
vertex $-1 -1 $-1 $169 $329 #
ellipse-curve $-1 -1 $-1 0.39687499999999998 0 8.8123952579621795e-017 1 0 0 0 1.2699999999999998 -8.8123952579621795e-017 1 I I #
point $-1 -1 $-1 -0.39687499999999992 1.2699999999999998 1.5552500693544188e-016 #
coedge $-1 -1 $-1 $178 $178 $180 $260 forward $174 $-1 #
vertex $-1 -1 $-1 $182 $330 #
vertex $-1 -1 $-1 $181 $331 #
ellipse-curve $-1 -1 $-1 -0.39687499999999998 -1.7624790515924359e-016 5.2874371547773072e-016 1 0 0 0 3.96875 -5.2874371547773072e-016 1 I I #
edge $-1 -1 $-1 $257 -1.2246063538223773e-016 $258 3.1415926535897931 $256 $332 forward @7 unknown #
straight-curve $-1 -1 $-1 0.39687499999999998 -3.96875 -9.7203129334651195e-016 -25.399999999999999 0 0 I I #
straight-curve $-1 -1 $-1 0.39687499999999998 3.96875 4.8601564667325597e-016 -25.399999999999999 0 0 I I #
convexity-sys-attrib $-1 -1 $-1 $183 $112 #
ellipse-curve $-1 -1 $-1 -0.39687499999999998 -1.3218592886943268e-016 -1.7624790515924359e-016 -1 0 0 0 1.27 3.3177291209468547e-016 1 I I #
convexity-sys-attrib $-1 -1 $-1 $192 $126 #
model_id-kcp-attrib $-1 -1 $-1 $-1 $194 1 1021487802 1021487802 -79626238 2 #
plane-surface $-1 -1 $-1 0.39687499999999998 0 0 -1 0 0 0 0 1 forward_v I I I I #
coedge $-1 -1 $-1 $199 $197 $201 $272 reversed $132 $-1 #
edge $-1 -1 $-1 $212 -3.9687500000000009 $274 3.9687500000000009 $211 $333 forward @7 unknown #
vertex $-1 -1 $-1 $272 $334 #
straight-curve $-1 -1 $-1 -0.39687499999999998 -3.9687500000000004 0 0 0 -1 I I #
edge $-1 -1 $-1 $270 -3.9687500000000004 $274 3.9687500000000004 $268 $335 forward @7 unknown #
straight-curve $-1 -1 $-1 0 -3.9687500000000004 -3.9687500000000009 -1 0 0 I I #
vertex $-1 -1 $-1 $204 $336 #
straight-curve $-1 -1 $-1 0 3.9687500000000004 -3.9687500000000009 1 0 0 I I #
point $-1 -1 $-1 0.39687499999999998 3.9687500000000004 -3.9687500000000009 #
point $-1 -1 $-1 0.39687499999999998 -3.9687500000000004 -3.9687500000000009 #
straight-curve $-1 -1 $-1 -0.39687499999999998 0 3.9687500000000009 0 -1 0 I I #
point $-1 -1 $-1 -0.39687499999999998 3.9687500000000004 3.9687500000000009 #
point $-1 -1 $-1 -0.39687499999999998 -3.9687500000000004 3.9687500000000009 #
straight-curve $-1 -1 $-1 0.39687499999999998 -3.9687500000000004 0 0 0 -1 I I #
straight-curve $-1 -1 $-1 0.39687499999999998 3.9687500000000004 0 0 0 -1 I I #
face $-1 -1 $-1 $306 $337 $21 $-1 $338 reversed single #
loop $-1 -1 $-1 $-1 $229 $221 #
plane-surface $-1 -1 $-1 0 0 3.9687500000000009 0 0 1 1 0 0 forward_v I I I I #
coedge $-1 -1 $-1 $339 $224 $340 $341 reversed $151 $-1 #
coedge $-1 -1 $-1 $224 $339 $342 $343 reversed $151 $-1 #
coedge $-1 -1 $-1 $344 $345 $346 $227 forward $347 $-1 #
coedge $-1 -1 $-1 $348 $349 $225 $290 forward $350 $-1 #
edge $-1 -1 $-1 $240 1.5707963267948968 $294 3.1415926535897931 $289 $236 forward @7 unknown #
coedge $-1 -1 $-1 $351 $352 $226 $292 forward $353 $-1 #
edge $-1 -1 $-1 $293 -3.1415926535897931 $165 -1.5707963267948968 $291 $167 forward @7 unknown #
vertex $-1 -1 $-1 $354 $355 #
vertex $-1 -1 $-1 $356 $357 #
straight-curve $-1 -1 $-1 0.39687499999999998 -3.9687500000000004 -3.0669911055269942e-016 1 0 0 I I #
coedge $-1 -1 $-1 $358 $359 $228 $297 forward $360 $-1 #
edge $-1 -1 $-1 $166 -2.5568739833725648e-016 $301 1.5707963267948963 $296 $167 forward @7 unknown #
coedge $-1 -1 $-1 $361 $229 $232 $305 forward $284 $-1 #
coedge $-1 -1 $-1 $229 $361 $358 $362 forward $284 $-1 #
coedge $-1 -1 $-1 $363 $364 $339 $230 reversed $365 $-1 #
vertex $-1 -1 $-1 $366 $367 #
straight-curve $-1 -1 $-1 0.39687499999999998 -1.1522391096663737e-047 3.9687500000000009 1 0 0 I I #
coedge $-1 -1 $-1 $244 $368 $231 $304 forward $222 $-1 #
edge $-1 -1 $-1 $369 -3.9687500000000009 $235 3.0669911055269942e-016 $231 $370 forward @7 unknown #
edge $-1 -1 $-1 $234 -1.1522391096663737e-047 $369 3.9687500000000004 $232 $371 forward @7 unknown #
face $-1 -1 $-1 $372 $233 $21 $-1 $338 reversed single #
point $-1 -1 $-1 0.39687499999999998 -1.1522391096663737e-047 3.9687500000000009 #
edge $-1 -1 $-1 $235 3.0669911055269942e-016 $373 3.9687500000000009 $311 $370 forward @7 unknown #
point $-1 -1 $-1 0.39687499999999998 3.9687500000000004 -3.0669911055269942e-016 #
coedge $-1 -1 $-1 $311 $237 $374 $375 reversed $312 $-1 #
coedge $-1 -1 $-1 $237 $310 $242 $308 reversed $312 $-1 #
loop $-1 -1 $-1 $-1 $237 $372 #
coedge $-1 -1 $-1 $376 $239 $349 $317 forward $316 $-1 #
coedge $-1 -1 $-1 $239 $376 $351 $377 forward $316 $-1 #
coedge $-1 -1 $-1 $248 $374 $95 $159 reversed $325 $-1 #
loop $-1 -1 $-1 $-1 $239 $378 #
edge $-1 -1 $-1 $240 1.1522391096663737e-047 $379 3.9687500000000004 $349 $380 forward @7 unknown #
point $-1 -1 $-1 0.39687499999999998 -1.1522391096663737e-047 -3.9687500000000009 #
coedge $-1 -1 $-1 $243 $242 $324 $381 reversed $245 $-1 #
coedge $-1 -1 $-1 $368 $244 $359 $382 reversed $222 $-1 #
face $-1 -1 $-1 $-1 $245 $21 $-1 $223 reversed single #
vertex $-1 -1 $-1 $381 $383 #
straight-curve $-1 -1 $-1 -0.39687499999999998 3.9687500000000004 0 0 0 -1 I I #
coedge $-1 -1 $-1 $374 $248 $319 $381 forward $325 $-1 #
loop $-1 -1 $-1 $-1 $315 $384 #
straight-curve $-1 -1 $-1 -0.39687499999999998 0 -3.9687500000000009 0 1 0 I I #
face $-1 -1 $-1 $385 $360 $21 $-1 $328 reversed single #
plane-surface $-1 -1 $-1 -0.39687499999999998 0 0 1 0 0 0 0 -1 forward_v I I I I #
point $-1 -1 $-1 0.39687499999999998 -1.2699999999999998 0 #
point $-1 -1 $-1 -0.39687499999999998 3.96875 4.8601564667325597e-016 #
point $-1 -1 $-1 -0.39687499999999998 -3.96875 0 #
ellipse-curve $-1 -1 $-1 -0.39687499999999998 -1.7624790515924359e-016 -5.2874371547773072e-016 -1 0 0 0 3.96875 5.2874371547773072e-016 1 I I #
straight-curve $-1 -1 $-1 -0.39687499999999998 3.9687500000000004 0 0 0 -1 I I #
point $-1 -1 $-1 -0.39687499999999998 -3.9687500000000004 -3.9687500000000009 #
straight-curve $-1 -1 $-1 -0.39687499999999998 0 -3.9687500000000009 0 1 0 I I #
point $-1 -1 $-1 -0.39687499999999998 3.9687500000000004 -3.9687500000000009 #
loop $-1 -1 $-1 $-1 $342 $283 #
plane-surface $-1 -1 $-1 0.39687499999999998 0 0 -1 0 0 0 0 1 forward_v I I I I #
coedge $-1 -1 $-1 $287 $286 $153 $230 forward $151 $-1 #
coedge $-1 -1 $-1 $386 $387 $286 $341 forward $388 $-1 #
edge $-1 -1 $-1 $301 1.5707963267948963 $293 3.1415926535897931 $340 $167 forward @7 unknown #
coedge $-1 -1 $-1 $389 $390 $287 $343 forward $337 $-1 #
edge $-1 -1 $-1 $294 -3.1415926535897931 $234 -1.5707963267948963 $342 $236 forward @7 unknown #
coedge $-1 -1 $-1 $391 $288 $390 $392 reversed $347 $-1 #
coedge $-1 -1 $-1 $288 $391 $386 $393 forward $347 $-1 #
coedge $-1 -1 $-1 $394 $395 $152 $227 reversed $396 $-1 #
loop $-1 -1 $-1 $-1 $288 $397 #
coedge $-1 -1 $-1 $349 $289 $395 $356 forward $350 $-1 #
coedge $-1 -1 $-1 $289 $348 $313 $317 reversed $350 $-1 #
loop $-1 -1 $-1 $-1 $289 $398 #
coedge $-1 -1 $-1 $352 $291 $314 $377 reversed $353 $-1 #
coedge $-1 -1 $-1 $291 $351 $394 $354 reversed $353 $-1 #
loop $-1 -1 $-1 $-1 $291 $399 #
edge $-1 -1 $-1 $293 3.0669911055269942e-016 $400 3.9687500000000009 $352 $401 forward @7 unknown #
point $-1 -1 $-1 -0.39687499999999998 -3.9687500000000004 -3.0669911055269942e-016 #
edge $-1 -1 $-1 $294 3.0669911055269942e-016 $379 3.9687500000000009 $348 $402 forward @7 unknown #
point $-1 -1 $-1 0.39687499999999998 -3.9687500000000004 -3.0669911055269942e-016 #
coedge $-1 -1 $-1 $359 $296 $299 $362 reversed $360 $-1 #
coedge $-1 -1 $-1 $296 $358 $320 $382 forward $360 $-1 #
loop $-1 -1 $-1 $-1 $296 $327 #
coedge $-1 -1 $-1 $299 $298 $368 $403 forward $284 $-1 #
edge $-1 -1 $-1 $404 -3.9687500000000004 $301 1.1522391096663737e-047 $358 $405 forward @7 unknown #
coedge $-1 -1 $-1 $406 $300 $387 $366 forward $365 $-1 #
coedge $-1 -1 $-1 $300 $406 $389 $407 forward $365 $-1 #
loop $-1 -1 $-1 $-1 $300 $408 #
edge $-1 -1 $-1 $301 1.1522391096663737e-047 $409 3.9687500000000004 $387 $405 forward @7 unknown #
point $-1 -1 $-1 -0.39687499999999998 -1.1522391096663737e-047 3.9687500000000009 #
coedge $-1 -1 $-1 $303 $320 $361 $403 reversed $222 $-1 #
vertex $-1 -1 $-1 $305 $410 #
straight-curve $-1 -1 $-1 0.39687499999999998 3.9687500000000004 0 0 0 -1 I I #
straight-curve $-1 -1 $-1 0.39687499999999998 0 3.9687500000000009 0 1 0 I I #
face $-1 -1 $-1 $398 $312 $21 $-1 $338 reversed single #
vertex $-1 -1 $-1 $375 $411 #
coedge $-1 -1 $-1 $315 $324 $310 $375 forward $325 $-1 #
edge $-1 -1 $-1 $373 -3.9687500000000004 $240 1.1522391096663737e-047 $310 $380 forward @7 unknown #
coedge $-1 -1 $-1 $314 $313 $412 $413 forward $316 $-1 #
edge $-1 -1 $-1 $400 -3.9687500000000004 $165 -1.1522391096663737e-047 $351 $326 forward @7 unknown #
face $-1 -1 $-1 $397 $316 $21 $-1 $414 reversed single #
vertex $-1 -1 $-1 $356 $415 #
straight-curve $-1 -1 $-1 0.39687499999999998 0 -3.9687500000000009 0 -1 0 I I #
edge $-1 -1 $-1 $322 -0.39687499999999998 $373 0.39687499999999998 $319 $416 forward @7 unknown #
edge $-1 -1 $-1 $404 -3.9687500000000009 $166 3.0669911055269942e-016 $320 $323 forward @7 unknown #
point $-1 -1 $-1 -0.39687499999999998 3.9687500000000004 -3.9687500000000009 #
face $-1 -1 $-1 $399 $325 $21 $-1 $414 reversed single #
face $-1 -1 $-1 $417 $388 $21 $-1 $328 reversed single #
coedge $-1 -1 $-1 $387 $340 $345 $393 reversed $388 $-1 #
coedge $-1 -1 $-1 $340 $386 $363 $366 reversed $388 $-1 #
loop $-1 -1 $-1 $-1 $340 $385 #
coedge $-1 -1 $-1 $390 $342 $364 $407 reversed $337 $-1 #
coedge $-1 -1 $-1 $342 $389 $344 $392 forward $337 $-1 #
coedge $-1 -1 $-1 $345 $344 $406 $418 reversed $347 $-1 #
edge $-1 -1 $-1 $419 -3.9687500000000009 $294 3.0669911055269942e-016 $390 $402 forward @7 unknown #
edge $-1 -1 $-1 $409 -3.9687500000000009 $293 3.0669911055269942e-016 $386 $401 forward @7 unknown #
coedge $-1 -1 $-1 $412 $346 $352 $354 forward $396 $-1 #
coedge $-1 -1 $-1 $346 $412 $348 $356 reversed $396 $-1 #
loop $-1 -1 $-1 $-1 $346 $417 #
face $-1 -1 $-1 $321 $347 $21 $-1 $420 reversed single #
face $-1 -1 $-1 $384 $350 $21 $-1 $338 reversed single #
face $-1 -1 $-1 $250 $353 $21 $-1 $328 reversed single #
vertex $-1 -1 $-1 $377 $421 #
straight-curve $-1 -1 $-1 -0.39687499999999998 -3.9687500000000004 0 0 0 -1 I I #
straight-curve $-1 -1 $-1 0.39687499999999998 -3.9687500000000004 0 0 0 -1 I I #
edge $-1 -1 $-1 $369 -0.39687499999999998 $404 0.39687499999999998 $368 $422 forward @7 unknown #
vertex $-1 -1 $-1 $403 $423 #
straight-curve $-1 -1 $-1 -0.39687499999999998 0 3.9687500000000009 0 -1 0 I I #
coedge $-1 -1 $-1 $364 $363 $391 $418 forward $365 $-1 #
edge $-1 -1 $-1 $419 -3.9687500000000004 $234 -1.1522391096663737e-047 $389 $371 forward @7 unknown #
face $-1 -1 $-1 $378 $365 $21 $-1 $285 forward single #
vertex $-1 -1 $-1 $366 $424 #
point $-1 -1 $-1 0.39687499999999998 3.9687500000000004 3.9687500000000009 #
point $-1 -1 $-1 0.39687499999999998 3.9687500000000004 -3.9687500000000009 #
coedge $-1 -1 $-1 $395 $394 $376 $413 reversed $396 $-1 #
edge $-1 -1 $-1 $379 -0.39687499999999998 $400 0.39687499999999998 $412 $425 forward @7 unknown #
plane-surface $-1 -1 $-1 0 0 -3.9687500000000009 0 0 1 1 0 0 forward_v I I I I #
point $-1 -1 $-1 0.39687499999999998 -3.9687500000000004 -3.9687500000000009 #
straight-curve $-1 -1 $-1 0 3.9687500000000004 -3.9687500000000009 1 0 0 I I #
face $-1 -1 $-1 $408 $396 $21 $-1 $420 reversed single #
edge $-1 -1 $-1 $409 -0.39687499999999998 $419 0.39687499999999998 $391 $426 forward @7 unknown #
vertex $-1 -1 $-1 $407 $427 #
plane-surface $-1 -1 $-1 0 -3.9687500000000004 0 0 1 0 0 0 1 forward_v I I I I #
point $-1 -1 $-1 -0.39687499999999998 -3.9687500000000004 -3.9687500000000009 #
straight-curve $-1 -1 $-1 0 3.9687500000000004 3.9687500000000009 -1 0 0 I I #
point $-1 -1 $-1 -0.39687499999999998 3.9687500000000004 3.9687500000000009 #
point $-1 -1 $-1 -0.39687499999999998 -3.9687500000000004 3.9687500000000009 #
straight-curve $-1 -1 $-1 0 -3.9687500000000004 -3.9687500000000009 -1 0 0 I I #
straight-curve $-1 -1 $-1 0 -3.9687500000000004 3.9687500000000009 1 0 0 I I #
point $-1 -1 $-1 0.39687499999999998 -3.9687500000000004 3.9687500000000009 #
End-of-ACIS-data 