600 0 1 0           
90 GICL ACIS Healer - Source: /gicl/data5/repository/PTC/V18/process18/pl34-712.prt.sat - 6 0 18 ACIS 6.0.3 Solaris 24 Sat Apr 13 21:18:36 2002 
1 9.999999999999999547e-07 1.000000000000000036e-10 
body $-1 $1 $-1 $-1 #
lump $-1 $-1 $2 $0 #
shell $-1 $-1 $-1 $3 $-1 $1 #
face $-1 $4 $5 $2 $-1 $6 reversed single #
face $-1 $7 $8 $2 $-1 $9 forward single #
loop $-1 $10 $11 $3 #
plane-surface $-1 0 0 0 0 0 1 25.39999999999999858 0 0 forward_v I I I I #
face $-1 $12 $13 $2 $-1 $14 forward single #
loop $-1 $-1 $15 $4 #
torus-surface $-1 0 0 0.6349999999999998979 0 0 1 12.0649999999999995 0.6349999999999998979 1 0 0 forward_v I I I I #
loop $-1 $-1 $16 $3 #
coedge $-1 $17 $17 $18 $19 reversed $5 $-1 #
face $-1 $20 $21 $2 $-1 $22 forward single #
loop $-1 $-1 $23 $7 #
torus-surface $-1 0 0 0.6349999999999998979 0 0 1 12.0649999999999995 0.6349999999999998979 1 0 0 forward_v I I I I #
coedge $-1 $24 $18 $25 $26 forward $8 $-1 #
coedge $-1 $27 $28 $29 $30 reversed $10 $-1 #
coedge $-1 $11 $11 $31 $32 reversed $5 $-1 #
coedge $-1 $15 $33 $11 $19 forward $8 $-1 #
edge $-1 $34 -3.141592653589793116 $35 0 $11 $36 forward 7 unknown #
face $-1 $37 $38 $2 $-1 $39 forward single #
loop $-1 $-1 $40 $12 #
cone-surface $-1 0 0 0 0 0 1 12.69999999999999929 0 0 1 I I 0 1 12.69999999999999929 forward I I I I #
coedge $-1 $41 $31 $33 $42 forward $13 $-1 #
coedge $-1 $33 $15 $43 $44 reversed $8 $-1 #
coedge $-1 $31 $41 $15 $26 reversed $13 $-1 #
edge $-1 $35 -1.139742148584823578e-30 $45 1.570796326794895448 $25 $46 forward 7 unknown #
coedge $-1 $47 $16 $48 $49 reversed $10 $-1 #
coedge $-1 $16 $50 $51 $52 forward $10 $-1 #
coedge $-1 $53 $54 $16 $30 forward $55 $-1 #
edge $-1 $56 1.570796326794896558 $57 3.141592653589793116 $16 $58 reversed 7 unknown #
coedge $-1 $23 $25 $17 $32 forward $13 $-1 #
edge $-1 $35 0 $34 3.141592653589793116 $17 $59 forward 7 unknown #
coedge $-1 $18 $24 $23 $42 reversed $8 $-1 #
vertex $-1 $32 $60 #
vertex $-1 $32 $61 #
ellipse-curve $-1 0 0 0 0 0 1 12.0649999999999995 0 0 1 I I #
face $-1 $62 $63 $2 $-1 $64 forward single #
loop $-1 $-1 $65 $20 #
cone-surface $-1 0 0 0 0 0 1 12.69999999999999929 0 0 1 I I 0 1 12.69999999999999929 forward I I I I #
coedge $-1 $66 $67 $68 $69 forward $21 $-1 #
coedge $-1 $25 $23 $67 $70 reversed $13 $-1 #
edge $-1 $34 1.568870794041281541e-47 $71 1.570796326794895448 $23 $72 forward 7 unknown #
coedge $-1 $65 $68 $24 $44 forward $38 $-1 #
edge $-1 $71 -3.141592653589793116 $45 0 $43 $73 forward 7 unknown #
vertex $-1 $70 $74 #
ellipse-curve $-1 12.0649999999999995 -2.954975131773395046e-15 0.635000000000000675 -2.449212707644755502e-16 -1 9.860761315262637058e-31 0 -6.261583435191780855e-31 -0.635000000000000675 1 I I #
coedge $-1 $75 $27 $76 $77 forward $10 $-1 #
coedge $-1 $78 $79 $27 $49 forward $80 $-1 #
edge $-1 $81 0 $56 19.81200000000000117 $27 $82 forward 7 unknown #
coedge $-1 $28 $83 $84 $85 forward $10 $-1 #
coedge $-1 $86 $87 $28 $52 reversed $88 $-1 #
edge $-1 $89 -0 $57 3.302000000000000046 $28 $90 reversed 7 unknown #
coedge $-1 $91 $29 $87 $92 forward $55 $-1 #
coedge $-1 $29 $91 $78 $93 forward $55 $-1 #
loop $-1 $-1 $54 $62 #
vertex $-1 $49 $94 #
vertex $-1 $52 $95 #
ellipse-curve $-1 9.906000000000000583 1.651000000000000023 0 0 0 1 -0.507999999999999674 0 0 1 I I #
ellipse-curve $-1 0 0 0 0 0 1 12.0649999999999995 0 0 1 I I #
point $-1 -12.0649999999999995 1.477487565886697917e-15 0 #
point $-1 12.0649999999999995 0 0 #
face $-1 $96 $55 $2 $-1 $97 reversed single #
loop $-1 $-1 $98 $37 #
plane-surface $-1 0 0 5.079999999999999183 0 0 1 25.39999999999999858 0 0 forward_v I I I I #
coedge $-1 $99 $43 $100 $101 forward $38 $-1 #
coedge $-1 $100 $40 $102 $103 reversed $21 $-1 #
coedge $-1 $40 $100 $41 $70 forward $21 $-1 #
coedge $-1 $43 $99 $40 $69 reversed $38 $-1 #
edge $-1 $71 0 $104 0.1749999999999999889 $40 $105 forward 7 unknown #
edge $-1 $45 0 $71 3.141592653589793116 $67 $106 forward 7 unknown #
vertex $-1 $70 $107 #
ellipse-curve $-1 -12.0649999999999995 1.477487565886697523e-15 0.635000000000000675 1.224606353822377751e-16 1 4.930380657631318529e-31 0 3.130791717595890428e-31 -0.635000000000000675 1 I I #
ellipse-curve $-1 0 0 0.6349999999999998979 0 0 1 12.69999999999999929 0 0 1 I I #
point $-1 12.69999999999999929 0 0.6349999999999998979 #
coedge $-1 $108 $47 $109 $110 reversed $10 $-1 #
coedge $-1 $111 $112 $47 $77 reversed $113 $-1 #
edge $-1 $81 1.570796326794896558 $114 3.141592653589793116 $47 $115 forward 7 unknown #
coedge $-1 $116 $48 $54 $93 reversed $80 $-1 #
coedge $-1 $48 $116 $111 $117 forward $80 $-1 #
loop $-1 $-1 $78 $96 #
vertex $-1 $77 $118 #
straight-curve $-1 -9.906000000000000583 2.158999999999999808 0 1 0 0 I I #
coedge $-1 $50 $108 $119 $120 forward $10 $-1 #
coedge $-1 $121 $122 $50 $85 reversed $123 $-1 #
edge $-1 $124 -1.570796326794896558 $89 0 $50 $125 forward 7 unknown #
coedge $-1 $126 $51 $122 $127 reversed $88 $-1 #
coedge $-1 $51 $126 $53 $92 reversed $88 $-1 #
loop $-1 $-1 $86 $128 #
vertex $-1 $52 $129 #
straight-curve $-1 10.4139999999999997 -1.651000000000000023 0 0 -1 0 I I #
coedge $-1 $54 $53 $130 $131 reversed $55 $-1 #
edge $-1 $57 1.570796326794896558 $132 3.141592653589793116 $53 $133 forward 7 unknown #
edge $-1 $134 -3.141592653589793116 $56 -1.570796326794896558 $78 $135 reversed 7 unknown #
point $-1 9.906000000000000583 2.158999999999999808 0 #
point $-1 10.4139999999999997 1.651000000000000023 0 #
face $-1 $136 $80 $2 $-1 $137 reversed single #
torus-surface $-1 9.906000000000000583 1.651000000000000023 -0.2540000000000000036 0 0 -1 0.507999999999999674 0.2540000000000000036 0 1 0 forward_v I I I I #
coedge $-1 $102 $102 $99 $138 forward $63 $-1 #
coedge $-1 $68 $65 $98 $138 reversed $38 $-1 #
coedge $-1 $67 $66 $65 $101 reversed $21 $-1 #
edge $-1 $45 0 $139 0.1749999999999999889 $100 $140 forward 7 unknown #
coedge $-1 $98 $98 $66 $103 forward $63 $-1 #
edge $-1 $139 0 $104 3.141592653589793116 $102 $141 forward 7 unknown #
vertex $-1 $103 $142 #
straight-curve $-1 -12.69999999999999929 1.555250069354419078e-15 0.6349999999999998979 0 0 25.39999999999999858 I I #
ellipse-curve $-1 0 0 0.6349999999999998979 0 0 1 12.69999999999999929 0 0 1 I I #
point $-1 -12.69999999999999929 1.555250069354418684e-15 0.6349999999999998979 #
coedge $-1 $83 $75 $143 $144 reversed $10 $-1 #
coedge $-1 $145 $146 $75 $110 forward $147 $-1 #
edge $-1 $148 0 $114 3.302000000000000046 $75 $149 forward 7 unknown #
coedge $-1 $150 $76 $79 $117 reversed $113 $-1 #
coedge $-1 $76 $150 $145 $151 forward $113 $-1 #
loop $-1 $-1 $112 $152 #
vertex $-1 $110 $153 #
ellipse-curve $-1 -9.906000000000000583 1.651000000000000023 0 0 0 1 0.507999999999999674 0 0 1 I I #
coedge $-1 $79 $78 $154 $155 reversed $80 $-1 #
edge $-1 $156 -3.141592653589793116 $81 -1.570796326794896558 $79 $157 forward 7 unknown #
point $-1 -9.906000000000000583 2.158999999999999808 0 #
coedge $-1 $158 $159 $83 $120 reversed $160 $-1 #
edge $-1 $161 -0 $124 19.81200000000000117 $83 $162 reversed 7 unknown #
coedge $-1 $163 $84 $159 $164 forward $123 $-1 #
coedge $-1 $84 $163 $86 $127 forward $123 $-1 #
loop $-1 $-1 $122 $165 #
vertex $-1 $85 $166 #
ellipse-curve $-1 9.906000000000000583 -1.651000000000000023 0 0 0 1 0.507999999999999674 0 0 1 I I #
coedge $-1 $87 $86 $167 $168 forward $88 $-1 #
edge $-1 $169 -3.141592653589793116 $89 -1.570796326794896558 $86 $170 forward 7 unknown #
face $-1 $171 $88 $2 $-1 $172 reversed single #
point $-1 10.4139999999999997 -1.651000000000000023 0 #
coedge $-1 $173 $174 $91 $131 forward $175 $-1 #
edge $-1 $134 0 $132 1.570796326794896558 $130 $176 forward 7 unknown #
vertex $-1 $168 $177 #
ellipse-curve $-1 10.4139999999999997 1.651000000000000023 -0.2540000000000000036 0 -1 0 0.2540000000000000036 0 0 1 I I #
vertex $-1 $178 $179 #
ellipse-curve $-1 9.906000000000000583 2.158999999999999808 -0.2540000000000000036 1 -0 0 0 0.2540000000000000036 0 1 I I #
face $-1 $180 $181 $2 $-1 $182 forward single #
cone-surface $-1 -9.906000000000000583 2.158999999999999808 -0.2540000000000000036 1 0 0 0 0 0.2540000000000000036 1 I I 0 1 0.2540000000000000036 forward I I I I #
edge $-1 $104 -3.141592653589793116 $139 0 $98 $183 forward 7 unknown #
vertex $-1 $103 $184 #
straight-curve $-1 12.69999999999999929 0 0.6349999999999998979 0 0 25.39999999999999858 I I #
ellipse-curve $-1 0 0 5.079999999999999183 0 0 1 12.69999999999999929 0 0 1 I I #
point $-1 -12.69999999999999929 0 5.079999999999999183 #
coedge $-1 $185 $186 $108 $144 forward $187 $-1 #
edge $-1 $161 -1.570796326794896558 $148 -0 $108 $188 reversed 7 unknown #
coedge $-1 $189 $109 $112 $151 reversed $147 $-1 #
coedge $-1 $109 $189 $185 $190 reversed $147 $-1 #
loop $-1 $-1 $145 $171 #
vertex $-1 $144 $191 #
straight-curve $-1 -10.4139999999999997 -1.651000000000000023 0 0 1 0 I I #
coedge $-1 $112 $111 $192 $193 forward $113 $-1 #
edge $-1 $194 -3.141592653589793116 $114 -1.570796326794896558 $145 $195 forward 7 unknown #
face $-1 $196 $113 $2 $-1 $197 reversed single #
point $-1 -10.4139999999999997 1.651000000000000023 0 #
coedge $-1 $198 $199 $116 $155 forward $181 $-1 #
edge $-1 $156 0 $134 19.81200000000000117 $154 $200 forward 7 unknown #
vertex $-1 $155 $201 #
ellipse-curve $-1 -9.906000000000000583 2.158999999999999808 -0.2540000000000000036 -1 0 0 0 0.2540000000000000036 2.775557561562892584e-17 1 I I #
coedge $-1 $202 $119 $186 $203 reversed $160 $-1 #
coedge $-1 $119 $202 $121 $164 reversed $160 $-1 #
loop $-1 $-1 $158 $204 #
vertex $-1 $120 $205 #
straight-curve $-1 -9.906000000000000583 -2.158999999999999808 0 -1 0 0 I I #
coedge $-1 $122 $121 $206 $207 forward $123 $-1 #
edge $-1 $124 1.570796326794896558 $208 3.141592653589793116 $121 $209 reversed 7 unknown #
face $-1 $128 $123 $2 $-1 $210 reversed single #
point $-1 9.906000000000000583 -2.158999999999999808 0 #
coedge $-1 $211 $212 $126 $168 reversed $213 $-1 #
edge $-1 $169 2.220446049250313081e-16 $132 3.30200000000000049 $167 $214 reversed 7 unknown #
vertex $-1 $168 $215 #
ellipse-curve $-1 10.4139999999999997 -1.651000000000000023 -0.2540000000000000036 0 1 0 0.2540000000000000036 0 0 1 I I #
face $-1 $152 $147 $2 $-1 $216 reversed single #
cone-surface $-1 10.4139999999999997 -1.651000000000000023 -0.2540000000000000036 0 -1 0 0 0 0.2540000000000000036 1 I I 0 1 0.2540000000000000036 forward I I I I #
coedge $-1 $217 $130 $212 $218 forward $175 $-1 #
coedge $-1 $130 $217 $198 $178 reversed $175 $-1 #
loop $-1 $-1 $130 $219 #
ellipse-curve $-1 9.906000000000000583 1.651000000000000023 -0.2540000000000000036 0 0 -1 0 0.2540000000000000036 0 1 I I #
point $-1 10.15999999999999837 1.651000000000000023 -0.2540000000000000036 #
edge $-1 $134 0.2540000000000000036 $220 6.349999999999999645 $198 $221 forward 7 unknown #
point $-1 9.906000000000000583 1.904999999999999805 -0.2540000000000000036 #
face $-1 $222 $223 $2 $-1 $224 forward single #
loop $-1 $-1 $199 $136 #
plane-surface $-1 0 1.904999999999999805 5.079999999999999183 0 1 0 25.39999999999999858 0 0 forward_v I I I I #
ellipse-curve $-1 0 0 5.079999999999999183 0 0 1 12.69999999999999929 0 0 1 I I #
point $-1 12.69999999999999929 0 5.079999999999999183 #
coedge $-1 $225 $143 $146 $190 forward $187 $-1 #
coedge $-1 $143 $225 $158 $203 forward $187 $-1 #
loop $-1 $-1 $186 $226 #
ellipse-curve $-1 -9.906000000000000583 -1.651000000000000023 0 0 0 1 -0.507999999999999674 0 0 1 I I #
coedge $-1 $146 $145 $227 $228 reversed $147 $-1 #
edge $-1 $148 1.570796326794896558 $229 3.141592653589793116 $185 $230 forward 7 unknown #
point $-1 -10.4139999999999997 -1.651000000000000023 0 #
coedge $-1 $231 $232 $150 $193 reversed $223 $-1 #
edge $-1 $156 0 $194 1.57079632679489567 $192 $233 forward 7 unknown #
vertex $-1 $234 $235 #
ellipse-curve $-1 -10.4139999999999997 1.651000000000000023 -0.2540000000000000036 0 -1 0 -0.2540000000000000036 0 2.775557561562896281e-17 1 I I #
face $-1 $-1 $236 $2 $-1 $237 forward single #
torus-surface $-1 -9.906000000000000583 1.651000000000000023 -0.2540000000000000591 0 0 1 0.507999999999999674 0.2540000000000000036 0 1 0 forward_v I I I I #
coedge $-1 $238 $154 $174 $178 forward $181 $-1 #
coedge $-1 $154 $239 $231 $240 forward $181 $-1 #
straight-curve $-1 -9.906000000000000583 1.904999999999999805 -0.2540000000000000036 1 0 0 I I #
point $-1 -9.906000000000000583 1.904999999999999805 -0.2540000000000000036 #
coedge $-1 $159 $158 $241 $242 forward $160 $-1 #
edge $-1 $243 -3.141592653589793116 $161 -1.570796326794896558 $158 $244 reversed 7 unknown #
face $-1 $165 $160 $2 $-1 $245 reversed single #
point $-1 -9.906000000000000583 -2.158999999999999808 0 #
coedge $-1 $246 $247 $163 $207 reversed $248 $-1 #
edge $-1 $208 0 $169 1.570796326794896558 $206 $249 forward 7 unknown #
vertex $-1 $242 $250 #
ellipse-curve $-1 9.906000000000000583 -2.158999999999999808 -0.2540000000000000036 1 0 -0 0 -0.2540000000000000036 0 1 I I #
torus-surface $-1 9.906000000000000583 -1.651000000000000023 -0.2540000000000000036 0 0 1 0.507999999999999674 0.2540000000000000036 0 -1 0 forward_v I I I I #
coedge $-1 $251 $167 $247 $252 forward $213 $-1 #
coedge $-1 $167 $251 $173 $218 reversed $213 $-1 #
loop $-1 $-1 $211 $253 #
straight-curve $-1 10.15999999999999837 -1.651000000000000245 -0.2540000000000000036 0 -1 0 I I #
point $-1 10.15999999999999837 -1.651000000000000023 -0.2540000000000000036 #
cone-surface $-1 -10.4139999999999997 -1.651000000000000023 -0.2540000000000000036 0 1 0 0 0 0.2540000000000000036 1 I I 0 1 0.2540000000000000036 forward I I I I #
coedge $-1 $174 $173 $254 $255 reversed $175 $-1 #
edge $-1 $132 0.2540000000000000036 $256 6.349999999999999645 $212 $257 forward 7 unknown #
face $-1 $253 $175 $2 $-1 $258 forward single #
vertex $-1 $259 $260 #
straight-curve $-1 9.906000000000000583 1.904999999999999805 0 0 0 -1 I I #
face $-1 $261 $262 $2 $-1 $263 forward single #
loop $-1 $-1 $264 $180 #
cone-surface $-1 -9.906000000000000583 1.651000000000000023 -1.523999999999999799 0 0 1 0 0.2540000000000000036 0 1 I I 0 1 0.2540000000000000036 forward I I I I #
coedge $-1 $186 $185 $265 $266 reversed $187 $-1 #
face $-1 $204 $187 $2 $-1 $267 reversed single #
coedge $-1 $268 $269 $189 $228 forward $236 $-1 #
edge $-1 $229 2.220446049250313081e-16 $194 3.30200000000000049 $227 $270 forward 7 unknown #
vertex $-1 $228 $271 #
ellipse-curve $-1 -10.4139999999999997 -1.651000000000000023 -0.2540000000000000036 0 1 0 -0.2540000000000000036 0 2.775557561562896281e-17 1 I I #
coedge $-1 $264 $192 $199 $240 reversed $223 $-1 #
coedge $-1 $192 $272 $268 $234 forward $223 $-1 #
ellipse-curve $-1 -9.906000000000000583 1.651000000000000023 -0.2540000000000000591 0 0 1 0 0.2540000000000000036 0 1 I I #
edge $-1 $273 0.462242197518076825 $194 1.269999999999999574 $268 $274 forward 7 unknown #
point $-1 -10.15999999999999837 1.651000000000000245 -0.2540000000000000036 #
loop $-1 $-1 $269 $196 #
plane-surface $-1 -10.15999999999999837 -1.904999999999999805 -8.889999999999998792 -1 0 0 0 0 25.39999999999999858 forward_v I I I I #
coedge $-1 $275 $198 $276 $259 reversed $181 $-1 #
coedge $-1 $199 $277 $278 $279 reversed $181 $-1 #
edge $-1 $280 0.09244843950361647522 $156 1.270000000000000018 $199 $281 forward 7 unknown #
coedge $-1 $282 $283 $202 $242 reversed $284 $-1 #
edge $-1 $243 -0 $208 19.81200000000000117 $241 $285 reversed 7 unknown #
vertex $-1 $286 $287 #
ellipse-curve $-1 -9.906000000000000583 -2.158999999999999808 -0.2540000000000000036 -1 -0 -0 0 -0.2540000000000000036 2.775557561562892584e-17 1 I I #
cone-surface $-1 -9.906000000000000583 -2.158999999999999808 -0.2540000000000000036 -1 0 0 0 0 0.2540000000000000036 1 I I 0 1 0.2540000000000000036 forward I I I I #
coedge $-1 $288 $206 $283 $289 forward $248 $-1 #
coedge $-1 $206 $288 $211 $252 reversed $248 $-1 #
loop $-1 $-1 $288 $290 #
ellipse-curve $-1 9.906000000000000583 -1.651000000000000023 -0.2540000000000000036 0 0 1 0 -0.2540000000000000036 0 1 I I #
point $-1 9.906000000000000583 -1.904999999999999805 -0.2540000000000000036 #
coedge $-1 $212 $211 $291 $292 forward $213 $-1 #
edge $-1 $169 0.2540000000000000036 $293 6.349999999999999645 $211 $294 reversed 7 unknown #
face $-1 $290 $213 $2 $-1 $295 forward single #
coedge $-1 $296 $276 $217 $255 forward $297 $-1 #
edge $-1 $220 -1.570796326794903885 $256 -9.713237310806346135e-16 $254 $298 reversed 7 unknown #
vertex $-1 $218 $299 #
straight-curve $-1 10.15999999999999837 1.651000000000000023 0 0 0 -1 I I #
cone-surface $-1 9.906000000000000583 1.651000000000000023 0 0 0 -1 0 0.2540000000000000036 0 1 I I 0 1 0.2540000000000000036 forward I I I I #
edge $-1 $300 -0 $220 1.570796326794896558 $238 $301 reversed 7 unknown #
point $-1 9.905999999999998806 1.904999999999999805 -6.349999999999999645 #
face $-1 $302 $303 $2 $-1 $304 forward single #
loop $-1 $-1 $305 $222 #
cone-surface $-1 -9.965424711447779416 1.651000000000000023 -1.360731947139618869 -0.6427876096865394739 0 0.7660444431189779024 0 0.2540000000000000036 0 1 I I 0 1 0.2540000000000000036 forward I I I I #
coedge $-1 $272 $231 $306 $307 forward $223 $-1 #
coedge $-1 $308 $309 $225 $266 forward $310 $-1 #
edge $-1 $243 0 $229 1.570796326794896558 $265 $311 forward 7 unknown #
torus-surface $-1 -9.906000000000000583 -1.651000000000000023 -0.2540000000000000591 0 0 -1 0.507999999999999674 0.2540000000000000036 0 -1 0 forward_v I I I I #
coedge $-1 $312 $227 $232 $234 reversed $236 $-1 #
coedge $-1 $227 $312 $308 $313 forward $236 $-1 #
straight-curve $-1 -10.15999999999999837 -1.651000000000000245 -0.2540000000000000036 0 1 0 I I #
point $-1 -10.15999999999999837 -1.651000000000000023 -0.2540000000000000036 #
coedge $-1 $232 $264 $314 $315 reversed $223 $-1 #
vertex $-1 $316 $317 #
straight-curve $-1 -10.15999999999999837 1.651000000000000023 -1.523999999999999577 0 0 1 I I #
coedge $-1 $277 $238 $318 $319 forward $181 $-1 #
coedge $-1 $254 $320 $238 $259 forward $297 $-1 #
coedge $-1 $239 $275 $321 $322 forward $181 $-1 #
coedge $-1 $305 $306 $239 $279 forward $262 $-1 #
edge $-1 $280 0.09244843950361422702 $323 7.838997915651020776 $239 $324 reversed 7 unknown #
vertex $-1 $279 $325 #
straight-curve $-1 -9.906000000000000583 1.904999999999999805 -1.524000000000000021 0 0 1 I I #
coedge $-1 $326 $241 $309 $286 reversed $284 $-1 #
coedge $-1 $241 $327 $246 $289 reversed $284 $-1 #
loop $-1 $-1 $328 $329 #
straight-curve $-1 -9.906000000000000583 -1.904999999999999805 -0.2540000000000000036 -1 0 0 I I #
edge $-1 $330 0.09244843950361647522 $243 1.270000000000000018 $282 $331 reversed 7 unknown #
point $-1 -9.906000000000000583 -1.904999999999999805 -0.2540000000000000036 #
coedge $-1 $247 $246 $332 $333 forward $248 $-1 #
edge $-1 $208 0.2540000000000000036 $334 6.349999999999999645 $283 $335 reversed 7 unknown #
face $-1 $336 $248 $2 $-1 $337 forward single #
coedge $-1 $338 $339 $251 $292 reversed $340 $-1 #
edge $-1 $293 0.2539999999999997815 $256 3.55600000000000005 $251 $341 reversed 7 unknown #
vertex $-1 $292 $342 #
straight-curve $-1 10.15999999999999837 -1.651000000000000023 0 0 0 1 I I #
plane-surface $-1 10.15999999999999837 -1.904999999999999805 0 1 0 0 0 0 -25.39999999999999858 forward_v I I I I #
coedge $-1 $320 $254 $339 $343 reversed $297 $-1 #
loop $-1 $-1 $320 $344 #
ellipse-curve $-1 9.906000000000000583 1.651000000000000023 -6.349999999999999645 0 0 1 0.2540000000000000036 -2.467162276944790943e-17 0 1 I I #
point $-1 10.15999999999999837 1.651000000000000245 -6.349999999999999645 #
vertex $-1 $319 $345 #
ellipse-curve $-1 7.619999999999999218 1.904999999999999805 -6.349999999999999645 0 1 0 0 0 -2.285999999999999144 1 I I #
face $-1 $344 $346 $2 $-1 $347 forward single #
loop $-1 $-1 $348 $261 #
torus-surface $-1 -2.202559939177608506 1.651000000000000245 -5.079999999999999183 0 1 0 3.555999999999999606 0.2540000000000000036 0 0 -1 forward_v I I I I #
coedge $-1 $349 $278 $348 $350 reversed $262 $-1 #
coedge $-1 $278 $351 $264 $307 reversed $262 $-1 #
edge $-1 $280 -1.570796326794896558 $352 -0.7975486516976773022 $264 $353 forward 7 unknown #
coedge $-1 $354 $265 $269 $313 reversed $310 $-1 #
coedge $-1 $265 $355 $282 $286 forward $310 $-1 #
loop $-1 $-1 $265 $356 #
ellipse-curve $-1 -9.906000000000000583 -1.651000000000000023 -0.2540000000000000591 0 0 -1 0 -0.2540000000000000036 0 1 I I #
coedge $-1 $269 $268 $357 $316 reversed $236 $-1 #
edge $-1 $358 0.462242197518076825 $229 1.269999999999999574 $269 $359 reversed 7 unknown #
coedge $-1 $360 $357 $272 $315 forward $361 $-1 #
edge $-1 $273 0 $352 0.9999450702268939395 $272 $362 forward 7 unknown #
edge $-1 $358 2.220446049250313081e-16 $273 3.30200000000000049 $312 $363 reversed 7 unknown #
point $-1 -10.15999999999999837 1.651000000000000023 -1.061757802481922752 #
coedge $-1 $364 $365 $275 $319 reversed $346 $-1 #
edge $-1 $300 0 $366 9.822559939177608612 $275 $367 forward 7 unknown #
coedge $-1 $276 $296 $364 $368 forward $297 $-1 #
coedge $-1 $369 $348 $277 $322 reversed $303 $-1 #
edge $-1 $366 -3.141592653589793116 $323 -2.26892802759262846 $277 $370 forward 7 unknown #
vertex $-1 $279 $371 #
straight-curve $-1 -9.965424711447779416 1.904999999999999805 -1.360731947139618869 -0.6427876096865394739 0 0.7660444431189779024 I I #
point $-1 -9.906000000000000583 1.904999999999999805 -1.431551560496383546 #
coedge $-1 $328 $282 $372 $373 forward $284 $-1 #
coedge $-1 $283 $374 $375 $376 forward $284 $-1 #
coedge $-1 $374 $326 $377 $378 reversed $284 $-1 #
face $-1 $379 $284 $2 $-1 $380 reversed single #
vertex $-1 $373 $381 #
straight-curve $-1 -9.906000000000000583 -1.904999999999999805 -1.524000000000000021 0 0 -1 I I #
coedge $-1 $375 $382 $288 $333 reversed $383 $-1 #
edge $-1 $334 -1.570796326794896558 $293 0 $332 $384 forward 7 unknown #
vertex $-1 $289 $385 #
straight-curve $-1 9.906000000000000583 -1.904999999999999805 0 0 0 1 I I #
face $-1 $329 $383 $2 $-1 $386 forward single #
cone-surface $-1 9.906000000000000583 -1.651000000000000023 0 0 0 1 0 -0.2540000000000000036 0 1 I I 0 1 0.2540000000000000036 forward I I I I #
coedge $-1 $387 $291 $382 $388 reversed $340 $-1 #
coedge $-1 $291 $387 $296 $343 forward $340 $-1 #
loop $-1 $-1 $339 $389 #
straight-curve $-1 10.15999999999999837 -1.904999999999999805 -6.349999999999999645 0 -1 0 I I #
point $-1 10.15999999999999837 -1.651000000000000023 -6.349999999999999645 #
edge $-1 $390 0 $256 1.570796326794896558 $339 $391 forward 7 unknown #
face $-1 $219 $297 $2 $-1 $392 forward single #
point $-1 7.619999999999999218 1.905000000000000027 -8.636000000000001009 #
loop $-1 $-1 $364 $302 #
cone-surface $-1 7.619999999999999218 1.651000000000000023 -8.636000000000001009 -1 0 0 0 0.2540000000000000036 0 1 I I 0 1 0.2540000000000000036 forward I I I I #
coedge $-1 $321 $393 $305 $350 forward $303 $-1 #
coedge $-1 $351 $305 $394 $395 reversed $262 $-1 #
edge $-1 $396 6.244223985518315928e-17 $323 1.57079632679489678 $305 $397 reversed 7 unknown #
coedge $-1 $306 $349 $360 $398 reversed $262 $-1 #
vertex $-1 $315 $399 #
ellipse-curve $-1 -9.906000000000000583 1.651000000000000023 -1.431551560496383546 -0.3420201433256727097 0 0.9396926207859067626 -0.2540000000000000036 0 -0.09244843950361662788 0.9396926207859068736 I I #
coedge $-1 $355 $308 $400 $401 forward $310 $-1 #
coedge $-1 $309 $354 $402 $403 reversed $310 $-1 #
face $-1 $226 $310 $2 $-1 $404 forward single #
coedge $-1 $314 $400 $312 $316 forward $361 $-1 #
vertex $-1 $316 $405 #
straight-curve $-1 -10.15999999999999837 -1.651000000000000023 -1.523999999999999577 0 0 -1 I I #
coedge $-1 $406 $314 $351 $398 forward $361 $-1 #
loop $-1 $-1 $314 $407 #
intcurve-curve $-1 forward { exactcur full nurbs 3 open 4 
	0 3 0.3387187273522648256 1 0.6721635795460344509 1 1 3 
	-10.15999999999999837 1.650999999999998913 -1.061757802481922752 1 
	-10.15975501680350135 1.675022602262684179 -1.114764192600595338 1.000000000000000222 
	-10.15360722665906223 1.720360251786920536 -1.217298279250097703 0.999999999999999889 
	-10.1264600760402903 1.782824419498414859 -1.362885651022013755 1 
	-10.09932042710386391 1.817153013014167984 -1.452912603780050604 1.000000000000000222 
	-10.08339967107332313 1.832764382716856266 -1.496150741054915967 1 
	0 
	null_surface 
	null_surface 
	nullbs 
	nullbs 
	I I 
	0 
	0 
	2 0.3387187273522648256 0.6721635795460344509 
	F 1 F 0 } I I #
straight-curve $-1 -10.15999999999999837 -1.651000000000000245 -1.061757802481922752 0 -1 0 I I #
coedge $-1 $408 $318 $320 $368 reversed $346 $-1 #
coedge $-1 $318 $408 $369 $409 reversed $346 $-1 #
vertex $-1 $322 $410 #
straight-curve $-1 7.619999999999999218 1.904999999999999805 -8.636000000000001009 -1 0 0 I I #
edge $-1 $390 9.713237310806264291e-17 $300 1.57079632679489678 $364 $411 forward 7 unknown #
coedge $-1 $393 $321 $365 $409 forward $303 $-1 #
ellipse-curve $-1 -2.202559939177608506 1.904999999999999805 -5.079999999999999183 0 1 0 0 0 3.555999999999999606 1 I I #
point $-1 -4.926613978908694236 1.905000000000000027 -7.365752740045333091 #
coedge $-1 $402 $412 $326 $373 reversed $413 $-1 #
edge $-1 $330 0.09244843950361422702 $414 7.838997915651020776 $326 $415 forward 7 unknown #
coedge $-1 $327 $328 $416 $417 reversed $284 $-1 #
coedge $-1 $418 $332 $327 $376 reversed $383 $-1 #
edge $-1 $419 -0 $334 1.570796326794896558 $327 $420 reversed 7 unknown #
coedge $-1 $421 $422 $328 $378 forward $423 $-1 #
edge $-1 $424 -3.141592653589793116 $414 -2.26892802759262846 $328 $425 forward 7 unknown #
face $-1 $426 $423 $2 $-1 $427 forward single #
plane-surface $-1 0 -1.904999999999999805 5.079999999999999183 0 1 0 25.39999999999999858 0 0 forward_v I I I I #
point $-1 -9.906000000000000583 -1.904999999999999805 -1.431551560496383546 #
coedge $-1 $332 $418 $338 $388 forward $383 $-1 #
loop $-1 $-1 $332 $336 #
ellipse-curve $-1 9.906000000000000583 -1.651000000000000023 -6.349999999999999645 -0 0 1 0.2540000000000000036 0 0 1 I I #
point $-1 9.906000000000000583 -1.905000000000000027 -6.349999999999999645 #
torus-surface $-1 7.619999999999999218 -1.651000000000000023 -6.349999999999999645 0 -1 0 2.285999999999999144 0.2540000000000000036 0 0 -1 forward_v I I I I #
coedge $-1 $339 $338 $428 $429 forward $340 $-1 #
edge $-1 $430 0 $293 1.570796326794896558 $338 $431 forward 7 unknown #
face $-1 $432 $340 $2 $-1 $433 forward single #
vertex $-1 $429 $434 #
ellipse-curve $-1 7.619999999999999218 1.651000000000000245 -6.349999999999999645 0 -1 0 0 0 -2.539999999999999591 1 I I #
torus-surface $-1 7.619999999999999218 1.651000000000000245 -6.349999999999999645 0 -1 0 2.285999999999999144 0.2540000000000000036 0 0 -1 forward_v I I I I #
coedge $-1 $348 $369 $435 $436 forward $303 $-1 #
coedge $-1 $437 $438 $349 $395 forward $439 $-1 #
edge $-1 $440 0.4622421975180772691 $396 7.838997915651020776 $394 $441 reversed 7 unknown #
vertex $-1 $442 $443 #
ellipse-curve $-1 -4.926613978908694236 1.651000000000000023 -7.365752740045333091 -0.6427876096865393629 0 0.7660444431189780135 -0.1945752885522204212 -1.586032892321652421e-17 -0.1632680528603810133 1 I I #
edge $-1 $352 -0.4578535313447489319 $440 -0 $351 $444 reversed 7 unknown #
point $-1 -10.08340962839810295 1.8327741008825158 -1.496123384505521736 #
coedge $-1 $357 $445 $354 $401 reversed $361 $-1 #
edge $-1 $358 0 $446 0.4578535313447489319 $354 $447 forward 7 unknown #
coedge $-1 $448 $372 $355 $403 forward $413 $-1 #
edge $-1 $330 -1.570796326794896558 $446 -0.7975486516976856288 $355 $449 forward 7 unknown #
cone-surface $-1 -9.906000000000000583 -1.651000000000000023 -1.523999999999999799 0 0 -1 0 -0.2540000000000000036 0 1 I I 0 1 0.2540000000000000036 forward I I I I #
point $-1 -10.15999999999999837 -1.651000000000000023 -1.061757802481922752 #
coedge $-1 $445 $360 $438 $450 reversed $361 $-1 #
face $-1 $451 $361 $2 $-1 $452 forward single #
coedge $-1 $365 $364 $453 $454 forward $346 $-1 #
edge $-1 $366 -1.570796326794903885 $455 -6.24422398551831223e-17 $369 $456 forward 7 unknown #
point $-1 -2.20255993917760895 1.904999999999999805 -8.635999999999999233 #
ellipse-curve $-1 7.619999999999999218 1.651000000000000023 -8.636000000000001009 1 0 0 0 -2.467162276944790943e-17 -0.2540000000000000036 1 I I #
coedge $-1 $372 $457 $421 $458 forward $413 $-1 #
loop $-1 $-1 $402 $451 #
vertex $-1 $373 $459 #
straight-curve $-1 -9.965424711447779416 -1.904999999999999805 -1.360731947139618869 0.6427876096865394739 0 -0.7660444431189779024 I I #
coedge $-1 $460 $461 $374 $417 forward $462 $-1 #
edge $-1 $419 -0 $424 9.822559939177608612 $374 $463 reversed 7 unknown #
coedge $-1 $382 $375 $461 $464 reversed $383 $-1 #
vertex $-1 $376 $465 #
ellipse-curve $-1 7.619999999999999218 -1.904999999999999805 -6.349999999999999645 0 1 0 0 0 -2.285999999999999144 1 I I #
coedge $-1 $466 $377 $412 $458 reversed $423 $-1 #
coedge $-1 $377 $466 $460 $467 reversed $423 $-1 #
loop $-1 $-1 $422 $379 #
vertex $-1 $417 $468 #
ellipse-curve $-1 -2.202559939177608506 -1.904999999999999805 -5.079999999999999183 0 1 0 0 0 3.555999999999999606 1 I I #
face $-1 $469 $462 $2 $-1 $470 forward single #
torus-surface $-1 -2.202559939177608506 -1.651000000000000023 -5.079999999999999183 0 1 0 3.555999999999999606 0.2540000000000000036 0 0 -1 forward_v I I I I #
coedge $-1 $471 $453 $387 $429 reversed $472 $-1 #
edge $-1 $430 0.2539999999999997815 $390 3.55600000000000005 $428 $473 reversed 7 unknown #
vertex $-1 $474 $475 #
ellipse-curve $-1 7.619999999999999218 -1.651000000000000023 -6.349999999999999645 0 -1 0 0 0 -2.539999999999999591 1 I I #
face $-1 $476 $477 $2 $-1 $478 forward single #
cone-surface $-1 7.619999999999999218 -1.904999999999999805 -6.349999999999999645 0 -1 0 0 0 -2.539999999999999591 1 I I 0 1 2.539999999999999591 forward I I I I #
point $-1 7.619999999999999218 1.651000000000000023 -8.889999999999998792 #
coedge $-1 $479 $480 $393 $436 reversed $477 $-1 #
edge $-1 $455 2.331176954593505008e-16 $396 0.8726646259971646558 $435 $481 forward 7 unknown #
coedge $-1 $482 $394 $480 $442 reversed $439 $-1 #
coedge $-1 $394 $482 $406 $450 forward $439 $-1 #
loop $-1 $-1 $438 $476 #
vertex $-1 $395 $483 #
straight-curve $-1 -10.15999999999999837 1.651000000000000023 -1.523999999999999355 -0.6427876096865394739 0 0.7660444431189779024 I I #
edge $-1 $484 0.2539999999999997815 $396 3.55600000000000005 $437 $485 forward 7 unknown #
point $-1 -5.121189267460913186 1.651000000000000023 -7.529020792905713577 #
intcurve-curve $-1 forward { surfintcur full nubs 3 open 3 
	0 3 0.4153146300658170365 2 0.4578535313447489319 3 
	-9.862876442761102425 1.651000000000000023 -1.878098066783828735 
	-9.944109509475216768 1.707517162576333902 -1.78128826768983739 
	-10.01665219988842104 1.769064435880549624 -1.663943690322482016 
	-10.07348745692125114 1.823146179650736887 -1.522689246446085276 
	-10.07855008562145116 1.828053009966788656 -1.509458201701864954 
	-10.08339217483252703 1.83281339977880231 -1.496131080567007832 
	0.0005185259886634744795 
	cone -9.965424711447779416 1.651000000000000023 -1.360731947139618869 -0.6427876096865394739 0 0.7660444431189779024 0 0.2540000000000000036 0 1 I I 0 1 0.2540000000000000036 forward I I I I 
	cone -8.889999999999998792 -1.651000000000000245 -1.061757802481922752 0 -1 0 -1.269999999999999796 0 0 1 I I 0 1 1.269999999999999796 forward I I I I 
	nullbs 
	nullbs 
	F 1.00000000000000059e-06 I 
	0 
	1 1.00000000000000059e-06 
	0 
	} I I #
coedge $-1 $400 $406 $448 $486 reversed $361 $-1 #
vertex $-1 $403 $487 #
intcurve-curve $-1 forward { surfintcur full nubs 3 open 3 
	0 3 0.4153146300658165924 2 0.4578535313447489319 3 
	-10.16000000000000014 -1.651000000000000023 -1.061757802481922752 
	-10.16000000000000014 -1.70751716257633368 -1.188134019898012372 
	-10.14014328448429403 -1.769064435880551622 -1.324654723891351749 
	-10.09288501097062252 -1.823146179650737775 -1.469394904702781002 
	-10.08825845792919118 -1.828053009966789544 -1.482784668006681184 
	-10.08340120512414195 -1.832813399778803198 -1.496106270044687658 
	0.0005185259886619204926 
	cone -9.906000000000000583 -1.651000000000000023 -1.523999999999999799 0 0 -1 0 -0.2540000000000000036 0 1 I I 0 1 0.2540000000000000036 forward I I I I 
	cone -8.889999999999998792 -1.651000000000000245 -1.061757802481922752 0 -1 0 -1.269999999999999796 0 0 1 I I 0 1 1.269999999999999796 forward I I I I 
	nullbs 
	nullbs 
	F 9.999999999999993195e-07 I 
	0 
	1 9.999999999999993195e-07 
	0 
	} I I #
coedge $-1 $457 $402 $445 $486 forward $413 $-1 #
ellipse-curve $-1 -9.906000000000000583 -1.651000000000000023 -1.431551560496383546 0.3420201433256742085 0 -0.9396926207859064295 -0.2540000000000000036 0 -0.09244843950361708584 0.9396926207859063185 I I #
edge $-1 $488 2.220446049250313081e-16 $440 3.30200000000000049 $438 $489 reversed 7 unknown #
face $-1 $356 $413 $2 $-1 $490 forward single #
cone-surface $-1 -8.889999999999998792 -1.651000000000000245 -1.061757802481922752 0 -1 0 -1.269999999999999796 0 0 1 I I 0 1 1.269999999999999796 forward I I I I #
coedge $-1 $428 $491 $408 $454 reversed $472 $-1 #
edge $-1 $390 0 $455 9.822559939177608612 $453 $492 forward 7 unknown #
vertex $-1 $493 $494 #
ellipse-curve $-1 -2.202559939177609394 1.651000000000000023 -8.636000000000001009 -1 0 2.497689594207324892e-16 -6.344131569286604752e-17 -1.586032892321651188e-17 -0.2540000000000000036 1 I I #
coedge $-1 $412 $448 $482 $495 forward $413 $-1 #
edge $-1 $484 0 $414 1.570796326794896558 $412 $496 forward 7 unknown #
point $-1 -4.926613978908694236 -1.905000000000000027 -7.365752740045333091 #
coedge $-1 $497 $416 $422 $467 forward $462 $-1 #
coedge $-1 $416 $497 $418 $464 forward $462 $-1 #
loop $-1 $-1 $460 $426 #
straight-curve $-1 7.619999999999999218 -1.904999999999999805 -8.636000000000001009 1 0 0 I I #
edge $-1 $430 -0 $419 1.570796326794903663 $461 $498 reversed 7 unknown #
point $-1 7.619999999999999218 -1.904999999999999805 -8.635999999999999233 #
coedge $-1 $422 $421 $499 $500 reversed $423 $-1 #
edge $-1 $424 -1.570796326794896558 $501 -0 $422 $502 reversed 7 unknown #
point $-1 -2.202559939177609394 -1.905000000000000027 -8.636000000000001009 #
face $-1 $389 $472 $2 $-1 $503 forward single #
cone-surface $-1 7.619999999999999218 -1.651000000000000023 -8.636000000000001009 1 0 0 0 -0.2540000000000000036 0 1 I I 0 1 0.2540000000000000036 forward I I I I #
coedge $-1 $491 $428 $497 $474 forward $472 $-1 #
loop $-1 $-1 $453 $469 #
straight-curve $-1 7.619999999999999218 -1.904999999999999805 -8.889999999999998792 0 -1 0 I I #
edge $-1 $430 -0 $501 9.822559939177608612 $471 $504 reversed 7 unknown #
point $-1 7.619999999999999218 -1.651000000000000023 -8.889999999999998792 #
face $-1 $407 $439 $2 $-1 $505 reversed single #
loop $-1 $-1 $499 $432 #
cone-surface $-1 -2.202559939177608506 -1.904999999999999805 -5.079999999999999183 0 1 0 0 0 -3.809999999999999609 1 I I 0 1 3.809999999999999609 forward I I I I #
coedge $-1 $499 $435 $491 $493 reversed $477 $-1 #
coedge $-1 $435 $499 $437 $442 forward $477 $-1 #
ellipse-curve $-1 -2.202559939177608506 1.651000000000000245 -5.079999999999999183 0 1 0 0 0 -3.809999999999999609 1 I I #
coedge $-1 $438 $437 $457 $495 reversed $439 $-1 #
point $-1 -9.862876442761100648 1.651000000000000245 -1.878098066783827846 #
vertex $-1 $495 $506 #
straight-curve $-1 -5.121189267460914962 -1.904999999999999805 -7.529020792905715354 0 1 0 I I #
edge $-1 $446 0 $488 1 $448 $507 forward 7 unknown #
point $-1 -10.08340962839810118 -1.832774100882517132 -1.496123384505521958 #
vertex $-1 $495 $508 #
straight-curve $-1 -9.862876442761100648 -1.651000000000000245 -1.878098066783827846 0 -1 0 I I #
cone-surface $-1 -9.965424711447779416 -1.651000000000000023 -1.360731947139618869 0.6427876096865394739 0 -0.7660444431189779024 0 -0.2540000000000000036 0 1 I I 0 1 0.2540000000000000036 forward I I I I #
coedge $-1 $453 $471 $479 $493 forward $472 $-1 #
straight-curve $-1 7.619999999999999218 1.651000000000000023 -8.889999999999998792 -1 0 0 I I #
edge $-1 $501 0.2539999999999997815 $455 3.55600000000000005 $491 $509 forward 7 unknown #
point $-1 -2.202559939177609394 1.651000000000000023 -8.889999999999998792 #
edge $-1 $488 0.4622421975180772691 $484 7.838997915651020776 $482 $510 forward 7 unknown #
ellipse-curve $-1 -4.926613978908694236 -1.651000000000000023 -7.365752740045333091 -0.6427876096865393629 0 0.7660444431189780135 -0.1945752885522204212 0 -0.1632680528603810133 1 I I #
coedge $-1 $461 $460 $471 $474 reversed $462 $-1 #
ellipse-curve $-1 7.619999999999999218 -1.651000000000000023 -8.636000000000001009 1 0 0 0 0 -0.2540000000000000036 1 I I #
coedge $-1 $480 $479 $466 $500 forward $477 $-1 #
edge $-1 $501 2.331176954593505008e-16 $484 0.8726646259971645447 $499 $511 forward 7 unknown #
vertex $-1 $493 $512 #
ellipse-curve $-1 -2.202559939177609394 -1.651000000000000023 -8.636000000000001009 -1 0 2.497689594207324892e-16 -6.344131569286604752e-17 0 -0.2540000000000000036 1 I I #
plane-surface $-1 10.15999999999999837 -1.904999999999999805 -8.889999999999998792 0 0 -1 -25.39999999999999858 0 0 forward_v I I I I #
straight-curve $-1 7.619999999999999218 -1.651000000000000023 -8.889999999999998792 1 0 0 I I #
plane-surface $-1 -10.15999999999999837 1.904999999999999805 -1.523999999999999799 0.7660444431189780135 0 0.6427876096865394739 16.32680528603810188 0 -19.45752885522204068 forward_v I I I I #
point $-1 -5.121189267460914962 -1.651000000000000023 -7.529020792905715354 #
intcurve-curve $-1 forward { exactcur full nurbs 3 open 4 
	0 3 0.3278376805170278852 1 0.6612829666147453933 1 1 3 
	-10.08339967107332491 -1.832764382716857376 -1.496150741054914857 1 
	-10.06780361787836497 -1.817144767154247775 -1.539498654637505792 0.999999999999999778 
	-10.03072814953054603 -1.782805133492826544 -1.625893461111692639 1 
	-9.957946535187460313 -1.72035218040230431 -1.75485554091370588 1 
	-9.896755912159052926 -1.6750191222269466 -1.837341217252068892 1 
	-9.862876442761100648 -1.651000000000000245 -1.878098066783828068 1 
	0 
	null_surface 
	null_surface 
	nullbs 
	nullbs 
	I I 
	0 
	0 
	2 0.3278376805170278852 0.6612829666147453933 
	F 1 F 0 } I I #
point $-1 -9.862876442761100648 -1.651000000000000023 -1.878098066783827846 #
straight-curve $-1 -2.202559939177608506 -1.904999999999999805 -8.889999999999998792 0 1 0 I I #
straight-curve $-1 -10.15999999999999837 -1.651000000000000023 -1.523999999999999355 0.6427876096865394739 0 -0.7660444431189779024 I I #
ellipse-curve $-1 -2.202559939177608506 -1.651000000000000023 -5.079999999999999183 0 1 0 0 0 -3.809999999999999609 1 I I #
point $-1 -2.202559939177609394 -1.651000000000000023 -8.889999999999998792 #
End-of-ACIS-data 