600 0 1 0           
93 GICL Pro/E ACIS Translator - Source: f:/data5/repository/PTC/V18/process18/pl34-712.prt - 6 0 13 ACIS 6.0.3 NT 24 Thu Apr 04 13:31:06 2002 
1 9.9999999999999995e-007 1e-010 
body $-1 $1 $-1 $2 #
lump $-1 $-1 $3 $0 #
transform $-1 1 0 0 0 1 0 0 0 1 0 0 0 25.399999999999999 no_rotate no_reflect no_shear #
shell $-1 $-1 $-1 $4 $-1 $1 #
face $-1 $5 $6 $3 $-1 $7 reversed single #
face $-1 $8 $9 $3 $-1 $10 forward single #
loop $-1 $11 $12 $4 #
plane-surface $-1 0 0 0 0 0 1 1 0 0 forward_v I I I I #
face $-1 $13 $14 $3 $-1 $15 forward single #
loop $-1 $-1 $16 $5 #
torus-surface $-1 0 0 0.024999999999999998 0 0 1 0.47499999999999998 0.024999999999999998 1 0 0 forward_v I I I I #
loop $-1 $-1 $17 $4 #
coedge $-1 $18 $18 $19 $20 reversed $6 $-1 #
face $-1 $21 $22 $3 $-1 $23 forward single #
loop $-1 $-1 $24 $8 #
torus-surface $-1 0 0 0.024999999999999998 0 0 1 0.47499999999999998 0.024999999999999998 1 0 0 forward_v I I I I #
coedge $-1 $25 $19 $26 $27 forward $9 $-1 #
coedge $-1 $28 $29 $30 $31 reversed $11 $-1 #
coedge $-1 $12 $12 $32 $33 reversed $6 $-1 #
coedge $-1 $16 $34 $12 $20 forward $9 $-1 #
edge $-1 $35 0 $36 3.1415926535897931 $12 $37 forward 7 unknown #
face $-1 $38 $39 $3 $-1 $40 forward single #
loop $-1 $-1 $41 $13 #
cone-surface $-1 0 0 0 0 0 1 0.5 0 0 1 I I 0 1 0.5 forward I I I I #
coedge $-1 $42 $32 $34 $43 forward $14 $-1 #
coedge $-1 $34 $16 $44 $45 reversed $9 $-1 #
coedge $-1 $32 $42 $16 $27 reversed $14 $-1 #
edge $-1 $36 -1.1397421485848236e-030 $46 1.5707963267948954 $26 $47 forward 7 unknown #
coedge $-1 $48 $17 $49 $50 reversed $11 $-1 #
coedge $-1 $17 $51 $52 $53 forward $11 $-1 #
coedge $-1 $54 $55 $17 $31 forward $56 $-1 #
edge $-1 $57 0 $58 1.5707963267949001 $17 $59 forward 7 unknown #
coedge $-1 $24 $26 $18 $33 forward $14 $-1 #
edge $-1 $36 0 $35 3.1415926535897931 $18 $60 forward 7 unknown #
coedge $-1 $19 $25 $24 $43 reversed $9 $-1 #
vertex $-1 $33 $61 #
vertex $-1 $33 $62 #
ellipse-curve $-1 2.7755575615628914e-017 1.3877787807814457e-017 0 0 0 1 -0.47499999999999998 4.4291013998748456e-017 0 1 I I #
face $-1 $63 $64 $3 $-1 $65 forward single #
loop $-1 $-1 $66 $21 #
cone-surface $-1 0 0 0 0 0 1 0.5 0 0 1 I I 0 1 0.5 forward I I I I #
coedge $-1 $67 $68 $69 $70 forward $22 $-1 #
coedge $-1 $26 $24 $68 $71 reversed $14 $-1 #
edge $-1 $35 0 $72 1.5707963267948954 $24 $73 forward 7 unknown #
coedge $-1 $66 $69 $25 $45 forward $39 $-1 #
edge $-1 $72 0 $46 3.1415926535897931 $44 $74 forward 7 unknown #
vertex $-1 $71 $75 #
ellipse-curve $-1 0.47499999999999998 -1.163376036131258e-016 0.025000000000000029 -2.4492127076447555e-016 -1 9.8607613152626371e-031 0 -2.4651903288156619e-032 -0.025000000000000029 1 I I #
coedge $-1 $76 $28 $77 $78 forward $11 $-1 #
coedge $-1 $79 $80 $28 $50 forward $81 $-1 #
edge $-1 $82 0 $57 0.78000000000000003 $28 $83 forward 7 unknown #
coedge $-1 $29 $84 $85 $86 forward $11 $-1 #
coedge $-1 $87 $88 $29 $53 reversed $89 $-1 #
edge $-1 $90 0 $58 0.13 $29 $91 forward 7 unknown #
coedge $-1 $92 $30 $88 $93 forward $56 $-1 #
coedge $-1 $30 $92 $79 $94 forward $56 $-1 #
loop $-1 $-1 $55 $63 #
vertex $-1 $50 $95 #
vertex $-1 $53 $96 #
ellipse-curve $-1 0.39000000000000007 0.065000000000000016 0 0 0 -1 -5.5511151231257827e-017 0.019999999999999976 0 1 I I #
ellipse-curve $-1 -2.7755575615628914e-017 -1.3877787807814457e-017 0 0 0 1 0.47499999999999998 1.3877787807814457e-017 0 1 I I #
point $-1 -0.47499999999999998 5.8168801806562912e-017 0 #
point $-1 0.47499999999999998 0 0 #
face $-1 $97 $56 $3 $-1 $98 reversed single #
loop $-1 $-1 $99 $38 #
plane-surface $-1 0 0 0.19999999999999998 0 0 1 1 0 0 forward_v I I I I #
coedge $-1 $100 $44 $101 $102 forward $39 $-1 #
coedge $-1 $101 $41 $103 $104 reversed $22 $-1 #
coedge $-1 $41 $101 $42 $71 forward $22 $-1 #
coedge $-1 $44 $100 $41 $70 reversed $39 $-1 #
edge $-1 $72 0 $105 0.17499999999999999 $41 $106 forward 7 unknown #
edge $-1 $46 0 $72 3.1415926535897931 $68 $107 forward 7 unknown #
vertex $-1 $71 $108 #
ellipse-curve $-1 -0.47499999999999998 5.81688018065629e-017 0.025000000000000029 1.2246063538223778e-016 1 4.9303806576313185e-031 0 1.2325951644078309e-032 -0.025000000000000029 1 I I #
ellipse-curve $-1 0 0 0.024999999999999998 0 0 1 -0.5 6.1230317691118851e-017 0 1 I I #
point $-1 0.5 0 0.024999999999999998 #
coedge $-1 $109 $48 $110 $111 reversed $11 $-1 #
coedge $-1 $112 $113 $48 $78 reversed $114 $-1 #
edge $-1 $82 0 $115 1.5707963267949001 $48 $116 forward 7 unknown #
coedge $-1 $117 $49 $55 $94 reversed $81 $-1 #
coedge $-1 $49 $117 $112 $118 forward $81 $-1 #
loop $-1 $-1 $79 $97 #
vertex $-1 $78 $119 #
straight-curve $-1 -0.39000000000000001 0.084999999999999992 0 1 0 0 I I #
coedge $-1 $51 $109 $120 $121 forward $11 $-1 #
coedge $-1 $122 $123 $51 $86 reversed $124 $-1 #
edge $-1 $125 0 $90 1.5707963267948994 $51 $126 forward 7 unknown #
coedge $-1 $127 $52 $123 $128 reversed $89 $-1 #
coedge $-1 $52 $127 $54 $93 reversed $89 $-1 #
loop $-1 $-1 $87 $129 #
vertex $-1 $53 $130 #
straight-curve $-1 0.41000000000000003 -0.065000000000000002 0 0 1 0 I I #
coedge $-1 $55 $54 $131 $132 reversed $56 $-1 #
edge $-1 $58 0 $133 1.5707963267948839 $54 $134 forward 7 unknown #
edge $-1 $135 -1.7347234759768056e-016 $57 1.5707963267948948 $79 $136 forward 7 unknown #
point $-1 0.39000000000000001 0.084999999999999992 0 #
point $-1 0.41000000000000003 0.065000000000000002 0 #
face $-1 $137 $81 $3 $-1 $138 reversed single #
torus-surface $-1 0.39000000000000001 0.065000000000000002 -0.01 0 0 -1 0.01999999999999999 0.01 0 1 0 forward_v I I I I #
coedge $-1 $103 $103 $100 $139 forward $64 $-1 #
coedge $-1 $69 $66 $99 $139 reversed $39 $-1 #
coedge $-1 $68 $67 $66 $102 reversed $22 $-1 #
edge $-1 $46 0 $140 0.17499999999999999 $101 $141 forward 7 unknown #
coedge $-1 $99 $99 $67 $104 forward $64 $-1 #
edge $-1 $140 0 $105 3.1415926535897931 $103 $142 forward 7 unknown #
vertex $-1 $104 $143 #
straight-curve $-1 -0.5 6.1230317691118863e-017 0.024999999999999998 0 0 1 I I #
ellipse-curve $-1 0 0 0.024999999999999998 0 0 1 0.5 0 0 1 I I #
point $-1 -0.5 6.1230317691118851e-017 0.024999999999999998 #
coedge $-1 $84 $76 $144 $145 reversed $11 $-1 #
coedge $-1 $146 $147 $76 $111 forward $148 $-1 #
edge $-1 $149 0 $115 0.13 $76 $150 forward 7 unknown #
coedge $-1 $151 $77 $80 $118 reversed $114 $-1 #
coedge $-1 $77 $151 $146 $152 forward $114 $-1 #
loop $-1 $-1 $113 $153 #
vertex $-1 $111 $154 #
ellipse-curve $-1 -0.39000000000000007 0.065000000000000016 0 2.4074124304840505e-031 8.6736173798840453e-017 1 5.5511151231257827e-017 0.019999999999999976 -1.7347234759768071e-018 1 I I #
coedge $-1 $80 $79 $155 $156 reversed $81 $-1 #
edge $-1 $157 -1.7347234759768081e-016 $82 1.5707963267948966 $80 $158 forward 7 unknown #
point $-1 -0.39000000000000001 0.084999999999999992 0 #
coedge $-1 $159 $160 $84 $121 reversed $161 $-1 #
edge $-1 $162 0 $125 0.78000000000000003 $84 $163 forward 7 unknown #
coedge $-1 $164 $85 $160 $165 forward $124 $-1 #
coedge $-1 $85 $164 $87 $128 forward $124 $-1 #
loop $-1 $-1 $123 $166 #
vertex $-1 $86 $167 #
ellipse-curve $-1 0.39000000000000007 -0.065000000000000002 0 0 0 1 -5.5511151231257827e-017 -0.01999999999999999 0 1 I I #
coedge $-1 $88 $87 $168 $169 forward $89 $-1 #
edge $-1 $170 -1.7347234759768056e-016 $90 1.5707963267948963 $87 $171 forward 7 unknown #
face $-1 $172 $89 $3 $-1 $173 reversed single #
point $-1 0.41000000000000003 -0.065000000000000002 0 #
coedge $-1 $174 $175 $92 $132 forward $176 $-1 #
edge $-1 $135 0 $133 1.5707963267948966 $131 $177 forward 7 unknown #
vertex $-1 $169 $178 #
ellipse-curve $-1 0.41000000000000009 0.065000000000000002 -0.010000000000000071 0 -1 0 -5.5511151231257827e-017 0 0.010000000000000071 1 I I #
vertex $-1 $179 $180 #
ellipse-curve $-1 0.39000000000000001 0.085000000000000006 -0.010000000000000002 -1 0 0 0 -0.010000000000000009 3.4694469519536142e-018 1 I I #
face $-1 $181 $182 $3 $-1 $183 forward single #
cone-surface $-1 -0.39000000000000001 0.084999999999999992 -0.01 1 0 0 0 0 0.01 1 I I 0 1 0.01 forward I I I I #
edge $-1 $105 0 $140 3.1415926535897931 $99 $184 forward 7 unknown #
vertex $-1 $104 $185 #
straight-curve $-1 0.5 0 0.024999999999999998 0 0 1 I I #
ellipse-curve $-1 0 0 0.19999999999999998 0 0 1 0.5 0 0 1 I I #
point $-1 -0.5 0 0.19999999999999998 #
coedge $-1 $186 $187 $109 $145 forward $188 $-1 #
edge $-1 $162 0 $149 1.5707963267948994 $109 $189 forward 7 unknown #
coedge $-1 $190 $110 $113 $152 reversed $148 $-1 #
coedge $-1 $110 $190 $186 $191 reversed $148 $-1 #
loop $-1 $-1 $146 $172 #
vertex $-1 $145 $192 #
straight-curve $-1 -0.41000000000000003 -0.065000000000000002 0 0 1 0 I I #
coedge $-1 $113 $112 $193 $194 forward $114 $-1 #
edge $-1 $195 0 $115 1.5707963267948961 $146 $196 forward 7 unknown #
face $-1 $197 $114 $3 $-1 $198 reversed single #
point $-1 -0.41000000000000003 0.065000000000000002 0 #
coedge $-1 $199 $200 $117 $156 forward $182 $-1 #
edge $-1 $157 0 $135 0.78000000000000003 $155 $201 forward 7 unknown #
vertex $-1 $156 $202 #
ellipse-curve $-1 -0.39000000000000001 0.084999999999999992 -0.01 -1 0 0 0 -0.009999999999999995 0 1 I I #
coedge $-1 $203 $120 $187 $204 reversed $161 $-1 #
coedge $-1 $120 $203 $122 $165 reversed $161 $-1 #
loop $-1 $-1 $159 $205 #
vertex $-1 $121 $206 #
straight-curve $-1 -0.39000000000000001 -0.084999999999999992 0 1 0 0 I I #
coedge $-1 $123 $122 $207 $208 forward $124 $-1 #
edge $-1 $125 0 $209 1.5707963267948979 $122 $210 forward 7 unknown #
face $-1 $129 $124 $3 $-1 $211 reversed single #
point $-1 0.39000000000000001 -0.084999999999999992 0 #
coedge $-1 $212 $213 $127 $169 reversed $214 $-1 #
edge $-1 $170 0 $133 0.13 $168 $215 forward 7 unknown #
vertex $-1 $169 $216 #
ellipse-curve $-1 0.41000000000000003 -0.065000000000000002 -0.01 0 1 0 -0.010000000000000009 0 1.7347234759768071e-018 1 I I #
face $-1 $153 $148 $3 $-1 $217 reversed single #
cone-surface $-1 0.41000000000000003 -0.065000000000000002 -0.01 0 -1 0 0 0 0.01 1 I I 0 1 0.01 forward I I I I #
coedge $-1 $218 $131 $213 $219 forward $176 $-1 #
coedge $-1 $131 $218 $199 $179 reversed $176 $-1 #
loop $-1 $-1 $131 $220 #
ellipse-curve $-1 0.39000000000000001 0.065000000000000002 -0.0099999999999999985 0 0 -1 0 0.009999999999999995 0 1 I I #
point $-1 0.40000000000000002 0.065000000000000002 -0.01 #
edge $-1 $135 -8.6736173798840355e-018 $221 0.23999999999999999 $199 $222 forward 7 unknown #
point $-1 0.39000000000000001 0.074999999999999997 -0.01 #
face $-1 $223 $224 $3 $-1 $225 forward single #
loop $-1 $-1 $200 $137 #
plane-surface $-1 0 0.074999999999999997 0.19999999999999998 0 1 0 1 0 0 forward_v I I I I #
ellipse-curve $-1 0 0 0.19999999999999998 0 0 1 -0.5 0 0 1 I I #
point $-1 0.5 0 0.19999999999999998 #
coedge $-1 $226 $144 $147 $191 forward $188 $-1 #
coedge $-1 $144 $226 $159 $204 forward $188 $-1 #
loop $-1 $-1 $187 $227 #
ellipse-curve $-1 -0.39000000000000007 -0.065000000000000002 0 -2.4074124304840474e-031 8.6736173798840404e-017 -1 5.5511151231257827e-017 -0.01999999999999999 -1.7347234759768071e-018 1 I I #
coedge $-1 $147 $146 $228 $229 reversed $148 $-1 #
edge $-1 $149 0 $230 1.5707963267948966 $186 $231 forward 7 unknown #
point $-1 -0.41000000000000003 -0.065000000000000002 0 #
coedge $-1 $232 $233 $151 $194 reversed $224 $-1 #
edge $-1 $157 0 $195 1.5707963267948966 $193 $234 forward 7 unknown #
vertex $-1 $235 $236 #
ellipse-curve $-1 -0.41000000000000003 0.065000000000000002 -0.010000000000000005 0 -1 0 0.010000000000000009 0 5.2041704279304213e-018 1 I I #
face $-1 $-1 $237 $3 $-1 $238 forward single #
torus-surface $-1 -0.39000000000000001 0.065000000000000002 -0.010000000000000002 0 0 1 0.01999999999999999 0.01 0 1 0 forward_v I I I I #
coedge $-1 $239 $155 $175 $179 forward $182 $-1 #
coedge $-1 $155 $240 $232 $241 forward $182 $-1 #
straight-curve $-1 -0.39000000000000001 0.074999999999999997 -0.010000000000000009 1 0 0 I I #
point $-1 -0.39000000000000001 0.074999999999999997 -0.010000000000000002 #
coedge $-1 $160 $159 $242 $243 forward $161 $-1 #
edge $-1 $244 -1.7347234759768081e-016 $162 1.5707963267948966 $159 $245 forward 7 unknown #
face $-1 $166 $161 $3 $-1 $246 reversed single #
point $-1 -0.39000000000000001 -0.084999999999999992 0 #
coedge $-1 $247 $248 $164 $208 reversed $249 $-1 #
edge $-1 $209 0 $170 1.5707963267948966 $207 $250 forward 7 unknown #
vertex $-1 $243 $251 #
ellipse-curve $-1 0.39000000000000001 -0.084999999999999992 -0.0099999999999999881 -1 0 0 0 0 0.0099999999999999881 1 I I #
torus-surface $-1 0.39000000000000001 -0.065000000000000002 -0.01 0 0 1 0.01999999999999999 0.01 0 -1 0 forward_v I I I I #
coedge $-1 $252 $168 $248 $253 forward $214 $-1 #
coedge $-1 $168 $252 $174 $219 reversed $214 $-1 #
loop $-1 $-1 $212 $254 #
straight-curve $-1 0.39999999999999997 -0.065000000000000002 -0.01 0 1 0 I I #
point $-1 0.40000000000000002 -0.065000000000000002 -0.01 #
cone-surface $-1 -0.41000000000000003 -0.065000000000000002 -0.01 0 1 0 0 0 0.01 1 I I 0 1 0.01 forward I I I I #
coedge $-1 $175 $174 $255 $256 reversed $176 $-1 #
edge $-1 $133 1.6049416203226967e-033 $257 0.23999999999999999 $213 $258 forward 7 unknown #
face $-1 $254 $176 $3 $-1 $259 forward single #
vertex $-1 $260 $261 #
straight-curve $-1 0.39000000000000001 0.074999999999999997 -0.010000000000000009 0 0 -1 I I #
face $-1 $262 $263 $3 $-1 $264 forward single #
loop $-1 $-1 $265 $181 #
cone-surface $-1 -0.39000000000000001 0.065000000000000002 -0.059999999999999998 0 0 1 0 0.01 0 1 I I 0 1 0.01 forward I I I I #
coedge $-1 $187 $186 $266 $267 reversed $188 $-1 #
face $-1 $205 $188 $3 $-1 $268 reversed single #
coedge $-1 $269 $270 $190 $229 forward $237 $-1 #
edge $-1 $230 0 $195 0.13 $228 $271 forward 7 unknown #
vertex $-1 $229 $272 #
ellipse-curve $-1 -0.41000000000000003 -0.065000000000000002 -0.01 0 1 0 0 0 0.01 1 I I #
coedge $-1 $265 $193 $200 $241 reversed $224 $-1 #
coedge $-1 $193 $273 $269 $235 forward $224 $-1 #
ellipse-curve $-1 -0.39000000000000001 0.065000000000000002 -0.01 0 0 1 0 0.009999999999999995 0 1 I I #
edge $-1 $274 2.0816681711721685e-017 $195 0.03180148828668989 $269 $275 forward 7 unknown #
point $-1 -0.40000000000000002 0.065000000000000002 -0.01 #
loop $-1 $-1 $270 $197 #
plane-surface $-1 -0.39999999999999997 -0.074999999999999997 -0.34999999999999998 -1 0 0 0 0 1 forward_v I I I I #
coedge $-1 $276 $199 $277 $260 reversed $182 $-1 #
coedge $-1 $200 $278 $279 $280 reversed $182 $-1 #
edge $-1 $281 2.0816681711721685e-017 $157 0.046360297657337936 $200 $282 forward 7 unknown #
coedge $-1 $283 $284 $203 $243 reversed $285 $-1 #
edge $-1 $244 0 $209 0.78000000000000003 $242 $286 forward 7 unknown #
vertex $-1 $287 $288 #
ellipse-curve $-1 -0.39000000000000001 -0.084999999999999992 -0.01 1 0 0 0 0.009999999999999995 0 1 I I #
cone-surface $-1 -0.39000000000000001 -0.084999999999999992 -0.01 -1 0 0 0 0 0.01 1 I I 0 1 0.01 forward I I I I #
coedge $-1 $289 $207 $284 $290 forward $249 $-1 #
coedge $-1 $207 $289 $212 $253 reversed $249 $-1 #
loop $-1 $-1 $289 $291 #
ellipse-curve $-1 0.39000000000000001 -0.065000000000000002 -0.0099999999999999985 0 0 1 0 -0.009999999999999995 0 1 I I #
point $-1 0.39000000000000001 -0.074999999999999997 -0.01 #
coedge $-1 $213 $212 $292 $293 forward $214 $-1 #
edge $-1 $170 0 $294 0.23999999999999999 $212 $295 forward 7 unknown #
face $-1 $291 $214 $3 $-1 $296 forward single #
coedge $-1 $297 $277 $218 $256 forward $298 $-1 #
edge $-1 $221 0 $257 1.570796326794887 $255 $299 forward 7 unknown #
vertex $-1 $219 $300 #
straight-curve $-1 0.39999999999999997 0.065000000000000016 -0.01 0 -1.1564823173178715e-016 -1 I I #
cone-surface $-1 0.39000000000000001 0.065000000000000002 0 0 0 -1 0 0.01 0 1 I I 0 1 0.01 forward I I I I #
edge $-1 $301 0 $221 1.5707963267948972 $239 $302 forward 7 unknown #
point $-1 0.39000000000000001 0.074999999999999997 -0.25 #
face $-1 $303 $304 $3 $-1 $305 forward single #
loop $-1 $-1 $306 $223 #
cone-surface $-1 -0.39233955556881023 0.065000000000000002 -0.053572123903134601 -0.64278760968653947 0 0.7660444431189779 0 0.01 0 1 I I 0 1 0.01 forward I I I I #
coedge $-1 $273 $232 $307 $308 forward $224 $-1 #
coedge $-1 $309 $310 $226 $267 forward $311 $-1 #
edge $-1 $244 0 $230 1.5707963267948966 $266 $312 forward 7 unknown #
torus-surface $-1 -0.39000000000000001 -0.065000000000000002 -0.010000000000000002 0 0 -1 0.01999999999999999 0.01 0 -1 0 forward_v I I I I #
coedge $-1 $313 $228 $233 $235 reversed $237 $-1 #
coedge $-1 $228 $313 $309 $314 forward $237 $-1 #
straight-curve $-1 -0.39999999999999997 -0.065000000000000002 -0.010000000000000009 0 1 0 I I #
point $-1 -0.40000000000000002 -0.065000000000000002 -0.01 #
coedge $-1 $233 $265 $315 $316 reversed $224 $-1 #
vertex $-1 $317 $318 #
straight-curve $-1 -0.39999999999999997 0.065000000000000016 -0.041801488286689892 0 0 1 I I #
coedge $-1 $278 $239 $319 $320 forward $182 $-1 #
coedge $-1 $255 $321 $239 $260 forward $298 $-1 #
coedge $-1 $240 $276 $322 $323 forward $182 $-1 #
coedge $-1 $306 $307 $240 $280 forward $263 $-1 #
edge $-1 $281 -1.5946503349440853e-017 $324 0.3049822628404491 $240 $325 forward 7 unknown #
vertex $-1 $280 $326 #
straight-curve $-1 -0.39000000000000001 0.074999999999999997 -0.056360297657337938 0 0 1 I I #
coedge $-1 $327 $242 $310 $287 reversed $285 $-1 #
coedge $-1 $242 $328 $247 $290 reversed $285 $-1 #
loop $-1 $-1 $329 $330 #
straight-curve $-1 -0.39000000000000001 -0.074999999999999997 -0.010000000000000009 1 0 0 I I #
edge $-1 $331 2.0816681711721685e-017 $244 0.046360297657337936 $283 $332 forward 7 unknown #
point $-1 -0.39000000000000001 -0.074999999999999997 -0.010000000000000002 #
coedge $-1 $248 $247 $333 $334 forward $249 $-1 #
edge $-1 $209 -8.6736173798840355e-018 $335 0.23999999999999999 $284 $336 forward 7 unknown #
face $-1 $337 $249 $3 $-1 $338 forward single #
coedge $-1 $339 $340 $252 $293 reversed $341 $-1 #
edge $-1 $294 0 $257 0.13 $252 $342 forward 7 unknown #
vertex $-1 $293 $343 #
straight-curve $-1 0.39999999999999997 -0.065000000000000002 -0.01 0 0 -1 I I #
plane-surface $-1 0.39999999999999997 -0.074999999999999997 0 1 0 0 0 0 -1 forward_v I I I I #
coedge $-1 $321 $255 $340 $344 reversed $298 $-1 #
loop $-1 $-1 $321 $345 #
ellipse-curve $-1 0.38999999999999996 0.064999999999999947 -0.25 0 0 -1 5.5511151231257827e-017 0.010000000000000051 0 1 I I #
point $-1 0.39999999999999997 0.064999999999999988 -0.25 #
vertex $-1 $320 $346 #
ellipse-curve $-1 0.29999999999999993 0.074999999999999997 -0.25000000000000011 9.5107651574678506e-032 -1 -1.5419764230904969e-016 5.5511151231257827e-017 1.3877787807814457e-017 -0.089999999999999913 1 I I #
face $-1 $345 $347 $3 $-1 $348 forward single #
loop $-1 $-1 $349 $262 #
torus-surface $-1 -0.086714958235338924 0.065000000000000016 -0.19999999999999998 0 1 0 0.13999999999999999 0.01 0 0 -1 forward_v I I I I #
coedge $-1 $350 $279 $349 $351 reversed $263 $-1 #
coedge $-1 $279 $352 $265 $308 reversed $263 $-1 #
edge $-1 $281 0 $353 1 $265 $354 forward 7 unknown #
coedge $-1 $355 $266 $270 $314 reversed $311 $-1 #
coedge $-1 $266 $356 $283 $287 forward $311 $-1 #
loop $-1 $-1 $266 $357 #
ellipse-curve $-1 -0.39000000000000001 -0.065000000000000002 -0.01 0 0 -1 0 -0.009999999999999995 0 1 I I #
coedge $-1 $270 $269 $358 $317 reversed $237 $-1 #
edge $-1 $359 2.0816681711721685e-017 $230 0.03180148828668989 $270 $360 forward 7 unknown #
coedge $-1 $361 $358 $273 $316 forward $362 $-1 #
edge $-1 $274 0 $353 1 $273 $363 forward 7 unknown #
edge $-1 $359 0 $274 0.12999999999999998 $313 $364 forward 7 unknown #
point $-1 -0.39999999999999997 0.064999999999999961 -0.041801488286689871 #
coedge $-1 $365 $366 $276 $320 reversed $347 $-1 #
edge $-1 $301 0 $367 0.38671495823533897 $276 $368 forward 7 unknown #
coedge $-1 $277 $297 $365 $369 forward $298 $-1 #
coedge $-1 $370 $349 $278 $323 reversed $304 $-1 #
edge $-1 $367 3.9650822308041228e-016 $324 0.87266462599716377 $278 $371 forward 7 unknown #
vertex $-1 $280 $372 #
straight-curve $-1 -0.39000000000000001 0.074999999999999997 -0.056360297657337938 0.64278760968653947 0 -0.76604444311897801 I I #
point $-1 -0.39000000000000001 0.074999999999999997 -0.056360297657337917 #
coedge $-1 $329 $283 $373 $374 forward $285 $-1 #
coedge $-1 $284 $375 $376 $377 forward $285 $-1 #
coedge $-1 $375 $327 $378 $379 reversed $285 $-1 #
face $-1 $380 $285 $3 $-1 $381 reversed single #
vertex $-1 $374 $382 #
straight-curve $-1 -0.39000000000000001 -0.074999999999999997 -0.056360297657337938 0 0 1 I I #
coedge $-1 $376 $383 $289 $334 reversed $384 $-1 #
edge $-1 $335 0 $294 1.5707963267948841 $333 $385 forward 7 unknown #
vertex $-1 $290 $386 #
straight-curve $-1 0.39000000000000001 -0.074999999999999997 -0.010000000000000009 0 0 -1 I I #
face $-1 $330 $384 $3 $-1 $387 forward single #
cone-surface $-1 0.39000000000000001 -0.065000000000000002 0 0 0 1 0 -0.01 0 1 I I 0 1 0.01 forward I I I I #
coedge $-1 $388 $292 $383 $389 reversed $341 $-1 #
coedge $-1 $292 $388 $297 $344 forward $341 $-1 #
loop $-1 $-1 $340 $390 #
straight-curve $-1 0.39999999999999997 -0.065000000000000002 -0.25 0 1 0 I I #
point $-1 0.39999999999999997 -0.065000000000000002 -0.25 #
edge $-1 $391 0 $257 1.5707963267948966 $340 $392 forward 7 unknown #
face $-1 $220 $298 $3 $-1 $393 forward single #
point $-1 0.29999999999999999 0.074999999999999997 -0.34000000000000002 #
loop $-1 $-1 $365 $303 #
cone-surface $-1 0.29999999999999999 0.065000000000000002 -0.34000000000000002 -1 0 0 0 0.01 0 1 I I 0 1 0.01 forward I I I I #
coedge $-1 $322 $394 $306 $351 forward $304 $-1 #
coedge $-1 $352 $306 $395 $396 reversed $263 $-1 #
edge $-1 $397 4.8148248609681474e-031 $324 1.5707963267949057 $306 $398 forward 7 unknown #
coedge $-1 $307 $350 $361 $399 reversed $263 $-1 #
tvertex-vertex $-1 $316 $400 1.1803327431000272e-006 #
intcurve-curve $-1 forward { surfintcur full nurbs 3 open 4 
	0 3 0.33504912937552855 1 0.6686211324413156 1 1 3 
	-0.39000000000000001 0.074999999999999997 -0.056360297657337917 1 
	-0.3908909062550156 0.074995181275799724 -0.05668225844577602 0.99999999999999989 
	-0.39259570689627143 0.074775884899893827 -0.057299852325233928 1.0000000000000002 
	-0.39501905160042056 0.073775509702068379 -0.058187934341383682 0.99999999999999978 
	-0.39636459223223069 0.072758188549781402 -0.058677949966057588 1 
	-0.39698423901863483 0.072156078059718784 -0.058903572482477025 1 
	0.001 
	cone -0.39000000000000001 0.065000000000000002 -0.059999999999999998 0 0 1 0 0.01 0 1 I I 0 1 0.01 forward I I I I 
	cone -0.39233955556881023 0.065000000000000002 -0.053572123903134601 -0.64278760968653947 0 0.7660444431189779 0 0.01 0 1 I I 0 1 0.01 forward I I I I 
	nullbs 
	nullbs 
	F 0.00011789494727951302 I 
	0 
	1 0.00011789494727951302 
	0 
	} I I #
coedge $-1 $356 $309 $401 $402 forward $311 $-1 #
coedge $-1 $310 $355 $403 $404 reversed $311 $-1 #
face $-1 $227 $311 $3 $-1 $405 forward single #
coedge $-1 $315 $401 $313 $317 forward $362 $-1 #
vertex $-1 $317 $406 #
straight-curve $-1 -0.39999999999999997 -0.065000000000000002 -0.041801488286689892 0 0 1 I I #
coedge $-1 $407 $315 $352 $399 forward $362 $-1 #
loop $-1 $-1 $315 $408 #
intcurve-curve $-1 forward { surfintcur full nurbs 3 open 4 
	0 3 0.33871872735226483 1 0.67216357954603445 1 1 3 
	-0.39999999999999997 0.064999999999999961 -0.041801488286689871 1 
	-0.39999035499226387 0.065945771742625364 -0.043888354039393521 1.0000000000000002 
	-0.39974831601019933 0.06773071857428821 -0.047925129104334559 0.99999999999999989 
	-0.39867953055276734 0.070189937775528149 -0.053656915394567475 1 
	-0.39761104043716 0.071541457205282211 -0.057201283613387825 1.0000000000000002 
	-0.39698423901863478 0.072156078059718756 -0.058903572482477011 1 
	0.001 
	cone -0.34999999999999998 -0.065000000000000016 -0.041801488286689871 0 -1 0 -0.049999999999999996 0 0 1 I I 0 1 0.049999999999999996 forward I I I I 
	cone -0.39000000000000001 0.065000000000000002 -0.059999999999999998 0 0 1 0 0.01 0 1 I I 0 1 0.01 forward I I I I 
	nullbs 
	nullbs 
	F 4.9278267593278046e-005 I 
	0 
	1 4.9278267593278046e-005 
	0 
	} I I #
straight-curve $-1 -0.39999999999999997 -0.065000000000000016 -0.041801488286689892 0 1 0 I I #
coedge $-1 $409 $319 $321 $369 reversed $347 $-1 #
coedge $-1 $319 $409 $370 $410 reversed $347 $-1 #
vertex $-1 $323 $411 #
straight-curve $-1 0.29999999999999999 0.074999999999999997 -0.34000000000000008 -1 0 0 I I #
edge $-1 $391 -2.7755575615629044e-015 $301 1.5707963267948981 $365 $412 forward 7 unknown #
coedge $-1 $394 $322 $366 $410 forward $304 $-1 #
ellipse-curve $-1 -0.086714958235338868 0.074999999999999997 -0.19999999999999982 3.930469274259657e-032 1 9.9127055770103157e-017 -5.5511151231257827e-017 1.3877787807814457e-017 -0.14000000000000015 1 I I #
point $-1 -0.19396118027199585 0.074999999999999997 -0.2899902653561155 #
coedge $-1 $403 $413 $327 $374 reversed $414 $-1 #
edge $-1 $331 -1.5946503349440853e-017 $415 0.3049822628404491 $327 $416 forward 7 unknown #
coedge $-1 $328 $329 $417 $418 reversed $285 $-1 #
coedge $-1 $419 $333 $328 $377 reversed $384 $-1 #
edge $-1 $420 0 $335 1.5707963267948972 $328 $421 forward 7 unknown #
coedge $-1 $422 $423 $329 $379 forward $424 $-1 #
edge $-1 $425 3.9650822308041228e-016 $415 0.87266462599716377 $329 $426 forward 7 unknown #
face $-1 $427 $424 $3 $-1 $428 forward single #
plane-surface $-1 0 -0.074999999999999997 0.19999999999999998 0 1 0 1 0 0 forward_v I I I I #
point $-1 -0.39000000000000001 -0.074999999999999997 -0.056360297657337917 #
coedge $-1 $333 $419 $339 $389 forward $384 $-1 #
loop $-1 $-1 $333 $337 #
ellipse-curve $-1 0.38999999999999996 -0.064999999999999933 -0.25 0 0 1 5.5511151231257827e-017 -0.010000000000000064 0 1 I I #
point $-1 0.39000000000000001 -0.074999999999999997 -0.25 #
torus-surface $-1 0.29999999999999999 -0.065000000000000002 -0.25 0 -1 0 0.089999999999999969 0.01 0 0 -1 forward_v I I I I #
coedge $-1 $340 $339 $429 $430 forward $341 $-1 #
edge $-1 $431 0 $294 1.5707963267948966 $339 $432 forward 7 unknown #
face $-1 $433 $341 $3 $-1 $434 forward single #
vertex $-1 $430 $435 #
ellipse-curve $-1 0.29999999999999999 0.064999999999999988 -0.25 0 -1 0 0 0 -0.099999999999999978 1 I I #
torus-surface $-1 0.29999999999999999 0.065000000000000016 -0.25 0 -1 0 0.089999999999999969 0.01 0 0 -1 forward_v I I I I #
coedge $-1 $349 $370 $436 $437 forward $304 $-1 #
coedge $-1 $438 $439 $350 $396 forward $440 $-1 #
edge $-1 $441 2.1262004465921133e-017 $397 0.29042345346980097 $395 $442 forward 7 unknown #
vertex $-1 $443 $444 #
ellipse-curve $-1 -0.19396118027199585 0.065000000000000044 -0.28999026535611555 0.6427876096865387 -5.7777898331617783e-030 -0.76604444311897868 -0.0076604444311897391 -5.5511151231257827e-017 -0.0064278760968653481 1 I I #
edge $-1 $353 0 $441 1 $352 $445 forward 7 unknown #
point $-1 -0.39698423901863483 0.072156078059718784 -0.058903572482477025 #
coedge $-1 $358 $446 $355 $402 reversed $362 $-1 #
edge $-1 $359 0 $447 1 $355 $448 forward 7 unknown #
coedge $-1 $449 $373 $356 $404 forward $414 $-1 #
edge $-1 $331 0 $447 1 $356 $450 forward 7 unknown #
cone-surface $-1 -0.39000000000000001 -0.065000000000000002 -0.059999999999999998 0 0 -1 0 -0.01 0 1 I I 0 1 0.01 forward I I I I #
point $-1 -0.39999999999999997 -0.065000000000000016 -0.041801488286689871 #
coedge $-1 $446 $361 $439 $451 reversed $362 $-1 #
face $-1 $452 $362 $3 $-1 $453 forward single #
coedge $-1 $366 $365 $454 $455 forward $347 $-1 #
edge $-1 $367 0 $456 1.5707963267949063 $370 $457 forward 7 unknown #
point $-1 -0.086714958235338979 0.074999999999999997 -0.34000000000000002 #
ellipse-curve $-1 0.29999999999999999 0.065000000000000002 -0.34000000000000002 1 0 0 0 -1.3877787807814457e-017 -0.0099999999999999534 1 I I #
coedge $-1 $373 $458 $422 $459 forward $414 $-1 #
loop $-1 $-1 $403 $452 #
vertex $-1 $374 $460 #
straight-curve $-1 -0.39000000000000001 -0.074999999999999997 -0.056360297657337938 0.64278760968653947 0 -0.76604444311897801 I I #
coedge $-1 $461 $462 $375 $418 forward $463 $-1 #
edge $-1 $420 0 $425 0.38671495823533897 $375 $464 forward 7 unknown #
coedge $-1 $383 $376 $462 $465 reversed $384 $-1 #
vertex $-1 $377 $466 #
ellipse-curve $-1 0.29999999999999993 -0.074999999999999997 -0.25000000000000011 0 -1 0 5.5511151231257827e-017 0 -0.089999999999999913 1 I I #
coedge $-1 $467 $378 $413 $459 reversed $424 $-1 #
coedge $-1 $378 $467 $461 $468 reversed $424 $-1 #
loop $-1 $-1 $423 $380 #
vertex $-1 $418 $469 #
ellipse-curve $-1 -0.086714958235338868 -0.074999999999999997 -0.19999999999999982 0 1 0 -5.5511151231257827e-017 0 -0.14000000000000015 1 I I #
face $-1 $470 $463 $3 $-1 $471 forward single #
torus-surface $-1 -0.086714958235338924 -0.065000000000000002 -0.19999999999999998 0 1 0 0.13999999999999999 0.01 0 0 -1 forward_v I I I I #
coedge $-1 $472 $454 $388 $430 reversed $473 $-1 #
edge $-1 $431 0 $391 0.12999999999999995 $429 $474 forward 7 unknown #
vertex $-1 $475 $476 #
ellipse-curve $-1 0.29999999999999999 -0.065000000000000002 -0.25 0 -1 0 0 0 -0.099999999999999978 1 I I #
face $-1 $477 $478 $3 $-1 $479 forward single #
cone-surface $-1 0.29999999999999999 -0.074999999999999997 -0.25 0 -1 0 0 0 -0.099999999999999992 1 I I 0 1 0.099999999999999992 forward I I I I #
point $-1 0.29999999999999999 0.064999999999999961 -0.34999999999999998 #
coedge $-1 $480 $481 $394 $437 reversed $478 $-1 #
edge $-1 $456 0 $397 0.87266462599716454 $436 $482 forward 7 unknown #
coedge $-1 $483 $395 $481 $443 reversed $440 $-1 #
coedge $-1 $395 $483 $407 $451 forward $440 $-1 #
loop $-1 $-1 $439 $477 #
vertex $-1 $396 $484 #
straight-curve $-1 -0.3883022221559489 0.065000000000000002 -0.073940868771016841 0.64278760968653958 0 -0.7660444431189779 I I #
edge $-1 $485 2.7755575615628914e-017 $397 0.13 $438 $486 forward 7 unknown #
point $-1 -0.20162162470318559 0.064999999999999988 -0.2964181414529809 #
intcurve-curve $-1 forward { surfintcur full nurbs 3 open 4 
	0 3 0.32783768051703044 1 0.66128296661475161 1 1 3 
	-0.39698423901863478 0.072156078059718756 -0.058903572482477011 1 
	-0.39637022117631354 0.071541132565127813 -0.060610183253445214 0.99999999999999978 
	-0.39491055706813172 0.070189178483969467 -0.064011553587074707 1.0000000000000002 
	-0.3920451391806084 0.067730400803240123 -0.069088800823374624 0.99999999999999978 
	-0.38963605953382086 0.065945634733344222 -0.072336268395750941 0.99999999999999989 
	-0.38830222215594884 0.064999999999999961 -0.073940868771016854 1 
	0.001 
	cone -0.34999999999999998 -0.065000000000000016 -0.041801488286689871 0 -1 0 -0.049999999999999996 0 0 1 I I 0 1 0.049999999999999996 forward I I I I 
	cone -0.39233955556881023 0.065000000000000002 -0.053572123903134601 -0.64278760968653947 0 0.7660444431189779 0 0.01 0 1 I I 0 1 0.01 forward I I I I 
	nullbs 
	nullbs 
	I F 0.99995071495434407 
	0 
	1 0.99995071495434407 
	0 
	} I I #
coedge $-1 $401 $407 $449 $487 reversed $362 $-1 #
tvertex-vertex $-1 $404 $488 1.1803327429885033e-006 #
intcurve-curve $-1 forward { surfintcur full nurbs 3 open 4 
	0 3 0.33871872735226449 1 0.67216357954603434 1 1 3 
	-0.39999999999999997 -0.065000000000000016 -0.041801488286689871 1 
	-0.39999035499226382 -0.065945771742625392 -0.0438883540393935 1.0000000000000002 
	-0.39974831601019944 -0.067730718574288223 -0.047925129104334524 0.99999999999999978 
	-0.39867953055276717 -0.070189937775528136 -0.053656915394567427 1.0000000000000002 
	-0.39761104043716022 -0.071541457205282252 -0.057201283613387804 0.99999999999999989 
	-0.39698423901863483 -0.072156078059718798 -0.058903572482476969 1 
	0.001 
	cone -0.39000000000000001 -0.065000000000000002 -0.059999999999999998 0 0 -1 0 -0.01 0 1 I I 0 1 0.01 forward I I I I 
	cone -0.34999999999999998 -0.065000000000000016 -0.041801488286689871 0 -1 0 -0.049999999999999996 0 0 1 I I 0 1 0.049999999999999996 forward I I I I 
	nullbs 
	nullbs 
	F 4.9278267593278656e-005 I 
	0 
	1 4.9278267593278656e-005 
	0 
	} I I #
coedge $-1 $458 $403 $446 $487 forward $414 $-1 #
intcurve-curve $-1 forward { surfintcur full nurbs 3 open 4 
	0 3 0.33504912937552411 1 0.66862113244131405 1 1 3 
	-0.39000000000000001 -0.074999999999999997 -0.056360297657337917 1 
	-0.39089090625501544 -0.07499518127579971 -0.056682258445775985 1 
	-0.39259570689627138 -0.074775884899893869 -0.057299852325233838 1 
	-0.39501905160042056 -0.07377550970206842 -0.058187934341383654 1 
	-0.39636459223223075 -0.072758188549781402 -0.058677949966057547 1 
	-0.39698423901863489 -0.072156078059718784 -0.058903572482477004 1 
	0.001 
	cone -0.39233955556881023 -0.065000000000000002 -0.053572123903134601 0.64278760968653947 0 -0.7660444431189779 0 -0.01 0 1 I I 0 1 0.01 forward I I I I 
	cone -0.39000000000000001 -0.065000000000000002 -0.059999999999999998 0 0 -1 0 -0.01 0 1 I I 0 1 0.01 forward I I I I 
	nullbs 
	nullbs 
	F 0.00011789494727953093 I 
	0 
	1 0.00011789494727953093 
	0 
	} I I #
edge $-1 $489 1.3877787807814457e-017 $441 0.13 $439 $490 forward 7 unknown #
face $-1 $357 $414 $3 $-1 $491 forward single #
cone-surface $-1 -0.34999999999999998 -0.065000000000000016 -0.041801488286689871 0 -1 0 -0.049999999999999996 0 0 1 I I 0 1 0.049999999999999996 forward I I I I #
coedge $-1 $429 $492 $409 $455 reversed $473 $-1 #
edge $-1 $391 0 $456 0.38671495823533891 $454 $493 forward 7 unknown #
vertex $-1 $494 $495 #
ellipse-curve $-1 -0.086714958235338979 0.06500000000000003 -0.34000000000000008 -1 0 0 0 0.0099999999999999672 5.5511151231257827e-017 1 I I #
coedge $-1 $413 $449 $483 $496 forward $414 $-1 #
edge $-1 $485 -1.3877787807814224e-015 $415 1.5707963267949092 $413 $497 forward 7 unknown #
point $-1 -0.19396118027199585 -0.074999999999999997 -0.2899902653561155 #
coedge $-1 $498 $417 $423 $468 forward $463 $-1 #
coedge $-1 $417 $498 $419 $465 forward $463 $-1 #
loop $-1 $-1 $461 $427 #
straight-curve $-1 0.29999999999999999 -0.074999999999999997 -0.34000000000000008 -1 0 0 I I #
edge $-1 $431 0 $420 1.5707963267948966 $462 $499 forward 7 unknown #
point $-1 0.29999999999999999 -0.074999999999999997 -0.34000000000000002 #
coedge $-1 $423 $422 $500 $501 reversed $424 $-1 #
edge $-1 $425 0 $502 1.570796326794905 $423 $503 forward 7 unknown #
point $-1 -0.086714958235338979 -0.074999999999999997 -0.34000000000000002 #
face $-1 $390 $473 $3 $-1 $504 forward single #
cone-surface $-1 0.29999999999999999 -0.065000000000000002 -0.34000000000000002 1 0 0 0 -0.01 0 1 I I 0 1 0.01 forward I I I I #
coedge $-1 $492 $429 $498 $475 forward $473 $-1 #
loop $-1 $-1 $454 $470 #
straight-curve $-1 0.29999999999999999 -0.065000000000000002 -0.34999999999999998 0 1 0 I I #
edge $-1 $431 0 $502 0.38671495823533891 $472 $505 forward 7 unknown #
point $-1 0.29999999999999999 -0.065000000000000002 -0.34999999999999998 #
face $-1 $408 $440 $3 $-1 $506 reversed single #
loop $-1 $-1 $500 $433 #
cone-surface $-1 -0.086714958235338924 -0.074999999999999997 -0.19999999999999998 0 1 0 0 0 -0.14999999999999999 1 I I 0 1 0.14999999999999999 forward I I I I #
coedge $-1 $500 $436 $492 $494 reversed $478 $-1 #
coedge $-1 $436 $500 $438 $443 forward $478 $-1 #
ellipse-curve $-1 -0.086714958235338924 0.064999999999999988 -0.19999999999999998 0 1 0 0 0 -0.14999999999999999 1 I I #
coedge $-1 $439 $438 $458 $496 reversed $440 $-1 #
point $-1 -0.3883022221559489 0.065000000000000002 -0.073940868771016868 #
vertex $-1 $496 $507 #
straight-curve $-1 -0.20162162470318562 -0.065000000000000016 -0.2964181414529809 0 1 0 I I #
edge $-1 $447 0 $489 1 $449 $508 forward 7 unknown #
point $-1 -0.39698423901863489 -0.072156078059718784 -0.058903572482477004 #
vertex $-1 $496 $509 #
straight-curve $-1 -0.38830222215594884 -0.065000000000000016 -0.073940868771016868 0 1 0 I I #
cone-surface $-1 -0.39233955556881023 -0.065000000000000002 -0.053572123903134601 0.64278760968653947 0 -0.7660444431189779 0 -0.01 0 1 I I 0 1 0.01 forward I I I I #
coedge $-1 $454 $472 $480 $494 forward $473 $-1 #
straight-curve $-1 0.29999999999999999 0.064999999999999988 -0.34999999999999998 -1 0 0 I I #
edge $-1 $502 0 $456 0.13 $492 $510 forward 7 unknown #
point $-1 -0.086714958235338924 0.064999999999999988 -0.34999999999999998 #
edge $-1 $489 2.1262004465921133e-017 $485 0.29042345346980092 $483 $511 forward 7 unknown #
ellipse-curve $-1 -0.19396118027199588 -0.065000000000000072 -0.28999026535611555 -0.64278760968654003 5.2963073470649855e-030 0.76604444311897746 -0.0076604444311897113 6.9388939039072284e-017 -0.0064278760968653481 1 I I #
coedge $-1 $462 $461 $472 $475 reversed $463 $-1 #
ellipse-curve $-1 0.29999999999999999 -0.065000000000000002 -0.34000000000000002 -1 0 0 0 0 -0.0099999999999999534 1 I I #
coedge $-1 $481 $480 $467 $501 forward $478 $-1 #
edge $-1 $502 0 $485 0.87266462599716477 $500 $512 forward 7 unknown #
vertex $-1 $494 $513 #
ellipse-curve $-1 -0.086714958235338979 -0.06500000000000003 -0.34000000000000008 1 0 0 0 -0.0099999999999999672 5.5511151231257827e-017 1 I I #
plane-surface $-1 0.39999999999999997 -0.074999999999999997 -0.34999999999999998 0 0 -1 -1 0 0 forward_v I I I I #
straight-curve $-1 0.29999999999999999 -0.065000000000000002 -0.34999999999999998 -1 3.5886348620031918e-017 0 I I #
plane-surface $-1 -0.39999999999999997 0.074999999999999997 -0.059999999999999998 0.76604444311897801 0 0.64278760968653947 0.64278760968653947 0 -0.76604444311897801 forward_v I I I I #
point $-1 -0.20162162470318565 -0.064999999999999988 -0.2964181414529809 #
intcurve-curve $-1 forward { surfintcur full nurbs 3 open 4 
	0 3 0.32783768051702789 1 0.66128296661474539 1 1 3 
	-0.39698423901863483 -0.072156078059718798 -0.058903572482476969 1 
	-0.3963702211763136 -0.071541132565127868 -0.060610183253445117 0.99999999999999978 
	-0.39491055706813177 -0.07018917848396955 -0.064011553587074513 1 
	-0.39204513918060868 -0.067730400803240332 -0.06908880082337425 1 
	-0.38963605953382102 -0.06594563473334436 -0.072336268395750747 1 
	-0.38830222215594884 -0.065000000000000016 -0.073940868771016854 1 
	0.001 
	cone -0.39233955556881023 -0.065000000000000002 -0.053572123903134601 0.64278760968653947 0 -0.7660444431189779 0 -0.01 0 1 I I 0 1 0.01 forward I I I I 
	cone -0.34999999999999998 -0.065000000000000016 -0.041801488286689871 0 -1 0 -0.049999999999999996 0 0 1 I I 0 1 0.049999999999999996 forward I I I I 
	nullbs 
	nullbs 
	I F 0.99995071495434407 
	0 
	1 0.99995071495434407 
	0 
	} I I #
point $-1 -0.3883022221559489 -0.065000000000000002 -0.073940868771016868 #
straight-curve $-1 -0.086714958235338924 -0.065000000000000002 -0.34999999999999998 0 1 0 I I #
straight-curve $-1 -0.3883022221559489 -0.065000000000000016 -0.073940868771016841 0.64278760968653958 9.5569332586684587e-017 -0.7660444431189779 I I #
ellipse-curve $-1 -0.086714958235338924 -0.065000000000000002 -0.19999999999999998 0 1 0 0 0 -0.14999999999999999 1 I I #
point $-1 -0.086714958235338924 -0.065000000000000002 -0.34999999999999998 #
End-of-ACIS-data 