600 0 1 0           
93 GICL Pro/E ACIS Translator - Source: f:/data5/repository/PTC/V18/process18/sm67-980.prt - 6 0 13 ACIS 6.0.3 NT 24 Thu Apr 04 13:31:10 2002 
1 9.9999999999999995e-007 1e-010 
body $-1 $1 $-1 $2 #
lump $-1 $-1 $3 $0 #
transform $-1 1 0 0 0 1 0 0 0 1 0 0 0 25.399999999999999 no_rotate no_reflect no_shear #
shell $-1 $-1 $-1 $4 $-1 $1 #
face $-1 $5 $6 $3 $-1 $7 forward single #
face $-1 $8 $9 $3 $-1 $10 reversed single #
loop $-1 $11 $12 $4 #
plane-surface $-1 22 0.099999999999999992 22 1 0 0 0 1 0 forward_v I I I I #
face $-1 $13 $14 $3 $-1 $15 reversed single #
loop $-1 $-1 $16 $5 #
cone-surface $-1 22 0.59999999999999998 19 -1 0 0 0 -0.049999999999999996 0 1 I I 0 1 0.049999999999999996 forward I I I I #
loop $-1 $17 $18 $4 #
coedge $-1 $19 $19 $20 $21 forward $6 $-1 #
face $-1 $22 $23 $3 $-1 $24 reversed single #
loop $-1 $-1 $25 $8 #
cone-surface $-1 22 0.59999999999999998 19 -1 0 0 0 -0.049999999999999996 0 1 I I 0 1 0.049999999999999996 forward I I I I #
coedge $-1 $26 $20 $27 $28 forward $9 $-1 #
loop $-1 $29 $30 $4 #
coedge $-1 $31 $31 $32 $33 forward $11 $-1 #
coedge $-1 $12 $12 $34 $35 forward $6 $-1 #
coedge $-1 $16 $36 $12 $21 reversed $9 $-1 #
edge $-1 $37 0 $38 3.1415926535897931 $12 $39 forward 7 unknown #
face $-1 $40 $41 $3 $-1 $42 reversed single #
loop $-1 $43 $44 $13 #
plane-surface $-1 21.899999999999999 0.099999999999999992 22 1 0 0 0 1 0 forward_v I I I I #
coedge $-1 $45 $34 $36 $46 forward $14 $-1 #
coedge $-1 $36 $16 $44 $47 forward $9 $-1 #
coedge $-1 $34 $45 $16 $28 reversed $14 $-1 #
edge $-1 $37 0 $48 0.10000000000000142 $27 $49 forward 7 unknown #
loop $-1 $50 $51 $4 #
coedge $-1 $52 $52 $53 $54 forward $17 $-1 #
coedge $-1 $18 $18 $55 $56 forward $11 $-1 #
coedge $-1 $57 $58 $18 $33 reversed $41 $-1 #
edge $-1 $59 0 $60 3.1415926535897931 $18 $61 forward 7 unknown #
coedge $-1 $25 $27 $19 $35 reversed $14 $-1 #
edge $-1 $38 0 $37 3.1415926535897931 $19 $62 forward 7 unknown #
coedge $-1 $20 $26 $25 $46 reversed $9 $-1 #
vertex $-1 $35 $63 #
vertex $-1 $35 $64 #
ellipse-curve $-1 22 0.59999999999999998 19 -1 0 0 0 0.049999999999999933 0 1 I I #
face $-1 $65 $66 $3 $-1 $67 reversed single #
loop $-1 $-1 $57 $22 #
cone-surface $-1 22 3.75 20 -1 0 0 0 -0.25 0 1 I I 0 1 0.25 forward I I I I #
loop $-1 $68 $69 $13 #
coedge $-1 $70 $70 $26 $47 reversed $23 $-1 #
coedge $-1 $27 $25 $70 $71 forward $14 $-1 #
edge $-1 $38 0 $72 0.10000000000000142 $25 $73 forward 7 unknown #
edge $-1 $48 0 $72 3.141592653589651 $44 $74 forward 7 unknown #
vertex $-1 $71 $75 #
straight-curve $-1 22 0.65000000000000002 19 -1 0 0 I I #
loop $-1 $76 $77 $4 #
coedge $-1 $78 $79 $80 $81 forward $29 $-1 #
coedge $-1 $30 $30 $82 $83 forward $17 $-1 #
coedge $-1 $84 $85 $30 $54 reversed $86 $-1 #
edge $-1 $87 0 $88 3.1415926535897931 $30 $89 forward 7 unknown #
coedge $-1 $90 $91 $31 $56 reversed $66 $-1 #
edge $-1 $60 0 $59 3.1415926535897931 $31 $92 forward 7 unknown #
coedge $-1 $93 $32 $91 $94 forward $41 $-1 #
coedge $-1 $32 $93 $90 $95 reversed $41 $-1 #
vertex $-1 $56 $96 #
vertex $-1 $56 $97 #
ellipse-curve $-1 22 3.75 20 -1 0 0 0 0.25 0 1 I I #
ellipse-curve $-1 22 0.59999999999999998 19 -1 0 0 0 -0.050000000000000044 0 1 I I #
point $-1 22 0.64999999999999991 19 #
point $-1 22 0.54999999999999993 19 #
face $-1 $98 $86 $3 $-1 $99 reversed single #
loop $-1 $-1 $90 $40 #
cone-surface $-1 22 3.75 20 -1 0 0 0 -0.25 0 1 I I 0 1 0.25 forward I I I I #
loop $-1 $100 $101 $13 #
coedge $-1 $102 $102 $93 $103 reversed $43 $-1 #
coedge $-1 $44 $44 $45 $71 reversed $23 $-1 #
edge $-1 $72 0 $48 3.141592653589651 $70 $104 forward 7 unknown #
vertex $-1 $71 $105 #
straight-curve $-1 22 0.54999999999999993 19 -1 0 0 I I #
ellipse-curve $-1 21.899999999999999 0.59999999999999987 19.000000000000004 -1 0 0 0 0.050000000000000044 -3.5527136788005009e-015 1 I I #
point $-1 21.899999999999999 0.64999999999999991 19 #
loop $-1 $-1 $106 $4 #
coedge $-1 $107 $107 $108 $109 forward $50 $-1 #
coedge $-1 $110 $51 $111 $112 forward $29 $-1 #
coedge $-1 $51 $113 $114 $115 reversed $29 $-1 #
coedge $-1 $116 $117 $51 $81 reversed $118 $-1 #
edge $-1 $119 0 $120 3.1000000000000014 $51 $121 forward 7 unknown #
coedge $-1 $122 $123 $52 $83 reversed $124 $-1 #
edge $-1 $88 0 $87 3.1415926535897931 $52 $125 forward 7 unknown #
coedge $-1 $126 $53 $123 $127 forward $86 $-1 #
coedge $-1 $53 $126 $122 $128 reversed $86 $-1 #
loop $-1 $-1 $84 $65 #
vertex $-1 $83 $129 #
vertex $-1 $83 $130 #
ellipse-curve $-1 22 5.75 20 -1 0 0 0 0.24999999999999911 0 1 I I #
coedge $-1 $131 $55 $58 $95 forward $66 $-1 #
coedge $-1 $55 $131 $57 $94 reversed $66 $-1 #
ellipse-curve $-1 22 3.75 20 -1 0 0 0 -0.25 0 1 I I #
coedge $-1 $58 $57 $69 $103 forward $41 $-1 #
edge $-1 $59 0 $132 0.10000000000000142 $91 $133 forward 7 unknown #
edge $-1 $60 0 $134 0.10000000000000142 $90 $135 forward 7 unknown #
point $-1 22 4 20 #
point $-1 22 3.5 20 #
face $-1 $136 $124 $3 $-1 $137 reversed single #
cone-surface $-1 22 5.75 20 -1 0 0 0 -0.25 0 1 I I 0 1 0.25 forward I I I I #
loop $-1 $138 $139 $13 #
coedge $-1 $140 $140 $126 $141 reversed $68 $-1 #
coedge $-1 $69 $69 $131 $142 reversed $43 $-1 #
edge $-1 $132 0 $134 3.1415926535897931 $69 $143 forward 7 unknown #
ellipse-curve $-1 21.899999999999999 0.59999999999999987 18.999999999999996 -1 0 0 0 -0.049999999999999933 3.5527136788005009e-015 1 I I #
point $-1 21.899999999999999 0.54999999999999993 19 #
coedge $-1 $144 $144 $145 $146 forward $76 $-1 #
coedge $-1 $77 $77 $147 $148 forward $50 $-1 #
coedge $-1 $149 $150 $77 $109 reversed $151 $-1 #
edge $-1 $152 0 $153 3.1415926535897931 $77 $154 forward 7 unknown #
coedge $-1 $155 $78 $156 $157 reversed $29 $-1 #
coedge $-1 $158 $159 $78 $112 reversed $160 $-1 #
edge $-1 $120 0 $161 10.65 $78 $162 forward 7 unknown #
coedge $-1 $79 $155 $163 $164 forward $29 $-1 #
coedge $-1 $165 $166 $79 $115 forward $167 $-1 #
edge $-1 $119 0 $168 1.2 $79 $169 forward 7 unknown #
coedge $-1 $170 $80 $166 $171 reversed $118 $-1 #
coedge $-1 $80 $170 $158 $172 reversed $118 $-1 #
loop $-1 $-1 $170 $173 #
vertex $-1 $115 $174 #
vertex $-1 $112 $175 #
straight-curve $-1 22 0.099999999999999992 21.600000000000001 0 0 -1 I I #
coedge $-1 $176 $82 $85 $128 forward $124 $-1 #
coedge $-1 $82 $176 $84 $127 reversed $124 $-1 #
loop $-1 $-1 $122 $98 #
ellipse-curve $-1 22 5.75 20 -1 0 0 0 -0.25000000000000089 0 1 I I #
coedge $-1 $85 $84 $101 $141 forward $86 $-1 #
edge $-1 $87 0 $177 0.10000000000000142 $123 $178 forward 7 unknown #
edge $-1 $88 0 $179 0.10000000000000142 $122 $180 forward 7 unknown #
point $-1 22 5.9999999999999991 20 #
point $-1 22 5.4999999999999991 20 #
coedge $-1 $91 $90 $102 $142 forward $66 $-1 #
vertex $-1 $142 $181 #
straight-curve $-1 22 4 20 -1 0 0 I I #
vertex $-1 $142 $182 #
straight-curve $-1 22 3.5 20 -1 0 0 I I #
face $-1 $183 $184 $3 $-1 $185 reversed single #
cone-surface $-1 22 5.75 20 -1 0 0 0 -0.25 0 1 I I 0 1 0.25 forward I I I I #
loop $-1 $186 $187 $13 #
coedge $-1 $188 $189 $190 $191 reversed $100 $-1 #
coedge $-1 $101 $101 $176 $192 reversed $68 $-1 #
edge $-1 $177 0 $179 3.1415926535897931 $101 $193 forward 7 unknown #
edge $-1 $134 0 $132 3.1415926535897931 $102 $194 forward 7 unknown #
ellipse-curve $-1 21.899999999999999 3.75 20 -1 0 0 0 0.25 0 1 I I #
coedge $-1 $106 $106 $195 $196 forward $76 $-1 #
coedge $-1 $197 $198 $106 $146 reversed $199 $-1 #
edge $-1 $200 0 $201 3.1415926535897931 $106 $202 forward 7 unknown #
coedge $-1 $203 $204 $107 $148 reversed $205 $-1 #
edge $-1 $153 0 $152 3.1415926535897931 $107 $206 forward 7 unknown #
coedge $-1 $207 $108 $204 $208 forward $151 $-1 #
coedge $-1 $108 $207 $203 $209 reversed $151 $-1 #
loop $-1 $-1 $149 $210 #
vertex $-1 $148 $211 #
vertex $-1 $148 $212 #
ellipse-curve $-1 22 7.75 20 -1 0 0 0 0.24999999999999911 0 1 I I #
coedge $-1 $113 $110 $213 $214 reversed $29 $-1 #
coedge $-1 $215 $216 $110 $157 forward $217 $-1 #
edge $-1 $218 0 $161 3.5 $110 $219 forward 7 unknown #
coedge $-1 $220 $111 $117 $172 forward $160 $-1 #
coedge $-1 $111 $220 $221 $222 reversed $160 $-1 #
loop $-1 $-1 $158 $223 #
vertex $-1 $157 $224 #
straight-curve $-1 22 0.099999999999999645 18.5 0 1 0 I I #
coedge $-1 $225 $226 $113 $164 reversed $184 $-1 #
edge $-1 $227 0 $168 0.39999999999999858 $113 $228 forward 7 unknown #
coedge $-1 $229 $114 $226 $230 forward $167 $-1 #
coedge $-1 $114 $229 $116 $171 forward $167 $-1 #
loop $-1 $-1 $165 $231 #
vertex $-1 $115 $232 #
straight-curve $-1 22 0.099999999999999992 21.599999999999998 0 1 0 I I #
coedge $-1 $117 $116 $233 $234 forward $118 $-1 #
edge $-1 $235 0 $119 0.10000000000000142 $116 $236 forward 7 unknown #
edge $-1 $120 0 $237 0.10000000000000142 $158 $238 forward 7 unknown #
face $-1 $231 $118 $3 $-1 $239 forward single #
point $-1 22 0.099999999999999992 21.600000000000001 #
point $-1 22 0.099999999999999645 18.5 #
coedge $-1 $123 $122 $140 $192 forward $124 $-1 #
vertex $-1 $192 $240 #
straight-curve $-1 22 6 20 -1 0 0 I I #
vertex $-1 $192 $241 #
straight-curve $-1 22 5.5 20 -1 0 0 I I #
point $-1 21.899999999999999 4 20 #
point $-1 21.899999999999999 3.5 20 #
face $-1 $242 $243 $3 $-1 $244 reversed single #
loop $-1 $-1 $225 $136 #
plane-surface $-1 22 1.2999999999999998 21.599999999999998 0 1 0 0 0 1 forward_v I I I I #
loop $-1 $-1 $245 $13 #
coedge $-1 $246 $246 $207 $247 reversed $138 $-1 #
coedge $-1 $248 $139 $249 $250 forward $100 $-1 #
coedge $-1 $139 $233 $229 $251 forward $100 $-1 #
coedge $-1 $226 $225 $139 $191 forward $184 $-1 #
edge $-1 $252 0 $253 0.39999999999999858 $139 $254 forward 7 unknown #
edge $-1 $179 0 $177 3.1415926535897931 $140 $255 forward 7 unknown #
ellipse-curve $-1 21.899999999999999 5.7499999999999982 20 -1 0 0 0 0.25000000000000089 0 1 I I #
ellipse-curve $-1 21.899999999999999 3.75 20 -1 0 0 0 -0.25 0 1 I I #
coedge $-1 $256 $257 $144 $196 reversed $258 $-1 #
edge $-1 $201 0 $200 3.1415926535897931 $144 $259 forward 7 unknown #
coedge $-1 $260 $145 $257 $261 forward $199 $-1 #
coedge $-1 $145 $260 $256 $262 reversed $199 $-1 #
loop $-1 $-1 $197 $263 #
vertex $-1 $196 $264 #
vertex $-1 $196 $265 #
ellipse-curve $-1 22 0.59999999999999998 21 -1 0 0 0 0.049999999999999933 0 1 I I #
coedge $-1 $266 $147 $150 $209 forward $205 $-1 #
coedge $-1 $147 $266 $149 $208 reversed $205 $-1 #
loop $-1 $-1 $203 $267 #
ellipse-curve $-1 22 7.75 20 -1 0 0 0 -0.25000000000000089 0 1 I I #
coedge $-1 $150 $149 $187 $247 forward $151 $-1 #
edge $-1 $152 0 $268 0.10000000000000142 $204 $269 forward 7 unknown #
edge $-1 $153 0 $270 0.10000000000000142 $203 $271 forward 7 unknown #
face $-1 $267 $151 $3 $-1 $272 reversed single #
point $-1 22 7.9999999999999991 20 #
point $-1 22 7.4999999999999991 20 #
coedge $-1 $273 $274 $155 $214 forward $243 $-1 #
edge $-1 $227 0 $218 9.4499999999999993 $155 $275 forward 7 unknown #
coedge $-1 $276 $156 $277 $278 forward $217 $-1 #
coedge $-1 $156 $276 $279 $280 reversed $217 $-1 #
loop $-1 $-1 $156 $281 #
vertex $-1 $214 $282 #
straight-curve $-1 22 10.75 22 0 0 -1 I I #
coedge $-1 $159 $158 $283 $284 forward $160 $-1 #
coedge $-1 $285 $277 $159 $222 forward $286 $-1 #
edge $-1 $161 0 $287 0.14142135623731156 $159 $288 forward 7 unknown #
face $-1 $173 $160 $3 $-1 $289 forward single #
point $-1 22 10.75 18.5 #
coedge $-1 $190 $163 $274 $290 reversed $184 $-1 #
coedge $-1 $163 $190 $165 $230 reversed $184 $-1 #
vertex $-1 $164 $291 #
straight-curve $-1 22 1.2999999999999998 22 0 0 -1 I I #
coedge $-1 $166 $165 $189 $251 reversed $167 $-1 #
edge $-1 $168 0 $253 0.10000000000000142 $165 $292 forward 7 unknown #
face $-1 $293 $167 $3 $-1 $294 reversed single #
point $-1 22 1.3 21.600000000000001 #
coedge $-1 $189 $283 $170 $234 reversed $100 $-1 #
edge $-1 $235 0 $237 3.1000000000000014 $170 $295 forward 7 unknown #
vertex $-1 $171 $296 #
straight-curve $-1 21.899999999999999 0.099999999999999992 21.599999999999998 1 0 0 I I #
vertex $-1 $284 $297 #
straight-curve $-1 22 0.099999999999999645 18.5 -1 0 0 I I #
plane-surface $-1 21.949999999999999 0.099999999999999992 20.25 0 -1 0 0 0 -1 forward_v I I I I #
point $-1 21.899999999999999 5.9999999999999991 20 #
point $-1 21.899999999999999 5.4999999999999991 20 #
face $-1 $298 $299 $3 $-1 $300 reversed single #
loop $-1 $-1 $213 $183 #
plane-surface $-1 21.949999999999999 5.3999999999999995 22 0 0 -1 0 1 0 forward_v I I I I #
coedge $-1 $301 $301 $260 $302 reversed $186 $-1 #
coedge $-1 $187 $187 $266 $303 reversed $138 $-1 #
edge $-1 $268 0 $270 3.1415926535897931 $187 $304 forward 7 unknown #
coedge $-1 $283 $188 $305 $306 forward $100 $-1 #
coedge $-1 $274 $273 $188 $250 reversed $243 $-1 #
edge $-1 $252 0 $307 9.3500000000000014 $249 $308 forward 7 unknown #
edge $-1 $235 0 $253 1.2 $189 $309 forward 7 unknown #
vertex $-1 $290 $310 #
vertex $-1 $251 $311 #
straight-curve $-1 21.899999999999999 1.2999999999999998 22 0 0 -1 I I #
ellipse-curve $-1 21.899999999999999 5.7499999999999982 20 -1 0 0 0 -0.24999999999999911 0 1 I I #
coedge $-1 $312 $195 $198 $262 forward $258 $-1 #
coedge $-1 $195 $312 $197 $261 reversed $258 $-1 #
loop $-1 $-1 $256 $313 #
ellipse-curve $-1 22 0.59999999999999998 21 -1 0 0 0 -0.050000000000000044 0 1 I I #
coedge $-1 $198 $197 $245 $302 forward $199 $-1 #
edge $-1 $200 0 $314 0.10000000000000142 $257 $315 forward 7 unknown #
edge $-1 $201 0 $316 0.10000000000000142 $256 $317 forward 7 unknown #
face $-1 $313 $199 $3 $-1 $318 reversed single #
point $-1 22 0.64999999999999991 21 #
point $-1 22 0.54999999999999993 21 #
coedge $-1 $204 $203 $246 $303 forward $205 $-1 #
face $-1 $263 $205 $3 $-1 $319 reversed single #
vertex $-1 $303 $320 #
straight-curve $-1 22 8 20 -1 0 0 I I #
vertex $-1 $303 $321 #
straight-curve $-1 22 7.5 20 -1 0 0 I I #
cone-surface $-1 22 7.75 20 -1 0 0 0 -0.25 0 1 I I 0 1 0.25 forward I I I I #
coedge $-1 $249 $213 $322 $323 forward $243 $-1 #
coedge $-1 $213 $249 $225 $290 forward $243 $-1 #
straight-curve $-1 22 1.2999999999999998 22 0 1 0 I I #
coedge $-1 $216 $215 $324 $325 reversed $217 $-1 #
coedge $-1 $221 $326 $215 $278 reversed $286 $-1 #
edge $-1 $161 -3.5527136788005009e-015 $327 4.4999999999999964 $215 $328 forward 7 unknown #
coedge $-1 $329 $322 $216 $280 forward $299 $-1 #
edge $-1 $218 0 $330 4.5 $216 $331 forward 7 unknown #
face $-1 $210 $217 $3 $-1 $332 forward single #
point $-1 21.999999999999996 10.75 22 #
coedge $-1 $233 $248 $220 $284 reversed $100 $-1 #
edge $-1 $237 0 $287 10.549999999999999 $220 $333 forward 7 unknown #
coedge $-1 $326 $221 $334 $335 forward $286 $-1 #
loop $-1 $-1 $221 $336 #
vertex $-1 $222 $337 #
straight-curve $-1 22 10.75 18.5 -0.70710678118654746 -0.70710678118654746 0 I I #
plane-surface $-1 21.949999999999999 5.3999999999999995 18.5 0 0 -1 0 1 0 forward_v I I I I #
edge $-1 $252 0 $227 0.10000000000000142 $274 $338 forward 7 unknown #
point $-1 22 1.2999999999999998 22 #
straight-curve $-1 22 1.2999999999999998 21.599999999999998 -1 0 0 I I #
face $-1 $281 $339 $3 $-1 $340 reversed single #
plane-surface $-1 22 0.099999999999999992 21.599999999999998 0 0 -1 0 1 0 forward_v I I I I #
straight-curve $-1 21.899999999999999 0.099999999999999992 21.600000000000001 0 0 -1 I I #
point $-1 21.899999999999999 0.099999999999999992 21.600000000000001 #
point $-1 21.899999999999999 0.099999999999999645 18.5 #
face $-1 $336 $341 $3 $-1 $342 reversed single #
loop $-1 $-1 $329 $242 #
plane-surface $-1 19.724999999999998 10.699999999999999 22 0 0 -1 -1 0 0 forward_v I I I I #
coedge $-1 $245 $245 $312 $343 reversed $186 $-1 #
edge $-1 $314 0 $316 3.141592653589651 $245 $344 forward 7 unknown #
edge $-1 $270 0 $268 3.1415926535897931 $246 $345 forward 7 unknown #
ellipse-curve $-1 21.899999999999999 7.7499999999999982 20 -1 0 0 0 0.25000000000000089 0 1 I I #
coedge $-1 $346 $334 $248 $306 reversed $339 $-1 #
edge $-1 $307 0 $287 3.5 $248 $347 forward 7 unknown #
vertex $-1 $250 $348 #
straight-curve $-1 21.899999999999999 1.2999999999999998 22 0 1 0 I I #
straight-curve $-1 21.899999999999999 0.099999999999999992 21.599999999999998 0 1 0 I I #
point $-1 21.899999999999999 1.2999999999999998 22 #
point $-1 21.899999999999999 1.3 21.600000000000001 #
coedge $-1 $257 $256 $301 $343 forward $258 $-1 #
face $-1 $-1 $258 $3 $-1 $349 reversed single #
vertex $-1 $343 $350 #
straight-curve $-1 22 0.65000000000000002 21 -1 0 0 I I #
vertex $-1 $343 $351 #
straight-curve $-1 22 0.54999999999999993 21 -1 0 0 I I #
cone-surface $-1 22 0.59999999999999998 21 -1 0 0 0 -0.049999999999999996 0 1 I I 0 1 0.049999999999999996 forward I I I I #
cone-surface $-1 22 7.75 20 -1 0 0 0 -0.25 0 1 I I 0 1 0.25 forward I I I I #
point $-1 21.899999999999999 7.9999999999999991 20 #
point $-1 21.899999999999999 7.4999999999999991 20 #
coedge $-1 $279 $352 $273 $323 reversed $299 $-1 #
edge $-1 $218 0 $307 0.14142135623730773 $273 $353 forward 7 unknown #
coedge $-1 $354 $355 $276 $325 forward $341 $-1 #
edge $-1 $330 0 $327 3.5 $276 $356 forward 7 unknown #
coedge $-1 $277 $285 $354 $357 reversed $286 $-1 #
vertex $-1 $325 $358 #
straight-curve $-1 21.999999999999996 10.75 18.5 -1 0 0 I I #
coedge $-1 $352 $279 $355 $359 forward $299 $-1 #
vertex $-1 $280 $360 #
straight-curve $-1 21.999999999999996 10.75 22 -1 0 0 I I #
plane-surface $-1 22 10.75 22 0 1 0 -1 0 0 forward_v I I I I #
straight-curve $-1 21.899999999999999 0.099999999999999645 18.5 0 1 0 I I #
coedge $-1 $305 $361 $285 $335 reversed $339 $-1 #
edge $-1 $287 0 $362 4.4000000000000021 $285 $363 forward 7 unknown #
face $-1 $223 $286 $3 $-1 $364 forward single #
point $-1 21.899999999999999 10.649999999999999 18.5 #
straight-curve $-1 21.899999999999999 1.2999999999999998 22 1 0 0 I I #
loop $-1 $-1 $361 $293 #
plane-surface $-1 22 10.649999999999999 22 0 1 0 -1 0 0 forward_v I I I I #
loop $-1 $-1 $354 $298 #
plane-surface $-1 17.5 10.699999999999999 20.25 1 0 0 0 0 -1 forward_v I I I I #
edge $-1 $316 0 $314 3.141592653589651 $301 $365 forward 7 unknown #
ellipse-curve $-1 21.899999999999999 0.59999999999999987 21.000000000000004 -1 0 0 0 0.050000000000000044 -3.5527136788005009e-015 1 I I #
ellipse-curve $-1 21.899999999999999 7.7499999999999982 20 -1 0 0 0 -0.24999999999999911 0 1 I I #
coedge $-1 $361 $305 $352 $366 forward $339 $-1 #
straight-curve $-1 21.899999999999999 10.649999999999999 22 0 0 -1 I I #
point $-1 21.899999999999999 10.65 22 #
cone-surface $-1 22 0.59999999999999998 21 -1 0 0 0 -0.049999999999999996 0 1 I I 0 1 0.049999999999999996 forward I I I I #
point $-1 21.899999999999999 0.64999999999999991 21 #
point $-1 21.899999999999999 0.54999999999999993 21 #
coedge $-1 $322 $329 $346 $366 reversed $299 $-1 #
straight-curve $-1 21.999999999999996 10.75 22 -0.70710678118654124 -0.70710678118655379 0 I I #
coedge $-1 $367 $324 $326 $357 forward $341 $-1 #
coedge $-1 $324 $367 $329 $359 reversed $341 $-1 #
straight-curve $-1 17.5 10.75 22 0 0 -1 I I #
edge $-1 $327 0 $362 0.099999999999999645 $354 $368 forward 7 unknown #
point $-1 17.5 10.75 18.5 #
edge $-1 $330 0 $369 0.099999999999999645 $329 $370 forward 7 unknown #
point $-1 17.499999999999996 10.75 22 #
coedge $-1 $334 $346 $367 $371 forward $339 $-1 #
vertex $-1 $371 $372 #
straight-curve $-1 21.899999999999999 10.649999999999999 18.5 -1 0 0 I I #
plane-surface $-1 19.724999999999998 10.699999999999999 18.5 0 0 -1 -1 0 0 forward_v I I I I #
ellipse-curve $-1 21.899999999999999 0.59999999999999987 20.999999999999996 -1 0 0 0 -0.049999999999999933 3.5527136788005009e-015 1 I I #
edge $-1 $307 0 $369 4.4000000000000021 $352 $373 forward 7 unknown #
coedge $-1 $355 $354 $361 $371 reversed $341 $-1 #
straight-curve $-1 17.5 10.75 18.5 0 -1 0 I I #
vertex $-1 $366 $374 #
straight-curve $-1 17.5 10.75 22 0 -1 0 I I #
edge $-1 $369 0 $362 3.5 $367 $375 forward 7 unknown #
point $-1 17.499999999999996 10.65 18.5 #
straight-curve $-1 21.899999999999999 10.649999999999999 22 -1 0 0 I I #
point $-1 17.499999999999996 10.65 22 #
straight-curve $-1 17.5 10.649999999999999 22 0 0 -1 I I #
End-of-ACIS-data 