600 0 1 0           
86 GICL ACIS Healer - Source: /gicl/data5/repository/PTC/V18/process18/sm67-980.sat - 6 0 18 ACIS 6.0.3 Solaris 24 Sat Apr 13 21:17:34 2002 
1 9.999999999999999547e-07 1.000000000000000036e-10 
body $-1 $1 $-1 $-1 #
lump $-1 $-1 $2 $0 #
shell $-1 $-1 $-1 $3 $-1 $1 #
face $-1 $4 $5 $2 $-1 $6 forward single #
face $-1 $7 $8 $2 $-1 $9 reversed single #
loop $-1 $10 $11 $3 #
plane-surface $-1 558.7999999999999545 2.539999999999999591 558.7999999999999545 1 0 0 0 25.39999999999999858 0 forward_v I I I I #
face $-1 $12 $13 $2 $-1 $14 reversed single #
loop $-1 $-1 $15 $4 #
cone-surface $-1 558.7999999999999545 15.23999999999999844 482.5999999999999659 -1 0 0 0 -1.269999999999999796 0 1 I I 0 1 1.269999999999999796 forward I I I I #
loop $-1 $16 $17 $3 #
coedge $-1 $18 $18 $19 $20 forward $5 $-1 #
face $-1 $21 $22 $2 $-1 $23 reversed single #
loop $-1 $-1 $24 $7 #
cone-surface $-1 558.7999999999999545 15.23999999999999844 482.5999999999999659 -1 0 0 0 -1.269999999999999796 0 1 I I 0 1 1.269999999999999796 forward I I I I #
coedge $-1 $25 $19 $26 $27 forward $8 $-1 #
loop $-1 $28 $29 $3 #
coedge $-1 $30 $30 $31 $32 forward $10 $-1 #
coedge $-1 $11 $11 $33 $34 forward $5 $-1 #
coedge $-1 $15 $35 $11 $20 reversed $8 $-1 #
edge $-1 $36 0 $37 3.141592653589793116 $11 $38 forward 7 unknown #
face $-1 $39 $40 $2 $-1 $41 reversed single #
loop $-1 $42 $43 $12 #
plane-surface $-1 556.2599999999998772 2.539999999999999591 558.7999999999999545 1 0 0 0 25.39999999999999858 0 forward_v I I I I #
coedge $-1 $44 $33 $35 $45 forward $13 $-1 #
coedge $-1 $35 $15 $43 $46 forward $8 $-1 #
coedge $-1 $33 $44 $15 $27 reversed $13 $-1 #
edge $-1 $36 0 $47 0.1000000000000030448 $26 $48 forward 7 unknown #
loop $-1 $49 $50 $3 #
coedge $-1 $51 $51 $52 $53 forward $16 $-1 #
coedge $-1 $17 $17 $54 $55 forward $10 $-1 #
coedge $-1 $56 $57 $17 $32 reversed $40 $-1 #
edge $-1 $58 0 $59 3.141592653589793116 $17 $60 forward 7 unknown #
coedge $-1 $24 $26 $18 $34 reversed $13 $-1 #
edge $-1 $37 0 $36 3.141592653589793116 $18 $61 forward 7 unknown #
coedge $-1 $19 $25 $24 $45 reversed $8 $-1 #
vertex $-1 $34 $62 #
vertex $-1 $34 $63 #
ellipse-curve $-1 558.7999999999999545 15.23999999999999844 482.5999999999999659 -1 0 0 0 1.269999999999998241 0 1 I I #
face $-1 $64 $65 $2 $-1 $66 reversed single #
loop $-1 $-1 $56 $21 #
cone-surface $-1 558.7999999999999545 95.25 508 -1 0 0 0 -6.349999999999999645 0 1 I I 0 1 6.349999999999999645 forward I I I I #
loop $-1 $67 $68 $12 #
coedge $-1 $69 $69 $25 $46 reversed $22 $-1 #
coedge $-1 $26 $24 $69 $70 forward $13 $-1 #
edge $-1 $37 0 $71 0.1000000000000030448 $24 $72 forward 7 unknown #
edge $-1 $47 1.8462921480380397e-14 $71 3.1415926535896328 $43 $73 forward 7 unknown #
vertex $-1 $70 $74 #
straight-curve $-1 558.7999999999999545 16.50999999999999801 482.5999999999999659 -25.39999999999999858 0 0 I I #
loop $-1 $75 $76 $3 #
coedge $-1 $77 $78 $79 $80 forward $28 $-1 #
coedge $-1 $29 $29 $81 $82 forward $16 $-1 #
coedge $-1 $83 $84 $29 $53 reversed $85 $-1 #
edge $-1 $86 0 $87 3.141592653589793116 $29 $88 forward 7 unknown #
coedge $-1 $89 $90 $30 $55 reversed $65 $-1 #
edge $-1 $59 0 $58 3.141592653589793116 $30 $91 forward 7 unknown #
coedge $-1 $92 $31 $90 $93 forward $40 $-1 #
coedge $-1 $31 $92 $89 $94 reversed $40 $-1 #
vertex $-1 $55 $95 #
vertex $-1 $55 $96 #
ellipse-curve $-1 558.7999999999999545 95.25 508 -1 0 0 0 6.349999999999999645 0 1 I I #
ellipse-curve $-1 558.7999999999999545 15.23999999999999844 482.5999999999999659 -1 0 0 0 -1.270000000000001128 0 1 I I #
point $-1 558.7999999999999545 16.50999999999999801 482.5999999999999659 #
point $-1 558.7999999999999545 13.96999999999999709 482.5999999999999659 #
face $-1 $97 $85 $2 $-1 $98 reversed single #
loop $-1 $-1 $89 $39 #
cone-surface $-1 558.7999999999999545 95.25 508 -1 0 0 0 -6.349999999999999645 0 1 I I 0 1 6.349999999999999645 forward I I I I #
loop $-1 $99 $100 $12 #
coedge $-1 $101 $101 $92 $102 reversed $42 $-1 #
coedge $-1 $43 $43 $44 $70 reversed $22 $-1 #
edge $-1 $71 -2.629567604781474138e-14 $47 3.141592653589677209 $69 $103 forward 7 unknown #
vertex $-1 $70 $104 #
straight-curve $-1 558.7999999999999545 13.96999999999999709 482.5999999999999659 -25.39999999999999858 0 0 I I #
ellipse-curve $-1 556.2599999999998772 15.23999999999999488 482.6000000000000796 -1 0 0 0 1.270000000000001128 -9.023892744153271856e-14 1 I I #
point $-1 556.2599999999998772 16.50999999999999801 482.5999999999999659 #
loop $-1 $-1 $105 $3 #
coedge $-1 $106 $106 $107 $108 forward $49 $-1 #
coedge $-1 $109 $50 $110 $111 forward $28 $-1 #
coedge $-1 $50 $112 $113 $114 reversed $28 $-1 #
coedge $-1 $115 $116 $50 $80 reversed $117 $-1 #
edge $-1 $118 0 $119 3.100000000000000533 $50 $120 forward 7 unknown #
coedge $-1 $121 $122 $51 $82 reversed $123 $-1 #
edge $-1 $87 0 $86 3.141592653589793116 $51 $124 forward 7 unknown #
coedge $-1 $125 $52 $122 $126 forward $85 $-1 #
coedge $-1 $52 $125 $121 $127 reversed $85 $-1 #
loop $-1 $-1 $83 $64 #
vertex $-1 $82 $128 #
vertex $-1 $82 $129 #
ellipse-curve $-1 558.7999999999999545 146.0499999999999829 508 -1 0 0 0 6.34999999999997744 0 1 I I #
coedge $-1 $130 $54 $57 $94 forward $65 $-1 #
coedge $-1 $54 $130 $56 $93 reversed $65 $-1 #
ellipse-curve $-1 558.7999999999999545 95.25 508 -1 0 0 0 -6.349999999999999645 0 1 I I #
coedge $-1 $57 $56 $68 $102 forward $40 $-1 #
edge $-1 $58 0 $131 0.1000000000000030448 $90 $132 forward 7 unknown #
edge $-1 $59 0 $133 0.1000000000000030448 $89 $134 forward 7 unknown #
point $-1 558.7999999999999545 101.5999999999999943 508 #
point $-1 558.7999999999999545 88.89999999999999147 508 #
face $-1 $135 $123 $2 $-1 $136 reversed single #
cone-surface $-1 558.7999999999999545 146.0499999999999829 508 -1 0 0 0 -6.349999999999999645 0 1 I I 0 1 6.349999999999999645 forward I I I I #
loop $-1 $137 $138 $12 #
coedge $-1 $139 $139 $125 $140 reversed $67 $-1 #
coedge $-1 $68 $68 $130 $141 reversed $42 $-1 #
edge $-1 $131 0 $133 3.141592653589793116 $68 $142 forward 7 unknown #
ellipse-curve $-1 556.2599999999998772 15.23999999999999488 482.5999999999999091 -1 0 0 0 -1.269999999999998241 9.023892744153271856e-14 1 I I #
point $-1 556.2599999999998772 13.96999999999999709 482.5999999999999659 #
coedge $-1 $143 $143 $144 $145 forward $75 $-1 #
coedge $-1 $76 $76 $146 $147 forward $49 $-1 #
coedge $-1 $148 $149 $76 $108 reversed $150 $-1 #
edge $-1 $151 0 $152 3.141592653589793116 $76 $153 forward 7 unknown #
coedge $-1 $154 $77 $155 $156 reversed $28 $-1 #
coedge $-1 $157 $158 $77 $111 reversed $159 $-1 #
edge $-1 $119 0 $160 10.65000000000000213 $77 $161 forward 7 unknown #
coedge $-1 $78 $154 $162 $163 forward $28 $-1 #
coedge $-1 $164 $165 $78 $114 forward $166 $-1 #
edge $-1 $118 0 $167 1.199999999999999956 $78 $168 forward 7 unknown #
coedge $-1 $169 $79 $165 $170 reversed $117 $-1 #
coedge $-1 $79 $169 $157 $171 reversed $117 $-1 #
loop $-1 $-1 $169 $172 #
vertex $-1 $114 $173 #
vertex $-1 $111 $174 #
straight-curve $-1 558.7999999999999545 2.539999999999999591 548.6399999999999864 0 0 -25.39999999999999858 I I #
coedge $-1 $175 $81 $84 $127 forward $123 $-1 #
coedge $-1 $81 $175 $83 $126 reversed $123 $-1 #
loop $-1 $-1 $121 $97 #
ellipse-curve $-1 558.7999999999999545 146.0499999999999829 508 -1 0 0 0 -6.350000000000021849 0 1 I I #
coedge $-1 $84 $83 $100 $140 forward $85 $-1 #
edge $-1 $86 0 $176 0.1000000000000030448 $122 $177 forward 7 unknown #
edge $-1 $87 0 $178 0.1000000000000030448 $121 $179 forward 7 unknown #
point $-1 558.7999999999999545 152.3999999999999773 508 #
point $-1 558.7999999999999545 139.6999999999999602 508 #
coedge $-1 $90 $89 $101 $141 forward $65 $-1 #
vertex $-1 $141 $180 #
straight-curve $-1 558.7999999999999545 101.5999999999999943 508 -25.39999999999999858 0 0 I I #
vertex $-1 $141 $181 #
straight-curve $-1 558.7999999999999545 88.89999999999999147 508 -25.39999999999999858 0 0 I I #
face $-1 $182 $183 $2 $-1 $184 reversed single #
cone-surface $-1 558.7999999999999545 146.0499999999999829 508 -1 0 0 0 -6.349999999999999645 0 1 I I 0 1 6.349999999999999645 forward I I I I #
loop $-1 $185 $186 $12 #
coedge $-1 $187 $188 $189 $190 reversed $99 $-1 #
coedge $-1 $100 $100 $175 $191 reversed $67 $-1 #
edge $-1 $176 0 $178 3.141592653589793116 $100 $192 forward 7 unknown #
edge $-1 $133 0 $131 3.141592653589793116 $101 $193 forward 7 unknown #
ellipse-curve $-1 556.2599999999998772 95.25 508 -1 0 0 0 6.349999999999999645 0 1 I I #
coedge $-1 $105 $105 $194 $195 forward $75 $-1 #
coedge $-1 $196 $197 $105 $145 reversed $198 $-1 #
edge $-1 $199 0 $200 3.141592653589793116 $105 $201 forward 7 unknown #
coedge $-1 $202 $203 $106 $147 reversed $204 $-1 #
edge $-1 $152 0 $151 3.141592653589793116 $106 $205 forward 7 unknown #
coedge $-1 $206 $107 $203 $207 forward $150 $-1 #
coedge $-1 $107 $206 $202 $208 reversed $150 $-1 #
loop $-1 $-1 $148 $209 #
vertex $-1 $147 $210 #
vertex $-1 $147 $211 #
ellipse-curve $-1 558.7999999999999545 196.8499999999999943 508 -1 0 0 0 6.34999999999997744 0 1 I I #
coedge $-1 $112 $109 $212 $213 reversed $28 $-1 #
coedge $-1 $214 $215 $109 $156 forward $216 $-1 #
edge $-1 $217 0 $160 3.499999999999999112 $109 $218 forward 7 unknown #
coedge $-1 $219 $110 $116 $171 forward $159 $-1 #
coedge $-1 $110 $219 $220 $221 reversed $159 $-1 #
loop $-1 $-1 $157 $222 #
vertex $-1 $156 $223 #
straight-curve $-1 558.7999999999999545 2.53999999999999071 469.8999999999999773 0 25.39999999999999858 0 I I #
coedge $-1 $224 $225 $112 $163 reversed $183 $-1 #
edge $-1 $226 0 $167 0.3999999999999987454 $112 $227 forward 7 unknown #
coedge $-1 $228 $113 $225 $229 forward $166 $-1 #
coedge $-1 $113 $228 $115 $170 forward $166 $-1 #
loop $-1 $-1 $164 $230 #
vertex $-1 $114 $231 #
straight-curve $-1 558.7999999999999545 2.539999999999999591 548.6399999999998727 0 25.39999999999999858 0 I I #
coedge $-1 $116 $115 $232 $233 forward $117 $-1 #
edge $-1 $234 0 $118 0.1000000000000030448 $115 $235 forward 7 unknown #
edge $-1 $119 0 $236 0.1000000000000030448 $157 $237 forward 7 unknown #
face $-1 $230 $117 $2 $-1 $238 forward single #
point $-1 558.7999999999999545 2.539999999999999591 548.6399999999999864 #
point $-1 558.7999999999999545 2.53999999999999071 469.8999999999999773 #
coedge $-1 $122 $121 $139 $191 forward $123 $-1 #
vertex $-1 $191 $239 #
straight-curve $-1 558.7999999999999545 152.3999999999999773 508 -25.39999999999999858 0 0 I I #
vertex $-1 $191 $240 #
straight-curve $-1 558.7999999999999545 139.6999999999999886 508 -25.39999999999999858 0 0 I I #
point $-1 556.2599999999998772 101.5999999999999943 508 #
point $-1 556.2599999999998772 88.89999999999999147 508 #
face $-1 $241 $242 $2 $-1 $243 reversed single #
loop $-1 $-1 $224 $135 #
plane-surface $-1 558.7999999999999545 33.01999999999999602 548.6399999999998727 0 1 0 0 0 25.39999999999999858 forward_v I I I I #
loop $-1 $-1 $244 $12 #
coedge $-1 $245 $245 $206 $246 reversed $137 $-1 #
coedge $-1 $247 $138 $248 $249 forward $99 $-1 #
coedge $-1 $138 $232 $228 $250 forward $99 $-1 #
coedge $-1 $225 $224 $138 $190 forward $183 $-1 #
edge $-1 $251 0 $252 0.3999999999999987454 $138 $253 forward 7 unknown #
edge $-1 $178 0 $176 3.141592653589793116 $139 $254 forward 7 unknown #
ellipse-curve $-1 556.2599999999998772 146.0499999999999545 508 -1 0 0 0 6.350000000000021849 0 1 I I #
ellipse-curve $-1 556.2599999999998772 95.25 508 -1 0 0 0 -6.349999999999999645 0 1 I I #
coedge $-1 $255 $256 $143 $195 reversed $257 $-1 #
edge $-1 $200 0 $199 3.141592653589793116 $143 $258 forward 7 unknown #
coedge $-1 $259 $144 $256 $260 forward $198 $-1 #
coedge $-1 $144 $259 $255 $261 reversed $198 $-1 #
loop $-1 $-1 $196 $262 #
vertex $-1 $195 $263 #
vertex $-1 $195 $264 #
ellipse-curve $-1 558.7999999999999545 15.23999999999999844 533.3999999999999773 -1 0 0 0 1.269999999999998241 0 1 I I #
coedge $-1 $265 $146 $149 $208 forward $204 $-1 #
coedge $-1 $146 $265 $148 $207 reversed $204 $-1 #
loop $-1 $-1 $202 $266 #
ellipse-curve $-1 558.7999999999999545 196.8499999999999943 508 -1 0 0 0 -6.350000000000021849 0 1 I I #
coedge $-1 $149 $148 $186 $246 forward $150 $-1 #
edge $-1 $151 0 $267 0.1000000000000030448 $203 $268 forward 7 unknown #
edge $-1 $152 0 $269 0.1000000000000030448 $202 $270 forward 7 unknown #
face $-1 $266 $150 $2 $-1 $271 reversed single #
point $-1 558.7999999999999545 203.1999999999999602 508 #
point $-1 558.7999999999999545 190.4999999999999716 508 #
coedge $-1 $272 $273 $154 $213 forward $242 $-1 #
edge $-1 $226 0 $217 9.450000000000001066 $154 $274 forward 7 unknown #
coedge $-1 $275 $155 $276 $277 forward $216 $-1 #
coedge $-1 $155 $275 $278 $279 reversed $216 $-1 #
loop $-1 $-1 $155 $280 #
vertex $-1 $213 $281 #
straight-curve $-1 558.7999999999999545 273.0500000000000114 558.7999999999999545 0 0 -25.39999999999999858 I I #
coedge $-1 $158 $157 $282 $283 forward $159 $-1 #
coedge $-1 $284 $276 $158 $221 forward $285 $-1 #
edge $-1 $160 0 $286 0.1414213562373138611 $158 $287 forward 7 unknown #
face $-1 $172 $159 $2 $-1 $288 forward single #
point $-1 558.7999999999999545 273.0500000000000114 469.8999999999999773 #
coedge $-1 $189 $162 $273 $289 reversed $183 $-1 #
coedge $-1 $162 $189 $164 $229 reversed $183 $-1 #
vertex $-1 $163 $290 #
straight-curve $-1 558.7999999999999545 33.01999999999999602 558.7999999999999545 0 0 -25.39999999999999858 I I #
coedge $-1 $165 $164 $188 $250 reversed $166 $-1 #
edge $-1 $167 0 $252 0.1000000000000030448 $164 $291 forward 7 unknown #
face $-1 $292 $166 $2 $-1 $293 reversed single #
point $-1 558.7999999999999545 33.01999999999999602 548.6399999999999864 #
coedge $-1 $188 $282 $169 $233 reversed $99 $-1 #
edge $-1 $234 0 $236 3.100000000000000533 $169 $294 forward 7 unknown #
vertex $-1 $170 $295 #
straight-curve $-1 556.2599999999998772 2.539999999999999591 548.6399999999998727 25.39999999999999858 0 0 I I #
vertex $-1 $283 $296 #
straight-curve $-1 558.7999999999999545 2.53999999999999071 469.8999999999999773 -25.39999999999999858 0 0 I I #
plane-surface $-1 557.5299999999999727 2.539999999999999591 514.3500000000000227 0 -1 0 0 0 -25.39999999999999858 forward_v I I I I #
point $-1 556.2599999999998772 152.3999999999999773 508 #
point $-1 556.2599999999998772 139.6999999999999602 508 #
face $-1 $297 $298 $2 $-1 $299 reversed single #
loop $-1 $-1 $212 $182 #
plane-surface $-1 557.5299999999999727 137.1599999999999682 558.7999999999999545 0 0 -1 0 25.39999999999999858 0 forward_v I I I I #
coedge $-1 $300 $300 $259 $301 reversed $185 $-1 #
coedge $-1 $186 $186 $265 $302 reversed $137 $-1 #
edge $-1 $267 0 $269 3.141592653589793116 $186 $303 forward 7 unknown #
coedge $-1 $282 $187 $304 $305 forward $99 $-1 #
coedge $-1 $273 $272 $187 $249 reversed $242 $-1 #
edge $-1 $251 0 $306 9.350000000000001421 $248 $307 forward 7 unknown #
edge $-1 $234 0 $252 1.199999999999999956 $188 $308 forward 7 unknown #
vertex $-1 $289 $309 #
vertex $-1 $250 $310 #
straight-curve $-1 556.2599999999998772 33.01999999999999602 558.7999999999999545 0 0 -25.39999999999999858 I I #
ellipse-curve $-1 556.2599999999998772 146.0499999999999545 508 -1 0 0 0 -6.34999999999997744 0 1 I I #
coedge $-1 $311 $194 $197 $261 forward $257 $-1 #
coedge $-1 $194 $311 $196 $260 reversed $257 $-1 #
loop $-1 $-1 $255 $312 #
ellipse-curve $-1 558.7999999999999545 15.23999999999999844 533.3999999999999773 -1 0 0 0 -1.270000000000001128 0 1 I I #
coedge $-1 $197 $196 $244 $301 forward $198 $-1 #
edge $-1 $199 0 $313 0.1000000000000030448 $256 $314 forward 7 unknown #
edge $-1 $200 0 $315 0.1000000000000030448 $255 $316 forward 7 unknown #
face $-1 $312 $198 $2 $-1 $317 reversed single #
point $-1 558.7999999999999545 16.50999999999999801 533.3999999999999773 #
point $-1 558.7999999999999545 13.96999999999999709 533.3999999999999773 #
coedge $-1 $203 $202 $245 $302 forward $204 $-1 #
face $-1 $262 $204 $2 $-1 $318 reversed single #
vertex $-1 $302 $319 #
straight-curve $-1 558.7999999999999545 203.1999999999999886 508 -25.39999999999999858 0 0 I I #
vertex $-1 $302 $320 #
straight-curve $-1 558.7999999999999545 190.5 508 -25.39999999999999858 0 0 I I #
cone-surface $-1 558.7999999999999545 196.8499999999999943 508 -1 0 0 0 -6.349999999999999645 0 1 I I 0 1 6.349999999999999645 forward I I I I #
coedge $-1 $248 $212 $321 $322 forward $242 $-1 #
coedge $-1 $212 $248 $224 $289 forward $242 $-1 #
straight-curve $-1 558.7999999999999545 33.01999999999999602 558.7999999999999545 0 25.39999999999999858 0 I I #
coedge $-1 $215 $214 $323 $324 reversed $216 $-1 #
coedge $-1 $220 $325 $214 $277 reversed $285 $-1 #
edge $-1 $160 -4.475859752819528668e-15 $326 4.499999999999993783 $214 $327 forward 7 unknown #
coedge $-1 $328 $321 $215 $279 forward $298 $-1 #
edge $-1 $217 0 $329 4.499999999999998224 $215 $330 forward 7 unknown #
face $-1 $209 $216 $2 $-1 $331 forward single #
point $-1 558.7999999999998408 273.0500000000000114 558.7999999999999545 #
coedge $-1 $232 $247 $219 $283 reversed $99 $-1 #
edge $-1 $236 0 $286 10.54999999999999893 $219 $332 forward 7 unknown #
coedge $-1 $325 $220 $333 $334 forward $285 $-1 #
loop $-1 $-1 $220 $335 #
vertex $-1 $221 $336 #
straight-curve $-1 558.7999999999999545 273.0500000000000114 469.8999999999999773 -17.96051224213830366 -17.96051224213830366 0 I I #
plane-surface $-1 557.5299999999999727 137.1599999999999682 469.8999999999999773 0 0 -1 0 25.39999999999999858 0 forward_v I I I I #
edge $-1 $251 0 $226 0.1000000000000030448 $273 $337 forward 7 unknown #
point $-1 558.7999999999999545 33.01999999999999602 558.7999999999999545 #
straight-curve $-1 558.7999999999999545 33.01999999999999602 548.6399999999998727 -25.39999999999999858 0 0 I I #
face $-1 $280 $338 $2 $-1 $339 reversed single #
plane-surface $-1 558.7999999999999545 2.539999999999999591 548.6399999999998727 0 0 -1 0 25.39999999999999858 0 forward_v I I I I #
straight-curve $-1 556.2599999999998772 2.539999999999999591 548.6399999999999864 0 0 -25.39999999999999858 I I #
point $-1 556.2599999999998772 2.539999999999999591 548.6399999999999864 #
point $-1 556.2599999999998772 2.53999999999999071 469.8999999999999773 #
face $-1 $335 $340 $2 $-1 $341 reversed single #
loop $-1 $-1 $328 $241 #
plane-surface $-1 501.0149999999999295 271.7799999999999727 558.7999999999999545 0 0 -1 -25.39999999999999858 0 0 forward_v I I I I #
coedge $-1 $244 $244 $311 $342 reversed $185 $-1 #
edge $-1 $313 1.8462921480380397e-14 $315 3.1415926535896328 $244 $343 forward 7 unknown #
edge $-1 $269 0 $267 3.141592653589793116 $245 $344 forward 7 unknown #
ellipse-curve $-1 556.2599999999998772 196.8499999999999375 508 -1 0 0 0 6.350000000000021849 0 1 I I #
coedge $-1 $345 $333 $247 $305 reversed $338 $-1 #
edge $-1 $306 0 $286 3.499999999999999112 $247 $346 forward 7 unknown #
vertex $-1 $249 $347 #
straight-curve $-1 556.2599999999998772 33.01999999999999602 558.7999999999999545 0 25.39999999999999858 0 I I #
straight-curve $-1 556.2599999999998772 2.539999999999999591 548.6399999999998727 0 25.39999999999999858 0 I I #
point $-1 556.2599999999998772 33.01999999999999602 558.7999999999999545 #
point $-1 556.2599999999998772 33.01999999999999602 548.6399999999999864 #
coedge $-1 $256 $255 $300 $342 forward $257 $-1 #
face $-1 $-1 $257 $2 $-1 $348 reversed single #
vertex $-1 $342 $349 #
straight-curve $-1 558.7999999999999545 16.50999999999999801 533.3999999999999773 -25.39999999999999858 0 0 I I #
vertex $-1 $342 $350 #
straight-curve $-1 558.7999999999999545 13.96999999999999709 533.3999999999999773 -25.39999999999999858 0 0 I I #
cone-surface $-1 558.7999999999999545 15.23999999999999844 533.3999999999999773 -1 0 0 0 -1.269999999999999796 0 1 I I 0 1 1.269999999999999796 forward I I I I #
cone-surface $-1 558.7999999999999545 196.8499999999999943 508 -1 0 0 0 -6.349999999999999645 0 1 I I 0 1 6.349999999999999645 forward I I I I #
point $-1 556.2599999999998772 203.1999999999999602 508 #
point $-1 556.2599999999998772 190.4999999999999716 508 #
coedge $-1 $278 $351 $272 $322 reversed $298 $-1 #
edge $-1 $217 0 $306 0.1414213562373090594 $272 $352 forward 7 unknown #
coedge $-1 $353 $354 $275 $324 forward $340 $-1 #
edge $-1 $329 0 $326 3.499999999999999112 $275 $355 forward 7 unknown #
coedge $-1 $276 $284 $353 $356 reversed $285 $-1 #
vertex $-1 $324 $357 #
straight-curve $-1 558.7999999999998408 273.0500000000000114 469.8999999999999773 -25.39999999999999858 0 0 I I #
coedge $-1 $351 $278 $354 $358 forward $298 $-1 #
vertex $-1 $279 $359 #
straight-curve $-1 558.7999999999998408 273.0500000000000114 558.7999999999999545 -25.39999999999999858 0 0 I I #
plane-surface $-1 558.7999999999999545 273.0500000000000114 558.7999999999999545 0 1 0 -25.39999999999999858 0 0 forward_v I I I I #
straight-curve $-1 556.2599999999998772 2.53999999999999071 469.8999999999999773 0 25.39999999999999858 0 I I #
coedge $-1 $304 $360 $284 $334 reversed $338 $-1 #
edge $-1 $286 0 $361 4.399999999999999467 $284 $362 forward 7 unknown #
face $-1 $222 $285 $2 $-1 $363 forward single #
point $-1 556.2599999999998772 270.5099999999999341 469.8999999999999773 #
straight-curve $-1 556.2599999999998772 33.01999999999999602 558.7999999999999545 25.39999999999999858 0 0 I I #
loop $-1 $-1 $360 $292 #
plane-surface $-1 558.7999999999999545 270.5099999999999341 558.7999999999999545 0 1 0 -25.39999999999999858 0 0 forward_v I I I I #
loop $-1 $-1 $353 $297 #
plane-surface $-1 444.5 271.7799999999999727 514.3500000000000227 1 0 0 0 0 -25.39999999999999858 forward_v I I I I #
edge $-1 $315 1.846292148038062419e-14 $313 3.1415926535896328 $300 $364 forward 7 unknown #
ellipse-curve $-1 556.2599999999998772 15.23999999999999488 533.4000000000000909 -1 0 0 0 1.270000000000001128 -9.023892744153271856e-14 1 I I #
ellipse-curve $-1 556.2599999999998772 196.8499999999999375 508 -1 0 0 0 -6.34999999999997744 0 1 I I #
coedge $-1 $360 $304 $351 $365 forward $338 $-1 #
straight-curve $-1 556.2599999999998772 270.5099999999999341 558.7999999999999545 0 0 -25.39999999999999858 I I #
point $-1 556.2599999999998772 270.5099999999999909 558.7999999999999545 #
cone-surface $-1 558.7999999999999545 15.23999999999999844 533.3999999999999773 -1 0 0 0 -1.269999999999999796 0 1 I I 0 1 1.269999999999999796 forward I I I I #
point $-1 556.2599999999998772 16.50999999999999801 533.3999999999999773 #
point $-1 556.2599999999998772 13.96999999999999709 533.3999999999999773 #
coedge $-1 $321 $328 $345 $365 reversed $298 $-1 #
straight-curve $-1 558.7999999999998408 273.0500000000000114 558.7999999999999545 -17.96051224213814734 -17.96051224213846353 0 I I #
coedge $-1 $366 $323 $325 $356 forward $340 $-1 #
coedge $-1 $323 $366 $328 $358 reversed $340 $-1 #
straight-curve $-1 444.5 273.0500000000000114 558.7999999999999545 0 0 -25.39999999999999858 I I #
edge $-1 $326 0 $361 0.1000000000000008105 $353 $367 forward 7 unknown #
point $-1 444.5 273.0500000000000114 469.8999999999999773 #
edge $-1 $329 0 $368 0.1000000000000008105 $328 $369 forward 7 unknown #
point $-1 444.4999999999998863 273.0500000000000114 558.7999999999999545 #
coedge $-1 $333 $345 $366 $370 forward $338 $-1 #
vertex $-1 $370 $371 #
straight-curve $-1 556.2599999999998772 270.5099999999999341 469.8999999999999773 -25.39999999999999858 0 0 I I #
plane-surface $-1 501.0149999999999295 271.7799999999999727 469.8999999999999773 0 0 -1 -25.39999999999999858 0 0 forward_v I I I I #
ellipse-curve $-1 556.2599999999998772 15.23999999999999488 533.3999999999998636 -1 0 0 0 -1.269999999999998241 9.023892744153271856e-14 1 I I #
edge $-1 $306 0 $368 4.399999999999999467 $351 $372 forward 7 unknown #
coedge $-1 $354 $353 $360 $370 reversed $340 $-1 #
straight-curve $-1 444.5 273.0500000000000114 469.8999999999999773 0 -25.39999999999999858 0 I I #
vertex $-1 $365 $373 #
straight-curve $-1 444.5 273.0500000000000114 558.7999999999999545 0 -25.39999999999999858 0 I I #
edge $-1 $368 0 $361 3.499999999999999112 $366 $374 forward 7 unknown #
point $-1 444.4999999999998863 270.5099999999999909 469.8999999999999773 #
straight-curve $-1 556.2599999999998772 270.5099999999999341 558.7999999999999545 -25.39999999999999858 0 0 I I #
point $-1 444.4999999999998863 270.5099999999999909 558.7999999999999545 #
straight-curve $-1 444.5 270.5099999999999341 558.7999999999999545 0 0 -25.39999999999999858 I I #
End-of-ACIS-data 