700 0 2 0           
24 FBMach with ACIS - 7.0.3 13 ACIS 7.0.3 NT 24 Wed May 15 14:37:48 2002 
1 9.9999999999999995e-007 1e-010 
body $2 -1 $-1 $3 $-1 $4 #
bdycol-kcp $-1 -1 1 8 $5 $6 $7 $8 $9 $10 $11 $12 #
model_id-kcp-attrib $-1 -1 $-1 $-1 $0 1 1021487868 1021487868 23396353 1 #
lump $-1 -1 $-1 $-1 $13 $0 #
transform $-1 -1 1 0 0 0 1 0 0 0 1 0 0 0 1 rotate no_reflect no_shear #
body $14 -1 $-1 $15 $-1 $16 #
body $17 -1 $-1 $18 $-1 $19 #
body $20 -1 $-1 $21 $-1 $22 #
body $23 -1 $-1 $24 $-1 $25 #
body $26 -1 $-1 $27 $-1 $28 #
body $29 -1 $-1 $30 $-1 $31 #
body $32 -1 $-1 $33 $-1 $34 #
body $35 -1 $-1 $36 $-1 $37 #
shell $-1 -1 $-1 $-1 $-1 $38 $-1 $3 #
rgb_color-st-attrib $-1 -1 $39 $-1 $5 0.5 1 1 #
lump $-1 -1 $-1 $-1 $40 $5 #
transform $-1 -1 1 0 0 0 1 0 0 0 1 0 0 0 1 no_rotate no_reflect no_shear #
rgb_color-st-attrib $-1 -1 $41 $-1 $6 0.5 1 1 #
lump $-1 -1 $-1 $-1 $42 $6 #
transform $-1 -1 1 0 0 0 1 0 0 0 1 0 0 0 1 no_rotate no_reflect no_shear #
rgb_color-st-attrib $-1 -1 $43 $-1 $7 1 0.5 1 #
lump $-1 -1 $-1 $-1 $44 $7 #
transform $-1 -1 1 0 0 0 1 0 0 0 1 501.64999999999992 137.79499999999999 514.34999999999991 1 no_rotate no_reflect no_shear #
model_id-kcp-attrib $-1 -1 $-1 $-1 $8 1 1021487868 1021487868 23396354 1 #
lump $-1 -1 $-1 $-1 $45 $8 #
transform $-1 -1 1 0 0 0 1 0 0 0 1 501.64999999999992 137.79499999999999 514.34999999999991 1 no_rotate no_reflect no_shear #
rgb_color-st-attrib $-1 -1 $46 $-1 $9 0.5 1 1 #
lump $-1 -1 $-1 $-1 $47 $9 #
transform $-1 -1 1 0 0 0 1 0 0 0 1 0 0 0 1 no_rotate no_reflect no_shear #
rgb_color-st-attrib $-1 -1 $48 $-1 $10 0.5 1 1 #
lump $-1 -1 $-1 $-1 $49 $10 #
transform $-1 -1 1 0 0 0 1 0 0 0 1 0 0 0 1 no_rotate no_reflect no_shear #
rgb_color-st-attrib $-1 -1 $50 $-1 $11 0.5 1 1 #
lump $-1 -1 $-1 $-1 $51 $11 #
transform $-1 -1 1 0 0 0 1 0 0 0 1 0 0 0 1 no_rotate no_reflect no_shear #
rgb_color-st-attrib $-1 -1 $52 $-1 $12 1 0.5 1 #
lump $-1 -1 $-1 $-1 $53 $12 #
transform $-1 -1 1 0 0 0 1 0 0 0 1 501.64999999999992 137.79499999999999 514.34999999999991 1 no_rotate no_reflect no_shear #
face $54 -1 $-1 $55 $56 $13 $-1 $57 forward single #
model_id-kcp-attrib $-1 -1 $-1 $14 $5 1 1021487868 1021487868 19726339 1 #
shell $-1 -1 $-1 $-1 $-1 $58 $-1 $15 #
model_id-kcp-attrib $-1 -1 $-1 $17 $6 1 1021487868 1021487868 22347780 1 #
shell $-1 -1 $-1 $-1 $-1 $59 $-1 $18 #
model_id-kcp-attrib $-1 -1 $-1 $20 $7 1 1021487868 1021487868 22675464 1 #
shell $-1 -1 $-1 $-1 $-1 $60 $-1 $21 #
shell $-1 -1 $-1 $-1 $-1 $61 $-1 $24 #
model_id-kcp-attrib $-1 -1 $-1 $26 $9 1 1021487868 1021487868 24313861 1 #
shell $-1 -1 $-1 $-1 $-1 $62 $-1 $27 #
model_id-kcp-attrib $-1 -1 $-1 $29 $10 1 1021487868 1021487868 26935302 1 #
shell $-1 -1 $-1 $-1 $-1 $63 $-1 $30 #
model_id-kcp-attrib $-1 -1 $-1 $32 $11 1 1021487868 1021487868 28901383 1 #
shell $-1 -1 $-1 $-1 $-1 $64 $-1 $33 #
model_id-kcp-attrib $-1 -1 $-1 $35 $12 1 1021487868 1021487868 29884425 1 #
shell $-1 -1 $-1 $-1 $-1 $65 $-1 $36 #
model_id-kcp-attrib $-1 -1 $-1 $-1 $38 1 1021487868 1021487868 23396353 2 #
face $66 -1 $-1 $67 $68 $13 $-1 $69 reversed single #
loop $-1 -1 $-1 $70 $71 $38 #
plane-surface $-1 -1 $-1 558.79999999999995 2.5399999999999996 558.79999999999995 1 0 0 0 25.399999999999999 0 forward_v I I I I #
face $-1 -1 $-1 $72 $73 $40 $-1 $74 forward single #
face $-1 -1 $-1 $75 $76 $42 $-1 $77 forward single #
face $-1 -1 $-1 $78 $79 $44 $-1 $80 forward single #
face $81 -1 $-1 $82 $83 $45 $-1 $84 forward single #
face $-1 -1 $-1 $85 $86 $47 $-1 $87 forward single #
face $-1 -1 $-1 $88 $89 $49 $-1 $90 forward single #
face $-1 -1 $-1 $91 $92 $51 $-1 $93 forward single #
face $-1 -1 $-1 $94 $95 $53 $-1 $96 forward single #
model_id-kcp-attrib $-1 -1 $-1 $-1 $55 1 1021487868 1021487868 23396353 3 #
face $97 -1 $-1 $98 $99 $13 $-1 $100 reversed single #
loop $-1 -1 $-1 $-1 $101 $55 #
cone-surface $-1 -1 $-1 558.79999999999995 15.239999999999998 482.59999999999997 -1 0 0 0 -1.2699999999999998 0 1 I I 0 1 1.2699999999999998 forward I I I I #
loop $-1 -1 $-1 $102 $103 $38 #
coedge $-1 -1 $-1 $104 $104 $105 $106 forward $56 $-1 #
face $-1 -1 $-1 $107 $108 $40 $-1 $109 reversed single #
loop $-1 -1 $-1 $110 $111 $58 #
cone-surface $-1 -1 $-1 558.79999999999995 15.239999999999998 482.59999999999997 -1 0 0 0 1.2699999999999982 0 1 I I 0 1 1.2699999999999982 forward I I I I #
face $-1 -1 $-1 $112 $113 $42 $-1 $114 reversed single #
loop $-1 -1 $-1 $115 $116 $59 #
cone-surface $-1 -1 $-1 558.79999999999995 95.25 508 -1 0 0 0 6.3499999999999996 0 1 I I 0 1 6.3499999999999996 forward I I I I #
face $-1 -1 $-1 $117 $118 $44 $-1 $119 forward single #
loop $-1 -1 $-1 $-1 $120 $60 #
plane-surface $-1 -1 $-1 54.609999999999957 132.715 44.450000000000045 0 0 1 1 0 0 forward_v I I I I #
model_id-kcp-attrib $-1 -1 $-1 $-1 $61 1 1021487868 1021487868 23396354 3 #
face $121 -1 $-1 $122 $123 $45 $-1 $124 reversed single #
loop $-1 -1 $-1 $-1 $125 $61 #
plane-surface $-1 -1 $-1 0 0 44.449999999999989 0 0 1 1 0 0 forward_v I I I I #
face $-1 -1 $-1 $126 $127 $47 $-1 $128 reversed single #
loop $-1 -1 $-1 $129 $130 $62 #
cone-surface $-1 -1 $-1 558.79999999999995 146.04999999999998 508 -1 0 0 0 6.3499999999999774 0 1 I I 0 1 6.3499999999999774 forward I I I I #
face $-1 -1 $-1 $131 $132 $49 $-1 $133 reversed single #
loop $-1 -1 $-1 $134 $135 $63 #
cone-surface $-1 -1 $-1 558.79999999999995 196.84999999999999 508 -1 0 0 0 6.3499999999999774 0 1 I I 0 1 6.3499999999999774 forward I I I I #
face $-1 -1 $-1 $136 $137 $51 $-1 $138 reversed single #
loop $-1 -1 $-1 $139 $140 $64 #
cone-surface $-1 -1 $-1 558.79999999999995 15.239999999999998 533.39999999999998 -1 0 0 0 1.2699999999999982 0 1 I I 0 1 1.2699999999999982 forward I I I I #
face $-1 -1 $-1 $141 $142 $53 $-1 $143 forward single #
loop $-1 -1 $-1 $-1 $144 $65 #
plane-surface $-1 -1 $-1 54.609999999999957 -104.77499999999999 34.290000000000077 0 1 0 0 0 1 forward_v I I I I #
model_id-kcp-attrib $-1 -1 $-1 $-1 $67 1 1021487868 1021487868 23396353 4 #
face $145 -1 $-1 $146 $147 $13 $-1 $148 reversed single #
loop $-1 -1 $-1 $-1 $149 $67 #
cone-surface $-1 -1 $-1 558.79999999999995 15.239999999999998 482.59999999999997 -1 0 0 0 -1.2699999999999998 0 1 I I 0 1 1.2699999999999998 forward I I I I #
coedge $-1 -1 $-1 $150 $105 $151 $152 forward $68 $-1 #
loop $-1 -1 $-1 $153 $154 $38 #
coedge $-1 -1 $-1 $155 $155 $156 $157 forward $70 $-1 #
coedge $-1 -1 $-1 $71 $71 $158 $159 forward $56 $-1 #
coedge $-1 -1 $-1 $101 $160 $71 $106 reversed $68 $-1 #
edge $161 -1 $-1 $162 0 $163 3.1415926535897931 $71 $164 forward @7 unknown #
face $-1 -1 $-1 $-1 $165 $40 $-1 $166 forward single #
loop $-1 -1 $-1 $-1 $167 $72 #
plane-surface $-1 -1 $-1 556.2600000000001 15.239999999999998 482.60000000000002 1 0 0 0 0 -1 forward_v I I I I #
loop $-1 -1 $-1 $-1 $168 $58 #
coedge $-1 -1 $-1 $111 $111 $167 $169 forward $73 $-1 #
face $-1 -1 $-1 $-1 $170 $42 $-1 $171 forward single #
loop $-1 -1 $-1 $-1 $172 $75 #
plane-surface $-1 -1 $-1 556.25999999999999 95.25 508.00000000000006 1 0 0 0 0 -1 forward_v I I I I #
loop $-1 -1 $-1 $-1 $173 $59 #
coedge $-1 -1 $-1 $116 $116 $172 $174 forward $76 $-1 #
face $-1 -1 $-1 $175 $176 $44 $-1 $177 forward single #
loop $-1 -1 $-1 $-1 $178 $78 #
plane-surface $-1 -1 $-1 54.609999999999957 -135.25500000000002 44.449999999999989 0 -1 0 0 0 -1 forward_v I I I I #
coedge $-1 -1 $-1 $179 $180 $181 $182 forward $79 $-1 #
model_id-kcp-attrib $-1 -1 $-1 $-1 $82 1 1021487868 1021487868 23396354 6 #
face $183 -1 $-1 $184 $185 $45 $-1 $186 reversed single #
loop $-1 -1 $-1 $-1 $187 $82 #
plane-surface $-1 -1 $-1 0 0 -44.449999999999989 0 0 1 1 0 0 forward_v I I I I #
coedge $-1 -1 $-1 $188 $189 $190 $191 forward $83 $-1 #
face $-1 -1 $-1 $-1 $192 $47 $-1 $193 forward single #
loop $-1 -1 $-1 $-1 $194 $85 #
plane-surface $-1 -1 $-1 556.25999999999999 146.04999999999998 508.00000000000006 1 0 0 0 0 -1 forward_v I I I I #
loop $-1 -1 $-1 $-1 $195 $62 #
coedge $-1 -1 $-1 $130 $130 $194 $196 forward $86 $-1 #
face $-1 -1 $-1 $-1 $197 $49 $-1 $198 forward single #
loop $-1 -1 $-1 $-1 $199 $88 #
plane-surface $-1 -1 $-1 556.25999999999999 196.85000000000002 508.00000000000006 1 0 0 0 0 -1 forward_v I I I I #
loop $-1 -1 $-1 $-1 $200 $63 #
coedge $-1 -1 $-1 $135 $135 $199 $201 forward $89 $-1 #
face $-1 -1 $-1 $-1 $202 $51 $-1 $203 forward single #
loop $-1 -1 $-1 $-1 $204 $91 #
plane-surface $-1 -1 $-1 556.2600000000001 15.239999999999998 533.40000000000009 1 0 0 0 0 -1 forward_v I I I I #
loop $-1 -1 $-1 $-1 $205 $64 #
coedge $-1 -1 $-1 $140 $140 $204 $206 forward $92 $-1 #
face $-1 -1 $-1 $207 $208 $53 $-1 $209 forward single #
loop $-1 -1 $-1 $-1 $210 $94 #
plane-surface $-1 -1 $-1 57.150000000000034 -104.77499999999999 34.290000000000077 1 0 0 0 0 -1 forward_v I I I I #
coedge $-1 -1 $-1 $211 $212 $213 $214 forward $95 $-1 #
model_id-kcp-attrib $-1 -1 $-1 $-1 $98 1 1021487868 1021487868 23396353 5 #
face $215 -1 $-1 $216 $217 $13 $-1 $218 reversed single #
loop $-1 -1 $-1 $219 $220 $98 #
plane-surface $-1 -1 $-1 556.25999999999988 2.5399999999999996 558.79999999999995 1 0 0 0 25.399999999999999 0 forward_v I I I I #
coedge $-1 -1 $-1 $221 $158 $160 $222 forward $99 $-1 #
coedge $-1 -1 $-1 $160 $101 $220 $223 forward $68 $-1 #
coedge $-1 -1 $-1 $158 $221 $101 $152 reversed $99 $-1 #
edge $-1 -1 $-1 $162 0 $224 0.10000000000000304 $151 $225 forward @7 unknown #
loop $-1 -1 $-1 $226 $227 $38 #
coedge $-1 -1 $-1 $228 $228 $229 $230 forward $102 $-1 #
coedge $-1 -1 $-1 $103 $103 $231 $232 forward $70 $-1 #
coedge $-1 -1 $-1 $233 $234 $103 $157 reversed $217 $-1 #
edge $235 -1 $-1 $236 0 $237 3.1415926535897931 $103 $238 forward @7 unknown #
coedge $-1 -1 $-1 $149 $151 $104 $159 reversed $99 $-1 #
edge $239 -1 $-1 $163 0 $162 3.1415926535897931 $104 $240 forward @7 unknown #
coedge $-1 -1 $-1 $105 $150 $149 $222 reversed $68 $-1 #
attrib_edge_convexity-kcp-attrib $-1 -1 $241 $-1 $106 1 #
vertex $-1 -1 $-1 $159 $242 #
vertex $-1 -1 $-1 $159 $243 #
ellipse-curve $-1 -1 $-1 558.79999999999995 15.239999999999998 482.59999999999997 -1 0 0 0 1.2699999999999982 0 1 I I #
loop $-1 -1 $-1 $-1 $244 $107 #
plane-surface $-1 -1 $-1 558.80000000000018 15.239999999999998 482.60000000000002 1 0 0 0 0 -1 forward_v I I I I #
coedge $-1 -1 $-1 $167 $167 $111 $169 reversed $108 $-1 #
coedge $-1 -1 $-1 $168 $168 $244 $245 forward $110 $-1 #
edge $-1 -1 $-1 $246 0 $246 6.2831853071795862 $111 $247 forward @7 unknown #
loop $-1 -1 $-1 $-1 $248 $112 #
plane-surface $-1 -1 $-1 558.80000000000007 95.25 508.00000000000006 1 0 0 0 0 -1 forward_v I I I I #
coedge $-1 -1 $-1 $172 $172 $116 $174 reversed $113 $-1 #
coedge $-1 -1 $-1 $173 $173 $248 $249 forward $115 $-1 #
edge $-1 -1 $-1 $250 0 $250 6.2831853071795862 $116 $251 forward @7 unknown #
face $-1 -1 $-1 $252 $253 $44 $-1 $254 forward single #
loop $-1 -1 $-1 $-1 $255 $117 #
plane-surface $-1 -1 $-1 54.609999999999957 -135.25500000000002 -44.449999999999989 0 0 -1 -1 0 0 forward_v I I I I #
coedge $-1 -1 $-1 $256 $257 $258 $259 forward $118 $-1 #
coedge $-1 -1 $-1 $260 $120 $257 $261 reversed $79 $-1 #
coedge $-1 -1 $-1 $120 $260 $262 $263 forward $79 $-1 #
coedge $-1 -1 $-1 $264 $258 $120 $182 reversed $265 $-1 #
edge $-1 -1 $-1 $266 -133.35000000000002 $267 134.62 $120 $268 forward @7 unknown #
model_id-kcp-attrib $-1 -1 $-1 $-1 $122 1 1021487868 1021487868 23396354 8 #
face $269 -1 $-1 $270 $271 $45 $-1 $272 reversed single #
loop $-1 -1 $-1 $-1 $273 $122 #
plane-surface $-1 -1 $-1 0 -135.25500000000002 0 0 1 0 0 0 1 forward_v I I I I #
coedge $-1 -1 $-1 $274 $275 $276 $277 forward $123 $-1 #
coedge $-1 -1 $-1 $278 $125 $279 $280 forward $83 $-1 #
coedge $-1 -1 $-1 $125 $278 $281 $282 forward $83 $-1 #
coedge $-1 -1 $-1 $283 $284 $125 $191 reversed $285 $-1 #
edge $-1 -1 $-1 $286 -135.25500000000002 $287 135.25500000000002 $190 $288 forward @7 unknown #
loop $-1 -1 $-1 $-1 $289 $126 #
plane-surface $-1 -1 $-1 558.80000000000007 146.04999999999998 508.00000000000006 1 0 0 0 0 -1 forward_v I I I I #
coedge $-1 -1 $-1 $194 $194 $130 $196 reversed $127 $-1 #
coedge $-1 -1 $-1 $195 $195 $289 $290 forward $129 $-1 #
edge $-1 -1 $-1 $291 0 $291 6.2831853071795862 $130 $292 forward @7 unknown #
loop $-1 -1 $-1 $-1 $293 $131 #
plane-surface $-1 -1 $-1 558.80000000000007 196.85000000000002 508.00000000000006 1 0 0 0 0 -1 forward_v I I I I #
coedge $-1 -1 $-1 $199 $199 $135 $201 reversed $132 $-1 #
coedge $-1 -1 $-1 $200 $200 $293 $294 forward $134 $-1 #
edge $-1 -1 $-1 $295 0 $295 6.2831853071795862 $135 $296 forward @7 unknown #
loop $-1 -1 $-1 $-1 $297 $136 #
plane-surface $-1 -1 $-1 558.80000000000018 15.239999999999998 533.40000000000009 1 0 0 0 0 -1 forward_v I I I I #
coedge $-1 -1 $-1 $204 $204 $140 $206 reversed $137 $-1 #
coedge $-1 -1 $-1 $205 $205 $297 $298 forward $139 $-1 #
edge $-1 -1 $-1 $299 0 $299 6.2831853071795862 $140 $300 forward @7 unknown #
face $-1 -1 $-1 $301 $302 $53 $-1 $303 forward single #
loop $-1 -1 $-1 $-1 $304 $141 #
plane-surface $-1 -1 $-1 57.150000000000034 -135.25500000000002 34.29000000000002 0 -1 0 0 0 -1 forward_v I I I I #
coedge $-1 -1 $-1 $305 $306 $307 $308 forward $142 $-1 #
coedge $-1 -1 $-1 $309 $144 $306 $310 reversed $95 $-1 #
coedge $-1 -1 $-1 $144 $309 $311 $312 forward $95 $-1 #
coedge $-1 -1 $-1 $313 $307 $144 $214 reversed $314 $-1 #
edge $-1 -1 $-1 $315 -1.9050000000000864 $316 0.63499999999999091 $144 $317 forward @7 unknown #
model_id-kcp-attrib $-1 -1 $-1 $-1 $146 1 1021487868 1021487868 23396353 6 #
face $318 -1 $-1 $319 $320 $13 $-1 $321 reversed single #
loop $-1 -1 $-1 $-1 $233 $146 #
cone-surface $-1 -1 $-1 558.79999999999995 95.25 508 -1 0 0 0 -6.3499999999999996 0 1 I I 0 1 6.3499999999999996 forward I I I I #
loop $-1 -1 $-1 $322 $323 $98 #
coedge $-1 -1 $-1 $324 $324 $150 $223 reversed $147 $-1 #
coedge $-1 -1 $-1 $151 $149 $324 $325 forward $99 $-1 #
edge $-1 -1 $-1 $163 0 $326 0.10000000000000304 $149 $327 forward @7 unknown #
edge $328 -1 $-1 $224 1.8462921480380397e-014 $326 3.1415926535896328 $220 $329 forward @7 unknown #
vertex $-1 -1 $-1 $325 $330 #
straight-curve $-1 -1 $-1 558.79999999999995 16.509999999999998 482.59999999999997 -25.399999999999999 0 0 I I #
loop $-1 -1 $-1 $331 $332 $38 #
coedge $-1 -1 $-1 $333 $334 $335 $336 forward $153 $-1 #
coedge $-1 -1 $-1 $154 $154 $337 $338 forward $102 $-1 #
coedge $-1 -1 $-1 $339 $340 $154 $230 reversed $341 $-1 #
edge $342 -1 $-1 $343 0 $344 3.1415926535897931 $154 $345 forward @7 unknown #
coedge $-1 -1 $-1 $346 $347 $155 $232 reversed $320 $-1 #
edge $348 -1 $-1 $237 0 $236 3.1415926535897931 $155 $349 forward @7 unknown #
coedge $-1 -1 $-1 $350 $156 $347 $351 forward $217 $-1 #
coedge $-1 -1 $-1 $156 $350 $346 $352 reversed $217 $-1 #
attrib_edge_convexity-kcp-attrib $-1 -1 $353 $-1 $157 1 #
vertex $-1 -1 $-1 $232 $354 #
vertex $-1 -1 $-1 $232 $355 #
ellipse-curve $-1 -1 $-1 558.79999999999995 95.25 508 -1 0 0 0 6.3499999999999996 0 1 I I #
attrib_edge_convexity-kcp-attrib $-1 -1 $356 $-1 $159 1 #
ellipse-curve $-1 -1 $-1 558.79999999999995 15.239999999999998 482.59999999999997 -1 0 0 0 -1.2700000000000011 0 1 I I #
convexity-sys-attrib $-1 -1 $-1 $161 $106 #
point $-1 -1 $-1 558.79999999999995 16.509999999999998 482.59999999999997 #
point $-1 -1 $-1 558.79999999999995 13.969999999999997 482.59999999999997 #
coedge $-1 -1 $-1 $244 $244 $168 $245 reversed $165 $-1 #
edge $-1 -1 $-1 $357 0 $357 6.2831853071795862 $168 $358 forward @7 unknown #
vertex $-1 -1 $-1 $169 $359 #
ellipse-curve $-1 -1 $-1 556.25999999999988 15.239999999999998 482.59999999999997 1 0 0 0 -1.2700000000000011 0 1 I I #
coedge $-1 -1 $-1 $248 $248 $173 $249 reversed $170 $-1 #
edge $-1 -1 $-1 $360 0 $360 6.2831853071795862 $173 $361 forward @7 unknown #
vertex $-1 -1 $-1 $174 $362 #
ellipse-curve $-1 -1 $-1 556.25999999999988 95.25 508 1 0 0 0 -6.3499999999999996 0 1 I I #
face $-1 -1 $-1 $363 $265 $44 $-1 $364 reversed single #
loop $-1 -1 $-1 $-1 $365 $175 #
plane-surface $-1 -1 $-1 54.609999999999957 132.71499999999995 -44.449999999999932 0 1 0 0 0 1 forward_v I I I I #
coedge $-1 -1 $-1 $366 $367 $368 $369 forward $176 $-1 #
coedge $-1 -1 $-1 $370 $178 $367 $371 reversed $118 $-1 #
coedge $-1 -1 $-1 $178 $370 $179 $261 forward $118 $-1 #
coedge $-1 -1 $-1 $181 $368 $178 $259 reversed $265 $-1 #
edge $-1 -1 $-1 $267 -44.449999999999989 $372 44.449999999999989 $178 $373 forward @7 unknown #
coedge $-1 -1 $-1 $180 $179 $374 $375 reversed $79 $-1 #
edge $-1 -1 $-1 $376 0 $267 111.75999999999999 $257 $377 forward @7 unknown #
coedge $-1 -1 $-1 $378 $365 $180 $263 reversed $253 $-1 #
edge $-1 -1 $-1 $379 0 $266 111.75999999999999 $180 $380 forward @7 unknown #
coedge $-1 -1 $-1 $368 $181 $365 $381 reversed $265 $-1 #
loop $-1 -1 $-1 $-1 $181 $252 #
vertex $-1 -1 $-1 $263 $382 #
vertex $-1 -1 $-1 $261 $383 #
straight-curve $-1 -1 $-1 -57.150000000000034 -0.63500000000000512 44.449999999999989 0 -1 0 I I #
model_id-kcp-attrib $-1 -1 $-1 $-1 $184 1 1021487868 1021487868 23396354 5 #
face $384 -1 $-1 $385 $386 $45 $-1 $387 reversed single #
loop $-1 -1 $-1 $-1 $388 $184 #
plane-surface $-1 -1 $-1 -57.150000000000034 0 0 1 0 0 0 0 -1 forward_v I I I I #
coedge $-1 -1 $-1 $389 $281 $390 $391 forward $185 $-1 #
coedge $-1 -1 $-1 $392 $187 $389 $393 forward $123 $-1 #
coedge $-1 -1 $-1 $187 $392 $394 $395 forward $123 $-1 #
coedge $-1 -1 $-1 $284 $283 $187 $277 reversed $285 $-1 #
edge $-1 -1 $-1 $396 -135.25500000000002 $397 135.25500000000002 $276 $398 forward @7 unknown #
coedge $-1 -1 $-1 $189 $188 $399 $400 forward $83 $-1 #
coedge $-1 -1 $-1 $401 $402 $188 $280 reversed $386 $-1 #
edge $-1 -1 $-1 $287 -57.150000000000034 $403 57.150000000000034 $279 $404 forward @7 unknown #
coedge $-1 -1 $-1 $273 $405 $189 $282 reversed $185 $-1 #
edge $-1 -1 $-1 $406 -57.150000000000034 $286 57.150000000000034 $281 $407 forward @7 unknown #
coedge $-1 -1 $-1 $276 $190 $405 $408 forward $285 $-1 #
coedge $-1 -1 $-1 $190 $276 $401 $409 reversed $285 $-1 #
loop $-1 -1 $-1 $-1 $283 $385 #
vertex $-1 -1 $-1 $191 $410 #
vertex $-1 -1 $-1 $191 $411 #
straight-curve $-1 -1 $-1 57.150000000000034 0 44.449999999999989 0 1 0 I I #
coedge $-1 -1 $-1 $289 $289 $195 $290 reversed $192 $-1 #
edge $-1 -1 $-1 $412 0 $412 6.2831853071795862 $195 $413 forward @7 unknown #
vertex $-1 -1 $-1 $196 $414 #
ellipse-curve $-1 -1 $-1 556.25999999999988 146.04999999999998 508 1 0 0 0 -6.3500000000000218 0 1 I I #
coedge $-1 -1 $-1 $293 $293 $200 $294 reversed $197 $-1 #
edge $-1 -1 $-1 $415 0 $415 6.2831853071795862 $200 $416 forward @7 unknown #
vertex $-1 -1 $-1 $201 $417 #
ellipse-curve $-1 -1 $-1 556.25999999999988 196.84999999999999 508 1 0 0 0 -6.3500000000000218 0 1 I I #
coedge $-1 -1 $-1 $297 $297 $205 $298 reversed $202 $-1 #
edge $-1 -1 $-1 $418 0 $418 6.2831853071795862 $205 $419 forward @7 unknown #
vertex $-1 -1 $-1 $206 $420 #
ellipse-curve $-1 -1 $-1 556.25999999999988 15.239999999999998 533.39999999999998 1 0 0 0 -1.2700000000000011 0 1 I I #
face $-1 -1 $-1 $421 $314 $53 $-1 $422 forward single #
loop $-1 -1 $-1 $-1 $423 $207 #
plane-surface $-1 -1 $-1 54.609999999999957 -135.255 34.290000000000077 -1 2.0148117786015144e-032 0 0 0 1 forward_v I I I I #
coedge $-1 -1 $-1 $424 $425 $426 $427 forward $208 $-1 #
coedge $-1 -1 $-1 $428 $210 $425 $429 reversed $142 $-1 #
coedge $-1 -1 $-1 $210 $428 $211 $310 forward $142 $-1 #
coedge $-1 -1 $-1 $213 $426 $210 $308 reversed $314 $-1 #
edge $-1 -1 $-1 $316 44.767499999999998 $430 75.247500000000031 $210 $431 forward @7 unknown #
coedge $-1 -1 $-1 $212 $211 $432 $433 reversed $95 $-1 #
edge $-1 -1 $-1 $434 0 $316 10.160000000000082 $306 $435 forward @7 unknown #
coedge $-1 -1 $-1 $436 $423 $212 $312 reversed $302 $-1 #
edge $-1 -1 $-1 $437 0 $315 10.160000000000082 $212 $438 forward @7 unknown #
coedge $-1 -1 $-1 $426 $213 $423 $439 reversed $314 $-1 #
loop $-1 -1 $-1 $-1 $213 $301 #
vertex $-1 -1 $-1 $312 $440 #
vertex $-1 -1 $-1 $310 $441 #
straight-curve $-1 -1 $-1 56.515000000000043 -104.77499999999998 44.450000000000102 1 0 0 I I #
model_id-kcp-attrib $-1 -1 $-1 $-1 $216 1 1021487868 1021487868 23396353 7 #
face $442 -1 $-1 $443 $341 $13 $-1 $444 reversed single #
loop $-1 -1 $-1 $-1 $346 $216 #
cone-surface $-1 -1 $-1 558.79999999999995 95.25 508 -1 0 0 0 -6.3499999999999996 0 1 I I 0 1 6.3499999999999996 forward I I I I #
loop $-1 -1 $-1 $445 $446 $98 #
coedge $-1 -1 $-1 $447 $447 $350 $448 reversed $219 $-1 #
coedge $-1 -1 $-1 $220 $220 $221 $325 reversed $147 $-1 #
edge $449 -1 $-1 $326 -2.6295676047814741e-014 $224 3.1415926535896772 $324 $450 forward @7 unknown #
vertex $-1 -1 $-1 $325 $451 #
straight-curve $-1 -1 $-1 558.79999999999995 13.969999999999997 482.59999999999997 -25.399999999999999 0 0 I I #
attrib_edge_convexity-kcp-attrib $-1 -1 $452 $-1 $223 1 #
ellipse-curve $-1 -1 $-1 556.25999999999988 15.239999999999995 482.60000000000008 -1 0 0 0 1.2700000000000011 -9.0238927441532719e-014 1 I I #
point $-1 -1 $-1 556.25999999999988 16.509999999999998 482.59999999999997 #
loop $-1 -1 $-1 $-1 $453 $38 #
coedge $-1 -1 $-1 $454 $454 $455 $456 forward $226 $-1 #
coedge $-1 -1 $-1 $457 $227 $458 $459 forward $153 $-1 #
coedge $-1 -1 $-1 $227 $460 $461 $462 reversed $153 $-1 #
coedge $-1 -1 $-1 $463 $464 $227 $336 reversed $465 $-1 #
edge $466 -1 $-1 $467 0 $468 3.1000000000000005 $227 $469 forward @7 unknown #
coedge $-1 -1 $-1 $470 $471 $228 $338 reversed $472 $-1 #
edge $473 -1 $-1 $344 0 $343 3.1415926535897931 $228 $474 forward @7 unknown #
coedge $-1 -1 $-1 $475 $229 $471 $476 forward $341 $-1 #
coedge $-1 -1 $-1 $229 $475 $470 $477 reversed $341 $-1 #
loop $-1 -1 $-1 $-1 $339 $319 #
attrib_edge_convexity-kcp-attrib $-1 -1 $478 $-1 $230 1 #
vertex $-1 -1 $-1 $338 $479 #
vertex $-1 -1 $-1 $338 $480 #
ellipse-curve $-1 -1 $-1 558.79999999999995 146.04999999999998 508 -1 0 0 0 6.3499999999999774 0 1 I I #
coedge $-1 -1 $-1 $481 $231 $234 $352 forward $320 $-1 #
coedge $-1 -1 $-1 $231 $481 $233 $351 reversed $320 $-1 #
attrib_edge_convexity-kcp-attrib $-1 -1 $482 $-1 $232 1 #
ellipse-curve $-1 -1 $-1 558.79999999999995 95.25 508 -1 0 0 0 -6.3499999999999996 0 1 I I #
coedge $-1 -1 $-1 $234 $233 $323 $448 forward $217 $-1 #
edge $-1 -1 $-1 $236 0 $483 0.10000000000000304 $347 $484 forward @7 unknown #
edge $-1 -1 $-1 $237 0 $485 0.10000000000000304 $346 $486 forward @7 unknown #
convexity-sys-attrib $-1 -1 $-1 $235 $157 #
point $-1 -1 $-1 558.79999999999995 101.59999999999999 508 #
point $-1 -1 $-1 558.79999999999995 88.899999999999991 508 #
convexity-sys-attrib $-1 -1 $-1 $239 $159 #
vertex $-1 -1 $-1 $245 $487 #
ellipse-curve $-1 -1 $-1 558.79999999999995 15.239999999999998 482.59999999999997 -1 0 0 0 1.2699999999999982 0 1 I I #
point $-1 -1 $-1 556.25999999999988 13.969999999999997 482.59999999999997 #
vertex $-1 -1 $-1 $249 $488 #
ellipse-curve $-1 -1 $-1 558.79999999999995 95.25 508 -1 0 0 0 6.3499999999999996 0 1 I I #
point $-1 -1 $-1 556.25999999999988 88.899999999999991 508 #
face $-1 -1 $-1 $-1 $489 $44 $-1 $490 forward single #
plane-surface $-1 -1 $-1 -57.150000000000034 -1.2700000000000207 7.1054273576010019e-015 1 -2.0148117786015144e-032 3.1491817226544078e-047 3.1491817226544078e-047 0 -1 forward_v I I I I #
coedge $-1 -1 $-1 $262 $491 $264 $381 forward $253 $-1 #
coedge $-1 -1 $-1 $492 $255 $491 $493 reversed $176 $-1 #
coedge $-1 -1 $-1 $255 $492 $256 $371 forward $176 $-1 #
coedge $-1 -1 $-1 $258 $264 $255 $369 reversed $265 $-1 #
edge $-1 -1 $-1 $372 -134.62 $494 133.34999999999997 $255 $495 forward @7 unknown #
coedge $-1 -1 $-1 $257 $256 $496 $497 reversed $118 $-1 #
edge $-1 -1 $-1 $498 0 $372 111.75999999999999 $367 $499 forward @7 unknown #
vertex $-1 -1 $-1 $371 $500 #
straight-curve $-1 -1 $-1 -57.150000000000034 -135.25500000000002 0 0 0 -1 I I #
coedge $-1 -1 $-1 $496 $501 $260 $375 forward $489 $-1 #
edge $502 -1 $-1 $379 -133.35000000000002 $376 134.62 $260 $503 forward @7 unknown #
vertex $-1 -1 $-1 $375 $504 #
straight-curve $-1 -1 $-1 54.609999999999957 -135.25500000000002 44.449999999999989 -1 0 0 I I #
coedge $-1 -1 $-1 $491 $262 $501 $505 reversed $253 $-1 #
vertex $-1 -1 $-1 $505 $506 #
straight-curve $-1 -1 $-1 54.609999999999957 132.715 44.450000000000045 -1 0 0 I I #
edge $-1 -1 $-1 $494 -66.674999999999955 $266 22.225000000000023 $365 $507 forward @7 unknown #
point $-1 -1 $-1 -57.150000000000034 132.715 44.450000000000045 #
point $-1 -1 $-1 -57.150000000000034 -135.25500000000002 44.449999999999989 #
model_id-kcp-attrib $-1 -1 $-1 $-1 $270 1 1021487868 1021487868 23396354 9 #
face $508 -1 $-1 $-1 $285 $45 $-1 $509 reversed single #
loop $-1 -1 $-1 $-1 $401 $270 #
plane-surface $-1 -1 $-1 0 135.25500000000002 0 0 -1 0 0 0 -1 forward_v I I I I #
coedge $-1 -1 $-1 $510 $399 $402 $511 forward $271 $-1 #
coedge $-1 -1 $-1 $405 $273 $274 $393 reversed $185 $-1 #
coedge $-1 -1 $-1 $399 $510 $273 $391 reversed $271 $-1 #
edge $-1 -1 $-1 $406 -44.449999999999989 $512 44.449999999999989 $390 $513 forward @7 unknown #
coedge $-1 -1 $-1 $275 $274 $510 $514 forward $123 $-1 #
edge $-1 -1 $-1 $397 -57.150000000000034 $512 57.150000000000034 $389 $515 forward @7 unknown #
coedge $-1 -1 $-1 $402 $401 $275 $395 reversed $386 $-1 #
edge $-1 -1 $-1 $516 -57.150000000000034 $396 57.150000000000034 $394 $517 forward @7 unknown #
vertex $-1 -1 $-1 $277 $518 #
vertex $-1 -1 $-1 $408 $519 #
straight-curve $-1 -1 $-1 57.150000000000034 0 -44.449999999999989 0 -1 0 I I #
coedge $-1 -1 $-1 $388 $390 $278 $400 reversed $271 $-1 #
edge $-1 -1 $-1 $403 -135.25500000000002 $406 135.25500000000002 $399 $520 forward @7 unknown #
coedge $-1 -1 $-1 $394 $279 $284 $409 forward $386 $-1 #
coedge $-1 -1 $-1 $279 $394 $388 $511 reversed $386 $-1 #
vertex $-1 -1 $-1 $280 $521 #
straight-curve $-1 -1 $-1 0 135.25500000000002 44.449999999999989 -1 0 0 I I #
coedge $-1 -1 $-1 $281 $389 $283 $408 reversed $185 $-1 #
vertex $-1 -1 $-1 $400 $522 #
straight-curve $-1 -1 $-1 0 -135.25500000000002 44.449999999999989 1 0 0 I I #
edge $-1 -1 $-1 $286 -44.449999999999989 $397 44.449999999999989 $283 $523 forward @7 unknown #
edge $-1 -1 $-1 $287 -44.449999999999989 $396 44.449999999999989 $284 $524 forward @7 unknown #
point $-1 -1 $-1 57.150000000000034 -135.25500000000002 44.449999999999989 #
point $-1 -1 $-1 57.150000000000034 135.25500000000002 44.449999999999989 #
vertex $-1 -1 $-1 $290 $525 #
ellipse-curve $-1 -1 $-1 558.79999999999995 146.04999999999998 508 -1 0 0 0 6.3499999999999774 0 1 I I #
point $-1 -1 $-1 556.25999999999988 139.69999999999996 508 #
vertex $-1 -1 $-1 $294 $526 #
ellipse-curve $-1 -1 $-1 558.79999999999995 196.84999999999999 508 -1 0 0 0 6.3499999999999774 0 1 I I #
point $-1 -1 $-1 556.25999999999988 190.49999999999997 508 #
vertex $-1 -1 $-1 $298 $527 #
ellipse-curve $-1 -1 $-1 558.79999999999995 15.239999999999998 533.39999999999998 -1 0 0 0 1.2699999999999982 0 1 I I #
point $-1 -1 $-1 556.25999999999988 13.969999999999997 533.39999999999998 #
face $-1 -1 $-1 $-1 $528 $53 $-1 $529 reversed single #
plane-surface $-1 -1 $-1 55.880000000000003 -120.01500000000001 44.450000000000095 6.9962447502438053e-028 9.0843467356167087e-030 1 1 0 -6.9962447502438053e-028 forward_v I I I I #
coedge $-1 -1 $-1 $311 $530 $313 $439 forward $302 $-1 #
coedge $-1 -1 $-1 $531 $304 $530 $532 reversed $208 $-1 #
coedge $-1 -1 $-1 $304 $531 $305 $429 forward $208 $-1 #
coedge $-1 -1 $-1 $307 $313 $304 $427 reversed $314 $-1 #
edge $-1 -1 $-1 $430 -29.210000000000008 $533 -26.669999999999931 $304 $534 forward @7 unknown #
coedge $-1 -1 $-1 $306 $305 $535 $536 reversed $142 $-1 #
edge $-1 -1 $-1 $537 0 $430 10.160000000000082 $425 $538 forward @7 unknown #
vertex $-1 -1 $-1 $429 $539 #
straight-curve $-1 -1 $-1 57.150000000000034 -60.007499999999993 44.450000000000102 0 -1 0 I I #
coedge $-1 -1 $-1 $535 $540 $309 $433 forward $528 $-1 #
edge $541 -1 $-1 $437 -1.9050000000000864 $434 0.63499999999999091 $309 $542 forward @7 unknown #
vertex $-1 -1 $-1 $433 $543 #
straight-curve $-1 -1 $-1 57.150000000000034 -104.77499999999999 34.290000000000077 0 0 1 I I #
coedge $-1 -1 $-1 $530 $311 $540 $544 reversed $302 $-1 #
vertex $-1 -1 $-1 $544 $545 #
straight-curve $-1 -1 $-1 54.609999999999957 -104.77499999999999 34.290000000000077 0 0 1 I I #
edge $-1 -1 $-1 $533 -74.612499999999997 $315 -44.132499999999993 $423 $546 forward @7 unknown #
point $-1 -1 $-1 54.609999999999957 -104.77499999999999 44.450000000000159 #
point $-1 -1 $-1 57.150000000000034 -104.77499999999999 44.450000000000159 #
model_id-kcp-attrib $-1 -1 $-1 $-1 $319 1 1021487868 1021487868 23396353 8 #
face $547 -1 $-1 $548 $472 $13 $-1 $549 reversed single #
cone-surface $-1 -1 $-1 558.79999999999995 146.04999999999998 508 -1 0 0 0 -6.3499999999999996 0 1 I I 0 1 6.3499999999999996 forward I I I I #
loop $-1 -1 $-1 $550 $551 $98 #
coedge $-1 -1 $-1 $552 $552 $475 $553 reversed $322 $-1 #
coedge $-1 -1 $-1 $323 $323 $481 $554 reversed $219 $-1 #
edge $555 -1 $-1 $483 0 $485 3.1415926535897931 $323 $556 forward @7 unknown #
attrib_edge_convexity-kcp-attrib $-1 -1 $557 $-1 $325 1 #
ellipse-curve $-1 -1 $-1 556.25999999999988 15.239999999999995 482.59999999999991 -1 0 0 0 -1.2699999999999982 9.0238927441532719e-014 1 I I #
point $-1 -1 $-1 556.25999999999988 13.969999999999997 482.59999999999997 #
convexity-sys-attrib $-1 -1 $-1 $328 $223 #
coedge $-1 -1 $-1 $558 $558 $559 $560 forward $331 $-1 #
coedge $-1 -1 $-1 $332 $332 $561 $562 forward $226 $-1 #
coedge $-1 -1 $-1 $563 $564 $332 $456 reversed $565 $-1 #
edge $566 -1 $-1 $567 0 $568 3.1415926535897931 $332 $569 forward @7 unknown #
coedge $-1 -1 $-1 $570 $333 $571 $572 reversed $153 $-1 #
coedge $-1 -1 $-1 $573 $574 $333 $459 reversed $575 $-1 #
edge $576 -1 $-1 $468 0 $577 10.650000000000002 $333 $578 forward @7 unknown #
coedge $-1 -1 $-1 $334 $570 $579 $580 forward $153 $-1 #
coedge $-1 -1 $-1 $581 $582 $334 $462 forward $583 $-1 #
edge $584 -1 $-1 $467 0 $585 1.2 $334 $586 forward @7 unknown #
coedge $-1 -1 $-1 $587 $335 $582 $588 reversed $465 $-1 #
coedge $-1 -1 $-1 $335 $587 $573 $589 reversed $465 $-1 #
loop $-1 -1 $-1 $-1 $587 $590 #
attrib_edge_convexity-kcp-attrib $-1 -1 $591 $-1 $336 1 #
vertex $-1 -1 $-1 $462 $592 #
vertex $-1 -1 $-1 $459 $593 #
straight-curve $-1 -1 $-1 558.79999999999995 2.5399999999999996 548.63999999999999 0 0 -25.399999999999999 I I #
coedge $-1 -1 $-1 $594 $337 $340 $477 forward $472 $-1 #
coedge $-1 -1 $-1 $337 $594 $339 $476 reversed $472 $-1 #
loop $-1 -1 $-1 $-1 $470 $443 #
attrib_edge_convexity-kcp-attrib $-1 -1 $595 $-1 $338 1 #
ellipse-curve $-1 -1 $-1 558.79999999999995 146.04999999999998 508 -1 0 0 0 -6.3500000000000218 0 1 I I #
coedge $-1 -1 $-1 $340 $339 $446 $553 forward $341 $-1 #
edge $-1 -1 $-1 $343 0 $596 0.10000000000000304 $471 $597 forward @7 unknown #
edge $-1 -1 $-1 $344 0 $598 0.10000000000000304 $470 $599 forward @7 unknown #
convexity-sys-attrib $-1 -1 $-1 $342 $230 #
point $-1 -1 $-1 558.79999999999995 152.39999999999998 508 #
point $-1 -1 $-1 558.79999999999995 139.69999999999996 508 #
coedge $-1 -1 $-1 $347 $346 $447 $554 forward $320 $-1 #
convexity-sys-attrib $-1 -1 $-1 $348 $232 #
vertex $-1 -1 $-1 $554 $600 #
straight-curve $-1 -1 $-1 558.79999999999995 101.59999999999999 508 -25.399999999999999 0 0 I I #
vertex $-1 -1 $-1 $554 $601 #
straight-curve $-1 -1 $-1 558.79999999999995 88.899999999999991 508 -25.399999999999999 0 0 I I #
point $-1 -1 $-1 558.79999999999995 16.509999999999998 482.59999999999997 #
point $-1 -1 $-1 558.79999999999995 101.59999999999999 508 #
loop $-1 -1 $-1 $-1 $501 $363 #
plane-surface $-1 -1 $-1 54.609999999999957 -1.2700000000000207 7.1054273576010019e-015 1 -2.0148117786015144e-032 3.1491817226544078e-047 3.1491817226544078e-047 0 -1 forward_v I I I I #
coedge $-1 -1 $-1 $365 $378 $366 $493 forward $253 $-1 #
coedge $-1 -1 $-1 $367 $366 $602 $603 reversed $176 $-1 #
edge $-1 -1 $-1 $604 0 $494 111.75999999999999 $491 $605 forward @7 unknown #
vertex $-1 -1 $-1 $493 $606 #
straight-curve $-1 -1 $-1 -57.150000000000034 -0.63500000000000512 -44.449999999999989 0 1 0 I I #
coedge $-1 -1 $-1 $602 $374 $370 $497 forward $489 $-1 #
edge $607 -1 $-1 $376 -44.449999999999989 $498 44.449999999999989 $370 $608 forward @7 unknown #
vertex $-1 -1 $-1 $497 $609 #
straight-curve $-1 -1 $-1 54.609999999999957 -135.25500000000002 -44.449999999999989 -1 0 0 I I #
point $-1 -1 $-1 -57.150000000000034 -135.25500000000002 -44.449999999999989 #
coedge $-1 -1 $-1 $374 $602 $378 $505 forward $489 $-1 #
convexity-sys-attrib $-1 -1 $-1 $-1 $375 #
straight-curve $-1 -1 $-1 54.609999999999957 -0.63500000000000512 44.449999999999989 0 -1 0 I I #
point $-1 -1 $-1 54.609999999999957 -135.25500000000002 44.449999999999989 #
edge $610 -1 $-1 $604 -66.674999999999955 $379 22.225000000000023 $378 $611 forward @7 unknown #
point $-1 -1 $-1 54.609999999999957 132.715 44.450000000000045 #
straight-curve $-1 -1 $-1 -57.150000000000034 132.71499999999995 22.225000000000023 0 0 1 I I #
model_id-kcp-attrib $-1 -1 $-1 $-1 $385 1 1021487868 1021487868 23396354 2 #
plane-surface $-1 -1 $-1 57.150000000000034 0 0 -1 0 0 0 0 1 forward_v I I I I #
coedge $-1 -1 $-1 $390 $388 $392 $514 reversed $271 $-1 #
edge $-1 -1 $-1 $403 -44.449999999999989 $516 44.449999999999989 $402 $612 forward @7 unknown #
vertex $-1 -1 $-1 $514 $613 #
straight-curve $-1 -1 $-1 -57.150000000000034 -135.25500000000002 0 0 0 -1 I I #
edge $-1 -1 $-1 $512 -135.25500000000002 $516 135.25500000000002 $510 $614 forward @7 unknown #
straight-curve $-1 -1 $-1 0 -135.25500000000002 -44.449999999999989 -1 0 0 I I #
vertex $-1 -1 $-1 $395 $615 #
straight-curve $-1 -1 $-1 0 135.25500000000002 -44.449999999999989 1 0 0 I I #
point $-1 -1 $-1 57.150000000000034 135.25500000000002 -44.449999999999989 #
point $-1 -1 $-1 57.150000000000034 -135.25500000000002 -44.449999999999989 #
straight-curve $-1 -1 $-1 -57.150000000000034 0 44.449999999999989 0 -1 0 I I #
point $-1 -1 $-1 -57.150000000000034 135.25500000000002 44.449999999999989 #
point $-1 -1 $-1 -57.150000000000034 -135.25500000000002 44.449999999999989 #
straight-curve $-1 -1 $-1 57.150000000000034 -135.25500000000002 0 0 0 -1 I I #
straight-curve $-1 -1 $-1 57.150000000000034 135.25500000000002 0 0 0 -1 I I #
point $-1 -1 $-1 558.79999999999995 152.39999999999998 508 #
point $-1 -1 $-1 558.79999999999995 203.19999999999996 508 #
point $-1 -1 $-1 558.79999999999995 16.509999999999998 533.39999999999998 #
loop $-1 -1 $-1 $-1 $540 $421 #
plane-surface $-1 -1 $-1 55.880000000000003 -120.01500000000001 34.290000000000013 6.9962447502438053e-028 9.0843467356167087e-030 1 1 0 -6.9962447502438053e-028 forward_v I I I I #
coedge $-1 -1 $-1 $423 $436 $424 $532 forward $302 $-1 #
coedge $-1 -1 $-1 $425 $424 $616 $617 reversed $208 $-1 #
edge $-1 -1 $-1 $618 0 $533 10.160000000000082 $530 $619 forward @7 unknown #
vertex $-1 -1 $-1 $532 $620 #
straight-curve $-1 -1 $-1 27.940000000000026 -135.25500000000002 44.450000000000102 -1 0 0 I I #
coedge $-1 -1 $-1 $616 $432 $428 $536 forward $528 $-1 #
edge $621 -1 $-1 $434 44.767499999999998 $537 75.247500000000031 $428 $622 forward @7 unknown #
vertex $-1 -1 $-1 $536 $623 #
straight-curve $-1 -1 $-1 57.150000000000034 -135.25500000000002 34.29000000000002 0 0 1 I I #
point $-1 -1 $-1 57.150000000000034 -135.25500000000002 44.450000000000102 #
coedge $-1 -1 $-1 $432 $616 $436 $544 forward $528 $-1 #
convexity-sys-attrib $-1 -1 $-1 $-1 $433 #
straight-curve $-1 -1 $-1 56.515000000000043 -104.77499999999998 34.29000000000002 1 0 0 I I #
point $-1 -1 $-1 57.150000000000034 -104.77499999999999 34.290000000000077 #
edge $624 -1 $-1 $618 -74.612499999999997 $437 -44.132499999999993 $436 $625 forward @7 unknown #
point $-1 -1 $-1 54.609999999999957 -104.77499999999999 34.290000000000077 #
straight-curve $-1 -1 $-1 54.609999999999957 -60.642499999999998 44.450000000000102 2.0148117786015144e-032 1 0 I I #
model_id-kcp-attrib $-1 -1 $-1 $-1 $443 1 1021487868 1021487868 23396353 9 #
face $626 -1 $-1 $627 $628 $13 $-1 $629 reversed single #
cone-surface $-1 -1 $-1 558.79999999999995 146.04999999999998 508 -1 0 0 0 -6.3499999999999996 0 1 I I 0 1 6.3499999999999996 forward I I I I #
loop $-1 -1 $-1 $630 $631 $98 #
coedge $-1 -1 $-1 $632 $633 $634 $635 reversed $445 $-1 #
coedge $-1 -1 $-1 $446 $446 $594 $636 reversed $322 $-1 #
edge $637 -1 $-1 $596 0 $598 3.1415926535897931 $446 $638 forward @7 unknown #
edge $639 -1 $-1 $485 0 $483 3.1415926535897931 $447 $640 forward @7 unknown #
attrib_edge_convexity-kcp-attrib $-1 -1 $641 $-1 $448 1 #
ellipse-curve $-1 -1 $-1 556.25999999999988 95.25 508 -1 0 0 0 6.3499999999999996 0 1 I I #
convexity-sys-attrib $-1 -1 $-1 $449 $325 #
coedge $-1 -1 $-1 $453 $453 $642 $643 forward $331 $-1 #
coedge $-1 -1 $-1 $644 $645 $453 $560 reversed $646 $-1 #
edge $647 -1 $-1 $648 0 $649 3.1415926535897931 $453 $650 forward @7 unknown #
coedge $-1 -1 $-1 $651 $652 $454 $562 reversed $653 $-1 #
edge $654 -1 $-1 $568 0 $567 3.1415926535897931 $454 $655 forward @7 unknown #
coedge $-1 -1 $-1 $656 $455 $652 $657 forward $565 $-1 #
coedge $-1 -1 $-1 $455 $656 $651 $658 reversed $565 $-1 #
loop $-1 -1 $-1 $-1 $563 $659 #
attrib_edge_convexity-kcp-attrib $-1 -1 $660 $-1 $456 1 #
vertex $-1 -1 $-1 $562 $661 #
vertex $-1 -1 $-1 $562 $662 #
ellipse-curve $-1 -1 $-1 558.79999999999995 196.84999999999999 508 -1 0 0 0 6.3499999999999774 0 1 I I #
coedge $-1 -1 $-1 $460 $457 $663 $664 reversed $153 $-1 #
coedge $-1 -1 $-1 $665 $666 $457 $572 forward $667 $-1 #
edge $668 -1 $-1 $669 0 $577 3.4999999999999991 $457 $670 forward @7 unknown #
coedge $-1 -1 $-1 $671 $458 $464 $589 forward $575 $-1 #
coedge $-1 -1 $-1 $458 $671 $672 $673 reversed $575 $-1 #
loop $-1 -1 $-1 $-1 $573 $674 #
attrib_edge_convexity-kcp-attrib $-1 -1 $675 $-1 $459 1 #
vertex $-1 -1 $-1 $572 $676 #
straight-curve $-1 -1 $-1 558.79999999999995 2.5399999999999907 469.89999999999998 0 25.399999999999999 0 I I #
coedge $-1 -1 $-1 $677 $678 $460 $580 reversed $628 $-1 #
edge $679 -1 $-1 $680 0 $585 0.39999999999999875 $460 $681 forward @7 unknown #
coedge $-1 -1 $-1 $682 $461 $678 $683 forward $583 $-1 #
coedge $-1 -1 $-1 $461 $682 $463 $588 forward $583 $-1 #
loop $-1 -1 $-1 $-1 $581 $684 #
attrib_edge_convexity-kcp-attrib $-1 -1 $685 $-1 $462 1 #
vertex $-1 -1 $-1 $462 $686 #
straight-curve $-1 -1 $-1 558.79999999999995 2.5399999999999996 548.63999999999987 0 25.399999999999999 0 I I #
coedge $-1 -1 $-1 $464 $463 $687 $688 forward $465 $-1 #
edge $689 -1 $-1 $690 0 $467 0.10000000000000304 $463 $691 forward @7 unknown #
edge $692 -1 $-1 $468 0 $693 0.10000000000000304 $573 $694 forward @7 unknown #
face $695 -1 $-1 $684 $465 $13 $-1 $696 forward single #
convexity-sys-attrib $-1 -1 $-1 $466 $336 #
point $-1 -1 $-1 558.79999999999995 2.5399999999999996 548.63999999999999 #
point $-1 -1 $-1 558.79999999999995 2.5399999999999907 469.89999999999998 #
coedge $-1 -1 $-1 $471 $470 $552 $636 forward $472 $-1 #
convexity-sys-attrib $-1 -1 $-1 $473 $338 #
vertex $-1 -1 $-1 $636 $697 #
straight-curve $-1 -1 $-1 558.79999999999995 152.39999999999998 508 -25.399999999999999 0 0 I I #
vertex $-1 -1 $-1 $636 $698 #
straight-curve $-1 -1 $-1 558.79999999999995 139.69999999999999 508 -25.399999999999999 0 0 I I #
point $-1 -1 $-1 556.25999999999988 101.59999999999999 508 #
point $-1 -1 $-1 556.25999999999988 88.899999999999991 508 #
coedge $-1 -1 $-1 $501 $496 $492 $603 forward $489 $-1 #
edge $699 -1 $-1 $498 -134.62 $604 133.34999999999997 $492 $700 forward @7 unknown #
vertex $-1 -1 $-1 $505 $701 #
straight-curve $-1 -1 $-1 54.609999999999957 132.71499999999995 -44.449999999999932 -1 0 0 I I #
point $-1 -1 $-1 -57.150000000000034 132.71499999999995 -44.449999999999932 #
convexity-sys-attrib $-1 -1 $-1 $-1 $497 #
straight-curve $-1 -1 $-1 54.609999999999957 -135.25500000000002 0 0 0 -1 I I #
point $-1 -1 $-1 54.609999999999957 -135.25500000000002 -44.449999999999989 #
convexity-sys-attrib $-1 -1 $-1 $-1 $505 #
straight-curve $-1 -1 $-1 54.609999999999957 132.71499999999995 22.225000000000023 0 0 1 I I #
straight-curve $-1 -1 $-1 -57.150000000000034 135.25500000000002 0 0 0 -1 I I #
point $-1 -1 $-1 -57.150000000000034 -135.25500000000002 -44.449999999999989 #
straight-curve $-1 -1 $-1 -57.150000000000034 0 -44.449999999999989 0 1 0 I I #
point $-1 -1 $-1 -57.150000000000034 135.25500000000002 -44.449999999999989 #
coedge $-1 -1 $-1 $540 $535 $531 $617 forward $528 $-1 #
edge $702 -1 $-1 $537 -29.210000000000008 $618 -26.669999999999931 $531 $703 forward @7 unknown #
vertex $-1 -1 $-1 $544 $704 #
straight-curve $-1 -1 $-1 54.609999999999957 -135.255 34.290000000000077 0 0 1 I I #
point $-1 -1 $-1 54.609999999999957 -135.255 44.450000000000159 #
convexity-sys-attrib $-1 -1 $-1 $-1 $536 #
straight-curve $-1 -1 $-1 57.150000000000034 -60.007499999999993 34.29000000000002 0 -1 0 I I #
point $-1 -1 $-1 57.150000000000034 -135.25500000000002 34.29000000000002 #
convexity-sys-attrib $-1 -1 $-1 $-1 $544 #
straight-curve $-1 -1 $-1 54.609999999999957 -60.642499999999998 34.29000000000002 2.0148117786015144e-032 1 0 I I #
model_id-kcp-attrib $-1 -1 $-1 $-1 $548 1 1021487868 1021487868 23396353 10 #
face $705 -1 $-1 $706 $707 $13 $-1 $708 reversed single #
loop $-1 -1 $-1 $-1 $677 $548 #
plane-surface $-1 -1 $-1 558.79999999999995 33.019999999999996 548.63999999999987 0 1 0 0 0 25.399999999999999 forward_v I I I I #
loop $-1 -1 $-1 $-1 $709 $98 #
coedge $-1 -1 $-1 $710 $710 $656 $711 reversed $550 $-1 #
coedge $-1 -1 $-1 $712 $551 $713 $714 forward $445 $-1 #
coedge $-1 -1 $-1 $551 $687 $682 $715 forward $445 $-1 #
coedge $-1 -1 $-1 $678 $677 $551 $635 forward $628 $-1 #
edge $716 -1 $-1 $717 0 $718 0.39999999999999875 $551 $719 forward @7 unknown #
edge $720 -1 $-1 $598 0 $596 3.1415926535897931 $552 $721 forward @7 unknown #
attrib_edge_convexity-kcp-attrib $-1 -1 $722 $-1 $553 1 #
ellipse-curve $-1 -1 $-1 556.25999999999988 146.04999999999995 508 -1 0 0 0 6.3500000000000218 0 1 I I #
attrib_edge_convexity-kcp-attrib $-1 -1 $723 $-1 $554 1 #
ellipse-curve $-1 -1 $-1 556.25999999999988 95.25 508 -1 0 0 0 -6.3499999999999996 0 1 I I #
convexity-sys-attrib $-1 -1 $-1 $555 $448 #
coedge $-1 -1 $-1 $724 $725 $558 $643 reversed $726 $-1 #
edge $727 -1 $-1 $649 0 $648 3.1415926535897931 $558 $728 forward @7 unknown #
coedge $-1 -1 $-1 $729 $559 $725 $730 forward $646 $-1 #
coedge $-1 -1 $-1 $559 $729 $724 $731 reversed $646 $-1 #
loop $-1 -1 $-1 $-1 $644 $732 #
attrib_edge_convexity-kcp-attrib $-1 -1 $733 $-1 $560 1 #
vertex $-1 -1 $-1 $643 $734 #
vertex $-1 -1 $-1 $643 $735 #
ellipse-curve $-1 -1 $-1 558.79999999999995 15.239999999999998 533.39999999999998 -1 0 0 0 1.2699999999999982 0 1 I I #
coedge $-1 -1 $-1 $736 $561 $564 $658 forward $653 $-1 #
coedge $-1 -1 $-1 $561 $736 $563 $657 reversed $653 $-1 #
loop $-1 -1 $-1 $-1 $651 $737 #
attrib_edge_convexity-kcp-attrib $-1 -1 $738 $-1 $562 1 #
ellipse-curve $-1 -1 $-1 558.79999999999995 196.84999999999999 508 -1 0 0 0 -6.3500000000000218 0 1 I I #
coedge $-1 -1 $-1 $564 $563 $631 $711 forward $565 $-1 #
edge $-1 -1 $-1 $567 0 $739 0.10000000000000304 $652 $740 forward @7 unknown #
edge $-1 -1 $-1 $568 0 $741 0.10000000000000304 $651 $742 forward @7 unknown #
face $743 -1 $-1 $737 $565 $13 $-1 $744 reversed single #
convexity-sys-attrib $-1 -1 $-1 $566 $456 #
point $-1 -1 $-1 558.79999999999995 203.19999999999996 508 #
point $-1 -1 $-1 558.79999999999995 190.49999999999997 508 #
coedge $-1 -1 $-1 $745 $746 $570 $664 forward $707 $-1 #
edge $747 -1 $-1 $680 0 $669 9.4500000000000011 $570 $748 forward @7 unknown #
coedge $-1 -1 $-1 $749 $571 $750 $751 forward $667 $-1 #
coedge $-1 -1 $-1 $571 $749 $752 $753 reversed $667 $-1 #
loop $-1 -1 $-1 $-1 $571 $754 #
attrib_edge_convexity-kcp-attrib $-1 -1 $755 $-1 $572 1 #
vertex $-1 -1 $-1 $664 $756 #
straight-curve $-1 -1 $-1 558.79999999999995 273.05000000000001 558.79999999999995 0 0 -25.399999999999999 I I #
coedge $-1 -1 $-1 $574 $573 $757 $758 forward $575 $-1 #
coedge $-1 -1 $-1 $759 $750 $574 $673 forward $760 $-1 #
edge $-1 -1 $-1 $577 0 $761 0.14142135623731386 $574 $762 forward @7 unknown #
face $763 -1 $-1 $590 $575 $13 $-1 $764 forward single #
convexity-sys-attrib $-1 -1 $-1 $576 $459 #
point $-1 -1 $-1 558.79999999999995 273.05000000000001 469.89999999999998 #
coedge $-1 -1 $-1 $634 $579 $746 $765 reversed $628 $-1 #
coedge $-1 -1 $-1 $579 $634 $581 $683 reversed $628 $-1 #
attrib_edge_convexity-kcp-attrib $-1 -1 $766 $-1 $580 1 #
vertex $-1 -1 $-1 $580 $767 #
straight-curve $-1 -1 $-1 558.79999999999995 33.019999999999996 558.79999999999995 0 0 -25.399999999999999 I I #
coedge $-1 -1 $-1 $582 $581 $633 $715 reversed $583 $-1 #
edge $768 -1 $-1 $585 0 $718 0.10000000000000304 $581 $769 forward @7 unknown #
face $770 -1 $-1 $771 $583 $13 $-1 $772 reversed single #
convexity-sys-attrib $-1 -1 $-1 $584 $462 #
point $-1 -1 $-1 558.79999999999995 33.019999999999996 548.63999999999999 #
coedge $-1 -1 $-1 $633 $757 $587 $688 reversed $445 $-1 #
edge $773 -1 $-1 $690 0 $693 3.1000000000000005 $587 $774 forward @7 unknown #
attrib_edge_convexity-kcp-attrib $-1 -1 $775 $-1 $588 1 #
vertex $-1 -1 $-1 $588 $776 #
straight-curve $-1 -1 $-1 556.25999999999988 2.5399999999999996 548.63999999999987 25.399999999999999 0 0 I I #
attrib_edge_convexity-kcp-attrib $-1 -1 $777 $-1 $589 1 #
vertex $-1 -1 $-1 $758 $778 #
straight-curve $-1 -1 $-1 558.79999999999995 2.5399999999999907 469.89999999999998 -25.399999999999999 0 0 I I #
model_id-kcp-attrib $-1 -1 $-1 $-1 $590 1 1021487868 1021487868 23396353 16 #
plane-surface $-1 -1 $-1 557.52999999999997 2.5399999999999996 514.35000000000002 0 -1 0 0 0 -25.399999999999999 forward_v I I I I #
point $-1 -1 $-1 556.25999999999988 152.39999999999998 508 #
point $-1 -1 $-1 556.25999999999988 139.69999999999996 508 #
convexity-sys-attrib $-1 -1 $-1 $-1 $603 #
straight-curve $-1 -1 $-1 54.609999999999957 -0.63500000000000512 -44.449999999999989 0 1 0 I I #
point $-1 -1 $-1 54.609999999999957 132.71499999999995 -44.449999999999932 #
convexity-sys-attrib $-1 -1 $-1 $-1 $617 #
straight-curve $-1 -1 $-1 27.940000000000026 -135.25500000000002 34.29000000000002 -1 0 0 I I #
point $-1 -1 $-1 54.609999999999957 -135.255 34.290000000000077 #
model_id-kcp-attrib $-1 -1 $-1 $-1 $627 1 1021487868 1021487868 23396353 11 #
face $779 -1 $-1 $780 $781 $13 $-1 $782 reversed single #
loop $-1 -1 $-1 $-1 $663 $627 #
plane-surface $-1 -1 $-1 557.52999999999997 137.15999999999997 558.79999999999995 0 0 -1 0 25.399999999999999 0 forward_v I I I I #
coedge $-1 -1 $-1 $783 $783 $729 $784 reversed $630 $-1 #
coedge $-1 -1 $-1 $631 $631 $736 $785 reversed $550 $-1 #
edge $786 -1 $-1 $739 0 $741 3.1415926535897931 $631 $787 forward @7 unknown #
coedge $-1 -1 $-1 $757 $632 $788 $789 forward $445 $-1 #
coedge $-1 -1 $-1 $746 $745 $632 $714 reversed $707 $-1 #
edge $790 -1 $-1 $717 0 $791 9.3500000000000014 $713 $792 forward @7 unknown #
edge $793 -1 $-1 $690 0 $718 1.2 $633 $794 forward @7 unknown #
attrib_edge_convexity-kcp-attrib $-1 -1 $795 $-1 $635 1 #
vertex $-1 -1 $-1 $765 $796 #
vertex $-1 -1 $-1 $715 $797 #
straight-curve $-1 -1 $-1 556.25999999999988 33.019999999999996 558.79999999999995 0 0 -25.399999999999999 I I #
attrib_edge_convexity-kcp-attrib $-1 -1 $798 $-1 $636 1 #
ellipse-curve $-1 -1 $-1 556.25999999999988 146.04999999999995 508 -1 0 0 0 -6.3499999999999774 0 1 I I #
convexity-sys-attrib $-1 -1 $-1 $637 $553 #
convexity-sys-attrib $-1 -1 $-1 $639 $554 #
coedge $-1 -1 $-1 $799 $642 $645 $731 forward $726 $-1 #
coedge $-1 -1 $-1 $642 $799 $644 $730 reversed $726 $-1 #
loop $-1 -1 $-1 $-1 $724 $800 #
attrib_edge_convexity-kcp-attrib $-1 -1 $801 $-1 $643 1 #
ellipse-curve $-1 -1 $-1 558.79999999999995 15.239999999999998 533.39999999999998 -1 0 0 0 -1.2700000000000011 0 1 I I #
coedge $-1 -1 $-1 $645 $644 $709 $784 forward $646 $-1 #
edge $-1 -1 $-1 $648 0 $802 0.10000000000000304 $725 $803 forward @7 unknown #
edge $-1 -1 $-1 $649 0 $804 0.10000000000000304 $724 $805 forward @7 unknown #
face $806 -1 $-1 $800 $646 $13 $-1 $807 reversed single #
convexity-sys-attrib $-1 -1 $-1 $647 $560 #
point $-1 -1 $-1 558.79999999999995 16.509999999999998 533.39999999999998 #
point $-1 -1 $-1 558.79999999999995 13.969999999999997 533.39999999999998 #
coedge $-1 -1 $-1 $652 $651 $710 $785 forward $653 $-1 #
face $808 -1 $-1 $732 $653 $13 $-1 $809 reversed single #
convexity-sys-attrib $-1 -1 $-1 $654 $562 #
vertex $-1 -1 $-1 $785 $810 #
straight-curve $-1 -1 $-1 558.79999999999995 203.19999999999999 508 -25.399999999999999 0 0 I I #
vertex $-1 -1 $-1 $785 $811 #
straight-curve $-1 -1 $-1 558.79999999999995 190.5 508 -25.399999999999999 0 0 I I #
model_id-kcp-attrib $-1 -1 $-1 $-1 $659 1 1021487868 1021487868 23396353 20 #
cone-surface $-1 -1 $-1 558.79999999999995 196.84999999999999 508 -1 0 0 0 -6.3499999999999996 0 1 I I 0 1 6.3499999999999996 forward I I I I #
coedge $-1 -1 $-1 $713 $663 $812 $813 forward $707 $-1 #
coedge $-1 -1 $-1 $663 $713 $677 $765 forward $707 $-1 #
attrib_edge_convexity-kcp-attrib $-1 -1 $814 $-1 $664 1 #
straight-curve $-1 -1 $-1 558.79999999999995 33.019999999999996 558.79999999999995 0 25.399999999999999 0 I I #
coedge $-1 -1 $-1 $666 $665 $815 $816 reversed $667 $-1 #
coedge $-1 -1 $-1 $672 $817 $665 $751 reversed $760 $-1 #
edge $-1 -1 $-1 $577 -4.4758597528195287e-015 $818 4.4999999999999938 $665 $819 forward @7 unknown #
coedge $-1 -1 $-1 $820 $812 $666 $753 forward $781 $-1 #
edge $-1 -1 $-1 $669 0 $821 4.4999999999999982 $666 $822 forward @7 unknown #
face $823 -1 $-1 $659 $667 $13 $-1 $824 forward single #
convexity-sys-attrib $-1 -1 $-1 $668 $572 #
point $-1 -1 $-1 558.79999999999984 273.05000000000001 558.79999999999995 #
coedge $-1 -1 $-1 $687 $712 $671 $758 reversed $445 $-1 #
edge $825 -1 $-1 $693 0 $761 10.549999999999999 $671 $826 forward @7 unknown #
coedge $-1 -1 $-1 $817 $672 $827 $828 forward $760 $-1 #
loop $-1 -1 $-1 $-1 $672 $829 #
vertex $-1 -1 $-1 $673 $830 #
straight-curve $-1 -1 $-1 558.79999999999995 273.05000000000001 469.89999999999998 -17.960512242138304 -17.960512242138304 0 I I #
model_id-kcp-attrib $-1 -1 $-1 $-1 $674 1 1021487868 1021487868 23396353 15 #
plane-surface $-1 -1 $-1 557.52999999999997 137.15999999999997 469.89999999999998 0 0 -1 0 25.399999999999999 0 forward_v I I I I #
edge $831 -1 $-1 $717 0 $680 0.10000000000000304 $746 $832 forward @7 unknown #
convexity-sys-attrib $-1 -1 $-1 $679 $580 #
point $-1 -1 $-1 558.79999999999995 33.019999999999996 558.79999999999995 #
attrib_edge_convexity-kcp-attrib $-1 -1 $833 $-1 $683 2 #
straight-curve $-1 -1 $-1 558.79999999999995 33.019999999999996 548.63999999999987 -25.399999999999999 0 0 I I #
model_id-kcp-attrib $-1 -1 $-1 $-1 $684 1 1021487868 1021487868 23396353 17 #
face $834 -1 $-1 $754 $835 $13 $-1 $836 reversed single #
plane-surface $-1 -1 $-1 558.79999999999995 2.5399999999999996 548.63999999999987 0 0 -1 0 25.399999999999999 0 forward_v I I I I #
attrib_edge_convexity-kcp-attrib $-1 -1 $837 $-1 $688 1 #
straight-curve $-1 -1 $-1 556.25999999999988 2.5399999999999996 548.63999999999999 0 0 -25.399999999999999 I I #
convexity-sys-attrib $-1 -1 $-1 $689 $588 #
point $-1 -1 $-1 556.25999999999988 2.5399999999999996 548.63999999999999 #
convexity-sys-attrib $-1 -1 $-1 $692 $589 #
point $-1 -1 $-1 556.25999999999988 2.5399999999999907 469.89999999999998 #
model_id-kcp-attrib $-1 -1 $-1 $-1 $706 1 1021487868 1021487868 23396353 12 #
face $838 -1 $-1 $829 $839 $13 $-1 $840 reversed single #
loop $-1 -1 $-1 $-1 $820 $706 #
plane-surface $-1 -1 $-1 501.01499999999993 271.77999999999997 558.79999999999995 0 0 -1 -25.399999999999999 0 0 forward_v I I I I #
coedge $-1 -1 $-1 $709 $709 $799 $841 reversed $630 $-1 #
edge $842 -1 $-1 $802 1.8462921480380397e-014 $804 3.1415926535896328 $709 $843 forward @7 unknown #
edge $844 -1 $-1 $741 0 $739 3.1415926535897931 $710 $845 forward @7 unknown #
attrib_edge_convexity-kcp-attrib $-1 -1 $846 $-1 $711 1 #
ellipse-curve $-1 -1 $-1 556.25999999999988 196.84999999999994 508 -1 0 0 0 6.3500000000000218 0 1 I I #
coedge $-1 -1 $-1 $847 $827 $712 $789 reversed $835 $-1 #
edge $848 -1 $-1 $791 0 $761 3.4999999999999991 $712 $849 forward @7 unknown #
attrib_edge_convexity-kcp-attrib $-1 -1 $850 $-1 $714 1 #
vertex $-1 -1 $-1 $714 $851 #
straight-curve $-1 -1 $-1 556.25999999999988 33.019999999999996 558.79999999999995 0 25.399999999999999 0 I I #
attrib_edge_convexity-kcp-attrib $-1 -1 $852 $-1 $715 1 #
straight-curve $-1 -1 $-1 556.25999999999988 2.5399999999999996 548.63999999999987 0 25.399999999999999 0 I I #
convexity-sys-attrib $-1 -1 $-1 $716 $635 #
point $-1 -1 $-1 556.25999999999988 33.019999999999996 558.79999999999995 #
point $-1 -1 $-1 556.25999999999988 33.019999999999996 548.63999999999999 #
convexity-sys-attrib $-1 -1 $-1 $720 $636 #
coedge $-1 -1 $-1 $725 $724 $783 $841 forward $726 $-1 #
face $853 -1 $-1 $-1 $726 $13 $-1 $854 reversed single #
convexity-sys-attrib $-1 -1 $-1 $727 $643 #
vertex $-1 -1 $-1 $841 $855 #
straight-curve $-1 -1 $-1 558.79999999999995 16.509999999999998 533.39999999999998 -25.399999999999999 0 0 I I #
vertex $-1 -1 $-1 $841 $856 #
straight-curve $-1 -1 $-1 558.79999999999995 13.969999999999997 533.39999999999998 -25.399999999999999 0 0 I I #
model_id-kcp-attrib $-1 -1 $-1 $-1 $732 1 1021487868 1021487868 23396353 22 #
cone-surface $-1 -1 $-1 558.79999999999995 15.239999999999998 533.39999999999998 -1 0 0 0 -1.2699999999999998 0 1 I I 0 1 1.2699999999999998 forward I I I I #
model_id-kcp-attrib $-1 -1 $-1 $-1 $737 1 1021487868 1021487868 23396353 21 #
cone-surface $-1 -1 $-1 558.79999999999995 196.84999999999999 508 -1 0 0 0 -6.3499999999999996 0 1 I I 0 1 6.3499999999999996 forward I I I I #
point $-1 -1 $-1 556.25999999999988 203.19999999999996 508 #
point $-1 -1 $-1 556.25999999999988 190.49999999999997 508 #
coedge $-1 -1 $-1 $752 $857 $745 $813 reversed $781 $-1 #
edge $-1 -1 $-1 $669 0 $791 0.14142135623730906 $745 $858 forward @7 unknown #
convexity-sys-attrib $-1 -1 $-1 $747 $664 #
coedge $-1 -1 $-1 $859 $860 $749 $816 forward $839 $-1 #
edge $-1 -1 $-1 $821 0 $818 3.4999999999999991 $749 $861 forward @7 unknown #
coedge $-1 -1 $-1 $750 $759 $859 $862 reversed $760 $-1 #
vertex $-1 -1 $-1 $816 $863 #
straight-curve $-1 -1 $-1 558.79999999999984 273.05000000000001 469.89999999999998 -25.399999999999999 0 0 I I #
coedge $-1 -1 $-1 $857 $752 $860 $864 forward $781 $-1 #
vertex $-1 -1 $-1 $753 $865 #
straight-curve $-1 -1 $-1 558.79999999999984 273.05000000000001 558.79999999999995 -25.399999999999999 0 0 I I #
model_id-kcp-attrib $-1 -1 $-1 $-1 $754 1 1021487868 1021487868 23396353 19 #
plane-surface $-1 -1 $-1 558.79999999999995 273.05000000000001 558.79999999999995 0 1 0 -25.399999999999999 0 0 forward_v I I I I #
attrib_edge_convexity-kcp-attrib $-1 -1 $866 $-1 $758 1 #
straight-curve $-1 -1 $-1 556.25999999999988 2.5399999999999907 469.89999999999998 0 25.399999999999999 0 I I #
coedge $-1 -1 $-1 $788 $867 $759 $828 reversed $835 $-1 #
edge $868 -1 $-1 $761 0 $869 4.3999999999999995 $759 $870 forward @7 unknown #
face $871 -1 $-1 $674 $760 $13 $-1 $872 forward single #
point $-1 -1 $-1 556.25999999999988 270.50999999999993 469.89999999999998 #
attrib_edge_convexity-kcp-attrib $-1 -1 $873 $-1 $765 1 #
straight-curve $-1 -1 $-1 556.25999999999988 33.019999999999996 558.79999999999995 25.399999999999999 0 0 I I #
convexity-sys-attrib $-1 -1 $-1 $768 $683 #
model_id-kcp-attrib $-1 -1 $-1 $-1 $771 1 1021487868 1021487868 23396353 18 #
loop $-1 -1 $-1 $-1 $867 $771 #
plane-surface $-1 -1 $-1 558.79999999999995 270.50999999999993 558.79999999999995 0 1 0 -25.399999999999999 0 0 forward_v I I I I #
convexity-sys-attrib $-1 -1 $-1 $773 $688 #
model_id-kcp-attrib $-1 -1 $-1 $-1 $780 1 1021487868 1021487868 23396353 13 #
loop $-1 -1 $-1 $-1 $859 $780 #
plane-surface $-1 -1 $-1 444.5 271.77999999999997 514.35000000000002 1 0 0 0 0 -25.399999999999999 forward_v I I I I #
edge $874 -1 $-1 $804 1.8462921480380624e-014 $802 3.1415926535896328 $783 $875 forward @7 unknown #
attrib_edge_convexity-kcp-attrib $-1 -1 $876 $-1 $784 1 #
ellipse-curve $-1 -1 $-1 556.25999999999988 15.239999999999995 533.40000000000009 -1 0 0 0 1.2700000000000011 -9.0238927441532719e-014 1 I I #
attrib_edge_convexity-kcp-attrib $-1 -1 $877 $-1 $785 1 #
ellipse-curve $-1 -1 $-1 556.25999999999988 196.84999999999994 508 -1 0 0 0 -6.3499999999999774 0 1 I I #
convexity-sys-attrib $-1 -1 $-1 $786 $711 #
coedge $-1 -1 $-1 $867 $788 $857 $878 forward $835 $-1 #
attrib_edge_convexity-kcp-attrib $-1 -1 $879 $-1 $789 2 #
straight-curve $-1 -1 $-1 556.25999999999988 270.50999999999993 558.79999999999995 0 0 -25.399999999999999 I I #
convexity-sys-attrib $-1 -1 $-1 $790 $714 #
point $-1 -1 $-1 556.25999999999988 270.50999999999999 558.79999999999995 #
convexity-sys-attrib $-1 -1 $-1 $793 $715 #
model_id-kcp-attrib $-1 -1 $-1 $-1 $800 1 1021487868 1021487868 23396353 23 #
cone-surface $-1 -1 $-1 558.79999999999995 15.239999999999998 533.39999999999998 -1 0 0 0 -1.2699999999999998 0 1 I I 0 1 1.2699999999999998 forward I I I I #
point $-1 -1 $-1 556.25999999999988 16.509999999999998 533.39999999999998 #
point $-1 -1 $-1 556.25999999999988 13.969999999999997 533.39999999999998 #
coedge $-1 -1 $-1 $812 $820 $847 $878 reversed $781 $-1 #
straight-curve $-1 -1 $-1 558.79999999999984 273.05000000000001 558.79999999999995 -17.960512242138147 -17.960512242138464 0 I I #
coedge $-1 -1 $-1 $880 $815 $817 $862 forward $839 $-1 #
coedge $-1 -1 $-1 $815 $880 $820 $864 reversed $839 $-1 #
straight-curve $-1 -1 $-1 444.5 273.05000000000001 558.79999999999995 0 0 -25.399999999999999 I I #
edge $-1 -1 $-1 $818 0 $869 0.10000000000000081 $859 $881 forward @7 unknown #
point $-1 -1 $-1 444.5 273.05000000000001 469.89999999999998 #
edge $-1 -1 $-1 $821 0 $882 0.10000000000000081 $820 $883 forward @7 unknown #
point $-1 -1 $-1 444.49999999999989 273.05000000000001 558.79999999999995 #
convexity-sys-attrib $-1 -1 $-1 $825 $758 #
coedge $-1 -1 $-1 $827 $847 $880 $884 forward $835 $-1 #
attrib_edge_convexity-kcp-attrib $-1 -1 $885 $-1 $828 1 #
vertex $-1 -1 $-1 $884 $886 #
straight-curve $-1 -1 $-1 556.25999999999988 270.50999999999993 469.89999999999998 -25.399999999999999 0 0 I I #
model_id-kcp-attrib $-1 -1 $-1 $-1 $829 1 1021487868 1021487868 23396353 14 #
plane-surface $-1 -1 $-1 501.01499999999993 271.77999999999997 469.89999999999998 0 0 -1 -25.399999999999999 0 0 forward_v I I I I #
convexity-sys-attrib $-1 -1 $-1 $831 $765 #
attrib_edge_convexity-kcp-attrib $-1 -1 $887 $-1 $841 1 #
ellipse-curve $-1 -1 $-1 556.25999999999988 15.239999999999995 533.39999999999986 -1 0 0 0 -1.2699999999999982 9.0238927441532719e-014 1 I I #
convexity-sys-attrib $-1 -1 $-1 $842 $784 #
convexity-sys-attrib $-1 -1 $-1 $844 $785 #
edge $888 -1 $-1 $791 0 $882 4.3999999999999995 $857 $889 forward @7 unknown #
convexity-sys-attrib $-1 -1 $-1 $848 $789 #
coedge $-1 -1 $-1 $860 $859 $867 $884 reversed $839 $-1 #
straight-curve $-1 -1 $-1 444.5 273.05000000000001 469.89999999999998 0 -25.399999999999999 0 I I #
vertex $-1 -1 $-1 $878 $890 #
straight-curve $-1 -1 $-1 444.5 273.05000000000001 558.79999999999995 0 -25.399999999999999 0 I I #
edge $891 -1 $-1 $882 0 $869 3.4999999999999991 $880 $892 forward @7 unknown #
convexity-sys-attrib $-1 -1 $-1 $868 $828 #
point $-1 -1 $-1 444.49999999999989 270.50999999999999 469.89999999999998 #
convexity-sys-attrib $-1 -1 $-1 $874 $841 #
attrib_edge_convexity-kcp-attrib $-1 -1 $893 $-1 $878 1 #
straight-curve $-1 -1 $-1 556.25999999999988 270.50999999999993 558.79999999999995 -25.399999999999999 0 0 I I #
point $-1 -1 $-1 444.49999999999989 270.50999999999999 558.79999999999995 #
attrib_edge_convexity-kcp-attrib $-1 -1 $894 $-1 $884 1 #
straight-curve $-1 -1 $-1 444.5 270.50999999999993 558.79999999999995 0 0 -25.399999999999999 I I #
convexity-sys-attrib $-1 -1 $-1 $888 $878 #
convexity-sys-attrib $-1 -1 $-1 $891 $884 #
End-of-ACIS-data 