600 0 1 0           
93 GICL Pro/E ACIS Translator - Source: f:/data5/repository/PTC/V18/process18/st13-398.prt - 6 0 13 ACIS 6.0.3 NT 24 Thu Apr 04 13:31:10 2002 
1 9.9999999999999995e-007 1e-010 
body $-1 $1 $-1 $2 #
lump $-1 $-1 $3 $0 #
transform $-1 1 0 0 0 1 0 0 0 1 0 0 0 25.399999999999999 no_rotate no_reflect no_shear #
shell $-1 $-1 $-1 $4 $-1 $1 #
face $-1 $5 $6 $3 $-1 $7 reversed single #
face $-1 $8 $9 $3 $-1 $10 reversed single #
loop $-1 $11 $12 $4 #
plane-surface $-1 4.3399999999999999 0 0 1 0 0 0 0 -1 forward_v I I I I #
face $-1 $13 $14 $3 $-1 $15 reversed single #
loop $-1 $-1 $16 $5 #
cone-surface $-1 5.3399999999999999 12.5 7.75 -1 0 0 0 -0.049999999999999996 0 1 I I 0 1 0.049999999999999996 forward I I I I #
loop $-1 $17 $18 $4 #
coedge $-1 $19 $19 $20 $21 reversed $6 $-1 #
face $-1 $22 $23 $3 $-1 $24 forward single #
loop $-1 $-1 $25 $8 #
cone-surface $-1 5.3399999999999999 12.5 7.75 -1 0 0 0 -0.049999999999999996 0 1 I I 0 1 0.049999999999999996 forward I I I I #
coedge $-1 $26 $20 $27 $28 reversed $9 $-1 #
loop $-1 $29 $30 $4 #
coedge $-1 $31 $31 $32 $33 reversed $11 $-1 #
coedge $-1 $12 $12 $34 $35 reversed $6 $-1 #
coedge $-1 $16 $36 $12 $21 forward $9 $-1 #
edge $-1 $37 0 $38 3.1415926535898997 $12 $39 forward 7 unknown #
face $-1 $40 $41 $3 $-1 $42 reversed single #
loop $-1 $43 $44 $13 #
plane-surface $-1 5.3399999999999999 0 0 1 0 0 0 0 -1 forward_v I I I I #
coedge $-1 $45 $34 $36 $46 reversed $14 $-1 #
coedge $-1 $36 $16 $44 $47 reversed $9 $-1 #
coedge $-1 $34 $45 $16 $28 forward $14 $-1 #
edge $-1 $48 0 $38 1 $27 $49 forward 7 unknown #
loop $-1 $50 $51 $4 #
coedge $-1 $52 $52 $53 $54 reversed $17 $-1 #
coedge $-1 $18 $18 $55 $56 reversed $11 $-1 #
coedge $-1 $57 $58 $18 $33 forward $41 $-1 #
edge $-1 $59 0 $60 3.1415926535898109 $18 $61 forward 7 unknown #
coedge $-1 $25 $27 $19 $35 forward $14 $-1 #
edge $-1 $38 0 $37 3.1415926535897576 $19 $62 forward 7 unknown #
coedge $-1 $20 $26 $25 $46 forward $9 $-1 #
vertex $-1 $35 $63 #
vertex $-1 $35 $64 #
ellipse-curve $-1 4.3399999999999999 12.5 7.7499999999999973 -1 0 0 0 0.049999999999998934 2.6645352591003757e-015 1 I I #
face $-1 $65 $66 $3 $-1 $67 reversed single #
loop $-1 $-1 $57 $22 #
cone-surface $-1 5.3399999999999999 7 2.25 -1 0 0 0 -0.049999999999999996 0 1 I I 0 1 0.049999999999999996 forward I I I I #
loop $-1 $68 $69 $13 #
coedge $-1 $70 $70 $26 $47 forward $23 $-1 #
coedge $-1 $27 $25 $70 $71 reversed $14 $-1 #
edge $-1 $72 0 $37 1 $25 $73 forward 7 unknown #
edge $-1 $72 0 $48 3.1415926535897931 $44 $74 forward 7 unknown #
vertex $-1 $71 $75 #
straight-curve $-1 5.3399999999999999 12.449999999999999 7.75 -1 0 0 I I #
loop $-1 $76 $77 $4 #
coedge $-1 $78 $78 $79 $80 reversed $29 $-1 #
coedge $-1 $30 $30 $81 $82 reversed $17 $-1 #
coedge $-1 $83 $84 $30 $54 forward $85 $-1 #
edge $-1 $86 0 $87 3.1415926535897576 $30 $88 forward 7 unknown #
coedge $-1 $89 $90 $31 $56 forward $66 $-1 #
edge $-1 $60 0 $59 3.1415926535897931 $31 $91 forward 7 unknown #
coedge $-1 $92 $32 $90 $93 reversed $41 $-1 #
coedge $-1 $32 $92 $89 $94 forward $41 $-1 #
vertex $-1 $56 $95 #
vertex $-1 $56 $96 #
ellipse-curve $-1 4.3399999999999999 7 2.2499999999999996 -1 0 0 0 0.049999999999999822 4.4408920985006262e-016 1 I I #
ellipse-curve $-1 4.3399999999999999 12.499999999999998 7.7499999999999991 -1 0 0 0 -0.049999999999998934 8.8817841970012523e-016 1 I I #
point $-1 4.3399999999999999 12.549999999999999 7.75 #
point $-1 4.3399999999999999 12.449999999999999 7.75 #
face $-1 $97 $85 $3 $-1 $98 reversed single #
loop $-1 $-1 $89 $40 #
cone-surface $-1 5.3399999999999999 7 2.25 -1 0 0 0 -0.049999999999999996 0 1 I I 0 1 0.049999999999999996 forward I I I I #
loop $-1 $99 $100 $13 #
coedge $-1 $101 $101 $92 $102 forward $43 $-1 #
coedge $-1 $44 $44 $45 $71 forward $23 $-1 #
edge $-1 $48 0 $72 3.1415926535897931 $70 $103 forward 7 unknown #
vertex $-1 $71 $104 #
straight-curve $-1 5.3399999999999999 12.550000000000001 7.75 -1 0 0 I I #
ellipse-curve $-1 5.3399999999999999 12.5 7.75 -1 0 0 0 0.049999999999998934 0 1 I I #
point $-1 5.3399999999999999 12.449999999999999 7.75 #
loop $-1 $105 $106 $4 #
coedge $-1 $107 $108 $109 $110 reversed $50 $-1 #
coedge $-1 $51 $51 $111 $112 reversed $29 $-1 #
coedge $-1 $113 $114 $51 $80 forward $115 $-1 #
edge $-1 $116 0 $117 3.1415926535897931 $51 $118 forward 7 unknown #
coedge $-1 $119 $120 $52 $82 forward $121 $-1 #
edge $-1 $87 0 $86 3.1415926535898642 $52 $122 forward 7 unknown #
coedge $-1 $123 $53 $120 $124 reversed $85 $-1 #
coedge $-1 $53 $123 $119 $125 forward $85 $-1 #
loop $-1 $-1 $83 $65 #
vertex $-1 $82 $126 #
vertex $-1 $82 $127 #
ellipse-curve $-1 4.3399999999999999 1.5 7.7500000000000009 -1 0 0 0 0.049999999999999822 -8.8817841970012523e-016 1 I I #
coedge $-1 $128 $55 $58 $94 reversed $66 $-1 #
coedge $-1 $55 $128 $57 $93 forward $66 $-1 #
ellipse-curve $-1 4.3399999999999999 7 2.25 -1 0 0 0 -0.050000000000000711 0 1 I I #
coedge $-1 $58 $57 $69 $102 reversed $41 $-1 #
edge $-1 $129 0 $60 1 $90 $130 forward 7 unknown #
edge $-1 $131 0 $59 1 $89 $132 forward 7 unknown #
point $-1 4.3399999999999999 7.0499999999999998 2.25 #
point $-1 4.3399999999999999 6.9499999999999993 2.25 #
face $-1 $133 $121 $3 $-1 $134 reversed single #
cone-surface $-1 5.3399999999999999 1.5 7.75 -1 0 0 0 -0.049999999999999996 0 1 I I 0 1 0.049999999999999996 forward I I I I #
loop $-1 $135 $136 $13 #
coedge $-1 $137 $137 $123 $138 forward $68 $-1 #
coedge $-1 $69 $69 $128 $139 forward $43 $-1 #
edge $-1 $131 0 $129 3.1415926535897931 $69 $140 forward 7 unknown #
ellipse-curve $-1 5.3399999999999999 12.5 7.75 -1 0 0 0 -0.050000000000000711 0 1 I I #
point $-1 5.3399999999999999 12.549999999999999 7.75 #
loop $-1 $141 $142 $4 #
coedge $-1 $143 $144 $145 $146 forward $76 $-1 #
coedge $-1 $147 $77 $148 $149 forward $50 $-1 #
coedge $-1 $77 $150 $151 $152 forward $50 $-1 #
coedge $-1 $153 $154 $77 $110 forward $155 $-1 #
edge $-1 $156 0 $157 1.6709637479564576 $77 $158 forward 7 unknown #
coedge $-1 $159 $160 $78 $112 forward $161 $-1 #
edge $-1 $117 0 $116 3.1415926535897931 $78 $162 forward 7 unknown #
coedge $-1 $163 $79 $160 $164 forward $115 $-1 #
coedge $-1 $79 $163 $159 $165 reversed $115 $-1 #
loop $-1 $-1 $113 $133 #
vertex $-1 $112 $166 #
vertex $-1 $112 $167 #
ellipse-curve $-1 4.3399999999999999 7 7.75 1 0 0 0 0 5.75 1 I I #
coedge $-1 $168 $81 $84 $125 reversed $121 $-1 #
coedge $-1 $81 $168 $83 $124 forward $121 $-1 #
loop $-1 $-1 $119 $97 #
ellipse-curve $-1 4.3399999999999999 1.5 7.7500000000000018 -1 0 0 0 -0.050000000000000044 -1.7763568394002505e-015 1 I I #
coedge $-1 $84 $83 $100 $138 reversed $85 $-1 #
edge $-1 $169 0 $87 1 $120 $170 forward 7 unknown #
edge $-1 $171 0 $86 1 $119 $172 forward 7 unknown #
point $-1 4.3399999999999999 1.5499999999999998 7.75 #
point $-1 4.3399999999999999 1.45 7.75 #
coedge $-1 $90 $89 $101 $139 reversed $66 $-1 #
vertex $-1 $139 $173 #
straight-curve $-1 5.3399999999999999 6.9500000000000002 2.25 -1 0 0 I I #
vertex $-1 $139 $174 #
straight-curve $-1 5.3399999999999999 7.0499999999999998 2.25 -1 0 0 I I #
face $-1 $175 $115 $3 $-1 $176 forward single #
cone-surface $-1 5.3399999999999999 1.5 7.75 -1 0 0 0 -0.049999999999999996 0 1 I I 0 1 0.049999999999999996 forward I I I I #
loop $-1 $177 $178 $13 #
coedge $-1 $179 $179 $163 $180 forward $99 $-1 #
coedge $-1 $100 $100 $168 $181 forward $68 $-1 #
edge $-1 $171 0 $169 3.1415926535897931 $100 $182 forward 7 unknown #
edge $-1 $129 0 $131 3.1415926535897931 $101 $183 forward 7 unknown #
ellipse-curve $-1 5.3399999999999999 7 2.25 -1 0 0 0 0.049999999999999822 0 1 I I #
loop $-1 $184 $185 $4 #
coedge $-1 $186 $187 $188 $189 forward $105 $-1 #
coedge $-1 $190 $106 $191 $192 reversed $76 $-1 #
coedge $-1 $106 $193 $194 $195 reversed $76 $-1 #
coedge $-1 $196 $197 $106 $146 reversed $198 $-1 #
edge $-1 $199 3.5388358909926754e-015 $200 1.6709637479564594 $106 $201 forward 7 unknown #
coedge $-1 $202 $107 $203 $204 reversed $50 $-1 #
coedge $-1 $205 $206 $107 $149 reversed $207 $-1 #
edge $-1 $156 0 $208 3.0384455124293908 $107 $209 forward 7 unknown #
coedge $-1 $108 $210 $211 $212 reversed $50 $-1 #
coedge $-1 $213 $214 $108 $152 reversed $215 $-1 #
edge $-1 $216 0 $157 1.3704614844717782 $108 $217 forward 7 unknown #
coedge $-1 $218 $109 $214 $219 reversed $155 $-1 #
coedge $-1 $109 $218 $205 $220 forward $155 $-1 #
loop $-1 $-1 $109 $221 #
vertex $-1 $149 $222 #
vertex $-1 $152 $223 #
ellipse-curve $-1 4.3399999999999999 11.974937185533099 7.25 -1 0 0 0 0 0.25 1 I I #
coedge $-1 $224 $111 $114 $165 forward $161 $-1 #
coedge $-1 $111 $224 $113 $164 reversed $161 $-1 #
loop $-1 $-1 $159 $175 #
ellipse-curve $-1 4.3399999999999999 7 7.75 1 0 0 0 0 -5.75 1 I I #
coedge $-1 $114 $113 $136 $180 reversed $115 $-1 #
edge $-1 $117 0 $225 1 $160 $226 forward 7 unknown #
edge $-1 $116 0 $227 1 $159 $228 forward 7 unknown #
point $-1 4.3399999999999999 7 13.5 #
point $-1 4.3399999999999999 7 2 #
coedge $-1 $120 $119 $137 $181 reversed $121 $-1 #
vertex $-1 $181 $229 #
straight-curve $-1 5.3399999999999999 1.45 7.75 -1 0 0 I I #
vertex $-1 $181 $230 #
straight-curve $-1 5.3399999999999999 1.55 7.75 -1 0 0 I I #
point $-1 5.3399999999999999 6.9499999999999993 2.25 #
point $-1 5.3399999999999999 7.0499999999999998 2.25 #
face $-1 $231 $161 $3 $-1 $232 forward single #
cone-surface $-1 4.3399999999999999 7 7.75 1 0 0 0 0 -5.75 1 I I 0 1 5.75 forward I I I I #
loop $-1 $-1 $233 $13 #
coedge $-1 $234 $234 $235 $236 reversed $135 $-1 #
coedge $-1 $136 $136 $224 $237 forward $99 $-1 #
edge $-1 $227 0 $225 3.1415926535897931 $163 $238 forward 7 unknown #
edge $-1 $169 0 $171 3.1415926535897931 $137 $239 forward 7 unknown #
ellipse-curve $-1 5.3399999999999999 1.5 7.75 -1 0 0 0 0.049999999999999822 0 1 I I #
ellipse-curve $-1 5.3399999999999999 7 2.25 -1 0 0 0 -0.050000000000000711 0 1 I I #
loop $-1 $240 $241 $4 #
coedge $-1 $242 $243 $244 $245 reversed $141 $-1 #
coedge $-1 $246 $142 $247 $248 reversed $105 $-1 #
coedge $-1 $142 $249 $250 $251 reversed $105 $-1 #
coedge $-1 $252 $253 $142 $189 reversed $254 $-1 #
edge $-1 $255 3.538835890992578e-015 $256 1.6709637479564243 $142 $257 forward 7 unknown #
coedge $-1 $258 $143 $259 $260 forward $76 $-1 #
coedge $-1 $261 $262 $143 $192 forward $263 $-1 #
edge $-1 $264 0 $200 3.0384455124293908 $143 $265 forward 7 unknown #
coedge $-1 $144 $266 $267 $268 forward $76 $-1 #
coedge $-1 $269 $270 $144 $195 forward $271 $-1 #
edge $-1 $199 0 $272 1.3704614844717768 $144 $273 forward 7 unknown #
coedge $-1 $274 $145 $270 $275 reversed $198 $-1 #
coedge $-1 $145 $274 $261 $276 forward $198 $-1 #
loop $-1 $-1 $274 $277 #
vertex $-1 $195 $278 #
vertex $-1 $192 $279 #
ellipse-curve $-1 4.3399999999999999 6.5 2.7750628144669007 1 0 0 0 -0.025000000000001243 -0.2487468592766553 1 I I #
coedge $-1 $280 $147 $281 $282 reversed $50 $-1 #
coedge $-1 $283 $284 $147 $204 forward $285 $-1 #
edge $-1 $286 0 $208 1.3181160716528206 $147 $287 forward 7 unknown #
coedge $-1 $288 $148 $154 $220 reversed $207 $-1 #
coedge $-1 $148 $288 $283 $289 forward $207 $-1 #
loop $-1 $-1 $205 $290 #
vertex $-1 $204 $291 #
straight-curve $-1 4.3399999999999999 11.974937185533099 7.5 0 -1 0 I I #
coedge $-1 $150 $280 $292 $293 forward $50 $-1 #
coedge $-1 $294 $295 $150 $212 forward $296 $-1 #
edge $-1 $216 0 $297 1.6709637479564543 $150 $298 forward 7 unknown #
coedge $-1 $299 $151 $295 $300 reversed $215 $-1 #
coedge $-1 $151 $301 $153 $219 forward $215 $-1 #
loop $-1 $-1 $214 $302 #
vertex $-1 $152 $303 #
ellipse-curve $-1 4.3399999999999999 7.0000000000000036 7.7499999999999973 1 0 0 0 0.52499999999999591 -5.2236840448097519 1 I I #
coedge $-1 $154 $153 $304 $305 reversed $155 $-1 #
edge $-1 $306 0 $157 0.25 $214 $307 forward 7 unknown #
edge $-1 $308 0 $156 0.25 $205 $309 forward 7 unknown #
face $-1 $310 $155 $3 $-1 $311 reversed single #
point $-1 4.3399999999999999 11.974937185533099 7.5 #
point $-1 4.3399999999999999 12.223684044809755 7.2249999999999996 #
coedge $-1 $160 $159 $179 $237 reversed $161 $-1 #
vertex $-1 $164 $312 #
straight-curve $-1 4.3399999999999999 7 2 1 0 0 I I #
vertex $-1 $237 $313 #
straight-curve $-1 4.3399999999999999 7.0000000000000009 13.5 1 0 0 I I #
point $-1 5.3399999999999999 1.45 7.75 #
point $-1 5.3399999999999999 1.5499999999999998 7.75 #
face $-1 $302 $271 $3 $-1 $314 reversed single #
cone-surface $-1 4.3399999999999999 7 7.75 1 0 0 0 0 -5.75 1 I I 0 1 5.75 forward I I I I #
coedge $-1 $315 $315 $316 $317 forward $177 $-1 #
coedge $-1 $178 $178 $318 $319 reversed $135 $-1 #
coedge $-1 $320 $321 $178 $236 forward $271 $-1 #
edge $-1 $322 0 $323 3.1415926535897931 $235 $324 forward 7 unknown #
edge $-1 $225 0 $227 3.1415926535897931 $224 $325 forward 7 unknown #
ellipse-curve $-1 5.3399999999999999 7 7.75 1 0 0 0 0 5.75 1 I I #
ellipse-curve $-1 5.3399999999999999 1.5 7.75 -1 0 0 0 -0.050000000000000044 0 1 I I #
loop $-1 $-1 $326 $4 #
coedge $-1 $327 $327 $328 $329 reversed $184 $-1 #
coedge $-1 $330 $185 $331 $332 forward $141 $-1 #
coedge $-1 $185 $333 $334 $335 forward $141 $-1 #
coedge $-1 $336 $337 $185 $245 forward $338 $-1 #
edge $-1 $339 0 $340 1.6709637479564527 $185 $341 forward 7 unknown #
coedge $-1 $342 $186 $343 $344 forward $105 $-1 #
coedge $-1 $345 $346 $186 $248 forward $347 $-1 #
edge $-1 $348 0 $256 3.038445512429389 $186 $349 forward 7 unknown #
coedge $-1 $187 $350 $351 $352 forward $105 $-1 #
coedge $-1 $353 $354 $187 $251 forward $215 $-1 #
edge $-1 $255 0 $355 1.3704614844717786 $187 $356 forward 7 unknown #
coedge $-1 $357 $188 $354 $358 reversed $254 $-1 #
coedge $-1 $188 $357 $345 $359 forward $254 $-1 #
loop $-1 $-1 $357 $360 #
vertex $-1 $251 $361 #
vertex $-1 $248 $362 #
ellipse-curve $-1 4.3399999999999999 7.5000000000000044 12.724937185533095 1 0 0 0 0.024999999999995914 0.24874685927665929 1 I I #
coedge $-1 $363 $190 $364 $365 forward $76 $-1 #
coedge $-1 $366 $367 $190 $260 reversed $368 $-1 #
edge $-1 $264 0 $369 1.3181160716528277 $190 $370 forward 7 unknown #
coedge $-1 $371 $191 $197 $276 reversed $263 $-1 #
coedge $-1 $191 $371 $366 $372 forward $263 $-1 #
loop $-1 $-1 $261 $373 #
vertex $-1 $260 $374 #
straight-curve $-1 4.3399999999999999 6.75 5.813508326896291 0 0 -1 I I #
coedge $-1 $193 $363 $375 $376 reversed $76 $-1 #
coedge $-1 $377 $378 $193 $268 reversed $379 $-1 #
edge $-1 $380 0 $272 1.6709637479564632 $193 $381 forward 7 unknown #
coedge $-1 $382 $194 $378 $383 reversed $271 $-1 #
coedge $-1 $194 $384 $196 $275 forward $271 $-1 #
loop $-1 $-1 $321 $231 #
vertex $-1 $195 $385 #
ellipse-curve $-1 4.3399999999999999 7 7.75 -1 0 0 0 -0.52500000000000036 -5.2236840448097546 1 I I #
coedge $-1 $197 $196 $386 $387 forward $198 $-1 #
edge $-1 $388 0 $199 0.25 $270 $389 forward 7 unknown #
edge $-1 $390 0 $200 0.25 $261 $391 forward 7 unknown #
face $-1 $373 $198 $3 $-1 $392 reversed single #
point $-1 4.3399999999999999 6.4749999999999996 2.5263159551902454 #
point $-1 4.3399999999999999 6.75 2.7750628144669003 #
coedge $-1 $210 $202 $393 $394 reversed $50 $-1 #
coedge $-1 $395 $396 $202 $282 forward $397 $-1 #
edge $-1 $398 0 $286 1.0654358165107354 $202 $399 forward 7 unknown #
coedge $-1 $400 $203 $206 $289 reversed $285 $-1 #
coedge $-1 $203 $400 $395 $401 forward $285 $-1 #
loop $-1 $-1 $203 $402 #
vertex $-1 $282 $403 #
ellipse-curve $-1 4.3399999999999999 8.9364916731037081 7.2500000000000009 -1 0 0 0 -0.24206145913796284 0.062499999999999112 1 I I #
coedge $-1 $206 $205 $404 $405 forward $207 $-1 #
edge $-1 $406 0 $208 0.25 $206 $407 forward 7 unknown #
face $-1 $408 $207 $3 $-1 $409 reversed single #
point $-1 4.3399999999999999 8.9364916731037081 7.5 #
coedge $-1 $410 $411 $210 $293 reversed $412 $-1 #
edge $-1 $413 0 $297 3.0384455124293908 $210 $414 forward 7 unknown #
coedge $-1 $415 $211 $411 $416 reversed $296 $-1 #
coedge $-1 $211 $415 $213 $300 forward $296 $-1 #
loop $-1 $-1 $211 $417 #
vertex $-1 $212 $418 #
ellipse-curve $-1 4.3399999999999999 7.5 2.7750628144669003 -1 0 0 0 0.024999999999999467 -0.24874685927665485 1 I I #
coedge $-1 $419 $213 $420 $421 reversed $215 $-1 #
edge $-1 $422 0 $216 0.25 $213 $423 forward 7 unknown #
coedge $-1 $214 $353 $424 $425 reversed $215 $-1 #
face $-1 $221 $215 $3 $-1 $426 reversed single #
point $-1 4.3399999999999999 7.5249999999999995 2.5263159551902454 #
coedge $-1 $424 $404 $218 $305 forward $427 $-1 #
edge $-1 $308 0 $306 1.670963747956447 $304 $428 forward 7 unknown #
vertex $-1 $425 $429 #
straight-curve $-1 4.5899999999999999 12.223684044809755 7.2249999999999996 -1 0 0 I I #
vertex $-1 $305 $430 #
straight-curve $-1 4.5899999999999999 11.974937185533101 7.5 -1 -7.1054273576010019e-015 0 I I #
face $-1 $431 $427 $3 $-1 $432 forward single #
cone-surface $-1 4.5899999999999999 11.974937185533099 7.25 -1 0 0 0 1.7763568394002505e-015 0.25 1 I I 0 1 0.25 forward I I I I #
point $-1 5.3399999999999999 7 2 #
point $-1 5.3399999999999999 7 13.5 #
cone-surface $-1 5.3399999999999999 7 7.75 1 0 0 0 0 -5.25 1 I I 0 1 5.25 forward I I I I #
coedge $-1 $233 $233 $433 $434 forward $177 $-1 #
coedge $-1 $435 $436 $233 $317 reversed $437 $-1 #
edge $-1 $438 0 $439 3.1415926535897931 $233 $440 forward 7 unknown #
coedge $-1 $441 $419 $234 $319 forward $215 $-1 #
edge $-1 $323 0 $322 3.1415926535897931 $318 $442 forward 7 unknown #
coedge $-1 $384 $235 $419 $443 forward $271 $-1 #
coedge $-1 $235 $444 $441 $445 reversed $271 $-1 #
vertex $-1 $445 $446 #
vertex $-1 $319 $447 #
ellipse-curve $-1 5.3399999999999999 7 7.75 1 0 0 0 0 5.25 1 I I #
ellipse-curve $-1 5.3399999999999999 7 7.75 1 0 0 0 0 -5.75 1 I I #
coedge $-1 $448 $448 $449 $450 reversed $240 $-1 #
coedge $-1 $241 $241 $451 $452 reversed $184 $-1 #
coedge $-1 $453 $454 $241 $329 forward $455 $-1 #
edge $-1 $456 0 $457 3.1415926535897931 $241 $458 forward 7 unknown #
coedge $-1 $459 $242 $460 $461 reversed $141 $-1 #
coedge $-1 $462 $463 $242 $332 reversed $464 $-1 #
edge $-1 $339 0 $465 3.0384455124293916 $242 $466 forward 7 unknown #
coedge $-1 $243 $467 $468 $469 reversed $141 $-1 #
coedge $-1 $470 $471 $243 $335 reversed $271 $-1 #
edge $-1 $472 0 $340 1.3704614844717784 $243 $473 forward 7 unknown #
coedge $-1 $474 $244 $471 $475 reversed $338 $-1 #
coedge $-1 $244 $474 $462 $476 forward $338 $-1 #
loop $-1 $-1 $244 $477 #
vertex $-1 $332 $478 #
vertex $-1 $335 $479 #
ellipse-curve $-1 4.3399999999999999 2.0250628144668998 8.25 -1 0 0 0 4.4408920985006262e-016 -0.25 1 I I #
coedge $-1 $480 $246 $481 $482 forward $105 $-1 #
coedge $-1 $483 $484 $246 $344 reversed $485 $-1 #
edge $-1 $348 -7.1054273576011281e-015 $486 1.318116071652838 $246 $487 forward 7 unknown #
coedge $-1 $488 $247 $253 $359 reversed $347 $-1 #
coedge $-1 $247 $488 $483 $489 forward $347 $-1 #
loop $-1 $-1 $345 $490 #
vertex $-1 $344 $491 #
straight-curve $-1 4.3399999999999999 7.25 9.6864916731037098 0 0 1 I I #
coedge $-1 $249 $480 $492 $493 reversed $105 $-1 #
coedge $-1 $494 $495 $249 $352 reversed $496 $-1 #
edge $-1 $497 0 $355 1.6709637479564357 $249 $498 forward 7 unknown #
coedge $-1 $301 $250 $495 $499 reversed $215 $-1 #
coedge $-1 $250 $500 $252 $358 forward $215 $-1 #
vertex $-1 $251 $501 #
ellipse-curve $-1 4.3399999999999999 7.0000000000000036 7.7500000000000036 -1 0 0 0 0.52499999999999591 5.223684044809751 1 I I #
coedge $-1 $253 $252 $502 $503 forward $254 $-1 #
edge $-1 $504 0 $255 0.25 $354 $505 forward 7 unknown #
edge $-1 $506 0 $256 0.25 $345 $507 forward 7 unknown #
face $-1 $508 $254 $3 $-1 $509 reversed single #
point $-1 4.3399999999999999 7.5249999999999995 12.973684044809755 #
point $-1 4.3399999999999999 7.25 12.724937185533099 #
coedge $-1 $266 $258 $510 $511 forward $76 $-1 #
coedge $-1 $512 $513 $258 $365 reversed $514 $-1 #
edge $-1 $369 4.7127834514700437e-016 $515 1.0654358165107383 $258 $516 forward 7 unknown #
coedge $-1 $517 $259 $262 $372 reversed $368 $-1 #
coedge $-1 $259 $517 $512 $518 forward $368 $-1 #
loop $-1 $-1 $517 $519 #
vertex $-1 $365 $520 #
ellipse-curve $-1 4.3399999999999999 6.5000000000000009 5.8135083268962919 1 0 0 0 0.24999999999999911 -8.8817841970012523e-016 1 I I #
coedge $-1 $262 $261 $521 $522 reversed $263 $-1 #
edge $-1 $523 0 $264 0.25 $262 $524 forward 7 unknown #
face $-1 $417 $263 $3 $-1 $525 forward single #
point $-1 4.3399999999999999 6.75 5.813508326896291 #
coedge $-1 $526 $527 $266 $376 forward $528 $-1 #
edge $-1 $380 0 $529 3.0384455124293903 $266 $530 forward 7 unknown #
coedge $-1 $531 $267 $527 $532 reversed $379 $-1 #
coedge $-1 $267 $531 $269 $383 forward $379 $-1 #
loop $-1 $-1 $531 $533 #
vertex $-1 $268 $534 #
ellipse-curve $-1 4.3399999999999999 2.0250628144669003 7.2500000000000009 1 0 0 0 4.4408920985006262e-016 0.24999999999999911 1 I I #
coedge $-1 $471 $269 $535 $536 reversed $271 $-1 #
edge $-1 $537 0 $272 0.25 $269 $538 forward 7 unknown #
coedge $-1 $270 $320 $539 $540 reversed $271 $-1 #
point $-1 4.3399999999999999 1.7763159551902457 7.2249999999999996 #
coedge $-1 $539 $521 $274 $387 reversed $541 $-1 #
edge $-1 $388 0 $390 1.6709637479564594 $386 $542 forward 7 unknown #
vertex $-1 $540 $543 #
straight-curve $-1 4.5899999999999999 6.4749999999999988 2.5263159551902454 -1 0 0 I I #
vertex $-1 $522 $544 #
straight-curve $-1 4.5899999999999999 6.75 2.7750628144669003 -1 0 0 I I #
cone-surface $-1 4.5899999999999999 6.5 2.7750628144669003 1 0 0 0 -0.025000000000001247 -0.24874685927665488 1 I I 0 1 0.25 forward I I I I #
coedge $-1 $545 $546 $280 $394 forward $547 $-1 #
edge $-1 $413 0 $398 1.3181160716528024 $280 $548 forward 7 unknown #
coedge $-1 $549 $281 $284 $401 reversed $397 $-1 #
coedge $-1 $281 $550 $545 $551 forward $397 $-1 #
loop $-1 $-1 $552 $553 #
vertex $-1 $394 $554 #
ellipse-curve $-1 4.3399999999999999 6.9999999999999947 7.7500000000000044 1 0 0 0 0.43750000000000533 -1.6944302139657497 1 I I #
coedge $-1 $284 $283 $555 $556 reversed $285 $-1 #
edge $-1 $557 0 $286 0.25 $395 $558 forward 7 unknown #
face $-1 $290 $285 $3 $-1 $559 reversed single #
point $-1 4.3399999999999999 8.6944302139657452 7.3125 #
coedge $-1 $304 $555 $288 $405 reversed $427 $-1 #
edge $-1 $308 -1.7763568394002505e-015 $406 3.0384455124293908 $404 $560 forward 7 unknown #
vertex $-1 $405 $561 #
straight-curve $-1 4.5899999999999999 8.9364916731037098 7.5 -1 0 0 I I #
face $-1 $562 $437 $3 $-1 $563 reversed single #
plane-surface $-1 4.5899999999999999 12.244044240850759 7.5 0 0 1 0 -1 0 forward_v I I I I #
coedge $-1 $564 $292 $546 $565 reversed $412 $-1 #
coedge $-1 $292 $564 $294 $416 forward $412 $-1 #
loop $-1 $-1 $410 $566 #
vertex $-1 $293 $567 #
straight-curve $-1 4.3399999999999999 7.25 5.813508326896291 0 0 -1 I I #
coedge $-1 $295 $294 $568 $569 reversed $296 $-1 #
edge $-1 $570 0 $297 0.25 $411 $571 forward 7 unknown #
face $-1 $566 $296 $3 $-1 $572 reversed single #
point $-1 4.3399999999999999 7.25 2.7750628144669003 #
coedge $-1 $318 $299 $320 $443 reversed $215 $-1 #
coedge $-1 $568 $539 $299 $421 forward $541 $-1 #
edge $-1 $573 0 $422 0.10016742116156499 $420 $574 forward 7 unknown #
vertex $-1 $569 $575 #
straight-curve $-1 4.5899999999999999 7.5249999999999995 2.5263159551902454 -1 0 0 I I #
coedge $-1 $576 $304 $301 $425 forward $427 $-1 #
edge $-1 $306 0 $577 0.20033484232312926 $424 $578 forward 7 unknown #
cone-surface $-1 5.3399999999999999 7 7.75 1 0 0 0 0 -5.25 1 I I 0 1 5.25 forward I I I I #
loop $-1 $-1 $579 $310 #
ellipse-curve $-1 4.5899999999999999 11.974937185533099 7.2499999999999991 -1 0 0 0 1.7763568394002505e-015 0.25000000000000089 1 I I #
point $-1 4.5899999999999999 12.223684044809755 7.2249999999999996 #
point $-1 4.5899999999999999 11.974937185533101 7.5 #
face $-1 $580 $581 $3 $-1 $582 reversed single #
plane-surface $-1 4.5899999999999999 0 0 1 0 0 0 0 -1 forward_v I I I I #
coedge $-1 $583 $584 $315 $434 reversed $585 $-1 #
edge $-1 $439 0 $438 3.1415926535897931 $315 $586 forward 7 unknown #
coedge $-1 $449 $316 $584 $587 forward $437 $-1 #
coedge $-1 $316 $449 $583 $588 reversed $437 $-1 #
loop $-1 $-1 $436 $408 #
vertex $-1 $434 $589 #
vertex $-1 $434 $590 #
ellipse-curve $-1 5.3399999999999999 7 13.25 -1 0 0 0 0.049999999999999822 0 1 I I #
coedge $-1 $500 $318 $321 $445 forward $215 $-1 #
ellipse-curve $-1 5.3399999999999999 7 7.75 1 0 0 0 0 -5.25 1 I I #
edge $-1 $323 0 $573 0.75 $419 $591 forward 7 unknown #
coedge $-1 $321 $470 $592 $593 reversed $271 $-1 #
edge $-1 $322 0 $594 0.75 $441 $595 forward 7 unknown #
point $-1 5.3399999999999999 7 13 #
point $-1 5.3399999999999999 7 2.5 #
coedge $-1 $326 $326 $596 $597 reversed $240 $-1 #
coedge $-1 $436 $435 $326 $450 forward $437 $-1 #
edge $-1 $598 0 $599 3.1415926535898642 $326 $600 forward 7 unknown #
coedge $-1 $601 $602 $327 $452 forward $603 $-1 #
edge $-1 $457 0 $456 3.1415926535897931 $327 $604 forward 7 unknown #
coedge $-1 $605 $328 $602 $606 reversed $455 $-1 #
coedge $-1 $328 $605 $601 $607 forward $455 $-1 #
loop $-1 $-1 $453 $608 #
vertex $-1 $452 $609 #
vertex $-1 $452 $610 #
ellipse-curve $-1 4.3399999999999999 7 7.75 -1 0 0 0 0.375 0 1 I I #
coedge $-1 $611 $330 $612 $613 reversed $141 $-1 #
coedge $-1 $614 $615 $330 $461 forward $616 $-1 #
edge $-1 $617 0 $465 1.3181160716528051 $330 $618 forward 7 unknown #
coedge $-1 $619 $331 $337 $476 reversed $464 $-1 #
coedge $-1 $331 $619 $614 $620 forward $464 $-1 #
loop $-1 $-1 $462 $621 #
vertex $-1 $461 $622 #
straight-curve $-1 4.3399999999999999 2.0250628144669003 8 0 1 0 I I #
coedge $-1 $333 $611 $623 $624 forward $141 $-1 #
coedge $-1 $625 $626 $333 $469 forward $627 $-1 #
edge $-1 $472 -3.538835890992623e-015 $628 1.6709637479564357 $333 $629 forward 7 unknown #
coedge $-1 $444 $334 $626 $630 reversed $271 $-1 #
coedge $-1 $334 $382 $336 $475 forward $271 $-1 #
vertex $-1 $335 $631 #
ellipse-curve $-1 4.3399999999999999 6.9999999999999973 7.7500000000000036 1 0 0 0 -0.52499999999999769 5.223684044809751 1 I I #
coedge $-1 $337 $336 $632 $633 reversed $338 $-1 #
edge $-1 $634 0 $340 0.25 $471 $635 forward 7 unknown #
edge $-1 $636 7.8886090522101181e-031 $339 0.25 $462 $637 forward 7 unknown #
face $-1 $638 $338 $3 $-1 $639 reversed single #
point $-1 4.3399999999999999 2.0250628144669003 8 #
point $-1 4.3399999999999999 1.7763159551902454 8.2749999999999986 #
coedge $-1 $350 $342 $640 $641 forward $105 $-1 #
coedge $-1 $642 $643 $342 $482 reversed $397 $-1 #
edge $-1 $486 -2.5376526277146434e-016 $644 1.0654358165107405 $342 $645 forward 7 unknown #
coedge $-1 $646 $343 $346 $489 reversed $485 $-1 #
coedge $-1 $343 $646 $642 $647 forward $485 $-1 #
loop $-1 $-1 $646 $648 #
vertex $-1 $482 $649 #
ellipse-curve $-1 4.3399999999999999 7.4999999999999956 9.6864916731037063 1 0 0 0 -0.24999999999999556 1.7763568394002505e-015 1 I I #
coedge $-1 $346 $345 $650 $651 reversed $347 $-1 #
edge $-1 $652 0 $348 0.25 $346 $653 forward 7 unknown #
face $-1 $360 $347 $3 $-1 $654 forward single #
point $-1 4.3399999999999999 7.25 9.6864916731037098 #
coedge $-1 $655 $656 $350 $493 forward $657 $-1 #
edge $-1 $497 0 $658 3.0384455124293908 $350 $659 forward 7 unknown #
coedge $-1 $660 $351 $656 $661 reversed $496 $-1 #
coedge $-1 $351 $660 $353 $499 forward $496 $-1 #
loop $-1 $-1 $660 $662 #
vertex $-1 $352 $663 #
ellipse-curve $-1 4.3399999999999999 11.974937185533097 8.2500000000000018 1 0 0 0 1.7763568394002505e-015 -0.25000000000000178 1 I I #
edge $-1 $577 0 $355 0.25 $353 $664 forward 7 unknown #
coedge $-1 $354 $441 $665 $666 reversed $215 $-1 #
point $-1 4.3399999999999999 12.223684044809755 8.2749999999999986 #
coedge $-1 $665 $650 $357 $503 reversed $667 $-1 #
edge $-1 $504 0 $506 1.6709637479564243 $502 $668 forward 7 unknown #
vertex $-1 $666 $669 #
straight-curve $-1 4.5899999999999999 7.5250000000000004 12.973684044809755 -1 0 0 I I #
vertex $-1 $503 $670 #
straight-curve $-1 4.5899999999999999 7.25 12.724937185533101 -1 0 0 I I #
face $-1 $621 $616 $3 $-1 $671 reversed single #
cone-surface $-1 4.5899999999999999 7.5 12.724937185533099 1 0 0 0 0.025000000000000275 0.24874685927665494 1 I I 0 1 0.24999999999999997 forward I I I I #
coedge $-1 $672 $673 $363 $511 reversed $674 $-1 #
edge $-1 $515 0 $529 1.318116071652812 $363 $675 forward 7 unknown #
coedge $-1 $676 $364 $367 $518 reversed $514 $-1 #
coedge $-1 $364 $677 $672 $678 forward $514 $-1 #
loop $-1 $-1 $679 $680 #
vertex $-1 $511 $681 #
ellipse-curve $-1 4.3399999999999999 7.0000000000000018 7.7500000000000009 -1 0 0 0 -0.43750000000000178 -1.6944302139657461 1 I I #
coedge $-1 $367 $366 $682 $683 forward $368 $-1 #
edge $-1 $684 0 $369 0.25 $512 $685 forward 7 unknown #
face $-1 $686 $368 $3 $-1 $687 reversed single #
point $-1 4.3399999999999999 6.5624999999999991 6.0555697860342548 #
coedge $-1 $386 $682 $371 $522 forward $541 $-1 #
edge $-1 $523 0 $390 3.0384455124293908 $521 $688 forward 7 unknown #
vertex $-1 $522 $689 #
straight-curve $-1 4.5899999999999999 6.75 5.813508326896291 -1 0 0 I I #
plane-surface $-1 4.5899999999999999 6.75 6.0179491924311233 0 -1 0 0 0 -1 forward_v I I I I #
coedge $-1 $690 $375 $673 $691 reversed $528 $-1 #
coedge $-1 $375 $690 $377 $532 forward $528 $-1 #
loop $-1 $-1 $526 $692 #
vertex $-1 $376 $693 #
straight-curve $-1 4.3399999999999999 2.0250628144669007 7.5 0 1 0 I I #
coedge $-1 $378 $377 $694 $695 forward $379 $-1 #
edge $-1 $696 0 $380 0.25 $527 $697 forward 7 unknown #
face $-1 $692 $379 $3 $-1 $698 reversed single #
point $-1 4.3399999999999999 2.0250628144669007 7.5 #
coedge $-1 $694 $632 $382 $536 forward $699 $-1 #
edge $-1 $634 0 $537 0.20033484232312043 $535 $700 forward 7 unknown #
vertex $-1 $695 $701 #
straight-curve $-1 4.5899999999999999 1.7763159551902457 7.2250000000000014 -1 0 0 I I #
coedge $-1 $420 $386 $384 $540 forward $541 $-1 #
edge $-1 $388 -1.611208017596461e-016 $573 0.10016742116155557 $539 $702 forward 7 unknown #
loop $-1 $-1 $386 $686 #
ellipse-curve $-1 4.5899999999999999 6.5 2.7750628144669007 1 0 0 0 -0.025000000000001243 -0.2487468592766553 1 I I #
point $-1 4.5899999999999999 6.4749999999999988 2.5263159551902454 #
point $-1 4.5899999999999999 6.75 2.7750628144669003 #
coedge $-1 $703 $393 $396 $551 reversed $547 $-1 #
coedge $-1 $393 $703 $410 $565 forward $547 $-1 #
loop $-1 $-1 $393 $704 #
ellipse-curve $-1 4.3399999999999999 7.5000000000000027 5.8135083268962893 -1 0 0 0 -0.25000000000000266 1.7763568394002505e-015 1 I I #
coedge $-1 $643 $395 $705 $706 reversed $397 $-1 #
coedge $-1 $396 $552 $707 $708 reversed $397 $-1 #
edge $-1 $709 0 $398 0.25 $396 $710 forward 7 unknown #
coedge $-1 $550 $711 $712 $713 forward $397 $-1 #
face $-1 $680 $397 $3 $-1 $714 forward single #
point $-1 4.3399999999999999 7.4375 6.0555697860342548 #
coedge $-1 $404 $705 $400 $556 forward $427 $-1 #
edge $-1 $557 0 $406 1.3181160716528206 $555 $715 forward 7 unknown #
vertex $-1 $556 $716 #
straight-curve $-1 4.5899999999999999 8.6944302139657452 7.3125 -1 0 0 I I #
cone-surface $-1 4.5899999999999999 8.9364916731037081 7.25 -1 0 0 0 -0.24206145913796354 0.0625 1 I I 0 1 0.24999999999999997 forward I I I I #
straight-curve $-1 4.5899999999999999 11.974937185533099 7.5 0 -1 0 I I #
point $-1 4.5899999999999999 8.9364916731037081 7.5 #
face $-1 $-1 $585 $3 $-1 $717 reversed single #
cone-surface $-1 5.3399999999999999 7 13.25 -1 0 0 0 -0.049999999999999996 0 1 I I 0 1 0.049999999999999996 forward I I I I #
coedge $-1 $411 $410 $718 $719 forward $412 $-1 #
edge $-1 $720 0 $413 0.25 $410 $721 forward 7 unknown #
face $-1 $704 $412 $3 $-1 $722 reversed single #
point $-1 4.3399999999999999 7.25 5.813508326896291 #
coedge $-1 $718 $420 $415 $569 forward $541 $-1 #
edge $-1 $422 0 $570 1.6709637479564543 $568 $723 forward 7 unknown #
vertex $-1 $719 $724 #
straight-curve $-1 4.5899999999999999 7.25 2.7750628144669003 -1 0 0 I I #
cone-surface $-1 4.5899999999999999 7.5 2.7750628144669003 -1 0 0 0 0.024999999999999488 -0.24874685927665505 1 I I 0 1 0.25 forward I I I I #
vertex $-1 $421 $725 #
ellipse-curve $-1 4.5899999999999999 7.0000000000000115 7.7499999999997229 1 0 0 0 -1.1546319456101628e-014 -5.2499999999997229 1 I I #
point $-1 4.5899999999999999 7.5249999999999995 2.5263159551902454 #
coedge $-1 $726 $424 $660 $727 reversed $427 $-1 #
vertex $-1 $727 $728 #
ellipse-curve $-1 4.5899999999999999 7.0000000000002593 7.7499999999999991 1 0 0 0 5.2236840448094952 -0.52499999999999947 1 I I #
coedge $-1 $705 $726 $729 $730 reversed $427 $-1 #
face $-1 $662 $657 $3 $-1 $731 forward single #
loop $-1 $-1 $729 $431 #
cone-surface $-1 4.5899999999999999 8.9364916731037081 8.25 1 0 0 0 -0.24206145913796354 -0.0625 1 I I 0 1 0.24999999999999997 forward I I I I #
coedge $-1 $596 $433 $436 $588 forward $585 $-1 #
coedge $-1 $433 $596 $435 $587 reversed $585 $-1 #
loop $-1 $-1 $584 $562 #
ellipse-curve $-1 5.3399999999999999 7 13.25 -1 0 0 0 -0.050000000000000711 0 1 I I #
edge $-1 $438 0 $598 1 $584 $732 forward 7 unknown #
edge $-1 $439 0 $599 1 $583 $733 forward 7 unknown #
point $-1 5.3399999999999999 7.0499999999999998 13.25 #
point $-1 5.3399999999999999 6.9499999999999993 13.25 #
straight-curve $-1 5.3399999999999999 7 2.5 -1 0 0 I I #
coedge $-1 $734 $665 $444 $593 forward $667 $-1 #
edge $-1 $594 0 $735 0.10016742116154725 $592 $736 forward 7 unknown #
vertex $-1 $593 $737 #
straight-curve $-1 5.3399999999999999 7.0000000000000009 13 -1 0 0 I I #
coedge $-1 $584 $583 $448 $597 forward $585 $-1 #
edge $-1 $599 0 $598 3.1415926535898642 $448 $738 forward 7 unknown #
vertex $-1 $597 $739 #
vertex $-1 $597 $740 #
ellipse-curve $-1 4.3399999999999999 6.9999999999999991 13.249999999999998 -1 0 0 0 0.050000000000000711 1.7763568394002505e-015 1 I I #
coedge $-1 $741 $451 $454 $607 reversed $603 $-1 #
coedge $-1 $451 $741 $453 $606 forward $603 $-1 #
loop $-1 $-1 $601 $742 #
ellipse-curve $-1 4.3399999999999999 7 7.75 -1 0 0 0 -0.375 0 1 I I #
coedge $-1 $454 $453 $743 $744 reversed $455 $-1 #
edge $-1 $745 0 $457 0.5 $602 $746 forward 7 unknown #
edge $-1 $747 0 $456 0.5 $601 $748 forward 7 unknown #
face $-1 $742 $455 $3 $-1 $749 reversed single #
point $-1 4.3399999999999999 7.375 7.75 #
point $-1 4.3399999999999999 6.625 7.75 #
coedge $-1 $467 $459 $750 $751 reversed $141 $-1 #
coedge $-1 $752 $753 $459 $613 forward $514 $-1 #
edge $-1 $754 0 $617 1.0654358165107427 $459 $755 forward 7 unknown #
coedge $-1 $756 $460 $463 $620 reversed $616 $-1 #
coedge $-1 $460 $756 $752 $757 forward $616 $-1 #
loop $-1 $-1 $460 $508 #
vertex $-1 $613 $758 #
ellipse-curve $-1 4.3399999999999999 5.0635083268962902 8.2500000000000018 -1 0 0 0 0.24206145913796462 -0.062500000000001776 1 I I #
coedge $-1 $463 $462 $759 $760 forward $464 $-1 #
edge $-1 $761 0 $465 0.25 $463 $762 forward 7 unknown #
face $-1 $477 $464 $3 $-1 $763 reversed single #
point $-1 4.3399999999999999 5.0635083268962919 8 #
coedge $-1 $764 $765 $467 $624 reversed $766 $-1 #
edge $-1 $767 0 $628 3.0384455124293908 $467 $768 forward 7 unknown #
coedge $-1 $769 $468 $765 $770 reversed $627 $-1 #
coedge $-1 $468 $769 $470 $630 forward $627 $-1 #
loop $-1 $-1 $468 $771 #
vertex $-1 $469 $772 #
ellipse-curve $-1 4.3399999999999999 6.4999999999999973 12.724937185533097 -1 0 0 0 -0.024999999999996803 0.24874685927665752 1 I I #
edge $-1 $735 0 $472 0.25 $470 $773 forward 7 unknown #
point $-1 4.3399999999999999 6.4749999999999996 12.973684044809755 #
coedge $-1 $535 $759 $474 $633 forward $699 $-1 #
edge $-1 $636 1.7763568394002505e-015 $634 1.6709637479564505 $632 $774 forward 7 unknown #
vertex $-1 $536 $775 #
straight-curve $-1 4.5899999999999999 1.7763159551902454 8.2750000000000004 -1 0 0 I I #
vertex $-1 $760 $776 #
straight-curve $-1 4.5899999999999999 2.0250628144669007 8 -1 -1.7763568394002505e-015 0 I I #
face $-1 $533 $699 $3 $-1 $777 forward single #
cone-surface $-1 4.5899999999999999 2.0250628144669003 8.25 -1 0 0 0 4.4408920985006262e-016 -0.25 1 I I 0 1 0.25 forward I I I I #
coedge $-1 $778 $779 $480 $641 reversed $581 $-1 #
edge $-1 $644 0 $658 1.3181160716528104 $480 $780 forward 7 unknown #
coedge $-1 $781 $481 $484 $647 reversed $397 $-1 #
coedge $-1 $481 $549 $778 $782 forward $397 $-1 #
vertex $-1 $641 $783 #
ellipse-curve $-1 4.3399999999999999 7.0000000000000018 7.7500000000000009 -1 0 0 0 0.43749999999999822 1.6944302139657443 1 I I #
coedge $-1 $484 $483 $784 $785 forward $485 $-1 #
edge $-1 $786 0 $486 0.25 $642 $787 forward 7 unknown #
face $-1 $490 $485 $3 $-1 $788 reversed single #
point $-1 4.3399999999999999 7.4375 9.444430213965747 #
coedge $-1 $502 $784 $488 $651 forward $667 $-1 #
edge $-1 $652 -1.7763568394002505e-015 $506 3.038445512429389 $650 $789 forward 7 unknown #
vertex $-1 $651 $790 #
straight-curve $-1 4.5899999999999999 7.25 9.6864916731037081 -1 0 0 I I #
plane-surface $-1 4.5899999999999999 7.25 9.4820508075688767 0 1 0 0 0 1 forward_v I I I I #
coedge $-1 $791 $492 $779 $792 reversed $657 $-1 #
coedge $-1 $492 $791 $494 $661 forward $657 $-1 #
loop $-1 $-1 $655 $580 #
vertex $-1 $493 $793 #
straight-curve $-1 4.3399999999999999 11.974937185533099 8 0 -1 0 I I #
coedge $-1 $495 $494 $576 $727 forward $496 $-1 #
edge $-1 $794 0 $497 0.25 $656 $795 forward 7 unknown #
face $-1 $553 $496 $3 $-1 $796 reversed single #
point $-1 4.3399999999999999 11.974937185533099 8 #
straight-curve $-1 4.5899999999999999 12.223684044809755 8.2750000000000004 -1 0 0 I I #
coedge $-1 $592 $502 $500 $666 forward $667 $-1 #
edge $-1 $504 -1.6112080175966622e-016 $594 0.10016742116156165 $665 $797 forward 7 unknown #
loop $-1 $-1 $798 $799 #
ellipse-curve $-1 4.5899999999999999 7.5000000000000044 12.724937185533095 1 0 0 0 0.024999999999995914 0.24874685927665929 1 I I #
point $-1 4.5899999999999999 7.5250000000000004 12.973684044809755 #
point $-1 4.5899999999999999 7.25 12.724937185533099 #
cone-surface $-1 4.5899999999999999 5.063508326896291 8.25 -1 0 0 0 0.24206145913796359 -0.0625 1 I I 0 1 0.25000000000000006 forward I I I I #
coedge $-1 $800 $510 $513 $678 reversed $674 $-1 #
coedge $-1 $510 $800 $526 $691 forward $674 $-1 #
loop $-1 $-1 $800 $801 #
ellipse-curve $-1 4.3399999999999999 5.0635083268962902 7.2499999999999991 1 0 0 0 0.24206145913796462 0.062500000000000888 1 I I #
coedge $-1 $712 $512 $802 $803 reversed $514 $-1 #
coedge $-1 $513 $752 $804 $805 reversed $514 $-1 #
edge $-1 $806 0 $515 0.25 $513 $807 forward 7 unknown #
coedge $-1 $808 $809 $810 $811 forward $514 $-1 #
face $-1 $799 $514 $3 $-1 $812 forward single #
point $-1 4.3399999999999999 5.3055697860342548 7.3125 #
coedge $-1 $521 $802 $517 $683 reversed $541 $-1 #
edge $-1 $523 0 $684 1.3181160716528173 $682 $813 forward 7 unknown #
vertex $-1 $683 $814 #
straight-curve $-1 4.5899999999999999 6.5625000000000009 6.0555697860342548 -1 -7.1054273576010019e-015 0 I I #
face $-1 $277 $541 $3 $-1 $815 forward single #
cone-surface $-1 4.5899999999999999 6.5 5.813508326896291 1 0 0 0 0.25 0 1 I I 0 1 0.25 forward I I I I #
straight-curve $-1 4.5899999999999999 6.75 5.813508326896291 0 0 -1 I I #
point $-1 4.5899999999999999 6.75 5.813508326896291 #
coedge $-1 $527 $526 $816 $817 reversed $528 $-1 #
edge $-1 $818 0 $529 0.25 $526 $819 forward 7 unknown #
face $-1 $801 $528 $3 $-1 $820 forward single #
point $-1 4.3399999999999999 5.063508326896291 7.5 #
coedge $-1 $816 $535 $531 $695 reversed $699 $-1 #
edge $-1 $696 0 $537 1.6709637479564563 $694 $821 forward 7 unknown #
vertex $-1 $817 $822 #
straight-curve $-1 4.5899999999999999 2.0250628144669007 7.5 -1 0 0 I I #
cone-surface $-1 4.5899999999999999 2.0250628144669007 7.25 1 0 0 0 0 0.25 1 I I 0 1 0.25 forward I I I I #
loop $-1 $-1 $632 $638 #
ellipse-curve $-1 4.5899999999999999 6.9999999999999636 7.75 1 0 0 0 -5.2236840448097182 0.52499999999999858 1 I I #
point $-1 4.5899999999999999 1.7763159551902457 7.2250000000000014 #
ellipse-curve $-1 4.5899999999999999 7.0000000000000133 7.7500000000002247 1 0 0 0 -0.52500000000001368 -5.2236840448099793 1 I I #
coedge $-1 $546 $545 $823 $824 reversed $547 $-1 #
face $-1 $825 $547 $3 $-1 $826 reversed single #
coedge $-1 $555 $579 $549 $706 forward $427 $-1 #
edge $-1 $827 0 $557 0.50536051028414863 $705 $828 forward 7 unknown #
coedge $-1 $802 $823 $550 $708 forward $541 $-1 #
edge $-1 $709 0 $829 0.25268025514207865 $707 $830 forward 7 unknown #
vertex $-1 $708 $831 #
straight-curve $-1 4.5899999999999999 7.4375 6.0555697860342548 -1 0 0 I I #
coedge $-1 $552 $810 $832 $833 reversed $397 $-1 #
coedge $-1 $809 $676 $552 $713 reversed $514 $-1 #
edge $-1 $834 0 $829 0.25 $712 $835 forward 7 unknown #
cone-surface $-1 5.3399999999999999 7 7.75 1 0 0 0 0 -1.75 1 I I 0 1 1.75 forward I I I I #
ellipse-curve $-1 4.5899999999999999 8.9364916731037081 7.2500000000000009 -1 0 0 0 -0.24206145913796284 0.062499999999999112 1 I I #
point $-1 4.5899999999999999 8.6944302139657452 7.3125 #
cone-surface $-1 5.3399999999999999 7 13.25 -1 0 0 0 -0.049999999999999996 0 1 I I 0 1 0.049999999999999996 forward I I I I #
coedge $-1 $823 $568 $564 $719 reversed $541 $-1 #
edge $-1 $720 0 $570 3.0384455124293908 $718 $836 forward 7 unknown #
vertex $-1 $824 $837 #
straight-curve $-1 4.5899999999999999 7.25 5.813508326896291 -1 0 0 I I #
plane-surface $-1 4.5899999999999999 7.25 6.0179491924311233 0 -1 0 0 0 -1 forward_v I I I I #
ellipse-curve $-1 4.5899999999999999 7.5 2.7750628144669003 -1 0 0 0 0.024999999999999467 -0.24874685927665485 1 I I #
point $-1 4.5899999999999999 7.25 2.7750628144669003 #
point $-1 4.5899999999999999 7 2.5 #
coedge $-1 $579 $576 $791 $838 forward $427 $-1 #
edge $-1 $794 0 $577 1.6709637479564357 $576 $839 forward 7 unknown #
point $-1 4.5899999999999999 12.223684044809755 8.2749999999999986 #
coedge $-1 $779 $778 $579 $730 forward $581 $-1 #
edge $-1 $827 0 $840 1.3181160716528104 $579 $841 forward 7 unknown #
plane-surface $-1 4.5899999999999999 12.244044240850759 8 0 0 1 0 -1 0 forward_v I I I I #
straight-curve $-1 5.3399999999999999 7.0499999999999998 13.25 -1 0 0 I I #
straight-curve $-1 5.3399999999999999 6.9500000000000002 13.25 -1 0 0 I I #
coedge $-1 $842 $592 $769 $843 forward $667 $-1 #
vertex $-1 $843 $844 #
ellipse-curve $-1 4.5899999999999999 7.0000000000000346 7.7499999999993392 1 0 0 0 -3.4638958368304884e-014 5.2500000000006608 1 I I #
point $-1 4.5899999999999999 7 13 #
ellipse-curve $-1 4.3399999999999999 6.9999999999999991 13.250000000000002 -1 0 0 0 -0.049999999999999822 -1.7763568394002505e-015 1 I I #
point $-1 4.3399999999999999 7.0499999999999998 13.25 #
point $-1 4.3399999999999999 6.9499999999999993 13.25 #
coedge $-1 $602 $601 $845 $846 reversed $603 $-1 #
face $-1 $402 $603 $3 $-1 $847 reversed single #
coedge $-1 $845 $845 $605 $744 forward $848 $-1 #
edge $-1 $747 0 $745 3.1415926535897931 $743 $849 forward 7 unknown #
vertex $-1 $846 $850 #
straight-curve $-1 4.8399999999999999 6.625 7.75 -1 0 0 I I #
vertex $-1 $846 $851 #
straight-curve $-1 4.8399999999999999 7.375 7.75 -1 0 0 I I #
cone-surface $-1 4.8399999999999999 7 7.75 -1 0 0 0 -0.375 0 1 I I 0 1 0.375 forward I I I I #
coedge $-1 $852 $853 $611 $751 forward $854 $-1 #
edge $-1 $767 0 $754 1.3181160716528364 $611 $855 forward 7 unknown #
coedge $-1 $677 $612 $615 $757 reversed $514 $-1 #
coedge $-1 $612 $808 $852 $856 forward $514 $-1 #
vertex $-1 $751 $857 #
ellipse-curve $-1 4.3399999999999999 6.9999999999999956 7.7500000000000036 1 0 0 0 -0.43749999999999556 1.6944302139657417 1 I I #
coedge $-1 $615 $614 $858 $859 reversed $616 $-1 #
edge $-1 $860 0 $617 0.25 $752 $861 forward 7 unknown #
point $-1 4.3399999999999999 5.3055697860342548 8.1875 #
coedge $-1 $632 $858 $619 $760 reversed $699 $-1 #
edge $-1 $636 0 $761 3.0384455124293916 $759 $862 forward 7 unknown #
vertex $-1 $760 $863 #
straight-curve $-1 4.5899999999999999 5.063508326896291 8 -1 0 0 I I #
plane-surface $-1 4.5899999999999999 1.7559557591492414 8 0 0 -1 0 1 0 forward_v I I I I #
coedge $-1 $864 $623 $853 $865 reversed $766 $-1 #
coedge $-1 $623 $864 $625 $770 forward $766 $-1 #
loop $-1 $-1 $764 $866 #
vertex $-1 $624 $867 #
straight-curve $-1 4.3399999999999999 6.75 9.6864916731037081 0 0 1 I I #
coedge $-1 $626 $625 $734 $843 reversed $627 $-1 #
edge $-1 $868 0 $628 0.25 $765 $869 forward 7 unknown #
face $-1 $648 $627 $3 $-1 $870 reversed single #
point $-1 4.3399999999999999 6.75 12.724937185533099 #
straight-curve $-1 4.5899999999999999 6.4750000000000005 12.973684044809755 -1 0 0 I I #
ellipse-curve $-1 4.5899999999999999 2.0250628144669007 8.25 -1 0 0 0 0 -0.25 1 I I #
point $-1 4.5899999999999999 1.7763159551902454 8.2749999999999986 #
point $-1 4.5899999999999999 2.0250628144669003 8 #
plane-surface $-1 4.5899999999999999 0 0 1 0 0 0 0 -1 forward_v I I I I #
coedge $-1 $729 $640 $643 $782 reversed $581 $-1 #
coedge $-1 $640 $729 $655 $792 forward $581 $-1 #
ellipse-curve $-1 4.3399999999999999 8.9364916731037081 8.2500000000000018 1 0 0 0 -0.24206145913796284 -0.062500000000001776 1 I I #
coedge $-1 $810 $642 $871 $872 reversed $397 $-1 #
edge $-1 $827 0 $644 0.25 $643 $873 forward 7 unknown #
point $-1 4.3399999999999999 8.6944302139657452 8.1875 #
coedge $-1 $650 $871 $646 $785 reversed $667 $-1 #
edge $-1 $652 0 $786 1.318116071652838 $784 $874 forward 7 unknown #
vertex $-1 $785 $875 #
straight-curve $-1 4.5899999999999999 7.4375 9.444430213965747 -1 0 0 I I #
cone-surface $-1 4.5899999999999999 7.5 9.6864916731037098 1 0 0 0 -0.25 -1.7763568394002505e-015 1 I I 0 1 0.25 forward I I I I #
straight-curve $-1 4.5899999999999999 7.25 9.6864916731037098 0 0 1 I I #
point $-1 4.5899999999999999 7.25 9.6864916731037081 #
coedge $-1 $656 $655 $726 $838 reversed $657 $-1 #
edge $-1 $840 0 $658 0.25 $655 $876 forward 7 unknown #
point $-1 4.3399999999999999 8.9364916731037081 8 #
vertex $-1 $838 $877 #
straight-curve $-1 4.5899999999999999 11.974937185533099 8 -1 0 0 I I #
cone-surface $-1 4.5899999999999999 11.974937185533099 8.25 1 0 0 0 0 -0.25 1 I I 0 1 0.25 forward I I I I #
ellipse-curve $-1 4.5899999999999999 7.0000000000000027 7.750000000000103 1 0 0 0 0.5249999999999968 5.2236840448096515 1 I I #
coedge $-1 $878 $842 $879 $880 forward $667 $-1 #
face $-1 $881 $667 $3 $-1 $882 forward single #
coedge $-1 $673 $672 $883 $884 forward $674 $-1 #
face $-1 $519 $674 $3 $-1 $885 reversed single #
coedge $-1 $682 $707 $676 $803 forward $541 $-1 #
edge $-1 $829 0 $684 0.25268025514207171 $802 $886 forward 7 unknown #
coedge $-1 $858 $883 $677 $805 forward $699 $-1 #
edge $-1 $806 0 $860 0.50536051028414863 $804 $887 forward 7 unknown #
vertex $-1 $805 $888 #
straight-curve $-1 4.5899999999999999 5.3055697860342548 7.3125 -1 0 0 I I #
coedge $-1 $753 $679 $878 $889 reversed $514 $-1 #
coedge $-1 $679 $712 $890 $891 reversed $514 $-1 #
coedge $-1 $711 $781 $679 $811 reversed $397 $-1 #
edge $-1 $892 0 $893 0.25 $679 $894 forward 7 unknown #
cone-surface $-1 5.3399999999999999 7 7.75 1 0 0 0 0 -1.75 1 I I 0 1 1.75 forward I I I I #
ellipse-curve $-1 4.5899999999999999 6.5 5.8135083268962919 1 0 0 0 0.25 -8.8817841970012523e-016 1 I I #
point $-1 4.5899999999999999 6.5625000000000009 6.0555697860342548 #
plane-surface $-1 4.5899999999999999 0 0 1 0 0 0 0 -1 forward_v I I I I #
coedge $-1 $883 $694 $690 $817 forward $699 $-1 #
edge $-1 $696 0 $818 3.0384455124293903 $816 $895 forward 7 unknown #
vertex $-1 $884 $896 #
straight-curve $-1 4.5899999999999999 5.063508326896291 7.5 -1 0 0 I I #
plane-surface $-1 4.5899999999999999 1.7559557591492414 7.5 0 0 -1 0 1 0 forward_v I I I I #
ellipse-curve $-1 4.5899999999999999 2.0250628144669003 7.2500000000000009 1 0 0 0 4.4408920985006262e-016 0.24999999999999911 1 I I #
point $-1 4.5899999999999999 2.0250628144669007 7.5 #
coedge $-1 $707 $718 $703 $824 forward $541 $-1 #
edge $-1 $720 0 $709 1.3181160716528024 $823 $897 forward 7 unknown #
face $-1 $608 $898 $3 $-1 $899 forward single #
cone-surface $-1 4.5899999999999999 7.5 5.813508326896291 -1 0 0 0 -0.25 0 1 I I 0 1 0.25 forward I I I I #
vertex $-1 $706 $900 #
ellipse-curve $-1 4.5899999999999999 6.9999999999999698 7.75 -1 0 0 0 1.6944302139657754 0.4375 1 I I #
vertex $-1 $803 $901 #
ellipse-curve $-1 4.5899999999999999 7.0000000000000018 7.75 -1 0 0 0 0.43749999999999822 -1.6944302139657452 1 I I #
point $-1 4.5899999999999999 7.4375 6.0555697860342548 #
coedge $-1 $890 $890 $711 $833 forward $898 $-1 #
edge $-1 $834 0 $892 3.141592653589794 $711 $902 forward 7 unknown #
vertex $-1 $891 $903 #
straight-curve $-1 4.8399999999999999 7 6 -1 0 0 I I #
straight-curve $-1 4.5899999999999999 7.25 5.813508326896291 0 0 -1 I I #
point $-1 4.5899999999999999 7.25 5.813508326896291 #
edge $-1 $794 0 $840 3.0384455124293908 $726 $904 forward 7 unknown #
ellipse-curve $-1 4.5899999999999999 11.974937185533097 8.2500000000000018 1 0 0 0 1.7763568394002505e-015 -0.25000000000000178 1 I I #
vertex $-1 $838 $905 #
ellipse-curve $-1 4.5899999999999999 8.9364916731037081 8.2500000000000018 1 0 0 0 -0.24206145913796284 -0.062500000000001776 1 I I #
coedge $-1 $798 $734 $864 $906 reversed $667 $-1 #
edge $-1 $735 -3.538835890992623e-015 $868 1.6709637479564357 $734 $907 forward 7 unknown #
point $-1 4.5899999999999999 6.4749999999999996 12.973684044809755 #
coedge $-1 $743 $743 $741 $846 forward $848 $-1 #
edge $-1 $745 0 $747 3.1415926535897931 $845 $908 forward 7 unknown #
cone-surface $-1 4.8399999999999999 7 7.75 -1 0 0 0 -0.375 0 1 I I 0 1 0.375 forward I I I I #
loop $-1 $-1 $743 $825 #
ellipse-curve $-1 4.8399999999999999 7 7.75 -1 0 0 0 0.375 0 1 I I #
point $-1 4.8399999999999999 6.625 7.75 #
point $-1 4.8399999999999999 7.375 7.75 #
coedge $-1 $879 $750 $753 $856 reversed $854 $-1 #
coedge $-1 $750 $879 $764 $865 forward $854 $-1 #
loop $-1 $-1 $750 $881 #
ellipse-curve $-1 4.3399999999999999 6.5000000000000036 9.6864916731037063 -1 0 0 0 0.24999999999999645 1.7763568394002505e-015 1 I I #
edge $-1 $909 0 $754 0.25 $753 $910 forward 7 unknown #
point $-1 4.3399999999999999 6.5625 9.4444302139657452 #
coedge $-1 $759 $804 $756 $859 forward $699 $-1 #
edge $-1 $860 0 $761 1.3181160716527929 $858 $911 forward 7 unknown #
vertex $-1 $859 $912 #
straight-curve $-1 4.5899999999999999 5.3055697860342548 8.1875 -1 0 0 I I #
straight-curve $-1 4.5899999999999999 2.0250628144669003 8 0 1 0 I I #
point $-1 4.5899999999999999 5.0635083268962919 8 #
coedge $-1 $765 $764 $842 $906 forward $766 $-1 #
edge $-1 $913 0 $767 0.25 $764 $914 forward 7 unknown #
face $-1 $771 $766 $3 $-1 $915 reversed single #
point $-1 4.3399999999999999 6.75 9.6864916731037081 #
vertex $-1 $906 $916 #
straight-curve $-1 4.5899999999999999 6.75 12.724937185533099 -1 0 0 I I #
cone-surface $-1 4.5899999999999999 6.5 12.724937185533099 -1 0 0 0 -0.024999999999999398 0.24874685927665505 1 I I 0 1 0.25 forward I I I I #
coedge $-1 $784 $878 $781 $872 forward $667 $-1 #
edge $-1 $893 0 $786 0.25268025514206216 $871 $917 forward 7 unknown #
straight-curve $-1 4.5899999999999999 8.6944302139657452 8.1875 -1 0 0 I I #
ellipse-curve $-1 4.5899999999999999 7.4999999999999956 9.6864916731037063 1 0 0 0 -0.24999999999999556 1.7763568394002505e-015 1 I I #
point $-1 4.5899999999999999 7.4375 9.444430213965747 #
straight-curve $-1 4.5899999999999999 8.9364916731037081 8 -1 0 0 I I #
point $-1 4.5899999999999999 11.974937185533099 8 #
coedge $-1 $871 $798 $808 $889 forward $667 $-1 #
coedge $-1 $853 $852 $798 $880 reversed $854 $-1 #
edge $-1 $913 0 $909 1.3181160716528364 $798 $918 forward 7 unknown #
face $-1 $866 $854 $3 $-1 $919 reversed single #
plane-surface $-1 4.5899999999999999 0 0 1 0 0 0 0 -1 forward_v I I I I #
coedge $-1 $804 $816 $800 $884 reversed $699 $-1 #
edge $-1 $806 0 $818 1.318116071652812 $883 $920 forward 7 unknown #
cone-surface $-1 4.5899999999999999 5.063508326896291 7.25 1 0 0 0 0.24206145913796359 0.0625 1 I I 0 1 0.25000000000000006 forward I I I I #
ellipse-curve $-1 4.5899999999999999 7.0000000000000044 7.7500000000000444 -1 0 0 0 -4.4408920985006262e-015 -1.7500000000000444 1 I I #
ellipse-curve $-1 4.5899999999999999 7.0000000000000302 7.75 -1 0 0 0 -1.6944302139657754 -0.4375 1 I I #
point $-1 4.5899999999999999 5.3055697860342548 7.3125 #
edge $-1 $909 0 $893 0.25268025514207576 $878 $921 forward 7 unknown #
coedge $-1 $832 $832 $809 $891 forward $898 $-1 #
edge $-1 $892 0 $834 3.1415926535897931 $809 $922 forward 7 unknown #
vertex $-1 $891 $923 #
vertex $-1 $872 $924 #
straight-curve $-1 4.8399999999999999 7 9.5 -1 0 0 I I #
straight-curve $-1 4.5899999999999999 2.0250628144669007 7.5 0 1 0 I I #
point $-1 4.5899999999999999 5.063508326896291 7.5 #
ellipse-curve $-1 4.5899999999999999 7.5000000000000027 5.8135083268962893 -1 0 0 0 -0.25000000000000266 1.7763568394002505e-015 1 I I #
loop $-1 $848 $832 $825 #
plane-surface $-1 4.8399999999999999 0 0 1 0 0 0 0 -1 forward_v I I I I #
point $-1 4.5899999999999999 8.6944302139657452 8.1875 #
point $-1 4.5899999999999999 7 6 #
ellipse-curve $-1 4.8399999999999999 7.0000000000000009 7.75 1 0 0 0 -8.8817841970012523e-016 -1.75 1 I I #
point $-1 4.8399999999999999 7 6 #
straight-curve $-1 4.5899999999999999 11.974937185533099 8 0 -1 0 I I #
point $-1 4.5899999999999999 8.9364916731037081 8 #
edge $-1 $913 0 $868 3.0384455124293908 $842 $925 forward 7 unknown #
ellipse-curve $-1 4.5899999999999999 6.4999999999999973 12.724937185533097 -1 0 0 0 -0.024999999999996803 0.24874685927665752 1 I I #
ellipse-curve $-1 4.8399999999999999 7 7.75 -1 0 0 0 -0.375 0 1 I I #
vertex $-1 $889 $926 #
straight-curve $-1 4.5899999999999999 6.5625 9.4444302139657452 -1 0 0 I I #
ellipse-curve $-1 4.5899999999999999 5.0635083268962884 8.2500000000000036 -1 0 0 0 0.24206145913796639 -0.062500000000003553 1 I I #
point $-1 4.5899999999999999 5.3055697860342548 8.1875 #
vertex $-1 $906 $927 #
straight-curve $-1 4.5899999999999999 6.75 9.6864916731037081 -1 0 0 I I #
plane-surface $-1 4.5899999999999999 6.75 9.4820508075688767 0 1 0 0 0 1 forward_v I I I I #
point $-1 4.5899999999999999 6.75 12.724937185533099 #
ellipse-curve $-1 4.5899999999999999 6.9999999999999876 7.7499999999998881 -1 0 0 0 1.2434497875801753e-014 1.7500000000001119 1 I I #
ellipse-curve $-1 4.5899999999999999 6.5000000000000036 9.6864916731037063 -1 0 0 0 0.24999999999999645 1.7763568394002505e-015 1 I I #
cone-surface $-1 4.5899999999999999 6.5 9.6864916731037081 -1 0 0 0 0.25 0 1 I I 0 1 0.25 forward I I I I #
ellipse-curve $-1 4.5899999999999999 5.0635083268962902 7.2499999999999991 1 0 0 0 0.24206145913796462 0.062500000000000888 1 I I #
ellipse-curve $-1 4.5899999999999999 7.0000000000000009 7.7499999999999805 -1 0 0 0 -0.43750000000000089 1.6944302139657648 1 I I #
ellipse-curve $-1 4.8399999999999999 7 7.75 1 0 0 0 0 1.75 1 I I #
point $-1 4.8399999999999999 7 9.5 #
point $-1 4.5899999999999999 7 9.5 #
straight-curve $-1 4.5899999999999999 6.75 9.6864916731037081 0 0 1 I I #
point $-1 4.5899999999999999 6.5625 9.4444302139657452 #
point $-1 4.5899999999999999 6.75 9.6864916731037081 #
End-of-ACIS-data 