600 0 1 0           
106 GICL ACIS Healer - Source: /gicl/data5/repository/STEP/STI/interactingPockets/interactingPockets.sat - 6 0 18 ACIS 6.0.3 Solaris 24 Sun Apr 14 00:10:16 2002 
1 9.999999999999999547e-07 1.000000000000000036e-10 
body $1 $2 $-1 $3 #
attrib_gssl_step_cc1_details-attrib_gssl_step-attrib $-1 $-1 $-1 $0 $4 $5 $6 $7 $8 $9 $10 $11 $12 $13 $14 $15 $16 $17 $18 $19 $20 $21 $22 $23 $24 $25 $26 $27 $28 $29 $30 $31 $32 $33 $34 $35 #
lump $-1 $-1 $36 $0 #
transform $-1 1 0 0 0 1 0 0 0 1 0 0 0 1 no_rotate no_reflect no_shear #
attrib_gssl_step_product_details-attrib_gssl_step-attrib $-1 $-1 $-1 $-1 7 Product 9 Test Part 1 1 6 detail 6 detail #
attrib_gssl_step_application_details-attrib_gssl_step-attrib $-1 $-1 $-1 $-1 70 configuration controlled 3d designs of mechanical parts and assemblies 22 International Standard 21 config_control_design 1994 #
attrib_gssl_step_mech_con_details-attrib_gssl_step-attrib $-1 $-1 $-1 $-1 19 3D Mechanical Parts 10 mechanical #
attrib_gssl_step_des_con_details-attrib_gssl_step-attrib $-1 $-1 $-1 $-1 19 3D Mechanical Parts 6 design #
attrib_gssl_step_person_details-attrib_gssl_step-attrib $-1 $-1 $-1 $-1 1 1 9 Last Name 10 First Name 0 0 0 #
attrib_gssl_step_person_details-attrib_gssl_step-attrib $-1 $-1 $-1 $-1 1 2 9 Last Name 10 First Name 0 0 0 #
attrib_gssl_step_person_details-attrib_gssl_step-attrib $-1 $-1 $-1 $-1 1 3 9 Last Name 10 First Name 0 0 0 #
attrib_gssl_step_person_details-attrib_gssl_step-attrib $-1 $-1 $-1 $-1 1 2 9 Last Name 10 First Name 0 0 0 #
attrib_gssl_step_person_details-attrib_gssl_step-attrib $-1 $-1 $-1 $-1 1 2 9 Last Name 10 First Name 0 0 0 #
attrib_gssl_step_person_details-attrib_gssl_step-attrib $-1 $-1 $-1 $-1 1 3 9 Last Name 10 First Name 0 0 0 #
attrib_gssl_step_person_details-attrib_gssl_step-attrib $-1 $-1 $-1 $-1 1 3 9 Last Name 10 First Name 0 0 0 #
attrib_gssl_step_person_details-attrib_gssl_step-attrib $-1 $-1 $-1 $-1 1 3 9 Last Name 10 First Name 0 0 0 #
attrib_gssl_step_org_details-attrib_gssl_step-attrib $-1 $-1 $-1 $-1 3 STI 3 R&D 3 R&D 12 design_owner #
attrib_gssl_step_org_details-attrib_gssl_step-attrib $-1 $-1 $-1 $-1 3 STI 3 R&D 3 R&D 7 creator #
attrib_gssl_step_org_details-attrib_gssl_step-attrib $-1 $-1 $-1 $-1 3 STI 3 R&D 3 R&D 0  #
attrib_gssl_step_org_details-attrib_gssl_step-attrib $-1 $-1 $-1 $-1 3 STI 3 R&D 3 R&D 7 creator #
attrib_gssl_step_org_details-attrib_gssl_step-attrib $-1 $-1 $-1 $-1 3 STI 3 R&D 3 R&D 15 design_supplier #
attrib_gssl_step_org_details-attrib_gssl_step-attrib $-1 $-1 $-1 $-1 3 STI 3 R&D 3 R&D 0  #
attrib_gssl_step_org_details-attrib_gssl_step-attrib $-1 $-1 $-1 $-1 3 STI 3 R&D 3 R&D 0  #
attrib_gssl_step_org_details-attrib_gssl_step-attrib $-1 $-1 $-1 $-1 3 STI 3 R&D 3 R&D 22 classification_officer #
attrib_gssl_step_datetime_details-attrib_gssl_step-attrib $-1 $-1 $-1 $-1 1997 1 1 0 0 0 5 0 1 13 creation_date #
attrib_gssl_step_datetime_details-attrib_gssl_step-attrib $-1 $-1 $-1 $-1 1997 1 1 0 0 0 5 0 1 0  #
attrib_gssl_step_datetime_details-attrib_gssl_step-attrib $-1 $-1 $-1 $-1 1997 1 1 0 0 0 5 0 1 0  #
attrib_gssl_step_datetime_details-attrib_gssl_step-attrib $-1 $-1 $-1 $-1 1997 1 1 0 0 0 5 0 1 19 classification_date #
attrib_gssl_step_datetime_details-attrib_gssl_step-attrib $-1 $-1 $-1 $-1 1997 1 1 0 0 0 5 0 1 0  #
attrib_gssl_step_security_details-attrib_gssl_step-attrib $-1 $-1 $-1 $-1 7 Version 20 Security for version 12 unclassified #
attrib_gssl_step_approval_details-attrib_gssl_step-attrib $-1 $-1 $-1 $-1 19 Definition approval 16 not_yet_approved 19 definition approval 0  #
attrib_gssl_step_approval_details-attrib_gssl_step-attrib $-1 $-1 $-1 $-1 16 Version approval 16 not_yet_approved 16 version approval 0  #
attrib_gssl_step_approval_details-attrib_gssl_step-attrib $-1 $-1 $-1 $-1 25 Version Security approval 16 not_yet_approved 25 version security approval 0  #
attrib_gssl_step_product_def_form_details-attrib_gssl_step-attrib $-1 $-1 $-1 $-1 9 Test Part 7 Version 0 #
attrib_gssl_step_product_def_details-attrib_gssl_step-attrib $-1 $-1 $-1 $-1 9 Test Part 7 Version #
attrib_gssl_step_product_def_spec_details-attrib_gssl_step-attrib $-1 $-1 $-1 $-1 9 Test Part 7 Version #
shell $-1 $-1 $-1 $37 $-1 $2 #
face $-1 $38 $39 $36 $-1 $40 reversed single #
face $-1 $41 $42 $36 $-1 $43 forward single #
loop $-1 $-1 $44 $37 #
cone-surface $-1 7.5 -7.5 -2.5 0 0 -1 1.767766952966368654 -1.767766952966368654 0 1 I I 0 1 2.5 forward I I I I #
face $-1 $45 $46 $36 $-1 $47 reversed single #
loop $-1 $-1 $48 $38 #
plane-surface $-1 10 0 -2.5 -1 0 0 0 -0 1 forward_v I I I I #
coedge $-1 $49 $50 $51 $52 forward $39 $-1 #
face $-1 $53 $54 $36 $-1 $55 forward single #
loop $-1 $-1 $56 $41 #
cone-surface $-1 10 -10 2.5 0 0 -1 1.767766952966368654 -1.767766952966368654 0 1 I I 0 1 2.5 forward I I I I #
coedge $-1 $57 $58 $59 $60 reversed $42 $-1 #
coedge $-1 $59 $44 $61 $62 reversed $39 $-1 #
coedge $-1 $44 $59 $63 $64 reversed $39 $-1 #
coedge $-1 $65 $66 $44 $52 reversed $67 $-1 #
edge $-1 $68 -2.5 $69 2.5 $44 $70 forward 7 unknown #
face $-1 $71 $72 $36 $-1 $73 forward single #
loop $-1 $74 $75 $45 #
plane-surface $-1 0 0 0 0 0 1 1 0 0 forward_v I I I I #
coedge $-1 $76 $77 $78 $79 forward $46 $-1 #
coedge $-1 $80 $48 $81 $82 reversed $42 $-1 #
coedge $-1 $48 $80 $83 $84 forward $42 $-1 #
coedge $-1 $50 $49 $48 $60 forward $39 $-1 #
edge $-1 $85 -2.5 $86 2.5 $59 $87 forward 7 unknown #
coedge $-1 $75 $81 $49 $62 forward $54 $-1 #
edge $-1 $85 -0.785398163397448279 $69 0.785398163397448279 $49 $88 forward 7 unknown #
coedge $-1 $83 $89 $50 $64 forward $90 $-1 #
edge $-1 $68 -0.785398163397448279 $86 0.785398163397448279 $50 $91 forward 7 unknown #
coedge $-1 $92 $51 $89 $93 forward $67 $-1 #
coedge $-1 $51 $92 $75 $94 reversed $67 $-1 #
loop $-1 $-1 $51 $95 #
vertex $-1 $52 $96 #
vertex $-1 $52 $97 #
straight-curve $-1 7.5 -10 -2.5 0 0 1 I I #
face $-1 $98 $99 $36 $-1 $100 reversed single #
loop $-1 $-1 $101 $53 #
plane-surface $-1 12.5 0 2.5 -1 0 0 0 -0 1 forward_v I I I I #
loop $-1 $-1 $102 $45 #
coedge $-1 $103 $61 $66 $94 forward $54 $-1 #
coedge $-1 $104 $56 $105 $106 reversed $46 $-1 #
coedge $-1 $56 $104 $102 $107 reversed $46 $-1 #
coedge $-1 $108 $109 $56 $79 reversed $110 $-1 #
edge $-1 $111 -2.5 $112 2.5 $56 $113 forward 7 unknown #
coedge $-1 $58 $57 $114 $115 reversed $42 $-1 #
coedge $-1 $61 $116 $57 $82 forward $54 $-1 #
edge $-1 $117 -7.5 $85 7.5 $57 $118 forward 7 unknown #
coedge $-1 $119 $63 $58 $84 reversed $90 $-1 #
edge $-1 $120 -7.5 $86 7.5 $58 $121 forward 7 unknown #
vertex $-1 $62 $122 #
vertex $-1 $60 $123 #
straight-curve $-1 10 -7.5 -2.5 0 0 -1 I I #
ellipse-curve $-1 7.5 -7.5 0 0 0 -1 1.767766952966368876 -1.767766952966368876 0 1 I I #
coedge $-1 $63 $124 $65 $93 reversed $90 $-1 #
loop $-1 $125 $63 $126 #
ellipse-curve $-1 7.5 -7.5 -5 0 0 1 1.767766952966368876 -1.767766952966368876 0 1 I I #
coedge $-1 $66 $65 $127 $128 reversed $67 $-1 #
edge $-1 $68 -7.5 $129 7.5 $89 $130 forward 7 unknown #
edge $-1 $69 -7.5 $131 7.5 $75 $132 forward 7 unknown #
face $-1 $133 $67 $36 $-1 $134 forward single #
point $-1 7.5 -10 -5 #
point $-1 7.5 -10 0 #
face $-1 $135 $136 $36 $-1 $137 reversed single #
loop $-1 $-1 $138 $71 #
cone-surface $-1 10 10 2.5 0 0 -1 1.767766952966368654 1.767766952966368654 0 1 I I 0 1 2.5 forward I I I I #
coedge $-1 $139 $140 $104 $141 reversed $72 $-1 #
coedge $-1 $142 $143 $77 $107 forward $74 $-1 #
coedge $-1 $144 $75 $145 $146 forward $54 $-1 #
coedge $-1 $77 $76 $101 $141 forward $46 $-1 #
coedge $-1 $147 $148 $76 $106 forward $149 $-1 #
edge $-1 $150 -0.785398163397448279 $112 0.785398163397448279 $76 $151 forward 7 unknown #
edge $-1 $111 -0.785398163397448279 $152 0.785398163397448279 $77 $153 forward 7 unknown #
coedge $-1 $154 $78 $143 $155 forward $110 $-1 #
coedge $-1 $78 $154 $147 $156 reversed $110 $-1 #
loop $-1 $-1 $78 $157 #
vertex $-1 $79 $158 #
vertex $-1 $79 $159 #
straight-curve $-1 10 -12.5 2.5 0 0 1 I I #
coedge $-1 $160 $161 $80 $115 forward $136 $-1 #
edge $-1 $120 -2.5 $117 2.5 $80 $162 forward 7 unknown #
coedge $-1 $81 $163 $160 $164 forward $54 $-1 #
vertex $-1 $82 $165 #
straight-curve $-1 10 0 0 0 -1 0 I I #
coedge $-1 $166 $83 $161 $167 forward $90 $-1 #
vertex $-1 $115 $168 #
straight-curve $-1 10 0 -5 0 -1 0 I I #
point $-1 10 -7.5 0 #
point $-1 10 -7.5 -5 #
coedge $-1 $89 $169 $170 $171 forward $90 $-1 #
loop $-1 $172 $173 $126 #
face $-1 $95 $90 $36 $-1 $174 forward single #
coedge $-1 $170 $145 $92 $128 forward $175 $-1 #
edge $-1 $131 -2.5 $129 2.5 $127 $176 forward 7 unknown #
vertex $-1 $128 $177 #
straight-curve $-1 0 -10 -5 -1 0 0 I I #
vertex $-1 $94 $178 #
straight-curve $-1 0 -10 0 -1 0 0 I I #
face $-1 $157 $179 $36 $-1 $180 forward single #
plane-surface $-1 0 -10 -2.5 0 1 0 0 0 1 forward_v I I I I #
face $-1 $181 $182 $36 $-1 $183 reversed single #
loop $-1 $-1 $114 $98 #
cone-surface $-1 7.5 7.5 -2.5 0 0 -1 1.767766952966368654 1.767766952966368654 0 1 I I 0 1 2.5 forward I I I I #
coedge $-1 $184 $185 $186 $187 forward $99 $-1 #
coedge $-1 $186 $101 $148 $188 reversed $72 $-1 #
coedge $-1 $101 $186 $142 $189 forward $72 $-1 #
edge $-1 $150 -2.5 $152 2.5 $104 $190 forward 7 unknown #
coedge $-1 $191 $102 $140 $189 reversed $74 $-1 #
coedge $-1 $102 $192 $108 $155 reversed $74 $-1 #
coedge $-1 $193 $103 $194 $195 forward $54 $-1 #
coedge $-1 $127 $196 $103 $146 reversed $175 $-1 #
edge $-1 $131 -0.785398163397448279 $197 0.785398163397448279 $103 $198 forward 7 unknown #
coedge $-1 $199 $105 $109 $156 forward $149 $-1 #
coedge $-1 $105 $200 $139 $188 forward $149 $-1 #
loop $-1 $201 $147 $202 #
vertex $-1 $106 $203 #
ellipse-curve $-1 10 -10 5 0 0 -1 1.767766952966368876 -1.767766952966368876 0 1 I I #
vertex $-1 $141 $204 #
ellipse-curve $-1 10 -10 0 0 0 1 1.767766952966368876 -1.767766952966368876 0 1 I I #
coedge $-1 $109 $108 $205 $206 reversed $110 $-1 #
edge $-1 $111 -10 $207 10 $143 $208 forward 7 unknown #
edge $-1 $112 -10 $209 10 $109 $210 forward 7 unknown #
face $-1 $211 $110 $36 $-1 $212 forward single #
point $-1 10 -12.5 0 #
point $-1 10 -12.5 5 #
coedge $-1 $213 $114 $116 $164 reversed $136 $-1 #
coedge $-1 $114 $213 $119 $167 reversed $136 $-1 #
straight-curve $-1 10 7.5 -2.5 0 0 1 I I #
coedge $-1 $116 $193 $214 $215 forward $54 $-1 #
edge $-1 $216 -0.785398163397448279 $117 0.785398163397448279 $116 $217 forward 7 unknown #
point $-1 10 7.5 0 #
coedge $-1 $218 $119 $219 $220 reversed $90 $-1 #
edge $-1 $120 -0.785398163397448279 $221 0.785398163397448279 $161 $222 forward 7 unknown #
point $-1 10 7.5 -5 #
coedge $-1 $124 $218 $223 $224 reversed $90 $-1 #
coedge $-1 $196 $127 $124 $171 reversed $175 $-1 #
edge $-1 $225 -0.785398163397448279 $129 0.785398163397448279 $170 $226 forward 7 unknown #
loop $-1 $-1 $227 $126 #
coedge $-1 $228 $229 $230 $231 forward $125 $-1 #
plane-surface $-1 0 0 -5 0 0 1 1 0 0 forward_v I I I I #
loop $-1 $-1 $196 $232 #
straight-curve $-1 -7.5 -10 -2.5 0 0 -1 I I #
point $-1 -7.5 -10 -5 #
point $-1 -7.5 -10 0 #
loop $-1 $-1 $233 $133 #
plane-surface $-1 0 10 -2.5 0 -1 0 0 0 -1 forward_v I I I I #
face $-1 $234 $235 $36 $-1 $236 forward single #
loop $-1 $-1 $237 $135 #
cone-surface $-1 -7.5 7.5 -2.5 0 0 -1 -1.767766952966368654 1.767766952966368654 0 1 I I 0 1 2.5 forward I I I I #
coedge $-1 $238 $138 $200 $239 reversed $99 $-1 #
coedge $-1 $138 $238 $191 $240 reversed $99 $-1 #
coedge $-1 $140 $139 $138 $187 reversed $72 $-1 #
edge $-1 $241 -2.5 $242 2.5 $186 $243 forward 7 unknown #
edge $-1 $242 -10 $150 10 $139 $244 forward 7 unknown #
edge $-1 $241 -10 $152 10 $142 $245 forward 7 unknown #
straight-curve $-1 12.5 -10 2.5 0 0 -1 I I #
coedge $-1 $246 $142 $185 $240 forward $74 $-1 #
coedge $-1 $143 $247 $248 $249 forward $74 $-1 #
coedge $-1 $163 $144 $250 $251 forward $54 $-1 #
coedge $-1 $252 $253 $144 $195 reversed $235 $-1 #
edge $-1 $197 -7.5 $254 7.5 $144 $255 forward 7 unknown #
coedge $-1 $145 $170 $252 $256 forward $175 $-1 #
vertex $-1 $146 $257 #
ellipse-curve $-1 -7.5 -7.5 0 -0 0 -1 -1.767766952966368876 -1.767766952966368876 0 1 I I #
coedge $-1 $258 $147 $259 $260 forward $149 $-1 #
coedge $-1 $148 $261 $184 $239 forward $149 $-1 #
loop $-1 $-1 $262 $202 #
face $-1 $263 $149 $36 $-1 $264 forward single #
point $-1 12.5 -10 5 #
point $-1 12.5 -10 0 #
coedge $-1 $248 $259 $154 $206 forward $265 $-1 #
edge $-1 $209 -2.5 $207 2.5 $205 $266 forward 7 unknown #
vertex $-1 $249 $267 #
straight-curve $-1 0 -12.5 0 -1 0 0 I I #
vertex $-1 $260 $268 #
straight-curve $-1 0 -12.5 5 -1 0 0 I I #
face $-1 $202 $269 $36 $-1 $270 forward single #
plane-surface $-1 0 -12.5 2.5 0 1 0 0 0 1 forward_v I I I I #
coedge $-1 $161 $160 $233 $271 forward $136 $-1 #
coedge $-1 $272 $233 $163 $215 reversed $179 $-1 #
edge $-1 $273 -7.5 $216 7.5 $163 $274 forward 7 unknown #
vertex $-1 $215 $275 #
ellipse-curve $-1 7.5 7.5 0 0 0 -1 1.767766952966368876 1.767766952966368876 0 1 I I #
coedge $-1 $169 $166 $276 $277 forward $90 $-1 #
coedge $-1 $233 $272 $166 $220 forward $179 $-1 #
edge $-1 $278 -7.5 $221 7.5 $166 $279 forward 7 unknown #
vertex $-1 $271 $280 #
ellipse-curve $-1 7.5 7.5 -5 0 0 1 1.767766952966368876 1.767766952966368876 0 1 I I #
coedge $-1 $253 $252 $169 $224 forward $235 $-1 #
edge $-1 $225 -7.5 $281 7.5 $223 $282 forward 7 unknown #
vertex $-1 $256 $283 #
ellipse-curve $-1 -7.5 -7.5 -5 0 0 1 -1.767766952966368876 -1.767766952966368876 0 1 I I #
coedge $-1 $284 $285 $286 $287 forward $172 $-1 #
coedge $-1 $288 $173 $289 $290 forward $125 $-1 #
coedge $-1 $173 $291 $292 $293 forward $125 $-1 #
coedge $-1 $294 $295 $173 $231 reversed $296 $-1 #
edge $-1 $297 -2.500000000000000444 $298 -1.000000000000000444 $230 $299 forward 7 unknown #
face $-1 $300 $175 $36 $-1 $301 reversed single #
coedge $-1 $214 $219 $213 $271 reversed $179 $-1 #
face $-1 $302 $303 $36 $-1 $304 reversed single #
loop $-1 $-1 $253 $181 #
plane-surface $-1 -10 0 -2.5 1 0 0 0 0 -1 forward_v I I I I #
coedge $-1 $250 $276 $272 $305 forward $182 $-1 #
coedge $-1 $185 $184 $306 $307 forward $99 $-1 #
edge $-1 $308 -0.785398163397448279 $242 0.785398163397448279 $184 $309 forward 7 unknown #
edge $-1 $241 -0.785398163397448279 $310 0.785398163397448279 $191 $311 forward 7 unknown #
vertex $-1 $189 $312 #
vertex $-1 $188 $313 #
straight-curve $-1 12.5 10 2.5 0 0 1 I I #
straight-curve $-1 12.5 0 5 0 -1 0 I I #
straight-curve $-1 12.5 0 0 0 -1 0 I I #
coedge $-1 $314 $191 $315 $316 reversed $74 $-1 #
coedge $-1 $192 $314 $317 $318 reversed $74 $-1 #
coedge $-1 $319 $205 $192 $249 reversed $265 $-1 #
edge $-1 $320 -0.785398163397448279 $207 0.785398163397448279 $192 $321 forward 7 unknown #
coedge $-1 $322 $237 $193 $251 reversed $182 $-1 #
edge $-1 $254 -0.785398163397448279 $273 0.785398163397448279 $193 $323 forward 7 unknown #
coedge $-1 $223 $194 $196 $256 reversed $235 $-1 #
coedge $-1 $194 $223 $322 $324 reversed $235 $-1 #
vertex $-1 $195 $325 #
straight-curve $-1 -10 0 0 0 1 0 I I #
edge $-1 $225 -2.5 $197 2.5 $252 $326 forward 7 unknown #
point $-1 -10 -7.5 0 #
coedge $-1 $327 $199 $328 $329 forward $149 $-1 #
coedge $-1 $205 $319 $199 $260 reversed $265 $-1 #
edge $-1 $209 -0.785398163397448279 $330 0.785398163397448279 $259 $331 forward 7 unknown #
coedge $-1 $200 $327 $332 $333 forward $149 $-1 #
coedge $-1 $334 $335 $336 $337 forward $201 $-1 #
face $-1 $338 $339 $36 $-1 $340 reversed single #
plane-surface $-1 0 0 5 0 0 1 1 0 0 forward_v I I I I #
loop $-1 $-1 $319 $300 #
straight-curve $-1 -10 -12.5 2.5 0 0 -1 I I #
point $-1 -10 -12.5 0 #
point $-1 -10 -12.5 5 #
loop $-1 $-1 $306 $211 #
plane-surface $-1 0 12.5 2.5 0 -1 0 0 0 -1 forward_v I I I I #
edge $-1 $216 -2.5 $221 2.5 $213 $341 forward 7 unknown #
coedge $-1 $219 $214 $237 $305 reversed $179 $-1 #
vertex $-1 $251 $342 #
straight-curve $-1 0 10 0 1 0 0 I I #
point $-1 7.5 10 0 #
coedge $-1 $237 $322 $218 $277 reversed $182 $-1 #
edge $-1 $278 -0.785398163397448279 $281 0.785398163397448279 $276 $343 forward 7 unknown #
vertex $-1 $305 $344 #
straight-curve $-1 0 10 -5 1 0 0 I I #
point $-1 7.5 10 -5 #
vertex $-1 $324 $345 #
straight-curve $-1 -10 0 -5 0 1 0 I I #
point $-1 -10 -7.5 -5 #
coedge $-1 $346 $227 $347 $348 forward $172 $-1 #
coedge $-1 $227 $349 $350 $351 forward $172 $-1 #
coedge $-1 $352 $353 $227 $287 reversed $354 $-1 #
edge $-1 $355 -2.5 $356 -1 $286 $357 forward 7 unknown #
coedge $-1 $358 $228 $359 $360 forward $125 $-1 #
coedge $-1 $361 $362 $228 $290 reversed $363 $-1 #
edge $-1 $298 -0.785398163397448279 $364 0.785398163397448279 $289 $365 forward 7 unknown #
coedge $-1 $229 $366 $367 $368 forward $125 $-1 #
coedge $-1 $369 $370 $229 $293 reversed $371 $-1 #
edge $-1 $372 -9.25 $297 -1.25 $292 $373 forward 7 unknown #
coedge $-1 $374 $230 $370 $375 forward $296 $-1 #
coedge $-1 $230 $374 $361 $376 reversed $296 $-1 #
loop $-1 $-1 $295 $377 #
vertex $-1 $231 $378 #
vertex $-1 $376 $379 #
straight-curve $-1 -2.5 -4.440892098500630106e-16 -5 0 -1 0 I I #
face $-1 $380 $265 $36 $-1 $381 reversed single #
cone-surface $-1 -7.5 -7.5 -2.5 -0 0 -1 -1.767766952966368654 -1.767766952966368654 0 1 I I 0 1 2.5 forward I I I I #
face $-1 $232 $382 $36 $-1 $383 forward single #
loop $-1 $-1 $384 $234 #
cone-surface $-1 -10 10 2.5 0 0 -1 -1.767766952966368654 1.767766952966368654 0 1 I I 0 1 2.5 forward I I I I #
edge $-1 $278 -2.5 $273 2.5 $237 $385 forward 7 unknown #
coedge $-1 $332 $315 $238 $307 reversed $269 $-1 #
edge $-1 $308 -2.5 $310 2.5 $238 $386 forward 7 unknown #
vertex $-1 $239 $387 #
ellipse-curve $-1 10 10 5 0 0 -1 1.767766952966368876 1.767766952966368876 0 1 I I #
vertex $-1 $240 $388 #
ellipse-curve $-1 10 10 0 0 0 1 1.767766952966368876 1.767766952966368876 0 1 I I #
point $-1 12.5 10 0 #
point $-1 12.5 10 5 #
coedge $-1 $247 $246 $389 $390 forward $74 $-1 #
coedge $-1 $306 $391 $246 $316 forward $269 $-1 #
edge $-1 $392 -10 $310 10 $246 $393 forward 7 unknown #
coedge $-1 $394 $395 $247 $318 forward $382 $-1 #
edge $-1 $320 -10 $396 10 $247 $397 forward 7 unknown #
coedge $-1 $259 $248 $395 $398 forward $265 $-1 #
vertex $-1 $318 $399 #
ellipse-curve $-1 -10 -10 0 0 0 1 -1.767766952966368876 -1.767766952966368876 0 1 I I #
coedge $-1 $276 $250 $253 $324 forward $182 $-1 #
ellipse-curve $-1 -7.5 7.5 0 0 0 -1 -1.767766952966368876 1.767766952966368876 0 1 I I #
edge $-1 $254 -2.5 $281 2.5 $322 $400 forward 7 unknown #
point $-1 -10 7.5 0 #
straight-curve $-1 -10 -7.5 -2.5 0 0 1 I I #
coedge $-1 $261 $258 $401 $402 forward $149 $-1 #
coedge $-1 $395 $394 $258 $329 reversed $382 $-1 #
edge $-1 $330 -10 $403 10 $328 $404 forward 7 unknown #
vertex $-1 $329 $405 #
ellipse-curve $-1 -10 -10 5 -0 0 -1 -1.767766952966368876 -1.767766952966368876 0 1 I I #
coedge $-1 $391 $306 $261 $333 reversed $269 $-1 #
edge $-1 $406 -10 $308 10 $332 $407 forward 7 unknown #
coedge $-1 $408 $262 $409 $410 forward $201 $-1 #
coedge $-1 $262 $408 $411 $412 forward $201 $-1 #
coedge $-1 $413 $414 $262 $337 reversed $415 $-1 #
edge $-1 $416 -15 $417 15 $262 $418 forward 7 unknown #
face $-1 $419 $420 $36 $-1 $421 reversed single #
loop $-1 $-1 $422 $263 #
plane-surface $-1 15 15 -15 0 0 1 1 0 0 forward_v I I I I #
straight-curve $-1 7.5 10 -2.5 0 0 -1 I I #
point $-1 -7.5 10 0 #
ellipse-curve $-1 -7.5 7.5 -5 0 0 1 -1.767766952966368876 1.767766952966368876 0 1 I I #
point $-1 -7.5 10 -5 #
point $-1 -10 7.5 -5 #
coedge $-1 $423 $284 $424 $425 forward $172 $-1 #
coedge $-1 $426 $427 $284 $348 reversed $428 $-1 #
edge $-1 $356 -0.785398163397448279 $429 0.785398163397448279 $347 $430 forward 7 unknown #
coedge $-1 $285 $431 $432 $433 forward $172 $-1 #
coedge $-1 $434 $435 $285 $351 reversed $436 $-1 #
edge $-1 $437 -9.25 $355 -1.25 $350 $438 forward 7 unknown #
coedge $-1 $439 $286 $435 $440 forward $354 $-1 #
coedge $-1 $286 $439 $426 $441 reversed $354 $-1 #
loop $-1 $-1 $353 $442 #
vertex $-1 $287 $443 #
vertex $-1 $441 $444 #
straight-curve $-1 2.5 0 -5 0 1 0 I I #
coedge $-1 $445 $288 $446 $447 forward $125 $-1 #
coedge $-1 $448 $449 $288 $360 reversed $450 $-1 #
edge $-1 $364 1.625 $451 4.625 $359 $452 forward 7 unknown #
coedge $-1 $453 $289 $295 $376 forward $363 $-1 #
coedge $-1 $289 $453 $448 $454 forward $363 $-1 #
loop $-1 $-1 $361 $380 #
vertex $-1 $454 $455 #
ellipse-curve $-1 -3.5 1 -5 0 0 -1 0.7071067811865475727 -0.7071067811865475727 0 1 I I #
coedge $-1 $291 $456 $457 $458 forward $125 $-1 #
coedge $-1 $459 $460 $291 $368 reversed $461 $-1 #
edge $-1 $462 -0.785398163397448279 $372 0.785398163397448279 $367 $463 forward 7 unknown #
coedge $-1 $464 $292 $460 $465 reversed $371 $-1 #
coedge $-1 $292 $464 $294 $375 reversed $371 $-1 #
loop $-1 $-1 $369 $466 #
vertex $-1 $465 $467 #
straight-curve $-1 -3.75 2.5 -5 -1 1.224646799147350002e-16 0 I I #
coedge $-1 $295 $294 $468 $469 forward $296 $-1 #
edge $-1 $297 -2.5 $470 2.5 $294 $471 forward 7 unknown #
edge $-1 $298 -2.5 $472 2.5 $361 $473 forward 7 unknown #
face $-1 $474 $296 $36 $-1 $475 reversed single #
point $-1 -2.5 2.5 -5 #
point $-1 -2.5 1 -5 #
face $-1 $377 $363 $36 $-1 $476 reversed single #
cone-surface $-1 -10 -10 2.5 -0 0 -1 -1.767766952966368654 -1.767766952966368654 0 1 I I 0 1 2.5 forward I I I I #
loop $-1 $-1 $394 $302 #
plane-surface $-1 -12.5 0 2.5 1 0 0 0 0 -1 forward_v I I I I #
coedge $-1 $401 $389 $391 $477 forward $303 $-1 #
straight-curve $-1 -7.5 10 -2.5 0 0 1 I I #
straight-curve $-1 10 12.5 2.5 0 0 -1 I I #
point $-1 10 12.5 5 #
point $-1 10 12.5 0 #
coedge $-1 $384 $478 $314 $390 reversed $303 $-1 #
edge $-1 $392 -0.785398163397448279 $396 0.785398163397448279 $314 $479 forward 7 unknown #
coedge $-1 $315 $332 $384 $477 reversed $269 $-1 #
vertex $-1 $316 $480 #
straight-curve $-1 0 12.5 0 1 0 0 I I #
coedge $-1 $328 $317 $478 $481 reversed $382 $-1 #
coedge $-1 $317 $328 $319 $398 reversed $382 $-1 #
vertex $-1 $390 $482 #
straight-curve $-1 -12.5 0 0 0 1 0 I I #
edge $-1 $320 -2.5 $330 2.5 $395 $483 forward 7 unknown #
point $-1 -12.5 -10 0 #
straight-curve $-1 -10 7.5 -2.5 0 0 -1 I I #
coedge $-1 $478 $384 $327 $402 reversed $303 $-1 #
edge $-1 $403 -0.785398163397448279 $406 0.785398163397448279 $401 $484 forward 7 unknown #
vertex $-1 $402 $485 #
straight-curve $-1 -12.5 0 5 0 1 0 I I #
point $-1 -12.5 -10 5 #
vertex $-1 $477 $486 #
straight-curve $-1 0 12.5 5 1 0 0 I I #
coedge $-1 $335 $334 $487 $488 forward $201 $-1 #
coedge $-1 $489 $490 $334 $410 reversed $491 $-1 #
edge $-1 $417 -15 $492 15 $334 $493 forward 7 unknown #
coedge $-1 $494 $495 $335 $412 reversed $420 $-1 #
edge $-1 $496 -15 $416 15 $335 $497 forward 7 unknown #
coedge $-1 $498 $336 $495 $499 forward $415 $-1 #
coedge $-1 $336 $498 $489 $500 reversed $415 $-1 #
loop $-1 $-1 $413 $501 #
vertex $-1 $337 $502 #
vertex $-1 $337 $503 #
straight-curve $-1 15 0 5 0 1 0 I I #
face $-1 $504 $505 $36 $-1 $506 reversed single #
loop $-1 $-1 $494 $338 #
plane-surface $-1 0 -15 0 0 1 0 0 0 1 forward_v I I I I #
coedge $-1 $507 $508 $509 $510 reversed $339 $-1 #
coedge $-1 $511 $346 $512 $513 forward $172 $-1 #
coedge $-1 $514 $515 $346 $425 reversed $516 $-1 #
edge $-1 $429 1.625 $517 4.625 $424 $518 forward 7 unknown #
coedge $-1 $519 $347 $353 $441 forward $428 $-1 #
coedge $-1 $347 $519 $514 $520 forward $428 $-1 #
loop $-1 $-1 $426 $521 #
vertex $-1 $520 $522 #
ellipse-curve $-1 3.5 -1 -5 0 0 -1 -0.7071067811865475727 0.7071067811865475727 0 1 I I #
coedge $-1 $349 $523 $524 $525 forward $172 $-1 #
coedge $-1 $526 $527 $349 $433 reversed $528 $-1 #
edge $-1 $529 -0.785398163397448279 $437 0.785398163397448279 $432 $530 forward 7 unknown #
coedge $-1 $531 $350 $527 $532 reversed $436 $-1 #
coedge $-1 $350 $531 $352 $440 reversed $436 $-1 #
loop $-1 $-1 $434 $533 #
vertex $-1 $532 $534 #
straight-curve $-1 3.75 -2.5 -5 1 0 0 I I #
coedge $-1 $353 $352 $535 $536 forward $354 $-1 #
edge $-1 $355 -2.5 $537 2.5 $352 $538 forward 7 unknown #
edge $-1 $356 -2.5 $539 2.5 $426 $540 forward 7 unknown #
face $-1 $466 $354 $36 $-1 $541 reversed single #
point $-1 2.5 -2.5 -5 #
point $-1 2.5 -1 -5 #
coedge $-1 $542 $358 $543 $544 forward $125 $-1 #
coedge $-1 $545 $546 $358 $447 reversed $547 $-1 #
edge $-1 $451 -0.7853981633974489451 $548 0.7853981633974476129 $446 $549 forward 7 unknown #
coedge $-1 $550 $359 $362 $454 reversed $450 $-1 #
coedge $-1 $359 $550 $545 $551 reversed $450 $-1 #
loop $-1 $-1 $448 $552 #
vertex $-1 $447 $553 #
straight-curve $-1 -1.875 6.585571448599960407e-16 -5 -1 1.224646799147350002e-16 0 I I #
coedge $-1 $362 $361 $554 $555 reversed $363 $-1 #
edge $-1 $556 -2.5 $364 2.5 $362 $557 forward 7 unknown #
point $-1 -3.5 8.575622497214409523e-16 -5 #
coedge $-1 $366 $558 $559 $560 forward $125 $-1 #
coedge $-1 $561 $562 $366 $458 reversed $563 $-1 #
edge $-1 $564 -3 $462 -2 $457 $565 forward 7 unknown #
coedge $-1 $566 $367 $562 $567 forward $461 $-1 #
coedge $-1 $367 $566 $369 $465 forward $461 $-1 #
loop $-1 $-1 $460 $568 #
vertex $-1 $368 $569 #
ellipse-curve $-1 5.5 4.5 -5 0 0 -1 1.414213562373095145 -1.414213562373095145 0 1 I I #
coedge $-1 $370 $369 $570 $571 forward $371 $-1 #
edge $-1 $572 -5 $372 0 $460 $573 forward 7 unknown #
face $-1 $574 $371 $36 $-1 $575 forward single #
point $-1 5.5 2.5 -5 #
coedge $-1 $570 $554 $374 $469 reversed $576 $-1 #
edge $-1 $470 0 $472 1.5 $374 $577 forward 7 unknown #
vertex $-1 $375 $578 #
straight-curve $-1 -2.5 2.5 -7.5 0 0 -1 I I #
vertex $-1 $376 $579 #
straight-curve $-1 -2.5 1 -7.5 0 0 -1 I I #
face $-1 $552 $547 $36 $-1 $580 reversed single #
plane-surface $-1 -2.5 -8.881784197001250351e-16 -7.5 1 0 0 0 0 -1 forward_v I I I I #
cone-surface $-1 -3.5 1 -7.5 0 0 1 0.7071067811865475727 -0.7071067811865475727 0 1 I I 0 1 1 forward I I I I #
edge $-1 $392 -2.5 $406 2.5 $384 $581 forward 7 unknown #
coedge $-1 $389 $401 $394 $481 forward $303 $-1 #
ellipse-curve $-1 -10 10 0 0 0 1 -1.767766952966368876 1.767766952966368876 0 1 I I #
point $-1 -10 12.5 0 #
edge $-1 $403 -2.5 $396 2.5 $478 $582 forward 7 unknown #
point $-1 -12.5 10 0 #
straight-curve $-1 -12.5 -10 2.5 0 0 1 I I #
ellipse-curve $-1 -10 10 5 0 0 -1 -1.767766952966368876 1.767766952966368876 0 1 I I #
point $-1 -12.5 10 5 #
point $-1 -10 12.5 5 #
coedge $-1 $583 $584 $408 $488 reversed $505 $-1 #
edge $-1 $492 -15 $496 15 $408 $585 forward 7 unknown #
coedge $-1 $509 $409 $414 $500 forward $491 $-1 #
coedge $-1 $409 $509 $583 $586 reversed $491 $-1 #
loop $-1 $-1 $489 $504 #
vertex $-1 $410 $587 #
straight-curve $-1 0 15 5 -1 0 0 I I #
coedge $-1 $588 $411 $584 $589 forward $420 $-1 #
coedge $-1 $411 $588 $413 $499 reversed $420 $-1 #
vertex $-1 $488 $590 #
straight-curve $-1 0 -15 5 1 0 0 I I #
coedge $-1 $414 $413 $507 $591 forward $415 $-1 #
edge $-1 $416 -5 $592 15 $495 $593 forward 7 unknown #
edge $-1 $417 -5 $594 15 $489 $595 forward 7 unknown #
face $-1 $-1 $415 $36 $-1 $596 reversed single #
point $-1 15 -15 5 #
point $-1 15 15 5 #
face $-1 $501 $491 $36 $-1 $597 reversed single #
loop $-1 $-1 $583 $419 #
plane-surface $-1 -15 0 0 1 0 0 0 0 -1 forward_v I I I I #
coedge $-1 $598 $422 $498 $591 reversed $339 $-1 #
coedge $-1 $422 $598 $599 $600 reversed $339 $-1 #
coedge $-1 $490 $489 $422 $510 forward $491 $-1 #
edge $-1 $594 -15 $601 15 $422 $602 forward 7 unknown #
coedge $-1 $603 $423 $604 $605 forward $172 $-1 #
coedge $-1 $606 $607 $423 $513 reversed $608 $-1 #
edge $-1 $517 -0.785398163397448279 $609 0.785398163397448279 $512 $610 forward 7 unknown #
coedge $-1 $611 $424 $427 $520 reversed $516 $-1 #
coedge $-1 $424 $611 $606 $612 reversed $516 $-1 #
loop $-1 $-1 $515 $613 #
vertex $-1 $513 $614 #
straight-curve $-1 1.875 0 -5 1 0 0 I I #
coedge $-1 $427 $426 $615 $616 reversed $428 $-1 #
edge $-1 $617 -2.5 $429 2.5 $427 $618 forward 7 unknown #
face $-1 $442 $428 $36 $-1 $619 reversed single #
point $-1 3.5 0 -5 #
coedge $-1 $431 $620 $621 $622 forward $172 $-1 #
coedge $-1 $623 $624 $431 $525 reversed $625 $-1 #
edge $-1 $626 -3 $529 -2 $524 $627 forward 7 unknown #
coedge $-1 $628 $432 $624 $629 forward $528 $-1 #
coedge $-1 $432 $628 $434 $532 forward $528 $-1 #
loop $-1 $-1 $527 $630 #
vertex $-1 $433 $631 #
ellipse-curve $-1 -5.5 -4.5 -5 0 0 -1 -1.414213562373095145 1.414213562373095145 0 1 I I #
coedge $-1 $435 $434 $632 $633 forward $436 $-1 #
edge $-1 $634 -5 $437 0 $527 $635 forward 7 unknown #
face $-1 $613 $436 $36 $-1 $636 forward single #
point $-1 -5.5 -2.5 -5 #
coedge $-1 $632 $615 $439 $536 reversed $637 $-1 #
edge $-1 $537 0 $539 1.5 $535 $638 forward 7 unknown #
vertex $-1 $536 $639 #
straight-curve $-1 2.5 -2.5 -7.5 0 0 -1 I I #
vertex $-1 $616 $640 #
straight-curve $-1 2.5 -1 -7.5 0 0 -1 I I #
plane-surface $-1 2.5 0 -7.5 -1 0 0 0 -0 1 forward_v I I I I #
coedge $-1 $558 $445 $641 $642 forward $125 $-1 #
coedge $-1 $643 $644 $445 $544 reversed $645 $-1 #
edge $-1 $548 -2.125 $646 2.375 $543 $647 forward 7 unknown #
coedge $-1 $648 $446 $449 $551 forward $547 $-1 #
coedge $-1 $446 $648 $643 $649 forward $547 $-1 #
loop $-1 $-1 $546 $474 #
vertex $-1 $649 $650 #
ellipse-curve $-1 -6.5 1 -5 -0 0 -1 -0.7071067811865480168 -0.7071067811865470176 0 1 I I #
coedge $-1 $449 $448 $651 $652 forward $450 $-1 #
edge $-1 $451 -2.5 $653 2.5 $545 $654 forward 7 unknown #
face $-1 $655 $450 $36 $-1 $656 forward single #
point $-1 -6.5 1.224956289465650045e-15 -5 #
coedge $-1 $468 $651 $453 $555 forward $576 $-1 #
edge $-1 $556 -0.785398163397448279 $472 0.785398163397448279 $453 $657 forward 7 unknown #
vertex $-1 $555 $658 #
straight-curve $-1 -3.5 8.881784197001250351e-16 -7.5 0 0 1 I I #
coedge $-1 $456 $542 $659 $660 forward $125 $-1 #
coedge $-1 $661 $662 $456 $560 reversed $663 $-1 #
edge $-1 $664 -0.785398163397448279 $564 0.785398163397448279 $559 $665 forward 7 unknown #
coedge $-1 $666 $457 $662 $667 reversed $563 $-1 #
coedge $-1 $457 $666 $459 $567 reversed $563 $-1 #
loop $-1 $-1 $561 $668 #
vertex $-1 $667 $669 #
straight-curve $-1 7.5 2.5 -5 -1.224646799147350002e-16 -1 0 I I #
coedge $-1 $460 $459 $670 $671 reversed $461 $-1 #
edge $-1 $462 0 $672 5 $459 $673 forward 7 unknown #
face $-1 $668 $461 $36 $-1 $674 reversed single #
point $-1 7.5 4.5 -5 #
coedge $-1 $670 $468 $464 $571 reversed $576 $-1 #
edge $-1 $572 -1.75 $470 6.25 $464 $675 forward 7 unknown #
vertex $-1 $465 $676 #
straight-curve $-1 5.5 2.5 -5 0 0 1 I I #
face $-1 $533 $576 $36 $-1 $677 reversed single #
plane-surface $-1 -7.5 2.5 -5 1.224646799147350002e-16 1 0 0 0 1 forward_v I I I I #
loop $-1 $-1 $554 $574 #
straight-curve $-1 -2.5 2.5 -10 0 -1 0 I I #
point $-1 -2.5 2.5 -10 #
point $-1 -2.5 1 -10 #
cone-surface $-1 -6.5 1 -7.5 -0 0 -1 -0.7071067811865480168 -0.7071067811865470176 0 1 I I 0 1 1 forward I I I I #
straight-curve $-1 -10 12.5 2.5 0 0 1 I I #
straight-curve $-1 -12.5 10 2.5 0 0 -1 I I #
coedge $-1 $599 $487 $490 $586 forward $505 $-1 #
coedge $-1 $487 $599 $494 $589 reversed $505 $-1 #
straight-curve $-1 -15 0 5 0 -1 0 I I #
edge $-1 $492 -5 $601 15 $583 $678 forward 7 unknown #
point $-1 -15 15 5 #
coedge $-1 $495 $494 $598 $679 forward $420 $-1 #
edge $-1 $496 -5 $680 15 $494 $681 forward 7 unknown #
point $-1 -15 -15 5 #
edge $-1 $592 -15 $594 15 $507 $682 forward 7 unknown #
vertex $-1 $591 $683 #
straight-curve $-1 15 -15 0 0 0 -1 I I #
vertex $-1 $510 $684 #
straight-curve $-1 15 15 0 0 0 -1 I I #
plane-surface $-1 15 0 0 -1 0 0 0 -0 1 forward_v I I I I #
plane-surface $-1 0 15 0 0 -1 0 0 0 -1 forward_v I I I I #
coedge $-1 $508 $507 $588 $679 reversed $339 $-1 #
coedge $-1 $584 $583 $508 $600 forward $505 $-1 #
edge $-1 $601 -15 $680 15 $508 $685 forward 7 unknown #
vertex $-1 $510 $686 #
straight-curve $-1 0 15 -15 -1 0 0 I I #
coedge $-1 $620 $511 $687 $688 forward $172 $-1 #
coedge $-1 $689 $690 $511 $605 reversed $691 $-1 #
edge $-1 $609 -2.125 $692 2.375 $604 $693 forward 7 unknown #
coedge $-1 $694 $512 $515 $612 forward $608 $-1 #
coedge $-1 $512 $694 $689 $695 forward $608 $-1 #
loop $-1 $-1 $607 $696 #
vertex $-1 $695 $697 #
ellipse-curve $-1 6.5 -1 -5 0 0 -1 0.7071067811865475727 0.7071067811865475727 0 1 I I #
coedge $-1 $515 $514 $698 $699 forward $516 $-1 #
edge $-1 $517 -2.5 $700 2.5 $606 $701 forward 7 unknown #
face $-1 $126 $516 $36 $-1 $702 forward single #
point $-1 6.5 0 -5 #
coedge $-1 $535 $698 $519 $616 forward $637 $-1 #
edge $-1 $617 -0.785398163397448279 $539 0.785398163397448279 $615 $703 forward 7 unknown #
vertex $-1 $699 $704 #
straight-curve $-1 3.5 0 -7.5 0 0 1 I I #
cone-surface $-1 3.5 -1 -7.5 0 0 1 -0.7071067811865475727 0.7071067811865475727 0 1 I I 0 1 1 forward I I I I #
coedge $-1 $523 $603 $705 $706 forward $172 $-1 #
coedge $-1 $707 $708 $523 $622 reversed $709 $-1 #
edge $-1 $710 -0.785398163397448279 $626 0.785398163397448279 $621 $711 forward 7 unknown #
coedge $-1 $712 $524 $708 $713 reversed $625 $-1 #
coedge $-1 $524 $712 $526 $629 reversed $625 $-1 #
loop $-1 $-1 $624 $714 #
vertex $-1 $525 $715 #
straight-curve $-1 -7.5 -2.5 -5 0 1 0 I I #
coedge $-1 $527 $526 $716 $717 reversed $528 $-1 #
edge $-1 $529 0 $718 5 $526 $719 forward 7 unknown #
face $-1 $720 $528 $36 $-1 $721 reversed single #
point $-1 -7.5 -4.5 -5 #
coedge $-1 $716 $535 $531 $633 reversed $637 $-1 #
edge $-1 $634 -1.75 $537 6.25 $632 $722 forward 7 unknown #
vertex $-1 $532 $723 #
straight-curve $-1 -5.5 -2.5 -5 0 0 1 I I #
plane-surface $-1 7.5 -2.5 -5 0 -1 0 0 0 -1 forward_v I I I I #
loop $-1 $-1 $724 $720 #
straight-curve $-1 2.5 -2.5 -10 0 1 0 I I #
point $-1 2.5 -2.5 -10 #
point $-1 2.5 -1 -10 #
coedge $-1 $725 $726 $542 $642 reversed $727 $-1 #
edge $-1 $646 -0.785398163397448279 $728 0.785398163397448279 $641 $729 forward 7 unknown #
coedge $-1 $730 $543 $546 $649 reversed $645 $-1 #
coedge $-1 $543 $730 $725 $731 reversed $645 $-1 #
loop $-1 $-1 $643 $732 #
vertex $-1 $731 $733 #
straight-curve $-1 -7.5 3.125 -5 1.224646799147350002e-16 1 0 I I #
coedge $-1 $546 $545 $734 $735 reversed $547 $-1 #
edge $-1 $736 -2.5 $548 2.5 $546 $737 forward 7 unknown #
point $-1 -7.5 1 -5 #
coedge $-1 $554 $734 $550 $652 reversed $576 $-1 #
edge $-1 $556 -0.25 $653 2.75 $550 $738 forward 7 unknown #
vertex $-1 $551 $739 #
straight-curve $-1 -6.5 1.332267629550190018e-15 -7.5 0 0 -1 I I #
face $-1 $732 $727 $36 $-1 $740 reversed single #
plane-surface $-1 -3.75 8.881784197001250351e-16 -7.5 1.224646799147350002e-16 1 0 0 0 1 forward_v I I I I #
ellipse-curve $-1 -3.5 1 -10 0 0 1 0.7071067811865475727 -0.7071067811865475727 0 1 I I #
point $-1 -3.5 8.575622497214409523e-16 -10 #
coedge $-1 $741 $742 $558 $660 reversed $743 $-1 #
edge $-1 $728 -5.500000000000000888 $664 5.499999999999999112 $659 $744 forward 7 unknown #
coedge $-1 $745 $559 $742 $746 forward $663 $-1 #
coedge $-1 $559 $745 $561 $667 forward $663 $-1 #
loop $-1 $-1 $662 $747 #
vertex $-1 $560 $748 #
ellipse-curve $-1 5.5 5.5 -5 0 0 -1 1.414213562373095145 1.414213562373095145 0 1 I I #
coedge $-1 $562 $561 $749 $750 forward $563 $-1 #
edge $-1 $751 -3.75 $564 1.25 $662 $752 forward 7 unknown #
face $-1 $753 $563 $36 $-1 $754 reversed single #
point $-1 7.5 5.5 -5 #
coedge $-1 $749 $570 $566 $671 forward $576 $-1 #
edge $-1 $572 -0.785398163397448279 $672 0.785398163397448279 $566 $755 forward 7 unknown #
vertex $-1 $567 $756 #
straight-curve $-1 7.5 4.5 -5 0 0 -1 I I #
cone-surface $-1 5.5 4.5 -5 0 0 -1 1.414213562373095145 -1.414213562373095145 0 1 I I 0 1 2 forward I I I I #
straight-curve $-1 3.75 2.5 -10 -1 0 0 I I #
point $-1 5.5 2.5 -10 #
plane-surface $-1 7.5 5 -10 0 0 -1 -1 0 0 forward_v I I I I #
straight-curve $-1 -15 15 0 0 0 -1 I I #
edge $-1 $680 -15 $592 15 $598 $757 forward 7 unknown #
vertex $-1 $679 $758 #
straight-curve $-1 -15 -15 0 0 0 -1 I I #
straight-curve $-1 15 0 -15 0 1 0 I I #
point $-1 15 -15 -15 #
point $-1 15 15 -15 #
straight-curve $-1 -15 0 -15 0 -1 0 I I #
point $-1 -15 15 -15 #
coedge $-1 $759 $760 $603 $688 reversed $761 $-1 #
edge $-1 $692 -0.785398163397448279 $762 0.785398163397448279 $687 $763 forward 7 unknown #
coedge $-1 $764 $604 $607 $695 reversed $691 $-1 #
coedge $-1 $604 $764 $759 $765 reversed $691 $-1 #
loop $-1 $-1 $690 $766 #
vertex $-1 $765 $767 #
straight-curve $-1 7.5 -3.125 -5 0 -1 0 I I #
coedge $-1 $607 $606 $768 $769 reversed $608 $-1 #
edge $-1 $770 -2.5 $609 2.5 $607 $771 forward 7 unknown #
face $-1 $766 $608 $36 $-1 $772 reversed single #
point $-1 7.5 -1 -5 #
coedge $-1 $615 $768 $611 $699 reversed $637 $-1 #
edge $-1 $617 -0.25 $700 2.75 $698 $773 forward 7 unknown #
vertex $-1 $769 $774 #
straight-curve $-1 6.5 0 -7.5 0 0 -1 I I #
plane-surface $-1 3.75 0 -7.5 0 -1 0 0 0 -1 forward_v I I I I #
ellipse-curve $-1 3.5 -1 -10 0 0 1 -0.7071067811865475727 0.7071067811865475727 0 1 I I #
point $-1 3.5 0 -10 #
coedge $-1 $775 $776 $620 $706 reversed $777 $-1 #
edge $-1 $762 -5.5 $710 5.5 $705 $778 forward 7 unknown #
coedge $-1 $779 $621 $776 $780 forward $709 $-1 #
coedge $-1 $621 $779 $623 $713 forward $709 $-1 #
loop $-1 $-1 $708 $781 #
vertex $-1 $780 $782 #
ellipse-curve $-1 -5.5 -5.5 -5 -0 0 -1 -1.414213562373095145 -1.414213562373095145 0 1 I I #
coedge $-1 $624 $623 $783 $784 forward $625 $-1 #
edge $-1 $785 -3.75 $626 1.25 $623 $786 forward 7 unknown #
face $-1 $781 $625 $36 $-1 $787 reversed single #
point $-1 -7.5 -5.5 -5 #
coedge $-1 $783 $632 $628 $717 forward $637 $-1 #
edge $-1 $634 -0.785398163397448279 $718 0.785398163397448279 $628 $788 forward 7 unknown #
vertex $-1 $629 $789 #
straight-curve $-1 -7.5 -4.5 -5 0 0 -1 I I #
face $-1 $714 $637 $36 $-1 $790 reversed single #
cone-surface $-1 -5.5 -4.5 -5 0 0 -1 -1.414213562373095145 1.414213562373095145 0 1 I I 0 1 2 forward I I I I #
straight-curve $-1 -3.75 -2.5 -10 1 0 0 I I #
point $-1 -5.5 -2.5 -10 #
coedge $-1 $791 $792 $793 $794 forward $637 $-1 #
coedge $-1 $795 $641 $644 $731 forward $727 $-1 #
coedge $-1 $641 $795 $741 $796 forward $727 $-1 #
loop $-1 $-1 $725 $655 #
vertex $-1 $796 $797 #
ellipse-curve $-1 -5.5 5.5 -5 0 0 -1 -1.414213562373095145 1.414213562373095145 0 1 I I #
coedge $-1 $644 $643 $798 $799 forward $645 $-1 #
edge $-1 $646 -2.5 $800 2.5 $725 $801 forward 7 unknown #
face $-1 $747 $645 $36 $-1 $802 forward single #
point $-1 -7.5 5.5 -5 #
coedge $-1 $651 $798 $648 $735 forward $576 $-1 #
edge $-1 $736 -0.7853981633974476129 $653 0.7853981633974489451 $648 $803 forward 7 unknown #
vertex $-1 $649 $804 #
straight-curve $-1 -7.5 1 -7.5 0 0 1 I I #
straight-curve $-1 -3.75 8.881784197001250351e-16 -10 -1 1.224646799147350002e-16 0 I I #
point $-1 -6.5 1.224956289465650045e-15 -10 #
cone-surface $-1 -5.5 5.5 -7.5 0 0 1 -1.414213562373095145 1.414213562373095145 0 1 I I 0 1 2 forward I I I I #
coedge $-1 $805 $659 $726 $796 reversed $743 $-1 #
coedge $-1 $659 $805 $661 $746 reversed $743 $-1 #
loop $-1 $-1 $741 $806 #
straight-curve $-1 5.357829746269669634e-16 7.5 -5 1 -1.224646799147350002e-16 0 I I #
coedge $-1 $662 $661 $807 $808 reversed $663 $-1 #
edge $-1 $664 -1.25 $809 3.75 $661 $810 forward 7 unknown #
face $-1 $806 $663 $36 $-1 $811 reversed single #
point $-1 5.5 7.5 -5 #
coedge $-1 $807 $670 $666 $750 reversed $576 $-1 #
edge $-1 $751 -0.5 $672 0.5 $666 $812 forward 7 unknown #
vertex $-1 $667 $813 #
straight-curve $-1 7.5 5.5 -6.25 0 0 1 I I #
face $-1 $814 $761 $36 $-1 $815 reversed single #
plane-surface $-1 7.5 5 -5 1 -1.224646799147350002e-16 0 0 0 -1 forward_v I I I I #
ellipse-curve $-1 5.5 4.5 -10 0 0 1 1.414213562373095145 -1.414213562373095145 0 1 I I #
point $-1 7.5 4.5 -10 #
straight-curve $-1 0 -15 -15 1 0 0 I I #
point $-1 -15 -15 -15 #
coedge $-1 $793 $687 $690 $765 forward $761 $-1 #
coedge $-1 $687 $793 $775 $816 forward $761 $-1 #
loop $-1 $-1 $759 $753 #
vertex $-1 $816 $817 #
ellipse-curve $-1 5.5 -5.5 -5 0 0 -1 1.414213562373095145 -1.414213562373095145 0 1 I I #
coedge $-1 $690 $689 $791 $818 forward $691 $-1 #
edge $-1 $692 -2.5 $819 2.5 $759 $820 forward 7 unknown #
face $-1 $521 $691 $36 $-1 $821 forward single #
point $-1 7.5 -5.5 -5 #
coedge $-1 $698 $791 $694 $769 forward $637 $-1 #
edge $-1 $770 -0.785398163397448279 $700 0.785398163397448279 $768 $822 forward 7 unknown #
vertex $-1 $818 $823 #
straight-curve $-1 7.5 -1 -7.5 0 0 1 I I #
cone-surface $-1 6.5 -1 -7.5 0 0 -1 0.7071067811865475727 0.7071067811865475727 0 1 I I 0 1 1 forward I I I I #
straight-curve $-1 3.75 0 -10 1 0 0 I I #
point $-1 6.5 0 -10 #
coedge $-1 $824 $705 $760 $816 reversed $777 $-1 #
coedge $-1 $705 $824 $707 $780 reversed $777 $-1 #
loop $-1 $-1 $775 $814 #
straight-curve $-1 0 -7.5 -5 -1 0 0 I I #
coedge $-1 $708 $707 $825 $826 reversed $709 $-1 #
edge $-1 $710 -1.25 $827 3.75 $776 $828 forward 7 unknown #
face $-1 $696 $709 $36 $-1 $829 reversed single #
point $-1 -5.5 -7.5 -5 #
coedge $-1 $825 $716 $712 $784 reversed $637 $-1 #
edge $-1 $785 -0.5 $718 0.5 $783 $830 forward 7 unknown #
vertex $-1 $784 $831 #
straight-curve $-1 -7.5 -5.5 -6.25 0 0 1 I I #
plane-surface $-1 -7.5 -5 -5 -1 0 0 0 -0 1 forward_v I I I I #
ellipse-curve $-1 -5.5 -4.5 -10 0 0 1 -1.414213562373095145 1.414213562373095145 0 1 I I #
point $-1 -7.5 -4.5 -10 #
plane-surface $-1 -7.5 -5 -10 0 0 -1 -1 0 0 forward_v I I I I #
coedge $-1 $768 $724 $764 $818 reversed $637 $-1 #
coedge $-1 $724 $825 $824 $832 reversed $637 $-1 #
coedge $-1 $760 $759 $724 $794 reversed $761 $-1 #
edge $-1 $833 -0.785398163397448279 $819 0.785398163397448279 $793 $834 forward 7 unknown #
coedge $-1 $726 $725 $835 $836 reversed $727 $-1 #
edge $-1 $837 -2.5 $728 2.5 $726 $838 forward 7 unknown #
point $-1 -5.5 7.5 -5 #
coedge $-1 $734 $835 $730 $799 reversed $576 $-1 #
edge $-1 $736 -5.25 $800 -0.75 $730 $839 forward 7 unknown #
vertex $-1 $731 $840 #
straight-curve $-1 -7.5 5.5 -7.5 0 0 -1 I I #
plane-surface $-1 -7.5 6.25 -7.5 1 -1.224646799147350002e-16 0 0 0 -1 forward_v I I I I #
ellipse-curve $-1 -6.5 1 -10 0 0 1 -0.7071067811865480168 -0.7071067811865470176 0 1 I I #
point $-1 -7.5 1 -10 #
coedge $-1 $742 $741 $841 $842 forward $743 $-1 #
face $-1 $568 $743 $36 $-1 $843 forward single #
coedge $-1 $841 $749 $745 $808 forward $576 $-1 #
edge $-1 $751 -0.785398163397448279 $809 0.785398163397448279 $745 $844 forward 7 unknown #
vertex $-1 $746 $845 #
straight-curve $-1 5.5 7.5 -6.25 0 0 -1 I I #
cone-surface $-1 5.5 5.5 -6.25 0 0 -1 1.414213562373095145 1.414213562373095145 0 1 I I 0 1 2 forward I I I I #
straight-curve $-1 7.5 5 -10 -1.224646799147350002e-16 -1 0 I I #
point $-1 7.5 5.5 -10 #
face $-1 $630 $777 $36 $-1 $846 forward single #
cone-surface $-1 5.5 -5.5 -7.5 0 0 1 1.414213562373095145 -1.414213562373095145 0 1 I I 0 1 2 forward I I I I #
edge $-1 $833 -2.5 $762 2.5 $760 $847 forward 7 unknown #
point $-1 5.5 -7.5 -5 #
edge $-1 $770 -5.25 $819 -0.75 $791 $848 forward 7 unknown #
vertex $-1 $765 $849 #
straight-curve $-1 7.5 -5.5 -7.5 0 0 -1 I I #
plane-surface $-1 7.5 -6.25 -7.5 -1 0 0 0 -0 1 forward_v I I I I #
ellipse-curve $-1 6.5 -1 -10 0 0 1 0.7071067811865475727 0.7071067811865475727 0 1 I I #
point $-1 7.5 -1 -10 #
coedge $-1 $776 $775 $792 $832 forward $777 $-1 #
coedge $-1 $792 $783 $779 $826 forward $637 $-1 #
edge $-1 $785 -0.785398163397448279 $827 0.785398163397448279 $825 $850 forward 7 unknown #
vertex $-1 $832 $851 #
straight-curve $-1 -5.5 -7.5 -6.25 0 0 -1 I I #
cone-surface $-1 -5.5 -5.5 -6.25 -0 0 -1 -1.414213562373095145 -1.414213562373095145 0 1 I I 0 1 2 forward I I I I #
straight-curve $-1 -7.5 -5 -10 0 1 0 I I #
point $-1 -7.5 -5.5 -10 #
edge $-1 $833 -5.5 $827 5.5 $824 $852 forward 7 unknown #
vertex $-1 $794 $853 #
ellipse-curve $-1 5.5 -5.5 -10 0 0 1 1.414213562373095145 -1.414213562373095145 0 1 I I #
coedge $-1 $798 $841 $795 $836 forward $576 $-1 #
edge $-1 $837 -0.785398163397448279 $800 0.785398163397448279 $795 $854 forward 7 unknown #
vertex $-1 $836 $855 #
straight-curve $-1 -5.5 7.5 -7.5 0 0 1 I I #
straight-curve $-1 -7.5 6.25 -10 1.224646799147350002e-16 1 0 I I #
point $-1 -7.5 5.5 -10 #
coedge $-1 $835 $807 $805 $842 reversed $576 $-1 #
edge $-1 $837 -5.5 $809 5.5 $805 $856 forward 7 unknown #
plane-surface $-1 1.530808498934190091e-16 7.5 -7.5 -1.224646799147350002e-16 -1 0 0 -0 -1 forward_v I I I I #
ellipse-curve $-1 5.5 5.5 -10 0 0 1 1.414213562373095145 1.414213562373095145 0 1 I I #
point $-1 5.5 7.5 -10 #
plane-surface $-1 0 -7.5 -7.5 0 1 0 0 0 1 forward_v I I I I #
straight-curve $-1 5.5 -7.5 -7.5 0 0 1 I I #
straight-curve $-1 7.5 -6.25 -10 0 -1 0 I I #
point $-1 7.5 -5.5 -10 #
ellipse-curve $-1 -5.5 -5.5 -10 0 0 1 -1.414213562373095145 -1.414213562373095145 0 1 I I #
point $-1 -5.5 -7.5 -10 #
straight-curve $-1 0 -7.5 -10 -1 0 0 I I #
point $-1 5.5 -7.5 -10 #
ellipse-curve $-1 -5.5 5.5 -10 0 0 1 -1.414213562373095145 1.414213562373095145 0 1 I I #
point $-1 -5.5 7.5 -10 #
straight-curve $-1 1.530808498934190091e-16 7.5 -10 1 -1.224646799147350002e-16 0 I I #
End-of-ACIS-data 