  0
SECTION
  2
HEADER
  9
$ACADVER
  1
AC1009
  9
$INSBASE
 10
0.0
 20
0.0
 30
0.0
  9
$EXTMIN
 10
-1.0
 20
-1.0
 30
-0.305503
  9
$EXTMAX
 10
20.0
 20
20.0
 30
6.110065
  9
$LIMMIN
 10
0.0
 20
0.0
  9
$LIMMAX
 10
12.0
 20
9.0
  9
$ORTHOMODE
 70
     0
  9
$REGENMODE
 70
     1
  9
$FILLMODE
 70
     1
  9
$QTEXTMODE
 70
     0
  9
$MIRRTEXT
 70
     1
  9
$DRAGMODE
 70
     2
  9
$LTSCALE
 40
1.0
  9
$OSMODE
 70
     0
  9
$ATTMODE
 70
     1
  9
$TEXTSIZE
 40
0.2
  9
$TRACEWID
 40
0.05
  9
$TEXTSTYLE
  7
STANDARD
  9
$CLAYER
  8
0
  9
$CELTYPE
  6
BYLAYER
  9
$CECOLOR
 62
   256
  9
$DIMSCALE
 40
1.0
  9
$DIMASZ
 40
0.18
  9
$DIMEXO
 40
0.0625
  9
$DIMDLI
 40
0.38
  9
$DIMRND
 40
0.0
  9
$DIMDLE
 40
0.0
  9
$DIMEXE
 40
0.18
  9
$DIMTP
 40
0.0
  9
$DIMTM
 40
0.0
  9
$DIMTXT
 40
0.18
  9
$DIMCEN
 40
0.09
  9
$DIMTSZ
 40
0.0
  9
$DIMTOL
 70
     0
  9
$DIMLIM
 70
     0
  9
$DIMTIH
 70
     1
  9
$DIMTOH
 70
     1
  9
$DIMSE1
 70
     0
  9
$DIMSE2
 70
     0
  9
$DIMTAD
 70
     0
  9
$DIMZIN
 70
     0
  9
$DIMBLK
  1

  9
$DIMASO
 70
     1
  9
$DIMSHO
 70
     1
  9
$DIMPOST
  1

  9
$DIMAPOST
  1

  9
$DIMALT
 70
     0
  9
$DIMALTD
 70
     2
  9
$DIMALTF
 40
25.4
  9
$DIMLFAC
 40
1.0
  9
$DIMTOFL
 70
     0
  9
$DIMTVP
 40
0.0
  9
$DIMTIX
 70
     0
  9
$DIMSOXD
 70
     0
  9
$DIMSAH
 70
     0
  9
$DIMBLK1
  1

  9
$DIMBLK2
  1

  9
$DIMSTYLE
  2
*UNNAMED
  9
$DIMCLRD
 70
     0
  9
$DIMCLRE
 70
     0
  9
$DIMCLRT
 70
     0
  9
$DIMTFAC
 40
1.0
  9
$DIMGAP
 40
0.09
  9
$LUNITS
 70
     2
  9
$LUPREC
 70
     4
  9
$SKETCHINC
 40
0.1
  9
$FILLETRAD
 40
0.0
  9
$AUNITS
 70
     0
  9
$AUPREC
 70
     0
  9
$MENU
  1
acad
  9
$ELEVATION
 40
0.0
  9
$PELEVATION
 40
0.0
  9
$THICKNESS
 40
0.0
  9
$LIMCHECK
 70
     0
  9
$BLIPMODE
 70
     1
  9
$CHAMFERA
 40
0.0
  9
$CHAMFERB
 40
0.0
  9
$SKPOLY
 70
     0
  9
$TDCREATE
 40
2449366.443727014
  9
$TDUPDATE
 40
2449366.451676145
  9
$TDINDWG
 40
0.0079491319
  9
$TDUSRTIMER
 40
0.0079491319
  9
$USRTIMER
 70
     1
  9
$ANGBASE
 50
0.0
  9
$ANGDIR
 70
     0
  9
$PDMODE
 70
     0
  9
$PDSIZE
 40
0.0
  9
$PLINEWID
 40
0.0
  9
$COORDS
 70
     1
  9
$SPLFRAME
 70
     0
  9
$SPLINETYPE
 70
     6
  9
$SPLINESEGS
 70
     8
  9
$ATTDIA
 70
     0
  9
$ATTREQ
 70
     1
  9
$HANDLING
 70
     1
  9
$HANDSEED
  5
1CE
  9
$SURFTAB1
 70
     6
  9
$SURFTAB2
 70
     6
  9
$SURFTYPE
 70
     6
  9
$SURFU
 70
     6
  9
$SURFV
 70
     6
  9
$UCSNAME
  2

  9
$UCSORG
 10
0.0
 20
0.0
 30
0.0
  9
$UCSXDIR
 10
1.0
 20
0.0
 30
0.0
  9
$UCSYDIR
 10
0.0
 20
1.0
 30
0.0
  9
$PUCSNAME
  2

  9
$PUCSORG
 10
0.0
 20
0.0
 30
0.0
  9
$PUCSXDIR
 10
1.0
 20
0.0
 30
0.0
  9
$PUCSYDIR
 10
0.0
 20
1.0
 30
0.0
  9
$USERI1
 70
     0
  9
$USERI2
 70
     0
  9
$USERI3
 70
     0
  9
$USERI4
 70
     0
  9
$USERI5
 70
     0
  9
$USERR1
 40
0.0
  9
$USERR2
 40
0.0
  9
$USERR3
 40
0.0
  9
$USERR4
 40
0.0
  9
$USERR5
 40
0.0
  9
$WORLDVIEW
 70
     1
  9
$SHADEDGE
 70
     3
  9
$SHADEDIF
 70
    70
  9
$TILEMODE
 70
     1
  9
$MAXACTVP
 70
    16
  9
$PINSBASE
 10
0.0
 20
0.0
 30
0.0
  9
$PLIMCHECK
 70
     0
  9
$PEXTMIN
 10
1.000000E+20
 20
1.000000E+20
 30
1.000000E+20
  9
$PEXTMAX
 10
-1.000000E+20
 20
-1.000000E+20
 30
-1.000000E+20
  9
$PLIMMIN
 10
0.0
 20
0.0
  9
$PLIMMAX
 10
12.0
 20
9.0
  9
$UNITMODE
 70
     0
  9
$VISRETAIN
 70
     0
  9
$PLINEGEN
 70
     0
  9
$PSLTSCALE
 70
     1
  9
$TREEDEPTH
 70
  3020
  9
$DWGCODEPAGE
  3
ascii
  0
ENDSEC
  0
SECTION
  2
TABLES
  0
TABLE
  2
VPORT
 70
     2
  0
VPORT
  2
*ACTIVE
 70
     0
 10
0.0
 20
0.0
 11
1.0
 21
1.0
 12
-0.305507
 22
0.077961
 13
0.0
 23
0.0
 14
1.0
 24
1.0
 15
0.0
 25
0.0
 16
1.0
 26
2.0
 36
1.0
 17
0.0
 27
0.0
 37
0.0
 40
20.366884
 41
1.594883
 42
50.0
 43
0.0
 44
0.0
 50
0.0
 51
0.0
 71
     0
 72
   100
 73
     1
 74
     1
 75
     0
 76
     0
 77
     0
 78
     0
  0
ENDTAB
  0
TABLE
  2
LTYPE
 70
     1
  0
LTYPE
  2
CONTINUOUS
 70
    64
  3
Solid line
 72
    65
 73
     0
 40
0.0
  0
ENDTAB
  0
TABLE
  2
LAYER
 70
     2
  0
LAYER
  2
0
 70
    64
 62
     7
  6
CONTINUOUS
  0
LAYER
  2
AME_FRZ
 70
    65
 62
     7
  6
CONTINUOUS
  0
ENDTAB
  0
TABLE
  2
STYLE
 70
     1
  0
STYLE
  2
STANDARD
 70
     0
 40
0.0
 41
1.0
 50
0.0
 71
     0
 42
0.2
  3
txt
  4

  0
ENDTAB
  0
TABLE
  2
VIEW
 70
     0
  0
ENDTAB
  0
TABLE
  2
UCS
 70
     0
  0
ENDTAB
  0
TABLE
  2
APPID
 70
     3
  0
APPID
  2
ACAD
 70
    64
  0
APPID
  2
AME_SOL
 70
    64
  0
APPID
  2
AVE_INVOKE
 70
    64
  0
ENDTAB
  0
TABLE
  2
DIMSTYLE
 70
     0
  0
ENDTAB
  0
ENDSEC
  0
SECTION
  2
BLOCKS
  0
BLOCK
  8
0
  5
1
  2
AME_NIL
 70
    64
 10
0.0
 20
0.0
 30
0.0
  1
AME_NIL
  3
AME_NIL
  0
ENDBLK
  8
0
  5
2
  0
BLOCK
  8
0
  5
4
  2
AME_SOL
 70
    64
 10
0.0
 20
0.0
 30
0.0
  1
AME_SOL
  3
AME_SOL
  0
ENDBLK
  8
0
  5
5
  0
BLOCK
  8
0
  5
108
  2
SOLAXES
 70
     0
 10
0.0
 20
0.0
 30
0.0
  1
SOLAXES
  3
SOLAXES
  0
LINE
  8
0
 62
     0
  5
109
 10
0.0
 20
0.0
 30
0.0
 11
6.110065
 21
0.0
 31
0.0
  0
LINE
  8
0
 62
     0
  5
10A
 10
0.0
 20
0.0
 30
0.0
 11
0.0
 21
6.110065
 31
0.0
  0
LINE
  8
0
 62
     0
  5
10B
 10
0.0
 20
0.0
 30
0.0
 11
0.0
 21
0.0
 31
6.110065
  0
CIRCLE
  8
0
 62
     0
  5
10C
 10
0.0
 20
0.0
 30
5.499059
 40
0.305503
210
1.0
220
0.0
230
0.0
  0
LINE
  8
0
 62
     0
  5
10D
 10
5.499059
 20
0.305503
 30
0.0
 11
6.110065
 21
0.0
 31
0.0
  0
LINE
  8
0
 62
     0
  5
10E
 10
5.499059
 20
0.0
 30
0.305503
 11
6.110065
 21
0.0
 31
0.0
  0
LINE
  8
0
 62
     0
  5
10F
 10
5.499059
 20
-0.305503
 30
0.0
 11
6.110065
 21
0.0
 31
0.0
  0
LINE
  8
0
 62
     0
  5
110
 10
5.499059
 20
0.0
 30
-0.305503
 11
6.110065
 21
0.0
 31
0.0
  0
CIRCLE
  8
0
 62
     0
  5
111
 10
0.0
 20
0.0
 30
5.499059
 40
0.305503
210
0.0
220
1.0
230
0.0
  0
LINE
  8
0
 62
     0
  5
112
 10
0.305503
 20
5.499059
 30
0.0
 11
0.0
 21
6.110065
 31
0.0
  0
LINE
  8
0
 62
     0
  5
113
 10
0.0
 20
5.499059
 30
0.305503
 11
0.0
 21
6.110065
 31
0.0
  0
LINE
  8
0
 62
     0
  5
114
 10
-0.305503
 20
5.499059
 30
0.0
 11
0.0
 21
6.110065
 31
0.0
  0
LINE
  8
0
 62
     0
  5
115
 10
0.0
 20
5.499059
 30
-0.305503
 11
0.0
 21
6.110065
 31
0.0
  0
CIRCLE
  8
0
 62
     0
  5
116
 10
0.0
 20
0.0
 30
4.888052
 40
0.305503
210
0.0
220
1.0
230
0.0
  0
LINE
  8
0
 62
     0
  5
117
 10
0.305503
 20
4.888052
 30
0.0
 11
0.0
 21
5.499059
 31
0.0
  0
LINE
  8
0
 62
     0
  5
118
 10
0.0
 20
4.888052
 30
0.305503
 11
0.0
 21
5.499059
 31
0.0
  0
LINE
  8
0
 62
     0
  5
119
 10
-0.305503
 20
4.888052
 30
0.0
 11
0.0
 21
5.499059
 31
0.0
  0
LINE
  8
0
 62
     0
  5
11A
 10
0.0
 20
4.888052
 30
-0.305503
 11
0.0
 21
5.499059
 31
0.0
  0
CIRCLE
  8
0
 62
     0
  5
11B
 10
0.0
 20
0.0
 30
5.499059
 40
0.305503
  0
LINE
  8
0
 62
     0
  5
11C
 10
0.305503
 20
0.0
 30
5.499059
 11
0.0
 21
0.0
 31
6.110065
  0
LINE
  8
0
 62
     0
  5
11D
 10
0.0
 20
0.305503
 30
5.499059
 11
0.0
 21
0.0
 31
6.110065
  0
LINE
  8
0
 62
     0
  5
11E
 10
-0.305503
 20
0.0
 30
5.499059
 11
0.0
 21
0.0
 31
6.110065
  0
LINE
  8
0
 62
     0
  5
11F
 10
0.0
 20
-0.305503
 30
5.499059
 11
0.0
 21
0.0
 31
6.110065
  0
CIRCLE
  8
0
 62
     0
  5
120
 10
0.0
 20
0.0
 30
4.888052
 40
0.305503
  0
LINE
  8
0
 62
     0
  5
121
 10
0.305503
 20
0.0
 30
4.888052
 11
0.0
 21
0.0
 31
5.499059
  0
LINE
  8
0
 62
     0
  5
122
 10
0.0
 20
0.305503
 30
4.888052
 11
0.0
 21
0.0
 31
5.499059
  0
LINE
  8
0
 62
     0
  5
123
 10
-0.305503
 20
0.0
 30
4.888052
 11
0.0
 21
0.0
 31
5.499059
  0
LINE
  8
0
 62
     0
  5
124
 10
0.0
 20
-0.305503
 30
4.888052
 11
0.0
 21
0.0
 31
5.499059
  0
CIRCLE
  8
0
 62
     0
  5
125
 10
0.0
 20
0.0
 30
4.277046
 40
0.305503
  0
LINE
  8
0
 62
     0
  5
126
 10
0.305503
 20
0.0
 30
4.277046
 11
0.0
 21
0.0
 31
4.888052
  0
LINE
  8
0
 62
     0
  5
127
 10
0.0
 20
0.305503
 30
4.277046
 11
0.0
 21
0.0
 31
4.888052
  0
LINE
  8
0
 62
     0
  5
128
 10
-0.305503
 20
0.0
 30
4.277046
 11
0.0
 21
0.0
 31
4.888052
  0
LINE
  8
0
 62
     0
  5
129
 10
0.0
 20
-0.305503
 30
4.277046
 11
0.0
 21
0.0
 31
4.888052
  0
ENDBLK
  8
0
  5
12A
  0
BLOCK
  8
0
  5
105
  2
AME_JNK
 70
     0
 10
0.0
 20
0.0
 30
0.0
  1
AME_JNK
  3
AME_JNK
  0
ENDBLK
  8
0
  5
106
  0
BLOCK
  8
0
  5
174
  2
*U14
 70
    65
 10
0.0
 20
0.0
 30
0.0
  1
*U
  3
*U
  0
LINE
  8
0
 62
     7
  5
175
 10
19.0
 20
19.0
 30
0.0
 11
19.0
 21
19.0
 31
3.0
1001
AME_SOL
1070
     1
1071
       88
  0
LINE
  8
0
 62
     7
  5
176
 10
19.0
 20
19.0
 30
3.0
 11
19.0
 21
1.0
 31
3.0
1001
AME_SOL
1070
     1
1071
       87
  0
LINE
  8
0
 62
     7
  5
177
 10
1.0
 20
19.0
 30
3.0
 11
19.0
 21
19.0
 31
3.0
1001
AME_SOL
1070
     1
1071
       86
  0
LINE
  8
0
 62
     7
  5
178
 10
1.0
 20
19.0
 30
0.0
 11
1.0
 21
19.0
 31
3.0
1001
AME_SOL
1070
     1
1071
       85
  0
LINE
  8
0
 62
     7
  5
179
 10
1.0
 20
19.0
 30
3.0
 11
1.0
 21
1.0
 31
3.0
1001
AME_SOL
1070
     1
1071
       84
  0
LINE
  8
0
 62
     7
  5
17A
 10
1.0
 20
1.0
 30
0.0
 11
1.0
 21
1.0
 31
3.0
1001
AME_SOL
1070
     1
1071
       83
  0
LINE
  8
0
 62
     7
  5
17B
 10
19.0
 20
1.0
 30
3.0
 11
19.0
 21
1.0
 31
0.0
1001
AME_SOL
1070
     1
1071
       82
  0
LINE
  8
0
 62
     7
  5
17C
 10
1.0
 20
1.0
 30
3.0
 11
19.0
 21
1.0
 31
3.0
1001
AME_SOL
1070
     1
1071
       81
  0
LINE
  8
0
 62
     7
  5
17D
 10
1.0
 20
1.0
 30
0.0
 11
19.0
 21
1.0
 31
0.0
1001
AME_SOL
1070
     1
1071
       80
  0
LINE
  8
0
 62
     7
  5
17E
 10
1.0
 20
19.0
 30
0.0
 11
1.0
 21
1.0
 31
0.0
1001
AME_SOL
1070
     1
1071
       79
  0
LINE
  8
0
 62
     7
  5
17F
 10
19.0
 20
1.0
 30
0.0
 11
19.0
 21
19.0
 31
0.0
1001
AME_SOL
1070
     1
1071
       78
  0
LINE
  8
0
 62
     7
  5
180
 10
19.0
 20
19.0
 30
0.0
 11
1.0
 21
19.0
 31
0.0
1001
AME_SOL
1070
     1
1071
       77
  0
CIRCLE
  8
0
 62
     7
  5
181
 10
4.0
 20
4.0
 30
0.0
 40
1.0
1001
AME_SOL
1070
     1
1071
       76
  0
CIRCLE
  8
0
 62
     7
  5
182
 10
4.0
 20
4.0
 30
3.0
 40
1.0
1001
AME_SOL
1070
     1
1071
       75
  0
CIRCLE
  8
0
 62
     7
  5
183
 10
4.0
 20
16.0
 30
0.0
 40
1.0
1001
AME_SOL
1070
     1
1071
       74
  0
CIRCLE
  8
0
 62
     7
  5
184
 10
4.0
 20
16.0
 30
3.0
 40
1.0
1001
AME_SOL
1070
     1
1071
       73
  0
CIRCLE
  8
0
 62
     7
  5
185
 10
16.0
 20
16.0
 30
0.0
 40
1.0
1001
AME_SOL
1070
     1
1071
       72
  0
CIRCLE
  8
0
 62
     7
  5
186
 10
16.0
 20
16.0
 30
3.0
 40
1.0
1001
AME_SOL
1070
     1
1071
       71
  0
CIRCLE
  8
0
 62
     7
  5
187
 10
16.0
 20
4.0
 30
0.0
 40
1.0
1001
AME_SOL
1070
     1
1071
       70
  0
CIRCLE
  8
0
 62
     7
  5
188
 10
16.0
 20
4.0
 30
3.0
 40
1.0
1001
AME_SOL
1070
     1
1071
       69
  0
LINE
  8
0
 62
     7
  5
189
 10
14.0
 20
1.0
 30
1.0
 11
14.0
 21
1.0
 31
2.0
1001
AME_SOL
1070
     1
1071
       68
  0
LINE
  8
0
 62
     7
  5
18A
 10
14.0
 20
19.0
 30
2.0
 11
14.0
 21
19.0
 31
1.0
1001
AME_SOL
1070
     1
1071
       67
  0
LINE
  8
0
 62
     7
  5
18B
 10
14.0
 20
1.0
 30
2.0
 11
6.0
 21
1.0
 31
2.0
1001
AME_SOL
1070
     1
1071
       66
  0
LINE
  8
0
 62
     7
  5
18C
 10
1.0
 20
6.0
 30
2.0
 11
1.0
 21
14.0
 31
2.0
1001
AME_SOL
1070
     1
1071
       65
  0
LINE
  8
0
 62
     7
  5
18D
 10
19.0
 20
14.0
 30
2.0
 11
19.0
 21
6.0
 31
2.0
1001
AME_SOL
1070
     1
1071
       64
  0
LINE
  8
0
 62
     7
  5
18E
 10
6.0
 20
19.0
 30
2.0
 11
14.0
 21
19.0
 31
2.0
1001
AME_SOL
1070
     1
1071
       63
  0
LINE
  8
0
 62
     7
  5
18F
 10
14.0
 20
1.0
 30
2.0
 11
14.0
 21
0.0
 31
2.0
1001
AME_SOL
1070
     1
1071
       62
  0
LINE
  8
0
 62
     7
  5
190
 10
14.0
 20
20.0
 30
2.0
 11
14.0
 21
19.0
 31
2.0
1001
AME_SOL
1070
     1
1071
       61
  0
LINE
  8
0
 62
     7
  5
191
 10
6.0
 20
1.0
 30
2.0
 11
6.0
 21
1.0
 31
1.0
1001
AME_SOL
1070
     1
1071
       60
  0
LINE
  8
0
 62
     7
  5
192
 10
6.0
 20
19.0
 30
1.0
 11
6.0
 21
19.0
 31
2.0
1001
AME_SOL
1070
     1
1071
       59
  0
LINE
  8
0
 62
     7
  5
193
 10
6.0
 20
1.0
 30
2.0
 11
6.0
 21
0.0
 31
2.0
1001
AME_SOL
1070
     1
1071
       58
  0
LINE
  8
0
 62
     7
  5
194
 10
6.0
 20
20.0
 30
2.0
 11
6.0
 21
19.0
 31
2.0
1001
AME_SOL
1070
     1
1071
       57
  0
LINE
  8
0
 62
     7
  5
195
 10
6.0
 20
0.0
 30
1.0
 11
6.0
 21
0.0
 31
2.0
1001
AME_SOL
1070
     1
1071
       56
  0
LINE
  8
0
 62
     7
  5
196
 10
14.0
 20
0.0
 30
2.0
 11
14.0
 21
0.0
 31
1.0
1001
AME_SOL
1070
     1
1071
       55
  0
LINE
  8
0
 62
     7
  5
197
 10
6.0
 20
0.0
 30
2.0
 11
14.0
 21
0.0
 31
2.0
1001
AME_SOL
1070
     1
1071
       54
  0
LINE
  8
0
 62
     7
  5
198
 10
6.0
 20
1.0
 30
1.0
 11
14.0
 21
1.0
 31
1.0
1001
AME_SOL
1070
     1
1071
       53
  0
LINE
  8
0
 62
     7
  5
199
 10
6.0
 20
0.0
 30
1.0
 11
14.0
 21
0.0
 31
1.0
1001
AME_SOL
1070
     1
1071
       52
  0
LINE
  8
0
 62
     7
  5
19A
 10
1.0
 20
14.0
 30
1.0
 11
1.0
 21
6.0
 31
1.0
1001
AME_SOL
1070
     1
1071
       51
  0
LINE
  8
0
 62
     7
  5
19B
 10
6.0
 20
1.0
 30
1.0
 11
6.0
 21
0.0
 31
1.0
1001
AME_SOL
1070
     1
1071
       50
  0
LINE
  8
0
 62
     7
  5
19C
 10
6.0
 20
20.0
 30
1.0
 11
6.0
 21
19.0
 31
1.0
1001
AME_SOL
1070
     1
1071
       49
  0
LINE
  8
0
 62
     7
  5
19D
 10
19.0
 20
6.0
 30
1.0
 11
19.0
 21
14.0
 31
1.0
1001
AME_SOL
1070
     1
1071
       48
  0
LINE
  8
0
 62
     7
  5
19E
 10
14.0
 20
19.0
 30
1.0
 11
6.0
 21
19.0
 31
1.0
1001
AME_SOL
1070
     1
1071
       47
  0
LINE
  8
0
 62
     7
  5
19F
 10
14.0
 20
19.0
 30
1.0
 11
14.0
 21
20.0
 31
1.0
1001
AME_SOL
1070
     1
1071
       46
  0
LINE
  8
0
 62
     7
  5
1A0
 10
14.0
 20
0.0
 30
1.0
 11
14.0
 21
1.0
 31
1.0
1001
AME_SOL
1070
     1
1071
       45
  0
LINE
  8
0
 62
     7
  5
1A1
 10
20.0
 20
14.0
 30
1.0
 11
20.0
 21
6.0
 31
1.0
1001
AME_SOL
1070
     1
1071
       44
  0
LINE
  8
0
 62
     7
  5
1A2
 10
20.0
 20
6.0
 30
2.0
 11
20.0
 21
14.0
 31
2.0
1001
AME_SOL
1070
     1
1071
       43
  0
LINE
  8
0
 62
     7
  5
1A3
 10
19.0
 20
14.0
 30
1.0
 11
20.0
 21
14.0
 31
1.0
1001
AME_SOL
1070
     1
1071
       42
  0
LINE
  8
0
 62
     7
  5
1A4
 10
0.0
 20
14.0
 30
1.0
 11
1.0
 21
14.0
 31
1.0
1001
AME_SOL
1070
     1
1071
       41
  0
LINE
  8
0
 62
     7
  5
1A5
 10
1.0
 20
14.0
 30
2.0
 11
1.0
 21
14.0
 31
1.0
1001
AME_SOL
1070
     1
1071
       40
  0
LINE
  8
0
 62
     7
  5
1A6
 10
19.0
 20
14.0
 30
1.0
 11
19.0
 21
14.0
 31
2.0
1001
AME_SOL
1070
     1
1071
       39
  0
LINE
  8
0
 62
     7
  5
1A7
 10
20.0
 20
14.0
 30
1.0
 11
20.0
 21
14.0
 31
2.0
1001
AME_SOL
1070
     1
1071
       38
  0
LINE
  8
0
 62
     7
  5
1A8
 10
1.0
 20
14.0
 30
2.0
 11
0.0
 21
14.0
 31
2.0
1001
AME_SOL
1070
     1
1071
       37
  0
LINE
  8
0
 62
     7
  5
1A9
 10
20.0
 20
14.0
 30
2.0
 11
19.0
 21
14.0
 31
2.0
1001
AME_SOL
1070
     1
1071
       36
  0
LINE
  8
0
 62
     7
  5
1AA
 10
1.0
 20
6.0
 30
1.0
 11
0.0
 21
6.0
 31
1.0
1001
AME_SOL
1070
     1
1071
       35
  0
LINE
  8
0
 62
     7
  5
1AB
 10
20.0
 20
6.0
 30
1.0
 11
19.0
 21
6.0
 31
1.0
1001
AME_SOL
1070
     1
1071
       34
  0
LINE
  8
0
 62
     7
  5
1AC
 10
1.0
 20
6.0
 30
1.0
 11
1.0
 21
6.0
 31
2.0
1001
AME_SOL
1070
     1
1071
       33
  0
LINE
  8
0
 62
     7
  5
1AD
 10
19.0
 20
6.0
 30
2.0
 11
19.0
 21
6.0
 31
1.0
1001
AME_SOL
1070
     1
1071
       32
  0
LINE
  8
0
 62
     7
  5
1AE
 10
20.0
 20
6.0
 30
2.0
 11
20.0
 21
6.0
 31
1.0
1001
AME_SOL
1070
     1
1071
       31
  0
LINE
  8
0
 62
     7
  5
1AF
 10
19.0
 20
6.0
 30
2.0
 11
20.0
 21
6.0
 31
2.0
1001
AME_SOL
1070
     1
1071
       30
  0
LINE
  8
0
 62
     7
  5
1B0
 10
0.0
 20
6.0
 30
2.0
 11
1.0
 21
6.0
 31
2.0
1001
AME_SOL
1070
     1
1071
       29
  0
LINE
  8
0
 62
     7
  5
1B1
 10
6.0
 20
20.0
 30
1.0
 11
14.0
 21
20.0
 31
1.0
1001
AME_SOL
1070
     1
1071
       28
  0
LINE
  8
0
 62
     7
  5
1B2
 10
6.0
 20
20.0
 30
2.0
 11
6.0
 21
20.0
 31
1.0
1001
AME_SOL
1070
     1
1071
       27
  0
LINE
  8
0
 62
     7
  5
1B3
 10
14.0
 20
20.0
 30
1.0
 11
14.0
 21
20.0
 31
2.0
1001
AME_SOL
1070
     1
1071
       26
  0
LINE
  8
0
 62
     7
  5
1B4
 10
14.0
 20
20.0
 30
2.0
 11
6.0
 21
20.0
 31
2.0
1001
AME_SOL
1070
     1
1071
       25
  0
LINE
  8
0
 62
     7
  5
1B5
 10
0.0
 20
6.0
 30
1.0
 11
0.0
 21
14.0
 31
1.0
1001
AME_SOL
1070
     1
1071
       24
  0
LINE
  8
0
 62
     7
  5
1B6
 10
0.0
 20
6.0
 30
2.0
 11
0.0
 21
6.0
 31
1.0
1001
AME_SOL
1070
     1
1071
       23
  0
LINE
  8
0
 62
     7
  5
1B7
 10
0.0
 20
14.0
 30
1.0
 11
0.0
 21
14.0
 31
2.0
1001
AME_SOL
1070
     1
1071
       22
  0
LINE
  8
0
 62
     7
  5
1B8
 10
0.0
 20
14.0
 30
2.0
 11
0.0
 21
6.0
 31
2.0
1001
AME_SOL
1070
     1
1071
       21
  0
LINE
  8
0
 62
     7
  5
1B9
 10
3.0
 20
4.0
 30
0.0
 11
3.0
 21
4.0
 31
3.0
1001
AME_SOL
1070
     0
1071
       14
  0
LINE
  8
0
 62
     7
  5
1BA
 10
4.0
 20
3.0
 30
0.0
 11
4.0
 21
3.0
 31
3.0
1001
AME_SOL
1070
     0
1071
       14
  0
LINE
  8
0
 62
     7
  5
1BB
 10
5.0
 20
4.0
 30
0.0
 11
5.0
 21
4.0
 31
3.0
1001
AME_SOL
1070
     0
1071
       14
  0
LINE
  8
0
 62
     7
  5
1BC
 10
4.0
 20
5.0
 30
0.0
 11
4.0
 21
5.0
 31
3.0
1001
AME_SOL
1070
     0
1071
       14
  0
LINE
  8
0
 62
     7
  5
1BD
 10
3.0
 20
16.0
 30
0.0
 11
3.0
 21
16.0
 31
3.0
1001
AME_SOL
1070
     0
1071
       13
  0
LINE
  8
0
 62
     7
  5
1BE
 10
4.0
 20
15.0
 30
0.0
 11
4.0
 21
15.0
 31
3.0
1001
AME_SOL
1070
     0
1071
       13
  0
LINE
  8
0
 62
     7
  5
1BF
 10
5.0
 20
16.0
 30
0.0
 11
5.0
 21
16.0
 31
3.0
1001
AME_SOL
1070
     0
1071
       13
  0
LINE
  8
0
 62
     7
  5
1C0
 10
4.0
 20
17.0
 30
0.0
 11
4.0
 21
17.0
 31
3.0
1001
AME_SOL
1070
     0
1071
       13
  0
LINE
  8
0
 62
     7
  5
1C1
 10
15.0
 20
16.0
 30
0.0
 11
15.0
 21
16.0
 31
3.0
1001
AME_SOL
1070
     0
1071
       12
  0
LINE
  8
0
 62
     7
  5
1C2
 10
16.0
 20
15.0
 30
0.0
 11
16.0
 21
15.0
 31
3.0
1001
AME_SOL
1070
     0
1071
       12
  0
LINE
  8
0
 62
     7
  5
1C3
 10
17.0
 20
16.0
 30
0.0
 11
17.0
 21
16.0
 31
3.0
1001
AME_SOL
1070
     0
1071
       12
  0
LINE
  8
0
 62
     7
  5
1C4
 10
16.0
 20
17.0
 30
0.0
 11
16.0
 21
17.0
 31
3.0
1001
AME_SOL
1070
     0
1071
       12
  0
LINE
  8
0
 62
     7
  5
1C5
 10
15.0
 20
4.0
 30
0.0
 11
15.0
 21
4.0
 31
3.0
1001
AME_SOL
1070
     0
1071
       11
  0
LINE
  8
0
 62
     7
  5
1C6
 10
16.0
 20
3.0
 30
0.0
 11
16.0
 21
3.0
 31
3.0
1001
AME_SOL
1070
     0
1071
       11
  0
LINE
  8
0
 62
     7
  5
1C7
 10
17.0
 20
4.0
 30
0.0
 11
17.0
 21
4.0
 31
3.0
1001
AME_SOL
1070
     0
1071
       11
  0
LINE
  8
0
 62
     7
  5
1C8
 10
16.0
 20
5.0
 30
0.0
 11
16.0
 21
5.0
 31
3.0
1001
AME_SOL
1070
     0
1071
       11
  0
ENDBLK
  8
0
  5
1C9
  0
ENDSEC
  0
SECTION
  2
ENTITIES
  0
INSERT
  8
AME_FRZ
  5
3
  2
AME_NIL
 10
0.0
 20
0.0
 30
0.0
  0
INSERT
  8
AME_FRZ
  5
6
  2
AME_SOL
 10
0.0
 20
0.0
 30
0.0
1001
AME_SOL
1000
R2.1
1000
AME2
1000
sq cm
1070
     3
1070
     0
1070
     3
1000
wire
1040
45.0
1000
U
1040
1.0
1000
cm
1000
gm
1000
MILD_STEEL
1070
    25
1000
CSG
1070
     1
1070
     3
1070
     3
1070
     3
1070
     0
1000
cu cm
1070
     1
1070
     0
1005
3
  0
INSERT
  8
AME_FRZ
  5
15
  2
AME_NIL
 10
0.0
 20
0.0
 30
0.0
1001
AME_SOL
1002
{
1070
     1
1071
  2702432
1070
  1536
1070
     1
1010
18.0
1020
18.0
1030
3.0
1005
0
1005
0
1005
102
1040
0.0
1040
1.0
1070
     0
1000
MILD_STEEL
1000
0
1010
0.0
1020
0.0
1030
0.0
1010
0.0
1020
0.0
1030
1.0
1040
0.0
1002
}
1001
AVE_INVOKE
1000
SOLAVEMESH
  0
INSERT
  8
AME_FRZ
  5
21
  2
AME_NIL
 10
3.0
 20
3.0
 30
0.0
1001
AME_SOL
1002
{
1070
     1
1071
  2399120
1070
  1538
1070
     1
1010
1.0
1020
1.0
1030
3.0
1005
0
1005
0
1005
D8
1040
0.0
1040
1.0
1070
     0
1000
MILD_STEEL
1000
0
1010
3.0
1020
3.0
1030
0.0
1010
0.0
1020
0.0
1030
1.0
1040
0.0
1002
}
  0
INSERT
  8
AME_FRZ
  5
51
  2
AME_NIL
 10
15.0
 20
3.0
 30
0.0
1001
AME_SOL
1002
{
1070
     1
1071
  2402272
1070
  1538
1070
     1
1010
1.0
1020
1.0
1030
3.0
1005
0
1005
0
1005
D9
1040
0.0
1040
1.0
1070
     0
1000
MILD_STEEL
1000
0
1010
15.0
1020
3.0
1030
0.0
1010
0.0
1020
0.0
1030
1.0
1040
0.0
1002
}
  0
INSERT
  8
AME_FRZ
  5
81
  2
AME_NIL
 10
3.0
 20
15.0
 30
0.0
1001
AME_SOL
1002
{
1070
     1
1071
  2394256
1070
  1538
1070
     1
1010
1.0
1020
1.0
1030
3.0
1005
0
1005
0
1005
D8
1040
0.0
1040
1.0
1070
     0
1000
MILD_STEEL
1000
0
1010
3.0
1020
15.0
1030
0.0
1010
0.0
1020
0.0
1030
1.0
1040
0.0
1002
}
  0
INSERT
  8
AME_FRZ
  5
B1
  2
AME_NIL
 10
15.0
 20
15.0
 30
0.0
1001
AME_SOL
1002
{
1070
     1
1071
  2412952
1070
  1538
1070
     1
1010
1.0
1020
1.0
1030
3.0
1005
0
1005
0
1005
D9
1040
0.0
1040
1.0
1070
     0
1000
MILD_STEEL
1000
0
1010
15.0
1020
15.0
1030
0.0
1010
0.0
1020
0.0
1030
1.0
1040
0.0
1002
}
  0
INSERT
  8
AME_FRZ
  5
D8
  2
AME_NIL
 10
0.0
 20
0.0
 30
0.0
1001
AME_SOL
1002
{
1070
     1
1071
  2485040
1070
   775
1070
     0
1070
     2
1005
21
1005
81
1005
0
1005
0
1005
DA
1040
0.0
1040
1.0
1070
     0
1000
MILD_STEEL
1000
0
1010
0.0
1020
0.0
1030
0.0
1010
0.0
1020
0.0
1030
1.0
1040
0.0
1002
}
  0
INSERT
  8
AME_FRZ
  5
D9
  2
AME_NIL
 10
0.0
 20
0.0
 30
0.0
1001
AME_SOL
1002
{
1070
     1
1071
  2488648
1070
   775
1070
     0
1070
     2
1005
B1
1005
51
1005
0
1005
0
1005
DA
1040
0.0
1040
1.0
1070
     0
1000
MILD_STEEL
1000
0
1010
0.0
1020
0.0
1030
0.0
1010
0.0
1020
0.0
1030
1.0
1040
0.0
1002
}
  0
INSERT
  8
AME_FRZ
  5
DA
  2
AME_NIL
 10
0.0
 20
0.0
 30
0.0
1001
AME_SOL
1002
{
1070
     1
1071
  2468072
1070
   775
1070
     0
1070
     2
1005
D8
1005
D9
1005
0
1005
0
1005
102
1040
0.0
1040
1.0
1070
     0
1000
MILD_STEEL
1000
0
1010
0.0
1020
0.0
1030
0.0
1010
0.0
1020
0.0
1030
1.0
1040
0.0
1002
}
  0
INSERT
  8
AME_FRZ
  5
102
  2
AME_NIL
 10
1.0
 20
1.0
 30
0.0
1001
AME_SOL
1002
{
1070
     1
1071
  2470808
1070
  1543
1070
     1
1070
     0
1005
15
1005
DA
1005
0
1005
0
1005
170
1040
0.0
1040
1.0
1070
     0
1000
MILD_STEEL
1000
0
1010
1.0
1020
1.0
1030
0.0
1010
0.0
1020
0.0
1030
1.0
1040
0.0
1002
}
  0
INSERT
  8
AME_FRZ
  5
13A
  2
AME_NIL
 10
6.0
 20
19.0
 30
1.0
1001
AME_SOL
1002
{
1070
     1
1071
  2607696
1070
  1536
1070
     1
1010
8.0
1020
1.0
1030
1.0
1005
0
1005
0
1005
172
1040
0.0
1040
1.0
1070
     0
1000
MILD_STEEL
1000
0
1010
6.0
1020
19.0
1030
1.0
1010
0.0
1020
0.0
1030
1.0
1040
0.0
1002
}
1001
AVE_INVOKE
1000
SOLAVEMESH
  0
INSERT
  8
AME_FRZ
  5
14B
  2
AME_NIL
 10
19.0
 20
6.0
 30
1.0
1001
AME_SOL
1002
{
1070
     1
1071
  2585752
1070
  1536
1070
     1
1010
1.0
1020
8.0
1030
1.0
1005
0
1005
0
1005
171
1040
0.0
1040
1.0
1070
     0
1000
MILD_STEEL
1000
0
1010
19.0
1020
6.0
1030
1.0
1010
0.0
1020
0.0
1030
1.0
1040
0.0
1002
}
1001
AVE_INVOKE
1000
SOLAVEMESH
  0
INSERT
  8
AME_FRZ
  5
15C
  2
AME_NIL
 10
0.0
 20
6.0
 30
1.0
1001
AME_SOL
1002
{
1070
     1
1071
  2678720
1070
  1536
1070
     1
1010
1.0
1020
8.0
1030
1.0
1005
0
1005
0
1005
172
1040
0.0
1040
1.0
1070
     0
1000
MILD_STEEL
1000
0
1010
0.0
1020
6.0
1030
1.0
1010
0.0
1020
0.0
1030
1.0
1040
0.0
1002
}
1001
AVE_INVOKE
1000
SOLAVEMESH
  0
INSERT
  8
AME_FRZ
  5
16D
  2
AME_NIL
 10
6.0
 20
0.0
 30
1.0
1001
AME_SOL
1002
{
1070
     1
1071
  2670144
1070
  1536
1070
     1
1010
8.0
1020
1.0
1030
1.0
1005
0
1005
0
1005
170
1040
0.0
1040
1.0
1070
     0
1000
MILD_STEEL
1000
0
1010
6.0
1020
0.0
1030
1.0
1010
0.0
1020
0.0
1030
1.0
1040
0.0
1002
}
1001
AVE_INVOKE
1000
SOLAVEMESH
  0
INSERT
  8
AME_FRZ
  5
170
  2
AME_NIL
 10
0.0
 20
0.0
 30
0.0
1001
AME_SOL
1002
{
1070
     1
1071
  2696352
1070
   775
1070
     0
1070
     2
1005
102
1005
16D
1005
0
1005
0
1005
171
1040
0.0
1040
1.0
1070
     0
1000
MILD_STEEL
1000
0
1010
0.0
1020
0.0
1030
0.0
1010
0.0
1020
0.0
1030
1.0
1040
0.0
1002
}
  0
INSERT
  8
AME_FRZ
  5
171
  2
AME_NIL
 10
0.0
 20
0.0
 30
0.0
1001
AME_SOL
1002
{
1070
     1
1071
  2705744
1070
   775
1070
     0
1070
     2
1005
170
1005
14B
1005
0
1005
0
1005
1CA
1040
0.0
1040
1.0
1070
     0
1000
MILD_STEEL
1000
0
1010
0.0
1020
0.0
1030
0.0
1010
0.0
1020
0.0
1030
1.0
1040
0.0
1002
}
  0
INSERT
  8
AME_FRZ
  5
172
  2
AME_NIL
 10
0.0
 20
0.0
 30
0.0
1001
AME_SOL
1002
{
1070
     1
1071
  2708376
1070
   775
1070
     0
1070
     2
1005
13A
1005
15C
1005
0
1005
0
1005
1CA
1040
0.0
1040
1.0
1070
     0
1000
MILD_STEEL
1000
0
1010
0.0
1020
0.0
1030
0.0
1010
0.0
1020
0.0
1030
1.0
1040
0.0
1002
}
  0
INSERT
  8
0
  5
1CA
  2
*U14
 10
0.0
 20
0.0
 30
0.0
1001
AME_SOL
1002
{
1070
     1
1071
  2711040
1070
  1543
1070
     1
1070
     2
1005
171
1005
172
1005
0
1005
1CB
1005
0
1040
0.0
1040
1.0
1070
     0
1000
MILD_STEEL
1000
0
1002
}
1001
AVE_INVOKE
1000
SOLAVEMESH
  0
INSERT
  8
AME_FRZ
  5
1CB
  2
AME_NIL
 10
1.0
 20
1.0
 30
1.0
1001
AME_SOL
1004
C7CF01006F01B701B601B401B001A8019C0186016801100018004B0087014E0008009D01880169017000EA006A01840051013E01330128011200190029019800A800C80062008901FE000B00A901F0009E018A016B01FB0017006C015201C50030005301F40054008B0105006D01C9005300B101AA019F01
1004
8C016E01E600540109005F006F01550144003F0122003401BD002A011901FD001D001A011E00230092008D0170015601400135012B011B012A00D8001C01010100010D0002010E0011002C011D010301F60043000401BA00F3001E0105015000BB000601BC00510036012D011F010701570059000801AA00
1004
5B0020010901ED005D000A01EC0065002E0121010B016600A3000C016900C30022010D016B00C4000E019E006C00580028008000A0018E0171015701410137012F0123010F016E006F001001C600E70024011101760079001201D700D600300125011301940093001401D500910026011501D100CF001601
1004
8E008D008F000300E0007201A4005801B00042012E0036008F017301EE007E007401590143013D004C0032005A014401AC00B600F500AB013F00A1019001750116005B0145019000B30046014800A50076015C0147013801B800B50039012700290048013A014A00310127011701CD0088001801CA00CC00
1004
1C00A900EF0091017701E80099002400B501B201AC01A201920178019D005E00750093017901A7005D01B400A6007A010C005E01D3006300A30194017B015F01490114002B00D00034007C01380060014A01780031004B01F200D2000200AD01FF00A40195017D01FC0061017F004C013B0168002600C700
1004
7E013300F80096011F002D00B301AE014000A50197017F012C006201DF003A00800163014D013C01F70052000400B1006401F900E9000100AF01A6019801810165014E0106002F004F014D003D0132013E001A00EB00070025009901BF0082016601FA000F006701600050012000A000A7019A0183015A00
1004
9C00840174008B009B01960085012100C0000000092884944EB186EB0A52B6A2D4120B7D35EF41973CBE749AF7A0CB9E5F3A4D7BD065CF2F9D0740538A20E4960740538A20E4963C1E2C1929783637C612E6A69AF7A0CB9E5F3A473DB6528F6B8CB0F5051AB809D9935EF41973CBE31C34D4ED041DA18F07
1004
8B064A5F6370A041684B9B7DB8D5BC2817FFFFF88DFFF88DFFFFF80B3F11877FFFFFFFFFC2817FFFFF88DFFF88DFFFFF80B3F11877FFFFFFFFF118612E6A68E7B6CA51ED719617C2F5B24BB16987A828D5C04ECC70D353B41076860740538A20E4963C1E2C19297D8DC2814EA39B7DB91B78502FF93FE4FF
1004
13AFC4EBF93FE4FF6867E92CFEC1DFFFFFFFFFF0A05FF27FC9FE275F89D7F27FC9FED0CFD259FD83BFFFFFFFFF88C309703A6BDE832E797CE91CF6D94A3DAE32C3D4146AE0276645245ACB20878119A1E832E79380163C1E2C19297D8DC2812515EE6DF4E96B78502FF11BFFFFFFFFF11BFFF0167E230EFF
1004
FFFFFFFF922A9E140BFC46FFFFFFFFFC46FD699F80B3F11877FFFFFFFFFC2817F88DFFFFFFFFF88DFAD33F0167E230EFFFFFFFFFE230C25C0E9AF7A0CB9E5F3A091A44D51B242C3D4146AE0276645245ACB20878118E1A6A76820ED0C783C583252FB1B85025B779CDBE9CAE6F0A05FF27FC9FE275F89D7F
1004
27FC9FE237ED0CFEC1DFFFFFFFFFF784F0A05FF27FC9FE275F89D7F27FC9FE92CFDA19FD83BFFFFFFFFFE140BFE4FF93FC4EBF13AFE4FF93FD259FB433FB077FFFFFFFFF118612E6A65F0BD6C92EC5A6239EDB2947B5C6587A828D5C04ECC1D014E2883925870D353B41076863C1E2C19297D8DC2813BED4
1004
5CDBEDC9114F0A05FF27F89D7F27FC9FF27F89D7E92CFDA19FD83BFFFFFFFFFE140BFE4FF13AFE4FF93FE4FF13AFD259FB433FB077FFFFFFFFF118612E00A6BDE832E797CE91CF6D94A3DAE32C3D4146AE0276645245ACB20878118E1A6A76820ED0C45245ACB20878119B85027701736FB532EB78502FFF
1004
F11BFFF11BFFFFFFF0167E230EFFFFFFFFFFBE6F0A05FFFE237FFE237FFFFE02CFD699F88C3BFFFFFFFFFE829E140BFFFC46FFFC46FFFFFD699F80B3F11877FFFFFFFFFD669470A05FFFE237FFE237FFFFE02CFFFC461DFFFFFFFFFF0A05FFFE237FFE237FFFFE02CFFFC461DFFFFFFFFFC46184B9A9A39E
1004
DB2947B5C6589AF7A0CB9E5F3A3D4146AE027663869A9DA083B43135EF41973CBE33C1E2C19297D8DC2811E1D1736FB77251C2817F88DFFFFFFFFF88DF80B3FFF11877FFFFFFFFFC2817F88DFFFFFFFFF88DF80B3FFF11877FFFFFFFFF118612E07473DB6528F6B8CB0BE17AD925D85D61EA0A357013B334
1004
3D065CF27002C0E80A71441C92C783C583252FB1B8502082F5CDBE9CA086F0A05FFFFFE237FFE237FFE02CFD699F88C3BFFFFFFFFFE7CA38502FFFFFF11BFFF11BFFF0167FFE230EFFFFFFFFFF8502FFFFFF11BFFF11BFFF0167FFE230EFFFFFFFFFE230C25C014D7BD065CF2F9D239EDB2947B5C6585CB8
1004
2E013284E751914916B2C821E0463869A9DA083B431E0F160C94BEC6E1408AC92E6DF6A6E0B78502FF13AFE4FF93FE4FF13AFE4FF11BF6867F60EFFFFFFFFFF9412DE140BFC4EBF93FE4FF93FC4EBF93FDA19FA4B3FB077FFFFFFFFFC9134F0A05FE275FC9FF27FC9FE275FC9FE92CFDA19FD83BFFFFFFFF
1004
FE45F28E140BFC4EBF93FE4FF93FC4EBF93FDA19F88DFD83BFFFFFFFFFE140BFC4EBF93FE4FF93FC4EBF93FDA19F88DFD83BFFFFFFFFF88C309703848D226A8D921617C2F5B24BB0BAC3D4146AE027663869A9DA083B4303A029C510724B1E0F160C94BEC6E140800B8736FA7282DBC2817FC9FE275FC9FF
1004
27FC9FE275FB433F4967F60EFFFFFFFFFFBF1470A05FF27F89D7F27FC9FF27F89D7ED0CFC46FEC1DFFFFFFFFFF0A05FF27F89D7F27FC9FF27F89D7ED0CFC46FEC1DFFFFFFFFFC46184B93B871A44D51B2F622C64A2FEB3A5EE2C4D7BD065CF2F9D0740538A20E4B58573D065CF2709031E0F160C94BC1B1B
1004
84823A0D37352B6E72B538482FF11BFFFFFFF11BFFF1AB3F0067F8EFE237E237FFFFF8482FF11BFFFFFFF11BFFF1AB3F0067F8EFE237E237FFFFE274E104FBE43FE237FFFFFFE237FA94A5294E0B3F4819FE9C807DF8788CB5EDA4403EFC3C465AF643FF4F900FBF0F1196BDB4BFFF06C201F7E1E232D7B2
1004
1B7FFFF06C4EE10C294E10C294DFFFFC1B1C2096FBE43FE237FFFFFFE237FFE96B3F0067FA7201F7E1E232D7B69100FBF0F1196BD90FFD3E403EFC3C465AF6D2FFFC1B0807DF8788CB5EC86DFFFFC1B13B8430A538430A537FFFF06C708253EF90FF88DFFFFFFF88DFEA5294A5382CFC1B3FD3900FBF0F11
1004
96BDB48807DF8788CB5EC87FE9F201F7E1E232D7B697FFE0D8403EFC3C465AF6436FFFFE0D89DC218529C218529BFFFF8363841251EF90FF88DFFFFFFF88DFEDFCAE603F8033FD3900FBF0F1196BDB48807DF8788CB5EC87FE9F201F7E1E232D7B697FFE0D8403EFC3C465AF6436FFFFE0D89DC218529C21
1004
8529BFFFF8360C25C9DC38D226A8D97B1C38D226A8D97B135EF41973CBE741D014E288392D60740538A20E4B58F078B064A5E0D8DC2410038639A95B7191D8482FF11BFFFFFFF11BFFF1AB3F1AB3FC77F11BF11BFFFFFC2417F88DFFFFFFF88DFFF8D59F8D59FE3BF88DF88DFFFFF89D38413EF90FF88DFF
1004
FFFFF88DFEA5294A5382CFD2D67FA7201F7E1E232D7B69100FBF0F1196BD90FFD3E403EFC3C465AF6D2FFFC1B0807DF8788CB5EC86DFFFFC1B13B5DD8A535DD8A537FFFF06C70825BEF90FF88DFFFFFFF88DFFFA5ACFC6ACFF4E403EFC3C465AF6D2201F7E1E232D7B21FFA7C807DF8788CB5EDA5FFF8361
1004
00FBF0F1196BD90DBFFFF836276BBB14A6BBB14A6FFFFE0D8E104A7DF21FF11BFFFFFFF11BFD4A5294A7058DFCAE67FA7201F7E1E232D7B69100FBF0F1196BD90FFD3E403EFC3C465AF6D2FFFC1B0807DF8788CB5EC86DFFFFC1B13B5DD8A535DD8A537FFFF06C70824A3DF21FF11BFFFFFFF11BFDBF95CC
1004
4FE3567FA7201F7E1E232D7B69100FBF0F1196BD90FFD3E403EFC3C465AF6D2FFFC1B0807DF8788CB5EC86DFFFFC1B13B5DD8A535DD8A537FFFF06C184B93A2C64A2FEB3A5EE2C70E3489AA365EC4D7BD065CF2F9D15CF41973C9C240C0E80A71441C96B1E0F160C94BC1B1B84825985AE6A56DDA43B0905
1004
FE237FFFFFFE237FFE00CFC6ACFF1DFC46FC46FFFFFF0905FE237FFFFFFE237FFE00CFC6ACFF1DFC46FC46FFFFFC4E9C209F7C87FC46FFFFFFFC46FF5B5294A53B59FA5ACFF4E403EFC3C465AF6D2201F7E1E232D7B21FFA7C807DF8788CB5EDA5FFF836100FBF0F1196BD90DBFFFF836277E76294FCEC52
1004
9BFFFF83638412DF7C87FC46FFFFFFFC46FFFD2067E3567FA7201F7E1E232D7B69100FBF0F1196BD90FFD3E403EFC3C465AF6D2FFFC1B0807DF8788CB5EC86DFFFFC1B13BF3B14A7E76294DFFFFC1B1C2094FBE43FE237FFFFFFE237FADA94A529DAC6FE5733FD3900FBF0F1196BDB48807DF8788CB5EC87
1004
FE9F201F7E1E232D7B697FFE0D8403EFC3C465AF6436FFFFE0D89DF9D8A53F3B14A6FFFFE0D8E104947BE43FE237FFFFFFE237FFE0D89FC6ACFF4E403EFC3C465AF6D2201F7E1E232D7B21FFA7C807DF8788CB5EDA5FFF836100FBF0F1196BD90DBFFFF836277E76294FCEC529BFFFF8360C25C9D1632517
1004
F59D2F71622C64A2FEB3A5EE2C4D7BD065CF2F9D15CF41973C9C240C2B9E832E79384818F078B064A5E0D8DC24130BEE6A56DC9097030905FE237FFFFFFE237FFE00CFC019FE3BF88DF88DFFFFFE120BFC46FFFFFFFC46FFFC019F8033FC77F11BF11BFFFFF13A70827DF21FF11BFFFFFFF11BFD6D4A5294
1004
ED67E9033FD3900FBF0F1196BDB48807DF8788CB5EC87FE9F201F7E1E232D7B697FFE0D8403EFC3C465AF6436FFFFE0D89C8B3594A22CD6529BFFFF83638412DF7C87FC46FFFFFFFC46FFFD2067E00CFF4E403EFC3C465AF6D2201F7E1E232D7B21FFA7C807DF8788CB5EDA5FFF836100FBF0F1196BD90DB
1004
FFFF8362722CD65288B3594A6FFFFE0D8E104A7DF21FF11BFFFFFFF11BFD6D4A5294ED67E0D9FE9C807DF8788CB5EDA4403EFC3C465AF643FF4F900FBF0F1196BDB4BFFF06C201F7E1E232D7B21B7FFFF06C4E459ACA51166B294DFFFFC1B1C20928F7C87FC46FFFFFFFC46FFFC1B01FC019FE9C807DF878
1004
8CB5EDA4403EFC3C465AF643FF4F900FBF0F1196BDB4BFFF06C201F7E1E232D7B21B7FFFF06C4E459ACA51166B294DFFFFC1B0612E073D4146AE027663D4146AE027664D7BD065CF2F9D0740538A20E5A60740538A20E5A626BDE832E797C66E140895DF3F6FB72449C0C2817FFF88DFFF88DFFFFF88DF88
1004
DFE3BFFFFFFFFFE140BFFFC46FFFC46FFFFFC46FC46FF1DFFFFFFFFFC46184B81CF5051AB809D98F5051AB809D9935EF41973CBE741D014E288396988A48B596410F0233C1E2C19297836370A04B6759FB7DB9D6E06140BFC46FFFFFFFFFC46FC46FC46FF1DFFFFFFFFFF0A05FE237FFFFFFFFE237E237E2
1004
37F8EFFFFFFFFFE230C25C0E7A828D5C04ECC7A828D5C04ECC9AF7A0CB9E5F3A45245ACB208781183A029C51072D31E0F160C94BC1B1B85024B0BC3F6FB70B37030A05FFFFFE237FFE237FFE237E237F8EFFFFFFFFFF8502FFFFFF11BFFF11BFFF11BF11BFC77FFFFFFFFF118612E073D4146AE027663D41
1004
46AE02766458C945FD674BDC581D014E288396981D014E28839698F078B064A5E0D8DC2811CC8B3F6FB7447030A05FE275FC9FF27FC9FE275FC9FEB4CFD699F8360EFFFFFFFFFF8502FF13AFE4FF93FE4FF13AFE4FF5A67EB4CFC1B077FFFFFFFFF118612E073D4146AE027662F85EB6497617589AF7A0CB
1004
9E5F3A0E80A71441CB4C0E80A71441CB4C783C583252F06C6E1408E46A9FB7DBA2DC0C2817FC9FF27F89D7E275FC9FF27FAD33F5A67E0D83BFFFFFFFFFE140BFE4FF93FC4EBF13AFE4FF93FD699FAD33F06C1DFFFFFFFFFC46184B81CBE17AD925D85D61EA0A357013B326BDE832E797CE83A029C51072D3
1004
03A029C51072D31E0F160C94BC1B1B8502771CA7EDF6E73B818502FF93FC4EBF93FE4FF93FC4EBF5A67EB4CFC1B077FFFFFFFFFC2817FC9FE275FC9FF27FC9FE275FAD33F5A67E0D83BFFFFFFFFF88C54589AF7A0CB9E5F3A473DB6528F6B8CB0B9705C026509CEA326BDE832E797C63869A9DA083B431E0
1004
F160C94BECFDCBFFED4BFA77C85DC48C9FEA5370B425CCAC92E7A70B425CCAC92E6DF6FBE43FFFFFE237E275FFFFFFFA333FB13FEE5FFF6A5FCA8B135EF41973CBE74123489AA3648587A828D5C04ECC9AF7A0CB9E5F18E1A6A76820ED0C783C583252FB14A5294A693A6FE5264EF9085A48F1FEA5370B42
1004
5CD6DDE73D385A12E6B6EF39B7DBEF90FFFF88DFFF89D7FFFFFFED0CFD6CC9D4A5294A693A6FE5262A2C4D7BD065CF2F9D239EDB2947B5C6587A828D5C04ECC9AF7A0CB9E5F19A1E832E79380163C1E2C19297D9F89D7F269DF218591FEA5370B425CD28AF73D385A12E69457B9B7DBEF90FFFF89D7FFE27
1004
5FFFFFFF80B3F1193FE275FC9951626BDE832E797CE91CF6D94A3DAE32C3D4146AE027664D7BD065CF2F8C70D353B410768622922D659043C08DF8367EB3589DF2110591FEA5370B425CDDC05CF4E1684B9BB80B9B7DBEF90FFFFFF89D7E275FFFFFFF8367E2327FC1B3F59AC2A2C473DB6528F6B8CB0BE1
1004
7AD925D8B4C2E5C1700994273A8C70D353B41076860740538A20E4963C1E2C19297D9FFFBBCC4EF908D4BD3FD4A6F3A8E6564973D3CEA3995925CDBEDF7C87FFFFFC46FFFC46FE4FF6867E92CFEC4FFFFBBCC2A2C091A44D51B242C2F85EB649762D30F5051AB809D98E1A6A76820ED0C0E80A71441C92C7
1004
83C583252FB3F13AFE4D3BE4227B3FD4A6F3A8E6005C39E9E751CC00B8736FB7DF21FF11BFFFFFFF11BFFF6867E92CFEC4FF89D7F2654588E7B6CA51ED719617C2F5B24BB16987A828D5C04ECCD0F41973C9C00B03A029C510724B1E0F160C94BEC6FE52E94A5294A69193BE42EF141E7FA94DE751CC20BD
1004
73D3CEA398417AE6DF6FBE43FE275FFFFFFF88DFFF80B3F4967EB664EDFCA5D294A5294D231516239EDB2947B5C6585F0BD6C92EC5A61EA0A357013B31C34D4ED041DA181D014E288392588A48B596410F023294A5294ED7F6FE00C4EF90BF92147FA94DE751CDDC05CF4F3A8E6EE02E6DF6FBE43FFFFFE2
1004
75FFF88DFFF9F67E92CFC464EA5294A53B5FDBF8030A8B135EF41973CBE748E7B6CA51ED7196172E0B804CA139D460E80A71441C92C687A0CB9E4E0058F078B064A5F67C98D5FDBFB82FE9DF211121A7FA94DD28AF732B24B9E9D28AF732B24B9B7DBEF90FFFFFF88DFFF89D7FFC98D59F80B3FB13FC98D5
1004
FDBFB82FE54589AF7A0CB9E5F3A473DB6528F6B8CB0B9705C026509CEA30740538A20E496343D065CF27002C783C583252FB08B8A5294A28B1D8A5294A0EC4EF90801D547FA94DD28AF732B24B9E9D28AF732B24B9B7DBEF90FFFFFF88DFFF89D7FFC98D59F80B3FB1391714A52945163B14A52941D85458
1004
5F0BD6C92EC5A6239EDB2947B5C6587A828D5C04ECC1D014E28839258D0F41973C9C00B1E0F160C94BEC6FE52E94A5294A69193BE42B6169FEA5374A2BDCDDF6A2E7A74A2BDCDDF6A2E6DF6FBE43FE237FFFFFFE275FFFA4B3F0167EB664EDFCA5D294A5294D23151617C2F5B24BB0BAC473DB6528F6B8CB
1004
0F5051AB809D983A029C51072D31A1E832E79380163C1E2C19297D9FFF88C9DF213A05069FEDD4A4A2BDCDDC729FE9DDC729FA515EE6DF6FBE43FE237FFFFFFE275FFFAD33F0167F627FFFC462A2C3D4146AE02766473DB6528F6B8CB0F5051AB809D9914916B2C821E046687A0CB9E4E0058F078B064A5F
1004
67E526FD6CC9DF213C489FEDD4A4A2BDCD2C2F0FF4E961787E9457B9B7DBEF90FF89D7FFFFFFE275FFF88DF80B3F29327FCA4DFAD98A8B135EF41973CBE748E7B6CA51ED71961EA0A357013B30740538A20E496343D065CF27002C45245ACB208781183294A5288BAFEA5294A5058BFA77C8587559FEA537
1004
4A2BDCDDC05CF4E9457B9BB80B9B7DBEF90FFFFFF89D7FFE275FFF9D367E02CFC464E194A529445D7F5294A5282C5FCA8B135EF41973CBE748E7B6CA51ED71961EA0A357013B30740538A20E496343D065CF27002C45245ACB20878119BF9D267E74D89DF211A9D507FA94DD28AF73770173D3A515EE6EE0
1004
2E6DF6FBE43FFFFFE275FFF89D7FFE74D9F80B3F1193B7F3A4CFCE9B0A8B135EF41973CBE74123489AA3648585CB82E013284E75183A029C510724B0E1A6A76820ED0C783C583252FB03294A529C5FDBFDFD3BE42960D0FF529BADBBCE6564973D3ADBBCE65649736FB7DF21FFFFFF11BFFF11BF93FD2D67
1004
ED0CFEC4E194A5294E2FEDFEFE54589AF7A0CB9E5F3A091A44D51B242C2E5C1700994273A8C1D014E2883925870D353B41076863C1E2C19297D9F8D59FA5AC4EF9085994047FA94DD6DDE732B24B9E9D6DDE732B24B9B7DBEF90FFFFFF88DFFF88DFC9FE96B3F6867F627FC6ACFD2D6151617C2F5B24BB16
1004
98123489AA3648587A828D5C04ECC1D014E2883925870D353B41076863C1E2C19297D9F89D7F269DF21598B39FEA5375B779CDDF6A2E7A75B779CDDF6A2E6DF6FBE43FE237FFFFFFE237FFE92CFDA19FD89FF13AFE4CA8B0BE17AD925D85D6048D226A8D92161EA0A357013B30740538A20E5A61C34D4ED0
1004
41DA18F078B064A5F6065294A535074B0A5294A693A4EF9083246CFF6EA52DBBCE6EE394FF4EEE394FD6DDE736FB7DF21FF11BFFFFFFF11BFFF5A67ED0CFDA96270CA5294A6A0E9614A5294D27454587A828D5C04ECC123489AA3648587A828D5C04ECC8A48B596410F0231C34D4ED041DA18F078B064A5F
1004
67E275FC9A77C852891D3FDBA94B6EF39A585E1FE9D2C2F0FD6DDE736FB7DF21FF13AFFFFFFFC46FFFC46FDA19F88C9FF13AFE4CA8B135EF41973CBE74123489AA3648587A828D5C04ECC1D014E2883925870D353B410768622922D659043C08CA5294A51D37FFC95FD3BE424A5051FEA5375B779CDDC05C
1004
F4EB6EF39BB80B9B7DBEF90FFFFFF89D7FFE237FA94A529474D9FB433F1193A94A529474DFFF257F2A2C4D7BD065CF2F9D048D226A8D92161EA0A357013B30740538A20E4961C34D4ED041DA188A48B596410F02337F0167E756C4EF90924A073FD4A6EB6EF39BB80B9E9D6DDE737701736FB7DF21FFFFFF
1004
13AFFFC46FF5294A528E9B3F6867E23276FE02CFCEAD854585F0BD6C92EC5A6239EDB2947B5C6585CB82E013284E75183A029C510724B0E1A6A76820ED0C783C583252FB03294A529A83A6FEE1AC4EF9085A84FF529BBBED45CCAC92E7A777DA8B995925CDBEDF7C87FFFFFC46FC46FFFFFD259F91799FD8
1004
9C3294A529A83A6FEE1AC2A2C2F85EB649762D311CF6D94A3DAE32C3D4146AE027660E80A71441C92C3869A9DA083B43114916B2C821E046FCEADFDBF88C9DF215B2810FF529BBBED45CDDC05CF4EEFB51737701736FB7DF21FFFFFF13AFC46FFFFFD259F9D5B3F1193FE756FEDFC462A2C091A44D51B242
1004
C4D7BD065CF2F9D1EA0A357013B31C34D4ED041DA181D014E288392588A48B596410F0237E52EBF293277C84952C3FD4A6EEE02E6005C39E9DDC05CC00B8736FB7DF21FF11BFFFFFFFFF13AFDA19F949BF1193FE52EBF2931516048D226A8D921626BDE832E797CE8F5051AB809D98E1A6A76820ED0C0E80
1004
A71441C92C45245ACB2087811BE4CBAC5294A52C96989DF2124940A7FA94DDDC05CC00B873D3BB80B980170E6DF6FBE43FE237FFFFFFFFE275FB433F2937E2327F932EB14A5294B25A61516239EDB2947B5C6585F0BD6C92EC2EB0F5051AB809D98E1A6A76820ED0C0E80A71441CB4C45245ACB208781183
1004
294A529A83A6FEE1AC4EF9085A5019FEDD4A770173391AA7FA7391AA7EEE02E6DF6FBE43FFFE237FFFFFFE275F9D367EB4C6FE23270CA5294A6A0E9BFB86B0A8B0BE17AD925D85D6239EDB2947B5C6587A828D5C04ECC1D014E2883969870D353B410768622922D659043C08DFA33FFE160C4EF90AD9E1FE
1004
DD4A770173771CA7FA7771CA7EEE02E6DF6FBE43FE237FFFFFFFFE275FAD33F22FB1BF88C9FF467FFC2C1854588E7B6CA51ED719626BDE832E797CE8F5051AB809D99A1E832E79380160740538A20E49622922D659043C08DFA4BFFEB4FE9DF2125093FD4A6EEE02E6105EB9E9DDC05CC20BD736FB7DF21F
1004
F13AFFFFFFFFFC4EBF0167FFE2327FD25FFF5A7F2A2C473DB6528F6B8CB135EF41973CBE747A828D5C04ECCD0F41973C9C00B03A029C510724B114916B2C821E046FC4EBF934EF90925C39FEA537770173082F5CF4EEE02E6105EB9B7DBEF90FF89D7FFFFFFFFE275F80B3FFF1193FE275FC995161EA0A35
1004
7013B3239EDB2947B5C6587A828D5C04ECC8A48B596410F0231C34D4ED041DA188A48B596410F0237E90BFFE70FE9DF213AA49163FDBA94EE02E6961787FA74B0BC3F7701736FB7DF21FF13AFFFFFFFFFC4EBF11BF2937E2327FD217FFCE1FCA8B11CF6D94A3DAE32C4D7BD065CF2F9D1EA0A357013B31C3
1004
4D4ED041DA189AF7A0CB9E5F1914916B2C821E046FFFDDE6277C84E812287FA94DDDC05CCF0E8B9E9DDC05CCF0E8B9B7DBEF90FFFF89D7FFFFFFE275F80B3FFF1193FFFEEF30A8B11CF6D94A3DAE32C3D4146AE027663D4146AE027663869A9DA083B43114916B2C821E04645245ACB2087811BF6A59FB96
1004
277C84F0B0FF6EA53B80B9AD9D67FA75B3ACFDDC05CDBEDF7C87FFFC4EBFFFFFFF13AFD199F88DF88C9FF6A59FB961516239EDB2947B5C6589AF7A0CB9E5F3A2E5C1700994273A8C70D353B410768626BDE832E797C6783C583252FB14A5294A76BFB7F006277C84052E3FD4A6E78745CCAC92E7A73C3A2E
1004
65649736FB7DF21FFFFFF11BFFF13AFFFCFB3FFFB13A94A5294ED7F6FE00C2A2C091A44D51B242C4D7BD065CF2F9D1EA0A357013B31C34D4ED041DA189AF7A0CB9E5F19E0F160C94BEC6FE52E94A5294A69193BE427312167FA94DCF0E8B980170E7A73C3A2E6005C39B7DBEF90FF88DFFFFFFF89D7FFED0
1004
CFFFD6CC9DBF94BA5294A529A462A2C473DB6528F6B8CB135EF41973CBE747A828D5C04ECCD0F41973C9C00B135EF41973CBE33C1E2C19297D9FFF88C9DF214B06C7FA94DCF0E8B98417AE7A73C3A2E6105EB9B7DBEF90FF89D7FFFFFFE275FFF80B3FFF1193FFFE231516239EDB2947B5C6589AF7A0CB9E
1004
5F3A2E5C1700994273A8CD0F41973C9C00B03A029C510724B1E0F160C94BEC5294A52C969FFE4CBAFE9DF210B32F9FEA537082F5CCAC92E7A7082F5CCAC92E6DF6FBE43FFFFFE237E275FFFFF80B3F2937F6275294A52C969FFE4CBAFE54588E7B6CA51ED719626BDE832E797CE8B9705C026509CEA3343D
1004
065CF27002C0E80A71441C92C783C583252FB3F2975F94993BE424812420FF529B8417AE6564973D38417AE65649736FB7DF21FFFFFF11BF13AFFFFFC059F949BFB13FE52EBF2931516239EDB2947B5C6585F0BD6C92EC2EB0F5051AB809D99A1E832E79380160740538A20E5A63C1E2C19297D9F89D7F26
1004
9DF2106B67FB752820BD73391AA7FA7391AA7E105EB9B7DBEF90FFFF88DFFF89D7FFFB7F0167EB4CFEC4FF89D7F2654588E7B6CA51ED71961EA0A357013B31EA0A357013B3343D065CF27002C45245ACB20878119E0F160C94BECFD6DD7E52E93BE4294D63FDBA94105EB9AD9D67FA75B3ACFC20BD736FB7
1004
DF21FFFF13AFFFC4EBFFFFF0167E237E5264FFADBAFCA5D1516048D226A8D921626BDE832E797CE8B9705C026509CEA31C34D4ED041DA181D014E28839258F078B064A5F67EB4FFF975FD3BE42B31D87FA94DCAC92E6005C39E9CAC92E6005C39B7DBEF90FF88DFFFFFC9FFFE237ED0CFC46FEC4FFAD3FFE
1004
5D7F2A2C091A44D51B242C4D7BD065CF2F9D172E0B804CA139D463869A9DA083B4303A029C510724B1E0F160C94BECFFFC464EF90ACC0B92F529B95925CC00B873D395925CC00B8736FB7DF21FF11BFFFFF93FFFC46FDA19F88DFD89FFFF118A8B11CF6D94A3DAE32C2F85EB6497617585CB82E013284E75
1004
18E1A6A76820ED0C0E80A71441CB4C783C583252FB1BFB97F4FED4BFA77C842D244097B7528AC92E672354FF4E72354FCAC92E6DF6FBE43FFFE237FFFFFFE237C98D59FAD33FB13B7F72FE9FDA97F2A2C2F85EB6497617588E7B6CA51ED7196172E0B804CA139D460E80A71441CB4C3869A9DA083B431E0F
1004
160C94BEC6FE00FEA5294A53B589DF214A243C97B7528AC92E6EE394FF4EEE394FCAC92E6DF6FBE43FE237FFFFF27FFF88DFAD33F3ECFEC4EDFC01FD4A5294A76B0A8B0F5051AB809D991CF6D94A3DAE32C2E5C1700994273A8C8A48B596410F0231C34D4ED041DA18F078B064A5F67E9031BF920189DF21
1004
62404BDBA945649734B0BC3FD3A585E1F95925CDBEDF7C87FC4EBFFFFFFFFF11BF11BF11BFB13FE9031BF9201854588E7B6CA51ED71961EA0A357013B3172E0B804CA139D463869A9DA083B43114916B2C821E046783C583252FB1BFB86BF865294A53503277C846A5071D2EDD4A2B24B9AD9D67FA75B3AC
1004
FCAC92E6DF6FBE43FFFE275FFFFFFF88DF91799F88DFD89DBFB86BF865294A535031516048D226A8D921617C2F5B24BB0BAC3D4146AE027663869A9DA083B4303A029C51072D31E0F160C94BEC585294A5348C194A5294D40C9DF215985061D2EDD4A002E1CCE46A9FE9CE46A9F80170E6DF6FBE43FFFE23
1004
7FFE237F27FFFB433F5A67ED4B13AC294A529A460CA5294A6A062A2C091A44D51B242C3D4146AE027663D4146AE027663869A9DA083B43114916B2C821E046783C583252FB3FFF1193BE4202740E976EA500170E6B6759FE9D6CEB3F002E1CDBEDF7C87FFFC4EBFFF11BFFFFF6867E237E2327FFFC462A2C
1004
70E3489AA365EC458C945FD674BDC588B1928BFACE97B8B03A029C510725AC2B9E832E79384818F078B064A5E0D84ABC8837187E213F92AF220DC61F884C4EB0852C6A24BDBA94741A6E67322CFF4E7322CFCE834DCDBEA5294B087FC46FFFFFFFC46FFFC6ACFC019F836353FC46FC46255E441B8C3F109F
1004
C9579106E30FC42615163871A44D51B2F622C64A2FEB3A5EE2C4D7BD065CF2F9D0740538A20E4B58573D065CF270903135EF41973CBE312AF220DC61F884FE4ABC8837187E21313AC213A04871D2EA5373A0D3732577CFF4E741A6E64AEF9FA94A537D610FF88DFFFFFFF88DFFF8D59F8033FDA9FE237E23
1004
12AF220DC61F884FE4ABC8837187E2130A8B1C38D226A8D97B1C38D226A8D97B11632517F59D2F7160740538A20E4B581D014E288392D63C1E2C1929783612AF220DC61F884FE4ABC8837187E21313AC21250B23A5DBA9400E18E67322CFF4E7322CFC01C31CDBEA5294B087FC46FFFFFFFC46FFFC6ACFC6
1004
ACFC1B1A9FE237E2312AF220DC61F884FE4ABC8837187E2130A8B1C38D226A8D97B1C38D226A8D97B135EF41973CBE741D014E288392D60740538A20E4B589AF7A0CB9E5F189579106E30FC427F255E441B8C3F10989D6109C85031D2EA5370070C732577CFF4E00E18E64AEF9FA94A537D610FF88DFFFFF
1004
FF88DFFF8D59F8D59FED4FF11BF1189579106E30FC427F255E441B8C3F109854588B1928BFACE97B8B1C38D226A8D97B11632517F59D2F71615CF41973C9C240C0E80A71441C96B1E0F160C94BC1B09579106E30FC427F255E441B8C3F10989D610A4490274BB75296616B99CC8B3FD39CC8B3F5985AE6DF
1004
5294A5843FE237FFFFFFE237FFE00CFC6ACFC1B1A9FE237E2312AF220DC61F884FE4ABC8837187E2130A8B11632517F59D2F7163871A44D51B2F626BDE832E797CE8AE7A0CB9E4E12060740538A20E4B589AF7A0CB9E5F189579106E30FC427F255E441B8C3F10989D610BBC1C97A94DD6616B992BBE7FA7
1004
5985AE64AEF9FA94A537D610FF88DFFFFFFF88DFFF8033F1AB3FDA9FE237E2312AF220DC61F884FE4ABC8837187E2130A8B11632517F59D2F71622C64A2FEB3A5EE2C458C945FD674BDC58573D065CF2709030AE7A0CB9E4E12063C1E2C1929783612AF220DC61F884FE4ABC8837187E21313AC21084625E
1004
DD4A617DCCE6459FE9CE6459FB0BEE6DF5294A5843FE237FFFFFFE237FFE00CFC019F836353FC46FC46255E441B8C3F109FC9579106E30FC426151622C64A2FEB3A5EE2C458C945FD674BDC589AF7A0CB9E5F3A2B9E832E79384818573D065CF270903135EF41973CBE312AF220DC61F884FE4ABC8837187
1004
E21313AC217F241497A94DD85F732577CFF4EC2FB992BBE7EA5294DF5843FE237FFFFFFE237FFE00CFC019FED4FF11BF1189579106E30FC427F255E441B8C3F109854587A828D5C04ECC5F0BD6C92EC2EB135EF41973CBE741D014E288396981D014E288396989AF7A0CB9E5F1BF229FFF22989DF217F241
1004
897A94DC95DF3F391AA7FA72577CFCE46A9FB7DBEF90FFFF88DFFFFFFF89D7E7D9FAD33FD3FE453FFE4530A8B0BE17AD925D85D61EA0A357013B326BDE832E797CE83A029C51072D303A029C51072D3135EF41973CBE37E453FFE45313BE4227692F529B92BBE7EEE394FF4E4AEF9FBB8E53F6FB7DF21FF1
1004
1BFFFFFFFFF13AFD699F9F67FA7FC8A7FFC8A615161EA0A357013B31EA0A357013B326BDE832E797CE914916B2C821E0460E80A71441CB4C4D7BD065CF2F8DF975FFF934EF90BBC48392F529B92BBE7E961787FA72577CFD2C2F0FDBEDF7C87FC4EBFFFFFFFFF13AFC46FC46FF4FF975FFF932A2C3D4146A
1004
E027663D4146AE027664D7BD065CF2F9D0740538A20E5A622922D659043C08C9AF7A0CB9E5F1BFFF2EB13BE4248605812F529B92BBE7EB6759FE9C95DF3F5B3ACFDBEDF7C87FFFC4EBFFFFFFF13AFC46FC46FF4FFFF975854587A828D5C04ECC7A828D5C04ECC8B1928BFACE97B8B03A029C51072D311491
1004
6B2C821E046783C583252F06CFC8A7FFC8A6277C85DE247D66F529BAD9D67E7322CFF4EB6759F9CC8B3F6FB7DF21FFFFFF11BFFF13AFFFCFB3F11BF06C4FF914FFF914C2A2C2F85EB6497617587A828D5C04ECC9AF7A0CB9E5F3A0E80A71441CB4C45245ACB20878119E0F160C94BC1B3F5B75FAD993BE42
1004
16648E2CDEA5375B3ACFDDC729FE9D6CEB3F771CA7EDF6FBE43FE237FFFFFFE275FFFAD33F11BF5B327FD6DD7EB662A2C3D4146AE027663D4146AE027664D7BD065CF2F9D22922D659043C08C8A48B596410F0233C1E2C192978367FFE0D89DF21065002CDEA5375B3ACFD2C2F0FF4EB6759FA585E1FB7DB
1004
EF90FF89D7FFFFFFE275FFF88DF88DFE9FFFF06C2A2C3D4146AE027663D4146AE02766458C945FD674BDC588A48B596410F0230740538A20E5A63C1E2C192978367E453FFE45313BE4294500ACDEA5374B0BC3F399167FA74B0BC3F399167EDF6FBE43FFFFFE237E275FFFFF88DF9F67E0D89FF229FFF229
1004
854587A828D5C04ECC5F0BD6C92EC2EB135EF41973CBE748A48B596410F0230740538A20E5A63C1E2C192978367EB6EBF5B3277C84AC48BACDEA5374B0BC3F391AA7FA74B0BC3F391AA7EDF6FBE43FFFE237FFE275FFFFF88DFAD33F5B327FD6DD7EB662A2C3D4146AE027662F85EB6497617588B1928BFA
1004
CE97B8B03A029C51072D303A029C51072D31E0F160C94BC1B3F2EBFFF269DF2129246166F529B9CC8B3F391AA7FA7399167E72354FDBEDF7C87FFFC46FFFFFFFC46FD699FAD33F06C4FF975FFF932A2C2F85EB6497617587A828D5C04ECC8B1928BFACE97B8B03A029C51072D303A029C51072D31E0F160C
1004
94BC1B3FFF2EB13BE4200B3166F529B9CC8B3F771CA7FA7399167EEE394FDBEDF7C87FC46FFFFFFFFFC46FD699FAD33F06C4FFFF975854585F0BD6C92EC2EB0BE17AD925D85D626BDE832E797CE83A029C51072D303A029C51072D31E0F160C94BC1B3F06FFFC9A77C85848D2CDEA537391AA7EEE394FF4E
1004
72354FDDC729FB7DBEF90FF88DFFFFFFF88DFFFAD33F5A67E0D89FF06FFFC9858AC12089
1005
1CC
  0
INSERT
  8
AME_FRZ
  5
1CC
  2
AME_NIL
 10
1.0
 20
1.0
 30
1.0
1001
AME_SOL
1004

1005
0
  0
ENDSEC
  0
EOF
