105 218 1 0                             
body $-1 $1 $-1 $-1 #
lump $-1 $-1 $2 $0 #
shell $-1 $-1 $-1 $3 $1 #
face $-1 $4 $5 $2 $-1 $6 forward single #
face $-1 $7 $8 $2 $-1 $9 reversed single #
loop $-1 $-1 $10 $3 #
cone-surface $-1 -18 28 0 0 0 -1 -4.94974746830583 4.94974746830583 0 1 0 1 0 #
face $-1 $11 $12 $2 $-1 $13 reversed single #
loop $-1 $-1 $14 $4 #
plane-surface $-1 -25 0 0 1 0 0 0 0 -1 0 #
coedge $-1 $15 $16 $14 $17 0 $5 $-1 #
face $-1 $18 $19 $2 $-1 $20 forward single #
loop $-1 $-1 $21 $7 #
plane-surface $-1 0 0 -10 0 0 1 1 0 0 0 #
coedge $-1 $22 $23 $10 $17 1 $8 $-1 #
coedge $-1 $24 $10 $25 $26 0 $5 $-1 #
coedge $-1 $10 $24 $21 $27 0 $5 $-1 #
edge $-1 $28 $29 $14 $30 0 #
face $-1 $31 $32 $2 $-1 $33 reversed single #
loop $-1 $-1 $34 $11 #
cone-surface $-1 -2 28 0 0 0 -1 4.94974746830583 4.94974746830583 0 1 0 1 0 #
coedge $-1 $35 $36 $16 $27 1 $12 $-1 #
coedge $-1 $37 $14 $36 $38 1 $8 $-1 #
coedge $-1 $14 $37 $39 $40 1 $8 $-1 #
coedge $-1 $16 $15 $41 $42 0 $5 $-1 #
coedge $-1 $39 $43 $15 $26 1 $44 $-1 #
edge $-1 $29 $45 $25 $46 0 #
edge $-1 $47 $28 $21 $48 0 #
vertex $-1 $38 $49 #
vertex $-1 $17 $50 #
straight-curve $-1 -25 28 0 0 0 1 #
face $-1 $51 $44 $2 $-1 $52 forward single #
loop $-1 $-1 $53 $18 #
plane-surface $-1 5 10 0 -1 0 0 0 0 1 0 #
coedge $-1 $54 $55 $56 $57 0 $19 $-1 #
coedge $-1 $58 $21 $59 $60 0 $12 $-1 #
coedge $-1 $21 $61 $22 $38 0 $12 $-1 #
coedge $-1 $23 $22 $62 $63 1 $8 $-1 #
edge $-1 $64 $28 $22 $65 0 #
coedge $-1 $66 $25 $23 $40 0 $44 $-1 #
edge $-1 $29 $67 $23 $68 0 #
coedge $-1 $69 $59 $24 $42 1 $70 $-1 #
edge $-1 $45 $47 $41 $71 0 #
coedge $-1 $25 $72 $69 $73 0 $44 $-1 #
loop $-1 $-1 $25 $31 #
vertex $-1 $73 $74 #
ellipse-curve $-1 -18 28 10 -0 -0 -1 -4.94974746830583 4.94974746830583 0 1 #
vertex $-1 $27 $75 #
ellipse-curve $-1 -18 28 -10 0 0 1 -4.94974746830583 4.94974746830583 0 1 #
point $-1 -25 28 -10 #
point $-1 -25 28 10 #
face $-1 $76 $77 $2 $-1 $78 forward single #
plane-surface $-1 0 0 10 0 0 1 1 0 0 0 #
coedge $-1 $79 $80 $81 $82 1 $32 $-1 #
coedge $-1 $81 $34 $72 $83 0 $19 $-1 #
coedge $-1 $34 $81 $58 $84 0 $19 $-1 #
coedge $-1 $59 $69 $34 $57 1 $70 $-1 #
edge $-1 $85 $86 $56 $87 0 #
coedge $-1 $88 $35 $55 $84 1 $12 $-1 #
coedge $-1 $41 $56 $35 $60 1 $70 $-1 #
edge $-1 $47 $85 $59 $89 0 #
coedge $-1 $36 $90 $91 $92 1 $12 $-1 #
coedge $-1 $91 $93 $37 $63 0 $94 $-1 #
edge $-1 $67 $64 $37 $95 0 #
vertex $-1 $63 $96 #
straight-curve $-1 -25 10 -10 0 1 0 #
coedge $-1 $97 $39 $93 $98 1 $44 $-1 #
vertex $-1 $40 $99 #
straight-curve $-1 -25 0 10 0 -1 0 #
coedge $-1 $56 $41 $43 $73 1 $70 $-1 #
loop $-1 $-1 $41 $100 #
straight-curve $-1 -18 35 0 0 0 -1 #
coedge $-1 $43 $101 $54 $83 1 $44 $-1 #
edge $-1 $86 $45 $69 $102 0 #
point $-1 -18 35 10 #
point $-1 -18 35 -10 #
face $-1 $103 $104 $2 $-1 $105 reversed single #
loop $-1 $-1 $106 $51 #
cone-surface $-1 18 8 0 0 0 -1 4.94974746830583 4.94974746830583 0 1 0 1 0 #
coedge $-1 $107 $53 $101 $108 1 $32 $-1 #
coedge $-1 $53 $107 $88 $109 1 $32 $-1 #
coedge $-1 $55 $54 $53 $82 0 $19 $-1 #
edge $-1 $110 $111 $53 $112 0 #
edge $-1 $86 $110 $72 $113 0 #
edge $-1 $111 $85 $58 $114 0 #
vertex $-1 $60 $115 #
vertex $-1 $83 $116 #
straight-curve $-1 -2 35 0 0 0 1 #
coedge $-1 $117 $58 $80 $109 0 $12 $-1 #
straight-curve $-1 -10 35 -10 1 0 0 #
coedge $-1 $61 $118 $119 $120 0 $12 $-1 #
coedge $-1 $121 $62 $61 $92 0 $94 $-1 #
edge $-1 $64 $122 $61 $123 0 #
coedge $-1 $62 $121 $66 $98 0 $94 $-1 #
loop $-1 $-1 $121 $124 #
straight-curve $-1 -25 -8 0 0 0 -1 #
point $-1 -25 -8 -10 #
coedge $-1 $125 $66 $126 $127 0 $44 $-1 #
edge $-1 $128 $67 $66 $129 0 #
point $-1 -25 -8 10 #
face $-1 $130 $70 $2 $-1 $131 reversed single #
coedge $-1 $72 $132 $79 $108 0 $44 $-1 #
straight-curve $-1 -10 35 10 -1 0 0 #
face $-1 $133 $134 $2 $-1 $135 forward single #
loop $-1 $-1 $136 $76 #
plane-surface $-1 0 15 0 0 -1 0 0 0 -1 0 #
coedge $-1 $137 $138 $136 $139 0 $77 $-1 #
coedge $-1 $80 $79 $140 $141 1 $32 $-1 #
edge $-1 $142 $110 $79 $143 0 #
edge $-1 $111 $144 $80 $145 0 #
vertex $-1 $108 $146 #
vertex $-1 $82 $147 #
straight-curve $-1 5 28 0 0 0 -1 #
ellipse-curve $-1 -2 28 10 -0 -0 -1 4.94974746830583 4.94974746830583 0 1 #
ellipse-curve $-1 -2 28 -10 0 0 1 4.94974746830583 4.94974746830583 0 1 #
point $-1 -2 35 -10 #
point $-1 -2 35 10 #
coedge $-1 $148 $88 $149 $150 0 $12 $-1 #
coedge $-1 $90 $151 $152 $153 1 $12 $-1 #
coedge $-1 $154 $155 $90 $120 1 $156 $-1 #
edge $-1 $157 $122 $119 $158 0 #
coedge $-1 $93 $91 $155 $159 0 $94 $-1 #
vertex $-1 $120 $160 #
ellipse-curve $-1 -18 -8 -10 0 0 1 -4.94974746830583 -4.94974746830583 0 1 #
face $-1 $100 $94 $2 $-1 $161 forward single #
coedge $-1 $162 $97 $163 $164 1 $44 $-1 #
coedge $-1 $155 $154 $97 $127 1 $156 $-1 #
edge $-1 $128 $165 $126 $166 0 #
vertex $-1 $98 $167 #
ellipse-curve $-1 -18 -8 10 -0 -0 -1 -4.94974746830583 -4.94974746830583 0 1 #
face $-1 $-1 $168 $2 $-1 $169 reversed single #
plane-surface $-1 -10 35 0 0 -1 0 0 0 -1 0 #
coedge $-1 $101 $170 $171 $172 0 $44 $-1 #
face $-1 $124 $156 $2 $-1 $173 reversed single #
loop $-1 $-1 $174 $103 #
cone-surface $-1 18 -8 0 0 0 -1 4.94974746830583 -4.94974746830583 0 1 0 1 0 #
coedge $-1 $149 $171 $106 $139 1 $104 $-1 #
coedge $-1 $175 $106 $170 $176 0 $77 $-1 #
coedge $-1 $106 $175 $148 $177 0 $77 $-1 #
edge $-1 $178 $179 $136 $180 0 #
coedge $-1 $171 $149 $107 $141 0 $104 $-1 #
edge $-1 $144 $142 $140 $181 0 #
vertex $-1 $172 $182 #
straight-curve $-1 5 10 10 0 1 0 #
vertex $-1 $150 $183 #
straight-curve $-1 5 10 -10 0 -1 0 #
point $-1 5 28 10 #
point $-1 5 28 -10 #
coedge $-1 $151 $117 $138 $177 1 $12 $-1 #
coedge $-1 $140 $136 $117 $150 1 $104 $-1 #
edge $-1 $144 $178 $149 $184 0 #
coedge $-1 $118 $148 $185 $186 0 $12 $-1 #
coedge $-1 $174 $187 $118 $153 0 $134 $-1 #
edge $-1 $157 $188 $118 $189 0 #
coedge $-1 $126 $119 $187 $190 1 $156 $-1 #
coedge $-1 $119 $126 $121 $159 1 $156 $-1 #
loop $-1 $-1 $154 $133 #
vertex $-1 $190 $191 #
straight-curve $-1 0 -15 -10 -1 0 0 #
edge $-1 $122 $128 $155 $192 0 #
point $-1 -18 -15 -10 #
cone-surface $-1 -18 -8 0 -0 -0 -1 -4.94974746830583 -4.94974746830583 0 1 0 1 0 #
coedge $-1 $170 $125 $193 $194 0 $44 $-1 #
coedge $-1 $187 $174 $125 $164 0 $134 $-1 #
edge $-1 $195 $165 $125 $196 0 #
vertex $-1 $127 $197 #
straight-curve $-1 0 -15 10 1 0 0 #
point $-1 -18 -15 10 #
loop $-1 $-1 $198 $130 #
plane-surface $-1 25 0 0 -1 0 0 0 -0 1 0 #
coedge $-1 $132 $162 $137 $176 1 $44 $-1 #
coedge $-1 $136 $140 $132 $172 1 $104 $-1 #
edge $-1 $179 $142 $171 $199 0 #
plane-surface $-1 0 -15 0 0 1 -0 -0 0 1 0 #
coedge $-1 $163 $152 $200 $201 0 $134 $-1 #
coedge $-1 $138 $137 $198 $202 0 $77 $-1 #
edge $-1 $179 $203 $170 $204 0 #
edge $-1 $205 $178 $148 $206 0 #
vertex $-1 $150 $207 #
vertex $-1 $139 $208 #
straight-curve $-1 18 15 0 0 0 1 #
straight-curve $-1 5 15 0 0 0 1 #
point $-1 5 15 10 #
point $-1 5 15 -10 #
straight-curve $-1 0 15 -10 1 0 0 #
coedge $-1 $198 $200 $151 $186 1 $168 $-1 #
edge $-1 $205 $188 $185 $209 0 #
coedge $-1 $152 $163 $154 $190 0 $134 $-1 #
vertex $-1 $186 $210 #
ellipse-curve $-1 18 -8 -10 0 0 1 4.94974746830583 -4.94974746830583 0 1 #
edge $-1 $165 $157 $154 $211 0 #
point $-1 18 -15 -10 #
straight-curve $-1 -18 -15 0 0 0 1 #
coedge $-1 $200 $198 $162 $194 1 $168 $-1 #
edge $-1 $195 $203 $193 $212 0 #
vertex $-1 $164 $213 #
ellipse-curve $-1 18 -8 10 -0 -0 -1 4.94974746830583 -4.94974746830583 0 1 #
point $-1 18 -15 10 #
coedge $-1 $193 $185 $175 $202 1 $168 $-1 #
straight-curve $-1 0 15 10 -1 0 0 #
coedge $-1 $185 $193 $174 $201 1 $168 $-1 #
edge $-1 $188 $195 $200 $214 0 #
edge $-1 $203 $205 $198 $215 0 #
vertex $-1 $194 $216 #
ellipse-curve $-1 18 8 10 -0 -0 -1 4.94974746830583 4.94974746830583 0 1 #
vertex $-1 $177 $217 #
ellipse-curve $-1 18 8 -10 0 0 1 4.94974746830583 4.94974746830583 0 1 #
point $-1 18 15 -10 #
point $-1 18 15 10 #
straight-curve $-1 25 0 -10 0 -1 0 #
point $-1 25 -8 -10 #
straight-curve $-1 18 -15 0 0 0 -1 #
straight-curve $-1 25 0 10 0 1 0 #
point $-1 25 -8 10 #
straight-curve $-1 25 -8 0 0 0 1 #
straight-curve $-1 25 8 0 0 0 -1 #
point $-1 25 8 10 #
point $-1 25 8 -10 #
