600 0 1 0           
83 GICL ACIS Healer - Source: /gicl/data5/repository/UMD/tmp/Lpocket/Lpocket.sat - 6 0 18 ACIS 6.0.3 Solaris 24 Sun Apr 14 00:34:18 2002 
1 9.999999999999999547e-07 1.000000000000000036e-10 
body $-1 $1 $-1 $-1 #
lump $-1 $-1 $2 $0 #
shell $-1 $-1 $-1 $3 $-1 $1 #
face $-1 $4 $5 $2 $-1 $6 forward single #
face $-1 $7 $8 $2 $-1 $9 reversed single #
loop $-1 $-1 $10 $3 #
cone-surface $-1 -18 28 0 0 0 -1 -4.949747468305830012 4.949747468305830012 0 1 I I 0 1 6.999999999999996447 forward I I I I #
face $-1 $11 $12 $2 $-1 $13 reversed single #
loop $-1 $-1 $14 $4 #
plane-surface $-1 -25 0 0 1 0 0 0 0 -1 forward_v I I I I #
coedge $-1 $15 $16 $14 $17 forward $5 $-1 #
face $-1 $18 $19 $2 $-1 $20 forward single #
loop $-1 $-1 $21 $7 #
plane-surface $-1 0 0 -10 0 0 1 1 0 0 forward_v I I I I #
coedge $-1 $22 $23 $10 $17 reversed $8 $-1 #
coedge $-1 $24 $10 $25 $26 forward $5 $-1 #
coedge $-1 $10 $24 $21 $27 forward $5 $-1 #
edge $-1 $28 -10 $29 10 $14 $30 forward 7 unknown #
face $-1 $31 $32 $2 $-1 $33 reversed single #
loop $-1 $-1 $34 $11 #
cone-surface $-1 -2 28 0 0 0 -1 4.949747468305830012 4.949747468305830012 0 1 I I 0 1 6.999999999999996447 forward I I I I #
coedge $-1 $35 $36 $16 $27 reversed $12 $-1 #
coedge $-1 $37 $14 $36 $38 reversed $8 $-1 #
coedge $-1 $14 $37 $39 $40 reversed $8 $-1 #
coedge $-1 $16 $15 $41 $42 forward $5 $-1 #
coedge $-1 $39 $43 $15 $26 reversed $44 $-1 #
edge $-1 $29 -0.785398163397448279 $45 0.785398163397448279 $25 $46 forward 7 unknown #
edge $-1 $47 -0.785398163397448279 $28 0.785398163397448279 $21 $48 forward 7 unknown #
vertex $-1 $38 $49 #
vertex $-1 $17 $50 #
straight-curve $-1 -25 28 0 0 0 1 I I #
face $-1 $51 $44 $2 $-1 $52 forward single #
loop $-1 $-1 $53 $18 #
plane-surface $-1 5 10 0 -1 0 0 0 0 1 forward_v I I I I #
coedge $-1 $54 $55 $56 $57 forward $19 $-1 #
coedge $-1 $58 $21 $59 $60 forward $12 $-1 #
coedge $-1 $21 $61 $22 $38 forward $12 $-1 #
coedge $-1 $23 $22 $62 $63 reversed $8 $-1 #
edge $-1 $64 -18 $28 18 $22 $65 forward 7 unknown #
coedge $-1 $66 $25 $23 $40 forward $44 $-1 #
edge $-1 $29 -28 $67 8 $23 $68 forward 7 unknown #
coedge $-1 $69 $59 $24 $42 reversed $70 $-1 #
edge $-1 $45 -10 $47 10 $41 $71 forward 7 unknown #
coedge $-1 $25 $72 $69 $73 forward $44 $-1 #
loop $-1 $-1 $25 $31 #
vertex $-1 $73 $74 #
ellipse-curve $-1 -18 28 10 -0 -0 -1 -4.949747468305830012 4.949747468305830012 0 1 I I #
vertex $-1 $27 $75 #
ellipse-curve $-1 -18 28 -10 0 0 1 -4.949747468305830012 4.949747468305830012 0 1 I I #
point $-1 -25 28 -10 #
point $-1 -25 28 10 #
face $-1 $76 $77 $2 $-1 $78 forward single #
plane-surface $-1 0 0 10 0 0 1 1 0 0 forward_v I I I I #
coedge $-1 $79 $80 $81 $82 reversed $32 $-1 #
coedge $-1 $81 $34 $72 $83 forward $19 $-1 #
coedge $-1 $34 $81 $58 $84 forward $19 $-1 #
coedge $-1 $59 $69 $34 $57 reversed $70 $-1 #
edge $-1 $85 -10 $86 10 $56 $87 forward 7 unknown #
coedge $-1 $88 $35 $55 $84 reversed $12 $-1 #
coedge $-1 $41 $56 $35 $60 reversed $70 $-1 #
edge $-1 $47 -8 $85 8 $59 $89 forward 7 unknown #
coedge $-1 $36 $90 $91 $92 reversed $12 $-1 #
coedge $-1 $91 $93 $37 $63 forward $94 $-1 #
edge $-1 $67 -10 $64 10 $37 $95 forward 7 unknown #
vertex $-1 $63 $96 #
straight-curve $-1 -25 10 -10 0 1 0 I I #
coedge $-1 $97 $39 $93 $98 reversed $44 $-1 #
vertex $-1 $40 $99 #
straight-curve $-1 -25 0 10 0 -1 0 I I #
coedge $-1 $56 $41 $43 $73 reversed $70 $-1 #
loop $-1 $-1 $41 $100 #
straight-curve $-1 -18 35 0 0 0 -1 I I #
coedge $-1 $43 $101 $54 $83 reversed $44 $-1 #
edge $-1 $86 -8 $45 8 $69 $102 forward 7 unknown #
point $-1 -18 35 10 #
point $-1 -18 35 -10 #
face $-1 $103 $104 $2 $-1 $105 reversed single #
loop $-1 $-1 $106 $51 #
cone-surface $-1 18 8 0 0 0 -1 4.949747468305830012 4.949747468305830012 0 1 I I 0 1 6.999999999999996447 forward I I I I #
coedge $-1 $107 $53 $101 $108 reversed $32 $-1 #
coedge $-1 $53 $107 $88 $109 reversed $32 $-1 #
coedge $-1 $55 $54 $53 $82 forward $19 $-1 #
edge $-1 $110 -10 $111 10 $53 $112 forward 7 unknown #
edge $-1 $86 -0.785398163397448279 $110 0.785398163397448279 $72 $113 forward 7 unknown #
edge $-1 $111 -0.785398163397448279 $85 0.785398163397448279 $58 $114 forward 7 unknown #
vertex $-1 $60 $115 #
vertex $-1 $83 $116 #
straight-curve $-1 -2 35 0 0 0 1 I I #
coedge $-1 $117 $58 $80 $109 forward $12 $-1 #
straight-curve $-1 -10 35 -10 1 0 0 I I #
coedge $-1 $61 $118 $119 $120 forward $12 $-1 #
coedge $-1 $121 $62 $61 $92 forward $94 $-1 #
edge $-1 $64 -0.785398163397448279 $122 0.785398163397448279 $61 $123 forward 7 unknown #
coedge $-1 $62 $121 $66 $98 forward $94 $-1 #
loop $-1 $-1 $121 $124 #
straight-curve $-1 -25 -8 0 0 0 -1 I I #
point $-1 -25 -8 -10 #
coedge $-1 $125 $66 $126 $127 forward $44 $-1 #
edge $-1 $128 -0.785398163397448279 $67 0.785398163397448279 $66 $129 forward 7 unknown #
point $-1 -25 -8 10 #
face $-1 $130 $70 $2 $-1 $131 reversed single #
coedge $-1 $72 $132 $79 $108 forward $44 $-1 #
straight-curve $-1 -10 35 10 -1 0 0 I I #
face $-1 $133 $134 $2 $-1 $135 forward single #
loop $-1 $-1 $136 $76 #
plane-surface $-1 0 15 0 0 -1 0 0 0 -1 forward_v I I I I #
coedge $-1 $137 $138 $136 $139 forward $77 $-1 #
coedge $-1 $80 $79 $140 $141 reversed $32 $-1 #
edge $-1 $142 5 $110 18 $79 $143 forward 7 unknown #
edge $-1 $111 -18 $144 -5 $80 $145 forward 7 unknown #
vertex $-1 $108 $146 #
vertex $-1 $82 $147 #
straight-curve $-1 5 28 0 0 0 -1 I I #
ellipse-curve $-1 -2 28 10 -0 -0 -1 4.949747468305830012 4.949747468305830012 0 1 I I #
ellipse-curve $-1 -2 28 -10 0 0 1 4.949747468305830012 4.949747468305830012 0 1 I I #
point $-1 -2 35 -10 #
point $-1 -2 35 10 #
coedge $-1 $148 $88 $149 $150 forward $12 $-1 #
coedge $-1 $90 $151 $152 $153 reversed $12 $-1 #
coedge $-1 $154 $155 $90 $120 reversed $156 $-1 #
edge $-1 $157 -18 $122 18 $119 $158 forward 7 unknown #
coedge $-1 $93 $91 $155 $159 forward $94 $-1 #
vertex $-1 $120 $160 #
ellipse-curve $-1 -18 -8 -10 0 0 1 -4.949747468305830012 -4.949747468305830012 0 1 I I #
face $-1 $100 $94 $2 $-1 $161 forward single #
coedge $-1 $162 $97 $163 $164 reversed $44 $-1 #
coedge $-1 $155 $154 $97 $127 reversed $156 $-1 #
edge $-1 $128 -18 $165 18 $126 $166 forward 7 unknown #
vertex $-1 $98 $167 #
ellipse-curve $-1 -18 -8 10 -0 -0 -1 -4.949747468305830012 -4.949747468305830012 0 1 I I #
face $-1 $-1 $168 $2 $-1 $169 reversed single #
plane-surface $-1 -10 35 0 0 -1 0 0 0 -1 forward_v I I I I #
coedge $-1 $101 $170 $171 $172 forward $44 $-1 #
face $-1 $124 $156 $2 $-1 $173 reversed single #
loop $-1 $-1 $174 $103 #
cone-surface $-1 18 -8 0 0 0 -1 4.949747468305830012 -4.949747468305830012 0 1 I I 0 1 6.999999999999996447 forward I I I I #
coedge $-1 $149 $171 $106 $139 reversed $104 $-1 #
coedge $-1 $175 $106 $170 $176 forward $77 $-1 #
coedge $-1 $106 $175 $148 $177 forward $77 $-1 #
edge $-1 $178 -10 $179 10 $136 $180 forward 7 unknown #
coedge $-1 $171 $149 $107 $141 forward $104 $-1 #
edge $-1 $144 -10 $142 10 $140 $181 forward 7 unknown #
vertex $-1 $172 $182 #
straight-curve $-1 5 10 10 0 1 0 I I #
vertex $-1 $150 $183 #
straight-curve $-1 5 10 -10 0 -1 0 I I #
point $-1 5 28 10 #
point $-1 5 28 -10 #
coedge $-1 $151 $117 $138 $177 reversed $12 $-1 #
coedge $-1 $140 $136 $117 $150 reversed $104 $-1 #
edge $-1 $144 5 $178 18 $149 $184 forward 7 unknown #
coedge $-1 $118 $148 $185 $186 forward $12 $-1 #
coedge $-1 $174 $187 $118 $153 forward $134 $-1 #
edge $-1 $157 -0.785398163397448279 $188 0.785398163397448279 $118 $189 forward 7 unknown #
coedge $-1 $126 $119 $187 $190 reversed $156 $-1 #
coedge $-1 $119 $126 $121 $159 reversed $156 $-1 #
loop $-1 $-1 $154 $133 #
vertex $-1 $190 $191 #
straight-curve $-1 0 -15 -10 -1 0 0 I I #
edge $-1 $122 -10 $128 10 $155 $192 forward 7 unknown #
point $-1 -18 -15 -10 #
cone-surface $-1 -18 -8 0 -0 -0 -1 -4.949747468305830012 -4.949747468305830012 0 1 I I 0 1 6.999999999999996447 forward I I I I #
coedge $-1 $170 $125 $193 $194 forward $44 $-1 #
coedge $-1 $187 $174 $125 $164 forward $134 $-1 #
edge $-1 $195 -0.785398163397448279 $165 0.785398163397448279 $125 $196 forward 7 unknown #
vertex $-1 $127 $197 #
straight-curve $-1 0 -15 10 1 0 0 I I #
point $-1 -18 -15 10 #
loop $-1 $-1 $198 $130 #
plane-surface $-1 25 0 0 -1 0 0 0 -0 1 forward_v I I I I #
coedge $-1 $132 $162 $137 $176 reversed $44 $-1 #
coedge $-1 $136 $140 $132 $172 reversed $104 $-1 #
edge $-1 $179 -18 $142 -5 $171 $199 forward 7 unknown #
plane-surface $-1 0 -15 0 0 1 -0 -0 0 1 forward_v I I I I #
coedge $-1 $163 $152 $200 $201 forward $134 $-1 #
coedge $-1 $138 $137 $198 $202 forward $77 $-1 #
edge $-1 $179 -0.785398163397448279 $203 0.785398163397448279 $170 $204 forward 7 unknown #
edge $-1 $205 -0.785398163397448279 $178 0.785398163397448279 $148 $206 forward 7 unknown #
vertex $-1 $150 $207 #
vertex $-1 $139 $208 #
straight-curve $-1 18 15 0 0 0 1 I I #
straight-curve $-1 5 15 0 0 0 1 I I #
point $-1 5 15 10 #
point $-1 5 15 -10 #
straight-curve $-1 0 15 -10 1 0 0 I I #
coedge $-1 $198 $200 $151 $186 reversed $168 $-1 #
edge $-1 $205 -8 $188 8 $185 $209 forward 7 unknown #
coedge $-1 $152 $163 $154 $190 forward $134 $-1 #
vertex $-1 $186 $210 #
ellipse-curve $-1 18 -8 -10 0 0 1 4.949747468305830012 -4.949747468305830012 0 1 I I #
edge $-1 $165 -10 $157 10 $154 $211 forward 7 unknown #
point $-1 18 -15 -10 #
straight-curve $-1 -18 -15 0 0 0 1 I I #
coedge $-1 $200 $198 $162 $194 reversed $168 $-1 #
edge $-1 $195 -8 $203 8 $193 $212 forward 7 unknown #
vertex $-1 $164 $213 #
ellipse-curve $-1 18 -8 10 -0 -0 -1 4.949747468305830012 -4.949747468305830012 0 1 I I #
point $-1 18 -15 10 #
coedge $-1 $193 $185 $175 $202 reversed $168 $-1 #
straight-curve $-1 0 15 10 -1 0 0 I I #
coedge $-1 $185 $193 $174 $201 reversed $168 $-1 #
edge $-1 $188 -10 $195 10 $200 $214 forward 7 unknown #
edge $-1 $203 -10 $205 10 $198 $215 forward 7 unknown #
vertex $-1 $194 $216 #
ellipse-curve $-1 18 8 10 -0 -0 -1 4.949747468305830012 4.949747468305830012 0 1 I I #
vertex $-1 $177 $217 #
ellipse-curve $-1 18 8 -10 0 0 1 4.949747468305830012 4.949747468305830012 0 1 I I #
point $-1 18 15 -10 #
point $-1 18 15 10 #
straight-curve $-1 25 0 -10 0 -1 0 I I #
point $-1 25 -8 -10 #
straight-curve $-1 18 -15 0 0 0 -1 I I #
straight-curve $-1 25 0 10 0 1 0 I I #
point $-1 25 -8 10 #
straight-curve $-1 25 -8 0 0 0 1 I I #
straight-curve $-1 25 8 0 0 0 -1 I I #
point $-1 25 8 10 #
point $-1 25 8 -10 #
End-of-ACIS-data 