600 0 2 0           
24 FBMach with ACIS - 6.0.3 13 ACIS 6.0.3 NT 24 Tue May 22 12:25:16 2001 
1 9.9999999999999995e-007 1e-010 
body $2 $3 $-1 $4 #
bdycol-kcp $-1 1 2 $5 $6 #
model_id-kcp-attrib $-1 $-1 $-1 $0 1 990548716 50 36831233 1 #
lump $-1 $-1 $7 $0 #
transform $-1 1 0 0 0 1 0 0 0 1 0 0 0 1 no_rotate no_reflect no_shear #
body $8 $9 $-1 $10 #
body $11 $12 $-1 $13 #
shell $-1 $-1 $-1 $14 $-1 $3 #
model_id-kcp-attrib $-1 $-1 $-1 $5 1 990548716 50 36831234 1 #
lump $-1 $-1 $15 $5 #
transform $-1 1 0 0 0 1 0 0 0 1 0 10 0 1 no_rotate no_reflect no_shear #
rgb_color-st-attrib $-1 $16 $-1 $6 1 0.5 1 #
lump $-1 $-1 $17 $6 #
transform $-1 1 0 0 0 1 0 0 0 1 0 10 0 1 no_rotate no_reflect no_shear #
face $18 $19 $20 $7 $-1 $21 forward single #
shell $-1 $-1 $-1 $22 $-1 $9 #
model_id-kcp-attrib $-1 $-1 $11 $6 1 990548716 280 35127299 1 #
shell $-1 $-1 $-1 $23 $-1 $12 #
model_id-kcp-attrib $-1 $-1 $-1 $14 1 990548716 50 36831233 2 #
face $24 $25 $26 $7 $-1 $27 reversed single #
loop $-1 $-1 $28 $14 #
cone-surface $-1 -18 28 0 0 0 -1 -4.94974746830583 4.94974746830583 0 1 I I 0 1 6.9999999999999964 forward I I I I #
face $29 $30 $31 $15 $-1 $32 forward single #
face $-1 $33 $34 $17 $-1 $35 forward single #
model_id-kcp-attrib $-1 $-1 $-1 $19 1 990548716 50 36831233 3 #
face $36 $37 $38 $7 $-1 $39 reversed single #
loop $-1 $-1 $40 $19 #
plane-surface $-1 -25 0 0 1 0 0 0 0 -1 forward_v I I I I #
coedge $-1 $41 $42 $40 $43 forward $20 $-1 #
model_id-kcp-attrib $-1 $-1 $-1 $22 1 990548716 50 36831234 4 #
face $44 $45 $46 $15 $-1 $47 reversed single #
loop $-1 $-1 $48 $22 #
plane-surface $-1 0 0 10 0 0 1 1 0 0 forward_v I I I I #
face $-1 $49 $50 $17 $-1 $51 forward single #
loop $-1 $-1 $52 $23 #
plane-surface $-1 5 5 -10 0 0 -1 -1 0 0 forward_v I I I I #
model_id-kcp-attrib $-1 $-1 $-1 $25 1 990548716 50 36831233 4 #
face $53 $54 $55 $7 $-1 $56 forward single #
loop $-1 $-1 $57 $25 #
plane-surface $-1 0 0 -10 0 0 1 1 0 0 forward_v I I I I #
coedge $-1 $58 $59 $28 $43 reversed $26 $-1 #
coedge $-1 $60 $28 $61 $62 forward $20 $-1 #
coedge $-1 $28 $60 $57 $63 forward $20 $-1 #
edge $64 $65 -10 $66 10 $40 $67 forward 7 unknown #
model_id-kcp-attrib $-1 $-1 $-1 $30 1 990548716 50 36831234 3 #
face $68 $69 $70 $15 $-1 $71 reversed single #
loop $-1 $-1 $72 $30 #
plane-surface $-1 0 0 -10 0 0 1 1 0 0 forward_v I I I I #
coedge $-1 $73 $74 $75 $76 forward $31 $-1 #
face $-1 $77 $78 $17 $-1 $79 forward single #
loop $-1 $-1 $80 $33 #
plane-surface $-1 25 5 -10 1 0 0 0 0 -1 forward_v I I I I #
coedge $-1 $81 $82 $83 $84 forward $34 $-1 #
model_id-kcp-attrib $-1 $-1 $-1 $37 1 990548716 50 36831233 5 #
face $85 $86 $87 $7 $-1 $88 reversed single #
loop $-1 $-1 $89 $37 #
cone-surface $-1 -2 28 0 0 0 -1 4.94974746830583 4.94974746830583 0 1 I I 0 1 6.9999999999999964 forward I I I I #
coedge $-1 $90 $91 $42 $63 reversed $38 $-1 #
coedge $-1 $92 $40 $91 $93 reversed $26 $-1 #
coedge $-1 $40 $92 $94 $95 reversed $26 $-1 #
coedge $-1 $42 $41 $96 $97 forward $20 $-1 #
coedge $-1 $94 $98 $41 $62 reversed $99 $-1 #
edge $-1 $66 -0.78539816339744828 $100 0.78539816339744828 $61 $101 forward 7 unknown #
edge $102 $103 -0.78539816339744828 $65 0.78539816339744828 $57 $104 forward 7 unknown #
attrib_edge_convexity-kcp-attrib $-1 $105 $-1 $43 3 #
vertex $-1 $93 $106 #
vertex $-1 $43 $107 #
straight-curve $-1 -25 28 0 0 0 1 I I #
model_id-kcp-attrib $-1 $-1 $-1 $45 1 990548716 50 36831234 5 #
face $108 $109 $110 $15 $-1 $111 reversed single #
loop $-1 $-1 $112 $45 #
plane-surface $-1 0 -25 0 0 1 0 0 0 1 forward_v I I I I #
coedge $-1 $113 $114 $115 $116 forward $46 $-1 #
coedge $-1 $117 $48 $118 $119 forward $31 $-1 #
coedge $-1 $48 $117 $120 $121 forward $31 $-1 #
coedge $-1 $122 $123 $48 $76 reversed $124 $-1 #
edge $-1 $125 -25 $126 25 $75 $127 forward 7 unknown #
face $-1 $128 $129 $17 $-1 $130 forward single #
loop $-1 $-1 $131 $49 #
plane-surface $-1 25 5 10 0 0 1 1 0 0 forward_v I I I I #
coedge $-1 $132 $133 $134 $135 forward $50 $-1 #
coedge $-1 $136 $52 $133 $137 reversed $34 $-1 #
coedge $-1 $52 $136 $138 $139 forward $34 $-1 #
coedge $-1 $140 $134 $52 $84 reversed $141 $-1 #
edge $-1 $142 -0.75 $143 19.25 $52 $144 forward 7 unknown #
model_id-kcp-attrib $-1 $-1 $-1 $54 1 990548716 50 36831233 6 #
face $145 $146 $99 $7 $-1 $147 forward single #
loop $-1 $-1 $148 $54 #
plane-surface $-1 5 10 0 -1 0 0 0 0 1 forward_v I I I I #
coedge $-1 $149 $150 $151 $152 forward $55 $-1 #
coedge $-1 $153 $57 $154 $155 forward $38 $-1 #
coedge $-1 $57 $156 $58 $93 forward $38 $-1 #
coedge $-1 $59 $58 $157 $158 reversed $26 $-1 #
edge $159 $160 -18 $65 18 $58 $161 forward 7 unknown #
coedge $-1 $162 $61 $59 $95 forward $99 $-1 #
edge $163 $66 -28 $164 8 $59 $165 forward 7 unknown #
coedge $-1 $166 $154 $60 $97 reversed $167 $-1 #
edge $-1 $100 -10 $103 10 $96 $168 forward 7 unknown #
coedge $-1 $61 $169 $166 $170 forward $99 $-1 #
loop $-1 $-1 $61 $86 #
vertex $-1 $170 $171 #
ellipse-curve $-1 -18 28 10 0 0 -1 -4.94974746830583 4.94974746830583 0 1 I I #
attrib_edge_convexity-kcp-attrib $-1 $172 $-1 $63 1 #
vertex $-1 $63 $173 #
ellipse-curve $-1 -18 28 -10 0 0 1 -4.94974746830583 4.94974746830583 0 1 I I #
convexity-sys-attrib $-1 $-1 $64 $43 #
point $-1 -25 28 -10 #
point $-1 -25 28 10 #
model_id-kcp-attrib $-1 $-1 $-1 $69 1 990548716 50 36831234 2 #
face $174 $175 $176 $15 $-1 $177 reversed single #
loop $-1 $-1 $178 $69 #
plane-surface $-1 -25 0 0 1 0 0 0 0 -1 forward_v I I I I #
coedge $-1 $179 $120 $180 $181 forward $70 $-1 #
coedge $-1 $182 $72 $179 $183 forward $46 $-1 #
coedge $-1 $72 $182 $184 $185 forward $46 $-1 #
coedge $-1 $123 $122 $72 $116 reversed $124 $-1 #
edge $-1 $186 -25 $187 25 $115 $188 forward 7 unknown #
coedge $-1 $74 $73 $189 $190 forward $31 $-1 #
coedge $-1 $191 $192 $73 $119 reversed $176 $-1 #
edge $-1 $126 -25 $193 25 $118 $194 forward 7 unknown #
coedge $-1 $112 $195 $74 $121 reversed $70 $-1 #
edge $-1 $196 -25 $125 25 $120 $197 forward 7 unknown #
coedge $-1 $115 $75 $195 $198 forward $124 $-1 #
coedge $-1 $75 $115 $191 $199 reversed $124 $-1 #
loop $-1 $-1 $122 $175 #
vertex $-1 $76 $200 #
vertex $-1 $76 $201 #
straight-curve $-1 25 0 10 0 1 0 I I #
face $-1 $202 $141 $17 $-1 $203 forward single #
loop $-1 $-1 $204 $77 #
plane-surface $-1 5 5 10 -1 0 0 0 0 1 forward_v I I I I #
coedge $-1 $205 $206 $207 $208 forward $78 $-1 #
coedge $-1 $209 $80 $206 $210 reversed $50 $-1 #
coedge $-1 $80 $209 $81 $137 forward $50 $-1 #
coedge $-1 $83 $207 $80 $135 reversed $141 $-1 #
edge $-1 $143 -10 $211 10 $80 $212 forward 7 unknown #
coedge $-1 $82 $81 $213 $214 reversed $34 $-1 #
edge $-1 $215 0 $143 13 $133 $216 forward 7 unknown #
coedge $-1 $217 $204 $82 $139 reversed $129 $-1 #
edge $-1 $218 0 $142 13 $82 $219 forward 7 unknown #
coedge $-1 $207 $83 $204 $220 reversed $141 $-1 #
loop $-1 $-1 $83 $128 #
vertex $-1 $139 $221 #
vertex $-1 $137 $222 #
straight-curve $-1 5.75 18 -10 1 0 0 I I #
model_id-kcp-attrib $-1 $-1 $-1 $86 1 990548716 50 36831233 7 #
face $223 $224 $225 $7 $-1 $226 forward single #
plane-surface $-1 0 0 10 0 0 1 1 0 0 forward_v I I I I #
coedge $-1 $227 $228 $229 $230 reversed $87 $-1 #
coedge $-1 $229 $89 $169 $231 forward $55 $-1 #
coedge $-1 $89 $229 $153 $232 forward $55 $-1 #
coedge $-1 $154 $166 $89 $152 reversed $167 $-1 #
edge $-1 $233 -10 $234 10 $151 $235 forward 7 unknown #
coedge $-1 $236 $90 $150 $232 reversed $38 $-1 #
coedge $-1 $96 $151 $90 $155 reversed $167 $-1 #
edge $237 $103 -8 $233 8 $154 $238 forward 7 unknown #
coedge $-1 $91 $239 $240 $241 reversed $38 $-1 #
coedge $-1 $240 $242 $92 $158 forward $243 $-1 #
edge $244 $164 -10 $160 10 $92 $245 forward 7 unknown #
attrib_edge_convexity-kcp-attrib $-1 $246 $-1 $93 1 #
vertex $-1 $158 $247 #
straight-curve $-1 -25 10 -10 0 1 0 I I #
coedge $-1 $248 $94 $242 $249 reversed $99 $-1 #
attrib_edge_convexity-kcp-attrib $-1 $250 $-1 $95 1 #
vertex $-1 $95 $251 #
straight-curve $-1 -25 0 10 0 -1 0 I I #
coedge $-1 $151 $96 $98 $170 reversed $167 $-1 #
loop $-1 $-1 $96 $252 #
straight-curve $-1 -18 35 0 0 0 -1 I I #
coedge $-1 $98 $253 $149 $231 reversed $99 $-1 #
edge $-1 $234 -8 $100 8 $166 $254 forward 7 unknown #
point $-1 -18 35 10 #
convexity-sys-attrib $-1 $-1 $102 $63 #
point $-1 -18 35 -10 #
model_id-kcp-attrib $-1 $-1 $-1 $109 1 990548716 50 36831234 6 #
face $255 $-1 $124 $15 $-1 $256 reversed single #
loop $-1 $-1 $191 $109 #
plane-surface $-1 0 25 0 0 -1 0 0 0 -1 forward_v I I I I #
coedge $-1 $257 $189 $192 $258 forward $110 $-1 #
coedge $-1 $195 $112 $113 $183 reversed $70 $-1 #
coedge $-1 $189 $257 $112 $181 reversed $110 $-1 #
edge $-1 $196 -10 $259 10 $180 $260 forward 7 unknown #
coedge $-1 $114 $113 $257 $261 forward $46 $-1 #
edge $-1 $187 -25 $259 25 $179 $262 forward 7 unknown #
coedge $-1 $192 $191 $114 $185 reversed $176 $-1 #
edge $-1 $263 -25 $186 25 $184 $264 forward 7 unknown #
vertex $-1 $116 $265 #
vertex $-1 $198 $266 #
straight-curve $-1 25 0 -10 0 -1 0 I I #
coedge $-1 $178 $180 $117 $190 reversed $110 $-1 #
edge $-1 $193 -25 $196 25 $189 $267 forward 7 unknown #
coedge $-1 $184 $118 $123 $199 forward $176 $-1 #
coedge $-1 $118 $184 $178 $258 reversed $176 $-1 #
vertex $-1 $119 $268 #
straight-curve $-1 0 25 10 -1 0 0 I I #
coedge $-1 $120 $179 $122 $198 reversed $70 $-1 #
vertex $-1 $190 $269 #
straight-curve $-1 0 -25 10 1 0 0 I I #
edge $-1 $125 -10 $187 10 $122 $270 forward 7 unknown #
edge $-1 $126 -10 $186 10 $123 $271 forward 7 unknown #
point $-1 25 -25 10 #
point $-1 25 25 10 #
face $-1 $-1 $272 $17 $-1 $273 reversed single #
plane-surface $-1 15 18 0 0 1 0 0 0 1 forward_v I I I I #
coedge $-1 $138 $274 $140 $220 forward $129 $-1 #
coedge $-1 $275 $131 $274 $276 reversed $78 $-1 #
coedge $-1 $131 $275 $132 $210 forward $78 $-1 #
coedge $-1 $134 $140 $131 $208 reversed $141 $-1 #
edge $-1 $211 -19.25 $277 0.75 $131 $278 forward 7 unknown #
coedge $-1 $133 $132 $279 $280 reversed $50 $-1 #
edge $-1 $281 0 $211 13 $206 $282 forward 7 unknown #
vertex $-1 $210 $283 #
straight-curve $-1 25 18 0 0 0 1 I I #
coedge $-1 $279 $284 $136 $214 forward $272 $-1 #
edge $285 $218 -0.75 $215 19.25 $136 $286 forward 7 unknown #
vertex $-1 $214 $287 #
straight-curve $-1 25 5 -10 0 1 0 I I #
coedge $-1 $274 $138 $284 $288 reversed $129 $-1 #
vertex $-1 $288 $289 #
straight-curve $-1 5 5 -10 0 1 0 I I #
edge $-1 $277 -10 $142 10 $204 $290 forward 7 unknown #
point $-1 5 18 -10 #
point $-1 25 18 -10 #
model_id-kcp-attrib $-1 $-1 $-1 $146 1 990548716 50 36831233 8 #
face $291 $292 $293 $7 $-1 $294 reversed single #
loop $-1 $-1 $295 $146 #
cone-surface $-1 18 8 0 0 0 -1 4.94974746830583 4.94974746830583 0 1 I I 0 1 6.9999999999999964 forward I I I I #
coedge $-1 $296 $148 $253 $297 reversed $87 $-1 #
coedge $-1 $148 $296 $236 $298 reversed $87 $-1 #
coedge $-1 $150 $149 $148 $230 forward $55 $-1 #
edge $-1 $299 -10 $300 10 $148 $301 forward 7 unknown #
edge $-1 $234 -0.78539816339744828 $299 0.78539816339744828 $169 $302 forward 7 unknown #
edge $303 $300 -0.78539816339744828 $233 0.78539816339744828 $153 $304 forward 7 unknown #
vertex $-1 $155 $305 #
vertex $-1 $231 $306 #
straight-curve $-1 -2 35 0 0 0 1 I I #
coedge $-1 $307 $153 $228 $298 forward $38 $-1 #
attrib_edge_convexity-kcp-attrib $-1 $308 $-1 $155 1 #
straight-curve $-1 -10 35 -10 1 0 0 I I #
coedge $-1 $156 $309 $310 $311 forward $38 $-1 #
coedge $-1 $312 $157 $156 $241 forward $243 $-1 #
edge $313 $160 -0.78539816339744828 $314 0.78539816339744828 $156 $315 forward 7 unknown #
coedge $-1 $157 $312 $162 $249 forward $243 $-1 #
loop $-1 $-1 $312 $316 #
attrib_edge_convexity-kcp-attrib $-1 $317 $-1 $158 3 #
straight-curve $-1 -25 -8 0 0 0 -1 I I #
convexity-sys-attrib $-1 $-1 $159 $93 #
point $-1 -25 -8 -10 #
coedge $-1 $318 $162 $319 $320 forward $99 $-1 #
edge $-1 $321 -0.78539816339744828 $164 0.78539816339744828 $162 $322 forward 7 unknown #
convexity-sys-attrib $-1 $-1 $163 $95 #
point $-1 -25 -8 10 #
face $323 $324 $167 $7 $-1 $325 reversed single #
coedge $-1 $169 $326 $227 $297 forward $99 $-1 #
straight-curve $-1 -10 35 10 -1 0 0 I I #
model_id-kcp-attrib $-1 $-1 $-1 $175 1 990548716 50 36831234 7 #
plane-surface $-1 25 0 0 -1 0 0 0 0 1 forward_v I I I I #
coedge $-1 $180 $178 $182 $261 reversed $110 $-1 #
edge $-1 $193 -10 $263 10 $192 $327 forward 7 unknown #
vertex $-1 $261 $328 #
straight-curve $-1 -25 -25 0 0 0 -1 I I #
edge $-1 $259 -25 $263 25 $257 $329 forward 7 unknown #
straight-curve $-1 0 -25 -10 -1 0 0 I I #
vertex $-1 $185 $330 #
straight-curve $-1 0 25 -10 1 0 0 I I #
point $-1 25 25 -10 #
point $-1 25 -25 -10 #
straight-curve $-1 -25 0 10 0 -1 0 I I #
point $-1 -25 25 10 #
point $-1 -25 -25 10 #
straight-curve $-1 25 -25 0 0 0 -1 I I #
straight-curve $-1 25 25 0 0 0 -1 I I #
loop $-1 $-1 $284 $202 #
plane-surface $-1 15 5 0 0 1 0 0 0 1 forward_v I I I I #
coedge $-1 $204 $217 $205 $276 forward $129 $-1 #
coedge $-1 $206 $205 $331 $332 reversed $78 $-1 #
edge $-1 $333 0 $277 13 $274 $334 forward 7 unknown #
vertex $-1 $276 $335 #
straight-curve $-1 5.75 18 10 -1 0 0 I I #
coedge $-1 $331 $213 $209 $280 forward $272 $-1 #
edge $336 $215 -10 $281 10 $209 $337 forward 7 unknown #
vertex $-1 $280 $338 #
straight-curve $-1 25 5 10 0 1 0 I I #
point $-1 25 18 10 #
coedge $-1 $213 $331 $217 $288 forward $272 $-1 #
convexity-sys-attrib $-1 $-1 $-1 $214 #
straight-curve $-1 5.75 5 -10 1 0 0 I I #
point $-1 25 5 -10 #
edge $339 $333 -10 $218 10 $217 $340 forward 7 unknown #
point $-1 5 5 -10 #
straight-curve $-1 5 18 0 0 0 -1 I I #
model_id-kcp-attrib $-1 $-1 $-1 $224 1 990548716 50 36831233 9 #
face $341 $342 $343 $7 $-1 $344 forward single #
loop $-1 $-1 $345 $224 #
plane-surface $-1 0 15 0 0 -1 0 0 0 -1 forward_v I I I I #
coedge $-1 $346 $347 $345 $348 forward $225 $-1 #
coedge $-1 $228 $227 $349 $350 reversed $87 $-1 #
edge $-1 $351 5 $299 18 $227 $352 forward 7 unknown #
edge $353 $300 -18 $354 -5 $228 $355 forward 7 unknown #
vertex $-1 $297 $356 #
vertex $-1 $230 $357 #
straight-curve $-1 5 28 0 0 0 -1 I I #
ellipse-curve $-1 -2 28 10 0 0 -1 4.94974746830583 4.94974746830583 0 1 I I #
attrib_edge_convexity-kcp-attrib $-1 $358 $-1 $232 1 #
ellipse-curve $-1 -2 28 -10 0 0 1 4.94974746830583 4.94974746830583 0 1 I I #
point $-1 -2 35 -10 #
point $-1 -2 35 10 #
coedge $-1 $359 $236 $360 $361 forward $38 $-1 #
convexity-sys-attrib $-1 $-1 $237 $155 #
coedge $-1 $239 $362 $363 $364 reversed $38 $-1 #
coedge $-1 $365 $366 $239 $311 reversed $367 $-1 #
edge $368 $369 -18 $314 18 $310 $370 forward 7 unknown #
coedge $-1 $242 $240 $366 $371 forward $243 $-1 #
attrib_edge_convexity-kcp-attrib $-1 $372 $-1 $241 1 #
vertex $-1 $311 $373 #
ellipse-curve $-1 -18 -8 -10 0 0 1 -4.94974746830583 -4.94974746830583 0 1 I I #
face $374 $252 $243 $7 $-1 $375 forward single #
convexity-sys-attrib $-1 $-1 $244 $158 #
coedge $-1 $376 $248 $377 $378 reversed $99 $-1 #
coedge $-1 $366 $365 $248 $320 reversed $367 $-1 #
edge $379 $321 -18 $380 18 $319 $381 forward 7 unknown #
vertex $-1 $249 $382 #
ellipse-curve $-1 -18 -8 10 0 0 -1 -4.94974746830583 -4.94974746830583 0 1 I I #
model_id-kcp-attrib $-1 $-1 $-1 $252 1 990548716 50 36831233 13 #
face $383 $-1 $384 $7 $-1 $385 reversed single #
plane-surface $-1 -10 35 0 0 -1 0 0 0 -1 forward_v I I I I #
coedge $-1 $253 $386 $387 $388 forward $99 $-1 #
straight-curve $-1 -25 25 0 0 0 -1 I I #
point $-1 -25 -25 -10 #
straight-curve $-1 -25 0 -10 0 1 0 I I #
point $-1 -25 25 -10 #
coedge $-1 $284 $279 $275 $332 forward $272 $-1 #
edge $389 $281 -19.25 $333 0.75 $275 $390 forward 7 unknown #
vertex $-1 $288 $391 #
straight-curve $-1 5 5 10 0 1 0 I I #
point $-1 5 18 10 #
convexity-sys-attrib $-1 $-1 $-1 $280 #
straight-curve $-1 25 5 0 0 0 1 I I #
point $-1 25 5 10 #
convexity-sys-attrib $-1 $-1 $-1 $288 #
straight-curve $-1 5 5 0 0 0 -1 I I #
model_id-kcp-attrib $-1 $-1 $-1 $292 1 990548716 50 36831233 10 #
face $392 $316 $367 $7 $-1 $393 reversed single #
loop $-1 $-1 $394 $292 #
cone-surface $-1 18 -8 0 0 0 -1 4.94974746830583 -4.94974746830583 0 1 I I 0 1 6.9999999999999964 forward I I I I #
coedge $-1 $360 $387 $295 $348 reversed $293 $-1 #
coedge $-1 $395 $295 $386 $396 forward $225 $-1 #
coedge $-1 $295 $395 $359 $397 forward $225 $-1 #
edge $-1 $398 -10 $399 10 $345 $400 forward 7 unknown #
coedge $-1 $387 $360 $296 $350 forward $293 $-1 #
edge $-1 $354 -10 $351 10 $349 $401 forward 7 unknown #
vertex $-1 $388 $402 #
straight-curve $-1 5 10 10 0 1 0 I I #
attrib_edge_convexity-kcp-attrib $-1 $403 $-1 $298 1 #
vertex $-1 $361 $404 #
straight-curve $-1 5 10 -10 0 -1 0 I I #
point $-1 5 28 10 #
point $-1 5 28 -10 #
convexity-sys-attrib $-1 $-1 $303 $232 #
coedge $-1 $362 $307 $347 $397 reversed $38 $-1 #
coedge $-1 $349 $345 $307 $361 reversed $293 $-1 #
edge $405 $354 5 $398 18 $360 $406 forward 7 unknown #
coedge $-1 $309 $359 $407 $408 forward $38 $-1 #
coedge $-1 $394 $409 $309 $364 forward $343 $-1 #
edge $410 $369 -0.78539816339744828 $411 0.78539816339744828 $309 $412 forward 7 unknown #
coedge $-1 $319 $310 $409 $413 reversed $367 $-1 #
coedge $-1 $310 $319 $312 $371 reversed $367 $-1 #
loop $-1 $-1 $365 $342 #
attrib_edge_convexity-kcp-attrib $-1 $414 $-1 $311 1 #
vertex $-1 $413 $415 #
straight-curve $-1 0 -15 -10 -1 0 0 I I #
edge $416 $314 -10 $321 10 $366 $417 forward 7 unknown #
convexity-sys-attrib $-1 $-1 $313 $241 #
point $-1 -18 -15 -10 #
model_id-kcp-attrib $-1 $-1 $-1 $316 1 990548716 50 36831233 12 #
cone-surface $-1 -18 -8 0 0 0 -1 -4.94974746830583 -4.94974746830583 0 1 I I 0 1 6.9999999999999964 forward I I I I #
coedge $-1 $386 $318 $418 $419 forward $99 $-1 #
coedge $-1 $409 $394 $318 $378 forward $343 $-1 #
edge $-1 $420 -0.78539816339744828 $380 0.78539816339744828 $318 $421 forward 7 unknown #
attrib_edge_convexity-kcp-attrib $-1 $422 $-1 $320 1 #
vertex $-1 $320 $423 #
straight-curve $-1 0 -15 10 1 0 0 I I #
point $-1 -18 -15 10 #
model_id-kcp-attrib $-1 $-1 $-1 $324 1 990548716 50 36831233 14 #
loop $-1 $-1 $424 $324 #
plane-surface $-1 25 0 0 -1 0 0 0 0 1 forward_v I I I I #
coedge $-1 $326 $376 $346 $396 reversed $99 $-1 #
coedge $-1 $345 $349 $326 $388 reversed $293 $-1 #
edge $-1 $399 -18 $351 -5 $387 $425 forward 7 unknown #
convexity-sys-attrib $-1 $-1 $-1 $332 #
straight-curve $-1 5.75 5 10 -1 0 0 I I #
point $-1 5 5 10 #
model_id-kcp-attrib $-1 $-1 $-1 $342 1 990548716 50 36831233 11 #
plane-surface $-1 0 -15 0 0 1 0 0 0 1 forward_v I I I I #
coedge $-1 $377 $363 $426 $427 forward $343 $-1 #
coedge $-1 $347 $346 $424 $428 forward $225 $-1 #
edge $-1 $399 -0.78539816339744828 $429 0.78539816339744828 $386 $430 forward 7 unknown #
edge $431 $432 -0.78539816339744828 $398 0.78539816339744828 $359 $433 forward 7 unknown #
vertex $-1 $361 $434 #
vertex $-1 $348 $435 #
straight-curve $-1 18 15 0 0 0 1 I I #
straight-curve $-1 5 15 0 0 0 1 I I #
point $-1 5 15 10 #
convexity-sys-attrib $-1 $-1 $353 $298 #
point $-1 5 15 -10 #
attrib_edge_convexity-kcp-attrib $-1 $436 $-1 $361 1 #
straight-curve $-1 0 15 -10 1 0 0 I I #
coedge $-1 $424 $426 $362 $408 reversed $384 $-1 #
edge $437 $432 -8 $411 8 $407 $438 forward 7 unknown #
coedge $-1 $363 $377 $365 $413 forward $343 $-1 #
attrib_edge_convexity-kcp-attrib $-1 $439 $-1 $364 1 #
vertex $-1 $408 $440 #
ellipse-curve $-1 18 -8 -10 0 0 1 4.94974746830583 -4.94974746830583 0 1 I I #
edge $441 $380 -10 $369 10 $365 $442 forward 7 unknown #
convexity-sys-attrib $-1 $-1 $368 $311 #
point $-1 18 -15 -10 #
attrib_edge_convexity-kcp-attrib $-1 $443 $-1 $371 3 #
straight-curve $-1 -18 -15 0 0 0 1 I I #
coedge $-1 $426 $424 $376 $419 reversed $384 $-1 #
edge $-1 $420 -8 $429 8 $418 $444 forward 7 unknown #
vertex $-1 $378 $445 #
ellipse-curve $-1 18 -8 10 0 0 -1 4.94974746830583 -4.94974746830583 0 1 I I #
convexity-sys-attrib $-1 $-1 $379 $320 #
point $-1 18 -15 10 #
coedge $-1 $418 $407 $395 $428 reversed $384 $-1 #
straight-curve $-1 0 15 10 -1 0 0 I I #
coedge $-1 $407 $418 $394 $427 reversed $384 $-1 #
edge $-1 $411 -10 $420 10 $426 $446 forward 7 unknown #
edge $-1 $429 -10 $432 10 $424 $447 forward 7 unknown #
vertex $-1 $419 $448 #
ellipse-curve $-1 18 8 10 0 0 -1 4.94974746830583 4.94974746830583 0 1 I I #
attrib_edge_convexity-kcp-attrib $-1 $449 $-1 $397 1 #
vertex $-1 $397 $450 #
ellipse-curve $-1 18 8 -10 0 0 1 4.94974746830583 4.94974746830583 0 1 I I #
point $-1 18 15 -10 #
point $-1 18 15 10 #
convexity-sys-attrib $-1 $-1 $405 $361 #
attrib_edge_convexity-kcp-attrib $-1 $451 $-1 $408 1 #
straight-curve $-1 25 0 -10 0 -1 0 I I #
convexity-sys-attrib $-1 $-1 $410 $364 #
point $-1 25 -8 -10 #
attrib_edge_convexity-kcp-attrib $-1 $452 $-1 $413 3 #
straight-curve $-1 18 -15 0 0 0 -1 I I #
convexity-sys-attrib $-1 $-1 $416 $371 #
straight-curve $-1 25 0 10 0 1 0 I I #
point $-1 25 -8 10 #
straight-curve $-1 25 -8 0 0 0 1 I I #
straight-curve $-1 25 8 0 0 0 -1 I I #
point $-1 25 8 10 #
convexity-sys-attrib $-1 $-1 $431 $397 #
point $-1 25 8 -10 #
convexity-sys-attrib $-1 $-1 $437 $408 #
convexity-sys-attrib $-1 $-1 $441 $413 #
End-of-ACIS-data 