600 0 2 0           
24 FBMach with ACIS - 6.0.3 13 ACIS 6.0.3 NT 24 Sun Mar 31 23:26:00 2002 
1 9.9999999999999995e-007 1e-010 
body $2 $3 $-1 $4 #
bdycol-kcp $-1 1 2 $5 $6 #
model_id-kcp-attrib $-1 $7 $-1 $0 1 1017635160 90 -1269170175 1 #
lump $-1 $-1 $8 $0 #
transform $-1 1 0 0 0 1 0 0 0 1 0 0 0 1 rotate no_reflect no_shear #
body $9 $10 $-1 $11 #
body $12 $13 $-1 $14 #
aggregate_advspl_attribute-aggregate_geombuild_base_attribute-aggregate_body_attribute-attrib_HH-attrib $-1 $15 $2 $0 F #
shell $-1 $-1 $-1 $16 $-1 $3 #
model_id-kcp-attrib $-1 $-1 $-1 $5 1 1017635160 90 -1269170174 1 #
lump $-1 $-1 $17 $5 #
transform $-1 1 0 0 0 1 0 0 0 1 0 10 0 1 no_rotate no_reflect no_shear #
rgb_color-st-attrib $-1 $18 $-1 $6 1 0.5 1 #
lump $-1 $-1 $19 $6 #
transform $-1 1 0 0 0 1 0 0 0 1 0 10 0 1 no_rotate no_reflect no_shear #
aggregate_secndry_attribute-aggregate_geombuild_base_attribute-aggregate_body_attribute-attrib_HH-attrib $-1 $20 $7 $0 F #
face $21 $22 $23 $8 $-1 $24 forward single #
shell $-1 $-1 $-1 $25 $-1 $10 #
model_id-kcp-attrib $-1 $-1 $12 $6 1 1017635160 320 -1270874109 1 #
shell $-1 $-1 $-1 $26 $-1 $13 #
aggregate_sharped_attribute-aggregate_geombuild_base_attribute-aggregate_body_attribute-attrib_HH-attrib $-1 $27 $15 $0 F #
model_id-kcp-attrib $-1 $28 $-1 $16 1 1017635160 90 -1269170175 2 #
face $29 $30 $31 $8 $-1 $32 reversed single #
loop $-1 $-1 $33 $16 #
cone-surface $-1 -18 28 0 0 0 -1 -4.94974746830583 4.94974746830583 0 1 I I 0 1 6.9999999999999964 forward I I I I #
face $34 $35 $36 $17 $-1 $37 forward single #
face $-1 $38 $39 $19 $-1 $40 forward single #
aggregate_reblend_attribute-aggregate_geombuild_base_attribute-aggregate_body_attribute-attrib_HH-attrib $-1 $41 $20 $0 F #
attrib_hh_face_geombuild-attrib_entity_geombuild-individual_entity_attribute-attrib_HH-attrib $-1 $-1 $21 $16 F #
model_id-kcp-attrib $-1 $42 $-1 $22 1 1017635160 90 -1269170175 3 #
face $43 $44 $45 $8 $-1 $46 reversed single #
loop $-1 $-1 $47 $22 #
plane-surface $-1 -25 0 0 1 0 0 0 0 -1 forward_v I I I I #
coedge $48 $49 $50 $47 $51 forward $23 $-1 #
model_id-kcp-attrib $-1 $-1 $-1 $25 1 1017635160 90 -1269170174 4 #
face $52 $53 $54 $17 $-1 $55 reversed single #
loop $-1 $-1 $56 $25 #
plane-surface $-1 0 0 10 0 0 1 1 0 0 forward_v I I I I #
face $-1 $57 $58 $19 $-1 $59 forward single #
loop $-1 $-1 $60 $26 #
plane-surface $-1 5 5 -10 0 0 -1 -1 0 0 forward_v I I I I #
aggregate_isospline_attribute-aggregate_geombuild_base_attribute-aggregate_body_attribute-attrib_HH-attrib $-1 $61 $27 $0 F #
attrib_hh_face_geombuild-attrib_entity_geombuild-individual_entity_attribute-attrib_HH-attrib $-1 $-1 $29 $22 F #
model_id-kcp-attrib $-1 $62 $-1 $30 1 1017635160 90 -1269170175 4 #
face $63 $64 $65 $8 $-1 $66 forward single #
loop $-1 $-1 $67 $30 #
plane-surface $-1 0 0 -10 0 0 1 1 0 0 forward_v I I I I #
coedge $68 $69 $70 $33 $51 reversed $31 $-1 #
attrib_hh_coedge_geombuild-attrib_entity_geombuild-individual_entity_attribute-attrib_HH-attrib $-1 $-1 $-1 $33 F #
coedge $71 $72 $33 $73 $74 forward $23 $-1 #
coedge $75 $33 $72 $67 $76 forward $23 $-1 #
edge $77 $78 -10 $79 10 $47 $80 forward 7 unknown #
model_id-kcp-attrib $-1 $-1 $-1 $35 1 1017635160 90 -1269170174 3 #
face $81 $82 $83 $17 $-1 $84 reversed single #
loop $-1 $-1 $85 $35 #
plane-surface $-1 0 0 -10 0 0 1 1 0 0 forward_v I I I I #
coedge $-1 $86 $87 $88 $89 forward $36 $-1 #
face $-1 $90 $91 $19 $-1 $92 forward single #
loop $-1 $-1 $93 $38 #
plane-surface $-1 25 5 -10 1 0 0 0 0 -1 forward_v I I I I #
coedge $-1 $94 $95 $96 $97 forward $39 $-1 #
aggregate_analytic_solver_attribute-aggregate_geombuild_base_attribute-aggregate_body_attribute-attrib_HH-attrib $-1 $98 $41 $0 F #
attrib_hh_face_geombuild-attrib_entity_geombuild-individual_entity_attribute-attrib_HH-attrib $-1 $-1 $43 $30 F #
model_id-kcp-attrib $-1 $99 $-1 $44 1 1017635160 90 -1269170175 5 #
face $100 $101 $102 $8 $-1 $103 reversed single #
loop $-1 $-1 $104 $44 #
cone-surface $-1 -2 28 0 0 0 -1 4.94974746830583 4.94974746830583 0 1 I I 0 1 6.9999999999999964 forward I I I I #
coedge $105 $106 $107 $50 $76 reversed $45 $-1 #
attrib_hh_coedge_geombuild-attrib_entity_geombuild-individual_entity_attribute-attrib_HH-attrib $-1 $-1 $-1 $47 F #
coedge $108 $109 $47 $107 $110 reversed $31 $-1 #
coedge $111 $47 $109 $112 $113 reversed $31 $-1 #
attrib_hh_coedge_geombuild-attrib_entity_geombuild-individual_entity_attribute-attrib_HH-attrib $-1 $-1 $-1 $49 F #
coedge $114 $50 $49 $115 $116 forward $23 $-1 #
coedge $117 $112 $118 $49 $74 reversed $119 $-1 #
edge $120 $79 -0.78539816339744828 $121 0.78539816339744828 $73 $122 forward 7 unknown #
attrib_hh_coedge_geombuild-attrib_entity_geombuild-individual_entity_attribute-attrib_HH-attrib $-1 $-1 $-1 $50 F #
edge $123 $124 -0.78539816339744828 $78 0.78539816339744828 $67 $125 forward 7 unknown #
attrib_edge_convexity-kcp-attrib $-1 $126 $-1 $51 3 #
vertex $127 $110 $128 #
vertex $129 $51 $130 #
straight-curve $-1 -25 28 0 0 0 1 I I #
model_id-kcp-attrib $-1 $-1 $-1 $53 1 1017635160 90 -1269170174 5 #
face $131 $132 $133 $17 $-1 $134 reversed single #
loop $-1 $-1 $135 $53 #
plane-surface $-1 0 -25 0 0 1 0 0 0 1 forward_v I I I I #
coedge $-1 $136 $137 $138 $139 forward $54 $-1 #
coedge $-1 $140 $56 $141 $142 forward $36 $-1 #
coedge $-1 $56 $140 $143 $144 forward $36 $-1 #
coedge $-1 $145 $146 $56 $89 reversed $147 $-1 #
edge $-1 $148 -25 $149 25 $88 $150 forward 7 unknown #
face $-1 $151 $152 $19 $-1 $153 forward single #
loop $-1 $-1 $154 $57 #
plane-surface $-1 25 5 10 0 0 1 1 0 0 forward_v I I I I #
coedge $-1 $155 $156 $157 $158 forward $58 $-1 #
coedge $-1 $159 $60 $156 $160 reversed $39 $-1 #
coedge $-1 $60 $159 $161 $162 forward $39 $-1 #
coedge $-1 $163 $157 $60 $97 reversed $164 $-1 #
edge $-1 $165 -0.75 $166 19.25 $60 $167 forward 7 unknown #
aggregate_geombuild_attribute-aggregate_geombuild_base_attribute-aggregate_body_attribute-attrib_HH-attrib $-1 $168 $61 $0 #
attrib_hh_face_geombuild-attrib_entity_geombuild-individual_entity_attribute-attrib_HH-attrib $-1 $-1 $63 $44 F #
model_id-kcp-attrib $-1 $169 $-1 $64 1 1017635160 90 -1269170175 6 #
face $170 $171 $119 $8 $-1 $172 forward single #
loop $-1 $-1 $173 $64 #
plane-surface $-1 5 10 0 -1 0 0 0 0 1 forward_v I I I I #
coedge $174 $175 $176 $177 $178 forward $65 $-1 #
attrib_hh_coedge_geombuild-attrib_entity_geombuild-individual_entity_attribute-attrib_HH-attrib $-1 $-1 $-1 $67 F #
coedge $179 $180 $67 $181 $182 forward $45 $-1 #
coedge $183 $67 $184 $69 $110 forward $45 $-1 #
attrib_hh_coedge_geombuild-attrib_entity_geombuild-individual_entity_attribute-attrib_HH-attrib $-1 $-1 $-1 $69 F #
coedge $185 $70 $69 $186 $187 reversed $31 $-1 #
edge $188 $189 -18 $78 18 $69 $190 forward 7 unknown #
attrib_hh_coedge_geombuild-attrib_entity_geombuild-individual_entity_attribute-attrib_HH-attrib $-1 $-1 $-1 $70 F #
coedge $191 $192 $73 $70 $113 forward $119 $-1 #
edge $193 $79 -28 $194 8 $70 $195 forward 7 unknown #
attrib_hh_coedge_geombuild-attrib_entity_geombuild-individual_entity_attribute-attrib_HH-attrib $-1 $-1 $-1 $72 F #
coedge $196 $197 $181 $72 $116 reversed $198 $-1 #
edge $199 $121 -10 $124 10 $115 $200 forward 7 unknown #
attrib_hh_coedge_geombuild-attrib_entity_geombuild-individual_entity_attribute-attrib_HH-attrib $-1 $-1 $-1 $73 F #
coedge $201 $73 $202 $197 $203 forward $119 $-1 #
loop $-1 $-1 $73 $101 #
attrib_hh_edge_geombuild-attrib_entity_geombuild-individual_entity_attribute-attrib_HH-attrib $-1 $-1 $-1 $74 F #
vertex $204 $203 $205 #
ellipse-curve $-1 -18 28 10 0 0 -1 -4.94974746830583 4.94974746830583 0 1 I I #
attrib_edge_convexity-kcp-attrib $-1 $206 $-1 $76 1 #
vertex $207 $76 $208 #
ellipse-curve $-1 -18 28 -10 0 0 1 -4.94974746830583 4.94974746830583 0 1 I I #
convexity-sys-attrib $-1 $209 $77 $51 #
attrib_hh_vertex_geombuild-attrib_entity_geombuild-individual_entity_attribute-attrib_HH-attrib $-1 $-1 $-1 $78 F #
point $-1 -25 28 -10 #
attrib_hh_vertex_geombuild-attrib_entity_geombuild-individual_entity_attribute-attrib_HH-attrib $-1 $-1 $-1 $79 F #
point $-1 -25 28 10 #
model_id-kcp-attrib $-1 $-1 $-1 $82 1 1017635160 90 -1269170174 2 #
face $210 $211 $212 $17 $-1 $213 reversed single #
loop $-1 $-1 $214 $82 #
plane-surface $-1 -25 0 0 1 0 0 0 0 -1 forward_v I I I I #
coedge $-1 $215 $143 $216 $217 forward $83 $-1 #
coedge $-1 $218 $85 $215 $219 forward $54 $-1 #
coedge $-1 $85 $218 $220 $221 forward $54 $-1 #
coedge $-1 $146 $145 $85 $139 reversed $147 $-1 #
edge $-1 $222 -25 $223 25 $138 $224 forward 7 unknown #
coedge $-1 $87 $86 $225 $226 forward $36 $-1 #
coedge $-1 $227 $228 $86 $142 reversed $212 $-1 #
edge $-1 $149 -25 $229 25 $141 $230 forward 7 unknown #
coedge $-1 $135 $231 $87 $144 reversed $83 $-1 #
edge $-1 $232 -25 $148 25 $143 $233 forward 7 unknown #
coedge $-1 $138 $88 $231 $234 forward $147 $-1 #
coedge $-1 $88 $138 $227 $235 reversed $147 $-1 #
loop $-1 $-1 $145 $211 #
vertex $-1 $89 $236 #
vertex $-1 $89 $237 #
straight-curve $-1 25 0 10 0 1 0 I I #
face $-1 $238 $164 $19 $-1 $239 forward single #
loop $-1 $-1 $240 $90 #
plane-surface $-1 5 5 10 -1 0 0 0 0 1 forward_v I I I I #
coedge $-1 $241 $242 $243 $244 forward $91 $-1 #
coedge $-1 $245 $93 $242 $246 reversed $58 $-1 #
coedge $-1 $93 $245 $94 $160 forward $58 $-1 #
coedge $-1 $96 $243 $93 $158 reversed $164 $-1 #
edge $-1 $166 -10 $247 10 $93 $248 forward 7 unknown #
coedge $-1 $95 $94 $249 $250 reversed $39 $-1 #
edge $-1 $251 0 $166 13 $156 $252 forward 7 unknown #
coedge $-1 $253 $240 $95 $162 reversed $152 $-1 #
edge $-1 $254 0 $165 13 $95 $255 forward 7 unknown #
coedge $-1 $243 $96 $240 $256 reversed $164 $-1 #
loop $-1 $-1 $96 $151 #
vertex $-1 $162 $257 #
vertex $-1 $160 $258 #
straight-curve $-1 5.75 18 -10 1 0 0 I I #
aggregate_stitch_attribute-aggregate_stitch_base_attribute-aggregate_body_attribute-attrib_HH-attrib $-1 $259 $98 $0 F #
attrib_hh_face_geombuild-attrib_entity_geombuild-individual_entity_attribute-attrib_HH-attrib $-1 $-1 $100 $64 F #
model_id-kcp-attrib $-1 $260 $-1 $101 1 1017635160 90 -1269170175 7 #
face $261 $262 $263 $8 $-1 $264 forward single #
plane-surface $-1 0 0 10 0 0 1 1 0 0 forward_v I I I I #
coedge $265 $266 $267 $268 $269 reversed $102 $-1 #
attrib_hh_coedge_geombuild-attrib_entity_geombuild-individual_entity_attribute-attrib_HH-attrib $-1 $-1 $-1 $104 F #
coedge $270 $268 $104 $202 $271 forward $65 $-1 #
coedge $272 $104 $268 $180 $273 forward $65 $-1 #
coedge $274 $181 $197 $104 $178 reversed $198 $-1 #
edge $275 $276 -10 $277 10 $177 $278 forward 7 unknown #
attrib_hh_coedge_geombuild-attrib_entity_geombuild-individual_entity_attribute-attrib_HH-attrib $-1 $-1 $-1 $106 F #
coedge $279 $280 $106 $176 $273 reversed $45 $-1 #
coedge $281 $115 $177 $106 $182 reversed $198 $-1 #
edge $282 $124 -8 $276 8 $181 $283 forward 7 unknown #
attrib_hh_coedge_geombuild-attrib_entity_geombuild-individual_entity_attribute-attrib_HH-attrib $-1 $-1 $-1 $107 F #
coedge $284 $107 $285 $286 $287 reversed $45 $-1 #
attrib_hh_coedge_geombuild-attrib_entity_geombuild-individual_entity_attribute-attrib_HH-attrib $-1 $-1 $-1 $109 F #
coedge $288 $286 $289 $109 $187 forward $290 $-1 #
edge $291 $194 -10 $189 10 $109 $292 forward 7 unknown #
attrib_edge_convexity-kcp-attrib $-1 $293 $-1 $110 1 #
vertex $294 $187 $295 #
straight-curve $-1 -25 10 -10 0 1 0 I I #
attrib_hh_coedge_geombuild-attrib_entity_geombuild-individual_entity_attribute-attrib_HH-attrib $-1 $-1 $-1 $112 F #
coedge $296 $297 $112 $289 $298 reversed $119 $-1 #
attrib_edge_convexity-kcp-attrib $-1 $299 $-1 $113 1 #
vertex $300 $113 $301 #
straight-curve $-1 -25 0 10 0 -1 0 I I #
attrib_hh_coedge_geombuild-attrib_entity_geombuild-individual_entity_attribute-attrib_HH-attrib $-1 $-1 $-1 $115 F #
coedge $302 $177 $115 $118 $203 reversed $198 $-1 #
loop $-1 $-1 $115 $303 #
attrib_hh_edge_geombuild-attrib_entity_geombuild-individual_entity_attribute-attrib_HH-attrib $-1 $-1 $-1 $116 F #
straight-curve $-1 -18 35 0 0 0 -1 I I #
attrib_hh_coedge_geombuild-attrib_entity_geombuild-individual_entity_attribute-attrib_HH-attrib $-1 $-1 $-1 $118 F #
coedge $304 $118 $305 $175 $271 reversed $119 $-1 #
edge $306 $277 -8 $121 8 $197 $307 forward 7 unknown #
attrib_hh_vertex_geombuild-attrib_entity_geombuild-individual_entity_attribute-attrib_HH-attrib $-1 $-1 $-1 $121 F #
point $-1 -18 35 10 #
convexity-sys-attrib $-1 $308 $123 $76 #
attrib_hh_vertex_geombuild-attrib_entity_geombuild-individual_entity_attribute-attrib_HH-attrib $-1 $-1 $-1 $124 F #
point $-1 -18 35 -10 #
attrib_hh_edge_geombuild-attrib_entity_geombuild-individual_entity_attribute-attrib_HH-attrib $-1 $-1 $126 $51 F #
model_id-kcp-attrib $-1 $-1 $-1 $132 1 1017635160 90 -1269170174 6 #
face $309 $-1 $147 $17 $-1 $310 reversed single #
loop $-1 $-1 $227 $132 #
plane-surface $-1 0 25 0 0 -1 0 0 0 -1 forward_v I I I I #
coedge $-1 $311 $225 $228 $312 forward $133 $-1 #
coedge $-1 $231 $135 $136 $219 reversed $83 $-1 #
coedge $-1 $225 $311 $135 $217 reversed $133 $-1 #
edge $-1 $232 -10 $313 10 $216 $314 forward 7 unknown #
coedge $-1 $137 $136 $311 $315 forward $54 $-1 #
edge $-1 $223 -25 $313 25 $215 $316 forward 7 unknown #
coedge $-1 $228 $227 $137 $221 reversed $212 $-1 #
edge $-1 $317 -25 $222 25 $220 $318 forward 7 unknown #
vertex $-1 $139 $319 #
vertex $-1 $234 $320 #
straight-curve $-1 25 0 -10 0 -1 0 I I #
coedge $-1 $214 $216 $140 $226 reversed $133 $-1 #
edge $-1 $229 -25 $232 25 $225 $321 forward 7 unknown #
coedge $-1 $220 $141 $146 $235 forward $212 $-1 #
coedge $-1 $141 $220 $214 $312 reversed $212 $-1 #
vertex $-1 $142 $322 #
straight-curve $-1 0 25 10 -1 0 0 I I #
coedge $-1 $143 $215 $145 $234 reversed $83 $-1 #
vertex $-1 $226 $323 #
straight-curve $-1 0 -25 10 1 0 0 I I #
edge $-1 $148 -10 $223 10 $145 $324 forward 7 unknown #
edge $-1 $149 -10 $222 10 $146 $325 forward 7 unknown #
point $-1 25 -25 10 #
point $-1 25 25 10 #
face $-1 $-1 $326 $19 $-1 $327 reversed single #
plane-surface $-1 15 18 0 0 1 0 0 0 1 forward_v I I I I #
coedge $-1 $161 $328 $163 $256 forward $152 $-1 #
coedge $-1 $329 $154 $328 $330 reversed $91 $-1 #
coedge $-1 $154 $329 $155 $246 forward $91 $-1 #
coedge $-1 $157 $163 $154 $244 reversed $164 $-1 #
edge $-1 $247 -19.25 $331 0.75 $154 $332 forward 7 unknown #
coedge $-1 $156 $155 $333 $334 reversed $58 $-1 #
edge $-1 $335 0 $247 13 $242 $336 forward 7 unknown #
vertex $-1 $246 $337 #
straight-curve $-1 25 18 0 0 0 1 I I #
coedge $-1 $333 $338 $159 $250 forward $326 $-1 #
edge $339 $254 -0.75 $251 19.25 $159 $340 forward 7 unknown #
vertex $-1 $250 $341 #
straight-curve $-1 25 5 -10 0 1 0 I I #
coedge $-1 $328 $161 $338 $342 reversed $152 $-1 #
vertex $-1 $342 $343 #
straight-curve $-1 5 5 -10 0 1 0 I I #
edge $-1 $331 -10 $165 10 $240 $344 forward 7 unknown #
point $-1 5 18 -10 #
point $-1 25 18 -10 #
aggregate_simgeom_attribute-aggregate_simgeom_base_attribute-aggregate_body_attribute-attrib_HH-attrib $-1 $-1 $168 $0 F #
attrib_hh_face_geombuild-attrib_entity_geombuild-individual_entity_attribute-attrib_HH-attrib $-1 $-1 $170 $101 F #
model_id-kcp-attrib $-1 $345 $-1 $171 1 1017635160 90 -1269170175 8 #
face $346 $347 $348 $8 $-1 $349 reversed single #
loop $-1 $-1 $350 $171 #
cone-surface $-1 18 8 0 0 0 -1 4.94974746830583 4.94974746830583 0 1 I I 0 1 6.9999999999999964 forward I I I I #
attrib_hh_coedge_geombuild-attrib_entity_geombuild-individual_entity_attribute-attrib_HH-attrib $-1 $-1 $-1 $173 F #
coedge $351 $352 $173 $305 $353 reversed $102 $-1 #
coedge $354 $173 $352 $280 $355 reversed $102 $-1 #
coedge $356 $176 $175 $173 $269 forward $65 $-1 #
edge $357 $358 -10 $359 10 $173 $360 forward 7 unknown #
attrib_hh_coedge_geombuild-attrib_entity_geombuild-individual_entity_attribute-attrib_HH-attrib $-1 $-1 $-1 $175 F #
edge $361 $277 -0.78539816339744828 $358 0.78539816339744828 $202 $362 forward 7 unknown #
attrib_hh_coedge_geombuild-attrib_entity_geombuild-individual_entity_attribute-attrib_HH-attrib $-1 $-1 $-1 $176 F #
edge $363 $359 -0.78539816339744828 $276 0.78539816339744828 $180 $364 forward 7 unknown #
attrib_hh_coedge_geombuild-attrib_entity_geombuild-individual_entity_attribute-attrib_HH-attrib $-1 $-1 $-1 $177 F #
attrib_hh_edge_geombuild-attrib_entity_geombuild-individual_entity_attribute-attrib_HH-attrib $-1 $-1 $-1 $178 F #
vertex $365 $182 $366 #
vertex $367 $271 $368 #
straight-curve $-1 -2 35 0 0 0 1 I I #
attrib_hh_coedge_geombuild-attrib_entity_geombuild-individual_entity_attribute-attrib_HH-attrib $-1 $-1 $-1 $180 F #
coedge $369 $370 $180 $267 $355 forward $45 $-1 #
attrib_hh_coedge_geombuild-attrib_entity_geombuild-individual_entity_attribute-attrib_HH-attrib $-1 $-1 $-1 $181 F #
attrib_edge_convexity-kcp-attrib $-1 $371 $-1 $182 1 #
straight-curve $-1 -10 35 -10 1 0 0 I I #
attrib_hh_coedge_geombuild-attrib_entity_geombuild-individual_entity_attribute-attrib_HH-attrib $-1 $-1 $-1 $184 F #
coedge $372 $184 $373 $374 $375 forward $45 $-1 #
coedge $376 $377 $186 $184 $287 forward $290 $-1 #
edge $378 $189 -0.78539816339744828 $379 0.78539816339744828 $184 $380 forward 7 unknown #
attrib_hh_coedge_geombuild-attrib_entity_geombuild-individual_entity_attribute-attrib_HH-attrib $-1 $-1 $-1 $186 F #
coedge $381 $186 $377 $192 $298 forward $290 $-1 #
loop $-1 $-1 $377 $382 #
attrib_edge_convexity-kcp-attrib $-1 $383 $-1 $187 3 #
straight-curve $-1 -25 -8 0 0 0 -1 I I #
convexity-sys-attrib $-1 $384 $188 $110 #
attrib_hh_vertex_geombuild-attrib_entity_geombuild-individual_entity_attribute-attrib_HH-attrib $-1 $-1 $-1 $189 F #
point $-1 -25 -8 -10 #
attrib_hh_coedge_geombuild-attrib_entity_geombuild-individual_entity_attribute-attrib_HH-attrib $-1 $-1 $-1 $192 F #
coedge $385 $386 $192 $387 $388 forward $119 $-1 #
edge $389 $390 -0.78539816339744828 $194 0.78539816339744828 $192 $391 forward 7 unknown #
convexity-sys-attrib $-1 $392 $193 $113 #
attrib_hh_vertex_geombuild-attrib_entity_geombuild-individual_entity_attribute-attrib_HH-attrib $-1 $-1 $-1 $194 F #
point $-1 -25 -8 10 #
attrib_hh_coedge_geombuild-attrib_entity_geombuild-individual_entity_attribute-attrib_HH-attrib $-1 $-1 $-1 $197 F #
face $393 $394 $198 $8 $-1 $395 reversed single #
attrib_hh_coedge_geombuild-attrib_entity_geombuild-individual_entity_attribute-attrib_HH-attrib $-1 $-1 $-1 $202 F #
coedge $396 $202 $397 $266 $353 forward $119 $-1 #
attrib_hh_edge_geombuild-attrib_entity_geombuild-individual_entity_attribute-attrib_HH-attrib $-1 $-1 $-1 $203 F #
straight-curve $-1 -10 35 10 -1 0 0 I I #
attrib_hh_edge_geombuild-attrib_entity_geombuild-individual_entity_attribute-attrib_HH-attrib $-1 $-1 $206 $76 F #
model_id-kcp-attrib $-1 $-1 $-1 $211 1 1017635160 90 -1269170174 7 #
plane-surface $-1 25 0 0 -1 0 0 0 0 1 forward_v I I I I #
coedge $-1 $216 $214 $218 $315 reversed $133 $-1 #
edge $-1 $229 -10 $317 10 $228 $398 forward 7 unknown #
vertex $-1 $315 $399 #
straight-curve $-1 -25 -25 0 0 0 -1 I I #
edge $-1 $313 -25 $317 25 $311 $400 forward 7 unknown #
straight-curve $-1 0 -25 -10 -1 0 0 I I #
vertex $-1 $221 $401 #
straight-curve $-1 0 25 -10 1 0 0 I I #
point $-1 25 25 -10 #
point $-1 25 -25 -10 #
straight-curve $-1 -25 0 10 0 -1 0 I I #
point $-1 -25 25 10 #
point $-1 -25 -25 10 #
straight-curve $-1 25 -25 0 0 0 -1 I I #
straight-curve $-1 25 25 0 0 0 -1 I I #
loop $-1 $-1 $338 $238 #
plane-surface $-1 15 5 0 0 1 0 0 0 1 forward_v I I I I #
coedge $-1 $240 $253 $241 $330 forward $152 $-1 #
coedge $-1 $242 $241 $402 $403 reversed $91 $-1 #
edge $-1 $404 0 $331 13 $328 $405 forward 7 unknown #
vertex $-1 $330 $406 #
straight-curve $-1 5.75 18 10 -1 0 0 I I #
coedge $-1 $402 $249 $245 $334 forward $326 $-1 #
edge $407 $251 -10 $335 10 $245 $408 forward 7 unknown #
vertex $-1 $334 $409 #
straight-curve $-1 25 5 10 0 1 0 I I #
point $-1 25 18 10 #
coedge $-1 $249 $402 $253 $342 forward $326 $-1 #
convexity-sys-attrib $-1 $-1 $-1 $250 #
straight-curve $-1 5.75 5 -10 1 0 0 I I #
point $-1 25 5 -10 #
edge $410 $404 -10 $254 10 $253 $411 forward 7 unknown #
point $-1 5 5 -10 #
straight-curve $-1 5 18 0 0 0 -1 I I #
attrib_hh_face_geombuild-attrib_entity_geombuild-individual_entity_attribute-attrib_HH-attrib $-1 $-1 $261 $171 F #
model_id-kcp-attrib $-1 $412 $-1 $262 1 1017635160 90 -1269170175 9 #
face $413 $414 $415 $8 $-1 $416 forward single #
loop $-1 $-1 $417 $262 #
plane-surface $-1 0 15 0 0 -1 0 0 0 -1 forward_v I I I I #
coedge $418 $419 $420 $417 $421 forward $263 $-1 #
attrib_hh_coedge_geombuild-attrib_entity_geombuild-individual_entity_attribute-attrib_HH-attrib $-1 $-1 $-1 $266 F #
coedge $422 $267 $266 $423 $424 reversed $102 $-1 #
edge $425 $426 5 $358 18 $266 $427 forward 7 unknown #
attrib_hh_coedge_geombuild-attrib_entity_geombuild-individual_entity_attribute-attrib_HH-attrib $-1 $-1 $-1 $267 F #
edge $428 $359 -18 $429 -5 $267 $430 forward 7 unknown #
attrib_hh_coedge_geombuild-attrib_entity_geombuild-individual_entity_attribute-attrib_HH-attrib $-1 $-1 $-1 $268 F #
attrib_hh_edge_geombuild-attrib_entity_geombuild-individual_entity_attribute-attrib_HH-attrib $-1 $-1 $-1 $269 F #
vertex $431 $353 $432 #
vertex $433 $269 $434 #
straight-curve $-1 5 28 0 0 0 -1 I I #
attrib_hh_edge_geombuild-attrib_entity_geombuild-individual_entity_attribute-attrib_HH-attrib $-1 $-1 $-1 $271 F #
ellipse-curve $-1 -2 28 10 0 0 -1 4.94974746830583 4.94974746830583 0 1 I I #
attrib_edge_convexity-kcp-attrib $-1 $435 $-1 $273 1 #
ellipse-curve $-1 -2 28 -10 0 0 1 4.94974746830583 4.94974746830583 0 1 I I #
attrib_hh_vertex_geombuild-attrib_entity_geombuild-individual_entity_attribute-attrib_HH-attrib $-1 $-1 $-1 $276 F #
point $-1 -2 35 -10 #
attrib_hh_vertex_geombuild-attrib_entity_geombuild-individual_entity_attribute-attrib_HH-attrib $-1 $-1 $-1 $277 F #
point $-1 -2 35 10 #
attrib_hh_coedge_geombuild-attrib_entity_geombuild-individual_entity_attribute-attrib_HH-attrib $-1 $-1 $-1 $280 F #
coedge $436 $437 $280 $438 $439 forward $45 $-1 #
convexity-sys-attrib $-1 $440 $282 $182 #
attrib_hh_coedge_geombuild-attrib_entity_geombuild-individual_entity_attribute-attrib_HH-attrib $-1 $-1 $-1 $285 F #
coedge $441 $285 $442 $443 $444 reversed $45 $-1 #
coedge $445 $446 $447 $285 $375 reversed $448 $-1 #
edge $449 $450 -18 $379 18 $374 $451 forward 7 unknown #
attrib_hh_coedge_geombuild-attrib_entity_geombuild-individual_entity_attribute-attrib_HH-attrib $-1 $-1 $-1 $286 F #
coedge $452 $289 $286 $447 $453 forward $290 $-1 #
attrib_edge_convexity-kcp-attrib $-1 $454 $-1 $287 1 #
vertex $455 $375 $456 #
ellipse-curve $-1 -18 -8 -10 0 0 1 -4.94974746830583 -4.94974746830583 0 1 I I #
attrib_hh_coedge_geombuild-attrib_entity_geombuild-individual_entity_attribute-attrib_HH-attrib $-1 $-1 $-1 $289 F #
face $457 $303 $290 $8 $-1 $458 forward single #
convexity-sys-attrib $-1 $459 $291 $187 #
attrib_hh_edge_geombuild-attrib_entity_geombuild-individual_entity_attribute-attrib_HH-attrib $-1 $-1 $293 $110 F #
attrib_hh_coedge_geombuild-attrib_entity_geombuild-individual_entity_attribute-attrib_HH-attrib $-1 $-1 $-1 $297 F #
coedge $460 $461 $297 $462 $463 reversed $119 $-1 #
coedge $464 $447 $446 $297 $388 reversed $448 $-1 #
edge $465 $390 -18 $466 18 $387 $467 forward 7 unknown #
attrib_hh_edge_geombuild-attrib_entity_geombuild-individual_entity_attribute-attrib_HH-attrib $-1 $-1 $-1 $298 F #
vertex $468 $298 $469 #
ellipse-curve $-1 -18 -8 10 0 0 -1 -4.94974746830583 -4.94974746830583 0 1 I I #
attrib_hh_edge_geombuild-attrib_entity_geombuild-individual_entity_attribute-attrib_HH-attrib $-1 $-1 $299 $113 F #
model_id-kcp-attrib $-1 $470 $-1 $303 1 1017635160 90 -1269170175 13 #
face $471 $-1 $472 $8 $-1 $473 reversed single #
plane-surface $-1 -10 35 0 0 -1 0 0 0 -1 forward_v I I I I #
attrib_hh_coedge_geombuild-attrib_entity_geombuild-individual_entity_attribute-attrib_HH-attrib $-1 $-1 $-1 $305 F #
coedge $474 $305 $475 $476 $477 forward $119 $-1 #
straight-curve $-1 -25 25 0 0 0 -1 I I #
point $-1 -25 -25 -10 #
straight-curve $-1 -25 0 -10 0 1 0 I I #
point $-1 -25 25 -10 #
coedge $-1 $338 $333 $329 $403 forward $326 $-1 #
edge $478 $335 -19.25 $404 0.75 $329 $479 forward 7 unknown #
vertex $-1 $342 $480 #
straight-curve $-1 5 5 10 0 1 0 I I #
point $-1 5 18 10 #
convexity-sys-attrib $-1 $-1 $-1 $334 #
straight-curve $-1 25 5 0 0 0 1 I I #
point $-1 25 5 10 #
convexity-sys-attrib $-1 $-1 $-1 $342 #
straight-curve $-1 5 5 0 0 0 -1 I I #
attrib_hh_face_geombuild-attrib_entity_geombuild-individual_entity_attribute-attrib_HH-attrib $-1 $-1 $346 $262 F #
model_id-kcp-attrib $-1 $481 $-1 $347 1 1017635160 90 -1269170175 10 #
face $482 $382 $448 $8 $-1 $483 reversed single #
loop $-1 $-1 $484 $347 #
cone-surface $-1 18 -8 0 0 0 -1 4.94974746830583 -4.94974746830583 0 1 I I 0 1 6.9999999999999964 forward I I I I #
coedge $485 $438 $476 $350 $421 reversed $348 $-1 #
attrib_hh_coedge_geombuild-attrib_entity_geombuild-individual_entity_attribute-attrib_HH-attrib $-1 $-1 $-1 $350 F #
coedge $486 $487 $350 $475 $488 forward $263 $-1 #
coedge $489 $350 $487 $437 $490 forward $263 $-1 #
edge $491 $492 -10 $493 10 $417 $494 forward 7 unknown #
attrib_hh_coedge_geombuild-attrib_entity_geombuild-individual_entity_attribute-attrib_HH-attrib $-1 $-1 $-1 $352 F #
coedge $495 $476 $438 $352 $424 forward $348 $-1 #
edge $496 $429 -10 $426 10 $423 $497 forward 7 unknown #
attrib_hh_edge_geombuild-attrib_entity_geombuild-individual_entity_attribute-attrib_HH-attrib $-1 $-1 $-1 $353 F #
vertex $498 $477 $499 #
straight-curve $-1 5 10 10 0 1 0 I I #
attrib_edge_convexity-kcp-attrib $-1 $500 $-1 $355 1 #
vertex $501 $439 $502 #
straight-curve $-1 5 10 -10 0 -1 0 I I #
attrib_hh_vertex_geombuild-attrib_entity_geombuild-individual_entity_attribute-attrib_HH-attrib $-1 $-1 $-1 $358 F #
point $-1 5 28 10 #
attrib_hh_vertex_geombuild-attrib_entity_geombuild-individual_entity_attribute-attrib_HH-attrib $-1 $-1 $-1 $359 F #
point $-1 5 28 -10 #
convexity-sys-attrib $-1 $503 $363 $273 #
attrib_hh_coedge_geombuild-attrib_entity_geombuild-individual_entity_attribute-attrib_HH-attrib $-1 $-1 $-1 $370 F #
coedge $504 $442 $370 $420 $490 reversed $45 $-1 #
coedge $505 $423 $417 $370 $439 reversed $348 $-1 #
edge $506 $429 5 $492 18 $438 $507 forward 7 unknown #
attrib_hh_edge_geombuild-attrib_entity_geombuild-individual_entity_attribute-attrib_HH-attrib $-1 $-1 $371 $182 F #
attrib_hh_coedge_geombuild-attrib_entity_geombuild-individual_entity_attribute-attrib_HH-attrib $-1 $-1 $-1 $373 F #
coedge $508 $373 $437 $509 $510 forward $45 $-1 #
coedge $511 $484 $512 $373 $444 forward $415 $-1 #
edge $513 $450 -0.78539816339744828 $514 0.78539816339744828 $373 $515 forward 7 unknown #
attrib_hh_coedge_geombuild-attrib_entity_geombuild-individual_entity_attribute-attrib_HH-attrib $-1 $-1 $-1 $374 F #
coedge $516 $387 $374 $512 $517 reversed $448 $-1 #
coedge $518 $374 $387 $377 $453 reversed $448 $-1 #
loop $-1 $-1 $446 $414 #
attrib_edge_convexity-kcp-attrib $-1 $519 $-1 $375 1 #
vertex $520 $517 $521 #
straight-curve $-1 0 -15 -10 -1 0 0 I I #
attrib_hh_coedge_geombuild-attrib_entity_geombuild-individual_entity_attribute-attrib_HH-attrib $-1 $-1 $-1 $377 F #
edge $522 $379 -10 $390 10 $447 $523 forward 7 unknown #
convexity-sys-attrib $-1 $524 $378 $287 #
attrib_hh_vertex_geombuild-attrib_entity_geombuild-individual_entity_attribute-attrib_HH-attrib $-1 $-1 $-1 $379 F #
point $-1 -18 -15 -10 #
model_id-kcp-attrib $-1 $525 $-1 $382 1 1017635160 90 -1269170175 12 #
cone-surface $-1 -18 -8 0 0 0 -1 -4.94974746830583 -4.94974746830583 0 1 I I 0 1 6.9999999999999964 forward I I I I #
attrib_hh_edge_geombuild-attrib_entity_geombuild-individual_entity_attribute-attrib_HH-attrib $-1 $-1 $383 $187 F #
attrib_hh_coedge_geombuild-attrib_entity_geombuild-individual_entity_attribute-attrib_HH-attrib $-1 $-1 $-1 $386 F #
coedge $526 $475 $386 $527 $528 forward $119 $-1 #
coedge $529 $512 $484 $386 $463 forward $415 $-1 #
edge $530 $531 -0.78539816339744828 $466 0.78539816339744828 $386 $532 forward 7 unknown #
attrib_hh_coedge_geombuild-attrib_entity_geombuild-individual_entity_attribute-attrib_HH-attrib $-1 $-1 $-1 $387 F #
attrib_edge_convexity-kcp-attrib $-1 $533 $-1 $388 1 #
vertex $534 $388 $535 #
straight-curve $-1 0 -15 10 1 0 0 I I #
attrib_hh_vertex_geombuild-attrib_entity_geombuild-individual_entity_attribute-attrib_HH-attrib $-1 $-1 $-1 $390 F #
point $-1 -18 -15 10 #
attrib_hh_face_geombuild-attrib_entity_geombuild-individual_entity_attribute-attrib_HH-attrib $-1 $-1 $393 $303 F #
model_id-kcp-attrib $-1 $536 $-1 $394 1 1017635160 90 -1269170175 14 #
loop $-1 $-1 $537 $394 #
plane-surface $-1 25 0 0 -1 0 0 0 0 1 forward_v I I I I #
attrib_hh_coedge_geombuild-attrib_entity_geombuild-individual_entity_attribute-attrib_HH-attrib $-1 $-1 $-1 $397 F #
coedge $538 $397 $461 $419 $488 reversed $119 $-1 #
coedge $539 $417 $423 $397 $477 reversed $348 $-1 #
edge $540 $493 -18 $426 -5 $476 $541 forward 7 unknown #
convexity-sys-attrib $-1 $-1 $-1 $403 #
straight-curve $-1 5.75 5 10 -1 0 0 I I #
point $-1 5 5 10 #
attrib_hh_face_geombuild-attrib_entity_geombuild-individual_entity_attribute-attrib_HH-attrib $-1 $-1 $413 $347 F #
model_id-kcp-attrib $-1 $542 $-1 $414 1 1017635160 90 -1269170175 11 #
plane-surface $-1 0 -15 0 0 1 0 0 0 1 forward_v I I I I #
coedge $543 $462 $443 $544 $545 forward $415 $-1 #
attrib_hh_coedge_geombuild-attrib_entity_geombuild-individual_entity_attribute-attrib_HH-attrib $-1 $-1 $-1 $417 F #
attrib_hh_coedge_geombuild-attrib_entity_geombuild-individual_entity_attribute-attrib_HH-attrib $-1 $-1 $-1 $419 F #
coedge $546 $420 $419 $537 $547 forward $263 $-1 #
edge $548 $493 -0.78539816339744828 $549 0.78539816339744828 $475 $550 forward 7 unknown #
attrib_hh_coedge_geombuild-attrib_entity_geombuild-individual_entity_attribute-attrib_HH-attrib $-1 $-1 $-1 $420 F #
edge $551 $552 -0.78539816339744828 $492 0.78539816339744828 $437 $553 forward 7 unknown #
attrib_hh_edge_geombuild-attrib_entity_geombuild-individual_entity_attribute-attrib_HH-attrib $-1 $-1 $-1 $421 F #
vertex $554 $439 $555 #
vertex $556 $421 $557 #
straight-curve $-1 18 15 0 0 0 1 I I #
attrib_hh_coedge_geombuild-attrib_entity_geombuild-individual_entity_attribute-attrib_HH-attrib $-1 $-1 $-1 $423 F #
attrib_hh_edge_geombuild-attrib_entity_geombuild-individual_entity_attribute-attrib_HH-attrib $-1 $-1 $-1 $424 F #
straight-curve $-1 5 15 0 0 0 1 I I #
attrib_hh_vertex_geombuild-attrib_entity_geombuild-individual_entity_attribute-attrib_HH-attrib $-1 $-1 $-1 $426 F #
point $-1 5 15 10 #
convexity-sys-attrib $-1 $558 $428 $355 #
attrib_hh_vertex_geombuild-attrib_entity_geombuild-individual_entity_attribute-attrib_HH-attrib $-1 $-1 $-1 $429 F #
point $-1 5 15 -10 #
attrib_hh_edge_geombuild-attrib_entity_geombuild-individual_entity_attribute-attrib_HH-attrib $-1 $-1 $435 $273 F #
attrib_hh_coedge_geombuild-attrib_entity_geombuild-individual_entity_attribute-attrib_HH-attrib $-1 $-1 $-1 $437 F #
attrib_hh_coedge_geombuild-attrib_entity_geombuild-individual_entity_attribute-attrib_HH-attrib $-1 $-1 $-1 $438 F #
attrib_edge_convexity-kcp-attrib $-1 $559 $-1 $439 1 #
straight-curve $-1 0 15 -10 1 0 0 I I #
attrib_hh_coedge_geombuild-attrib_entity_geombuild-individual_entity_attribute-attrib_HH-attrib $-1 $-1 $-1 $442 F #
coedge $560 $537 $544 $442 $510 reversed $472 $-1 #
edge $561 $552 -8 $514 8 $509 $562 forward 7 unknown #
attrib_hh_coedge_geombuild-attrib_entity_geombuild-individual_entity_attribute-attrib_HH-attrib $-1 $-1 $-1 $443 F #
coedge $563 $443 $462 $446 $517 forward $415 $-1 #
attrib_edge_convexity-kcp-attrib $-1 $564 $-1 $444 1 #
vertex $565 $510 $566 #
ellipse-curve $-1 18 -8 -10 0 0 1 4.94974746830583 -4.94974746830583 0 1 I I #
attrib_hh_coedge_geombuild-attrib_entity_geombuild-individual_entity_attribute-attrib_HH-attrib $-1 $-1 $-1 $446 F #
edge $567 $466 -10 $450 10 $446 $568 forward 7 unknown #
attrib_hh_coedge_geombuild-attrib_entity_geombuild-individual_entity_attribute-attrib_HH-attrib $-1 $-1 $-1 $447 F #
convexity-sys-attrib $-1 $569 $449 $375 #
attrib_hh_vertex_geombuild-attrib_entity_geombuild-individual_entity_attribute-attrib_HH-attrib $-1 $-1 $-1 $450 F #
point $-1 18 -15 -10 #
attrib_edge_convexity-kcp-attrib $-1 $570 $-1 $453 3 #
straight-curve $-1 -18 -15 0 0 0 1 I I #
attrib_hh_edge_geombuild-attrib_entity_geombuild-individual_entity_attribute-attrib_HH-attrib $-1 $-1 $454 $287 F #
attrib_hh_face_geombuild-attrib_entity_geombuild-individual_entity_attribute-attrib_HH-attrib $-1 $-1 $457 $382 F #
attrib_hh_coedge_geombuild-attrib_entity_geombuild-individual_entity_attribute-attrib_HH-attrib $-1 $-1 $-1 $461 F #
coedge $571 $544 $537 $461 $528 reversed $472 $-1 #
edge $572 $531 -8 $549 8 $527 $573 forward 7 unknown #
attrib_hh_coedge_geombuild-attrib_entity_geombuild-individual_entity_attribute-attrib_HH-attrib $-1 $-1 $-1 $462 F #
attrib_hh_edge_geombuild-attrib_entity_geombuild-individual_entity_attribute-attrib_HH-attrib $-1 $-1 $-1 $463 F #
vertex $574 $463 $575 #
ellipse-curve $-1 18 -8 10 0 0 -1 4.94974746830583 -4.94974746830583 0 1 I I #
convexity-sys-attrib $-1 $576 $465 $388 #
attrib_hh_vertex_geombuild-attrib_entity_geombuild-individual_entity_attribute-attrib_HH-attrib $-1 $-1 $-1 $466 F #
point $-1 18 -15 10 #
attrib_hh_face_geombuild-attrib_entity_geombuild-individual_entity_attribute-attrib_HH-attrib $-1 $-1 $471 $394 F #
coedge $577 $527 $509 $487 $547 reversed $472 $-1 #
attrib_hh_coedge_geombuild-attrib_entity_geombuild-individual_entity_attribute-attrib_HH-attrib $-1 $-1 $-1 $475 F #
attrib_hh_coedge_geombuild-attrib_entity_geombuild-individual_entity_attribute-attrib_HH-attrib $-1 $-1 $-1 $476 F #
attrib_hh_edge_geombuild-attrib_entity_geombuild-individual_entity_attribute-attrib_HH-attrib $-1 $-1 $-1 $477 F #
straight-curve $-1 0 15 10 -1 0 0 I I #
attrib_hh_face_geombuild-attrib_entity_geombuild-individual_entity_attribute-attrib_HH-attrib $-1 $-1 $482 $414 F #
attrib_hh_coedge_geombuild-attrib_entity_geombuild-individual_entity_attribute-attrib_HH-attrib $-1 $-1 $-1 $484 F #
coedge $578 $509 $527 $484 $545 reversed $472 $-1 #
edge $579 $514 -10 $531 10 $544 $580 forward 7 unknown #
attrib_hh_coedge_geombuild-attrib_entity_geombuild-individual_entity_attribute-attrib_HH-attrib $-1 $-1 $-1 $487 F #
edge $581 $549 -10 $552 10 $537 $582 forward 7 unknown #
attrib_hh_edge_geombuild-attrib_entity_geombuild-individual_entity_attribute-attrib_HH-attrib $-1 $-1 $-1 $488 F #
vertex $583 $528 $584 #
ellipse-curve $-1 18 8 10 0 0 -1 4.94974746830583 4.94974746830583 0 1 I I #
attrib_edge_convexity-kcp-attrib $-1 $585 $-1 $490 1 #
vertex $586 $490 $587 #
ellipse-curve $-1 18 8 -10 0 0 1 4.94974746830583 4.94974746830583 0 1 I I #
attrib_hh_vertex_geombuild-attrib_entity_geombuild-individual_entity_attribute-attrib_HH-attrib $-1 $-1 $-1 $492 F #
point $-1 18 15 -10 #
attrib_hh_vertex_geombuild-attrib_entity_geombuild-individual_entity_attribute-attrib_HH-attrib $-1 $-1 $-1 $493 F #
point $-1 18 15 10 #
attrib_hh_edge_geombuild-attrib_entity_geombuild-individual_entity_attribute-attrib_HH-attrib $-1 $-1 $500 $355 F #
convexity-sys-attrib $-1 $588 $506 $439 #
attrib_hh_coedge_geombuild-attrib_entity_geombuild-individual_entity_attribute-attrib_HH-attrib $-1 $-1 $-1 $509 F #
attrib_edge_convexity-kcp-attrib $-1 $589 $-1 $510 1 #
straight-curve $-1 25 0 -10 0 -1 0 I I #
attrib_hh_coedge_geombuild-attrib_entity_geombuild-individual_entity_attribute-attrib_HH-attrib $-1 $-1 $-1 $512 F #
convexity-sys-attrib $-1 $590 $513 $444 #
attrib_hh_vertex_geombuild-attrib_entity_geombuild-individual_entity_attribute-attrib_HH-attrib $-1 $-1 $-1 $514 F #
point $-1 25 -8 -10 #
attrib_edge_convexity-kcp-attrib $-1 $591 $-1 $517 3 #
straight-curve $-1 18 -15 0 0 0 -1 I I #
attrib_hh_edge_geombuild-attrib_entity_geombuild-individual_entity_attribute-attrib_HH-attrib $-1 $-1 $519 $375 F #
convexity-sys-attrib $-1 $592 $522 $453 #
attrib_hh_coedge_geombuild-attrib_entity_geombuild-individual_entity_attribute-attrib_HH-attrib $-1 $-1 $-1 $527 F #
attrib_hh_edge_geombuild-attrib_entity_geombuild-individual_entity_attribute-attrib_HH-attrib $-1 $-1 $-1 $528 F #
straight-curve $-1 25 0 10 0 1 0 I I #
attrib_hh_vertex_geombuild-attrib_entity_geombuild-individual_entity_attribute-attrib_HH-attrib $-1 $-1 $-1 $531 F #
point $-1 25 -8 10 #
attrib_hh_edge_geombuild-attrib_entity_geombuild-individual_entity_attribute-attrib_HH-attrib $-1 $-1 $533 $388 F #
attrib_hh_coedge_geombuild-attrib_entity_geombuild-individual_entity_attribute-attrib_HH-attrib $-1 $-1 $-1 $537 F #
attrib_hh_coedge_geombuild-attrib_entity_geombuild-individual_entity_attribute-attrib_HH-attrib $-1 $-1 $-1 $544 F #
attrib_hh_edge_geombuild-attrib_entity_geombuild-individual_entity_attribute-attrib_HH-attrib $-1 $-1 $-1 $545 F #
straight-curve $-1 25 -8 0 0 0 1 I I #
attrib_hh_edge_geombuild-attrib_entity_geombuild-individual_entity_attribute-attrib_HH-attrib $-1 $-1 $-1 $547 F #
straight-curve $-1 25 8 0 0 0 -1 I I #
attrib_hh_vertex_geombuild-attrib_entity_geombuild-individual_entity_attribute-attrib_HH-attrib $-1 $-1 $-1 $549 F #
point $-1 25 8 10 #
convexity-sys-attrib $-1 $593 $551 $490 #
attrib_hh_vertex_geombuild-attrib_entity_geombuild-individual_entity_attribute-attrib_HH-attrib $-1 $-1 $-1 $552 F #
point $-1 25 8 -10 #
attrib_hh_edge_geombuild-attrib_entity_geombuild-individual_entity_attribute-attrib_HH-attrib $-1 $-1 $559 $439 F #
convexity-sys-attrib $-1 $594 $561 $510 #
attrib_hh_edge_geombuild-attrib_entity_geombuild-individual_entity_attribute-attrib_HH-attrib $-1 $-1 $564 $444 F #
convexity-sys-attrib $-1 $595 $567 $517 #
attrib_hh_edge_geombuild-attrib_entity_geombuild-individual_entity_attribute-attrib_HH-attrib $-1 $-1 $570 $453 F #
attrib_hh_edge_geombuild-attrib_entity_geombuild-individual_entity_attribute-attrib_HH-attrib $-1 $-1 $585 $490 F #
attrib_hh_edge_geombuild-attrib_entity_geombuild-individual_entity_attribute-attrib_HH-attrib $-1 $-1 $589 $510 F #
attrib_hh_edge_geombuild-attrib_entity_geombuild-individual_entity_attribute-attrib_HH-attrib $-1 $-1 $591 $517 F #
End-of-ACIS-data 