600 0 8 0           
93 GICL ACIS Healer - Source: /gicl/data5/repository/Drexel/SM99-DATA/part82.smdg.feat.sat - 6 0 18 ACIS 6.0.3 Solaris 24 Sat Apr 13 20:45:57 2002 
1 9.999999999999999547e-07 1.000000000000000036e-10 
body $-1 $8 $-1 $-1 #
body $-1 $9 $-1 $-1 #
body $-1 $10 $-1 $-1 #
body $-1 $11 $-1 $-1 #
body $-1 $12 $-1 $-1 #
body $-1 $13 $-1 $-1 #
body $-1 $14 $-1 $-1 #
body $-1 $15 $-1 $-1 #
lump $-1 $-1 $16 $0 #
lump $-1 $-1 $17 $1 #
lump $-1 $-1 $18 $2 #
lump $-1 $-1 $19 $3 #
lump $-1 $-1 $20 $4 #
lump $-1 $-1 $21 $5 #
lump $-1 $-1 $22 $6 #
lump $-1 $-1 $23 $7 #
shell $-1 $-1 $-1 $24 $-1 $8 #
shell $-1 $-1 $-1 $25 $-1 $9 #
shell $-1 $-1 $-1 $26 $-1 $10 #
shell $-1 $-1 $-1 $27 $-1 $11 #
shell $-1 $-1 $-1 $28 $-1 $12 #
shell $-1 $-1 $-1 $29 $-1 $13 #
shell $-1 $-1 $-1 $30 $-1 $14 #
shell $-1 $-1 $-1 $31 $-1 $15 #
face $-1 $32 $33 $16 $-1 $34 forward single #
face $-1 $35 $36 $17 $-1 $37 forward single #
face $-1 $38 $39 $18 $-1 $40 forward single #
face $-1 $41 $42 $19 $-1 $43 forward single #
face $-1 $44 $45 $20 $-1 $46 forward single #
face $-1 $47 $48 $21 $-1 $49 forward single #
face $-1 $50 $51 $22 $-1 $52 forward single #
face $-1 $53 $54 $23 $-1 $55 forward single #
face $-1 $56 $57 $16 $-1 $58 reversed single #
loop $-1 $-1 $59 $24 #
plane-surface $-1 74.35895870845668298 51.29422441404030764 50.54376049655958525 0 0 1 1 0 0 forward_v I I I I #
face $-1 $60 $61 $17 $-1 $62 reversed single #
loop $-1 $-1 $63 $25 #
plane-surface $-1 74.35895870845668298 13.05640800203395813 13.9639729193153137 0 0 1 1 0 0 forward_v I I I I #
face $-1 $64 $65 $18 $-1 $66 reversed single #
loop $-1 $-1 $67 $26 #
plane-surface $-1 185.9877460276258887 30.36767309870021236 372.5224409153486249 0.5446390421508873203 0 0.8386705633113421543 0.8386705633113421543 0 -0.5446390421508873203 forward_v I I I I #
face $-1 $68 $69 $19 $-1 $70 forward single #
loop $-1 $71 $72 $27 #
cone-surface $-1 141.9245910937546 28.54416291528637117 45.88963380345478527 -0.5446390421508873203 0 -0.8386705633113421543 0.4193352816556710772 0 -0.2723195210754436602 1 I I 0 1 0.5 forward I I I I #
face $-1 $73 $74 $20 $-1 $75 forward single #
loop $-1 $76 $77 $28 #
cone-surface $-1 141.9245910937546 32.19118328211405355 45.88963380345478527 -0.5446390421508873203 0 -0.8386705633113421543 0.4193352816556710772 0 -0.2723195210754436602 1 I I 0 1 0.5 forward I I I I #
face $-1 $78 $79 $21 $-1 $80 reversed single #
loop $-1 $-1 $81 $29 #
plane-surface $-1 -246.5854849030255878 69.16023005341652663 196.7521237725147785 -0.8290375806290775085 0 0.5591928915004963363 0.5591928915004963363 0 0.8290375806290775085 forward_v I I I I #
face $-1 $82 $83 $22 $-1 $84 forward single #
loop $-1 $85 $86 $30 #
cone-surface $-1 7.796757633182280323 65.87655137997360555 39.80288389057569987 0.8290375806290775085 0 -0.5591928915004963363 0.5591928915004963363 0 0.8290375806290775085 1 I I 0 1 1 forward I I I I #
face $-1 $87 $88 $23 $-1 $89 forward single #
loop $-1 $90 $91 $31 #
cone-surface $-1 7.796757633182280323 72.44390872685946192 39.80288389057569987 0.8290375806290775085 0 -0.5591928915004963363 0.5591928915004963363 0 0.8290375806290775085 1 I I 0 1 1 forward I I I I #
face $-1 $92 $93 $16 $-1 $94 reversed single #
loop $-1 $-1 $95 $32 #
plane-surface $-1 74.35895870845668298 51.29422441404030764 0 0 0 1 1 0 0 forward_v I I I I #
coedge $-1 $96 $97 $98 $99 forward $33 $-1 #
face $-1 $100 $101 $17 $-1 $102 reversed single #
loop $-1 $-1 $103 $35 #
plane-surface $-1 74.35895870845668298 13.05640800203395813 0 0 0 1 1 0 0 forward_v I I I I #
coedge $-1 $104 $105 $106 $107 forward $36 $-1 #
face $-1 $108 $109 $18 $-1 $110 reversed single #
loop $-1 $-1 $111 $38 #
plane-surface $-1 23.99257784238096747 30.36767309870021236 123.0717617662837995 0.5446390421508873203 0 0.8386705633113421543 0.8386705633113421543 0 -0.5446390421508873203 forward_v I I I I #
coedge $-1 $112 $113 $114 $115 forward $39 $-1 #
face $-1 $-1 $116 $19 $-1 $117 forward single #
loop $-1 $-1 $118 $41 #
plane-surface $-1 142.1969106148300455 28.54416291528637117 46.30896908511045496 0.5446390421508873203 0 0.8386705633113421543 -0.8386705633113421543 0 0.5446390421508873203 forward_v I I I I #
loop $-1 $-1 $119 $27 #
coedge $-1 $72 $72 $118 $120 reversed $42 $-1 #
face $-1 $-1 $121 $20 $-1 $122 forward single #
loop $-1 $-1 $123 $44 #
plane-surface $-1 142.1969106148300455 32.19118328211405355 46.30896908511045496 0.5446390421508873203 0 0.8386705633113421543 -0.8386705633113421543 0 0.5446390421508873203 forward_v I I I I #
loop $-1 $-1 $124 $28 #
coedge $-1 $77 $77 $123 $125 reversed $45 $-1 #
face $-1 $126 $127 $21 $-1 $128 reversed single #
loop $-1 $-1 $129 $47 #
plane-surface $-1 1.421085471520200372e-14 69.16023005341652663 30.42811925592314992 -0.8290375806290775085 0 0.5591928915004963363 0.5591928915004963363 0 0.8290375806290775085 forward_v I I I I #
coedge $-1 $130 $131 $132 $133 forward $48 $-1 #
face $-1 $-1 $134 $22 $-1 $135 forward single #
loop $-1 $-1 $136 $50 #
plane-surface $-1 6.784085457985318257 65.87655137997360555 40.48593987624137469 -0.8290375806290775085 0 0.5591928915004963363 -0.5591928915004963363 0 -0.8290375806290775085 forward_v I I I I #
loop $-1 $-1 $137 $30 #
coedge $-1 $86 $86 $136 $138 reversed $51 $-1 #
face $-1 $-1 $139 $23 $-1 $140 forward single #
loop $-1 $-1 $141 $53 #
plane-surface $-1 6.784085457985318257 72.44390872685946192 40.48593987624137469 -0.8290375806290775085 0 0.5591928915004963363 -0.5591928915004963363 0 -0.8290375806290775085 forward_v I I I I #
loop $-1 $-1 $142 $31 #
coedge $-1 $91 $91 $141 $143 reversed $54 $-1 #
face $-1 $144 $145 $16 $-1 $146 reversed single #
loop $-1 $-1 $147 $56 #
plane-surface $-1 74.35895870845668298 0 25.27188024827979262 0 1 0 0 0 1 forward_v I I I I #
coedge $-1 $148 $149 $150 $151 forward $57 $-1 #
coedge $-1 $152 $59 $153 $154 forward $33 $-1 #
coedge $-1 $59 $152 $155 $156 forward $33 $-1 #
coedge $-1 $157 $158 $59 $99 reversed $159 $-1 #
edge $-1 $160 -51.29422441404030764 $161 51.29422441404030764 $98 $162 forward 7 unknown #
face $-1 $163 $164 $17 $-1 $165 reversed single #
loop $-1 $-1 $166 $60 #
plane-surface $-1 74.35895870845668298 0 6.981986459657656852 0 1 0 0 0 1 forward_v I I I I #
coedge $-1 $167 $168 $169 $170 forward $61 $-1 #
coedge $-1 $171 $63 $172 $173 forward $36 $-1 #
coedge $-1 $63 $171 $174 $175 forward $36 $-1 #
coedge $-1 $176 $177 $63 $107 reversed $178 $-1 #
edge $-1 $179 -13.05640800203395813 $180 13.05640800203395813 $106 $181 forward 7 unknown #
face $-1 $182 $183 $18 $-1 $184 reversed single #
loop $-1 $-1 $185 $64 #
plane-surface $-1 104.9901619350034281 26.11281600406791625 247.797101340816198 0 1 0 0.5446390421508873203 0 0.8386705633113421543 forward_v I I I I #
coedge $-1 $186 $187 $188 $189 forward $65 $-1 #
coedge $-1 $190 $67 $191 $192 forward $39 $-1 #
coedge $-1 $67 $190 $193 $194 forward $39 $-1 #
coedge $-1 $195 $196 $67 $115 reversed $197 $-1 #
edge $-1 $198 -4.254857094632296111 $199 4.254857094632296111 $114 $200 forward 7 unknown #
loop $-1 $201 $202 $68 #
cone-surface $-1 141.5161118121414461 28.54416291528637117 45.26063088097127718 -0.5446390421508873203 0 -0.8386705633113421543 0.2096676408278355386 0 -0.1361597605377218301 1 I I -0.7071067811865474617 0.7071067811865474617 0.25 forward I I I I #
coedge $-1 $118 $118 $72 $120 forward $69 $-1 #
coedge $-1 $119 $119 $202 $203 forward $71 $-1 #
edge $-1 $204 0 $204 6.283185307179586232 $118 $205 forward 7 unknown #
loop $-1 $206 $207 $73 #
cone-surface $-1 141.5161118121414461 32.19118328211405355 45.26063088097127718 -0.5446390421508873203 0 -0.8386705633113421543 0.2096676408278355386 0 -0.1361597605377218301 1 I I -0.7071067811865474617 0.7071067811865474617 0.25 forward I I I I #
coedge $-1 $123 $123 $77 $125 forward $74 $-1 #
coedge $-1 $124 $124 $207 $208 forward $76 $-1 #
edge $-1 $209 0 $209 6.283185307179586232 $123 $210 forward 7 unknown #
face $-1 $211 $212 $21 $-1 $213 reversed single #
loop $-1 $-1 $214 $78 #
plane-surface $-1 -123.2927424515127939 61.49831314871636323 113.5901215142189642 0 1 0 -0.8290375806290775085 0 0.5591928915004963363 forward_v I I I I #
coedge $-1 $215 $216 $217 $218 forward $79 $-1 #
coedge $-1 $219 $81 $220 $221 forward $48 $-1 #
coedge $-1 $81 $219 $222 $223 forward $48 $-1 #
coedge $-1 $224 $225 $81 $133 reversed $226 $-1 #
edge $-1 $227 -7.6619169047001634 $228 7.6619169047001634 $132 $229 forward 7 unknown #
loop $-1 $230 $231 $82 #
cone-surface $-1 9.223948598693780809 65.87655137997360555 38.84023145915976727 0.8290375806290775085 0 -0.5591928915004963363 0.2795964457502481681 0 0.4145187903145387542 1 I I -0.7071067811865474617 0.7071067811865474617 0.5 forward I I I I #
coedge $-1 $136 $136 $86 $138 forward $83 $-1 #
coedge $-1 $137 $137 $231 $232 forward $85 $-1 #
edge $-1 $233 0 $233 6.283185307179586232 $136 $234 forward 7 unknown #
loop $-1 $235 $236 $87 #
cone-surface $-1 9.223948598693780809 72.44390872685946192 38.84023145915976727 0.8290375806290775085 0 -0.5591928915004963363 0.2795964457502481681 0 0.4145187903145387542 1 I I -0.7071067811865474617 0.7071067811865474617 0.5 forward I I I I #
coedge $-1 $141 $141 $91 $143 forward $88 $-1 #
coedge $-1 $142 $142 $236 $237 forward $90 $-1 #
edge $-1 $238 0 $238 6.283185307179586232 $141 $239 forward 7 unknown #
face $-1 $240 $241 $16 $-1 $242 reversed single #
loop $-1 $-1 $243 $92 #
plane-surface $-1 0 51.29422441404030764 25.27188024827979262 1 0 0 0 0 -1 forward_v I I I I #
coedge $-1 $244 $155 $245 $246 forward $93 $-1 #
coedge $-1 $247 $95 $244 $248 forward $57 $-1 #
coedge $-1 $95 $247 $249 $250 forward $57 $-1 #
coedge $-1 $158 $157 $95 $151 reversed $159 $-1 #
edge $-1 $251 -51.29422441404030764 $252 51.29422441404030764 $150 $253 forward 7 unknown #
coedge $-1 $97 $96 $254 $255 forward $33 $-1 #
coedge $-1 $256 $257 $96 $154 reversed $241 $-1 #
edge $-1 $161 -74.35895870845668298 $258 74.35895870845668298 $153 $259 forward 7 unknown #
coedge $-1 $147 $260 $97 $156 reversed $93 $-1 #
edge $-1 $261 -74.35895870845668298 $160 74.35895870845668298 $155 $262 forward 7 unknown #
coedge $-1 $150 $98 $260 $263 forward $159 $-1 #
coedge $-1 $98 $150 $256 $264 reversed $159 $-1 #
loop $-1 $-1 $157 $240 #
vertex $-1 $99 $265 #
vertex $-1 $99 $266 #
straight-curve $-1 148.717917416913366 51.29422441404030764 50.54376049655958525 0 1 0 I I #
face $-1 $267 $268 $17 $-1 $269 reversed single #
loop $-1 $-1 $270 $100 #
plane-surface $-1 0 13.05640800203395813 6.981986459657656852 1 0 0 0 0 -1 forward_v I I I I #
coedge $-1 $271 $174 $272 $273 forward $101 $-1 #
coedge $-1 $274 $103 $271 $275 forward $61 $-1 #
coedge $-1 $103 $274 $276 $277 forward $61 $-1 #
coedge $-1 $177 $176 $103 $170 reversed $178 $-1 #
edge $-1 $278 -13.05640800203395813 $279 13.05640800203395813 $169 $280 forward 7 unknown #
coedge $-1 $105 $104 $281 $282 forward $36 $-1 #
coedge $-1 $283 $284 $104 $173 reversed $268 $-1 #
edge $-1 $180 -74.35895870845668298 $285 74.35895870845668298 $172 $286 forward 7 unknown #
coedge $-1 $166 $287 $105 $175 reversed $101 $-1 #
edge $-1 $288 -74.35895870845668298 $179 74.35895870845668298 $174 $289 forward 7 unknown #
coedge $-1 $169 $106 $287 $290 forward $178 $-1 #
coedge $-1 $106 $169 $283 $291 reversed $178 $-1 #
loop $-1 $-1 $176 $267 #
vertex $-1 $107 $292 #
vertex $-1 $107 $293 #
straight-curve $-1 148.717917416913366 13.05640800203395813 13.9639729193153137 0 1 0 I I #
face $-1 $294 $295 $18 $-1 $296 reversed single #
loop $-1 $-1 $297 $108 #
plane-surface $-1 -144.4605172140613831 30.36767309870021236 409.7922695260610908 0.8386705633113421543 0 -0.5446390421508873203 -0.5446390421508873203 0 -0.8386705633113421543 forward_v I I I I #
coedge $-1 $298 $193 $299 $300 forward $109 $-1 #
coedge $-1 $301 $111 $298 $302 forward $65 $-1 #
coedge $-1 $111 $301 $303 $304 forward $65 $-1 #
coedge $-1 $196 $195 $111 $189 reversed $197 $-1 #
edge $-1 $305 -4.254857094632296111 $306 4.254857094632296111 $188 $307 forward 7 unknown #
coedge $-1 $113 $112 $308 $309 forward $39 $-1 #
coedge $-1 $310 $311 $112 $192 reversed $295 $-1 #
edge $-1 $199 -297.4358348338267319 $312 297.4358348338267319 $191 $313 forward 7 unknown #
coedge $-1 $185 $314 $113 $194 reversed $109 $-1 #
edge $-1 $315 -297.4358348338267319 $198 297.4358348338267319 $193 $316 forward 7 unknown #
coedge $-1 $188 $114 $314 $317 forward $197 $-1 #
coedge $-1 $114 $188 $310 $318 reversed $197 $-1 #
loop $-1 $-1 $195 $294 #
vertex $-1 $115 $319 #
vertex $-1 $115 $320 #
straight-curve $-1 435.4384251766906573 30.36767309870021236 210.5272727301036753 0 1 0 I I #
loop $-1 $-1 $321 $68 #
coedge $-1 $202 $202 $119 $203 reversed $116 $-1 #
edge $-1 $322 0 $322 6.283185307179586232 $202 $323 forward 7 unknown #
vertex $-1 $120 $324 #
ellipse-curve $-1 142.1969106148300455 28.54416291528637117 46.30896908511045496 0.5446390421508873203 0 0.8386705633113421543 0.4193352816556710772 0 -0.2723195210754436602 1 I I #
loop $-1 $-1 $325 $73 #
coedge $-1 $207 $207 $124 $208 reversed $121 $-1 #
edge $-1 $326 0 $326 6.283185307179586232 $207 $327 forward 7 unknown #
vertex $-1 $125 $328 #
ellipse-curve $-1 142.1969106148300455 32.19118328211405355 46.30896908511045496 0.5446390421508873203 0 0.8386705633113421543 0.4193352816556710772 0 -0.2723195210754436602 1 I I #
face $-1 $329 $330 $21 $-1 $331 reversed single #
loop $-1 $-1 $332 $126 #
plane-surface $-1 -289.616746968104394 69.16023005341652663 -132.995363388806652 0.5591928915004963363 0 0.8290375806290775085 0.8290375806290775085 0 -0.5591928915004963363 forward_v I I I I #
coedge $-1 $333 $222 $334 $335 forward $127 $-1 #
coedge $-1 $336 $129 $333 $337 forward $79 $-1 #
coedge $-1 $129 $336 $338 $339 forward $79 $-1 #
coedge $-1 $225 $224 $129 $218 reversed $226 $-1 #
edge $-1 $340 -7.6619169047001634 $341 7.6619169047001634 $217 $342 forward 7 unknown #
coedge $-1 $131 $130 $343 $344 forward $48 $-1 #
coedge $-1 $345 $346 $130 $221 reversed $330 $-1 #
edge $-1 $228 -297.4358348338267888 $347 297.4358348338267319 $220 $348 forward 7 unknown #
coedge $-1 $214 $349 $131 $223 reversed $127 $-1 #
edge $-1 $350 -297.4358348338267319 $227 297.4358348338267888 $222 $351 forward 7 unknown #
coedge $-1 $217 $132 $349 $352 forward $226 $-1 #
coedge $-1 $132 $217 $345 $353 reversed $226 $-1 #
loop $-1 $-1 $224 $329 #
vertex $-1 $133 $354 #
vertex $-1 $133 $355 #
straight-curve $-1 -80.26148038643397342 69.16023005341652663 443.3376086755404231 0 1 0 I I #
loop $-1 $-1 $356 $82 #
coedge $-1 $231 $231 $137 $232 reversed $134 $-1 #
edge $-1 $357 0 $357 6.283185307179586232 $231 $358 forward 7 unknown #
vertex $-1 $138 $359 #
ellipse-curve $-1 6.784085457985318257 65.87655137997360555 40.48593987624137469 -0.8290375806290775085 0 0.5591928915004963363 0.5591928915004963363 0 0.8290375806290775085 1 I I #
loop $-1 $-1 $360 $87 #
coedge $-1 $236 $236 $142 $237 reversed $139 $-1 #
edge $-1 $361 0 $361 6.283185307179586232 $236 $362 forward 7 unknown #
vertex $-1 $143 $363 #
ellipse-curve $-1 6.784085457985318257 72.44390872685946192 40.48593987624137469 -0.8290375806290775085 0 0.5591928915004963363 0.5591928915004963363 0 0.8290375806290775085 1 I I #
face $-1 $-1 $159 $16 $-1 $364 reversed single #
loop $-1 $-1 $256 $144 #
plane-surface $-1 74.35895870845668298 102.5884488280806153 25.27188024827979262 0 -1 0 0 0 -1 forward_v I I I I #
coedge $-1 $365 $254 $257 $366 forward $145 $-1 #
coedge $-1 $260 $147 $148 $248 reversed $93 $-1 #
coedge $-1 $254 $365 $147 $246 reversed $145 $-1 #
edge $-1 $261 -25.27188024827979262 $367 25.27188024827979262 $245 $368 forward 7 unknown #
coedge $-1 $149 $148 $365 $369 forward $57 $-1 #
edge $-1 $252 -74.35895870845668298 $367 74.35895870845668298 $244 $370 forward 7 unknown #
coedge $-1 $257 $256 $149 $250 reversed $241 $-1 #
edge $-1 $371 -74.35895870845668298 $251 74.35895870845668298 $249 $372 forward 7 unknown #
vertex $-1 $151 $373 #
vertex $-1 $263 $374 #
straight-curve $-1 148.717917416913366 51.29422441404030764 0 0 -1 0 I I #
coedge $-1 $243 $245 $152 $255 reversed $145 $-1 #
edge $-1 $258 -51.29422441404030764 $261 51.29422441404030764 $254 $375 forward 7 unknown #
coedge $-1 $249 $153 $158 $264 forward $241 $-1 #
coedge $-1 $153 $249 $243 $366 reversed $241 $-1 #
vertex $-1 $154 $376 #
straight-curve $-1 74.35895870845668298 102.5884488280806153 50.54376049655958525 -1 0 0 I I #
coedge $-1 $155 $244 $157 $263 reversed $93 $-1 #
vertex $-1 $255 $377 #
straight-curve $-1 74.35895870845668298 0 50.54376049655958525 1 0 0 I I #
edge $-1 $160 -25.27188024827979262 $252 25.27188024827979262 $157 $378 forward 7 unknown #
edge $-1 $161 -25.27188024827979262 $251 25.27188024827979262 $158 $379 forward 7 unknown #
point $-1 148.717917416913366 0 50.54376049655958525 #
point $-1 148.717917416913366 102.5884488280806153 50.54376049655958525 #
face $-1 $-1 $178 $17 $-1 $380 reversed single #
loop $-1 $-1 $283 $163 #
plane-surface $-1 74.35895870845668298 26.11281600406791625 6.981986459657656852 0 -1 0 0 0 -1 forward_v I I I I #
coedge $-1 $381 $281 $284 $382 forward $164 $-1 #
coedge $-1 $287 $166 $167 $275 reversed $101 $-1 #
coedge $-1 $281 $381 $166 $273 reversed $164 $-1 #
edge $-1 $288 -6.981986459657656852 $383 6.981986459657656852 $272 $384 forward 7 unknown #
coedge $-1 $168 $167 $381 $385 forward $61 $-1 #
edge $-1 $279 -74.35895870845668298 $383 74.35895870845668298 $271 $386 forward 7 unknown #
coedge $-1 $284 $283 $168 $277 reversed $268 $-1 #
edge $-1 $387 -74.35895870845668298 $278 74.35895870845668298 $276 $388 forward 7 unknown #
vertex $-1 $170 $389 #
vertex $-1 $290 $390 #
straight-curve $-1 148.717917416913366 13.05640800203395813 0 0 -1 0 I I #
coedge $-1 $270 $272 $171 $282 reversed $164 $-1 #
edge $-1 $285 -13.05640800203395813 $288 13.05640800203395813 $281 $391 forward 7 unknown #
coedge $-1 $276 $172 $177 $291 forward $268 $-1 #
coedge $-1 $172 $276 $270 $382 reversed $268 $-1 #
vertex $-1 $173 $392 #
straight-curve $-1 74.35895870845668298 26.11281600406791625 13.9639729193153137 -1 0 0 I I #
coedge $-1 $174 $271 $176 $290 reversed $101 $-1 #
vertex $-1 $282 $393 #
straight-curve $-1 74.35895870845668298 0 13.9639729193153137 1 0 0 I I #
edge $-1 $179 -6.981986459657656852 $279 6.981986459657656852 $176 $394 forward 7 unknown #
edge $-1 $180 -6.981986459657656852 $278 6.981986459657656852 $177 $395 forward 7 unknown #
point $-1 148.717917416913366 0 13.9639729193153137 #
point $-1 148.717917416913366 26.11281600406791625 13.9639729193153137 #
face $-1 $-1 $197 $18 $-1 $396 reversed single #
loop $-1 $-1 $310 $182 #
plane-surface $-1 104.9901619350034281 34.62253019333250847 247.797101340816198 0 -1 0 -0.5446390421508873203 0 -0.8386705633113421543 forward_v I I I I #
coedge $-1 $397 $308 $311 $398 forward $183 $-1 #
coedge $-1 $314 $185 $186 $302 reversed $109 $-1 #
coedge $-1 $308 $397 $185 $300 reversed $183 $-1 #
edge $-1 $315 -148.7179174169133944 $399 148.7179174169133375 $299 $400 forward 7 unknown #
coedge $-1 $187 $186 $397 $401 forward $65 $-1 #
edge $-1 $306 -297.4358348338267319 $399 297.4358348338267319 $298 $402 forward 7 unknown #
coedge $-1 $311 $310 $187 $304 reversed $295 $-1 #
edge $-1 $403 -297.4358348338267319 $305 297.4358348338267319 $303 $404 forward 7 unknown #
vertex $-1 $189 $405 #
vertex $-1 $317 $406 #
straight-curve $-1 273.4432569914457645 30.36767309870021236 -38.92340641896112174 0 -1 0 I I #
coedge $-1 $297 $299 $190 $309 reversed $183 $-1 #
edge $-1 $312 -4.254857094632296111 $315 4.254857094632296111 $308 $407 forward 7 unknown #
coedge $-1 $303 $191 $196 $318 forward $295 $-1 #
coedge $-1 $191 $303 $297 $398 reversed $295 $-1 #
vertex $-1 $192 $408 #
straight-curve $-1 185.9877460276258887 34.62253019333250847 372.5224409153486249 -0.8386705633113421543 0 0.5446390421508873203 I I #
coedge $-1 $193 $298 $195 $317 reversed $109 $-1 #
vertex $-1 $309 $409 #
straight-curve $-1 185.9877460276258887 26.11281600406791625 372.5224409153486249 0.8386705633113421543 0 -0.5446390421508873203 I I #
edge $-1 $198 -148.717917416913366 $306 148.717917416913366 $195 $410 forward 7 unknown #
edge $-1 $199 -148.717917416913366 $305 148.717917416913366 $196 $411 forward 7 unknown #
point $-1 435.4384251766906573 26.11281600406791625 210.5272727301036753 #
point $-1 435.4384251766906573 34.62253019333250847 210.5272727301036753 #
coedge $-1 $321 $321 $-1 $412 reversed $201 $-1 #
vertex $-1 $203 $413 #
ellipse-curve $-1 141.6522715726791546 28.54416291528637117 45.47029852179911558 0.5446390421508873203 0 0.8386705633113421543 0.4193352816556710772 0 -0.2723195210754436602 1 I I #
point $-1 142.6162458964857365 28.54416291528637117 46.03664956403500952 #
coedge $-1 $325 $325 $-1 $414 reversed $206 $-1 #
vertex $-1 $208 $415 #
ellipse-curve $-1 141.6522715726791546 32.19118328211405355 45.47029852179911558 0.5446390421508873203 0 0.8386705633113421543 0.4193352816556710772 0 -0.2723195210754436602 1 I I #
point $-1 142.6162458964857365 32.19118328211405355 46.03664956403500952 #
face $-1 $-1 $226 $21 $-1 $416 reversed single #
loop $-1 $-1 $345 $211 #
plane-surface $-1 -123.2927424515127939 76.82214695811669003 113.5901215142189642 0 -1 0 0.8290375806290775085 0 -0.5591928915004963363 forward_v I I I I #
coedge $-1 $417 $343 $346 $418 forward $212 $-1 #
coedge $-1 $349 $214 $215 $337 reversed $127 $-1 #
coedge $-1 $343 $417 $214 $335 reversed $212 $-1 #
edge $-1 $350 -148.7179174169133944 $419 148.7179174169133375 $334 $420 forward 7 unknown #
coedge $-1 $216 $215 $417 $421 forward $79 $-1 #
edge $-1 $341 -297.4358348338267319 $419 297.4358348338267319 $333 $422 forward 7 unknown #
coedge $-1 $346 $345 $216 $339 reversed $330 $-1 #
edge $-1 $423 -297.4358348338267319 $340 297.4358348338267319 $338 $424 forward 7 unknown #
vertex $-1 $218 $425 #
vertex $-1 $352 $426 #
straight-curve $-1 166.324004516591657 69.16023005341652663 277.0136041589487377 0 -1 0 I I #
coedge $-1 $332 $334 $219 $344 reversed $212 $-1 #
edge $-1 $347 -7.6619169047001634 $350 7.6619169047001634 $343 $427 forward 7 unknown #
coedge $-1 $338 $220 $225 $353 forward $330 $-1 #
coedge $-1 $220 $338 $332 $418 reversed $330 $-1 #
vertex $-1 $221 $428 #
straight-curve $-1 -246.5854849030255878 76.82214695811669003 196.7521237725147785 -0.5591928915004963363 0 -0.8290375806290775085 I I #
coedge $-1 $222 $333 $224 $352 reversed $127 $-1 #
vertex $-1 $344 $429 #
straight-curve $-1 -246.5854849030255878 61.49831314871636323 196.7521237725147785 0.5591928915004963363 0 0.8290375806290775085 I I #
edge $-1 $227 -148.7179174169133944 $341 148.7179174169133944 $224 $430 forward 7 unknown #
edge $-1 $228 -148.7179174169133944 $340 148.7179174169133944 $225 $431 forward 7 unknown #
point $-1 -80.26148038643397342 61.49831314871636323 443.3376086755404231 #
point $-1 -80.26148038643397342 76.82214695811669003 443.3376086755404231 #
coedge $-1 $356 $356 $-1 $432 reversed $230 $-1 #
vertex $-1 $232 $433 #
ellipse-curve $-1 8.809429808379242388 65.87655137997360555 39.11982790491001793 -0.8290375806290775085 0 0.5591928915004963363 0.5591928915004963363 0 0.8290375806290775085 1 I I #
point $-1 7.34327834948581426 65.87655137997360555 41.31497745687045864 #
coedge $-1 $360 $360 $-1 $434 reversed $235 $-1 #
vertex $-1 $237 $435 #
ellipse-curve $-1 8.809429808379242388 72.44390872685946192 39.11982790491001793 -0.8290375806290775085 0 0.5591928915004963363 0.5591928915004963363 0 0.8290375806290775085 1 I I #
point $-1 7.34327834948581426 72.44390872685946192 41.31497745687045864 #
plane-surface $-1 148.717917416913366 51.29422441404030764 25.27188024827979262 -1 0 0 0 0 1 forward_v I I I I #
coedge $-1 $245 $243 $247 $369 reversed $145 $-1 #
edge $-1 $258 -25.27188024827979262 $371 25.27188024827979262 $257 $436 forward 7 unknown #
vertex $-1 $369 $437 #
straight-curve $-1 0 0 25.27188024827979262 0 0 -1 I I #
edge $-1 $367 -51.29422441404030764 $371 51.29422441404030764 $365 $438 forward 7 unknown #
straight-curve $-1 74.35895870845668298 0 0 -1 0 0 I I #
vertex $-1 $250 $439 #
straight-curve $-1 74.35895870845668298 102.5884488280806153 0 1 0 0 I I #
point $-1 148.717917416913366 102.5884488280806153 0 #
point $-1 148.717917416913366 0 0 #
straight-curve $-1 0 51.29422441404030764 50.54376049655958525 0 -1 0 I I #
point $-1 0 102.5884488280806153 50.54376049655958525 #
point $-1 0 0 50.54376049655958525 #
straight-curve $-1 148.717917416913366 0 25.27188024827979262 0 0 -1 I I #
straight-curve $-1 148.717917416913366 102.5884488280806153 25.27188024827979262 0 0 -1 I I #
plane-surface $-1 148.717917416913366 13.05640800203395813 6.981986459657656852 -1 0 0 0 0 1 forward_v I I I I #
coedge $-1 $272 $270 $274 $385 reversed $164 $-1 #
edge $-1 $285 -6.981986459657656852 $387 6.981986459657656852 $284 $440 forward 7 unknown #
vertex $-1 $385 $441 #
straight-curve $-1 0 0 6.981986459657656852 0 0 -1 I I #
edge $-1 $383 -13.05640800203395813 $387 13.05640800203395813 $381 $442 forward 7 unknown #
straight-curve $-1 74.35895870845668298 0 0 -1 0 0 I I #
vertex $-1 $277 $443 #
straight-curve $-1 74.35895870845668298 26.11281600406791625 0 1 0 0 I I #
point $-1 148.717917416913366 26.11281600406791625 0 #
point $-1 148.717917416913366 0 0 #
straight-curve $-1 0 13.05640800203395813 13.9639729193153137 0 -1 0 I I #
point $-1 0 26.11281600406791625 13.9639729193153137 #
point $-1 0 0 13.9639729193153137 #
straight-curve $-1 148.717917416913366 0 6.981986459657656852 0 0 -1 I I #
straight-curve $-1 148.717917416913366 26.11281600406791625 6.981986459657656852 0 0 -1 I I #
plane-surface $-1 354.4408410840682109 30.36767309870021236 85.80193315557127676 -0.8386705633113421543 0 0.5446390421508873203 0.5446390421508873203 0 0.8386705633113421543 forward_v I I I I #
coedge $-1 $299 $297 $301 $401 reversed $183 $-1 #
edge $-1 $312 -148.7179174169133944 $403 148.7179174169133375 $311 $444 forward 7 unknown #
vertex $-1 $401 $445 #
straight-curve $-1 -144.4605172140613831 26.11281600406791625 409.7922695260610908 -0.5446390421508873203 0 -0.8386705633113421543 I I #
edge $-1 $399 -4.254857094632296111 $403 4.254857094632296111 $397 $446 forward 7 unknown #
straight-curve $-1 23.99257784238096747 26.11281600406791625 123.0717617662837995 -0.8386705633113421543 0 0.5446390421508873203 I I #
vertex $-1 $304 $447 #
straight-curve $-1 23.99257784238096747 34.62253019333250847 123.0717617662837995 0.8386705633113421543 0 -0.5446390421508873203 I I #
point $-1 273.4432569914457645 34.62253019333250847 -38.92340641896112174 #
point $-1 273.4432569914457645 26.11281600406791625 -38.92340641896112174 #
straight-curve $-1 -63.46293312143892251 30.36767309870021236 534.5176091005935177 0 -1 0 I I #
point $-1 -63.46293312143892251 34.62253019333250847 534.5176091005935177 #
point $-1 -63.46293312143892251 26.11281600406791625 534.5176091005935177 #
straight-curve $-1 354.4408410840682109 26.11281600406791625 85.80193315557127676 -0.5446390421508873203 0 -0.8386705633113421543 I I #
straight-curve $-1 354.4408410840682109 34.62253019333250847 85.80193315557127676 -0.5446390421508873203 0 -0.8386705633113421543 I I #
edge $-1 $448 1 $448 0 $321 $-1 forward 7 unknown #
point $-1 142.0716068543348456 28.54416291528637117 45.19797900072367014 #
edge $-1 $449 1 $449 0 $325 $-1 forward 7 unknown #
point $-1 142.0716068543348456 32.19118328211405355 45.19797900072367014 #
plane-surface $-1 43.03126206507883467 69.16023005341652663 360.1756064172445804 -0.5591928915004963363 0 -0.8290375806290775085 -0.8290375806290775085 0 0.5591928915004963363 forward_v I I I I #
coedge $-1 $334 $332 $336 $421 reversed $212 $-1 #
edge $-1 $347 -148.7179174169133944 $423 148.7179174169133375 $346 $450 forward 7 unknown #
vertex $-1 $421 $451 #
straight-curve $-1 -289.616746968104394 61.49831314871636323 -132.995363388806652 0.8290375806290775085 0 -0.5591928915004963363 I I #
edge $-1 $419 -7.6619169047001634 $423 7.6619169047001634 $417 $452 forward 7 unknown #
straight-curve $-1 1.421085471520200372e-14 61.49831314871636323 30.42811925592314992 -0.5591928915004963363 0 -0.8290375806290775085 I I #
vertex $-1 $339 $453 #
straight-curve $-1 1.421085471520200372e-14 76.82214695811669003 30.42811925592314992 0.5591928915004963363 0 0.8290375806290775085 I I #
point $-1 166.324004516591657 76.82214695811669003 277.0136041589487377 #
point $-1 166.324004516591657 61.49831314871636323 277.0136041589487377 #
straight-curve $-1 -412.9094894196172163 69.16023005341652663 -49.83336113051083771 0 -1 0 I I #
point $-1 -412.9094894196172163 76.82214695811669003 -49.83336113051083771 #
point $-1 -412.9094894196172163 61.49831314871636323 -49.83336113051083771 #
straight-curve $-1 43.03126206507883467 61.49831314871636323 360.1756064172445804 0.8290375806290775085 0 -0.5591928915004963363 I I #
straight-curve $-1 43.03126206507883467 76.82214695811669003 360.1756064172445804 0.8290375806290775085 0 -0.5591928915004963363 I I #
edge $-1 $454 1 $454 0 $356 $-1 forward 7 unknown #
point $-1 9.368622699879738391 65.87655137997360555 39.94886548553909478 #
edge $-1 $455 1 $455 0 $360 $-1 forward 7 unknown #
point $-1 9.368622699879738391 72.44390872685946192 39.94886548553909478 #
straight-curve $-1 0 102.5884488280806153 25.27188024827979262 0 0 -1 I I #
point $-1 0 0 0 #
straight-curve $-1 0 51.29422441404030764 0 0 1 0 I I #
point $-1 0 102.5884488280806153 0 #
straight-curve $-1 0 26.11281600406791625 6.981986459657656852 0 0 -1 I I #
point $-1 0 0 0 #
straight-curve $-1 0 13.05640800203395813 0 0 1 0 I I #
point $-1 0 26.11281600406791625 0 #
straight-curve $-1 -144.4605172140613831 34.62253019333250847 409.7922695260610908 -0.5446390421508873203 0 -0.8386705633113421543 I I #
point $-1 -225.4581013066838295 26.11281600406791625 285.0669299515287207 #
straight-curve $-1 -225.4581013066838295 30.36767309870021236 285.0669299515287207 0 1 0 I I #
point $-1 -225.4581013066838295 34.62253019333250847 285.0669299515287207 #
vertex $-1 $412 $456 #
vertex $-1 $414 $457 #
straight-curve $-1 -289.616746968104394 76.82214695811669003 -132.995363388806652 0.8290375806290775085 0 -0.5591928915004963363 I I #
point $-1 -166.3240045165916285 61.49831314871636323 -216.1573656471024663 #
straight-curve $-1 -166.3240045165916285 69.16023005341652663 -216.1573656471024663 0 1 0 I I #
point $-1 -166.3240045165916285 76.82214695811669003 -216.1573656471024663 #
vertex $-1 $432 $458 #
vertex $-1 $434 $459 #
point $-1 141.3799520516037376 28.54416291528637117 45.05096324014343878 #
point $-1 141.3799520516037376 32.19118328211405355 45.05096324014343878 #
point $-1 9.63846738900831923 65.87655137997360555 38.5606350134095166 #
point $-1 9.63846738900831923 72.44390872685946192 38.5606350134095166 #
End-of-ACIS-data 