300 0 7 0           
7 Unknown 11 ACIS 3.0 NT 24 Fri Oct 30 21:05:10 1998 
-1 9.9999999999999995e-007 1e-010 
body $7 $8 $-1 $9 #
body $10 $11 $-1 $12 #
body $13 $14 $-1 $15 #
body $16 $17 $-1 $18 #
body $19 $20 $-1 $21 #
body $22 $23 $-1 $24 #
body $25 $26 $-1 $27 #
display_attribute-st-attrib $-1 $28 $-1 $0 1 #
lump $-1 $-1 $29 $0 #
transform $-1 1 0 0 0 1 0 0 0 1 42.221747489852596 17.371130169383857 4.8179744283082808 1 rotate no_reflect no_shear #
display_attribute-st-attrib $-1 $30 $-1 $1 1 #
lump $-1 $-1 $31 $1 #
transform $-1 1 0 0 0 1 0 0 0 1 1.8250223055264521 17.371130169383857 8.1359488566165616 1 rotate no_reflect no_shear #
display_attribute-st-attrib $-1 $32 $-1 $2 1 #
lump $-1 $-1 $33 $2 #
transform $-1 1 0 0 0 1 0 0 0 1 82.618472674178747 17.371130169383857 8.1359488566165616 1 rotate no_reflect no_shear #
display_attribute-st-attrib $-1 $34 $-1 $3 1 #
lump $-1 $-1 $35 $3 #
transform $-1 1 0 0 0 0.7313536940579346 -0.68199836817093118 0 0.68199836817093118 0.7313536940579346 28.464165966973461 66.923705678896653 91.533689899840297 1 rotate no_reflect no_shear #
display_attribute-st-attrib $-1 $36 $-1 $4 1 #
lump $-1 $-1 $37 $4 #
transform $-1 1 0 0 0 -0.7313536940579346 0.68199836817093118 0 -0.68199836817093118 -0.7313536940579346 28.464165966973461 31.192117975271678 6.0954286464758596 1 rotate no_reflect no_shear #
display_attribute-st-attrib $-1 $38 $-1 $5 1 #
lump $-1 $-1 $39 $5 #
transform $-1 1 0 0 0 0.7313536940579346 0.68199836817093118 0 -0.68199836817093118 0.7313536940579346 28.464165966973461 -57.590325778809174 67.83952504223106 1 rotate no_reflect no_shear #
display_attribute-st-attrib $-1 $40 $-1 $6 1 #
lump $-1 $-1 $41 $6 #
transform $-1 1 0 0 0 -0.7313536940579346 -0.68199836817093118 0 0.68199836817093118 -0.7313536940579346 28.464165966973461 3.5501423634960361 6.0954286464758614 1 rotate no_reflect no_shear #
id_attribute-st-attrib $-1 $-1 $7 $0 4841 #
shell $-1 $-1 $-1 $42 $-1 $8 #
id_attribute-st-attrib $-1 $-1 $10 $1 4846 #
shell $-1 $-1 $-1 $43 $-1 $11 #
id_attribute-st-attrib $-1 $-1 $13 $2 4854 #
shell $-1 $-1 $-1 $44 $-1 $14 #
id_attribute-st-attrib $-1 $-1 $16 $3 4865 #
shell $-1 $-1 $-1 $45 $-1 $17 #
id_attribute-st-attrib $-1 $-1 $19 $4 4874 #
shell $-1 $-1 $-1 $46 $-1 $20 #
id_attribute-st-attrib $-1 $-1 $22 $5 4887 #
shell $-1 $-1 $-1 $47 $-1 $23 #
id_attribute-st-attrib $-1 $-1 $25 $6 4898 #
shell $-1 $-1 $-1 $48 $-1 $26 #
face $-1 $49 $50 $29 $-1 $51 forward single #
face $-1 $52 $53 $31 $-1 $54 forward single #
face $-1 $55 $56 $33 $-1 $57 forward single #
face $-1 $58 $59 $35 $-1 $60 forward single #
face $-1 $61 $62 $37 $-1 $63 forward single #
face $-1 $64 $65 $39 $-1 $66 forward single #
face $-1 $67 $68 $41 $-1 $69 forward single #
face $-1 $70 $71 $29 $-1 $72 reversed single #
loop $-1 $-1 $73 $42 #
plane-surface $-1 0 0 4.8179744283082808 0 0 1 1 0 0 forward_v I I I I #
face $-1 $74 $75 $31 $-1 $76 reversed single #
loop $-1 $-1 $77 $43 #
plane-surface $-1 0 0 1.5 0 0 1 1 0 0 forward_v I I I I #
face $-1 $78 $79 $33 $-1 $80 reversed single #
loop $-1 $-1 $81 $44 #
plane-surface $-1 0 0 1.5 0 0 1 1 0 0 forward_v I I I I #
face $-1 $82 $83 $35 $-1 $84 reversed single #
loop $-1 $-1 $85 $45 #
plane-surface $-1 0 0 84.443494979705193 0 0 1 1 0 0 forward_v I I I I #
face $-1 $86 $87 $37 $-1 $88 forward single #
loop $-1 $89 $90 $46 #
cone-surface $-1 0 0 -1.4554887539292585 0 0 1 1 0 0 1 I I 0 1 forward I I I I #
face $-1 $91 $92 $39 $-1 $93 reversed single #
loop $-1 $-1 $94 $47 #
plane-surface $-1 0 0 84.443494979705193 0 0 1 1 0 0 forward_v I I I I #
face $-1 $95 $96 $41 $-1 $97 forward single #
loop $-1 $98 $99 $48 #
cone-surface $-1 0 0 -1.4554887539292585 0 0 1 1 0 0 1 I I 0 1 forward I I I I #
face $-1 $100 $101 $29 $-1 $102 reversed single #
loop $-1 $-1 $103 $49 #
plane-surface $-1 0 0 -4.8179744283082808 0 0 1 1 0 0 forward_v I I I I #
coedge $-1 $104 $105 $106 $107 forward $50 $-1 #
face $-1 $108 $109 $31 $-1 $110 reversed single #
loop $-1 $-1 $111 $52 #
plane-surface $-1 0 0 -1.5 0 0 1 1 0 0 forward_v I I I I #
coedge $-1 $112 $113 $114 $115 forward $53 $-1 #
face $-1 $116 $117 $33 $-1 $118 reversed single #
loop $-1 $-1 $119 $55 #
plane-surface $-1 0 0 -1.5 0 0 1 1 0 0 forward_v I I I I #
coedge $-1 $120 $121 $122 $123 forward $56 $-1 #
face $-1 $124 $125 $35 $-1 $126 reversed single #
loop $-1 $-1 $127 $58 #
plane-surface $-1 0 0 -84.443494979705193 0 0 1 1 0 0 forward_v I I I I #
coedge $-1 $128 $129 $130 $131 forward $59 $-1 #
face $-1 $-1 $132 $37 $-1 $133 forward single #
loop $-1 $-1 $134 $61 #
plane-surface $-1 0 0 -2.4109775078585165 0 0 -1 -1 0 0 forward_v I I I I #
loop $-1 $-1 $135 $46 #
coedge $-1 $90 $90 $134 $136 reversed $62 $-1 #
face $-1 $137 $138 $39 $-1 $139 reversed single #
loop $-1 $-1 $140 $64 #
plane-surface $-1 0 0 -84.443494979705193 0 0 1 1 0 0 forward_v I I I I #
coedge $-1 $141 $142 $143 $144 forward $65 $-1 #
face $-1 $-1 $145 $41 $-1 $146 forward single #
loop $-1 $-1 $147 $67 #
plane-surface $-1 0 0 -2.4109775078585165 0 0 -1 -1 0 0 forward_v I I I I #
loop $-1 $-1 $148 $48 #
coedge $-1 $99 $99 $147 $149 reversed $68 $-1 #
face $-1 $150 $151 $29 $-1 $152 reversed single #
loop $-1 $-1 $153 $70 #
plane-surface $-1 0 -17.371130169383857 0 0 1 0 0 0 1 forward_v I I I I #
coedge $-1 $154 $155 $156 $157 forward $71 $-1 #
coedge $-1 $158 $73 $159 $160 forward $50 $-1 #
coedge $-1 $73 $158 $161 $162 forward $50 $-1 #
coedge $-1 $163 $164 $73 $107 reversed $165 $-1 #
edge $-1 $166 $167 $106 $168 forward #
face $-1 $169 $170 $31 $-1 $171 reversed single #
loop $-1 $-1 $172 $74 #
plane-surface $-1 0 -17.371130169383857 0 0 1 0 0 0 1 forward_v I I I I #
coedge $-1 $173 $174 $175 $176 forward $75 $-1 #
coedge $-1 $177 $77 $178 $179 forward $53 $-1 #
coedge $-1 $77 $177 $180 $181 forward $53 $-1 #
coedge $-1 $182 $183 $77 $115 reversed $184 $-1 #
edge $-1 $185 $186 $114 $187 forward #
face $-1 $188 $189 $33 $-1 $190 reversed single #
loop $-1 $-1 $191 $78 #
plane-surface $-1 0 -17.371130169383857 0 0 1 0 0 0 1 forward_v I I I I #
coedge $-1 $192 $193 $194 $195 forward $79 $-1 #
coedge $-1 $196 $81 $197 $198 forward $56 $-1 #
coedge $-1 $81 $196 $199 $200 forward $56 $-1 #
coedge $-1 $201 $202 $81 $123 reversed $203 $-1 #
edge $-1 $204 $205 $122 $206 forward #
face $-1 $207 $208 $35 $-1 $209 reversed single #
loop $-1 $-1 $210 $82 #
plane-surface $-1 0 -168.88698995941039 0 0 1 0 0 0 1 forward_v I I I I #
coedge $-1 $211 $212 $213 $214 forward $83 $-1 #
coedge $-1 $215 $85 $216 $217 forward $59 $-1 #
coedge $-1 $85 $215 $218 $219 forward $59 $-1 #
coedge $-1 $220 $221 $85 $131 reversed $222 $-1 #
edge $-1 $223 $224 $130 $225 forward #
loop $-1 $226 $227 $86 #
cone-surface $-1 0 0 0 0 0 1 0.5 0 0 1 I I -0.70710678118654746 0.70710678118654746 forward I I I I #
coedge $-1 $134 $134 $90 $136 forward $87 $-1 #
coedge $-1 $135 $135 $227 $228 forward $89 $-1 #
edge $-1 $229 $229 $134 $230 forward #
face $-1 $231 $232 $39 $-1 $233 reversed single #
loop $-1 $-1 $234 $91 #
plane-surface $-1 0 -168.88698995941039 0 0 1 0 0 0 1 forward_v I I I I #
coedge $-1 $235 $236 $237 $238 forward $92 $-1 #
coedge $-1 $239 $94 $240 $241 forward $65 $-1 #
coedge $-1 $94 $239 $242 $243 forward $65 $-1 #
coedge $-1 $244 $245 $94 $144 reversed $246 $-1 #
edge $-1 $247 $248 $143 $249 forward #
loop $-1 $250 $251 $95 #
cone-surface $-1 0 0 0 0 0 1 0.5 0 0 1 I I -0.70710678118654746 0.70710678118654746 forward I I I I #
coedge $-1 $147 $147 $99 $149 forward $96 $-1 #
coedge $-1 $148 $148 $251 $252 forward $98 $-1 #
edge $-1 $253 $253 $147 $254 forward #
face $-1 $255 $256 $29 $-1 $257 reversed single #
loop $-1 $-1 $258 $100 #
plane-surface $-1 -42.221747489852596 0 0 1 0 0 0 0 -1 forward_v I I I I #
coedge $-1 $259 $161 $260 $261 forward $101 $-1 #
coedge $-1 $262 $103 $259 $263 forward $71 $-1 #
coedge $-1 $103 $262 $264 $265 forward $71 $-1 #
coedge $-1 $164 $163 $103 $157 reversed $165 $-1 #
edge $-1 $266 $267 $156 $268 forward #
coedge $-1 $105 $104 $269 $270 forward $50 $-1 #
coedge $-1 $271 $272 $104 $160 reversed $256 $-1 #
edge $-1 $167 $273 $159 $274 forward #
coedge $-1 $153 $275 $105 $162 reversed $101 $-1 #
edge $-1 $276 $166 $161 $277 forward #
coedge $-1 $156 $106 $275 $278 forward $165 $-1 #
coedge $-1 $106 $156 $271 $279 reversed $165 $-1 #
loop $-1 $-1 $163 $255 #
vertex $-1 $107 $280 #
vertex $-1 $107 $281 #
straight-curve $-1 42.221747489852596 0 4.8179744283082808 0 1 0 I I #
face $-1 $282 $283 $31 $-1 $284 reversed single #
loop $-1 $-1 $285 $108 #
plane-surface $-1 -1.8250223055264521 0 0 1 0 0 0 0 -1 forward_v I I I I #
coedge $-1 $286 $180 $287 $288 forward $109 $-1 #
coedge $-1 $289 $111 $286 $290 forward $75 $-1 #
coedge $-1 $111 $289 $291 $292 forward $75 $-1 #
coedge $-1 $183 $182 $111 $176 reversed $184 $-1 #
edge $-1 $293 $294 $175 $295 forward #
coedge $-1 $113 $112 $296 $297 forward $53 $-1 #
coedge $-1 $298 $299 $112 $179 reversed $283 $-1 #
edge $-1 $186 $300 $178 $301 forward #
coedge $-1 $172 $302 $113 $181 reversed $109 $-1 #
edge $-1 $303 $185 $180 $304 forward #
coedge $-1 $175 $114 $302 $305 forward $184 $-1 #
coedge $-1 $114 $175 $298 $306 reversed $184 $-1 #
loop $-1 $-1 $182 $282 #
vertex $-1 $115 $307 #
vertex $-1 $115 $308 #
straight-curve $-1 1.8250223055264521 0 1.5 0 1 0 I I #
face $-1 $309 $310 $33 $-1 $311 reversed single #
loop $-1 $-1 $312 $116 #
plane-surface $-1 -1.8250223055264527 0 0 1 0 0 0 0 -1 forward_v I I I I #
coedge $-1 $313 $199 $314 $315 forward $117 $-1 #
coedge $-1 $316 $119 $313 $317 forward $79 $-1 #
coedge $-1 $119 $316 $318 $319 forward $79 $-1 #
coedge $-1 $202 $201 $119 $195 reversed $203 $-1 #
edge $-1 $320 $321 $194 $322 forward #
coedge $-1 $121 $120 $323 $324 forward $56 $-1 #
coedge $-1 $325 $326 $120 $198 reversed $310 $-1 #
edge $-1 $205 $327 $197 $328 forward #
coedge $-1 $191 $329 $121 $200 reversed $117 $-1 #
edge $-1 $330 $204 $199 $331 forward #
coedge $-1 $194 $122 $329 $332 forward $203 $-1 #
coedge $-1 $122 $194 $325 $333 reversed $203 $-1 #
loop $-1 $-1 $201 $309 #
vertex $-1 $123 $334 #
vertex $-1 $123 $335 #
straight-curve $-1 1.8250223055264527 0 1.5 0 1 0 I I #
face $-1 $336 $337 $35 $-1 $338 reversed single #
loop $-1 $-1 $339 $124 #
plane-surface $-1 -8.3564763806973801 0 0 1 0 0 0 0 -1 forward_v I I I I #
coedge $-1 $340 $218 $341 $342 forward $125 $-1 #
coedge $-1 $343 $127 $340 $344 forward $83 $-1 #
coedge $-1 $127 $343 $345 $346 forward $83 $-1 #
coedge $-1 $221 $220 $127 $214 reversed $222 $-1 #
edge $-1 $347 $348 $213 $349 forward #
coedge $-1 $129 $128 $350 $351 forward $59 $-1 #
coedge $-1 $352 $353 $128 $217 reversed $337 $-1 #
edge $-1 $224 $354 $216 $355 forward #
coedge $-1 $210 $356 $129 $219 reversed $125 $-1 #
edge $-1 $357 $223 $218 $358 forward #
coedge $-1 $213 $130 $356 $359 forward $222 $-1 #
coedge $-1 $130 $213 $352 $360 reversed $222 $-1 #
loop $-1 $-1 $220 $336 #
vertex $-1 $131 $361 #
vertex $-1 $131 $362 #
straight-curve $-1 8.3564763806973801 0 84.443494979705193 0 1 0 I I #
loop $-1 $-1 $363 $86 #
coedge $-1 $227 $227 $135 $228 reversed $132 $-1 #
edge $-1 $364 $364 $227 $365 forward #
vertex $-1 $136 $366 #
ellipse-curve $-1 0 0 -2.4109775078585165 0 0 -1 1 0 0 1 I I #
face $-1 $367 $368 $39 $-1 $369 reversed single #
loop $-1 $-1 $370 $137 #
plane-surface $-1 -8.3564763806973801 0 0 1 0 0 0 0 -1 forward_v I I I I #
coedge $-1 $371 $242 $372 $373 forward $138 $-1 #
coedge $-1 $374 $140 $371 $375 forward $92 $-1 #
coedge $-1 $140 $374 $376 $377 forward $92 $-1 #
coedge $-1 $245 $244 $140 $238 reversed $246 $-1 #
edge $-1 $378 $379 $237 $380 forward #
coedge $-1 $142 $141 $381 $382 forward $65 $-1 #
coedge $-1 $383 $384 $141 $241 reversed $368 $-1 #
edge $-1 $248 $385 $240 $386 forward #
coedge $-1 $234 $387 $142 $243 reversed $138 $-1 #
edge $-1 $388 $247 $242 $389 forward #
coedge $-1 $237 $143 $387 $390 forward $246 $-1 #
coedge $-1 $143 $237 $383 $391 reversed $246 $-1 #
loop $-1 $-1 $244 $367 #
vertex $-1 $144 $392 #
vertex $-1 $144 $393 #
straight-curve $-1 8.3564763806973801 0 84.443494979705193 0 1 0 I I #
loop $-1 $-1 $394 $95 #
coedge $-1 $251 $251 $148 $252 reversed $145 $-1 #
edge $-1 $395 $395 $251 $396 forward #
vertex $-1 $149 $397 #
ellipse-curve $-1 0 0 -2.4109775078585165 0 0 -1 1 0 0 1 I I #
face $-1 $-1 $165 $29 $-1 $398 reversed single #
loop $-1 $-1 $271 $150 #
plane-surface $-1 0 17.371130169383857 0 0 -1 0 0 0 -1 forward_v I I I I #
coedge $-1 $399 $269 $272 $400 forward $151 $-1 #
coedge $-1 $275 $153 $154 $263 reversed $101 $-1 #
coedge $-1 $269 $399 $153 $261 reversed $151 $-1 #
edge $-1 $276 $401 $260 $402 forward #
coedge $-1 $155 $154 $399 $403 forward $71 $-1 #
edge $-1 $267 $401 $259 $404 forward #
coedge $-1 $272 $271 $155 $265 reversed $256 $-1 #
edge $-1 $405 $266 $264 $406 forward #
vertex $-1 $157 $407 #
vertex $-1 $278 $408 #
straight-curve $-1 42.221747489852596 0 -4.8179744283082808 0 -1 0 I I #
coedge $-1 $258 $260 $158 $270 reversed $151 $-1 #
edge $-1 $273 $276 $269 $409 forward #
coedge $-1 $264 $159 $164 $279 forward $256 $-1 #
coedge $-1 $159 $264 $258 $400 reversed $256 $-1 #
vertex $-1 $160 $410 #
straight-curve $-1 0 17.371130169383857 4.8179744283082808 -1 0 0 I I #
coedge $-1 $161 $259 $163 $278 reversed $101 $-1 #
vertex $-1 $270 $411 #
straight-curve $-1 0 -17.371130169383857 4.8179744283082808 1 0 0 I I #
edge $-1 $166 $267 $163 $412 forward #
edge $-1 $167 $266 $164 $413 forward #
point $-1 42.221747489852596 -17.371130169383857 4.8179744283082808 #
point $-1 42.221747489852596 17.371130169383857 4.8179744283082808 #
face $-1 $-1 $184 $31 $-1 $414 reversed single #
loop $-1 $-1 $298 $169 #
plane-surface $-1 0 17.371130169383857 0 0 -1 0 0 0 -1 forward_v I I I I #
coedge $-1 $415 $296 $299 $416 forward $170 $-1 #
coedge $-1 $302 $172 $173 $290 reversed $109 $-1 #
coedge $-1 $296 $415 $172 $288 reversed $170 $-1 #
edge $-1 $303 $417 $287 $418 forward #
coedge $-1 $174 $173 $415 $419 forward $75 $-1 #
edge $-1 $294 $417 $286 $420 forward #
coedge $-1 $299 $298 $174 $292 reversed $283 $-1 #
edge $-1 $421 $293 $291 $422 forward #
vertex $-1 $176 $423 #
vertex $-1 $305 $424 #
straight-curve $-1 1.8250223055264521 0 -1.5 0 -1 0 I I #
coedge $-1 $285 $287 $177 $297 reversed $170 $-1 #
edge $-1 $300 $303 $296 $425 forward #
coedge $-1 $291 $178 $183 $306 forward $283 $-1 #
coedge $-1 $178 $291 $285 $416 reversed $283 $-1 #
vertex $-1 $179 $426 #
straight-curve $-1 0 17.371130169383857 1.5 -1 0 0 I I #
coedge $-1 $180 $286 $182 $305 reversed $109 $-1 #
vertex $-1 $297 $427 #
straight-curve $-1 0 -17.371130169383857 1.5 1 0 0 I I #
edge $-1 $185 $294 $182 $428 forward #
edge $-1 $186 $293 $183 $429 forward #
point $-1 1.8250223055264521 -17.371130169383857 1.5 #
point $-1 1.8250223055264521 17.371130169383857 1.5 #
face $-1 $-1 $203 $33 $-1 $430 reversed single #
loop $-1 $-1 $325 $188 #
plane-surface $-1 0 17.371130169383857 0 0 -1 0 0 0 -1 forward_v I I I I #
coedge $-1 $431 $323 $326 $432 forward $189 $-1 #
coedge $-1 $329 $191 $192 $317 reversed $117 $-1 #
coedge $-1 $323 $431 $191 $315 reversed $189 $-1 #
edge $-1 $330 $433 $314 $434 forward #
coedge $-1 $193 $192 $431 $435 forward $79 $-1 #
edge $-1 $321 $433 $313 $436 forward #
coedge $-1 $326 $325 $193 $319 reversed $310 $-1 #
edge $-1 $437 $320 $318 $438 forward #
vertex $-1 $195 $439 #
vertex $-1 $332 $440 #
straight-curve $-1 1.8250223055264527 0 -1.5 0 -1 0 I I #
coedge $-1 $312 $314 $196 $324 reversed $189 $-1 #
edge $-1 $327 $330 $323 $441 forward #
coedge $-1 $318 $197 $202 $333 forward $310 $-1 #
coedge $-1 $197 $318 $312 $432 reversed $310 $-1 #
vertex $-1 $198 $442 #
straight-curve $-1 0 17.371130169383857 1.5 -1 0 0 I I #
coedge $-1 $199 $313 $201 $332 reversed $117 $-1 #
vertex $-1 $324 $443 #
straight-curve $-1 0 -17.371130169383857 1.5 1 0 0 I I #
edge $-1 $204 $321 $201 $444 forward #
edge $-1 $205 $320 $202 $445 forward #
point $-1 1.8250223055264527 -17.371130169383857 1.5 #
point $-1 1.8250223055264527 17.371130169383857 1.5 #
face $-1 $-1 $222 $35 $-1 $446 reversed single #
loop $-1 $-1 $352 $207 #
plane-surface $-1 0 168.88698995941039 0 0 -1 0 0 0 -1 forward_v I I I I #
coedge $-1 $447 $350 $353 $448 forward $208 $-1 #
coedge $-1 $356 $210 $211 $344 reversed $125 $-1 #
coedge $-1 $350 $447 $210 $342 reversed $208 $-1 #
edge $-1 $357 $449 $341 $450 forward #
coedge $-1 $212 $211 $447 $451 forward $83 $-1 #
edge $-1 $348 $449 $340 $452 forward #
coedge $-1 $353 $352 $212 $346 reversed $337 $-1 #
edge $-1 $453 $347 $345 $454 forward #
vertex $-1 $214 $455 #
vertex $-1 $359 $456 #
straight-curve $-1 8.3564763806973801 0 -84.443494979705193 0 -1 0 I I #
coedge $-1 $339 $341 $215 $351 reversed $208 $-1 #
edge $-1 $354 $357 $350 $457 forward #
coedge $-1 $345 $216 $221 $360 forward $337 $-1 #
coedge $-1 $216 $345 $339 $448 reversed $337 $-1 #
vertex $-1 $217 $458 #
straight-curve $-1 0 168.88698995941039 84.443494979705193 -1 0 0 I I #
coedge $-1 $218 $340 $220 $359 reversed $125 $-1 #
vertex $-1 $351 $459 #
straight-curve $-1 0 -168.88698995941039 84.443494979705193 1 0 0 I I #
edge $-1 $223 $348 $220 $460 forward #
edge $-1 $224 $347 $221 $461 forward #
point $-1 8.3564763806973801 -168.88698995941039 84.443494979705193 #
point $-1 8.3564763806973801 168.88698995941039 84.443494979705193 #
coedge $-1 $363 $363 $-1 $462 reversed $226 $-1 #
vertex $-1 $228 $463 #
ellipse-curve $-1 0 0 -0.5 0 0 -1 1 0 0 1 I I #
point $-1 1 0 -2.4109775078585165 #
face $-1 $-1 $246 $39 $-1 $464 reversed single #
loop $-1 $-1 $383 $231 #
plane-surface $-1 0 168.88698995941039 0 0 -1 0 0 0 -1 forward_v I I I I #
coedge $-1 $465 $381 $384 $466 forward $232 $-1 #
coedge $-1 $387 $234 $235 $375 reversed $138 $-1 #
coedge $-1 $381 $465 $234 $373 reversed $232 $-1 #
edge $-1 $388 $467 $372 $468 forward #
coedge $-1 $236 $235 $465 $469 forward $92 $-1 #
edge $-1 $379 $467 $371 $470 forward #
coedge $-1 $384 $383 $236 $377 reversed $368 $-1 #
edge $-1 $471 $378 $376 $472 forward #
vertex $-1 $238 $473 #
vertex $-1 $390 $474 #
straight-curve $-1 8.3564763806973801 0 -84.443494979705193 0 -1 0 I I #
coedge $-1 $370 $372 $239 $382 reversed $232 $-1 #
edge $-1 $385 $388 $381 $475 forward #
coedge $-1 $376 $240 $245 $391 forward $368 $-1 #
coedge $-1 $240 $376 $370 $466 reversed $368 $-1 #
vertex $-1 $241 $476 #
straight-curve $-1 0 168.88698995941039 84.443494979705193 -1 0 0 I I #
coedge $-1 $242 $371 $244 $390 reversed $138 $-1 #
vertex $-1 $382 $477 #
straight-curve $-1 0 -168.88698995941039 84.443494979705193 1 0 0 I I #
edge $-1 $247 $379 $244 $478 forward #
edge $-1 $248 $378 $245 $479 forward #
point $-1 8.3564763806973801 -168.88698995941039 84.443494979705193 #
point $-1 8.3564763806973801 168.88698995941039 84.443494979705193 #
coedge $-1 $394 $394 $-1 $480 reversed $250 $-1 #
vertex $-1 $252 $481 #
ellipse-curve $-1 0 0 -0.5 0 0 -1 1 0 0 1 I I #
point $-1 1 0 -2.4109775078585165 #
plane-surface $-1 42.221747489852596 0 0 -1 0 0 0 0 1 forward_v I I I I #
coedge $-1 $260 $258 $262 $403 reversed $151 $-1 #
edge $-1 $273 $405 $272 $482 forward #
vertex $-1 $403 $483 #
straight-curve $-1 -42.221747489852596 -17.371130169383857 0 0 0 -1 I I #
edge $-1 $401 $405 $399 $484 forward #
straight-curve $-1 0 -17.371130169383857 -4.8179744283082808 -1 0 0 I I #
vertex $-1 $265 $485 #
straight-curve $-1 0 17.371130169383857 -4.8179744283082808 1 0 0 I I #
point $-1 42.221747489852596 17.371130169383857 -4.8179744283082808 #
point $-1 42.221747489852596 -17.371130169383857 -4.8179744283082808 #
straight-curve $-1 -42.221747489852596 0 4.8179744283082808 0 -1 0 I I #
point $-1 -42.221747489852596 17.371130169383857 4.8179744283082808 #
point $-1 -42.221747489852596 -17.371130169383857 4.8179744283082808 #
straight-curve $-1 42.221747489852596 -17.371130169383857 0 0 0 -1 I I #
straight-curve $-1 42.221747489852596 17.371130169383857 0 0 0 -1 I I #
plane-surface $-1 1.8250223055264521 0 0 -1 0 0 0 0 1 forward_v I I I I #
coedge $-1 $287 $285 $289 $419 reversed $170 $-1 #
edge $-1 $300 $421 $299 $486 forward #
vertex $-1 $419 $487 #
straight-curve $-1 -1.8250223055264521 -17.371130169383857 0 0 0 -1 I I #
edge $-1 $417 $421 $415 $488 forward #
straight-curve $-1 0 -17.371130169383857 -1.5 -1 0 0 I I #
vertex $-1 $292 $489 #
straight-curve $-1 0 17.371130169383857 -1.5 1 0 0 I I #
point $-1 1.8250223055264521 17.371130169383857 -1.5 #
point $-1 1.8250223055264521 -17.371130169383857 -1.5 #
straight-curve $-1 -1.8250223055264521 0 1.5 0 -1 0 I I #
point $-1 -1.8250223055264521 17.371130169383857 1.5 #
point $-1 -1.8250223055264521 -17.371130169383857 1.5 #
straight-curve $-1 1.8250223055264521 -17.371130169383857 0 0 0 -1 I I #
straight-curve $-1 1.8250223055264521 17.371130169383857 0 0 0 -1 I I #
plane-surface $-1 1.8250223055264527 0 0 -1 0 0 0 0 1 forward_v I I I I #
coedge $-1 $314 $312 $316 $435 reversed $189 $-1 #
edge $-1 $327 $437 $326 $490 forward #
vertex $-1 $435 $491 #
straight-curve $-1 -1.8250223055264527 -17.371130169383857 0 0 0 -1 I I #
edge $-1 $433 $437 $431 $492 forward #
straight-curve $-1 0 -17.371130169383857 -1.5 -1 0 0 I I #
vertex $-1 $319 $493 #
straight-curve $-1 0 17.371130169383857 -1.5 1 0 0 I I #
point $-1 1.8250223055264527 17.371130169383857 -1.5 #
point $-1 1.8250223055264527 -17.371130169383857 -1.5 #
straight-curve $-1 -1.8250223055264527 0 1.5 0 -1 0 I I #
point $-1 -1.8250223055264527 17.371130169383857 1.5 #
point $-1 -1.8250223055264527 -17.371130169383857 1.5 #
straight-curve $-1 1.8250223055264527 -17.371130169383857 0 0 0 -1 I I #
straight-curve $-1 1.8250223055264527 17.371130169383857 0 0 0 -1 I I #
plane-surface $-1 8.3564763806973801 0 0 -1 0 0 0 0 1 forward_v I I I I #
coedge $-1 $341 $339 $343 $451 reversed $208 $-1 #
edge $-1 $354 $453 $353 $494 forward #
vertex $-1 $451 $495 #
straight-curve $-1 -8.3564763806973801 -168.88698995941039 0 0 0 -1 I I #
edge $-1 $449 $453 $447 $496 forward #
straight-curve $-1 0 -168.88698995941039 -84.443494979705193 -1 0 0 I I #
vertex $-1 $346 $497 #
straight-curve $-1 0 168.88698995941039 -84.443494979705193 1 0 0 I I #
point $-1 8.3564763806973801 168.88698995941039 -84.443494979705193 #
point $-1 8.3564763806973801 -168.88698995941039 -84.443494979705193 #
straight-curve $-1 -8.3564763806973801 0 84.443494979705193 0 -1 0 I I #
point $-1 -8.3564763806973801 168.88698995941039 84.443494979705193 #
point $-1 -8.3564763806973801 -168.88698995941039 84.443494979705193 #
straight-curve $-1 8.3564763806973801 -168.88698995941039 0 0 0 -1 I I #
straight-curve $-1 8.3564763806973801 168.88698995941039 0 0 0 -1 I I #
edge $-1 $498 $498 $363 $-1 forward #
point $-1 1 0 -0.5 #
plane-surface $-1 8.3564763806973801 0 0 -1 0 0 0 0 1 forward_v I I I I #
coedge $-1 $372 $370 $374 $469 reversed $232 $-1 #
edge $-1 $385 $471 $384 $499 forward #
vertex $-1 $469 $500 #
straight-curve $-1 -8.3564763806973801 -168.88698995941039 0 0 0 -1 I I #
edge $-1 $467 $471 $465 $501 forward #
straight-curve $-1 0 -168.88698995941039 -84.443494979705193 -1 0 0 I I #
vertex $-1 $377 $502 #
straight-curve $-1 0 168.88698995941039 -84.443494979705193 1 0 0 I I #
point $-1 8.3564763806973801 168.88698995941039 -84.443494979705193 #
point $-1 8.3564763806973801 -168.88698995941039 -84.443494979705193 #
straight-curve $-1 -8.3564763806973801 0 84.443494979705193 0 -1 0 I I #
point $-1 -8.3564763806973801 168.88698995941039 84.443494979705193 #
point $-1 -8.3564763806973801 -168.88698995941039 84.443494979705193 #
straight-curve $-1 8.3564763806973801 -168.88698995941039 0 0 0 -1 I I #
straight-curve $-1 8.3564763806973801 168.88698995941039 0 0 0 -1 I I #
edge $-1 $503 $503 $394 $-1 forward #
point $-1 1 0 -0.5 #
straight-curve $-1 -42.221747489852596 17.371130169383857 0 0 0 -1 I I #
point $-1 -42.221747489852596 -17.371130169383857 -4.8179744283082808 #
straight-curve $-1 -42.221747489852596 0 -4.8179744283082808 0 1 0 I I #
point $-1 -42.221747489852596 17.371130169383857 -4.8179744283082808 #
straight-curve $-1 -1.8250223055264521 17.371130169383857 0 0 0 -1 I I #
point $-1 -1.8250223055264521 -17.371130169383857 -1.5 #
straight-curve $-1 -1.8250223055264521 0 -1.5 0 1 0 I I #
point $-1 -1.8250223055264521 17.371130169383857 -1.5 #
straight-curve $-1 -1.8250223055264527 17.371130169383857 0 0 0 -1 I I #
point $-1 -1.8250223055264527 -17.371130169383857 -1.5 #
straight-curve $-1 -1.8250223055264527 0 -1.5 0 1 0 I I #
point $-1 -1.8250223055264527 17.371130169383857 -1.5 #
straight-curve $-1 -8.3564763806973801 168.88698995941039 0 0 0 -1 I I #
point $-1 -8.3564763806973801 -168.88698995941039 -84.443494979705193 #
straight-curve $-1 -8.3564763806973801 0 -84.443494979705193 0 1 0 I I #
point $-1 -8.3564763806973801 168.88698995941039 -84.443494979705193 #
vertex $-1 $462 $504 #
straight-curve $-1 -8.3564763806973801 168.88698995941039 0 0 0 -1 I I #
point $-1 -8.3564763806973801 -168.88698995941039 -84.443494979705193 #
straight-curve $-1 -8.3564763806973801 0 -84.443494979705193 0 1 0 I I #
point $-1 -8.3564763806973801 168.88698995941039 -84.443494979705193 #
vertex $-1 $480 $505 #
point $-1 0 0 0.5 #
point $-1 0 0 0.5 #
End-of-ACIS-data 