300 0 14 0           
7 Unknown 11 ACIS 3.0 NT 24 Fri Oct 30 14:19:30 1998 
-1 9.9999999999999995e-007 1e-010 
body $14 $15 $-1 $16 #
body $17 $18 $-1 $19 #
body $20 $21 $-1 $22 #
body $23 $24 $-1 $25 #
body $26 $27 $-1 $28 #
body $29 $30 $-1 $31 #
body $32 $33 $-1 $34 #
body $35 $36 $-1 $37 #
body $38 $39 $-1 $40 #
body $41 $42 $-1 $43 #
body $44 $45 $-1 $46 #
body $47 $48 $-1 $49 #
body $50 $51 $-1 $52 #
body $53 $54 $-1 $55 #
display_attribute-st-attrib $-1 $56 $-1 $0 1 #
lump $-1 $-1 $57 $0 #
transform $-1 1 0 0 0 1 0 0 0 1 50.097964415417948 22.734357483794632 5.7749306033697394 1 rotate no_reflect no_shear #
display_attribute-st-attrib $-1 $58 $-1 $1 3 #
lump $-1 $-1 $59 $1 #
transform $-1 1 0 0 0 1 0 0 0 1 50.097964415417948 22.734357483794632 5.7749306033697394 1 rotate no_reflect no_shear #
display_attribute-st-attrib $-1 $60 $-1 $2 3 #
lump $-1 $-1 $61 $2 #
transform $-1 1 0 0 0 1 0 0 0 1 50.097964415417948 22.734357483794632 5.7749306033697394 1 rotate no_reflect no_shear #
display_attribute-st-attrib $-1 $62 $-1 $3 3 #
lump $-1 $-1 $63 $3 #
transform $-1 1 0 0 0 1 0 0 0 1 50.097964415417948 22.734357483794632 5.7749306033697394 1 rotate no_reflect no_shear #
display_attribute-st-attrib $-1 $64 $-1 $4 3 #
lump $-1 $-1 $65 $4 #
transform $-1 1 0 0 0 1 0 0 0 1 50.097964415417948 22.734357483794632 5.7749306033697394 1 rotate no_reflect no_shear #
display_attribute-st-attrib $-1 $66 $-1 $5 3 #
lump $-1 $-1 $67 $5 #
transform $-1 1 0 0 0 1 0 0 0 1 50.097964415417948 22.734357483794632 5.7749306033697394 1 rotate no_reflect no_shear #
display_attribute-st-attrib $-1 $68 $-1 $6 3 #
lump $-1 $-1 $69 $6 #
transform $-1 1 0 0 0 1 0 0 0 1 50.097964415417948 22.734357483794632 5.7749306033697394 1 rotate no_reflect no_shear #
display_attribute-st-attrib $-1 $70 $-1 $7 3 #
lump $-1 $-1 $71 $7 #
transform $-1 1 0 0 0 1 0 0 0 1 50.097964415417948 22.734357483794632 5.7749306033697394 1 rotate no_reflect no_shear #
display_attribute-st-attrib $-1 $72 $-1 $8 3 #
lump $-1 $-1 $73 $8 #
transform $-1 1 0 0 0 1 0 0 0 1 50.097964415417948 22.734357483794632 5.7749306033697394 1 rotate no_reflect no_shear #
display_attribute-st-attrib $-1 $74 $-1 $9 3 #
lump $-1 $-1 $75 $9 #
transform $-1 1 0 0 0 1 0 0 0 1 50.097964415417948 22.734357483794632 5.7749306033697394 1 rotate no_reflect no_shear #
display_attribute-st-attrib $-1 $76 $-1 $10 3 #
lump $-1 $-1 $77 $10 #
transform $-1 1 0 0 0 1 0 0 0 1 50.097964415417948 22.734357483794632 5.7749306033697394 1 rotate no_reflect no_shear #
display_attribute-st-attrib $-1 $78 $-1 $11 3 #
lump $-1 $-1 $79 $11 #
transform $-1 1 0 0 0 1 0 0 0 1 50.097964415417948 22.734357483794632 5.7749306033697394 1 rotate no_reflect no_shear #
display_attribute-st-attrib $-1 $80 $-1 $12 3 #
lump $-1 $-1 $81 $12 #
transform $-1 1 0 0 0 1 0 0 0 1 50.097964415417948 22.734357483794632 5.7749306033697394 1 rotate no_reflect no_shear #
display_attribute-st-attrib $-1 $82 $-1 $13 3 #
lump $-1 $-1 $83 $13 #
transform $-1 1 0 0 0 1 0 0 0 1 50.097964415417948 22.734357483794632 5.7749306033697394 1 rotate no_reflect no_shear #
id_attribute-st-attrib $-1 $-1 $14 $0 1115 #
shell $-1 $-1 $-1 $84 $-1 $15 #
id_attribute-st-attrib $-1 $-1 $17 $1 1120 #
shell $-1 $-1 $-1 $85 $-1 $18 #
id_attribute-st-attrib $-1 $-1 $20 $2 1135 #
shell $-1 $-1 $-1 $86 $-1 $21 #
id_attribute-st-attrib $-1 $-1 $23 $3 1143 #
shell $-1 $-1 $-1 $87 $-1 $24 #
id_attribute-st-attrib $-1 $-1 $26 $4 1152 #
shell $-1 $-1 $-1 $88 $-1 $27 #
id_attribute-st-attrib $-1 $-1 $29 $5 1165 #
shell $-1 $-1 $-1 $89 $-1 $30 #
id_attribute-st-attrib $-1 $-1 $32 $6 1176 #
shell $-1 $-1 $-1 $90 $-1 $33 #
id_attribute-st-attrib $-1 $-1 $35 $7 1188 #
shell $-1 $-1 $-1 $91 $-1 $36 #
id_attribute-st-attrib $-1 $-1 $38 $8 1204 #
shell $-1 $-1 $-1 $92 $-1 $39 #
id_attribute-st-attrib $-1 $-1 $41 $9 1218 #
shell $-1 $-1 $-1 $93 $-1 $42 #
id_attribute-st-attrib $-1 $-1 $44 $10 1233 #
shell $-1 $-1 $-1 $94 $-1 $45 #
id_attribute-st-attrib $-1 $-1 $47 $11 1249 #
shell $-1 $-1 $-1 $95 $-1 $48 #
id_attribute-st-attrib $-1 $-1 $50 $12 1266 #
shell $-1 $-1 $-1 $96 $-1 $51 #
id_attribute-st-attrib $-1 $-1 $53 $13 1284 #
shell $-1 $-1 $-1 $97 $-1 $54 #
face $-1 $98 $99 $57 $-1 $100 forward single #
face $-1 $101 $102 $59 $-1 $103 forward single #
face $-1 $104 $105 $61 $-1 $106 reversed single #
face $-1 $107 $108 $63 $-1 $109 forward single #
face $-1 $110 $111 $65 $-1 $112 forward single #
face $-1 $113 $114 $67 $-1 $115 reversed single #
face $-1 $116 $117 $69 $-1 $118 forward single #
face $-1 $119 $120 $71 $-1 $121 forward single #
face $-1 $122 $123 $73 $-1 $124 reversed single #
face $-1 $125 $126 $75 $-1 $127 forward single #
face $-1 $128 $129 $77 $-1 $130 forward single #
face $-1 $131 $132 $79 $-1 $133 reversed single #
face $-1 $134 $135 $81 $-1 $136 forward single #
face $-1 $137 $138 $83 $-1 $139 forward single #
face $-1 $140 $141 $57 $-1 $142 reversed single #
loop $-1 $-1 $143 $84 #
plane-surface $-1 0 0 5.7749306033697394 0 0 1 1 0 0 forward_v I I I I #
face $-1 $144 $145 $59 $-1 $146 reversed single #
loop $-1 $-1 $147 $85 #
plane-surface $-1 -48.06748422241283 0 0.47337476980143212 0 0 1 1 0 0 forward_v I I I I #
face $-1 $148 $149 $61 $-1 $150 reversed single #
loop $-1 $-1 $151 $86 #
plane-surface $-1 -39.221380431704304 63.224054690892608 102.80481397806932 1 0 0 0 -0.71933980857756763 -0.69465836192734942 forward_v I I I I #
face $-1 $152 $153 $63 $-1 $154 forward single #
loop $-1 $155 $156 $87 #
cone-surface $-1 -35.634231597590343 19.637837603580611 2.6066171842277877 0 -0.71933980857756763 -0.69465836192734942 1 0 0 1 I I 0 1 forward I I I I #
face $-1 $157 $158 $65 $-1 $159 forward single #
loop $-1 $160 $161 $88 #
cone-surface $-1 -30.253508346419409 19.637837603580611 2.6066171842277877 0 -0.71933980857756763 -0.69465836192734942 1 0 0 1 I I 0 1 forward I I I I #
face $-1 $162 $163 $67 $-1 $164 reversed single #
loop $-1 $-1 $165 $89 #
plane-surface $-1 -15.905146988364308 63.224054690892608 102.80481397806932 1 0 0 0 -0.71933980857756763 -0.69465836192734942 forward_v I I I I #
face $-1 $166 $167 $69 $-1 $168 forward single #
loop $-1 $169 $170 $90 #
cone-surface $-1 -12.317998154250347 19.637837603580611 2.6066171842277877 0 -0.71933980857756763 -0.69465836192734942 1 0 0 1 I I 0 1 forward I I I I #
face $-1 $171 $172 $71 $-1 $173 forward single #
loop $-1 $174 $175 $91 #
cone-surface $-1 -6.9372749030794125 19.637837603580611 2.6066171842277877 0 -0.71933980857756763 -0.69465836192734942 1 0 0 1 I I 0 1 forward I I I I #
face $-1 $176 $177 $73 $-1 $178 reversed single #
loop $-1 $-1 $179 $92 #
plane-surface $-1 7.4110864549756874 63.224054690892608 102.80481397806932 1 0 0 0 -0.71933980857756763 -0.69465836192734942 forward_v I I I I #
face $-1 $180 $181 $75 $-1 $182 forward single #
loop $-1 $183 $184 $93 #
cone-surface $-1 10.998235289089649 19.637837603580611 2.6066171842277877 0 -0.71933980857756763 -0.69465836192734942 1 0 0 1 I I 0 1 forward I I I I #
face $-1 $185 $186 $77 $-1 $187 forward single #
loop $-1 $188 $189 $94 #
cone-surface $-1 16.378958540260584 19.637837603580611 2.6066171842277877 0 -0.71933980857756763 -0.69465836192734942 1 0 0 1 I I 0 1 forward I I I I #
face $-1 $190 $191 $79 $-1 $192 reversed single #
loop $-1 $-1 $193 $95 #
plane-surface $-1 30.727319898315685 63.224054690892608 102.80481397806932 1 0 0 0 -0.71933980857756763 -0.69465836192734942 forward_v I I I I #
face $-1 $194 $195 $81 $-1 $196 forward single #
loop $-1 $197 $198 $96 #
cone-surface $-1 34.314468732429646 19.637837603580611 2.6066171842277877 0 -0.71933980857756763 -0.69465836192734942 1 0 0 1 I I 0 1 forward I I I I #
face $-1 $199 $200 $83 $-1 $201 forward single #
loop $-1 $202 $203 $97 #
cone-surface $-1 39.69519198360058 19.637837603580611 2.6066171842277877 0 -0.71933980857756763 -0.69465836192734942 1 0 0 1 I I 0 1 forward I I I I #
face $-1 $204 $205 $57 $-1 $206 reversed single #
loop $-1 $-1 $207 $98 #
plane-surface $-1 0 0 -5.7749306033697394 0 0 1 1 0 0 forward_v I I I I #
coedge $-1 $208 $209 $210 $211 forward $99 $-1 #
face $-1 $212 $213 $59 $-1 $214 reversed single #
loop $-1 $-1 $215 $101 #
plane-surface $-1 -48.06748422241283 0 -2.5266252301985679 0 0 1 1 0 0 forward_v I I I I #
coedge $-1 $216 $217 $218 $219 forward $102 $-1 #
face $-1 $220 $221 $61 $-1 $222 reversed single #
loop $-1 $-1 $223 $104 #
plane-surface $-1 -32.943869972004876 -8.8508655745324702 33.202874184651577 0 0.71933980857756763 0.69465836192734942 1 0 0 forward_v I I I I #
coedge $-1 $224 $225 $226 $227 reversed $105 $-1 #
face $-1 $-1 $228 $63 $-1 $229 forward single #
loop $-1 $230 $231 $107 #
cone-surface $-1 -35.634231597590343 18.730831046334401 1.7307311540080725 0 -0.71933980857756763 -0.69465836192734942 0.5 0 0 1 I I -0.70710678118654746 0.70710678118654746 forward I I I I #
loop $-1 $-1 $232 $87 #
coedge $-1 $156 $156 $233 $234 reversed $108 $-1 #
face $-1 $-1 $235 $65 $-1 $236 forward single #
loop $-1 $237 $238 $110 #
cone-surface $-1 -30.253508346419409 18.730831046334401 1.7307311540080725 0 -0.71933980857756763 -0.69465836192734942 0.5 0 0 1 I I -0.70710678118654746 0.70710678118654746 forward I I I I #
loop $-1 $-1 $239 $88 #
coedge $-1 $161 $161 $240 $241 reversed $111 $-1 #
face $-1 $242 $243 $67 $-1 $244 reversed single #
loop $-1 $-1 $245 $113 #
plane-surface $-1 -9.6276365286648797 -8.8508655745324702 33.202874184651577 0 0.71933980857756763 0.69465836192734942 1 0 0 forward_v I I I I #
coedge $-1 $246 $247 $248 $249 reversed $114 $-1 #
face $-1 $-1 $250 $69 $-1 $251 forward single #
loop $-1 $252 $253 $116 #
cone-surface $-1 -12.317998154250347 18.730831046334401 1.7307311540080725 0 -0.71933980857756763 -0.69465836192734942 0.5 0 0 1 I I -0.70710678118654746 0.70710678118654746 forward I I I I #
loop $-1 $-1 $254 $90 #
coedge $-1 $170 $170 $255 $256 reversed $117 $-1 #
face $-1 $-1 $257 $71 $-1 $258 forward single #
loop $-1 $259 $260 $119 #
cone-surface $-1 -6.9372749030794125 18.730831046334401 1.7307311540080725 0 -0.71933980857756763 -0.69465836192734942 0.5 0 0 1 I I -0.70710678118654746 0.70710678118654746 forward I I I I #
loop $-1 $-1 $261 $91 #
coedge $-1 $175 $175 $262 $263 reversed $120 $-1 #
face $-1 $264 $265 $73 $-1 $266 reversed single #
loop $-1 $-1 $267 $122 #
plane-surface $-1 13.688596914675117 -8.8508655745324702 33.202874184651577 0 0.71933980857756763 0.69465836192734942 1 0 0 forward_v I I I I #
coedge $-1 $268 $269 $270 $271 reversed $123 $-1 #
face $-1 $-1 $272 $75 $-1 $273 forward single #
loop $-1 $274 $275 $125 #
cone-surface $-1 10.998235289089649 18.730831046334401 1.7307311540080725 0 -0.71933980857756763 -0.69465836192734942 0.5 0 0 1 I I -0.70710678118654746 0.70710678118654746 forward I I I I #
loop $-1 $-1 $276 $93 #
coedge $-1 $184 $184 $277 $278 reversed $126 $-1 #
face $-1 $-1 $279 $77 $-1 $280 forward single #
loop $-1 $281 $282 $128 #
cone-surface $-1 16.378958540260584 18.730831046334401 1.7307311540080725 0 -0.71933980857756763 -0.69465836192734942 0.5 0 0 1 I I -0.70710678118654746 0.70710678118654746 forward I I I I #
loop $-1 $-1 $283 $94 #
coedge $-1 $189 $189 $284 $285 reversed $129 $-1 #
face $-1 $286 $287 $79 $-1 $288 reversed single #
loop $-1 $-1 $289 $131 #
plane-surface $-1 37.004830358015113 -8.8508655745324702 33.202874184651577 0 0.71933980857756763 0.69465836192734942 1 0 0 forward_v I I I I #
coedge $-1 $290 $291 $292 $293 reversed $132 $-1 #
face $-1 $-1 $294 $81 $-1 $295 forward single #
loop $-1 $296 $297 $134 #
cone-surface $-1 34.314468732429646 18.730831046334401 1.7307311540080725 0 -0.71933980857756763 -0.69465836192734942 0.5 0 0 1 I I -0.70710678118654746 0.70710678118654746 forward I I I I #
loop $-1 $-1 $298 $96 #
coedge $-1 $198 $198 $299 $300 reversed $135 $-1 #
face $-1 $-1 $301 $83 $-1 $302 forward single #
loop $-1 $303 $304 $137 #
cone-surface $-1 39.69519198360058 18.730831046334401 1.7307311540080725 0 -0.71933980857756763 -0.69465836192734942 0.5 0 0 1 I I -0.70710678118654746 0.70710678118654746 forward I I I I #
loop $-1 $-1 $305 $97 #
coedge $-1 $203 $203 $306 $307 reversed $138 $-1 #
face $-1 $308 $309 $57 $-1 $310 reversed single #
loop $-1 $-1 $311 $140 #
plane-surface $-1 0 -22.734357483794632 0 0 1 0 0 0 1 forward_v I I I I #
coedge $-1 $312 $313 $314 $315 forward $141 $-1 #
coedge $-1 $316 $143 $317 $318 forward $99 $-1 #
coedge $-1 $143 $316 $319 $320 forward $99 $-1 #
coedge $-1 $321 $322 $143 $211 reversed $323 $-1 #
edge $-1 $324 $325 $210 $326 forward #
face $-1 $327 $328 $59 $-1 $329 reversed single #
loop $-1 $-1 $330 $144 #
plane-surface $-1 -46.037004029407711 0 -1.0266252301985679 -1 0 0 0 0 1 forward_v I I I I #
coedge $-1 $331 $332 $333 $334 forward $145 $-1 #
coedge $-1 $335 $147 $336 $337 reversed $102 $-1 #
coedge $-1 $147 $335 $338 $339 reversed $102 $-1 #
coedge $-1 $330 $340 $147 $219 reversed $213 $-1 #
edge $-1 $341 $342 $218 $343 forward #
face $-1 $344 $345 $61 $-1 $346 forward single #
loop $-1 $-1 $347 $148 #
plane-surface $-1 -26.666359512305448 63.224054690892608 102.80481397806932 -1 0 0 0 0.71933980857756763 0.69465836192734942 forward_v I I I I #
coedge $-1 $348 $349 $350 $351 reversed $149 $-1 #
coedge $-1 $225 $151 $352 $353 reversed $105 $-1 #
coedge $-1 $151 $224 $348 $354 reversed $105 $-1 #
coedge $-1 $350 $355 $151 $227 forward $345 $-1 #
edge $-1 $356 $357 $226 $358 forward #
loop $-1 $-1 $233 $152 #
plane-surface $-1 -32.943869972004876 -8.8508655745324702 33.202874184651577 0 0.71933980857756763 0.69465836192734942 1 0 0 forward_v I I I I #
loop $-1 $-1 $359 $107 #
coedge $-1 $231 $231 $232 $360 reversed $153 $-1 #
coedge $-1 $232 $232 $231 $360 forward $155 $-1 #
coedge $-1 $233 $233 $156 $234 forward $228 $-1 #
edge $-1 $361 $361 $233 $362 forward #
loop $-1 $-1 $240 $157 #
plane-surface $-1 -32.943869972004876 -8.8508655745324702 33.202874184651577 0 0.71933980857756763 0.69465836192734942 1 0 0 forward_v I I I I #
loop $-1 $-1 $363 $110 #
coedge $-1 $238 $238 $239 $364 reversed $158 $-1 #
coedge $-1 $239 $239 $238 $364 forward $160 $-1 #
coedge $-1 $240 $240 $161 $241 forward $235 $-1 #
edge $-1 $365 $365 $240 $366 forward #
face $-1 $367 $368 $67 $-1 $369 forward single #
loop $-1 $-1 $370 $162 #
plane-surface $-1 -3.3501260689654506 63.224054690892608 102.80481397806932 -1 0 0 0 0.71933980857756763 0.69465836192734942 forward_v I I I I #
coedge $-1 $371 $372 $373 $374 reversed $163 $-1 #
coedge $-1 $247 $165 $375 $376 reversed $114 $-1 #
coedge $-1 $165 $246 $371 $377 reversed $114 $-1 #
coedge $-1 $373 $378 $165 $249 forward $368 $-1 #
edge $-1 $379 $380 $248 $381 forward #
loop $-1 $-1 $255 $166 #
plane-surface $-1 -9.6276365286648797 -8.8508655745324702 33.202874184651577 0 0.71933980857756763 0.69465836192734942 1 0 0 forward_v I I I I #
loop $-1 $-1 $382 $116 #
coedge $-1 $253 $253 $254 $383 reversed $167 $-1 #
coedge $-1 $254 $254 $253 $383 forward $169 $-1 #
coedge $-1 $255 $255 $170 $256 forward $250 $-1 #
edge $-1 $384 $384 $255 $385 forward #
loop $-1 $-1 $262 $171 #
plane-surface $-1 -9.6276365286648797 -8.8508655745324702 33.202874184651577 0 0.71933980857756763 0.69465836192734942 1 0 0 forward_v I I I I #
loop $-1 $-1 $386 $119 #
coedge $-1 $260 $260 $261 $387 reversed $172 $-1 #
coedge $-1 $261 $261 $260 $387 forward $174 $-1 #
coedge $-1 $262 $262 $175 $263 forward $257 $-1 #
edge $-1 $388 $388 $262 $389 forward #
face $-1 $390 $391 $73 $-1 $392 forward single #
loop $-1 $-1 $393 $176 #
plane-surface $-1 19.966107374374545 63.224054690892608 102.80481397806932 -1 0 0 0 0.71933980857756763 0.69465836192734942 forward_v I I I I #
coedge $-1 $394 $395 $396 $397 reversed $177 $-1 #
coedge $-1 $269 $179 $398 $399 reversed $123 $-1 #
coedge $-1 $179 $268 $394 $400 reversed $123 $-1 #
coedge $-1 $396 $401 $179 $271 forward $391 $-1 #
edge $-1 $402 $403 $270 $404 forward #
loop $-1 $-1 $277 $180 #
plane-surface $-1 13.688596914675117 -8.8508655745324702 33.202874184651577 0 0.71933980857756763 0.69465836192734942 1 0 0 forward_v I I I I #
loop $-1 $-1 $405 $125 #
coedge $-1 $275 $275 $276 $406 reversed $181 $-1 #
coedge $-1 $276 $276 $275 $406 forward $183 $-1 #
coedge $-1 $277 $277 $184 $278 forward $272 $-1 #
edge $-1 $407 $407 $277 $408 forward #
loop $-1 $-1 $284 $185 #
plane-surface $-1 13.688596914675117 -8.8508655745324702 33.202874184651577 0 0.71933980857756763 0.69465836192734942 1 0 0 forward_v I I I I #
loop $-1 $-1 $409 $128 #
coedge $-1 $282 $282 $283 $410 reversed $186 $-1 #
coedge $-1 $283 $283 $282 $410 forward $188 $-1 #
coedge $-1 $284 $284 $189 $285 forward $279 $-1 #
edge $-1 $411 $411 $284 $412 forward #
face $-1 $413 $414 $79 $-1 $415 forward single #
loop $-1 $-1 $416 $190 #
plane-surface $-1 43.282340817714541 63.224054690892608 102.80481397806932 -1 0 0 0 0.71933980857756763 0.69465836192734942 forward_v I I I I #
coedge $-1 $417 $418 $419 $420 reversed $191 $-1 #
coedge $-1 $291 $193 $421 $422 reversed $132 $-1 #
coedge $-1 $193 $290 $417 $423 reversed $132 $-1 #
coedge $-1 $419 $424 $193 $293 forward $414 $-1 #
edge $-1 $425 $426 $292 $427 forward #
loop $-1 $-1 $299 $194 #
plane-surface $-1 37.004830358015113 -8.8508655745324702 33.202874184651577 0 0.71933980857756763 0.69465836192734942 1 0 0 forward_v I I I I #
loop $-1 $-1 $428 $134 #
coedge $-1 $297 $297 $298 $429 reversed $195 $-1 #
coedge $-1 $298 $298 $297 $429 forward $197 $-1 #
coedge $-1 $299 $299 $198 $300 forward $294 $-1 #
edge $-1 $430 $430 $299 $431 forward #
loop $-1 $-1 $306 $199 #
plane-surface $-1 37.004830358015113 -8.8508655745324702 33.202874184651577 0 0.71933980857756763 0.69465836192734942 1 0 0 forward_v I I I I #
loop $-1 $-1 $432 $137 #
coedge $-1 $304 $304 $305 $433 reversed $200 $-1 #
coedge $-1 $305 $305 $304 $433 forward $202 $-1 #
coedge $-1 $306 $306 $203 $307 forward $301 $-1 #
edge $-1 $434 $434 $306 $435 forward #
face $-1 $436 $437 $57 $-1 $438 reversed single #
loop $-1 $-1 $439 $204 #
plane-surface $-1 -50.097964415417948 0 0 1 0 0 0 0 -1 forward_v I I I I #
coedge $-1 $440 $319 $441 $442 forward $205 $-1 #
coedge $-1 $443 $207 $440 $444 forward $141 $-1 #
coedge $-1 $207 $443 $445 $446 forward $141 $-1 #
coedge $-1 $322 $321 $207 $315 reversed $323 $-1 #
edge $-1 $447 $448 $314 $449 forward #
coedge $-1 $209 $208 $450 $451 forward $99 $-1 #
coedge $-1 $452 $453 $208 $318 reversed $437 $-1 #
edge $-1 $325 $454 $317 $455 forward #
coedge $-1 $311 $456 $209 $320 reversed $205 $-1 #
edge $-1 $457 $324 $319 $458 forward #
coedge $-1 $314 $210 $456 $459 forward $323 $-1 #
coedge $-1 $210 $314 $452 $460 reversed $323 $-1 #
loop $-1 $-1 $321 $436 #
vertex $-1 $211 $461 #
vertex $-1 $211 $462 #
straight-curve $-1 50.097964415417948 0 5.7749306033697394 0 1 0 I I #
face $-1 $463 $464 $59 $-1 $465 reversed single #
loop $-1 $-1 $466 $212 #
plane-surface $-1 0 -22.734357483794632 0 0 1 0 0 0 1 forward_v I I I I #
coedge $-1 $333 $218 $467 $468 reversed $213 $-1 #
coedge $-1 $469 $215 $466 $470 reversed $145 $-1 #
coedge $-1 $215 $469 $471 $472 reversed $145 $-1 #
coedge $-1 $340 $330 $215 $334 reversed $213 $-1 #
edge $-1 $473 $474 $333 $475 forward #
coedge $-1 $217 $216 $476 $477 reversed $102 $-1 #
coedge $-1 $478 $479 $216 $337 forward $480 $-1 #
edge $-1 $481 $342 $336 $482 forward #
coedge $-1 $483 $467 $217 $339 forward $328 $-1 #
edge $-1 $341 $484 $338 $485 forward #
coedge $-1 $218 $333 $478 $486 reversed $213 $-1 #
vertex $-1 $339 $487 #
vertex $-1 $337 $488 #
straight-curve $-1 -46.037004029407711 0 0.47337476980143212 0 1 0 I I #
face $-1 $-1 $489 $61 $-1 $490 reversed single #
loop $-1 $-1 $226 $220 #
plane-surface $-1 0 0 5.7749306033697394 0 0 1 1 0 0 forward_v I I I I #
coedge $-1 $491 $492 $493 $494 reversed $221 $-1 #
coedge $-1 $495 $223 $225 $354 forward $149 $-1 #
coedge $-1 $223 $495 $491 $496 forward $149 $-1 #
coedge $-1 $493 $226 $223 $351 forward $345 $-1 #
edge $-1 $357 $497 $350 $498 forward #
coedge $-1 $499 $500 $224 $353 forward $489 $-1 #
edge $-1 $501 $356 $352 $502 forward #
edge $-1 $357 $501 $225 $503 forward #
coedge $-1 $226 $493 $499 $504 forward $345 $-1 #
vertex $-1 $353 $505 #
vertex $-1 $227 $506 #
straight-curve $-1 -39.221380431704304 31.612027345446304 5.7749306033697394 0 -1 0 I I #
coedge $-1 $359 $359 $-1 $507 reversed $230 $-1 #
edge $-1 $508 $508 $231 $509 forward #
vertex $-1 $234 $510 #
ellipse-curve $-1 -35.634231597590343 20.185174256538051 3.1351740334838425 0 0.71933980857756763 0.69465836192734942 1 0 0 1 I I #
coedge $-1 $363 $363 $-1 $511 reversed $237 $-1 #
edge $-1 $512 $512 $238 $513 forward #
vertex $-1 $241 $514 #
ellipse-curve $-1 -30.253508346419409 20.185174256538051 3.1351740334838425 0 0.71933980857756763 0.69465836192734942 1 0 0 1 I I #
face $-1 $-1 $515 $67 $-1 $516 reversed single #
loop $-1 $-1 $248 $242 #
plane-surface $-1 0 0 5.7749306033697394 0 0 1 1 0 0 forward_v I I I I #
coedge $-1 $517 $518 $519 $520 reversed $243 $-1 #
coedge $-1 $521 $245 $247 $377 forward $163 $-1 #
coedge $-1 $245 $521 $517 $522 forward $163 $-1 #
coedge $-1 $519 $248 $245 $374 forward $368 $-1 #
edge $-1 $380 $523 $373 $524 forward #
coedge $-1 $525 $526 $246 $376 forward $515 $-1 #
edge $-1 $527 $379 $375 $528 forward #
edge $-1 $380 $527 $247 $529 forward #
coedge $-1 $248 $519 $525 $530 forward $368 $-1 #
vertex $-1 $249 $531 #
vertex $-1 $249 $532 #
straight-curve $-1 -15.905146988364308 31.612027345446304 5.7749306033697394 0 -1 0 I I #
coedge $-1 $382 $382 $-1 $533 reversed $252 $-1 #
edge $-1 $534 $534 $253 $535 forward #
vertex $-1 $256 $536 #
ellipse-curve $-1 -12.317998154250347 20.185174256538051 3.1351740334838425 0 0.71933980857756763 0.69465836192734942 1 0 0 1 I I #
coedge $-1 $386 $386 $-1 $537 reversed $259 $-1 #
edge $-1 $538 $538 $260 $539 forward #
vertex $-1 $263 $540 #
ellipse-curve $-1 -6.9372749030794125 20.185174256538051 3.1351740334838425 0 0.71933980857756763 0.69465836192734942 1 0 0 1 I I #
face $-1 $-1 $541 $73 $-1 $542 reversed single #
loop $-1 $-1 $270 $264 #
plane-surface $-1 0 0 5.7749306033697394 0 0 1 1 0 0 forward_v I I I I #
coedge $-1 $543 $544 $545 $546 reversed $265 $-1 #
coedge $-1 $547 $267 $269 $400 forward $177 $-1 #
coedge $-1 $267 $547 $543 $548 forward $177 $-1 #
coedge $-1 $545 $270 $267 $397 forward $391 $-1 #
edge $-1 $403 $549 $396 $550 forward #
coedge $-1 $551 $552 $268 $399 forward $541 $-1 #
edge $-1 $553 $402 $398 $554 forward #
edge $-1 $403 $553 $269 $555 forward #
coedge $-1 $270 $545 $551 $556 forward $391 $-1 #
vertex $-1 $271 $557 #
vertex $-1 $271 $558 #
straight-curve $-1 7.4110864549756874 31.612027345446304 5.7749306033697394 0 -1 0 I I #
coedge $-1 $405 $405 $-1 $559 reversed $274 $-1 #
edge $-1 $560 $560 $275 $561 forward #
vertex $-1 $278 $562 #
ellipse-curve $-1 10.998235289089649 20.185174256538051 3.1351740334838425 0 0.71933980857756763 0.69465836192734942 1 0 0 1 I I #
coedge $-1 $409 $409 $-1 $563 reversed $281 $-1 #
edge $-1 $564 $564 $282 $565 forward #
vertex $-1 $285 $566 #
ellipse-curve $-1 16.378958540260584 20.185174256538051 3.1351740334838425 0 0.71933980857756763 0.69465836192734942 1 0 0 1 I I #
face $-1 $-1 $567 $79 $-1 $568 reversed single #
loop $-1 $-1 $292 $286 #
plane-surface $-1 0 0 5.7749306033697394 0 0 1 1 0 0 forward_v I I I I #
coedge $-1 $569 $570 $571 $572 reversed $287 $-1 #
coedge $-1 $573 $289 $291 $423 forward $191 $-1 #
coedge $-1 $289 $573 $569 $574 forward $191 $-1 #
coedge $-1 $571 $292 $289 $420 forward $414 $-1 #
edge $-1 $426 $575 $419 $576 forward #
coedge $-1 $577 $578 $290 $422 forward $567 $-1 #
edge $-1 $579 $425 $421 $580 forward #
edge $-1 $426 $579 $291 $581 forward #
coedge $-1 $292 $571 $577 $582 forward $414 $-1 #
vertex $-1 $293 $583 #
vertex $-1 $293 $584 #
straight-curve $-1 30.727319898315685 31.612027345446304 5.7749306033697394 0 -1 0 I I #
coedge $-1 $428 $428 $-1 $585 reversed $296 $-1 #
edge $-1 $586 $586 $297 $587 forward #
vertex $-1 $300 $588 #
ellipse-curve $-1 34.314468732429646 20.185174256538051 3.1351740334838425 0 0.71933980857756763 0.69465836192734942 1 0 0 1 I I #
coedge $-1 $432 $432 $-1 $589 reversed $303 $-1 #
edge $-1 $590 $590 $304 $591 forward #
vertex $-1 $307 $592 #
ellipse-curve $-1 39.69519198360058 20.185174256538051 3.1351740334838425 0 0.71933980857756763 0.69465836192734942 1 0 0 1 I I #
face $-1 $-1 $323 $57 $-1 $593 reversed single #
loop $-1 $-1 $452 $308 #
plane-surface $-1 0 22.734357483794632 0 0 -1 0 0 0 -1 forward_v I I I I #
coedge $-1 $594 $450 $453 $595 forward $309 $-1 #
coedge $-1 $456 $311 $312 $444 reversed $205 $-1 #
coedge $-1 $450 $594 $311 $442 reversed $309 $-1 #
edge $-1 $457 $596 $441 $597 forward #
coedge $-1 $313 $312 $594 $598 forward $141 $-1 #
edge $-1 $448 $596 $440 $599 forward #
coedge $-1 $453 $452 $313 $446 reversed $437 $-1 #
edge $-1 $600 $447 $445 $601 forward #
vertex $-1 $315 $602 #
vertex $-1 $459 $603 #
straight-curve $-1 50.097964415417948 0 -5.7749306033697394 0 -1 0 I I #
coedge $-1 $439 $441 $316 $451 reversed $309 $-1 #
edge $-1 $454 $457 $450 $604 forward #
coedge $-1 $445 $317 $322 $460 forward $437 $-1 #
coedge $-1 $317 $445 $439 $595 reversed $437 $-1 #
vertex $-1 $318 $605 #
straight-curve $-1 0 22.734357483794632 5.7749306033697394 -1 0 0 I I #
coedge $-1 $319 $440 $321 $459 reversed $205 $-1 #
vertex $-1 $451 $606 #
straight-curve $-1 0 -22.734357483794632 5.7749306033697394 1 0 0 I I #
edge $-1 $324 $448 $321 $607 forward #
edge $-1 $325 $447 $322 $608 forward #
point $-1 50.097964415417948 -22.734357483794632 5.7749306033697394 #
point $-1 50.097964415417948 22.734357483794632 5.7749306033697394 #
face $-1 $-1 $480 $59 $-1 $609 reversed single #
loop $-1 $-1 $610 $327 #
plane-surface $-1 -50.097964415417948 0 0 1 0 0 0 0 -1 forward_v I I I I #
coedge $-1 $467 $483 $331 $470 forward $328 $-1 #
coedge $-1 $338 $466 $330 $468 forward $328 $-1 #
edge $-1 $474 $341 $467 $611 forward #
coedge $-1 $332 $331 $610 $612 reversed $145 $-1 #
edge $-1 $613 $474 $466 $614 forward #
coedge $-1 $479 $478 $332 $472 forward $480 $-1 #
edge $-1 $473 $615 $471 $616 forward #
vertex $-1 $472 $617 #
vertex $-1 $470 $618 #
straight-curve $-1 -46.037004029407711 0 -2.5266252301985679 0 -1 0 I I #
coedge $-1 $619 $620 $335 $477 forward $464 $-1 #
edge $-1 $484 $481 $476 $621 forward #
coedge $-1 $471 $336 $340 $486 forward $480 $-1 #
coedge $-1 $336 $471 $619 $622 reversed $480 $-1 #
loop $-1 $-1 $471 $463 #
vertex $-1 $622 $623 #
straight-curve $-1 -24.033742111206415 22.734357483794632 0.47337476980143212 1 0 0 I I #
coedge $-1 $466 $338 $620 $624 forward $328 $-1 #
vertex $-1 $624 $625 #
straight-curve $-1 -24.033742111206415 -22.734357483794632 0.47337476980143212 -1 0 0 I I #
edge $-1 $342 $473 $478 $626 forward #
point $-1 -46.037004029407711 -22.734357483794632 0.47337476980143212 #
point $-1 -46.037004029407711 22.734357483794632 0.47337476980143212 #
loop $-1 $-1 $352 $344 #
plane-surface $-1 0 22.734357483794632 0 0 -1 0 0 0 -1 forward_v I I I I #
coedge $-1 $492 $347 $349 $496 reversed $221 $-1 #
coedge $-1 $347 $491 $627 $628 reversed $221 $-1 #
coedge $-1 $355 $350 $347 $494 forward $345 $-1 #
edge $-1 $497 $629 $493 $630 forward #
coedge $-1 $349 $348 $500 $631 reversed $149 $-1 #
edge $-1 $632 $497 $491 $633 forward #
vertex $-1 $351 $634 #
straight-curve $-1 -16.471934986002438 17.635991029281467 5.7749306033697394 1 0 0 I I #
coedge $-1 $627 $352 $355 $504 reversed $489 $-1 #
coedge $-1 $352 $627 $495 $631 forward $489 $-1 #
vertex $-1 $353 $635 #
straight-curve $-1 -39.221380431704304 22.734357483794632 51.40240698903466 0 0 1 I I #
straight-curve $-1 -39.221380431704304 -8.8508655745324702 33.202874184651577 0 0.69465836192734942 -0.71933980857756763 I I #
edge $-1 $629 $356 $499 $636 forward #
point $-1 -39.221380431704304 22.734357483794632 5.7749306033697394 #
point $-1 -39.221380431704304 17.635991029281463 5.774930603369743 #
edge $-1 $637 $637 $359 $-1 forward #
vertex $-1 $360 $638 #
ellipse-curve $-1 -35.634231597590343 19.090500950623184 2.078060334971747 0 0.71933980857756763 0.69465836192734942 1 0 0 1 I I #
point $-1 -34.634231597590343 20.185174256538033 3.1351740334838278 #
edge $-1 $639 $639 $363 $-1 forward #
vertex $-1 $364 $640 #
ellipse-curve $-1 -30.253508346419409 19.090500950623184 2.078060334971747 0 0.71933980857756763 0.69465836192734942 1 0 0 1 I I #
point $-1 -29.253508346419409 20.185174256538033 3.1351740334838278 #
loop $-1 $-1 $375 $367 #
plane-surface $-1 0 22.734357483794632 0 0 -1 0 0 0 -1 forward_v I I I I #
coedge $-1 $518 $370 $372 $522 reversed $243 $-1 #
coedge $-1 $370 $517 $641 $642 reversed $243 $-1 #
coedge $-1 $378 $373 $370 $520 forward $368 $-1 #
edge $-1 $523 $643 $519 $644 forward #
coedge $-1 $372 $371 $526 $645 reversed $163 $-1 #
edge $-1 $646 $523 $517 $647 forward #
vertex $-1 $374 $648 #
straight-curve $-1 -4.8138182643324399 17.635991029281467 5.7749306033697394 1 0 0 I I #
coedge $-1 $641 $375 $378 $530 reversed $515 $-1 #
coedge $-1 $375 $641 $521 $645 forward $515 $-1 #
vertex $-1 $376 $649 #
straight-curve $-1 -15.905146988364308 22.734357483794632 51.40240698903466 0 0 1 I I #
straight-curve $-1 -15.905146988364308 -8.8508655745324702 33.202874184651577 0 0.69465836192734942 -0.71933980857756763 I I #
edge $-1 $643 $379 $525 $650 forward #
point $-1 -15.905146988364308 22.734357483794632 5.7749306033697394 #
point $-1 -15.905146988364308 17.635991029281463 5.774930603369743 #
edge $-1 $651 $651 $382 $-1 forward #
vertex $-1 $383 $652 #
ellipse-curve $-1 -12.317998154250347 19.090500950623184 2.078060334971747 0 0.71933980857756763 0.69465836192734942 1 0 0 1 I I #
point $-1 -11.317998154250347 20.185174256538033 3.1351740334838278 #
edge $-1 $653 $653 $386 $-1 forward #
vertex $-1 $387 $654 #
ellipse-curve $-1 -6.9372749030794125 19.090500950623184 2.078060334971747 0 0.71933980857756763 0.69465836192734942 1 0 0 1 I I #
point $-1 -5.9372749030794125 20.185174256538033 3.1351740334838278 #
loop $-1 $-1 $398 $390 #
plane-surface $-1 0 22.734357483794632 0 0 -1 0 0 0 -1 forward_v I I I I #
coedge $-1 $544 $393 $395 $548 reversed $265 $-1 #
coedge $-1 $393 $543 $655 $656 reversed $265 $-1 #
coedge $-1 $401 $396 $393 $546 forward $391 $-1 #
edge $-1 $549 $657 $545 $658 forward #
coedge $-1 $395 $394 $552 $659 reversed $177 $-1 #
edge $-1 $660 $549 $543 $661 forward #
vertex $-1 $397 $662 #
straight-curve $-1 6.8442984573375583 17.635991029281467 5.7749306033697394 1 0 0 I I #
coedge $-1 $655 $398 $401 $556 reversed $541 $-1 #
coedge $-1 $398 $655 $547 $659 forward $541 $-1 #
vertex $-1 $399 $663 #
straight-curve $-1 7.4110864549756874 22.734357483794632 51.40240698903466 0 0 1 I I #
straight-curve $-1 7.4110864549756874 -8.8508655745324702 33.202874184651577 0 0.69465836192734942 -0.71933980857756763 I I #
edge $-1 $657 $402 $551 $664 forward #
point $-1 7.4110864549756874 22.734357483794632 5.7749306033697394 #
point $-1 7.4110864549756874 17.635991029281463 5.774930603369743 #
edge $-1 $665 $665 $405 $-1 forward #
vertex $-1 $406 $666 #
ellipse-curve $-1 10.998235289089649 19.090500950623184 2.078060334971747 0 0.71933980857756763 0.69465836192734942 1 0 0 1 I I #
point $-1 11.998235289089649 20.185174256538033 3.1351740334838278 #
edge $-1 $667 $667 $409 $-1 forward #
vertex $-1 $410 $668 #
ellipse-curve $-1 16.378958540260584 19.090500950623184 2.078060334971747 0 0.71933980857756763 0.69465836192734942 1 0 0 1 I I #
point $-1 17.378958540260584 20.185174256538033 3.1351740334838278 #
loop $-1 $-1 $421 $413 #
plane-surface $-1 0 22.734357483794632 0 0 -1 0 0 0 -1 forward_v I I I I #
coedge $-1 $570 $416 $418 $574 reversed $287 $-1 #
coedge $-1 $416 $569 $669 $670 reversed $287 $-1 #
coedge $-1 $424 $419 $416 $572 forward $414 $-1 #
edge $-1 $575 $671 $571 $672 forward #
coedge $-1 $418 $417 $578 $673 reversed $191 $-1 #
edge $-1 $674 $575 $569 $675 forward #
vertex $-1 $420 $676 #
straight-curve $-1 18.502415179007556 17.635991029281467 5.7749306033697394 1 0 0 I I #
coedge $-1 $669 $421 $424 $582 reversed $567 $-1 #
coedge $-1 $421 $669 $573 $673 forward $567 $-1 #
vertex $-1 $422 $677 #
straight-curve $-1 30.727319898315685 22.734357483794632 51.40240698903466 0 0 1 I I #
straight-curve $-1 30.727319898315685 -8.8508655745324702 33.202874184651577 0 0.69465836192734942 -0.71933980857756763 I I #
edge $-1 $671 $425 $577 $678 forward #
point $-1 30.727319898315685 22.734357483794632 5.7749306033697394 #
point $-1 30.727319898315685 17.635991029281463 5.774930603369743 #
edge $-1 $679 $679 $428 $-1 forward #
vertex $-1 $429 $680 #
ellipse-curve $-1 34.314468732429646 19.090500950623184 2.078060334971747 0 0.71933980857756763 0.69465836192734942 1 0 0 1 I I #
point $-1 35.314468732429646 20.185174256538033 3.1351740334838278 #
edge $-1 $681 $681 $432 $-1 forward #
vertex $-1 $433 $682 #
ellipse-curve $-1 39.69519198360058 19.090500950623184 2.078060334971747 0 0.71933980857756763 0.69465836192734942 1 0 0 1 I I #
point $-1 40.69519198360058 20.185174256538033 3.1351740334838278 #
plane-surface $-1 50.097964415417948 0 0 -1 0 0 0 0 1 forward_v I I I I #
coedge $-1 $441 $439 $443 $598 reversed $309 $-1 #
edge $-1 $454 $600 $453 $683 forward #
vertex $-1 $598 $684 #
straight-curve $-1 -50.097964415417948 -22.734357483794632 0 0 0 -1 I I #
edge $-1 $596 $600 $594 $685 forward #
straight-curve $-1 0 -22.734357483794632 -5.7749306033697394 -1 0 0 I I #
vertex $-1 $446 $686 #
straight-curve $-1 0 22.734357483794632 -5.7749306033697394 1 0 0 I I #
point $-1 50.097964415417948 22.734357483794632 -5.7749306033697394 #
point $-1 50.097964415417948 -22.734357483794632 -5.7749306033697394 #
straight-curve $-1 -50.097964415417948 0 5.7749306033697394 0 -1 0 I I #
point $-1 -50.097964415417948 22.734357483794632 5.7749306033697394 #
point $-1 -50.097964415417948 -22.734357483794632 5.7749306033697394 #
straight-curve $-1 50.097964415417948 -22.734357483794632 0 0 0 -1 I I #
straight-curve $-1 50.097964415417948 22.734357483794632 0 0 0 -1 I I #
plane-surface $-1 0 22.734357483794632 0 0 -1 0 0 0 -1 forward_v I I I I #
coedge $-1 $620 $619 $469 $612 forward $464 $-1 #
straight-curve $-1 -46.037004029407711 -22.734357483794632 -0.51331261509928394 0 0 1 I I #
edge $-1 $615 $613 $610 $687 forward #
vertex $-1 $470 $688 #
straight-curve $-1 -24.033742111206415 -22.734357483794632 -2.5266252301985679 1 0 0 I I #
vertex $-1 $472 $689 #
straight-curve $-1 -24.033742111206415 22.734357483794632 -2.5266252301985679 -1 0 0 I I #
point $-1 -46.037004029407711 22.734357483794632 -2.5266252301985679 #
point $-1 -46.037004029407711 -22.734357483794632 -2.5266252301985679 #
coedge $-1 $610 $476 $479 $622 forward $464 $-1 #
coedge $-1 $476 $610 $483 $624 reversed $464 $-1 #
straight-curve $-1 -50.097964415417948 0 0.47337476980143212 0 1 0 I I #
edge $-1 $481 $615 $479 $690 forward #
point $-1 -50.097964415417948 22.734357483794632 0.47337476980143212 #
edge $-1 $484 $613 $620 $691 forward #
point $-1 -50.097964415417948 -22.734357483794632 0.47337476980143212 #
straight-curve $-1 -46.037004029407711 22.734357483794632 -0.51331261509928394 0 0 -1 I I #
coedge $-1 $500 $499 $492 $628 forward $489 $-1 #
edge $-1 $629 $632 $627 $692 forward #
vertex $-1 $504 $693 #
straight-curve $-1 -26.666359512305448 31.612027345446304 5.7749306033697394 0 1 0 I I #
edge $-1 $632 $501 $500 $694 forward #
vertex $-1 $631 $695 #
straight-curve $-1 -26.666359512305448 -8.8508655745324702 33.202874184651577 0 -0.69465836192734942 0.71933980857756763 I I #
point $-1 -26.666359512305448 17.635991029281463 5.774930603369743 #
point $-1 -39.221380431704304 22.734357483794632 0.49541746359793848 #
straight-curve $-1 0 22.734357483794632 5.7749306033697394 -1 0 0 I I #
vertex $-1 $507 $696 #
point $-1 -34.634231597590343 19.090500950623184 2.078060334971747 #
vertex $-1 $511 $697 #
point $-1 -29.253508346419409 19.090500950623184 2.078060334971747 #
coedge $-1 $526 $525 $518 $642 forward $515 $-1 #
edge $-1 $643 $646 $641 $698 forward #
vertex $-1 $530 $699 #
straight-curve $-1 -3.3501260689654506 31.612027345446304 5.7749306033697394 0 1 0 I I #
edge $-1 $646 $527 $526 $700 forward #
vertex $-1 $645 $701 #
straight-curve $-1 -3.3501260689654506 -8.8508655745324702 33.202874184651577 0 -0.69465836192734942 0.71933980857756763 I I #
point $-1 -3.3501260689654506 17.635991029281463 5.774930603369743 #
point $-1 -15.905146988364308 22.734357483794632 0.49541746359793848 #
straight-curve $-1 0 22.734357483794632 5.7749306033697394 -1 0 0 I I #
vertex $-1 $533 $702 #
point $-1 -11.317998154250347 19.090500950623184 2.078060334971747 #
vertex $-1 $537 $703 #
point $-1 -5.9372749030794125 19.090500950623184 2.078060334971747 #
coedge $-1 $552 $551 $544 $656 forward $541 $-1 #
edge $-1 $657 $660 $655 $704 forward #
vertex $-1 $556 $705 #
straight-curve $-1 19.966107374374545 31.612027345446304 5.7749306033697394 0 1 0 I I #
edge $-1 $660 $553 $552 $706 forward #
vertex $-1 $659 $707 #
straight-curve $-1 19.966107374374545 -8.8508655745324702 33.202874184651577 0 -0.69465836192734942 0.71933980857756763 I I #
point $-1 19.966107374374545 17.635991029281463 5.774930603369743 #
point $-1 7.4110864549756874 22.734357483794632 0.49541746359793848 #
straight-curve $-1 0 22.734357483794632 5.7749306033697394 -1 0 0 I I #
vertex $-1 $559 $708 #
point $-1 11.998235289089649 19.090500950623184 2.078060334971747 #
vertex $-1 $563 $709 #
point $-1 17.378958540260584 19.090500950623184 2.078060334971747 #
coedge $-1 $578 $577 $570 $670 forward $567 $-1 #
edge $-1 $671 $674 $669 $710 forward #
vertex $-1 $582 $711 #
straight-curve $-1 43.282340817714541 31.612027345446304 5.7749306033697394 0 1 0 I I #
edge $-1 $674 $579 $578 $712 forward #
vertex $-1 $673 $713 #
straight-curve $-1 43.282340817714541 -8.8508655745324702 33.202874184651577 0 -0.69465836192734942 0.71933980857756763 I I #
point $-1 43.282340817714541 17.635991029281463 5.774930603369743 #
point $-1 30.727319898315685 22.734357483794632 0.49541746359793848 #
straight-curve $-1 0 22.734357483794632 5.7749306033697394 -1 0 0 I I #
vertex $-1 $585 $714 #
point $-1 35.314468732429646 19.090500950623184 2.078060334971747 #
vertex $-1 $589 $715 #
point $-1 40.69519198360058 19.090500950623184 2.078060334971747 #
straight-curve $-1 -50.097964415417948 22.734357483794632 0 0 0 -1 I I #
point $-1 -50.097964415417948 -22.734357483794632 -5.7749306033697394 #
straight-curve $-1 -50.097964415417948 0 -5.7749306033697394 0 1 0 I I #
point $-1 -50.097964415417948 22.734357483794632 -5.7749306033697394 #
straight-curve $-1 -50.097964415417948 0 -2.5266252301985679 0 -1 0 I I #
point $-1 -50.097964415417948 -22.734357483794632 -2.5266252301985679 #
point $-1 -50.097964415417948 22.734357483794632 -2.5266252301985679 #
straight-curve $-1 -50.097964415417948 22.734357483794632 0 0 0 -1 I I #
straight-curve $-1 -50.097964415417948 -22.734357483794632 0 0 0 -1 I I #
straight-curve $-1 -26.666359512305448 22.734357483794632 51.40240698903466 0 0 -1 I I #
point $-1 -26.666359512305448 22.734357483794632 5.7749306033697394 #
straight-curve $-1 -16.471934986002438 22.734357483794632 0.49541746359794558 -1 0 0 I I #
point $-1 -26.666359512305448 22.734357483794632 0.49541746359793848 #
point $-1 -35.634231597590343 18.371161142045619 1.3834019730443978 #
point $-1 -30.253508346419409 18.371161142045619 1.3834019730443978 #
straight-curve $-1 -3.3501260689654506 22.734357483794632 51.40240698903466 0 0 -1 I I #
point $-1 -3.3501260689654506 22.734357483794632 5.7749306033697394 #
straight-curve $-1 -4.8138182643324399 22.734357483794632 0.49541746359794558 -1 0 0 I I #
point $-1 -3.3501260689654506 22.734357483794632 0.49541746359793848 #
point $-1 -12.317998154250347 18.371161142045619 1.3834019730443978 #
point $-1 -6.9372749030794125 18.371161142045619 1.3834019730443978 #
straight-curve $-1 19.966107374374545 22.734357483794632 51.40240698903466 0 0 -1 I I #
point $-1 19.966107374374545 22.734357483794632 5.7749306033697394 #
straight-curve $-1 6.8442984573375583 22.734357483794632 0.49541746359794558 -1 0 0 I I #
point $-1 19.966107374374545 22.734357483794632 0.49541746359793848 #
point $-1 10.998235289089649 18.371161142045619 1.3834019730443978 #
point $-1 16.378958540260584 18.371161142045619 1.3834019730443978 #
straight-curve $-1 43.282340817714541 22.734357483794632 51.40240698903466 0 0 -1 I I #
point $-1 43.282340817714541 22.734357483794632 5.7749306033697394 #
straight-curve $-1 18.502415179007556 22.734357483794632 0.49541746359794558 -1 0 0 I I #
point $-1 43.282340817714541 22.734357483794632 0.49541746359793848 #
point $-1 34.314468732429646 18.371161142045619 1.3834019730443978 #
point $-1 39.69519198360058 18.371161142045619 1.3834019730443978 #
End-of-ACIS-data 