600 0 10 0           
93 GICL ACIS Healer - Source: /gicl/data5/repository/Drexel/SM99-DATA/part84.smdg.feat.sat - 6 0 18 ACIS 6.0.3 Solaris 24 Sat Apr 13 20:46:07 2002 
1 9.999999999999999547e-07 1.000000000000000036e-10 
body $-1 $10 $-1 $-1 #
body $-1 $11 $-1 $-1 #
body $-1 $12 $-1 $-1 #
body $-1 $13 $-1 $-1 #
body $-1 $14 $-1 $-1 #
body $-1 $15 $-1 $-1 #
body $-1 $16 $-1 $-1 #
body $-1 $17 $-1 $-1 #
body $-1 $18 $-1 $-1 #
body $-1 $19 $-1 $-1 #
lump $-1 $-1 $20 $0 #
lump $-1 $-1 $21 $1 #
lump $-1 $-1 $22 $2 #
lump $-1 $-1 $23 $3 #
lump $-1 $-1 $24 $4 #
lump $-1 $-1 $25 $5 #
lump $-1 $-1 $26 $6 #
lump $-1 $-1 $27 $7 #
lump $-1 $-1 $28 $8 #
lump $-1 $-1 $29 $9 #
shell $-1 $-1 $-1 $30 $-1 $10 #
shell $-1 $-1 $-1 $31 $-1 $11 #
shell $-1 $-1 $-1 $32 $-1 $12 #
shell $-1 $-1 $-1 $33 $-1 $13 #
shell $-1 $-1 $-1 $34 $-1 $14 #
shell $-1 $-1 $-1 $35 $-1 $15 #
shell $-1 $-1 $-1 $36 $-1 $16 #
shell $-1 $-1 $-1 $37 $-1 $17 #
shell $-1 $-1 $-1 $38 $-1 $18 #
shell $-1 $-1 $-1 $39 $-1 $19 #
face $-1 $40 $41 $20 $-1 $42 forward single #
face $-1 $43 $44 $21 $-1 $45 forward single #
face $-1 $46 $47 $22 $-1 $48 forward single #
face $-1 $49 $50 $23 $-1 $51 forward single #
face $-1 $52 $53 $24 $-1 $54 forward single #
face $-1 $55 $56 $25 $-1 $57 forward single #
face $-1 $58 $59 $26 $-1 $60 forward single #
face $-1 $61 $62 $27 $-1 $63 forward single #
face $-1 $64 $65 $28 $-1 $66 forward single #
face $-1 $67 $68 $29 $-1 $69 forward single #
face $-1 $70 $71 $20 $-1 $72 reversed single #
loop $-1 $-1 $73 $30 #
plane-surface $-1 75.50645466475417322 51.24723800992870082 43.24649425054910523 0 0 1 1 0 0 forward_v I I I I #
face $-1 $74 $75 $21 $-1 $76 reversed single #
loop $-1 $-1 $77 $31 #
plane-surface $-1 75.50645466475417322 12.02221392447612835 43.24649425054910523 0 0 1 1 0 0 forward_v I I I I #
face $-1 $78 $79 $22 $-1 $80 reversed single #
loop $-1 $-1 $81 $32 #
plane-surface $-1 206.3672244231785271 73.37193790167233942 357.754637927403337 0.5877852598018022956 0 0.8090169889191003438 0.8090169889191003438 0 -0.5877852598018022956 forward_v I I I I #
face $-1 $82 $83 $23 $-1 $84 forward single #
loop $-1 $85 $86 $33 #
cone-surface $-1 137.7674889228644304 66.63306751115244708 33.33347888628616573 -0.5877852598018022956 0 -0.8090169889191003438 0.8090169889191003438 0 -0.5877852598018022956 1 I I 0 1 1 forward I I I I #
face $-1 $87 $88 $24 $-1 $89 forward single #
loop $-1 $90 $91 $34 #
cone-surface $-1 137.7674889228644304 73.37193790167232521 33.33347888628616573 -0.5877852598018022956 0 -0.8090169889191003438 0.8090169889191003438 0 -0.5877852598018022956 1 I I 0 1 1 forward I I I I #
face $-1 $92 $93 $25 $-1 $94 forward single #
loop $-1 $95 $96 $35 #
cone-surface $-1 137.7674889228644304 80.11080829219220334 33.33347888628616573 -0.5877852598018022956 0 -0.8090169889191003438 0.8090169889191003438 0 -0.5877852598018022956 1 I I 0 1 1 forward I I I I #
face $-1 $97 $98 $26 $-1 $99 reversed single #
loop $-1 $-1 $100 $36 #
plane-surface $-1 -234.7181477259400708 76.75659145801174077 216.7508936036547311 -0.7771459697322561366 0 0.629320380830711068 0.629320380830711068 0 0.7771459697322561366 forward_v I I I I #
face $-1 $101 $102 $27 $-1 $103 forward single #
loop $-1 $104 $105 $37 #
cone-surface $-1 7.452943477785340498 72.43148398643296559 34.35969429611920134 0.7771459697322561366 0 -0.629320380830711068 0.629320380830711068 0 0.7771459697322561366 1 I I 0 1 1 forward I I I I #
face $-1 $106 $107 $28 $-1 $108 forward single #
loop $-1 $109 $110 $38 #
cone-surface $-1 7.452943477785340498 76.75659145801174077 34.35969429611920134 0.7771459697322561366 0 -0.629320380830711068 0.629320380830711068 0 0.7771459697322561366 1 I I 0 1 1 forward I I I I #
face $-1 $111 $112 $29 $-1 $113 forward single #
loop $-1 $114 $115 $39 #
cone-surface $-1 7.452943477785340498 81.08169892959051595 34.35969429611920134 0.7771459697322561366 0 -0.629320380830711068 0.629320380830711068 0 0.7771459697322561366 1 I I 0 1 1 forward I I I I #
face $-1 $116 $117 $20 $-1 $118 reversed single #
loop $-1 $-1 $119 $40 #
plane-surface $-1 75.50645466475417322 51.24723800992870082 0 0 0 1 1 0 0 forward_v I I I I #
coedge $-1 $120 $121 $122 $123 forward $41 $-1 #
face $-1 $124 $125 $21 $-1 $126 reversed single #
loop $-1 $-1 $127 $43 #
plane-surface $-1 75.50645466475417322 12.02221392447612835 33.09458198742466095 0 0 1 1 0 0 forward_v I I I I #
coedge $-1 $128 $129 $130 $131 forward $44 $-1 #
face $-1 $132 $133 $22 $-1 $134 reversed single #
loop $-1 $-1 $135 $46 #
plane-surface $-1 28.84090013583637813 73.37193790167233942 113.4106195400594572 0.5877852598018022956 0 0.8090169889191003438 0.8090169889191003438 0 -0.5877852598018022956 forward_v I I I I #
coedge $-1 $136 $137 $138 $139 forward $47 $-1 #
face $-1 $-1 $140 $23 $-1 $141 forward single #
loop $-1 $-1 $142 $49 #
plane-surface $-1 138.2132205472290423 66.63306751115244708 33.94697582346874754 0.5877852598018022956 0 0.8090169889191003438 -0.8090169889191003438 0 0.5877852598018022956 forward_v I I I I #
loop $-1 $-1 $143 $33 #
coedge $-1 $86 $86 $142 $144 reversed $50 $-1 #
face $-1 $-1 $145 $24 $-1 $146 forward single #
loop $-1 $-1 $147 $52 #
plane-surface $-1 138.2132205472290423 73.37193790167232521 33.94697582346874754 0.5877852598018022956 0 0.8090169889191003438 -0.8090169889191003438 0 0.5877852598018022956 forward_v I I I I #
loop $-1 $-1 $148 $34 #
coedge $-1 $91 $91 $147 $149 reversed $53 $-1 #
face $-1 $-1 $150 $25 $-1 $151 forward single #
loop $-1 $-1 $152 $55 #
plane-surface $-1 138.2132205472290423 80.11080829219220334 33.94697582346874754 0.5877852598018022956 0 0.8090169889191003438 -0.8090169889191003438 0 0.5877852598018022956 forward_v I I I I #
loop $-1 $-1 $153 $35 #
coedge $-1 $96 $96 $152 $154 reversed $56 $-1 #
face $-1 $155 $156 $26 $-1 $157 reversed single #
loop $-1 $-1 $158 $58 #
plane-surface $-1 1.421085471520200372e-14 76.75659145801174077 26.67989038445506367 -0.7771459697322561366 0 0.629320380830711068 0.629320380830711068 0 0.7771459697322561366 forward_v I I I I #
coedge $-1 $159 $160 $161 $162 forward $59 $-1 #
face $-1 $-1 $163 $27 $-1 $164 forward single #
loop $-1 $-1 $165 $61 #
plane-surface $-1 6.70768546716759051 72.43148398643296559 34.96319231750208445 -0.7771459697322561366 0 0.629320380830711068 -0.629320380830711068 0 -0.7771459697322561366 forward_v I I I I #
loop $-1 $-1 $166 $37 #
coedge $-1 $105 $105 $165 $167 reversed $62 $-1 #
face $-1 $-1 $168 $28 $-1 $169 forward single #
loop $-1 $-1 $170 $64 #
plane-surface $-1 6.70768546716759051 76.75659145801174077 34.96319231750208445 -0.7771459697322561366 0 0.629320380830711068 -0.629320380830711068 0 -0.7771459697322561366 forward_v I I I I #
loop $-1 $-1 $171 $38 #
coedge $-1 $110 $110 $170 $172 reversed $65 $-1 #
face $-1 $-1 $173 $29 $-1 $174 forward single #
loop $-1 $-1 $175 $67 #
plane-surface $-1 6.70768546716759051 81.08169892959051595 34.96319231750208445 -0.7771459697322561366 0 0.629320380830711068 -0.629320380830711068 0 -0.7771459697322561366 forward_v I I I I #
loop $-1 $-1 $176 $39 #
coedge $-1 $115 $115 $175 $177 reversed $68 $-1 #
face $-1 $178 $179 $20 $-1 $180 reversed single #
loop $-1 $-1 $181 $70 #
plane-surface $-1 75.50645466475417322 0 21.62324712527455262 0 1 0 0 0 1 forward_v I I I I #
coedge $-1 $182 $183 $184 $185 forward $71 $-1 #
coedge $-1 $186 $73 $187 $188 forward $41 $-1 #
coedge $-1 $73 $186 $189 $190 forward $41 $-1 #
coedge $-1 $191 $192 $73 $123 reversed $193 $-1 #
edge $-1 $194 -51.24723800992870082 $195 51.24723800992870082 $122 $196 forward 7 unknown #
face $-1 $197 $198 $21 $-1 $199 reversed single #
loop $-1 $-1 $200 $74 #
plane-surface $-1 75.50645466475417322 0 38.17053811898688309 0 1 0 0 0 1 forward_v I I I I #
coedge $-1 $201 $202 $203 $204 forward $75 $-1 #
coedge $-1 $205 $77 $206 $207 forward $44 $-1 #
coedge $-1 $77 $205 $208 $209 forward $44 $-1 #
coedge $-1 $210 $211 $77 $131 reversed $212 $-1 #
edge $-1 $213 -12.02221392447612835 $214 12.02221392447612835 $130 $215 forward 7 unknown #
face $-1 $216 $217 $22 $-1 $218 reversed single #
loop $-1 $-1 $219 $78 #
plane-surface $-1 117.6040622795074597 62.14048725080586877 235.5826287337314113 0 1 0 0.5877852598018022956 0 0.8090169889191003438 forward_v I I I I #
coedge $-1 $220 $221 $222 $223 forward $79 $-1 #
coedge $-1 $224 $81 $225 $226 forward $47 $-1 #
coedge $-1 $81 $224 $227 $228 forward $47 $-1 #
coedge $-1 $229 $230 $81 $139 reversed $231 $-1 #
edge $-1 $232 -11.23145065086647065 $233 11.23145065086646355 $138 $234 forward 7 unknown #
loop $-1 $235 $236 $82 #
cone-surface $-1 137.0278646685989088 66.63306751115244708 32.3154734546440281 -0.5877852598018022956 0 -0.8090169889191003438 0.4045084944595501719 0 -0.2938926299009011478 1 I I -0.7071067811865474617 0.7071067811865474617 0.5 forward I I I I #
coedge $-1 $142 $142 $86 $144 forward $83 $-1 #
coedge $-1 $143 $143 $236 $237 forward $85 $-1 #
edge $-1 $238 0 $238 6.283185307179586232 $142 $239 forward 7 unknown #
loop $-1 $240 $241 $87 #
cone-surface $-1 137.0278646685989088 73.37193790167232521 32.3154734546440281 -0.5877852598018022956 0 -0.8090169889191003438 0.4045084944595501719 0 -0.2938926299009011478 1 I I -0.7071067811865474617 0.7071067811865474617 0.5 forward I I I I #
coedge $-1 $147 $147 $91 $149 forward $88 $-1 #
coedge $-1 $148 $148 $241 $242 forward $90 $-1 #
edge $-1 $243 0 $243 6.283185307179586232 $147 $244 forward 7 unknown #
loop $-1 $245 $246 $92 #
cone-surface $-1 137.0278646685989088 80.11080829219220334 32.3154734546440281 -0.5877852598018022956 0 -0.8090169889191003438 0.4045084944595501719 0 -0.2938926299009011478 1 I I -0.7071067811865474617 0.7071067811865474617 0.5 forward I I I I #
coedge $-1 $152 $152 $96 $154 forward $93 $-1 #
coedge $-1 $153 $153 $246 $247 forward $95 $-1 #
edge $-1 $248 0 $248 6.283185307179586232 $152 $249 forward 7 unknown #
face $-1 $250 $251 $26 $-1 $252 reversed single #
loop $-1 $-1 $253 $97 #
plane-surface $-1 -117.3590738629700212 69.54807900538044407 121.7153919940548974 0 1 0 -0.7771459697322561366 0 0.629320380830711068 forward_v I I I I #
coedge $-1 $254 $255 $256 $257 forward $98 $-1 #
coedge $-1 $258 $100 $259 $260 forward $59 $-1 #
coedge $-1 $100 $258 $261 $262 forward $59 $-1 #
coedge $-1 $263 $264 $100 $162 reversed $265 $-1 #
edge $-1 $266 -7.208512452631296696 $267 7.208512452631296696 $161 $268 forward 7 unknown #
loop $-1 $269 $270 $101 #
cone-surface $-1 8.586774473269219499 72.43148398643296559 33.44153608432095837 0.7771459697322561366 0 -0.629320380830711068 0.314660190415355534 0 0.3885729848661280683 1 I I -0.7071067811865474617 0.7071067811865474617 0.5 forward I I I I #
coedge $-1 $165 $165 $105 $167 forward $102 $-1 #
coedge $-1 $166 $166 $270 $271 forward $104 $-1 #
edge $-1 $272 0 $272 6.283185307179586232 $165 $273 forward 7 unknown #
loop $-1 $274 $275 $106 #
cone-surface $-1 8.586774473269219499 76.75659145801174077 33.44153608432095837 0.7771459697322561366 0 -0.629320380830711068 0.314660190415355534 0 0.3885729848661280683 1 I I -0.7071067811865474617 0.7071067811865474617 0.5 forward I I I I #
coedge $-1 $170 $170 $110 $172 forward $107 $-1 #
coedge $-1 $171 $171 $275 $276 forward $109 $-1 #
edge $-1 $277 0 $277 6.283185307179586232 $170 $278 forward 7 unknown #
loop $-1 $279 $280 $111 #
cone-surface $-1 8.586774473269219499 81.08169892959051595 33.44153608432095837 0.7771459697322561366 0 -0.629320380830711068 0.314660190415355534 0 0.3885729848661280683 1 I I -0.7071067811865474617 0.7071067811865474617 0.5 forward I I I I #
coedge $-1 $175 $175 $115 $177 forward $112 $-1 #
coedge $-1 $176 $176 $280 $281 forward $114 $-1 #
edge $-1 $282 0 $282 6.283185307179586232 $175 $283 forward 7 unknown #
face $-1 $284 $285 $20 $-1 $286 reversed single #
loop $-1 $-1 $287 $116 #
plane-surface $-1 0 51.24723800992870082 21.62324712527455262 1 0 0 0 0 -1 forward_v I I I I #
coedge $-1 $288 $189 $289 $290 forward $117 $-1 #
coedge $-1 $291 $119 $288 $292 forward $71 $-1 #
coedge $-1 $119 $291 $293 $294 forward $71 $-1 #
coedge $-1 $192 $191 $119 $185 reversed $193 $-1 #
edge $-1 $295 -51.24723800992870082 $296 51.24723800992870082 $184 $297 forward 7 unknown #
coedge $-1 $121 $120 $298 $299 forward $41 $-1 #
coedge $-1 $300 $301 $120 $188 reversed $285 $-1 #
edge $-1 $195 -75.50645466475417322 $302 75.50645466475417322 $187 $303 forward 7 unknown #
coedge $-1 $181 $304 $121 $190 reversed $117 $-1 #
edge $-1 $305 -75.50645466475417322 $194 75.50645466475417322 $189 $306 forward 7 unknown #
coedge $-1 $184 $122 $304 $307 forward $193 $-1 #
coedge $-1 $122 $184 $300 $308 reversed $193 $-1 #
loop $-1 $-1 $191 $284 #
vertex $-1 $123 $309 #
vertex $-1 $123 $310 #
straight-curve $-1 151.0129093295083464 51.24723800992870082 43.24649425054910523 0 1 0 I I #
face $-1 $311 $312 $21 $-1 $313 reversed single #
loop $-1 $-1 $314 $124 #
plane-surface $-1 0 12.02221392447612835 38.17053811898688309 1 0 0 0 0 -1 forward_v I I I I #
coedge $-1 $315 $208 $316 $317 forward $125 $-1 #
coedge $-1 $318 $127 $315 $319 forward $75 $-1 #
coedge $-1 $127 $318 $320 $321 forward $75 $-1 #
coedge $-1 $211 $210 $127 $204 reversed $212 $-1 #
edge $-1 $322 -12.02221392447612835 $323 12.02221392447612835 $203 $324 forward 7 unknown #
coedge $-1 $129 $128 $325 $326 forward $44 $-1 #
coedge $-1 $327 $328 $128 $207 reversed $312 $-1 #
edge $-1 $214 -75.50645466475417322 $329 75.50645466475417322 $206 $330 forward 7 unknown #
coedge $-1 $200 $331 $129 $209 reversed $125 $-1 #
edge $-1 $332 -75.50645466475417322 $213 75.50645466475417322 $208 $333 forward 7 unknown #
coedge $-1 $203 $130 $331 $334 forward $212 $-1 #
coedge $-1 $130 $203 $327 $335 reversed $212 $-1 #
loop $-1 $-1 $210 $311 #
vertex $-1 $131 $336 #
vertex $-1 $131 $337 #
straight-curve $-1 151.0129093295083464 12.02221392447612835 43.24649425054910523 0 1 0 I I #
face $-1 $338 $339 $22 $-1 $340 reversed single #
loop $-1 $-1 $341 $132 #
plane-surface $-1 -126.7399561078364485 73.37193790167233942 413.1089530210736029 0.8090169889191003438 0 -0.5877852598018022956 -0.5877852598018022956 0 -0.8090169889191003438 forward_v I I I I #
coedge $-1 $342 $227 $343 $344 forward $133 $-1 #
coedge $-1 $345 $135 $342 $346 forward $79 $-1 #
coedge $-1 $135 $345 $347 $348 forward $79 $-1 #
coedge $-1 $230 $229 $135 $223 reversed $231 $-1 #
edge $-1 $349 -11.23145065086646355 $350 11.23145065086647065 $222 $351 forward 7 unknown #
coedge $-1 $137 $136 $352 $353 forward $47 $-1 #
coedge $-1 $354 $355 $136 $226 reversed $339 $-1 #
edge $-1 $233 -302.025818659016636 $356 302.0258186590166929 $225 $357 forward 7 unknown #
coedge $-1 $219 $358 $137 $228 reversed $133 $-1 #
edge $-1 $359 -302.0258186590166929 $232 302.025818659016636 $227 $360 forward 7 unknown #
coedge $-1 $222 $138 $358 $361 forward $231 $-1 #
coedge $-1 $138 $222 $354 $362 reversed $231 $-1 #
loop $-1 $-1 $229 $338 #
vertex $-1 $139 $363 #
vertex $-1 $139 $364 #
straight-curve $-1 450.7112428105224353 73.37193790167233942 180.2283136400612022 0 1 0 I I #
loop $-1 $-1 $365 $82 #
coedge $-1 $236 $236 $143 $237 reversed $140 $-1 #
edge $-1 $366 0 $366 6.283185307179586232 $236 $367 forward 7 unknown #
vertex $-1 $144 $368 #
ellipse-curve $-1 138.2132205472290423 66.63306751115244708 33.94697582346874754 0.5877852598018022956 0 0.8090169889191003438 0.8090169889191003438 0 -0.5877852598018022956 1 I I #
loop $-1 $-1 $369 $87 #
coedge $-1 $241 $241 $148 $242 reversed $145 $-1 #
edge $-1 $370 0 $370 6.283185307179586232 $241 $371 forward 7 unknown #
vertex $-1 $149 $372 #
ellipse-curve $-1 138.2132205472290423 73.37193790167232521 33.94697582346874754 0.5877852598018022956 0 0.8090169889191003438 0.8090169889191003438 0 -0.5877852598018022956 1 I I #
loop $-1 $-1 $373 $92 #
coedge $-1 $246 $246 $153 $247 reversed $150 $-1 #
edge $-1 $374 0 $374 6.283185307179586232 $246 $375 forward 7 unknown #
vertex $-1 $154 $376 #
ellipse-curve $-1 138.2132205472290423 80.11080829219220334 33.94697582346874754 0.5877852598018022956 0 0.8090169889191003438 0.8090169889191003438 0 -0.5877852598018022956 1 I I #
face $-1 $377 $378 $26 $-1 $379 reversed single #
loop $-1 $-1 $380 $155 #
plane-surface $-1 -307.4300770821697029 76.75659145801174077 -113.0027557318851734 0.629320380830711068 0 0.7771459697322561366 0.7771459697322561366 0 -0.629320380830711068 forward_v I I I I #
coedge $-1 $381 $261 $382 $383 forward $156 $-1 #
coedge $-1 $384 $158 $381 $385 forward $98 $-1 #
coedge $-1 $158 $384 $386 $387 forward $98 $-1 #
coedge $-1 $264 $263 $158 $257 reversed $265 $-1 #
edge $-1 $388 -7.208512452631296696 $389 7.208512452631296696 $256 $390 forward 7 unknown #
coedge $-1 $160 $159 $391 $392 forward $59 $-1 #
coedge $-1 $393 $394 $159 $260 reversed $378 $-1 #
edge $-1 $267 -302.0258186590166929 $395 302.0258186590166929 $259 $396 forward 7 unknown #
coedge $-1 $253 $397 $160 $262 reversed $156 $-1 #
edge $-1 $398 -302.0258186590166929 $266 302.0258186590166929 $261 $399 forward 7 unknown #
coedge $-1 $256 $161 $397 $400 forward $265 $-1 #
coedge $-1 $161 $256 $393 $401 reversed $265 $-1 #
loop $-1 $-1 $263 $377 #
vertex $-1 $162 $402 #
vertex $-1 $162 $403 #
straight-curve $-1 -44.64714450674038915 76.75659145801174077 451.4690413295948019 0 1 0 I I #
loop $-1 $-1 $404 $101 #
coedge $-1 $270 $270 $166 $271 reversed $163 $-1 #
edge $-1 $405 0 $405 6.283185307179586232 $270 $406 forward 7 unknown #
vertex $-1 $167 $407 #
ellipse-curve $-1 6.70768546716759051 72.43148398643296559 34.96319231750208445 -0.7771459697322561366 0 0.629320380830711068 0.629320380830711068 0 0.7771459697322561366 1 I I #
loop $-1 $-1 $408 $106 #
coedge $-1 $275 $275 $171 $276 reversed $168 $-1 #
edge $-1 $409 0 $409 6.283185307179586232 $275 $410 forward 7 unknown #
vertex $-1 $172 $411 #
ellipse-curve $-1 6.70768546716759051 76.75659145801174077 34.96319231750208445 -0.7771459697322561366 0 0.629320380830711068 0.629320380830711068 0 0.7771459697322561366 1 I I #
loop $-1 $-1 $412 $111 #
coedge $-1 $280 $280 $176 $281 reversed $173 $-1 #
edge $-1 $413 0 $413 6.283185307179586232 $280 $414 forward 7 unknown #
vertex $-1 $177 $415 #
ellipse-curve $-1 6.70768546716759051 81.08169892959051595 34.96319231750208445 -0.7771459697322561366 0 0.629320380830711068 0.629320380830711068 0 0.7771459697322561366 1 I I #
face $-1 $-1 $193 $20 $-1 $416 reversed single #
loop $-1 $-1 $300 $178 #
plane-surface $-1 75.50645466475417322 102.4944760198574016 21.62324712527455262 0 -1 0 0 0 -1 forward_v I I I I #
coedge $-1 $417 $298 $301 $418 forward $179 $-1 #
coedge $-1 $304 $181 $182 $292 reversed $117 $-1 #
coedge $-1 $298 $417 $181 $290 reversed $179 $-1 #
edge $-1 $305 -21.62324712527455262 $419 21.62324712527455262 $289 $420 forward 7 unknown #
coedge $-1 $183 $182 $417 $421 forward $71 $-1 #
edge $-1 $296 -75.50645466475417322 $419 75.50645466475417322 $288 $422 forward 7 unknown #
coedge $-1 $301 $300 $183 $294 reversed $285 $-1 #
edge $-1 $423 -75.50645466475417322 $295 75.50645466475417322 $293 $424 forward 7 unknown #
vertex $-1 $185 $425 #
vertex $-1 $307 $426 #
straight-curve $-1 151.0129093295083464 51.24723800992870082 0 0 -1 0 I I #
coedge $-1 $287 $289 $186 $299 reversed $179 $-1 #
edge $-1 $302 -51.24723800992870082 $305 51.24723800992870082 $298 $427 forward 7 unknown #
coedge $-1 $293 $187 $192 $308 forward $285 $-1 #
coedge $-1 $187 $293 $287 $418 reversed $285 $-1 #
vertex $-1 $188 $428 #
straight-curve $-1 75.50645466475417322 102.4944760198574016 43.24649425054910523 -1 0 0 I I #
coedge $-1 $189 $288 $191 $307 reversed $117 $-1 #
vertex $-1 $299 $429 #
straight-curve $-1 75.50645466475417322 0 43.24649425054910523 1 0 0 I I #
edge $-1 $194 -21.62324712527455262 $296 21.62324712527455262 $191 $430 forward 7 unknown #
edge $-1 $195 -21.62324712527455262 $295 21.62324712527455262 $192 $431 forward 7 unknown #
point $-1 151.0129093295083464 0 43.24649425054910523 #
point $-1 151.0129093295083464 102.4944760198574016 43.24649425054910523 #
face $-1 $-1 $212 $21 $-1 $432 reversed single #
loop $-1 $-1 $327 $197 #
plane-surface $-1 75.50645466475417322 24.04442784895225671 38.17053811898688309 0 -1 0 0 0 -1 forward_v I I I I #
coedge $-1 $433 $325 $328 $434 forward $198 $-1 #
coedge $-1 $331 $200 $201 $319 reversed $125 $-1 #
coedge $-1 $325 $433 $200 $317 reversed $198 $-1 #
edge $-1 $332 -5.07595613156222214 $435 5.07595613156222214 $316 $436 forward 7 unknown #
coedge $-1 $202 $201 $433 $437 forward $75 $-1 #
edge $-1 $323 -75.50645466475417322 $435 75.50645466475417322 $315 $438 forward 7 unknown #
coedge $-1 $328 $327 $202 $321 reversed $312 $-1 #
edge $-1 $439 -75.50645466475417322 $322 75.50645466475417322 $320 $440 forward 7 unknown #
vertex $-1 $204 $441 #
vertex $-1 $334 $442 #
straight-curve $-1 151.0129093295083464 12.02221392447612835 33.09458198742466095 0 -1 0 I I #
coedge $-1 $314 $316 $205 $326 reversed $198 $-1 #
edge $-1 $329 -12.02221392447612835 $332 12.02221392447612835 $325 $443 forward 7 unknown #
coedge $-1 $320 $206 $211 $335 forward $312 $-1 #
coedge $-1 $206 $320 $314 $434 reversed $312 $-1 #
vertex $-1 $207 $444 #
straight-curve $-1 75.50645466475417322 24.04442784895225671 43.24649425054910523 -1 0 0 I I #
coedge $-1 $208 $315 $210 $334 reversed $125 $-1 #
vertex $-1 $326 $445 #
straight-curve $-1 75.50645466475417322 0 43.24649425054910523 1 0 0 I I #
edge $-1 $213 -5.07595613156222214 $323 5.07595613156222214 $210 $446 forward 7 unknown #
edge $-1 $214 -5.07595613156222214 $322 5.07595613156222214 $211 $447 forward 7 unknown #
point $-1 151.0129093295083464 0 43.24649425054910523 #
point $-1 151.0129093295083464 24.04442784895225671 43.24649425054910523 #
face $-1 $-1 $231 $22 $-1 $448 reversed single #
loop $-1 $-1 $354 $216 #
plane-surface $-1 117.6040622795074597 84.60338855253880297 235.5826287337314113 0 -1 0 -0.5877852598018022956 0 -0.8090169889191003438 forward_v I I I I #
coedge $-1 $449 $352 $355 $450 forward $217 $-1 #
coedge $-1 $358 $219 $220 $346 reversed $133 $-1 #
coedge $-1 $352 $449 $219 $344 reversed $217 $-1 #
edge $-1 $359 -151.0129093295082896 $451 151.0129093295084033 $343 $452 forward 7 unknown #
coedge $-1 $221 $220 $449 $453 forward $79 $-1 #
edge $-1 $350 -302.0258186590166929 $451 302.025818659016636 $342 $454 forward 7 unknown #
coedge $-1 $355 $354 $221 $348 reversed $339 $-1 #
edge $-1 $455 -302.025818659016636 $349 302.0258186590166929 $347 $456 forward 7 unknown #
vertex $-1 $223 $457 #
vertex $-1 $361 $458 #
straight-curve $-1 273.1849185231802721 73.37193790167233942 -64.11570474728270597 0 -1 0 I I #
coedge $-1 $341 $343 $224 $353 reversed $217 $-1 #
edge $-1 $356 -11.23145065086646355 $359 11.23145065086647065 $352 $459 forward 7 unknown #
coedge $-1 $347 $225 $230 $362 forward $339 $-1 #
coedge $-1 $225 $347 $341 $450 reversed $339 $-1 #
vertex $-1 $226 $460 #
straight-curve $-1 206.3672244231785271 84.60338855253880297 357.754637927403337 -0.8090169889191003438 0 0.5877852598018022956 I I #
coedge $-1 $227 $342 $229 $361 reversed $133 $-1 #
vertex $-1 $353 $461 #
straight-curve $-1 206.3672244231785271 62.14048725080586877 357.754637927403337 0.8090169889191003438 0 -0.5877852598018022956 I I #
edge $-1 $232 -151.0129093295083464 $350 151.0129093295083464 $229 $462 forward 7 unknown #
edge $-1 $233 -151.0129093295083464 $349 151.0129093295083464 $230 $463 forward 7 unknown #
point $-1 450.7112428105224353 62.14048725080586877 180.2283136400612022 #
point $-1 450.7112428105224353 84.60338855253880297 180.2283136400612022 #
coedge $-1 $365 $365 $-1 $464 reversed $235 $-1 #
vertex $-1 $237 $465 #
ellipse-curve $-1 137.3217572984998185 66.63306751115244708 32.71998194910357682 0.5877852598018022956 0 0.8090169889191003438 0.8090169889191003438 0 -0.5877852598018022956 1 I I #
point $-1 139.0222375361481397 66.63306751115244708 33.35919056366694946 #
coedge $-1 $369 $369 $-1 $466 reversed $240 $-1 #
vertex $-1 $242 $467 #
ellipse-curve $-1 137.3217572984998185 73.37193790167232521 32.71998194910357682 0.5877852598018022956 0 0.8090169889191003438 0.8090169889191003438 0 -0.5877852598018022956 1 I I #
point $-1 139.0222375361481397 73.37193790167232521 33.35919056366694946 #
coedge $-1 $373 $373 $-1 $468 reversed $245 $-1 #
vertex $-1 $247 $469 #
ellipse-curve $-1 137.3217572984998185 80.11080829219220334 32.71998194910357682 0.5877852598018022956 0 0.8090169889191003438 0.8090169889191003438 0 -0.5877852598018022956 1 I I #
point $-1 139.0222375361481397 80.11080829219220334 33.35919056366694946 #
face $-1 $-1 $265 $26 $-1 $470 reversed single #
loop $-1 $-1 $393 $250 #
plane-surface $-1 -117.3590738629700212 83.96510391064303747 121.7153919940548974 0 -1 0 0.7771459697322561366 0 -0.629320380830711068 forward_v I I I I #
coedge $-1 $471 $391 $394 $472 forward $251 $-1 #
coedge $-1 $397 $253 $254 $385 reversed $156 $-1 #
coedge $-1 $391 $471 $253 $383 reversed $251 $-1 #
edge $-1 $398 -151.0129093295083464 $473 151.012909329508318 $382 $474 forward 7 unknown #
coedge $-1 $255 $254 $471 $475 forward $98 $-1 #
edge $-1 $389 -302.0258186590166929 $473 302.025818659016636 $381 $476 forward 7 unknown #
coedge $-1 $394 $393 $255 $387 reversed $378 $-1 #
edge $-1 $477 -302.025818659016636 $388 302.0258186590166929 $386 $478 forward 7 unknown #
vertex $-1 $257 $479 #
vertex $-1 $400 $480 #
straight-curve $-1 190.0710032191996675 76.75659145801174077 261.3980381103951345 0 -1 0 I I #
coedge $-1 $380 $382 $258 $392 reversed $251 $-1 #
edge $-1 $395 -7.208512452631296696 $398 7.208512452631296696 $391 $481 forward 7 unknown #
coedge $-1 $386 $259 $264 $401 forward $378 $-1 #
coedge $-1 $259 $386 $380 $472 reversed $378 $-1 #
vertex $-1 $260 $482 #
straight-curve $-1 -234.7181477259400708 83.96510391064303747 216.7508936036547311 -0.629320380830711068 0 -0.7771459697322561366 I I #
coedge $-1 $261 $381 $263 $400 reversed $156 $-1 #
vertex $-1 $392 $483 #
straight-curve $-1 -234.7181477259400708 69.54807900538044407 216.7508936036547311 0.629320380830711068 0 0.7771459697322561366 I I #
edge $-1 $266 -151.012909329508318 $389 151.0129093295083464 $263 $484 forward 7 unknown #
edge $-1 $267 -151.012909329508318 $388 151.0129093295083464 $264 $485 forward 7 unknown #
point $-1 -44.64714450674038915 69.54807900538044407 451.4690413295948019 #
point $-1 -44.64714450674038915 83.96510391064303747 451.4690413295948019 #
coedge $-1 $404 $404 $-1 $486 reversed $269 $-1 #
vertex $-1 $271 $487 #
ellipse-curve $-1 8.198201488403091375 72.43148398643296559 33.75619627473631112 -0.7771459697322561366 0 0.629320380830711068 0.629320380830711068 0 0.7771459697322561366 1 I I #
point $-1 7.337005847998302244 72.43148398643296559 35.74033828723434425 #
coedge $-1 $408 $408 $-1 $488 reversed $274 $-1 #
vertex $-1 $276 $489 #
ellipse-curve $-1 8.198201488403091375 76.75659145801174077 33.75619627473631112 -0.7771459697322561366 0 0.629320380830711068 0.629320380830711068 0 0.7771459697322561366 1 I I #
point $-1 7.337005847998302244 76.75659145801174077 35.74033828723434425 #
coedge $-1 $412 $412 $-1 $490 reversed $279 $-1 #
vertex $-1 $281 $491 #
ellipse-curve $-1 8.198201488403091375 81.08169892959051595 33.75619627473631112 -0.7771459697322561366 0 0.629320380830711068 0.629320380830711068 0 0.7771459697322561366 1 I I #
point $-1 7.337005847998302244 81.08169892959051595 35.74033828723434425 #
plane-surface $-1 151.0129093295083464 51.24723800992870082 21.62324712527455262 -1 0 0 0 0 1 forward_v I I I I #
coedge $-1 $289 $287 $291 $421 reversed $179 $-1 #
edge $-1 $302 -21.62324712527455262 $423 21.62324712527455262 $301 $492 forward 7 unknown #
vertex $-1 $421 $493 #
straight-curve $-1 0 0 21.62324712527455262 0 0 -1 I I #
edge $-1 $419 -51.24723800992870082 $423 51.24723800992870082 $417 $494 forward 7 unknown #
straight-curve $-1 75.50645466475417322 0 0 -1 0 0 I I #
vertex $-1 $294 $495 #
straight-curve $-1 75.50645466475417322 102.4944760198574016 0 1 0 0 I I #
point $-1 151.0129093295083464 102.4944760198574016 0 #
point $-1 151.0129093295083464 0 0 #
straight-curve $-1 0 51.24723800992870082 43.24649425054910523 0 -1 0 I I #
point $-1 0 102.4944760198574016 43.24649425054910523 #
point $-1 0 0 43.24649425054910523 #
straight-curve $-1 151.0129093295083464 0 21.62324712527455262 0 0 -1 I I #
straight-curve $-1 151.0129093295083464 102.4944760198574016 21.62324712527455262 0 0 -1 I I #
plane-surface $-1 151.0129093295083464 12.02221392447612835 38.17053811898688309 -1 0 0 0 0 1 forward_v I I I I #
coedge $-1 $316 $314 $318 $437 reversed $198 $-1 #
edge $-1 $329 -5.07595613156222214 $439 5.07595613156222214 $328 $496 forward 7 unknown #
vertex $-1 $437 $497 #
straight-curve $-1 0 0 38.17053811898688309 0 0 -1 I I #
edge $-1 $435 -12.02221392447612835 $439 12.02221392447612835 $433 $498 forward 7 unknown #
straight-curve $-1 75.50645466475417322 0 33.09458198742466095 -1 0 0 I I #
vertex $-1 $321 $499 #
straight-curve $-1 75.50645466475417322 24.04442784895225671 33.09458198742466095 1 0 0 I I #
point $-1 151.0129093295083464 24.04442784895225671 33.09458198742466095 #
point $-1 151.0129093295083464 0 33.09458198742466095 #
straight-curve $-1 0 12.02221392447612835 43.24649425054910523 0 -1 0 I I #
point $-1 0 24.04442784895225671 43.24649425054910523 #
point $-1 0 0 43.24649425054910523 #
straight-curve $-1 151.0129093295083464 0 38.17053811898688309 0 0 -1 I I #
straight-curve $-1 151.0129093295083464 24.04442784895225671 38.17053811898688309 0 0 -1 I I #
plane-surface $-1 361.9480806668513537 73.37193790167233942 58.05630444638924814 -0.8090169889191003438 0 0.5877852598018022956 0.5877852598018022956 0 0.8090169889191003438 forward_v I I I I #
coedge $-1 $343 $341 $345 $453 reversed $217 $-1 #
edge $-1 $356 -151.0129093295082896 $455 151.0129093295084033 $355 $500 forward 7 unknown #
vertex $-1 $453 $501 #
straight-curve $-1 -126.7399561078364485 62.14048725080586877 413.1089530210736029 -0.5877852598018022956 0 -0.8090169889191003438 I I #
edge $-1 $451 -11.23145065086647065 $455 11.23145065086646355 $449 $502 forward 7 unknown #
straight-curve $-1 28.84090013583637813 62.14048725080586877 113.4106195400594572 -0.8090169889191003438 0 0.5877852598018022956 I I #
vertex $-1 $348 $503 #
straight-curve $-1 28.84090013583637813 84.60338855253880297 113.4106195400594572 0.8090169889191003438 0 -0.5877852598018022956 I I #
point $-1 273.1849185231802721 84.60338855253880297 -64.11570474728270597 #
point $-1 273.1849185231802721 62.14048725080586877 -64.11570474728270597 #
straight-curve $-1 -37.9767939641653669 73.37193790167233942 535.2809622147455002 0 -1 0 I I #
point $-1 -37.9767939641653669 84.60338855253880297 535.2809622147455002 #
point $-1 -37.9767939641653669 62.14048725080586877 535.2809622147455002 #
straight-curve $-1 361.9480806668513537 62.14048725080586877 58.05630444638924814 -0.5877852598018022956 0 -0.8090169889191003438 I I #
straight-curve $-1 361.9480806668513537 84.60338855253880297 58.05630444638924814 -0.5877852598018022956 0 -0.8090169889191003438 I I #
edge $-1 $504 1 $504 0 $365 $-1 forward 7 unknown #
point $-1 138.1307742874189159 66.63306751115244708 32.13219668930177875 #
edge $-1 $505 1 $505 0 $369 $-1 forward 7 unknown #
point $-1 138.1307742874189159 73.37193790167232521 32.13219668930177875 #
edge $-1 $506 1 $506 0 $373 $-1 forward 7 unknown #
point $-1 138.1307742874189159 80.11080829219220334 32.13219668930177875 #
plane-surface $-1 72.71192935622964626 76.75659145801174077 356.4335397199949966 -0.629320380830711068 0 -0.7771459697322561366 -0.7771459697322561366 0 0.629320380830711068 forward_v I I I I #
coedge $-1 $382 $380 $384 $475 reversed $251 $-1 #
edge $-1 $395 -151.0129093295083464 $477 151.012909329508318 $394 $507 forward 7 unknown #
vertex $-1 $475 $508 #
straight-curve $-1 -307.4300770821697029 69.54807900538044407 -113.0027557318851734 0.7771459697322561366 0 -0.629320380830711068 I I #
edge $-1 $473 -7.208512452631296696 $477 7.208512452631296696 $471 $509 forward 7 unknown #
straight-curve $-1 1.421085471520200372e-14 69.54807900538044407 26.67989038445506367 -0.629320380830711068 0 -0.7771459697322561366 I I #
vertex $-1 $387 $510 #
straight-curve $-1 1.421085471520200372e-14 83.96510391064303747 26.67989038445506367 0.629320380830711068 0 0.7771459697322561366 I I #
point $-1 190.0710032191996675 83.96510391064303747 261.3980381103951345 #
point $-1 190.0710032191996675 69.54807900538044407 261.3980381103951345 #
straight-curve $-1 -424.7891509451397383 76.75659145801174077 -17.96725412228533969 0 -1 0 I I #
point $-1 -424.7891509451397383 83.96510391064303747 -17.96725412228533969 #
point $-1 -424.7891509451397383 69.54807900538044407 -17.96725412228533969 #
straight-curve $-1 72.71192935622964626 69.54807900538044407 356.4335397199949966 0.7771459697322561366 0 -0.629320380830711068 I I #
straight-curve $-1 72.71192935622964626 83.96510391064303747 356.4335397199949966 0.7771459697322561366 0 -0.629320380830711068 I I #
edge $-1 $511 1 $511 0 $404 $-1 forward 7 unknown #
point $-1 8.827521869233802221 72.43148398643296559 34.53334224446857093 #
edge $-1 $512 1 $512 0 $408 $-1 forward 7 unknown #
point $-1 8.827521869233802221 76.75659145801174077 34.53334224446857093 #
edge $-1 $513 1 $513 0 $412 $-1 forward 7 unknown #
point $-1 8.827521869233802221 81.08169892959051595 34.53334224446857093 #
straight-curve $-1 0 102.4944760198574016 21.62324712527455262 0 0 -1 I I #
point $-1 0 0 0 #
straight-curve $-1 0 51.24723800992870082 0 0 1 0 I I #
point $-1 0 102.4944760198574016 0 #
straight-curve $-1 0 24.04442784895225671 38.17053811898688309 0 0 -1 I I #
point $-1 0 0 33.09458198742466095 #
straight-curve $-1 0 12.02221392447612835 33.09458198742466095 0 1 0 I I #
point $-1 0 24.04442784895225671 33.09458198742466095 #
straight-curve $-1 -126.7399561078364485 84.60338855253880297 413.1089530210736029 -0.5877852598018022956 0 -0.8090169889191003438 I I #
point $-1 -215.5031182515075443 62.14048725080586877 290.936943827401592 #
straight-curve $-1 -215.5031182515075443 73.37193790167233942 290.936943827401592 0 1 0 I I #
point $-1 -215.5031182515075443 84.60338855253880297 290.936943827401592 #
vertex $-1 $464 $514 #
vertex $-1 $466 $515 #
vertex $-1 $468 $516 #
straight-curve $-1 -307.4300770821697029 83.96510391064303747 -113.0027557318851734 0.7771459697322561366 0 -0.629320380830711068 I I #
point $-1 -190.0710032191996675 69.54807900538044407 -208.0382573414849787 #
straight-curve $-1 -190.0710032191996675 76.75659145801174077 -208.0382573414849787 0 1 0 I I #
point $-1 -190.0710032191996675 83.96510391064303747 -208.0382573414849787 #
vertex $-1 $486 $517 #
vertex $-1 $488 $518 #
vertex $-1 $490 $519 #
point $-1 136.7339720386979991 66.63306751115244708 31.91096496018447937 #
point $-1 136.7339720386979991 73.37193790167232521 31.91096496018447937 #
point $-1 136.7339720386979991 80.11080829219220334 31.91096496018447937 #
point $-1 8.975347458135347622 72.43148398643296559 33.12687589390560561 #
point $-1 8.975347458135347622 76.75659145801174077 33.12687589390560561 #
point $-1 8.975347458135347622 81.08169892959051595 33.12687589390560561 #
End-of-ACIS-data 