600 0 7 0           
95 GICL ACIS Healer - Source: /gicl/data5/repository/Drexel/SM99-DATA/part129.smdg.delta.sat - 6 0 18 ACIS 6.0.3 Solaris 24 Sat Apr 13 20:45:47 2002 
1 9.999999999999999547e-07 1.000000000000000036e-10 
body $-1 $7 $-1 $-1 #
body $-1 $8 $-1 $-1 #
body $-1 $9 $-1 $-1 #
body $-1 $10 $-1 $-1 #
body $-1 $11 $-1 $-1 #
body $-1 $12 $-1 $-1 #
body $-1 $13 $-1 $-1 #
lump $-1 $-1 $14 $0 #
lump $-1 $-1 $15 $1 #
lump $-1 $-1 $16 $2 #
lump $-1 $-1 $17 $3 #
lump $-1 $-1 $18 $4 #
lump $-1 $-1 $19 $5 #
lump $-1 $-1 $20 $6 #
shell $-1 $-1 $-1 $21 $-1 $7 #
shell $-1 $-1 $-1 $22 $-1 $8 #
shell $-1 $-1 $-1 $23 $-1 $9 #
shell $-1 $-1 $-1 $24 $-1 $10 #
shell $-1 $-1 $-1 $25 $-1 $11 #
shell $-1 $-1 $-1 $26 $-1 $12 #
shell $-1 $-1 $-1 $27 $-1 $13 #
face $-1 $28 $29 $14 $-1 $30 forward single #
face $-1 $31 $32 $15 $-1 $33 reversed single #
face $-1 $34 $35 $16 $-1 $36 reversed single #
face $-1 $37 $38 $17 $-1 $39 reversed single #
face $-1 $40 $41 $18 $-1 $42 forward single #
face $-1 $43 $44 $19 $-1 $45 reversed single #
face $-1 $46 $47 $20 $-1 $48 forward single #
face $-1 $49 $50 $14 $-1 $51 reversed single #
loop $-1 $-1 $52 $21 #
plane-surface $-1 42.2217474898525964 17.37113016938385712 9.635948856616561642 0 0 1 1 0 0 forward_v I I I I #
face $-1 $53 $54 $15 $-1 $55 reversed single #
loop $-1 $-1 $56 $22 #
plane-surface $-1 1.825022305526452726 17.37113016938385712 6.635948856616561642 0 0 1 1 0 0 forward_v I I I I #
face $-1 $57 $58 $16 $-1 $59 reversed single #
loop $-1 $-1 $60 $23 #
plane-surface $-1 82.61847267417874718 17.37113016938385712 6.635948856616561642 0 0 1 1 0 0 forward_v I I I I #
face $-1 $61 $62 $17 $-1 $63 reversed single #
loop $-1 $-1 $64 $24 #
plane-surface $-1 20.10768958627608072 66.92370567889665267 91.53368989984029724 1 0 0 0 -0.6819983681709311796 -0.7313536940579346002 forward_v I I I I #
face $-1 $65 $66 $18 $-1 $67 forward single #
loop $-1 $68 $69 $25 #
cone-surface $-1 28.4641659669734608 32.18475893034257496 7.15990572332180264 0 -0.6819983681709311796 -0.7313536940579346002 1 0 0 1 I I 0 1 1 forward I I I I #
face $-1 $70 $71 $19 $-1 $72 reversed single #
loop $-1 $-1 $73 $26 #
plane-surface $-1 36.82064234767084088 -57.59032577880917358 67.83952504223105962 -1 0 0 0 -0.6819983681709311796 0.7313536940579346002 forward_v I I I I #
face $-1 $74 $75 $20 $-1 $76 forward single #
loop $-1 $77 $78 $27 #
cone-surface $-1 28.4641659669734608 2.557501408425139289 7.159905723321804416 0 0.6819983681709311796 -0.7313536940579346002 1 0 0 1 I I 0 1 1 forward I I I I #
face $-1 $79 $80 $14 $-1 $81 reversed single #
loop $-1 $-1 $82 $28 #
plane-surface $-1 42.2217474898525964 17.37113016938385712 0 0 0 1 1 0 0 forward_v I I I I #
coedge $-1 $83 $84 $85 $86 forward $29 $-1 #
face $-1 $87 $88 $15 $-1 $89 reversed single #
loop $-1 $-1 $90 $31 #
plane-surface $-1 3.650044611052905452 17.37113016938385712 8.135948856616561642 -1 0 0 0 0 1 forward_v I I I I #
coedge $-1 $91 $92 $93 $94 forward $32 $-1 #
face $-1 $95 $96 $16 $-1 $97 forward single #
loop $-1 $-1 $98 $34 #
plane-surface $-1 80.79345036865228735 17.37113016938385712 8.135948856616561642 1 0 0 0 0 -1 forward_v I I I I #
coedge $-1 $99 $100 $101 $102 reversed $35 $-1 #
face $-1 $103 $104 $17 $-1 $105 reversed single #
loop $-1 $-1 $106 $37 #
plane-surface $-1 28.4641659669734608 9.333379900087489744 29.77562790727025543 0 0.6819983681709311796 0.7313536940579346002 1 0 0 forward_v I I I I #
coedge $-1 $107 $108 $109 $110 reversed $38 $-1 #
face $-1 $-1 $111 $18 $-1 $112 forward single #
loop $-1 $113 $114 $40 #
cone-surface $-1 28.4641659669734608 31.19211797527167818 6.09542864647585958 0 -0.6819983681709311796 -0.7313536940579346002 0.5 0 0 1 I I -0.7071067811865474617 0.7071067811865474617 0.5 forward I I I I #
loop $-1 $-1 $115 $25 #
coedge $-1 $69 $69 $116 $117 reversed $41 $-1 #
face $-1 $118 $119 $19 $-1 $120 reversed single #
loop $-1 $-1 $121 $43 #
plane-surface $-1 28.4641659669734608 -1.776356839400250465e-14 6.081463049661008924 0 -0.6819983681709311796 0.7313536940579346002 1 0 0 forward_v I I I I #
coedge $-1 $122 $123 $124 $125 reversed $44 $-1 #
face $-1 $-1 $126 $20 $-1 $127 forward single #
loop $-1 $128 $129 $46 #
cone-surface $-1 28.4641659669734608 3.550142363496036069 6.095428646475861356 0 0.6819983681709311796 -0.7313536940579346002 0.5 0 0 1 I I -0.7071067811865474617 0.7071067811865474617 0.5 forward I I I I #
loop $-1 $-1 $130 $27 #
coedge $-1 $78 $78 $131 $132 reversed $47 $-1 #
face $-1 $133 $134 $14 $-1 $135 reversed single #
loop $-1 $-1 $136 $49 #
plane-surface $-1 42.2217474898525964 0 4.817974428308280821 0 1 0 0 0 1 forward_v I I I I #
coedge $-1 $137 $138 $139 $140 forward $50 $-1 #
coedge $-1 $141 $52 $142 $143 forward $29 $-1 #
coedge $-1 $52 $141 $144 $145 forward $29 $-1 #
coedge $-1 $146 $147 $52 $86 reversed $148 $-1 #
edge $-1 $149 -17.37113016938385712 $150 17.37113016938385712 $85 $151 forward 7 unknown #
face $-1 $152 $153 $15 $-1 $154 reversed single #
loop $-1 $-1 $155 $53 #
plane-surface $-1 42.2217474898525964 34.74226033876771425 4.817974428308280821 0 -1 0 0 0 -1 forward_v I I I I #
coedge $-1 $93 $156 $157 $158 reversed $54 $-1 #
coedge $-1 $159 $56 $160 $161 reversed $32 $-1 #
coedge $-1 $56 $159 $162 $163 reversed $32 $-1 #
coedge $-1 $164 $90 $56 $94 reversed $54 $-1 #
edge $-1 $165 -17.37113016938385712 $166 17.37113016938385712 $93 $167 forward 7 unknown #
face $-1 $168 $169 $16 $-1 $170 reversed single #
loop $-1 $-1 $171 $57 #
plane-surface $-1 42.2217474898525964 17.37113016938385712 9.635948856616561642 0 0 1 1 0 0 forward_v I I I I #
coedge $-1 $172 $173 $174 $175 reversed $58 $-1 #
coedge $-1 $176 $60 $177 $178 reversed $35 $-1 #
coedge $-1 $60 $176 $179 $180 reversed $35 $-1 #
coedge $-1 $181 $182 $60 $102 forward $183 $-1 #
edge $-1 $184 -17.37113016938385712 $185 17.37113016938385712 $101 $186 forward 7 unknown #
face $-1 $187 $188 $17 $-1 $189 reversed single #
loop $-1 $-1 $190 $61 #
plane-surface $-1 36.82064234767084088 66.92370567889665267 91.53368989984029724 -1 0 0 0 0.6819983681709311796 0.7313536940579346002 forward_v I I I I #
coedge $-1 $191 $192 $193 $194 reversed $62 $-1 #
coedge $-1 $108 $64 $195 $196 reversed $38 $-1 #
coedge $-1 $64 $107 $191 $197 reversed $38 $-1 #
coedge $-1 $193 $198 $64 $110 forward $199 $-1 #
edge $-1 $200 7.405157585372542428 $201 11.21687686025193642 $109 $202 forward 7 unknown #
loop $-1 $-1 $116 $65 #
plane-surface $-1 28.4641659669734608 9.333379900087489744 29.77562790727025543 0 0.6819983681709311796 0.7313536940579346002 1 0 0 forward_v I I I I #
loop $-1 $-1 $203 $40 #
coedge $-1 $114 $114 $115 $204 reversed $66 $-1 #
coedge $-1 $115 $115 $114 $204 forward $68 $-1 #
coedge $-1 $116 $116 $69 $117 forward $111 $-1 #
edge $-1 $205 -1.912853831361897762e-15 $205 6.283185307179584456 $116 $206 forward 7 unknown #
face $-1 $207 $208 $19 $-1 $209 forward single #
loop $-1 $-1 $210 $70 #
plane-surface $-1 20.10768958627608072 -57.59032577880917358 67.83952504223105962 1 0 0 0 0.6819983681709311796 -0.7313536940579346002 forward_v I I I I #
coedge $-1 $211 $212 $213 $214 reversed $71 $-1 #
coedge $-1 $123 $73 $215 $216 reversed $44 $-1 #
coedge $-1 $73 $122 $211 $217 reversed $44 $-1 #
coedge $-1 $213 $218 $73 $125 forward $208 $-1 #
edge $-1 $219 20.10959780471266001 $220 23.92131707959205045 $124 $221 forward 7 unknown #
loop $-1 $-1 $131 $74 #
plane-surface $-1 28.4641659669734608 -1.776356839400250465e-14 6.081463049661008924 0 -0.6819983681709311796 0.7313536940579346002 1 0 0 forward_v I I I I #
loop $-1 $-1 $222 $46 #
coedge $-1 $129 $129 $130 $223 reversed $75 $-1 #
coedge $-1 $130 $130 $129 $223 forward $77 $-1 #
coedge $-1 $131 $131 $78 $132 forward $126 $-1 #
edge $-1 $224 1.307117598481776116e-15 $224 6.28318530717958712 $131 $225 forward 7 unknown #
face $-1 $226 $227 $14 $-1 $228 reversed single #
loop $-1 $-1 $229 $79 #
plane-surface $-1 0 17.37113016938385712 4.817974428308280821 1 0 0 0 0 -1 forward_v I I I I #
coedge $-1 $230 $144 $231 $232 forward $80 $-1 #
coedge $-1 $233 $82 $230 $234 forward $50 $-1 #
coedge $-1 $82 $233 $235 $236 forward $50 $-1 #
coedge $-1 $147 $146 $82 $140 reversed $148 $-1 #
edge $-1 $237 -17.37113016938385712 $238 17.37113016938385712 $139 $239 forward 7 unknown #
coedge $-1 $84 $83 $240 $241 forward $29 $-1 #
coedge $-1 $242 $243 $83 $143 reversed $227 $-1 #
edge $-1 $150 -42.2217474898525964 $244 42.2217474898525964 $142 $245 forward 7 unknown #
coedge $-1 $136 $246 $84 $145 reversed $80 $-1 #
edge $-1 $247 -42.2217474898525964 $149 42.2217474898525964 $144 $248 forward 7 unknown #
coedge $-1 $139 $85 $246 $249 forward $148 $-1 #
coedge $-1 $85 $139 $242 $250 reversed $148 $-1 #
loop $-1 $-1 $146 $226 #
vertex $-1 $86 $251 #
vertex $-1 $86 $252 #
straight-curve $-1 84.4434949797051928 17.37113016938385712 9.635948856616561642 0 1 0 I I #
face $-1 $253 $254 $15 $-1 $255 forward single #
loop $-1 $-1 $256 $87 #
plane-surface $-1 0 17.37113016938385712 4.817974428308280821 1 0 0 0 0 -1 forward_v I I I I #
coedge $-1 $162 $257 $164 $258 forward $88 $-1 #
coedge $-1 $90 $164 $259 $260 reversed $54 $-1 #
coedge $-1 $261 $160 $90 $158 forward $262 $-1 #
edge $-1 $166 0.1589872141541404105 $263 3.15898721415414041 $157 $264 forward 7 unknown #
coedge $-1 $92 $91 $256 $265 reversed $32 $-1 #
coedge $-1 $157 $266 $91 $161 forward $262 $-1 #
edge $-1 $267 -22.02338489768952456 $166 -18.37334028663661911 $160 $268 forward 7 unknown #
coedge $-1 $269 $155 $92 $163 forward $88 $-1 #
edge $-1 $165 18.37334028663661911 $270 22.02338489768952456 $162 $271 forward 7 unknown #
coedge $-1 $156 $93 $155 $258 reversed $54 $-1 #
vertex $-1 $163 $272 #
vertex $-1 $161 $273 #
straight-curve $-1 3.650044611052905452 17.37113016938385712 6.635948856616561642 0 -1 0 I I #
face $-1 $274 $275 $16 $-1 $276 reversed single #
loop $-1 $-1 $277 $95 #
plane-surface $-1 42.2217474898525964 0 4.817974428308280821 0 1 0 0 0 1 forward_v I I I I #
coedge $-1 $278 $279 $173 $280 forward $96 $-1 #
coedge $-1 $281 $98 $176 $282 reversed $58 $-1 #
coedge $-1 $98 $281 $171 $280 reversed $58 $-1 #
coedge $-1 $283 $179 $98 $175 forward $275 $-1 #
edge $-1 $284 0.1589872141541404105 $285 3.15898721415414041 $174 $286 forward 7 unknown #
coedge $-1 $100 $99 $172 $282 forward $35 $-1 #
coedge $-1 $287 $277 $99 $178 forward $169 $-1 #
edge $-1 $288 18.37334028663661911 $184 22.02338489768953878 $177 $289 forward 7 unknown #
coedge $-1 $174 $290 $100 $180 forward $275 $-1 #
edge $-1 $185 -22.02338489768953878 $284 -18.37334028663661911 $179 $291 forward 7 unknown #
coedge $-1 $292 $101 $290 $293 reversed $183 $-1 #
coedge $-1 $101 $292 $287 $294 forward $183 $-1 #
loop $-1 $-1 $101 $274 #
vertex $-1 $178 $295 #
vertex $-1 $102 $296 #
straight-curve $-1 84.4434949797051928 17.37113016938385712 6.635948856616561642 0 1 0 I I #
face $-1 $-1 $199 $17 $-1 $297 forward single #
loop $-1 $-1 $298 $103 #
plane-surface $-1 42.2217474898525964 34.74226033876771425 4.817974428308280821 0 -1 0 0 0 -1 forward_v I I I I #
coedge $-1 $299 $300 $301 $302 reversed $104 $-1 #
coedge $-1 $303 $106 $108 $197 forward $62 $-1 #
coedge $-1 $106 $303 $299 $304 forward $62 $-1 #
coedge $-1 $301 $109 $106 $194 forward $199 $-1 #
edge $-1 $201 -15.23526714213694788 $305 1.477685619257812277 $193 $306 forward 7 unknown #
coedge $-1 $307 $308 $107 $196 forward $188 $-1 #
edge $-1 $309 -42.09436911441326856 $200 -38.53988330745772828 $195 $310 forward 7 unknown #
edge $-1 $201 29.53039184634240399 $309 34.74226033876769293 $108 $311 forward 7 unknown #
coedge $-1 $109 $301 $307 $312 forward $199 $-1 #
loop $-1 $-1 $301 $187 #
vertex $-1 $196 $313 #
vertex $-1 $110 $314 #
straight-curve $-1 20.10768958627608072 42.14741792414025667 9.635948856616563418 0 -1 0 I I #
coedge $-1 $203 $203 $-1 $315 reversed $113 $-1 #
edge $-1 $316 0 $316 6.283185307179586232 $114 $317 forward 7 unknown #
vertex $-1 $117 $318 #
ellipse-curve $-1 28.4641659669734608 32.83640070132801725 7.8587059531387915 0 0.6819983681709311796 0.7313536940579346002 1 0 0 1 I I #
face $-1 $-1 $319 $19 $-1 $320 reversed single #
loop $-1 $-1 $124 $118 #
plane-surface $-1 42.2217474898525964 17.37113016938385712 9.635948856616561642 0 0 1 1 0 0 forward_v I I I I #
coedge $-1 $321 $322 $323 $324 reversed $119 $-1 #
coedge $-1 $325 $121 $123 $217 forward $71 $-1 #
coedge $-1 $121 $325 $321 $326 forward $71 $-1 #
coedge $-1 $323 $124 $121 $214 forward $208 $-1 #
edge $-1 $220 -1.477685619257812277 $327 15.23526714213694788 $213 $328 forward 7 unknown #
coedge $-1 $329 $330 $122 $216 forward $319 $-1 #
edge $-1 $331 -30.24728668560864264 $219 -26.69280087865310591 $215 $332 forward 7 unknown #
edge $-1 $220 -5.211868492425309363 $331 -2.450043978932681868e-14 $123 $333 forward 7 unknown #
coedge $-1 $124 $323 $329 $334 forward $208 $-1 #
vertex $-1 $216 $335 #
vertex $-1 $125 $336 #
straight-curve $-1 36.82064234767084088 -20.10959780471266001 9.635948856616563418 0 1 0 I I #
coedge $-1 $222 $222 $-1 $337 reversed $128 $-1 #
edge $-1 $338 0 $338 6.283185307179586232 $129 $339 forward 7 unknown #
vertex $-1 $132 $340 #
ellipse-curve $-1 28.4641659669734608 1.90585963743969522 7.858705953138794165 0 -0.6819983681709311796 0.7313536940579346002 1 0 0 1 I I #
face $-1 $-1 $148 $14 $-1 $341 reversed single #
loop $-1 $-1 $242 $133 #
plane-surface $-1 42.2217474898525964 34.74226033876771425 4.817974428308280821 0 -1 0 0 0 -1 forward_v I I I I #
coedge $-1 $342 $240 $243 $343 forward $134 $-1 #
coedge $-1 $246 $136 $137 $234 reversed $80 $-1 #
coedge $-1 $240 $342 $136 $232 reversed $134 $-1 #
edge $-1 $247 -4.817974428308280821 $344 4.817974428308280821 $231 $345 forward 7 unknown #
coedge $-1 $138 $137 $342 $346 forward $50 $-1 #
edge $-1 $238 -42.2217474898525964 $344 42.2217474898525964 $230 $347 forward 7 unknown #
coedge $-1 $243 $242 $138 $236 reversed $227 $-1 #
edge $-1 $348 -42.2217474898525964 $237 42.2217474898525964 $235 $349 forward 7 unknown #
vertex $-1 $140 $350 #
vertex $-1 $249 $351 #
straight-curve $-1 84.4434949797051928 17.37113016938385712 0 0 -1 0 I I #
coedge $-1 $229 $231 $141 $241 reversed $134 $-1 #
edge $-1 $244 -17.37113016938385712 $247 17.37113016938385712 $240 $352 forward 7 unknown #
coedge $-1 $235 $142 $147 $250 forward $227 $-1 #
coedge $-1 $142 $235 $229 $343 reversed $227 $-1 #
vertex $-1 $143 $353 #
straight-curve $-1 42.2217474898525964 34.74226033876771425 9.635948856616561642 -1 0 0 I I #
coedge $-1 $144 $230 $146 $249 reversed $80 $-1 #
vertex $-1 $241 $354 #
straight-curve $-1 42.2217474898525964 0 9.635948856616561642 1 0 0 I I #
edge $-1 $149 -4.817974428308280821 $238 4.817974428308280821 $146 $355 forward 7 unknown #
edge $-1 $150 -4.817974428308280821 $237 4.817974428308280821 $147 $356 forward 7 unknown #
point $-1 84.4434949797051928 0 9.635948856616561642 #
point $-1 84.4434949797051928 34.74226033876771425 9.635948856616561642 #
face $-1 $-1 $262 $15 $-1 $357 reversed single #
loop $-1 $-1 $259 $152 #
plane-surface $-1 42.2217474898525964 17.37113016938385712 9.635948856616561642 0 0 1 1 0 0 forward_v I I I I #
coedge $-1 $358 $359 $159 $265 forward $153 $-1 #
coedge $-1 $155 $269 $360 $361 reversed $88 $-1 #
edge $-1 $362 -3.15898721415414041 $165 -0.1589872141541404105 $155 $363 forward 7 unknown #
coedge $-1 $360 $364 $156 $260 forward $254 $-1 #
edge $-1 $263 -17.37113016938385712 $362 17.37113016938385712 $259 $365 forward 7 unknown #
coedge $-1 $266 $157 $364 $366 reversed $262 $-1 #
loop $-1 $-1 $157 $253 #
vertex $-1 $158 $367 #
straight-curve $-1 3.650044611052905452 0 6.476961642462421231 0 0 1 I I #
edge $-1 $270 -17.37113016938385712 $267 17.37113016938385712 $256 $368 forward 7 unknown #
coedge $-1 $160 $261 $358 $369 forward $262 $-1 #
vertex $-1 $265 $370 #
straight-curve $-1 22.02338489768952456 0 6.635948856616561642 1 0 0 I I #
coedge $-1 $257 $162 $359 $371 reversed $88 $-1 #
vertex $-1 $265 $372 #
straight-curve $-1 22.02338489768952456 34.74226033876771425 6.635948856616561642 -1 0 0 I I #
point $-1 3.650044611052905452 34.74226033876771425 6.635948856616561642 #
point $-1 3.650044611052905452 0 6.635948856616561642 #
face $-1 $-1 $183 $16 $-1 $373 reversed single #
loop $-1 $-1 $174 $168 #
plane-surface $-1 42.2217474898525964 34.74226033876771425 4.817974428308280821 0 -1 0 0 0 -1 forward_v I I I I #
coedge $-1 $177 $374 $281 $375 forward $169 $-1 #
coedge $-1 $376 $171 $374 $377 forward $96 $-1 #
coedge $-1 $171 $376 $283 $378 forward $96 $-1 #
edge $-1 $285 -17.37113016938385712 $379 17.37113016938385712 $171 $380 forward 7 unknown #
coedge $-1 $173 $172 $277 $375 reversed $58 $-1 #
edge $-1 $288 -17.37113016938385712 $284 17.37113016938385712 $172 $381 forward 7 unknown #
coedge $-1 $290 $174 $279 $378 reversed $275 $-1 #
vertex $-1 $180 $382 #
vertex $-1 $175 $383 #
straight-curve $-1 80.79345036865228735 34.74226033876771425 6.476961642462421231 0 0 1 I I #
coedge $-1 $374 $177 $182 $294 reversed $169 $-1 #
vertex $-1 $178 $384 #
straight-curve $-1 62.42011008201566824 0 6.635948856616561642 1 0 0 I I #
coedge $-1 $179 $283 $181 $293 forward $275 $-1 #
straight-curve $-1 62.42011008201566824 34.74226033876771425 6.635948856616561642 -1 0 0 I I #
coedge $-1 $182 $181 $376 $385 reversed $183 $-1 #
edge $-1 $386 -4.817974428308280821 $185 -1.817974428308280821 $181 $387 forward 7 unknown #
edge $-1 $388 -4.817974428308280821 $184 -1.817974428308280821 $182 $389 forward 7 unknown #
point $-1 84.44349497970520702 0 6.635948856616561642 #
point $-1 84.44349497970520702 34.74226033876771425 6.635948856616561642 #
plane-surface $-1 42.2217474898525964 17.37113016938385712 9.635948856616561642 0 0 1 1 0 0 forward_v I I I I #
coedge $-1 $308 $307 $300 $390 forward $188 $-1 #
coedge $-1 $300 $190 $192 $304 reversed $104 $-1 #
coedge $-1 $190 $299 $298 $390 reversed $104 $-1 #
coedge $-1 $198 $193 $190 $302 forward $199 $-1 #
edge $-1 $305 -11.21687686025193642 $391 -7.405157585372542428 $301 $392 forward 7 unknown #
coedge $-1 $192 $191 $308 $393 reversed $62 $-1 #
edge $-1 $394 -34.74226033876769293 $305 -29.53039184634240399 $299 $395 forward 7 unknown #
vertex $-1 $194 $396 #
straight-curve $-1 35.3429567284130286 30.93054106388832025 9.635948856616563418 1 0 0 I I #
coedge $-1 $298 $195 $198 $312 reversed $188 $-1 #
coedge $-1 $195 $298 $303 $393 forward $188 $-1 #
vertex $-1 $196 $397 #
straight-curve $-1 20.10768958627608072 34.74226033876771425 48.17583216407429347 0 0 1 I I #
straight-curve $-1 20.10768958627608072 9.333379900087489744 29.77562790727025543 0 0.7313536940579346002 -0.6819983681709311796 I I #
edge $-1 $391 5.401105142181755525 $200 22.11405790357651568 $307 $398 forward 7 unknown #
point $-1 20.10768958627608072 34.74226033876771425 9.635948856616561642 #
point $-1 20.10768958627608072 30.93054106388832025 9.635948856616563418 #
edge $-1 $399 1 $399 0 $203 $-1 forward 7 unknown #
vertex $-1 $204 $400 #
ellipse-curve $-1 28.4641659669734608 31.53311715935714332 6.461105493504827102 0 0.6819983681709311796 0.7313536940579346002 1 0 0 1 I I #
point $-1 29.4641659669734608 32.83640070132800304 7.858705953138779066 #
loop $-1 $-1 $215 $207 #
plane-surface $-1 42.2217474898525964 0 4.817974428308280821 0 1 0 0 0 1 forward_v I I I I #
coedge $-1 $322 $210 $212 $326 reversed $119 $-1 #
coedge $-1 $210 $321 $401 $402 reversed $119 $-1 #
coedge $-1 $218 $213 $210 $324 forward $208 $-1 #
edge $-1 $327 -23.92131707959205045 $403 -20.10959780471266001 $323 $404 forward 7 unknown #
coedge $-1 $212 $211 $330 $405 reversed $71 $-1 #
edge $-1 $406 2.450043978932681868e-14 $327 5.211868492425309363 $321 $407 forward 7 unknown #
vertex $-1 $214 $408 #
straight-curve $-1 35.3429567284130286 3.811719274879392216 9.635948856616561642 -1 0 0 I I #
coedge $-1 $401 $215 $218 $334 reversed $319 $-1 #
coedge $-1 $215 $401 $325 $405 forward $319 $-1 #
vertex $-1 $216 $409 #
straight-curve $-1 36.82064234767084088 0 36.32874973526966755 0 0 1 I I #
straight-curve $-1 36.82064234767084088 -1.776356839400250465e-14 6.081463049661008924 0 -0.7313536940579346002 -0.6819983681709311796 I I #
edge $-1 $403 -22.11405790357651568 $219 -5.401105142181755525 $329 $410 forward 7 unknown #
point $-1 36.82064234767084088 0 9.635948856616561642 #
point $-1 36.82064234767084088 3.81171927487939044 9.635948856616561642 #
edge $-1 $411 1 $411 0 $222 $-1 forward 7 unknown #
vertex $-1 $223 $412 #
ellipse-curve $-1 28.4641659669734608 3.209143179410570923 6.461105493504828878 0 -0.6819983681709311796 0.7313536940579346002 1 0 0 1 I I #
point $-1 29.4641659669734608 1.905859637439709431 7.858705953138780842 #
plane-surface $-1 84.4434949797051928 17.37113016938385712 4.817974428308280821 -1 0 0 0 0 1 forward_v I I I I #
coedge $-1 $231 $229 $233 $346 reversed $134 $-1 #
edge $-1 $244 -4.817974428308280821 $348 4.817974428308280821 $243 $413 forward 7 unknown #
vertex $-1 $346 $414 #
straight-curve $-1 0 0 4.817974428308280821 0 0 -1 I I #
edge $-1 $344 -17.37113016938385712 $348 17.37113016938385712 $342 $415 forward 7 unknown #
straight-curve $-1 42.2217474898525964 0 0 -1 0 0 I I #
vertex $-1 $236 $416 #
straight-curve $-1 42.2217474898525964 34.74226033876771425 0 1 0 0 I I #
point $-1 84.4434949797051928 34.74226033876771425 0 #
point $-1 84.4434949797051928 0 0 #
straight-curve $-1 0 17.37113016938385712 9.635948856616561642 0 -1 0 I I #
point $-1 0 34.74226033876771425 9.635948856616561642 #
point $-1 0 0 9.635948856616561642 #
straight-curve $-1 84.4434949797051928 0 4.817974428308280821 0 0 -1 I I #
straight-curve $-1 84.4434949797051928 34.74226033876771425 4.817974428308280821 0 0 -1 I I #
plane-surface $-1 42.2217474898525964 0 4.817974428308280821 0 1 0 0 0 1 forward_v I I I I #
coedge $-1 $417 $256 $266 $369 reversed $153 $-1 #
coedge $-1 $256 $417 $269 $371 forward $153 $-1 #
coedge $-1 $418 $259 $257 $361 forward $254 $-1 #
edge $-1 $362 38.57170287879969095 $419 42.2217474898525964 $257 $420 forward 7 unknown #
vertex $-1 $361 $421 #
straight-curve $-1 3.650044611052905452 34.74226033876771425 6.476961642462421231 0 0 -1 I I #
coedge $-1 $259 $418 $261 $366 forward $254 $-1 #
straight-curve $-1 3.650044611052905452 17.37113016938385712 9.635948856616561642 0 1 0 I I #
edge $-1 $422 -42.2217474898525964 $263 -38.57170287879969095 $261 $423 forward 7 unknown #
point $-1 3.650044611052905452 0 9.635948856616561642 #
straight-curve $-1 0 17.37113016938385712 6.635948856616561642 0 -1 0 I I #
edge $-1 $422 -4.817974428308280821 $267 -1.817974428308280821 $358 $424 forward 7 unknown #
point $-1 0 0 6.635948856616561642 #
edge $-1 $419 -4.817974428308280821 $270 -1.817974428308280821 $269 $425 forward 7 unknown #
point $-1 0 34.74226033876771425 6.635948856616561642 #
plane-surface $-1 84.4434949797051928 17.37113016938385712 4.817974428308280821 -1 0 0 0 0 1 forward_v I I I I #
coedge $-1 $277 $287 $278 $377 reversed $169 $-1 #
edge $-1 $379 -3.15898721415414041 $288 -0.1589872141541404105 $277 $426 forward 7 unknown #
coedge $-1 $279 $278 $292 $385 forward $96 $-1 #
edge $-1 $379 38.57170287879969095 $388 42.2217474898525964 $374 $427 forward 7 unknown #
edge $-1 $386 -42.2217474898525964 $285 -38.57170287879969095 $283 $428 forward 7 unknown #
vertex $-1 $377 $429 #
straight-curve $-1 80.79345036865228735 17.37113016938385712 9.635948856616561642 0 -1 0 I I #
straight-curve $-1 80.79345036865228735 17.37113016938385712 6.635948856616561642 0 1 0 I I #
point $-1 80.79345036865228735 34.74226033876771425 6.635948856616561642 #
point $-1 80.79345036865228735 34.74226033876771425 9.635948856616561642 #
point $-1 80.79345036865228735 0 6.635948856616561642 #
edge $-1 $388 -17.37113016938385712 $386 17.37113016938385712 $292 $430 forward 7 unknown #
vertex $-1 $385 $431 #
straight-curve $-1 84.4434949797051928 34.74226033876771425 4.817974428308280821 0 0 -1 I I #
vertex $-1 $385 $432 #
straight-curve $-1 84.4434949797051928 0 4.817974428308280821 0 0 -1 I I #
edge $-1 $391 38.53988330745772828 $394 42.09436911441326856 $298 $433 forward 7 unknown #
vertex $-1 $312 $434 #
straight-curve $-1 36.82064234767084088 42.14741792414025667 9.635948856616563418 0 1 0 I I #
edge $-1 $394 -1.477685619257812277 $309 15.23526714213694788 $308 $435 forward 7 unknown #
vertex $-1 $393 $436 #
straight-curve $-1 36.82064234767084088 9.333379900087489744 29.77562790727025543 0 -0.7313536940579346002 0.6819983681709311796 I I #
point $-1 36.82064234767084088 30.93054106388832025 9.635948856616563418 #
point $-1 20.10768958627608072 34.74226033876770714 6.081463049661023135 #
straight-curve $-1 42.2217474898525964 34.74226033876771425 9.635948856616561642 -1 0 0 I I #
vertex $-1 $315 $437 #
point $-1 29.4641659669734608 31.53311715935714332 6.461105493504827102 #
coedge $-1 $330 $329 $322 $402 forward $319 $-1 #
edge $-1 $403 26.69280087865310591 $406 30.24728668560864264 $401 $438 forward 7 unknown #
vertex $-1 $334 $439 #
straight-curve $-1 20.10768958627608072 -20.10959780471266001 9.635948856616563418 0 -1 0 I I #
edge $-1 $406 -15.23526714213694788 $331 1.477685619257812277 $330 $440 forward 7 unknown #
vertex $-1 $405 $441 #
straight-curve $-1 20.10768958627608072 -1.776356839400250465e-14 6.081463049661008924 0 0.7313536940579346002 0.6819983681709311796 I I #
point $-1 20.10768958627608072 3.81171927487939044 9.635948856616561642 #
point $-1 36.82064234767084088 0 6.081463049661025799 #
straight-curve $-1 42.2217474898525964 0 9.635948856616561642 1 0 0 I I #
vertex $-1 $337 $442 #
point $-1 29.4641659669734608 3.209143179410570923 6.461105493504828878 #
straight-curve $-1 0 34.74226033876771425 4.817974428308280821 0 0 -1 I I #
point $-1 0 0 0 #
straight-curve $-1 0 17.37113016938385712 0 0 1 0 I I #
point $-1 0 34.74226033876771425 0 #
coedge $-1 $359 $358 $418 $443 reversed $153 $-1 #
coedge $-1 $364 $360 $417 $443 forward $254 $-1 #
vertex $-1 $361 $444 #
straight-curve $-1 42.2217474898525964 34.74226033876771425 9.635948856616561642 -1 0 0 I I #
point $-1 3.650044611052905452 34.74226033876771425 9.635948856616561642 #
vertex $-1 $443 $445 #
straight-curve $-1 42.2217474898525964 0 9.635948856616561642 1 0 0 I I #
straight-curve $-1 0 0 4.817974428308280821 0 0 -1 I I #
straight-curve $-1 0 34.74226033876771425 4.817974428308280821 0 0 -1 I I #
straight-curve $-1 80.79345036865228735 0 6.476961642462421231 0 0 -1 I I #
straight-curve $-1 42.2217474898525964 0 9.635948856616561642 1 0 0 I I #
straight-curve $-1 42.2217474898525964 34.74226033876771425 9.635948856616561642 -1 0 0 I I #
point $-1 80.79345036865228735 0 9.635948856616561642 #
straight-curve $-1 84.4434949797051928 17.37113016938385712 9.635948856616561642 0 1 0 I I #
point $-1 84.4434949797051928 34.74226033876771425 9.635948856616561642 #
point $-1 84.4434949797051928 0 9.635948856616561642 #
straight-curve $-1 36.82064234767084088 34.74226033876771425 48.17583216407429347 0 0 -1 I I #
point $-1 36.82064234767084088 34.74226033876771425 9.635948856616561642 #
straight-curve $-1 35.3429567284130286 34.74226033876771425 6.081463049661023135 -1 0 0 I I #
point $-1 36.82064234767084088 34.74226033876770714 6.081463049661023135 #
point $-1 28.4641659669734608 30.85111879118621303 5.729751799446892058 #
straight-curve $-1 20.10768958627608072 0 36.32874973526966755 0 0 -1 I I #
point $-1 20.10768958627608072 0 9.635948856616561642 #
straight-curve $-1 35.3429567284130286 0 6.081463049661027576 1 0 0 I I #
point $-1 20.10768958627608072 0 6.081463049661025799 #
point $-1 28.4641659669734608 3.891141547581501214 5.729751799446893834 #
edge $-1 $419 -17.37113016938385712 $422 17.37113016938385712 $417 $446 forward 7 unknown #
point $-1 0 34.74226033876771425 9.635948856616561642 #
point $-1 0 0 9.635948856616561642 #
straight-curve $-1 0 17.37113016938385712 9.635948856616561642 0 -1 0 I I #
End-of-ACIS-data 