600 0 10 0           
96 GICL ACIS Healer - Source: /gicl/data5/repository/Drexel/SM99-DATA/part102.smdg.deltas.sat - 6 0 18 ACIS 6.0.3 Solaris 24 Sat Apr 13 20:43:06 2002 
1 9.999999999999999547e-07 1.000000000000000036e-10 
body $-1 $10 $-1 $-1 #
body $-1 $11 $-1 $-1 #
body $-1 $12 $-1 $-1 #
body $-1 $13 $-1 $-1 #
body $-1 $14 $-1 $-1 #
body $-1 $15 $-1 $-1 #
body $-1 $16 $-1 $-1 #
body $-1 $17 $-1 $-1 #
body $-1 $18 $-1 $-1 #
body $-1 $19 $-1 $-1 #
lump $-1 $-1 $20 $0 #
lump $-1 $-1 $21 $1 #
lump $-1 $-1 $22 $2 #
lump $-1 $-1 $23 $3 #
lump $-1 $-1 $24 $4 #
lump $-1 $-1 $25 $5 #
lump $-1 $-1 $26 $6 #
lump $-1 $-1 $27 $7 #
lump $-1 $-1 $28 $8 #
lump $-1 $-1 $29 $9 #
shell $-1 $-1 $-1 $30 $-1 $10 #
shell $-1 $-1 $-1 $31 $-1 $11 #
shell $-1 $-1 $-1 $32 $-1 $12 #
shell $-1 $-1 $-1 $33 $-1 $13 #
shell $-1 $-1 $-1 $34 $-1 $14 #
shell $-1 $-1 $-1 $35 $-1 $15 #
shell $-1 $-1 $-1 $36 $-1 $16 #
shell $-1 $-1 $-1 $37 $-1 $17 #
shell $-1 $-1 $-1 $38 $-1 $18 #
shell $-1 $-1 $-1 $39 $-1 $19 #
face $-1 $40 $41 $20 $-1 $42 forward single #
face $-1 $43 $44 $21 $-1 $45 reversed single #
face $-1 $46 $47 $22 $-1 $48 reversed single #
face $-1 $49 $50 $23 $-1 $51 forward single #
face $-1 $52 $53 $24 $-1 $54 forward single #
face $-1 $55 $56 $25 $-1 $57 forward single #
face $-1 $58 $59 $26 $-1 $60 reversed single #
face $-1 $61 $62 $27 $-1 $63 forward single #
face $-1 $64 $65 $28 $-1 $66 forward single #
face $-1 $67 $68 $29 $-1 $69 forward single #
face $-1 $70 $71 $20 $-1 $72 reversed single #
loop $-1 $-1 $73 $30 #
plane-surface $-1 57.94976653340251005 35.40352798086239261 25.71047917499329571 0 0 1 1 0 0 forward_v I I I I #
face $-1 $74 $75 $21 $-1 $76 reversed single #
loop $-1 $-1 $77 $31 #
plane-surface $-1 3.188603160111668444 11.51319761321383339 12.85523958749664786 0 -1 0 0 0 -1 forward_v I I I I #
face $-1 $78 $79 $22 $-1 $80 reversed single #
loop $-1 $-1 $81 $32 #
plane-surface $-1 -87.47048890950594568 26.40711008086623224 91.67276658088968588 0 -1 0 0.754709588511349283 0 -0.6560590194555896426 forward_v I I I I #
face $-1 $82 $83 $23 $-1 $84 forward single #
loop $-1 $85 $86 $33 #
cone-surface $-1 4.80163030479229036 14.49198010674431458 20.30566310818383613 0.754709588511349394 0 -0.6560590194555897536 0.6560590194555896426 0 0.754709588511349283 1 I I 0 1 0.999999999999999889 forward I I I I #
face $-1 $87 $88 $24 $-1 $89 forward single #
loop $-1 $90 $91 $34 #
cone-surface $-1 4.80163030479229036 18.96015384704003282 20.30566310818383613 0.754709588511349394 0 -0.6560590194555897536 0.6560590194555896426 0 0.754709588511349283 1 I I 0 1 0.999999999999999889 forward I I I I #
face $-1 $92 $93 $25 $-1 $94 forward single #
loop $-1 $95 $96 $35 #
cone-surface $-1 4.80163030479229036 23.42832758733575105 20.30566310818383613 0.754709588511349394 0 -0.6560590194555897536 0.6560590194555896426 0 0.754709588511349283 1 I I 0 1 0.999999999999999889 forward I I I I #
face $-1 $97 $98 $26 $-1 $99 reversed single #
loop $-1 $-1 $100 $36 #
plane-surface $-1 107.321321403183461 17.81575324727643306 183.9051974473757411 0 -1 0 -0.6691306144064093075 0 -0.7431448182313465933 forward_v I I I I #
face $-1 $101 $102 $27 $-1 $103 forward single #
loop $-1 $104 $105 $37 #
cone-surface $-1 112.3294793842796935 12.77370874002635404 22.38607102319635089 -0.6691306144064093075 0 -0.7431448182313465933 0.3715724091156732967 0 -0.3345653072032046538 1 I I 0 1 0.5 forward I I I I #
face $-1 $106 $107 $28 $-1 $108 forward single #
loop $-1 $109 $110 $38 #
cone-surface $-1 112.3294793842796935 14.66447543024513323 22.38607102319635089 -0.6691306144064093075 0 -0.7431448182313465933 0.3715724091156732967 0 -0.3345653072032046538 1 I I 0 1 0.5 forward I I I I #
face $-1 $111 $112 $29 $-1 $113 forward single #
loop $-1 $114 $115 $39 #
cone-surface $-1 112.3294793842796935 16.55524212046391597 22.38607102319635089 -0.6691306144064093075 0 -0.7431448182313465933 0.3715724091156732967 0 -0.3345653072032046538 1 I I 0 1 0.5 forward I I I I #
face $-1 $116 $117 $20 $-1 $118 reversed single #
loop $-1 $-1 $119 $40 #
plane-surface $-1 57.94976653340251005 35.40352798086239261 0 0 0 1 1 0 0 forward_v I I I I #
coedge $-1 $120 $121 $122 $123 forward $41 $-1 #
face $-1 $124 $125 $21 $-1 $126 forward single #
loop $-1 $-1 $127 $43 #
plane-surface $-1 6.377206320223336888 5.756598806606916696 12.85523958749664786 -1 0 0 0 0 1 forward_v I I I I #
coedge $-1 $128 $129 $130 $131 forward $44 $-1 #
face $-1 $132 $133 $22 $-1 $134 forward single #
loop $-1 $-1 $135 $46 #
plane-surface $-1 -1.421085471520200372e-14 18.96015384704003282 15.63583256172089619 -0.754709588511349394 0 0.6560590194555897536 0.6560590194555896426 0 0.754709588511349283 forward_v I I I I #
coedge $-1 $136 $137 $138 $139 reversed $47 $-1 #
face $-1 $-1 $140 $23 $-1 $141 forward single #
loop $-1 $142 $143 $49 #
cone-surface $-1 5.601737171020729988 14.49198010674431458 19.61014083828276711 0.754709588511349394 0 -0.6560590194555897536 0.3280295097277948213 0 0.3773547942556746415 1 I I -0.7071067811865474617 0.7071067811865474617 0.4999999999999999445 forward I I I I #
loop $-1 $-1 $144 $33 #
coedge $-1 $86 $86 $145 $146 reversed $50 $-1 #
face $-1 $-1 $147 $24 $-1 $148 forward single #
loop $-1 $149 $150 $52 #
cone-surface $-1 5.601737171020729988 18.96015384704003282 19.61014083828276711 0.754709588511349394 0 -0.6560590194555897536 0.3280295097277948213 0 0.3773547942556746415 1 I I -0.7071067811865474617 0.7071067811865474617 0.4999999999999999445 forward I I I I #
loop $-1 $-1 $151 $34 #
coedge $-1 $91 $91 $152 $153 reversed $53 $-1 #
face $-1 $-1 $154 $25 $-1 $155 forward single #
loop $-1 $156 $157 $55 #
cone-surface $-1 5.601737171020729988 23.42832758733575105 19.61014083828276711 0.754709588511349394 0 -0.6560590194555897536 0.3280295097277948213 0 0.3773547942556746415 1 I I -0.7071067811865474617 0.7071067811865474617 0.4999999999999999445 forward I I I I #
loop $-1 $-1 $158 $35 #
coedge $-1 $96 $96 $159 $160 reversed $56 $-1 #
face $-1 $161 $162 $26 $-1 $163 reversed single #
loop $-1 $-1 $164 $58 #
plane-surface $-1 29.76939563277626632 14.66447543024513323 97.77506001334700159 0.6691306144064093075 0 0.7431448182313465933 0.7431448182313465933 0 -0.6691306144064093075 forward_v I I I I #
coedge $-1 $165 $166 $167 $168 reversed $59 $-1 #
face $-1 $-1 $169 $27 $-1 $170 forward single #
loop $-1 $171 $172 $61 #
cone-surface $-1 111.6392999591552098 12.77370874002635404 21.61954913286832181 -0.6691306144064093075 0 -0.7431448182313465933 0.1857862045578366483 0 -0.1672826536016023269 1 I I -0.7071067811865474617 0.7071067811865474617 0.25 forward I I I I #
loop $-1 $-1 $173 $37 #
coedge $-1 $105 $105 $174 $175 reversed $62 $-1 #
face $-1 $-1 $176 $28 $-1 $177 forward single #
loop $-1 $178 $179 $64 #
cone-surface $-1 111.6392999591552098 14.66447543024513323 21.61954913286832181 -0.6691306144064093075 0 -0.7431448182313465933 0.1857862045578366483 0 -0.1672826536016023269 1 I I -0.7071067811865474617 0.7071067811865474617 0.25 forward I I I I #
loop $-1 $-1 $180 $38 #
coedge $-1 $110 $110 $181 $182 reversed $65 $-1 #
face $-1 $-1 $183 $29 $-1 $184 forward single #
loop $-1 $185 $186 $67 #
cone-surface $-1 111.6392999591552098 16.55524212046391597 21.61954913286832181 -0.6691306144064093075 0 -0.7431448182313465933 0.1857862045578366483 0 -0.1672826536016023269 1 I I -0.7071067811865474617 0.7071067811865474617 0.25 forward I I I I #
loop $-1 $-1 $187 $39 #
coedge $-1 $115 $115 $188 $189 reversed $68 $-1 #
face $-1 $190 $191 $20 $-1 $192 reversed single #
loop $-1 $-1 $193 $70 #
plane-surface $-1 57.94976653340251005 0 12.85523958749664786 0 1 0 0 0 1 forward_v I I I I #
coedge $-1 $194 $195 $196 $197 forward $71 $-1 #
coedge $-1 $198 $73 $199 $200 forward $41 $-1 #
coedge $-1 $73 $198 $201 $202 forward $41 $-1 #
coedge $-1 $203 $204 $73 $123 reversed $205 $-1 #
edge $-1 $206 -35.40352798086239261 $207 35.40352798086239261 $122 $208 forward 7 unknown #
face $-1 $209 $210 $21 $-1 $211 reversed single #
loop $-1 $-1 $212 $74 #
plane-surface $-1 57.94976653340251005 35.40352798086239261 25.71047917499329571 0 0 1 1 0 0 forward_v I I I I #
coedge $-1 $213 $214 $215 $216 reversed $75 $-1 #
coedge $-1 $217 $77 $218 $219 reversed $44 $-1 #
coedge $-1 $77 $217 $220 $221 reversed $44 $-1 #
coedge $-1 $214 $213 $77 $131 reversed $75 $-1 #
edge $-1 $222 -12.85523958749664786 $223 12.85523958749664786 $130 $224 forward 7 unknown #
face $-1 $225 $226 $22 $-1 $227 forward single #
loop $-1 $-1 $228 $78 #
plane-surface $-1 57.94976653340251005 35.40352798086239261 25.71047917499329571 0 0 1 1 0 0 forward_v I I I I #
coedge $-1 $229 $230 $231 $232 reversed $79 $-1 #
coedge $-1 $137 $81 $233 $234 reversed $47 $-1 #
coedge $-1 $81 $136 $229 $235 reversed $47 $-1 #
coedge $-1 $231 $236 $81 $139 forward $237 $-1 #
edge $-1 $238 26.55352390919987471 $239 36.62817052247226002 $138 $240 forward 7 unknown #
loop $-1 $-1 $145 $82 #
plane-surface $-1 -1.421085471520200372e-14 18.96015384704003282 15.63583256172089619 -0.754709588511349394 0 0.6560590194555897536 0.6560590194555896426 0 0.754709588511349283 forward_v I I I I #
loop $-1 $-1 $241 $49 #
coedge $-1 $143 $143 $144 $242 reversed $83 $-1 #
coedge $-1 $144 $144 $143 $242 forward $85 $-1 #
coedge $-1 $145 $145 $86 $146 forward $140 $-1 #
edge $-1 $243 0 $243 6.283185307179586232 $145 $244 forward 7 unknown #
loop $-1 $-1 $152 $87 #
plane-surface $-1 -1.421085471520200372e-14 18.96015384704003282 15.63583256172089619 -0.754709588511349394 0 0.6560590194555897536 0.6560590194555896426 0 0.754709588511349283 forward_v I I I I #
loop $-1 $-1 $245 $52 #
coedge $-1 $150 $150 $151 $246 reversed $88 $-1 #
coedge $-1 $151 $151 $150 $246 forward $90 $-1 #
coedge $-1 $152 $152 $91 $153 forward $147 $-1 #
edge $-1 $247 0 $247 6.283185307179586232 $152 $248 forward 7 unknown #
loop $-1 $-1 $159 $92 #
plane-surface $-1 -1.421085471520200372e-14 18.96015384704003282 15.63583256172089619 -0.754709588511349394 0 0.6560590194555897536 0.6560590194555896426 0 0.754709588511349283 forward_v I I I I #
loop $-1 $-1 $249 $55 #
coedge $-1 $157 $157 $158 $250 reversed $93 $-1 #
coedge $-1 $158 $158 $157 $250 forward $95 $-1 #
coedge $-1 $159 $159 $96 $160 forward $154 $-1 #
edge $-1 $251 0 $251 6.283185307179586232 $159 $252 forward 7 unknown #
face $-1 $253 $254 $26 $-1 $255 reversed single #
loop $-1 $-1 $256 $97 #
plane-surface $-1 107.321321403183461 11.51319761321383339 183.9051974473757411 0 1 0 0.6691306144064093075 0 0.7431448182313465933 forward_v I I I I #
coedge $-1 $257 $258 $259 $260 reversed $98 $-1 #
coedge $-1 $166 $100 $261 $262 reversed $59 $-1 #
coedge $-1 $100 $165 $257 $263 reversed $59 $-1 #
coedge $-1 $259 $264 $100 $168 forward $265 $-1 #
edge $-1 $266 -33.26398909851204166 $267 -27.16967527650716363 $167 $268 forward 7 unknown #
loop $-1 $-1 $174 $101 #
plane-surface $-1 29.76939563277626632 14.66447543024513323 97.77506001334700159 0.6691306144064093075 0 0.7431448182313465933 0.7431448182313465933 0 -0.6691306144064093075 forward_v I I I I #
loop $-1 $-1 $269 $61 #
coedge $-1 $172 $172 $173 $270 reversed $102 $-1 #
coedge $-1 $173 $173 $172 $270 forward $104 $-1 #
coedge $-1 $174 $174 $105 $175 forward $169 $-1 #
edge $-1 $271 0 $271 6.283185307179586232 $174 $272 forward 7 unknown #
loop $-1 $-1 $181 $106 #
plane-surface $-1 29.76939563277626632 14.66447543024513323 97.77506001334700159 0.6691306144064093075 0 0.7431448182313465933 0.7431448182313465933 0 -0.6691306144064093075 forward_v I I I I #
loop $-1 $-1 $273 $64 #
coedge $-1 $179 $179 $180 $274 reversed $107 $-1 #
coedge $-1 $180 $180 $179 $274 forward $109 $-1 #
coedge $-1 $181 $181 $110 $182 forward $176 $-1 #
edge $-1 $275 0 $275 6.283185307179586232 $181 $276 forward 7 unknown #
loop $-1 $-1 $188 $111 #
plane-surface $-1 29.76939563277626632 14.66447543024513323 97.77506001334700159 0.6691306144064093075 0 0.7431448182313465933 0.7431448182313465933 0 -0.6691306144064093075 forward_v I I I I #
loop $-1 $-1 $277 $67 #
coedge $-1 $186 $186 $187 $278 reversed $112 $-1 #
coedge $-1 $187 $187 $186 $278 forward $114 $-1 #
coedge $-1 $188 $188 $115 $189 forward $183 $-1 #
edge $-1 $279 0 $279 6.283185307179586232 $188 $280 forward 7 unknown #
face $-1 $281 $282 $20 $-1 $283 reversed single #
loop $-1 $-1 $284 $116 #
plane-surface $-1 0 35.40352798086239261 12.85523958749664786 1 0 0 0 0 -1 forward_v I I I I #
coedge $-1 $285 $201 $286 $287 forward $117 $-1 #
coedge $-1 $288 $119 $285 $289 forward $71 $-1 #
coedge $-1 $119 $288 $290 $291 forward $71 $-1 #
coedge $-1 $204 $203 $119 $197 reversed $205 $-1 #
edge $-1 $292 -35.40352798086239261 $293 35.40352798086239261 $196 $294 forward 7 unknown #
coedge $-1 $121 $120 $295 $296 forward $41 $-1 #
coedge $-1 $297 $298 $120 $200 reversed $282 $-1 #
edge $-1 $207 -57.94976653340251005 $299 57.94976653340251005 $199 $300 forward 7 unknown #
coedge $-1 $193 $301 $121 $202 reversed $117 $-1 #
edge $-1 $302 -57.94976653340251005 $206 57.94976653340251005 $201 $303 forward 7 unknown #
coedge $-1 $196 $122 $301 $304 forward $205 $-1 #
coedge $-1 $122 $196 $297 $305 reversed $205 $-1 #
loop $-1 $-1 $203 $281 #
vertex $-1 $123 $306 #
vertex $-1 $123 $307 #
straight-curve $-1 115.8995330668050201 35.40352798086239261 25.71047917499329571 0 1 0 I I #
face $-1 $308 $309 $21 $-1 $310 reversed single #
loop $-1 $-1 $311 $124 #
plane-surface $-1 0 35.40352798086239261 12.85523958749664786 1 0 0 0 0 -1 forward_v I I I I #
coedge $-1 $220 $312 $214 $313 forward $125 $-1 #
coedge $-1 $130 $127 $314 $315 reversed $75 $-1 #
coedge $-1 $127 $130 $212 $313 reversed $75 $-1 #
coedge $-1 $316 $317 $127 $216 forward $318 $-1 #
edge $-1 $319 -12.85523958749664786 $320 12.85523958749664786 $215 $321 forward 7 unknown #
coedge $-1 $129 $128 $311 $322 reversed $44 $-1 #
coedge $-1 $314 $323 $128 $219 forward $309 $-1 #
edge $-1 $324 -30.56918484675708925 $223 -24.19197852653375236 $218 $325 forward 7 unknown #
coedge $-1 $326 $212 $129 $221 forward $125 $-1 #
edge $-1 $222 24.19197852653375236 $327 30.56918484675708925 $220 $328 forward 7 unknown #
vertex $-1 $221 $329 #
vertex $-1 $219 $330 #
straight-curve $-1 6.377206320223336888 11.51319761321383339 12.85523958749664786 0 0 -1 I I #
face $-1 $-1 $237 $22 $-1 $331 reversed single #
loop $-1 $-1 $332 $132 #
plane-surface $-1 3.188603160111668444 11.51319761321383339 12.85523958749664786 0 -1 0 0 0 -1 forward_v I I I I #
coedge $-1 $333 $334 $335 $336 forward $133 $-1 #
coedge $-1 $337 $135 $137 $235 forward $79 $-1 #
coedge $-1 $135 $337 $332 $338 reversed $79 $-1 #
coedge $-1 $339 $138 $135 $232 forward $237 $-1 #
edge $-1 $239 0.7747308330849804747 $340 15.66864330073737932 $231 $341 forward 7 unknown #
coedge $-1 $334 $333 $136 $234 forward $133 $-1 #
edge $-1 $342 -23.51811765369076568 $238 -14.76036118805171782 $233 $343 forward 7 unknown #
edge $-1 $239 2.138886126389903101e-14 $342 13.34903751937808813 $137 $344 forward 7 unknown #
coedge $-1 $138 $339 $334 $345 reversed $237 $-1 #
loop $-1 $-1 $231 $225 #
vertex $-1 $345 $346 #
vertex $-1 $139 $347 #
straight-curve $-1 0 26.40711008086623224 52.26400308419317042 0 0 -1 I I #
coedge $-1 $241 $241 $-1 $348 reversed $142 $-1 #
edge $-1 $349 0 $349 6.283185307179586232 $143 $350 forward 7 unknown #
vertex $-1 $146 $351 #
ellipse-curve $-1 4.37887823281952393 14.49198010674431458 20.67315586835710661 -0.754709588511349394 0 0.6560590194555897536 0.6560590194555896426 0 0.754709588511349283 1 I I #
coedge $-1 $245 $245 $-1 $352 reversed $149 $-1 #
edge $-1 $353 0 $353 6.283185307179586232 $150 $354 forward 7 unknown #
vertex $-1 $153 $355 #
ellipse-curve $-1 4.37887823281952393 18.96015384704003282 20.67315586835710661 -0.754709588511349394 0 0.6560590194555897536 0.6560590194555896426 0 0.754709588511349283 1 I I #
coedge $-1 $249 $249 $-1 $356 reversed $156 $-1 #
edge $-1 $357 0 $357 6.283185307179586232 $157 $358 forward 7 unknown #
vertex $-1 $160 $359 #
ellipse-curve $-1 4.37887823281952393 23.42832758733575105 20.67315586835710661 -0.754709588511349394 0 0.6560590194555897536 0.6560590194555896426 0 0.754709588511349283 1 I I #
face $-1 $-1 $265 $26 $-1 $360 forward single #
loop $-1 $-1 $361 $161 #
plane-surface $-1 115.8995330668050201 35.40352798086239261 12.85523958749664786 -1 0 0 0 0 1 forward_v I I I I #
coedge $-1 $362 $363 $364 $365 reversed $162 $-1 #
coedge $-1 $366 $164 $166 $263 forward $98 $-1 #
coedge $-1 $164 $366 $362 $367 forward $98 $-1 #
coedge $-1 $364 $167 $164 $260 forward $265 $-1 #
edge $-1 $267 7.21824845827732986 $368 13.52080409233992953 $259 $369 forward 7 unknown #
coedge $-1 $370 $371 $165 $262 forward $254 $-1 #
edge $-1 $372 -78.15708427449638407 $266 -72.66973934244289524 $261 $373 forward 7 unknown #
edge $-1 $267 107.6988248434615514 $372 115.8995330668050201 $166 $374 forward 7 unknown #
coedge $-1 $167 $364 $370 $375 forward $265 $-1 #
loop $-1 $-1 $364 $253 #
vertex $-1 $262 $376 #
vertex $-1 $168 $377 #
straight-curve $-1 82.63554396829297843 17.81575324727643306 25.71047917499330282 -1 0 0 I I #
coedge $-1 $269 $269 $-1 $378 reversed $171 $-1 #
edge $-1 $379 0 $379 6.283185307179586232 $172 $380 forward 7 unknown #
vertex $-1 $175 $381 #
ellipse-curve $-1 112.8523761558026024 12.77370874002635404 22.96680670896654419 0.6691306144064093075 0 0.7431448182313465933 0.3715724091156732967 0 -0.3345653072032046538 1 I I #
coedge $-1 $273 $273 $-1 $382 reversed $178 $-1 #
edge $-1 $383 0 $383 6.283185307179586232 $179 $384 forward 7 unknown #
vertex $-1 $182 $385 #
ellipse-curve $-1 112.8523761558026024 14.66447543024513323 22.96680670896654419 0.6691306144064093075 0 0.7431448182313465933 0.3715724091156732967 0 -0.3345653072032046538 1 I I #
coedge $-1 $277 $277 $-1 $386 reversed $185 $-1 #
edge $-1 $387 0 $387 6.283185307179586232 $186 $388 forward 7 unknown #
vertex $-1 $189 $389 #
ellipse-curve $-1 112.8523761558026024 16.55524212046391597 22.96680670896654419 0.6691306144064093075 0 0.7431448182313465933 0.3715724091156732967 0 -0.3345653072032046538 1 I I #
face $-1 $-1 $205 $20 $-1 $390 reversed single #
loop $-1 $-1 $297 $190 #
plane-surface $-1 57.94976653340251005 70.80705596172478522 12.85523958749664786 0 -1 0 0 0 -1 forward_v I I I I #
coedge $-1 $391 $295 $298 $392 forward $191 $-1 #
coedge $-1 $301 $193 $194 $289 reversed $117 $-1 #
coedge $-1 $295 $391 $193 $287 reversed $191 $-1 #
edge $-1 $302 -12.85523958749664786 $393 12.85523958749664786 $286 $394 forward 7 unknown #
coedge $-1 $195 $194 $391 $395 forward $71 $-1 #
edge $-1 $293 -57.94976653340251005 $393 57.94976653340251005 $285 $396 forward 7 unknown #
coedge $-1 $298 $297 $195 $291 reversed $282 $-1 #
edge $-1 $397 -57.94976653340251005 $292 57.94976653340251005 $290 $398 forward 7 unknown #
vertex $-1 $197 $399 #
vertex $-1 $304 $400 #
straight-curve $-1 115.8995330668050201 35.40352798086239261 0 0 -1 0 I I #
coedge $-1 $284 $286 $198 $296 reversed $191 $-1 #
edge $-1 $299 -35.40352798086239261 $302 35.40352798086239261 $295 $401 forward 7 unknown #
coedge $-1 $290 $199 $204 $305 forward $282 $-1 #
coedge $-1 $199 $290 $284 $392 reversed $282 $-1 #
vertex $-1 $200 $402 #
straight-curve $-1 57.94976653340251005 70.80705596172478522 25.71047917499329571 -1 0 0 I I #
coedge $-1 $201 $285 $203 $304 reversed $117 $-1 #
vertex $-1 $296 $403 #
straight-curve $-1 57.94976653340251005 0 25.71047917499329571 1 0 0 I I #
edge $-1 $206 -12.85523958749664786 $293 12.85523958749664786 $203 $404 forward 7 unknown #
edge $-1 $207 -12.85523958749664786 $292 12.85523958749664786 $204 $405 forward 7 unknown #
point $-1 115.8995330668050201 0 25.71047917499329571 #
point $-1 115.8995330668050201 70.80705596172478522 25.71047917499329571 #
face $-1 $-1 $318 $21 $-1 $406 reversed single #
loop $-1 $-1 $314 $209 #
plane-surface $-1 57.94976653340251005 35.40352798086239261 0 0 0 1 1 0 0 forward_v I I I I #
coedge $-1 $407 $408 $217 $322 forward $210 $-1 #
coedge $-1 $212 $326 $316 $409 forward $125 $-1 #
edge $-1 $320 -20.58006339373465465 $222 -9.066865780520821261 $212 $410 forward 7 unknown #
coedge $-1 $411 $218 $213 $315 forward $309 $-1 #
edge $-1 $223 9.066865780520821261 $319 20.58006339373465465 $314 $412 forward 7 unknown #
coedge $-1 $413 $215 $312 $409 reversed $318 $-1 #
coedge $-1 $215 $413 $411 $414 reversed $318 $-1 #
loop $-1 $-1 $215 $308 #
vertex $-1 $414 $415 #
vertex $-1 $216 $416 #
straight-curve $-1 6.377206320223336888 0 12.85523958749664786 0 0 1 I I #
edge $-1 $327 -12.85523958749664786 $324 12.85523958749664786 $311 $417 forward 7 unknown #
coedge $-1 $218 $411 $407 $418 forward $309 $-1 #
vertex $-1 $219 $419 #
straight-curve $-1 30.56918484675708925 11.51319761321383339 0 1 0 0 I I #
coedge $-1 $312 $220 $408 $420 forward $125 $-1 #
vertex $-1 $420 $421 #
straight-curve $-1 30.56918484675708925 11.51319761321383339 25.71047917499329571 -1 0 0 I I #
point $-1 6.377206320223336888 11.51319761321383339 25.71047917499329571 #
point $-1 6.377206320223336888 11.51319761321383339 0 #
plane-surface $-1 0 35.40352798086239261 12.85523958749664786 1 0 0 0 0 -1 forward_v I I I I #
coedge $-1 $335 $422 $230 $338 forward $226 $-1 #
coedge $-1 $233 $228 $337 $423 forward $133 $-1 #
coedge $-1 $228 $233 $236 $345 forward $133 $-1 #
coedge $-1 $422 $332 $228 $336 reversed $226 $-1 #
edge $-1 $424 -30.56918484675708925 $425 -21.81142838111804139 $228 $426 forward 7 unknown #
coedge $-1 $230 $229 $333 $423 reversed $79 $-1 #
edge $-1 $340 0.003314158369256902173 $425 13.3523516777473219 $332 $427 forward 7 unknown #
coedge $-1 $236 $231 $422 $428 forward $237 $-1 #
vertex $-1 $428 $429 #
straight-curve $-1 0 27.18184091395121271 15.63583256172091396 0 -1 0 I I #
vertex $-1 $234 $430 #
straight-curve $-1 -14.76036118805171782 26.40711008086623224 25.71047917499329571 -1 0 0 I I #
straight-curve $-1 -1.421085471520200372e-14 26.40711008086623224 15.63583256172089619 0.6560590194555896426 0 0.754709588511349283 I I #
edge $-1 $238 8.996417899996160372 $424 23.89033036764855922 $236 $431 forward 7 unknown #
point $-1 0 26.40711008086623224 25.71047917499329571 #
point $-1 0 26.40711008086623224 15.63583256172091218 #
edge $-1 $432 1 $432 0 $241 $-1 forward 7 unknown #
vertex $-1 $242 $433 #
ellipse-curve $-1 5.22438237676505679 14.49198010674431458 19.93817034801056209 -0.754709588511349394 0 0.6560590194555897536 0.6560590194555896426 0 0.754709588511349283 1 I I #
point $-1 5.034937252275113906 14.49198010674431458 21.42786545686845656 #
edge $-1 $434 1 $434 0 $245 $-1 forward 7 unknown #
vertex $-1 $246 $435 #
ellipse-curve $-1 5.22438237676505679 18.96015384704003282 19.93817034801056209 -0.754709588511349394 0 0.6560590194555897536 0.6560590194555896426 0 0.754709588511349283 1 I I #
point $-1 5.034937252275113906 18.96015384704003282 21.42786545686845656 #
edge $-1 $436 1 $436 0 $249 $-1 forward 7 unknown #
vertex $-1 $250 $437 #
ellipse-curve $-1 5.22438237676505679 23.42832758733575105 19.93817034801056209 -0.754709588511349394 0 0.6560590194555897536 0.6560590194555896426 0 0.754709588511349283 1 I I #
point $-1 5.034937252275113906 23.42832758733575105 21.42786545686845656 #
plane-surface $-1 57.94976653340251005 35.40352798086239261 25.71047917499329571 0 0 1 1 0 0 forward_v I I I I #
coedge $-1 $371 $370 $363 $438 forward $254 $-1 #
coedge $-1 $363 $256 $258 $367 reversed $162 $-1 #
coedge $-1 $256 $362 $361 $438 reversed $162 $-1 #
coedge $-1 $264 $259 $256 $365 forward $265 $-1 #
edge $-1 $368 27.16967527650716363 $439 33.26398909851204166 $364 $440 forward 7 unknown #
coedge $-1 $258 $257 $371 $441 reversed $98 $-1 #
edge $-1 $442 -115.8995330668050201 $368 -107.6988248434615514 $362 $443 forward 7 unknown #
vertex $-1 $260 $444 #
straight-curve $-1 109.8052192448001563 25.03400170555376292 25.7104791749932815 0 -1 0 I I #
coedge $-1 $361 $261 $264 $375 reversed $254 $-1 #
coedge $-1 $261 $361 $366 $441 forward $254 $-1 #
vertex $-1 $262 $445 #
straight-curve $-1 115.8995330668050201 17.81575324727643306 98.38021851743619095 0 0 1 I I #
straight-curve $-1 29.76939563277626632 17.81575324727643306 97.77506001334700159 0.7431448182313465933 0 -0.6691306144064093075 I I #
edge $-1 $439 -23.89033036764855922 $266 -17.58777473358595955 $370 $446 forward 7 unknown #
point $-1 115.8995330668050201 17.81575324727643306 25.71047917499329571 #
point $-1 109.8052192448001421 17.81575324727643306 25.71047917499330282 #
edge $-1 $447 1 $447 0 $269 $-1 forward 7 unknown #
vertex $-1 $270 $448 #
ellipse-curve $-1 111.806582612756813 12.77370874002635404 21.80533533742615759 0.6691306144064093075 0 0.7431448182313465933 0.3715724091156732967 0 -0.3345653072032046538 1 I I #
point $-1 113.2239485649182598 12.77370874002635404 22.63224140176333776 #
edge $-1 $449 1 $449 0 $273 $-1 forward 7 unknown #
vertex $-1 $274 $450 #
ellipse-curve $-1 111.806582612756813 14.66447543024513323 21.80533533742615759 0.6691306144064093075 0 0.7431448182313465933 0.3715724091156732967 0 -0.3345653072032046538 1 I I #
point $-1 113.2239485649182598 14.66447543024513323 22.63224140176333776 #
edge $-1 $451 1 $451 0 $277 $-1 forward 7 unknown #
vertex $-1 $278 $452 #
ellipse-curve $-1 111.806582612756813 16.55524212046391597 21.80533533742615759 0.6691306144064093075 0 0.7431448182313465933 0.3715724091156732967 0 -0.3345653072032046538 1 I I #
point $-1 113.2239485649182598 16.55524212046391597 22.63224140176333776 #
plane-surface $-1 115.8995330668050201 35.40352798086239261 12.85523958749664786 -1 0 0 0 0 1 forward_v I I I I #
coedge $-1 $286 $284 $288 $395 reversed $191 $-1 #
edge $-1 $299 -12.85523958749664786 $397 12.85523958749664786 $298 $453 forward 7 unknown #
vertex $-1 $395 $454 #
straight-curve $-1 0 0 12.85523958749664786 0 0 -1 I I #
edge $-1 $393 -35.40352798086239261 $397 35.40352798086239261 $391 $455 forward 7 unknown #
straight-curve $-1 57.94976653340251005 0 0 -1 0 0 I I #
vertex $-1 $291 $456 #
straight-curve $-1 57.94976653340251005 70.80705596172478522 0 1 0 0 I I #
point $-1 115.8995330668050201 70.80705596172478522 0 #
point $-1 115.8995330668050201 0 0 #
straight-curve $-1 0 35.40352798086239261 25.71047917499329571 0 -1 0 I I #
point $-1 0 70.80705596172478522 25.71047917499329571 #
point $-1 0 0 25.71047917499329571 #
straight-curve $-1 115.8995330668050201 0 12.85523958749664786 0 0 -1 I I #
straight-curve $-1 115.8995330668050201 70.80705596172478522 12.85523958749664786 0 0 -1 I I #
plane-surface $-1 57.94976653340251005 0 12.85523958749664786 0 1 0 0 0 1 forward_v I I I I #
coedge $-1 $457 $311 $323 $418 reversed $210 $-1 #
coedge $-1 $311 $457 $326 $420 reversed $210 $-1 #
edge $-1 $458 -57.94976653340251005 $320 -51.57256021317917316 $316 $459 forward 7 unknown #
straight-curve $-1 6.377206320223336888 20.58006339373465465 25.71047917499329571 0 1 0 I I #
coedge $-1 $323 $314 $317 $414 forward $309 $-1 #
straight-curve $-1 6.377206320223336888 20.58006339373465465 0 0 -1 0 I I #
coedge $-1 $317 $316 $457 $460 forward $318 $-1 #
edge $-1 $319 51.57256021317917316 $461 57.94976653340251005 $317 $462 forward 7 unknown #
point $-1 6.377206320223336888 0 0 #
point $-1 6.377206320223336888 0 25.71047917499329571 #
straight-curve $-1 0 11.51319761321383339 12.85523958749664786 0 0 -1 I I #
edge $-1 $461 -35.40352798086239261 $324 -23.89033036764855922 $407 $463 forward 7 unknown #
point $-1 0 11.51319761321383339 0 #
edge $-1 $327 23.89033036764855922 $458 35.40352798086239261 $408 $464 forward 7 unknown #
point $-1 0 11.51319761321383339 25.71047917499329571 #
coedge $-1 $332 $335 $339 $428 reversed $226 $-1 #
edge $-1 $425 -15.66864330073737932 $342 -0.7747308330849804747 $333 $465 forward 7 unknown #
vertex $-1 $428 $466 #
vertex $-1 $336 $467 #
straight-curve $-1 30.56918484675708925 11.51319761321383339 25.71047917499329571 1 0 0 I I #
straight-curve $-1 -0.00217428349005643895 11.51319761321383339 15.63333133462178992 0.6560590194555897536 0 0.754709588511349394 I I #
edge $-1 $340 2.780592974224264324 $424 12.85523958749664786 $339 $468 forward 7 unknown #
point $-1 0 11.51319761321383339 15.63583256172091218 #
point $-1 8.75775646563904786 26.40711008086623224 25.71047917499329571 #
straight-curve $-1 0 35.40352798086239261 25.71047917499329571 0 -1 0 I I #
vertex $-1 $348 $469 #
point $-1 5.880441396220646766 14.49198010674431458 20.69287993652191204 #
vertex $-1 $352 $470 #
point $-1 5.880441396220646766 18.96015384704003282 20.69287993652191204 #
vertex $-1 $356 $471 #
point $-1 5.880441396220646766 23.42832758733575105 20.69287993652191204 #
edge $-1 $439 72.66973934244289524 $442 78.15708427449638407 $361 $472 forward 7 unknown #
vertex $-1 $375 $473 #
straight-curve $-1 82.63554396829297843 11.51319761321383339 25.71047917499330282 1 0 0 I I #
edge $-1 $442 -13.52080409233992953 $372 -7.21824845827732986 $371 $474 forward 7 unknown #
vertex $-1 $441 $475 #
straight-curve $-1 29.76939563277626632 11.51319761321383339 97.77506001334700159 -0.7431448182313465933 0 0.6691306144064093075 I I #
point $-1 109.8052192448001421 11.51319761321383339 25.71047917499330282 #
point $-1 115.8995330668050201 17.81575324727643306 20.22313424293981399 #
straight-curve $-1 115.8995330668050201 35.40352798086239261 25.71047917499329571 0 1 0 I I #
vertex $-1 $378 $476 #
point $-1 112.1781550218724846 12.77370874002635404 21.47077003022295116 #
vertex $-1 $382 $477 #
point $-1 112.1781550218724846 14.66447543024513323 21.47077003022295116 #
vertex $-1 $386 $478 #
point $-1 112.1781550218724846 16.55524212046391597 21.47077003022295116 #
straight-curve $-1 0 70.80705596172478522 12.85523958749664786 0 0 -1 I I #
point $-1 0 0 0 #
straight-curve $-1 0 35.40352798086239261 0 0 1 0 I I #
point $-1 0 70.80705596172478522 0 #
coedge $-1 $408 $407 $413 $460 reversed $210 $-1 #
vertex $-1 $420 $479 #
straight-curve $-1 57.94976653340251005 0 25.71047917499329571 1 0 0 I I #
edge $-1 $458 -12.85523958749664786 $461 12.85523958749664786 $457 $480 forward 7 unknown #
vertex $-1 $418 $481 #
straight-curve $-1 57.94976653340251005 0 0 -1 0 0 I I #
straight-curve $-1 0 35.40352798086239261 0 0 1 0 I I #
straight-curve $-1 0 35.40352798086239261 25.71047917499329571 0 -1 0 I I #
straight-curve $-1 8.75775646563904786 27.18184091395121271 25.71047917499329571 0 1 0 I I #
point $-1 0 11.51319761321383339 25.71047917499329571 #
point $-1 8.75775646563904786 11.51319761321383339 25.71047917499329571 #
straight-curve $-1 0 11.51319761321383339 12.85523958749664786 0 0 1 I I #
point $-1 5.979091965276403187 14.49198010674431458 19.28211132855497212 #
point $-1 5.979091965276403187 18.96015384704003282 19.28211132855497212 #
point $-1 5.979091965276403187 23.42832758733575105 19.28211132855497212 #
straight-curve $-1 115.8995330668050201 11.51319761321383339 98.38021851743619095 0 0 -1 I I #
point $-1 115.8995330668050201 11.51319761321383339 25.71047917499329571 #
straight-curve $-1 115.8995330668050201 25.03400170555376292 20.22313424293980688 0 1 0 I I #
point $-1 115.8995330668050201 11.51319761321383339 20.22313424293981399 #
point $-1 111.4720173055536065 12.77370874002635404 21.43376292831048602 #
point $-1 111.4720173055536065 14.66447543024513323 21.43376292831048602 #
point $-1 111.4720173055536065 16.55524212046391597 21.43376292831048602 #
point $-1 0 0 25.71047917499329571 #
straight-curve $-1 0 0 12.85523958749664786 0 0 -1 I I #
point $-1 0 0 0 #
End-of-ACIS-data 