600 0 6 0           
95 GICL ACIS Healer - Source: /gicl/data5/repository/Drexel/SM99-DATA/part127.smdg.delta.sat - 6 0 18 ACIS 6.0.3 Solaris 24 Sat Apr 13 20:45:37 2002 
1 9.999999999999999547e-07 1.000000000000000036e-10 
body $-1 $6 $-1 $-1 #
body $-1 $7 $-1 $-1 #
body $-1 $8 $-1 $-1 #
body $-1 $9 $-1 $-1 #
body $-1 $10 $-1 $-1 #
body $-1 $11 $-1 $-1 #
lump $-1 $-1 $12 $0 #
lump $-1 $-1 $13 $1 #
lump $-1 $-1 $14 $2 #
lump $-1 $-1 $15 $3 #
lump $-1 $-1 $16 $4 #
lump $-1 $-1 $17 $5 #
shell $-1 $-1 $-1 $18 $-1 $6 #
shell $-1 $-1 $-1 $19 $-1 $7 #
shell $-1 $-1 $-1 $20 $-1 $8 #
shell $-1 $-1 $-1 $21 $-1 $9 #
shell $-1 $-1 $-1 $22 $-1 $10 #
shell $-1 $-1 $-1 $23 $-1 $11 #
face $-1 $24 $25 $12 $-1 $26 forward single #
face $-1 $27 $28 $13 $-1 $29 forward single #
face $-1 $30 $31 $14 $-1 $32 reversed single #
face $-1 $33 $34 $15 $-1 $35 forward single #
face $-1 $36 $37 $16 $-1 $38 reversed single #
face $-1 $39 $40 $17 $-1 $41 forward single #
face $-1 $42 $43 $12 $-1 $44 reversed single #
loop $-1 $-1 $45 $18 #
plane-surface $-1 75.51988280892361161 43.96387891918882929 43.54767983960472577 0 0 1 1 0 0 forward_v I I I I #
face $-1 $46 $47 $13 $-1 $48 forward single #
loop $-1 $-1 $49 $19 #
plane-surface $-1 75.51988280892361161 0 21.77383991980236289 0 1 0 0 0 1 forward_v I I I I #
face $-1 $50 $51 $14 $-1 $52 reversed single #
loop $-1 $-1 $53 $20 #
plane-surface $-1 19.18408302672315102 149.9729729091538672 191.4545157017851693 -1 0 0 0 0.7771459697322561366 0.629320380830711068 forward_v I I I I #
face $-1 $54 $55 $15 $-1 $56 forward single #
loop $-1 $57 $58 $21 #
cone-surface $-1 9.592041513361579064 80.43192314959827627 34.81347672678644045 0 -0.7771459697322561366 -0.629320380830711068 1 0 0 1 I I 0 1 1 forward I I I I #
face $-1 $59 $60 $16 $-1 $61 reversed single #
loop $-1 $-1 $62 $22 #
plane-surface $-1 94.70396583564675552 149.9729729091538672 191.4545157017851693 -1 0 0 0 0.7771459697322561366 0.629320380830711068 forward_v I I I I #
face $-1 $63 $64 $17 $-1 $65 forward single #
loop $-1 $66 $67 $23 #
cone-surface $-1 85.11192432228519067 80.43192314959827627 34.81347672678644045 0 -0.7771459697322561366 -0.629320380830711068 1 0 0 1 I I 0 1 1 forward I I I I #
face $-1 $68 $69 $12 $-1 $70 reversed single #
loop $-1 $-1 $71 $24 #
plane-surface $-1 75.51988280892361161 43.96387891918882929 0 0 0 1 1 0 0 forward_v I I I I #
coedge $-1 $72 $73 $74 $75 forward $25 $-1 #
face $-1 $76 $77 $13 $-1 $78 reversed single #
loop $-1 $-1 $79 $27 #
plane-surface $-1 75.51988280892361161 43.96387891918882929 43.54767983960472577 0 0 1 1 0 0 forward_v I I I I #
coedge $-1 $80 $81 $82 $83 forward $28 $-1 #
face $-1 $84 $85 $14 $-1 $86 reversed single #
loop $-1 $-1 $87 $30 #
plane-surface $-1 9.592041513361579064 32.59302778993931327 96.40211288258021227 0 0.7771459697322561366 0.629320380830711068 1 0 0 forward_v I I I I #
coedge $-1 $88 $89 $90 $91 reversed $31 $-1 #
face $-1 $-1 $92 $15 $-1 $93 forward single #
loop $-1 $94 $95 $33 #
cone-surface $-1 9.592041513361579064 78.81454309466734287 33.50374821790953206 0 -0.7771459697322561366 -0.629320380830711068 0.5 0 0 1 I I -0.7071067811865462405 0.707106781186548794 0.5 forward I I I I #
loop $-1 $-1 $96 $21 #
coedge $-1 $58 $58 $97 $98 reversed $34 $-1 #
face $-1 $99 $100 $16 $-1 $101 reversed single #
loop $-1 $-1 $102 $36 #
plane-surface $-1 85.11192432228519067 32.59302778993931327 96.40211288258021227 0 0.7771459697322561366 0.629320380830711068 1 0 0 forward_v I I I I #
coedge $-1 $103 $104 $105 $106 reversed $37 $-1 #
face $-1 $-1 $107 $17 $-1 $108 forward single #
loop $-1 $109 $110 $39 #
cone-surface $-1 85.11192432228519067 78.81454309466734287 33.50374821790953206 0 -0.7771459697322561366 -0.629320380830711068 0.5 0 0 1 I I -0.7071067811865462405 0.707106781186548794 0.5 forward I I I I #
loop $-1 $-1 $111 $23 #
coedge $-1 $67 $67 $112 $113 reversed $40 $-1 #
face $-1 $114 $115 $12 $-1 $116 reversed single #
loop $-1 $-1 $117 $42 #
plane-surface $-1 75.51988280892361161 0 21.77383991980236289 0 1 0 0 0 1 forward_v I I I I #
coedge $-1 $118 $119 $120 $121 forward $43 $-1 #
coedge $-1 $122 $45 $123 $124 forward $25 $-1 #
coedge $-1 $45 $122 $125 $126 forward $25 $-1 #
coedge $-1 $127 $128 $45 $75 reversed $129 $-1 #
edge $-1 $130 -43.96387891918882929 $131 43.96387891918882929 $74 $132 forward 7 unknown #
face $-1 $133 $134 $13 $-1 $135 reversed single #
loop $-1 $-1 $136 $46 #
plane-surface $-1 0 43.96387891918882929 21.77383991980236289 1 0 0 0 0 -1 forward_v I I I I #
coedge $-1 $137 $138 $139 $140 forward $47 $-1 #
coedge $-1 $139 $49 $136 $141 reversed $28 $-1 #
coedge $-1 $49 $139 $142 $143 reversed $28 $-1 #
coedge $-1 $144 $145 $49 $83 reversed $134 $-1 #
edge $-1 $146 -75.51988280892361161 $147 75.51988280892361161 $82 $148 forward 7 unknown #
face $-1 $149 $150 $14 $-1 $151 forward single #
loop $-1 $-1 $90 $50 #
plane-surface $-1 75.51988280892361161 87.92775783837765857 21.77383991980236289 0 -1 0 0 0 -1 forward_v I I I I #
coedge $-1 $152 $153 $154 $155 reversed $51 $-1 #
coedge $-1 $89 $53 $156 $157 reversed $31 $-1 #
coedge $-1 $53 $88 $152 $158 reversed $31 $-1 #
coedge $-1 $154 $159 $53 $91 forward $85 $-1 #
edge $-1 $160 63.06649797118903678 $161 78.54476755990251036 $90 $162 forward 7 unknown #
loop $-1 $-1 $97 $54 #
plane-surface $-1 9.592041513361579064 32.59302778993931327 96.40211288258021227 0 0.7771459697322561366 0.629320380830711068 1 0 0 forward_v I I I I #
loop $-1 $-1 $163 $33 #
coedge $-1 $95 $95 $96 $164 reversed $55 $-1 #
coedge $-1 $96 $96 $95 $164 forward $57 $-1 #
coedge $-1 $97 $97 $58 $98 forward $92 $-1 #
edge $-1 $165 0 $165 6.283185307179586232 $97 $166 forward 7 unknown #
face $-1 $167 $168 $16 $-1 $169 forward single #
loop $-1 $-1 $170 $59 #
plane-surface $-1 75.51988280892361161 149.9729729091538672 191.4545157017851693 1 0 0 0 -0.7771459697322561366 -0.629320380830711068 forward_v I I I I #
coedge $-1 $171 $172 $173 $174 reversed $60 $-1 #
coedge $-1 $104 $62 $175 $176 reversed $37 $-1 #
coedge $-1 $62 $103 $171 $177 reversed $37 $-1 #
coedge $-1 $173 $178 $62 $106 forward $179 $-1 #
edge $-1 $180 63.06649797118903678 $181 78.54476755990251036 $105 $182 forward 7 unknown #
loop $-1 $-1 $112 $63 #
plane-surface $-1 85.11192432228519067 32.59302778993931327 96.40211288258021227 0 0.7771459697322561366 0.629320380830711068 1 0 0 forward_v I I I I #
loop $-1 $-1 $183 $39 #
coedge $-1 $110 $110 $111 $184 reversed $64 $-1 #
coedge $-1 $111 $111 $110 $184 forward $66 $-1 #
coedge $-1 $112 $112 $67 $113 forward $107 $-1 #
edge $-1 $185 0 $185 6.283185307179586232 $112 $186 forward 7 unknown #
face $-1 $187 $188 $12 $-1 $189 reversed single #
loop $-1 $-1 $190 $68 #
plane-surface $-1 0 43.96387891918882929 21.77383991980236289 1 0 0 0 0 -1 forward_v I I I I #
coedge $-1 $191 $125 $192 $193 forward $69 $-1 #
coedge $-1 $194 $71 $191 $195 forward $43 $-1 #
coedge $-1 $71 $194 $196 $197 forward $43 $-1 #
coedge $-1 $128 $127 $71 $121 reversed $129 $-1 #
edge $-1 $198 -43.96387891918882929 $199 43.96387891918882929 $120 $200 forward 7 unknown #
coedge $-1 $73 $72 $201 $202 forward $25 $-1 #
coedge $-1 $203 $204 $72 $124 reversed $188 $-1 #
edge $-1 $131 -75.51988280892361161 $205 75.51988280892361161 $123 $206 forward 7 unknown #
coedge $-1 $117 $207 $73 $126 reversed $69 $-1 #
edge $-1 $208 -75.51988280892361161 $130 75.51988280892361161 $125 $209 forward 7 unknown #
coedge $-1 $120 $74 $207 $210 forward $129 $-1 #
coedge $-1 $74 $120 $203 $211 reversed $129 $-1 #
loop $-1 $-1 $127 $187 #
vertex $-1 $75 $212 #
vertex $-1 $75 $213 #
straight-curve $-1 151.0397656178472232 43.96387891918882929 43.54767983960472577 0 1 0 I I #
face $-1 $214 $215 $13 $-1 $216 reversed single #
loop $-1 $-1 $144 $76 #
plane-surface $-1 75.51988280892361161 -9.004788891690793662 37.69006703119815427 0 0 1 1 0 0 forward_v I I I I #
coedge $-1 $217 $218 $80 $141 forward $77 $-1 #
coedge $-1 $219 $79 $218 $220 forward $47 $-1 #
coedge $-1 $79 $219 $221 $222 forward $47 $-1 #
coedge $-1 $81 $80 $79 $140 reversed $28 $-1 #
edge $-1 $223 -75.51988280892361161 $224 75.51988280892361161 $79 $225 forward 7 unknown #
edge $-1 $224 -21.77383991980236289 $147 -15.91622711139579138 $136 $226 forward 7 unknown #
coedge $-1 $221 $227 $81 $143 forward $228 $-1 #
edge $-1 $146 15.91622711139579138 $223 21.77383991980236289 $142 $229 forward 7 unknown #
coedge $-1 $230 $82 $227 $231 forward $134 $-1 #
coedge $-1 $82 $230 $217 $232 forward $134 $-1 #
vertex $-1 $143 $233 #
vertex $-1 $141 $234 #
straight-curve $-1 75.51988280892361161 0 37.69006703119815427 -1 0 0 I I #
face $-1 $-1 $235 $14 $-1 $236 reversed single #
loop $-1 $-1 $156 $84 #
plane-surface $-1 75.51988280892361161 43.96387891918882929 43.54767983960472577 0 0 1 1 0 0 forward_v I I I I #
coedge $-1 $237 $87 $89 $158 forward $51 $-1 #
coedge $-1 $87 $237 $238 $239 reversed $51 $-1 #
coedge $-1 $240 $90 $87 $155 forward $85 $-1 #
edge $-1 $161 23.37187913441944431 $241 42.55596216114259533 $154 $242 forward 7 unknown #
coedge $-1 $243 $244 $88 $157 forward $150 $-1 #
edge $-1 $245 -21.57472331322287573 $160 -9.040668075793689695 $156 $246 forward 7 unknown #
edge $-1 $161 -87.92775783837761594 $245 -68.01094659370750151 $89 $247 forward 7 unknown #
coedge $-1 $90 $240 $243 $248 reversed $85 $-1 #
vertex $-1 $248 $249 #
vertex $-1 $91 $250 #
straight-curve $-1 19.18408302672315102 87.92775783837765857 106.6141778107937625 0 0 -1 I I #
coedge $-1 $163 $163 $-1 $251 reversed $94 $-1 #
edge $-1 $252 0 $252 6.283185307179586232 $95 $253 forward 7 unknown #
vertex $-1 $98 $254 #
ellipse-curve $-1 9.592041513361579064 81.66073021966306555 35.80854504524798898 0 0.7771459697322561366 0.629320380830711068 1 0 0 1 I I #
face $-1 $-1 $179 $16 $-1 $255 reversed single #
loop $-1 $-1 $256 $99 #
plane-surface $-1 75.51988280892361161 43.96387891918882929 43.54767983960472577 0 0 1 1 0 0 forward_v I I I I #
coedge $-1 $257 $258 $259 $260 reversed $100 $-1 #
coedge $-1 $261 $102 $104 $177 forward $60 $-1 #
coedge $-1 $102 $261 $257 $262 forward $60 $-1 #
coedge $-1 $259 $105 $102 $174 forward $179 $-1 #
edge $-1 $181 -14.38806227004235438 $263 4.796020756680789532 $173 $264 forward 7 unknown #
coedge $-1 $265 $266 $103 $176 forward $168 $-1 #
edge $-1 $267 -21.57472331322287573 $180 -9.040668075793689695 $175 $268 forward 7 unknown #
edge $-1 $181 -87.92775783837761594 $267 -68.01094659370750151 $104 $269 forward 7 unknown #
coedge $-1 $105 $259 $265 $270 reversed $179 $-1 #
loop $-1 $-1 $259 $167 #
vertex $-1 $270 $271 #
vertex $-1 $106 $272 #
straight-curve $-1 94.70396583564675552 87.92775783837765857 106.6141778107937625 0 0 -1 I I #
coedge $-1 $183 $183 $-1 $273 reversed $109 $-1 #
edge $-1 $274 0 $274 6.283185307179586232 $110 $275 forward 7 unknown #
vertex $-1 $113 $276 #
ellipse-curve $-1 85.11192432228519067 81.66073021966306555 35.80854504524798898 0 0.7771459697322561366 0.629320380830711068 1 0 0 1 I I #
face $-1 $-1 $129 $12 $-1 $277 reversed single #
loop $-1 $-1 $203 $114 #
plane-surface $-1 75.51988280892361161 87.92775783837765857 21.77383991980236289 0 -1 0 0 0 -1 forward_v I I I I #
coedge $-1 $278 $201 $204 $279 forward $115 $-1 #
coedge $-1 $207 $117 $118 $195 reversed $69 $-1 #
coedge $-1 $201 $278 $117 $193 reversed $115 $-1 #
edge $-1 $208 -21.77383991980236289 $280 21.77383991980236289 $192 $281 forward 7 unknown #
coedge $-1 $119 $118 $278 $282 forward $43 $-1 #
edge $-1 $199 -75.51988280892361161 $280 75.51988280892361161 $191 $283 forward 7 unknown #
coedge $-1 $204 $203 $119 $197 reversed $188 $-1 #
edge $-1 $284 -75.51988280892361161 $198 75.51988280892361161 $196 $285 forward 7 unknown #
vertex $-1 $121 $286 #
vertex $-1 $210 $287 #
straight-curve $-1 151.0397656178472232 43.96387891918882929 0 0 -1 0 I I #
coedge $-1 $190 $192 $122 $202 reversed $115 $-1 #
edge $-1 $205 -43.96387891918882929 $208 43.96387891918882929 $201 $288 forward 7 unknown #
coedge $-1 $196 $123 $128 $211 forward $188 $-1 #
coedge $-1 $123 $196 $190 $279 reversed $188 $-1 #
vertex $-1 $124 $289 #
straight-curve $-1 75.51988280892361161 87.92775783837765857 43.54767983960472577 -1 0 0 I I #
coedge $-1 $125 $191 $127 $210 reversed $69 $-1 #
vertex $-1 $202 $290 #
straight-curve $-1 75.51988280892361161 0 43.54767983960472577 1 0 0 I I #
edge $-1 $130 -21.77383991980236289 $199 21.77383991980236289 $127 $291 forward 7 unknown #
edge $-1 $131 -21.77383991980236289 $198 21.77383991980236289 $128 $292 forward 7 unknown #
point $-1 151.0397656178472232 0 43.54767983960472577 #
point $-1 151.0397656178472232 87.92775783837765857 43.54767983960472577 #
face $-1 $-1 $228 $13 $-1 $293 reversed single #
loop $-1 $-1 $294 $133 #
plane-surface $-1 75.51988280892361161 -18.00957778338158732 40.61887343540144002 0 1 0 0 0 1 forward_v I I I I #
coedge $-1 $295 $136 $145 $232 reversed $77 $-1 #
coedge $-1 $136 $295 $137 $220 reversed $77 $-1 #
coedge $-1 $138 $137 $296 $297 forward $47 $-1 #
edge $-1 $224 43.96387891918882929 $298 61.97345670257041661 $218 $299 forward 7 unknown #
coedge $-1 $300 $142 $138 $222 reversed $228 $-1 #
edge $-1 $301 -61.97345670257041661 $223 -43.96387891918882929 $221 $302 forward 7 unknown #
vertex $-1 $143 $303 #
vertex $-1 $220 $304 #
straight-curve $-1 75.51988280892361161 0 43.54767983960472577 -1 0 0 I I #
straight-curve $-1 0 0 21.77383991980236289 0 0 -1 I I #
coedge $-1 $142 $300 $144 $231 reversed $228 $-1 #
loop $-1 $-1 $142 $214 #
straight-curve $-1 151.0397656178472232 0 21.77383991980236289 0 0 1 I I #
coedge $-1 $145 $144 $305 $306 forward $134 $-1 #
edge $-1 $146 -9.004788891690793662 $307 9.004788891690793662 $227 $308 forward 7 unknown #
edge $-1 $309 -9.004788891690793662 $147 9.004788891690793662 $217 $310 forward 7 unknown #
point $-1 151.0397656178472232 0 37.69006703119815427 #
point $-1 0 0 37.69006703119815427 #
loop $-1 $-1 $238 $149 #
plane-surface $-1 0 43.96387891918882929 21.77383991980236289 1 0 0 0 0 -1 forward_v I I I I #
coedge $-1 $153 $152 $244 $311 reversed $51 $-1 #
coedge $-1 $312 $313 $153 $239 forward $235 $-1 #
edge $-1 $241 -55.35127287631254944 $314 -35.43446163164243501 $238 $315 forward 7 unknown #
coedge $-1 $159 $154 $313 $316 reversed $85 $-1 #
vertex $-1 $155 $317 #
straight-curve $-1 42.55596216114259533 87.92775783837765857 28.0694102508912593 -1 0 0 I I #
coedge $-1 $318 $156 $159 $248 forward $150 $-1 #
coedge $-1 $156 $318 $237 $311 forward $150 $-1 #
vertex $-1 $157 $319 #
straight-curve $-1 19.18408302672315102 96.96842591417134827 43.54767983960471867 0 1 0 I I #
straight-curve $-1 19.18408302672315102 32.59302778993931327 96.40211288258021227 0 -0.629320380830711068 0.7771459697322561366 I I #
edge $-1 $160 56.33579978220046058 $320 75.51988280892361161 $159 $321 forward 7 unknown #
point $-1 19.18408302672315102 87.92775783837765857 43.54767983960472577 #
point $-1 19.18408302672315102 87.92775783837765857 28.0694102508912593 #
edge $-1 $322 1 $322 0 $163 $-1 forward 7 unknown #
vertex $-1 $164 $323 #
ellipse-curve $-1 9.592041513361579064 79.20311607953347277 33.81840840832488482 0 0.7771459697322561366 0.629320380830711068 1 0 0 1 I I #
point $-1 10.59204151336157906 81.66073021966306555 35.80854504524798898 #
plane-surface $-1 75.51988280892361161 87.92775783837765857 21.77383991980236289 0 -1 0 0 0 -1 forward_v I I I I #
coedge $-1 $266 $265 $258 $324 forward $168 $-1 #
coedge $-1 $258 $170 $172 $262 reversed $100 $-1 #
coedge $-1 $170 $257 $256 $324 reversed $100 $-1 #
coedge $-1 $178 $173 $170 $260 forward $179 $-1 #
edge $-1 $263 -78.54476755990251036 $325 -63.06649797118903678 $259 $326 forward 7 unknown #
coedge $-1 $172 $171 $266 $327 reversed $60 $-1 #
edge $-1 $328 68.01094659370750151 $263 87.92775783837761594 $257 $329 forward 7 unknown #
vertex $-1 $174 $330 #
straight-curve $-1 80.31590356560440114 87.92775783837765857 28.0694102508912593 -1 0 0 I I #
coedge $-1 $256 $175 $178 $270 forward $168 $-1 #
coedge $-1 $175 $256 $261 $327 forward $168 $-1 #
vertex $-1 $176 $331 #
straight-curve $-1 94.70396583564675552 96.96842591417134827 43.54767983960471867 0 1 0 I I #
straight-curve $-1 94.70396583564675552 32.59302778993931327 96.40211288258021227 0 -0.629320380830711068 0.7771459697322561366 I I #
edge $-1 $180 -19.18408302672314392 $325 0 $178 $332 forward 7 unknown #
point $-1 94.70396583564675552 87.92775783837765857 43.54767983960472577 #
point $-1 94.70396583564675552 87.92775783837765857 28.0694102508912593 #
edge $-1 $333 1 $333 0 $183 $-1 forward 7 unknown #
vertex $-1 $184 $334 #
ellipse-curve $-1 85.11192432228519067 79.20311607953347277 33.81840840832488482 0 0.7771459697322561366 0.629320380830711068 1 0 0 1 I I #
point $-1 86.11192432228519067 81.66073021966306555 35.80854504524798898 #
plane-surface $-1 151.0397656178472232 43.96387891918882929 21.77383991980236289 -1 0 0 0 0 1 forward_v I I I I #
coedge $-1 $192 $190 $194 $282 reversed $115 $-1 #
edge $-1 $205 -21.77383991980236289 $284 21.77383991980236289 $204 $335 forward 7 unknown #
vertex $-1 $282 $336 #
straight-curve $-1 0 0 21.77383991980236289 0 0 -1 I I #
edge $-1 $280 -43.96387891918882929 $284 43.96387891918882929 $278 $337 forward 7 unknown #
straight-curve $-1 75.51988280892361161 0 0 -1 0 0 I I #
vertex $-1 $197 $338 #
straight-curve $-1 75.51988280892361161 87.92775783837765857 0 1 0 0 I I #
point $-1 151.0397656178472232 87.92775783837765857 0 #
point $-1 151.0397656178472232 0 0 #
straight-curve $-1 0 43.96387891918882929 43.54767983960472577 0 -1 0 I I #
point $-1 0 87.92775783837765857 43.54767983960472577 #
point $-1 0 0 43.54767983960472577 #
straight-curve $-1 151.0397656178472232 0 21.77383991980236289 0 0 -1 I I #
straight-curve $-1 151.0397656178472232 87.92775783837765857 21.77383991980236289 0 0 -1 I I #
plane-surface $-1 151.0397656178472232 43.96387891918882929 21.77383991980236289 -1 0 0 0 0 1 forward_v I I I I #
coedge $-1 $305 $296 $295 $339 forward $215 $-1 #
coedge $-1 $218 $217 $294 $339 reversed $77 $-1 #
coedge $-1 $294 $340 $219 $297 reversed $215 $-1 #
edge $-1 $298 -75.51988280892361161 $301 75.51988280892361161 $296 $341 forward 7 unknown #
vertex $-1 $220 $342 #
straight-curve $-1 0 43.96387891918882929 43.54767983960472577 0 -1 0 I I #
coedge $-1 $227 $221 $340 $343 forward $228 $-1 #
vertex $-1 $222 $344 #
straight-curve $-1 151.0397656178472232 43.96387891918882929 43.54767983960472577 0 1 0 I I #
point $-1 151.0397656178472232 0 43.54767983960472577 #
point $-1 0 0 43.54767983960472577 #
coedge $-1 $340 $294 $230 $306 reversed $215 $-1 #
edge $-1 $307 -75.51988280892361161 $309 75.51988280892361161 $305 $345 forward 7 unknown #
vertex $-1 $343 $346 #
straight-curve $-1 151.0397656178472232 -9.004788891690793662 37.69006703119815427 0 -1 0 I I #
vertex $-1 $232 $347 #
straight-curve $-1 0 -9.004788891690793662 37.69006703119815427 0 1 0 I I #
edge $-1 $314 -42.55596216114259533 $245 -23.37187913441944431 $244 $348 forward 7 unknown #
coedge $-1 $313 $238 $318 $349 reversed $235 $-1 #
coedge $-1 $238 $312 $240 $316 forward $235 $-1 #
vertex $-1 $239 $350 #
straight-curve $-1 0 53.09407371239203144 71.08542888626790557 0 -0.629320380830711068 0.7771459697322561366 I I #
edge $-1 $320 -21.77383991980236289 $241 -6.295570331088899962 $240 $351 forward 7 unknown #
point $-1 0 87.92775783837765857 28.06941025089126285 #
coedge $-1 $244 $243 $312 $349 forward $150 $-1 #
point $-1 19.18408302672315102 75.39370260094847254 43.54767983960471867 #
vertex $-1 $248 $352 #
straight-curve $-1 75.51988280892361161 87.92775783837765857 43.54767983960472577 -1 0 0 I I #
vertex $-1 $251 $353 #
point $-1 10.59204151336157906 79.20311607953347277 33.81840840832488482 #
edge $-1 $325 9.040668075793689695 $328 21.57472331322287573 $256 $354 forward 7 unknown #
vertex $-1 $324 $355 #
straight-curve $-1 75.51988280892361161 87.92775783837765857 106.6141778107937625 0 0 1 I I #
edge $-1 $328 -4.796020756680789532 $267 14.38806227004235438 $266 $356 forward 7 unknown #
vertex $-1 $327 $357 #
straight-curve $-1 75.51988280892361161 32.59302778993931327 96.40211288258021227 0 0.629320380830711068 -0.7771459697322561366 I I #
point $-1 75.51988280892361161 87.92775783837765857 28.0694102508912593 #
point $-1 94.70396583564675552 75.39370260094847254 43.54767983960471867 #
straight-curve $-1 75.51988280892361161 87.92775783837765857 43.54767983960472577 -1 0 0 I I #
vertex $-1 $273 $358 #
point $-1 86.11192432228519067 79.20311607953347277 33.81840840832488482 #
straight-curve $-1 0 87.92775783837765857 21.77383991980236289 0 0 -1 I I #
point $-1 0 0 0 #
straight-curve $-1 0 43.96387891918882929 0 0 1 0 I I #
point $-1 0 87.92775783837765857 0 #
edge $-1 $298 -2.928806404203285751 $309 2.928806404203285751 $295 $359 forward 7 unknown #
coedge $-1 $296 $305 $300 $343 reversed $215 $-1 #
straight-curve $-1 75.51988280892361161 -18.00957778338158732 43.54767983960472577 1 0 0 I I #
point $-1 0 -18.00957778338158732 43.54767983960472577 #
edge $-1 $301 -2.928806404203285751 $307 2.928806404203285751 $300 $360 forward 7 unknown #
point $-1 151.0397656178472232 -18.00957778338158732 43.54767983960472577 #
straight-curve $-1 75.51988280892361161 -18.00957778338158732 37.69006703119815427 -1 0 0 I I #
point $-1 151.0397656178472232 -18.00957778338158732 37.69006703119815427 #
point $-1 0 -18.00957778338158732 37.69006703119815427 #
straight-curve $-1 42.55596216114259533 75.39370260094845833 43.54767983960472577 1 0 0 I I #
edge $-1 $320 -43.96387891918882929 $314 -31.42982368175964325 $312 $361 forward 7 unknown #
point $-1 0 75.39370260094847254 43.54767983960471867 #
straight-curve $-1 0 87.92775783837765857 21.77383991980236289 0 0 -1 I I #
point $-1 0 87.92775783837765857 43.54767983960472577 #
point $-1 9.592041513361579064 78.42597010980121297 33.1890880274941793 #
straight-curve $-1 75.51988280892361161 96.96842591417134827 43.54767983960471867 0 -1 0 I I #
point $-1 75.51988280892361161 87.92775783837765857 43.54767983960472577 #
straight-curve $-1 80.31590356560440114 75.39370260094845833 43.54767983960472577 1 0 0 I I #
point $-1 75.51988280892361161 75.39370260094847254 43.54767983960471867 #
point $-1 85.11192432228519067 78.42597010980121297 33.1890880274941793 #
straight-curve $-1 0 -18.00957778338158732 40.61887343540144002 0 0 -1 I I #
straight-curve $-1 151.0397656178472232 -18.00957778338158732 40.61887343540144002 0 0 -1 I I #
straight-curve $-1 0 43.96387891918882929 43.54767983960472577 0 -1 0 I I #
End-of-ACIS-data 