300 0 3 0           
7 Unknown 11 ACIS 3.0 NT 24 Fri Oct 30 18:07:01 1998 
-1 9.9999999999999995e-007 1e-010 
body $3 $4 $-1 $5 #
body $6 $7 $-1 $8 #
body $9 $10 $-1 $11 #
display_attribute-st-attrib $-1 $12 $-1 $0 1 #
lump $-1 $-1 $13 $0 #
transform $-1 1 0 0 0 1 0 0 0 1 76.981109042634358 36.805131759783137 9.8734845788398626 1 rotate no_reflect no_shear #
display_attribute-st-attrib $-1 $14 $-1 $1 3 #
lump $-1 $-1 $15 $1 #
transform $-1 1 0 0 0 1 0 0 0 1 76.981109042634358 36.805131759783137 9.8734845788398626 1 rotate no_reflect no_shear #
display_attribute-st-attrib $-1 $16 $-1 $2 3 #
lump $-1 $-1 $17 $2 #
transform $-1 1 0 0 0 1 0 0 0 1 76.981109042634358 36.805131759783137 9.8734845788398626 1 rotate no_reflect no_shear #
id_attribute-st-attrib $-1 $-1 $3 $0 1935 #
shell $-1 $-1 $-1 $18 $-1 $4 #
id_attribute-st-attrib $-1 $-1 $6 $1 1940 #
shell $-1 $-1 $-1 $19 $-1 $7 #
id_attribute-st-attrib $-1 $-1 $9 $2 1948 #
shell $-1 $-1 $-1 $20 $-1 $10 #
face $-1 $21 $22 $13 $-1 $23 forward single #
face $-1 $24 $25 $15 $-1 $26 reversed single #
face $-1 $27 $28 $17 $-1 $29 reversed single #
face $-1 $30 $31 $13 $-1 $32 reversed single #
loop $-1 $-1 $33 $18 #
plane-surface $-1 0 0 9.8734845788398626 0 0 1 1 0 0 forward_v I I I I #
face $-1 $34 $35 $15 $-1 $36 reversed single #
loop $-1 $-1 $37 $19 #
plane-surface $-1 -68.927823938182939 -33.204520496074799 0 1 0 0 0 0 -1 forward_v I I I I #
face $-1 $38 $39 $17 $-1 $40 reversed single #
loop $-1 $-1 $41 $20 #
plane-surface $-1 -67.427823938182939 29.603909232366455 0 0 1 0 0 0 1 forward_v I I I I #
face $-1 $42 $43 $13 $-1 $44 reversed single #
loop $-1 $-1 $45 $21 #
plane-surface $-1 0 0 -9.8734845788398626 0 0 1 1 0 0 forward_v I I I I #
coedge $-1 $46 $47 $48 $49 forward $22 $-1 #
face $-1 $50 $51 $15 $-1 $52 reversed single #
loop $-1 $-1 $53 $24 #
plane-surface $-1 -67.427823938182939 -29.603909232366458 0 0 -1 0 0 0 -1 forward_v I I I I #
coedge $-1 $54 $55 $56 $57 forward $25 $-1 #
face $-1 $58 $59 $17 $-1 $60 reversed single #
loop $-1 $-1 $61 $27 #
plane-surface $-1 -68.927823938182939 33.204520496074792 0 1 0 0 0 0 -1 forward_v I I I I #
coedge $-1 $62 $63 $64 $65 forward $28 $-1 #
face $-1 $66 $67 $13 $-1 $68 reversed single #
loop $-1 $-1 $69 $30 #
plane-surface $-1 0 -36.805131759783137 0 0 1 0 0 0 1 forward_v I I I I #
coedge $-1 $70 $71 $72 $73 forward $31 $-1 #
coedge $-1 $74 $33 $75 $76 forward $22 $-1 #
coedge $-1 $33 $74 $77 $78 forward $22 $-1 #
coedge $-1 $79 $80 $33 $49 reversed $81 $-1 #
edge $-1 $82 $83 $48 $84 forward #
face $-1 $85 $86 $15 $-1 $87 forward single #
loop $-1 $-1 $88 $34 #
plane-surface $-1 -65.927823938182939 -33.204520496074799 0 -1 0 0 0 0 1 forward_v I I I I #
coedge $-1 $89 $90 $91 $92 forward $35 $-1 #
coedge $-1 $93 $37 $94 $95 reversed $25 $-1 #
coedge $-1 $37 $93 $96 $97 reversed $25 $-1 #
coedge $-1 $90 $89 $37 $57 reversed $35 $-1 #
edge $-1 $98 $99 $56 $100 forward #
face $-1 $101 $102 $17 $-1 $103 reversed single #
loop $-1 $-1 $104 $38 #
plane-surface $-1 -65.927823938182939 33.204520496074792 0 -1 0 0 0 0 1 forward_v I I I I #
coedge $-1 $105 $106 $107 $108 reversed $39 $-1 #
coedge $-1 $109 $41 $110 $111 reversed $28 $-1 #
coedge $-1 $41 $109 $112 $113 reversed $28 $-1 #
coedge $-1 $106 $105 $41 $65 reversed $39 $-1 #
edge $-1 $114 $115 $64 $116 forward #
face $-1 $117 $118 $13 $-1 $119 reversed single #
loop $-1 $-1 $120 $42 #
plane-surface $-1 -76.981109042634358 0 0 1 0 0 0 0 -1 forward_v I I I I #
coedge $-1 $121 $77 $122 $123 forward $43 $-1 #
coedge $-1 $124 $45 $121 $125 forward $31 $-1 #
coedge $-1 $45 $124 $126 $127 forward $31 $-1 #
coedge $-1 $80 $79 $45 $73 reversed $81 $-1 #
edge $-1 $128 $129 $72 $130 forward #
coedge $-1 $47 $46 $131 $132 forward $22 $-1 #
coedge $-1 $133 $134 $46 $76 reversed $118 $-1 #
edge $-1 $83 $135 $75 $136 forward #
coedge $-1 $69 $137 $47 $78 reversed $43 $-1 #
edge $-1 $138 $82 $77 $139 forward #
coedge $-1 $72 $48 $137 $140 forward $81 $-1 #
coedge $-1 $48 $72 $133 $141 reversed $81 $-1 #
loop $-1 $-1 $79 $117 #
vertex $-1 $49 $142 #
vertex $-1 $49 $143 #
straight-curve $-1 76.981109042634358 0 9.8734845788398626 0 1 0 I I #
face $-1 $144 $145 $15 $-1 $146 reversed single #
loop $-1 $-1 $147 $50 #
plane-surface $-1 0 0 9.8734845788398626 0 0 1 1 0 0 forward_v I I I I #
coedge $-1 $148 $149 $150 $151 reversed $51 $-1 #
coedge $-1 $56 $53 $152 $153 reversed $35 $-1 #
coedge $-1 $53 $56 $154 $155 reversed $35 $-1 #
coedge $-1 $149 $148 $53 $92 reversed $51 $-1 #
edge $-1 $156 $157 $91 $158 forward #
coedge $-1 $55 $54 $159 $160 reversed $25 $-1 #
coedge $-1 $152 $161 $54 $95 forward $145 $-1 #
edge $-1 $162 $99 $94 $163 forward #
coedge $-1 $164 $154 $55 $97 forward $86 $-1 #
edge $-1 $98 $165 $96 $166 forward #
vertex $-1 $97 $167 #
vertex $-1 $95 $168 #
straight-curve $-1 -68.927823938182939 -29.603909232366458 0 0 0 -1 I I #
face $-1 $169 $170 $17 $-1 $171 forward single #
loop $-1 $-1 $172 $58 #
plane-surface $-1 0 0 -9.8734845788398626 0 0 1 1 0 0 forward_v I I I I #
coedge $-1 $173 $174 $109 $175 forward $59 $-1 #
coedge $-1 $64 $61 $176 $177 reversed $39 $-1 #
coedge $-1 $61 $64 $178 $179 reversed $39 $-1 #
coedge $-1 $180 $181 $61 $108 forward $182 $-1 #
edge $-1 $183 $184 $107 $185 forward #
coedge $-1 $63 $62 $104 $175 reversed $28 $-1 #
coedge $-1 $176 $172 $62 $111 forward $102 $-1 #
edge $-1 $186 $115 $110 $187 forward #
coedge $-1 $188 $178 $63 $113 forward $170 $-1 #
edge $-1 $114 $189 $112 $190 forward #
vertex $-1 $113 $191 #
vertex $-1 $111 $192 #
straight-curve $-1 -68.927823938182939 29.603909232366455 0 0 0 -1 I I #
face $-1 $-1 $81 $13 $-1 $193 reversed single #
loop $-1 $-1 $133 $66 #
plane-surface $-1 0 36.805131759783137 0 0 -1 0 0 0 -1 forward_v I I I I #
coedge $-1 $194 $131 $134 $195 forward $67 $-1 #
coedge $-1 $137 $69 $70 $125 reversed $43 $-1 #
coedge $-1 $131 $194 $69 $123 reversed $67 $-1 #
edge $-1 $138 $196 $122 $197 forward #
coedge $-1 $71 $70 $194 $198 forward $31 $-1 #
edge $-1 $129 $196 $121 $199 forward #
coedge $-1 $134 $133 $71 $127 reversed $118 $-1 #
edge $-1 $200 $128 $126 $201 forward #
vertex $-1 $73 $202 #
vertex $-1 $140 $203 #
straight-curve $-1 76.981109042634358 0 -9.8734845788398626 0 -1 0 I I #
coedge $-1 $120 $122 $74 $132 reversed $67 $-1 #
edge $-1 $135 $138 $131 $204 forward #
coedge $-1 $126 $75 $80 $141 forward $118 $-1 #
coedge $-1 $75 $126 $120 $195 reversed $118 $-1 #
vertex $-1 $76 $205 #
straight-curve $-1 0 36.805131759783137 9.8734845788398626 -1 0 0 I I #
coedge $-1 $77 $121 $79 $140 reversed $43 $-1 #
vertex $-1 $132 $206 #
straight-curve $-1 0 -36.805131759783137 9.8734845788398626 1 0 0 I I #
edge $-1 $82 $129 $79 $207 forward #
edge $-1 $83 $128 $80 $208 forward #
point $-1 76.981109042634358 -36.805131759783137 9.8734845788398626 #
point $-1 76.981109042634358 36.805131759783137 9.8734845788398626 #
face $-1 $-1 $209 $15 $-1 $210 reversed single #
loop $-1 $-1 $211 $85 #
plane-surface $-1 0 0 -9.8734845788398626 0 0 1 1 0 0 forward_v I I I I #
coedge $-1 $154 $164 $149 $212 forward $86 $-1 #
coedge $-1 $91 $88 $211 $213 reversed $51 $-1 #
coedge $-1 $88 $91 $147 $212 reversed $51 $-1 #
coedge $-1 $214 $215 $88 $151 forward $209 $-1 #
edge $-1 $216 $217 $150 $218 forward #
coedge $-1 $211 $94 $89 $153 forward $145 $-1 #
edge $-1 $99 $157 $152 $219 forward #
coedge $-1 $96 $147 $90 $155 forward $86 $-1 #
edge $-1 $156 $98 $154 $220 forward #
vertex $-1 $155 $221 #
vertex $-1 $153 $222 #
straight-curve $-1 -65.927823938182939 -29.603909232366458 0 0 0 -1 I I #
coedge $-1 $215 $214 $93 $160 forward $209 $-1 #
edge $-1 $165 $162 $159 $223 forward #
coedge $-1 $94 $211 $215 $224 forward $145 $-1 #
vertex $-1 $95 $225 #
straight-curve $-1 -68.927823938182939 -16.6022602480374 -9.8734845788398626 0 1 0 I I #
coedge $-1 $147 $96 $214 $226 forward $86 $-1 #
vertex $-1 $226 $227 #
straight-curve $-1 -68.927823938182939 -16.6022602480374 9.8734845788398626 0 -1 0 I I #
point $-1 -68.927823938182939 -29.603909232366458 9.8734845788398626 #
point $-1 -68.927823938182939 -29.603909232366458 -9.8734845788398626 #
face $-1 $-1 $182 $17 $-1 $228 reversed single #
loop $-1 $-1 $188 $101 #
plane-surface $-1 0 0 9.8734845788398626 0 0 1 1 0 0 forward_v I I I I #
coedge $-1 $110 $229 $173 $230 forward $102 $-1 #
coedge $-1 $231 $104 $172 $230 reversed $59 $-1 #
coedge $-1 $104 $231 $188 $232 reversed $59 $-1 #
edge $-1 $189 $186 $104 $233 forward #
coedge $-1 $229 $110 $105 $177 forward $102 $-1 #
edge $-1 $115 $183 $176 $234 forward #
coedge $-1 $112 $235 $106 $179 forward $170 $-1 #
edge $-1 $184 $114 $178 $236 forward #
coedge $-1 $237 $107 $235 $238 reversed $182 $-1 #
coedge $-1 $107 $237 $229 $239 reversed $182 $-1 #
loop $-1 $-1 $237 $169 #
vertex $-1 $239 $240 #
vertex $-1 $108 $241 #
straight-curve $-1 -68.927823938182939 36.805131759783137 0 0 0 1 I I #
vertex $-1 $111 $242 #
straight-curve $-1 -33.71391196909147 29.603909232366455 -9.8734845788398626 -1 0 0 I I #
coedge $-1 $235 $112 $174 $232 forward $170 $-1 #
vertex $-1 $113 $243 #
straight-curve $-1 -33.71391196909147 29.603909232366455 9.8734845788398626 1 0 0 I I #
point $-1 -68.927823938182939 29.603909232366455 9.8734845788398626 #
point $-1 -68.927823938182939 29.603909232366455 -9.8734845788398626 #
plane-surface $-1 76.981109042634358 0 0 -1 0 0 0 0 1 forward_v I I I I #
coedge $-1 $122 $120 $124 $198 reversed $67 $-1 #
edge $-1 $135 $200 $134 $244 forward #
vertex $-1 $198 $245 #
straight-curve $-1 -76.981109042634358 -36.805131759783137 0 0 0 -1 I I #
edge $-1 $196 $200 $194 $246 forward #
straight-curve $-1 0 -36.805131759783137 -9.8734845788398626 -1 0 0 I I #
vertex $-1 $127 $247 #
straight-curve $-1 0 36.805131759783137 -9.8734845788398626 1 0 0 I I #
point $-1 76.981109042634358 36.805131759783137 -9.8734845788398626 #
point $-1 76.981109042634358 -36.805131759783137 -9.8734845788398626 #
straight-curve $-1 -76.981109042634358 0 9.8734845788398626 0 -1 0 I I #
point $-1 -76.981109042634358 36.805131759783137 9.8734845788398626 #
point $-1 -76.981109042634358 -36.805131759783137 9.8734845788398626 #
straight-curve $-1 76.981109042634358 -36.805131759783137 0 0 0 -1 I I #
straight-curve $-1 76.981109042634358 36.805131759783137 0 0 0 -1 I I #
loop $-1 $-1 $150 $144 #
plane-surface $-1 0 -36.805131759783137 0 0 1 0 0 0 1 forward_v I I I I #
coedge $-1 $161 $152 $148 $213 forward $145 $-1 #
edge $-1 $217 $156 $147 $248 forward #
edge $-1 $157 $216 $211 $249 forward #
coedge $-1 $159 $150 $164 $226 reversed $209 $-1 #
coedge $-1 $150 $159 $161 $224 reversed $209 $-1 #
vertex $-1 $224 $250 #
vertex $-1 $151 $251 #
straight-curve $-1 -65.927823938182939 -36.805131759783137 0 0 0 1 I I #
straight-curve $-1 -33.71391196909147 -29.603909232366458 -9.8734845788398626 1 0 0 I I #
straight-curve $-1 -33.71391196909147 -29.603909232366458 9.8734845788398626 -1 0 0 I I #
point $-1 -65.927823938182939 -29.603909232366458 9.8734845788398626 #
point $-1 -65.927823938182939 -29.603909232366458 -9.8734845788398626 #
straight-curve $-1 -68.927823938182939 -36.805131759783137 0 0 0 -1 I I #
edge $-1 $216 $162 $215 $252 forward #
point $-1 -68.927823938182939 -36.805131759783137 -9.8734845788398626 #
edge $-1 $165 $217 $214 $253 forward #
point $-1 -68.927823938182939 -36.805131759783137 9.8734845788398626 #
plane-surface $-1 0 36.805131759783137 0 0 -1 0 0 0 -1 forward_v I I I I #
coedge $-1 $172 $176 $181 $239 forward $102 $-1 #
edge $-1 $254 $186 $172 $255 forward #
coedge $-1 $174 $173 $237 $256 reversed $59 $-1 #
edge $-1 $189 $257 $188 $258 forward #
straight-curve $-1 -65.927823938182939 29.603909232366455 0 0 0 -1 I I #
straight-curve $-1 -68.927823938182939 16.602260248037396 -9.8734845788398626 0 1 0 I I #
coedge $-1 $178 $188 $180 $238 forward $170 $-1 #
straight-curve $-1 -68.927823938182939 16.602260248037396 9.8734845788398626 0 -1 0 I I #
coedge $-1 $181 $180 $231 $256 forward $182 $-1 #
edge $-1 $257 $184 $180 $259 forward #
edge $-1 $183 $254 $181 $260 forward #
point $-1 -68.927823938182939 36.80513175978313 -9.8734845788398626 #
point $-1 -68.927823938182939 36.80513175978313 9.8734845788398626 #
point $-1 -65.927823938182939 29.603909232366455 -9.8734845788398626 #
point $-1 -65.927823938182939 29.603909232366455 9.8734845788398626 #
straight-curve $-1 -76.981109042634358 36.805131759783137 0 0 0 -1 I I #
point $-1 -76.981109042634358 -36.805131759783137 -9.8734845788398626 #
straight-curve $-1 -76.981109042634358 0 -9.8734845788398626 0 1 0 I I #
point $-1 -76.981109042634358 36.805131759783137 -9.8734845788398626 #
straight-curve $-1 -65.927823938182939 -16.6022602480374 9.8734845788398626 0 1 0 I I #
straight-curve $-1 -65.927823938182939 -16.6022602480374 -9.8734845788398626 0 -1 0 I I #
point $-1 -65.927823938182939 -36.805131759783137 -9.8734845788398626 #
point $-1 -65.927823938182939 -36.805131759783137 9.8734845788398626 #
straight-curve $-1 0 -36.805131759783137 -9.8734845788398626 -1 0 0 I I #
straight-curve $-1 0 -36.805131759783137 9.8734845788398626 1 0 0 I I #
vertex $-1 $256 $261 #
straight-curve $-1 -65.927823938182939 16.602260248037396 -9.8734845788398626 0 -1 0 I I #
edge $-1 $257 $254 $237 $262 forward #
vertex $-1 $238 $263 #
straight-curve $-1 -65.927823938182939 16.602260248037396 9.8734845788398626 0 1 0 I I #
straight-curve $-1 0 36.805131759783137 9.8734845788398626 -1 0 0 I I #
straight-curve $-1 0 36.805131759783137 -9.8734845788398626 1 0 0 I I #
point $-1 -65.927823938182939 36.80513175978313 -9.8734845788398626 #
straight-curve $-1 -65.927823938182939 36.805131759783137 0 0 0 -1 I I #
point $-1 -65.927823938182939 36.80513175978313 9.8734845788398626 #
End-of-ACIS-data 