600 0 4 0           
96 GICL ACIS Healer - Source: /gicl/data5/repository/Drexel/SM99-DATA/part117.smdg.deltas.sat - 6 0 18 ACIS 6.0.3 Solaris 24 Sat Apr 13 20:44:40 2002 
1 9.999999999999999547e-07 1.000000000000000036e-10 
body $-1 $4 $-1 $-1 #
body $-1 $5 $-1 $-1 #
body $-1 $6 $-1 $-1 #
body $-1 $7 $-1 $-1 #
lump $-1 $-1 $8 $0 #
lump $-1 $-1 $9 $1 #
lump $-1 $-1 $10 $2 #
lump $-1 $-1 $11 $3 #
shell $-1 $-1 $-1 $12 $-1 $4 #
shell $-1 $-1 $-1 $13 $-1 $5 #
shell $-1 $-1 $-1 $14 $-1 $6 #
shell $-1 $-1 $-1 $15 $-1 $7 #
face $-1 $16 $17 $8 $-1 $18 forward single #
face $-1 $19 $20 $9 $-1 $21 reversed single #
face $-1 $22 $23 $10 $-1 $24 reversed single #
face $-1 $25 $26 $11 $-1 $27 forward single #
face $-1 $28 $29 $8 $-1 $30 reversed single #
loop $-1 $-1 $31 $12 #
plane-surface $-1 52.08410901211584587 20.90564928550825385 8.839618239409066547 0 0 1 1 0 0 forward_v I I I I #
face $-1 $32 $33 $9 $-1 $34 reversed single #
loop $-1 $-1 $35 $13 #
plane-surface $-1 5.839618239409062994 1.62301023714346826 4.419809119704533273 1 0 0 0 0 -1 forward_v I I I I #
face $-1 $36 $37 $10 $-1 $38 reversed single #
loop $-1 $-1 $39 $14 #
plane-surface $-1 76.60546076565168505 98.1553700962382436 101.8515467186120986 1 0 0 0 -0.7880107618611372766 -0.6156614647604883306 forward_v I I I I #
face $-1 $40 $41 $11 $-1 $42 forward single #
loop $-1 $43 $44 $15 #
cone-surface $-1 90.3868393949416884 39.45935101131041733 6.209608163992095697 0 -0.7880107618611372766 -0.6156614647604883306 0.5 0 0 1 I I 0 1 0.5 forward I I I I #
face $-1 $45 $46 $8 $-1 $47 reversed single #
loop $-1 $-1 $48 $16 #
plane-surface $-1 52.08410901211584587 20.90564928550825385 0 0 0 1 1 0 0 forward_v I I I I #
coedge $-1 $49 $50 $51 $52 forward $17 $-1 #
face $-1 $53 $54 $9 $-1 $55 reversed single #
loop $-1 $-1 $56 $19 #
plane-surface $-1 7.339618239409062994 3.246020474286936519 4.419809119704533273 0 -1 0 0 0 -1 forward_v I I I I #
coedge $-1 $57 $58 $59 $60 forward $20 $-1 #
face $-1 $61 $62 $10 $-1 $63 forward single #
loop $-1 $-1 $64 $22 #
plane-surface $-1 90.3868393949416884 16.06969324924637732 37.71918902832370435 0 0.7880107618611372766 0.6156614647604883306 1 0 0 forward_v I I I I #
coedge $-1 $65 $66 $67 $68 reversed $23 $-1 #
face $-1 $-1 $69 $11 $-1 $70 forward single #
loop $-1 $71 $72 $25 #
cone-surface $-1 90.3868393949416884 38.49960695526762322 5.459773948602784088 0 -0.7880107618611372766 -0.6156614647604883306 0.25 0 0 1 I I -0.7071067811865474617 0.7071067811865474617 0.25 forward I I I I #
loop $-1 $-1 $73 $15 #
coedge $-1 $44 $44 $74 $75 reversed $26 $-1 #
face $-1 $76 $77 $8 $-1 $78 reversed single #
loop $-1 $-1 $79 $28 #
plane-surface $-1 52.08410901211584587 0 4.419809119704533273 0 1 0 0 0 1 forward_v I I I I #
coedge $-1 $80 $81 $82 $83 forward $29 $-1 #
coedge $-1 $84 $31 $85 $86 forward $17 $-1 #
coedge $-1 $31 $84 $87 $88 forward $17 $-1 #
coedge $-1 $89 $90 $31 $52 reversed $91 $-1 #
edge $-1 $92 -20.90564928550825385 $93 20.90564928550825385 $51 $94 forward 7 unknown #
face $-1 $95 $96 $9 $-1 $97 forward single #
loop $-1 $-1 $98 $32 #
plane-surface $-1 8.839618239409062994 1.62301023714346826 4.419809119704533273 -1 0 0 0 0 1 forward_v I I I I #
coedge $-1 $99 $100 $101 $102 forward $33 $-1 #
coedge $-1 $103 $35 $104 $105 reversed $20 $-1 #
coedge $-1 $35 $103 $106 $107 reversed $20 $-1 #
coedge $-1 $100 $99 $35 $60 reversed $33 $-1 #
edge $-1 $108 -4.419809119704533273 $109 4.419809119704533273 $59 $110 forward 7 unknown #
face $-1 $111 $112 $10 $-1 $113 reversed single #
loop $-1 $-1 $67 $36 #
plane-surface $-1 52.08410901211584587 20.90564928550825385 8.839618239409066547 0 0 1 1 0 0 forward_v I I I I #
coedge $-1 $114 $115 $116 $117 reversed $37 $-1 #
coedge $-1 $66 $39 $118 $119 reversed $23 $-1 #
coedge $-1 $39 $65 $114 $120 reversed $23 $-1 #
coedge $-1 $116 $121 $39 $68 forward $62 $-1 #
edge $-1 $122 17.71921111985674457 $123 20.89762350811388814 $67 $124 forward 7 unknown #
loop $-1 $-1 $74 $40 #
plane-surface $-1 90.3868393949416884 16.06969324924637732 37.71918902832370435 0 0.7880107618611372766 0.6156614647604883306 1 0 0 forward_v I I I I #
loop $-1 $-1 $125 $25 #
coedge $-1 $72 $72 $73 $126 reversed $41 $-1 #
coedge $-1 $73 $73 $72 $126 forward $43 $-1 #
coedge $-1 $74 $74 $44 $75 forward $69 $-1 #
edge $-1 $127 2.449230821364508103e-15 $127 6.283185307179588897 $74 $128 forward 7 unknown #
face $-1 $129 $130 $8 $-1 $131 reversed single #
loop $-1 $-1 $132 $45 #
plane-surface $-1 0 20.90564928550825385 4.419809119704533273 1 0 0 0 0 -1 forward_v I I I I #
coedge $-1 $133 $87 $134 $135 forward $46 $-1 #
coedge $-1 $136 $48 $133 $137 forward $29 $-1 #
coedge $-1 $48 $136 $138 $139 forward $29 $-1 #
coedge $-1 $90 $89 $48 $83 reversed $91 $-1 #
edge $-1 $140 -20.90564928550825385 $141 20.90564928550825385 $82 $142 forward 7 unknown #
coedge $-1 $50 $49 $143 $144 forward $17 $-1 #
coedge $-1 $145 $146 $49 $86 reversed $130 $-1 #
edge $-1 $93 -52.08410901211584587 $147 52.08410901211584587 $85 $148 forward 7 unknown #
coedge $-1 $79 $149 $50 $88 reversed $46 $-1 #
edge $-1 $150 -52.08410901211584587 $92 52.08410901211584587 $87 $151 forward 7 unknown #
coedge $-1 $82 $51 $149 $152 forward $91 $-1 #
coedge $-1 $51 $82 $145 $153 reversed $91 $-1 #
loop $-1 $-1 $89 $129 #
vertex $-1 $52 $154 #
vertex $-1 $52 $155 #
straight-curve $-1 104.1682180242316917 20.90564928550825385 8.839618239409066547 0 1 0 I I #
face $-1 $156 $157 $9 $-1 $158 reversed single #
loop $-1 $-1 $159 $53 #
plane-surface $-1 52.08410901211584587 20.90564928550825385 8.839618239409066547 0 0 1 1 0 0 forward_v I I I I #
coedge $-1 $160 $161 $162 $163 reversed $54 $-1 #
coedge $-1 $59 $56 $164 $165 reversed $33 $-1 #
coedge $-1 $56 $59 $166 $167 reversed $33 $-1 #
coedge $-1 $161 $160 $56 $102 reversed $54 $-1 #
edge $-1 $168 -4.419809119704533273 $169 4.419809119704533273 $101 $170 forward 7 unknown #
coedge $-1 $58 $57 $171 $172 reversed $20 $-1 #
coedge $-1 $164 $173 $57 $105 forward $157 $-1 #
edge $-1 $174 -11.26432976132586106 $109 -8.018309287038924538 $104 $175 forward 7 unknown #
coedge $-1 $176 $166 $58 $107 forward $96 $-1 #
edge $-1 $108 8.018309287038924538 $177 11.26432976132586106 $106 $178 forward 7 unknown #
vertex $-1 $107 $179 #
vertex $-1 $105 $180 #
straight-curve $-1 5.839618239409062994 3.246020474286936519 4.419809119704533273 0 0 -1 I I #
face $-1 $-1 $181 $10 $-1 $182 reversed single #
loop $-1 $-1 $183 $61 #
plane-surface $-1 104.1682180242316917 20.90564928550825385 4.419809119704533273 -1 0 0 0 0 1 forward_v I I I I #
coedge $-1 $184 $64 $66 $120 forward $37 $-1 #
coedge $-1 $64 $184 $183 $185 reversed $37 $-1 #
coedge $-1 $186 $67 $64 $117 forward $62 $-1 #
edge $-1 $123 5.369986562122917917 $187 32.93274382070292461 $116 $188 forward 7 unknown #
coedge $-1 $189 $190 $65 $119 forward $181 $-1 #
edge $-1 $191 -48.36424213218479906 $122 -44.29605967974924852 $118 $192 forward 7 unknown #
edge $-1 $123 36.64870099071537624 $191 41.8112985710165006 $66 $193 forward 7 unknown #
coedge $-1 $67 $186 $189 $194 forward $62 $-1 #
vertex $-1 $119 $195 #
vertex $-1 $68 $196 #
straight-curve $-1 76.60546076565168505 59.53050969087325228 8.83961823940906477 0 -1 0 I I #
coedge $-1 $125 $125 $-1 $197 reversed $71 $-1 #
edge $-1 $198 0 $198 6.283185307179586232 $72 $199 forward 7 unknown #
vertex $-1 $75 $200 #
ellipse-curve $-1 90.3868393949416884 40.22209237688793593 6.805527013191292163 0 0.7880107618611372766 0.6156614647604883306 0.5 0 0 1 I I #
face $-1 $-1 $91 $8 $-1 $201 reversed single #
loop $-1 $-1 $145 $76 #
plane-surface $-1 52.08410901211584587 41.81129857101650771 4.419809119704533273 0 -1 0 0 0 -1 forward_v I I I I #
coedge $-1 $202 $143 $146 $203 forward $77 $-1 #
coedge $-1 $149 $79 $80 $137 reversed $46 $-1 #
coedge $-1 $143 $202 $79 $135 reversed $77 $-1 #
edge $-1 $150 -4.419809119704533273 $204 4.419809119704533273 $134 $205 forward 7 unknown #
coedge $-1 $81 $80 $202 $206 forward $29 $-1 #
edge $-1 $141 -52.08410901211584587 $204 52.08410901211584587 $133 $207 forward 7 unknown #
coedge $-1 $146 $145 $81 $139 reversed $130 $-1 #
edge $-1 $208 -52.08410901211584587 $140 52.08410901211584587 $138 $209 forward 7 unknown #
vertex $-1 $83 $210 #
vertex $-1 $152 $211 #
straight-curve $-1 104.1682180242316917 20.90564928550825385 0 0 -1 0 I I #
coedge $-1 $132 $134 $84 $144 reversed $77 $-1 #
edge $-1 $147 -20.90564928550825385 $150 20.90564928550825385 $143 $212 forward 7 unknown #
coedge $-1 $138 $85 $90 $153 forward $130 $-1 #
coedge $-1 $85 $138 $132 $203 reversed $130 $-1 #
vertex $-1 $86 $213 #
straight-curve $-1 52.08410901211584587 41.81129857101650771 8.839618239409066547 -1 0 0 I I #
coedge $-1 $87 $133 $89 $152 reversed $46 $-1 #
vertex $-1 $144 $214 #
straight-curve $-1 52.08410901211584587 0 8.839618239409066547 1 0 0 I I #
edge $-1 $92 -4.419809119704533273 $141 4.419809119704533273 $89 $215 forward 7 unknown #
edge $-1 $93 -4.419809119704533273 $140 4.419809119704533273 $90 $216 forward 7 unknown #
point $-1 104.1682180242316917 0 8.839618239409066547 #
point $-1 104.1682180242316917 41.81129857101650771 8.839618239409066547 #
face $-1 $-1 $217 $9 $-1 $218 reversed single #
loop $-1 $-1 $219 $95 #
plane-surface $-1 52.08410901211584587 20.90564928550825385 0 0 0 1 1 0 0 forward_v I I I I #
coedge $-1 $166 $176 $161 $220 forward $96 $-1 #
coedge $-1 $101 $98 $219 $221 reversed $54 $-1 #
coedge $-1 $98 $101 $159 $220 reversed $54 $-1 #
coedge $-1 $222 $223 $98 $163 forward $217 $-1 #
edge $-1 $224 -4.419809119704533273 $225 4.419809119704533273 $162 $226 forward 7 unknown #
coedge $-1 $219 $104 $99 $165 forward $157 $-1 #
edge $-1 $109 -23.87224538635339144 $169 -20.87224538635339144 $164 $227 forward 7 unknown #
coedge $-1 $106 $159 $100 $167 forward $96 $-1 #
edge $-1 $168 20.87224538635339144 $108 23.87224538635339144 $166 $228 forward 7 unknown #
vertex $-1 $167 $229 #
vertex $-1 $165 $230 #
straight-curve $-1 8.839618239409062994 3.246020474286936519 4.419809119704533273 0 0 -1 I I #
coedge $-1 $223 $222 $103 $172 forward $217 $-1 #
edge $-1 $177 -4.419809119704533273 $174 4.419809119704533273 $171 $231 forward 7 unknown #
coedge $-1 $104 $219 $223 $232 forward $157 $-1 #
vertex $-1 $105 $233 #
straight-curve $-1 5.839618239409062994 11.26432976132586106 0 0 1 0 I I #
coedge $-1 $159 $106 $222 $234 forward $96 $-1 #
vertex $-1 $234 $235 #
straight-curve $-1 5.839618239409062994 11.26432976132586106 8.839618239409066547 0 -1 0 I I #
point $-1 5.839618239409062994 3.246020474286936519 8.839618239409066547 #
point $-1 5.839618239409062994 3.246020474286936519 0 #
loop $-1 $-1 $118 $111 #
plane-surface $-1 52.08410901211584587 41.81129857101650771 4.419809119704533273 0 -1 0 0 0 -1 forward_v I I I I #
coedge $-1 $236 $237 $115 $185 forward $112 $-1 #
coedge $-1 $115 $114 $190 $238 reversed $37 $-1 #
edge $-1 $187 22.03991023666699789 $239 27.20250781696812226 $183 $240 forward 7 unknown #
coedge $-1 $121 $116 $237 $241 forward $62 $-1 #
vertex $-1 $241 $242 #
straight-curve $-1 71.23547420352876713 38.63288618275936415 8.839618239409068323 1 0 0 I I #
coedge $-1 $243 $118 $121 $194 reversed $181 $-1 #
coedge $-1 $118 $243 $184 $238 forward $181 $-1 #
vertex $-1 $119 $244 #
straight-curve $-1 76.60546076565168505 41.81129857101650771 53.13567791915831151 0 0 1 I I #
straight-curve $-1 76.60546076565168505 16.06969324924637732 37.71918902832370435 0 0.6156614647604883306 -0.7880107618611372766 I I #
edge $-1 $245 -52.08410901211584587 $122 -24.52135175353583918 $189 $246 forward 7 unknown #
point $-1 76.60546076565168505 41.81129857101650771 8.839618239409066547 #
point $-1 76.60546076565168505 38.63288618275936415 8.83961823940906477 #
edge $-1 $247 1 $247 0 $125 $-1 forward 7 unknown #
vertex $-1 $126 $248 #
ellipse-curve $-1 90.3868393949416884 38.69660964573290585 5.613689314792906337 0 0.7880107618611372766 0.6156614647604883306 0.5 0 0 1 I I #
point $-1 90.8868393949416884 40.22209237688792882 6.805527013191285057 #
plane-surface $-1 104.1682180242316917 20.90564928550825385 4.419809119704533273 -1 0 0 0 0 1 forward_v I I I I #
coedge $-1 $134 $132 $136 $206 reversed $77 $-1 #
edge $-1 $147 -4.419809119704533273 $208 4.419809119704533273 $146 $249 forward 7 unknown #
vertex $-1 $206 $250 #
straight-curve $-1 0 0 4.419809119704533273 0 0 -1 I I #
edge $-1 $204 -20.90564928550825385 $208 20.90564928550825385 $202 $251 forward 7 unknown #
straight-curve $-1 52.08410901211584587 0 0 -1 0 0 I I #
vertex $-1 $139 $252 #
straight-curve $-1 52.08410901211584587 41.81129857101650771 0 1 0 0 I I #
point $-1 104.1682180242316917 41.81129857101650771 0 #
point $-1 104.1682180242316917 0 0 #
straight-curve $-1 0 20.90564928550825385 8.839618239409066547 0 -1 0 I I #
point $-1 0 41.81129857101650771 8.839618239409066547 #
point $-1 0 0 8.839618239409066547 #
straight-curve $-1 104.1682180242316917 0 4.419809119704533273 0 0 -1 I I #
straight-curve $-1 104.1682180242316917 41.81129857101650771 4.419809119704533273 0 0 -1 I I #
loop $-1 $-1 $162 $156 #
plane-surface $-1 52.08410901211584587 0 4.419809119704533273 0 1 0 0 0 1 forward_v I I I I #
coedge $-1 $173 $164 $160 $221 forward $157 $-1 #
edge $-1 $225 -11.26432976132586106 $168 -8.018309287038924538 $159 $253 forward 7 unknown #
edge $-1 $169 8.018309287038924538 $224 11.26432976132586106 $219 $254 forward 7 unknown #
coedge $-1 $171 $162 $176 $234 reversed $217 $-1 #
coedge $-1 $162 $171 $173 $232 reversed $217 $-1 #
vertex $-1 $232 $255 #
vertex $-1 $163 $256 #
straight-curve $-1 8.839618239409062994 0 4.419809119704533273 0 0 1 I I #
straight-curve $-1 29.71186362576245443 3.246020474286936519 0 1 0 0 I I #
straight-curve $-1 29.71186362576245443 3.246020474286936519 8.839618239409066547 -1 0 0 I I #
point $-1 8.839618239409062994 3.246020474286936519 8.839618239409066547 #
point $-1 8.839618239409062994 3.246020474286936519 0 #
straight-curve $-1 5.839618239409062994 0 4.419809119704533273 0 0 -1 I I #
edge $-1 $224 43.24449077270678288 $174 46.24449077270678288 $223 $257 forward 7 unknown #
point $-1 5.839618239409062994 0 0 #
edge $-1 $177 -46.24449077270678288 $225 -43.24449077270678288 $222 $258 forward 7 unknown #
point $-1 5.839618239409062994 0 8.839618239409066547 #
coedge $-1 $237 $183 $243 $259 reversed $112 $-1 #
coedge $-1 $183 $236 $186 $241 reversed $112 $-1 #
edge $-1 $239 -32.93274382070292461 $191 -5.369986562122917917 $190 $260 forward 7 unknown #
vertex $-1 $185 $261 #
straight-curve $-1 104.1682180242316917 25.06376276326328068 26.20730469635610405 0 0.6156614647604883306 -0.7880107618611372766 I I #
edge $-1 $187 17.72723689725111029 $245 20.90564928550825385 $237 $262 forward 7 unknown #
point $-1 104.1682180242316917 38.63288618275936415 8.83961823940906477 #
coedge $-1 $190 $189 $236 $259 forward $181 $-1 #
point $-1 76.60546076565168505 41.81129857101650771 4.771435786973514226 #
vertex $-1 $241 $263 #
straight-curve $-1 52.08410901211584587 41.81129857101650771 8.839618239409066547 -1 0 0 I I #
vertex $-1 $197 $264 #
point $-1 90.8868393949416884 38.69660964573290585 5.613689314792906337 #
straight-curve $-1 0 41.81129857101650771 4.419809119704533273 0 0 -1 I I #
point $-1 0 0 0 #
straight-curve $-1 0 20.90564928550825385 0 0 1 0 I I #
point $-1 0 41.81129857101650771 0 #
straight-curve $-1 8.839618239409062994 11.26432976132586106 8.839618239409066547 0 1 0 I I #
straight-curve $-1 8.839618239409062994 11.26432976132586106 0 0 -1 0 I I #
point $-1 8.839618239409062994 0 0 #
point $-1 8.839618239409062994 0 8.839618239409066547 #
straight-curve $-1 52.08410901211584587 0 0 -1 0 0 I I #
straight-curve $-1 52.08410901211584587 0 8.839618239409066547 1 0 0 I I #
edge $-1 $245 -4.419809119704533273 $239 -0.3516266672689809525 $236 $265 forward 7 unknown #
straight-curve $-1 71.23547420352876713 41.81129857101650771 4.771435786973514226 -1 0 0 I I #
point $-1 104.1682180242316917 41.81129857101650771 4.771435786973514226 #
straight-curve $-1 104.1682180242316917 20.90564928550825385 8.839618239409066547 0 1 0 I I #
point $-1 104.1682180242316917 41.81129857101650771 8.839618239409066547 #
point $-1 90.3868393949416884 38.30260426480234059 5.305858582412661839 #
straight-curve $-1 104.1682180242316917 41.81129857101650771 4.419809119704533273 0 0 -1 I I #
End-of-ACIS-data 