300 0 6 0           
7 Unknown 11 ACIS 3.0 NT 24 Fri Oct 30 19:28:12 1998 
-1 9.9999999999999995e-007 1e-010 
body $6 $7 $-1 $8 #
body $9 $10 $-1 $11 #
body $12 $13 $-1 $14 #
body $15 $16 $-1 $17 #
body $18 $19 $-1 $20 #
body $21 $22 $-1 $23 #
display_attribute-st-attrib $-1 $24 $-1 $0 1 #
lump $-1 $-1 $25 $0 #
transform $-1 1 0 0 0 1 0 0 0 1 61.922055726798305 30.727263457338026 10.807009338289935 1 rotate no_reflect no_shear #
display_attribute-st-attrib $-1 $26 $-1 $1 5 #
lump $-1 $-1 $27 $1 #
transform $-1 1 0 0 0 1 0 0 0 1 61.922055726798305 30.727263457338026 10.807009338289935 1 rotate no_reflect no_shear #
display_attribute-st-attrib $-1 $28 $-1 $2 4 #
lump $-1 $-1 $29 $2 #
transform $-1 1 0 0 0 1 0 0 0 1 61.922055726798305 30.727263457338026 10.807009338289935 1 rotate no_reflect no_shear #
display_attribute-st-attrib $-1 $30 $-1 $3 3 #
lump $-1 $-1 $31 $3 #
transform $-1 1 0 0 0 1 0 0 0 1 61.922055726798305 30.727263457338026 10.807009338289935 1 rotate no_reflect no_shear #
display_attribute-st-attrib $-1 $32 $-1 $4 2 #
lump $-1 $-1 $33 $4 #
transform $-1 1 0 0 0 1 0 0 0 1 61.922055726798305 30.727263457338026 10.807009338289935 1 rotate no_reflect no_shear #
display_attribute-st-attrib $-1 $34 $-1 $5 1 #
lump $-1 $-1 $35 $5 #
transform $-1 1 0 0 0 1 0 0 0 1 61.922055726798305 30.727263457338026 10.807009338289935 1 rotate no_reflect no_shear #
id_attribute-st-attrib $-1 $-1 $6 $0 3741 #
shell $-1 $-1 $-1 $36 $-1 $7 #
id_attribute-st-attrib $-1 $-1 $9 $1 3749 #
shell $-1 $-1 $-1 $37 $-1 $10 #
id_attribute-st-attrib $-1 $-1 $12 $2 3759 #
shell $-1 $-1 $-1 $38 $-1 $13 #
id_attribute-st-attrib $-1 $-1 $15 $3 3767 #
shell $-1 $-1 $-1 $39 $-1 $16 #
id_attribute-st-attrib $-1 $-1 $18 $4 3779 #
shell $-1 $-1 $-1 $40 $-1 $19 #
id_attribute-st-attrib $-1 $-1 $21 $5 3789 #
shell $-1 $-1 $-1 $41 $-1 $22 #
face $-1 $42 $43 $25 $-1 $44 forward single #
face $-1 $45 $46 $27 $-1 $47 forward single #
face $-1 $48 $49 $29 $-1 $50 reversed single #
face $-1 $51 $52 $31 $-1 $53 forward single #
face $-1 $54 $55 $33 $-1 $56 reversed single #
face $-1 $57 $58 $35 $-1 $59 forward single #
face $-1 $60 $61 $25 $-1 $62 reversed single #
loop $-1 $-1 $63 $36 #
plane-surface $-1 0 0 10.807009338289935 0 0 1 1 0 0 forward_v I I I I #
face $-1 $64 $65 $27 $-1 $66 reversed single #
loop $-1 $-1 $67 $37 #
plane-surface $-1 -55.711183324578386 0 -3.2285853781249276 0 0 1 1 0 0 forward_v I I I I #
face $-1 $68 $69 $29 $-1 $70 reversed single #
loop $-1 $-1 $71 $38 #
plane-surface $-1 -49.500310922358466 67.925536611398613 137.92014255878561 1 0 0 0 -0.66913061440640931 -0.74314481823134659 forward_v I I I I #
face $-1 $72 $73 $31 $-1 $74 forward single #
loop $-1 $75 $76 $39 #
cone-surface $-1 -35.952769803288277 26.088881749265351 6.3608572039341258 0 -0.66913061440640931 -0.74314481823134659 1.5 0 0 1 I I 0 1 forward I I I I #
face $-1 $77 $78 $33 $-1 $79 reversed single #
loop $-1 $-1 $80 $40 #
plane-surface $-1 31.974862436214661 -121.30111381618588 90.530633199347506 -1 0 0 0 -0.73135370988377701 0.68199835119979291 forward_v I I I I #
face $-1 $81 $82 $35 $-1 $83 forward single #
loop $-1 $84 $85 $41 #
cone-surface $-1 15.580129093402945 -27.69706722705325 7.672360411070227 0 0.73135370988377701 -0.68199835119979291 1 0 0 1 I I 0 1 forward I I I I #
face $-1 $86 $87 $25 $-1 $88 reversed single #
loop $-1 $-1 $89 $42 #
plane-surface $-1 0 0 -10.807009338289935 0 0 1 1 0 0 forward_v I I I I #
coedge $-1 $90 $91 $92 $93 forward $43 $-1 #
face $-1 $94 $95 $27 $-1 $96 reversed single #
loop $-1 $-1 $97 $45 #
plane-surface $-1 -55.711183324578386 0 -8.6368063848515337 0 0 1 1 0 0 forward_v I I I I #
coedge $-1 $98 $99 $100 $101 forward $46 $-1 #
face $-1 $102 $103 $29 $-1 $104 reversed single #
loop $-1 $-1 $105 $48 #
plane-surface $-1 -35.952769803288277 -14.942349776162317 45.886032863579942 0 0.66913061440640931 0.74314481823134659 1 0 0 forward_v I I I I #
coedge $-1 $106 $107 $108 $109 reversed $49 $-1 #
face $-1 $-1 $110 $31 $-1 $111 forward single #
loop $-1 $112 $113 $51 #
cone-surface $-1 -35.952769803288277 24.303857853765628 4.3783873694960054 0 -0.66913061440640931 -0.74314481823134659 0.75 0 0 1 I I -0.70710678118654757 0.70710678118654757 forward I I I I #
loop $-1 $-1 $114 $39 #
coedge $-1 $76 $76 $115 $116 reversed $52 $-1 #
face $-1 $117 $118 $33 $-1 $119 reversed single #
loop $-1 $-1 $120 $54 #
plane-surface $-1 15.580129093402931 -30.72726345733804 6.0691533821912316 0 -0.73135370988377701 0.68199835119979291 1 0 0 forward_v I I I I #
coedge $-1 $121 $122 $123 $124 reversed $55 $-1 #
face $-1 $-1 $125 $35 $-1 $126 forward single #
loop $-1 $127 $128 $57 #
cone-surface $-1 15.580129093402945 -26.510255165660688 6.565640286299983 0 0.73135370988377701 -0.68199835119979291 0.5 0 0 1 I I -0.70710678118654746 0.70710678118654746 forward I I I I #
loop $-1 $-1 $129 $41 #
coedge $-1 $85 $85 $130 $131 reversed $58 $-1 #
face $-1 $132 $133 $25 $-1 $134 reversed single #
loop $-1 $-1 $135 $60 #
plane-surface $-1 0 -30.727263457338026 0 0 1 0 0 0 1 forward_v I I I I #
coedge $-1 $136 $137 $138 $139 forward $61 $-1 #
coedge $-1 $140 $63 $141 $142 forward $43 $-1 #
coedge $-1 $63 $140 $143 $144 forward $43 $-1 #
coedge $-1 $145 $146 $63 $93 reversed $147 $-1 #
edge $-1 $148 $149 $92 $150 forward #
face $-1 $151 $152 $27 $-1 $153 reversed single #
loop $-1 $-1 $154 $64 #
plane-surface $-1 -49.500310922358466 0 -5.9326958814882307 -1 0 0 0 0 1 forward_v I I I I #
coedge $-1 $155 $156 $157 $158 forward $65 $-1 #
coedge $-1 $159 $67 $160 $161 reversed $46 $-1 #
coedge $-1 $67 $159 $162 $163 reversed $46 $-1 #
coedge $-1 $154 $164 $67 $101 reversed $95 $-1 #
edge $-1 $165 $166 $100 $167 forward #
face $-1 $168 $169 $29 $-1 $170 forward single #
loop $-1 $-1 $171 $68 #
plane-surface $-1 -22.405228684218084 67.925536611398613 137.92014255878561 -1 0 0 0 0.66913061440640931 0.74314481823134659 forward_v I I I I #
coedge $-1 $172 $173 $174 $175 reversed $69 $-1 #
coedge $-1 $107 $71 $176 $177 reversed $49 $-1 #
coedge $-1 $71 $106 $172 $178 reversed $49 $-1 #
coedge $-1 $174 $179 $71 $109 forward $169 $-1 #
edge $-1 $180 $181 $108 $182 forward #
loop $-1 $-1 $115 $72 #
plane-surface $-1 -35.952769803288277 -14.942349776162317 45.886032863579942 0 0.66913061440640931 0.74314481823134659 1 0 0 forward_v I I I I #
loop $-1 $-1 $183 $51 #
coedge $-1 $113 $113 $114 $184 reversed $73 $-1 #
coedge $-1 $114 $114 $113 $184 forward $75 $-1 #
coedge $-1 $115 $115 $76 $116 forward $110 $-1 #
edge $-1 $185 $185 $115 $186 forward #
face $-1 $187 $188 $33 $-1 $189 reversed single #
loop $-1 $-1 $190 $77 #
plane-surface $-1 -0.81460424940879861 -121.30111381618588 90.530633199347506 1 0 0 0 0.73135370988377701 -0.68199835119979291 forward_v I I I I #
coedge $-1 $191 $192 $193 $194 reversed $78 $-1 #
coedge $-1 $122 $80 $195 $196 reversed $55 $-1 #
coedge $-1 $80 $121 $191 $197 reversed $55 $-1 #
coedge $-1 $193 $198 $80 $124 forward $199 $-1 #
edge $-1 $200 $201 $123 $202 forward #
loop $-1 $-1 $130 $81 #
plane-surface $-1 15.580129093402931 -30.72726345733804 6.0691533821912316 0 -0.73135370988377701 0.68199835119979291 1 0 0 forward_v I I I I #
loop $-1 $-1 $203 $57 #
coedge $-1 $128 $128 $129 $204 reversed $82 $-1 #
coedge $-1 $129 $129 $128 $204 forward $84 $-1 #
coedge $-1 $130 $130 $85 $131 forward $125 $-1 #
edge $-1 $205 $205 $130 $206 forward #
face $-1 $207 $208 $25 $-1 $209 reversed single #
loop $-1 $-1 $210 $86 #
plane-surface $-1 -61.922055726798305 0 0 1 0 0 0 0 -1 forward_v I I I I #
coedge $-1 $211 $143 $212 $213 forward $87 $-1 #
coedge $-1 $214 $89 $211 $215 forward $61 $-1 #
coedge $-1 $89 $214 $216 $217 forward $61 $-1 #
coedge $-1 $146 $145 $89 $139 reversed $147 $-1 #
edge $-1 $218 $219 $138 $220 forward #
coedge $-1 $91 $90 $221 $222 forward $43 $-1 #
coedge $-1 $223 $224 $90 $142 reversed $208 $-1 #
edge $-1 $149 $225 $141 $226 forward #
coedge $-1 $135 $227 $91 $144 reversed $87 $-1 #
edge $-1 $228 $148 $143 $229 forward #
coedge $-1 $138 $92 $227 $230 forward $147 $-1 #
coedge $-1 $92 $138 $223 $231 reversed $147 $-1 #
loop $-1 $-1 $145 $207 #
vertex $-1 $93 $232 #
vertex $-1 $93 $233 #
straight-curve $-1 61.922055726798305 0 10.807009338289935 0 1 0 I I #
face $-1 $234 $235 $27 $-1 $236 reversed single #
loop $-1 $-1 $237 $94 #
plane-surface $-1 0 -30.727263457338026 0 0 1 0 0 0 1 forward_v I I I I #
coedge $-1 $157 $100 $238 $239 reversed $95 $-1 #
coedge $-1 $240 $97 $237 $241 reversed $65 $-1 #
coedge $-1 $97 $240 $242 $243 reversed $65 $-1 #
coedge $-1 $164 $154 $97 $158 reversed $95 $-1 #
edge $-1 $244 $245 $157 $246 forward #
coedge $-1 $99 $98 $247 $248 reversed $46 $-1 #
coedge $-1 $249 $250 $98 $161 forward $251 $-1 #
edge $-1 $252 $166 $160 $253 forward #
coedge $-1 $254 $238 $99 $163 forward $152 $-1 #
edge $-1 $165 $255 $162 $256 forward #
coedge $-1 $100 $157 $249 $257 reversed $95 $-1 #
vertex $-1 $163 $258 #
vertex $-1 $161 $259 #
straight-curve $-1 -49.500310922358466 0 -3.2285853781249276 0 1 0 I I #
face $-1 $-1 $260 $29 $-1 $261 reversed single #
loop $-1 $-1 $108 $102 #
plane-surface $-1 0 0 10.807009338289935 0 0 1 1 0 0 forward_v I I I I #
coedge $-1 $262 $263 $264 $265 reversed $103 $-1 #
coedge $-1 $266 $105 $107 $178 forward $69 $-1 #
coedge $-1 $105 $266 $262 $267 forward $69 $-1 #
coedge $-1 $264 $108 $105 $175 forward $169 $-1 #
edge $-1 $181 $268 $174 $269 forward #
coedge $-1 $270 $271 $106 $177 forward $260 $-1 #
edge $-1 $272 $180 $176 $273 forward #
edge $-1 $181 $272 $107 $274 forward #
coedge $-1 $108 $264 $270 $275 forward $169 $-1 #
vertex $-1 $177 $276 #
vertex $-1 $109 $277 #
straight-curve $-1 -49.500310922358466 33.962768305699306 10.807009338289937 0 -1 0 I I #
coedge $-1 $183 $183 $-1 $278 reversed $112 $-1 #
edge $-1 $279 $279 $113 $280 forward #
vertex $-1 $116 $281 #
ellipse-curve $-1 -35.952769803288277 27.372057683960261 7.7859684246987308 0 0.66913061440640931 0.74314481823134659 1.5 0 0 1 I I #
face $-1 $-1 $199 $33 $-1 $282 forward single #
loop $-1 $-1 $283 $117 #
plane-surface $-1 0 -30.727263457338026 0 0 1 0 0 0 1 forward_v I I I I #
coedge $-1 $284 $285 $286 $287 reversed $118 $-1 #
coedge $-1 $288 $120 $122 $197 forward $78 $-1 #
coedge $-1 $120 $288 $284 $289 forward $78 $-1 #
coedge $-1 $286 $123 $120 $194 forward $199 $-1 #
edge $-1 $201 $290 $193 $291 forward #
coedge $-1 $292 $293 $121 $196 forward $188 $-1 #
edge $-1 $294 $200 $195 $295 forward #
edge $-1 $201 $294 $122 $296 forward #
coedge $-1 $123 $286 $292 $297 forward $199 $-1 #
loop $-1 $-1 $286 $187 #
vertex $-1 $196 $298 #
vertex $-1 $124 $299 #
straight-curve $-1 31.974862436214661 -60.650556908092938 10.807009338289937 0 1 0 I I #
coedge $-1 $203 $203 $-1 $300 reversed $127 $-1 #
edge $-1 $301 $301 $128 $302 forward #
vertex $-1 $131 $303 #
ellipse-curve $-1 15.580129093402945 -28.518202433503941 8.4380813602405915 0 -0.73135370988377701 0.68199835119979291 1 0 0 1 I I #
face $-1 $-1 $147 $25 $-1 $304 reversed single #
loop $-1 $-1 $223 $132 #
plane-surface $-1 0 30.727263457338026 0 0 -1 0 0 0 -1 forward_v I I I I #
coedge $-1 $305 $221 $224 $306 forward $133 $-1 #
coedge $-1 $227 $135 $136 $215 reversed $87 $-1 #
coedge $-1 $221 $305 $135 $213 reversed $133 $-1 #
edge $-1 $228 $307 $212 $308 forward #
coedge $-1 $137 $136 $305 $309 forward $61 $-1 #
edge $-1 $219 $307 $211 $310 forward #
coedge $-1 $224 $223 $137 $217 reversed $208 $-1 #
edge $-1 $311 $218 $216 $312 forward #
vertex $-1 $139 $313 #
vertex $-1 $230 $314 #
straight-curve $-1 61.922055726798305 0 -10.807009338289935 0 -1 0 I I #
coedge $-1 $210 $212 $140 $222 reversed $133 $-1 #
edge $-1 $225 $228 $221 $315 forward #
coedge $-1 $216 $141 $146 $231 forward $208 $-1 #
coedge $-1 $141 $216 $210 $306 reversed $208 $-1 #
vertex $-1 $142 $316 #
straight-curve $-1 0 30.727263457338026 10.807009338289935 -1 0 0 I I #
coedge $-1 $143 $211 $145 $230 reversed $87 $-1 #
vertex $-1 $222 $317 #
straight-curve $-1 0 -30.727263457338026 10.807009338289935 1 0 0 I I #
edge $-1 $148 $219 $145 $318 forward #
edge $-1 $149 $218 $146 $319 forward #
point $-1 61.922055726798305 -30.727263457338026 10.807009338289935 #
point $-1 61.922055726798305 30.727263457338026 10.807009338289935 #
face $-1 $-1 $251 $27 $-1 $320 reversed single #
loop $-1 $-1 $321 $151 #
plane-surface $-1 -61.922055726798305 0 0 1 0 0 0 0 -1 forward_v I I I I #
coedge $-1 $238 $254 $155 $241 forward $152 $-1 #
coedge $-1 $162 $237 $154 $239 forward $152 $-1 #
edge $-1 $245 $165 $238 $322 forward #
coedge $-1 $156 $155 $321 $323 reversed $65 $-1 #
edge $-1 $324 $245 $237 $325 forward #
coedge $-1 $250 $249 $156 $243 forward $251 $-1 #
edge $-1 $244 $326 $242 $327 forward #
vertex $-1 $243 $328 #
vertex $-1 $241 $329 #
straight-curve $-1 -49.500310922358466 0 -8.6368063848515337 0 -1 0 I I #
coedge $-1 $330 $331 $159 $248 forward $235 $-1 #
edge $-1 $255 $252 $247 $332 forward #
coedge $-1 $242 $160 $164 $257 forward $251 $-1 #
coedge $-1 $160 $242 $330 $333 reversed $251 $-1 #
loop $-1 $-1 $242 $234 #
vertex $-1 $333 $334 #
straight-curve $-1 -27.855591662289193 30.727263457338026 -3.2285853781249276 1 0 0 I I #
coedge $-1 $237 $162 $331 $335 forward $152 $-1 #
vertex $-1 $335 $336 #
straight-curve $-1 -27.855591662289193 -30.727263457338026 -3.2285853781249276 -1 0 0 I I #
edge $-1 $166 $244 $249 $337 forward #
point $-1 -49.500310922358466 -30.727263457338026 -3.2285853781249276 #
point $-1 -49.500310922358466 30.727263457338026 -3.2285853781249276 #
loop $-1 $-1 $176 $168 #
plane-surface $-1 0 30.727263457338026 0 0 -1 0 0 0 -1 forward_v I I I I #
coedge $-1 $263 $171 $173 $267 reversed $103 $-1 #
coedge $-1 $171 $262 $338 $339 reversed $103 $-1 #
coedge $-1 $179 $174 $171 $265 forward $169 $-1 #
edge $-1 $268 $340 $264 $341 forward #
coedge $-1 $173 $172 $271 $342 reversed $69 $-1 #
edge $-1 $343 $268 $262 $344 forward #
vertex $-1 $175 $345 #
straight-curve $-1 -17.976384901644138 24.016851910582499 10.807009338289934 1 0 0 I I #
coedge $-1 $338 $176 $179 $275 reversed $260 $-1 #
coedge $-1 $176 $338 $266 $342 forward $260 $-1 #
vertex $-1 $177 $346 #
straight-curve $-1 -49.500310922358466 30.727263457338026 68.960071279392807 0 0 1 I I #
straight-curve $-1 -49.500310922358466 -14.942349776162317 45.886032863579942 0 0.74314481823134659 -0.66913061440640931 I I #
edge $-1 $340 $180 $270 $347 forward #
point $-1 -49.500310922358466 30.727263457338026 10.807009338289935 #
point $-1 -49.500310922358466 24.016851910582496 10.807009338289937 #
edge $-1 $348 $348 $183 $-1 forward #
vertex $-1 $184 $349 #
ellipse-curve $-1 -35.952769803288277 24.805705814570434 4.9357459831695154 0 0.66913061440640931 0.74314481823134659 1.5 0 0 1 I I #
point $-1 -34.452769803288277 27.372057683960268 7.7859684246987362 #
plane-surface $-1 0 0 10.807009338289935 0 0 1 1 0 0 forward_v I I I I #
coedge $-1 $293 $292 $285 $350 forward $188 $-1 #
coedge $-1 $285 $190 $192 $289 reversed $118 $-1 #
coedge $-1 $190 $284 $283 $350 reversed $118 $-1 #
coedge $-1 $198 $193 $190 $287 forward $199 $-1 #
edge $-1 $290 $351 $286 $352 forward #
coedge $-1 $192 $191 $293 $353 reversed $78 $-1 #
edge $-1 $354 $290 $284 $355 forward #
vertex $-1 $194 $356 #
straight-curve $-1 7.7900645467014655 -26.309141409669859 10.807009338289935 -1 0 0 I I #
coedge $-1 $283 $195 $198 $297 reversed $188 $-1 #
coedge $-1 $195 $283 $288 $353 forward $188 $-1 #
vertex $-1 $196 $357 #
straight-curve $-1 31.974862436214661 -30.727263457338026 45.265316599673753 0 0 1 I I #
straight-curve $-1 31.974862436214661 -30.72726345733804 6.0691533821912316 0 -0.68199835119979291 -0.73135370988377701 I I #
edge $-1 $351 $200 $292 $358 forward #
point $-1 31.974862436214661 -30.727263457338026 10.807009338289935 #
point $-1 31.974862436214661 -26.309141409669859 10.807009338289935 #
edge $-1 $359 $359 $203 $-1 forward #
vertex $-1 $204 $360 #
ellipse-curve $-1 15.580129093402945 -26.875932020602576 6.9066394618998794 0 -0.73135370988377701 0.68199835119979291 1 0 0 1 I I #
point $-1 16.580129093402945 -28.518202433503923 8.4380813602405755 #
plane-surface $-1 61.922055726798305 0 0 -1 0 0 0 0 1 forward_v I I I I #
coedge $-1 $212 $210 $214 $309 reversed $133 $-1 #
edge $-1 $225 $311 $224 $361 forward #
vertex $-1 $309 $362 #
straight-curve $-1 -61.922055726798305 -30.727263457338026 0 0 0 -1 I I #
edge $-1 $307 $311 $305 $363 forward #
straight-curve $-1 0 -30.727263457338026 -10.807009338289935 -1 0 0 I I #
vertex $-1 $217 $364 #
straight-curve $-1 0 30.727263457338026 -10.807009338289935 1 0 0 I I #
point $-1 61.922055726798305 30.727263457338026 -10.807009338289935 #
point $-1 61.922055726798305 -30.727263457338026 -10.807009338289935 #
straight-curve $-1 -61.922055726798305 0 10.807009338289935 0 -1 0 I I #
point $-1 -61.922055726798305 30.727263457338026 10.807009338289935 #
point $-1 -61.922055726798305 -30.727263457338026 10.807009338289935 #
straight-curve $-1 61.922055726798305 -30.727263457338026 0 0 0 -1 I I #
straight-curve $-1 61.922055726798305 30.727263457338026 0 0 0 -1 I I #
plane-surface $-1 0 30.727263457338026 0 0 -1 0 0 0 -1 forward_v I I I I #
coedge $-1 $331 $330 $240 $323 forward $235 $-1 #
straight-curve $-1 -49.500310922358466 -30.727263457338026 -2.9663479407441153 0 0 1 I I #
edge $-1 $326 $324 $321 $365 forward #
vertex $-1 $241 $366 #
straight-curve $-1 -27.855591662289193 -30.727263457338026 -8.6368063848515337 1 0 0 I I #
vertex $-1 $243 $367 #
straight-curve $-1 -27.855591662289193 30.727263457338026 -8.6368063848515337 -1 0 0 I I #
point $-1 -49.500310922358466 30.727263457338026 -8.6368063848515337 #
point $-1 -49.500310922358466 -30.727263457338026 -8.6368063848515337 #
coedge $-1 $321 $247 $250 $333 forward $235 $-1 #
coedge $-1 $247 $321 $254 $335 reversed $235 $-1 #
straight-curve $-1 -61.922055726798305 0 -3.2285853781249276 0 1 0 I I #
edge $-1 $252 $326 $250 $368 forward #
point $-1 -61.922055726798305 30.727263457338026 -3.2285853781249276 #
edge $-1 $255 $324 $331 $369 forward #
point $-1 -61.922055726798305 -30.727263457338026 -3.2285853781249276 #
straight-curve $-1 -49.500310922358466 30.727263457338026 -2.9663479407441153 0 0 -1 I I #
coedge $-1 $271 $270 $263 $339 forward $260 $-1 #
edge $-1 $340 $343 $338 $370 forward #
vertex $-1 $275 $371 #
straight-curve $-1 -22.405228684218084 33.962768305699306 10.807009338289937 0 1 0 I I #
edge $-1 $343 $272 $271 $372 forward #
vertex $-1 $342 $373 #
straight-curve $-1 -22.405228684218084 -14.942349776162317 45.886032863579942 0 -0.74314481823134659 0.66913061440640931 I I #
point $-1 -22.405228684218084 24.016851910582496 10.807009338289937 #
point $-1 -49.500310922358466 30.727263457338026 4.7649275111075298 #
straight-curve $-1 0 30.727263457338026 10.807009338289935 -1 0 0 I I #
vertex $-1 $278 $374 #
point $-1 -34.452769803288277 24.805705814570434 4.9357459831695154 #
edge $-1 $351 $354 $283 $375 forward #
vertex $-1 $297 $376 #
straight-curve $-1 -0.81460424940879861 -60.650556908092938 10.807009338289937 0 -1 0 I I #
edge $-1 $354 $294 $293 $377 forward #
vertex $-1 $353 $378 #
straight-curve $-1 -0.81460424940879861 -30.72726345733804 6.0691533821912316 0 0.68199835119979291 0.73135370988377701 I I #
point $-1 -0.81460424940879861 -26.309141409669859 10.807009338289935 #
point $-1 31.974862436214661 -30.727263457338026 6.0691533821912467 #
straight-curve $-1 0 -30.727263457338026 10.807009338289935 1 0 0 I I #
vertex $-1 $300 $379 #
point $-1 16.580129093402945 -26.875932020602576 6.9066394618998794 #
straight-curve $-1 -61.922055726798305 30.727263457338026 0 0 0 -1 I I #
point $-1 -61.922055726798305 -30.727263457338026 -10.807009338289935 #
straight-curve $-1 -61.922055726798305 0 -10.807009338289935 0 1 0 I I #
point $-1 -61.922055726798305 30.727263457338026 -10.807009338289935 #
straight-curve $-1 -61.922055726798305 0 -8.6368063848515337 0 -1 0 I I #
point $-1 -61.922055726798305 -30.727263457338026 -8.6368063848515337 #
point $-1 -61.922055726798305 30.727263457338026 -8.6368063848515337 #
straight-curve $-1 -61.922055726798305 30.727263457338026 0 0 0 -1 I I #
straight-curve $-1 -61.922055726798305 -30.727263457338026 0 0 0 -1 I I #
straight-curve $-1 -22.405228684218084 30.727263457338026 68.960071279392807 0 0 -1 I I #
point $-1 -22.405228684218084 30.727263457338026 10.807009338289935 #
straight-curve $-1 -17.976384901644138 30.727263457338022 4.7649275111075262 -1 0 0 I I #
point $-1 -22.405228684218084 30.727263457338026 4.7649275111075298 #
point $-1 -35.952769803288277 23.802009892960822 3.8210287558224953 #
straight-curve $-1 -0.81460424940879861 -30.727263457338026 45.265316599673753 0 0 -1 I I #
point $-1 -0.81460424940879861 -30.727263457338026 10.807009338289935 #
straight-curve $-1 7.7900645467014655 -30.727263457338026 6.069153382191244 1 0 0 I I #
point $-1 -0.81460424940879861 -30.727263457338026 6.0691533821912467 #
point $-1 15.580129093402945 -26.144578310718799 6.2246411107000865 #
End-of-ACIS-data 