300 0 7 0           
7 Unknown 11 ACIS 3.0 NT 24 Fri Oct 30 20:38:50 1998 
-1 9.9999999999999995e-007 1e-010 
body $7 $8 $-1 $9 #
body $10 $11 $-1 $12 #
body $13 $14 $-1 $15 #
body $16 $17 $-1 $18 #
body $19 $20 $-1 $21 #
body $22 $23 $-1 $24 #
body $25 $26 $-1 $27 #
display_attribute-st-attrib $-1 $28 $-1 $0 1 #
lump $-1 $-1 $29 $0 #
transform $-1 1 0 0 0 1 0 0 0 1 43.797723319193089 29.778228070751403 12.992384404757543 1 rotate no_reflect no_shear #
display_attribute-st-attrib $-1 $30 $-1 $1 6 #
lump $-1 $-1 $31 $1 #
transform $-1 1 0 0 0 1 0 0 0 1 43.797723319193089 29.778228070751403 12.992384404757543 1 rotate no_reflect no_shear #
display_attribute-st-attrib $-1 $32 $-1 $2 5 #
lump $-1 $-1 $33 $2 #
transform $-1 1 0 0 0 1 0 0 0 1 43.797723319193089 29.778228070751403 12.992384404757543 1 rotate no_reflect no_shear #
display_attribute-st-attrib $-1 $34 $-1 $3 4 #
lump $-1 $-1 $35 $3 #
transform $-1 1 0 0 0 1 0 0 0 1 43.797723319193089 29.778228070751403 12.992384404757543 1 rotate no_reflect no_shear #
display_attribute-st-attrib $-1 $36 $-1 $4 3 #
lump $-1 $-1 $37 $4 #
transform $-1 1 0 0 0 1 0 0 0 1 43.797723319193089 29.778228070751403 12.992384404757543 1 rotate no_reflect no_shear #
display_attribute-st-attrib $-1 $38 $-1 $5 2 #
lump $-1 $-1 $39 $5 #
transform $-1 1 0 0 0 1 0 0 0 1 43.797723319193089 29.778228070751403 12.992384404757543 1 rotate no_reflect no_shear #
display_attribute-st-attrib $-1 $40 $-1 $6 1 #
lump $-1 $-1 $41 $6 #
transform $-1 1 0 0 0 1 0 0 0 1 43.797723319193089 29.778228070751403 12.992384404757543 1 rotate no_reflect no_shear #
id_attribute-st-attrib $-1 $-1 $7 $0 4732 #
shell $-1 $-1 $-1 $42 $-1 $8 #
id_attribute-st-attrib $-1 $-1 $10 $1 4740 #
shell $-1 $-1 $-1 $43 $-1 $11 #
id_attribute-st-attrib $-1 $-1 $13 $2 4748 #
shell $-1 $-1 $-1 $44 $-1 $14 #
id_attribute-st-attrib $-1 $-1 $16 $3 4759 #
shell $-1 $-1 $-1 $45 $-1 $17 #
id_attribute-st-attrib $-1 $-1 $19 $4 4768 #
shell $-1 $-1 $-1 $46 $-1 $20 #
id_attribute-st-attrib $-1 $-1 $22 $5 4781 #
shell $-1 $-1 $-1 $47 $-1 $23 #
id_attribute-st-attrib $-1 $-1 $25 $6 4792 #
shell $-1 $-1 $-1 $48 $-1 $26 #
face $-1 $49 $50 $29 $-1 $51 forward single #
face $-1 $52 $53 $31 $-1 $54 forward single #
face $-1 $55 $56 $33 $-1 $57 forward single #
face $-1 $58 $59 $35 $-1 $60 reversed single #
face $-1 $61 $62 $37 $-1 $63 forward single #
face $-1 $64 $65 $39 $-1 $66 reversed single #
face $-1 $67 $68 $41 $-1 $69 forward single #
face $-1 $70 $71 $29 $-1 $72 reversed single #
loop $-1 $-1 $73 $42 #
plane-surface $-1 0 0 12.992384404757543 0 0 1 1 0 0 forward_v I I I I #
face $-1 $74 $75 $31 $-1 $76 reversed single #
loop $-1 $-1 $77 $43 #
plane-surface $-1 0 -24.366759404010658 -9.7342764713522048 0 0 1 1 0 0 forward_v I I I I #
face $-1 $78 $79 $33 $-1 $80 reversed single #
loop $-1 $-1 $81 $44 #
plane-surface $-1 0 24.366759404010658 -9.7342764713522048 0 0 1 1 0 0 forward_v I I I I #
face $-1 $82 $83 $35 $-1 $84 reversed single #
loop $-1 $-1 $85 $45 #
plane-surface $-1 -94.040408090139692 18.955290737269912 80.750702641457025 0 -1 0 0.57357644374324357 0 -0.81915203911291934 forward_v I I I I #
face $-1 $86 $87 $37 $-1 $88 forward single #
loop $-1 $89 $90 $46 #
cone-surface $-1 -39.93595950807677 15.456787660858268 9.5541770314149677 0.57357644374324357 0 -0.81915203911291934 1.228728058669379 0 0.86036466561486535 1 I I 0 1 forward I I I I #
face $-1 $91 $92 $39 $-1 $93 reversed single #
loop $-1 $-1 $94 $47 #
plane-surface $-1 22.286419359298726 18.955290737269912 130.99338741240365 0 -1 0 -0.57357644374324357 0 -0.81915203911291934 forward_v I I I I #
face $-1 $95 $96 $41 $-1 $97 forward single #
loop $-1 $98 $99 $48 #
cone-surface $-1 39.93595950807677 15.456787660858268 9.5541770314149748 -0.57357644374324357 0 -0.81915203911291934 1.228728058669379 0 -0.86036466561486535 1 I I 0 1 forward I I I I #
face $-1 $100 $101 $29 $-1 $102 reversed single #
loop $-1 $-1 $103 $49 #
plane-surface $-1 0 0 -12.992384404757543 0 0 1 1 0 0 forward_v I I I I #
coedge $-1 $104 $105 $106 $107 forward $50 $-1 #
face $-1 $108 $109 $31 $-1 $110 reversed single #
loop $-1 $-1 $111 $52 #
plane-surface $-1 0 -18.955290737269912 -11.363330438054874 0 -1 0 0 0 -1 forward_v I I I I #
coedge $-1 $112 $113 $114 $115 reversed $53 $-1 #
face $-1 $116 $117 $33 $-1 $118 reversed single #
loop $-1 $-1 $119 $55 #
plane-surface $-1 0 18.955290737269912 -11.363330438054874 0 1 0 0 0 1 forward_v I I I I #
coedge $-1 $120 $121 $122 $123 reversed $56 $-1 #
face $-1 $124 $125 $35 $-1 $126 reversed single #
loop $-1 $-1 $127 $58 #
plane-surface $-1 -43.797723319193089 15.456787660858268 8.9967139106160658 -0.57357644374324357 0 0.81915203911291934 0.81915203911291934 0 0.57357644374324357 forward_v I I I I #
coedge $-1 $128 $129 $130 $131 reversed $59 $-1 #
face $-1 $-1 $132 $37 $-1 $133 forward single #
loop $-1 $134 $135 $61 #
cone-surface $-1 -38.497217735255525 15.456787660858268 7.4994408758084337 0.57357644374324357 0 -0.81915203911291934 0.61436402933468948 0 0.43018233280743268 1 I I -0.70710678118654757 0.70710678118654757 forward I I I I #
loop $-1 $-1 $136 $46 #
coedge $-1 $90 $90 $137 $138 reversed $62 $-1 #
face $-1 $139 $140 $39 $-1 $141 reversed single #
loop $-1 $-1 $142 $64 #
plane-surface $-1 -27.956265411647877 15.456787660858268 59.23939868156269 0.57357644374324357 0 0.81915203911291934 0.81915203911291934 0 -0.57357644374324357 forward_v I I I I #
coedge $-1 $143 $144 $145 $146 reversed $65 $-1 #
face $-1 $-1 $147 $41 $-1 $148 forward single #
loop $-1 $149 $150 $67 #
cone-surface $-1 38.497217735255525 15.456787660858268 7.4994408758084408 -0.57357644374324357 0 -0.81915203911291934 0.61436402933468948 0 -0.43018233280743268 1 I I -0.70710678118654757 0.70710678118654757 forward I I I I #
loop $-1 $-1 $151 $48 #
coedge $-1 $99 $99 $152 $153 reversed $68 $-1 #
face $-1 $154 $155 $29 $-1 $156 reversed single #
loop $-1 $-1 $157 $70 #
plane-surface $-1 0 -29.778228070751403 0 0 1 0 0 0 1 forward_v I I I I #
coedge $-1 $158 $159 $160 $161 forward $71 $-1 #
coedge $-1 $162 $73 $163 $164 forward $50 $-1 #
coedge $-1 $73 $162 $165 $166 forward $50 $-1 #
coedge $-1 $167 $168 $73 $107 reversed $169 $-1 #
edge $-1 $170 $171 $106 $172 forward #
face $-1 $173 $174 $31 $-1 $175 reversed single #
loop $-1 $-1 $176 $74 #
plane-surface $-1 0 0 -12.992384404757543 0 0 1 1 0 0 forward_v I I I I #
coedge $-1 $177 $178 $179 $180 reversed $75 $-1 #
coedge $-1 $181 $77 $178 $182 forward $53 $-1 #
coedge $-1 $77 $181 $183 $184 reversed $53 $-1 #
coedge $-1 $185 $179 $77 $115 forward $174 $-1 #
edge $-1 $186 $187 $114 $188 forward #
face $-1 $189 $190 $33 $-1 $191 reversed single #
loop $-1 $-1 $122 $78 #
plane-surface $-1 43.797723319193089 0 0 -1 0 0 0 0 1 forward_v I I I I #
coedge $-1 $192 $193 $194 $195 reversed $79 $-1 #
coedge $-1 $196 $81 $197 $198 reversed $56 $-1 #
coedge $-1 $81 $196 $193 $199 forward $56 $-1 #
coedge $-1 $200 $201 $81 $123 forward $117 $-1 #
edge $-1 $202 $203 $122 $204 forward #
face $-1 $205 $206 $35 $-1 $207 reversed single #
loop $-1 $-1 $208 $82 #
plane-surface $-1 -94.040408090139692 11.958284584446623 80.750702641457025 0 1 0 -0.57357644374324357 0 0.81915203911291934 forward_v I I I I #
coedge $-1 $209 $210 $211 $212 reversed $83 $-1 #
coedge $-1 $129 $85 $213 $214 reversed $59 $-1 #
coedge $-1 $85 $128 $209 $215 reversed $59 $-1 #
coedge $-1 $211 $216 $85 $131 forward $206 $-1 #
edge $-1 $217 $218 $130 $219 forward #
loop $-1 $-1 $137 $86 #
plane-surface $-1 -43.797723319193089 15.456787660858268 8.9967139106160658 -0.57357644374324357 0 0.81915203911291934 0.81915203911291934 0 0.57357644374324357 forward_v I I I I #
loop $-1 $-1 $220 $61 #
coedge $-1 $135 $135 $136 $221 reversed $87 $-1 #
coedge $-1 $136 $136 $135 $221 forward $89 $-1 #
coedge $-1 $137 $137 $90 $138 forward $132 $-1 #
edge $-1 $222 $222 $137 $223 forward #
face $-1 $224 $225 $39 $-1 $226 forward single #
loop $-1 $-1 $227 $91 #
plane-surface $-1 22.286419359298726 11.958284584446623 130.99338741240365 0 1 0 0.57357644374324357 0 0.81915203911291934 forward_v I I I I #
coedge $-1 $228 $229 $230 $231 reversed $92 $-1 #
coedge $-1 $144 $94 $232 $233 reversed $65 $-1 #
coedge $-1 $94 $143 $228 $234 reversed $65 $-1 #
coedge $-1 $230 $235 $94 $146 forward $225 $-1 #
edge $-1 $236 $237 $145 $238 forward #
loop $-1 $-1 $152 $95 #
plane-surface $-1 -27.956265411647877 15.456787660858268 59.23939868156269 0.57357644374324357 0 0.81915203911291934 0.81915203911291934 0 -0.57357644374324357 forward_v I I I I #
loop $-1 $-1 $239 $67 #
coedge $-1 $150 $150 $151 $240 reversed $96 $-1 #
coedge $-1 $151 $151 $150 $240 forward $98 $-1 #
coedge $-1 $152 $152 $99 $153 forward $147 $-1 #
edge $-1 $241 $241 $152 $242 forward #
face $-1 $243 $244 $29 $-1 $245 reversed single #
loop $-1 $-1 $246 $100 #
plane-surface $-1 -43.797723319193089 0 0 1 0 0 0 0 -1 forward_v I I I I #
coedge $-1 $247 $165 $248 $249 forward $101 $-1 #
coedge $-1 $250 $103 $247 $251 forward $71 $-1 #
coedge $-1 $103 $250 $252 $253 forward $71 $-1 #
coedge $-1 $168 $167 $103 $161 reversed $169 $-1 #
edge $-1 $254 $255 $160 $256 forward #
coedge $-1 $105 $104 $257 $258 forward $50 $-1 #
coedge $-1 $259 $260 $104 $164 reversed $244 $-1 #
edge $-1 $171 $261 $163 $262 forward #
coedge $-1 $157 $263 $105 $166 reversed $101 $-1 #
edge $-1 $264 $170 $165 $265 forward #
coedge $-1 $160 $106 $263 $266 forward $169 $-1 #
coedge $-1 $106 $160 $259 $267 reversed $169 $-1 #
loop $-1 $-1 $167 $243 #
vertex $-1 $107 $268 #
vertex $-1 $107 $269 #
straight-curve $-1 43.797723319193089 0 12.992384404757543 0 1 0 I I #
face $-1 $270 $271 $31 $-1 $272 reversed single #
loop $-1 $-1 $179 $108 #
plane-surface $-1 43.797723319193089 0 0 -1 0 0 0 0 1 forward_v I I I I #
coedge $-1 $273 $274 $177 $275 forward $109 $-1 #
coedge $-1 $276 $111 $176 $275 reversed $75 $-1 #
coedge $-1 $111 $276 $112 $182 reversed $75 $-1 #
coedge $-1 $114 $277 $111 $180 forward $174 $-1 #
edge $-1 $278 $186 $179 $279 forward #
coedge $-1 $113 $112 $280 $281 reversed $53 $-1 #
edge $-1 $186 $282 $178 $283 forward #
coedge $-1 $284 $285 $113 $184 forward $271 $-1 #
edge $-1 $187 $286 $183 $287 forward #
coedge $-1 $277 $114 $285 $288 forward $174 $-1 #
vertex $-1 $115 $289 #
vertex $-1 $288 $290 #
straight-curve $-1 43.797723319193089 -12.183379702005329 -9.7342764713522048 0 -1 0 I I #
face $-1 $291 $292 $33 $-1 $293 reversed single #
loop $-1 $-1 $294 $116 #
plane-surface $-1 0 0 -12.992384404757543 0 0 1 1 0 0 forward_v I I I I #
coedge $-1 $295 $119 $294 $296 reversed $79 $-1 #
coedge $-1 $119 $295 $121 $199 reversed $79 $-1 #
coedge $-1 $297 $298 $119 $195 forward $292 $-1 #
edge $-1 $299 $300 $194 $301 forward #
coedge $-1 $121 $120 $297 $302 reversed $56 $-1 #
coedge $-1 $303 $304 $120 $198 forward $305 $-1 #
edge $-1 $306 $202 $197 $307 forward #
edge $-1 $300 $203 $193 $308 forward #
coedge $-1 $309 $122 $295 $310 forward $117 $-1 #
coedge $-1 $122 $309 $303 $311 reversed $117 $-1 #
vertex $-1 $311 $312 #
vertex $-1 $123 $313 #
straight-curve $-1 43.797723319193089 12.183379702005329 -9.7342764713522048 0 -1 0 I I #
face $-1 $-1 $314 $35 $-1 $315 forward single #
loop $-1 $-1 $130 $124 #
plane-surface $-1 -43.797723319193089 0 0 1 0 0 0 0 -1 forward_v I I I I #
coedge $-1 $316 $317 $318 $319 reversed $125 $-1 #
coedge $-1 $320 $127 $129 $215 forward $83 $-1 #
coedge $-1 $127 $320 $316 $321 forward $83 $-1 #
coedge $-1 $318 $130 $127 $212 forward $206 $-1 #
edge $-1 $218 $322 $211 $323 forward #
coedge $-1 $324 $325 $128 $214 forward $314 $-1 #
edge $-1 $326 $217 $213 $327 forward #
edge $-1 $218 $326 $129 $328 forward #
coedge $-1 $130 $318 $324 $329 reversed $206 $-1 #
vertex $-1 $329 $330 #
vertex $-1 $131 $331 #
straight-curve $-1 -43.797723319193089 18.955290737269912 40.375351320728512 0 0 -1 I I #
coedge $-1 $220 $220 $-1 $332 reversed $134 $-1 #
edge $-1 $333 $333 $135 $334 forward #
vertex $-1 $138 $335 #
ellipse-curve $-1 -40.944518948090575 15.456787660858268 10.994549157686802 -0.57357644374324357 0 0.81915203911291934 1.228728058669379 0 0.86036466561486535 1 I I #
face $-1 $-1 $336 $39 $-1 $337 reversed single #
loop $-1 $-1 $145 $139 #
plane-surface $-1 0 0 12.992384404757543 0 0 1 1 0 0 forward_v I I I I #
coedge $-1 $338 $339 $340 $341 reversed $140 $-1 #
coedge $-1 $342 $142 $144 $234 forward $92 $-1 #
coedge $-1 $142 $342 $338 $343 forward $92 $-1 #
coedge $-1 $340 $145 $142 $231 forward $225 $-1 #
edge $-1 $237 $344 $230 $345 forward #
coedge $-1 $346 $347 $143 $233 forward $336 $-1 #
edge $-1 $348 $236 $232 $349 forward #
edge $-1 $237 $348 $144 $350 forward #
coedge $-1 $145 $340 $346 $351 forward $225 $-1 #
vertex $-1 $146 $352 #
vertex $-1 $146 $353 #
straight-curve $-1 11.143209679649363 18.955290737269912 12.992384404757544 -1 0 0 I I #
coedge $-1 $239 $239 $-1 $354 reversed $149 $-1 #
edge $-1 $355 $355 $150 $356 forward #
vertex $-1 $153 $357 #
ellipse-curve $-1 40.944518948090582 15.456787660858268 10.994549157686819 0.57357644374324357 0 0.81915203911291934 1.228728058669379 0 -0.86036466561486535 1 I I #
face $-1 $-1 $169 $29 $-1 $358 reversed single #
loop $-1 $-1 $259 $154 #
plane-surface $-1 0 29.778228070751403 0 0 -1 0 0 0 -1 forward_v I I I I #
coedge $-1 $359 $257 $260 $360 forward $155 $-1 #
coedge $-1 $263 $157 $158 $251 reversed $101 $-1 #
coedge $-1 $257 $359 $157 $249 reversed $155 $-1 #
edge $-1 $264 $361 $248 $362 forward #
coedge $-1 $159 $158 $359 $363 forward $71 $-1 #
edge $-1 $255 $361 $247 $364 forward #
coedge $-1 $260 $259 $159 $253 reversed $244 $-1 #
edge $-1 $365 $254 $252 $366 forward #
vertex $-1 $161 $367 #
vertex $-1 $266 $368 #
straight-curve $-1 43.797723319193089 0 -12.992384404757543 0 -1 0 I I #
coedge $-1 $246 $248 $162 $258 reversed $155 $-1 #
edge $-1 $261 $264 $257 $369 forward #
coedge $-1 $252 $163 $168 $267 forward $244 $-1 #
coedge $-1 $163 $252 $246 $360 reversed $244 $-1 #
vertex $-1 $164 $370 #
straight-curve $-1 0 29.778228070751403 12.992384404757543 -1 0 0 I I #
coedge $-1 $165 $247 $167 $266 reversed $101 $-1 #
vertex $-1 $258 $371 #
straight-curve $-1 0 -29.778228070751403 12.992384404757543 1 0 0 I I #
edge $-1 $170 $255 $167 $372 forward #
edge $-1 $171 $254 $168 $373 forward #
point $-1 43.797723319193089 -29.778228070751403 12.992384404757543 #
point $-1 43.797723319193089 29.778228070751403 12.992384404757543 #
face $-1 $-1 $374 $31 $-1 $375 reversed single #
loop $-1 $-1 $183 $173 #
plane-surface $-1 0 -29.778228070751403 0 0 1 0 0 0 1 forward_v I I I I #
coedge $-1 $376 $176 $277 $377 forward $109 $-1 #
coedge $-1 $176 $376 $378 $379 forward $109 $-1 #
edge $-1 $380 $278 $176 $381 forward #
coedge $-1 $178 $177 $382 $383 reversed $75 $-1 #
coedge $-1 $179 $185 $273 $377 reversed $174 $-1 #
vertex $-1 $377 $384 #
straight-curve $-1 43.797723319193089 -18.955290737269912 -5.6816652190274368 0 0 1 I I #
coedge $-1 $382 $385 $181 $281 forward $374 $-1 #
edge $-1 $286 $282 $280 $386 forward #
vertex $-1 $281 $387 #
straight-curve $-1 0 -18.955290737269912 -9.7342764713522048 -1 0 0 I I #
coedge $-1 $388 $183 $385 $389 forward $271 $-1 #
coedge $-1 $183 $388 $185 $288 reversed $271 $-1 #
vertex $-1 $389 $390 #
straight-curve $-1 0 -29.778228070751403 -9.7342764713522048 -1 0 0 I I #
edge $-1 $187 $391 $185 $392 forward #
point $-1 43.797723319193089 -18.955290737269912 -9.7342764713522048 #
point $-1 43.797723319193089 -29.778228070751403 -9.7342764713522048 #
face $-1 $-1 $305 $33 $-1 $393 reversed single #
loop $-1 $-1 $297 $189 #
plane-surface $-1 -43.797723319193089 0 0 1 0 0 0 0 -1 forward_v I I I I #
coedge $-1 $394 $395 $192 $296 forward $190 $-1 #
coedge $-1 $193 $192 $200 $310 reversed $79 $-1 #
edge $-1 $396 $299 $294 $397 forward #
coedge $-1 $398 $194 $196 $302 forward $292 $-1 #
coedge $-1 $194 $398 $394 $399 reversed $292 $-1 #
vertex $-1 $399 $400 #
vertex $-1 $302 $401 #
straight-curve $-1 -43.797723319193089 18.955290737269912 -5.6816652190274368 0 0 1 I I #
edge $-1 $300 $306 $297 $402 forward #
coedge $-1 $403 $197 $201 $311 forward $305 $-1 #
coedge $-1 $197 $403 $398 $404 reversed $305 $-1 #
loop $-1 $-1 $197 $291 #
vertex $-1 $404 $405 #
straight-curve $-1 0 29.778228070751403 -9.7342764713522048 1 0 0 I I #
straight-curve $-1 0 18.955290737269912 -9.7342764713522048 1 0 0 I I #
coedge $-1 $201 $200 $395 $406 reversed $117 $-1 #
edge $-1 $203 $396 $200 $407 forward #
edge $-1 $202 $408 $201 $409 forward #
point $-1 43.797723319193089 29.778228070751403 -9.7342764713522048 #
point $-1 43.797723319193089 18.955290737269912 -9.7342764713522048 #
loop $-1 $-1 $213 $205 #
plane-surface $-1 0 0 12.992384404757543 0 0 1 1 0 0 forward_v I I I I #
coedge $-1 $317 $208 $210 $321 reversed $125 $-1 #
coedge $-1 $208 $316 $410 $411 reversed $125 $-1 #
coedge $-1 $216 $211 $208 $319 forward $206 $-1 #
edge $-1 $322 $412 $318 $413 forward #
coedge $-1 $210 $209 $325 $414 reversed $83 $-1 #
edge $-1 $415 $322 $316 $416 forward #
vertex $-1 $212 $417 #
straight-curve $-1 -43.797723319193089 7.728393830429134 8.9967139106160676 0 -1 0 I I #
coedge $-1 $410 $213 $216 $329 forward $314 $-1 #
coedge $-1 $213 $410 $320 $414 forward $314 $-1 #
vertex $-1 $214 $418 #
straight-curve $-1 -47.020204045069846 18.955290737269912 12.992384404757544 -1 0 0 I I #
straight-curve $-1 -43.797723319193089 18.955290737269912 8.9967139106160658 0.81915203911291934 0 0.57357644374324357 I I #
edge $-1 $217 $412 $216 $419 forward #
point $-1 -43.797723319193089 18.955290737269912 12.992384404757543 #
point $-1 -43.797723319193089 18.955290737269912 8.9967139106160658 #
edge $-1 $420 $420 $220 $-1 forward #
vertex $-1 $221 $421 #
ellipse-curve $-1 -38.927400068062958 15.456787660858268 8.1138049051431231 -0.57357644374324357 0 0.81915203911291934 1.228728058669379 0 0.86036466561486535 1 I I #
point $-1 -39.7157908894212 15.456787660858268 11.854913823301676 #
loop $-1 $-1 $232 $224 #
plane-surface $-1 43.797723319193089 0 0 -1 0 0 0 0 1 forward_v I I I I #
coedge $-1 $339 $227 $229 $343 reversed $140 $-1 #
coedge $-1 $227 $338 $422 $423 reversed $140 $-1 #
coedge $-1 $235 $230 $227 $341 forward $225 $-1 #
edge $-1 $344 $424 $340 $425 forward #
coedge $-1 $229 $228 $347 $426 reversed $92 $-1 #
edge $-1 $427 $344 $338 $428 forward #
vertex $-1 $231 $429 #
straight-curve $-1 38.091314576988069 7.728393830429134 12.992384404757544 0 -1 0 I I #
coedge $-1 $422 $232 $235 $351 reversed $336 $-1 #
coedge $-1 $232 $422 $342 $426 forward $336 $-1 #
vertex $-1 $233 $430 #
straight-curve $-1 43.797723319193089 18.955290737269912 65.496693706201825 0 0 1 I I #
straight-curve $-1 -27.956265411647877 18.955290737269912 59.23939868156269 0.81915203911291934 0 -0.57357644374324357 I I #
edge $-1 $424 $236 $346 $431 forward #
point $-1 43.797723319193089 18.955290737269912 12.992384404757543 #
point $-1 38.091314576988069 18.955290737269912 12.992384404757551 #
edge $-1 $432 $432 $239 $-1 forward #
vertex $-1 $240 $433 #
ellipse-curve $-1 38.927400068062958 15.456787660858268 8.1138049051431302 0.57357644374324357 0 0.81915203911291934 1.228728058669379 0 -0.86036466561486535 1 I I #
point $-1 42.173247006759965 15.456787660858268 10.134184492071952 #
plane-surface $-1 43.797723319193089 0 0 -1 0 0 0 0 1 forward_v I I I I #
coedge $-1 $248 $246 $250 $363 reversed $155 $-1 #
edge $-1 $261 $365 $260 $434 forward #
vertex $-1 $363 $435 #
straight-curve $-1 -43.797723319193089 -29.778228070751403 0 0 0 -1 I I #
edge $-1 $361 $365 $359 $436 forward #
straight-curve $-1 0 -29.778228070751403 -12.992384404757543 -1 0 0 I I #
vertex $-1 $253 $437 #
straight-curve $-1 0 29.778228070751403 -12.992384404757543 1 0 0 I I #
point $-1 43.797723319193089 29.778228070751403 -12.992384404757543 #
point $-1 43.797723319193089 -29.778228070751403 -12.992384404757543 #
straight-curve $-1 -43.797723319193089 0 12.992384404757543 0 -1 0 I I #
point $-1 -43.797723319193089 29.778228070751403 12.992384404757543 #
point $-1 -43.797723319193089 -29.778228070751403 12.992384404757543 #
straight-curve $-1 43.797723319193089 -29.778228070751403 0 0 0 -1 I I #
straight-curve $-1 43.797723319193089 29.778228070751403 0 0 0 -1 I I #
loop $-1 $-1 $382 $270 #
plane-surface $-1 -43.797723319193089 0 0 1 0 0 0 0 -1 forward_v I I I I #
coedge $-1 $274 $273 $388 $438 forward $109 $-1 #
edge $-1 $278 $391 $277 $439 forward #
coedge $-1 $385 $382 $274 $379 reversed $374 $-1 #
edge $-1 $440 $380 $378 $441 forward #
vertex $-1 $383 $442 #
straight-curve $-1 0 -18.955290737269912 -12.992384404757543 1 0 0 I I #
coedge $-1 $378 $280 $276 $383 forward $374 $-1 #
edge $-1 $282 $380 $382 $443 forward #
point $-1 43.797723319193089 -18.955290737269912 -12.992384404757543 #
coedge $-1 $280 $378 $284 $389 reversed $374 $-1 #
straight-curve $-1 -43.797723319193089 -12.183379702005329 -9.7342764713522048 0 1 0 I I #
point $-1 -43.797723319193089 -18.955290737269912 -9.7342764713522048 #
coedge $-1 $285 $284 $376 $438 reversed $271 $-1 #
edge $-1 $286 $440 $385 $444 forward #
point $-1 -43.797723319193089 -29.778228070751403 -9.7342764713522048 #
vertex $-1 $288 $445 #
straight-curve $-1 43.797723319193089 -29.778228070751403 0 0 0 -1 I I #
plane-surface $-1 0 29.778228070751403 0 0 -1 0 0 0 -1 forward_v I I I I #
coedge $-1 $446 $294 $298 $399 forward $190 $-1 #
coedge $-1 $294 $446 $309 $406 forward $190 $-1 #
vertex $-1 $296 $447 #
straight-curve $-1 0 18.955290737269912 -12.992384404757543 -1 0 0 I I #
coedge $-1 $298 $297 $304 $404 forward $292 $-1 #
edge $-1 $299 $448 $298 $449 forward #
point $-1 -43.797723319193089 18.955290737269912 -12.992384404757543 #
point $-1 -43.797723319193089 18.955290737269912 -9.7342764713522048 #
straight-curve $-1 -43.797723319193089 12.183379702005329 -9.7342764713522048 0 1 0 I I #
coedge $-1 $304 $303 $446 $450 reversed $305 $-1 #
edge $-1 $306 $448 $304 $451 forward #
point $-1 -43.797723319193089 29.778228070751403 -9.7342764713522048 #
edge $-1 $408 $396 $309 $452 forward #
straight-curve $-1 43.797723319193089 18.955290737269912 -5.6816652190274368 0 0 -1 I I #
vertex $-1 $406 $453 #
straight-curve $-1 43.797723319193089 29.778228070751403 0 0 0 -1 I I #
coedge $-1 $325 $324 $317 $411 forward $314 $-1 #
edge $-1 $412 $415 $410 $454 forward #
vertex $-1 $411 $455 #
straight-curve $-1 -43.797723319193089 11.958284584446623 40.375351320728512 0 0 1 I I #
edge $-1 $415 $326 $325 $456 forward #
vertex $-1 $414 $457 #
straight-curve $-1 -43.797723319193089 11.958284584446623 8.9967139106160658 -0.81915203911291934 0 -0.57357644374324357 I I #
point $-1 -43.797723319193089 11.958284584446623 8.9967139106160658 #
point $-1 -38.091314576988061 18.955290737269912 12.992384404757543 #
straight-curve $-1 -43.797723319193089 0 12.992384404757543 0 -1 0 I I #
vertex $-1 $332 $458 #
point $-1 -37.698672009393576 15.456787660858268 8.9741695707579883 #
coedge $-1 $347 $346 $339 $423 forward $336 $-1 #
edge $-1 $424 $427 $422 $459 forward #
vertex $-1 $351 $460 #
straight-curve $-1 11.143209679649363 11.958284584446623 12.992384404757544 1 0 0 I I #
edge $-1 $427 $348 $347 $461 forward #
vertex $-1 $426 $462 #
straight-curve $-1 -27.956265411647877 11.958284584446623 59.23939868156269 -0.81915203911291934 0 0.57357644374324357 I I #
point $-1 38.091314576988069 11.958284584446623 12.992384404757551 #
point $-1 43.797723319193096 18.955290737269912 8.996713910616073 #
straight-curve $-1 43.797723319193089 0 12.992384404757543 0 1 0 I I #
vertex $-1 $354 $463 #
point $-1 40.156128126732334 15.456787660858268 7.2534402395282651 #
straight-curve $-1 -43.797723319193089 29.778228070751403 0 0 0 -1 I I #
point $-1 -43.797723319193089 -29.778228070751403 -12.992384404757543 #
straight-curve $-1 -43.797723319193089 0 -12.992384404757543 0 1 0 I I #
point $-1 -43.797723319193089 29.778228070751403 -12.992384404757543 #
edge $-1 $391 $440 $388 $464 forward #
straight-curve $-1 43.797723319193089 0 -12.992384404757543 0 -1 0 I I #
vertex $-1 $379 $465 #
straight-curve $-1 -43.797723319193089 0 -12.992384404757543 0 1 0 I I #
point $-1 -43.797723319193089 -18.955290737269912 -12.992384404757543 #
straight-curve $-1 -43.797723319193089 -18.955290737269912 -5.6816652190274368 0 0 -1 I I #
straight-curve $-1 -43.797723319193089 -29.778228070751403 0 0 0 -1 I I #
point $-1 43.797723319193089 -29.778228070751403 -12.992384404757543 #
coedge $-1 $395 $394 $403 $450 forward $190 $-1 #
point $-1 43.797723319193089 18.955290737269912 -12.992384404757543 #
vertex $-1 $450 $466 #
straight-curve $-1 -43.797723319193089 0 -12.992384404757543 0 1 0 I I #
edge $-1 $448 $408 $403 $467 forward #
straight-curve $-1 -43.797723319193089 29.778228070751403 0 0 0 -1 I I #
straight-curve $-1 43.797723319193089 0 -12.992384404757543 0 -1 0 I I #
point $-1 43.797723319193089 29.778228070751403 -12.992384404757543 #
straight-curve $-1 -47.020204045069846 11.958284584446623 12.992384404757544 1 0 0 I I #
point $-1 -43.797723319193089 11.958284584446623 12.992384404757543 #
straight-curve $-1 -38.091314576988061 7.728393830429134 12.992384404757544 0 1 0 I I #
point $-1 -38.091314576988061 11.958284584446623 12.992384404757543 #
point $-1 -38.067035402448091 15.456787660858268 6.8850768464737442 #
straight-curve $-1 43.797723319193089 11.958284584446623 65.496693706201825 0 0 -1 I I #
point $-1 43.797723319193089 11.958284584446623 12.992384404757543 #
straight-curve $-1 43.797723319193089 7.728393830429134 8.9967139106160694 0 1 0 I I #
point $-1 43.797723319193096 11.958284584446623 8.996713910616073 #
point $-1 38.067035402448091 15.456787660858268 6.8850768464737513 #
straight-curve $-1 0 -29.778228070751403 -12.992384404757543 -1 0 0 I I #
point $-1 -43.797723319193089 -29.778228070751403 -12.992384404757543 #
point $-1 -43.797723319193089 29.778228070751403 -12.992384404757543 #
straight-curve $-1 0 29.778228070751403 -12.992384404757543 1 0 0 I I #
End-of-ACIS-data 