300 0 5 0           
7 Unknown 11 ACIS 3.0 NT 24 Fri Oct 30 14:21:43 1998 
-1 9.9999999999999995e-007 1e-010 
body $5 $6 $-1 $7 #
body $8 $9 $-1 $10 #
body $11 $12 $-1 $13 #
body $14 $15 $-1 $16 #
body $17 $18 $-1 $19 #
display_attribute-st-attrib $-1 $20 $-1 $0 1 #
lump $-1 $-1 $21 $0 #
transform $-1 1 0 0 0 1 0 0 0 1 77.115390484328742 52.289115796986735 18.952989269973809 1 rotate no_reflect no_shear #
display_attribute-st-attrib $-1 $22 $-1 $1 3 #
lump $-1 $-1 $23 $1 #
transform $-1 1 0 0 0 1 0 0 0 1 77.115390484328742 52.289115796986735 18.952989269973809 1 rotate no_reflect no_shear #
display_attribute-st-attrib $-1 $24 $-1 $2 3 #
lump $-1 $-1 $25 $2 #
transform $-1 1 0 0 0 1 0 0 0 1 77.115390484328742 52.289115796986735 18.952989269973809 1 rotate no_reflect no_shear #
display_attribute-st-attrib $-1 $26 $-1 $3 3 #
lump $-1 $-1 $27 $3 #
transform $-1 1 0 0 0 1 0 0 0 1 77.115390484328742 52.289115796986735 18.952989269973809 1 rotate no_reflect no_shear #
display_attribute-st-attrib $-1 $28 $-1 $4 3 #
lump $-1 $-1 $29 $4 #
transform $-1 1 0 0 0 1 0 0 0 1 77.115390484328742 52.289115796986735 18.952989269973809 1 rotate no_reflect no_shear #
id_attribute-st-attrib $-1 $-1 $5 $0 1514 #
shell $-1 $-1 $-1 $30 $-1 $6 #
id_attribute-st-attrib $-1 $-1 $8 $1 1519 #
shell $-1 $-1 $-1 $31 $-1 $9 #
id_attribute-st-attrib $-1 $-1 $11 $2 1532 #
shell $-1 $-1 $-1 $32 $-1 $12 #
id_attribute-st-attrib $-1 $-1 $14 $3 1539 #
shell $-1 $-1 $-1 $33 $-1 $15 #
id_attribute-st-attrib $-1 $-1 $17 $4 1547 #
shell $-1 $-1 $-1 $34 $-1 $18 #
face $-1 $35 $36 $21 $-1 $37 forward single #
face $-1 $38 $39 $23 $-1 $40 forward single #
face $-1 $41 $42 $25 $-1 $43 reversed single #
face $-1 $44 $45 $27 $-1 $46 forward single #
face $-1 $47 $48 $29 $-1 $49 forward single #
face $-1 $50 $51 $21 $-1 $52 reversed single #
loop $-1 $-1 $53 $30 #
plane-surface $-1 0 0 18.952989269973809 0 0 1 1 0 0 forward_v I I I I #
face $-1 $54 $55 $23 $-1 $56 reversed single #
loop $-1 $-1 $57 $31 #
plane-surface $-1 0 -52.289115796986735 0 0 1 0 0 0 1 forward_v I I I I #
face $-1 $58 $59 $25 $-1 $60 reversed single #
loop $-1 $-1 $61 $32 #
plane-surface $-1 -57.407156499103792 64.834296681146782 198.57188391664684 -1 0 0 0 0.61566148304635926 0.78801074757464917 forward_v I I I I #
face $-1 $62 $63 $27 $-1 $64 forward single #
loop $-1 $65 $66 $33 #
cone-surface $-1 -71.484466488550183 46.457735308377337 13.500101059972701 0 -0.61566148304635926 -0.78801074757464917 1.5 0 0 1 I I 0 1 forward I I I I #
face $-1 $67 $68 $29 $-1 $69 forward single #
loop $-1 $70 $71 $34 #
cone-surface $-1 -63.038080494882351 46.457735308377337 13.500101059972701 0 -0.61566148304635926 -0.78801074757464917 1.5 0 0 1 I I 0 1 forward I I I I #
face $-1 $72 $73 $21 $-1 $74 reversed single #
loop $-1 $-1 $75 $35 #
plane-surface $-1 0 0 -18.952989269973809 0 0 1 1 0 0 forward_v I I I I #
coedge $-1 $76 $77 $78 $79 forward $36 $-1 #
face $-1 $80 $81 $23 $-1 $82 reversed single #
loop $-1 $-1 $83 $38 #
plane-surface $-1 0 0 -18.952989269973809 0 0 1 1 0 0 forward_v I I I I #
coedge $-1 $84 $85 $86 $87 forward $39 $-1 #
face $-1 $88 $89 $25 $-1 $90 reversed single #
loop $-1 $-1 $91 $41 #
plane-surface $-1 -67.261273491716267 -30.119654661415083 77.036370906513085 0 0.61566148304635926 0.78801074757464917 1 0 0 forward_v I I I I #
coedge $-1 $92 $93 $94 $95 reversed $42 $-1 #
face $-1 $-1 $96 $27 $-1 $97 forward single #
loop $-1 $98 $99 $44 #
cone-surface $-1 -71.484466488550183 44.197325539794591 10.606908549776637 0 -0.61566148304635926 -0.78801074757464917 0.75 0 0 1 I I -0.70710678118654757 0.70710678118654757 forward I I I I #
loop $-1 $-1 $100 $33 #
coedge $-1 $66 $66 $101 $102 reversed $45 $-1 #
face $-1 $-1 $103 $29 $-1 $104 forward single #
loop $-1 $105 $106 $47 #
cone-surface $-1 -63.038080494882351 44.197325539794591 10.606908549776637 0 -0.61566148304635926 -0.78801074757464917 0.75 0 0 1 I I -0.70710678118654757 0.70710678118654757 forward I I I I #
loop $-1 $-1 $107 $34 #
coedge $-1 $71 $71 $108 $109 reversed $48 $-1 #
face $-1 $110 $111 $21 $-1 $112 reversed single #
loop $-1 $-1 $113 $50 #
plane-surface $-1 0 -52.289115796986735 0 0 1 0 0 0 1 forward_v I I I I #
coedge $-1 $114 $115 $116 $117 forward $51 $-1 #
coedge $-1 $118 $53 $119 $120 forward $36 $-1 #
coedge $-1 $53 $118 $121 $122 forward $36 $-1 #
coedge $-1 $123 $124 $53 $79 reversed $125 $-1 #
edge $-1 $126 $127 $78 $128 forward #
face $-1 $129 $130 $23 $-1 $131 reversed single #
loop $-1 $-1 $132 $54 #
plane-surface $-1 -42.309206396015895 -67.221089023763639 0 0 1 0 0 0 1 forward_v I I I I #
coedge $-1 $133 $134 $85 $135 forward $55 $-1 #
coedge $-1 $136 $57 $137 $138 reversed $39 $-1 #
coedge $-1 $57 $136 $83 $135 reversed $39 $-1 #
coedge $-1 $139 $140 $57 $87 reversed $130 $-1 #
edge $-1 $141 $142 $86 $143 forward #
face $-1 $144 $145 $25 $-1 $146 forward single #
loop $-1 $-1 $147 $58 #
plane-surface $-1 -77.115390484328742 0 0 1 0 0 0 0 -1 forward_v I I I I #
coedge $-1 $148 $149 $150 $151 reversed $59 $-1 #
coedge $-1 $93 $61 $152 $153 reversed $42 $-1 #
coedge $-1 $61 $92 $148 $154 reversed $42 $-1 #
coedge $-1 $150 $155 $61 $95 forward $156 $-1 #
edge $-1 $157 $158 $94 $159 forward #
loop $-1 $-1 $101 $62 #
plane-surface $-1 -67.261273491716267 -30.119654661415083 77.036370906513085 0 0.61566148304635926 0.78801074757464917 1 0 0 forward_v I I I I #
loop $-1 $-1 $160 $44 #
coedge $-1 $99 $99 $100 $161 reversed $63 $-1 #
coedge $-1 $100 $100 $99 $161 forward $65 $-1 #
coedge $-1 $101 $101 $66 $102 forward $96 $-1 #
edge $-1 $162 $162 $101 $163 forward #
loop $-1 $-1 $108 $67 #
plane-surface $-1 -67.261273491716267 -30.119654661415083 77.036370906513085 0 0.61566148304635926 0.78801074757464917 1 0 0 forward_v I I I I #
loop $-1 $-1 $164 $47 #
coedge $-1 $106 $106 $107 $165 reversed $68 $-1 #
coedge $-1 $107 $107 $106 $165 forward $70 $-1 #
coedge $-1 $108 $108 $71 $109 forward $103 $-1 #
edge $-1 $166 $166 $108 $167 forward #
face $-1 $168 $169 $21 $-1 $170 reversed single #
loop $-1 $-1 $171 $72 #
plane-surface $-1 -77.115390484328742 0 0 1 0 0 0 0 -1 forward_v I I I I #
coedge $-1 $172 $121 $173 $174 forward $73 $-1 #
coedge $-1 $175 $75 $172 $176 forward $51 $-1 #
coedge $-1 $75 $175 $177 $178 forward $51 $-1 #
coedge $-1 $124 $123 $75 $117 reversed $125 $-1 #
edge $-1 $179 $180 $116 $181 forward #
coedge $-1 $77 $76 $182 $183 forward $36 $-1 #
coedge $-1 $184 $185 $76 $120 reversed $169 $-1 #
edge $-1 $127 $186 $119 $187 forward #
coedge $-1 $113 $188 $77 $122 reversed $73 $-1 #
edge $-1 $189 $126 $121 $190 forward #
coedge $-1 $116 $78 $188 $191 forward $125 $-1 #
coedge $-1 $78 $116 $184 $192 reversed $125 $-1 #
loop $-1 $-1 $123 $168 #
vertex $-1 $79 $193 #
vertex $-1 $79 $194 #
straight-curve $-1 77.115390484328742 0 18.952989269973809 0 1 0 I I #
face $-1 $195 $196 $23 $-1 $197 reversed single #
loop $-1 $-1 $86 $80 #
plane-surface $-1 -45.409000847650674 -59.755102410375187 0 1 0 0 0 0 -1 forward_v I I I I #
coedge $-1 $198 $199 $200 $201 forward $81 $-1 #
coedge $-1 $202 $83 $203 $204 forward $55 $-1 #
coedge $-1 $83 $202 $139 $205 forward $55 $-1 #
edge $-1 $141 $206 $83 $207 forward #
coedge $-1 $85 $84 $208 $209 forward $39 $-1 #
coedge $-1 $210 $211 $84 $138 forward $212 $-1 #
edge $-1 $213 $142 $137 $214 forward #
coedge $-1 $200 $86 $134 $205 reversed $130 $-1 #
coedge $-1 $86 $200 $210 $215 reversed $130 $-1 #
vertex $-1 $135 $216 #
vertex $-1 $215 $217 #
straight-curve $-1 -45.409000847650674 -52.289115796986735 0 0 0 1 I I #
face $-1 $-1 $156 $25 $-1 $218 reversed single #
loop $-1 $-1 $152 $88 #
plane-surface $-1 0 0 18.952989269973809 0 0 1 1 0 0 forward_v I I I I #
coedge $-1 $219 $220 $149 $221 forward $89 $-1 #
coedge $-1 $222 $91 $93 $154 forward $59 $-1 #
coedge $-1 $91 $222 $147 $221 reversed $59 $-1 #
coedge $-1 $223 $94 $91 $151 forward $156 $-1 #
edge $-1 $158 $224 $150 $225 forward #
coedge $-1 $226 $227 $92 $153 forward $145 $-1 #
edge $-1 $228 $157 $152 $229 forward #
edge $-1 $158 $228 $93 $230 forward #
coedge $-1 $94 $223 $226 $231 reversed $156 $-1 #
loop $-1 $-1 $150 $144 #
vertex $-1 $231 $232 #
vertex $-1 $95 $233 #
straight-curve $-1 -57.407156499103792 52.289115796986735 99.28594195832342 0 0 -1 I I #
coedge $-1 $160 $160 $-1 $234 reversed $98 $-1 #
edge $-1 $235 $235 $99 $236 forward #
vertex $-1 $102 $237 #
ellipse-curve $-1 -71.484466488550183 48.256398964675327 15.802285509487801 0 0.61566148304635926 0.78801074757464917 1.5 0 0 1 I I #
coedge $-1 $164 $164 $-1 $238 reversed $105 $-1 #
edge $-1 $239 $239 $106 $240 forward #
vertex $-1 $109 $241 #
ellipse-curve $-1 -63.038080494882351 48.256398964675327 15.802285509487801 0 0.61566148304635926 0.78801074757464917 1.5 0 0 1 I I #
face $-1 $-1 $125 $21 $-1 $242 reversed single #
loop $-1 $-1 $184 $110 #
plane-surface $-1 0 52.289115796986735 0 0 -1 0 0 0 -1 forward_v I I I I #
coedge $-1 $243 $182 $185 $244 forward $111 $-1 #
coedge $-1 $188 $113 $114 $176 reversed $73 $-1 #
coedge $-1 $182 $243 $113 $174 reversed $111 $-1 #
edge $-1 $189 $245 $173 $246 forward #
coedge $-1 $115 $114 $243 $247 forward $51 $-1 #
edge $-1 $180 $245 $172 $248 forward #
coedge $-1 $185 $184 $115 $178 reversed $169 $-1 #
edge $-1 $249 $179 $177 $250 forward #
vertex $-1 $117 $251 #
vertex $-1 $191 $252 #
straight-curve $-1 77.115390484328742 0 -18.952989269973809 0 -1 0 I I #
coedge $-1 $171 $173 $118 $183 reversed $111 $-1 #
edge $-1 $186 $189 $182 $253 forward #
coedge $-1 $177 $119 $124 $192 forward $169 $-1 #
coedge $-1 $119 $177 $171 $244 reversed $169 $-1 #
vertex $-1 $120 $254 #
straight-curve $-1 0 52.289115796986735 18.952989269973809 -1 0 0 I I #
coedge $-1 $121 $172 $123 $191 reversed $73 $-1 #
vertex $-1 $183 $255 #
straight-curve $-1 0 -52.289115796986735 18.952989269973809 1 0 0 I I #
edge $-1 $126 $180 $123 $256 forward #
edge $-1 $127 $179 $124 $257 forward #
point $-1 77.115390484328742 -52.289115796986735 18.952989269973809 #
point $-1 77.115390484328742 52.289115796986735 18.952989269973809 #
face $-1 $-1 $212 $23 $-1 $258 forward single #
loop $-1 $-1 $259 $129 #
plane-surface $-1 -39.209411944381117 -59.755102410375187 0 -1 0 0 0 0 1 forward_v I I I I #
coedge $-1 $260 $132 $202 $261 reversed $81 $-1 #
coedge $-1 $132 $260 $262 $263 reversed $81 $-1 #
coedge $-1 $140 $139 $132 $201 reversed $130 $-1 #
edge $-1 $264 $265 $200 $266 forward #
coedge $-1 $134 $133 $198 $261 forward $55 $-1 #
coedge $-1 $208 $259 $133 $204 reversed $196 $-1 #
edge $-1 $206 $267 $203 $268 forward #
edge $-1 $265 $141 $139 $269 forward #
vertex $-1 $204 $270 #
straight-curve $-1 0 -52.289115796986735 -18.952989269973809 1 0 0 I I #
coedge $-1 $271 $203 $136 $209 reversed $196 $-1 #
edge $-1 $213 $206 $208 $272 forward #
coedge $-1 $262 $137 $140 $215 forward $212 $-1 #
coedge $-1 $137 $262 $271 $273 forward $212 $-1 #
loop $-1 $-1 $137 $195 #
vertex $-1 $138 $274 #
straight-curve $-1 0 -52.289115796986735 18.952989269973809 -1 0 0 I I #
edge $-1 $142 $264 $140 $275 forward #
point $-1 -45.409000847650674 -52.289115796986735 -18.952989269973809 #
point $-1 -45.409000847650674 -52.289115796986735 18.952989269973809 #
plane-surface $-1 0 52.289115796986735 0 0 -1 0 0 0 -1 forward_v I I I I #
coedge $-1 $220 $147 $276 $277 reversed $89 $-1 #
coedge $-1 $147 $219 $223 $278 forward $89 $-1 #
edge $-1 $224 $279 $147 $280 forward #
coedge $-1 $149 $148 $227 $281 reversed $59 $-1 #
coedge $-1 $155 $150 $220 $278 reversed $156 $-1 #
vertex $-1 $221 $282 #
straight-curve $-1 -33.630636745858133 52.289115796986735 12.65158174900176 -1 0 0 I I #
coedge $-1 $276 $152 $155 $231 forward $145 $-1 #
coedge $-1 $152 $276 $222 $281 forward $145 $-1 #
vertex $-1 $153 $283 #
straight-curve $-1 -57.407156499103792 32.417148340573391 18.952989269973813 0 1 0 I I #
straight-curve $-1 -57.407156499103792 -30.119654661415083 77.036370906513085 0 -0.78801074757464917 0.61566148304635926 I I #
edge $-1 $157 $284 $155 $285 forward #
point $-1 -57.407156499103792 52.289115796986735 18.952989269973809 #
point $-1 -57.407156499103792 52.289115796986735 12.651581749001764 #
edge $-1 $286 $286 $160 $-1 forward #
vertex $-1 $161 $287 #
ellipse-curve $-1 -71.484466488550183 44.659071652079362 11.197916610457625 0 0.61566148304635926 0.78801074757464917 1.5 0 0 1 I I #
point $-1 -69.984466488550183 48.256398964675306 15.802285509487778 #
edge $-1 $288 $288 $164 $-1 forward #
vertex $-1 $165 $289 #
ellipse-curve $-1 -63.038080494882351 44.659071652079362 11.197916610457625 0 0.61566148304635926 0.78801074757464917 1.5 0 0 1 I I #
point $-1 -61.538080494882351 48.256398964675306 15.802285509487778 #
plane-surface $-1 77.115390484328742 0 0 -1 0 0 0 0 1 forward_v I I I I #
coedge $-1 $173 $171 $175 $247 reversed $111 $-1 #
edge $-1 $186 $249 $185 $290 forward #
vertex $-1 $247 $291 #
straight-curve $-1 -77.115390484328742 -52.289115796986735 0 0 0 -1 I I #
edge $-1 $245 $249 $243 $292 forward #
straight-curve $-1 0 -52.289115796986735 -18.952989269973809 -1 0 0 I I #
vertex $-1 $178 $293 #
straight-curve $-1 0 52.289115796986735 -18.952989269973809 1 0 0 I I #
point $-1 77.115390484328742 52.289115796986735 -18.952989269973809 #
point $-1 77.115390484328742 -52.289115796986735 -18.952989269973809 #
straight-curve $-1 -77.115390484328742 0 18.952989269973809 0 -1 0 I I #
point $-1 -77.115390484328742 52.289115796986735 18.952989269973809 #
point $-1 -77.115390484328742 -52.289115796986735 18.952989269973809 #
straight-curve $-1 77.115390484328742 -52.289115796986735 0 0 0 -1 I I #
straight-curve $-1 77.115390484328742 52.289115796986735 0 0 0 -1 I I #
plane-surface $-1 0 0 18.952989269973809 0 0 1 1 0 0 forward_v I I I I #
coedge $-1 $203 $271 $260 $294 forward $196 $-1 #
coedge $-1 $199 $198 $259 $294 reversed $81 $-1 #
edge $-1 $267 $265 $198 $295 forward #
coedge $-1 $211 $210 $199 $263 forward $212 $-1 #
edge $-1 $264 $296 $199 $297 forward #
vertex $-1 $215 $298 #
vertex $-1 $205 $299 #
straight-curve $-1 -45.409000847650674 -67.221089023763639 0 0 0 -1 I I #
vertex $-1 $294 $300 #
straight-curve $-1 -39.209411944381117 -59.755102410375187 -18.952989269973809 0 -1 0 I I #
straight-curve $-1 -45.409000847650674 -59.755102410375187 -18.952989269973809 0 1 0 I I #
point $-1 -39.209411944381117 -52.289115796986735 -18.952989269973809 #
coedge $-1 $259 $208 $211 $273 reversed $196 $-1 #
straight-curve $-1 -39.209411944381117 -52.289115796986735 0 0 0 -1 I I #
edge $-1 $296 $213 $271 $301 forward #
point $-1 -39.209411944381117 -52.289115796986735 18.952989269973809 #
straight-curve $-1 -45.409000847650674 -59.755102410375187 18.952989269973809 0 -1 0 I I #
coedge $-1 $227 $226 $219 $277 forward $145 $-1 #
edge $-1 $284 $279 $219 $302 forward #
edge $-1 $284 $224 $223 $303 forward #
vertex $-1 $221 $304 #
straight-curve $-1 -77.115390484328742 -2.0810746957065476 55.13023094924457 0 -0.78801074757464917 0.61566148304635926 I I #
edge $-1 $279 $228 $227 $305 forward #
point $-1 -77.115390484328742 52.289115796986735 12.651581749001767 #
point $-1 -57.407156499103792 44.223682132363933 18.952989269973813 #
vertex $-1 $231 $306 #
straight-curve $-1 0 52.289115796986735 18.952989269973809 -1 0 0 I I #
vertex $-1 $234 $307 #
point $-1 -69.984466488550183 44.659071652079362 11.197916610457625 #
vertex $-1 $238 $308 #
point $-1 -61.538080494882351 44.659071652079362 11.197916610457625 #
straight-curve $-1 -77.115390484328742 52.289115796986735 0 0 0 -1 I I #
point $-1 -77.115390484328742 -52.289115796986735 -18.952989269973809 #
straight-curve $-1 -77.115390484328742 0 -18.952989269973809 0 1 0 I I #
point $-1 -77.115390484328742 52.289115796986735 -18.952989269973809 #
edge $-1 $296 $267 $259 $309 forward #
straight-curve $-1 -42.309206396015895 -67.221089023763639 -18.952989269973809 -1 0 0 I I #
vertex $-1 $273 $310 #
straight-curve $-1 -42.309206396015895 -67.221089023763639 18.952989269973809 1 0 0 I I #
point $-1 -45.409000847650674 -67.221089023763639 18.952989269973809 #
point $-1 -45.409000847650674 -67.221089023763639 -18.952989269973809 #
point $-1 -39.209411944381117 -67.221089023763639 -18.952989269973809 #
straight-curve $-1 -39.209411944381117 -59.755102410375187 18.952989269973809 0 1 0 I I #
straight-curve $-1 -77.115390484328742 0 18.952989269973809 0 -1 0 I I #
straight-curve $-1 -77.115390484328742 52.289115796986735 0 0 0 -1 I I #
point $-1 -77.115390484328742 44.223682132363933 18.952989269973813 #
straight-curve $-1 -33.630636745858133 44.223682132363948 18.952989269973806 1 0 0 I I #
point $-1 -77.115390484328742 52.289115796986735 18.952989269973809 #
point $-1 -71.484466488550183 43.735579427509819 10.01590048909565 #
point $-1 -63.038080494882351 43.735579427509819 10.01590048909565 #
straight-curve $-1 -39.209411944381117 -67.221089023763639 0 0 0 -1 I I #
point $-1 -39.209411944381117 -67.221089023763639 18.952989269973809 #
End-of-ACIS-data 