600 0 14 0           
94 GICL ACIS Healer - Source: /gicl/data5/repository/Drexel/SM99-DATA/part101.smdg.feat.sat - 6 0 18 ACIS 6.0.3 Solaris 24 Sat Apr 13 20:43:04 2002 
1 9.999999999999999547e-07 1.000000000000000036e-10 
body $-1 $14 $-1 $-1 #
body $-1 $15 $-1 $-1 #
body $-1 $16 $-1 $-1 #
body $-1 $17 $-1 $-1 #
body $-1 $18 $-1 $-1 #
body $-1 $19 $-1 $-1 #
body $-1 $20 $-1 $-1 #
body $-1 $21 $-1 $-1 #
body $-1 $22 $-1 $-1 #
body $-1 $23 $-1 $-1 #
body $-1 $24 $-1 $-1 #
body $-1 $25 $-1 $-1 #
body $-1 $26 $-1 $-1 #
body $-1 $27 $-1 $-1 #
lump $-1 $-1 $28 $0 #
lump $-1 $-1 $29 $1 #
lump $-1 $-1 $30 $2 #
lump $-1 $-1 $31 $3 #
lump $-1 $-1 $32 $4 #
lump $-1 $-1 $33 $5 #
lump $-1 $-1 $34 $6 #
lump $-1 $-1 $35 $7 #
lump $-1 $-1 $36 $8 #
lump $-1 $-1 $37 $9 #
lump $-1 $-1 $38 $10 #
lump $-1 $-1 $39 $11 #
lump $-1 $-1 $40 $12 #
lump $-1 $-1 $41 $13 #
shell $-1 $-1 $-1 $42 $-1 $14 #
shell $-1 $-1 $-1 $43 $-1 $15 #
shell $-1 $-1 $-1 $44 $-1 $16 #
shell $-1 $-1 $-1 $45 $-1 $17 #
shell $-1 $-1 $-1 $46 $-1 $18 #
shell $-1 $-1 $-1 $47 $-1 $19 #
shell $-1 $-1 $-1 $48 $-1 $20 #
shell $-1 $-1 $-1 $49 $-1 $21 #
shell $-1 $-1 $-1 $50 $-1 $22 #
shell $-1 $-1 $-1 $51 $-1 $23 #
shell $-1 $-1 $-1 $52 $-1 $24 #
shell $-1 $-1 $-1 $53 $-1 $25 #
shell $-1 $-1 $-1 $54 $-1 $26 #
shell $-1 $-1 $-1 $55 $-1 $27 #
face $-1 $56 $57 $28 $-1 $58 forward single #
face $-1 $59 $60 $29 $-1 $61 forward single #
face $-1 $62 $63 $30 $-1 $64 forward single #
face $-1 $65 $66 $31 $-1 $67 forward single #
face $-1 $68 $69 $32 $-1 $70 forward single #
face $-1 $71 $72 $33 $-1 $73 forward single #
face $-1 $74 $75 $34 $-1 $76 forward single #
face $-1 $77 $78 $35 $-1 $79 forward single #
face $-1 $80 $81 $36 $-1 $82 forward single #
face $-1 $83 $84 $37 $-1 $85 forward single #
face $-1 $86 $87 $38 $-1 $88 forward single #
face $-1 $89 $90 $39 $-1 $91 forward single #
face $-1 $92 $93 $40 $-1 $94 forward single #
face $-1 $95 $96 $41 $-1 $97 forward single #
face $-1 $98 $99 $28 $-1 $100 reversed single #
loop $-1 $-1 $101 $42 #
plane-surface $-1 66.47297585985900525 27.16553155436219313 16.1922054746619466 0 0 1 1 0 0 forward_v I I I I #
face $-1 $102 $103 $29 $-1 $104 reversed single #
loop $-1 $-1 $105 $43 #
plane-surface $-1 -4.502865697525070487 27.16553155436219313 3 0 0 1 1 0 0 forward_v I I I I #
face $-1 $106 $107 $30 $-1 $108 reversed single #
loop $-1 $-1 $109 $44 #
plane-surface $-1 50.72800143379306093 260.5451425271505741 187.9571615597388927 0 0.8746197147644345637 0.484809606490402778 1 0 0 forward_v I I I I #
face $-1 $110 $111 $31 $-1 $112 forward single #
loop $-1 $113 $114 $45 #
cone-surface $-1 46.37987564777121463 52.60193275410880176 13.61929471672612912 0 -0.8746197147644345637 -0.484809606490402778 0.5 0 0 1 I I 0 1 0.5 forward I I I I #
face $-1 $115 $116 $32 $-1 $117 forward single #
loop $-1 $118 $119 $46 #
cone-surface $-1 55.07612721981491433 52.60193275410880176 13.61929471672612912 0 -0.8746197147644345637 -0.484809606490402778 0.5 0 0 1 I I 0 1 0.5 forward I I I I #
face $-1 $120 $121 $33 $-1 $122 reversed single #
loop $-1 $-1 $123 $47 #
plane-surface $-1 91.22368168097510477 260.5451425271505741 187.9571615597388927 0 0.8746197147644345637 0.484809606490402778 1 0 0 forward_v I I I I #
face $-1 $124 $125 $34 $-1 $126 forward single #
loop $-1 $127 $128 $48 #
cone-surface $-1 86.87555589495326558 52.60193275410880176 13.61929471672612912 0 -0.8746197147644345637 -0.484809606490402778 0.5 0 0 1 I I 0 1 0.5 forward I I I I #
face $-1 $129 $130 $35 $-1 $131 forward single #
loop $-1 $132 $133 $49 #
cone-surface $-1 95.57180746699695817 52.60193275410880176 13.61929471672612912 0 -0.8746197147644345637 -0.484809606490402778 0.5 0 0 1 I I 0 1 0.5 forward I I I I #
face $-1 $134 $135 $36 $-1 $136 reversed single #
loop $-1 $-1 $137 $50 #
plane-surface $-1 50.72800143379306093 -232.5543007443721137 140.4381426407378797 0 -0.8746197147644345637 0.484809606490402778 1 0 0 forward_v I I I I #
face $-1 $138 $139 $37 $-1 $140 forward single #
loop $-1 $141 $142 $51 #
cone-surface $-1 46.37987564777121463 1.729130354615583176 13.6192947167261309 0 0.8746197147644345637 -0.484809606490402778 0.5 0 0 1 I I 0 1 0.5 forward I I I I #
face $-1 $143 $144 $38 $-1 $145 forward single #
loop $-1 $146 $147 $52 #
cone-surface $-1 55.07612721981491433 1.729130354615583176 13.6192947167261309 0 0.8746197147644345637 -0.484809606490402778 0.5 0 0 1 I I 0 1 0.5 forward I I I I #
face $-1 $148 $149 $39 $-1 $150 reversed single #
loop $-1 $-1 $151 $53 #
plane-surface $-1 91.22368168097510477 -232.5543007443721137 140.4381426407378797 0 -0.8746197147644345637 0.484809606490402778 1 0 0 forward_v I I I I #
face $-1 $152 $153 $40 $-1 $154 forward single #
loop $-1 $155 $156 $54 #
cone-surface $-1 86.87555589495326558 1.729130354615583176 13.6192947167261309 0 0.8746197147644345637 -0.484809606490402778 0.5 0 0 1 I I 0 1 0.5 forward I I I I #
face $-1 $157 $158 $41 $-1 $159 forward single #
loop $-1 $160 $161 $55 #
cone-surface $-1 95.57180746699695817 1.729130354615583176 13.6192947167261309 0 0.8746197147644345637 -0.484809606490402778 0.5 0 0 1 I I 0 1 0.5 forward I I I I #
face $-1 $162 $163 $28 $-1 $164 reversed single #
loop $-1 $-1 $165 $56 #
plane-surface $-1 66.47297585985900525 27.16553155436219313 0 0 0 1 1 0 0 forward_v I I I I #
coedge $-1 $166 $167 $168 $169 forward $57 $-1 #
face $-1 $170 $171 $29 $-1 $172 reversed single #
loop $-1 $-1 $173 $59 #
plane-surface $-1 -4.502865697525070487 27.16553155436219313 0 0 0 1 1 0 0 forward_v I I I I #
coedge $-1 $174 $175 $176 $177 forward $60 $-1 #
face $-1 $178 $179 $30 $-1 $180 reversed single #
loop $-1 $-1 $181 $62 #
plane-surface $-1 50.72800143379306093 27.99084178277847457 59.05021248428171532 0 0.8746197147644345637 0.484809606490402778 1 0 0 forward_v I I I I #
coedge $-1 $182 $183 $184 $185 forward $63 $-1 #
face $-1 $-1 $186 $31 $-1 $187 forward single #
loop $-1 $-1 $188 $65 #
plane-surface $-1 46.37987564777121463 53.03924261149101937 13.86169951997132976 0 0.8746197147644345637 0.484809606490402778 -1 -0 0 forward_v I I I I #
loop $-1 $-1 $189 $45 #
coedge $-1 $114 $114 $188 $190 reversed $66 $-1 #
face $-1 $-1 $191 $32 $-1 $192 forward single #
loop $-1 $-1 $193 $68 #
plane-surface $-1 55.07612721981491433 53.03924261149101937 13.86169951997132976 0 0.8746197147644345637 0.484809606490402778 -1 -0 0 forward_v I I I I #
loop $-1 $-1 $194 $46 #
coedge $-1 $119 $119 $193 $195 reversed $69 $-1 #
face $-1 $196 $197 $33 $-1 $198 reversed single #
loop $-1 $-1 $199 $71 #
plane-surface $-1 91.22368168097510477 27.99084178277847457 59.05021248428171532 0 0.8746197147644345637 0.484809606490402778 1 0 0 forward_v I I I I #
coedge $-1 $200 $201 $202 $203 forward $72 $-1 #
face $-1 $-1 $204 $34 $-1 $205 forward single #
loop $-1 $-1 $206 $74 #
plane-surface $-1 86.87555589495326558 53.03924261149101937 13.86169951997132976 0 0.8746197147644345637 0.484809606490402778 -1 -0 0 forward_v I I I I #
loop $-1 $-1 $207 $48 #
coedge $-1 $128 $128 $206 $208 reversed $75 $-1 #
face $-1 $-1 $209 $35 $-1 $210 forward single #
loop $-1 $-1 $211 $77 #
plane-surface $-1 95.57180746699695817 53.03924261149101937 13.86169951997132976 0 0.8746197147644345637 0.484809606490402778 -1 -0 0 forward_v I I I I #
loop $-1 $-1 $212 $49 #
coedge $-1 $133 $133 $211 $213 reversed $78 $-1 #
face $-1 $214 $215 $36 $-1 $216 reversed single #
loop $-1 $-1 $217 $80 #
plane-surface $-1 50.72800143379306093 0 11.53119356528071648 0 -0.8746197147644345637 0.484809606490402778 1 0 0 forward_v I I I I #
coedge $-1 $218 $219 $220 $221 forward $81 $-1 #
face $-1 $-1 $222 $37 $-1 $223 forward single #
loop $-1 $-1 $224 $83 #
plane-surface $-1 46.37987564777121463 1.291820497233366005 13.86169951997133154 0 -0.8746197147644345637 0.484809606490402778 -1 0 -0 forward_v I I I I #
loop $-1 $-1 $225 $51 #
coedge $-1 $142 $142 $224 $226 reversed $84 $-1 #
face $-1 $-1 $227 $38 $-1 $228 forward single #
loop $-1 $-1 $229 $86 #
plane-surface $-1 55.07612721981491433 1.291820497233366005 13.86169951997133154 0 -0.8746197147644345637 0.484809606490402778 -1 0 -0 forward_v I I I I #
loop $-1 $-1 $230 $52 #
coedge $-1 $147 $147 $229 $231 reversed $87 $-1 #
face $-1 $232 $233 $39 $-1 $234 reversed single #
loop $-1 $-1 $235 $89 #
plane-surface $-1 91.22368168097510477 0 11.53119356528071648 0 -0.8746197147644345637 0.484809606490402778 1 0 0 forward_v I I I I #
coedge $-1 $236 $237 $238 $239 forward $90 $-1 #
face $-1 $-1 $240 $40 $-1 $241 forward single #
loop $-1 $-1 $242 $92 #
plane-surface $-1 86.87555589495326558 1.291820497233366005 13.86169951997133154 0 -0.8746197147644345637 0.484809606490402778 -1 0 -0 forward_v I I I I #
loop $-1 $-1 $243 $54 #
coedge $-1 $156 $156 $242 $244 reversed $93 $-1 #
face $-1 $-1 $245 $41 $-1 $246 forward single #
loop $-1 $-1 $247 $95 #
plane-surface $-1 95.57180746699695817 1.291820497233366005 13.86169951997133154 0 -0.8746197147644345637 0.484809606490402778 -1 0 -0 forward_v I I I I #
loop $-1 $-1 $248 $55 #
coedge $-1 $161 $161 $247 $249 reversed $96 $-1 #
face $-1 $250 $251 $28 $-1 $252 reversed single #
loop $-1 $-1 $253 $98 #
plane-surface $-1 66.47297585985900525 0 8.096102737330973298 0 1 0 0 0 1 forward_v I I I I #
coedge $-1 $254 $255 $256 $257 forward $99 $-1 #
coedge $-1 $258 $101 $259 $260 forward $57 $-1 #
coedge $-1 $101 $258 $261 $262 forward $57 $-1 #
coedge $-1 $263 $264 $101 $169 reversed $265 $-1 #
edge $-1 $266 -27.16553155436219313 $267 27.16553155436219313 $168 $268 forward 7 unknown #
face $-1 $269 $270 $29 $-1 $271 reversed single #
loop $-1 $-1 $272 $102 #
plane-surface $-1 -4.502865697525070487 0 1.5 0 1 0 0 0 1 forward_v I I I I #
coedge $-1 $273 $274 $275 $276 forward $103 $-1 #
coedge $-1 $277 $105 $278 $279 forward $60 $-1 #
coedge $-1 $105 $277 $280 $281 forward $60 $-1 #
coedge $-1 $282 $283 $105 $177 reversed $284 $-1 #
edge $-1 $285 -27.16553155436219313 $286 27.16553155436219313 $176 $287 forward 7 unknown #
face $-1 $288 $289 $30 $-1 $290 reversed single #
loop $-1 $-1 $291 $106 #
plane-surface $-1 50.72800143379306093 15.36104307950736825 356.0579877663824391 0 0.484809606490402778 -0.8746197147644345637 0 0.8746197147644345637 0.484809606490402778 forward_v I I I I #
coedge $-1 $292 $293 $294 $295 forward $107 $-1 #
coedge $-1 $296 $109 $297 $298 forward $63 $-1 #
coedge $-1 $109 $296 $299 $300 forward $63 $-1 #
coedge $-1 $301 $302 $109 $185 reversed $303 $-1 #
edge $-1 $304 -265.891903439436021 $305 265.8919034394360779 $184 $306 forward 7 unknown #
loop $-1 $307 $308 $110 #
cone-surface $-1 46.37987564777121463 51.94596796803547534 13.25568751185832639 0 -0.8746197147644345637 -0.484809606490402778 0.25 0 0 1 I I -0.7071067811865474617 0.7071067811865474617 0.25 forward I I I I #
coedge $-1 $188 $188 $114 $190 forward $111 $-1 #
coedge $-1 $189 $189 $308 $309 forward $113 $-1 #
edge $-1 $310 0 $310 6.283185307179586232 $188 $311 forward 7 unknown #
loop $-1 $312 $313 $115 #
cone-surface $-1 55.07612721981491433 51.94596796803547534 13.25568751185832639 0 -0.8746197147644345637 -0.484809606490402778 0.25 0 0 1 I I -0.7071067811865474617 0.7071067811865474617 0.25 forward I I I I #
coedge $-1 $193 $193 $119 $195 forward $116 $-1 #
coedge $-1 $194 $194 $313 $314 forward $118 $-1 #
edge $-1 $315 0 $315 6.283185307179586232 $193 $316 forward 7 unknown #
face $-1 $317 $318 $33 $-1 $319 reversed single #
loop $-1 $-1 $320 $120 #
plane-surface $-1 91.22368168097510477 15.36104307950736825 356.0579877663824391 0 0.484809606490402778 -0.8746197147644345637 0 0.8746197147644345637 0.484809606490402778 forward_v I I I I #
coedge $-1 $321 $322 $323 $324 forward $121 $-1 #
coedge $-1 $325 $123 $326 $327 forward $72 $-1 #
coedge $-1 $123 $325 $328 $329 forward $72 $-1 #
coedge $-1 $330 $331 $123 $203 reversed $332 $-1 #
edge $-1 $333 -265.891903439436021 $334 265.8919034394360779 $202 $335 forward 7 unknown #
loop $-1 $336 $337 $124 #
cone-surface $-1 86.87555589495326558 51.94596796803547534 13.25568751185832639 0 -0.8746197147644345637 -0.484809606490402778 0.25 0 0 1 I I -0.7071067811865474617 0.7071067811865474617 0.25 forward I I I I #
coedge $-1 $206 $206 $128 $208 forward $125 $-1 #
coedge $-1 $207 $207 $337 $338 forward $127 $-1 #
edge $-1 $339 0 $339 6.283185307179586232 $206 $340 forward 7 unknown #
loop $-1 $341 $342 $129 #
cone-surface $-1 95.57180746699695817 51.94596796803547534 13.25568751185832639 0 -0.8746197147644345637 -0.484809606490402778 0.25 0 0 1 I I -0.7071067811865474617 0.7071067811865474617 0.25 forward I I I I #
coedge $-1 $211 $211 $133 $213 forward $130 $-1 #
coedge $-1 $212 $212 $342 $343 forward $132 $-1 #
edge $-1 $344 0 $344 6.283185307179586232 $211 $345 forward 7 unknown #
face $-1 $346 $347 $36 $-1 $348 reversed single #
loop $-1 $-1 $349 $134 #
plane-surface $-1 50.72800143379306093 -245.1840994476432343 -156.5696326413628299 0 0.484809606490402778 0.8746197147644345637 0 -0.8746197147644345637 0.484809606490402778 forward_v I I I I #
coedge $-1 $350 $351 $352 $353 forward $135 $-1 #
coedge $-1 $354 $137 $355 $356 forward $81 $-1 #
coedge $-1 $137 $354 $357 $358 forward $81 $-1 #
coedge $-1 $359 $360 $137 $221 reversed $361 $-1 #
edge $-1 $362 -265.8919034394360779 $363 265.891903439436021 $220 $364 forward 7 unknown #
loop $-1 $365 $366 $138 #
cone-surface $-1 46.37987564777121463 2.385095140688909154 13.25568751185832816 0 0.8746197147644345637 -0.484809606490402778 0.25 0 0 1 I I -0.7071067811865474617 0.7071067811865474617 0.25 forward I I I I #
coedge $-1 $224 $224 $142 $226 forward $139 $-1 #
coedge $-1 $225 $225 $366 $367 forward $141 $-1 #
edge $-1 $368 0 $368 6.283185307179586232 $224 $369 forward 7 unknown #
loop $-1 $370 $371 $143 #
cone-surface $-1 55.07612721981491433 2.385095140688909154 13.25568751185832816 0 0.8746197147644345637 -0.484809606490402778 0.25 0 0 1 I I -0.7071067811865474617 0.7071067811865474617 0.25 forward I I I I #
coedge $-1 $229 $229 $147 $231 forward $144 $-1 #
coedge $-1 $230 $230 $371 $372 forward $146 $-1 #
edge $-1 $373 0 $373 6.283185307179586232 $229 $374 forward 7 unknown #
face $-1 $375 $376 $39 $-1 $377 reversed single #
loop $-1 $-1 $378 $148 #
plane-surface $-1 91.22368168097510477 -245.1840994476432343 -156.5696326413628299 0 0.484809606490402778 0.8746197147644345637 0 -0.8746197147644345637 0.484809606490402778 forward_v I I I I #
coedge $-1 $379 $380 $381 $382 forward $149 $-1 #
coedge $-1 $383 $151 $384 $385 forward $90 $-1 #
coedge $-1 $151 $383 $386 $387 forward $90 $-1 #
coedge $-1 $388 $389 $151 $239 reversed $390 $-1 #
edge $-1 $391 -265.8919034394360779 $392 265.891903439436021 $238 $393 forward 7 unknown #
loop $-1 $394 $395 $152 #
cone-surface $-1 86.87555589495326558 2.385095140688909154 13.25568751185832816 0 0.8746197147644345637 -0.484809606490402778 0.25 0 0 1 I I -0.7071067811865474617 0.7071067811865474617 0.25 forward I I I I #
coedge $-1 $242 $242 $156 $244 forward $153 $-1 #
coedge $-1 $243 $243 $395 $396 forward $155 $-1 #
edge $-1 $397 0 $397 6.283185307179586232 $242 $398 forward 7 unknown #
loop $-1 $399 $400 $157 #
cone-surface $-1 95.57180746699695817 2.385095140688909154 13.25568751185832816 0 0.8746197147644345637 -0.484809606490402778 0.25 0 0 1 I I -0.7071067811865474617 0.7071067811865474617 0.25 forward I I I I #
coedge $-1 $247 $247 $161 $249 forward $158 $-1 #
coedge $-1 $248 $248 $400 $401 forward $160 $-1 #
edge $-1 $402 0 $402 6.283185307179586232 $247 $403 forward 7 unknown #
face $-1 $404 $405 $28 $-1 $406 reversed single #
loop $-1 $-1 $407 $162 #
plane-surface $-1 0 27.16553155436219313 8.096102737330973298 1 0 0 0 0 -1 forward_v I I I I #
coedge $-1 $408 $261 $409 $410 forward $163 $-1 #
coedge $-1 $411 $165 $408 $412 forward $99 $-1 #
coedge $-1 $165 $411 $413 $414 forward $99 $-1 #
coedge $-1 $264 $263 $165 $257 reversed $265 $-1 #
edge $-1 $415 -27.16553155436219313 $416 27.16553155436219313 $256 $417 forward 7 unknown #
coedge $-1 $167 $166 $418 $419 forward $57 $-1 #
coedge $-1 $420 $421 $166 $260 reversed $405 $-1 #
edge $-1 $267 -66.47297585985900525 $422 66.47297585985900525 $259 $423 forward 7 unknown #
coedge $-1 $253 $424 $167 $262 reversed $163 $-1 #
edge $-1 $425 -66.47297585985900525 $266 66.47297585985900525 $261 $426 forward 7 unknown #
coedge $-1 $256 $168 $424 $427 forward $265 $-1 #
coedge $-1 $168 $256 $420 $428 reversed $265 $-1 #
loop $-1 $-1 $263 $404 #
vertex $-1 $169 $429 #
vertex $-1 $169 $430 #
straight-curve $-1 132.9459517197180105 27.16553155436219313 16.1922054746619466 0 1 0 I I #
face $-1 $431 $432 $29 $-1 $433 reversed single #
loop $-1 $-1 $434 $170 #
plane-surface $-1 -9.005731395050140975 27.16553155436219313 1.5 1 0 0 0 0 -1 forward_v I I I I #
coedge $-1 $435 $280 $436 $437 forward $171 $-1 #
coedge $-1 $438 $173 $435 $439 forward $103 $-1 #
coedge $-1 $173 $438 $440 $441 forward $103 $-1 #
coedge $-1 $283 $282 $173 $276 reversed $284 $-1 #
edge $-1 $442 -27.16553155436219313 $443 27.16553155436219313 $275 $444 forward 7 unknown #
coedge $-1 $175 $174 $445 $446 forward $60 $-1 #
coedge $-1 $447 $448 $174 $279 reversed $432 $-1 #
edge $-1 $286 -4.502865697525070487 $449 4.502865697525070487 $278 $450 forward 7 unknown #
coedge $-1 $272 $451 $175 $281 reversed $171 $-1 #
edge $-1 $452 -4.502865697525070487 $285 4.502865697525070487 $280 $453 forward 7 unknown #
coedge $-1 $275 $176 $451 $454 forward $284 $-1 #
coedge $-1 $176 $275 $447 $455 reversed $284 $-1 #
loop $-1 $-1 $282 $431 #
vertex $-1 $177 $456 #
vertex $-1 $177 $457 #
straight-curve $-1 0 27.16553155436219313 3 0 1 0 I I #
face $-1 $458 $459 $30 $-1 $460 reversed single #
loop $-1 $-1 $461 $178 #
plane-surface $-1 40.5823745997420815 144.2679921549645314 123.5036870220102969 1 0 0 0 -0.8746197147644345637 -0.484809606490402778 forward_v I I I I #
coedge $-1 $462 $299 $463 $464 forward $179 $-1 #
coedge $-1 $465 $181 $462 $466 forward $107 $-1 #
coedge $-1 $181 $465 $467 $468 forward $107 $-1 #
coedge $-1 $302 $301 $181 $295 reversed $303 $-1 #
edge $-1 $469 -265.891903439436021 $470 265.8919034394360779 $294 $471 forward 7 unknown #
coedge $-1 $183 $182 $472 $473 forward $63 $-1 #
coedge $-1 $474 $475 $182 $298 reversed $459 $-1 #
edge $-1 $305 -10.14562683405097943 $476 10.14562683405097943 $297 $477 forward 7 unknown #
coedge $-1 $291 $478 $183 $300 reversed $179 $-1 #
edge $-1 $479 -10.14562683405097943 $304 10.14562683405097943 $299 $480 forward 7 unknown #
coedge $-1 $294 $184 $478 $481 forward $303 $-1 #
coedge $-1 $184 $294 $474 $482 reversed $303 $-1 #
loop $-1 $-1 $301 $458 #
vertex $-1 $185 $483 #
vertex $-1 $185 $484 #
straight-curve $-1 60.87362826784404035 260.5451425271505741 187.9571615597388927 0 0.484809606490402778 -0.8746197147644345637 I I #
loop $-1 $-1 $485 $110 #
coedge $-1 $308 $308 $189 $309 reversed $186 $-1 #
edge $-1 $486 0 $486 6.283185307179586232 $308 $487 forward 7 unknown #
vertex $-1 $190 $488 #
ellipse-curve $-1 46.37987564777121463 53.03924261149101937 13.86169951997132976 0 0.8746197147644345637 0.484809606490402778 0.5 0 0 1 I I #
loop $-1 $-1 $489 $115 #
coedge $-1 $313 $313 $194 $314 reversed $191 $-1 #
edge $-1 $490 0 $490 6.283185307179586232 $313 $491 forward 7 unknown #
vertex $-1 $195 $492 #
ellipse-curve $-1 55.07612721981491433 53.03924261149101937 13.86169951997132976 0 0.8746197147644345637 0.484809606490402778 0.5 0 0 1 I I #
face $-1 $493 $494 $33 $-1 $495 reversed single #
loop $-1 $-1 $496 $196 #
plane-surface $-1 81.07805484692411824 144.2679921549645314 123.5036870220102969 1 0 0 0 -0.8746197147644345637 -0.484809606490402778 forward_v I I I I #
coedge $-1 $497 $328 $498 $499 forward $197 $-1 #
coedge $-1 $500 $199 $497 $501 forward $121 $-1 #
coedge $-1 $199 $500 $502 $503 forward $121 $-1 #
coedge $-1 $331 $330 $199 $324 reversed $332 $-1 #
edge $-1 $504 -265.891903439436021 $505 265.8919034394360779 $323 $506 forward 7 unknown #
coedge $-1 $201 $200 $507 $508 forward $72 $-1 #
coedge $-1 $509 $510 $200 $327 reversed $494 $-1 #
edge $-1 $334 -10.14562683405098653 $511 10.14562683405098653 $326 $512 forward 7 unknown #
coedge $-1 $320 $513 $201 $329 reversed $197 $-1 #
edge $-1 $514 -10.14562683405098653 $333 10.14562683405098653 $328 $515 forward 7 unknown #
coedge $-1 $323 $202 $513 $516 forward $332 $-1 #
coedge $-1 $202 $323 $509 $517 reversed $332 $-1 #
loop $-1 $-1 $330 $493 #
vertex $-1 $203 $518 #
vertex $-1 $203 $519 #
straight-curve $-1 101.3693085150260913 260.5451425271505741 187.9571615597388927 0 0.484809606490402778 -0.8746197147644345637 I I #
loop $-1 $-1 $520 $124 #
coedge $-1 $337 $337 $207 $338 reversed $204 $-1 #
edge $-1 $521 0 $521 6.283185307179586232 $337 $522 forward 7 unknown #
vertex $-1 $208 $523 #
ellipse-curve $-1 86.87555589495326558 53.03924261149101937 13.86169951997132976 0 0.8746197147644345637 0.484809606490402778 0.5 0 0 1 I I #
loop $-1 $-1 $524 $129 #
coedge $-1 $342 $342 $212 $343 reversed $209 $-1 #
edge $-1 $525 0 $525 6.283185307179586232 $342 $526 forward 7 unknown #
vertex $-1 $213 $527 #
ellipse-curve $-1 95.57180746699695817 53.03924261149101937 13.86169951997132976 0 0.8746197147644345637 0.484809606490402778 0.5 0 0 1 I I #
face $-1 $528 $529 $36 $-1 $530 reversed single #
loop $-1 $-1 $531 $214 #
plane-surface $-1 40.5823745997420815 -116.2771503721860569 75.98466810300929808 1 0 0 0 0.8746197147644345637 -0.484809606490402778 forward_v I I I I #
coedge $-1 $532 $357 $533 $534 forward $215 $-1 #
coedge $-1 $535 $217 $532 $536 forward $135 $-1 #
coedge $-1 $217 $535 $537 $538 forward $135 $-1 #
coedge $-1 $360 $359 $217 $353 reversed $361 $-1 #
edge $-1 $539 -265.8919034394360779 $540 265.891903439436021 $352 $541 forward 7 unknown #
coedge $-1 $219 $218 $542 $543 forward $81 $-1 #
coedge $-1 $544 $545 $218 $356 reversed $529 $-1 #
edge $-1 $363 -10.14562683405097943 $546 10.14562683405097943 $355 $547 forward 7 unknown #
coedge $-1 $349 $548 $219 $358 reversed $215 $-1 #
edge $-1 $549 -10.14562683405097943 $362 10.14562683405097943 $357 $550 forward 7 unknown #
coedge $-1 $352 $220 $548 $551 forward $361 $-1 #
coedge $-1 $220 $352 $544 $552 reversed $361 $-1 #
loop $-1 $-1 $359 $528 #
vertex $-1 $221 $553 #
vertex $-1 $221 $554 #
straight-curve $-1 60.87362826784404035 -232.5543007443721137 140.4381426407378797 0 0.484809606490402778 0.8746197147644345637 I I #
loop $-1 $-1 $555 $138 #
coedge $-1 $366 $366 $225 $367 reversed $222 $-1 #
edge $-1 $556 0 $556 6.283185307179586232 $366 $557 forward 7 unknown #
vertex $-1 $226 $558 #
ellipse-curve $-1 46.37987564777121463 1.291820497233366005 13.86169951997133154 0 -0.8746197147644345637 0.484809606490402778 0.5 0 0 1 I I #
loop $-1 $-1 $559 $143 #
coedge $-1 $371 $371 $230 $372 reversed $227 $-1 #
edge $-1 $560 0 $560 6.283185307179586232 $371 $561 forward 7 unknown #
vertex $-1 $231 $562 #
ellipse-curve $-1 55.07612721981491433 1.291820497233366005 13.86169951997133154 0 -0.8746197147644345637 0.484809606490402778 0.5 0 0 1 I I #
face $-1 $563 $564 $39 $-1 $565 reversed single #
loop $-1 $-1 $566 $232 #
plane-surface $-1 81.07805484692411824 -116.2771503721860569 75.98466810300929808 1 0 0 0 0.8746197147644345637 -0.484809606490402778 forward_v I I I I #
coedge $-1 $567 $386 $568 $569 forward $233 $-1 #
coedge $-1 $570 $235 $567 $571 forward $149 $-1 #
coedge $-1 $235 $570 $572 $573 forward $149 $-1 #
coedge $-1 $389 $388 $235 $382 reversed $390 $-1 #
edge $-1 $574 -265.8919034394360779 $575 265.891903439436021 $381 $576 forward 7 unknown #
coedge $-1 $237 $236 $577 $578 forward $90 $-1 #
coedge $-1 $579 $580 $236 $385 reversed $564 $-1 #
edge $-1 $392 -10.14562683405098653 $581 10.14562683405098653 $384 $582 forward 7 unknown #
coedge $-1 $378 $583 $237 $387 reversed $233 $-1 #
edge $-1 $584 -10.14562683405098653 $391 10.14562683405098653 $386 $585 forward 7 unknown #
coedge $-1 $381 $238 $583 $586 forward $390 $-1 #
coedge $-1 $238 $381 $579 $587 reversed $390 $-1 #
loop $-1 $-1 $388 $563 #
vertex $-1 $239 $588 #
vertex $-1 $239 $589 #
straight-curve $-1 101.3693085150260913 -232.5543007443721137 140.4381426407378797 0 0.484809606490402778 0.8746197147644345637 I I #
loop $-1 $-1 $590 $152 #
coedge $-1 $395 $395 $243 $396 reversed $240 $-1 #
edge $-1 $591 0 $591 6.283185307179586232 $395 $592 forward 7 unknown #
vertex $-1 $244 $593 #
ellipse-curve $-1 86.87555589495326558 1.291820497233366005 13.86169951997133154 0 -0.8746197147644345637 0.484809606490402778 0.5 0 0 1 I I #
loop $-1 $-1 $594 $157 #
coedge $-1 $400 $400 $248 $401 reversed $245 $-1 #
edge $-1 $595 0 $595 6.283185307179586232 $400 $596 forward 7 unknown #
vertex $-1 $249 $597 #
ellipse-curve $-1 95.57180746699695817 1.291820497233366005 13.86169951997133154 0 -0.8746197147644345637 0.484809606490402778 0.5 0 0 1 I I #
face $-1 $-1 $265 $28 $-1 $598 reversed single #
loop $-1 $-1 $420 $250 #
plane-surface $-1 66.47297585985900525 54.33106310872438627 8.096102737330973298 0 -1 0 0 0 -1 forward_v I I I I #
coedge $-1 $599 $418 $421 $600 forward $251 $-1 #
coedge $-1 $424 $253 $254 $412 reversed $163 $-1 #
coedge $-1 $418 $599 $253 $410 reversed $251 $-1 #
edge $-1 $425 -8.096102737330973298 $601 8.096102737330973298 $409 $602 forward 7 unknown #
coedge $-1 $255 $254 $599 $603 forward $99 $-1 #
edge $-1 $416 -66.47297585985900525 $601 66.47297585985900525 $408 $604 forward 7 unknown #
coedge $-1 $421 $420 $255 $414 reversed $405 $-1 #
edge $-1 $605 -66.47297585985900525 $415 66.47297585985900525 $413 $606 forward 7 unknown #
vertex $-1 $257 $607 #
vertex $-1 $427 $608 #
straight-curve $-1 132.9459517197180105 27.16553155436219313 0 0 -1 0 I I #
coedge $-1 $407 $409 $258 $419 reversed $251 $-1 #
edge $-1 $422 -27.16553155436219313 $425 27.16553155436219313 $418 $609 forward 7 unknown #
coedge $-1 $413 $259 $264 $428 forward $405 $-1 #
coedge $-1 $259 $413 $407 $600 reversed $405 $-1 #
vertex $-1 $260 $610 #
straight-curve $-1 66.47297585985900525 54.33106310872438627 16.1922054746619466 -1 0 0 I I #
coedge $-1 $261 $408 $263 $427 reversed $163 $-1 #
vertex $-1 $419 $611 #
straight-curve $-1 66.47297585985900525 0 16.1922054746619466 1 0 0 I I #
edge $-1 $266 -8.096102737330973298 $416 8.096102737330973298 $263 $612 forward 7 unknown #
edge $-1 $267 -8.096102737330973298 $415 8.096102737330973298 $264 $613 forward 7 unknown #
point $-1 132.9459517197180105 0 16.1922054746619466 #
point $-1 132.9459517197180105 54.33106310872438627 16.1922054746619466 #
face $-1 $-1 $284 $29 $-1 $614 reversed single #
loop $-1 $-1 $447 $269 #
plane-surface $-1 -4.502865697525070487 54.33106310872438627 1.5 0 -1 0 0 0 -1 forward_v I I I I #
coedge $-1 $615 $445 $448 $616 forward $270 $-1 #
coedge $-1 $451 $272 $273 $439 reversed $171 $-1 #
coedge $-1 $445 $615 $272 $437 reversed $270 $-1 #
edge $-1 $452 -1.5 $617 1.5 $436 $618 forward 7 unknown #
coedge $-1 $274 $273 $615 $619 forward $103 $-1 #
edge $-1 $443 -4.502865697525070487 $617 4.502865697525070487 $435 $620 forward 7 unknown #
coedge $-1 $448 $447 $274 $441 reversed $432 $-1 #
edge $-1 $621 -4.502865697525070487 $442 4.502865697525070487 $440 $622 forward 7 unknown #
vertex $-1 $276 $623 #
vertex $-1 $454 $624 #
straight-curve $-1 0 27.16553155436219313 0 0 -1 0 I I #
coedge $-1 $434 $436 $277 $446 reversed $270 $-1 #
edge $-1 $449 -27.16553155436219313 $452 27.16553155436219313 $445 $625 forward 7 unknown #
coedge $-1 $440 $278 $283 $455 forward $432 $-1 #
coedge $-1 $278 $440 $434 $616 reversed $432 $-1 #
vertex $-1 $279 $626 #
straight-curve $-1 -4.502865697525070487 54.33106310872438627 3 -1 0 0 I I #
coedge $-1 $280 $435 $282 $454 reversed $171 $-1 #
vertex $-1 $446 $627 #
straight-curve $-1 -4.502865697525070487 0 3 1 0 0 I I #
edge $-1 $285 -1.5 $443 1.5 $282 $628 forward 7 unknown #
edge $-1 $286 -1.5 $442 1.5 $283 $629 forward 7 unknown #
point $-1 0 0 3 #
point $-1 0 54.33106310872438627 3 #
face $-1 $-1 $303 $30 $-1 $630 reversed single #
loop $-1 $-1 $474 $288 #
plane-surface $-1 50.72800143379306093 273.174941230421723 -109.0506137223618168 0 -0.484809606490402778 0.8746197147644345637 0 -0.8746197147644345637 -0.484809606490402778 forward_v I I I I #
coedge $-1 $631 $472 $475 $632 forward $289 $-1 #
coedge $-1 $478 $291 $292 $466 reversed $179 $-1 #
coedge $-1 $472 $631 $291 $464 reversed $289 $-1 #
edge $-1 $479 -132.9459517197180105 $633 132.9459517197180389 $463 $634 forward 7 unknown #
coedge $-1 $293 $292 $631 $635 forward $107 $-1 #
edge $-1 $470 -10.14562683405097943 $633 10.14562683405097943 $462 $636 forward 7 unknown #
coedge $-1 $475 $474 $293 $468 reversed $459 $-1 #
edge $-1 $637 -10.14562683405097943 $469 10.14562683405097943 $467 $638 forward 7 unknown #
vertex $-1 $295 $639 #
vertex $-1 $481 $640 #
straight-curve $-1 60.87362826784404035 27.99084178277847457 59.05021248428171532 0 -0.484809606490402778 0.8746197147644345637 I I #
coedge $-1 $461 $463 $296 $473 reversed $289 $-1 #
edge $-1 $476 -265.8919034394360779 $479 265.891903439436021 $472 $641 forward 7 unknown #
coedge $-1 $467 $297 $302 $482 forward $459 $-1 #
coedge $-1 $297 $467 $461 $632 reversed $459 $-1 #
vertex $-1 $298 $642 #
straight-curve $-1 50.72800143379306093 389.4520916026077657 -44.59713918463324944 -1 0 0 I I #
coedge $-1 $299 $462 $301 $481 reversed $179 $-1 #
vertex $-1 $473 $643 #
straight-curve $-1 50.72800143379306093 131.6381934516934393 420.511462304110978 1 0 0 I I #
edge $-1 $304 -132.9459517197180105 $470 132.9459517197180389 $301 $644 forward 7 unknown #
edge $-1 $305 -132.9459517197180105 $469 132.9459517197180674 $302 $645 forward 7 unknown #
point $-1 60.87362826784404035 131.6381934516934393 420.511462304110978 #
point $-1 60.87362826784404035 389.4520916026077657 -44.59713918463324944 #
coedge $-1 $485 $485 $-1 $646 reversed $307 $-1 #
vertex $-1 $309 $647 #
ellipse-curve $-1 46.37987564777121463 52.16462289672658414 13.37688991348092671 0 0.8746197147644345637 0.484809606490402778 0.5 0 0 1 I I #
point $-1 46.87987564777121463 53.03924261149101937 13.86169951997132976 #
coedge $-1 $489 $489 $-1 $648 reversed $312 $-1 #
vertex $-1 $314 $649 #
ellipse-curve $-1 55.07612721981491433 52.16462289672658414 13.37688991348092671 0 0.8746197147644345637 0.484809606490402778 0.5 0 0 1 I I #
point $-1 55.57612721981491433 53.03924261149101937 13.86169951997132976 #
face $-1 $-1 $332 $33 $-1 $650 reversed single #
loop $-1 $-1 $509 $317 #
plane-surface $-1 91.22368168097510477 273.174941230421723 -109.0506137223618168 0 -0.484809606490402778 0.8746197147644345637 0 -0.8746197147644345637 -0.484809606490402778 forward_v I I I I #
coedge $-1 $651 $507 $510 $652 forward $318 $-1 #
coedge $-1 $513 $320 $321 $501 reversed $197 $-1 #
coedge $-1 $507 $651 $320 $499 reversed $318 $-1 #
edge $-1 $514 -132.9459517197180105 $653 132.9459517197180389 $498 $654 forward 7 unknown #
coedge $-1 $322 $321 $651 $655 forward $121 $-1 #
edge $-1 $505 -10.14562683405098653 $653 10.14562683405098653 $497 $656 forward 7 unknown #
coedge $-1 $510 $509 $322 $503 reversed $494 $-1 #
edge $-1 $657 -10.14562683405098653 $504 10.14562683405098653 $502 $658 forward 7 unknown #
vertex $-1 $324 $659 #
vertex $-1 $516 $660 #
straight-curve $-1 101.3693085150260913 27.99084178277847457 59.05021248428171532 0 -0.484809606490402778 0.8746197147644345637 I I #
coedge $-1 $496 $498 $325 $508 reversed $318 $-1 #
edge $-1 $511 -265.8919034394360779 $514 265.891903439436021 $507 $661 forward 7 unknown #
coedge $-1 $502 $326 $331 $517 forward $494 $-1 #
coedge $-1 $326 $502 $496 $652 reversed $494 $-1 #
vertex $-1 $327 $662 #
straight-curve $-1 91.22368168097510477 389.4520916026077657 -44.59713918463324944 -1 0 0 I I #
coedge $-1 $328 $497 $330 $516 reversed $197 $-1 #
vertex $-1 $508 $663 #
straight-curve $-1 91.22368168097510477 131.6381934516934393 420.511462304110978 1 0 0 I I #
edge $-1 $333 -132.9459517197180105 $505 132.9459517197180389 $330 $664 forward 7 unknown #
edge $-1 $334 -132.9459517197180105 $504 132.9459517197180674 $331 $665 forward 7 unknown #
point $-1 101.3693085150260913 131.6381934516934393 420.511462304110978 #
point $-1 101.3693085150260913 389.4520916026077657 -44.59713918463324944 #
coedge $-1 $520 $520 $-1 $666 reversed $336 $-1 #
vertex $-1 $338 $667 #
ellipse-curve $-1 86.87555589495326558 52.16462289672658414 13.37688991348092671 0 0.8746197147644345637 0.484809606490402778 0.5 0 0 1 I I #
point $-1 87.37555589495326558 53.03924261149101937 13.86169951997132976 #
coedge $-1 $524 $524 $-1 $668 reversed $341 $-1 #
vertex $-1 $343 $669 #
ellipse-curve $-1 95.57180746699695817 52.16462289672658414 13.37688991348092671 0 0.8746197147644345637 0.484809606490402778 0.5 0 0 1 I I #
point $-1 96.07180746699695817 53.03924261149101937 13.86169951997132976 #
face $-1 $-1 $361 $36 $-1 $670 reversed single #
loop $-1 $-1 $544 $346 #
plane-surface $-1 50.72800143379306093 12.62979870327110632 308.5389688473813976 0 -0.484809606490402778 -0.8746197147644345637 0 0.8746197147644345637 -0.484809606490402778 forward_v I I I I #
coedge $-1 $671 $542 $545 $672 forward $347 $-1 #
coedge $-1 $548 $349 $350 $536 reversed $215 $-1 #
coedge $-1 $542 $671 $349 $534 reversed $347 $-1 #
edge $-1 $549 -132.9459517197180105 $673 132.9459517197180105 $533 $674 forward 7 unknown #
coedge $-1 $351 $350 $671 $675 forward $135 $-1 #
edge $-1 $540 -10.14562683405097943 $673 10.14562683405097943 $532 $676 forward 7 unknown #
coedge $-1 $545 $544 $351 $538 reversed $529 $-1 #
edge $-1 $677 -10.14562683405097943 $539 10.14562683405097943 $537 $678 forward 7 unknown #
vertex $-1 $353 $679 #
vertex $-1 $551 $680 #
straight-curve $-1 60.87362826784404035 0 11.53119356528071648 0 -0.484809606490402778 -0.8746197147644345637 I I #
coedge $-1 $531 $533 $354 $543 reversed $347 $-1 #
edge $-1 $546 -265.891903439436021 $549 265.8919034394360779 $542 $681 forward 7 unknown #
coedge $-1 $537 $355 $360 $552 forward $529 $-1 #
coedge $-1 $355 $537 $531 $672 reversed $529 $-1 #
vertex $-1 $356 $682 #
straight-curve $-1 50.72800143379306093 -103.6473516689149506 372.9924433851099934 -1 0 0 I I #
coedge $-1 $357 $532 $359 $551 reversed $215 $-1 #
vertex $-1 $543 $683 #
straight-curve $-1 50.72800143379306093 -361.4612498198292769 -92.11615810363424828 1 0 0 I I #
edge $-1 $362 -132.9459517197180105 $540 132.9459517197180105 $359 $684 forward 7 unknown #
edge $-1 $363 -132.9459517197180389 $539 132.9459517197180389 $360 $685 forward 7 unknown #
point $-1 60.87362826784404035 -361.4612498198292769 -92.11615810363424828 #
point $-1 60.87362826784404035 -103.6473516689149506 372.9924433851099934 #
coedge $-1 $555 $555 $-1 $686 reversed $365 $-1 #
vertex $-1 $367 $687 #
ellipse-curve $-1 46.37987564777121463 2.166440211997800347 13.37688991348092848 0 -0.8746197147644345637 0.484809606490402778 0.5 0 0 1 I I #
point $-1 46.87987564777121463 1.291820497233366005 13.86169951997133154 #
coedge $-1 $559 $559 $-1 $688 reversed $370 $-1 #
vertex $-1 $372 $689 #
ellipse-curve $-1 55.07612721981491433 2.166440211997800347 13.37688991348092848 0 -0.8746197147644345637 0.484809606490402778 0.5 0 0 1 I I #
point $-1 55.57612721981491433 1.291820497233366005 13.86169951997133154 #
face $-1 $-1 $390 $39 $-1 $690 reversed single #
loop $-1 $-1 $579 $375 #
plane-surface $-1 91.22368168097510477 12.62979870327110632 308.5389688473813976 0 -0.484809606490402778 -0.8746197147644345637 0 0.8746197147644345637 -0.484809606490402778 forward_v I I I I #
coedge $-1 $691 $577 $580 $692 forward $376 $-1 #
coedge $-1 $583 $378 $379 $571 reversed $233 $-1 #
coedge $-1 $577 $691 $378 $569 reversed $376 $-1 #
edge $-1 $584 -132.9459517197180105 $693 132.9459517197180105 $568 $694 forward 7 unknown #
coedge $-1 $380 $379 $691 $695 forward $149 $-1 #
edge $-1 $575 -10.14562683405098653 $693 10.14562683405098653 $567 $696 forward 7 unknown #
coedge $-1 $580 $579 $380 $573 reversed $564 $-1 #
edge $-1 $697 -10.14562683405098653 $574 10.14562683405098653 $572 $698 forward 7 unknown #
vertex $-1 $382 $699 #
vertex $-1 $586 $700 #
straight-curve $-1 101.3693085150260913 0 11.53119356528071648 0 -0.484809606490402778 -0.8746197147644345637 I I #
coedge $-1 $566 $568 $383 $578 reversed $376 $-1 #
edge $-1 $581 -265.891903439436021 $584 265.8919034394360779 $577 $701 forward 7 unknown #
coedge $-1 $572 $384 $389 $587 forward $564 $-1 #
coedge $-1 $384 $572 $566 $692 reversed $564 $-1 #
vertex $-1 $385 $702 #
straight-curve $-1 91.22368168097510477 -103.6473516689149506 372.9924433851099934 -1 0 0 I I #
coedge $-1 $386 $567 $388 $586 reversed $233 $-1 #
vertex $-1 $578 $703 #
straight-curve $-1 91.22368168097510477 -361.4612498198292769 -92.11615810363424828 1 0 0 I I #
edge $-1 $391 -132.9459517197180105 $575 132.9459517197180105 $388 $704 forward 7 unknown #
edge $-1 $392 -132.9459517197180389 $574 132.9459517197180389 $389 $705 forward 7 unknown #
point $-1 101.3693085150260913 -361.4612498198292769 -92.11615810363424828 #
point $-1 101.3693085150260913 -103.6473516689149506 372.9924433851099934 #
coedge $-1 $590 $590 $-1 $706 reversed $394 $-1 #
vertex $-1 $396 $707 #
ellipse-curve $-1 86.87555589495326558 2.166440211997800347 13.37688991348092848 0 -0.8746197147644345637 0.484809606490402778 0.5 0 0 1 I I #
point $-1 87.37555589495326558 1.291820497233366005 13.86169951997133154 #
coedge $-1 $594 $594 $-1 $708 reversed $399 $-1 #
vertex $-1 $401 $709 #
ellipse-curve $-1 95.57180746699695817 2.166440211997800347 13.37688991348092848 0 -0.8746197147644345637 0.484809606490402778 0.5 0 0 1 I I #
point $-1 96.07180746699695817 1.291820497233366005 13.86169951997133154 #
plane-surface $-1 132.9459517197180105 27.16553155436219313 8.096102737330973298 -1 0 0 0 0 1 forward_v I I I I #
coedge $-1 $409 $407 $411 $603 reversed $251 $-1 #
edge $-1 $422 -8.096102737330973298 $605 8.096102737330973298 $421 $710 forward 7 unknown #
vertex $-1 $603 $711 #
straight-curve $-1 0 0 8.096102737330973298 0 0 -1 I I #
edge $-1 $601 -27.16553155436219313 $605 27.16553155436219313 $599 $712 forward 7 unknown #
straight-curve $-1 66.47297585985900525 0 0 -1 0 0 I I #
vertex $-1 $414 $713 #
straight-curve $-1 66.47297585985900525 54.33106310872438627 0 1 0 0 I I #
point $-1 132.9459517197180105 54.33106310872438627 0 #
point $-1 132.9459517197180105 0 0 #
straight-curve $-1 0 27.16553155436219313 16.1922054746619466 0 -1 0 I I #
point $-1 0 54.33106310872438627 16.1922054746619466 #
point $-1 0 0 16.1922054746619466 #
straight-curve $-1 132.9459517197180105 0 8.096102737330973298 0 0 -1 I I #
straight-curve $-1 132.9459517197180105 54.33106310872438627 8.096102737330973298 0 0 -1 I I #
plane-surface $-1 0 27.16553155436219313 1.5 -1 0 0 0 0 1 forward_v I I I I #
coedge $-1 $436 $434 $438 $619 reversed $270 $-1 #
edge $-1 $449 -1.5 $621 1.5 $448 $714 forward 7 unknown #
vertex $-1 $619 $715 #
straight-curve $-1 -9.005731395050140975 0 1.5 0 0 -1 I I #
edge $-1 $617 -27.16553155436219313 $621 27.16553155436219313 $615 $716 forward 7 unknown #
straight-curve $-1 -4.502865697525070487 0 0 -1 0 0 I I #
vertex $-1 $441 $717 #
straight-curve $-1 -4.502865697525070487 54.33106310872438627 0 1 0 0 I I #
point $-1 0 54.33106310872438627 0 #
point $-1 0 0 0 #
straight-curve $-1 -9.005731395050140975 27.16553155436219313 3 0 -1 0 I I #
point $-1 -9.005731395050140975 54.33106310872438627 3 #
point $-1 -9.005731395050140975 0 3 #
straight-curve $-1 0 0 1.5 0 0 -1 I I #
straight-curve $-1 0 54.33106310872438627 1.5 0 0 -1 I I #
plane-surface $-1 60.87362826784404035 144.2679921549645314 123.5036870220102969 -1 0 0 0 0.8746197147644345637 0.484809606490402778 forward_v I I I I #
coedge $-1 $463 $461 $465 $635 reversed $289 $-1 #
edge $-1 $476 -132.9459517197180105 $637 132.9459517197180674 $475 $718 forward 7 unknown #
vertex $-1 $635 $719 #
straight-curve $-1 40.5823745997420815 15.36104307950736825 356.0579877663824391 0 -0.8746197147644345637 -0.484809606490402778 I I #
edge $-1 $633 -265.8919034394360779 $637 265.891903439436021 $631 $720 forward 7 unknown #
straight-curve $-1 50.72800143379306093 -100.9161072926787028 291.6045132286538433 -1 0 0 I I #
vertex $-1 $468 $721 #
straight-curve $-1 50.72800143379306093 156.8977908582356235 -173.5040882600903842 1 0 0 I I #
point $-1 60.87362826784404035 156.8977908582356235 -173.5040882600903842 #
point $-1 60.87362826784404035 -100.9161072926787028 291.6045132286538433 #
straight-curve $-1 40.5823745997420815 260.5451425271505741 187.9571615597388927 0 -0.484809606490402778 0.8746197147644345637 I I #
point $-1 40.5823745997420815 389.4520916026077657 -44.59713918463324944 #
point $-1 40.5823745997420815 131.6381934516934393 420.511462304110978 #
straight-curve $-1 60.87362826784404035 15.36104307950736825 356.0579877663824391 0 -0.8746197147644345637 -0.484809606490402778 I I #
straight-curve $-1 60.87362826784404035 273.174941230421723 -109.0506137223618168 0 -0.8746197147644345637 -0.484809606490402778 I I #
edge $-1 $722 1 $722 0 $485 $-1 forward 7 unknown #
point $-1 46.87987564777121463 52.16462289672658414 13.37688991348092671 #
edge $-1 $723 1 $723 0 $489 $-1 forward 7 unknown #
point $-1 55.57612721981491433 52.16462289672658414 13.37688991348092671 #
plane-surface $-1 101.3693085150260913 144.2679921549645314 123.5036870220102969 -1 0 0 0 0.8746197147644345637 0.484809606490402778 forward_v I I I I #
coedge $-1 $498 $496 $500 $655 reversed $318 $-1 #
edge $-1 $511 -132.9459517197180105 $657 132.9459517197180674 $510 $724 forward 7 unknown #
vertex $-1 $655 $725 #
straight-curve $-1 81.07805484692411824 15.36104307950736825 356.0579877663824391 0 -0.8746197147644345637 -0.484809606490402778 I I #
edge $-1 $653 -265.8919034394360779 $657 265.891903439436021 $651 $726 forward 7 unknown #
straight-curve $-1 91.22368168097510477 -100.9161072926787028 291.6045132286538433 -1 0 0 I I #
vertex $-1 $503 $727 #
straight-curve $-1 91.22368168097510477 156.8977908582356235 -173.5040882600903842 1 0 0 I I #
point $-1 101.3693085150260913 156.8977908582356235 -173.5040882600903842 #
point $-1 101.3693085150260913 -100.9161072926787028 291.6045132286538433 #
straight-curve $-1 81.07805484692411824 260.5451425271505741 187.9571615597388927 0 -0.484809606490402778 0.8746197147644345637 I I #
point $-1 81.07805484692411824 389.4520916026077657 -44.59713918463324944 #
point $-1 81.07805484692411824 131.6381934516934393 420.511462304110978 #
straight-curve $-1 101.3693085150260913 15.36104307950736825 356.0579877663824391 0 -0.8746197147644345637 -0.484809606490402778 I I #
straight-curve $-1 101.3693085150260913 273.174941230421723 -109.0506137223618168 0 -0.8746197147644345637 -0.484809606490402778 I I #
edge $-1 $728 1 $728 0 $520 $-1 forward 7 unknown #
point $-1 87.37555589495326558 52.16462289672658414 13.37688991348092671 #
edge $-1 $729 1 $729 0 $524 $-1 forward 7 unknown #
point $-1 96.07180746699695817 52.16462289672658414 13.37688991348092671 #
plane-surface $-1 60.87362826784404035 -116.2771503721860569 75.98466810300929808 -1 0 0 0 -0.8746197147644345637 0.484809606490402778 forward_v I I I I #
coedge $-1 $533 $531 $535 $675 reversed $347 $-1 #
edge $-1 $546 -132.9459517197180389 $677 132.9459517197180389 $545 $730 forward 7 unknown #
vertex $-1 $675 $731 #
straight-curve $-1 40.5823745997420815 -245.1840994476432343 -156.5696326413628299 0 0.8746197147644345637 -0.484809606490402778 I I #
edge $-1 $673 -265.891903439436021 $677 265.8919034394360779 $671 $732 forward 7 unknown #
straight-curve $-1 50.72800143379306093 -128.9069490754571632 -221.0231071790913688 -1 0 0 I I #
vertex $-1 $538 $733 #
straight-curve $-1 50.72800143379306093 128.9069490754571916 244.0854943096528586 1 0 0 I I #
point $-1 60.87362826784404035 128.9069490754571916 244.0854943096528586 #
point $-1 60.87362826784404035 -128.9069490754571632 -221.0231071790913688 #
straight-curve $-1 40.5823745997420815 -232.5543007443721137 140.4381426407378797 0 -0.484809606490402778 -0.8746197147644345637 I I #
point $-1 40.5823745997420815 -103.6473516689149506 372.9924433851099934 #
point $-1 40.5823745997420815 -361.4612498198292769 -92.11615810363424828 #
straight-curve $-1 60.87362826784404035 -245.1840994476432343 -156.5696326413628299 0 0.8746197147644345637 -0.484809606490402778 I I #
straight-curve $-1 60.87362826784404035 12.62979870327110632 308.5389688473813976 0 0.8746197147644345637 -0.484809606490402778 I I #
edge $-1 $734 1 $734 0 $555 $-1 forward 7 unknown #
point $-1 46.87987564777121463 2.166440211997800347 13.37688991348092848 #
edge $-1 $735 1 $735 0 $559 $-1 forward 7 unknown #
point $-1 55.57612721981491433 2.166440211997800347 13.37688991348092848 #
plane-surface $-1 101.3693085150260913 -116.2771503721860569 75.98466810300929808 -1 0 0 0 -0.8746197147644345637 0.484809606490402778 forward_v I I I I #
coedge $-1 $568 $566 $570 $695 reversed $376 $-1 #
edge $-1 $581 -132.9459517197180389 $697 132.9459517197180389 $580 $736 forward 7 unknown #
vertex $-1 $695 $737 #
straight-curve $-1 81.07805484692411824 -245.1840994476432343 -156.5696326413628299 0 0.8746197147644345637 -0.484809606490402778 I I #
edge $-1 $693 -265.891903439436021 $697 265.8919034394360779 $691 $738 forward 7 unknown #
straight-curve $-1 91.22368168097510477 -128.9069490754571632 -221.0231071790913688 -1 0 0 I I #
vertex $-1 $573 $739 #
straight-curve $-1 91.22368168097510477 128.9069490754571916 244.0854943096528586 1 0 0 I I #
point $-1 101.3693085150260913 128.9069490754571916 244.0854943096528586 #
point $-1 101.3693085150260913 -128.9069490754571632 -221.0231071790913688 #
straight-curve $-1 81.07805484692411824 -232.5543007443721137 140.4381426407378797 0 -0.484809606490402778 -0.8746197147644345637 I I #
point $-1 81.07805484692411824 -103.6473516689149506 372.9924433851099934 #
point $-1 81.07805484692411824 -361.4612498198292769 -92.11615810363424828 #
straight-curve $-1 101.3693085150260913 -245.1840994476432343 -156.5696326413628299 0 0.8746197147644345637 -0.484809606490402778 I I #
straight-curve $-1 101.3693085150260913 12.62979870327110632 308.5389688473813976 0 0.8746197147644345637 -0.484809606490402778 I I #
edge $-1 $740 1 $740 0 $590 $-1 forward 7 unknown #
point $-1 87.37555589495326558 2.166440211997800347 13.37688991348092848 #
edge $-1 $741 1 $741 0 $594 $-1 forward 7 unknown #
point $-1 96.07180746699695817 2.166440211997800347 13.37688991348092848 #
straight-curve $-1 0 54.33106310872438627 8.096102737330973298 0 0 -1 I I #
point $-1 0 0 0 #
straight-curve $-1 0 27.16553155436219313 0 0 1 0 I I #
point $-1 0 54.33106310872438627 0 #
straight-curve $-1 -9.005731395050140975 54.33106310872438627 1.5 0 0 -1 I I #
point $-1 -9.005731395050140975 0 0 #
straight-curve $-1 -9.005731395050140975 27.16553155436219313 0 0 1 0 I I #
point $-1 -9.005731395050140975 54.33106310872438627 0 #
straight-curve $-1 40.5823745997420815 273.174941230421723 -109.0506137223618168 0 -0.8746197147644345637 -0.484809606490402778 I I #
point $-1 40.5823745997420815 -100.9161072926787028 291.6045132286538433 #
straight-curve $-1 40.5823745997420815 27.99084178277847457 59.05021248428171532 0 0.484809606490402778 -0.8746197147644345637 I I #
point $-1 40.5823745997420815 156.8977908582356235 -173.5040882600903842 #
vertex $-1 $646 $742 #
vertex $-1 $648 $743 #
straight-curve $-1 81.07805484692411824 273.174941230421723 -109.0506137223618168 0 -0.8746197147644345637 -0.484809606490402778 I I #
point $-1 81.07805484692411824 -100.9161072926787028 291.6045132286538433 #
straight-curve $-1 81.07805484692411824 27.99084178277847457 59.05021248428171532 0 0.484809606490402778 -0.8746197147644345637 I I #
point $-1 81.07805484692411824 156.8977908582356235 -173.5040882600903842 #
vertex $-1 $666 $744 #
vertex $-1 $668 $745 #
straight-curve $-1 40.5823745997420815 12.62979870327110632 308.5389688473813976 0 0.8746197147644345637 -0.484809606490402778 I I #
point $-1 40.5823745997420815 -128.9069490754571632 -221.0231071790913688 #
straight-curve $-1 40.5823745997420815 0 11.53119356528071648 0 0.484809606490402778 0.8746197147644345637 I I #
point $-1 40.5823745997420815 128.9069490754571916 244.0854943096528586 #
vertex $-1 $686 $746 #
vertex $-1 $688 $747 #
straight-curve $-1 81.07805484692411824 12.62979870327110632 308.5389688473813976 0 0.8746197147644345637 -0.484809606490402778 I I #
point $-1 81.07805484692411824 -128.9069490754571632 -221.0231071790913688 #
straight-curve $-1 81.07805484692411824 0 11.53119356528071648 0 0.484809606490402778 0.8746197147644345637 I I #
point $-1 81.07805484692411824 128.9069490754571916 244.0854943096528586 #
vertex $-1 $706 $748 #
vertex $-1 $708 $749 #
point $-1 46.37987564777121463 51.72731303934436653 13.13448511023572607 #
point $-1 55.07612721981491433 51.72731303934436653 13.13448511023572607 #
point $-1 86.87555589495326558 51.72731303934436653 13.13448511023572607 #
point $-1 95.57180746699695817 51.72731303934436653 13.13448511023572607 #
point $-1 46.37987564777121463 2.603750069380017962 13.13448511023572784 #
point $-1 55.07612721981491433 2.603750069380017962 13.13448511023572784 #
point $-1 86.87555589495326558 2.603750069380017962 13.13448511023572784 #
point $-1 95.57180746699695817 2.603750069380017962 13.13448511023572784 #
End-of-ACIS-data 