300 0 4 0           
7 Unknown 11 ACIS 3.0 NT 24 Fri Oct 30 14:04:11 1998 
-1 9.9999999999999995e-007 1e-010 
body $4 $5 $-1 $6 #
body $7 $8 $-1 $9 #
body $10 $11 $-1 $12 #
body $13 $14 $-1 $15 #
display_attribute-st-attrib $-1 $16 $-1 $0 2 #
lump $-1 $-1 $17 $0 #
transform $-1 1 0 0 0 1 0 0 0 1 60.283822138126773 24.617994446555205 7.2180828225298166 1 rotate no_reflect no_shear #
display_attribute-st-attrib $-1 $18 $-1 $1 1 #
lump $-1 $-1 $19 $1 #
transform $-1 1 0 0 0 1 0 0 0 1 60.283822138126773 24.617994446555205 7.2180828225298166 1 rotate no_reflect no_shear #
display_attribute-st-attrib $-1 $20 $-1 $2 2 #
lump $-1 $-1 $21 $2 #
transform $-1 1 0 0 0 1 0 0 0 1 60.283822138126773 24.617994446555205 7.2180828225298166 1 rotate no_reflect no_shear #
display_attribute-st-attrib $-1 $22 $-1 $3 1 #
lump $-1 $-1 $23 $3 #
transform $-1 1 0 0 0 1 0 0 0 1 60.283822138126773 24.617994446555205 7.2180828225298166 1 rotate no_reflect no_shear #
id_attribute-st-attrib $-1 $-1 $4 $0 501 #
shell $-1 $-1 $-1 $24 $-1 $5 #
id_attribute-st-attrib $-1 $-1 $7 $1 509 #
shell $-1 $-1 $-1 $25 $-1 $8 #
id_attribute-st-attrib $-1 $-1 $10 $2 520 #
shell $-1 $-1 $-1 $26 $-1 $11 #
id_attribute-st-attrib $-1 $-1 $13 $3 527 #
shell $-1 $-1 $-1 $27 $-1 $14 #
face $-1 $28 $29 $17 $-1 $30 forward single #
face $-1 $31 $32 $19 $-1 $33 forward single #
face $-1 $34 $35 $21 $-1 $36 reversed single #
face $-1 $37 $38 $23 $-1 $39 forward single #
face $-1 $40 $41 $17 $-1 $42 reversed single #
loop $-1 $-1 $43 $24 #
plane-surface $-1 0 0 7.2180828225298166 0 0 1 1 0 0 forward_v I I I I #
face $-1 $44 $45 $19 $-1 $46 reversed single #
loop $-1 $-1 $47 $25 #
plane-surface $-1 0 -24.617994446555205 0 0 1 0 0 0 1 forward_v I I I I #
face $-1 $48 $49 $21 $-1 $50 reversed single #
loop $-1 $-1 $51 $26 #
plane-surface $-1 34.7341669496438 57.855806176991081 126.91937253128015 1 0 0 0 -0.6018150307709319 -0.79863550430605224 forward_v I I I I #
face $-1 $52 $53 $23 $-1 $54 forward single #
loop $-1 $55 $56 $27 #
cone-surface $-1 47.508994543885287 18.81456805241989 1.8832571262296822 0 -0.6018150307709319 -0.79863550430605224 1.5 0 0 1 I I 0 1 forward I I I I #
face $-1 $57 $58 $17 $-1 $59 reversed single #
loop $-1 $-1 $60 $28 #
plane-surface $-1 0 0 -7.2180828225298166 0 0 1 1 0 0 forward_v I I I I #
coedge $-1 $61 $62 $63 $64 forward $29 $-1 #
face $-1 $65 $66 $19 $-1 $67 reversed single #
loop $-1 $-1 $68 $31 #
plane-surface $-1 0 0 -7.2180828225298166 0 0 1 1 0 0 forward_v I I I I #
coedge $-1 $69 $70 $71 $72 forward $32 $-1 #
face $-1 $73 $74 $21 $-1 $75 forward single #
loop $-1 $-1 $76 $34 #
plane-surface $-1 47.508994543885287 -14.703614373101217 30.62977114172169 0 0.6018150307709319 0.79863550430605224 1 0 0 forward_v I I I I #
coedge $-1 $77 $78 $79 $80 reversed $35 $-1 #
face $-1 $-1 $81 $23 $-1 $82 forward single #
loop $-1 $83 $84 $37 #
cone-surface $-1 47.508994543885287 16.686405228679863 -0.94091027252366377 0 -0.6018150307709319 -0.79863550430605224 0.75 0 0 1 I I -0.70710678118654757 0.70710678118654757 forward I I I I #
loop $-1 $-1 $85 $27 #
coedge $-1 $56 $56 $86 $87 reversed $38 $-1 #
face $-1 $88 $89 $17 $-1 $90 reversed single #
loop $-1 $-1 $91 $40 #
plane-surface $-1 0 -24.617994446555205 0 0 1 0 0 0 1 forward_v I I I I #
coedge $-1 $92 $93 $94 $95 forward $41 $-1 #
coedge $-1 $96 $43 $97 $98 forward $29 $-1 #
coedge $-1 $43 $96 $99 $100 forward $29 $-1 #
coedge $-1 $101 $102 $43 $64 reversed $103 $-1 #
edge $-1 $104 $105 $63 $106 forward #
face $-1 $107 $108 $19 $-1 $109 forward single #
loop $-1 $-1 $110 $44 #
plane-surface $-1 60.283822138126773 0 0 -1 0 0 0 0 1 forward_v I I I I #
coedge $-1 $111 $112 $113 $114 forward $45 $-1 #
coedge $-1 $113 $47 $110 $115 reversed $32 $-1 #
coedge $-1 $47 $113 $116 $117 reversed $32 $-1 #
coedge $-1 $118 $119 $47 $72 reversed $108 $-1 #
edge $-1 $120 $121 $71 $122 forward #
face $-1 $123 $124 $21 $-1 $125 reversed single #
loop $-1 $-1 $79 $48 #
plane-surface $-1 0 0 7.2180828225298166 0 0 1 1 0 0 forward_v I I I I #
coedge $-1 $126 $127 $128 $129 reversed $49 $-1 #
coedge $-1 $78 $51 $130 $131 reversed $35 $-1 #
coedge $-1 $51 $77 $126 $132 reversed $35 $-1 #
coedge $-1 $128 $133 $51 $80 forward $74 $-1 #
edge $-1 $134 $135 $79 $136 forward #
loop $-1 $-1 $86 $52 #
plane-surface $-1 47.508994543885287 -14.703614373101217 30.62977114172169 0 0.6018150307709319 0.79863550430605224 1 0 0 forward_v I I I I #
loop $-1 $-1 $137 $37 #
coedge $-1 $84 $84 $85 $138 reversed $53 $-1 #
coedge $-1 $85 $85 $84 $138 forward $55 $-1 #
coedge $-1 $86 $86 $56 $87 forward $81 $-1 #
edge $-1 $139 $139 $86 $140 forward #
face $-1 $141 $142 $17 $-1 $143 reversed single #
loop $-1 $-1 $144 $57 #
plane-surface $-1 -60.283822138126773 0 0 1 0 0 0 0 -1 forward_v I I I I #
coedge $-1 $99 $145 $101 $146 reversed $58 $-1 #
coedge $-1 $147 $60 $145 $148 forward $41 $-1 #
coedge $-1 $60 $147 $149 $150 forward $41 $-1 #
coedge $-1 $102 $101 $60 $95 reversed $103 $-1 #
edge $-1 $151 $152 $94 $153 forward #
coedge $-1 $62 $61 $154 $155 forward $29 $-1 #
coedge $-1 $156 $157 $61 $98 reversed $142 $-1 #
edge $-1 $105 $158 $97 $159 forward #
coedge $-1 $160 $91 $62 $100 reversed $58 $-1 #
edge $-1 $161 $104 $99 $162 forward #
coedge $-1 $94 $63 $91 $146 forward $103 $-1 #
coedge $-1 $63 $94 $156 $163 reversed $103 $-1 #
loop $-1 $-1 $101 $141 #
vertex $-1 $64 $164 #
vertex $-1 $64 $165 #
straight-curve $-1 60.283822138126773 0 7.2180828225298166 0 1 0 I I #
face $-1 $166 $167 $19 $-1 $168 reversed single #
loop $-1 $-1 $119 $65 #
plane-surface $-1 0 -27.814862555765995 -3.9571139436261058 0 0 1 1 0 0 forward_v I I I I #
coedge $-1 $169 $170 $69 $115 forward $66 $-1 #
coedge $-1 $171 $68 $170 $172 forward $45 $-1 #
coedge $-1 $68 $171 $173 $174 forward $45 $-1 #
coedge $-1 $70 $69 $68 $114 reversed $32 $-1 #
edge $-1 $175 $176 $68 $177 forward #
edge $-1 $176 $121 $110 $178 forward #
coedge $-1 $173 $179 $70 $117 forward $180 $-1 #
edge $-1 $120 $175 $116 $181 forward #
coedge $-1 $182 $71 $179 $183 forward $108 $-1 #
coedge $-1 $71 $182 $169 $184 forward $108 $-1 #
vertex $-1 $117 $185 #
vertex $-1 $184 $186 #
straight-curve $-1 0 -24.617994446555205 -3.9571139436261058 1 0 0 I I #
face $-1 $-1 $187 $21 $-1 $188 reversed single #
loop $-1 $-1 $189 $73 #
plane-surface $-1 60.283822138126773 0 0 -1 0 0 0 0 1 forward_v I I I I #
coedge $-1 $190 $76 $78 $132 forward $49 $-1 #
coedge $-1 $76 $190 $189 $191 reversed $49 $-1 #
coedge $-1 $192 $79 $76 $129 forward $74 $-1 #
edge $-1 $135 $193 $128 $194 forward #
coedge $-1 $195 $196 $77 $131 forward $187 $-1 #
edge $-1 $197 $134 $130 $198 forward #
edge $-1 $135 $197 $78 $199 forward #
coedge $-1 $79 $192 $195 $200 forward $74 $-1 #
vertex $-1 $131 $201 #
vertex $-1 $80 $202 #
straight-curve $-1 34.7341669496438 28.92790308849554 7.2180828225298157 0 -1 0 I I #
coedge $-1 $137 $137 $-1 $203 reversed $83 $-1 #
edge $-1 $204 $204 $84 $205 forward #
vertex $-1 $87 $206 #
ellipse-curve $-1 47.508994543885287 20.491369603081729 4.1084478967535052 0 0.6018150307709319 0.79863550430605224 1.5 0 0 1 I I #
face $-1 $-1 $103 $17 $-1 $207 reversed single #
loop $-1 $-1 $156 $88 #
plane-surface $-1 0 24.617994446555205 0 0 -1 0 0 0 -1 forward_v I I I I #
coedge $-1 $208 $154 $157 $209 forward $89 $-1 #
coedge $-1 $91 $160 $92 $148 reversed $58 $-1 #
edge $-1 $104 $152 $101 $210 forward #
coedge $-1 $93 $92 $208 $211 forward $41 $-1 #
edge $-1 $152 $212 $145 $213 forward #
coedge $-1 $157 $156 $93 $150 reversed $142 $-1 #
edge $-1 $214 $151 $149 $215 forward #
vertex $-1 $95 $216 #
vertex $-1 $146 $217 #
straight-curve $-1 60.283822138126773 0 -7.2180828225298166 0 -1 0 I I #
coedge $-1 $144 $218 $96 $155 reversed $89 $-1 #
edge $-1 $158 $161 $154 $219 forward #
coedge $-1 $149 $97 $102 $163 forward $142 $-1 #
coedge $-1 $97 $149 $144 $209 reversed $142 $-1 #
vertex $-1 $98 $220 #
straight-curve $-1 0 24.617994446555205 7.2180828225298166 -1 0 0 I I #
coedge $-1 $145 $99 $218 $221 forward $58 $-1 #
vertex $-1 $155 $222 #
straight-curve $-1 0 -24.617994446555205 7.2180828225298166 1 0 0 I I #
edge $-1 $105 $151 $102 $223 forward #
point $-1 60.283822138126773 -24.617994446555205 7.2180828225298166 #
point $-1 60.283822138126773 24.617994446555205 7.2180828225298166 #
face $-1 $-1 $180 $19 $-1 $224 reversed single #
loop $-1 $-1 $225 $107 #
plane-surface $-1 0 -31.011730664976785 -5.5875983830779612 0 1 0 0 0 1 forward_v I I I I #
coedge $-1 $226 $110 $119 $184 reversed $66 $-1 #
coedge $-1 $110 $226 $111 $172 reversed $66 $-1 #
coedge $-1 $112 $111 $227 $228 forward $45 $-1 #
edge $-1 $176 $229 $170 $230 forward #
coedge $-1 $231 $116 $112 $174 reversed $180 $-1 #
edge $-1 $232 $175 $173 $233 forward #
vertex $-1 $117 $234 #
vertex $-1 $172 $235 #
straight-curve $-1 0 -24.617994446555205 -7.2180828225298166 1 0 0 I I #
straight-curve $-1 60.283822138126773 -24.617994446555205 0 0 0 1 I I #
coedge $-1 $116 $231 $118 $183 reversed $180 $-1 #
loop $-1 $-1 $116 $166 #
straight-curve $-1 -60.283822138126773 -24.617994446555205 0 0 0 -1 I I #
coedge $-1 $119 $118 $236 $237 forward $108 $-1 #
edge $-1 $120 $238 $179 $239 forward #
edge $-1 $240 $121 $169 $241 forward #
point $-1 -60.283822138126773 -24.617994446555205 -3.9571139436261058 #
point $-1 60.283822138126773 -24.617994446555205 -3.9571139436261058 #
loop $-1 $-1 $130 $123 #
plane-surface $-1 0 24.617994446555205 0 0 -1 0 0 0 -1 forward_v I I I I #
coedge $-1 $242 $243 $127 $191 forward $124 $-1 #
coedge $-1 $127 $126 $196 $244 reversed $49 $-1 #
edge $-1 $193 $245 $189 $246 forward #
coedge $-1 $133 $128 $243 $247 forward $74 $-1 #
vertex $-1 $247 $248 #
straight-curve $-1 23.754497271942643 16.364744759608261 7.2180828225298157 1 0 0 I I #
coedge $-1 $249 $130 $133 $200 reversed $187 $-1 #
coedge $-1 $130 $249 $190 $244 forward $187 $-1 #
vertex $-1 $131 $250 #
straight-curve $-1 34.7341669496438 24.617994446555205 63.459686265640073 0 0 1 I I #
straight-curve $-1 34.7341669496438 -14.703614373101217 30.62977114172169 0 0.79863550430605224 -0.6018150307709319 I I #
edge $-1 $251 $134 $195 $252 forward #
point $-1 34.7341669496438 24.617994446555205 7.2180828225298166 #
point $-1 34.7341669496438 16.364744759608257 7.2180828225298157 #
edge $-1 $253 $253 $137 $-1 forward #
vertex $-1 $138 $254 #
ellipse-curve $-1 47.508994543885287 17.137766501758062 -0.34193364429412454 0 0.6018150307709319 0.79863550430605224 1.5 0 0 1 I I #
point $-1 49.008994543885287 20.491369603081715 4.1084478967534883 #
plane-surface $-1 60.283822138126773 0 0 -1 0 0 0 0 1 forward_v I I I I #
coedge $-1 $218 $144 $147 $211 reversed $89 $-1 #
edge $-1 $158 $214 $157 $255 forward #
straight-curve $-1 60.283822138126773 -24.617994446555205 0 0 0 -1 I I #
edge $-1 $212 $214 $208 $256 forward #
vertex $-1 $211 $257 #
straight-curve $-1 0 -24.617994446555205 -7.2180828225298166 -1 0 0 I I #
vertex $-1 $150 $258 #
straight-curve $-1 0 24.617994446555205 -7.2180828225298166 1 0 0 I I #
point $-1 60.283822138126773 24.617994446555205 -7.2180828225298166 #
point $-1 60.283822138126773 -24.617994446555205 -7.2180828225298166 #
coedge $-1 $154 $208 $160 $221 reversed $89 $-1 #
straight-curve $-1 -60.283822138126773 0 7.2180828225298166 0 -1 0 I I #
point $-1 -60.283822138126773 24.617994446555205 7.2180828225298166 #
edge $-1 $161 $212 $218 $259 forward #
point $-1 -60.283822138126773 -24.617994446555205 7.2180828225298166 #
straight-curve $-1 60.283822138126773 24.617994446555205 0 0 0 -1 I I #
plane-surface $-1 -60.283822138126773 0 0 1 0 0 0 0 -1 forward_v I I I I #
coedge $-1 $227 $236 $231 $260 forward $167 $-1 #
coedge $-1 $170 $169 $261 $262 forward $66 $-1 #
coedge $-1 $261 $225 $171 $228 reversed $167 $-1 #
edge $-1 $229 $232 $227 $263 forward #
vertex $-1 $262 $264 #
straight-curve $-1 60.283822138126773 0 -7.2180828225298166 0 -1 0 I I #
coedge $-1 $179 $173 $225 $260 reversed $180 $-1 #
vertex $-1 $174 $265 #
straight-curve $-1 -60.283822138126773 0 -7.2180828225298166 0 1 0 I I #
point $-1 -60.283822138126773 -24.617994446555205 -7.2180828225298166 #
point $-1 60.283822138126773 -24.617994446555205 -7.2180828225298166 #
coedge $-1 $225 $261 $182 $237 reversed $167 $-1 #
edge $-1 $238 $240 $236 $266 forward #
vertex $-1 $183 $267 #
straight-curve $-1 -60.283822138126773 -27.814862555765995 -3.9571139436261058 0 -1 0 I I #
vertex $-1 $184 $268 #
straight-curve $-1 60.283822138126773 -27.814862555765995 -3.9571139436261058 0 1 0 I I #
coedge $-1 $243 $189 $249 $269 reversed $124 $-1 #
coedge $-1 $189 $242 $192 $247 reversed $124 $-1 #
edge $-1 $245 $197 $196 $270 forward #
vertex $-1 $191 $271 #
straight-curve $-1 60.283822138126773 -2.6536880218110168 21.549500156035414 0 0.79863550430605224 -0.6018150307709319 I I #
edge $-1 $193 $251 $243 $272 forward #
point $-1 60.283822138126773 16.364744759608257 7.2180828225298157 #
coedge $-1 $196 $195 $242 $269 forward $187 $-1 #
point $-1 34.7341669496438 24.617994446555201 0.99881297097718758 #
vertex $-1 $247 $273 #
straight-curve $-1 0 24.617994446555205 7.2180828225298166 -1 0 0 I I #
vertex $-1 $203 $274 #
point $-1 49.008994543885287 17.137766501758062 -0.34193364429412454 #
straight-curve $-1 -60.283822138126773 24.617994446555205 0 0 0 -1 I I #
straight-curve $-1 -60.283822138126773 0 -7.2180828225298166 0 1 0 I I #
point $-1 -60.283822138126773 -24.617994446555205 -7.2180828225298166 #
point $-1 -60.283822138126773 24.617994446555205 -7.2180828225298166 #
straight-curve $-1 -60.283822138126773 -24.617994446555205 0 0 0 -1 I I #
edge $-1 $238 $232 $231 $275 forward #
coedge $-1 $236 $227 $226 $262 reversed $167 $-1 #
edge $-1 $240 $229 $226 $276 forward #
straight-curve $-1 0 -31.011730664976785 -7.2180828225298166 -1 0 0 I I #
point $-1 60.283822138126773 -31.011730664976785 -7.2180828225298166 #
point $-1 -60.283822138126773 -31.011730664976785 -7.2180828225298166 #
straight-curve $-1 0 -31.011730664976785 -3.9571139436261058 1 0 0 I I #
point $-1 -60.283822138126773 -31.011730664976785 -3.9571139436261058 #
point $-1 60.283822138126773 -31.011730664976785 -3.9571139436261058 #
edge $-1 $251 $245 $242 $277 forward #
straight-curve $-1 23.754497271942643 24.617994446555201 0.99881297097718935 -1 0 0 I I #
point $-1 60.283822138126773 24.617994446555201 0.99881297097718758 #
straight-curve $-1 60.283822138126773 0 7.2180828225298166 0 1 0 I I #
point $-1 60.283822138126773 24.617994446555205 7.2180828225298166 #
point $-1 47.508994543885287 16.235043955601665 -1.539886900753203 #
straight-curve $-1 -60.283822138126773 -31.011730664976785 -5.5875983830779612 0 0 -1 I I #
straight-curve $-1 60.283822138126773 -31.011730664976785 -5.5875983830779612 0 0 -1 I I #
straight-curve $-1 60.283822138126773 24.617994446555205 0 0 0 -1 I I #
End-of-ACIS-data 