300 0 4 0           
7 Unknown 11 ACIS 3.0 NT 24 Fri Oct 30 14:04:11 1998 
-1 9.9999999999999995e-007 1e-010 
body $4 $5 $-1 $6 #
body $7 $8 $-1 $9 #
body $10 $11 $-1 $12 #
body $13 $14 $-1 $15 #
display_attribute-st-attrib $-1 $16 $-1 $0 1 #
lump $-1 $-1 $17 $0 #
transform $-1 1 0 0 0 1 0 0 0 1 60.283822138126773 24.617994446555205 7.2180828225298166 1 rotate no_reflect no_shear #
display_attribute-st-attrib $-1 $18 $-1 $1 1 #
lump $-1 $-1 $19 $1 #
transform $-1 1 0 0 0 1 0 0 0 1 60.283822138126773 24.617994446555205 7.2180828225298166 1 rotate no_reflect no_shear #
display_attribute-st-attrib $-1 $20 $-1 $2 1 #
lump $-1 $-1 $21 $2 #
transform $-1 1 0 0 0 1 0 0 0 1 60.283822138126773 24.617994446555205 7.2180828225298166 1 rotate no_reflect no_shear #
display_attribute-st-attrib $-1 $22 $-1 $3 1 #
lump $-1 $-1 $23 $3 #
transform $-1 1 0 0 0 1 0 0 0 1 60.283822138126773 24.617994446555205 7.2180828225298166 1 rotate no_reflect no_shear #
id_attribute-st-attrib $-1 $-1 $4 $0 499 #
shell $-1 $-1 $-1 $24 $-1 $5 #
id_attribute-st-attrib $-1 $-1 $7 $1 504 #
shell $-1 $-1 $-1 $25 $-1 $8 #
id_attribute-st-attrib $-1 $-1 $10 $2 515 #
shell $-1 $-1 $-1 $26 $-1 $11 #
id_attribute-st-attrib $-1 $-1 $13 $3 522 #
shell $-1 $-1 $-1 $27 $-1 $14 #
face $-1 $28 $29 $17 $-1 $30 forward single #
face $-1 $31 $32 $19 $-1 $33 forward single #
face $-1 $34 $35 $21 $-1 $36 forward single #
face $-1 $37 $38 $23 $-1 $39 reversed single #
face $-1 $40 $41 $17 $-1 $42 reversed single #
loop $-1 $-1 $43 $24 #
plane-surface $-1 0 0 7.2180828225298166 0 0 1 1 0 0 forward_v I I I I #
face $-1 $44 $45 $19 $-1 $46 reversed single #
loop $-1 $-1 $47 $25 #
plane-surface $-1 0 -27.814862555765995 -3.9571139436261058 0 0 1 1 0 0 forward_v I I I I #
face $-1 $48 $49 $21 $-1 $50 forward single #
loop $-1 $-1 $51 $26 #
plane-surface $-1 34.7341669496438 57.855806176991081 126.91937253128015 1 0 0 0 -0.6018150307709319 -0.79863550430605224 forward_v I I I I #
face $-1 $52 $53 $23 $-1 $54 reversed single #
loop $-1 $55 $56 $27 #
cone-surface $-1 47.508994543885287 18.81456805241989 1.8832571262296822 0 -0.6018150307709319 -0.79863550430605224 1.5 0 0 1 I I 0 1 forward I I I I #
face $-1 $57 $58 $17 $-1 $59 reversed single #
loop $-1 $-1 $60 $28 #
plane-surface $-1 0 0 -7.2180828225298166 0 0 1 1 0 0 forward_v I I I I #
coedge $-1 $61 $62 $63 $64 forward $29 $-1 #
face $-1 $65 $66 $19 $-1 $67 forward single #
loop $-1 $-1 $68 $31 #
plane-surface $-1 0 -31.011730664976785 -5.5875983830779612 0 1 0 0 0 1 forward_v I I I I #
coedge $-1 $69 $70 $71 $72 forward $32 $-1 #
face $-1 $73 $74 $21 $-1 $75 forward single #
loop $-1 $-1 $76 $34 #
plane-surface $-1 47.508994543885287 -14.703614373101217 30.62977114172169 0 0.6018150307709319 0.79863550430605224 1 0 0 forward_v I I I I #
coedge $-1 $77 $78 $79 $80 reversed $35 $-1 #
face $-1 $81 $82 $23 $-1 $83 forward single #
loop $-1 $84 $85 $37 #
cone-surface $-1 47.508994543885287 16.686405228679863 -0.94091027252366377 0 -0.6018150307709319 -0.79863550430605224 0.75 0 0 1 I I -0.70710678118654757 0.70710678118654757 forward I I I I #
loop $-1 $-1 $86 $27 #
coedge $-1 $56 $56 $87 $88 reversed $38 $-1 #
face $-1 $89 $90 $17 $-1 $91 reversed single #
loop $-1 $-1 $92 $40 #
plane-surface $-1 0 -24.617994446555205 0 0 1 0 0 0 1 forward_v I I I I #
coedge $-1 $93 $94 $95 $96 forward $41 $-1 #
coedge $-1 $97 $43 $98 $99 forward $29 $-1 #
coedge $-1 $43 $97 $100 $101 forward $29 $-1 #
coedge $-1 $102 $103 $43 $64 reversed $104 $-1 #
edge $-1 $105 $106 $63 $107 forward #
face $-1 $108 $109 $19 $-1 $110 reversed single #
loop $-1 $-1 $111 $44 #
plane-surface $-1 0 0 7.2180828225298166 0 0 1 1 0 0 forward_v I I I I #
coedge $-1 $112 $113 $114 $115 forward $45 $-1 #
coedge $-1 $116 $47 $117 $118 reversed $32 $-1 #
coedge $-1 $47 $116 $113 $119 forward $32 $-1 #
coedge $-1 $120 $121 $47 $72 reversed $122 $-1 #
edge $-1 $123 $124 $71 $125 forward #
face $-1 $126 $127 $21 $-1 $128 reversed single #
loop $-1 $-1 $129 $48 #
plane-surface $-1 0 0 7.2180828225298166 0 0 1 1 0 0 forward_v I I I I #
coedge $-1 $130 $131 $129 $132 reversed $49 $-1 #
coedge $-1 $78 $51 $131 $133 forward $35 $-1 #
coedge $-1 $51 $77 $134 $135 reversed $35 $-1 #
coedge $-1 $136 $129 $51 $80 forward $74 $-1 #
edge $-1 $137 $138 $79 $139 forward #
face $-1 $140 $141 $23 $-1 $142 forward single #
loop $-1 $-1 $143 $52 #
plane-surface $-1 34.7341669496438 57.855806176991081 126.91937253128015 1 0 0 0 -0.6018150307709319 -0.79863550430605224 forward_v I I I I #
loop $-1 $-1 $144 $37 #
coedge $-1 $85 $85 $86 $145 forward $53 $-1 #
coedge $-1 $86 $86 $85 $145 reversed $55 $-1 #
coedge $-1 $87 $87 $56 $88 forward $141 $-1 #
edge $-1 $146 $146 $87 $147 forward #
face $-1 $148 $149 $17 $-1 $150 reversed single #
loop $-1 $-1 $151 $57 #
plane-surface $-1 -60.283822138126773 0 0 1 0 0 0 0 -1 forward_v I I I I #
coedge $-1 $152 $100 $153 $154 forward $58 $-1 #
coedge $-1 $155 $60 $152 $156 forward $41 $-1 #
coedge $-1 $60 $155 $157 $158 forward $41 $-1 #
coedge $-1 $103 $102 $60 $96 reversed $104 $-1 #
edge $-1 $159 $160 $95 $161 forward #
coedge $-1 $62 $61 $162 $163 forward $29 $-1 #
coedge $-1 $164 $165 $61 $99 reversed $149 $-1 #
edge $-1 $106 $166 $98 $167 forward #
coedge $-1 $92 $168 $62 $101 reversed $58 $-1 #
edge $-1 $169 $105 $100 $170 forward #
coedge $-1 $95 $63 $168 $171 forward $104 $-1 #
coedge $-1 $63 $95 $164 $172 reversed $104 $-1 #
loop $-1 $-1 $102 $148 #
vertex $-1 $64 $173 #
vertex $-1 $64 $174 #
straight-curve $-1 60.283822138126773 0 7.2180828225298166 0 1 0 I I #
face $-1 $175 $176 $19 $-1 $177 reversed single #
loop $-1 $-1 $178 $65 #
plane-surface $-1 0 0 -7.2180828225298166 0 0 1 1 0 0 forward_v I I I I #
coedge $-1 $179 $180 $181 $182 forward $66 $-1 #
coedge $-1 $183 $68 $184 $185 reversed $45 $-1 #
coedge $-1 $68 $183 $70 $119 reversed $45 $-1 #
coedge $-1 $186 $187 $68 $115 reversed $188 $-1 #
edge $-1 $189 $190 $114 $191 forward #
coedge $-1 $70 $69 $186 $192 forward $32 $-1 #
coedge $-1 $193 $194 $69 $118 forward $176 $-1 #
edge $-1 $195 $124 $117 $196 forward #
edge $-1 $189 $123 $113 $197 forward #
coedge $-1 $198 $71 $183 $199 forward $122 $-1 #
coedge $-1 $71 $181 $193 $200 forward $122 $-1 #
loop $-1 $-1 $121 $201 #
vertex $-1 $72 $202 #
vertex $-1 $72 $203 #
straight-curve $-1 60.283822138126773 -27.814862555765995 -3.9571139436261058 0 1 0 I I #
face $-1 $204 $205 $21 $-1 $206 forward single #
loop $-1 $-1 $134 $73 #
plane-surface $-1 0 24.617994446555205 0 0 -1 0 0 0 -1 forward_v I I I I #
coedge $-1 $79 $207 $76 $132 forward $74 $-1 #
coedge $-1 $208 $76 $209 $210 reversed $49 $-1 #
coedge $-1 $76 $208 $77 $133 reversed $49 $-1 #
edge $-1 $211 $137 $129 $212 forward #
edge $-1 $137 $213 $77 $214 forward #
coedge $-1 $215 $216 $78 $135 forward $127 $-1 #
edge $-1 $138 $213 $134 $217 forward #
coedge $-1 $218 $79 $216 $219 forward $74 $-1 #
vertex $-1 $132 $220 #
vertex $-1 $219 $221 #
straight-curve $-1 34.7341669496438 28.92790308849554 7.2180828225298157 0 1 0 I I #
face $-1 $222 $223 $23 $-1 $224 forward single #
loop $-1 $225 $87 $81 #
plane-surface $-1 47.508994543885287 -14.703614373101217 30.62977114172169 0 0.6018150307709319 0.79863550430605224 1 0 0 forward_v I I I I #
coedge $-1 $226 $227 $228 $229 reversed $82 $-1 #
coedge $-1 $144 $144 $-1 $230 forward $84 $-1 #
edge $-1 $231 $231 $85 $232 forward #
vertex $-1 $88 $233 #
ellipse-curve $-1 47.508994543885287 20.491369603081729 4.1084478967535052 0 -0.6018150307709319 -0.79863550430605224 1.5 0 0 1 I I #
face $-1 $-1 $104 $17 $-1 $234 reversed single #
loop $-1 $-1 $164 $89 #
plane-surface $-1 0 24.617994446555205 0 0 -1 0 0 0 -1 forward_v I I I I #
coedge $-1 $235 $162 $165 $236 forward $90 $-1 #
coedge $-1 $168 $92 $93 $156 reversed $58 $-1 #
coedge $-1 $162 $235 $92 $154 reversed $90 $-1 #
edge $-1 $169 $237 $153 $238 forward #
coedge $-1 $94 $93 $235 $239 forward $41 $-1 #
edge $-1 $160 $237 $152 $240 forward #
coedge $-1 $165 $164 $94 $158 reversed $149 $-1 #
edge $-1 $241 $159 $157 $242 forward #
vertex $-1 $96 $243 #
vertex $-1 $171 $244 #
straight-curve $-1 60.283822138126773 0 -7.2180828225298166 0 -1 0 I I #
coedge $-1 $151 $153 $97 $163 reversed $90 $-1 #
edge $-1 $166 $169 $162 $245 forward #
coedge $-1 $157 $98 $103 $172 forward $149 $-1 #
coedge $-1 $98 $157 $151 $236 reversed $149 $-1 #
vertex $-1 $99 $246 #
straight-curve $-1 0 24.617994446555205 7.2180828225298166 -1 0 0 I I #
coedge $-1 $100 $152 $102 $171 reversed $58 $-1 #
vertex $-1 $163 $247 #
straight-curve $-1 0 -24.617994446555205 7.2180828225298166 1 0 0 I I #
edge $-1 $105 $160 $102 $248 forward #
edge $-1 $106 $159 $103 $249 forward #
point $-1 60.283822138126773 -24.617994446555205 7.2180828225298166 #
point $-1 60.283822138126773 24.617994446555205 7.2180828225298166 #
face $-1 $250 $188 $19 $-1 $251 reversed single #
loop $-1 $-1 $117 $108 #
plane-surface $-1 0 -24.617994446555205 0 0 1 0 0 0 1 forward_v I I I I #
coedge $-1 $184 $252 $198 $253 forward $109 $-1 #
coedge $-1 $254 $111 $255 $256 forward $66 $-1 #
coedge $-1 $111 $254 $257 $258 forward $66 $-1 #
coedge $-1 $121 $259 $111 $182 reversed $122 $-1 #
edge $-1 $260 $261 $181 $262 forward #
coedge $-1 $113 $112 $120 $199 reversed $45 $-1 #
coedge $-1 $263 $178 $112 $185 forward $109 $-1 #
edge $-1 $264 $190 $112 $265 forward #
coedge $-1 $266 $114 $116 $192 reversed $188 $-1 #
coedge $-1 $114 $267 $263 $268 reversed $188 $-1 #
loop $-1 $-1 $267 $175 #
vertex $-1 $192 $269 #
vertex $-1 $268 $270 #
straight-curve $-1 -60.283822138126773 -31.011730664976785 -5.5875983830779612 0 0 -1 I I #
edge $-1 $195 $189 $186 $271 forward #
coedge $-1 $257 $117 $121 $200 reversed $176 $-1 #
coedge $-1 $117 $257 $266 $272 forward $176 $-1 #
vertex $-1 $272 $273 #
straight-curve $-1 0 -24.617994446555205 -3.9571139436261058 1 0 0 I I #
straight-curve $-1 0 -31.011730664976785 -3.9571139436261058 1 0 0 I I #
coedge $-1 $259 $120 $178 $253 reversed $122 $-1 #
edge $-1 $123 $264 $120 $274 forward #
edge $-1 $260 $124 $121 $275 forward #
face $-1 $-1 $122 $19 $-1 $276 reversed single #
point $-1 60.283822138126773 -31.011730664976785 -3.9571139436261058 #
point $-1 60.283822138126773 -24.617994446555205 -3.9571139436261058 #
face $-1 $277 $278 $21 $-1 $279 reversed single #
loop $-1 $-1 $280 $126 #
plane-surface $-1 0 -27.814862555765995 -3.9571139436261058 0 0 1 1 0 0 forward_v I I I I #
coedge $-1 $129 $281 $282 $283 forward $74 $-1 #
coedge $-1 $131 $130 $215 $284 reversed $49 $-1 #
coedge $-1 $282 $285 $130 $210 forward $286 $-1 #
edge $-1 $287 $211 $209 $288 forward #
vertex $-1 $210 $289 #
straight-curve $-1 23.754497271942643 16.364744759608261 7.2180828225298157 -1 0 0 I I #
vertex $-1 $284 $290 #
straight-curve $-1 34.7341669496438 -14.703614373101217 30.62977114172169 0 0.79863550430605224 -0.6018150307709319 I I #
coedge $-1 $291 $134 $208 $284 forward $127 $-1 #
coedge $-1 $134 $292 $136 $219 reversed $127 $-1 #
straight-curve $-1 34.7341669496438 24.617994446555205 63.459686265640073 0 0 -1 I I #
coedge $-1 $281 $136 $293 $294 forward $74 $-1 #
edge $-1 $138 $295 $216 $296 forward #
point $-1 34.7341669496438 16.364744759608257 7.2180828225298157 #
point $-1 34.7341669496438 24.617994446555205 7.2180828225298166 #
face $-1 $297 $298 $23 $-1 $299 reversed single #
loop $-1 $-1 $300 $140 #
plane-surface $-1 0 0 7.2180828225298166 0 0 1 1 0 0 forward_v I I I I #
loop $-1 $-1 $301 $81 #
coedge $-1 $227 $143 $302 $303 forward $82 $-1 #
coedge $-1 $143 $226 $304 $305 reversed $82 $-1 #
coedge $-1 $306 $300 $143 $229 forward $223 $-1 #
edge $-1 $307 $308 $228 $309 forward #
edge $-1 $310 $310 $144 $-1 forward #
vertex $-1 $145 $311 #
ellipse-curve $-1 47.508994543885287 17.137766501758062 -0.34193364429412454 0 0.6018150307709319 0.79863550430605224 1.5 0 0 1 I I #
point $-1 49.008994543885287 20.491369603081715 4.1084478967534883 #
plane-surface $-1 60.283822138126773 0 0 -1 0 0 0 0 1 forward_v I I I I #
coedge $-1 $153 $151 $155 $239 reversed $90 $-1 #
edge $-1 $166 $241 $165 $312 forward #
vertex $-1 $239 $313 #
straight-curve $-1 -60.283822138126773 -24.617994446555205 0 0 0 -1 I I #
edge $-1 $237 $241 $235 $314 forward #
straight-curve $-1 0 -24.617994446555205 -7.2180828225298166 -1 0 0 I I #
vertex $-1 $158 $315 #
straight-curve $-1 0 24.617994446555205 -7.2180828225298166 1 0 0 I I #
point $-1 60.283822138126773 24.617994446555205 -7.2180828225298166 #
point $-1 60.283822138126773 -24.617994446555205 -7.2180828225298166 #
straight-curve $-1 -60.283822138126773 0 7.2180828225298166 0 -1 0 I I #
point $-1 -60.283822138126773 24.617994446555205 7.2180828225298166 #
point $-1 -60.283822138126773 -24.617994446555205 7.2180828225298166 #
straight-curve $-1 60.283822138126773 -24.617994446555205 0 0 0 -1 I I #
straight-curve $-1 60.283822138126773 24.617994446555205 0 0 0 -1 I I #
face $-1 $201 $316 $19 $-1 $317 reversed single #
plane-surface $-1 -60.283822138126773 0 0 1 0 0 0 0 -1 forward_v I I I I #
coedge $-1 $178 $263 $318 $319 forward $109 $-1 #
edge $-1 $320 $264 $198 $321 forward #
coedge $-1 $180 $179 $322 $323 forward $66 $-1 #
coedge $-1 $324 $325 $179 $256 reversed $316 $-1 #
edge $-1 $261 $326 $255 $327 forward #
coedge $-1 $194 $193 $180 $258 reversed $176 $-1 #
edge $-1 $328 $260 $257 $329 forward #
coedge $-1 $181 $198 $324 $330 reversed $122 $-1 #
vertex $-1 $182 $331 #
vertex $-1 $182 $332 #
straight-curve $-1 60.283822138126773 0 7.2180828225298166 0 1 0 I I #
coedge $-1 $252 $184 $187 $268 forward $109 $-1 #
vertex $-1 $199 $333 #
straight-curve $-1 0 -31.011730664976785 -7.2180828225298166 -1 0 0 I I #
coedge $-1 $322 $186 $194 $272 reversed $188 $-1 #
coedge $-1 $187 $322 $325 $334 forward $188 $-1 #
edge $-1 $190 $335 $187 $336 forward #
point $-1 -60.283822138126773 -31.011730664976785 -3.9571139436261058 #
point $-1 -60.283822138126773 -31.011730664976785 -7.2180828225298166 #
straight-curve $-1 -60.283822138126773 -27.814862555765995 -3.9571139436261058 0 -1 0 I I #
edge $-1 $328 $195 $266 $337 forward #
point $-1 -60.283822138126773 -24.617994446555205 -3.9571139436261058 #
straight-curve $-1 60.283822138126773 -31.011730664976785 -5.5875983830779612 0 0 -1 I I #
straight-curve $-1 60.283822138126773 -24.617994446555205 0 0 0 -1 I I #
plane-surface $-1 60.283822138126773 0 0 -1 0 0 0 0 1 forward_v I I I I #
face $-1 $338 $339 $21 $-1 $340 reversed single #
loop $-1 $-1 $341 $204 #
plane-surface $-1 0 -31.011730664976785 -5.5875983830779612 0 1 0 0 0 1 forward_v I I I I #
coedge $-1 $342 $343 $344 $345 forward $205 $-1 #
coedge $-1 $207 $218 $346 $347 forward $74 $-1 #
coedge $-1 $348 $209 $207 $283 reversed $286 $-1 #
edge $-1 $349 $211 $282 $350 forward #
edge $-1 $213 $287 $215 $351 forward #
coedge $-1 $209 $352 $291 $353 reversed $286 $-1 #
loop $-1 $-1 $209 $354 #
vertex $-1 $353 $355 #
straight-curve $-1 60.283822138126773 -2.6536880218110168 21.549500156035414 0 -0.79863550430605224 0.6018150307709319 I I #
point $-1 60.283822138126773 16.364744759608257 7.2180828225298157 #
point $-1 34.7341669496438 24.617994446555201 0.99881297097718758 #
coedge $-1 $356 $215 $285 $353 forward $127 $-1 #
coedge $-1 $216 $356 $357 $358 reversed $127 $-1 #
coedge $-1 $357 $359 $218 $294 reversed $360 $-1 #
edge $-1 $295 $361 $293 $362 forward #
vertex $-1 $219 $363 #
straight-curve $-1 0 24.617994446555205 7.2180828225298166 -1 0 0 I I #
face $-1 $364 $365 $23 $-1 $366 forward single #
loop $-1 $-1 $304 $222 #
plane-surface $-1 0 24.617994446555205 0 0 -1 0 0 0 -1 forward_v I I I I #
coedge $-1 $228 $367 $301 $368 forward $223 $-1 #
coedge $-1 $369 $302 $300 $368 reversed $225 $-1 #
coedge $-1 $301 $370 $226 $303 reversed $225 $-1 #
edge $-1 $307 $371 $226 $372 forward #
coedge $-1 $373 $374 $227 $305 forward $298 $-1 #
edge $-1 $308 $371 $304 $375 forward #
coedge $-1 $376 $228 $374 $377 forward $223 $-1 #
vertex $-1 $368 $378 #
vertex $-1 $377 $379 #
straight-curve $-1 34.7341669496438 28.92790308849554 7.2180828225298157 0 1 0 I I #
vertex $-1 $230 $380 #
point $-1 49.008994543885287 17.137766501758062 -0.34193364429412454 #
straight-curve $-1 -60.283822138126773 24.617994446555205 0 0 0 -1 I I #
point $-1 -60.283822138126773 -24.617994446555205 -7.2180828225298166 #
straight-curve $-1 -60.283822138126773 0 -7.2180828225298166 0 1 0 I I #
point $-1 -60.283822138126773 24.617994446555205 -7.2180828225298166 #
loop $-1 $-1 $324 $250 #
plane-surface $-1 0 24.617994446555205 0 0 -1 0 0 0 -1 forward_v I I I I #
coedge $-1 $325 $324 $252 $319 reversed $316 $-1 #
edge $-1 $335 $320 $318 $381 forward #
vertex $-1 $253 $382 #
straight-curve $-1 60.283822138126773 0 -7.2180828225298166 0 -1 0 I I #
coedge $-1 $267 $266 $254 $323 reversed $188 $-1 #
edge $-1 $326 $328 $322 $383 forward #
coedge $-1 $318 $255 $259 $330 forward $316 $-1 #
coedge $-1 $255 $318 $267 $334 reversed $316 $-1 #
vertex $-1 $256 $384 #
straight-curve $-1 0 24.617994446555205 7.2180828225298166 -1 0 0 I I #
vertex $-1 $323 $385 #
straight-curve $-1 0 -24.617994446555205 7.2180828225298166 1 0 0 I I #
edge $-1 $261 $320 $259 $386 forward #
point $-1 60.283822138126773 -24.617994446555205 7.2180828225298166 #
point $-1 60.283822138126773 24.617994446555205 7.2180828225298166 #
point $-1 60.283822138126773 -31.011730664976785 -7.2180828225298166 #
edge $-1 $326 $335 $325 $387 forward #
vertex $-1 $319 $388 #
straight-curve $-1 -60.283822138126773 0 -7.2180828225298166 0 1 0 I I #
straight-curve $-1 -60.283822138126773 -24.617994446555205 0 0 0 -1 I I #
face $-1 $389 $390 $21 $-1 $391 reversed single #
loop $-1 $-1 $392 $277 #
plane-surface $-1 0 0 -7.2180828225298166 0 0 1 1 0 0 forward_v I I I I #
coedge $-1 $393 $394 $395 $396 forward $278 $-1 #
coedge $-1 $397 $280 $398 $399 reversed $205 $-1 #
coedge $-1 $280 $397 $394 $400 forward $205 $-1 #
coedge $-1 $401 $348 $280 $345 reversed $286 $-1 #
edge $-1 $402 $403 $344 $404 forward #
coedge $-1 $405 $406 $281 $347 reversed $390 $-1 #
edge $-1 $361 $349 $346 $407 forward #
coedge $-1 $344 $282 $406 $408 forward $286 $-1 #
vertex $-1 $283 $409 #
straight-curve $-1 60.283822138126773 0 7.2180828225298166 0 1 0 I I #
straight-curve $-1 23.754497271942643 24.617994446555201 0.99881297097718935 1 0 0 I I #
coedge $-1 $285 $401 $392 $410 reversed $286 $-1 #
edge $-1 $287 $411 $285 $412 forward #
face $-1 $-1 $286 $21 $-1 $413 reversed single #
point $-1 60.283822138126773 24.617994446555201 0.99881297097718758 #
coedge $-1 $292 $291 $414 $415 reversed $127 $-1 #
coedge $-1 $416 $293 $292 $358 forward $360 $-1 #
edge $-1 $295 $417 $292 $418 forward #
coedge $-1 $293 $419 $405 $420 reversed $360 $-1 #
loop $-1 $-1 $357 $389 #
vertex $-1 $294 $421 #
straight-curve $-1 -60.283822138126773 0 7.2180828225298166 0 -1 0 I I #
point $-1 -60.283822138126773 24.617994446555205 7.2180828225298166 #
face $-1 $422 $423 $23 $-1 $424 reversed single #
loop $-1 $-1 $425 $297 #
plane-surface $-1 0 -27.814862555765995 -3.9571139436261058 0 0 1 1 0 0 forward_v I I I I #
coedge $-1 $300 $426 $427 $428 forward $223 $-1 #
edge $-1 $429 $307 $300 $430 forward #
coedge $-1 $370 $301 $431 $432 reversed $225 $-1 #
coedge $-1 $302 $369 $373 $433 reversed $225 $-1 #
vertex $-1 $433 $434 #
straight-curve $-1 34.7341669496438 -14.703614373101217 30.62977114172169 0 0.79863550430605224 -0.6018150307709319 I I #
coedge $-1 $435 $304 $370 $433 forward $298 $-1 #
coedge $-1 $304 $436 $306 $377 reversed $298 $-1 #
straight-curve $-1 34.7341669496438 24.617994446555205 63.459686265640073 0 0 -1 I I #
coedge $-1 $426 $306 $437 $438 forward $223 $-1 #
edge $-1 $308 $439 $374 $440 forward #
point $-1 34.7341669496438 16.364744759608257 7.2180828225298157 #
point $-1 34.7341669496438 24.617994446555205 7.2180828225298166 #
point $-1 47.508994543885287 16.235043955601665 -1.539886900753203 #
straight-curve $-1 0 24.617994446555205 -7.2180828225298166 1 0 0 I I #
point $-1 60.283822138126773 24.617994446555205 -7.2180828225298166 #
straight-curve $-1 -60.283822138126773 0 7.2180828225298166 0 -1 0 I I #
point $-1 -60.283822138126773 24.617994446555205 7.2180828225298166 #
point $-1 -60.283822138126773 -24.617994446555205 7.2180828225298166 #
straight-curve $-1 60.283822138126773 24.617994446555205 0 0 0 -1 I I #
straight-curve $-1 -60.283822138126773 24.617994446555205 0 0 0 -1 I I #
point $-1 -60.283822138126773 24.617994446555205 -7.2180828225298166 #
face $-1 $354 $360 $21 $-1 $441 reversed single #
loop $-1 $-1 $398 $338 #
plane-surface $-1 0 -24.617994446555205 0 0 1 0 0 0 1 forward_v I I I I #
coedge $-1 $442 $414 $352 $410 forward $339 $-1 #
coedge $-1 $443 $341 $442 $444 reversed $278 $-1 #
coedge $-1 $341 $443 $343 $400 reversed $278 $-1 #
coedge $-1 $419 $416 $341 $396 reversed $360 $-1 #
edge $-1 $445 $446 $395 $447 forward #
coedge $-1 $343 $342 $419 $448 forward $205 $-1 #
coedge $-1 $406 $405 $342 $399 forward $390 $-1 #
edge $-1 $449 $403 $398 $450 forward #
edge $-1 $445 $402 $394 $451 forward #
coedge $-1 $352 $344 $443 $452 forward $286 $-1 #
vertex $-1 $345 $453 #
vertex $-1 $345 $454 #
straight-curve $-1 60.283822138126773 -27.814862555765995 -3.9571139436261058 0 1 0 I I #
coedge $-1 $398 $346 $359 $420 forward $390 $-1 #
coedge $-1 $346 $398 $348 $408 reversed $390 $-1 #
straight-curve $-1 0 -24.617994446555205 7.2180828225298166 1 0 0 I I #
edge $-1 $349 $403 $348 $455 forward #
point $-1 60.283822138126773 -24.617994446555205 7.2180828225298166 #
edge $-1 $411 $456 $352 $457 forward #
vertex $-1 $410 $458 #
straight-curve $-1 60.283822138126773 24.617994446555205 0 0 0 -1 I I #
plane-surface $-1 60.283822138126773 0 0 -1 0 0 0 0 1 forward_v I I I I #
coedge $-1 $392 $459 $356 $415 forward $339 $-1 #
edge $-1 $417 $411 $356 $460 forward #
coedge $-1 $395 $357 $459 $461 reversed $360 $-1 #
vertex $-1 $415 $462 #
straight-curve $-1 -60.283822138126773 24.617994446555205 0 0 0 -1 I I #
coedge $-1 $359 $395 $397 $448 reversed $360 $-1 #
edge $-1 $361 $449 $359 $463 forward #
point $-1 -60.283822138126773 -24.617994446555205 7.2180828225298166 #
face $-1 $464 $465 $23 $-1 $466 reversed single #
loop $-1 $-1 $467 $364 #
plane-surface $-1 0 -31.011730664976785 -5.5875983830779612 0 1 0 0 0 1 forward_v I I I I #
coedge $-1 $468 $469 $470 $471 forward $365 $-1 #
coedge $-1 $367 $376 $472 $473 forward $223 $-1 #
coedge $-1 $474 $431 $367 $428 reversed $475 $-1 #
edge $-1 $476 $429 $427 $477 forward #
vertex $-1 $432 $478 #
straight-curve $-1 23.754497271942643 16.364744759608261 7.2180828225298157 -1 0 0 I I #
coedge $-1 $427 $479 $369 $432 forward $475 $-1 #
edge $-1 $480 $429 $431 $481 forward #
edge $-1 $371 $480 $373 $482 forward #
point $-1 34.7341669496438 24.617994446555201 0.99881297097718758 #
coedge $-1 $483 $373 $479 $484 forward $298 $-1 #
coedge $-1 $374 $483 $485 $486 reversed $298 $-1 #
coedge $-1 $485 $487 $376 $438 reversed $488 $-1 #
edge $-1 $439 $489 $437 $490 forward #
vertex $-1 $377 $491 #
straight-curve $-1 0 24.617994446555205 7.2180828225298166 -1 0 0 I I #
plane-surface $-1 -60.283822138126773 0 0 1 0 0 0 0 -1 forward_v I I I I #
coedge $-1 $459 $392 $393 $444 forward $339 $-1 #
coedge $-1 $394 $393 $401 $452 reversed $278 $-1 #
edge $-1 $456 $446 $393 $492 forward #
vertex $-1 $448 $493 #
vertex $-1 $461 $494 #
straight-curve $-1 -60.283822138126773 -31.011730664976785 -5.5875983830779612 0 0 -1 I I #
edge $-1 $449 $445 $419 $495 forward #
vertex $-1 $420 $496 #
straight-curve $-1 0 -24.617994446555205 -3.9571139436261058 1 0 0 I I #
straight-curve $-1 0 -31.011730664976785 -3.9571139436261058 1 0 0 I I #
edge $-1 $402 $456 $401 $497 forward #
point $-1 60.283822138126773 -31.011730664976785 -3.9571139436261058 #
point $-1 60.283822138126773 -24.617994446555205 -3.9571139436261058 #
straight-curve $-1 60.283822138126773 -24.617994446555205 0 0 0 -1 I I #
vertex $-1 $452 $498 #
straight-curve $-1 60.283822138126773 0 -7.2180828225298166 0 -1 0 I I #
point $-1 60.283822138126773 24.617994446555205 -7.2180828225298166 #
coedge $-1 $414 $442 $416 $461 forward $339 $-1 #
straight-curve $-1 0 24.617994446555205 -7.2180828225298166 1 0 0 I I #
edge $-1 $446 $417 $416 $499 forward #
point $-1 -60.283822138126773 24.617994446555205 -7.2180828225298166 #
straight-curve $-1 -60.283822138126773 -24.617994446555205 0 0 0 -1 I I #
face $-1 $500 $501 $23 $-1 $502 reversed single #
loop $-1 $-1 $503 $422 #
plane-surface $-1 0 0 -7.2180828225298166 0 0 1 1 0 0 forward_v I I I I #
coedge $-1 $504 $505 $506 $507 forward $423 $-1 #
coedge $-1 $508 $425 $509 $510 reversed $365 $-1 #
coedge $-1 $425 $508 $505 $511 forward $365 $-1 #
coedge $-1 $512 $474 $425 $471 reversed $475 $-1 #
edge $-1 $513 $514 $470 $515 forward #
coedge $-1 $516 $517 $426 $473 reversed $501 $-1 #
edge $-1 $489 $476 $472 $518 forward #
coedge $-1 $470 $427 $517 $519 forward $475 $-1 #
loop $-1 $-1 $431 $520 #
vertex $-1 $428 $521 #
straight-curve $-1 60.283822138126773 0 7.2180828225298166 0 1 0 I I #
point $-1 60.283822138126773 16.364744759608257 7.2180828225298157 #
coedge $-1 $431 $522 $435 $484 reversed $475 $-1 #
vertex $-1 $484 $523 #
straight-curve $-1 60.283822138126773 -2.6536880218110168 21.549500156035414 0 -0.79863550430605224 0.6018150307709319 I I #
straight-curve $-1 23.754497271942643 24.617994446555201 0.99881297097718935 1 0 0 I I #
coedge $-1 $436 $435 $524 $525 reversed $298 $-1 #
edge $-1 $480 $526 $479 $527 forward #
coedge $-1 $528 $437 $436 $486 forward $488 $-1 #
edge $-1 $439 $529 $436 $530 forward #
coedge $-1 $437 $531 $516 $532 reversed $488 $-1 #
loop $-1 $-1 $485 $500 #
vertex $-1 $438 $533 #
straight-curve $-1 -60.283822138126773 0 7.2180828225298166 0 -1 0 I I #
point $-1 -60.283822138126773 24.617994446555205 7.2180828225298166 #
straight-curve $-1 0 -31.011730664976785 -7.2180828225298166 -1 0 0 I I #
point $-1 -60.283822138126773 -31.011730664976785 -3.9571139436261058 #
point $-1 -60.283822138126773 -31.011730664976785 -7.2180828225298166 #
straight-curve $-1 -60.283822138126773 -27.814862555765995 -3.9571139436261058 0 -1 0 I I #
point $-1 -60.283822138126773 -24.617994446555205 -3.9571139436261058 #
straight-curve $-1 60.283822138126773 -31.011730664976785 -5.5875983830779612 0 0 -1 I I #
point $-1 60.283822138126773 -31.011730664976785 -7.2180828225298166 #
straight-curve $-1 -60.283822138126773 0 -7.2180828225298166 0 1 0 I I #
face $-1 $520 $488 $23 $-1 $534 reversed single #
loop $-1 $-1 $509 $464 #
plane-surface $-1 0 -24.617994446555205 0 0 1 0 0 0 1 forward_v I I I I #
coedge $-1 $535 $524 $522 $536 forward $465 $-1 #
coedge $-1 $537 $467 $535 $538 reversed $423 $-1 #
coedge $-1 $467 $537 $469 $511 reversed $423 $-1 #
coedge $-1 $531 $528 $467 $507 reversed $488 $-1 #
edge $-1 $539 $540 $506 $541 forward #
coedge $-1 $469 $468 $531 $542 forward $365 $-1 #
coedge $-1 $517 $516 $468 $510 forward $501 $-1 #
edge $-1 $543 $514 $509 $544 forward #
edge $-1 $539 $513 $505 $545 forward #
coedge $-1 $522 $470 $537 $546 forward $475 $-1 #
vertex $-1 $471 $547 #
vertex $-1 $471 $548 #
straight-curve $-1 60.283822138126773 -27.814862555765995 -3.9571139436261058 0 1 0 I I #
coedge $-1 $509 $472 $487 $532 forward $501 $-1 #
coedge $-1 $472 $509 $474 $519 reversed $501 $-1 #
straight-curve $-1 0 -24.617994446555205 7.2180828225298166 1 0 0 I I #
edge $-1 $476 $514 $474 $549 forward #
face $-1 $-1 $475 $23 $-1 $550 reversed single #
point $-1 60.283822138126773 -24.617994446555205 7.2180828225298166 #
coedge $-1 $479 $512 $503 $536 reversed $475 $-1 #
point $-1 60.283822138126773 24.617994446555201 0.99881297097718758 #
coedge $-1 $503 $551 $483 $525 forward $465 $-1 #
edge $-1 $529 $526 $483 $552 forward #
vertex $-1 $536 $553 #
straight-curve $-1 60.283822138126773 24.617994446555205 0 0 0 -1 I I #
coedge $-1 $506 $485 $551 $554 reversed $488 $-1 #
vertex $-1 $525 $555 #
straight-curve $-1 -60.283822138126773 24.617994446555205 0 0 0 -1 I I #
coedge $-1 $487 $506 $508 $542 reversed $488 $-1 #
edge $-1 $489 $543 $487 $556 forward #
point $-1 -60.283822138126773 -24.617994446555205 7.2180828225298166 #
plane-surface $-1 -60.283822138126773 0 0 1 0 0 0 0 -1 forward_v I I I I #
coedge $-1 $551 $503 $504 $538 forward $465 $-1 #
edge $-1 $526 $557 $522 $558 forward #
coedge $-1 $505 $504 $512 $546 reversed $423 $-1 #
edge $-1 $557 $540 $504 $559 forward #
vertex $-1 $542 $560 #
vertex $-1 $554 $561 #
straight-curve $-1 -60.283822138126773 -31.011730664976785 -5.5875983830779612 0 0 -1 I I #
edge $-1 $543 $539 $531 $562 forward #
vertex $-1 $532 $563 #
straight-curve $-1 0 -24.617994446555205 -3.9571139436261058 1 0 0 I I #
straight-curve $-1 0 -31.011730664976785 -3.9571139436261058 1 0 0 I I #
edge $-1 $513 $557 $512 $564 forward #
point $-1 60.283822138126773 -31.011730664976785 -3.9571139436261058 #
point $-1 60.283822138126773 -24.617994446555205 -3.9571139436261058 #
straight-curve $-1 60.283822138126773 -24.617994446555205 0 0 0 -1 I I #
plane-surface $-1 60.283822138126773 0 0 -1 0 0 0 0 1 forward_v I I I I #
coedge $-1 $524 $535 $528 $554 forward $465 $-1 #
straight-curve $-1 0 24.617994446555205 -7.2180828225298166 1 0 0 I I #
point $-1 60.283822138126773 24.617994446555205 -7.2180828225298166 #
edge $-1 $540 $529 $528 $565 forward #
point $-1 -60.283822138126773 24.617994446555205 -7.2180828225298166 #
straight-curve $-1 -60.283822138126773 -24.617994446555205 0 0 0 -1 I I #
vertex $-1 $546 $566 #
straight-curve $-1 60.283822138126773 0 -7.2180828225298166 0 -1 0 I I #
straight-curve $-1 0 -31.011730664976785 -7.2180828225298166 -1 0 0 I I #
point $-1 -60.283822138126773 -31.011730664976785 -3.9571139436261058 #
point $-1 -60.283822138126773 -31.011730664976785 -7.2180828225298166 #
straight-curve $-1 -60.283822138126773 -27.814862555765995 -3.9571139436261058 0 -1 0 I I #
point $-1 -60.283822138126773 -24.617994446555205 -3.9571139436261058 #
straight-curve $-1 60.283822138126773 -31.011730664976785 -5.5875983830779612 0 0 -1 I I #
straight-curve $-1 -60.283822138126773 0 -7.2180828225298166 0 1 0 I I #
point $-1 60.283822138126773 -31.011730664976785 -7.2180828225298166 #
End-of-ACIS-data 