600 0 14 0           
94 GICL ACIS Healer - Source: /gicl/data5/repository/Drexel/SM99-DATA/part103.smdg.feat.sat - 6 0 18 ACIS 6.0.3 Solaris 24 Sat Apr 13 20:43:17 2002 
1 9.999999999999999547e-07 1.000000000000000036e-10 
body $-1 $14 $-1 $-1 #
body $-1 $15 $-1 $-1 #
body $-1 $16 $-1 $-1 #
body $-1 $17 $-1 $-1 #
body $-1 $18 $-1 $-1 #
body $-1 $19 $-1 $-1 #
body $-1 $20 $-1 $-1 #
body $-1 $21 $-1 $-1 #
body $-1 $22 $-1 $-1 #
body $-1 $23 $-1 $-1 #
body $-1 $24 $-1 $-1 #
body $-1 $25 $-1 $-1 #
body $-1 $26 $-1 $-1 #
body $-1 $27 $-1 $-1 #
lump $-1 $-1 $28 $0 #
lump $-1 $-1 $29 $1 #
lump $-1 $-1 $30 $2 #
lump $-1 $-1 $31 $3 #
lump $-1 $-1 $32 $4 #
lump $-1 $-1 $33 $5 #
lump $-1 $-1 $34 $6 #
lump $-1 $-1 $35 $7 #
lump $-1 $-1 $36 $8 #
lump $-1 $-1 $37 $9 #
lump $-1 $-1 $38 $10 #
lump $-1 $-1 $39 $11 #
lump $-1 $-1 $40 $12 #
lump $-1 $-1 $41 $13 #
shell $-1 $-1 $-1 $42 $-1 $14 #
shell $-1 $-1 $-1 $43 $-1 $15 #
shell $-1 $-1 $-1 $44 $-1 $16 #
shell $-1 $-1 $-1 $45 $-1 $17 #
shell $-1 $-1 $-1 $46 $-1 $18 #
shell $-1 $-1 $-1 $47 $-1 $19 #
shell $-1 $-1 $-1 $48 $-1 $20 #
shell $-1 $-1 $-1 $49 $-1 $21 #
shell $-1 $-1 $-1 $50 $-1 $22 #
shell $-1 $-1 $-1 $51 $-1 $23 #
shell $-1 $-1 $-1 $52 $-1 $24 #
shell $-1 $-1 $-1 $53 $-1 $25 #
shell $-1 $-1 $-1 $54 $-1 $26 #
shell $-1 $-1 $-1 $55 $-1 $27 #
face $-1 $56 $57 $28 $-1 $58 forward single #
face $-1 $59 $60 $29 $-1 $61 forward single #
face $-1 $62 $63 $30 $-1 $64 forward single #
face $-1 $65 $66 $31 $-1 $67 forward single #
face $-1 $68 $69 $32 $-1 $70 forward single #
face $-1 $71 $72 $33 $-1 $73 forward single #
face $-1 $74 $75 $34 $-1 $76 forward single #
face $-1 $77 $78 $35 $-1 $79 forward single #
face $-1 $80 $81 $36 $-1 $82 forward single #
face $-1 $83 $84 $37 $-1 $85 forward single #
face $-1 $86 $87 $38 $-1 $88 forward single #
face $-1 $89 $90 $39 $-1 $91 forward single #
face $-1 $92 $93 $40 $-1 $94 forward single #
face $-1 $95 $96 $41 $-1 $97 forward single #
face $-1 $98 $99 $28 $-1 $100 reversed single #
loop $-1 $-1 $101 $42 #
plane-surface $-1 46.8056276131473723 28.04238039757996148 24.57172182449283682 0 0 1 1 0 0 forward_v I I I I #
face $-1 $102 $103 $29 $-1 $104 reversed single #
loop $-1 $-1 $105 $43 #
plane-surface $-1 4.892743716467080617 28.04238039757996148 24.57172182449284037 0 0 1 1 0 0 forward_v I I I I #
face $-1 $106 $107 $30 $-1 $108 reversed single #
loop $-1 $-1 $109 $44 #
plane-surface $-1 22.63390250279973515 185.1380613617764084 168.2456556501728073 0 0.8480481040810504689 0.529919251551154491 1 0 0 forward_v I I I I #
face $-1 $110 $111 $31 $-1 $112 forward single #
loop $-1 $113 $114 $45 #
cone-surface $-1 20.18551847280031453 54.44285530338880363 22.60051795585032863 0 -0.8480481040810504689 -0.529919251551154491 0.5 0 0 1 I I 0 1 0.5 forward I I I I #
face $-1 $115 $116 $32 $-1 $117 forward single #
loop $-1 $118 $119 $46 #
cone-surface $-1 25.08228653279915576 54.44285530338880363 22.60051795585032863 0 -0.8480481040810504689 -0.529919251551154491 0.5 0 0 1 I I 0 1 0.5 forward I I I I #
face $-1 $120 $121 $33 $-1 $122 reversed single #
loop $-1 $-1 $123 $47 #
plane-surface $-1 43.59034445113988454 185.1380613617764084 168.2456556501728073 0 0.8480481040810504689 0.529919251551154491 1 0 0 forward_v I I I I #
face $-1 $124 $125 $34 $-1 $126 forward single #
loop $-1 $127 $128 $48 #
cone-surface $-1 41.14196042114046037 54.44285530338880363 22.60051795585032863 0 -0.8480481040810504689 -0.529919251551154491 0.5 0 0 1 I I 0 1 0.5 forward I I I I #
face $-1 $129 $130 $35 $-1 $131 forward single #
loop $-1 $132 $133 $49 #
cone-surface $-1 46.03872848113930161 54.44285530338880363 22.60051795585032863 0 -0.8480481040810504689 -0.529919251551154491 0.5 0 0 1 I I 0 1 0.5 forward I I I I #
face $-1 $134 $135 $36 $-1 $136 reversed single #
loop $-1 $-1 $137 $50 #
plane-surface $-1 64.54678639948002683 185.1380613617764084 168.2456556501728073 0 0.8480481040810504689 0.529919251551154491 1 0 0 forward_v I I I I #
face $-1 $138 $139 $37 $-1 $140 forward single #
loop $-1 $141 $142 $51 #
cone-surface $-1 62.09840236948060976 54.44285530338880363 22.60051795585032863 0 -0.8480481040810504689 -0.529919251551154491 0.5 0 0 1 I I 0 1 0.5 forward I I I I #
face $-1 $143 $144 $38 $-1 $145 forward single #
loop $-1 $146 $147 $52 #
cone-surface $-1 66.9951704294794439 54.44285530338880363 22.60051795585032863 0 -0.8480481040810504689 -0.529919251551154491 0.5 0 0 1 I I 0 1 0.5 forward I I I I #
face $-1 $148 $149 $39 $-1 $150 reversed single #
loop $-1 $-1 $151 $53 #
plane-surface $-1 85.50322834782016912 185.1380613617764084 168.2456556501728073 0 0.8480481040810504689 0.529919251551154491 1 0 0 forward_v I I I I #
face $-1 $152 $153 $40 $-1 $154 forward single #
loop $-1 $155 $156 $54 #
cone-surface $-1 83.05484431782075205 54.44285530338880363 22.60051795585032863 0 -0.8480481040810504689 -0.529919251551154491 0.5 0 0 1 I I 0 1 0.5 forward I I I I #
face $-1 $157 $158 $41 $-1 $159 forward single #
loop $-1 $160 $161 $55 #
cone-surface $-1 87.95161237781958619 54.44285530338880363 22.60051795585032863 0 -0.8480481040810504689 -0.529919251551154491 0.5 0 0 1 I I 0 1 0.5 forward I I I I #
face $-1 $162 $163 $28 $-1 $164 reversed single #
loop $-1 $-1 $165 $56 #
plane-surface $-1 46.8056276131473723 28.04238039757996148 0 0 0 1 1 0 0 forward_v I I I I #
coedge $-1 $166 $167 $168 $169 forward $57 $-1 #
face $-1 $170 $171 $29 $-1 $172 reversed single #
loop $-1 $-1 $173 $59 #
plane-surface $-1 4.892743716467080617 28.04238039757996148 19.11003105132688518 0 0 1 1 0 0 forward_v I I I I #
coedge $-1 $174 $175 $176 $177 forward $60 $-1 #
face $-1 $178 $179 $30 $-1 $180 reversed single #
loop $-1 $-1 $181 $62 #
plane-surface $-1 22.63390250279973515 26.36436633116322525 69.03284303760835883 0 0.8480481040810504689 0.529919251551154491 1 0 0 forward_v I I I I #
coedge $-1 $182 $183 $184 $185 forward $63 $-1 #
face $-1 $-1 $186 $31 $-1 $187 forward single #
loop $-1 $-1 $188 $65 #
plane-surface $-1 20.18551847280031453 55.11575909971075049 23.02099490096330925 0 0.8480481040810504689 0.529919251551154491 -1 -0 0 forward_v I I I I #
loop $-1 $-1 $189 $45 #
coedge $-1 $114 $114 $188 $190 reversed $66 $-1 #
face $-1 $-1 $191 $32 $-1 $192 forward single #
loop $-1 $-1 $193 $68 #
plane-surface $-1 25.08228653279915576 55.11575909971075049 23.02099490096330925 0 0.8480481040810504689 0.529919251551154491 -1 -0 0 forward_v I I I I #
loop $-1 $-1 $194 $46 #
coedge $-1 $119 $119 $193 $195 reversed $69 $-1 #
face $-1 $196 $197 $33 $-1 $198 reversed single #
loop $-1 $-1 $199 $71 #
plane-surface $-1 43.59034445113988454 26.36436633116322525 69.03284303760835883 0 0.8480481040810504689 0.529919251551154491 1 0 0 forward_v I I I I #
coedge $-1 $200 $201 $202 $203 forward $72 $-1 #
face $-1 $-1 $204 $34 $-1 $205 forward single #
loop $-1 $-1 $206 $74 #
plane-surface $-1 41.14196042114046037 55.11575909971075049 23.02099490096330925 0 0.8480481040810504689 0.529919251551154491 -1 -0 0 forward_v I I I I #
loop $-1 $-1 $207 $48 #
coedge $-1 $128 $128 $206 $208 reversed $75 $-1 #
face $-1 $-1 $209 $35 $-1 $210 forward single #
loop $-1 $-1 $211 $77 #
plane-surface $-1 46.03872848113930161 55.11575909971075049 23.02099490096330925 0 0.8480481040810504689 0.529919251551154491 -1 -0 0 forward_v I I I I #
loop $-1 $-1 $212 $49 #
coedge $-1 $133 $133 $211 $213 reversed $78 $-1 #
face $-1 $214 $215 $36 $-1 $216 reversed single #
loop $-1 $-1 $217 $80 #
plane-surface $-1 64.54678639948002683 26.36436633116322525 69.03284303760835883 0 0.8480481040810504689 0.529919251551154491 1 0 0 forward_v I I I I #
coedge $-1 $218 $219 $220 $221 forward $81 $-1 #
face $-1 $-1 $222 $37 $-1 $223 forward single #
loop $-1 $-1 $224 $83 #
plane-surface $-1 62.09840236948060976 55.11575909971075049 23.02099490096330925 0 0.8480481040810504689 0.529919251551154491 -1 -0 0 forward_v I I I I #
loop $-1 $-1 $225 $51 #
coedge $-1 $142 $142 $224 $226 reversed $84 $-1 #
face $-1 $-1 $227 $38 $-1 $228 forward single #
loop $-1 $-1 $229 $86 #
plane-surface $-1 66.9951704294794439 55.11575909971075049 23.02099490096330925 0 0.8480481040810504689 0.529919251551154491 -1 -0 0 forward_v I I I I #
loop $-1 $-1 $230 $52 #
coedge $-1 $147 $147 $229 $231 reversed $87 $-1 #
face $-1 $232 $233 $39 $-1 $234 reversed single #
loop $-1 $-1 $235 $89 #
plane-surface $-1 85.50322834782016912 26.36436633116322525 69.03284303760835883 0 0.8480481040810504689 0.529919251551154491 1 0 0 forward_v I I I I #
coedge $-1 $236 $237 $238 $239 forward $90 $-1 #
face $-1 $-1 $240 $40 $-1 $241 forward single #
loop $-1 $-1 $242 $92 #
plane-surface $-1 83.05484431782075205 55.11575909971075049 23.02099490096330925 0 0.8480481040810504689 0.529919251551154491 -1 -0 0 forward_v I I I I #
loop $-1 $-1 $243 $54 #
coedge $-1 $156 $156 $242 $244 reversed $93 $-1 #
face $-1 $-1 $245 $41 $-1 $246 forward single #
loop $-1 $-1 $247 $95 #
plane-surface $-1 87.95161237781958619 55.11575909971075049 23.02099490096330925 0 0.8480481040810504689 0.529919251551154491 -1 -0 0 forward_v I I I I #
loop $-1 $-1 $248 $55 #
coedge $-1 $161 $161 $247 $249 reversed $96 $-1 #
face $-1 $250 $251 $28 $-1 $252 reversed single #
loop $-1 $-1 $253 $98 #
plane-surface $-1 46.8056276131473723 0 12.28586091224641841 0 1 0 0 0 1 forward_v I I I I #
coedge $-1 $254 $255 $256 $257 forward $99 $-1 #
coedge $-1 $258 $101 $259 $260 forward $57 $-1 #
coedge $-1 $101 $258 $261 $262 forward $57 $-1 #
coedge $-1 $263 $264 $101 $169 reversed $265 $-1 #
edge $-1 $266 -28.04238039757996148 $267 28.04238039757996148 $168 $268 forward 7 unknown #
face $-1 $269 $270 $29 $-1 $271 reversed single #
loop $-1 $-1 $272 $102 #
plane-surface $-1 4.892743716467080617 0 21.84087643790986277 0 1 0 0 0 1 forward_v I I I I #
coedge $-1 $273 $274 $275 $276 forward $103 $-1 #
coedge $-1 $277 $105 $278 $279 forward $60 $-1 #
coedge $-1 $105 $277 $280 $281 forward $60 $-1 #
coedge $-1 $282 $283 $105 $177 reversed $284 $-1 #
edge $-1 $285 -28.04238039757996148 $286 28.04238039757996148 $176 $287 forward 7 unknown #
face $-1 $288 $289 $30 $-1 $290 reversed single #
loop $-1 $-1 $291 $106 #
plane-surface $-1 22.63390250279973515 6.538401233905403842 277.412944374503752 0 0.529919251551154491 -0.8480481040810504689 0 0.8480481040810504689 0.529919251551154491 forward_v I I I I #
coedge $-1 $292 $293 $294 $295 forward $107 $-1 #
coedge $-1 $296 $109 $297 $298 forward $63 $-1 #
coedge $-1 $109 $296 $299 $300 forward $63 $-1 #
coedge $-1 $301 $302 $109 $185 reversed $303 $-1 #
edge $-1 $304 -187.2225104525894608 $305 187.2225104525895176 $184 $306 forward 7 unknown #
loop $-1 $307 $308 $110 #
cone-surface $-1 20.18551847280031453 53.55793948104658853 22.04756119784955359 0 -0.8480481040810504689 -0.529919251551154491 0.25 0 0 1 I I -0.7071067811865474617 0.7071067811865474617 0.25 forward I I I I #
coedge $-1 $188 $188 $114 $190 forward $111 $-1 #
coedge $-1 $189 $189 $308 $309 forward $113 $-1 #
edge $-1 $310 0 $310 6.283185307179586232 $188 $311 forward 7 unknown #
loop $-1 $312 $313 $115 #
cone-surface $-1 25.08228653279915576 53.55793948104658853 22.04756119784955359 0 -0.8480481040810504689 -0.529919251551154491 0.25 0 0 1 I I -0.7071067811865474617 0.7071067811865474617 0.25 forward I I I I #
coedge $-1 $193 $193 $119 $195 forward $116 $-1 #
coedge $-1 $194 $194 $313 $314 forward $118 $-1 #
edge $-1 $315 0 $315 6.283185307179586232 $193 $316 forward 7 unknown #
face $-1 $317 $318 $33 $-1 $319 reversed single #
loop $-1 $-1 $320 $120 #
plane-surface $-1 43.59034445113988454 6.538401233905403842 277.412944374503752 0 0.529919251551154491 -0.8480481040810504689 0 0.8480481040810504689 0.529919251551154491 forward_v I I I I #
coedge $-1 $321 $322 $323 $324 forward $121 $-1 #
coedge $-1 $325 $123 $326 $327 forward $72 $-1 #
coedge $-1 $123 $325 $328 $329 forward $72 $-1 #
coedge $-1 $330 $331 $123 $203 reversed $332 $-1 #
edge $-1 $333 -187.2225104525894608 $334 187.2225104525895176 $202 $335 forward 7 unknown #
loop $-1 $336 $337 $124 #
cone-surface $-1 41.14196042114046037 53.55793948104658853 22.04756119784955359 0 -0.8480481040810504689 -0.529919251551154491 0.25 0 0 1 I I -0.7071067811865474617 0.7071067811865474617 0.25 forward I I I I #
coedge $-1 $206 $206 $128 $208 forward $125 $-1 #
coedge $-1 $207 $207 $337 $338 forward $127 $-1 #
edge $-1 $339 0 $339 6.283185307179586232 $206 $340 forward 7 unknown #
loop $-1 $341 $342 $129 #
cone-surface $-1 46.03872848113930161 53.55793948104658853 22.04756119784955359 0 -0.8480481040810504689 -0.529919251551154491 0.25 0 0 1 I I -0.7071067811865474617 0.7071067811865474617 0.25 forward I I I I #
coedge $-1 $211 $211 $133 $213 forward $130 $-1 #
coedge $-1 $212 $212 $342 $343 forward $132 $-1 #
edge $-1 $344 0 $344 6.283185307179586232 $211 $345 forward 7 unknown #
face $-1 $346 $347 $36 $-1 $348 reversed single #
loop $-1 $-1 $349 $134 #
plane-surface $-1 64.54678639948002683 6.538401233905403842 277.412944374503752 0 0.529919251551154491 -0.8480481040810504689 0 0.8480481040810504689 0.529919251551154491 forward_v I I I I #
coedge $-1 $350 $351 $352 $353 forward $135 $-1 #
coedge $-1 $354 $137 $355 $356 forward $81 $-1 #
coedge $-1 $137 $354 $357 $358 forward $81 $-1 #
coedge $-1 $359 $360 $137 $221 reversed $361 $-1 #
edge $-1 $362 -187.2225104525894608 $363 187.2225104525895176 $220 $364 forward 7 unknown #
loop $-1 $365 $366 $138 #
cone-surface $-1 62.09840236948060976 53.55793948104658853 22.04756119784955359 0 -0.8480481040810504689 -0.529919251551154491 0.25 0 0 1 I I -0.7071067811865474617 0.7071067811865474617 0.25 forward I I I I #
coedge $-1 $224 $224 $142 $226 forward $139 $-1 #
coedge $-1 $225 $225 $366 $367 forward $141 $-1 #
edge $-1 $368 0 $368 6.283185307179586232 $224 $369 forward 7 unknown #
loop $-1 $370 $371 $143 #
cone-surface $-1 66.9951704294794439 53.55793948104658853 22.04756119784955359 0 -0.8480481040810504689 -0.529919251551154491 0.25 0 0 1 I I -0.7071067811865474617 0.7071067811865474617 0.25 forward I I I I #
coedge $-1 $229 $229 $147 $231 forward $144 $-1 #
coedge $-1 $230 $230 $371 $372 forward $146 $-1 #
edge $-1 $373 0 $373 6.283185307179586232 $229 $374 forward 7 unknown #
face $-1 $375 $376 $39 $-1 $377 reversed single #
loop $-1 $-1 $378 $148 #
plane-surface $-1 85.50322834782016912 6.538401233905403842 277.412944374503752 0 0.529919251551154491 -0.8480481040810504689 0 0.8480481040810504689 0.529919251551154491 forward_v I I I I #
coedge $-1 $379 $380 $381 $382 forward $149 $-1 #
coedge $-1 $383 $151 $384 $385 forward $90 $-1 #
coedge $-1 $151 $383 $386 $387 forward $90 $-1 #
coedge $-1 $388 $389 $151 $239 reversed $390 $-1 #
edge $-1 $391 -187.2225104525894608 $392 187.2225104525895176 $238 $393 forward 7 unknown #
loop $-1 $394 $395 $152 #
cone-surface $-1 83.05484431782075205 53.55793948104658853 22.04756119784955359 0 -0.8480481040810504689 -0.529919251551154491 0.25 0 0 1 I I -0.7071067811865474617 0.7071067811865474617 0.25 forward I I I I #
coedge $-1 $242 $242 $156 $244 forward $153 $-1 #
coedge $-1 $243 $243 $395 $396 forward $155 $-1 #
edge $-1 $397 0 $397 6.283185307179586232 $242 $398 forward 7 unknown #
loop $-1 $399 $400 $157 #
cone-surface $-1 87.95161237781958619 53.55793948104658853 22.04756119784955359 0 -0.8480481040810504689 -0.529919251551154491 0.25 0 0 1 I I -0.7071067811865474617 0.7071067811865474617 0.25 forward I I I I #
coedge $-1 $247 $247 $161 $249 forward $158 $-1 #
coedge $-1 $248 $248 $400 $401 forward $160 $-1 #
edge $-1 $402 0 $402 6.283185307179586232 $247 $403 forward 7 unknown #
face $-1 $404 $405 $28 $-1 $406 reversed single #
loop $-1 $-1 $407 $162 #
plane-surface $-1 0 28.04238039757996148 12.28586091224641841 1 0 0 0 0 -1 forward_v I I I I #
coedge $-1 $408 $261 $409 $410 forward $163 $-1 #
coedge $-1 $411 $165 $408 $412 forward $99 $-1 #
coedge $-1 $165 $411 $413 $414 forward $99 $-1 #
coedge $-1 $264 $263 $165 $257 reversed $265 $-1 #
edge $-1 $415 -28.04238039757996148 $416 28.04238039757996148 $256 $417 forward 7 unknown #
coedge $-1 $167 $166 $418 $419 forward $57 $-1 #
coedge $-1 $420 $421 $166 $260 reversed $405 $-1 #
edge $-1 $267 -46.8056276131473723 $422 46.8056276131473723 $259 $423 forward 7 unknown #
coedge $-1 $253 $424 $167 $262 reversed $163 $-1 #
edge $-1 $425 -46.8056276131473723 $266 46.8056276131473723 $261 $426 forward 7 unknown #
coedge $-1 $256 $168 $424 $427 forward $265 $-1 #
coedge $-1 $168 $256 $420 $428 reversed $265 $-1 #
loop $-1 $-1 $263 $404 #
vertex $-1 $169 $429 #
vertex $-1 $169 $430 #
straight-curve $-1 93.6112552262947446 28.04238039757996148 24.57172182449283682 0 1 0 I I #
face $-1 $431 $432 $29 $-1 $433 reversed single #
loop $-1 $-1 $434 $170 #
plane-surface $-1 0 28.04238039757996148 21.84087643790986277 1 0 0 0 0 -1 forward_v I I I I #
coedge $-1 $435 $280 $436 $437 forward $171 $-1 #
coedge $-1 $438 $173 $435 $439 forward $103 $-1 #
coedge $-1 $173 $438 $440 $441 forward $103 $-1 #
coedge $-1 $283 $282 $173 $276 reversed $284 $-1 #
edge $-1 $442 -28.04238039757996148 $443 28.04238039757996148 $275 $444 forward 7 unknown #
coedge $-1 $175 $174 $445 $446 forward $60 $-1 #
coedge $-1 $447 $448 $174 $279 reversed $432 $-1 #
edge $-1 $286 -4.892743716467080617 $449 4.892743716467080617 $278 $450 forward 7 unknown #
coedge $-1 $272 $451 $175 $281 reversed $171 $-1 #
edge $-1 $452 -4.892743716467080617 $285 4.892743716467080617 $280 $453 forward 7 unknown #
coedge $-1 $275 $176 $451 $454 forward $284 $-1 #
coedge $-1 $176 $275 $447 $455 reversed $284 $-1 #
loop $-1 $-1 $282 $431 #
vertex $-1 $177 $456 #
vertex $-1 $177 $457 #
straight-curve $-1 9.785487432934161234 28.04238039757996148 24.57172182449284037 0 1 0 I I #
face $-1 $458 $459 $30 $-1 $460 reversed single #
loop $-1 $-1 $461 $178 #
plane-surface $-1 16.92100643280108585 105.7512138464698239 118.6392493438905831 1 0 0 0 -0.8480481040810504689 -0.529919251551154491 forward_v I I I I #
coedge $-1 $462 $299 $463 $464 forward $179 $-1 #
coedge $-1 $465 $181 $462 $466 forward $107 $-1 #
coedge $-1 $181 $465 $467 $468 forward $107 $-1 #
coedge $-1 $302 $301 $181 $295 reversed $303 $-1 #
edge $-1 $469 -187.2225104525894892 $470 187.2225104525894608 $294 $471 forward 7 unknown #
coedge $-1 $183 $182 $472 $473 forward $63 $-1 #
coedge $-1 $474 $475 $182 $298 reversed $459 $-1 #
edge $-1 $305 -5.712896069998649295 $476 5.712896069998649295 $297 $477 forward 7 unknown #
coedge $-1 $291 $478 $183 $300 reversed $179 $-1 #
edge $-1 $479 -5.712896069998649295 $304 5.712896069998649295 $299 $480 forward 7 unknown #
coedge $-1 $294 $184 $478 $481 forward $303 $-1 #
coedge $-1 $184 $294 $474 $482 reversed $303 $-1 #
loop $-1 $-1 $301 $458 #
vertex $-1 $185 $483 #
vertex $-1 $185 $484 #
straight-curve $-1 28.34679857279838444 185.1380613617764084 168.2456556501728073 0 0.529919251551154491 -0.8480481040810504689 I I #
loop $-1 $-1 $485 $110 #
coedge $-1 $308 $308 $189 $309 reversed $186 $-1 #
edge $-1 $486 0 $486 6.283185307179586232 $308 $487 forward 7 unknown #
vertex $-1 $190 $488 #
ellipse-curve $-1 20.18551847280031453 55.11575909971075049 23.02099490096330925 0 0.8480481040810504689 0.529919251551154491 0.5 0 0 1 I I #
loop $-1 $-1 $489 $115 #
coedge $-1 $313 $313 $194 $314 reversed $191 $-1 #
edge $-1 $490 0 $490 6.283185307179586232 $313 $491 forward 7 unknown #
vertex $-1 $195 $492 #
ellipse-curve $-1 25.08228653279915576 55.11575909971075049 23.02099490096330925 0 0.8480481040810504689 0.529919251551154491 0.5 0 0 1 I I #
face $-1 $493 $494 $33 $-1 $495 reversed single #
loop $-1 $-1 $496 $196 #
plane-surface $-1 37.87744838114123525 105.7512138464698239 118.6392493438905831 1 0 0 0 -0.8480481040810504689 -0.529919251551154491 forward_v I I I I #
coedge $-1 $497 $328 $498 $499 forward $197 $-1 #
coedge $-1 $500 $199 $497 $501 forward $121 $-1 #
coedge $-1 $199 $500 $502 $503 forward $121 $-1 #
coedge $-1 $331 $330 $199 $324 reversed $332 $-1 #
edge $-1 $504 -187.2225104525894892 $505 187.2225104525894608 $323 $506 forward 7 unknown #
coedge $-1 $201 $200 $507 $508 forward $72 $-1 #
coedge $-1 $509 $510 $200 $327 reversed $494 $-1 #
edge $-1 $334 -5.712896069998649295 $511 5.712896069998649295 $326 $512 forward 7 unknown #
coedge $-1 $320 $513 $201 $329 reversed $197 $-1 #
edge $-1 $514 -5.712896069998649295 $333 5.712896069998649295 $328 $515 forward 7 unknown #
coedge $-1 $323 $202 $513 $516 forward $332 $-1 #
coedge $-1 $202 $323 $509 $517 reversed $332 $-1 #
loop $-1 $-1 $330 $493 #
vertex $-1 $203 $518 #
vertex $-1 $203 $519 #
straight-curve $-1 49.30324052113853384 185.1380613617764084 168.2456556501728073 0 0.529919251551154491 -0.8480481040810504689 I I #
loop $-1 $-1 $520 $124 #
coedge $-1 $337 $337 $207 $338 reversed $204 $-1 #
edge $-1 $521 0 $521 6.283185307179586232 $337 $522 forward 7 unknown #
vertex $-1 $208 $523 #
ellipse-curve $-1 41.14196042114046037 55.11575909971075049 23.02099490096330925 0 0.8480481040810504689 0.529919251551154491 0.5 0 0 1 I I #
loop $-1 $-1 $524 $129 #
coedge $-1 $342 $342 $212 $343 reversed $209 $-1 #
edge $-1 $525 0 $525 6.283185307179586232 $342 $526 forward 7 unknown #
vertex $-1 $213 $527 #
ellipse-curve $-1 46.03872848113930161 55.11575909971075049 23.02099490096330925 0 0.8480481040810504689 0.529919251551154491 0.5 0 0 1 I I #
face $-1 $528 $529 $36 $-1 $530 reversed single #
loop $-1 $-1 $531 $214 #
plane-surface $-1 58.83389032948137753 105.7512138464698239 118.6392493438905831 1 0 0 0 -0.8480481040810504689 -0.529919251551154491 forward_v I I I I #
coedge $-1 $532 $357 $533 $534 forward $215 $-1 #
coedge $-1 $535 $217 $532 $536 forward $135 $-1 #
coedge $-1 $217 $535 $537 $538 forward $135 $-1 #
coedge $-1 $360 $359 $217 $353 reversed $361 $-1 #
edge $-1 $539 -187.2225104525894892 $540 187.2225104525894608 $352 $541 forward 7 unknown #
coedge $-1 $219 $218 $542 $543 forward $81 $-1 #
coedge $-1 $544 $545 $218 $356 reversed $529 $-1 #
edge $-1 $363 -5.712896069998649295 $546 5.712896069998649295 $355 $547 forward 7 unknown #
coedge $-1 $349 $548 $219 $358 reversed $215 $-1 #
edge $-1 $549 -5.712896069998649295 $362 5.712896069998649295 $357 $550 forward 7 unknown #
coedge $-1 $352 $220 $548 $551 forward $361 $-1 #
coedge $-1 $220 $352 $544 $552 reversed $361 $-1 #
loop $-1 $-1 $359 $528 #
vertex $-1 $221 $553 #
vertex $-1 $221 $554 #
straight-curve $-1 70.25968246947867613 185.1380613617764084 168.2456556501728073 0 0.529919251551154491 -0.8480481040810504689 I I #
loop $-1 $-1 $555 $138 #
coedge $-1 $366 $366 $225 $367 reversed $222 $-1 #
edge $-1 $556 0 $556 6.283185307179586232 $366 $557 forward 7 unknown #
vertex $-1 $226 $558 #
ellipse-curve $-1 62.09840236948060976 55.11575909971075049 23.02099490096330925 0 0.8480481040810504689 0.529919251551154491 0.5 0 0 1 I I #
loop $-1 $-1 $559 $143 #
coedge $-1 $371 $371 $230 $372 reversed $227 $-1 #
edge $-1 $560 0 $560 6.283185307179586232 $371 $561 forward 7 unknown #
vertex $-1 $231 $562 #
ellipse-curve $-1 66.9951704294794439 55.11575909971075049 23.02099490096330925 0 0.8480481040810504689 0.529919251551154491 0.5 0 0 1 I I #
face $-1 $563 $564 $39 $-1 $565 reversed single #
loop $-1 $-1 $566 $232 #
plane-surface $-1 79.79033227782151982 105.7512138464698239 118.6392493438905831 1 0 0 0 -0.8480481040810504689 -0.529919251551154491 forward_v I I I I #
coedge $-1 $567 $386 $568 $569 forward $233 $-1 #
coedge $-1 $570 $235 $567 $571 forward $149 $-1 #
coedge $-1 $235 $570 $572 $573 forward $149 $-1 #
coedge $-1 $389 $388 $235 $382 reversed $390 $-1 #
edge $-1 $574 -187.2225104525894892 $575 187.2225104525894608 $381 $576 forward 7 unknown #
coedge $-1 $237 $236 $577 $578 forward $90 $-1 #
coedge $-1 $579 $580 $236 $385 reversed $564 $-1 #
edge $-1 $392 -5.712896069998649295 $581 5.712896069998649295 $384 $582 forward 7 unknown #
coedge $-1 $378 $583 $237 $387 reversed $233 $-1 #
edge $-1 $584 -5.712896069998649295 $391 5.712896069998649295 $386 $585 forward 7 unknown #
coedge $-1 $381 $238 $583 $586 forward $390 $-1 #
coedge $-1 $238 $381 $579 $587 reversed $390 $-1 #
loop $-1 $-1 $388 $563 #
vertex $-1 $239 $588 #
vertex $-1 $239 $589 #
straight-curve $-1 91.21612441781881842 185.1380613617764084 168.2456556501728073 0 0.529919251551154491 -0.8480481040810504689 I I #
loop $-1 $-1 $590 $152 #
coedge $-1 $395 $395 $243 $396 reversed $240 $-1 #
edge $-1 $591 0 $591 6.283185307179586232 $395 $592 forward 7 unknown #
vertex $-1 $244 $593 #
ellipse-curve $-1 83.05484431782075205 55.11575909971075049 23.02099490096330925 0 0.8480481040810504689 0.529919251551154491 0.5 0 0 1 I I #
loop $-1 $-1 $594 $157 #
coedge $-1 $400 $400 $248 $401 reversed $245 $-1 #
edge $-1 $595 0 $595 6.283185307179586232 $400 $596 forward 7 unknown #
vertex $-1 $249 $597 #
ellipse-curve $-1 87.95161237781958619 55.11575909971075049 23.02099490096330925 0 0.8480481040810504689 0.529919251551154491 0.5 0 0 1 I I #
face $-1 $-1 $265 $28 $-1 $598 reversed single #
loop $-1 $-1 $420 $250 #
plane-surface $-1 46.8056276131473723 56.08476079515992296 12.28586091224641841 0 -1 0 0 0 -1 forward_v I I I I #
coedge $-1 $599 $418 $421 $600 forward $251 $-1 #
coedge $-1 $424 $253 $254 $412 reversed $163 $-1 #
coedge $-1 $418 $599 $253 $410 reversed $251 $-1 #
edge $-1 $425 -12.28586091224641841 $601 12.28586091224641841 $409 $602 forward 7 unknown #
coedge $-1 $255 $254 $599 $603 forward $99 $-1 #
edge $-1 $416 -46.8056276131473723 $601 46.8056276131473723 $408 $604 forward 7 unknown #
coedge $-1 $421 $420 $255 $414 reversed $405 $-1 #
edge $-1 $605 -46.8056276131473723 $415 46.8056276131473723 $413 $606 forward 7 unknown #
vertex $-1 $257 $607 #
vertex $-1 $427 $608 #
straight-curve $-1 93.6112552262947446 28.04238039757996148 0 0 -1 0 I I #
coedge $-1 $407 $409 $258 $419 reversed $251 $-1 #
edge $-1 $422 -28.04238039757996148 $425 28.04238039757996148 $418 $609 forward 7 unknown #
coedge $-1 $413 $259 $264 $428 forward $405 $-1 #
coedge $-1 $259 $413 $407 $600 reversed $405 $-1 #
vertex $-1 $260 $610 #
straight-curve $-1 46.8056276131473723 56.08476079515992296 24.57172182449283682 -1 0 0 I I #
coedge $-1 $261 $408 $263 $427 reversed $163 $-1 #
vertex $-1 $419 $611 #
straight-curve $-1 46.8056276131473723 0 24.57172182449283682 1 0 0 I I #
edge $-1 $266 -12.28586091224641841 $416 12.28586091224641841 $263 $612 forward 7 unknown #
edge $-1 $267 -12.28586091224641841 $415 12.28586091224641841 $264 $613 forward 7 unknown #
point $-1 93.6112552262947446 0 24.57172182449283682 #
point $-1 93.6112552262947446 56.08476079515992296 24.57172182449283682 #
face $-1 $-1 $284 $29 $-1 $614 reversed single #
loop $-1 $-1 $447 $269 #
plane-surface $-1 4.892743716467080617 56.08476079515992296 21.84087643790986277 0 -1 0 0 0 -1 forward_v I I I I #
coedge $-1 $615 $445 $448 $616 forward $270 $-1 #
coedge $-1 $451 $272 $273 $439 reversed $171 $-1 #
coedge $-1 $445 $615 $272 $437 reversed $270 $-1 #
edge $-1 $452 -2.730845386582977596 $617 2.730845386582977596 $436 $618 forward 7 unknown #
coedge $-1 $274 $273 $615 $619 forward $103 $-1 #
edge $-1 $443 -4.892743716467080617 $617 4.892743716467080617 $435 $620 forward 7 unknown #
coedge $-1 $448 $447 $274 $441 reversed $432 $-1 #
edge $-1 $621 -4.892743716467080617 $442 4.892743716467080617 $440 $622 forward 7 unknown #
vertex $-1 $276 $623 #
vertex $-1 $454 $624 #
straight-curve $-1 9.785487432934161234 28.04238039757996148 19.11003105132688518 0 -1 0 I I #
coedge $-1 $434 $436 $277 $446 reversed $270 $-1 #
edge $-1 $449 -28.04238039757996148 $452 28.04238039757996148 $445 $625 forward 7 unknown #
coedge $-1 $440 $278 $283 $455 forward $432 $-1 #
coedge $-1 $278 $440 $434 $616 reversed $432 $-1 #
vertex $-1 $279 $626 #
straight-curve $-1 4.892743716467080617 56.08476079515992296 24.57172182449284037 -1 0 0 I I #
coedge $-1 $280 $435 $282 $454 reversed $171 $-1 #
vertex $-1 $446 $627 #
straight-curve $-1 4.892743716467080617 0 24.57172182449284037 1 0 0 I I #
edge $-1 $285 -2.730845386582977596 $443 2.730845386582977596 $282 $628 forward 7 unknown #
edge $-1 $286 -2.730845386582977596 $442 2.730845386582977596 $283 $629 forward 7 unknown #
point $-1 9.785487432934161234 0 24.57172182449284037 #
point $-1 9.785487432934161234 56.08476079515992296 24.57172182449284037 #
face $-1 $-1 $303 $30 $-1 $630 reversed single #
loop $-1 $-1 $474 $288 #
plane-surface $-1 22.63390250279973515 204.964026459034244 -40.13444568672258583 0 -0.529919251551154491 0.8480481040810504689 0 -0.8480481040810504689 -0.529919251551154491 forward_v I I I I #
coedge $-1 $631 $472 $475 $632 forward $289 $-1 #
coedge $-1 $478 $291 $292 $466 reversed $179 $-1 #
coedge $-1 $472 $631 $291 $464 reversed $289 $-1 #
edge $-1 $479 -93.61125522629475881 $633 93.61125522629475881 $463 $634 forward 7 unknown #
coedge $-1 $293 $292 $631 $635 forward $107 $-1 #
edge $-1 $470 -5.712896069998649295 $633 5.712896069998649295 $462 $636 forward 7 unknown #
coedge $-1 $475 $474 $293 $468 reversed $459 $-1 #
edge $-1 $637 -5.712896069998649295 $469 5.712896069998649295 $467 $638 forward 7 unknown #
vertex $-1 $295 $639 #
vertex $-1 $481 $640 #
straight-curve $-1 28.34679857279838444 26.36436633116322525 69.03284303760835883 0 -0.529919251551154491 0.8480481040810504689 I I #
coedge $-1 $461 $463 $296 $473 reversed $289 $-1 #
edge $-1 $476 -187.2225104525895176 $479 187.2225104525894608 $472 $641 forward 7 unknown #
coedge $-1 $467 $297 $302 $482 forward $459 $-1 #
coedge $-1 $297 $467 $461 $632 reversed $459 $-1 #
vertex $-1 $298 $642 #
straight-curve $-1 22.63390250279973515 284.3508739743408569 9.471960619559638417 -1 0 0 I I #
coedge $-1 $299 $462 $301 $481 reversed $179 $-1 #
vertex $-1 $473 $643 #
straight-curve $-1 22.63390250279973515 85.92524874921200251 327.0193506807859762 1 0 0 I I #
edge $-1 $304 -93.61125522629475881 $470 93.61125522629475881 $301 $644 forward 7 unknown #
edge $-1 $305 -93.61125522629478724 $469 93.61125522629475881 $302 $645 forward 7 unknown #
point $-1 28.34679857279838444 85.92524874921200251 327.0193506807859762 #
point $-1 28.34679857279838444 284.3508739743408569 9.471960619559638417 #
coedge $-1 $485 $485 $-1 $646 reversed $307 $-1 #
vertex $-1 $309 $647 #
ellipse-curve $-1 20.18551847280031453 53.76995150706684967 22.18004101073734091 0 0.8480481040810504689 0.529919251551154491 0.5 0 0 1 I I #
point $-1 20.68551847280031453 55.11575909971075049 23.02099490096330925 #
coedge $-1 $489 $489 $-1 $648 reversed $312 $-1 #
vertex $-1 $314 $649 #
ellipse-curve $-1 25.08228653279915576 53.76995150706684967 22.18004101073734091 0 0.8480481040810504689 0.529919251551154491 0.5 0 0 1 I I #
point $-1 25.58228653279915576 55.11575909971075049 23.02099490096330925 #
face $-1 $-1 $332 $33 $-1 $650 reversed single #
loop $-1 $-1 $509 $317 #
plane-surface $-1 43.59034445113988454 204.964026459034244 -40.13444568672258583 0 -0.529919251551154491 0.8480481040810504689 0 -0.8480481040810504689 -0.529919251551154491 forward_v I I I I #
coedge $-1 $651 $507 $510 $652 forward $318 $-1 #
coedge $-1 $513 $320 $321 $501 reversed $197 $-1 #
coedge $-1 $507 $651 $320 $499 reversed $318 $-1 #
edge $-1 $514 -93.61125522629475881 $653 93.61125522629475881 $498 $654 forward 7 unknown #
coedge $-1 $322 $321 $651 $655 forward $121 $-1 #
edge $-1 $505 -5.712896069998649295 $653 5.712896069998649295 $497 $656 forward 7 unknown #
coedge $-1 $510 $509 $322 $503 reversed $494 $-1 #
edge $-1 $657 -5.712896069998649295 $504 5.712896069998649295 $502 $658 forward 7 unknown #
vertex $-1 $324 $659 #
vertex $-1 $516 $660 #
straight-curve $-1 49.30324052113853384 26.36436633116322525 69.03284303760835883 0 -0.529919251551154491 0.8480481040810504689 I I #
coedge $-1 $496 $498 $325 $508 reversed $318 $-1 #
edge $-1 $511 -187.2225104525895176 $514 187.2225104525894608 $507 $661 forward 7 unknown #
coedge $-1 $502 $326 $331 $517 forward $494 $-1 #
coedge $-1 $326 $502 $496 $652 reversed $494 $-1 #
vertex $-1 $327 $662 #
straight-curve $-1 43.59034445113988454 284.3508739743408569 9.471960619559638417 -1 0 0 I I #
coedge $-1 $328 $497 $330 $516 reversed $197 $-1 #
vertex $-1 $508 $663 #
straight-curve $-1 43.59034445113988454 85.92524874921200251 327.0193506807859762 1 0 0 I I #
edge $-1 $333 -93.61125522629475881 $505 93.61125522629475881 $330 $664 forward 7 unknown #
edge $-1 $334 -93.61125522629478724 $504 93.61125522629475881 $331 $665 forward 7 unknown #
point $-1 49.30324052113853384 85.92524874921200251 327.0193506807859762 #
point $-1 49.30324052113853384 284.3508739743408569 9.471960619559638417 #
coedge $-1 $520 $520 $-1 $666 reversed $336 $-1 #
vertex $-1 $338 $667 #
ellipse-curve $-1 41.14196042114046037 53.76995150706684967 22.18004101073734091 0 0.8480481040810504689 0.529919251551154491 0.5 0 0 1 I I #
point $-1 41.64196042114046037 55.11575909971075049 23.02099490096330925 #
coedge $-1 $524 $524 $-1 $668 reversed $341 $-1 #
vertex $-1 $343 $669 #
ellipse-curve $-1 46.03872848113930161 53.76995150706684967 22.18004101073734091 0 0.8480481040810504689 0.529919251551154491 0.5 0 0 1 I I #
point $-1 46.53872848113930161 55.11575909971075049 23.02099490096330925 #
face $-1 $-1 $361 $36 $-1 $670 reversed single #
loop $-1 $-1 $544 $346 #
plane-surface $-1 64.54678639948002683 204.964026459034244 -40.13444568672258583 0 -0.529919251551154491 0.8480481040810504689 0 -0.8480481040810504689 -0.529919251551154491 forward_v I I I I #
coedge $-1 $671 $542 $545 $672 forward $347 $-1 #
coedge $-1 $548 $349 $350 $536 reversed $215 $-1 #
coedge $-1 $542 $671 $349 $534 reversed $347 $-1 #
edge $-1 $549 -93.61125522629475881 $673 93.61125522629475881 $533 $674 forward 7 unknown #
coedge $-1 $351 $350 $671 $675 forward $135 $-1 #
edge $-1 $540 -5.712896069998649295 $673 5.712896069998649295 $532 $676 forward 7 unknown #
coedge $-1 $545 $544 $351 $538 reversed $529 $-1 #
edge $-1 $677 -5.712896069998649295 $539 5.712896069998649295 $537 $678 forward 7 unknown #
vertex $-1 $353 $679 #
vertex $-1 $551 $680 #
straight-curve $-1 70.25968246947867613 26.36436633116322525 69.03284303760835883 0 -0.529919251551154491 0.8480481040810504689 I I #
coedge $-1 $531 $533 $354 $543 reversed $347 $-1 #
edge $-1 $546 -187.2225104525895176 $549 187.2225104525894608 $542 $681 forward 7 unknown #
coedge $-1 $537 $355 $360 $552 forward $529 $-1 #
coedge $-1 $355 $537 $531 $672 reversed $529 $-1 #
vertex $-1 $356 $682 #
straight-curve $-1 64.54678639948002683 284.3508739743408569 9.471960619559638417 -1 0 0 I I #
coedge $-1 $357 $532 $359 $551 reversed $215 $-1 #
vertex $-1 $543 $683 #
straight-curve $-1 64.54678639948002683 85.92524874921200251 327.0193506807859762 1 0 0 I I #
edge $-1 $362 -93.61125522629475881 $540 93.61125522629475881 $359 $684 forward 7 unknown #
edge $-1 $363 -93.61125522629478724 $539 93.61125522629475881 $360 $685 forward 7 unknown #
point $-1 70.25968246947867613 85.92524874921200251 327.0193506807859762 #
point $-1 70.25968246947867613 284.3508739743408569 9.471960619559638417 #
coedge $-1 $555 $555 $-1 $686 reversed $365 $-1 #
vertex $-1 $367 $687 #
ellipse-curve $-1 62.09840236948060976 53.76995150706684967 22.18004101073734091 0 0.8480481040810504689 0.529919251551154491 0.5 0 0 1 I I #
point $-1 62.59840236948060976 55.11575909971075049 23.02099490096330925 #
coedge $-1 $559 $559 $-1 $688 reversed $370 $-1 #
vertex $-1 $372 $689 #
ellipse-curve $-1 66.9951704294794439 53.76995150706684967 22.18004101073734091 0 0.8480481040810504689 0.529919251551154491 0.5 0 0 1 I I #
point $-1 67.4951704294794439 55.11575909971075049 23.02099490096330925 #
face $-1 $-1 $390 $39 $-1 $690 reversed single #
loop $-1 $-1 $579 $375 #
plane-surface $-1 85.50322834782016912 204.964026459034244 -40.13444568672258583 0 -0.529919251551154491 0.8480481040810504689 0 -0.8480481040810504689 -0.529919251551154491 forward_v I I I I #
coedge $-1 $691 $577 $580 $692 forward $376 $-1 #
coedge $-1 $583 $378 $379 $571 reversed $233 $-1 #
coedge $-1 $577 $691 $378 $569 reversed $376 $-1 #
edge $-1 $584 -93.61125522629475881 $693 93.61125522629475881 $568 $694 forward 7 unknown #
coedge $-1 $380 $379 $691 $695 forward $149 $-1 #
edge $-1 $575 -5.712896069998649295 $693 5.712896069998649295 $567 $696 forward 7 unknown #
coedge $-1 $580 $579 $380 $573 reversed $564 $-1 #
edge $-1 $697 -5.712896069998649295 $574 5.712896069998649295 $572 $698 forward 7 unknown #
vertex $-1 $382 $699 #
vertex $-1 $586 $700 #
straight-curve $-1 91.21612441781881842 26.36436633116322525 69.03284303760835883 0 -0.529919251551154491 0.8480481040810504689 I I #
coedge $-1 $566 $568 $383 $578 reversed $376 $-1 #
edge $-1 $581 -187.2225104525895176 $584 187.2225104525894608 $577 $701 forward 7 unknown #
coedge $-1 $572 $384 $389 $587 forward $564 $-1 #
coedge $-1 $384 $572 $566 $692 reversed $564 $-1 #
vertex $-1 $385 $702 #
straight-curve $-1 85.50322834782016912 284.3508739743408569 9.471960619559638417 -1 0 0 I I #
coedge $-1 $386 $567 $388 $586 reversed $233 $-1 #
vertex $-1 $578 $703 #
straight-curve $-1 85.50322834782016912 85.92524874921200251 327.0193506807859762 1 0 0 I I #
edge $-1 $391 -93.61125522629475881 $575 93.61125522629475881 $388 $704 forward 7 unknown #
edge $-1 $392 -93.61125522629478724 $574 93.61125522629475881 $389 $705 forward 7 unknown #
point $-1 91.21612441781881842 85.92524874921200251 327.0193506807859762 #
point $-1 91.21612441781881842 284.3508739743408569 9.471960619559638417 #
coedge $-1 $590 $590 $-1 $706 reversed $394 $-1 #
vertex $-1 $396 $707 #
ellipse-curve $-1 83.05484431782075205 53.76995150706684967 22.18004101073734091 0 0.8480481040810504689 0.529919251551154491 0.5 0 0 1 I I #
point $-1 83.55484431782075205 55.11575909971075049 23.02099490096330925 #
coedge $-1 $594 $594 $-1 $708 reversed $399 $-1 #
vertex $-1 $401 $709 #
ellipse-curve $-1 87.95161237781958619 53.76995150706684967 22.18004101073734091 0 0.8480481040810504689 0.529919251551154491 0.5 0 0 1 I I #
point $-1 88.45161237781958619 55.11575909971075049 23.02099490096330925 #
plane-surface $-1 93.6112552262947446 28.04238039757996148 12.28586091224641841 -1 0 0 0 0 1 forward_v I I I I #
coedge $-1 $409 $407 $411 $603 reversed $251 $-1 #
edge $-1 $422 -12.28586091224641841 $605 12.28586091224641841 $421 $710 forward 7 unknown #
vertex $-1 $603 $711 #
straight-curve $-1 0 0 12.28586091224641841 0 0 -1 I I #
edge $-1 $601 -28.04238039757996148 $605 28.04238039757996148 $599 $712 forward 7 unknown #
straight-curve $-1 46.8056276131473723 0 0 -1 0 0 I I #
vertex $-1 $414 $713 #
straight-curve $-1 46.8056276131473723 56.08476079515992296 0 1 0 0 I I #
point $-1 93.6112552262947446 56.08476079515992296 0 #
point $-1 93.6112552262947446 0 0 #
straight-curve $-1 0 28.04238039757996148 24.57172182449283682 0 -1 0 I I #
point $-1 0 56.08476079515992296 24.57172182449283682 #
point $-1 0 0 24.57172182449283682 #
straight-curve $-1 93.6112552262947446 0 12.28586091224641841 0 0 -1 I I #
straight-curve $-1 93.6112552262947446 56.08476079515992296 12.28586091224641841 0 0 -1 I I #
plane-surface $-1 9.785487432934161234 28.04238039757996148 21.84087643790986277 -1 0 0 0 0 1 forward_v I I I I #
coedge $-1 $436 $434 $438 $619 reversed $270 $-1 #
edge $-1 $449 -2.730845386582977596 $621 2.730845386582977596 $448 $714 forward 7 unknown #
vertex $-1 $619 $715 #
straight-curve $-1 0 0 21.84087643790986277 0 0 -1 I I #
edge $-1 $617 -28.04238039757996148 $621 28.04238039757996148 $615 $716 forward 7 unknown #
straight-curve $-1 4.892743716467080617 0 19.11003105132688518 -1 0 0 I I #
vertex $-1 $441 $717 #
straight-curve $-1 4.892743716467080617 56.08476079515992296 19.11003105132688518 1 0 0 I I #
point $-1 9.785487432934161234 56.08476079515992296 19.11003105132688518 #
point $-1 9.785487432934161234 0 19.11003105132688518 #
straight-curve $-1 0 28.04238039757996148 24.57172182449284037 0 -1 0 I I #
point $-1 0 56.08476079515992296 24.57172182449284037 #
point $-1 0 0 24.57172182449284037 #
straight-curve $-1 9.785487432934161234 0 21.84087643790986277 0 0 -1 I I #
straight-curve $-1 9.785487432934161234 56.08476079515992296 21.84087643790986277 0 0 -1 I I #
plane-surface $-1 28.34679857279838444 105.7512138464698239 118.6392493438905831 -1 0 0 0 0.8480481040810504689 0.529919251551154491 forward_v I I I I #
coedge $-1 $463 $461 $465 $635 reversed $289 $-1 #
edge $-1 $476 -93.61125522629478724 $637 93.61125522629475881 $475 $718 forward 7 unknown #
vertex $-1 $635 $719 #
straight-curve $-1 16.92100643280108585 6.538401233905403842 277.412944374503752 0 -0.8480481040810504689 -0.529919251551154491 I I #
edge $-1 $633 -187.2225104525894608 $637 187.2225104525894892 $631 $720 forward 7 unknown #
straight-curve $-1 22.63390250279973515 -72.84844628140118061 227.8065380682215277 -1 0 0 I I #
vertex $-1 $468 $721 #
straight-curve $-1 22.63390250279973515 125.5771789437276453 -89.74085199300481008 1 0 0 I I #
point $-1 28.34679857279838444 125.5771789437276453 -89.74085199300481008 #
point $-1 28.34679857279838444 -72.84844628140118061 227.8065380682215277 #
straight-curve $-1 16.92100643280108585 185.1380613617764084 168.2456556501728073 0 -0.529919251551154491 0.8480481040810504689 I I #
point $-1 16.92100643280108585 284.3508739743408569 9.471960619559638417 #
point $-1 16.92100643280108585 85.92524874921200251 327.0193506807859762 #
straight-curve $-1 28.34679857279838444 6.538401233905403842 277.412944374503752 0 -0.8480481040810504689 -0.529919251551154491 I I #
straight-curve $-1 28.34679857279838444 204.964026459034244 -40.13444568672258583 0 -0.8480481040810504689 -0.529919251551154491 I I #
edge $-1 $722 1 $722 0 $485 $-1 forward 7 unknown #
point $-1 20.68551847280031453 53.76995150706684967 22.18004101073734091 #
edge $-1 $723 1 $723 0 $489 $-1 forward 7 unknown #
point $-1 25.58228653279915576 53.76995150706684967 22.18004101073734091 #
plane-surface $-1 49.30324052113853384 105.7512138464698239 118.6392493438905831 -1 0 0 0 0.8480481040810504689 0.529919251551154491 forward_v I I I I #
coedge $-1 $498 $496 $500 $655 reversed $318 $-1 #
edge $-1 $511 -93.61125522629478724 $657 93.61125522629475881 $510 $724 forward 7 unknown #
vertex $-1 $655 $725 #
straight-curve $-1 37.87744838114123525 6.538401233905403842 277.412944374503752 0 -0.8480481040810504689 -0.529919251551154491 I I #
edge $-1 $653 -187.2225104525894608 $657 187.2225104525894892 $651 $726 forward 7 unknown #
straight-curve $-1 43.59034445113988454 -72.84844628140118061 227.8065380682215277 -1 0 0 I I #
vertex $-1 $503 $727 #
straight-curve $-1 43.59034445113988454 125.5771789437276453 -89.74085199300481008 1 0 0 I I #
point $-1 49.30324052113853384 125.5771789437276453 -89.74085199300481008 #
point $-1 49.30324052113853384 -72.84844628140118061 227.8065380682215277 #
straight-curve $-1 37.87744838114123525 185.1380613617764084 168.2456556501728073 0 -0.529919251551154491 0.8480481040810504689 I I #
point $-1 37.87744838114123525 284.3508739743408569 9.471960619559638417 #
point $-1 37.87744838114123525 85.92524874921200251 327.0193506807859762 #
straight-curve $-1 49.30324052113853384 6.538401233905403842 277.412944374503752 0 -0.8480481040810504689 -0.529919251551154491 I I #
straight-curve $-1 49.30324052113853384 204.964026459034244 -40.13444568672258583 0 -0.8480481040810504689 -0.529919251551154491 I I #
edge $-1 $728 1 $728 0 $520 $-1 forward 7 unknown #
point $-1 41.64196042114046037 53.76995150706684967 22.18004101073734091 #
edge $-1 $729 1 $729 0 $524 $-1 forward 7 unknown #
point $-1 46.53872848113930161 53.76995150706684967 22.18004101073734091 #
plane-surface $-1 70.25968246947867613 105.7512138464698239 118.6392493438905831 -1 0 0 0 0.8480481040810504689 0.529919251551154491 forward_v I I I I #
coedge $-1 $533 $531 $535 $675 reversed $347 $-1 #
edge $-1 $546 -93.61125522629478724 $677 93.61125522629475881 $545 $730 forward 7 unknown #
vertex $-1 $675 $731 #
straight-curve $-1 58.83389032948137753 6.538401233905403842 277.412944374503752 0 -0.8480481040810504689 -0.529919251551154491 I I #
edge $-1 $673 -187.2225104525894608 $677 187.2225104525894892 $671 $732 forward 7 unknown #
straight-curve $-1 64.54678639948002683 -72.84844628140118061 227.8065380682215277 -1 0 0 I I #
vertex $-1 $538 $733 #
straight-curve $-1 64.54678639948002683 125.5771789437276453 -89.74085199300481008 1 0 0 I I #
point $-1 70.25968246947867613 125.5771789437276453 -89.74085199300481008 #
point $-1 70.25968246947867613 -72.84844628140118061 227.8065380682215277 #
straight-curve $-1 58.83389032948137753 185.1380613617764084 168.2456556501728073 0 -0.529919251551154491 0.8480481040810504689 I I #
point $-1 58.83389032948137753 284.3508739743408569 9.471960619559638417 #
point $-1 58.83389032948137753 85.92524874921200251 327.0193506807859762 #
straight-curve $-1 70.25968246947867613 6.538401233905403842 277.412944374503752 0 -0.8480481040810504689 -0.529919251551154491 I I #
straight-curve $-1 70.25968246947867613 204.964026459034244 -40.13444568672258583 0 -0.8480481040810504689 -0.529919251551154491 I I #
edge $-1 $734 1 $734 0 $555 $-1 forward 7 unknown #
point $-1 62.59840236948060976 53.76995150706684967 22.18004101073734091 #
edge $-1 $735 1 $735 0 $559 $-1 forward 7 unknown #
point $-1 67.4951704294794439 53.76995150706684967 22.18004101073734091 #
plane-surface $-1 91.21612441781881842 105.7512138464698239 118.6392493438905831 -1 0 0 0 0.8480481040810504689 0.529919251551154491 forward_v I I I I #
coedge $-1 $568 $566 $570 $695 reversed $376 $-1 #
edge $-1 $581 -93.61125522629478724 $697 93.61125522629475881 $580 $736 forward 7 unknown #
vertex $-1 $695 $737 #
straight-curve $-1 79.79033227782151982 6.538401233905403842 277.412944374503752 0 -0.8480481040810504689 -0.529919251551154491 I I #
edge $-1 $693 -187.2225104525894608 $697 187.2225104525894892 $691 $738 forward 7 unknown #
straight-curve $-1 85.50322834782016912 -72.84844628140118061 227.8065380682215277 -1 0 0 I I #
vertex $-1 $573 $739 #
straight-curve $-1 85.50322834782016912 125.5771789437276453 -89.74085199300481008 1 0 0 I I #
point $-1 91.21612441781881842 125.5771789437276453 -89.74085199300481008 #
point $-1 91.21612441781881842 -72.84844628140118061 227.8065380682215277 #
straight-curve $-1 79.79033227782151982 185.1380613617764084 168.2456556501728073 0 -0.529919251551154491 0.8480481040810504689 I I #
point $-1 79.79033227782151982 284.3508739743408569 9.471960619559638417 #
point $-1 79.79033227782151982 85.92524874921200251 327.0193506807859762 #
straight-curve $-1 91.21612441781881842 6.538401233905403842 277.412944374503752 0 -0.8480481040810504689 -0.529919251551154491 I I #
straight-curve $-1 91.21612441781881842 204.964026459034244 -40.13444568672258583 0 -0.8480481040810504689 -0.529919251551154491 I I #
edge $-1 $740 1 $740 0 $590 $-1 forward 7 unknown #
point $-1 83.55484431782075205 53.76995150706684967 22.18004101073734091 #
edge $-1 $741 1 $741 0 $594 $-1 forward 7 unknown #
point $-1 88.45161237781958619 53.76995150706684967 22.18004101073734091 #
straight-curve $-1 0 56.08476079515992296 12.28586091224641841 0 0 -1 I I #
point $-1 0 0 0 #
straight-curve $-1 0 28.04238039757996148 0 0 1 0 I I #
point $-1 0 56.08476079515992296 0 #
straight-curve $-1 0 56.08476079515992296 21.84087643790986277 0 0 -1 I I #
point $-1 0 0 19.11003105132688518 #
straight-curve $-1 0 28.04238039757996148 19.11003105132688518 0 1 0 I I #
point $-1 0 56.08476079515992296 19.11003105132688518 #
straight-curve $-1 16.92100643280108585 204.964026459034244 -40.13444568672258583 0 -0.8480481040810504689 -0.529919251551154491 I I #
point $-1 16.92100643280108585 -72.84844628140118061 227.8065380682215277 #
straight-curve $-1 16.92100643280108585 26.36436633116322525 69.03284303760835883 0 0.529919251551154491 -0.8480481040810504689 I I #
point $-1 16.92100643280108585 125.5771789437276453 -89.74085199300481008 #
vertex $-1 $646 $742 #
vertex $-1 $648 $743 #
straight-curve $-1 37.87744838114123525 204.964026459034244 -40.13444568672258583 0 -0.8480481040810504689 -0.529919251551154491 I I #
point $-1 37.87744838114123525 -72.84844628140118061 227.8065380682215277 #
straight-curve $-1 37.87744838114123525 26.36436633116322525 69.03284303760835883 0 0.529919251551154491 -0.8480481040810504689 I I #
point $-1 37.87744838114123525 125.5771789437276453 -89.74085199300481008 #
vertex $-1 $666 $744 #
vertex $-1 $668 $745 #
straight-curve $-1 58.83389032948137753 204.964026459034244 -40.13444568672258583 0 -0.8480481040810504689 -0.529919251551154491 I I #
point $-1 58.83389032948137753 -72.84844628140118061 227.8065380682215277 #
straight-curve $-1 58.83389032948137753 26.36436633116322525 69.03284303760835883 0 0.529919251551154491 -0.8480481040810504689 I I #
point $-1 58.83389032948137753 125.5771789437276453 -89.74085199300481008 #
vertex $-1 $686 $746 #
vertex $-1 $688 $747 #
straight-curve $-1 79.79033227782151982 204.964026459034244 -40.13444568672258583 0 -0.8480481040810504689 -0.529919251551154491 I I #
point $-1 79.79033227782151982 -72.84844628140118061 227.8065380682215277 #
straight-curve $-1 79.79033227782151982 26.36436633116322525 69.03284303760835883 0 0.529919251551154491 -0.8480481040810504689 I I #
point $-1 79.79033227782151982 125.5771789437276453 -89.74085199300481008 #
vertex $-1 $706 $748 #
vertex $-1 $708 $749 #
point $-1 20.18551847280031453 53.34592745502632738 21.91508138496176628 #
point $-1 25.08228653279915576 53.34592745502632738 21.91508138496176628 #
point $-1 41.14196042114046037 53.34592745502632738 21.91508138496176628 #
point $-1 46.03872848113930161 53.34592745502632738 21.91508138496176628 #
point $-1 62.09840236948060976 53.34592745502632738 21.91508138496176628 #
point $-1 66.9951704294794439 53.34592745502632738 21.91508138496176628 #
point $-1 83.05484431782075205 53.34592745502632738 21.91508138496176628 #
point $-1 87.95161237781958619 53.34592745502632738 21.91508138496176628 #
End-of-ACIS-data 