600 0 5 0           
92 GICL ACIS Healer - Source: /gicl/data5/repository/Drexel/SM99-DATA/part92.smdg.des.sat - 6 0 18 ACIS 6.0.3 Solaris 24 Sat Apr 13 20:46:53 2002 
1 9.999999999999999547e-07 1.000000000000000036e-10 
body $-1 $5 $-1 $-1 #
body $-1 $6 $-1 $-1 #
body $-1 $7 $-1 $-1 #
body $-1 $8 $-1 $-1 #
body $-1 $9 $-1 $-1 #
lump $-1 $-1 $10 $0 #
lump $-1 $-1 $11 $1 #
lump $-1 $-1 $12 $2 #
lump $-1 $-1 $13 $3 #
lump $-1 $-1 $14 $4 #
shell $-1 $-1 $-1 $15 $-1 $5 #
shell $-1 $-1 $-1 $16 $-1 $6 #
shell $-1 $-1 $-1 $17 $-1 $7 #
shell $-1 $-1 $-1 $18 $-1 $8 #
shell $-1 $-1 $-1 $19 $-1 $9 #
face $-1 $20 $21 $10 $-1 $22 forward single #
face $-1 $23 $24 $11 $-1 $25 forward single #
face $-1 $26 $27 $12 $-1 $28 reversed single #
face $-1 $29 $30 $13 $-1 $31 forward single #
face $-1 $32 $33 $14 $-1 $34 reversed single #
face $-1 $35 $36 $10 $-1 $37 reversed single #
loop $-1 $-1 $38 $15 #
plane-surface $-1 77.73186437574389629 46.012367364480383 31.10788214439326538 0 0 1 1 0 0 forward_v I I I I #
face $-1 $39 $40 $11 $-1 $41 forward single #
loop $-1 $-1 $42 $16 #
plane-surface $-1 125.4737595533819245 -99.93015982536761044 136.2981116382108553 -1 0 0 0 -0.6427876175870461672 0.7660444364896655811 forward_v I I I I #
face $-1 $43 $44 $12 $-1 $45 reversed single #
loop $-1 $46 $47 $17 #
cone-surface $-1 108.495727382271923 9.358519630557033508 22.87615333078366575 0 0.6427876175870461672 -0.7660444364896655811 3 0 0 1 I I 0 1 3 forward I I I I #
face $-1 $48 $49 $13 $-1 $50 forward single #
loop $-1 $-1 $51 $18 #
plane-surface $-1 31.0808844470998622 108.9544491264081358 201.1686493505746398 -1 0 0 0 0.5877852598018022956 0.8090169889191003438 forward_v I I I I #
face $-1 $52 $53 $14 $-1 $54 reversed single #
loop $-1 $55 $56 $19 #
cone-surface $-1 15.5404422235499311 83.48684708039834845 23.74043911658475281 0 -0.5877852598018022956 -0.8090169889191003438 2 0 0 1 I I 0 1 2 forward I I I I #
face $-1 $57 $58 $10 $-1 $59 reversed single #
loop $-1 $-1 $60 $20 #
plane-surface $-1 77.73186437574389629 46.012367364480383 0 0 0 1 1 0 0 forward_v I I I I #
coedge $-1 $61 $62 $63 $64 forward $21 $-1 #
face $-1 $65 $66 $11 $-1 $67 forward single #
loop $-1 $-1 $68 $23 #
plane-surface $-1 108.495727382271923 0 17.20598715219515995 0 -0.6427876175870461672 0.7660444364896655811 1 0 0 forward_v I I I I #
coedge $-1 $69 $70 $71 $72 reversed $24 $-1 #
face $-1 $73 $74 $12 $-1 $75 forward single #
loop $-1 $76 $77 $26 #
cone-surface $-1 108.495727382271923 11.39740421058906605 20.44630535853861986 0 0.6427876175870461672 -0.7660444364896655811 1.5 0 0 1 I I -0.7071067811865475727 0.7071067811865475727 1.5 forward I I I I #
loop $-1 $-1 $78 $17 #
coedge $-1 $47 $47 $79 $80 reversed $27 $-1 #
face $-1 $81 $82 $13 $-1 $83 reversed single #
loop $-1 $-1 $84 $29 #
plane-surface $-1 15.5404422235499311 17.57516093245796185 75.39585162991022571 0 0.5877852598018022956 0.8090169889191003438 1 0 0 forward_v I I I I #
coedge $-1 $85 $86 $87 $88 reversed $30 $-1 #
face $-1 $89 $90 $14 $-1 $91 forward single #
loop $-1 $92 $93 $32 #
cone-surface $-1 15.5404422235499311 81.10738141808779744 20.46538566252573332 0 -0.5877852598018022956 -0.8090169889191003438 1 0 0 1 I I -0.7071067811865474617 0.7071067811865474617 1 forward I I I I #
loop $-1 $-1 $94 $19 #
coedge $-1 $56 $56 $95 $96 reversed $33 $-1 #
face $-1 $97 $98 $10 $-1 $99 reversed single #
loop $-1 $-1 $100 $35 #
plane-surface $-1 77.73186437574389629 0 15.55394107219663269 0 1 0 0 0 1 forward_v I I I I #
coedge $-1 $101 $102 $103 $104 forward $36 $-1 #
coedge $-1 $105 $38 $106 $107 forward $21 $-1 #
coedge $-1 $38 $105 $108 $109 forward $21 $-1 #
coedge $-1 $110 $111 $38 $64 reversed $112 $-1 #
edge $-1 $113 -46.012367364480383 $114 46.012367364480383 $63 $115 forward 7 unknown #
face $-1 $116 $117 $11 $-1 $118 forward single #
loop $-1 $-1 $119 $39 #
plane-surface $-1 91.51769521116192152 -99.93015982536761044 136.2981116382108553 1 0 0 0 0.6427876175870461672 -0.7660444364896655811 forward_v I I I I #
coedge $-1 $120 $121 $122 $123 reversed $40 $-1 #
coedge $-1 $70 $42 $121 $124 forward $24 $-1 #
coedge $-1 $42 $69 $125 $126 reversed $24 $-1 #
coedge $-1 $127 $122 $42 $72 forward $117 $-1 #
edge $-1 $128 -43.52652918425475548 $129 -26.95889623044361372 $71 $130 forward 7 unknown #
face $-1 $131 $132 $12 $-1 $133 forward single #
loop $-1 $-1 $134 $43 #
plane-surface $-1 125.4737595533819245 -99.93015982536761044 136.2981116382108553 -1 0 0 0 -0.6427876175870461672 0.7660444364896655811 forward_v I I I I #
loop $-1 $-1 $135 $26 #
coedge $-1 $77 $77 $78 $136 forward $44 $-1 #
coedge $-1 $78 $78 $77 $136 reversed $46 $-1 #
coedge $-1 $79 $79 $47 $80 forward $132 $-1 #
edge $-1 $137 0 $137 6.283185307179586232 $79 $138 forward 7 unknown #
face $-1 $139 $140 $13 $-1 $141 forward single #
loop $-1 $-1 $142 $48 #
plane-surface $-1 77.73186437574389629 92.02473472896076601 15.55394107219663269 0 -1 0 0 0 -1 forward_v I I I I #
coedge $-1 $143 $144 $142 $145 reversed $49 $-1 #
coedge $-1 $86 $51 $144 $146 forward $30 $-1 #
coedge $-1 $51 $85 $147 $148 reversed $30 $-1 #
coedge $-1 $149 $142 $51 $88 forward $82 $-1 #
edge $-1 $150 -87.05622619232956083 $151 -77.25341306699237975 $87 $152 forward 7 unknown #
face $-1 $153 $154 $14 $-1 $155 forward single #
loop $-1 $-1 $156 $52 #
plane-surface $-1 31.0808844470998622 108.9544491264081358 201.1686493505746398 -1 0 0 0 0.5877852598018022956 0.8090169889191003438 forward_v I I I I #
loop $-1 $-1 $157 $32 #
coedge $-1 $93 $93 $94 $158 forward $53 $-1 #
coedge $-1 $94 $94 $93 $158 reversed $55 $-1 #
coedge $-1 $95 $95 $56 $96 forward $154 $-1 #
edge $-1 $159 2.088232732695169231e-15 $159 6.283185307179588008 $95 $160 forward 7 unknown #
face $-1 $161 $162 $10 $-1 $163 reversed single #
loop $-1 $-1 $164 $57 #
plane-surface $-1 0 46.012367364480383 15.55394107219663269 1 0 0 0 0 -1 forward_v I I I I #
coedge $-1 $165 $108 $166 $167 forward $58 $-1 #
coedge $-1 $168 $60 $165 $169 forward $36 $-1 #
coedge $-1 $60 $168 $170 $171 forward $36 $-1 #
coedge $-1 $111 $110 $60 $104 reversed $112 $-1 #
edge $-1 $172 -46.012367364480383 $173 46.012367364480383 $103 $174 forward 7 unknown #
coedge $-1 $62 $61 $175 $176 forward $21 $-1 #
coedge $-1 $177 $178 $61 $107 reversed $162 $-1 #
edge $-1 $114 -77.73186437574389629 $179 77.73186437574389629 $106 $180 forward 7 unknown #
coedge $-1 $100 $181 $62 $109 reversed $58 $-1 #
edge $-1 $182 -77.73186437574389629 $113 77.73186437574389629 $108 $183 forward 7 unknown #
coedge $-1 $103 $63 $181 $184 forward $112 $-1 #
coedge $-1 $63 $103 $177 $185 reversed $112 $-1 #
loop $-1 $-1 $110 $161 #
vertex $-1 $64 $186 #
vertex $-1 $64 $187 #
straight-curve $-1 155.4637287514877926 46.012367364480383 31.10788214439326538 0 1 0 I I #
face $-1 $188 $189 $11 $-1 $190 reversed single #
loop $-1 $-1 $191 $65 #
plane-surface $-1 77.73186437574389629 46.012367364480383 31.10788214439326538 0 0 1 1 0 0 forward_v I I I I #
coedge $-1 $192 $193 $191 $194 reversed $66 $-1 #
coedge $-1 $195 $68 $193 $196 reversed $40 $-1 #
coedge $-1 $68 $195 $69 $124 reversed $40 $-1 #
coedge $-1 $71 $191 $68 $123 forward $117 $-1 #
edge $-1 $197 -1.596100667845988141 $128 32.35996367437401489 $122 $198 forward 7 unknown #
edge $-1 $128 -21.62750901205018295 $199 0 $69 $200 forward 7 unknown #
coedge $-1 $201 $202 $70 $126 forward $203 $-1 #
edge $-1 $129 44.81814421081048039 $199 58.72003920300858226 $125 $204 forward 7 unknown #
coedge $-1 $205 $71 $202 $206 forward $117 $-1 #
vertex $-1 $123 $207 #
vertex $-1 $206 $208 #
straight-curve $-1 125.4737595533819245 -26.95889623044361372 31.10788214439326893 0 -1 0 I I #
face $-1 $209 $210 $12 $-1 $211 forward single #
loop $-1 $212 $79 $73 #
plane-surface $-1 108.495727382271923 0 17.20598715219515995 0 -0.6427876175870461672 0.7660444364896655811 1 0 0 forward_v I I I I #
coedge $-1 $213 $214 $215 $216 reversed $74 $-1 #
coedge $-1 $135 $135 $-1 $217 forward $76 $-1 #
edge $-1 $218 0 $218 6.283185307179586232 $77 $219 forward 7 unknown #
vertex $-1 $80 $220 #
ellipse-curve $-1 108.495727382271923 8.28381647690557088 24.15693464829421089 0 0.6427876175870461672 -0.7660444364896655811 3 0 0 1 I I #
face $-1 $221 $222 $13 $-1 $223 reversed single #
loop $-1 $-1 $147 $81 #
plane-surface $-1 77.73186437574389629 46.012367364480383 31.10788214439326538 0 0 1 1 0 0 forward_v I I I I #
coedge $-1 $87 $224 $84 $145 forward $82 $-1 #
coedge $-1 $225 $84 $226 $227 reversed $49 $-1 #
coedge $-1 $84 $225 $85 $146 reversed $49 $-1 #
edge $-1 $228 -46.63615329964691369 $150 -15.55526885254705149 $142 $229 forward 7 unknown #
edge $-1 $150 -92.02473472896076601 $230 -75.34719312364279631 $85 $231 forward 7 unknown #
coedge $-1 $232 $233 $86 $148 forward $140 $-1 #
edge $-1 $151 -14.54132648351651369 $230 -1.04891199140914182 $147 $234 forward 7 unknown #
coedge $-1 $235 $87 $233 $236 reversed $82 $-1 #
vertex $-1 $145 $237 #
vertex $-1 $148 $238 #
straight-curve $-1 31.0808844470998622 92.02473472896076601 108.361295211385638 0 0 1 I I #
face $-1 $239 $240 $14 $-1 $241 reversed single #
loop $-1 $242 $95 $89 #
plane-surface $-1 15.5404422235499311 17.57516093245796185 75.39585162991022571 0 0.5877852598018022956 0.8090169889191003438 1 0 0 forward_v I I I I #
coedge $-1 $243 $244 $245 $246 reversed $90 $-1 #
coedge $-1 $157 $157 $-1 $247 forward $92 $-1 #
edge $-1 $248 0 $248 6.283185307179586232 $93 $249 forward 7 unknown #
vertex $-1 $96 $250 #
ellipse-curve $-1 15.5404422235499311 85.27852748290709428 26.20647558172466773 0 -0.5877852598018022956 -0.8090169889191003438 2 0 0 1 I I #
face $-1 $-1 $112 $10 $-1 $251 reversed single #
loop $-1 $-1 $177 $97 #
plane-surface $-1 77.73186437574389629 92.02473472896076601 15.55394107219663269 0 -1 0 0 0 -1 forward_v I I I I #
coedge $-1 $252 $175 $178 $253 forward $98 $-1 #
coedge $-1 $181 $100 $101 $169 reversed $58 $-1 #
coedge $-1 $175 $252 $100 $167 reversed $98 $-1 #
edge $-1 $182 -15.55394107219663269 $254 15.55394107219663269 $166 $255 forward 7 unknown #
coedge $-1 $102 $101 $252 $256 forward $36 $-1 #
edge $-1 $173 -77.73186437574389629 $254 77.73186437574389629 $165 $257 forward 7 unknown #
coedge $-1 $178 $177 $102 $171 reversed $162 $-1 #
edge $-1 $258 -77.73186437574389629 $172 77.73186437574389629 $170 $259 forward 7 unknown #
vertex $-1 $104 $260 #
vertex $-1 $184 $261 #
straight-curve $-1 155.4637287514877926 46.012367364480383 0 0 -1 0 I I #
coedge $-1 $164 $166 $105 $176 reversed $98 $-1 #
edge $-1 $179 -46.012367364480383 $182 46.012367364480383 $175 $262 forward 7 unknown #
coedge $-1 $170 $106 $111 $185 forward $162 $-1 #
coedge $-1 $106 $170 $164 $253 reversed $162 $-1 #
vertex $-1 $107 $263 #
straight-curve $-1 77.73186437574389629 92.02473472896076601 31.10788214439326538 -1 0 0 I I #
coedge $-1 $108 $165 $110 $184 reversed $58 $-1 #
vertex $-1 $176 $264 #
straight-curve $-1 77.73186437574389629 0 31.10788214439326538 1 0 0 I I #
edge $-1 $113 -15.55394107219663269 $173 15.55394107219663269 $110 $265 forward 7 unknown #
edge $-1 $114 -15.55394107219663269 $172 15.55394107219663269 $111 $266 forward 7 unknown #
point $-1 155.4637287514877926 0 31.10788214439326538 #
point $-1 155.4637287514877926 92.02473472896076601 31.10788214439326538 #
face $-1 $267 $203 $11 $-1 $268 reversed single #
loop $-1 $-1 $269 $116 #
plane-surface $-1 77.73186437574389629 46.012367364480383 0 0 0 1 1 0 0 forward_v I I I I #
coedge $-1 $122 $270 $119 $194 forward $117 $-1 #
coedge $-1 $193 $119 $271 $272 reversed $66 $-1 #
coedge $-1 $119 $192 $120 $196 forward $66 $-1 #
edge $-1 $273 26.95889623044361372 $197 43.52652918425475548 $191 $274 forward 7 unknown #
coedge $-1 $121 $120 $201 $275 reversed $40 $-1 #
edge $-1 $276 0 $197 21.62750901205018295 $193 $277 forward 7 unknown #
vertex $-1 $123 $278 #
straight-curve $-1 93.11379587900790966 16.56763295381114176 31.10788214439326538 1 0 0 I I #
vertex $-1 $275 $279 #
straight-curve $-1 125.4737595533819245 0 17.20598715219515995 0 -0.7660444364896655811 -0.6427876175870461672 I I #
coedge $-1 $271 $125 $195 $275 forward $203 $-1 #
coedge $-1 $125 $280 $127 $206 reversed $203 $-1 #
loop $-1 $-1 $271 $188 #
straight-curve $-1 125.4737595533819245 0 75.92602635520374577 0 0 -1 I I #
coedge $-1 $281 $127 $282 $283 forward $117 $-1 #
edge $-1 $129 47.74189517763802826 $284 77.73186437574389629 $202 $285 forward 7 unknown #
point $-1 125.4737595533819245 16.56763295381114531 31.10788214439326538 #
point $-1 125.4737595533819245 0 31.10788214439326538 #
face $-1 $286 $287 $12 $-1 $288 forward single #
loop $-1 $-1 $289 $131 #
plane-surface $-1 91.51769521116192152 -99.93015982536761044 136.2981116382108553 1 0 0 0 0.6427876175870461672 -0.7660444364896655811 forward_v I I I I #
loop $-1 $-1 $290 $73 #
coedge $-1 $214 $134 $291 $292 forward $74 $-1 #
coedge $-1 $134 $213 $293 $294 reversed $74 $-1 #
coedge $-1 $295 $296 $134 $216 forward $287 $-1 #
edge $-1 $297 -43.52652918425475548 $298 -26.95889623044361372 $215 $299 forward 7 unknown #
edge $-1 $300 1 $300 0 $135 $-1 forward 7 unknown #
vertex $-1 $136 $301 #
ellipse-curve $-1 108.495727382271923 10.43322278420849614 21.59537201327311706 0 -0.6427876175870461672 0.7660444364896655811 3 0 0 1 I I #
point $-1 111.495727382271923 8.28381647690557088 24.15693464829421089 #
face $-1 $302 $303 $13 $-1 $304 reversed single #
loop $-1 $305 $306 $139 #
cone-surface $-1 108.495727382271923 9.358519630557033508 22.87615333078366575 0 0.6427876175870461672 -0.7660444364896655811 3 0 0 1 I I 0 1 3 forward I I I I #
coedge $-1 $142 $307 $308 $309 reversed $82 $-1 #
coedge $-1 $144 $143 $232 $310 reversed $49 $-1 #
coedge $-1 $308 $311 $143 $227 forward $312 $-1 #
edge $-1 $313 46.25700509108901315 $228 62.93454669640698995 $226 $314 forward 7 unknown #
vertex $-1 $309 $315 #
straight-curve $-1 46.63615329964691369 92.02473472896076601 21.3050690190560772 1 0 0 I I #
vertex $-1 $310 $316 #
straight-curve $-1 31.0808844470998622 17.57516093245796185 75.39585162991022571 0 -0.8090169889191003438 0.5877852598018022956 I I #
coedge $-1 $317 $147 $225 $310 forward $140 $-1 #
coedge $-1 $147 $318 $149 $236 forward $140 $-1 #
straight-curve $-1 31.0808844470998622 77.48340824544425232 31.10788214439326893 0 -1 0 I I #
coedge $-1 $307 $149 $319 $320 forward $82 $-1 #
edge $-1 $321 -77.73186437574389629 $151 46.65097992864403409 $149 $322 forward 7 unknown #
point $-1 31.0808844470998622 92.02473472896076601 21.30506901905608075 #
point $-1 31.0808844470998622 92.02473472896076601 31.10788214439326538 #
face $-1 $323 $324 $14 $-1 $325 forward single #
loop $-1 $-1 $326 $153 #
plane-surface $-1 77.73186437574389629 92.02473472896076601 15.55394107219663269 0 -1 0 0 0 -1 forward_v I I I I #
loop $-1 $-1 $327 $89 #
coedge $-1 $244 $156 $328 $329 forward $90 $-1 #
coedge $-1 $156 $243 $330 $331 reversed $90 $-1 #
coedge $-1 $332 $326 $156 $246 forward $240 $-1 #
edge $-1 $333 -87.05622619232956083 $334 -77.25341306699237975 $245 $335 forward 7 unknown #
edge $-1 $336 1 $336 0 $157 $-1 forward 7 unknown #
vertex $-1 $158 $337 #
ellipse-curve $-1 15.5404422235499311 81.69516667788960262 21.27440265144483433 0 0.5877852598018022956 0.8090169889191003438 2 0 0 1 I I #
point $-1 17.5404422235499311 85.27852748290709428 26.20647558172467484 #
plane-surface $-1 155.4637287514877926 46.012367364480383 15.55394107219663269 -1 0 0 0 0 1 forward_v I I I I #
coedge $-1 $166 $164 $168 $256 reversed $98 $-1 #
edge $-1 $179 -15.55394107219663269 $258 15.55394107219663269 $178 $338 forward 7 unknown #
vertex $-1 $256 $339 #
straight-curve $-1 0 0 15.55394107219663269 0 0 -1 I I #
edge $-1 $254 -46.012367364480383 $258 46.012367364480383 $252 $340 forward 7 unknown #
straight-curve $-1 77.73186437574389629 0 0 -1 0 0 I I #
vertex $-1 $171 $341 #
straight-curve $-1 77.73186437574389629 92.02473472896076601 0 1 0 0 I I #
point $-1 155.4637287514877926 92.02473472896076601 0 #
point $-1 155.4637287514877926 0 0 #
straight-curve $-1 0 46.012367364480383 31.10788214439326538 0 -1 0 I I #
point $-1 0 92.02473472896076601 31.10788214439326538 #
point $-1 0 0 31.10788214439326538 #
straight-curve $-1 155.4637287514877926 0 15.55394107219663269 0 0 -1 I I #
straight-curve $-1 155.4637287514877926 92.02473472896076601 15.55394107219663269 0 0 -1 I I #
face $-1 $342 $343 $11 $-1 $344 reversed single #
plane-surface $-1 77.73186437574389629 0 15.55394107219663269 0 1 0 0 0 1 forward_v I I I I #
coedge $-1 $345 $346 $347 $348 forward $189 $-1 #
coedge $-1 $191 $349 $350 $351 forward $117 $-1 #
coedge $-1 $350 $201 $192 $272 forward $203 $-1 #
edge $-1 $276 -58.72003920300858226 $273 -44.81814421081048039 $271 $352 forward 7 unknown #
vertex $-1 $272 $353 #
straight-curve $-1 91.51769521116192152 -26.95889623044361372 31.10788214439326893 0 1 0 I I #
edge $-1 $199 -32.35996367437401489 $276 1.596100667845988141 $201 $354 forward 7 unknown #
vertex $-1 $275 $355 #
straight-curve $-1 91.51769521116192152 0 17.20598715219515995 0 0.7660444364896655811 0.6427876175870461672 I I #
point $-1 91.51769521116192152 16.56763295381114531 31.10788214439326538 #
point $-1 125.4737595533819245 0 17.20598715219515995 #
coedge $-1 $202 $356 $357 $358 reversed $203 $-1 #
coedge $-1 $349 $205 $359 $360 forward $117 $-1 #
coedge $-1 $357 $361 $205 $283 reversed $362 $-1 #
edge $-1 $284 -46.012367364480383 $363 46.012367364480383 $282 $364 forward 7 unknown #
vertex $-1 $283 $365 #
straight-curve $-1 77.73186437574389629 0 31.10788214439326538 1 0 0 I I #
face $-1 $366 $367 $12 $-1 $368 reversed single #
loop $-1 $-1 $369 $209 #
plane-surface $-1 77.73186437574389629 46.012367364480383 31.10788214439326538 0 0 1 1 0 0 forward_v I I I I #
coedge $-1 $370 $371 $369 $372 reversed $210 $-1 #
coedge $-1 $373 $291 $296 $374 reversed $212 $-1 #
coedge $-1 $290 $375 $213 $292 reversed $212 $-1 #
edge $-1 $297 -21.62750901205018295 $376 0 $213 $377 forward 7 unknown #
coedge $-1 $378 $379 $214 $294 forward $380 $-1 #
edge $-1 $298 44.81814421081048039 $376 58.72003920300858226 $293 $381 forward 7 unknown #
coedge $-1 $382 $215 $379 $383 forward $287 $-1 #
coedge $-1 $215 $369 $290 $374 forward $287 $-1 #
vertex $-1 $374 $384 #
vertex $-1 $383 $385 #
straight-curve $-1 125.4737595533819245 -26.95889623044361372 31.10788214439326893 0 -1 0 I I #
vertex $-1 $217 $386 #
point $-1 111.495727382271923 10.43322278420849614 21.59537201327311706 #
face $-1 $387 $388 $13 $-1 $389 forward single #
loop $-1 $390 $391 $221 #
cone-surface $-1 108.495727382271923 11.39740421058906605 20.44630535853861986 0 0.6427876175870461672 -0.7660444364896655811 1.5 0 0 1 I I -0.7071067811865475727 0.7071067811865475727 1.5 forward I I I I #
loop $-1 $-1 $392 $139 #
coedge $-1 $306 $306 $393 $394 reversed $222 $-1 #
coedge $-1 $224 $235 $395 $396 reversed $82 $-1 #
coedge $-1 $397 $226 $224 $309 forward $312 $-1 #
edge $-1 $228 -5.751127946859451612 $398 15.55394107219663269 $224 $399 forward 7 unknown #
edge $-1 $230 15.55526885254705149 $313 46.63615329964691369 $232 $400 forward 7 unknown #
coedge $-1 $226 $401 $317 $402 reversed $312 $-1 #
loop $-1 $-1 $226 $403 #
vertex $-1 $402 $404 #
straight-curve $-1 0 41.10961726164507013 58.29706789951232793 0 0.8090169889191003438 -0.5877852598018022956 I I #
point $-1 0 92.02473472896076601 21.3050690190560843 #
point $-1 31.0808844470998622 78.53232023685339414 31.10788214439326893 #
coedge $-1 $405 $232 $311 $402 forward $140 $-1 #
coedge $-1 $233 $406 $407 $408 forward $140 $-1 #
coedge $-1 $407 $409 $235 $320 reversed $410 $-1 #
edge $-1 $321 -15.55394107219663269 $411 15.55394107219663269 $319 $412 forward 7 unknown #
vertex $-1 $408 $413 #
straight-curve $-1 77.73186437574389629 92.02473472896076601 31.10788214439326538 -1 0 0 I I #
face $-1 $414 $415 $14 $-1 $416 reversed single #
loop $-1 $-1 $330 $239 #
plane-surface $-1 77.73186437574389629 46.012367364480383 31.10788214439326538 0 0 1 1 0 0 forward_v I I I I #
coedge $-1 $245 $417 $327 $418 forward $240 $-1 #
coedge $-1 $419 $328 $326 $418 reversed $242 $-1 #
coedge $-1 $327 $420 $243 $329 reversed $242 $-1 #
edge $-1 $333 -92.02473472896076601 $421 -75.34719312364279631 $243 $422 forward 7 unknown #
coedge $-1 $423 $424 $244 $331 forward $324 $-1 #
edge $-1 $334 -14.54132648351651369 $421 -1.04891199140914182 $330 $425 forward 7 unknown #
coedge $-1 $426 $245 $424 $427 reversed $240 $-1 #
vertex $-1 $418 $428 #
vertex $-1 $331 $429 #
straight-curve $-1 31.0808844470998622 92.02473472896076601 108.361295211385638 0 0 1 I I #
vertex $-1 $247 $430 #
point $-1 17.5404422235499311 81.69516667788960262 21.27440265144483433 #
straight-curve $-1 0 92.02473472896076601 15.55394107219663269 0 0 -1 I I #
point $-1 0 0 0 #
straight-curve $-1 0 46.012367364480383 0 0 1 0 I I #
point $-1 0 92.02473472896076601 0 #
face $-1 $431 $432 $11 $-1 $433 reversed single #
loop $-1 $-1 $434 $267 #
plane-surface $-1 0 46.012367364480383 15.55394107219663269 1 0 0 0 0 -1 forward_v I I I I #
coedge $-1 $435 $269 $356 $436 forward $189 $-1 #
coedge $-1 $269 $435 $437 $438 forward $189 $-1 #
coedge $-1 $361 $357 $269 $348 reversed $362 $-1 #
edge $-1 $439 -46.012367364480383 $440 46.012367364480383 $347 $441 forward 7 unknown #
coedge $-1 $270 $281 $442 $443 forward $117 $-1 #
coedge $-1 $444 $271 $270 $351 reversed $203 $-1 #
edge $-1 $445 -77.73186437574389629 $273 13.78583083541802523 $350 $285 forward 7 unknown #
straight-curve $-1 91.51769521116192152 0 75.92602635520374577 0 0 1 I I #
point $-1 91.51769521116192152 0 31.10788214439326538 #
straight-curve $-1 93.11379587900790966 0 17.20598715219515995 -1 0 0 I I #
point $-1 91.51769521116192152 0 17.20598715219515995 #
coedge $-1 $280 $444 $345 $436 reversed $203 $-1 #
coedge $-1 $347 $282 $280 $358 forward $362 $-1 #
edge $-1 $284 -15.55394107219663269 $440 15.55394107219663269 $357 $446 forward 7 unknown #
coedge $-1 $447 $448 $281 $360 reversed $432 $-1 #
edge $-1 $363 -77.73186437574389629 $449 77.73186437574389629 $359 $450 forward 7 unknown #
coedge $-1 $282 $347 $447 $451 reversed $362 $-1 #
loop $-1 $-1 $357 $431 #
vertex $-1 $283 $452 #
straight-curve $-1 155.4637287514877926 46.012367364480383 31.10788214439326538 0 1 0 I I #
point $-1 155.4637287514877926 0 31.10788214439326538 #
face $-1 $453 $380 $12 $-1 $454 reversed single #
loop $-1 $-1 $455 $286 #
plane-surface $-1 77.73186437574389629 46.012367364480383 0 0 0 1 1 0 0 forward_v I I I I #
coedge $-1 $296 $456 $289 $372 forward $287 $-1 #
coedge $-1 $371 $289 $457 $458 reversed $210 $-1 #
coedge $-1 $289 $370 $373 $459 forward $210 $-1 #
edge $-1 $460 26.95889623044361372 $461 43.52652918425475548 $369 $462 forward 7 unknown #
coedge $-1 $375 $290 $371 $459 reversed $212 $-1 #
edge $-1 $461 -1.596100667845988141 $297 32.35996367437401489 $296 $463 forward 7 unknown #
coedge $-1 $291 $373 $378 $464 reversed $212 $-1 #
vertex $-1 $464 $465 #
straight-curve $-1 125.4737595533819245 0 17.20598715219515995 0 -0.7660444364896655811 -0.6427876175870461672 I I #
coedge $-1 $457 $293 $375 $464 forward $380 $-1 #
coedge $-1 $293 $466 $295 $383 reversed $380 $-1 #
loop $-1 $-1 $457 $366 #
straight-curve $-1 125.4737595533819245 0 75.92602635520374577 0 0 -1 I I #
coedge $-1 $467 $295 $468 $469 forward $287 $-1 #
edge $-1 $298 47.74189517763802826 $470 77.73186437574389629 $379 $471 forward 7 unknown #
point $-1 125.4737595533819245 16.56763295381114531 31.10788214439326538 #
point $-1 125.4737595533819245 0 31.10788214439326538 #
point $-1 108.495727382271923 12.36158563696963597 19.29723870380412265 #
face $-1 $472 $473 $13 $-1 $474 forward single #
loop $-1 $-1 $475 $302 #
plane-surface $-1 125.4737595533819245 -99.93015982536761044 136.2981116382108553 -1 0 0 0 -0.6427876175870461672 0.7660444364896655811 forward_v I I I I #
loop $-1 $-1 $476 $221 #
coedge $-1 $391 $391 $392 $477 forward $303 $-1 #
coedge $-1 $392 $392 $391 $477 reversed $305 $-1 #
coedge $-1 $393 $393 $306 $394 forward $473 $-1 #
edge $-1 $478 0 $478 6.283185307179586232 $393 $479 forward 7 unknown #
coedge $-1 $480 $481 $307 $396 forward $482 $-1 #
edge $-1 $398 -77.73186437574389629 $411 77.73186437574389629 $307 $483 forward 7 unknown #
coedge $-1 $401 $308 $481 $484 reversed $312 $-1 #
vertex $-1 $396 $485 #
straight-curve $-1 0 92.02473472896076601 15.55394107219663269 0 0 -1 I I #
straight-curve $-1 46.63615329964691369 78.53232023685339414 31.10788214439326893 -1 0 0 I I #
coedge $-1 $311 $397 $486 $487 reversed $312 $-1 #
edge $-1 $313 -32.51995287237301113 $488 46.012367364480383 $311 $489 forward 7 unknown #
face $-1 $490 $312 $13 $-1 $491 reversed single #
point $-1 0 78.53232023685339414 31.10788214439326893 #
coedge $-1 $492 $317 $493 $494 forward $140 $-1 #
coedge $-1 $318 $495 $496 $497 forward $140 $-1 #
coedge $-1 $498 $319 $318 $408 reversed $410 $-1 #
edge $-1 $499 -46.012367364480383 $321 46.012367364480383 $407 $500 forward 7 unknown #
coedge $-1 $319 $498 $480 $501 reversed $410 $-1 #
loop $-1 $-1 $498 $490 #
vertex $-1 $501 $502 #
straight-curve $-1 155.4637287514877926 92.02473472896076601 15.55394107219663269 0 0 -1 I I #
point $-1 155.4637287514877926 92.02473472896076601 31.10788214439326538 #
face $-1 $503 $504 $14 $-1 $505 reversed single #
loop $-1 $506 $507 $323 #
cone-surface $-1 108.495727382271923 9.358519630557033508 22.87615333078366575 0 0.6427876175870461672 -0.7660444364896655811 3 0 0 1 I I 0 1 3 forward I I I I #
coedge $-1 $326 $508 $509 $510 reversed $240 $-1 #
edge $-1 $511 -46.63615329964691369 $333 -15.55526885254705149 $326 $512 forward 7 unknown #
coedge $-1 $420 $327 $513 $514 reversed $242 $-1 #
coedge $-1 $328 $419 $423 $515 reversed $242 $-1 #
vertex $-1 $515 $516 #
straight-curve $-1 31.0808844470998622 17.57516093245796185 75.39585162991022571 0 -0.8090169889191003438 0.5877852598018022956 I I #
coedge $-1 $517 $330 $420 $515 forward $324 $-1 #
coedge $-1 $330 $518 $332 $427 forward $324 $-1 #
straight-curve $-1 31.0808844470998622 77.48340824544425232 31.10788214439326893 0 -1 0 I I #
coedge $-1 $508 $332 $519 $520 forward $240 $-1 #
edge $-1 $521 -77.73186437574389629 $334 46.65097992864403409 $332 $522 forward 7 unknown #
point $-1 31.0808844470998622 92.02473472896076601 21.30506901905608075 #
point $-1 31.0808844470998622 92.02473472896076601 31.10788214439326538 #
point $-1 15.5404422235499311 80.51959615828599226 19.65636867360663231 #
face $-1 $-1 $362 $11 $-1 $523 reversed single #
loop $-1 $-1 $447 $342 #
plane-surface $-1 77.73186437574389629 92.02473472896076601 15.55394107219663269 0 -1 0 0 0 -1 forward_v I I I I #
coedge $-1 $524 $442 $448 $525 forward $343 $-1 #
coedge $-1 $346 $345 $524 $526 forward $189 $-1 #
edge $-1 $440 -77.73186437574389629 $527 77.73186437574389629 $356 $528 forward 7 unknown #
coedge $-1 $448 $447 $346 $438 reversed $432 $-1 #
edge $-1 $529 -77.73186437574389629 $439 77.73186437574389629 $437 $530 forward 7 unknown #
vertex $-1 $348 $531 #
vertex $-1 $358 $532 #
straight-curve $-1 155.4637287514877926 46.012367364480383 0 0 -1 0 I I #
coedge $-1 $434 $533 $349 $443 reversed $343 $-1 #
edge $-1 $449 -46.012367364480383 $445 46.012367364480383 $442 $534 forward 7 unknown #
coedge $-1 $356 $350 $533 $535 forward $203 $-1 #
vertex $-1 $443 $536 #
straight-curve $-1 155.4637287514877926 0 15.55394107219663269 0 0 -1 I I #
coedge $-1 $437 $359 $361 $451 forward $432 $-1 #
coedge $-1 $359 $437 $434 $525 reversed $432 $-1 #
vertex $-1 $360 $537 #
straight-curve $-1 77.73186437574389629 92.02473472896076601 31.10788214439326538 -1 0 0 I I #
edge $-1 $363 -15.55394107219663269 $439 15.55394107219663269 $361 $538 forward 7 unknown #
point $-1 155.4637287514877926 92.02473472896076601 31.10788214439326538 #
face $-1 $539 $540 $12 $-1 $541 reversed single #
plane-surface $-1 77.73186437574389629 0 15.55394107219663269 0 1 0 0 0 1 forward_v I I I I #
coedge $-1 $542 $543 $544 $545 forward $367 $-1 #
coedge $-1 $369 $546 $547 $548 forward $287 $-1 #
coedge $-1 $547 $378 $370 $458 forward $380 $-1 #
edge $-1 $549 -58.72003920300858226 $460 -44.81814421081048039 $457 $550 forward 7 unknown #
edge $-1 $549 0 $461 21.62750901205018295 $371 $551 forward 7 unknown #
vertex $-1 $458 $552 #
vertex $-1 $374 $553 #
straight-curve $-1 91.51769521116192152 -26.95889623044361372 31.10788214439326893 0 1 0 I I #
straight-curve $-1 93.11379587900790966 16.56763295381114176 31.10788214439326538 1 0 0 I I #
edge $-1 $376 -32.35996367437401489 $549 1.596100667845988141 $378 $554 forward 7 unknown #
point $-1 125.4737595533819245 0 17.20598715219515995 #
coedge $-1 $379 $555 $556 $557 reversed $380 $-1 #
coedge $-1 $546 $382 $558 $559 forward $287 $-1 #
coedge $-1 $556 $560 $382 $469 reversed $561 $-1 #
edge $-1 $470 -46.012367364480383 $562 46.012367364480383 $468 $563 forward 7 unknown #
vertex $-1 $469 $564 #
straight-curve $-1 77.73186437574389629 0 31.10788214439326538 1 0 0 I I #
face $-1 $565 $566 $13 $-1 $567 forward single #
loop $-1 $568 $393 $387 #
plane-surface $-1 108.495727382271923 0 17.20598715219515995 0 -0.6427876175870461672 0.7660444364896655811 1 0 0 forward_v I I I I #
coedge $-1 $569 $570 $495 $571 reversed $388 $-1 #
coedge $-1 $476 $476 $-1 $572 forward $390 $-1 #
edge $-1 $573 0 $573 6.283185307179586232 $391 $574 forward 7 unknown #
vertex $-1 $394 $575 #
ellipse-curve $-1 108.495727382271923 8.28381647690557088 24.15693464829421089 0 0.6427876175870461672 -0.7660444364896655811 3 0 0 1 I I #
coedge $-1 $576 $395 $409 $501 forward $482 $-1 #
coedge $-1 $395 $576 $397 $484 forward $482 $-1 #
loop $-1 $-1 $480 $565 #
straight-curve $-1 77.73186437574389629 92.02473472896076601 0 1 0 0 I I #
edge $-1 $577 -46.012367364480383 $398 46.012367364480383 $397 $578 forward 7 unknown #
point $-1 0 92.02473472896076601 0 #
coedge $-1 $579 $493 $401 $487 forward $580 $-1 #
edge $-1 $488 -15.55394107219663269 $577 15.55394107219663269 $401 $581 forward 7 unknown #
vertex $-1 $402 $582 #
straight-curve $-1 0 46.012367364480383 31.10788214439326538 0 -1 0 I I #
face $-1 $-1 $410 $13 $-1 $583 reversed single #
plane-surface $-1 0 46.012367364480383 15.55394107219663269 1 0 0 0 0 -1 forward_v I I I I #
coedge $-1 $584 $405 $585 $586 forward $140 $-1 #
coedge $-1 $486 $587 $405 $494 reversed $580 $-1 #
edge $-1 $488 -77.73186437574389629 $588 13.78583083541802523 $493 $589 forward 7 unknown #
coedge $-1 $406 $584 $475 $571 forward $140 $-1 #
coedge $-1 $590 $591 $406 $497 reversed $580 $-1 #
edge $-1 $592 47.74189517763802826 $499 77.73186437574389629 $496 $589 forward 7 unknown #
coedge $-1 $409 $407 $591 $593 forward $410 $-1 #
vertex $-1 $408 $594 #
straight-curve $-1 155.4637287514877926 46.012367364480383 31.10788214439326538 0 1 0 I I #
edge $-1 $411 -46.012367364480383 $595 46.012367364480383 $409 $596 forward 7 unknown #
point $-1 155.4637287514877926 92.02473472896076601 0 #
face $-1 $597 $598 $14 $-1 $599 forward single #
loop $-1 $600 $601 $414 #
cone-surface $-1 108.495727382271923 11.39740421058906605 20.44630535853861986 0 0.6427876175870461672 -0.7660444364896655811 1.5 0 0 1 I I -0.7071067811865475727 0.7071067811865475727 1.5 forward I I I I #
loop $-1 $-1 $602 $323 #
coedge $-1 $507 $507 $603 $604 reversed $415 $-1 #
coedge $-1 $417 $426 $605 $606 reversed $240 $-1 #
coedge $-1 $607 $513 $417 $510 forward $608 $-1 #
edge $-1 $511 -5.751127946859451612 $609 15.55394107219663269 $417 $610 forward 7 unknown #
vertex $-1 $510 $611 #
straight-curve $-1 46.63615329964691369 92.02473472896076601 21.3050690190560772 1 0 0 I I #
coedge $-1 $509 $612 $419 $514 forward $608 $-1 #
edge $-1 $613 46.25700509108901315 $511 62.93454669640698995 $513 $614 forward 7 unknown #
edge $-1 $421 15.55526885254705149 $613 46.63615329964691369 $423 $615 forward 7 unknown #
point $-1 31.0808844470998622 78.53232023685339414 31.10788214439326893 #
coedge $-1 $616 $423 $612 $617 forward $324 $-1 #
coedge $-1 $424 $618 $619 $620 forward $324 $-1 #
coedge $-1 $619 $621 $426 $520 reversed $622 $-1 #
edge $-1 $521 -15.55394107219663269 $623 15.55394107219663269 $519 $624 forward 7 unknown #
vertex $-1 $620 $625 #
straight-curve $-1 77.73186437574389629 92.02473472896076601 31.10788214439326538 -1 0 0 I I #
plane-surface $-1 155.4637287514877926 46.012367364480383 15.55394107219663269 -1 0 0 0 0 1 forward_v I I I I #
coedge $-1 $533 $434 $435 $526 reversed $343 $-1 #
edge $-1 $449 -15.55394107219663269 $529 15.55394107219663269 $448 $626 forward 7 unknown #
edge $-1 $527 -46.012367364480383 $529 46.012367364480383 $524 $627 forward 7 unknown #
vertex $-1 $526 $628 #
straight-curve $-1 77.73186437574389629 0 0 -1 0 0 I I #
vertex $-1 $438 $629 #
straight-curve $-1 77.73186437574389629 92.02473472896076601 0 1 0 0 I I #
point $-1 155.4637287514877926 92.02473472896076601 0 #
point $-1 155.4637287514877926 0 0 #
coedge $-1 $442 $524 $444 $535 reversed $343 $-1 #
straight-curve $-1 0 46.012367364480383 31.10788214439326538 0 -1 0 I I #
edge $-1 $445 -15.55394107219663269 $527 15.55394107219663269 $533 $630 forward 7 unknown #
point $-1 0 0 31.10788214439326538 #
point $-1 0 92.02473472896076601 31.10788214439326538 #
straight-curve $-1 155.4637287514877926 92.02473472896076601 15.55394107219663269 0 0 -1 I I #
face $-1 $631 $632 $12 $-1 $633 reversed single #
loop $-1 $-1 $634 $453 #
plane-surface $-1 0 46.012367364480383 15.55394107219663269 1 0 0 0 0 -1 forward_v I I I I #
coedge $-1 $635 $455 $555 $636 forward $367 $-1 #
coedge $-1 $455 $635 $637 $638 forward $367 $-1 #
coedge $-1 $560 $556 $455 $545 reversed $561 $-1 #
edge $-1 $639 -46.012367364480383 $640 46.012367364480383 $544 $641 forward 7 unknown #
coedge $-1 $456 $467 $642 $643 forward $287 $-1 #
coedge $-1 $644 $457 $456 $548 reversed $380 $-1 #
edge $-1 $645 -77.73186437574389629 $460 13.78583083541802523 $547 $471 forward 7 unknown #
vertex $-1 $464 $646 #
straight-curve $-1 91.51769521116192152 0 75.92602635520374577 0 0 1 I I #
straight-curve $-1 91.51769521116192152 0 17.20598715219515995 0 0.7660444364896655811 0.6427876175870461672 I I #
point $-1 91.51769521116192152 0 31.10788214439326538 #
point $-1 91.51769521116192152 16.56763295381114531 31.10788214439326538 #
straight-curve $-1 93.11379587900790966 0 17.20598715219515995 -1 0 0 I I #
coedge $-1 $466 $644 $542 $636 reversed $380 $-1 #
coedge $-1 $544 $468 $466 $557 forward $561 $-1 #
edge $-1 $470 -15.55394107219663269 $640 15.55394107219663269 $556 $647 forward 7 unknown #
coedge $-1 $648 $649 $467 $559 reversed $632 $-1 #
edge $-1 $562 -77.73186437574389629 $650 77.73186437574389629 $558 $651 forward 7 unknown #
coedge $-1 $468 $544 $648 $652 reversed $561 $-1 #
loop $-1 $-1 $556 $631 #
vertex $-1 $469 $653 #
straight-curve $-1 155.4637287514877926 46.012367364480383 31.10788214439326538 0 1 0 I I #
point $-1 155.4637287514877926 0 31.10788214439326538 #
face $-1 $654 $482 $13 $-1 $655 reversed single #
loop $-1 $-1 $585 $472 #
plane-surface $-1 91.51769521116192152 -99.93015982536761044 136.2981116382108553 1 0 0 0 0.6427876175870461672 -0.7660444364896655811 forward_v I I I I #
loop $-1 $-1 $656 $387 #
coedge $-1 $570 $475 $657 $658 forward $388 $-1 #
coedge $-1 $475 $569 $590 $659 reversed $388 $-1 #
edge $-1 $660 -43.52652918425475548 $592 -26.95889623044361372 $495 $661 forward 7 unknown #
edge $-1 $662 1 $662 0 $476 $-1 forward 7 unknown #
vertex $-1 $477 $663 #
ellipse-curve $-1 108.495727382271923 10.43322278420849614 21.59537201327311706 0 -0.6427876175870461672 0.7660444364896655811 3 0 0 1 I I #
point $-1 111.495727382271923 8.28381647690557088 24.15693464829421089 #
coedge $-1 $481 $480 $579 $664 forward $482 $-1 #
vertex $-1 $484 $665 #
straight-curve $-1 0 46.012367364480383 0 0 1 0 I I #
coedge $-1 $591 $486 $576 $664 reversed $580 $-1 #
loop $-1 $-1 $587 $654 #
straight-curve $-1 0 0 15.55394107219663269 0 0 -1 I I #
point $-1 0 0 31.10788214439326538 #
plane-surface $-1 155.4637287514877926 46.012367364480383 15.55394107219663269 -1 0 0 0 0 1 forward_v I I I I #
coedge $-1 $495 $492 $656 $666 forward $140 $-1 #
coedge $-1 $667 $668 $492 $586 reversed $566 $-1 #
edge $-1 $588 26.95889623044361372 $669 43.52652918425475548 $492 $670 forward 7 unknown #
coedge $-1 $493 $671 $667 $672 forward $580 $-1 #
vertex $-1 $672 $673 #
straight-curve $-1 77.73186437574389629 0 31.10788214439326538 1 0 0 I I #
coedge $-1 $671 $496 $570 $659 forward $580 $-1 #
coedge $-1 $496 $579 $498 $593 reversed $580 $-1 #
vertex $-1 $497 $674 #
edge $-1 $499 -15.55394107219663269 $595 15.55394107219663269 $498 $675 forward 7 unknown #
point $-1 155.4637287514877926 0 31.10788214439326538 #
vertex $-1 $593 $676 #
straight-curve $-1 155.4637287514877926 46.012367364480383 0 0 -1 0 I I #
face $-1 $677 $678 $14 $-1 $679 forward single #
loop $-1 $-1 $680 $503 #
plane-surface $-1 125.4737595533819245 -99.93015982536761044 136.2981116382108553 -1 0 0 0 -0.6427876175870461672 0.7660444364896655811 forward_v I I I I #
loop $-1 $-1 $681 $414 #
coedge $-1 $601 $601 $602 $682 forward $504 $-1 #
coedge $-1 $602 $602 $601 $682 reversed $506 $-1 #
coedge $-1 $603 $603 $507 $604 forward $678 $-1 #
edge $-1 $683 0 $683 6.283185307179586232 $603 $684 forward 7 unknown #
coedge $-1 $685 $686 $508 $606 forward $687 $-1 #
edge $-1 $609 -77.73186437574389629 $623 77.73186437574389629 $508 $688 forward 7 unknown #
coedge $-1 $689 $509 $686 $690 reversed $608 $-1 #
loop $-1 $-1 $513 $691 #
vertex $-1 $606 $692 #
straight-curve $-1 0 92.02473472896076601 15.55394107219663269 0 0 -1 I I #
point $-1 0 92.02473472896076601 21.3050690190560843 #
coedge $-1 $513 $689 $517 $617 reversed $608 $-1 #
vertex $-1 $617 $693 #
straight-curve $-1 0 41.10961726164507013 58.29706789951232793 0 0.8090169889191003438 -0.5877852598018022956 I I #
straight-curve $-1 46.63615329964691369 78.53232023685339414 31.10788214439326893 -1 0 0 I I #
coedge $-1 $694 $517 $695 $696 forward $324 $-1 #
edge $-1 $613 -32.51995287237301113 $697 46.012367364480383 $612 $698 forward 7 unknown #
coedge $-1 $518 $699 $700 $701 forward $324 $-1 #
coedge $-1 $702 $519 $518 $620 reversed $622 $-1 #
edge $-1 $703 -46.012367364480383 $521 46.012367364480383 $619 $704 forward 7 unknown #
coedge $-1 $519 $702 $685 $705 reversed $622 $-1 #
loop $-1 $-1 $702 $706 #
vertex $-1 $705 $707 #
straight-curve $-1 155.4637287514877926 92.02473472896076601 15.55394107219663269 0 0 -1 I I #
point $-1 155.4637287514877926 92.02473472896076601 31.10788214439326538 #
straight-curve $-1 0 92.02473472896076601 15.55394107219663269 0 0 -1 I I #
straight-curve $-1 0 46.012367364480383 0 0 1 0 I I #
point $-1 0 0 0 #
point $-1 0 92.02473472896076601 0 #
straight-curve $-1 0 0 15.55394107219663269 0 0 -1 I I #
face $-1 $-1 $561 $12 $-1 $708 reversed single #
loop $-1 $-1 $648 $539 #
plane-surface $-1 77.73186437574389629 92.02473472896076601 15.55394107219663269 0 -1 0 0 0 -1 forward_v I I I I #
coedge $-1 $709 $642 $649 $710 forward $540 $-1 #
coedge $-1 $543 $542 $709 $711 forward $367 $-1 #
edge $-1 $640 -77.73186437574389629 $712 77.73186437574389629 $555 $713 forward 7 unknown #
coedge $-1 $649 $648 $543 $638 reversed $632 $-1 #
edge $-1 $714 -77.73186437574389629 $639 77.73186437574389629 $637 $715 forward 7 unknown #
vertex $-1 $545 $716 #
vertex $-1 $557 $717 #
straight-curve $-1 155.4637287514877926 46.012367364480383 0 0 -1 0 I I #
coedge $-1 $634 $718 $546 $643 reversed $540 $-1 #
edge $-1 $650 -46.012367364480383 $645 46.012367364480383 $642 $719 forward 7 unknown #
coedge $-1 $555 $547 $718 $720 forward $380 $-1 #
vertex $-1 $643 $721 #
point $-1 91.51769521116192152 0 17.20598715219515995 #
straight-curve $-1 155.4637287514877926 0 15.55394107219663269 0 0 -1 I I #
coedge $-1 $637 $558 $560 $652 forward $632 $-1 #
coedge $-1 $558 $637 $634 $710 reversed $632 $-1 #
vertex $-1 $559 $722 #
straight-curve $-1 77.73186437574389629 92.02473472896076601 31.10788214439326538 -1 0 0 I I #
edge $-1 $562 -15.55394107219663269 $639 15.55394107219663269 $560 $723 forward 7 unknown #
point $-1 155.4637287514877926 92.02473472896076601 31.10788214439326538 #
face $-1 $403 $580 $13 $-1 $724 reversed single #
plane-surface $-1 77.73186437574389629 46.012367364480383 0 0 0 1 1 0 0 forward_v I I I I #
coedge $-1 $725 $657 $584 $666 reversed $568 $-1 #
coedge $-1 $656 $726 $569 $658 reversed $568 $-1 #
edge $-1 $660 -21.62750901205018295 $727 0 $569 $728 forward 7 unknown #
edge $-1 $592 44.81814421081048039 $727 58.72003920300858226 $590 $729 forward 7 unknown #
vertex $-1 $666 $730 #
straight-curve $-1 125.4737595533819245 -26.95889623044361372 31.10788214439326893 0 -1 0 I I #
vertex $-1 $572 $731 #
point $-1 111.495727382271923 10.43322278420849614 21.59537201327311706 #
edge $-1 $595 -77.73186437574389629 $577 77.73186437574389629 $579 $732 forward 7 unknown #
point $-1 0 0 0 #
edge $-1 $669 -1.596100667845988141 $660 32.35996367437401489 $584 $733 forward 7 unknown #
coedge $-1 $668 $585 $587 $672 reversed $566 $-1 #
coedge $-1 $585 $667 $725 $734 forward $566 $-1 #
vertex $-1 $666 $735 #
straight-curve $-1 91.51769521116192152 -26.95889623044361372 31.10788214439326893 0 1 0 I I #
coedge $-1 $587 $590 $726 $736 forward $580 $-1 #
edge $-1 $737 -58.72003920300858226 $588 -44.81814421081048039 $587 $738 forward 7 unknown #
point $-1 91.51769521116192152 0 31.10788214439326538 #
point $-1 125.4737595533819245 0 31.10788214439326538 #
straight-curve $-1 155.4637287514877926 0 15.55394107219663269 0 0 -1 I I #
point $-1 155.4637287514877926 0 0 #
face $-1 $739 $740 $14 $-1 $741 forward single #
loop $-1 $742 $603 $597 #
plane-surface $-1 108.495727382271923 0 17.20598715219515995 0 -0.6427876175870461672 0.7660444364896655811 1 0 0 forward_v I I I I #
coedge $-1 $743 $744 $699 $745 reversed $598 $-1 #
coedge $-1 $681 $681 $-1 $746 forward $600 $-1 #
edge $-1 $747 0 $747 6.283185307179586232 $601 $748 forward 7 unknown #
vertex $-1 $604 $749 #
ellipse-curve $-1 108.495727382271923 8.28381647690557088 24.15693464829421089 0 0.6427876175870461672 -0.7660444364896655811 3 0 0 1 I I #
coedge $-1 $750 $605 $621 $705 forward $687 $-1 #
coedge $-1 $605 $750 $607 $690 forward $687 $-1 #
loop $-1 $-1 $685 $739 #
straight-curve $-1 77.73186437574389629 92.02473472896076601 0 1 0 0 I I #
coedge $-1 $612 $607 $751 $752 reversed $608 $-1 #
edge $-1 $753 -46.012367364480383 $609 46.012367364480383 $607 $754 forward 7 unknown #
face $-1 $706 $608 $14 $-1 $755 reversed single #
point $-1 0 92.02473472896076601 0 #
point $-1 0 78.53232023685339414 31.10788214439326893 #
coedge $-1 $756 $616 $757 $758 forward $324 $-1 #
coedge $-1 $751 $759 $616 $696 reversed $760 $-1 #
edge $-1 $697 -77.73186437574389629 $761 13.78583083541802523 $695 $762 forward 7 unknown #
vertex $-1 $617 $763 #
straight-curve $-1 0 46.012367364480383 31.10788214439326538 0 -1 0 I I #
coedge $-1 $618 $756 $680 $745 forward $324 $-1 #
coedge $-1 $764 $765 $618 $701 reversed $760 $-1 #
edge $-1 $766 47.74189517763802826 $703 77.73186437574389629 $700 $762 forward 7 unknown #
coedge $-1 $621 $619 $765 $767 forward $622 $-1 #
vertex $-1 $620 $768 #
straight-curve $-1 155.4637287514877926 46.012367364480383 31.10788214439326538 0 1 0 I I #
edge $-1 $623 -46.012367364480383 $769 46.012367364480383 $621 $770 forward 7 unknown #
face $-1 $-1 $622 $14 $-1 $771 reversed single #
point $-1 155.4637287514877926 92.02473472896076601 0 #
plane-surface $-1 155.4637287514877926 46.012367364480383 15.55394107219663269 -1 0 0 0 0 1 forward_v I I I I #
coedge $-1 $718 $634 $635 $711 reversed $540 $-1 #
edge $-1 $650 -15.55394107219663269 $714 15.55394107219663269 $649 $772 forward 7 unknown #
edge $-1 $712 -46.012367364480383 $714 46.012367364480383 $709 $773 forward 7 unknown #
vertex $-1 $711 $774 #
straight-curve $-1 77.73186437574389629 0 0 -1 0 0 I I #
vertex $-1 $638 $775 #
straight-curve $-1 77.73186437574389629 92.02473472896076601 0 1 0 0 I I #
point $-1 155.4637287514877926 92.02473472896076601 0 #
point $-1 155.4637287514877926 0 0 #
coedge $-1 $642 $709 $644 $720 reversed $540 $-1 #
straight-curve $-1 0 46.012367364480383 31.10788214439326538 0 -1 0 I I #
edge $-1 $645 -15.55394107219663269 $712 15.55394107219663269 $718 $776 forward 7 unknown #
point $-1 0 0 31.10788214439326538 #
point $-1 0 92.02473472896076601 31.10788214439326538 #
straight-curve $-1 155.4637287514877926 92.02473472896076601 15.55394107219663269 0 0 -1 I I #
plane-surface $-1 77.73186437574389629 0 15.55394107219663269 0 1 0 0 0 1 forward_v I I I I #
coedge $-1 $726 $656 $668 $734 reversed $568 $-1 #
coedge $-1 $657 $725 $671 $736 reversed $568 $-1 #
vertex $-1 $736 $777 #
straight-curve $-1 125.4737595533819245 0 17.20598715219515995 0 -0.7660444364896655811 -0.6427876175870461672 I I #
straight-curve $-1 125.4737595533819245 0 75.92602635520374577 0 0 -1 I I #
point $-1 125.4737595533819245 16.56763295381114531 31.10788214439326538 #
point $-1 108.495727382271923 12.36158563696963597 19.29723870380412265 #
straight-curve $-1 77.73186437574389629 0 0 -1 0 0 I I #
straight-curve $-1 93.11379587900790966 16.56763295381114176 31.10788214439326538 1 0 0 I I #
edge $-1 $737 0 $669 21.62750901205018295 $668 $778 forward 7 unknown #
point $-1 91.51769521116192152 16.56763295381114531 31.10788214439326538 #
edge $-1 $727 -32.35996367437401489 $737 1.596100667845988141 $671 $779 forward 7 unknown #
vertex $-1 $736 $780 #
straight-curve $-1 91.51769521116192152 0 75.92602635520374577 0 0 1 I I #
face $-1 $781 $687 $14 $-1 $782 reversed single #
loop $-1 $-1 $757 $677 #
plane-surface $-1 91.51769521116192152 -99.93015982536761044 136.2981116382108553 1 0 0 0 0.6427876175870461672 -0.7660444364896655811 forward_v I I I I #
loop $-1 $-1 $783 $597 #
coedge $-1 $744 $680 $784 $785 forward $598 $-1 #
coedge $-1 $680 $743 $764 $786 reversed $598 $-1 #
edge $-1 $787 -43.52652918425475548 $766 -26.95889623044361372 $699 $788 forward 7 unknown #
edge $-1 $789 1 $789 0 $681 $-1 forward 7 unknown #
vertex $-1 $682 $790 #
ellipse-curve $-1 108.495727382271923 10.43322278420849614 21.59537201327311706 0 -0.6427876175870461672 0.7660444364896655811 3 0 0 1 I I #
point $-1 111.495727382271923 8.28381647690557088 24.15693464829421089 #
coedge $-1 $686 $685 $791 $792 forward $687 $-1 #
coedge $-1 $791 $695 $689 $752 forward $760 $-1 #
edge $-1 $697 -15.55394107219663269 $753 15.55394107219663269 $689 $793 forward 7 unknown #
vertex $-1 $690 $794 #
straight-curve $-1 0 46.012367364480383 0 0 1 0 I I #
plane-surface $-1 0 46.012367364480383 15.55394107219663269 1 0 0 0 0 -1 forward_v I I I I #
coedge $-1 $699 $694 $783 $795 forward $324 $-1 #
coedge $-1 $796 $797 $694 $758 reversed $740 $-1 #
edge $-1 $761 26.95889623044361372 $798 43.52652918425475548 $694 $799 forward 7 unknown #
coedge $-1 $695 $800 $796 $801 forward $760 $-1 #
loop $-1 $-1 $759 $781 #
vertex $-1 $801 $802 #
straight-curve $-1 77.73186437574389629 0 31.10788214439326538 1 0 0 I I #
point $-1 0 0 31.10788214439326538 #
coedge $-1 $800 $700 $744 $786 forward $760 $-1 #
coedge $-1 $700 $791 $702 $767 reversed $760 $-1 #
vertex $-1 $701 $803 #
edge $-1 $703 -15.55394107219663269 $769 15.55394107219663269 $702 $804 forward 7 unknown #
point $-1 155.4637287514877926 0 31.10788214439326538 #
vertex $-1 $767 $805 #
straight-curve $-1 155.4637287514877926 46.012367364480383 0 0 -1 0 I I #
plane-surface $-1 155.4637287514877926 46.012367364480383 15.55394107219663269 -1 0 0 0 0 1 forward_v I I I I #
straight-curve $-1 0 92.02473472896076601 15.55394107219663269 0 0 -1 I I #
straight-curve $-1 0 46.012367364480383 0 0 1 0 I I #
point $-1 0 0 0 #
point $-1 0 92.02473472896076601 0 #
straight-curve $-1 0 0 15.55394107219663269 0 0 -1 I I #
point $-1 125.4737595533819245 0 17.20598715219515995 #
straight-curve $-1 91.51769521116192152 0 17.20598715219515995 0 0.7660444364896655811 0.6427876175870461672 I I #
straight-curve $-1 93.11379587900790966 0 17.20598715219515995 -1 0 0 I I #
point $-1 91.51769521116192152 0 17.20598715219515995 #
face $-1 $691 $760 $14 $-1 $806 reversed single #
plane-surface $-1 77.73186437574389629 46.012367364480383 0 0 0 1 1 0 0 forward_v I I I I #
coedge $-1 $807 $784 $756 $795 reversed $742 $-1 #
coedge $-1 $783 $808 $743 $785 reversed $742 $-1 #
edge $-1 $787 -21.62750901205018295 $809 0 $743 $810 forward 7 unknown #
edge $-1 $766 44.81814421081048039 $809 58.72003920300858226 $764 $811 forward 7 unknown #
vertex $-1 $795 $812 #
straight-curve $-1 125.4737595533819245 -26.95889623044361372 31.10788214439326893 0 -1 0 I I #
vertex $-1 $746 $813 #
point $-1 111.495727382271923 10.43322278420849614 21.59537201327311706 #
coedge $-1 $765 $751 $750 $792 reversed $760 $-1 #
edge $-1 $769 -77.73186437574389629 $753 77.73186437574389629 $791 $814 forward 7 unknown #
straight-curve $-1 0 0 15.55394107219663269 0 0 -1 I I #
point $-1 0 0 0 #
edge $-1 $798 -1.596100667845988141 $787 32.35996367437401489 $756 $815 forward 7 unknown #
coedge $-1 $797 $757 $759 $801 reversed $740 $-1 #
coedge $-1 $757 $796 $807 $816 forward $740 $-1 #
vertex $-1 $795 $817 #
straight-curve $-1 91.51769521116192152 -26.95889623044361372 31.10788214439326893 0 1 0 I I #
coedge $-1 $759 $764 $808 $818 forward $760 $-1 #
edge $-1 $819 -58.72003920300858226 $761 -44.81814421081048039 $759 $820 forward 7 unknown #
point $-1 91.51769521116192152 0 31.10788214439326538 #
point $-1 125.4737595533819245 0 31.10788214439326538 #
straight-curve $-1 155.4637287514877926 0 15.55394107219663269 0 0 -1 I I #
point $-1 155.4637287514877926 0 0 #
plane-surface $-1 77.73186437574389629 0 15.55394107219663269 0 1 0 0 0 1 forward_v I I I I #
coedge $-1 $808 $783 $797 $816 reversed $742 $-1 #
coedge $-1 $784 $807 $800 $818 reversed $742 $-1 #
vertex $-1 $818 $821 #
straight-curve $-1 125.4737595533819245 0 17.20598715219515995 0 -0.7660444364896655811 -0.6427876175870461672 I I #
straight-curve $-1 125.4737595533819245 0 75.92602635520374577 0 0 -1 I I #
point $-1 125.4737595533819245 16.56763295381114531 31.10788214439326538 #
point $-1 108.495727382271923 12.36158563696963597 19.29723870380412265 #
straight-curve $-1 77.73186437574389629 0 0 -1 0 0 I I #
straight-curve $-1 93.11379587900790966 16.56763295381114176 31.10788214439326538 1 0 0 I I #
edge $-1 $819 0 $798 21.62750901205018295 $797 $822 forward 7 unknown #
point $-1 91.51769521116192152 16.56763295381114531 31.10788214439326538 #
edge $-1 $809 -32.35996367437401489 $819 1.596100667845988141 $800 $823 forward 7 unknown #
vertex $-1 $818 $824 #
straight-curve $-1 91.51769521116192152 0 75.92602635520374577 0 0 1 I I #
point $-1 125.4737595533819245 0 17.20598715219515995 #
straight-curve $-1 91.51769521116192152 0 17.20598715219515995 0 0.7660444364896655811 0.6427876175870461672 I I #
straight-curve $-1 93.11379587900790966 0 17.20598715219515995 -1 0 0 I I #
point $-1 91.51769521116192152 0 17.20598715219515995 #
End-of-ACIS-data 