300 0 13 0           
7 Unknown 11 ACIS 3.0 NT 24 Fri Oct 30 14:12:12 1998 
-1 9.9999999999999995e-007 1e-010 
body $13 $14 $-1 $15 #
body $16 $17 $-1 $18 #
body $19 $20 $-1 $21 #
body $22 $23 $-1 $24 #
body $25 $26 $-1 $27 #
body $28 $29 $-1 $30 #
body $31 $32 $-1 $33 #
body $34 $35 $-1 $36 #
body $37 $38 $-1 $39 #
body $40 $41 $-1 $42 #
body $43 $44 $-1 $45 #
body $46 $47 $-1 $48 #
body $49 $50 $-1 $51 #
display_attribute-st-attrib $-1 $52 $-1 $0 1 #
lump $-1 $-1 $53 $0 #
transform $-1 1 0 0 0 1 0 0 0 1 45.322428052613908 21.96312663844251 10.129165841694862 1 rotate no_reflect no_shear #
display_attribute-st-attrib $-1 $54 $-1 $1 3 #
lump $-1 $-1 $55 $1 #
transform $-1 1 0 0 0 1 0 0 0 1 45.322428052613908 21.96312663844251 10.129165841694862 1 rotate no_reflect no_shear #
display_attribute-st-attrib $-1 $56 $-1 $2 3 #
lump $-1 $-1 $57 $2 #
transform $-1 1 0 0 0 1 0 0 0 1 45.322428052613908 21.96312663844251 10.129165841694862 1 rotate no_reflect no_shear #
display_attribute-st-attrib $-1 $58 $-1 $3 3 #
lump $-1 $-1 $59 $3 #
transform $-1 1 0 0 0 1 0 0 0 1 45.322428052613908 21.96312663844251 10.129165841694862 1 rotate no_reflect no_shear #
display_attribute-st-attrib $-1 $60 $-1 $4 3 #
lump $-1 $-1 $61 $4 #
transform $-1 1 0 0 0 1 0 0 0 1 45.322428052613908 21.96312663844251 10.129165841694862 1 rotate no_reflect no_shear #
display_attribute-st-attrib $-1 $62 $-1 $5 3 #
lump $-1 $-1 $63 $5 #
transform $-1 1 0 0 0 1 0 0 0 1 45.322428052613908 21.96312663844251 10.129165841694862 1 rotate no_reflect no_shear #
display_attribute-st-attrib $-1 $64 $-1 $6 3 #
lump $-1 $-1 $65 $6 #
transform $-1 1 0 0 0 1 0 0 0 1 45.322428052613908 21.96312663844251 10.129165841694862 1 rotate no_reflect no_shear #
display_attribute-st-attrib $-1 $66 $-1 $7 3 #
lump $-1 $-1 $67 $7 #
transform $-1 1 0 0 0 1 0 0 0 1 45.322428052613908 21.96312663844251 10.129165841694862 1 rotate no_reflect no_shear #
display_attribute-st-attrib $-1 $68 $-1 $8 3 #
lump $-1 $-1 $69 $8 #
transform $-1 1 0 0 0 1 0 0 0 1 45.322428052613908 21.96312663844251 10.129165841694862 1 rotate no_reflect no_shear #
display_attribute-st-attrib $-1 $70 $-1 $9 3 #
lump $-1 $-1 $71 $9 #
transform $-1 1 0 0 0 1 0 0 0 1 45.322428052613908 21.96312663844251 10.129165841694862 1 rotate no_reflect no_shear #
display_attribute-st-attrib $-1 $72 $-1 $10 3 #
lump $-1 $-1 $73 $10 #
transform $-1 1 0 0 0 1 0 0 0 1 45.322428052613908 21.96312663844251 10.129165841694862 1 rotate no_reflect no_shear #
display_attribute-st-attrib $-1 $74 $-1 $11 3 #
lump $-1 $-1 $75 $11 #
transform $-1 1 0 0 0 1 0 0 0 1 45.322428052613908 21.96312663844251 10.129165841694862 1 rotate no_reflect no_shear #
display_attribute-st-attrib $-1 $76 $-1 $12 3 #
lump $-1 $-1 $77 $12 #
transform $-1 1 0 0 0 1 0 0 0 1 45.322428052613908 21.96312663844251 10.129165841694862 1 rotate no_reflect no_shear #
id_attribute-st-attrib $-1 $-1 $13 $0 787 #
shell $-1 $-1 $-1 $78 $-1 $14 #
id_attribute-st-attrib $-1 $-1 $16 $1 792 #
shell $-1 $-1 $-1 $79 $-1 $17 #
id_attribute-st-attrib $-1 $-1 $19 $2 810 #
shell $-1 $-1 $-1 $80 $-1 $20 #
id_attribute-st-attrib $-1 $-1 $22 $3 818 #
shell $-1 $-1 $-1 $81 $-1 $23 #
id_attribute-st-attrib $-1 $-1 $25 $4 827 #
shell $-1 $-1 $-1 $82 $-1 $26 #
id_attribute-st-attrib $-1 $-1 $28 $5 837 #
shell $-1 $-1 $-1 $83 $-1 $29 #
id_attribute-st-attrib $-1 $-1 $31 $6 848 #
shell $-1 $-1 $-1 $84 $-1 $32 #
id_attribute-st-attrib $-1 $-1 $34 $7 860 #
shell $-1 $-1 $-1 $85 $-1 $35 #
id_attribute-st-attrib $-1 $-1 $37 $8 873 #
shell $-1 $-1 $-1 $86 $-1 $38 #
id_attribute-st-attrib $-1 $-1 $40 $9 887 #
shell $-1 $-1 $-1 $87 $-1 $41 #
id_attribute-st-attrib $-1 $-1 $43 $10 907 #
shell $-1 $-1 $-1 $88 $-1 $44 #
id_attribute-st-attrib $-1 $-1 $46 $11 923 #
shell $-1 $-1 $-1 $89 $-1 $47 #
id_attribute-st-attrib $-1 $-1 $49 $12 940 #
shell $-1 $-1 $-1 $90 $-1 $50 #
face $-1 $91 $92 $53 $-1 $93 forward single #
face $-1 $94 $95 $55 $-1 $96 reversed single #
face $-1 $97 $98 $57 $-1 $99 reversed single #
face $-1 $100 $101 $59 $-1 $102 forward single #
face $-1 $103 $104 $61 $-1 $105 forward single #
face $-1 $106 $107 $63 $-1 $108 forward single #
face $-1 $109 $110 $65 $-1 $111 reversed single #
face $-1 $112 $113 $67 $-1 $114 forward single #
face $-1 $115 $116 $69 $-1 $117 forward single #
face $-1 $118 $119 $71 $-1 $120 forward single #
face $-1 $121 $122 $73 $-1 $123 reversed single #
face $-1 $124 $125 $75 $-1 $126 forward single #
face $-1 $127 $128 $77 $-1 $129 forward single #
face $-1 $130 $131 $53 $-1 $132 reversed single #
loop $-1 $-1 $133 $78 #
plane-surface $-1 0 0 10.129165841694862 0 0 1 1 0 0 forward_v I I I I #
face $-1 $134 $135 $55 $-1 $136 reversed single #
loop $-1 $-1 $137 $79 #
plane-surface $-1 -44.822428052613908 -17.751666350322903 0 1 0 0 0 0 -1 forward_v I I I I #
face $-1 $138 $139 $57 $-1 $140 reversed single #
loop $-1 $-1 $141 $80 #
plane-surface $-1 25.268909800865693 -5.0870642025146049 127.60680552463572 0 -1 0 -0.5877852598018023 0 -0.80901698891910034 forward_v I I I I #
face $-1 $142 $143 $59 $-1 $144 forward single #
loop $-1 $145 $146 $81 #
cone-surface $-1 38.643470464811614 -10.198528687271004 5.0217991951144381 -0.5877852598018023 0 -0.80901698891910034 0.40450849445955017 0 -0.29389262990090115 1 I I 0 1 forward I I I I #
face $-1 $147 $148 $61 $-1 $149 forward single #
loop $-1 $150 $151 $82 #
cone-surface $-1 38.643470464811614 -8.2817295054873536 5.0217991951144381 -0.5877852598018023 0 -0.80901698891910034 0.40450849445955017 0 -0.29389262990090115 1 I I 0 1 forward I I I I #
face $-1 $152 $153 $63 $-1 $154 forward single #
loop $-1 $155 $156 $83 #
cone-surface $-1 38.643470464811614 -6.3649303237037032 5.0217991951144381 -0.5877852598018023 0 -0.80901698891910034 0.40450849445955017 0 -0.29389262990090115 1 I I 0 1 forward I I I I #
face $-1 $157 $158 $65 $-1 $159 reversed single #
loop $-1 $-1 $160 $84 #
plane-surface $-1 25.268909800865693 19.899315384699314 127.60680552463572 0 -1 0 -0.5877852598018023 0 -0.80901698891910034 forward_v I I I I #
face $-1 $161 $162 $67 $-1 $163 forward single #
loop $-1 $164 $165 $85 #
cone-surface $-1 38.643470464811614 14.787850899942917 5.0217991951144381 -0.5877852598018023 0 -0.80901698891910034 0.40450849445955017 0 -0.29389262990090115 1 I I 0 1 forward I I I I #
face $-1 $166 $167 $69 $-1 $168 forward single #
loop $-1 $169 $170 $86 #
cone-surface $-1 38.643470464811614 16.70465008172657 5.0217991951144381 -0.5877852598018023 0 -0.80901698891910034 0.40450849445955017 0 -0.29389262990090115 1 I I 0 1 forward I I I I #
face $-1 $171 $172 $71 $-1 $173 forward single #
loop $-1 $174 $175 $87 #
cone-surface $-1 38.643470464811614 18.621449263510222 5.0217991951144381 -0.5877852598018023 0 -0.80901698891910034 0.40450849445955017 0 -0.29389262990090115 1 I I 0 1 forward I I I I #
face $-1 $176 $177 $73 $-1 $178 reversed single #
loop $-1 $-1 $179 $88 #
plane-surface $-1 -45.322428052613915 -9.46613411287208 4.9754254117825312 -0.84804810408105047 0 0.52991925155115449 0.52991925155115449 0 0.84804810408105047 forward_v I I I I #
face $-1 $180 $181 $75 $-1 $182 forward single #
loop $-1 $183 $184 $89 #
cone-surface $-1 -43.288196832981477 -11.212164948299744 7.2873360009631174 0.84804810408105047 0 -0.52991925155115449 0.26495962577557725 0 0.42402405204052523 1 I I 0 1 forward I I I I #
face $-1 $185 $186 $77 $-1 $187 forward single #
loop $-1 $188 $189 $90 #
cone-surface $-1 -43.288196832981477 -7.720103277444414 7.2873360009631174 0.84804810408105047 0 -0.52991925155115449 0.26495962577557725 0 0.42402405204052523 1 I I 0 1 forward I I I I #
face $-1 $190 $191 $53 $-1 $192 reversed single #
loop $-1 $-1 $193 $91 #
plane-surface $-1 0 0 -10.129165841694862 0 0 1 1 0 0 forward_v I I I I #
coedge $-1 $194 $195 $196 $197 forward $92 $-1 #
face $-1 $198 $199 $55 $-1 $200 reversed single #
loop $-1 $-1 $201 $94 #
plane-surface $-1 -41.937067139201154 -13.540206062203296 0 0 -1 0 0 0 -1 forward_v I I I I #
coedge $-1 $202 $203 $204 $205 forward $95 $-1 #
face $-1 $206 $207 $57 $-1 $208 reversed single #
loop $-1 $-1 $209 $97 #
plane-surface $-1 -28.010800494642623 -8.2817295054873554 54.273576977379179 0.5877852598018023 0 0.80901698891910034 0.80901698891910034 0 -0.5877852598018023 forward_v I I I I #
coedge $-1 $210 $211 $212 $213 reversed $98 $-1 #
face $-1 $-1 $214 $59 $-1 $215 forward single #
loop $-1 $216 $217 $100 #
cone-surface $-1 38.104396740182146 -10.198528687271004 4.2798278812162369 -0.5877852598018023 0 -0.80901698891910034 0.20225424722977509 0 -0.14694631495045057 1 I I -0.70710678118654746 0.70710678118654746 forward I I I I #
loop $-1 $-1 $218 $81 #
coedge $-1 $146 $146 $219 $220 reversed $101 $-1 #
face $-1 $-1 $221 $61 $-1 $222 forward single #
loop $-1 $223 $224 $103 #
cone-surface $-1 38.104396740182146 -8.2817295054873536 4.2798278812162369 -0.5877852598018023 0 -0.80901698891910034 0.20225424722977509 0 -0.14694631495045057 1 I I -0.70710678118654746 0.70710678118654746 forward I I I I #
loop $-1 $-1 $225 $82 #
coedge $-1 $151 $151 $226 $227 reversed $104 $-1 #
face $-1 $-1 $228 $63 $-1 $229 forward single #
loop $-1 $230 $231 $106 #
cone-surface $-1 38.104396740182146 -6.3649303237037032 4.2798278812162369 -0.5877852598018023 0 -0.80901698891910034 0.20225424722977509 0 -0.14694631495045057 1 I I -0.70710678118654746 0.70710678118654746 forward I I I I #
loop $-1 $-1 $232 $83 #
coedge $-1 $156 $156 $233 $234 reversed $107 $-1 #
face $-1 $235 $236 $65 $-1 $237 reversed single #
loop $-1 $-1 $238 $109 #
plane-surface $-1 -28.010800494642623 16.704650081726562 54.273576977379179 0.5877852598018023 0 0.80901698891910034 0.80901698891910034 0 -0.5877852598018023 forward_v I I I I #
coedge $-1 $239 $240 $241 $242 reversed $110 $-1 #
face $-1 $-1 $243 $67 $-1 $244 forward single #
loop $-1 $245 $246 $112 #
cone-surface $-1 38.104396740182146 14.787850899942917 4.2798278812162369 -0.5877852598018023 0 -0.80901698891910034 0.20225424722977509 0 -0.14694631495045057 1 I I -0.70710678118654746 0.70710678118654746 forward I I I I #
loop $-1 $-1 $247 $85 #
coedge $-1 $165 $165 $248 $249 reversed $113 $-1 #
face $-1 $-1 $250 $69 $-1 $251 forward single #
loop $-1 $252 $253 $115 #
cone-surface $-1 38.104396740182146 16.70465008172657 4.2798278812162369 -0.5877852598018023 0 -0.80901698891910034 0.20225424722977509 0 -0.14694631495045057 1 I I -0.70710678118654746 0.70710678118654746 forward I I I I #
loop $-1 $-1 $254 $86 #
coedge $-1 $170 $170 $255 $256 reversed $116 $-1 #
face $-1 $-1 $257 $71 $-1 $258 forward single #
loop $-1 $259 $260 $118 #
cone-surface $-1 38.104396740182146 18.621449263510222 4.2798278812162369 -0.5877852598018023 0 -0.80901698891910034 0.20225424722977509 0 -0.14694631495045057 1 I I -0.70710678118654746 0.70710678118654746 forward I I I I #
loop $-1 $-1 $261 $87 #
coedge $-1 $175 $175 $262 $263 reversed $119 $-1 #
face $-1 $264 $265 $73 $-1 $266 forward single #
loop $-1 $-1 $267 $121 #
plane-surface $-1 -122.19362641735199 -5.392062163540861 53.009879716026951 0 -1 0 0.84804810408105047 0 -0.52991925155115449 forward_v I I I I #
coedge $-1 $268 $269 $270 $271 reversed $122 $-1 #
face $-1 $-1 $272 $75 $-1 $273 forward single #
loop $-1 $274 $275 $124 #
cone-surface $-1 -42.652160754920686 -11.212164948299744 6.8898965622997519 0.84804810408105047 0 -0.52991925155115449 0.13247981288778862 0 0.21201202602026262 1 I I -0.70710678118654746 0.70710678118654746 forward I I I I #
loop $-1 $-1 $276 $89 #
coedge $-1 $184 $184 $277 $278 reversed $125 $-1 #
face $-1 $-1 $279 $77 $-1 $280 forward single #
loop $-1 $281 $282 $127 #
cone-surface $-1 -42.652160754920686 -7.720103277444414 6.8898965622997519 0.84804810408105047 0 -0.52991925155115449 0.13247981288778862 0 0.21201202602026262 1 I I -0.70710678118654746 0.70710678118654746 forward I I I I #
loop $-1 $-1 $283 $90 #
coedge $-1 $189 $189 $284 $285 reversed $128 $-1 #
face $-1 $286 $287 $53 $-1 $288 reversed single #
loop $-1 $-1 $289 $130 #
plane-surface $-1 0 -21.96312663844251 0 0 1 0 0 0 1 forward_v I I I I #
coedge $-1 $290 $291 $292 $293 forward $131 $-1 #
coedge $-1 $294 $133 $295 $296 forward $92 $-1 #
coedge $-1 $133 $294 $297 $298 forward $92 $-1 #
coedge $-1 $299 $300 $133 $197 reversed $301 $-1 #
edge $-1 $302 $303 $196 $304 forward #
face $-1 $305 $306 $55 $-1 $307 forward single #
loop $-1 $-1 $308 $134 #
plane-surface $-1 -39.051706225788401 -17.751666350322903 0 -1 0 0 0 0 1 forward_v I I I I #
coedge $-1 $309 $310 $311 $312 forward $135 $-1 #
coedge $-1 $313 $137 $314 $315 reversed $95 $-1 #
coedge $-1 $137 $313 $316 $317 reversed $95 $-1 #
coedge $-1 $310 $309 $137 $205 reversed $135 $-1 #
edge $-1 $318 $319 $204 $320 forward #
face $-1 $321 $322 $57 $-1 $323 reversed single #
loop $-1 $-1 $324 $138 #
plane-surface $-1 25.268909800865693 -11.476394808460107 127.60680552463572 0 1 0 0.5877852598018023 0 0.80901698891910034 forward_v I I I I #
coedge $-1 $325 $326 $327 $328 reversed $139 $-1 #
coedge $-1 $211 $141 $329 $330 reversed $98 $-1 #
coedge $-1 $141 $210 $325 $331 reversed $98 $-1 #
coedge $-1 $327 $332 $141 $213 forward $333 $-1 #
edge $-1 $334 $335 $212 $336 forward #
loop $-1 $-1 $219 $142 #
plane-surface $-1 -28.010800494642623 -8.2817295054873554 54.273576977379179 0.5877852598018023 0 0.80901698891910034 0.80901698891910034 0 -0.5877852598018023 forward_v I I I I #
loop $-1 $-1 $337 $100 #
coedge $-1 $217 $217 $218 $338 reversed $143 $-1 #
coedge $-1 $218 $218 $217 $338 forward $145 $-1 #
coedge $-1 $219 $219 $146 $220 forward $214 $-1 #
edge $-1 $339 $339 $219 $340 forward #
loop $-1 $-1 $226 $147 #
plane-surface $-1 -28.010800494642623 -8.2817295054873554 54.273576977379179 0.5877852598018023 0 0.80901698891910034 0.80901698891910034 0 -0.5877852598018023 forward_v I I I I #
loop $-1 $-1 $341 $103 #
coedge $-1 $224 $224 $225 $342 reversed $148 $-1 #
coedge $-1 $225 $225 $224 $342 forward $150 $-1 #
coedge $-1 $226 $226 $151 $227 forward $221 $-1 #
edge $-1 $343 $343 $226 $344 forward #
loop $-1 $-1 $233 $152 #
plane-surface $-1 -28.010800494642623 -8.2817295054873554 54.273576977379179 0.5877852598018023 0 0.80901698891910034 0.80901698891910034 0 -0.5877852598018023 forward_v I I I I #
loop $-1 $-1 $345 $106 #
coedge $-1 $231 $231 $232 $346 reversed $153 $-1 #
coedge $-1 $232 $232 $231 $346 forward $155 $-1 #
coedge $-1 $233 $233 $156 $234 forward $228 $-1 #
edge $-1 $347 $347 $233 $348 forward #
face $-1 $349 $350 $65 $-1 $351 reversed single #
loop $-1 $-1 $352 $157 #
plane-surface $-1 25.268909800865693 13.509984778753811 127.60680552463572 0 1 0 0.5877852598018023 0 0.80901698891910034 forward_v I I I I #
coedge $-1 $353 $354 $355 $356 reversed $158 $-1 #
coedge $-1 $240 $160 $357 $358 reversed $110 $-1 #
coedge $-1 $160 $239 $353 $359 reversed $110 $-1 #
coedge $-1 $355 $360 $160 $242 forward $361 $-1 #
edge $-1 $362 $363 $241 $364 forward #
loop $-1 $-1 $248 $161 #
plane-surface $-1 -28.010800494642623 16.704650081726562 54.273576977379179 0.5877852598018023 0 0.80901698891910034 0.80901698891910034 0 -0.5877852598018023 forward_v I I I I #
loop $-1 $-1 $365 $112 #
coedge $-1 $246 $246 $247 $366 reversed $162 $-1 #
coedge $-1 $247 $247 $246 $366 forward $164 $-1 #
coedge $-1 $248 $248 $165 $249 forward $243 $-1 #
edge $-1 $367 $367 $248 $368 forward #
loop $-1 $-1 $255 $166 #
plane-surface $-1 -28.010800494642623 16.704650081726562 54.273576977379179 0.5877852598018023 0 0.80901698891910034 0.80901698891910034 0 -0.5877852598018023 forward_v I I I I #
loop $-1 $-1 $369 $115 #
coedge $-1 $253 $253 $254 $370 reversed $167 $-1 #
coedge $-1 $254 $254 $253 $370 forward $169 $-1 #
coedge $-1 $255 $255 $170 $256 forward $250 $-1 #
edge $-1 $371 $371 $255 $372 forward #
loop $-1 $-1 $262 $171 #
plane-surface $-1 -28.010800494642623 16.704650081726562 54.273576977379179 0.5877852598018023 0 0.80901698891910034 0.80901698891910034 0 -0.5877852598018023 forward_v I I I I #
loop $-1 $-1 $373 $118 #
coedge $-1 $260 $260 $261 $374 reversed $172 $-1 #
coedge $-1 $261 $261 $260 $374 forward $174 $-1 #
coedge $-1 $262 $262 $175 $263 forward $257 $-1 #
edge $-1 $375 $375 $262 $376 forward #
face $-1 $377 $378 $73 $-1 $379 forward single #
loop $-1 $-1 $380 $176 #
plane-surface $-1 0 0 10.129165841694862 0 0 1 1 0 0 forward_v I I I I #
coedge $-1 $381 $382 $383 $384 reversed $177 $-1 #
coedge $-1 $385 $179 $386 $387 reversed $122 $-1 #
coedge $-1 $179 $385 $381 $388 forward $122 $-1 #
coedge $-1 $383 $380 $179 $271 forward $265 $-1 #
edge $-1 $389 $390 $270 $391 forward #
loop $-1 $-1 $277 $180 #
plane-surface $-1 -45.322428052613915 -9.46613411287208 4.9754254117825312 -0.84804810408105047 0 0.52991925155115449 0.52991925155115449 0 0.84804810408105047 forward_v I I I I #
loop $-1 $-1 $392 $124 #
coedge $-1 $275 $275 $276 $393 reversed $181 $-1 #
coedge $-1 $276 $276 $275 $393 forward $183 $-1 #
coedge $-1 $277 $277 $184 $278 forward $272 $-1 #
edge $-1 $394 $394 $277 $395 forward #
loop $-1 $-1 $284 $185 #
plane-surface $-1 -45.322428052613915 -9.46613411287208 4.9754254117825312 -0.84804810408105047 0 0.52991925155115449 0.52991925155115449 0 0.84804810408105047 forward_v I I I I #
loop $-1 $-1 $396 $127 #
coedge $-1 $282 $282 $283 $397 reversed $186 $-1 #
coedge $-1 $283 $283 $282 $397 forward $188 $-1 #
coedge $-1 $284 $284 $189 $285 forward $279 $-1 #
edge $-1 $398 $398 $284 $399 forward #
face $-1 $400 $401 $53 $-1 $402 reversed single #
loop $-1 $-1 $403 $190 #
plane-surface $-1 -45.322428052613908 0 0 1 0 0 0 0 -1 forward_v I I I I #
coedge $-1 $404 $297 $405 $406 forward $191 $-1 #
coedge $-1 $407 $193 $404 $408 forward $131 $-1 #
coedge $-1 $193 $407 $409 $410 forward $131 $-1 #
coedge $-1 $300 $299 $193 $293 reversed $301 $-1 #
edge $-1 $411 $412 $292 $413 forward #
coedge $-1 $195 $194 $414 $415 forward $92 $-1 #
coedge $-1 $416 $417 $194 $296 reversed $401 $-1 #
edge $-1 $303 $418 $295 $419 forward #
coedge $-1 $289 $420 $195 $298 reversed $191 $-1 #
edge $-1 $421 $302 $297 $422 forward #
coedge $-1 $292 $196 $420 $423 forward $301 $-1 #
coedge $-1 $196 $292 $416 $424 reversed $301 $-1 #
loop $-1 $-1 $299 $400 #
vertex $-1 $197 $425 #
vertex $-1 $197 $426 #
straight-curve $-1 45.322428052613908 0 10.129165841694862 0 1 0 I I #
face $-1 $427 $428 $55 $-1 $429 reversed single #
loop $-1 $-1 $430 $198 #
plane-surface $-1 0 0 10.129165841694862 0 0 1 1 0 0 forward_v I I I I #
coedge $-1 $431 $432 $433 $434 reversed $199 $-1 #
coedge $-1 $204 $201 $435 $436 reversed $135 $-1 #
coedge $-1 $201 $204 $437 $438 reversed $135 $-1 #
coedge $-1 $432 $431 $201 $312 reversed $199 $-1 #
edge $-1 $439 $440 $311 $441 forward #
coedge $-1 $203 $202 $442 $443 reversed $95 $-1 #
coedge $-1 $435 $444 $202 $315 forward $428 $-1 #
edge $-1 $445 $319 $314 $446 forward #
coedge $-1 $447 $437 $203 $317 forward $306 $-1 #
edge $-1 $318 $448 $316 $449 forward #
vertex $-1 $317 $450 #
vertex $-1 $315 $451 #
straight-curve $-1 -44.822428052613908 -13.540206062203296 0 0 0 -1 I I #
face $-1 $-1 $333 $57 $-1 $452 forward single #
loop $-1 $-1 $453 $206 #
plane-surface $-1 45.322428052613908 0 0 -1 0 0 0 0 1 forward_v I I I I #
coedge $-1 $454 $455 $456 $457 reversed $207 $-1 #
coedge $-1 $458 $209 $211 $331 forward $139 $-1 #
coedge $-1 $209 $458 $454 $459 forward $139 $-1 #
coedge $-1 $456 $212 $209 $328 forward $333 $-1 #
edge $-1 $335 $460 $327 $461 forward #
coedge $-1 $462 $463 $210 $330 forward $322 $-1 #
edge $-1 $464 $334 $329 $465 forward #
edge $-1 $335 $464 $211 $466 forward #
coedge $-1 $212 $456 $462 $467 forward $333 $-1 #
loop $-1 $-1 $456 $321 #
vertex $-1 $330 $468 #
vertex $-1 $213 $469 #
straight-curve $-1 12.634454900432846 -5.0870642025146049 10.129165841694864 -1 0 0 I I #
coedge $-1 $337 $337 $-1 $470 reversed $216 $-1 #
edge $-1 $471 $471 $217 $472 forward #
vertex $-1 $220 $473 #
ellipse-curve $-1 39.035597874490634 -10.198528687271004 5.5615162617828657 0.5877852598018023 0 0.80901698891910034 0.40450849445955017 0 -0.29389262990090115 1 I I #
coedge $-1 $341 $341 $-1 $474 reversed $223 $-1 #
edge $-1 $475 $475 $224 $476 forward #
vertex $-1 $227 $477 #
ellipse-curve $-1 39.035597874490634 -8.2817295054873536 5.5615162617828657 0.5877852598018023 0 0.80901698891910034 0.40450849445955017 0 -0.29389262990090115 1 I I #
coedge $-1 $345 $345 $-1 $478 reversed $230 $-1 #
edge $-1 $479 $479 $231 $480 forward #
vertex $-1 $234 $481 #
ellipse-curve $-1 39.035597874490634 -6.3649303237037032 5.5615162617828657 0.5877852598018023 0 0.80901698891910034 0.40450849445955017 0 -0.29389262990090115 1 I I #
face $-1 $-1 $361 $65 $-1 $482 forward single #
loop $-1 $-1 $483 $235 #
plane-surface $-1 45.322428052613908 0 0 -1 0 0 0 0 1 forward_v I I I I #
coedge $-1 $484 $485 $486 $487 reversed $236 $-1 #
coedge $-1 $488 $238 $240 $359 forward $158 $-1 #
coedge $-1 $238 $488 $484 $489 forward $158 $-1 #
coedge $-1 $486 $241 $238 $356 forward $361 $-1 #
edge $-1 $363 $490 $355 $491 forward #
coedge $-1 $492 $493 $239 $358 forward $350 $-1 #
edge $-1 $494 $362 $357 $495 forward #
edge $-1 $363 $494 $240 $496 forward #
coedge $-1 $241 $486 $492 $497 forward $361 $-1 #
loop $-1 $-1 $486 $349 #
vertex $-1 $358 $498 #
vertex $-1 $242 $499 #
straight-curve $-1 12.634454900432846 19.899315384699314 10.129165841694864 -1 0 0 I I #
coedge $-1 $365 $365 $-1 $500 reversed $245 $-1 #
edge $-1 $501 $501 $246 $502 forward #
vertex $-1 $249 $503 #
ellipse-curve $-1 39.035597874490634 14.787850899942917 5.5615162617828657 0.5877852598018023 0 0.80901698891910034 0.40450849445955017 0 -0.29389262990090115 1 I I #
coedge $-1 $369 $369 $-1 $504 reversed $252 $-1 #
edge $-1 $505 $505 $253 $506 forward #
vertex $-1 $256 $507 #
ellipse-curve $-1 39.035597874490634 16.70465008172657 5.5615162617828657 0.5877852598018023 0 0.80901698891910034 0.40450849445955017 0 -0.29389262990090115 1 I I #
coedge $-1 $373 $373 $-1 $508 reversed $259 $-1 #
edge $-1 $509 $509 $260 $510 forward #
vertex $-1 $263 $511 #
ellipse-curve $-1 39.035597874490634 18.621449263510222 5.5615162617828657 0.5877852598018023 0 0.80901698891910034 0.40450849445955017 0 -0.29389262990090115 1 I I #
face $-1 $-1 $512 $73 $-1 $513 reversed single #
loop $-1 $-1 $386 $264 #
plane-surface $-1 -41.937067139201154 -13.540206062203296 0 0 -1 0 0 0 -1 forward_v I I I I #
coedge $-1 $270 $514 $515 $516 forward $265 $-1 #
coedge $-1 $382 $267 $269 $388 reversed $177 $-1 #
coedge $-1 $267 $381 $517 $518 reversed $177 $-1 #
coedge $-1 $514 $270 $267 $384 forward $265 $-1 #
edge $-1 $390 $519 $383 $520 forward #
coedge $-1 $269 $268 $521 $522 reversed $122 $-1 #
coedge $-1 $515 $523 $268 $387 forward $378 $-1 #
edge $-1 $524 $389 $386 $525 forward #
edge $-1 $526 $390 $381 $527 forward #
vertex $-1 $271 $528 #
vertex $-1 $271 $529 #
straight-curve $-1 -42.102013717430104 -4.73306705643604 10.129165841694864 0 1 0 I I #
coedge $-1 $392 $392 $-1 $530 reversed $274 $-1 #
edge $-1 $531 $531 $275 $532 forward #
vertex $-1 $278 $533 #
ellipse-curve $-1 -43.712220885022006 -11.212164948299744 7.5522956267386983 -0.84804810408105047 0 0.52991925155115449 0.26495962577557725 0 0.42402405204052523 1 I I #
coedge $-1 $396 $396 $-1 $534 reversed $281 $-1 #
edge $-1 $535 $535 $282 $536 forward #
vertex $-1 $285 $537 #
ellipse-curve $-1 -43.712220885022006 -7.720103277444414 7.5522956267386983 -0.84804810408105047 0 0.52991925155115449 0.26495962577557725 0 0.42402405204052523 1 I I #
face $-1 $-1 $301 $53 $-1 $538 reversed single #
loop $-1 $-1 $416 $286 #
plane-surface $-1 0 21.96312663844251 0 0 -1 0 0 0 -1 forward_v I I I I #
coedge $-1 $539 $414 $417 $540 forward $287 $-1 #
coedge $-1 $420 $289 $290 $408 reversed $191 $-1 #
coedge $-1 $414 $539 $289 $406 reversed $287 $-1 #
edge $-1 $421 $541 $405 $542 forward #
coedge $-1 $291 $290 $539 $543 forward $131 $-1 #
edge $-1 $412 $541 $404 $544 forward #
coedge $-1 $417 $416 $291 $410 reversed $401 $-1 #
edge $-1 $545 $411 $409 $546 forward #
vertex $-1 $293 $547 #
vertex $-1 $423 $548 #
straight-curve $-1 45.322428052613908 0 -10.129165841694862 0 -1 0 I I #
coedge $-1 $403 $405 $294 $415 reversed $287 $-1 #
edge $-1 $418 $421 $414 $549 forward #
coedge $-1 $409 $295 $300 $424 forward $401 $-1 #
coedge $-1 $295 $409 $403 $540 reversed $401 $-1 #
vertex $-1 $296 $550 #
straight-curve $-1 0 21.96312663844251 10.129165841694862 -1 0 0 I I #
coedge $-1 $297 $404 $299 $423 reversed $191 $-1 #
vertex $-1 $415 $551 #
straight-curve $-1 0 -21.96312663844251 10.129165841694862 1 0 0 I I #
edge $-1 $302 $412 $299 $552 forward #
edge $-1 $303 $411 $300 $553 forward #
point $-1 45.322428052613908 -21.96312663844251 10.129165841694862 #
point $-1 45.322428052613908 21.96312663844251 10.129165841694862 #
face $-1 $-1 $554 $55 $-1 $555 reversed single #
loop $-1 $-1 $556 $305 #
plane-surface $-1 0 0 -10.129165841694862 0 0 1 1 0 0 forward_v I I I I #
coedge $-1 $437 $447 $432 $557 forward $306 $-1 #
coedge $-1 $311 $308 $556 $558 reversed $199 $-1 #
coedge $-1 $308 $311 $430 $557 reversed $199 $-1 #
coedge $-1 $559 $560 $308 $434 forward $554 $-1 #
edge $-1 $561 $562 $433 $563 forward #
coedge $-1 $556 $314 $309 $436 forward $428 $-1 #
edge $-1 $319 $440 $435 $564 forward #
coedge $-1 $316 $430 $310 $438 forward $306 $-1 #
edge $-1 $439 $318 $437 $565 forward #
vertex $-1 $438 $566 #
vertex $-1 $436 $567 #
straight-curve $-1 -39.051706225788401 -13.540206062203296 0 0 0 -1 I I #
coedge $-1 $560 $559 $313 $443 forward $554 $-1 #
edge $-1 $448 $445 $442 $568 forward #
coedge $-1 $314 $556 $560 $569 forward $428 $-1 #
vertex $-1 $315 $570 #
straight-curve $-1 -44.822428052613908 -8.8758331751614516 -10.129165841694862 0 1 0 I I #
coedge $-1 $430 $316 $559 $571 forward $306 $-1 #
vertex $-1 $571 $572 #
straight-curve $-1 -44.822428052613908 -8.8758331751614516 10.129165841694862 0 -1 0 I I #
point $-1 -44.822428052613908 -13.540206062203296 10.129165841694862 #
point $-1 -44.822428052613908 -13.540206062203296 -10.129165841694862 #
plane-surface $-1 0 0 10.129165841694862 0 0 1 1 0 0 forward_v I I I I #
coedge $-1 $463 $462 $455 $573 forward $322 $-1 #
coedge $-1 $455 $324 $326 $459 reversed $207 $-1 #
coedge $-1 $324 $454 $453 $573 reversed $207 $-1 #
coedge $-1 $332 $327 $324 $457 forward $333 $-1 #
edge $-1 $460 $574 $456 $575 forward #
coedge $-1 $326 $325 $463 $576 reversed $139 $-1 #
edge $-1 $577 $460 $454 $578 forward #
vertex $-1 $328 $579 #
straight-curve $-1 32.748767696367359 -4.1408647527436777 10.129165841694864 0 -1 0 I I #
coedge $-1 $453 $329 $332 $467 reversed $322 $-1 #
coedge $-1 $329 $453 $458 $576 forward $322 $-1 #
vertex $-1 $330 $580 #
straight-curve $-1 45.322428052613908 -5.0870642025146049 63.803402762317859 0 0 1 I I #
straight-curve $-1 -28.010800494642623 -5.0870642025146049 54.273576977379179 0.80901698891910034 0 -0.5877852598018023 I I #
edge $-1 $574 $334 $462 $581 forward #
point $-1 45.322428052613908 -5.0870642025146049 10.129165841694862 #
point $-1 32.748767696367359 -5.0870642025146049 10.129165841694864 #
edge $-1 $582 $582 $337 $-1 forward #
vertex $-1 $338 $583 #
ellipse-curve $-1 38.251343055132594 -10.198528687271004 4.4820821284460122 0.5877852598018023 0 0.80901698891910034 0.40450849445955017 0 -0.29389262990090115 1 I I #
point $-1 39.44010636895019 -10.198528687271004 5.2676236318819623 #
edge $-1 $584 $584 $341 $-1 forward #
vertex $-1 $342 $585 #
ellipse-curve $-1 38.251343055132594 -8.2817295054873536 4.4820821284460122 0.5877852598018023 0 0.80901698891910034 0.40450849445955017 0 -0.29389262990090115 1 I I #
point $-1 39.44010636895019 -8.2817295054873536 5.2676236318819623 #
edge $-1 $586 $586 $345 $-1 forward #
vertex $-1 $346 $587 #
ellipse-curve $-1 38.251343055132594 -6.3649303237037032 4.4820821284460122 0.5877852598018023 0 0.80901698891910034 0.40450849445955017 0 -0.29389262990090115 1 I I #
point $-1 39.44010636895019 -6.3649303237037032 5.2676236318819623 #
plane-surface $-1 0 0 10.129165841694862 0 0 1 1 0 0 forward_v I I I I #
coedge $-1 $493 $492 $485 $588 forward $350 $-1 #
coedge $-1 $485 $352 $354 $489 reversed $236 $-1 #
coedge $-1 $352 $484 $483 $588 reversed $236 $-1 #
coedge $-1 $360 $355 $352 $487 forward $361 $-1 #
edge $-1 $490 $589 $486 $590 forward #
coedge $-1 $354 $353 $493 $591 reversed $158 $-1 #
edge $-1 $592 $490 $484 $593 forward #
vertex $-1 $356 $594 #
straight-curve $-1 32.748767696367359 8.3523250408632812 10.129165841694864 0 -1 0 I I #
coedge $-1 $483 $357 $360 $497 reversed $350 $-1 #
coedge $-1 $357 $483 $488 $591 forward $350 $-1 #
vertex $-1 $358 $595 #
straight-curve $-1 45.322428052613908 19.899315384699314 63.803402762317859 0 0 1 I I #
straight-curve $-1 -28.010800494642623 19.899315384699314 54.273576977379179 0.80901698891910034 0 -0.5877852598018023 I I #
edge $-1 $589 $362 $492 $596 forward #
point $-1 45.322428052613908 19.899315384699314 10.129165841694862 #
point $-1 32.748767696367359 19.899315384699314 10.129165841694864 #
edge $-1 $597 $597 $365 $-1 forward #
vertex $-1 $366 $598 #
ellipse-curve $-1 38.251343055132594 14.787850899942917 4.4820821284460122 0.5877852598018023 0 0.80901698891910034 0.40450849445955017 0 -0.29389262990090115 1 I I #
point $-1 39.44010636895019 14.787850899942917 5.2676236318819623 #
edge $-1 $599 $599 $369 $-1 forward #
vertex $-1 $370 $600 #
ellipse-curve $-1 38.251343055132594 16.70465008172657 4.4820821284460122 0.5877852598018023 0 0.80901698891910034 0.40450849445955017 0 -0.29389262990090115 1 I I #
point $-1 39.44010636895019 16.70465008172657 5.2676236318819623 #
edge $-1 $601 $601 $373 $-1 forward #
vertex $-1 $374 $602 #
ellipse-curve $-1 38.251343055132594 18.621449263510222 4.4820821284460122 0.5877852598018023 0 0.80901698891910034 0.40450849445955017 0 -0.29389262990090115 1 I I #
point $-1 39.44010636895019 18.621449263510222 5.2676236318819623 #
loop $-1 $-1 $603 $377 #
plane-surface $-1 -45.322428052613908 0 0 1 0 0 0 0 -1 forward_v I I I I #
coedge $-1 $380 $383 $604 $605 forward $265 $-1 #
coedge $-1 $523 $386 $380 $516 reversed $378 $-1 #
edge $-1 $606 $389 $380 $607 forward #
coedge $-1 $521 $604 $382 $518 forward $512 $-1 #
edge $-1 $519 $526 $517 $608 forward #
vertex $-1 $605 $609 #
straight-curve $-1 -61.096813208675997 -5.392062163540861 10.129165841694864 -1 0 0 I I #
coedge $-1 $603 $517 $385 $522 forward $512 $-1 #
edge $-1 $526 $524 $521 $610 forward #
coedge $-1 $386 $515 $603 $611 reversed $378 $-1 #
vertex $-1 $611 $612 #
straight-curve $-1 -45.96506965165937 -13.540206062203296 3.946983836808907 0.52991925155115449 0 0.84804810408105047 I I #
vertex $-1 $522 $613 #
straight-curve $-1 -45.322428052613915 -5.392062163540861 4.9754254117825312 0.52991925155115449 0 0.84804810408105047 I I #
point $-1 -42.102013717430104 -13.5402060622033 10.129165841694862 #
point $-1 -42.102013717430104 -5.392062163540861 10.129165841694862 #
edge $-1 $614 $614 $392 $-1 forward #
vertex $-1 $393 $615 #
ellipse-curve $-1 -42.864172780940947 -11.212164948299744 7.0223763751875401 -0.84804810408105047 0 0.52991925155115449 0.26495962577557725 0 0.42402405204052523 1 I I #
point $-1 -43.447261259246424 -11.212164948299744 7.9763196787792205 #
edge $-1 $616 $616 $396 $-1 forward #
vertex $-1 $397 $617 #
ellipse-curve $-1 -42.864172780940947 -7.720103277444414 7.0223763751875401 -0.84804810408105047 0 0.52991925155115449 0.26495962577557725 0 0.42402405204052523 1 I I #
point $-1 -43.447261259246424 -7.720103277444414 7.9763196787792205 #
plane-surface $-1 45.322428052613908 0 0 -1 0 0 0 0 1 forward_v I I I I #
coedge $-1 $405 $403 $407 $543 reversed $287 $-1 #
edge $-1 $418 $545 $417 $618 forward #
vertex $-1 $543 $619 #
straight-curve $-1 -45.322428052613908 -21.96312663844251 0 0 0 -1 I I #
edge $-1 $541 $545 $539 $620 forward #
straight-curve $-1 0 -21.96312663844251 -10.129165841694862 -1 0 0 I I #
vertex $-1 $410 $621 #
straight-curve $-1 0 21.96312663844251 -10.129165841694862 1 0 0 I I #
point $-1 45.322428052613908 21.96312663844251 -10.129165841694862 #
point $-1 45.322428052613908 -21.96312663844251 -10.129165841694862 #
straight-curve $-1 -45.322428052613908 0 10.129165841694862 0 -1 0 I I #
point $-1 -45.322428052613908 21.96312663844251 10.129165841694862 #
point $-1 -45.322428052613908 -21.96312663844251 10.129165841694862 #
straight-curve $-1 45.322428052613908 -21.96312663844251 0 0 0 -1 I I #
straight-curve $-1 45.322428052613908 21.96312663844251 0 0 0 -1 I I #
loop $-1 $-1 $433 $427 #
plane-surface $-1 0 -21.96312663844251 0 0 1 0 0 0 1 forward_v I I I I #
coedge $-1 $444 $435 $431 $558 forward $428 $-1 #
edge $-1 $562 $439 $430 $622 forward #
edge $-1 $440 $561 $556 $623 forward #
coedge $-1 $442 $433 $447 $571 reversed $554 $-1 #
coedge $-1 $433 $442 $444 $569 reversed $554 $-1 #
vertex $-1 $569 $624 #
vertex $-1 $434 $625 #
straight-curve $-1 -39.051706225788401 -21.96312663844251 0 0 0 1 I I #
straight-curve $-1 -20.968533569600577 -13.540206062203296 -10.129165841694862 1 0 0 I I #
straight-curve $-1 -20.968533569600577 -13.540206062203296 10.129165841694862 -1 0 0 I I #
point $-1 -39.051706225788401 -13.540206062203296 10.129165841694862 #
point $-1 -39.051706225788401 -13.540206062203296 -10.129165841694862 #
straight-curve $-1 -44.822428052613908 -21.96312663844251 0 0 0 -1 I I #
edge $-1 $561 $445 $560 $626 forward #
point $-1 -44.822428052613908 -21.96312663844251 -10.129165841694862 #
edge $-1 $448 $562 $559 $627 forward #
point $-1 -44.822428052613908 -21.96312663844251 10.129165841694862 #
edge $-1 $574 $577 $453 $628 forward #
vertex $-1 $467 $629 #
straight-curve $-1 12.634454900432846 -11.476394808460107 10.129165841694864 1 0 0 I I #
edge $-1 $577 $464 $463 $630 forward #
vertex $-1 $576 $631 #
straight-curve $-1 -28.010800494642623 -11.476394808460107 54.273576977379179 -0.80901698891910034 0 0.5877852598018023 I I #
point $-1 32.748767696367359 -11.476394808460107 10.129165841694864 #
point $-1 45.322428052613915 -5.0870642025146049 0.99386668187086258 #
straight-curve $-1 45.322428052613908 0 10.129165841694862 0 1 0 I I #
vertex $-1 $470 $632 #
point $-1 38.65585154959215 -10.198528687271004 4.1881894985451105 #
vertex $-1 $474 $633 #
point $-1 38.65585154959215 -8.2817295054873536 4.1881894985451105 #
vertex $-1 $478 $634 #
point $-1 38.65585154959215 -6.3649303237037032 4.1881894985451105 #
edge $-1 $589 $592 $483 $635 forward #
vertex $-1 $497 $636 #
straight-curve $-1 12.634454900432846 13.509984778753811 10.129165841694864 1 0 0 I I #
edge $-1 $592 $494 $493 $637 forward #
vertex $-1 $591 $638 #
straight-curve $-1 -28.010800494642623 13.509984778753811 54.273576977379179 -0.80901698891910034 0 0.5877852598018023 I I #
point $-1 32.748767696367359 13.509984778753811 10.129165841694864 #
point $-1 45.322428052613915 19.899315384699314 0.99386668187086258 #
straight-curve $-1 45.322428052613908 0 10.129165841694862 0 1 0 I I #
vertex $-1 $500 $639 #
point $-1 38.65585154959215 14.787850899942917 4.1881894985451105 #
vertex $-1 $504 $640 #
point $-1 38.65585154959215 16.70465008172657 4.1881894985451105 #
vertex $-1 $508 $641 #
point $-1 38.65585154959215 18.621449263510222 4.1881894985451105 #
coedge $-1 $604 $521 $523 $611 forward $512 $-1 #
coedge $-1 $517 $603 $514 $605 reversed $512 $-1 #
edge $-1 $519 $606 $604 $642 forward #
vertex $-1 $516 $643 #
straight-curve $-1 -61.096813208675997 -13.5402060622033 10.129165841694864 1 0 0 I I #
straight-curve $-1 -45.322428052613908 -5.392062163540861 26.504939858013476 0 0 -1 I I #
point $-1 -45.322428052613908 -5.392062163540861 10.129165841694862 #
straight-curve $-1 -45.322428052613908 -4.73306705643604 4.9754254117825427 0 -1 0 I I #
edge $-1 $524 $606 $603 $644 forward #
point $-1 -45.322428052613908 -13.5402060622033 4.9754254117825427 #
point $-1 -45.322428052613908 -5.392062163540861 4.9754254117825427 #
vertex $-1 $530 $645 #
point $-1 -42.599213155165373 -11.212164948299744 7.4464004272280659 #
vertex $-1 $534 $646 #
point $-1 -42.599213155165373 -7.720103277444414 7.4464004272280659 #
straight-curve $-1 -45.322428052613908 21.96312663844251 0 0 0 -1 I I #
point $-1 -45.322428052613908 -21.96312663844251 -10.129165841694862 #
straight-curve $-1 -45.322428052613908 0 -10.129165841694862 0 1 0 I I #
point $-1 -45.322428052613908 21.96312663844251 -10.129165841694862 #
straight-curve $-1 -39.051706225788401 -8.8758331751614516 10.129165841694862 0 1 0 I I #
straight-curve $-1 -39.051706225788401 -8.8758331751614516 -10.129165841694862 0 -1 0 I I #
point $-1 -39.051706225788401 -21.96312663844251 -10.129165841694862 #
point $-1 -39.051706225788401 -21.96312663844251 10.129165841694862 #
straight-curve $-1 0 -21.96312663844251 -10.129165841694862 -1 0 0 I I #
straight-curve $-1 0 -21.96312663844251 10.129165841694862 1 0 0 I I #
straight-curve $-1 45.322428052613908 -11.476394808460107 63.803402762317859 0 0 -1 I I #
point $-1 45.322428052613908 -11.476394808460107 10.129165841694862 #
straight-curve $-1 45.322428052613908 -4.1408647527436777 0.99386668187086258 0 1 0 I I #
point $-1 45.322428052613915 -11.476394808460107 0.99386668187086258 #
point $-1 37.957450425231698 -10.198528687271004 4.0775736339864617 #
point $-1 37.957450425231698 -8.2817295054873536 4.0775736339864617 #
point $-1 37.957450425231698 -6.3649303237037032 4.0775736339864617 #
straight-curve $-1 45.322428052613908 13.509984778753811 63.803402762317859 0 0 -1 I I #
point $-1 45.322428052613908 13.509984778753811 10.129165841694862 #
straight-curve $-1 45.322428052613908 8.3523250408632812 0.99386668187086258 0 1 0 I I #
point $-1 45.322428052613915 13.509984778753811 0.99386668187086258 #
point $-1 37.957450425231698 14.787850899942917 4.0775736339864617 #
point $-1 37.957450425231698 16.70465008172657 4.0775736339864617 #
point $-1 37.957450425231698 18.621449263510222 4.0775736339864617 #
straight-curve $-1 -45.322428052613908 0 10.129165841694862 0 -1 0 I I #
point $-1 -45.322428052613908 -13.5402060622033 10.129165841694862 #
straight-curve $-1 -45.322428052613908 -13.5402060622033 26.504939858013476 0 0 1 I I #
point $-1 -42.440148728900425 -11.212164948299744 6.7574167494119637 #
point $-1 -42.440148728900425 -7.720103277444414 6.7574167494119637 #
End-of-ACIS-data 