300 0 9 0           
7 Unknown 11 ACIS 3.0 NT 24 Fri Oct 30 20:18:42 1998 
-1 9.9999999999999995e-007 1e-010 
body $9 $10 $-1 $11 #
body $12 $13 $-1 $14 #
body $15 $16 $-1 $17 #
body $18 $19 $-1 $20 #
body $21 $22 $-1 $23 #
body $24 $25 $-1 $26 #
body $27 $28 $-1 $29 #
body $30 $31 $-1 $32 #
body $33 $34 $-1 $35 #
display_attribute-st-attrib $-1 $36 $-1 $0 3 #
lump $-1 $-1 $37 $0 #
transform $-1 1 0 0 0 1 0 0 0 1 70.690633869441811 34.710186388404075 15.619954630885106 1 rotate no_reflect no_shear #
display_attribute-st-attrib $-1 $38 $-1 $1 2 #
lump $-1 $-1 $39 $1 #
transform $-1 1 0 0 0 1 0 0 0 1 70.690633869441811 34.710186388404075 15.619954630885106 1 rotate no_reflect no_shear #
display_attribute-st-attrib $-1 $40 $-1 $2 1 #
lump $-1 $-1 $41 $2 #
transform $-1 1 0 0 0 1 0 0 0 1 70.690633869441811 34.710186388404075 15.619954630885106 1 rotate no_reflect no_shear #
display_attribute-st-attrib $-1 $42 $-1 $3 6 #
lump $-1 $-1 $43 $3 #
transform $-1 1 0 0 0 1 0 0 0 1 70.690633869441811 34.710186388404075 15.619954630885106 1 rotate no_reflect no_shear #
display_attribute-st-attrib $-1 $44 $-1 $4 5 #
lump $-1 $-1 $45 $4 #
transform $-1 1 0 0 0 1 0 0 0 1 70.690633869441811 34.710186388404075 15.619954630885106 1 rotate no_reflect no_shear #
display_attribute-st-attrib $-1 $46 $-1 $5 4 #
lump $-1 $-1 $47 $5 #
transform $-1 1 0 0 0 1 0 0 0 1 70.690633869441811 34.710186388404075 15.619954630885106 1 rotate no_reflect no_shear #
display_attribute-st-attrib $-1 $48 $-1 $6 3 #
lump $-1 $-1 $49 $6 #
transform $-1 1 0 0 0 1 0 0 0 1 70.690633869441811 34.710186388404075 15.619954630885106 1 rotate no_reflect no_shear #
display_attribute-st-attrib $-1 $50 $-1 $7 2 #
lump $-1 $-1 $51 $7 #
transform $-1 1 0 0 0 1 0 0 0 1 70.690633869441811 34.710186388404075 15.619954630885106 1 rotate no_reflect no_shear #
display_attribute-st-attrib $-1 $52 $-1 $8 1 #
lump $-1 $-1 $53 $8 #
transform $-1 1 0 0 0 1 0 0 0 1 70.690633869441811 34.710186388404075 15.619954630885106 1 rotate no_reflect no_shear #
id_attribute-st-attrib $-1 $-1 $9 $0 4486 #
shell $-1 $-1 $-1 $54 $-1 $10 #
id_attribute-st-attrib $-1 $-1 $12 $1 4494 #
shell $-1 $-1 $-1 $55 $-1 $13 #
id_attribute-st-attrib $-1 $-1 $15 $2 4503 #
shell $-1 $-1 $-1 $56 $-1 $16 #
id_attribute-st-attrib $-1 $-1 $18 $3 4517 #
shell $-1 $-1 $-1 $57 $-1 $19 #
id_attribute-st-attrib $-1 $-1 $21 $4 4524 #
shell $-1 $-1 $-1 $58 $-1 $22 #
id_attribute-st-attrib $-1 $-1 $24 $5 4532 #
shell $-1 $-1 $-1 $59 $-1 $25 #
id_attribute-st-attrib $-1 $-1 $27 $6 4546 #
shell $-1 $-1 $-1 $60 $-1 $28 #
id_attribute-st-attrib $-1 $-1 $30 $7 4556 #
shell $-1 $-1 $-1 $61 $-1 $31 #
id_attribute-st-attrib $-1 $-1 $33 $8 4567 #
shell $-1 $-1 $-1 $62 $-1 $34 #
face $-1 $63 $64 $37 $-1 $65 forward single #
face $-1 $66 $67 $39 $-1 $68 forward single #
face $-1 $69 $70 $41 $-1 $71 forward single #
face $-1 $72 $73 $43 $-1 $74 reversed single #
face $-1 $75 $76 $45 $-1 $77 forward single #
face $-1 $78 $79 $47 $-1 $80 forward single #
face $-1 $81 $82 $49 $-1 $83 reversed single #
face $-1 $84 $85 $51 $-1 $86 forward single #
face $-1 $87 $88 $53 $-1 $89 forward single #
face $-1 $90 $91 $37 $-1 $92 reversed single #
loop $-1 $-1 $93 $54 #
plane-surface $-1 0 0 15.619954630885106 0 0 1 1 0 0 forward_v I I I I #
face $-1 $94 $95 $39 $-1 $96 reversed single #
loop $-1 $-1 $97 $55 #
plane-surface $-1 0 -34.710186388404075 0 0 1 0 0 0 1 forward_v I I I I #
face $-1 $98 $99 $41 $-1 $100 reversed single #
loop $-1 $-1 $101 $56 #
plane-surface $-1 0 34.710186388404075 0 0 -1 0 0 0 -1 forward_v I I I I #
face $-1 $102 $103 $43 $-1 $104 reversed single #
loop $-1 $-1 $105 $57 #
plane-surface $-1 -151.78359863102207 -15.424264110310466 122.03819236212354 0 1 0 -0.57357644374324357 0 0.81915203911291934 forward_v I I I I #
face $-1 $106 $107 $45 $-1 $108 forward single #
loop $-1 $109 $110 $58 #
cone-surface $-1 -63.158063120491818 -13.14439760497546 9.74562960943409 0.57357644374324357 0 -0.81915203911291934 0.81915203911291934 0 0.57357644374324357 1 I I 0 1 forward I I I I #
face $-1 $111 $112 $47 $-1 $113 forward single #
loop $-1 $114 $115 $59 #
cone-surface $-1 -63.158063120491818 -9.7245978469729479 9.74562960943409 0.57357644374324357 0 -0.81915203911291934 0.81915203911291934 0 0.57357644374324357 1 I I 0 1 forward I I I I #
face $-1 $116 $117 $49 $-1 $118 reversed single #
loop $-1 $-1 $119 $60 #
plane-surface $-1 35.970844870345942 -7.4447313416379419 203.13115712370376 0 -1 0 -0.57357644374324357 0 -0.81915203911291934 forward_v I I I I #
face $-1 $120 $121 $51 $-1 $122 forward single #
loop $-1 $123 $124 $61 #
cone-surface $-1 63.158063120491803 -13.14439760497546 9.74562960943409 -0.57357644374324357 0 -0.81915203911291934 0.81915203911291934 0 -0.57357644374324357 1 I I 0 1 forward I I I I #
face $-1 $125 $126 $53 $-1 $127 forward single #
loop $-1 $128 $129 $62 #
cone-surface $-1 63.158063120491803 -9.7245978469729479 9.74562960943409 -0.57357644374324357 0 -0.81915203911291934 0.81915203911291934 0 -0.57357644374324357 1 I I 0 1 forward I I I I #
face $-1 $130 $131 $37 $-1 $132 reversed single #
loop $-1 $-1 $133 $63 #
plane-surface $-1 0 0 -15.619954630885106 0 0 1 1 0 0 forward_v I I I I #
coedge $-1 $134 $135 $136 $137 forward $64 $-1 #
face $-1 $138 $139 $39 $-1 $140 forward single #
loop $-1 $-1 $141 $66 #
plane-surface $-1 -70.690633869441811 0 0 1 0 0 0 0 -1 forward_v I I I I #
coedge $-1 $142 $143 $144 $145 forward $67 $-1 #
face $-1 $146 $147 $41 $-1 $148 forward single #
loop $-1 $-1 $149 $69 #
plane-surface $-1 70.690633869441811 0 0 -1 0 0 0 0 1 forward_v I I I I #
coedge $-1 $150 $151 $152 $153 forward $70 $-1 #
face $-1 $154 $155 $43 $-1 $156 reversed single #
loop $-1 $-1 $157 $72 #
plane-surface $-1 -70.690633869441839 -11.434497725974204 6.2254386014474221 -0.57357644374324357 0 0.81915203911291934 0.81915203911291934 0 0.57357644374324357 forward_v I I I I #
coedge $-1 $158 $159 $160 $161 reversed $73 $-1 #
face $-1 $-1 $162 $45 $-1 $163 forward single #
loop $-1 $164 $165 $75 #
cone-surface $-1 -62.04708369169839 -13.14439760497546 8.1589865831454684 0.57357644374324357 0 -0.81915203911291934 0.40957601955645967 0 0.28678822187162178 1 I I -0.70710678118654746 0.70710678118654746 forward I I I I #
loop $-1 $-1 $166 $58 #
coedge $-1 $110 $110 $167 $168 reversed $76 $-1 #
face $-1 $-1 $169 $47 $-1 $170 forward single #
loop $-1 $171 $172 $78 #
cone-surface $-1 -62.04708369169839 -9.7245978469729479 8.1589865831454684 0.57357644374324357 0 -0.81915203911291934 0.40957601955645967 0 0.28678822187162178 1 I I -0.70710678118654746 0.70710678118654746 forward I I I I #
loop $-1 $-1 $173 $59 #
coedge $-1 $115 $115 $174 $175 reversed $79 $-1 #
face $-1 $176 $177 $49 $-1 $178 reversed single #
loop $-1 $-1 $179 $81 #
plane-surface $-1 -45.122119891234291 -11.434497725974204 87.318403363027642 0.57357644374324357 0 0.81915203911291934 0.81915203911291934 0 -0.57357644374324357 forward_v I I I I #
coedge $-1 $180 $181 $182 $183 reversed $82 $-1 #
face $-1 $-1 $184 $51 $-1 $185 forward single #
loop $-1 $186 $187 $84 #
cone-surface $-1 62.047083691698376 -13.14439760497546 8.1589865831454684 -0.57357644374324357 0 -0.81915203911291934 0.40957601955645967 0 -0.28678822187162178 1 I I -0.70710678118654746 0.70710678118654746 forward I I I I #
loop $-1 $-1 $188 $61 #
coedge $-1 $124 $124 $189 $190 reversed $85 $-1 #
face $-1 $-1 $191 $53 $-1 $192 forward single #
loop $-1 $193 $194 $87 #
cone-surface $-1 62.047083691698376 -9.7245978469729479 8.1589865831454684 -0.57357644374324357 0 -0.81915203911291934 0.40957601955645967 0 -0.28678822187162178 1 I I -0.70710678118654746 0.70710678118654746 forward I I I I #
loop $-1 $-1 $195 $62 #
coedge $-1 $129 $129 $196 $197 reversed $88 $-1 #
face $-1 $198 $199 $37 $-1 $200 reversed single #
loop $-1 $-1 $201 $90 #
plane-surface $-1 0 -34.710186388404075 0 0 1 0 0 0 1 forward_v I I I I #
coedge $-1 $202 $203 $204 $205 forward $91 $-1 #
coedge $-1 $206 $93 $207 $208 forward $64 $-1 #
coedge $-1 $93 $206 $209 $210 forward $64 $-1 #
coedge $-1 $211 $212 $93 $137 reversed $213 $-1 #
edge $-1 $214 $215 $136 $216 forward #
face $-1 $217 $218 $39 $-1 $219 reversed single #
loop $-1 $-1 $220 $94 #
plane-surface $-1 0 -44.353147527450879 12.361194157450928 0 0 1 1 0 0 forward_v I I I I #
coedge $-1 $221 $222 $143 $223 forward $95 $-1 #
coedge $-1 $224 $97 $225 $226 reversed $67 $-1 #
coedge $-1 $97 $224 $141 $223 reversed $67 $-1 #
coedge $-1 $227 $220 $97 $145 reversed $139 $-1 #
edge $-1 $228 $229 $144 $230 forward #
face $-1 $231 $232 $41 $-1 $233 reversed single #
loop $-1 $-1 $234 $98 #
plane-surface $-1 0 44.353147527450879 12.361194157450928 0 0 1 1 0 0 forward_v I I I I #
coedge $-1 $235 $236 $151 $237 forward $99 $-1 #
coedge $-1 $238 $101 $239 $240 reversed $70 $-1 #
coedge $-1 $101 $238 $149 $237 reversed $70 $-1 #
coedge $-1 $234 $241 $101 $153 reversed $147 $-1 #
edge $-1 $242 $243 $152 $244 forward #
face $-1 $245 $246 $43 $-1 $247 reversed single #
loop $-1 $-1 $248 $102 #
plane-surface $-1 -151.78359863102207 -7.4447313416379419 122.03819236212354 0 -1 0 0.57357644374324357 0 -0.81915203911291934 forward_v I I I I #
coedge $-1 $249 $250 $251 $252 reversed $103 $-1 #
coedge $-1 $159 $105 $253 $254 reversed $73 $-1 #
coedge $-1 $105 $158 $249 $255 reversed $73 $-1 #
coedge $-1 $251 $256 $105 $161 forward $257 $-1 #
edge $-1 $258 $259 $160 $260 forward #
loop $-1 $-1 $167 $106 #
plane-surface $-1 -70.690633869441839 -11.434497725974204 6.2254386014474221 -0.57357644374324357 0 0.81915203911291934 0.81915203911291934 0 0.57357644374324357 forward_v I I I I #
loop $-1 $-1 $261 $75 #
coedge $-1 $165 $165 $166 $262 reversed $107 $-1 #
coedge $-1 $166 $166 $165 $262 forward $109 $-1 #
coedge $-1 $167 $167 $110 $168 forward $162 $-1 #
edge $-1 $263 $263 $167 $264 forward #
loop $-1 $-1 $174 $111 #
plane-surface $-1 -70.690633869441839 -11.434497725974204 6.2254386014474221 -0.57357644374324357 0 0.81915203911291934 0.81915203911291934 0 0.57357644374324357 forward_v I I I I #
loop $-1 $-1 $265 $78 #
coedge $-1 $172 $172 $173 $266 reversed $112 $-1 #
coedge $-1 $173 $173 $172 $266 forward $114 $-1 #
coedge $-1 $174 $174 $115 $175 forward $169 $-1 #
edge $-1 $267 $267 $174 $268 forward #
face $-1 $269 $270 $49 $-1 $271 forward single #
loop $-1 $-1 $272 $116 #
plane-surface $-1 35.970844870345942 -15.424264110310466 203.13115712370376 0 1 0 0.57357644374324357 0 0.81915203911291934 forward_v I I I I #
coedge $-1 $273 $274 $275 $276 reversed $117 $-1 #
coedge $-1 $181 $119 $277 $278 reversed $82 $-1 #
coedge $-1 $119 $180 $273 $279 reversed $82 $-1 #
coedge $-1 $275 $280 $119 $183 forward $270 $-1 #
edge $-1 $281 $282 $182 $283 forward #
loop $-1 $-1 $189 $120 #
plane-surface $-1 -45.122119891234291 -11.434497725974204 87.318403363027642 0.57357644374324357 0 0.81915203911291934 0.81915203911291934 0 -0.57357644374324357 forward_v I I I I #
loop $-1 $-1 $284 $84 #
coedge $-1 $187 $187 $188 $285 reversed $121 $-1 #
coedge $-1 $188 $188 $187 $285 forward $123 $-1 #
coedge $-1 $189 $189 $124 $190 forward $184 $-1 #
edge $-1 $286 $286 $189 $287 forward #
loop $-1 $-1 $196 $125 #
plane-surface $-1 -45.122119891234291 -11.434497725974204 87.318403363027642 0.57357644374324357 0 0.81915203911291934 0.81915203911291934 0 -0.57357644374324357 forward_v I I I I #
loop $-1 $-1 $288 $87 #
coedge $-1 $194 $194 $195 $289 reversed $126 $-1 #
coedge $-1 $195 $195 $194 $289 forward $128 $-1 #
coedge $-1 $196 $196 $129 $197 forward $191 $-1 #
edge $-1 $290 $290 $196 $291 forward #
face $-1 $292 $293 $37 $-1 $294 reversed single #
loop $-1 $-1 $295 $130 #
plane-surface $-1 -70.690633869441811 0 0 1 0 0 0 0 -1 forward_v I I I I #
coedge $-1 $296 $209 $297 $298 forward $131 $-1 #
coedge $-1 $299 $133 $296 $300 forward $91 $-1 #
coedge $-1 $133 $299 $301 $302 forward $91 $-1 #
coedge $-1 $212 $211 $133 $205 reversed $213 $-1 #
edge $-1 $303 $304 $204 $305 forward #
coedge $-1 $135 $134 $306 $307 forward $64 $-1 #
coedge $-1 $308 $309 $134 $208 reversed $293 $-1 #
edge $-1 $215 $310 $207 $311 forward #
coedge $-1 $201 $312 $135 $210 reversed $131 $-1 #
edge $-1 $313 $214 $209 $314 forward #
coedge $-1 $204 $136 $312 $315 forward $213 $-1 #
coedge $-1 $136 $204 $308 $316 reversed $213 $-1 #
loop $-1 $-1 $211 $292 #
vertex $-1 $137 $317 #
vertex $-1 $137 $318 #
straight-curve $-1 70.690633869441811 0 15.619954630885106 0 1 0 I I #
face $-1 $319 $320 $39 $-1 $321 reversed single #
loop $-1 $-1 $322 $138 #
plane-surface $-1 0 -44.353147527450879 4.2688687745053002 0 0 1 1 0 0 forward_v I I I I #
coedge $-1 $144 $323 $324 $325 forward $139 $-1 #
coedge $-1 $326 $141 $327 $328 reversed $95 $-1 #
coedge $-1 $141 $326 $227 $329 reversed $95 $-1 #
edge $-1 $228 $330 $141 $331 forward #
coedge $-1 $143 $142 $332 $333 forward $67 $-1 #
coedge $-1 $324 $334 $142 $226 forward $335 $-1 #
edge $-1 $336 $229 $225 $337 forward #
coedge $-1 $323 $144 $222 $329 forward $139 $-1 #
vertex $-1 $223 $338 #
vertex $-1 $325 $339 #
straight-curve $-1 0 -34.710186388404075 12.361194157450928 1 0 0 I I #
face $-1 $340 $341 $41 $-1 $342 reversed single #
loop $-1 $-1 $343 $146 #
plane-surface $-1 0 44.353147527450879 4.2688687745053002 0 0 1 1 0 0 forward_v I I I I #
coedge $-1 $344 $152 $236 $345 forward $147 $-1 #
coedge $-1 $346 $149 $343 $347 reversed $99 $-1 #
coedge $-1 $149 $346 $234 $345 reversed $99 $-1 #
edge $-1 $242 $348 $149 $349 forward #
coedge $-1 $151 $150 $350 $351 forward $70 $-1 #
coedge $-1 $352 $353 $150 $240 forward $354 $-1 #
edge $-1 $355 $243 $239 $356 forward #
coedge $-1 $152 $344 $352 $357 forward $147 $-1 #
vertex $-1 $237 $358 #
vertex $-1 $357 $359 #
straight-curve $-1 0 34.710186388404075 12.361194157450928 -1 0 0 I I #
face $-1 $-1 $257 $43 $-1 $360 forward single #
loop $-1 $-1 $361 $154 #
plane-surface $-1 -70.690633869441811 0 0 1 0 0 0 0 -1 forward_v I I I I #
coedge $-1 $362 $363 $364 $365 reversed $155 $-1 #
coedge $-1 $366 $157 $159 $255 forward $103 $-1 #
coedge $-1 $157 $366 $362 $367 forward $103 $-1 #
coedge $-1 $364 $160 $157 $252 forward $257 $-1 #
edge $-1 $259 $368 $251 $369 forward #
coedge $-1 $370 $371 $158 $254 forward $246 $-1 #
edge $-1 $372 $258 $253 $373 forward #
edge $-1 $259 $372 $159 $374 forward #
coedge $-1 $160 $364 $370 $375 forward $257 $-1 #
loop $-1 $-1 $364 $245 #
vertex $-1 $254 $376 #
vertex $-1 $161 $377 #
straight-curve $-1 -75.891799315511037 -15.424264110310466 15.619954630885104 1 0 0 I I #
coedge $-1 $261 $261 $-1 $378 reversed $164 $-1 #
edge $-1 $379 $379 $165 $380 forward #
vertex $-1 $168 $381 #
ellipse-curve $-1 -63.982254327413649 -13.14439760497546 10.922696616166283 -0.57357644374324357 0 0.81915203911291934 0.81915203911291934 0 0.57357644374324357 1 I I #
coedge $-1 $265 $265 $-1 $382 reversed $171 $-1 #
edge $-1 $383 $383 $172 $384 forward #
vertex $-1 $175 $385 #
ellipse-curve $-1 -63.982254327413649 -9.7245978469729479 10.922696616166283 -0.57357644374324357 0 0.81915203911291934 0.81915203911291934 0 0.57357644374324357 1 I I #
face $-1 $-1 $386 $49 $-1 $387 reversed single #
loop $-1 $-1 $182 $176 #
plane-surface $-1 0 0 15.619954630885106 0 0 1 1 0 0 forward_v I I I I #
coedge $-1 $388 $389 $390 $391 reversed $177 $-1 #
coedge $-1 $392 $179 $181 $279 forward $117 $-1 #
coedge $-1 $179 $392 $388 $393 forward $117 $-1 #
coedge $-1 $390 $182 $179 $276 forward $270 $-1 #
edge $-1 $282 $394 $275 $395 forward #
coedge $-1 $396 $397 $180 $278 forward $386 $-1 #
edge $-1 $398 $281 $277 $399 forward #
edge $-1 $282 $398 $181 $400 forward #
coedge $-1 $182 $390 $396 $401 forward $270 $-1 #
vertex $-1 $278 $402 #
vertex $-1 $183 $403 #
straight-curve $-1 17.985422435172971 -7.4447313416379419 15.619954630885104 -1 0 0 I I #
coedge $-1 $284 $284 $-1 $404 reversed $186 $-1 #
edge $-1 $405 $405 $187 $406 forward #
vertex $-1 $190 $407 #
ellipse-curve $-1 63.982254327413628 -13.14439760497546 10.922696616166268 0.57357644374324357 0 0.81915203911291934 0.81915203911291934 0 -0.57357644374324357 1 I I #
coedge $-1 $288 $288 $-1 $408 reversed $193 $-1 #
edge $-1 $409 $409 $194 $410 forward #
vertex $-1 $197 $411 #
ellipse-curve $-1 63.982254327413628 -9.7245978469729479 10.922696616166268 0.57357644374324357 0 0.81915203911291934 0.81915203911291934 0 -0.57357644374324357 1 I I #
face $-1 $-1 $213 $37 $-1 $412 reversed single #
loop $-1 $-1 $309 $198 #
plane-surface $-1 0 34.710186388404075 0 0 -1 0 0 0 -1 forward_v I I I I #
coedge $-1 $413 $306 $309 $414 forward $199 $-1 #
coedge $-1 $312 $201 $202 $300 reversed $131 $-1 #
coedge $-1 $306 $413 $201 $298 reversed $199 $-1 #
edge $-1 $313 $415 $297 $416 forward #
coedge $-1 $203 $202 $413 $417 forward $91 $-1 #
edge $-1 $304 $415 $296 $418 forward #
coedge $-1 $309 $308 $203 $302 reversed $293 $-1 #
edge $-1 $419 $303 $301 $420 forward #
vertex $-1 $205 $421 #
vertex $-1 $315 $422 #
straight-curve $-1 70.690633869441811 0 -15.619954630885106 0 -1 0 I I #
coedge $-1 $295 $297 $206 $307 reversed $199 $-1 #
edge $-1 $310 $313 $306 $423 forward #
coedge $-1 $301 $207 $212 $316 forward $293 $-1 #
coedge $-1 $207 $301 $295 $414 reversed $293 $-1 #
vertex $-1 $208 $424 #
straight-curve $-1 0 34.710186388404075 15.619954630885106 -1 0 0 I I #
coedge $-1 $209 $296 $211 $315 reversed $131 $-1 #
vertex $-1 $307 $425 #
straight-curve $-1 0 -34.710186388404075 15.619954630885106 1 0 0 I I #
edge $-1 $214 $304 $211 $426 forward #
edge $-1 $215 $303 $212 $427 forward #
point $-1 70.690633869441811 -34.710186388404075 15.619954630885106 #
point $-1 70.690633869441811 34.710186388404075 15.619954630885106 #
face $-1 $-1 $335 $39 $-1 $428 reversed single #
loop $-1 $-1 $429 $217 #
plane-surface $-1 0 -53.996108666497683 8.3150314659781142 0 1 0 0 0 1 forward_v I I I I #
coedge $-1 $430 $332 $334 $431 forward $218 $-1 #
coedge $-1 $220 $227 $432 $433 forward $139 $-1 #
coedge $-1 $434 $225 $220 $325 reversed $335 $-1 #
edge $-1 $435 $229 $324 $436 forward #
coedge $-1 $222 $221 $429 $437 reversed $95 $-1 #
coedge $-1 $332 $430 $221 $328 forward $218 $-1 #
edge $-1 $438 $330 $221 $439 forward #
edge $-1 $228 $440 $222 $441 forward #
vertex $-1 $223 $442 #
straight-curve $-1 -70.690633869441811 -34.710186388404075 0 0 0 -1 I I #
coedge $-1 $322 $327 $224 $333 reversed $218 $-1 #
edge $-1 $336 $330 $332 $443 forward #
coedge $-1 $225 $434 $322 $431 reversed $335 $-1 #
loop $-1 $-1 $225 $319 #
vertex $-1 $226 $444 #
straight-curve $-1 70.690633869441811 -34.710186388404075 0 0 0 1 I I #
point $-1 -70.690633869441811 -34.710186388404075 12.361194157450928 #
point $-1 70.690633869441811 -34.710186388404075 12.361194157450928 #
face $-1 $-1 $354 $41 $-1 $445 reversed single #
loop $-1 $-1 $446 $231 #
plane-surface $-1 0 53.996108666497683 8.3150314659781142 0 -1 0 0 0 -1 forward_v I I I I #
coedge $-1 $350 $447 $235 $347 forward $232 $-1 #
coedge $-1 $241 $234 $448 $449 forward $147 $-1 #
edge $-1 $242 $450 $236 $451 forward #
coedge $-1 $236 $235 $446 $452 reversed $99 $-1 #
edge $-1 $453 $348 $235 $454 forward #
vertex $-1 $237 $455 #
straight-curve $-1 70.690633869441811 34.710186388404075 0 0 0 -1 I I #
coedge $-1 $456 $343 $238 $351 reversed $232 $-1 #
edge $-1 $355 $348 $350 $457 forward #
coedge $-1 $458 $239 $241 $357 reversed $354 $-1 #
coedge $-1 $239 $458 $456 $459 reversed $354 $-1 #
loop $-1 $-1 $239 $340 #
vertex $-1 $240 $460 #
straight-curve $-1 -70.690633869441811 34.710186388404075 0 0 0 1 I I #
edge $-1 $461 $243 $352 $462 forward #
point $-1 70.690633869441811 34.710186388404075 12.361194157450928 #
point $-1 -70.690633869441811 34.710186388404075 12.361194157450928 #
plane-surface $-1 0 0 15.619954630885106 0 0 1 1 0 0 forward_v I I I I #
coedge $-1 $371 $370 $363 $463 forward $246 $-1 #
coedge $-1 $363 $248 $250 $367 reversed $155 $-1 #
coedge $-1 $248 $362 $361 $463 reversed $155 $-1 #
coedge $-1 $256 $251 $248 $365 forward $257 $-1 #
edge $-1 $368 $464 $364 $465 forward #
coedge $-1 $250 $249 $371 $466 reversed $103 $-1 #
edge $-1 $467 $368 $362 $468 forward #
vertex $-1 $252 $469 #
straight-curve $-1 -57.273874785385509 -5.7172488629871019 15.619954630885108 0 1 0 I I #
coedge $-1 $361 $253 $256 $375 reversed $246 $-1 #
coedge $-1 $253 $361 $366 $466 forward $246 $-1 #
vertex $-1 $254 $470 #
straight-curve $-1 -70.690633869441811 -15.424264110310466 61.019096181061769 0 0 1 I I #
straight-curve $-1 -70.690633869441839 -15.424264110310466 6.2254386014474221 -0.81915203911291934 0 -0.57357644374324357 I I #
edge $-1 $464 $258 $370 $471 forward #
point $-1 -70.690633869441811 -15.424264110310466 15.619954630885106 #
point $-1 -57.273874785385516 -15.424264110310466 15.619954630885106 #
edge $-1 $472 $472 $261 $-1 forward #
vertex $-1 $262 $473 #
ellipse-curve $-1 -62.333871913570015 -13.14439760497546 8.5685626027019275 -0.57357644374324357 0 0.81915203911291934 0.81915203911291934 0 0.57357644374324357 1 I I #
point $-1 -63.163102288300706 -13.14439760497546 11.496273059909495 #
edge $-1 $474 $474 $265 $-1 forward #
vertex $-1 $266 $475 #
ellipse-curve $-1 -62.333871913570015 -9.7245978469729479 8.5685626027019275 -0.57357644374324357 0 0.81915203911291934 0.81915203911291934 0 0.57357644374324357 1 I I #
point $-1 -63.163102288300706 -9.7245978469729479 11.496273059909495 #
loop $-1 $-1 $277 $269 #
plane-surface $-1 70.690633869441811 0 0 -1 0 0 0 0 1 forward_v I I I I #
coedge $-1 $389 $272 $274 $393 reversed $177 $-1 #
coedge $-1 $272 $388 $476 $477 reversed $177 $-1 #
coedge $-1 $280 $275 $272 $391 forward $270 $-1 #
edge $-1 $394 $478 $390 $479 forward #
coedge $-1 $274 $273 $397 $480 reversed $117 $-1 #
edge $-1 $481 $394 $388 $482 forward #
vertex $-1 $276 $483 #
straight-curve $-1 57.273874785385466 -5.7172488629871019 15.619954630885104 0 -1 0 I I #
coedge $-1 $476 $277 $280 $401 reversed $386 $-1 #
coedge $-1 $277 $476 $392 $480 forward $386 $-1 #
vertex $-1 $278 $484 #
straight-curve $-1 70.690633869441811 -7.4447313416379419 101.56557856185188 0 0 1 I I #
straight-curve $-1 -45.122119891234291 -7.4447313416379419 87.318403363027642 0.81915203911291934 0 -0.57357644374324357 I I #
edge $-1 $478 $281 $396 $485 forward #
point $-1 70.690633869441811 -7.4447313416379419 15.619954630885106 #
point $-1 57.273874785385473 -7.4447313416379419 15.619954630885104 #
edge $-1 $486 $486 $284 $-1 forward #
vertex $-1 $285 $487 #
ellipse-curve $-1 62.33387191357 -13.14439760497546 8.5685626027019275 0.57357644374324357 0 0.81915203911291934 0.81915203911291934 0 -0.57357644374324357 1 I I #
point $-1 64.801406366526535 -13.14439760497546 10.349120172423007 #
edge $-1 $488 $488 $288 $-1 forward #
vertex $-1 $289 $489 #
ellipse-curve $-1 62.33387191357 -9.7245978469729479 8.5685626027019275 0.57357644374324357 0 0.81915203911291934 0.81915203911291934 0 -0.57357644374324357 1 I I #
point $-1 64.801406366526535 -9.7245978469729479 10.349120172423007 #
plane-surface $-1 70.690633869441811 0 0 -1 0 0 0 0 1 forward_v I I I I #
coedge $-1 $297 $295 $299 $417 reversed $199 $-1 #
edge $-1 $310 $419 $309 $490 forward #
vertex $-1 $417 $491 #
straight-curve $-1 -70.690633869441811 -34.710186388404075 0 0 0 -1 I I #
edge $-1 $415 $419 $413 $492 forward #
straight-curve $-1 0 -34.710186388404075 -15.619954630885106 -1 0 0 I I #
vertex $-1 $302 $493 #
straight-curve $-1 0 34.710186388404075 -15.619954630885106 1 0 0 I I #
point $-1 70.690633869441811 34.710186388404075 -15.619954630885106 #
point $-1 70.690633869441811 -34.710186388404075 -15.619954630885106 #
straight-curve $-1 -70.690633869441811 0 15.619954630885106 0 -1 0 I I #
point $-1 -70.690633869441811 34.710186388404075 15.619954630885106 #
point $-1 -70.690633869441811 -34.710186388404075 15.619954630885106 #
straight-curve $-1 70.690633869441811 -34.710186388404075 0 0 0 -1 I I #
straight-curve $-1 70.690633869441811 34.710186388404075 0 0 0 -1 I I #
plane-surface $-1 70.690633869441811 0 0 -1 0 0 0 0 1 forward_v I I I I #
coedge $-1 $494 $432 $326 $437 forward $320 $-1 #
coedge $-1 $327 $322 $494 $495 forward $218 $-1 #
edge $-1 $336 $496 $334 $497 forward #
coedge $-1 $429 $498 $323 $433 reversed $320 $-1 #
edge $-1 $440 $435 $432 $499 forward #
coedge $-1 $334 $324 $498 $500 forward $335 $-1 #
vertex $-1 $325 $501 #
straight-curve $-1 70.690633869441811 -44.353147527450879 12.361194157450928 0 1 0 I I #
edge $-1 $440 $438 $326 $502 forward #
vertex $-1 $328 $503 #
straight-curve $-1 -70.690633869441811 -44.353147527450879 4.2688687745053002 0 1 0 I I #
vertex $-1 $329 $504 #
straight-curve $-1 -70.690633869441811 -44.353147527450879 12.361194157450928 0 -1 0 I I #
point $-1 -70.690633869441811 -34.710186388404075 4.2688687745053002 #
straight-curve $-1 0 -34.710186388404075 4.2688687745053002 -1 0 0 I I #
point $-1 70.690633869441811 -34.710186388404075 4.2688687745053002 #
plane-surface $-1 -70.690633869441811 0 0 1 0 0 0 0 -1 forward_v I I I I #
coedge $-1 $505 $448 $346 $452 forward $341 $-1 #
coedge $-1 $343 $456 $505 $506 forward $232 $-1 #
coedge $-1 $446 $507 $344 $449 reversed $341 $-1 #
edge $-1 $450 $461 $448 $508 forward #
vertex $-1 $345 $509 #
straight-curve $-1 70.690633869441811 44.353147527450879 12.361194157450928 0 1 0 I I #
edge $-1 $450 $453 $346 $510 forward #
vertex $-1 $347 $511 #
straight-curve $-1 70.690633869441811 44.353147527450879 4.2688687745053002 0 -1 0 I I #
point $-1 70.690633869441811 34.710186388404075 4.2688687745053002 #
coedge $-1 $447 $350 $353 $459 forward $232 $-1 #
straight-curve $-1 0 34.710186388404075 4.2688687745053002 1 0 0 I I #
coedge $-1 $353 $352 $507 $512 forward $354 $-1 #
edge $-1 $355 $513 $353 $514 forward #
point $-1 -70.690633869441811 34.710186388404075 4.2688687745053002 #
vertex $-1 $449 $515 #
straight-curve $-1 -70.690633869441811 44.353147527450879 12.361194157450928 0 -1 0 I I #
edge $-1 $464 $467 $361 $516 forward #
vertex $-1 $375 $517 #
straight-curve $-1 -75.891799315511037 -7.4447313416379419 15.619954630885104 -1 0 0 I I #
edge $-1 $467 $372 $371 $518 forward #
vertex $-1 $466 $519 #
straight-curve $-1 -70.690633869441839 -7.4447313416379419 6.2254386014474221 0.81915203911291934 0 0.57357644374324357 I I #
point $-1 -57.273874785385516 -7.4447313416379419 15.619954630885106 #
point $-1 -70.690633869441811 -15.424264110310466 6.2254386014474417 #
straight-curve $-1 -70.690633869441811 0 15.619954630885106 0 -1 0 I I #
vertex $-1 $378 $520 #
point $-1 -61.514719874457093 -13.14439760497546 9.1421390464451715 #
vertex $-1 $382 $521 #
point $-1 -61.514719874457093 -9.7245978469729479 9.1421390464451715 #
coedge $-1 $397 $396 $389 $477 forward $386 $-1 #
edge $-1 $478 $481 $476 $522 forward #
vertex $-1 $401 $523 #
straight-curve $-1 17.985422435172971 -15.424264110310466 15.619954630885104 1 0 0 I I #
edge $-1 $481 $398 $397 $524 forward #
vertex $-1 $480 $525 #
straight-curve $-1 -45.122119891234291 -15.424264110310466 87.318403363027642 -0.81915203911291934 0 0.57357644374324357 I I #
point $-1 57.273874785385473 -15.424264110310466 15.619954630885104 #
point $-1 70.690633869441797 -7.4447313416379419 6.2254386014474221 #
straight-curve $-1 70.690633869441811 0 15.619954630885106 0 1 0 I I #
vertex $-1 $404 $526 #
point $-1 63.153023952682915 -13.14439760497546 7.9949861589586844 #
vertex $-1 $408 $527 #
point $-1 63.153023952682915 -9.7245978469729479 7.9949861589586844 #
straight-curve $-1 -70.690633869441811 34.710186388404075 0 0 0 -1 I I #
point $-1 -70.690633869441811 -34.710186388404075 -15.619954630885106 #
straight-curve $-1 -70.690633869441811 0 -15.619954630885106 0 1 0 I I #
point $-1 -70.690633869441811 34.710186388404075 -15.619954630885106 #
coedge $-1 $498 $429 $430 $495 reversed $320 $-1 #
edge $-1 $496 $438 $494 $528 forward #
vertex $-1 $500 $529 #
straight-curve $-1 70.690633869441811 -44.353147527450879 4.2688687745053002 0 -1 0 I I #
coedge $-1 $432 $494 $434 $500 reversed $320 $-1 #
straight-curve $-1 0 -53.996108666497683 12.361194157450928 1 0 0 I I #
edge $-1 $435 $496 $434 $530 forward #
point $-1 70.690633869441811 -53.996108666497683 12.361194157450928 #
straight-curve $-1 -70.690633869441811 -53.996108666497683 8.3150314659781142 0 0 -1 I I #
point $-1 -70.690633869441811 -53.996108666497683 4.2688687745053002 #
point $-1 -70.690633869441811 -53.996108666497683 12.361194157450928 #
coedge $-1 $507 $446 $447 $506 reversed $341 $-1 #
edge $-1 $513 $453 $505 $531 forward #
coedge $-1 $448 $505 $458 $512 reversed $341 $-1 #
straight-curve $-1 0 53.996108666497683 12.361194157450928 -1 0 0 I I #
point $-1 70.690633869441811 53.996108666497683 12.361194157450928 #
straight-curve $-1 70.690633869441811 53.996108666497683 8.3150314659781142 0 0 -1 I I #
point $-1 70.690633869441811 53.996108666497683 4.2688687745053002 #
edge $-1 $461 $513 $507 $532 forward #
vertex $-1 $506 $533 #
straight-curve $-1 -70.690633869441811 44.353147527450879 4.2688687745053002 0 1 0 I I #
point $-1 -70.690633869441811 53.996108666497683 12.361194157450928 #
straight-curve $-1 -70.690633869441811 -7.4447313416379419 61.019096181061769 0 0 -1 I I #
point $-1 -70.690633869441811 -7.4447313416379419 15.619954630885106 #
straight-curve $-1 -70.690633869441811 -5.7172488629871019 6.2254386014474461 0 -1 0 I I #
point $-1 -70.690633869441811 -7.4447313416379419 6.2254386014474417 #
point $-1 -61.760295469826765 -13.14439760497546 7.7494105635890085 #
point $-1 -61.760295469826765 -9.7245978469729479 7.7494105635890085 #
straight-curve $-1 70.690633869441811 -15.424264110310466 101.56557856185188 0 0 -1 I I #
point $-1 70.690633869441811 -15.424264110310466 15.619954630885106 #
straight-curve $-1 70.690633869441811 -5.7172488629871019 6.225438601447415 0 1 0 I I #
point $-1 70.690633869441797 -15.424264110310466 6.2254386014474221 #
point $-1 61.760295469826751 -13.14439760497546 7.7494105635890085 #
point $-1 61.760295469826751 -9.7245978469729479 7.7494105635890085 #
straight-curve $-1 0 -53.996108666497683 4.2688687745053002 -1 0 0 I I #
point $-1 70.690633869441811 -53.996108666497683 4.2688687745053002 #
straight-curve $-1 70.690633869441811 -53.996108666497683 8.3150314659781142 0 0 -1 I I #
straight-curve $-1 0 53.996108666497683 4.2688687745053002 1 0 0 I I #
straight-curve $-1 -70.690633869441811 53.996108666497683 8.3150314659781142 0 0 -1 I I #
point $-1 -70.690633869441811 53.996108666497683 4.2688687745053002 #
End-of-ACIS-data 