600 0 10 0           
34 FBMach with ACIS3D/Toolkit - 6.0.3 13 ACIS 6.0.3 NT 24 Mon Apr 16 11:12:08 2001 
1 9.9999999999999995e-007 1e-010 
body $10 $11 $-1 $12 #
body $-1 $13 $-1 $14 #
body $-1 $15 $-1 $16 #
body $-1 $17 $-1 $18 #
body $-1 $19 $-1 $20 #
body $-1 $21 $-1 $22 #
body $-1 $23 $-1 $24 #
body $-1 $25 $-1 $26 #
body $-1 $27 $-1 $28 #
bdycol-kcp $-1 1 1 $29 #
model_id-kcp-attrib $-1 $-1 $-1 $0 1 987433927 234 -85327871 1 #
lump $-1 $-1 $30 $0 #
transform $-1 1 0 0 0 1 0 0 0 1 50.328684347056488 29.855460302523266 8.9417864411420886 1 rotate no_reflect no_shear #
lump $-1 $-1 $31 $1 #
transform $-1 1 0 0 0 1 0 0 0 1 3.1000085033252613 15.803850947209622 8.9417864411420886 1 rotate no_reflect no_shear #
lump $-1 $-1 $32 $2 #
transform $-1 1 0 0 0 1 0 0 0 1 104.62018167891509 29.855460302523266 3.3277992272198107 1 rotate no_reflect no_shear #
lump $-1 $-1 $33 $3 #
transform $-1 1 0 0 0 0.8660253999169214 -0.50000000669873634 0 0.50000000669873634 0.8660253999169214 81.16086095873581 58.328431729987237 126.2109852989456 1 rotate no_reflect no_shear #
lump $-1 $-1 $34 $4 #
transform $-1 1 0 0 0 -0.8660253999169214 0.50000000669873634 0 -0.50000000669873634 -0.8660253999169214 76.2019116305474 48.507453152074042 7.1784841769561609 1 rotate no_reflect no_shear #
lump $-1 $-1 $35 $5 #
transform $-1 1 0 0 0 -0.8660253999169214 0.50000000669873634 0 -0.50000000669873634 -0.8660253999169214 86.119810286924192 48.507453152074042 7.1784841769561609 1 rotate no_reflect no_shear #
lump $-1 $-1 $36 $6 #
transform $-1 1 0 0 0 0.82903756765294845 0.55919291073839883 0 -0.55919291073839883 0.82903756765294845 81.371070174322881 -56.286886987329211 97.715957141515062 1 rotate no_reflect no_shear #
lump $-1 $-1 $37 $7 #
transform $-1 1 0 0 0 -0.82903756765294845 -0.55919291073839883 0 0.55919291073839883 -0.82903756765294845 76.502210509957507 4.3175853221852183 13.648663069381875 1 rotate no_reflect no_shear #
lump $-1 $-1 $38 $8 #
transform $-1 1 0 0 0 -0.82903756765294845 -0.55919291073839883 0 0.55919291073839883 -0.82903756765294845 86.239929838688241 4.3175853221852183 13.648663069381875 1 rotate no_reflect no_shear #
body $39 $40 $-1 $41 #
shell $-1 $-1 $-1 $42 $-1 $11 #
shell $-1 $-1 $-1 $43 $-1 $13 #
shell $-1 $-1 $-1 $44 $-1 $15 #
shell $-1 $-1 $-1 $45 $-1 $17 #
shell $-1 $-1 $-1 $46 $-1 $19 #
shell $-1 $-1 $-1 $47 $-1 $21 #
shell $-1 $-1 $-1 $48 $-1 $23 #
shell $-1 $-1 $-1 $49 $-1 $25 #
shell $-1 $-1 $-1 $50 $-1 $27 #
model_id-kcp-attrib $-1 $-1 $-1 $29 1 987433927 250 -84279294 1 #
lump $-1 $-1 $51 $29 #
transform $-1 1 0 0 0 1 0 0 0 1 50.328684347056488 29.855460302523266 8.9417864411420886 1 no_rotate no_reflect no_shear #
face $52 $53 $54 $30 $-1 $55 forward single #
face $-1 $56 $57 $31 $-1 $58 forward single #
face $-1 $59 $60 $32 $-1 $61 forward single #
face $-1 $62 $63 $33 $-1 $64 forward single #
face $-1 $65 $66 $34 $-1 $67 forward single #
face $-1 $68 $69 $35 $-1 $70 forward single #
face $-1 $71 $72 $36 $-1 $73 forward single #
face $-1 $74 $75 $37 $-1 $76 forward single #
face $-1 $77 $78 $38 $-1 $79 forward single #
shell $-1 $-1 $-1 $80 $-1 $40 #
model_id-kcp-attrib $-1 $-1 $-1 $42 1 987433927 234 -85327871 2 #
face $81 $82 $83 $30 $-1 $84 reversed single #
loop $-1 $-1 $85 $42 #
plane-surface $-1 0 0 8.9417864411420886 0 0 1 1 0 0 forward_v I I I I #
face $-1 $86 $87 $31 $-1 $88 reversed single #
loop $-1 $-1 $89 $43 #
plane-surface $-1 0 0 8.9417864411420886 0 0 1 1 0 0 forward_v I I I I #
face $-1 $90 $91 $32 $-1 $92 reversed single #
loop $-1 $-1 $93 $44 #
plane-surface $-1 0 0 1.5 0 0 1 1 0 0 forward_v I I I I #
face $-1 $94 $95 $33 $-1 $96 reversed single #
loop $-1 $-1 $97 $45 #
plane-surface $-1 0 0 100.65736869411298 0 0 1 1 0 0 forward_v I I I I #
face $-1 $98 $99 $34 $-1 $100 forward single #
loop $-1 $101 $102 $46 #
cone-surface $-1 0 0 -4.2941450239570305 0 0 1 2.5 0 0 1 I I 0 1 2.5 forward I I I I #
face $-1 $103 $104 $35 $-1 $105 forward single #
loop $-1 $106 $107 $47 #
cone-surface $-1 0 0 -4.2941450239570305 0 0 1 2.5 0 0 1 I I 0 1 2.5 forward I I I I #
face $-1 $108 $109 $36 $-1 $110 reversed single #
loop $-1 $-1 $111 $48 #
plane-surface $-1 0 0 100.65736869411298 0 0 1 1 0 0 forward_v I I I I #
face $-1 $112 $113 $37 $-1 $114 forward single #
loop $-1 $115 $116 $49 #
cone-surface $-1 0 0 -1.7135837885677656 0 0 1 1 0 0 1 I I 0 1 1 forward I I I I #
face $-1 $117 $118 $38 $-1 $119 forward single #
loop $-1 $120 $121 $50 #
cone-surface $-1 0 0 -1.7135837885677656 0 0 1 1 0 0 1 I I 0 1 1 forward I I I I #
face $122 $123 $124 $51 $-1 $125 forward single #
model_id-kcp-attrib $-1 $-1 $-1 $53 1 987433927 234 -85327871 3 #
face $126 $127 $128 $30 $-1 $129 reversed single #
loop $-1 $-1 $130 $53 #
plane-surface $-1 0 0 -8.9417864411420886 0 0 1 1 0 0 forward_v I I I I #
coedge $-1 $131 $132 $133 $134 forward $54 $-1 #
face $-1 $135 $136 $31 $-1 $137 reversed single #
loop $-1 $-1 $138 $56 #
plane-surface $-1 0 0 -8.9417864411420886 0 0 1 1 0 0 forward_v I I I I #
coedge $-1 $139 $140 $141 $142 forward $57 $-1 #
face $-1 $143 $144 $32 $-1 $145 reversed single #
loop $-1 $-1 $146 $59 #
plane-surface $-1 0 0 -1.5 0 0 1 1 0 0 forward_v I I I I #
coedge $-1 $147 $148 $149 $150 forward $60 $-1 #
face $-1 $151 $152 $33 $-1 $153 reversed single #
loop $-1 $-1 $154 $62 #
plane-surface $-1 0 0 -100.65736869411298 0 0 1 1 0 0 forward_v I I I I #
coedge $-1 $155 $156 $157 $158 forward $63 $-1 #
face $-1 $-1 $159 $34 $-1 $160 forward single #
loop $-1 $-1 $161 $65 #
plane-surface $-1 0 0 -7.3382900479140609 0 0 -1 -1 0 0 forward_v I I I I #
loop $-1 $-1 $162 $46 #
coedge $-1 $102 $102 $161 $163 reversed $66 $-1 #
face $-1 $-1 $164 $35 $-1 $165 forward single #
loop $-1 $-1 $166 $68 #
plane-surface $-1 0 0 -7.3382900479140609 0 0 -1 -1 0 0 forward_v I I I I #
loop $-1 $-1 $167 $47 #
coedge $-1 $107 $107 $166 $168 reversed $69 $-1 #
face $-1 $169 $170 $36 $-1 $171 reversed single #
loop $-1 $-1 $172 $71 #
plane-surface $-1 0 0 -100.65736869411298 0 0 1 1 0 0 forward_v I I I I #
coedge $-1 $173 $174 $175 $176 forward $72 $-1 #
face $-1 $-1 $177 $37 $-1 $178 forward single #
loop $-1 $-1 $179 $74 #
plane-surface $-1 0 0 -2.9271675771355321 0 0 -1 -1 0 0 forward_v I I I I #
loop $-1 $-1 $180 $49 #
coedge $-1 $116 $116 $179 $181 reversed $75 $-1 #
face $-1 $-1 $182 $38 $-1 $183 forward single #
loop $-1 $-1 $184 $77 #
plane-surface $-1 0 0 -2.9271675771355321 0 0 -1 -1 0 0 forward_v I I I I #
loop $-1 $-1 $185 $50 #
coedge $-1 $121 $121 $184 $186 reversed $78 $-1 #
model_id-kcp-attrib $-1 $-1 $-1 $80 1 987433927 250 -84279294 2 #
face $187 $188 $189 $51 $-1 $190 reversed single #
loop $-1 $-1 $191 $80 #
plane-surface $-1 0 0 8.9417864411420886 0 0 1 1 0 0 forward_v I I I I #
model_id-kcp-attrib $-1 $-1 $-1 $82 1 987433927 234 -85327871 4 #
face $192 $193 $194 $30 $-1 $195 reversed single #
loop $-1 $-1 $196 $82 #
plane-surface $-1 0 -29.855460302523266 0 0 1 0 0 0 1 forward_v I I I I #
coedge $-1 $197 $198 $199 $200 forward $83 $-1 #
coedge $-1 $201 $85 $202 $203 forward $54 $-1 #
coedge $-1 $85 $201 $204 $205 forward $54 $-1 #
coedge $-1 $206 $207 $85 $134 reversed $208 $-1 #
edge $209 $210 -29.855460302523266 $211 29.855460302523266 $133 $212 forward 7 unknown #
face $-1 $213 $214 $31 $-1 $215 reversed single #
loop $-1 $-1 $216 $86 #
plane-surface $-1 0 -2.0797219350745557 0 0 1 0 0 0 1 forward_v I I I I #
coedge $-1 $217 $218 $219 $220 forward $87 $-1 #
coedge $-1 $221 $89 $222 $223 forward $57 $-1 #
coedge $-1 $89 $221 $224 $225 forward $57 $-1 #
coedge $-1 $226 $227 $89 $142 reversed $228 $-1 #
edge $-1 $229 -2.0797219350745557 $230 2.0797219350745557 $141 $231 forward 7 unknown #
face $-1 $232 $233 $32 $-1 $234 reversed single #
loop $-1 $-1 $235 $90 #
plane-surface $-1 0 -29.855460302523266 0 0 1 0 0 0 1 forward_v I I I I #
coedge $-1 $236 $237 $238 $239 forward $91 $-1 #
coedge $-1 $240 $93 $241 $242 forward $60 $-1 #
coedge $-1 $93 $240 $243 $244 forward $60 $-1 #
coedge $-1 $245 $246 $93 $150 reversed $247 $-1 #
edge $-1 $248 -29.855460302523266 $249 29.855460302523266 $149 $250 forward 7 unknown #
face $-1 $251 $252 $33 $-1 $253 reversed single #
loop $-1 $-1 $254 $94 #
plane-surface $-1 0 -201.31473738822595 0 0 1 0 0 0 1 forward_v I I I I #
coedge $-1 $255 $256 $257 $258 forward $95 $-1 #
coedge $-1 $259 $97 $260 $261 forward $63 $-1 #
coedge $-1 $97 $259 $262 $263 forward $63 $-1 #
coedge $-1 $264 $265 $97 $158 reversed $266 $-1 #
edge $-1 $267 -201.31473738822595 $268 201.31473738822595 $157 $269 forward 7 unknown #
loop $-1 $270 $271 $98 #
cone-surface $-1 0 0 0 0 0 1 1.25 0 0 1 I I -0.70710678118654746 0.70710678118654768 1.25 forward I I I I #
coedge $-1 $161 $161 $102 $163 forward $99 $-1 #
coedge $-1 $162 $162 $271 $272 forward $101 $-1 #
edge $-1 $273 0 $273 6.2831853071795862 $161 $274 forward 7 unknown #
loop $-1 $275 $276 $103 #
cone-surface $-1 0 0 0 0 0 1 1.25 0 0 1 I I -0.70710678118654746 0.70710678118654768 1.25 forward I I I I #
coedge $-1 $166 $166 $107 $168 forward $104 $-1 #
coedge $-1 $167 $167 $276 $277 forward $106 $-1 #
edge $-1 $278 0 $278 6.2831853071795862 $166 $279 forward 7 unknown #
face $-1 $280 $281 $36 $-1 $282 reversed single #
loop $-1 $-1 $283 $108 #
plane-surface $-1 0 -201.31473738822595 0 0 1 0 0 0 1 forward_v I I I I #
coedge $-1 $284 $285 $286 $287 forward $109 $-1 #
coedge $-1 $288 $111 $289 $290 forward $72 $-1 #
coedge $-1 $111 $288 $291 $292 forward $72 $-1 #
coedge $-1 $293 $294 $111 $176 reversed $295 $-1 #
edge $-1 $296 -201.31473738822595 $297 201.31473738822595 $175 $298 forward 7 unknown #
loop $-1 $299 $300 $112 #
cone-surface $-1 0 0 0 0 0 1 0.5 0 0 1 I I -0.70710678118654746 0.70710678118654746 0.5 forward I I I I #
coedge $-1 $179 $179 $116 $181 forward $113 $-1 #
coedge $-1 $180 $180 $300 $301 forward $115 $-1 #
edge $-1 $302 0 $302 6.2831853071795862 $179 $303 forward 7 unknown #
loop $-1 $304 $305 $117 #
cone-surface $-1 0 0 0 0 0 1 0.5 0 0 1 I I -0.70710678118654746 0.70710678118654746 0.5 forward I I I I #
coedge $-1 $184 $184 $121 $186 forward $118 $-1 #
coedge $-1 $185 $185 $305 $306 forward $120 $-1 #
edge $-1 $307 0 $307 6.2831853071795862 $184 $308 forward 7 unknown #
model_id-kcp-attrib $-1 $-1 $-1 $123 1 987433927 250 -84279294 3 #
face $309 $310 $311 $51 $-1 $312 reversed single #
loop $-1 $-1 $313 $123 #
plane-surface $-1 0 0 -8.9417864411420886 0 0 1 1 0 0 forward_v I I I I #
coedge $-1 $314 $315 $316 $317 forward $124 $-1 #
model_id-kcp-attrib $-1 $-1 $-1 $127 1 987433927 234 -85327871 5 #
face $318 $319 $320 $30 $-1 $321 reversed single #
loop $-1 $-1 $322 $127 #
plane-surface $-1 -50.328684347056488 0 0 1 0 0 0 0 -1 forward_v I I I I #
coedge $-1 $323 $204 $324 $325 forward $128 $-1 #
coedge $-1 $326 $130 $323 $327 forward $83 $-1 #
coedge $-1 $130 $326 $328 $329 forward $83 $-1 #
coedge $-1 $207 $206 $130 $200 reversed $208 $-1 #
edge $-1 $330 -29.855460302523266 $331 29.855460302523266 $199 $332 forward 7 unknown #
coedge $-1 $132 $131 $333 $334 forward $54 $-1 #
coedge $-1 $335 $336 $131 $203 reversed $320 $-1 #
edge $337 $211 -50.328684347056488 $338 50.328684347056488 $202 $339 forward 7 unknown #
coedge $-1 $196 $340 $132 $205 reversed $128 $-1 #
edge $341 $342 -50.328684347056488 $210 50.328684347056488 $204 $343 forward 7 unknown #
coedge $-1 $199 $133 $340 $344 forward $208 $-1 #
coedge $-1 $133 $199 $335 $345 reversed $208 $-1 #
loop $-1 $-1 $206 $319 #
attrib_edge_convexity-kcp-attrib $-1 $346 $-1 $134 1 #
vertex $-1 $134 $347 #
vertex $-1 $134 $348 #
straight-curve $-1 50.328684347056488 0 8.9417864411420886 0 1 0 I I #
face $-1 $349 $350 $31 $-1 $351 reversed single #
loop $-1 $-1 $352 $135 #
plane-surface $-1 -3.1000085033252613 0 0 1 0 0 0 0 -1 forward_v I I I I #
coedge $-1 $353 $224 $354 $355 forward $136 $-1 #
coedge $-1 $356 $138 $353 $357 forward $87 $-1 #
coedge $-1 $138 $356 $358 $359 forward $87 $-1 #
coedge $-1 $227 $226 $138 $220 reversed $228 $-1 #
edge $-1 $360 -2.0797219350745557 $361 2.0797219350745557 $219 $362 forward 7 unknown #
coedge $-1 $140 $139 $363 $364 forward $57 $-1 #
coedge $-1 $365 $366 $139 $223 reversed $350 $-1 #
edge $-1 $230 -3.1000085033252613 $367 3.1000085033252613 $222 $368 forward 7 unknown #
coedge $-1 $216 $369 $140 $225 reversed $136 $-1 #
edge $-1 $370 -3.1000085033252613 $229 3.1000085033252613 $224 $371 forward 7 unknown #
coedge $-1 $219 $141 $369 $372 forward $228 $-1 #
coedge $-1 $141 $219 $365 $373 reversed $228 $-1 #
loop $-1 $-1 $226 $349 #
vertex $-1 $142 $374 #
vertex $-1 $142 $375 #
straight-curve $-1 3.1000085033252613 0 8.9417864411420886 0 1 0 I I #
face $-1 $376 $377 $32 $-1 $378 reversed single #
loop $-1 $-1 $379 $143 #
plane-surface $-1 -3.9628129848021203 0 0 1 0 0 0 0 -1 forward_v I I I I #
coedge $-1 $380 $243 $381 $382 forward $144 $-1 #
coedge $-1 $383 $146 $380 $384 forward $91 $-1 #
coedge $-1 $146 $383 $385 $386 forward $91 $-1 #
coedge $-1 $246 $245 $146 $239 reversed $247 $-1 #
edge $-1 $387 -29.855460302523266 $388 29.855460302523266 $238 $389 forward 7 unknown #
coedge $-1 $148 $147 $390 $391 forward $60 $-1 #
coedge $-1 $392 $393 $147 $242 reversed $377 $-1 #
edge $-1 $249 -3.9628129848021203 $394 3.9628129848021203 $241 $395 forward 7 unknown #
coedge $-1 $235 $396 $148 $244 reversed $144 $-1 #
edge $-1 $397 -3.9628129848021203 $248 3.9628129848021203 $243 $398 forward 7 unknown #
coedge $-1 $238 $149 $396 $399 forward $247 $-1 #
coedge $-1 $149 $238 $392 $400 reversed $247 $-1 #
loop $-1 $-1 $245 $376 #
vertex $-1 $150 $401 #
vertex $-1 $150 $402 #
straight-curve $-1 3.9628129848021203 0 1.5 0 1 0 I I #
face $-1 $403 $404 $33 $-1 $405 reversed single #
loop $-1 $-1 $406 $151 #
plane-surface $-1 -11.570881765772931 0 0 1 0 0 0 0 -1 forward_v I I I I #
coedge $-1 $407 $262 $408 $409 forward $152 $-1 #
coedge $-1 $410 $154 $407 $411 forward $95 $-1 #
coedge $-1 $154 $410 $412 $413 forward $95 $-1 #
coedge $-1 $265 $264 $154 $258 reversed $266 $-1 #
edge $-1 $414 -201.31473738822595 $415 201.31473738822595 $257 $416 forward 7 unknown #
coedge $-1 $156 $155 $417 $418 forward $63 $-1 #
coedge $-1 $419 $420 $155 $261 reversed $404 $-1 #
edge $-1 $268 -11.570881765772931 $421 11.570881765772931 $260 $422 forward 7 unknown #
coedge $-1 $254 $423 $156 $263 reversed $152 $-1 #
edge $-1 $424 -11.570881765772931 $267 11.570881765772931 $262 $425 forward 7 unknown #
coedge $-1 $257 $157 $423 $426 forward $266 $-1 #
coedge $-1 $157 $257 $419 $427 reversed $266 $-1 #
loop $-1 $-1 $264 $403 #
vertex $-1 $158 $428 #
vertex $-1 $158 $429 #
straight-curve $-1 11.570881765772931 0 100.65736869411298 0 1 0 I I #
loop $-1 $-1 $430 $98 #
coedge $-1 $271 $271 $162 $272 reversed $159 $-1 #
edge $-1 $431 0 $431 6.2831853071795862 $271 $432 forward 7 unknown #
vertex $-1 $163 $433 #
ellipse-curve $-1 0 0 -7.3382900479140609 0 0 -1 2.5 0 0 1 I I #
loop $-1 $-1 $434 $103 #
coedge $-1 $276 $276 $167 $277 reversed $164 $-1 #
edge $-1 $435 0 $435 6.2831853071795862 $276 $436 forward 7 unknown #
vertex $-1 $168 $437 #
ellipse-curve $-1 0 0 -7.3382900479140609 0 0 -1 2.5 0 0 1 I I #
face $-1 $438 $439 $36 $-1 $440 reversed single #
loop $-1 $-1 $441 $169 #
plane-surface $-1 -11.360672550185861 0 0 1 0 0 0 0 -1 forward_v I I I I #
coedge $-1 $442 $291 $443 $444 forward $170 $-1 #
coedge $-1 $445 $172 $442 $446 forward $109 $-1 #
coedge $-1 $172 $445 $447 $448 forward $109 $-1 #
coedge $-1 $294 $293 $172 $287 reversed $295 $-1 #
edge $-1 $449 -201.31473738822595 $450 201.31473738822595 $286 $451 forward 7 unknown #
coedge $-1 $174 $173 $452 $453 forward $72 $-1 #
coedge $-1 $454 $455 $173 $290 reversed $439 $-1 #
edge $-1 $297 -11.360672550185861 $456 11.360672550185861 $289 $457 forward 7 unknown #
coedge $-1 $283 $458 $174 $292 reversed $170 $-1 #
edge $-1 $459 -11.360672550185861 $296 11.360672550185861 $291 $460 forward 7 unknown #
coedge $-1 $286 $175 $458 $461 forward $295 $-1 #
coedge $-1 $175 $286 $454 $462 reversed $295 $-1 #
loop $-1 $-1 $293 $438 #
vertex $-1 $176 $463 #
vertex $-1 $176 $464 #
straight-curve $-1 11.360672550185861 0 100.65736869411298 0 1 0 I I #
loop $-1 $-1 $465 $112 #
coedge $-1 $300 $300 $180 $301 reversed $177 $-1 #
edge $-1 $466 0 $466 6.2831853071795862 $300 $467 forward 7 unknown #
vertex $-1 $181 $468 #
ellipse-curve $-1 0 0 -2.9271675771355321 0 0 -1 1 0 0 1 I I #
loop $-1 $-1 $469 $117 #
coedge $-1 $305 $305 $185 $306 reversed $182 $-1 #
edge $-1 $470 0 $470 6.2831853071795862 $305 $471 forward 7 unknown #
vertex $-1 $186 $472 #
ellipse-curve $-1 0 0 -2.9271675771355321 0 0 -1 1 0 0 1 I I #
model_id-kcp-attrib $-1 $-1 $-1 $188 1 987433927 250 -84279294 4 #
face $473 $474 $475 $51 $-1 $476 reversed single #
loop $-1 $-1 $477 $188 #
plane-surface $-1 0 -29.855460302523266 0 0 1 0 0 0 1 forward_v I I I I #
coedge $-1 $478 $479 $480 $481 forward $189 $-1 #
coedge $-1 $482 $191 $483 $484 forward $124 $-1 #
coedge $-1 $191 $482 $485 $486 forward $124 $-1 #
coedge $-1 $487 $488 $191 $317 reversed $489 $-1 #
edge $-1 $490 -29.855460302523266 $491 29.855460302523266 $316 $492 forward 7 unknown #
model_id-kcp-attrib $-1 $-1 $-1 $193 1 987433927 234 -85327871 6 #
face $493 $-1 $208 $30 $-1 $494 reversed single #
loop $-1 $-1 $335 $193 #
plane-surface $-1 0 29.855460302523266 0 0 -1 0 0 0 -1 forward_v I I I I #
coedge $-1 $495 $333 $336 $496 forward $194 $-1 #
coedge $-1 $340 $196 $197 $327 reversed $128 $-1 #
coedge $-1 $333 $495 $196 $325 reversed $194 $-1 #
edge $497 $342 -8.9417864411420886 $498 8.9417864411420886 $324 $499 forward 7 unknown #
coedge $-1 $198 $197 $495 $500 forward $83 $-1 #
edge $501 $331 -50.328684347056488 $498 50.328684347056488 $323 $502 forward 7 unknown #
coedge $-1 $336 $335 $198 $329 reversed $320 $-1 #
edge $-1 $503 -50.328684347056488 $330 50.328684347056488 $328 $504 forward 7 unknown #
vertex $-1 $200 $505 #
vertex $-1 $344 $506 #
straight-curve $-1 50.328684347056488 0 -8.9417864411420886 0 -1 0 I I #
coedge $-1 $322 $324 $201 $334 reversed $194 $-1 #
edge $507 $338 -29.855460302523266 $342 29.855460302523266 $333 $508 forward 7 unknown #
coedge $-1 $328 $202 $207 $345 forward $320 $-1 #
coedge $-1 $202 $328 $322 $496 reversed $320 $-1 #
attrib_edge_convexity-kcp-attrib $-1 $509 $-1 $203 1 #
vertex $-1 $203 $510 #
straight-curve $-1 0 29.855460302523266 8.9417864411420886 -1 0 0 I I #
coedge $-1 $204 $323 $206 $344 reversed $128 $-1 #
attrib_edge_convexity-kcp-attrib $-1 $511 $-1 $205 1 #
vertex $-1 $334 $512 #
straight-curve $-1 0 -29.855460302523266 8.9417864411420886 1 0 0 I I #
edge $513 $210 -8.9417864411420886 $331 8.9417864411420886 $206 $514 forward 7 unknown #
edge $-1 $211 -8.9417864411420886 $330 8.9417864411420886 $207 $515 forward 7 unknown #
convexity-sys-attrib $-1 $-1 $209 $134 #
point $-1 50.328684347056488 -29.855460302523266 8.9417864411420886 #
point $-1 50.328684347056488 29.855460302523266 8.9417864411420886 #
face $-1 $-1 $228 $31 $-1 $516 reversed single #
loop $-1 $-1 $365 $213 #
plane-surface $-1 0 2.0797219350745557 0 0 -1 0 0 0 -1 forward_v I I I I #
coedge $-1 $517 $363 $366 $518 forward $214 $-1 #
coedge $-1 $369 $216 $217 $357 reversed $136 $-1 #
coedge $-1 $363 $517 $216 $355 reversed $214 $-1 #
edge $-1 $370 -8.9417864411420886 $519 8.9417864411420886 $354 $520 forward 7 unknown #
coedge $-1 $218 $217 $517 $521 forward $87 $-1 #
edge $-1 $361 -3.1000085033252613 $519 3.1000085033252613 $353 $522 forward 7 unknown #
coedge $-1 $366 $365 $218 $359 reversed $350 $-1 #
edge $-1 $523 -3.1000085033252613 $360 3.1000085033252613 $358 $524 forward 7 unknown #
vertex $-1 $220 $525 #
vertex $-1 $372 $526 #
straight-curve $-1 3.1000085033252613 0 -8.9417864411420886 0 -1 0 I I #
coedge $-1 $352 $354 $221 $364 reversed $214 $-1 #
edge $-1 $367 -2.0797219350745557 $370 2.0797219350745557 $363 $527 forward 7 unknown #
coedge $-1 $358 $222 $227 $373 forward $350 $-1 #
coedge $-1 $222 $358 $352 $518 reversed $350 $-1 #
vertex $-1 $223 $528 #
straight-curve $-1 0 2.0797219350745557 8.9417864411420886 -1 0 0 I I #
coedge $-1 $224 $353 $226 $372 reversed $136 $-1 #
vertex $-1 $364 $529 #
straight-curve $-1 0 -2.0797219350745557 8.9417864411420886 1 0 0 I I #
edge $-1 $229 -8.9417864411420886 $361 8.9417864411420886 $226 $530 forward 7 unknown #
edge $-1 $230 -8.9417864411420886 $360 8.9417864411420886 $227 $531 forward 7 unknown #
point $-1 3.1000085033252613 -2.0797219350745557 8.9417864411420886 #
point $-1 3.1000085033252613 2.0797219350745557 8.9417864411420886 #
face $-1 $-1 $247 $32 $-1 $532 reversed single #
loop $-1 $-1 $392 $232 #
plane-surface $-1 0 29.855460302523266 0 0 -1 0 0 0 -1 forward_v I I I I #
coedge $-1 $533 $390 $393 $534 forward $233 $-1 #
coedge $-1 $396 $235 $236 $384 reversed $144 $-1 #
coedge $-1 $390 $533 $235 $382 reversed $233 $-1 #
edge $-1 $397 -1.5 $535 1.5 $381 $536 forward 7 unknown #
coedge $-1 $237 $236 $533 $537 forward $91 $-1 #
edge $-1 $388 -3.9628129848021203 $535 3.9628129848021203 $380 $538 forward 7 unknown #
coedge $-1 $393 $392 $237 $386 reversed $377 $-1 #
edge $-1 $539 -3.9628129848021203 $387 3.9628129848021203 $385 $540 forward 7 unknown #
vertex $-1 $239 $541 #
vertex $-1 $399 $542 #
straight-curve $-1 3.9628129848021203 0 -1.5 0 -1 0 I I #
coedge $-1 $379 $381 $240 $391 reversed $233 $-1 #
edge $-1 $394 -29.855460302523266 $397 29.855460302523266 $390 $543 forward 7 unknown #
coedge $-1 $385 $241 $246 $400 forward $377 $-1 #
coedge $-1 $241 $385 $379 $534 reversed $377 $-1 #
vertex $-1 $242 $544 #
straight-curve $-1 0 29.855460302523266 1.5 -1 0 0 I I #
coedge $-1 $243 $380 $245 $399 reversed $144 $-1 #
vertex $-1 $391 $545 #
straight-curve $-1 0 -29.855460302523266 1.5 1 0 0 I I #
edge $-1 $248 -1.5 $388 1.5 $245 $546 forward 7 unknown #
edge $-1 $249 -1.5 $387 1.5 $246 $547 forward 7 unknown #
point $-1 3.9628129848021203 -29.855460302523266 1.5 #
point $-1 3.9628129848021203 29.855460302523266 1.5 #
face $-1 $-1 $266 $33 $-1 $548 reversed single #
loop $-1 $-1 $419 $251 #
plane-surface $-1 0 201.31473738822595 0 0 -1 0 0 0 -1 forward_v I I I I #
coedge $-1 $549 $417 $420 $550 forward $252 $-1 #
coedge $-1 $423 $254 $255 $411 reversed $152 $-1 #
coedge $-1 $417 $549 $254 $409 reversed $252 $-1 #
edge $-1 $424 -100.65736869411298 $551 100.65736869411298 $408 $552 forward 7 unknown #
coedge $-1 $256 $255 $549 $553 forward $95 $-1 #
edge $-1 $415 -11.570881765772931 $551 11.570881765772931 $407 $554 forward 7 unknown #
coedge $-1 $420 $419 $256 $413 reversed $404 $-1 #
edge $-1 $555 -11.570881765772931 $414 11.570881765772931 $412 $556 forward 7 unknown #
vertex $-1 $258 $557 #
vertex $-1 $426 $558 #
straight-curve $-1 11.570881765772931 0 -100.65736869411298 0 -1 0 I I #
coedge $-1 $406 $408 $259 $418 reversed $252 $-1 #
edge $-1 $421 -201.31473738822595 $424 201.31473738822595 $417 $559 forward 7 unknown #
coedge $-1 $412 $260 $265 $427 forward $404 $-1 #
coedge $-1 $260 $412 $406 $550 reversed $404 $-1 #
vertex $-1 $261 $560 #
straight-curve $-1 0 201.31473738822595 100.65736869411298 -1 0 0 I I #
coedge $-1 $262 $407 $264 $426 reversed $152 $-1 #
vertex $-1 $418 $561 #
straight-curve $-1 0 -201.31473738822595 100.65736869411298 1 0 0 I I #
edge $-1 $267 -100.65736869411298 $415 100.65736869411298 $264 $562 forward 7 unknown #
edge $-1 $268 -100.65736869411298 $414 100.65736869411298 $265 $563 forward 7 unknown #
point $-1 11.570881765772931 -201.31473738822595 100.65736869411298 #
point $-1 11.570881765772931 201.31473738822595 100.65736869411298 #
coedge $-1 $430 $430 $-1 $564 reversed $270 $-1 #
vertex $-1 $272 $565 #
ellipse-curve $-1 0 0 -1.2500000000000004 0 0 -1 2.5 0 0 1 I I #
point $-1 2.5 0 -7.3382900479140609 #
coedge $-1 $434 $434 $-1 $566 reversed $275 $-1 #
vertex $-1 $277 $567 #
ellipse-curve $-1 0 0 -1.2500000000000004 0 0 -1 2.5 0 0 1 I I #
point $-1 2.5 0 -7.3382900479140609 #
face $-1 $-1 $295 $36 $-1 $568 reversed single #
loop $-1 $-1 $454 $280 #
plane-surface $-1 0 201.31473738822595 0 0 -1 0 0 0 -1 forward_v I I I I #
coedge $-1 $569 $452 $455 $570 forward $281 $-1 #
coedge $-1 $458 $283 $284 $446 reversed $170 $-1 #
coedge $-1 $452 $569 $283 $444 reversed $281 $-1 #
edge $-1 $459 -100.65736869411298 $571 100.65736869411298 $443 $572 forward 7 unknown #
coedge $-1 $285 $284 $569 $573 forward $109 $-1 #
edge $-1 $450 -11.360672550185861 $571 11.360672550185861 $442 $574 forward 7 unknown #
coedge $-1 $455 $454 $285 $448 reversed $439 $-1 #
edge $-1 $575 -11.360672550185861 $449 11.360672550185861 $447 $576 forward 7 unknown #
vertex $-1 $287 $577 #
vertex $-1 $461 $578 #
straight-curve $-1 11.360672550185861 0 -100.65736869411298 0 -1 0 I I #
coedge $-1 $441 $443 $288 $453 reversed $281 $-1 #
edge $-1 $456 -201.31473738822595 $459 201.31473738822595 $452 $579 forward 7 unknown #
coedge $-1 $447 $289 $294 $462 forward $439 $-1 #
coedge $-1 $289 $447 $441 $570 reversed $439 $-1 #
vertex $-1 $290 $580 #
straight-curve $-1 0 201.31473738822595 100.65736869411298 -1 0 0 I I #
coedge $-1 $291 $442 $293 $461 reversed $170 $-1 #
vertex $-1 $453 $581 #
straight-curve $-1 0 -201.31473738822595 100.65736869411298 1 0 0 I I #
edge $-1 $296 -100.65736869411298 $450 100.65736869411298 $293 $582 forward 7 unknown #
edge $-1 $297 -100.65736869411298 $449 100.65736869411298 $294 $583 forward 7 unknown #
point $-1 11.360672550185861 -201.31473738822595 100.65736869411298 #
point $-1 11.360672550185861 201.31473738822595 100.65736869411298 #
coedge $-1 $465 $465 $-1 $584 reversed $299 $-1 #
vertex $-1 $301 $585 #
ellipse-curve $-1 0 0 -0.5 0 0 -1 1 0 0 1 I I #
point $-1 1 0 -2.9271675771355321 #
coedge $-1 $469 $469 $-1 $586 reversed $304 $-1 #
vertex $-1 $306 $587 #
ellipse-curve $-1 0 0 -0.5 0 0 -1 1 0 0 1 I I #
point $-1 1 0 -2.9271675771355321 #
model_id-kcp-attrib $-1 $-1 $-1 $310 1 987433927 250 -84279294 5 #
face $588 $589 $590 $51 $-1 $591 reversed single #
loop $-1 $-1 $592 $310 #
plane-surface $-1 -50.328684347056488 0 0 1 0 0 0 0 -1 forward_v I I I I #
coedge $-1 $593 $485 $594 $595 forward $311 $-1 #
coedge $-1 $596 $313 $593 $597 forward $189 $-1 #
coedge $-1 $313 $596 $598 $599 forward $189 $-1 #
coedge $-1 $488 $487 $313 $481 reversed $489 $-1 #
edge $-1 $600 -29.855460302523266 $601 29.855460302523266 $480 $602 forward 7 unknown #
coedge $-1 $315 $314 $603 $604 forward $124 $-1 #
coedge $-1 $605 $606 $314 $484 reversed $590 $-1 #
edge $-1 $491 -50.328684347056488 $607 50.328684347056488 $483 $608 forward 7 unknown #
coedge $-1 $477 $609 $315 $486 reversed $311 $-1 #
edge $-1 $610 -50.328684347056488 $490 50.328684347056488 $485 $611 forward 7 unknown #
coedge $-1 $480 $316 $609 $612 forward $489 $-1 #
coedge $-1 $316 $480 $605 $613 reversed $489 $-1 #
loop $-1 $-1 $487 $589 #
vertex $-1 $317 $614 #
vertex $-1 $317 $615 #
straight-curve $-1 50.328684347056488 0 8.9417864411420886 0 1 0 I I #
model_id-kcp-attrib $-1 $-1 $-1 $319 1 987433927 234 -85327871 7 #
plane-surface $-1 50.328684347056488 0 0 -1 0 0 0 0 1 forward_v I I I I #
coedge $-1 $324 $322 $326 $500 reversed $194 $-1 #
edge $616 $338 -8.9417864411420886 $503 8.9417864411420886 $336 $617 forward 7 unknown #
attrib_edge_convexity-kcp-attrib $-1 $618 $-1 $325 1 #
vertex $-1 $500 $619 #
straight-curve $-1 -50.328684347056488 -29.855460302523266 0 0 0 -1 I I #
edge $620 $498 -29.855460302523266 $503 29.855460302523266 $495 $621 forward 7 unknown #
attrib_edge_convexity-kcp-attrib $-1 $622 $-1 $327 1 #
straight-curve $-1 0 -29.855460302523266 -8.9417864411420886 -1 0 0 I I #
vertex $-1 $329 $623 #
straight-curve $-1 0 29.855460302523266 -8.9417864411420886 1 0 0 I I #
point $-1 50.328684347056488 29.855460302523266 -8.9417864411420886 #
point $-1 50.328684347056488 -29.855460302523266 -8.9417864411420886 #
attrib_edge_convexity-kcp-attrib $-1 $624 $-1 $334 1 #
straight-curve $-1 -50.328684347056488 0 8.9417864411420886 0 -1 0 I I #
convexity-sys-attrib $-1 $-1 $337 $203 #
point $-1 -50.328684347056488 29.855460302523266 8.9417864411420886 #
convexity-sys-attrib $-1 $-1 $341 $205 #
point $-1 -50.328684347056488 -29.855460302523266 8.9417864411420886 #
attrib_edge_convexity-kcp-attrib $-1 $625 $-1 $344 1 #
straight-curve $-1 50.328684347056488 -29.855460302523266 0 0 0 -1 I I #
straight-curve $-1 50.328684347056488 29.855460302523266 0 0 0 -1 I I #
plane-surface $-1 3.1000085033252613 0 0 -1 0 0 0 0 1 forward_v I I I I #
coedge $-1 $354 $352 $356 $521 reversed $214 $-1 #
edge $-1 $367 -8.9417864411420886 $523 8.9417864411420886 $366 $626 forward 7 unknown #
vertex $-1 $521 $627 #
straight-curve $-1 -3.1000085033252613 -2.0797219350745557 0 0 0 -1 I I #
edge $-1 $519 -2.0797219350745557 $523 2.0797219350745557 $517 $628 forward 7 unknown #
straight-curve $-1 0 -2.0797219350745557 -8.9417864411420886 -1 0 0 I I #
vertex $-1 $359 $629 #
straight-curve $-1 0 2.0797219350745557 -8.9417864411420886 1 0 0 I I #
point $-1 3.1000085033252613 2.0797219350745557 -8.9417864411420886 #
point $-1 3.1000085033252613 -2.0797219350745557 -8.9417864411420886 #
straight-curve $-1 -3.1000085033252613 0 8.9417864411420886 0 -1 0 I I #
point $-1 -3.1000085033252613 2.0797219350745557 8.9417864411420886 #
point $-1 -3.1000085033252613 -2.0797219350745557 8.9417864411420886 #
straight-curve $-1 3.1000085033252613 -2.0797219350745557 0 0 0 -1 I I #
straight-curve $-1 3.1000085033252613 2.0797219350745557 0 0 0 -1 I I #
plane-surface $-1 3.9628129848021203 0 0 -1 0 0 0 0 1 forward_v I I I I #
coedge $-1 $381 $379 $383 $537 reversed $233 $-1 #
edge $-1 $394 -1.5 $539 1.5 $393 $630 forward 7 unknown #
vertex $-1 $537 $631 #
straight-curve $-1 -3.9628129848021203 -29.855460302523266 0 0 0 -1 I I #
edge $-1 $535 -29.855460302523266 $539 29.855460302523266 $533 $632 forward 7 unknown #
straight-curve $-1 0 -29.855460302523266 -1.5 -1 0 0 I I #
vertex $-1 $386 $633 #
straight-curve $-1 0 29.855460302523266 -1.5 1 0 0 I I #
point $-1 3.9628129848021203 29.855460302523266 -1.5 #
point $-1 3.9628129848021203 -29.855460302523266 -1.5 #
straight-curve $-1 -3.9628129848021203 0 1.5 0 -1 0 I I #
point $-1 -3.9628129848021203 29.855460302523266 1.5 #
point $-1 -3.9628129848021203 -29.855460302523266 1.5 #
straight-curve $-1 3.9628129848021203 -29.855460302523266 0 0 0 -1 I I #
straight-curve $-1 3.9628129848021203 29.855460302523266 0 0 0 -1 I I #
plane-surface $-1 11.570881765772931 0 0 -1 0 0 0 0 1 forward_v I I I I #
coedge $-1 $408 $406 $410 $553 reversed $252 $-1 #
edge $-1 $421 -100.65736869411298 $555 100.65736869411298 $420 $634 forward 7 unknown #
vertex $-1 $553 $635 #
straight-curve $-1 -11.570881765772931 -201.31473738822595 0 0 0 -1 I I #
edge $-1 $551 -201.31473738822595 $555 201.31473738822595 $549 $636 forward 7 unknown #
straight-curve $-1 0 -201.31473738822595 -100.65736869411298 -1 0 0 I I #
vertex $-1 $413 $637 #
straight-curve $-1 0 201.31473738822595 -100.65736869411298 1 0 0 I I #
point $-1 11.570881765772931 201.31473738822595 -100.65736869411298 #
point $-1 11.570881765772931 -201.31473738822595 -100.65736869411298 #
straight-curve $-1 -11.570881765772931 0 100.65736869411298 0 -1 0 I I #
point $-1 -11.570881765772931 201.31473738822595 100.65736869411298 #
point $-1 -11.570881765772931 -201.31473738822595 100.65736869411298 #
straight-curve $-1 11.570881765772931 -201.31473738822595 0 0 0 -1 I I #
straight-curve $-1 11.570881765772931 201.31473738822595 0 0 0 -1 I I #
edge $-1 $638 1 $638 0 $430 $-1 forward 7 unknown #
point $-1 2.5 0 -1.2500000000000004 #
edge $-1 $639 1 $639 0 $434 $-1 forward 7 unknown #
point $-1 2.5 0 -1.2500000000000004 #
plane-surface $-1 11.360672550185861 0 0 -1 0 0 0 0 1 forward_v I I I I #
coedge $-1 $443 $441 $445 $573 reversed $281 $-1 #
edge $-1 $456 -100.65736869411298 $575 100.65736869411298 $455 $640 forward 7 unknown #
vertex $-1 $573 $641 #
straight-curve $-1 -11.360672550185861 -201.31473738822595 0 0 0 -1 I I #
edge $-1 $571 -201.31473738822595 $575 201.31473738822595 $569 $642 forward 7 unknown #
straight-curve $-1 0 -201.31473738822595 -100.65736869411298 -1 0 0 I I #
vertex $-1 $448 $643 #
straight-curve $-1 0 201.31473738822595 -100.65736869411298 1 0 0 I I #
point $-1 11.360672550185861 201.31473738822595 -100.65736869411298 #
point $-1 11.360672550185861 -201.31473738822595 -100.65736869411298 #
straight-curve $-1 -11.360672550185861 0 100.65736869411298 0 -1 0 I I #
point $-1 -11.360672550185861 201.31473738822595 100.65736869411298 #
point $-1 -11.360672550185861 -201.31473738822595 100.65736869411298 #
straight-curve $-1 11.360672550185861 -201.31473738822595 0 0 0 -1 I I #
straight-curve $-1 11.360672550185861 201.31473738822595 0 0 0 -1 I I #
edge $-1 $644 1 $644 0 $465 $-1 forward 7 unknown #
point $-1 1 0 -0.5 #
edge $-1 $645 1 $645 0 $469 $-1 forward 7 unknown #
point $-1 1 0 -0.5 #
model_id-kcp-attrib $-1 $-1 $-1 $474 1 987433927 250 -84279294 6 #
face $646 $-1 $489 $51 $-1 $647 reversed single #
loop $-1 $-1 $605 $474 #
plane-surface $-1 0 29.855460302523266 0 0 -1 0 0 0 -1 forward_v I I I I #
coedge $-1 $648 $603 $606 $649 forward $475 $-1 #
coedge $-1 $609 $477 $478 $597 reversed $311 $-1 #
coedge $-1 $603 $648 $477 $595 reversed $475 $-1 #
edge $-1 $610 -8.9417864411420886 $650 8.9417864411420886 $594 $651 forward 7 unknown #
coedge $-1 $479 $478 $648 $652 forward $189 $-1 #
edge $-1 $601 -50.328684347056488 $650 50.328684347056488 $593 $653 forward 7 unknown #
coedge $-1 $606 $605 $479 $599 reversed $590 $-1 #
edge $-1 $654 -50.328684347056488 $600 50.328684347056488 $598 $655 forward 7 unknown #
vertex $-1 $481 $656 #
vertex $-1 $612 $657 #
straight-curve $-1 50.328684347056488 0 -8.9417864411420886 0 -1 0 I I #
coedge $-1 $592 $594 $482 $604 reversed $475 $-1 #
edge $-1 $607 -29.855460302523266 $610 29.855460302523266 $603 $658 forward 7 unknown #
coedge $-1 $598 $483 $488 $613 forward $590 $-1 #
coedge $-1 $483 $598 $592 $649 reversed $590 $-1 #
vertex $-1 $484 $659 #
straight-curve $-1 0 29.855460302523266 8.9417864411420886 -1 0 0 I I #
coedge $-1 $485 $593 $487 $612 reversed $311 $-1 #
vertex $-1 $604 $660 #
straight-curve $-1 0 -29.855460302523266 8.9417864411420886 1 0 0 I I #
edge $-1 $490 -8.9417864411420886 $601 8.9417864411420886 $487 $661 forward 7 unknown #
edge $-1 $491 -8.9417864411420886 $600 8.9417864411420886 $488 $662 forward 7 unknown #
point $-1 50.328684347056488 -29.855460302523266 8.9417864411420886 #
point $-1 50.328684347056488 29.855460302523266 8.9417864411420886 #
attrib_edge_convexity-kcp-attrib $-1 $663 $-1 $496 1 #
straight-curve $-1 -50.328684347056488 29.855460302523266 0 0 0 -1 I I #
convexity-sys-attrib $-1 $-1 $497 $325 #
point $-1 -50.328684347056488 -29.855460302523266 -8.9417864411420886 #
attrib_edge_convexity-kcp-attrib $-1 $664 $-1 $500 1 #
straight-curve $-1 -50.328684347056488 0 -8.9417864411420886 0 1 0 I I #
convexity-sys-attrib $-1 $-1 $501 $327 #
point $-1 -50.328684347056488 29.855460302523266 -8.9417864411420886 #
convexity-sys-attrib $-1 $-1 $507 $334 #
convexity-sys-attrib $-1 $-1 $513 $344 #
straight-curve $-1 -3.1000085033252613 2.0797219350745557 0 0 0 -1 I I #
point $-1 -3.1000085033252613 -2.0797219350745557 -8.9417864411420886 #
straight-curve $-1 -3.1000085033252613 0 -8.9417864411420886 0 1 0 I I #
point $-1 -3.1000085033252613 2.0797219350745557 -8.9417864411420886 #
straight-curve $-1 -3.9628129848021203 29.855460302523266 0 0 0 -1 I I #
point $-1 -3.9628129848021203 -29.855460302523266 -1.5 #
straight-curve $-1 -3.9628129848021203 0 -1.5 0 1 0 I I #
point $-1 -3.9628129848021203 29.855460302523266 -1.5 #
straight-curve $-1 -11.570881765772931 201.31473738822595 0 0 0 -1 I I #
point $-1 -11.570881765772931 -201.31473738822595 -100.65736869411298 #
straight-curve $-1 -11.570881765772931 0 -100.65736869411298 0 1 0 I I #
point $-1 -11.570881765772931 201.31473738822595 -100.65736869411298 #
vertex $-1 $564 $665 #
vertex $-1 $566 $666 #
straight-curve $-1 -11.360672550185861 201.31473738822595 0 0 0 -1 I I #
point $-1 -11.360672550185861 -201.31473738822595 -100.65736869411298 #
straight-curve $-1 -11.360672550185861 0 -100.65736869411298 0 1 0 I I #
point $-1 -11.360672550185861 201.31473738822595 -100.65736869411298 #
vertex $-1 $584 $667 #
vertex $-1 $586 $668 #
model_id-kcp-attrib $-1 $-1 $-1 $589 1 987433927 250 -84279294 7 #
plane-surface $-1 50.328684347056488 0 0 -1 0 0 0 0 1 forward_v I I I I #
coedge $-1 $594 $592 $596 $652 reversed $475 $-1 #
edge $-1 $607 -8.9417864411420886 $654 8.9417864411420886 $606 $669 forward 7 unknown #
vertex $-1 $652 $670 #
straight-curve $-1 -50.328684347056488 -29.855460302523266 0 0 0 -1 I I #
edge $-1 $650 -29.855460302523266 $654 29.855460302523266 $648 $671 forward 7 unknown #
straight-curve $-1 0 -29.855460302523266 -8.9417864411420886 -1 0 0 I I #
vertex $-1 $599 $672 #
straight-curve $-1 0 29.855460302523266 -8.9417864411420886 1 0 0 I I #
point $-1 50.328684347056488 29.855460302523266 -8.9417864411420886 #
point $-1 50.328684347056488 -29.855460302523266 -8.9417864411420886 #
straight-curve $-1 -50.328684347056488 0 8.9417864411420886 0 -1 0 I I #
point $-1 -50.328684347056488 29.855460302523266 8.9417864411420886 #
point $-1 -50.328684347056488 -29.855460302523266 8.9417864411420886 #
straight-curve $-1 50.328684347056488 -29.855460302523266 0 0 0 -1 I I #
straight-curve $-1 50.328684347056488 29.855460302523266 0 0 0 -1 I I #
convexity-sys-attrib $-1 $-1 $616 $496 #
convexity-sys-attrib $-1 $-1 $620 $500 #
point $-1 0 0 1.2500000000000004 #
point $-1 0 0 1.2500000000000004 #
point $-1 0 0 0.5 #
point $-1 0 0 0.5 #
straight-curve $-1 -50.328684347056488 29.855460302523266 0 0 0 -1 I I #
point $-1 -50.328684347056488 -29.855460302523266 -8.9417864411420886 #
straight-curve $-1 -50.328684347056488 0 -8.9417864411420886 0 1 0 I I #
point $-1 -50.328684347056488 29.855460302523266 -8.9417864411420886 #
End-of-ACIS-data 