600 0 8 0           
93 GICL ACIS Healer - Source: /gicl/data5/repository/Drexel/SM99-DATA/part97.smdg.feat.sat - 6 0 18 ACIS 6.0.3 Solaris 24 Sat Apr 13 20:47:21 2002 
1 9.999999999999999547e-07 1.000000000000000036e-10 
body $-1 $8 $-1 $-1 #
body $-1 $9 $-1 $-1 #
body $-1 $10 $-1 $-1 #
body $-1 $11 $-1 $-1 #
body $-1 $12 $-1 $-1 #
body $-1 $13 $-1 $-1 #
body $-1 $14 $-1 $-1 #
body $-1 $15 $-1 $-1 #
lump $-1 $-1 $16 $0 #
lump $-1 $-1 $17 $1 #
lump $-1 $-1 $18 $2 #
lump $-1 $-1 $19 $3 #
lump $-1 $-1 $20 $4 #
lump $-1 $-1 $21 $5 #
lump $-1 $-1 $22 $6 #
lump $-1 $-1 $23 $7 #
shell $-1 $-1 $-1 $24 $-1 $8 #
shell $-1 $-1 $-1 $25 $-1 $9 #
shell $-1 $-1 $-1 $26 $-1 $10 #
shell $-1 $-1 $-1 $27 $-1 $11 #
shell $-1 $-1 $-1 $28 $-1 $12 #
shell $-1 $-1 $-1 $29 $-1 $13 #
shell $-1 $-1 $-1 $30 $-1 $14 #
shell $-1 $-1 $-1 $31 $-1 $15 #
face $-1 $32 $33 $16 $-1 $34 forward single #
face $-1 $35 $36 $17 $-1 $37 forward single #
face $-1 $38 $39 $18 $-1 $40 forward single #
face $-1 $41 $42 $19 $-1 $43 forward single #
face $-1 $44 $45 $20 $-1 $46 forward single #
face $-1 $47 $48 $21 $-1 $49 forward single #
face $-1 $50 $51 $22 $-1 $52 forward single #
face $-1 $53 $54 $23 $-1 $55 forward single #
face $-1 $56 $57 $16 $-1 $58 reversed single #
loop $-1 $-1 $59 $24 #
plane-surface $-1 60.63417462691121784 41.31643413799929476 30.52349765777166368 0 0 1 1 0 0 forward_v I I I I #
face $-1 $60 $61 $17 $-1 $62 reversed single #
loop $-1 $-1 $63 $25 #
plane-surface $-1 60.63417462691121784 -5.685002603174537761 15.41274862860889883 0 0 1 1 0 0 forward_v I I I I #
face $-1 $64 $65 $18 $-1 $66 reversed single #
loop $-1 $-1 $67 $26 #
plane-surface $-1 215.9436492465241031 46.29916184636428511 276.581447921072936 0.7313537098837770145 0 0.6819983511997929071 0.6819983511997929071 0 -0.7313537098837770145 forward_v I I I I #
face $-1 $68 $69 $19 $-1 $70 forward single #
loop $-1 $71 $72 $27 #
cone-surface $-1 116.3073764337292886 43.20836208159078495 25.37293167694155116 -0.7313537098837770145 0 -0.6819983511997929071 1.363996702399585814 0 -1.462707419767554029 1 I I 0 1 2 forward I I I I #
face $-1 $73 $74 $20 $-1 $75 forward single #
loop $-1 $76 $77 $28 #
cone-surface $-1 116.3073764337292886 49.38996161113779237 25.37293167694155116 -0.7313537098837770145 0 -0.6819983511997929071 1.363996702399585814 0 -1.462707419767554029 1 I I 0 1 2 forward I I I I #
face $-1 $78 $79 $21 $-1 $80 reversed single #
loop $-1 $-1 $81 $29 #
plane-surface $-1 -132.0949551616422468 42.80753039674312532 221.9209032471856062 -0.5446390421508873203 0 0.8386705633113421543 0.8386705633113421543 0 0.5446390421508873203 forward_v I I I I #
face $-1 $82 $83 $22 $-1 $84 forward single #
loop $-1 $85 $86 $30 #
cone-surface $-1 9.579703977205472398 40.69717793299501096 24.00668204821517193 0.5446390421508873203 0 -0.8386705633113421543 0.8386705633113421543 0 0.5446390421508873203 1 I I 0 1 1 forward I I I I #
face $-1 $87 $88 $23 $-1 $89 forward single #
loop $-1 $90 $91 $31 #
cone-surface $-1 9.579703977205472398 44.91788286049123258 24.00668204821517193 0.5446390421508873203 0 -0.8386705633113421543 0.8386705633113421543 0 0.5446390421508873203 1 I I 0 1 1 forward I I I I #
face $-1 $92 $93 $16 $-1 $94 reversed single #
loop $-1 $-1 $95 $32 #
plane-surface $-1 60.63417462691121784 41.31643413799929476 0 0 0 1 1 0 0 forward_v I I I I #
coedge $-1 $96 $97 $98 $99 forward $33 $-1 #
face $-1 $100 $101 $17 $-1 $102 reversed single #
loop $-1 $-1 $103 $35 #
plane-surface $-1 60.63417462691121784 -5.685002603174537761 7.101530071755828288 0 0 1 1 0 0 forward_v I I I I #
coedge $-1 $104 $105 $106 $107 forward $36 $-1 #
face $-1 $108 $109 $18 $-1 $110 reversed single #
loop $-1 $-1 $111 $38 #
plane-surface $-1 38.5635350099948937 46.29916184636428511 111.1718194334178236 0.7313537098837770145 0 0.6819983511997929071 0.6819983511997929071 0 -0.7313537098837770145 forward_v I I I I #
coedge $-1 $112 $113 $114 $115 forward $39 $-1 #
face $-1 $-1 $116 $19 $-1 $117 forward single #
loop $-1 $-1 $118 $41 #
plane-surface $-1 117.5188295820602917 43.20836208159078495 26.50262998646244483 0.7313537098837770145 0 0.6819983511997929071 -0.6819983511997929071 0 0.7313537098837770145 forward_v I I I I #
loop $-1 $-1 $119 $27 #
coedge $-1 $72 $72 $118 $120 reversed $42 $-1 #
face $-1 $-1 $121 $20 $-1 $122 forward single #
loop $-1 $-1 $123 $44 #
plane-surface $-1 117.5188295820602917 49.38996161113779237 26.50262998646244483 0.7313537098837770145 0 0.6819983511997929071 -0.6819983511997929071 0 0.7313537098837770145 forward_v I I I I #
loop $-1 $-1 $124 $28 #
coedge $-1 $77 $77 $123 $125 reversed $45 $-1 #
face $-1 $126 $127 $21 $-1 $128 reversed single #
loop $-1 $-1 $129 $47 #
plane-surface $-1 1.421085471520200372e-14 42.80753039674312532 18.51251368610593317 -0.5446390421508873203 0 0.8386705633113421543 0.8386705633113421543 0 0.5446390421508873203 forward_v I I I I #
coedge $-1 $130 $131 $132 $133 forward $48 $-1 #
face $-1 $-1 $134 $22 $-1 $135 forward single #
loop $-1 $-1 $136 $50 #
plane-surface $-1 9.247646527192673105 40.69717793299501096 24.51800567193880553 -0.5446390421508873203 0 0.8386705633113421543 -0.8386705633113421543 0 -0.5446390421508873203 forward_v I I I I #
loop $-1 $-1 $137 $30 #
coedge $-1 $86 $86 $136 $138 reversed $51 $-1 #
face $-1 $-1 $139 $23 $-1 $140 forward single #
loop $-1 $-1 $141 $53 #
plane-surface $-1 9.247646527192673105 44.91788286049123258 24.51800567193880553 -0.5446390421508873203 0 0.8386705633113421543 -0.8386705633113421543 0 -0.5446390421508873203 forward_v I I I I #
loop $-1 $-1 $142 $31 #
coedge $-1 $91 $91 $141 $143 reversed $54 $-1 #
face $-1 $144 $145 $16 $-1 $146 reversed single #
loop $-1 $-1 $147 $56 #
plane-surface $-1 60.63417462691121784 0 15.26174882888583184 0 1 0 0 0 1 forward_v I I I I #
coedge $-1 $148 $149 $150 $151 forward $57 $-1 #
coedge $-1 $152 $59 $153 $154 forward $33 $-1 #
coedge $-1 $59 $152 $155 $156 forward $33 $-1 #
coedge $-1 $157 $158 $59 $99 reversed $159 $-1 #
edge $-1 $160 -41.31643413799929476 $161 41.31643413799929476 $98 $162 forward 7 unknown #
face $-1 $163 $164 $17 $-1 $165 reversed single #
loop $-1 $-1 $166 $60 #
plane-surface $-1 60.63417462691121784 -11.37000520634907552 11.25713935018236356 0 1 0 0 0 1 forward_v I I I I #
coedge $-1 $167 $168 $169 $170 forward $61 $-1 #
coedge $-1 $171 $63 $172 $173 forward $36 $-1 #
coedge $-1 $63 $171 $174 $175 forward $36 $-1 #
coedge $-1 $176 $177 $63 $107 reversed $178 $-1 #
edge $-1 $179 -5.685002603174537761 $180 5.685002603174537761 $106 $181 forward 7 unknown #
face $-1 $182 $183 $18 $-1 $184 reversed single #
loop $-1 $-1 $185 $64 #
plane-surface $-1 127.2535921282594984 39.08729572855943957 193.8766336772453656 0 1 0 0.7313537098837770145 0 0.6819983511997929071 forward_v I I I I #
coedge $-1 $186 $187 $188 $189 forward $65 $-1 #
coedge $-1 $190 $67 $191 $192 forward $39 $-1 #
coedge $-1 $67 $190 $193 $194 forward $39 $-1 #
coedge $-1 $195 $196 $67 $115 reversed $197 $-1 #
edge $-1 $198 -7.211866117804845544 $199 7.211866117804845544 $114 $200 forward 7 unknown #
loop $-1 $201 $202 $68 #
cone-surface $-1 114.3645695755145226 43.20836208159078495 23.5612350162208628 -0.7313537098837770145 0 -0.6819983511997929071 0.6819983511997929071 0 -0.7313537098837770145 1 I I -0.7071067811865474617 0.7071067811865474617 1 forward I I I I #
coedge $-1 $118 $118 $72 $120 forward $69 $-1 #
coedge $-1 $119 $119 $202 $203 forward $71 $-1 #
edge $-1 $204 0 $204 6.283185307179586232 $118 $205 forward 7 unknown #
loop $-1 $206 $207 $73 #
cone-surface $-1 114.3645695755145226 49.38996161113779237 23.5612350162208628 -0.7313537098837770145 0 -0.6819983511997929071 0.6819983511997929071 0 -0.7313537098837770145 1 I I -0.7071067811865474617 0.7071067811865474617 1 forward I I I I #
coedge $-1 $123 $123 $77 $125 forward $74 $-1 #
coedge $-1 $124 $124 $207 $208 forward $76 $-1 #
edge $-1 $209 0 $209 6.283185307179586232 $123 $210 forward 7 unknown #
face $-1 $211 $212 $21 $-1 $213 reversed single #
loop $-1 $-1 $214 $78 #
plane-surface $-1 -66.0474775808211092 37.88337464799752752 120.2167084666457697 0 1 0 -0.5446390421508873203 0 0.8386705633113421543 forward_v I I I I #
coedge $-1 $215 $216 $217 $218 forward $79 $-1 #
coedge $-1 $219 $81 $220 $221 forward $48 $-1 #
coedge $-1 $81 $219 $222 $223 forward $48 $-1 #
coedge $-1 $224 $225 $81 $133 reversed $226 $-1 #
edge $-1 $227 -4.924155748745597805 $228 4.924155748745597805 $132 $229 forward 7 unknown #
loop $-1 $230 $231 $82 #
cone-surface $-1 10.18408094829371358 40.69717793299501096 23.07602314283586509 0.5446390421508873203 0 -0.8386705633113421543 0.4193352816556710772 0 0.2723195210754436602 1 I I -0.7071067811865474617 0.7071067811865474617 0.5 forward I I I I #
coedge $-1 $136 $136 $86 $138 forward $83 $-1 #
coedge $-1 $137 $137 $231 $232 forward $85 $-1 #
edge $-1 $233 0 $233 6.283185307179586232 $136 $234 forward 7 unknown #
loop $-1 $235 $236 $87 #
cone-surface $-1 10.18408094829371358 44.91788286049123258 23.07602314283586509 0.5446390421508873203 0 -0.8386705633113421543 0.4193352816556710772 0 0.2723195210754436602 1 I I -0.7071067811865474617 0.7071067811865474617 0.5 forward I I I I #
coedge $-1 $141 $141 $91 $143 forward $88 $-1 #
coedge $-1 $142 $142 $236 $237 forward $90 $-1 #
edge $-1 $238 0 $238 6.283185307179586232 $141 $239 forward 7 unknown #
face $-1 $240 $241 $16 $-1 $242 reversed single #
loop $-1 $-1 $243 $92 #
plane-surface $-1 0 41.31643413799929476 15.26174882888583184 1 0 0 0 0 -1 forward_v I I I I #
coedge $-1 $244 $155 $245 $246 forward $93 $-1 #
coedge $-1 $247 $95 $244 $248 forward $57 $-1 #
coedge $-1 $95 $247 $249 $250 forward $57 $-1 #
coedge $-1 $158 $157 $95 $151 reversed $159 $-1 #
edge $-1 $251 -41.31643413799929476 $252 41.31643413799929476 $150 $253 forward 7 unknown #
coedge $-1 $97 $96 $254 $255 forward $33 $-1 #
coedge $-1 $256 $257 $96 $154 reversed $241 $-1 #
edge $-1 $161 -60.63417462691121784 $258 60.63417462691121784 $153 $259 forward 7 unknown #
coedge $-1 $147 $260 $97 $156 reversed $93 $-1 #
edge $-1 $261 -60.63417462691121784 $160 60.63417462691121784 $155 $262 forward 7 unknown #
coedge $-1 $150 $98 $260 $263 forward $159 $-1 #
coedge $-1 $98 $150 $256 $264 reversed $159 $-1 #
loop $-1 $-1 $157 $240 #
vertex $-1 $99 $265 #
vertex $-1 $99 $266 #
straight-curve $-1 121.2683492538224357 41.31643413799929476 30.52349765777166368 0 1 0 I I #
face $-1 $267 $268 $17 $-1 $269 reversed single #
loop $-1 $-1 $270 $100 #
plane-surface $-1 0 -5.685002603174537761 11.25713935018236356 1 0 0 0 0 -1 forward_v I I I I #
coedge $-1 $271 $174 $272 $273 forward $101 $-1 #
coedge $-1 $274 $103 $271 $275 forward $61 $-1 #
coedge $-1 $103 $274 $276 $277 forward $61 $-1 #
coedge $-1 $177 $176 $103 $170 reversed $178 $-1 #
edge $-1 $278 -5.685002603174537761 $279 5.685002603174537761 $169 $280 forward 7 unknown #
coedge $-1 $105 $104 $281 $282 forward $36 $-1 #
coedge $-1 $283 $284 $104 $173 reversed $268 $-1 #
edge $-1 $180 -60.63417462691121784 $285 60.63417462691121784 $172 $286 forward 7 unknown #
coedge $-1 $166 $287 $105 $175 reversed $101 $-1 #
edge $-1 $288 -60.63417462691121784 $179 60.63417462691121784 $174 $289 forward 7 unknown #
coedge $-1 $169 $106 $287 $290 forward $178 $-1 #
coedge $-1 $106 $169 $283 $291 reversed $178 $-1 #
loop $-1 $-1 $176 $267 #
vertex $-1 $107 $292 #
vertex $-1 $107 $293 #
straight-curve $-1 121.2683492538224357 -5.685002603174537761 15.41274862860889883 0 1 0 I I #
face $-1 $294 $295 $18 $-1 $296 reversed single #
loop $-1 $-1 $297 $108 #
plane-surface $-1 -38.15603635939558558 46.29916184636428511 371.256747913774575 0.6819983511997929071 0 -0.7313537098837770145 -0.7313537098837770145 0 -0.6819983511997929071 forward_v I I I I #
coedge $-1 $298 $193 $299 $300 forward $109 $-1 #
coedge $-1 $301 $111 $298 $302 forward $65 $-1 #
coedge $-1 $111 $301 $303 $304 forward $65 $-1 #
coedge $-1 $196 $195 $111 $189 reversed $197 $-1 #
edge $-1 $305 -7.211866117804845544 $306 7.211866117804845544 $188 $307 forward 7 unknown #
coedge $-1 $113 $112 $308 $309 forward $39 $-1 #
coedge $-1 $310 $311 $112 $192 reversed $295 $-1 #
edge $-1 $199 -242.5366985076448714 $312 242.5366985076448714 $191 $313 forward 7 unknown #
coedge $-1 $185 $314 $113 $194 reversed $109 $-1 #
edge $-1 $315 -242.5366985076448714 $198 242.5366985076448714 $193 $316 forward 7 unknown #
coedge $-1 $188 $114 $314 $317 forward $197 $-1 #
coedge $-1 $114 $188 $310 $318 reversed $197 $-1 #
loop $-1 $-1 $195 $294 #
vertex $-1 $115 $319 #
vertex $-1 $115 $320 #
straight-curve $-1 381.3532777341791871 46.29916184636428511 99.20133368454369815 0 1 0 I I #
loop $-1 $-1 $321 $68 #
coedge $-1 $202 $202 $119 $203 reversed $116 $-1 #
edge $-1 $322 0 $322 6.283185307179586232 $202 $323 forward 7 unknown #
vertex $-1 $120 $324 #
ellipse-curve $-1 117.5188295820602917 43.20836208159078495 26.50262998646244483 0.7313537098837770145 0 0.6819983511997929071 1.363996702399585814 0 -1.462707419767554029 1 I I #
loop $-1 $-1 $325 $73 #
coedge $-1 $207 $207 $124 $208 reversed $121 $-1 #
edge $-1 $326 0 $326 6.283185307179586232 $207 $327 forward 7 unknown #
vertex $-1 $125 $328 #
ellipse-curve $-1 117.5188295820602917 49.38996161113779237 26.50262998646244483 0.7313537098837770145 0 0.6819983511997929071 1.363996702399585814 0 -1.462707419767554029 1 I I #
face $-1 $329 $330 $21 $-1 $331 reversed single #
loop $-1 $-1 $332 $126 #
plane-surface $-1 -269.4558671419007965 42.80753039674312532 -11.87824669499647712 0.8386705633113421543 0 0.5446390421508873203 0.5446390421508873203 0 -0.8386705633113421543 forward_v I I I I #
coedge $-1 $333 $222 $334 $335 forward $127 $-1 #
coedge $-1 $336 $129 $333 $337 forward $79 $-1 #
coedge $-1 $129 $336 $338 $339 forward $79 $-1 #
coedge $-1 $225 $224 $129 $218 reversed $226 $-1 #
edge $-1 $340 -4.924155748745597805 $341 4.924155748745597805 $217 $342 forward 7 unknown #
coedge $-1 $131 $130 $343 $344 forward $48 $-1 #
coedge $-1 $345 $346 $130 $221 reversed $330 $-1 #
edge $-1 $228 -242.5366985076448429 $347 242.5366985076448429 $220 $348 forward 7 unknown #
coedge $-1 $214 $349 $131 $223 reversed $127 $-1 #
edge $-1 $350 -242.5366985076448429 $227 242.5366985076448429 $222 $351 forward 7 unknown #
coedge $-1 $217 $132 $349 $352 forward $226 $-1 #
coedge $-1 $132 $217 $345 $353 reversed $226 $-1 #
loop $-1 $-1 $224 $329 #
vertex $-1 $133 $354 #
vertex $-1 $133 $355 #
straight-curve $-1 71.31343439943744045 42.80753039674312532 354.0158584088278531 0 1 0 I I #
loop $-1 $-1 $356 $82 #
coedge $-1 $231 $231 $137 $232 reversed $134 $-1 #
edge $-1 $357 0 $357 6.283185307179586232 $231 $358 forward 7 unknown #
vertex $-1 $138 $359 #
ellipse-curve $-1 9.247646527192673105 40.69717793299501096 24.51800567193880553 -0.5446390421508873203 0 0.8386705633113421543 0.8386705633113421543 0 0.5446390421508873203 1 I I #
loop $-1 $-1 $360 $87 #
coedge $-1 $236 $236 $142 $237 reversed $139 $-1 #
edge $-1 $361 0 $361 6.283185307179586232 $236 $362 forward 7 unknown #
vertex $-1 $143 $363 #
ellipse-curve $-1 9.247646527192673105 44.91788286049123258 24.51800567193880553 -0.5446390421508873203 0 0.8386705633113421543 0.8386705633113421543 0 0.5446390421508873203 1 I I #
face $-1 $-1 $159 $16 $-1 $364 reversed single #
loop $-1 $-1 $256 $144 #
plane-surface $-1 60.63417462691121784 82.63286827599858952 15.26174882888583184 0 -1 0 0 0 -1 forward_v I I I I #
coedge $-1 $365 $254 $257 $366 forward $145 $-1 #
coedge $-1 $260 $147 $148 $248 reversed $93 $-1 #
coedge $-1 $254 $365 $147 $246 reversed $145 $-1 #
edge $-1 $261 -15.26174882888583184 $367 15.26174882888583184 $245 $368 forward 7 unknown #
coedge $-1 $149 $148 $365 $369 forward $57 $-1 #
edge $-1 $252 -60.63417462691121784 $367 60.63417462691121784 $244 $370 forward 7 unknown #
coedge $-1 $257 $256 $149 $250 reversed $241 $-1 #
edge $-1 $371 -60.63417462691121784 $251 60.63417462691121784 $249 $372 forward 7 unknown #
vertex $-1 $151 $373 #
vertex $-1 $263 $374 #
straight-curve $-1 121.2683492538224357 41.31643413799929476 0 0 -1 0 I I #
coedge $-1 $243 $245 $152 $255 reversed $145 $-1 #
edge $-1 $258 -41.31643413799929476 $261 41.31643413799929476 $254 $375 forward 7 unknown #
coedge $-1 $249 $153 $158 $264 forward $241 $-1 #
coedge $-1 $153 $249 $243 $366 reversed $241 $-1 #
vertex $-1 $154 $376 #
straight-curve $-1 60.63417462691121784 82.63286827599858952 30.52349765777166368 -1 0 0 I I #
coedge $-1 $155 $244 $157 $263 reversed $93 $-1 #
vertex $-1 $255 $377 #
straight-curve $-1 60.63417462691121784 0 30.52349765777166368 1 0 0 I I #
edge $-1 $160 -15.26174882888583184 $252 15.26174882888583184 $157 $378 forward 7 unknown #
edge $-1 $161 -15.26174882888583184 $251 15.26174882888583184 $158 $379 forward 7 unknown #
point $-1 121.2683492538224357 0 30.52349765777166368 #
point $-1 121.2683492538224357 82.63286827599858952 30.52349765777166368 #
face $-1 $-1 $178 $17 $-1 $380 reversed single #
loop $-1 $-1 $283 $163 #
plane-surface $-1 60.63417462691121784 0 11.25713935018236356 0 -1 0 0 0 -1 forward_v I I I I #
coedge $-1 $381 $281 $284 $382 forward $164 $-1 #
coedge $-1 $287 $166 $167 $275 reversed $101 $-1 #
coedge $-1 $281 $381 $166 $273 reversed $164 $-1 #
edge $-1 $288 -4.155609278426535269 $383 4.155609278426535269 $272 $384 forward 7 unknown #
coedge $-1 $168 $167 $381 $385 forward $61 $-1 #
edge $-1 $279 -60.63417462691121784 $383 60.63417462691121784 $271 $386 forward 7 unknown #
coedge $-1 $284 $283 $168 $277 reversed $268 $-1 #
edge $-1 $387 -60.63417462691121784 $278 60.63417462691121784 $276 $388 forward 7 unknown #
vertex $-1 $170 $389 #
vertex $-1 $290 $390 #
straight-curve $-1 121.2683492538224357 -5.685002603174537761 7.101530071755828288 0 -1 0 I I #
coedge $-1 $270 $272 $171 $282 reversed $164 $-1 #
edge $-1 $285 -5.685002603174537761 $288 5.685002603174537761 $281 $391 forward 7 unknown #
coedge $-1 $276 $172 $177 $291 forward $268 $-1 #
coedge $-1 $172 $276 $270 $382 reversed $268 $-1 #
vertex $-1 $173 $392 #
straight-curve $-1 60.63417462691121784 0 15.41274862860889883 -1 0 0 I I #
coedge $-1 $174 $271 $176 $290 reversed $101 $-1 #
vertex $-1 $282 $393 #
straight-curve $-1 60.63417462691121784 -11.37000520634907552 15.41274862860889883 1 0 0 I I #
edge $-1 $179 -4.155609278426535269 $279 4.155609278426535269 $176 $394 forward 7 unknown #
edge $-1 $180 -4.155609278426535269 $278 4.155609278426535269 $177 $395 forward 7 unknown #
point $-1 121.2683492538224357 -11.37000520634907552 15.41274862860889883 #
point $-1 121.2683492538224357 0 15.41274862860889883 #
face $-1 $-1 $197 $18 $-1 $396 reversed single #
loop $-1 $-1 $310 $182 #
plane-surface $-1 127.2535921282594984 53.51102796416913066 193.8766336772453656 0 -1 0 -0.7313537098837770145 0 -0.6819983511997929071 forward_v I I I I #
coedge $-1 $397 $308 $311 $398 forward $183 $-1 #
coedge $-1 $314 $185 $186 $302 reversed $109 $-1 #
coedge $-1 $308 $397 $185 $300 reversed $183 $-1 #
edge $-1 $315 -121.2683492538224499 $399 121.2683492538224073 $299 $400 forward 7 unknown #
coedge $-1 $187 $186 $397 $401 forward $65 $-1 #
edge $-1 $306 -242.5366985076448714 $399 242.5366985076448714 $298 $402 forward 7 unknown #
coedge $-1 $311 $310 $187 $304 reversed $295 $-1 #
edge $-1 $403 -242.5366985076448714 $305 242.5366985076448714 $303 $404 forward 7 unknown #
vertex $-1 $189 $405 #
vertex $-1 $317 $406 #
straight-curve $-1 203.9731634976499777 46.29916184636428511 -66.20829480311141424 0 -1 0 I I #
coedge $-1 $297 $299 $190 $309 reversed $183 $-1 #
edge $-1 $312 -7.211866117804845544 $315 7.211866117804845544 $308 $407 forward 7 unknown #
coedge $-1 $303 $191 $196 $318 forward $295 $-1 #
coedge $-1 $191 $303 $297 $398 reversed $295 $-1 #
vertex $-1 $192 $408 #
straight-curve $-1 215.9436492465241031 53.51102796416913066 276.581447921072936 -0.6819983511997929071 0 0.7313537098837770145 I I #
coedge $-1 $193 $298 $195 $317 reversed $109 $-1 #
vertex $-1 $309 $409 #
straight-curve $-1 215.9436492465241031 39.08729572855943957 276.581447921072936 0.6819983511997929071 0 -0.7313537098837770145 I I #
edge $-1 $198 -121.2683492538224073 $306 121.2683492538224783 $195 $410 forward 7 unknown #
edge $-1 $199 -121.2683492538224073 $305 121.2683492538224783 $196 $411 forward 7 unknown #
point $-1 381.3532777341791871 39.08729572855943957 99.20133368454369815 #
point $-1 381.3532777341791871 53.51102796416913066 99.20133368454369815 #
coedge $-1 $321 $321 $-1 $412 reversed $201 $-1 #
vertex $-1 $203 $413 #
ellipse-curve $-1 115.0959232853982996 43.20836208159078495 24.24323336742065749 0.7313537098837770145 0 0.6819983511997929071 1.363996702399585814 0 -1.462707419767554029 1 I I #
point $-1 118.8828262844598811 43.20836208159078495 25.0399225666948908 #
coedge $-1 $325 $325 $-1 $414 reversed $206 $-1 #
vertex $-1 $208 $415 #
ellipse-curve $-1 115.0959232853982996 49.38996161113779237 24.24323336742065749 0.7313537098837770145 0 0.6819983511997929071 1.363996702399585814 0 -1.462707419767554029 1 I I #
point $-1 118.8828262844598811 49.38996161113779237 25.0399225666948908 #
face $-1 $-1 $226 $21 $-1 $416 reversed single #
loop $-1 $-1 $345 $211 #
plane-surface $-1 -66.0474775808211092 47.73168614548872313 120.2167084666457697 0 -1 0 0.5446390421508873203 0 -0.8386705633113421543 forward_v I I I I #
coedge $-1 $417 $343 $346 $418 forward $212 $-1 #
coedge $-1 $349 $214 $215 $337 reversed $127 $-1 #
coedge $-1 $343 $417 $214 $335 reversed $212 $-1 #
edge $-1 $350 -121.2683492538224215 $419 121.2683492538224215 $334 $420 forward 7 unknown #
coedge $-1 $216 $215 $417 $421 forward $79 $-1 #
edge $-1 $341 -242.5366985076448429 $419 242.5366985076448429 $333 $422 forward 7 unknown #
coedge $-1 $346 $345 $216 $339 reversed $330 $-1 #
edge $-1 $423 -242.5366985076448429 $340 242.5366985076448429 $338 $424 forward 7 unknown #
vertex $-1 $218 $425 #
vertex $-1 $352 $426 #
straight-curve $-1 203.4083895610796731 42.80753039674312532 150.60746884774818 0 -1 0 I I #
coedge $-1 $332 $334 $219 $344 reversed $212 $-1 #
edge $-1 $347 -4.924155748745597805 $350 4.924155748745597805 $343 $427 forward 7 unknown #
coedge $-1 $338 $220 $225 $353 forward $330 $-1 #
coedge $-1 $220 $338 $332 $418 reversed $330 $-1 #
vertex $-1 $221 $428 #
straight-curve $-1 -132.0949551616422468 47.73168614548872313 221.9209032471856062 -0.8386705633113421543 0 -0.5446390421508873203 I I #
coedge $-1 $222 $333 $224 $352 reversed $127 $-1 #
vertex $-1 $344 $429 #
straight-curve $-1 -132.0949551616422468 37.88337464799752752 221.9209032471856062 0.8386705633113421543 0 0.5446390421508873203 I I #
edge $-1 $227 -121.2683492538224073 $341 121.2683492538224215 $224 $430 forward 7 unknown #
edge $-1 $228 -121.2683492538224073 $340 121.2683492538224215 $225 $431 forward 7 unknown #
point $-1 71.31343439943744045 37.88337464799752752 354.0158584088278531 #
point $-1 71.31343439943744045 47.73168614548872313 354.0158584088278531 #
coedge $-1 $356 $356 $-1 $432 reversed $230 $-1 #
vertex $-1 $232 $433 #
ellipse-curve $-1 9.911761427218269915 40.69717793299501096 23.49535842449153478 -0.5446390421508873203 0 0.8386705633113421543 0.8386705633113421543 0 0.5446390421508873203 1 I I #
point $-1 10.08631709050401604 40.69717793299501096 25.06264471408969285 #
coedge $-1 $360 $360 $-1 $434 reversed $235 $-1 #
vertex $-1 $237 $435 #
ellipse-curve $-1 9.911761427218269915 44.91788286049123258 23.49535842449153478 -0.5446390421508873203 0 0.8386705633113421543 0.8386705633113421543 0 0.5446390421508873203 1 I I #
point $-1 10.08631709050401604 44.91788286049123258 25.06264471408969285 #
plane-surface $-1 121.2683492538224357 41.31643413799929476 15.26174882888583184 -1 0 0 0 0 1 forward_v I I I I #
coedge $-1 $245 $243 $247 $369 reversed $145 $-1 #
edge $-1 $258 -15.26174882888583184 $371 15.26174882888583184 $257 $436 forward 7 unknown #
vertex $-1 $369 $437 #
straight-curve $-1 0 0 15.26174882888583184 0 0 -1 I I #
edge $-1 $367 -41.31643413799929476 $371 41.31643413799929476 $365 $438 forward 7 unknown #
straight-curve $-1 60.63417462691121784 0 0 -1 0 0 I I #
vertex $-1 $250 $439 #
straight-curve $-1 60.63417462691121784 82.63286827599858952 0 1 0 0 I I #
point $-1 121.2683492538224357 82.63286827599858952 0 #
point $-1 121.2683492538224357 0 0 #
straight-curve $-1 0 41.31643413799929476 30.52349765777166368 0 -1 0 I I #
point $-1 0 82.63286827599858952 30.52349765777166368 #
point $-1 0 0 30.52349765777166368 #
straight-curve $-1 121.2683492538224357 0 15.26174882888583184 0 0 -1 I I #
straight-curve $-1 121.2683492538224357 82.63286827599858952 15.26174882888583184 0 0 -1 I I #
plane-surface $-1 121.2683492538224357 -5.685002603174537761 11.25713935018236356 -1 0 0 0 0 1 forward_v I I I I #
coedge $-1 $272 $270 $274 $385 reversed $164 $-1 #
edge $-1 $285 -4.155609278426535269 $387 4.155609278426535269 $284 $440 forward 7 unknown #
vertex $-1 $385 $441 #
straight-curve $-1 0 -11.37000520634907552 11.25713935018236356 0 0 -1 I I #
edge $-1 $383 -5.685002603174537761 $387 5.685002603174537761 $381 $442 forward 7 unknown #
straight-curve $-1 60.63417462691121784 -11.37000520634907552 7.101530071755828288 -1 0 0 I I #
vertex $-1 $277 $443 #
straight-curve $-1 60.63417462691121784 0 7.101530071755828288 1 0 0 I I #
point $-1 121.2683492538224357 0 7.101530071755828288 #
point $-1 121.2683492538224357 -11.37000520634907552 7.101530071755828288 #
straight-curve $-1 0 -5.685002603174537761 15.41274862860889883 0 -1 0 I I #
point $-1 0 0 15.41274862860889883 #
point $-1 0 -11.37000520634907552 15.41274862860889883 #
straight-curve $-1 121.2683492538224357 -11.37000520634907552 11.25713935018236356 0 0 -1 I I #
straight-curve $-1 121.2683492538224357 0 11.25713935018236356 0 0 -1 I I #
plane-surface $-1 292.6632206159146108 46.29916184636428511 16.49651944071615617 -0.6819983511997929071 0 0.7313537098837770145 0.7313537098837770145 0 0.6819983511997929071 forward_v I I I I #
coedge $-1 $299 $297 $301 $401 reversed $183 $-1 #
edge $-1 $312 -121.2683492538224499 $403 121.2683492538224073 $311 $444 forward 7 unknown #
vertex $-1 $401 $445 #
straight-curve $-1 -38.15603635939558558 39.08729572855943957 371.256747913774575 -0.7313537098837770145 0 -0.6819983511997929071 I I #
edge $-1 $399 -7.211866117804845544 $403 7.211866117804845544 $397 $446 forward 7 unknown #
straight-curve $-1 38.5635350099948937 39.08729572855943957 111.1718194334178236 -0.6819983511997929071 0 0.7313537098837770145 I I #
vertex $-1 $304 $447 #
straight-curve $-1 38.5635350099948937 53.51102796416913066 111.1718194334178236 0.6819983511997929071 0 -0.7313537098837770145 I I #
point $-1 203.9731634976499777 53.51102796416913066 -66.20829480311141424 #
point $-1 203.9731634976499777 39.08729572855943957 -66.20829480311141424 #
straight-curve $-1 50.53402075886901912 46.29916184636428511 453.9615621576021454 0 -1 0 I I #
point $-1 50.53402075886901912 53.51102796416913066 453.9615621576021454 #
point $-1 50.53402075886901912 39.08729572855943957 453.9615621576021454 #
straight-curve $-1 292.6632206159146108 39.08729572855943957 16.49651944071615617 -0.7313537098837770145 0 -0.6819983511997929071 I I #
straight-curve $-1 292.6632206159146108 53.51102796416913066 16.49651944071615617 -0.7313537098837770145 0 -0.6819983511997929071 I I #
edge $-1 $448 1 $448 0 $321 $-1 forward 7 unknown #
point $-1 116.459919987797889 43.20836208159078495 22.78052594765310346 #
edge $-1 $449 1 $449 0 $325 $-1 forward 7 unknown #
point $-1 116.459919987797889 49.38996161113779237 22.78052594765310346 #
plane-surface $-1 137.3609119802585496 42.80753039674312532 252.3116636282880165 -0.8386705633113421543 0 -0.5446390421508873203 -0.5446390421508873203 0 0.8386705633113421543 forward_v I I I I #
coedge $-1 $334 $332 $336 $421 reversed $212 $-1 #
edge $-1 $347 -121.2683492538224215 $423 121.2683492538224215 $346 $450 forward 7 unknown #
vertex $-1 $421 $451 #
straight-curve $-1 -269.4558671419007965 37.88337464799752752 -11.87824669499647712 0.5446390421508873203 0 -0.8386705633113421543 I I #
edge $-1 $419 -4.924155748745597805 $423 4.924155748745597805 $417 $452 forward 7 unknown #
straight-curve $-1 1.421085471520200372e-14 37.88337464799752752 18.51251368610593317 -0.8386705633113421543 0 -0.5446390421508873203 I I #
vertex $-1 $339 $453 #
straight-curve $-1 1.421085471520200372e-14 47.73168614548872313 18.51251368610593317 0.8386705633113421543 0 0.5446390421508873203 I I #
point $-1 203.4083895610796731 47.73168614548872313 150.60746884774818 #
point $-1 203.4083895610796731 37.88337464799752752 150.60746884774818 #
straight-curve $-1 -335.5033447227219199 42.80753039674312532 89.82594808554335941 0 -1 0 I I #
point $-1 -335.5033447227219199 47.73168614548872313 89.82594808554335941 #
point $-1 -335.5033447227219199 37.88337464799752752 89.82594808554335941 #
straight-curve $-1 137.3609119802585496 37.88337464799752752 252.3116636282880165 0.5446390421508873203 0 -0.8386705633113421543 I I #
straight-curve $-1 137.3609119802585496 47.73168614548872313 252.3116636282880165 0.5446390421508873203 0 -0.8386705633113421543 I I #
edge $-1 $454 1 $454 0 $356 $-1 forward 7 unknown #
point $-1 10.75043199052961285 40.69717793299501096 24.0399974666424221 #
edge $-1 $455 1 $455 0 $360 $-1 forward 7 unknown #
point $-1 10.75043199052961285 44.91788286049123258 24.0399974666424221 #
straight-curve $-1 0 82.63286827599858952 15.26174882888583184 0 0 -1 I I #
point $-1 0 0 0 #
straight-curve $-1 0 41.31643413799929476 0 0 1 0 I I #
point $-1 0 82.63286827599858952 0 #
straight-curve $-1 0 0 11.25713935018236356 0 0 -1 I I #
point $-1 0 -11.37000520634907552 7.101530071755828288 #
straight-curve $-1 0 -5.685002603174537761 7.101530071755828288 0 1 0 I I #
point $-1 0 0 7.101530071755828288 #
straight-curve $-1 -38.15603635939558558 53.51102796416913066 371.256747913774575 -0.7313537098837770145 0 -0.6819983511997929071 I I #
point $-1 -126.8460934776601903 39.08729572855943957 288.5519336699470614 #
straight-curve $-1 -126.8460934776601903 46.29916184636428511 288.5519336699470614 0 1 0 I I #
point $-1 -126.8460934776601903 53.51102796416913066 288.5519336699470614 #
vertex $-1 $412 $456 #
vertex $-1 $414 $457 #
straight-curve $-1 -269.4558671419007965 47.73168614548872313 -11.87824669499647712 0.5446390421508873203 0 -0.8386705633113421543 I I #
point $-1 -203.4083895610796731 37.88337464799752752 -113.5824414755363136 #
straight-curve $-1 -203.4083895610796731 42.80753039674312532 -113.5824414755363136 0 1 0 I I #
point $-1 -203.4083895610796731 47.73168614548872313 -113.5824414755363136 #
vertex $-1 $432 $458 #
vertex $-1 $434 $459 #
point $-1 113.6332158656307456 43.20836208159078495 22.87923666502106812 #
point $-1 113.6332158656307456 49.38996161113779237 22.87923666502106812 #
point $-1 10.45640046936915724 40.69717793299501096 22.6566878611801954 #
point $-1 10.45640046936915724 44.91788286049123258 22.6566878611801954 #
End-of-ACIS-data 