300 0 11 0           
7 Unknown 11 ACIS 3.0 NT 24 Fri Oct 30 20:07:12 1998 
-1 9.9999999999999995e-007 1e-010 
body $11 $12 $-1 $13 #
body $14 $15 $-1 $16 #
body $17 $18 $-1 $19 #
body $20 $21 $-1 $22 #
body $23 $24 $-1 $25 #
body $26 $27 $-1 $28 #
body $29 $30 $-1 $31 #
body $32 $33 $-1 $34 #
body $35 $36 $-1 $37 #
body $38 $39 $-1 $40 #
body $41 $42 $-1 $43 #
display_attribute-st-attrib $-1 $44 $-1 $0 1 #
lump $-1 $-1 $45 $0 #
transform $-1 1 0 0 0 1 0 0 0 1 40.354014709921564 19.678847653121636 5.5365864628853139 1 rotate no_reflect no_shear #
display_attribute-st-attrib $-1 $46 $-1 $1 1 #
lump $-1 $-1 $47 $1 #
transform $-1 1 0 0 0 1 0 0 0 1 40.354014709921564 -2.094050310449755 2.2236215974299856 1 rotate no_reflect no_shear #
display_attribute-st-attrib $-1 $48 $-1 $2 1 #
lump $-1 $-1 $49 $2 #
transform $-1 0.62932038083071107 0 0.77714596973225614 0 1 0 -0.77714596973225614 0 0.62932038083071107 -62.721919788663442 12.983004969958687 58.814681694363813 1 rotate no_reflect no_shear #
display_attribute-st-attrib $-1 $50 $-1 $3 1 #
lump $-1 $-1 $51 $3 #
transform $-1 0.62932038083071107 0 0.77714596973225614 0 -1 0 0.77714596973225614 0 -0.62932038083071107 2.7791353493399709 11.601856631758658 8.2977443280322838 1 rotate no_reflect no_shear #
display_attribute-st-attrib $-1 $52 $-1 $4 1 #
lump $-1 $-1 $53 $4 #
transform $-1 0.62932038083071107 0 0.77714596973225614 0 -1 0 0.77714596973225614 0 -0.62932038083071107 2.7791353493399709 14.364153308158716 8.2977443280322838 1 rotate no_reflect no_shear #
display_attribute-st-attrib $-1 $54 $-1 $5 1 #
lump $-1 $-1 $55 $5 #
transform $-1 0.62932038083071107 0 0.77714596973225614 0 1 0 -0.77714596973225614 0 0.62932038083071107 -62.721919788663442 30.562790957184092 58.814681694363813 1 rotate no_reflect no_shear #
display_attribute-st-attrib $-1 $56 $-1 $6 1 #
lump $-1 $-1 $57 $6 #
transform $-1 0.62932038083071107 0 0.77714596973225614 0 -1 0 0.77714596973225614 0 -0.62932038083071107 2.7791353493399709 29.181642618984064 8.2977443280322838 1 rotate no_reflect no_shear #
display_attribute-st-attrib $-1 $58 $-1 $7 1 #
lump $-1 $-1 $59 $7 #
transform $-1 0.62932038083071107 0 0.77714596973225614 0 -1 0 0.77714596973225614 0 -0.62932038083071107 2.7791353493399709 31.943939295384123 8.2977443280322838 1 rotate no_reflect no_shear #
display_attribute-st-attrib $-1 $60 $-1 $8 1 #
lump $-1 $-1 $61 $8 #
transform $-1 0.77714595512881146 0 -0.62932039886446345 0 1 0 0.62932039886446345 0 0.77714595512881146 68.777320075855442 25.217752026754326 120.91892472544473 1 rotate no_reflect no_shear #
display_attribute-st-attrib $-1 $62 $-1 $9 1 #
lump $-1 $-1 $63 $9 #
transform $-1 0.77714595512881146 0 -0.62932039886446345 0 -1 0 -0.62932039886446345 0 -0.77714595512881146 77.656962823452901 23.656091048744528 8.26805244364229 1 rotate no_reflect no_shear #
display_attribute-st-attrib $-1 $64 $-1 $10 1 #
lump $-1 $-1 $65 $10 #
transform $-1 0.77714595512881146 0 -0.62932039886446345 0 -1 0 -0.62932039886446345 0 -0.77714595512881146 77.656962823452901 26.779413004764116 8.26805244364229 1 rotate no_reflect no_shear #
id_attribute-st-attrib $-1 $-1 $11 $0 4247 #
shell $-1 $-1 $-1 $66 $-1 $12 #
id_attribute-st-attrib $-1 $-1 $14 $1 4252 #
shell $-1 $-1 $-1 $67 $-1 $15 #
id_attribute-st-attrib $-1 $-1 $17 $2 4268 #
shell $-1 $-1 $-1 $68 $-1 $18 #
id_attribute-st-attrib $-1 $-1 $20 $3 4275 #
shell $-1 $-1 $-1 $69 $-1 $21 #
id_attribute-st-attrib $-1 $-1 $23 $4 4283 #
shell $-1 $-1 $-1 $70 $-1 $24 #
id_attribute-st-attrib $-1 $-1 $26 $5 4292 #
shell $-1 $-1 $-1 $71 $-1 $27 #
id_attribute-st-attrib $-1 $-1 $29 $6 4302 #
shell $-1 $-1 $-1 $72 $-1 $30 #
id_attribute-st-attrib $-1 $-1 $32 $7 4313 #
shell $-1 $-1 $-1 $73 $-1 $33 #
id_attribute-st-attrib $-1 $-1 $35 $8 4330 #
shell $-1 $-1 $-1 $74 $-1 $36 #
id_attribute-st-attrib $-1 $-1 $38 $9 4343 #
shell $-1 $-1 $-1 $75 $-1 $39 #
id_attribute-st-attrib $-1 $-1 $41 $10 4357 #
shell $-1 $-1 $-1 $76 $-1 $42 #
face $-1 $77 $78 $45 $-1 $79 forward single #
face $-1 $80 $81 $47 $-1 $82 forward single #
face $-1 $83 $84 $49 $-1 $85 forward single #
face $-1 $86 $87 $51 $-1 $88 forward single #
face $-1 $89 $90 $53 $-1 $91 forward single #
face $-1 $92 $93 $55 $-1 $94 forward single #
face $-1 $95 $96 $57 $-1 $97 forward single #
face $-1 $98 $99 $59 $-1 $100 forward single #
face $-1 $101 $102 $61 $-1 $103 forward single #
face $-1 $104 $105 $63 $-1 $106 forward single #
face $-1 $107 $108 $65 $-1 $109 forward single #
face $-1 $110 $111 $45 $-1 $112 reversed single #
loop $-1 $-1 $113 $66 #
plane-surface $-1 0 0 5.5365864628853139 0 0 1 1 0 0 forward_v I I I I #
face $-1 $114 $115 $47 $-1 $116 reversed single #
loop $-1 $-1 $117 $67 #
plane-surface $-1 0 0 1.5 0 0 1 1 0 0 forward_v I I I I #
face $-1 $118 $119 $49 $-1 $120 reversed single #
loop $-1 $-1 $121 $68 #
plane-surface $-1 0 0 80.708029419843143 0 0 1 1 0 0 forward_v I I I I #
face $-1 $122 $123 $51 $-1 $124 forward single #
loop $-1 $125 $126 $69 #
cone-surface $-1 0 0 -1.1185949278237253 0 0 1 0.5 0 0 1 I I 0 1 forward I I I I #
face $-1 $127 $128 $53 $-1 $129 forward single #
loop $-1 $130 $131 $70 #
cone-surface $-1 0 0 -1.1185949278237253 0 0 1 0.5 0 0 1 I I 0 1 forward I I I I #
face $-1 $132 $133 $55 $-1 $134 reversed single #
loop $-1 $-1 $135 $71 #
plane-surface $-1 0 0 80.708029419843143 0 0 1 1 0 0 forward_v I I I I #
face $-1 $136 $137 $57 $-1 $138 forward single #
loop $-1 $139 $140 $72 #
cone-surface $-1 0 0 -1.1185949278237253 0 0 1 0.5 0 0 1 I I 0 1 forward I I I I #
face $-1 $141 $142 $59 $-1 $143 forward single #
loop $-1 $144 $145 $73 #
cone-surface $-1 0 0 -1.1185949278237253 0 0 1 0.5 0 0 1 I I 0 1 forward I I I I #
face $-1 $146 $147 $61 $-1 $148 reversed single #
loop $-1 $-1 $149 $74 #
plane-surface $-1 0 0 80.708029419843129 0 0 1 1 0 0 forward_v I I I I #
face $-1 $150 $151 $63 $-1 $152 forward single #
loop $-1 $153 $154 $75 #
cone-surface $-1 0 0 -0.75 0 0 1 0.5 0 0 1 I I 0 1 forward I I I I #
face $-1 $155 $156 $65 $-1 $157 forward single #
loop $-1 $158 $159 $76 #
cone-surface $-1 0 0 -0.75 0 0 1 0.5 0 0 1 I I 0 1 forward I I I I #
face $-1 $160 $161 $45 $-1 $162 reversed single #
loop $-1 $-1 $163 $77 #
plane-surface $-1 0 0 -5.5365864628853139 0 0 1 1 0 0 forward_v I I I I #
coedge $-1 $164 $165 $166 $167 forward $78 $-1 #
face $-1 $168 $169 $47 $-1 $170 reversed single #
loop $-1 $-1 $171 $80 #
plane-surface $-1 0 0 -1.5 0 0 1 1 0 0 forward_v I I I I #
coedge $-1 $172 $173 $174 $175 forward $81 $-1 #
face $-1 $176 $177 $49 $-1 $178 reversed single #
loop $-1 $-1 $179 $83 #
plane-surface $-1 0 0 -80.708029419843143 0 0 1 1 0 0 forward_v I I I I #
coedge $-1 $180 $181 $182 $183 forward $84 $-1 #
face $-1 $-1 $184 $51 $-1 $185 forward single #
loop $-1 $-1 $186 $86 #
plane-surface $-1 0 0 -1.9871898556474505 0 0 -1 -1 0 0 forward_v I I I I #
loop $-1 $-1 $187 $69 #
coedge $-1 $126 $126 $186 $188 reversed $87 $-1 #
face $-1 $-1 $189 $53 $-1 $190 forward single #
loop $-1 $-1 $191 $89 #
plane-surface $-1 0 0 -1.9871898556474505 0 0 -1 -1 0 0 forward_v I I I I #
loop $-1 $-1 $192 $70 #
coedge $-1 $131 $131 $191 $193 reversed $90 $-1 #
face $-1 $194 $195 $55 $-1 $196 reversed single #
loop $-1 $-1 $197 $92 #
plane-surface $-1 0 0 -80.708029419843143 0 0 1 1 0 0 forward_v I I I I #
coedge $-1 $198 $199 $200 $201 forward $93 $-1 #
face $-1 $-1 $202 $57 $-1 $203 forward single #
loop $-1 $-1 $204 $95 #
plane-surface $-1 0 0 -1.9871898556474505 0 0 -1 -1 0 0 forward_v I I I I #
loop $-1 $-1 $205 $72 #
coedge $-1 $140 $140 $204 $206 reversed $96 $-1 #
face $-1 $-1 $207 $59 $-1 $208 forward single #
loop $-1 $-1 $209 $98 #
plane-surface $-1 0 0 -1.9871898556474505 0 0 -1 -1 0 0 forward_v I I I I #
loop $-1 $-1 $210 $73 #
coedge $-1 $145 $145 $209 $211 reversed $99 $-1 #
face $-1 $212 $213 $61 $-1 $214 reversed single #
loop $-1 $-1 $215 $101 #
plane-surface $-1 0 0 -80.708029419843129 0 0 1 1 0 0 forward_v I I I I #
coedge $-1 $216 $217 $218 $219 forward $102 $-1 #
face $-1 $-1 $220 $63 $-1 $221 forward single #
loop $-1 $-1 $222 $104 #
plane-surface $-1 0 0 -1.25 0 0 -1 -1 0 0 forward_v I I I I #
loop $-1 $-1 $223 $75 #
coedge $-1 $154 $154 $222 $224 reversed $105 $-1 #
face $-1 $-1 $225 $65 $-1 $226 forward single #
loop $-1 $-1 $227 $107 #
plane-surface $-1 0 0 -1.25 0 0 -1 -1 0 0 forward_v I I I I #
loop $-1 $-1 $228 $76 #
coedge $-1 $159 $159 $227 $229 reversed $108 $-1 #
face $-1 $230 $231 $45 $-1 $232 reversed single #
loop $-1 $-1 $233 $110 #
plane-surface $-1 0 -19.678847653121636 0 0 1 0 0 0 1 forward_v I I I I #
coedge $-1 $234 $235 $236 $237 forward $111 $-1 #
coedge $-1 $238 $113 $239 $240 forward $78 $-1 #
coedge $-1 $113 $238 $241 $242 forward $78 $-1 #
coedge $-1 $243 $244 $113 $167 reversed $245 $-1 #
edge $-1 $246 $247 $166 $248 forward #
face $-1 $249 $250 $47 $-1 $251 reversed single #
loop $-1 $-1 $252 $114 #
plane-surface $-1 0 -2.094050310449755 0 0 1 0 0 0 1 forward_v I I I I #
coedge $-1 $253 $254 $255 $256 forward $115 $-1 #
coedge $-1 $257 $117 $258 $259 forward $81 $-1 #
coedge $-1 $117 $257 $260 $261 forward $81 $-1 #
coedge $-1 $262 $263 $117 $175 reversed $264 $-1 #
edge $-1 $265 $266 $174 $267 forward #
face $-1 $268 $269 $49 $-1 $270 reversed single #
loop $-1 $-1 $271 $118 #
plane-surface $-1 0 -3.2226794558000673 0 0 1 0 0 0 1 forward_v I I I I #
coedge $-1 $272 $273 $274 $275 forward $119 $-1 #
coedge $-1 $276 $121 $277 $278 forward $84 $-1 #
coedge $-1 $121 $276 $279 $280 forward $84 $-1 #
coedge $-1 $281 $282 $121 $183 reversed $283 $-1 #
edge $-1 $284 $285 $182 $286 forward #
loop $-1 $287 $288 $122 #
cone-surface $-1 0 0 0 0 0 1 0.25 0 0 1 I I -0.70710678118654746 0.70710678118654746 forward I I I I #
coedge $-1 $186 $186 $126 $188 forward $123 $-1 #
coedge $-1 $187 $187 $288 $289 forward $125 $-1 #
edge $-1 $290 $290 $186 $291 forward #
loop $-1 $292 $293 $127 #
cone-surface $-1 0 0 0 0 0 1 0.25 0 0 1 I I -0.70710678118654746 0.70710678118654746 forward I I I I #
coedge $-1 $191 $191 $131 $193 forward $128 $-1 #
coedge $-1 $192 $192 $293 $294 forward $130 $-1 #
edge $-1 $295 $295 $191 $296 forward #
face $-1 $297 $298 $55 $-1 $299 reversed single #
loop $-1 $-1 $300 $132 #
plane-surface $-1 0 -3.2226794558000673 0 0 1 0 0 0 1 forward_v I I I I #
coedge $-1 $301 $302 $303 $304 forward $133 $-1 #
coedge $-1 $305 $135 $306 $307 forward $93 $-1 #
coedge $-1 $135 $305 $308 $309 forward $93 $-1 #
coedge $-1 $310 $311 $135 $201 reversed $312 $-1 #
edge $-1 $313 $314 $200 $315 forward #
loop $-1 $316 $317 $136 #
cone-surface $-1 0 0 0 0 0 1 0.25 0 0 1 I I -0.70710678118654746 0.70710678118654746 forward I I I I #
coedge $-1 $204 $204 $140 $206 forward $137 $-1 #
coedge $-1 $205 $205 $317 $318 forward $139 $-1 #
edge $-1 $319 $319 $204 $320 forward #
loop $-1 $321 $322 $141 #
cone-surface $-1 0 0 0 0 0 1 0.25 0 0 1 I I -0.70710678118654746 0.70710678118654746 forward I I I I #
coedge $-1 $209 $209 $145 $211 forward $142 $-1 #
coedge $-1 $210 $210 $322 $323 forward $144 $-1 #
edge $-1 $324 $324 $209 $325 forward #
face $-1 $326 $327 $61 $-1 $328 reversed single #
loop $-1 $-1 $329 $146 #
plane-surface $-1 0 -3.6438756153561851 0 0 1 0 0 0 1 forward_v I I I I #
coedge $-1 $330 $331 $332 $333 forward $147 $-1 #
coedge $-1 $334 $149 $335 $336 forward $102 $-1 #
coedge $-1 $149 $334 $337 $338 forward $102 $-1 #
coedge $-1 $339 $340 $149 $219 reversed $341 $-1 #
edge $-1 $342 $343 $218 $344 forward #
loop $-1 $345 $346 $150 #
cone-surface $-1 0 0 0 0 0 1 0.25 0 0 1 I I -0.70710678118654746 0.70710678118654746 forward I I I I #
coedge $-1 $222 $222 $154 $224 forward $151 $-1 #
coedge $-1 $223 $223 $346 $347 forward $153 $-1 #
edge $-1 $348 $348 $222 $349 forward #
loop $-1 $350 $351 $155 #
cone-surface $-1 0 0 0 0 0 1 0.25 0 0 1 I I -0.70710678118654746 0.70710678118654746 forward I I I I #
coedge $-1 $227 $227 $159 $229 forward $156 $-1 #
coedge $-1 $228 $228 $351 $352 forward $158 $-1 #
edge $-1 $353 $353 $227 $354 forward #
face $-1 $355 $356 $45 $-1 $357 reversed single #
loop $-1 $-1 $358 $160 #
plane-surface $-1 -40.354014709921564 0 0 1 0 0 0 0 -1 forward_v I I I I #
coedge $-1 $359 $241 $360 $361 forward $161 $-1 #
coedge $-1 $362 $163 $359 $363 forward $111 $-1 #
coedge $-1 $163 $362 $364 $365 forward $111 $-1 #
coedge $-1 $244 $243 $163 $237 reversed $245 $-1 #
edge $-1 $366 $367 $236 $368 forward #
coedge $-1 $165 $164 $369 $370 forward $78 $-1 #
coedge $-1 $371 $372 $164 $240 reversed $356 $-1 #
edge $-1 $247 $373 $239 $374 forward #
coedge $-1 $233 $375 $165 $242 reversed $161 $-1 #
edge $-1 $376 $246 $241 $377 forward #
coedge $-1 $236 $166 $375 $378 forward $245 $-1 #
coedge $-1 $166 $236 $371 $379 reversed $245 $-1 #
loop $-1 $-1 $243 $355 #
vertex $-1 $167 $380 #
vertex $-1 $167 $381 #
straight-curve $-1 40.354014709921564 0 5.5365864628853139 0 1 0 I I #
face $-1 $382 $383 $47 $-1 $384 reversed single #
loop $-1 $-1 $385 $168 #
plane-surface $-1 -40.354014709921564 0 0 1 0 0 0 0 -1 forward_v I I I I #
coedge $-1 $386 $260 $387 $388 forward $169 $-1 #
coedge $-1 $389 $171 $386 $390 forward $115 $-1 #
coedge $-1 $171 $389 $391 $392 forward $115 $-1 #
coedge $-1 $263 $262 $171 $256 reversed $264 $-1 #
edge $-1 $393 $394 $255 $395 forward #
coedge $-1 $173 $172 $396 $397 forward $81 $-1 #
coedge $-1 $398 $399 $172 $259 reversed $383 $-1 #
edge $-1 $266 $400 $258 $401 forward #
coedge $-1 $252 $402 $173 $261 reversed $169 $-1 #
edge $-1 $403 $265 $260 $404 forward #
coedge $-1 $255 $174 $402 $405 forward $264 $-1 #
coedge $-1 $174 $255 $398 $406 reversed $264 $-1 #
loop $-1 $-1 $262 $382 #
vertex $-1 $175 $407 #
vertex $-1 $175 $408 #
straight-curve $-1 40.354014709921564 0 1.5 0 1 0 I I #
face $-1 $409 $410 $49 $-1 $411 reversed single #
loop $-1 $-1 $412 $176 #
plane-surface $-1 -161.41605883968626 0 0 1 0 0 0 0 -1 forward_v I I I I #
coedge $-1 $413 $279 $414 $415 forward $177 $-1 #
coedge $-1 $416 $179 $413 $417 forward $119 $-1 #
coedge $-1 $179 $416 $418 $419 forward $119 $-1 #
coedge $-1 $282 $281 $179 $275 reversed $283 $-1 #
edge $-1 $420 $421 $274 $422 forward #
coedge $-1 $181 $180 $423 $424 forward $84 $-1 #
coedge $-1 $425 $426 $180 $278 reversed $410 $-1 #
edge $-1 $285 $427 $277 $428 forward #
coedge $-1 $271 $429 $181 $280 reversed $177 $-1 #
edge $-1 $430 $284 $279 $431 forward #
coedge $-1 $274 $182 $429 $432 forward $283 $-1 #
coedge $-1 $182 $274 $425 $433 reversed $283 $-1 #
loop $-1 $-1 $281 $409 #
vertex $-1 $183 $434 #
vertex $-1 $183 $435 #
straight-curve $-1 161.41605883968626 0 80.708029419843143 0 1 0 I I #
loop $-1 $-1 $436 $122 #
coedge $-1 $288 $288 $187 $289 reversed $184 $-1 #
edge $-1 $437 $437 $288 $438 forward #
vertex $-1 $188 $439 #
ellipse-curve $-1 0 0 -1.9871898556474505 0 0 -1 0.5 0 0 1 I I #
loop $-1 $-1 $440 $127 #
coedge $-1 $293 $293 $192 $294 reversed $189 $-1 #
edge $-1 $441 $441 $293 $442 forward #
vertex $-1 $193 $443 #
ellipse-curve $-1 0 0 -1.9871898556474505 0 0 -1 0.5 0 0 1 I I #
face $-1 $444 $445 $55 $-1 $446 reversed single #
loop $-1 $-1 $447 $194 #
plane-surface $-1 -161.41605883968626 0 0 1 0 0 0 0 -1 forward_v I I I I #
coedge $-1 $448 $308 $449 $450 forward $195 $-1 #
coedge $-1 $451 $197 $448 $452 forward $133 $-1 #
coedge $-1 $197 $451 $453 $454 forward $133 $-1 #
coedge $-1 $311 $310 $197 $304 reversed $312 $-1 #
edge $-1 $455 $456 $303 $457 forward #
coedge $-1 $199 $198 $458 $459 forward $93 $-1 #
coedge $-1 $460 $461 $198 $307 reversed $445 $-1 #
edge $-1 $314 $462 $306 $463 forward #
coedge $-1 $300 $464 $199 $309 reversed $195 $-1 #
edge $-1 $465 $313 $308 $466 forward #
coedge $-1 $303 $200 $464 $467 forward $312 $-1 #
coedge $-1 $200 $303 $460 $468 reversed $312 $-1 #
loop $-1 $-1 $310 $444 #
vertex $-1 $201 $469 #
vertex $-1 $201 $470 #
straight-curve $-1 161.41605883968626 0 80.708029419843143 0 1 0 I I #
loop $-1 $-1 $471 $136 #
coedge $-1 $317 $317 $205 $318 reversed $202 $-1 #
edge $-1 $472 $472 $317 $473 forward #
vertex $-1 $206 $474 #
ellipse-curve $-1 0 0 -1.9871898556474505 0 0 -1 0.5 0 0 1 I I #
loop $-1 $-1 $475 $141 #
coedge $-1 $322 $322 $210 $323 reversed $207 $-1 #
edge $-1 $476 $476 $322 $477 forward #
vertex $-1 $211 $478 #
ellipse-curve $-1 0 0 -1.9871898556474505 0 0 -1 0.5 0 0 1 I I #
face $-1 $479 $480 $61 $-1 $481 reversed single #
loop $-1 $-1 $482 $212 #
plane-surface $-1 -161.41605883968626 0 0 1 0 0 0 0 -1 forward_v I I I I #
coedge $-1 $483 $337 $484 $485 forward $213 $-1 #
coedge $-1 $486 $215 $483 $487 forward $147 $-1 #
coedge $-1 $215 $486 $488 $489 forward $147 $-1 #
coedge $-1 $340 $339 $215 $333 reversed $341 $-1 #
edge $-1 $490 $491 $332 $492 forward #
coedge $-1 $217 $216 $493 $494 forward $102 $-1 #
coedge $-1 $495 $496 $216 $336 reversed $480 $-1 #
edge $-1 $343 $497 $335 $498 forward #
coedge $-1 $329 $499 $217 $338 reversed $213 $-1 #
edge $-1 $500 $342 $337 $501 forward #
coedge $-1 $332 $218 $499 $502 forward $341 $-1 #
coedge $-1 $218 $332 $495 $503 reversed $341 $-1 #
loop $-1 $-1 $339 $479 #
vertex $-1 $219 $504 #
vertex $-1 $219 $505 #
straight-curve $-1 161.41605883968626 0 80.708029419843129 0 1 0 I I #
loop $-1 $-1 $506 $150 #
coedge $-1 $346 $346 $223 $347 reversed $220 $-1 #
edge $-1 $507 $507 $346 $508 forward #
vertex $-1 $224 $509 #
ellipse-curve $-1 0 0 -1.25 0 0 -1 0.5 0 0 1 I I #
loop $-1 $-1 $510 $155 #
coedge $-1 $351 $351 $228 $352 reversed $225 $-1 #
edge $-1 $511 $511 $351 $512 forward #
vertex $-1 $229 $513 #
ellipse-curve $-1 0 0 -1.25 0 0 -1 0.5 0 0 1 I I #
face $-1 $-1 $245 $45 $-1 $514 reversed single #
loop $-1 $-1 $371 $230 #
plane-surface $-1 0 19.678847653121636 0 0 -1 0 0 0 -1 forward_v I I I I #
coedge $-1 $515 $369 $372 $516 forward $231 $-1 #
coedge $-1 $375 $233 $234 $363 reversed $161 $-1 #
coedge $-1 $369 $515 $233 $361 reversed $231 $-1 #
edge $-1 $376 $517 $360 $518 forward #
coedge $-1 $235 $234 $515 $519 forward $111 $-1 #
edge $-1 $367 $517 $359 $520 forward #
coedge $-1 $372 $371 $235 $365 reversed $356 $-1 #
edge $-1 $521 $366 $364 $522 forward #
vertex $-1 $237 $523 #
vertex $-1 $378 $524 #
straight-curve $-1 40.354014709921564 0 -5.5365864628853139 0 -1 0 I I #
coedge $-1 $358 $360 $238 $370 reversed $231 $-1 #
edge $-1 $373 $376 $369 $525 forward #
coedge $-1 $364 $239 $244 $379 forward $356 $-1 #
coedge $-1 $239 $364 $358 $516 reversed $356 $-1 #
vertex $-1 $240 $526 #
straight-curve $-1 0 19.678847653121636 5.5365864628853139 -1 0 0 I I #
coedge $-1 $241 $359 $243 $378 reversed $161 $-1 #
vertex $-1 $370 $527 #
straight-curve $-1 0 -19.678847653121636 5.5365864628853139 1 0 0 I I #
edge $-1 $246 $367 $243 $528 forward #
edge $-1 $247 $366 $244 $529 forward #
point $-1 40.354014709921564 -19.678847653121636 5.5365864628853139 #
point $-1 40.354014709921564 19.678847653121636 5.5365864628853139 #
face $-1 $-1 $264 $47 $-1 $530 reversed single #
loop $-1 $-1 $398 $249 #
plane-surface $-1 0 2.094050310449755 0 0 -1 0 0 0 -1 forward_v I I I I #
coedge $-1 $531 $396 $399 $532 forward $250 $-1 #
coedge $-1 $402 $252 $253 $390 reversed $169 $-1 #
coedge $-1 $396 $531 $252 $388 reversed $250 $-1 #
edge $-1 $403 $533 $387 $534 forward #
coedge $-1 $254 $253 $531 $535 forward $115 $-1 #
edge $-1 $394 $533 $386 $536 forward #
coedge $-1 $399 $398 $254 $392 reversed $383 $-1 #
edge $-1 $537 $393 $391 $538 forward #
vertex $-1 $256 $539 #
vertex $-1 $405 $540 #
straight-curve $-1 40.354014709921564 0 -1.5 0 -1 0 I I #
coedge $-1 $385 $387 $257 $397 reversed $250 $-1 #
edge $-1 $400 $403 $396 $541 forward #
coedge $-1 $391 $258 $263 $406 forward $383 $-1 #
coedge $-1 $258 $391 $385 $532 reversed $383 $-1 #
vertex $-1 $259 $542 #
straight-curve $-1 0 2.094050310449755 1.5 -1 0 0 I I #
coedge $-1 $260 $386 $262 $405 reversed $169 $-1 #
vertex $-1 $397 $543 #
straight-curve $-1 0 -2.094050310449755 1.5 1 0 0 I I #
edge $-1 $265 $394 $262 $544 forward #
edge $-1 $266 $393 $263 $545 forward #
point $-1 40.354014709921564 -2.094050310449755 1.5 #
point $-1 40.354014709921564 2.094050310449755 1.5 #
face $-1 $-1 $283 $49 $-1 $546 reversed single #
loop $-1 $-1 $425 $268 #
plane-surface $-1 0 3.2226794558000673 0 0 -1 0 0 0 -1 forward_v I I I I #
coedge $-1 $547 $423 $426 $548 forward $269 $-1 #
coedge $-1 $429 $271 $272 $417 reversed $177 $-1 #
coedge $-1 $423 $547 $271 $415 reversed $269 $-1 #
edge $-1 $430 $549 $414 $550 forward #
coedge $-1 $273 $272 $547 $551 forward $119 $-1 #
edge $-1 $421 $549 $413 $552 forward #
coedge $-1 $426 $425 $273 $419 reversed $410 $-1 #
edge $-1 $553 $420 $418 $554 forward #
vertex $-1 $275 $555 #
vertex $-1 $432 $556 #
straight-curve $-1 161.41605883968626 0 -80.708029419843143 0 -1 0 I I #
coedge $-1 $412 $414 $276 $424 reversed $269 $-1 #
edge $-1 $427 $430 $423 $557 forward #
coedge $-1 $418 $277 $282 $433 forward $410 $-1 #
coedge $-1 $277 $418 $412 $548 reversed $410 $-1 #
vertex $-1 $278 $558 #
straight-curve $-1 0 3.2226794558000673 80.708029419843143 -1 0 0 I I #
coedge $-1 $279 $413 $281 $432 reversed $177 $-1 #
vertex $-1 $424 $559 #
straight-curve $-1 0 -3.2226794558000673 80.708029419843143 1 0 0 I I #
edge $-1 $284 $421 $281 $560 forward #
edge $-1 $285 $420 $282 $561 forward #
point $-1 161.41605883968626 -3.2226794558000673 80.708029419843143 #
point $-1 161.41605883968626 3.2226794558000673 80.708029419843143 #
coedge $-1 $436 $436 $-1 $562 reversed $287 $-1 #
vertex $-1 $289 $563 #
ellipse-curve $-1 0 0 -0.25 0 0 -1 0.5 0 0 1 I I #
point $-1 0.5 0 -1.9871898556474505 #
coedge $-1 $440 $440 $-1 $564 reversed $292 $-1 #
vertex $-1 $294 $565 #
ellipse-curve $-1 0 0 -0.25 0 0 -1 0.5 0 0 1 I I #
point $-1 0.5 0 -1.9871898556474505 #
face $-1 $-1 $312 $55 $-1 $566 reversed single #
loop $-1 $-1 $460 $297 #
plane-surface $-1 0 3.2226794558000673 0 0 -1 0 0 0 -1 forward_v I I I I #
coedge $-1 $567 $458 $461 $568 forward $298 $-1 #
coedge $-1 $464 $300 $301 $452 reversed $195 $-1 #
coedge $-1 $458 $567 $300 $450 reversed $298 $-1 #
edge $-1 $465 $569 $449 $570 forward #
coedge $-1 $302 $301 $567 $571 forward $133 $-1 #
edge $-1 $456 $569 $448 $572 forward #
coedge $-1 $461 $460 $302 $454 reversed $445 $-1 #
edge $-1 $573 $455 $453 $574 forward #
vertex $-1 $304 $575 #
vertex $-1 $467 $576 #
straight-curve $-1 161.41605883968626 0 -80.708029419843143 0 -1 0 I I #
coedge $-1 $447 $449 $305 $459 reversed $298 $-1 #
edge $-1 $462 $465 $458 $577 forward #
coedge $-1 $453 $306 $311 $468 forward $445 $-1 #
coedge $-1 $306 $453 $447 $568 reversed $445 $-1 #
vertex $-1 $307 $578 #
straight-curve $-1 0 3.2226794558000673 80.708029419843143 -1 0 0 I I #
coedge $-1 $308 $448 $310 $467 reversed $195 $-1 #
vertex $-1 $459 $579 #
straight-curve $-1 0 -3.2226794558000673 80.708029419843143 1 0 0 I I #
edge $-1 $313 $456 $310 $580 forward #
edge $-1 $314 $455 $311 $581 forward #
point $-1 161.41605883968626 -3.2226794558000673 80.708029419843143 #
point $-1 161.41605883968626 3.2226794558000673 80.708029419843143 #
coedge $-1 $471 $471 $-1 $582 reversed $316 $-1 #
vertex $-1 $318 $583 #
ellipse-curve $-1 0 0 -0.25 0 0 -1 0.5 0 0 1 I I #
point $-1 0.5 0 -1.9871898556474505 #
coedge $-1 $475 $475 $-1 $584 reversed $321 $-1 #
vertex $-1 $323 $585 #
ellipse-curve $-1 0 0 -0.25 0 0 -1 0.5 0 0 1 I I #
point $-1 0.5 0 -1.9871898556474505 #
face $-1 $-1 $341 $61 $-1 $586 reversed single #
loop $-1 $-1 $495 $326 #
plane-surface $-1 0 3.6438756153561851 0 0 -1 0 0 0 -1 forward_v I I I I #
coedge $-1 $587 $493 $496 $588 forward $327 $-1 #
coedge $-1 $499 $329 $330 $487 reversed $213 $-1 #
coedge $-1 $493 $587 $329 $485 reversed $327 $-1 #
edge $-1 $500 $589 $484 $590 forward #
coedge $-1 $331 $330 $587 $591 forward $147 $-1 #
edge $-1 $491 $589 $483 $592 forward #
coedge $-1 $496 $495 $331 $489 reversed $480 $-1 #
edge $-1 $593 $490 $488 $594 forward #
vertex $-1 $333 $595 #
vertex $-1 $502 $596 #
straight-curve $-1 161.41605883968626 0 -80.708029419843129 0 -1 0 I I #
coedge $-1 $482 $484 $334 $494 reversed $327 $-1 #
edge $-1 $497 $500 $493 $597 forward #
coedge $-1 $488 $335 $340 $503 forward $480 $-1 #
coedge $-1 $335 $488 $482 $588 reversed $480 $-1 #
vertex $-1 $336 $598 #
straight-curve $-1 0 3.6438756153561851 80.708029419843129 -1 0 0 I I #
coedge $-1 $337 $483 $339 $502 reversed $213 $-1 #
vertex $-1 $494 $599 #
straight-curve $-1 0 -3.6438756153561851 80.708029419843129 1 0 0 I I #
edge $-1 $342 $491 $339 $600 forward #
edge $-1 $343 $490 $340 $601 forward #
point $-1 161.41605883968626 -3.6438756153561851 80.708029419843129 #
point $-1 161.41605883968626 3.6438756153561851 80.708029419843129 #
coedge $-1 $506 $506 $-1 $602 reversed $345 $-1 #
vertex $-1 $347 $603 #
ellipse-curve $-1 0 0 -0.25 0 0 -1 0.5 0 0 1 I I #
point $-1 0.5 0 -1.25 #
coedge $-1 $510 $510 $-1 $604 reversed $350 $-1 #
vertex $-1 $352 $605 #
ellipse-curve $-1 0 0 -0.25 0 0 -1 0.5 0 0 1 I I #
point $-1 0.5 0 -1.25 #
plane-surface $-1 40.354014709921564 0 0 -1 0 0 0 0 1 forward_v I I I I #
coedge $-1 $360 $358 $362 $519 reversed $231 $-1 #
edge $-1 $373 $521 $372 $606 forward #
vertex $-1 $519 $607 #
straight-curve $-1 -40.354014709921564 -19.678847653121636 0 0 0 -1 I I #
edge $-1 $517 $521 $515 $608 forward #
straight-curve $-1 0 -19.678847653121636 -5.5365864628853139 -1 0 0 I I #
vertex $-1 $365 $609 #
straight-curve $-1 0 19.678847653121636 -5.5365864628853139 1 0 0 I I #
point $-1 40.354014709921564 19.678847653121636 -5.5365864628853139 #
point $-1 40.354014709921564 -19.678847653121636 -5.5365864628853139 #
straight-curve $-1 -40.354014709921564 0 5.5365864628853139 0 -1 0 I I #
point $-1 -40.354014709921564 19.678847653121636 5.5365864628853139 #
point $-1 -40.354014709921564 -19.678847653121636 5.5365864628853139 #
straight-curve $-1 40.354014709921564 -19.678847653121636 0 0 0 -1 I I #
straight-curve $-1 40.354014709921564 19.678847653121636 0 0 0 -1 I I #
plane-surface $-1 40.354014709921564 0 0 -1 0 0 0 0 1 forward_v I I I I #
coedge $-1 $387 $385 $389 $535 reversed $250 $-1 #
edge $-1 $400 $537 $399 $610 forward #
vertex $-1 $535 $611 #
straight-curve $-1 -40.354014709921564 -2.094050310449755 0 0 0 -1 I I #
edge $-1 $533 $537 $531 $612 forward #
straight-curve $-1 0 -2.094050310449755 -1.5 -1 0 0 I I #
vertex $-1 $392 $613 #
straight-curve $-1 0 2.094050310449755 -1.5 1 0 0 I I #
point $-1 40.354014709921564 2.094050310449755 -1.5 #
point $-1 40.354014709921564 -2.094050310449755 -1.5 #
straight-curve $-1 -40.354014709921564 0 1.5 0 -1 0 I I #
point $-1 -40.354014709921564 2.094050310449755 1.5 #
point $-1 -40.354014709921564 -2.094050310449755 1.5 #
straight-curve $-1 40.354014709921564 -2.094050310449755 0 0 0 -1 I I #
straight-curve $-1 40.354014709921564 2.094050310449755 0 0 0 -1 I I #
plane-surface $-1 161.41605883968626 0 0 -1 0 0 0 0 1 forward_v I I I I #
coedge $-1 $414 $412 $416 $551 reversed $269 $-1 #
edge $-1 $427 $553 $426 $614 forward #
vertex $-1 $551 $615 #
straight-curve $-1 -161.41605883968626 -3.2226794558000673 0 0 0 -1 I I #
edge $-1 $549 $553 $547 $616 forward #
straight-curve $-1 0 -3.2226794558000673 -80.708029419843143 -1 0 0 I I #
vertex $-1 $419 $617 #
straight-curve $-1 0 3.2226794558000673 -80.708029419843143 1 0 0 I I #
point $-1 161.41605883968626 3.2226794558000673 -80.708029419843143 #
point $-1 161.41605883968626 -3.2226794558000673 -80.708029419843143 #
straight-curve $-1 -161.41605883968626 0 80.708029419843143 0 -1 0 I I #
point $-1 -161.41605883968626 3.2226794558000673 80.708029419843143 #
point $-1 -161.41605883968626 -3.2226794558000673 80.708029419843143 #
straight-curve $-1 161.41605883968626 -3.2226794558000673 0 0 0 -1 I I #
straight-curve $-1 161.41605883968626 3.2226794558000673 0 0 0 -1 I I #
edge $-1 $618 $618 $436 $-1 forward #
point $-1 0.5 0 -0.25 #
edge $-1 $619 $619 $440 $-1 forward #
point $-1 0.5 0 -0.25 #
plane-surface $-1 161.41605883968626 0 0 -1 0 0 0 0 1 forward_v I I I I #
coedge $-1 $449 $447 $451 $571 reversed $298 $-1 #
edge $-1 $462 $573 $461 $620 forward #
vertex $-1 $571 $621 #
straight-curve $-1 -161.41605883968626 -3.2226794558000673 0 0 0 -1 I I #
edge $-1 $569 $573 $567 $622 forward #
straight-curve $-1 0 -3.2226794558000673 -80.708029419843143 -1 0 0 I I #
vertex $-1 $454 $623 #
straight-curve $-1 0 3.2226794558000673 -80.708029419843143 1 0 0 I I #
point $-1 161.41605883968626 3.2226794558000673 -80.708029419843143 #
point $-1 161.41605883968626 -3.2226794558000673 -80.708029419843143 #
straight-curve $-1 -161.41605883968626 0 80.708029419843143 0 -1 0 I I #
point $-1 -161.41605883968626 3.2226794558000673 80.708029419843143 #
point $-1 -161.41605883968626 -3.2226794558000673 80.708029419843143 #
straight-curve $-1 161.41605883968626 -3.2226794558000673 0 0 0 -1 I I #
straight-curve $-1 161.41605883968626 3.2226794558000673 0 0 0 -1 I I #
edge $-1 $624 $624 $471 $-1 forward #
point $-1 0.5 0 -0.25 #
edge $-1 $625 $625 $475 $-1 forward #
point $-1 0.5 0 -0.25 #
plane-surface $-1 161.41605883968626 0 0 -1 0 0 0 0 1 forward_v I I I I #
coedge $-1 $484 $482 $486 $591 reversed $327 $-1 #
edge $-1 $497 $593 $496 $626 forward #
vertex $-1 $591 $627 #
straight-curve $-1 -161.41605883968626 -3.6438756153561851 0 0 0 -1 I I #
edge $-1 $589 $593 $587 $628 forward #
straight-curve $-1 0 -3.6438756153561851 -80.708029419843129 -1 0 0 I I #
vertex $-1 $489 $629 #
straight-curve $-1 0 3.6438756153561851 -80.708029419843129 1 0 0 I I #
point $-1 161.41605883968626 3.6438756153561851 -80.708029419843129 #
point $-1 161.41605883968626 -3.6438756153561851 -80.708029419843129 #
straight-curve $-1 -161.41605883968626 0 80.708029419843129 0 -1 0 I I #
point $-1 -161.41605883968626 3.6438756153561851 80.708029419843129 #
point $-1 -161.41605883968626 -3.6438756153561851 80.708029419843129 #
straight-curve $-1 161.41605883968626 -3.6438756153561851 0 0 0 -1 I I #
straight-curve $-1 161.41605883968626 3.6438756153561851 0 0 0 -1 I I #
edge $-1 $630 $630 $506 $-1 forward #
point $-1 0.5 0 -0.25 #
edge $-1 $631 $631 $510 $-1 forward #
point $-1 0.5 0 -0.25 #
straight-curve $-1 -40.354014709921564 19.678847653121636 0 0 0 -1 I I #
point $-1 -40.354014709921564 -19.678847653121636 -5.5365864628853139 #
straight-curve $-1 -40.354014709921564 0 -5.5365864628853139 0 1 0 I I #
point $-1 -40.354014709921564 19.678847653121636 -5.5365864628853139 #
straight-curve $-1 -40.354014709921564 2.094050310449755 0 0 0 -1 I I #
point $-1 -40.354014709921564 -2.094050310449755 -1.5 #
straight-curve $-1 -40.354014709921564 0 -1.5 0 1 0 I I #
point $-1 -40.354014709921564 2.094050310449755 -1.5 #
straight-curve $-1 -161.41605883968626 3.2226794558000673 0 0 0 -1 I I #
point $-1 -161.41605883968626 -3.2226794558000673 -80.708029419843143 #
straight-curve $-1 -161.41605883968626 0 -80.708029419843143 0 1 0 I I #
point $-1 -161.41605883968626 3.2226794558000673 -80.708029419843143 #
vertex $-1 $562 $632 #
vertex $-1 $564 $633 #
straight-curve $-1 -161.41605883968626 3.2226794558000673 0 0 0 -1 I I #
point $-1 -161.41605883968626 -3.2226794558000673 -80.708029419843143 #
straight-curve $-1 -161.41605883968626 0 -80.708029419843143 0 1 0 I I #
point $-1 -161.41605883968626 3.2226794558000673 -80.708029419843143 #
vertex $-1 $582 $634 #
vertex $-1 $584 $635 #
straight-curve $-1 -161.41605883968626 3.6438756153561851 0 0 0 -1 I I #
point $-1 -161.41605883968626 -3.6438756153561851 -80.708029419843129 #
straight-curve $-1 -161.41605883968626 0 -80.708029419843129 0 1 0 I I #
point $-1 -161.41605883968626 3.6438756153561851 -80.708029419843129 #
vertex $-1 $602 $636 #
vertex $-1 $604 $637 #
point $-1 0 0 0.25 #
point $-1 0 0 0.25 #
point $-1 0 0 0.25 #
point $-1 0 0 0.25 #
point $-1 0 0 0.25 #
point $-1 0 0 0.25 #
End-of-ACIS-data 