300 0 5 0           
7 Unknown 11 ACIS 3.0 NT 24 Fri Oct 30 14:26:59 1998 
-1 9.9999999999999995e-007 1e-010 
body $5 $6 $-1 $7 #
body $8 $9 $-1 $10 #
body $11 $12 $-1 $13 #
body $14 $15 $-1 $16 #
body $17 $18 $-1 $19 #
display_attribute-st-attrib $-1 $20 $-1 $0 1 #
lump $-1 $-1 $21 $0 #
transform $-1 1 0 0 0 1 0 0 0 1 46.954557939390241 23.327962128443726 8.9111434177466489 1 rotate no_reflect no_shear #
display_attribute-st-attrib $-1 $22 $-1 $1 3 #
lump $-1 $-1 $23 $1 #
transform $-1 1 0 0 0 1 0 0 0 1 46.954557939390241 23.327962128443726 8.9111434177466489 1 rotate no_reflect no_shear #
display_attribute-st-attrib $-1 $24 $-1 $2 3 #
lump $-1 $-1 $25 $2 #
transform $-1 1 0 0 0 1 0 0 0 1 46.954557939390241 23.327962128443726 8.9111434177466489 1 rotate no_reflect no_shear #
display_attribute-st-attrib $-1 $26 $-1 $3 3 #
lump $-1 $-1 $27 $3 #
transform $-1 1 0 0 0 1 0 0 0 1 46.954557939390241 23.327962128443726 8.9111434177466489 1 rotate no_reflect no_shear #
display_attribute-st-attrib $-1 $28 $-1 $4 3 #
lump $-1 $-1 $29 $4 #
transform $-1 1 0 0 0 1 0 0 0 1 46.954557939390241 23.327962128443726 8.9111434177466489 1 rotate no_reflect no_shear #
id_attribute-st-attrib $-1 $-1 $5 $0 1657 #
shell $-1 $-1 $-1 $30 $-1 $6 #
id_attribute-st-attrib $-1 $-1 $8 $1 1668 #
shell $-1 $-1 $-1 $31 $-1 $9 #
id_attribute-st-attrib $-1 $-1 $11 $2 1675 #
shell $-1 $-1 $-1 $32 $-1 $12 #
id_attribute-st-attrib $-1 $-1 $14 $3 1683 #
shell $-1 $-1 $-1 $33 $-1 $15 #
id_attribute-st-attrib $-1 $-1 $17 $4 1692 #
shell $-1 $-1 $-1 $34 $-1 $18 #
face $-1 $35 $36 $21 $-1 $37 forward single #
face $-1 $38 $39 $23 $-1 $40 reversed single #
face $-1 $41 $42 $25 $-1 $43 forward single #
face $-1 $44 $45 $27 $-1 $46 forward single #
face $-1 $47 $48 $29 $-1 $49 forward single #
face $-1 $50 $51 $21 $-1 $52 reversed single #
loop $-1 $-1 $53 $30 #
plane-surface $-1 0 0 8.9111434177466489 0 0 1 1 0 0 forward_v I I I I #
face $-1 $54 $55 $23 $-1 $56 reversed single #
loop $-1 $-1 $57 $31 #
plane-surface $-1 -108.56448206540536 -14.996555123596966 71.241942917661291 0 -1 0 0.6560590369687036 0 -0.75470957328743171 forward_v I I I I #
face $-1 $58 $59 $25 $-1 $60 forward single #
loop $-1 $61 $62 $32 #
cone-surface $-1 -41.712551985569739 -21.661680727474376 4.2621339947230528 0.6560590369687036 0 -0.75470957328743171 0.18867739332185793 0 0.1640147592421759 1 I I 0 1 forward I I I I #
face $-1 $63 $64 $27 $-1 $65 forward single #
loop $-1 $66 $67 $33 #
cone-surface $-1 -41.712551985569739 -19.162258626020346 4.2621339947230528 0.6560590369687036 0 -0.75470957328743171 0.18867739332185793 0 0.1640147592421759 1 I I 0 1 forward I I I I #
face $-1 $68 $69 $29 $-1 $70 forward single #
loop $-1 $71 $72 $34 #
cone-surface $-1 -41.712551985569739 -16.66283652456632 4.2621339947230528 0.6560590369687036 0 -0.75470957328743171 0.18867739332185793 0 0.1640147592421759 1 I I 0 1 forward I I I I #
face $-1 $73 $74 $21 $-1 $75 reversed single #
loop $-1 $-1 $76 $35 #
plane-surface $-1 0 0 -8.9111434177466489 0 0 1 1 0 0 forward_v I I I I #
coedge $-1 $77 $78 $79 $80 forward $36 $-1 #
face $-1 $81 $82 $23 $-1 $83 forward single #
loop $-1 $-1 $84 $38 #
plane-surface $-1 -46.954557939390241 -19.162258626020346 0.36783414498690092 -0.6560590369687036 0 0.75470957328743171 0.75470957328743171 0 0.6560590369687036 forward_v I I I I #
coedge $-1 $85 $86 $87 $88 reversed $39 $-1 #
face $-1 $-1 $89 $25 $-1 $90 forward single #
loop $-1 $91 $92 $41 #
cone-surface $-1 -41.3025150874643 -21.661680727474376 3.7904405114184083 0.6560590369687036 0 -0.75470957328743171 0.094338696660928964 0 0.08200737962108795 1 I I -0.70710678118654746 0.70710678118654746 forward I I I I #
loop $-1 $-1 $93 $32 #
coedge $-1 $62 $62 $94 $95 reversed $42 $-1 #
face $-1 $-1 $96 $27 $-1 $97 forward single #
loop $-1 $98 $99 $44 #
cone-surface $-1 -41.3025150874643 -19.162258626020346 3.7904405114184083 0.6560590369687036 0 -0.75470957328743171 0.094338696660928964 0 0.08200737962108795 1 I I -0.70710678118654746 0.70710678118654746 forward I I I I #
loop $-1 $-1 $100 $33 #
coedge $-1 $67 $67 $101 $102 reversed $45 $-1 #
face $-1 $-1 $103 $29 $-1 $104 forward single #
loop $-1 $105 $106 $47 #
cone-surface $-1 -41.3025150874643 -16.66283652456632 3.7904405114184083 0.6560590369687036 0 -0.75470957328743171 0.094338696660928964 0 0.08200737962108795 1 I I -0.70710678118654746 0.70710678118654746 forward I I I I #
loop $-1 $-1 $107 $34 #
coedge $-1 $72 $72 $108 $109 reversed $48 $-1 #
face $-1 $110 $111 $21 $-1 $112 reversed single #
loop $-1 $-1 $113 $50 #
plane-surface $-1 0 -23.327962128443726 0 0 1 0 0 0 1 forward_v I I I I #
coedge $-1 $114 $115 $116 $117 forward $51 $-1 #
coedge $-1 $118 $53 $119 $120 forward $36 $-1 #
coedge $-1 $53 $118 $121 $122 forward $36 $-1 #
coedge $-1 $123 $124 $53 $80 reversed $125 $-1 #
edge $-1 $126 $127 $79 $128 forward #
face $-1 $129 $130 $23 $-1 $131 reversed single #
loop $-1 $-1 $132 $54 #
plane-surface $-1 0 0 8.9111434177466489 0 0 1 1 0 0 forward_v I I I I #
coedge $-1 $133 $134 $135 $136 reversed $55 $-1 #
coedge $-1 $86 $57 $137 $138 reversed $39 $-1 #
coedge $-1 $57 $85 $133 $139 reversed $39 $-1 #
coedge $-1 $135 $140 $57 $88 forward $130 $-1 #
edge $-1 $141 $142 $87 $143 forward #
loop $-1 $-1 $94 $58 #
plane-surface $-1 -46.954557939390241 -19.162258626020346 0.36783414498690092 -0.6560590369687036 0 0.75470957328743171 0.75470957328743171 0 0.6560590369687036 forward_v I I I I #
loop $-1 $-1 $144 $41 #
coedge $-1 $92 $92 $93 $145 reversed $59 $-1 #
coedge $-1 $93 $93 $92 $145 forward $61 $-1 #
coedge $-1 $94 $94 $62 $95 forward $89 $-1 #
edge $-1 $146 $146 $94 $147 forward #
loop $-1 $-1 $101 $63 #
plane-surface $-1 -46.954557939390241 -19.162258626020346 0.36783414498690092 -0.6560590369687036 0 0.75470957328743171 0.75470957328743171 0 0.6560590369687036 forward_v I I I I #
loop $-1 $-1 $148 $44 #
coedge $-1 $99 $99 $100 $149 reversed $64 $-1 #
coedge $-1 $100 $100 $99 $149 forward $66 $-1 #
coedge $-1 $101 $101 $67 $102 forward $96 $-1 #
edge $-1 $150 $150 $101 $151 forward #
loop $-1 $-1 $108 $68 #
plane-surface $-1 -46.954557939390241 -19.162258626020346 0.36783414498690092 -0.6560590369687036 0 0.75470957328743171 0.75470957328743171 0 0.6560590369687036 forward_v I I I I #
loop $-1 $-1 $152 $47 #
coedge $-1 $106 $106 $107 $153 reversed $69 $-1 #
coedge $-1 $107 $107 $106 $153 forward $71 $-1 #
coedge $-1 $108 $108 $72 $109 forward $103 $-1 #
edge $-1 $154 $154 $108 $155 forward #
face $-1 $156 $157 $21 $-1 $158 reversed single #
loop $-1 $-1 $159 $73 #
plane-surface $-1 -46.954557939390241 0 0 1 0 0 0 0 -1 forward_v I I I I #
coedge $-1 $160 $121 $161 $162 forward $74 $-1 #
coedge $-1 $163 $76 $160 $164 forward $51 $-1 #
coedge $-1 $76 $163 $165 $166 forward $51 $-1 #
coedge $-1 $124 $123 $76 $117 reversed $125 $-1 #
edge $-1 $167 $168 $116 $169 forward #
coedge $-1 $78 $77 $170 $171 forward $36 $-1 #
coedge $-1 $172 $173 $77 $120 reversed $157 $-1 #
edge $-1 $127 $174 $119 $175 forward #
coedge $-1 $113 $176 $78 $122 reversed $74 $-1 #
edge $-1 $177 $126 $121 $178 forward #
coedge $-1 $116 $79 $176 $179 forward $125 $-1 #
coedge $-1 $79 $116 $172 $180 reversed $125 $-1 #
loop $-1 $-1 $123 $156 #
vertex $-1 $80 $181 #
vertex $-1 $80 $182 #
straight-curve $-1 46.954557939390241 0 8.9111434177466489 0 1 0 I I #
face $-1 $-1 $183 $23 $-1 $184 reversed single #
loop $-1 $-1 $87 $81 #
plane-surface $-1 -46.954557939390241 0 0 1 0 0 0 0 -1 forward_v I I I I #
coedge $-1 $137 $185 $186 $187 forward $82 $-1 #
coedge $-1 $186 $84 $86 $139 forward $55 $-1 #
coedge $-1 $84 $186 $188 $189 reversed $55 $-1 #
coedge $-1 $190 $87 $84 $136 forward $130 $-1 #
edge $-1 $142 $191 $135 $192 forward #
coedge $-1 $193 $132 $85 $138 forward $82 $-1 #
edge $-1 $194 $141 $137 $195 forward #
edge $-1 $142 $194 $86 $196 forward #
coedge $-1 $87 $190 $193 $197 reversed $130 $-1 #
vertex $-1 $197 $198 #
vertex $-1 $88 $199 #
straight-curve $-1 -46.954557939390241 -14.996555123596966 35.620971458830645 0 0 -1 I I #
coedge $-1 $144 $144 $-1 $200 reversed $91 $-1 #
edge $-1 $201 $201 $92 $202 forward #
vertex $-1 $95 $203 #
ellipse-curve $-1 -42.040581504054096 -21.661680727474376 4.6394887813667758 -0.6560590369687036 0 0.75470957328743171 0.18867739332185793 0 0.1640147592421759 1 I I #
coedge $-1 $148 $148 $-1 $204 reversed $98 $-1 #
edge $-1 $205 $205 $99 $206 forward #
vertex $-1 $102 $207 #
ellipse-curve $-1 -42.040581504054096 -19.162258626020346 4.6394887813667758 -0.6560590369687036 0 0.75470957328743171 0.18867739332185793 0 0.1640147592421759 1 I I #
coedge $-1 $152 $152 $-1 $208 reversed $105 $-1 #
edge $-1 $209 $209 $106 $210 forward #
vertex $-1 $109 $211 #
ellipse-curve $-1 -42.040581504054096 -16.66283652456632 4.6394887813667758 -0.6560590369687036 0 0.75470957328743171 0.18867739332185793 0 0.1640147592421759 1 I I #
face $-1 $-1 $125 $21 $-1 $212 reversed single #
loop $-1 $-1 $172 $110 #
plane-surface $-1 0 23.327962128443726 0 0 -1 0 0 0 -1 forward_v I I I I #
coedge $-1 $213 $170 $173 $214 forward $111 $-1 #
coedge $-1 $176 $113 $114 $164 reversed $74 $-1 #
coedge $-1 $170 $213 $113 $162 reversed $111 $-1 #
edge $-1 $177 $215 $161 $216 forward #
coedge $-1 $115 $114 $213 $217 forward $51 $-1 #
edge $-1 $168 $215 $160 $218 forward #
coedge $-1 $173 $172 $115 $166 reversed $157 $-1 #
edge $-1 $219 $167 $165 $220 forward #
vertex $-1 $117 $221 #
vertex $-1 $179 $222 #
straight-curve $-1 46.954557939390241 0 -8.9111434177466489 0 -1 0 I I #
coedge $-1 $159 $161 $118 $171 reversed $111 $-1 #
edge $-1 $174 $177 $170 $223 forward #
coedge $-1 $165 $119 $124 $180 forward $157 $-1 #
coedge $-1 $119 $165 $159 $214 reversed $157 $-1 #
vertex $-1 $120 $224 #
straight-curve $-1 0 23.327962128443726 8.9111434177466489 -1 0 0 I I #
coedge $-1 $121 $160 $123 $179 reversed $74 $-1 #
vertex $-1 $171 $225 #
straight-curve $-1 0 -23.327962128443726 8.9111434177466489 1 0 0 I I #
edge $-1 $126 $168 $123 $226 forward #
edge $-1 $127 $167 $124 $227 forward #
point $-1 46.954557939390241 -23.327962128443726 8.9111434177466489 #
point $-1 46.954557939390241 23.327962128443726 8.9111434177466489 #
loop $-1 $-1 $188 $129 #
plane-surface $-1 0 -23.327962128443726 0 0 1 0 0 0 1 forward_v I I I I #
coedge $-1 $132 $193 $228 $229 forward $82 $-1 #
coedge $-1 $134 $133 $132 $187 reversed $55 $-1 #
edge $-1 $230 $194 $132 $231 forward #
coedge $-1 $228 $232 $134 $189 forward $183 $-1 #
edge $-1 $191 $230 $188 $233 forward #
coedge $-1 $140 $135 $232 $234 reversed $130 $-1 #
vertex $-1 $136 $235 #
straight-curve $-1 -46.954557939390241 -9.5811293130101731 0.36783414498690181 0 -1 0 I I #
coedge $-1 $185 $137 $140 $197 forward $82 $-1 #
vertex $-1 $138 $236 #
straight-curve $-1 -54.282241032702679 -14.996555123596966 8.9111434177466506 -1 0 0 I I #
straight-curve $-1 -46.954557939390241 -14.996555123596966 0.36783414498690092 0.75470957328743171 0 0.6560590369687036 I I #
edge $-1 $141 $237 $140 $238 forward #
point $-1 -46.954557939390241 -14.996555123596966 8.9111434177466489 #
point $-1 -46.954557939390241 -14.996555123596966 0.36783414498690092 #
edge $-1 $239 $239 $144 $-1 forward #
vertex $-1 $145 $240 #
ellipse-curve $-1 -41.38452246708539 -21.661680727474376 3.8847792080793373 -0.6560590369687036 0 0.75470957328743171 0.18867739332185793 0 0.1640147592421759 1 I I #
point $-1 -41.851904110732235 -21.661680727474376 4.8035035406089452 #
edge $-1 $241 $241 $148 $-1 forward #
vertex $-1 $149 $242 #
ellipse-curve $-1 -41.38452246708539 -19.162258626020346 3.8847792080793373 -0.6560590369687036 0 0.75470957328743171 0.18867739332185793 0 0.1640147592421759 1 I I #
point $-1 -41.851904110732235 -19.162258626020346 4.8035035406089452 #
edge $-1 $243 $243 $152 $-1 forward #
vertex $-1 $153 $244 #
ellipse-curve $-1 -41.38452246708539 -16.66283652456632 3.8847792080793373 -0.6560590369687036 0 0.75470957328743171 0.18867739332185793 0 0.1640147592421759 1 I I #
point $-1 -41.851904110732235 -16.66283652456632 4.8035035406089452 #
plane-surface $-1 46.954557939390241 0 0 -1 0 0 0 0 1 forward_v I I I I #
coedge $-1 $161 $159 $163 $217 reversed $111 $-1 #
edge $-1 $174 $219 $173 $245 forward #
vertex $-1 $217 $246 #
straight-curve $-1 -46.954557939390241 -23.327962128443726 0 0 0 -1 I I #
edge $-1 $215 $219 $213 $247 forward #
straight-curve $-1 0 -23.327962128443726 -8.9111434177466489 -1 0 0 I I #
vertex $-1 $166 $248 #
straight-curve $-1 0 23.327962128443726 -8.9111434177466489 1 0 0 I I #
point $-1 46.954557939390241 23.327962128443726 -8.9111434177466489 #
point $-1 46.954557939390241 -23.327962128443726 -8.9111434177466489 #
straight-curve $-1 -46.954557939390241 0 8.9111434177466489 0 -1 0 I I #
point $-1 -46.954557939390241 23.327962128443726 8.9111434177466489 #
point $-1 -46.954557939390241 -23.327962128443726 8.9111434177466489 #
straight-curve $-1 46.954557939390241 -23.327962128443726 0 0 0 -1 I I #
straight-curve $-1 46.954557939390241 23.327962128443726 0 0 0 -1 I I #
coedge $-1 $232 $188 $185 $229 reversed $183 $-1 #
edge $-1 $237 $230 $228 $249 forward #
vertex $-1 $189 $250 #
straight-curve $-1 -37.12660506871795 -9.5811293130101731 8.9111434177466506 0 1 0 I I #
coedge $-1 $188 $228 $190 $234 forward $183 $-1 #
straight-curve $-1 -33.67327944451614 -23.327962128443726 11.913073648318052 0.75470957328743171 0 0.6560590369687036 I I #
edge $-1 $237 $191 $190 $251 forward #
point $-1 -46.954557939390241 -23.327962128443726 0.36783414498690092 #
point $-1 -37.12660506871795 -14.996555123596966 8.9111434177466489 #
vertex $-1 $197 $252 #
straight-curve $-1 -46.954557939390241 0 8.9111434177466489 0 -1 0 I I #
vertex $-1 $200 $253 #
point $-1 -41.195845073763529 -21.661680727474376 4.0487939673215134 #
vertex $-1 $204 $254 #
point $-1 -41.195845073763529 -19.162258626020346 4.0487939673215134 #
vertex $-1 $208 $255 #
point $-1 -41.195845073763529 -16.66283652456632 4.0487939673215134 #
straight-curve $-1 -46.954557939390241 23.327962128443726 0 0 0 -1 I I #
point $-1 -46.954557939390241 -23.327962128443726 -8.9111434177466489 #
straight-curve $-1 -46.954557939390241 0 -8.9111434177466489 0 1 0 I I #
point $-1 -46.954557939390241 23.327962128443726 -8.9111434177466489 #
straight-curve $-1 0 -23.327962128443726 8.9111434177466489 1 0 0 I I #
point $-1 -37.12660506871795 -23.327962128443726 8.9111434177466489 #
straight-curve $-1 -46.954557939390241 -23.327962128443726 0 0 0 -1 I I #
point $-1 -46.954557939390241 -23.327962128443726 8.9111434177466489 #
point $-1 -41.220507707843211 -21.661680727474376 3.6961018147574793 #
point $-1 -41.220507707843211 -19.162258626020346 3.6961018147574793 #
point $-1 -41.220507707843211 -16.66283652456632 3.6961018147574793 #
End-of-ACIS-data 