600 0 2 0           
95 GICL ACIS Healer - Source: /gicl/data5/repository/Drexel/SM99-DATA/part93.smdg.deltas.sat - 6 0 18 ACIS 6.0.3 Solaris 24 Sat Apr 13 20:46:56 2002 
1 9.999999999999999547e-07 1.000000000000000036e-10 
body $-1 $2 $-1 $-1 #
body $-1 $3 $-1 $-1 #
lump $-1 $-1 $4 $0 #
lump $-1 $-1 $5 $1 #
shell $-1 $-1 $-1 $6 $-1 $2 #
shell $-1 $-1 $-1 $7 $-1 $3 #
face $-1 $8 $9 $4 $-1 $10 forward single #
face $-1 $11 $12 $5 $-1 $13 forward single #
face $-1 $14 $15 $4 $-1 $16 reversed single #
loop $-1 $-1 $17 $6 #
plane-surface $-1 40.18799401837214447 22.57307633623265986 21.06067264384198623 0 0 1 1 0 0 forward_v I I I I #
face $-1 $18 $19 $5 $-1 $20 reversed single #
loop $-1 $-1 $21 $7 #
plane-surface $-1 3.8139536758913124 22.57307633623265986 5.160754993108934485 0 0 1 1 0 0 forward_v I I I I #
face $-1 $22 $23 $4 $-1 $24 reversed single #
loop $-1 $-1 $25 $8 #
plane-surface $-1 40.18799401837214447 22.57307633623265986 0 0 0 1 1 0 0 forward_v I I I I #
coedge $-1 $26 $27 $28 $29 forward $9 $-1 #
face $-1 $30 $31 $5 $-1 $32 reversed single #
loop $-1 $-1 $33 $11 #
plane-surface $-1 7.627907351782624801 22.57307633623265986 2.580377496554467243 -1 0 0 0 0 1 forward_v I I I I #
coedge $-1 $34 $35 $36 $37 forward $12 $-1 #
face $-1 $38 $39 $4 $-1 $40 reversed single #
loop $-1 $-1 $41 $14 #
plane-surface $-1 40.18799401837214447 0 10.53033632192099311 0 1 0 0 0 1 forward_v I I I I #
coedge $-1 $42 $43 $44 $45 forward $15 $-1 #
coedge $-1 $46 $17 $47 $48 forward $9 $-1 #
coedge $-1 $17 $46 $49 $50 forward $9 $-1 #
coedge $-1 $51 $52 $17 $29 reversed $53 $-1 #
edge $-1 $54 -22.57307633623265986 $55 22.57307633623265986 $28 $56 forward 7 unknown #
face $-1 $57 $58 $5 $-1 $59 reversed single #
loop $-1 $-1 $60 $18 #
plane-surface $-1 40.18799401837214447 22.57307633623265986 0 0 0 1 1 0 0 forward_v I I I I #
coedge $-1 $61 $36 $62 $63 reversed $19 $-1 #
coedge $-1 $64 $21 $65 $66 reversed $12 $-1 #
coedge $-1 $21 $64 $67 $68 reversed $12 $-1 #
coedge $-1 $33 $69 $21 $37 reversed $19 $-1 #
edge $-1 $70 -22.57307633623265986 $71 22.57307633623265986 $36 $72 forward 7 unknown #
face $-1 $73 $74 $4 $-1 $75 reversed single #
loop $-1 $-1 $76 $22 #
plane-surface $-1 0 22.57307633623265986 10.53033632192099311 1 0 0 0 0 -1 forward_v I I I I #
coedge $-1 $77 $49 $78 $79 forward $23 $-1 #
coedge $-1 $80 $25 $77 $81 forward $15 $-1 #
coedge $-1 $25 $80 $82 $83 forward $15 $-1 #
coedge $-1 $52 $51 $25 $45 reversed $53 $-1 #
edge $-1 $84 -22.57307633623265986 $85 22.57307633623265986 $44 $86 forward 7 unknown #
coedge $-1 $27 $26 $87 $88 forward $9 $-1 #
coedge $-1 $89 $90 $26 $48 reversed $74 $-1 #
edge $-1 $55 -40.18799401837214447 $91 40.18799401837214447 $47 $92 forward 7 unknown #
coedge $-1 $41 $93 $27 $50 reversed $23 $-1 #
edge $-1 $94 -40.18799401837214447 $54 40.18799401837214447 $49 $95 forward 7 unknown #
coedge $-1 $44 $28 $93 $96 forward $53 $-1 #
coedge $-1 $28 $44 $89 $97 reversed $53 $-1 #
loop $-1 $-1 $51 $73 #
vertex $-1 $29 $98 #
vertex $-1 $29 $99 #
straight-curve $-1 80.37598803674428893 22.57307633623265986 21.06067264384198623 0 1 0 I I #
face $-1 $100 $101 $5 $-1 $102 reversed single #
loop $-1 $-1 $62 $30 #
plane-surface $-1 40.18799401837214447 0 10.53033632192099311 0 1 0 0 0 1 forward_v I I I I #
coedge $-1 $103 $104 $61 $105 forward $31 $-1 #
coedge $-1 $69 $33 $60 $105 reversed $19 $-1 #
coedge $-1 $67 $106 $33 $63 forward $58 $-1 #
edge $-1 $107 -6.555356909237730179 $70 -1.394601916128795693 $62 $108 forward 7 unknown #
coedge $-1 $35 $34 $109 $110 reversed $12 $-1 #
coedge $-1 $111 $112 $34 $66 forward $113 $-1 #
edge $-1 $114 -22.00097384713172843 $71 -14.37306649534910363 $65 $115 forward 7 unknown #
coedge $-1 $116 $62 $35 $68 forward $58 $-1 #
edge $-1 $70 14.37306649534910363 $117 22.00097384713172843 $67 $118 forward 7 unknown #
coedge $-1 $36 $61 $111 $119 reversed $19 $-1 #
vertex $-1 $68 $120 #
vertex $-1 $66 $121 #
straight-curve $-1 7.627907351782624801 22.57307633623265986 5.160754993108934485 0 1 0 I I #
face $-1 $-1 $53 $4 $-1 $122 reversed single #
loop $-1 $-1 $89 $38 #
plane-surface $-1 40.18799401837214447 45.14615267246531971 10.53033632192099311 0 -1 0 0 0 -1 forward_v I I I I #
coedge $-1 $123 $87 $90 $124 forward $39 $-1 #
coedge $-1 $93 $41 $42 $81 reversed $23 $-1 #
coedge $-1 $87 $123 $41 $79 reversed $39 $-1 #
edge $-1 $94 -10.53033632192099311 $125 10.53033632192099311 $78 $126 forward 7 unknown #
coedge $-1 $43 $42 $123 $127 forward $15 $-1 #
edge $-1 $85 -40.18799401837214447 $125 40.18799401837214447 $77 $128 forward 7 unknown #
coedge $-1 $90 $89 $43 $83 reversed $74 $-1 #
edge $-1 $129 -40.18799401837214447 $84 40.18799401837214447 $82 $130 forward 7 unknown #
vertex $-1 $45 $131 #
vertex $-1 $96 $132 #
straight-curve $-1 80.37598803674428893 22.57307633623265986 0 0 -1 0 I I #
coedge $-1 $76 $78 $46 $88 reversed $39 $-1 #
edge $-1 $91 -22.57307633623265986 $94 22.57307633623265986 $87 $133 forward 7 unknown #
coedge $-1 $82 $47 $52 $97 forward $74 $-1 #
coedge $-1 $47 $82 $76 $124 reversed $74 $-1 #
vertex $-1 $48 $134 #
straight-curve $-1 40.18799401837214447 45.14615267246531971 21.06067264384198623 -1 0 0 I I #
coedge $-1 $49 $77 $51 $96 reversed $23 $-1 #
vertex $-1 $88 $135 #
straight-curve $-1 40.18799401837214447 0 21.06067264384198623 1 0 0 I I #
edge $-1 $54 -10.53033632192099311 $85 10.53033632192099311 $51 $136 forward 7 unknown #
edge $-1 $55 -10.53033632192099311 $84 10.53033632192099311 $52 $137 forward 7 unknown #
point $-1 80.37598803674428893 0 21.06067264384198623 #
point $-1 80.37598803674428893 45.14615267246531971 21.06067264384198623 #
face $-1 $-1 $113 $5 $-1 $138 reversed single #
loop $-1 $-1 $109 $57 #
plane-surface $-1 0 22.57307633623265986 10.53033632192099311 1 0 0 0 0 -1 forward_v I I I I #
coedge $-1 $139 $60 $106 $140 forward $31 $-1 #
coedge $-1 $60 $139 $141 $142 forward $31 $-1 #
edge $-1 $143 -22.57307633623265986 $107 22.57307633623265986 $60 $144 forward 7 unknown #
coedge $-1 $62 $116 $103 $140 reversed $58 $-1 #
vertex $-1 $140 $145 #
straight-curve $-1 7.627907351782624801 0 6.555356909237730179 0 0 1 I I #
coedge $-1 $146 $147 $64 $110 forward $101 $-1 #
edge $-1 $117 -22.57307633623265986 $114 22.57307633623265986 $109 $148 forward 7 unknown #
coedge $-1 $141 $65 $69 $119 forward $113 $-1 #
coedge $-1 $65 $141 $146 $149 reversed $113 $-1 #
loop $-1 $-1 $111 $100 #
vertex $-1 $149 $150 #
straight-curve $-1 22.00097384713172843 45.14615267246531971 5.160754993108934485 1 0 0 I I #
coedge $-1 $106 $67 $147 $151 forward $58 $-1 #
vertex $-1 $151 $152 #
straight-curve $-1 22.00097384713172843 0 5.160754993108934485 -1 0 0 I I #
edge $-1 $71 1.394601916128795693 $143 6.555356909237730179 $111 $153 forward 7 unknown #
point $-1 7.627907351782624801 0 5.160754993108934485 #
point $-1 7.627907351782624801 45.14615267246531971 5.160754993108934485 #
plane-surface $-1 80.37598803674428893 22.57307633623265986 10.53033632192099311 -1 0 0 0 0 1 forward_v I I I I #
coedge $-1 $78 $76 $80 $127 reversed $39 $-1 #
edge $-1 $91 -10.53033632192099311 $129 10.53033632192099311 $90 $154 forward 7 unknown #
vertex $-1 $127 $155 #
straight-curve $-1 0 0 10.53033632192099311 0 0 -1 I I #
edge $-1 $125 -22.57307633623265986 $129 22.57307633623265986 $123 $156 forward 7 unknown #
straight-curve $-1 40.18799401837214447 0 0 -1 0 0 I I #
vertex $-1 $83 $157 #
straight-curve $-1 40.18799401837214447 45.14615267246531971 0 1 0 0 I I #
point $-1 80.37598803674428893 45.14615267246531971 0 #
point $-1 80.37598803674428893 0 0 #
straight-curve $-1 0 22.57307633623265986 21.06067264384198623 0 -1 0 I I #
point $-1 0 45.14615267246531971 21.06067264384198623 #
point $-1 0 0 21.06067264384198623 #
straight-curve $-1 80.37598803674428893 0 10.53033632192099311 0 0 -1 I I #
straight-curve $-1 80.37598803674428893 45.14615267246531971 10.53033632192099311 0 0 -1 I I #
plane-surface $-1 40.18799401837214447 45.14615267246531971 10.53033632192099311 0 -1 0 0 0 -1 forward_v I I I I #
coedge $-1 $104 $103 $158 $159 forward $31 $-1 #
edge $-1 $107 32.56008666658951967 $160 40.18799401837214447 $106 $161 forward 7 unknown #
coedge $-1 $112 $111 $104 $142 reversed $113 $-1 #
edge $-1 $162 -40.18799401837214447 $143 -32.56008666658951967 $141 $163 forward 7 unknown #
vertex $-1 $119 $164 #
straight-curve $-1 7.627907351782624801 22.57307633623265986 0 0 -1 0 I I #
point $-1 7.627907351782624801 0 0 #
coedge $-1 $158 $109 $112 $149 forward $101 $-1 #
coedge $-1 $109 $158 $116 $151 reversed $101 $-1 #
straight-curve $-1 0 22.57307633623265986 5.160754993108934485 0 1 0 I I #
edge $-1 $114 5.369581328812058629 $162 10.53033632192099311 $112 $165 forward 7 unknown #
point $-1 0 45.14615267246531971 5.160754993108934485 #
edge $-1 $117 5.369581328812058629 $160 10.53033632192099311 $147 $166 forward 7 unknown #
point $-1 0 0 5.160754993108934485 #
straight-curve $-1 7.627907351782624801 45.14615267246531971 6.555356909237730179 0 0 -1 I I #
straight-curve $-1 0 45.14615267246531971 10.53033632192099311 0 0 -1 I I #
point $-1 0 0 0 #
straight-curve $-1 0 22.57307633623265986 0 0 1 0 I I #
point $-1 0 45.14615267246531971 0 #
coedge $-1 $147 $146 $139 $159 reversed $101 $-1 #
edge $-1 $160 -22.57307633623265986 $162 22.57307633623265986 $158 $167 forward 7 unknown #
vertex $-1 $159 $168 #
straight-curve $-1 40.18799401837214447 0 0 -1 0 0 I I #
vertex $-1 $142 $169 #
straight-curve $-1 40.18799401837214447 45.14615267246531971 0 1 0 0 I I #
point $-1 7.627907351782624801 45.14615267246531971 0 #
straight-curve $-1 0 45.14615267246531971 10.53033632192099311 0 0 -1 I I #
straight-curve $-1 0 0 10.53033632192099311 0 0 -1 I I #
straight-curve $-1 0 22.57307633623265986 0 0 1 0 I I #
point $-1 0 0 0 #
point $-1 0 45.14615267246531971 0 #
End-of-ACIS-data 