300 0 14 0           
7 Unknown 11 ACIS 3.0 NT 24 Fri Oct 30 17:42:18 1998 
-1 9.9999999999999995e-007 1e-010 
body $14 $15 $-1 $16 #
body $17 $18 $-1 $19 #
body $20 $21 $-1 $22 #
body $23 $24 $-1 $25 #
body $26 $27 $-1 $28 #
body $29 $30 $-1 $31 #
body $32 $33 $-1 $34 #
body $35 $36 $-1 $37 #
body $38 $39 $-1 $40 #
body $41 $42 $-1 $43 #
body $44 $45 $-1 $46 #
body $47 $48 $-1 $49 #
body $50 $51 $-1 $52 #
body $53 $54 $-1 $55 #
display_attribute-st-attrib $-1 $56 $-1 $0 1 #
lump $-1 $-1 $57 $0 #
transform $-1 1 0 0 0 1 0 0 0 1 46.805627613147372 28.042380397579961 12.285860912246418 1 rotate no_reflect no_shear #
display_attribute-st-attrib $-1 $58 $-1 $1 1 #
lump $-1 $-1 $59 $1 #
transform $-1 1 0 0 0 1 0 0 0 1 4.8927437164670806 28.042380397579961 21.840876437909863 1 rotate no_reflect no_shear #
display_attribute-st-attrib $-1 $60 $-1 $2 1 #
lump $-1 $-1 $61 $2 #
transform $-1 1 0 0 0 0.52991925155115449 -0.84804810408105047 0 0.84804810408105047 0.52991925155115449 22.633902502799735 105.75121384646982 118.63924934389058 1 rotate no_reflect no_shear #
display_attribute-st-attrib $-1 $62 $-1 $3 1 #
lump $-1 $-1 $63 $3 #
transform $-1 1 0 0 0 -0.52991925155115449 0.84804810408105047 0 -0.84804810408105047 -0.52991925155115449 20.185518472800315 53.557939481046589 22.047561197849554 1 rotate no_reflect no_shear #
display_attribute-st-attrib $-1 $64 $-1 $4 1 #
lump $-1 $-1 $65 $4 #
transform $-1 1 0 0 0 -0.52991925155115449 0.84804810408105047 0 -0.84804810408105047 -0.52991925155115449 25.082286532799156 53.557939481046589 22.047561197849554 1 rotate no_reflect no_shear #
display_attribute-st-attrib $-1 $66 $-1 $5 1 #
lump $-1 $-1 $67 $5 #
transform $-1 1 0 0 0 0.52991925155115449 -0.84804810408105047 0 0.84804810408105047 0.52991925155115449 43.590344451139885 105.75121384646982 118.63924934389058 1 rotate no_reflect no_shear #
display_attribute-st-attrib $-1 $68 $-1 $6 1 #
lump $-1 $-1 $69 $6 #
transform $-1 1 0 0 0 -0.52991925155115449 0.84804810408105047 0 -0.84804810408105047 -0.52991925155115449 41.14196042114046 53.557939481046589 22.047561197849554 1 rotate no_reflect no_shear #
display_attribute-st-attrib $-1 $70 $-1 $7 1 #
lump $-1 $-1 $71 $7 #
transform $-1 1 0 0 0 -0.52991925155115449 0.84804810408105047 0 -0.84804810408105047 -0.52991925155115449 46.038728481139302 53.557939481046589 22.047561197849554 1 rotate no_reflect no_shear #
display_attribute-st-attrib $-1 $72 $-1 $8 1 #
lump $-1 $-1 $73 $8 #
transform $-1 1 0 0 0 0.52991925155115449 -0.84804810408105047 0 0.84804810408105047 0.52991925155115449 64.546786399480027 105.75121384646982 118.63924934389058 1 rotate no_reflect no_shear #
display_attribute-st-attrib $-1 $74 $-1 $9 1 #
lump $-1 $-1 $75 $9 #
transform $-1 1 0 0 0 -0.52991925155115449 0.84804810408105047 0 -0.84804810408105047 -0.52991925155115449 62.09840236948061 53.557939481046589 22.047561197849554 1 rotate no_reflect no_shear #
display_attribute-st-attrib $-1 $76 $-1 $10 1 #
lump $-1 $-1 $77 $10 #
transform $-1 1 0 0 0 -0.52991925155115449 0.84804810408105047 0 -0.84804810408105047 -0.52991925155115449 66.995170429479444 53.557939481046589 22.047561197849554 1 rotate no_reflect no_shear #
display_attribute-st-attrib $-1 $78 $-1 $11 1 #
lump $-1 $-1 $79 $11 #
transform $-1 1 0 0 0 0.52991925155115449 -0.84804810408105047 0 0.84804810408105047 0.52991925155115449 85.503228347820169 105.75121384646982 118.63924934389058 1 rotate no_reflect no_shear #
display_attribute-st-attrib $-1 $80 $-1 $12 1 #
lump $-1 $-1 $81 $12 #
transform $-1 1 0 0 0 -0.52991925155115449 0.84804810408105047 0 -0.84804810408105047 -0.52991925155115449 83.054844317820752 53.557939481046589 22.047561197849554 1 rotate no_reflect no_shear #
display_attribute-st-attrib $-1 $82 $-1 $13 1 #
lump $-1 $-1 $83 $13 #
transform $-1 1 0 0 0 -0.52991925155115449 0.84804810408105047 0 -0.84804810408105047 -0.52991925155115449 87.951612377819586 53.557939481046589 22.047561197849554 1 rotate no_reflect no_shear #
id_attribute-st-attrib $-1 $-1 $14 $0 2 #
shell $-1 $-1 $-1 $84 $-1 $15 #
id_attribute-st-attrib $-1 $-1 $17 $1 7 #
shell $-1 $-1 $-1 $85 $-1 $18 #
id_attribute-st-attrib $-1 $-1 $20 $2 22 #
shell $-1 $-1 $-1 $86 $-1 $21 #
id_attribute-st-attrib $-1 $-1 $23 $3 30 #
shell $-1 $-1 $-1 $87 $-1 $24 #
id_attribute-st-attrib $-1 $-1 $26 $4 39 #
shell $-1 $-1 $-1 $88 $-1 $27 #
id_attribute-st-attrib $-1 $-1 $29 $5 52 #
shell $-1 $-1 $-1 $89 $-1 $30 #
id_attribute-st-attrib $-1 $-1 $32 $6 63 #
shell $-1 $-1 $-1 $90 $-1 $33 #
id_attribute-st-attrib $-1 $-1 $35 $7 75 #
shell $-1 $-1 $-1 $91 $-1 $36 #
id_attribute-st-attrib $-1 $-1 $38 $8 91 #
shell $-1 $-1 $-1 $92 $-1 $39 #
id_attribute-st-attrib $-1 $-1 $41 $9 105 #
shell $-1 $-1 $-1 $93 $-1 $42 #
id_attribute-st-attrib $-1 $-1 $44 $10 120 #
shell $-1 $-1 $-1 $94 $-1 $45 #
id_attribute-st-attrib $-1 $-1 $47 $11 136 #
shell $-1 $-1 $-1 $95 $-1 $48 #
id_attribute-st-attrib $-1 $-1 $50 $12 153 #
shell $-1 $-1 $-1 $96 $-1 $51 #
id_attribute-st-attrib $-1 $-1 $53 $13 171 #
shell $-1 $-1 $-1 $97 $-1 $54 #
face $-1 $98 $99 $57 $-1 $100 forward single #
face $-1 $101 $102 $59 $-1 $103 forward single #
face $-1 $104 $105 $61 $-1 $106 forward single #
face $-1 $107 $108 $63 $-1 $109 forward single #
face $-1 $110 $111 $65 $-1 $112 forward single #
face $-1 $113 $114 $67 $-1 $115 forward single #
face $-1 $116 $117 $69 $-1 $118 forward single #
face $-1 $119 $120 $71 $-1 $121 forward single #
face $-1 $122 $123 $73 $-1 $124 forward single #
face $-1 $125 $126 $75 $-1 $127 forward single #
face $-1 $128 $129 $77 $-1 $130 forward single #
face $-1 $131 $132 $79 $-1 $133 forward single #
face $-1 $134 $135 $81 $-1 $136 forward single #
face $-1 $137 $138 $83 $-1 $139 forward single #
face $-1 $140 $141 $57 $-1 $142 reversed single #
loop $-1 $-1 $143 $84 #
plane-surface $-1 0 0 12.285860912246418 0 0 1 1 0 0 forward_v I I I I #
face $-1 $144 $145 $59 $-1 $146 reversed single #
loop $-1 $-1 $147 $85 #
plane-surface $-1 0 0 2.7308453865829758 0 0 1 1 0 0 forward_v I I I I #
face $-1 $148 $149 $61 $-1 $150 reversed single #
loop $-1 $-1 $151 $86 #
plane-surface $-1 0 0 93.611255226294759 0 0 1 1 0 0 forward_v I I I I #
face $-1 $152 $153 $63 $-1 $154 forward single #
loop $-1 $155 $156 $87 #
cone-surface $-1 0 0 -1.0434736167485603 0 0 1 0.5 0 0 1 I I 0 1 forward I I I I #
face $-1 $157 $158 $65 $-1 $159 forward single #
loop $-1 $160 $161 $88 #
cone-surface $-1 0 0 -1.0434736167485603 0 0 1 0.5 0 0 1 I I 0 1 forward I I I I #
face $-1 $162 $163 $67 $-1 $164 reversed single #
loop $-1 $-1 $165 $89 #
plane-surface $-1 0 0 93.611255226294759 0 0 1 1 0 0 forward_v I I I I #
face $-1 $166 $167 $69 $-1 $168 forward single #
loop $-1 $169 $170 $90 #
cone-surface $-1 0 0 -1.0434736167485603 0 0 1 0.5 0 0 1 I I 0 1 forward I I I I #
face $-1 $171 $172 $71 $-1 $173 forward single #
loop $-1 $174 $175 $91 #
cone-surface $-1 0 0 -1.0434736167485603 0 0 1 0.5 0 0 1 I I 0 1 forward I I I I #
face $-1 $176 $177 $73 $-1 $178 reversed single #
loop $-1 $-1 $179 $92 #
plane-surface $-1 0 0 93.611255226294759 0 0 1 1 0 0 forward_v I I I I #
face $-1 $180 $181 $75 $-1 $182 forward single #
loop $-1 $183 $184 $93 #
cone-surface $-1 0 0 -1.0434736167485603 0 0 1 0.5 0 0 1 I I 0 1 forward I I I I #
face $-1 $185 $186 $77 $-1 $187 forward single #
loop $-1 $188 $189 $94 #
cone-surface $-1 0 0 -1.0434736167485603 0 0 1 0.5 0 0 1 I I 0 1 forward I I I I #
face $-1 $190 $191 $79 $-1 $192 reversed single #
loop $-1 $-1 $193 $95 #
plane-surface $-1 0 0 93.611255226294759 0 0 1 1 0 0 forward_v I I I I #
face $-1 $194 $195 $81 $-1 $196 forward single #
loop $-1 $197 $198 $96 #
cone-surface $-1 0 0 -1.0434736167485603 0 0 1 0.5 0 0 1 I I 0 1 forward I I I I #
face $-1 $199 $200 $83 $-1 $201 forward single #
loop $-1 $202 $203 $97 #
cone-surface $-1 0 0 -1.0434736167485603 0 0 1 0.5 0 0 1 I I 0 1 forward I I I I #
face $-1 $204 $205 $57 $-1 $206 reversed single #
loop $-1 $-1 $207 $98 #
plane-surface $-1 0 0 -12.285860912246418 0 0 1 1 0 0 forward_v I I I I #
coedge $-1 $208 $209 $210 $211 forward $99 $-1 #
face $-1 $212 $213 $59 $-1 $214 reversed single #
loop $-1 $-1 $215 $101 #
plane-surface $-1 0 0 -2.7308453865829758 0 0 1 1 0 0 forward_v I I I I #
coedge $-1 $216 $217 $218 $219 forward $102 $-1 #
face $-1 $220 $221 $61 $-1 $222 reversed single #
loop $-1 $-1 $223 $104 #
plane-surface $-1 0 0 -93.611255226294759 0 0 1 1 0 0 forward_v I I I I #
coedge $-1 $224 $225 $226 $227 forward $105 $-1 #
face $-1 $-1 $228 $63 $-1 $229 forward single #
loop $-1 $-1 $230 $107 #
plane-surface $-1 0 0 -1.8369472334971189 0 0 -1 -1 0 0 forward_v I I I I #
loop $-1 $-1 $231 $87 #
coedge $-1 $156 $156 $230 $232 reversed $108 $-1 #
face $-1 $-1 $233 $65 $-1 $234 forward single #
loop $-1 $-1 $235 $110 #
plane-surface $-1 0 0 -1.8369472334971189 0 0 -1 -1 0 0 forward_v I I I I #
loop $-1 $-1 $236 $88 #
coedge $-1 $161 $161 $235 $237 reversed $111 $-1 #
face $-1 $238 $239 $67 $-1 $240 reversed single #
loop $-1 $-1 $241 $113 #
plane-surface $-1 0 0 -93.611255226294759 0 0 1 1 0 0 forward_v I I I I #
coedge $-1 $242 $243 $244 $245 forward $114 $-1 #
face $-1 $-1 $246 $69 $-1 $247 forward single #
loop $-1 $-1 $248 $116 #
plane-surface $-1 0 0 -1.8369472334971189 0 0 -1 -1 0 0 forward_v I I I I #
loop $-1 $-1 $249 $90 #
coedge $-1 $170 $170 $248 $250 reversed $117 $-1 #
face $-1 $-1 $251 $71 $-1 $252 forward single #
loop $-1 $-1 $253 $119 #
plane-surface $-1 0 0 -1.8369472334971189 0 0 -1 -1 0 0 forward_v I I I I #
loop $-1 $-1 $254 $91 #
coedge $-1 $175 $175 $253 $255 reversed $120 $-1 #
face $-1 $256 $257 $73 $-1 $258 reversed single #
loop $-1 $-1 $259 $122 #
plane-surface $-1 0 0 -93.611255226294759 0 0 1 1 0 0 forward_v I I I I #
coedge $-1 $260 $261 $262 $263 forward $123 $-1 #
face $-1 $-1 $264 $75 $-1 $265 forward single #
loop $-1 $-1 $266 $125 #
plane-surface $-1 0 0 -1.8369472334971189 0 0 -1 -1 0 0 forward_v I I I I #
loop $-1 $-1 $267 $93 #
coedge $-1 $184 $184 $266 $268 reversed $126 $-1 #
face $-1 $-1 $269 $77 $-1 $270 forward single #
loop $-1 $-1 $271 $128 #
plane-surface $-1 0 0 -1.8369472334971189 0 0 -1 -1 0 0 forward_v I I I I #
loop $-1 $-1 $272 $94 #
coedge $-1 $189 $189 $271 $273 reversed $129 $-1 #
face $-1 $274 $275 $79 $-1 $276 reversed single #
loop $-1 $-1 $277 $131 #
plane-surface $-1 0 0 -93.611255226294759 0 0 1 1 0 0 forward_v I I I I #
coedge $-1 $278 $279 $280 $281 forward $132 $-1 #
face $-1 $-1 $282 $81 $-1 $283 forward single #
loop $-1 $-1 $284 $134 #
plane-surface $-1 0 0 -1.8369472334971189 0 0 -1 -1 0 0 forward_v I I I I #
loop $-1 $-1 $285 $96 #
coedge $-1 $198 $198 $284 $286 reversed $135 $-1 #
face $-1 $-1 $287 $83 $-1 $288 forward single #
loop $-1 $-1 $289 $137 #
plane-surface $-1 0 0 -1.8369472334971189 0 0 -1 -1 0 0 forward_v I I I I #
loop $-1 $-1 $290 $97 #
coedge $-1 $203 $203 $289 $291 reversed $138 $-1 #
face $-1 $292 $293 $57 $-1 $294 reversed single #
loop $-1 $-1 $295 $140 #
plane-surface $-1 0 -28.042380397579961 0 0 1 0 0 0 1 forward_v I I I I #
coedge $-1 $296 $297 $298 $299 forward $141 $-1 #
coedge $-1 $300 $143 $301 $302 forward $99 $-1 #
coedge $-1 $143 $300 $303 $304 forward $99 $-1 #
coedge $-1 $305 $306 $143 $211 reversed $307 $-1 #
edge $-1 $308 $309 $210 $310 forward #
face $-1 $311 $312 $59 $-1 $313 reversed single #
loop $-1 $-1 $314 $144 #
plane-surface $-1 0 -28.042380397579961 0 0 1 0 0 0 1 forward_v I I I I #
coedge $-1 $315 $316 $317 $318 forward $145 $-1 #
coedge $-1 $319 $147 $320 $321 forward $102 $-1 #
coedge $-1 $147 $319 $322 $323 forward $102 $-1 #
coedge $-1 $324 $325 $147 $219 reversed $326 $-1 #
edge $-1 $327 $328 $218 $329 forward #
face $-1 $330 $331 $61 $-1 $332 reversed single #
loop $-1 $-1 $333 $148 #
plane-surface $-1 0 -187.22251045258949 0 0 1 0 0 0 1 forward_v I I I I #
coedge $-1 $334 $335 $336 $337 forward $149 $-1 #
coedge $-1 $338 $151 $339 $340 forward $105 $-1 #
coedge $-1 $151 $338 $341 $342 forward $105 $-1 #
coedge $-1 $343 $344 $151 $227 reversed $345 $-1 #
edge $-1 $346 $347 $226 $348 forward #
loop $-1 $349 $350 $152 #
cone-surface $-1 0 0 0 0 0 1 0.25 0 0 1 I I -0.70710678118654746 0.70710678118654746 forward I I I I #
coedge $-1 $230 $230 $156 $232 forward $153 $-1 #
coedge $-1 $231 $231 $350 $351 forward $155 $-1 #
edge $-1 $352 $352 $230 $353 forward #
loop $-1 $354 $355 $157 #
cone-surface $-1 0 0 0 0 0 1 0.25 0 0 1 I I -0.70710678118654746 0.70710678118654746 forward I I I I #
coedge $-1 $235 $235 $161 $237 forward $158 $-1 #
coedge $-1 $236 $236 $355 $356 forward $160 $-1 #
edge $-1 $357 $357 $235 $358 forward #
face $-1 $359 $360 $67 $-1 $361 reversed single #
loop $-1 $-1 $362 $162 #
plane-surface $-1 0 -187.22251045258949 0 0 1 0 0 0 1 forward_v I I I I #
coedge $-1 $363 $364 $365 $366 forward $163 $-1 #
coedge $-1 $367 $165 $368 $369 forward $114 $-1 #
coedge $-1 $165 $367 $370 $371 forward $114 $-1 #
coedge $-1 $372 $373 $165 $245 reversed $374 $-1 #
edge $-1 $375 $376 $244 $377 forward #
loop $-1 $378 $379 $166 #
cone-surface $-1 0 0 0 0 0 1 0.25 0 0 1 I I -0.70710678118654746 0.70710678118654746 forward I I I I #
coedge $-1 $248 $248 $170 $250 forward $167 $-1 #
coedge $-1 $249 $249 $379 $380 forward $169 $-1 #
edge $-1 $381 $381 $248 $382 forward #
loop $-1 $383 $384 $171 #
cone-surface $-1 0 0 0 0 0 1 0.25 0 0 1 I I -0.70710678118654746 0.70710678118654746 forward I I I I #
coedge $-1 $253 $253 $175 $255 forward $172 $-1 #
coedge $-1 $254 $254 $384 $385 forward $174 $-1 #
edge $-1 $386 $386 $253 $387 forward #
face $-1 $388 $389 $73 $-1 $390 reversed single #
loop $-1 $-1 $391 $176 #
plane-surface $-1 0 -187.22251045258949 0 0 1 0 0 0 1 forward_v I I I I #
coedge $-1 $392 $393 $394 $395 forward $177 $-1 #
coedge $-1 $396 $179 $397 $398 forward $123 $-1 #
coedge $-1 $179 $396 $399 $400 forward $123 $-1 #
coedge $-1 $401 $402 $179 $263 reversed $403 $-1 #
edge $-1 $404 $405 $262 $406 forward #
loop $-1 $407 $408 $180 #
cone-surface $-1 0 0 0 0 0 1 0.25 0 0 1 I I -0.70710678118654746 0.70710678118654746 forward I I I I #
coedge $-1 $266 $266 $184 $268 forward $181 $-1 #
coedge $-1 $267 $267 $408 $409 forward $183 $-1 #
edge $-1 $410 $410 $266 $411 forward #
loop $-1 $412 $413 $185 #
cone-surface $-1 0 0 0 0 0 1 0.25 0 0 1 I I -0.70710678118654746 0.70710678118654746 forward I I I I #
coedge $-1 $271 $271 $189 $273 forward $186 $-1 #
coedge $-1 $272 $272 $413 $414 forward $188 $-1 #
edge $-1 $415 $415 $271 $416 forward #
face $-1 $417 $418 $79 $-1 $419 reversed single #
loop $-1 $-1 $420 $190 #
plane-surface $-1 0 -187.22251045258949 0 0 1 0 0 0 1 forward_v I I I I #
coedge $-1 $421 $422 $423 $424 forward $191 $-1 #
coedge $-1 $425 $193 $426 $427 forward $132 $-1 #
coedge $-1 $193 $425 $428 $429 forward $132 $-1 #
coedge $-1 $430 $431 $193 $281 reversed $432 $-1 #
edge $-1 $433 $434 $280 $435 forward #
loop $-1 $436 $437 $194 #
cone-surface $-1 0 0 0 0 0 1 0.25 0 0 1 I I -0.70710678118654746 0.70710678118654746 forward I I I I #
coedge $-1 $284 $284 $198 $286 forward $195 $-1 #
coedge $-1 $285 $285 $437 $438 forward $197 $-1 #
edge $-1 $439 $439 $284 $440 forward #
loop $-1 $441 $442 $199 #
cone-surface $-1 0 0 0 0 0 1 0.25 0 0 1 I I -0.70710678118654746 0.70710678118654746 forward I I I I #
coedge $-1 $289 $289 $203 $291 forward $200 $-1 #
coedge $-1 $290 $290 $442 $443 forward $202 $-1 #
edge $-1 $444 $444 $289 $445 forward #
face $-1 $446 $447 $57 $-1 $448 reversed single #
loop $-1 $-1 $449 $204 #
plane-surface $-1 -46.805627613147372 0 0 1 0 0 0 0 -1 forward_v I I I I #
coedge $-1 $450 $303 $451 $452 forward $205 $-1 #
coedge $-1 $453 $207 $450 $454 forward $141 $-1 #
coedge $-1 $207 $453 $455 $456 forward $141 $-1 #
coedge $-1 $306 $305 $207 $299 reversed $307 $-1 #
edge $-1 $457 $458 $298 $459 forward #
coedge $-1 $209 $208 $460 $461 forward $99 $-1 #
coedge $-1 $462 $463 $208 $302 reversed $447 $-1 #
edge $-1 $309 $464 $301 $465 forward #
coedge $-1 $295 $466 $209 $304 reversed $205 $-1 #
edge $-1 $467 $308 $303 $468 forward #
coedge $-1 $298 $210 $466 $469 forward $307 $-1 #
coedge $-1 $210 $298 $462 $470 reversed $307 $-1 #
loop $-1 $-1 $305 $446 #
vertex $-1 $211 $471 #
vertex $-1 $211 $472 #
straight-curve $-1 46.805627613147372 0 12.285860912246418 0 1 0 I I #
face $-1 $473 $474 $59 $-1 $475 reversed single #
loop $-1 $-1 $476 $212 #
plane-surface $-1 -4.8927437164670806 0 0 1 0 0 0 0 -1 forward_v I I I I #
coedge $-1 $477 $322 $478 $479 forward $213 $-1 #
coedge $-1 $480 $215 $477 $481 forward $145 $-1 #
coedge $-1 $215 $480 $482 $483 forward $145 $-1 #
coedge $-1 $325 $324 $215 $318 reversed $326 $-1 #
edge $-1 $484 $485 $317 $486 forward #
coedge $-1 $217 $216 $487 $488 forward $102 $-1 #
coedge $-1 $489 $490 $216 $321 reversed $474 $-1 #
edge $-1 $328 $491 $320 $492 forward #
coedge $-1 $314 $493 $217 $323 reversed $213 $-1 #
edge $-1 $494 $327 $322 $495 forward #
coedge $-1 $317 $218 $493 $496 forward $326 $-1 #
coedge $-1 $218 $317 $489 $497 reversed $326 $-1 #
loop $-1 $-1 $324 $473 #
vertex $-1 $219 $498 #
vertex $-1 $219 $499 #
straight-curve $-1 4.8927437164670806 0 2.7308453865829758 0 1 0 I I #
face $-1 $500 $501 $61 $-1 $502 reversed single #
loop $-1 $-1 $503 $220 #
plane-surface $-1 -5.7128960699986493 0 0 1 0 0 0 0 -1 forward_v I I I I #
coedge $-1 $504 $341 $505 $506 forward $221 $-1 #
coedge $-1 $507 $223 $504 $508 forward $149 $-1 #
coedge $-1 $223 $507 $509 $510 forward $149 $-1 #
coedge $-1 $344 $343 $223 $337 reversed $345 $-1 #
edge $-1 $511 $512 $336 $513 forward #
coedge $-1 $225 $224 $514 $515 forward $105 $-1 #
coedge $-1 $516 $517 $224 $340 reversed $501 $-1 #
edge $-1 $347 $518 $339 $519 forward #
coedge $-1 $333 $520 $225 $342 reversed $221 $-1 #
edge $-1 $521 $346 $341 $522 forward #
coedge $-1 $336 $226 $520 $523 forward $345 $-1 #
coedge $-1 $226 $336 $516 $524 reversed $345 $-1 #
loop $-1 $-1 $343 $500 #
vertex $-1 $227 $525 #
vertex $-1 $227 $526 #
straight-curve $-1 5.7128960699986493 0 93.611255226294759 0 1 0 I I #
loop $-1 $-1 $527 $152 #
coedge $-1 $350 $350 $231 $351 reversed $228 $-1 #
edge $-1 $528 $528 $350 $529 forward #
vertex $-1 $232 $530 #
ellipse-curve $-1 0 0 -1.8369472334971189 0 0 -1 0.5 0 0 1 I I #
loop $-1 $-1 $531 $157 #
coedge $-1 $355 $355 $236 $356 reversed $233 $-1 #
edge $-1 $532 $532 $355 $533 forward #
vertex $-1 $237 $534 #
ellipse-curve $-1 0 0 -1.8369472334971189 0 0 -1 0.5 0 0 1 I I #
face $-1 $535 $536 $67 $-1 $537 reversed single #
loop $-1 $-1 $538 $238 #
plane-surface $-1 -5.7128960699986493 0 0 1 0 0 0 0 -1 forward_v I I I I #
coedge $-1 $539 $370 $540 $541 forward $239 $-1 #
coedge $-1 $542 $241 $539 $543 forward $163 $-1 #
coedge $-1 $241 $542 $544 $545 forward $163 $-1 #
coedge $-1 $373 $372 $241 $366 reversed $374 $-1 #
edge $-1 $546 $547 $365 $548 forward #
coedge $-1 $243 $242 $549 $550 forward $114 $-1 #
coedge $-1 $551 $552 $242 $369 reversed $536 $-1 #
edge $-1 $376 $553 $368 $554 forward #
coedge $-1 $362 $555 $243 $371 reversed $239 $-1 #
edge $-1 $556 $375 $370 $557 forward #
coedge $-1 $365 $244 $555 $558 forward $374 $-1 #
coedge $-1 $244 $365 $551 $559 reversed $374 $-1 #
loop $-1 $-1 $372 $535 #
vertex $-1 $245 $560 #
vertex $-1 $245 $561 #
straight-curve $-1 5.7128960699986493 0 93.611255226294759 0 1 0 I I #
loop $-1 $-1 $562 $166 #
coedge $-1 $379 $379 $249 $380 reversed $246 $-1 #
edge $-1 $563 $563 $379 $564 forward #
vertex $-1 $250 $565 #
ellipse-curve $-1 0 0 -1.8369472334971189 0 0 -1 0.5 0 0 1 I I #
loop $-1 $-1 $566 $171 #
coedge $-1 $384 $384 $254 $385 reversed $251 $-1 #
edge $-1 $567 $567 $384 $568 forward #
vertex $-1 $255 $569 #
ellipse-curve $-1 0 0 -1.8369472334971189 0 0 -1 0.5 0 0 1 I I #
face $-1 $570 $571 $73 $-1 $572 reversed single #
loop $-1 $-1 $573 $256 #
plane-surface $-1 -5.7128960699986493 0 0 1 0 0 0 0 -1 forward_v I I I I #
coedge $-1 $574 $399 $575 $576 forward $257 $-1 #
coedge $-1 $577 $259 $574 $578 forward $177 $-1 #
coedge $-1 $259 $577 $579 $580 forward $177 $-1 #
coedge $-1 $402 $401 $259 $395 reversed $403 $-1 #
edge $-1 $581 $582 $394 $583 forward #
coedge $-1 $261 $260 $584 $585 forward $123 $-1 #
coedge $-1 $586 $587 $260 $398 reversed $571 $-1 #
edge $-1 $405 $588 $397 $589 forward #
coedge $-1 $391 $590 $261 $400 reversed $257 $-1 #
edge $-1 $591 $404 $399 $592 forward #
coedge $-1 $394 $262 $590 $593 forward $403 $-1 #
coedge $-1 $262 $394 $586 $594 reversed $403 $-1 #
loop $-1 $-1 $401 $570 #
vertex $-1 $263 $595 #
vertex $-1 $263 $596 #
straight-curve $-1 5.7128960699986493 0 93.611255226294759 0 1 0 I I #
loop $-1 $-1 $597 $180 #
coedge $-1 $408 $408 $267 $409 reversed $264 $-1 #
edge $-1 $598 $598 $408 $599 forward #
vertex $-1 $268 $600 #
ellipse-curve $-1 0 0 -1.8369472334971189 0 0 -1 0.5 0 0 1 I I #
loop $-1 $-1 $601 $185 #
coedge $-1 $413 $413 $272 $414 reversed $269 $-1 #
edge $-1 $602 $602 $413 $603 forward #
vertex $-1 $273 $604 #
ellipse-curve $-1 0 0 -1.8369472334971189 0 0 -1 0.5 0 0 1 I I #
face $-1 $605 $606 $79 $-1 $607 reversed single #
loop $-1 $-1 $608 $274 #
plane-surface $-1 -5.7128960699986493 0 0 1 0 0 0 0 -1 forward_v I I I I #
coedge $-1 $609 $428 $610 $611 forward $275 $-1 #
coedge $-1 $612 $277 $609 $613 forward $191 $-1 #
coedge $-1 $277 $612 $614 $615 forward $191 $-1 #
coedge $-1 $431 $430 $277 $424 reversed $432 $-1 #
edge $-1 $616 $617 $423 $618 forward #
coedge $-1 $279 $278 $619 $620 forward $132 $-1 #
coedge $-1 $621 $622 $278 $427 reversed $606 $-1 #
edge $-1 $434 $623 $426 $624 forward #
coedge $-1 $420 $625 $279 $429 reversed $275 $-1 #
edge $-1 $626 $433 $428 $627 forward #
coedge $-1 $423 $280 $625 $628 forward $432 $-1 #
coedge $-1 $280 $423 $621 $629 reversed $432 $-1 #
loop $-1 $-1 $430 $605 #
vertex $-1 $281 $630 #
vertex $-1 $281 $631 #
straight-curve $-1 5.7128960699986493 0 93.611255226294759 0 1 0 I I #
loop $-1 $-1 $632 $194 #
coedge $-1 $437 $437 $285 $438 reversed $282 $-1 #
edge $-1 $633 $633 $437 $634 forward #
vertex $-1 $286 $635 #
ellipse-curve $-1 0 0 -1.8369472334971189 0 0 -1 0.5 0 0 1 I I #
loop $-1 $-1 $636 $199 #
coedge $-1 $442 $442 $290 $443 reversed $287 $-1 #
edge $-1 $637 $637 $442 $638 forward #
vertex $-1 $291 $639 #
ellipse-curve $-1 0 0 -1.8369472334971189 0 0 -1 0.5 0 0 1 I I #
face $-1 $-1 $307 $57 $-1 $640 reversed single #
loop $-1 $-1 $462 $292 #
plane-surface $-1 0 28.042380397579961 0 0 -1 0 0 0 -1 forward_v I I I I #
coedge $-1 $641 $460 $463 $642 forward $293 $-1 #
coedge $-1 $466 $295 $296 $454 reversed $205 $-1 #
coedge $-1 $460 $641 $295 $452 reversed $293 $-1 #
edge $-1 $467 $643 $451 $644 forward #
coedge $-1 $297 $296 $641 $645 forward $141 $-1 #
edge $-1 $458 $643 $450 $646 forward #
coedge $-1 $463 $462 $297 $456 reversed $447 $-1 #
edge $-1 $647 $457 $455 $648 forward #
vertex $-1 $299 $649 #
vertex $-1 $469 $650 #
straight-curve $-1 46.805627613147372 0 -12.285860912246418 0 -1 0 I I #
coedge $-1 $449 $451 $300 $461 reversed $293 $-1 #
edge $-1 $464 $467 $460 $651 forward #
coedge $-1 $455 $301 $306 $470 forward $447 $-1 #
coedge $-1 $301 $455 $449 $642 reversed $447 $-1 #
vertex $-1 $302 $652 #
straight-curve $-1 0 28.042380397579961 12.285860912246418 -1 0 0 I I #
coedge $-1 $303 $450 $305 $469 reversed $205 $-1 #
vertex $-1 $461 $653 #
straight-curve $-1 0 -28.042380397579961 12.285860912246418 1 0 0 I I #
edge $-1 $308 $458 $305 $654 forward #
edge $-1 $309 $457 $306 $655 forward #
point $-1 46.805627613147372 -28.042380397579961 12.285860912246418 #
point $-1 46.805627613147372 28.042380397579961 12.285860912246418 #
face $-1 $-1 $326 $59 $-1 $656 reversed single #
loop $-1 $-1 $489 $311 #
plane-surface $-1 0 28.042380397579961 0 0 -1 0 0 0 -1 forward_v I I I I #
coedge $-1 $657 $487 $490 $658 forward $312 $-1 #
coedge $-1 $493 $314 $315 $481 reversed $213 $-1 #
coedge $-1 $487 $657 $314 $479 reversed $312 $-1 #
edge $-1 $494 $659 $478 $660 forward #
coedge $-1 $316 $315 $657 $661 forward $145 $-1 #
edge $-1 $485 $659 $477 $662 forward #
coedge $-1 $490 $489 $316 $483 reversed $474 $-1 #
edge $-1 $663 $484 $482 $664 forward #
vertex $-1 $318 $665 #
vertex $-1 $496 $666 #
straight-curve $-1 4.8927437164670806 0 -2.7308453865829758 0 -1 0 I I #
coedge $-1 $476 $478 $319 $488 reversed $312 $-1 #
edge $-1 $491 $494 $487 $667 forward #
coedge $-1 $482 $320 $325 $497 forward $474 $-1 #
coedge $-1 $320 $482 $476 $658 reversed $474 $-1 #
vertex $-1 $321 $668 #
straight-curve $-1 0 28.042380397579961 2.7308453865829758 -1 0 0 I I #
coedge $-1 $322 $477 $324 $496 reversed $213 $-1 #
vertex $-1 $488 $669 #
straight-curve $-1 0 -28.042380397579961 2.7308453865829758 1 0 0 I I #
edge $-1 $327 $485 $324 $670 forward #
edge $-1 $328 $484 $325 $671 forward #
point $-1 4.8927437164670806 -28.042380397579961 2.7308453865829758 #
point $-1 4.8927437164670806 28.042380397579961 2.7308453865829758 #
face $-1 $-1 $345 $61 $-1 $672 reversed single #
loop $-1 $-1 $516 $330 #
plane-surface $-1 0 187.22251045258949 0 0 -1 0 0 0 -1 forward_v I I I I #
coedge $-1 $673 $514 $517 $674 forward $331 $-1 #
coedge $-1 $520 $333 $334 $508 reversed $221 $-1 #
coedge $-1 $514 $673 $333 $506 reversed $331 $-1 #
edge $-1 $521 $675 $505 $676 forward #
coedge $-1 $335 $334 $673 $677 forward $149 $-1 #
edge $-1 $512 $675 $504 $678 forward #
coedge $-1 $517 $516 $335 $510 reversed $501 $-1 #
edge $-1 $679 $511 $509 $680 forward #
vertex $-1 $337 $681 #
vertex $-1 $523 $682 #
straight-curve $-1 5.7128960699986493 0 -93.611255226294759 0 -1 0 I I #
coedge $-1 $503 $505 $338 $515 reversed $331 $-1 #
edge $-1 $518 $521 $514 $683 forward #
coedge $-1 $509 $339 $344 $524 forward $501 $-1 #
coedge $-1 $339 $509 $503 $674 reversed $501 $-1 #
vertex $-1 $340 $684 #
straight-curve $-1 0 187.22251045258949 93.611255226294759 -1 0 0 I I #
coedge $-1 $341 $504 $343 $523 reversed $221 $-1 #
vertex $-1 $515 $685 #
straight-curve $-1 0 -187.22251045258949 93.611255226294759 1 0 0 I I #
edge $-1 $346 $512 $343 $686 forward #
edge $-1 $347 $511 $344 $687 forward #
point $-1 5.7128960699986493 -187.22251045258949 93.611255226294759 #
point $-1 5.7128960699986493 187.22251045258949 93.611255226294759 #
coedge $-1 $527 $527 $-1 $688 reversed $349 $-1 #
vertex $-1 $351 $689 #
ellipse-curve $-1 0 0 -0.25 0 0 -1 0.5 0 0 1 I I #
point $-1 0.5 0 -1.8369472334971189 #
coedge $-1 $531 $531 $-1 $690 reversed $354 $-1 #
vertex $-1 $356 $691 #
ellipse-curve $-1 0 0 -0.25 0 0 -1 0.5 0 0 1 I I #
point $-1 0.5 0 -1.8369472334971189 #
face $-1 $-1 $374 $67 $-1 $692 reversed single #
loop $-1 $-1 $551 $359 #
plane-surface $-1 0 187.22251045258949 0 0 -1 0 0 0 -1 forward_v I I I I #
coedge $-1 $693 $549 $552 $694 forward $360 $-1 #
coedge $-1 $555 $362 $363 $543 reversed $239 $-1 #
coedge $-1 $549 $693 $362 $541 reversed $360 $-1 #
edge $-1 $556 $695 $540 $696 forward #
coedge $-1 $364 $363 $693 $697 forward $163 $-1 #
edge $-1 $547 $695 $539 $698 forward #
coedge $-1 $552 $551 $364 $545 reversed $536 $-1 #
edge $-1 $699 $546 $544 $700 forward #
vertex $-1 $366 $701 #
vertex $-1 $558 $702 #
straight-curve $-1 5.7128960699986493 0 -93.611255226294759 0 -1 0 I I #
coedge $-1 $538 $540 $367 $550 reversed $360 $-1 #
edge $-1 $553 $556 $549 $703 forward #
coedge $-1 $544 $368 $373 $559 forward $536 $-1 #
coedge $-1 $368 $544 $538 $694 reversed $536 $-1 #
vertex $-1 $369 $704 #
straight-curve $-1 0 187.22251045258949 93.611255226294759 -1 0 0 I I #
coedge $-1 $370 $539 $372 $558 reversed $239 $-1 #
vertex $-1 $550 $705 #
straight-curve $-1 0 -187.22251045258949 93.611255226294759 1 0 0 I I #
edge $-1 $375 $547 $372 $706 forward #
edge $-1 $376 $546 $373 $707 forward #
point $-1 5.7128960699986493 -187.22251045258949 93.611255226294759 #
point $-1 5.7128960699986493 187.22251045258949 93.611255226294759 #
coedge $-1 $562 $562 $-1 $708 reversed $378 $-1 #
vertex $-1 $380 $709 #
ellipse-curve $-1 0 0 -0.25 0 0 -1 0.5 0 0 1 I I #
point $-1 0.5 0 -1.8369472334971189 #
coedge $-1 $566 $566 $-1 $710 reversed $383 $-1 #
vertex $-1 $385 $711 #
ellipse-curve $-1 0 0 -0.25 0 0 -1 0.5 0 0 1 I I #
point $-1 0.5 0 -1.8369472334971189 #
face $-1 $-1 $403 $73 $-1 $712 reversed single #
loop $-1 $-1 $586 $388 #
plane-surface $-1 0 187.22251045258949 0 0 -1 0 0 0 -1 forward_v I I I I #
coedge $-1 $713 $584 $587 $714 forward $389 $-1 #
coedge $-1 $590 $391 $392 $578 reversed $257 $-1 #
coedge $-1 $584 $713 $391 $576 reversed $389 $-1 #
edge $-1 $591 $715 $575 $716 forward #
coedge $-1 $393 $392 $713 $717 forward $177 $-1 #
edge $-1 $582 $715 $574 $718 forward #
coedge $-1 $587 $586 $393 $580 reversed $571 $-1 #
edge $-1 $719 $581 $579 $720 forward #
vertex $-1 $395 $721 #
vertex $-1 $593 $722 #
straight-curve $-1 5.7128960699986493 0 -93.611255226294759 0 -1 0 I I #
coedge $-1 $573 $575 $396 $585 reversed $389 $-1 #
edge $-1 $588 $591 $584 $723 forward #
coedge $-1 $579 $397 $402 $594 forward $571 $-1 #
coedge $-1 $397 $579 $573 $714 reversed $571 $-1 #
vertex $-1 $398 $724 #
straight-curve $-1 0 187.22251045258949 93.611255226294759 -1 0 0 I I #
coedge $-1 $399 $574 $401 $593 reversed $257 $-1 #
vertex $-1 $585 $725 #
straight-curve $-1 0 -187.22251045258949 93.611255226294759 1 0 0 I I #
edge $-1 $404 $582 $401 $726 forward #
edge $-1 $405 $581 $402 $727 forward #
point $-1 5.7128960699986493 -187.22251045258949 93.611255226294759 #
point $-1 5.7128960699986493 187.22251045258949 93.611255226294759 #
coedge $-1 $597 $597 $-1 $728 reversed $407 $-1 #
vertex $-1 $409 $729 #
ellipse-curve $-1 0 0 -0.25 0 0 -1 0.5 0 0 1 I I #
point $-1 0.5 0 -1.8369472334971189 #
coedge $-1 $601 $601 $-1 $730 reversed $412 $-1 #
vertex $-1 $414 $731 #
ellipse-curve $-1 0 0 -0.25 0 0 -1 0.5 0 0 1 I I #
point $-1 0.5 0 -1.8369472334971189 #
face $-1 $-1 $432 $79 $-1 $732 reversed single #
loop $-1 $-1 $621 $417 #
plane-surface $-1 0 187.22251045258949 0 0 -1 0 0 0 -1 forward_v I I I I #
coedge $-1 $733 $619 $622 $734 forward $418 $-1 #
coedge $-1 $625 $420 $421 $613 reversed $275 $-1 #
coedge $-1 $619 $733 $420 $611 reversed $418 $-1 #
edge $-1 $626 $735 $610 $736 forward #
coedge $-1 $422 $421 $733 $737 forward $191 $-1 #
edge $-1 $617 $735 $609 $738 forward #
coedge $-1 $622 $621 $422 $615 reversed $606 $-1 #
edge $-1 $739 $616 $614 $740 forward #
vertex $-1 $424 $741 #
vertex $-1 $628 $742 #
straight-curve $-1 5.7128960699986493 0 -93.611255226294759 0 -1 0 I I #
coedge $-1 $608 $610 $425 $620 reversed $418 $-1 #
edge $-1 $623 $626 $619 $743 forward #
coedge $-1 $614 $426 $431 $629 forward $606 $-1 #
coedge $-1 $426 $614 $608 $734 reversed $606 $-1 #
vertex $-1 $427 $744 #
straight-curve $-1 0 187.22251045258949 93.611255226294759 -1 0 0 I I #
coedge $-1 $428 $609 $430 $628 reversed $275 $-1 #
vertex $-1 $620 $745 #
straight-curve $-1 0 -187.22251045258949 93.611255226294759 1 0 0 I I #
edge $-1 $433 $617 $430 $746 forward #
edge $-1 $434 $616 $431 $747 forward #
point $-1 5.7128960699986493 -187.22251045258949 93.611255226294759 #
point $-1 5.7128960699986493 187.22251045258949 93.611255226294759 #
coedge $-1 $632 $632 $-1 $748 reversed $436 $-1 #
vertex $-1 $438 $749 #
ellipse-curve $-1 0 0 -0.25 0 0 -1 0.5 0 0 1 I I #
point $-1 0.5 0 -1.8369472334971189 #
coedge $-1 $636 $636 $-1 $750 reversed $441 $-1 #
vertex $-1 $443 $751 #
ellipse-curve $-1 0 0 -0.25 0 0 -1 0.5 0 0 1 I I #
point $-1 0.5 0 -1.8369472334971189 #
plane-surface $-1 46.805627613147372 0 0 -1 0 0 0 0 1 forward_v I I I I #
coedge $-1 $451 $449 $453 $645 reversed $293 $-1 #
edge $-1 $464 $647 $463 $752 forward #
vertex $-1 $645 $753 #
straight-curve $-1 -46.805627613147372 -28.042380397579961 0 0 0 -1 I I #
edge $-1 $643 $647 $641 $754 forward #
straight-curve $-1 0 -28.042380397579961 -12.285860912246418 -1 0 0 I I #
vertex $-1 $456 $755 #
straight-curve $-1 0 28.042380397579961 -12.285860912246418 1 0 0 I I #
point $-1 46.805627613147372 28.042380397579961 -12.285860912246418 #
point $-1 46.805627613147372 -28.042380397579961 -12.285860912246418 #
straight-curve $-1 -46.805627613147372 0 12.285860912246418 0 -1 0 I I #
point $-1 -46.805627613147372 28.042380397579961 12.285860912246418 #
point $-1 -46.805627613147372 -28.042380397579961 12.285860912246418 #
straight-curve $-1 46.805627613147372 -28.042380397579961 0 0 0 -1 I I #
straight-curve $-1 46.805627613147372 28.042380397579961 0 0 0 -1 I I #
plane-surface $-1 4.8927437164670806 0 0 -1 0 0 0 0 1 forward_v I I I I #
coedge $-1 $478 $476 $480 $661 reversed $312 $-1 #
edge $-1 $491 $663 $490 $756 forward #
vertex $-1 $661 $757 #
straight-curve $-1 -4.8927437164670806 -28.042380397579961 0 0 0 -1 I I #
edge $-1 $659 $663 $657 $758 forward #
straight-curve $-1 0 -28.042380397579961 -2.7308453865829758 -1 0 0 I I #
vertex $-1 $483 $759 #
straight-curve $-1 0 28.042380397579961 -2.7308453865829758 1 0 0 I I #
point $-1 4.8927437164670806 28.042380397579961 -2.7308453865829758 #
point $-1 4.8927437164670806 -28.042380397579961 -2.7308453865829758 #
straight-curve $-1 -4.8927437164670806 0 2.7308453865829758 0 -1 0 I I #
point $-1 -4.8927437164670806 28.042380397579961 2.7308453865829758 #
point $-1 -4.8927437164670806 -28.042380397579961 2.7308453865829758 #
straight-curve $-1 4.8927437164670806 -28.042380397579961 0 0 0 -1 I I #
straight-curve $-1 4.8927437164670806 28.042380397579961 0 0 0 -1 I I #
plane-surface $-1 5.7128960699986493 0 0 -1 0 0 0 0 1 forward_v I I I I #
coedge $-1 $505 $503 $507 $677 reversed $331 $-1 #
edge $-1 $518 $679 $517 $760 forward #
vertex $-1 $677 $761 #
straight-curve $-1 -5.7128960699986493 -187.22251045258949 0 0 0 -1 I I #
edge $-1 $675 $679 $673 $762 forward #
straight-curve $-1 0 -187.22251045258949 -93.611255226294759 -1 0 0 I I #
vertex $-1 $510 $763 #
straight-curve $-1 0 187.22251045258949 -93.611255226294759 1 0 0 I I #
point $-1 5.7128960699986493 187.22251045258949 -93.611255226294759 #
point $-1 5.7128960699986493 -187.22251045258949 -93.611255226294759 #
straight-curve $-1 -5.7128960699986493 0 93.611255226294759 0 -1 0 I I #
point $-1 -5.7128960699986493 187.22251045258949 93.611255226294759 #
point $-1 -5.7128960699986493 -187.22251045258949 93.611255226294759 #
straight-curve $-1 5.7128960699986493 -187.22251045258949 0 0 0 -1 I I #
straight-curve $-1 5.7128960699986493 187.22251045258949 0 0 0 -1 I I #
edge $-1 $764 $764 $527 $-1 forward #
point $-1 0.5 0 -0.25 #
edge $-1 $765 $765 $531 $-1 forward #
point $-1 0.5 0 -0.25 #
plane-surface $-1 5.7128960699986493 0 0 -1 0 0 0 0 1 forward_v I I I I #
coedge $-1 $540 $538 $542 $697 reversed $360 $-1 #
edge $-1 $553 $699 $552 $766 forward #
vertex $-1 $697 $767 #
straight-curve $-1 -5.7128960699986493 -187.22251045258949 0 0 0 -1 I I #
edge $-1 $695 $699 $693 $768 forward #
straight-curve $-1 0 -187.22251045258949 -93.611255226294759 -1 0 0 I I #
vertex $-1 $545 $769 #
straight-curve $-1 0 187.22251045258949 -93.611255226294759 1 0 0 I I #
point $-1 5.7128960699986493 187.22251045258949 -93.611255226294759 #
point $-1 5.7128960699986493 -187.22251045258949 -93.611255226294759 #
straight-curve $-1 -5.7128960699986493 0 93.611255226294759 0 -1 0 I I #
point $-1 -5.7128960699986493 187.22251045258949 93.611255226294759 #
point $-1 -5.7128960699986493 -187.22251045258949 93.611255226294759 #
straight-curve $-1 5.7128960699986493 -187.22251045258949 0 0 0 -1 I I #
straight-curve $-1 5.7128960699986493 187.22251045258949 0 0 0 -1 I I #
edge $-1 $770 $770 $562 $-1 forward #
point $-1 0.5 0 -0.25 #
edge $-1 $771 $771 $566 $-1 forward #
point $-1 0.5 0 -0.25 #
plane-surface $-1 5.7128960699986493 0 0 -1 0 0 0 0 1 forward_v I I I I #
coedge $-1 $575 $573 $577 $717 reversed $389 $-1 #
edge $-1 $588 $719 $587 $772 forward #
vertex $-1 $717 $773 #
straight-curve $-1 -5.7128960699986493 -187.22251045258949 0 0 0 -1 I I #
edge $-1 $715 $719 $713 $774 forward #
straight-curve $-1 0 -187.22251045258949 -93.611255226294759 -1 0 0 I I #
vertex $-1 $580 $775 #
straight-curve $-1 0 187.22251045258949 -93.611255226294759 1 0 0 I I #
point $-1 5.7128960699986493 187.22251045258949 -93.611255226294759 #
point $-1 5.7128960699986493 -187.22251045258949 -93.611255226294759 #
straight-curve $-1 -5.7128960699986493 0 93.611255226294759 0 -1 0 I I #
point $-1 -5.7128960699986493 187.22251045258949 93.611255226294759 #
point $-1 -5.7128960699986493 -187.22251045258949 93.611255226294759 #
straight-curve $-1 5.7128960699986493 -187.22251045258949 0 0 0 -1 I I #
straight-curve $-1 5.7128960699986493 187.22251045258949 0 0 0 -1 I I #
edge $-1 $776 $776 $597 $-1 forward #
point $-1 0.5 0 -0.25 #
edge $-1 $777 $777 $601 $-1 forward #
point $-1 0.5 0 -0.25 #
plane-surface $-1 5.7128960699986493 0 0 -1 0 0 0 0 1 forward_v I I I I #
coedge $-1 $610 $608 $612 $737 reversed $418 $-1 #
edge $-1 $623 $739 $622 $778 forward #
vertex $-1 $737 $779 #
straight-curve $-1 -5.7128960699986493 -187.22251045258949 0 0 0 -1 I I #
edge $-1 $735 $739 $733 $780 forward #
straight-curve $-1 0 -187.22251045258949 -93.611255226294759 -1 0 0 I I #
vertex $-1 $615 $781 #
straight-curve $-1 0 187.22251045258949 -93.611255226294759 1 0 0 I I #
point $-1 5.7128960699986493 187.22251045258949 -93.611255226294759 #
point $-1 5.7128960699986493 -187.22251045258949 -93.611255226294759 #
straight-curve $-1 -5.7128960699986493 0 93.611255226294759 0 -1 0 I I #
point $-1 -5.7128960699986493 187.22251045258949 93.611255226294759 #
point $-1 -5.7128960699986493 -187.22251045258949 93.611255226294759 #
straight-curve $-1 5.7128960699986493 -187.22251045258949 0 0 0 -1 I I #
straight-curve $-1 5.7128960699986493 187.22251045258949 0 0 0 -1 I I #
edge $-1 $782 $782 $632 $-1 forward #
point $-1 0.5 0 -0.25 #
edge $-1 $783 $783 $636 $-1 forward #
point $-1 0.5 0 -0.25 #
straight-curve $-1 -46.805627613147372 28.042380397579961 0 0 0 -1 I I #
point $-1 -46.805627613147372 -28.042380397579961 -12.285860912246418 #
straight-curve $-1 -46.805627613147372 0 -12.285860912246418 0 1 0 I I #
point $-1 -46.805627613147372 28.042380397579961 -12.285860912246418 #
straight-curve $-1 -4.8927437164670806 28.042380397579961 0 0 0 -1 I I #
point $-1 -4.8927437164670806 -28.042380397579961 -2.7308453865829758 #
straight-curve $-1 -4.8927437164670806 0 -2.7308453865829758 0 1 0 I I #
point $-1 -4.8927437164670806 28.042380397579961 -2.7308453865829758 #
straight-curve $-1 -5.7128960699986493 187.22251045258949 0 0 0 -1 I I #
point $-1 -5.7128960699986493 -187.22251045258949 -93.611255226294759 #
straight-curve $-1 -5.7128960699986493 0 -93.611255226294759 0 1 0 I I #
point $-1 -5.7128960699986493 187.22251045258949 -93.611255226294759 #
vertex $-1 $688 $784 #
vertex $-1 $690 $785 #
straight-curve $-1 -5.7128960699986493 187.22251045258949 0 0 0 -1 I I #
point $-1 -5.7128960699986493 -187.22251045258949 -93.611255226294759 #
straight-curve $-1 -5.7128960699986493 0 -93.611255226294759 0 1 0 I I #
point $-1 -5.7128960699986493 187.22251045258949 -93.611255226294759 #
vertex $-1 $708 $786 #
vertex $-1 $710 $787 #
straight-curve $-1 -5.7128960699986493 187.22251045258949 0 0 0 -1 I I #
point $-1 -5.7128960699986493 -187.22251045258949 -93.611255226294759 #
straight-curve $-1 -5.7128960699986493 0 -93.611255226294759 0 1 0 I I #
point $-1 -5.7128960699986493 187.22251045258949 -93.611255226294759 #
vertex $-1 $728 $788 #
vertex $-1 $730 $789 #
straight-curve $-1 -5.7128960699986493 187.22251045258949 0 0 0 -1 I I #
point $-1 -5.7128960699986493 -187.22251045258949 -93.611255226294759 #
straight-curve $-1 -5.7128960699986493 0 -93.611255226294759 0 1 0 I I #
point $-1 -5.7128960699986493 187.22251045258949 -93.611255226294759 #
vertex $-1 $748 $790 #
vertex $-1 $750 $791 #
point $-1 0 0 0.25 #
point $-1 0 0 0.25 #
point $-1 0 0 0.25 #
point $-1 0 0 0.25 #
point $-1 0 0 0.25 #
point $-1 0 0 0.25 #
point $-1 0 0 0.25 #
point $-1 0 0 0.25 #
End-of-ACIS-data 