600 0 9 0           
96 GICL ACIS Healer - Source: /gicl/data5/repository/Drexel/SM99-DATA/part126.smdg.deltas.sat - 6 0 18 ACIS 6.0.3 Solaris 24 Sat Apr 13 20:45:32 2002 
1 9.999999999999999547e-07 1.000000000000000036e-10 
body $-1 $9 $-1 $-1 #
body $-1 $10 $-1 $-1 #
body $-1 $11 $-1 $-1 #
body $-1 $12 $-1 $-1 #
body $-1 $13 $-1 $-1 #
body $-1 $14 $-1 $-1 #
body $-1 $15 $-1 $-1 #
body $-1 $16 $-1 $-1 #
body $-1 $17 $-1 $-1 #
lump $-1 $-1 $18 $0 #
lump $-1 $-1 $19 $1 #
lump $-1 $-1 $20 $2 #
lump $-1 $-1 $21 $3 #
lump $-1 $-1 $22 $4 #
lump $-1 $-1 $23 $5 #
lump $-1 $-1 $24 $6 #
lump $-1 $-1 $25 $7 #
lump $-1 $-1 $26 $8 #
shell $-1 $-1 $-1 $27 $-1 $9 #
shell $-1 $-1 $-1 $28 $-1 $10 #
shell $-1 $-1 $-1 $29 $-1 $11 #
shell $-1 $-1 $-1 $30 $-1 $12 #
shell $-1 $-1 $-1 $31 $-1 $13 #
shell $-1 $-1 $-1 $32 $-1 $14 #
shell $-1 $-1 $-1 $33 $-1 $15 #
shell $-1 $-1 $-1 $34 $-1 $16 #
shell $-1 $-1 $-1 $35 $-1 $17 #
face $-1 $36 $37 $18 $-1 $38 forward single #
face $-1 $39 $40 $19 $-1 $41 forward single #
face $-1 $42 $43 $20 $-1 $44 forward single #
face $-1 $45 $46 $21 $-1 $47 reversed single #
face $-1 $48 $49 $22 $-1 $50 forward single #
face $-1 $51 $52 $23 $-1 $53 forward single #
face $-1 $54 $55 $24 $-1 $56 reversed single #
face $-1 $57 $58 $25 $-1 $59 forward single #
face $-1 $60 $61 $26 $-1 $62 forward single #
face $-1 $63 $64 $18 $-1 $65 reversed single #
loop $-1 $-1 $66 $27 #
plane-surface $-1 70.69063386944181104 34.71018638840407533 31.23990926177021166 0 0 1 1 0 0 forward_v I I I I #
face $-1 $67 $68 $19 $-1 $69 reversed single #
loop $-1 $-1 $70 $28 #
plane-surface $-1 70.69063386944181104 0 15.61995463088510583 0 1 0 0 0 1 forward_v I I I I #
face $-1 $71 $72 $20 $-1 $73 reversed single #
loop $-1 $-1 $74 $29 #
plane-surface $-1 70.69063386944181104 69.42037277680815066 15.61995463088510583 0 -1 0 0 0 -1 forward_v I I I I #
face $-1 $75 $76 $21 $-1 $77 reversed single #
loop $-1 $-1 $78 $30 #
plane-surface $-1 -81.09296476158026223 19.28592227809360793 137.6581469930086428 0 1 0 -0.5735764437432435692 0 0.819152039112919339 forward_v I I I I #
face $-1 $79 $80 $22 $-1 $81 forward single #
loop $-1 $82 $83 $31 #
cone-surface $-1 7.532570748949993344 21.56578878342861572 25.36558424031919401 0.5735764437432435692 0 -0.819152039112919339 0.819152039112919339 0 0.5735764437432435692 1 I I 0 1 1 forward I I I I #
face $-1 $84 $85 $23 $-1 $86 forward single #
loop $-1 $87 $88 $32 #
cone-surface $-1 7.532570748949993344 24.9855885414311274 25.36558424031919401 0.5735764437432435692 0 -0.819152039112919339 0.819152039112919339 0 0.5735764437432435692 1 I I 0 1 1 forward I I I I #
face $-1 $89 $90 $24 $-1 $91 reversed single #
loop $-1 $-1 $92 $33 #
plane-surface $-1 106.6614787397877535 27.26545504676613518 218.7511117545888624 0 -1 0 -0.5735764437432435692 0 -0.819152039112919339 forward_v I I I I #
face $-1 $93 $94 $25 $-1 $95 forward single #
loop $-1 $96 $97 $34 #
cone-surface $-1 133.8486969899336145 21.56578878342861572 25.36558424031919401 -0.5735764437432435692 0 -0.819152039112919339 0.819152039112919339 0 -0.5735764437432435692 1 I I 0 1 1 forward I I I I #
face $-1 $98 $99 $26 $-1 $100 forward single #
loop $-1 $101 $102 $35 #
cone-surface $-1 133.8486969899336145 24.9855885414311274 25.36558424031919401 -0.5735764437432435692 0 -0.819152039112919339 0.819152039112919339 0 -0.5735764437432435692 1 I I 0 1 1 forward I I I I #
face $-1 $103 $104 $18 $-1 $105 reversed single #
loop $-1 $-1 $106 $36 #
plane-surface $-1 70.69063386944181104 34.71018638840407533 0 0 0 1 1 0 0 forward_v I I I I #
coedge $-1 $107 $108 $109 $110 forward $37 $-1 #
face $-1 $111 $112 $19 $-1 $113 forward single #
loop $-1 $-1 $114 $39 #
plane-surface $-1 0 34.71018638840407533 15.61995463088510583 1 0 0 0 0 -1 forward_v I I I I #
coedge $-1 $115 $116 $117 $118 forward $40 $-1 #
face $-1 $119 $120 $20 $-1 $121 forward single #
loop $-1 $-1 $122 $42 #
plane-surface $-1 141.3812677388836221 34.71018638840407533 15.61995463088510583 -1 0 0 0 0 1 forward_v I I I I #
coedge $-1 $123 $124 $125 $126 forward $43 $-1 #
face $-1 $127 $128 $21 $-1 $129 reversed single #
loop $-1 $-1 $130 $45 #
plane-surface $-1 -2.842170943040400743e-14 23.27568866242987156 21.84539323233252617 -0.5735764437432435692 0 0.819152039112919339 0.819152039112919339 0 0.5735764437432435692 forward_v I I I I #
coedge $-1 $131 $132 $133 $134 reversed $46 $-1 #
face $-1 $-1 $135 $22 $-1 $136 forward single #
loop $-1 $137 $138 $48 #
cone-surface $-1 8.643550177743421159 21.56578878342861572 23.77894121403057426 0.5735764437432435692 0 -0.819152039112919339 0.4095760195564596695 0 0.2867882218716217846 1 I I -0.7071067811865474617 0.7071067811865474617 0.5 forward I I I I #
loop $-1 $-1 $139 $31 #
coedge $-1 $83 $83 $140 $141 reversed $49 $-1 #
face $-1 $-1 $142 $23 $-1 $143 forward single #
loop $-1 $144 $145 $51 #
cone-surface $-1 8.643550177743421159 24.9855885414311274 23.77894121403057426 0.5735764437432435692 0 -0.819152039112919339 0.4095760195564596695 0 0.2867882218716217846 1 I I -0.7071067811865474617 0.7071067811865474617 0.5 forward I I I I #
loop $-1 $-1 $146 $32 #
coedge $-1 $88 $88 $147 $148 reversed $52 $-1 #
face $-1 $149 $150 $24 $-1 $151 reversed single #
loop $-1 $-1 $152 $54 #
plane-surface $-1 25.5685139782075197 23.27568866242987156 102.9383579939127458 0.5735764437432435692 0 0.819152039112919339 0.819152039112919339 0 -0.5735764437432435692 forward_v I I I I #
coedge $-1 $153 $154 $155 $156 reversed $55 $-1 #
face $-1 $-1 $157 $25 $-1 $158 forward single #
loop $-1 $159 $160 $57 #
cone-surface $-1 132.7377175611401867 21.56578878342861572 23.77894121403057426 -0.5735764437432435692 0 -0.819152039112919339 0.4095760195564596695 0 -0.2867882218716217846 1 I I -0.7071067811865474617 0.7071067811865474617 0.5 forward I I I I #
loop $-1 $-1 $161 $34 #
coedge $-1 $97 $97 $162 $163 reversed $58 $-1 #
face $-1 $-1 $164 $26 $-1 $165 forward single #
loop $-1 $166 $167 $60 #
cone-surface $-1 132.7377175611401867 24.9855885414311274 23.77894121403057426 -0.5735764437432435692 0 -0.819152039112919339 0.4095760195564596695 0 -0.2867882218716217846 1 I I -0.7071067811865474617 0.7071067811865474617 0.5 forward I I I I #
loop $-1 $-1 $168 $35 #
coedge $-1 $102 $102 $169 $170 reversed $61 $-1 #
face $-1 $171 $172 $18 $-1 $173 reversed single #
loop $-1 $-1 $174 $63 #
plane-surface $-1 70.69063386944181104 0 15.61995463088510583 0 1 0 0 0 1 forward_v I I I I #
coedge $-1 $175 $176 $177 $178 forward $64 $-1 #
coedge $-1 $179 $66 $180 $181 forward $37 $-1 #
coedge $-1 $66 $179 $182 $183 forward $37 $-1 #
coedge $-1 $184 $185 $66 $110 reversed $186 $-1 #
edge $-1 $187 -34.71018638840407533 $188 34.71018638840407533 $109 $189 forward 7 unknown #
face $-1 $190 $191 $19 $-1 $192 reversed single #
loop $-1 $-1 $193 $67 #
plane-surface $-1 70.69063386944181104 -9.642961139046803964 27.98114878833603569 0 0 1 1 0 0 forward_v I I I I #
coedge $-1 $194 $195 $116 $196 forward $68 $-1 #
coedge $-1 $197 $70 $198 $199 reversed $40 $-1 #
coedge $-1 $70 $197 $114 $196 reversed $40 $-1 #
coedge $-1 $200 $193 $70 $118 reversed $112 $-1 #
edge $-1 $201 -70.69063386944181104 $202 70.69063386944181104 $117 $203 forward 7 unknown #
face $-1 $204 $205 $20 $-1 $206 reversed single #
loop $-1 $-1 $207 $71 #
plane-surface $-1 70.69063386944181104 79.06333391585495463 27.98114878833603569 0 0 1 1 0 0 forward_v I I I I #
coedge $-1 $208 $209 $124 $210 forward $72 $-1 #
coedge $-1 $211 $74 $212 $213 reversed $43 $-1 #
coedge $-1 $74 $211 $122 $210 reversed $43 $-1 #
coedge $-1 $207 $214 $74 $126 reversed $120 $-1 #
edge $-1 $215 -70.69063386944181104 $216 70.69063386944181104 $125 $217 forward 7 unknown #
face $-1 $218 $219 $21 $-1 $220 reversed single #
loop $-1 $-1 $221 $75 #
plane-surface $-1 -81.09296476158026223 27.26545504676613518 137.6581469930086428 0 -1 0 0.5735764437432435692 0 -0.819152039112919339 forward_v I I I I #
coedge $-1 $222 $223 $224 $225 reversed $76 $-1 #
coedge $-1 $132 $78 $226 $227 reversed $46 $-1 #
coedge $-1 $78 $131 $222 $228 reversed $46 $-1 #
coedge $-1 $224 $229 $78 $134 forward $230 $-1 #
edge $-1 $231 5.201165446069225595 $232 18.61792453012552073 $133 $233 forward 7 unknown #
loop $-1 $-1 $140 $79 #
plane-surface $-1 -2.842170943040400743e-14 23.27568866242987156 21.84539323233252617 -0.5735764437432435692 0 0.819152039112919339 0.819152039112919339 0 0.5735764437432435692 forward_v I I I I #
loop $-1 $-1 $234 $48 #
coedge $-1 $138 $138 $139 $235 reversed $80 $-1 #
coedge $-1 $139 $139 $138 $235 forward $82 $-1 #
coedge $-1 $140 $140 $83 $141 forward $135 $-1 #
edge $-1 $236 0 $236 6.283185307179586232 $140 $237 forward 7 unknown #
loop $-1 $-1 $147 $84 #
plane-surface $-1 -2.842170943040400743e-14 23.27568866242987156 21.84539323233252617 -0.5735764437432435692 0 0.819152039112919339 0.819152039112919339 0 0.5735764437432435692 forward_v I I I I #
loop $-1 $-1 $238 $51 #
coedge $-1 $145 $145 $146 $239 reversed $85 $-1 #
coedge $-1 $146 $146 $145 $239 forward $87 $-1 #
coedge $-1 $147 $147 $88 $148 forward $142 $-1 #
edge $-1 $240 0 $240 6.283185307179586232 $147 $241 forward 7 unknown #
face $-1 $242 $243 $24 $-1 $244 forward single #
loop $-1 $-1 $245 $89 #
plane-surface $-1 106.6614787397877535 19.28592227809360793 218.7511117545888624 0 1 0 0.5735764437432435692 0 0.819152039112919339 forward_v I I I I #
coedge $-1 $246 $247 $248 $249 reversed $90 $-1 #
coedge $-1 $154 $92 $250 $251 reversed $55 $-1 #
coedge $-1 $92 $153 $246 $252 reversed $55 $-1 #
coedge $-1 $248 $253 $92 $156 forward $243 $-1 #
edge $-1 $254 -52.70521143426884692 $255 -39.28845235021250915 $155 $256 forward 7 unknown #
loop $-1 $-1 $162 $93 #
plane-surface $-1 25.5685139782075197 23.27568866242987156 102.9383579939127458 0.5735764437432435692 0 0.819152039112919339 0.819152039112919339 0 -0.5735764437432435692 forward_v I I I I #
loop $-1 $-1 $257 $57 #
coedge $-1 $160 $160 $161 $258 reversed $94 $-1 #
coedge $-1 $161 $161 $160 $258 forward $96 $-1 #
coedge $-1 $162 $162 $97 $163 forward $157 $-1 #
edge $-1 $259 0 $259 6.283185307179586232 $162 $260 forward 7 unknown #
loop $-1 $-1 $169 $98 #
plane-surface $-1 25.5685139782075197 23.27568866242987156 102.9383579939127458 0.5735764437432435692 0 0.819152039112919339 0.819152039112919339 0 -0.5735764437432435692 forward_v I I I I #
loop $-1 $-1 $261 $60 #
coedge $-1 $167 $167 $168 $262 reversed $99 $-1 #
coedge $-1 $168 $168 $167 $262 forward $101 $-1 #
coedge $-1 $169 $169 $102 $170 forward $164 $-1 #
edge $-1 $263 0 $263 6.283185307179586232 $169 $264 forward 7 unknown #
face $-1 $265 $266 $18 $-1 $267 reversed single #
loop $-1 $-1 $268 $103 #
plane-surface $-1 0 34.71018638840407533 15.61995463088510583 1 0 0 0 0 -1 forward_v I I I I #
coedge $-1 $269 $182 $270 $271 forward $104 $-1 #
coedge $-1 $272 $106 $269 $273 forward $64 $-1 #
coedge $-1 $106 $272 $274 $275 forward $64 $-1 #
coedge $-1 $185 $184 $106 $178 reversed $186 $-1 #
edge $-1 $276 -34.71018638840407533 $277 34.71018638840407533 $177 $278 forward 7 unknown #
coedge $-1 $108 $107 $279 $280 forward $37 $-1 #
coedge $-1 $281 $282 $107 $181 reversed $266 $-1 #
edge $-1 $188 -70.69063386944181104 $283 70.69063386944181104 $180 $284 forward 7 unknown #
coedge $-1 $174 $285 $108 $183 reversed $104 $-1 #
edge $-1 $286 -70.69063386944181104 $187 70.69063386944181104 $182 $287 forward 7 unknown #
coedge $-1 $177 $109 $285 $288 forward $186 $-1 #
coedge $-1 $109 $177 $281 $289 reversed $186 $-1 #
loop $-1 $-1 $184 $265 #
vertex $-1 $110 $290 #
vertex $-1 $110 $291 #
straight-curve $-1 141.3812677388836221 34.71018638840407533 31.23990926177021166 0 1 0 I I #
face $-1 $292 $293 $19 $-1 $294 reversed single #
loop $-1 $-1 $295 $111 #
plane-surface $-1 70.69063386944181104 -9.642961139046803964 19.88882340539040428 0 0 1 1 0 0 forward_v I I I I #
coedge $-1 $117 $296 $297 $298 forward $112 $-1 #
coedge $-1 $299 $114 $300 $301 reversed $68 $-1 #
coedge $-1 $114 $299 $200 $302 reversed $68 $-1 #
edge $-1 $201 -12.36119415745092986 $303 -4.268868774505298447 $114 $304 forward 7 unknown #
coedge $-1 $116 $115 $305 $306 forward $40 $-1 #
coedge $-1 $297 $307 $115 $199 forward $308 $-1 #
edge $-1 $309 4.268868774505298447 $202 12.36119415745092986 $198 $310 forward 7 unknown #
coedge $-1 $296 $117 $195 $302 forward $112 $-1 #
vertex $-1 $196 $311 #
vertex $-1 $298 $312 #
straight-curve $-1 70.69063386944181104 0 27.98114878833603569 1 0 0 I I #
face $-1 $313 $314 $20 $-1 $315 reversed single #
loop $-1 $-1 $316 $119 #
plane-surface $-1 70.69063386944181104 79.06333391585495463 19.88882340539040428 0 0 1 1 0 0 forward_v I I I I #
coedge $-1 $317 $125 $209 $318 forward $120 $-1 #
coedge $-1 $319 $122 $316 $320 reversed $72 $-1 #
coedge $-1 $122 $319 $207 $318 reversed $72 $-1 #
edge $-1 $215 -12.36119415745092986 $321 -4.268868774505298447 $122 $322 forward 7 unknown #
coedge $-1 $124 $123 $323 $324 forward $43 $-1 #
coedge $-1 $325 $326 $123 $213 forward $327 $-1 #
edge $-1 $328 4.268868774505298447 $216 12.36119415745092986 $212 $329 forward 7 unknown #
coedge $-1 $125 $317 $325 $330 forward $120 $-1 #
vertex $-1 $210 $331 #
vertex $-1 $330 $332 #
straight-curve $-1 70.69063386944181104 69.42037277680815066 27.98114878833603569 -1 0 0 I I #
face $-1 $-1 $230 $21 $-1 $333 forward single #
loop $-1 $-1 $334 $127 #
plane-surface $-1 0 34.71018638840407533 15.61995463088510583 1 0 0 0 0 -1 forward_v I I I I #
coedge $-1 $335 $336 $337 $338 reversed $128 $-1 #
coedge $-1 $339 $130 $132 $228 forward $76 $-1 #
coedge $-1 $130 $339 $335 $340 forward $76 $-1 #
coedge $-1 $337 $133 $130 $225 forward $230 $-1 #
edge $-1 $232 -9.707015247323365514 $341 -1.72748247865083826 $224 $342 forward 7 unknown #
coedge $-1 $343 $344 $131 $227 forward $219 $-1 #
edge $-1 $345 -54.79365757961432593 $231 -45.39914155017666531 $226 $346 forward 7 unknown #
edge $-1 $232 -16.37883865684528573 $345 -3.550821850013653647e-14 $132 $347 forward 7 unknown #
coedge $-1 $133 $337 $343 $348 forward $230 $-1 #
loop $-1 $-1 $337 $218 #
vertex $-1 $227 $349 #
vertex $-1 $134 $350 #
straight-curve $-1 -5.201165446069225595 19.28592227809360793 31.2399092617702081 1 0 0 I I #
coedge $-1 $234 $234 $-1 $351 reversed $137 $-1 #
edge $-1 $352 0 $352 6.283185307179586232 $138 $353 forward 7 unknown #
vertex $-1 $141 $354 #
ellipse-curve $-1 6.708379542028161779 21.56578878342861572 26.54265124705138845 -0.5735764437432435692 0 0.819152039112919339 0.819152039112919339 0 0.5735764437432435692 1 I I #
coedge $-1 $238 $238 $-1 $355 reversed $144 $-1 #
edge $-1 $356 0 $356 6.283185307179586232 $145 $357 forward 7 unknown #
vertex $-1 $148 $358 #
ellipse-curve $-1 6.708379542028161779 24.9855885414311274 26.54265124705138845 -0.5735764437432435692 0 0.819152039112919339 0.819152039112919339 0 0.5735764437432435692 1 I I #
face $-1 $-1 $359 $24 $-1 $360 reversed single #
loop $-1 $-1 $155 $149 #
plane-surface $-1 70.69063386944181104 34.71018638840407533 31.23990926177021166 0 0 1 1 0 0 forward_v I I I I #
coedge $-1 $361 $362 $363 $364 reversed $150 $-1 #
coedge $-1 $365 $152 $154 $252 forward $90 $-1 #
coedge $-1 $152 $365 $361 $366 forward $90 $-1 #
coedge $-1 $363 $155 $152 $249 forward $243 $-1 #
edge $-1 $255 1.72748247865083826 $367 9.707015247323365514 $248 $368 forward 7 unknown #
coedge $-1 $369 $370 $153 $251 forward $359 $-1 #
edge $-1 $371 -95.34013996040445704 $254 -85.94562393096677511 $250 $372 forward 7 unknown #
edge $-1 $255 125.0024290820383044 $371 141.3812677388835937 $154 $373 forward 7 unknown #
coedge $-1 $155 $363 $369 $374 forward $243 $-1 #
vertex $-1 $251 $375 #
vertex $-1 $156 $376 #
straight-curve $-1 88.67605630461477517 27.26545504676613518 31.2399092617702081 -1 0 0 I I #
coedge $-1 $257 $257 $-1 $377 reversed $159 $-1 #
edge $-1 $378 0 $378 6.283185307179586232 $160 $379 forward 7 unknown #
vertex $-1 $163 $380 #
ellipse-curve $-1 134.672888196855439 21.56578878342861572 26.54265124705137424 0.5735764437432435692 0 0.819152039112919339 0.819152039112919339 0 -0.5735764437432435692 1 I I #
coedge $-1 $261 $261 $-1 $381 reversed $166 $-1 #
edge $-1 $382 0 $382 6.283185307179586232 $167 $383 forward 7 unknown #
vertex $-1 $170 $384 #
ellipse-curve $-1 134.672888196855439 24.9855885414311274 26.54265124705137424 0.5735764437432435692 0 0.819152039112919339 0.819152039112919339 0 -0.5735764437432435692 1 I I #
face $-1 $-1 $186 $18 $-1 $385 reversed single #
loop $-1 $-1 $282 $171 #
plane-surface $-1 70.69063386944181104 69.42037277680815066 15.61995463088510583 0 -1 0 0 0 -1 forward_v I I I I #
coedge $-1 $386 $279 $282 $387 forward $172 $-1 #
coedge $-1 $285 $174 $175 $273 reversed $104 $-1 #
coedge $-1 $279 $386 $174 $271 reversed $172 $-1 #
edge $-1 $286 -15.61995463088510583 $388 15.61995463088510583 $270 $389 forward 7 unknown #
coedge $-1 $176 $175 $386 $390 forward $64 $-1 #
edge $-1 $277 -70.69063386944181104 $388 70.69063386944181104 $269 $391 forward 7 unknown #
coedge $-1 $282 $281 $176 $275 reversed $266 $-1 #
edge $-1 $392 -70.69063386944181104 $276 70.69063386944181104 $274 $393 forward 7 unknown #
vertex $-1 $178 $394 #
vertex $-1 $288 $395 #
straight-curve $-1 141.3812677388836221 34.71018638840407533 0 0 -1 0 I I #
coedge $-1 $268 $270 $179 $280 reversed $172 $-1 #
edge $-1 $283 -34.71018638840407533 $286 34.71018638840407533 $279 $396 forward 7 unknown #
coedge $-1 $274 $180 $185 $289 forward $266 $-1 #
coedge $-1 $180 $274 $268 $387 reversed $266 $-1 #
vertex $-1 $181 $397 #
straight-curve $-1 70.69063386944181104 69.42037277680815066 31.23990926177021166 -1 0 0 I I #
coedge $-1 $182 $269 $184 $288 reversed $104 $-1 #
vertex $-1 $280 $398 #
straight-curve $-1 70.69063386944181104 0 31.23990926177021166 1 0 0 I I #
edge $-1 $187 -15.61995463088510583 $277 15.61995463088510583 $184 $399 forward 7 unknown #
edge $-1 $188 -15.61995463088510583 $276 15.61995463088510583 $185 $400 forward 7 unknown #
point $-1 141.3812677388836221 0 31.23990926177021166 #
point $-1 141.3812677388836221 69.42037277680815066 31.23990926177021166 #
face $-1 $-1 $308 $19 $-1 $401 reversed single #
loop $-1 $-1 $402 $190 #
plane-surface $-1 70.69063386944181104 -19.28592227809360793 23.93498609686321998 0 1 0 0 0 1 forward_v I I I I #
coedge $-1 $403 $305 $307 $404 forward $191 $-1 #
coedge $-1 $193 $200 $405 $406 forward $112 $-1 #
coedge $-1 $407 $198 $193 $298 reversed $308 $-1 #
edge $-1 $408 -9.642961139046803964 $202 9.642961139046803964 $297 $409 forward 7 unknown #
coedge $-1 $195 $194 $402 $410 reversed $68 $-1 #
coedge $-1 $305 $403 $194 $301 forward $191 $-1 #
edge $-1 $411 -9.642961139046803964 $303 9.642961139046803964 $194 $412 forward 7 unknown #
edge $-1 $201 -9.642961139046803964 $413 9.642961139046803964 $195 $414 forward 7 unknown #
vertex $-1 $196 $415 #
straight-curve $-1 0 0 15.61995463088510583 0 0 -1 I I #
coedge $-1 $295 $300 $197 $306 reversed $191 $-1 #
edge $-1 $309 -70.69063386944181104 $303 70.69063386944181104 $305 $416 forward 7 unknown #
coedge $-1 $198 $407 $295 $404 reversed $308 $-1 #
loop $-1 $-1 $198 $292 #
vertex $-1 $199 $417 #
straight-curve $-1 141.3812677388836221 0 15.61995463088510583 0 0 1 I I #
point $-1 0 0 27.98114878833603569 #
point $-1 141.3812677388836221 0 27.98114878833603569 #
face $-1 $-1 $327 $20 $-1 $418 reversed single #
loop $-1 $-1 $419 $204 #
plane-surface $-1 70.69063386944181104 88.70629505490175859 23.93498609686321998 0 -1 0 0 0 -1 forward_v I I I I #
coedge $-1 $323 $420 $208 $320 forward $205 $-1 #
coedge $-1 $214 $207 $421 $422 forward $120 $-1 #
edge $-1 $215 -9.642961139046803964 $423 9.642961139046803964 $209 $424 forward 7 unknown #
coedge $-1 $209 $208 $419 $425 reversed $72 $-1 #
edge $-1 $426 -9.642961139046803964 $321 9.642961139046803964 $208 $427 forward 7 unknown #
vertex $-1 $210 $428 #
straight-curve $-1 141.3812677388836221 69.42037277680815066 15.61995463088510583 0 0 -1 I I #
coedge $-1 $429 $316 $211 $324 reversed $205 $-1 #
edge $-1 $328 -70.69063386944181104 $321 70.69063386944181104 $323 $430 forward 7 unknown #
coedge $-1 $431 $212 $214 $330 reversed $327 $-1 #
coedge $-1 $212 $431 $429 $432 reversed $327 $-1 #
loop $-1 $-1 $212 $313 #
vertex $-1 $213 $433 #
straight-curve $-1 0 69.42037277680815066 15.61995463088510583 0 0 1 I I #
edge $-1 $434 -9.642961139046803964 $216 9.642961139046803964 $325 $435 forward 7 unknown #
point $-1 141.3812677388836221 69.42037277680815066 27.98114878833603569 #
point $-1 0 69.42037277680815066 27.98114878833603569 #
plane-surface $-1 70.69063386944181104 34.71018638840407533 31.23990926177021166 0 0 1 1 0 0 forward_v I I I I #
coedge $-1 $344 $343 $336 $436 forward $219 $-1 #
coedge $-1 $336 $221 $223 $340 reversed $128 $-1 #
coedge $-1 $221 $335 $334 $436 reversed $128 $-1 #
coedge $-1 $229 $224 $221 $338 forward $230 $-1 #
edge $-1 $341 -18.61792453012552073 $437 -5.201165446069225595 $337 $438 forward 7 unknown #
coedge $-1 $223 $222 $344 $439 reversed $76 $-1 #
edge $-1 $440 3.550821850013653647e-14 $341 16.37883865684528573 $335 $441 forward 7 unknown #
vertex $-1 $225 $442 #
straight-curve $-1 13.41675908405630224 28.99293752541697344 31.23990926177021521 0 1 0 I I #
coedge $-1 $334 $226 $229 $348 reversed $219 $-1 #
coedge $-1 $226 $334 $339 $439 forward $219 $-1 #
vertex $-1 $227 $443 #
straight-curve $-1 0 19.28592227809360793 76.63905081194687341 0 0 1 I I #
straight-curve $-1 -2.842170943040400743e-14 19.28592227809360793 21.84539323233252617 -0.819152039112919339 0 -0.5735764437432435692 I I #
edge $-1 $437 7.444731341637940147 $231 15.4242641103104674 $343 $444 forward 7 unknown #
point $-1 0 19.28592227809360793 31.23990926177021166 #
point $-1 13.41675908405629514 19.28592227809360793 31.23990926177021166 #
edge $-1 $445 1 $445 0 $234 $-1 forward 7 unknown #
vertex $-1 $235 $446 #
ellipse-curve $-1 8.356761955871796488 21.56578878342861572 24.18851723358703509 -0.5735764437432435692 0 0.819152039112919339 0.819152039112919339 0 0.5735764437432435692 1 I I #
point $-1 7.527531581141104766 21.56578878342861572 27.11622769079460227 #
edge $-1 $447 1 $447 0 $238 $-1 forward 7 unknown #
vertex $-1 $239 $448 #
ellipse-curve $-1 8.356761955871796488 24.9855885414311274 24.18851723358703509 -0.5735764437432435692 0 0.819152039112919339 0.819152039112919339 0 0.5735764437432435692 1 I I #
point $-1 7.527531581141104766 24.9855885414311274 27.11622769079460227 #
loop $-1 $-1 $250 $242 #
plane-surface $-1 141.3812677388836221 34.71018638840407533 15.61995463088510583 -1 0 0 0 0 1 forward_v I I I I #
coedge $-1 $362 $245 $247 $366 reversed $150 $-1 #
coedge $-1 $245 $361 $449 $450 reversed $150 $-1 #
coedge $-1 $253 $248 $245 $364 forward $243 $-1 #
edge $-1 $367 39.28845235021250915 $451 52.70521143426884692 $363 $452 forward 7 unknown #
coedge $-1 $247 $246 $370 $453 reversed $90 $-1 #
edge $-1 $454 -141.3812677388835937 $367 -125.0024290820383044 $361 $455 forward 7 unknown #
vertex $-1 $249 $456 #
straight-curve $-1 127.9645086548272843 28.99293752541697344 31.2399092617702081 0 -1 0 I I #
coedge $-1 $449 $250 $253 $374 reversed $359 $-1 #
coedge $-1 $250 $449 $365 $453 forward $359 $-1 #
vertex $-1 $251 $457 #
straight-curve $-1 141.3812677388836221 27.26545504676613518 117.1855331927369832 0 0 1 I I #
straight-curve $-1 25.5685139782075197 27.26545504676613518 102.9383579939127458 0.819152039112919339 0 -0.5735764437432435692 I I #
edge $-1 $451 -15.4242641103104674 $254 -7.444731341637940147 $369 $458 forward 7 unknown #
point $-1 141.3812677388836221 27.26545504676613518 31.23990926177021166 #
point $-1 127.9645086548272843 27.26545504676613518 31.2399092617702081 #
edge $-1 $459 1 $459 0 $257 $-1 forward 7 unknown #
vertex $-1 $258 $460 #
ellipse-curve $-1 133.0245057830118185 21.56578878342861572 24.18851723358703509 0.5735764437432435692 0 0.819152039112919339 0.819152039112919339 0 -0.5735764437432435692 1 I I #
point $-1 135.4920402359683465 21.56578878342861572 25.96907480330811069 #
edge $-1 $461 1 $461 0 $261 $-1 forward 7 unknown #
vertex $-1 $262 $462 #
ellipse-curve $-1 133.0245057830118185 24.9855885414311274 24.18851723358703509 0.5735764437432435692 0 0.819152039112919339 0.819152039112919339 0 -0.5735764437432435692 1 I I #
point $-1 135.4920402359683465 24.9855885414311274 25.96907480330811069 #
plane-surface $-1 141.3812677388836221 34.71018638840407533 15.61995463088510583 -1 0 0 0 0 1 forward_v I I I I #
coedge $-1 $270 $268 $272 $390 reversed $172 $-1 #
edge $-1 $283 -15.61995463088510583 $392 15.61995463088510583 $282 $463 forward 7 unknown #
vertex $-1 $390 $464 #
straight-curve $-1 0 0 15.61995463088510583 0 0 -1 I I #
edge $-1 $388 -34.71018638840407533 $392 34.71018638840407533 $386 $465 forward 7 unknown #
straight-curve $-1 70.69063386944181104 0 0 -1 0 0 I I #
vertex $-1 $275 $466 #
straight-curve $-1 70.69063386944181104 69.42037277680815066 0 1 0 0 I I #
point $-1 141.3812677388836221 69.42037277680815066 0 #
point $-1 141.3812677388836221 0 0 #
straight-curve $-1 0 34.71018638840407533 31.23990926177021166 0 -1 0 I I #
point $-1 0 69.42037277680815066 31.23990926177021166 #
point $-1 0 0 31.23990926177021166 #
straight-curve $-1 141.3812677388836221 0 15.61995463088510583 0 0 -1 I I #
straight-curve $-1 141.3812677388836221 69.42037277680815066 15.61995463088510583 0 0 -1 I I #
plane-surface $-1 141.3812677388836221 34.71018638840407533 15.61995463088510583 -1 0 0 0 0 1 forward_v I I I I #
coedge $-1 $467 $405 $299 $410 forward $293 $-1 #
coedge $-1 $300 $295 $467 $468 forward $191 $-1 #
edge $-1 $309 -9.642961139046803964 $469 9.642961139046803964 $307 $470 forward 7 unknown #
coedge $-1 $402 $471 $296 $406 reversed $293 $-1 #
edge $-1 $413 -70.69063386944181104 $408 70.69063386944181104 $405 $472 forward 7 unknown #
coedge $-1 $307 $297 $471 $473 forward $308 $-1 #
vertex $-1 $298 $474 #
straight-curve $-1 141.3812677388836221 -9.642961139046803964 27.98114878833603569 0 1 0 I I #
edge $-1 $413 -4.046162691472815709 $411 4.046162691472815709 $299 $475 forward 7 unknown #
vertex $-1 $301 $476 #
straight-curve $-1 0 -9.642961139046803964 19.88882340539040428 0 1 0 I I #
vertex $-1 $302 $477 #
straight-curve $-1 0 -9.642961139046803964 27.98114878833603569 0 -1 0 I I #
point $-1 0 0 19.88882340539040428 #
straight-curve $-1 70.69063386944181104 0 19.88882340539040428 -1 0 0 I I #
point $-1 141.3812677388836221 0 19.88882340539040428 #
plane-surface $-1 0 34.71018638840407533 15.61995463088510583 1 0 0 0 0 -1 forward_v I I I I #
coedge $-1 $478 $421 $319 $425 forward $314 $-1 #
coedge $-1 $316 $429 $478 $479 forward $205 $-1 #
coedge $-1 $419 $480 $317 $422 reversed $314 $-1 #
edge $-1 $423 -70.69063386944181104 $434 70.69063386944181104 $421 $481 forward 7 unknown #
vertex $-1 $318 $482 #
straight-curve $-1 141.3812677388836221 79.06333391585495463 27.98114878833603569 0 1 0 I I #
edge $-1 $423 -4.046162691472815709 $426 4.046162691472815709 $319 $483 forward 7 unknown #
vertex $-1 $320 $484 #
straight-curve $-1 141.3812677388836221 79.06333391585495463 19.88882340539040428 0 -1 0 I I #
point $-1 141.3812677388836221 69.42037277680815066 19.88882340539040428 #
coedge $-1 $420 $323 $326 $432 forward $205 $-1 #
straight-curve $-1 70.69063386944181104 69.42037277680815066 19.88882340539040428 1 0 0 I I #
coedge $-1 $326 $325 $480 $485 forward $327 $-1 #
edge $-1 $328 -9.642961139046803964 $486 9.642961139046803964 $326 $487 forward 7 unknown #
point $-1 0 69.42037277680815066 19.88882340539040428 #
vertex $-1 $422 $488 #
straight-curve $-1 0 79.06333391585495463 27.98114878833603569 0 -1 0 I I #
edge $-1 $437 45.39914155017666531 $440 54.79365757961432593 $334 $489 forward 7 unknown #
vertex $-1 $348 $490 #
straight-curve $-1 -5.201165446069225595 27.26545504676613518 31.2399092617702081 -1 0 0 I I #
edge $-1 $440 1.72748247865083826 $345 9.707015247323365514 $344 $491 forward 7 unknown #
vertex $-1 $439 $492 #
straight-curve $-1 -2.842170943040400743e-14 27.26545504676613518 21.84539323233252617 0.819152039112919339 0 0.5735764437432435692 I I #
point $-1 13.41675908405629514 27.26545504676613518 31.23990926177021166 #
point $-1 0 19.28592227809360793 21.84539323233254748 #
straight-curve $-1 0 34.71018638840407533 31.23990926177021166 0 -1 0 I I #
vertex $-1 $351 $493 #
point $-1 9.175913994984718158 21.56578878342861572 24.76209367733027733 #
vertex $-1 $355 $494 #
point $-1 9.175913994984718158 24.9855885414311274 24.76209367733027733 #
coedge $-1 $370 $369 $362 $450 forward $359 $-1 #
edge $-1 $451 85.94562393096677511 $454 95.34013996040445704 $449 $495 forward 7 unknown #
vertex $-1 $374 $496 #
straight-curve $-1 88.67605630461477517 19.28592227809360793 31.2399092617702081 1 0 0 I I #
edge $-1 $454 -9.707015247323365514 $371 -1.72748247865083826 $370 $497 forward 7 unknown #
vertex $-1 $453 $498 #
straight-curve $-1 25.5685139782075197 19.28592227809360793 102.9383579939127458 -0.819152039112919339 0 0.5735764437432435692 I I #
point $-1 127.9645086548272843 19.28592227809360793 31.2399092617702081 #
point $-1 141.3812677388835937 27.26545504676613518 21.84539323233252617 #
straight-curve $-1 141.3812677388836221 34.71018638840407533 31.23990926177021166 0 1 0 I I #
vertex $-1 $377 $499 #
point $-1 133.843657822124726 21.56578878342861572 23.6149407898437893 #
vertex $-1 $381 $500 #
point $-1 133.843657822124726 24.9855885414311274 23.6149407898437893 #
straight-curve $-1 0 69.42037277680815066 15.61995463088510583 0 0 -1 I I #
point $-1 0 0 0 #
straight-curve $-1 0 34.71018638840407533 0 0 1 0 I I #
point $-1 0 69.42037277680815066 0 #
coedge $-1 $471 $402 $403 $468 reversed $293 $-1 #
edge $-1 $469 -70.69063386944181104 $411 70.69063386944181104 $467 $501 forward 7 unknown #
vertex $-1 $473 $502 #
straight-curve $-1 141.3812677388836221 -9.642961139046803964 19.88882340539040428 0 -1 0 I I #
coedge $-1 $405 $467 $407 $473 reversed $293 $-1 #
straight-curve $-1 70.69063386944181104 -19.28592227809360793 27.98114878833603569 1 0 0 I I #
edge $-1 $408 -4.046162691472815709 $469 4.046162691472815709 $407 $503 forward 7 unknown #
point $-1 141.3812677388836221 -19.28592227809360793 27.98114878833603569 #
straight-curve $-1 0 -19.28592227809360793 23.93498609686321998 0 0 -1 I I #
point $-1 0 -19.28592227809360793 19.88882340539040428 #
point $-1 0 -19.28592227809360793 27.98114878833603569 #
coedge $-1 $480 $419 $420 $479 reversed $314 $-1 #
edge $-1 $486 -70.69063386944181104 $426 70.69063386944181104 $478 $504 forward 7 unknown #
coedge $-1 $421 $478 $431 $485 reversed $314 $-1 #
straight-curve $-1 70.69063386944181104 88.70629505490175859 27.98114878833603569 -1 0 0 I I #
point $-1 141.3812677388836221 88.70629505490175859 27.98114878833603569 #
straight-curve $-1 141.3812677388836221 88.70629505490175859 23.93498609686321998 0 0 -1 I I #
point $-1 141.3812677388836221 88.70629505490175859 19.88882340539040428 #
edge $-1 $434 -4.046162691472815709 $486 4.046162691472815709 $480 $505 forward 7 unknown #
vertex $-1 $479 $506 #
straight-curve $-1 0 79.06333391585495463 19.88882340539040428 0 1 0 I I #
point $-1 0 88.70629505490175859 27.98114878833603569 #
straight-curve $-1 0 27.26545504676613518 76.63905081194687341 0 0 -1 I I #
point $-1 0 27.26545504676613518 31.23990926177021166 #
straight-curve $-1 0 28.99293752541697344 21.84539323233255104 0 -1 0 I I #
point $-1 0 27.26545504676613518 21.84539323233254748 #
point $-1 8.93033839961504583 21.56578878342861572 23.36936519447411342 #
point $-1 8.93033839961504583 24.9855885414311274 23.36936519447411342 #
straight-curve $-1 141.3812677388836221 19.28592227809360793 117.1855331927369832 0 0 -1 I I #
point $-1 141.3812677388836221 19.28592227809360793 31.23990926177021166 #
straight-curve $-1 141.3812677388836221 28.99293752541697344 21.84539323233251906 0 1 0 I I #
point $-1 141.3812677388835937 19.28592227809360793 21.84539323233252617 #
point $-1 132.4509293392685549 21.56578878342861572 23.36936519447411342 #
point $-1 132.4509293392685549 24.9855885414311274 23.36936519447411342 #
straight-curve $-1 70.69063386944181104 -19.28592227809360793 19.88882340539040428 -1 0 0 I I #
point $-1 141.3812677388836221 -19.28592227809360793 19.88882340539040428 #
straight-curve $-1 141.3812677388836221 -19.28592227809360793 23.93498609686321998 0 0 -1 I I #
straight-curve $-1 70.69063386944181104 88.70629505490175859 19.88882340539040428 1 0 0 I I #
straight-curve $-1 0 88.70629505490175859 23.93498609686321998 0 0 -1 I I #
point $-1 0 88.70629505490175859 19.88882340539040428 #
End-of-ACIS-data 