600 0 3 0           
93 GICL ACIS Healer - Source: /gicl/data5/repository/Drexel/SM99-DATA/part90.smdg.feat.sat - 6 0 18 ACIS 6.0.3 Solaris 24 Sat Apr 13 20:46:44 2002 
1 9.999999999999999547e-07 1.000000000000000036e-10 
body $-1 $3 $-1 $-1 #
body $-1 $4 $-1 $-1 #
body $-1 $5 $-1 $-1 #
lump $-1 $-1 $6 $0 #
lump $-1 $-1 $7 $1 #
lump $-1 $-1 $8 $2 #
shell $-1 $-1 $-1 $9 $-1 $3 #
shell $-1 $-1 $-1 $10 $-1 $4 #
shell $-1 $-1 $-1 $11 $-1 $5 #
face $-1 $12 $13 $6 $-1 $14 forward single #
face $-1 $15 $16 $7 $-1 $17 forward single #
face $-1 $18 $19 $8 $-1 $20 forward single #
face $-1 $21 $22 $6 $-1 $23 reversed single #
loop $-1 $-1 $24 $9 #
plane-surface $-1 43.36680196539200693 27.3376156302544544 18.87477686237674135 0 0 1 1 0 0 forward_v I I I I #
face $-1 $25 $26 $7 $-1 $27 reversed single #
loop $-1 $-1 $28 $10 #
plane-surface $-1 43.36680196539200693 5.399884319246404552 9.409113532284980153 0 0 1 1 0 0 forward_v I I I I #
face $-1 $29 $30 $8 $-1 $31 reversed single #
loop $-1 $-1 $32 $11 #
plane-surface $-1 43.36680196539200693 49.27534694126250514 9.409113532284980153 0 0 1 1 0 0 forward_v I I I I #
face $-1 $33 $34 $6 $-1 $35 reversed single #
loop $-1 $-1 $36 $12 #
plane-surface $-1 43.36680196539200693 27.3376156302544544 0 0 0 1 1 0 0 forward_v I I I I #
coedge $-1 $37 $38 $39 $40 forward $13 $-1 #
face $-1 $41 $42 $7 $-1 $43 reversed single #
loop $-1 $-1 $44 $15 #
plane-surface $-1 43.36680196539200693 5.399884319246404552 6.409113532284980153 0 0 1 1 0 0 forward_v I I I I #
coedge $-1 $45 $46 $47 $48 forward $16 $-1 #
face $-1 $49 $50 $8 $-1 $51 reversed single #
loop $-1 $-1 $52 $18 #
plane-surface $-1 43.36680196539200693 49.27534694126250514 6.409113532284980153 0 0 1 1 0 0 forward_v I I I I #
coedge $-1 $53 $54 $55 $56 forward $19 $-1 #
face $-1 $57 $58 $6 $-1 $59 reversed single #
loop $-1 $-1 $60 $21 #
plane-surface $-1 43.36680196539200693 0 9.437388431188370674 0 1 0 0 0 1 forward_v I I I I #
coedge $-1 $61 $62 $63 $64 forward $22 $-1 #
coedge $-1 $65 $24 $66 $67 forward $13 $-1 #
coedge $-1 $24 $65 $68 $69 forward $13 $-1 #
coedge $-1 $70 $71 $24 $40 reversed $72 $-1 #
edge $-1 $73 -27.3376156302544544 $74 27.3376156302544544 $39 $75 forward 7 unknown #
face $-1 $76 $77 $7 $-1 $78 reversed single #
loop $-1 $-1 $79 $25 #
plane-surface $-1 43.36680196539200693 0 7.909113532284980153 0 1 0 0 0 1 forward_v I I I I #
coedge $-1 $80 $81 $82 $83 forward $26 $-1 #
coedge $-1 $84 $28 $85 $86 forward $16 $-1 #
coedge $-1 $28 $84 $87 $88 forward $16 $-1 #
coedge $-1 $89 $90 $28 $48 reversed $91 $-1 #
edge $-1 $92 -5.399884319246404552 $93 5.399884319246404552 $47 $94 forward 7 unknown #
face $-1 $95 $96 $8 $-1 $97 reversed single #
loop $-1 $-1 $98 $29 #
plane-surface $-1 43.36680196539200693 43.87546262201610148 7.909113532284980153 0 1 0 0 0 1 forward_v I I I I #
coedge $-1 $99 $100 $101 $102 forward $30 $-1 #
coedge $-1 $103 $32 $104 $105 forward $19 $-1 #
coedge $-1 $32 $103 $106 $107 forward $19 $-1 #
coedge $-1 $108 $109 $32 $56 reversed $110 $-1 #
edge $-1 $111 -5.399884319246403663 $112 5.399884319246403663 $55 $113 forward 7 unknown #
face $-1 $114 $115 $6 $-1 $116 reversed single #
loop $-1 $-1 $117 $33 #
plane-surface $-1 0 27.3376156302544544 9.437388431188370674 1 0 0 0 0 -1 forward_v I I I I #
coedge $-1 $118 $68 $119 $120 forward $34 $-1 #
coedge $-1 $121 $36 $118 $122 forward $22 $-1 #
coedge $-1 $36 $121 $123 $124 forward $22 $-1 #
coedge $-1 $71 $70 $36 $64 reversed $72 $-1 #
edge $-1 $125 -27.3376156302544544 $126 27.3376156302544544 $63 $127 forward 7 unknown #
coedge $-1 $38 $37 $128 $129 forward $13 $-1 #
coedge $-1 $130 $131 $37 $67 reversed $115 $-1 #
edge $-1 $74 -43.36680196539200693 $132 43.36680196539200693 $66 $133 forward 7 unknown #
coedge $-1 $60 $134 $38 $69 reversed $34 $-1 #
edge $-1 $135 -43.36680196539200693 $73 43.36680196539200693 $68 $136 forward 7 unknown #
coedge $-1 $63 $39 $134 $137 forward $72 $-1 #
coedge $-1 $39 $63 $130 $138 reversed $72 $-1 #
loop $-1 $-1 $70 $114 #
vertex $-1 $40 $139 #
vertex $-1 $40 $140 #
straight-curve $-1 86.73360393078401387 27.3376156302544544 18.87477686237674135 0 1 0 I I #
face $-1 $141 $142 $7 $-1 $143 reversed single #
loop $-1 $-1 $144 $41 #
plane-surface $-1 0 5.399884319246404552 7.909113532284980153 1 0 0 0 0 -1 forward_v I I I I #
coedge $-1 $145 $87 $146 $147 forward $42 $-1 #
coedge $-1 $148 $44 $145 $149 forward $26 $-1 #
coedge $-1 $44 $148 $150 $151 forward $26 $-1 #
coedge $-1 $90 $89 $44 $83 reversed $91 $-1 #
edge $-1 $152 -5.399884319246404552 $153 5.399884319246404552 $82 $154 forward 7 unknown #
coedge $-1 $46 $45 $155 $156 forward $16 $-1 #
coedge $-1 $157 $158 $45 $86 reversed $142 $-1 #
edge $-1 $93 -43.36680196539200693 $159 43.36680196539200693 $85 $160 forward 7 unknown #
coedge $-1 $79 $161 $46 $88 reversed $42 $-1 #
edge $-1 $162 -43.36680196539200693 $92 43.36680196539200693 $87 $163 forward 7 unknown #
coedge $-1 $82 $47 $161 $164 forward $91 $-1 #
coedge $-1 $47 $82 $157 $165 reversed $91 $-1 #
loop $-1 $-1 $89 $141 #
vertex $-1 $48 $166 #
vertex $-1 $48 $167 #
straight-curve $-1 86.73360393078401387 5.399884319246404552 9.409113532284980153 0 1 0 I I #
face $-1 $168 $169 $8 $-1 $170 reversed single #
loop $-1 $-1 $171 $49 #
plane-surface $-1 0 49.27534694126250514 7.909113532284980153 1 0 0 0 0 -1 forward_v I I I I #
coedge $-1 $172 $106 $173 $174 forward $50 $-1 #
coedge $-1 $175 $52 $172 $176 forward $30 $-1 #
coedge $-1 $52 $175 $177 $178 forward $30 $-1 #
coedge $-1 $109 $108 $52 $102 reversed $110 $-1 #
edge $-1 $179 -5.399884319246403663 $180 5.399884319246403663 $101 $181 forward 7 unknown #
coedge $-1 $54 $53 $182 $183 forward $19 $-1 #
coedge $-1 $184 $185 $53 $105 reversed $169 $-1 #
edge $-1 $112 -43.36680196539200693 $186 43.36680196539200693 $104 $187 forward 7 unknown #
coedge $-1 $98 $188 $54 $107 reversed $50 $-1 #
edge $-1 $189 -43.36680196539200693 $111 43.36680196539200693 $106 $190 forward 7 unknown #
coedge $-1 $101 $55 $188 $191 forward $110 $-1 #
coedge $-1 $55 $101 $184 $192 reversed $110 $-1 #
loop $-1 $-1 $108 $168 #
vertex $-1 $56 $193 #
vertex $-1 $56 $194 #
straight-curve $-1 86.73360393078401387 49.27534694126250514 9.409113532284980153 0 1 0 I I #
face $-1 $-1 $72 $6 $-1 $195 reversed single #
loop $-1 $-1 $130 $57 #
plane-surface $-1 43.36680196539200693 54.6752312605089088 9.437388431188370674 0 -1 0 0 0 -1 forward_v I I I I #
coedge $-1 $196 $128 $131 $197 forward $58 $-1 #
coedge $-1 $134 $60 $61 $122 reversed $34 $-1 #
coedge $-1 $128 $196 $60 $120 reversed $58 $-1 #
edge $-1 $135 -9.437388431188370674 $198 9.437388431188370674 $119 $199 forward 7 unknown #
coedge $-1 $62 $61 $196 $200 forward $22 $-1 #
edge $-1 $126 -43.36680196539200693 $198 43.36680196539200693 $118 $201 forward 7 unknown #
coedge $-1 $131 $130 $62 $124 reversed $115 $-1 #
edge $-1 $202 -43.36680196539200693 $125 43.36680196539200693 $123 $203 forward 7 unknown #
vertex $-1 $64 $204 #
vertex $-1 $137 $205 #
straight-curve $-1 86.73360393078401387 27.3376156302544544 0 0 -1 0 I I #
coedge $-1 $117 $119 $65 $129 reversed $58 $-1 #
edge $-1 $132 -27.3376156302544544 $135 27.3376156302544544 $128 $206 forward 7 unknown #
coedge $-1 $123 $66 $71 $138 forward $115 $-1 #
coedge $-1 $66 $123 $117 $197 reversed $115 $-1 #
vertex $-1 $67 $207 #
straight-curve $-1 43.36680196539200693 54.6752312605089088 18.87477686237674135 -1 0 0 I I #
coedge $-1 $68 $118 $70 $137 reversed $34 $-1 #
vertex $-1 $129 $208 #
straight-curve $-1 43.36680196539200693 0 18.87477686237674135 1 0 0 I I #
edge $-1 $73 -9.437388431188370674 $126 9.437388431188370674 $70 $209 forward 7 unknown #
edge $-1 $74 -9.437388431188370674 $125 9.437388431188370674 $71 $210 forward 7 unknown #
point $-1 86.73360393078401387 0 18.87477686237674135 #
point $-1 86.73360393078401387 54.6752312605089088 18.87477686237674135 #
face $-1 $-1 $91 $7 $-1 $211 reversed single #
loop $-1 $-1 $157 $76 #
plane-surface $-1 43.36680196539200693 10.7997686384928091 7.909113532284980153 0 -1 0 0 0 -1 forward_v I I I I #
coedge $-1 $212 $155 $158 $213 forward $77 $-1 #
coedge $-1 $161 $79 $80 $149 reversed $42 $-1 #
coedge $-1 $155 $212 $79 $147 reversed $77 $-1 #
edge $-1 $162 -1.5 $214 1.5 $146 $215 forward 7 unknown #
coedge $-1 $81 $80 $212 $216 forward $26 $-1 #
edge $-1 $153 -43.36680196539200693 $214 43.36680196539200693 $145 $217 forward 7 unknown #
coedge $-1 $158 $157 $81 $151 reversed $142 $-1 #
edge $-1 $218 -43.36680196539200693 $152 43.36680196539200693 $150 $219 forward 7 unknown #
vertex $-1 $83 $220 #
vertex $-1 $164 $221 #
straight-curve $-1 86.73360393078401387 5.399884319246404552 6.409113532284980153 0 -1 0 I I #
coedge $-1 $144 $146 $84 $156 reversed $77 $-1 #
edge $-1 $159 -5.399884319246404552 $162 5.399884319246404552 $155 $222 forward 7 unknown #
coedge $-1 $150 $85 $90 $165 forward $142 $-1 #
coedge $-1 $85 $150 $144 $213 reversed $142 $-1 #
vertex $-1 $86 $223 #
straight-curve $-1 43.36680196539200693 10.7997686384928091 9.409113532284980153 -1 0 0 I I #
coedge $-1 $87 $145 $89 $164 reversed $42 $-1 #
vertex $-1 $156 $224 #
straight-curve $-1 43.36680196539200693 0 9.409113532284980153 1 0 0 I I #
edge $-1 $92 -1.5 $153 1.5 $89 $225 forward 7 unknown #
edge $-1 $93 -1.5 $152 1.5 $90 $226 forward 7 unknown #
point $-1 86.73360393078401387 0 9.409113532284980153 #
point $-1 86.73360393078401387 10.7997686384928091 9.409113532284980153 #
face $-1 $-1 $110 $8 $-1 $227 reversed single #
loop $-1 $-1 $184 $95 #
plane-surface $-1 43.36680196539200693 54.6752312605089088 7.909113532284980153 0 -1 0 0 0 -1 forward_v I I I I #
coedge $-1 $228 $182 $185 $229 forward $96 $-1 #
coedge $-1 $188 $98 $99 $176 reversed $50 $-1 #
coedge $-1 $182 $228 $98 $174 reversed $96 $-1 #
edge $-1 $189 -1.5 $230 1.5 $173 $231 forward 7 unknown #
coedge $-1 $100 $99 $228 $232 forward $30 $-1 #
edge $-1 $180 -43.36680196539200693 $230 43.36680196539200693 $172 $233 forward 7 unknown #
coedge $-1 $185 $184 $100 $178 reversed $169 $-1 #
edge $-1 $234 -43.36680196539200693 $179 43.36680196539200693 $177 $235 forward 7 unknown #
vertex $-1 $102 $236 #
vertex $-1 $191 $237 #
straight-curve $-1 86.73360393078401387 49.27534694126250514 6.409113532284980153 0 -1 0 I I #
coedge $-1 $171 $173 $103 $183 reversed $96 $-1 #
edge $-1 $186 -5.399884319246403663 $189 5.399884319246403663 $182 $238 forward 7 unknown #
coedge $-1 $177 $104 $109 $192 forward $169 $-1 #
coedge $-1 $104 $177 $171 $229 reversed $169 $-1 #
vertex $-1 $105 $239 #
straight-curve $-1 43.36680196539200693 54.6752312605089088 9.409113532284980153 -1 0 0 I I #
coedge $-1 $106 $172 $108 $191 reversed $50 $-1 #
vertex $-1 $183 $240 #
straight-curve $-1 43.36680196539200693 43.87546262201610148 9.409113532284980153 1 0 0 I I #
edge $-1 $111 -1.5 $180 1.5 $108 $241 forward 7 unknown #
edge $-1 $112 -1.5 $179 1.5 $109 $242 forward 7 unknown #
point $-1 86.73360393078401387 43.87546262201610148 9.409113532284980153 #
point $-1 86.73360393078401387 54.6752312605089088 9.409113532284980153 #
plane-surface $-1 86.73360393078401387 27.3376156302544544 9.437388431188370674 -1 0 0 0 0 1 forward_v I I I I #
coedge $-1 $119 $117 $121 $200 reversed $58 $-1 #
edge $-1 $132 -9.437388431188370674 $202 9.437388431188370674 $131 $243 forward 7 unknown #
vertex $-1 $200 $244 #
straight-curve $-1 0 0 9.437388431188370674 0 0 -1 I I #
edge $-1 $198 -27.3376156302544544 $202 27.3376156302544544 $196 $245 forward 7 unknown #
straight-curve $-1 43.36680196539200693 0 0 -1 0 0 I I #
vertex $-1 $124 $246 #
straight-curve $-1 43.36680196539200693 54.6752312605089088 0 1 0 0 I I #
point $-1 86.73360393078401387 54.6752312605089088 0 #
point $-1 86.73360393078401387 0 0 #
straight-curve $-1 0 27.3376156302544544 18.87477686237674135 0 -1 0 I I #
point $-1 0 54.6752312605089088 18.87477686237674135 #
point $-1 0 0 18.87477686237674135 #
straight-curve $-1 86.73360393078401387 0 9.437388431188370674 0 0 -1 I I #
straight-curve $-1 86.73360393078401387 54.6752312605089088 9.437388431188370674 0 0 -1 I I #
plane-surface $-1 86.73360393078401387 5.399884319246404552 7.909113532284980153 -1 0 0 0 0 1 forward_v I I I I #
coedge $-1 $146 $144 $148 $216 reversed $77 $-1 #
edge $-1 $159 -1.5 $218 1.5 $158 $247 forward 7 unknown #
vertex $-1 $216 $248 #
straight-curve $-1 0 0 7.909113532284980153 0 0 -1 I I #
edge $-1 $214 -5.399884319246404552 $218 5.399884319246404552 $212 $249 forward 7 unknown #
straight-curve $-1 43.36680196539200693 0 6.409113532284980153 -1 0 0 I I #
vertex $-1 $151 $250 #
straight-curve $-1 43.36680196539200693 10.7997686384928091 6.409113532284980153 1 0 0 I I #
point $-1 86.73360393078401387 10.7997686384928091 6.409113532284980153 #
point $-1 86.73360393078401387 0 6.409113532284980153 #
straight-curve $-1 0 5.399884319246404552 9.409113532284980153 0 -1 0 I I #
point $-1 0 10.7997686384928091 9.409113532284980153 #
point $-1 0 0 9.409113532284980153 #
straight-curve $-1 86.73360393078401387 0 7.909113532284980153 0 0 -1 I I #
straight-curve $-1 86.73360393078401387 10.7997686384928091 7.909113532284980153 0 0 -1 I I #
plane-surface $-1 86.73360393078401387 49.27534694126250514 7.909113532284980153 -1 0 0 0 0 1 forward_v I I I I #
coedge $-1 $173 $171 $175 $232 reversed $96 $-1 #
edge $-1 $186 -1.5 $234 1.5 $185 $251 forward 7 unknown #
vertex $-1 $232 $252 #
straight-curve $-1 0 43.87546262201610148 7.909113532284980153 0 0 -1 I I #
edge $-1 $230 -5.399884319246403663 $234 5.399884319246403663 $228 $253 forward 7 unknown #
straight-curve $-1 43.36680196539200693 43.87546262201610148 6.409113532284980153 -1 0 0 I I #
vertex $-1 $178 $254 #
straight-curve $-1 43.36680196539200693 54.6752312605089088 6.409113532284980153 1 0 0 I I #
point $-1 86.73360393078401387 54.6752312605089088 6.409113532284980153 #
point $-1 86.73360393078401387 43.87546262201610148 6.409113532284980153 #
straight-curve $-1 0 49.27534694126250514 9.409113532284980153 0 -1 0 I I #
point $-1 0 54.6752312605089088 9.409113532284980153 #
point $-1 0 43.87546262201610148 9.409113532284980153 #
straight-curve $-1 86.73360393078401387 43.87546262201610148 7.909113532284980153 0 0 -1 I I #
straight-curve $-1 86.73360393078401387 54.6752312605089088 7.909113532284980153 0 0 -1 I I #
straight-curve $-1 0 54.6752312605089088 9.437388431188370674 0 0 -1 I I #
point $-1 0 0 0 #
straight-curve $-1 0 27.3376156302544544 0 0 1 0 I I #
point $-1 0 54.6752312605089088 0 #
straight-curve $-1 0 10.7997686384928091 7.909113532284980153 0 0 -1 I I #
point $-1 0 0 6.409113532284980153 #
straight-curve $-1 0 5.399884319246404552 6.409113532284980153 0 1 0 I I #
point $-1 0 10.7997686384928091 6.409113532284980153 #
straight-curve $-1 0 54.6752312605089088 7.909113532284980153 0 0 -1 I I #
point $-1 0 43.87546262201610148 6.409113532284980153 #
straight-curve $-1 0 49.27534694126250514 6.409113532284980153 0 1 0 I I #
point $-1 0 54.6752312605089088 6.409113532284980153 #
End-of-ACIS-data 