300 0 16 0           
7 Unknown 11 ACIS 3.0 NT 24 Fri Oct 30 17:51:36 1998 
-1 9.9999999999999995e-007 1e-010 
body $16 $17 $-1 $18 #
body $19 $20 $-1 $21 #
body $22 $23 $-1 $24 #
body $25 $26 $-1 $27 #
body $28 $29 $-1 $30 #
body $31 $32 $-1 $33 #
body $34 $35 $-1 $36 #
body $37 $38 $-1 $39 #
body $40 $41 $-1 $42 #
body $43 $44 $-1 $45 #
body $46 $47 $-1 $48 #
body $49 $50 $-1 $51 #
body $52 $53 $-1 $54 #
body $55 $56 $-1 $57 #
body $58 $59 $-1 $60 #
body $61 $62 $-1 $63 #
display_attribute-st-attrib $-1 $64 $-1 $0 1 #
lump $-1 $-1 $65 $0 #
transform $-1 1 0 0 0 1 0 0 0 1 72.912381359294415 49.088744169891974 17.149375320780187 1 rotate no_reflect no_shear #
display_attribute-st-attrib $-1 $66 $-1 $1 3 #
lump $-1 $-1 $67 $1 #
transform $-1 1 0 0 0 1 0 0 0 1 72.912381359294415 49.088744169891974 17.149375320780187 1 rotate no_reflect no_shear #
display_attribute-st-attrib $-1 $68 $-1 $2 3 #
lump $-1 $-1 $69 $2 #
transform $-1 1 0 0 0 1 0 0 0 1 72.912381359294415 49.088744169891974 17.149375320780187 1 rotate no_reflect no_shear #
display_attribute-st-attrib $-1 $70 $-1 $3 3 #
lump $-1 $-1 $71 $3 #
transform $-1 1 0 0 0 1 0 0 0 1 72.912381359294415 49.088744169891974 17.149375320780187 1 rotate no_reflect no_shear #
display_attribute-st-attrib $-1 $72 $-1 $4 3 #
lump $-1 $-1 $73 $4 #
transform $-1 1 0 0 0 1 0 0 0 1 72.912381359294415 49.088744169891974 17.149375320780187 1 rotate no_reflect no_shear #
display_attribute-st-attrib $-1 $74 $-1 $5 3 #
lump $-1 $-1 $75 $5 #
transform $-1 1 0 0 0 1 0 0 0 1 72.912381359294415 49.088744169891974 17.149375320780187 1 rotate no_reflect no_shear #
display_attribute-st-attrib $-1 $76 $-1 $6 3 #
lump $-1 $-1 $77 $6 #
transform $-1 1 0 0 0 1 0 0 0 1 72.912381359294415 49.088744169891974 17.149375320780187 1 rotate no_reflect no_shear #
display_attribute-st-attrib $-1 $78 $-1 $7 3 #
lump $-1 $-1 $79 $7 #
transform $-1 1 0 0 0 1 0 0 0 1 72.912381359294415 49.088744169891974 17.149375320780187 1 rotate no_reflect no_shear #
display_attribute-st-attrib $-1 $80 $-1 $8 3 #
lump $-1 $-1 $81 $8 #
transform $-1 1 0 0 0 1 0 0 0 1 72.912381359294415 49.088744169891974 17.149375320780187 1 rotate no_reflect no_shear #
display_attribute-st-attrib $-1 $82 $-1 $9 3 #
lump $-1 $-1 $83 $9 #
transform $-1 1 0 0 0 1 0 0 0 1 72.912381359294415 49.088744169891974 17.149375320780187 1 rotate no_reflect no_shear #
display_attribute-st-attrib $-1 $84 $-1 $10 3 #
lump $-1 $-1 $85 $10 #
transform $-1 1 0 0 0 1 0 0 0 1 72.912381359294415 49.088744169891974 17.149375320780187 1 rotate no_reflect no_shear #
display_attribute-st-attrib $-1 $86 $-1 $11 3 #
lump $-1 $-1 $87 $11 #
transform $-1 1 0 0 0 1 0 0 0 1 72.912381359294415 49.088744169891974 17.149375320780187 1 rotate no_reflect no_shear #
display_attribute-st-attrib $-1 $88 $-1 $12 3 #
lump $-1 $-1 $89 $12 #
transform $-1 1 0 0 0 1 0 0 0 1 72.912381359294415 49.088744169891974 17.149375320780187 1 rotate no_reflect no_shear #
display_attribute-st-attrib $-1 $90 $-1 $13 3 #
lump $-1 $-1 $91 $13 #
transform $-1 1 0 0 0 1 0 0 0 1 72.912381359294415 49.088744169891974 17.149375320780187 1 rotate no_reflect no_shear #
display_attribute-st-attrib $-1 $92 $-1 $14 3 #
lump $-1 $-1 $93 $14 #
transform $-1 1 0 0 0 1 0 0 0 1 72.912381359294415 49.088744169891974 17.149375320780187 1 rotate no_reflect no_shear #
display_attribute-st-attrib $-1 $94 $-1 $15 3 #
lump $-1 $-1 $95 $15 #
transform $-1 1 0 0 0 1 0 0 0 1 72.912381359294415 49.088744169891974 17.149375320780187 1 rotate no_reflect no_shear #
id_attribute-st-attrib $-1 $-1 $16 $0 721 #
shell $-1 $-1 $-1 $96 $-1 $17 #
id_attribute-st-attrib $-1 $-1 $19 $1 726 #
shell $-1 $-1 $-1 $97 $-1 $20 #
id_attribute-st-attrib $-1 $-1 $22 $2 741 #
shell $-1 $-1 $-1 $98 $-1 $23 #
id_attribute-st-attrib $-1 $-1 $25 $3 749 #
shell $-1 $-1 $-1 $99 $-1 $26 #
id_attribute-st-attrib $-1 $-1 $28 $4 758 #
shell $-1 $-1 $-1 $100 $-1 $29 #
id_attribute-st-attrib $-1 $-1 $31 $5 768 #
shell $-1 $-1 $-1 $101 $-1 $32 #
id_attribute-st-attrib $-1 $-1 $34 $6 779 #
shell $-1 $-1 $-1 $102 $-1 $35 #
id_attribute-st-attrib $-1 $-1 $37 $7 791 #
shell $-1 $-1 $-1 $103 $-1 $38 #
id_attribute-st-attrib $-1 $-1 $40 $8 809 #
shell $-1 $-1 $-1 $104 $-1 $41 #
id_attribute-st-attrib $-1 $-1 $43 $9 823 #
shell $-1 $-1 $-1 $105 $-1 $44 #
id_attribute-st-attrib $-1 $-1 $46 $10 840 #
shell $-1 $-1 $-1 $106 $-1 $47 #
id_attribute-st-attrib $-1 $-1 $49 $11 856 #
shell $-1 $-1 $-1 $107 $-1 $50 #
id_attribute-st-attrib $-1 $-1 $52 $12 875 #
shell $-1 $-1 $-1 $108 $-1 $53 #
id_attribute-st-attrib $-1 $-1 $55 $13 893 #
shell $-1 $-1 $-1 $109 $-1 $56 #
id_attribute-st-attrib $-1 $-1 $58 $14 912 #
shell $-1 $-1 $-1 $110 $-1 $59 #
id_attribute-st-attrib $-1 $-1 $61 $15 932 #
shell $-1 $-1 $-1 $111 $-1 $62 #
face $-1 $112 $113 $65 $-1 $114 forward single #
face $-1 $115 $116 $67 $-1 $117 forward single #
face $-1 $118 $119 $69 $-1 $120 reversed single #
face $-1 $121 $122 $71 $-1 $123 forward single #
face $-1 $124 $125 $73 $-1 $126 forward single #
face $-1 $127 $128 $75 $-1 $129 reversed single #
face $-1 $130 $131 $77 $-1 $132 forward single #
face $-1 $133 $134 $79 $-1 $135 forward single #
face $-1 $136 $137 $81 $-1 $138 reversed single #
face $-1 $139 $140 $83 $-1 $141 forward single #
face $-1 $142 $143 $85 $-1 $144 reversed single #
face $-1 $145 $146 $87 $-1 $147 forward single #
face $-1 $148 $149 $89 $-1 $150 reversed single #
face $-1 $151 $152 $91 $-1 $153 forward single #
face $-1 $154 $155 $93 $-1 $156 reversed single #
face $-1 $157 $158 $95 $-1 $159 forward single #
face $-1 $160 $161 $65 $-1 $162 reversed single #
loop $-1 $-1 $163 $96 #
plane-surface $-1 0 0 17.149375320780187 0 0 1 1 0 0 forward_v I I I I #
face $-1 $164 $165 $67 $-1 $166 reversed single #
loop $-1 $-1 $167 $97 #
plane-surface $-1 -65.940121656938089 0 -13.228576032530036 0 0 1 1 0 0 forward_v I I I I #
face $-1 $168 $169 $69 $-1 $170 reversed single #
loop $-1 $-1 $171 $98 #
plane-surface $-1 -35.827100551535835 97.689722442614936 171.40403113190584 1 0 0 0 -0.7660444514056185 -0.64278759981090561 forward_v I I I I #
face $-1 $172 $173 $71 $-1 $174 forward single #
loop $-1 $175 $176 $99 #
cone-surface $-1 -30.753164739931108 40.17193195578875 7.494103067797016 0 -0.7660444514056185 -0.64278759981090561 2 0 0 1 I I 0 1 forward I I I I #
face $-1 $177 $178 $73 $-1 $179 forward single #
loop $-1 $180 $181 $100 #
cone-surface $-1 -23.142261022524025 40.17193195578875 7.494103067797016 0 -0.7660444514056185 -0.64278759981090561 2 0 0 1 I I 0 1 forward I I I I #
face $-1 $182 $183 $75 $-1 $184 reversed single #
loop $-1 $-1 $185 $101 #
plane-surface $-1 30.113021105402257 97.689722442614936 171.40403113190584 1 0 0 0 -0.7660444514056185 -0.64278759981090561 forward_v I I I I #
face $-1 $186 $187 $77 $-1 $188 forward single #
loop $-1 $189 $190 $102 #
cone-surface $-1 35.186956917006981 40.17193195578875 7.494103067797016 0 -0.7660444514056185 -0.64278759981090561 2 0 0 1 I I 0 1 forward I I I I #
face $-1 $191 $192 $79 $-1 $193 forward single #
loop $-1 $194 $195 $103 #
cone-surface $-1 42.797860634414064 40.17193195578875 7.494103067797016 0 -0.7660444514056185 -0.64278759981090561 2 0 0 1 I I 0 1 forward I I I I #
face $-1 $196 $197 $81 $-1 $198 reversed single #
loop $-1 $-1 $199 $104 #
plane-surface $-1 -37.877734775852431 -162.41587080380583 103.98359931327747 -1 0 0 0 -0.77714596973225614 0.62932038083071107 forward_v I I I I #
face $-1 $200 $201 $83 $-1 $202 forward single #
loop $-1 $203 $204 $105 #
cone-surface $-1 -46.195664456650341 -45.969182369450664 13.77354872732856 0 0.77714596973225614 -0.62932038083071107 1 0 0 1 I I 0 1 forward I I I I #
face $-1 $205 $206 $85 $-1 $207 reversed single #
loop $-1 $-1 $208 $106 #
plane-surface $-1 -2.4324520031813179 -162.41587080380583 103.98359931327747 -1 0 0 0 -0.77714596973225614 0.62932038083071107 forward_v I I I I #
face $-1 $209 $210 $87 $-1 $211 forward single #
loop $-1 $212 $213 $107 #
cone-surface $-1 -10.750381683979228 -45.969182369450664 13.77354872732856 0 0.77714596973225614 -0.62932038083071107 1 0 0 1 I I 0 1 forward I I I I #
face $-1 $214 $215 $89 $-1 $216 reversed single #
loop $-1 $-1 $217 $108 #
plane-surface $-1 33.012830769489803 -162.41587080380583 103.98359931327747 -1 0 0 0 -0.77714596973225614 0.62932038083071107 forward_v I I I I #
face $-1 $218 $219 $91 $-1 $220 forward single #
loop $-1 $221 $222 $109 #
cone-surface $-1 24.694901088691893 -45.969182369450664 13.77354872732856 0 0.77714596973225614 -0.62932038083071107 1 0 0 1 I I 0 1 forward I I I I #
face $-1 $223 $224 $93 $-1 $225 reversed single #
loop $-1 $-1 $226 $110 #
plane-surface $-1 68.458113542160902 -162.41587080380583 103.98359931327747 -1 0 0 0 -0.77714596973225614 0.62932038083071107 forward_v I I I I #
face $-1 $227 $228 $95 $-1 $229 forward single #
loop $-1 $230 $231 $111 #
cone-surface $-1 60.140183861362999 -45.969182369450664 13.77354872732856 0 0.77714596973225614 -0.62932038083071107 1 0 0 1 I I 0 1 forward I I I I #
face $-1 $232 $233 $65 $-1 $234 reversed single #
loop $-1 $-1 $235 $112 #
plane-surface $-1 0 0 -17.149375320780187 0 0 1 1 0 0 forward_v I I I I #
coedge $-1 $236 $237 $238 $239 forward $113 $-1 #
face $-1 $240 $241 $67 $-1 $242 reversed single #
loop $-1 $-1 $243 $115 #
plane-surface $-1 -58.967861954581757 0 -15.188975676655112 -1 0 0 0 0 1 forward_v I I I I #
coedge $-1 $244 $245 $246 $247 forward $116 $-1 #
face $-1 $248 $249 $69 $-1 $250 reversed single #
loop $-1 $-1 $251 $118 #
plane-surface $-1 -26.947712881227574 -14.018527915500925 77.669681911029301 0 0.7660444514056185 0.64278759981090561 1 0 0 forward_v I I I I #
coedge $-1 $252 $253 $254 $255 reversed $119 $-1 #
face $-1 $-1 $256 $71 $-1 $257 forward single #
loop $-1 $258 $259 $121 #
cone-surface $-1 -30.753164739931108 36.651428528443624 4.5400500176940213 0 -0.7660444514056185 -0.64278759981090561 1 0 0 1 I I -0.70710678118654746 0.70710678118654746 forward I I I I #
loop $-1 $-1 $260 $99 #
coedge $-1 $176 $176 $261 $262 reversed $122 $-1 #
face $-1 $-1 $263 $73 $-1 $264 forward single #
loop $-1 $265 $266 $124 #
cone-surface $-1 -23.142261022524025 36.651428528443624 4.5400500176940213 0 -0.7660444514056185 -0.64278759981090561 1 0 0 1 I I -0.70710678118654746 0.70710678118654746 forward I I I I #
loop $-1 $-1 $267 $100 #
coedge $-1 $181 $181 $268 $269 reversed $125 $-1 #
face $-1 $270 $271 $75 $-1 $272 reversed single #
loop $-1 $-1 $273 $127 #
plane-surface $-1 38.992408775710516 -14.018527915500925 77.669681911029301 0 0.7660444514056185 0.64278759981090561 1 0 0 forward_v I I I I #
coedge $-1 $274 $275 $276 $277 reversed $128 $-1 #
face $-1 $-1 $278 $77 $-1 $279 forward single #
loop $-1 $280 $281 $130 #
cone-surface $-1 35.186956917006981 36.651428528443624 4.5400500176940213 0 -0.7660444514056185 -0.64278759981090561 1 0 0 1 I I -0.70710678118654746 0.70710678118654746 forward I I I I #
loop $-1 $-1 $282 $102 #
coedge $-1 $190 $190 $283 $284 reversed $131 $-1 #
face $-1 $-1 $285 $79 $-1 $286 forward single #
loop $-1 $287 $288 $133 #
cone-surface $-1 42.797860634414064 36.651428528443624 4.5400500176940213 0 -0.7660444514056185 -0.64278759981090561 1 0 0 1 I I -0.70710678118654746 0.70710678118654746 forward I I I I #
loop $-1 $-1 $289 $103 #
coedge $-1 $195 $195 $290 $291 reversed $134 $-1 #
face $-1 $292 $293 $81 $-1 $294 reversed single #
loop $-1 $-1 $295 $136 #
plane-surface $-1 -46.195664456650341 -49.088744169891967 12.213104104667067 0 -0.77714596973225614 0.62932038083071107 1 0 0 forward_v I I I I #
coedge $-1 $296 $297 $298 $299 reversed $137 $-1 #
face $-1 $-1 $300 $83 $-1 $301 forward single #
loop $-1 $302 $303 $139 #
cone-surface $-1 -46.195664456650341 -44.45970433757028 12.551197551518136 0 0.77714596973225614 -0.62932038083071107 0.5 0 0 1 I I -0.70710678118654746 0.70710678118654746 forward I I I I #
loop $-1 $-1 $304 $105 #
coedge $-1 $204 $204 $305 $306 reversed $140 $-1 #
face $-1 $307 $308 $85 $-1 $309 reversed single #
loop $-1 $-1 $310 $142 #
plane-surface $-1 -10.750381683979228 -49.088744169891967 12.213104104667067 0 -0.77714596973225614 0.62932038083071107 1 0 0 forward_v I I I I #
coedge $-1 $311 $312 $313 $314 reversed $143 $-1 #
face $-1 $-1 $315 $87 $-1 $316 forward single #
loop $-1 $317 $318 $145 #
cone-surface $-1 -10.750381683979228 -44.45970433757028 12.551197551518136 0 0.77714596973225614 -0.62932038083071107 0.5 0 0 1 I I -0.70710678118654746 0.70710678118654746 forward I I I I #
loop $-1 $-1 $319 $107 #
coedge $-1 $213 $213 $320 $321 reversed $146 $-1 #
face $-1 $322 $323 $89 $-1 $324 reversed single #
loop $-1 $-1 $325 $148 #
plane-surface $-1 24.694901088691893 -49.088744169891967 12.213104104667067 0 -0.77714596973225614 0.62932038083071107 1 0 0 forward_v I I I I #
coedge $-1 $326 $327 $328 $329 reversed $149 $-1 #
face $-1 $-1 $330 $91 $-1 $331 forward single #
loop $-1 $332 $333 $151 #
cone-surface $-1 24.694901088691893 -44.45970433757028 12.551197551518136 0 0.77714596973225614 -0.62932038083071107 0.5 0 0 1 I I -0.70710678118654746 0.70710678118654746 forward I I I I #
loop $-1 $-1 $334 $109 #
coedge $-1 $222 $222 $335 $336 reversed $152 $-1 #
face $-1 $337 $338 $93 $-1 $339 reversed single #
loop $-1 $-1 $340 $154 #
plane-surface $-1 60.140183861362999 -49.088744169891967 12.213104104667067 0 -0.77714596973225614 0.62932038083071107 1 0 0 forward_v I I I I #
coedge $-1 $341 $342 $343 $344 reversed $155 $-1 #
face $-1 $-1 $345 $95 $-1 $346 forward single #
loop $-1 $347 $348 $157 #
cone-surface $-1 60.140183861362999 -44.45970433757028 12.551197551518136 0 0.77714596973225614 -0.62932038083071107 0.5 0 0 1 I I -0.70710678118654746 0.70710678118654746 forward I I I I #
loop $-1 $-1 $349 $111 #
coedge $-1 $231 $231 $350 $351 reversed $158 $-1 #
face $-1 $352 $353 $65 $-1 $354 reversed single #
loop $-1 $-1 $355 $160 #
plane-surface $-1 0 -49.088744169891974 0 0 1 0 0 0 1 forward_v I I I I #
coedge $-1 $356 $357 $358 $359 forward $161 $-1 #
coedge $-1 $360 $163 $361 $362 forward $113 $-1 #
coedge $-1 $163 $360 $363 $364 forward $113 $-1 #
coedge $-1 $365 $366 $163 $239 reversed $367 $-1 #
edge $-1 $368 $369 $238 $370 forward #
face $-1 $371 $372 $67 $-1 $373 reversed single #
loop $-1 $-1 $374 $164 #
plane-surface $-1 0 0 -17.149375320780187 0 0 1 1 0 0 forward_v I I I I #
coedge $-1 $375 $246 $376 $377 reversed $165 $-1 #
coedge $-1 $378 $167 $379 $380 reversed $116 $-1 #
coedge $-1 $167 $378 $381 $382 reversed $116 $-1 #
coedge $-1 $243 $383 $167 $247 reversed $165 $-1 #
edge $-1 $384 $385 $246 $386 forward #
face $-1 $387 $388 $69 $-1 $389 reversed single #
loop $-1 $-1 $390 $168 #
plane-surface $-1 -18.068325210919316 97.689722442614936 171.40403113190584 -1 0 0 0 0.7660444514056185 0.64278759981090561 forward_v I I I I #
coedge $-1 $391 $392 $393 $394 reversed $169 $-1 #
coedge $-1 $253 $171 $395 $396 reversed $119 $-1 #
coedge $-1 $171 $252 $391 $397 reversed $119 $-1 #
coedge $-1 $393 $398 $171 $255 forward $399 $-1 #
edge $-1 $400 $401 $254 $402 forward #
loop $-1 $-1 $261 $172 #
plane-surface $-1 -26.947712881227574 -14.018527915500925 77.669681911029301 0 0.7660444514056185 0.64278759981090561 1 0 0 forward_v I I I I #
loop $-1 $-1 $403 $121 #
coedge $-1 $259 $259 $260 $404 reversed $173 $-1 #
coedge $-1 $260 $260 $259 $404 forward $175 $-1 #
coedge $-1 $261 $261 $176 $262 forward $256 $-1 #
edge $-1 $405 $405 $261 $406 forward #
loop $-1 $-1 $268 $177 #
plane-surface $-1 -26.947712881227574 -14.018527915500925 77.669681911029301 0 0.7660444514056185 0.64278759981090561 1 0 0 forward_v I I I I #
loop $-1 $-1 $407 $124 #
coedge $-1 $266 $266 $267 $408 reversed $178 $-1 #
coedge $-1 $267 $267 $266 $408 forward $180 $-1 #
coedge $-1 $268 $268 $181 $269 forward $263 $-1 #
edge $-1 $409 $409 $268 $410 forward #
face $-1 $411 $412 $75 $-1 $413 forward single #
loop $-1 $-1 $414 $182 #
plane-surface $-1 47.871796446018777 97.689722442614936 171.40403113190584 -1 0 0 0 0.7660444514056185 0.64278759981090561 forward_v I I I I #
coedge $-1 $415 $416 $417 $418 reversed $183 $-1 #
coedge $-1 $275 $185 $419 $420 reversed $128 $-1 #
coedge $-1 $185 $274 $415 $421 reversed $128 $-1 #
coedge $-1 $417 $422 $185 $277 forward $412 $-1 #
edge $-1 $423 $424 $276 $425 forward #
loop $-1 $-1 $283 $186 #
plane-surface $-1 38.992408775710516 -14.018527915500925 77.669681911029301 0 0.7660444514056185 0.64278759981090561 1 0 0 forward_v I I I I #
loop $-1 $-1 $426 $130 #
coedge $-1 $281 $281 $282 $427 reversed $187 $-1 #
coedge $-1 $282 $282 $281 $427 forward $189 $-1 #
coedge $-1 $283 $283 $190 $284 forward $278 $-1 #
edge $-1 $428 $428 $283 $429 forward #
loop $-1 $-1 $290 $191 #
plane-surface $-1 38.992408775710516 -14.018527915500925 77.669681911029301 0 0.7660444514056185 0.64278759981090561 1 0 0 forward_v I I I I #
loop $-1 $-1 $430 $133 #
coedge $-1 $288 $288 $289 $431 reversed $192 $-1 #
coedge $-1 $289 $289 $288 $431 forward $194 $-1 #
coedge $-1 $290 $290 $195 $291 forward $285 $-1 #
edge $-1 $432 $432 $290 $433 forward #
face $-1 $434 $435 $81 $-1 $436 forward single #
loop $-1 $-1 $437 $196 #
plane-surface $-1 -54.513594137448251 -162.41587080380583 103.98359931327747 1 0 0 0 0.77714596973225614 -0.62932038083071107 forward_v I I I I #
coedge $-1 $438 $439 $440 $441 reversed $197 $-1 #
coedge $-1 $297 $199 $442 $443 reversed $137 $-1 #
coedge $-1 $199 $296 $438 $444 reversed $137 $-1 #
coedge $-1 $440 $445 $199 $299 forward $435 $-1 #
edge $-1 $446 $447 $298 $448 forward #
loop $-1 $-1 $305 $200 #
plane-surface $-1 -46.195664456650341 -49.088744169891967 12.213104104667067 0 -0.77714596973225614 0.62932038083071107 1 0 0 forward_v I I I I #
loop $-1 $-1 $449 $139 #
coedge $-1 $303 $303 $304 $450 reversed $201 $-1 #
coedge $-1 $304 $304 $303 $450 forward $203 $-1 #
coedge $-1 $305 $305 $204 $306 forward $300 $-1 #
edge $-1 $451 $451 $305 $452 forward #
face $-1 $453 $454 $85 $-1 $455 reversed single #
loop $-1 $-1 $456 $205 #
plane-surface $-1 -19.068311364777138 -162.41587080380583 103.98359931327747 1 0 0 0 0.77714596973225614 -0.62932038083071107 forward_v I I I I #
coedge $-1 $457 $458 $459 $460 reversed $206 $-1 #
coedge $-1 $312 $208 $461 $462 reversed $143 $-1 #
coedge $-1 $208 $311 $457 $463 reversed $143 $-1 #
coedge $-1 $459 $464 $208 $314 forward $465 $-1 #
edge $-1 $466 $467 $313 $468 forward #
loop $-1 $-1 $320 $209 #
plane-surface $-1 -10.750381683979228 -49.088744169891967 12.213104104667067 0 -0.77714596973225614 0.62932038083071107 1 0 0 forward_v I I I I #
loop $-1 $-1 $469 $145 #
coedge $-1 $318 $318 $319 $470 reversed $210 $-1 #
coedge $-1 $319 $319 $318 $470 forward $212 $-1 #
coedge $-1 $320 $320 $213 $321 forward $315 $-1 #
edge $-1 $471 $471 $320 $472 forward #
face $-1 $473 $474 $89 $-1 $475 reversed single #
loop $-1 $-1 $476 $214 #
plane-surface $-1 16.376971407893983 -162.41587080380583 103.98359931327747 1 0 0 0 0.77714596973225614 -0.62932038083071107 forward_v I I I I #
coedge $-1 $477 $478 $479 $480 reversed $215 $-1 #
coedge $-1 $327 $217 $481 $482 reversed $149 $-1 #
coedge $-1 $217 $326 $477 $483 reversed $149 $-1 #
coedge $-1 $479 $484 $217 $329 forward $485 $-1 #
edge $-1 $486 $487 $328 $488 forward #
loop $-1 $-1 $335 $218 #
plane-surface $-1 24.694901088691893 -49.088744169891967 12.213104104667067 0 -0.77714596973225614 0.62932038083071107 1 0 0 forward_v I I I I #
loop $-1 $-1 $489 $151 #
coedge $-1 $333 $333 $334 $490 reversed $219 $-1 #
coedge $-1 $334 $334 $333 $490 forward $221 $-1 #
coedge $-1 $335 $335 $222 $336 forward $330 $-1 #
edge $-1 $491 $491 $335 $492 forward #
face $-1 $493 $494 $93 $-1 $495 reversed single #
loop $-1 $-1 $496 $223 #
plane-surface $-1 51.822254180565089 -162.41587080380583 103.98359931327747 1 0 0 0 0.77714596973225614 -0.62932038083071107 forward_v I I I I #
coedge $-1 $497 $498 $499 $500 reversed $224 $-1 #
coedge $-1 $342 $226 $501 $502 reversed $155 $-1 #
coedge $-1 $226 $341 $497 $503 reversed $155 $-1 #
coedge $-1 $499 $504 $226 $344 forward $505 $-1 #
edge $-1 $506 $507 $343 $508 forward #
loop $-1 $-1 $350 $227 #
plane-surface $-1 60.140183861362999 -49.088744169891967 12.213104104667067 0 -0.77714596973225614 0.62932038083071107 1 0 0 forward_v I I I I #
loop $-1 $-1 $509 $157 #
coedge $-1 $348 $348 $349 $510 reversed $228 $-1 #
coedge $-1 $349 $349 $348 $510 forward $230 $-1 #
coedge $-1 $350 $350 $231 $351 forward $345 $-1 #
edge $-1 $511 $511 $350 $512 forward #
face $-1 $513 $514 $65 $-1 $515 reversed single #
loop $-1 $-1 $516 $232 #
plane-surface $-1 -72.912381359294415 0 0 1 0 0 0 0 -1 forward_v I I I I #
coedge $-1 $517 $363 $518 $519 forward $233 $-1 #
coedge $-1 $520 $235 $517 $521 forward $161 $-1 #
coedge $-1 $235 $520 $522 $523 forward $161 $-1 #
coedge $-1 $366 $365 $235 $359 reversed $367 $-1 #
edge $-1 $524 $525 $358 $526 forward #
coedge $-1 $237 $236 $527 $528 forward $113 $-1 #
coedge $-1 $529 $530 $236 $362 reversed $514 $-1 #
edge $-1 $369 $531 $361 $532 forward #
coedge $-1 $355 $533 $237 $364 reversed $233 $-1 #
edge $-1 $534 $368 $363 $535 forward #
coedge $-1 $358 $238 $533 $536 forward $367 $-1 #
coedge $-1 $238 $358 $529 $537 reversed $367 $-1 #
loop $-1 $-1 $365 $513 #
vertex $-1 $239 $538 #
vertex $-1 $239 $539 #
straight-curve $-1 72.912381359294415 0 17.149375320780187 0 1 0 I I #
face $-1 $540 $541 $67 $-1 $542 reversed single #
loop $-1 $-1 $376 $240 #
plane-surface $-1 0 -49.088744169891974 0 0 1 0 0 0 1 forward_v I I I I #
coedge $-1 $543 $544 $375 $545 forward $241 $-1 #
coedge $-1 $383 $243 $374 $545 reversed $165 $-1 #
coedge $-1 $381 $546 $243 $377 forward $372 $-1 #
edge $-1 $547 $384 $376 $548 forward #
coedge $-1 $245 $244 $549 $550 reversed $116 $-1 #
coedge $-1 $551 $552 $244 $380 forward $553 $-1 #
edge $-1 $554 $385 $379 $555 forward #
coedge $-1 $556 $376 $245 $382 forward $372 $-1 #
edge $-1 $384 $557 $381 $558 forward #
coedge $-1 $246 $375 $551 $559 reversed $165 $-1 #
vertex $-1 $382 $560 #
vertex $-1 $380 $561 #
straight-curve $-1 -58.967861954581757 0 -13.228576032530036 0 1 0 I I #
face $-1 $-1 $399 $69 $-1 $562 forward single #
loop $-1 $-1 $563 $248 #
plane-surface $-1 0 49.088744169891974 0 0 -1 0 0 0 -1 forward_v I I I I #
coedge $-1 $564 $565 $566 $567 reversed $249 $-1 #
coedge $-1 $568 $251 $253 $397 forward $169 $-1 #
coedge $-1 $251 $568 $564 $569 forward $169 $-1 #
coedge $-1 $566 $254 $251 $394 forward $399 $-1 #
edge $-1 $401 $570 $393 $571 forward #
coedge $-1 $572 $573 $252 $396 forward $388 $-1 #
edge $-1 $574 $400 $395 $575 forward #
edge $-1 $401 $574 $253 $576 forward #
coedge $-1 $254 $566 $572 $577 forward $399 $-1 #
loop $-1 $-1 $566 $387 #
vertex $-1 $396 $578 #
vertex $-1 $255 $579 #
straight-curve $-1 -35.827100551535835 48.844861221307468 17.149375320780194 0 -1 0 I I #
coedge $-1 $403 $403 $-1 $580 reversed $258 $-1 #
edge $-1 $581 $581 $259 $582 forward #
vertex $-1 $262 $583 #
ellipse-curve $-1 -30.753164739931108 42.926390931728243 9.8053685180890895 0 0.7660444514056185 0.64278759981090561 2 0 0 1 I I #
coedge $-1 $407 $407 $-1 $584 reversed $265 $-1 #
edge $-1 $585 $585 $266 $586 forward #
vertex $-1 $269 $587 #
ellipse-curve $-1 -23.142261022524025 42.926390931728243 9.8053685180890895 0 0.7660444514056185 0.64278759981090561 2 0 0 1 I I #
face $-1 $-1 $588 $75 $-1 $589 reversed single #
loop $-1 $-1 $276 $270 #
plane-surface $-1 0 0 17.149375320780187 0 0 1 1 0 0 forward_v I I I I #
coedge $-1 $590 $591 $592 $593 reversed $271 $-1 #
coedge $-1 $594 $273 $275 $421 forward $183 $-1 #
coedge $-1 $273 $594 $590 $595 forward $183 $-1 #
coedge $-1 $592 $276 $273 $418 forward $412 $-1 #
edge $-1 $424 $596 $417 $597 forward #
coedge $-1 $598 $599 $274 $420 forward $588 $-1 #
edge $-1 $600 $423 $419 $601 forward #
edge $-1 $424 $600 $275 $602 forward #
coedge $-1 $276 $592 $598 $603 forward $412 $-1 #
vertex $-1 $277 $604 #
vertex $-1 $277 $605 #
straight-curve $-1 30.113021105402257 48.844861221307468 17.149375320780194 0 -1 0 I I #
coedge $-1 $426 $426 $-1 $606 reversed $280 $-1 #
edge $-1 $607 $607 $281 $608 forward #
vertex $-1 $284 $609 #
ellipse-curve $-1 35.186956917006981 42.926390931728243 9.8053685180890895 0 0.7660444514056185 0.64278759981090561 2 0 0 1 I I #
coedge $-1 $430 $430 $-1 $610 reversed $287 $-1 #
edge $-1 $611 $611 $288 $612 forward #
vertex $-1 $291 $613 #
ellipse-curve $-1 42.797860634414064 42.926390931728243 9.8053685180890895 0 0.7660444514056185 0.64278759981090561 2 0 0 1 I I #
face $-1 $-1 $614 $81 $-1 $615 reversed single #
loop $-1 $-1 $298 $292 #
plane-surface $-1 0 0 17.149375320780187 0 0 1 1 0 0 forward_v I I I I #
coedge $-1 $616 $617 $618 $619 reversed $293 $-1 #
coedge $-1 $620 $295 $297 $444 forward $197 $-1 #
coedge $-1 $295 $620 $616 $621 forward $197 $-1 #
coedge $-1 $618 $298 $295 $441 forward $435 $-1 #
edge $-1 $447 $622 $440 $623 forward #
coedge $-1 $624 $625 $296 $443 forward $614 $-1 #
edge $-1 $626 $446 $442 $627 forward #
edge $-1 $447 $626 $297 $628 forward #
coedge $-1 $298 $618 $624 $629 forward $435 $-1 #
vertex $-1 $299 $630 #
vertex $-1 $299 $631 #
straight-curve $-1 -37.877734775852431 -81.207935401902915 17.149375320780187 0 1 0 I I #
coedge $-1 $449 $449 $-1 $632 reversed $302 $-1 #
edge $-1 $633 $633 $303 $634 forward #
vertex $-1 $306 $635 #
ellipse-curve $-1 -46.195664456650341 -47.090087416464911 14.681239712723624 0 -0.77714596973225614 0.62932038083071107 1 0 0 1 I I #
face $-1 $-1 $465 $85 $-1 $636 forward single #
loop $-1 $-1 $637 $307 #
plane-surface $-1 0 -49.088744169891974 0 0 1 0 0 0 1 forward_v I I I I #
coedge $-1 $638 $639 $640 $641 reversed $308 $-1 #
coedge $-1 $642 $310 $312 $463 forward $206 $-1 #
coedge $-1 $310 $642 $638 $643 forward $206 $-1 #
coedge $-1 $640 $313 $310 $460 forward $465 $-1 #
edge $-1 $467 $644 $459 $645 forward #
coedge $-1 $646 $647 $311 $462 forward $454 $-1 #
edge $-1 $648 $466 $461 $649 forward #
edge $-1 $467 $648 $312 $650 forward #
coedge $-1 $313 $640 $646 $651 forward $465 $-1 #
loop $-1 $-1 $640 $453 #
vertex $-1 $462 $652 #
vertex $-1 $314 $653 #
straight-curve $-1 -2.4324520031813179 -81.207935401902915 17.149375320780187 0 1 0 I I #
coedge $-1 $469 $469 $-1 $654 reversed $317 $-1 #
edge $-1 $655 $655 $318 $656 forward #
vertex $-1 $321 $657 #
ellipse-curve $-1 -10.750381683979228 -47.090087416464911 14.681239712723624 0 -0.77714596973225614 0.62932038083071107 1 0 0 1 I I #
face $-1 $-1 $485 $89 $-1 $658 forward single #
loop $-1 $-1 $659 $322 #
plane-surface $-1 0 -49.088744169891974 0 0 1 0 0 0 1 forward_v I I I I #
coedge $-1 $660 $661 $662 $663 reversed $323 $-1 #
coedge $-1 $664 $325 $327 $483 forward $215 $-1 #
coedge $-1 $325 $664 $660 $665 forward $215 $-1 #
coedge $-1 $662 $328 $325 $480 forward $485 $-1 #
edge $-1 $487 $666 $479 $667 forward #
coedge $-1 $668 $669 $326 $482 forward $474 $-1 #
edge $-1 $670 $486 $481 $671 forward #
edge $-1 $487 $670 $327 $672 forward #
coedge $-1 $328 $662 $668 $673 forward $485 $-1 #
loop $-1 $-1 $662 $473 #
vertex $-1 $482 $674 #
vertex $-1 $329 $675 #
straight-curve $-1 33.012830769489803 -81.207935401902915 17.149375320780187 0 1 0 I I #
coedge $-1 $489 $489 $-1 $676 reversed $332 $-1 #
edge $-1 $677 $677 $333 $678 forward #
vertex $-1 $336 $679 #
ellipse-curve $-1 24.694901088691893 -47.090087416464911 14.681239712723624 0 -0.77714596973225614 0.62932038083071107 1 0 0 1 I I #
face $-1 $-1 $505 $93 $-1 $680 forward single #
loop $-1 $-1 $681 $337 #
plane-surface $-1 0 -49.088744169891974 0 0 1 0 0 0 1 forward_v I I I I #
coedge $-1 $682 $683 $684 $685 reversed $338 $-1 #
coedge $-1 $686 $340 $342 $503 forward $224 $-1 #
coedge $-1 $340 $686 $682 $687 forward $224 $-1 #
coedge $-1 $684 $343 $340 $500 forward $505 $-1 #
edge $-1 $507 $688 $499 $689 forward #
coedge $-1 $690 $691 $341 $502 forward $494 $-1 #
edge $-1 $692 $506 $501 $693 forward #
edge $-1 $507 $692 $342 $694 forward #
coedge $-1 $343 $684 $690 $695 forward $505 $-1 #
loop $-1 $-1 $684 $493 #
vertex $-1 $502 $696 #
vertex $-1 $344 $697 #
straight-curve $-1 68.458113542160902 -81.207935401902915 17.149375320780187 0 1 0 I I #
coedge $-1 $509 $509 $-1 $698 reversed $347 $-1 #
edge $-1 $699 $699 $348 $700 forward #
vertex $-1 $351 $701 #
ellipse-curve $-1 60.140183861362999 -47.090087416464911 14.681239712723624 0 -0.77714596973225614 0.62932038083071107 1 0 0 1 I I #
face $-1 $-1 $367 $65 $-1 $702 reversed single #
loop $-1 $-1 $529 $352 #
plane-surface $-1 0 49.088744169891974 0 0 -1 0 0 0 -1 forward_v I I I I #
coedge $-1 $703 $527 $530 $704 forward $353 $-1 #
coedge $-1 $533 $355 $356 $521 reversed $233 $-1 #
coedge $-1 $527 $703 $355 $519 reversed $353 $-1 #
edge $-1 $534 $705 $518 $706 forward #
coedge $-1 $357 $356 $703 $707 forward $161 $-1 #
edge $-1 $525 $705 $517 $708 forward #
coedge $-1 $530 $529 $357 $523 reversed $514 $-1 #
edge $-1 $709 $524 $522 $710 forward #
vertex $-1 $359 $711 #
vertex $-1 $536 $712 #
straight-curve $-1 72.912381359294415 0 -17.149375320780187 0 -1 0 I I #
coedge $-1 $516 $518 $360 $528 reversed $353 $-1 #
edge $-1 $531 $534 $527 $713 forward #
coedge $-1 $522 $361 $366 $537 forward $514 $-1 #
coedge $-1 $361 $522 $516 $704 reversed $514 $-1 #
vertex $-1 $362 $714 #
straight-curve $-1 0 49.088744169891974 17.149375320780187 -1 0 0 I I #
coedge $-1 $363 $517 $365 $536 reversed $233 $-1 #
vertex $-1 $528 $715 #
straight-curve $-1 0 -49.088744169891974 17.149375320780187 1 0 0 I I #
edge $-1 $368 $525 $365 $716 forward #
edge $-1 $369 $524 $366 $717 forward #
point $-1 72.912381359294415 -49.088744169891974 17.149375320780187 #
point $-1 72.912381359294415 49.088744169891974 17.149375320780187 #
face $-1 $-1 $553 $67 $-1 $718 reversed single #
loop $-1 $-1 $549 $371 #
plane-surface $-1 -72.912381359294415 0 0 1 0 0 0 0 -1 forward_v I I I I #
coedge $-1 $719 $374 $546 $720 forward $241 $-1 #
coedge $-1 $374 $719 $721 $722 forward $241 $-1 #
edge $-1 $723 $547 $374 $724 forward #
coedge $-1 $376 $556 $543 $720 reversed $372 $-1 #
vertex $-1 $720 $725 #
straight-curve $-1 -58.967861954581757 -49.088744169891974 -7.5944878383275558 0 0 1 I I #
coedge $-1 $726 $727 $378 $550 forward $541 $-1 #
edge $-1 $557 $554 $549 $728 forward #
coedge $-1 $721 $379 $383 $559 forward $553 $-1 #
coedge $-1 $379 $721 $726 $729 reversed $553 $-1 #
loop $-1 $-1 $551 $540 #
vertex $-1 $729 $730 #
straight-curve $-1 -32.970060828469045 49.088744169891974 -13.228576032530036 1 0 0 I I #
coedge $-1 $546 $381 $727 $731 forward $372 $-1 #
vertex $-1 $731 $732 #
straight-curve $-1 -32.970060828469045 -49.088744169891974 -13.228576032530036 -1 0 0 I I #
edge $-1 $385 $723 $551 $733 forward #
point $-1 -58.967861954581757 -49.088744169891974 -13.228576032530036 #
point $-1 -58.967861954581757 49.088744169891974 -13.228576032530036 #
plane-surface $-1 0 0 17.149375320780187 0 0 1 1 0 0 forward_v I I I I #
coedge $-1 $573 $572 $565 $734 forward $388 $-1 #
coedge $-1 $565 $390 $392 $569 reversed $249 $-1 #
coedge $-1 $390 $564 $563 $734 reversed $249 $-1 #
coedge $-1 $398 $393 $390 $567 forward $399 $-1 #
edge $-1 $570 $735 $566 $736 forward #
coedge $-1 $392 $391 $573 $737 reversed $169 $-1 #
edge $-1 $738 $570 $564 $739 forward #
vertex $-1 $394 $740 #
straight-curve $-1 -13.473856440613787 36.764037693564511 17.14937532078018 1 0 0 I I #
coedge $-1 $563 $395 $398 $577 reversed $388 $-1 #
coedge $-1 $395 $563 $568 $737 forward $388 $-1 #
vertex $-1 $396 $741 #
straight-curve $-1 -35.827100551535835 49.088744169891974 85.702015565952919 0 0 1 I I #
straight-curve $-1 -35.827100551535835 -14.018527915500925 77.669681911029301 0 0.64278759981090561 -0.7660444514056185 I I #
edge $-1 $735 $400 $572 $742 forward #
point $-1 -35.827100551535835 49.088744169891974 17.149375320780187 #
point $-1 -35.827100551535835 36.764037693564511 17.149375320780194 #
edge $-1 $743 $743 $403 $-1 forward #
vertex $-1 $404 $744 #
ellipse-curve $-1 -30.753164739931108 37.417472979849244 5.1828376175049264 0 0.7660444514056185 0.64278759981090561 2 0 0 1 I I #
point $-1 -28.753164739931108 42.926390931728264 9.8053685180891037 #
edge $-1 $745 $745 $407 $-1 forward #
vertex $-1 $408 $746 #
ellipse-curve $-1 -23.142261022524025 37.417472979849244 5.1828376175049264 0 0.7660444514056185 0.64278759981090561 2 0 0 1 I I #
point $-1 -21.142261022524025 42.926390931728264 9.8053685180891037 #
loop $-1 $-1 $419 $411 #
plane-surface $-1 0 49.088744169891974 0 0 -1 0 0 0 -1 forward_v I I I I #
coedge $-1 $591 $414 $416 $595 reversed $271 $-1 #
coedge $-1 $414 $590 $747 $748 reversed $271 $-1 #
coedge $-1 $422 $417 $414 $593 forward $412 $-1 #
edge $-1 $596 $749 $592 $750 forward #
coedge $-1 $416 $415 $599 $751 reversed $183 $-1 #
edge $-1 $752 $596 $590 $753 forward #
vertex $-1 $418 $754 #
straight-curve $-1 19.496204387855258 36.764037693564511 17.14937532078018 1 0 0 I I #
coedge $-1 $747 $419 $422 $603 reversed $588 $-1 #
coedge $-1 $419 $747 $594 $751 forward $588 $-1 #
vertex $-1 $420 $755 #
straight-curve $-1 30.113021105402257 49.088744169891974 85.702015565952919 0 0 1 I I #
straight-curve $-1 30.113021105402257 -14.018527915500925 77.669681911029301 0 0.64278759981090561 -0.7660444514056185 I I #
edge $-1 $749 $423 $598 $756 forward #
point $-1 30.113021105402257 49.088744169891974 17.149375320780187 #
point $-1 30.113021105402257 36.764037693564511 17.149375320780194 #
edge $-1 $757 $757 $426 $-1 forward #
vertex $-1 $427 $758 #
ellipse-curve $-1 35.186956917006981 37.417472979849244 5.1828376175049264 0 0.7660444514056185 0.64278759981090561 2 0 0 1 I I #
point $-1 37.186956917006981 42.926390931728264 9.8053685180891037 #
edge $-1 $759 $759 $430 $-1 forward #
vertex $-1 $431 $760 #
ellipse-curve $-1 42.797860634414064 37.417472979849244 5.1828376175049264 0 0.7660444514056185 0.64278759981090561 2 0 0 1 I I #
point $-1 44.797860634414064 42.926390931728264 9.8053685180891037 #
loop $-1 $-1 $442 $434 #
plane-surface $-1 0 -49.088744169891974 0 0 1 0 0 0 1 forward_v I I I I #
coedge $-1 $617 $437 $439 $621 reversed $293 $-1 #
coedge $-1 $437 $616 $761 $762 reversed $293 $-1 #
coedge $-1 $445 $440 $437 $619 forward $435 $-1 #
edge $-1 $622 $763 $618 $764 forward #
coedge $-1 $439 $438 $625 $765 reversed $197 $-1 #
edge $-1 $766 $622 $616 $767 forward #
vertex $-1 $441 $768 #
straight-curve $-1 -23.097832228325171 -45.091430663037855 17.149375320780187 -1 0 0 I I #
coedge $-1 $761 $442 $445 $629 reversed $614 $-1 #
coedge $-1 $442 $761 $620 $765 forward $614 $-1 #
vertex $-1 $443 $769 #
straight-curve $-1 -37.877734775852431 -49.088744169891974 51.991799656638733 0 0 1 I I #
straight-curve $-1 -37.877734775852431 -49.088744169891967 12.213104104667067 0 -0.62932038083071107 -0.77714596973225614 I I #
edge $-1 $763 $446 $624 $770 forward #
point $-1 -37.877734775852431 -49.088744169891974 17.149375320780187 #
point $-1 -37.877734775852431 -45.091430663037855 17.149375320780187 #
edge $-1 $771 $771 $449 $-1 forward #
vertex $-1 $450 $772 #
ellipse-curve $-1 -46.195664456650341 -44.84827732243641 12.865857741933493 0 -0.77714596973225614 0.62932038083071107 1 0 0 1 I I #
point $-1 -45.195664456650341 -47.090087416464918 14.681239712723629 #
plane-surface $-1 0 0 17.149375320780187 0 0 1 1 0 0 forward_v I I I I #
coedge $-1 $647 $646 $639 $773 forward $454 $-1 #
coedge $-1 $639 $456 $458 $643 reversed $308 $-1 #
coedge $-1 $456 $638 $637 $773 reversed $308 $-1 #
coedge $-1 $464 $459 $456 $641 forward $465 $-1 #
edge $-1 $644 $774 $640 $775 forward #
coedge $-1 $458 $457 $647 $776 reversed $206 $-1 #
edge $-1 $777 $644 $638 $778 forward #
vertex $-1 $460 $779 #
straight-curve $-1 -5.3751908419896139 -45.091430663037855 17.149375320780187 -1 0 0 I I #
coedge $-1 $637 $461 $464 $651 reversed $454 $-1 #
coedge $-1 $461 $637 $642 $776 forward $454 $-1 #
vertex $-1 $462 $780 #
straight-curve $-1 -2.4324520031813179 -49.088744169891974 51.991799656638733 0 0 1 I I #
straight-curve $-1 -2.4324520031813179 -49.088744169891967 12.213104104667067 0 -0.62932038083071107 -0.77714596973225614 I I #
edge $-1 $774 $466 $646 $781 forward #
point $-1 -2.4324520031813179 -49.088744169891974 17.149375320780187 #
point $-1 -2.4324520031813179 -45.091430663037855 17.149375320780187 #
edge $-1 $782 $782 $469 $-1 forward #
vertex $-1 $470 $783 #
ellipse-curve $-1 -10.750381683979228 -44.84827732243641 12.865857741933493 0 -0.77714596973225614 0.62932038083071107 1 0 0 1 I I #
point $-1 -9.7503816839792279 -47.090087416464918 14.681239712723629 #
plane-surface $-1 0 0 17.149375320780187 0 0 1 1 0 0 forward_v I I I I #
coedge $-1 $669 $668 $661 $784 forward $474 $-1 #
coedge $-1 $661 $476 $478 $665 reversed $323 $-1 #
coedge $-1 $476 $660 $659 $784 reversed $323 $-1 #
coedge $-1 $484 $479 $476 $663 forward $485 $-1 #
edge $-1 $666 $785 $662 $786 forward #
coedge $-1 $478 $477 $669 $787 reversed $215 $-1 #
edge $-1 $788 $666 $660 $789 forward #
vertex $-1 $480 $790 #
straight-curve $-1 12.347450544345946 -45.091430663037855 17.149375320780187 -1 0 0 I I #
coedge $-1 $659 $481 $484 $673 reversed $474 $-1 #
coedge $-1 $481 $659 $664 $787 forward $474 $-1 #
vertex $-1 $482 $791 #
straight-curve $-1 33.012830769489803 -49.088744169891974 51.991799656638733 0 0 1 I I #
straight-curve $-1 33.012830769489803 -49.088744169891967 12.213104104667067 0 -0.62932038083071107 -0.77714596973225614 I I #
edge $-1 $785 $486 $668 $792 forward #
point $-1 33.012830769489803 -49.088744169891974 17.149375320780187 #
point $-1 33.012830769489803 -45.091430663037855 17.149375320780187 #
edge $-1 $793 $793 $489 $-1 forward #
vertex $-1 $490 $794 #
ellipse-curve $-1 24.694901088691893 -44.84827732243641 12.865857741933493 0 -0.77714596973225614 0.62932038083071107 1 0 0 1 I I #
point $-1 25.694901088691893 -47.090087416464918 14.681239712723629 #
plane-surface $-1 0 0 17.149375320780187 0 0 1 1 0 0 forward_v I I I I #
coedge $-1 $691 $690 $683 $795 forward $494 $-1 #
coedge $-1 $683 $496 $498 $687 reversed $338 $-1 #
coedge $-1 $496 $682 $681 $795 reversed $338 $-1 #
coedge $-1 $504 $499 $496 $685 forward $505 $-1 #
edge $-1 $688 $796 $684 $797 forward #
coedge $-1 $498 $497 $691 $798 reversed $224 $-1 #
edge $-1 $799 $688 $682 $800 forward #
vertex $-1 $500 $801 #
straight-curve $-1 30.0700919306815 -45.091430663037855 17.149375320780187 -1 0 0 I I #
coedge $-1 $681 $501 $504 $695 reversed $494 $-1 #
coedge $-1 $501 $681 $686 $798 forward $494 $-1 #
vertex $-1 $502 $802 #
straight-curve $-1 68.458113542160902 -49.088744169891974 51.991799656638733 0 0 1 I I #
straight-curve $-1 68.458113542160902 -49.088744169891967 12.213104104667067 0 -0.62932038083071107 -0.77714596973225614 I I #
edge $-1 $796 $506 $690 $803 forward #
point $-1 68.458113542160902 -49.088744169891974 17.149375320780187 #
point $-1 68.458113542160902 -45.091430663037855 17.149375320780187 #
edge $-1 $804 $804 $509 $-1 forward #
vertex $-1 $510 $805 #
ellipse-curve $-1 60.140183861362999 -44.84827732243641 12.865857741933493 0 -0.77714596973225614 0.62932038083071107 1 0 0 1 I I #
point $-1 61.140183861362999 -47.090087416464918 14.681239712723629 #
plane-surface $-1 72.912381359294415 0 0 -1 0 0 0 0 1 forward_v I I I I #
coedge $-1 $518 $516 $520 $707 reversed $353 $-1 #
edge $-1 $531 $709 $530 $806 forward #
vertex $-1 $707 $807 #
straight-curve $-1 -72.912381359294415 -49.088744169891974 0 0 0 -1 I I #
edge $-1 $705 $709 $703 $808 forward #
straight-curve $-1 0 -49.088744169891974 -17.149375320780187 -1 0 0 I I #
vertex $-1 $523 $809 #
straight-curve $-1 0 49.088744169891974 -17.149375320780187 1 0 0 I I #
point $-1 72.912381359294415 49.088744169891974 -17.149375320780187 #
point $-1 72.912381359294415 -49.088744169891974 -17.149375320780187 #
straight-curve $-1 -72.912381359294415 0 17.149375320780187 0 -1 0 I I #
point $-1 -72.912381359294415 49.088744169891974 17.149375320780187 #
point $-1 -72.912381359294415 -49.088744169891974 17.149375320780187 #
straight-curve $-1 72.912381359294415 -49.088744169891974 0 0 0 -1 I I #
straight-curve $-1 72.912381359294415 49.088744169891974 0 0 0 -1 I I #
plane-surface $-1 0 49.088744169891974 0 0 -1 0 0 0 -1 forward_v I I I I #
coedge $-1 $544 $543 $810 $811 forward $241 $-1 #
edge $-1 $547 $812 $546 $813 forward #
coedge $-1 $552 $551 $544 $722 reversed $553 $-1 #
edge $-1 $814 $723 $721 $815 forward #
vertex $-1 $559 $816 #
straight-curve $-1 -58.967861954581757 0 -17.149375320780187 0 -1 0 I I #
point $-1 -58.967861954581757 -49.088744169891974 -17.149375320780187 #
coedge $-1 $810 $549 $552 $729 forward $541 $-1 #
coedge $-1 $549 $810 $556 $731 reversed $541 $-1 #
straight-curve $-1 -72.912381359294415 0 -13.228576032530036 0 1 0 I I #
edge $-1 $554 $814 $552 $817 forward #
point $-1 -72.912381359294415 49.088744169891974 -13.228576032530036 #
edge $-1 $557 $812 $727 $818 forward #
point $-1 -72.912381359294415 -49.088744169891974 -13.228576032530036 #
straight-curve $-1 -58.967861954581757 49.088744169891974 -7.5944878383275558 0 0 -1 I I #
edge $-1 $735 $738 $563 $819 forward #
vertex $-1 $577 $820 #
straight-curve $-1 -18.068325210919316 48.844861221307468 17.149375320780194 0 1 0 I I #
edge $-1 $738 $574 $573 $821 forward #
vertex $-1 $737 $822 #
straight-curve $-1 -18.068325210919316 -14.018527915500925 77.669681911029301 0 -0.64278759981090561 0.7660444514056185 I I #
point $-1 -18.068325210919316 36.764037693564511 17.149375320780194 #
point $-1 -35.827100551535835 49.088744169891974 2.4613617153979988 #
straight-curve $-1 0 49.088744169891974 17.149375320780187 -1 0 0 I I #
vertex $-1 $580 $823 #
point $-1 -28.753164739931108 37.417472979849244 5.1828376175049264 #
vertex $-1 $584 $824 #
point $-1 -21.142261022524025 37.417472979849244 5.1828376175049264 #
coedge $-1 $599 $598 $591 $748 forward $588 $-1 #
edge $-1 $749 $752 $747 $825 forward #
vertex $-1 $603 $826 #
straight-curve $-1 47.871796446018777 48.844861221307468 17.149375320780194 0 1 0 I I #
edge $-1 $752 $600 $599 $827 forward #
vertex $-1 $751 $828 #
straight-curve $-1 47.871796446018777 -14.018527915500925 77.669681911029301 0 -0.64278759981090561 0.7660444514056185 I I #
point $-1 47.871796446018777 36.764037693564511 17.149375320780194 #
point $-1 30.113021105402257 49.088744169891974 2.4613617153979988 #
straight-curve $-1 0 49.088744169891974 17.149375320780187 -1 0 0 I I #
vertex $-1 $606 $829 #
point $-1 37.186956917006981 37.417472979849244 5.1828376175049264 #
vertex $-1 $610 $830 #
point $-1 44.797860634414064 37.417472979849244 5.1828376175049264 #
coedge $-1 $625 $624 $617 $762 forward $614 $-1 #
edge $-1 $763 $766 $761 $831 forward #
vertex $-1 $629 $832 #
straight-curve $-1 -54.513594137448251 -81.207935401902915 17.149375320780187 0 -1 0 I I #
edge $-1 $766 $626 $625 $833 forward #
vertex $-1 $765 $834 #
straight-curve $-1 -54.513594137448251 -49.088744169891967 12.213104104667067 0 0.62932038083071107 0.77714596973225614 I I #
point $-1 -54.513594137448251 -45.091430663037855 17.149375320780187 #
point $-1 -37.877734775852431 -49.088744169891974 12.213104104667059 #
straight-curve $-1 0 -49.088744169891974 17.149375320780187 1 0 0 I I #
vertex $-1 $632 $835 #
point $-1 -45.195664456650341 -44.84827732243641 12.865857741933493 #
edge $-1 $774 $777 $637 $836 forward #
vertex $-1 $651 $837 #
straight-curve $-1 -19.068311364777138 -81.207935401902915 17.149375320780187 0 -1 0 I I #
edge $-1 $777 $648 $647 $838 forward #
vertex $-1 $776 $839 #
straight-curve $-1 -19.068311364777138 -49.088744169891967 12.213104104667067 0 0.62932038083071107 0.77714596973225614 I I #
point $-1 -19.068311364777138 -45.091430663037855 17.149375320780187 #
point $-1 -2.4324520031813179 -49.088744169891974 12.213104104667059 #
straight-curve $-1 0 -49.088744169891974 17.149375320780187 1 0 0 I I #
vertex $-1 $654 $840 #
point $-1 -9.7503816839792279 -44.84827732243641 12.865857741933493 #
edge $-1 $785 $788 $659 $841 forward #
vertex $-1 $673 $842 #
straight-curve $-1 16.376971407893983 -81.207935401902915 17.149375320780187 0 -1 0 I I #
edge $-1 $788 $670 $669 $843 forward #
vertex $-1 $787 $844 #
straight-curve $-1 16.376971407893983 -49.088744169891967 12.213104104667067 0 0.62932038083071107 0.77714596973225614 I I #
point $-1 16.376971407893983 -45.091430663037855 17.149375320780187 #
point $-1 33.012830769489803 -49.088744169891974 12.213104104667059 #
straight-curve $-1 0 -49.088744169891974 17.149375320780187 1 0 0 I I #
vertex $-1 $676 $845 #
point $-1 25.694901088691893 -44.84827732243641 12.865857741933493 #
edge $-1 $796 $799 $681 $846 forward #
vertex $-1 $695 $847 #
straight-curve $-1 51.822254180565089 -81.207935401902915 17.149375320780187 0 -1 0 I I #
edge $-1 $799 $692 $691 $848 forward #
vertex $-1 $798 $849 #
straight-curve $-1 51.822254180565089 -49.088744169891967 12.213104104667067 0 0.62932038083071107 0.77714596973225614 I I #
point $-1 51.822254180565089 -45.091430663037855 17.149375320780187 #
point $-1 68.458113542160902 -49.088744169891974 12.213104104667059 #
straight-curve $-1 0 -49.088744169891974 17.149375320780187 1 0 0 I I #
vertex $-1 $698 $850 #
point $-1 61.140183861362999 -44.84827732243641 12.865857741933493 #
straight-curve $-1 -72.912381359294415 49.088744169891974 0 0 0 -1 I I #
point $-1 -72.912381359294415 -49.088744169891974 -17.149375320780187 #
straight-curve $-1 -72.912381359294415 0 -17.149375320780187 0 1 0 I I #
point $-1 -72.912381359294415 49.088744169891974 -17.149375320780187 #
coedge $-1 $727 $726 $719 $811 reversed $541 $-1 #
edge $-1 $812 $814 $810 $851 forward #
vertex $-1 $811 $852 #
straight-curve $-1 0 -49.088744169891974 -17.149375320780187 -1 0 0 I I #
vertex $-1 $722 $853 #
straight-curve $-1 0 49.088744169891974 -17.149375320780187 1 0 0 I I #
point $-1 -58.967861954581757 49.088744169891974 -17.149375320780187 #
straight-curve $-1 -72.912381359294415 49.088744169891974 0 0 0 -1 I I #
straight-curve $-1 -72.912381359294415 -49.088744169891974 0 0 0 -1 I I #
straight-curve $-1 -18.068325210919316 49.088744169891974 85.702015565952919 0 0 -1 I I #
point $-1 -18.068325210919316 49.088744169891974 17.149375320780187 #
straight-curve $-1 -13.473856440613787 49.088744169891967 2.4613617153979916 -1 0 0 I I #
point $-1 -18.068325210919316 49.088744169891974 2.4613617153979988 #
point $-1 -30.753164739931108 35.885384077038005 3.8972624178831157 #
point $-1 -23.142261022524025 35.885384077038005 3.8972624178831157 #
straight-curve $-1 47.871796446018777 49.088744169891974 85.702015565952919 0 0 -1 I I #
point $-1 47.871796446018777 49.088744169891974 17.149375320780187 #
straight-curve $-1 19.496204387855258 49.088744169891967 2.4613617153979916 -1 0 0 I I #
point $-1 47.871796446018777 49.088744169891974 2.4613617153979988 #
point $-1 35.186956917006981 35.885384077038005 3.8972624178831157 #
point $-1 42.797860634414064 35.885384077038005 3.8972624178831157 #
straight-curve $-1 -54.513594137448251 -49.088744169891974 51.991799656638733 0 0 -1 I I #
point $-1 -54.513594137448251 -49.088744169891974 17.149375320780187 #
straight-curve $-1 -23.097832228325171 -49.088744169891974 12.213104104667051 1 0 0 I I #
point $-1 -54.513594137448251 -49.088744169891974 12.213104104667059 #
point $-1 -46.195664456650341 -44.07113135270415 12.23653736110278 #
straight-curve $-1 -19.068311364777138 -49.088744169891974 51.991799656638733 0 0 -1 I I #
point $-1 -19.068311364777138 -49.088744169891974 17.149375320780187 #
straight-curve $-1 -5.3751908419896139 -49.088744169891974 12.213104104667051 1 0 0 I I #
point $-1 -19.068311364777138 -49.088744169891974 12.213104104667059 #
point $-1 -10.750381683979228 -44.07113135270415 12.23653736110278 #
straight-curve $-1 16.376971407893983 -49.088744169891974 51.991799656638733 0 0 -1 I I #
point $-1 16.376971407893983 -49.088744169891974 17.149375320780187 #
straight-curve $-1 12.347450544345946 -49.088744169891974 12.213104104667051 1 0 0 I I #
point $-1 16.376971407893983 -49.088744169891974 12.213104104667059 #
point $-1 24.694901088691893 -44.07113135270415 12.23653736110278 #
straight-curve $-1 51.822254180565089 -49.088744169891974 51.991799656638733 0 0 -1 I I #
point $-1 51.822254180565089 -49.088744169891974 17.149375320780187 #
straight-curve $-1 30.0700919306815 -49.088744169891974 12.213104104667051 1 0 0 I I #
point $-1 51.822254180565089 -49.088744169891974 12.213104104667059 #
point $-1 60.140183861362999 -44.07113135270415 12.23653736110278 #
straight-curve $-1 -72.912381359294415 0 -17.149375320780187 0 1 0 I I #
point $-1 -72.912381359294415 -49.088744169891974 -17.149375320780187 #
point $-1 -72.912381359294415 49.088744169891974 -17.149375320780187 #
End-of-ACIS-data 