600 0 18 0           
95 GICL ACIS Healer - Source: /gicl/data5/repository/Drexel/SM99-DATA/part114.smdg.delta.sat - 6 0 18 ACIS 6.0.3 Solaris 24 Sat Apr 13 20:44:16 2002 
1 9.999999999999999547e-07 1.000000000000000036e-10 
body $-1 $18 $-1 $-1 #
body $-1 $19 $-1 $-1 #
body $-1 $20 $-1 $-1 #
body $-1 $21 $-1 $-1 #
body $-1 $22 $-1 $-1 #
body $-1 $23 $-1 $-1 #
body $-1 $24 $-1 $-1 #
body $-1 $25 $-1 $-1 #
body $-1 $26 $-1 $-1 #
body $-1 $27 $-1 $-1 #
body $-1 $28 $-1 $-1 #
body $-1 $29 $-1 $-1 #
body $-1 $30 $-1 $-1 #
body $-1 $31 $-1 $-1 #
body $-1 $32 $-1 $-1 #
body $-1 $33 $-1 $-1 #
body $-1 $34 $-1 $-1 #
body $-1 $35 $-1 $-1 #
lump $-1 $-1 $36 $0 #
lump $-1 $-1 $37 $1 #
lump $-1 $-1 $38 $2 #
lump $-1 $-1 $39 $3 #
lump $-1 $-1 $40 $4 #
lump $-1 $-1 $41 $5 #
lump $-1 $-1 $42 $6 #
lump $-1 $-1 $43 $7 #
lump $-1 $-1 $44 $8 #
lump $-1 $-1 $45 $9 #
lump $-1 $-1 $46 $10 #
lump $-1 $-1 $47 $11 #
lump $-1 $-1 $48 $12 #
lump $-1 $-1 $49 $13 #
lump $-1 $-1 $50 $14 #
lump $-1 $-1 $51 $15 #
lump $-1 $-1 $52 $16 #
lump $-1 $-1 $53 $17 #
shell $-1 $-1 $-1 $54 $-1 $18 #
shell $-1 $-1 $-1 $55 $-1 $19 #
shell $-1 $-1 $-1 $56 $-1 $20 #
shell $-1 $-1 $-1 $57 $-1 $21 #
shell $-1 $-1 $-1 $58 $-1 $22 #
shell $-1 $-1 $-1 $59 $-1 $23 #
shell $-1 $-1 $-1 $60 $-1 $24 #
shell $-1 $-1 $-1 $61 $-1 $25 #
shell $-1 $-1 $-1 $62 $-1 $26 #
shell $-1 $-1 $-1 $63 $-1 $27 #
shell $-1 $-1 $-1 $64 $-1 $28 #
shell $-1 $-1 $-1 $65 $-1 $29 #
shell $-1 $-1 $-1 $66 $-1 $30 #
shell $-1 $-1 $-1 $67 $-1 $31 #
shell $-1 $-1 $-1 $68 $-1 $32 #
shell $-1 $-1 $-1 $69 $-1 $33 #
shell $-1 $-1 $-1 $70 $-1 $34 #
shell $-1 $-1 $-1 $71 $-1 $35 #
face $-1 $72 $73 $36 $-1 $74 forward single #
face $-1 $75 $76 $37 $-1 $77 reversed single #
face $-1 $78 $79 $38 $-1 $80 reversed single #
face $-1 $81 $82 $39 $-1 $83 forward single #
face $-1 $84 $85 $40 $-1 $86 forward single #
face $-1 $87 $88 $41 $-1 $89 reversed single #
face $-1 $90 $91 $42 $-1 $92 forward single #
face $-1 $93 $94 $43 $-1 $95 forward single #
face $-1 $96 $97 $44 $-1 $98 reversed single #
face $-1 $99 $100 $45 $-1 $101 forward single #
face $-1 $102 $103 $46 $-1 $104 forward single #
face $-1 $105 $106 $47 $-1 $107 reversed single #
face $-1 $108 $109 $48 $-1 $110 forward single #
face $-1 $111 $112 $49 $-1 $113 forward single #
face $-1 $114 $115 $50 $-1 $116 reversed single #
face $-1 $117 $118 $51 $-1 $119 forward single #
face $-1 $120 $121 $52 $-1 $122 reversed single #
face $-1 $123 $124 $53 $-1 $125 forward single #
face $-1 $126 $127 $36 $-1 $128 reversed single #
loop $-1 $-1 $129 $54 #
plane-surface $-1 45.1686147648548868 28.19140774002880079 11.98326258994320881 0 0 1 1 0 0 forward_v I I I I #
face $-1 $130 $131 $37 $-1 $132 reversed single #
loop $-1 $-1 $133 $55 #
plane-surface $-1 45.1686147648548868 3.824861251161628672 8.983262589943208809 0 0 1 1 0 0 forward_v I I I I #
face $-1 $134 $135 $38 $-1 $136 reversed single #
loop $-1 $-1 $137 $56 #
plane-surface $-1 -62.75351339410422469 11.73121129220156078 71.11302362992782378 0 1 0 -0.6946583786197038091 0 0.7193397924579483238 forward_v I I I I #
face $-1 $138 $139 $39 $-1 $140 forward single #
loop $-1 $141 $142 $57 #
cone-surface $-1 3.682305206539858489 14.04600685064592724 8.381791787101764868 0.6946583786197038091 0 -0.7193397924579483238 0.3596698962289741619 0 0.3473291893098519045 1 I I 0 1 0.5 forward I I I I #
face $-1 $143 $144 $40 $-1 $145 forward single #
loop $-1 $146 $147 $58 #
cone-surface $-1 3.682305206539858489 17.51820018831247694 8.381791787101764868 0.6946583786197038091 0 -0.7193397924579483238 0.3596698962289741619 0 0.3473291893098519045 1 I I 0 1 0.5 forward I I I I #
face $-1 $148 $149 $41 $-1 $150 reversed single #
loop $-1 $-1 $151 $59 #
plane-surface $-1 -62.75351339410422469 22.55398827334237666 71.11302362992782378 0 1 0 -0.6946583786197038091 0 0.7193397924579483238 forward_v I I I I #
face $-1 $152 $153 $42 $-1 $154 forward single #
loop $-1 $155 $156 $60 #
cone-surface $-1 3.682305206539858489 24.86878383178674667 8.381791787101764868 0.6946583786197038091 0 -0.7193397924579483238 0.3596698962289741619 0 0.3473291893098519045 1 I I 0 1 0.5 forward I I I I #
face $-1 $157 $158 $43 $-1 $159 forward single #
loop $-1 $160 $161 $61 #
cone-surface $-1 3.682305206539858489 28.34097716945329637 8.381791787101764868 0.6946583786197038091 0 -0.7193397924579483238 0.3596698962289741619 0 0.3473291893098519045 1 I I 0 1 0.5 forward I I I I #
face $-1 $162 $163 $44 $-1 $164 reversed single #
loop $-1 $-1 $165 $62 #
plane-surface $-1 -62.75351339410422469 33.37676525448319609 71.11302362992782378 0 1 0 -0.6946583786197038091 0 0.7193397924579483238 forward_v I I I I #
face $-1 $166 $167 $45 $-1 $168 forward single #
loop $-1 $169 $170 $63 #
cone-surface $-1 3.682305206539858489 35.69156081292756255 8.381791787101764868 0.6946583786197038091 0 -0.7193397924579483238 0.3596698962289741619 0 0.3473291893098519045 1 I I 0 1 0.5 forward I I I I #
face $-1 $171 $172 $46 $-1 $173 forward single #
loop $-1 $174 $175 $64 #
cone-surface $-1 3.682305206539858489 39.1637541505941158 8.381791787101764868 0.6946583786197038091 0 -0.7193397924579483238 0.3596698962289741619 0 0.3473291893098519045 1 I I 0 1 0.5 forward I I I I #
face $-1 $176 $177 $47 $-1 $178 reversed single #
loop $-1 $-1 $179 $65 #
plane-surface $-1 -62.75351339410422469 44.19954223562401552 71.11302362992782378 0 1 0 -0.6946583786197038091 0 0.7193397924579483238 forward_v I I I I #
face $-1 $180 $181 $48 $-1 $182 forward single #
loop $-1 $183 $184 $66 #
cone-surface $-1 3.682305206539858489 46.51433779406838198 8.381791787101764868 0.6946583786197038091 0 -0.7193397924579483238 0.3596698962289741619 0 0.3473291893098519045 1 I I 0 1 0.5 forward I I I I #
face $-1 $185 $186 $49 $-1 $187 forward single #
loop $-1 $188 $189 $67 #
cone-surface $-1 3.682305206539858489 49.98653113173493523 8.381791787101764868 0.6946583786197038091 0 -0.7193397924579483238 0.3596698962289741619 0 0.3473291893098519045 1 I I 0 1 0.5 forward I I I I #
face $-1 $190 $191 $50 $-1 $192 reversed single #
loop $-1 $-1 $193 $68 #
plane-surface $-1 85.87860612654191073 32.01626899119042946 134.7941194231922566 0 -1 0 -0.6819983681709311796 0 -0.7313536940579346002 forward_v I I I I #
face $-1 $194 $195 $51 $-1 $196 forward single #
loop $-1 $197 $198 $69 #
cone-surface $-1 86.3981915032298815 27.02421222661438804 8.124158699237451486 -0.6819983681709311796 0 -0.7313536940579346002 0.7313536940579346002 0 -0.6819983681709311796 1 I I 0 1 1 forward I I I I #
face $-1 $199 $200 $52 $-1 $201 reversed single #
loop $-1 $-1 $202 $70 #
plane-surface $-1 24.2687630021969909 51.39075871548156016 68.72565289567947389 0.6819983681709311796 0 0.7313536940579346002 0.7313536940579346002 0 -0.6819983681709311796 forward_v I I I I #
face $-1 $203 $204 $53 $-1 $205 forward single #
loop $-1 $206 $207 $71 #
cone-surface $-1 86.3981915032298815 51.39075871548156016 8.124158699237451486 -0.6819983681709311796 0 -0.7313536940579346002 0.7313536940579346002 0 -0.6819983681709311796 1 I I 0 1 1 forward I I I I #
face $-1 $208 $209 $36 $-1 $210 reversed single #
loop $-1 $-1 $211 $72 #
plane-surface $-1 45.1686147648548868 28.19140774002880079 0 0 0 1 1 0 0 forward_v I I I I #
coedge $-1 $212 $213 $214 $215 forward $73 $-1 #
face $-1 $216 $217 $37 $-1 $218 reversed single #
loop $-1 $-1 $219 $75 #
plane-surface $-1 45.1686147648548868 7.649722502323257345 10.48326258994320881 0 -1 0 0 0 -1 forward_v I I I I #
coedge $-1 $220 $221 $222 $223 reversed $76 $-1 #
face $-1 $224 $225 $38 $-1 $226 reversed single #
loop $-1 $-1 $227 $78 #
plane-surface $-1 -7.105427357601001859e-15 15.78210351947920209 6.129859688800358697 -0.6946583786197038091 0 0.7193397924579483238 0.7193397924579483238 0 0.6946583786197038091 forward_v I I I I #
coedge $-1 $228 $229 $230 $231 reversed $79 $-1 #
face $-1 $-1 $232 $39 $-1 $233 forward single #
loop $-1 $234 $235 $81 #
cone-surface $-1 4.507587005059626506 14.04600685064592724 7.527187486717254572 0.6946583786197038091 0 -0.7193397924579483238 0.179834948114487081 0 0.1736645946549259523 1 I I -0.7071067811865474617 0.7071067811865474617 0.25 forward I I I I #
loop $-1 $-1 $236 $57 #
coedge $-1 $142 $142 $237 $238 reversed $82 $-1 #
face $-1 $-1 $239 $40 $-1 $240 forward single #
loop $-1 $241 $242 $84 #
cone-surface $-1 4.507587005059626506 17.51820018831247694 7.527187486717254572 0.6946583786197038091 0 -0.7193397924579483238 0.179834948114487081 0 0.1736645946549259523 1 I I -0.7071067811865474617 0.7071067811865474617 0.25 forward I I I I #
loop $-1 $-1 $243 $58 #
coedge $-1 $147 $147 $244 $245 reversed $85 $-1 #
face $-1 $246 $247 $41 $-1 $248 reversed single #
loop $-1 $-1 $249 $87 #
plane-surface $-1 -7.105427357601001859e-15 26.60488050062001975 6.129859688800358697 -0.6946583786197038091 0 0.7193397924579483238 0.7193397924579483238 0 0.6946583786197038091 forward_v I I I I #
coedge $-1 $250 $251 $252 $253 reversed $88 $-1 #
face $-1 $-1 $254 $42 $-1 $255 forward single #
loop $-1 $256 $257 $90 #
cone-surface $-1 4.507587005059626506 24.86878383178674667 7.527187486717254572 0.6946583786197038091 0 -0.7193397924579483238 0.179834948114487081 0 0.1736645946549259523 1 I I -0.7071067811865474617 0.7071067811865474617 0.25 forward I I I I #
loop $-1 $-1 $258 $60 #
coedge $-1 $156 $156 $259 $260 reversed $91 $-1 #
face $-1 $-1 $261 $43 $-1 $262 forward single #
loop $-1 $263 $264 $93 #
cone-surface $-1 4.507587005059626506 28.34097716945329637 7.527187486717254572 0.6946583786197038091 0 -0.7193397924579483238 0.179834948114487081 0 0.1736645946549259523 1 I I -0.7071067811865474617 0.7071067811865474617 0.25 forward I I I I #
loop $-1 $-1 $265 $61 #
coedge $-1 $161 $161 $266 $267 reversed $94 $-1 #
face $-1 $268 $269 $44 $-1 $270 reversed single #
loop $-1 $-1 $271 $96 #
plane-surface $-1 -7.105427357601001859e-15 37.42765748176083918 6.129859688800358697 -0.6946583786197038091 0 0.7193397924579483238 0.7193397924579483238 0 0.6946583786197038091 forward_v I I I I #
coedge $-1 $272 $273 $274 $275 reversed $97 $-1 #
face $-1 $-1 $276 $45 $-1 $277 forward single #
loop $-1 $278 $279 $99 #
cone-surface $-1 4.507587005059626506 35.69156081292756255 7.527187486717254572 0.6946583786197038091 0 -0.7193397924579483238 0.179834948114487081 0 0.1736645946549259523 1 I I -0.7071067811865474617 0.7071067811865474617 0.25 forward I I I I #
loop $-1 $-1 $280 $63 #
coedge $-1 $170 $170 $281 $282 reversed $100 $-1 #
face $-1 $-1 $283 $46 $-1 $284 forward single #
loop $-1 $285 $286 $102 #
cone-surface $-1 4.507587005059626506 39.1637541505941158 7.527187486717254572 0.6946583786197038091 0 -0.7193397924579483238 0.179834948114487081 0 0.1736645946549259523 1 I I -0.7071067811865474617 0.7071067811865474617 0.25 forward I I I I #
loop $-1 $-1 $287 $64 #
coedge $-1 $175 $175 $288 $289 reversed $103 $-1 #
face $-1 $290 $291 $47 $-1 $292 reversed single #
loop $-1 $-1 $293 $105 #
plane-surface $-1 -7.105427357601001859e-15 48.25043446290165861 6.129859688800358697 -0.6946583786197038091 0 0.7193397924579483238 0.7193397924579483238 0 0.6946583786197038091 forward_v I I I I #
coedge $-1 $294 $295 $296 $297 reversed $106 $-1 #
face $-1 $-1 $298 $48 $-1 $299 forward single #
loop $-1 $300 $301 $108 #
cone-surface $-1 4.507587005059626506 46.51433779406838198 7.527187486717254572 0.6946583786197038091 0 -0.7193397924579483238 0.179834948114487081 0 0.1736645946549259523 1 I I -0.7071067811865474617 0.7071067811865474617 0.25 forward I I I I #
loop $-1 $-1 $302 $66 #
coedge $-1 $184 $184 $303 $304 reversed $109 $-1 #
face $-1 $-1 $305 $49 $-1 $306 forward single #
loop $-1 $307 $308 $111 #
cone-surface $-1 4.507587005059626506 49.98653113173493523 7.527187486717254572 0.6946583786197038091 0 -0.7193397924579483238 0.179834948114487081 0 0.1736645946549259523 1 I I -0.7071067811865474617 0.7071067811865474617 0.25 forward I I I I #
loop $-1 $-1 $309 $67 #
coedge $-1 $189 $189 $310 $311 reversed $112 $-1 #
face $-1 $312 $313 $50 $-1 $314 reversed single #
loop $-1 $-1 $315 $114 #
plane-surface $-1 24.2687630021969909 27.02421222661438804 68.72565289567947389 0.6819983681709311796 0 0.7313536940579346002 0.7313536940579346002 0 -0.6819983681709311796 forward_v I I I I #
coedge $-1 $316 $317 $318 $319 reversed $115 $-1 #
face $-1 $-1 $320 $51 $-1 $321 forward single #
loop $-1 $322 $323 $117 #
cone-surface $-1 84.72800628475164331 27.02421222661438804 6.333104370807049577 -0.6819983681709311796 0 -0.7313536940579346002 0.3656768470289673001 0 -0.3409991840854655898 1 I I -0.7071067811865476838 0.7071067811865473507 0.5 forward I I I I #
loop $-1 $-1 $324 $69 #
coedge $-1 $198 $198 $325 $326 reversed $118 $-1 #
face $-1 $327 $328 $52 $-1 $329 reversed single #
loop $-1 $-1 $330 $120 #
plane-surface $-1 85.87860612654191073 46.39870195090551874 134.7941194231922566 0 1 0 0.6819983681709311796 0 0.7313536940579346002 forward_v I I I I #
coedge $-1 $331 $332 $333 $334 reversed $121 $-1 #
face $-1 $-1 $335 $53 $-1 $336 forward single #
loop $-1 $337 $338 $123 #
cone-surface $-1 84.72800628475164331 51.39075871548156016 6.333104370807049577 -0.6819983681709311796 0 -0.7313536940579346002 0.3656768470289673001 0 -0.3409991840854655898 1 I I -0.7071067811865476838 0.7071067811865473507 0.5 forward I I I I #
loop $-1 $-1 $339 $71 #
coedge $-1 $207 $207 $340 $341 reversed $124 $-1 #
face $-1 $342 $343 $36 $-1 $344 reversed single #
loop $-1 $-1 $345 $126 #
plane-surface $-1 45.1686147648548868 0 5.991631294971604405 0 1 0 0 0 1 forward_v I I I I #
coedge $-1 $346 $347 $348 $349 forward $127 $-1 #
coedge $-1 $350 $129 $351 $352 forward $73 $-1 #
coedge $-1 $129 $350 $353 $354 forward $73 $-1 #
coedge $-1 $355 $356 $129 $215 reversed $357 $-1 #
edge $-1 $358 -28.19140774002880079 $359 28.19140774002880079 $214 $360 forward 7 unknown #
face $-1 $361 $362 $37 $-1 $363 reversed single #
loop $-1 $-1 $364 $130 #
plane-surface $-1 0 28.19140774002880079 5.991631294971604405 1 0 0 0 0 -1 forward_v I I I I #
coedge $-1 $365 $366 $367 $368 reversed $131 $-1 #
coedge $-1 $369 $133 $370 $371 reversed $76 $-1 #
coedge $-1 $133 $369 $365 $372 forward $76 $-1 #
coedge $-1 $367 $373 $133 $223 forward $374 $-1 #
edge $-1 $375 -16.00813449559521473 $376 -8.358411993271957385 $222 $377 forward 7 unknown #
face $-1 $378 $379 $38 $-1 $380 forward single #
loop $-1 $-1 $381 $134 #
plane-surface $-1 -62.75351339410422469 19.8329957467568434 71.11302362992782378 0 -1 0 0.6946583786197038091 0 -0.7193397924579483238 forward_v I I I I #
coedge $-1 $382 $383 $384 $385 reversed $135 $-1 #
coedge $-1 $229 $137 $386 $387 reversed $79 $-1 #
coedge $-1 $137 $228 $382 $388 reversed $79 $-1 #
coedge $-1 $384 $389 $137 $231 forward $379 $-1 #
edge $-1 $390 8.792449314624668943 $391 14.85382531997472455 $230 $392 forward 7 unknown #
loop $-1 $-1 $237 $138 #
plane-surface $-1 -7.105427357601001859e-15 15.78210351947920209 6.129859688800358697 -0.6946583786197038091 0 0.7193397924579483238 0.7193397924579483238 0 0.6946583786197038091 forward_v I I I I #
loop $-1 $-1 $393 $81 #
coedge $-1 $235 $235 $236 $394 reversed $139 $-1 #
coedge $-1 $236 $236 $235 $394 forward $141 $-1 #
coedge $-1 $237 $237 $142 $238 forward $232 $-1 #
edge $-1 $395 0 $395 6.283185307179586232 $237 $396 forward 7 unknown #
loop $-1 $-1 $244 $143 #
plane-surface $-1 -7.105427357601001859e-15 15.78210351947920209 6.129859688800358697 -0.6946583786197038091 0 0.7193397924579483238 0.7193397924579483238 0 0.6946583786197038091 forward_v I I I I #
loop $-1 $-1 $397 $84 #
coedge $-1 $242 $242 $243 $398 reversed $144 $-1 #
coedge $-1 $243 $243 $242 $398 forward $146 $-1 #
coedge $-1 $244 $244 $147 $245 forward $239 $-1 #
edge $-1 $399 0 $399 6.283185307179586232 $244 $400 forward 7 unknown #
face $-1 $401 $402 $41 $-1 $403 forward single #
loop $-1 $-1 $404 $148 #
plane-surface $-1 -62.75351339410422469 30.65577272789766283 71.11302362992782378 0 -1 0 0.6946583786197038091 0 -0.7193397924579483238 forward_v I I I I #
coedge $-1 $405 $406 $407 $408 reversed $149 $-1 #
coedge $-1 $251 $151 $409 $410 reversed $88 $-1 #
coedge $-1 $151 $250 $405 $411 reversed $88 $-1 #
coedge $-1 $407 $412 $151 $253 forward $402 $-1 #
edge $-1 $413 8.792449314624668943 $414 14.85382531997472455 $252 $415 forward 7 unknown #
loop $-1 $-1 $259 $152 #
plane-surface $-1 -7.105427357601001859e-15 26.60488050062001975 6.129859688800358697 -0.6946583786197038091 0 0.7193397924579483238 0.7193397924579483238 0 0.6946583786197038091 forward_v I I I I #
loop $-1 $-1 $416 $90 #
coedge $-1 $257 $257 $258 $417 reversed $153 $-1 #
coedge $-1 $258 $258 $257 $417 forward $155 $-1 #
coedge $-1 $259 $259 $156 $260 forward $254 $-1 #
edge $-1 $418 0 $418 6.283185307179586232 $259 $419 forward 7 unknown #
loop $-1 $-1 $266 $157 #
plane-surface $-1 -7.105427357601001859e-15 26.60488050062001975 6.129859688800358697 -0.6946583786197038091 0 0.7193397924579483238 0.7193397924579483238 0 0.6946583786197038091 forward_v I I I I #
loop $-1 $-1 $420 $93 #
coedge $-1 $264 $264 $265 $421 reversed $158 $-1 #
coedge $-1 $265 $265 $264 $421 forward $160 $-1 #
coedge $-1 $266 $266 $161 $267 forward $261 $-1 #
edge $-1 $422 0 $422 6.283185307179586232 $266 $423 forward 7 unknown #
face $-1 $424 $425 $44 $-1 $426 forward single #
loop $-1 $-1 $427 $162 #
plane-surface $-1 -62.75351339410422469 41.47854970903848226 71.11302362992782378 0 -1 0 0.6946583786197038091 0 -0.7193397924579483238 forward_v I I I I #
coedge $-1 $428 $429 $430 $431 reversed $163 $-1 #
coedge $-1 $273 $165 $432 $433 reversed $97 $-1 #
coedge $-1 $165 $272 $428 $434 reversed $97 $-1 #
coedge $-1 $430 $435 $165 $275 forward $425 $-1 #
edge $-1 $436 8.792449314624668943 $437 14.85382531997472455 $274 $438 forward 7 unknown #
loop $-1 $-1 $281 $166 #
plane-surface $-1 -7.105427357601001859e-15 37.42765748176083918 6.129859688800358697 -0.6946583786197038091 0 0.7193397924579483238 0.7193397924579483238 0 0.6946583786197038091 forward_v I I I I #
loop $-1 $-1 $439 $99 #
coedge $-1 $279 $279 $280 $440 reversed $167 $-1 #
coedge $-1 $280 $280 $279 $440 forward $169 $-1 #
coedge $-1 $281 $281 $170 $282 forward $276 $-1 #
edge $-1 $441 0 $441 6.283185307179586232 $281 $442 forward 7 unknown #
loop $-1 $-1 $288 $171 #
plane-surface $-1 -7.105427357601001859e-15 37.42765748176083918 6.129859688800358697 -0.6946583786197038091 0 0.7193397924579483238 0.7193397924579483238 0 0.6946583786197038091 forward_v I I I I #
loop $-1 $-1 $443 $102 #
coedge $-1 $286 $286 $287 $444 reversed $172 $-1 #
coedge $-1 $287 $287 $286 $444 forward $174 $-1 #
coedge $-1 $288 $288 $175 $289 forward $283 $-1 #
edge $-1 $445 0 $445 6.283185307179586232 $288 $446 forward 7 unknown #
face $-1 $447 $448 $47 $-1 $449 forward single #
loop $-1 $-1 $450 $176 #
plane-surface $-1 -62.75351339410422469 52.30132669017930169 71.11302362992782378 0 -1 0 0.6946583786197038091 0 -0.7193397924579483238 forward_v I I I I #
coedge $-1 $451 $452 $453 $454 reversed $177 $-1 #
coedge $-1 $295 $179 $455 $456 reversed $106 $-1 #
coedge $-1 $179 $294 $451 $457 reversed $106 $-1 #
coedge $-1 $453 $458 $179 $297 forward $448 $-1 #
edge $-1 $459 8.792449314624668943 $460 14.85382531997472455 $296 $461 forward 7 unknown #
loop $-1 $-1 $303 $180 #
plane-surface $-1 -7.105427357601001859e-15 48.25043446290165861 6.129859688800358697 -0.6946583786197038091 0 0.7193397924579483238 0.7193397924579483238 0 0.6946583786197038091 forward_v I I I I #
loop $-1 $-1 $462 $108 #
coedge $-1 $301 $301 $302 $463 reversed $181 $-1 #
coedge $-1 $302 $302 $301 $463 forward $183 $-1 #
coedge $-1 $303 $303 $184 $304 forward $298 $-1 #
edge $-1 $464 0 $464 6.283185307179586232 $303 $465 forward 7 unknown #
loop $-1 $-1 $310 $185 #
plane-surface $-1 -7.105427357601001859e-15 48.25043446290165861 6.129859688800358697 -0.6946583786197038091 0 0.7193397924579483238 0.7193397924579483238 0 0.6946583786197038091 forward_v I I I I #
loop $-1 $-1 $466 $111 #
coedge $-1 $308 $308 $309 $467 reversed $186 $-1 #
coedge $-1 $309 $309 $308 $467 forward $188 $-1 #
coedge $-1 $310 $310 $189 $311 forward $305 $-1 #
edge $-1 $468 0 $468 6.283185307179586232 $310 $469 forward 7 unknown #
face $-1 $470 $471 $50 $-1 $472 reversed single #
loop $-1 $-1 $473 $190 #
plane-surface $-1 85.87860612654191073 22.03215546203834663 134.7941194231922566 0 1 0 0.6819983681709311796 0 0.7313536940579346002 forward_v I I I I #
coedge $-1 $474 $475 $476 $477 reversed $191 $-1 #
coedge $-1 $317 $193 $478 $479 reversed $115 $-1 #
coedge $-1 $193 $316 $474 $480 reversed $115 $-1 #
coedge $-1 $476 $481 $193 $319 forward $482 $-1 #
edge $-1 $483 -24.81361908401137839 $484 -19.5939150998371332 $318 $485 forward 7 unknown #
loop $-1 $-1 $325 $194 #
plane-surface $-1 24.2687630021969909 27.02421222661438804 68.72565289567947389 0.6819983681709311796 0 0.7313536940579346002 0.7313536940579346002 0 -0.6819983681709311796 forward_v I I I I #
loop $-1 $-1 $486 $117 #
coedge $-1 $323 $323 $324 $487 reversed $195 $-1 #
coedge $-1 $324 $324 $323 $487 forward $197 $-1 #
coedge $-1 $325 $325 $198 $326 forward $320 $-1 #
edge $-1 $488 0 $488 6.283185307179586232 $325 $489 forward 7 unknown #
face $-1 $490 $491 $52 $-1 $492 forward single #
loop $-1 $-1 $493 $199 #
plane-surface $-1 90.3372295297097736 28.19140774002880079 5.991631294971604405 -1 0 0 0 0 1 forward_v I I I I #
coedge $-1 $494 $495 $496 $497 reversed $200 $-1 #
coedge $-1 $498 $202 $499 $500 reversed $121 $-1 #
coedge $-1 $202 $498 $494 $501 forward $121 $-1 #
coedge $-1 $496 $502 $202 $334 forward $491 $-1 #
edge $-1 $503 -16.5917322523024211 $504 -6.607618723150338269 $333 $505 forward 7 unknown #
loop $-1 $-1 $340 $203 #
plane-surface $-1 24.2687630021969909 51.39075871548156016 68.72565289567947389 0.6819983681709311796 0 0.7313536940579346002 0.7313536940579346002 0 -0.6819983681709311796 forward_v I I I I #
loop $-1 $-1 $506 $123 #
coedge $-1 $338 $338 $339 $507 reversed $204 $-1 #
coedge $-1 $339 $339 $338 $507 forward $206 $-1 #
coedge $-1 $340 $340 $207 $341 forward $335 $-1 #
edge $-1 $508 0 $508 6.283185307179586232 $340 $509 forward 7 unknown #
face $-1 $510 $511 $36 $-1 $512 reversed single #
loop $-1 $-1 $513 $208 #
plane-surface $-1 0 28.19140774002880079 5.991631294971604405 1 0 0 0 0 -1 forward_v I I I I #
coedge $-1 $514 $353 $515 $516 forward $209 $-1 #
coedge $-1 $517 $211 $514 $518 forward $127 $-1 #
coedge $-1 $211 $517 $519 $520 forward $127 $-1 #
coedge $-1 $356 $355 $211 $349 reversed $357 $-1 #
edge $-1 $521 -28.19140774002880079 $522 28.19140774002880079 $348 $523 forward 7 unknown #
coedge $-1 $213 $212 $524 $525 forward $73 $-1 #
coedge $-1 $526 $527 $212 $352 reversed $511 $-1 #
edge $-1 $359 -45.1686147648548868 $528 45.1686147648548868 $351 $529 forward 7 unknown #
coedge $-1 $345 $530 $213 $354 reversed $209 $-1 #
edge $-1 $531 -45.1686147648548868 $358 45.1686147648548868 $353 $532 forward 7 unknown #
coedge $-1 $348 $214 $530 $533 forward $357 $-1 #
coedge $-1 $214 $348 $526 $534 reversed $357 $-1 #
loop $-1 $-1 $355 $510 #
vertex $-1 $215 $535 #
vertex $-1 $215 $536 #
straight-curve $-1 90.3372295297097736 28.19140774002880079 11.98326258994320881 0 1 0 I I #
face $-1 $537 $538 $37 $-1 $539 forward single #
loop $-1 $-1 $370 $216 #
plane-surface $-1 45.1686147648548868 0 5.991631294971604405 0 1 0 0 0 1 forward_v I I I I #
coedge $-1 $540 $541 $542 $543 forward $217 $-1 #
coedge $-1 $542 $219 $221 $372 reversed $131 $-1 #
coedge $-1 $219 $542 $544 $545 reversed $131 $-1 #
coedge $-1 $546 $222 $219 $368 forward $374 $-1 #
edge $-1 $376 0.7458156474858022023 $547 3.745815647485802202 $367 $548 forward 7 unknown #
coedge $-1 $221 $220 $540 $549 reversed $76 $-1 #
coedge $-1 $550 $551 $220 $371 forward $362 $-1 #
edge $-1 $552 -45.1686147648548868 $375 45.1686147648548868 $370 $553 forward 7 unknown #
edge $-1 $554 -45.1686147648548868 $376 45.1686147648548868 $365 $555 forward 7 unknown #
coedge $-1 $222 $546 $550 $556 forward $374 $-1 #
loop $-1 $-1 $367 $537 #
vertex $-1 $371 $557 #
vertex $-1 $223 $558 #
straight-curve $-1 90.3372295297097736 16.00813449559521473 8.983262589943208809 0 1 0 I I #
face $-1 $-1 $559 $38 $-1 $560 reversed single #
loop $-1 $-1 $230 $224 #
plane-surface $-1 45.1686147648548868 28.19140774002880079 11.98326258994320881 0 0 1 1 0 0 forward_v I I I I #
coedge $-1 $561 $562 $563 $564 reversed $225 $-1 #
coedge $-1 $565 $227 $229 $388 forward $135 $-1 #
coedge $-1 $227 $565 $561 $566 forward $135 $-1 #
coedge $-1 $563 $230 $227 $385 forward $379 $-1 #
edge $-1 $391 -10.25554433755243977 $567 -2.153759882997157149 $384 $568 forward 7 unknown #
coedge $-1 $569 $570 $228 $387 forward $559 $-1 #
edge $-1 $571 -32.42246777364935184 $390 -26.56906487250650883 $386 $572 forward 7 unknown #
edge $-1 $391 -8.426304326413864842 $571 -1.004706128837293117e-14 $229 $573 forward 7 unknown #
coedge $-1 $230 $563 $569 $574 forward $379 $-1 #
vertex $-1 $387 $575 #
vertex $-1 $231 $576 #
straight-curve $-1 -8.792449314624668943 11.73121129220156078 11.98326258994320881 1 0 0 I I #
coedge $-1 $393 $393 $-1 $577 reversed $234 $-1 #
edge $-1 $578 0 $578 6.283185307179586232 $235 $579 forward 7 unknown #
vertex $-1 $238 $580 #
ellipse-curve $-1 3.030688002675020698 14.04600685064592724 9.056561139371783753 -0.6946583786197038091 0 0.7193397924579483238 0.3596698962289741619 0 0.3473291893098519045 1 I I #
coedge $-1 $397 $397 $-1 $581 reversed $241 $-1 #
edge $-1 $582 0 $582 6.283185307179586232 $242 $583 forward 7 unknown #
vertex $-1 $245 $584 #
ellipse-curve $-1 3.030688002675020698 17.51820018831247694 9.056561139371783753 -0.6946583786197038091 0 0.7193397924579483238 0.3596698962289741619 0 0.3473291893098519045 1 I I #
face $-1 $-1 $585 $41 $-1 $586 reversed single #
loop $-1 $-1 $252 $246 #
plane-surface $-1 45.1686147648548868 28.19140774002880079 11.98326258994320881 0 0 1 1 0 0 forward_v I I I I #
coedge $-1 $587 $588 $589 $590 reversed $247 $-1 #
coedge $-1 $591 $249 $251 $411 forward $149 $-1 #
coedge $-1 $249 $591 $587 $592 forward $149 $-1 #
coedge $-1 $589 $252 $249 $408 forward $402 $-1 #
edge $-1 $414 -4.844155846982033609 $593 3.257628607573252566 $407 $594 forward 7 unknown #
coedge $-1 $595 $596 $250 $410 forward $585 $-1 #
edge $-1 $597 -32.42246777364935184 $413 -26.56906487250650883 $409 $598 forward 7 unknown #
edge $-1 $414 -8.426304326413864842 $597 -1.004706128837293117e-14 $251 $599 forward 7 unknown #
coedge $-1 $252 $589 $595 $600 forward $402 $-1 #
vertex $-1 $253 $601 #
vertex $-1 $253 $602 #
straight-curve $-1 -8.792449314624668943 22.55398827334237666 11.98326258994320881 1 0 0 I I #
coedge $-1 $416 $416 $-1 $603 reversed $256 $-1 #
edge $-1 $604 0 $604 6.283185307179586232 $257 $605 forward 7 unknown #
vertex $-1 $260 $606 #
ellipse-curve $-1 3.030688002675020698 24.86878383178674667 9.056561139371783753 -0.6946583786197038091 0 0.7193397924579483238 0.3596698962289741619 0 0.3473291893098519045 1 I I #
coedge $-1 $420 $420 $-1 $607 reversed $263 $-1 #
edge $-1 $608 0 $608 6.283185307179586232 $264 $609 forward 7 unknown #
vertex $-1 $267 $610 #
ellipse-curve $-1 3.030688002675020698 28.34097716945329637 9.056561139371783753 -0.6946583786197038091 0 0.7193397924579483238 0.3596698962289741619 0 0.3473291893098519045 1 I I #
face $-1 $-1 $611 $44 $-1 $612 reversed single #
loop $-1 $-1 $274 $268 #
plane-surface $-1 45.1686147648548868 28.19140774002880079 11.98326258994320881 0 0 1 1 0 0 forward_v I I I I #
coedge $-1 $613 $614 $615 $616 reversed $269 $-1 #
coedge $-1 $617 $271 $273 $434 forward $163 $-1 #
coedge $-1 $271 $617 $613 $618 forward $163 $-1 #
coedge $-1 $615 $274 $271 $431 forward $425 $-1 #
edge $-1 $437 0.5672326435883761064 $619 8.669017098143662281 $430 $620 forward 7 unknown #
coedge $-1 $621 $622 $272 $433 forward $611 $-1 #
edge $-1 $623 -32.42246777364935184 $436 -26.56906487250650883 $432 $624 forward 7 unknown #
edge $-1 $437 -8.426304326413864842 $623 -1.004706128837293117e-14 $273 $625 forward 7 unknown #
coedge $-1 $274 $615 $621 $626 forward $425 $-1 #
vertex $-1 $275 $627 #
vertex $-1 $275 $628 #
straight-curve $-1 -8.792449314624668943 33.37676525448319609 11.98326258994320881 1 0 0 I I #
coedge $-1 $439 $439 $-1 $629 reversed $278 $-1 #
edge $-1 $630 0 $630 6.283185307179586232 $279 $631 forward 7 unknown #
vertex $-1 $282 $632 #
ellipse-curve $-1 3.030688002675020698 35.69156081292756255 9.056561139371783753 -0.6946583786197038091 0 0.7193397924579483238 0.3596698962289741619 0 0.3473291893098519045 1 I I #
coedge $-1 $443 $443 $-1 $633 reversed $285 $-1 #
edge $-1 $634 0 $634 6.283185307179586232 $286 $635 forward 7 unknown #
vertex $-1 $289 $636 #
ellipse-curve $-1 3.030688002675020698 39.1637541505941158 9.056561139371783753 -0.6946583786197038091 0 0.7193397924579483238 0.3596698962289741619 0 0.3473291893098519045 1 I I #
face $-1 $-1 $637 $47 $-1 $638 reversed single #
loop $-1 $-1 $296 $290 #
plane-surface $-1 45.1686147648548868 28.19140774002880079 11.98326258994320881 0 0 1 1 0 0 forward_v I I I I #
coedge $-1 $639 $640 $641 $642 reversed $291 $-1 #
coedge $-1 $643 $293 $295 $457 forward $177 $-1 #
coedge $-1 $293 $643 $639 $644 forward $177 $-1 #
coedge $-1 $641 $296 $293 $454 forward $448 $-1 #
edge $-1 $460 5.978621134158785821 $645 14.080405588714072 $453 $646 forward 7 unknown #
coedge $-1 $647 $648 $294 $456 forward $637 $-1 #
edge $-1 $649 -32.42246777364935184 $459 -26.56906487250650883 $455 $650 forward 7 unknown #
edge $-1 $460 -8.426304326413864842 $649 -1.004706128837293117e-14 $295 $651 forward 7 unknown #
coedge $-1 $296 $641 $647 $652 forward $448 $-1 #
vertex $-1 $297 $653 #
vertex $-1 $297 $654 #
straight-curve $-1 -8.792449314624668943 44.19954223562401552 11.98326258994320881 1 0 0 I I #
coedge $-1 $462 $462 $-1 $655 reversed $300 $-1 #
edge $-1 $656 0 $656 6.283185307179586232 $301 $657 forward 7 unknown #
vertex $-1 $304 $658 #
ellipse-curve $-1 3.030688002675020698 46.51433779406838198 9.056561139371783753 -0.6946583786197038091 0 0.7193397924579483238 0.3596698962289741619 0 0.3473291893098519045 1 I I #
coedge $-1 $466 $466 $-1 $659 reversed $307 $-1 #
edge $-1 $660 0 $660 6.283185307179586232 $308 $661 forward 7 unknown #
vertex $-1 $311 $662 #
ellipse-curve $-1 3.030688002675020698 49.98653113173493523 9.056561139371783753 -0.6946583786197038091 0 0.7193397924579483238 0.3596698962289741619 0 0.3473291893098519045 1 I I #
face $-1 $-1 $482 $50 $-1 $663 forward single #
loop $-1 $-1 $664 $312 #
plane-surface $-1 90.3372295297097736 28.19140774002880079 5.991631294971604405 -1 0 0 0 0 1 forward_v I I I I #
coedge $-1 $665 $666 $667 $668 reversed $313 $-1 #
coedge $-1 $669 $315 $317 $480 forward $191 $-1 #
coedge $-1 $315 $669 $665 $670 forward $191 $-1 #
coedge $-1 $667 $318 $315 $477 forward $482 $-1 #
edge $-1 $484 -4.408459007868835045 $671 5.575654521283247789 $476 $672 forward 7 unknown #
coedge $-1 $673 $674 $316 $479 forward $471 $-1 #
edge $-1 $675 -63.27706558774737999 $483 -58.40961276913871814 $478 $676 forward 7 unknown #
edge $-1 $484 83.20018485955492338 $675 90.33722952970978781 $317 $677 forward 7 unknown #
coedge $-1 $318 $667 $673 $678 forward $482 $-1 #
loop $-1 $-1 $667 $470 #
vertex $-1 $479 $679 #
vertex $-1 $319 $680 #
straight-curve $-1 65.52361044569839521 32.01626899119042946 11.98326258994320881 -1 0 0 I I #
coedge $-1 $486 $486 $-1 $681 reversed $322 $-1 #
edge $-1 $682 0 $682 6.283185307179586232 $323 $683 forward 7 unknown #
vertex $-1 $326 $684 #
ellipse-curve $-1 87.72737753762265811 27.02421222661438804 9.549536180638884986 0.6819983681709311796 0 0.7313536940579346002 0.7313536940579346002 0 -0.6819983681709311796 1 I I #
face $-1 $-1 $685 $52 $-1 $686 reversed single #
loop $-1 $-1 $496 $327 #
plane-surface $-1 45.1686147648548868 28.19140774002880079 11.98326258994320881 0 0 1 1 0 0 forward_v I I I I #
coedge $-1 $687 $688 $495 $689 forward $328 $-1 #
coedge $-1 $495 $330 $332 $501 reversed $200 $-1 #
coedge $-1 $330 $494 $493 $689 reversed $200 $-1 #
coedge $-1 $690 $333 $330 $497 forward $491 $-1 #
edge $-1 $504 19.5939150998371332 $691 24.81361908401137839 $496 $692 forward 7 unknown #
coedge $-1 $332 $331 $687 $693 reversed $121 $-1 #
coedge $-1 $694 $695 $331 $500 forward $685 $-1 #
edge $-1 $696 -61.30238745352687602 $503 -54.16534278337201869 $499 $697 forward 7 unknown #
edge $-1 $698 -90.33722952970978781 $504 -83.20018485955492338 $494 $699 forward 7 unknown #
coedge $-1 $333 $690 $694 $700 forward $491 $-1 #
vertex $-1 $500 $701 #
vertex $-1 $334 $702 #
straight-curve $-1 85.1175255455355142 39.79108322775518047 11.98326258994320881 0 -1 0 I I #
coedge $-1 $506 $506 $-1 $703 reversed $337 $-1 #
edge $-1 $704 0 $704 6.283185307179586232 $338 $705 forward 7 unknown #
vertex $-1 $341 $706 #
ellipse-curve $-1 87.72737753762265811 51.39075871548156016 9.549536180638884986 0.6819983681709311796 0 0.7313536940579346002 0.7313536940579346002 0 -0.6819983681709311796 1 I I #
face $-1 $-1 $357 $36 $-1 $707 reversed single #
loop $-1 $-1 $526 $342 #
plane-surface $-1 45.1686147648548868 56.38281548005760158 5.991631294971604405 0 -1 0 0 0 -1 forward_v I I I I #
coedge $-1 $708 $524 $527 $709 forward $343 $-1 #
coedge $-1 $530 $345 $346 $518 reversed $209 $-1 #
coedge $-1 $524 $708 $345 $516 reversed $343 $-1 #
edge $-1 $531 -5.991631294971604405 $710 5.991631294971604405 $515 $711 forward 7 unknown #
coedge $-1 $347 $346 $708 $712 forward $127 $-1 #
edge $-1 $522 -45.1686147648548868 $710 45.1686147648548868 $514 $713 forward 7 unknown #
coedge $-1 $527 $526 $347 $520 reversed $511 $-1 #
edge $-1 $714 -45.1686147648548868 $521 45.1686147648548868 $519 $715 forward 7 unknown #
vertex $-1 $349 $716 #
vertex $-1 $533 $717 #
straight-curve $-1 90.3372295297097736 28.19140774002880079 0 0 -1 0 I I #
coedge $-1 $513 $515 $350 $525 reversed $343 $-1 #
edge $-1 $528 -28.19140774002880079 $531 28.19140774002880079 $524 $718 forward 7 unknown #
coedge $-1 $519 $351 $356 $534 forward $511 $-1 #
coedge $-1 $351 $519 $513 $709 reversed $511 $-1 #
vertex $-1 $352 $719 #
straight-curve $-1 45.1686147648548868 56.38281548005760158 11.98326258994320881 -1 0 0 I I #
coedge $-1 $353 $514 $355 $533 reversed $209 $-1 #
vertex $-1 $525 $720 #
straight-curve $-1 45.1686147648548868 0 11.98326258994320881 1 0 0 I I #
edge $-1 $358 -5.991631294971604405 $522 5.991631294971604405 $355 $721 forward 7 unknown #
edge $-1 $359 -5.991631294971604405 $521 5.991631294971604405 $356 $722 forward 7 unknown #
point $-1 90.3372295297097736 0 11.98326258994320881 #
point $-1 90.3372295297097736 56.38281548005760158 11.98326258994320881 #
face $-1 $-1 $374 $37 $-1 $723 reversed single #
loop $-1 $-1 $544 $361 #
plane-surface $-1 45.1686147648548868 28.19140774002880079 11.98326258994320881 0 0 1 1 0 0 forward_v I I I I #
coedge $-1 $724 $364 $369 $549 forward $217 $-1 #
coedge $-1 $364 $724 $725 $726 reversed $217 $-1 #
coedge $-1 $366 $365 $364 $543 reversed $131 $-1 #
edge $-1 $727 -3.745815647485802202 $554 -0.7458156474858022023 $364 $728 forward 7 unknown #
coedge $-1 $725 $729 $366 $545 forward $538 $-1 #
edge $-1 $547 -45.1686147648548868 $727 45.1686147648548868 $544 $730 forward 7 unknown #
coedge $-1 $373 $367 $729 $731 reversed $374 $-1 #
vertex $-1 $368 $732 #
straight-curve $-1 90.3372295297097736 7.649722502323257345 8.237446942457406607 0 0 1 I I #
edge $-1 $554 8.358411993271957385 $552 16.00813449559521473 $540 $733 forward 7 unknown #
coedge $-1 $734 $370 $373 $556 reversed $362 $-1 #
coedge $-1 $370 $734 $724 $735 forward $362 $-1 #
vertex $-1 $371 $736 #
straight-curve $-1 45.1686147648548868 0 8.983262589943208809 1 0 0 I I #
vertex $-1 $549 $737 #
straight-curve $-1 45.1686147648548868 7.649722502323257345 8.983262589943208809 1 0 0 I I #
edge $-1 $738 -5.991631294971604405 $375 -2.991631294971604405 $373 $739 forward 7 unknown #
point $-1 90.3372295297097736 0 8.983262589943208809 #
point $-1 90.3372295297097736 7.649722502323257345 8.983262589943208809 #
loop $-1 $-1 $386 $378 #
plane-surface $-1 0 28.19140774002880079 5.991631294971604405 1 0 0 0 0 -1 forward_v I I I I #
coedge $-1 $562 $381 $383 $566 reversed $225 $-1 #
coedge $-1 $381 $561 $740 $741 reversed $225 $-1 #
coedge $-1 $389 $384 $381 $564 forward $379 $-1 #
edge $-1 $567 -14.85382531997472455 $742 -8.792449314624668943 $563 $743 forward 7 unknown #
coedge $-1 $383 $382 $570 $744 reversed $135 $-1 #
edge $-1 $745 1.004706128837293117e-14 $567 8.426304326413864842 $561 $746 forward 7 unknown #
vertex $-1 $385 $747 #
straight-curve $-1 6.061376005350048501 21.98675562975400055 11.98326258994320881 0 1 0 I I #
coedge $-1 $740 $386 $389 $574 reversed $559 $-1 #
coedge $-1 $386 $740 $565 $744 forward $559 $-1 #
vertex $-1 $387 $748 #
straight-curve $-1 0 11.73121129220156078 38.55232746244971764 0 0 1 I I #
straight-curve $-1 -7.105427357601001859e-15 11.73121129220156078 6.129859688800358697 -0.7193397924579483238 0 -0.6946583786197038091 I I #
edge $-1 $742 8.358411993271957385 $390 16.46019644782724001 $569 $749 forward 7 unknown #
point $-1 0 11.73121129220156078 11.98326258994320881 #
point $-1 6.061376005350055607 11.73121129220156078 11.98326258994320881 #
edge $-1 $750 1 $750 0 $393 $-1 forward 7 unknown #
vertex $-1 $394 $751 #
ellipse-curve $-1 4.333922410404703385 14.04600685064592724 7.707022434831741542 -0.6946583786197038091 0 0.7193397924579483238 0.3596698962289741619 0 0.3473291893098519045 1 I I #
point $-1 3.390357898903999967 14.04600685064592724 9.403890328681638877 #
edge $-1 $752 1 $752 0 $397 $-1 forward 7 unknown #
vertex $-1 $398 $753 #
ellipse-curve $-1 4.333922410404703385 17.51820018831247694 7.707022434831741542 -0.6946583786197038091 0 0.7193397924579483238 0.3596698962289741619 0 0.3473291893098519045 1 I I #
point $-1 3.390357898903999967 17.51820018831247694 9.403890328681638877 #
loop $-1 $-1 $409 $401 #
plane-surface $-1 0 28.19140774002880079 5.991631294971604405 1 0 0 0 0 -1 forward_v I I I I #
coedge $-1 $588 $404 $406 $592 reversed $247 $-1 #
coedge $-1 $404 $587 $754 $755 reversed $247 $-1 #
coedge $-1 $412 $407 $404 $590 forward $402 $-1 #
edge $-1 $593 -14.85382531997472455 $756 -8.792449314624668943 $589 $757 forward 7 unknown #
coedge $-1 $406 $405 $596 $758 reversed $149 $-1 #
edge $-1 $759 1.004706128837293117e-14 $593 8.426304326413864842 $587 $760 forward 7 unknown #
vertex $-1 $408 $761 #
straight-curve $-1 6.061376005350048501 27.39814412032441027 11.98326258994320881 0 1 0 I I #
coedge $-1 $754 $409 $412 $600 reversed $585 $-1 #
coedge $-1 $409 $754 $591 $758 forward $585 $-1 #
vertex $-1 $410 $762 #
straight-curve $-1 0 22.55398827334237666 38.55232746244971764 0 0 1 I I #
straight-curve $-1 -7.105427357601001859e-15 22.55398827334237666 6.129859688800358697 -0.7193397924579483238 0 -0.6946583786197038091 I I #
edge $-1 $756 -2.464364987868862045 $413 5.63741946668642413 $595 $763 forward 7 unknown #
point $-1 0 22.55398827334237666 11.98326258994320881 #
point $-1 6.061376005350055607 22.55398827334237666 11.98326258994320881 #
edge $-1 $764 1 $764 0 $416 $-1 forward 7 unknown #
vertex $-1 $417 $765 #
ellipse-curve $-1 4.333922410404703385 24.86878383178674667 7.707022434831741542 -0.6946583786197038091 0 0.7193397924579483238 0.3596698962289741619 0 0.3473291893098519045 1 I I #
point $-1 3.390357898903999967 24.86878383178674667 9.403890328681638877 #
edge $-1 $766 1 $766 0 $420 $-1 forward 7 unknown #
vertex $-1 $421 $767 #
ellipse-curve $-1 4.333922410404703385 28.34097716945329637 7.707022434831741542 -0.6946583786197038091 0 0.7193397924579483238 0.3596698962289741619 0 0.3473291893098519045 1 I I #
point $-1 3.390357898903999967 28.34097716945329637 9.403890328681638877 #
loop $-1 $-1 $432 $424 #
plane-surface $-1 0 28.19140774002880079 5.991631294971604405 1 0 0 0 0 -1 forward_v I I I I #
coedge $-1 $614 $427 $429 $618 reversed $269 $-1 #
coedge $-1 $427 $613 $768 $769 reversed $269 $-1 #
coedge $-1 $435 $430 $427 $616 forward $425 $-1 #
edge $-1 $619 -14.85382531997472455 $770 -8.792449314624668943 $615 $771 forward 7 unknown #
coedge $-1 $429 $428 $622 $772 reversed $163 $-1 #
edge $-1 $773 1.004706128837293117e-14 $619 8.426304326413864842 $613 $774 forward 7 unknown #
vertex $-1 $431 $775 #
straight-curve $-1 6.061376005350048501 32.80953261089481998 11.98326258994320881 0 1 0 I I #
coedge $-1 $768 $432 $435 $626 reversed $611 $-1 #
coedge $-1 $432 $768 $617 $772 forward $611 $-1 #
vertex $-1 $433 $776 #
straight-curve $-1 0 33.37676525448319609 38.55232746244971764 0 0 1 I I #
straight-curve $-1 -7.105427357601001859e-15 33.37676525448319609 6.129859688800358697 -0.7193397924579483238 0 -0.6946583786197038091 I I #
edge $-1 $770 -13.28714196900968147 $436 -5.1853575144543953 $621 $777 forward 7 unknown #
point $-1 0 33.37676525448319609 11.98326258994320881 #
point $-1 6.061376005350055607 33.37676525448319609 11.98326258994320881 #
edge $-1 $778 1 $778 0 $439 $-1 forward 7 unknown #
vertex $-1 $440 $779 #
ellipse-curve $-1 4.333922410404703385 35.69156081292756255 7.707022434831741542 -0.6946583786197038091 0 0.7193397924579483238 0.3596698962289741619 0 0.3473291893098519045 1 I I #
point $-1 3.390357898903999967 35.69156081292756255 9.403890328681638877 #
edge $-1 $780 1 $780 0 $443 $-1 forward 7 unknown #
vertex $-1 $444 $781 #
ellipse-curve $-1 4.333922410404703385 39.1637541505941158 7.707022434831741542 -0.6946583786197038091 0 0.7193397924579483238 0.3596698962289741619 0 0.3473291893098519045 1 I I #
point $-1 3.390357898903999967 39.1637541505941158 9.403890328681638877 #
loop $-1 $-1 $455 $447 #
plane-surface $-1 0 28.19140774002880079 5.991631294971604405 1 0 0 0 0 -1 forward_v I I I I #
coedge $-1 $640 $450 $452 $644 reversed $291 $-1 #
coedge $-1 $450 $639 $782 $783 reversed $291 $-1 #
coedge $-1 $458 $453 $450 $642 forward $448 $-1 #
edge $-1 $645 -14.85382531997472455 $784 -8.792449314624668943 $641 $785 forward 7 unknown #
coedge $-1 $452 $451 $648 $786 reversed $177 $-1 #
edge $-1 $787 1.004706128837293117e-14 $645 8.426304326413864842 $639 $788 forward 7 unknown #
vertex $-1 $454 $789 #
straight-curve $-1 6.061376005350048501 38.2209211014652297 11.98326258994320881 0 1 0 I I #
coedge $-1 $782 $455 $458 $652 reversed $637 $-1 #
coedge $-1 $455 $782 $643 $786 forward $637 $-1 #
vertex $-1 $456 $790 #
straight-curve $-1 0 44.19954223562401552 38.55232746244971764 0 0 1 I I #
straight-curve $-1 -7.105427357601001859e-15 44.19954223562401552 6.129859688800358697 -0.7193397924579483238 0 -0.6946583786197038091 I I #
edge $-1 $784 -24.1099189501505009 $459 -16.00813449559521473 $647 $791 forward 7 unknown #
point $-1 0 44.19954223562401552 11.98326258994320881 #
point $-1 6.061376005350055607 44.19954223562401552 11.98326258994320881 #
edge $-1 $792 1 $792 0 $462 $-1 forward 7 unknown #
vertex $-1 $463 $793 #
ellipse-curve $-1 4.333922410404703385 46.51433779406838198 7.707022434831741542 -0.6946583786197038091 0 0.7193397924579483238 0.3596698962289741619 0 0.3473291893098519045 1 I I #
point $-1 3.390357898903999967 46.51433779406838198 9.403890328681638877 #
edge $-1 $794 1 $794 0 $466 $-1 forward 7 unknown #
vertex $-1 $467 $795 #
ellipse-curve $-1 4.333922410404703385 49.98653113173493523 7.707022434831741542 -0.6946583786197038091 0 0.7193397924579483238 0.3596698962289741619 0 0.3473291893098519045 1 I I #
point $-1 3.390357898903999967 49.98653113173493523 9.403890328681638877 #
plane-surface $-1 45.1686147648548868 28.19140774002880079 11.98326258994320881 0 0 1 1 0 0 forward_v I I I I #
coedge $-1 $674 $673 $666 $796 forward $471 $-1 #
coedge $-1 $666 $473 $475 $670 reversed $313 $-1 #
coedge $-1 $473 $665 $664 $796 reversed $313 $-1 #
coedge $-1 $481 $476 $473 $668 forward $482 $-1 #
edge $-1 $671 19.5939150998371332 $797 24.81361908401137839 $667 $798 forward 7 unknown #
coedge $-1 $475 $474 $674 $799 reversed $191 $-1 #
edge $-1 $800 -90.33722952970978781 $671 -83.20018485955492338 $665 $801 forward 7 unknown #
vertex $-1 $477 $802 #
straight-curve $-1 85.1175255455355142 27.60780998332159442 11.98326258994320881 0 -1 0 I I #
coedge $-1 $664 $478 $481 $678 reversed $471 $-1 #
coedge $-1 $478 $664 $669 $799 forward $471 $-1 #
vertex $-1 $479 $803 #
straight-curve $-1 90.3372295297097736 32.01626899119042946 70.39287535908192694 0 0 1 I I #
straight-curve $-1 24.2687630021969909 32.01626899119042946 68.72565289567947389 0.7313536940579346002 0 -0.6819983681709311796 I I #
edge $-1 $797 -6.159252277990454161 $483 3.824861251161628672 $673 $804 forward 7 unknown #
point $-1 90.3372295297097736 32.01626899119042946 11.98326258994320881 #
point $-1 85.11752554553552841 32.01626899119042946 11.98326258994320881 #
edge $-1 $805 1 $805 0 $486 $-1 forward 7 unknown #
vertex $-1 $487 $806 #
ellipse-curve $-1 85.0690054688371049 27.02421222661438804 6.698781217836016211 0.6819983681709311796 0 0.7313536940579346002 0.7313536940579346002 0 -0.6819983681709311796 1 I I #
point $-1 88.45873123168058783 27.02421222661438804 8.867537812467952918 #
loop $-1 $-1 $499 $490 #
plane-surface $-1 45.1686147648548868 56.38281548005760158 5.991631294971604405 0 -1 0 0 0 -1 forward_v I I I I #
coedge $-1 $807 $493 $498 $693 forward $328 $-1 #
coedge $-1 $493 $807 $690 $808 reversed $328 $-1 #
edge $-1 $691 58.40961276913871814 $698 63.27706558774737999 $493 $809 forward 7 unknown #
coedge $-1 $502 $496 $688 $808 forward $491 $-1 #
vertex $-1 $808 $810 #
straight-curve $-1 65.52361044569839521 46.39870195090551874 11.98326258994320881 1 0 0 I I #
edge $-1 $698 6.607618723150338269 $696 16.5917322523024211 $687 $811 forward 7 unknown #
coedge $-1 $695 $499 $502 $700 reversed $685 $-1 #
coedge $-1 $499 $694 $807 $812 forward $685 $-1 #
vertex $-1 $500 $813 #
straight-curve $-1 45.50350201100211223 56.38281548005760158 48.92393797962204616 -0.7313536940579346002 0 0.6819983681709311796 I I #
vertex $-1 $693 $814 #
straight-curve $-1 24.2687630021969909 46.39870195090551874 68.72565289567947389 -0.7313536940579346002 0 0.6819983681709311796 I I #
edge $-1 $815 -45.1686147648548868 $503 -39.94891078068064161 $694 $816 forward 7 unknown #
point $-1 85.11752554553552841 56.38281548005760158 11.98326258994320881 #
point $-1 85.11752554553552841 46.39870195090551874 11.98326258994320881 #
edge $-1 $817 1 $817 0 $506 $-1 forward 7 unknown #
vertex $-1 $507 $818 #
ellipse-curve $-1 85.0690054688371049 51.39075871548156016 6.698781217836016211 0.6819983681709311796 0 0.7313536940579346002 0.7313536940579346002 0 -0.6819983681709311796 1 I I #
point $-1 88.45873123168058783 51.39075871548156016 8.867537812467952918 #
plane-surface $-1 90.3372295297097736 28.19140774002880079 5.991631294971604405 -1 0 0 0 0 1 forward_v I I I I #
coedge $-1 $515 $513 $517 $712 reversed $343 $-1 #
edge $-1 $528 -5.991631294971604405 $714 5.991631294971604405 $527 $819 forward 7 unknown #
vertex $-1 $712 $820 #
straight-curve $-1 0 0 5.991631294971604405 0 0 -1 I I #
edge $-1 $710 -28.19140774002880079 $714 28.19140774002880079 $708 $821 forward 7 unknown #
straight-curve $-1 45.1686147648548868 0 0 -1 0 0 I I #
vertex $-1 $520 $822 #
straight-curve $-1 45.1686147648548868 56.38281548005760158 0 1 0 0 I I #
point $-1 90.3372295297097736 56.38281548005760158 0 #
point $-1 90.3372295297097736 0 0 #
straight-curve $-1 0 28.19140774002880079 11.98326258994320881 0 -1 0 I I #
point $-1 0 56.38281548005760158 11.98326258994320881 #
point $-1 0 0 11.98326258994320881 #
straight-curve $-1 90.3372295297097736 0 5.991631294971604405 0 0 -1 I I #
straight-curve $-1 90.3372295297097736 56.38281548005760158 5.991631294971604405 0 0 -1 I I #
plane-surface $-1 90.3372295297097736 28.19140774002880079 5.991631294971604405 -1 0 0 0 0 1 forward_v I I I I #
coedge $-1 $541 $540 $551 $735 reversed $217 $-1 #
coedge $-1 $823 $544 $541 $726 forward $538 $-1 #
edge $-1 $727 20.54168523770554344 $824 28.19140774002880079 $541 $825 forward 7 unknown #
vertex $-1 $726 $826 #
straight-curve $-1 0 7.649722502323257345 8.237446942457406607 0 0 -1 I I #
coedge $-1 $544 $823 $546 $731 forward $538 $-1 #
straight-curve $-1 45.1686147648548868 7.649722502323257345 11.98326258994320881 -1 0 0 I I #
edge $-1 $738 -28.19140774002880079 $547 -20.54168523770554344 $546 $827 forward 7 unknown #
point $-1 90.3372295297097736 7.649722502323257345 11.98326258994320881 #
straight-curve $-1 0 16.00813449559521473 8.983262589943208809 0 -1 0 I I #
coedge $-1 $551 $550 $823 $828 reversed $362 $-1 #
edge $-1 $824 -5.991631294971604405 $552 -2.991631294971604405 $724 $829 forward 7 unknown #
point $-1 0 0 8.983262589943208809 #
point $-1 0 7.649722502323257345 8.983262589943208809 #
vertex $-1 $731 $830 #
straight-curve $-1 90.3372295297097736 0 5.991631294971604405 0 0 -1 I I #
coedge $-1 $570 $569 $562 $741 forward $559 $-1 #
edge $-1 $742 26.56906487250650883 $745 32.42246777364935184 $740 $831 forward 7 unknown #
vertex $-1 $574 $832 #
straight-curve $-1 -8.792449314624668943 19.8329957467568434 11.98326258994320881 -1 0 0 I I #
edge $-1 $745 2.153759882997157149 $571 10.25554433755243977 $570 $833 forward 7 unknown #
vertex $-1 $744 $834 #
straight-curve $-1 -7.105427357601001859e-15 19.8329957467568434 6.129859688800358697 0.7193397924579483238 0 0.6946583786197038091 I I #
point $-1 6.061376005350055607 19.8329957467568434 11.98326258994320881 #
point $-1 0 11.73121129220156078 6.129859688800365802 #
straight-curve $-1 0 28.19140774002880079 11.98326258994320881 0 -1 0 I I #
vertex $-1 $577 $835 #
point $-1 4.693592306633675548 14.04600685064592724 8.054351624141594002 #
vertex $-1 $581 $836 #
point $-1 4.693592306633675548 17.51820018831247694 8.054351624141594002 #
coedge $-1 $596 $595 $588 $755 forward $585 $-1 #
edge $-1 $756 26.56906487250650883 $759 32.42246777364935184 $754 $837 forward 7 unknown #
vertex $-1 $600 $838 #
straight-curve $-1 -8.792449314624668943 30.65577272789766283 11.98326258994320881 -1 0 0 I I #
edge $-1 $759 -3.257628607573252566 $597 4.844155846982033609 $596 $839 forward 7 unknown #
vertex $-1 $758 $840 #
straight-curve $-1 -7.105427357601001859e-15 30.65577272789766283 6.129859688800358697 0.7193397924579483238 0 0.6946583786197038091 I I #
point $-1 6.061376005350055607 30.65577272789766283 11.98326258994320881 #
point $-1 0 22.55398827334237666 6.129859688800365802 #
straight-curve $-1 0 28.19140774002880079 11.98326258994320881 0 -1 0 I I #
vertex $-1 $603 $841 #
point $-1 4.693592306633675548 24.86878383178674667 8.054351624141594002 #
vertex $-1 $607 $842 #
point $-1 4.693592306633675548 28.34097716945329637 8.054351624141594002 #
coedge $-1 $622 $621 $614 $769 forward $611 $-1 #
edge $-1 $770 26.56906487250650883 $773 32.42246777364935184 $768 $843 forward 7 unknown #
vertex $-1 $626 $844 #
straight-curve $-1 -8.792449314624668943 41.47854970903848226 11.98326258994320881 -1 0 0 I I #
edge $-1 $773 -8.669017098143662281 $623 -0.5672326435883761064 $622 $845 forward 7 unknown #
vertex $-1 $772 $846 #
straight-curve $-1 -7.105427357601001859e-15 41.47854970903848226 6.129859688800358697 0.7193397924579483238 0 0.6946583786197038091 I I #
point $-1 6.061376005350055607 41.47854970903848226 11.98326258994320881 #
point $-1 0 33.37676525448319609 6.129859688800365802 #
straight-curve $-1 0 28.19140774002880079 11.98326258994320881 0 -1 0 I I #
vertex $-1 $629 $847 #
point $-1 4.693592306633675548 35.69156081292756255 8.054351624141594002 #
vertex $-1 $633 $848 #
point $-1 4.693592306633675548 39.1637541505941158 8.054351624141594002 #
coedge $-1 $648 $647 $640 $783 forward $637 $-1 #
edge $-1 $784 26.56906487250650883 $787 32.42246777364935184 $782 $849 forward 7 unknown #
vertex $-1 $652 $850 #
straight-curve $-1 -8.792449314624668943 52.30132669017930169 11.98326258994320881 -1 0 0 I I #
edge $-1 $787 -14.080405588714072 $649 -5.978621134158785821 $648 $851 forward 7 unknown #
vertex $-1 $786 $852 #
straight-curve $-1 -7.105427357601001859e-15 52.30132669017930169 6.129859688800358697 0.7193397924579483238 0 0.6946583786197038091 I I #
point $-1 6.061376005350055607 52.30132669017930169 11.98326258994320881 #
point $-1 0 44.19954223562401552 6.129859688800365802 #
straight-curve $-1 0 28.19140774002880079 11.98326258994320881 0 -1 0 I I #
vertex $-1 $655 $853 #
point $-1 4.693592306633675548 46.51433779406838198 8.054351624141594002 #
vertex $-1 $659 $854 #
point $-1 4.693592306633675548 49.98653113173493523 8.054351624141594002 #
edge $-1 $797 58.40961276913871814 $800 63.27706558774737999 $664 $855 forward 7 unknown #
vertex $-1 $678 $856 #
straight-curve $-1 65.52361044569839521 22.03215546203834663 11.98326258994320881 1 0 0 I I #
edge $-1 $800 -5.575654521283247789 $675 4.408459007868835045 $674 $857 forward 7 unknown #
vertex $-1 $799 $858 #
straight-curve $-1 24.2687630021969909 22.03215546203834663 68.72565289567947389 -0.7313536940579346002 0 0.6819983681709311796 I I #
point $-1 85.11752554553552841 22.03215546203834663 11.98326258994320881 #
point $-1 90.3372295297097736 32.01626899119042946 7.115809771334546951 #
straight-curve $-1 90.3372295297097736 28.19140774002880079 11.98326258994320881 0 1 0 I I #
vertex $-1 $681 $859 #
point $-1 85.80035916289503461 27.02421222661438804 6.016782849665085919 #
coedge $-1 $688 $687 $695 $812 reversed $328 $-1 #
edge $-1 $691 18.20729421087671795 $815 28.19140774002880079 $688 $860 forward 7 unknown #
straight-curve $-1 90.3372295297097736 46.39870195090551874 70.39287535908192694 0 0 -1 I I #
point $-1 90.3372295297097736 46.39870195090551874 11.98326258994320881 #
straight-curve $-1 90.33722952970975939 39.79108322775518047 7.11580977133455761 0 1 0 I I #
edge $-1 $815 -5.991631294971604405 $696 -1.124178476362942547 $807 $861 forward 7 unknown #
point $-1 90.3372295297097736 56.38281548005760158 7.115809771334546951 #
point $-1 90.3372295297097736 46.39870195090551874 7.115809771334546951 #
vertex $-1 $808 $862 #
straight-curve $-1 45.1686147648548868 56.38281548005760158 11.98326258994320881 -1 0 0 I I #
vertex $-1 $703 $863 #
point $-1 85.80035916289503461 51.39075871548156016 6.016782849665085919 #
straight-curve $-1 0 56.38281548005760158 5.991631294971604405 0 0 -1 I I #
point $-1 0 0 0 #
straight-curve $-1 0 28.19140774002880079 0 0 1 0 I I #
point $-1 0 56.38281548005760158 0 #
coedge $-1 $729 $725 $734 $828 forward $538 $-1 #
vertex $-1 $726 $864 #
straight-curve $-1 0 28.19140774002880079 11.98326258994320881 0 -1 0 I I #
point $-1 0 7.649722502323257345 11.98326258994320881 #
straight-curve $-1 90.3372295297097736 28.19140774002880079 11.98326258994320881 0 1 0 I I #
edge $-1 $824 -45.1686147648548868 $738 45.1686147648548868 $734 $865 forward 7 unknown #
straight-curve $-1 0 0 5.991631294971604405 0 0 -1 I I #
point $-1 90.3372295297097736 0 11.98326258994320881 #
straight-curve $-1 0 19.8329957467568434 38.55232746244971764 0 0 -1 I I #
point $-1 0 19.8329957467568434 11.98326258994320881 #
straight-curve $-1 0 21.98675562975400055 6.129859688800371131 0 -1 0 I I #
point $-1 0 19.8329957467568434 6.129859688800365802 #
point $-1 4.681251599714549627 14.04600685064592724 7.347352538602767602 #
point $-1 4.681251599714549627 17.51820018831247694 7.347352538602767602 #
straight-curve $-1 0 30.65577272789766283 38.55232746244971764 0 0 -1 I I #
point $-1 0 30.65577272789766283 11.98326258994320881 #
straight-curve $-1 0 27.39814412032441027 6.129859688800371131 0 -1 0 I I #
point $-1 0 30.65577272789766283 6.129859688800365802 #
point $-1 4.681251599714549627 24.86878383178674667 7.347352538602767602 #
point $-1 4.681251599714549627 28.34097716945329637 7.347352538602767602 #
straight-curve $-1 0 41.47854970903848226 38.55232746244971764 0 0 -1 I I #
point $-1 0 41.47854970903848226 11.98326258994320881 #
straight-curve $-1 0 32.80953261089481998 6.129859688800371131 0 -1 0 I I #
point $-1 0 41.47854970903848226 6.129859688800365802 #
point $-1 4.681251599714549627 35.69156081292756255 7.347352538602767602 #
point $-1 4.681251599714549627 39.1637541505941158 7.347352538602767602 #
straight-curve $-1 0 52.30132669017930169 38.55232746244971764 0 0 -1 I I #
point $-1 0 52.30132669017930169 11.98326258994320881 #
straight-curve $-1 0 38.2209211014652297 6.129859688800371131 0 -1 0 I I #
point $-1 0 52.30132669017930169 6.129859688800365802 #
point $-1 4.681251599714549627 46.51433779406838198 7.347352538602767602 #
point $-1 4.681251599714549627 49.98653113173493523 7.347352538602767602 #
straight-curve $-1 90.3372295297097736 22.03215546203834663 70.39287535908192694 0 0 -1 I I #
point $-1 90.3372295297097736 22.03215546203834663 11.98326258994320881 #
straight-curve $-1 90.33722952970975939 27.60780998332159442 7.11580977133455761 0 1 0 I I #
point $-1 90.3372295297097736 22.03215546203834663 7.115809771334546951 #
point $-1 84.38700710066618171 27.02421222661438804 5.967427523778082055 #
straight-curve $-1 90.3372295297097736 28.19140774002880079 11.98326258994320881 0 1 0 I I #
straight-curve $-1 90.3372295297097736 56.38281548005760158 5.991631294971604405 0 0 -1 I I #
point $-1 90.3372295297097736 56.38281548005760158 11.98326258994320881 #
point $-1 84.38700710066618171 51.39075871548156016 5.967427523778082055 #
point $-1 0 0 11.98326258994320881 #
straight-curve $-1 45.1686147648548868 0 11.98326258994320881 1 0 0 I I #
End-of-ACIS-data 