600 0 7 0           
95 GICL ACIS Healer - Source: /gicl/data5/repository/Drexel/SM99-DATA/part107.smdg.delta.sat - 6 0 18 ACIS 6.0.3 Solaris 24 Sat Apr 13 20:43:39 2002 
1 9.999999999999999547e-07 1.000000000000000036e-10 
body $-1 $7 $-1 $-1 #
body $-1 $8 $-1 $-1 #
body $-1 $9 $-1 $-1 #
body $-1 $10 $-1 $-1 #
body $-1 $11 $-1 $-1 #
body $-1 $12 $-1 $-1 #
body $-1 $13 $-1 $-1 #
lump $-1 $-1 $14 $0 #
lump $-1 $-1 $15 $1 #
lump $-1 $-1 $16 $2 #
lump $-1 $-1 $17 $3 #
lump $-1 $-1 $18 $4 #
lump $-1 $-1 $19 $5 #
lump $-1 $-1 $20 $6 #
shell $-1 $-1 $-1 $21 $-1 $7 #
shell $-1 $-1 $-1 $22 $-1 $8 #
shell $-1 $-1 $-1 $23 $-1 $9 #
shell $-1 $-1 $-1 $24 $-1 $10 #
shell $-1 $-1 $-1 $25 $-1 $11 #
shell $-1 $-1 $-1 $26 $-1 $12 #
shell $-1 $-1 $-1 $27 $-1 $13 #
face $-1 $28 $29 $14 $-1 $30 forward single #
face $-1 $31 $32 $15 $-1 $33 reversed single #
face $-1 $34 $35 $16 $-1 $36 forward single #
face $-1 $37 $38 $17 $-1 $39 forward single #
face $-1 $40 $41 $18 $-1 $42 reversed single #
face $-1 $43 $44 $19 $-1 $45 forward single #
face $-1 $46 $47 $20 $-1 $48 forward single #
face $-1 $49 $50 $14 $-1 $51 reversed single #
loop $-1 $-1 $52 $21 #
plane-surface $-1 79.05880916776024492 31.76611760679386975 30.25086012764048959 0 0 1 1 0 0 forward_v I I I I #
face $-1 $53 $54 $15 $-1 $55 reversed single #
loop $-1 $-1 $56 $22 #
plane-surface $-1 -105.8013391053249563 12.01794041335431729 132.9179877916882901 0 -1 0 0.6691306144064093075 0 -0.7431448182313465933 forward_v I I I I #
face $-1 $57 $58 $16 $-1 $59 forward single #
loop $-1 $60 $61 $23 #
cone-surface $-1 9.091433174286265739 3.433697260958375352 21.88574347278571963 0.6691306144064093075 0 -0.7431448182313465933 0.7431448182313465933 0 0.6691306144064093075 1 I I 0 1 1 forward I I I I #
face $-1 $62 $63 $17 $-1 $64 forward single #
loop $-1 $65 $66 $24 #
cone-surface $-1 9.091433174286265739 8.584243152395941934 21.88574347278571963 0.6691306144064093075 0 -0.7431448182313465933 0.7431448182313465933 0 0.6691306144064093075 1 I I 0 1 1 forward I I I I #
face $-1 $67 $68 $18 $-1 $69 reversed single #
loop $-1 $-1 $70 $25 #
plane-surface $-1 142.5192304852814118 60.762656143931153 247.326378130981027 0 -1 0 -0.6560590369687036016 0 -0.754709573287431712 forward_v I I I I #
face $-1 $71 $72 $19 $-1 $73 forward single #
loop $-1 $74 $75 $26 #
cone-surface $-1 153.4263839415419852 53.41931482986939272 25.82293776739371083 -0.6560590369687036016 0 -0.754709573287431712 0.754709573287431712 0 -0.6560590369687036016 1 I I 0 1 1 forward I I I I #
face $-1 $76 $77 $20 $-1 $78 forward single #
loop $-1 $79 $80 $27 #
cone-surface $-1 153.4263839415419852 57.82531961830644462 25.82293776739371083 -0.6560590369687036016 0 -0.754709573287431712 0.754709573287431712 0 -0.6560590369687036016 1 I I 0 1 1 forward I I I I #
face $-1 $81 $82 $14 $-1 $83 reversed single #
loop $-1 $-1 $84 $28 #
plane-surface $-1 79.05880916776024492 31.76611760679386975 0 0 0 1 1 0 0 forward_v I I I I #
coedge $-1 $85 $86 $87 $88 forward $29 $-1 #
face $-1 $89 $90 $15 $-1 $91 forward single #
loop $-1 $-1 $92 $31 #
plane-surface $-1 0 6.008970206677158643 15.4136990545644732 -0.6691306144064093075 0 0.7431448182313465933 0.7431448182313465933 0 0.6691306144064093075 forward_v I I I I #
coedge $-1 $93 $94 $95 $96 reversed $32 $-1 #
face $-1 $-1 $97 $16 $-1 $98 forward single #
loop $-1 $99 $100 $34 #
cone-surface $-1 10.27826344905597011 3.433697260958375352 20.56763494535328718 0.6691306144064093075 0 -0.7431448182313465933 0.3715724091156732967 0 0.3345653072032046538 1 I I -0.7071067811865474617 0.7071067811865474617 0.5 forward I I I I #
loop $-1 $-1 $101 $23 #
coedge $-1 $61 $61 $102 $103 reversed $35 $-1 #
face $-1 $-1 $104 $17 $-1 $105 forward single #
loop $-1 $106 $107 $37 #
cone-surface $-1 10.27826344905597011 8.584243152395941934 20.56763494535328718 0.6691306144064093075 0 -0.7431448182313465933 0.3715724091156732967 0 0.3345653072032046538 1 I I -0.7071067811865474617 0.7071067811865474617 0.5 forward I I I I #
loop $-1 $-1 $108 $24 #
coedge $-1 $66 $66 $109 $110 reversed $38 $-1 #
face $-1 $111 $112 $18 $-1 $113 reversed single #
loop $-1 $-1 $114 $40 #
plane-surface $-1 38.78473807229481451 55.62231722408792223 127.9934978677553801 0.6560590369687036016 0 0.754709573287431712 0.754709573287431712 0 -0.6560590369687036016 forward_v I I I I #
coedge $-1 $115 $116 $117 $118 reversed $41 $-1 #
face $-1 $-1 $119 $19 $-1 $120 forward single #
loop $-1 $121 $122 $43 #
cone-surface $-1 151.8535401136629162 53.41931482986939272 24.01358795693906245 -0.6560590369687036016 0 -0.754709573287431712 0.377354786643715856 0 -0.3280295184843518008 1 I I -0.7071067811865474617 0.7071067811865474617 0.5 forward I I I I #
loop $-1 $-1 $123 $26 #
coedge $-1 $75 $75 $124 $125 reversed $44 $-1 #
face $-1 $-1 $126 $20 $-1 $127 forward single #
loop $-1 $128 $129 $46 #
cone-surface $-1 151.8535401136629162 57.82531961830644462 24.01358795693906245 -0.6560590369687036016 0 -0.754709573287431712 0.377354786643715856 0 -0.3280295184843518008 1 I I -0.7071067811865474617 0.7071067811865474617 0.5 forward I I I I #
loop $-1 $-1 $130 $27 #
coedge $-1 $80 $80 $131 $132 reversed $47 $-1 #
face $-1 $133 $134 $14 $-1 $135 reversed single #
loop $-1 $-1 $136 $49 #
plane-surface $-1 79.05880916776024492 0 15.1254300638202448 0 1 0 0 0 1 forward_v I I I I #
coedge $-1 $137 $138 $139 $140 forward $50 $-1 #
coedge $-1 $141 $52 $142 $143 forward $29 $-1 #
coedge $-1 $52 $141 $144 $145 forward $29 $-1 #
coedge $-1 $146 $147 $52 $88 reversed $148 $-1 #
edge $-1 $149 -31.76611760679386975 $150 31.76611760679386975 $87 $151 forward 7 unknown #
face $-1 $152 $153 $15 $-1 $154 reversed single #
loop $-1 $-1 $155 $53 #
plane-surface $-1 79.05880916776024492 31.76611760679386975 30.25086012764048959 0 0 1 1 0 0 forward_v I I I I #
coedge $-1 $156 $157 $158 $159 reversed $54 $-1 #
coedge $-1 $94 $56 $160 $161 reversed $32 $-1 #
coedge $-1 $56 $93 $156 $162 reversed $32 $-1 #
coedge $-1 $158 $163 $56 $96 forward $153 $-1 #
edge $-1 $164 43.77084880011376811 $165 58.60800987318978628 $95 $166 forward 7 unknown #
loop $-1 $-1 $102 $57 #
plane-surface $-1 0 6.008970206677158643 15.4136990545644732 -0.6691306144064093075 0 0.7431448182313465933 0.7431448182313465933 0 0.6691306144064093075 forward_v I I I I #
loop $-1 $-1 $167 $34 #
coedge $-1 $100 $100 $101 $168 reversed $58 $-1 #
coedge $-1 $101 $101 $100 $168 forward $60 $-1 #
coedge $-1 $102 $102 $61 $103 forward $97 $-1 #
edge $-1 $169 0 $169 6.283185307179586232 $102 $170 forward 7 unknown #
loop $-1 $-1 $109 $62 #
plane-surface $-1 0 6.008970206677158643 15.4136990545644732 -0.6691306144064093075 0 0.7431448182313465933 0.7431448182313465933 0 0.6691306144064093075 forward_v I I I I #
loop $-1 $-1 $171 $37 #
coedge $-1 $107 $107 $108 $172 reversed $63 $-1 #
coedge $-1 $108 $108 $107 $172 forward $65 $-1 #
coedge $-1 $109 $109 $66 $110 forward $104 $-1 #
edge $-1 $173 0 $173 6.283185307179586232 $109 $174 forward 7 unknown #
face $-1 $175 $176 $18 $-1 $177 reversed single #
loop $-1 $-1 $178 $67 #
plane-surface $-1 142.5192304852814118 50.48197830424469146 247.326378130981027 0 1 0 0.6560590369687036016 0 0.754709573287431712 forward_v I I I I #
coedge $-1 $179 $180 $181 $182 reversed $68 $-1 #
coedge $-1 $116 $70 $183 $184 reversed $41 $-1 #
coedge $-1 $70 $115 $179 $185 reversed $41 $-1 #
coedge $-1 $181 $186 $70 $118 forward $187 $-1 #
edge $-1 $188 -47.32859850899966148 $189 -40.43575833983202017 $117 $190 forward 7 unknown #
loop $-1 $-1 $124 $71 #
plane-surface $-1 38.78473807229481451 55.62231722408792223 127.9934978677553801 0.6560590369687036016 0 0.754709573287431712 0.754709573287431712 0 -0.6560590369687036016 forward_v I I I I #
loop $-1 $-1 $191 $43 #
coedge $-1 $122 $122 $123 $192 reversed $72 $-1 #
coedge $-1 $123 $123 $122 $192 forward $74 $-1 #
coedge $-1 $124 $124 $75 $125 forward $119 $-1 #
edge $-1 $193 0 $193 6.283185307179586232 $124 $194 forward 7 unknown #
loop $-1 $-1 $131 $76 #
plane-surface $-1 38.78473807229481451 55.62231722408792223 127.9934978677553801 0.6560590369687036016 0 0.754709573287431712 0.754709573287431712 0 -0.6560590369687036016 forward_v I I I I #
loop $-1 $-1 $195 $46 #
coedge $-1 $129 $129 $130 $196 reversed $77 $-1 #
coedge $-1 $130 $130 $129 $196 forward $79 $-1 #
coedge $-1 $131 $131 $80 $132 forward $126 $-1 #
edge $-1 $197 0 $197 6.283185307179586232 $131 $198 forward 7 unknown #
face $-1 $199 $200 $14 $-1 $201 reversed single #
loop $-1 $-1 $202 $81 #
plane-surface $-1 0 31.76611760679386975 15.1254300638202448 1 0 0 0 0 -1 forward_v I I I I #
coedge $-1 $203 $144 $204 $205 forward $82 $-1 #
coedge $-1 $206 $84 $203 $207 forward $50 $-1 #
coedge $-1 $84 $206 $208 $209 forward $50 $-1 #
coedge $-1 $147 $146 $84 $140 reversed $148 $-1 #
edge $-1 $210 -31.76611760679386975 $211 31.76611760679386975 $139 $212 forward 7 unknown #
coedge $-1 $86 $85 $213 $214 forward $29 $-1 #
coedge $-1 $215 $216 $85 $143 reversed $200 $-1 #
edge $-1 $150 -79.05880916776024492 $217 79.05880916776024492 $142 $218 forward 7 unknown #
coedge $-1 $136 $219 $86 $145 reversed $82 $-1 #
edge $-1 $220 -79.05880916776024492 $149 79.05880916776024492 $144 $221 forward 7 unknown #
coedge $-1 $139 $87 $219 $222 forward $148 $-1 #
coedge $-1 $87 $139 $215 $223 reversed $148 $-1 #
loop $-1 $-1 $146 $199 #
vertex $-1 $88 $224 #
vertex $-1 $88 $225 #
straight-curve $-1 158.1176183355204898 31.76611760679386975 30.25086012764048959 0 1 0 I I #
face $-1 $-1 $226 $15 $-1 $227 reversed single #
loop $-1 $-1 $95 $89 #
plane-surface $-1 0 31.76611760679386975 15.1254300638202448 1 0 0 0 0 -1 forward_v I I I I #
coedge $-1 $160 $228 $229 $230 forward $90 $-1 #
coedge $-1 $229 $92 $94 $162 forward $54 $-1 #
coedge $-1 $92 $229 $231 $232 reversed $54 $-1 #
coedge $-1 $233 $95 $92 $159 forward $153 $-1 #
edge $-1 $165 6.869603493381198689 $234 18.88754390673551598 $158 $235 forward 7 unknown #
coedge $-1 $236 $155 $93 $161 forward $90 $-1 #
edge $-1 $237 -29.84960138222186288 $164 -13.37126496878235571 $160 $238 forward 7 unknown #
edge $-1 $165 0 $237 22.17378902359469706 $94 $239 forward 7 unknown #
coedge $-1 $95 $233 $236 $240 reversed $153 $-1 #
vertex $-1 $240 $241 #
vertex $-1 $96 $242 #
straight-curve $-1 0 12.01794041335431729 74.02170892775426125 0 0 -1 I I #
coedge $-1 $167 $167 $-1 $243 reversed $99 $-1 #
edge $-1 $244 0 $244 6.283185307179586232 $100 $245 forward 7 unknown #
vertex $-1 $103 $246 #
ellipse-curve $-1 8.239168206719767795 3.433697260958375352 22.83227959110248406 -0.6691306144064093075 0 0.7431448182313465933 0.7431448182313465933 0 0.6691306144064093075 1 I I #
coedge $-1 $171 $171 $-1 $247 reversed $106 $-1 #
edge $-1 $248 0 $248 6.283185307179586232 $107 $249 forward 7 unknown #
vertex $-1 $110 $250 #
ellipse-curve $-1 8.239168206719767795 8.584243152395941934 22.83227959110248406 -0.6691306144064093075 0 0.7431448182313465933 0.7431448182313465933 0 0.6691306144064093075 1 I I #
face $-1 $-1 $187 $18 $-1 $251 forward single #
loop $-1 $-1 $252 $111 #
plane-surface $-1 158.1176183355204898 31.76611760679386975 15.1254300638202448 -1 0 0 0 0 1 forward_v I I I I #
coedge $-1 $253 $254 $255 $256 reversed $112 $-1 #
coedge $-1 $257 $114 $116 $185 forward $68 $-1 #
coedge $-1 $114 $257 $253 $258 forward $68 $-1 #
coedge $-1 $255 $117 $114 $182 forward $187 $-1 #
edge $-1 $189 -17.06843872849025701 $259 -6.787760888803795467 $181 $260 forward 7 unknown #
coedge $-1 $261 $262 $115 $184 forward $176 $-1 #
edge $-1 $263 -106.9668986426318895 $188 -100.9750439697601507 $183 $264 forward 7 unknown #
edge $-1 $189 148.9845154663688902 $263 158.1176183355205183 $116 $265 forward 7 unknown #
coedge $-1 $117 $255 $261 $266 forward $187 $-1 #
loop $-1 $-1 $255 $175 #
vertex $-1 $184 $267 #
vertex $-1 $118 $268 #
straight-curve $-1 110.7890198265208284 60.762656143931153 30.25086012764049315 -1 0 0 I I #
coedge $-1 $191 $191 $-1 $269 reversed $121 $-1 #
edge $-1 $270 0 $270 6.283185307179586232 $122 $271 forward 7 unknown #
vertex $-1 $125 $272 #
ellipse-curve $-1 154.6711982509366976 53.41931482986939272 27.25493279120461665 0.6560590369687036016 0 0.754709573287431712 0.754709573287431712 0 -0.6560590369687036016 1 I I #
coedge $-1 $195 $195 $-1 $273 reversed $128 $-1 #
edge $-1 $274 0 $274 6.283185307179586232 $129 $275 forward 7 unknown #
vertex $-1 $132 $276 #
ellipse-curve $-1 154.6711982509366976 57.82531961830644462 27.25493279120461665 0.6560590369687036016 0 0.754709573287431712 0.754709573287431712 0 -0.6560590369687036016 1 I I #
face $-1 $-1 $148 $14 $-1 $277 reversed single #
loop $-1 $-1 $215 $133 #
plane-surface $-1 79.05880916776024492 63.53223521358773951 15.1254300638202448 0 -1 0 0 0 -1 forward_v I I I I #
coedge $-1 $278 $213 $216 $279 forward $134 $-1 #
coedge $-1 $219 $136 $137 $207 reversed $82 $-1 #
coedge $-1 $213 $278 $136 $205 reversed $134 $-1 #
edge $-1 $220 -15.1254300638202448 $280 15.1254300638202448 $204 $281 forward 7 unknown #
coedge $-1 $138 $137 $278 $282 forward $50 $-1 #
edge $-1 $211 -79.05880916776024492 $280 79.05880916776024492 $203 $283 forward 7 unknown #
coedge $-1 $216 $215 $138 $209 reversed $200 $-1 #
edge $-1 $284 -79.05880916776024492 $210 79.05880916776024492 $208 $285 forward 7 unknown #
vertex $-1 $140 $286 #
vertex $-1 $222 $287 #
straight-curve $-1 158.1176183355204898 31.76611760679386975 0 0 -1 0 I I #
coedge $-1 $202 $204 $141 $214 reversed $134 $-1 #
edge $-1 $217 -31.76611760679386975 $220 31.76611760679386975 $213 $288 forward 7 unknown #
coedge $-1 $208 $142 $147 $223 forward $200 $-1 #
coedge $-1 $142 $208 $202 $279 reversed $200 $-1 #
vertex $-1 $143 $289 #
straight-curve $-1 79.05880916776024492 63.53223521358773951 30.25086012764048959 -1 0 0 I I #
coedge $-1 $144 $203 $146 $222 reversed $82 $-1 #
vertex $-1 $214 $290 #
straight-curve $-1 79.05880916776024492 0 30.25086012764048959 1 0 0 I I #
edge $-1 $149 -15.1254300638202448 $211 15.1254300638202448 $146 $291 forward 7 unknown #
edge $-1 $150 -15.1254300638202448 $210 15.1254300638202448 $147 $292 forward 7 unknown #
point $-1 158.1176183355204898 0 30.25086012764048959 #
point $-1 158.1176183355204898 63.53223521358773951 30.25086012764048959 #
loop $-1 $-1 $231 $152 #
plane-surface $-1 79.05880916776024492 0 15.1254300638202448 0 1 0 0 0 1 forward_v I I I I #
coedge $-1 $155 $236 $293 $294 forward $90 $-1 #
coedge $-1 $157 $156 $155 $230 reversed $54 $-1 #
edge $-1 $295 -18.88754390673551598 $237 -6.869603493381198689 $155 $296 forward 7 unknown #
coedge $-1 $293 $297 $157 $232 forward $226 $-1 #
edge $-1 $234 -29.27962738083544991 $295 -7.105838357240756409 $231 $298 forward 7 unknown #
coedge $-1 $163 $158 $297 $299 reversed $153 $-1 #
vertex $-1 $159 $300 #
straight-curve $-1 0 18.88754390673551598 15.4136990545644732 0 -1 0 I I #
coedge $-1 $228 $160 $163 $240 forward $90 $-1 #
vertex $-1 $161 $301 #
straight-curve $-1 -13.37126496878235571 12.01794041335431729 30.25086012764049315 -1 0 0 I I #
straight-curve $-1 0 12.01794041335431729 15.4136990545644732 0.7431448182313465933 0 0.6691306144064093075 I I #
edge $-1 $164 19.74817719343955247 $302 31.76611760679386975 $163 $303 forward 7 unknown #
point $-1 0 12.01794041335431729 30.25086012764048959 #
point $-1 0 12.01794041335431729 15.4136990545644732 #
edge $-1 $304 1 $304 0 $167 $-1 forward 7 unknown #
vertex $-1 $168 $305 #
ellipse-curve $-1 9.943698141852763683 3.433697260958375352 20.93920735446896231 -0.6691306144064093075 0 0.7431448182313465933 0.7431448182313465933 0 0.6691306144064093075 1 I I #
point $-1 8.982313024951110947 3.433697260958375352 23.50141020550888982 #
edge $-1 $306 1 $306 0 $171 $-1 forward 7 unknown #
vertex $-1 $172 $307 #
ellipse-curve $-1 9.943698141852763683 8.584243152395941934 20.93920735446896231 -0.6691306144064093075 0 0.7431448182313465933 0.7431448182313465933 0 0.6691306144064093075 1 I I #
point $-1 8.982313024951110947 8.584243152395941934 23.50141020550888982 #
plane-surface $-1 79.05880916776024492 31.76611760679386975 30.25086012764048959 0 0 1 1 0 0 forward_v I I I I #
coedge $-1 $262 $261 $254 $308 forward $176 $-1 #
coedge $-1 $254 $178 $180 $258 reversed $112 $-1 #
coedge $-1 $178 $253 $252 $308 reversed $112 $-1 #
coedge $-1 $186 $181 $178 $256 forward $187 $-1 #
edge $-1 $259 40.43575833983202017 $309 47.32859850899966148 $255 $310 forward 7 unknown #
coedge $-1 $180 $179 $262 $311 reversed $68 $-1 #
edge $-1 $312 -158.1176183355205183 $259 -148.9845154663688902 $253 $313 forward 7 unknown #
vertex $-1 $182 $314 #
straight-curve $-1 151.2247781663528485 43.69421741544089599 30.25086012764050736 0 -1 0 I I #
coedge $-1 $252 $183 $186 $266 reversed $176 $-1 #
coedge $-1 $183 $252 $257 $311 forward $176 $-1 #
vertex $-1 $184 $315 #
straight-curve $-1 158.1176183355204898 60.762656143931153 131.2259040974006439 0 0 1 I I #
straight-curve $-1 38.78473807229481451 60.762656143931153 127.9934978677553801 0.754709573287431712 0 -0.6560590369687036016 I I #
edge $-1 $309 18.7158606974508217 $188 28.99653853713728324 $261 $316 forward 7 unknown #
point $-1 158.1176183355204898 60.762656143931153 30.25086012764048959 #
point $-1 151.2247781663528485 60.762656143931153 30.25086012764049315 #
edge $-1 $317 1 $317 0 $191 $-1 forward 7 unknown #
vertex $-1 $192 $318 #
ellipse-curve $-1 152.1815696321472728 53.41931482986939272 24.39094274358277659 0.6560590369687036016 0 0.754709573287431712 0.754709573287431712 0 -0.6560590369687036016 1 I I #
point $-1 155.4259078242241401 53.41931482986939272 26.5988737542359388 #
edge $-1 $319 1 $319 0 $195 $-1 forward 7 unknown #
vertex $-1 $196 $320 #
ellipse-curve $-1 152.1815696321472728 57.82531961830644462 24.39094274358277659 0.6560590369687036016 0 0.754709573287431712 0.754709573287431712 0 -0.6560590369687036016 1 I I #
point $-1 155.4259078242241401 57.82531961830644462 26.5988737542359388 #
plane-surface $-1 158.1176183355204898 31.76611760679386975 15.1254300638202448 -1 0 0 0 0 1 forward_v I I I I #
coedge $-1 $204 $202 $206 $282 reversed $134 $-1 #
edge $-1 $217 -15.1254300638202448 $284 15.1254300638202448 $216 $321 forward 7 unknown #
vertex $-1 $282 $322 #
straight-curve $-1 0 0 15.1254300638202448 0 0 -1 I I #
edge $-1 $280 -31.76611760679386975 $284 31.76611760679386975 $278 $323 forward 7 unknown #
straight-curve $-1 79.05880916776024492 0 0 -1 0 0 I I #
vertex $-1 $209 $324 #
straight-curve $-1 79.05880916776024492 63.53223521358773951 0 1 0 0 I I #
point $-1 158.1176183355204898 63.53223521358773951 0 #
point $-1 158.1176183355204898 0 0 #
straight-curve $-1 0 31.76611760679386975 30.25086012764048959 0 -1 0 I I #
point $-1 0 63.53223521358773951 30.25086012764048959 #
point $-1 0 0 30.25086012764048959 #
straight-curve $-1 158.1176183355204898 0 15.1254300638202448 0 0 -1 I I #
straight-curve $-1 158.1176183355204898 63.53223521358773951 15.1254300638202448 0 0 -1 I I #
coedge $-1 $297 $231 $228 $294 reversed $226 $-1 #
edge $-1 $302 -79.05880916776024492 $295 -62.58047275432073775 $293 $325 forward 7 unknown #
vertex $-1 $232 $326 #
straight-curve $-1 16.47833641343950717 18.88754390673551598 30.25086012764048604 0 1 0 I I #
coedge $-1 $231 $293 $233 $299 forward $226 $-1 #
straight-curve $-1 21.7590033678125252 0 35.00559411349362193 0.7431448182313465933 0 0.6691306144064093075 I I #
edge $-1 $302 -15.1254300638202448 $234 -0.2882689907442284039 $233 $327 forward 7 unknown #
point $-1 0 0 15.4136990545644732 #
point $-1 16.47833641343950717 12.01794041335431729 30.25086012764048959 #
vertex $-1 $240 $328 #
straight-curve $-1 0 31.76611760679386975 30.25086012764048959 0 -1 0 I I #
vertex $-1 $243 $329 #
point $-1 10.68684296008410683 3.433697260958375352 21.60833796887536806 #
vertex $-1 $247 $330 #
point $-1 10.68684296008410683 8.584243152395941934 21.60833796887536806 #
edge $-1 $309 100.9750439697601507 $312 106.9668986426318895 $252 $331 forward 7 unknown #
vertex $-1 $266 $332 #
straight-curve $-1 110.7890198265208284 50.48197830424469146 30.25086012764049315 1 0 0 I I #
edge $-1 $312 6.787760888803795467 $263 17.06843872849025701 $262 $333 forward 7 unknown #
vertex $-1 $311 $334 #
straight-curve $-1 38.78473807229481451 50.48197830424469146 127.9934978677553801 -0.754709573287431712 0 0.6560590369687036016 I I #
point $-1 151.2247781663528485 50.48197830424469146 30.25086012764049315 #
point $-1 158.1176183355204898 60.762656143931153 24.25900545476875436 #
straight-curve $-1 158.1176183355204898 31.76611760679386975 30.25086012764048959 0 1 0 I I #
vertex $-1 $269 $335 #
point $-1 152.9362792054346869 53.41931482986939272 23.73488370661407387 #
vertex $-1 $273 $336 #
point $-1 152.9362792054346869 57.82531961830644462 23.73488370661407387 #
straight-curve $-1 0 63.53223521358773951 15.1254300638202448 0 0 -1 I I #
point $-1 0 0 0 #
straight-curve $-1 0 31.76611760679386975 0 0 1 0 I I #
point $-1 0 63.53223521358773951 0 #
straight-curve $-1 79.05880916776024492 0 30.25086012764048959 1 0 0 I I #
point $-1 16.47833641343950717 0 30.25086012764048959 #
straight-curve $-1 0 0 15.1254300638202448 0 0 -1 I I #
point $-1 0 0 30.25086012764048959 #
point $-1 10.61282875625917654 3.433697260958375352 20.19606253623761205 #
point $-1 10.61282875625917654 8.584243152395941934 20.19606253623761205 #
straight-curve $-1 158.1176183355204898 50.48197830424469146 131.2259040974006439 0 0 -1 I I #
point $-1 158.1176183355204898 50.48197830424469146 30.25086012764048959 #
straight-curve $-1 158.1176183355204898 43.69421741544089599 24.25900545476875436 0 1 0 I I #
point $-1 158.1176183355204898 50.48197830424469146 24.25900545476875436 #
point $-1 151.5255105951785595 53.41931482986939272 23.63623317029534832 #
point $-1 151.5255105951785595 57.82531961830644462 23.63623317029534832 #
End-of-ACIS-data 