600 0 14 0           
96 GICL ACIS Healer - Source: /gicl/data5/repository/Drexel/SM99-DATA/part116.smdg.deltas.sat - 6 0 18 ACIS 6.0.3 Solaris 24 Sat Apr 13 20:44:33 2002 
1 9.999999999999999547e-07 1.000000000000000036e-10 
body $-1 $14 $-1 $-1 #
body $-1 $15 $-1 $-1 #
body $-1 $16 $-1 $-1 #
body $-1 $17 $-1 $-1 #
body $-1 $18 $-1 $-1 #
body $-1 $19 $-1 $-1 #
body $-1 $20 $-1 $-1 #
body $-1 $21 $-1 $-1 #
body $-1 $22 $-1 $-1 #
body $-1 $23 $-1 $-1 #
body $-1 $24 $-1 $-1 #
body $-1 $25 $-1 $-1 #
body $-1 $26 $-1 $-1 #
body $-1 $27 $-1 $-1 #
lump $-1 $-1 $28 $0 #
lump $-1 $-1 $29 $1 #
lump $-1 $-1 $30 $2 #
lump $-1 $-1 $31 $3 #
lump $-1 $-1 $32 $4 #
lump $-1 $-1 $33 $5 #
lump $-1 $-1 $34 $6 #
lump $-1 $-1 $35 $7 #
lump $-1 $-1 $36 $8 #
lump $-1 $-1 $37 $9 #
lump $-1 $-1 $38 $10 #
lump $-1 $-1 $39 $11 #
lump $-1 $-1 $40 $12 #
lump $-1 $-1 $41 $13 #
shell $-1 $-1 $-1 $42 $-1 $14 #
shell $-1 $-1 $-1 $43 $-1 $15 #
shell $-1 $-1 $-1 $44 $-1 $16 #
shell $-1 $-1 $-1 $45 $-1 $17 #
shell $-1 $-1 $-1 $46 $-1 $18 #
shell $-1 $-1 $-1 $47 $-1 $19 #
shell $-1 $-1 $-1 $48 $-1 $20 #
shell $-1 $-1 $-1 $49 $-1 $21 #
shell $-1 $-1 $-1 $50 $-1 $22 #
shell $-1 $-1 $-1 $51 $-1 $23 #
shell $-1 $-1 $-1 $52 $-1 $24 #
shell $-1 $-1 $-1 $53 $-1 $25 #
shell $-1 $-1 $-1 $54 $-1 $26 #
shell $-1 $-1 $-1 $55 $-1 $27 #
face $-1 $56 $57 $28 $-1 $58 forward single #
face $-1 $59 $60 $29 $-1 $61 forward single #
face $-1 $62 $63 $30 $-1 $64 reversed single #
face $-1 $65 $66 $31 $-1 $67 forward single #
face $-1 $68 $69 $32 $-1 $70 forward single #
face $-1 $71 $72 $33 $-1 $73 forward single #
face $-1 $74 $75 $34 $-1 $76 reversed single #
face $-1 $77 $78 $35 $-1 $79 forward single #
face $-1 $80 $81 $36 $-1 $82 forward single #
face $-1 $83 $84 $37 $-1 $85 forward single #
face $-1 $86 $87 $38 $-1 $88 reversed single #
face $-1 $89 $90 $39 $-1 $91 forward single #
face $-1 $92 $93 $40 $-1 $94 forward single #
face $-1 $95 $96 $41 $-1 $97 forward single #
face $-1 $98 $99 $28 $-1 $100 reversed single #
loop $-1 $-1 $101 $42 #
plane-surface $-1 56.06982634968107959 37.97217635305347017 30.19371503169461946 0 0 1 1 0 0 forward_v I I I I #
face $-1 $102 $103 $29 $-1 $104 reversed single #
loop $-1 $-1 $105 $43 #
plane-surface $-1 6.99652059881057653 37.97217635305347017 5.824501887381771326 0 0 1 1 0 0 forward_v I I I I #
face $-1 $106 $107 $30 $-1 $108 reversed single #
loop $-1 $-1 $109 $44 #
plane-surface $-1 13.99304119762114595 78.05504452569124396 160.0775170322688723 1 0 0 0 -0.5735764437432435692 -0.819152039112919339 forward_v I I I I #
face $-1 $110 $111 $31 $-1 $112 forward single #
loop $-1 $113 $114 $45 #
cone-surface $-1 18.05147711754573692 71.50120011575155843 26.72561470181552323 0 -0.5735764437432435692 -0.819152039112919339 1 0 0 1 I I 0 1 1 forward I I I I #
face $-1 $115 $116 $32 $-1 $117 forward single #
loop $-1 $118 $119 $46 #
cone-surface $-1 24.13913099743261625 71.50120011575155843 26.72561470181552323 0 -0.5735764437432435692 -0.819152039112919339 1 0 0 1 I I 0 1 1 forward I I I I #
face $-1 $120 $121 $33 $-1 $122 forward single #
loop $-1 $123 $124 $47 #
cone-surface $-1 30.22678487731949559 71.50120011575155843 26.72561470181552323 0 -0.5735764437432435692 -0.819152039112919339 1 0 0 1 I I 0 1 1 forward I I I I #
face $-1 $125 $126 $34 $-1 $127 reversed single #
loop $-1 $-1 $128 $48 #
plane-surface $-1 48.71938887734826551 -61.07563303331376403 117.3851375301901641 -1 0 0 0 -0.5446390421508873203 0.8386705633113421543 forward_v I I I I #
face $-1 $129 $130 $35 $-1 $131 forward single #
loop $-1 $132 $133 $49 #
cone-surface $-1 31.66146167090596109 6.689175300644592426 24.59425802430705943 0 0.5446390421508873203 -0.8386705633113421543 1.5 0 0 1 I I 0 1 1.5 forward I I I I #
face $-1 $134 $135 $36 $-1 $136 forward single #
loop $-1 $137 $138 $50 #
cone-surface $-1 38.05818437332182214 6.689175300644592426 24.59425802430705943 0 0.5446390421508873203 -0.8386705633113421543 1.5 0 0 1 I I 0 1 1.5 forward I I I I #
face $-1 $139 $140 $37 $-1 $141 forward single #
loop $-1 $142 $143 $51 #
cone-surface $-1 44.45490707573768674 6.689175300644592426 24.59425802430705943 0 0.5446390421508873203 -0.8386705633113421543 1.5 0 0 1 I I 0 1 1.5 forward I I I I #
face $-1 $144 $145 $38 $-1 $146 reversed single #
loop $-1 $-1 $147 $52 #
plane-surface $-1 98.73571402768791927 -61.07563303331376403 117.3851375301901641 -1 0 0 0 -0.5446390421508873203 0.8386705633113421543 forward_v I I I I #
face $-1 $148 $149 $39 $-1 $150 forward single #
loop $-1 $151 $152 $53 #
cone-surface $-1 81.6777868212456184 6.689175300644592426 24.59425802430705943 0 0.5446390421508873203 -0.8386705633113421543 1.5 0 0 1 I I 0 1 1.5 forward I I I I #
face $-1 $153 $154 $40 $-1 $155 forward single #
loop $-1 $156 $157 $54 #
cone-surface $-1 88.0745095236614759 6.689175300644592426 24.59425802430705943 0 0.5446390421508873203 -0.8386705633113421543 1.5 0 0 1 I I 0 1 1.5 forward I I I I #
face $-1 $158 $159 $41 $-1 $160 forward single #
loop $-1 $161 $162 $55 #
cone-surface $-1 94.4712322260773476 6.689175300644592426 24.59425802430705943 0 0.5446390421508873203 -0.8386705633113421543 1.5 0 0 1 I I 0 1 1.5 forward I I I I #
face $-1 $163 $164 $28 $-1 $165 reversed single #
loop $-1 $-1 $166 $56 #
plane-surface $-1 56.06982634968107959 37.97217635305347017 0 0 0 1 1 0 0 forward_v I I I I #
coedge $-1 $167 $168 $169 $170 forward $57 $-1 #
face $-1 $171 $172 $29 $-1 $173 reversed single #
loop $-1 $-1 $174 $59 #
plane-surface $-1 13.99304119762115306 37.97217635305347017 2.912250943690885663 -1 0 0 0 0 1 forward_v I I I I #
coedge $-1 $175 $176 $177 $178 forward $60 $-1 #
face $-1 $179 $180 $30 $-1 $181 reversed single #
loop $-1 $-1 $182 $62 #
plane-surface $-1 24.13913099743261625 13.73438132778866816 68.21809185817176058 0 0.5735764437432435692 0.819152039112919339 1 0 0 forward_v I I I I #
coedge $-1 $183 $184 $185 $186 reversed $63 $-1 #
face $-1 $-1 $187 $31 $-1 $188 forward single #
loop $-1 $189 $190 $65 #
cone-surface $-1 18.05147711754573692 70.72402652801656586 25.61569581291707465 0 -0.5735764437432435692 -0.819152039112919339 0.5 0 0 1 I I -0.7071067811865474617 0.7071067811865474617 0.5 forward I I I I #
loop $-1 $-1 $191 $45 #
coedge $-1 $114 $114 $192 $193 reversed $66 $-1 #
face $-1 $-1 $194 $32 $-1 $195 forward single #
loop $-1 $196 $197 $68 #
cone-surface $-1 24.13913099743261625 70.72402652801656586 25.61569581291707465 0 -0.5735764437432435692 -0.819152039112919339 0.5 0 0 1 I I -0.7071067811865474617 0.7071067811865474617 0.5 forward I I I I #
loop $-1 $-1 $198 $46 #
coedge $-1 $119 $119 $199 $200 reversed $69 $-1 #
face $-1 $-1 $201 $33 $-1 $202 forward single #
loop $-1 $203 $204 $71 #
cone-surface $-1 30.22678487731949559 70.72402652801656586 25.61569581291707465 0 -0.5735764437432435692 -0.819152039112919339 0.5 0 0 1 I I -0.7071067811865474617 0.7071067811865474617 0.5 forward I I I I #
loop $-1 $-1 $205 $47 #
coedge $-1 $124 $124 $206 $207 reversed $72 $-1 #
face $-1 $208 $209 $34 $-1 $210 reversed single #
loop $-1 $-1 $211 $74 #
plane-surface $-1 38.05818437332182214 7.105427357601001859e-15 23.3369118312778383 0 -0.5446390421508873203 0.8386705633113421543 1 0 0 forward_v I I I I #
coedge $-1 $212 $213 $214 $215 reversed $75 $-1 #
face $-1 $-1 $216 $35 $-1 $217 forward single #
loop $-1 $218 $219 $77 #
cone-surface $-1 31.66146167090596109 8.507554475195338028 21.79419969464439433 0 0.5446390421508873203 -0.8386705633113421543 0.75 0 0 1 I I -0.7071067811865475727 0.7071067811865475727 0.75 forward I I I I #
loop $-1 $-1 $220 $49 #
coedge $-1 $133 $133 $221 $222 reversed $78 $-1 #
face $-1 $-1 $223 $36 $-1 $224 forward single #
loop $-1 $225 $226 $80 #
cone-surface $-1 38.05818437332182214 8.507554475195338028 21.79419969464439433 0 0.5446390421508873203 -0.8386705633113421543 0.75 0 0 1 I I -0.7071067811865475727 0.7071067811865475727 0.75 forward I I I I #
loop $-1 $-1 $227 $50 #
coedge $-1 $138 $138 $228 $229 reversed $81 $-1 #
face $-1 $-1 $230 $37 $-1 $231 forward single #
loop $-1 $232 $233 $83 #
cone-surface $-1 44.45490707573768674 8.507554475195338028 21.79419969464439433 0 0.5446390421508873203 -0.8386705633113421543 0.75 0 0 1 I I -0.7071067811865475727 0.7071067811865475727 0.75 forward I I I I #
loop $-1 $-1 $234 $51 #
coedge $-1 $143 $143 $235 $236 reversed $84 $-1 #
face $-1 $237 $238 $38 $-1 $239 reversed single #
loop $-1 $-1 $240 $86 #
plane-surface $-1 88.0745095236614759 7.105427357601001859e-15 23.3369118312778383 0 -0.5446390421508873203 0.8386705633113421543 1 0 0 forward_v I I I I #
coedge $-1 $241 $242 $243 $244 reversed $87 $-1 #
face $-1 $-1 $245 $39 $-1 $246 forward single #
loop $-1 $247 $248 $89 #
cone-surface $-1 81.6777868212456184 8.507554475195338028 21.79419969464439433 0 0.5446390421508873203 -0.8386705633113421543 0.75 0 0 1 I I -0.7071067811865475727 0.7071067811865475727 0.75 forward I I I I #
loop $-1 $-1 $249 $53 #
coedge $-1 $152 $152 $250 $251 reversed $90 $-1 #
face $-1 $-1 $252 $40 $-1 $253 forward single #
loop $-1 $254 $255 $92 #
cone-surface $-1 88.0745095236614759 8.507554475195338028 21.79419969464439433 0 0.5446390421508873203 -0.8386705633113421543 0.75 0 0 1 I I -0.7071067811865475727 0.7071067811865475727 0.75 forward I I I I #
loop $-1 $-1 $256 $54 #
coedge $-1 $157 $157 $257 $258 reversed $93 $-1 #
face $-1 $-1 $259 $41 $-1 $260 forward single #
loop $-1 $261 $262 $95 #
cone-surface $-1 94.4712322260773476 8.507554475195338028 21.79419969464439433 0 0.5446390421508873203 -0.8386705633113421543 0.75 0 0 1 I I -0.7071067811865475727 0.7071067811865475727 0.75 forward I I I I #
loop $-1 $-1 $263 $55 #
coedge $-1 $162 $162 $264 $265 reversed $96 $-1 #
face $-1 $266 $267 $28 $-1 $268 reversed single #
loop $-1 $-1 $269 $98 #
plane-surface $-1 56.06982634968107959 0 15.09685751584730973 0 1 0 0 0 1 forward_v I I I I #
coedge $-1 $270 $271 $272 $273 forward $99 $-1 #
coedge $-1 $274 $101 $275 $276 forward $57 $-1 #
coedge $-1 $101 $274 $277 $278 forward $57 $-1 #
coedge $-1 $279 $280 $101 $170 reversed $281 $-1 #
edge $-1 $282 -37.97217635305347017 $283 37.97217635305347017 $169 $284 forward 7 unknown #
face $-1 $285 $286 $29 $-1 $287 reversed single #
loop $-1 $-1 $288 $102 #
plane-surface $-1 56.06982634968107959 37.97217635305347017 0 0 0 1 1 0 0 forward_v I I I I #
coedge $-1 $289 $177 $290 $291 reversed $103 $-1 #
coedge $-1 $292 $105 $293 $294 reversed $60 $-1 #
coedge $-1 $105 $292 $295 $296 reversed $60 $-1 #
coedge $-1 $174 $297 $105 $178 reversed $103 $-1 #
edge $-1 $298 -37.97217635305347017 $299 37.97217635305347017 $177 $300 forward 7 unknown #
face $-1 $301 $302 $30 $-1 $303 reversed single #
loop $-1 $-1 $304 $106 #
plane-surface $-1 34.28522079724408655 78.05504452569124396 160.0775170322688723 -1 0 0 0 0.5735764437432435692 0.819152039112919339 forward_v I I I I #
coedge $-1 $305 $306 $307 $308 reversed $107 $-1 #
coedge $-1 $184 $109 $309 $310 reversed $63 $-1 #
coedge $-1 $109 $183 $305 $311 reversed $63 $-1 #
coedge $-1 $307 $312 $109 $186 forward $313 $-1 #
edge $-1 $314 -17.93074226673458327 $315 -10.02520781775054104 $185 $316 forward 7 unknown #
loop $-1 $-1 $192 $110 #
plane-surface $-1 24.13913099743261625 13.73438132778866816 68.21809185817176058 0 0.5735764437432435692 0.819152039112919339 1 0 0 forward_v I I I I #
loop $-1 $-1 $317 $65 #
coedge $-1 $190 $190 $191 $318 reversed $111 $-1 #
coedge $-1 $191 $191 $190 $318 forward $113 $-1 #
coedge $-1 $192 $192 $114 $193 forward $187 $-1 #
edge $-1 $319 -5.856666476510385839e-16 $319 6.283185307179585344 $192 $320 forward 7 unknown #
loop $-1 $-1 $199 $115 #
plane-surface $-1 24.13913099743261625 13.73438132778866816 68.21809185817176058 0 0.5735764437432435692 0.819152039112919339 1 0 0 forward_v I I I I #
loop $-1 $-1 $321 $68 #
coedge $-1 $197 $197 $198 $322 reversed $116 $-1 #
coedge $-1 $198 $198 $197 $322 forward $118 $-1 #
coedge $-1 $199 $199 $119 $200 forward $194 $-1 #
edge $-1 $323 -5.856666476510385839e-16 $323 6.283185307179585344 $199 $324 forward 7 unknown #
loop $-1 $-1 $206 $120 #
plane-surface $-1 24.13913099743261625 13.73438132778866816 68.21809185817176058 0 0.5735764437432435692 0.819152039112919339 1 0 0 forward_v I I I I #
loop $-1 $-1 $325 $71 #
coedge $-1 $204 $204 $205 $326 reversed $121 $-1 #
coedge $-1 $205 $205 $204 $326 forward $123 $-1 #
coedge $-1 $206 $206 $124 $207 forward $201 $-1 #
edge $-1 $327 -5.856666476510385839e-16 $327 6.283185307179585344 $206 $328 forward 7 unknown #
face $-1 $329 $330 $34 $-1 $331 forward single #
loop $-1 $-1 $332 $125 #
plane-surface $-1 27.39697986929538231 -61.07563303331376403 117.3851375301901641 1 0 0 0 0.5446390421508873203 -0.8386705633113421543 forward_v I I I I #
coedge $-1 $333 $334 $335 $336 reversed $126 $-1 #
coedge $-1 $213 $128 $337 $338 reversed $75 $-1 #
coedge $-1 $128 $212 $333 $339 reversed $75 $-1 #
coedge $-1 $335 $340 $128 $215 forward $330 $-1 #
edge $-1 $341 11.55172834013014693 $342 22.11027915554416268 $214 $343 forward 7 unknown #
loop $-1 $-1 $221 $129 #
plane-surface $-1 38.05818437332182214 7.105427357601001859e-15 23.3369118312778383 0 -0.5446390421508873203 0.8386705633113421543 1 0 0 forward_v I I I I #
loop $-1 $-1 $344 $77 #
coedge $-1 $219 $219 $220 $345 reversed $130 $-1 #
coedge $-1 $220 $220 $219 $345 forward $132 $-1 #
coedge $-1 $221 $221 $133 $222 forward $216 $-1 #
edge $-1 $346 -3.972741843044693472e-15 $346 6.283185307179582679 $221 $347 forward 7 unknown #
loop $-1 $-1 $228 $134 #
plane-surface $-1 38.05818437332182214 7.105427357601001859e-15 23.3369118312778383 0 -0.5446390421508873203 0.8386705633113421543 1 0 0 forward_v I I I I #
loop $-1 $-1 $348 $80 #
coedge $-1 $226 $226 $227 $349 reversed $135 $-1 #
coedge $-1 $227 $227 $226 $349 forward $137 $-1 #
coedge $-1 $228 $228 $138 $229 forward $223 $-1 #
edge $-1 $350 -3.972741843044702939e-15 $350 6.283185307179582679 $228 $351 forward 7 unknown #
loop $-1 $-1 $235 $139 #
plane-surface $-1 38.05818437332182214 7.105427357601001859e-15 23.3369118312778383 0 -0.5446390421508873203 0.8386705633113421543 1 0 0 forward_v I I I I #
loop $-1 $-1 $352 $83 #
coedge $-1 $233 $233 $234 $353 reversed $140 $-1 #
coedge $-1 $234 $234 $233 $353 forward $142 $-1 #
coedge $-1 $235 $235 $143 $236 forward $230 $-1 #
edge $-1 $354 -3.972741843044702939e-15 $354 6.283185307179582679 $235 $355 forward 7 unknown #
face $-1 $356 $357 $38 $-1 $358 reversed single #
loop $-1 $-1 $359 $144 #
plane-surface $-1 77.41330501963503252 -61.07563303331376403 117.3851375301901641 1 0 0 0 0.5446390421508873203 -0.8386705633113421543 forward_v I I I I #
coedge $-1 $360 $361 $362 $363 reversed $145 $-1 #
coedge $-1 $242 $147 $364 $365 reversed $87 $-1 #
coedge $-1 $147 $241 $360 $366 reversed $87 $-1 #
coedge $-1 $362 $367 $147 $244 forward $368 $-1 #
edge $-1 $369 11.55172834013014693 $370 22.11027915554416268 $243 $371 forward 7 unknown #
loop $-1 $-1 $250 $148 #
plane-surface $-1 88.0745095236614759 7.105427357601001859e-15 23.3369118312778383 0 -0.5446390421508873203 0.8386705633113421543 1 0 0 forward_v I I I I #
loop $-1 $-1 $372 $89 #
coedge $-1 $248 $248 $249 $373 reversed $149 $-1 #
coedge $-1 $249 $249 $248 $373 forward $151 $-1 #
coedge $-1 $250 $250 $152 $251 forward $245 $-1 #
edge $-1 $374 -3.972741843044702939e-15 $374 6.283185307179582679 $250 $375 forward 7 unknown #
loop $-1 $-1 $257 $153 #
plane-surface $-1 88.0745095236614759 7.105427357601001859e-15 23.3369118312778383 0 -0.5446390421508873203 0.8386705633113421543 1 0 0 forward_v I I I I #
loop $-1 $-1 $376 $92 #
coedge $-1 $255 $255 $256 $377 reversed $154 $-1 #
coedge $-1 $256 $256 $255 $377 forward $156 $-1 #
coedge $-1 $257 $257 $157 $258 forward $252 $-1 #
edge $-1 $378 -3.972741843044702939e-15 $378 6.283185307179582679 $257 $379 forward 7 unknown #
loop $-1 $-1 $264 $158 #
plane-surface $-1 88.0745095236614759 7.105427357601001859e-15 23.3369118312778383 0 -0.5446390421508873203 0.8386705633113421543 1 0 0 forward_v I I I I #
loop $-1 $-1 $380 $95 #
coedge $-1 $262 $262 $263 $381 reversed $159 $-1 #
coedge $-1 $263 $263 $262 $381 forward $161 $-1 #
coedge $-1 $264 $264 $162 $265 forward $259 $-1 #
edge $-1 $382 -3.972741843044702939e-15 $382 6.283185307179582679 $264 $383 forward 7 unknown #
face $-1 $384 $385 $28 $-1 $386 reversed single #
loop $-1 $-1 $387 $163 #
plane-surface $-1 0 37.97217635305347017 15.09685751584730973 1 0 0 0 0 -1 forward_v I I I I #
coedge $-1 $388 $277 $389 $390 forward $164 $-1 #
coedge $-1 $391 $166 $388 $392 forward $99 $-1 #
coedge $-1 $166 $391 $393 $394 forward $99 $-1 #
coedge $-1 $280 $279 $166 $273 reversed $281 $-1 #
edge $-1 $395 -37.97217635305347017 $396 37.97217635305347017 $272 $397 forward 7 unknown #
coedge $-1 $168 $167 $398 $399 forward $57 $-1 #
coedge $-1 $400 $401 $167 $276 reversed $385 $-1 #
edge $-1 $283 -56.06982634968107959 $402 56.06982634968107959 $275 $403 forward 7 unknown #
coedge $-1 $269 $404 $168 $278 reversed $164 $-1 #
edge $-1 $405 -56.06982634968107959 $282 56.06982634968107959 $277 $406 forward 7 unknown #
coedge $-1 $272 $169 $404 $407 forward $281 $-1 #
coedge $-1 $169 $272 $400 $408 reversed $281 $-1 #
loop $-1 $-1 $279 $384 #
vertex $-1 $170 $409 #
vertex $-1 $170 $410 #
straight-curve $-1 112.1396526993621592 37.97217635305347017 30.19371503169461946 0 1 0 I I #
face $-1 $411 $412 $29 $-1 $413 reversed single #
loop $-1 $-1 $290 $171 #
plane-surface $-1 56.06982634968107959 0 15.09685751584730973 0 1 0 0 0 1 forward_v I I I I #
coedge $-1 $414 $415 $289 $416 forward $172 $-1 #
coedge $-1 $297 $174 $288 $416 reversed $103 $-1 #
coedge $-1 $295 $417 $174 $291 forward $286 $-1 #
edge $-1 $418 -9.004554229769098583 $298 -3.180052342387327258 $290 $419 forward 7 unknown #
coedge $-1 $176 $175 $420 $421 reversed $60 $-1 #
coedge $-1 $422 $423 $175 $294 forward $424 $-1 #
edge $-1 $425 -31.53317347424582806 $299 -17.540132276624675 $293 $426 forward 7 unknown #
coedge $-1 $427 $290 $176 $296 forward $286 $-1 #
edge $-1 $298 17.540132276624675 $428 31.53317347424582806 $295 $429 forward 7 unknown #
coedge $-1 $177 $289 $422 $430 reversed $103 $-1 #
vertex $-1 $296 $431 #
vertex $-1 $294 $432 #
straight-curve $-1 13.99304119762115306 37.97217635305347017 5.824501887381771326 0 1 0 I I #
face $-1 $-1 $313 $30 $-1 $433 forward single #
loop $-1 $-1 $434 $179 #
plane-surface $-1 56.06982634968107959 75.94435270610694033 15.09685751584730973 0 -1 0 0 0 -1 forward_v I I I I #
coedge $-1 $435 $436 $437 $438 reversed $180 $-1 #
coedge $-1 $439 $182 $184 $311 forward $107 $-1 #
coedge $-1 $182 $439 $435 $440 forward $107 $-1 #
coedge $-1 $437 $185 $182 $308 forward $313 $-1 #
edge $-1 $315 -26.11143747593570197 $441 -5.819257876312761368 $307 $442 forward 7 unknown #
coedge $-1 $443 $444 $183 $310 forward $302 $-1 #
edge $-1 $445 -62.92898716343772492 $314 -57.39347224236345824 $309 $446 forward 7 unknown #
edge $-1 $315 66.2934770792268182 $445 75.94435270610695454 $184 $447 forward 7 unknown #
coedge $-1 $185 $437 $443 $448 forward $313 $-1 #
loop $-1 $-1 $437 $301 #
vertex $-1 $310 $449 #
vertex $-1 $186 $450 #
straight-curve $-1 13.99304119762114595 58.01361043937235706 30.1937150316946159 0 -1 0 I I #
coedge $-1 $317 $317 $-1 $451 reversed $189 $-1 #
edge $-1 $452 0 $452 6.283185307179586232 $190 $453 forward 7 unknown #
vertex $-1 $193 $454 #
ellipse-curve $-1 18.05147711754573692 71.99158548161491922 27.42595757115748967 0 0.5735764437432435692 0.819152039112919339 1 0 0 1 I I #
coedge $-1 $321 $321 $-1 $455 reversed $196 $-1 #
edge $-1 $456 0 $456 6.283185307179586232 $197 $457 forward 7 unknown #
vertex $-1 $200 $458 #
ellipse-curve $-1 24.13913099743261625 71.99158548161491922 27.42595757115748967 0 0.5735764437432435692 0.819152039112919339 1 0 0 1 I I #
coedge $-1 $325 $325 $-1 $459 reversed $203 $-1 #
edge $-1 $460 0 $460 6.283185307179586232 $204 $461 forward 7 unknown #
vertex $-1 $207 $462 #
ellipse-curve $-1 30.22678487731949559 71.99158548161491922 27.42595757115748967 0 0.5735764437432435692 0.819152039112919339 1 0 0 1 I I #
face $-1 $-1 $463 $34 $-1 $464 reversed single #
loop $-1 $-1 $214 $208 #
plane-surface $-1 56.06982634968107959 37.97217635305347017 30.19371503169461946 0 0 1 1 0 0 forward_v I I I I #
coedge $-1 $465 $466 $467 $468 reversed $209 $-1 #
coedge $-1 $469 $211 $213 $339 forward $126 $-1 #
coedge $-1 $211 $469 $465 $470 forward $126 $-1 #
coedge $-1 $467 $214 $211 $336 forward $330 $-1 #
edge $-1 $342 -1.655383515846814646 $471 19.66702549220606855 $335 $472 forward 7 unknown #
coedge $-1 $473 $474 $212 $338 forward $463 $-1 #
edge $-1 $475 -42.90408569174090303 $341 -36.04728249132411122 $337 $476 forward 7 unknown #
edge $-1 $342 -12.58962848740683071 $475 9.829005914683572794e-15 $213 $477 forward 7 unknown #
coedge $-1 $214 $467 $473 $478 forward $330 $-1 #
vertex $-1 $215 $479 #
vertex $-1 $215 $480 #
straight-curve $-1 48.71938887734826551 -11.55172834013014693 30.19371503169462301 0 1 0 I I #
coedge $-1 $344 $344 $-1 $481 reversed $218 $-1 #
edge $-1 $482 0 $482 6.283185307179586232 $219 $483 forward 7 unknown #
vertex $-1 $222 $484 #
ellipse-curve $-1 31.66146167090596109 5.279275407707011425 26.7653134314862271 0 -0.5446390421508873203 0.8386705633113421543 1.5 0 0 1 I I #
coedge $-1 $348 $348 $-1 $485 reversed $225 $-1 #
edge $-1 $486 0 $486 6.283185307179586232 $226 $487 forward 7 unknown #
vertex $-1 $229 $488 #
ellipse-curve $-1 38.05818437332182214 5.279275407707011425 26.7653134314862271 0 -0.5446390421508873203 0.8386705633113421543 1.5 0 0 1 I I #
coedge $-1 $352 $352 $-1 $489 reversed $232 $-1 #
edge $-1 $490 0 $490 6.283185307179586232 $233 $491 forward 7 unknown #
vertex $-1 $236 $492 #
ellipse-curve $-1 44.45490707573768674 5.279275407707011425 26.7653134314862271 0 -0.5446390421508873203 0.8386705633113421543 1.5 0 0 1 I I #
face $-1 $-1 $368 $38 $-1 $493 forward single #
loop $-1 $-1 $494 $237 #
plane-surface $-1 56.06982634968107959 0 15.09685751584730973 0 1 0 0 0 1 forward_v I I I I #
coedge $-1 $495 $496 $497 $498 reversed $238 $-1 #
coedge $-1 $499 $240 $242 $366 forward $145 $-1 #
coedge $-1 $240 $499 $495 $500 forward $145 $-1 #
coedge $-1 $497 $243 $240 $363 forward $368 $-1 #
edge $-1 $370 -26.66354609101664153 $501 -5.341137082963754779 $362 $502 forward 7 unknown #
coedge $-1 $503 $504 $241 $365 forward $357 $-1 #
edge $-1 $505 -42.90408569174090303 $369 -36.04728249132411122 $364 $506 forward 7 unknown #
edge $-1 $370 -12.58962848740683071 $505 9.829005914683572794e-15 $242 $507 forward 7 unknown #
coedge $-1 $243 $497 $503 $508 forward $368 $-1 #
loop $-1 $-1 $497 $356 #
vertex $-1 $365 $509 #
vertex $-1 $244 $510 #
straight-curve $-1 98.73571402768791927 -11.55172834013014693 30.19371503169462301 0 1 0 I I #
coedge $-1 $372 $372 $-1 $511 reversed $247 $-1 #
edge $-1 $512 0 $512 6.283185307179586232 $248 $513 forward 7 unknown #
vertex $-1 $251 $514 #
ellipse-curve $-1 81.6777868212456184 5.279275407707011425 26.7653134314862271 0 -0.5446390421508873203 0.8386705633113421543 1.5 0 0 1 I I #
coedge $-1 $376 $376 $-1 $515 reversed $254 $-1 #
edge $-1 $516 0 $516 6.283185307179586232 $255 $517 forward 7 unknown #
vertex $-1 $258 $518 #
ellipse-curve $-1 88.0745095236614759 5.279275407707011425 26.7653134314862271 0 -0.5446390421508873203 0.8386705633113421543 1.5 0 0 1 I I #
coedge $-1 $380 $380 $-1 $519 reversed $261 $-1 #
edge $-1 $520 0 $520 6.283185307179586232 $262 $521 forward 7 unknown #
vertex $-1 $265 $522 #
ellipse-curve $-1 94.4712322260773476 5.279275407707011425 26.7653134314862271 0 -0.5446390421508873203 0.8386705633113421543 1.5 0 0 1 I I #
face $-1 $-1 $281 $28 $-1 $523 reversed single #
loop $-1 $-1 $400 $266 #
plane-surface $-1 56.06982634968107959 75.94435270610694033 15.09685751584730973 0 -1 0 0 0 -1 forward_v I I I I #
coedge $-1 $524 $398 $401 $525 forward $267 $-1 #
coedge $-1 $404 $269 $270 $392 reversed $164 $-1 #
coedge $-1 $398 $524 $269 $390 reversed $267 $-1 #
edge $-1 $405 -15.09685751584730973 $526 15.09685751584730973 $389 $527 forward 7 unknown #
coedge $-1 $271 $270 $524 $528 forward $99 $-1 #
edge $-1 $396 -56.06982634968107959 $526 56.06982634968107959 $388 $529 forward 7 unknown #
coedge $-1 $401 $400 $271 $394 reversed $385 $-1 #
edge $-1 $530 -56.06982634968107959 $395 56.06982634968107959 $393 $531 forward 7 unknown #
vertex $-1 $273 $532 #
vertex $-1 $407 $533 #
straight-curve $-1 112.1396526993621592 37.97217635305347017 0 0 -1 0 I I #
coedge $-1 $387 $389 $274 $399 reversed $267 $-1 #
edge $-1 $402 -37.97217635305347017 $405 37.97217635305347017 $398 $534 forward 7 unknown #
coedge $-1 $393 $275 $280 $408 forward $385 $-1 #
coedge $-1 $275 $393 $387 $525 reversed $385 $-1 #
vertex $-1 $276 $535 #
straight-curve $-1 56.06982634968107959 75.94435270610694033 30.19371503169461946 -1 0 0 I I #
coedge $-1 $277 $388 $279 $407 reversed $164 $-1 #
vertex $-1 $399 $536 #
straight-curve $-1 56.06982634968107959 0 30.19371503169461946 1 0 0 I I #
edge $-1 $282 -15.09685751584730973 $396 15.09685751584730973 $279 $537 forward 7 unknown #
edge $-1 $283 -15.09685751584730973 $395 15.09685751584730973 $280 $538 forward 7 unknown #
point $-1 112.1396526993621592 0 30.19371503169461946 #
point $-1 112.1396526993621592 75.94435270610694033 30.19371503169461946 #
face $-1 $-1 $424 $29 $-1 $539 reversed single #
loop $-1 $-1 $420 $285 #
plane-surface $-1 0 37.97217635305347017 15.09685751584730973 1 0 0 0 0 -1 forward_v I I I I #
coedge $-1 $540 $288 $417 $541 forward $172 $-1 #
coedge $-1 $288 $540 $542 $543 forward $172 $-1 #
edge $-1 $544 -37.97217635305347017 $418 37.97217635305347017 $288 $545 forward 7 unknown #
coedge $-1 $290 $427 $414 $541 reversed $286 $-1 #
vertex $-1 $541 $546 #
straight-curve $-1 13.99304119762115306 0 9.004554229769098583 0 0 1 I I #
coedge $-1 $547 $548 $292 $421 forward $412 $-1 #
edge $-1 $428 -37.97217635305347017 $425 37.97217635305347017 $420 $549 forward 7 unknown #
coedge $-1 $542 $293 $297 $430 forward $424 $-1 #
coedge $-1 $293 $542 $547 $550 reversed $424 $-1 #
loop $-1 $-1 $422 $411 #
vertex $-1 $550 $551 #
straight-curve $-1 31.53317347424582806 75.94435270610694033 5.824501887381771326 1 0 0 I I #
coedge $-1 $417 $295 $548 $552 forward $286 $-1 #
vertex $-1 $552 $553 #
straight-curve $-1 31.53317347424582806 0 5.824501887381771326 -1 0 0 I I #
edge $-1 $299 3.180052342387327258 $544 9.004554229769098583 $422 $554 forward 7 unknown #
point $-1 13.99304119762115306 0 5.824501887381771326 #
point $-1 13.99304119762115306 75.94435270610694033 5.824501887381771326 #
plane-surface $-1 56.06982634968107959 37.97217635305347017 30.19371503169461946 0 0 1 1 0 0 forward_v I I I I #
coedge $-1 $444 $443 $436 $555 forward $302 $-1 #
coedge $-1 $436 $304 $306 $440 reversed $180 $-1 #
coedge $-1 $304 $435 $434 $555 reversed $180 $-1 #
coedge $-1 $312 $307 $304 $438 forward $313 $-1 #
edge $-1 $441 10.02520781775054104 $556 17.93074226673458327 $437 $557 forward 7 unknown #
coedge $-1 $306 $305 $444 $558 reversed $107 $-1 #
edge $-1 $559 -75.94435270610695454 $441 -66.2934770792268182 $435 $560 forward 7 unknown #
vertex $-1 $308 $561 #
straight-curve $-1 40.10447867355684792 68.03881825712288389 30.19371503169463011 1 0 0 I I #
coedge $-1 $434 $309 $312 $448 reversed $302 $-1 #
coedge $-1 $309 $434 $439 $558 forward $302 $-1 #
vertex $-1 $310 $562 #
straight-curve $-1 13.99304119762114595 75.94435270610694033 87.58718727405808124 0 0 1 I I #
straight-curve $-1 13.99304119762114595 13.73438132778866816 68.21809185817176058 0 0.819152039112919339 -0.5735764437432435692 I I #
edge $-1 $556 21.78460555243699304 $314 42.07678515205993364 $443 $563 forward 7 unknown #
point $-1 13.99304119762114595 75.94435270610694033 30.19371503169461946 #
point $-1 13.99304119762114595 68.0388182571228981 30.19371503169462301 #
edge $-1 $564 1 $564 0 $317 $-1 forward 7 unknown #
vertex $-1 $318 $565 #
ellipse-curve $-1 18.05147711754573692 71.01081474988819764 26.02527183247353548 0 0.5735764437432435692 0.819152039112919339 1 0 0 1 I I #
point $-1 19.05147711754573692 71.99158548161493343 27.42595757115751098 #
edge $-1 $566 1 $566 0 $321 $-1 forward 7 unknown #
vertex $-1 $322 $567 #
ellipse-curve $-1 24.13913099743261625 71.01081474988819764 26.02527183247353548 0 0.5735764437432435692 0.819152039112919339 1 0 0 1 I I #
point $-1 25.13913099743261625 71.99158548161493343 27.42595757115751098 #
edge $-1 $568 1 $568 0 $325 $-1 forward 7 unknown #
vertex $-1 $326 $569 #
ellipse-curve $-1 30.22678487731949559 71.01081474988819764 26.02527183247353548 0 0.5735764437432435692 0.819152039112919339 1 0 0 1 I I #
point $-1 31.22678487731949559 71.99158548161493343 27.42595757115751098 #
loop $-1 $-1 $337 $329 #
plane-surface $-1 56.06982634968107959 0 15.09685751584730973 0 1 0 0 0 1 forward_v I I I I #
coedge $-1 $466 $332 $334 $470 reversed $209 $-1 #
coedge $-1 $332 $465 $570 $571 reversed $209 $-1 #
coedge $-1 $340 $335 $332 $468 forward $330 $-1 #
edge $-1 $471 -22.11027915554416268 $572 -11.55172834013014693 $467 $573 forward 7 unknown #
coedge $-1 $334 $333 $474 $574 reversed $126 $-1 #
edge $-1 $575 -9.829005914683572794e-15 $471 12.58962848740683071 $465 $576 forward 7 unknown #
vertex $-1 $336 $577 #
straight-curve $-1 47.06400536150145086 10.5585508154140193 30.19371503169461946 -1 0 0 I I #
coedge $-1 $570 $337 $340 $478 reversed $463 $-1 #
coedge $-1 $337 $570 $469 $574 forward $463 $-1 #
vertex $-1 $338 $578 #
straight-curve $-1 48.71938887734826551 0 66.24099752301873423 0 0 1 I I #
straight-curve $-1 48.71938887734826551 7.105427357601001859e-15 23.3369118312778383 0 -0.8386705633113421543 -0.5446390421508873203 I I #
edge $-1 $572 -28.67284648038569728 $341 -7.350437472332814082 $473 $579 forward 7 unknown #
point $-1 48.71938887734826551 0 30.19371503169461946 #
point $-1 48.71938887734826551 10.55855081541401574 30.19371503169461946 #
edge $-1 $580 1 $580 0 $344 $-1 forward 7 unknown #
vertex $-1 $345 $581 #
ellipse-curve $-1 31.66146167090596109 8.099075193582173426 22.42320261712789886 0 -0.5446390421508873203 0.8386705633113421543 1.5 0 0 1 I I #
point $-1 33.16146167090596464 5.279275407707004319 26.7653134314862271 #
edge $-1 $582 1 $582 0 $348 $-1 forward 7 unknown #
vertex $-1 $349 $583 #
ellipse-curve $-1 38.05818437332182214 8.099075193582173426 22.42320261712789886 0 -0.5446390421508873203 0.8386705633113421543 1.5 0 0 1 I I #
point $-1 39.55818437332182214 5.279275407707004319 26.7653134314862271 #
edge $-1 $584 1 $584 0 $352 $-1 forward 7 unknown #
vertex $-1 $353 $585 #
ellipse-curve $-1 44.45490707573768674 8.099075193582173426 22.42320261712789886 0 -0.5446390421508873203 0.8386705633113421543 1.5 0 0 1 I I #
point $-1 45.95490707573768674 5.279275407707004319 26.7653134314862271 #
plane-surface $-1 56.06982634968107959 37.97217635305347017 30.19371503169461946 0 0 1 1 0 0 forward_v I I I I #
coedge $-1 $504 $503 $496 $586 forward $357 $-1 #
coedge $-1 $496 $359 $361 $500 reversed $238 $-1 #
coedge $-1 $359 $495 $494 $586 reversed $238 $-1 #
coedge $-1 $367 $362 $359 $498 forward $368 $-1 #
edge $-1 $501 -22.11027915554416268 $587 -11.55172834013014693 $497 $588 forward 7 unknown #
coedge $-1 $361 $360 $504 $589 reversed $145 $-1 #
edge $-1 $590 -9.829005914683572794e-15 $501 12.58962848740683071 $495 $591 forward 7 unknown #
vertex $-1 $363 $592 #
straight-curve $-1 72.07216793667127774 10.5585508154140193 30.19371503169461946 -1 0 0 I I #
coedge $-1 $494 $364 $367 $508 reversed $357 $-1 #
coedge $-1 $364 $494 $499 $589 forward $357 $-1 #
vertex $-1 $365 $593 #
straight-curve $-1 98.73571402768791927 0 66.24099752301873423 0 0 1 I I #
straight-curve $-1 98.73571402768791927 7.105427357601001859e-15 23.3369118312778383 0 -0.8386705633113421543 -0.5446390421508873203 I I #
edge $-1 $587 21.34347866995395293 $369 42.66588767800683968 $503 $594 forward 7 unknown #
point $-1 98.73571402768791927 0 30.19371503169461946 #
point $-1 98.73571402768791927 10.55855081541401574 30.19371503169461946 #
edge $-1 $595 1 $595 0 $372 $-1 forward 7 unknown #
vertex $-1 $373 $596 #
ellipse-curve $-1 81.6777868212456184 8.099075193582173426 22.42320261712789886 0 -0.5446390421508873203 0.8386705633113421543 1.5 0 0 1 I I #
point $-1 83.1777868212456184 5.279275407707004319 26.7653134314862271 #
edge $-1 $597 1 $597 0 $376 $-1 forward 7 unknown #
vertex $-1 $377 $598 #
ellipse-curve $-1 88.0745095236614759 8.099075193582173426 22.42320261712789886 0 -0.5446390421508873203 0.8386705633113421543 1.5 0 0 1 I I #
point $-1 89.5745095236614759 5.279275407707004319 26.7653134314862271 #
edge $-1 $599 1 $599 0 $380 $-1 forward 7 unknown #
vertex $-1 $381 $600 #
ellipse-curve $-1 94.4712322260773476 8.099075193582173426 22.42320261712789886 0 -0.5446390421508873203 0.8386705633113421543 1.5 0 0 1 I I #
point $-1 95.9712322260773476 5.279275407707004319 26.7653134314862271 #
plane-surface $-1 112.1396526993621592 37.97217635305347017 15.09685751584730973 -1 0 0 0 0 1 forward_v I I I I #
coedge $-1 $389 $387 $391 $528 reversed $267 $-1 #
edge $-1 $402 -15.09685751584730973 $530 15.09685751584730973 $401 $601 forward 7 unknown #
vertex $-1 $528 $602 #
straight-curve $-1 0 0 15.09685751584730973 0 0 -1 I I #
edge $-1 $526 -37.97217635305347017 $530 37.97217635305347017 $524 $603 forward 7 unknown #
straight-curve $-1 56.06982634968107959 0 0 -1 0 0 I I #
vertex $-1 $394 $604 #
straight-curve $-1 56.06982634968107959 75.94435270610694033 0 1 0 0 I I #
point $-1 112.1396526993621592 75.94435270610694033 0 #
point $-1 112.1396526993621592 0 0 #
straight-curve $-1 0 37.97217635305347017 30.19371503169461946 0 -1 0 I I #
point $-1 0 75.94435270610694033 30.19371503169461946 #
point $-1 0 0 30.19371503169461946 #
straight-curve $-1 112.1396526993621592 0 15.09685751584730973 0 0 -1 I I #
straight-curve $-1 112.1396526993621592 75.94435270610694033 15.09685751584730973 0 0 -1 I I #
plane-surface $-1 56.06982634968107959 75.94435270610694033 15.09685751584730973 0 -1 0 0 0 -1 forward_v I I I I #
coedge $-1 $415 $414 $605 $606 forward $172 $-1 #
edge $-1 $418 42.07678515205992653 $607 56.06982634968107959 $417 $608 forward 7 unknown #
coedge $-1 $423 $422 $415 $543 reversed $424 $-1 #
edge $-1 $609 -56.06982634968107959 $544 -42.07678515205992653 $542 $610 forward 7 unknown #
vertex $-1 $430 $611 #
straight-curve $-1 13.99304119762115306 37.97217635305347017 0 0 -1 0 I I #
point $-1 13.99304119762115306 0 0 #
coedge $-1 $605 $420 $423 $550 forward $412 $-1 #
coedge $-1 $420 $605 $427 $552 reversed $412 $-1 #
straight-curve $-1 0 37.97217635305347017 5.824501887381771326 0 1 0 I I #
edge $-1 $425 9.272355628465538402 $609 15.09685751584730973 $423 $612 forward 7 unknown #
point $-1 0 75.94435270610694033 5.824501887381771326 #
edge $-1 $428 9.272355628465538402 $607 15.09685751584730973 $548 $613 forward 7 unknown #
point $-1 0 0 5.824501887381771326 #
straight-curve $-1 13.99304119762115306 75.94435270610694033 9.004554229769098583 0 0 -1 I I #
edge $-1 $556 57.39347224236345824 $559 62.92898716343772492 $434 $614 forward 7 unknown #
vertex $-1 $448 $615 #
straight-curve $-1 34.28522079724408655 58.01361043937235706 30.1937150316946159 0 1 0 I I #
edge $-1 $559 5.819257876312761368 $445 26.11143747593570197 $444 $616 forward 7 unknown #
vertex $-1 $558 $617 #
straight-curve $-1 34.28522079724408655 13.73438132778866816 68.21809185817176058 0 -0.819152039112919339 0.5735764437432435692 I I #
point $-1 34.28522079724408655 68.0388182571228981 30.19371503169462301 #
point $-1 13.99304119762114595 75.94435270610694033 24.65820011062035633 #
straight-curve $-1 56.06982634968107959 75.94435270610694033 30.19371503169461946 -1 0 0 I I #
vertex $-1 $451 $618 #
point $-1 19.05147711754573692 71.01081474988819764 26.02527183247353548 #
vertex $-1 $455 $619 #
point $-1 25.13913099743261625 71.01081474988819764 26.02527183247353548 #
vertex $-1 $459 $620 #
point $-1 31.22678487731949559 71.01081474988819764 26.02527183247353548 #
coedge $-1 $474 $473 $466 $571 forward $463 $-1 #
edge $-1 $572 36.04728249132411122 $575 42.90408569174090303 $570 $621 forward 7 unknown #
vertex $-1 $478 $622 #
straight-curve $-1 27.39697986929538231 -11.55172834013014693 30.19371503169462301 0 -1 0 I I #
edge $-1 $575 -19.66702549220606855 $475 1.655383515846814646 $474 $623 forward 7 unknown #
vertex $-1 $574 $624 #
straight-curve $-1 27.39697986929538231 7.105427357601001859e-15 23.3369118312778383 0 0.8386705633113421543 0.5446390421508873203 I I #
point $-1 27.39697986929538231 10.55855081541401574 30.19371503169461946 #
point $-1 48.71938887734826551 0 23.3369118312778312 #
straight-curve $-1 56.06982634968107959 0 30.19371503169461946 1 0 0 I I #
vertex $-1 $481 $625 #
point $-1 33.16146167090596464 8.099075193582173426 22.42320261712789886 #
vertex $-1 $485 $626 #
point $-1 39.55818437332182214 8.099075193582173426 22.42320261712789886 #
vertex $-1 $489 $627 #
point $-1 45.95490707573768674 8.099075193582173426 22.42320261712789886 #
edge $-1 $587 36.04728249132411122 $590 42.90408569174090303 $494 $628 forward 7 unknown #
vertex $-1 $508 $629 #
straight-curve $-1 77.41330501963503252 -11.55172834013014693 30.19371503169462301 0 -1 0 I I #
edge $-1 $590 5.341137082963754779 $505 26.66354609101664153 $504 $630 forward 7 unknown #
vertex $-1 $589 $631 #
straight-curve $-1 77.41330501963503252 7.105427357601001859e-15 23.3369118312778383 0 0.8386705633113421543 0.5446390421508873203 I I #
point $-1 77.41330501963503252 10.55855081541401574 30.19371503169461946 #
point $-1 98.73571402768791927 0 23.3369118312778312 #
straight-curve $-1 56.06982634968107959 0 30.19371503169461946 1 0 0 I I #
vertex $-1 $511 $632 #
point $-1 83.1777868212456184 8.099075193582173426 22.42320261712789886 #
vertex $-1 $515 $633 #
point $-1 89.5745095236614759 8.099075193582173426 22.42320261712789886 #
vertex $-1 $519 $634 #
point $-1 95.9712322260773476 8.099075193582173426 22.42320261712789886 #
straight-curve $-1 0 75.94435270610694033 15.09685751584730973 0 0 -1 I I #
point $-1 0 0 0 #
straight-curve $-1 0 37.97217635305347017 0 0 1 0 I I #
point $-1 0 75.94435270610694033 0 #
coedge $-1 $548 $547 $540 $606 reversed $412 $-1 #
edge $-1 $607 -37.97217635305347017 $609 37.97217635305347017 $605 $635 forward 7 unknown #
vertex $-1 $606 $636 #
straight-curve $-1 56.06982634968107959 0 0 -1 0 0 I I #
vertex $-1 $543 $637 #
straight-curve $-1 56.06982634968107959 75.94435270610694033 0 1 0 0 I I #
point $-1 13.99304119762115306 75.94435270610694033 0 #
straight-curve $-1 0 75.94435270610694033 15.09685751584730973 0 0 -1 I I #
straight-curve $-1 0 0 15.09685751584730973 0 0 -1 I I #
straight-curve $-1 34.28522079724408655 75.94435270610694033 87.58718727405808124 0 0 -1 I I #
point $-1 34.28522079724408655 75.94435270610694033 30.19371503169461946 #
straight-curve $-1 40.10447867355684792 75.94435270610694033 24.65820011062036343 -1 0 0 I I #
point $-1 34.28522079724408655 75.94435270610694033 24.65820011062035633 #
point $-1 18.05147711754573692 70.43723830614493409 25.20611979336061381 #
point $-1 24.13913099743261625 70.43723830614493409 25.20611979336061381 #
point $-1 30.22678487731949559 70.43723830614493409 25.20611979336061381 #
straight-curve $-1 27.39697986929538231 0 66.24099752301873423 0 0 -1 I I #
point $-1 27.39697986929538231 0 30.19371503169461946 #
straight-curve $-1 47.06400536150145086 0 23.3369118312778312 1 0 0 I I #
point $-1 27.39697986929538231 0 23.3369118312778312 #
point $-1 31.66146167090596109 8.916033756808502631 21.16519677216088979 #
point $-1 38.05818437332182214 8.916033756808502631 21.16519677216088979 #
point $-1 44.45490707573768674 8.916033756808502631 21.16519677216088979 #
straight-curve $-1 77.41330501963503252 0 66.24099752301873423 0 0 -1 I I #
point $-1 77.41330501963503252 0 30.19371503169461946 #
straight-curve $-1 72.07216793667127774 0 23.3369118312778312 1 0 0 I I #
point $-1 77.41330501963503252 0 23.3369118312778312 #
point $-1 81.6777868212456184 8.916033756808502631 21.16519677216088979 #
point $-1 88.0745095236614759 8.916033756808502631 21.16519677216088979 #
point $-1 94.4712322260773476 8.916033756808502631 21.16519677216088979 #
straight-curve $-1 0 37.97217635305347017 0 0 1 0 I I #
point $-1 0 0 0 #
point $-1 0 75.94435270610694033 0 #
End-of-ACIS-data 