300 0 18 0           
7 Unknown 11 ACIS 3.0 NT 24 Fri Oct 30 18:23:23 1998 
-1 9.9999999999999995e-007 1e-010 
body $18 $19 $-1 $20 #
body $21 $22 $-1 $23 #
body $24 $25 $-1 $26 #
body $27 $28 $-1 $29 #
body $30 $31 $-1 $32 #
body $33 $34 $-1 $35 #
body $36 $37 $-1 $38 #
body $39 $40 $-1 $41 #
body $42 $43 $-1 $44 #
body $45 $46 $-1 $47 #
body $48 $49 $-1 $50 #
body $51 $52 $-1 $53 #
body $54 $55 $-1 $56 #
body $57 $58 $-1 $59 #
body $60 $61 $-1 $62 #
body $63 $64 $-1 $65 #
body $66 $67 $-1 $68 #
body $69 $70 $-1 $71 #
display_attribute-st-attrib $-1 $72 $-1 $0 1 #
lump $-1 $-1 $73 $0 #
transform $-1 1 0 0 0 1 0 0 0 1 45.168614764854887 28.191407740028801 5.9916312949716044 1 rotate no_reflect no_shear #
display_attribute-st-attrib $-1 $74 $-1 $1 3 #
lump $-1 $-1 $75 $1 #
transform $-1 1 0 0 0 1 0 0 0 1 45.168614764854887 28.191407740028801 5.9916312949716044 1 rotate no_reflect no_shear #
display_attribute-st-attrib $-1 $76 $-1 $2 3 #
lump $-1 $-1 $77 $2 #
transform $-1 1 0 0 0 1 0 0 0 1 45.168614764854887 28.191407740028801 5.9916312949716044 1 rotate no_reflect no_shear #
display_attribute-st-attrib $-1 $78 $-1 $3 3 #
lump $-1 $-1 $79 $3 #
transform $-1 1 0 0 0 1 0 0 0 1 45.168614764854887 28.191407740028801 5.9916312949716044 1 rotate no_reflect no_shear #
display_attribute-st-attrib $-1 $80 $-1 $4 3 #
lump $-1 $-1 $81 $4 #
transform $-1 1 0 0 0 1 0 0 0 1 45.168614764854887 28.191407740028801 5.9916312949716044 1 rotate no_reflect no_shear #
display_attribute-st-attrib $-1 $82 $-1 $5 3 #
lump $-1 $-1 $83 $5 #
transform $-1 1 0 0 0 1 0 0 0 1 45.168614764854887 28.191407740028801 5.9916312949716044 1 rotate no_reflect no_shear #
display_attribute-st-attrib $-1 $84 $-1 $6 3 #
lump $-1 $-1 $85 $6 #
transform $-1 1 0 0 0 1 0 0 0 1 45.168614764854887 28.191407740028801 5.9916312949716044 1 rotate no_reflect no_shear #
display_attribute-st-attrib $-1 $86 $-1 $7 3 #
lump $-1 $-1 $87 $7 #
transform $-1 1 0 0 0 1 0 0 0 1 45.168614764854887 28.191407740028801 5.9916312949716044 1 rotate no_reflect no_shear #
display_attribute-st-attrib $-1 $88 $-1 $8 3 #
lump $-1 $-1 $89 $8 #
transform $-1 1 0 0 0 1 0 0 0 1 45.168614764854887 28.191407740028801 5.9916312949716044 1 rotate no_reflect no_shear #
display_attribute-st-attrib $-1 $90 $-1 $9 3 #
lump $-1 $-1 $91 $9 #
transform $-1 1 0 0 0 1 0 0 0 1 45.168614764854887 28.191407740028801 5.9916312949716044 1 rotate no_reflect no_shear #
display_attribute-st-attrib $-1 $92 $-1 $10 3 #
lump $-1 $-1 $93 $10 #
transform $-1 1 0 0 0 1 0 0 0 1 45.168614764854887 28.191407740028801 5.9916312949716044 1 rotate no_reflect no_shear #
display_attribute-st-attrib $-1 $94 $-1 $11 3 #
lump $-1 $-1 $95 $11 #
transform $-1 1 0 0 0 1 0 0 0 1 45.168614764854887 28.191407740028801 5.9916312949716044 1 rotate no_reflect no_shear #
display_attribute-st-attrib $-1 $96 $-1 $12 3 #
lump $-1 $-1 $97 $12 #
transform $-1 1 0 0 0 1 0 0 0 1 45.168614764854887 28.191407740028801 5.9916312949716044 1 rotate no_reflect no_shear #
display_attribute-st-attrib $-1 $98 $-1 $13 3 #
lump $-1 $-1 $99 $13 #
transform $-1 1 0 0 0 1 0 0 0 1 45.168614764854887 28.191407740028801 5.9916312949716044 1 rotate no_reflect no_shear #
display_attribute-st-attrib $-1 $100 $-1 $14 3 #
lump $-1 $-1 $101 $14 #
transform $-1 1 0 0 0 1 0 0 0 1 45.168614764854887 28.191407740028801 5.9916312949716044 1 rotate no_reflect no_shear #
display_attribute-st-attrib $-1 $102 $-1 $15 3 #
lump $-1 $-1 $103 $15 #
transform $-1 1 0 0 0 1 0 0 0 1 45.168614764854887 28.191407740028801 5.9916312949716044 1 rotate no_reflect no_shear #
display_attribute-st-attrib $-1 $104 $-1 $16 3 #
lump $-1 $-1 $105 $16 #
transform $-1 1 0 0 0 1 0 0 0 1 45.168614764854887 28.191407740028801 5.9916312949716044 1 rotate no_reflect no_shear #
display_attribute-st-attrib $-1 $106 $-1 $17 3 #
lump $-1 $-1 $107 $17 #
transform $-1 1 0 0 0 1 0 0 0 1 45.168614764854887 28.191407740028801 5.9916312949716044 1 rotate no_reflect no_shear #
id_attribute-st-attrib $-1 $-1 $18 $0 1963 #
shell $-1 $-1 $-1 $108 $-1 $19 #
id_attribute-st-attrib $-1 $-1 $21 $1 1968 #
shell $-1 $-1 $-1 $109 $-1 $22 #
id_attribute-st-attrib $-1 $-1 $24 $2 1983 #
shell $-1 $-1 $-1 $110 $-1 $25 #
id_attribute-st-attrib $-1 $-1 $27 $3 1991 #
shell $-1 $-1 $-1 $111 $-1 $28 #
id_attribute-st-attrib $-1 $-1 $30 $4 2000 #
shell $-1 $-1 $-1 $112 $-1 $31 #
id_attribute-st-attrib $-1 $-1 $33 $5 2013 #
shell $-1 $-1 $-1 $113 $-1 $34 #
id_attribute-st-attrib $-1 $-1 $36 $6 2024 #
shell $-1 $-1 $-1 $114 $-1 $37 #
id_attribute-st-attrib $-1 $-1 $39 $7 2036 #
shell $-1 $-1 $-1 $115 $-1 $40 #
id_attribute-st-attrib $-1 $-1 $42 $8 2052 #
shell $-1 $-1 $-1 $116 $-1 $43 #
id_attribute-st-attrib $-1 $-1 $45 $9 2066 #
shell $-1 $-1 $-1 $117 $-1 $46 #
id_attribute-st-attrib $-1 $-1 $48 $10 2081 #
shell $-1 $-1 $-1 $118 $-1 $49 #
id_attribute-st-attrib $-1 $-1 $51 $11 2097 #
shell $-1 $-1 $-1 $119 $-1 $52 #
id_attribute-st-attrib $-1 $-1 $54 $12 2114 #
shell $-1 $-1 $-1 $120 $-1 $55 #
id_attribute-st-attrib $-1 $-1 $57 $13 2132 #
shell $-1 $-1 $-1 $121 $-1 $58 #
id_attribute-st-attrib $-1 $-1 $60 $14 2156 #
shell $-1 $-1 $-1 $122 $-1 $61 #
id_attribute-st-attrib $-1 $-1 $63 $15 2176 #
shell $-1 $-1 $-1 $123 $-1 $64 #
id_attribute-st-attrib $-1 $-1 $66 $16 2197 #
shell $-1 $-1 $-1 $124 $-1 $67 #
id_attribute-st-attrib $-1 $-1 $69 $17 2219 #
shell $-1 $-1 $-1 $125 $-1 $70 #
face $-1 $126 $127 $73 $-1 $128 forward single #
face $-1 $129 $130 $75 $-1 $131 reversed single #
face $-1 $132 $133 $77 $-1 $134 reversed single #
face $-1 $135 $136 $79 $-1 $137 forward single #
face $-1 $138 $139 $81 $-1 $140 forward single #
face $-1 $141 $142 $83 $-1 $143 reversed single #
face $-1 $144 $145 $85 $-1 $146 forward single #
face $-1 $147 $148 $87 $-1 $149 forward single #
face $-1 $150 $151 $89 $-1 $152 reversed single #
face $-1 $153 $154 $91 $-1 $155 forward single #
face $-1 $156 $157 $93 $-1 $158 forward single #
face $-1 $159 $160 $95 $-1 $161 reversed single #
face $-1 $162 $163 $97 $-1 $164 forward single #
face $-1 $165 $166 $99 $-1 $167 forward single #
face $-1 $168 $169 $101 $-1 $170 reversed single #
face $-1 $171 $172 $103 $-1 $173 forward single #
face $-1 $174 $175 $105 $-1 $176 reversed single #
face $-1 $177 $178 $107 $-1 $179 forward single #
face $-1 $180 $181 $73 $-1 $182 reversed single #
loop $-1 $-1 $183 $108 #
plane-surface $-1 0 0 5.9916312949716044 0 0 1 1 0 0 forward_v I I I I #
face $-1 $184 $185 $75 $-1 $186 reversed single #
loop $-1 $-1 $187 $109 #
plane-surface $-1 0 -24.366546488867172 2.9916312949716044 0 0 1 1 0 0 forward_v I I I I #
face $-1 $188 $189 $77 $-1 $190 reversed single #
loop $-1 $-1 $191 $110 #
plane-surface $-1 -107.92212815895911 -16.46019644782724 65.121392334956226 0 1 0 -0.69465837861970381 0 0.71933979245794832 forward_v I I I I #
face $-1 $192 $193 $79 $-1 $194 forward single #
loop $-1 $195 $196 $111 #
cone-surface $-1 -41.486309558315028 -14.145400889382874 2.3901604921301605 0.69465837861970381 0 -0.71933979245794832 0.35966989622897416 0 0.3473291893098519 1 I I 0 1 forward I I I I #
face $-1 $197 $198 $81 $-1 $199 forward single #
loop $-1 $200 $201 $112 #
cone-surface $-1 -41.486309558315028 -10.673207551716324 2.3901604921301605 0.69465837861970381 0 -0.71933979245794832 0.35966989622897416 0 0.3473291893098519 1 I I 0 1 forward I I I I #
face $-1 $202 $203 $83 $-1 $204 reversed single #
loop $-1 $-1 $205 $113 #
plane-surface $-1 -107.92212815895911 -5.6374194666864224 65.121392334956226 0 1 0 -0.69465837861970381 0 0.71933979245794832 forward_v I I I I #
face $-1 $206 $207 $85 $-1 $208 forward single #
loop $-1 $209 $210 $114 #
cone-surface $-1 -41.486309558315028 -3.3226239082420541 2.3901604921301605 0.69465837861970381 0 -0.71933979245794832 0.35966989622897416 0 0.3473291893098519 1 I I 0 1 forward I I I I #
face $-1 $211 $212 $87 $-1 $213 forward single #
loop $-1 $214 $215 $115 #
cone-surface $-1 -41.486309558315028 0.14956942942449558 2.3901604921301605 0.69465837861970381 0 -0.71933979245794832 0.35966989622897416 0 0.3473291893098519 1 I I 0 1 forward I I I I #
face $-1 $216 $217 $89 $-1 $218 reversed single #
loop $-1 $-1 $219 $116 #
plane-surface $-1 -107.92212815895911 5.1853575144543971 65.121392334956226 0 1 0 -0.69465837861970381 0 0.71933979245794832 forward_v I I I I #
face $-1 $220 $221 $91 $-1 $222 forward single #
loop $-1 $223 $224 $117 #
cone-surface $-1 -41.486309558315028 7.5001530728987618 2.3901604921301605 0.69465837861970381 0 -0.71933979245794832 0.35966989622897416 0 0.3473291893098519 1 I I 0 1 forward I I I I #
face $-1 $225 $226 $93 $-1 $227 forward single #
loop $-1 $228 $229 $118 #
cone-surface $-1 -41.486309558315028 10.972346410565315 2.3901604921301605 0.69465837861970381 0 -0.71933979245794832 0.35966989622897416 0 0.3473291893098519 1 I I 0 1 forward I I I I #
face $-1 $230 $231 $95 $-1 $232 reversed single #
loop $-1 $-1 $233 $119 #
plane-surface $-1 -107.92212815895911 16.008134495595215 65.121392334956226 0 1 0 -0.69465837861970381 0 0.71933979245794832 forward_v I I I I #
face $-1 $234 $235 $97 $-1 $236 forward single #
loop $-1 $237 $238 $120 #
cone-surface $-1 -41.486309558315028 18.322930054039581 2.3901604921301605 0.69465837861970381 0 -0.71933979245794832 0.35966989622897416 0 0.3473291893098519 1 I I 0 1 forward I I I I #
face $-1 $239 $240 $99 $-1 $241 forward single #
loop $-1 $242 $243 $121 #
cone-surface $-1 -41.486309558315028 21.795123391706134 2.3901604921301605 0.69465837861970381 0 -0.71933979245794832 0.35966989622897416 0 0.3473291893098519 1 I I 0 1 forward I I I I #
face $-1 $244 $245 $101 $-1 $246 reversed single #
loop $-1 $-1 $247 $122 #
plane-surface $-1 40.709991361687024 3.8248612511616287 128.80248812822066 0 -1 0 -0.68199836817093118 0 -0.7313536940579346 forward_v I I I I #
face $-1 $248 $249 $103 $-1 $250 forward single #
loop $-1 $251 $252 $123 #
cone-surface $-1 41.229576738374995 -1.1671955134144127 2.1325274042658462 -0.68199836817093118 0 -0.7313536940579346 0.7313536940579346 0 -0.68199836817093118 1 I I 0 1 forward I I I I #
face $-1 $253 $254 $105 $-1 $255 reversed single #
loop $-1 $-1 $256 $124 #
plane-surface $-1 -20.899851762657896 23.199350975452759 62.734021600707877 0.68199836817093118 0 0.7313536940579346 0.7313536940579346 0 -0.68199836817093118 forward_v I I I I #
face $-1 $257 $258 $107 $-1 $259 forward single #
loop $-1 $260 $261 $125 #
cone-surface $-1 41.229576738374995 23.199350975452759 2.1325274042658462 -0.68199836817093118 0 -0.7313536940579346 0.7313536940579346 0 -0.68199836817093118 1 I I 0 1 forward I I I I #
face $-1 $262 $263 $73 $-1 $264 reversed single #
loop $-1 $-1 $265 $126 #
plane-surface $-1 0 0 -5.9916312949716044 0 0 1 1 0 0 forward_v I I I I #
coedge $-1 $266 $267 $268 $269 forward $127 $-1 #
face $-1 $270 $271 $75 $-1 $272 reversed single #
loop $-1 $-1 $273 $129 #
plane-surface $-1 0 -20.541685237705543 4.4916312949716044 0 -1 0 0 0 -1 forward_v I I I I #
coedge $-1 $274 $275 $276 $277 reversed $130 $-1 #
face $-1 $278 $279 $77 $-1 $280 reversed single #
loop $-1 $-1 $281 $132 #
plane-surface $-1 -45.168614764854894 -12.409304220549599 0.13822839382875429 -0.69465837861970381 0 0.71933979245794832 0.71933979245794832 0 0.69465837861970381 forward_v I I I I #
coedge $-1 $282 $283 $284 $285 reversed $133 $-1 #
face $-1 $-1 $286 $79 $-1 $287 forward single #
loop $-1 $288 $289 $135 #
cone-surface $-1 -40.66102775979526 -14.145400889382874 1.5355561917456502 0.69465837861970381 0 -0.71933979245794832 0.17983494811448708 0 0.17366459465492595 1 I I -0.70710678118654746 0.70710678118654746 forward I I I I #
loop $-1 $-1 $290 $111 #
coedge $-1 $196 $196 $291 $292 reversed $136 $-1 #
face $-1 $-1 $293 $81 $-1 $294 forward single #
loop $-1 $295 $296 $138 #
cone-surface $-1 -40.66102775979526 -10.673207551716324 1.5355561917456502 0.69465837861970381 0 -0.71933979245794832 0.17983494811448708 0 0.17366459465492595 1 I I -0.70710678118654746 0.70710678118654746 forward I I I I #
loop $-1 $-1 $297 $112 #
coedge $-1 $201 $201 $298 $299 reversed $139 $-1 #
face $-1 $300 $301 $83 $-1 $302 reversed single #
loop $-1 $-1 $303 $141 #
plane-surface $-1 -45.168614764854894 -1.586527239408781 0.13822839382875429 -0.69465837861970381 0 0.71933979245794832 0.71933979245794832 0 0.69465837861970381 forward_v I I I I #
coedge $-1 $304 $305 $306 $307 reversed $142 $-1 #
face $-1 $-1 $308 $85 $-1 $309 forward single #
loop $-1 $310 $311 $144 #
cone-surface $-1 -40.66102775979526 -3.3226239082420541 1.5355561917456502 0.69465837861970381 0 -0.71933979245794832 0.17983494811448708 0 0.17366459465492595 1 I I -0.70710678118654746 0.70710678118654746 forward I I I I #
loop $-1 $-1 $312 $114 #
coedge $-1 $210 $210 $313 $314 reversed $145 $-1 #
face $-1 $-1 $315 $87 $-1 $316 forward single #
loop $-1 $317 $318 $147 #
cone-surface $-1 -40.66102775979526 0.14956942942449558 1.5355561917456502 0.69465837861970381 0 -0.71933979245794832 0.17983494811448708 0 0.17366459465492595 1 I I -0.70710678118654746 0.70710678118654746 forward I I I I #
loop $-1 $-1 $319 $115 #
coedge $-1 $215 $215 $320 $321 reversed $148 $-1 #
face $-1 $322 $323 $89 $-1 $324 reversed single #
loop $-1 $-1 $325 $150 #
plane-surface $-1 -45.168614764854894 9.2362497417320384 0.13822839382875429 -0.69465837861970381 0 0.71933979245794832 0.71933979245794832 0 0.69465837861970381 forward_v I I I I #
coedge $-1 $326 $327 $328 $329 reversed $151 $-1 #
face $-1 $-1 $330 $91 $-1 $331 forward single #
loop $-1 $332 $333 $153 #
cone-surface $-1 -40.66102775979526 7.5001530728987618 1.5355561917456502 0.69465837861970381 0 -0.71933979245794832 0.17983494811448708 0 0.17366459465492595 1 I I -0.70710678118654746 0.70710678118654746 forward I I I I #
loop $-1 $-1 $334 $117 #
coedge $-1 $224 $224 $335 $336 reversed $154 $-1 #
face $-1 $-1 $337 $93 $-1 $338 forward single #
loop $-1 $339 $340 $156 #
cone-surface $-1 -40.66102775979526 10.972346410565315 1.5355561917456502 0.69465837861970381 0 -0.71933979245794832 0.17983494811448708 0 0.17366459465492595 1 I I -0.70710678118654746 0.70710678118654746 forward I I I I #
loop $-1 $-1 $341 $118 #
coedge $-1 $229 $229 $342 $343 reversed $157 $-1 #
face $-1 $344 $345 $95 $-1 $346 reversed single #
loop $-1 $-1 $347 $159 #
plane-surface $-1 -45.168614764854894 20.059026722872858 0.13822839382875429 -0.69465837861970381 0 0.71933979245794832 0.71933979245794832 0 0.69465837861970381 forward_v I I I I #
coedge $-1 $348 $349 $350 $351 reversed $160 $-1 #
face $-1 $-1 $352 $97 $-1 $353 forward single #
loop $-1 $354 $355 $162 #
cone-surface $-1 -40.66102775979526 18.322930054039581 1.5355561917456502 0.69465837861970381 0 -0.71933979245794832 0.17983494811448708 0 0.17366459465492595 1 I I -0.70710678118654746 0.70710678118654746 forward I I I I #
loop $-1 $-1 $356 $120 #
coedge $-1 $238 $238 $357 $358 reversed $163 $-1 #
face $-1 $-1 $359 $99 $-1 $360 forward single #
loop $-1 $361 $362 $165 #
cone-surface $-1 -40.66102775979526 21.795123391706134 1.5355561917456502 0.69465837861970381 0 -0.71933979245794832 0.17983494811448708 0 0.17366459465492595 1 I I -0.70710678118654746 0.70710678118654746 forward I I I I #
loop $-1 $-1 $363 $121 #
coedge $-1 $243 $243 $364 $365 reversed $166 $-1 #
face $-1 $366 $367 $101 $-1 $368 reversed single #
loop $-1 $-1 $369 $168 #
plane-surface $-1 -20.899851762657896 -1.1671955134144127 62.734021600707877 0.68199836817093118 0 0.7313536940579346 0.7313536940579346 0 -0.68199836817093118 forward_v I I I I #
coedge $-1 $370 $371 $372 $373 reversed $169 $-1 #
face $-1 $-1 $374 $103 $-1 $375 forward single #
loop $-1 $376 $377 $171 #
cone-surface $-1 39.559391519896757 -1.1671955134144127 0.34147307583544517 -0.68199836817093118 0 -0.7313536940579346 0.3656768470289673 0 -0.34099918408546559 1 I I -0.70710678118654768 0.70710678118654735 forward I I I I #
loop $-1 $-1 $378 $123 #
coedge $-1 $252 $252 $379 $380 reversed $172 $-1 #
face $-1 $381 $382 $105 $-1 $383 reversed single #
loop $-1 $-1 $384 $174 #
plane-surface $-1 40.709991361687024 18.207294210876718 128.80248812822066 0 1 0 0.68199836817093118 0 0.7313536940579346 forward_v I I I I #
coedge $-1 $385 $386 $387 $388 reversed $175 $-1 #
face $-1 $-1 $389 $107 $-1 $390 forward single #
loop $-1 $391 $392 $177 #
cone-surface $-1 39.559391519896757 23.199350975452759 0.34147307583544517 -0.68199836817093118 0 -0.7313536940579346 0.3656768470289673 0 -0.34099918408546559 1 I I -0.70710678118654768 0.70710678118654735 forward I I I I #
loop $-1 $-1 $393 $125 #
coedge $-1 $261 $261 $394 $395 reversed $178 $-1 #
face $-1 $396 $397 $73 $-1 $398 reversed single #
loop $-1 $-1 $399 $180 #
plane-surface $-1 0 -28.191407740028801 0 0 1 0 0 0 1 forward_v I I I I #
coedge $-1 $400 $401 $402 $403 forward $181 $-1 #
coedge $-1 $404 $183 $405 $406 forward $127 $-1 #
coedge $-1 $183 $404 $407 $408 forward $127 $-1 #
coedge $-1 $409 $410 $183 $269 reversed $411 $-1 #
edge $-1 $412 $413 $268 $414 forward #
face $-1 $415 $416 $75 $-1 $417 reversed single #
loop $-1 $-1 $418 $184 #
plane-surface $-1 -45.168614764854887 0 0 1 0 0 0 0 -1 forward_v I I I I #
coedge $-1 $419 $420 $421 $422 reversed $185 $-1 #
coedge $-1 $423 $187 $424 $425 reversed $130 $-1 #
coedge $-1 $187 $423 $419 $426 forward $130 $-1 #
coedge $-1 $421 $427 $187 $277 forward $428 $-1 #
edge $-1 $429 $430 $276 $431 forward #
face $-1 $432 $433 $77 $-1 $434 forward single #
loop $-1 $-1 $435 $188 #
plane-surface $-1 -107.92212815895911 -8.3584119932719574 65.121392334956226 0 -1 0 0.69465837861970381 0 -0.71933979245794832 forward_v I I I I #
coedge $-1 $436 $437 $438 $439 reversed $189 $-1 #
coedge $-1 $283 $191 $440 $441 reversed $133 $-1 #
coedge $-1 $191 $282 $436 $442 reversed $133 $-1 #
coedge $-1 $438 $443 $191 $285 forward $433 $-1 #
edge $-1 $444 $445 $284 $446 forward #
loop $-1 $-1 $291 $192 #
plane-surface $-1 -45.168614764854894 -12.409304220549599 0.13822839382875429 -0.69465837861970381 0 0.71933979245794832 0.71933979245794832 0 0.69465837861970381 forward_v I I I I #
loop $-1 $-1 $447 $135 #
coedge $-1 $289 $289 $290 $448 reversed $193 $-1 #
coedge $-1 $290 $290 $289 $448 forward $195 $-1 #
coedge $-1 $291 $291 $196 $292 forward $286 $-1 #
edge $-1 $449 $449 $291 $450 forward #
loop $-1 $-1 $298 $197 #
plane-surface $-1 -45.168614764854894 -12.409304220549599 0.13822839382875429 -0.69465837861970381 0 0.71933979245794832 0.71933979245794832 0 0.69465837861970381 forward_v I I I I #
loop $-1 $-1 $451 $138 #
coedge $-1 $296 $296 $297 $452 reversed $198 $-1 #
coedge $-1 $297 $297 $296 $452 forward $200 $-1 #
coedge $-1 $298 $298 $201 $299 forward $293 $-1 #
edge $-1 $453 $453 $298 $454 forward #
face $-1 $455 $456 $83 $-1 $457 forward single #
loop $-1 $-1 $458 $202 #
plane-surface $-1 -107.92212815895911 2.4643649878688603 65.121392334956226 0 -1 0 0.69465837861970381 0 -0.71933979245794832 forward_v I I I I #
coedge $-1 $459 $460 $461 $462 reversed $203 $-1 #
coedge $-1 $305 $205 $463 $464 reversed $142 $-1 #
coedge $-1 $205 $304 $459 $465 reversed $142 $-1 #
coedge $-1 $461 $466 $205 $307 forward $456 $-1 #
edge $-1 $467 $468 $306 $469 forward #
loop $-1 $-1 $313 $206 #
plane-surface $-1 -45.168614764854894 -1.586527239408781 0.13822839382875429 -0.69465837861970381 0 0.71933979245794832 0.71933979245794832 0 0.69465837861970381 forward_v I I I I #
loop $-1 $-1 $470 $144 #
coedge $-1 $311 $311 $312 $471 reversed $207 $-1 #
coedge $-1 $312 $312 $311 $471 forward $209 $-1 #
coedge $-1 $313 $313 $210 $314 forward $308 $-1 #
edge $-1 $472 $472 $313 $473 forward #
loop $-1 $-1 $320 $211 #
plane-surface $-1 -45.168614764854894 -1.586527239408781 0.13822839382875429 -0.69465837861970381 0 0.71933979245794832 0.71933979245794832 0 0.69465837861970381 forward_v I I I I #
loop $-1 $-1 $474 $147 #
coedge $-1 $318 $318 $319 $475 reversed $212 $-1 #
coedge $-1 $319 $319 $318 $475 forward $214 $-1 #
coedge $-1 $320 $320 $215 $321 forward $315 $-1 #
edge $-1 $476 $476 $320 $477 forward #
face $-1 $478 $479 $89 $-1 $480 forward single #
loop $-1 $-1 $481 $216 #
plane-surface $-1 -107.92212815895911 13.28714196900968 65.121392334956226 0 -1 0 0.69465837861970381 0 -0.71933979245794832 forward_v I I I I #
coedge $-1 $482 $483 $484 $485 reversed $217 $-1 #
coedge $-1 $327 $219 $486 $487 reversed $151 $-1 #
coedge $-1 $219 $326 $482 $488 reversed $151 $-1 #
coedge $-1 $484 $489 $219 $329 forward $479 $-1 #
edge $-1 $490 $491 $328 $492 forward #
loop $-1 $-1 $335 $220 #
plane-surface $-1 -45.168614764854894 9.2362497417320384 0.13822839382875429 -0.69465837861970381 0 0.71933979245794832 0.71933979245794832 0 0.69465837861970381 forward_v I I I I #
loop $-1 $-1 $493 $153 #
coedge $-1 $333 $333 $334 $494 reversed $221 $-1 #
coedge $-1 $334 $334 $333 $494 forward $223 $-1 #
coedge $-1 $335 $335 $224 $336 forward $330 $-1 #
edge $-1 $495 $495 $335 $496 forward #
loop $-1 $-1 $342 $225 #
plane-surface $-1 -45.168614764854894 9.2362497417320384 0.13822839382875429 -0.69465837861970381 0 0.71933979245794832 0.71933979245794832 0 0.69465837861970381 forward_v I I I I #
loop $-1 $-1 $497 $156 #
coedge $-1 $340 $340 $341 $498 reversed $226 $-1 #
coedge $-1 $341 $341 $340 $498 forward $228 $-1 #
coedge $-1 $342 $342 $229 $343 forward $337 $-1 #
edge $-1 $499 $499 $342 $500 forward #
face $-1 $501 $502 $95 $-1 $503 forward single #
loop $-1 $-1 $504 $230 #
plane-surface $-1 -107.92212815895911 24.109918950150501 65.121392334956226 0 -1 0 0.69465837861970381 0 -0.71933979245794832 forward_v I I I I #
coedge $-1 $505 $506 $507 $508 reversed $231 $-1 #
coedge $-1 $349 $233 $509 $510 reversed $160 $-1 #
coedge $-1 $233 $348 $505 $511 reversed $160 $-1 #
coedge $-1 $507 $512 $233 $351 forward $502 $-1 #
edge $-1 $513 $514 $350 $515 forward #
loop $-1 $-1 $357 $234 #
plane-surface $-1 -45.168614764854894 20.059026722872858 0.13822839382875429 -0.69465837861970381 0 0.71933979245794832 0.71933979245794832 0 0.69465837861970381 forward_v I I I I #
loop $-1 $-1 $516 $162 #
coedge $-1 $355 $355 $356 $517 reversed $235 $-1 #
coedge $-1 $356 $356 $355 $517 forward $237 $-1 #
coedge $-1 $357 $357 $238 $358 forward $352 $-1 #
edge $-1 $518 $518 $357 $519 forward #
loop $-1 $-1 $364 $239 #
plane-surface $-1 -45.168614764854894 20.059026722872858 0.13822839382875429 -0.69465837861970381 0 0.71933979245794832 0.71933979245794832 0 0.69465837861970381 forward_v I I I I #
loop $-1 $-1 $520 $165 #
coedge $-1 $362 $362 $363 $521 reversed $240 $-1 #
coedge $-1 $363 $363 $362 $521 forward $242 $-1 #
coedge $-1 $364 $364 $243 $365 forward $359 $-1 #
edge $-1 $522 $522 $364 $523 forward #
face $-1 $524 $525 $101 $-1 $526 reversed single #
loop $-1 $-1 $527 $244 #
plane-surface $-1 40.709991361687024 -6.1592522779904542 128.80248812822066 0 1 0 0.68199836817093118 0 0.7313536940579346 forward_v I I I I #
coedge $-1 $528 $529 $530 $531 reversed $245 $-1 #
coedge $-1 $371 $247 $532 $533 reversed $169 $-1 #
coedge $-1 $247 $370 $528 $534 reversed $169 $-1 #
coedge $-1 $530 $535 $247 $373 forward $536 $-1 #
edge $-1 $537 $538 $372 $539 forward #
loop $-1 $-1 $379 $248 #
plane-surface $-1 -20.899851762657896 -1.1671955134144127 62.734021600707877 0.68199836817093118 0 0.7313536940579346 0.7313536940579346 0 -0.68199836817093118 forward_v I I I I #
loop $-1 $-1 $540 $171 #
coedge $-1 $377 $377 $378 $541 reversed $249 $-1 #
coedge $-1 $378 $378 $377 $541 forward $251 $-1 #
coedge $-1 $379 $379 $252 $380 forward $374 $-1 #
edge $-1 $542 $542 $379 $543 forward #
face $-1 $544 $545 $105 $-1 $546 forward single #
loop $-1 $-1 $547 $253 #
plane-surface $-1 45.168614764854887 0 0 -1 0 0 0 0 1 forward_v I I I I #
coedge $-1 $548 $549 $550 $551 reversed $254 $-1 #
coedge $-1 $552 $256 $553 $554 reversed $175 $-1 #
coedge $-1 $256 $552 $548 $555 forward $175 $-1 #
coedge $-1 $550 $556 $256 $388 forward $545 $-1 #
edge $-1 $557 $558 $387 $559 forward #
loop $-1 $-1 $394 $257 #
plane-surface $-1 -20.899851762657896 23.199350975452759 62.734021600707877 0.68199836817093118 0 0.7313536940579346 0.7313536940579346 0 -0.68199836817093118 forward_v I I I I #
loop $-1 $-1 $560 $177 #
coedge $-1 $392 $392 $393 $561 reversed $258 $-1 #
coedge $-1 $393 $393 $392 $561 forward $260 $-1 #
coedge $-1 $394 $394 $261 $395 forward $389 $-1 #
edge $-1 $562 $562 $394 $563 forward #
face $-1 $564 $565 $73 $-1 $566 reversed single #
loop $-1 $-1 $567 $262 #
plane-surface $-1 -45.168614764854887 0 0 1 0 0 0 0 -1 forward_v I I I I #
coedge $-1 $568 $407 $569 $570 forward $263 $-1 #
coedge $-1 $571 $265 $568 $572 forward $181 $-1 #
coedge $-1 $265 $571 $573 $574 forward $181 $-1 #
coedge $-1 $410 $409 $265 $403 reversed $411 $-1 #
edge $-1 $575 $576 $402 $577 forward #
coedge $-1 $267 $266 $578 $579 forward $127 $-1 #
coedge $-1 $580 $581 $266 $406 reversed $565 $-1 #
edge $-1 $413 $582 $405 $583 forward #
coedge $-1 $399 $584 $267 $408 reversed $263 $-1 #
edge $-1 $585 $412 $407 $586 forward #
coedge $-1 $402 $268 $584 $587 forward $411 $-1 #
coedge $-1 $268 $402 $580 $588 reversed $411 $-1 #
loop $-1 $-1 $409 $564 #
vertex $-1 $269 $589 #
vertex $-1 $269 $590 #
straight-curve $-1 45.168614764854887 0 5.9916312949716044 0 1 0 I I #
face $-1 $591 $592 $75 $-1 $593 forward single #
loop $-1 $-1 $424 $270 #
plane-surface $-1 0 -28.191407740028801 0 0 1 0 0 0 1 forward_v I I I I #
coedge $-1 $594 $595 $596 $597 forward $271 $-1 #
coedge $-1 $596 $273 $275 $426 reversed $185 $-1 #
coedge $-1 $273 $596 $598 $599 reversed $185 $-1 #
coedge $-1 $600 $276 $273 $422 forward $428 $-1 #
edge $-1 $430 $601 $421 $602 forward #
coedge $-1 $275 $274 $594 $603 reversed $130 $-1 #
coedge $-1 $604 $605 $274 $425 forward $416 $-1 #
edge $-1 $606 $429 $424 $607 forward #
edge $-1 $608 $430 $419 $609 forward #
coedge $-1 $276 $600 $604 $610 forward $428 $-1 #
loop $-1 $-1 $421 $591 #
vertex $-1 $425 $611 #
vertex $-1 $277 $612 #
straight-curve $-1 45.168614764854887 -12.183273244433586 2.9916312949716044 0 1 0 I I #
face $-1 $-1 $613 $77 $-1 $614 reversed single #
loop $-1 $-1 $284 $278 #
plane-surface $-1 0 0 5.9916312949716044 0 0 1 1 0 0 forward_v I I I I #
coedge $-1 $615 $616 $617 $618 reversed $279 $-1 #
coedge $-1 $619 $281 $283 $442 forward $189 $-1 #
coedge $-1 $281 $619 $615 $620 forward $189 $-1 #
coedge $-1 $617 $284 $281 $439 forward $433 $-1 #
edge $-1 $445 $621 $438 $622 forward #
coedge $-1 $623 $624 $282 $441 forward $613 $-1 #
edge $-1 $625 $444 $440 $626 forward #
edge $-1 $445 $625 $283 $627 forward #
coedge $-1 $284 $617 $623 $628 forward $433 $-1 #
vertex $-1 $441 $629 #
vertex $-1 $285 $630 #
straight-curve $-1 -53.961064079479556 -16.46019644782724 5.9916312949716044 1 0 0 I I #
coedge $-1 $447 $447 $-1 $631 reversed $288 $-1 #
edge $-1 $632 $632 $289 $633 forward #
vertex $-1 $292 $634 #
ellipse-curve $-1 -42.137926762179866 -14.145400889382874 3.0649298444001793 -0.69465837861970381 0 0.71933979245794832 0.35966989622897416 0 0.3473291893098519 1 I I #
coedge $-1 $451 $451 $-1 $635 reversed $295 $-1 #
edge $-1 $636 $636 $296 $637 forward #
vertex $-1 $299 $638 #
ellipse-curve $-1 -42.137926762179866 -10.673207551716324 3.0649298444001793 -0.69465837861970381 0 0.71933979245794832 0.35966989622897416 0 0.3473291893098519 1 I I #
face $-1 $-1 $639 $83 $-1 $640 reversed single #
loop $-1 $-1 $306 $300 #
plane-surface $-1 0 0 5.9916312949716044 0 0 1 1 0 0 forward_v I I I I #
coedge $-1 $641 $642 $643 $644 reversed $301 $-1 #
coedge $-1 $645 $303 $305 $465 forward $203 $-1 #
coedge $-1 $303 $645 $641 $646 forward $203 $-1 #
coedge $-1 $643 $306 $303 $462 forward $456 $-1 #
edge $-1 $468 $647 $461 $648 forward #
coedge $-1 $649 $650 $304 $464 forward $639 $-1 #
edge $-1 $651 $467 $463 $652 forward #
edge $-1 $468 $651 $305 $653 forward #
coedge $-1 $306 $643 $649 $654 forward $456 $-1 #
vertex $-1 $307 $655 #
vertex $-1 $307 $656 #
straight-curve $-1 -53.961064079479556 -5.6374194666864224 5.9916312949716044 1 0 0 I I #
coedge $-1 $470 $470 $-1 $657 reversed $310 $-1 #
edge $-1 $658 $658 $311 $659 forward #
vertex $-1 $314 $660 #
ellipse-curve $-1 -42.137926762179866 -3.3226239082420541 3.0649298444001793 -0.69465837861970381 0 0.71933979245794832 0.35966989622897416 0 0.3473291893098519 1 I I #
coedge $-1 $474 $474 $-1 $661 reversed $317 $-1 #
edge $-1 $662 $662 $318 $663 forward #
vertex $-1 $321 $664 #
ellipse-curve $-1 -42.137926762179866 0.14956942942449558 3.0649298444001793 -0.69465837861970381 0 0.71933979245794832 0.35966989622897416 0 0.3473291893098519 1 I I #
face $-1 $-1 $665 $89 $-1 $666 reversed single #
loop $-1 $-1 $328 $322 #
plane-surface $-1 0 0 5.9916312949716044 0 0 1 1 0 0 forward_v I I I I #
coedge $-1 $667 $668 $669 $670 reversed $323 $-1 #
coedge $-1 $671 $325 $327 $488 forward $217 $-1 #
coedge $-1 $325 $671 $667 $672 forward $217 $-1 #
coedge $-1 $669 $328 $325 $485 forward $479 $-1 #
edge $-1 $491 $673 $484 $674 forward #
coedge $-1 $675 $676 $326 $487 forward $665 $-1 #
edge $-1 $677 $490 $486 $678 forward #
edge $-1 $491 $677 $327 $679 forward #
coedge $-1 $328 $669 $675 $680 forward $479 $-1 #
vertex $-1 $329 $681 #
vertex $-1 $329 $682 #
straight-curve $-1 -53.961064079479556 5.1853575144543971 5.9916312949716044 1 0 0 I I #
coedge $-1 $493 $493 $-1 $683 reversed $332 $-1 #
edge $-1 $684 $684 $333 $685 forward #
vertex $-1 $336 $686 #
ellipse-curve $-1 -42.137926762179866 7.5001530728987618 3.0649298444001793 -0.69465837861970381 0 0.71933979245794832 0.35966989622897416 0 0.3473291893098519 1 I I #
coedge $-1 $497 $497 $-1 $687 reversed $339 $-1 #
edge $-1 $688 $688 $340 $689 forward #
vertex $-1 $343 $690 #
ellipse-curve $-1 -42.137926762179866 10.972346410565315 3.0649298444001793 -0.69465837861970381 0 0.71933979245794832 0.35966989622897416 0 0.3473291893098519 1 I I #
face $-1 $-1 $691 $95 $-1 $692 reversed single #
loop $-1 $-1 $350 $344 #
plane-surface $-1 0 0 5.9916312949716044 0 0 1 1 0 0 forward_v I I I I #
coedge $-1 $693 $694 $695 $696 reversed $345 $-1 #
coedge $-1 $697 $347 $349 $511 forward $231 $-1 #
coedge $-1 $347 $697 $693 $698 forward $231 $-1 #
coedge $-1 $695 $350 $347 $508 forward $502 $-1 #
edge $-1 $514 $699 $507 $700 forward #
coedge $-1 $701 $702 $348 $510 forward $691 $-1 #
edge $-1 $703 $513 $509 $704 forward #
edge $-1 $514 $703 $349 $705 forward #
coedge $-1 $350 $695 $701 $706 forward $502 $-1 #
vertex $-1 $351 $707 #
vertex $-1 $351 $708 #
straight-curve $-1 -53.961064079479556 16.008134495595215 5.9916312949716044 1 0 0 I I #
coedge $-1 $516 $516 $-1 $709 reversed $354 $-1 #
edge $-1 $710 $710 $355 $711 forward #
vertex $-1 $358 $712 #
ellipse-curve $-1 -42.137926762179866 18.322930054039581 3.0649298444001793 -0.69465837861970381 0 0.71933979245794832 0.35966989622897416 0 0.3473291893098519 1 I I #
coedge $-1 $520 $520 $-1 $713 reversed $361 $-1 #
edge $-1 $714 $714 $362 $715 forward #
vertex $-1 $365 $716 #
ellipse-curve $-1 -42.137926762179866 21.795123391706134 3.0649298444001793 -0.69465837861970381 0 0.71933979245794832 0.35966989622897416 0 0.3473291893098519 1 I I #
face $-1 $-1 $536 $101 $-1 $717 forward single #
loop $-1 $-1 $718 $366 #
plane-surface $-1 45.168614764854887 0 0 -1 0 0 0 0 1 forward_v I I I I #
coedge $-1 $719 $720 $721 $722 reversed $367 $-1 #
coedge $-1 $723 $369 $371 $534 forward $245 $-1 #
coedge $-1 $369 $723 $719 $724 forward $245 $-1 #
coedge $-1 $721 $372 $369 $531 forward $536 $-1 #
edge $-1 $538 $725 $530 $726 forward #
coedge $-1 $727 $728 $370 $533 forward $525 $-1 #
edge $-1 $729 $537 $532 $730 forward #
edge $-1 $538 $729 $371 $731 forward #
coedge $-1 $372 $721 $727 $732 forward $536 $-1 #
loop $-1 $-1 $721 $524 #
vertex $-1 $533 $733 #
vertex $-1 $373 $734 #
straight-curve $-1 20.354995680843512 3.8248612511616287 5.9916312949716044 -1 0 0 I I #
coedge $-1 $540 $540 $-1 $735 reversed $376 $-1 #
edge $-1 $736 $736 $377 $737 forward #
vertex $-1 $380 $738 #
ellipse-curve $-1 42.558762772767764 -1.1671955134144127 3.5579048856672815 0.68199836817093118 0 0.7313536940579346 0.7313536940579346 0 -0.68199836817093118 1 I I #
face $-1 $-1 $739 $105 $-1 $740 reversed single #
loop $-1 $-1 $550 $381 #
plane-surface $-1 0 0 5.9916312949716044 0 0 1 1 0 0 forward_v I I I I #
coedge $-1 $741 $742 $549 $743 forward $382 $-1 #
coedge $-1 $549 $384 $386 $555 reversed $254 $-1 #
coedge $-1 $384 $548 $547 $743 reversed $254 $-1 #
coedge $-1 $744 $387 $384 $551 forward $545 $-1 #
edge $-1 $558 $745 $550 $746 forward #
coedge $-1 $386 $385 $741 $747 reversed $175 $-1 #
coedge $-1 $748 $749 $385 $554 forward $739 $-1 #
edge $-1 $750 $557 $553 $751 forward #
edge $-1 $752 $558 $548 $753 forward #
coedge $-1 $387 $744 $748 $754 forward $545 $-1 #
vertex $-1 $554 $755 #
vertex $-1 $388 $756 #
straight-curve $-1 39.948910780680627 11.59967548772638 5.9916312949716044 0 -1 0 I I #
coedge $-1 $560 $560 $-1 $757 reversed $391 $-1 #
edge $-1 $758 $758 $392 $759 forward #
vertex $-1 $395 $760 #
ellipse-curve $-1 42.558762772767764 23.199350975452759 3.5579048856672815 0.68199836817093118 0 0.7313536940579346 0.7313536940579346 0 -0.68199836817093118 1 I I #
face $-1 $-1 $411 $73 $-1 $761 reversed single #
loop $-1 $-1 $580 $396 #
plane-surface $-1 0 28.191407740028801 0 0 -1 0 0 0 -1 forward_v I I I I #
coedge $-1 $762 $578 $581 $763 forward $397 $-1 #
coedge $-1 $584 $399 $400 $572 reversed $263 $-1 #
coedge $-1 $578 $762 $399 $570 reversed $397 $-1 #
edge $-1 $585 $764 $569 $765 forward #
coedge $-1 $401 $400 $762 $766 forward $181 $-1 #
edge $-1 $576 $764 $568 $767 forward #
coedge $-1 $581 $580 $401 $574 reversed $565 $-1 #
edge $-1 $768 $575 $573 $769 forward #
vertex $-1 $403 $770 #
vertex $-1 $587 $771 #
straight-curve $-1 45.168614764854887 0 -5.9916312949716044 0 -1 0 I I #
coedge $-1 $567 $569 $404 $579 reversed $397 $-1 #
edge $-1 $582 $585 $578 $772 forward #
coedge $-1 $573 $405 $410 $588 forward $565 $-1 #
coedge $-1 $405 $573 $567 $763 reversed $565 $-1 #
vertex $-1 $406 $773 #
straight-curve $-1 0 28.191407740028801 5.9916312949716044 -1 0 0 I I #
coedge $-1 $407 $568 $409 $587 reversed $263 $-1 #
vertex $-1 $579 $774 #
straight-curve $-1 0 -28.191407740028801 5.9916312949716044 1 0 0 I I #
edge $-1 $412 $576 $409 $775 forward #
edge $-1 $413 $575 $410 $776 forward #
point $-1 45.168614764854887 -28.191407740028801 5.9916312949716044 #
point $-1 45.168614764854887 28.191407740028801 5.9916312949716044 #
face $-1 $-1 $428 $75 $-1 $777 reversed single #
loop $-1 $-1 $598 $415 #
plane-surface $-1 0 0 5.9916312949716044 0 0 1 1 0 0 forward_v I I I I #
coedge $-1 $778 $418 $423 $603 forward $271 $-1 #
coedge $-1 $418 $778 $779 $780 reversed $271 $-1 #
coedge $-1 $420 $419 $418 $597 reversed $185 $-1 #
edge $-1 $781 $608 $418 $782 forward #
coedge $-1 $779 $783 $420 $599 forward $592 $-1 #
edge $-1 $601 $781 $598 $784 forward #
coedge $-1 $427 $421 $783 $785 reversed $428 $-1 #
vertex $-1 $422 $786 #
straight-curve $-1 45.168614764854887 -20.541685237705543 2.2458156474858022 0 0 1 I I #
edge $-1 $608 $606 $594 $787 forward #
coedge $-1 $788 $424 $427 $610 reversed $416 $-1 #
coedge $-1 $424 $788 $778 $789 forward $416 $-1 #
vertex $-1 $425 $790 #
straight-curve $-1 0 -28.191407740028801 2.9916312949716044 1 0 0 I I #
vertex $-1 $603 $791 #
straight-curve $-1 0 -20.541685237705543 2.9916312949716044 1 0 0 I I #
edge $-1 $792 $429 $427 $793 forward #
point $-1 45.168614764854887 -28.191407740028801 2.9916312949716044 #
point $-1 45.168614764854887 -20.541685237705543 2.9916312949716044 #
loop $-1 $-1 $440 $432 #
plane-surface $-1 -45.168614764854887 0 0 1 0 0 0 0 -1 forward_v I I I I #
coedge $-1 $616 $435 $437 $620 reversed $279 $-1 #
coedge $-1 $435 $615 $794 $795 reversed $279 $-1 #
coedge $-1 $443 $438 $435 $618 forward $433 $-1 #
edge $-1 $621 $796 $617 $797 forward #
coedge $-1 $437 $436 $624 $798 reversed $189 $-1 #
edge $-1 $799 $621 $615 $800 forward #
vertex $-1 $439 $801 #
straight-curve $-1 -39.107238759504838 -6.2046521102747993 5.9916312949716053 0 1 0 I I #
coedge $-1 $794 $440 $443 $628 reversed $613 $-1 #
coedge $-1 $440 $794 $619 $798 forward $613 $-1 #
vertex $-1 $441 $802 #
straight-curve $-1 -45.168614764854887 -16.46019644782724 32.560696167478113 0 0 1 I I #
straight-curve $-1 -45.168614764854894 -16.46019644782724 0.13822839382875429 -0.71933979245794832 0 -0.69465837861970381 I I #
edge $-1 $796 $444 $623 $803 forward #
point $-1 -45.168614764854887 -16.46019644782724 5.9916312949716044 #
point $-1 -39.107238759504831 -16.46019644782724 5.9916312949716035 #
edge $-1 $804 $804 $447 $-1 forward #
vertex $-1 $448 $805 #
ellipse-curve $-1 -40.834692354450183 -14.145400889382874 1.7153911398601371 -0.69465837861970381 0 0.71933979245794832 0.35966989622897416 0 0.3473291893098519 1 I I #
point $-1 -41.778256865950887 -14.145400889382874 3.4122590337100349 #
edge $-1 $806 $806 $451 $-1 forward #
vertex $-1 $452 $807 #
ellipse-curve $-1 -40.834692354450183 -10.673207551716324 1.7153911398601371 -0.69465837861970381 0 0.71933979245794832 0.35966989622897416 0 0.3473291893098519 1 I I #
point $-1 -41.778256865950887 -10.673207551716324 3.4122590337100349 #
loop $-1 $-1 $463 $455 #
plane-surface $-1 -45.168614764854887 0 0 1 0 0 0 0 -1 forward_v I I I I #
coedge $-1 $642 $458 $460 $646 reversed $301 $-1 #
coedge $-1 $458 $641 $808 $809 reversed $301 $-1 #
coedge $-1 $466 $461 $458 $644 forward $456 $-1 #
edge $-1 $647 $810 $643 $811 forward #
coedge $-1 $460 $459 $650 $812 reversed $203 $-1 #
edge $-1 $813 $647 $641 $814 forward #
vertex $-1 $462 $815 #
straight-curve $-1 -39.107238759504838 -0.79326361970439052 5.9916312949716053 0 1 0 I I #
coedge $-1 $808 $463 $466 $654 reversed $639 $-1 #
coedge $-1 $463 $808 $645 $812 forward $639 $-1 #
vertex $-1 $464 $816 #
straight-curve $-1 -45.168614764854887 -5.6374194666864224 32.560696167478113 0 0 1 I I #
straight-curve $-1 -45.168614764854894 -5.6374194666864224 0.13822839382875429 -0.71933979245794832 0 -0.69465837861970381 I I #
edge $-1 $810 $467 $649 $817 forward #
point $-1 -45.168614764854887 -5.6374194666864224 5.9916312949716044 #
point $-1 -39.107238759504831 -5.6374194666864224 5.9916312949716035 #
edge $-1 $818 $818 $470 $-1 forward #
vertex $-1 $471 $819 #
ellipse-curve $-1 -40.834692354450183 -3.3226239082420541 1.7153911398601371 -0.69465837861970381 0 0.71933979245794832 0.35966989622897416 0 0.3473291893098519 1 I I #
point $-1 -41.778256865950887 -3.3226239082420541 3.4122590337100349 #
edge $-1 $820 $820 $474 $-1 forward #
vertex $-1 $475 $821 #
ellipse-curve $-1 -40.834692354450183 0.14956942942449558 1.7153911398601371 -0.69465837861970381 0 0.71933979245794832 0.35966989622897416 0 0.3473291893098519 1 I I #
point $-1 -41.778256865950887 0.14956942942449558 3.4122590337100349 #
loop $-1 $-1 $486 $478 #
plane-surface $-1 -45.168614764854887 0 0 1 0 0 0 0 -1 forward_v I I I I #
coedge $-1 $668 $481 $483 $672 reversed $323 $-1 #
coedge $-1 $481 $667 $822 $823 reversed $323 $-1 #
coedge $-1 $489 $484 $481 $670 forward $479 $-1 #
edge $-1 $673 $824 $669 $825 forward #
coedge $-1 $483 $482 $676 $826 reversed $217 $-1 #
edge $-1 $827 $673 $667 $828 forward #
vertex $-1 $485 $829 #
straight-curve $-1 -39.107238759504838 4.6181248708660192 5.9916312949716053 0 1 0 I I #
coedge $-1 $822 $486 $489 $680 reversed $665 $-1 #
coedge $-1 $486 $822 $671 $826 forward $665 $-1 #
vertex $-1 $487 $830 #
straight-curve $-1 -45.168614764854887 5.1853575144543971 32.560696167478113 0 0 1 I I #
straight-curve $-1 -45.168614764854894 5.1853575144543971 0.13822839382875429 -0.71933979245794832 0 -0.69465837861970381 I I #
edge $-1 $824 $490 $675 $831 forward #
point $-1 -45.168614764854887 5.1853575144543971 5.9916312949716044 #
point $-1 -39.107238759504831 5.1853575144543971 5.9916312949716035 #
edge $-1 $832 $832 $493 $-1 forward #
vertex $-1 $494 $833 #
ellipse-curve $-1 -40.834692354450183 7.5001530728987618 1.7153911398601371 -0.69465837861970381 0 0.71933979245794832 0.35966989622897416 0 0.3473291893098519 1 I I #
point $-1 -41.778256865950887 7.5001530728987618 3.4122590337100349 #
edge $-1 $834 $834 $497 $-1 forward #
vertex $-1 $498 $835 #
ellipse-curve $-1 -40.834692354450183 10.972346410565315 1.7153911398601371 -0.69465837861970381 0 0.71933979245794832 0.35966989622897416 0 0.3473291893098519 1 I I #
point $-1 -41.778256865950887 10.972346410565315 3.4122590337100349 #
loop $-1 $-1 $509 $501 #
plane-surface $-1 -45.168614764854887 0 0 1 0 0 0 0 -1 forward_v I I I I #
coedge $-1 $694 $504 $506 $698 reversed $345 $-1 #
coedge $-1 $504 $693 $836 $837 reversed $345 $-1 #
coedge $-1 $512 $507 $504 $696 forward $502 $-1 #
edge $-1 $699 $838 $695 $839 forward #
coedge $-1 $506 $505 $702 $840 reversed $231 $-1 #
edge $-1 $841 $699 $693 $842 forward #
vertex $-1 $508 $843 #
straight-curve $-1 -39.107238759504838 10.029513361436429 5.9916312949716053 0 1 0 I I #
coedge $-1 $836 $509 $512 $706 reversed $691 $-1 #
coedge $-1 $509 $836 $697 $840 forward $691 $-1 #
vertex $-1 $510 $844 #
straight-curve $-1 -45.168614764854887 16.008134495595215 32.560696167478113 0 0 1 I I #
straight-curve $-1 -45.168614764854894 16.008134495595215 0.13822839382875429 -0.71933979245794832 0 -0.69465837861970381 I I #
edge $-1 $838 $513 $701 $845 forward #
point $-1 -45.168614764854887 16.008134495595215 5.9916312949716044 #
point $-1 -39.107238759504831 16.008134495595215 5.9916312949716035 #
edge $-1 $846 $846 $516 $-1 forward #
vertex $-1 $517 $847 #
ellipse-curve $-1 -40.834692354450183 18.322930054039581 1.7153911398601371 -0.69465837861970381 0 0.71933979245794832 0.35966989622897416 0 0.3473291893098519 1 I I #
point $-1 -41.778256865950887 18.322930054039581 3.4122590337100349 #
edge $-1 $848 $848 $520 $-1 forward #
vertex $-1 $521 $849 #
ellipse-curve $-1 -40.834692354450183 21.795123391706134 1.7153911398601371 -0.69465837861970381 0 0.71933979245794832 0.35966989622897416 0 0.3473291893098519 1 I I #
point $-1 -41.778256865950887 21.795123391706134 3.4122590337100349 #
plane-surface $-1 0 0 5.9916312949716044 0 0 1 1 0 0 forward_v I I I I #
coedge $-1 $728 $727 $720 $850 forward $525 $-1 #
coedge $-1 $720 $527 $529 $724 reversed $367 $-1 #
coedge $-1 $527 $719 $718 $850 reversed $367 $-1 #
coedge $-1 $535 $530 $527 $722 forward $536 $-1 #
edge $-1 $725 $851 $721 $852 forward #
coedge $-1 $529 $528 $728 $853 reversed $245 $-1 #
edge $-1 $854 $725 $719 $855 forward #
vertex $-1 $531 $856 #
straight-curve $-1 39.948910780680627 -0.58359775670720637 5.9916312949716044 0 -1 0 I I #
coedge $-1 $718 $532 $535 $732 reversed $525 $-1 #
coedge $-1 $532 $718 $723 $853 forward $525 $-1 #
vertex $-1 $533 $857 #
straight-curve $-1 45.168614764854887 3.8248612511616287 64.40124406411033 0 0 1 I I #
straight-curve $-1 -20.899851762657896 3.8248612511616287 62.734021600707877 0.7313536940579346 0 -0.68199836817093118 I I #
edge $-1 $851 $537 $727 $858 forward #
point $-1 45.168614764854887 3.8248612511616287 5.9916312949716044 #
point $-1 39.948910780680635 3.8248612511616287 5.9916312949716044 #
edge $-1 $859 $859 $540 $-1 forward #
vertex $-1 $541 $860 #
ellipse-curve $-1 39.900390703982225 -1.1671955134144127 0.70714992286441225 0.68199836817093118 0 0.7313536940579346 0.7313536940579346 0 -0.68199836817093118 1 I I #
point $-1 43.290116466825701 -1.1671955134144127 2.875906517496349 #
loop $-1 $-1 $553 $544 #
plane-surface $-1 0 28.191407740028801 0 0 -1 0 0 0 -1 forward_v I I I I #
coedge $-1 $861 $547 $552 $747 forward $382 $-1 #
coedge $-1 $547 $861 $744 $862 reversed $382 $-1 #
edge $-1 $745 $752 $547 $863 forward #
coedge $-1 $556 $550 $742 $862 forward $545 $-1 #
vertex $-1 $862 $864 #
straight-curve $-1 20.354995680843512 18.207294210876718 5.9916312949716044 1 0 0 I I #
edge $-1 $752 $750 $741 $865 forward #
coedge $-1 $749 $553 $556 $754 reversed $739 $-1 #
coedge $-1 $553 $748 $861 $866 forward $739 $-1 #
vertex $-1 $554 $867 #
straight-curve $-1 0.33488724614722187 28.191407740028801 42.932306684650442 -0.7313536940579346 0 0.68199836817093118 I I #
vertex $-1 $747 $868 #
straight-curve $-1 -20.899851762657896 18.207294210876718 62.734021600707877 -0.7313536940579346 0 0.68199836817093118 I I #
edge $-1 $869 $557 $748 $870 forward #
point $-1 39.948910780680635 28.191407740028801 5.9916312949716044 #
point $-1 39.948910780680635 18.207294210876718 5.9916312949716044 #
edge $-1 $871 $871 $560 $-1 forward #
vertex $-1 $561 $872 #
ellipse-curve $-1 39.900390703982225 23.199350975452759 0.70714992286441225 0.68199836817093118 0 0.7313536940579346 0.7313536940579346 0 -0.68199836817093118 1 I I #
point $-1 43.290116466825701 23.199350975452759 2.875906517496349 #
plane-surface $-1 45.168614764854887 0 0 -1 0 0 0 0 1 forward_v I I I I #
coedge $-1 $569 $567 $571 $766 reversed $397 $-1 #
edge $-1 $582 $768 $581 $873 forward #
vertex $-1 $766 $874 #
straight-curve $-1 -45.168614764854887 -28.191407740028801 0 0 0 -1 I I #
edge $-1 $764 $768 $762 $875 forward #
straight-curve $-1 0 -28.191407740028801 -5.9916312949716044 -1 0 0 I I #
vertex $-1 $574 $876 #
straight-curve $-1 0 28.191407740028801 -5.9916312949716044 1 0 0 I I #
point $-1 45.168614764854887 28.191407740028801 -5.9916312949716044 #
point $-1 45.168614764854887 -28.191407740028801 -5.9916312949716044 #
straight-curve $-1 -45.168614764854887 0 5.9916312949716044 0 -1 0 I I #
point $-1 -45.168614764854887 28.191407740028801 5.9916312949716044 #
point $-1 -45.168614764854887 -28.191407740028801 5.9916312949716044 #
straight-curve $-1 45.168614764854887 -28.191407740028801 0 0 0 -1 I I #
straight-curve $-1 45.168614764854887 28.191407740028801 0 0 0 -1 I I #
plane-surface $-1 45.168614764854887 0 0 -1 0 0 0 0 1 forward_v I I I I #
coedge $-1 $595 $594 $605 $789 reversed $271 $-1 #
coedge $-1 $877 $598 $595 $780 forward $592 $-1 #
edge $-1 $781 $878 $595 $879 forward #
vertex $-1 $780 $880 #
straight-curve $-1 -45.168614764854887 -20.541685237705543 2.2458156474858022 0 0 -1 I I #
coedge $-1 $598 $877 $600 $785 forward $592 $-1 #
straight-curve $-1 0 -20.541685237705543 5.9916312949716044 -1 0 0 I I #
edge $-1 $792 $601 $600 $881 forward #
point $-1 45.168614764854887 -20.541685237705543 5.9916312949716044 #
straight-curve $-1 -45.168614764854887 -12.183273244433586 2.9916312949716044 0 -1 0 I I #
coedge $-1 $605 $604 $877 $882 reversed $416 $-1 #
edge $-1 $878 $606 $778 $883 forward #
point $-1 -45.168614764854887 -28.191407740028801 2.9916312949716044 #
point $-1 -45.168614764854887 -20.541685237705543 2.9916312949716044 #
vertex $-1 $785 $884 #
straight-curve $-1 45.168614764854887 -28.191407740028801 0 0 0 -1 I I #
coedge $-1 $624 $623 $616 $795 forward $613 $-1 #
edge $-1 $796 $799 $794 $885 forward #
vertex $-1 $628 $886 #
straight-curve $-1 -53.961064079479556 -8.3584119932719574 5.9916312949716044 -1 0 0 I I #
edge $-1 $799 $625 $624 $887 forward #
vertex $-1 $798 $888 #
straight-curve $-1 -45.168614764854894 -8.3584119932719574 0.13822839382875429 0.71933979245794832 0 0.69465837861970381 I I #
point $-1 -39.107238759504831 -8.3584119932719574 5.9916312949716035 #
point $-1 -45.168614764854887 -16.46019644782724 0.13822839382876115 #
straight-curve $-1 -45.168614764854887 0 5.9916312949716044 0 -1 0 I I #
vertex $-1 $631 $889 #
point $-1 -40.475022458221211 -14.145400889382874 2.0627203291699892 #
vertex $-1 $635 $890 #
point $-1 -40.475022458221211 -10.673207551716324 2.0627203291699892 #
coedge $-1 $650 $649 $642 $809 forward $639 $-1 #
edge $-1 $810 $813 $808 $891 forward #
vertex $-1 $654 $892 #
straight-curve $-1 -53.961064079479556 2.4643649878688603 5.9916312949716044 -1 0 0 I I #
edge $-1 $813 $651 $650 $893 forward #
vertex $-1 $812 $894 #
straight-curve $-1 -45.168614764854894 2.4643649878688603 0.13822839382875429 0.71933979245794832 0 0.69465837861970381 I I #
point $-1 -39.107238759504831 2.4643649878688603 5.9916312949716035 #
point $-1 -45.168614764854887 -5.6374194666864224 0.13822839382876115 #
straight-curve $-1 -45.168614764854887 0 5.9916312949716044 0 -1 0 I I #
vertex $-1 $657 $895 #
point $-1 -40.475022458221211 -3.3226239082420541 2.0627203291699892 #
vertex $-1 $661 $896 #
point $-1 -40.475022458221211 0.14956942942449558 2.0627203291699892 #
coedge $-1 $676 $675 $668 $823 forward $665 $-1 #
edge $-1 $824 $827 $822 $897 forward #
vertex $-1 $680 $898 #
straight-curve $-1 -53.961064079479556 13.28714196900968 5.9916312949716044 -1 0 0 I I #
edge $-1 $827 $677 $676 $899 forward #
vertex $-1 $826 $900 #
straight-curve $-1 -45.168614764854894 13.28714196900968 0.13822839382875429 0.71933979245794832 0 0.69465837861970381 I I #
point $-1 -39.107238759504831 13.28714196900968 5.9916312949716035 #
point $-1 -45.168614764854887 5.1853575144543971 0.13822839382876115 #
straight-curve $-1 -45.168614764854887 0 5.9916312949716044 0 -1 0 I I #
vertex $-1 $683 $901 #
point $-1 -40.475022458221211 7.5001530728987618 2.0627203291699892 #
vertex $-1 $687 $902 #
point $-1 -40.475022458221211 10.972346410565315 2.0627203291699892 #
coedge $-1 $702 $701 $694 $837 forward $691 $-1 #
edge $-1 $838 $841 $836 $903 forward #
vertex $-1 $706 $904 #
straight-curve $-1 -53.961064079479556 24.109918950150501 5.9916312949716044 -1 0 0 I I #
edge $-1 $841 $703 $702 $905 forward #
vertex $-1 $840 $906 #
straight-curve $-1 -45.168614764854894 24.109918950150501 0.13822839382875429 0.71933979245794832 0 0.69465837861970381 I I #
point $-1 -39.107238759504831 24.109918950150501 5.9916312949716035 #
point $-1 -45.168614764854887 16.008134495595215 0.13822839382876115 #
straight-curve $-1 -45.168614764854887 0 5.9916312949716044 0 -1 0 I I #
vertex $-1 $709 $907 #
point $-1 -40.475022458221211 18.322930054039581 2.0627203291699892 #
vertex $-1 $713 $908 #
point $-1 -40.475022458221211 21.795123391706134 2.0627203291699892 #
edge $-1 $851 $854 $718 $909 forward #
vertex $-1 $732 $910 #
straight-curve $-1 20.354995680843512 -6.1592522779904542 5.9916312949716044 1 0 0 I I #
edge $-1 $854 $729 $728 $911 forward #
vertex $-1 $853 $912 #
straight-curve $-1 -20.899851762657896 -6.1592522779904542 62.734021600707877 -0.7313536940579346 0 0.68199836817093118 I I #
point $-1 39.948910780680635 -6.1592522779904542 5.9916312949716044 #
point $-1 45.168614764854887 3.8248612511616287 1.1241784763629425 #
straight-curve $-1 45.168614764854887 0 5.9916312949716044 0 1 0 I I #
vertex $-1 $735 $913 #
point $-1 40.631744398040155 -1.1671955134144127 0.025151554693481126 #
coedge $-1 $742 $741 $749 $866 reversed $382 $-1 #
edge $-1 $745 $869 $742 $914 forward #
straight-curve $-1 45.168614764854887 18.207294210876718 64.40124406411033 0 0 -1 I I #
point $-1 45.168614764854887 18.207294210876718 5.9916312949716044 #
straight-curve $-1 45.16861476485488 11.59967548772638 1.1241784763629532 0 1 0 I I #
edge $-1 $869 $750 $861 $915 forward #
point $-1 45.168614764854887 28.191407740028801 1.1241784763629425 #
point $-1 45.168614764854887 18.207294210876718 1.1241784763629425 #
vertex $-1 $862 $916 #
straight-curve $-1 0 28.191407740028801 5.9916312949716044 -1 0 0 I I #
vertex $-1 $757 $917 #
point $-1 40.631744398040155 23.199350975452759 0.025151554693481126 #
straight-curve $-1 -45.168614764854887 28.191407740028801 0 0 0 -1 I I #
point $-1 -45.168614764854887 -28.191407740028801 -5.9916312949716044 #
straight-curve $-1 -45.168614764854887 0 -5.9916312949716044 0 1 0 I I #
point $-1 -45.168614764854887 28.191407740028801 -5.9916312949716044 #
coedge $-1 $783 $779 $788 $882 forward $592 $-1 #
vertex $-1 $780 $918 #
straight-curve $-1 -45.168614764854887 0 5.9916312949716044 0 -1 0 I I #
point $-1 -45.168614764854887 -20.541685237705543 5.9916312949716044 #
straight-curve $-1 45.168614764854887 0 5.9916312949716044 0 1 0 I I #
edge $-1 $878 $792 $788 $919 forward #
straight-curve $-1 -45.168614764854887 -28.191407740028801 0 0 0 -1 I I #
point $-1 45.168614764854887 -28.191407740028801 5.9916312949716044 #
straight-curve $-1 -45.168614764854887 -8.3584119932719574 32.560696167478113 0 0 -1 I I #
point $-1 -45.168614764854887 -8.3584119932719574 5.9916312949716044 #
straight-curve $-1 -45.168614764854887 -6.2046521102747993 0.13822839382876703 0 -1 0 I I #
point $-1 -45.168614764854887 -8.3584119932719574 0.13822839382876115 #
point $-1 -40.487363165140337 -14.145400889382874 1.3557212436311632 #
point $-1 -40.487363165140337 -10.673207551716324 1.3557212436311632 #
straight-curve $-1 -45.168614764854887 2.4643649878688603 32.560696167478113 0 0 -1 I I #
point $-1 -45.168614764854887 2.4643649878688603 5.9916312949716044 #
straight-curve $-1 -45.168614764854887 -0.79326361970439052 0.13822839382876703 0 -1 0 I I #
point $-1 -45.168614764854887 2.4643649878688603 0.13822839382876115 #
point $-1 -40.487363165140337 -3.3226239082420541 1.3557212436311632 #
point $-1 -40.487363165140337 0.14956942942449558 1.3557212436311632 #
straight-curve $-1 -45.168614764854887 13.28714196900968 32.560696167478113 0 0 -1 I I #
point $-1 -45.168614764854887 13.28714196900968 5.9916312949716044 #
straight-curve $-1 -45.168614764854887 4.6181248708660192 0.13822839382876703 0 -1 0 I I #
point $-1 -45.168614764854887 13.28714196900968 0.13822839382876115 #
point $-1 -40.487363165140337 7.5001530728987618 1.3557212436311632 #
point $-1 -40.487363165140337 10.972346410565315 1.3557212436311632 #
straight-curve $-1 -45.168614764854887 24.109918950150501 32.560696167478113 0 0 -1 I I #
point $-1 -45.168614764854887 24.109918950150501 5.9916312949716044 #
straight-curve $-1 -45.168614764854887 10.029513361436429 0.13822839382876703 0 -1 0 I I #
point $-1 -45.168614764854887 24.109918950150501 0.13822839382876115 #
point $-1 -40.487363165140337 18.322930054039581 1.3557212436311632 #
point $-1 -40.487363165140337 21.795123391706134 1.3557212436311632 #
straight-curve $-1 45.168614764854887 -6.1592522779904542 64.40124406411033 0 0 -1 I I #
point $-1 45.168614764854887 -6.1592522779904542 5.9916312949716044 #
straight-curve $-1 45.16861476485488 -0.58359775670720637 1.1241784763629532 0 1 0 I I #
point $-1 45.168614764854887 -6.1592522779904542 1.1241784763629425 #
point $-1 39.218392335811288 -1.1671955134144127 -0.024203771193521961 #
straight-curve $-1 45.168614764854887 0 5.9916312949716044 0 1 0 I I #
straight-curve $-1 45.168614764854887 28.191407740028801 0 0 0 -1 I I #
point $-1 45.168614764854887 28.191407740028801 5.9916312949716044 #
point $-1 39.218392335811288 23.199350975452759 -0.024203771193521961 #
point $-1 -45.168614764854887 -28.191407740028801 5.9916312949716044 #
straight-curve $-1 0 -28.191407740028801 5.9916312949716044 1 0 0 I I #
End-of-ACIS-data 