300 0 5 0           
7 Unknown 11 ACIS 3.0 NT 24 Fri Oct 30 14:21:42 1998 
-1 9.9999999999999995e-007 1e-010 
body $5 $6 $-1 $7 #
body $8 $9 $-1 $10 #
body $11 $12 $-1 $13 #
body $14 $15 $-1 $16 #
body $17 $18 $-1 $19 #
display_attribute-st-attrib $-1 $20 $-1 $0 1 #
lump $-1 $-1 $21 $0 #
transform $-1 1 0 0 0 1 0 0 0 1 77.115390484328742 52.289115796986735 18.952989269973809 1 rotate no_reflect no_shear #
display_attribute-st-attrib $-1 $22 $-1 $1 1 #
lump $-1 $-1 $23 $1 #
transform $-1 1 0 0 0 1 0 0 0 1 77.115390484328742 52.289115796986735 18.952989269973809 1 rotate no_reflect no_shear #
display_attribute-st-attrib $-1 $24 $-1 $2 1 #
lump $-1 $-1 $25 $2 #
transform $-1 1 0 0 0 1 0 0 0 1 77.115390484328742 52.289115796986735 18.952989269973809 1 rotate no_reflect no_shear #
display_attribute-st-attrib $-1 $26 $-1 $3 1 #
lump $-1 $-1 $27 $3 #
transform $-1 1 0 0 0 1 0 0 0 1 77.115390484328742 52.289115796986735 18.952989269973809 1 rotate no_reflect no_shear #
display_attribute-st-attrib $-1 $28 $-1 $4 1 #
lump $-1 $-1 $29 $4 #
transform $-1 1 0 0 0 1 0 0 0 1 77.115390484328742 52.289115796986735 18.952989269973809 1 rotate no_reflect no_shear #
id_attribute-st-attrib $-1 $-1 $5 $0 1513 #
shell $-1 $-1 $-1 $30 $-1 $6 #
id_attribute-st-attrib $-1 $-1 $8 $1 1518 #
shell $-1 $-1 $-1 $31 $-1 $9 #
id_attribute-st-attrib $-1 $-1 $11 $2 1531 #
shell $-1 $-1 $-1 $32 $-1 $12 #
id_attribute-st-attrib $-1 $-1 $14 $3 1538 #
shell $-1 $-1 $-1 $33 $-1 $15 #
id_attribute-st-attrib $-1 $-1 $17 $4 1546 #
shell $-1 $-1 $-1 $34 $-1 $18 #
face $-1 $35 $36 $21 $-1 $37 forward single #
face $-1 $38 $39 $23 $-1 $40 reversed single #
face $-1 $41 $42 $25 $-1 $43 forward single #
face $-1 $44 $45 $27 $-1 $46 reversed single #
face $-1 $47 $48 $29 $-1 $49 reversed single #
face $-1 $50 $51 $21 $-1 $52 reversed single #
loop $-1 $-1 $53 $30 #
plane-surface $-1 0 0 18.952989269973809 0 0 1 1 0 0 forward_v I I I I #
face $-1 $54 $55 $23 $-1 $56 reversed single #
loop $-1 $-1 $57 $31 #
plane-surface $-1 -42.309206396015895 -67.221089023763639 0 0 1 0 0 0 1 forward_v I I I I #
face $-1 $58 $59 $25 $-1 $60 forward single #
loop $-1 $-1 $61 $32 #
plane-surface $-1 -57.407156499103792 64.834296681146782 198.57188391664684 -1 0 0 0 0.61566148304635926 0.78801074757464917 forward_v I I I I #
face $-1 $62 $63 $27 $-1 $64 reversed single #
loop $-1 $65 $66 $33 #
cone-surface $-1 -71.484466488550183 46.457735308377337 13.500101059972701 0 -0.61566148304635926 -0.78801074757464917 1.5 0 0 1 I I 0 1 forward I I I I #
face $-1 $67 $68 $29 $-1 $69 reversed single #
loop $-1 $70 $71 $34 #
cone-surface $-1 -63.038080494882351 46.457735308377337 13.500101059972701 0 -0.61566148304635926 -0.78801074757464917 1.5 0 0 1 I I 0 1 forward I I I I #
face $-1 $72 $73 $21 $-1 $74 reversed single #
loop $-1 $-1 $75 $35 #
plane-surface $-1 0 0 -18.952989269973809 0 0 1 1 0 0 forward_v I I I I #
coedge $-1 $76 $77 $78 $79 forward $36 $-1 #
face $-1 $80 $81 $23 $-1 $82 reversed single #
loop $-1 $-1 $83 $38 #
plane-surface $-1 -45.409000847650674 -59.755102410375187 0 1 0 0 0 0 -1 forward_v I I I I #
coedge $-1 $84 $85 $86 $87 forward $39 $-1 #
face $-1 $88 $89 $25 $-1 $90 reversed single #
loop $-1 $-1 $91 $41 #
plane-surface $-1 -67.261273491716267 -30.119654661415083 77.036370906513085 0 0.61566148304635926 0.78801074757464917 1 0 0 forward_v I I I I #
coedge $-1 $92 $93 $94 $95 reversed $42 $-1 #
face $-1 $96 $97 $27 $-1 $98 forward single #
loop $-1 $99 $100 $44 #
cone-surface $-1 -71.484466488550183 44.197325539794591 10.606908549776637 0 -0.61566148304635926 -0.78801074757464917 0.75 0 0 1 I I -0.70710678118654757 0.70710678118654757 forward I I I I #
loop $-1 $-1 $101 $33 #
coedge $-1 $66 $66 $102 $103 reversed $45 $-1 #
face $-1 $104 $105 $29 $-1 $106 reversed single #
loop $-1 $107 $108 $47 #
cone-surface $-1 -63.038080494882351 44.197325539794591 10.606908549776637 0 -0.61566148304635926 -0.78801074757464917 0.75 0 0 1 I I -0.70710678118654757 0.70710678118654757 forward I I I I #
loop $-1 $-1 $109 $34 #
coedge $-1 $71 $71 $110 $111 reversed $48 $-1 #
face $-1 $112 $113 $21 $-1 $114 reversed single #
loop $-1 $-1 $115 $50 #
plane-surface $-1 0 -52.289115796986735 0 0 1 0 0 0 1 forward_v I I I I #
coedge $-1 $116 $117 $118 $119 forward $51 $-1 #
coedge $-1 $120 $53 $121 $122 forward $36 $-1 #
coedge $-1 $53 $120 $123 $124 forward $36 $-1 #
coedge $-1 $125 $126 $53 $79 reversed $127 $-1 #
edge $-1 $128 $129 $78 $130 forward #
face $-1 $131 $132 $23 $-1 $133 reversed single #
loop $-1 $-1 $134 $54 #
plane-surface $-1 -39.209411944381117 -59.755102410375187 0 -1 0 0 0 0 1 forward_v I I I I #
coedge $-1 $135 $136 $137 $138 reversed $55 $-1 #
coedge $-1 $139 $57 $140 $141 reversed $39 $-1 #
coedge $-1 $57 $139 $142 $143 reversed $39 $-1 #
coedge $-1 $136 $135 $57 $87 reversed $55 $-1 #
edge $-1 $144 $145 $86 $146 forward #
face $-1 $147 $148 $25 $-1 $149 forward single #
loop $-1 $-1 $150 $58 #
plane-surface $-1 0 52.289115796986735 0 0 -1 0 0 0 -1 forward_v I I I I #
coedge $-1 $151 $152 $150 $153 reversed $59 $-1 #
coedge $-1 $93 $61 $152 $154 forward $42 $-1 #
coedge $-1 $61 $92 $155 $156 reversed $42 $-1 #
coedge $-1 $157 $150 $61 $95 forward $89 $-1 #
edge $-1 $158 $159 $94 $160 forward #
face $-1 $161 $162 $27 $-1 $163 forward single #
loop $-1 $-1 $164 $62 #
plane-surface $-1 -57.407156499103792 64.834296681146782 198.57188391664684 -1 0 0 0 0.61566148304635926 0.78801074757464917 forward_v I I I I #
loop $-1 $-1 $165 $44 #
coedge $-1 $100 $100 $101 $166 forward $63 $-1 #
coedge $-1 $101 $101 $100 $166 reversed $65 $-1 #
coedge $-1 $102 $102 $66 $103 forward $162 $-1 #
edge $-1 $167 $167 $102 $168 forward #
face $-1 $169 $170 $29 $-1 $171 reversed single #
loop $-1 $172 $173 $67 #
cone-surface $-1 -71.484466488550183 46.457735308377337 13.500101059972701 0 -0.61566148304635926 -0.78801074757464917 1.5 0 0 1 I I 0 1 forward I I I I #
loop $-1 $-1 $174 $47 #
coedge $-1 $108 $108 $109 $175 forward $68 $-1 #
coedge $-1 $109 $109 $108 $175 reversed $70 $-1 #
coedge $-1 $110 $110 $71 $111 forward $176 $-1 #
edge $-1 $177 $177 $110 $178 forward #
face $-1 $179 $180 $21 $-1 $181 reversed single #
loop $-1 $-1 $182 $72 #
plane-surface $-1 -77.115390484328742 0 0 1 0 0 0 0 -1 forward_v I I I I #
coedge $-1 $183 $123 $184 $185 forward $73 $-1 #
coedge $-1 $186 $75 $183 $187 forward $51 $-1 #
coedge $-1 $75 $186 $188 $189 forward $51 $-1 #
coedge $-1 $126 $125 $75 $119 reversed $127 $-1 #
edge $-1 $190 $191 $118 $192 forward #
coedge $-1 $77 $76 $193 $194 forward $36 $-1 #
coedge $-1 $195 $196 $76 $122 reversed $180 $-1 #
edge $-1 $129 $197 $121 $198 forward #
coedge $-1 $115 $199 $77 $124 reversed $73 $-1 #
edge $-1 $200 $128 $123 $201 forward #
coedge $-1 $118 $78 $199 $202 forward $127 $-1 #
coedge $-1 $78 $118 $195 $203 reversed $127 $-1 #
loop $-1 $-1 $125 $179 #
vertex $-1 $79 $204 #
vertex $-1 $79 $205 #
straight-curve $-1 77.115390484328742 0 18.952989269973809 0 1 0 I I #
face $-1 $206 $207 $23 $-1 $133 reversed single #
loop $-1 $-1 $137 $80 #
plane-surface $-1 0 -52.289115796986735 0 0 1 0 0 0 1 forward_v I I I I #
coedge $-1 $208 $209 $139 $210 forward $81 $-1 #
coedge $-1 $86 $83 $211 $212 reversed $55 $-1 #
coedge $-1 $83 $86 $213 $214 reversed $55 $-1 #
coedge $-1 $215 $216 $83 $138 forward $132 $-1 #
edge $-1 $217 $218 $137 $219 forward #
coedge $-1 $85 $84 $134 $210 reversed $39 $-1 #
coedge $-1 $211 $220 $84 $141 forward $221 $-1 #
edge $-1 $222 $145 $84 $223 forward #
coedge $-1 $224 $213 $85 $143 forward $225 $-1 #
edge $-1 $144 $226 $85 $227 forward #
vertex $-1 $214 $228 #
vertex $-1 $212 $229 #
straight-curve $-1 -45.409000847650674 -67.221089023763639 0 0 0 -1 I I #
face $-1 $230 $231 $25 $-1 $232 reversed single #
loop $-1 $-1 $155 $88 #
plane-surface $-1 0 0 18.952989269973809 0 0 1 1 0 0 forward_v I I I I #
coedge $-1 $94 $233 $91 $153 forward $89 $-1 #
coedge $-1 $234 $91 $235 $236 reversed $59 $-1 #
coedge $-1 $91 $234 $92 $154 reversed $59 $-1 #
edge $-1 $237 $158 $150 $238 forward #
edge $-1 $158 $239 $92 $240 forward #
coedge $-1 $241 $242 $93 $156 forward $148 $-1 #
edge $-1 $159 $239 $155 $243 forward #
coedge $-1 $244 $94 $242 $245 reversed $89 $-1 #
vertex $-1 $153 $246 #
vertex $-1 $156 $247 #
straight-curve $-1 -57.407156499103792 52.289115796986735 99.28594195832342 0 0 1 I I #
face $-1 $248 $249 $27 $-1 $250 reversed single #
loop $-1 $251 $102 $96 #
plane-surface $-1 -67.261273491716267 -30.119654661415083 77.036370906513085 0 0.61566148304635926 0.78801074757464917 1 0 0 forward_v I I I I #
coedge $-1 $252 $253 $254 $255 reversed $97 $-1 #
coedge $-1 $165 $165 $-1 $256 forward $99 $-1 #
edge $-1 $257 $257 $100 $258 forward #
vertex $-1 $103 $259 #
ellipse-curve $-1 -71.484466488550183 48.256398964675327 15.802285509487801 0 -0.61566148304635926 -0.78801074757464917 1.5 0 0 1 I I #
face $-1 $260 $261 $29 $-1 $262 forward single #
loop $-1 $263 $264 $104 #
cone-surface $-1 -71.484466488550183 44.197325539794591 10.606908549776637 0 -0.61566148304635926 -0.78801074757464917 0.75 0 0 1 I I -0.70710678118654757 0.70710678118654757 forward I I I I #
loop $-1 $-1 $265 $67 #
coedge $-1 $173 $173 $266 $267 reversed $105 $-1 #
coedge $-1 $174 $174 $-1 $268 forward $107 $-1 #
edge $-1 $269 $269 $108 $270 forward #
loop $-1 $271 $110 $260 #
vertex $-1 $111 $272 #
ellipse-curve $-1 -63.038080494882351 48.256398964675327 15.802285509487801 0 -0.61566148304635926 -0.78801074757464917 1.5 0 0 1 I I #
face $-1 $-1 $127 $21 $-1 $273 reversed single #
loop $-1 $-1 $195 $112 #
plane-surface $-1 0 52.289115796986735 0 0 -1 0 0 0 -1 forward_v I I I I #
coedge $-1 $274 $193 $196 $275 forward $113 $-1 #
coedge $-1 $199 $115 $116 $187 reversed $73 $-1 #
coedge $-1 $193 $274 $115 $185 reversed $113 $-1 #
edge $-1 $200 $276 $184 $277 forward #
coedge $-1 $117 $116 $274 $278 forward $51 $-1 #
edge $-1 $191 $276 $183 $279 forward #
coedge $-1 $196 $195 $117 $189 reversed $180 $-1 #
edge $-1 $280 $190 $188 $281 forward #
vertex $-1 $119 $282 #
vertex $-1 $202 $283 #
straight-curve $-1 77.115390484328742 0 -18.952989269973809 0 -1 0 I I #
coedge $-1 $182 $184 $120 $194 reversed $113 $-1 #
edge $-1 $197 $200 $193 $284 forward #
coedge $-1 $188 $121 $126 $203 forward $180 $-1 #
coedge $-1 $121 $188 $182 $275 reversed $180 $-1 #
vertex $-1 $122 $285 #
straight-curve $-1 0 52.289115796986735 18.952989269973809 -1 0 0 I I #
coedge $-1 $123 $183 $125 $202 reversed $73 $-1 #
vertex $-1 $194 $286 #
straight-curve $-1 0 -52.289115796986735 18.952989269973809 1 0 0 I I #
edge $-1 $128 $191 $125 $287 forward #
edge $-1 $129 $190 $126 $288 forward #
point $-1 77.115390484328742 -52.289115796986735 18.952989269973809 #
point $-1 77.115390484328742 52.289115796986735 18.952989269973809 #
face $-1 $289 $225 $23 $-1 $290 forward single #
loop $-1 $-1 $291 $131 #
coedge $-1 $292 $134 $220 $293 reversed $81 $-1 #
coedge $-1 $134 $292 $224 $294 reversed $81 $-1 #
edge $-1 $226 $222 $134 $295 forward #
coedge $-1 $296 $140 $135 $212 forward $221 $-1 #
edge $-1 $145 $217 $135 $297 forward #
coedge $-1 $142 $298 $136 $214 forward $225 $-1 #
edge $-1 $218 $144 $136 $299 forward #
coedge $-1 $300 $137 $298 $301 reversed $132 $-1 #
coedge $-1 $137 $300 $296 $302 reversed $132 $-1 #
vertex $-1 $302 $303 #
vertex $-1 $214 $304 #
straight-curve $-1 -45.409000847650674 -52.289115796986735 0 0 0 1 I I #
coedge $-1 $140 $305 $208 $293 forward $221 $-1 #
loop $-1 $-1 $306 $289 #
vertex $-1 $210 $307 #
straight-curve $-1 -42.309206396015895 -67.221089023763639 -18.952989269973809 -1 0 0 I I #
coedge $-1 $308 $142 $209 $294 forward $225 $-1 #
loop $-1 $-1 $309 $206 #
vertex $-1 $294 $310 #
straight-curve $-1 -42.309206396015895 -67.221089023763639 18.952989269973809 1 0 0 I I #
point $-1 -45.409000847650674 -67.221089023763639 18.952989269973809 #
point $-1 -45.409000847650674 -67.221089023763639 -18.952989269973809 #
face $-1 $311 $312 $25 $-1 $313 reversed single #
loop $-1 $-1 $314 $147 #
plane-surface $-1 -42.309206396015895 -67.221089023763639 0 0 1 0 0 0 1 forward_v I I I I #
coedge $-1 $150 $315 $316 $317 reversed $89 $-1 #
coedge $-1 $152 $151 $241 $318 reversed $59 $-1 #
coedge $-1 $316 $319 $151 $236 forward $320 $-1 #
edge $-1 $321 $237 $235 $322 forward #
vertex $-1 $317 $323 #
straight-curve $-1 -33.630636745858133 52.289115796986735 12.65158174900176 1 0 0 I I #
vertex $-1 $318 $324 #
straight-curve $-1 -57.407156499103792 -30.119654661415083 77.036370906513085 0 -0.78801074757464917 0.61566148304635926 I I #
coedge $-1 $325 $155 $234 $318 forward $148 $-1 #
coedge $-1 $155 $326 $157 $245 forward $148 $-1 #
straight-curve $-1 -57.407156499103792 32.417148340573391 18.952989269973813 0 -1 0 I I #
coedge $-1 $315 $157 $327 $328 forward $89 $-1 #
edge $-1 $329 $159 $157 $330 forward #
point $-1 -57.407156499103792 52.289115796986735 12.651581749001764 #
point $-1 -57.407156499103792 52.289115796986735 18.952989269973809 #
face $-1 $331 $332 $27 $-1 $333 forward single #
loop $-1 $-1 $334 $161 #
plane-surface $-1 0 52.289115796986735 0 0 -1 0 0 0 -1 forward_v I I I I #
loop $-1 $-1 $335 $96 #
coedge $-1 $253 $164 $336 $337 forward $97 $-1 #
coedge $-1 $164 $252 $338 $339 reversed $97 $-1 #
coedge $-1 $340 $334 $164 $255 forward $249 $-1 #
edge $-1 $341 $342 $254 $343 forward #
edge $-1 $344 $344 $165 $-1 forward #
vertex $-1 $166 $345 #
ellipse-curve $-1 -71.484466488550183 44.659071652079362 11.197916610457625 0 0.61566148304635926 0.78801074757464917 1.5 0 0 1 I I #
point $-1 -69.984466488550183 48.256398964675306 15.802285509487778 #
face $-1 $346 $176 $29 $-1 $347 forward single #
loop $-1 $-1 $348 $169 #
plane-surface $-1 -57.407156499103792 64.834296681146782 198.57188391664684 -1 0 0 0 0.61566148304635926 0.78801074757464917 forward_v I I I I #
loop $-1 $-1 $349 $104 #
coedge $-1 $264 $264 $265 $350 forward $170 $-1 #
coedge $-1 $265 $265 $264 $350 reversed $172 $-1 #
coedge $-1 $266 $266 $173 $267 forward $271 $-1 #
edge $-1 $351 $351 $266 $352 forward #
edge $-1 $353 $353 $174 $-1 forward #
vertex $-1 $175 $354 #
ellipse-curve $-1 -63.038080494882351 44.659071652079362 11.197916610457625 0 0.61566148304635926 0.78801074757464917 1.5 0 0 1 I I #
loop $-1 $355 $266 $260 #
point $-1 -61.538080494882351 48.256398964675306 15.802285509487778 #
plane-surface $-1 77.115390484328742 0 0 -1 0 0 0 0 1 forward_v I I I I #
coedge $-1 $184 $182 $186 $278 reversed $113 $-1 #
edge $-1 $197 $280 $196 $356 forward #
vertex $-1 $278 $357 #
straight-curve $-1 -77.115390484328742 -52.289115796986735 0 0 0 -1 I I #
edge $-1 $276 $280 $274 $358 forward #
straight-curve $-1 0 -52.289115796986735 -18.952989269973809 -1 0 0 I I #
vertex $-1 $189 $359 #
straight-curve $-1 0 52.289115796986735 -18.952989269973809 1 0 0 I I #
point $-1 77.115390484328742 52.289115796986735 -18.952989269973809 #
point $-1 77.115390484328742 -52.289115796986735 -18.952989269973809 #
straight-curve $-1 -77.115390484328742 0 18.952989269973809 0 -1 0 I I #
point $-1 -77.115390484328742 52.289115796986735 18.952989269973809 #
point $-1 -77.115390484328742 -52.289115796986735 18.952989269973809 #
straight-curve $-1 77.115390484328742 -52.289115796986735 0 0 0 -1 I I #
straight-curve $-1 77.115390484328742 52.289115796986735 0 0 0 -1 I I #
face $-1 $360 $221 $23 $-1 $361 reversed single #
plane-surface $-1 0 0 18.952989269973809 0 0 1 1 0 0 forward_v I I I I #
coedge $-1 $362 $363 $292 $364 forward $207 $-1 #
coedge $-1 $209 $208 $291 $364 reversed $81 $-1 #
edge $-1 $365 $222 $208 $366 forward #
edge $-1 $226 $367 $209 $368 forward #
straight-curve $-1 -39.209411944381117 -67.221089023763639 0 0 0 -1 I I #
coedge $-1 $369 $211 $216 $302 forward $221 $-1 #
straight-curve $-1 -45.409000847650674 -59.755102410375187 -18.952989269973809 0 1 0 I I #
coedge $-1 $213 $370 $215 $301 forward $225 $-1 #
straight-curve $-1 -45.409000847650674 -59.755102410375187 18.952989269973809 0 -1 0 I I #
coedge $-1 $216 $215 $371 $372 forward $132 $-1 #
edge $-1 $373 $218 $215 $374 forward #
edge $-1 $217 $375 $216 $376 forward #
point $-1 -45.409000847650674 -52.289115796986735 -18.952989269973809 #
point $-1 -45.409000847650674 -52.289115796986735 18.952989269973809 #
coedge $-1 $220 $306 $362 $377 forward $221 $-1 #
coedge $-1 $305 $378 $379 $380 forward $221 $-1 #
point $-1 -39.209411944381117 -67.221089023763639 -18.952989269973809 #
coedge $-1 $309 $224 $363 $381 forward $225 $-1 #
coedge $-1 $382 $308 $383 $384 forward $225 $-1 #
point $-1 -39.209411944381117 -67.221089023763639 18.952989269973809 #
face $-1 $385 $386 $25 $-1 $387 reversed single #
loop $-1 $-1 $388 $230 #
plane-surface $-1 -45.409000847650674 -59.755102410375187 0 1 0 0 0 0 -1 forward_v I I I I #
coedge $-1 $389 $390 $391 $392 forward $231 $-1 #
coedge $-1 $233 $244 $393 $394 reversed $89 $-1 #
coedge $-1 $395 $235 $233 $317 forward $320 $-1 #
edge $-1 $237 $396 $233 $397 forward #
edge $-1 $239 $321 $241 $398 forward #
coedge $-1 $235 $399 $325 $400 reversed $320 $-1 #
loop $-1 $-1 $235 $401 #
vertex $-1 $400 $402 #
straight-curve $-1 -77.115390484328742 -2.0810746957065476 55.13023094924457 0 0.78801074757464917 -0.61566148304635926 I I #
point $-1 -77.115390484328742 52.289115796986735 12.651581749001767 #
point $-1 -57.407156499103792 44.223682132363933 18.952989269973813 #
coedge $-1 $403 $241 $319 $400 forward $148 $-1 #
coedge $-1 $242 $404 $405 $406 forward $148 $-1 #
coedge $-1 $405 $407 $244 $328 reversed $408 $-1 #
edge $-1 $329 $409 $327 $410 forward #
vertex $-1 $406 $411 #
straight-curve $-1 0 52.289115796986735 18.952989269973809 -1 0 0 I I #
face $-1 $412 $413 $27 $-1 $414 reversed single #
loop $-1 $-1 $338 $248 #
plane-surface $-1 0 0 18.952989269973809 0 0 1 1 0 0 forward_v I I I I #
coedge $-1 $254 $415 $335 $416 forward $249 $-1 #
coedge $-1 $417 $336 $334 $416 reversed $251 $-1 #
coedge $-1 $335 $418 $252 $337 reversed $251 $-1 #
edge $-1 $341 $419 $252 $420 forward #
coedge $-1 $421 $422 $253 $339 forward $332 $-1 #
edge $-1 $342 $419 $338 $423 forward #
coedge $-1 $424 $254 $422 $425 reversed $249 $-1 #
vertex $-1 $416 $426 #
vertex $-1 $339 $427 #
straight-curve $-1 -57.407156499103792 52.289115796986735 99.28594195832342 0 0 1 I I #
vertex $-1 $256 $428 #
point $-1 -69.984466488550183 44.659071652079362 11.197916610457625 #
face $-1 $429 $430 $29 $-1 $431 reversed single #
plane-surface $-1 -67.261273491716267 -30.119654661415083 77.036370906513085 0 0.61566148304635926 0.78801074757464917 1 0 0 forward_v I I I I #
coedge $-1 $432 $433 $434 $435 reversed $261 $-1 #
coedge $-1 $349 $349 $-1 $436 forward $263 $-1 #
edge $-1 $437 $437 $264 $438 forward #
vertex $-1 $267 $439 #
ellipse-curve $-1 -71.484466488550183 48.256398964675327 15.802285509487801 0 -0.61566148304635926 -0.78801074757464917 1.5 0 0 1 I I #
vertex $-1 $268 $440 #
point $-1 -61.538080494882351 44.659071652079362 11.197916610457625 #
loop $-1 $-1 $441 $260 #
straight-curve $-1 -77.115390484328742 52.289115796986735 0 0 0 -1 I I #
point $-1 -77.115390484328742 -52.289115796986735 -18.952989269973809 #
straight-curve $-1 -77.115390484328742 0 -18.952989269973809 0 1 0 I I #
point $-1 -77.115390484328742 52.289115796986735 -18.952989269973809 #
face $-1 $442 $443 $23 $-1 $444 reversed single #
plane-surface $-1 0 0 -18.952989269973809 0 0 1 1 0 0 forward_v I I I I #
coedge $-1 $445 $291 $305 $377 reversed $207 $-1 #
coedge $-1 $291 $445 $308 $381 reversed $207 $-1 #
edge $-1 $367 $365 $291 $446 forward #
vertex $-1 $293 $447 #
straight-curve $-1 -39.209411944381117 -59.755102410375187 -18.952989269973809 0 -1 0 I I #
vertex $-1 $381 $448 #
straight-curve $-1 -39.209411944381117 -59.755102410375187 18.952989269973809 0 1 0 I I #
coedge $-1 $378 $296 $449 $450 forward $221 $-1 #
coedge $-1 $298 $382 $451 $452 forward $225 $-1 #
coedge $-1 $451 $449 $300 $372 reversed $443 $-1 #
edge $-1 $373 $375 $371 $453 forward #
vertex $-1 $452 $454 #
straight-curve $-1 0 -52.289115796986735 18.952989269973809 1 0 0 I I #
vertex $-1 $450 $455 #
straight-curve $-1 0 -52.289115796986735 -18.952989269973809 -1 0 0 I I #
edge $-1 $456 $365 $362 $376 forward #
coedge $-1 $306 $369 $457 $458 forward $221 $-1 #
coedge $-1 $459 $460 $306 $380 reversed $461 $-1 #
edge $-1 $462 $456 $379 $463 forward #
edge $-1 $367 $464 $363 $374 forward #
coedge $-1 $370 $309 $465 $466 forward $225 $-1 #
coedge $-1 $460 $459 $309 $384 reversed $461 $-1 #
edge $-1 $464 $467 $383 $468 forward #
face $-1 $469 $470 $25 $-1 $471 reversed single #
loop $-1 $-1 $472 $311 #
plane-surface $-1 -39.209411944381117 -59.755102410375187 0 -1 0 0 0 0 1 forward_v I I I I #
coedge $-1 $473 $474 $475 $476 reversed $312 $-1 #
coedge $-1 $477 $314 $478 $479 reversed $231 $-1 #
coedge $-1 $314 $477 $480 $481 reversed $231 $-1 #
coedge $-1 $474 $473 $314 $392 reversed $312 $-1 #
edge $-1 $482 $483 $391 $484 forward #
coedge $-1 $485 $486 $315 $394 forward $487 $-1 #
edge $-1 $396 $409 $315 $488 forward #
coedge $-1 $399 $316 $486 $489 reversed $320 $-1 #
vertex $-1 $394 $490 #
straight-curve $-1 -77.115390484328742 52.289115796986735 0 0 0 -1 I I #
straight-curve $-1 -33.630636745858133 44.223682132363948 18.952989269973806 -1 0 0 I I #
coedge $-1 $319 $395 $491 $492 reversed $320 $-1 #
edge $-1 $321 $493 $319 $494 forward #
face $-1 $495 $320 $25 $-1 $496 reversed single #
point $-1 -77.115390484328742 44.223682132363933 18.952989269973813 #
coedge $-1 $497 $325 $498 $499 forward $148 $-1 #
coedge $-1 $326 $500 $501 $502 forward $148 $-1 #
coedge $-1 $503 $327 $326 $406 reversed $408 $-1 #
edge $-1 $504 $329 $405 $505 forward #
coedge $-1 $327 $503 $485 $506 reversed $408 $-1 #
loop $-1 $-1 $503 $495 #
vertex $-1 $506 $507 #
straight-curve $-1 77.115390484328742 52.289115796986735 0 0 0 -1 I I #
point $-1 77.115390484328742 52.289115796986735 18.952989269973809 #
face $-1 $508 $509 $27 $-1 $510 reversed single #
loop $-1 $-1 $511 $331 #
plane-surface $-1 -42.309206396015895 -67.221089023763639 0 0 1 0 0 0 1 forward_v I I I I #
coedge $-1 $334 $512 $513 $514 reversed $249 $-1 #
edge $-1 $515 $341 $334 $516 forward #
coedge $-1 $418 $335 $517 $518 reversed $251 $-1 #
coedge $-1 $336 $417 $421 $519 reversed $251 $-1 #
vertex $-1 $519 $520 #
straight-curve $-1 -57.407156499103792 -30.119654661415083 77.036370906513085 0 -0.78801074757464917 0.61566148304635926 I I #
coedge $-1 $521 $338 $418 $519 forward $332 $-1 #
coedge $-1 $338 $522 $340 $425 forward $332 $-1 #
straight-curve $-1 -57.407156499103792 32.417148340573391 18.952989269973813 0 -1 0 I I #
coedge $-1 $512 $340 $523 $524 forward $249 $-1 #
edge $-1 $525 $342 $340 $526 forward #
point $-1 -57.407156499103792 52.289115796986735 12.651581749001764 #
point $-1 -57.407156499103792 52.289115796986735 18.952989269973809 #
point $-1 -71.484466488550183 43.735579427509819 10.01590048909565 #
face $-1 $527 $528 $29 $-1 $529 forward single #
loop $-1 $-1 $530 $346 #
plane-surface $-1 0 52.289115796986735 0 0 -1 0 0 0 -1 forward_v I I I I #
coedge $-1 $433 $348 $531 $532 forward $261 $-1 #
coedge $-1 $348 $432 $533 $534 reversed $261 $-1 #
coedge $-1 $535 $530 $348 $435 forward $430 $-1 #
edge $-1 $536 $537 $434 $538 forward #
edge $-1 $539 $539 $349 $-1 forward #
vertex $-1 $350 $540 #
ellipse-curve $-1 -71.484466488550183 44.659071652079362 11.197916610457625 0 0.61566148304635926 0.78801074757464917 1.5 0 0 1 I I #
point $-1 -69.984466488550183 48.256398964675306 15.802285509487778 #
point $-1 -63.038080494882351 43.735579427509819 10.01590048909565 #
coedge $-1 $541 $531 $530 $542 reversed $355 $-1 #
face $-1 $543 $544 $23 $-1 $545 reversed single #
loop $-1 $-1 $546 $360 #
plane-surface $-1 -77.115390484328742 0 0 1 0 0 0 0 -1 forward_v I I I I #
coedge $-1 $363 $362 $460 $547 reversed $207 $-1 #
straight-curve $-1 -39.209411944381117 -52.289115796986735 0 0 0 -1 I I #
point $-1 -39.209411944381117 -52.289115796986735 -18.952989269973809 #
point $-1 -39.209411944381117 -52.289115796986735 18.952989269973809 #
coedge $-1 $371 $546 $369 $450 reversed $443 $-1 #
edge $-1 $375 $548 $449 $549 forward #
coedge $-1 $546 $371 $370 $452 reversed $443 $-1 #
edge $-1 $550 $373 $451 $551 forward #
straight-curve $-1 -77.115390484328742 -52.289115796986735 0 0 0 -1 I I #
point $-1 -77.115390484328742 -52.289115796986735 18.952989269973809 #
point $-1 -77.115390484328742 -52.289115796986735 -18.952989269973809 #
vertex $-1 $547 $552 #
coedge $-1 $553 $554 $378 $458 reversed $544 $-1 #
edge $-1 $548 $462 $457 $555 forward #
coedge $-1 $383 $379 $554 $556 reversed $461 $-1 #
coedge $-1 $379 $383 $445 $547 forward $461 $-1 #
loop $-1 $-1 $460 $543 #
vertex $-1 $380 $557 #
straight-curve $-1 77.115390484328742 0 -18.952989269973809 0 -1 0 I I #
vertex $-1 $384 $558 #
coedge $-1 $554 $553 $382 $466 reversed $544 $-1 #
edge $-1 $467 $550 $465 $559 forward #
vertex $-1 $384 $560 #
straight-curve $-1 77.115390484328742 0 18.952989269973809 0 1 0 I I #
face $-1 $561 $562 $25 $-1 $471 reversed single #
loop $-1 $-1 $475 $385 #
plane-surface $-1 0 -52.289115796986735 0 0 1 0 0 0 1 forward_v I I I I #
coedge $-1 $563 $564 $477 $565 forward $386 $-1 #
coedge $-1 $391 $388 $566 $567 reversed $312 $-1 #
coedge $-1 $388 $391 $497 $568 reversed $312 $-1 #
coedge $-1 $498 $569 $388 $476 forward $470 $-1 #
edge $-1 $570 $571 $475 $572 forward #
coedge $-1 $390 $389 $472 $565 reversed $231 $-1 #
coedge $-1 $566 $573 $389 $479 forward $487 $-1 #
edge $-1 $574 $483 $389 $575 forward #
coedge $-1 $500 $497 $390 $481 forward $148 $-1 #
edge $-1 $482 $576 $390 $577 forward #
vertex $-1 $568 $578 #
vertex $-1 $567 $579 #
straight-curve $-1 -45.409000847650674 -67.221089023763639 0 0 0 -1 I I #
coedge $-1 $580 $393 $407 $506 forward $487 $-1 #
coedge $-1 $393 $581 $395 $489 forward $487 $-1 #
loop $-1 $-1 $485 $561 #
straight-curve $-1 0 52.289115796986735 -18.952989269973809 1 0 0 I I #
edge $-1 $582 $396 $395 $583 forward #
point $-1 -77.115390484328742 52.289115796986735 -18.952989269973809 #
coedge $-1 $569 $498 $399 $492 forward $470 $-1 #
edge $-1 $493 $582 $399 $584 forward #
vertex $-1 $400 $585 #
straight-curve $-1 -77.115390484328742 0 18.952989269973809 0 -1 0 I I #
face $-1 $-1 $408 $25 $-1 $586 reversed single #
plane-surface $-1 -77.115390484328742 0 0 1 0 0 0 0 -1 forward_v I I I I #
coedge $-1 $480 $403 $474 $568 forward $148 $-1 #
coedge $-1 $491 $475 $403 $499 reversed $470 $-1 #
edge $-1 $493 $571 $498 $587 forward #
coedge $-1 $404 $480 $564 $588 forward $148 $-1 #
coedge $-1 $589 $590 $404 $502 reversed $562 $-1 #
edge $-1 $591 $504 $501 $587 forward #
coedge $-1 $407 $405 $590 $592 forward $408 $-1 #
vertex $-1 $406 $593 #
straight-curve $-1 77.115390484328742 0 18.952989269973809 0 1 0 I I #
edge $-1 $409 $594 $407 $595 forward #
point $-1 77.115390484328742 52.289115796986735 -18.952989269973809 #
face $-1 $596 $597 $27 $-1 $598 reversed single #
loop $-1 $-1 $599 $412 #
plane-surface $-1 -45.409000847650674 -59.755102410375187 0 1 0 0 0 0 -1 forward_v I I I I #
coedge $-1 $600 $601 $602 $603 forward $413 $-1 #
coedge $-1 $415 $424 $604 $605 reversed $249 $-1 #
coedge $-1 $606 $517 $415 $514 forward $607 $-1 #
edge $-1 $515 $608 $415 $609 forward #
vertex $-1 $514 $610 #
straight-curve $-1 -33.630636745858133 52.289115796986735 12.65158174900176 1 0 0 I I #
coedge $-1 $513 $611 $417 $518 forward $607 $-1 #
edge $-1 $612 $515 $517 $613 forward #
edge $-1 $419 $612 $421 $614 forward #
point $-1 -57.407156499103792 44.223682132363933 18.952989269973813 #
coedge $-1 $615 $421 $611 $616 forward $332 $-1 #
coedge $-1 $422 $617 $618 $619 forward $332 $-1 #
coedge $-1 $618 $620 $424 $524 reversed $621 $-1 #
edge $-1 $525 $622 $523 $623 forward #
vertex $-1 $619 $624 #
straight-curve $-1 0 52.289115796986735 18.952989269973809 -1 0 0 I I #
face $-1 $625 $626 $29 $-1 $627 reversed single #
loop $-1 $-1 $533 $429 #
plane-surface $-1 0 0 18.952989269973809 0 0 1 1 0 0 forward_v I I I I #
coedge $-1 $434 $628 $441 $542 forward $430 $-1 #
coedge $-1 $441 $629 $432 $532 reversed $355 $-1 #
edge $-1 $536 $630 $432 $631 forward #
coedge $-1 $632 $633 $433 $534 forward $528 $-1 #
edge $-1 $537 $630 $533 $634 forward #
coedge $-1 $635 $434 $633 $636 reversed $430 $-1 #
vertex $-1 $542 $637 #
vertex $-1 $534 $638 #
straight-curve $-1 -57.407156499103792 52.289115796986735 99.28594195832342 0 0 1 I I #
vertex $-1 $436 $639 #
point $-1 -69.984466488550183 44.659071652079362 11.197916610457625 #
coedge $-1 $629 $441 $640 $641 reversed $355 $-1 #
edge $-1 $642 $536 $530 $643 forward #
face $-1 $-1 $461 $23 $-1 $644 reversed single #
loop $-1 $-1 $554 $442 #
plane-surface $-1 0 52.289115796986735 0 0 -1 0 0 0 -1 forward_v I I I I #
coedge $-1 $449 $451 $553 $645 forward $443 $-1 #
edge $-1 $464 $456 $460 $646 forward #
vertex $-1 $458 $647 #
straight-curve $-1 -77.115390484328742 0 -18.952989269973809 0 1 0 I I #
vertex $-1 $466 $648 #
straight-curve $-1 -77.115390484328742 0 18.952989269973809 0 -1 0 I I #
point $-1 77.115390484328742 -52.289115796986735 -18.952989269973809 #
coedge $-1 $465 $457 $546 $645 reversed $544 $-1 #
coedge $-1 $457 $465 $459 $556 forward $544 $-1 #
straight-curve $-1 0 52.289115796986735 -18.952989269973809 1 0 0 I I #
edge $-1 $467 $462 $459 $649 forward #
point $-1 77.115390484328742 52.289115796986735 -18.952989269973809 #
point $-1 77.115390484328742 -52.289115796986735 18.952989269973809 #
straight-curve $-1 0 52.289115796986735 18.952989269973809 -1 0 0 I I #
point $-1 77.115390484328742 52.289115796986735 18.952989269973809 #
face $-1 $401 $487 $25 $-1 $650 reversed single #
loop $-1 $-1 $589 $469 #
coedge $-1 $651 $472 $573 $652 reversed $386 $-1 #
coedge $-1 $472 $651 $500 $588 reversed $386 $-1 #
edge $-1 $576 $574 $472 $653 forward #
coedge $-1 $581 $478 $473 $567 forward $487 $-1 #
edge $-1 $483 $570 $473 $654 forward #
edge $-1 $571 $482 $474 $655 forward #
coedge $-1 $475 $491 $581 $656 reversed $470 $-1 #
vertex $-1 $656 $657 #
vertex $-1 $568 $658 #
straight-curve $-1 -45.409000847650674 -52.289115796986735 0 0 0 1 I I #
coedge $-1 $478 $580 $563 $652 forward $487 $-1 #
vertex $-1 $565 $659 #
straight-curve $-1 -42.309206396015895 -67.221089023763639 -18.952989269973809 -1 0 0 I I #
vertex $-1 $588 $660 #
straight-curve $-1 -42.309206396015895 -67.221089023763639 18.952989269973809 1 0 0 I I #
point $-1 -45.409000847650674 -67.221089023763639 18.952989269973809 #
point $-1 -45.409000847650674 -67.221089023763639 -18.952989269973809 #
coedge $-1 $573 $485 $661 $662 forward $487 $-1 #
coedge $-1 $486 $566 $569 $656 forward $487 $-1 #
vertex $-1 $489 $663 #
straight-curve $-1 -77.115390484328742 0 -18.952989269973809 0 1 0 I I #
straight-curve $-1 -77.115390484328742 -52.289115796986735 0 0 0 -1 I I #
point $-1 -77.115390484328742 -52.289115796986735 18.952989269973809 #
plane-surface $-1 77.115390484328742 0 0 -1 0 0 0 0 1 forward_v I I I I #
straight-curve $-1 0 -52.289115796986735 18.952989269973809 1 0 0 I I #
edge $-1 $576 $591 $564 $664 forward #
coedge $-1 $661 $501 $651 $665 forward $562 $-1 #
coedge $-1 $501 $661 $503 $592 reversed $562 $-1 #
vertex $-1 $502 $666 #
edge $-1 $504 $594 $503 $667 forward #
point $-1 77.115390484328742 -52.289115796986735 18.952989269973809 #
vertex $-1 $592 $668 #
straight-curve $-1 77.115390484328742 0 -18.952989269973809 0 -1 0 I I #
face $-1 $669 $670 $27 $-1 $671 reversed single #
loop $-1 $-1 $672 $508 #
plane-surface $-1 -39.209411944381117 -59.755102410375187 0 -1 0 0 0 0 1 forward_v I I I I #
coedge $-1 $673 $674 $675 $676 reversed $509 $-1 #
coedge $-1 $677 $511 $678 $679 reversed $413 $-1 #
coedge $-1 $511 $677 $680 $681 reversed $413 $-1 #
coedge $-1 $674 $673 $511 $603 reversed $509 $-1 #
edge $-1 $682 $683 $602 $684 forward #
coedge $-1 $685 $686 $512 $605 forward $687 $-1 #
edge $-1 $608 $622 $512 $688 forward #
coedge $-1 $689 $513 $686 $690 reversed $607 $-1 #
loop $-1 $-1 $517 $691 #
vertex $-1 $605 $692 #
straight-curve $-1 -77.115390484328742 52.289115796986735 0 0 0 -1 I I #
point $-1 -77.115390484328742 52.289115796986735 12.651581749001767 #
coedge $-1 $517 $689 $521 $616 reversed $607 $-1 #
vertex $-1 $616 $693 #
straight-curve $-1 -77.115390484328742 -2.0810746957065476 55.13023094924457 0 0.78801074757464917 -0.61566148304635926 I I #
straight-curve $-1 -33.630636745858133 44.223682132363948 18.952989269973806 -1 0 0 I I #
coedge $-1 $694 $521 $695 $696 forward $332 $-1 #
edge $-1 $612 $697 $611 $698 forward #
coedge $-1 $522 $699 $700 $701 forward $332 $-1 #
coedge $-1 $702 $523 $522 $619 reversed $621 $-1 #
edge $-1 $703 $525 $618 $704 forward #
coedge $-1 $523 $702 $685 $705 reversed $621 $-1 #
loop $-1 $-1 $702 $706 #
vertex $-1 $705 $707 #
straight-curve $-1 77.115390484328742 52.289115796986735 0 0 0 -1 I I #
point $-1 77.115390484328742 52.289115796986735 18.952989269973809 #
face $-1 $708 $709 $29 $-1 $710 reversed single #
loop $-1 $-1 $711 $527 #
plane-surface $-1 -42.309206396015895 -67.221089023763639 0 0 1 0 0 0 1 forward_v I I I I #
coedge $-1 $530 $712 $713 $714 reversed $430 $-1 #
coedge $-1 $531 $541 $632 $715 reversed $355 $-1 #
vertex $-1 $715 $716 #
straight-curve $-1 -57.407156499103792 -30.119654661415083 77.036370906513085 0 -0.78801074757464917 0.61566148304635926 I I #
coedge $-1 $717 $533 $629 $715 forward $528 $-1 #
coedge $-1 $533 $718 $535 $636 forward $528 $-1 #
straight-curve $-1 -57.407156499103792 32.417148340573391 18.952989269973813 0 -1 0 I I #
coedge $-1 $712 $535 $719 $720 forward $430 $-1 #
edge $-1 $721 $537 $535 $722 forward #
point $-1 -57.407156499103792 52.289115796986735 12.651581749001764 #
point $-1 -57.407156499103792 52.289115796986735 18.952989269973809 #
point $-1 -71.484466488550183 43.735579427509819 10.01590048909565 #
coedge $-1 $713 $723 $541 $641 forward $724 $-1 #
edge $-1 $725 $642 $640 $726 forward #
vertex $-1 $714 $727 #
straight-curve $-1 -33.630636745858133 52.289115796986735 12.65158174900176 1 0 0 I I #
plane-surface $-1 77.115390484328742 0 0 -1 0 0 0 0 1 forward_v I I I I #
edge $-1 $550 $548 $553 $728 forward #
straight-curve $-1 77.115390484328742 -52.289115796986735 0 0 0 -1 I I #
point $-1 -77.115390484328742 52.289115796986735 -18.952989269973809 #
point $-1 -77.115390484328742 52.289115796986735 18.952989269973809 #
straight-curve $-1 77.115390484328742 52.289115796986735 0 0 0 -1 I I #
plane-surface $-1 0 0 -18.952989269973809 0 0 1 1 0 0 forward_v I I I I #
coedge $-1 $564 $563 $589 $665 reversed $386 $-1 #
edge $-1 $729 $574 $563 $730 forward #
straight-curve $-1 -39.209411944381117 -67.221089023763639 0 0 0 -1 I I #
straight-curve $-1 -45.409000847650674 -59.755102410375187 -18.952989269973809 0 1 0 I I #
straight-curve $-1 -45.409000847650674 -59.755102410375187 18.952989269973809 0 -1 0 I I #
edge $-1 $570 $582 $569 $731 forward #
point $-1 -45.409000847650674 -52.289115796986735 -18.952989269973809 #
point $-1 -45.409000847650674 -52.289115796986735 18.952989269973809 #
point $-1 -39.209411944381117 -67.221089023763639 -18.952989269973809 #
point $-1 -39.209411944381117 -67.221089023763639 18.952989269973809 #
coedge $-1 $590 $589 $580 $662 reversed $562 $-1 #
edge $-1 $594 $729 $661 $731 forward #
point $-1 -77.115390484328742 -52.289115796986735 -18.952989269973809 #
straight-curve $-1 -39.209411944381117 -59.755102410375187 18.952989269973809 0 1 0 I I #
edge $-1 $591 $729 $589 $732 forward #
point $-1 -39.209411944381117 -52.289115796986735 18.952989269973809 #
straight-curve $-1 77.115390484328742 -52.289115796986735 0 0 0 -1 I I #
point $-1 77.115390484328742 -52.289115796986735 -18.952989269973809 #
face $-1 $733 $734 $27 $-1 $671 reversed single #
loop $-1 $-1 $675 $596 #
plane-surface $-1 0 -52.289115796986735 0 0 1 0 0 0 1 forward_v I I I I #
coedge $-1 $735 $736 $677 $737 forward $597 $-1 #
coedge $-1 $602 $599 $738 $739 reversed $509 $-1 #
coedge $-1 $599 $602 $694 $740 reversed $509 $-1 #
coedge $-1 $695 $741 $599 $676 forward $670 $-1 #
edge $-1 $742 $743 $675 $744 forward #
coedge $-1 $601 $600 $672 $737 reversed $413 $-1 #
coedge $-1 $738 $745 $600 $679 forward $687 $-1 #
edge $-1 $746 $683 $600 $747 forward #
coedge $-1 $699 $694 $601 $681 forward $332 $-1 #
edge $-1 $682 $748 $601 $749 forward #
vertex $-1 $740 $750 #
vertex $-1 $739 $751 #
straight-curve $-1 -45.409000847650674 -67.221089023763639 0 0 0 -1 I I #
coedge $-1 $752 $604 $620 $705 forward $687 $-1 #
coedge $-1 $604 $753 $606 $690 forward $687 $-1 #
loop $-1 $-1 $685 $733 #
straight-curve $-1 0 52.289115796986735 -18.952989269973809 1 0 0 I I #
coedge $-1 $611 $606 $754 $755 reversed $607 $-1 #
edge $-1 $756 $608 $606 $757 forward #
face $-1 $706 $607 $27 $-1 $758 reversed single #
point $-1 -77.115390484328742 52.289115796986735 -18.952989269973809 #
point $-1 -77.115390484328742 44.223682132363933 18.952989269973813 #
coedge $-1 $680 $615 $674 $740 forward $332 $-1 #
coedge $-1 $754 $675 $615 $696 reversed $670 $-1 #
edge $-1 $697 $743 $695 $759 forward #
vertex $-1 $616 $760 #
straight-curve $-1 -77.115390484328742 0 18.952989269973809 0 -1 0 I I #
coedge $-1 $617 $680 $736 $761 forward $332 $-1 #
coedge $-1 $762 $763 $617 $701 reversed $734 $-1 #
edge $-1 $764 $703 $700 $759 forward #
coedge $-1 $620 $618 $763 $765 forward $621 $-1 #
vertex $-1 $619 $766 #
straight-curve $-1 77.115390484328742 0 18.952989269973809 0 1 0 I I #
edge $-1 $622 $767 $620 $768 forward #
face $-1 $-1 $621 $27 $-1 $769 reversed single #
point $-1 77.115390484328742 52.289115796986735 -18.952989269973809 #
face $-1 $770 $771 $29 $-1 $772 reversed single #
loop $-1 $-1 $773 $625 #
plane-surface $-1 -45.409000847650674 -59.755102410375187 0 1 0 0 0 0 -1 forward_v I I I I #
coedge $-1 $774 $775 $776 $777 forward $626 $-1 #
coedge $-1 $628 $635 $778 $779 reversed $430 $-1 #
coedge $-1 $780 $640 $628 $714 forward $724 $-1 #
edge $-1 $642 $781 $628 $782 forward #
edge $-1 $630 $725 $632 $783 forward #
point $-1 -57.407156499103792 44.223682132363933 18.952989269973813 #
coedge $-1 $784 $632 $723 $785 forward $528 $-1 #
coedge $-1 $633 $786 $787 $788 forward $528 $-1 #
coedge $-1 $787 $789 $635 $720 reversed $790 $-1 #
edge $-1 $721 $791 $719 $792 forward #
vertex $-1 $788 $793 #
straight-curve $-1 0 52.289115796986735 18.952989269973809 -1 0 0 I I #
coedge $-1 $640 $794 $717 $785 reversed $724 $-1 #
loop $-1 $-1 $640 $795 #
vertex $-1 $785 $796 #
straight-curve $-1 -77.115390484328742 -2.0810746957065476 55.13023094924457 0 0.78801074757464917 -0.61566148304635926 I I #
point $-1 -77.115390484328742 52.289115796986735 12.651581749001767 #
straight-curve $-1 -77.115390484328742 52.289115796986735 0 0 0 -1 I I #
vertex $-1 $652 $797 #
straight-curve $-1 -39.209411944381117 -59.755102410375187 -18.952989269973809 0 -1 0 I I #
straight-curve $-1 0 -52.289115796986735 -18.952989269973809 -1 0 0 I I #
straight-curve $-1 -39.209411944381117 -52.289115796986735 0 0 0 -1 I I #
face $-1 $691 $687 $27 $-1 $798 reversed single #
loop $-1 $-1 $762 $669 #
coedge $-1 $799 $672 $745 $800 reversed $597 $-1 #
coedge $-1 $672 $799 $699 $761 reversed $597 $-1 #
edge $-1 $748 $746 $672 $801 forward #
coedge $-1 $753 $678 $673 $739 forward $687 $-1 #
edge $-1 $683 $742 $673 $802 forward #
edge $-1 $743 $682 $674 $803 forward #
coedge $-1 $675 $754 $753 $804 reversed $670 $-1 #
vertex $-1 $804 $805 #
vertex $-1 $740 $806 #
straight-curve $-1 -45.409000847650674 -52.289115796986735 0 0 0 1 I I #
coedge $-1 $678 $752 $735 $800 forward $687 $-1 #
vertex $-1 $737 $807 #
straight-curve $-1 -42.309206396015895 -67.221089023763639 -18.952989269973809 -1 0 0 I I #
vertex $-1 $761 $808 #
straight-curve $-1 -42.309206396015895 -67.221089023763639 18.952989269973809 1 0 0 I I #
point $-1 -45.409000847650674 -67.221089023763639 18.952989269973809 #
point $-1 -45.409000847650674 -67.221089023763639 -18.952989269973809 #
coedge $-1 $745 $685 $809 $810 forward $687 $-1 #
coedge $-1 $686 $738 $741 $804 forward $687 $-1 #
coedge $-1 $741 $695 $689 $755 forward $670 $-1 #
edge $-1 $697 $756 $689 $811 forward #
vertex $-1 $690 $812 #
straight-curve $-1 -77.115390484328742 0 -18.952989269973809 0 1 0 I I #
plane-surface $-1 -77.115390484328742 0 0 1 0 0 0 0 -1 forward_v I I I I #
straight-curve $-1 0 -52.289115796986735 18.952989269973809 1 0 0 I I #
point $-1 -77.115390484328742 -52.289115796986735 18.952989269973809 #
edge $-1 $748 $764 $736 $813 forward #
coedge $-1 $809 $700 $799 $814 forward $734 $-1 #
coedge $-1 $700 $809 $702 $765 reversed $734 $-1 #
vertex $-1 $701 $815 #
edge $-1 $703 $767 $702 $816 forward #
point $-1 77.115390484328742 -52.289115796986735 18.952989269973809 #
vertex $-1 $765 $817 #
straight-curve $-1 77.115390484328742 0 -18.952989269973809 0 -1 0 I I #
plane-surface $-1 77.115390484328742 0 0 -1 0 0 0 0 1 forward_v I I I I #
face $-1 $818 $819 $29 $-1 $820 reversed single #
loop $-1 $-1 $821 $708 #
plane-surface $-1 -39.209411944381117 -59.755102410375187 0 -1 0 0 0 0 1 forward_v I I I I #
coedge $-1 $822 $823 $824 $825 reversed $709 $-1 #
coedge $-1 $826 $711 $827 $828 reversed $626 $-1 #
coedge $-1 $711 $826 $829 $830 reversed $626 $-1 #
coedge $-1 $823 $822 $711 $777 reversed $709 $-1 #
edge $-1 $831 $832 $776 $833 forward #
coedge $-1 $834 $835 $712 $779 forward $836 $-1 #
edge $-1 $781 $791 $712 $837 forward #
coedge $-1 $794 $713 $835 $838 reversed $724 $-1 #
vertex $-1 $779 $839 #
straight-curve $-1 -77.115390484328742 52.289115796986735 0 0 0 -1 I I #
straight-curve $-1 -33.630636745858133 44.223682132363948 18.952989269973806 -1 0 0 I I #
coedge $-1 $840 $717 $841 $842 forward $528 $-1 #
edge $-1 $725 $843 $723 $844 forward #
coedge $-1 $718 $845 $846 $847 forward $528 $-1 #
coedge $-1 $848 $719 $718 $788 reversed $790 $-1 #
edge $-1 $849 $721 $787 $850 forward #
coedge $-1 $719 $848 $834 $851 reversed $790 $-1 #
loop $-1 $-1 $848 $852 #
vertex $-1 $851 $853 #
straight-curve $-1 77.115390484328742 52.289115796986735 0 0 0 -1 I I #
point $-1 77.115390484328742 52.289115796986735 18.952989269973809 #
coedge $-1 $723 $780 $854 $855 reversed $724 $-1 #
face $-1 $852 $724 $29 $-1 $856 reversed single #
point $-1 -77.115390484328742 44.223682132363933 18.952989269973813 #
point $-1 -39.209411944381117 -52.289115796986735 -18.952989269973809 #
plane-surface $-1 0 0 -18.952989269973809 0 0 1 1 0 0 forward_v I I I I #
coedge $-1 $736 $735 $762 $814 reversed $597 $-1 #
edge $-1 $857 $746 $735 $858 forward #
straight-curve $-1 -39.209411944381117 -67.221089023763639 0 0 0 -1 I I #
straight-curve $-1 -45.409000847650674 -59.755102410375187 -18.952989269973809 0 1 0 I I #
straight-curve $-1 -45.409000847650674 -59.755102410375187 18.952989269973809 0 -1 0 I I #
edge $-1 $742 $756 $741 $859 forward #
point $-1 -45.409000847650674 -52.289115796986735 -18.952989269973809 #
point $-1 -45.409000847650674 -52.289115796986735 18.952989269973809 #
point $-1 -39.209411944381117 -67.221089023763639 -18.952989269973809 #
point $-1 -39.209411944381117 -67.221089023763639 18.952989269973809 #
coedge $-1 $763 $762 $752 $810 reversed $734 $-1 #
edge $-1 $767 $857 $809 $859 forward #
straight-curve $-1 -77.115390484328742 -52.289115796986735 0 0 0 -1 I I #
point $-1 -77.115390484328742 -52.289115796986735 -18.952989269973809 #
straight-curve $-1 -39.209411944381117 -59.755102410375187 18.952989269973809 0 1 0 I I #
edge $-1 $764 $857 $762 $860 forward #
point $-1 -39.209411944381117 -52.289115796986735 18.952989269973809 #
straight-curve $-1 77.115390484328742 -52.289115796986735 0 0 0 -1 I I #
point $-1 77.115390484328742 -52.289115796986735 -18.952989269973809 #
face $-1 $861 $862 $29 $-1 $820 reversed single #
loop $-1 $-1 $824 $770 #
plane-surface $-1 0 -52.289115796986735 0 0 1 0 0 0 1 forward_v I I I I #
coedge $-1 $863 $864 $826 $865 forward $771 $-1 #
coedge $-1 $776 $773 $866 $867 reversed $709 $-1 #
coedge $-1 $773 $776 $840 $868 reversed $709 $-1 #
coedge $-1 $841 $869 $773 $825 forward $819 $-1 #
edge $-1 $870 $871 $824 $872 forward #
coedge $-1 $775 $774 $821 $865 reversed $626 $-1 #
coedge $-1 $866 $873 $774 $828 forward $836 $-1 #
edge $-1 $874 $832 $774 $875 forward #
coedge $-1 $845 $840 $775 $830 forward $528 $-1 #
edge $-1 $831 $876 $775 $877 forward #
vertex $-1 $868 $878 #
vertex $-1 $867 $879 #
straight-curve $-1 -45.409000847650674 -67.221089023763639 0 0 0 -1 I I #
coedge $-1 $880 $778 $789 $851 forward $836 $-1 #
coedge $-1 $778 $881 $780 $838 forward $836 $-1 #
loop $-1 $-1 $834 $861 #
straight-curve $-1 0 52.289115796986735 -18.952989269973809 1 0 0 I I #
edge $-1 $882 $781 $780 $883 forward #
point $-1 -77.115390484328742 52.289115796986735 -18.952989269973809 #
coedge $-1 $829 $784 $823 $868 forward $528 $-1 #
coedge $-1 $854 $824 $784 $842 reversed $819 $-1 #
edge $-1 $843 $871 $841 $884 forward #
vertex $-1 $785 $885 #
straight-curve $-1 -77.115390484328742 0 18.952989269973809 0 -1 0 I I #
coedge $-1 $786 $829 $864 $886 forward $528 $-1 #
coedge $-1 $887 $888 $786 $847 reversed $862 $-1 #
edge $-1 $889 $849 $846 $884 forward #
coedge $-1 $789 $787 $888 $890 forward $790 $-1 #
vertex $-1 $788 $891 #
straight-curve $-1 77.115390484328742 0 18.952989269973809 0 1 0 I I #
edge $-1 $791 $892 $789 $893 forward #
face $-1 $-1 $790 $29 $-1 $894 reversed single #
point $-1 77.115390484328742 52.289115796986735 -18.952989269973809 #
coedge $-1 $869 $841 $794 $855 forward $819 $-1 #
edge $-1 $843 $882 $794 $895 forward #
plane-surface $-1 -77.115390484328742 0 0 1 0 0 0 0 -1 forward_v I I I I #
vertex $-1 $800 $896 #
straight-curve $-1 -39.209411944381117 -59.755102410375187 -18.952989269973809 0 -1 0 I I #
straight-curve $-1 0 -52.289115796986735 -18.952989269973809 -1 0 0 I I #
straight-curve $-1 -39.209411944381117 -52.289115796986735 0 0 0 -1 I I #
face $-1 $795 $836 $29 $-1 $897 reversed single #
loop $-1 $-1 $887 $818 #
coedge $-1 $898 $821 $873 $899 reversed $771 $-1 #
coedge $-1 $821 $898 $845 $886 reversed $771 $-1 #
edge $-1 $876 $874 $821 $900 forward #
coedge $-1 $881 $827 $822 $867 forward $836 $-1 #
edge $-1 $832 $870 $822 $901 forward #
edge $-1 $871 $831 $823 $902 forward #
coedge $-1 $824 $854 $881 $903 reversed $819 $-1 #
vertex $-1 $903 $904 #
vertex $-1 $868 $905 #
straight-curve $-1 -45.409000847650674 -52.289115796986735 0 0 0 1 I I #
coedge $-1 $827 $880 $863 $899 forward $836 $-1 #
vertex $-1 $865 $906 #
straight-curve $-1 -42.309206396015895 -67.221089023763639 -18.952989269973809 -1 0 0 I I #
vertex $-1 $886 $907 #
straight-curve $-1 -42.309206396015895 -67.221089023763639 18.952989269973809 1 0 0 I I #
point $-1 -45.409000847650674 -67.221089023763639 18.952989269973809 #
point $-1 -45.409000847650674 -67.221089023763639 -18.952989269973809 #
coedge $-1 $873 $834 $908 $909 forward $836 $-1 #
coedge $-1 $835 $866 $869 $903 forward $836 $-1 #
vertex $-1 $838 $910 #
straight-curve $-1 -77.115390484328742 0 -18.952989269973809 0 1 0 I I #
straight-curve $-1 0 -52.289115796986735 18.952989269973809 1 0 0 I I #
point $-1 -77.115390484328742 -52.289115796986735 18.952989269973809 #
edge $-1 $876 $889 $864 $911 forward #
coedge $-1 $908 $846 $898 $912 forward $862 $-1 #
coedge $-1 $846 $908 $848 $890 reversed $862 $-1 #
vertex $-1 $847 $913 #
edge $-1 $849 $892 $848 $914 forward #
point $-1 77.115390484328742 -52.289115796986735 18.952989269973809 #
vertex $-1 $890 $915 #
straight-curve $-1 77.115390484328742 0 -18.952989269973809 0 -1 0 I I #
plane-surface $-1 77.115390484328742 0 0 -1 0 0 0 0 1 forward_v I I I I #
straight-curve $-1 -77.115390484328742 -52.289115796986735 0 0 0 -1 I I #
point $-1 -39.209411944381117 -52.289115796986735 -18.952989269973809 #
plane-surface $-1 0 0 -18.952989269973809 0 0 1 1 0 0 forward_v I I I I #
coedge $-1 $864 $863 $887 $912 reversed $771 $-1 #
edge $-1 $916 $874 $863 $917 forward #
straight-curve $-1 -39.209411944381117 -67.221089023763639 0 0 0 -1 I I #
straight-curve $-1 -45.409000847650674 -59.755102410375187 -18.952989269973809 0 1 0 I I #
straight-curve $-1 -45.409000847650674 -59.755102410375187 18.952989269973809 0 -1 0 I I #
edge $-1 $870 $882 $869 $918 forward #
point $-1 -45.409000847650674 -52.289115796986735 -18.952989269973809 #
point $-1 -45.409000847650674 -52.289115796986735 18.952989269973809 #
point $-1 -39.209411944381117 -67.221089023763639 -18.952989269973809 #
point $-1 -39.209411944381117 -67.221089023763639 18.952989269973809 #
coedge $-1 $888 $887 $880 $909 reversed $862 $-1 #
edge $-1 $892 $916 $908 $918 forward #
point $-1 -77.115390484328742 -52.289115796986735 -18.952989269973809 #
straight-curve $-1 -39.209411944381117 -59.755102410375187 18.952989269973809 0 1 0 I I #
edge $-1 $889 $916 $887 $919 forward #
point $-1 -39.209411944381117 -52.289115796986735 18.952989269973809 #
straight-curve $-1 77.115390484328742 -52.289115796986735 0 0 0 -1 I I #
point $-1 77.115390484328742 -52.289115796986735 -18.952989269973809 #
vertex $-1 $899 $920 #
straight-curve $-1 -39.209411944381117 -59.755102410375187 -18.952989269973809 0 -1 0 I I #
straight-curve $-1 0 -52.289115796986735 -18.952989269973809 -1 0 0 I I #
straight-curve $-1 -39.209411944381117 -52.289115796986735 0 0 0 -1 I I #
point $-1 -39.209411944381117 -52.289115796986735 -18.952989269973809 #
End-of-ACIS-data 