600 0 7 0           
94 GICL ACIS Healer - Source: /gicl/data5/repository/Drexel/SM99-DATA/part107.smdg.feat.sat - 6 0 18 ACIS 6.0.3 Solaris 24 Sat Apr 13 20:43:43 2002 
1 9.999999999999999547e-07 1.000000000000000036e-10 
body $-1 $7 $-1 $-1 #
body $-1 $8 $-1 $-1 #
body $-1 $9 $-1 $-1 #
body $-1 $10 $-1 $-1 #
body $-1 $11 $-1 $-1 #
body $-1 $12 $-1 $-1 #
body $-1 $13 $-1 $-1 #
lump $-1 $-1 $14 $0 #
lump $-1 $-1 $15 $1 #
lump $-1 $-1 $16 $2 #
lump $-1 $-1 $17 $3 #
lump $-1 $-1 $18 $4 #
lump $-1 $-1 $19 $5 #
lump $-1 $-1 $20 $6 #
shell $-1 $-1 $-1 $21 $-1 $7 #
shell $-1 $-1 $-1 $22 $-1 $8 #
shell $-1 $-1 $-1 $23 $-1 $9 #
shell $-1 $-1 $-1 $24 $-1 $10 #
shell $-1 $-1 $-1 $25 $-1 $11 #
shell $-1 $-1 $-1 $26 $-1 $12 #
shell $-1 $-1 $-1 $27 $-1 $13 #
face $-1 $28 $29 $14 $-1 $30 forward single #
face $-1 $31 $32 $15 $-1 $33 forward single #
face $-1 $34 $35 $16 $-1 $36 forward single #
face $-1 $37 $38 $17 $-1 $39 forward single #
face $-1 $40 $41 $18 $-1 $42 forward single #
face $-1 $43 $44 $19 $-1 $45 forward single #
face $-1 $46 $47 $20 $-1 $48 forward single #
face $-1 $49 $50 $14 $-1 $51 reversed single #
loop $-1 $-1 $52 $21 #
plane-surface $-1 79.05880916776024492 31.76611760679386975 30.25086012764048959 0 0 1 1 0 0 forward_v I I I I #
face $-1 $53 $54 $15 $-1 $55 reversed single #
loop $-1 $-1 $56 $22 #
plane-surface $-1 -211.6026782106499127 6.008970206677157755 250.4222765288121195 -0.6691306144064093075 0 0.7431448182313465933 0.7431448182313465933 0 0.6691306144064093075 forward_v I I I I #
face $-1 $57 $58 $16 $-1 $59 forward single #
loop $-1 $60 $61 $23 #
cone-surface $-1 9.091433174286258634 3.433697260958375796 21.88574347278571963 0.6691306144064093075 0 -0.7431448182313465933 0.7431448182313465933 0 0.6691306144064093075 1 I I 0 1 1 forward I I I I #
face $-1 $62 $63 $17 $-1 $64 forward single #
loop $-1 $65 $66 $24 #
cone-surface $-1 9.091433174286258634 8.584243152395940157 21.88574347278571963 0.6691306144064093075 0 -0.7431448182313465933 0.7431448182313465933 0 0.6691306144064093075 1 I I 0 1 1 forward I I I I #
face $-1 $67 $68 $18 $-1 $69 reversed single #
loop $-1 $-1 $70 $25 #
plane-surface $-1 246.2537228982679949 55.62231722408792223 366.6592583942066881 0.6560590369687036016 0 0.754709573287431712 0.754709573287431712 0 -0.6560590369687036016 forward_v I I I I #
face $-1 $71 $72 $19 $-1 $73 forward single #
loop $-1 $74 $75 $26 #
cone-surface $-1 153.4263839415419852 53.41931482986939272 25.82293776739371083 -0.6560590369687036016 0 -0.754709573287431712 0.754709573287431712 0 -0.6560590369687036016 1 I I 0 1 1 forward I I I I #
face $-1 $76 $77 $20 $-1 $78 forward single #
loop $-1 $79 $80 $27 #
cone-surface $-1 153.4263839415419852 57.82531961830644462 25.82293776739371083 -0.6560590369687036016 0 -0.754709573287431712 0.754709573287431712 0 -0.6560590369687036016 1 I I 0 1 1 forward I I I I #
face $-1 $81 $82 $14 $-1 $83 reversed single #
loop $-1 $-1 $84 $28 #
plane-surface $-1 79.05880916776024492 31.76611760679386975 0 0 0 1 1 0 0 forward_v I I I I #
coedge $-1 $85 $86 $87 $88 forward $29 $-1 #
face $-1 $89 $90 $15 $-1 $91 reversed single #
loop $-1 $-1 $92 $31 #
plane-surface $-1 1.421085471520200372e-14 6.008970206677157755 15.41369905456447498 -0.6691306144064093075 0 0.7431448182313465933 0.7431448182313465933 0 0.6691306144064093075 forward_v I I I I #
coedge $-1 $93 $94 $95 $96 forward $32 $-1 #
face $-1 $-1 $97 $16 $-1 $98 forward single #
loop $-1 $-1 $99 $34 #
plane-surface $-1 8.239168206719758913 3.433697260958375796 22.83227959110248051 -0.6691306144064093075 0 0.7431448182313465933 -0.7431448182313465933 0 -0.6691306144064093075 forward_v I I I I #
loop $-1 $-1 $100 $23 #
coedge $-1 $61 $61 $99 $101 reversed $35 $-1 #
face $-1 $-1 $102 $17 $-1 $103 forward single #
loop $-1 $-1 $104 $37 #
plane-surface $-1 8.239168206719758913 8.584243152395940157 22.83227959110248051 -0.6691306144064093075 0 0.7431448182313465933 -0.7431448182313465933 0 -0.6691306144064093075 forward_v I I I I #
loop $-1 $-1 $105 $24 #
coedge $-1 $66 $66 $104 $106 reversed $38 $-1 #
face $-1 $107 $108 $18 $-1 $109 reversed single #
loop $-1 $-1 $110 $40 #
plane-surface $-1 38.78473807229481451 55.62231722408792223 127.9934978677553659 0.6560590369687036016 0 0.754709573287431712 0.754709573287431712 0 -0.6560590369687036016 forward_v I I I I #
coedge $-1 $111 $112 $113 $114 forward $41 $-1 #
face $-1 $-1 $115 $19 $-1 $116 forward single #
loop $-1 $-1 $117 $43 #
plane-surface $-1 154.6711982509366976 53.41931482986939272 27.25493279120464507 0.6560590369687036016 0 0.754709573287431712 -0.754709573287431712 0 0.6560590369687036016 forward_v I I I I #
loop $-1 $-1 $118 $26 #
coedge $-1 $75 $75 $117 $119 reversed $44 $-1 #
face $-1 $-1 $120 $20 $-1 $121 forward single #
loop $-1 $-1 $122 $46 #
plane-surface $-1 154.6711982509366976 57.82531961830644462 27.25493279120464507 0.6560590369687036016 0 0.754709573287431712 -0.754709573287431712 0 0.6560590369687036016 forward_v I I I I #
loop $-1 $-1 $123 $27 #
coedge $-1 $80 $80 $122 $124 reversed $47 $-1 #
face $-1 $125 $126 $14 $-1 $127 reversed single #
loop $-1 $-1 $128 $49 #
plane-surface $-1 79.05880916776024492 0 15.1254300638202448 0 1 0 0 0 1 forward_v I I I I #
coedge $-1 $129 $130 $131 $132 forward $50 $-1 #
coedge $-1 $133 $52 $134 $135 forward $29 $-1 #
coedge $-1 $52 $133 $136 $137 forward $29 $-1 #
coedge $-1 $138 $139 $52 $88 reversed $140 $-1 #
edge $-1 $141 -31.76611760679386975 $142 31.76611760679386975 $87 $143 forward 7 unknown #
face $-1 $144 $145 $15 $-1 $146 reversed single #
loop $-1 $-1 $147 $53 #
plane-surface $-1 -105.8013391053249421 0 132.9179877916882901 0 1 0 -0.6691306144064093075 0 0.7431448182313465933 forward_v I I I I #
coedge $-1 $148 $149 $150 $151 forward $54 $-1 #
coedge $-1 $152 $56 $153 $154 forward $32 $-1 #
coedge $-1 $56 $152 $155 $156 forward $32 $-1 #
coedge $-1 $157 $158 $56 $96 reversed $159 $-1 #
edge $-1 $160 -6.008970206677157755 $161 6.008970206677157755 $95 $162 forward 7 unknown #
loop $-1 $163 $164 $57 #
cone-surface $-1 10.27826344905596301 3.433697260958375796 20.56763494535328718 0.6691306144064093075 0 -0.7431448182313465933 0.3715724091156732967 0 0.3345653072032046538 1 I I -0.7071067811865474617 0.7071067811865474617 0.5 forward I I I I #
coedge $-1 $99 $99 $61 $101 forward $58 $-1 #
coedge $-1 $100 $100 $164 $165 forward $60 $-1 #
edge $-1 $166 0 $166 6.283185307179586232 $99 $167 forward 7 unknown #
loop $-1 $168 $169 $62 #
cone-surface $-1 10.27826344905596301 8.584243152395940157 20.56763494535328718 0.6691306144064093075 0 -0.7431448182313465933 0.3715724091156732967 0 0.3345653072032046538 1 I I -0.7071067811865474617 0.7071067811865474617 0.5 forward I I I I #
coedge $-1 $104 $104 $66 $106 forward $63 $-1 #
coedge $-1 $105 $105 $169 $170 forward $65 $-1 #
edge $-1 $171 0 $171 6.283185307179586232 $104 $172 forward 7 unknown #
face $-1 $173 $174 $18 $-1 $175 reversed single #
loop $-1 $-1 $176 $67 #
plane-surface $-1 142.5192304852814118 50.48197830424469146 247.326378130981027 0 1 0 0.6560590369687036016 0 0.754709573287431712 forward_v I I I I #
coedge $-1 $177 $178 $179 $180 forward $68 $-1 #
coedge $-1 $181 $70 $182 $183 forward $41 $-1 #
coedge $-1 $70 $181 $184 $185 forward $41 $-1 #
coedge $-1 $186 $187 $70 $114 reversed $188 $-1 #
edge $-1 $189 -5.140338919843230769 $190 5.140338919843230769 $113 $191 forward 7 unknown #
loop $-1 $192 $193 $71 #
cone-surface $-1 151.8535401136629162 53.41931482986939272 24.01358795693906245 -0.6560590369687036016 0 -0.754709573287431712 0.377354786643715856 0 -0.3280295184843518008 1 I I -0.7071067811865474617 0.7071067811865474617 0.5 forward I I I I #
coedge $-1 $117 $117 $75 $119 forward $72 $-1 #
coedge $-1 $118 $118 $193 $194 forward $74 $-1 #
edge $-1 $195 0 $195 6.283185307179586232 $117 $196 forward 7 unknown #
loop $-1 $197 $198 $76 #
cone-surface $-1 151.8535401136629162 57.82531961830644462 24.01358795693906245 -0.6560590369687036016 0 -0.754709573287431712 0.377354786643715856 0 -0.3280295184843518008 1 I I -0.7071067811865474617 0.7071067811865474617 0.5 forward I I I I #
coedge $-1 $122 $122 $80 $124 forward $77 $-1 #
coedge $-1 $123 $123 $198 $199 forward $79 $-1 #
edge $-1 $200 0 $200 6.283185307179586232 $122 $201 forward 7 unknown #
face $-1 $202 $203 $14 $-1 $204 reversed single #
loop $-1 $-1 $205 $81 #
plane-surface $-1 0 31.76611760679386975 15.1254300638202448 1 0 0 0 0 -1 forward_v I I I I #
coedge $-1 $206 $136 $207 $208 forward $82 $-1 #
coedge $-1 $209 $84 $206 $210 forward $50 $-1 #
coedge $-1 $84 $209 $211 $212 forward $50 $-1 #
coedge $-1 $139 $138 $84 $132 reversed $140 $-1 #
edge $-1 $213 -31.76611760679386975 $214 31.76611760679386975 $131 $215 forward 7 unknown #
coedge $-1 $86 $85 $216 $217 forward $29 $-1 #
coedge $-1 $218 $219 $85 $135 reversed $203 $-1 #
edge $-1 $142 -79.05880916776024492 $220 79.05880916776024492 $134 $221 forward 7 unknown #
coedge $-1 $128 $222 $86 $137 reversed $82 $-1 #
edge $-1 $223 -79.05880916776024492 $141 79.05880916776024492 $136 $224 forward 7 unknown #
coedge $-1 $131 $87 $222 $225 forward $140 $-1 #
coedge $-1 $87 $131 $218 $226 reversed $140 $-1 #
loop $-1 $-1 $138 $202 #
vertex $-1 $88 $227 #
vertex $-1 $88 $228 #
straight-curve $-1 158.1176183355204898 31.76611760679386975 30.25086012764048959 0 1 0 I I #
face $-1 $229 $230 $15 $-1 $231 reversed single #
loop $-1 $-1 $232 $89 #
plane-surface $-1 -340.8099165795725867 6.008970206677157755 -78.68469041896162253 0.7431448182313465933 0 0.6691306144064093075 0.6691306144064093075 0 -0.7431448182313465933 forward_v I I I I #
coedge $-1 $233 $155 $234 $235 forward $90 $-1 #
coedge $-1 $236 $92 $233 $237 forward $54 $-1 #
coedge $-1 $92 $236 $238 $239 forward $54 $-1 #
coedge $-1 $158 $157 $92 $151 reversed $159 $-1 #
edge $-1 $240 -6.008970206677157755 $241 6.008970206677157755 $150 $242 forward 7 unknown #
coedge $-1 $94 $93 $243 $244 forward $32 $-1 #
coedge $-1 $245 $246 $93 $154 reversed $230 $-1 #
edge $-1 $161 -316.2352366710409797 $247 316.2352366710409797 $153 $248 forward 7 unknown #
coedge $-1 $147 $249 $94 $156 reversed $90 $-1 #
edge $-1 $250 -316.2352366710409797 $160 316.2352366710409797 $155 $251 forward 7 unknown #
coedge $-1 $150 $95 $249 $252 forward $159 $-1 #
coedge $-1 $95 $150 $245 $253 reversed $159 $-1 #
loop $-1 $-1 $157 $229 #
vertex $-1 $96 $254 #
vertex $-1 $96 $255 #
straight-curve $-1 23.40589926359773187 6.008970206677157755 462.0249547394620322 0 1 0 I I #
loop $-1 $-1 $256 $57 #
coedge $-1 $164 $164 $100 $165 reversed $97 $-1 #
edge $-1 $257 0 $257 6.283185307179586232 $164 $258 forward 7 unknown #
vertex $-1 $101 $259 #
ellipse-curve $-1 8.239168206719758913 3.433697260958375796 22.83227959110248051 -0.6691306144064093075 0 0.7431448182313465933 0.7431448182313465933 0 0.6691306144064093075 1 I I #
loop $-1 $-1 $260 $62 #
coedge $-1 $169 $169 $105 $170 reversed $102 $-1 #
edge $-1 $261 0 $261 6.283185307179586232 $169 $262 forward 7 unknown #
vertex $-1 $106 $263 #
ellipse-curve $-1 8.239168206719758913 8.584243152395940157 22.83227959110248051 -0.6691306144064093075 0 0.7431448182313465933 0.7431448182313465933 0 0.6691306144064093075 1 I I #
face $-1 $264 $265 $18 $-1 $266 reversed single #
loop $-1 $-1 $267 $107 #
plane-surface $-1 -96.14653004116991042 55.62231722408792223 454.79536295695425 0.754709573287431712 0 -0.6560590369687036016 -0.6560590369687036016 0 -0.754709573287431712 forward_v I I I I #
coedge $-1 $268 $184 $269 $270 forward $108 $-1 #
coedge $-1 $271 $110 $268 $272 forward $68 $-1 #
coedge $-1 $110 $271 $273 $274 forward $68 $-1 #
coedge $-1 $187 $186 $110 $180 reversed $188 $-1 #
edge $-1 $275 -5.140338919843230769 $276 5.140338919843230769 $179 $277 forward 7 unknown #
coedge $-1 $112 $111 $278 $279 forward $41 $-1 #
coedge $-1 $280 $281 $111 $183 reversed $265 $-1 #
edge $-1 $190 -316.2352366710409797 $282 316.2352366710409797 $182 $283 forward 7 unknown #
coedge $-1 $176 $284 $112 $185 reversed $108 $-1 #
edge $-1 $285 -316.2352366710409797 $189 316.2352366710409797 $184 $286 forward 7 unknown #
coedge $-1 $179 $113 $284 $287 forward $188 $-1 #
coedge $-1 $113 $179 $280 $288 reversed $188 $-1 #
loop $-1 $-1 $186 $264 #
vertex $-1 $114 $289 #
vertex $-1 $114 $290 #
straight-curve $-1 484.9194834247193171 55.62231722408792223 159.1902735682334935 0 1 0 I I #
loop $-1 $-1 $291 $71 #
coedge $-1 $193 $193 $118 $194 reversed $115 $-1 #
edge $-1 $292 0 $292 6.283185307179586232 $193 $293 forward 7 unknown #
vertex $-1 $119 $294 #
ellipse-curve $-1 154.6711982509366976 53.41931482986939272 27.25493279120464507 0.6560590369687036016 0 0.754709573287431712 0.754709573287431712 0 -0.6560590369687036016 1 I I #
loop $-1 $-1 $295 $76 #
coedge $-1 $198 $198 $123 $199 reversed $120 $-1 #
edge $-1 $296 0 $296 6.283185307179586232 $198 $297 forward 7 unknown #
vertex $-1 $124 $298 #
ellipse-curve $-1 154.6711982509366976 57.82531961830644462 27.25493279120464507 0.6560590369687036016 0 0.754709573287431712 0.754709573287431712 0 -0.6560590369687036016 1 I I #
face $-1 $-1 $140 $14 $-1 $299 reversed single #
loop $-1 $-1 $218 $125 #
plane-surface $-1 79.05880916776024492 63.53223521358773951 15.1254300638202448 0 -1 0 0 0 -1 forward_v I I I I #
coedge $-1 $300 $216 $219 $301 forward $126 $-1 #
coedge $-1 $222 $128 $129 $210 reversed $82 $-1 #
coedge $-1 $216 $300 $128 $208 reversed $126 $-1 #
edge $-1 $223 -15.1254300638202448 $302 15.1254300638202448 $207 $303 forward 7 unknown #
coedge $-1 $130 $129 $300 $304 forward $50 $-1 #
edge $-1 $214 -79.05880916776024492 $302 79.05880916776024492 $206 $305 forward 7 unknown #
coedge $-1 $219 $218 $130 $212 reversed $203 $-1 #
edge $-1 $306 -79.05880916776024492 $213 79.05880916776024492 $211 $307 forward 7 unknown #
vertex $-1 $132 $308 #
vertex $-1 $225 $309 #
straight-curve $-1 158.1176183355204898 31.76611760679386975 0 0 -1 0 I I #
coedge $-1 $205 $207 $133 $217 reversed $126 $-1 #
edge $-1 $220 -31.76611760679386975 $223 31.76611760679386975 $216 $310 forward 7 unknown #
coedge $-1 $211 $134 $139 $226 forward $203 $-1 #
coedge $-1 $134 $211 $205 $301 reversed $203 $-1 #
vertex $-1 $135 $311 #
straight-curve $-1 79.05880916776024492 63.53223521358773951 30.25086012764048959 -1 0 0 I I #
coedge $-1 $136 $206 $138 $225 reversed $82 $-1 #
vertex $-1 $217 $312 #
straight-curve $-1 79.05880916776024492 0 30.25086012764048959 1 0 0 I I #
edge $-1 $141 -15.1254300638202448 $214 15.1254300638202448 $138 $313 forward 7 unknown #
edge $-1 $142 -15.1254300638202448 $213 15.1254300638202448 $139 $314 forward 7 unknown #
point $-1 158.1176183355204898 0 30.25086012764048959 #
point $-1 158.1176183355204898 63.53223521358773951 30.25086012764048959 #
face $-1 $-1 $159 $15 $-1 $315 reversed single #
loop $-1 $-1 $245 $144 #
plane-surface $-1 -105.8013391053249421 12.01794041335431551 132.9179877916882901 0 -1 0 0.6691306144064093075 0 -0.7431448182313465933 forward_v I I I I #
coedge $-1 $316 $243 $246 $317 forward $145 $-1 #
coedge $-1 $249 $147 $148 $237 reversed $90 $-1 #
coedge $-1 $243 $316 $147 $235 reversed $145 $-1 #
edge $-1 $250 -158.1176183355204898 $318 158.1176183355205183 $234 $319 forward 7 unknown #
coedge $-1 $149 $148 $316 $320 forward $54 $-1 #
edge $-1 $241 -316.2352366710409797 $318 316.2352366710409797 $233 $321 forward 7 unknown #
coedge $-1 $246 $245 $149 $239 reversed $230 $-1 #
edge $-1 $322 -316.2352366710409797 $240 316.2352366710409797 $238 $323 forward 7 unknown #
vertex $-1 $151 $324 #
vertex $-1 $252 $325 #
straight-curve $-1 235.0085774742476588 6.008970206677157755 227.0163772652143734 0 -1 0 I I #
coedge $-1 $232 $234 $152 $244 reversed $145 $-1 #
edge $-1 $247 -6.008970206677157755 $250 6.008970206677157755 $243 $326 forward 7 unknown #
coedge $-1 $238 $153 $158 $253 forward $230 $-1 #
coedge $-1 $153 $238 $232 $317 reversed $230 $-1 #
vertex $-1 $154 $327 #
straight-curve $-1 -211.6026782106499127 12.01794041335431551 250.4222765288121195 -0.7431448182313465933 0 -0.6691306144064093075 I I #
coedge $-1 $155 $233 $157 $252 reversed $90 $-1 #
vertex $-1 $244 $328 #
straight-curve $-1 -211.6026782106499127 0 250.4222765288121195 0.7431448182313465933 0 0.6691306144064093075 I I #
edge $-1 $160 -158.1176183355204898 $241 158.1176183355205183 $157 $329 forward 7 unknown #
edge $-1 $161 -158.1176183355204898 $240 158.1176183355205183 $158 $330 forward 7 unknown #
point $-1 23.40589926359773187 0 462.0249547394620322 #
point $-1 23.40589926359773187 12.01794041335431551 462.0249547394620322 #
coedge $-1 $256 $256 $-1 $331 reversed $163 $-1 #
vertex $-1 $165 $332 #
ellipse-curve $-1 9.943698141852758354 3.433697260958375796 20.93920735446895875 -0.6691306144064093075 0 0.7431448182313465933 0.7431448182313465933 0 0.6691306144064093075 1 I I #
point $-1 8.982313024951105618 3.433697260958375796 23.50141020550888982 #
coedge $-1 $260 $260 $-1 $333 reversed $168 $-1 #
vertex $-1 $170 $334 #
ellipse-curve $-1 9.943698141852758354 8.584243152395940157 20.93920735446895875 -0.6691306144064093075 0 0.7431448182313465933 0.7431448182313465933 0 0.6691306144064093075 1 I I #
point $-1 8.982313024951105618 8.584243152395940157 23.50141020550888982 #
face $-1 $-1 $188 $18 $-1 $335 reversed single #
loop $-1 $-1 $280 $173 #
plane-surface $-1 142.5192304852814118 60.762656143931153 247.326378130981027 0 -1 0 -0.6560590369687036016 0 -0.754709573287431712 forward_v I I I I #
coedge $-1 $336 $278 $281 $337 forward $174 $-1 #
coedge $-1 $284 $176 $177 $272 reversed $108 $-1 #
coedge $-1 $278 $336 $176 $270 reversed $174 $-1 #
edge $-1 $285 -158.1176183355204898 $338 158.1176183355204898 $269 $339 forward 7 unknown #
coedge $-1 $178 $177 $336 $340 forward $68 $-1 #
edge $-1 $276 -316.2352366710409797 $338 316.2352366710409797 $268 $341 forward 7 unknown #
coedge $-1 $281 $280 $178 $274 reversed $265 $-1 #
edge $-1 $342 -316.2352366710409797 $275 316.2352366710409797 $273 $343 forward 7 unknown #
vertex $-1 $180 $344 #
vertex $-1 $287 $345 #
straight-curve $-1 277.4504985987461509 55.62231722408792223 -79.47548695821780029 0 -1 0 I I #
coedge $-1 $267 $269 $181 $279 reversed $174 $-1 #
edge $-1 $282 -5.140338919843230769 $285 5.140338919843230769 $278 $346 forward 7 unknown #
coedge $-1 $273 $182 $187 $288 forward $265 $-1 #
coedge $-1 $182 $273 $267 $337 reversed $265 $-1 #
vertex $-1 $183 $347 #
straight-curve $-1 246.2537228982679949 60.762656143931153 366.6592583942066881 -0.754709573287431712 0 0.6560590369687036016 I I #
coedge $-1 $184 $268 $186 $287 reversed $108 $-1 #
vertex $-1 $279 $348 #
straight-curve $-1 246.2537228982679949 50.48197830424469146 366.6592583942066881 0.754709573287431712 0 -0.6560590369687036016 I I #
edge $-1 $189 -158.1176183355204898 $276 158.1176183355204614 $186 $349 forward 7 unknown #
edge $-1 $190 -158.1176183355204898 $275 158.1176183355204614 $187 $350 forward 7 unknown #
point $-1 484.9194834247193171 50.48197830424469146 159.1902735682334935 #
point $-1 484.9194834247193171 60.762656143931153 159.1902735682334935 #
coedge $-1 $291 $291 $-1 $351 reversed $192 $-1 #
vertex $-1 $194 $352 #
ellipse-curve $-1 152.1815696321472728 53.41931482986939272 24.39094274358277659 0.6560590369687036016 0 0.754709573287431712 0.754709573287431712 0 -0.6560590369687036016 1 I I #
point $-1 155.4259078242241401 53.41931482986939272 26.5988737542359388 #
coedge $-1 $295 $295 $-1 $353 reversed $197 $-1 #
vertex $-1 $199 $354 #
ellipse-curve $-1 152.1815696321472728 57.82531961830644462 24.39094274358277659 0.6560590369687036016 0 0.754709573287431712 0.754709573287431712 0 -0.6560590369687036016 1 I I #
point $-1 155.4259078242241401 57.82531961830644462 26.5988737542359388 #
plane-surface $-1 158.1176183355204898 31.76611760679386975 15.1254300638202448 -1 0 0 0 0 1 forward_v I I I I #
coedge $-1 $207 $205 $209 $304 reversed $126 $-1 #
edge $-1 $220 -15.1254300638202448 $306 15.1254300638202448 $219 $355 forward 7 unknown #
vertex $-1 $304 $356 #
straight-curve $-1 0 0 15.1254300638202448 0 0 -1 I I #
edge $-1 $302 -31.76611760679386975 $306 31.76611760679386975 $300 $357 forward 7 unknown #
straight-curve $-1 79.05880916776024492 0 0 -1 0 0 I I #
vertex $-1 $212 $358 #
straight-curve $-1 79.05880916776024492 63.53223521358773951 0 1 0 0 I I #
point $-1 158.1176183355204898 63.53223521358773951 0 #
point $-1 158.1176183355204898 0 0 #
straight-curve $-1 0 31.76611760679386975 30.25086012764048959 0 -1 0 I I #
point $-1 0 63.53223521358773951 30.25086012764048959 #
point $-1 0 0 30.25086012764048959 #
straight-curve $-1 158.1176183355204898 0 15.1254300638202448 0 0 -1 I I #
straight-curve $-1 158.1176183355204898 63.53223521358773951 15.1254300638202448 0 0 -1 I I #
plane-surface $-1 129.207238368922674 6.008970206677157755 344.5206660023382028 -0.7431448182313465933 0 -0.6691306144064093075 -0.6691306144064093075 0 0.7431448182313465933 forward_v I I I I #
coedge $-1 $234 $232 $236 $320 reversed $145 $-1 #
edge $-1 $247 -158.1176183355204898 $322 158.1176183355205183 $246 $359 forward 7 unknown #
vertex $-1 $320 $360 #
straight-curve $-1 -340.8099165795725867 0 -78.68469041896162253 0.6691306144064093075 0 -0.7431448182313465933 I I #
edge $-1 $318 -6.008970206677157755 $322 6.008970206677157755 $316 $361 forward 7 unknown #
straight-curve $-1 1.421085471520200372e-14 0 15.41369905456447498 -0.7431448182313465933 0 -0.6691306144064093075 I I #
vertex $-1 $239 $362 #
straight-curve $-1 1.421085471520200372e-14 12.01794041335431551 15.41369905456447498 0.7431448182313465933 0 0.6691306144064093075 I I #
point $-1 235.0085774742476588 12.01794041335431551 227.0163772652143734 #
point $-1 235.0085774742476588 0 227.0163772652143734 #
straight-curve $-1 -446.6112556848975146 6.008970206677157755 38.81959831816219264 0 -1 0 I I #
point $-1 -446.6112556848975146 12.01794041335431551 38.81959831816219264 #
point $-1 -446.6112556848975146 0 38.81959831816219264 #
straight-curve $-1 129.207238368922674 0 344.5206660023382028 0.6691306144064093075 0 -0.7431448182313465933 I I #
straight-curve $-1 129.207238368922674 12.01794041335431551 344.5206660023382028 0.6691306144064093075 0 -0.7431448182313465933 I I #
edge $-1 $363 1 $363 0 $256 $-1 forward 7 unknown #
point $-1 10.68684296008410506 3.433697260958375796 21.60833796887536806 #
edge $-1 $364 1 $364 0 $260 $-1 forward 7 unknown #
point $-1 10.68684296008410506 8.584243152395940157 21.60833796887536806 #
plane-surface $-1 381.184991011732734 55.62231722408792223 39.8573933050078324 -0.754709573287431712 0 0.6560590369687036016 0.6560590369687036016 0 0.754709573287431712 forward_v I I I I #
coedge $-1 $269 $267 $271 $340 reversed $174 $-1 #
edge $-1 $282 -158.1176183355204898 $342 158.1176183355204898 $281 $365 forward 7 unknown #
vertex $-1 $340 $366 #
straight-curve $-1 -96.14653004116991042 50.48197830424469146 454.79536295695425 -0.6560590369687036016 0 -0.754709573287431712 I I #
edge $-1 $338 -5.140338919843230769 $342 5.140338919843230769 $336 $367 forward 7 unknown #
straight-curve $-1 38.78473807229481451 50.48197830424469146 127.9934978677553659 -0.754709573287431712 0 0.6560590369687036016 I I #
vertex $-1 $274 $368 #
straight-curve $-1 38.78473807229481451 60.762656143931153 127.9934978677553659 0.754709573287431712 0 -0.6560590369687036016 I I #
point $-1 277.4504985987461509 60.762656143931153 -79.47548695821780029 #
point $-1 277.4504985987461509 50.48197830424469146 -79.47548695821780029 #
straight-curve $-1 7.587962371816672658 55.62231722408792223 574.1282432201799111 0 -1 0 I I #
point $-1 7.587962371816672658 60.762656143931153 574.1282432201799111 #
point $-1 7.587962371816672658 50.48197830424469146 574.1282432201799111 #
straight-curve $-1 381.184991011732734 50.48197830424469146 39.8573933050078324 -0.6560590369687036016 0 -0.754709573287431712 I I #
straight-curve $-1 381.184991011732734 60.762656143931153 39.8573933050078324 -0.6560590369687036016 0 -0.754709573287431712 I I #
edge $-1 $369 1 $369 0 $291 $-1 forward 7 unknown #
point $-1 152.9362792054346869 53.41931482986939272 23.73488370661407387 #
edge $-1 $370 1 $370 0 $295 $-1 forward 7 unknown #
point $-1 152.9362792054346869 57.82531961830644462 23.73488370661407387 #
straight-curve $-1 0 63.53223521358773951 15.1254300638202448 0 0 -1 I I #
point $-1 0 0 0 #
straight-curve $-1 0 31.76611760679386975 0 0 1 0 I I #
point $-1 0 63.53223521358773951 0 #
straight-curve $-1 -340.8099165795725867 12.01794041335431551 -78.68469041896162253 0.6691306144064093075 0 -0.7431448182313465933 I I #
point $-1 -235.0085774742476019 0 -196.1889791560854519 #
straight-curve $-1 -235.0085774742476019 6.008970206677157755 -196.1889791560854519 0 1 0 I I #
point $-1 -235.0085774742476019 12.01794041335431551 -196.1889791560854519 #
vertex $-1 $331 $371 #
vertex $-1 $333 $372 #
straight-curve $-1 -96.14653004116991042 60.762656143931153 454.79536295695425 -0.6560590369687036016 0 -0.754709573287431712 I I #
point $-1 -199.8810224541564935 50.48197830424469146 335.4624826937285889 #
straight-curve $-1 -199.8810224541564935 55.62231722408792223 335.4624826937285889 0 1 0 I I #
point $-1 -199.8810224541564935 60.762656143931153 335.4624826937285889 #
vertex $-1 $351 $373 #
vertex $-1 $353 $374 #
point $-1 10.61282875625916766 3.433697260958375796 20.1960625362376156 #
point $-1 10.61282875625916766 8.584243152395940157 20.1960625362376156 #
point $-1 151.5255105951785595 53.41931482986939272 23.63623317029534832 #
point $-1 151.5255105951785595 57.82531961830644462 23.63623317029534832 #
End-of-ACIS-data 