600 0 8 0           
94 GICL ACIS Healer - Source: /gicl/data5/repository/Drexel/SM99-DATA/part97.smdg.delta.sat - 6 0 18 ACIS 6.0.3 Solaris 24 Sat Apr 13 20:47:16 2002 
1 9.999999999999999547e-07 1.000000000000000036e-10 
body $-1 $8 $-1 $-1 #
body $-1 $9 $-1 $-1 #
body $-1 $10 $-1 $-1 #
body $-1 $11 $-1 $-1 #
body $-1 $12 $-1 $-1 #
body $-1 $13 $-1 $-1 #
body $-1 $14 $-1 $-1 #
body $-1 $15 $-1 $-1 #
lump $-1 $-1 $16 $0 #
lump $-1 $-1 $17 $1 #
lump $-1 $-1 $18 $2 #
lump $-1 $-1 $19 $3 #
lump $-1 $-1 $20 $4 #
lump $-1 $-1 $21 $5 #
lump $-1 $-1 $22 $6 #
lump $-1 $-1 $23 $7 #
shell $-1 $-1 $-1 $24 $-1 $8 #
shell $-1 $-1 $-1 $25 $-1 $9 #
shell $-1 $-1 $-1 $26 $-1 $10 #
shell $-1 $-1 $-1 $27 $-1 $11 #
shell $-1 $-1 $-1 $28 $-1 $12 #
shell $-1 $-1 $-1 $29 $-1 $13 #
shell $-1 $-1 $-1 $30 $-1 $14 #
shell $-1 $-1 $-1 $31 $-1 $15 #
face $-1 $32 $33 $16 $-1 $34 forward single #
face $-1 $35 $36 $17 $-1 $37 forward single #
face $-1 $38 $39 $18 $-1 $40 reversed single #
face $-1 $41 $42 $19 $-1 $43 forward single #
face $-1 $44 $45 $20 $-1 $46 forward single #
face $-1 $47 $48 $21 $-1 $49 reversed single #
face $-1 $50 $51 $22 $-1 $52 forward single #
face $-1 $53 $54 $23 $-1 $55 forward single #
face $-1 $56 $57 $16 $-1 $58 reversed single #
loop $-1 $-1 $59 $24 #
plane-surface $-1 60.63417462691121784 41.31643413799929476 30.52349765777166368 0 0 1 1 0 0 forward_v I I I I #
face $-1 $60 $61 $17 $-1 $62 reversed single #
loop $-1 $-1 $63 $25 #
plane-surface $-1 60.63417462691121784 0 15.26174882888583184 0 1 0 0 0 1 forward_v I I I I #
face $-1 $64 $65 $18 $-1 $66 reversed single #
loop $-1 $-1 $67 $26 #
plane-surface $-1 127.2535921282594984 53.51102796416913066 193.8766336772453656 0 -1 0 -0.7313537098837770145 0 -0.6819983511997929071 forward_v I I I I #
face $-1 $68 $69 $19 $-1 $70 forward single #
loop $-1 $71 $72 $27 #
cone-surface $-1 116.3073764337293028 43.20836208159078495 25.37293167694154761 -0.7313537098837770145 0 -0.6819983511997929071 1.363996702399585814 0 -1.462707419767554029 1 I I 0 1 2 forward I I I I #
face $-1 $73 $74 $20 $-1 $75 forward single #
loop $-1 $76 $77 $28 #
cone-surface $-1 116.3073764337293028 49.38996161113779237 25.37293167694154761 -0.7313537098837770145 0 -0.6819983511997929071 1.363996702399585814 0 -1.462707419767554029 1 I I 0 1 2 forward I I I I #
face $-1 $78 $79 $21 $-1 $80 reversed single #
loop $-1 $-1 $81 $29 #
plane-surface $-1 -66.0474775808211092 37.88337464799752752 120.2167084666457697 0 1 0 -0.5446390421508873203 0 0.8386705633113421543 forward_v I I I I #
face $-1 $82 $83 $22 $-1 $84 forward single #
loop $-1 $85 $86 $30 #
cone-surface $-1 9.579703977205468846 40.69717793299501096 24.00668204821517193 0.5446390421508873203 0 -0.8386705633113421543 0.8386705633113421543 0 0.5446390421508873203 1 I I 0 1 1 forward I I I I #
face $-1 $87 $88 $23 $-1 $89 forward single #
loop $-1 $90 $91 $31 #
cone-surface $-1 9.579703977205468846 44.91788286049123258 24.00668204821517193 0.5446390421508873203 0 -0.8386705633113421543 0.8386705633113421543 0 0.5446390421508873203 1 I I 0 1 1 forward I I I I #
face $-1 $92 $93 $16 $-1 $94 reversed single #
loop $-1 $-1 $95 $32 #
plane-surface $-1 60.63417462691121784 41.31643413799929476 0 0 0 1 1 0 0 forward_v I I I I #
coedge $-1 $96 $97 $98 $99 forward $33 $-1 #
face $-1 $100 $101 $17 $-1 $102 forward single #
loop $-1 $-1 $103 $35 #
plane-surface $-1 0 41.31643413799929476 15.26174882888583184 1 0 0 0 0 -1 forward_v I I I I #
coedge $-1 $104 $105 $106 $107 forward $36 $-1 #
face $-1 $108 $109 $18 $-1 $110 reversed single #
loop $-1 $-1 $111 $38 #
plane-surface $-1 38.5635350099948937 46.29916184636428511 111.1718194334178236 0.7313537098837770145 0 0.6819983511997929071 0.6819983511997929071 0 -0.7313537098837770145 forward_v I I I I #
coedge $-1 $112 $113 $114 $115 reversed $39 $-1 #
face $-1 $-1 $116 $19 $-1 $117 forward single #
loop $-1 $118 $119 $41 #
cone-surface $-1 114.3645695755145226 43.20836208159078495 23.5612350162208628 -0.7313537098837770145 0 -0.6819983511997929071 0.6819983511997929071 0 -0.7313537098837770145 1 I I -0.7071067811865474617 0.7071067811865474617 1 forward I I I I #
loop $-1 $-1 $120 $27 #
coedge $-1 $72 $72 $121 $122 reversed $42 $-1 #
face $-1 $-1 $123 $20 $-1 $124 forward single #
loop $-1 $125 $126 $44 #
cone-surface $-1 114.3645695755145226 49.38996161113779237 23.5612350162208628 -0.7313537098837770145 0 -0.6819983511997929071 0.6819983511997929071 0 -0.7313537098837770145 1 I I -0.7071067811865474617 0.7071067811865474617 1 forward I I I I #
loop $-1 $-1 $127 $28 #
coedge $-1 $77 $77 $128 $129 reversed $45 $-1 #
face $-1 $130 $131 $21 $-1 $132 reversed single #
loop $-1 $-1 $133 $47 #
plane-surface $-1 1.421085471520200372e-14 42.80753039674312532 18.51251368610593673 -0.5446390421508873203 0 0.8386705633113421543 0.8386705633113421543 0 0.5446390421508873203 forward_v I I I I #
coedge $-1 $134 $135 $136 $137 reversed $48 $-1 #
face $-1 $-1 $138 $22 $-1 $139 forward single #
loop $-1 $140 $141 $50 #
cone-surface $-1 10.1840809482937118 40.69717793299501096 23.07602314283586509 0.5446390421508873203 0 -0.8386705633113421543 0.4193352816556710772 0 0.2723195210754436602 1 I I -0.7071067811865474617 0.7071067811865474617 0.5 forward I I I I #
loop $-1 $-1 $142 $30 #
coedge $-1 $86 $86 $143 $144 reversed $51 $-1 #
face $-1 $-1 $145 $23 $-1 $146 forward single #
loop $-1 $147 $148 $53 #
cone-surface $-1 10.1840809482937118 44.91788286049123258 23.07602314283586509 0.5446390421508873203 0 -0.8386705633113421543 0.4193352816556710772 0 0.2723195210754436602 1 I I -0.7071067811865474617 0.7071067811865474617 0.5 forward I I I I #
loop $-1 $-1 $149 $31 #
coedge $-1 $91 $91 $150 $151 reversed $54 $-1 #
face $-1 $152 $153 $16 $-1 $154 reversed single #
loop $-1 $-1 $155 $56 #
plane-surface $-1 60.63417462691121784 0 15.26174882888583184 0 1 0 0 0 1 forward_v I I I I #
coedge $-1 $156 $157 $158 $159 forward $57 $-1 #
coedge $-1 $160 $59 $161 $162 forward $33 $-1 #
coedge $-1 $59 $160 $163 $164 forward $33 $-1 #
coedge $-1 $165 $166 $59 $99 reversed $167 $-1 #
edge $-1 $168 -41.31643413799929476 $169 41.31643413799929476 $98 $170 forward 7 unknown #
face $-1 $171 $172 $17 $-1 $173 reversed single #
loop $-1 $-1 $174 $60 #
plane-surface $-1 60.63417462691121784 -5.685002603174538649 15.41274862860889883 0 0 1 1 0 0 forward_v I I I I #
coedge $-1 $175 $176 $105 $177 forward $61 $-1 #
coedge $-1 $178 $63 $179 $180 reversed $36 $-1 #
coedge $-1 $63 $178 $103 $177 reversed $36 $-1 #
coedge $-1 $181 $174 $63 $107 reversed $101 $-1 #
edge $-1 $182 -60.63417462691121784 $183 60.63417462691121784 $106 $184 forward 7 unknown #
face $-1 $185 $186 $18 $-1 $187 reversed single #
loop $-1 $-1 $188 $64 #
plane-surface $-1 127.2535921282594984 39.08729572855943957 193.8766336772453656 0 1 0 0.7313537098837770145 0 0.6819983511997929071 forward_v I I I I #
coedge $-1 $189 $190 $191 $192 reversed $65 $-1 #
coedge $-1 $113 $67 $193 $194 reversed $39 $-1 #
coedge $-1 $67 $112 $189 $195 reversed $39 $-1 #
coedge $-1 $191 $196 $67 $115 forward $197 $-1 #
edge $-1 $198 -27.32446587623707046 $199 -19.82542653271279676 $114 $200 forward 7 unknown #
loop $-1 $-1 $121 $68 #
plane-surface $-1 38.5635350099948937 46.29916184636428511 111.1718194334178236 0.7313537098837770145 0 0.6819983511997929071 0.6819983511997929071 0 -0.7313537098837770145 forward_v I I I I #
loop $-1 $-1 $201 $41 #
coedge $-1 $119 $119 $120 $202 reversed $69 $-1 #
coedge $-1 $120 $120 $119 $202 forward $71 $-1 #
coedge $-1 $121 $121 $72 $122 forward $116 $-1 #
edge $-1 $203 0 $203 6.283185307179586232 $121 $204 forward 7 unknown #
loop $-1 $-1 $128 $73 #
plane-surface $-1 38.5635350099948937 46.29916184636428511 111.1718194334178236 0.7313537098837770145 0 0.6819983511997929071 0.6819983511997929071 0 -0.7313537098837770145 forward_v I I I I #
loop $-1 $-1 $205 $44 #
coedge $-1 $126 $126 $127 $206 reversed $74 $-1 #
coedge $-1 $127 $127 $126 $206 forward $76 $-1 #
coedge $-1 $128 $128 $77 $129 forward $123 $-1 #
edge $-1 $207 0 $207 6.283185307179586232 $128 $208 forward 7 unknown #
face $-1 $209 $210 $21 $-1 $211 forward single #
loop $-1 $-1 $212 $78 #
plane-surface $-1 -66.0474775808211092 47.73168614548872313 120.2167084666457697 0 -1 0 0.5446390421508873203 0 -0.8386705633113421543 forward_v I I I I #
coedge $-1 $213 $214 $215 $216 reversed $79 $-1 #
coedge $-1 $135 $81 $217 $218 reversed $48 $-1 #
coedge $-1 $81 $134 $213 $219 reversed $48 $-1 #
coedge $-1 $215 $220 $81 $137 forward $210 $-1 #
edge $-1 $221 2.706651476954945679 $222 21.20194453134030965 $136 $223 forward 7 unknown #
loop $-1 $-1 $143 $82 #
plane-surface $-1 1.421085471520200372e-14 42.80753039674312532 18.51251368610593673 -0.5446390421508873203 0 0.8386705633113421543 0.8386705633113421543 0 0.5446390421508873203 forward_v I I I I #
loop $-1 $-1 $224 $50 #
coedge $-1 $141 $141 $142 $225 reversed $83 $-1 #
coedge $-1 $142 $142 $141 $225 forward $85 $-1 #
coedge $-1 $143 $143 $86 $144 forward $138 $-1 #
edge $-1 $226 0 $226 6.283185307179586232 $143 $227 forward 7 unknown #
loop $-1 $-1 $150 $87 #
plane-surface $-1 1.421085471520200372e-14 42.80753039674312532 18.51251368610593673 -0.5446390421508873203 0 0.8386705633113421543 0.8386705633113421543 0 0.5446390421508873203 forward_v I I I I #
loop $-1 $-1 $228 $53 #
coedge $-1 $148 $148 $149 $229 reversed $88 $-1 #
coedge $-1 $149 $149 $148 $229 forward $90 $-1 #
coedge $-1 $150 $150 $91 $151 forward $145 $-1 #
edge $-1 $230 0 $230 6.283185307179586232 $150 $231 forward 7 unknown #
face $-1 $232 $233 $16 $-1 $234 reversed single #
loop $-1 $-1 $235 $92 #
plane-surface $-1 0 41.31643413799929476 15.26174882888583184 1 0 0 0 0 -1 forward_v I I I I #
coedge $-1 $236 $163 $237 $238 forward $93 $-1 #
coedge $-1 $239 $95 $236 $240 forward $57 $-1 #
coedge $-1 $95 $239 $241 $242 forward $57 $-1 #
coedge $-1 $166 $165 $95 $159 reversed $167 $-1 #
edge $-1 $243 -41.31643413799929476 $244 41.31643413799929476 $158 $245 forward 7 unknown #
coedge $-1 $97 $96 $246 $247 forward $33 $-1 #
coedge $-1 $248 $249 $96 $162 reversed $233 $-1 #
edge $-1 $169 -60.63417462691121784 $250 60.63417462691121784 $161 $251 forward 7 unknown #
coedge $-1 $155 $252 $97 $164 reversed $93 $-1 #
edge $-1 $253 -60.63417462691121784 $168 60.63417462691121784 $163 $254 forward 7 unknown #
coedge $-1 $158 $98 $252 $255 forward $167 $-1 #
coedge $-1 $98 $158 $248 $256 reversed $167 $-1 #
loop $-1 $-1 $165 $232 #
vertex $-1 $99 $257 #
vertex $-1 $99 $258 #
straight-curve $-1 121.2683492538224357 41.31643413799929476 30.52349765777166368 0 1 0 I I #
face $-1 $259 $260 $17 $-1 $261 reversed single #
loop $-1 $-1 $262 $100 #
plane-surface $-1 60.63417462691121784 -5.685002603174538649 7.101530071755828288 0 0 1 1 0 0 forward_v I I I I #
coedge $-1 $106 $263 $264 $265 forward $101 $-1 #
coedge $-1 $266 $103 $267 $268 reversed $61 $-1 #
coedge $-1 $103 $266 $181 $269 reversed $61 $-1 #
edge $-1 $182 -0.1509997997230669853 $270 8.160218757130003553 $103 $271 forward 7 unknown #
coedge $-1 $105 $104 $272 $273 forward $36 $-1 #
coedge $-1 $264 $274 $104 $180 forward $275 $-1 #
edge $-1 $276 -8.160218757130003553 $183 0.1509997997230669853 $179 $277 forward 7 unknown #
coedge $-1 $263 $106 $176 $269 forward $101 $-1 #
vertex $-1 $177 $278 #
vertex $-1 $265 $279 #
straight-curve $-1 60.63417462691121784 0 15.41274862860889883 1 0 0 I I #
face $-1 $-1 $197 $18 $-1 $280 forward single #
loop $-1 $-1 $281 $108 #
plane-surface $-1 121.2683492538224357 41.31643413799929476 15.26174882888583184 -1 0 0 0 0 1 forward_v I I I I #
coedge $-1 $282 $283 $284 $285 reversed $109 $-1 #
coedge $-1 $286 $111 $113 $195 forward $65 $-1 #
coedge $-1 $111 $286 $282 $287 forward $65 $-1 #
coedge $-1 $284 $114 $111 $192 forward $197 $-1 #
edge $-1 $199 -9.703229971987340718 $288 4.72050226362235037 $191 $289 forward 7 unknown #
coedge $-1 $290 $291 $112 $194 forward $186 $-1 #
edge $-1 $292 -82.08742893791237805 $198 -74.04569359529392614 $193 $293 forward 7 unknown #
edge $-1 $199 110.2726638092290159 $292 121.2683492538224357 $113 $294 forward 7 unknown #
coedge $-1 $114 $284 $290 $295 forward $197 $-1 #
loop $-1 $-1 $284 $185 #
vertex $-1 $194 $296 #
vertex $-1 $115 $297 #
straight-curve $-1 93.94388337758536522 53.51102796416913066 30.52349765777166013 -1 0 0 I I #
coedge $-1 $201 $201 $-1 $298 reversed $118 $-1 #
edge $-1 $299 0 $299 6.283185307179586232 $119 $300 forward 7 unknown #
vertex $-1 $122 $301 #
ellipse-curve $-1 117.5188295820602917 43.20836208159078495 26.50262998646244128 0.7313537098837770145 0 0.6819983511997929071 1.363996702399585814 0 -1.462707419767554029 1 I I #
coedge $-1 $205 $205 $-1 $302 reversed $125 $-1 #
edge $-1 $303 0 $303 6.283185307179586232 $126 $304 forward 7 unknown #
vertex $-1 $129 $305 #
ellipse-curve $-1 117.5188295820602917 49.38996161113779237 26.50262998646244128 0.7313537098837770145 0 0.6819983511997929071 1.363996702399585814 0 -1.462707419767554029 1 I I #
face $-1 $-1 $306 $21 $-1 $307 reversed single #
loop $-1 $-1 $136 $130 #
plane-surface $-1 60.63417462691121784 41.31643413799929476 30.52349765777166368 0 0 1 1 0 0 forward_v I I I I #
coedge $-1 $308 $309 $310 $311 reversed $131 $-1 #
coedge $-1 $312 $133 $135 $219 forward $79 $-1 #
coedge $-1 $133 $312 $308 $313 forward $79 $-1 #
coedge $-1 $310 $136 $133 $216 forward $210 $-1 #
edge $-1 $222 -4.178607619373678972 $314 5.669703878117516638 $215 $315 forward 7 unknown #
coedge $-1 $316 $317 $134 $218 forward $306 $-1 #
edge $-1 $318 -49.22671496165987293 $221 -37.21573098999413531 $217 $319 forward 7 unknown #
edge $-1 $222 -22.05310865014739719 $318 1.772306525430888561e-14 $135 $320 forward 7 unknown #
coedge $-1 $136 $310 $316 $321 forward $210 $-1 #
vertex $-1 $137 $322 #
vertex $-1 $137 $323 #
straight-curve $-1 -2.706651476954945679 37.88337464799752752 30.52349765777166013 1 0 0 I I #
coedge $-1 $224 $224 $-1 $324 reversed $140 $-1 #
edge $-1 $325 0 $325 6.283185307179586232 $141 $326 forward 7 unknown #
vertex $-1 $144 $327 #
ellipse-curve $-1 9.247646527192678434 40.69717793299501096 24.51800567193879488 -0.5446390421508873203 0 0.8386705633113421543 0.8386705633113421543 0 0.5446390421508873203 1 I I #
coedge $-1 $228 $228 $-1 $328 reversed $147 $-1 #
edge $-1 $329 0 $329 6.283185307179586232 $148 $330 forward 7 unknown #
vertex $-1 $151 $331 #
ellipse-curve $-1 9.247646527192678434 44.91788286049123258 24.51800567193879488 -0.5446390421508873203 0 0.8386705633113421543 0.8386705633113421543 0 0.5446390421508873203 1 I I #
face $-1 $-1 $167 $16 $-1 $332 reversed single #
loop $-1 $-1 $248 $152 #
plane-surface $-1 60.63417462691121784 82.63286827599858952 15.26174882888583184 0 -1 0 0 0 -1 forward_v I I I I #
coedge $-1 $333 $246 $249 $334 forward $153 $-1 #
coedge $-1 $252 $155 $156 $240 reversed $93 $-1 #
coedge $-1 $246 $333 $155 $238 reversed $153 $-1 #
edge $-1 $253 -15.26174882888583184 $335 15.26174882888583184 $237 $336 forward 7 unknown #
coedge $-1 $157 $156 $333 $337 forward $57 $-1 #
edge $-1 $244 -60.63417462691121784 $335 60.63417462691121784 $236 $338 forward 7 unknown #
coedge $-1 $249 $248 $157 $242 reversed $233 $-1 #
edge $-1 $339 -60.63417462691121784 $243 60.63417462691121784 $241 $340 forward 7 unknown #
vertex $-1 $159 $341 #
vertex $-1 $255 $342 #
straight-curve $-1 121.2683492538224357 41.31643413799929476 0 0 -1 0 I I #
coedge $-1 $235 $237 $160 $247 reversed $153 $-1 #
edge $-1 $250 -41.31643413799929476 $253 41.31643413799929476 $246 $343 forward 7 unknown #
coedge $-1 $241 $161 $166 $256 forward $233 $-1 #
coedge $-1 $161 $241 $235 $334 reversed $233 $-1 #
vertex $-1 $162 $344 #
straight-curve $-1 60.63417462691121784 82.63286827599858952 30.52349765777166368 -1 0 0 I I #
coedge $-1 $163 $236 $165 $255 reversed $93 $-1 #
vertex $-1 $247 $345 #
straight-curve $-1 60.63417462691121784 0 30.52349765777166368 1 0 0 I I #
edge $-1 $168 -15.26174882888583184 $244 15.26174882888583184 $165 $346 forward 7 unknown #
edge $-1 $169 -15.26174882888583184 $243 15.26174882888583184 $166 $347 forward 7 unknown #
point $-1 121.2683492538224357 0 30.52349765777166368 #
point $-1 121.2683492538224357 82.63286827599858952 30.52349765777166368 #
face $-1 $-1 $275 $17 $-1 $348 reversed single #
loop $-1 $-1 $349 $171 #
plane-surface $-1 60.63417462691121784 -11.3700052063490773 11.25713935018236356 0 1 0 0 0 1 forward_v I I I I #
coedge $-1 $350 $272 $274 $351 forward $172 $-1 #
coedge $-1 $174 $181 $352 $353 forward $101 $-1 #
coedge $-1 $354 $179 $174 $265 reversed $275 $-1 #
edge $-1 $355 -5.685002603174538649 $183 5.685002603174538649 $264 $356 forward 7 unknown #
coedge $-1 $176 $175 $349 $357 reversed $61 $-1 #
coedge $-1 $272 $350 $175 $268 forward $172 $-1 #
edge $-1 $358 -5.685002603174538649 $270 5.685002603174538649 $175 $359 forward 7 unknown #
edge $-1 $182 -5.685002603174538649 $360 5.685002603174538649 $176 $361 forward 7 unknown #
vertex $-1 $177 $362 #
straight-curve $-1 0 0 15.26174882888583184 0 0 -1 I I #
coedge $-1 $262 $267 $178 $273 reversed $172 $-1 #
edge $-1 $276 -60.63417462691121784 $270 60.63417462691121784 $272 $363 forward 7 unknown #
coedge $-1 $179 $354 $262 $351 reversed $275 $-1 #
loop $-1 $-1 $179 $259 #
vertex $-1 $180 $364 #
straight-curve $-1 121.2683492538224357 0 15.26174882888583184 0 0 1 I I #
point $-1 0 0 15.41274862860889883 #
point $-1 121.2683492538224357 0 15.41274862860889883 #
plane-surface $-1 60.63417462691121784 41.31643413799929476 30.52349765777166368 0 0 1 1 0 0 forward_v I I I I #
coedge $-1 $291 $290 $283 $365 forward $186 $-1 #
coedge $-1 $283 $188 $190 $287 reversed $109 $-1 #
coedge $-1 $188 $282 $281 $365 reversed $109 $-1 #
coedge $-1 $196 $191 $188 $285 forward $197 $-1 #
edge $-1 $288 19.82542653271279676 $366 27.32446587623707046 $284 $367 forward 7 unknown #
coedge $-1 $190 $189 $291 $368 reversed $65 $-1 #
edge $-1 $369 -121.2683492538224357 $288 -110.2726638092290159 $282 $370 forward 7 unknown #
vertex $-1 $192 $371 #
straight-curve $-1 113.7693099102981762 43.80779799218178994 30.52349765777165302 0 -1 0 I I #
coedge $-1 $281 $193 $196 $295 reversed $186 $-1 #
coedge $-1 $193 $281 $286 $368 forward $186 $-1 #
vertex $-1 $194 $372 #
straight-curve $-1 121.2683492538224357 53.51102796416913066 104.5691912530655969 0 0 1 I I #
straight-curve $-1 38.5635350099948937 53.51102796416913066 111.1718194334178236 0.6819983511997929071 0 -0.7313537098837770145 I I #
edge $-1 $366 -2.229138409439855195 $198 12.19459382616983589 $290 $373 forward 7 unknown #
point $-1 121.2683492538224357 53.51102796416913066 30.52349765777166368 #
point $-1 113.769309910298162 53.51102796416913066 30.52349765777166013 #
edge $-1 $374 1 $374 0 $201 $-1 forward 7 unknown #
vertex $-1 $202 $375 #
ellipse-curve $-1 115.0959232853982996 43.20836208159078495 24.24323336742065749 0.7313537098837770145 0 0.6819983511997929071 1.363996702399585814 0 -1.462707419767554029 1 I I #
point $-1 118.8828262844598811 43.20836208159078495 25.0399225666948908 #
edge $-1 $376 1 $376 0 $205 $-1 forward 7 unknown #
vertex $-1 $206 $377 #
ellipse-curve $-1 115.0959232853982996 49.38996161113779237 24.24323336742065749 0.7313537098837770145 0 0.6819983511997929071 1.363996702399585814 0 -1.462707419767554029 1 I I #
point $-1 118.8828262844598811 49.38996161113779237 25.0399225666948908 #
loop $-1 $-1 $217 $209 #
plane-surface $-1 0 41.31643413799929476 15.26174882888583184 1 0 0 0 0 -1 forward_v I I I I #
coedge $-1 $309 $212 $214 $313 reversed $131 $-1 #
coedge $-1 $212 $308 $378 $379 reversed $131 $-1 #
coedge $-1 $220 $215 $212 $311 forward $210 $-1 #
edge $-1 $314 -21.20194453134030965 $380 -2.706651476954945679 $310 $381 forward 7 unknown #
coedge $-1 $214 $213 $317 $382 reversed $79 $-1 #
edge $-1 $383 -1.772306525430888561e-14 $314 22.05310865014739719 $308 $384 forward 7 unknown #
vertex $-1 $216 $385 #
straight-curve $-1 18.49529305438536397 42.06198226737120649 30.52349765777166368 0 1 0 I I #
coedge $-1 $378 $217 $220 $321 reversed $306 $-1 #
coedge $-1 $217 $378 $312 $382 forward $306 $-1 #
vertex $-1 $218 $386 #
straight-curve $-1 0 37.88337464799752752 67.739228647765799 0 0 1 I I #
straight-curve $-1 1.421085471520200372e-14 37.88337464799752752 18.51251368610593673 -0.8386705633113421543 0 -0.5446390421508873203 I I #
edge $-1 $380 -6.415252007489428365 $221 3.433059490001767244 $316 $387 forward 7 unknown #
point $-1 0 37.88337464799752752 30.52349765777166368 #
point $-1 18.49529305438536397 37.88337464799752752 30.52349765777166368 #
edge $-1 $388 1 $388 0 $224 $-1 forward 7 unknown #
vertex $-1 $225 $389 #
ellipse-curve $-1 9.911761427218266363 40.69717793299501096 23.49535842449153478 -0.5446390421508873203 0 0.8386705633113421543 0.8386705633113421543 0 0.5446390421508873203 1 I I #
point $-1 10.08631709050401071 40.69717793299501096 25.06264471408969285 #
edge $-1 $390 1 $390 0 $228 $-1 forward 7 unknown #
vertex $-1 $229 $391 #
ellipse-curve $-1 9.911761427218266363 44.91788286049123258 23.49535842449153478 -0.5446390421508873203 0 0.8386705633113421543 0.8386705633113421543 0 0.5446390421508873203 1 I I #
point $-1 10.08631709050401071 44.91788286049123258 25.06264471408969285 #
plane-surface $-1 121.2683492538224357 41.31643413799929476 15.26174882888583184 -1 0 0 0 0 1 forward_v I I I I #
coedge $-1 $237 $235 $239 $337 reversed $153 $-1 #
edge $-1 $250 -15.26174882888583184 $339 15.26174882888583184 $249 $392 forward 7 unknown #
vertex $-1 $337 $393 #
straight-curve $-1 0 0 15.26174882888583184 0 0 -1 I I #
edge $-1 $335 -41.31643413799929476 $339 41.31643413799929476 $333 $394 forward 7 unknown #
straight-curve $-1 60.63417462691121784 0 0 -1 0 0 I I #
vertex $-1 $242 $395 #
straight-curve $-1 60.63417462691121784 82.63286827599858952 0 1 0 0 I I #
point $-1 121.2683492538224357 82.63286827599858952 0 #
point $-1 121.2683492538224357 0 0 #
straight-curve $-1 0 41.31643413799929476 30.52349765777166368 0 -1 0 I I #
point $-1 0 82.63286827599858952 30.52349765777166368 #
point $-1 0 0 30.52349765777166368 #
straight-curve $-1 121.2683492538224357 0 15.26174882888583184 0 0 -1 I I #
straight-curve $-1 121.2683492538224357 82.63286827599858952 15.26174882888583184 0 0 -1 I I #
plane-surface $-1 121.2683492538224357 41.31643413799929476 15.26174882888583184 -1 0 0 0 0 1 forward_v I I I I #
coedge $-1 $396 $352 $266 $357 forward $260 $-1 #
coedge $-1 $267 $262 $396 $397 forward $172 $-1 #
edge $-1 $276 -5.685002603174538649 $398 5.685002603174538649 $274 $399 forward 7 unknown #
coedge $-1 $349 $400 $263 $353 reversed $260 $-1 #
edge $-1 $360 -60.63417462691121784 $355 60.63417462691121784 $352 $401 forward 7 unknown #
coedge $-1 $274 $264 $400 $402 forward $275 $-1 #
vertex $-1 $265 $403 #
straight-curve $-1 121.2683492538224357 -5.685002603174538649 15.41274862860889883 0 1 0 I I #
edge $-1 $360 -4.155609278426535269 $358 4.155609278426535269 $266 $404 forward 7 unknown #
vertex $-1 $268 $405 #
straight-curve $-1 0 -5.685002603174538649 7.101530071755828288 0 1 0 I I #
vertex $-1 $269 $406 #
straight-curve $-1 0 -5.685002603174538649 15.41274862860889883 0 -1 0 I I #
point $-1 0 0 7.101530071755828288 #
straight-curve $-1 60.63417462691121784 0 7.101530071755828288 -1 0 0 I I #
point $-1 121.2683492538224357 0 7.101530071755828288 #
edge $-1 $366 74.04569359529392614 $369 82.08742893791237805 $281 $407 forward 7 unknown #
vertex $-1 $295 $408 #
straight-curve $-1 93.94388337758536522 39.08729572855943957 30.52349765777166013 1 0 0 I I #
edge $-1 $369 -4.72050226362235037 $292 9.703229971987340718 $291 $409 forward 7 unknown #
vertex $-1 $368 $410 #
straight-curve $-1 38.5635350099948937 39.08729572855943957 111.1718194334178236 -0.6819983511997929071 0 0.7313537098837770145 I I #
point $-1 113.769309910298162 39.08729572855943957 30.52349765777166013 #
point $-1 121.2683492538224357 53.51102796416913066 22.48176231515322243 #
straight-curve $-1 121.2683492538224357 41.31643413799929476 30.52349765777166368 0 1 0 I I #
vertex $-1 $298 $411 #
point $-1 116.459919987797889 43.20836208159078495 22.78052594765310346 #
vertex $-1 $302 $412 #
point $-1 116.459919987797889 49.38996161113779237 22.78052594765310346 #
coedge $-1 $317 $316 $309 $379 forward $306 $-1 #
edge $-1 $380 37.21573098999413531 $383 49.22671496165987293 $378 $413 forward 7 unknown #
vertex $-1 $321 $414 #
straight-curve $-1 -2.706651476954945679 47.73168614548872313 30.52349765777166013 -1 0 0 I I #
edge $-1 $383 -5.669703878117516638 $318 4.178607619373678972 $317 $415 forward 7 unknown #
vertex $-1 $382 $416 #
straight-curve $-1 1.421085471520200372e-14 47.73168614548872313 18.51251368610593673 0.8386705633113421543 0 0.5446390421508873203 I I #
point $-1 18.49529305438536397 47.73168614548872313 30.52349765777166368 #
point $-1 0 37.88337464799752752 18.51251368610592607 #
straight-curve $-1 0 41.31643413799929476 30.52349765777166368 0 -1 0 I I #
vertex $-1 $324 $417 #
point $-1 10.75043199052961285 40.69717793299501096 24.03999746664242565 #
vertex $-1 $328 $418 #
point $-1 10.75043199052961285 44.91788286049123258 24.03999746664242565 #
straight-curve $-1 0 82.63286827599858952 15.26174882888583184 0 0 -1 I I #
point $-1 0 0 0 #
straight-curve $-1 0 41.31643413799929476 0 0 1 0 I I #
point $-1 0 82.63286827599858952 0 #
coedge $-1 $400 $349 $350 $397 reversed $260 $-1 #
edge $-1 $398 -60.63417462691121784 $358 60.63417462691121784 $396 $419 forward 7 unknown #
vertex $-1 $402 $420 #
straight-curve $-1 121.2683492538224357 -5.685002603174538649 7.101530071755828288 0 -1 0 I I #
coedge $-1 $352 $396 $354 $402 reversed $260 $-1 #
straight-curve $-1 60.63417462691121784 -11.3700052063490773 15.41274862860889883 1 0 0 I I #
edge $-1 $355 -4.155609278426535269 $398 4.155609278426535269 $354 $421 forward 7 unknown #
point $-1 121.2683492538224357 -11.3700052063490773 15.41274862860889883 #
straight-curve $-1 0 -11.3700052063490773 11.25713935018236356 0 0 -1 I I #
point $-1 0 -11.3700052063490773 7.101530071755828288 #
point $-1 0 -11.3700052063490773 15.41274862860889883 #
straight-curve $-1 121.2683492538224357 39.08729572855943957 104.5691912530655969 0 0 -1 I I #
point $-1 121.2683492538224357 39.08729572855943957 30.52349765777166368 #
straight-curve $-1 121.2683492538224357 43.80779799218178994 22.48176231515322243 0 1 0 I I #
point $-1 121.2683492538224357 39.08729572855943957 22.48176231515322243 #
point $-1 113.6332158656307456 43.20836208159078495 22.87923666502106812 #
point $-1 113.6332158656307456 49.38996161113779237 22.87923666502106812 #
straight-curve $-1 0 47.73168614548872313 67.739228647765799 0 0 -1 I I #
point $-1 0 47.73168614548872313 30.52349765777166368 #
straight-curve $-1 0 42.06198226737120649 18.51251368610592962 0 -1 0 I I #
point $-1 0 47.73168614548872313 18.51251368610592607 #
point $-1 10.45640046936915724 40.69717793299501096 22.6566878611801954 #
point $-1 10.45640046936915724 44.91788286049123258 22.6566878611801954 #
straight-curve $-1 60.63417462691121784 -11.3700052063490773 7.101530071755828288 -1 0 0 I I #
point $-1 121.2683492538224357 -11.3700052063490773 7.101530071755828288 #
straight-curve $-1 121.2683492538224357 -11.3700052063490773 11.25713935018236356 0 0 -1 I I #
End-of-ACIS-data 