300 0 8 0           
7 Unknown 11 ACIS 3.0 NT 24 Fri Oct 30 14:03:49 1998 
-1 9.9999999999999995e-007 1e-010 
body $8 $9 $-1 $10 #
body $11 $12 $-1 $13 #
body $14 $15 $-1 $16 #
body $17 $18 $-1 $19 #
body $20 $21 $-1 $22 #
body $23 $24 $-1 $25 #
body $26 $27 $-1 $28 #
body $29 $30 $-1 $31 #
display_attribute-st-attrib $-1 $32 $-1 $0 1 #
lump $-1 $-1 $33 $0 #
transform $-1 1 0 0 0 1 0 0 0 1 66.271553697317415 30.215273795619787 11.735425335244461 1 rotate no_reflect no_shear #
display_attribute-st-attrib $-1 $34 $-1 $1 3 #
lump $-1 $-1 $35 $1 #
transform $-1 1 0 0 0 1 0 0 0 1 66.271553697317415 30.215273795619787 11.735425335244461 1 rotate no_reflect no_shear #
display_attribute-st-attrib $-1 $36 $-1 $2 3 #
lump $-1 $-1 $37 $2 #
transform $-1 1 0 0 0 1 0 0 0 1 66.271553697317415 30.215273795619787 11.735425335244461 1 rotate no_reflect no_shear #
display_attribute-st-attrib $-1 $38 $-1 $3 3 #
lump $-1 $-1 $39 $3 #
transform $-1 1 0 0 0 1 0 0 0 1 66.271553697317415 30.215273795619787 11.735425335244461 1 rotate no_reflect no_shear #
display_attribute-st-attrib $-1 $40 $-1 $4 3 #
lump $-1 $-1 $41 $4 #
transform $-1 1 0 0 0 1 0 0 0 1 66.271553697317415 30.215273795619787 11.735425335244461 1 rotate no_reflect no_shear #
display_attribute-st-attrib $-1 $42 $-1 $5 3 #
lump $-1 $-1 $43 $5 #
transform $-1 1 0 0 0 1 0 0 0 1 66.271553697317415 30.215273795619787 11.735425335244461 1 rotate no_reflect no_shear #
display_attribute-st-attrib $-1 $44 $-1 $6 3 #
lump $-1 $-1 $45 $6 #
transform $-1 1 0 0 0 1 0 0 0 1 66.271553697317415 30.215273795619787 11.735425335244461 1 rotate no_reflect no_shear #
display_attribute-st-attrib $-1 $46 $-1 $7 3 #
lump $-1 $-1 $47 $7 #
transform $-1 1 0 0 0 1 0 0 0 1 66.271553697317415 30.215273795619787 11.735425335244461 1 rotate no_reflect no_shear #
id_attribute-st-attrib $-1 $-1 $8 $0 360 #
shell $-1 $-1 $-1 $48 $-1 $9 #
id_attribute-st-attrib $-1 $-1 $11 $1 365 #
shell $-1 $-1 $-1 $49 $-1 $12 #
id_attribute-st-attrib $-1 $-1 $14 $2 380 #
shell $-1 $-1 $-1 $50 $-1 $15 #
id_attribute-st-attrib $-1 $-1 $17 $3 388 #
shell $-1 $-1 $-1 $51 $-1 $18 #
id_attribute-st-attrib $-1 $-1 $20 $4 397 #
shell $-1 $-1 $-1 $52 $-1 $21 #
id_attribute-st-attrib $-1 $-1 $23 $5 407 #
shell $-1 $-1 $-1 $53 $-1 $24 #
id_attribute-st-attrib $-1 $-1 $26 $6 418 #
shell $-1 $-1 $-1 $54 $-1 $27 #
id_attribute-st-attrib $-1 $-1 $29 $7 430 #
shell $-1 $-1 $-1 $55 $-1 $30 #
face $-1 $56 $57 $33 $-1 $58 forward single #
face $-1 $59 $60 $35 $-1 $61 reversed single #
face $-1 $62 $63 $37 $-1 $64 reversed single #
face $-1 $65 $66 $39 $-1 $67 forward single #
face $-1 $68 $69 $41 $-1 $70 forward single #
face $-1 $71 $72 $43 $-1 $73 reversed single #
face $-1 $74 $75 $45 $-1 $76 forward single #
face $-1 $77 $78 $47 $-1 $79 forward single #
face $-1 $80 $81 $33 $-1 $82 reversed single #
loop $-1 $-1 $83 $48 #
plane-surface $-1 0 0 11.735425335244461 0 0 1 1 0 0 forward_v I I I I #
face $-1 $84 $85 $35 $-1 $86 reversed single #
loop $-1 $-1 $87 $49 #
plane-surface $-1 -58.582549003828554 0 7.3387326718780237 0 0 1 1 0 0 forward_v I I I I #
face $-1 $88 $89 $37 $-1 $90 reversed single #
loop $-1 $-1 $91 $50 #
plane-surface $-1 85.86481660277002 -18.409803575516239 188.83381189573791 0 -1 0 -0.77714596973225614 0 -0.62932038083071107 forward_v I I I I #
face $-1 $92 $93 $39 $-1 $94 forward single #
loop $-1 $95 $96 $51 #
cone-surface $-1 62.109778349307007 -23.4289306017792 6.7612481502720891 -0.77714596973225614 0 -0.62932038083071107 0.31466019041535553 0 -0.38857298486612807 1 I I 0 1 forward I I I I #
face $-1 $97 $98 $41 $-1 $99 forward single #
loop $-1 $100 $101 $52 #
cone-surface $-1 62.109778349307007 -20.417454386021426 6.7612481502720891 -0.77714596973225614 0 -0.62932038083071107 0.31466019041535553 0 -0.38857298486612807 1 I I 0 1 forward I I I I #
face $-1 $102 $103 $43 $-1 $104 reversed single #
loop $-1 $-1 $105 $53 #
plane-surface $-1 85.86481660277002 11.805470220103551 188.83381189573791 0 -1 0 -0.77714596973225614 0 -0.62932038083071107 forward_v I I I I #
face $-1 $106 $107 $45 $-1 $108 forward single #
loop $-1 $109 $110 $54 #
cone-surface $-1 62.109778349307007 6.7863431938405867 6.7612481502720891 -0.77714596973225614 0 -0.62932038083071107 0.31466019041535553 0 -0.38857298486612807 1 I I 0 1 forward I I I I #
face $-1 $111 $112 $47 $-1 $113 forward single #
loop $-1 $114 $115 $55 #
cone-surface $-1 62.109778349307007 9.7978194095983682 6.7612481502720891 -0.77714596973225614 0 -0.62932038083071107 0.31466019041535553 0 -0.38857298486612807 1 I I 0 1 forward I I I I #
face $-1 $116 $117 $33 $-1 $118 reversed single #
loop $-1 $-1 $119 $56 #
plane-surface $-1 0 0 -11.735425335244461 0 0 1 1 0 0 forward_v I I I I #
coedge $-1 $120 $121 $122 $123 forward $57 $-1 #
face $-1 $124 $125 $35 $-1 $126 reversed single #
loop $-1 $-1 $127 $59 #
plane-surface $-1 -50.893544310339692 0 9.5370790035612423 -1 0 0 0 0 1 forward_v I I I I #
coedge $-1 $128 $129 $130 $131 forward $60 $-1 #
face $-1 $132 $133 $37 $-1 $134 reversed single #
loop $-1 $-1 $135 $62 #
plane-surface $-1 -17.140525124760032 -21.923192493900313 105.42173307366048 0.77714596973225614 0 0.62932038083071107 0.62932038083071107 0 -0.77714596973225614 forward_v I I I I #
coedge $-1 $136 $137 $138 $139 reversed $63 $-1 #
face $-1 $-1 $140 $39 $-1 $141 forward single #
loop $-1 $142 $143 $65 #
cone-surface $-1 61.526918872007812 -23.4289306017792 6.2892578646490556 -0.77714596973225614 0 -0.62932038083071107 0.15733009520767777 0 -0.19428649243306403 1 I I -0.70710678118654746 0.70710678118654746 forward I I I I #
loop $-1 $-1 $144 $51 #
coedge $-1 $96 $96 $145 $146 reversed $66 $-1 #
face $-1 $-1 $147 $41 $-1 $148 forward single #
loop $-1 $149 $150 $68 #
cone-surface $-1 61.526918872007812 -20.417454386021426 6.2892578646490556 -0.77714596973225614 0 -0.62932038083071107 0.15733009520767777 0 -0.19428649243306403 1 I I -0.70710678118654746 0.70710678118654746 forward I I I I #
loop $-1 $-1 $151 $52 #
coedge $-1 $101 $101 $152 $153 reversed $69 $-1 #
face $-1 $154 $155 $43 $-1 $156 reversed single #
loop $-1 $-1 $157 $71 #
plane-surface $-1 -17.140525124760032 8.2920813017194774 105.42173307366048 0.77714596973225614 0 0.62932038083071107 0.62932038083071107 0 -0.77714596973225614 forward_v I I I I #
coedge $-1 $158 $159 $160 $161 reversed $72 $-1 #
face $-1 $-1 $162 $45 $-1 $163 forward single #
loop $-1 $164 $165 $74 #
cone-surface $-1 61.526918872007812 6.7863431938405867 6.2892578646490556 -0.77714596973225614 0 -0.62932038083071107 0.15733009520767777 0 -0.19428649243306403 1 I I -0.70710678118654746 0.70710678118654746 forward I I I I #
loop $-1 $-1 $166 $54 #
coedge $-1 $110 $110 $167 $168 reversed $75 $-1 #
face $-1 $-1 $169 $47 $-1 $170 forward single #
loop $-1 $171 $172 $77 #
cone-surface $-1 61.526918872007812 9.7978194095983682 6.2892578646490556 -0.77714596973225614 0 -0.62932038083071107 0.15733009520767777 0 -0.19428649243306403 1 I I -0.70710678118654746 0.70710678118654746 forward I I I I #
loop $-1 $-1 $173 $55 #
coedge $-1 $115 $115 $174 $175 reversed $78 $-1 #
face $-1 $176 $177 $33 $-1 $178 reversed single #
loop $-1 $-1 $179 $80 #
plane-surface $-1 0 -30.215273795619787 0 0 1 0 0 0 1 forward_v I I I I #
coedge $-1 $180 $181 $182 $183 forward $81 $-1 #
coedge $-1 $184 $83 $185 $186 forward $57 $-1 #
coedge $-1 $83 $184 $187 $188 forward $57 $-1 #
coedge $-1 $189 $190 $83 $123 reversed $191 $-1 #
edge $-1 $192 $193 $122 $194 forward #
face $-1 $195 $196 $35 $-1 $197 reversed single #
loop $-1 $-1 $198 $84 #
plane-surface $-1 0 30.215273795619787 0 0 -1 0 0 0 -1 forward_v I I I I #
coedge $-1 $130 $199 $200 $201 reversed $85 $-1 #
coedge $-1 $202 $87 $203 $204 reversed $60 $-1 #
coedge $-1 $87 $202 $205 $206 reversed $60 $-1 #
coedge $-1 $207 $127 $87 $131 reversed $85 $-1 #
edge $-1 $208 $209 $130 $210 forward #
face $-1 $211 $212 $37 $-1 $213 forward single #
loop $-1 $-1 $214 $88 #
plane-surface $-1 85.86481660277002 -25.436581412284387 188.83381189573791 0 1 0 0.77714596973225614 0 0.62932038083071107 forward_v I I I I #
coedge $-1 $215 $216 $217 $218 reversed $89 $-1 #
coedge $-1 $137 $91 $219 $220 reversed $63 $-1 #
coedge $-1 $91 $136 $215 $221 reversed $63 $-1 #
coedge $-1 $217 $222 $91 $139 forward $212 $-1 #
edge $-1 $223 $224 $138 $225 forward #
loop $-1 $-1 $145 $92 #
plane-surface $-1 -17.140525124760032 -21.923192493900313 105.42173307366048 0.77714596973225614 0 0.62932038083071107 0.62932038083071107 0 -0.77714596973225614 forward_v I I I I #
loop $-1 $-1 $226 $65 #
coedge $-1 $143 $143 $144 $227 reversed $93 $-1 #
coedge $-1 $144 $144 $143 $227 forward $95 $-1 #
coedge $-1 $145 $145 $96 $146 forward $140 $-1 #
edge $-1 $228 $228 $145 $229 forward #
loop $-1 $-1 $152 $97 #
plane-surface $-1 -17.140525124760032 -21.923192493900313 105.42173307366048 0.77714596973225614 0 0.62932038083071107 0.62932038083071107 0 -0.77714596973225614 forward_v I I I I #
loop $-1 $-1 $230 $68 #
coedge $-1 $150 $150 $151 $231 reversed $98 $-1 #
coedge $-1 $151 $151 $150 $231 forward $100 $-1 #
coedge $-1 $152 $152 $101 $153 forward $147 $-1 #
edge $-1 $232 $232 $152 $233 forward #
face $-1 $234 $235 $43 $-1 $236 reversed single #
loop $-1 $-1 $237 $102 #
plane-surface $-1 85.86481660277002 4.7786923833354038 188.83381189573791 0 1 0 0.77714596973225614 0 0.62932038083071107 forward_v I I I I #
coedge $-1 $238 $239 $240 $241 reversed $103 $-1 #
coedge $-1 $159 $105 $242 $243 reversed $72 $-1 #
coedge $-1 $105 $158 $238 $244 reversed $72 $-1 #
coedge $-1 $240 $245 $105 $161 forward $246 $-1 #
edge $-1 $247 $248 $160 $249 forward #
loop $-1 $-1 $167 $106 #
plane-surface $-1 -17.140525124760032 8.2920813017194774 105.42173307366048 0.77714596973225614 0 0.62932038083071107 0.62932038083071107 0 -0.77714596973225614 forward_v I I I I #
loop $-1 $-1 $250 $74 #
coedge $-1 $165 $165 $166 $251 reversed $107 $-1 #
coedge $-1 $166 $166 $165 $251 forward $109 $-1 #
coedge $-1 $167 $167 $110 $168 forward $162 $-1 #
edge $-1 $252 $252 $167 $253 forward #
loop $-1 $-1 $174 $111 #
plane-surface $-1 -17.140525124760032 8.2920813017194774 105.42173307366048 0.77714596973225614 0 0.62932038083071107 0.62932038083071107 0 -0.77714596973225614 forward_v I I I I #
loop $-1 $-1 $254 $77 #
coedge $-1 $172 $172 $173 $255 reversed $112 $-1 #
coedge $-1 $173 $173 $172 $255 forward $114 $-1 #
coedge $-1 $174 $174 $115 $175 forward $169 $-1 #
edge $-1 $256 $256 $174 $257 forward #
face $-1 $258 $259 $33 $-1 $260 reversed single #
loop $-1 $-1 $261 $116 #
plane-surface $-1 -66.271553697317415 0 0 1 0 0 0 0 -1 forward_v I I I I #
coedge $-1 $262 $187 $263 $264 forward $117 $-1 #
coedge $-1 $265 $119 $262 $266 forward $81 $-1 #
coedge $-1 $119 $265 $267 $268 forward $81 $-1 #
coedge $-1 $190 $189 $119 $183 reversed $191 $-1 #
edge $-1 $269 $270 $182 $271 forward #
coedge $-1 $121 $120 $272 $273 forward $57 $-1 #
coedge $-1 $274 $275 $120 $186 reversed $259 $-1 #
edge $-1 $193 $276 $185 $277 forward #
coedge $-1 $179 $278 $121 $188 reversed $117 $-1 #
edge $-1 $279 $192 $187 $280 forward #
coedge $-1 $182 $122 $278 $281 forward $191 $-1 #
coedge $-1 $122 $182 $274 $282 reversed $191 $-1 #
loop $-1 $-1 $189 $258 #
vertex $-1 $123 $283 #
vertex $-1 $123 $284 #
straight-curve $-1 66.271553697317415 0 11.735425335244461 0 1 0 I I #
face $-1 $285 $286 $35 $-1 $287 forward single #
loop $-1 $-1 $288 $124 #
plane-surface $-1 -66.271553697317415 0 0 1 0 0 0 0 -1 forward_v I I I I #
coedge $-1 $205 $289 $207 $290 forward $125 $-1 #
coedge $-1 $127 $207 $291 $292 reversed $85 $-1 #
coedge $-1 $293 $203 $127 $201 forward $294 $-1 #
edge $-1 $209 $295 $200 $296 forward #
coedge $-1 $129 $128 $288 $297 reversed $60 $-1 #
coedge $-1 $200 $298 $128 $204 forward $294 $-1 #
edge $-1 $299 $209 $203 $300 forward #
coedge $-1 $301 $198 $129 $206 forward $125 $-1 #
edge $-1 $208 $302 $205 $303 forward #
coedge $-1 $199 $130 $198 $290 reversed $85 $-1 #
vertex $-1 $206 $304 #
vertex $-1 $204 $305 #
straight-curve $-1 -50.893544310339692 0 7.3387326718780237 0 -1 0 I I #
face $-1 $-1 $306 $37 $-1 $307 reversed single #
loop $-1 $-1 $138 $132 #
plane-surface $-1 0 0 11.735425335244461 0 0 1 1 0 0 forward_v I I I I #
coedge $-1 $308 $309 $310 $311 reversed $133 $-1 #
coedge $-1 $312 $135 $137 $221 forward $89 $-1 #
coedge $-1 $135 $312 $308 $313 forward $89 $-1 #
coedge $-1 $310 $138 $135 $218 forward $212 $-1 #
edge $-1 $224 $314 $217 $315 forward #
coedge $-1 $316 $317 $136 $220 forward $306 $-1 #
edge $-1 $318 $223 $219 $319 forward #
edge $-1 $224 $318 $137 $320 forward #
coedge $-1 $138 $310 $316 $321 forward $212 $-1 #
vertex $-1 $220 $322 #
vertex $-1 $139 $323 #
straight-curve $-1 42.93240830138501 -18.409803575516239 11.735425335244457 -1 0 0 I I #
coedge $-1 $226 $226 $-1 $324 reversed $142 $-1 #
edge $-1 $325 $325 $143 $326 forward #
vertex $-1 $146 $327 #
ellipse-curve $-1 62.498351334173122 -23.4289306017792 7.0759083406874357 0.77714596973225614 0 0.62932038083071107 0.31466019041535553 0 -0.38857298486612807 1 I I #
coedge $-1 $230 $230 $-1 $328 reversed $149 $-1 #
edge $-1 $329 $329 $150 $330 forward #
vertex $-1 $153 $331 #
ellipse-curve $-1 62.498351334173122 -20.417454386021426 7.0759083406874357 0.77714596973225614 0 0.62932038083071107 0.31466019041535553 0 -0.38857298486612807 1 I I #
face $-1 $-1 $246 $43 $-1 $332 forward single #
loop $-1 $-1 $333 $154 #
plane-surface $-1 66.271553697317415 0 0 -1 0 0 0 0 1 forward_v I I I I #
coedge $-1 $334 $335 $336 $337 reversed $155 $-1 #
coedge $-1 $338 $157 $159 $244 forward $103 $-1 #
coedge $-1 $157 $338 $334 $339 forward $103 $-1 #
coedge $-1 $336 $160 $157 $241 forward $246 $-1 #
edge $-1 $248 $340 $240 $341 forward #
coedge $-1 $342 $343 $158 $243 forward $235 $-1 #
edge $-1 $344 $247 $242 $345 forward #
edge $-1 $248 $344 $159 $346 forward #
coedge $-1 $160 $336 $342 $347 forward $246 $-1 #
loop $-1 $-1 $336 $234 #
vertex $-1 $243 $348 #
vertex $-1 $161 $349 #
straight-curve $-1 42.93240830138501 11.805470220103551 11.735425335244457 -1 0 0 I I #
coedge $-1 $250 $250 $-1 $350 reversed $164 $-1 #
edge $-1 $351 $351 $165 $352 forward #
vertex $-1 $168 $353 #
ellipse-curve $-1 62.498351334173122 6.7863431938405867 7.0759083406874357 0.77714596973225614 0 0.62932038083071107 0.31466019041535553 0 -0.38857298486612807 1 I I #
coedge $-1 $254 $254 $-1 $354 reversed $171 $-1 #
edge $-1 $355 $355 $172 $356 forward #
vertex $-1 $175 $357 #
ellipse-curve $-1 62.498351334173122 9.7978194095983682 7.0759083406874357 0.77714596973225614 0 0.62932038083071107 0.31466019041535553 0 -0.38857298486612807 1 I I #
face $-1 $-1 $191 $33 $-1 $358 reversed single #
loop $-1 $-1 $274 $176 #
plane-surface $-1 0 30.215273795619787 0 0 -1 0 0 0 -1 forward_v I I I I #
coedge $-1 $359 $272 $275 $360 forward $177 $-1 #
coedge $-1 $278 $179 $180 $266 reversed $117 $-1 #
coedge $-1 $272 $359 $179 $264 reversed $177 $-1 #
edge $-1 $279 $361 $263 $362 forward #
coedge $-1 $181 $180 $359 $363 forward $81 $-1 #
edge $-1 $270 $361 $262 $364 forward #
coedge $-1 $275 $274 $181 $268 reversed $259 $-1 #
edge $-1 $365 $269 $267 $366 forward #
vertex $-1 $183 $367 #
vertex $-1 $281 $368 #
straight-curve $-1 66.271553697317415 0 -11.735425335244461 0 -1 0 I I #
coedge $-1 $261 $263 $184 $273 reversed $177 $-1 #
edge $-1 $276 $279 $272 $369 forward #
coedge $-1 $267 $185 $190 $282 forward $259 $-1 #
coedge $-1 $185 $267 $261 $360 reversed $259 $-1 #
vertex $-1 $186 $370 #
straight-curve $-1 0 30.215273795619787 11.735425335244461 -1 0 0 I I #
coedge $-1 $187 $262 $189 $281 reversed $117 $-1 #
vertex $-1 $273 $371 #
straight-curve $-1 0 -30.215273795619787 11.735425335244461 1 0 0 I I #
edge $-1 $192 $270 $189 $372 forward #
edge $-1 $193 $269 $190 $373 forward #
point $-1 66.271553697317415 -30.215273795619787 11.735425335244461 #
point $-1 66.271553697317415 30.215273795619787 11.735425335244461 #
face $-1 $-1 $294 $35 $-1 $374 reversed single #
loop $-1 $-1 $291 $195 #
plane-surface $-1 0 0 11.735425335244461 0 0 1 1 0 0 forward_v I I I I #
coedge $-1 $375 $376 $202 $297 forward $196 $-1 #
coedge $-1 $198 $301 $377 $378 reversed $125 $-1 #
edge $-1 $379 $208 $198 $380 forward #
coedge $-1 $377 $381 $199 $292 forward $286 $-1 #
edge $-1 $295 $379 $291 $382 forward #
coedge $-1 $298 $200 $381 $383 reversed $294 $-1 #
loop $-1 $-1 $200 $285 #
vertex $-1 $201 $384 #
straight-curve $-1 -50.893544310339692 -30.215273795619787 4.7685395017806211 0 0 1 I I #
edge $-1 $302 $299 $288 $385 forward #
coedge $-1 $203 $293 $375 $386 forward $294 $-1 #
vertex $-1 $297 $387 #
straight-curve $-1 -29.291274501914277 -30.215273795619787 7.3387326718780237 1 0 0 I I #
coedge $-1 $289 $205 $376 $388 reversed $125 $-1 #
vertex $-1 $297 $389 #
straight-curve $-1 -29.291274501914277 30.215273795619787 7.3387326718780237 -1 0 0 I I #
point $-1 -50.893544310339692 30.215273795619787 7.3387326718780237 #
point $-1 -50.893544310339692 -30.215273795619787 7.3387326718780237 #
loop $-1 $-1 $219 $211 #
plane-surface $-1 66.271553697317415 0 0 -1 0 0 0 0 1 forward_v I I I I #
coedge $-1 $309 $214 $216 $313 reversed $133 $-1 #
coedge $-1 $214 $308 $390 $391 reversed $133 $-1 #
coedge $-1 $222 $217 $214 $311 forward $212 $-1 #
edge $-1 $314 $392 $310 $393 forward #
coedge $-1 $216 $215 $317 $394 reversed $89 $-1 #
edge $-1 $395 $314 $308 $396 forward #
vertex $-1 $218 $397 #
straight-curve $-1 58.725148971028851 -10.961596246950156 11.735425335244457 0 -1 0 I I #
coedge $-1 $390 $219 $222 $321 reversed $306 $-1 #
coedge $-1 $219 $390 $312 $394 forward $306 $-1 #
vertex $-1 $220 $398 #
straight-curve $-1 66.271553697317415 -18.409803575516239 94.416905947868955 0 0 1 I I #
straight-curve $-1 -17.140525124760032 -18.409803575516239 105.42173307366048 0.62932038083071107 0 -0.77714596973225614 I I #
edge $-1 $392 $223 $316 $399 forward #
point $-1 66.271553697317415 -18.409803575516239 11.735425335244461 #
point $-1 58.725148971028858 -18.409803575516239 11.735425335244457 #
edge $-1 $400 $400 $226 $-1 forward #
vertex $-1 $227 $401 #
ellipse-curve $-1 61.721205364440877 -23.4289306017792 6.4465879598567337 0.77714596973225614 0 0.62932038083071107 0.31466019041535553 0 -0.38857298486612807 1 I I #
point $-1 62.813011524588489 -23.4289306017792 6.6873353558213164 #
edge $-1 $402 $402 $230 $-1 forward #
vertex $-1 $231 $403 #
ellipse-curve $-1 61.721205364440877 -20.417454386021426 6.4465879598567337 0.77714596973225614 0 0.62932038083071107 0.31466019041535553 0 -0.38857298486612807 1 I I #
point $-1 62.813011524588489 -20.417454386021426 6.6873353558213164 #
plane-surface $-1 0 0 11.735425335244461 0 0 1 1 0 0 forward_v I I I I #
coedge $-1 $343 $342 $335 $404 forward $235 $-1 #
coedge $-1 $335 $237 $239 $339 reversed $155 $-1 #
coedge $-1 $237 $334 $333 $404 reversed $155 $-1 #
coedge $-1 $245 $240 $237 $337 forward $246 $-1 #
edge $-1 $340 $405 $336 $406 forward #
coedge $-1 $239 $238 $343 $407 reversed $103 $-1 #
edge $-1 $408 $340 $334 $409 forward #
vertex $-1 $241 $410 #
straight-curve $-1 58.725148971028851 4.1460406508597387 11.735425335244457 0 -1 0 I I #
coedge $-1 $333 $242 $245 $347 reversed $235 $-1 #
coedge $-1 $242 $333 $338 $407 forward $235 $-1 #
vertex $-1 $243 $411 #
straight-curve $-1 66.271553697317415 11.805470220103551 94.416905947868955 0 0 1 I I #
straight-curve $-1 -17.140525124760032 11.805470220103551 105.42173307366048 0.62932038083071107 0 -0.77714596973225614 I I #
edge $-1 $405 $247 $342 $412 forward #
point $-1 66.271553697317415 11.805470220103551 11.735425335244461 #
point $-1 58.725148971028858 11.805470220103551 11.735425335244457 #
edge $-1 $413 $413 $250 $-1 forward #
vertex $-1 $251 $414 #
ellipse-curve $-1 61.721205364440877 6.7863431938405867 6.4465879598567337 0.77714596973225614 0 0.62932038083071107 0.31466019041535553 0 -0.38857298486612807 1 I I #
point $-1 62.813011524588489 6.7863431938405867 6.6873353558213164 #
edge $-1 $415 $415 $254 $-1 forward #
vertex $-1 $255 $416 #
ellipse-curve $-1 61.721205364440877 9.7978194095983682 6.4465879598567337 0.77714596973225614 0 0.62932038083071107 0.31466019041535553 0 -0.38857298486612807 1 I I #
point $-1 62.813011524588489 9.7978194095983682 6.6873353558213164 #
plane-surface $-1 66.271553697317415 0 0 -1 0 0 0 0 1 forward_v I I I I #
coedge $-1 $263 $261 $265 $363 reversed $177 $-1 #
edge $-1 $276 $365 $275 $417 forward #
vertex $-1 $363 $418 #
straight-curve $-1 -66.271553697317415 -30.215273795619787 0 0 0 -1 I I #
edge $-1 $361 $365 $359 $419 forward #
straight-curve $-1 0 -30.215273795619787 -11.735425335244461 -1 0 0 I I #
vertex $-1 $268 $420 #
straight-curve $-1 0 30.215273795619787 -11.735425335244461 1 0 0 I I #
point $-1 66.271553697317415 30.215273795619787 -11.735425335244461 #
point $-1 66.271553697317415 -30.215273795619787 -11.735425335244461 #
straight-curve $-1 -66.271553697317415 0 11.735425335244461 0 -1 0 I I #
point $-1 -66.271553697317415 30.215273795619787 11.735425335244461 #
point $-1 -66.271553697317415 -30.215273795619787 11.735425335244461 #
straight-curve $-1 66.271553697317415 -30.215273795619787 0 0 0 -1 I I #
straight-curve $-1 66.271553697317415 30.215273795619787 0 0 0 -1 I I #
plane-surface $-1 0 -30.215273795619787 0 0 1 0 0 0 1 forward_v I I I I #
coedge $-1 $421 $288 $298 $386 reversed $196 $-1 #
coedge $-1 $288 $421 $301 $388 forward $196 $-1 #
coedge $-1 $422 $291 $289 $378 forward $286 $-1 #
edge $-1 $379 $423 $289 $424 forward #
vertex $-1 $378 $425 #
straight-curve $-1 -50.893544310339692 30.215273795619787 4.7685395017806211 0 0 -1 I I #
coedge $-1 $291 $422 $293 $383 forward $286 $-1 #
straight-curve $-1 -50.893544310339692 0 11.735425335244461 0 1 0 I I #
edge $-1 $426 $295 $293 $427 forward #
point $-1 -50.893544310339692 -30.215273795619787 11.735425335244461 #
straight-curve $-1 -66.271553697317415 0 7.3387326718780237 0 -1 0 I I #
edge $-1 $426 $299 $375 $428 forward #
point $-1 -66.271553697317415 -30.215273795619787 7.3387326718780237 #
edge $-1 $423 $302 $301 $429 forward #
point $-1 -66.271553697317415 30.215273795619787 7.3387326718780237 #
coedge $-1 $317 $316 $309 $391 forward $306 $-1 #
edge $-1 $392 $395 $390 $430 forward #
vertex $-1 $321 $431 #
straight-curve $-1 42.93240830138501 -25.436581412284387 11.735425335244457 1 0 0 I I #
edge $-1 $395 $318 $317 $432 forward #
vertex $-1 $394 $433 #
straight-curve $-1 -17.140525124760032 -25.436581412284387 105.42173307366048 -0.62932038083071107 0 0.77714596973225614 I I #
point $-1 58.725148971028858 -25.436581412284387 11.735425335244457 #
point $-1 66.271553697317415 -18.409803575516239 2.4163913461303963 #
straight-curve $-1 66.271553697317415 0 11.735425335244461 0 1 0 I I #
vertex $-1 $324 $434 #
point $-1 62.03586555485623 -23.4289306017792 6.0580149749906056 #
vertex $-1 $328 $435 #
point $-1 62.03586555485623 -20.417454386021426 6.0580149749906056 #
edge $-1 $405 $408 $333 $436 forward #
vertex $-1 $347 $437 #
straight-curve $-1 42.93240830138501 4.7786923833354038 11.735425335244457 1 0 0 I I #
edge $-1 $408 $344 $343 $438 forward #
vertex $-1 $407 $439 #
straight-curve $-1 -17.140525124760032 4.7786923833354038 105.42173307366048 -0.62932038083071107 0 0.77714596973225614 I I #
point $-1 58.725148971028858 4.7786923833354038 11.735425335244457 #
point $-1 66.271553697317415 11.805470220103551 2.4163913461303963 #
straight-curve $-1 66.271553697317415 0 11.735425335244461 0 1 0 I I #
vertex $-1 $350 $440 #
point $-1 62.03586555485623 6.7863431938405867 6.0580149749906056 #
vertex $-1 $354 $441 #
point $-1 62.03586555485623 9.7978194095983682 6.0580149749906056 #
straight-curve $-1 -66.271553697317415 30.215273795619787 0 0 0 -1 I I #
point $-1 -66.271553697317415 -30.215273795619787 -11.735425335244461 #
straight-curve $-1 -66.271553697317415 0 -11.735425335244461 0 1 0 I I #
point $-1 -66.271553697317415 30.215273795619787 -11.735425335244461 #
coedge $-1 $376 $375 $422 $442 reversed $196 $-1 #
coedge $-1 $381 $377 $421 $442 forward $286 $-1 #
vertex $-1 $378 $443 #
straight-curve $-1 0 30.215273795619787 11.735425335244461 -1 0 0 I I #
point $-1 -50.893544310339692 30.215273795619787 11.735425335244461 #
vertex $-1 $442 $444 #
straight-curve $-1 0 -30.215273795619787 11.735425335244461 1 0 0 I I #
straight-curve $-1 -66.271553697317415 -30.215273795619787 0 0 0 -1 I I #
straight-curve $-1 -66.271553697317415 30.215273795619787 0 0 0 -1 I I #
straight-curve $-1 66.271553697317415 -25.436581412284387 94.416905947868955 0 0 -1 I I #
point $-1 66.271553697317415 -25.436581412284387 11.735425335244461 #
straight-curve $-1 66.271553697317415 -10.961596246950156 2.4163913461304034 0 1 0 I I #
point $-1 66.271553697317415 -25.436581412284387 2.4163913461303963 #
point $-1 61.332632379574747 -23.4289306017792 6.1319277694413774 #
point $-1 61.332632379574747 -20.417454386021426 6.1319277694413774 #
straight-curve $-1 66.271553697317415 4.7786923833354038 94.416905947868955 0 0 -1 I I #
point $-1 66.271553697317415 4.7786923833354038 11.735425335244461 #
straight-curve $-1 66.271553697317415 4.1460406508597387 2.4163913461304034 0 1 0 I I #
point $-1 66.271553697317415 4.7786923833354038 2.4163913461303963 #
point $-1 61.332632379574747 6.7863431938405867 6.1319277694413774 #
point $-1 61.332632379574747 9.7978194095983682 6.1319277694413774 #
edge $-1 $423 $426 $421 $445 forward #
point $-1 -66.271553697317415 30.215273795619787 11.735425335244461 #
point $-1 -66.271553697317415 -30.215273795619787 11.735425335244461 #
straight-curve $-1 -66.271553697317415 0 11.735425335244461 0 -1 0 I I #
End-of-ACIS-data 