300 0 5 0           
7 Unknown 11 ACIS 3.0 NT 24 Fri Oct 30 14:24:56 1998 
-1 9.9999999999999995e-007 1e-010 
body $5 $6 $-1 $7 #
body $8 $9 $-1 $10 #
body $11 $12 $-1 $13 #
body $14 $15 $-1 $16 #
body $17 $18 $-1 $19 #
display_attribute-st-attrib $-1 $20 $-1 $0 1 #
lump $-1 $-1 $21 $0 #
transform $-1 1 0 0 0 1 0 0 0 1 77.731864375743896 46.012367364480383 15.553941072196633 1 rotate no_reflect no_shear #
display_attribute-st-attrib $-1 $22 $-1 $1 1 #
lump $-1 $-1 $23 $1 #
transform $-1 1 0 0 0 0.76604443648966558 0.64278761758704617 0 -0.64278761758704617 0.76604443648966558 108.49572738227192 -99.93015982536761 136.29811163821086 1 rotate no_reflect no_shear #
display_attribute-st-attrib $-1 $24 $-1 $2 1 #
lump $-1 $-1 $25 $2 #
transform $-1 1 0 0 0 -0.76604443648966558 -0.64278761758704617 0 0.64278761758704617 -0.76604443648966558 108.49572738227192 11.397404210589068 20.44630535853862 1 rotate no_reflect no_shear #
display_attribute-st-attrib $-1 $26 $-1 $3 1 #
lump $-1 $-1 $27 $3 #
transform $-1 1 0 0 0 0.80901698891910034 -0.5877852598018023 0 0.5877852598018023 0.80901698891910034 15.540442223549935 108.95444912640814 201.16864935057464 1 rotate no_reflect no_shear #
display_attribute-st-attrib $-1 $28 $-1 $4 1 #
lump $-1 $-1 $29 $4 #
transform $-1 1 0 0 0 -0.80901698891910034 0.5877852598018023 0 -0.5877852598018023 -0.80901698891910034 15.540442223549935 81.107381418087797 20.465385662525733 1 rotate no_reflect no_shear #
id_attribute-st-attrib $-1 $-1 $5 $0 1575 #
shell $-1 $-1 $-1 $30 $-1 $6 #
id_attribute-st-attrib $-1 $-1 $8 $1 1582 #
shell $-1 $-1 $-1 $31 $-1 $9 #
id_attribute-st-attrib $-1 $-1 $11 $2 1589 #
shell $-1 $-1 $-1 $32 $-1 $12 #
id_attribute-st-attrib $-1 $-1 $14 $3 1600 #
shell $-1 $-1 $-1 $33 $-1 $15 #
id_attribute-st-attrib $-1 $-1 $17 $4 1609 #
shell $-1 $-1 $-1 $34 $-1 $18 #
face $-1 $35 $36 $21 $-1 $37 forward single #
face $-1 $38 $39 $23 $-1 $40 forward single #
face $-1 $41 $42 $25 $-1 $43 forward single #
face $-1 $44 $45 $27 $-1 $46 forward single #
face $-1 $47 $48 $29 $-1 $49 forward single #
face $-1 $50 $51 $21 $-1 $52 reversed single #
loop $-1 $-1 $53 $30 #
plane-surface $-1 0 0 15.553941072196633 0 0 1 1 0 0 forward_v I I I I #
face $-1 $54 $55 $23 $-1 $56 reversed single #
loop $-1 $-1 $57 $31 #
plane-surface $-1 0 0 155.46372875148779 0 0 1 1 0 0 forward_v I I I I #
face $-1 $58 $59 $25 $-1 $60 forward single #
loop $-1 $61 $62 $32 #
cone-surface $-1 0 0 -3.1719412823877686 0 0 1 3 0 0 1 I I 0 1 forward I I I I #
face $-1 $63 $64 $27 $-1 $65 reversed single #
loop $-1 $-1 $66 $33 #
plane-surface $-1 0 0 155.46372875148779 0 0 1 1 0 0 forward_v I I I I #
face $-1 $67 $68 $29 $-1 $69 forward single #
loop $-1 $70 $71 $34 #
cone-surface $-1 0 0 -4.0481887264626017 0 0 1 2 0 0 1 I I 0 1 forward I I I I #
face $-1 $72 $73 $21 $-1 $74 reversed single #
loop $-1 $-1 $75 $35 #
plane-surface $-1 0 0 -15.553941072196633 0 0 1 1 0 0 forward_v I I I I #
coedge $-1 $76 $77 $78 $79 forward $36 $-1 #
face $-1 $80 $81 $23 $-1 $82 reversed single #
loop $-1 $-1 $83 $38 #
plane-surface $-1 0 0 -155.46372875148779 0 0 1 1 0 0 forward_v I I I I #
coedge $-1 $84 $85 $86 $87 forward $39 $-1 #
face $-1 $-1 $88 $25 $-1 $89 forward single #
loop $-1 $-1 $90 $41 #
plane-surface $-1 0 0 -4.8438825647755372 0 0 -1 -1 0 0 forward_v I I I I #
loop $-1 $-1 $91 $32 #
coedge $-1 $62 $62 $90 $92 reversed $42 $-1 #
face $-1 $93 $94 $27 $-1 $95 reversed single #
loop $-1 $-1 $96 $44 #
plane-surface $-1 0 0 -155.46372875148779 0 0 1 1 0 0 forward_v I I I I #
coedge $-1 $97 $98 $99 $100 forward $45 $-1 #
face $-1 $-1 $101 $29 $-1 $102 forward single #
loop $-1 $-1 $103 $47 #
plane-surface $-1 0 0 -7.0963774529252017 0 0 -1 -1 0 0 forward_v I I I I #
loop $-1 $-1 $104 $34 #
coedge $-1 $71 $71 $103 $105 reversed $48 $-1 #
face $-1 $106 $107 $21 $-1 $108 reversed single #
loop $-1 $-1 $109 $50 #
plane-surface $-1 0 -46.012367364480383 0 0 1 0 0 0 1 forward_v I I I I #
coedge $-1 $110 $111 $112 $113 forward $51 $-1 #
coedge $-1 $114 $53 $115 $116 forward $36 $-1 #
coedge $-1 $53 $114 $117 $118 forward $36 $-1 #
coedge $-1 $119 $120 $53 $79 reversed $121 $-1 #
edge $-1 $122 $123 $78 $124 forward #
face $-1 $125 $126 $23 $-1 $127 reversed single #
loop $-1 $-1 $128 $54 #
plane-surface $-1 0 -310.92745750297559 0 0 1 0 0 0 1 forward_v I I I I #
coedge $-1 $129 $130 $131 $132 forward $55 $-1 #
coedge $-1 $133 $57 $134 $135 forward $39 $-1 #
coedge $-1 $57 $133 $136 $137 forward $39 $-1 #
coedge $-1 $138 $139 $57 $87 reversed $140 $-1 #
edge $-1 $141 $142 $86 $143 forward #
loop $-1 $144 $145 $58 #
cone-surface $-1 0 0 0 0 0 1 1.5 0 0 1 I I -0.70710678118654757 0.70710678118654757 forward I I I I #
coedge $-1 $90 $90 $62 $92 forward $59 $-1 #
coedge $-1 $91 $91 $145 $146 forward $61 $-1 #
edge $-1 $147 $147 $90 $148 forward #
face $-1 $149 $150 $27 $-1 $151 reversed single #
loop $-1 $-1 $152 $63 #
plane-surface $-1 0 -310.92745750297559 0 0 1 0 0 0 1 forward_v I I I I #
coedge $-1 $153 $154 $155 $156 forward $64 $-1 #
coedge $-1 $157 $66 $158 $159 forward $45 $-1 #
coedge $-1 $66 $157 $160 $161 forward $45 $-1 #
coedge $-1 $162 $163 $66 $100 reversed $164 $-1 #
edge $-1 $165 $166 $99 $167 forward #
loop $-1 $168 $169 $67 #
cone-surface $-1 0 0 0 0 0 1 1 0 0 1 I I -0.70710678118654746 0.70710678118654746 forward I I I I #
coedge $-1 $103 $103 $71 $105 forward $68 $-1 #
coedge $-1 $104 $104 $169 $170 forward $70 $-1 #
edge $-1 $171 $171 $103 $172 forward #
face $-1 $173 $174 $21 $-1 $175 reversed single #
loop $-1 $-1 $176 $72 #
plane-surface $-1 -77.731864375743896 0 0 1 0 0 0 0 -1 forward_v I I I I #
coedge $-1 $177 $117 $178 $179 forward $73 $-1 #
coedge $-1 $180 $75 $177 $181 forward $51 $-1 #
coedge $-1 $75 $180 $182 $183 forward $51 $-1 #
coedge $-1 $120 $119 $75 $113 reversed $121 $-1 #
edge $-1 $184 $185 $112 $186 forward #
coedge $-1 $77 $76 $187 $188 forward $36 $-1 #
coedge $-1 $189 $190 $76 $116 reversed $174 $-1 #
edge $-1 $123 $191 $115 $192 forward #
coedge $-1 $109 $193 $77 $118 reversed $73 $-1 #
edge $-1 $194 $122 $117 $195 forward #
coedge $-1 $112 $78 $193 $196 forward $121 $-1 #
coedge $-1 $78 $112 $189 $197 reversed $121 $-1 #
loop $-1 $-1 $119 $173 #
vertex $-1 $79 $198 #
vertex $-1 $79 $199 #
straight-curve $-1 77.731864375743896 0 15.553941072196633 0 1 0 I I #
face $-1 $200 $201 $23 $-1 $202 reversed single #
loop $-1 $-1 $203 $80 #
plane-surface $-1 -16.978032171110002 0 0 1 0 0 0 0 -1 forward_v I I I I #
coedge $-1 $204 $136 $205 $206 forward $81 $-1 #
coedge $-1 $207 $83 $204 $208 forward $55 $-1 #
coedge $-1 $83 $207 $209 $210 forward $55 $-1 #
coedge $-1 $139 $138 $83 $132 reversed $140 $-1 #
edge $-1 $211 $212 $131 $213 forward #
coedge $-1 $85 $84 $214 $215 forward $39 $-1 #
coedge $-1 $216 $217 $84 $135 reversed $201 $-1 #
edge $-1 $142 $218 $134 $219 forward #
coedge $-1 $128 $220 $85 $137 reversed $81 $-1 #
edge $-1 $221 $141 $136 $222 forward #
coedge $-1 $131 $86 $220 $223 forward $140 $-1 #
coedge $-1 $86 $131 $216 $224 reversed $140 $-1 #
loop $-1 $-1 $138 $200 #
vertex $-1 $87 $225 #
vertex $-1 $87 $226 #
straight-curve $-1 16.978032171110002 0 155.46372875148779 0 1 0 I I #
loop $-1 $-1 $227 $58 #
coedge $-1 $145 $145 $91 $146 reversed $88 $-1 #
edge $-1 $228 $228 $145 $229 forward #
vertex $-1 $92 $230 #
ellipse-curve $-1 0 0 -4.8438825647755372 0 0 -1 3 0 0 1 I I #
face $-1 $231 $232 $27 $-1 $233 reversed single #
loop $-1 $-1 $234 $93 #
plane-surface $-1 -15.540442223549935 0 0 1 0 0 0 0 -1 forward_v I I I I #
coedge $-1 $235 $160 $236 $237 forward $94 $-1 #
coedge $-1 $238 $96 $235 $239 forward $64 $-1 #
coedge $-1 $96 $238 $240 $241 forward $64 $-1 #
coedge $-1 $163 $162 $96 $156 reversed $164 $-1 #
edge $-1 $242 $243 $155 $244 forward #
coedge $-1 $98 $97 $245 $246 forward $45 $-1 #
coedge $-1 $247 $248 $97 $159 reversed $232 $-1 #
edge $-1 $166 $249 $158 $250 forward #
coedge $-1 $152 $251 $98 $161 reversed $94 $-1 #
edge $-1 $252 $165 $160 $253 forward #
coedge $-1 $155 $99 $251 $254 forward $164 $-1 #
coedge $-1 $99 $155 $247 $255 reversed $164 $-1 #
loop $-1 $-1 $162 $231 #
vertex $-1 $100 $256 #
vertex $-1 $100 $257 #
straight-curve $-1 15.540442223549935 0 155.46372875148779 0 1 0 I I #
loop $-1 $-1 $258 $67 #
coedge $-1 $169 $169 $104 $170 reversed $101 $-1 #
edge $-1 $259 $259 $169 $260 forward #
vertex $-1 $105 $261 #
ellipse-curve $-1 0 0 -7.0963774529252017 0 0 -1 2 0 0 1 I I #
face $-1 $-1 $121 $21 $-1 $262 reversed single #
loop $-1 $-1 $189 $106 #
plane-surface $-1 0 46.012367364480383 0 0 -1 0 0 0 -1 forward_v I I I I #
coedge $-1 $263 $187 $190 $264 forward $107 $-1 #
coedge $-1 $193 $109 $110 $181 reversed $73 $-1 #
coedge $-1 $187 $263 $109 $179 reversed $107 $-1 #
edge $-1 $194 $265 $178 $266 forward #
coedge $-1 $111 $110 $263 $267 forward $51 $-1 #
edge $-1 $185 $265 $177 $268 forward #
coedge $-1 $190 $189 $111 $183 reversed $174 $-1 #
edge $-1 $269 $184 $182 $270 forward #
vertex $-1 $113 $271 #
vertex $-1 $196 $272 #
straight-curve $-1 77.731864375743896 0 -15.553941072196633 0 -1 0 I I #
coedge $-1 $176 $178 $114 $188 reversed $107 $-1 #
edge $-1 $191 $194 $187 $273 forward #
coedge $-1 $182 $115 $120 $197 forward $174 $-1 #
coedge $-1 $115 $182 $176 $264 reversed $174 $-1 #
vertex $-1 $116 $274 #
straight-curve $-1 0 46.012367364480383 15.553941072196633 -1 0 0 I I #
coedge $-1 $117 $177 $119 $196 reversed $73 $-1 #
vertex $-1 $188 $275 #
straight-curve $-1 0 -46.012367364480383 15.553941072196633 1 0 0 I I #
edge $-1 $122 $185 $119 $276 forward #
edge $-1 $123 $184 $120 $277 forward #
point $-1 77.731864375743896 -46.012367364480383 15.553941072196633 #
point $-1 77.731864375743896 46.012367364480383 15.553941072196633 #
face $-1 $-1 $140 $23 $-1 $278 reversed single #
loop $-1 $-1 $216 $125 #
plane-surface $-1 0 310.92745750297559 0 0 -1 0 0 0 -1 forward_v I I I I #
coedge $-1 $279 $214 $217 $280 forward $126 $-1 #
coedge $-1 $220 $128 $129 $208 reversed $81 $-1 #
coedge $-1 $214 $279 $128 $206 reversed $126 $-1 #
edge $-1 $221 $281 $205 $282 forward #
coedge $-1 $130 $129 $279 $283 forward $55 $-1 #
edge $-1 $212 $281 $204 $284 forward #
coedge $-1 $217 $216 $130 $210 reversed $201 $-1 #
edge $-1 $285 $211 $209 $286 forward #
vertex $-1 $132 $287 #
vertex $-1 $223 $288 #
straight-curve $-1 16.978032171110002 0 -155.46372875148779 0 -1 0 I I #
coedge $-1 $203 $205 $133 $215 reversed $126 $-1 #
edge $-1 $218 $221 $214 $289 forward #
coedge $-1 $209 $134 $139 $224 forward $201 $-1 #
coedge $-1 $134 $209 $203 $280 reversed $201 $-1 #
vertex $-1 $135 $290 #
straight-curve $-1 0 310.92745750297559 155.46372875148779 -1 0 0 I I #
coedge $-1 $136 $204 $138 $223 reversed $81 $-1 #
vertex $-1 $215 $291 #
straight-curve $-1 0 -310.92745750297559 155.46372875148779 1 0 0 I I #
edge $-1 $141 $212 $138 $292 forward #
edge $-1 $142 $211 $139 $293 forward #
point $-1 16.978032171110002 -310.92745750297559 155.46372875148779 #
point $-1 16.978032171110002 310.92745750297559 155.46372875148779 #
coedge $-1 $227 $227 $-1 $294 reversed $144 $-1 #
vertex $-1 $146 $295 #
ellipse-curve $-1 0 0 -1.5 0 0 -1 3 0 0 1 I I #
point $-1 3 0 -4.8438825647755372 #
face $-1 $-1 $164 $27 $-1 $296 reversed single #
loop $-1 $-1 $247 $149 #
plane-surface $-1 0 310.92745750297559 0 0 -1 0 0 0 -1 forward_v I I I I #
coedge $-1 $297 $245 $248 $298 forward $150 $-1 #
coedge $-1 $251 $152 $153 $239 reversed $94 $-1 #
coedge $-1 $245 $297 $152 $237 reversed $150 $-1 #
edge $-1 $252 $299 $236 $300 forward #
coedge $-1 $154 $153 $297 $301 forward $64 $-1 #
edge $-1 $243 $299 $235 $302 forward #
coedge $-1 $248 $247 $154 $241 reversed $232 $-1 #
edge $-1 $303 $242 $240 $304 forward #
vertex $-1 $156 $305 #
vertex $-1 $254 $306 #
straight-curve $-1 15.540442223549935 0 -155.46372875148779 0 -1 0 I I #
coedge $-1 $234 $236 $157 $246 reversed $150 $-1 #
edge $-1 $249 $252 $245 $307 forward #
coedge $-1 $240 $158 $163 $255 forward $232 $-1 #
coedge $-1 $158 $240 $234 $298 reversed $232 $-1 #
vertex $-1 $159 $308 #
straight-curve $-1 0 310.92745750297559 155.46372875148779 -1 0 0 I I #
coedge $-1 $160 $235 $162 $254 reversed $94 $-1 #
vertex $-1 $246 $309 #
straight-curve $-1 0 -310.92745750297559 155.46372875148779 1 0 0 I I #
edge $-1 $165 $243 $162 $310 forward #
edge $-1 $166 $242 $163 $311 forward #
point $-1 15.540442223549935 -310.92745750297559 155.46372875148779 #
point $-1 15.540442223549935 310.92745750297559 155.46372875148779 #
coedge $-1 $258 $258 $-1 $312 reversed $168 $-1 #
vertex $-1 $170 $313 #
ellipse-curve $-1 0 0 -1 0 0 -1 2 0 0 1 I I #
point $-1 2 0 -7.0963774529252017 #
plane-surface $-1 77.731864375743896 0 0 -1 0 0 0 0 1 forward_v I I I I #
coedge $-1 $178 $176 $180 $267 reversed $107 $-1 #
edge $-1 $191 $269 $190 $314 forward #
vertex $-1 $267 $315 #
straight-curve $-1 -77.731864375743896 -46.012367364480383 0 0 0 -1 I I #
edge $-1 $265 $269 $263 $316 forward #
straight-curve $-1 0 -46.012367364480383 -15.553941072196633 -1 0 0 I I #
vertex $-1 $183 $317 #
straight-curve $-1 0 46.012367364480383 -15.553941072196633 1 0 0 I I #
point $-1 77.731864375743896 46.012367364480383 -15.553941072196633 #
point $-1 77.731864375743896 -46.012367364480383 -15.553941072196633 #
straight-curve $-1 -77.731864375743896 0 15.553941072196633 0 -1 0 I I #
point $-1 -77.731864375743896 46.012367364480383 15.553941072196633 #
point $-1 -77.731864375743896 -46.012367364480383 15.553941072196633 #
straight-curve $-1 77.731864375743896 -46.012367364480383 0 0 0 -1 I I #
straight-curve $-1 77.731864375743896 46.012367364480383 0 0 0 -1 I I #
plane-surface $-1 16.978032171110002 0 0 -1 0 0 0 0 1 forward_v I I I I #
coedge $-1 $205 $203 $207 $283 reversed $126 $-1 #
edge $-1 $218 $285 $217 $318 forward #
vertex $-1 $283 $319 #
straight-curve $-1 -16.978032171110002 -310.92745750297559 0 0 0 -1 I I #
edge $-1 $281 $285 $279 $320 forward #
straight-curve $-1 0 -310.92745750297559 -155.46372875148779 -1 0 0 I I #
vertex $-1 $210 $321 #
straight-curve $-1 0 310.92745750297559 -155.46372875148779 1 0 0 I I #
point $-1 16.978032171110002 310.92745750297559 -155.46372875148779 #
point $-1 16.978032171110002 -310.92745750297559 -155.46372875148779 #
straight-curve $-1 -16.978032171110002 0 155.46372875148779 0 -1 0 I I #
point $-1 -16.978032171110002 310.92745750297559 155.46372875148779 #
point $-1 -16.978032171110002 -310.92745750297559 155.46372875148779 #
straight-curve $-1 16.978032171110002 -310.92745750297559 0 0 0 -1 I I #
straight-curve $-1 16.978032171110002 310.92745750297559 0 0 0 -1 I I #
edge $-1 $322 $322 $227 $-1 forward #
point $-1 3 0 -1.5 #
plane-surface $-1 15.540442223549935 0 0 -1 0 0 0 0 1 forward_v I I I I #
coedge $-1 $236 $234 $238 $301 reversed $150 $-1 #
edge $-1 $249 $303 $248 $323 forward #
vertex $-1 $301 $324 #
straight-curve $-1 -15.540442223549935 -310.92745750297559 0 0 0 -1 I I #
edge $-1 $299 $303 $297 $325 forward #
straight-curve $-1 0 -310.92745750297559 -155.46372875148779 -1 0 0 I I #
vertex $-1 $241 $326 #
straight-curve $-1 0 310.92745750297559 -155.46372875148779 1 0 0 I I #
point $-1 15.540442223549935 310.92745750297559 -155.46372875148779 #
point $-1 15.540442223549935 -310.92745750297559 -155.46372875148779 #
straight-curve $-1 -15.540442223549935 0 155.46372875148779 0 -1 0 I I #
point $-1 -15.540442223549935 310.92745750297559 155.46372875148779 #
point $-1 -15.540442223549935 -310.92745750297559 155.46372875148779 #
straight-curve $-1 15.540442223549935 -310.92745750297559 0 0 0 -1 I I #
straight-curve $-1 15.540442223549935 310.92745750297559 0 0 0 -1 I I #
edge $-1 $327 $327 $258 $-1 forward #
point $-1 2 0 -1 #
straight-curve $-1 -77.731864375743896 46.012367364480383 0 0 0 -1 I I #
point $-1 -77.731864375743896 -46.012367364480383 -15.553941072196633 #
straight-curve $-1 -77.731864375743896 0 -15.553941072196633 0 1 0 I I #
point $-1 -77.731864375743896 46.012367364480383 -15.553941072196633 #
straight-curve $-1 -16.978032171110002 310.92745750297559 0 0 0 -1 I I #
point $-1 -16.978032171110002 -310.92745750297559 -155.46372875148779 #
straight-curve $-1 -16.978032171110002 0 -155.46372875148779 0 1 0 I I #
point $-1 -16.978032171110002 310.92745750297559 -155.46372875148779 #
vertex $-1 $294 $328 #
straight-curve $-1 -15.540442223549935 310.92745750297559 0 0 0 -1 I I #
point $-1 -15.540442223549935 -310.92745750297559 -155.46372875148779 #
straight-curve $-1 -15.540442223549935 0 -155.46372875148779 0 1 0 I I #
point $-1 -15.540442223549935 310.92745750297559 -155.46372875148779 #
vertex $-1 $312 $329 #
point $-1 0 0 1.5 #
point $-1 0 0 1 #
End-of-ACIS-data 