600 0 14 0           
94 GICL ACIS Healer - Source: /gicl/data5/repository/Drexel/SM99-DATA/part116.smdg.feat.sat - 6 0 18 ACIS 6.0.3 Solaris 24 Sat Apr 13 20:44:38 2002 
1 9.999999999999999547e-07 1.000000000000000036e-10 
body $-1 $14 $-1 $-1 #
body $-1 $15 $-1 $-1 #
body $-1 $16 $-1 $-1 #
body $-1 $17 $-1 $-1 #
body $-1 $18 $-1 $-1 #
body $-1 $19 $-1 $-1 #
body $-1 $20 $-1 $-1 #
body $-1 $21 $-1 $-1 #
body $-1 $22 $-1 $-1 #
body $-1 $23 $-1 $-1 #
body $-1 $24 $-1 $-1 #
body $-1 $25 $-1 $-1 #
body $-1 $26 $-1 $-1 #
body $-1 $27 $-1 $-1 #
lump $-1 $-1 $28 $0 #
lump $-1 $-1 $29 $1 #
lump $-1 $-1 $30 $2 #
lump $-1 $-1 $31 $3 #
lump $-1 $-1 $32 $4 #
lump $-1 $-1 $33 $5 #
lump $-1 $-1 $34 $6 #
lump $-1 $-1 $35 $7 #
lump $-1 $-1 $36 $8 #
lump $-1 $-1 $37 $9 #
lump $-1 $-1 $38 $10 #
lump $-1 $-1 $39 $11 #
lump $-1 $-1 $40 $12 #
lump $-1 $-1 $41 $13 #
shell $-1 $-1 $-1 $42 $-1 $14 #
shell $-1 $-1 $-1 $43 $-1 $15 #
shell $-1 $-1 $-1 $44 $-1 $16 #
shell $-1 $-1 $-1 $45 $-1 $17 #
shell $-1 $-1 $-1 $46 $-1 $18 #
shell $-1 $-1 $-1 $47 $-1 $19 #
shell $-1 $-1 $-1 $48 $-1 $20 #
shell $-1 $-1 $-1 $49 $-1 $21 #
shell $-1 $-1 $-1 $50 $-1 $22 #
shell $-1 $-1 $-1 $51 $-1 $23 #
shell $-1 $-1 $-1 $52 $-1 $24 #
shell $-1 $-1 $-1 $53 $-1 $25 #
shell $-1 $-1 $-1 $54 $-1 $26 #
shell $-1 $-1 $-1 $55 $-1 $27 #
face $-1 $56 $57 $28 $-1 $58 forward single #
face $-1 $59 $60 $29 $-1 $61 forward single #
face $-1 $62 $63 $30 $-1 $64 forward single #
face $-1 $65 $66 $31 $-1 $67 forward single #
face $-1 $68 $69 $32 $-1 $70 forward single #
face $-1 $71 $72 $33 $-1 $73 forward single #
face $-1 $74 $75 $34 $-1 $76 forward single #
face $-1 $77 $78 $35 $-1 $79 forward single #
face $-1 $80 $81 $36 $-1 $82 forward single #
face $-1 $83 $84 $37 $-1 $85 forward single #
face $-1 $86 $87 $38 $-1 $88 forward single #
face $-1 $89 $90 $39 $-1 $91 forward single #
face $-1 $92 $93 $40 $-1 $94 forward single #
face $-1 $95 $96 $41 $-1 $97 forward single #
face $-1 $98 $99 $28 $-1 $100 reversed single #
loop $-1 $-1 $101 $42 #
plane-surface $-1 56.06982634968107959 37.97217635305347017 30.19371503169461946 0 0 1 1 0 0 forward_v I I I I #
face $-1 $102 $103 $29 $-1 $104 reversed single #
loop $-1 $-1 $105 $43 #
plane-surface $-1 6.996520598810574754 37.97217635305347017 5.824501887381771326 0 0 1 1 0 0 forward_v I I I I #
face $-1 $106 $107 $30 $-1 $108 reversed single #
loop $-1 $-1 $109 $44 #
plane-surface $-1 24.13913099743261625 142.3757077235938198 251.936942206365984 0 0.5735764437432435692 0.819152039112919339 1 0 0 forward_v I I I I #
face $-1 $110 $111 $31 $-1 $112 forward single #
loop $-1 $113 $114 $45 #
cone-surface $-1 18.05147711754573692 71.50120011575155843 26.72561470181552323 0 -0.5735764437432435692 -0.819152039112919339 1 0 0 1 I I 0 1 1 forward I I I I #
face $-1 $115 $116 $32 $-1 $117 forward single #
loop $-1 $118 $119 $46 #
cone-surface $-1 24.13913099743261625 71.50120011575155843 26.72561470181552323 0 -0.5735764437432435692 -0.819152039112919339 1 0 0 1 I I 0 1 1 forward I I I I #
face $-1 $120 $121 $33 $-1 $122 forward single #
loop $-1 $123 $124 $47 #
cone-surface $-1 30.22678487731949559 71.50120011575155843 26.72561470181552323 0 -0.5735764437432435692 -0.819152039112919339 1 0 0 1 I I 0 1 1 forward I I I I #
face $-1 $125 $126 $34 $-1 $127 reversed single #
loop $-1 $-1 $128 $48 #
plane-surface $-1 38.05818437332182214 -122.1512660666275281 211.4333632291024969 0 -0.5446390421508873203 0.8386705633113421543 1 0 0 forward_v I I I I #
face $-1 $129 $130 $35 $-1 $131 forward single #
loop $-1 $132 $133 $49 #
cone-surface $-1 31.66146167090596109 6.689175300644590649 24.59425802430706298 0 0.5446390421508873203 -0.8386705633113421543 1.5 0 0 1 I I 0 1 1.5 forward I I I I #
face $-1 $134 $135 $36 $-1 $136 forward single #
loop $-1 $137 $138 $50 #
cone-surface $-1 38.05818437332182214 6.689175300644590649 24.59425802430706298 0 0.5446390421508873203 -0.8386705633113421543 1.5 0 0 1 I I 0 1 1.5 forward I I I I #
face $-1 $139 $140 $37 $-1 $141 forward single #
loop $-1 $142 $143 $51 #
cone-surface $-1 44.45490707573768674 6.689175300644590649 24.59425802430706298 0 0.5446390421508873203 -0.8386705633113421543 1.5 0 0 1 I I 0 1 1.5 forward I I I I #
face $-1 $144 $145 $38 $-1 $146 reversed single #
loop $-1 $-1 $147 $52 #
plane-surface $-1 88.0745095236614759 -122.1512660666275281 211.4333632291024969 0 -0.5446390421508873203 0.8386705633113421543 1 0 0 forward_v I I I I #
face $-1 $148 $149 $39 $-1 $150 forward single #
loop $-1 $151 $152 $53 #
cone-surface $-1 81.6777868212456184 6.689175300644590649 24.59425802430706298 0 0.5446390421508873203 -0.8386705633113421543 1.5 0 0 1 I I 0 1 1.5 forward I I I I #
face $-1 $153 $154 $40 $-1 $155 forward single #
loop $-1 $156 $157 $54 #
cone-surface $-1 88.0745095236614759 6.689175300644590649 24.59425802430706298 0 0.5446390421508873203 -0.8386705633113421543 1.5 0 0 1 I I 0 1 1.5 forward I I I I #
face $-1 $158 $159 $41 $-1 $160 forward single #
loop $-1 $161 $162 $55 #
cone-surface $-1 94.4712322260773476 6.689175300644590649 24.59425802430706298 0 0.5446390421508873203 -0.8386705633113421543 1.5 0 0 1 I I 0 1 1.5 forward I I I I #
face $-1 $163 $164 $28 $-1 $165 reversed single #
loop $-1 $-1 $166 $56 #
plane-surface $-1 56.06982634968107959 37.97217635305347017 0 0 0 1 1 0 0 forward_v I I I I #
coedge $-1 $167 $168 $169 $170 forward $57 $-1 #
face $-1 $171 $172 $29 $-1 $173 reversed single #
loop $-1 $-1 $174 $59 #
plane-surface $-1 6.996520598810574754 37.97217635305347017 0 0 0 1 1 0 0 forward_v I I I I #
coedge $-1 $175 $176 $177 $178 forward $60 $-1 #
face $-1 $179 $180 $30 $-1 $181 reversed single #
loop $-1 $-1 $182 $62 #
plane-surface $-1 24.13913099743261625 13.73438132778866816 68.21809185817177479 0 0.5735764437432435692 0.819152039112919339 1 0 0 forward_v I I I I #
coedge $-1 $183 $184 $185 $186 forward $63 $-1 #
face $-1 $-1 $187 $31 $-1 $188 forward single #
loop $-1 $-1 $189 $65 #
plane-surface $-1 18.05147711754573692 71.99158548161493343 27.42595757115750743 0 0.5735764437432435692 0.819152039112919339 -1 -0 0 forward_v I I I I #
loop $-1 $-1 $190 $45 #
coedge $-1 $114 $114 $189 $191 reversed $66 $-1 #
face $-1 $-1 $192 $32 $-1 $193 forward single #
loop $-1 $-1 $194 $68 #
plane-surface $-1 24.13913099743261625 71.99158548161493343 27.42595757115750743 0 0.5735764437432435692 0.819152039112919339 -1 -0 0 forward_v I I I I #
loop $-1 $-1 $195 $46 #
coedge $-1 $119 $119 $194 $196 reversed $69 $-1 #
face $-1 $-1 $197 $33 $-1 $198 forward single #
loop $-1 $-1 $199 $71 #
plane-surface $-1 30.22678487731949559 71.99158548161493343 27.42595757115750743 0 0.5735764437432435692 0.819152039112919339 -1 -0 0 forward_v I I I I #
loop $-1 $-1 $200 $47 #
coedge $-1 $124 $124 $199 $201 reversed $72 $-1 #
face $-1 $202 $203 $34 $-1 $204 reversed single #
loop $-1 $-1 $205 $74 #
plane-surface $-1 38.05818437332182214 7.105427357601001859e-15 23.3369118312778312 0 -0.5446390421508873203 0.8386705633113421543 1 0 0 forward_v I I I I #
coedge $-1 $206 $207 $208 $209 forward $75 $-1 #
face $-1 $-1 $210 $35 $-1 $211 forward single #
loop $-1 $-1 $212 $77 #
plane-surface $-1 31.66146167090596109 5.279275407707007872 26.76531343148622355 0 -0.5446390421508873203 0.8386705633113421543 -1 0 -0 forward_v I I I I #
loop $-1 $-1 $213 $49 #
coedge $-1 $133 $133 $212 $214 reversed $78 $-1 #
face $-1 $-1 $215 $36 $-1 $216 forward single #
loop $-1 $-1 $217 $80 #
plane-surface $-1 38.05818437332182214 5.279275407707007872 26.76531343148622355 0 -0.5446390421508873203 0.8386705633113421543 -1 0 -0 forward_v I I I I #
loop $-1 $-1 $218 $50 #
coedge $-1 $138 $138 $217 $219 reversed $81 $-1 #
face $-1 $-1 $220 $37 $-1 $221 forward single #
loop $-1 $-1 $222 $83 #
plane-surface $-1 44.45490707573768674 5.279275407707007872 26.76531343148622355 0 -0.5446390421508873203 0.8386705633113421543 -1 0 -0 forward_v I I I I #
loop $-1 $-1 $223 $51 #
coedge $-1 $143 $143 $222 $224 reversed $84 $-1 #
face $-1 $225 $226 $38 $-1 $227 reversed single #
loop $-1 $-1 $228 $86 #
plane-surface $-1 88.0745095236614759 7.105427357601001859e-15 23.3369118312778312 0 -0.5446390421508873203 0.8386705633113421543 1 0 0 forward_v I I I I #
coedge $-1 $229 $230 $231 $232 forward $87 $-1 #
face $-1 $-1 $233 $39 $-1 $234 forward single #
loop $-1 $-1 $235 $89 #
plane-surface $-1 81.6777868212456184 5.279275407707007872 26.76531343148622355 0 -0.5446390421508873203 0.8386705633113421543 -1 0 -0 forward_v I I I I #
loop $-1 $-1 $236 $53 #
coedge $-1 $152 $152 $235 $237 reversed $90 $-1 #
face $-1 $-1 $238 $40 $-1 $239 forward single #
loop $-1 $-1 $240 $92 #
plane-surface $-1 88.0745095236614759 5.279275407707007872 26.76531343148622355 0 -0.5446390421508873203 0.8386705633113421543 -1 0 -0 forward_v I I I I #
loop $-1 $-1 $241 $54 #
coedge $-1 $157 $157 $240 $242 reversed $93 $-1 #
face $-1 $-1 $243 $41 $-1 $244 forward single #
loop $-1 $-1 $245 $95 #
plane-surface $-1 94.4712322260773476 5.279275407707007872 26.76531343148622355 0 -0.5446390421508873203 0.8386705633113421543 -1 0 -0 forward_v I I I I #
loop $-1 $-1 $246 $55 #
coedge $-1 $162 $162 $245 $247 reversed $96 $-1 #
face $-1 $248 $249 $28 $-1 $250 reversed single #
loop $-1 $-1 $251 $98 #
plane-surface $-1 56.06982634968107959 0 15.09685751584730973 0 1 0 0 0 1 forward_v I I I I #
coedge $-1 $252 $253 $254 $255 forward $99 $-1 #
coedge $-1 $256 $101 $257 $258 forward $57 $-1 #
coedge $-1 $101 $256 $259 $260 forward $57 $-1 #
coedge $-1 $261 $262 $101 $170 reversed $263 $-1 #
edge $-1 $264 -37.97217635305347017 $265 37.97217635305347017 $169 $266 forward 7 unknown #
face $-1 $267 $268 $29 $-1 $269 reversed single #
loop $-1 $-1 $270 $102 #
plane-surface $-1 6.996520598810574754 0 2.912250943690885663 0 1 0 0 0 1 forward_v I I I I #
coedge $-1 $271 $272 $273 $274 forward $103 $-1 #
coedge $-1 $275 $105 $276 $277 forward $60 $-1 #
coedge $-1 $105 $275 $278 $279 forward $60 $-1 #
coedge $-1 $280 $281 $105 $178 reversed $282 $-1 #
edge $-1 $283 -37.97217635305347017 $284 37.97217635305347017 $177 $285 forward 7 unknown #
face $-1 $286 $287 $30 $-1 $288 reversed single #
loop $-1 $-1 $289 $106 #
plane-surface $-1 24.13913099743261625 -105.6638058225029511 288.7188434280740239 0 0.819152039112919339 -0.5735764437432435692 0 0.5735764437432435692 0.819152039112919339 forward_v I I I I #
coedge $-1 $290 $291 $292 $293 forward $107 $-1 #
coedge $-1 $294 $109 $295 $296 forward $63 $-1 #
coedge $-1 $109 $294 $297 $298 forward $63 $-1 #
coedge $-1 $299 $300 $109 $186 reversed $301 $-1 #
edge $-1 $302 -224.2793053987243184 $303 224.2793053987243184 $185 $304 forward 7 unknown #
loop $-1 $305 $306 $110 #
cone-surface $-1 18.05147711754573692 70.72402652801656586 25.61569581291707465 0 -0.5735764437432435692 -0.819152039112919339 0.5 0 0 1 I I -0.7071067811865474617 0.7071067811865474617 0.5 forward I I I I #
coedge $-1 $189 $189 $114 $191 forward $111 $-1 #
coedge $-1 $190 $190 $306 $307 forward $113 $-1 #
edge $-1 $308 0 $308 6.283185307179586232 $189 $309 forward 7 unknown #
loop $-1 $310 $311 $115 #
cone-surface $-1 24.13913099743261625 70.72402652801656586 25.61569581291707465 0 -0.5735764437432435692 -0.819152039112919339 0.5 0 0 1 I I -0.7071067811865474617 0.7071067811865474617 0.5 forward I I I I #
coedge $-1 $194 $194 $119 $196 forward $116 $-1 #
coedge $-1 $195 $195 $311 $312 forward $118 $-1 #
edge $-1 $313 0 $313 6.283185307179586232 $194 $314 forward 7 unknown #
loop $-1 $315 $316 $120 #
cone-surface $-1 30.22678487731949559 70.72402652801656586 25.61569581291707465 0 -0.5735764437432435692 -0.819152039112919339 0.5 0 0 1 I I -0.7071067811865474617 0.7071067811865474617 0.5 forward I I I I #
coedge $-1 $199 $199 $124 $201 forward $121 $-1 #
coedge $-1 $200 $200 $316 $317 forward $123 $-1 #
edge $-1 $318 0 $318 6.283185307179586232 $199 $319 forward 7 unknown #
face $-1 $320 $321 $34 $-1 $322 reversed single #
loop $-1 $-1 $323 $125 #
plane-surface $-1 38.05818437332182214 -249.172084431138444 -4.766128536437378216 0 0.8386705633113421543 0.5446390421508873203 0 -0.5446390421508873203 0.8386705633113421543 forward_v I I I I #
coedge $-1 $324 $325 $326 $327 forward $126 $-1 #
coedge $-1 $328 $128 $329 $330 forward $75 $-1 #
coedge $-1 $128 $328 $331 $332 forward $75 $-1 #
coedge $-1 $333 $334 $128 $209 reversed $335 $-1 #
edge $-1 $336 -224.2793053987243184 $337 224.2793053987243184 $208 $338 forward 7 unknown #
loop $-1 $339 $340 $129 #
cone-surface $-1 31.66146167090596109 8.507554475195338028 21.79419969464439433 0 0.5446390421508873203 -0.8386705633113421543 0.75 0 0 1 I I -0.7071067811865475727 0.7071067811865475727 0.75 forward I I I I #
coedge $-1 $212 $212 $133 $214 forward $130 $-1 #
coedge $-1 $213 $213 $340 $341 forward $132 $-1 #
edge $-1 $342 0 $342 6.283185307179586232 $212 $343 forward 7 unknown #
loop $-1 $344 $345 $134 #
cone-surface $-1 38.05818437332182214 8.507554475195338028 21.79419969464439433 0 0.5446390421508873203 -0.8386705633113421543 0.75 0 0 1 I I -0.7071067811865475727 0.7071067811865475727 0.75 forward I I I I #
coedge $-1 $217 $217 $138 $219 forward $135 $-1 #
coedge $-1 $218 $218 $345 $346 forward $137 $-1 #
edge $-1 $347 0 $347 6.283185307179586232 $217 $348 forward 7 unknown #
loop $-1 $349 $350 $139 #
cone-surface $-1 44.45490707573768674 8.507554475195338028 21.79419969464439433 0 0.5446390421508873203 -0.8386705633113421543 0.75 0 0 1 I I -0.7071067811865475727 0.7071067811865475727 0.75 forward I I I I #
coedge $-1 $222 $222 $143 $224 forward $140 $-1 #
coedge $-1 $223 $223 $350 $351 forward $142 $-1 #
edge $-1 $352 0 $352 6.283185307179586232 $222 $353 forward 7 unknown #
face $-1 $354 $355 $38 $-1 $356 reversed single #
loop $-1 $-1 $357 $144 #
plane-surface $-1 88.0745095236614759 -249.172084431138444 -4.766128536437378216 0 0.8386705633113421543 0.5446390421508873203 0 -0.5446390421508873203 0.8386705633113421543 forward_v I I I I #
coedge $-1 $358 $359 $360 $361 forward $145 $-1 #
coedge $-1 $362 $147 $363 $364 forward $87 $-1 #
coedge $-1 $147 $362 $365 $366 forward $87 $-1 #
coedge $-1 $367 $368 $147 $232 reversed $369 $-1 #
edge $-1 $370 -224.2793053987243184 $371 224.2793053987243184 $231 $372 forward 7 unknown #
loop $-1 $373 $374 $148 #
cone-surface $-1 81.6777868212456184 8.507554475195338028 21.79419969464439433 0 0.5446390421508873203 -0.8386705633113421543 0.75 0 0 1 I I -0.7071067811865475727 0.7071067811865475727 0.75 forward I I I I #
coedge $-1 $235 $235 $152 $237 forward $149 $-1 #
coedge $-1 $236 $236 $374 $375 forward $151 $-1 #
edge $-1 $376 0 $376 6.283185307179586232 $235 $377 forward 7 unknown #
loop $-1 $378 $379 $153 #
cone-surface $-1 88.0745095236614759 8.507554475195338028 21.79419969464439433 0 0.5446390421508873203 -0.8386705633113421543 0.75 0 0 1 I I -0.7071067811865475727 0.7071067811865475727 0.75 forward I I I I #
coedge $-1 $240 $240 $157 $242 forward $154 $-1 #
coedge $-1 $241 $241 $379 $380 forward $156 $-1 #
edge $-1 $381 0 $381 6.283185307179586232 $240 $382 forward 7 unknown #
loop $-1 $383 $384 $158 #
cone-surface $-1 94.4712322260773476 8.507554475195338028 21.79419969464439433 0 0.5446390421508873203 -0.8386705633113421543 0.75 0 0 1 I I -0.7071067811865475727 0.7071067811865475727 0.75 forward I I I I #
coedge $-1 $245 $245 $162 $247 forward $159 $-1 #
coedge $-1 $246 $246 $384 $385 forward $161 $-1 #
edge $-1 $386 0 $386 6.283185307179586232 $245 $387 forward 7 unknown #
face $-1 $388 $389 $28 $-1 $390 reversed single #
loop $-1 $-1 $391 $163 #
plane-surface $-1 0 37.97217635305347017 15.09685751584730973 1 0 0 0 0 -1 forward_v I I I I #
coedge $-1 $392 $259 $393 $394 forward $164 $-1 #
coedge $-1 $395 $166 $392 $396 forward $99 $-1 #
coedge $-1 $166 $395 $397 $398 forward $99 $-1 #
coedge $-1 $262 $261 $166 $255 reversed $263 $-1 #
edge $-1 $399 -37.97217635305347017 $400 37.97217635305347017 $254 $401 forward 7 unknown #
coedge $-1 $168 $167 $402 $403 forward $57 $-1 #
coedge $-1 $404 $405 $167 $258 reversed $389 $-1 #
edge $-1 $265 -56.06982634968107959 $406 56.06982634968107959 $257 $407 forward 7 unknown #
coedge $-1 $251 $408 $168 $260 reversed $164 $-1 #
edge $-1 $409 -56.06982634968107959 $264 56.06982634968107959 $259 $410 forward 7 unknown #
coedge $-1 $254 $169 $408 $411 forward $263 $-1 #
coedge $-1 $169 $254 $404 $412 reversed $263 $-1 #
loop $-1 $-1 $261 $388 #
vertex $-1 $170 $413 #
vertex $-1 $170 $414 #
straight-curve $-1 112.1396526993621592 37.97217635305347017 30.19371503169461946 0 1 0 I I #
face $-1 $415 $416 $29 $-1 $417 reversed single #
loop $-1 $-1 $418 $171 #
plane-surface $-1 0 37.97217635305347017 2.912250943690885663 1 0 0 0 0 -1 forward_v I I I I #
coedge $-1 $419 $278 $420 $421 forward $172 $-1 #
coedge $-1 $422 $174 $419 $423 forward $103 $-1 #
coedge $-1 $174 $422 $424 $425 forward $103 $-1 #
coedge $-1 $281 $280 $174 $274 reversed $282 $-1 #
edge $-1 $426 -37.97217635305347017 $427 37.97217635305347017 $273 $428 forward 7 unknown #
coedge $-1 $176 $175 $429 $430 forward $60 $-1 #
coedge $-1 $431 $432 $175 $277 reversed $416 $-1 #
edge $-1 $284 -6.996520598810574754 $433 6.996520598810574754 $276 $434 forward 7 unknown #
coedge $-1 $270 $435 $176 $279 reversed $172 $-1 #
edge $-1 $436 -6.996520598810574754 $283 6.996520598810574754 $278 $437 forward 7 unknown #
coedge $-1 $273 $177 $435 $438 forward $282 $-1 #
coedge $-1 $177 $273 $431 $439 reversed $282 $-1 #
loop $-1 $-1 $280 $415 #
vertex $-1 $178 $440 #
vertex $-1 $178 $441 #
straight-curve $-1 13.99304119762114951 37.97217635305347017 5.824501887381771326 0 1 0 I I #
face $-1 $442 $443 $30 $-1 $444 reversed single #
loop $-1 $-1 $445 $179 #
plane-surface $-1 13.99304119762114773 78.05504452569124396 160.0775170322688723 1 0 0 0 -0.5735764437432435692 -0.819152039112919339 forward_v I I I I #
coedge $-1 $446 $297 $447 $448 forward $180 $-1 #
coedge $-1 $449 $182 $446 $450 forward $107 $-1 #
coedge $-1 $182 $449 $451 $452 forward $107 $-1 #
coedge $-1 $300 $299 $182 $293 reversed $301 $-1 #
edge $-1 $453 -224.2793053987243184 $454 224.2793053987243184 $292 $455 forward 7 unknown #
coedge $-1 $184 $183 $456 $457 forward $63 $-1 #
coedge $-1 $458 $459 $183 $296 reversed $443 $-1 #
edge $-1 $303 -10.1460897998114703 $460 10.14608979981146852 $295 $461 forward 7 unknown #
coedge $-1 $289 $462 $184 $298 reversed $180 $-1 #
edge $-1 $463 -10.14608979981146852 $302 10.1460897998114703 $297 $464 forward 7 unknown #
coedge $-1 $292 $185 $462 $465 forward $301 $-1 #
coedge $-1 $185 $292 $458 $466 reversed $301 $-1 #
loop $-1 $-1 $299 $442 #
vertex $-1 $186 $467 #
vertex $-1 $186 $468 #
straight-curve $-1 34.28522079724408655 142.3757077235938198 251.936942206365984 0 0.819152039112919339 -0.5735764437432435692 I I #
loop $-1 $-1 $469 $110 #
coedge $-1 $306 $306 $190 $307 reversed $187 $-1 #
edge $-1 $470 0 $470 6.283185307179586232 $306 $471 forward 7 unknown #
vertex $-1 $191 $472 #
ellipse-curve $-1 18.05147711754573692 71.99158548161493343 27.42595757115750743 0 0.5735764437432435692 0.819152039112919339 1 0 0 1 I I #
loop $-1 $-1 $473 $115 #
coedge $-1 $311 $311 $195 $312 reversed $192 $-1 #
edge $-1 $474 0 $474 6.283185307179586232 $311 $475 forward 7 unknown #
vertex $-1 $196 $476 #
ellipse-curve $-1 24.13913099743261625 71.99158548161493343 27.42595757115750743 0 0.5735764437432435692 0.819152039112919339 1 0 0 1 I I #
loop $-1 $-1 $477 $120 #
coedge $-1 $316 $316 $200 $317 reversed $197 $-1 #
edge $-1 $478 0 $478 6.283185307179586232 $316 $479 forward 7 unknown #
vertex $-1 $201 $480 #
ellipse-curve $-1 30.22678487731949559 71.99158548161493343 27.42595757115750743 0 0.5735764437432435692 0.819152039112919339 1 0 0 1 I I #
face $-1 $481 $482 $34 $-1 $483 reversed single #
loop $-1 $-1 $484 $202 #
plane-surface $-1 27.39697986929538231 -61.07563303331376403 117.3851375301901641 1 0 0 0 0.5446390421508873203 -0.8386705633113421543 forward_v I I I I #
coedge $-1 $485 $331 $486 $487 forward $203 $-1 #
coedge $-1 $488 $205 $485 $489 forward $126 $-1 #
coedge $-1 $205 $488 $490 $491 forward $126 $-1 #
coedge $-1 $334 $333 $205 $327 reversed $335 $-1 #
edge $-1 $492 -224.2793053987243184 $493 224.2793053987242899 $326 $494 forward 7 unknown #
coedge $-1 $207 $206 $495 $496 forward $75 $-1 #
coedge $-1 $497 $498 $206 $330 reversed $482 $-1 #
edge $-1 $337 -10.66120450402644337 $499 10.66120450402643982 $329 $500 forward 7 unknown #
coedge $-1 $323 $501 $207 $332 reversed $203 $-1 #
edge $-1 $502 -10.66120450402643982 $336 10.66120450402644337 $331 $503 forward 7 unknown #
coedge $-1 $326 $208 $501 $504 forward $335 $-1 #
coedge $-1 $208 $326 $497 $505 reversed $335 $-1 #
loop $-1 $-1 $333 $481 #
vertex $-1 $209 $506 #
vertex $-1 $209 $507 #
straight-curve $-1 48.71938887734826551 -122.1512660666275281 211.4333632291024969 0 0.8386705633113421543 0.5446390421508873203 I I #
loop $-1 $-1 $508 $129 #
coedge $-1 $340 $340 $213 $341 reversed $210 $-1 #
edge $-1 $509 0 $509 6.283185307179586232 $340 $510 forward 7 unknown #
vertex $-1 $214 $511 #
ellipse-curve $-1 31.66146167090596109 5.279275407707007872 26.76531343148622355 0 -0.5446390421508873203 0.8386705633113421543 1.5 0 0 1 I I #
loop $-1 $-1 $512 $134 #
coedge $-1 $345 $345 $218 $346 reversed $215 $-1 #
edge $-1 $513 0 $513 6.283185307179586232 $345 $514 forward 7 unknown #
vertex $-1 $219 $515 #
ellipse-curve $-1 38.05818437332182214 5.279275407707007872 26.76531343148622355 0 -0.5446390421508873203 0.8386705633113421543 1.5 0 0 1 I I #
loop $-1 $-1 $516 $139 #
coedge $-1 $350 $350 $223 $351 reversed $220 $-1 #
edge $-1 $517 0 $517 6.283185307179586232 $350 $518 forward 7 unknown #
vertex $-1 $224 $519 #
ellipse-curve $-1 44.45490707573768674 5.279275407707007872 26.76531343148622355 0 -0.5446390421508873203 0.8386705633113421543 1.5 0 0 1 I I #
face $-1 $520 $521 $38 $-1 $522 reversed single #
loop $-1 $-1 $523 $225 #
plane-surface $-1 77.41330501963503252 -61.07563303331376403 117.3851375301901641 1 0 0 0 0.5446390421508873203 -0.8386705633113421543 forward_v I I I I #
coedge $-1 $524 $365 $525 $526 forward $226 $-1 #
coedge $-1 $527 $228 $524 $528 forward $145 $-1 #
coedge $-1 $228 $527 $529 $530 forward $145 $-1 #
coedge $-1 $368 $367 $228 $361 reversed $369 $-1 #
edge $-1 $531 -224.2793053987243184 $532 224.2793053987242899 $360 $533 forward 7 unknown #
coedge $-1 $230 $229 $534 $535 forward $87 $-1 #
coedge $-1 $536 $537 $229 $364 reversed $521 $-1 #
edge $-1 $371 -10.66120450402644337 $538 10.66120450402644337 $363 $539 forward 7 unknown #
coedge $-1 $357 $540 $230 $366 reversed $226 $-1 #
edge $-1 $541 -10.66120450402644337 $370 10.66120450402644337 $365 $542 forward 7 unknown #
coedge $-1 $360 $231 $540 $543 forward $369 $-1 #
coedge $-1 $231 $360 $536 $544 reversed $369 $-1 #
loop $-1 $-1 $367 $520 #
vertex $-1 $232 $545 #
vertex $-1 $232 $546 #
straight-curve $-1 98.73571402768791927 -122.1512660666275281 211.4333632291024969 0 0.8386705633113421543 0.5446390421508873203 I I #
loop $-1 $-1 $547 $148 #
coedge $-1 $374 $374 $236 $375 reversed $233 $-1 #
edge $-1 $548 0 $548 6.283185307179586232 $374 $549 forward 7 unknown #
vertex $-1 $237 $550 #
ellipse-curve $-1 81.6777868212456184 5.279275407707007872 26.76531343148622355 0 -0.5446390421508873203 0.8386705633113421543 1.5 0 0 1 I I #
loop $-1 $-1 $551 $153 #
coedge $-1 $379 $379 $241 $380 reversed $238 $-1 #
edge $-1 $552 0 $552 6.283185307179586232 $379 $553 forward 7 unknown #
vertex $-1 $242 $554 #
ellipse-curve $-1 88.0745095236614759 5.279275407707007872 26.76531343148622355 0 -0.5446390421508873203 0.8386705633113421543 1.5 0 0 1 I I #
loop $-1 $-1 $555 $158 #
coedge $-1 $384 $384 $246 $385 reversed $243 $-1 #
edge $-1 $556 0 $556 6.283185307179586232 $384 $557 forward 7 unknown #
vertex $-1 $247 $558 #
ellipse-curve $-1 94.4712322260773476 5.279275407707007872 26.76531343148622355 0 -0.5446390421508873203 0.8386705633113421543 1.5 0 0 1 I I #
face $-1 $-1 $263 $28 $-1 $559 reversed single #
loop $-1 $-1 $404 $248 #
plane-surface $-1 56.06982634968107959 75.94435270610694033 15.09685751584730973 0 -1 0 0 0 -1 forward_v I I I I #
coedge $-1 $560 $402 $405 $561 forward $249 $-1 #
coedge $-1 $408 $251 $252 $396 reversed $164 $-1 #
coedge $-1 $402 $560 $251 $394 reversed $249 $-1 #
edge $-1 $409 -15.09685751584730973 $562 15.09685751584730973 $393 $563 forward 7 unknown #
coedge $-1 $253 $252 $560 $564 forward $99 $-1 #
edge $-1 $400 -56.06982634968107959 $562 56.06982634968107959 $392 $565 forward 7 unknown #
coedge $-1 $405 $404 $253 $398 reversed $389 $-1 #
edge $-1 $566 -56.06982634968107959 $399 56.06982634968107959 $397 $567 forward 7 unknown #
vertex $-1 $255 $568 #
vertex $-1 $411 $569 #
straight-curve $-1 112.1396526993621592 37.97217635305347017 0 0 -1 0 I I #
coedge $-1 $391 $393 $256 $403 reversed $249 $-1 #
edge $-1 $406 -37.97217635305347017 $409 37.97217635305347017 $402 $570 forward 7 unknown #
coedge $-1 $397 $257 $262 $412 forward $389 $-1 #
coedge $-1 $257 $397 $391 $561 reversed $389 $-1 #
vertex $-1 $258 $571 #
straight-curve $-1 56.06982634968107959 75.94435270610694033 30.19371503169461946 -1 0 0 I I #
coedge $-1 $259 $392 $261 $411 reversed $164 $-1 #
vertex $-1 $403 $572 #
straight-curve $-1 56.06982634968107959 0 30.19371503169461946 1 0 0 I I #
edge $-1 $264 -15.09685751584730973 $400 15.09685751584730973 $261 $573 forward 7 unknown #
edge $-1 $265 -15.09685751584730973 $399 15.09685751584730973 $262 $574 forward 7 unknown #
point $-1 112.1396526993621592 0 30.19371503169461946 #
point $-1 112.1396526993621592 75.94435270610694033 30.19371503169461946 #
face $-1 $-1 $282 $29 $-1 $575 reversed single #
loop $-1 $-1 $431 $267 #
plane-surface $-1 6.996520598810574754 75.94435270610694033 2.912250943690885663 0 -1 0 0 0 -1 forward_v I I I I #
coedge $-1 $576 $429 $432 $577 forward $268 $-1 #
coedge $-1 $435 $270 $271 $423 reversed $172 $-1 #
coedge $-1 $429 $576 $270 $421 reversed $268 $-1 #
edge $-1 $436 -2.912250943690885663 $578 2.912250943690885663 $420 $579 forward 7 unknown #
coedge $-1 $272 $271 $576 $580 forward $103 $-1 #
edge $-1 $427 -6.996520598810574754 $578 6.996520598810574754 $419 $581 forward 7 unknown #
coedge $-1 $432 $431 $272 $425 reversed $416 $-1 #
edge $-1 $582 -6.996520598810574754 $426 6.996520598810574754 $424 $583 forward 7 unknown #
vertex $-1 $274 $584 #
vertex $-1 $438 $585 #
straight-curve $-1 13.99304119762114951 37.97217635305347017 0 0 -1 0 I I #
coedge $-1 $418 $420 $275 $430 reversed $268 $-1 #
edge $-1 $433 -37.97217635305347017 $436 37.97217635305347017 $429 $586 forward 7 unknown #
coedge $-1 $424 $276 $281 $439 forward $416 $-1 #
coedge $-1 $276 $424 $418 $577 reversed $416 $-1 #
vertex $-1 $277 $587 #
straight-curve $-1 6.996520598810574754 75.94435270610694033 5.824501887381771326 -1 0 0 I I #
coedge $-1 $278 $419 $280 $438 reversed $172 $-1 #
vertex $-1 $430 $588 #
straight-curve $-1 6.996520598810574754 0 5.824501887381771326 1 0 0 I I #
edge $-1 $283 -2.912250943690885663 $427 2.912250943690885663 $280 $589 forward 7 unknown #
edge $-1 $284 -2.912250943690885663 $426 2.912250943690885663 $281 $590 forward 7 unknown #
point $-1 13.99304119762114951 0 5.824501887381771326 #
point $-1 13.99304119762114951 75.94435270610694033 5.824501887381771326 #
face $-1 $-1 $301 $30 $-1 $591 reversed single #
loop $-1 $-1 $458 $286 #
plane-surface $-1 24.13913099743261625 261.7738948738854106 31.43619063646372069 0 -0.819152039112919339 0.5735764437432435692 0 -0.5735764437432435692 -0.819152039112919339 forward_v I I I I #
coedge $-1 $592 $456 $459 $593 forward $287 $-1 #
coedge $-1 $462 $289 $290 $450 reversed $180 $-1 #
coedge $-1 $456 $592 $289 $448 reversed $287 $-1 #
edge $-1 $463 -112.1396526993621592 $594 112.1396526993621592 $447 $595 forward 7 unknown #
coedge $-1 $291 $290 $592 $596 forward $107 $-1 #
edge $-1 $454 -10.1460897998114703 $594 10.14608979981146852 $446 $597 forward 7 unknown #
coedge $-1 $459 $458 $291 $452 reversed $443 $-1 #
edge $-1 $598 -10.14608979981146852 $453 10.1460897998114703 $451 $599 forward 7 unknown #
vertex $-1 $293 $600 #
vertex $-1 $465 $601 #
straight-curve $-1 34.28522079724408655 13.73438132778866816 68.21809185817177479 0 -0.819152039112919339 0.5735764437432435692 I I #
coedge $-1 $445 $447 $294 $457 reversed $287 $-1 #
edge $-1 $460 -224.2793053987243184 $463 224.2793053987243184 $456 $602 forward 7 unknown #
coedge $-1 $451 $295 $300 $466 forward $443 $-1 #
coedge $-1 $295 $451 $445 $593 reversed $443 $-1 #
vertex $-1 $296 $603 #
straight-curve $-1 24.13913099743261625 326.0945580717880148 123.2956158105608182 -1 0 0 I I #
coedge $-1 $297 $446 $299 $465 reversed $180 $-1 #
vertex $-1 $457 $604 #
straight-curve $-1 24.13913099743261625 -41.34314262460037526 380.5782686021711356 1 0 0 I I #
edge $-1 $302 -112.1396526993621592 $454 112.1396526993621592 $299 $605 forward 7 unknown #
edge $-1 $303 -112.1396526993621734 $453 112.1396526993621592 $300 $606 forward 7 unknown #
point $-1 34.28522079724408655 -41.34314262460037526 380.5782686021711356 #
point $-1 34.28522079724408655 326.0945580717880148 123.2956158105608182 #
coedge $-1 $469 $469 $-1 $607 reversed $305 $-1 #
vertex $-1 $307 $608 #
ellipse-curve $-1 18.05147711754573692 71.01081474988818343 26.02527183247353548 0 0.5735764437432435692 0.819152039112919339 1 0 0 1 I I #
point $-1 19.05147711754573692 71.99158548161493343 27.42595757115750743 #
coedge $-1 $473 $473 $-1 $609 reversed $310 $-1 #
vertex $-1 $312 $610 #
ellipse-curve $-1 24.13913099743261625 71.01081474988818343 26.02527183247353548 0 0.5735764437432435692 0.819152039112919339 1 0 0 1 I I #
point $-1 25.13913099743261625 71.99158548161493343 27.42595757115750743 #
coedge $-1 $477 $477 $-1 $611 reversed $315 $-1 #
vertex $-1 $317 $612 #
ellipse-curve $-1 30.22678487731949559 71.01081474988818343 26.02527183247353548 0 0.5735764437432435692 0.819152039112919339 1 0 0 1 I I #
point $-1 31.22678487731949559 71.99158548161493343 27.42595757115750743 #
face $-1 $-1 $335 $34 $-1 $613 reversed single #
loop $-1 $-1 $497 $320 #
plane-surface $-1 38.05818437332182214 127.0208183645109017 239.5364035968177063 0 -0.8386705633113421543 -0.5446390421508873203 0 0.5446390421508873203 -0.8386705633113421543 forward_v I I I I #
coedge $-1 $614 $495 $498 $615 forward $321 $-1 #
coedge $-1 $501 $323 $324 $489 reversed $203 $-1 #
coedge $-1 $495 $614 $323 $487 reversed $321 $-1 #
edge $-1 $502 -112.139652699362145 $616 112.1396526993621876 $486 $617 forward 7 unknown #
coedge $-1 $325 $324 $614 $618 forward $126 $-1 #
edge $-1 $493 -10.66120450402644337 $616 10.66120450402643982 $485 $619 forward 7 unknown #
coedge $-1 $498 $497 $325 $491 reversed $482 $-1 #
edge $-1 $620 -10.66120450402643982 $492 10.66120450402644337 $490 $621 forward 7 unknown #
vertex $-1 $327 $622 #
vertex $-1 $504 $623 #
straight-curve $-1 48.71938887734826551 7.105427357601001859e-15 23.3369118312778312 0 -0.8386705633113421543 -0.5446390421508873203 I I #
coedge $-1 $484 $486 $328 $496 reversed $321 $-1 #
edge $-1 $499 -224.2793053987243184 $502 224.2793053987243184 $495 $624 forward 7 unknown #
coedge $-1 $490 $329 $334 $505 forward $482 $-1 #
coedge $-1 $329 $490 $484 $615 reversed $482 $-1 #
vertex $-1 $330 $625 #
straight-curve $-1 38.05818437332182214 65.94518533119712345 333.5846292957300534 -1 0 0 I I #
coedge $-1 $331 $485 $333 $504 reversed $203 $-1 #
vertex $-1 $496 $626 #
straight-curve $-1 38.05818437332182214 -310.2477174644521938 89.28209716247495464 1 0 0 I I #
edge $-1 $336 -112.139652699362145 $493 112.1396526993621876 $333 $627 forward 7 unknown #
edge $-1 $337 -112.1396526993621876 $492 112.1396526993621876 $334 $628 forward 7 unknown #
point $-1 48.71938887734826551 -310.2477174644521938 89.28209716247495464 #
point $-1 48.71938887734826551 65.94518533119712345 333.5846292957300534 #
coedge $-1 $508 $508 $-1 $629 reversed $339 $-1 #
vertex $-1 $341 $630 #
ellipse-curve $-1 31.66146167090596109 8.099075193582173426 22.42320261712790241 0 -0.5446390421508873203 0.8386705633113421543 1.5 0 0 1 I I #
point $-1 33.16146167090596464 5.279275407707007872 26.76531343148622355 #
coedge $-1 $512 $512 $-1 $631 reversed $344 $-1 #
vertex $-1 $346 $632 #
ellipse-curve $-1 38.05818437332182214 8.099075193582173426 22.42320261712790241 0 -0.5446390421508873203 0.8386705633113421543 1.5 0 0 1 I I #
point $-1 39.55818437332182214 5.279275407707007872 26.76531343148622355 #
coedge $-1 $516 $516 $-1 $633 reversed $349 $-1 #
vertex $-1 $351 $634 #
ellipse-curve $-1 44.45490707573768674 8.099075193582173426 22.42320261712790241 0 -0.5446390421508873203 0.8386705633113421543 1.5 0 0 1 I I #
point $-1 45.95490707573768674 5.279275407707007872 26.76531343148622355 #
face $-1 $-1 $369 $38 $-1 $635 reversed single #
loop $-1 $-1 $536 $354 #
plane-surface $-1 88.0745095236614759 127.0208183645109017 239.5364035968177063 0 -0.8386705633113421543 -0.5446390421508873203 0 0.5446390421508873203 -0.8386705633113421543 forward_v I I I I #
coedge $-1 $636 $534 $537 $637 forward $355 $-1 #
coedge $-1 $540 $357 $358 $528 reversed $226 $-1 #
coedge $-1 $534 $636 $357 $526 reversed $355 $-1 #
edge $-1 $541 -112.139652699362145 $638 112.1396526993621876 $525 $639 forward 7 unknown #
coedge $-1 $359 $358 $636 $640 forward $145 $-1 #
edge $-1 $532 -10.66120450402644337 $638 10.66120450402644337 $524 $641 forward 7 unknown #
coedge $-1 $537 $536 $359 $530 reversed $521 $-1 #
edge $-1 $642 -10.66120450402644337 $531 10.66120450402644337 $529 $643 forward 7 unknown #
vertex $-1 $361 $644 #
vertex $-1 $543 $645 #
straight-curve $-1 98.73571402768791927 7.105427357601001859e-15 23.3369118312778312 0 -0.8386705633113421543 -0.5446390421508873203 I I #
coedge $-1 $523 $525 $362 $535 reversed $355 $-1 #
edge $-1 $538 -224.2793053987243184 $541 224.2793053987243184 $534 $646 forward 7 unknown #
coedge $-1 $529 $363 $368 $544 forward $521 $-1 #
coedge $-1 $363 $529 $523 $637 reversed $521 $-1 #
vertex $-1 $364 $647 #
straight-curve $-1 88.0745095236614759 65.94518533119712345 333.5846292957300534 -1 0 0 I I #
coedge $-1 $365 $524 $367 $543 reversed $226 $-1 #
vertex $-1 $535 $648 #
straight-curve $-1 88.0745095236614759 -310.2477174644521938 89.28209716247495464 1 0 0 I I #
edge $-1 $370 -112.139652699362145 $532 112.1396526993621876 $367 $649 forward 7 unknown #
edge $-1 $371 -112.1396526993621876 $531 112.1396526993621876 $368 $650 forward 7 unknown #
point $-1 98.73571402768791927 -310.2477174644521938 89.28209716247495464 #
point $-1 98.73571402768791927 65.94518533119712345 333.5846292957300534 #
coedge $-1 $547 $547 $-1 $651 reversed $373 $-1 #
vertex $-1 $375 $652 #
ellipse-curve $-1 81.6777868212456184 8.099075193582173426 22.42320261712790241 0 -0.5446390421508873203 0.8386705633113421543 1.5 0 0 1 I I #
point $-1 83.1777868212456184 5.279275407707007872 26.76531343148622355 #
coedge $-1 $551 $551 $-1 $653 reversed $378 $-1 #
vertex $-1 $380 $654 #
ellipse-curve $-1 88.0745095236614759 8.099075193582173426 22.42320261712790241 0 -0.5446390421508873203 0.8386705633113421543 1.5 0 0 1 I I #
point $-1 89.5745095236614759 5.279275407707007872 26.76531343148622355 #
coedge $-1 $555 $555 $-1 $655 reversed $383 $-1 #
vertex $-1 $385 $656 #
ellipse-curve $-1 94.4712322260773476 8.099075193582173426 22.42320261712790241 0 -0.5446390421508873203 0.8386705633113421543 1.5 0 0 1 I I #
point $-1 95.9712322260773476 5.279275407707007872 26.76531343148622355 #
plane-surface $-1 112.1396526993621592 37.97217635305347017 15.09685751584730973 -1 0 0 0 0 1 forward_v I I I I #
coedge $-1 $393 $391 $395 $564 reversed $249 $-1 #
edge $-1 $406 -15.09685751584730973 $566 15.09685751584730973 $405 $657 forward 7 unknown #
vertex $-1 $564 $658 #
straight-curve $-1 0 0 15.09685751584730973 0 0 -1 I I #
edge $-1 $562 -37.97217635305347017 $566 37.97217635305347017 $560 $659 forward 7 unknown #
straight-curve $-1 56.06982634968107959 0 0 -1 0 0 I I #
vertex $-1 $398 $660 #
straight-curve $-1 56.06982634968107959 75.94435270610694033 0 1 0 0 I I #
point $-1 112.1396526993621592 75.94435270610694033 0 #
point $-1 112.1396526993621592 0 0 #
straight-curve $-1 0 37.97217635305347017 30.19371503169461946 0 -1 0 I I #
point $-1 0 75.94435270610694033 30.19371503169461946 #
point $-1 0 0 30.19371503169461946 #
straight-curve $-1 112.1396526993621592 0 15.09685751584730973 0 0 -1 I I #
straight-curve $-1 112.1396526993621592 75.94435270610694033 15.09685751584730973 0 0 -1 I I #
plane-surface $-1 13.99304119762114951 37.97217635305347017 2.912250943690885663 -1 0 0 0 0 1 forward_v I I I I #
coedge $-1 $420 $418 $422 $580 reversed $268 $-1 #
edge $-1 $433 -2.912250943690885663 $582 2.912250943690885663 $432 $661 forward 7 unknown #
vertex $-1 $580 $662 #
straight-curve $-1 0 0 2.912250943690885663 0 0 -1 I I #
edge $-1 $578 -37.97217635305347017 $582 37.97217635305347017 $576 $663 forward 7 unknown #
straight-curve $-1 6.996520598810574754 0 0 -1 0 0 I I #
vertex $-1 $425 $664 #
straight-curve $-1 6.996520598810574754 75.94435270610694033 0 1 0 0 I I #
point $-1 13.99304119762114951 75.94435270610694033 0 #
point $-1 13.99304119762114951 0 0 #
straight-curve $-1 0 37.97217635305347017 5.824501887381771326 0 -1 0 I I #
point $-1 0 75.94435270610694033 5.824501887381771326 #
point $-1 0 0 5.824501887381771326 #
straight-curve $-1 13.99304119762114951 0 2.912250943690885663 0 0 -1 I I #
straight-curve $-1 13.99304119762114951 75.94435270610694033 2.912250943690885663 0 0 -1 I I #
plane-surface $-1 34.28522079724408655 78.05504452569124396 160.0775170322688723 -1 0 0 0 0.5735764437432435692 0.819152039112919339 forward_v I I I I #
coedge $-1 $447 $445 $449 $596 reversed $287 $-1 #
edge $-1 $460 -112.1396526993621734 $598 112.1396526993621592 $459 $665 forward 7 unknown #
vertex $-1 $596 $666 #
straight-curve $-1 13.99304119762114773 -105.6638058225029511 288.7188434280740239 0 -0.5735764437432435692 -0.819152039112919339 I I #
edge $-1 $594 -224.2793053987243184 $598 224.2793053987243184 $592 $667 forward 7 unknown #
straight-curve $-1 24.13913099743261625 -169.9844690204055269 196.8594182539769122 -1 0 0 I I #
vertex $-1 $452 $668 #
straight-curve $-1 24.13913099743261625 197.4532316759828632 -60.42323453763339103 1 0 0 I I #
point $-1 34.28522079724408655 197.4532316759828632 -60.42323453763339103 #
point $-1 34.28522079724408655 -169.9844690204055269 196.8594182539769122 #
straight-curve $-1 13.99304119762114773 142.3757077235938198 251.936942206365984 0 -0.819152039112919339 0.5735764437432435692 I I #
point $-1 13.99304119762114773 326.0945580717880148 123.2956158105608182 #
point $-1 13.99304119762114773 -41.34314262460037526 380.5782686021711356 #
straight-curve $-1 34.28522079724408655 -105.6638058225029511 288.7188434280740239 0 -0.5735764437432435692 -0.819152039112919339 I I #
straight-curve $-1 34.28522079724408655 261.7738948738854106 31.43619063646372069 0 -0.5735764437432435692 -0.819152039112919339 I I #
edge $-1 $669 1 $669 0 $469 $-1 forward 7 unknown #
point $-1 19.05147711754573692 71.01081474988818343 26.02527183247353548 #
edge $-1 $670 1 $670 0 $473 $-1 forward 7 unknown #
point $-1 25.13913099743261625 71.01081474988818343 26.02527183247353548 #
edge $-1 $671 1 $671 0 $477 $-1 forward 7 unknown #
point $-1 31.22678487731949559 71.01081474988818343 26.02527183247353548 #
plane-surface $-1 48.71938887734826551 -61.07563303331376403 117.3851375301901641 -1 0 0 0 -0.5446390421508873203 0.8386705633113421543 forward_v I I I I #
coedge $-1 $486 $484 $488 $618 reversed $321 $-1 #
edge $-1 $499 -112.1396526993621876 $620 112.1396526993621876 $498 $672 forward 7 unknown #
vertex $-1 $618 $673 #
straight-curve $-1 27.39697986929538231 -249.172084431138444 -4.766128536437378216 0 0.5446390421508873203 -0.8386705633113421543 I I #
edge $-1 $616 -224.2793053987242899 $620 224.2793053987243184 $614 $674 forward 7 unknown #
straight-curve $-1 38.05818437332182214 -188.0964513978246373 -98.81435423534971108 -1 0 0 I I #
vertex $-1 $491 $675 #
straight-curve $-1 38.05818437332182214 188.0964513978246941 145.4881778979053593 1 0 0 I I #
point $-1 48.71938887734826551 188.0964513978246941 145.4881778979053593 #
point $-1 48.71938887734826551 -188.0964513978246373 -98.81435423534971108 #
straight-curve $-1 27.39697986929538231 -122.1512660666275281 211.4333632291024969 0 -0.8386705633113421543 -0.5446390421508873203 I I #
point $-1 27.39697986929538231 65.94518533119712345 333.5846292957300534 #
point $-1 27.39697986929538231 -310.2477174644521938 89.28209716247495464 #
straight-curve $-1 48.71938887734826551 -249.172084431138444 -4.766128536437378216 0 0.5446390421508873203 -0.8386705633113421543 I I #
straight-curve $-1 48.71938887734826551 127.0208183645109017 239.5364035968177063 0 0.5446390421508873203 -0.8386705633113421543 I I #
edge $-1 $676 1 $676 0 $508 $-1 forward 7 unknown #
point $-1 33.16146167090596464 8.099075193582173426 22.42320261712790241 #
edge $-1 $677 1 $677 0 $512 $-1 forward 7 unknown #
point $-1 39.55818437332182214 8.099075193582173426 22.42320261712790241 #
edge $-1 $678 1 $678 0 $516 $-1 forward 7 unknown #
point $-1 45.95490707573768674 8.099075193582173426 22.42320261712790241 #
plane-surface $-1 98.73571402768791927 -61.07563303331376403 117.3851375301901641 -1 0 0 0 -0.5446390421508873203 0.8386705633113421543 forward_v I I I I #
coedge $-1 $525 $523 $527 $640 reversed $355 $-1 #
edge $-1 $538 -112.1396526993621876 $642 112.1396526993621876 $537 $679 forward 7 unknown #
vertex $-1 $640 $680 #
straight-curve $-1 77.41330501963503252 -249.172084431138444 -4.766128536437378216 0 0.5446390421508873203 -0.8386705633113421543 I I #
edge $-1 $638 -224.2793053987242899 $642 224.2793053987243184 $636 $681 forward 7 unknown #
straight-curve $-1 88.0745095236614759 -188.0964513978246373 -98.81435423534971108 -1 0 0 I I #
vertex $-1 $530 $682 #
straight-curve $-1 88.0745095236614759 188.0964513978246941 145.4881778979053593 1 0 0 I I #
point $-1 98.73571402768791927 188.0964513978246941 145.4881778979053593 #
point $-1 98.73571402768791927 -188.0964513978246373 -98.81435423534971108 #
straight-curve $-1 77.41330501963503252 -122.1512660666275281 211.4333632291024969 0 -0.8386705633113421543 -0.5446390421508873203 I I #
point $-1 77.41330501963503252 65.94518533119712345 333.5846292957300534 #
point $-1 77.41330501963503252 -310.2477174644521938 89.28209716247495464 #
straight-curve $-1 98.73571402768791927 -249.172084431138444 -4.766128536437378216 0 0.5446390421508873203 -0.8386705633113421543 I I #
straight-curve $-1 98.73571402768791927 127.0208183645109017 239.5364035968177063 0 0.5446390421508873203 -0.8386705633113421543 I I #
edge $-1 $683 1 $683 0 $547 $-1 forward 7 unknown #
point $-1 83.1777868212456184 8.099075193582173426 22.42320261712790241 #
edge $-1 $684 1 $684 0 $551 $-1 forward 7 unknown #
point $-1 89.5745095236614759 8.099075193582173426 22.42320261712790241 #
edge $-1 $685 1 $685 0 $555 $-1 forward 7 unknown #
point $-1 95.9712322260773476 8.099075193582173426 22.42320261712790241 #
straight-curve $-1 0 75.94435270610694033 15.09685751584730973 0 0 -1 I I #
point $-1 0 0 0 #
straight-curve $-1 0 37.97217635305347017 0 0 1 0 I I #
point $-1 0 75.94435270610694033 0 #
straight-curve $-1 0 75.94435270610694033 2.912250943690885663 0 0 -1 I I #
point $-1 0 0 0 #
straight-curve $-1 0 37.97217635305347017 0 0 1 0 I I #
point $-1 0 75.94435270610694033 0 #
straight-curve $-1 13.99304119762114773 261.7738948738854106 31.43619063646372069 0 -0.5735764437432435692 -0.819152039112919339 I I #
point $-1 13.99304119762114773 -169.9844690204055269 196.8594182539769122 #
straight-curve $-1 13.99304119762114773 13.73438132778866816 68.21809185817177479 0 0.819152039112919339 -0.5735764437432435692 I I #
point $-1 13.99304119762114773 197.4532316759828632 -60.42323453763339103 #
vertex $-1 $607 $686 #
vertex $-1 $609 $687 #
vertex $-1 $611 $688 #
straight-curve $-1 27.39697986929538231 127.0208183645109017 239.5364035968177063 0 0.5446390421508873203 -0.8386705633113421543 I I #
point $-1 27.39697986929538231 -188.0964513978246373 -98.81435423534971108 #
straight-curve $-1 27.39697986929538231 7.105427357601001859e-15 23.3369118312778312 0 0.8386705633113421543 0.5446390421508873203 I I #
point $-1 27.39697986929538231 188.0964513978246941 145.4881778979053593 #
vertex $-1 $629 $689 #
vertex $-1 $631 $690 #
vertex $-1 $633 $691 #
straight-curve $-1 77.41330501963503252 127.0208183645109017 239.5364035968177063 0 0.5446390421508873203 -0.8386705633113421543 I I #
point $-1 77.41330501963503252 -188.0964513978246373 -98.81435423534971108 #
straight-curve $-1 77.41330501963503252 7.105427357601001859e-15 23.3369118312778312 0 0.8386705633113421543 0.5446390421508873203 I I #
point $-1 77.41330501963503252 188.0964513978246941 145.4881778979053593 #
vertex $-1 $651 $692 #
vertex $-1 $653 $693 #
vertex $-1 $655 $694 #
point $-1 18.05147711754573692 70.4372383061449483 25.20611979336061381 #
point $-1 24.13913099743261625 70.4372383061449483 25.20611979336061381 #
point $-1 30.22678487731949559 70.4372383061449483 25.20611979336061381 #
point $-1 31.66146167090596109 8.916033756808502631 21.16519677216088624 #
point $-1 38.05818437332182214 8.916033756808502631 21.16519677216088624 #
point $-1 44.45490707573768674 8.916033756808502631 21.16519677216088624 #
point $-1 81.6777868212456184 8.916033756808502631 21.16519677216088624 #
point $-1 88.0745095236614759 8.916033756808502631 21.16519677216088624 #
point $-1 94.4712322260773476 8.916033756808502631 21.16519677216088624 #
End-of-ACIS-data 