600 0 8 0           
95 GICL ACIS Healer - Source: /gicl/data5/repository/Drexel/SM99-DATA/part85.smdg.deltas.sat - 6 0 18 ACIS 6.0.3 Solaris 24 Sat Apr 13 20:46:10 2002 
1 9.999999999999999547e-07 1.000000000000000036e-10 
body $-1 $8 $-1 $-1 #
body $-1 $9 $-1 $-1 #
body $-1 $10 $-1 $-1 #
body $-1 $11 $-1 $-1 #
body $-1 $12 $-1 $-1 #
body $-1 $13 $-1 $-1 #
body $-1 $14 $-1 $-1 #
body $-1 $15 $-1 $-1 #
lump $-1 $-1 $16 $0 #
lump $-1 $-1 $17 $1 #
lump $-1 $-1 $18 $2 #
lump $-1 $-1 $19 $3 #
lump $-1 $-1 $20 $4 #
lump $-1 $-1 $21 $5 #
lump $-1 $-1 $22 $6 #
lump $-1 $-1 $23 $7 #
shell $-1 $-1 $-1 $24 $-1 $8 #
shell $-1 $-1 $-1 $25 $-1 $9 #
shell $-1 $-1 $-1 $26 $-1 $10 #
shell $-1 $-1 $-1 $27 $-1 $11 #
shell $-1 $-1 $-1 $28 $-1 $12 #
shell $-1 $-1 $-1 $29 $-1 $13 #
shell $-1 $-1 $-1 $30 $-1 $14 #
shell $-1 $-1 $-1 $31 $-1 $15 #
face $-1 $32 $33 $16 $-1 $34 forward single #
face $-1 $35 $36 $17 $-1 $37 reversed single #
face $-1 $38 $39 $18 $-1 $40 reversed single #
face $-1 $41 $42 $19 $-1 $43 forward single #
face $-1 $44 $45 $20 $-1 $46 forward single #
face $-1 $47 $48 $21 $-1 $49 reversed single #
face $-1 $50 $51 $22 $-1 $52 forward single #
face $-1 $53 $54 $23 $-1 $55 forward single #
face $-1 $56 $57 $16 $-1 $58 reversed single #
loop $-1 $-1 $59 $24 #
plane-surface $-1 66.2715536973174153 30.21527379561978677 23.47085067048892171 0 0 1 1 0 0 forward_v I I I I #
face $-1 $60 $61 $17 $-1 $62 reversed single #
loop $-1 $-1 $63 $25 #
plane-surface $-1 7.689004693488861619 30.21527379561978677 19.07415800712248455 0 0 1 1 0 0 forward_v I I I I #
face $-1 $64 $65 $18 $-1 $66 reversed single #
loop $-1 $-1 $67 $26 #
plane-surface $-1 152.1363703000874352 11.80547022010354752 200.5692372309823668 0 -1 0 -0.7771459697322561366 0 -0.629320380830711068 forward_v I I I I #
face $-1 $68 $69 $19 $-1 $70 forward single #
loop $-1 $71 $72 $27 #
cone-surface $-1 128.3813320466244363 6.786343193840586707 18.49667348551654911 -0.7771459697322561366 0 -0.629320380830711068 0.314660190415355534 0 -0.3885729848661280683 1 I I 0 1 0.5 forward I I I I #
face $-1 $73 $74 $20 $-1 $75 forward single #
loop $-1 $76 $77 $28 #
cone-surface $-1 128.3813320466244363 9.797819409598361062 18.49667348551654911 -0.7771459697322561366 0 -0.629320380830711068 0.314660190415355534 0 -0.3885729848661280683 1 I I 0 1 0.5 forward I I I I #
face $-1 $78 $79 $21 $-1 $80 reversed single #
loop $-1 $-1 $81 $29 #
plane-surface $-1 152.1363703000874352 42.02074401572333784 200.5692372309823668 0 -1 0 -0.7771459697322561366 0 -0.629320380830711068 forward_v I I I I #
face $-1 $82 $83 $22 $-1 $84 forward single #
loop $-1 $85 $86 $30 #
cone-surface $-1 128.3813320466244363 37.00161698946037347 18.49667348551654911 -0.7771459697322561366 0 -0.629320380830711068 0.314660190415355534 0 -0.3885729848661280683 1 I I 0 1 0.5 forward I I I I #
face $-1 $87 $88 $23 $-1 $89 forward single #
loop $-1 $90 $91 $31 #
cone-surface $-1 128.3813320466244363 40.01309320521815494 18.49667348551654911 -0.7771459697322561366 0 -0.629320380830711068 0.314660190415355534 0 -0.3885729848661280683 1 I I 0 1 0.5 forward I I I I #
face $-1 $92 $93 $16 $-1 $94 reversed single #
loop $-1 $-1 $95 $32 #
plane-surface $-1 66.2715536973174153 30.21527379561978677 0 0 0 1 1 0 0 forward_v I I I I #
coedge $-1 $96 $97 $98 $99 forward $33 $-1 #
face $-1 $100 $101 $17 $-1 $102 reversed single #
loop $-1 $-1 $103 $35 #
plane-surface $-1 15.37800938697772324 30.21527379561978677 21.27250433880570313 -1 0 0 0 0 1 forward_v I I I I #
coedge $-1 $104 $105 $106 $107 forward $36 $-1 #
face $-1 $108 $109 $18 $-1 $110 reversed single #
loop $-1 $-1 $111 $38 #
plane-surface $-1 49.13102857255738343 8.292081301719473885 117.1571584089049338 0.7771459697322561366 0 0.629320380830711068 0.629320380830711068 0 -0.7771459697322561366 forward_v I I I I #
coedge $-1 $112 $113 $114 $115 reversed $39 $-1 #
face $-1 $-1 $116 $19 $-1 $117 forward single #
loop $-1 $118 $119 $41 #
cone-surface $-1 127.7984725693252273 6.786343193840586707 18.02468319989351642 -0.7771459697322561366 0 -0.629320380830711068 0.157330095207677767 0 -0.1942864924330640342 1 I I -0.7071067811865474617 0.7071067811865474617 0.25 forward I I I I #
loop $-1 $-1 $120 $27 #
coedge $-1 $72 $72 $121 $122 reversed $42 $-1 #
face $-1 $-1 $123 $20 $-1 $124 forward single #
loop $-1 $125 $126 $44 #
cone-surface $-1 127.7984725693252273 9.797819409598361062 18.02468319989351642 -0.7771459697322561366 0 -0.629320380830711068 0.157330095207677767 0 -0.1942864924330640342 1 I I -0.7071067811865474617 0.7071067811865474617 0.25 forward I I I I #
loop $-1 $-1 $127 $28 #
coedge $-1 $77 $77 $128 $129 reversed $45 $-1 #
face $-1 $130 $131 $21 $-1 $132 reversed single #
loop $-1 $-1 $133 $47 #
plane-surface $-1 49.13102857255738343 38.5073550973392642 117.1571584089049338 0.7771459697322561366 0 0.629320380830711068 0.629320380830711068 0 -0.7771459697322561366 forward_v I I I I #
coedge $-1 $134 $135 $136 $137 reversed $48 $-1 #
face $-1 $-1 $138 $22 $-1 $139 forward single #
loop $-1 $140 $141 $50 #
cone-surface $-1 127.7984725693252273 37.00161698946037347 18.02468319989351642 -0.7771459697322561366 0 -0.629320380830711068 0.157330095207677767 0 -0.1942864924330640342 1 I I -0.7071067811865474617 0.7071067811865474617 0.25 forward I I I I #
loop $-1 $-1 $142 $30 #
coedge $-1 $86 $86 $143 $144 reversed $51 $-1 #
face $-1 $-1 $145 $23 $-1 $146 forward single #
loop $-1 $147 $148 $53 #
cone-surface $-1 127.7984725693252273 40.01309320521815494 18.02468319989351642 -0.7771459697322561366 0 -0.629320380830711068 0.157330095207677767 0 -0.1942864924330640342 1 I I -0.7071067811865474617 0.7071067811865474617 0.25 forward I I I I #
loop $-1 $-1 $149 $31 #
coedge $-1 $91 $91 $150 $151 reversed $54 $-1 #
face $-1 $152 $153 $16 $-1 $154 reversed single #
loop $-1 $-1 $155 $56 #
plane-surface $-1 66.2715536973174153 0 11.73542533524446085 0 1 0 0 0 1 forward_v I I I I #
coedge $-1 $156 $157 $158 $159 forward $57 $-1 #
coedge $-1 $160 $59 $161 $162 forward $33 $-1 #
coedge $-1 $59 $160 $163 $164 forward $33 $-1 #
coedge $-1 $165 $166 $59 $99 reversed $167 $-1 #
edge $-1 $168 -30.21527379561978677 $169 30.21527379561978677 $98 $170 forward 7 unknown #
face $-1 $171 $172 $17 $-1 $173 reversed single #
loop $-1 $-1 $174 $60 #
plane-surface $-1 66.2715536973174153 60.43054759123957353 11.73542533524446085 0 -1 0 0 0 -1 forward_v I I I I #
coedge $-1 $106 $175 $176 $177 reversed $61 $-1 #
coedge $-1 $178 $63 $179 $180 reversed $36 $-1 #
coedge $-1 $63 $178 $181 $182 reversed $36 $-1 #
coedge $-1 $183 $103 $63 $107 reversed $61 $-1 #
edge $-1 $184 -30.21527379561978677 $185 30.21527379561978677 $106 $186 forward 7 unknown #
face $-1 $187 $188 $18 $-1 $189 forward single #
loop $-1 $-1 $190 $64 #
plane-surface $-1 152.1363703000874352 4.778692383335400251 200.5692372309823668 0 1 0 0.7771459697322561366 0 0.629320380830711068 forward_v I I I I #
coedge $-1 $191 $192 $193 $194 reversed $65 $-1 #
coedge $-1 $113 $67 $195 $196 reversed $39 $-1 #
coedge $-1 $67 $112 $191 $197 reversed $39 $-1 #
coedge $-1 $193 $198 $67 $115 forward $188 $-1 #
edge $-1 $199 -23.33914539593240534 $200 -15.79274066964384815 $114 $201 forward 7 unknown #
loop $-1 $-1 $121 $68 #
plane-surface $-1 49.13102857255738343 8.292081301719473885 117.1571584089049338 0.7771459697322561366 0 0.629320380830711068 0.629320380830711068 0 -0.7771459697322561366 forward_v I I I I #
loop $-1 $-1 $202 $41 #
coedge $-1 $119 $119 $120 $203 reversed $69 $-1 #
coedge $-1 $120 $120 $119 $203 forward $71 $-1 #
coedge $-1 $121 $121 $72 $122 forward $116 $-1 #
edge $-1 $204 0 $204 6.283185307179586232 $121 $205 forward 7 unknown #
loop $-1 $-1 $128 $73 #
plane-surface $-1 49.13102857255738343 8.292081301719473885 117.1571584089049338 0.7771459697322561366 0 0.629320380830711068 0.629320380830711068 0 -0.7771459697322561366 forward_v I I I I #
loop $-1 $-1 $206 $44 #
coedge $-1 $126 $126 $127 $207 reversed $74 $-1 #
coedge $-1 $127 $127 $126 $207 forward $76 $-1 #
coedge $-1 $128 $128 $77 $129 forward $123 $-1 #
edge $-1 $208 0 $208 6.283185307179586232 $128 $209 forward 7 unknown #
face $-1 $210 $211 $21 $-1 $212 reversed single #
loop $-1 $-1 $213 $78 #
plane-surface $-1 152.1363703000874352 34.99396617895519057 200.5692372309823668 0 1 0 0.7771459697322561366 0 0.629320380830711068 forward_v I I I I #
coedge $-1 $214 $215 $216 $217 reversed $79 $-1 #
coedge $-1 $135 $81 $218 $219 reversed $48 $-1 #
coedge $-1 $81 $134 $214 $220 reversed $48 $-1 #
coedge $-1 $216 $221 $81 $137 forward $222 $-1 #
edge $-1 $223 -23.33914539593240534 $224 -15.79274066964384815 $136 $225 forward 7 unknown #
loop $-1 $-1 $143 $82 #
plane-surface $-1 49.13102857255738343 38.5073550973392642 117.1571584089049338 0.7771459697322561366 0 0.629320380830711068 0.629320380830711068 0 -0.7771459697322561366 forward_v I I I I #
loop $-1 $-1 $226 $50 #
coedge $-1 $141 $141 $142 $227 reversed $83 $-1 #
coedge $-1 $142 $142 $141 $227 forward $85 $-1 #
coedge $-1 $143 $143 $86 $144 forward $138 $-1 #
edge $-1 $228 0 $228 6.283185307179586232 $143 $229 forward 7 unknown #
loop $-1 $-1 $150 $87 #
plane-surface $-1 49.13102857255738343 38.5073550973392642 117.1571584089049338 0.7771459697322561366 0 0.629320380830711068 0.629320380830711068 0 -0.7771459697322561366 forward_v I I I I #
loop $-1 $-1 $230 $53 #
coedge $-1 $148 $148 $149 $231 reversed $88 $-1 #
coedge $-1 $149 $149 $148 $231 forward $90 $-1 #
coedge $-1 $150 $150 $91 $151 forward $145 $-1 #
edge $-1 $232 0 $232 6.283185307179586232 $150 $233 forward 7 unknown #
face $-1 $234 $235 $16 $-1 $236 reversed single #
loop $-1 $-1 $237 $92 #
plane-surface $-1 0 30.21527379561978677 11.73542533524446085 1 0 0 0 0 -1 forward_v I I I I #
coedge $-1 $238 $163 $239 $240 forward $93 $-1 #
coedge $-1 $241 $95 $238 $242 forward $57 $-1 #
coedge $-1 $95 $241 $243 $244 forward $57 $-1 #
coedge $-1 $166 $165 $95 $159 reversed $167 $-1 #
edge $-1 $245 -30.21527379561978677 $246 30.21527379561978677 $158 $247 forward 7 unknown #
coedge $-1 $97 $96 $248 $249 forward $33 $-1 #
coedge $-1 $250 $251 $96 $162 reversed $235 $-1 #
edge $-1 $169 -66.2715536973174153 $252 66.2715536973174153 $161 $253 forward 7 unknown #
coedge $-1 $155 $254 $97 $164 reversed $93 $-1 #
edge $-1 $255 -66.2715536973174153 $168 66.2715536973174153 $163 $256 forward 7 unknown #
coedge $-1 $158 $98 $254 $257 forward $167 $-1 #
coedge $-1 $98 $158 $250 $258 reversed $167 $-1 #
loop $-1 $-1 $165 $234 #
vertex $-1 $99 $259 #
vertex $-1 $99 $260 #
straight-curve $-1 132.5431073946348306 30.21527379561978677 23.47085067048892171 0 1 0 I I #
face $-1 $261 $262 $17 $-1 $263 forward single #
loop $-1 $-1 $264 $100 #
plane-surface $-1 0 30.21527379561978677 11.73542533524446085 1 0 0 0 0 -1 forward_v I I I I #
coedge $-1 $181 $265 $183 $266 forward $101 $-1 #
coedge $-1 $103 $183 $267 $268 reversed $61 $-1 #
coedge $-1 $269 $179 $103 $177 forward $270 $-1 #
edge $-1 $185 2.570193170097404334 $271 6.966885833463841493 $176 $272 forward 7 unknown #
coedge $-1 $105 $104 $264 $273 reversed $36 $-1 #
coedge $-1 $176 $274 $104 $180 forward $270 $-1 #
edge $-1 $275 -36.98027919540314201 $185 -21.60226980842541877 $179 $276 forward 7 unknown #
coedge $-1 $277 $174 $105 $182 forward $101 $-1 #
edge $-1 $184 21.60226980842541877 $278 36.98027919540314201 $181 $279 forward 7 unknown #
coedge $-1 $175 $106 $174 $266 reversed $61 $-1 #
vertex $-1 $182 $280 #
vertex $-1 $180 $281 #
straight-curve $-1 15.37800938697772324 30.21527379561978677 19.07415800712248455 0 -1 0 I I #
face $-1 $-1 $282 $18 $-1 $283 reversed single #
loop $-1 $-1 $114 $108 #
plane-surface $-1 66.2715536973174153 30.21527379561978677 23.47085067048892171 0 0 1 1 0 0 forward_v I I I I #
coedge $-1 $284 $285 $286 $287 reversed $109 $-1 #
coedge $-1 $288 $111 $113 $197 forward $65 $-1 #
coedge $-1 $111 $288 $284 $289 forward $65 $-1 #
coedge $-1 $286 $114 $111 $194 forward $188 $-1 #
edge $-1 $200 7.448207328566081031 $290 14.4749851653342283 $193 $291 forward 7 unknown #
coedge $-1 $292 $293 $112 $196 forward $282 $-1 #
edge $-1 $294 -92.00051460173855844 $199 -82.68148061262448323 $195 $295 forward 7 unknown #
edge $-1 $200 120.5517513919463681 $294 132.543107394634859 $113 $296 forward 7 unknown #
coedge $-1 $114 $286 $292 $297 forward $188 $-1 #
vertex $-1 $196 $298 #
vertex $-1 $115 $299 #
straight-curve $-1 109.2039619987024253 11.80547022010354752 23.47085067048891815 -1 0 0 I I #
coedge $-1 $202 $202 $-1 $300 reversed $118 $-1 #
edge $-1 $301 0 $301 6.283185307179586232 $119 $302 forward 7 unknown #
vertex $-1 $122 $303 #
ellipse-curve $-1 128.7699050314905378 6.786343193840586707 18.81133367593189831 0.7771459697322561366 0 0.629320380830711068 0.314660190415355534 0 -0.3885729848661280683 1 I I #
coedge $-1 $206 $206 $-1 $304 reversed $125 $-1 #
edge $-1 $305 0 $305 6.283185307179586232 $126 $306 forward 7 unknown #
vertex $-1 $129 $307 #
ellipse-curve $-1 128.7699050314905378 9.797819409598361062 18.81133367593189831 0.7771459697322561366 0 0.629320380830711068 0.314660190415355534 0 -0.3885729848661280683 1 I I #
face $-1 $-1 $222 $21 $-1 $308 forward single #
loop $-1 $-1 $309 $130 #
plane-surface $-1 132.5431073946348306 30.21527379561978677 11.73542533524446085 -1 0 0 0 0 1 forward_v I I I I #
coedge $-1 $310 $311 $312 $313 reversed $131 $-1 #
coedge $-1 $314 $133 $135 $220 forward $79 $-1 #
coedge $-1 $133 $314 $310 $315 forward $79 $-1 #
coedge $-1 $312 $136 $133 $217 forward $222 $-1 #
edge $-1 $224 -7.659429569243812352 $316 -0.6326517324756650851 $216 $317 forward 7 unknown #
coedge $-1 $318 $319 $134 $219 forward $211 $-1 #
edge $-1 $320 -92.00051460173855844 $223 -82.68148061262448323 $218 $321 forward 7 unknown #
edge $-1 $224 120.5517513919463681 $320 132.543107394634859 $135 $322 forward 7 unknown #
coedge $-1 $136 $312 $318 $323 forward $222 $-1 #
loop $-1 $-1 $312 $210 #
vertex $-1 $219 $324 #
vertex $-1 $137 $325 #
straight-curve $-1 109.2039619987024253 42.02074401572333784 23.47085067048891815 -1 0 0 I I #
coedge $-1 $226 $226 $-1 $326 reversed $140 $-1 #
edge $-1 $327 0 $327 6.283185307179586232 $141 $328 forward 7 unknown #
vertex $-1 $144 $329 #
ellipse-curve $-1 128.7699050314905378 37.00161698946037347 18.81133367593189831 0.7771459697322561366 0 0.629320380830711068 0.314660190415355534 0 -0.3885729848661280683 1 I I #
coedge $-1 $230 $230 $-1 $330 reversed $147 $-1 #
edge $-1 $331 0 $331 6.283185307179586232 $148 $332 forward 7 unknown #
vertex $-1 $151 $333 #
ellipse-curve $-1 128.7699050314905378 40.01309320521815494 18.81133367593189831 0.7771459697322561366 0 0.629320380830711068 0.314660190415355534 0 -0.3885729848661280683 1 I I #
face $-1 $-1 $167 $16 $-1 $334 reversed single #
loop $-1 $-1 $250 $152 #
plane-surface $-1 66.2715536973174153 60.43054759123957353 11.73542533524446085 0 -1 0 0 0 -1 forward_v I I I I #
coedge $-1 $335 $248 $251 $336 forward $153 $-1 #
coedge $-1 $254 $155 $156 $242 reversed $93 $-1 #
coedge $-1 $248 $335 $155 $240 reversed $153 $-1 #
edge $-1 $255 -11.73542533524446085 $337 11.73542533524446085 $239 $338 forward 7 unknown #
coedge $-1 $157 $156 $335 $339 forward $57 $-1 #
edge $-1 $246 -66.2715536973174153 $337 66.2715536973174153 $238 $340 forward 7 unknown #
coedge $-1 $251 $250 $157 $244 reversed $235 $-1 #
edge $-1 $341 -66.2715536973174153 $245 66.2715536973174153 $243 $342 forward 7 unknown #
vertex $-1 $159 $343 #
vertex $-1 $257 $344 #
straight-curve $-1 132.5431073946348306 30.21527379561978677 0 0 -1 0 I I #
coedge $-1 $237 $239 $160 $249 reversed $153 $-1 #
edge $-1 $252 -30.21527379561978677 $255 30.21527379561978677 $248 $345 forward 7 unknown #
coedge $-1 $243 $161 $166 $258 forward $235 $-1 #
coedge $-1 $161 $243 $237 $336 reversed $235 $-1 #
vertex $-1 $162 $346 #
straight-curve $-1 66.2715536973174153 60.43054759123957353 23.47085067048892171 -1 0 0 I I #
coedge $-1 $163 $238 $165 $257 reversed $93 $-1 #
vertex $-1 $249 $347 #
straight-curve $-1 66.2715536973174153 0 23.47085067048892171 1 0 0 I I #
edge $-1 $168 -11.73542533524446085 $246 11.73542533524446085 $165 $348 forward 7 unknown #
edge $-1 $169 -11.73542533524446085 $245 11.73542533524446085 $166 $349 forward 7 unknown #
point $-1 132.5431073946348306 0 23.47085067048892171 #
point $-1 132.5431073946348306 60.43054759123957353 23.47085067048892171 #
face $-1 $-1 $270 $17 $-1 $350 reversed single #
loop $-1 $-1 $267 $171 #
plane-surface $-1 66.2715536973174153 30.21527379561978677 23.47085067048892171 0 0 1 1 0 0 forward_v I I I I #
coedge $-1 $351 $352 $178 $273 forward $172 $-1 #
coedge $-1 $174 $277 $353 $354 reversed $101 $-1 #
edge $-1 $355 -6.966885833463841493 $184 -2.570193170097404334 $174 $356 forward 7 unknown #
coedge $-1 $353 $357 $175 $268 forward $262 $-1 #
edge $-1 $271 -30.21527379561978677 $355 30.21527379561978677 $267 $358 forward 7 unknown #
coedge $-1 $274 $176 $357 $359 reversed $270 $-1 #
loop $-1 $-1 $176 $261 #
vertex $-1 $177 $360 #
straight-curve $-1 15.37800938697772324 0 16.50396483702508021 0 0 1 I I #
edge $-1 $278 -30.21527379561978677 $275 30.21527379561978677 $264 $361 forward 7 unknown #
coedge $-1 $179 $269 $351 $362 forward $270 $-1 #
vertex $-1 $273 $363 #
straight-curve $-1 36.98027919540314201 0 19.07415800712248455 1 0 0 I I #
coedge $-1 $265 $181 $352 $364 reversed $101 $-1 #
vertex $-1 $273 $365 #
straight-curve $-1 36.98027919540314201 60.43054759123957353 19.07415800712248455 -1 0 0 I I #
point $-1 15.37800938697772324 60.43054759123957353 19.07415800712248455 #
point $-1 15.37800938697772324 0 19.07415800712248455 #
loop $-1 $-1 $195 $187 #
plane-surface $-1 132.5431073946348306 30.21527379561978677 11.73542533524446085 -1 0 0 0 0 1 forward_v I I I I #
coedge $-1 $285 $190 $192 $289 reversed $109 $-1 #
coedge $-1 $190 $284 $366 $367 reversed $109 $-1 #
coedge $-1 $198 $193 $190 $287 forward $188 $-1 #
edge $-1 $290 15.79274066964384815 $368 23.33914539593240534 $286 $369 forward 7 unknown #
coedge $-1 $192 $191 $293 $370 reversed $65 $-1 #
edge $-1 $371 -132.543107394634859 $290 -120.5517513919463681 $284 $372 forward 7 unknown #
vertex $-1 $194 $373 #
straight-curve $-1 124.9967026683462734 19.25367754866962855 23.47085067048891815 0 -1 0 I I #
coedge $-1 $366 $195 $198 $297 reversed $282 $-1 #
coedge $-1 $195 $366 $288 $370 forward $282 $-1 #
vertex $-1 $196 $374 #
straight-curve $-1 132.5431073946348306 11.80547022010354752 106.152331283113412 0 0 1 I I #
straight-curve $-1 49.13102857255738343 11.80547022010354752 117.1571584089049338 0.629320380830711068 0 -0.7771459697322561366 I I #
edge $-1 $368 -25.43658141228438652 $199 -18.40980357551623925 $292 $375 forward 7 unknown #
point $-1 132.5431073946348306 11.80547022010354752 23.47085067048892171 #
point $-1 124.9967026683462734 11.80547022010354752 23.47085067048891815 #
edge $-1 $376 1 $376 0 $202 $-1 forward 7 unknown #
vertex $-1 $203 $377 #
ellipse-curve $-1 127.9927590617582922 6.786343193840586707 18.1820132951011928 0.7771459697322561366 0 0.629320380830711068 0.314660190415355534 0 -0.3885729848661280683 1 I I #
point $-1 129.0845652219059048 6.786343193840586707 18.42276069106577552 #
edge $-1 $378 1 $378 0 $206 $-1 forward 7 unknown #
vertex $-1 $207 $379 #
ellipse-curve $-1 127.9927590617582922 9.797819409598361062 18.1820132951011928 0.7771459697322561366 0 0.629320380830711068 0.314660190415355534 0 -0.3885729848661280683 1 I I #
point $-1 129.0845652219059048 9.797819409598361062 18.42276069106577552 #
plane-surface $-1 66.2715536973174153 30.21527379561978677 23.47085067048892171 0 0 1 1 0 0 forward_v I I I I #
coedge $-1 $319 $318 $311 $380 forward $211 $-1 #
coedge $-1 $311 $213 $215 $315 reversed $131 $-1 #
coedge $-1 $213 $310 $309 $380 reversed $131 $-1 #
coedge $-1 $221 $216 $213 $313 forward $222 $-1 #
edge $-1 $316 15.79274066964384815 $381 23.33914539593240534 $312 $382 forward 7 unknown #
coedge $-1 $215 $214 $319 $383 reversed $79 $-1 #
edge $-1 $384 -132.543107394634859 $316 -120.5517513919463681 $310 $385 forward 7 unknown #
vertex $-1 $217 $386 #
straight-curve $-1 124.9967026683462734 34.36131444647952549 23.47085067048891815 0 -1 0 I I #
coedge $-1 $309 $218 $221 $323 reversed $211 $-1 #
coedge $-1 $218 $309 $314 $383 forward $211 $-1 #
vertex $-1 $219 $387 #
straight-curve $-1 132.5431073946348306 42.02074401572333784 106.152331283113412 0 0 1 I I #
straight-curve $-1 49.13102857255738343 42.02074401572333784 117.1571584089049338 0.629320380830711068 0 -0.7771459697322561366 I I #
edge $-1 $381 4.778692383335403804 $223 11.80547022010355107 $318 $388 forward 7 unknown #
point $-1 132.5431073946348306 42.02074401572333784 23.47085067048892171 #
point $-1 124.9967026683462734 42.02074401572333784 23.47085067048891815 #
edge $-1 $389 1 $389 0 $226 $-1 forward 7 unknown #
vertex $-1 $227 $390 #
ellipse-curve $-1 127.9927590617582922 37.00161698946037347 18.1820132951011928 0.7771459697322561366 0 0.629320380830711068 0.314660190415355534 0 -0.3885729848661280683 1 I I #
point $-1 129.0845652219059048 37.00161698946037347 18.42276069106577552 #
edge $-1 $391 1 $391 0 $230 $-1 forward 7 unknown #
vertex $-1 $231 $392 #
ellipse-curve $-1 127.9927590617582922 40.01309320521815494 18.1820132951011928 0.7771459697322561366 0 0.629320380830711068 0.314660190415355534 0 -0.3885729848661280683 1 I I #
point $-1 129.0845652219059048 40.01309320521815494 18.42276069106577552 #
plane-surface $-1 132.5431073946348306 30.21527379561978677 11.73542533524446085 -1 0 0 0 0 1 forward_v I I I I #
coedge $-1 $239 $237 $241 $339 reversed $153 $-1 #
edge $-1 $252 -11.73542533524446085 $341 11.73542533524446085 $251 $393 forward 7 unknown #
vertex $-1 $339 $394 #
straight-curve $-1 0 0 11.73542533524446085 0 0 -1 I I #
edge $-1 $337 -30.21527379561978677 $341 30.21527379561978677 $335 $395 forward 7 unknown #
straight-curve $-1 66.2715536973174153 0 0 -1 0 0 I I #
vertex $-1 $244 $396 #
straight-curve $-1 66.2715536973174153 60.43054759123957353 0 1 0 0 I I #
point $-1 132.5431073946348306 60.43054759123957353 0 #
point $-1 132.5431073946348306 0 0 #
straight-curve $-1 0 30.21527379561978677 23.47085067048892171 0 -1 0 I I #
point $-1 0 60.43054759123957353 23.47085067048892171 #
point $-1 0 0 23.47085067048892171 #
straight-curve $-1 132.5431073946348306 0 11.73542533524446085 0 0 -1 I I #
straight-curve $-1 132.5431073946348306 60.43054759123957353 11.73542533524446085 0 0 -1 I I #
plane-surface $-1 66.2715536973174153 0 11.73542533524446085 0 1 0 0 0 1 forward_v I I I I #
coedge $-1 $397 $264 $274 $362 reversed $172 $-1 #
coedge $-1 $264 $397 $277 $364 forward $172 $-1 #
coedge $-1 $398 $267 $265 $354 forward $262 $-1 #
edge $-1 $355 50.89354431033969206 $399 66.2715536973174153 $265 $400 forward 7 unknown #
vertex $-1 $354 $401 #
straight-curve $-1 15.37800938697772324 60.43054759123957353 16.50396483702508021 0 0 -1 I I #
coedge $-1 $267 $398 $269 $359 forward $262 $-1 #
straight-curve $-1 15.37800938697772324 30.21527379561978677 23.47085067048892171 0 1 0 I I #
edge $-1 $402 -66.2715536973174153 $271 -50.89354431033969206 $269 $403 forward 7 unknown #
point $-1 15.37800938697772324 0 23.47085067048892171 #
straight-curve $-1 0 30.21527379561978677 19.07415800712248455 0 -1 0 I I #
edge $-1 $402 -11.73542533524446085 $275 -7.338732671878023694 $351 $404 forward 7 unknown #
point $-1 0 0 19.07415800712248455 #
edge $-1 $399 -11.73542533524446085 $278 -7.338732671878023694 $277 $405 forward 7 unknown #
point $-1 0 60.43054759123957353 19.07415800712248455 #
coedge $-1 $293 $292 $285 $367 forward $282 $-1 #
edge $-1 $368 82.68148061262448323 $371 92.00051460173855844 $366 $406 forward 7 unknown #
vertex $-1 $297 $407 #
straight-curve $-1 109.2039619987024253 4.778692383335400251 23.47085067048891815 1 0 0 I I #
edge $-1 $371 -14.4749851653342283 $294 -7.448207328566081031 $293 $408 forward 7 unknown #
vertex $-1 $370 $409 #
straight-curve $-1 49.13102857255738343 4.778692383335400251 117.1571584089049338 -0.629320380830711068 0 0.7771459697322561366 I I #
point $-1 124.9967026683462734 4.778692383335400251 23.47085067048891815 #
point $-1 132.5431073946348306 11.80547022010354752 14.15181668137485715 #
straight-curve $-1 132.5431073946348306 30.21527379561978677 23.47085067048892171 0 1 0 I I #
vertex $-1 $300 $410 #
point $-1 128.307419252173645 6.786343193840586707 17.79344031023506645 #
vertex $-1 $304 $411 #
point $-1 128.307419252173645 9.797819409598361062 17.79344031023506645 #
edge $-1 $381 82.68148061262448323 $384 92.00051460173855844 $309 $412 forward 7 unknown #
vertex $-1 $323 $413 #
straight-curve $-1 109.2039619987024253 34.99396617895519057 23.47085067048891815 1 0 0 I I #
edge $-1 $384 0.6326517324756650851 $320 7.659429569243812352 $319 $414 forward 7 unknown #
vertex $-1 $383 $415 #
straight-curve $-1 49.13102857255738343 34.99396617895519057 117.1571584089049338 -0.629320380830711068 0 0.7771459697322561366 I I #
point $-1 124.9967026683462734 34.99396617895519057 23.47085067048891815 #
point $-1 132.5431073946348306 42.02074401572333784 14.15181668137485715 #
straight-curve $-1 132.5431073946348306 30.21527379561978677 23.47085067048892171 0 1 0 I I #
vertex $-1 $326 $416 #
point $-1 128.307419252173645 37.00161698946037347 17.79344031023506645 #
vertex $-1 $330 $417 #
point $-1 128.307419252173645 40.01309320521815494 17.79344031023506645 #
straight-curve $-1 0 60.43054759123957353 11.73542533524446085 0 0 -1 I I #
point $-1 0 0 0 #
straight-curve $-1 0 30.21527379561978677 0 0 1 0 I I #
point $-1 0 60.43054759123957353 0 #
coedge $-1 $352 $351 $398 $418 reversed $172 $-1 #
coedge $-1 $357 $353 $397 $418 forward $262 $-1 #
vertex $-1 $354 $419 #
straight-curve $-1 66.2715536973174153 60.43054759123957353 23.47085067048892171 -1 0 0 I I #
point $-1 15.37800938697772324 60.43054759123957353 23.47085067048892171 #
vertex $-1 $418 $420 #
straight-curve $-1 66.2715536973174153 0 23.47085067048892171 1 0 0 I I #
straight-curve $-1 0 0 11.73542533524446085 0 0 -1 I I #
straight-curve $-1 0 60.43054759123957353 11.73542533524446085 0 0 -1 I I #
straight-curve $-1 132.5431073946348306 4.778692383335400251 106.152331283113412 0 0 -1 I I #
point $-1 132.5431073946348306 4.778692383335400251 23.47085067048892171 #
straight-curve $-1 132.5431073946348306 19.25367754866962855 14.15181668137486426 0 1 0 I I #
point $-1 132.5431073946348306 4.778692383335400251 14.15181668137485715 #
point $-1 127.6041860768921623 6.786343193840586707 17.86735310468584004 #
point $-1 127.6041860768921623 9.797819409598361062 17.86735310468584004 #
straight-curve $-1 132.5431073946348306 34.99396617895519057 106.152331283113412 0 0 -1 I I #
point $-1 132.5431073946348306 34.99396617895519057 23.47085067048892171 #
straight-curve $-1 132.5431073946348306 34.36131444647952549 14.15181668137486426 0 1 0 I I #
point $-1 132.5431073946348306 34.99396617895519057 14.15181668137485715 #
point $-1 127.6041860768921623 37.00161698946037347 17.86735310468584004 #
point $-1 127.6041860768921623 40.01309320521815494 17.86735310468584004 #
edge $-1 $399 -30.21527379561978677 $402 30.21527379561978677 $397 $421 forward 7 unknown #
point $-1 0 60.43054759123957353 23.47085067048892171 #
point $-1 0 0 23.47085067048892171 #
straight-curve $-1 0 30.21527379561978677 23.47085067048892171 0 -1 0 I I #
End-of-ACIS-data 