300 0 4 0           
7 Unknown 11 ACIS 3.0 NT 24 Fri Oct 30 19:13:30 1998 
-1 9.9999999999999995e-007 1e-010 
body $4 $5 $-1 $6 #
body $7 $8 $-1 $9 #
body $10 $11 $-1 $12 #
body $13 $14 $-1 $15 #
display_attribute-st-attrib $-1 $16 $-1 $0 1 #
lump $-1 $-1 $17 $0 #
transform $-1 1 0 0 0 1 0 0 0 1 61.533860286263618 40.425832605864684 8.1780668536788621 1 rotate no_reflect no_shear #
display_attribute-st-attrib $-1 $18 $-1 $1 1 #
lump $-1 $-1 $19 $1 #
transform $-1 1 0 0 0 1 0 0 0 1 61.533860286263618 40.425832605864684 8.1780668536788621 1 rotate no_reflect no_shear #
display_attribute-st-attrib $-1 $20 $-1 $2 1 #
lump $-1 $-1 $21 $2 #
transform $-1 1 0 0 0 1 0 0 0 1 61.533860286263618 40.425832605864684 8.1780668536788621 1 rotate no_reflect no_shear #
display_attribute-st-attrib $-1 $22 $-1 $3 1 #
lump $-1 $-1 $23 $3 #
transform $-1 1 0 0 0 1 0 0 0 1 61.533860286263618 40.425832605864684 8.1780668536788621 1 rotate no_reflect no_shear #
id_attribute-st-attrib $-1 $-1 $4 $0 3487 #
shell $-1 $-1 $-1 $24 $-1 $5 #
id_attribute-st-attrib $-1 $-1 $7 $1 3492 #
shell $-1 $-1 $-1 $25 $-1 $8 #
id_attribute-st-attrib $-1 $-1 $10 $2 3502 #
shell $-1 $-1 $-1 $26 $-1 $11 #
id_attribute-st-attrib $-1 $-1 $13 $3 3510 #
shell $-1 $-1 $-1 $27 $-1 $14 #
face $-1 $28 $29 $17 $-1 $30 forward single #
face $-1 $31 $32 $19 $-1 $33 reversed single #
face $-1 $34 $35 $21 $-1 $36 forward single #
face $-1 $37 $38 $23 $-1 $39 reversed single #
face $-1 $40 $41 $17 $-1 $42 reversed single #
loop $-1 $-1 $43 $24 #
plane-surface $-1 0 0 8.1780668536788621 0 0 1 1 0 0 forward_v I I I I #
face $-1 $44 $45 $19 $-1 $46 forward single #
loop $-1 $-1 $47 $25 #
plane-surface $-1 0 -37.055818650386527 -5.1666554018181969 0 0 1 1 0 0 forward_v I I I I #
face $-1 $48 $49 $21 $-1 $50 forward single #
loop $-1 $-1 $51 $26 #
plane-surface $-1 70.642623674164113 -11.637956165417005 175.91691527890131 0 -1 0 -0.74314483375859142 0 -0.66913059716165679 forward_v I I I I #
face $-1 $52 $53 $23 $-1 $54 reversed single #
loop $-1 $55 $56 $27 #
cone-surface $-1 57.587547255216762 -21.209229737838843 4.0506635651636334 -0.74314483375859142 0 -0.66913059716165679 0.66913059716165679 0 -0.74314483375859142 1 I I 0 1 forward I I I I #
face $-1 $57 $58 $17 $-1 $59 reversed single #
loop $-1 $-1 $60 $28 #
plane-surface $-1 0 0 -8.1780668536788621 0 0 1 1 0 0 forward_v I I I I #
coedge $-1 $61 $62 $63 $64 forward $29 $-1 #
face $-1 $65 $66 $19 $-1 $67 reversed single #
loop $-1 $-1 $68 $31 #
plane-surface $-1 0 -33.68580469490837 -6.6723611277485295 0 -1 0 0 0 -1 forward_v I I I I #
coedge $-1 $69 $70 $71 $72 reversed $32 $-1 #
face $-1 $73 $74 $21 $-1 $75 forward single #
loop $-1 $-1 $76 $34 #
plane-surface $-1 -20.814517071755418 -21.209229737838843 93.56853792088225 0.74314483375859142 0 0.66913059716165679 0.66913059716165679 0 -0.74314483375859142 forward_v I I I I #
coedge $-1 $77 $78 $79 $80 reversed $35 $-1 #
face $-1 $81 $82 $23 $-1 $83 forward single #
loop $-1 $84 $85 $37 #
cone-surface $-1 56.000888696382134 -21.209229737838843 2.622029817425636 -0.74314483375859142 0 -0.66913059716165679 0.3345652985808284 0 -0.37157241687929571 1 I I -0.70710678118654746 0.70710678118654746 forward I I I I #
loop $-1 $-1 $86 $27 #
coedge $-1 $56 $56 $87 $88 reversed $38 $-1 #
face $-1 $89 $90 $17 $-1 $91 reversed single #
loop $-1 $-1 $92 $40 #
plane-surface $-1 0 -40.425832605864684 0 0 1 0 0 0 1 forward_v I I I I #
coedge $-1 $93 $94 $95 $96 forward $41 $-1 #
coedge $-1 $97 $43 $98 $99 forward $29 $-1 #
coedge $-1 $43 $97 $100 $101 forward $29 $-1 #
coedge $-1 $102 $103 $43 $64 reversed $104 $-1 #
edge $-1 $105 $106 $63 $107 forward #
face $-1 $108 $109 $19 $-1 $110 reversed single #
loop $-1 $-1 $111 $44 #
plane-surface $-1 0 -40.425832605864684 0 0 1 0 0 0 1 forward_v I I I I #
coedge $-1 $112 $113 $114 $115 reversed $45 $-1 #
coedge $-1 $116 $47 $111 $117 reversed $32 $-1 #
coedge $-1 $47 $116 $112 $118 reversed $32 $-1 #
coedge $-1 $114 $119 $47 $72 forward $120 $-1 #
edge $-1 $121 $122 $71 $123 forward #
face $-1 $124 $125 $21 $-1 $126 forward single #
loop $-1 $-1 $127 $48 #
plane-surface $-1 70.642623674164113 -30.780503310260681 175.91691527890131 0 1 0 0.74314483375859142 0 0.66913059716165679 forward_v I I I I #
coedge $-1 $128 $129 $130 $131 reversed $49 $-1 #
coedge $-1 $78 $51 $129 $132 forward $35 $-1 #
coedge $-1 $51 $77 $133 $134 reversed $35 $-1 #
coedge $-1 $135 $130 $51 $80 forward $125 $-1 #
edge $-1 $136 $137 $79 $138 forward #
face $-1 $139 $140 $23 $-1 $141 forward single #
loop $-1 $-1 $142 $52 #
plane-surface $-1 70.642623674164113 -11.637956165417005 175.91691527890131 0 -1 0 -0.74314483375859142 0 -0.66913059716165679 forward_v I I I I #
loop $-1 $-1 $143 $37 #
coedge $-1 $85 $85 $86 $144 forward $53 $-1 #
coedge $-1 $86 $86 $85 $144 reversed $55 $-1 #
coedge $-1 $87 $87 $56 $88 forward $140 $-1 #
edge $-1 $145 $145 $87 $146 forward #
face $-1 $147 $148 $17 $-1 $149 reversed single #
loop $-1 $-1 $150 $57 #
plane-surface $-1 -61.533860286263618 0 0 1 0 0 0 0 -1 forward_v I I I I #
coedge $-1 $151 $100 $152 $153 forward $58 $-1 #
coedge $-1 $154 $60 $151 $155 forward $41 $-1 #
coedge $-1 $60 $154 $156 $157 forward $41 $-1 #
coedge $-1 $103 $102 $60 $96 reversed $104 $-1 #
edge $-1 $158 $159 $95 $160 forward #
coedge $-1 $62 $61 $161 $162 forward $29 $-1 #
coedge $-1 $163 $164 $61 $99 reversed $148 $-1 #
edge $-1 $106 $165 $98 $166 forward #
coedge $-1 $92 $167 $62 $101 reversed $58 $-1 #
edge $-1 $168 $105 $100 $169 forward #
coedge $-1 $95 $63 $167 $170 forward $104 $-1 #
coedge $-1 $63 $95 $163 $171 reversed $104 $-1 #
loop $-1 $-1 $102 $147 #
vertex $-1 $64 $172 #
vertex $-1 $64 $173 #
straight-curve $-1 61.533860286263618 0 8.1780668536788621 0 1 0 I I #
face $-1 $174 $175 $19 $-1 $176 forward single #
loop $-1 $-1 $177 $65 #
plane-surface $-1 0 0 -8.1780668536788621 0 0 1 1 0 0 forward_v I I I I #
coedge $-1 $178 $179 $69 $117 forward $66 $-1 #
coedge $-1 $180 $68 $70 $118 forward $45 $-1 #
coedge $-1 $68 $180 $177 $181 reversed $45 $-1 #
coedge $-1 $182 $71 $68 $115 forward $120 $-1 #
edge $-1 $122 $183 $114 $184 forward #
coedge $-1 $70 $69 $185 $186 reversed $32 $-1 #
edge $-1 $187 $121 $111 $188 forward #
edge $-1 $122 $189 $112 $190 forward #
coedge $-1 $71 $191 $178 $192 forward $120 $-1 #
loop $-1 $-1 $114 $193 #
vertex $-1 $117 $194 #
vertex $-1 $72 $195 #
straight-curve $-1 61.533860286263618 -18.527909325193264 -5.1666554018181969 0 1 0 I I #
face $-1 $196 $197 $21 $-1 $198 reversed single #
loop $-1 $-1 $199 $73 #
plane-surface $-1 0 0 8.1780668536788621 0 0 1 1 0 0 forward_v I I I I #
coedge $-1 $200 $201 $199 $202 reversed $74 $-1 #
coedge $-1 $203 $76 $201 $204 reversed $49 $-1 #
coedge $-1 $76 $203 $77 $132 reversed $49 $-1 #
coedge $-1 $79 $199 $76 $131 forward $125 $-1 #
edge $-1 $205 $136 $130 $206 forward #
edge $-1 $136 $207 $77 $208 forward #
coedge $-1 $209 $210 $78 $134 forward $211 $-1 #
edge $-1 $137 $207 $133 $212 forward #
coedge $-1 $213 $79 $210 $214 forward $125 $-1 #
vertex $-1 $131 $215 #
vertex $-1 $214 $216 #
straight-curve $-1 35.321311837082057 -11.637956165417005 8.1780668536788568 1 0 0 I I #
face $-1 $217 $218 $23 $-1 $219 forward single #
loop $-1 $220 $87 $81 #
plane-surface $-1 -20.814517071755418 -21.209229737838843 93.56853792088225 0.74314483375859142 0 0.66913059716165679 0.66913059716165679 0 -0.74314483375859142 forward_v I I I I #
coedge $-1 $221 $222 $223 $224 reversed $82 $-1 #
coedge $-1 $143 $143 $-1 $225 forward $84 $-1 #
edge $-1 $226 $226 $85 $227 forward #
vertex $-1 $88 $228 #
ellipse-curve $-1 58.802633397172094 -21.209229737838843 5.1447320143208035 -0.74314483375859142 0 -0.66913059716165679 0.66913059716165679 0 -0.74314483375859142 1 I I #
face $-1 $-1 $104 $17 $-1 $229 reversed single #
loop $-1 $-1 $163 $89 #
plane-surface $-1 0 40.425832605864684 0 0 -1 0 0 0 -1 forward_v I I I I #
coedge $-1 $230 $161 $164 $231 forward $90 $-1 #
coedge $-1 $167 $92 $93 $155 reversed $58 $-1 #
coedge $-1 $161 $230 $92 $153 reversed $90 $-1 #
edge $-1 $168 $232 $152 $233 forward #
coedge $-1 $94 $93 $230 $234 forward $41 $-1 #
edge $-1 $159 $232 $151 $235 forward #
coedge $-1 $164 $163 $94 $157 reversed $148 $-1 #
edge $-1 $236 $158 $156 $237 forward #
vertex $-1 $96 $238 #
vertex $-1 $170 $239 #
straight-curve $-1 61.533860286263618 0 -8.1780668536788621 0 -1 0 I I #
coedge $-1 $150 $152 $97 $162 reversed $90 $-1 #
edge $-1 $165 $168 $161 $240 forward #
coedge $-1 $156 $98 $103 $171 forward $148 $-1 #
coedge $-1 $98 $156 $150 $231 reversed $148 $-1 #
vertex $-1 $99 $241 #
straight-curve $-1 0 40.425832605864684 8.1780668536788621 -1 0 0 I I #
coedge $-1 $100 $151 $102 $170 reversed $58 $-1 #
vertex $-1 $162 $242 #
straight-curve $-1 0 -40.425832605864684 8.1780668536788621 1 0 0 I I #
edge $-1 $105 $159 $102 $243 forward #
edge $-1 $106 $158 $103 $244 forward #
point $-1 61.533860286263618 -40.425832605864684 8.1780668536788621 #
point $-1 61.533860286263618 40.425832605864684 8.1780668536788621 #
face $-1 $245 $246 $19 $-1 $247 reversed single #
loop $-1 $-1 $248 $108 #
plane-surface $-1 0 0 8.1780668536788621 0 0 1 1 0 0 forward_v I I I I #
coedge $-1 $249 $250 $113 $181 forward $109 $-1 #
coedge $-1 $251 $111 $119 $192 reversed $66 $-1 #
coedge $-1 $111 $251 $252 $253 forward $66 $-1 #
coedge $-1 $113 $112 $254 $255 reversed $45 $-1 #
edge $-1 $183 $256 $177 $257 forward #
coedge $-1 $258 $114 $250 $259 reversed $120 $-1 #
vertex $-1 $181 $260 #
straight-curve $-1 61.533860286263618 -33.68580469490837 -3.3361805638742648 0 0 -1 I I #
coedge $-1 $252 $254 $116 $186 forward $246 $-1 #
edge $-1 $189 $187 $185 $261 forward #
vertex $-1 $117 $262 #
straight-curve $-1 0 -40.425832605864684 -5.1666554018181969 1 0 0 I I #
vertex $-1 $186 $263 #
straight-curve $-1 0 -33.68580469490837 -5.1666554018181969 -1 0 0 I I #
coedge $-1 $119 $258 $248 $264 reversed $120 $-1 #
edge $-1 $265 $121 $119 $266 forward #
face $-1 $-1 $120 $19 $-1 $267 reversed single #
point $-1 61.533860286263618 -40.425832605864684 -5.1666554018181969 #
point $-1 61.533860286263618 -33.68580469490837 -5.1666554018181969 #
face $-1 $268 $269 $21 $-1 $270 forward single #
loop $-1 $-1 $271 $124 #
plane-surface $-1 0 -37.055818650386527 -5.1666554018181969 0 0 1 1 0 0 forward_v I I I I #
coedge $-1 $130 $272 $127 $202 forward $125 $-1 #
coedge $-1 $201 $127 $273 $274 reversed $74 $-1 #
coedge $-1 $127 $200 $128 $204 forward $74 $-1 #
edge $-1 $275 $205 $199 $276 forward #
coedge $-1 $129 $128 $209 $277 reversed $49 $-1 #
edge $-1 $278 $205 $201 $279 forward #
vertex $-1 $131 $280 #
straight-curve $-1 56.071406508080564 -10.604614868919422 8.178066853678871 0 1 0 I I #
vertex $-1 $277 $281 #
straight-curve $-1 -20.814517071755418 -11.637956165417005 93.56853792088225 0.66913059716165679 0 -0.74314483375859142 I I #
coedge $-1 $273 $133 $203 $277 forward $211 $-1 #
coedge $-1 $133 $282 $135 $214 reversed $211 $-1 #
loop $-1 $-1 $273 $283 #
straight-curve $-1 61.533860286263618 -11.637956165417005 87.958457639450657 0 0 -1 I I #
coedge $-1 $284 $135 $285 $286 forward $125 $-1 #
edge $-1 $137 $287 $210 $288 forward #
point $-1 56.071406508080571 -11.637956165417005 8.1780668536788568 #
point $-1 61.533860286263618 -11.637956165417005 8.1780668536788621 #
face $-1 $289 $290 $23 $-1 $291 forward single #
loop $-1 $-1 $292 $139 #
plane-surface $-1 70.642623674164113 -30.780503310260681 175.91691527890131 0 1 0 0.74314483375859142 0 0.66913059716165679 forward_v I I I I #
loop $-1 $-1 $293 $81 #
coedge $-1 $222 $142 $294 $295 forward $82 $-1 #
coedge $-1 $142 $221 $296 $297 reversed $82 $-1 #
coedge $-1 $298 $299 $142 $224 forward $290 $-1 #
edge $-1 $300 $301 $223 $302 forward #
edge $-1 $303 $303 $143 $-1 forward #
vertex $-1 $144 $304 #
ellipse-curve $-1 56.37246111326143 -21.209229737838843 2.9565951160064645 0.74314483375859142 0 0.66913059716165679 0.66913059716165679 0 -0.74314483375859142 1 I I #
point $-1 59.471763994333749 -21.209229737838843 4.4015871805622098 #
plane-surface $-1 61.533860286263618 0 0 -1 0 0 0 0 1 forward_v I I I I #
coedge $-1 $152 $150 $154 $234 reversed $90 $-1 #
edge $-1 $165 $236 $164 $305 forward #
vertex $-1 $234 $306 #
straight-curve $-1 -61.533860286263618 -40.425832605864684 0 0 0 -1 I I #
edge $-1 $232 $236 $230 $307 forward #
straight-curve $-1 0 -40.425832605864684 -8.1780668536788621 -1 0 0 I I #
vertex $-1 $157 $308 #
straight-curve $-1 0 40.425832605864684 -8.1780668536788621 1 0 0 I I #
point $-1 61.533860286263618 40.425832605864684 -8.1780668536788621 #
point $-1 61.533860286263618 -40.425832605864684 -8.1780668536788621 #
straight-curve $-1 -61.533860286263618 0 8.1780668536788621 0 -1 0 I I #
point $-1 -61.533860286263618 40.425832605864684 8.1780668536788621 #
point $-1 -61.533860286263618 -40.425832605864684 8.1780668536788621 #
straight-curve $-1 61.533860286263618 -40.425832605864684 0 0 0 -1 I I #
straight-curve $-1 61.533860286263618 40.425832605864684 0 0 0 -1 I I #
face $-1 $193 $309 $19 $-1 $310 reversed single #
loop $-1 $-1 $185 $174 #
plane-surface $-1 -61.533860286263618 0 0 1 0 0 0 0 -1 forward_v I I I I #
coedge $-1 $311 $312 $191 $264 forward $175 $-1 #
coedge $-1 $313 $177 $314 $315 forward $109 $-1 #
coedge $-1 $177 $313 $182 $259 forward $109 $-1 #
coedge $-1 $179 $178 $312 $316 reversed $66 $-1 #
coedge $-1 $317 $185 $179 $253 reversed $246 $-1 #
edge $-1 $318 $187 $252 $319 forward #
coedge $-1 $185 $314 $180 $255 forward $246 $-1 #
edge $-1 $256 $189 $254 $320 forward #
vertex $-1 $315 $321 #
straight-curve $-1 0 -33.68580469490837 -8.1780668536788621 -1 0 0 I I #
coedge $-1 $191 $182 $322 $323 reversed $120 $-1 #
edge $-1 $324 $183 $182 $325 forward #
point $-1 61.533860286263618 -33.68580469490837 -8.1780668536788621 #
straight-curve $-1 -61.533860286263618 -18.527909325193264 -5.1666554018181969 0 -1 0 I I #
point $-1 -61.533860286263618 -40.425832605864684 -5.1666554018181969 #
point $-1 -61.533860286263618 -33.68580469490837 -5.1666554018181969 #
edge $-1 $265 $326 $191 $327 forward #
vertex $-1 $264 $328 #
straight-curve $-1 61.533860286263618 -40.425832605864684 0 0 0 -1 I I #
plane-surface $-1 61.533860286263618 0 0 -1 0 0 0 0 1 forward_v I I I I #
face $-1 $329 $330 $21 $-1 $331 reversed single #
loop $-1 $-1 $332 $196 #
plane-surface $-1 0 -33.68580469490837 -6.6723611277485295 0 -1 0 0 0 -1 forward_v I I I I #
coedge $-1 $333 $334 $335 $336 reversed $197 $-1 #
coedge $-1 $199 $337 $338 $339 forward $125 $-1 #
coedge $-1 $338 $209 $200 $274 forward $211 $-1 #
edge $-1 $278 $275 $273 $340 forward #
vertex $-1 $274 $341 #
straight-curve $-1 35.321311837082057 -30.780503310260681 8.1780668536788568 -1 0 0 I I #
edge $-1 $207 $278 $209 $342 forward #
vertex $-1 $277 $343 #
straight-curve $-1 -20.814517071755418 -30.780503310260681 93.56853792088225 -0.66913059716165679 0 0.74314483375859142 I I #
point $-1 56.071406508080571 -30.780503310260681 8.1780668536788568 #
point $-1 61.533860286263618 -11.637956165417005 2.1113971749627467 #
coedge $-1 $210 $344 $345 $346 reversed $211 $-1 #
face $-1 $-1 $211 $21 $-1 $347 reversed single #
coedge $-1 $337 $213 $348 $349 forward $125 $-1 #
coedge $-1 $345 $350 $213 $286 reversed $351 $-1 #
edge $-1 $287 $352 $285 $353 forward #
vertex $-1 $214 $354 #
straight-curve $-1 61.533860286263618 0 8.1780668536788621 0 1 0 I I #
face $-1 $355 $356 $23 $-1 $357 reversed single #
loop $-1 $-1 $358 $217 #
plane-surface $-1 0 0 8.1780668536788621 0 0 1 1 0 0 forward_v I I I I #
coedge $-1 $359 $360 $358 $361 reversed $218 $-1 #
coedge $-1 $362 $294 $299 $363 reversed $220 $-1 #
coedge $-1 $293 $364 $221 $295 reversed $220 $-1 #
edge $-1 $300 $365 $221 $366 forward #
coedge $-1 $367 $368 $222 $297 forward $369 $-1 #
edge $-1 $301 $365 $296 $370 forward #
coedge $-1 $371 $223 $368 $372 forward $290 $-1 #
coedge $-1 $223 $358 $293 $363 forward $290 $-1 #
vertex $-1 $363 $373 #
vertex $-1 $372 $374 #
straight-curve $-1 35.321311837082057 -11.637956165417005 8.1780668536788568 1 0 0 I I #
vertex $-1 $225 $375 #
point $-1 57.041591710423084 -21.209229737838843 2.213450282247873 #
straight-curve $-1 -61.533860286263618 40.425832605864684 0 0 0 -1 I I #
point $-1 -61.533860286263618 -40.425832605864684 -8.1780668536788621 #
straight-curve $-1 -61.533860286263618 0 -8.1780668536788621 0 1 0 I I #
point $-1 -61.533860286263618 40.425832605864684 -8.1780668536788621 #
loop $-1 $-1 $322 $245 #
plane-surface $-1 0 40.425832605864684 0 0 -1 0 0 0 -1 forward_v I I I I #
coedge $-1 $376 $248 $377 $378 forward $175 $-1 #
coedge $-1 $248 $376 $251 $316 forward $175 $-1 #
coedge $-1 $250 $249 $379 $380 forward $109 $-1 #
coedge $-1 $254 $381 $249 $315 reversed $246 $-1 #
edge $-1 $256 $382 $314 $383 forward #
edge $-1 $318 $265 $251 $384 forward #
coedge $-1 $381 $252 $376 $385 reversed $246 $-1 #
vertex $-1 $385 $386 #
straight-curve $-1 -61.533860286263618 -40.425832605864684 0 0 0 -1 I I #
straight-curve $-1 -61.533860286263618 -33.68580469490837 -3.3361805638742648 0 0 1 I I #
point $-1 -61.533860286263618 -33.68580469490837 -8.1780668536788621 #
coedge $-1 $379 $377 $258 $323 forward $309 $-1 #
edge $-1 $326 $324 $258 $387 forward #
vertex $-1 $259 $388 #
straight-curve $-1 61.533860286263618 0 -8.1780668536788621 0 -1 0 I I #
vertex $-1 $264 $389 #
straight-curve $-1 61.533860286263618 0 8.1780668536788621 0 1 0 I I #
point $-1 61.533860286263618 -40.425832605864684 8.1780668536788621 #
face $-1 $390 $391 $21 $-1 $392 reversed single #
loop $-1 $-1 $393 $268 #
plane-surface $-1 0 -40.425832605864684 0 0 1 0 0 0 1 forward_v I I I I #
coedge $-1 $394 $395 $396 $397 reversed $269 $-1 #
coedge $-1 $398 $271 $393 $399 reversed $197 $-1 #
coedge $-1 $271 $398 $394 $400 reversed $197 $-1 #
coedge $-1 $396 $401 $271 $336 forward $211 $-1 #
edge $-1 $402 $403 $335 $404 forward #
coedge $-1 $272 $284 $405 $406 forward $125 $-1 #
coedge $-1 $401 $273 $272 $339 reversed $211 $-1 #
edge $-1 $407 $275 $338 $288 forward #
straight-curve $-1 61.533860286263618 -30.780503310260681 87.958457639450657 0 0 1 I I #
point $-1 61.533860286263618 -30.780503310260681 8.1780668536788621 #
straight-curve $-1 61.533860286263618 -10.604614868919422 2.1113971749627467 0 -1 0 I I #
point $-1 61.533860286263618 -30.780503310260681 2.1113971749627467 #
coedge $-1 $282 $396 $408 $409 reversed $211 $-1 #
coedge $-1 $410 $285 $282 $346 forward $351 $-1 #
edge $-1 $287 $411 $282 $412 forward #
plane-surface $-1 61.533860286263618 0 0 -1 0 0 0 0 1 forward_v I I I I #
coedge $-1 $413 $414 $284 $349 reversed $415 $-1 #
edge $-1 $352 $416 $348 $417 forward #
coedge $-1 $285 $410 $413 $418 reversed $351 $-1 #
loop $-1 $-1 $345 $419 #
vertex $-1 $286 $420 #
straight-curve $-1 0 40.425832605864684 8.1780668536788621 -1 0 0 I I #
point $-1 61.533860286263618 40.425832605864684 8.1780668536788621 #
face $-1 $421 $422 $23 $-1 $423 forward single #
loop $-1 $-1 $424 $289 #
plane-surface $-1 0 -37.055818650386527 -5.1666554018181969 0 0 1 1 0 0 forward_v I I I I #
coedge $-1 $299 $425 $292 $361 forward $290 $-1 #
coedge $-1 $360 $292 $426 $427 reversed $218 $-1 #
coedge $-1 $292 $359 $362 $428 forward $218 $-1 #
edge $-1 $429 $430 $358 $431 forward #
coedge $-1 $364 $293 $360 $428 reversed $220 $-1 #
edge $-1 $430 $300 $299 $432 forward #
coedge $-1 $294 $362 $367 $433 reversed $220 $-1 #
vertex $-1 $433 $434 #
straight-curve $-1 -20.814517071755418 -11.637956165417005 93.56853792088225 0.66913059716165679 0 -0.74314483375859142 I I #
coedge $-1 $426 $296 $364 $433 forward $369 $-1 #
coedge $-1 $296 $435 $298 $372 reversed $369 $-1 #
loop $-1 $-1 $426 $436 #
straight-curve $-1 61.533860286263618 -11.637956165417005 87.958457639450657 0 0 -1 I I #
coedge $-1 $437 $298 $438 $439 forward $290 $-1 #
edge $-1 $301 $440 $368 $441 forward #
point $-1 56.071406508080571 -11.637956165417005 8.1780668536788568 #
point $-1 61.533860286263618 -11.637956165417005 8.1780668536788621 #
point $-1 55.629316279502838 -21.209229737838843 2.2874645188448075 #
coedge $-1 $312 $311 $317 $385 forward $175 $-1 #
coedge $-1 $322 $442 $311 $378 reversed $309 $-1 #
edge $-1 $326 $443 $377 $444 forward #
coedge $-1 $442 $322 $313 $380 reversed $309 $-1 #
edge $-1 $382 $324 $379 $445 forward #
coedge $-1 $314 $317 $442 $446 forward $246 $-1 #
vertex $-1 $380 $447 #
straight-curve $-1 -61.533860286263618 0 -8.1780668536788621 0 1 0 I I #
straight-curve $-1 0 -40.425832605864684 8.1780668536788621 1 0 0 I I #
edge $-1 $443 $318 $317 $448 forward #
point $-1 -61.533860286263618 -40.425832605864684 8.1780668536788621 #
straight-curve $-1 61.533860286263618 40.425832605864684 0 0 0 -1 I I #
point $-1 61.533860286263618 40.425832605864684 -8.1780668536788621 #
point $-1 61.533860286263618 40.425832605864684 8.1780668536788621 #
face $-1 $419 $415 $21 $-1 $449 reversed single #
loop $-1 $-1 $450 $329 #
plane-surface $-1 0 0 -8.1780668536788621 0 0 1 1 0 0 forward_v I I I I #
coedge $-1 $451 $452 $333 $399 forward $330 $-1 #
coedge $-1 $453 $332 $334 $400 forward $269 $-1 #
coedge $-1 $332 $453 $450 $454 reversed $269 $-1 #
coedge $-1 $344 $335 $332 $397 forward $211 $-1 #
edge $-1 $403 $455 $396 $456 forward #
coedge $-1 $334 $333 $457 $458 reversed $197 $-1 #
edge $-1 $459 $402 $393 $460 forward #
edge $-1 $403 $461 $394 $462 forward #
coedge $-1 $335 $338 $451 $463 forward $211 $-1 #
vertex $-1 $399 $464 #
vertex $-1 $336 $465 #
straight-curve $-1 61.533860286263618 -18.527909325193264 -5.1666554018181969 0 1 0 I I #
coedge $-1 $452 $451 $337 $406 reversed $330 $-1 #
edge $-1 $416 $407 $405 $466 forward #
vertex $-1 $339 $467 #
coedge $-1 $450 $468 $344 $409 forward $391 $-1 #
edge $-1 $411 $455 $344 $469 forward #
coedge $-1 $350 $345 $468 $470 reversed $351 $-1 #
vertex $-1 $409 $471 #
straight-curve $-1 61.533860286263618 40.425832605864684 0 0 0 -1 I I #
coedge $-1 $472 $348 $350 $418 forward $415 $-1 #
coedge $-1 $348 $457 $452 $473 reversed $415 $-1 #
loop $-1 $-1 $457 $390 #
vertex $-1 $349 $474 #
straight-curve $-1 -61.533860286263618 0 8.1780668536788621 0 -1 0 I I #
edge $-1 $352 $475 $350 $476 forward #
face $-1 $283 $351 $21 $-1 $477 reversed single #
point $-1 -61.533860286263618 40.425832605864684 8.1780668536788621 #
face $-1 $478 $479 $23 $-1 $480 reversed single #
loop $-1 $-1 $481 $355 #
plane-surface $-1 0 -33.68580469490837 -6.6723611277485295 0 -1 0 0 0 -1 forward_v I I I I #
coedge $-1 $482 $483 $484 $485 reversed $356 $-1 #
coedge $-1 $358 $486 $487 $488 forward $290 $-1 #
coedge $-1 $487 $367 $359 $427 forward $369 $-1 #
edge $-1 $489 $429 $426 $490 forward #
edge $-1 $489 $430 $360 $491 forward #
vertex $-1 $427 $492 #
vertex $-1 $363 $493 #
straight-curve $-1 35.321311837082057 -30.780503310260681 8.1780668536788568 -1 0 0 I I #
straight-curve $-1 56.071406508080564 -10.604614868919422 8.178066853678871 0 1 0 I I #
edge $-1 $365 $489 $367 $494 forward #
point $-1 61.533860286263618 -11.637956165417005 2.1113971749627467 #
coedge $-1 $368 $495 $496 $497 reversed $369 $-1 #
face $-1 $-1 $369 $23 $-1 $498 reversed single #
coedge $-1 $486 $371 $499 $500 forward $290 $-1 #
coedge $-1 $496 $501 $371 $439 reversed $502 $-1 #
edge $-1 $440 $503 $438 $504 forward #
vertex $-1 $372 $505 #
straight-curve $-1 61.533860286263618 0 8.1780668536788621 0 1 0 I I #
coedge $-1 $377 $379 $381 $446 reversed $309 $-1 #
vertex $-1 $378 $506 #
straight-curve $-1 0 40.425832605864684 8.1780668536788621 -1 0 0 I I #
straight-curve $-1 0 40.425832605864684 -8.1780668536788621 1 0 0 I I #
edge $-1 $443 $382 $442 $507 forward #
point $-1 -61.533860286263618 40.425832605864684 -8.1780668536788621 #
straight-curve $-1 -61.533860286263618 0 8.1780668536788621 0 -1 0 I I #
plane-surface $-1 -61.533860286263618 0 0 1 0 0 0 0 -1 forward_v I I I I #
coedge $-1 $508 $408 $395 $454 forward $391 $-1 #
coedge $-1 $405 $393 $401 $463 reversed $330 $-1 #
coedge $-1 $393 $405 $414 $473 forward $330 $-1 #
coedge $-1 $395 $394 $509 $510 reversed $269 $-1 #
edge $-1 $455 $511 $450 $512 forward #
vertex $-1 $454 $513 #
straight-curve $-1 61.533860286263618 -33.68580469490837 -3.3361805638742648 0 0 -1 I I #
coedge $-1 $414 $509 $398 $458 forward $415 $-1 #
edge $-1 $461 $459 $457 $514 forward #
vertex $-1 $399 $515 #
straight-curve $-1 0 -40.425832605864684 -5.1666554018181969 1 0 0 I I #
vertex $-1 $458 $516 #
straight-curve $-1 0 -33.68580469490837 -5.1666554018181969 -1 0 0 I I #
edge $-1 $407 $402 $401 $517 forward #
point $-1 61.533860286263618 -40.425832605864684 -5.1666554018181969 #
point $-1 61.533860286263618 -33.68580469490837 -5.1666554018181969 #
straight-curve $-1 0 -40.425832605864684 8.1780668536788621 1 0 0 I I #
point $-1 61.533860286263618 -40.425832605864684 8.1780668536788621 #
coedge $-1 $408 $508 $410 $470 forward $391 $-1 #
straight-curve $-1 61.533860286263618 0 -8.1780668536788621 0 -1 0 I I #
edge $-1 $475 $411 $410 $518 forward #
point $-1 61.533860286263618 40.425832605864684 -8.1780668536788621 #
coedge $-1 $509 $413 $508 $519 reversed $415 $-1 #
edge $-1 $416 $459 $414 $520 forward #
point $-1 -61.533860286263618 -40.425832605864684 8.1780668536788621 #
vertex $-1 $470 $521 #
straight-curve $-1 -61.533860286263618 40.425832605864684 0 0 0 -1 I I #
plane-surface $-1 0 40.425832605864684 0 0 -1 0 0 0 -1 forward_v I I I I #
face $-1 $522 $523 $23 $-1 $524 reversed single #
loop $-1 $-1 $525 $421 #
plane-surface $-1 0 -40.425832605864684 0 0 1 0 0 0 1 forward_v I I I I #
coedge $-1 $526 $527 $528 $529 reversed $422 $-1 #
coedge $-1 $530 $424 $525 $531 reversed $356 $-1 #
coedge $-1 $424 $530 $526 $532 reversed $356 $-1 #
coedge $-1 $528 $533 $424 $485 forward $369 $-1 #
edge $-1 $534 $535 $484 $536 forward #
coedge $-1 $425 $437 $537 $538 forward $290 $-1 #
coedge $-1 $533 $426 $425 $488 reversed $369 $-1 #
edge $-1 $539 $429 $487 $441 forward #
vertex $-1 $433 $540 #
straight-curve $-1 61.533860286263618 -30.780503310260681 87.958457639450657 0 0 1 I I #
straight-curve $-1 -20.814517071755418 -30.780503310260681 93.56853792088225 -0.66913059716165679 0 0.74314483375859142 I I #
point $-1 61.533860286263618 -30.780503310260681 8.1780668536788621 #
point $-1 56.071406508080571 -30.780503310260681 8.1780668536788568 #
straight-curve $-1 61.533860286263618 -10.604614868919422 2.1113971749627467 0 -1 0 I I #
coedge $-1 $435 $528 $541 $542 reversed $369 $-1 #
coedge $-1 $543 $438 $435 $497 forward $502 $-1 #
edge $-1 $440 $544 $435 $545 forward #
plane-surface $-1 61.533860286263618 0 0 -1 0 0 0 0 1 forward_v I I I I #
coedge $-1 $546 $547 $437 $500 reversed $548 $-1 #
edge $-1 $503 $549 $499 $550 forward #
coedge $-1 $438 $543 $546 $551 reversed $502 $-1 #
loop $-1 $-1 $496 $552 #
vertex $-1 $439 $553 #
straight-curve $-1 0 40.425832605864684 8.1780668536788621 -1 0 0 I I #
point $-1 61.533860286263618 40.425832605864684 8.1780668536788621 #
point $-1 -61.533860286263618 40.425832605864684 8.1780668536788621 #
straight-curve $-1 -61.533860286263618 40.425832605864684 0 0 0 -1 I I #
coedge $-1 $468 $450 $472 $519 forward $391 $-1 #
coedge $-1 $457 $472 $453 $510 forward $415 $-1 #
edge $-1 $511 $461 $509 $554 forward #
vertex $-1 $519 $555 #
straight-curve $-1 0 -33.68580469490837 -8.1780668536788621 -1 0 0 I I #
point $-1 61.533860286263618 -33.68580469490837 -8.1780668536788621 #
straight-curve $-1 -61.533860286263618 -18.527909325193264 -5.1666554018181969 0 -1 0 I I #
point $-1 -61.533860286263618 -40.425832605864684 -5.1666554018181969 #
point $-1 -61.533860286263618 -33.68580469490837 -5.1666554018181969 #
straight-curve $-1 61.533860286263618 -40.425832605864684 0 0 0 -1 I I #
straight-curve $-1 0 40.425832605864684 -8.1780668536788621 1 0 0 I I #
edge $-1 $511 $475 $472 $556 forward #
straight-curve $-1 -61.533860286263618 -40.425832605864684 0 0 0 -1 I I #
point $-1 -61.533860286263618 40.425832605864684 -8.1780668536788621 #
face $-1 $552 $548 $23 $-1 $557 reversed single #
loop $-1 $-1 $558 $478 #
plane-surface $-1 0 0 -8.1780668536788621 0 0 1 1 0 0 forward_v I I I I #
coedge $-1 $559 $560 $482 $531 forward $479 $-1 #
coedge $-1 $561 $481 $483 $532 forward $422 $-1 #
coedge $-1 $481 $561 $558 $562 reversed $422 $-1 #
coedge $-1 $495 $484 $481 $529 forward $369 $-1 #
edge $-1 $535 $563 $528 $564 forward #
coedge $-1 $483 $482 $565 $566 reversed $356 $-1 #
edge $-1 $567 $534 $525 $568 forward #
edge $-1 $535 $569 $526 $570 forward #
coedge $-1 $484 $487 $559 $571 forward $369 $-1 #
vertex $-1 $531 $572 #
vertex $-1 $485 $573 #
straight-curve $-1 61.533860286263618 -18.527909325193264 -5.1666554018181969 0 1 0 I I #
coedge $-1 $560 $559 $486 $538 reversed $479 $-1 #
edge $-1 $549 $539 $537 $574 forward #
vertex $-1 $488 $575 #
point $-1 61.533860286263618 -30.780503310260681 2.1113971749627467 #
coedge $-1 $558 $576 $495 $542 forward $523 $-1 #
edge $-1 $544 $563 $495 $577 forward #
coedge $-1 $501 $496 $576 $578 reversed $502 $-1 #
vertex $-1 $542 $579 #
straight-curve $-1 61.533860286263618 40.425832605864684 0 0 0 -1 I I #
coedge $-1 $580 $499 $501 $551 forward $548 $-1 #
coedge $-1 $499 $565 $560 $581 reversed $548 $-1 #
loop $-1 $-1 $565 $522 #
vertex $-1 $500 $582 #
straight-curve $-1 -61.533860286263618 0 8.1780668536788621 0 -1 0 I I #
edge $-1 $503 $583 $501 $584 forward #
face $-1 $436 $502 $23 $-1 $585 reversed single #
point $-1 -61.533860286263618 40.425832605864684 8.1780668536788621 #
straight-curve $-1 -61.533860286263618 -33.68580469490837 -3.3361805638742648 0 0 1 I I #
point $-1 -61.533860286263618 -33.68580469490837 -8.1780668536788621 #
straight-curve $-1 -61.533860286263618 0 -8.1780668536788621 0 1 0 I I #
plane-surface $-1 -61.533860286263618 0 0 1 0 0 0 0 -1 forward_v I I I I #
coedge $-1 $586 $541 $527 $562 forward $523 $-1 #
coedge $-1 $537 $525 $533 $571 reversed $479 $-1 #
coedge $-1 $525 $537 $547 $581 forward $479 $-1 #
coedge $-1 $527 $526 $587 $588 reversed $422 $-1 #
edge $-1 $563 $589 $558 $590 forward #
vertex $-1 $562 $591 #
straight-curve $-1 61.533860286263618 -33.68580469490837 -3.3361805638742648 0 0 -1 I I #
coedge $-1 $547 $587 $530 $566 forward $548 $-1 #
edge $-1 $569 $567 $565 $592 forward #
vertex $-1 $531 $593 #
straight-curve $-1 0 -40.425832605864684 -5.1666554018181969 1 0 0 I I #
vertex $-1 $566 $594 #
straight-curve $-1 0 -33.68580469490837 -5.1666554018181969 -1 0 0 I I #
edge $-1 $539 $534 $533 $595 forward #
point $-1 61.533860286263618 -40.425832605864684 -5.1666554018181969 #
point $-1 61.533860286263618 -33.68580469490837 -5.1666554018181969 #
straight-curve $-1 0 -40.425832605864684 8.1780668536788621 1 0 0 I I #
point $-1 61.533860286263618 -40.425832605864684 8.1780668536788621 #
coedge $-1 $541 $586 $543 $578 forward $523 $-1 #
straight-curve $-1 61.533860286263618 0 -8.1780668536788621 0 -1 0 I I #
edge $-1 $583 $544 $543 $596 forward #
point $-1 61.533860286263618 40.425832605864684 -8.1780668536788621 #
coedge $-1 $587 $546 $586 $597 reversed $548 $-1 #
edge $-1 $549 $567 $547 $598 forward #
point $-1 -61.533860286263618 -40.425832605864684 8.1780668536788621 #
vertex $-1 $578 $599 #
straight-curve $-1 -61.533860286263618 40.425832605864684 0 0 0 -1 I I #
plane-surface $-1 0 40.425832605864684 0 0 -1 0 0 0 -1 forward_v I I I I #
coedge $-1 $576 $558 $580 $597 forward $523 $-1 #
coedge $-1 $565 $580 $561 $588 forward $548 $-1 #
edge $-1 $589 $569 $587 $600 forward #
vertex $-1 $597 $601 #
straight-curve $-1 0 -33.68580469490837 -8.1780668536788621 -1 0 0 I I #
point $-1 61.533860286263618 -33.68580469490837 -8.1780668536788621 #
straight-curve $-1 -61.533860286263618 -18.527909325193264 -5.1666554018181969 0 -1 0 I I #
point $-1 -61.533860286263618 -40.425832605864684 -5.1666554018181969 #
point $-1 -61.533860286263618 -33.68580469490837 -5.1666554018181969 #
straight-curve $-1 61.533860286263618 -40.425832605864684 0 0 0 -1 I I #
straight-curve $-1 0 40.425832605864684 -8.1780668536788621 1 0 0 I I #
edge $-1 $589 $583 $580 $602 forward #
straight-curve $-1 -61.533860286263618 -40.425832605864684 0 0 0 -1 I I #
point $-1 -61.533860286263618 40.425832605864684 -8.1780668536788621 #
straight-curve $-1 -61.533860286263618 -33.68580469490837 -3.3361805638742648 0 0 1 I I #
point $-1 -61.533860286263618 -33.68580469490837 -8.1780668536788621 #
straight-curve $-1 -61.533860286263618 0 -8.1780668536788621 0 1 0 I I #
End-of-ACIS-data 