300 0 2 0           
7 Unknown 11 ACIS 3.0 NT 24 Fri Oct 30 14:25:18 1998 
-1 9.9999999999999995e-007 1e-010 
body $2 $3 $-1 $4 #
body $5 $6 $-1 $7 #
display_attribute-st-attrib $-1 $8 $-1 $0 1 #
lump $-1 $-1 $9 $0 #
transform $-1 1 0 0 0 1 0 0 0 1 40.187994018372144 22.57307633623266 10.530336321920993 1 rotate no_reflect no_shear #
display_attribute-st-attrib $-1 $10 $-1 $1 3 #
lump $-1 $-1 $11 $1 #
transform $-1 1 0 0 0 1 0 0 0 1 40.187994018372144 22.57307633623266 10.530336321920993 1 rotate no_reflect no_shear #
id_attribute-st-attrib $-1 $-1 $2 $0 1642 #
shell $-1 $-1 $-1 $12 $-1 $3 #
id_attribute-st-attrib $-1 $-1 $5 $1 1647 #
shell $-1 $-1 $-1 $13 $-1 $6 #
face $-1 $14 $15 $9 $-1 $16 forward single #
face $-1 $17 $18 $11 $-1 $19 forward single #
face $-1 $20 $21 $9 $-1 $22 reversed single #
loop $-1 $-1 $23 $12 #
plane-surface $-1 0 0 10.530336321920993 0 0 1 1 0 0 forward_v I I I I #
face $-1 $24 $25 $11 $-1 $26 reversed single #
loop $-1 $-1 $27 $13 #
plane-surface $-1 -36.374040342480832 0 -5.3695813288120586 0 0 1 1 0 0 forward_v I I I I #
face $-1 $28 $29 $9 $-1 $30 reversed single #
loop $-1 $-1 $31 $14 #
plane-surface $-1 0 0 -10.530336321920993 0 0 1 1 0 0 forward_v I I I I #
coedge $-1 $32 $33 $34 $35 forward $15 $-1 #
face $-1 $36 $37 $11 $-1 $38 reversed single #
loop $-1 $-1 $39 $17 #
plane-surface $-1 -32.56008666658952 0 -7.9499588253665259 -1 0 0 0 0 1 forward_v I I I I #
coedge $-1 $40 $41 $42 $43 forward $18 $-1 #
face $-1 $44 $45 $9 $-1 $46 reversed single #
loop $-1 $-1 $47 $20 #
plane-surface $-1 0 -22.57307633623266 0 0 1 0 0 0 1 forward_v I I I I #
coedge $-1 $48 $49 $50 $51 forward $21 $-1 #
coedge $-1 $52 $23 $53 $54 forward $15 $-1 #
coedge $-1 $23 $52 $55 $56 forward $15 $-1 #
coedge $-1 $57 $58 $23 $35 reversed $59 $-1 #
edge $-1 $60 $61 $34 $62 forward #
face $-1 $63 $64 $11 $-1 $65 reversed single #
loop $-1 $-1 $66 $24 #
plane-surface $-1 0 0 -10.530336321920993 0 0 1 1 0 0 forward_v I I I I #
coedge $-1 $67 $42 $68 $69 reversed $25 $-1 #
coedge $-1 $70 $27 $71 $72 reversed $18 $-1 #
coedge $-1 $27 $70 $73 $74 reversed $18 $-1 #
coedge $-1 $39 $75 $27 $43 reversed $25 $-1 #
edge $-1 $76 $77 $42 $78 forward #
face $-1 $79 $80 $9 $-1 $81 reversed single #
loop $-1 $-1 $82 $28 #
plane-surface $-1 -40.187994018372144 0 0 1 0 0 0 0 -1 forward_v I I I I #
coedge $-1 $83 $55 $84 $85 forward $29 $-1 #
coedge $-1 $86 $31 $83 $87 forward $21 $-1 #
coedge $-1 $31 $86 $88 $89 forward $21 $-1 #
coedge $-1 $58 $57 $31 $51 reversed $59 $-1 #
edge $-1 $90 $91 $50 $92 forward #
coedge $-1 $33 $32 $93 $94 forward $15 $-1 #
coedge $-1 $95 $96 $32 $54 reversed $80 $-1 #
edge $-1 $61 $97 $53 $98 forward #
coedge $-1 $47 $99 $33 $56 reversed $29 $-1 #
edge $-1 $100 $60 $55 $101 forward #
coedge $-1 $50 $34 $99 $102 forward $59 $-1 #
coedge $-1 $34 $50 $95 $103 reversed $59 $-1 #
loop $-1 $-1 $57 $79 #
vertex $-1 $35 $104 #
vertex $-1 $35 $105 #
straight-curve $-1 40.187994018372144 0 10.530336321920993 0 1 0 I I #
face $-1 $106 $107 $11 $-1 $108 reversed single #
loop $-1 $-1 $68 $36 #
plane-surface $-1 0 -22.57307633623266 0 0 1 0 0 0 1 forward_v I I I I #
coedge $-1 $109 $110 $67 $111 forward $37 $-1 #
coedge $-1 $75 $39 $66 $111 reversed $25 $-1 #
coedge $-1 $73 $112 $39 $69 forward $64 $-1 #
edge $-1 $113 $76 $68 $114 forward #
coedge $-1 $41 $40 $115 $116 reversed $18 $-1 #
coedge $-1 $117 $118 $40 $72 forward $119 $-1 #
edge $-1 $120 $77 $71 $121 forward #
coedge $-1 $122 $68 $41 $74 forward $64 $-1 #
edge $-1 $76 $123 $73 $124 forward #
coedge $-1 $42 $67 $117 $125 reversed $25 $-1 #
vertex $-1 $74 $126 #
vertex $-1 $72 $127 #
straight-curve $-1 -32.56008666658952 0 -5.3695813288120586 0 1 0 I I #
face $-1 $-1 $59 $9 $-1 $128 reversed single #
loop $-1 $-1 $95 $44 #
plane-surface $-1 0 22.57307633623266 0 0 -1 0 0 0 -1 forward_v I I I I #
coedge $-1 $129 $93 $96 $130 forward $45 $-1 #
coedge $-1 $99 $47 $48 $87 reversed $29 $-1 #
coedge $-1 $93 $129 $47 $85 reversed $45 $-1 #
edge $-1 $100 $131 $84 $132 forward #
coedge $-1 $49 $48 $129 $133 forward $21 $-1 #
edge $-1 $91 $131 $83 $134 forward #
coedge $-1 $96 $95 $49 $89 reversed $80 $-1 #
edge $-1 $135 $90 $88 $136 forward #
vertex $-1 $51 $137 #
vertex $-1 $102 $138 #
straight-curve $-1 40.187994018372144 0 -10.530336321920993 0 -1 0 I I #
coedge $-1 $82 $84 $52 $94 reversed $45 $-1 #
edge $-1 $97 $100 $93 $139 forward #
coedge $-1 $88 $53 $58 $103 forward $80 $-1 #
coedge $-1 $53 $88 $82 $130 reversed $80 $-1 #
vertex $-1 $54 $140 #
straight-curve $-1 0 22.57307633623266 10.530336321920993 -1 0 0 I I #
coedge $-1 $55 $83 $57 $102 reversed $29 $-1 #
vertex $-1 $94 $141 #
straight-curve $-1 0 -22.57307633623266 10.530336321920993 1 0 0 I I #
edge $-1 $60 $91 $57 $142 forward #
edge $-1 $61 $90 $58 $143 forward #
point $-1 40.187994018372144 -22.57307633623266 10.530336321920993 #
point $-1 40.187994018372144 22.57307633623266 10.530336321920993 #
face $-1 $-1 $119 $11 $-1 $144 reversed single #
loop $-1 $-1 $115 $63 #
plane-surface $-1 -40.187994018372144 0 0 1 0 0 0 0 -1 forward_v I I I I #
coedge $-1 $145 $66 $112 $146 forward $37 $-1 #
coedge $-1 $66 $145 $147 $148 forward $37 $-1 #
edge $-1 $149 $113 $66 $150 forward #
coedge $-1 $68 $122 $109 $146 reversed $64 $-1 #
vertex $-1 $146 $151 #
straight-curve $-1 -32.56008666658952 -22.57307633623266 -3.9749794126832629 0 0 1 I I #
coedge $-1 $152 $153 $70 $116 forward $107 $-1 #
edge $-1 $123 $120 $115 $154 forward #
coedge $-1 $147 $71 $75 $125 forward $119 $-1 #
coedge $-1 $71 $147 $152 $155 reversed $119 $-1 #
loop $-1 $-1 $117 $106 #
vertex $-1 $155 $156 #
straight-curve $-1 -18.187020171240416 22.57307633623266 -5.3695813288120586 1 0 0 I I #
coedge $-1 $112 $73 $153 $157 forward $64 $-1 #
vertex $-1 $157 $158 #
straight-curve $-1 -18.187020171240416 -22.57307633623266 -5.3695813288120586 -1 0 0 I I #
edge $-1 $77 $149 $117 $159 forward #
point $-1 -32.56008666658952 -22.57307633623266 -5.3695813288120586 #
point $-1 -32.56008666658952 22.57307633623266 -5.3695813288120586 #
plane-surface $-1 40.187994018372144 0 0 -1 0 0 0 0 1 forward_v I I I I #
coedge $-1 $84 $82 $86 $133 reversed $45 $-1 #
edge $-1 $97 $135 $96 $160 forward #
vertex $-1 $133 $161 #
straight-curve $-1 -40.187994018372144 -22.57307633623266 0 0 0 -1 I I #
edge $-1 $131 $135 $129 $162 forward #
straight-curve $-1 0 -22.57307633623266 -10.530336321920993 -1 0 0 I I #
vertex $-1 $89 $163 #
straight-curve $-1 0 22.57307633623266 -10.530336321920993 1 0 0 I I #
point $-1 40.187994018372144 22.57307633623266 -10.530336321920993 #
point $-1 40.187994018372144 -22.57307633623266 -10.530336321920993 #
straight-curve $-1 -40.187994018372144 0 10.530336321920993 0 -1 0 I I #
point $-1 -40.187994018372144 22.57307633623266 10.530336321920993 #
point $-1 -40.187994018372144 -22.57307633623266 10.530336321920993 #
straight-curve $-1 40.187994018372144 -22.57307633623266 0 0 0 -1 I I #
straight-curve $-1 40.187994018372144 22.57307633623266 0 0 0 -1 I I #
plane-surface $-1 0 22.57307633623266 0 0 -1 0 0 0 -1 forward_v I I I I #
coedge $-1 $110 $109 $164 $165 forward $37 $-1 #
edge $-1 $113 $166 $112 $167 forward #
coedge $-1 $118 $117 $110 $148 reversed $119 $-1 #
edge $-1 $168 $149 $147 $169 forward #
vertex $-1 $125 $170 #
straight-curve $-1 -32.56008666658952 0 -10.530336321920993 0 -1 0 I I #
point $-1 -32.56008666658952 -22.57307633623266 -10.530336321920993 #
coedge $-1 $164 $115 $118 $155 forward $107 $-1 #
coedge $-1 $115 $164 $122 $157 reversed $107 $-1 #
straight-curve $-1 -40.187994018372144 0 -5.3695813288120586 0 1 0 I I #
edge $-1 $120 $168 $118 $171 forward #
point $-1 -40.187994018372144 22.57307633623266 -5.3695813288120586 #
edge $-1 $123 $166 $153 $172 forward #
point $-1 -40.187994018372144 -22.57307633623266 -5.3695813288120586 #
straight-curve $-1 -32.56008666658952 22.57307633623266 -3.9749794126832629 0 0 -1 I I #
straight-curve $-1 -40.187994018372144 22.57307633623266 0 0 0 -1 I I #
point $-1 -40.187994018372144 -22.57307633623266 -10.530336321920993 #
straight-curve $-1 -40.187994018372144 0 -10.530336321920993 0 1 0 I I #
point $-1 -40.187994018372144 22.57307633623266 -10.530336321920993 #
coedge $-1 $153 $152 $145 $165 reversed $107 $-1 #
edge $-1 $166 $168 $164 $173 forward #
vertex $-1 $165 $174 #
straight-curve $-1 0 -22.57307633623266 -10.530336321920993 -1 0 0 I I #
vertex $-1 $148 $175 #
straight-curve $-1 0 22.57307633623266 -10.530336321920993 1 0 0 I I #
point $-1 -32.56008666658952 22.57307633623266 -10.530336321920993 #
straight-curve $-1 -40.187994018372144 22.57307633623266 0 0 0 -1 I I #
straight-curve $-1 -40.187994018372144 -22.57307633623266 0 0 0 -1 I I #
straight-curve $-1 -40.187994018372144 0 -10.530336321920993 0 1 0 I I #
point $-1 -40.187994018372144 -22.57307633623266 -10.530336321920993 #
point $-1 -40.187994018372144 22.57307633623266 -10.530336321920993 #
End-of-ACIS-data 