600 0 9 0           
94 GICL ACIS Healer - Source: /gicl/data5/repository/Drexel/SM99-DATA/part105.smdg.feat.sat - 6 0 18 ACIS 6.0.3 Solaris 24 Sat Apr 13 20:43:29 2002 
1 9.999999999999999547e-07 1.000000000000000036e-10 
body $-1 $9 $-1 $-1 #
body $-1 $10 $-1 $-1 #
body $-1 $11 $-1 $-1 #
body $-1 $12 $-1 $-1 #
body $-1 $13 $-1 $-1 #
body $-1 $14 $-1 $-1 #
body $-1 $15 $-1 $-1 #
body $-1 $16 $-1 $-1 #
body $-1 $17 $-1 $-1 #
lump $-1 $-1 $18 $0 #
lump $-1 $-1 $19 $1 #
lump $-1 $-1 $20 $2 #
lump $-1 $-1 $21 $3 #
lump $-1 $-1 $22 $4 #
lump $-1 $-1 $23 $5 #
lump $-1 $-1 $24 $6 #
lump $-1 $-1 $25 $7 #
lump $-1 $-1 $26 $8 #
shell $-1 $-1 $-1 $27 $-1 $9 #
shell $-1 $-1 $-1 $28 $-1 $10 #
shell $-1 $-1 $-1 $29 $-1 $11 #
shell $-1 $-1 $-1 $30 $-1 $12 #
shell $-1 $-1 $-1 $31 $-1 $13 #
shell $-1 $-1 $-1 $32 $-1 $14 #
shell $-1 $-1 $-1 $33 $-1 $15 #
shell $-1 $-1 $-1 $34 $-1 $16 #
shell $-1 $-1 $-1 $35 $-1 $17 #
face $-1 $36 $37 $18 $-1 $38 forward single #
face $-1 $39 $40 $19 $-1 $41 forward single #
face $-1 $42 $43 $20 $-1 $44 forward single #
face $-1 $45 $46 $21 $-1 $47 forward single #
face $-1 $48 $49 $22 $-1 $50 forward single #
face $-1 $51 $52 $23 $-1 $53 forward single #
face $-1 $54 $55 $24 $-1 $56 forward single #
face $-1 $57 $58 $25 $-1 $59 forward single #
face $-1 $60 $61 $26 $-1 $62 forward single #
face $-1 $63 $64 $18 $-1 $65 reversed single #
loop $-1 $-1 $66 $27 #
plane-surface $-1 53.50871303445539695 25.6362371955109829 19.8970123176951823 0 0 1 1 0 0 forward_v I I I I #
face $-1 $67 $68 $19 $-1 $69 reversed single #
loop $-1 $-1 $70 $28 #
plane-surface $-1 25.05304871323365035 -128.8093911253749866 182.4673515861173314 0 -0.6018150307709319025 0.7986355043060522352 1 0 0 forward_v I I I I #
face $-1 $71 $72 $20 $-1 $73 forward single #
loop $-1 $74 $75 $29 #
cone-surface $-1 20.9727541871430212 6.305839582213375927 14.71215103979740846 0 0.6018150307709319025 -0.7986355043060522352 1 0 0 1 I I 0 1 1 forward I I I I #
face $-1 $76 $77 $21 $-1 $78 forward single #
loop $-1 $79 $80 $30 #
cone-surface $-1 25.05304871323365035 6.305839582213375927 14.71215103979740846 0 0.6018150307709319025 -0.7986355043060522352 1 0 0 1 I I 0 1 1 forward I I I I #
face $-1 $81 $82 $22 $-1 $83 forward single #
loop $-1 $84 $85 $31 #
cone-surface $-1 29.13334323932427949 6.305839582213375927 14.71215103979740846 0 0.6018150307709319025 -0.7986355043060522352 1 0 0 1 I I 0 1 1 forward I I I I #
face $-1 $86 $87 $23 $-1 $88 reversed single #
loop $-1 $-1 $89 $32 #
plane-surface $-1 81.96437735567715777 -128.8093911253749866 182.4673515861173314 0 -0.6018150307709319025 0.7986355043060522352 1 0 0 forward_v I I I I #
face $-1 $90 $91 $24 $-1 $92 forward single #
loop $-1 $93 $94 $33 #
cone-surface $-1 77.88408282958651796 6.305839582213375927 14.71215103979740846 0 0.6018150307709319025 -0.7986355043060522352 1 0 0 1 I I 0 1 1 forward I I I I #
face $-1 $95 $96 $25 $-1 $97 forward single #
loop $-1 $98 $99 $34 #
cone-surface $-1 81.96437735567715777 6.305839582213375927 14.71215103979740846 0 0.6018150307709319025 -0.7986355043060522352 1 0 0 1 I I 0 1 1 forward I I I I #
face $-1 $100 $101 $26 $-1 $102 forward single #
loop $-1 $103 $104 $35 #
cone-surface $-1 86.04467188176778336 6.305839582213375927 14.71215103979740846 0 0.6018150307709319025 -0.7986355043060522352 1 0 0 1 I I 0 1 1 forward I I I I #
face $-1 $105 $106 $18 $-1 $107 reversed single #
loop $-1 $-1 $108 $36 #
plane-surface $-1 53.50871303445539695 25.6362371955109829 0 0 0 1 1 0 0 forward_v I I I I #
coedge $-1 $109 $110 $111 $112 forward $37 $-1 #
face $-1 $113 $114 $19 $-1 $115 reversed single #
loop $-1 $-1 $116 $39 #
plane-surface $-1 25.05304871323365035 -1.421085471520200372e-14 11.53151950995686548 0 -0.6018150307709319025 0.7986355043060522352 1 0 0 forward_v I I I I #
coedge $-1 $117 $118 $119 $120 forward $40 $-1 #
face $-1 $-1 $121 $20 $-1 $122 forward single #
loop $-1 $-1 $123 $42 #
plane-surface $-1 20.9727541871430212 5.550691845232198496 15.71426591382602034 0 -0.6018150307709319025 0.7986355043060522352 -1 0 -0 forward_v I I I I #
loop $-1 $-1 $124 $29 #
coedge $-1 $75 $75 $123 $125 reversed $43 $-1 #
face $-1 $-1 $126 $21 $-1 $127 forward single #
loop $-1 $-1 $128 $45 #
plane-surface $-1 25.05304871323365035 5.550691845232198496 15.71426591382602034 0 -0.6018150307709319025 0.7986355043060522352 -1 0 -0 forward_v I I I I #
loop $-1 $-1 $129 $30 #
coedge $-1 $80 $80 $128 $130 reversed $46 $-1 #
face $-1 $-1 $131 $22 $-1 $132 forward single #
loop $-1 $-1 $133 $48 #
plane-surface $-1 29.13334323932427949 5.550691845232198496 15.71426591382602034 0 -0.6018150307709319025 0.7986355043060522352 -1 0 -0 forward_v I I I I #
loop $-1 $-1 $134 $31 #
coedge $-1 $85 $85 $133 $135 reversed $49 $-1 #
face $-1 $136 $137 $23 $-1 $138 reversed single #
loop $-1 $-1 $139 $51 #
plane-surface $-1 81.96437735567715777 -1.421085471520200372e-14 11.53151950995686548 0 -0.6018150307709319025 0.7986355043060522352 1 0 0 forward_v I I I I #
coedge $-1 $140 $141 $142 $143 forward $52 $-1 #
face $-1 $-1 $144 $24 $-1 $145 forward single #
loop $-1 $-1 $146 $54 #
plane-surface $-1 77.88408282958651796 5.550691845232198496 15.71426591382602034 0 -0.6018150307709319025 0.7986355043060522352 -1 0 -0 forward_v I I I I #
loop $-1 $-1 $147 $33 #
coedge $-1 $94 $94 $146 $148 reversed $55 $-1 #
face $-1 $-1 $149 $25 $-1 $150 forward single #
loop $-1 $-1 $151 $57 #
plane-surface $-1 81.96437735567715777 5.550691845232198496 15.71426591382602034 0 -0.6018150307709319025 0.7986355043060522352 -1 0 -0 forward_v I I I I #
loop $-1 $-1 $152 $34 #
coedge $-1 $99 $99 $151 $153 reversed $58 $-1 #
face $-1 $-1 $154 $26 $-1 $155 forward single #
loop $-1 $-1 $156 $60 #
plane-surface $-1 86.04467188176778336 5.550691845232198496 15.71426591382602034 0 -0.6018150307709319025 0.7986355043060522352 -1 0 -0 forward_v I I I I #
loop $-1 $-1 $157 $35 #
coedge $-1 $104 $104 $156 $158 reversed $61 $-1 #
face $-1 $159 $160 $18 $-1 $161 reversed single #
loop $-1 $-1 $162 $63 #
plane-surface $-1 53.50871303445539695 0 9.948506158847591152 0 1 0 0 0 1 forward_v I I I I #
coedge $-1 $163 $164 $165 $166 forward $64 $-1 #
coedge $-1 $167 $66 $168 $169 forward $37 $-1 #
coedge $-1 $66 $167 $170 $171 forward $37 $-1 #
coedge $-1 $172 $173 $66 $112 reversed $174 $-1 #
edge $-1 $175 -25.6362371955109829 $176 25.6362371955109829 $111 $177 forward 7 unknown #
face $-1 $178 $179 $19 $-1 $180 reversed single #
loop $-1 $-1 $181 $67 #
plane-surface $-1 25.05304871323365035 -235.3405276388479592 -31.80995557733785972 0 0.7986355043060522352 0.6018150307709319025 0 -0.6018150307709319025 0.7986355043060522352 forward_v I I I I #
coedge $-1 $182 $183 $184 $185 forward $68 $-1 #
coedge $-1 $186 $70 $187 $188 forward $40 $-1 #
coedge $-1 $70 $186 $189 $190 forward $40 $-1 #
coedge $-1 $191 $192 $70 $120 reversed $193 $-1 #
edge $-1 $194 -214.0348521378216162 $195 214.0348521378215878 $119 $196 forward 7 unknown #
loop $-1 $197 $198 $71 #
cone-surface $-1 20.9727541871430212 7.361894834580019698 13.31071841361577235 0 0.6018150307709319025 -0.7986355043060522352 0.5 0 0 1 I I -0.7071067811865474617 0.7071067811865474617 0.5 forward I I I I #
coedge $-1 $123 $123 $75 $125 forward $72 $-1 #
coedge $-1 $124 $124 $198 $199 forward $74 $-1 #
edge $-1 $200 0 $200 6.283185307179586232 $123 $201 forward 7 unknown #
loop $-1 $202 $203 $76 #
cone-surface $-1 25.05304871323365035 7.361894834580019698 13.31071841361577235 0 0.6018150307709319025 -0.7986355043060522352 0.5 0 0 1 I I -0.7071067811865474617 0.7071067811865474617 0.5 forward I I I I #
coedge $-1 $128 $128 $80 $130 forward $77 $-1 #
coedge $-1 $129 $129 $203 $204 forward $79 $-1 #
edge $-1 $205 0 $205 6.283185307179586232 $128 $206 forward 7 unknown #
loop $-1 $207 $208 $81 #
cone-surface $-1 29.13334323932427949 7.361894834580019698 13.31071841361577235 0 0.6018150307709319025 -0.7986355043060522352 0.5 0 0 1 I I -0.7071067811865474617 0.7071067811865474617 0.5 forward I I I I #
coedge $-1 $133 $133 $85 $135 forward $82 $-1 #
coedge $-1 $134 $134 $208 $209 forward $84 $-1 #
edge $-1 $210 0 $210 6.283185307179586232 $133 $211 forward 7 unknown #
face $-1 $212 $213 $23 $-1 $214 reversed single #
loop $-1 $-1 $215 $86 #
plane-surface $-1 81.96437735567715777 -235.3405276388479592 -31.80995557733785972 0 0.7986355043060522352 0.6018150307709319025 0 -0.6018150307709319025 0.7986355043060522352 forward_v I I I I #
coedge $-1 $216 $217 $218 $219 forward $87 $-1 #
coedge $-1 $220 $89 $221 $222 forward $52 $-1 #
coedge $-1 $89 $220 $223 $224 forward $52 $-1 #
coedge $-1 $225 $226 $89 $143 reversed $227 $-1 #
edge $-1 $228 -214.0348521378216162 $229 214.0348521378215878 $142 $230 forward 7 unknown #
loop $-1 $231 $232 $90 #
cone-surface $-1 77.88408282958651796 7.361894834580019698 13.31071841361577235 0 0.6018150307709319025 -0.7986355043060522352 0.5 0 0 1 I I -0.7071067811865474617 0.7071067811865474617 0.5 forward I I I I #
coedge $-1 $146 $146 $94 $148 forward $91 $-1 #
coedge $-1 $147 $147 $232 $233 forward $93 $-1 #
edge $-1 $234 0 $234 6.283185307179586232 $146 $235 forward 7 unknown #
loop $-1 $236 $237 $95 #
cone-surface $-1 81.96437735567715777 7.361894834580019698 13.31071841361577235 0 0.6018150307709319025 -0.7986355043060522352 0.5 0 0 1 I I -0.7071067811865474617 0.7071067811865474617 0.5 forward I I I I #
coedge $-1 $151 $151 $99 $153 forward $96 $-1 #
coedge $-1 $152 $152 $237 $238 forward $98 $-1 #
edge $-1 $239 0 $239 6.283185307179586232 $151 $240 forward 7 unknown #
loop $-1 $241 $242 $100 #
cone-surface $-1 86.04467188176778336 7.361894834580019698 13.31071841361577235 0 0.6018150307709319025 -0.7986355043060522352 0.5 0 0 1 I I -0.7071067811865474617 0.7071067811865474617 0.5 forward I I I I #
coedge $-1 $156 $156 $104 $158 forward $101 $-1 #
coedge $-1 $157 $157 $242 $243 forward $103 $-1 #
edge $-1 $244 0 $244 6.283185307179586232 $156 $245 forward 7 unknown #
face $-1 $246 $247 $18 $-1 $248 reversed single #
loop $-1 $-1 $249 $105 #
plane-surface $-1 0 25.6362371955109829 9.948506158847591152 1 0 0 0 0 -1 forward_v I I I I #
coedge $-1 $250 $170 $251 $252 forward $106 $-1 #
coedge $-1 $253 $108 $250 $254 forward $64 $-1 #
coedge $-1 $108 $253 $255 $256 forward $64 $-1 #
coedge $-1 $173 $172 $108 $166 reversed $174 $-1 #
edge $-1 $257 -25.6362371955109829 $258 25.6362371955109829 $165 $259 forward 7 unknown #
coedge $-1 $110 $109 $260 $261 forward $37 $-1 #
coedge $-1 $262 $263 $109 $169 reversed $247 $-1 #
edge $-1 $176 -53.50871303445539695 $264 53.50871303445539695 $168 $265 forward 7 unknown #
coedge $-1 $162 $266 $110 $171 reversed $106 $-1 #
edge $-1 $267 -53.50871303445539695 $175 53.50871303445539695 $170 $268 forward 7 unknown #
coedge $-1 $165 $111 $266 $269 forward $174 $-1 #
coedge $-1 $111 $165 $262 $270 reversed $174 $-1 #
loop $-1 $-1 $172 $246 #
vertex $-1 $112 $271 #
vertex $-1 $112 $272 #
straight-curve $-1 107.0174260689107939 25.6362371955109829 19.8970123176951823 0 1 0 I I #
face $-1 $273 $274 $19 $-1 $275 reversed single #
loop $-1 $-1 $276 $113 #
plane-surface $-1 18.25255783641593865 -64.40469556268749329 96.99943554803709844 1 0 0 0 0.6018150307709319025 -0.7986355043060522352 forward_v I I I I #
coedge $-1 $277 $189 $278 $279 forward $114 $-1 #
coedge $-1 $280 $116 $277 $281 forward $68 $-1 #
coedge $-1 $116 $280 $282 $283 forward $68 $-1 #
coedge $-1 $192 $191 $116 $185 reversed $193 $-1 #
edge $-1 $284 -214.0348521378216162 $285 214.0348521378216162 $184 $286 forward 7 unknown #
coedge $-1 $118 $117 $287 $288 forward $40 $-1 #
coedge $-1 $289 $290 $117 $188 reversed $274 $-1 #
edge $-1 $195 -6.800490876817711694 $291 6.800490876817711694 $187 $292 forward 7 unknown #
coedge $-1 $181 $293 $118 $190 reversed $114 $-1 #
edge $-1 $294 -6.800490876817711694 $194 6.800490876817711694 $189 $295 forward 7 unknown #
coedge $-1 $184 $119 $293 $296 forward $193 $-1 #
coedge $-1 $119 $184 $289 $297 reversed $193 $-1 #
loop $-1 $-1 $191 $273 #
vertex $-1 $120 $298 #
vertex $-1 $120 $299 #
straight-curve $-1 31.85353959005136204 -128.8093911253749866 182.4673515861173314 0 0.7986355043060522352 0.6018150307709319025 I I #
loop $-1 $-1 $300 $71 #
coedge $-1 $198 $198 $124 $199 reversed $121 $-1 #
edge $-1 $301 0 $301 6.283185307179586232 $198 $302 forward 7 unknown #
vertex $-1 $125 $303 #
ellipse-curve $-1 20.9727541871430212 5.550691845232198496 15.71426591382602034 0 -0.6018150307709319025 0.7986355043060522352 1 0 0 1 I I #
loop $-1 $-1 $304 $76 #
coedge $-1 $203 $203 $129 $204 reversed $126 $-1 #
edge $-1 $305 0 $305 6.283185307179586232 $203 $306 forward 7 unknown #
vertex $-1 $130 $307 #
ellipse-curve $-1 25.05304871323365035 5.550691845232198496 15.71426591382602034 0 -0.6018150307709319025 0.7986355043060522352 1 0 0 1 I I #
loop $-1 $-1 $308 $81 #
coedge $-1 $208 $208 $134 $209 reversed $131 $-1 #
edge $-1 $309 0 $309 6.283185307179586232 $208 $310 forward 7 unknown #
vertex $-1 $135 $311 #
ellipse-curve $-1 29.13334323932427949 5.550691845232198496 15.71426591382602034 0 -0.6018150307709319025 0.7986355043060522352 1 0 0 1 I I #
face $-1 $312 $313 $23 $-1 $314 reversed single #
loop $-1 $-1 $315 $136 #
plane-surface $-1 75.16388647885943897 -64.40469556268749329 96.99943554803709844 1 0 0 0 0.6018150307709319025 -0.7986355043060522352 forward_v I I I I #
coedge $-1 $316 $223 $317 $318 forward $137 $-1 #
coedge $-1 $319 $139 $316 $320 forward $87 $-1 #
coedge $-1 $139 $319 $321 $322 forward $87 $-1 #
coedge $-1 $226 $225 $139 $219 reversed $227 $-1 #
edge $-1 $323 -214.0348521378216162 $324 214.0348521378216162 $218 $325 forward 7 unknown #
coedge $-1 $141 $140 $326 $327 forward $52 $-1 #
coedge $-1 $328 $329 $140 $222 reversed $313 $-1 #
edge $-1 $229 -6.800490876817718799 $330 6.800490876817718799 $221 $331 forward 7 unknown #
coedge $-1 $215 $332 $141 $224 reversed $137 $-1 #
edge $-1 $333 -6.800490876817718799 $228 6.800490876817718799 $223 $334 forward 7 unknown #
coedge $-1 $218 $142 $332 $335 forward $227 $-1 #
coedge $-1 $142 $218 $328 $336 reversed $227 $-1 #
loop $-1 $-1 $225 $312 #
vertex $-1 $143 $337 #
vertex $-1 $143 $338 #
straight-curve $-1 88.76486823249487657 -128.8093911253749866 182.4673515861173314 0 0.7986355043060522352 0.6018150307709319025 I I #
loop $-1 $-1 $339 $90 #
coedge $-1 $232 $232 $147 $233 reversed $144 $-1 #
edge $-1 $340 0 $340 6.283185307179586232 $232 $341 forward 7 unknown #
vertex $-1 $148 $342 #
ellipse-curve $-1 77.88408282958651796 5.550691845232198496 15.71426591382602034 0 -0.6018150307709319025 0.7986355043060522352 1 0 0 1 I I #
loop $-1 $-1 $343 $95 #
coedge $-1 $237 $237 $152 $238 reversed $149 $-1 #
edge $-1 $344 0 $344 6.283185307179586232 $237 $345 forward 7 unknown #
vertex $-1 $153 $346 #
ellipse-curve $-1 81.96437735567715777 5.550691845232198496 15.71426591382602034 0 -0.6018150307709319025 0.7986355043060522352 1 0 0 1 I I #
loop $-1 $-1 $347 $100 #
coedge $-1 $242 $242 $157 $243 reversed $154 $-1 #
edge $-1 $348 0 $348 6.283185307179586232 $242 $349 forward 7 unknown #
vertex $-1 $158 $350 #
ellipse-curve $-1 86.04467188176778336 5.550691845232198496 15.71426591382602034 0 -0.6018150307709319025 0.7986355043060522352 1 0 0 1 I I #
face $-1 $-1 $174 $18 $-1 $351 reversed single #
loop $-1 $-1 $262 $159 #
plane-surface $-1 53.50871303445539695 51.2724743910219658 9.948506158847591152 0 -1 0 0 0 -1 forward_v I I I I #
coedge $-1 $352 $260 $263 $353 forward $160 $-1 #
coedge $-1 $266 $162 $163 $254 reversed $106 $-1 #
coedge $-1 $260 $352 $162 $252 reversed $160 $-1 #
edge $-1 $267 -9.948506158847591152 $354 9.948506158847591152 $251 $355 forward 7 unknown #
coedge $-1 $164 $163 $352 $356 forward $64 $-1 #
edge $-1 $258 -53.50871303445539695 $354 53.50871303445539695 $250 $357 forward 7 unknown #
coedge $-1 $263 $262 $164 $256 reversed $247 $-1 #
edge $-1 $358 -53.50871303445539695 $257 53.50871303445539695 $255 $359 forward 7 unknown #
vertex $-1 $166 $360 #
vertex $-1 $269 $361 #
straight-curve $-1 107.0174260689107939 25.6362371955109829 0 0 -1 0 I I #
coedge $-1 $249 $251 $167 $261 reversed $160 $-1 #
edge $-1 $264 -25.6362371955109829 $267 25.6362371955109829 $260 $362 forward 7 unknown #
coedge $-1 $255 $168 $173 $270 forward $247 $-1 #
coedge $-1 $168 $255 $249 $353 reversed $247 $-1 #
vertex $-1 $169 $363 #
straight-curve $-1 53.50871303445539695 51.2724743910219658 19.8970123176951823 -1 0 0 I I #
coedge $-1 $170 $250 $172 $269 reversed $106 $-1 #
vertex $-1 $261 $364 #
straight-curve $-1 53.50871303445539695 0 19.8970123176951823 1 0 0 I I #
edge $-1 $175 -9.948506158847591152 $258 9.948506158847591152 $172 $365 forward 7 unknown #
edge $-1 $176 -9.948506158847591152 $257 9.948506158847591152 $173 $366 forward 7 unknown #
point $-1 107.0174260689107939 0 19.8970123176951823 #
point $-1 107.0174260689107939 51.2724743910219658 19.8970123176951823 #
face $-1 $-1 $193 $19 $-1 $367 reversed single #
loop $-1 $-1 $289 $178 #
plane-surface $-1 25.05304871323365035 106.5311365134729726 225.8088266734120566 0 -0.7986355043060522352 -0.6018150307709319025 0 0.6018150307709319025 -0.7986355043060522352 forward_v I I I I #
coedge $-1 $368 $287 $290 $369 forward $179 $-1 #
coedge $-1 $293 $181 $182 $281 reversed $114 $-1 #
coedge $-1 $287 $368 $181 $279 reversed $179 $-1 #
edge $-1 $294 -107.0174260689108223 $370 107.0174260689108223 $278 $371 forward 7 unknown #
coedge $-1 $183 $182 $368 $372 forward $68 $-1 #
edge $-1 $285 -6.800490876817711694 $370 6.800490876817711694 $277 $373 forward 7 unknown #
coedge $-1 $290 $289 $183 $283 reversed $274 $-1 #
edge $-1 $374 -6.800490876817711694 $284 6.800490876817711694 $282 $375 forward 7 unknown #
vertex $-1 $185 $376 #
vertex $-1 $296 $377 #
straight-curve $-1 31.85353959005136204 -1.421085471520200372e-14 11.53151950995686548 0 -0.7986355043060522352 -0.6018150307709319025 I I #
coedge $-1 $276 $278 $186 $288 reversed $179 $-1 #
edge $-1 $291 -214.0348521378215878 $294 214.0348521378216162 $287 $378 forward 7 unknown #
coedge $-1 $282 $187 $192 $297 forward $274 $-1 #
coedge $-1 $187 $282 $276 $369 reversed $274 $-1 #
vertex $-1 $188 $379 #
straight-curve $-1 25.05304871323365035 42.12644095078549356 311.2767427114922612 -1 0 0 I I #
coedge $-1 $189 $277 $191 $296 reversed $114 $-1 #
vertex $-1 $288 $380 #
straight-curve $-1 25.05304871323365035 -299.7452232015354525 53.65796046074237324 1 0 0 I I #
edge $-1 $194 -107.0174260689108223 $285 107.0174260689108223 $191 $381 forward 7 unknown #
edge $-1 $195 -107.0174260689107797 $284 107.0174260689108223 $192 $382 forward 7 unknown #
point $-1 31.85353959005136204 -299.7452232015354525 53.65796046074237324 #
point $-1 31.85353959005136204 42.12644095078549356 311.2767427114922612 #
coedge $-1 $300 $300 $-1 $383 reversed $197 $-1 #
vertex $-1 $199 $384 #
ellipse-curve $-1 20.9727541871430212 7.060987319194553358 13.71003616576879836 0 -0.6018150307709319025 0.7986355043060522352 1 0 0 1 I I #
point $-1 21.9727541871430212 5.550691845232198496 15.71426591382602034 #
coedge $-1 $304 $304 $-1 $385 reversed $202 $-1 #
vertex $-1 $204 $386 #
ellipse-curve $-1 25.05304871323365035 7.060987319194553358 13.71003616576879836 0 -0.6018150307709319025 0.7986355043060522352 1 0 0 1 I I #
point $-1 26.05304871323365035 5.550691845232198496 15.71426591382602034 #
coedge $-1 $308 $308 $-1 $387 reversed $207 $-1 #
vertex $-1 $209 $388 #
ellipse-curve $-1 29.13334323932427949 7.060987319194553358 13.71003616576879836 0 -0.6018150307709319025 0.7986355043060522352 1 0 0 1 I I #
point $-1 30.13334323932427949 5.550691845232198496 15.71426591382602034 #
face $-1 $-1 $227 $23 $-1 $389 reversed single #
loop $-1 $-1 $328 $212 #
plane-surface $-1 81.96437735567715777 106.5311365134729726 225.8088266734120566 0 -0.7986355043060522352 -0.6018150307709319025 0 0.6018150307709319025 -0.7986355043060522352 forward_v I I I I #
coedge $-1 $390 $326 $329 $391 forward $213 $-1 #
coedge $-1 $332 $215 $216 $320 reversed $137 $-1 #
coedge $-1 $326 $390 $215 $318 reversed $213 $-1 #
edge $-1 $333 -107.0174260689108223 $392 107.0174260689108223 $317 $393 forward 7 unknown #
coedge $-1 $217 $216 $390 $394 forward $87 $-1 #
edge $-1 $324 -6.800490876817718799 $392 6.800490876817718799 $316 $395 forward 7 unknown #
coedge $-1 $329 $328 $217 $322 reversed $313 $-1 #
edge $-1 $396 -6.800490876817718799 $323 6.800490876817718799 $321 $397 forward 7 unknown #
vertex $-1 $219 $398 #
vertex $-1 $335 $399 #
straight-curve $-1 88.76486823249487657 -1.421085471520200372e-14 11.53151950995686548 0 -0.7986355043060522352 -0.6018150307709319025 I I #
coedge $-1 $315 $317 $220 $327 reversed $213 $-1 #
edge $-1 $330 -214.0348521378215878 $333 214.0348521378216162 $326 $400 forward 7 unknown #
coedge $-1 $321 $221 $226 $336 forward $313 $-1 #
coedge $-1 $221 $321 $315 $391 reversed $313 $-1 #
vertex $-1 $222 $401 #
straight-curve $-1 81.96437735567715777 42.12644095078549356 311.2767427114922612 -1 0 0 I I #
coedge $-1 $223 $316 $225 $335 reversed $137 $-1 #
vertex $-1 $327 $402 #
straight-curve $-1 81.96437735567715777 -299.7452232015354525 53.65796046074237324 1 0 0 I I #
edge $-1 $228 -107.0174260689108223 $324 107.0174260689108223 $225 $403 forward 7 unknown #
edge $-1 $229 -107.0174260689107797 $323 107.0174260689108223 $226 $404 forward 7 unknown #
point $-1 88.76486823249487657 -299.7452232015354525 53.65796046074237324 #
point $-1 88.76486823249487657 42.12644095078549356 311.2767427114922612 #
coedge $-1 $339 $339 $-1 $405 reversed $231 $-1 #
vertex $-1 $233 $406 #
ellipse-curve $-1 77.88408282958651796 7.060987319194553358 13.71003616576879836 0 -0.6018150307709319025 0.7986355043060522352 1 0 0 1 I I #
point $-1 78.88408282958651796 5.550691845232198496 15.71426591382602034 #
coedge $-1 $343 $343 $-1 $407 reversed $236 $-1 #
vertex $-1 $238 $408 #
ellipse-curve $-1 81.96437735567715777 7.060987319194553358 13.71003616576879836 0 -0.6018150307709319025 0.7986355043060522352 1 0 0 1 I I #
point $-1 82.96437735567715777 5.550691845232198496 15.71426591382602034 #
coedge $-1 $347 $347 $-1 $409 reversed $241 $-1 #
vertex $-1 $243 $410 #
ellipse-curve $-1 86.04467188176778336 7.060987319194553358 13.71003616576879836 0 -0.6018150307709319025 0.7986355043060522352 1 0 0 1 I I #
point $-1 87.04467188176778336 5.550691845232198496 15.71426591382602034 #
plane-surface $-1 107.0174260689107939 25.6362371955109829 9.948506158847591152 -1 0 0 0 0 1 forward_v I I I I #
coedge $-1 $251 $249 $253 $356 reversed $160 $-1 #
edge $-1 $264 -9.948506158847591152 $358 9.948506158847591152 $263 $411 forward 7 unknown #
vertex $-1 $356 $412 #
straight-curve $-1 0 0 9.948506158847591152 0 0 -1 I I #
edge $-1 $354 -25.6362371955109829 $358 25.6362371955109829 $352 $413 forward 7 unknown #
straight-curve $-1 53.50871303445539695 0 0 -1 0 0 I I #
vertex $-1 $256 $414 #
straight-curve $-1 53.50871303445539695 51.2724743910219658 0 1 0 0 I I #
point $-1 107.0174260689107939 51.2724743910219658 0 #
point $-1 107.0174260689107939 0 0 #
straight-curve $-1 0 25.6362371955109829 19.8970123176951823 0 -1 0 I I #
point $-1 0 51.2724743910219658 19.8970123176951823 #
point $-1 0 0 19.8970123176951823 #
straight-curve $-1 107.0174260689107939 0 9.948506158847591152 0 0 -1 I I #
straight-curve $-1 107.0174260689107939 51.2724743910219658 9.948506158847591152 0 0 -1 I I #
plane-surface $-1 31.85353959005136204 -64.40469556268749329 96.99943554803709844 -1 0 0 0 -0.6018150307709319025 0.7986355043060522352 forward_v I I I I #
coedge $-1 $278 $276 $280 $372 reversed $179 $-1 #
edge $-1 $291 -107.0174260689107797 $374 107.0174260689108223 $290 $415 forward 7 unknown #
vertex $-1 $372 $416 #
straight-curve $-1 18.25255783641593865 -235.3405276388479592 -31.80995557733785972 0 0.6018150307709319025 -0.7986355043060522352 I I #
edge $-1 $370 -214.0348521378216162 $374 214.0348521378216162 $368 $417 forward 7 unknown #
straight-curve $-1 25.05304871323365035 -170.9358320761604659 -117.2778716154180927 -1 0 0 I I #
vertex $-1 $283 $418 #
straight-curve $-1 25.05304871323365035 170.9358320761604659 140.3409106353318236 1 0 0 I I #
point $-1 31.85353959005136204 170.9358320761604659 140.3409106353318236 #
point $-1 31.85353959005136204 -170.9358320761604659 -117.2778716154180927 #
straight-curve $-1 18.25255783641593865 -128.8093911253749866 182.4673515861173314 0 -0.7986355043060522352 -0.6018150307709319025 I I #
point $-1 18.25255783641593865 42.12644095078549356 311.2767427114922612 #
point $-1 18.25255783641593865 -299.7452232015354525 53.65796046074237324 #
straight-curve $-1 31.85353959005136204 -235.3405276388479592 -31.80995557733785972 0 0.6018150307709319025 -0.7986355043060522352 I I #
straight-curve $-1 31.85353959005136204 106.5311365134729726 225.8088266734120566 0 0.6018150307709319025 -0.7986355043060522352 I I #
edge $-1 $419 1 $419 0 $300 $-1 forward 7 unknown #
point $-1 21.9727541871430212 7.060987319194553358 13.71003616576879836 #
edge $-1 $420 1 $420 0 $304 $-1 forward 7 unknown #
point $-1 26.05304871323365035 7.060987319194553358 13.71003616576879836 #
edge $-1 $421 1 $421 0 $308 $-1 forward 7 unknown #
point $-1 30.13334323932427949 7.060987319194553358 13.71003616576879836 #
plane-surface $-1 88.76486823249487657 -64.40469556268749329 96.99943554803709844 -1 0 0 0 -0.6018150307709319025 0.7986355043060522352 forward_v I I I I #
coedge $-1 $317 $315 $319 $394 reversed $213 $-1 #
edge $-1 $330 -107.0174260689107797 $396 107.0174260689108223 $329 $422 forward 7 unknown #
vertex $-1 $394 $423 #
straight-curve $-1 75.16388647885943897 -235.3405276388479592 -31.80995557733785972 0 0.6018150307709319025 -0.7986355043060522352 I I #
edge $-1 $392 -214.0348521378216162 $396 214.0348521378216162 $390 $424 forward 7 unknown #
straight-curve $-1 81.96437735567715777 -170.9358320761604659 -117.2778716154180927 -1 0 0 I I #
vertex $-1 $322 $425 #
straight-curve $-1 81.96437735567715777 170.9358320761604659 140.3409106353318236 1 0 0 I I #
point $-1 88.76486823249487657 170.9358320761604659 140.3409106353318236 #
point $-1 88.76486823249487657 -170.9358320761604659 -117.2778716154180927 #
straight-curve $-1 75.16388647885943897 -128.8093911253749866 182.4673515861173314 0 -0.7986355043060522352 -0.6018150307709319025 I I #
point $-1 75.16388647885943897 42.12644095078549356 311.2767427114922612 #
point $-1 75.16388647885943897 -299.7452232015354525 53.65796046074237324 #
straight-curve $-1 88.76486823249487657 -235.3405276388479592 -31.80995557733785972 0 0.6018150307709319025 -0.7986355043060522352 I I #
straight-curve $-1 88.76486823249487657 106.5311365134729726 225.8088266734120566 0 0.6018150307709319025 -0.7986355043060522352 I I #
edge $-1 $426 1 $426 0 $339 $-1 forward 7 unknown #
point $-1 78.88408282958651796 7.060987319194553358 13.71003616576879836 #
edge $-1 $427 1 $427 0 $343 $-1 forward 7 unknown #
point $-1 82.96437735567715777 7.060987319194553358 13.71003616576879836 #
edge $-1 $428 1 $428 0 $347 $-1 forward 7 unknown #
point $-1 87.04467188176778336 7.060987319194553358 13.71003616576879836 #
straight-curve $-1 0 51.2724743910219658 9.948506158847591152 0 0 -1 I I #
point $-1 0 0 0 #
straight-curve $-1 0 25.6362371955109829 0 0 1 0 I I #
point $-1 0 51.2724743910219658 0 #
straight-curve $-1 18.25255783641593865 106.5311365134729726 225.8088266734120566 0 0.6018150307709319025 -0.7986355043060522352 I I #
point $-1 18.25255783641593865 -170.9358320761604659 -117.2778716154180927 #
straight-curve $-1 18.25255783641593865 -1.421085471520200372e-14 11.53151950995686548 0 0.7986355043060522352 0.6018150307709319025 I I #
point $-1 18.25255783641593865 170.9358320761604659 140.3409106353318236 #
vertex $-1 $383 $429 #
vertex $-1 $385 $430 #
vertex $-1 $387 $431 #
straight-curve $-1 75.16388647885943897 106.5311365134729726 225.8088266734120566 0 0.6018150307709319025 -0.7986355043060522352 I I #
point $-1 75.16388647885943897 -170.9358320761604659 -117.2778716154180927 #
straight-curve $-1 75.16388647885943897 -1.421085471520200372e-14 11.53151950995686548 0 0.7986355043060522352 0.6018150307709319025 I I #
point $-1 75.16388647885943897 170.9358320761604659 140.3409106353318236 #
vertex $-1 $405 $432 #
vertex $-1 $407 $433 #
vertex $-1 $409 $434 #
point $-1 20.9727541871430212 7.662802349965486037 12.91140066146274634 #
point $-1 25.05304871323365035 7.662802349965486037 12.91140066146274634 #
point $-1 29.13334323932427949 7.662802349965486037 12.91140066146274634 #
point $-1 77.88408282958651796 7.662802349965486037 12.91140066146274634 #
point $-1 81.96437735567715777 7.662802349965486037 12.91140066146274634 #
point $-1 86.04467188176778336 7.662802349965486037 12.91140066146274634 #
End-of-ACIS-data 