600 0 3 0           
92 GICL ACIS Healer - Source: /gicl/data5/repository/Drexel/SM99-DATA/part98.smdg.des.sat - 6 0 18 ACIS 6.0.3 Solaris 24 Sat Apr 13 20:47:24 2002 
1 9.999999999999999547e-07 1.000000000000000036e-10 
body $-1 $3 $-1 $-1 #
body $-1 $4 $-1 $-1 #
body $-1 $5 $-1 $-1 #
lump $-1 $-1 $6 $0 #
lump $-1 $-1 $7 $1 #
lump $-1 $-1 $8 $2 #
shell $-1 $-1 $-1 $9 $-1 $3 #
shell $-1 $-1 $-1 $10 $-1 $4 #
shell $-1 $-1 $-1 $11 $-1 $5 #
face $-1 $12 $13 $6 $-1 $14 forward single #
face $-1 $15 $16 $7 $-1 $17 reversed single #
face $-1 $18 $19 $8 $-1 $20 reversed single #
face $-1 $21 $22 $6 $-1 $23 reversed single #
loop $-1 $-1 $24 $9 #
plane-surface $-1 55.26535843989379515 27.06631344449854026 16.17568863973623294 0 0 1 1 0 0 forward_v I I I I #
face $-1 $25 $26 $7 $-1 $27 forward single #
loop $-1 $-1 $28 $10 #
plane-surface $-1 55.26535843989379515 2.682265554966118515 15.67568863973623294 0 0 1 1 0 0 forward_v I I I I #
face $-1 $29 $30 $8 $-1 $31 forward single #
loop $-1 $-1 $32 $11 #
plane-surface $-1 55.26535843989379515 51.45036133403095846 15.67568863973623294 0 0 1 1 0 0 forward_v I I I I #
face $-1 $33 $34 $6 $-1 $35 reversed single #
loop $-1 $-1 $36 $12 #
plane-surface $-1 55.26535843989379515 27.06631344449854026 0 0 0 1 1 0 0 forward_v I I I I #
coedge $-1 $37 $38 $39 $40 forward $13 $-1 #
face $-1 $41 $42 $7 $-1 $43 forward single #
loop $-1 $-1 $44 $15 #
plane-surface $-1 55.26535843989379515 2.682265554966118515 11.50274898579921157 0 0 1 1 0 0 forward_v I I I I #
coedge $-1 $45 $46 $47 $48 reversed $16 $-1 #
face $-1 $49 $50 $8 $-1 $51 forward single #
loop $-1 $-1 $52 $18 #
plane-surface $-1 55.26535843989379515 51.45036133403095846 11.50274898579921157 0 0 1 1 0 0 forward_v I I I I #
coedge $-1 $53 $54 $55 $56 reversed $19 $-1 #
face $-1 $57 $58 $6 $-1 $59 reversed single #
loop $-1 $-1 $60 $21 #
plane-surface $-1 55.26535843989379515 0 8.087844319868116472 0 1 0 0 0 1 forward_v I I I I #
coedge $-1 $61 $62 $63 $64 forward $22 $-1 #
coedge $-1 $65 $24 $66 $67 forward $13 $-1 #
coedge $-1 $24 $65 $68 $69 forward $13 $-1 #
coedge $-1 $70 $71 $24 $40 reversed $72 $-1 #
edge $-1 $73 -27.06631344449854026 $74 27.06631344449854026 $39 $75 forward 7 unknown #
face $-1 $76 $77 $7 $-1 $78 reversed single #
loop $-1 $-1 $79 $25 #
plane-surface $-1 55.26535843989379515 5.36453110993223703 13.58921881276772226 0 -1 0 0 0 -1 forward_v I I I I #
coedge $-1 $80 $81 $82 $83 reversed $26 $-1 #
coedge $-1 $84 $28 $85 $86 reversed $16 $-1 #
coedge $-1 $28 $84 $87 $88 reversed $16 $-1 #
coedge $-1 $89 $90 $28 $48 forward $77 $-1 #
edge $-1 $91 -14.87428949973232939 $92 -9.50975838980009236 $47 $93 forward 7 unknown #
face $-1 $94 $95 $8 $-1 $96 reversed single #
loop $-1 $-1 $97 $29 #
plane-surface $-1 55.26535843989379515 48.76809577906483639 13.58921881276772226 0 1 0 0 0 1 forward_v I I I I #
coedge $-1 $98 $99 $100 $101 reversed $30 $-1 #
coedge $-1 $102 $32 $103 $104 reversed $19 $-1 #
coedge $-1 $32 $102 $105 $106 reversed $19 $-1 #
coedge $-1 $107 $108 $32 $56 forward $109 $-1 #
edge $-1 $110 9.509758389800083478 $111 14.87428949973232761 $55 $112 forward 7 unknown #
face $-1 $113 $114 $6 $-1 $115 reversed single #
loop $-1 $-1 $116 $33 #
plane-surface $-1 0 27.06631344449854026 8.087844319868116472 1 0 0 0 0 -1 forward_v I I I I #
coedge $-1 $117 $68 $118 $119 forward $34 $-1 #
coedge $-1 $120 $36 $117 $121 forward $22 $-1 #
coedge $-1 $36 $120 $122 $123 forward $22 $-1 #
coedge $-1 $71 $70 $36 $64 reversed $72 $-1 #
edge $-1 $124 -27.06631344449854026 $125 27.06631344449854026 $63 $126 forward 7 unknown #
coedge $-1 $38 $37 $127 $128 forward $13 $-1 #
coedge $-1 $129 $130 $37 $67 reversed $114 $-1 #
edge $-1 $74 -55.26535843989379515 $131 55.26535843989379515 $66 $132 forward 7 unknown #
coedge $-1 $60 $133 $38 $69 reversed $34 $-1 #
edge $-1 $134 -55.26535843989379515 $73 55.26535843989379515 $68 $135 forward 7 unknown #
coedge $-1 $63 $39 $133 $136 forward $72 $-1 #
coedge $-1 $39 $63 $129 $137 reversed $72 $-1 #
loop $-1 $-1 $70 $113 #
vertex $-1 $40 $138 #
vertex $-1 $40 $139 #
straight-curve $-1 110.5307168797875903 27.06631344449854026 16.17568863973623294 0 1 0 I I #
face $-1 $140 $141 $7 $-1 $142 reversed single #
loop $-1 $-1 $47 $41 #
plane-surface $-1 110.5307168797875903 27.06631344449854026 8.087844319868116472 -1 0 0 0 0 1 forward_v I I I I #
coedge $-1 $87 $143 $89 $144 reversed $42 $-1 #
coedge $-1 $145 $44 $143 $146 reversed $26 $-1 #
coedge $-1 $44 $145 $147 $148 reversed $26 $-1 #
coedge $-1 $149 $89 $44 $83 forward $77 $-1 #
edge $-1 $150 9.50975838980009236 $151 14.87428949973232939 $82 $152 forward 7 unknown #
coedge $-1 $46 $45 $153 $154 reversed $16 $-1 #
coedge $-1 $155 $156 $45 $86 forward $157 $-1 #
edge $-1 $158 -55.26535843989379515 $91 55.26535843989379515 $85 $159 forward 7 unknown #
coedge $-1 $160 $79 $46 $88 forward $42 $-1 #
edge $-1 $92 -55.26535843989379515 $161 55.26535843989379515 $87 $162 forward 7 unknown #
coedge $-1 $82 $47 $79 $144 forward $77 $-1 #
coedge $-1 $47 $163 $155 $164 forward $77 $-1 #
vertex $-1 $86 $165 #
vertex $-1 $48 $166 #
straight-curve $-1 110.5307168797875903 14.87428949973232939 15.67568863973623294 0 1 0 I I #
face $-1 $167 $168 $8 $-1 $96 reversed single #
loop $-1 $-1 $169 $49 #
plane-surface $-1 55.26535843989379515 54.13262688899708053 8.087844319868116472 0 -1 0 0 0 -1 forward_v I I I I #
coedge $-1 $103 $170 $171 $172 reversed $50 $-1 #
coedge $-1 $173 $52 $169 $174 reversed $30 $-1 #
coedge $-1 $52 $173 $170 $175 reversed $30 $-1 #
coedge $-1 $108 $176 $52 $101 forward $109 $-1 #
edge $-1 $177 -14.87428949973232761 $178 -9.509758389800083478 $100 $179 forward 7 unknown #
coedge $-1 $54 $53 $180 $181 reversed $19 $-1 #
coedge $-1 $182 $97 $53 $104 forward $50 $-1 #
edge $-1 $183 -55.26535843989379515 $110 55.26535843989379515 $103 $184 forward 7 unknown #
coedge $-1 $185 $186 $54 $106 forward $168 $-1 #
edge $-1 $111 -55.26535843989379515 $187 55.26535843989379515 $105 $188 forward 7 unknown #
coedge $-1 $189 $55 $186 $190 reversed $109 $-1 #
coedge $-1 $55 $100 $182 $191 forward $109 $-1 #
loop $-1 $-1 $55 $192 #
vertex $-1 $56 $193 #
vertex $-1 $106 $194 #
straight-curve $-1 110.5307168797875903 39.25833738926475291 15.67568863973623294 0 1 0 I I #
face $-1 $-1 $72 $6 $-1 $195 reversed single #
loop $-1 $-1 $129 $57 #
plane-surface $-1 55.26535843989379515 54.13262688899708053 8.087844319868116472 0 -1 0 0 0 -1 forward_v I I I I #
coedge $-1 $196 $127 $130 $197 forward $58 $-1 #
coedge $-1 $133 $60 $61 $121 reversed $34 $-1 #
coedge $-1 $127 $196 $60 $119 reversed $58 $-1 #
edge $-1 $134 -8.087844319868116472 $198 8.087844319868116472 $118 $199 forward 7 unknown #
coedge $-1 $62 $61 $196 $200 forward $22 $-1 #
edge $-1 $125 -55.26535843989379515 $198 55.26535843989379515 $117 $201 forward 7 unknown #
coedge $-1 $130 $129 $62 $123 reversed $114 $-1 #
edge $-1 $202 -55.26535843989379515 $124 55.26535843989379515 $122 $203 forward 7 unknown #
vertex $-1 $64 $204 #
vertex $-1 $136 $205 #
straight-curve $-1 110.5307168797875903 27.06631344449854026 0 0 -1 0 I I #
coedge $-1 $116 $118 $65 $128 reversed $58 $-1 #
edge $-1 $131 -27.06631344449854026 $134 27.06631344449854026 $127 $206 forward 7 unknown #
coedge $-1 $122 $66 $71 $137 forward $114 $-1 #
coedge $-1 $66 $122 $116 $197 reversed $114 $-1 #
vertex $-1 $67 $207 #
straight-curve $-1 55.26535843989379515 54.13262688899708053 16.17568863973623294 -1 0 0 I I #
coedge $-1 $68 $117 $70 $136 reversed $34 $-1 #
vertex $-1 $128 $208 #
straight-curve $-1 55.26535843989379515 0 16.17568863973623294 1 0 0 I I #
edge $-1 $73 -8.087844319868116472 $125 8.087844319868116472 $70 $209 forward 7 unknown #
edge $-1 $74 -8.087844319868116472 $124 8.087844319868116472 $71 $210 forward 7 unknown #
point $-1 110.5307168797875903 0 16.17568863973623294 #
point $-1 110.5307168797875903 54.13262688899708053 16.17568863973623294 #
face $-1 $211 $212 $7 $-1 $213 forward single #
loop $-1 $-1 $147 $76 #
plane-surface $-1 55.26535843989379515 0 8.087844319868116472 0 1 0 0 0 1 forward_v I I I I #
coedge $-1 $79 $160 $80 $146 forward $42 $-1 #
edge $-1 $92 -4.837157073418314468 $150 -0.6642174194812930921 $89 $214 forward 7 unknown #
coedge $-1 $81 $80 $215 $216 reversed $26 $-1 #
edge $-1 $217 -55.26535843989379515 $150 55.26535843989379515 $143 $218 forward 7 unknown #
coedge $-1 $219 $220 $81 $148 forward $141 $-1 #
edge $-1 $151 -55.26535843989379515 $221 55.26535843989379515 $147 $222 forward 7 unknown #
coedge $-1 $223 $82 $220 $224 forward $77 $-1 #
vertex $-1 $83 $225 #
vertex $-1 $224 $226 #
straight-curve $-1 110.5307168797875903 14.87428949973232939 11.50274898579921157 0 -1 0 I I #
coedge $-1 $227 $228 $84 $154 forward $229 $-1 #
edge $-1 $161 9.50975838980009236 $158 14.87428949973232939 $153 $230 forward 7 unknown #
coedge $-1 $231 $85 $90 $164 reversed $157 $-1 #
coedge $-1 $85 $231 $227 $232 forward $157 $-1 #
loop $-1 $-1 $85 $233 #
vertex $-1 $154 $234 #
straight-curve $-1 55.26535843989379515 0 15.67568863973623294 1 0 0 I I #
coedge $-1 $143 $87 $228 $235 reversed $42 $-1 #
vertex $-1 $154 $236 #
straight-curve $-1 55.26535843989379515 5.36453110993223703 15.67568863973623294 -1 0 0 I I #
coedge $-1 $90 $237 $238 $239 reversed $77 $-1 #
edge $-1 $240 -8.087844319868116472 $91 -7.587844319868116472 $90 $241 forward 7 unknown #
point $-1 110.5307168797875903 0 15.67568863973623294 #
point $-1 110.5307168797875903 5.36453110993223703 15.67568863973623294 #
face $-1 $242 $243 $8 $-1 $244 reversed single #
loop $-1 $-1 $105 $94 #
coedge $-1 $245 $246 $98 $174 forward $95 $-1 #
coedge $-1 $97 $182 $99 $175 forward $50 $-1 #
coedge $-1 $247 $180 $97 $172 forward $243 $-1 #
edge $-1 $183 -4.837157073418314468 $248 -0.6642174194812930921 $171 $249 forward 7 unknown #
coedge $-1 $99 $98 $247 $250 reversed $30 $-1 #
edge $-1 $251 -55.26535843989379515 $177 55.26535843989379515 $169 $252 forward 7 unknown #
edge $-1 $178 -55.26535843989379515 $248 55.26535843989379515 $170 $253 forward 7 unknown #
coedge $-1 $100 $254 $245 $255 reversed $109 $-1 #
vertex $-1 $255 $256 #
vertex $-1 $101 $257 #
straight-curve $-1 110.5307168797875903 39.25833738926475291 11.50274898579921157 0 -1 0 I I #
coedge $-1 $171 $258 $102 $181 forward $243 $-1 #
edge $-1 $187 -14.87428949973232761 $183 -9.509758389800083478 $180 $259 forward 7 unknown #
coedge $-1 $170 $103 $108 $191 reversed $50 $-1 #
vertex $-1 $181 $260 #
straight-curve $-1 55.26535843989379515 48.76809577906483639 15.67568863973623294 1 0 0 I I #
coedge $-1 $261 $105 $258 $262 reversed $168 $-1 #
coedge $-1 $105 $261 $107 $190 forward $168 $-1 #
vertex $-1 $181 $263 #
straight-curve $-1 55.26535843989379515 54.13262688899708053 15.67568863973623294 -1 0 0 I I #
coedge $-1 $264 $107 $265 $266 reversed $109 $-1 #
edge $-1 $267 -8.087844319868116472 $111 -7.587844319868116472 $107 $268 forward 7 unknown #
edge $-1 $178 0.6642174194812930921 $110 4.837157073418314468 $108 $269 forward 7 unknown #
face $-1 $270 $109 $8 $-1 $271 reversed single #
point $-1 110.5307168797875903 48.76809577906483639 15.67568863973623294 #
point $-1 110.5307168797875903 54.13262688899708053 15.67568863973623294 #
plane-surface $-1 110.5307168797875903 27.06631344449854026 8.087844319868116472 -1 0 0 0 0 1 forward_v I I I I #
coedge $-1 $118 $116 $120 $200 reversed $58 $-1 #
edge $-1 $131 -8.087844319868116472 $202 8.087844319868116472 $130 $272 forward 7 unknown #
vertex $-1 $200 $273 #
straight-curve $-1 0 0 8.087844319868116472 0 0 -1 I I #
edge $-1 $198 -27.06631344449854026 $202 27.06631344449854026 $196 $274 forward 7 unknown #
straight-curve $-1 55.26535843989379515 0 0 -1 0 0 I I #
vertex $-1 $123 $275 #
straight-curve $-1 55.26535843989379515 54.13262688899708053 0 1 0 0 I I #
point $-1 110.5307168797875903 54.13262688899708053 0 #
point $-1 110.5307168797875903 0 0 #
straight-curve $-1 0 27.06631344449854026 16.17568863973623294 0 -1 0 I I #
point $-1 0 54.13262688899708053 16.17568863973623294 #
point $-1 0 0 16.17568863973623294 #
straight-curve $-1 110.5307168797875903 0 8.087844319868116472 0 0 -1 I I #
straight-curve $-1 110.5307168797875903 54.13262688899708053 8.087844319868116472 0 0 -1 I I #
face $-1 $233 $276 $7 $-1 $277 reversed single #
loop $-1 $-1 $238 $140 #
plane-surface $-1 55.26535843989379515 27.06631344449854026 16.17568863973623294 0 0 1 1 0 0 forward_v I I I I #
straight-curve $-1 110.5307168797875903 5.36453110993223703 10.83853156631791848 0 0 -1 I I #
coedge $-1 $228 $278 $145 $216 forward $229 $-1 #
edge $-1 $221 -14.87428949973232939 $217 -9.50975838980009236 $215 $279 forward 7 unknown #
vertex $-1 $216 $280 #
straight-curve $-1 55.26535843989379515 5.36453110993223703 11.50274898579921157 1 0 0 I I #
coedge $-1 $281 $147 $278 $282 forward $141 $-1 #
coedge $-1 $147 $281 $149 $224 reversed $141 $-1 #
vertex $-1 $282 $283 #
straight-curve $-1 55.26535843989379515 0 11.50274898579921157 -1 0 0 I I #
coedge $-1 $237 $149 $284 $285 reversed $77 $-1 #
edge $-1 $151 -3.414904665931095096 $286 8.087844319868116472 $149 $241 forward 7 unknown #
point $-1 110.5307168797875903 5.36453110993223703 11.50274898579921157 #
point $-1 110.5307168797875903 0 11.50274898579921157 #
coedge $-1 $287 $153 $156 $232 reversed $229 $-1 #
coedge $-1 $153 $215 $160 $235 forward $229 $-1 #
loop $-1 $-1 $153 $288 #
straight-curve $-1 0 14.87428949973232939 15.67568863973623294 0 -1 0 I I #
coedge $-1 $156 $155 $289 $290 reversed $157 $-1 #
edge $-1 $291 -8.087844319868116472 $158 -7.587844319868116472 $227 $292 forward 7 unknown #
face $-1 $288 $157 $7 $-1 $142 reversed single #
point $-1 0 0 15.67568863973623294 #
edge $-1 $217 0.6642174194812930921 $161 4.837157073418314468 $228 $293 forward 7 unknown #
point $-1 0 5.36453110993223703 15.67568863973623294 #
coedge $-1 $163 $223 $294 $295 reversed $77 $-1 #
coedge $-1 $296 $289 $163 $239 forward $212 $-1 #
edge $-1 $240 -27.06631344449854026 $297 27.06631344449854026 $163 $298 forward 7 unknown #
vertex $-1 $239 $299 #
straight-curve $-1 110.5307168797875903 0 8.087844319868116472 0 0 -1 I I #
face $-1 $300 $301 $8 $-1 $302 reversed single #
loop $-1 $-1 $180 $167 #
plane-surface $-1 0 27.06631344449854026 8.087844319868116472 1 0 0 0 0 -1 forward_v I I I I #
coedge $-1 $303 $169 $176 $255 forward $95 $-1 #
coedge $-1 $169 $303 $304 $305 reversed $95 $-1 #
coedge $-1 $304 $171 $173 $250 forward $243 $-1 #
vertex $-1 $250 $306 #
straight-curve $-1 0 48.76809577906483639 10.83853156631791848 0 0 -1 I I #
edge $-1 $248 9.509758389800083478 $251 14.87428949973232761 $247 $307 forward 7 unknown #
vertex $-1 $305 $308 #
straight-curve $-1 55.26535843989379515 54.13262688899708053 11.50274898579921157 1 0 0 I I #
straight-curve $-1 55.26535843989379515 48.76809577906483639 11.50274898579921157 -1 0 0 I I #
coedge $-1 $176 $309 $310 $311 reversed $109 $-1 #
edge $-1 $177 -3.414904665931095096 $312 8.087844319868116472 $176 $268 forward 7 unknown #
point $-1 110.5307168797875903 54.13262688899708053 11.50274898579921157 #
point $-1 110.5307168797875903 48.76809577906483639 11.50274898579921157 #
coedge $-1 $180 $313 $185 $262 forward $243 $-1 #
straight-curve $-1 0 39.25833738926475291 15.67568863973623294 0 -1 0 I I #
point $-1 0 48.76809577906483639 15.67568863973623294 #
coedge $-1 $186 $185 $314 $315 reversed $168 $-1 #
edge $-1 $316 -8.087844319868116472 $187 -7.587844319868116472 $185 $317 forward 7 unknown #
point $-1 0 54.13262688899708053 15.67568863973623294 #
coedge $-1 $318 $189 $319 $320 forward $109 $-1 #
coedge $-1 $314 $321 $189 $266 forward $322 $-1 #
edge $-1 $323 -27.06631344449854026 $267 27.06631344449854026 $189 $324 forward 7 unknown #
vertex $-1 $266 $325 #
straight-curve $-1 110.5307168797875903 54.13262688899708053 8.087844319868116472 0 0 -1 I I #
straight-curve $-1 110.5307168797875903 48.76809577906483639 10.83853156631791848 0 0 1 I I #
face $-1 $326 $327 $8 $-1 $328 reversed single #
plane-surface $-1 110.5307168797875903 27.06631344449854026 8.087844319868116472 -1 0 0 0 0 1 forward_v I I I I #
straight-curve $-1 0 54.13262688899708053 8.087844319868116472 0 0 -1 I I #
point $-1 0 0 0 #
straight-curve $-1 0 27.06631344449854026 0 0 1 0 I I #
point $-1 0 54.13262688899708053 0 #
loop $-1 $-1 $284 $211 #
plane-surface $-1 55.26535843989379515 27.06631344449854026 0 0 0 1 1 0 0 forward_v I I I I #
coedge $-1 $215 $329 $219 $282 reversed $229 $-1 #
straight-curve $-1 0 14.87428949973232939 11.50274898579921157 0 1 0 I I #
point $-1 0 5.36453110993223703 11.50274898579921157 #
coedge $-1 $220 $219 $330 $331 reversed $141 $-1 #
edge $-1 $221 -3.414904665931095096 $332 8.087844319868116472 $278 $292 forward 7 unknown #
point $-1 0 0 11.50274898579921157 #
coedge $-1 $330 $333 $223 $285 forward $276 $-1 #
edge $-1 $334 -27.06631344449854026 $286 27.06631344449854026 $223 $335 forward 7 unknown #
vertex $-1 $224 $336 #
coedge $-1 $337 $227 $338 $339 reversed $229 $-1 #
face $-1 $340 $229 $7 $-1 $341 reversed single #
coedge $-1 $238 $338 $231 $290 forward $212 $-1 #
edge $-1 $291 -55.26535843989379515 $240 55.26535843989379515 $231 $342 forward 7 unknown #
vertex $-1 $339 $343 #
straight-curve $-1 0 0 8.087844319868116472 0 0 -1 I I #
straight-curve $-1 0 5.36453110993223703 10.83853156631791848 0 0 1 I I #
coedge $-1 $344 $345 $237 $295 forward $346 $-1 #
edge $-1 $297 -8.087844319868116472 $334 8.087844319868116472 $237 $347 forward 7 unknown #
coedge $-1 $338 $238 $345 $348 forward $212 $-1 #
vertex $-1 $239 $349 #
straight-curve $-1 110.5307168797875903 27.06631344449854026 16.17568863973623294 0 1 0 I I #
point $-1 110.5307168797875903 0 16.17568863973623294 #
face $-1 $350 $351 $8 $-1 $352 forward single #
loop $-1 $-1 $353 $242 #
plane-surface $-1 55.26535843989379515 2.682265554966118515 15.67568863973623294 0 0 1 1 0 0 forward_v I I I I #
coedge $-1 $246 $245 $354 $355 reversed $95 $-1 #
coedge $-1 $356 $247 $246 $305 forward $243 $-1 #
edge $-1 $251 -3.414904665931095096 $357 8.087844319868116472 $246 $317 forward 7 unknown #
point $-1 0 48.76809577906483639 11.50274898579921157 #
straight-curve $-1 0 39.25833738926475291 11.50274898579921157 0 1 0 I I #
point $-1 0 54.13262688899708053 11.50274898579921157 #
coedge $-1 $254 $358 $359 $360 forward $109 $-1 #
coedge $-1 $361 $354 $254 $311 forward $362 $-1 #
edge $-1 $312 -27.06631344449854026 $363 27.06631344449854026 $254 $364 forward 7 unknown #
vertex $-1 $311 $365 #
coedge $-1 $258 $366 $367 $368 reversed $243 $-1 #
coedge $-1 $367 $265 $261 $315 forward $322 $-1 #
edge $-1 $267 -55.26535843989379515 $316 55.26535843989379515 $261 $369 forward 7 unknown #
vertex $-1 $315 $370 #
straight-curve $-1 0 54.13262688899708053 8.087844319868116472 0 0 -1 I I #
coedge $-1 $371 $264 $353 $372 forward $109 $-1 #
coedge $-1 $373 $374 $264 $320 reversed $375 $-1 #
edge $-1 $323 -8.087844319868116472 $376 -7.587844319868116472 $264 $377 forward 7 unknown #
coedge $-1 $265 $367 $373 $378 forward $322 $-1 #
loop $-1 $-1 $265 $326 #
vertex $-1 $266 $379 #
straight-curve $-1 110.5307168797875903 27.06631344449854026 16.17568863973623294 0 1 0 I I #
point $-1 110.5307168797875903 54.13262688899708053 16.17568863973623294 #
face $-1 $380 $322 $8 $-1 $381 forward single #
loop $-1 $-1 $382 $270 #
plane-surface $-1 55.26535843989379515 0 8.087844319868116472 0 1 0 0 0 1 forward_v I I I I #
coedge $-1 $278 $337 $383 $384 reversed $229 $-1 #
coedge $-1 $383 $284 $281 $331 forward $276 $-1 #
edge $-1 $286 -55.26535843989379515 $332 55.26535843989379515 $281 $385 forward 7 unknown #
vertex $-1 $384 $386 #
coedge $-1 $284 $383 $344 $387 forward $276 $-1 #
vertex $-1 $285 $388 #
straight-curve $-1 110.5307168797875903 27.06631344449854026 0 0 -1 0 I I #
point $-1 110.5307168797875903 0 0 #
coedge $-1 $329 $287 $389 $390 forward $229 $-1 #
coedge $-1 $289 $296 $287 $339 forward $212 $-1 #
edge $-1 $391 -27.06631344449854026 $291 27.06631344449854026 $287 $392 forward 7 unknown #
face $-1 $-1 $346 $7 $-1 $393 reversed single #
plane-surface $-1 0 27.06631344449854026 8.087844319868116472 1 0 0 0 0 -1 forward_v I I I I #
straight-curve $-1 55.26535843989379515 0 16.17568863973623294 1 0 0 I I #
point $-1 0 0 16.17568863973623294 #
coedge $-1 $389 $294 $333 $387 reversed $346 $-1 #
coedge $-1 $294 $389 $296 $348 reversed $346 $-1 #
loop $-1 $-1 $294 $340 #
straight-curve $-1 110.5307168797875903 54.13262688899708053 8.087844319868116472 0 0 -1 I I #
edge $-1 $297 -55.26535843989379515 $391 55.26535843989379515 $345 $394 forward 7 unknown #
point $-1 110.5307168797875903 54.13262688899708053 16.17568863973623294 #
face $-1 $192 $395 $8 $-1 $396 forward single #
loop $-1 $-1 $397 $300 #
plane-surface $-1 55.26535843989379515 2.682265554966118515 11.50274898579921157 0 0 1 1 0 0 forward_v I I I I #
coedge $-1 $398 $399 $318 $372 reversed $301 $-1 #
coedge $-1 $310 $400 $303 $355 forward $362 $-1 #
edge $-1 $357 -55.26535843989379515 $312 55.26535843989379515 $303 $401 forward 7 unknown #
coedge $-1 $402 $304 $400 $403 reversed $243 $-1 #
vertex $-1 $355 $404 #
coedge $-1 $309 $371 $397 $405 forward $109 $-1 #
coedge $-1 $382 $406 $309 $360 reversed $327 $-1 #
edge $-1 $407 -3.414904665931095096 $363 8.087844319868116472 $309 $377 forward 7 unknown #
coedge $-1 $400 $310 $406 $408 forward $362 $-1 #
loop $-1 $-1 $310 $380 #
vertex $-1 $360 $409 #
straight-curve $-1 110.5307168797875903 27.06631344449854026 0 0 -1 0 I I #
point $-1 110.5307168797875903 54.13262688899708053 0 #
coedge $-1 $313 $410 $411 $412 reversed $243 $-1 #
coedge $-1 $321 $314 $313 $368 forward $322 $-1 #
edge $-1 $316 -27.06631344449854026 $413 27.06631344449854026 $313 $414 forward 7 unknown #
straight-curve $-1 55.26535843989379515 54.13262688899708053 16.17568863973623294 -1 0 0 I I #
point $-1 0 54.13262688899708053 16.17568863973623294 #
coedge $-1 $358 $318 $415 $416 forward $109 $-1 #
edge $-1 $376 -14.87428949973232939 $417 -9.50975838980009236 $318 $418 forward 7 unknown #
coedge $-1 $411 $319 $321 $378 reversed $375 $-1 #
coedge $-1 $319 $411 $398 $419 forward $375 $-1 #
loop $-1 $-1 $374 $420 #
vertex $-1 $419 $421 #
straight-curve $-1 110.5307168797875903 0 8.087844319868116472 0 0 -1 I I #
edge $-1 $413 -55.26535843989379515 $323 55.26535843989379515 $373 $422 forward 7 unknown #
point $-1 110.5307168797875903 0 16.17568863973623294 #
face $-1 $420 $362 $8 $-1 $423 reversed single #
plane-surface $-1 55.26535843989379515 27.06631344449854026 16.17568863973623294 0 0 1 1 0 0 forward_v I I I I #
coedge $-1 $424 $359 $425 $426 forward $327 $-1 #
coedge $-1 $333 $330 $329 $384 forward $276 $-1 #
edge $-1 $332 -27.06631344449854026 $427 27.06631344449854026 $329 $428 forward 7 unknown #
straight-curve $-1 55.26535843989379515 0 0 -1 0 0 I I #
point $-1 0 0 0 #
edge $-1 $427 -55.26535843989379515 $334 55.26535843989379515 $344 $429 forward 7 unknown #
point $-1 110.5307168797875903 54.13262688899708053 0 #
coedge $-1 $345 $344 $337 $390 reversed $346 $-1 #
edge $-1 $391 -8.087844319868116472 $427 8.087844319868116472 $389 $430 forward 7 unknown #
vertex $-1 $348 $431 #
straight-curve $-1 0 27.06631344449854026 16.17568863973623294 0 -1 0 I I #
plane-surface $-1 55.26535843989379515 54.13262688899708053 8.087844319868116472 0 -1 0 0 0 -1 forward_v I I I I #
straight-curve $-1 55.26535843989379515 54.13262688899708053 16.17568863973623294 -1 0 0 I I #
loop $-1 $-1 $415 $350 #
plane-surface $-1 55.26535843989379515 5.36453110993223703 13.58921881276772226 0 -1 0 0 0 -1 forward_v I I I I #
coedge $-1 $432 $425 $358 $405 reversed $351 $-1 #
coedge $-1 $433 $353 $374 $419 reversed $301 $-1 #
coedge $-1 $353 $433 $434 $435 reversed $301 $-1 #
coedge $-1 $354 $361 $356 $403 forward $362 $-1 #
straight-curve $-1 55.26535843989379515 54.13262688899708053 0 1 0 0 I I #
coedge $-1 $436 $356 $424 $437 reversed $243 $-1 #
edge $-1 $438 -27.06631344449854026 $357 27.06631344449854026 $356 $439 forward 7 unknown #
point $-1 0 54.13262688899708053 0 #
edge $-1 $440 9.50975838980009236 $407 14.87428949973232939 $358 $441 forward 7 unknown #
coedge $-1 $359 $424 $361 $408 reversed $327 $-1 #
vertex $-1 $360 $442 #
edge $-1 $363 -55.26535843989379515 $438 55.26535843989379515 $406 $443 forward 7 unknown #
point $-1 110.5307168797875903 0 0 #
coedge $-1 $366 $444 $433 $445 forward $243 $-1 #
coedge $-1 $374 $373 $366 $412 forward $375 $-1 #
edge $-1 $413 -8.087844319868116472 $446 -7.587844319868116472 $366 $447 forward 7 unknown #
vertex $-1 $368 $448 #
straight-curve $-1 0 27.06631344449854026 16.17568863973623294 0 -1 0 I I #
coedge $-1 $434 $449 $371 $416 reversed $395 $-1 #
edge $-1 $417 -4.837157073418314468 $440 -0.6642174194812930921 $371 $450 forward 7 unknown #
vertex $-1 $372 $451 #
straight-curve $-1 110.5307168797875903 14.87428949973232939 15.67568863973623294 0 1 0 I I #
edge $-1 $446 -55.26535843989379515 $376 55.26535843989379515 $374 $452 forward 7 unknown #
face $-1 $-1 $375 $8 $-1 $328 reversed single #
point $-1 110.5307168797875903 0 15.67568863973623294 #
straight-curve $-1 55.26535843989379515 0 16.17568863973623294 1 0 0 I I #
plane-surface $-1 55.26535843989379515 27.06631344449854026 0 0 0 1 1 0 0 forward_v I I I I #
coedge $-1 $406 $382 $402 $437 forward $327 $-1 #
coedge $-1 $397 $453 $382 $426 reversed $351 $-1 #
edge $-1 $407 -55.26535843989379515 $454 55.26535843989379515 $382 $455 forward 7 unknown #
vertex $-1 $387 $456 #
straight-curve $-1 0 27.06631344449854026 0 0 1 0 I I #
straight-curve $-1 55.26535843989379515 54.13262688899708053 0 1 0 0 I I #
straight-curve $-1 0 54.13262688899708053 8.087844319868116472 0 0 -1 I I #
point $-1 0 54.13262688899708053 16.17568863973623294 #
coedge $-1 $453 $397 $449 $457 reversed $351 $-1 #
coedge $-1 $399 $398 $410 $445 reversed $301 $-1 #
coedge $-1 $458 $415 $399 $435 forward $395 $-1 #
edge $-1 $417 -55.26535843989379515 $459 55.26535843989379515 $434 $460 forward 7 unknown #
coedge $-1 $444 $402 $453 $461 forward $243 $-1 #
edge $-1 $454 -3.414904665931095096 $438 8.087844319868116472 $402 $447 forward 7 unknown #
vertex $-1 $403 $462 #
straight-curve $-1 0 27.06631344449854026 0 0 1 0 I I #
vertex $-1 $405 $463 #
straight-curve $-1 110.5307168797875903 14.87428949973232939 11.50274898579921157 0 -1 0 I I #
point $-1 110.5307168797875903 0 11.50274898579921157 #
straight-curve $-1 55.26535843989379515 0 0 -1 0 0 I I #
coedge $-1 $410 $436 $458 $464 forward $243 $-1 #
edge $-1 $459 9.50975838980009236 $446 14.87428949973232939 $410 $465 forward 7 unknown #
vertex $-1 $445 $466 #
straight-curve $-1 0 0 8.087844319868116472 0 0 -1 I I #
point $-1 0 0 16.17568863973623294 #
coedge $-1 $415 $458 $432 $457 forward $395 $-1 #
straight-curve $-1 110.5307168797875903 5.36453110993223703 10.83853156631791848 0 0 -1 I I #
point $-1 110.5307168797875903 5.36453110993223703 15.67568863973623294 #
straight-curve $-1 55.26535843989379515 0 15.67568863973623294 1 0 0 I I #
coedge $-1 $425 $432 $436 $461 reversed $351 $-1 #
vertex $-1 $437 $467 #
straight-curve $-1 55.26535843989379515 0 11.50274898579921157 -1 0 0 I I #
point $-1 0 54.13262688899708053 0 #
edge $-1 $468 -55.26535843989379515 $440 55.26535843989379515 $449 $469 forward 7 unknown #
coedge $-1 $449 $434 $444 $464 reversed $395 $-1 #
vertex $-1 $445 $470 #
straight-curve $-1 55.26535843989379515 5.36453110993223703 15.67568863973623294 -1 0 0 I I #
edge $-1 $454 -14.87428949973232939 $468 -9.50975838980009236 $436 $471 forward 7 unknown #
point $-1 0 0 0 #
point $-1 110.5307168797875903 5.36453110993223703 11.50274898579921157 #
edge $-1 $468 0.6642174194812930921 $459 4.837157073418314468 $444 $472 forward 7 unknown #
straight-curve $-1 0 14.87428949973232939 15.67568863973623294 0 -1 0 I I #
point $-1 0 0 15.67568863973623294 #
point $-1 0 0 11.50274898579921157 #
vertex $-1 $461 $473 #
straight-curve $-1 55.26535843989379515 5.36453110993223703 11.50274898579921157 1 0 0 I I #
point $-1 0 5.36453110993223703 15.67568863973623294 #
straight-curve $-1 0 14.87428949973232939 11.50274898579921157 0 1 0 I I #
straight-curve $-1 0 5.36453110993223703 10.83853156631791848 0 0 1 I I #
point $-1 0 5.36453110993223703 11.50274898579921157 #
End-of-ACIS-data 