600 0 9 0           
94 GICL ACIS Healer - Source: /gicl/data5/repository/Drexel/SM99-DATA/part126.smdg.feat.sat - 6 0 18 ACIS 6.0.3 Solaris 24 Sat Apr 13 20:45:35 2002 
1 9.999999999999999547e-07 1.000000000000000036e-10 
body $-1 $9 $-1 $-1 #
body $-1 $10 $-1 $-1 #
body $-1 $11 $-1 $-1 #
body $-1 $12 $-1 $-1 #
body $-1 $13 $-1 $-1 #
body $-1 $14 $-1 $-1 #
body $-1 $15 $-1 $-1 #
body $-1 $16 $-1 $-1 #
body $-1 $17 $-1 $-1 #
lump $-1 $-1 $18 $0 #
lump $-1 $-1 $19 $1 #
lump $-1 $-1 $20 $2 #
lump $-1 $-1 $21 $3 #
lump $-1 $-1 $22 $4 #
lump $-1 $-1 $23 $5 #
lump $-1 $-1 $24 $6 #
lump $-1 $-1 $25 $7 #
lump $-1 $-1 $26 $8 #
shell $-1 $-1 $-1 $27 $-1 $9 #
shell $-1 $-1 $-1 $28 $-1 $10 #
shell $-1 $-1 $-1 $29 $-1 $11 #
shell $-1 $-1 $-1 $30 $-1 $12 #
shell $-1 $-1 $-1 $31 $-1 $13 #
shell $-1 $-1 $-1 $32 $-1 $14 #
shell $-1 $-1 $-1 $33 $-1 $15 #
shell $-1 $-1 $-1 $34 $-1 $16 #
shell $-1 $-1 $-1 $35 $-1 $17 #
face $-1 $36 $37 $18 $-1 $38 forward single #
face $-1 $39 $40 $19 $-1 $41 forward single #
face $-1 $42 $43 $20 $-1 $44 forward single #
face $-1 $45 $46 $21 $-1 $47 forward single #
face $-1 $48 $49 $22 $-1 $50 forward single #
face $-1 $51 $52 $23 $-1 $53 forward single #
face $-1 $54 $55 $24 $-1 $56 forward single #
face $-1 $57 $58 $25 $-1 $59 forward single #
face $-1 $60 $61 $26 $-1 $62 forward single #
face $-1 $63 $64 $18 $-1 $65 reversed single #
loop $-1 $-1 $66 $27 #
plane-surface $-1 70.69063386944181104 34.71018638840407533 31.23990926177021166 0 0 1 1 0 0 forward_v I I I I #
face $-1 $67 $68 $19 $-1 $69 reversed single #
loop $-1 $-1 $70 $28 #
plane-surface $-1 70.69063386944181104 -9.642961139046803964 27.98114878833603569 0 0 1 1 0 0 forward_v I I I I #
face $-1 $71 $72 $20 $-1 $73 reversed single #
loop $-1 $-1 $74 $29 #
plane-surface $-1 70.69063386944181104 79.06333391585495463 27.98114878833603569 0 0 1 1 0 0 forward_v I I I I #
face $-1 $75 $76 $21 $-1 $77 reversed single #
loop $-1 $-1 $78 $30 #
plane-surface $-1 -162.185929523160496 23.27568866242987156 253.4709007536847594 -0.5735764437432435692 0 0.819152039112919339 0.819152039112919339 0 0.5735764437432435692 forward_v I I I I #
face $-1 $79 $80 $22 $-1 $81 forward single #
loop $-1 $82 $83 $31 #
cone-surface $-1 7.532570748949988904 21.56578878342861572 25.36558424031919401 0.5735764437432435692 0 -0.819152039112919339 0.819152039112919339 0 0.5735764437432435692 1 I I 0 1 1 forward I I I I #
face $-1 $84 $85 $23 $-1 $86 forward single #
loop $-1 $87 $88 $32 #
cone-surface $-1 7.532570748949988904 24.9855885414311274 25.36558424031919401 0.5735764437432435692 0 -0.819152039112919339 0.819152039112919339 0 0.5735764437432435692 1 I I 0 1 1 forward I I I I #
face $-1 $89 $90 $24 $-1 $91 reversed single #
loop $-1 $-1 $92 $33 #
plane-surface $-1 187.7544435013679731 23.27568866242987156 334.563865515264979 0.5735764437432435692 0 0.819152039112919339 0.819152039112919339 0 -0.5735764437432435692 forward_v I I I I #
face $-1 $93 $94 $25 $-1 $95 forward single #
loop $-1 $96 $97 $34 #
cone-surface $-1 133.8486969899336145 21.56578878342861572 25.36558424031919401 -0.5735764437432435692 0 -0.819152039112919339 0.819152039112919339 0 -0.5735764437432435692 1 I I 0 1 1 forward I I I I #
face $-1 $98 $99 $26 $-1 $100 forward single #
loop $-1 $101 $102 $35 #
cone-surface $-1 133.8486969899336145 24.9855885414311274 25.36558424031919401 -0.5735764437432435692 0 -0.819152039112919339 0.819152039112919339 0 -0.5735764437432435692 1 I I 0 1 1 forward I I I I #
face $-1 $103 $104 $18 $-1 $105 reversed single #
loop $-1 $-1 $106 $36 #
plane-surface $-1 70.69063386944181104 34.71018638840407533 0 0 0 1 1 0 0 forward_v I I I I #
coedge $-1 $107 $108 $109 $110 forward $37 $-1 #
face $-1 $111 $112 $19 $-1 $113 reversed single #
loop $-1 $-1 $114 $39 #
plane-surface $-1 70.69063386944181104 -9.642961139046803964 19.88882340539040428 0 0 1 1 0 0 forward_v I I I I #
coedge $-1 $115 $116 $117 $118 forward $40 $-1 #
face $-1 $119 $120 $20 $-1 $121 reversed single #
loop $-1 $-1 $122 $42 #
plane-surface $-1 70.69063386944181104 79.06333391585495463 19.88882340539040428 0 0 1 1 0 0 forward_v I I I I #
coedge $-1 $123 $124 $125 $126 forward $43 $-1 #
face $-1 $127 $128 $21 $-1 $129 reversed single #
loop $-1 $-1 $130 $45 #
plane-surface $-1 -1.421085471520200372e-14 23.27568866242987156 21.84539323233252617 -0.5735764437432435692 0 0.819152039112919339 0.819152039112919339 0 0.5735764437432435692 forward_v I I I I #
coedge $-1 $131 $132 $133 $134 forward $46 $-1 #
face $-1 $-1 $135 $22 $-1 $136 forward single #
loop $-1 $-1 $137 $48 #
plane-surface $-1 6.708379542028180431 21.56578878342861572 26.54265124705135648 -0.5735764437432435692 0 0.819152039112919339 -0.819152039112919339 0 -0.5735764437432435692 forward_v I I I I #
loop $-1 $-1 $138 $31 #
coedge $-1 $83 $83 $137 $139 reversed $49 $-1 #
face $-1 $-1 $140 $23 $-1 $141 forward single #
loop $-1 $-1 $142 $51 #
plane-surface $-1 6.708379542028180431 24.9855885414311274 26.54265124705135648 -0.5735764437432435692 0 0.819152039112919339 -0.819152039112919339 0 -0.5735764437432435692 forward_v I I I I #
loop $-1 $-1 $143 $32 #
coedge $-1 $88 $88 $142 $144 reversed $52 $-1 #
face $-1 $145 $146 $24 $-1 $147 reversed single #
loop $-1 $-1 $148 $54 #
plane-surface $-1 25.5685139782075197 23.27568866242987156 102.9383579939127458 0.5735764437432435692 0 0.819152039112919339 0.819152039112919339 0 -0.5735764437432435692 forward_v I I I I #
coedge $-1 $149 $150 $151 $152 forward $55 $-1 #
face $-1 $-1 $153 $25 $-1 $154 forward single #
loop $-1 $-1 $155 $57 #
plane-surface $-1 134.672888196855439 21.56578878342861572 26.54265124705135648 0.5735764437432435692 0 0.819152039112919339 -0.819152039112919339 0 0.5735764437432435692 forward_v I I I I #
loop $-1 $-1 $156 $34 #
coedge $-1 $97 $97 $155 $157 reversed $58 $-1 #
face $-1 $-1 $158 $26 $-1 $159 forward single #
loop $-1 $-1 $160 $60 #
plane-surface $-1 134.672888196855439 24.9855885414311274 26.54265124705135648 0.5735764437432435692 0 0.819152039112919339 -0.819152039112919339 0 0.5735764437432435692 forward_v I I I I #
loop $-1 $-1 $161 $35 #
coedge $-1 $102 $102 $160 $162 reversed $61 $-1 #
face $-1 $163 $164 $18 $-1 $165 reversed single #
loop $-1 $-1 $166 $63 #
plane-surface $-1 70.69063386944181104 0 15.61995463088510583 0 1 0 0 0 1 forward_v I I I I #
coedge $-1 $167 $168 $169 $170 forward $64 $-1 #
coedge $-1 $171 $66 $172 $173 forward $37 $-1 #
coedge $-1 $66 $171 $174 $175 forward $37 $-1 #
coedge $-1 $176 $177 $66 $110 reversed $178 $-1 #
edge $-1 $179 -34.71018638840407533 $180 34.71018638840407533 $109 $181 forward 7 unknown #
face $-1 $182 $183 $19 $-1 $184 reversed single #
loop $-1 $-1 $185 $67 #
plane-surface $-1 70.69063386944181104 -19.28592227809360793 23.93498609686321998 0 1 0 0 0 1 forward_v I I I I #
coedge $-1 $186 $187 $188 $189 forward $68 $-1 #
coedge $-1 $190 $70 $191 $192 forward $40 $-1 #
coedge $-1 $70 $190 $193 $194 forward $40 $-1 #
coedge $-1 $195 $196 $70 $118 reversed $197 $-1 #
edge $-1 $198 -9.642961139046803964 $199 9.642961139046803964 $117 $200 forward 7 unknown #
face $-1 $201 $202 $20 $-1 $203 reversed single #
loop $-1 $-1 $204 $71 #
plane-surface $-1 70.69063386944181104 69.42037277680815066 23.93498609686321998 0 1 0 0 0 1 forward_v I I I I #
coedge $-1 $205 $206 $207 $208 forward $72 $-1 #
coedge $-1 $209 $74 $210 $211 forward $43 $-1 #
coedge $-1 $74 $209 $212 $213 forward $43 $-1 #
coedge $-1 $214 $215 $74 $126 reversed $216 $-1 #
edge $-1 $217 -9.642961139046803964 $218 9.642961139046803964 $125 $219 forward 7 unknown #
face $-1 $220 $221 $21 $-1 $222 reversed single #
loop $-1 $-1 $223 $75 #
plane-surface $-1 -81.09296476158024802 19.28592227809360793 137.6581469930086428 0 1 0 -0.5735764437432435692 0 0.819152039112919339 forward_v I I I I #
coedge $-1 $224 $225 $226 $227 forward $76 $-1 #
coedge $-1 $228 $78 $229 $230 forward $46 $-1 #
coedge $-1 $78 $228 $231 $232 forward $46 $-1 #
coedge $-1 $233 $234 $78 $134 reversed $235 $-1 #
edge $-1 $236 -3.989766384336263627 $237 3.989766384336263627 $133 $238 forward 7 unknown #
loop $-1 $239 $240 $79 #
cone-surface $-1 8.643550177743419383 21.56578878342861572 23.77894121403057426 0.5735764437432435692 0 -0.819152039112919339 0.4095760195564596695 0 0.2867882218716217846 1 I I -0.7071067811865474617 0.7071067811865474617 0.5 forward I I I I #
coedge $-1 $137 $137 $83 $139 forward $80 $-1 #
coedge $-1 $138 $138 $240 $241 forward $82 $-1 #
edge $-1 $242 0 $242 6.283185307179586232 $137 $243 forward 7 unknown #
loop $-1 $244 $245 $84 #
cone-surface $-1 8.643550177743419383 24.9855885414311274 23.77894121403057426 0.5735764437432435692 0 -0.819152039112919339 0.4095760195564596695 0 0.2867882218716217846 1 I I -0.7071067811865474617 0.7071067811865474617 0.5 forward I I I I #
coedge $-1 $142 $142 $88 $144 forward $85 $-1 #
coedge $-1 $143 $143 $245 $246 forward $87 $-1 #
edge $-1 $247 0 $247 6.283185307179586232 $142 $248 forward 7 unknown #
face $-1 $249 $250 $24 $-1 $251 reversed single #
loop $-1 $-1 $252 $89 #
plane-surface $-1 106.6614787397877535 19.28592227809360793 218.7511117545888624 0 1 0 0.5735764437432435692 0 0.819152039112919339 forward_v I I I I #
coedge $-1 $253 $254 $255 $256 forward $90 $-1 #
coedge $-1 $257 $92 $258 $259 forward $55 $-1 #
coedge $-1 $92 $257 $260 $261 forward $55 $-1 #
coedge $-1 $262 $263 $92 $152 reversed $264 $-1 #
edge $-1 $265 -3.989766384336263627 $266 3.989766384336263627 $151 $267 forward 7 unknown #
loop $-1 $268 $269 $93 #
cone-surface $-1 132.7377175611401867 21.56578878342861572 23.77894121403057426 -0.5735764437432435692 0 -0.819152039112919339 0.4095760195564596695 0 -0.2867882218716217846 1 I I -0.7071067811865474617 0.7071067811865474617 0.5 forward I I I I #
coedge $-1 $155 $155 $97 $157 forward $94 $-1 #
coedge $-1 $156 $156 $269 $270 forward $96 $-1 #
edge $-1 $271 0 $271 6.283185307179586232 $155 $272 forward 7 unknown #
loop $-1 $273 $274 $98 #
cone-surface $-1 132.7377175611401867 24.9855885414311274 23.77894121403057426 -0.5735764437432435692 0 -0.819152039112919339 0.4095760195564596695 0 -0.2867882218716217846 1 I I -0.7071067811865474617 0.7071067811865474617 0.5 forward I I I I #
coedge $-1 $160 $160 $102 $162 forward $99 $-1 #
coedge $-1 $161 $161 $274 $275 forward $101 $-1 #
edge $-1 $276 0 $276 6.283185307179586232 $160 $277 forward 7 unknown #
face $-1 $278 $279 $18 $-1 $280 reversed single #
loop $-1 $-1 $281 $103 #
plane-surface $-1 0 34.71018638840407533 15.61995463088510583 1 0 0 0 0 -1 forward_v I I I I #
coedge $-1 $282 $174 $283 $284 forward $104 $-1 #
coedge $-1 $285 $106 $282 $286 forward $64 $-1 #
coedge $-1 $106 $285 $287 $288 forward $64 $-1 #
coedge $-1 $177 $176 $106 $170 reversed $178 $-1 #
edge $-1 $289 -34.71018638840407533 $290 34.71018638840407533 $169 $291 forward 7 unknown #
coedge $-1 $108 $107 $292 $293 forward $37 $-1 #
coedge $-1 $294 $295 $107 $173 reversed $279 $-1 #
edge $-1 $180 -70.69063386944181104 $296 70.69063386944181104 $172 $297 forward 7 unknown #
coedge $-1 $166 $298 $108 $175 reversed $104 $-1 #
edge $-1 $299 -70.69063386944181104 $179 70.69063386944181104 $174 $300 forward 7 unknown #
coedge $-1 $169 $109 $298 $301 forward $178 $-1 #
coedge $-1 $109 $169 $294 $302 reversed $178 $-1 #
loop $-1 $-1 $176 $278 #
vertex $-1 $110 $303 #
vertex $-1 $110 $304 #
straight-curve $-1 141.3812677388836221 34.71018638840407533 31.23990926177021166 0 1 0 I I #
face $-1 $305 $306 $19 $-1 $307 reversed single #
loop $-1 $-1 $308 $111 #
plane-surface $-1 0 -9.642961139046803964 23.93498609686321998 1 0 0 0 0 -1 forward_v I I I I #
coedge $-1 $309 $193 $310 $311 forward $112 $-1 #
coedge $-1 $312 $114 $309 $313 forward $68 $-1 #
coedge $-1 $114 $312 $314 $315 forward $68 $-1 #
coedge $-1 $196 $195 $114 $189 reversed $197 $-1 #
edge $-1 $316 -9.642961139046803964 $317 9.642961139046803964 $188 $318 forward 7 unknown #
coedge $-1 $116 $115 $319 $320 forward $40 $-1 #
coedge $-1 $321 $322 $115 $192 reversed $306 $-1 #
edge $-1 $199 -70.69063386944181104 $323 70.69063386944181104 $191 $324 forward 7 unknown #
coedge $-1 $185 $325 $116 $194 reversed $112 $-1 #
edge $-1 $326 -70.69063386944181104 $198 70.69063386944181104 $193 $327 forward 7 unknown #
coedge $-1 $188 $117 $325 $328 forward $197 $-1 #
coedge $-1 $117 $188 $321 $329 reversed $197 $-1 #
loop $-1 $-1 $195 $305 #
vertex $-1 $118 $330 #
vertex $-1 $118 $331 #
straight-curve $-1 141.3812677388836221 -9.642961139046803964 27.98114878833603569 0 1 0 I I #
face $-1 $332 $333 $20 $-1 $334 reversed single #
loop $-1 $-1 $335 $119 #
plane-surface $-1 0 79.06333391585495463 23.93498609686321998 1 0 0 0 0 -1 forward_v I I I I #
coedge $-1 $336 $212 $337 $338 forward $120 $-1 #
coedge $-1 $339 $122 $336 $340 forward $72 $-1 #
coedge $-1 $122 $339 $341 $342 forward $72 $-1 #
coedge $-1 $215 $214 $122 $208 reversed $216 $-1 #
edge $-1 $343 -9.642961139046803964 $344 9.642961139046803964 $207 $345 forward 7 unknown #
coedge $-1 $124 $123 $346 $347 forward $43 $-1 #
coedge $-1 $348 $349 $123 $211 reversed $333 $-1 #
edge $-1 $218 -70.69063386944181104 $350 70.69063386944181104 $210 $351 forward 7 unknown #
coedge $-1 $204 $352 $124 $213 reversed $120 $-1 #
edge $-1 $353 -70.69063386944181104 $217 70.69063386944181104 $212 $354 forward 7 unknown #
coedge $-1 $207 $125 $352 $355 forward $216 $-1 #
coedge $-1 $125 $207 $348 $356 reversed $216 $-1 #
loop $-1 $-1 $214 $332 #
vertex $-1 $126 $357 #
vertex $-1 $126 $358 #
straight-curve $-1 141.3812677388836221 79.06333391585495463 27.98114878833603569 0 1 0 I I #
face $-1 $359 $360 $21 $-1 $361 reversed single #
loop $-1 $-1 $362 $127 #
plane-surface $-1 -312.7184722829324528 23.27568866242987156 -24.52778253015182486 0.819152039112919339 0 0.5735764437432435692 0.5735764437432435692 0 -0.819152039112919339 forward_v I I I I #
coedge $-1 $363 $231 $364 $365 forward $128 $-1 #
coedge $-1 $366 $130 $363 $367 forward $76 $-1 #
coedge $-1 $130 $366 $368 $369 forward $76 $-1 #
coedge $-1 $234 $233 $130 $227 reversed $235 $-1 #
edge $-1 $370 -3.989766384336263627 $371 3.989766384336263627 $226 $372 forward 7 unknown #
coedge $-1 $132 $131 $373 $374 forward $46 $-1 #
coedge $-1 $375 $376 $131 $230 reversed $360 $-1 #
edge $-1 $237 -282.762535477767301 $377 282.7625354777671873 $229 $378 forward 7 unknown #
coedge $-1 $223 $379 $132 $232 reversed $128 $-1 #
edge $-1 $380 -282.7625354777671873 $236 282.762535477767301 $231 $381 forward 7 unknown #
coedge $-1 $226 $133 $379 $382 forward $235 $-1 #
coedge $-1 $133 $226 $375 $383 reversed $235 $-1 #
loop $-1 $-1 $233 $359 #
vertex $-1 $134 $384 #
vertex $-1 $134 $385 #
straight-curve $-1 69.43957799819176557 23.27568866242987156 415.6568302768452554 0 1 0 I I #
loop $-1 $-1 $386 $79 #
coedge $-1 $240 $240 $138 $241 reversed $135 $-1 #
edge $-1 $387 0 $387 6.283185307179586232 $240 $388 forward 7 unknown #
vertex $-1 $139 $389 #
ellipse-curve $-1 6.708379542028180431 21.56578878342861572 26.54265124705135648 -0.5735764437432435692 0 0.819152039112919339 0.819152039112919339 0 0.5735764437432435692 1 I I #
loop $-1 $-1 $390 $84 #
coedge $-1 $245 $245 $143 $246 reversed $140 $-1 #
edge $-1 $391 0 $391 6.283185307179586232 $245 $392 forward 7 unknown #
vertex $-1 $144 $393 #
ellipse-curve $-1 6.708379542028180431 24.9855885414311274 26.54265124705135648 -0.5735764437432435692 0 0.819152039112919339 0.819152039112919339 0 0.5735764437432435692 1 I I #
face $-1 $394 $395 $24 $-1 $396 reversed single #
loop $-1 $-1 $397 $145 #
plane-surface $-1 -124.9640287815644797 23.27568866242987156 380.9370412777493584 0.819152039112919339 0 -0.5735764437432435692 -0.5735764437432435692 0 -0.819152039112919339 forward_v I I I I #
coedge $-1 $398 $260 $399 $400 forward $146 $-1 #
coedge $-1 $401 $148 $398 $402 forward $90 $-1 #
coedge $-1 $148 $401 $403 $404 forward $90 $-1 #
coedge $-1 $263 $262 $148 $256 reversed $264 $-1 #
edge $-1 $405 -3.989766384336263627 $406 3.989766384336263627 $255 $407 forward 7 unknown #
coedge $-1 $150 $149 $408 $409 forward $55 $-1 #
coedge $-1 $410 $411 $149 $259 reversed $395 $-1 #
edge $-1 $266 -282.7625354777672442 $412 282.7625354777672442 $258 $413 forward 7 unknown #
coedge $-1 $252 $414 $150 $261 reversed $146 $-1 #
edge $-1 $415 -282.7625354777672442 $265 282.7625354777672442 $260 $416 forward 7 unknown #
coedge $-1 $255 $151 $414 $417 forward $264 $-1 #
coedge $-1 $151 $255 $410 $418 reversed $264 $-1 #
loop $-1 $-1 $262 $394 #
vertex $-1 $152 $419 #
vertex $-1 $152 $420 #
straight-curve $-1 419.3799510227202063 23.27568866242987156 172.3779359921045113 0 1 0 I I #
loop $-1 $-1 $421 $93 #
coedge $-1 $269 $269 $156 $270 reversed $153 $-1 #
edge $-1 $422 0 $422 6.283185307179586232 $269 $423 forward 7 unknown #
vertex $-1 $157 $424 #
ellipse-curve $-1 134.672888196855439 21.56578878342861572 26.54265124705135648 0.5735764437432435692 0 0.819152039112919339 0.819152039112919339 0 -0.5735764437432435692 1 I I #
loop $-1 $-1 $425 $98 #
coedge $-1 $274 $274 $161 $275 reversed $158 $-1 #
edge $-1 $426 0 $426 6.283185307179586232 $274 $427 forward 7 unknown #
vertex $-1 $162 $428 #
ellipse-curve $-1 134.672888196855439 24.9855885414311274 26.54265124705135648 0.5735764437432435692 0 0.819152039112919339 0.819152039112919339 0 -0.5735764437432435692 1 I I #
face $-1 $-1 $178 $18 $-1 $429 reversed single #
loop $-1 $-1 $294 $163 #
plane-surface $-1 70.69063386944181104 69.42037277680815066 15.61995463088510583 0 -1 0 0 0 -1 forward_v I I I I #
coedge $-1 $430 $292 $295 $431 forward $164 $-1 #
coedge $-1 $298 $166 $167 $286 reversed $104 $-1 #
coedge $-1 $292 $430 $166 $284 reversed $164 $-1 #
edge $-1 $299 -15.61995463088510583 $432 15.61995463088510583 $283 $433 forward 7 unknown #
coedge $-1 $168 $167 $430 $434 forward $64 $-1 #
edge $-1 $290 -70.69063386944181104 $432 70.69063386944181104 $282 $435 forward 7 unknown #
coedge $-1 $295 $294 $168 $288 reversed $279 $-1 #
edge $-1 $436 -70.69063386944181104 $289 70.69063386944181104 $287 $437 forward 7 unknown #
vertex $-1 $170 $438 #
vertex $-1 $301 $439 #
straight-curve $-1 141.3812677388836221 34.71018638840407533 0 0 -1 0 I I #
coedge $-1 $281 $283 $171 $293 reversed $164 $-1 #
edge $-1 $296 -34.71018638840407533 $299 34.71018638840407533 $292 $440 forward 7 unknown #
coedge $-1 $287 $172 $177 $302 forward $279 $-1 #
coedge $-1 $172 $287 $281 $431 reversed $279 $-1 #
vertex $-1 $173 $441 #
straight-curve $-1 70.69063386944181104 69.42037277680815066 31.23990926177021166 -1 0 0 I I #
coedge $-1 $174 $282 $176 $301 reversed $104 $-1 #
vertex $-1 $293 $442 #
straight-curve $-1 70.69063386944181104 0 31.23990926177021166 1 0 0 I I #
edge $-1 $179 -15.61995463088510583 $290 15.61995463088510583 $176 $443 forward 7 unknown #
edge $-1 $180 -15.61995463088510583 $289 15.61995463088510583 $177 $444 forward 7 unknown #
point $-1 141.3812677388836221 0 31.23990926177021166 #
point $-1 141.3812677388836221 69.42037277680815066 31.23990926177021166 #
face $-1 $-1 $197 $19 $-1 $445 reversed single #
loop $-1 $-1 $321 $182 #
plane-surface $-1 70.69063386944181104 0 23.93498609686321998 0 -1 0 0 0 -1 forward_v I I I I #
coedge $-1 $446 $319 $322 $447 forward $183 $-1 #
coedge $-1 $325 $185 $186 $313 reversed $112 $-1 #
coedge $-1 $319 $446 $185 $311 reversed $183 $-1 #
edge $-1 $326 -4.046162691472815709 $448 4.046162691472815709 $310 $449 forward 7 unknown #
coedge $-1 $187 $186 $446 $450 forward $68 $-1 #
edge $-1 $317 -70.69063386944181104 $448 70.69063386944181104 $309 $451 forward 7 unknown #
coedge $-1 $322 $321 $187 $315 reversed $306 $-1 #
edge $-1 $452 -70.69063386944181104 $316 70.69063386944181104 $314 $453 forward 7 unknown #
vertex $-1 $189 $454 #
vertex $-1 $328 $455 #
straight-curve $-1 141.3812677388836221 -9.642961139046803964 19.88882340539040428 0 -1 0 I I #
coedge $-1 $308 $310 $190 $320 reversed $183 $-1 #
edge $-1 $323 -9.642961139046803964 $326 9.642961139046803964 $319 $456 forward 7 unknown #
coedge $-1 $314 $191 $196 $329 forward $306 $-1 #
coedge $-1 $191 $314 $308 $447 reversed $306 $-1 #
vertex $-1 $192 $457 #
straight-curve $-1 70.69063386944181104 0 27.98114878833603569 -1 0 0 I I #
coedge $-1 $193 $309 $195 $328 reversed $112 $-1 #
vertex $-1 $320 $458 #
straight-curve $-1 70.69063386944181104 -19.28592227809360793 27.98114878833603569 1 0 0 I I #
edge $-1 $198 -4.046162691472815709 $317 4.046162691472815709 $195 $459 forward 7 unknown #
edge $-1 $199 -4.046162691472815709 $316 4.046162691472815709 $196 $460 forward 7 unknown #
point $-1 141.3812677388836221 -19.28592227809360793 27.98114878833603569 #
point $-1 141.3812677388836221 0 27.98114878833603569 #
face $-1 $-1 $216 $20 $-1 $461 reversed single #
loop $-1 $-1 $348 $201 #
plane-surface $-1 70.69063386944181104 88.70629505490175859 23.93498609686321998 0 -1 0 0 0 -1 forward_v I I I I #
coedge $-1 $462 $346 $349 $463 forward $202 $-1 #
coedge $-1 $352 $204 $205 $340 reversed $120 $-1 #
coedge $-1 $346 $462 $204 $338 reversed $202 $-1 #
edge $-1 $353 -4.046162691472815709 $464 4.046162691472815709 $337 $465 forward 7 unknown #
coedge $-1 $206 $205 $462 $466 forward $72 $-1 #
edge $-1 $344 -70.69063386944181104 $464 70.69063386944181104 $336 $467 forward 7 unknown #
coedge $-1 $349 $348 $206 $342 reversed $333 $-1 #
edge $-1 $468 -70.69063386944181104 $343 70.69063386944181104 $341 $469 forward 7 unknown #
vertex $-1 $208 $470 #
vertex $-1 $355 $471 #
straight-curve $-1 141.3812677388836221 79.06333391585495463 19.88882340539040428 0 -1 0 I I #
coedge $-1 $335 $337 $209 $347 reversed $202 $-1 #
edge $-1 $350 -9.642961139046803964 $353 9.642961139046803964 $346 $472 forward 7 unknown #
coedge $-1 $341 $210 $215 $356 forward $333 $-1 #
coedge $-1 $210 $341 $335 $463 reversed $333 $-1 #
vertex $-1 $211 $473 #
straight-curve $-1 70.69063386944181104 88.70629505490175859 27.98114878833603569 -1 0 0 I I #
coedge $-1 $212 $336 $214 $355 reversed $120 $-1 #
vertex $-1 $347 $474 #
straight-curve $-1 70.69063386944181104 69.42037277680815066 27.98114878833603569 1 0 0 I I #
edge $-1 $217 -4.046162691472815709 $344 4.046162691472815709 $214 $475 forward 7 unknown #
edge $-1 $218 -4.046162691472815709 $343 4.046162691472815709 $215 $476 forward 7 unknown #
point $-1 141.3812677388836221 69.42037277680815066 27.98114878833603569 #
point $-1 141.3812677388836221 88.70629505490175859 27.98114878833603569 #
face $-1 $-1 $235 $21 $-1 $477 reversed single #
loop $-1 $-1 $375 $220 #
plane-surface $-1 -81.09296476158024802 27.26545504676613518 137.6581469930086428 0 -1 0 0.5735764437432435692 0 -0.819152039112919339 forward_v I I I I #
coedge $-1 $478 $373 $376 $479 forward $221 $-1 #
coedge $-1 $379 $223 $224 $367 reversed $128 $-1 #
coedge $-1 $373 $478 $223 $365 reversed $221 $-1 #
edge $-1 $380 -141.3812677388835937 $480 141.3812677388836221 $364 $481 forward 7 unknown #
coedge $-1 $225 $224 $478 $482 forward $76 $-1 #
edge $-1 $371 -282.7625354777672442 $480 282.7625354777672442 $363 $483 forward 7 unknown #
coedge $-1 $376 $375 $225 $369 reversed $360 $-1 #
edge $-1 $484 -282.7625354777672442 $370 282.7625354777672442 $368 $485 forward 7 unknown #
vertex $-1 $227 $486 #
vertex $-1 $382 $487 #
straight-curve $-1 231.6255075213522048 23.27568866242987156 184.0313227554929938 0 -1 0 I I #
coedge $-1 $362 $364 $228 $374 reversed $221 $-1 #
edge $-1 $377 -3.989766384336263627 $380 3.989766384336263627 $373 $488 forward 7 unknown #
coedge $-1 $368 $229 $234 $383 forward $360 $-1 #
coedge $-1 $229 $368 $362 $479 reversed $360 $-1 #
vertex $-1 $230 $489 #
straight-curve $-1 -162.185929523160496 27.26545504676613518 253.4709007536847594 -0.819152039112919339 0 -0.5735764437432435692 I I #
coedge $-1 $231 $363 $233 $382 reversed $128 $-1 #
vertex $-1 $374 $490 #
straight-curve $-1 -162.185929523160496 19.28592227809360793 253.4709007536847594 0.819152039112919339 0 0.5735764437432435692 I I #
edge $-1 $236 -141.3812677388835937 $371 141.3812677388836505 $233 $491 forward 7 unknown #
edge $-1 $237 -141.3812677388835937 $370 141.3812677388836505 $234 $492 forward 7 unknown #
point $-1 69.43957799819176557 19.28592227809360793 415.6568302768452554 #
point $-1 69.43957799819176557 27.26545504676613518 415.6568302768452554 #
coedge $-1 $386 $386 $-1 $493 reversed $239 $-1 #
vertex $-1 $241 $494 #
ellipse-curve $-1 8.356761955871798264 21.56578878342861572 24.18851723358703509 -0.5735764437432435692 0 0.819152039112919339 0.819152039112919339 0 0.5735764437432435692 1 I I #
point $-1 7.527531581141099437 21.56578878342861572 27.11622769079459871 #
coedge $-1 $390 $390 $-1 $495 reversed $244 $-1 #
vertex $-1 $246 $496 #
ellipse-curve $-1 8.356761955871798264 24.9855885414311274 24.18851723358703509 -0.5735764437432435692 0 0.819152039112919339 0.819152039112919339 0 0.5735764437432435692 1 I I #
point $-1 7.527531581141099437 24.9855885414311274 27.11622769079459871 #
face $-1 $-1 $264 $24 $-1 $497 reversed single #
loop $-1 $-1 $410 $249 #
plane-surface $-1 106.6614787397877535 27.26545504676613518 218.7511117545888624 0 -1 0 -0.5735764437432435692 0 -0.819152039112919339 forward_v I I I I #
coedge $-1 $498 $408 $411 $499 forward $250 $-1 #
coedge $-1 $414 $252 $253 $402 reversed $146 $-1 #
coedge $-1 $408 $498 $252 $400 reversed $250 $-1 #
edge $-1 $415 -141.3812677388835937 $500 141.3812677388836505 $399 $501 forward 7 unknown #
coedge $-1 $254 $253 $498 $502 forward $90 $-1 #
edge $-1 $406 -282.7625354777672442 $500 282.7625354777671873 $398 $503 forward 7 unknown #
coedge $-1 $411 $410 $254 $404 reversed $395 $-1 #
edge $-1 $504 -282.7625354777671873 $405 282.7625354777672442 $403 $505 forward 7 unknown #
vertex $-1 $256 $506 #
vertex $-1 $417 $507 #
straight-curve $-1 257.1940214995597671 23.27568866242987156 -59.24757152924775028 0 -1 0 I I #
coedge $-1 $397 $399 $257 $409 reversed $250 $-1 #
edge $-1 $412 -3.989766384336263627 $415 3.989766384336263627 $408 $508 forward 7 unknown #
coedge $-1 $403 $258 $263 $418 forward $395 $-1 #
coedge $-1 $258 $403 $397 $499 reversed $395 $-1 #
vertex $-1 $259 $509 #
straight-curve $-1 187.7544435013679731 27.26545504676613518 334.563865515264979 -0.819152039112919339 0 0.5735764437432435692 I I #
coedge $-1 $260 $398 $262 $417 reversed $146 $-1 #
vertex $-1 $409 $510 #
straight-curve $-1 187.7544435013679731 19.28592227809360793 334.563865515264979 0.819152039112919339 0 -0.5735764437432435692 I I #
edge $-1 $265 -141.3812677388835937 $406 141.3812677388836505 $262 $511 forward 7 unknown #
edge $-1 $266 -141.3812677388835937 $405 141.3812677388836505 $263 $512 forward 7 unknown #
point $-1 419.3799510227202063 19.28592227809360793 172.3779359921045113 #
point $-1 419.3799510227202063 27.26545504676613518 172.3779359921045113 #
coedge $-1 $421 $421 $-1 $513 reversed $268 $-1 #
vertex $-1 $270 $514 #
ellipse-curve $-1 133.0245057830118185 21.56578878342861572 24.18851723358703509 0.5735764437432435692 0 0.819152039112919339 0.819152039112919339 0 -0.5735764437432435692 1 I I #
point $-1 135.4920402359683465 21.56578878342861572 25.96907480330811069 #
coedge $-1 $425 $425 $-1 $515 reversed $273 $-1 #
vertex $-1 $275 $516 #
ellipse-curve $-1 133.0245057830118185 24.9855885414311274 24.18851723358703509 0.5735764437432435692 0 0.819152039112919339 0.819152039112919339 0 -0.5735764437432435692 1 I I #
point $-1 135.4920402359683465 24.9855885414311274 25.96907480330811069 #
plane-surface $-1 141.3812677388836221 34.71018638840407533 15.61995463088510583 -1 0 0 0 0 1 forward_v I I I I #
coedge $-1 $283 $281 $285 $434 reversed $164 $-1 #
edge $-1 $296 -15.61995463088510583 $436 15.61995463088510583 $295 $517 forward 7 unknown #
vertex $-1 $434 $518 #
straight-curve $-1 0 0 15.61995463088510583 0 0 -1 I I #
edge $-1 $432 -34.71018638840407533 $436 34.71018638840407533 $430 $519 forward 7 unknown #
straight-curve $-1 70.69063386944181104 0 0 -1 0 0 I I #
vertex $-1 $288 $520 #
straight-curve $-1 70.69063386944181104 69.42037277680815066 0 1 0 0 I I #
point $-1 141.3812677388836221 69.42037277680815066 0 #
point $-1 141.3812677388836221 0 0 #
straight-curve $-1 0 34.71018638840407533 31.23990926177021166 0 -1 0 I I #
point $-1 0 69.42037277680815066 31.23990926177021166 #
point $-1 0 0 31.23990926177021166 #
straight-curve $-1 141.3812677388836221 0 15.61995463088510583 0 0 -1 I I #
straight-curve $-1 141.3812677388836221 69.42037277680815066 15.61995463088510583 0 0 -1 I I #
plane-surface $-1 141.3812677388836221 -9.642961139046803964 23.93498609686321998 -1 0 0 0 0 1 forward_v I I I I #
coedge $-1 $310 $308 $312 $450 reversed $183 $-1 #
edge $-1 $323 -4.046162691472815709 $452 4.046162691472815709 $322 $521 forward 7 unknown #
vertex $-1 $450 $522 #
straight-curve $-1 0 -19.28592227809360793 23.93498609686321998 0 0 -1 I I #
edge $-1 $448 -9.642961139046803964 $452 9.642961139046803964 $446 $523 forward 7 unknown #
straight-curve $-1 70.69063386944181104 -19.28592227809360793 19.88882340539040428 -1 0 0 I I #
vertex $-1 $315 $524 #
straight-curve $-1 70.69063386944181104 0 19.88882340539040428 1 0 0 I I #
point $-1 141.3812677388836221 0 19.88882340539040428 #
point $-1 141.3812677388836221 -19.28592227809360793 19.88882340539040428 #
straight-curve $-1 0 -9.642961139046803964 27.98114878833603569 0 -1 0 I I #
point $-1 0 0 27.98114878833603569 #
point $-1 0 -19.28592227809360793 27.98114878833603569 #
straight-curve $-1 141.3812677388836221 -19.28592227809360793 23.93498609686321998 0 0 -1 I I #
straight-curve $-1 141.3812677388836221 0 23.93498609686321998 0 0 -1 I I #
plane-surface $-1 141.3812677388836221 79.06333391585495463 23.93498609686321998 -1 0 0 0 0 1 forward_v I I I I #
coedge $-1 $337 $335 $339 $466 reversed $202 $-1 #
edge $-1 $350 -4.046162691472815709 $468 4.046162691472815709 $349 $525 forward 7 unknown #
vertex $-1 $466 $526 #
straight-curve $-1 0 69.42037277680815066 23.93498609686321998 0 0 -1 I I #
edge $-1 $464 -9.642961139046803964 $468 9.642961139046803964 $462 $527 forward 7 unknown #
straight-curve $-1 70.69063386944181104 69.42037277680815066 19.88882340539040428 -1 0 0 I I #
vertex $-1 $342 $528 #
straight-curve $-1 70.69063386944181104 88.70629505490175859 19.88882340539040428 1 0 0 I I #
point $-1 141.3812677388836221 88.70629505490175859 19.88882340539040428 #
point $-1 141.3812677388836221 69.42037277680815066 19.88882340539040428 #
straight-curve $-1 0 79.06333391585495463 27.98114878833603569 0 -1 0 I I #
point $-1 0 88.70629505490175859 27.98114878833603569 #
point $-1 0 69.42037277680815066 27.98114878833603569 #
straight-curve $-1 141.3812677388836221 69.42037277680815066 23.93498609686321998 0 0 -1 I I #
straight-curve $-1 141.3812677388836221 88.70629505490175859 23.93498609686321998 0 0 -1 I I #
plane-surface $-1 150.5325427597719852 23.27568866242987156 299.8440765161691388 -0.819152039112919339 0 -0.5735764437432435692 -0.5735764437432435692 0 0.819152039112919339 forward_v I I I I #
coedge $-1 $364 $362 $366 $482 reversed $221 $-1 #
edge $-1 $377 -141.3812677388835937 $484 141.3812677388836221 $376 $529 forward 7 unknown #
vertex $-1 $482 $530 #
straight-curve $-1 -312.7184722829324528 19.28592227809360793 -24.52778253015182486 0.5735764437432435692 0 -0.819152039112919339 I I #
edge $-1 $480 -3.989766384336263627 $484 3.989766384336263627 $478 $531 forward 7 unknown #
straight-curve $-1 -1.421085471520200372e-14 19.28592227809360793 21.84539323233252617 -0.819152039112919339 0 -0.5735764437432435692 I I #
vertex $-1 $369 $532 #
straight-curve $-1 -1.421085471520200372e-14 27.26545504676613518 21.84539323233252617 0.819152039112919339 0 0.5735764437432435692 I I #
point $-1 231.6255075213522048 27.26545504676613518 184.0313227554929938 #
point $-1 231.6255075213522048 19.28592227809360793 184.0313227554929938 #
straight-curve $-1 -393.8114370445126724 23.27568866242987156 91.28497123052429174 0 -1 0 I I #
point $-1 -393.8114370445126724 27.26545504676613518 91.28497123052429174 #
point $-1 -393.8114370445126724 19.28592227809360793 91.28497123052429174 #
straight-curve $-1 150.5325427597719852 19.28592227809360793 299.8440765161691388 0.5735764437432435692 0 -0.819152039112919339 I I #
straight-curve $-1 150.5325427597719852 27.26545504676613518 299.8440765161691388 0.5735764437432435692 0 -0.819152039112919339 I I #
edge $-1 $533 1 $533 0 $386 $-1 forward 7 unknown #
point $-1 9.175913994984716382 21.56578878342861572 24.76209367733027733 #
edge $-1 $534 1 $534 0 $390 $-1 forward 7 unknown #
point $-1 9.175913994984716382 24.9855885414311274 24.76209367733027733 #
plane-surface $-1 338.2869862611399867 23.27568866242987156 56.56518223142839474 -0.819152039112919339 0 0.5735764437432435692 0.5735764437432435692 0 0.819152039112919339 forward_v I I I I #
coedge $-1 $399 $397 $401 $502 reversed $250 $-1 #
edge $-1 $412 -141.3812677388835937 $504 141.3812677388836505 $411 $535 forward 7 unknown #
vertex $-1 $502 $536 #
straight-curve $-1 -124.9640287815644797 19.28592227809360793 380.9370412777493584 -0.5735764437432435692 0 -0.819152039112919339 I I #
edge $-1 $500 -3.989766384336263627 $504 3.989766384336263627 $498 $537 forward 7 unknown #
straight-curve $-1 25.5685139782075197 19.28592227809360793 102.9383579939127458 -0.819152039112919339 0 0.5735764437432435692 I I #
vertex $-1 $404 $538 #
straight-curve $-1 25.5685139782075197 27.26545504676613518 102.9383579939127458 0.819152039112919339 0 -0.5735764437432435692 I I #
point $-1 257.1940214995597671 27.26545504676613518 -59.24757152924775028 #
point $-1 257.1940214995597671 19.28592227809360793 -59.24757152924775028 #
straight-curve $-1 -43.87106401998426009 23.27568866242987156 496.749795038425475 0 -1 0 I I #
point $-1 -43.87106401998426009 27.26545504676613518 496.749795038425475 #
point $-1 -43.87106401998426009 19.28592227809360793 496.749795038425475 #
straight-curve $-1 338.2869862611399867 19.28592227809360793 56.56518223142839474 -0.5735764437432435692 0 -0.819152039112919339 I I #
straight-curve $-1 338.2869862611399867 27.26545504676613518 56.56518223142839474 -0.5735764437432435692 0 -0.819152039112919339 I I #
edge $-1 $539 1 $539 0 $421 $-1 forward 7 unknown #
point $-1 133.843657822124726 21.56578878342861572 23.6149407898437893 #
edge $-1 $540 1 $540 0 $425 $-1 forward 7 unknown #
point $-1 133.843657822124726 24.9855885414311274 23.6149407898437893 #
straight-curve $-1 0 69.42037277680815066 15.61995463088510583 0 0 -1 I I #
point $-1 0 0 0 #
straight-curve $-1 0 34.71018638840407533 0 0 1 0 I I #
point $-1 0 69.42037277680815066 0 #
straight-curve $-1 0 0 23.93498609686321998 0 0 -1 I I #
point $-1 0 -19.28592227809360793 19.88882340539040428 #
straight-curve $-1 0 -9.642961139046803964 19.88882340539040428 0 1 0 I I #
point $-1 0 0 19.88882340539040428 #
straight-curve $-1 0 88.70629505490175859 23.93498609686321998 0 0 -1 I I #
point $-1 0 69.42037277680815066 19.88882340539040428 #
straight-curve $-1 0 79.06333391585495463 19.88882340539040428 0 1 0 I I #
point $-1 0 88.70629505490175859 19.88882340539040428 #
straight-curve $-1 -312.7184722829324528 27.26545504676613518 -24.52778253015182486 0.5735764437432435692 0 -0.819152039112919339 I I #
point $-1 -231.6255075213522616 19.28592227809360793 -140.3405362908279699 #
straight-curve $-1 -231.6255075213522616 23.27568866242987156 -140.3405362908279699 0 1 0 I I #
point $-1 -231.6255075213522616 27.26545504676613518 -140.3405362908279699 #
vertex $-1 $493 $541 #
vertex $-1 $495 $542 #
straight-curve $-1 -124.9640287815644797 27.26545504676613518 380.9370412777493584 -0.5735764437432435692 0 -0.819152039112919339 I I #
point $-1 -206.0569935431446993 19.28592227809360793 265.124287517073185 #
straight-curve $-1 -206.0569935431446993 23.27568866242987156 265.124287517073185 0 1 0 I I #
point $-1 -206.0569935431446993 27.26545504676613518 265.124287517073185 #
vertex $-1 $513 $543 #
vertex $-1 $515 $544 #
point $-1 8.930338399615040501 21.56578878342861572 23.36936519447411342 #
point $-1 8.930338399615040501 24.9855885414311274 23.36936519447411342 #
point $-1 132.4509293392685549 21.56578878342861572 23.36936519447411342 #
point $-1 132.4509293392685549 24.9855885414311274 23.36936519447411342 #
End-of-ACIS-data 