600 0 14 0           
94 GICL ACIS Healer - Source: /gicl/data5/repository/Drexel/SM99-DATA/part99.smdg.delta.sat - 6 0 18 ACIS 6.0.3 Solaris 24 Sat Apr 13 20:47:27 2002 
1 9.999999999999999547e-07 1.000000000000000036e-10 
body $-1 $14 $-1 $-1 #
body $-1 $15 $-1 $-1 #
body $-1 $16 $-1 $-1 #
body $-1 $17 $-1 $-1 #
body $-1 $18 $-1 $-1 #
body $-1 $19 $-1 $-1 #
body $-1 $20 $-1 $-1 #
body $-1 $21 $-1 $-1 #
body $-1 $22 $-1 $-1 #
body $-1 $23 $-1 $-1 #
body $-1 $24 $-1 $-1 #
body $-1 $25 $-1 $-1 #
body $-1 $26 $-1 $-1 #
body $-1 $27 $-1 $-1 #
lump $-1 $-1 $28 $0 #
lump $-1 $-1 $29 $1 #
lump $-1 $-1 $30 $2 #
lump $-1 $-1 $31 $3 #
lump $-1 $-1 $32 $4 #
lump $-1 $-1 $33 $5 #
lump $-1 $-1 $34 $6 #
lump $-1 $-1 $35 $7 #
lump $-1 $-1 $36 $8 #
lump $-1 $-1 $37 $9 #
lump $-1 $-1 $38 $10 #
lump $-1 $-1 $39 $11 #
lump $-1 $-1 $40 $12 #
lump $-1 $-1 $41 $13 #
shell $-1 $-1 $-1 $42 $-1 $14 #
shell $-1 $-1 $-1 $43 $-1 $15 #
shell $-1 $-1 $-1 $44 $-1 $16 #
shell $-1 $-1 $-1 $45 $-1 $17 #
shell $-1 $-1 $-1 $46 $-1 $18 #
shell $-1 $-1 $-1 $47 $-1 $19 #
shell $-1 $-1 $-1 $48 $-1 $20 #
shell $-1 $-1 $-1 $49 $-1 $21 #
shell $-1 $-1 $-1 $50 $-1 $22 #
shell $-1 $-1 $-1 $51 $-1 $23 #
shell $-1 $-1 $-1 $52 $-1 $24 #
shell $-1 $-1 $-1 $53 $-1 $25 #
shell $-1 $-1 $-1 $54 $-1 $26 #
shell $-1 $-1 $-1 $55 $-1 $27 #
face $-1 $56 $57 $28 $-1 $58 forward single #
face $-1 $59 $60 $29 $-1 $61 reversed single #
face $-1 $62 $63 $30 $-1 $64 reversed single #
face $-1 $65 $66 $31 $-1 $67 forward single #
face $-1 $68 $69 $32 $-1 $70 forward single #
face $-1 $71 $72 $33 $-1 $73 forward single #
face $-1 $74 $75 $34 $-1 $76 reversed single #
face $-1 $77 $78 $35 $-1 $79 forward single #
face $-1 $80 $81 $36 $-1 $82 reversed single #
face $-1 $83 $84 $37 $-1 $85 forward single #
face $-1 $86 $87 $38 $-1 $88 reversed single #
face $-1 $89 $90 $39 $-1 $91 forward single #
face $-1 $92 $93 $40 $-1 $94 reversed single #
face $-1 $95 $96 $41 $-1 $97 forward single #
face $-1 $98 $99 $28 $-1 $100 reversed single #
loop $-1 $-1 $101 $42 #
plane-surface $-1 65.49150059511093502 26.87476015967043708 21.48816160549545629 0 0 1 1 0 0 forward_v I I I I #
face $-1 $102 $103 $29 $-1 $104 reversed single #
loop $-1 $-1 $105 $43 #
plane-surface $-1 18.48816160549545629 4.831452502052410836 10.74408080274772814 1 0 0 0 0 -1 forward_v I I I I #
face $-1 $106 $107 $30 $-1 $108 reversed single #
loop $-1 $-1 $109 $44 #
plane-surface $-1 -82.43027455349489685 22.7211296249211685 119.8098135912057529 0 1 0 -0.6293203988644634483 0 0.7771459551288114609 forward_v I I I I #
face $-1 $110 $111 $31 $-1 $112 forward single #
loop $-1 $113 $114 $45 #
cone-surface $-1 2.971818411436252916 25.28063003169048883 18.7294262253963133 0.6293203988644634483 0 -0.7771459551288114609 0.7771459551288114609 0 0.6293203988644634483 1 I I 0 1 1 forward I I I I #
face $-1 $115 $116 $32 $-1 $117 forward single #
loop $-1 $118 $119 $46 #
cone-surface $-1 2.971818411436252916 29.11988064184446401 18.7294262253963133 0.6293203988644634483 0 -0.7771459551288114609 0.7771459551288114609 0 0.6293203988644634483 1 I I 0 1 1 forward I I I I #
face $-1 $120 $121 $33 $-1 $122 forward single #
loop $-1 $123 $124 $47 #
cone-surface $-1 2.971818411436252916 32.95913125199843563 18.7294262253963133 0.6293203988644634483 0 -0.7771459551288114609 0.7771459551288114609 0 0.6293203988644634483 1 I I 0 1 1 forward I I I I #
face $-1 $125 $126 $34 $-1 $127 reversed single #
loop $-1 $-1 $128 $48 #
plane-surface $-1 105.2028648709111849 20.68455883291383302 196.4159958765968668 0 -1 0 -0.6018150307709319025 0 -0.7986355043060522352 forward_v I I I I #
face $-1 $129 $130 $35 $-1 $131 forward single #
loop $-1 $132 $133 $49 #
cone-surface $-1 124.6628004557458098 17.23192817912128305 16.33823384525481259 -0.6018150307709319025 0 -0.7986355043060522352 0.7986355043060522352 0 -0.6018150307709319025 1 I I 0 1 1 forward I I I I #
face $-1 $134 $135 $36 $-1 $136 reversed single #
loop $-1 $-1 $137 $50 #
plane-surface $-1 105.2028648709111849 30.33408182131487152 196.4159958765968668 0 -1 0 -0.6018150307709319025 0 -0.7986355043060522352 forward_v I I I I #
face $-1 $138 $139 $37 $-1 $140 forward single #
loop $-1 $141 $142 $51 #
cone-surface $-1 124.6628004557458098 26.88145116752232155 16.33823384525481259 -0.6018150307709319025 0 -0.7986355043060522352 0.7986355043060522352 0 -0.6018150307709319025 1 I I 0 1 1 forward I I I I #
face $-1 $143 $144 $38 $-1 $145 reversed single #
loop $-1 $-1 $146 $52 #
plane-surface $-1 105.2028648709111849 39.98360480971591358 196.4159958765968668 0 -1 0 -0.6018150307709319025 0 -0.7986355043060522352 forward_v I I I I #
face $-1 $147 $148 $39 $-1 $149 forward single #
loop $-1 $150 $151 $53 #
cone-surface $-1 124.6628004557458098 36.53097415592336006 16.33823384525481259 -0.6018150307709319025 0 -0.7986355043060522352 0.7986355043060522352 0 -0.6018150307709319025 1 I I 0 1 1 forward I I I I #
face $-1 $152 $153 $40 $-1 $154 reversed single #
loop $-1 $-1 $155 $54 #
plane-surface $-1 105.2028648709111849 49.63312779811694497 196.4159958765968668 0 -1 0 -0.6018150307709319025 0 -0.7986355043060522352 forward_v I I I I #
face $-1 $156 $157 $41 $-1 $158 forward single #
loop $-1 $159 $160 $55 #
cone-surface $-1 124.6628004557458098 46.18049714432439856 16.33823384525481259 -0.6018150307709319025 0 -0.7986355043060522352 0.7986355043060522352 0 -0.6018150307709319025 1 I I 0 1 1 forward I I I I #
face $-1 $161 $162 $28 $-1 $163 reversed single #
loop $-1 $-1 $164 $56 #
plane-surface $-1 65.49150059511093502 26.87476015967043708 0 0 0 1 1 0 0 forward_v I I I I #
coedge $-1 $165 $166 $167 $168 forward $57 $-1 #
face $-1 $169 $170 $29 $-1 $171 reversed single #
loop $-1 $-1 $172 $59 #
plane-surface $-1 19.98816160549545629 9.662905004104821671 10.74408080274772814 0 -1 0 0 0 -1 forward_v I I I I #
coedge $-1 $173 $174 $175 $176 forward $60 $-1 #
face $-1 $177 $178 $30 $-1 $179 reversed single #
loop $-1 $-1 $180 $62 #
plane-surface $-1 0 29.11988064184446046 18.01690402559254878 -0.6293203988644634483 0 0.7771459551288114609 0.7771459551288114609 0 0.6293203988644634483 forward_v I I I I #
coedge $-1 $181 $182 $183 $184 reversed $63 $-1 #
face $-1 $-1 $185 $31 $-1 $186 forward single #
loop $-1 $187 $188 $65 #
cone-surface $-1 4.114974008860848187 25.28063003169048883 17.31774665768422494 0.6293203988644634483 0 -0.7771459551288114609 0.3885729775644057304 0 0.3146601994322317242 1 I I -0.7071067811865474617 0.7071067811865474617 0.5 forward I I I I #
loop $-1 $-1 $189 $45 #
coedge $-1 $114 $114 $190 $191 reversed $66 $-1 #
face $-1 $-1 $192 $32 $-1 $193 forward single #
loop $-1 $194 $195 $68 #
cone-surface $-1 4.114974008860848187 29.11988064184446401 17.31774665768422494 0.6293203988644634483 0 -0.7771459551288114609 0.3885729775644057304 0 0.3146601994322317242 1 I I -0.7071067811865474617 0.7071067811865474617 0.5 forward I I I I #
loop $-1 $-1 $196 $46 #
coedge $-1 $119 $119 $197 $198 reversed $69 $-1 #
face $-1 $-1 $199 $33 $-1 $200 forward single #
loop $-1 $201 $202 $71 #
cone-surface $-1 4.114974008860848187 32.95913125199843563 17.31774665768422494 0.6293203988644634483 0 -0.7771459551288114609 0.3885729775644057304 0 0.3146601994322317242 1 I I -0.7071067811865474617 0.7071067811865474617 0.5 forward I I I I #
loop $-1 $-1 $203 $47 #
coedge $-1 $124 $124 $204 $205 reversed $72 $-1 #
face $-1 $206 $207 $34 $-1 $208 reversed single #
loop $-1 $-1 $209 $74 #
plane-surface $-1 26.37532597914879773 17.23192817912128305 91.80832066552378024 0.6018150307709319025 0 0.7986355043060522352 0.7986355043060522352 0 -0.6018150307709319025 forward_v I I I I #
coedge $-1 $210 $211 $212 $213 reversed $75 $-1 #
face $-1 $-1 $214 $35 $-1 $215 forward single #
loop $-1 $216 $217 $77 #
cone-surface $-1 123.6865292694721461 17.23192817912128305 15.04267824872817982 -0.6018150307709319025 0 -0.7986355043060522352 0.3993177521530261176 0 -0.3009075153854659512 1 I I -0.7071067811865474617 0.7071067811865474617 0.5 forward I I I I #
loop $-1 $-1 $218 $49 #
coedge $-1 $133 $133 $219 $220 reversed $78 $-1 #
face $-1 $221 $222 $36 $-1 $223 reversed single #
loop $-1 $-1 $224 $80 #
plane-surface $-1 26.37532597914879773 26.88145116752232155 91.80832066552378024 0.6018150307709319025 0 0.7986355043060522352 0.7986355043060522352 0 -0.6018150307709319025 forward_v I I I I #
coedge $-1 $225 $226 $227 $228 reversed $81 $-1 #
face $-1 $-1 $229 $37 $-1 $230 forward single #
loop $-1 $231 $232 $83 #
cone-surface $-1 123.6865292694721461 26.88145116752232155 15.04267824872817982 -0.6018150307709319025 0 -0.7986355043060522352 0.3993177521530261176 0 -0.3009075153854659512 1 I I -0.7071067811865474617 0.7071067811865474617 0.5 forward I I I I #
loop $-1 $-1 $233 $51 #
coedge $-1 $142 $142 $234 $235 reversed $84 $-1 #
face $-1 $236 $237 $38 $-1 $238 reversed single #
loop $-1 $-1 $239 $86 #
plane-surface $-1 26.37532597914879773 36.53097415592336006 91.80832066552378024 0.6018150307709319025 0 0.7986355043060522352 0.7986355043060522352 0 -0.6018150307709319025 forward_v I I I I #
coedge $-1 $240 $241 $242 $243 reversed $87 $-1 #
face $-1 $-1 $244 $39 $-1 $245 forward single #
loop $-1 $246 $247 $89 #
cone-surface $-1 123.6865292694721461 36.53097415592336006 15.04267824872817982 -0.6018150307709319025 0 -0.7986355043060522352 0.3993177521530261176 0 -0.3009075153854659512 1 I I -0.7071067811865474617 0.7071067811865474617 0.5 forward I I I I #
loop $-1 $-1 $248 $53 #
coedge $-1 $151 $151 $249 $250 reversed $90 $-1 #
face $-1 $251 $252 $40 $-1 $253 reversed single #
loop $-1 $-1 $254 $92 #
plane-surface $-1 26.37532597914879773 46.18049714432439856 91.80832066552378024 0.6018150307709319025 0 0.7986355043060522352 0.7986355043060522352 0 -0.6018150307709319025 forward_v I I I I #
coedge $-1 $255 $256 $257 $258 reversed $93 $-1 #
face $-1 $-1 $259 $41 $-1 $260 forward single #
loop $-1 $261 $262 $95 #
cone-surface $-1 123.6865292694721461 46.18049714432439856 15.04267824872817982 -0.6018150307709319025 0 -0.7986355043060522352 0.3993177521530261176 0 -0.3009075153854659512 1 I I -0.7071067811865474617 0.7071067811865474617 0.5 forward I I I I #
loop $-1 $-1 $263 $55 #
coedge $-1 $160 $160 $264 $265 reversed $96 $-1 #
face $-1 $266 $267 $28 $-1 $268 reversed single #
loop $-1 $-1 $269 $98 #
plane-surface $-1 65.49150059511093502 0 10.74408080274772814 0 1 0 0 0 1 forward_v I I I I #
coedge $-1 $270 $271 $272 $273 forward $99 $-1 #
coedge $-1 $274 $101 $275 $276 forward $57 $-1 #
coedge $-1 $101 $274 $277 $278 forward $57 $-1 #
coedge $-1 $279 $280 $101 $168 reversed $281 $-1 #
edge $-1 $282 -26.87476015967043708 $283 26.87476015967043708 $167 $284 forward 7 unknown #
face $-1 $285 $286 $29 $-1 $287 forward single #
loop $-1 $-1 $288 $102 #
plane-surface $-1 21.48816160549545629 4.831452502052410836 10.74408080274772814 -1 0 0 0 0 1 forward_v I I I I #
coedge $-1 $289 $290 $291 $292 forward $103 $-1 #
coedge $-1 $293 $105 $294 $295 reversed $60 $-1 #
coedge $-1 $105 $293 $296 $297 reversed $60 $-1 #
coedge $-1 $290 $289 $105 $176 reversed $103 $-1 #
edge $-1 $298 -10.74408080274772814 $299 10.74408080274772814 $175 $300 forward 7 unknown #
face $-1 $301 $302 $30 $-1 $303 reversed single #
loop $-1 $-1 $304 $106 #
plane-surface $-1 -82.43027455349489685 35.51863165876775241 119.8098135912057529 0 -1 0 0.6293203988644634483 0 -0.7771459551288114609 forward_v I I I I #
coedge $-1 $305 $306 $307 $308 reversed $107 $-1 #
coedge $-1 $182 $109 $309 $310 reversed $63 $-1 #
coedge $-1 $109 $181 $305 $311 reversed $63 $-1 #
coedge $-1 $307 $312 $109 $184 forward $313 $-1 #
edge $-1 $314 8.469386979191980913 $315 12.75603300607973978 $183 $316 forward 7 unknown #
loop $-1 $-1 $190 $110 #
plane-surface $-1 0 29.11988064184446046 18.01690402559254878 -0.6293203988644634483 0 0.7771459551288114609 0.7771459551288114609 0 0.6293203988644634483 forward_v I I I I #
loop $-1 $-1 $317 $65 #
coedge $-1 $188 $188 $189 $318 reversed $111 $-1 #
coedge $-1 $189 $189 $188 $318 forward $113 $-1 #
coedge $-1 $190 $190 $114 $191 forward $185 $-1 #
edge $-1 $319 0 $319 6.283185307179586232 $190 $320 forward 7 unknown #
loop $-1 $-1 $197 $115 #
plane-surface $-1 0 29.11988064184446046 18.01690402559254878 -0.6293203988644634483 0 0.7771459551288114609 0.7771459551288114609 0 0.6293203988644634483 forward_v I I I I #
loop $-1 $-1 $321 $68 #
coedge $-1 $195 $195 $196 $322 reversed $116 $-1 #
coedge $-1 $196 $196 $195 $322 forward $118 $-1 #
coedge $-1 $197 $197 $119 $198 forward $192 $-1 #
edge $-1 $323 0 $323 6.283185307179586232 $197 $324 forward 7 unknown #
loop $-1 $-1 $204 $120 #
plane-surface $-1 0 29.11988064184446046 18.01690402559254878 -0.6293203988644634483 0 0.7771459551288114609 0.7771459551288114609 0 0.6293203988644634483 forward_v I I I I #
loop $-1 $-1 $325 $71 #
coedge $-1 $202 $202 $203 $326 reversed $121 $-1 #
coedge $-1 $203 $203 $202 $326 forward $123 $-1 #
coedge $-1 $204 $204 $124 $205 forward $199 $-1 #
edge $-1 $327 0 $327 6.283185307179586232 $204 $328 forward 7 unknown #
face $-1 $329 $330 $34 $-1 $331 forward single #
loop $-1 $-1 $332 $125 #
plane-surface $-1 105.2028648709111849 13.77929752532873309 196.4159958765968668 0 1 0 0.6018150307709319025 0 0.7986355043060522352 forward_v I I I I #
coedge $-1 $333 $334 $335 $336 reversed $126 $-1 #
coedge $-1 $211 $128 $337 $338 reversed $75 $-1 #
coedge $-1 $128 $210 $333 $339 reversed $75 $-1 #
coedge $-1 $335 $340 $128 $213 forward $330 $-1 #
edge $-1 $341 -45.63581845721080299 $342 -34.3461443300350453 $212 $343 forward 7 unknown #
loop $-1 $-1 $219 $129 #
plane-surface $-1 26.37532597914879773 17.23192817912128305 91.80832066552378024 0.6018150307709319025 0 0.7986355043060522352 0.7986355043060522352 0 -0.6018150307709319025 forward_v I I I I #
loop $-1 $-1 $344 $77 #
coedge $-1 $217 $217 $218 $345 reversed $130 $-1 #
coedge $-1 $218 $218 $217 $345 forward $132 $-1 #
coedge $-1 $219 $219 $133 $220 forward $214 $-1 #
edge $-1 $346 0 $346 6.283185307179586232 $219 $347 forward 7 unknown #
face $-1 $348 $349 $36 $-1 $350 reversed single #
loop $-1 $-1 $351 $134 #
plane-surface $-1 105.2028648709111849 23.42882051372977159 196.4159958765968668 0 1 0 0.6018150307709319025 0 0.7986355043060522352 forward_v I I I I #
coedge $-1 $352 $353 $354 $355 reversed $135 $-1 #
coedge $-1 $226 $137 $356 $357 reversed $81 $-1 #
coedge $-1 $137 $225 $352 $358 reversed $81 $-1 #
coedge $-1 $354 $359 $137 $228 forward $360 $-1 #
edge $-1 $361 -45.63581845721080299 $362 -34.3461443300350453 $227 $363 forward 7 unknown #
loop $-1 $-1 $234 $138 #
plane-surface $-1 26.37532597914879773 26.88145116752232155 91.80832066552378024 0.6018150307709319025 0 0.7986355043060522352 0.7986355043060522352 0 -0.6018150307709319025 forward_v I I I I #
loop $-1 $-1 $364 $83 #
coedge $-1 $232 $232 $233 $365 reversed $139 $-1 #
coedge $-1 $233 $233 $232 $365 forward $141 $-1 #
coedge $-1 $234 $234 $142 $235 forward $229 $-1 #
edge $-1 $366 0 $366 6.283185307179586232 $234 $367 forward 7 unknown #
face $-1 $368 $369 $38 $-1 $370 reversed single #
loop $-1 $-1 $371 $143 #
plane-surface $-1 105.2028648709111849 33.07834350213081365 196.4159958765968668 0 1 0 0.6018150307709319025 0 0.7986355043060522352 forward_v I I I I #
coedge $-1 $372 $373 $374 $375 reversed $144 $-1 #
coedge $-1 $241 $146 $376 $377 reversed $87 $-1 #
coedge $-1 $146 $240 $372 $378 reversed $87 $-1 #
coedge $-1 $374 $379 $146 $243 forward $380 $-1 #
edge $-1 $381 -45.63581845721080299 $382 -34.3461443300350453 $242 $383 forward 7 unknown #
loop $-1 $-1 $249 $147 #
plane-surface $-1 26.37532597914879773 36.53097415592336006 91.80832066552378024 0.6018150307709319025 0 0.7986355043060522352 0.7986355043060522352 0 -0.6018150307709319025 forward_v I I I I #
loop $-1 $-1 $384 $89 #
coedge $-1 $247 $247 $248 $385 reversed $148 $-1 #
coedge $-1 $248 $248 $247 $385 forward $150 $-1 #
coedge $-1 $249 $249 $151 $250 forward $244 $-1 #
edge $-1 $386 0 $386 6.283185307179586232 $249 $387 forward 7 unknown #
face $-1 $388 $389 $40 $-1 $390 reversed single #
loop $-1 $-1 $391 $152 #
plane-surface $-1 105.2028648709111849 42.72786649053185215 196.4159958765968668 0 1 0 0.6018150307709319025 0 0.7986355043060522352 forward_v I I I I #
coedge $-1 $392 $393 $394 $395 reversed $153 $-1 #
coedge $-1 $256 $155 $396 $397 reversed $93 $-1 #
coedge $-1 $155 $255 $392 $398 reversed $93 $-1 #
coedge $-1 $394 $399 $155 $258 forward $400 $-1 #
edge $-1 $401 -45.63581845721080299 $402 -34.3461443300350453 $257 $403 forward 7 unknown #
loop $-1 $-1 $264 $156 #
plane-surface $-1 26.37532597914879773 46.18049714432439856 91.80832066552378024 0.6018150307709319025 0 0.7986355043060522352 0.7986355043060522352 0 -0.6018150307709319025 forward_v I I I I #
loop $-1 $-1 $404 $95 #
coedge $-1 $262 $262 $263 $405 reversed $157 $-1 #
coedge $-1 $263 $263 $262 $405 forward $159 $-1 #
coedge $-1 $264 $264 $160 $265 forward $259 $-1 #
edge $-1 $406 0 $406 6.283185307179586232 $264 $407 forward 7 unknown #
face $-1 $408 $409 $28 $-1 $410 reversed single #
loop $-1 $-1 $411 $161 #
plane-surface $-1 0 26.87476015967043708 10.74408080274772814 1 0 0 0 0 -1 forward_v I I I I #
coedge $-1 $412 $277 $413 $414 forward $162 $-1 #
coedge $-1 $415 $164 $412 $416 forward $99 $-1 #
coedge $-1 $164 $415 $417 $418 forward $99 $-1 #
coedge $-1 $280 $279 $164 $273 reversed $281 $-1 #
edge $-1 $419 -26.87476015967043708 $420 26.87476015967043708 $272 $421 forward 7 unknown #
coedge $-1 $166 $165 $422 $423 forward $57 $-1 #
coedge $-1 $424 $425 $165 $276 reversed $409 $-1 #
edge $-1 $283 -65.49150059511093502 $426 65.49150059511093502 $275 $427 forward 7 unknown #
coedge $-1 $269 $428 $166 $278 reversed $162 $-1 #
edge $-1 $429 -65.49150059511093502 $282 65.49150059511093502 $277 $430 forward 7 unknown #
coedge $-1 $272 $167 $428 $431 forward $281 $-1 #
coedge $-1 $167 $272 $424 $432 reversed $281 $-1 #
loop $-1 $-1 $279 $408 #
vertex $-1 $168 $433 #
vertex $-1 $168 $434 #
straight-curve $-1 130.98300119022187 26.87476015967043708 21.48816160549545629 0 1 0 I I #
face $-1 $435 $436 $29 $-1 $437 reversed single #
loop $-1 $-1 $438 $169 #
plane-surface $-1 65.49150059511093502 26.87476015967043708 21.48816160549545629 0 0 1 1 0 0 forward_v I I I I #
coedge $-1 $439 $440 $441 $442 reversed $170 $-1 #
coedge $-1 $175 $172 $443 $444 reversed $103 $-1 #
coedge $-1 $172 $175 $445 $446 reversed $103 $-1 #
coedge $-1 $440 $439 $172 $292 reversed $170 $-1 #
edge $-1 $447 -10.74408080274772814 $448 10.74408080274772814 $291 $449 forward 7 unknown #
coedge $-1 $174 $173 $450 $451 reversed $60 $-1 #
coedge $-1 $443 $452 $173 $295 forward $436 $-1 #
edge $-1 $453 -15.85310633086142396 $299 -6.190201326756602285 $294 $454 forward 7 unknown #
coedge $-1 $455 $445 $174 $297 forward $286 $-1 #
edge $-1 $298 6.190201326756602285 $456 15.85310633086142396 $296 $457 forward 7 unknown #
vertex $-1 $297 $458 #
vertex $-1 $295 $459 #
straight-curve $-1 18.48816160549545629 9.662905004104821671 10.74408080274772814 0 0 -1 I I #
face $-1 $-1 $313 $30 $-1 $460 forward single #
loop $-1 $-1 $461 $177 #
plane-surface $-1 0 26.87476015967043708 10.74408080274772814 1 0 0 0 0 -1 forward_v I I I I #
coedge $-1 $462 $463 $464 $465 reversed $178 $-1 #
coedge $-1 $466 $180 $182 $311 forward $107 $-1 #
coedge $-1 $180 $466 $462 $467 forward $107 $-1 #
coedge $-1 $464 $183 $180 $308 forward $313 $-1 #
edge $-1 $315 -5.276190775836280267 $468 7.521311258010303646 $307 $469 forward 7 unknown #
coedge $-1 $470 $471 $181 $310 forward $302 $-1 #
edge $-1 $472 -47.26004317138418287 $314 -43.78878559148127891 $309 $473 forward 7 unknown #
edge $-1 $315 -5.515882825610601614 $472 0 $182 $474 forward 7 unknown #
coedge $-1 $183 $464 $470 $475 forward $313 $-1 #
loop $-1 $-1 $464 $301 #
vertex $-1 $310 $476 #
vertex $-1 $184 $477 #
straight-curve $-1 -8.469386979191980913 22.7211296249211685 21.48816160549545273 1 0 0 I I #
coedge $-1 $317 $317 $-1 $478 reversed $187 $-1 #
edge $-1 $479 0 $479 6.283185307179586232 $188 $480 forward 7 unknown #
vertex $-1 $191 $481 #
ellipse-curve $-1 2.143323013443882985 25.28063003169048883 19.75253281554400431 -0.6293203988644634483 0 0.7771459551288114609 0.7771459551288114609 0 0.6293203988644634483 1 I I #
coedge $-1 $321 $321 $-1 $482 reversed $194 $-1 #
edge $-1 $483 0 $483 6.283185307179586232 $195 $484 forward 7 unknown #
vertex $-1 $198 $485 #
ellipse-curve $-1 2.143323013443882985 29.11988064184446401 19.75253281554400431 -0.6293203988644634483 0 0.7771459551288114609 0.7771459551288114609 0 0.6293203988644634483 1 I I #
coedge $-1 $325 $325 $-1 $486 reversed $201 $-1 #
edge $-1 $487 0 $487 6.283185307179586232 $202 $488 forward 7 unknown #
vertex $-1 $205 $489 #
ellipse-curve $-1 2.143323013443882985 32.95913125199843563 19.75253281554400431 -0.6293203988644634483 0 0.7771459551288114609 0.7771459551288114609 0 0.6293203988644634483 1 I I #
face $-1 $-1 $490 $34 $-1 $491 reversed single #
loop $-1 $-1 $212 $206 #
plane-surface $-1 65.49150059511093502 26.87476015967043708 21.48816160549545629 0 0 1 1 0 0 forward_v I I I I #
coedge $-1 $492 $493 $494 $495 reversed $207 $-1 #
coedge $-1 $496 $209 $211 $339 forward $126 $-1 #
coedge $-1 $209 $496 $492 $497 forward $126 $-1 #
coedge $-1 $494 $212 $209 $336 forward $330 $-1 #
edge $-1 $342 1.368785336482027049 $498 8.274046644067126977 $335 $499 forward 7 unknown #
coedge $-1 $500 $501 $210 $338 forward $490 $-1 #
edge $-1 $502 -90.59925656591090615 $341 -82.09187673417685005 $337 $503 forward 7 unknown #
edge $-1 $342 116.8467975449988216 $502 130.9830011902218985 $211 $504 forward 7 unknown #
coedge $-1 $212 $494 $500 $505 forward $330 $-1 #
vertex $-1 $338 $506 #
vertex $-1 $213 $507 #
straight-curve $-1 85.34718273301106706 20.68455883291383302 21.48816160549545984 -1 0 0 I I #
coedge $-1 $344 $344 $-1 $508 reversed $216 $-1 #
edge $-1 $509 0 $509 6.283185307179586232 $217 $510 forward 7 unknown #
vertex $-1 $220 $511 #
ellipse-curve $-1 125.3381641266339983 17.23192817912128305 17.23447168962842824 0.6018150307709319025 0 0.7986355043060522352 0.7986355043060522352 0 -0.6018150307709319025 1 I I #
face $-1 $-1 $360 $36 $-1 $512 forward single #
loop $-1 $-1 $513 $221 #
plane-surface $-1 130.98300119022187 26.87476015967043708 10.74408080274772814 -1 0 0 0 0 1 forward_v I I I I #
coedge $-1 $514 $515 $516 $517 reversed $222 $-1 #
coedge $-1 $518 $224 $226 $358 forward $135 $-1 #
coedge $-1 $224 $518 $514 $519 forward $135 $-1 #
coedge $-1 $516 $227 $224 $355 forward $360 $-1 #
edge $-1 $362 -3.455976157718492203 $520 3.449285149866607725 $354 $521 forward 7 unknown #
coedge $-1 $522 $523 $225 $357 forward $349 $-1 #
edge $-1 $524 -90.59925656591090615 $361 -82.09187673417685005 $356 $525 forward 7 unknown #
edge $-1 $362 116.8467975449988216 $524 130.9830011902218985 $226 $526 forward 7 unknown #
coedge $-1 $227 $516 $522 $527 forward $360 $-1 #
loop $-1 $-1 $516 $348 #
vertex $-1 $357 $528 #
vertex $-1 $228 $529 #
straight-curve $-1 85.34718273301106706 30.33408182131487152 21.48816160549545984 -1 0 0 I I #
coedge $-1 $364 $364 $-1 $530 reversed $231 $-1 #
edge $-1 $531 0 $531 6.283185307179586232 $232 $532 forward 7 unknown #
vertex $-1 $235 $533 #
ellipse-curve $-1 125.3381641266339983 26.88145116752232155 17.23447168962842824 0.6018150307709319025 0 0.7986355043060522352 0.7986355043060522352 0 -0.6018150307709319025 1 I I #
face $-1 $-1 $380 $38 $-1 $534 forward single #
loop $-1 $-1 $535 $236 #
plane-surface $-1 130.98300119022187 26.87476015967043708 10.74408080274772814 -1 0 0 0 0 1 forward_v I I I I #
coedge $-1 $536 $537 $538 $539 reversed $237 $-1 #
coedge $-1 $540 $239 $241 $378 forward $144 $-1 #
coedge $-1 $239 $540 $536 $541 forward $144 $-1 #
coedge $-1 $538 $242 $239 $375 forward $380 $-1 #
edge $-1 $382 -8.280737651919015008 $542 -1.37547634433391508 $374 $543 forward 7 unknown #
coedge $-1 $544 $545 $240 $377 forward $369 $-1 #
edge $-1 $546 -90.59925656591090615 $381 -82.09187673417685005 $376 $547 forward 7 unknown #
edge $-1 $382 116.8467975449988216 $546 130.9830011902218985 $241 $548 forward 7 unknown #
coedge $-1 $242 $538 $544 $549 forward $380 $-1 #
loop $-1 $-1 $538 $368 #
vertex $-1 $377 $550 #
vertex $-1 $243 $551 #
straight-curve $-1 85.34718273301106706 39.98360480971591358 21.48816160549545984 -1 0 0 I I #
coedge $-1 $384 $384 $-1 $552 reversed $246 $-1 #
edge $-1 $553 0 $553 6.283185307179586232 $247 $554 forward 7 unknown #
vertex $-1 $250 $555 #
ellipse-curve $-1 125.3381641266339983 36.53097415592336006 17.23447168962842824 0.6018150307709319025 0 0.7986355043060522352 0.7986355043060522352 0 -0.6018150307709319025 1 I I #
face $-1 $-1 $400 $40 $-1 $556 forward single #
loop $-1 $-1 $557 $251 #
plane-surface $-1 130.98300119022187 26.87476015967043708 10.74408080274772814 -1 0 0 0 0 1 forward_v I I I I #
coedge $-1 $558 $559 $560 $561 reversed $252 $-1 #
coedge $-1 $562 $254 $256 $398 forward $153 $-1 #
coedge $-1 $254 $562 $558 $563 forward $153 $-1 #
coedge $-1 $560 $257 $254 $395 forward $400 $-1 #
edge $-1 $402 -13.10549914611952715 $564 -6.200237838534434331 $394 $565 forward 7 unknown #
coedge $-1 $566 $567 $255 $397 forward $389 $-1 #
edge $-1 $568 -90.59925656591090615 $401 -82.09187673417685005 $396 $569 forward 7 unknown #
edge $-1 $402 116.8467975449988216 $568 130.9830011902218985 $256 $570 forward 7 unknown #
coedge $-1 $257 $560 $566 $571 forward $400 $-1 #
loop $-1 $-1 $560 $388 #
vertex $-1 $397 $572 #
vertex $-1 $258 $573 #
straight-curve $-1 85.34718273301106706 49.63312779811694497 21.48816160549545984 -1 0 0 I I #
coedge $-1 $404 $404 $-1 $574 reversed $261 $-1 #
edge $-1 $575 0 $575 6.283185307179586232 $262 $576 forward 7 unknown #
vertex $-1 $265 $577 #
ellipse-curve $-1 125.3381641266339983 46.18049714432439856 17.23447168962842824 0.6018150307709319025 0 0.7986355043060522352 0.7986355043060522352 0 -0.6018150307709319025 1 I I #
face $-1 $-1 $281 $28 $-1 $578 reversed single #
loop $-1 $-1 $424 $266 #
plane-surface $-1 65.49150059511093502 53.74952031934087415 10.74408080274772814 0 -1 0 0 0 -1 forward_v I I I I #
coedge $-1 $579 $422 $425 $580 forward $267 $-1 #
coedge $-1 $428 $269 $270 $416 reversed $162 $-1 #
coedge $-1 $422 $579 $269 $414 reversed $267 $-1 #
edge $-1 $429 -10.74408080274772814 $581 10.74408080274772814 $413 $582 forward 7 unknown #
coedge $-1 $271 $270 $579 $583 forward $99 $-1 #
edge $-1 $420 -65.49150059511093502 $581 65.49150059511093502 $412 $584 forward 7 unknown #
coedge $-1 $425 $424 $271 $418 reversed $409 $-1 #
edge $-1 $585 -65.49150059511093502 $419 65.49150059511093502 $417 $586 forward 7 unknown #
vertex $-1 $273 $587 #
vertex $-1 $431 $588 #
straight-curve $-1 130.98300119022187 26.87476015967043708 0 0 -1 0 I I #
coedge $-1 $411 $413 $274 $423 reversed $267 $-1 #
edge $-1 $426 -26.87476015967043708 $429 26.87476015967043708 $422 $589 forward 7 unknown #
coedge $-1 $417 $275 $280 $432 forward $409 $-1 #
coedge $-1 $275 $417 $411 $580 reversed $409 $-1 #
vertex $-1 $276 $590 #
straight-curve $-1 65.49150059511093502 53.74952031934087415 21.48816160549545629 -1 0 0 I I #
coedge $-1 $277 $412 $279 $431 reversed $162 $-1 #
vertex $-1 $423 $591 #
straight-curve $-1 65.49150059511093502 0 21.48816160549545629 1 0 0 I I #
edge $-1 $282 -10.74408080274772814 $420 10.74408080274772814 $279 $592 forward 7 unknown #
edge $-1 $283 -10.74408080274772814 $419 10.74408080274772814 $280 $593 forward 7 unknown #
point $-1 130.98300119022187 0 21.48816160549545629 #
point $-1 130.98300119022187 53.74952031934087415 21.48816160549545629 #
face $-1 $-1 $594 $29 $-1 $595 reversed single #
loop $-1 $-1 $596 $285 #
plane-surface $-1 65.49150059511093502 26.87476015967043708 0 0 0 1 1 0 0 forward_v I I I I #
coedge $-1 $445 $455 $440 $597 forward $286 $-1 #
coedge $-1 $291 $288 $596 $598 reversed $170 $-1 #
coedge $-1 $288 $291 $438 $597 reversed $170 $-1 #
coedge $-1 $599 $600 $288 $442 forward $594 $-1 #
edge $-1 $601 -10.74408080274772814 $602 10.74408080274772814 $441 $603 forward 7 unknown #
coedge $-1 $596 $294 $289 $444 forward $436 $-1 #
edge $-1 $299 -24.25166949480773582 $448 -21.25166949480773582 $443 $604 forward 7 unknown #
coedge $-1 $296 $438 $290 $446 forward $286 $-1 #
edge $-1 $447 21.25166949480773582 $298 24.25166949480773582 $445 $605 forward 7 unknown #
vertex $-1 $446 $606 #
vertex $-1 $444 $607 #
straight-curve $-1 21.48816160549545629 9.662905004104821671 10.74408080274772814 0 0 -1 I I #
coedge $-1 $600 $599 $293 $451 forward $594 $-1 #
edge $-1 $456 -10.74408080274772814 $453 10.74408080274772814 $450 $608 forward 7 unknown #
coedge $-1 $294 $596 $600 $609 forward $436 $-1 #
vertex $-1 $295 $610 #
straight-curve $-1 18.48816160549545629 15.85310633086142396 0 0 1 0 I I #
coedge $-1 $438 $296 $599 $611 forward $286 $-1 #
vertex $-1 $611 $612 #
straight-curve $-1 18.48816160549545629 15.85310633086142396 21.48816160549545629 0 -1 0 I I #
point $-1 18.48816160549545629 9.662905004104821671 21.48816160549545629 #
point $-1 18.48816160549545629 9.662905004104821671 0 #
plane-surface $-1 65.49150059511093502 26.87476015967043708 21.48816160549545629 0 0 1 1 0 0 forward_v I I I I #
coedge $-1 $471 $470 $463 $613 forward $302 $-1 #
coedge $-1 $463 $304 $306 $467 reversed $178 $-1 #
coedge $-1 $304 $462 $461 $613 reversed $178 $-1 #
coedge $-1 $312 $307 $304 $465 forward $313 $-1 #
edge $-1 $468 -12.75603300607973978 $614 -8.469386979191980913 $464 $615 forward 7 unknown #
coedge $-1 $306 $305 $471 $616 reversed $107 $-1 #
edge $-1 $617 0 $468 5.515882825610601614 $462 $618 forward 7 unknown #
vertex $-1 $308 $619 #
straight-curve $-1 4.28664602688776597 27.99732040075744877 21.48816160549545629 0 1 0 I I #
coedge $-1 $461 $309 $312 $475 reversed $302 $-1 #
coedge $-1 $309 $461 $466 $616 forward $302 $-1 #
vertex $-1 $310 $620 #
straight-curve $-1 0 22.7211296249211685 65.2769471969767352 0 0 1 I I #
straight-curve $-1 0 22.7211296249211685 18.01690402559254878 -0.7771459551288114609 0 -0.6293203988644634483 I I #
edge $-1 $614 -8.643871499097315336 $314 4.153630534749268577 $470 $621 forward 7 unknown #
point $-1 0 22.7211296249211685 21.48816160549545629 #
point $-1 4.286646026887758865 22.7211296249211685 21.48816160549545629 #
edge $-1 $622 1 $622 0 $317 $-1 forward 7 unknown #
vertex $-1 $318 $623 #
ellipse-curve $-1 3.800313809428615741 25.28063003169048883 17.7063196352486294 -0.6293203988644634483 0 0.7771459551288114609 0.7771459551288114609 0 0.6293203988644634483 1 I I #
point $-1 2.920468968572698998 25.28063003169048883 20.38185321440845854 #
edge $-1 $624 1 $624 0 $321 $-1 forward 7 unknown #
vertex $-1 $322 $625 #
ellipse-curve $-1 3.800313809428615741 29.11988064184446401 17.7063196352486294 -0.6293203988644634483 0 0.7771459551288114609 0.7771459551288114609 0 0.6293203988644634483 1 I I #
point $-1 2.920468968572698998 29.11988064184446401 20.38185321440845854 #
edge $-1 $626 1 $626 0 $325 $-1 forward 7 unknown #
vertex $-1 $326 $627 #
ellipse-curve $-1 3.800313809428615741 32.95913125199843563 17.7063196352486294 -0.6293203988644634483 0 0.7771459551288114609 0.7771459551288114609 0 0.6293203988644634483 1 I I #
point $-1 2.920468968572698998 32.95913125199843563 20.38185321440845854 #
loop $-1 $-1 $337 $329 #
plane-surface $-1 130.98300119022187 26.87476015967043708 10.74408080274772814 -1 0 0 0 0 1 forward_v I I I I #
coedge $-1 $493 $332 $334 $497 reversed $207 $-1 #
coedge $-1 $332 $492 $628 $629 reversed $207 $-1 #
coedge $-1 $340 $335 $332 $495 forward $330 $-1 #
edge $-1 $498 34.3461443300350453 $630 45.63581845721080299 $494 $631 forward 7 unknown #
coedge $-1 $334 $333 $501 $632 reversed $126 $-1 #
edge $-1 $633 -130.9830011902218985 $498 -116.8467975449988216 $492 $634 forward 7 unknown #
vertex $-1 $336 $635 #
straight-curve $-1 119.6933270630461266 22.05334416939586006 21.48816160549544563 0 -1 0 I I #
coedge $-1 $628 $337 $340 $505 reversed $490 $-1 #
coedge $-1 $337 $628 $496 $632 forward $490 $-1 #
vertex $-1 $338 $636 #
straight-curve $-1 130.98300119022187 20.68455883291383302 103.5800383396722992 0 0 1 I I #
straight-curve $-1 26.37532597914879773 20.68455883291383302 91.80832066552378024 0.7986355043060522352 0 -0.6018150307709319025 I I #
edge $-1 $630 -13.09546263434170399 $341 -6.190201326756604061 $500 $637 forward 7 unknown #
point $-1 130.98300119022187 20.68455883291383302 21.48816160549545629 #
point $-1 119.6933270630461124 20.68455883291383302 21.48816160549545984 #
edge $-1 $638 1 $638 0 $344 $-1 forward 7 unknown #
vertex $-1 $345 $639 #
ellipse-curve $-1 123.9874367848576071 17.23192817912128305 15.44199600088120583 0.6018150307709319025 0 0.7986355043060522352 0.7986355043060522352 0 -0.6018150307709319025 1 I I #
point $-1 126.1367996309400468 17.23192817912128305 16.63265665885748845 #
plane-surface $-1 65.49150059511093502 26.87476015967043708 21.48816160549545629 0 0 1 1 0 0 forward_v I I I I #
coedge $-1 $523 $522 $515 $640 forward $349 $-1 #
coedge $-1 $515 $351 $353 $519 reversed $222 $-1 #
coedge $-1 $351 $514 $513 $640 reversed $222 $-1 #
coedge $-1 $359 $354 $351 $517 forward $360 $-1 #
edge $-1 $520 34.3461443300350453 $641 45.63581845721080299 $516 $642 forward 7 unknown #
coedge $-1 $353 $352 $523 $643 reversed $135 $-1 #
edge $-1 $644 -130.9830011902218985 $520 -116.8467975449988216 $514 $645 forward 7 unknown #
vertex $-1 $355 $646 #
straight-curve $-1 119.6933270630461266 26.87810566359637932 21.48816160549544563 0 -1 0 I I #
coedge $-1 $513 $356 $359 $527 reversed $349 $-1 #
coedge $-1 $356 $513 $518 $643 forward $349 $-1 #
vertex $-1 $357 $647 #
straight-curve $-1 130.98300119022187 30.33408182131487152 103.5800383396722992 0 0 1 I I #
straight-curve $-1 26.37532597914879773 30.33408182131487152 91.80832066552378024 0.7986355043060522352 0 -0.6018150307709319025 I I #
edge $-1 $641 -3.445939645940665486 $361 3.459321661644434442 $522 $648 forward 7 unknown #
point $-1 130.98300119022187 30.33408182131487152 21.48816160549545629 #
point $-1 119.6933270630461124 30.33408182131487152 21.48816160549545984 #
edge $-1 $649 1 $649 0 $364 $-1 forward 7 unknown #
vertex $-1 $365 $650 #
ellipse-curve $-1 123.9874367848576071 26.88145116752232155 15.44199600088120583 0.6018150307709319025 0 0.7986355043060522352 0.7986355043060522352 0 -0.6018150307709319025 1 I I #
point $-1 126.1367996309400468 26.88145116752232155 16.63265665885748845 #
plane-surface $-1 65.49150059511093502 26.87476015967043708 21.48816160549545629 0 0 1 1 0 0 forward_v I I I I #
coedge $-1 $545 $544 $537 $651 forward $369 $-1 #
coedge $-1 $537 $371 $373 $541 reversed $237 $-1 #
coedge $-1 $371 $536 $535 $651 reversed $237 $-1 #
coedge $-1 $379 $374 $371 $539 forward $380 $-1 #
edge $-1 $542 34.3461443300350453 $652 45.63581845721080299 $538 $653 forward 7 unknown #
coedge $-1 $373 $372 $545 $654 reversed $144 $-1 #
edge $-1 $655 -130.9830011902218985 $542 -116.8467975449988216 $536 $656 forward 7 unknown #
vertex $-1 $375 $657 #
straight-curve $-1 119.6933270630461266 31.70286715779689857 21.48816160549544563 0 -1 0 I I #
coedge $-1 $535 $376 $379 $549 reversed $369 $-1 #
coedge $-1 $376 $535 $540 $654 forward $369 $-1 #
vertex $-1 $377 $658 #
straight-curve $-1 130.98300119022187 39.98360480971591358 103.5800383396722992 0 0 1 I I #
straight-curve $-1 26.37532597914879773 39.98360480971591358 91.80832066552378024 0.7986355043060522352 0 -0.6018150307709319025 I I #
edge $-1 $652 6.203583342460376571 $381 13.1088446500454765 $544 $659 forward 7 unknown #
point $-1 130.98300119022187 39.98360480971591358 21.48816160549545629 #
point $-1 119.6933270630461124 39.98360480971591358 21.48816160549545984 #
edge $-1 $660 1 $660 0 $384 $-1 forward 7 unknown #
vertex $-1 $385 $661 #
ellipse-curve $-1 123.9874367848576071 36.53097415592336006 15.44199600088120583 0.6018150307709319025 0 0.7986355043060522352 0.7986355043060522352 0 -0.6018150307709319025 1 I I #
point $-1 126.1367996309400468 36.53097415592336006 16.63265665885748845 #
plane-surface $-1 65.49150059511093502 26.87476015967043708 21.48816160549545629 0 0 1 1 0 0 forward_v I I I I #
coedge $-1 $567 $566 $559 $662 forward $389 $-1 #
coedge $-1 $559 $391 $393 $563 reversed $252 $-1 #
coedge $-1 $391 $558 $557 $662 reversed $252 $-1 #
coedge $-1 $399 $394 $391 $561 forward $400 $-1 #
edge $-1 $564 34.3461443300350453 $663 45.63581845721080299 $560 $664 forward 7 unknown #
coedge $-1 $393 $392 $567 $665 reversed $153 $-1 #
edge $-1 $666 -130.9830011902218985 $564 -116.8467975449988216 $558 $667 forward 7 unknown #
vertex $-1 $395 $668 #
straight-curve $-1 119.6933270630461266 36.52762865199741782 21.48816160549544563 0 -1 0 I I #
coedge $-1 $557 $396 $399 $571 reversed $389 $-1 #
coedge $-1 $396 $557 $562 $665 forward $389 $-1 #
vertex $-1 $397 $669 #
straight-curve $-1 130.98300119022187 49.63312779811694497 103.5800383396722992 0 0 1 I I #
straight-curve $-1 26.37532597914879773 49.63312779811694497 91.80832066552378024 0.7986355043060522352 0 -0.6018150307709319025 I I #
edge $-1 $663 15.85310633086141507 $401 22.7583676384465079 $566 $670 forward 7 unknown #
point $-1 130.98300119022187 49.63312779811694497 21.48816160549545629 #
point $-1 119.6933270630461124 49.63312779811694497 21.48816160549545984 #
edge $-1 $671 1 $671 0 $404 $-1 forward 7 unknown #
vertex $-1 $405 $672 #
ellipse-curve $-1 123.9874367848576071 46.18049714432439856 15.44199600088120583 0.6018150307709319025 0 0.7986355043060522352 0.7986355043060522352 0 -0.6018150307709319025 1 I I #
point $-1 126.1367996309400468 46.18049714432439856 16.63265665885748845 #
plane-surface $-1 130.98300119022187 26.87476015967043708 10.74408080274772814 -1 0 0 0 0 1 forward_v I I I I #
coedge $-1 $413 $411 $415 $583 reversed $267 $-1 #
edge $-1 $426 -10.74408080274772814 $585 10.74408080274772814 $425 $673 forward 7 unknown #
vertex $-1 $583 $674 #
straight-curve $-1 0 0 10.74408080274772814 0 0 -1 I I #
edge $-1 $581 -26.87476015967043708 $585 26.87476015967043708 $579 $675 forward 7 unknown #
straight-curve $-1 65.49150059511093502 0 0 -1 0 0 I I #
vertex $-1 $418 $676 #
straight-curve $-1 65.49150059511093502 53.74952031934087415 0 1 0 0 I I #
point $-1 130.98300119022187 53.74952031934087415 0 #
point $-1 130.98300119022187 0 0 #
straight-curve $-1 0 26.87476015967043708 21.48816160549545629 0 -1 0 I I #
point $-1 0 53.74952031934087415 21.48816160549545629 #
point $-1 0 0 21.48816160549545629 #
straight-curve $-1 130.98300119022187 0 10.74408080274772814 0 0 -1 I I #
straight-curve $-1 130.98300119022187 53.74952031934087415 10.74408080274772814 0 0 -1 I I #
loop $-1 $-1 $441 $435 #
plane-surface $-1 65.49150059511093502 0 10.74408080274772814 0 1 0 0 0 1 forward_v I I I I #
coedge $-1 $452 $443 $439 $598 forward $436 $-1 #
edge $-1 $602 -15.85310633086142396 $447 -6.190201326756602285 $438 $677 forward 7 unknown #
edge $-1 $448 6.190201326756602285 $601 15.85310633086142396 $596 $678 forward 7 unknown #
coedge $-1 $450 $441 $455 $611 reversed $594 $-1 #
coedge $-1 $441 $450 $452 $609 reversed $594 $-1 #
vertex $-1 $609 $679 #
vertex $-1 $442 $680 #
straight-curve $-1 21.48816160549545629 0 10.74408080274772814 0 0 1 I I #
straight-curve $-1 42.7398311003031921 9.662905004104821671 0 1 0 0 I I #
straight-curve $-1 42.7398311003031921 9.662905004104821671 21.48816160549545629 -1 0 0 I I #
point $-1 21.48816160549545629 9.662905004104821671 21.48816160549545629 #
point $-1 21.48816160549545629 9.662905004104821671 0 #
straight-curve $-1 18.48816160549545629 0 10.74408080274772814 0 0 -1 I I #
edge $-1 $601 44.00333898961547874 $453 47.00333898961547874 $600 $681 forward 7 unknown #
point $-1 18.48816160549545629 0 0 #
edge $-1 $456 -47.00333898961547874 $602 -44.00333898961547874 $599 $682 forward 7 unknown #
point $-1 18.48816160549545629 0 21.48816160549545629 #
edge $-1 $614 43.78878559148127891 $617 47.26004317138418287 $461 $683 forward 7 unknown #
vertex $-1 $475 $684 #
straight-curve $-1 -8.469386979191980913 35.51863165876775241 21.48816160549545273 -1 0 0 I I #
edge $-1 $617 -7.521311258010303646 $472 5.276190775836280267 $471 $685 forward 7 unknown #
vertex $-1 $616 $686 #
straight-curve $-1 0 35.51863165876775241 18.01690402559254878 0.7771459551288114609 0 0.6293203988644634483 I I #
point $-1 4.286646026887758865 35.51863165876775241 21.48816160549545629 #
point $-1 0 22.7211296249211685 18.01690402559254878 #
straight-curve $-1 0 26.87476015967043708 21.48816160549545629 0 -1 0 I I #
vertex $-1 $478 $687 #
point $-1 4.577459764557424649 25.28063003169048883 18.33564003411309429 #
vertex $-1 $482 $688 #
point $-1 4.577459764557424649 29.11988064184446401 18.33564003411309429 #
vertex $-1 $486 $689 #
point $-1 4.577459764557424649 32.95913125199843563 18.33564003411309429 #
coedge $-1 $501 $500 $493 $629 forward $490 $-1 #
edge $-1 $630 82.09187673417685005 $633 90.59925656591090615 $628 $690 forward 7 unknown #
vertex $-1 $505 $691 #
straight-curve $-1 85.34718273301106706 13.77929752532873309 21.48816160549545984 1 0 0 I I #
edge $-1 $633 -8.274046644067126977 $502 -1.368785336482027049 $501 $692 forward 7 unknown #
vertex $-1 $632 $693 #
straight-curve $-1 26.37532597914879773 13.77929752532873309 91.80832066552378024 -0.7986355043060522352 0 0.6018150307709319025 I I #
point $-1 119.6933270630461124 13.77929752532873309 21.48816160549545984 #
point $-1 130.9830011902218985 20.68455883291383302 12.98078177376138953 #
straight-curve $-1 130.98300119022187 26.87476015967043708 21.48816160549545629 0 1 0 I I #
vertex $-1 $508 $694 #
point $-1 124.7860722891636556 17.23192817912128305 14.84018097011027493 #
edge $-1 $641 82.09187673417685005 $644 90.59925656591090615 $513 $695 forward 7 unknown #
vertex $-1 $527 $696 #
straight-curve $-1 85.34718273301106706 23.42882051372977159 21.48816160549545984 1 0 0 I I #
edge $-1 $644 -3.449285149866607725 $524 3.455976157718492203 $523 $697 forward 7 unknown #
vertex $-1 $643 $698 #
straight-curve $-1 26.37532597914879773 23.42882051372977159 91.80832066552378024 -0.7986355043060522352 0 0.6018150307709319025 I I #
point $-1 119.6933270630461124 23.42882051372977159 21.48816160549545984 #
point $-1 130.9830011902218985 30.33408182131487152 12.98078177376138953 #
straight-curve $-1 130.98300119022187 26.87476015967043708 21.48816160549545629 0 1 0 I I #
vertex $-1 $530 $699 #
point $-1 124.7860722891636556 26.88145116752232155 14.84018097011027493 #
edge $-1 $652 82.09187673417685005 $655 90.59925656591090615 $535 $700 forward 7 unknown #
vertex $-1 $549 $701 #
straight-curve $-1 85.34718273301106706 33.07834350213081365 21.48816160549545984 1 0 0 I I #
edge $-1 $655 1.37547634433391508 $546 8.280737651919015008 $545 $702 forward 7 unknown #
vertex $-1 $654 $703 #
straight-curve $-1 26.37532597914879773 33.07834350213081365 91.80832066552378024 -0.7986355043060522352 0 0.6018150307709319025 I I #
point $-1 119.6933270630461124 33.07834350213081365 21.48816160549545984 #
point $-1 130.9830011902218985 39.98360480971591358 12.98078177376138953 #
straight-curve $-1 130.98300119022187 26.87476015967043708 21.48816160549545629 0 1 0 I I #
vertex $-1 $552 $704 #
point $-1 124.7860722891636556 36.53097415592336006 14.84018097011027493 #
edge $-1 $663 82.09187673417685005 $666 90.59925656591090615 $557 $705 forward 7 unknown #
vertex $-1 $571 $706 #
straight-curve $-1 85.34718273301106706 42.72786649053185215 21.48816160549545984 1 0 0 I I #
edge $-1 $666 6.200237838534434331 $568 13.10549914611952715 $567 $707 forward 7 unknown #
vertex $-1 $665 $708 #
straight-curve $-1 26.37532597914879773 42.72786649053185215 91.80832066552378024 -0.7986355043060522352 0 0.6018150307709319025 I I #
point $-1 119.6933270630461124 42.72786649053185215 21.48816160549545984 #
point $-1 130.9830011902218985 49.63312779811694497 12.98078177376138953 #
straight-curve $-1 130.98300119022187 26.87476015967043708 21.48816160549545629 0 1 0 I I #
vertex $-1 $574 $709 #
point $-1 124.7860722891636556 46.18049714432439856 14.84018097011027493 #
straight-curve $-1 0 53.74952031934087415 10.74408080274772814 0 0 -1 I I #
point $-1 0 0 0 #
straight-curve $-1 0 26.87476015967043708 0 0 1 0 I I #
point $-1 0 53.74952031934087415 0 #
straight-curve $-1 21.48816160549545629 15.85310633086142396 21.48816160549545629 0 1 0 I I #
straight-curve $-1 21.48816160549545629 15.85310633086142396 0 0 -1 0 I I #
point $-1 21.48816160549545629 0 0 #
point $-1 21.48816160549545629 0 21.48816160549545629 #
straight-curve $-1 65.49150059511093502 0 0 -1 0 0 I I #
straight-curve $-1 65.49150059511093502 0 21.48816160549545629 1 0 0 I I #
straight-curve $-1 0 35.51863165876775241 65.2769471969767352 0 0 -1 I I #
point $-1 0 35.51863165876775241 21.48816160549545629 #
straight-curve $-1 0 27.99732040075744877 18.01690402559255233 0 -1 0 I I #
point $-1 0 35.51863165876775241 18.01690402559254878 #
point $-1 4.429634208293080633 25.28063003169048883 16.92917368011982049 #
point $-1 4.429634208293080633 29.11988064184446401 16.92917368011982049 #
point $-1 4.429634208293080633 32.95913125199843563 16.92917368011982049 #
straight-curve $-1 130.98300119022187 13.77929752532873309 103.5800383396722992 0 0 -1 I I #
point $-1 130.98300119022187 13.77929752532873309 21.48816160549545629 #
straight-curve $-1 130.9830011902218416 22.05334416939586006 12.98078177376141085 0 1 0 I I #
point $-1 130.9830011902218985 13.77929752532873309 12.98078177376138953 #
point $-1 123.3856217540866851 17.23192817912128305 14.64336049657515382 #
straight-curve $-1 130.98300119022187 23.42882051372977159 103.5800383396722992 0 0 -1 I I #
point $-1 130.98300119022187 23.42882051372977159 21.48816160549545629 #
straight-curve $-1 130.9830011902218416 26.87810566359637932 12.98078177376141085 0 1 0 I I #
point $-1 130.9830011902218985 23.42882051372977159 12.98078177376138953 #
point $-1 123.3856217540866851 26.88145116752232155 14.64336049657515382 #
straight-curve $-1 130.98300119022187 33.07834350213081365 103.5800383396722992 0 0 -1 I I #
point $-1 130.98300119022187 33.07834350213081365 21.48816160549545629 #
straight-curve $-1 130.9830011902218416 31.70286715779689857 12.98078177376141085 0 1 0 I I #
point $-1 130.9830011902218985 33.07834350213081365 12.98078177376138953 #
point $-1 123.3856217540866851 36.53097415592336006 14.64336049657515382 #
straight-curve $-1 130.98300119022187 42.72786649053185215 103.5800383396722992 0 0 -1 I I #
point $-1 130.98300119022187 42.72786649053185215 21.48816160549545629 #
straight-curve $-1 130.9830011902218416 36.52762865199741782 12.98078177376141085 0 1 0 I I #
point $-1 130.9830011902218985 42.72786649053185215 12.98078177376138953 #
point $-1 123.3856217540866851 46.18049714432439856 14.64336049657515382 #
End-of-ACIS-data 