300 0 9 0           
7 Unknown 11 ACIS 3.0 NT 24 Fri Oct 30 14:37:20 1998 
-1 9.9999999999999995e-007 1e-010 
body $9 $10 $-1 $11 #
body $12 $13 $-1 $14 #
body $15 $16 $-1 $17 #
body $18 $19 $-1 $20 #
body $21 $22 $-1 $23 #
body $24 $25 $-1 $26 #
body $27 $28 $-1 $29 #
body $30 $31 $-1 $32 #
body $33 $34 $-1 $35 #
display_attribute-st-attrib $-1 $36 $-1 $0 1 #
lump $-1 $-1 $37 $0 #
transform $-1 1 0 0 0 1 0 0 0 1 51.457869197668387 33.915049738050051 13.384784957351661 1 rotate no_reflect no_shear #
display_attribute-st-attrib $-1 $38 $-1 $1 1 #
lump $-1 $-1 $39 $1 #
transform $-1 1 0 0 0 0.48480960649040278 0.87461971476443456 0 -0.87461971476443456 0.48480960649040278 75.155962213131005 -90.01213376010061 70.126873374958876 1 rotate no_reflect no_shear #
display_attribute-st-attrib $-1 $40 $-1 $2 1 #
lump $-1 $-1 $41 $2 #
transform $-1 1 0 0 0 -0.48480960649040278 -0.87461971476443456 0 0.87461971476443456 -0.48480960649040278 70.872774200584715 3.3278682314722161 22.660595456280532 1 rotate no_reflect no_shear #
display_attribute-st-attrib $-1 $42 $-1 $3 1 #
lump $-1 $-1 $43 $3 #
transform $-1 1 0 0 0 -0.48480960649040278 -0.87461971476443456 0 0.87461971476443456 -0.48480960649040278 75.155962213131019 3.3278682314722161 22.660595456280532 1 rotate no_reflect no_shear #
display_attribute-st-attrib $-1 $44 $-1 $4 1 #
lump $-1 $-1 $45 $4 #
transform $-1 1 0 0 0 -0.48480960649040278 -0.87461971476443456 0 0.87461971476443456 -0.48480960649040278 79.439150225677324 3.3278682314722161 22.660595456280532 1 rotate no_reflect no_shear #
display_attribute-st-attrib $-1 $46 $-1 $5 1 #
lump $-1 $-1 $47 $5 #
transform $-1 1 0 0 0 0.48480960649040278 -0.87461971476443456 0 0.87461971476443456 0.48480960649040278 75.155962213131005 124.95754940098774 129.45241563118879 1 rotate no_reflect no_shear #
display_attribute-st-attrib $-1 $48 $-1 $6 1 #
lump $-1 $-1 $49 $6 #
transform $-1 1 0 0 0 -0.48480960649040278 0.87461971476443456 0 -0.87461971476443456 -0.48480960649040278 70.872774200584715 64.502231244627893 22.660595456280532 1 rotate no_reflect no_shear #
display_attribute-st-attrib $-1 $50 $-1 $7 1 #
lump $-1 $-1 $51 $7 #
transform $-1 1 0 0 0 -0.48480960649040278 0.87461971476443456 0 -0.87461971476443456 -0.48480960649040278 75.155962213131019 64.502231244627893 22.660595456280532 1 rotate no_reflect no_shear #
display_attribute-st-attrib $-1 $52 $-1 $8 1 #
lump $-1 $-1 $53 $8 #
transform $-1 1 0 0 0 -0.48480960649040278 0.87461971476443456 0 -0.87461971476443456 -0.48480960649040278 79.439150225677324 64.502231244627893 22.660595456280532 1 rotate no_reflect no_shear #
id_attribute-st-attrib $-1 $-1 $9 $0 1930 #
shell $-1 $-1 $-1 $54 $-1 $10 #
id_attribute-st-attrib $-1 $-1 $12 $1 1941 #
shell $-1 $-1 $-1 $55 $-1 $13 #
id_attribute-st-attrib $-1 $-1 $15 $2 1948 #
shell $-1 $-1 $-1 $56 $-1 $16 #
id_attribute-st-attrib $-1 $-1 $18 $3 1956 #
shell $-1 $-1 $-1 $57 $-1 $19 #
id_attribute-st-attrib $-1 $-1 $21 $4 1965 #
shell $-1 $-1 $-1 $58 $-1 $22 #
id_attribute-st-attrib $-1 $-1 $24 $5 1982 #
shell $-1 $-1 $-1 $59 $-1 $25 #
id_attribute-st-attrib $-1 $-1 $27 $6 1993 #
shell $-1 $-1 $-1 $60 $-1 $28 #
id_attribute-st-attrib $-1 $-1 $30 $7 2005 #
shell $-1 $-1 $-1 $61 $-1 $31 #
id_attribute-st-attrib $-1 $-1 $33 $8 2018 #
shell $-1 $-1 $-1 $62 $-1 $34 #
face $-1 $63 $64 $37 $-1 $65 forward single #
face $-1 $66 $67 $39 $-1 $68 forward single #
face $-1 $69 $70 $41 $-1 $71 forward single #
face $-1 $72 $73 $43 $-1 $74 forward single #
face $-1 $75 $76 $45 $-1 $77 forward single #
face $-1 $78 $79 $47 $-1 $80 forward single #
face $-1 $81 $82 $49 $-1 $83 forward single #
face $-1 $84 $85 $51 $-1 $86 forward single #
face $-1 $87 $88 $53 $-1 $89 forward single #
face $-1 $90 $91 $37 $-1 $92 reversed single #
loop $-1 $-1 $93 $54 #
plane-surface $-1 0 0 13.384784957351661 0 0 1 1 0 0 forward_v I I I I #
face $-1 $94 $95 $39 $-1 $96 reversed single #
loop $-1 $-1 $97 $55 #
plane-surface $-1 0 0 102.91573839533677 0 0 1 1 0 0 forward_v I I I I #
face $-1 $98 $99 $41 $-1 $100 forward single #
loop $-1 $101 $102 $56 #
cone-surface $-1 0 0 -1.1166875209814755 0 0 1 1 0 0 1 I I 0 1 forward I I I I #
face $-1 $103 $104 $43 $-1 $105 forward single #
loop $-1 $106 $107 $57 #
cone-surface $-1 0 0 -1.1166875209814755 0 0 1 1 0 0 1 I I 0 1 forward I I I I #
face $-1 $108 $109 $45 $-1 $110 forward single #
loop $-1 $111 $112 $58 #
cone-surface $-1 0 0 -1.1166875209814755 0 0 1 1 0 0 1 I I 0 1 forward I I I I #
face $-1 $113 $114 $47 $-1 $115 reversed single #
loop $-1 $-1 $116 $59 #
plane-surface $-1 0 0 102.91573839533677 0 0 1 1 0 0 forward_v I I I I #
face $-1 $117 $118 $49 $-1 $119 forward single #
loop $-1 $120 $121 $60 #
cone-surface $-1 0 0 -1.1166875209814755 0 0 1 1 0 0 1 I I 0 1 forward I I I I #
face $-1 $122 $123 $51 $-1 $124 forward single #
loop $-1 $125 $126 $61 #
cone-surface $-1 0 0 -1.1166875209814755 0 0 1 1 0 0 1 I I 0 1 forward I I I I #
face $-1 $127 $128 $53 $-1 $129 forward single #
loop $-1 $130 $131 $62 #
cone-surface $-1 0 0 -1.1166875209814755 0 0 1 1 0 0 1 I I 0 1 forward I I I I #
face $-1 $132 $133 $37 $-1 $134 reversed single #
loop $-1 $-1 $135 $63 #
plane-surface $-1 0 0 -13.384784957351661 0 0 1 1 0 0 forward_v I I I I #
coedge $-1 $136 $137 $138 $139 forward $64 $-1 #
face $-1 $140 $141 $39 $-1 $142 reversed single #
loop $-1 $-1 $143 $66 #
plane-surface $-1 0 0 -102.91573839533677 0 0 1 1 0 0 forward_v I I I I #
coedge $-1 $144 $145 $146 $147 forward $67 $-1 #
face $-1 $-1 $148 $41 $-1 $149 forward single #
loop $-1 $-1 $150 $69 #
plane-surface $-1 0 0 -1.733375041962951 0 0 -1 -1 0 0 forward_v I I I I #
loop $-1 $-1 $151 $56 #
coedge $-1 $102 $102 $150 $152 reversed $70 $-1 #
face $-1 $-1 $153 $43 $-1 $154 forward single #
loop $-1 $-1 $155 $72 #
plane-surface $-1 0 0 -1.733375041962951 0 0 -1 -1 0 0 forward_v I I I I #
loop $-1 $-1 $156 $57 #
coedge $-1 $107 $107 $155 $157 reversed $73 $-1 #
face $-1 $-1 $158 $45 $-1 $159 forward single #
loop $-1 $-1 $160 $75 #
plane-surface $-1 0 0 -1.733375041962951 0 0 -1 -1 0 0 forward_v I I I I #
loop $-1 $-1 $161 $58 #
coedge $-1 $112 $112 $160 $162 reversed $76 $-1 #
face $-1 $163 $164 $47 $-1 $165 reversed single #
loop $-1 $-1 $166 $78 #
plane-surface $-1 0 0 -102.91573839533677 0 0 1 1 0 0 forward_v I I I I #
coedge $-1 $167 $168 $169 $170 forward $79 $-1 #
face $-1 $-1 $171 $49 $-1 $172 forward single #
loop $-1 $-1 $173 $81 #
plane-surface $-1 0 0 -1.733375041962951 0 0 -1 -1 0 0 forward_v I I I I #
loop $-1 $-1 $174 $60 #
coedge $-1 $121 $121 $173 $175 reversed $82 $-1 #
face $-1 $-1 $176 $51 $-1 $177 forward single #
loop $-1 $-1 $178 $84 #
plane-surface $-1 0 0 -1.733375041962951 0 0 -1 -1 0 0 forward_v I I I I #
loop $-1 $-1 $179 $61 #
coedge $-1 $126 $126 $178 $180 reversed $85 $-1 #
face $-1 $-1 $181 $53 $-1 $182 forward single #
loop $-1 $-1 $183 $87 #
plane-surface $-1 0 0 -1.733375041962951 0 0 -1 -1 0 0 forward_v I I I I #
loop $-1 $-1 $184 $62 #
coedge $-1 $131 $131 $183 $185 reversed $88 $-1 #
face $-1 $186 $187 $37 $-1 $188 reversed single #
loop $-1 $-1 $189 $90 #
plane-surface $-1 0 -33.915049738050051 0 0 1 0 0 0 1 forward_v I I I I #
coedge $-1 $190 $191 $192 $193 forward $91 $-1 #
coedge $-1 $194 $93 $195 $196 forward $64 $-1 #
coedge $-1 $93 $194 $197 $198 forward $64 $-1 #
coedge $-1 $199 $200 $93 $139 reversed $201 $-1 #
edge $-1 $202 $203 $138 $204 forward #
face $-1 $205 $206 $39 $-1 $207 reversed single #
loop $-1 $-1 $208 $94 #
plane-surface $-1 0 -205.83147679067355 0 0 1 0 0 0 1 forward_v I I I I #
coedge $-1 $209 $210 $211 $212 forward $95 $-1 #
coedge $-1 $213 $97 $214 $215 forward $67 $-1 #
coedge $-1 $97 $213 $216 $217 forward $67 $-1 #
coedge $-1 $218 $219 $97 $147 reversed $220 $-1 #
edge $-1 $221 $222 $146 $223 forward #
loop $-1 $224 $225 $98 #
cone-surface $-1 0 0 0 0 0 1 0.5 0 0 1 I I -0.70710678118654746 0.70710678118654746 forward I I I I #
coedge $-1 $150 $150 $102 $152 forward $99 $-1 #
coedge $-1 $151 $151 $225 $226 forward $101 $-1 #
edge $-1 $227 $227 $150 $228 forward #
loop $-1 $229 $230 $103 #
cone-surface $-1 0 0 0 0 0 1 0.5 0 0 1 I I -0.70710678118654746 0.70710678118654746 forward I I I I #
coedge $-1 $155 $155 $107 $157 forward $104 $-1 #
coedge $-1 $156 $156 $230 $231 forward $106 $-1 #
edge $-1 $232 $232 $155 $233 forward #
loop $-1 $234 $235 $108 #
cone-surface $-1 0 0 0 0 0 1 0.5 0 0 1 I I -0.70710678118654746 0.70710678118654746 forward I I I I #
coedge $-1 $160 $160 $112 $162 forward $109 $-1 #
coedge $-1 $161 $161 $235 $236 forward $111 $-1 #
edge $-1 $237 $237 $160 $238 forward #
face $-1 $239 $240 $47 $-1 $241 reversed single #
loop $-1 $-1 $242 $113 #
plane-surface $-1 0 -205.83147679067355 0 0 1 0 0 0 1 forward_v I I I I #
coedge $-1 $243 $244 $245 $246 forward $114 $-1 #
coedge $-1 $247 $116 $248 $249 forward $79 $-1 #
coedge $-1 $116 $247 $250 $251 forward $79 $-1 #
coedge $-1 $252 $253 $116 $170 reversed $254 $-1 #
edge $-1 $255 $256 $169 $257 forward #
loop $-1 $258 $259 $117 #
cone-surface $-1 0 0 0 0 0 1 0.5 0 0 1 I I -0.70710678118654746 0.70710678118654746 forward I I I I #
coedge $-1 $173 $173 $121 $175 forward $118 $-1 #
coedge $-1 $174 $174 $259 $260 forward $120 $-1 #
edge $-1 $261 $261 $173 $262 forward #
loop $-1 $263 $264 $122 #
cone-surface $-1 0 0 0 0 0 1 0.5 0 0 1 I I -0.70710678118654746 0.70710678118654746 forward I I I I #
coedge $-1 $178 $178 $126 $180 forward $123 $-1 #
coedge $-1 $179 $179 $264 $265 forward $125 $-1 #
edge $-1 $266 $266 $178 $267 forward #
loop $-1 $268 $269 $127 #
cone-surface $-1 0 0 0 0 0 1 0.5 0 0 1 I I -0.70710678118654746 0.70710678118654746 forward I I I I #
coedge $-1 $183 $183 $131 $185 forward $128 $-1 #
coedge $-1 $184 $184 $269 $270 forward $130 $-1 #
edge $-1 $271 $271 $183 $272 forward #
face $-1 $273 $274 $37 $-1 $275 reversed single #
loop $-1 $-1 $276 $132 #
plane-surface $-1 -51.457869197668387 0 0 1 0 0 0 0 -1 forward_v I I I I #
coedge $-1 $277 $197 $278 $279 forward $133 $-1 #
coedge $-1 $280 $135 $277 $281 forward $91 $-1 #
coedge $-1 $135 $280 $282 $283 forward $91 $-1 #
coedge $-1 $200 $199 $135 $193 reversed $201 $-1 #
edge $-1 $284 $285 $192 $286 forward #
coedge $-1 $137 $136 $287 $288 forward $64 $-1 #
coedge $-1 $289 $290 $136 $196 reversed $274 $-1 #
edge $-1 $203 $291 $195 $292 forward #
coedge $-1 $189 $293 $137 $198 reversed $133 $-1 #
edge $-1 $294 $202 $197 $295 forward #
coedge $-1 $192 $138 $293 $296 forward $201 $-1 #
coedge $-1 $138 $192 $289 $297 reversed $201 $-1 #
loop $-1 $-1 $199 $273 #
vertex $-1 $139 $298 #
vertex $-1 $139 $299 #
straight-curve $-1 51.457869197668387 0 13.384784957351661 0 1 0 I I #
face $-1 $300 $301 $39 $-1 $302 reversed single #
loop $-1 $-1 $303 $140 #
plane-surface $-1 -7.1386466875771717 0 0 1 0 0 0 0 -1 forward_v I I I I #
coedge $-1 $304 $216 $305 $306 forward $141 $-1 #
coedge $-1 $307 $143 $304 $308 forward $95 $-1 #
coedge $-1 $143 $307 $309 $310 forward $95 $-1 #
coedge $-1 $219 $218 $143 $212 reversed $220 $-1 #
edge $-1 $311 $312 $211 $313 forward #
coedge $-1 $145 $144 $314 $315 forward $67 $-1 #
coedge $-1 $316 $317 $144 $215 reversed $301 $-1 #
edge $-1 $222 $318 $214 $319 forward #
coedge $-1 $208 $320 $145 $217 reversed $141 $-1 #
edge $-1 $321 $221 $216 $322 forward #
coedge $-1 $211 $146 $320 $323 forward $220 $-1 #
coedge $-1 $146 $211 $316 $324 reversed $220 $-1 #
loop $-1 $-1 $218 $300 #
vertex $-1 $147 $325 #
vertex $-1 $147 $326 #
straight-curve $-1 7.1386466875771717 0 102.91573839533677 0 1 0 I I #
loop $-1 $-1 $327 $98 #
coedge $-1 $225 $225 $151 $226 reversed $148 $-1 #
edge $-1 $328 $328 $225 $329 forward #
vertex $-1 $152 $330 #
ellipse-curve $-1 0 0 -1.733375041962951 0 0 -1 1 0 0 1 I I #
loop $-1 $-1 $331 $103 #
coedge $-1 $230 $230 $156 $231 reversed $153 $-1 #
edge $-1 $332 $332 $230 $333 forward #
vertex $-1 $157 $334 #
ellipse-curve $-1 0 0 -1.733375041962951 0 0 -1 1 0 0 1 I I #
loop $-1 $-1 $335 $108 #
coedge $-1 $235 $235 $161 $236 reversed $158 $-1 #
edge $-1 $336 $336 $235 $337 forward #
vertex $-1 $162 $338 #
ellipse-curve $-1 0 0 -1.733375041962951 0 0 -1 1 0 0 1 I I #
face $-1 $339 $340 $47 $-1 $341 reversed single #
loop $-1 $-1 $342 $163 #
plane-surface $-1 -7.1386466875771717 0 0 1 0 0 0 0 -1 forward_v I I I I #
coedge $-1 $343 $250 $344 $345 forward $164 $-1 #
coedge $-1 $346 $166 $343 $347 forward $114 $-1 #
coedge $-1 $166 $346 $348 $349 forward $114 $-1 #
coedge $-1 $253 $252 $166 $246 reversed $254 $-1 #
edge $-1 $350 $351 $245 $352 forward #
coedge $-1 $168 $167 $353 $354 forward $79 $-1 #
coedge $-1 $355 $356 $167 $249 reversed $340 $-1 #
edge $-1 $256 $357 $248 $358 forward #
coedge $-1 $242 $359 $168 $251 reversed $164 $-1 #
edge $-1 $360 $255 $250 $361 forward #
coedge $-1 $245 $169 $359 $362 forward $254 $-1 #
coedge $-1 $169 $245 $355 $363 reversed $254 $-1 #
loop $-1 $-1 $252 $339 #
vertex $-1 $170 $364 #
vertex $-1 $170 $365 #
straight-curve $-1 7.1386466875771717 0 102.91573839533677 0 1 0 I I #
loop $-1 $-1 $366 $117 #
coedge $-1 $259 $259 $174 $260 reversed $171 $-1 #
edge $-1 $367 $367 $259 $368 forward #
vertex $-1 $175 $369 #
ellipse-curve $-1 0 0 -1.733375041962951 0 0 -1 1 0 0 1 I I #
loop $-1 $-1 $370 $122 #
coedge $-1 $264 $264 $179 $265 reversed $176 $-1 #
edge $-1 $371 $371 $264 $372 forward #
vertex $-1 $180 $373 #
ellipse-curve $-1 0 0 -1.733375041962951 0 0 -1 1 0 0 1 I I #
loop $-1 $-1 $374 $127 #
coedge $-1 $269 $269 $184 $270 reversed $181 $-1 #
edge $-1 $375 $375 $269 $376 forward #
vertex $-1 $185 $377 #
ellipse-curve $-1 0 0 -1.733375041962951 0 0 -1 1 0 0 1 I I #
face $-1 $-1 $201 $37 $-1 $378 reversed single #
loop $-1 $-1 $289 $186 #
plane-surface $-1 0 33.915049738050051 0 0 -1 0 0 0 -1 forward_v I I I I #
coedge $-1 $379 $287 $290 $380 forward $187 $-1 #
coedge $-1 $293 $189 $190 $281 reversed $133 $-1 #
coedge $-1 $287 $379 $189 $279 reversed $187 $-1 #
edge $-1 $294 $381 $278 $382 forward #
coedge $-1 $191 $190 $379 $383 forward $91 $-1 #
edge $-1 $285 $381 $277 $384 forward #
coedge $-1 $290 $289 $191 $283 reversed $274 $-1 #
edge $-1 $385 $284 $282 $386 forward #
vertex $-1 $193 $387 #
vertex $-1 $296 $388 #
straight-curve $-1 51.457869197668387 0 -13.384784957351661 0 -1 0 I I #
coedge $-1 $276 $278 $194 $288 reversed $187 $-1 #
edge $-1 $291 $294 $287 $389 forward #
coedge $-1 $282 $195 $200 $297 forward $274 $-1 #
coedge $-1 $195 $282 $276 $380 reversed $274 $-1 #
vertex $-1 $196 $390 #
straight-curve $-1 0 33.915049738050051 13.384784957351661 -1 0 0 I I #
coedge $-1 $197 $277 $199 $296 reversed $133 $-1 #
vertex $-1 $288 $391 #
straight-curve $-1 0 -33.915049738050051 13.384784957351661 1 0 0 I I #
edge $-1 $202 $285 $199 $392 forward #
edge $-1 $203 $284 $200 $393 forward #
point $-1 51.457869197668387 -33.915049738050051 13.384784957351661 #
point $-1 51.457869197668387 33.915049738050051 13.384784957351661 #
face $-1 $-1 $220 $39 $-1 $394 reversed single #
loop $-1 $-1 $316 $205 #
plane-surface $-1 0 205.83147679067355 0 0 -1 0 0 0 -1 forward_v I I I I #
coedge $-1 $395 $314 $317 $396 forward $206 $-1 #
coedge $-1 $320 $208 $209 $308 reversed $141 $-1 #
coedge $-1 $314 $395 $208 $306 reversed $206 $-1 #
edge $-1 $321 $397 $305 $398 forward #
coedge $-1 $210 $209 $395 $399 forward $95 $-1 #
edge $-1 $312 $397 $304 $400 forward #
coedge $-1 $317 $316 $210 $310 reversed $301 $-1 #
edge $-1 $401 $311 $309 $402 forward #
vertex $-1 $212 $403 #
vertex $-1 $323 $404 #
straight-curve $-1 7.1386466875771717 0 -102.91573839533677 0 -1 0 I I #
coedge $-1 $303 $305 $213 $315 reversed $206 $-1 #
edge $-1 $318 $321 $314 $405 forward #
coedge $-1 $309 $214 $219 $324 forward $301 $-1 #
coedge $-1 $214 $309 $303 $396 reversed $301 $-1 #
vertex $-1 $215 $406 #
straight-curve $-1 0 205.83147679067355 102.91573839533677 -1 0 0 I I #
coedge $-1 $216 $304 $218 $323 reversed $141 $-1 #
vertex $-1 $315 $407 #
straight-curve $-1 0 -205.83147679067355 102.91573839533677 1 0 0 I I #
edge $-1 $221 $312 $218 $408 forward #
edge $-1 $222 $311 $219 $409 forward #
point $-1 7.1386466875771717 -205.83147679067355 102.91573839533677 #
point $-1 7.1386466875771717 205.83147679067355 102.91573839533677 #
coedge $-1 $327 $327 $-1 $410 reversed $224 $-1 #
vertex $-1 $226 $411 #
ellipse-curve $-1 0 0 -0.5 0 0 -1 1 0 0 1 I I #
point $-1 1 0 -1.733375041962951 #
coedge $-1 $331 $331 $-1 $412 reversed $229 $-1 #
vertex $-1 $231 $413 #
ellipse-curve $-1 0 0 -0.5 0 0 -1 1 0 0 1 I I #
point $-1 1 0 -1.733375041962951 #
coedge $-1 $335 $335 $-1 $414 reversed $234 $-1 #
vertex $-1 $236 $415 #
ellipse-curve $-1 0 0 -0.5 0 0 -1 1 0 0 1 I I #
point $-1 1 0 -1.733375041962951 #
face $-1 $-1 $254 $47 $-1 $416 reversed single #
loop $-1 $-1 $355 $239 #
plane-surface $-1 0 205.83147679067355 0 0 -1 0 0 0 -1 forward_v I I I I #
coedge $-1 $417 $353 $356 $418 forward $240 $-1 #
coedge $-1 $359 $242 $243 $347 reversed $164 $-1 #
coedge $-1 $353 $417 $242 $345 reversed $240 $-1 #
edge $-1 $360 $419 $344 $420 forward #
coedge $-1 $244 $243 $417 $421 forward $114 $-1 #
edge $-1 $351 $419 $343 $422 forward #
coedge $-1 $356 $355 $244 $349 reversed $340 $-1 #
edge $-1 $423 $350 $348 $424 forward #
vertex $-1 $246 $425 #
vertex $-1 $362 $426 #
straight-curve $-1 7.1386466875771717 0 -102.91573839533677 0 -1 0 I I #
coedge $-1 $342 $344 $247 $354 reversed $240 $-1 #
edge $-1 $357 $360 $353 $427 forward #
coedge $-1 $348 $248 $253 $363 forward $340 $-1 #
coedge $-1 $248 $348 $342 $418 reversed $340 $-1 #
vertex $-1 $249 $428 #
straight-curve $-1 0 205.83147679067355 102.91573839533677 -1 0 0 I I #
coedge $-1 $250 $343 $252 $362 reversed $164 $-1 #
vertex $-1 $354 $429 #
straight-curve $-1 0 -205.83147679067355 102.91573839533677 1 0 0 I I #
edge $-1 $255 $351 $252 $430 forward #
edge $-1 $256 $350 $253 $431 forward #
point $-1 7.1386466875771717 -205.83147679067355 102.91573839533677 #
point $-1 7.1386466875771717 205.83147679067355 102.91573839533677 #
coedge $-1 $366 $366 $-1 $432 reversed $258 $-1 #
vertex $-1 $260 $433 #
ellipse-curve $-1 0 0 -0.5 0 0 -1 1 0 0 1 I I #
point $-1 1 0 -1.733375041962951 #
coedge $-1 $370 $370 $-1 $434 reversed $263 $-1 #
vertex $-1 $265 $435 #
ellipse-curve $-1 0 0 -0.5 0 0 -1 1 0 0 1 I I #
point $-1 1 0 -1.733375041962951 #
coedge $-1 $374 $374 $-1 $436 reversed $268 $-1 #
vertex $-1 $270 $437 #
ellipse-curve $-1 0 0 -0.5 0 0 -1 1 0 0 1 I I #
point $-1 1 0 -1.733375041962951 #
plane-surface $-1 51.457869197668387 0 0 -1 0 0 0 0 1 forward_v I I I I #
coedge $-1 $278 $276 $280 $383 reversed $187 $-1 #
edge $-1 $291 $385 $290 $438 forward #
vertex $-1 $383 $439 #
straight-curve $-1 -51.457869197668387 -33.915049738050051 0 0 0 -1 I I #
edge $-1 $381 $385 $379 $440 forward #
straight-curve $-1 0 -33.915049738050051 -13.384784957351661 -1 0 0 I I #
vertex $-1 $283 $441 #
straight-curve $-1 0 33.915049738050051 -13.384784957351661 1 0 0 I I #
point $-1 51.457869197668387 33.915049738050051 -13.384784957351661 #
point $-1 51.457869197668387 -33.915049738050051 -13.384784957351661 #
straight-curve $-1 -51.457869197668387 0 13.384784957351661 0 -1 0 I I #
point $-1 -51.457869197668387 33.915049738050051 13.384784957351661 #
point $-1 -51.457869197668387 -33.915049738050051 13.384784957351661 #
straight-curve $-1 51.457869197668387 -33.915049738050051 0 0 0 -1 I I #
straight-curve $-1 51.457869197668387 33.915049738050051 0 0 0 -1 I I #
plane-surface $-1 7.1386466875771717 0 0 -1 0 0 0 0 1 forward_v I I I I #
coedge $-1 $305 $303 $307 $399 reversed $206 $-1 #
edge $-1 $318 $401 $317 $442 forward #
vertex $-1 $399 $443 #
straight-curve $-1 -7.1386466875771717 -205.83147679067355 0 0 0 -1 I I #
edge $-1 $397 $401 $395 $444 forward #
straight-curve $-1 0 -205.83147679067355 -102.91573839533677 -1 0 0 I I #
vertex $-1 $310 $445 #
straight-curve $-1 0 205.83147679067355 -102.91573839533677 1 0 0 I I #
point $-1 7.1386466875771717 205.83147679067355 -102.91573839533677 #
point $-1 7.1386466875771717 -205.83147679067355 -102.91573839533677 #
straight-curve $-1 -7.1386466875771717 0 102.91573839533677 0 -1 0 I I #
point $-1 -7.1386466875771717 205.83147679067355 102.91573839533677 #
point $-1 -7.1386466875771717 -205.83147679067355 102.91573839533677 #
straight-curve $-1 7.1386466875771717 -205.83147679067355 0 0 0 -1 I I #
straight-curve $-1 7.1386466875771717 205.83147679067355 0 0 0 -1 I I #
edge $-1 $446 $446 $327 $-1 forward #
point $-1 1 0 -0.5 #
edge $-1 $447 $447 $331 $-1 forward #
point $-1 1 0 -0.5 #
edge $-1 $448 $448 $335 $-1 forward #
point $-1 1 0 -0.5 #
plane-surface $-1 7.1386466875771717 0 0 -1 0 0 0 0 1 forward_v I I I I #
coedge $-1 $344 $342 $346 $421 reversed $240 $-1 #
edge $-1 $357 $423 $356 $449 forward #
vertex $-1 $421 $450 #
straight-curve $-1 -7.1386466875771717 -205.83147679067355 0 0 0 -1 I I #
edge $-1 $419 $423 $417 $451 forward #
straight-curve $-1 0 -205.83147679067355 -102.91573839533677 -1 0 0 I I #
vertex $-1 $349 $452 #
straight-curve $-1 0 205.83147679067355 -102.91573839533677 1 0 0 I I #
point $-1 7.1386466875771717 205.83147679067355 -102.91573839533677 #
point $-1 7.1386466875771717 -205.83147679067355 -102.91573839533677 #
straight-curve $-1 -7.1386466875771717 0 102.91573839533677 0 -1 0 I I #
point $-1 -7.1386466875771717 205.83147679067355 102.91573839533677 #
point $-1 -7.1386466875771717 -205.83147679067355 102.91573839533677 #
straight-curve $-1 7.1386466875771717 -205.83147679067355 0 0 0 -1 I I #
straight-curve $-1 7.1386466875771717 205.83147679067355 0 0 0 -1 I I #
edge $-1 $453 $453 $366 $-1 forward #
point $-1 1 0 -0.5 #
edge $-1 $454 $454 $370 $-1 forward #
point $-1 1 0 -0.5 #
edge $-1 $455 $455 $374 $-1 forward #
point $-1 1 0 -0.5 #
straight-curve $-1 -51.457869197668387 33.915049738050051 0 0 0 -1 I I #
point $-1 -51.457869197668387 -33.915049738050051 -13.384784957351661 #
straight-curve $-1 -51.457869197668387 0 -13.384784957351661 0 1 0 I I #
point $-1 -51.457869197668387 33.915049738050051 -13.384784957351661 #
straight-curve $-1 -7.1386466875771717 205.83147679067355 0 0 0 -1 I I #
point $-1 -7.1386466875771717 -205.83147679067355 -102.91573839533677 #
straight-curve $-1 -7.1386466875771717 0 -102.91573839533677 0 1 0 I I #
point $-1 -7.1386466875771717 205.83147679067355 -102.91573839533677 #
vertex $-1 $410 $456 #
vertex $-1 $412 $457 #
vertex $-1 $414 $458 #
straight-curve $-1 -7.1386466875771717 205.83147679067355 0 0 0 -1 I I #
point $-1 -7.1386466875771717 -205.83147679067355 -102.91573839533677 #
straight-curve $-1 -7.1386466875771717 0 -102.91573839533677 0 1 0 I I #
point $-1 -7.1386466875771717 205.83147679067355 -102.91573839533677 #
vertex $-1 $432 $459 #
vertex $-1 $434 $460 #
vertex $-1 $436 $461 #
point $-1 0 0 0.5 #
point $-1 0 0 0.5 #
point $-1 0 0 0.5 #
point $-1 0 0 0.5 #
point $-1 0 0 0.5 #
point $-1 0 0 0.5 #
End-of-ACIS-data 