600 0 8 0           
93 GICL ACIS Healer - Source: /gicl/data5/repository/Drexel/SM99-DATA/part85.smdg.feat.sat - 6 0 18 ACIS 6.0.3 Solaris 24 Sat Apr 13 20:46:13 2002 
1 9.999999999999999547e-07 1.000000000000000036e-10 
body $-1 $8 $-1 $-1 #
body $-1 $9 $-1 $-1 #
body $-1 $10 $-1 $-1 #
body $-1 $11 $-1 $-1 #
body $-1 $12 $-1 $-1 #
body $-1 $13 $-1 $-1 #
body $-1 $14 $-1 $-1 #
body $-1 $15 $-1 $-1 #
lump $-1 $-1 $16 $0 #
lump $-1 $-1 $17 $1 #
lump $-1 $-1 $18 $2 #
lump $-1 $-1 $19 $3 #
lump $-1 $-1 $20 $4 #
lump $-1 $-1 $21 $5 #
lump $-1 $-1 $22 $6 #
lump $-1 $-1 $23 $7 #
shell $-1 $-1 $-1 $24 $-1 $8 #
shell $-1 $-1 $-1 $25 $-1 $9 #
shell $-1 $-1 $-1 $26 $-1 $10 #
shell $-1 $-1 $-1 $27 $-1 $11 #
shell $-1 $-1 $-1 $28 $-1 $12 #
shell $-1 $-1 $-1 $29 $-1 $13 #
shell $-1 $-1 $-1 $30 $-1 $14 #
shell $-1 $-1 $-1 $31 $-1 $15 #
face $-1 $32 $33 $16 $-1 $34 forward single #
face $-1 $35 $36 $17 $-1 $37 forward single #
face $-1 $38 $39 $18 $-1 $40 forward single #
face $-1 $41 $42 $19 $-1 $43 forward single #
face $-1 $44 $45 $20 $-1 $46 forward single #
face $-1 $47 $48 $21 $-1 $49 forward single #
face $-1 $50 $51 $22 $-1 $52 forward single #
face $-1 $53 $54 $23 $-1 $55 forward single #
face $-1 $56 $57 $16 $-1 $58 reversed single #
loop $-1 $-1 $59 $24 #
plane-surface $-1 66.2715536973174153 30.21527379561978677 23.47085067048892171 0 0 1 1 0 0 forward_v I I I I #
face $-1 $60 $61 $17 $-1 $62 reversed single #
loop $-1 $-1 $63 $25 #
plane-surface $-1 7.689004693488864284 30.21527379561978677 23.47085067048892171 0 0 1 1 0 0 forward_v I I I I #
face $-1 $64 $65 $18 $-1 $66 reversed single #
loop $-1 $-1 $67 $26 #
plane-surface $-1 255.1417120276174728 8.292081301719473885 283.9813160530597997 0.7771459697322561366 0 0.629320380830711068 0.629320380830711068 0 -0.7771459697322561366 forward_v I I I I #
face $-1 $68 $69 $19 $-1 $70 forward single #
loop $-1 $71 $72 $27 #
cone-surface $-1 128.3813320466244079 6.786343193840584931 18.49667348551654911 -0.7771459697322561366 0 -0.629320380830711068 0.314660190415355534 0 -0.3885729848661280683 1 I I 0 1 0.5 forward I I I I #
face $-1 $73 $74 $20 $-1 $75 forward single #
loop $-1 $76 $77 $28 #
cone-surface $-1 128.3813320466244079 9.797819409598362839 18.49667348551654911 -0.7771459697322561366 0 -0.629320380830711068 0.314660190415355534 0 -0.3885729848661280683 1 I I 0 1 0.5 forward I I I I #
face $-1 $78 $79 $21 $-1 $80 reversed single #
loop $-1 $-1 $81 $29 #
plane-surface $-1 255.1417120276174728 38.5073550973392642 283.9813160530597997 0.7771459697322561366 0 0.629320380830711068 0.629320380830711068 0 -0.7771459697322561366 forward_v I I I I #
face $-1 $82 $83 $22 $-1 $84 forward single #
loop $-1 $85 $86 $30 #
cone-surface $-1 128.3813320466244079 37.00161698946037347 18.49667348551654911 -0.7771459697322561366 0 -0.629320380830711068 0.314660190415355534 0 -0.3885729848661280683 1 I I 0 1 0.5 forward I I I I #
face $-1 $87 $88 $23 $-1 $89 forward single #
loop $-1 $90 $91 $31 #
cone-surface $-1 128.3813320466244079 40.01309320521815494 18.49667348551654911 -0.7771459697322561366 0 -0.629320380830711068 0.314660190415355534 0 -0.3885729848661280683 1 I I 0 1 0.5 forward I I I I #
face $-1 $92 $93 $16 $-1 $94 reversed single #
loop $-1 $-1 $95 $32 #
plane-surface $-1 66.2715536973174153 30.21527379561978677 0 0 0 1 1 0 0 forward_v I I I I #
coedge $-1 $96 $97 $98 $99 forward $33 $-1 #
face $-1 $100 $101 $17 $-1 $102 reversed single #
loop $-1 $-1 $103 $35 #
plane-surface $-1 7.689004693488864284 30.21527379561978677 19.07415800712248455 0 0 1 1 0 0 forward_v I I I I #
coedge $-1 $104 $105 $106 $107 forward $36 $-1 #
face $-1 $108 $109 $18 $-1 $110 reversed single #
loop $-1 $-1 $111 $38 #
plane-surface $-1 49.13102857255738343 8.292081301719473885 117.1571584089049338 0.7771459697322561366 0 0.629320380830711068 0.629320380830711068 0 -0.7771459697322561366 forward_v I I I I #
coedge $-1 $112 $113 $114 $115 forward $39 $-1 #
face $-1 $-1 $116 $19 $-1 $117 forward single #
loop $-1 $-1 $118 $41 #
plane-surface $-1 128.7699050314905378 6.786343193840584931 18.81133367593190542 0.7771459697322561366 0 0.629320380830711068 -0.629320380830711068 0 0.7771459697322561366 forward_v I I I I #
loop $-1 $-1 $119 $27 #
coedge $-1 $72 $72 $118 $120 reversed $42 $-1 #
face $-1 $-1 $121 $20 $-1 $122 forward single #
loop $-1 $-1 $123 $44 #
plane-surface $-1 128.7699050314905378 9.797819409598362839 18.81133367593190542 0.7771459697322561366 0 0.629320380830711068 -0.629320380830711068 0 0.7771459697322561366 forward_v I I I I #
loop $-1 $-1 $124 $28 #
coedge $-1 $77 $77 $123 $125 reversed $45 $-1 #
face $-1 $126 $127 $21 $-1 $128 reversed single #
loop $-1 $-1 $129 $47 #
plane-surface $-1 49.13102857255738343 38.5073550973392642 117.1571584089049338 0.7771459697322561366 0 0.629320380830711068 0.629320380830711068 0 -0.7771459697322561366 forward_v I I I I #
coedge $-1 $130 $131 $132 $133 forward $48 $-1 #
face $-1 $-1 $134 $22 $-1 $135 forward single #
loop $-1 $-1 $136 $50 #
plane-surface $-1 128.7699050314905378 37.00161698946037347 18.81133367593190542 0.7771459697322561366 0 0.629320380830711068 -0.629320380830711068 0 0.7771459697322561366 forward_v I I I I #
loop $-1 $-1 $137 $30 #
coedge $-1 $86 $86 $136 $138 reversed $51 $-1 #
face $-1 $-1 $139 $23 $-1 $140 forward single #
loop $-1 $-1 $141 $53 #
plane-surface $-1 128.7699050314905378 40.01309320521815494 18.81133367593190542 0.7771459697322561366 0 0.629320380830711068 -0.629320380830711068 0 0.7771459697322561366 forward_v I I I I #
loop $-1 $-1 $142 $31 #
coedge $-1 $91 $91 $141 $143 reversed $54 $-1 #
face $-1 $144 $145 $16 $-1 $146 reversed single #
loop $-1 $-1 $147 $56 #
plane-surface $-1 66.2715536973174153 0 11.73542533524446085 0 1 0 0 0 1 forward_v I I I I #
coedge $-1 $148 $149 $150 $151 forward $57 $-1 #
coedge $-1 $152 $59 $153 $154 forward $33 $-1 #
coedge $-1 $59 $152 $155 $156 forward $33 $-1 #
coedge $-1 $157 $158 $59 $99 reversed $159 $-1 #
edge $-1 $160 -30.21527379561978677 $161 30.21527379561978677 $98 $162 forward 7 unknown #
face $-1 $163 $164 $17 $-1 $165 reversed single #
loop $-1 $-1 $166 $60 #
plane-surface $-1 7.689004693488864284 0 21.27250433880570313 0 1 0 0 0 1 forward_v I I I I #
coedge $-1 $167 $168 $169 $170 forward $61 $-1 #
coedge $-1 $171 $63 $172 $173 forward $36 $-1 #
coedge $-1 $63 $171 $174 $175 forward $36 $-1 #
coedge $-1 $176 $177 $63 $107 reversed $178 $-1 #
edge $-1 $179 -30.21527379561978677 $180 30.21527379561978677 $106 $181 forward 7 unknown #
face $-1 $182 $183 $18 $-1 $184 reversed single #
loop $-1 $-1 $185 $64 #
plane-surface $-1 152.1363703000874352 4.778692383335400251 200.5692372309823668 0 1 0 0.7771459697322561366 0 0.629320380830711068 forward_v I I I I #
coedge $-1 $186 $187 $188 $189 forward $65 $-1 #
coedge $-1 $190 $67 $191 $192 forward $39 $-1 #
coedge $-1 $67 $190 $193 $194 forward $39 $-1 #
coedge $-1 $195 $196 $67 $115 reversed $197 $-1 #
edge $-1 $198 -3.513388918384073634 $199 3.513388918384073634 $114 $200 forward 7 unknown #
loop $-1 $201 $202 $68 #
cone-surface $-1 127.7984725693252273 6.786343193840584931 18.02468319989351642 -0.7771459697322561366 0 -0.629320380830711068 0.157330095207677767 0 -0.1942864924330640342 1 I I -0.7071067811865474617 0.7071067811865474617 0.25 forward I I I I #
coedge $-1 $118 $118 $72 $120 forward $69 $-1 #
coedge $-1 $119 $119 $202 $203 forward $71 $-1 #
edge $-1 $204 0 $204 6.283185307179586232 $118 $205 forward 7 unknown #
loop $-1 $206 $207 $73 #
cone-surface $-1 127.7984725693252273 9.797819409598362839 18.02468319989351642 -0.7771459697322561366 0 -0.629320380830711068 0.157330095207677767 0 -0.1942864924330640342 1 I I -0.7071067811865474617 0.7071067811865474617 0.25 forward I I I I #
coedge $-1 $123 $123 $77 $125 forward $74 $-1 #
coedge $-1 $124 $124 $207 $208 forward $76 $-1 #
edge $-1 $209 0 $209 6.283185307179586232 $123 $210 forward 7 unknown #
face $-1 $211 $212 $21 $-1 $213 reversed single #
loop $-1 $-1 $214 $78 #
plane-surface $-1 152.1363703000874352 34.99396617895519057 200.5692372309823668 0 1 0 0.7771459697322561366 0 0.629320380830711068 forward_v I I I I #
coedge $-1 $215 $216 $217 $218 forward $79 $-1 #
coedge $-1 $219 $81 $220 $221 forward $48 $-1 #
coedge $-1 $81 $219 $222 $223 forward $48 $-1 #
coedge $-1 $224 $225 $81 $133 reversed $226 $-1 #
edge $-1 $227 -3.513388918384073634 $228 3.513388918384073634 $132 $229 forward 7 unknown #
loop $-1 $230 $231 $82 #
cone-surface $-1 127.7984725693252273 37.00161698946037347 18.02468319989351642 -0.7771459697322561366 0 -0.629320380830711068 0.157330095207677767 0 -0.1942864924330640342 1 I I -0.7071067811865474617 0.7071067811865474617 0.25 forward I I I I #
coedge $-1 $136 $136 $86 $138 forward $83 $-1 #
coedge $-1 $137 $137 $231 $232 forward $85 $-1 #
edge $-1 $233 0 $233 6.283185307179586232 $136 $234 forward 7 unknown #
loop $-1 $235 $236 $87 #
cone-surface $-1 127.7984725693252273 40.01309320521815494 18.02468319989351642 -0.7771459697322561366 0 -0.629320380830711068 0.157330095207677767 0 -0.1942864924330640342 1 I I -0.7071067811865474617 0.7071067811865474617 0.25 forward I I I I #
coedge $-1 $141 $141 $91 $143 forward $88 $-1 #
coedge $-1 $142 $142 $236 $237 forward $90 $-1 #
edge $-1 $238 0 $238 6.283185307179586232 $141 $239 forward 7 unknown #
face $-1 $240 $241 $16 $-1 $242 reversed single #
loop $-1 $-1 $243 $92 #
plane-surface $-1 0 30.21527379561978677 11.73542533524446085 1 0 0 0 0 -1 forward_v I I I I #
coedge $-1 $244 $155 $245 $246 forward $93 $-1 #
coedge $-1 $247 $95 $244 $248 forward $57 $-1 #
coedge $-1 $95 $247 $249 $250 forward $57 $-1 #
coedge $-1 $158 $157 $95 $151 reversed $159 $-1 #
edge $-1 $251 -30.21527379561978677 $252 30.21527379561978677 $150 $253 forward 7 unknown #
coedge $-1 $97 $96 $254 $255 forward $33 $-1 #
coedge $-1 $256 $257 $96 $154 reversed $241 $-1 #
edge $-1 $161 -66.2715536973174153 $258 66.2715536973174153 $153 $259 forward 7 unknown #
coedge $-1 $147 $260 $97 $156 reversed $93 $-1 #
edge $-1 $261 -66.2715536973174153 $160 66.2715536973174153 $155 $262 forward 7 unknown #
coedge $-1 $150 $98 $260 $263 forward $159 $-1 #
coedge $-1 $98 $150 $256 $264 reversed $159 $-1 #
loop $-1 $-1 $157 $240 #
vertex $-1 $99 $265 #
vertex $-1 $99 $266 #
straight-curve $-1 132.5431073946348306 30.21527379561978677 23.47085067048892171 0 1 0 I I #
face $-1 $267 $268 $17 $-1 $269 reversed single #
loop $-1 $-1 $270 $100 #
plane-surface $-1 0 30.21527379561978677 21.27250433880570313 1 0 0 0 0 -1 forward_v I I I I #
coedge $-1 $271 $174 $272 $273 forward $101 $-1 #
coedge $-1 $274 $103 $271 $275 forward $61 $-1 #
coedge $-1 $103 $274 $276 $277 forward $61 $-1 #
coedge $-1 $177 $176 $103 $170 reversed $178 $-1 #
edge $-1 $278 -30.21527379561978677 $279 30.21527379561978677 $169 $280 forward 7 unknown #
coedge $-1 $105 $104 $281 $282 forward $36 $-1 #
coedge $-1 $283 $284 $104 $173 reversed $268 $-1 #
edge $-1 $180 -7.689004693488864284 $285 7.689004693488864284 $172 $286 forward 7 unknown #
coedge $-1 $166 $287 $105 $175 reversed $101 $-1 #
edge $-1 $288 -7.689004693488864284 $179 7.689004693488864284 $174 $289 forward 7 unknown #
coedge $-1 $169 $106 $287 $290 forward $178 $-1 #
coedge $-1 $106 $169 $283 $291 reversed $178 $-1 #
loop $-1 $-1 $176 $267 #
vertex $-1 $107 $292 #
vertex $-1 $107 $293 #
straight-curve $-1 15.37800938697772857 30.21527379561978677 23.47085067048892171 0 1 0 I I #
face $-1 $294 $295 $18 $-1 $296 reversed single #
loop $-1 $-1 $297 $108 #
plane-surface $-1 -14.68778734406743069 8.292081301719473885 406.579920686042442 0.629320380830711068 0 -0.7771459697322561366 -0.7771459697322561366 0 -0.629320380830711068 forward_v I I I I #
coedge $-1 $298 $193 $299 $300 forward $109 $-1 #
coedge $-1 $301 $111 $298 $302 forward $65 $-1 #
coedge $-1 $111 $301 $303 $304 forward $65 $-1 #
coedge $-1 $196 $195 $111 $189 reversed $197 $-1 #
edge $-1 $305 -3.513388918384073634 $306 3.513388918384073634 $188 $307 forward 7 unknown #
coedge $-1 $113 $112 $308 $309 forward $39 $-1 #
coedge $-1 $310 $311 $112 $192 reversed $295 $-1 #
edge $-1 $199 -265.0862147892696612 $312 265.0862147892696612 $191 $313 forward 7 unknown #
coedge $-1 $185 $314 $113 $194 reversed $109 $-1 #
edge $-1 $315 -265.0862147892696612 $198 265.0862147892696612 $193 $316 forward 7 unknown #
coedge $-1 $188 $114 $314 $317 forward $197 $-1 #
coedge $-1 $114 $188 $310 $318 reversed $197 $-1 #
loop $-1 $-1 $195 $294 #
vertex $-1 $115 $319 #
vertex $-1 $115 $320 #
straight-curve $-1 421.9658696717723387 8.292081301719473885 77.97063259799969615 0 1 0 I I #
loop $-1 $-1 $321 $68 #
coedge $-1 $202 $202 $119 $203 reversed $116 $-1 #
edge $-1 $322 0 $322 6.283185307179586232 $202 $323 forward 7 unknown #
vertex $-1 $120 $324 #
ellipse-curve $-1 128.7699050314905378 6.786343193840584931 18.81133367593190542 0.7771459697322561366 0 0.629320380830711068 0.314660190415355534 0 -0.3885729848661280683 1 I I #
loop $-1 $-1 $325 $73 #
coedge $-1 $207 $207 $124 $208 reversed $121 $-1 #
edge $-1 $326 0 $326 6.283185307179586232 $207 $327 forward 7 unknown #
vertex $-1 $125 $328 #
ellipse-curve $-1 128.7699050314905378 9.797819409598362839 18.81133367593190542 0.7771459697322561366 0 0.629320380830711068 0.314660190415355534 0 -0.3885729848661280683 1 I I #
face $-1 $329 $330 $21 $-1 $331 reversed single #
loop $-1 $-1 $332 $126 #
plane-surface $-1 -14.68778734406743069 38.5073550973392642 406.579920686042442 0.629320380830711068 0 -0.7771459697322561366 -0.7771459697322561366 0 -0.629320380830711068 forward_v I I I I #
coedge $-1 $333 $222 $334 $335 forward $127 $-1 #
coedge $-1 $336 $129 $333 $337 forward $79 $-1 #
coedge $-1 $129 $336 $338 $339 forward $79 $-1 #
coedge $-1 $225 $224 $129 $218 reversed $226 $-1 #
edge $-1 $340 -3.513388918384073634 $341 3.513388918384073634 $217 $342 forward 7 unknown #
coedge $-1 $131 $130 $343 $344 forward $48 $-1 #
coedge $-1 $345 $346 $130 $221 reversed $330 $-1 #
edge $-1 $228 -265.0862147892696612 $347 265.0862147892696612 $220 $348 forward 7 unknown #
coedge $-1 $214 $349 $131 $223 reversed $127 $-1 #
edge $-1 $350 -265.0862147892696612 $227 265.0862147892696612 $222 $351 forward 7 unknown #
coedge $-1 $217 $132 $349 $352 forward $226 $-1 #
coedge $-1 $132 $217 $345 $353 reversed $226 $-1 #
loop $-1 $-1 $224 $329 #
vertex $-1 $133 $354 #
vertex $-1 $133 $355 #
straight-curve $-1 421.9658696717723387 38.5073550973392642 77.97063259799969615 0 1 0 I I #
loop $-1 $-1 $356 $82 #
coedge $-1 $231 $231 $137 $232 reversed $134 $-1 #
edge $-1 $357 0 $357 6.283185307179586232 $231 $358 forward 7 unknown #
vertex $-1 $138 $359 #
ellipse-curve $-1 128.7699050314905378 37.00161698946037347 18.81133367593190542 0.7771459697322561366 0 0.629320380830711068 0.314660190415355534 0 -0.3885729848661280683 1 I I #
loop $-1 $-1 $360 $87 #
coedge $-1 $236 $236 $142 $237 reversed $139 $-1 #
edge $-1 $361 0 $361 6.283185307179586232 $236 $362 forward 7 unknown #
vertex $-1 $143 $363 #
ellipse-curve $-1 128.7699050314905378 40.01309320521815494 18.81133367593190542 0.7771459697322561366 0 0.629320380830711068 0.314660190415355534 0 -0.3885729848661280683 1 I I #
face $-1 $-1 $159 $16 $-1 $364 reversed single #
loop $-1 $-1 $256 $144 #
plane-surface $-1 66.2715536973174153 60.43054759123957353 11.73542533524446085 0 -1 0 0 0 -1 forward_v I I I I #
coedge $-1 $365 $254 $257 $366 forward $145 $-1 #
coedge $-1 $260 $147 $148 $248 reversed $93 $-1 #
coedge $-1 $254 $365 $147 $246 reversed $145 $-1 #
edge $-1 $261 -11.73542533524446085 $367 11.73542533524446085 $245 $368 forward 7 unknown #
coedge $-1 $149 $148 $365 $369 forward $57 $-1 #
edge $-1 $252 -66.2715536973174153 $367 66.2715536973174153 $244 $370 forward 7 unknown #
coedge $-1 $257 $256 $149 $250 reversed $241 $-1 #
edge $-1 $371 -66.2715536973174153 $251 66.2715536973174153 $249 $372 forward 7 unknown #
vertex $-1 $151 $373 #
vertex $-1 $263 $374 #
straight-curve $-1 132.5431073946348306 30.21527379561978677 0 0 -1 0 I I #
coedge $-1 $243 $245 $152 $255 reversed $145 $-1 #
edge $-1 $258 -30.21527379561978677 $261 30.21527379561978677 $254 $375 forward 7 unknown #
coedge $-1 $249 $153 $158 $264 forward $241 $-1 #
coedge $-1 $153 $249 $243 $366 reversed $241 $-1 #
vertex $-1 $154 $376 #
straight-curve $-1 66.2715536973174153 60.43054759123957353 23.47085067048892171 -1 0 0 I I #
coedge $-1 $155 $244 $157 $263 reversed $93 $-1 #
vertex $-1 $255 $377 #
straight-curve $-1 66.2715536973174153 0 23.47085067048892171 1 0 0 I I #
edge $-1 $160 -11.73542533524446085 $252 11.73542533524446085 $157 $378 forward 7 unknown #
edge $-1 $161 -11.73542533524446085 $251 11.73542533524446085 $158 $379 forward 7 unknown #
point $-1 132.5431073946348306 0 23.47085067048892171 #
point $-1 132.5431073946348306 60.43054759123957353 23.47085067048892171 #
face $-1 $-1 $178 $17 $-1 $380 reversed single #
loop $-1 $-1 $283 $163 #
plane-surface $-1 7.689004693488864284 60.43054759123957353 21.27250433880570313 0 -1 0 0 0 -1 forward_v I I I I #
coedge $-1 $381 $281 $284 $382 forward $164 $-1 #
coedge $-1 $287 $166 $167 $275 reversed $101 $-1 #
coedge $-1 $281 $381 $166 $273 reversed $164 $-1 #
edge $-1 $288 -2.19834633168321858 $383 2.19834633168321858 $272 $384 forward 7 unknown #
coedge $-1 $168 $167 $381 $385 forward $61 $-1 #
edge $-1 $279 -7.689004693488864284 $383 7.689004693488864284 $271 $386 forward 7 unknown #
coedge $-1 $284 $283 $168 $277 reversed $268 $-1 #
edge $-1 $387 -7.689004693488864284 $278 7.689004693488864284 $276 $388 forward 7 unknown #
vertex $-1 $170 $389 #
vertex $-1 $290 $390 #
straight-curve $-1 15.37800938697772857 30.21527379561978677 19.07415800712248455 0 -1 0 I I #
coedge $-1 $270 $272 $171 $282 reversed $164 $-1 #
edge $-1 $285 -30.21527379561978677 $288 30.21527379561978677 $281 $391 forward 7 unknown #
coedge $-1 $276 $172 $177 $291 forward $268 $-1 #
coedge $-1 $172 $276 $270 $382 reversed $268 $-1 #
vertex $-1 $173 $392 #
straight-curve $-1 7.689004693488864284 60.43054759123957353 23.47085067048892171 -1 0 0 I I #
coedge $-1 $174 $271 $176 $290 reversed $101 $-1 #
vertex $-1 $282 $393 #
straight-curve $-1 7.689004693488864284 0 23.47085067048892171 1 0 0 I I #
edge $-1 $179 -2.19834633168321858 $279 2.19834633168321858 $176 $394 forward 7 unknown #
edge $-1 $180 -2.19834633168321858 $278 2.19834633168321858 $177 $395 forward 7 unknown #
point $-1 15.37800938697772857 0 23.47085067048892171 #
point $-1 15.37800938697772857 60.43054759123957353 23.47085067048892171 #
face $-1 $-1 $197 $18 $-1 $396 reversed single #
loop $-1 $-1 $310 $182 #
plane-surface $-1 152.1363703000874352 11.80547022010354752 200.5692372309823668 0 -1 0 -0.7771459697322561366 0 -0.629320380830711068 forward_v I I I I #
coedge $-1 $397 $308 $311 $398 forward $183 $-1 #
coedge $-1 $314 $185 $186 $302 reversed $109 $-1 #
coedge $-1 $308 $397 $185 $300 reversed $183 $-1 #
edge $-1 $315 -132.5431073946348306 $399 132.5431073946348306 $299 $400 forward 7 unknown #
coedge $-1 $187 $186 $397 $401 forward $65 $-1 #
edge $-1 $306 -265.0862147892696612 $399 265.0862147892696612 $298 $402 forward 7 unknown #
coedge $-1 $311 $310 $187 $304 reversed $295 $-1 #
edge $-1 $403 -265.0862147892696612 $305 265.0862147892696612 $303 $404 forward 7 unknown #
vertex $-1 $189 $405 #
vertex $-1 $317 $406 #
straight-curve $-1 215.9551862167122636 8.292081301719473885 -88.85352504615514135 0 -1 0 I I #
coedge $-1 $297 $299 $190 $309 reversed $183 $-1 #
edge $-1 $312 -3.513388918384073634 $315 3.513388918384073634 $308 $407 forward 7 unknown #
coedge $-1 $303 $191 $196 $318 forward $295 $-1 #
coedge $-1 $191 $303 $297 $398 reversed $295 $-1 #
vertex $-1 $192 $408 #
straight-curve $-1 255.1417120276174728 11.80547022010354752 283.9813160530597997 -0.629320380830711068 0 0.7771459697322561366 I I #
coedge $-1 $193 $298 $195 $317 reversed $109 $-1 #
vertex $-1 $309 $409 #
straight-curve $-1 255.1417120276174728 4.778692383335400251 283.9813160530597997 0.629320380830711068 0 -0.7771459697322561366 I I #
edge $-1 $198 -132.5431073946348306 $306 132.5431073946348022 $195 $410 forward 7 unknown #
edge $-1 $199 -132.5431073946348306 $305 132.5431073946348022 $196 $411 forward 7 unknown #
point $-1 421.9658696717723387 4.778692383335400251 77.97063259799969615 #
point $-1 421.9658696717723387 11.80547022010354752 77.97063259799969615 #
coedge $-1 $321 $321 $-1 $412 reversed $201 $-1 #
vertex $-1 $203 $413 #
ellipse-curve $-1 127.9927590617582922 6.786343193840584931 18.1820132951011928 0.7771459697322561366 0 0.629320380830711068 0.314660190415355534 0 -0.3885729848661280683 1 I I #
point $-1 129.0845652219059048 6.786343193840584931 18.42276069106577552 #
coedge $-1 $325 $325 $-1 $414 reversed $206 $-1 #
vertex $-1 $208 $415 #
ellipse-curve $-1 127.9927590617582922 9.797819409598362839 18.1820132951011928 0.7771459697322561366 0 0.629320380830711068 0.314660190415355534 0 -0.3885729848661280683 1 I I #
point $-1 129.0845652219059048 9.797819409598362839 18.42276069106577552 #
face $-1 $-1 $226 $21 $-1 $416 reversed single #
loop $-1 $-1 $345 $211 #
plane-surface $-1 152.1363703000874352 42.02074401572333784 200.5692372309823668 0 -1 0 -0.7771459697322561366 0 -0.629320380830711068 forward_v I I I I #
coedge $-1 $417 $343 $346 $418 forward $212 $-1 #
coedge $-1 $349 $214 $215 $337 reversed $127 $-1 #
coedge $-1 $343 $417 $214 $335 reversed $212 $-1 #
edge $-1 $350 -132.5431073946348306 $419 132.5431073946348306 $334 $420 forward 7 unknown #
coedge $-1 $216 $215 $417 $421 forward $79 $-1 #
edge $-1 $341 -265.0862147892696612 $419 265.0862147892696612 $333 $422 forward 7 unknown #
coedge $-1 $346 $345 $216 $339 reversed $330 $-1 #
edge $-1 $423 -265.0862147892696612 $340 265.0862147892696612 $338 $424 forward 7 unknown #
vertex $-1 $218 $425 #
vertex $-1 $352 $426 #
straight-curve $-1 215.9551862167122636 38.5073550973392642 -88.85352504615514135 0 -1 0 I I #
coedge $-1 $332 $334 $219 $344 reversed $212 $-1 #
edge $-1 $347 -3.513388918384073634 $350 3.513388918384073634 $343 $427 forward 7 unknown #
coedge $-1 $338 $220 $225 $353 forward $330 $-1 #
coedge $-1 $220 $338 $332 $418 reversed $330 $-1 #
vertex $-1 $221 $428 #
straight-curve $-1 255.1417120276174728 42.02074401572333784 283.9813160530597997 -0.629320380830711068 0 0.7771459697322561366 I I #
coedge $-1 $222 $333 $224 $352 reversed $127 $-1 #
vertex $-1 $344 $429 #
straight-curve $-1 255.1417120276174728 34.99396617895519057 283.9813160530597997 0.629320380830711068 0 -0.7771459697322561366 I I #
edge $-1 $227 -132.5431073946348306 $341 132.5431073946348022 $224 $430 forward 7 unknown #
edge $-1 $228 -132.5431073946348306 $340 132.5431073946348022 $225 $431 forward 7 unknown #
point $-1 421.9658696717723387 34.99396617895519057 77.97063259799969615 #
point $-1 421.9658696717723387 42.02074401572333784 77.97063259799969615 #
coedge $-1 $356 $356 $-1 $432 reversed $230 $-1 #
vertex $-1 $232 $433 #
ellipse-curve $-1 127.9927590617582922 37.00161698946037347 18.1820132951011928 0.7771459697322561366 0 0.629320380830711068 0.314660190415355534 0 -0.3885729848661280683 1 I I #
point $-1 129.0845652219059048 37.00161698946037347 18.42276069106577552 #
coedge $-1 $360 $360 $-1 $434 reversed $235 $-1 #
vertex $-1 $237 $435 #
ellipse-curve $-1 127.9927590617582922 40.01309320521815494 18.1820132951011928 0.7771459697322561366 0 0.629320380830711068 0.314660190415355534 0 -0.3885729848661280683 1 I I #
point $-1 129.0845652219059048 40.01309320521815494 18.42276069106577552 #
plane-surface $-1 132.5431073946348306 30.21527379561978677 11.73542533524446085 -1 0 0 0 0 1 forward_v I I I I #
coedge $-1 $245 $243 $247 $369 reversed $145 $-1 #
edge $-1 $258 -11.73542533524446085 $371 11.73542533524446085 $257 $436 forward 7 unknown #
vertex $-1 $369 $437 #
straight-curve $-1 0 0 11.73542533524446085 0 0 -1 I I #
edge $-1 $367 -30.21527379561978677 $371 30.21527379561978677 $365 $438 forward 7 unknown #
straight-curve $-1 66.2715536973174153 0 0 -1 0 0 I I #
vertex $-1 $250 $439 #
straight-curve $-1 66.2715536973174153 60.43054759123957353 0 1 0 0 I I #
point $-1 132.5431073946348306 60.43054759123957353 0 #
point $-1 132.5431073946348306 0 0 #
straight-curve $-1 0 30.21527379561978677 23.47085067048892171 0 -1 0 I I #
point $-1 0 60.43054759123957353 23.47085067048892171 #
point $-1 0 0 23.47085067048892171 #
straight-curve $-1 132.5431073946348306 0 11.73542533524446085 0 0 -1 I I #
straight-curve $-1 132.5431073946348306 60.43054759123957353 11.73542533524446085 0 0 -1 I I #
plane-surface $-1 15.37800938697772857 30.21527379561978677 21.27250433880570313 -1 0 0 0 0 1 forward_v I I I I #
coedge $-1 $272 $270 $274 $385 reversed $164 $-1 #
edge $-1 $285 -2.19834633168321858 $387 2.19834633168321858 $284 $440 forward 7 unknown #
vertex $-1 $385 $441 #
straight-curve $-1 0 0 21.27250433880570313 0 0 -1 I I #
edge $-1 $383 -30.21527379561978677 $387 30.21527379561978677 $381 $442 forward 7 unknown #
straight-curve $-1 7.689004693488864284 0 19.07415800712248455 -1 0 0 I I #
vertex $-1 $277 $443 #
straight-curve $-1 7.689004693488864284 60.43054759123957353 19.07415800712248455 1 0 0 I I #
point $-1 15.37800938697772857 60.43054759123957353 19.07415800712248455 #
point $-1 15.37800938697772857 0 19.07415800712248455 #
straight-curve $-1 0 30.21527379561978677 23.47085067048892171 0 -1 0 I I #
point $-1 0 60.43054759123957353 23.47085067048892171 #
point $-1 0 0 23.47085067048892171 #
straight-curve $-1 15.37800938697772857 0 21.27250433880570313 0 0 -1 I I #
straight-curve $-1 15.37800938697772857 60.43054759123957353 21.27250433880570313 0 0 -1 I I #
plane-surface $-1 318.9605279442423011 8.292081301719473885 -5.441446224077736815 -0.629320380830711068 0 0.7771459697322561366 0.7771459697322561366 0 0.629320380830711068 forward_v I I I I #
coedge $-1 $299 $297 $301 $401 reversed $183 $-1 #
edge $-1 $312 -132.5431073946348306 $403 132.5431073946348306 $311 $444 forward 7 unknown #
vertex $-1 $401 $445 #
straight-curve $-1 -14.68778734406743069 4.778692383335400251 406.579920686042442 -0.7771459697322561366 0 -0.629320380830711068 I I #
edge $-1 $399 -3.513388918384073634 $403 3.513388918384073634 $397 $446 forward 7 unknown #
straight-curve $-1 49.13102857255738343 4.778692383335400251 117.1571584089049338 -0.629320380830711068 0 0.7771459697322561366 I I #
vertex $-1 $304 $447 #
straight-curve $-1 49.13102857255738343 11.80547022010354752 117.1571584089049338 0.629320380830711068 0 -0.7771459697322561366 I I #
point $-1 215.9551862167122636 11.80547022010354752 -88.85352504615514135 #
point $-1 215.9551862167122636 4.778692383335400251 -88.85352504615514135 #
straight-curve $-1 88.3175543834626211 8.292081301719473885 489.9919995081198749 0 -1 0 I I #
point $-1 88.3175543834626211 11.80547022010354752 489.9919995081198749 #
point $-1 88.3175543834626211 4.778692383335400251 489.9919995081198749 #
straight-curve $-1 318.9605279442423011 4.778692383335400251 -5.441446224077736815 -0.7771459697322561366 0 -0.629320380830711068 I I #
straight-curve $-1 318.9605279442423011 11.80547022010354752 -5.441446224077736815 -0.7771459697322561366 0 -0.629320380830711068 I I #
edge $-1 $448 1 $448 0 $321 $-1 forward 7 unknown #
point $-1 128.307419252173645 6.786343193840584931 17.79344031023506645 #
edge $-1 $449 1 $449 0 $325 $-1 forward 7 unknown #
point $-1 128.307419252173645 9.797819409598362839 17.79344031023506645 #
plane-surface $-1 318.9605279442423011 38.5073550973392642 -5.441446224077736815 -0.629320380830711068 0 0.7771459697322561366 0.7771459697322561366 0 0.629320380830711068 forward_v I I I I #
coedge $-1 $334 $332 $336 $421 reversed $212 $-1 #
edge $-1 $347 -132.5431073946348306 $423 132.5431073946348306 $346 $450 forward 7 unknown #
vertex $-1 $421 $451 #
straight-curve $-1 -14.68778734406743069 34.99396617895519057 406.579920686042442 -0.7771459697322561366 0 -0.629320380830711068 I I #
edge $-1 $419 -3.513388918384073634 $423 3.513388918384073634 $417 $452 forward 7 unknown #
straight-curve $-1 49.13102857255738343 34.99396617895519057 117.1571584089049338 -0.629320380830711068 0 0.7771459697322561366 I I #
vertex $-1 $339 $453 #
straight-curve $-1 49.13102857255738343 42.02074401572333784 117.1571584089049338 0.629320380830711068 0 -0.7771459697322561366 I I #
point $-1 215.9551862167122636 42.02074401572333784 -88.85352504615514135 #
point $-1 215.9551862167122636 34.99396617895519057 -88.85352504615514135 #
straight-curve $-1 88.3175543834626211 38.5073550973392642 489.9919995081198749 0 -1 0 I I #
point $-1 88.3175543834626211 42.02074401572333784 489.9919995081198749 #
point $-1 88.3175543834626211 34.99396617895519057 489.9919995081198749 #
straight-curve $-1 318.9605279442423011 34.99396617895519057 -5.441446224077736815 -0.7771459697322561366 0 -0.629320380830711068 I I #
straight-curve $-1 318.9605279442423011 42.02074401572333784 -5.441446224077736815 -0.7771459697322561366 0 -0.629320380830711068 I I #
edge $-1 $454 1 $454 0 $356 $-1 forward 7 unknown #
point $-1 128.307419252173645 37.00161698946037347 17.79344031023506645 #
edge $-1 $455 1 $455 0 $360 $-1 forward 7 unknown #
point $-1 128.307419252173645 40.01309320521815494 17.79344031023506645 #
straight-curve $-1 0 60.43054759123957353 11.73542533524446085 0 0 -1 I I #
point $-1 0 0 0 #
straight-curve $-1 0 30.21527379561978677 0 0 1 0 I I #
point $-1 0 60.43054759123957353 0 #
straight-curve $-1 0 60.43054759123957353 21.27250433880570313 0 0 -1 I I #
point $-1 0 0 19.07415800712248455 #
straight-curve $-1 0 30.21527379561978677 19.07415800712248455 0 1 0 I I #
point $-1 0 60.43054759123957353 19.07415800712248455 #
straight-curve $-1 -14.68778734406743069 11.80547022010354752 406.579920686042442 -0.7771459697322561366 0 -0.629320380830711068 I I #
point $-1 -117.6931290715974683 4.778692383335400251 323.167841863965009 #
straight-curve $-1 -117.6931290715974683 8.292081301719473885 323.167841863965009 0 1 0 I I #
point $-1 -117.6931290715974683 11.80547022010354752 323.167841863965009 #
vertex $-1 $412 $456 #
vertex $-1 $414 $457 #
straight-curve $-1 -14.68778734406743069 42.02074401572333784 406.579920686042442 -0.7771459697322561366 0 -0.629320380830711068 I I #
point $-1 -117.6931290715974683 34.99396617895519057 323.167841863965009 #
straight-curve $-1 -117.6931290715974683 38.5073550973392642 323.167841863965009 0 1 0 I I #
point $-1 -117.6931290715974683 42.02074401572333784 323.167841863965009 #
vertex $-1 $432 $458 #
vertex $-1 $434 $459 #
point $-1 127.6041860768921623 6.786343193840584931 17.86735310468584004 #
point $-1 127.6041860768921623 9.797819409598362839 17.86735310468584004 #
point $-1 127.6041860768921623 37.00161698946037347 17.86735310468584004 #
point $-1 127.6041860768921623 40.01309320521815494 17.86735310468584004 #
End-of-ACIS-data 