300 0 15 0           
7 Unknown 11 ACIS 3.0 NT 24 Fri Oct 30 19:51:48 1998 
-1 9.9999999999999995e-007 1e-010 
body $15 $16 $-1 $17 #
body $18 $19 $-1 $20 #
body $21 $22 $-1 $23 #
body $24 $25 $-1 $26 #
body $27 $28 $-1 $29 #
body $30 $31 $-1 $32 #
body $33 $34 $-1 $35 #
body $36 $37 $-1 $38 #
body $39 $40 $-1 $41 #
body $42 $43 $-1 $44 #
body $45 $46 $-1 $47 #
body $48 $49 $-1 $50 #
body $51 $52 $-1 $53 #
body $54 $55 $-1 $56 #
body $57 $58 $-1 $59 #
display_attribute-st-attrib $-1 $60 $-1 $0 1 #
lump $-1 $-1 $61 $0 #
transform $-1 1 0 0 0 1 0 0 0 1 49.254432813501388 30.836218151782244 11.361697603329025 1 rotate no_reflect no_shear #
display_attribute-st-attrib $-1 $62 $-1 $1 1 #
lump $-1 $-1 $63 $1 #
transform $-1 1 0 0 0 1 0 0 0 1 6.9826657998696424 4.8438342347960157 11.361697603329025 1 rotate no_reflect no_shear #
display_attribute-st-attrib $-1 $64 $-1 $2 1 #
lump $-1 $-1 $65 $2 #
transform $-1 1 0 0 0 1 0 0 0 1 6.9826657998696424 56.828602068768475 11.361697603329025 1 rotate no_reflect no_shear #
display_attribute-st-attrib $-1 $66 $-1 $3 1 #
lump $-1 $-1 $67 $3 #
transform $-1 0.52991925155115449 0 0.84804810408105047 0 1 0 -0.84804810408105047 0 0.52991925155115449 -83.540256730154681 31.132049450096655 63.903860801965443 1 rotate no_reflect no_shear #
display_attribute-st-attrib $-1 $68 $-1 $4 1 #
lump $-1 $-1 $69 $4 #
transform $-1 0.52991925155115449 0 0.84804810408105047 0 -1 0 0.84804810408105047 0 -0.52991925155115449 4.5034896700365552 28.059855228511992 16.550356767765521 1 rotate no_reflect no_shear #
display_attribute-st-attrib $-1 $70 $-1 $5 1 #
lump $-1 $-1 $71 $5 #
transform $-1 0.52991925155115449 0 0.84804810408105047 0 -1 0 0.84804810408105047 0 -0.52991925155115449 4.5034896700365552 31.132049450096655 16.550356767765521 1 rotate no_reflect no_shear #
display_attribute-st-attrib $-1 $72 $-1 $6 1 #
lump $-1 $-1 $73 $6 #
transform $-1 0.52991925155115449 0 0.84804810408105047 0 -1 0 0.84804810408105047 0 -0.52991925155115449 4.5034896700365552 34.204243671681319 16.550356767765521 1 rotate no_reflect no_shear #
display_attribute-st-attrib $-1 $74 $-1 $7 1 #
lump $-1 $-1 $75 $7 #
transform $-1 0.82903756765294845 0 -0.55919291073839883 0 1 0 0.55919291073839883 0 0.82903756765294845 71.926774578842753 14.925838541320369 151.20016780482985 1 rotate no_reflect no_shear #
display_attribute-st-attrib $-1 $76 $-1 $8 1 #
lump $-1 $-1 $77 $8 #
transform $-1 0.82903756765294845 0 -0.55919291073839883 0 -1 0 -0.55919291073839883 0 -0.82903756765294845 90.355159836842319 14.925838541320367 15.592441444558773 1 rotate no_reflect no_shear #
display_attribute-st-attrib $-1 $78 $-1 $9 1 #
lump $-1 $-1 $79 $9 #
transform $-1 0.82903756765294845 0 -0.55919291073839883 0 1 0 0.55919291073839883 0 0.82903756765294845 71.926774578842753 25.532758281628283 151.20016780482985 1 rotate no_reflect no_shear #
display_attribute-st-attrib $-1 $80 $-1 $10 1 #
lump $-1 $-1 $81 $10 #
transform $-1 0.82903756765294845 0 -0.55919291073839883 0 -1 0 -0.55919291073839883 0 -0.82903756765294845 90.355159836842319 25.532758281628283 15.592441444558773 1 rotate no_reflect no_shear #
display_attribute-st-attrib $-1 $82 $-1 $11 1 #
lump $-1 $-1 $83 $11 #
transform $-1 0.82903756765294845 0 -0.55919291073839883 0 1 0 0.55919291073839883 0 0.82903756765294845 71.926774578842753 36.139678021936199 151.20016780482985 1 rotate no_reflect no_shear #
display_attribute-st-attrib $-1 $84 $-1 $12 1 #
lump $-1 $-1 $85 $12 #
transform $-1 0.82903756765294845 0 -0.55919291073839883 0 -1 0 -0.55919291073839883 0 -0.82903756765294845 90.355159836842319 36.139678021936199 15.592441444558773 1 rotate no_reflect no_shear #
display_attribute-st-attrib $-1 $86 $-1 $13 1 #
lump $-1 $-1 $87 $13 #
transform $-1 0.82903756765294845 0 -0.55919291073839883 0 1 0 0.55919291073839883 0 0.82903756765294845 71.926774578842753 46.746597762244114 151.20016780482985 1 rotate no_reflect no_shear #
display_attribute-st-attrib $-1 $88 $-1 $14 1 #
lump $-1 $-1 $89 $14 #
transform $-1 0.82903756765294845 0 -0.55919291073839883 0 -1 0 -0.55919291073839883 0 -0.82903756765294845 90.355159836842319 46.746597762244114 15.592441444558773 1 rotate no_reflect no_shear #
id_attribute-st-attrib $-1 $-1 $15 $0 3825 #
shell $-1 $-1 $-1 $90 $-1 $16 #
id_attribute-st-attrib $-1 $-1 $18 $1 3830 #
shell $-1 $-1 $-1 $91 $-1 $19 #
id_attribute-st-attrib $-1 $-1 $21 $2 3838 #
shell $-1 $-1 $-1 $92 $-1 $22 #
id_attribute-st-attrib $-1 $-1 $24 $3 3853 #
shell $-1 $-1 $-1 $93 $-1 $25 #
id_attribute-st-attrib $-1 $-1 $27 $4 3862 #
shell $-1 $-1 $-1 $94 $-1 $28 #
id_attribute-st-attrib $-1 $-1 $30 $5 3872 #
shell $-1 $-1 $-1 $95 $-1 $31 #
id_attribute-st-attrib $-1 $-1 $33 $6 3883 #
shell $-1 $-1 $-1 $96 $-1 $34 #
id_attribute-st-attrib $-1 $-1 $36 $7 3900 #
shell $-1 $-1 $-1 $97 $-1 $37 #
id_attribute-st-attrib $-1 $-1 $39 $8 3913 #
shell $-1 $-1 $-1 $98 $-1 $40 #
id_attribute-st-attrib $-1 $-1 $42 $9 3929 #
shell $-1 $-1 $-1 $99 $-1 $43 #
id_attribute-st-attrib $-1 $-1 $45 $10 3944 #
shell $-1 $-1 $-1 $100 $-1 $46 #
id_attribute-st-attrib $-1 $-1 $48 $11 3962 #
shell $-1 $-1 $-1 $101 $-1 $49 #
id_attribute-st-attrib $-1 $-1 $51 $12 3979 #
shell $-1 $-1 $-1 $102 $-1 $52 #
id_attribute-st-attrib $-1 $-1 $54 $13 3997 #
shell $-1 $-1 $-1 $103 $-1 $55 #
id_attribute-st-attrib $-1 $-1 $57 $14 4016 #
shell $-1 $-1 $-1 $104 $-1 $58 #
face $-1 $105 $106 $61 $-1 $107 forward single #
face $-1 $108 $109 $63 $-1 $110 forward single #
face $-1 $111 $112 $65 $-1 $113 forward single #
face $-1 $114 $115 $67 $-1 $116 forward single #
face $-1 $117 $118 $69 $-1 $119 forward single #
face $-1 $120 $121 $71 $-1 $122 forward single #
face $-1 $123 $124 $73 $-1 $125 forward single #
face $-1 $126 $127 $75 $-1 $128 forward single #
face $-1 $129 $130 $77 $-1 $131 forward single #
face $-1 $132 $133 $79 $-1 $134 forward single #
face $-1 $135 $136 $81 $-1 $137 forward single #
face $-1 $138 $139 $83 $-1 $140 forward single #
face $-1 $141 $142 $85 $-1 $143 forward single #
face $-1 $144 $145 $87 $-1 $146 forward single #
face $-1 $147 $148 $89 $-1 $149 forward single #
face $-1 $150 $151 $61 $-1 $152 reversed single #
loop $-1 $-1 $153 $90 #
plane-surface $-1 0 0 11.361697603329025 0 0 1 1 0 0 forward_v I I I I #
face $-1 $154 $155 $63 $-1 $156 reversed single #
loop $-1 $-1 $157 $91 #
plane-surface $-1 0 0 11.361697603329025 0 0 1 1 0 0 forward_v I I I I #
face $-1 $158 $159 $65 $-1 $160 reversed single #
loop $-1 $-1 $161 $92 #
plane-surface $-1 0 0 11.361697603329025 0 0 1 1 0 0 forward_v I I I I #
face $-1 $162 $163 $67 $-1 $164 reversed single #
loop $-1 $-1 $165 $93 #
plane-surface $-1 0 0 98.508865627002777 0 0 1 1 0 0 forward_v I I I I #
face $-1 $166 $167 $69 $-1 $168 forward single #
loop $-1 $169 $170 $94 #
cone-surface $-1 0 0 -0.75 0 0 1 0.5 0 0 1 I I 0 1 forward I I I I #
face $-1 $171 $172 $71 $-1 $173 forward single #
loop $-1 $174 $175 $95 #
cone-surface $-1 0 0 -0.75 0 0 1 0.5 0 0 1 I I 0 1 forward I I I I #
face $-1 $176 $177 $73 $-1 $178 forward single #
loop $-1 $179 $180 $96 #
cone-surface $-1 0 0 -0.75 0 0 1 0.5 0 0 1 I I 0 1 forward I I I I #
face $-1 $181 $182 $75 $-1 $183 reversed single #
loop $-1 $-1 $184 $97 #
plane-surface $-1 0 0 98.508865627002777 0 0 1 1 0 0 forward_v I I I I #
face $-1 $185 $186 $77 $-1 $187 forward single #
loop $-1 $188 $189 $98 #
cone-surface $-1 0 0 -2.1800057985168007 0 0 1 1.5 0 0 1 I I 0 1 forward I I I I #
face $-1 $190 $191 $79 $-1 $192 reversed single #
loop $-1 $-1 $193 $99 #
plane-surface $-1 0 0 98.508865627002777 0 0 1 1 0 0 forward_v I I I I #
face $-1 $194 $195 $81 $-1 $196 forward single #
loop $-1 $197 $198 $100 #
cone-surface $-1 0 0 -2.1800057985168007 0 0 1 1.5 0 0 1 I I 0 1 forward I I I I #
face $-1 $199 $200 $83 $-1 $201 reversed single #
loop $-1 $-1 $202 $101 #
plane-surface $-1 0 0 98.508865627002777 0 0 1 1 0 0 forward_v I I I I #
face $-1 $203 $204 $85 $-1 $205 forward single #
loop $-1 $206 $207 $102 #
cone-surface $-1 0 0 -2.1800057985168007 0 0 1 1.5 0 0 1 I I 0 1 forward I I I I #
face $-1 $208 $209 $87 $-1 $210 reversed single #
loop $-1 $-1 $211 $103 #
plane-surface $-1 0 0 98.508865627002777 0 0 1 1 0 0 forward_v I I I I #
face $-1 $212 $213 $89 $-1 $214 forward single #
loop $-1 $215 $216 $104 #
cone-surface $-1 0 0 -2.1800057985168007 0 0 1 1.5 0 0 1 I I 0 1 forward I I I I #
face $-1 $217 $218 $61 $-1 $219 reversed single #
loop $-1 $-1 $220 $105 #
plane-surface $-1 0 0 -11.361697603329025 0 0 1 1 0 0 forward_v I I I I #
coedge $-1 $221 $222 $223 $224 forward $106 $-1 #
face $-1 $225 $226 $63 $-1 $227 reversed single #
loop $-1 $-1 $228 $108 #
plane-surface $-1 0 0 -11.361697603329025 0 0 1 1 0 0 forward_v I I I I #
coedge $-1 $229 $230 $231 $232 forward $109 $-1 #
face $-1 $233 $234 $65 $-1 $235 reversed single #
loop $-1 $-1 $236 $111 #
plane-surface $-1 0 0 -11.361697603329025 0 0 1 1 0 0 forward_v I I I I #
coedge $-1 $237 $238 $239 $240 forward $112 $-1 #
face $-1 $241 $242 $67 $-1 $243 reversed single #
loop $-1 $-1 $244 $114 #
plane-surface $-1 0 0 -98.508865627002777 0 0 1 1 0 0 forward_v I I I I #
coedge $-1 $245 $246 $247 $248 forward $115 $-1 #
face $-1 $-1 $249 $69 $-1 $250 forward single #
loop $-1 $-1 $251 $117 #
plane-surface $-1 0 0 -1.25 0 0 -1 -1 0 0 forward_v I I I I #
loop $-1 $-1 $252 $94 #
coedge $-1 $170 $170 $251 $253 reversed $118 $-1 #
face $-1 $-1 $254 $71 $-1 $255 forward single #
loop $-1 $-1 $256 $120 #
plane-surface $-1 0 0 -1.25 0 0 -1 -1 0 0 forward_v I I I I #
loop $-1 $-1 $257 $95 #
coedge $-1 $175 $175 $256 $258 reversed $121 $-1 #
face $-1 $-1 $259 $73 $-1 $260 forward single #
loop $-1 $-1 $261 $123 #
plane-surface $-1 0 0 -1.25 0 0 -1 -1 0 0 forward_v I I I I #
loop $-1 $-1 $262 $96 #
coedge $-1 $180 $180 $261 $263 reversed $124 $-1 #
face $-1 $264 $265 $75 $-1 $266 reversed single #
loop $-1 $-1 $267 $126 #
plane-surface $-1 0 0 -98.508865627002777 0 0 1 1 0 0 forward_v I I I I #
coedge $-1 $268 $269 $270 $271 forward $127 $-1 #
face $-1 $-1 $272 $77 $-1 $273 forward single #
loop $-1 $-1 $274 $129 #
plane-surface $-1 0 0 -3.6100115970336013 0 0 -1 -1 0 0 forward_v I I I I #
loop $-1 $-1 $275 $98 #
coedge $-1 $189 $189 $274 $276 reversed $130 $-1 #
face $-1 $277 $278 $79 $-1 $279 reversed single #
loop $-1 $-1 $280 $132 #
plane-surface $-1 0 0 -98.508865627002777 0 0 1 1 0 0 forward_v I I I I #
coedge $-1 $281 $282 $283 $284 forward $133 $-1 #
face $-1 $-1 $285 $81 $-1 $286 forward single #
loop $-1 $-1 $287 $135 #
plane-surface $-1 0 0 -3.6100115970336013 0 0 -1 -1 0 0 forward_v I I I I #
loop $-1 $-1 $288 $100 #
coedge $-1 $198 $198 $287 $289 reversed $136 $-1 #
face $-1 $290 $291 $83 $-1 $292 reversed single #
loop $-1 $-1 $293 $138 #
plane-surface $-1 0 0 -98.508865627002777 0 0 1 1 0 0 forward_v I I I I #
coedge $-1 $294 $295 $296 $297 forward $139 $-1 #
face $-1 $-1 $298 $85 $-1 $299 forward single #
loop $-1 $-1 $300 $141 #
plane-surface $-1 0 0 -3.6100115970336013 0 0 -1 -1 0 0 forward_v I I I I #
loop $-1 $-1 $301 $102 #
coedge $-1 $207 $207 $300 $302 reversed $142 $-1 #
face $-1 $303 $304 $87 $-1 $305 reversed single #
loop $-1 $-1 $306 $144 #
plane-surface $-1 0 0 -98.508865627002777 0 0 1 1 0 0 forward_v I I I I #
coedge $-1 $307 $308 $309 $310 forward $145 $-1 #
face $-1 $-1 $311 $89 $-1 $312 forward single #
loop $-1 $-1 $313 $147 #
plane-surface $-1 0 0 -3.6100115970336013 0 0 -1 -1 0 0 forward_v I I I I #
loop $-1 $-1 $314 $104 #
coedge $-1 $216 $216 $313 $315 reversed $148 $-1 #
face $-1 $316 $317 $61 $-1 $318 reversed single #
loop $-1 $-1 $319 $150 #
plane-surface $-1 0 -30.836218151782244 0 0 1 0 0 0 1 forward_v I I I I #
coedge $-1 $320 $321 $322 $323 forward $151 $-1 #
coedge $-1 $324 $153 $325 $326 forward $106 $-1 #
coedge $-1 $153 $324 $327 $328 forward $106 $-1 #
coedge $-1 $329 $330 $153 $224 reversed $331 $-1 #
edge $-1 $332 $333 $223 $334 forward #
face $-1 $335 $336 $63 $-1 $337 reversed single #
loop $-1 $-1 $338 $154 #
plane-surface $-1 0 -4.8438342347960157 0 0 1 0 0 0 1 forward_v I I I I #
coedge $-1 $339 $340 $341 $342 forward $155 $-1 #
coedge $-1 $343 $157 $344 $345 forward $109 $-1 #
coedge $-1 $157 $343 $346 $347 forward $109 $-1 #
coedge $-1 $348 $349 $157 $232 reversed $350 $-1 #
edge $-1 $351 $352 $231 $353 forward #
face $-1 $354 $355 $65 $-1 $356 reversed single #
loop $-1 $-1 $357 $158 #
plane-surface $-1 0 -4.8438342347960166 0 0 1 0 0 0 1 forward_v I I I I #
coedge $-1 $358 $359 $360 $361 forward $159 $-1 #
coedge $-1 $362 $161 $363 $364 forward $112 $-1 #
coedge $-1 $161 $362 $365 $366 forward $112 $-1 #
coedge $-1 $367 $368 $161 $240 reversed $369 $-1 #
edge $-1 $370 $371 $239 $372 forward #
face $-1 $373 $374 $67 $-1 $375 reversed single #
loop $-1 $-1 $376 $162 #
plane-surface $-1 0 -5.1203237026411053 0 0 1 0 0 0 1 forward_v I I I I #
coedge $-1 $377 $378 $379 $380 forward $163 $-1 #
coedge $-1 $381 $165 $382 $383 forward $115 $-1 #
coedge $-1 $165 $381 $384 $385 forward $115 $-1 #
coedge $-1 $386 $387 $165 $248 reversed $388 $-1 #
edge $-1 $389 $390 $247 $391 forward #
loop $-1 $392 $393 $166 #
cone-surface $-1 0 0 0 0 0 1 0.25 0 0 1 I I -0.70710678118654746 0.70710678118654746 forward I I I I #
coedge $-1 $251 $251 $170 $253 forward $167 $-1 #
coedge $-1 $252 $252 $393 $394 forward $169 $-1 #
edge $-1 $395 $395 $251 $396 forward #
loop $-1 $397 $398 $171 #
cone-surface $-1 0 0 0 0 0 1 0.25 0 0 1 I I -0.70710678118654746 0.70710678118654746 forward I I I I #
coedge $-1 $256 $256 $175 $258 forward $172 $-1 #
coedge $-1 $257 $257 $398 $399 forward $174 $-1 #
edge $-1 $400 $400 $256 $401 forward #
loop $-1 $402 $403 $176 #
cone-surface $-1 0 0 0 0 0 1 0.25 0 0 1 I I -0.70710678118654746 0.70710678118654746 forward I I I I #
coedge $-1 $261 $261 $180 $263 forward $177 $-1 #
coedge $-1 $262 $262 $403 $404 forward $179 $-1 #
edge $-1 $405 $405 $261 $406 forward #
face $-1 $407 $408 $75 $-1 $409 reversed single #
loop $-1 $-1 $410 $181 #
plane-surface $-1 0 -3.1784673820267795 0 0 1 0 0 0 1 forward_v I I I I #
coedge $-1 $411 $412 $413 $414 forward $182 $-1 #
coedge $-1 $415 $184 $416 $417 forward $127 $-1 #
coedge $-1 $184 $415 $418 $419 forward $127 $-1 #
coedge $-1 $420 $421 $184 $271 reversed $422 $-1 #
edge $-1 $423 $424 $270 $425 forward #
loop $-1 $426 $427 $185 #
cone-surface $-1 0 0 0 0 0 1 0.75 0 0 1 I I -0.70710678118654757 0.70710678118654757 forward I I I I #
coedge $-1 $274 $274 $189 $276 forward $186 $-1 #
coedge $-1 $275 $275 $427 $428 forward $188 $-1 #
edge $-1 $429 $429 $274 $430 forward #
face $-1 $431 $432 $79 $-1 $433 reversed single #
loop $-1 $-1 $434 $190 #
plane-surface $-1 0 -3.1784673820267795 0 0 1 0 0 0 1 forward_v I I I I #
coedge $-1 $435 $436 $437 $438 forward $191 $-1 #
coedge $-1 $439 $193 $440 $441 forward $133 $-1 #
coedge $-1 $193 $439 $442 $443 forward $133 $-1 #
coedge $-1 $444 $445 $193 $284 reversed $446 $-1 #
edge $-1 $447 $448 $283 $449 forward #
loop $-1 $450 $451 $194 #
cone-surface $-1 0 0 0 0 0 1 0.75 0 0 1 I I -0.70710678118654757 0.70710678118654757 forward I I I I #
coedge $-1 $287 $287 $198 $289 forward $195 $-1 #
coedge $-1 $288 $288 $451 $452 forward $197 $-1 #
edge $-1 $453 $453 $287 $454 forward #
face $-1 $455 $456 $83 $-1 $457 reversed single #
loop $-1 $-1 $458 $199 #
plane-surface $-1 0 -3.1784673820267795 0 0 1 0 0 0 1 forward_v I I I I #
coedge $-1 $459 $460 $461 $462 forward $200 $-1 #
coedge $-1 $463 $202 $464 $465 forward $139 $-1 #
coedge $-1 $202 $463 $466 $467 forward $139 $-1 #
coedge $-1 $468 $469 $202 $297 reversed $470 $-1 #
edge $-1 $471 $472 $296 $473 forward #
loop $-1 $474 $475 $203 #
cone-surface $-1 0 0 0 0 0 1 0.75 0 0 1 I I -0.70710678118654757 0.70710678118654757 forward I I I I #
coedge $-1 $300 $300 $207 $302 forward $204 $-1 #
coedge $-1 $301 $301 $475 $476 forward $206 $-1 #
edge $-1 $477 $477 $300 $478 forward #
face $-1 $479 $480 $87 $-1 $481 reversed single #
loop $-1 $-1 $482 $208 #
plane-surface $-1 0 -3.1784673820267795 0 0 1 0 0 0 1 forward_v I I I I #
coedge $-1 $483 $484 $485 $486 forward $209 $-1 #
coedge $-1 $487 $211 $488 $489 forward $145 $-1 #
coedge $-1 $211 $487 $490 $491 forward $145 $-1 #
coedge $-1 $492 $493 $211 $310 reversed $494 $-1 #
edge $-1 $495 $496 $309 $497 forward #
loop $-1 $498 $499 $212 #
cone-surface $-1 0 0 0 0 0 1 0.75 0 0 1 I I -0.70710678118654757 0.70710678118654757 forward I I I I #
coedge $-1 $313 $313 $216 $315 forward $213 $-1 #
coedge $-1 $314 $314 $499 $500 forward $215 $-1 #
edge $-1 $501 $501 $313 $502 forward #
face $-1 $503 $504 $61 $-1 $505 reversed single #
loop $-1 $-1 $506 $217 #
plane-surface $-1 -49.254432813501388 0 0 1 0 0 0 0 -1 forward_v I I I I #
coedge $-1 $507 $327 $508 $509 forward $218 $-1 #
coedge $-1 $510 $220 $507 $511 forward $151 $-1 #
coedge $-1 $220 $510 $512 $513 forward $151 $-1 #
coedge $-1 $330 $329 $220 $323 reversed $331 $-1 #
edge $-1 $514 $515 $322 $516 forward #
coedge $-1 $222 $221 $517 $518 forward $106 $-1 #
coedge $-1 $519 $520 $221 $326 reversed $504 $-1 #
edge $-1 $333 $521 $325 $522 forward #
coedge $-1 $319 $523 $222 $328 reversed $218 $-1 #
edge $-1 $524 $332 $327 $525 forward #
coedge $-1 $322 $223 $523 $526 forward $331 $-1 #
coedge $-1 $223 $322 $519 $527 reversed $331 $-1 #
loop $-1 $-1 $329 $503 #
vertex $-1 $224 $528 #
vertex $-1 $224 $529 #
straight-curve $-1 49.254432813501388 0 11.361697603329025 0 1 0 I I #
face $-1 $530 $531 $63 $-1 $532 reversed single #
loop $-1 $-1 $533 $225 #
plane-surface $-1 -2.8243182314034216 0 0 1 0 0 0 0 -1 forward_v I I I I #
coedge $-1 $534 $346 $535 $536 forward $226 $-1 #
coedge $-1 $537 $228 $534 $538 forward $155 $-1 #
coedge $-1 $228 $537 $539 $540 forward $155 $-1 #
coedge $-1 $349 $348 $228 $342 reversed $350 $-1 #
edge $-1 $541 $542 $341 $543 forward #
coedge $-1 $230 $229 $544 $545 forward $109 $-1 #
coedge $-1 $546 $547 $229 $345 reversed $531 $-1 #
edge $-1 $352 $548 $344 $549 forward #
coedge $-1 $338 $550 $230 $347 reversed $226 $-1 #
edge $-1 $551 $351 $346 $552 forward #
coedge $-1 $341 $231 $550 $553 forward $350 $-1 #
coedge $-1 $231 $341 $546 $554 reversed $350 $-1 #
loop $-1 $-1 $348 $530 #
vertex $-1 $232 $555 #
vertex $-1 $232 $556 #
straight-curve $-1 2.8243182314034216 0 11.361697603329025 0 1 0 I I #
face $-1 $557 $558 $65 $-1 $559 reversed single #
loop $-1 $-1 $560 $233 #
plane-surface $-1 -2.8243182314034216 0 0 1 0 0 0 0 -1 forward_v I I I I #
coedge $-1 $561 $365 $562 $563 forward $234 $-1 #
coedge $-1 $564 $236 $561 $565 forward $159 $-1 #
coedge $-1 $236 $564 $566 $567 forward $159 $-1 #
coedge $-1 $368 $367 $236 $361 reversed $369 $-1 #
edge $-1 $568 $569 $360 $570 forward #
coedge $-1 $238 $237 $571 $572 forward $112 $-1 #
coedge $-1 $573 $574 $237 $364 reversed $558 $-1 #
edge $-1 $371 $575 $363 $576 forward #
coedge $-1 $357 $577 $238 $366 reversed $234 $-1 #
edge $-1 $578 $370 $365 $579 forward #
coedge $-1 $360 $239 $577 $580 forward $369 $-1 #
coedge $-1 $239 $360 $573 $581 reversed $369 $-1 #
loop $-1 $-1 $367 $557 #
vertex $-1 $240 $582 #
vertex $-1 $240 $583 #
straight-curve $-1 2.8243182314034216 0 11.361697603329025 0 1 0 I I #
face $-1 $584 $585 $67 $-1 $586 reversed single #
loop $-1 $-1 $587 $241 #
plane-surface $-1 -197.01773125400555 0 0 1 0 0 0 0 -1 forward_v I I I I #
coedge $-1 $588 $384 $589 $590 forward $242 $-1 #
coedge $-1 $591 $244 $588 $592 forward $163 $-1 #
coedge $-1 $244 $591 $593 $594 forward $163 $-1 #
coedge $-1 $387 $386 $244 $380 reversed $388 $-1 #
edge $-1 $595 $596 $379 $597 forward #
coedge $-1 $246 $245 $598 $599 forward $115 $-1 #
coedge $-1 $600 $601 $245 $383 reversed $585 $-1 #
edge $-1 $390 $602 $382 $603 forward #
coedge $-1 $376 $604 $246 $385 reversed $242 $-1 #
edge $-1 $605 $389 $384 $606 forward #
coedge $-1 $379 $247 $604 $607 forward $388 $-1 #
coedge $-1 $247 $379 $600 $608 reversed $388 $-1 #
loop $-1 $-1 $386 $584 #
vertex $-1 $248 $609 #
vertex $-1 $248 $610 #
straight-curve $-1 197.01773125400555 0 98.508865627002777 0 1 0 I I #
loop $-1 $-1 $611 $166 #
coedge $-1 $393 $393 $252 $394 reversed $249 $-1 #
edge $-1 $612 $612 $393 $613 forward #
vertex $-1 $253 $614 #
ellipse-curve $-1 0 0 -1.25 0 0 -1 0.5 0 0 1 I I #
loop $-1 $-1 $615 $171 #
coedge $-1 $398 $398 $257 $399 reversed $254 $-1 #
edge $-1 $616 $616 $398 $617 forward #
vertex $-1 $258 $618 #
ellipse-curve $-1 0 0 -1.25 0 0 -1 0.5 0 0 1 I I #
loop $-1 $-1 $619 $176 #
coedge $-1 $403 $403 $262 $404 reversed $259 $-1 #
edge $-1 $620 $620 $403 $621 forward #
vertex $-1 $263 $622 #
ellipse-curve $-1 0 0 -1.25 0 0 -1 0.5 0 0 1 I I #
face $-1 $623 $624 $75 $-1 $625 reversed single #
loop $-1 $-1 $626 $264 #
plane-surface $-1 -197.01773125400555 0 0 1 0 0 0 0 -1 forward_v I I I I #
coedge $-1 $627 $418 $628 $629 forward $265 $-1 #
coedge $-1 $630 $267 $627 $631 forward $182 $-1 #
coedge $-1 $267 $630 $632 $633 forward $182 $-1 #
coedge $-1 $421 $420 $267 $414 reversed $422 $-1 #
edge $-1 $634 $635 $413 $636 forward #
coedge $-1 $269 $268 $637 $638 forward $127 $-1 #
coedge $-1 $639 $640 $268 $417 reversed $624 $-1 #
edge $-1 $424 $641 $416 $642 forward #
coedge $-1 $410 $643 $269 $419 reversed $265 $-1 #
edge $-1 $644 $423 $418 $645 forward #
coedge $-1 $413 $270 $643 $646 forward $422 $-1 #
coedge $-1 $270 $413 $639 $647 reversed $422 $-1 #
loop $-1 $-1 $420 $623 #
vertex $-1 $271 $648 #
vertex $-1 $271 $649 #
straight-curve $-1 197.01773125400555 0 98.508865627002777 0 1 0 I I #
loop $-1 $-1 $650 $185 #
coedge $-1 $427 $427 $275 $428 reversed $272 $-1 #
edge $-1 $651 $651 $427 $652 forward #
vertex $-1 $276 $653 #
ellipse-curve $-1 0 0 -3.6100115970336013 0 0 -1 1.5 0 0 1 I I #
face $-1 $654 $655 $79 $-1 $656 reversed single #
loop $-1 $-1 $657 $277 #
plane-surface $-1 -197.01773125400555 0 0 1 0 0 0 0 -1 forward_v I I I I #
coedge $-1 $658 $442 $659 $660 forward $278 $-1 #
coedge $-1 $661 $280 $658 $662 forward $191 $-1 #
coedge $-1 $280 $661 $663 $664 forward $191 $-1 #
coedge $-1 $445 $444 $280 $438 reversed $446 $-1 #
edge $-1 $665 $666 $437 $667 forward #
coedge $-1 $282 $281 $668 $669 forward $133 $-1 #
coedge $-1 $670 $671 $281 $441 reversed $655 $-1 #
edge $-1 $448 $672 $440 $673 forward #
coedge $-1 $434 $674 $282 $443 reversed $278 $-1 #
edge $-1 $675 $447 $442 $676 forward #
coedge $-1 $437 $283 $674 $677 forward $446 $-1 #
coedge $-1 $283 $437 $670 $678 reversed $446 $-1 #
loop $-1 $-1 $444 $654 #
vertex $-1 $284 $679 #
vertex $-1 $284 $680 #
straight-curve $-1 197.01773125400555 0 98.508865627002777 0 1 0 I I #
loop $-1 $-1 $681 $194 #
coedge $-1 $451 $451 $288 $452 reversed $285 $-1 #
edge $-1 $682 $682 $451 $683 forward #
vertex $-1 $289 $684 #
ellipse-curve $-1 0 0 -3.6100115970336013 0 0 -1 1.5 0 0 1 I I #
face $-1 $685 $686 $83 $-1 $687 reversed single #
loop $-1 $-1 $688 $290 #
plane-surface $-1 -197.01773125400555 0 0 1 0 0 0 0 -1 forward_v I I I I #
coedge $-1 $689 $466 $690 $691 forward $291 $-1 #
coedge $-1 $692 $293 $689 $693 forward $200 $-1 #
coedge $-1 $293 $692 $694 $695 forward $200 $-1 #
coedge $-1 $469 $468 $293 $462 reversed $470 $-1 #
edge $-1 $696 $697 $461 $698 forward #
coedge $-1 $295 $294 $699 $700 forward $139 $-1 #
coedge $-1 $701 $702 $294 $465 reversed $686 $-1 #
edge $-1 $472 $703 $464 $704 forward #
coedge $-1 $458 $705 $295 $467 reversed $291 $-1 #
edge $-1 $706 $471 $466 $707 forward #
coedge $-1 $461 $296 $705 $708 forward $470 $-1 #
coedge $-1 $296 $461 $701 $709 reversed $470 $-1 #
loop $-1 $-1 $468 $685 #
vertex $-1 $297 $710 #
vertex $-1 $297 $711 #
straight-curve $-1 197.01773125400555 0 98.508865627002777 0 1 0 I I #
loop $-1 $-1 $712 $203 #
coedge $-1 $475 $475 $301 $476 reversed $298 $-1 #
edge $-1 $713 $713 $475 $714 forward #
vertex $-1 $302 $715 #
ellipse-curve $-1 0 0 -3.6100115970336013 0 0 -1 1.5 0 0 1 I I #
face $-1 $716 $717 $87 $-1 $718 reversed single #
loop $-1 $-1 $719 $303 #
plane-surface $-1 -197.01773125400555 0 0 1 0 0 0 0 -1 forward_v I I I I #
coedge $-1 $720 $490 $721 $722 forward $304 $-1 #
coedge $-1 $723 $306 $720 $724 forward $209 $-1 #
coedge $-1 $306 $723 $725 $726 forward $209 $-1 #
coedge $-1 $493 $492 $306 $486 reversed $494 $-1 #
edge $-1 $727 $728 $485 $729 forward #
coedge $-1 $308 $307 $730 $731 forward $145 $-1 #
coedge $-1 $732 $733 $307 $489 reversed $717 $-1 #
edge $-1 $496 $734 $488 $735 forward #
coedge $-1 $482 $736 $308 $491 reversed $304 $-1 #
edge $-1 $737 $495 $490 $738 forward #
coedge $-1 $485 $309 $736 $739 forward $494 $-1 #
coedge $-1 $309 $485 $732 $740 reversed $494 $-1 #
loop $-1 $-1 $492 $716 #
vertex $-1 $310 $741 #
vertex $-1 $310 $742 #
straight-curve $-1 197.01773125400555 0 98.508865627002777 0 1 0 I I #
loop $-1 $-1 $743 $212 #
coedge $-1 $499 $499 $314 $500 reversed $311 $-1 #
edge $-1 $744 $744 $499 $745 forward #
vertex $-1 $315 $746 #
ellipse-curve $-1 0 0 -3.6100115970336013 0 0 -1 1.5 0 0 1 I I #
face $-1 $-1 $331 $61 $-1 $747 reversed single #
loop $-1 $-1 $519 $316 #
plane-surface $-1 0 30.836218151782244 0 0 -1 0 0 0 -1 forward_v I I I I #
coedge $-1 $748 $517 $520 $749 forward $317 $-1 #
coedge $-1 $523 $319 $320 $511 reversed $218 $-1 #
coedge $-1 $517 $748 $319 $509 reversed $317 $-1 #
edge $-1 $524 $750 $508 $751 forward #
coedge $-1 $321 $320 $748 $752 forward $151 $-1 #
edge $-1 $515 $750 $507 $753 forward #
coedge $-1 $520 $519 $321 $513 reversed $504 $-1 #
edge $-1 $754 $514 $512 $755 forward #
vertex $-1 $323 $756 #
vertex $-1 $526 $757 #
straight-curve $-1 49.254432813501388 0 -11.361697603329025 0 -1 0 I I #
coedge $-1 $506 $508 $324 $518 reversed $317 $-1 #
edge $-1 $521 $524 $517 $758 forward #
coedge $-1 $512 $325 $330 $527 forward $504 $-1 #
coedge $-1 $325 $512 $506 $749 reversed $504 $-1 #
vertex $-1 $326 $759 #
straight-curve $-1 0 30.836218151782244 11.361697603329025 -1 0 0 I I #
coedge $-1 $327 $507 $329 $526 reversed $218 $-1 #
vertex $-1 $518 $760 #
straight-curve $-1 0 -30.836218151782244 11.361697603329025 1 0 0 I I #
edge $-1 $332 $515 $329 $761 forward #
edge $-1 $333 $514 $330 $762 forward #
point $-1 49.254432813501388 -30.836218151782244 11.361697603329025 #
point $-1 49.254432813501388 30.836218151782244 11.361697603329025 #
face $-1 $-1 $350 $63 $-1 $763 reversed single #
loop $-1 $-1 $546 $335 #
plane-surface $-1 0 4.8438342347960157 0 0 -1 0 0 0 -1 forward_v I I I I #
coedge $-1 $764 $544 $547 $765 forward $336 $-1 #
coedge $-1 $550 $338 $339 $538 reversed $226 $-1 #
coedge $-1 $544 $764 $338 $536 reversed $336 $-1 #
edge $-1 $551 $766 $535 $767 forward #
coedge $-1 $340 $339 $764 $768 forward $155 $-1 #
edge $-1 $542 $766 $534 $769 forward #
coedge $-1 $547 $546 $340 $540 reversed $531 $-1 #
edge $-1 $770 $541 $539 $771 forward #
vertex $-1 $342 $772 #
vertex $-1 $553 $773 #
straight-curve $-1 2.8243182314034216 0 -11.361697603329025 0 -1 0 I I #
coedge $-1 $533 $535 $343 $545 reversed $336 $-1 #
edge $-1 $548 $551 $544 $774 forward #
coedge $-1 $539 $344 $349 $554 forward $531 $-1 #
coedge $-1 $344 $539 $533 $765 reversed $531 $-1 #
vertex $-1 $345 $775 #
straight-curve $-1 0 4.8438342347960157 11.361697603329025 -1 0 0 I I #
coedge $-1 $346 $534 $348 $553 reversed $226 $-1 #
vertex $-1 $545 $776 #
straight-curve $-1 0 -4.8438342347960157 11.361697603329025 1 0 0 I I #
edge $-1 $351 $542 $348 $777 forward #
edge $-1 $352 $541 $349 $778 forward #
point $-1 2.8243182314034216 -4.8438342347960157 11.361697603329025 #
point $-1 2.8243182314034216 4.8438342347960157 11.361697603329025 #
face $-1 $-1 $369 $65 $-1 $779 reversed single #
loop $-1 $-1 $573 $354 #
plane-surface $-1 0 4.8438342347960166 0 0 -1 0 0 0 -1 forward_v I I I I #
coedge $-1 $780 $571 $574 $781 forward $355 $-1 #
coedge $-1 $577 $357 $358 $565 reversed $234 $-1 #
coedge $-1 $571 $780 $357 $563 reversed $355 $-1 #
edge $-1 $578 $782 $562 $783 forward #
coedge $-1 $359 $358 $780 $784 forward $159 $-1 #
edge $-1 $569 $782 $561 $785 forward #
coedge $-1 $574 $573 $359 $567 reversed $558 $-1 #
edge $-1 $786 $568 $566 $787 forward #
vertex $-1 $361 $788 #
vertex $-1 $580 $789 #
straight-curve $-1 2.8243182314034216 0 -11.361697603329025 0 -1 0 I I #
coedge $-1 $560 $562 $362 $572 reversed $355 $-1 #
edge $-1 $575 $578 $571 $790 forward #
coedge $-1 $566 $363 $368 $581 forward $558 $-1 #
coedge $-1 $363 $566 $560 $781 reversed $558 $-1 #
vertex $-1 $364 $791 #
straight-curve $-1 0 4.8438342347960166 11.361697603329025 -1 0 0 I I #
coedge $-1 $365 $561 $367 $580 reversed $234 $-1 #
vertex $-1 $572 $792 #
straight-curve $-1 0 -4.8438342347960166 11.361697603329025 1 0 0 I I #
edge $-1 $370 $569 $367 $793 forward #
edge $-1 $371 $568 $368 $794 forward #
point $-1 2.8243182314034216 -4.8438342347960166 11.361697603329025 #
point $-1 2.8243182314034216 4.8438342347960166 11.361697603329025 #
face $-1 $-1 $388 $67 $-1 $795 reversed single #
loop $-1 $-1 $600 $373 #
plane-surface $-1 0 5.1203237026411053 0 0 -1 0 0 0 -1 forward_v I I I I #
coedge $-1 $796 $598 $601 $797 forward $374 $-1 #
coedge $-1 $604 $376 $377 $592 reversed $242 $-1 #
coedge $-1 $598 $796 $376 $590 reversed $374 $-1 #
edge $-1 $605 $798 $589 $799 forward #
coedge $-1 $378 $377 $796 $800 forward $163 $-1 #
edge $-1 $596 $798 $588 $801 forward #
coedge $-1 $601 $600 $378 $594 reversed $585 $-1 #
edge $-1 $802 $595 $593 $803 forward #
vertex $-1 $380 $804 #
vertex $-1 $607 $805 #
straight-curve $-1 197.01773125400555 0 -98.508865627002777 0 -1 0 I I #
coedge $-1 $587 $589 $381 $599 reversed $374 $-1 #
edge $-1 $602 $605 $598 $806 forward #
coedge $-1 $593 $382 $387 $608 forward $585 $-1 #
coedge $-1 $382 $593 $587 $797 reversed $585 $-1 #
vertex $-1 $383 $807 #
straight-curve $-1 0 5.1203237026411053 98.508865627002777 -1 0 0 I I #
coedge $-1 $384 $588 $386 $607 reversed $242 $-1 #
vertex $-1 $599 $808 #
straight-curve $-1 0 -5.1203237026411053 98.508865627002777 1 0 0 I I #
edge $-1 $389 $596 $386 $809 forward #
edge $-1 $390 $595 $387 $810 forward #
point $-1 197.01773125400555 -5.1203237026411053 98.508865627002777 #
point $-1 197.01773125400555 5.1203237026411053 98.508865627002777 #
coedge $-1 $611 $611 $-1 $811 reversed $392 $-1 #
vertex $-1 $394 $812 #
ellipse-curve $-1 0 0 -0.25 0 0 -1 0.5 0 0 1 I I #
point $-1 0.5 0 -1.25 #
coedge $-1 $615 $615 $-1 $813 reversed $397 $-1 #
vertex $-1 $399 $814 #
ellipse-curve $-1 0 0 -0.25 0 0 -1 0.5 0 0 1 I I #
point $-1 0.5 0 -1.25 #
coedge $-1 $619 $619 $-1 $815 reversed $402 $-1 #
vertex $-1 $404 $816 #
ellipse-curve $-1 0 0 -0.25 0 0 -1 0.5 0 0 1 I I #
point $-1 0.5 0 -1.25 #
face $-1 $-1 $422 $75 $-1 $817 reversed single #
loop $-1 $-1 $639 $407 #
plane-surface $-1 0 3.1784673820267795 0 0 -1 0 0 0 -1 forward_v I I I I #
coedge $-1 $818 $637 $640 $819 forward $408 $-1 #
coedge $-1 $643 $410 $411 $631 reversed $265 $-1 #
coedge $-1 $637 $818 $410 $629 reversed $408 $-1 #
edge $-1 $644 $820 $628 $821 forward #
coedge $-1 $412 $411 $818 $822 forward $182 $-1 #
edge $-1 $635 $820 $627 $823 forward #
coedge $-1 $640 $639 $412 $633 reversed $624 $-1 #
edge $-1 $824 $634 $632 $825 forward #
vertex $-1 $414 $826 #
vertex $-1 $646 $827 #
straight-curve $-1 197.01773125400555 0 -98.508865627002777 0 -1 0 I I #
coedge $-1 $626 $628 $415 $638 reversed $408 $-1 #
edge $-1 $641 $644 $637 $828 forward #
coedge $-1 $632 $416 $421 $647 forward $624 $-1 #
coedge $-1 $416 $632 $626 $819 reversed $624 $-1 #
vertex $-1 $417 $829 #
straight-curve $-1 0 3.1784673820267795 98.508865627002777 -1 0 0 I I #
coedge $-1 $418 $627 $420 $646 reversed $265 $-1 #
vertex $-1 $638 $830 #
straight-curve $-1 0 -3.1784673820267795 98.508865627002777 1 0 0 I I #
edge $-1 $423 $635 $420 $831 forward #
edge $-1 $424 $634 $421 $832 forward #
point $-1 197.01773125400555 -3.1784673820267795 98.508865627002777 #
point $-1 197.01773125400555 3.1784673820267795 98.508865627002777 #
coedge $-1 $650 $650 $-1 $833 reversed $426 $-1 #
vertex $-1 $428 $834 #
ellipse-curve $-1 0 0 -0.75 0 0 -1 1.5 0 0 1 I I #
point $-1 1.5 0 -3.6100115970336013 #
face $-1 $-1 $446 $79 $-1 $835 reversed single #
loop $-1 $-1 $670 $431 #
plane-surface $-1 0 3.1784673820267795 0 0 -1 0 0 0 -1 forward_v I I I I #
coedge $-1 $836 $668 $671 $837 forward $432 $-1 #
coedge $-1 $674 $434 $435 $662 reversed $278 $-1 #
coedge $-1 $668 $836 $434 $660 reversed $432 $-1 #
edge $-1 $675 $838 $659 $839 forward #
coedge $-1 $436 $435 $836 $840 forward $191 $-1 #
edge $-1 $666 $838 $658 $841 forward #
coedge $-1 $671 $670 $436 $664 reversed $655 $-1 #
edge $-1 $842 $665 $663 $843 forward #
vertex $-1 $438 $844 #
vertex $-1 $677 $845 #
straight-curve $-1 197.01773125400555 0 -98.508865627002777 0 -1 0 I I #
coedge $-1 $657 $659 $439 $669 reversed $432 $-1 #
edge $-1 $672 $675 $668 $846 forward #
coedge $-1 $663 $440 $445 $678 forward $655 $-1 #
coedge $-1 $440 $663 $657 $837 reversed $655 $-1 #
vertex $-1 $441 $847 #
straight-curve $-1 0 3.1784673820267795 98.508865627002777 -1 0 0 I I #
coedge $-1 $442 $658 $444 $677 reversed $278 $-1 #
vertex $-1 $669 $848 #
straight-curve $-1 0 -3.1784673820267795 98.508865627002777 1 0 0 I I #
edge $-1 $447 $666 $444 $849 forward #
edge $-1 $448 $665 $445 $850 forward #
point $-1 197.01773125400555 -3.1784673820267795 98.508865627002777 #
point $-1 197.01773125400555 3.1784673820267795 98.508865627002777 #
coedge $-1 $681 $681 $-1 $851 reversed $450 $-1 #
vertex $-1 $452 $852 #
ellipse-curve $-1 0 0 -0.75 0 0 -1 1.5 0 0 1 I I #
point $-1 1.5 0 -3.6100115970336013 #
face $-1 $-1 $470 $83 $-1 $853 reversed single #
loop $-1 $-1 $701 $455 #
plane-surface $-1 0 3.1784673820267795 0 0 -1 0 0 0 -1 forward_v I I I I #
coedge $-1 $854 $699 $702 $855 forward $456 $-1 #
coedge $-1 $705 $458 $459 $693 reversed $291 $-1 #
coedge $-1 $699 $854 $458 $691 reversed $456 $-1 #
edge $-1 $706 $856 $690 $857 forward #
coedge $-1 $460 $459 $854 $858 forward $200 $-1 #
edge $-1 $697 $856 $689 $859 forward #
coedge $-1 $702 $701 $460 $695 reversed $686 $-1 #
edge $-1 $860 $696 $694 $861 forward #
vertex $-1 $462 $862 #
vertex $-1 $708 $863 #
straight-curve $-1 197.01773125400555 0 -98.508865627002777 0 -1 0 I I #
coedge $-1 $688 $690 $463 $700 reversed $456 $-1 #
edge $-1 $703 $706 $699 $864 forward #
coedge $-1 $694 $464 $469 $709 forward $686 $-1 #
coedge $-1 $464 $694 $688 $855 reversed $686 $-1 #
vertex $-1 $465 $865 #
straight-curve $-1 0 3.1784673820267795 98.508865627002777 -1 0 0 I I #
coedge $-1 $466 $689 $468 $708 reversed $291 $-1 #
vertex $-1 $700 $866 #
straight-curve $-1 0 -3.1784673820267795 98.508865627002777 1 0 0 I I #
edge $-1 $471 $697 $468 $867 forward #
edge $-1 $472 $696 $469 $868 forward #
point $-1 197.01773125400555 -3.1784673820267795 98.508865627002777 #
point $-1 197.01773125400555 3.1784673820267795 98.508865627002777 #
coedge $-1 $712 $712 $-1 $869 reversed $474 $-1 #
vertex $-1 $476 $870 #
ellipse-curve $-1 0 0 -0.75 0 0 -1 1.5 0 0 1 I I #
point $-1 1.5 0 -3.6100115970336013 #
face $-1 $-1 $494 $87 $-1 $871 reversed single #
loop $-1 $-1 $732 $479 #
plane-surface $-1 0 3.1784673820267795 0 0 -1 0 0 0 -1 forward_v I I I I #
coedge $-1 $872 $730 $733 $873 forward $480 $-1 #
coedge $-1 $736 $482 $483 $724 reversed $304 $-1 #
coedge $-1 $730 $872 $482 $722 reversed $480 $-1 #
edge $-1 $737 $874 $721 $875 forward #
coedge $-1 $484 $483 $872 $876 forward $209 $-1 #
edge $-1 $728 $874 $720 $877 forward #
coedge $-1 $733 $732 $484 $726 reversed $717 $-1 #
edge $-1 $878 $727 $725 $879 forward #
vertex $-1 $486 $880 #
vertex $-1 $739 $881 #
straight-curve $-1 197.01773125400555 0 -98.508865627002777 0 -1 0 I I #
coedge $-1 $719 $721 $487 $731 reversed $480 $-1 #
edge $-1 $734 $737 $730 $882 forward #
coedge $-1 $725 $488 $493 $740 forward $717 $-1 #
coedge $-1 $488 $725 $719 $873 reversed $717 $-1 #
vertex $-1 $489 $883 #
straight-curve $-1 0 3.1784673820267795 98.508865627002777 -1 0 0 I I #
coedge $-1 $490 $720 $492 $739 reversed $304 $-1 #
vertex $-1 $731 $884 #
straight-curve $-1 0 -3.1784673820267795 98.508865627002777 1 0 0 I I #
edge $-1 $495 $728 $492 $885 forward #
edge $-1 $496 $727 $493 $886 forward #
point $-1 197.01773125400555 -3.1784673820267795 98.508865627002777 #
point $-1 197.01773125400555 3.1784673820267795 98.508865627002777 #
coedge $-1 $743 $743 $-1 $887 reversed $498 $-1 #
vertex $-1 $500 $888 #
ellipse-curve $-1 0 0 -0.75 0 0 -1 1.5 0 0 1 I I #
point $-1 1.5 0 -3.6100115970336013 #
plane-surface $-1 49.254432813501388 0 0 -1 0 0 0 0 1 forward_v I I I I #
coedge $-1 $508 $506 $510 $752 reversed $317 $-1 #
edge $-1 $521 $754 $520 $889 forward #
vertex $-1 $752 $890 #
straight-curve $-1 -49.254432813501388 -30.836218151782244 0 0 0 -1 I I #
edge $-1 $750 $754 $748 $891 forward #
straight-curve $-1 0 -30.836218151782244 -11.361697603329025 -1 0 0 I I #
vertex $-1 $513 $892 #
straight-curve $-1 0 30.836218151782244 -11.361697603329025 1 0 0 I I #
point $-1 49.254432813501388 30.836218151782244 -11.361697603329025 #
point $-1 49.254432813501388 -30.836218151782244 -11.361697603329025 #
straight-curve $-1 -49.254432813501388 0 11.361697603329025 0 -1 0 I I #
point $-1 -49.254432813501388 30.836218151782244 11.361697603329025 #
point $-1 -49.254432813501388 -30.836218151782244 11.361697603329025 #
straight-curve $-1 49.254432813501388 -30.836218151782244 0 0 0 -1 I I #
straight-curve $-1 49.254432813501388 30.836218151782244 0 0 0 -1 I I #
plane-surface $-1 2.8243182314034216 0 0 -1 0 0 0 0 1 forward_v I I I I #
coedge $-1 $535 $533 $537 $768 reversed $336 $-1 #
edge $-1 $548 $770 $547 $893 forward #
vertex $-1 $768 $894 #
straight-curve $-1 -2.8243182314034216 -4.8438342347960157 0 0 0 -1 I I #
edge $-1 $766 $770 $764 $895 forward #
straight-curve $-1 0 -4.8438342347960157 -11.361697603329025 -1 0 0 I I #
vertex $-1 $540 $896 #
straight-curve $-1 0 4.8438342347960157 -11.361697603329025 1 0 0 I I #
point $-1 2.8243182314034216 4.8438342347960157 -11.361697603329025 #
point $-1 2.8243182314034216 -4.8438342347960157 -11.361697603329025 #
straight-curve $-1 -2.8243182314034216 0 11.361697603329025 0 -1 0 I I #
point $-1 -2.8243182314034216 4.8438342347960157 11.361697603329025 #
point $-1 -2.8243182314034216 -4.8438342347960157 11.361697603329025 #
straight-curve $-1 2.8243182314034216 -4.8438342347960157 0 0 0 -1 I I #
straight-curve $-1 2.8243182314034216 4.8438342347960157 0 0 0 -1 I I #
plane-surface $-1 2.8243182314034216 0 0 -1 0 0 0 0 1 forward_v I I I I #
coedge $-1 $562 $560 $564 $784 reversed $355 $-1 #
edge $-1 $575 $786 $574 $897 forward #
vertex $-1 $784 $898 #
straight-curve $-1 -2.8243182314034216 -4.8438342347960166 0 0 0 -1 I I #
edge $-1 $782 $786 $780 $899 forward #
straight-curve $-1 0 -4.8438342347960166 -11.361697603329025 -1 0 0 I I #
vertex $-1 $567 $900 #
straight-curve $-1 0 4.8438342347960166 -11.361697603329025 1 0 0 I I #
point $-1 2.8243182314034216 4.8438342347960166 -11.361697603329025 #
point $-1 2.8243182314034216 -4.8438342347960166 -11.361697603329025 #
straight-curve $-1 -2.8243182314034216 0 11.361697603329025 0 -1 0 I I #
point $-1 -2.8243182314034216 4.8438342347960166 11.361697603329025 #
point $-1 -2.8243182314034216 -4.8438342347960166 11.361697603329025 #
straight-curve $-1 2.8243182314034216 -4.8438342347960166 0 0 0 -1 I I #
straight-curve $-1 2.8243182314034216 4.8438342347960166 0 0 0 -1 I I #
plane-surface $-1 197.01773125400555 0 0 -1 0 0 0 0 1 forward_v I I I I #
coedge $-1 $589 $587 $591 $800 reversed $374 $-1 #
edge $-1 $602 $802 $601 $901 forward #
vertex $-1 $800 $902 #
straight-curve $-1 -197.01773125400555 -5.1203237026411053 0 0 0 -1 I I #
edge $-1 $798 $802 $796 $903 forward #
straight-curve $-1 0 -5.1203237026411053 -98.508865627002777 -1 0 0 I I #
vertex $-1 $594 $904 #
straight-curve $-1 0 5.1203237026411053 -98.508865627002777 1 0 0 I I #
point $-1 197.01773125400555 5.1203237026411053 -98.508865627002777 #
point $-1 197.01773125400555 -5.1203237026411053 -98.508865627002777 #
straight-curve $-1 -197.01773125400555 0 98.508865627002777 0 -1 0 I I #
point $-1 -197.01773125400555 5.1203237026411053 98.508865627002777 #
point $-1 -197.01773125400555 -5.1203237026411053 98.508865627002777 #
straight-curve $-1 197.01773125400555 -5.1203237026411053 0 0 0 -1 I I #
straight-curve $-1 197.01773125400555 5.1203237026411053 0 0 0 -1 I I #
edge $-1 $905 $905 $611 $-1 forward #
point $-1 0.5 0 -0.25 #
edge $-1 $906 $906 $615 $-1 forward #
point $-1 0.5 0 -0.25 #
edge $-1 $907 $907 $619 $-1 forward #
point $-1 0.5 0 -0.25 #
plane-surface $-1 197.01773125400555 0 0 -1 0 0 0 0 1 forward_v I I I I #
coedge $-1 $628 $626 $630 $822 reversed $408 $-1 #
edge $-1 $641 $824 $640 $908 forward #
vertex $-1 $822 $909 #
straight-curve $-1 -197.01773125400555 -3.1784673820267795 0 0 0 -1 I I #
edge $-1 $820 $824 $818 $910 forward #
straight-curve $-1 0 -3.1784673820267795 -98.508865627002777 -1 0 0 I I #
vertex $-1 $633 $911 #
straight-curve $-1 0 3.1784673820267795 -98.508865627002777 1 0 0 I I #
point $-1 197.01773125400555 3.1784673820267795 -98.508865627002777 #
point $-1 197.01773125400555 -3.1784673820267795 -98.508865627002777 #
straight-curve $-1 -197.01773125400555 0 98.508865627002777 0 -1 0 I I #
point $-1 -197.01773125400555 3.1784673820267795 98.508865627002777 #
point $-1 -197.01773125400555 -3.1784673820267795 98.508865627002777 #
straight-curve $-1 197.01773125400555 -3.1784673820267795 0 0 0 -1 I I #
straight-curve $-1 197.01773125400555 3.1784673820267795 0 0 0 -1 I I #
edge $-1 $912 $912 $650 $-1 forward #
point $-1 1.5 0 -0.75 #
plane-surface $-1 197.01773125400555 0 0 -1 0 0 0 0 1 forward_v I I I I #
coedge $-1 $659 $657 $661 $840 reversed $432 $-1 #
edge $-1 $672 $842 $671 $913 forward #
vertex $-1 $840 $914 #
straight-curve $-1 -197.01773125400555 -3.1784673820267795 0 0 0 -1 I I #
edge $-1 $838 $842 $836 $915 forward #
straight-curve $-1 0 -3.1784673820267795 -98.508865627002777 -1 0 0 I I #
vertex $-1 $664 $916 #
straight-curve $-1 0 3.1784673820267795 -98.508865627002777 1 0 0 I I #
point $-1 197.01773125400555 3.1784673820267795 -98.508865627002777 #
point $-1 197.01773125400555 -3.1784673820267795 -98.508865627002777 #
straight-curve $-1 -197.01773125400555 0 98.508865627002777 0 -1 0 I I #
point $-1 -197.01773125400555 3.1784673820267795 98.508865627002777 #
point $-1 -197.01773125400555 -3.1784673820267795 98.508865627002777 #
straight-curve $-1 197.01773125400555 -3.1784673820267795 0 0 0 -1 I I #
straight-curve $-1 197.01773125400555 3.1784673820267795 0 0 0 -1 I I #
edge $-1 $917 $917 $681 $-1 forward #
point $-1 1.5 0 -0.75 #
plane-surface $-1 197.01773125400555 0 0 -1 0 0 0 0 1 forward_v I I I I #
coedge $-1 $690 $688 $692 $858 reversed $456 $-1 #
edge $-1 $703 $860 $702 $918 forward #
vertex $-1 $858 $919 #
straight-curve $-1 -197.01773125400555 -3.1784673820267795 0 0 0 -1 I I #
edge $-1 $856 $860 $854 $920 forward #
straight-curve $-1 0 -3.1784673820267795 -98.508865627002777 -1 0 0 I I #
vertex $-1 $695 $921 #
straight-curve $-1 0 3.1784673820267795 -98.508865627002777 1 0 0 I I #
point $-1 197.01773125400555 3.1784673820267795 -98.508865627002777 #
point $-1 197.01773125400555 -3.1784673820267795 -98.508865627002777 #
straight-curve $-1 -197.01773125400555 0 98.508865627002777 0 -1 0 I I #
point $-1 -197.01773125400555 3.1784673820267795 98.508865627002777 #
point $-1 -197.01773125400555 -3.1784673820267795 98.508865627002777 #
straight-curve $-1 197.01773125400555 -3.1784673820267795 0 0 0 -1 I I #
straight-curve $-1 197.01773125400555 3.1784673820267795 0 0 0 -1 I I #
edge $-1 $922 $922 $712 $-1 forward #
point $-1 1.5 0 -0.75 #
plane-surface $-1 197.01773125400555 0 0 -1 0 0 0 0 1 forward_v I I I I #
coedge $-1 $721 $719 $723 $876 reversed $480 $-1 #
edge $-1 $734 $878 $733 $923 forward #
vertex $-1 $876 $924 #
straight-curve $-1 -197.01773125400555 -3.1784673820267795 0 0 0 -1 I I #
edge $-1 $874 $878 $872 $925 forward #
straight-curve $-1 0 -3.1784673820267795 -98.508865627002777 -1 0 0 I I #
vertex $-1 $726 $926 #
straight-curve $-1 0 3.1784673820267795 -98.508865627002777 1 0 0 I I #
point $-1 197.01773125400555 3.1784673820267795 -98.508865627002777 #
point $-1 197.01773125400555 -3.1784673820267795 -98.508865627002777 #
straight-curve $-1 -197.01773125400555 0 98.508865627002777 0 -1 0 I I #
point $-1 -197.01773125400555 3.1784673820267795 98.508865627002777 #
point $-1 -197.01773125400555 -3.1784673820267795 98.508865627002777 #
straight-curve $-1 197.01773125400555 -3.1784673820267795 0 0 0 -1 I I #
straight-curve $-1 197.01773125400555 3.1784673820267795 0 0 0 -1 I I #
edge $-1 $927 $927 $743 $-1 forward #
point $-1 1.5 0 -0.75 #
straight-curve $-1 -49.254432813501388 30.836218151782244 0 0 0 -1 I I #
point $-1 -49.254432813501388 -30.836218151782244 -11.361697603329025 #
straight-curve $-1 -49.254432813501388 0 -11.361697603329025 0 1 0 I I #
point $-1 -49.254432813501388 30.836218151782244 -11.361697603329025 #
straight-curve $-1 -2.8243182314034216 4.8438342347960157 0 0 0 -1 I I #
point $-1 -2.8243182314034216 -4.8438342347960157 -11.361697603329025 #
straight-curve $-1 -2.8243182314034216 0 -11.361697603329025 0 1 0 I I #
point $-1 -2.8243182314034216 4.8438342347960157 -11.361697603329025 #
straight-curve $-1 -2.8243182314034216 4.8438342347960166 0 0 0 -1 I I #
point $-1 -2.8243182314034216 -4.8438342347960166 -11.361697603329025 #
straight-curve $-1 -2.8243182314034216 0 -11.361697603329025 0 1 0 I I #
point $-1 -2.8243182314034216 4.8438342347960166 -11.361697603329025 #
straight-curve $-1 -197.01773125400555 5.1203237026411053 0 0 0 -1 I I #
point $-1 -197.01773125400555 -5.1203237026411053 -98.508865627002777 #
straight-curve $-1 -197.01773125400555 0 -98.508865627002777 0 1 0 I I #
point $-1 -197.01773125400555 5.1203237026411053 -98.508865627002777 #
vertex $-1 $811 $928 #
vertex $-1 $813 $929 #
vertex $-1 $815 $930 #
straight-curve $-1 -197.01773125400555 3.1784673820267795 0 0 0 -1 I I #
point $-1 -197.01773125400555 -3.1784673820267795 -98.508865627002777 #
straight-curve $-1 -197.01773125400555 0 -98.508865627002777 0 1 0 I I #
point $-1 -197.01773125400555 3.1784673820267795 -98.508865627002777 #
vertex $-1 $833 $931 #
straight-curve $-1 -197.01773125400555 3.1784673820267795 0 0 0 -1 I I #
point $-1 -197.01773125400555 -3.1784673820267795 -98.508865627002777 #
straight-curve $-1 -197.01773125400555 0 -98.508865627002777 0 1 0 I I #
point $-1 -197.01773125400555 3.1784673820267795 -98.508865627002777 #
vertex $-1 $851 $932 #
straight-curve $-1 -197.01773125400555 3.1784673820267795 0 0 0 -1 I I #
point $-1 -197.01773125400555 -3.1784673820267795 -98.508865627002777 #
straight-curve $-1 -197.01773125400555 0 -98.508865627002777 0 1 0 I I #
point $-1 -197.01773125400555 3.1784673820267795 -98.508865627002777 #
vertex $-1 $869 $933 #
straight-curve $-1 -197.01773125400555 3.1784673820267795 0 0 0 -1 I I #
point $-1 -197.01773125400555 -3.1784673820267795 -98.508865627002777 #
straight-curve $-1 -197.01773125400555 0 -98.508865627002777 0 1 0 I I #
point $-1 -197.01773125400555 3.1784673820267795 -98.508865627002777 #
vertex $-1 $887 $934 #
point $-1 0 0 0.25 #
point $-1 0 0 0.25 #
point $-1 0 0 0.25 #
point $-1 0 0 0.75 #
point $-1 0 0 0.75 #
point $-1 0 0 0.75 #
point $-1 0 0 0.75 #
End-of-ACIS-data 