300 0 8 0           
7 Unknown 11 ACIS 3.0 NT 24 Fri Oct 30 19:11:24 1998 
-1 9.9999999999999995e-007 1e-010 
body $8 $9 $-1 $10 #
body $11 $12 $-1 $13 #
body $14 $15 $-1 $16 #
body $17 $18 $-1 $19 #
body $20 $21 $-1 $22 #
body $23 $24 $-1 $25 #
body $26 $27 $-1 $28 #
body $29 $30 $-1 $31 #
display_attribute-st-attrib $-1 $32 $-1 $0 1 #
lump $-1 $-1 $33 $0 #
transform $-1 1 0 0 0 1 0 0 0 1 72.627948850978129 49.226397864505699 23.304831675555622 1 rotate no_reflect no_shear #
display_attribute-st-attrib $-1 $34 $-1 $1 7 #
lump $-1 $-1 $35 $1 #
transform $-1 1 0 0 0 1 0 0 0 1 72.627948850978129 49.226397864505699 23.304831675555622 1 rotate no_reflect no_shear #
display_attribute-st-attrib $-1 $36 $-1 $2 6 #
lump $-1 $-1 $37 $2 #
transform $-1 1 0 0 0 1 0 0 0 1 72.627948850978129 49.226397864505699 23.304831675555622 1 rotate no_reflect no_shear #
display_attribute-st-attrib $-1 $38 $-1 $3 5 #
lump $-1 $-1 $39 $3 #
transform $-1 1 0 0 0 1 0 0 0 1 72.627948850978129 49.226397864505699 23.304831675555622 1 rotate no_reflect no_shear #
display_attribute-st-attrib $-1 $40 $-1 $4 4 #
lump $-1 $-1 $41 $4 #
transform $-1 1 0 0 0 1 0 0 0 1 72.627948850978129 49.226397864505699 23.304831675555622 1 rotate no_reflect no_shear #
display_attribute-st-attrib $-1 $42 $-1 $5 3 #
lump $-1 $-1 $43 $5 #
transform $-1 1 0 0 0 1 0 0 0 1 72.627948850978129 49.226397864505699 23.304831675555622 1 rotate no_reflect no_shear #
display_attribute-st-attrib $-1 $44 $-1 $6 2 #
lump $-1 $-1 $45 $6 #
transform $-1 1 0 0 0 1 0 0 0 1 72.627948850978129 49.226397864505699 23.304831675555622 1 rotate no_reflect no_shear #
display_attribute-st-attrib $-1 $46 $-1 $7 1 #
lump $-1 $-1 $47 $7 #
transform $-1 1 0 0 0 1 0 0 0 1 72.627948850978129 49.226397864505699 23.304831675555622 1 rotate no_reflect no_shear #
id_attribute-st-attrib $-1 $-1 $8 $0 3347 #
shell $-1 $-1 $-1 $48 $-1 $9 #
id_attribute-st-attrib $-1 $-1 $11 $1 3355 #
shell $-1 $-1 $-1 $49 $-1 $12 #
id_attribute-st-attrib $-1 $-1 $14 $2 3367 #
shell $-1 $-1 $-1 $50 $-1 $15 #
id_attribute-st-attrib $-1 $-1 $17 $3 3375 #
shell $-1 $-1 $-1 $51 $-1 $18 #
id_attribute-st-attrib $-1 $-1 $20 $4 3384 #
shell $-1 $-1 $-1 $52 $-1 $21 #
id_attribute-st-attrib $-1 $-1 $23 $5 3399 #
shell $-1 $-1 $-1 $53 $-1 $24 #
id_attribute-st-attrib $-1 $-1 $26 $6 3410 #
shell $-1 $-1 $-1 $54 $-1 $27 #
id_attribute-st-attrib $-1 $-1 $29 $7 3422 #
shell $-1 $-1 $-1 $55 $-1 $30 #
face $-1 $56 $57 $33 $-1 $58 forward single #
face $-1 $59 $60 $35 $-1 $61 reversed single #
face $-1 $62 $63 $37 $-1 $64 reversed single #
face $-1 $65 $66 $39 $-1 $67 forward single #
face $-1 $68 $69 $41 $-1 $70 forward single #
face $-1 $71 $72 $43 $-1 $73 reversed single #
face $-1 $74 $75 $45 $-1 $76 forward single #
face $-1 $77 $78 $47 $-1 $79 forward single #
face $-1 $80 $81 $33 $-1 $82 reversed single #
loop $-1 $-1 $83 $48 #
plane-surface $-1 0 0 23.304831675555622 0 0 1 1 0 0 forward_v I I I I #
face $-1 $84 $85 $35 $-1 $86 reversed single #
loop $-1 $-1 $87 $49 #
plane-surface $-1 -34.929270212017414 -40.015850725113516 0 1 0 0 0 0 -1 forward_v I I I I #
face $-1 $88 $89 $37 $-1 $90 reversed single #
loop $-1 $-1 $91 $50 #
plane-surface $-1 -167.92439321134808 28.856623795327927 125.94820860478518 0 1 0 -0.6560590369687036 0 0.75470957328743171 forward_v I I I I #
face $-1 $92 $93 $39 $-1 $94 forward single #
loop $-1 $95 $96 $51 #
cone-surface $-1 -67.684653937796355 34.676559243664428 18.747130743348237 0.6560590369687036 0 -0.75470957328743171 1.8867739332185793 0 1.640147592421759 1 I I 0 1 forward I I I I #
face $-1 $97 $98 $41 $-1 $99 forward single #
loop $-1 $100 $101 $52 #
cone-surface $-1 -67.684653937796355 43.406462416169191 18.747130743348237 0.6560590369687036 0 -0.75470957328743171 1.8867739332185793 0 1.640147592421759 1 I I 0 1 forward I I I I #
face $-1 $102 $103 $43 $-1 $104 reversed single #
loop $-1 $-1 $105 $53 #
plane-surface $-1 65.458796682888845 32.235995178931361 219.21496291957806 0 1 0 0.68199836817093118 0 0.7313536940579346 forward_v I I I I #
face $-1 $106 $107 $45 $-1 $108 forward single #
loop $-1 $109 $110 $54 #
cone-surface $-1 66.719404286257941 37.090395946238317 17.672643626143355 -0.68199836817093118 0 -0.7313536940579346 1.4627073881158692 0 -1.3639967363418624 1 I I 0 1 forward I I I I #
face $-1 $111 $112 $47 $-1 $113 forward single #
loop $-1 $114 $115 $55 #
cone-surface $-1 66.719404286257941 44.371997097198744 17.672643626143355 -0.68199836817093118 0 -0.7313536940579346 1.4627073881158692 0 -1.3639967363418624 1 I I 0 1 forward I I I I #
face $-1 $116 $117 $33 $-1 $118 reversed single #
loop $-1 $-1 $119 $56 #
plane-surface $-1 0 0 -23.304831675555622 0 0 1 1 0 0 forward_v I I I I #
coedge $-1 $120 $121 $122 $123 forward $57 $-1 #
face $-1 $124 $125 $35 $-1 $126 reversed single #
loop $-1 $-1 $127 $59 #
plane-surface $-1 -30.473777855942146 -30.805303585721333 0 0 -1 0 0 0 -1 forward_v I I I I #
coedge $-1 $128 $129 $130 $131 forward $60 $-1 #
face $-1 $132 $133 $37 $-1 $134 forward single #
loop $-1 $-1 $135 $62 #
plane-surface $-1 -72.627948850978129 39.041510829916817 16.322192032658933 -0.6560590369687036 0 0.75470957328743171 0.75470957328743171 0 0.6560590369687036 forward_v I I I I #
coedge $-1 $136 $137 $138 $139 reversed $63 $-1 #
face $-1 $-1 $140 $39 $-1 $141 forward single #
loop $-1 $142 $143 $65 #
cone-surface $-1 -65.937589164753462 34.676559243664428 16.737362665979905 0.6560590369687036 0 -0.75470957328743171 0.94338696660928967 0 0.8200737962108795 1 I I -0.70710678118654746 0.70710678118654746 forward I I I I #
loop $-1 $-1 $144 $51 #
coedge $-1 $96 $96 $145 $146 reversed $66 $-1 #
face $-1 $-1 $147 $41 $-1 $148 forward single #
loop $-1 $149 $150 $68 #
cone-surface $-1 -65.937589164753462 43.406462416169191 16.737362665979905 0.6560590369687036 0 -0.75470957328743171 0.94338696660928967 0 0.8200737962108795 1 I I -0.70710678118654746 0.70710678118654746 forward I I I I #
loop $-1 $-1 $151 $52 #
coedge $-1 $101 $101 $152 $153 reversed $69 $-1 #
face $-1 $154 $155 $43 $-1 $156 reversed single #
loop $-1 $-1 $157 $71 #
plane-surface $-1 -33.605488517049039 40.73119652171853 112.98152555155089 0.68199836817093118 0 0.7313536940579346 0.7313536940579346 0 -0.68199836817093118 forward_v I I I I #
coedge $-1 $158 $159 $160 $161 reversed $72 $-1 #
face $-1 $-1 $162 $45 $-1 $163 forward single #
loop $-1 $164 $165 $74 #
cone-surface $-1 65.162340840630719 37.090395946238317 16.002897544644465 -0.68199836817093118 0 -0.7313536940579346 0.7313536940579346 0 -0.68199836817093118 1 I I -0.70710678118654746 0.70710678118654746 forward I I I I #
loop $-1 $-1 $166 $54 #
coedge $-1 $110 $110 $167 $168 reversed $75 $-1 #
face $-1 $-1 $169 $47 $-1 $170 forward single #
loop $-1 $171 $172 $77 #
cone-surface $-1 65.162340840630719 44.371997097198744 16.002897544644465 -0.68199836817093118 0 -0.7313536940579346 0.7313536940579346 0 -0.68199836817093118 1 I I -0.70710678118654746 0.70710678118654746 forward I I I I #
loop $-1 $-1 $173 $55 #
coedge $-1 $115 $115 $174 $175 reversed $78 $-1 #
face $-1 $176 $177 $33 $-1 $178 reversed single #
loop $-1 $-1 $179 $80 #
plane-surface $-1 0 -49.226397864505699 0 0 1 0 0 0 1 forward_v I I I I #
coedge $-1 $180 $181 $182 $183 forward $81 $-1 #
coedge $-1 $184 $83 $185 $186 forward $57 $-1 #
coedge $-1 $83 $184 $187 $188 forward $57 $-1 #
coedge $-1 $189 $190 $83 $123 reversed $191 $-1 #
edge $-1 $192 $193 $122 $194 forward #
face $-1 $195 $196 $35 $-1 $197 forward single #
loop $-1 $-1 $198 $84 #
plane-surface $-1 -26.018285499866881 -40.015850725113516 0 -1 0 0 0 0 1 forward_v I I I I #
coedge $-1 $199 $200 $201 $202 forward $85 $-1 #
coedge $-1 $203 $87 $204 $205 reversed $60 $-1 #
coedge $-1 $87 $203 $206 $207 reversed $60 $-1 #
coedge $-1 $200 $199 $87 $131 reversed $85 $-1 #
edge $-1 $208 $209 $130 $210 forward #
face $-1 $211 $212 $37 $-1 $213 reversed single #
loop $-1 $-1 $138 $88 #
plane-surface $-1 0 0 23.304831675555622 0 0 1 1 0 0 forward_v I I I I #
coedge $-1 $214 $215 $216 $217 reversed $89 $-1 #
coedge $-1 $137 $91 $218 $219 reversed $63 $-1 #
coedge $-1 $91 $136 $214 $220 reversed $63 $-1 #
coedge $-1 $216 $221 $91 $139 forward $133 $-1 #
edge $-1 $222 $223 $138 $224 forward #
loop $-1 $-1 $145 $92 #
plane-surface $-1 -72.627948850978129 39.041510829916817 16.322192032658933 -0.6560590369687036 0 0.75470957328743171 0.75470957328743171 0 0.6560590369687036 forward_v I I I I #
loop $-1 $-1 $225 $65 #
coedge $-1 $143 $143 $144 $226 reversed $93 $-1 #
coedge $-1 $144 $144 $143 $226 forward $95 $-1 #
coedge $-1 $145 $145 $96 $146 forward $140 $-1 #
edge $-1 $227 $227 $145 $228 forward #
loop $-1 $-1 $152 $97 #
plane-surface $-1 -72.627948850978129 39.041510829916817 16.322192032658933 -0.6560590369687036 0 0.75470957328743171 0.75470957328743171 0 0.6560590369687036 forward_v I I I I #
loop $-1 $-1 $229 $68 #
coedge $-1 $150 $150 $151 $230 reversed $98 $-1 #
coedge $-1 $151 $151 $150 $230 forward $100 $-1 #
coedge $-1 $152 $152 $101 $153 forward $147 $-1 #
edge $-1 $231 $231 $152 $232 forward #
face $-1 $233 $234 $43 $-1 $235 forward single #
loop $-1 $-1 $160 $102 #
plane-surface $-1 72.627948850978129 0 0 -1 0 0 0 0 1 forward_v I I I I #
coedge $-1 $236 $237 $238 $239 reversed $103 $-1 #
coedge $-1 $159 $105 $240 $241 reversed $72 $-1 #
coedge $-1 $105 $158 $236 $242 reversed $72 $-1 #
coedge $-1 $238 $243 $105 $161 forward $155 $-1 #
edge $-1 $244 $245 $160 $246 forward #
loop $-1 $-1 $167 $106 #
plane-surface $-1 -33.605488517049039 40.73119652171853 112.98152555155089 0.68199836817093118 0 0.7313536940579346 0.7313536940579346 0 -0.68199836817093118 forward_v I I I I #
loop $-1 $-1 $247 $74 #
coedge $-1 $165 $165 $166 $248 reversed $107 $-1 #
coedge $-1 $166 $166 $165 $248 forward $109 $-1 #
coedge $-1 $167 $167 $110 $168 forward $162 $-1 #
edge $-1 $249 $249 $167 $250 forward #
loop $-1 $-1 $174 $111 #
plane-surface $-1 -33.605488517049039 40.73119652171853 112.98152555155089 0.68199836817093118 0 0.7313536940579346 0.7313536940579346 0 -0.68199836817093118 forward_v I I I I #
loop $-1 $-1 $251 $77 #
coedge $-1 $172 $172 $173 $252 reversed $112 $-1 #
coedge $-1 $173 $173 $172 $252 forward $114 $-1 #
coedge $-1 $174 $174 $115 $175 forward $169 $-1 #
edge $-1 $253 $253 $174 $254 forward #
face $-1 $255 $256 $33 $-1 $257 reversed single #
loop $-1 $-1 $258 $116 #
plane-surface $-1 -72.627948850978129 0 0 1 0 0 0 0 -1 forward_v I I I I #
coedge $-1 $259 $187 $260 $261 forward $117 $-1 #
coedge $-1 $262 $119 $259 $263 forward $81 $-1 #
coedge $-1 $119 $262 $264 $265 forward $81 $-1 #
coedge $-1 $190 $189 $119 $183 reversed $191 $-1 #
edge $-1 $266 $267 $182 $268 forward #
coedge $-1 $121 $120 $269 $270 forward $57 $-1 #
coedge $-1 $271 $272 $120 $186 reversed $256 $-1 #
edge $-1 $193 $273 $185 $274 forward #
coedge $-1 $179 $275 $121 $188 reversed $117 $-1 #
edge $-1 $276 $192 $187 $277 forward #
coedge $-1 $182 $122 $275 $278 forward $191 $-1 #
coedge $-1 $122 $182 $271 $279 reversed $191 $-1 #
loop $-1 $-1 $189 $255 #
vertex $-1 $123 $280 #
vertex $-1 $123 $281 #
straight-curve $-1 72.627948850978129 0 23.304831675555622 0 1 0 I I #
face $-1 $282 $283 $35 $-1 $284 reversed single #
loop $-1 $-1 $285 $124 #
plane-surface $-1 0 0 23.304831675555622 0 0 1 1 0 0 forward_v I I I I #
coedge $-1 $286 $287 $288 $289 reversed $125 $-1 #
coedge $-1 $130 $127 $290 $291 reversed $85 $-1 #
coedge $-1 $127 $130 $292 $293 reversed $85 $-1 #
coedge $-1 $287 $286 $127 $202 reversed $125 $-1 #
edge $-1 $294 $295 $201 $296 forward #
coedge $-1 $129 $128 $297 $298 reversed $60 $-1 #
coedge $-1 $290 $299 $128 $205 forward $283 $-1 #
edge $-1 $300 $209 $204 $301 forward #
coedge $-1 $302 $292 $129 $207 forward $196 $-1 #
edge $-1 $208 $303 $206 $304 forward #
vertex $-1 $207 $305 #
vertex $-1 $205 $306 #
straight-curve $-1 -34.929270212017414 -30.805303585721333 0 0 0 -1 I I #
face $-1 $-1 $307 $37 $-1 $308 reversed single #
loop $-1 $-1 $309 $132 #
plane-surface $-1 0 49.226397864505699 0 0 -1 0 0 0 -1 forward_v I I I I #
coedge $-1 $310 $135 $137 $220 forward $89 $-1 #
coedge $-1 $135 $310 $309 $311 reversed $89 $-1 #
coedge $-1 $312 $138 $135 $217 forward $133 $-1 #
edge $-1 $223 $313 $216 $314 forward #
coedge $-1 $315 $316 $136 $219 forward $307 $-1 #
edge $-1 $317 $222 $218 $318 forward #
edge $-1 $223 $317 $137 $319 forward #
coedge $-1 $138 $312 $315 $320 forward $133 $-1 #
vertex $-1 $219 $321 #
vertex $-1 $139 $322 #
straight-curve $-1 -83.962196605674038 28.856623795327927 23.304831675555619 1 0 0 I I #
coedge $-1 $225 $225 $-1 $323 reversed $142 $-1 #
edge $-1 $324 $324 $143 $325 forward #
vertex $-1 $146 $326 #
ellipse-curve $-1 -68.611644914628371 34.676559243664428 19.813511854107279 -0.6560590369687036 0 0.75470957328743171 1.8867739332185793 0 1.640147592421759 1 I I #
coedge $-1 $229 $229 $-1 $327 reversed $149 $-1 #
edge $-1 $328 $328 $150 $329 forward #
vertex $-1 $153 $330 #
ellipse-curve $-1 -68.611644914628371 43.406462416169191 19.813511854107279 -0.6560590369687036 0 0.75470957328743171 1.8867739332185793 0 1.640147592421759 1 I I #
face $-1 $-1 $331 $43 $-1 $332 reversed single #
loop $-1 $-1 $240 $154 #
plane-surface $-1 0 0 23.304831675555622 0 0 1 1 0 0 forward_v I I I I #
coedge $-1 $333 $157 $159 $242 forward $103 $-1 #
coedge $-1 $157 $333 $334 $335 reversed $103 $-1 #
coedge $-1 $336 $160 $157 $239 forward $155 $-1 #
edge $-1 $245 $337 $238 $338 forward #
coedge $-1 $339 $340 $158 $241 forward $234 $-1 #
edge $-1 $341 $244 $240 $342 forward #
edge $-1 $245 $341 $159 $343 forward #
coedge $-1 $160 $336 $339 $344 reversed $155 $-1 #
vertex $-1 $344 $345 #
vertex $-1 $161 $346 #
straight-curve $-1 72.627948850978129 32.235995178931361 109.60748145978903 0 0 -1 I I #
coedge $-1 $247 $247 $-1 $347 reversed $164 $-1 #
edge $-1 $348 $348 $165 $349 forward #
vertex $-1 $168 $350 #
ellipse-curve $-1 67.594469363714239 37.090395946238317 18.611036013584314 0.68199836817093118 0 0.7313536940579346 1.4627073881158692 0 -1.3639967363418624 1 I I #
coedge $-1 $251 $251 $-1 $351 reversed $171 $-1 #
edge $-1 $352 $352 $172 $353 forward #
vertex $-1 $175 $354 #
ellipse-curve $-1 67.594469363714239 44.371997097198744 18.611036013584314 0.68199836817093118 0 0.7313536940579346 1.4627073881158692 0 -1.3639967363418624 1 I I #
face $-1 $-1 $191 $33 $-1 $355 reversed single #
loop $-1 $-1 $271 $176 #
plane-surface $-1 0 49.226397864505699 0 0 -1 0 0 0 -1 forward_v I I I I #
coedge $-1 $356 $269 $272 $357 forward $177 $-1 #
coedge $-1 $275 $179 $180 $263 reversed $117 $-1 #
coedge $-1 $269 $356 $179 $261 reversed $177 $-1 #
edge $-1 $276 $358 $260 $359 forward #
coedge $-1 $181 $180 $356 $360 forward $81 $-1 #
edge $-1 $267 $358 $259 $361 forward #
coedge $-1 $272 $271 $181 $265 reversed $256 $-1 #
edge $-1 $362 $266 $264 $363 forward #
vertex $-1 $183 $364 #
vertex $-1 $278 $365 #
straight-curve $-1 72.627948850978129 0 -23.304831675555622 0 -1 0 I I #
coedge $-1 $258 $260 $184 $270 reversed $177 $-1 #
edge $-1 $273 $276 $269 $366 forward #
coedge $-1 $264 $185 $190 $279 forward $256 $-1 #
coedge $-1 $185 $264 $258 $357 reversed $256 $-1 #
vertex $-1 $186 $367 #
straight-curve $-1 0 49.226397864505699 23.304831675555622 -1 0 0 I I #
coedge $-1 $187 $259 $189 $278 reversed $117 $-1 #
vertex $-1 $270 $368 #
straight-curve $-1 0 -49.226397864505699 23.304831675555622 1 0 0 I I #
edge $-1 $192 $267 $189 $369 forward #
edge $-1 $193 $266 $190 $370 forward #
point $-1 72.627948850978129 -49.226397864505699 23.304831675555622 #
point $-1 72.627948850978129 49.226397864505699 23.304831675555622 #
face $-1 $-1 $371 $35 $-1 $372 reversed single #
loop $-1 $-1 $373 $195 #
plane-surface $-1 0 0 -23.304831675555622 0 0 1 1 0 0 forward_v I I I I #
coedge $-1 $292 $302 $287 $374 forward $196 $-1 #
coedge $-1 $201 $198 $373 $375 reversed $125 $-1 #
coedge $-1 $198 $201 $285 $374 reversed $125 $-1 #
coedge $-1 $376 $377 $198 $289 forward $371 $-1 #
edge $-1 $378 $379 $288 $380 forward #
coedge $-1 $373 $204 $199 $291 forward $283 $-1 #
edge $-1 $209 $295 $290 $381 forward #
coedge $-1 $206 $285 $200 $293 forward $196 $-1 #
edge $-1 $294 $208 $292 $382 forward #
vertex $-1 $293 $383 #
vertex $-1 $291 $384 #
straight-curve $-1 -26.018285499866881 -30.805303585721333 0 0 0 -1 I I #
coedge $-1 $377 $376 $203 $298 forward $371 $-1 #
edge $-1 $303 $300 $297 $385 forward #
coedge $-1 $204 $373 $377 $386 forward $283 $-1 #
vertex $-1 $205 $387 #
straight-curve $-1 -34.929270212017414 -20.007925362556758 -23.304831675555622 0 1 0 I I #
coedge $-1 $285 $206 $376 $388 forward $196 $-1 #
vertex $-1 $388 $389 #
straight-curve $-1 -34.929270212017414 -20.007925362556758 23.304831675555622 0 -1 0 I I #
point $-1 -34.929270212017414 -30.805303585721333 23.304831675555622 #
point $-1 -34.929270212017414 -30.805303585721333 -23.304831675555622 #
loop $-1 $-1 $218 $211 #
plane-surface $-1 -72.627948850978129 0 0 1 0 0 0 0 -1 forward_v I I I I #
coedge $-1 $390 $391 $215 $311 forward $212 $-1 #
coedge $-1 $215 $214 $316 $392 reversed $89 $-1 #
edge $-1 $313 $393 $309 $394 forward #
coedge $-1 $221 $216 $391 $395 forward $133 $-1 #
vertex $-1 $395 $396 #
straight-curve $-1 -64.595340978278614 19.520755414958408 23.304831675555626 0 1 0 I I #
coedge $-1 $397 $218 $221 $320 reversed $307 $-1 #
coedge $-1 $218 $397 $310 $392 forward $307 $-1 #
vertex $-1 $219 $398 #
straight-curve $-1 -72.627948850978129 28.856623795327927 62.97410430239259 0 0 1 I I #
straight-curve $-1 -72.627948850978129 28.856623795327927 16.322192032658933 -0.75470957328743171 0 -0.6560590369687036 I I #
edge $-1 $399 $222 $315 $400 forward #
point $-1 -72.627948850978129 28.856623795327927 23.304831675555622 #
point $-1 -64.595340978278628 28.856623795327927 23.304831675555622 #
edge $-1 $401 $401 $225 $-1 forward #
vertex $-1 $226 $402 #
ellipse-curve $-1 -66.757662960964339 34.676559243664428 17.680749632589194 -0.6560590369687036 0 0.75470957328743171 1.8867739332185793 0 1.640147592421759 1 I I #
point $-1 -66.724870981409794 34.676559243664428 21.453659446529038 #
edge $-1 $403 $403 $229 $-1 forward #
vertex $-1 $230 $404 #
ellipse-curve $-1 -66.757662960964339 43.406462416169191 17.680749632589194 -0.6560590369687036 0 0.75470957328743171 1.8867739332185793 0 1.640147592421759 1 I I #
point $-1 -66.724870981409794 43.406462416169191 21.453659446529038 #
loop $-1 $-1 $334 $233 #
plane-surface $-1 0 49.226397864505699 0 0 -1 0 0 0 -1 forward_v I I I I #
coedge $-1 $237 $236 $340 $405 reversed $103 $-1 #
coedge $-1 $406 $407 $237 $335 forward $331 $-1 #
edge $-1 $337 $408 $334 $409 forward #
coedge $-1 $243 $238 $407 $410 reversed $155 $-1 #
vertex $-1 $239 $411 #
straight-curve $-1 72.627948850978115 20.365598260859265 13.91724035161301 0 1 0 I I #
coedge $-1 $412 $240 $243 $344 forward $234 $-1 #
coedge $-1 $240 $412 $333 $405 forward $234 $-1 #
vertex $-1 $241 $413 #
straight-curve $-1 32.729398341444423 32.235995178931361 23.304831675555619 1 0 0 I I #
straight-curve $-1 -33.605488517049039 32.235995178931361 112.98152555155089 -0.7313536940579346 0 0.68199836817093118 I I #
edge $-1 $244 $414 $243 $415 forward #
point $-1 72.627948850978129 32.235995178931361 23.304831675555622 #
point $-1 72.627948850978129 32.235995178931361 13.917240351613003 #
edge $-1 $416 $416 $247 $-1 forward #
vertex $-1 $248 $417 #
ellipse-curve $-1 65.844339208801657 37.090395946238317 16.734251238702399 0.68199836817093118 0 0.7313536940579346 1.4627073881158692 0 -1.3639967363418624 1 I I #
point $-1 69.057176751830113 37.090395946238317 17.247039277242443 #
edge $-1 $418 $418 $251 $-1 forward #
vertex $-1 $252 $419 #
ellipse-curve $-1 65.844339208801657 44.371997097198744 16.734251238702399 0.68199836817093118 0 0.7313536940579346 1.4627073881158692 0 -1.3639967363418624 1 I I #
point $-1 69.057176751830113 44.371997097198744 17.247039277242443 #
plane-surface $-1 72.627948850978129 0 0 -1 0 0 0 0 1 forward_v I I I I #
coedge $-1 $260 $258 $262 $360 reversed $177 $-1 #
edge $-1 $273 $362 $272 $420 forward #
vertex $-1 $360 $421 #
straight-curve $-1 -72.627948850978129 -49.226397864505699 0 0 0 -1 I I #
edge $-1 $358 $362 $356 $422 forward #
straight-curve $-1 0 -49.226397864505699 -23.304831675555622 -1 0 0 I I #
vertex $-1 $265 $423 #
straight-curve $-1 0 49.226397864505699 -23.304831675555622 1 0 0 I I #
point $-1 72.627948850978129 49.226397864505699 -23.304831675555622 #
point $-1 72.627948850978129 -49.226397864505699 -23.304831675555622 #
straight-curve $-1 -72.627948850978129 0 23.304831675555622 0 -1 0 I I #
point $-1 -72.627948850978129 49.226397864505699 23.304831675555622 #
point $-1 -72.627948850978129 -49.226397864505699 23.304831675555622 #
straight-curve $-1 72.627948850978129 -49.226397864505699 0 0 0 -1 I I #
straight-curve $-1 72.627948850978129 49.226397864505699 0 0 0 -1 I I #
loop $-1 $-1 $288 $282 #
plane-surface $-1 0 -49.226397864505699 0 0 1 0 0 0 1 forward_v I I I I #
coedge $-1 $299 $290 $286 $375 forward $283 $-1 #
edge $-1 $379 $294 $285 $424 forward #
edge $-1 $295 $378 $373 $425 forward #
coedge $-1 $297 $288 $302 $388 reversed $371 $-1 #
coedge $-1 $288 $297 $299 $386 reversed $371 $-1 #
vertex $-1 $386 $426 #
vertex $-1 $289 $427 #
straight-curve $-1 -26.018285499866881 -49.226397864505699 0 0 0 1 I I #
straight-curve $-1 -15.236888927971073 -30.805303585721333 -23.304831675555622 1 0 0 I I #
straight-curve $-1 -15.236888927971073 -30.805303585721333 23.304831675555622 -1 0 0 I I #
point $-1 -26.018285499866881 -30.805303585721333 23.304831675555622 #
point $-1 -26.018285499866881 -30.805303585721333 -23.304831675555622 #
straight-curve $-1 -34.929270212017414 -49.226397864505699 0 0 0 -1 I I #
edge $-1 $378 $300 $377 $428 forward #
point $-1 -34.929270212017414 -49.226397864505699 -23.304831675555622 #
edge $-1 $303 $379 $376 $429 forward #
point $-1 -34.929270212017414 -49.226397864505699 23.304831675555622 #
coedge $-1 $391 $309 $397 $430 reversed $212 $-1 #
coedge $-1 $309 $390 $312 $395 reversed $212 $-1 #
edge $-1 $393 $317 $316 $431 forward #
vertex $-1 $311 $432 #
straight-curve $-1 -55.984834211349941 49.226397864505699 30.789831173729883 -0.75470957328743171 0 -0.6560590369687036 I I #
edge $-1 $313 $399 $391 $433 forward #
point $-1 -64.595340978278628 49.226397864505707 23.304831675555622 #
coedge $-1 $316 $315 $390 $430 forward $307 $-1 #
point $-1 -72.627948850978129 28.856623795327927 16.322192032658933 #
vertex $-1 $395 $434 #
straight-curve $-1 -72.627948850978129 0 23.304831675555622 0 -1 0 I I #
vertex $-1 $323 $435 #
point $-1 -64.870889027745761 34.676559243664428 19.320897225010953 #
vertex $-1 $327 $436 #
point $-1 -64.870889027745761 43.406462416169191 19.320897225010953 #
edge $-1 $408 $341 $340 $437 forward #
coedge $-1 $407 $334 $412 $438 reversed $331 $-1 #
coedge $-1 $334 $406 $336 $410 forward $331 $-1 #
vertex $-1 $335 $439 #
straight-curve $-1 3.5585106228501218 49.226397864505699 78.325534922057557 -0.7313536940579346 0 0.68199836817093118 I I #
edge $-1 $414 $337 $336 $440 forward #
point $-1 72.627948850978129 49.226397864505699 13.917240351613009 #
coedge $-1 $340 $339 $406 $438 forward $234 $-1 #
point $-1 62.560989876450364 32.235995178931361 23.304831675555619 #
vertex $-1 $344 $441 #
straight-curve $-1 72.627948850978129 0 23.304831675555622 0 1 0 I I #
vertex $-1 $347 $442 #
point $-1 67.307046596917516 37.090395946238317 15.370254502360538 #
vertex $-1 $351 $443 #
point $-1 67.307046596917516 44.371997097198744 15.370254502360538 #
straight-curve $-1 -72.627948850978129 49.226397864505699 0 0 0 -1 I I #
point $-1 -72.627948850978129 -49.226397864505699 -23.304831675555622 #
straight-curve $-1 -72.627948850978129 0 -23.304831675555622 0 1 0 I I #
point $-1 -72.627948850978129 49.226397864505699 -23.304831675555622 #
straight-curve $-1 -26.018285499866881 -20.007925362556758 23.304831675555622 0 1 0 I I #
straight-curve $-1 -26.018285499866881 -20.007925362556758 -23.304831675555622 0 -1 0 I I #
point $-1 -26.018285499866881 -49.226397864505699 -23.304831675555622 #
point $-1 -26.018285499866881 -49.226397864505699 23.304831675555622 #
straight-curve $-1 0 -49.226397864505699 -23.304831675555622 -1 0 0 I I #
straight-curve $-1 0 -49.226397864505699 23.304831675555622 1 0 0 I I #
edge $-1 $399 $393 $390 $444 forward #
straight-curve $-1 -72.627948850978129 19.520755414958408 16.32219203265894 0 -1 0 I I #
point $-1 -72.627948850978129 49.226397864505707 16.322192032658933 #
straight-curve $-1 0 49.226397864505699 23.304831675555622 -1 0 0 I I #
point $-1 -72.627948850978129 49.226397864505699 23.304831675555622 #
point $-1 -65.117515368542584 34.676559243664428 15.793975699370616 #
point $-1 -65.117515368542584 43.406462416169191 15.793975699370616 #
straight-curve $-1 62.560989876450371 20.365598260859265 23.304831675555619 0 -1 0 I I #
edge $-1 $414 $408 $406 $445 forward #
point $-1 62.560989876450364 49.226397864505699 23.304831675555619 #
straight-curve $-1 72.627948850978129 49.226397864505699 0 0 0 -1 I I #
point $-1 72.627948850978129 49.226397864505699 23.304831675555622 #
point $-1 64.480342472459782 37.090395946238317 15.27154385058653 #
point $-1 64.480342472459782 44.371997097198744 15.27154385058653 #
straight-curve $-1 -72.627948850978129 49.226397864505699 0 0 0 -1 I I #
straight-curve $-1 0 49.226397864505699 23.304831675555622 -1 0 0 I I #
End-of-ACIS-data 