600 0 9 0           
94 GICL ACIS Healer - Source: /gicl/data5/repository/Drexel/SM99-DATA/part96.smdg.delta.sat - 6 0 18 ACIS 6.0.3 Solaris 24 Sat Apr 13 20:47:11 2002 
1 9.999999999999999547e-07 1.000000000000000036e-10 
body $-1 $9 $-1 $-1 #
body $-1 $10 $-1 $-1 #
body $-1 $11 $-1 $-1 #
body $-1 $12 $-1 $-1 #
body $-1 $13 $-1 $-1 #
body $-1 $14 $-1 $-1 #
body $-1 $15 $-1 $-1 #
body $-1 $16 $-1 $-1 #
body $-1 $17 $-1 $-1 #
lump $-1 $-1 $18 $0 #
lump $-1 $-1 $19 $1 #
lump $-1 $-1 $20 $2 #
lump $-1 $-1 $21 $3 #
lump $-1 $-1 $22 $4 #
lump $-1 $-1 $23 $5 #
lump $-1 $-1 $24 $6 #
lump $-1 $-1 $25 $7 #
lump $-1 $-1 $26 $8 #
shell $-1 $-1 $-1 $27 $-1 $9 #
shell $-1 $-1 $-1 $28 $-1 $10 #
shell $-1 $-1 $-1 $29 $-1 $11 #
shell $-1 $-1 $-1 $30 $-1 $12 #
shell $-1 $-1 $-1 $31 $-1 $13 #
shell $-1 $-1 $-1 $32 $-1 $14 #
shell $-1 $-1 $-1 $33 $-1 $15 #
shell $-1 $-1 $-1 $34 $-1 $16 #
shell $-1 $-1 $-1 $35 $-1 $17 #
face $-1 $36 $37 $18 $-1 $38 forward single #
face $-1 $39 $40 $19 $-1 $41 reversed single #
face $-1 $42 $43 $20 $-1 $44 forward single #
face $-1 $45 $46 $21 $-1 $47 forward single #
face $-1 $48 $49 $22 $-1 $50 forward single #
face $-1 $51 $52 $23 $-1 $53 reversed single #
face $-1 $54 $55 $24 $-1 $56 forward single #
face $-1 $57 $58 $25 $-1 $59 forward single #
face $-1 $60 $61 $26 $-1 $62 forward single #
face $-1 $63 $64 $18 $-1 $65 reversed single #
loop $-1 $-1 $66 $27 #
plane-surface $-1 51.45786919766838707 33.91504973805005108 26.7695699147033217 0 0 1 1 0 0 forward_v I I I I #
face $-1 $67 $68 $19 $-1 $69 reversed single #
loop $-1 $-1 $70 $28 #
plane-surface $-1 82.29460890070816959 -90.01213376010062461 70.12687337495887618 -1 0 0 0 -0.8746197147644345637 0.484809606490402778 forward_v I I I I #
face $-1 $71 $72 $20 $-1 $73 forward single #
loop $-1 $74 $75 $29 #
cone-surface $-1 70.87277420058471478 2.351191310390394307 23.20197629390030514 0 0.8746197147644345637 -0.484809606490402778 1 0 0 1 I I 0 1 1 forward I I I I #
face $-1 $76 $77 $21 $-1 $78 forward single #
loop $-1 $79 $80 $30 #
cone-surface $-1 75.15596221313101921 2.351191310390394307 23.20197629390030514 0 0.8746197147644345637 -0.484809606490402778 1 0 0 1 I I 0 1 1 forward I I I I #
face $-1 $81 $82 $22 $-1 $83 forward single #
loop $-1 $84 $85 $31 #
cone-surface $-1 79.43915022567732365 2.351191310390394307 23.20197629390030514 0 0.8746197147644345637 -0.484809606490402778 1 0 0 1 I I 0 1 1 forward I I I I #
face $-1 $86 $87 $23 $-1 $88 reversed single #
loop $-1 $-1 $89 $32 #
plane-surface $-1 68.01731552555384042 124.9575494009877445 129.452415631188785 1 0 0 0 -0.8746197147644345637 -0.484809606490402778 forward_v I I I I #
face $-1 $90 $91 $24 $-1 $92 forward single #
loop $-1 $93 $94 $33 #
cone-surface $-1 70.87277420058471478 65.4789081657097114 23.20197629390030514 0 -0.8746197147644345637 -0.484809606490402778 1 0 0 1 I I 0 1 1 forward I I I I #
face $-1 $95 $96 $25 $-1 $97 forward single #
loop $-1 $98 $99 $34 #
cone-surface $-1 75.15596221313101921 65.4789081657097114 23.20197629390030514 0 -0.8746197147644345637 -0.484809606490402778 1 0 0 1 I I 0 1 1 forward I I I I #
face $-1 $100 $101 $26 $-1 $102 forward single #
loop $-1 $103 $104 $35 #
cone-surface $-1 79.43915022567732365 65.4789081657097114 23.20197629390030514 0 -0.8746197147644345637 -0.484809606490402778 1 0 0 1 I I 0 1 1 forward I I I I #
face $-1 $105 $106 $18 $-1 $107 reversed single #
loop $-1 $-1 $108 $36 #
plane-surface $-1 51.45786919766838707 33.91504973805005108 0 0 0 1 1 0 0 forward_v I I I I #
coedge $-1 $109 $110 $111 $112 forward $37 $-1 #
face $-1 $113 $114 $19 $-1 $115 reversed single #
loop $-1 $-1 $116 $39 #
plane-surface $-1 75.155962213131005 -7.105427357601001859e-15 20.23233474184641523 0 -0.8746197147644345637 0.484809606490402778 1 0 0 forward_v I I I I #
coedge $-1 $117 $118 $119 $120 reversed $40 $-1 #
face $-1 $-1 $121 $20 $-1 $122 forward single #
loop $-1 $123 $124 $42 #
cone-surface $-1 70.87277420058471478 3.32786823147221611 22.66059545628053229 0 0.8746197147644345637 -0.484809606490402778 0.5 0 0 1 I I -0.7071067811865474617 0.7071067811865474617 0.5 forward I I I I #
loop $-1 $-1 $125 $29 #
coedge $-1 $75 $75 $126 $127 reversed $43 $-1 #
face $-1 $-1 $128 $21 $-1 $129 forward single #
loop $-1 $130 $131 $45 #
cone-surface $-1 75.15596221313101921 3.32786823147221611 22.66059545628053229 0 0.8746197147644345637 -0.484809606490402778 0.5 0 0 1 I I -0.7071067811865474617 0.7071067811865474617 0.5 forward I I I I #
loop $-1 $-1 $132 $30 #
coedge $-1 $80 $80 $133 $134 reversed $46 $-1 #
face $-1 $-1 $135 $22 $-1 $136 forward single #
loop $-1 $137 $138 $48 #
cone-surface $-1 79.43915022567732365 3.32786823147221611 22.66059545628053229 0 0.8746197147644345637 -0.484809606490402778 0.5 0 0 1 I I -0.7071067811865474617 0.7071067811865474617 0.5 forward I I I I #
loop $-1 $-1 $139 $31 #
coedge $-1 $85 $85 $140 $141 reversed $49 $-1 #
face $-1 $142 $143 $23 $-1 $144 reversed single #
loop $-1 $-1 $145 $51 #
plane-surface $-1 75.155962213131005 34.94541564088714125 79.55787699807632407 0 0.8746197147644345637 0.484809606490402778 1 0 0 forward_v I I I I #
coedge $-1 $146 $147 $148 $149 reversed $52 $-1 #
face $-1 $-1 $150 $24 $-1 $151 forward single #
loop $-1 $152 $153 $54 #
cone-surface $-1 70.87277420058471478 64.50223124462789315 22.66059545628053229 0 -0.8746197147644345637 -0.484809606490402778 0.5 0 0 1 I I -0.7071067811865474617 0.7071067811865474617 0.5 forward I I I I #
loop $-1 $-1 $154 $33 #
coedge $-1 $94 $94 $155 $156 reversed $55 $-1 #
face $-1 $-1 $157 $25 $-1 $158 forward single #
loop $-1 $159 $160 $57 #
cone-surface $-1 75.15596221313101921 64.50223124462789315 22.66059545628053229 0 -0.8746197147644345637 -0.484809606490402778 0.5 0 0 1 I I -0.7071067811865474617 0.7071067811865474617 0.5 forward I I I I #
loop $-1 $-1 $161 $34 #
coedge $-1 $99 $99 $162 $163 reversed $58 $-1 #
face $-1 $-1 $164 $26 $-1 $165 forward single #
loop $-1 $166 $167 $60 #
cone-surface $-1 79.43915022567732365 64.50223124462789315 22.66059545628053229 0 -0.8746197147644345637 -0.484809606490402778 0.5 0 0 1 I I -0.7071067811865474617 0.7071067811865474617 0.5 forward I I I I #
loop $-1 $-1 $168 $35 #
coedge $-1 $104 $104 $169 $170 reversed $61 $-1 #
face $-1 $171 $172 $18 $-1 $173 reversed single #
loop $-1 $-1 $174 $63 #
plane-surface $-1 51.45786919766838707 0 13.38478495735166085 0 1 0 0 0 1 forward_v I I I I #
coedge $-1 $175 $176 $177 $178 forward $64 $-1 #
coedge $-1 $179 $66 $180 $181 forward $37 $-1 #
coedge $-1 $66 $179 $182 $183 forward $37 $-1 #
coedge $-1 $184 $185 $66 $112 reversed $186 $-1 #
edge $-1 $187 -33.91504973805005108 $188 33.91504973805005108 $111 $189 forward 7 unknown #
face $-1 $190 $191 $19 $-1 $192 reversed single #
loop $-1 $-1 $193 $67 #
plane-surface $-1 68.01731552555384042 -90.01213376010062461 70.12687337495887618 1 0 0 0 0.8746197147644345637 -0.484809606490402778 forward_v I I I I #
coedge $-1 $194 $195 $196 $197 reversed $68 $-1 #
coedge $-1 $118 $70 $198 $199 reversed $40 $-1 #
coedge $-1 $70 $117 $194 $200 reversed $40 $-1 #
coedge $-1 $196 $201 $70 $120 forward $202 $-1 #
edge $-1 $203 28.04854201102528322 $204 31.67219050440686345 $119 $205 forward 7 unknown #
loop $-1 $-1 $126 $71 #
plane-surface $-1 75.155962213131005 -7.105427357601001859e-15 20.23233474184641523 0 -0.8746197147644345637 0.484809606490402778 1 0 0 forward_v I I I I #
loop $-1 $-1 $206 $42 #
coedge $-1 $124 $124 $125 $207 reversed $72 $-1 #
coedge $-1 $125 $125 $124 $207 forward $74 $-1 #
coedge $-1 $126 $126 $75 $127 forward $121 $-1 #
edge $-1 $208 0 $208 6.283185307179586232 $126 $209 forward 7 unknown #
loop $-1 $-1 $133 $76 #
plane-surface $-1 75.155962213131005 -7.105427357601001859e-15 20.23233474184641523 0 -0.8746197147644345637 0.484809606490402778 1 0 0 forward_v I I I I #
loop $-1 $-1 $210 $45 #
coedge $-1 $131 $131 $132 $211 reversed $77 $-1 #
coedge $-1 $132 $132 $131 $211 forward $79 $-1 #
coedge $-1 $133 $133 $80 $134 forward $128 $-1 #
edge $-1 $212 0 $212 6.283185307179586232 $133 $213 forward 7 unknown #
loop $-1 $-1 $140 $81 #
plane-surface $-1 75.155962213131005 -7.105427357601001859e-15 20.23233474184641523 0 -0.8746197147644345637 0.484809606490402778 1 0 0 forward_v I I I I #
loop $-1 $-1 $214 $48 #
coedge $-1 $138 $138 $139 $215 reversed $82 $-1 #
coedge $-1 $139 $139 $138 $215 forward $84 $-1 #
coedge $-1 $140 $140 $85 $141 forward $135 $-1 #
edge $-1 $216 0 $216 6.283185307179586232 $140 $217 forward 7 unknown #
face $-1 $218 $219 $23 $-1 $220 reversed single #
loop $-1 $-1 $221 $86 #
plane-surface $-1 82.29460890070816959 124.9575494009877445 129.452415631188785 -1 0 0 0 0.8746197147644345637 0.484809606490402778 forward_v I I I I #
coedge $-1 $222 $223 $224 $225 reversed $87 $-1 #
coedge $-1 $147 $89 $226 $227 reversed $52 $-1 #
coedge $-1 $89 $146 $222 $228 reversed $52 $-1 #
coedge $-1 $224 $229 $89 $149 forward $230 $-1 #
edge $-1 $231 11.60620009341879211 $232 15.22984858680035813 $148 $233 forward 7 unknown #
loop $-1 $-1 $155 $90 #
plane-surface $-1 75.155962213131005 34.94541564088714125 79.55787699807632407 0 0.8746197147644345637 0.484809606490402778 1 0 0 forward_v I I I I #
loop $-1 $-1 $234 $54 #
coedge $-1 $153 $153 $154 $235 reversed $91 $-1 #
coedge $-1 $154 $154 $153 $235 forward $93 $-1 #
coedge $-1 $155 $155 $94 $156 forward $150 $-1 #
edge $-1 $236 0 $236 6.283185307179586232 $155 $237 forward 7 unknown #
loop $-1 $-1 $162 $95 #
plane-surface $-1 75.155962213131005 34.94541564088714125 79.55787699807632407 0 0.8746197147644345637 0.484809606490402778 1 0 0 forward_v I I I I #
loop $-1 $-1 $238 $57 #
coedge $-1 $160 $160 $161 $239 reversed $96 $-1 #
coedge $-1 $161 $161 $160 $239 forward $98 $-1 #
coedge $-1 $162 $162 $99 $163 forward $157 $-1 #
edge $-1 $240 0 $240 6.283185307179586232 $162 $241 forward 7 unknown #
loop $-1 $-1 $169 $100 #
plane-surface $-1 75.155962213131005 34.94541564088714125 79.55787699807632407 0 0.8746197147644345637 0.484809606490402778 1 0 0 forward_v I I I I #
loop $-1 $-1 $242 $60 #
coedge $-1 $167 $167 $168 $243 reversed $101 $-1 #
coedge $-1 $168 $168 $167 $243 forward $103 $-1 #
coedge $-1 $169 $169 $104 $170 forward $164 $-1 #
edge $-1 $244 0 $244 6.283185307179586232 $169 $245 forward 7 unknown #
face $-1 $246 $247 $18 $-1 $248 reversed single #
loop $-1 $-1 $249 $105 #
plane-surface $-1 0 33.91504973805005108 13.38478495735166085 1 0 0 0 0 -1 forward_v I I I I #
coedge $-1 $250 $182 $251 $252 forward $106 $-1 #
coedge $-1 $253 $108 $250 $254 forward $64 $-1 #
coedge $-1 $108 $253 $255 $256 forward $64 $-1 #
coedge $-1 $185 $184 $108 $178 reversed $186 $-1 #
edge $-1 $257 -33.91504973805005108 $258 33.91504973805005108 $177 $259 forward 7 unknown #
coedge $-1 $110 $109 $260 $261 forward $37 $-1 #
coedge $-1 $262 $263 $109 $181 reversed $247 $-1 #
edge $-1 $188 -51.45786919766838707 $264 51.45786919766838707 $180 $265 forward 7 unknown #
coedge $-1 $174 $266 $110 $183 reversed $106 $-1 #
edge $-1 $267 -51.45786919766838707 $187 51.45786919766838707 $182 $268 forward 7 unknown #
coedge $-1 $177 $111 $266 $269 forward $186 $-1 #
coedge $-1 $111 $177 $262 $270 reversed $186 $-1 #
loop $-1 $-1 $184 $246 #
vertex $-1 $112 $271 #
vertex $-1 $112 $272 #
straight-curve $-1 102.9157383953367741 33.91504973805005108 26.7695699147033217 0 1 0 I I #
face $-1 $-1 $202 $19 $-1 $273 forward single #
loop $-1 $-1 $274 $113 #
plane-surface $-1 51.45786919766838707 0 13.38478495735166085 0 1 0 0 0 1 forward_v I I I I #
coedge $-1 $275 $276 $277 $278 reversed $114 $-1 #
coedge $-1 $279 $116 $118 $200 forward $68 $-1 #
coedge $-1 $116 $279 $275 $280 forward $68 $-1 #
coedge $-1 $277 $119 $116 $197 forward $202 $-1 #
edge $-1 $204 -18.98769319530847355 $281 -4.710399820154144379 $196 $282 forward 7 unknown #
coedge $-1 $283 $284 $117 $199 forward $191 $-1 #
edge $-1 $285 -21.52349442430883997 $203 -14.98625925145194415 $198 $286 forward 7 unknown #
edge $-1 $204 -7.474374362368005009 $285 -1.276659971436128267e-14 $118 $287 forward 7 unknown #
coedge $-1 $119 $277 $283 $288 forward $202 $-1 #
loop $-1 $-1 $277 $190 #
vertex $-1 $199 $289 #
vertex $-1 $120 $290 #
straight-curve $-1 82.29460890070816959 -28.04854201102528322 26.76956991470332525 0 1 0 I I #
coedge $-1 $206 $206 $-1 $291 reversed $123 $-1 #
edge $-1 $292 0 $292 6.283185307179586232 $124 $293 forward 7 unknown #
vertex $-1 $127 $294 #
ellipse-curve $-1 70.87277420058471478 1.811824246690790119 23.50095232827487735 0 -0.8746197147644345637 0.484809606490402778 1 0 0 1 I I #
coedge $-1 $210 $210 $-1 $295 reversed $130 $-1 #
edge $-1 $296 0 $296 6.283185307179586232 $131 $297 forward 7 unknown #
vertex $-1 $134 $298 #
ellipse-curve $-1 75.15596221313101921 1.811824246690790119 23.50095232827487735 0 -0.8746197147644345637 0.484809606490402778 1 0 0 1 I I #
coedge $-1 $214 $214 $-1 $299 reversed $137 $-1 #
edge $-1 $300 0 $300 6.283185307179586232 $138 $301 forward 7 unknown #
vertex $-1 $141 $302 #
ellipse-curve $-1 79.43915022567732365 1.811824246690790119 23.50095232827487735 0 -0.8746197147644345637 0.484809606490402778 1 0 0 1 I I #
face $-1 $-1 $230 $23 $-1 $303 forward single #
loop $-1 $-1 $304 $142 #
plane-surface $-1 51.45786919766838707 67.83009947610010215 13.38478495735166085 0 -1 0 0 0 -1 forward_v I I I I #
coedge $-1 $305 $306 $307 $308 reversed $143 $-1 #
coedge $-1 $309 $145 $147 $228 forward $87 $-1 #
coedge $-1 $145 $309 $305 $310 forward $87 $-1 #
coedge $-1 $307 $148 $145 $225 forward $230 $-1 #
edge $-1 $232 4.710399820154144379 $311 18.98769319530847355 $224 $312 forward 7 unknown #
coedge $-1 $313 $314 $146 $227 forward $219 $-1 #
edge $-1 $315 -51.18626555242376952 $231 -44.64903037956689502 $226 $316 forward 7 unknown #
edge $-1 $232 60.35572511373212023 $315 67.83009947610008794 $147 $317 forward 7 unknown #
coedge $-1 $148 $307 $313 $318 forward $230 $-1 #
loop $-1 $-1 $307 $218 #
vertex $-1 $227 $319 #
vertex $-1 $149 $320 #
straight-curve $-1 68.01731552555384042 79.43629956951889426 26.76956991470332525 0 -1 0 I I #
coedge $-1 $234 $234 $-1 $321 reversed $152 $-1 #
edge $-1 $322 0 $322 6.283185307179586232 $153 $323 forward 7 unknown #
vertex $-1 $156 $324 #
ellipse-curve $-1 70.87277420058471478 66.01827522940931203 23.50095232827487735 0 0.8746197147644345637 0.484809606490402778 1 0 0 1 I I #
coedge $-1 $238 $238 $-1 $325 reversed $159 $-1 #
edge $-1 $326 0 $326 6.283185307179586232 $160 $327 forward 7 unknown #
vertex $-1 $163 $328 #
ellipse-curve $-1 75.15596221313101921 66.01827522940931203 23.50095232827487735 0 0.8746197147644345637 0.484809606490402778 1 0 0 1 I I #
coedge $-1 $242 $242 $-1 $329 reversed $166 $-1 #
edge $-1 $330 0 $330 6.283185307179586232 $167 $331 forward 7 unknown #
vertex $-1 $170 $332 #
ellipse-curve $-1 79.43915022567732365 66.01827522940931203 23.50095232827487735 0 0.8746197147644345637 0.484809606490402778 1 0 0 1 I I #
face $-1 $-1 $186 $18 $-1 $333 reversed single #
loop $-1 $-1 $262 $171 #
plane-surface $-1 51.45786919766838707 67.83009947610010215 13.38478495735166085 0 -1 0 0 0 -1 forward_v I I I I #
coedge $-1 $334 $260 $263 $335 forward $172 $-1 #
coedge $-1 $266 $174 $175 $254 reversed $106 $-1 #
coedge $-1 $260 $334 $174 $252 reversed $172 $-1 #
edge $-1 $267 -13.38478495735166085 $336 13.38478495735166085 $251 $337 forward 7 unknown #
coedge $-1 $176 $175 $334 $338 forward $64 $-1 #
edge $-1 $258 -51.45786919766838707 $336 51.45786919766838707 $250 $339 forward 7 unknown #
coedge $-1 $263 $262 $176 $256 reversed $247 $-1 #
edge $-1 $340 -51.45786919766838707 $257 51.45786919766838707 $255 $341 forward 7 unknown #
vertex $-1 $178 $342 #
vertex $-1 $269 $343 #
straight-curve $-1 102.9157383953367741 33.91504973805005108 0 0 -1 0 I I #
coedge $-1 $249 $251 $179 $261 reversed $172 $-1 #
edge $-1 $264 -33.91504973805005108 $267 33.91504973805005108 $260 $344 forward 7 unknown #
coedge $-1 $255 $180 $185 $270 forward $247 $-1 #
coedge $-1 $180 $255 $249 $335 reversed $247 $-1 #
vertex $-1 $181 $345 #
straight-curve $-1 51.45786919766838707 67.83009947610010215 26.7695699147033217 -1 0 0 I I #
coedge $-1 $182 $250 $184 $269 reversed $106 $-1 #
vertex $-1 $261 $346 #
straight-curve $-1 51.45786919766838707 0 26.7695699147033217 1 0 0 I I #
edge $-1 $187 -13.38478495735166085 $258 13.38478495735166085 $184 $347 forward 7 unknown #
edge $-1 $188 -13.38478495735166085 $257 13.38478495735166085 $185 $348 forward 7 unknown #
point $-1 102.9157383953367741 0 26.7695699147033217 #
point $-1 102.9157383953367741 67.83009947610010215 26.7695699147033217 #
plane-surface $-1 51.45786919766838707 33.91504973805005108 26.7695699147033217 0 0 1 1 0 0 forward_v I I I I #
coedge $-1 $284 $283 $276 $349 forward $191 $-1 #
coedge $-1 $276 $193 $195 $280 reversed $114 $-1 #
coedge $-1 $193 $275 $274 $349 reversed $114 $-1 #
coedge $-1 $201 $196 $193 $278 forward $202 $-1 #
edge $-1 $281 -31.67219050440686345 $350 -28.04854201102528322 $277 $351 forward 7 unknown #
coedge $-1 $195 $194 $284 $352 reversed $68 $-1 #
edge $-1 $353 1.276659971436128267e-14 $281 7.474374362368005009 $275 $354 forward 7 unknown #
vertex $-1 $197 $355 #
straight-curve $-1 63.30691570539969604 3.623648493381580238 26.7695699147033217 -1 0 0 I I #
coedge $-1 $274 $198 $201 $288 reversed $191 $-1 #
coedge $-1 $198 $274 $279 $352 forward $191 $-1 #
vertex $-1 $199 $356 #
straight-curve $-1 82.29460890070816959 0 41.75582916615526585 0 0 1 I I #
straight-curve $-1 82.29460890070816959 -7.105427357601001859e-15 20.23233474184641523 0 -0.484809606490402778 -0.8746197147644345637 I I #
edge $-1 $350 16.55944632788545334 $203 30.83673970303978251 $283 $357 forward 7 unknown #
point $-1 82.29460890070816959 0 26.7695699147033217 #
point $-1 82.29460890070816959 3.623648493381580238 26.7695699147033217 #
edge $-1 $358 1 $358 0 $206 $-1 forward 7 unknown #
vertex $-1 $207 $359 #
ellipse-curve $-1 70.87277420058471478 2.890558374089998495 22.90300025952573293 0 -0.8746197147644345637 0.484809606490402778 1 0 0 1 I I #
point $-1 71.87277420058471478 1.811824246690790119 23.50095232827487735 #
edge $-1 $360 1 $360 0 $210 $-1 forward 7 unknown #
vertex $-1 $211 $361 #
ellipse-curve $-1 75.15596221313101921 2.890558374089998495 22.90300025952573293 0 -0.8746197147644345637 0.484809606490402778 1 0 0 1 I I #
point $-1 76.15596221313101921 1.811824246690790119 23.50095232827487735 #
edge $-1 $362 1 $362 0 $214 $-1 forward 7 unknown #
vertex $-1 $215 $363 #
ellipse-curve $-1 79.43915022567732365 2.890558374089998495 22.90300025952573293 0 -0.8746197147644345637 0.484809606490402778 1 0 0 1 I I #
point $-1 80.43915022567732365 1.811824246690790119 23.50095232827487735 #
plane-surface $-1 51.45786919766838707 33.91504973805005108 26.7695699147033217 0 0 1 1 0 0 forward_v I I I I #
coedge $-1 $314 $313 $306 $364 forward $219 $-1 #
coedge $-1 $306 $221 $223 $310 reversed $143 $-1 #
coedge $-1 $221 $305 $304 $364 reversed $143 $-1 #
coedge $-1 $229 $224 $221 $308 forward $230 $-1 #
edge $-1 $311 -15.22984858680035813 $365 -11.60620009341879211 $307 $366 forward 7 unknown #
coedge $-1 $223 $222 $314 $367 reversed $87 $-1 #
edge $-1 $368 -67.83009947610008794 $311 -60.35572511373212023 $305 $369 forward 7 unknown #
vertex $-1 $225 $370 #
straight-curve $-1 63.30691570539969604 64.20645098271853612 26.76956991470333236 1 0 0 I I #
coedge $-1 $304 $226 $229 $318 reversed $219 $-1 #
coedge $-1 $226 $304 $309 $367 forward $219 $-1 #
vertex $-1 $227 $371 #
straight-curve $-1 68.01731552555384042 67.83009947610010215 71.41860029427022027 0 0 1 I I #
straight-curve $-1 68.01731552555384042 34.94541564088714125 79.55787699807632407 0 0.484809606490402778 -0.8746197147644345637 I I #
edge $-1 $365 -30.83673970303978251 $231 -16.55944632788545334 $313 $372 forward 7 unknown #
point $-1 68.01731552555384042 67.83009947610010215 26.7695699147033217 #
point $-1 68.01731552555384042 64.20645098271853612 26.76956991470332525 #
edge $-1 $373 1 $373 0 $234 $-1 forward 7 unknown #
vertex $-1 $235 $374 #
ellipse-curve $-1 70.87277420058471478 64.93954110201011076 22.90300025952573293 0 0.8746197147644345637 0.484809606490402778 1 0 0 1 I I #
point $-1 71.87277420058471478 66.01827522940931203 23.50095232827487735 #
edge $-1 $375 1 $375 0 $238 $-1 forward 7 unknown #
vertex $-1 $239 $376 #
ellipse-curve $-1 75.15596221313101921 64.93954110201011076 22.90300025952573293 0 0.8746197147644345637 0.484809606490402778 1 0 0 1 I I #
point $-1 76.15596221313101921 66.01827522940931203 23.50095232827487735 #
edge $-1 $377 1 $377 0 $242 $-1 forward 7 unknown #
vertex $-1 $243 $378 #
ellipse-curve $-1 79.43915022567732365 64.93954110201011076 22.90300025952573293 0 0.8746197147644345637 0.484809606490402778 1 0 0 1 I I #
point $-1 80.43915022567732365 66.01827522940931203 23.50095232827487735 #
plane-surface $-1 102.9157383953367741 33.91504973805005108 13.38478495735166085 -1 0 0 0 0 1 forward_v I I I I #
coedge $-1 $251 $249 $253 $338 reversed $172 $-1 #
edge $-1 $264 -13.38478495735166085 $340 13.38478495735166085 $263 $379 forward 7 unknown #
vertex $-1 $338 $380 #
straight-curve $-1 0 0 13.38478495735166085 0 0 -1 I I #
edge $-1 $336 -33.91504973805005108 $340 33.91504973805005108 $334 $381 forward 7 unknown #
straight-curve $-1 51.45786919766838707 0 0 -1 0 0 I I #
vertex $-1 $256 $382 #
straight-curve $-1 51.45786919766838707 67.83009947610010215 0 1 0 0 I I #
point $-1 102.9157383953367741 67.83009947610010215 0 #
point $-1 102.9157383953367741 0 0 #
straight-curve $-1 0 33.91504973805005108 26.7695699147033217 0 -1 0 I I #
point $-1 0 67.83009947610010215 26.7695699147033217 #
point $-1 0 0 26.7695699147033217 #
straight-curve $-1 102.9157383953367741 0 13.38478495735166085 0 0 -1 I I #
straight-curve $-1 102.9157383953367741 67.83009947610010215 13.38478495735166085 0 0 -1 I I #
edge $-1 $350 14.98625925145194415 $353 21.52349442430883997 $274 $383 forward 7 unknown #
vertex $-1 $288 $384 #
straight-curve $-1 68.01731552555384042 -28.04854201102528322 26.76956991470332525 0 -1 0 I I #
edge $-1 $353 4.710399820154144379 $285 18.98769319530847355 $284 $385 forward 7 unknown #
vertex $-1 $352 $386 #
straight-curve $-1 68.01731552555384042 -7.105427357601001859e-15 20.23233474184641523 0 0.484809606490402778 0.8746197147644345637 I I #
point $-1 68.01731552555384042 3.623648493381580238 26.7695699147033217 #
point $-1 82.29460890070816959 0 20.23233474184642589 #
straight-curve $-1 51.45786919766838707 0 26.7695699147033217 1 0 0 I I #
vertex $-1 $291 $387 #
point $-1 71.87277420058471478 2.890558374089998495 22.90300025952573293 #
vertex $-1 $295 $388 #
point $-1 76.15596221313101921 2.890558374089998495 22.90300025952573293 #
vertex $-1 $299 $389 #
point $-1 80.43915022567732365 2.890558374089998495 22.90300025952573293 #
edge $-1 $365 44.64903037956689502 $368 51.18626555242376952 $304 $390 forward 7 unknown #
vertex $-1 $318 $391 #
straight-curve $-1 82.29460890070816959 79.43629956951889426 26.76956991470332525 0 1 0 I I #
edge $-1 $368 -18.98769319530847355 $315 -4.710399820154144379 $314 $392 forward 7 unknown #
vertex $-1 $367 $393 #
straight-curve $-1 82.29460890070816959 34.94541564088714125 79.55787699807632407 0 -0.484809606490402778 0.8746197147644345637 I I #
point $-1 82.29460890070816959 64.20645098271853612 26.76956991470332525 #
point $-1 68.01731552555384042 67.83009947610010215 20.23233474184645075 #
straight-curve $-1 51.45786919766838707 67.83009947610010215 26.7695699147033217 -1 0 0 I I #
vertex $-1 $321 $394 #
point $-1 71.87277420058471478 64.93954110201011076 22.90300025952573293 #
vertex $-1 $325 $395 #
point $-1 76.15596221313101921 64.93954110201011076 22.90300025952573293 #
vertex $-1 $329 $396 #
point $-1 80.43915022567732365 64.93954110201011076 22.90300025952573293 #
straight-curve $-1 0 67.83009947610010215 13.38478495735166085 0 0 -1 I I #
point $-1 0 0 0 #
straight-curve $-1 0 33.91504973805005108 0 0 1 0 I I #
point $-1 0 67.83009947610010215 0 #
straight-curve $-1 68.01731552555384042 0 41.75582916615526585 0 0 -1 I I #
point $-1 68.01731552555384042 0 26.7695699147033217 #
straight-curve $-1 63.30691570539969604 0 20.23233474184642944 1 0 0 I I #
point $-1 68.01731552555384042 0 20.23233474184642589 #
point $-1 70.87277420058471478 3.765178088854433724 22.41819065303533165 #
point $-1 75.15596221313101921 3.765178088854433724 22.41819065303533165 #
point $-1 79.43915022567732365 3.765178088854433724 22.41819065303533165 #
straight-curve $-1 82.29460890070816959 67.83009947610010215 71.41860029427022027 0 0 -1 I I #
point $-1 82.29460890070816959 67.83009947610010215 26.7695699147033217 #
straight-curve $-1 63.30691570539969604 67.83009947610010215 20.23233474184644365 -1 0 0 I I #
point $-1 82.29460890070816959 67.83009947610010215 20.23233474184645075 #
point $-1 70.87277420058471478 64.06492138724567553 22.41819065303533165 #
point $-1 75.15596221313101921 64.06492138724567553 22.41819065303533165 #
point $-1 79.43915022567732365 64.06492138724567553 22.41819065303533165 #
End-of-ACIS-data 