600 0 11 0           
93 GICL ACIS Healer - Source: /gicl/data5/repository/Drexel/SM99-DATA/part87.smdg.feat.sat - 6 0 18 ACIS 6.0.3 Solaris 24 Sat Apr 13 20:46:25 2002 
1 9.999999999999999547e-07 1.000000000000000036e-10 
body $-1 $11 $-1 $-1 #
body $-1 $12 $-1 $-1 #
body $-1 $13 $-1 $-1 #
body $-1 $14 $-1 $-1 #
body $-1 $15 $-1 $-1 #
body $-1 $16 $-1 $-1 #
body $-1 $17 $-1 $-1 #
body $-1 $18 $-1 $-1 #
body $-1 $19 $-1 $-1 #
body $-1 $20 $-1 $-1 #
body $-1 $21 $-1 $-1 #
lump $-1 $-1 $22 $0 #
lump $-1 $-1 $23 $1 #
lump $-1 $-1 $24 $2 #
lump $-1 $-1 $25 $3 #
lump $-1 $-1 $26 $4 #
lump $-1 $-1 $27 $5 #
lump $-1 $-1 $28 $6 #
lump $-1 $-1 $29 $7 #
lump $-1 $-1 $30 $8 #
lump $-1 $-1 $31 $9 #
lump $-1 $-1 $32 $10 #
shell $-1 $-1 $-1 $33 $-1 $11 #
shell $-1 $-1 $-1 $34 $-1 $12 #
shell $-1 $-1 $-1 $35 $-1 $13 #
shell $-1 $-1 $-1 $36 $-1 $14 #
shell $-1 $-1 $-1 $37 $-1 $15 #
shell $-1 $-1 $-1 $38 $-1 $16 #
shell $-1 $-1 $-1 $39 $-1 $17 #
shell $-1 $-1 $-1 $40 $-1 $18 #
shell $-1 $-1 $-1 $41 $-1 $19 #
shell $-1 $-1 $-1 $42 $-1 $20 #
shell $-1 $-1 $-1 $43 $-1 $21 #
face $-1 $44 $45 $22 $-1 $46 forward single #
face $-1 $47 $48 $23 $-1 $49 forward single #
face $-1 $50 $51 $24 $-1 $52 forward single #
face $-1 $53 $54 $25 $-1 $55 forward single #
face $-1 $56 $57 $26 $-1 $58 forward single #
face $-1 $59 $60 $27 $-1 $61 forward single #
face $-1 $62 $63 $28 $-1 $64 forward single #
face $-1 $65 $66 $29 $-1 $67 forward single #
face $-1 $68 $69 $30 $-1 $70 forward single #
face $-1 $71 $72 $31 $-1 $73 forward single #
face $-1 $74 $75 $32 $-1 $76 forward single #
face $-1 $77 $78 $22 $-1 $79 reversed single #
loop $-1 $-1 $80 $33 #
plane-surface $-1 45.25406659138767651 26.61519724405500043 19.47838981386106028 0 0 1 1 0 0 forward_v I I I I #
face $-1 $81 $82 $23 $-1 $83 reversed single #
loop $-1 $-1 $84 $34 #
plane-surface $-1 45.25406659138767651 4.880193550100052846 6.117954553237664683 0 0 1 1 0 0 forward_v I I I I #
face $-1 $85 $86 $24 $-1 $87 reversed single #
loop $-1 $-1 $88 $35 #
plane-surface $-1 45.25406659138767651 48.350200938009948 6.117954553237664683 0 0 1 1 0 0 forward_v I I I I #
face $-1 $89 $90 $25 $-1 $91 reversed single #
loop $-1 $-1 $92 $36 #
plane-surface $-1 -127.9978309372526724 17.93868614040029641 141.2188134126145656 -0.7071067893907904134 0 0.70710677298230451 0.70710677298230451 0 0.7071067893907904134 forward_v I I I I #
face $-1 $93 $94 $26 $-1 $95 forward single #
loop $-1 $96 $97 $37 #
cone-surface $-1 3.528975871213503535 15.48673819473857804 15.9494138793340916 0.7071067893907904134 0 -0.70710677298230451 0.353553386491152255 0 0.3535533946953952067 1 I I 0 1 0.5 forward I I I I #
face $-1 $98 $99 $27 $-1 $100 forward single #
loop $-1 $101 $102 $38 #
cone-surface $-1 3.528975871213503535 17.93868614040029641 15.9494138793340916 0.7071067893907904134 0 -0.70710677298230451 0.353553386491152255 0 0.3535533946953952067 1 I I 0 1 0.5 forward I I I I #
face $-1 $103 $104 $28 $-1 $105 forward single #
loop $-1 $106 $107 $39 #
cone-surface $-1 3.528975871213503535 20.39063408606201477 15.9494138793340916 0.7071067893907904134 0 -0.70710677298230451 0.353553386491152255 0 0.3535533946953952067 1 I I 0 1 0.5 forward I I I I #
face $-1 $108 $109 $29 $-1 $110 reversed single #
loop $-1 $-1 $111 $40 #
plane-surface $-1 -127.9978309372526724 34.79349628425519114 141.2188134126145656 -0.7071067893907904134 0 0.70710677298230451 0.70710677298230451 0 0.7071067893907904134 forward_v I I I I #
face $-1 $112 $113 $30 $-1 $114 forward single #
loop $-1 $115 $116 $41 #
cone-surface $-1 3.528975871213503535 32.34154833859346923 15.9494138793340916 0.7071067893907904134 0 -0.70710677298230451 0.353553386491152255 0 0.3535533946953952067 1 I I 0 1 0.5 forward I I I I #
face $-1 $117 $118 $31 $-1 $119 forward single #
loop $-1 $120 $121 $42 #
cone-surface $-1 3.528975871213503535 34.79349628425519114 15.9494138793340916 0.7071067893907904134 0 -0.70710677298230451 0.353553386491152255 0 0.3535533946953952067 1 I I 0 1 0.5 forward I I I I #
face $-1 $122 $123 $32 $-1 $124 forward single #
loop $-1 $125 $126 $43 #
cone-surface $-1 3.528975871213503535 37.24544422991691306 15.9494138793340916 0.7071067893907904134 0 -0.70710677298230451 0.353553386491152255 0 0.3535533946953952067 1 I I 0 1 0.5 forward I I I I #
face $-1 $127 $128 $22 $-1 $129 reversed single #
loop $-1 $-1 $130 $44 #
plane-surface $-1 45.25406659138767651 26.61519724405500043 0 0 0 1 1 0 0 forward_v I I I I #
coedge $-1 $131 $132 $133 $134 forward $45 $-1 #
face $-1 $135 $136 $23 $-1 $137 reversed single #
loop $-1 $-1 $138 $47 #
plane-surface $-1 45.25406659138767651 4.880193550100052846 3.117954553237664683 0 0 1 1 0 0 forward_v I I I I #
coedge $-1 $139 $140 $141 $142 forward $48 $-1 #
face $-1 $143 $144 $24 $-1 $145 reversed single #
loop $-1 $-1 $146 $50 #
plane-surface $-1 45.25406659138767651 48.350200938009948 3.117954553237664683 0 0 1 1 0 0 forward_v I I I I #
coedge $-1 $147 $148 $149 $150 forward $51 $-1 #
face $-1 $151 $152 $25 $-1 $153 reversed single #
loop $-1 $-1 $154 $53 #
plane-surface $-1 7.105427357601001859e-15 17.93868614040029641 13.22098544556473598 -0.7071067893907904134 0 0.70710677298230451 0.70710677298230451 0 0.7071067893907904134 forward_v I I I I #
coedge $-1 $155 $156 $157 $158 forward $54 $-1 #
face $-1 $-1 $159 $26 $-1 $160 forward single #
loop $-1 $-1 $161 $56 #
plane-surface $-1 3.12870211154630562 15.48673819473857804 16.34968762971289635 -0.7071067893907904134 0 0.70710677298230451 -0.70710677298230451 0 -0.7071067893907904134 forward_v I I I I #
loop $-1 $-1 $162 $37 #
coedge $-1 $97 $97 $161 $163 reversed $57 $-1 #
face $-1 $-1 $164 $27 $-1 $165 forward single #
loop $-1 $-1 $166 $59 #
plane-surface $-1 3.12870211154630562 17.93868614040029641 16.34968762971289635 -0.7071067893907904134 0 0.70710677298230451 -0.70710677298230451 0 -0.7071067893907904134 forward_v I I I I #
loop $-1 $-1 $167 $38 #
coedge $-1 $102 $102 $166 $168 reversed $60 $-1 #
face $-1 $-1 $169 $28 $-1 $170 forward single #
loop $-1 $-1 $171 $62 #
plane-surface $-1 3.12870211154630562 20.39063408606201477 16.34968762971289635 -0.7071067893907904134 0 0.70710677298230451 -0.70710677298230451 0 -0.7071067893907904134 forward_v I I I I #
loop $-1 $-1 $172 $39 #
coedge $-1 $107 $107 $171 $173 reversed $63 $-1 #
face $-1 $174 $175 $29 $-1 $176 reversed single #
loop $-1 $-1 $177 $65 #
plane-surface $-1 7.105427357601001859e-15 34.79349628425519114 13.22098544556473598 -0.7071067893907904134 0 0.70710677298230451 0.70710677298230451 0 0.7071067893907904134 forward_v I I I I #
coedge $-1 $178 $179 $180 $181 forward $66 $-1 #
face $-1 $-1 $182 $30 $-1 $183 forward single #
loop $-1 $-1 $184 $68 #
plane-surface $-1 3.12870211154630562 32.34154833859346923 16.34968762971289635 -0.7071067893907904134 0 0.70710677298230451 -0.70710677298230451 0 -0.7071067893907904134 forward_v I I I I #
loop $-1 $-1 $185 $41 #
coedge $-1 $116 $116 $184 $186 reversed $69 $-1 #
face $-1 $-1 $187 $31 $-1 $188 forward single #
loop $-1 $-1 $189 $71 #
plane-surface $-1 3.12870211154630562 34.79349628425519114 16.34968762971289635 -0.7071067893907904134 0 0.70710677298230451 -0.70710677298230451 0 -0.7071067893907904134 forward_v I I I I #
loop $-1 $-1 $190 $42 #
coedge $-1 $121 $121 $189 $191 reversed $72 $-1 #
face $-1 $-1 $192 $32 $-1 $193 forward single #
loop $-1 $-1 $194 $74 #
plane-surface $-1 3.12870211154630562 37.24544422991691306 16.34968762971289635 -0.7071067893907904134 0 0.70710677298230451 -0.70710677298230451 0 -0.7071067893907904134 forward_v I I I I #
loop $-1 $-1 $195 $43 #
coedge $-1 $126 $126 $194 $196 reversed $75 $-1 #
face $-1 $197 $198 $22 $-1 $199 reversed single #
loop $-1 $-1 $200 $77 #
plane-surface $-1 45.25406659138767651 0 9.739194906930530138 0 1 0 0 0 1 forward_v I I I I #
coedge $-1 $201 $202 $203 $204 forward $78 $-1 #
coedge $-1 $205 $80 $206 $207 forward $45 $-1 #
coedge $-1 $80 $205 $208 $209 forward $45 $-1 #
coedge $-1 $210 $211 $80 $134 reversed $212 $-1 #
edge $-1 $213 -26.61519724405500043 $214 26.61519724405500043 $133 $215 forward 7 unknown #
face $-1 $216 $217 $23 $-1 $218 reversed single #
loop $-1 $-1 $219 $81 #
plane-surface $-1 45.25406659138767651 0 4.617954553237664683 0 1 0 0 0 1 forward_v I I I I #
coedge $-1 $220 $221 $222 $223 forward $82 $-1 #
coedge $-1 $224 $84 $225 $226 forward $48 $-1 #
coedge $-1 $84 $224 $227 $228 forward $48 $-1 #
coedge $-1 $229 $230 $84 $142 reversed $231 $-1 #
edge $-1 $232 -4.880193550100052846 $233 4.880193550100052846 $141 $234 forward 7 unknown #
face $-1 $235 $236 $24 $-1 $237 reversed single #
loop $-1 $-1 $238 $85 #
plane-surface $-1 45.25406659138767651 43.47000738790989516 4.617954553237664683 0 1 0 0 0 1 forward_v I I I I #
coedge $-1 $239 $240 $241 $242 forward $86 $-1 #
coedge $-1 $243 $88 $244 $245 forward $51 $-1 #
coedge $-1 $88 $243 $246 $247 forward $51 $-1 #
coedge $-1 $248 $249 $88 $150 reversed $250 $-1 #
edge $-1 $251 -4.880193550100052846 $252 4.880193550100052846 $149 $253 forward 7 unknown #
face $-1 $254 $255 $25 $-1 $256 reversed single #
loop $-1 $-1 $257 $89 #
plane-surface $-1 -63.99891546862633618 13.85210623096410032 77.21989942908965077 0 1 0 -0.7071067893907904134 0 0.70710677298230451 forward_v I I I I #
coedge $-1 $258 $259 $260 $261 forward $90 $-1 #
coedge $-1 $262 $92 $263 $264 forward $54 $-1 #
coedge $-1 $92 $262 $265 $266 forward $54 $-1 #
coedge $-1 $267 $268 $92 $158 reversed $269 $-1 #
edge $-1 $270 -4.08657990943619609 $271 4.08657990943619609 $157 $272 forward 7 unknown #
loop $-1 $273 $274 $93 #
cone-surface $-1 4.10602632822839908 15.48673819473857804 15.37236343570971187 0.7071067893907904134 0 -0.70710677298230451 0.1767766932455761275 0 0.1767766973476976033 1 I I -0.7071067811865474617 0.7071067811865474617 0.25 forward I I I I #
coedge $-1 $161 $161 $97 $163 forward $94 $-1 #
coedge $-1 $162 $162 $274 $275 forward $96 $-1 #
edge $-1 $276 0 $276 6.283185307179586232 $161 $277 forward 7 unknown #
loop $-1 $278 $279 $98 #
cone-surface $-1 4.10602632822839908 17.93868614040029641 15.37236343570971187 0.7071067893907904134 0 -0.70710677298230451 0.1767766932455761275 0 0.1767766973476976033 1 I I -0.7071067811865474617 0.7071067811865474617 0.25 forward I I I I #
coedge $-1 $166 $166 $102 $168 forward $99 $-1 #
coedge $-1 $167 $167 $279 $280 forward $101 $-1 #
edge $-1 $281 0 $281 6.283185307179586232 $166 $282 forward 7 unknown #
loop $-1 $283 $284 $103 #
cone-surface $-1 4.10602632822839908 20.39063408606201477 15.37236343570971187 0.7071067893907904134 0 -0.70710677298230451 0.1767766932455761275 0 0.1767766973476976033 1 I I -0.7071067811865474617 0.7071067811865474617 0.25 forward I I I I #
coedge $-1 $171 $171 $107 $173 forward $104 $-1 #
coedge $-1 $172 $172 $284 $285 forward $106 $-1 #
edge $-1 $286 0 $286 6.283185307179586232 $171 $287 forward 7 unknown #
face $-1 $288 $289 $29 $-1 $290 reversed single #
loop $-1 $-1 $291 $108 #
plane-surface $-1 -63.99891546862633618 30.70691637481899505 77.21989942908965077 0 1 0 -0.7071067893907904134 0 0.70710677298230451 forward_v I I I I #
coedge $-1 $292 $293 $294 $295 forward $109 $-1 #
coedge $-1 $296 $111 $297 $298 forward $66 $-1 #
coedge $-1 $111 $296 $299 $300 forward $66 $-1 #
coedge $-1 $301 $302 $111 $181 reversed $303 $-1 #
edge $-1 $304 -4.08657990943619609 $305 4.08657990943619609 $180 $306 forward 7 unknown #
loop $-1 $307 $308 $112 #
cone-surface $-1 4.10602632822839908 32.34154833859346923 15.37236343570971187 0.7071067893907904134 0 -0.70710677298230451 0.1767766932455761275 0 0.1767766973476976033 1 I I -0.7071067811865474617 0.7071067811865474617 0.25 forward I I I I #
coedge $-1 $184 $184 $116 $186 forward $113 $-1 #
coedge $-1 $185 $185 $308 $309 forward $115 $-1 #
edge $-1 $310 0 $310 6.283185307179586232 $184 $311 forward 7 unknown #
loop $-1 $312 $313 $117 #
cone-surface $-1 4.10602632822839908 34.79349628425519114 15.37236343570971187 0.7071067893907904134 0 -0.70710677298230451 0.1767766932455761275 0 0.1767766973476976033 1 I I -0.7071067811865474617 0.7071067811865474617 0.25 forward I I I I #
coedge $-1 $189 $189 $121 $191 forward $118 $-1 #
coedge $-1 $190 $190 $313 $314 forward $120 $-1 #
edge $-1 $315 0 $315 6.283185307179586232 $189 $316 forward 7 unknown #
loop $-1 $317 $318 $122 #
cone-surface $-1 4.10602632822839908 37.24544422991691306 15.37236343570971187 0.7071067893907904134 0 -0.70710677298230451 0.1767766932455761275 0 0.1767766973476976033 1 I I -0.7071067811865474617 0.7071067811865474617 0.25 forward I I I I #
coedge $-1 $194 $194 $126 $196 forward $123 $-1 #
coedge $-1 $195 $195 $318 $319 forward $125 $-1 #
edge $-1 $320 0 $320 6.283185307179586232 $194 $321 forward 7 unknown #
face $-1 $322 $323 $22 $-1 $324 reversed single #
loop $-1 $-1 $325 $127 #
plane-surface $-1 0 26.61519724405500043 9.739194906930530138 1 0 0 0 0 -1 forward_v I I I I #
coedge $-1 $326 $208 $327 $328 forward $128 $-1 #
coedge $-1 $329 $130 $326 $330 forward $78 $-1 #
coedge $-1 $130 $329 $331 $332 forward $78 $-1 #
coedge $-1 $211 $210 $130 $204 reversed $212 $-1 #
edge $-1 $333 -26.61519724405500043 $334 26.61519724405500043 $203 $335 forward 7 unknown #
coedge $-1 $132 $131 $336 $337 forward $45 $-1 #
coedge $-1 $338 $339 $131 $207 reversed $323 $-1 #
edge $-1 $214 -45.25406659138767651 $340 45.25406659138767651 $206 $341 forward 7 unknown #
coedge $-1 $200 $342 $132 $209 reversed $128 $-1 #
edge $-1 $343 -45.25406659138767651 $213 45.25406659138767651 $208 $344 forward 7 unknown #
coedge $-1 $203 $133 $342 $345 forward $212 $-1 #
coedge $-1 $133 $203 $338 $346 reversed $212 $-1 #
loop $-1 $-1 $210 $322 #
vertex $-1 $134 $347 #
vertex $-1 $134 $348 #
straight-curve $-1 90.50813318277535302 26.61519724405500043 19.47838981386106028 0 1 0 I I #
face $-1 $349 $350 $23 $-1 $351 reversed single #
loop $-1 $-1 $352 $135 #
plane-surface $-1 0 4.880193550100052846 4.617954553237664683 1 0 0 0 0 -1 forward_v I I I I #
coedge $-1 $353 $227 $354 $355 forward $136 $-1 #
coedge $-1 $356 $138 $353 $357 forward $82 $-1 #
coedge $-1 $138 $356 $358 $359 forward $82 $-1 #
coedge $-1 $230 $229 $138 $223 reversed $231 $-1 #
edge $-1 $360 -4.880193550100052846 $361 4.880193550100052846 $222 $362 forward 7 unknown #
coedge $-1 $140 $139 $363 $364 forward $48 $-1 #
coedge $-1 $365 $366 $139 $226 reversed $350 $-1 #
edge $-1 $233 -45.25406659138767651 $367 45.25406659138767651 $225 $368 forward 7 unknown #
coedge $-1 $219 $369 $140 $228 reversed $136 $-1 #
edge $-1 $370 -45.25406659138767651 $232 45.25406659138767651 $227 $371 forward 7 unknown #
coedge $-1 $222 $141 $369 $372 forward $231 $-1 #
coedge $-1 $141 $222 $365 $373 reversed $231 $-1 #
loop $-1 $-1 $229 $349 #
vertex $-1 $142 $374 #
vertex $-1 $142 $375 #
straight-curve $-1 90.50813318277535302 4.880193550100052846 6.117954553237664683 0 1 0 I I #
face $-1 $376 $377 $24 $-1 $378 reversed single #
loop $-1 $-1 $379 $143 #
plane-surface $-1 0 48.350200938009948 4.617954553237664683 1 0 0 0 0 -1 forward_v I I I I #
coedge $-1 $380 $246 $381 $382 forward $144 $-1 #
coedge $-1 $383 $146 $380 $384 forward $86 $-1 #
coedge $-1 $146 $383 $385 $386 forward $86 $-1 #
coedge $-1 $249 $248 $146 $242 reversed $250 $-1 #
edge $-1 $387 -4.880193550100052846 $388 4.880193550100052846 $241 $389 forward 7 unknown #
coedge $-1 $148 $147 $390 $391 forward $51 $-1 #
coedge $-1 $392 $393 $147 $245 reversed $377 $-1 #
edge $-1 $252 -45.25406659138767651 $394 45.25406659138767651 $244 $395 forward 7 unknown #
coedge $-1 $238 $396 $148 $247 reversed $144 $-1 #
edge $-1 $397 -45.25406659138767651 $251 45.25406659138767651 $246 $398 forward 7 unknown #
coedge $-1 $241 $149 $396 $399 forward $250 $-1 #
coedge $-1 $149 $241 $392 $400 reversed $250 $-1 #
loop $-1 $-1 $248 $376 #
vertex $-1 $150 $401 #
vertex $-1 $150 $402 #
straight-curve $-1 90.50813318277535302 48.350200938009948 6.117954553237664683 0 1 0 I I #
face $-1 $403 $404 $25 $-1 $405 reversed single #
loop $-1 $-1 $406 $151 #
plane-surface $-1 -191.9967434356761657 17.93868614040029641 -50.7779315081630358 0.70710677298230451 0 0.7071067893907904134 0.7071067893907904134 0 -0.70710677298230451 forward_v I I I I #
coedge $-1 $407 $265 $408 $409 forward $152 $-1 #
coedge $-1 $410 $154 $407 $411 forward $90 $-1 #
coedge $-1 $154 $410 $412 $413 forward $90 $-1 #
coedge $-1 $268 $267 $154 $261 reversed $269 $-1 #
edge $-1 $414 -4.08657990943619609 $415 4.08657990943619609 $260 $416 forward 7 unknown #
coedge $-1 $156 $155 $417 $418 forward $54 $-1 #
coedge $-1 $419 $420 $155 $264 reversed $404 $-1 #
edge $-1 $271 -181.0162663655507629 $421 181.0162663655507629 $263 $422 forward 7 unknown #
coedge $-1 $257 $423 $156 $266 reversed $152 $-1 #
edge $-1 $424 -181.0162663655507629 $270 181.0162663655507629 $265 $425 forward 7 unknown #
coedge $-1 $260 $157 $423 $426 forward $269 $-1 #
coedge $-1 $157 $260 $419 $427 reversed $269 $-1 #
loop $-1 $-1 $267 $403 #
vertex $-1 $158 $428 #
vertex $-1 $158 $429 #
straight-curve $-1 -2.970202849894576502e-06 17.93868614040029641 269.2166443498672379 0 1 0 I I #
loop $-1 $-1 $430 $93 #
coedge $-1 $274 $274 $162 $275 reversed $159 $-1 #
edge $-1 $431 0 $431 6.283185307179586232 $274 $432 forward 7 unknown #
vertex $-1 $163 $433 #
ellipse-curve $-1 3.12870211154630562 15.48673819473857804 16.34968762971289635 -0.7071067893907904134 0 0.70710677298230451 0.353553386491152255 0 0.3535533946953952067 1 I I #
loop $-1 $-1 $434 $98 #
coedge $-1 $279 $279 $167 $280 reversed $164 $-1 #
edge $-1 $435 0 $435 6.283185307179586232 $279 $436 forward 7 unknown #
vertex $-1 $168 $437 #
ellipse-curve $-1 3.12870211154630562 17.93868614040029641 16.34968762971289635 -0.7071067893907904134 0 0.70710677298230451 0.353553386491152255 0 0.3535533946953952067 1 I I #
loop $-1 $-1 $438 $103 #
coedge $-1 $284 $284 $172 $285 reversed $169 $-1 #
edge $-1 $439 0 $439 6.283185307179586232 $284 $440 forward 7 unknown #
vertex $-1 $173 $441 #
ellipse-curve $-1 3.12870211154630562 20.39063408606201477 16.34968762971289635 -0.7071067893907904134 0 0.70710677298230451 0.353553386491152255 0 0.3535533946953952067 1 I I #
face $-1 $442 $443 $29 $-1 $444 reversed single #
loop $-1 $-1 $445 $174 #
plane-surface $-1 -191.9967434356761657 34.79349628425519114 -50.7779315081630358 0.70710677298230451 0 0.7071067893907904134 0.7071067893907904134 0 -0.70710677298230451 forward_v I I I I #
coedge $-1 $446 $299 $447 $448 forward $175 $-1 #
coedge $-1 $449 $177 $446 $450 forward $109 $-1 #
coedge $-1 $177 $449 $451 $452 forward $109 $-1 #
coedge $-1 $302 $301 $177 $295 reversed $303 $-1 #
edge $-1 $453 -4.08657990943619609 $454 4.08657990943619609 $294 $455 forward 7 unknown #
coedge $-1 $179 $178 $456 $457 forward $66 $-1 #
coedge $-1 $458 $459 $178 $298 reversed $443 $-1 #
edge $-1 $305 -181.0162663655507629 $460 181.0162663655507629 $297 $461 forward 7 unknown #
coedge $-1 $291 $462 $179 $300 reversed $175 $-1 #
edge $-1 $463 -181.0162663655507629 $304 181.0162663655507629 $299 $464 forward 7 unknown #
coedge $-1 $294 $180 $462 $465 forward $303 $-1 #
coedge $-1 $180 $294 $458 $466 reversed $303 $-1 #
loop $-1 $-1 $301 $442 #
vertex $-1 $181 $467 #
vertex $-1 $181 $468 #
straight-curve $-1 -2.970202849894576502e-06 34.79349628425519114 269.2166443498672379 0 1 0 I I #
loop $-1 $-1 $469 $112 #
coedge $-1 $308 $308 $185 $309 reversed $182 $-1 #
edge $-1 $470 0 $470 6.283185307179586232 $308 $471 forward 7 unknown #
vertex $-1 $186 $472 #
ellipse-curve $-1 3.12870211154630562 32.34154833859346923 16.34968762971289635 -0.7071067893907904134 0 0.70710677298230451 0.353553386491152255 0 0.3535533946953952067 1 I I #
loop $-1 $-1 $473 $117 #
coedge $-1 $313 $313 $190 $314 reversed $187 $-1 #
edge $-1 $474 0 $474 6.283185307179586232 $313 $475 forward 7 unknown #
vertex $-1 $191 $476 #
ellipse-curve $-1 3.12870211154630562 34.79349628425519114 16.34968762971289635 -0.7071067893907904134 0 0.70710677298230451 0.353553386491152255 0 0.3535533946953952067 1 I I #
loop $-1 $-1 $477 $122 #
coedge $-1 $318 $318 $195 $319 reversed $192 $-1 #
edge $-1 $478 0 $478 6.283185307179586232 $318 $479 forward 7 unknown #
vertex $-1 $196 $480 #
ellipse-curve $-1 3.12870211154630562 37.24544422991691306 16.34968762971289635 -0.7071067893907904134 0 0.70710677298230451 0.353553386491152255 0 0.3535533946953952067 1 I I #
face $-1 $-1 $212 $22 $-1 $481 reversed single #
loop $-1 $-1 $338 $197 #
plane-surface $-1 45.25406659138767651 53.23039448811000085 9.739194906930530138 0 -1 0 0 0 -1 forward_v I I I I #
coedge $-1 $482 $336 $339 $483 forward $198 $-1 #
coedge $-1 $342 $200 $201 $330 reversed $128 $-1 #
coedge $-1 $336 $482 $200 $328 reversed $198 $-1 #
edge $-1 $343 -9.739194906930530138 $484 9.739194906930530138 $327 $485 forward 7 unknown #
coedge $-1 $202 $201 $482 $486 forward $78 $-1 #
edge $-1 $334 -45.25406659138767651 $484 45.25406659138767651 $326 $487 forward 7 unknown #
coedge $-1 $339 $338 $202 $332 reversed $323 $-1 #
edge $-1 $488 -45.25406659138767651 $333 45.25406659138767651 $331 $489 forward 7 unknown #
vertex $-1 $204 $490 #
vertex $-1 $345 $491 #
straight-curve $-1 90.50813318277535302 26.61519724405500043 0 0 -1 0 I I #
coedge $-1 $325 $327 $205 $337 reversed $198 $-1 #
edge $-1 $340 -26.61519724405500043 $343 26.61519724405500043 $336 $492 forward 7 unknown #
coedge $-1 $331 $206 $211 $346 forward $323 $-1 #
coedge $-1 $206 $331 $325 $483 reversed $323 $-1 #
vertex $-1 $207 $493 #
straight-curve $-1 45.25406659138767651 53.23039448811000085 19.47838981386106028 -1 0 0 I I #
coedge $-1 $208 $326 $210 $345 reversed $128 $-1 #
vertex $-1 $337 $494 #
straight-curve $-1 45.25406659138767651 0 19.47838981386106028 1 0 0 I I #
edge $-1 $213 -9.739194906930530138 $334 9.739194906930530138 $210 $495 forward 7 unknown #
edge $-1 $214 -9.739194906930530138 $333 9.739194906930530138 $211 $496 forward 7 unknown #
point $-1 90.50813318277535302 0 19.47838981386106028 #
point $-1 90.50813318277535302 53.23039448811000085 19.47838981386106028 #
face $-1 $-1 $231 $23 $-1 $497 reversed single #
loop $-1 $-1 $365 $216 #
plane-surface $-1 45.25406659138767651 9.760387100200105692 4.617954553237664683 0 -1 0 0 0 -1 forward_v I I I I #
coedge $-1 $498 $363 $366 $499 forward $217 $-1 #
coedge $-1 $369 $219 $220 $357 reversed $136 $-1 #
coedge $-1 $363 $498 $219 $355 reversed $217 $-1 #
edge $-1 $370 -1.5 $500 1.5 $354 $501 forward 7 unknown #
coedge $-1 $221 $220 $498 $502 forward $82 $-1 #
edge $-1 $361 -45.25406659138767651 $500 45.25406659138767651 $353 $503 forward 7 unknown #
coedge $-1 $366 $365 $221 $359 reversed $350 $-1 #
edge $-1 $504 -45.25406659138767651 $360 45.25406659138767651 $358 $505 forward 7 unknown #
vertex $-1 $223 $506 #
vertex $-1 $372 $507 #
straight-curve $-1 90.50813318277535302 4.880193550100052846 3.117954553237664683 0 -1 0 I I #
coedge $-1 $352 $354 $224 $364 reversed $217 $-1 #
edge $-1 $367 -4.880193550100052846 $370 4.880193550100052846 $363 $508 forward 7 unknown #
coedge $-1 $358 $225 $230 $373 forward $350 $-1 #
coedge $-1 $225 $358 $352 $499 reversed $350 $-1 #
vertex $-1 $226 $509 #
straight-curve $-1 45.25406659138767651 9.760387100200105692 6.117954553237664683 -1 0 0 I I #
coedge $-1 $227 $353 $229 $372 reversed $136 $-1 #
vertex $-1 $364 $510 #
straight-curve $-1 45.25406659138767651 0 6.117954553237664683 1 0 0 I I #
edge $-1 $232 -1.5 $361 1.5 $229 $511 forward 7 unknown #
edge $-1 $233 -1.5 $360 1.5 $230 $512 forward 7 unknown #
point $-1 90.50813318277535302 0 6.117954553237664683 #
point $-1 90.50813318277535302 9.760387100200105692 6.117954553237664683 #
face $-1 $-1 $250 $24 $-1 $513 reversed single #
loop $-1 $-1 $392 $235 #
plane-surface $-1 45.25406659138767651 53.23039448811000085 4.617954553237664683 0 -1 0 0 0 -1 forward_v I I I I #
coedge $-1 $514 $390 $393 $515 forward $236 $-1 #
coedge $-1 $396 $238 $239 $384 reversed $144 $-1 #
coedge $-1 $390 $514 $238 $382 reversed $236 $-1 #
edge $-1 $397 -1.5 $516 1.5 $381 $517 forward 7 unknown #
coedge $-1 $240 $239 $514 $518 forward $86 $-1 #
edge $-1 $388 -45.25406659138767651 $516 45.25406659138767651 $380 $519 forward 7 unknown #
coedge $-1 $393 $392 $240 $386 reversed $377 $-1 #
edge $-1 $520 -45.25406659138767651 $387 45.25406659138767651 $385 $521 forward 7 unknown #
vertex $-1 $242 $522 #
vertex $-1 $399 $523 #
straight-curve $-1 90.50813318277535302 48.350200938009948 3.117954553237664683 0 -1 0 I I #
coedge $-1 $379 $381 $243 $391 reversed $236 $-1 #
edge $-1 $394 -4.880193550100052846 $397 4.880193550100052846 $390 $524 forward 7 unknown #
coedge $-1 $385 $244 $249 $400 forward $377 $-1 #
coedge $-1 $244 $385 $379 $515 reversed $377 $-1 #
vertex $-1 $245 $525 #
straight-curve $-1 45.25406659138767651 53.23039448811000085 6.117954553237664683 -1 0 0 I I #
coedge $-1 $246 $380 $248 $399 reversed $144 $-1 #
vertex $-1 $391 $526 #
straight-curve $-1 45.25406659138767651 43.47000738790989516 6.117954553237664683 1 0 0 I I #
edge $-1 $251 -1.5 $388 1.5 $248 $527 forward 7 unknown #
edge $-1 $252 -1.5 $387 1.5 $249 $528 forward 7 unknown #
point $-1 90.50813318277535302 43.47000738790989516 6.117954553237664683 #
point $-1 90.50813318277535302 53.23039448811000085 6.117954553237664683 #
face $-1 $-1 $269 $25 $-1 $529 reversed single #
loop $-1 $-1 $419 $254 #
plane-surface $-1 -63.99891546862633618 22.0252660498364925 77.21989942908965077 0 -1 0 0.7071067893907904134 0 -0.70710677298230451 forward_v I I I I #
coedge $-1 $530 $417 $420 $531 forward $255 $-1 #
coedge $-1 $423 $257 $258 $411 reversed $152 $-1 #
coedge $-1 $417 $530 $257 $409 reversed $255 $-1 #
edge $-1 $424 -90.50813318277538144 $532 90.50813318277536723 $408 $533 forward 7 unknown #
coedge $-1 $259 $258 $530 $534 forward $90 $-1 #
edge $-1 $415 -181.0162663655507629 $532 181.0162663655507629 $407 $535 forward 7 unknown #
coedge $-1 $420 $419 $259 $413 reversed $404 $-1 #
edge $-1 $536 -181.0162663655507629 $414 181.0162663655507629 $412 $537 forward 7 unknown #
vertex $-1 $261 $538 #
vertex $-1 $426 $539 #
straight-curve $-1 127.9978279670498296 17.93868614040029641 141.2188163828174083 0 -1 0 I I #
coedge $-1 $406 $408 $262 $418 reversed $255 $-1 #
edge $-1 $421 -4.08657990943619609 $424 4.08657990943619609 $417 $540 forward 7 unknown #
coedge $-1 $412 $263 $268 $427 forward $404 $-1 #
coedge $-1 $263 $412 $406 $531 reversed $404 $-1 #
vertex $-1 $264 $541 #
straight-curve $-1 -127.9978309372526724 22.0252660498364925 141.2188134126145656 -0.70710677298230451 0 -0.7071067893907904134 I I #
coedge $-1 $265 $407 $267 $426 reversed $152 $-1 #
vertex $-1 $418 $542 #
straight-curve $-1 -127.9978309372526724 13.85210623096410032 141.2188134126145656 0.70710677298230451 0 0.7071067893907904134 I I #
edge $-1 $270 -90.50813318277538144 $415 90.50813318277538144 $267 $543 forward 7 unknown #
edge $-1 $271 -90.50813318277538144 $414 90.50813318277538144 $268 $544 forward 7 unknown #
point $-1 -2.970202849894576502e-06 13.85210623096410032 269.2166443498672379 #
point $-1 -2.970202849894576502e-06 22.0252660498364925 269.2166443498672379 #
coedge $-1 $430 $430 $-1 $545 reversed $273 $-1 #
vertex $-1 $275 $546 #
ellipse-curve $-1 3.929249630880701449 15.48673819473857804 15.54914012895528863 -0.7071067893907904134 0 0.70710677298230451 0.353553386491152255 0 0.3535533946953952067 1 I I #
point $-1 3.482255498037457819 15.48673819473857804 16.7032410244082925 #
coedge $-1 $434 $434 $-1 $547 reversed $278 $-1 #
vertex $-1 $280 $548 #
ellipse-curve $-1 3.929249630880701449 17.93868614040029641 15.54914012895528863 -0.7071067893907904134 0 0.70710677298230451 0.353553386491152255 0 0.3535533946953952067 1 I I #
point $-1 3.482255498037457819 17.93868614040029641 16.7032410244082925 #
coedge $-1 $438 $438 $-1 $549 reversed $283 $-1 #
vertex $-1 $285 $550 #
ellipse-curve $-1 3.929249630880701449 20.39063408606201477 15.54914012895528863 -0.7071067893907904134 0 0.70710677298230451 0.353553386491152255 0 0.3535533946953952067 1 I I #
point $-1 3.482255498037457819 20.39063408606201477 16.7032410244082925 #
face $-1 $-1 $303 $29 $-1 $551 reversed single #
loop $-1 $-1 $458 $288 #
plane-surface $-1 -63.99891546862633618 38.88007619369138723 77.21989942908965077 0 -1 0 0.7071067893907904134 0 -0.70710677298230451 forward_v I I I I #
coedge $-1 $552 $456 $459 $553 forward $289 $-1 #
coedge $-1 $462 $291 $292 $450 reversed $175 $-1 #
coedge $-1 $456 $552 $291 $448 reversed $289 $-1 #
edge $-1 $463 -90.50813318277538144 $554 90.50813318277536723 $447 $555 forward 7 unknown #
coedge $-1 $293 $292 $552 $556 forward $109 $-1 #
edge $-1 $454 -181.0162663655507629 $554 181.0162663655507629 $446 $557 forward 7 unknown #
coedge $-1 $459 $458 $293 $452 reversed $443 $-1 #
edge $-1 $558 -181.0162663655507629 $453 181.0162663655507629 $451 $559 forward 7 unknown #
vertex $-1 $295 $560 #
vertex $-1 $465 $561 #
straight-curve $-1 127.9978279670498296 34.79349628425519114 141.2188163828174083 0 -1 0 I I #
coedge $-1 $445 $447 $296 $457 reversed $289 $-1 #
edge $-1 $460 -4.08657990943619609 $463 4.08657990943619609 $456 $562 forward 7 unknown #
coedge $-1 $451 $297 $302 $466 forward $443 $-1 #
coedge $-1 $297 $451 $445 $553 reversed $443 $-1 #
vertex $-1 $298 $563 #
straight-curve $-1 -127.9978309372526724 38.88007619369138723 141.2188134126145656 -0.70710677298230451 0 -0.7071067893907904134 I I #
coedge $-1 $299 $446 $301 $465 reversed $175 $-1 #
vertex $-1 $457 $564 #
straight-curve $-1 -127.9978309372526724 30.70691637481899505 141.2188134126145656 0.70710677298230451 0 0.7071067893907904134 I I #
edge $-1 $304 -90.50813318277538144 $454 90.50813318277538144 $301 $565 forward 7 unknown #
edge $-1 $305 -90.50813318277538144 $453 90.50813318277538144 $302 $566 forward 7 unknown #
point $-1 -2.970202849894576502e-06 30.70691637481899505 269.2166443498672379 #
point $-1 -2.970202849894576502e-06 38.88007619369138723 269.2166443498672379 #
coedge $-1 $469 $469 $-1 $567 reversed $307 $-1 #
vertex $-1 $309 $568 #
ellipse-curve $-1 3.929249630880701449 32.34154833859346923 15.54914012895528863 -0.7071067893907904134 0 0.70710677298230451 0.353553386491152255 0 0.3535533946953952067 1 I I #
point $-1 3.482255498037457819 32.34154833859346923 16.7032410244082925 #
coedge $-1 $473 $473 $-1 $569 reversed $312 $-1 #
vertex $-1 $314 $570 #
ellipse-curve $-1 3.929249630880701449 34.79349628425519114 15.54914012895528863 -0.7071067893907904134 0 0.70710677298230451 0.353553386491152255 0 0.3535533946953952067 1 I I #
point $-1 3.482255498037457819 34.79349628425519114 16.7032410244082925 #
coedge $-1 $477 $477 $-1 $571 reversed $317 $-1 #
vertex $-1 $319 $572 #
ellipse-curve $-1 3.929249630880701449 37.24544422991691306 15.54914012895528863 -0.7071067893907904134 0 0.70710677298230451 0.353553386491152255 0 0.3535533946953952067 1 I I #
point $-1 3.482255498037457819 37.24544422991691306 16.7032410244082925 #
plane-surface $-1 90.50813318277535302 26.61519724405500043 9.739194906930530138 -1 0 0 0 0 1 forward_v I I I I #
coedge $-1 $327 $325 $329 $486 reversed $198 $-1 #
edge $-1 $340 -9.739194906930530138 $488 9.739194906930530138 $339 $573 forward 7 unknown #
vertex $-1 $486 $574 #
straight-curve $-1 0 0 9.739194906930530138 0 0 -1 I I #
edge $-1 $484 -26.61519724405500043 $488 26.61519724405500043 $482 $575 forward 7 unknown #
straight-curve $-1 45.25406659138767651 0 0 -1 0 0 I I #
vertex $-1 $332 $576 #
straight-curve $-1 45.25406659138767651 53.23039448811000085 0 1 0 0 I I #
point $-1 90.50813318277535302 53.23039448811000085 0 #
point $-1 90.50813318277535302 0 0 #
straight-curve $-1 0 26.61519724405500043 19.47838981386106028 0 -1 0 I I #
point $-1 0 53.23039448811000085 19.47838981386106028 #
point $-1 0 0 19.47838981386106028 #
straight-curve $-1 90.50813318277535302 0 9.739194906930530138 0 0 -1 I I #
straight-curve $-1 90.50813318277535302 53.23039448811000085 9.739194906930530138 0 0 -1 I I #
plane-surface $-1 90.50813318277535302 4.880193550100052846 4.617954553237664683 -1 0 0 0 0 1 forward_v I I I I #
coedge $-1 $354 $352 $356 $502 reversed $217 $-1 #
edge $-1 $367 -1.5 $504 1.5 $366 $577 forward 7 unknown #
vertex $-1 $502 $578 #
straight-curve $-1 0 0 4.617954553237664683 0 0 -1 I I #
edge $-1 $500 -4.880193550100052846 $504 4.880193550100052846 $498 $579 forward 7 unknown #
straight-curve $-1 45.25406659138767651 0 3.117954553237664683 -1 0 0 I I #
vertex $-1 $359 $580 #
straight-curve $-1 45.25406659138767651 9.760387100200105692 3.117954553237664683 1 0 0 I I #
point $-1 90.50813318277535302 9.760387100200105692 3.117954553237664683 #
point $-1 90.50813318277535302 0 3.117954553237664683 #
straight-curve $-1 0 4.880193550100052846 6.117954553237664683 0 -1 0 I I #
point $-1 0 9.760387100200105692 6.117954553237664683 #
point $-1 0 0 6.117954553237664683 #
straight-curve $-1 90.50813318277535302 0 4.617954553237664683 0 0 -1 I I #
straight-curve $-1 90.50813318277535302 9.760387100200105692 4.617954553237664683 0 0 -1 I I #
plane-surface $-1 90.50813318277535302 48.350200938009948 4.617954553237664683 -1 0 0 0 0 1 forward_v I I I I #
coedge $-1 $381 $379 $383 $518 reversed $236 $-1 #
edge $-1 $394 -1.5 $520 1.5 $393 $581 forward 7 unknown #
vertex $-1 $518 $582 #
straight-curve $-1 0 43.47000738790989516 4.617954553237664683 0 0 -1 I I #
edge $-1 $516 -4.880193550100052846 $520 4.880193550100052846 $514 $583 forward 7 unknown #
straight-curve $-1 45.25406659138767651 43.47000738790989516 3.117954553237664683 -1 0 0 I I #
vertex $-1 $386 $584 #
straight-curve $-1 45.25406659138767651 53.23039448811000085 3.117954553237664683 1 0 0 I I #
point $-1 90.50813318277535302 53.23039448811000085 3.117954553237664683 #
point $-1 90.50813318277535302 43.47000738790989516 3.117954553237664683 #
straight-curve $-1 0 48.350200938009948 6.117954553237664683 0 -1 0 I I #
point $-1 0 53.23039448811000085 6.117954553237664683 #
point $-1 0 43.47000738790989516 6.117954553237664683 #
straight-curve $-1 90.50813318277535302 43.47000738790989516 4.617954553237664683 0 0 -1 I I #
straight-curve $-1 90.50813318277535302 53.23039448811000085 4.617954553237664683 0 0 -1 I I #
plane-surface $-1 63.99891249842349339 17.93868614040029641 205.2177303663423231 -0.70710677298230451 0 -0.7071067893907904134 -0.7071067893907904134 0 0.70710677298230451 forward_v I I I I #
coedge $-1 $408 $406 $410 $534 reversed $255 $-1 #
edge $-1 $421 -90.50813318277538144 $536 90.50813318277536723 $420 $585 forward 7 unknown #
vertex $-1 $534 $586 #
straight-curve $-1 -191.9967434356761657 13.85210623096410032 -50.7779315081630358 0.7071067893907904134 0 -0.70710677298230451 I I #
edge $-1 $532 -4.08657990943619609 $536 4.08657990943619609 $530 $587 forward 7 unknown #
straight-curve $-1 7.105427357601001859e-15 13.85210623096410032 13.22098544556473598 -0.70710677298230451 0 -0.7071067893907904134 I I #
vertex $-1 $413 $588 #
straight-curve $-1 7.105427357601001859e-15 22.0252660498364925 13.22098544556473598 0.70710677298230451 0 0.7071067893907904134 I I #
point $-1 127.9978279670498296 22.0252660498364925 141.2188163828174083 #
point $-1 127.9978279670498296 13.85210623096410032 141.2188163828174083 #
straight-curve $-1 -255.9956589043025019 17.93868614040029641 13.22098247536187898 0 -1 0 I I #
point $-1 -255.9956589043025019 22.0252660498364925 13.22098247536187898 #
point $-1 -255.9956589043025019 13.85210623096410032 13.22098247536187898 #
straight-curve $-1 63.99891249842349339 13.85210623096410032 205.2177303663423231 0.7071067893907904134 0 -0.70710677298230451 I I #
straight-curve $-1 63.99891249842349339 22.0252660498364925 205.2177303663423231 0.7071067893907904134 0 -0.70710677298230451 I I #
edge $-1 $589 1 $589 0 $430 $-1 forward 7 unknown #
point $-1 4.282803017371853649 15.48673819473857804 15.90269352365068301 #
edge $-1 $590 1 $590 0 $434 $-1 forward 7 unknown #
point $-1 4.282803017371853649 17.93868614040029641 15.90269352365068301 #
edge $-1 $591 1 $591 0 $438 $-1 forward 7 unknown #
point $-1 4.282803017371853649 20.39063408606201477 15.90269352365068301 #
plane-surface $-1 63.99891249842349339 34.79349628425519114 205.2177303663423231 -0.70710677298230451 0 -0.7071067893907904134 -0.7071067893907904134 0 0.70710677298230451 forward_v I I I I #
coedge $-1 $447 $445 $449 $556 reversed $289 $-1 #
edge $-1 $460 -90.50813318277538144 $558 90.50813318277536723 $459 $592 forward 7 unknown #
vertex $-1 $556 $593 #
straight-curve $-1 -191.9967434356761657 30.70691637481899505 -50.7779315081630358 0.7071067893907904134 0 -0.70710677298230451 I I #
edge $-1 $554 -4.08657990943619609 $558 4.08657990943619609 $552 $594 forward 7 unknown #
straight-curve $-1 7.105427357601001859e-15 30.70691637481899505 13.22098544556473598 -0.70710677298230451 0 -0.7071067893907904134 I I #
vertex $-1 $452 $595 #
straight-curve $-1 7.105427357601001859e-15 38.88007619369138723 13.22098544556473598 0.70710677298230451 0 0.7071067893907904134 I I #
point $-1 127.9978279670498296 38.88007619369138723 141.2188163828174083 #
point $-1 127.9978279670498296 30.70691637481899505 141.2188163828174083 #
straight-curve $-1 -255.9956589043025019 34.79349628425519114 13.22098247536187898 0 -1 0 I I #
point $-1 -255.9956589043025019 38.88007619369138723 13.22098247536187898 #
point $-1 -255.9956589043025019 30.70691637481899505 13.22098247536187898 #
straight-curve $-1 63.99891249842349339 30.70691637481899505 205.2177303663423231 0.7071067893907904134 0 -0.70710677298230451 I I #
straight-curve $-1 63.99891249842349339 38.88007619369138723 205.2177303663423231 0.7071067893907904134 0 -0.70710677298230451 I I #
edge $-1 $596 1 $596 0 $469 $-1 forward 7 unknown #
point $-1 4.282803017371853649 32.34154833859346923 15.90269352365068301 #
edge $-1 $597 1 $597 0 $473 $-1 forward 7 unknown #
point $-1 4.282803017371853649 34.79349628425519114 15.90269352365068301 #
edge $-1 $598 1 $598 0 $477 $-1 forward 7 unknown #
point $-1 4.282803017371853649 37.24544422991691306 15.90269352365068301 #
straight-curve $-1 0 53.23039448811000085 9.739194906930530138 0 0 -1 I I #
point $-1 0 0 0 #
straight-curve $-1 0 26.61519724405500043 0 0 1 0 I I #
point $-1 0 53.23039448811000085 0 #
straight-curve $-1 0 9.760387100200105692 4.617954553237664683 0 0 -1 I I #
point $-1 0 0 3.117954553237664683 #
straight-curve $-1 0 4.880193550100052846 3.117954553237664683 0 1 0 I I #
point $-1 0 9.760387100200105692 3.117954553237664683 #
straight-curve $-1 0 53.23039448811000085 4.617954553237664683 0 0 -1 I I #
point $-1 0 43.47000738790989516 3.117954553237664683 #
straight-curve $-1 0 48.350200938009948 3.117954553237664683 0 1 0 I I #
point $-1 0 53.23039448811000085 3.117954553237664683 #
straight-curve $-1 -191.9967434356761657 22.0252660498364925 -50.7779315081630358 0.7071067893907904134 0 -0.70710677298230451 I I #
point $-1 -127.9978279670498296 13.85210623096410032 -114.7768454916879364 #
straight-curve $-1 -127.9978279670498296 17.93868614040029641 -114.7768454916879364 0 1 0 I I #
point $-1 -127.9978279670498296 22.0252660498364925 -114.7768454916879364 #
vertex $-1 $545 $599 #
vertex $-1 $547 $600 #
vertex $-1 $549 $601 #
straight-curve $-1 -191.9967434356761657 38.88007619369138723 -50.7779315081630358 0.7071067893907904134 0 -0.70710677298230451 I I #
point $-1 -127.9978279670498296 30.70691637481899505 -114.7768454916879364 #
straight-curve $-1 -127.9978279670498296 34.79349628425519114 -114.7768454916879364 0 1 0 I I #
point $-1 -127.9978279670498296 38.88007619369138723 -114.7768454916879364 #
vertex $-1 $567 $602 #
vertex $-1 $569 $603 #
vertex $-1 $571 $604 #
point $-1 4.282803025576096267 15.48673819473857804 15.1955867424641351 #
point $-1 4.282803025576096267 17.93868614040029641 15.1955867424641351 #
point $-1 4.282803025576096267 20.39063408606201477 15.1955867424641351 #
point $-1 4.282803025576096267 32.34154833859346923 15.1955867424641351 #
point $-1 4.282803025576096267 34.79349628425519114 15.1955867424641351 #
point $-1 4.282803025576096267 37.24544422991691306 15.1955867424641351 #
End-of-ACIS-data 