300 0 5 0           
7 Unknown 11 ACIS 3.0 NT 24 Fri Oct 30 14:24:56 1998 
-1 9.9999999999999995e-007 1e-010 
body $5 $6 $-1 $7 #
body $8 $9 $-1 $10 #
body $11 $12 $-1 $13 #
body $14 $15 $-1 $16 #
body $17 $18 $-1 $19 #
display_attribute-st-attrib $-1 $20 $-1 $0 1 #
lump $-1 $-1 $21 $0 #
transform $-1 1 0 0 0 1 0 0 0 1 77.731864375743896 46.012367364480383 15.553941072196633 1 rotate no_reflect no_shear #
display_attribute-st-attrib $-1 $22 $-1 $1 1 #
lump $-1 $-1 $23 $1 #
transform $-1 1 0 0 0 1 0 0 0 1 77.731864375743896 46.012367364480383 15.553941072196633 1 rotate no_reflect no_shear #
display_attribute-st-attrib $-1 $24 $-1 $2 1 #
lump $-1 $-1 $25 $2 #
transform $-1 1 0 0 0 1 0 0 0 1 77.731864375743896 46.012367364480383 15.553941072196633 1 rotate no_reflect no_shear #
display_attribute-st-attrib $-1 $26 $-1 $3 1 #
lump $-1 $-1 $27 $3 #
transform $-1 1 0 0 0 1 0 0 0 1 77.731864375743896 46.012367364480383 15.553941072196633 1 rotate no_reflect no_shear #
display_attribute-st-attrib $-1 $28 $-1 $4 1 #
lump $-1 $-1 $29 $4 #
transform $-1 1 0 0 0 1 0 0 0 1 77.731864375743896 46.012367364480383 15.553941072196633 1 rotate no_reflect no_shear #
id_attribute-st-attrib $-1 $-1 $5 $0 1576 #
shell $-1 $-1 $-1 $30 $-1 $6 #
id_attribute-st-attrib $-1 $-1 $8 $1 1583 #
shell $-1 $-1 $-1 $31 $-1 $9 #
id_attribute-st-attrib $-1 $-1 $11 $2 1590 #
shell $-1 $-1 $-1 $32 $-1 $12 #
id_attribute-st-attrib $-1 $-1 $14 $3 1601 #
shell $-1 $-1 $-1 $33 $-1 $15 #
id_attribute-st-attrib $-1 $-1 $17 $4 1610 #
shell $-1 $-1 $-1 $34 $-1 $18 #
face $-1 $35 $36 $21 $-1 $37 forward single #
face $-1 $38 $39 $23 $-1 $40 forward single #
face $-1 $41 $42 $25 $-1 $43 reversed single #
face $-1 $44 $45 $27 $-1 $46 forward single #
face $-1 $47 $48 $29 $-1 $49 reversed single #
face $-1 $50 $51 $21 $-1 $52 reversed single #
loop $-1 $-1 $53 $30 #
plane-surface $-1 0 0 15.553941072196633 0 0 1 1 0 0 forward_v I I I I #
face $-1 $54 $55 $23 $-1 $56 forward single #
loop $-1 $-1 $57 $31 #
plane-surface $-1 47.741895177638028 -145.94252718984799 120.74417056601422 -1 0 0 0 -0.64278761758704617 0.76604443648966558 forward_v I I I I #
face $-1 $58 $59 $25 $-1 $60 reversed single #
loop $-1 $61 $62 $32 #
cone-surface $-1 30.763863006528027 -36.653847733923349 7.3222122585870331 0 0.64278761758704617 -0.76604443648966558 3 0 0 1 I I 0 1 forward I I I I #
face $-1 $63 $64 $27 $-1 $65 forward single #
loop $-1 $-1 $66 $33 #
plane-surface $-1 -46.650979928644034 62.942081761927753 185.614708278378 -1 0 0 0 0.5877852598018023 0.80901698891910034 forward_v I I I I #
face $-1 $67 $68 $29 $-1 $69 reversed single #
loop $-1 $70 $71 $34 #
cone-surface $-1 -62.191422152193965 37.474479715917965 8.1864980443881219 0 -0.5877852598018023 -0.80901698891910034 2 0 0 1 I I 0 1 forward I I I I #
face $-1 $72 $73 $21 $-1 $74 reversed single #
loop $-1 $-1 $75 $35 #
plane-surface $-1 0 0 -15.553941072196633 0 0 1 1 0 0 forward_v I I I I #
coedge $-1 $76 $77 $78 $79 forward $36 $-1 #
face $-1 $80 $81 $23 $-1 $82 forward single #
loop $-1 $-1 $83 $38 #
plane-surface $-1 30.763863006528027 -46.012367364480383 1.6520460799985273 0 -0.64278761758704617 0.76604443648966558 1 0 0 forward_v I I I I #
coedge $-1 $84 $85 $86 $87 reversed $39 $-1 #
face $-1 $88 $89 $25 $-1 $90 forward single #
loop $-1 $91 $92 $41 #
cone-surface $-1 30.763863006528027 -34.614963153891317 4.8923642863419872 0 0.64278761758704617 -0.76604443648966558 1.5 0 0 1 I I -0.70710678118654757 0.70710678118654757 forward I I I I #
loop $-1 $-1 $93 $32 #
coedge $-1 $62 $62 $94 $95 reversed $42 $-1 #
face $-1 $96 $97 $27 $-1 $98 reversed single #
loop $-1 $-1 $99 $44 #
plane-surface $-1 -62.191422152193965 -28.437206432022421 59.841910557713589 0 0.5877852598018023 0.80901698891910034 1 0 0 forward_v I I I I #
coedge $-1 $100 $101 $102 $103 reversed $45 $-1 #
face $-1 $104 $105 $29 $-1 $106 forward single #
loop $-1 $107 $108 $47 #
cone-surface $-1 -62.191422152193965 35.095014053607414 4.9114445903291006 0 -0.5877852598018023 -0.80901698891910034 1 0 0 1 I I -0.70710678118654746 0.70710678118654746 forward I I I I #
loop $-1 $-1 $109 $34 #
coedge $-1 $71 $71 $110 $111 reversed $48 $-1 #
face $-1 $112 $113 $21 $-1 $114 reversed single #
loop $-1 $-1 $115 $50 #
plane-surface $-1 0 -46.012367364480383 0 0 1 0 0 0 1 forward_v I I I I #
coedge $-1 $116 $117 $118 $119 forward $51 $-1 #
coedge $-1 $120 $53 $121 $122 forward $36 $-1 #
coedge $-1 $53 $120 $123 $124 forward $36 $-1 #
coedge $-1 $125 $126 $53 $79 reversed $127 $-1 #
edge $-1 $128 $129 $78 $130 forward #
face $-1 $131 $132 $23 $-1 $133 forward single #
loop $-1 $-1 $134 $54 #
plane-surface $-1 13.785830835418025 -145.94252718984799 120.74417056601422 1 0 0 0 0.64278761758704617 -0.76604443648966558 forward_v I I I I #
coedge $-1 $135 $136 $137 $138 reversed $55 $-1 #
coedge $-1 $85 $57 $136 $139 forward $39 $-1 #
coedge $-1 $57 $84 $140 $141 reversed $39 $-1 #
coedge $-1 $142 $137 $57 $87 forward $132 $-1 #
edge $-1 $143 $144 $86 $145 forward #
face $-1 $146 $147 $25 $-1 $148 forward single #
loop $-1 $-1 $149 $58 #
plane-surface $-1 47.741895177638028 -145.94252718984799 120.74417056601422 -1 0 0 0 -0.64278761758704617 0.76604443648966558 forward_v I I I I #
loop $-1 $-1 $150 $41 #
coedge $-1 $92 $92 $93 $151 forward $59 $-1 #
coedge $-1 $93 $93 $92 $151 reversed $61 $-1 #
coedge $-1 $94 $94 $62 $95 forward $147 $-1 #
edge $-1 $152 $152 $94 $153 forward #
face $-1 $154 $155 $27 $-1 $156 forward single #
loop $-1 $-1 $157 $63 #
plane-surface $-1 0 46.012367364480383 0 0 -1 0 0 0 -1 forward_v I I I I #
coedge $-1 $158 $159 $157 $160 reversed $64 $-1 #
coedge $-1 $101 $66 $159 $161 forward $45 $-1 #
coedge $-1 $66 $100 $162 $163 reversed $45 $-1 #
coedge $-1 $164 $157 $66 $103 forward $97 $-1 #
edge $-1 $165 $166 $102 $167 forward #
face $-1 $168 $169 $29 $-1 $170 forward single #
loop $-1 $-1 $171 $67 #
plane-surface $-1 -46.650979928644034 62.942081761927753 185.614708278378 -1 0 0 0 0.5877852598018023 0.80901698891910034 forward_v I I I I #
loop $-1 $-1 $172 $47 #
coedge $-1 $108 $108 $109 $173 forward $68 $-1 #
coedge $-1 $109 $109 $108 $173 reversed $70 $-1 #
coedge $-1 $110 $110 $71 $111 forward $169 $-1 #
edge $-1 $174 $174 $110 $175 forward #
face $-1 $176 $177 $21 $-1 $178 reversed single #
loop $-1 $-1 $179 $72 #
plane-surface $-1 -77.731864375743896 0 0 1 0 0 0 0 -1 forward_v I I I I #
coedge $-1 $180 $123 $181 $182 forward $73 $-1 #
coedge $-1 $183 $75 $180 $184 forward $51 $-1 #
coedge $-1 $75 $183 $185 $186 forward $51 $-1 #
coedge $-1 $126 $125 $75 $119 reversed $127 $-1 #
edge $-1 $187 $188 $118 $189 forward #
coedge $-1 $77 $76 $190 $191 forward $36 $-1 #
coedge $-1 $192 $193 $76 $122 reversed $177 $-1 #
edge $-1 $129 $194 $121 $195 forward #
coedge $-1 $115 $196 $77 $124 reversed $73 $-1 #
edge $-1 $197 $128 $123 $198 forward #
coedge $-1 $118 $78 $196 $199 forward $127 $-1 #
coedge $-1 $78 $118 $192 $200 reversed $127 $-1 #
loop $-1 $-1 $125 $176 #
vertex $-1 $79 $201 #
vertex $-1 $79 $202 #
straight-curve $-1 77.731864375743896 0 15.553941072196633 0 1 0 I I #
face $-1 $203 $204 $23 $-1 $205 reversed single #
loop $-1 $-1 $206 $80 #
plane-surface $-1 0 0 15.553941072196633 0 0 1 1 0 0 forward_v I I I I #
coedge $-1 $207 $208 $206 $209 reversed $81 $-1 #
coedge $-1 $210 $83 $208 $211 reversed $55 $-1 #
coedge $-1 $83 $210 $84 $139 reversed $55 $-1 #
coedge $-1 $86 $206 $83 $138 forward $132 $-1 #
edge $-1 $212 $143 $137 $213 forward #
edge $-1 $143 $214 $84 $215 forward #
coedge $-1 $216 $217 $85 $141 forward $218 $-1 #
edge $-1 $144 $214 $140 $219 forward #
coedge $-1 $220 $86 $217 $221 forward $132 $-1 #
vertex $-1 $138 $222 #
vertex $-1 $221 $223 #
straight-curve $-1 47.741895177638028 -72.971263594923997 15.553941072196636 0 -1 0 I I #
face $-1 $224 $225 $25 $-1 $226 forward single #
loop $-1 $227 $94 $88 #
plane-surface $-1 30.763863006528027 -46.012367364480383 1.6520460799985273 0 -0.64278761758704617 0.76604443648966558 1 0 0 forward_v I I I I #
coedge $-1 $228 $229 $230 $231 reversed $89 $-1 #
coedge $-1 $150 $150 $-1 $232 forward $91 $-1 #
edge $-1 $233 $233 $92 $234 forward #
vertex $-1 $95 $235 #
ellipse-curve $-1 30.763863006528027 -37.728550887574812 8.6029935760975782 0 0.64278761758704617 -0.76604443648966558 3 0 0 1 I I #
face $-1 $236 $237 $27 $-1 $238 reversed single #
loop $-1 $-1 $162 $96 #
plane-surface $-1 0 0 15.553941072196633 0 0 1 1 0 0 forward_v I I I I #
coedge $-1 $102 $239 $99 $160 forward $97 $-1 #
coedge $-1 $240 $99 $241 $242 reversed $64 $-1 #
coedge $-1 $99 $240 $100 $161 reversed $64 $-1 #
edge $-1 $243 $165 $157 $244 forward #
edge $-1 $165 $245 $100 $246 forward #
coedge $-1 $247 $248 $101 $163 forward $155 $-1 #
edge $-1 $166 $245 $162 $249 forward #
coedge $-1 $250 $102 $248 $251 reversed $97 $-1 #
vertex $-1 $160 $252 #
vertex $-1 $163 $253 #
straight-curve $-1 -46.650979928644034 46.012367364480383 92.807354139189002 0 0 1 I I #
face $-1 $254 $255 $29 $-1 $256 reversed single #
loop $-1 $257 $110 $104 #
plane-surface $-1 -62.191422152193965 -28.437206432022421 59.841910557713589 0 0.5877852598018023 0.80901698891910034 1 0 0 forward_v I I I I #
coedge $-1 $258 $259 $260 $261 reversed $105 $-1 #
coedge $-1 $172 $172 $-1 $262 forward $107 $-1 #
edge $-1 $263 $263 $108 $264 forward #
vertex $-1 $111 $265 #
ellipse-curve $-1 -62.191422152193965 39.266160118426704 10.652534509528035 0 -0.5877852598018023 -0.80901698891910034 2 0 0 1 I I #
face $-1 $-1 $127 $21 $-1 $266 reversed single #
loop $-1 $-1 $192 $112 #
plane-surface $-1 0 46.012367364480383 0 0 -1 0 0 0 -1 forward_v I I I I #
coedge $-1 $267 $190 $193 $268 forward $113 $-1 #
coedge $-1 $196 $115 $116 $184 reversed $73 $-1 #
coedge $-1 $190 $267 $115 $182 reversed $113 $-1 #
edge $-1 $197 $269 $181 $270 forward #
coedge $-1 $117 $116 $267 $271 forward $51 $-1 #
edge $-1 $188 $269 $180 $272 forward #
coedge $-1 $193 $192 $117 $186 reversed $177 $-1 #
edge $-1 $273 $187 $185 $274 forward #
vertex $-1 $119 $275 #
vertex $-1 $199 $276 #
straight-curve $-1 77.731864375743896 0 -15.553941072196633 0 -1 0 I I #
coedge $-1 $179 $181 $120 $191 reversed $113 $-1 #
edge $-1 $194 $197 $190 $277 forward #
coedge $-1 $185 $121 $126 $200 forward $177 $-1 #
coedge $-1 $121 $185 $179 $268 reversed $177 $-1 #
vertex $-1 $122 $278 #
straight-curve $-1 0 46.012367364480383 15.553941072196633 -1 0 0 I I #
coedge $-1 $123 $180 $125 $199 reversed $73 $-1 #
vertex $-1 $191 $279 #
straight-curve $-1 0 -46.012367364480383 15.553941072196633 1 0 0 I I #
edge $-1 $128 $188 $125 $280 forward #
edge $-1 $129 $187 $126 $281 forward #
point $-1 77.731864375743896 -46.012367364480383 15.553941072196633 #
point $-1 77.731864375743896 46.012367364480383 15.553941072196633 #
face $-1 $282 $218 $23 $-1 $283 reversed single #
loop $-1 $-1 $284 $131 #
plane-surface $-1 0 0 -15.553941072196633 0 0 1 1 0 0 forward_v I I I I #
coedge $-1 $137 $285 $134 $209 forward $132 $-1 #
coedge $-1 $208 $134 $286 $287 reversed $81 $-1 #
coedge $-1 $134 $207 $135 $211 forward $81 $-1 #
edge $-1 $288 $212 $206 $289 forward #
coedge $-1 $136 $135 $216 $290 reversed $55 $-1 #
edge $-1 $291 $212 $208 $292 forward #
vertex $-1 $138 $293 #
straight-curve $-1 15.381931503264013 -29.444734410669241 15.553941072196633 1 0 0 I I #
vertex $-1 $290 $294 #
straight-curve $-1 47.741895177638028 -46.012367364480383 1.6520460799985273 0 -0.76604443648966558 -0.64278761758704617 I I #
coedge $-1 $286 $140 $210 $290 forward $218 $-1 #
coedge $-1 $140 $295 $142 $221 reversed $218 $-1 #
loop $-1 $-1 $286 $203 #
straight-curve $-1 47.741895177638028 -46.012367364480383 60.37208528300711 0 0 -1 I I #
coedge $-1 $296 $142 $297 $298 forward $132 $-1 #
edge $-1 $144 $299 $217 $300 forward #
point $-1 47.741895177638028 -29.444734410669238 15.553941072196633 #
point $-1 47.741895177638028 -46.012367364480383 15.553941072196633 #
face $-1 $301 $302 $25 $-1 $303 forward single #
loop $-1 $-1 $304 $146 #
plane-surface $-1 13.785830835418025 -145.94252718984799 120.74417056601422 1 0 0 0 0.64278761758704617 -0.76604443648966558 forward_v I I I I #
loop $-1 $-1 $305 $88 #
coedge $-1 $229 $149 $306 $307 forward $89 $-1 #
coedge $-1 $149 $228 $308 $309 reversed $89 $-1 #
coedge $-1 $310 $311 $149 $231 forward $302 $-1 #
edge $-1 $312 $313 $230 $314 forward #
edge $-1 $315 $315 $150 $-1 forward #
vertex $-1 $151 $316 #
ellipse-curve $-1 30.763863006528027 -35.579144580271887 6.0414309410764853 0 -0.64278761758704617 0.76604443648966558 3 0 0 1 I I #
point $-1 33.763863006528027 -37.728550887574812 8.60299357609758 #
face $-1 $317 $318 $27 $-1 $319 reversed single #
loop $-1 $320 $321 $154 #
cone-surface $-1 30.763863006528027 -36.653847733923349 7.3222122585870331 0 0.64278761758704617 -0.76604443648966558 3 0 0 1 I I 0 1 forward I I I I #
coedge $-1 $157 $322 $323 $324 reversed $97 $-1 #
coedge $-1 $159 $158 $247 $325 reversed $64 $-1 #
coedge $-1 $323 $326 $158 $242 forward $327 $-1 #
edge $-1 $328 $243 $241 $329 forward #
vertex $-1 $324 $330 #
straight-curve $-1 -31.095711076096983 46.012367364480383 5.7511279468594445 1 0 0 I I #
vertex $-1 $325 $331 #
straight-curve $-1 -46.650979928644034 -28.437206432022421 59.841910557713589 0 -0.80901698891910034 0.5877852598018023 I I #
coedge $-1 $332 $162 $240 $325 forward $155 $-1 #
coedge $-1 $162 $333 $164 $251 forward $155 $-1 #
straight-curve $-1 -46.650979928644034 31.471040880963876 15.553941072196636 0 -1 0 I I #
coedge $-1 $322 $164 $334 $335 forward $97 $-1 #
edge $-1 $336 $166 $164 $337 forward #
point $-1 -46.650979928644034 46.012367364480383 5.7511279468594481 #
point $-1 -46.650979928644034 46.012367364480383 15.553941072196633 #
face $-1 $338 $339 $29 $-1 $340 forward single #
loop $-1 $-1 $341 $168 #
plane-surface $-1 0 46.012367364480383 0 0 -1 0 0 0 -1 forward_v I I I I #
loop $-1 $-1 $342 $104 #
coedge $-1 $259 $171 $343 $344 forward $105 $-1 #
coedge $-1 $171 $258 $345 $346 reversed $105 $-1 #
coedge $-1 $347 $341 $171 $261 forward $255 $-1 #
edge $-1 $348 $349 $260 $350 forward #
edge $-1 $351 $351 $172 $-1 forward #
vertex $-1 $173 $352 #
ellipse-curve $-1 -62.191422152193965 35.68279931340922 5.7204615792482008 0 0.5877852598018023 0.80901698891910034 2 0 0 1 I I #
point $-1 -60.191422152193965 39.266160118426704 10.652534509528042 #
plane-surface $-1 77.731864375743896 0 0 -1 0 0 0 0 1 forward_v I I I I #
coedge $-1 $181 $179 $183 $271 reversed $113 $-1 #
edge $-1 $194 $273 $193 $353 forward #
vertex $-1 $271 $354 #
straight-curve $-1 -77.731864375743896 -46.012367364480383 0 0 0 -1 I I #
edge $-1 $269 $273 $267 $355 forward #
straight-curve $-1 0 -46.012367364480383 -15.553941072196633 -1 0 0 I I #
vertex $-1 $186 $356 #
straight-curve $-1 0 46.012367364480383 -15.553941072196633 1 0 0 I I #
point $-1 77.731864375743896 46.012367364480383 -15.553941072196633 #
point $-1 77.731864375743896 -46.012367364480383 -15.553941072196633 #
straight-curve $-1 -77.731864375743896 0 15.553941072196633 0 -1 0 I I #
point $-1 -77.731864375743896 46.012367364480383 15.553941072196633 #
point $-1 -77.731864375743896 -46.012367364480383 15.553941072196633 #
straight-curve $-1 77.731864375743896 -46.012367364480383 0 0 0 -1 I I #
straight-curve $-1 77.731864375743896 46.012367364480383 0 0 0 -1 I I #
face $-1 $357 $358 $23 $-1 $359 reversed single #
plane-surface $-1 0 -46.012367364480383 0 0 1 0 0 0 1 forward_v I I I I #
coedge $-1 $360 $361 $362 $363 forward $204 $-1 #
coedge $-1 $206 $364 $365 $366 forward $132 $-1 #
coedge $-1 $365 $216 $207 $287 forward $218 $-1 #
edge $-1 $291 $288 $286 $367 forward #
vertex $-1 $287 $368 #
straight-curve $-1 13.785830835418025 -72.971263594923997 15.553941072196636 0 1 0 I I #
edge $-1 $214 $291 $216 $369 forward #
vertex $-1 $290 $370 #
straight-curve $-1 13.785830835418025 -46.012367364480383 1.6520460799985273 0 0.76604443648966558 0.64278761758704617 I I #
point $-1 13.785830835418025 -29.444734410669238 15.553941072196633 #
point $-1 47.741895177638028 -46.012367364480383 1.6520460799985273 #
coedge $-1 $217 $371 $372 $373 reversed $218 $-1 #
coedge $-1 $364 $220 $374 $375 forward $132 $-1 #
coedge $-1 $372 $376 $220 $298 reversed $377 $-1 #
edge $-1 $299 $378 $297 $379 forward #
vertex $-1 $298 $380 #
straight-curve $-1 0 -46.012367364480383 15.553941072196633 1 0 0 I I #
face $-1 $381 $382 $25 $-1 $383 reversed single #
loop $-1 $-1 $384 $224 #
plane-surface $-1 0 0 15.553941072196633 0 0 1 1 0 0 forward_v I I I I #
coedge $-1 $385 $386 $384 $387 reversed $225 $-1 #
coedge $-1 $388 $306 $311 $389 reversed $227 $-1 #
coedge $-1 $305 $390 $228 $307 reversed $227 $-1 #
edge $-1 $312 $391 $228 $392 forward #
coedge $-1 $393 $394 $229 $309 forward $395 $-1 #
edge $-1 $313 $391 $308 $396 forward #
coedge $-1 $397 $230 $394 $398 forward $302 $-1 #
coedge $-1 $230 $384 $305 $389 forward $302 $-1 #
vertex $-1 $389 $399 #
vertex $-1 $398 $400 #
straight-curve $-1 47.741895177638028 -72.971263594923997 15.553941072196636 0 -1 0 I I #
vertex $-1 $232 $401 #
point $-1 33.763863006528027 -35.579144580271887 6.0414309410764853 #
face $-1 $402 $403 $27 $-1 $404 forward single #
loop $-1 $405 $406 $236 #
cone-surface $-1 30.763863006528027 -34.614963153891317 4.8923642863419872 0 0.64278761758704617 -0.76604443648966558 1.5 0 0 1 I I -0.70710678118654757 0.70710678118654757 forward I I I I #
loop $-1 $-1 $407 $154 #
coedge $-1 $321 $321 $408 $409 reversed $237 $-1 #
coedge $-1 $239 $250 $410 $411 reversed $97 $-1 #
coedge $-1 $412 $241 $239 $324 forward $327 $-1 #
edge $-1 $243 $413 $239 $414 forward #
edge $-1 $245 $328 $247 $415 forward #
coedge $-1 $241 $416 $332 $417 reversed $327 $-1 #
loop $-1 $-1 $241 $418 #
vertex $-1 $417 $419 #
straight-curve $-1 -77.731864375743896 -4.9027501028353164 42.743126827315692 0 0.80901698891910034 -0.5877852598018023 I I #
point $-1 -77.731864375743896 46.012367364480383 5.7511279468594498 #
point $-1 -46.650979928644034 32.519952872373018 15.553941072196636 #
coedge $-1 $420 $247 $326 $417 forward $155 $-1 #
coedge $-1 $248 $421 $422 $423 forward $155 $-1 #
coedge $-1 $422 $424 $250 $335 reversed $425 $-1 #
edge $-1 $336 $426 $334 $427 forward #
vertex $-1 $423 $428 #
straight-curve $-1 0 46.012367364480383 15.553941072196633 -1 0 0 I I #
face $-1 $429 $430 $29 $-1 $431 reversed single #
loop $-1 $-1 $345 $254 #
plane-surface $-1 0 0 15.553941072196633 0 0 1 1 0 0 forward_v I I I I #
coedge $-1 $260 $432 $342 $433 forward $255 $-1 #
coedge $-1 $434 $343 $341 $433 reversed $257 $-1 #
coedge $-1 $342 $435 $258 $344 reversed $257 $-1 #
edge $-1 $348 $436 $258 $437 forward #
coedge $-1 $438 $439 $259 $346 forward $339 $-1 #
edge $-1 $349 $436 $345 $440 forward #
coedge $-1 $441 $260 $439 $442 reversed $255 $-1 #
vertex $-1 $433 $443 #
vertex $-1 $346 $444 #
straight-curve $-1 -46.650979928644034 46.012367364480383 92.807354139189002 0 0 1 I I #
vertex $-1 $262 $445 #
point $-1 -60.191422152193965 35.68279931340922 5.7204615792482008 #
straight-curve $-1 -77.731864375743896 46.012367364480383 0 0 0 -1 I I #
point $-1 -77.731864375743896 -46.012367364480383 -15.553941072196633 #
straight-curve $-1 -77.731864375743896 0 -15.553941072196633 0 1 0 I I #
point $-1 -77.731864375743896 46.012367364480383 -15.553941072196633 #
face $-1 $446 $447 $23 $-1 $448 reversed single #
loop $-1 $-1 $449 $282 #
plane-surface $-1 -77.731864375743896 0 0 1 0 0 0 0 -1 forward_v I I I I #
coedge $-1 $450 $284 $371 $451 forward $204 $-1 #
coedge $-1 $284 $450 $452 $453 forward $204 $-1 #
coedge $-1 $376 $372 $284 $363 reversed $377 $-1 #
edge $-1 $454 $455 $362 $456 forward #
coedge $-1 $285 $296 $457 $458 forward $132 $-1 #
coedge $-1 $459 $286 $285 $366 reversed $218 $-1 #
edge $-1 $460 $288 $365 $300 forward #
straight-curve $-1 13.785830835418025 -46.012367364480383 60.37208528300711 0 0 1 I I #
point $-1 13.785830835418025 -46.012367364480383 15.553941072196633 #
straight-curve $-1 15.381931503264013 -46.012367364480383 1.6520460799985259 -1 0 0 I I #
point $-1 13.785830835418025 -46.012367364480383 1.6520460799985273 #
coedge $-1 $295 $459 $360 $451 reversed $218 $-1 #
coedge $-1 $362 $297 $295 $373 forward $377 $-1 #
edge $-1 $299 $455 $372 $461 forward #
coedge $-1 $462 $463 $296 $375 reversed $447 $-1 #
edge $-1 $378 $464 $374 $465 forward #
coedge $-1 $297 $362 $462 $466 reversed $377 $-1 #
loop $-1 $-1 $372 $446 #
vertex $-1 $298 $467 #
straight-curve $-1 77.731864375743896 0 15.553941072196633 0 1 0 I I #
point $-1 77.731864375743896 -46.012367364480383 15.553941072196633 #
face $-1 $468 $395 $25 $-1 $469 reversed single #
loop $-1 $-1 $470 $301 #
plane-surface $-1 0 0 -15.553941072196633 0 0 1 1 0 0 forward_v I I I I #
coedge $-1 $311 $471 $304 $387 forward $302 $-1 #
coedge $-1 $386 $304 $472 $473 reversed $225 $-1 #
coedge $-1 $304 $385 $388 $474 forward $225 $-1 #
edge $-1 $475 $476 $384 $477 forward #
coedge $-1 $390 $305 $386 $474 reversed $227 $-1 #
edge $-1 $476 $312 $311 $478 forward #
coedge $-1 $306 $388 $393 $479 reversed $227 $-1 #
vertex $-1 $479 $480 #
straight-curve $-1 47.741895177638028 -46.012367364480383 1.6520460799985273 0 -0.76604443648966558 -0.64278761758704617 I I #
coedge $-1 $472 $308 $390 $479 forward $395 $-1 #
coedge $-1 $308 $481 $310 $398 reversed $395 $-1 #
loop $-1 $-1 $472 $381 #
straight-curve $-1 47.741895177638028 -46.012367364480383 60.37208528300711 0 0 -1 I I #
coedge $-1 $482 $310 $483 $484 forward $302 $-1 #
edge $-1 $313 $485 $394 $486 forward #
point $-1 47.741895177638028 -29.444734410669238 15.553941072196633 #
point $-1 47.741895177638028 -46.012367364480383 15.553941072196633 #
point $-1 30.763863006528027 -33.650781727510747 3.7432976316074891 #
face $-1 $487 $488 $27 $-1 $489 forward single #
loop $-1 $-1 $490 $317 #
plane-surface $-1 47.741895177638028 -145.94252718984799 120.74417056601422 -1 0 0 0 -0.64278761758704617 0.76604443648966558 forward_v I I I I #
loop $-1 $-1 $491 $236 #
coedge $-1 $406 $406 $407 $492 forward $318 $-1 #
coedge $-1 $407 $407 $406 $492 reversed $320 $-1 #
coedge $-1 $408 $408 $321 $409 forward $488 $-1 #
edge $-1 $493 $493 $408 $494 forward #
coedge $-1 $495 $496 $322 $411 forward $497 $-1 #
edge $-1 $413 $426 $322 $498 forward #
coedge $-1 $416 $323 $496 $499 reversed $327 $-1 #
vertex $-1 $411 $500 #
straight-curve $-1 -77.731864375743896 46.012367364480383 0 0 0 -1 I I #
straight-curve $-1 -31.095711076096983 32.519952872373018 15.553941072196636 -1 0 0 I I #
coedge $-1 $326 $412 $501 $502 reversed $327 $-1 #
edge $-1 $328 $503 $326 $504 forward #
face $-1 $505 $327 $27 $-1 $506 reversed single #
point $-1 -77.731864375743896 32.519952872373018 15.553941072196636 #
coedge $-1 $507 $332 $508 $509 forward $155 $-1 #
coedge $-1 $333 $510 $511 $512 forward $155 $-1 #
coedge $-1 $513 $334 $333 $423 reversed $425 $-1 #
edge $-1 $514 $336 $422 $515 forward #
coedge $-1 $334 $513 $495 $516 reversed $425 $-1 #
loop $-1 $-1 $513 $505 #
vertex $-1 $516 $517 #
straight-curve $-1 77.731864375743896 46.012367364480383 0 0 0 -1 I I #
point $-1 77.731864375743896 46.012367364480383 15.553941072196633 #
face $-1 $518 $519 $29 $-1 $520 reversed single #
loop $-1 $521 $522 $338 #
cone-surface $-1 30.763863006528027 -36.653847733923349 7.3222122585870331 0 0.64278761758704617 -0.76604443648966558 3 0 0 1 I I 0 1 forward I I I I #
coedge $-1 $341 $523 $524 $525 reversed $255 $-1 #
edge $-1 $526 $348 $341 $527 forward #
coedge $-1 $435 $342 $528 $529 reversed $257 $-1 #
coedge $-1 $343 $434 $438 $530 reversed $257 $-1 #
vertex $-1 $530 $531 #
straight-curve $-1 -46.650979928644034 -28.437206432022421 59.841910557713589 0 -0.80901698891910034 0.5877852598018023 I I #
coedge $-1 $532 $345 $435 $530 forward $339 $-1 #
coedge $-1 $345 $533 $347 $442 forward $339 $-1 #
straight-curve $-1 -46.650979928644034 31.471040880963876 15.553941072196636 0 -1 0 I I #
coedge $-1 $523 $347 $534 $535 forward $255 $-1 #
edge $-1 $536 $349 $347 $537 forward #
point $-1 -46.650979928644034 46.012367364480383 5.7511279468594481 #
point $-1 -46.650979928644034 46.012367364480383 15.553941072196633 #
point $-1 -62.191422152193965 34.507228793805609 4.1024276014100005 #
face $-1 $-1 $377 $23 $-1 $538 reversed single #
loop $-1 $-1 $462 $357 #
plane-surface $-1 0 46.012367364480383 0 0 -1 0 0 0 -1 forward_v I I I I #
coedge $-1 $539 $457 $463 $540 forward $358 $-1 #
coedge $-1 $361 $360 $539 $541 forward $204 $-1 #
edge $-1 $455 $542 $371 $543 forward #
coedge $-1 $463 $462 $361 $453 reversed $447 $-1 #
edge $-1 $544 $454 $452 $545 forward #
vertex $-1 $363 $546 #
vertex $-1 $373 $547 #
straight-curve $-1 77.731864375743896 0 -15.553941072196633 0 -1 0 I I #
coedge $-1 $449 $548 $364 $458 reversed $358 $-1 #
edge $-1 $464 $460 $457 $549 forward #
coedge $-1 $371 $365 $548 $550 forward $218 $-1 #
vertex $-1 $458 $551 #
straight-curve $-1 77.731864375743896 -46.012367364480383 0 0 0 -1 I I #
coedge $-1 $452 $374 $376 $466 forward $447 $-1 #
coedge $-1 $374 $452 $449 $540 reversed $447 $-1 #
vertex $-1 $375 $552 #
straight-curve $-1 0 46.012367364480383 15.553941072196633 -1 0 0 I I #
edge $-1 $378 $454 $376 $553 forward #
point $-1 77.731864375743896 46.012367364480383 15.553941072196633 #
face $-1 $554 $555 $25 $-1 $556 reversed single #
plane-surface $-1 0 -46.012367364480383 0 0 1 0 0 0 1 forward_v I I I I #
coedge $-1 $557 $558 $559 $560 forward $382 $-1 #
coedge $-1 $384 $561 $562 $563 forward $302 $-1 #
coedge $-1 $562 $393 $385 $473 forward $395 $-1 #
edge $-1 $564 $475 $472 $565 forward #
edge $-1 $564 $476 $386 $566 forward #
vertex $-1 $473 $567 #
vertex $-1 $389 $568 #
straight-curve $-1 13.785830835418025 -72.971263594923997 15.553941072196636 0 1 0 I I #
straight-curve $-1 15.381931503264013 -29.444734410669241 15.553941072196633 1 0 0 I I #
edge $-1 $391 $564 $393 $569 forward #
point $-1 47.741895177638028 -46.012367364480383 1.6520460799985273 #
coedge $-1 $394 $570 $571 $572 reversed $395 $-1 #
coedge $-1 $561 $397 $573 $574 forward $302 $-1 #
coedge $-1 $571 $575 $397 $484 reversed $576 $-1 #
edge $-1 $485 $577 $483 $578 forward #
vertex $-1 $484 $579 #
straight-curve $-1 0 -46.012367364480383 15.553941072196633 1 0 0 I I #
face $-1 $580 $581 $27 $-1 $582 forward single #
loop $-1 $583 $408 $402 #
plane-surface $-1 30.763863006528027 -46.012367364480383 1.6520460799985273 0 -0.64278761758704617 0.76604443648966558 1 0 0 forward_v I I I I #
coedge $-1 $584 $585 $510 $586 reversed $403 $-1 #
coedge $-1 $491 $491 $-1 $587 forward $405 $-1 #
edge $-1 $588 $588 $406 $589 forward #
vertex $-1 $409 $590 #
ellipse-curve $-1 30.763863006528027 -37.728550887574812 8.6029935760975782 0 0.64278761758704617 -0.76604443648966558 3 0 0 1 I I #
coedge $-1 $591 $410 $424 $516 forward $497 $-1 #
coedge $-1 $410 $591 $412 $499 forward $497 $-1 #
loop $-1 $-1 $495 $580 #
straight-curve $-1 0 46.012367364480383 -15.553941072196633 1 0 0 I I #
edge $-1 $592 $413 $412 $593 forward #
point $-1 -77.731864375743896 46.012367364480383 -15.553941072196633 #
coedge $-1 $594 $508 $416 $502 forward $595 $-1 #
edge $-1 $503 $592 $416 $596 forward #
vertex $-1 $417 $597 #
straight-curve $-1 -77.731864375743896 0 15.553941072196633 0 -1 0 I I #
face $-1 $-1 $425 $27 $-1 $598 reversed single #
plane-surface $-1 -77.731864375743896 0 0 1 0 0 0 0 -1 forward_v I I I I #
coedge $-1 $599 $420 $600 $601 forward $155 $-1 #
coedge $-1 $501 $602 $420 $509 reversed $595 $-1 #
edge $-1 $503 $603 $508 $604 forward #
coedge $-1 $421 $599 $490 $586 forward $155 $-1 #
coedge $-1 $605 $606 $421 $512 reversed $595 $-1 #
edge $-1 $607 $514 $511 $604 forward #
coedge $-1 $424 $422 $606 $608 forward $425 $-1 #
vertex $-1 $423 $609 #
straight-curve $-1 77.731864375743896 0 15.553941072196633 0 1 0 I I #
edge $-1 $426 $610 $424 $611 forward #
point $-1 77.731864375743896 46.012367364480383 -15.553941072196633 #
face $-1 $612 $613 $29 $-1 $614 forward single #
loop $-1 $615 $616 $429 #
cone-surface $-1 30.763863006528027 -34.614963153891317 4.8923642863419872 0 0.64278761758704617 -0.76604443648966558 1.5 0 0 1 I I -0.70710678118654757 0.70710678118654757 forward I I I I #
loop $-1 $-1 $617 $338 #
coedge $-1 $522 $522 $618 $619 reversed $430 $-1 #
coedge $-1 $432 $441 $620 $621 reversed $255 $-1 #
coedge $-1 $622 $528 $432 $525 forward $623 $-1 #
edge $-1 $526 $624 $432 $625 forward #
vertex $-1 $525 $626 #
straight-curve $-1 -31.095711076096983 46.012367364480383 5.7511279468594445 1 0 0 I I #
coedge $-1 $524 $627 $434 $529 forward $623 $-1 #
edge $-1 $628 $526 $528 $629 forward #
edge $-1 $436 $628 $438 $630 forward #
point $-1 -46.650979928644034 32.519952872373018 15.553941072196636 #
coedge $-1 $631 $438 $627 $632 forward $339 $-1 #
coedge $-1 $439 $633 $634 $635 forward $339 $-1 #
coedge $-1 $634 $636 $441 $535 reversed $637 $-1 #
edge $-1 $536 $638 $534 $639 forward #
vertex $-1 $635 $640 #
straight-curve $-1 0 46.012367364480383 15.553941072196633 -1 0 0 I I #
plane-surface $-1 77.731864375743896 0 0 -1 0 0 0 0 1 forward_v I I I I #
coedge $-1 $548 $449 $450 $541 reversed $358 $-1 #
edge $-1 $464 $544 $463 $641 forward #
edge $-1 $542 $544 $539 $642 forward #
vertex $-1 $541 $643 #
straight-curve $-1 0 -46.012367364480383 -15.553941072196633 -1 0 0 I I #
vertex $-1 $453 $644 #
straight-curve $-1 0 46.012367364480383 -15.553941072196633 1 0 0 I I #
point $-1 77.731864375743896 46.012367364480383 -15.553941072196633 #
point $-1 77.731864375743896 -46.012367364480383 -15.553941072196633 #
coedge $-1 $457 $539 $459 $550 reversed $358 $-1 #
straight-curve $-1 -77.731864375743896 0 15.553941072196633 0 -1 0 I I #
edge $-1 $460 $542 $548 $645 forward #
point $-1 -77.731864375743896 -46.012367364480383 15.553941072196633 #
point $-1 -77.731864375743896 46.012367364480383 15.553941072196633 #
straight-curve $-1 77.731864375743896 46.012367364480383 0 0 0 -1 I I #
face $-1 $646 $647 $25 $-1 $648 reversed single #
loop $-1 $-1 $649 $468 #
plane-surface $-1 -77.731864375743896 0 0 1 0 0 0 0 -1 forward_v I I I I #
coedge $-1 $650 $470 $570 $651 forward $382 $-1 #
coedge $-1 $470 $650 $652 $653 forward $382 $-1 #
coedge $-1 $575 $571 $470 $560 reversed $576 $-1 #
edge $-1 $654 $655 $559 $656 forward #
coedge $-1 $471 $482 $657 $658 forward $302 $-1 #
coedge $-1 $659 $472 $471 $563 reversed $395 $-1 #
edge $-1 $660 $475 $562 $486 forward #
vertex $-1 $479 $661 #
straight-curve $-1 13.785830835418025 -46.012367364480383 60.37208528300711 0 0 1 I I #
straight-curve $-1 13.785830835418025 -46.012367364480383 1.6520460799985273 0 0.76604443648966558 0.64278761758704617 I I #
point $-1 13.785830835418025 -46.012367364480383 15.553941072196633 #
point $-1 13.785830835418025 -29.444734410669238 15.553941072196633 #
straight-curve $-1 15.381931503264013 -46.012367364480383 1.6520460799985259 -1 0 0 I I #
coedge $-1 $481 $659 $557 $651 reversed $395 $-1 #
coedge $-1 $559 $483 $481 $572 forward $576 $-1 #
edge $-1 $485 $655 $571 $662 forward #
coedge $-1 $663 $664 $482 $574 reversed $647 $-1 #
edge $-1 $577 $665 $573 $666 forward #
coedge $-1 $483 $559 $663 $667 reversed $576 $-1 #
loop $-1 $-1 $571 $646 #
vertex $-1 $484 $668 #
straight-curve $-1 77.731864375743896 0 15.553941072196633 0 1 0 I I #
point $-1 77.731864375743896 -46.012367364480383 15.553941072196633 #
face $-1 $669 $497 $27 $-1 $670 reversed single #
loop $-1 $-1 $600 $487 #
plane-surface $-1 13.785830835418025 -145.94252718984799 120.74417056601422 1 0 0 0 0.64278761758704617 -0.76604443648966558 forward_v I I I I #
loop $-1 $-1 $671 $402 #
coedge $-1 $585 $490 $672 $673 forward $403 $-1 #
coedge $-1 $490 $584 $605 $674 reversed $403 $-1 #
edge $-1 $675 $607 $510 $676 forward #
edge $-1 $677 $677 $491 $-1 forward #
vertex $-1 $492 $678 #
ellipse-curve $-1 30.763863006528027 -35.579144580271887 6.0414309410764853 0 -0.64278761758704617 0.76604443648966558 3 0 0 1 I I #
point $-1 33.763863006528027 -37.728550887574812 8.60299357609758 #
coedge $-1 $496 $495 $594 $679 forward $497 $-1 #
vertex $-1 $499 $680 #
straight-curve $-1 -77.731864375743896 0 -15.553941072196633 0 1 0 I I #
coedge $-1 $606 $501 $591 $679 reversed $595 $-1 #
loop $-1 $-1 $602 $669 #
straight-curve $-1 -77.731864375743896 -46.012367364480383 0 0 0 -1 I I #
point $-1 -77.731864375743896 -46.012367364480383 15.553941072196633 #
plane-surface $-1 77.731864375743896 0 0 -1 0 0 0 0 1 forward_v I I I I #
coedge $-1 $510 $507 $671 $681 forward $155 $-1 #
coedge $-1 $682 $683 $507 $601 reversed $581 $-1 #
edge $-1 $603 $684 $507 $685 forward #
coedge $-1 $508 $686 $682 $687 forward $595 $-1 #
vertex $-1 $687 $688 #
straight-curve $-1 0 -46.012367364480383 15.553941072196633 1 0 0 I I #
coedge $-1 $686 $511 $585 $674 forward $595 $-1 #
coedge $-1 $511 $594 $513 $608 reversed $595 $-1 #
vertex $-1 $512 $689 #
edge $-1 $514 $610 $513 $690 forward #
point $-1 77.731864375743896 -46.012367364480383 15.553941072196633 #
vertex $-1 $608 $691 #
straight-curve $-1 77.731864375743896 0 -15.553941072196633 0 -1 0 I I #
face $-1 $692 $693 $29 $-1 $694 forward single #
loop $-1 $-1 $695 $518 #
plane-surface $-1 47.741895177638028 -145.94252718984799 120.74417056601422 -1 0 0 0 -0.64278761758704617 0.76604443648966558 forward_v I I I I #
loop $-1 $-1 $696 $429 #
coedge $-1 $616 $616 $617 $697 forward $519 $-1 #
coedge $-1 $617 $617 $616 $697 reversed $521 $-1 #
coedge $-1 $618 $618 $522 $619 forward $693 $-1 #
edge $-1 $698 $698 $618 $699 forward #
coedge $-1 $700 $701 $523 $621 forward $702 $-1 #
edge $-1 $624 $638 $523 $703 forward #
coedge $-1 $704 $524 $701 $705 reversed $623 $-1 #
loop $-1 $-1 $528 $706 #
vertex $-1 $621 $707 #
straight-curve $-1 -77.731864375743896 46.012367364480383 0 0 0 -1 I I #
point $-1 -77.731864375743896 46.012367364480383 5.7511279468594498 #
coedge $-1 $528 $704 $532 $632 reversed $623 $-1 #
vertex $-1 $632 $708 #
straight-curve $-1 -77.731864375743896 -4.9027501028353164 42.743126827315692 0 0.80901698891910034 -0.5877852598018023 I I #
straight-curve $-1 -31.095711076096983 32.519952872373018 15.553941072196636 -1 0 0 I I #
coedge $-1 $709 $532 $710 $711 forward $339 $-1 #
edge $-1 $628 $712 $627 $713 forward #
coedge $-1 $533 $714 $715 $716 forward $339 $-1 #
coedge $-1 $717 $534 $533 $635 reversed $637 $-1 #
edge $-1 $718 $536 $634 $719 forward #
coedge $-1 $534 $717 $700 $720 reversed $637 $-1 #
loop $-1 $-1 $717 $721 #
vertex $-1 $720 $722 #
straight-curve $-1 77.731864375743896 46.012367364480383 0 0 0 -1 I I #
point $-1 77.731864375743896 46.012367364480383 15.553941072196633 #
straight-curve $-1 -77.731864375743896 46.012367364480383 0 0 0 -1 I I #
straight-curve $-1 -77.731864375743896 0 -15.553941072196633 0 1 0 I I #
point $-1 -77.731864375743896 -46.012367364480383 -15.553941072196633 #
point $-1 -77.731864375743896 46.012367364480383 -15.553941072196633 #
straight-curve $-1 -77.731864375743896 -46.012367364480383 0 0 0 -1 I I #
face $-1 $-1 $576 $25 $-1 $723 reversed single #
loop $-1 $-1 $663 $554 #
plane-surface $-1 0 46.012367364480383 0 0 -1 0 0 0 -1 forward_v I I I I #
coedge $-1 $724 $657 $664 $725 forward $555 $-1 #
coedge $-1 $558 $557 $724 $726 forward $382 $-1 #
edge $-1 $655 $727 $570 $728 forward #
coedge $-1 $664 $663 $558 $653 reversed $647 $-1 #
edge $-1 $729 $654 $652 $730 forward #
vertex $-1 $560 $731 #
vertex $-1 $572 $732 #
straight-curve $-1 77.731864375743896 0 -15.553941072196633 0 -1 0 I I #
coedge $-1 $649 $733 $561 $658 reversed $555 $-1 #
edge $-1 $665 $660 $657 $734 forward #
coedge $-1 $570 $562 $733 $735 forward $395 $-1 #
vertex $-1 $658 $736 #
point $-1 13.785830835418025 -46.012367364480383 1.6520460799985273 #
straight-curve $-1 77.731864375743896 -46.012367364480383 0 0 0 -1 I I #
coedge $-1 $652 $573 $575 $667 forward $647 $-1 #
coedge $-1 $573 $652 $649 $725 reversed $647 $-1 #
vertex $-1 $574 $737 #
straight-curve $-1 0 46.012367364480383 15.553941072196633 -1 0 0 I I #
edge $-1 $577 $654 $575 $738 forward #
point $-1 77.731864375743896 46.012367364480383 15.553941072196633 #
face $-1 $418 $595 $27 $-1 $739 reversed single #
plane-surface $-1 0 0 -15.553941072196633 0 0 1 1 0 0 forward_v I I I I #
coedge $-1 $740 $672 $599 $681 reversed $583 $-1 #
coedge $-1 $671 $741 $584 $673 reversed $583 $-1 #
edge $-1 $675 $742 $584 $743 forward #
edge $-1 $607 $742 $605 $744 forward #
vertex $-1 $681 $745 #
straight-curve $-1 47.741895177638028 -72.971263594923997 15.553941072196636 0 -1 0 I I #
vertex $-1 $587 $746 #
point $-1 33.763863006528027 -35.579144580271887 6.0414309410764853 #
edge $-1 $610 $592 $594 $747 forward #
point $-1 -77.731864375743896 -46.012367364480383 -15.553941072196633 #
edge $-1 $684 $675 $599 $748 forward #
coedge $-1 $683 $600 $602 $687 reversed $581 $-1 #
coedge $-1 $600 $682 $740 $749 forward $581 $-1 #
vertex $-1 $681 $750 #
straight-curve $-1 13.785830835418025 -72.971263594923997 15.553941072196636 0 1 0 I I #
coedge $-1 $602 $605 $741 $751 forward $595 $-1 #
edge $-1 $752 $603 $602 $753 forward #
point $-1 13.785830835418025 -46.012367364480383 15.553941072196633 #
point $-1 47.741895177638028 -46.012367364480383 15.553941072196633 #
straight-curve $-1 77.731864375743896 -46.012367364480383 0 0 0 -1 I I #
point $-1 77.731864375743896 -46.012367364480383 -15.553941072196633 #
face $-1 $754 $755 $29 $-1 $756 forward single #
loop $-1 $757 $618 $612 #
plane-surface $-1 30.763863006528027 -46.012367364480383 1.6520460799985273 0 -0.64278761758704617 0.76604443648966558 1 0 0 forward_v I I I I #
coedge $-1 $758 $759 $714 $760 reversed $613 $-1 #
coedge $-1 $696 $696 $-1 $761 forward $615 $-1 #
edge $-1 $762 $762 $616 $763 forward #
vertex $-1 $619 $764 #
ellipse-curve $-1 30.763863006528027 -37.728550887574812 8.6029935760975782 0 0.64278761758704617 -0.76604443648966558 3 0 0 1 I I #
coedge $-1 $765 $620 $636 $720 forward $702 $-1 #
coedge $-1 $620 $765 $622 $705 forward $702 $-1 #
loop $-1 $-1 $700 $754 #
straight-curve $-1 0 46.012367364480383 -15.553941072196633 1 0 0 I I #
coedge $-1 $627 $622 $766 $767 reversed $623 $-1 #
edge $-1 $768 $624 $622 $769 forward #
face $-1 $721 $623 $29 $-1 $770 reversed single #
point $-1 -77.731864375743896 46.012367364480383 -15.553941072196633 #
point $-1 -77.731864375743896 32.519952872373018 15.553941072196636 #
coedge $-1 $771 $631 $772 $773 forward $339 $-1 #
coedge $-1 $766 $774 $631 $711 reversed $775 $-1 #
edge $-1 $712 $776 $710 $777 forward #
vertex $-1 $632 $778 #
straight-curve $-1 -77.731864375743896 0 15.553941072196633 0 -1 0 I I #
coedge $-1 $633 $771 $695 $760 forward $339 $-1 #
coedge $-1 $779 $780 $633 $716 reversed $775 $-1 #
edge $-1 $781 $718 $715 $777 forward #
coedge $-1 $636 $634 $780 $782 forward $637 $-1 #
vertex $-1 $635 $783 #
straight-curve $-1 77.731864375743896 0 15.553941072196633 0 1 0 I I #
edge $-1 $638 $784 $636 $785 forward #
face $-1 $-1 $637 $29 $-1 $786 reversed single #
point $-1 77.731864375743896 46.012367364480383 -15.553941072196633 #
plane-surface $-1 77.731864375743896 0 0 -1 0 0 0 0 1 forward_v I I I I #
coedge $-1 $733 $649 $650 $726 reversed $555 $-1 #
edge $-1 $665 $729 $664 $787 forward #
edge $-1 $727 $729 $724 $788 forward #
vertex $-1 $726 $789 #
straight-curve $-1 0 -46.012367364480383 -15.553941072196633 -1 0 0 I I #
vertex $-1 $653 $790 #
straight-curve $-1 0 46.012367364480383 -15.553941072196633 1 0 0 I I #
point $-1 77.731864375743896 46.012367364480383 -15.553941072196633 #
point $-1 77.731864375743896 -46.012367364480383 -15.553941072196633 #
coedge $-1 $657 $724 $659 $735 reversed $555 $-1 #
straight-curve $-1 -77.731864375743896 0 15.553941072196633 0 -1 0 I I #
edge $-1 $660 $727 $733 $791 forward #
point $-1 -77.731864375743896 -46.012367364480383 15.553941072196633 #
point $-1 -77.731864375743896 46.012367364480383 15.553941072196633 #
straight-curve $-1 77.731864375743896 46.012367364480383 0 0 0 -1 I I #
plane-surface $-1 0 -46.012367364480383 0 0 1 0 0 0 1 forward_v I I I I #
coedge $-1 $741 $671 $683 $749 reversed $583 $-1 #
coedge $-1 $672 $740 $686 $751 reversed $583 $-1 #
vertex $-1 $751 $792 #
straight-curve $-1 47.741895177638028 -46.012367364480383 1.6520460799985273 0 -0.76604443648966558 -0.64278761758704617 I I #
straight-curve $-1 47.741895177638028 -46.012367364480383 60.37208528300711 0 0 -1 I I #
point $-1 47.741895177638028 -29.444734410669238 15.553941072196633 #
point $-1 30.763863006528027 -33.650781727510747 3.7432976316074891 #
straight-curve $-1 0 -46.012367364480383 -15.553941072196633 -1 0 0 I I #
straight-curve $-1 15.381931503264013 -29.444734410669241 15.553941072196633 1 0 0 I I #
edge $-1 $752 $684 $683 $793 forward #
point $-1 13.785830835418025 -29.444734410669238 15.553941072196633 #
edge $-1 $742 $752 $686 $794 forward #
vertex $-1 $751 $795 #
straight-curve $-1 13.785830835418025 -46.012367364480383 60.37208528300711 0 0 1 I I #
face $-1 $796 $702 $29 $-1 $797 reversed single #
loop $-1 $-1 $772 $692 #
plane-surface $-1 13.785830835418025 -145.94252718984799 120.74417056601422 1 0 0 0 0.64278761758704617 -0.76604443648966558 forward_v I I I I #
loop $-1 $-1 $798 $612 #
coedge $-1 $759 $695 $799 $800 forward $613 $-1 #
coedge $-1 $695 $758 $779 $801 reversed $613 $-1 #
edge $-1 $802 $781 $714 $803 forward #
edge $-1 $804 $804 $696 $-1 forward #
vertex $-1 $697 $805 #
ellipse-curve $-1 30.763863006528027 -35.579144580271887 6.0414309410764853 0 -0.64278761758704617 0.76604443648966558 3 0 0 1 I I #
point $-1 33.763863006528027 -37.728550887574812 8.60299357609758 #
coedge $-1 $701 $700 $806 $807 forward $702 $-1 #
coedge $-1 $806 $710 $704 $767 forward $775 $-1 #
edge $-1 $712 $768 $704 $808 forward #
vertex $-1 $705 $809 #
straight-curve $-1 -77.731864375743896 0 -15.553941072196633 0 1 0 I I #
plane-surface $-1 -77.731864375743896 0 0 1 0 0 0 0 -1 forward_v I I I I #
coedge $-1 $714 $709 $798 $810 forward $339 $-1 #
coedge $-1 $811 $812 $709 $773 reversed $755 $-1 #
edge $-1 $776 $813 $709 $814 forward #
coedge $-1 $710 $815 $811 $816 forward $775 $-1 #
loop $-1 $-1 $774 $796 #
vertex $-1 $816 $817 #
straight-curve $-1 0 -46.012367364480383 15.553941072196633 1 0 0 I I #
point $-1 -77.731864375743896 -46.012367364480383 15.553941072196633 #
coedge $-1 $815 $715 $759 $801 forward $775 $-1 #
coedge $-1 $715 $806 $717 $782 reversed $775 $-1 #
vertex $-1 $716 $818 #
edge $-1 $718 $784 $717 $819 forward #
point $-1 77.731864375743896 -46.012367364480383 15.553941072196633 #
vertex $-1 $782 $820 #
straight-curve $-1 77.731864375743896 0 -15.553941072196633 0 -1 0 I I #
plane-surface $-1 77.731864375743896 0 0 -1 0 0 0 0 1 forward_v I I I I #
straight-curve $-1 -77.731864375743896 46.012367364480383 0 0 0 -1 I I #
straight-curve $-1 -77.731864375743896 0 -15.553941072196633 0 1 0 I I #
point $-1 -77.731864375743896 -46.012367364480383 -15.553941072196633 #
point $-1 -77.731864375743896 46.012367364480383 -15.553941072196633 #
straight-curve $-1 -77.731864375743896 -46.012367364480383 0 0 0 -1 I I #
point $-1 47.741895177638028 -46.012367364480383 1.6520460799985273 #
straight-curve $-1 13.785830835418025 -46.012367364480383 1.6520460799985273 0 0.76604443648966558 0.64278761758704617 I I #
straight-curve $-1 15.381931503264013 -46.012367364480383 1.6520460799985259 -1 0 0 I I #
point $-1 13.785830835418025 -46.012367364480383 1.6520460799985273 #
face $-1 $706 $775 $29 $-1 $821 reversed single #
plane-surface $-1 0 0 -15.553941072196633 0 0 1 1 0 0 forward_v I I I I #
coedge $-1 $822 $799 $771 $810 reversed $757 $-1 #
coedge $-1 $798 $823 $758 $800 reversed $757 $-1 #
edge $-1 $802 $824 $758 $825 forward #
edge $-1 $781 $824 $779 $826 forward #
vertex $-1 $810 $827 #
straight-curve $-1 47.741895177638028 -72.971263594923997 15.553941072196636 0 -1 0 I I #
vertex $-1 $761 $828 #
point $-1 33.763863006528027 -35.579144580271887 6.0414309410764853 #
coedge $-1 $780 $766 $765 $807 reversed $775 $-1 #
edge $-1 $784 $768 $806 $829 forward #
straight-curve $-1 -77.731864375743896 -46.012367364480383 0 0 0 -1 I I #
point $-1 -77.731864375743896 -46.012367364480383 -15.553941072196633 #
edge $-1 $813 $802 $771 $830 forward #
coedge $-1 $812 $772 $774 $816 reversed $755 $-1 #
coedge $-1 $772 $811 $822 $831 forward $755 $-1 #
vertex $-1 $810 $832 #
straight-curve $-1 13.785830835418025 -72.971263594923997 15.553941072196636 0 1 0 I I #
coedge $-1 $774 $779 $823 $833 forward $775 $-1 #
edge $-1 $834 $776 $774 $835 forward #
point $-1 13.785830835418025 -46.012367364480383 15.553941072196633 #
point $-1 47.741895177638028 -46.012367364480383 15.553941072196633 #
straight-curve $-1 77.731864375743896 -46.012367364480383 0 0 0 -1 I I #
point $-1 77.731864375743896 -46.012367364480383 -15.553941072196633 #
plane-surface $-1 0 -46.012367364480383 0 0 1 0 0 0 1 forward_v I I I I #
coedge $-1 $823 $798 $812 $831 reversed $757 $-1 #
coedge $-1 $799 $822 $815 $833 reversed $757 $-1 #
vertex $-1 $833 $836 #
straight-curve $-1 47.741895177638028 -46.012367364480383 1.6520460799985273 0 -0.76604443648966558 -0.64278761758704617 I I #
straight-curve $-1 47.741895177638028 -46.012367364480383 60.37208528300711 0 0 -1 I I #
point $-1 47.741895177638028 -29.444734410669238 15.553941072196633 #
point $-1 30.763863006528027 -33.650781727510747 3.7432976316074891 #
straight-curve $-1 0 -46.012367364480383 -15.553941072196633 -1 0 0 I I #
straight-curve $-1 15.381931503264013 -29.444734410669241 15.553941072196633 1 0 0 I I #
edge $-1 $834 $813 $812 $837 forward #
point $-1 13.785830835418025 -29.444734410669238 15.553941072196633 #
edge $-1 $824 $834 $815 $838 forward #
vertex $-1 $833 $839 #
straight-curve $-1 13.785830835418025 -46.012367364480383 60.37208528300711 0 0 1 I I #
point $-1 47.741895177638028 -46.012367364480383 1.6520460799985273 #
straight-curve $-1 13.785830835418025 -46.012367364480383 1.6520460799985273 0 0.76604443648966558 0.64278761758704617 I I #
straight-curve $-1 15.381931503264013 -46.012367364480383 1.6520460799985259 -1 0 0 I I #
point $-1 13.785830835418025 -46.012367364480383 1.6520460799985273 #
End-of-ACIS-data 