600 0 7 0           
96 GICL ACIS Healer - Source: /gicl/data5/repository/Drexel/SM99-DATA/part128.smdg.deltas.sat - 6 0 18 ACIS 6.0.3 Solaris 24 Sat Apr 13 20:45:43 2002 
1 9.999999999999999547e-07 1.000000000000000036e-10 
body $-1 $7 $-1 $-1 #
body $-1 $8 $-1 $-1 #
body $-1 $9 $-1 $-1 #
body $-1 $10 $-1 $-1 #
body $-1 $11 $-1 $-1 #
body $-1 $12 $-1 $-1 #
body $-1 $13 $-1 $-1 #
lump $-1 $-1 $14 $0 #
lump $-1 $-1 $15 $1 #
lump $-1 $-1 $16 $2 #
lump $-1 $-1 $17 $3 #
lump $-1 $-1 $18 $4 #
lump $-1 $-1 $19 $5 #
lump $-1 $-1 $20 $6 #
shell $-1 $-1 $-1 $21 $-1 $7 #
shell $-1 $-1 $-1 $22 $-1 $8 #
shell $-1 $-1 $-1 $23 $-1 $9 #
shell $-1 $-1 $-1 $24 $-1 $10 #
shell $-1 $-1 $-1 $25 $-1 $11 #
shell $-1 $-1 $-1 $26 $-1 $12 #
shell $-1 $-1 $-1 $27 $-1 $13 #
face $-1 $28 $29 $14 $-1 $30 forward single #
face $-1 $31 $32 $15 $-1 $33 forward single #
face $-1 $34 $35 $16 $-1 $36 forward single #
face $-1 $37 $38 $17 $-1 $39 reversed single #
face $-1 $40 $41 $18 $-1 $42 forward single #
face $-1 $43 $44 $19 $-1 $45 reversed single #
face $-1 $46 $47 $20 $-1 $48 forward single #
face $-1 $49 $50 $14 $-1 $51 reversed single #
loop $-1 $-1 $52 $21 #
plane-surface $-1 43.79772331919308925 29.77822807075140332 25.98476880951508505 0 0 1 1 0 0 forward_v I I I I #
face $-1 $53 $54 $15 $-1 $55 reversed single #
loop $-1 $-1 $56 $22 #
plane-surface $-1 43.79772331919308925 5.411468666740745448 3.258107933405337775 0 0 1 1 0 0 forward_v I I I I #
face $-1 $57 $58 $16 $-1 $59 reversed single #
loop $-1 $-1 $60 $23 #
plane-surface $-1 43.79772331919308925 54.1449874747620612 3.258107933405337775 0 0 1 1 0 0 forward_v I I I I #
face $-1 $61 $62 $17 $-1 $63 reversed single #
loop $-1 $-1 $64 $24 #
plane-surface $-1 -50.24268477094660312 48.73351880802131575 93.74308704621456911 0 -1 0 0.5735764437432435692 0 -0.819152039112919339 forward_v I I I I #
face $-1 $65 $66 $18 $-1 $67 forward single #
loop $-1 $68 $69 $25 #
cone-surface $-1 3.861763811116318834 45.23501573160967126 22.54656143617251018 0.5735764437432435692 0 -0.819152039112919339 1.228728058669378953 0 0.8603646656148653538 1 I I 0 1 1.5 forward I I I I #
face $-1 $70 $71 $19 $-1 $72 reversed single #
loop $-1 $-1 $73 $26 #
plane-surface $-1 66.08414267849181556 48.73351880802131575 143.9857718171611793 0 -1 0 -0.5735764437432435692 0 -0.819152039112919339 forward_v I I I I #
face $-1 $74 $75 $20 $-1 $76 forward single #
loop $-1 $77 $78 $27 #
cone-surface $-1 83.73368282726985967 45.23501573160967126 22.54656143617251729 -0.5735764437432435692 0 -0.819152039112919339 1.228728058669378953 0 -0.8603646656148653538 1 I I 0 1 1.5 forward I I I I #
face $-1 $79 $80 $14 $-1 $81 reversed single #
loop $-1 $-1 $82 $28 #
plane-surface $-1 43.79772331919308925 29.77822807075140332 0 0 0 1 1 0 0 forward_v I I I I #
coedge $-1 $83 $84 $85 $86 forward $29 $-1 #
face $-1 $87 $88 $15 $-1 $89 reversed single #
loop $-1 $-1 $90 $31 #
plane-surface $-1 43.79772331919308925 10.8229373334814909 1.629053966702668887 0 -1 0 0 0 -1 forward_v I I I I #
coedge $-1 $91 $92 $93 $94 reversed $32 $-1 #
face $-1 $95 $96 $16 $-1 $97 reversed single #
loop $-1 $-1 $98 $34 #
plane-surface $-1 43.79772331919308925 48.73351880802131575 1.629053966702668887 0 1 0 0 0 1 forward_v I I I I #
coedge $-1 $99 $100 $101 $102 reversed $35 $-1 #
face $-1 $103 $104 $17 $-1 $105 reversed single #
loop $-1 $-1 $106 $37 #
plane-surface $-1 0 45.23501573160967126 21.98909831537361015 -0.5735764437432435692 0 0.819152039112919339 0.819152039112919339 0 0.5735764437432435692 forward_v I I I I #
coedge $-1 $107 $108 $109 $110 reversed $38 $-1 #
face $-1 $-1 $111 $18 $-1 $112 forward single #
loop $-1 $113 $114 $40 #
cone-surface $-1 5.300505583937564325 45.23501573160967126 20.49182528056597619 0.5735764437432435692 0 -0.819152039112919339 0.6143640293346894765 0 0.4301823328074326769 1 I I -0.7071067811865475727 0.7071067811865475727 0.75 forward I I I I #
loop $-1 $-1 $115 $25 #
coedge $-1 $69 $69 $116 $117 reversed $41 $-1 #
face $-1 $118 $119 $19 $-1 $120 reversed single #
loop $-1 $-1 $121 $43 #
plane-surface $-1 15.84145790754521244 45.23501573160967126 72.23178308632023459 0.5735764437432435692 0 0.819152039112919339 0.819152039112919339 0 -0.5735764437432435692 forward_v I I I I #
coedge $-1 $122 $123 $124 $125 reversed $44 $-1 #
face $-1 $-1 $126 $20 $-1 $127 forward single #
loop $-1 $128 $129 $46 #
cone-surface $-1 82.29494105444861418 45.23501573160967126 20.49182528056598329 -0.5735764437432435692 0 -0.819152039112919339 0.6143640293346894765 0 -0.4301823328074326769 1 I I -0.7071067811865475727 0.7071067811865475727 0.75 forward I I I I #
loop $-1 $-1 $130 $27 #
coedge $-1 $78 $78 $131 $132 reversed $47 $-1 #
face $-1 $133 $134 $14 $-1 $135 reversed single #
loop $-1 $-1 $136 $49 #
plane-surface $-1 43.79772331919308925 0 12.99238440475754253 0 1 0 0 0 1 forward_v I I I I #
coedge $-1 $137 $138 $139 $140 forward $50 $-1 #
coedge $-1 $141 $52 $142 $143 forward $29 $-1 #
coedge $-1 $52 $141 $144 $145 forward $29 $-1 #
coedge $-1 $146 $147 $52 $86 reversed $148 $-1 #
edge $-1 $149 -29.77822807075140332 $150 29.77822807075140332 $85 $151 forward 7 unknown #
face $-1 $152 $153 $15 $-1 $154 reversed single #
loop $-1 $-1 $155 $53 #
plane-surface $-1 43.79772331919308925 29.77822807075140332 0 0 0 1 1 0 0 forward_v I I I I #
coedge $-1 $156 $157 $158 $159 reversed $54 $-1 #
coedge $-1 $160 $56 $157 $161 forward $32 $-1 #
coedge $-1 $56 $160 $162 $163 reversed $32 $-1 #
coedge $-1 $164 $158 $56 $94 forward $153 $-1 #
edge $-1 $165 6.771911035264583489 $166 17.59484836874607439 $93 $167 forward 7 unknown #
face $-1 $168 $169 $16 $-1 $170 reversed single #
loop $-1 $-1 $101 $57 #
plane-surface $-1 87.59544663838617851 29.77822807075140332 12.99238440475754253 -1 0 0 0 0 1 forward_v I I I I #
coedge $-1 $171 $172 $173 $174 reversed $58 $-1 #
coedge $-1 $175 $60 $176 $177 reversed $35 $-1 #
coedge $-1 $60 $175 $172 $178 forward $35 $-1 #
coedge $-1 $179 $180 $60 $102 forward $96 $-1 #
edge $-1 $181 -17.59484836874607083 $182 -6.771911035264579937 $101 $183 forward 7 unknown #
face $-1 $184 $185 $17 $-1 $186 reversed single #
loop $-1 $-1 $187 $61 #
plane-surface $-1 -50.24268477094660312 41.73651265519802678 93.74308704621456911 0 1 0 -0.5735764437432435692 0 0.819152039112919339 forward_v I I I I #
coedge $-1 $188 $189 $190 $191 reversed $62 $-1 #
coedge $-1 $108 $64 $192 $193 reversed $38 $-1 #
coedge $-1 $64 $107 $188 $194 reversed $38 $-1 #
coedge $-1 $190 $195 $64 $110 forward $185 $-1 #
edge $-1 $196 27.38296691597097166 $197 31.37863741011244656 $109 $198 forward 7 unknown #
loop $-1 $-1 $116 $65 #
plane-surface $-1 0 45.23501573160967126 21.98909831537361015 -0.5735764437432435692 0 0.819152039112919339 0.819152039112919339 0 0.5735764437432435692 forward_v I I I I #
loop $-1 $-1 $199 $40 #
coedge $-1 $114 $114 $115 $200 reversed $66 $-1 #
coedge $-1 $115 $115 $114 $200 forward $68 $-1 #
coedge $-1 $116 $116 $69 $117 forward $111 $-1 #
edge $-1 $201 0 $201 6.283185307179586232 $116 $202 forward 7 unknown #
face $-1 $203 $204 $19 $-1 $205 forward single #
loop $-1 $-1 $206 $70 #
plane-surface $-1 66.08414267849181556 41.73651265519802678 143.9857718171611793 0 1 0 0.5735764437432435692 0 0.819152039112919339 forward_v I I I I #
coedge $-1 $207 $208 $209 $210 reversed $71 $-1 #
coedge $-1 $123 $73 $211 $212 reversed $44 $-1 #
coedge $-1 $73 $122 $207 $213 reversed $44 $-1 #
coedge $-1 $209 $214 $73 $125 forward $204 $-1 #
edge $-1 $215 -32.65451363954372255 $216 -26.94810489733869474 $124 $217 forward 7 unknown #
loop $-1 $-1 $131 $74 #
plane-surface $-1 15.84145790754521244 45.23501573160967126 72.23178308632023459 0.5735764437432435692 0 0.819152039112919339 0.819152039112919339 0 -0.5735764437432435692 forward_v I I I I #
loop $-1 $-1 $218 $46 #
coedge $-1 $129 $129 $130 $219 reversed $75 $-1 #
coedge $-1 $130 $130 $129 $219 forward $77 $-1 #
coedge $-1 $131 $131 $78 $132 forward $126 $-1 #
edge $-1 $220 0 $220 6.283185307179586232 $131 $221 forward 7 unknown #
face $-1 $222 $223 $14 $-1 $224 reversed single #
loop $-1 $-1 $225 $79 #
plane-surface $-1 0 29.77822807075140332 12.99238440475754253 1 0 0 0 0 -1 forward_v I I I I #
coedge $-1 $226 $144 $227 $228 forward $80 $-1 #
coedge $-1 $229 $82 $226 $230 forward $50 $-1 #
coedge $-1 $82 $229 $231 $232 forward $50 $-1 #
coedge $-1 $147 $146 $82 $140 reversed $148 $-1 #
edge $-1 $233 -29.77822807075140332 $234 29.77822807075140332 $139 $235 forward 7 unknown #
coedge $-1 $84 $83 $236 $237 forward $29 $-1 #
coedge $-1 $238 $239 $83 $143 reversed $223 $-1 #
edge $-1 $150 -43.79772331919308925 $240 43.79772331919308925 $142 $241 forward 7 unknown #
coedge $-1 $136 $242 $84 $145 reversed $80 $-1 #
edge $-1 $243 -43.79772331919308925 $149 43.79772331919308925 $144 $244 forward 7 unknown #
coedge $-1 $139 $85 $242 $245 forward $148 $-1 #
coedge $-1 $85 $139 $238 $246 reversed $148 $-1 #
loop $-1 $-1 $146 $222 #
vertex $-1 $86 $247 #
vertex $-1 $86 $248 #
straight-curve $-1 87.59544663838617851 29.77822807075140332 25.98476880951508505 0 1 0 I I #
face $-1 $249 $250 $15 $-1 $251 reversed single #
loop $-1 $-1 $158 $87 #
plane-surface $-1 87.59544663838617851 29.77822807075140332 12.99238440475754253 -1 0 0 0 0 1 forward_v I I I I #
coedge $-1 $252 $253 $156 $254 forward $88 $-1 #
coedge $-1 $255 $90 $155 $254 reversed $54 $-1 #
coedge $-1 $90 $255 $91 $161 reversed $54 $-1 #
coedge $-1 $93 $256 $90 $159 forward $153 $-1 #
edge $-1 $257 -7.310719185730105707 $165 -4.052611252324767932 $158 $258 forward 7 unknown #
coedge $-1 $92 $91 $259 $260 reversed $32 $-1 #
edge $-1 $165 -43.79772331919308925 $261 43.79772331919308925 $157 $262 forward 7 unknown #
coedge $-1 $263 $264 $92 $163 forward $250 $-1 #
edge $-1 $166 -43.79772331919308925 $265 43.79772331919308925 $162 $266 forward 7 unknown #
coedge $-1 $256 $93 $264 $267 forward $153 $-1 #
vertex $-1 $94 $268 #
vertex $-1 $267 $269 #
straight-curve $-1 87.59544663838617851 17.59484836874607439 3.258107933405337775 0 -1 0 I I #
face $-1 $270 $271 $16 $-1 $272 reversed single #
loop $-1 $-1 $273 $95 #
plane-surface $-1 43.79772331919308925 29.77822807075140332 0 0 0 1 1 0 0 forward_v I I I I #
coedge $-1 $274 $98 $273 $275 reversed $58 $-1 #
coedge $-1 $98 $274 $100 $178 reversed $58 $-1 #
coedge $-1 $276 $277 $98 $174 forward $271 $-1 #
edge $-1 $278 -7.310719185730105707 $279 -4.052611252324767932 $173 $280 forward 7 unknown #
coedge $-1 $100 $99 $276 $281 reversed $35 $-1 #
coedge $-1 $282 $283 $99 $177 forward $284 $-1 #
edge $-1 $285 -43.79772331919308925 $181 43.79772331919308925 $176 $286 forward 7 unknown #
edge $-1 $279 -43.79772331919308925 $182 43.79772331919308925 $172 $287 forward 7 unknown #
coedge $-1 $288 $101 $274 $289 forward $96 $-1 #
coedge $-1 $101 $288 $282 $290 reversed $96 $-1 #
vertex $-1 $290 $291 #
vertex $-1 $102 $292 #
straight-curve $-1 87.59544663838617851 41.96160777275673581 3.258107933405337775 0 -1 0 I I #
face $-1 $-1 $293 $17 $-1 $294 forward single #
loop $-1 $-1 $109 $103 #
plane-surface $-1 0 29.77822807075140332 12.99238440475754253 1 0 0 0 0 -1 forward_v I I I I #
coedge $-1 $295 $296 $297 $298 reversed $104 $-1 #
coedge $-1 $299 $106 $108 $194 forward $62 $-1 #
coedge $-1 $106 $299 $295 $300 forward $62 $-1 #
coedge $-1 $297 $109 $106 $191 forward $185 $-1 #
edge $-1 $197 -11.22689690684077846 $301 -4.229890754017489485 $190 $302 forward 7 unknown #
coedge $-1 $303 $304 $107 $193 forward $293 $-1 #
edge $-1 $305 -8.928889468081784742 $196 -3.222480725876756935 $192 $306 forward 7 unknown #
edge $-1 $197 0 $305 6.966238829588513148 $108 $307 forward 7 unknown #
coedge $-1 $109 $297 $303 $308 reversed $185 $-1 #
vertex $-1 $308 $309 #
vertex $-1 $110 $310 #
straight-curve $-1 0 48.73351880802131575 53.36773572548605671 0 0 -1 I I #
coedge $-1 $199 $199 $-1 $311 reversed $113 $-1 #
edge $-1 $312 0 $312 6.283185307179586232 $114 $313 forward 7 unknown #
vertex $-1 $117 $314 #
ellipse-curve $-1 2.853204371102513903 45.23501573160967126 23.98693356244434227 -0.5735764437432435692 0 0.819152039112919339 1.228728058669378953 0 0.8603646656148653538 1 I I #
face $-1 $-1 $315 $19 $-1 $316 reversed single #
loop $-1 $-1 $124 $118 #
plane-surface $-1 43.79772331919308925 29.77822807075140332 25.98476880951508505 0 0 1 1 0 0 forward_v I I I I #
coedge $-1 $317 $318 $319 $320 reversed $119 $-1 #
coedge $-1 $321 $121 $123 $213 forward $71 $-1 #
coedge $-1 $121 $321 $317 $322 forward $71 $-1 #
coedge $-1 $319 $124 $121 $210 forward $204 $-1 #
edge $-1 $216 -11.22689690684077846 $323 -4.229890754017489485 $209 $324 forward 7 unknown #
coedge $-1 $325 $326 $122 $212 forward $315 $-1 #
edge $-1 $327 -56.49997979558575167 $215 -52.50430930144428032 $211 $328 forward 7 unknown #
edge $-1 $216 80.62920780879767335 $327 87.59544663838619272 $123 $329 forward 7 unknown #
coedge $-1 $124 $319 $325 $330 forward $204 $-1 #
vertex $-1 $125 $331 #
vertex $-1 $125 $332 #
straight-curve $-1 54.94093299884245596 48.73351880802131575 25.98476880951508861 -1 0 0 I I #
coedge $-1 $218 $218 $-1 $333 reversed $128 $-1 #
edge $-1 $334 0 $334 6.283185307179586232 $129 $335 forward 7 unknown #
vertex $-1 $132 $336 #
ellipse-curve $-1 84.74224226728367171 45.23501573160967126 23.98693356244436359 0.5735764437432435692 0 0.819152039112919339 1.228728058669378953 0 -0.8603646656148653538 1 I I #
face $-1 $-1 $148 $14 $-1 $337 reversed single #
loop $-1 $-1 $238 $133 #
plane-surface $-1 43.79772331919308925 59.55645614150280664 12.99238440475754253 0 -1 0 0 0 -1 forward_v I I I I #
coedge $-1 $338 $236 $239 $339 forward $134 $-1 #
coedge $-1 $242 $136 $137 $230 reversed $80 $-1 #
coedge $-1 $236 $338 $136 $228 reversed $134 $-1 #
edge $-1 $243 -12.99238440475754253 $340 12.99238440475754253 $227 $341 forward 7 unknown #
coedge $-1 $138 $137 $338 $342 forward $50 $-1 #
edge $-1 $234 -43.79772331919308925 $340 43.79772331919308925 $226 $343 forward 7 unknown #
coedge $-1 $239 $238 $138 $232 reversed $223 $-1 #
edge $-1 $344 -43.79772331919308925 $233 43.79772331919308925 $231 $345 forward 7 unknown #
vertex $-1 $140 $346 #
vertex $-1 $245 $347 #
straight-curve $-1 87.59544663838617851 29.77822807075140332 0 0 -1 0 I I #
coedge $-1 $225 $227 $141 $237 reversed $134 $-1 #
edge $-1 $240 -29.77822807075140332 $243 29.77822807075140332 $236 $348 forward 7 unknown #
coedge $-1 $231 $142 $147 $246 forward $223 $-1 #
coedge $-1 $142 $231 $225 $339 reversed $223 $-1 #
vertex $-1 $143 $349 #
straight-curve $-1 43.79772331919308925 59.55645614150280664 25.98476880951508505 -1 0 0 I I #
coedge $-1 $144 $226 $146 $245 reversed $80 $-1 #
vertex $-1 $237 $350 #
straight-curve $-1 43.79772331919308925 0 25.98476880951508505 1 0 0 I I #
edge $-1 $149 -12.99238440475754253 $234 12.99238440475754253 $146 $351 forward 7 unknown #
edge $-1 $150 -12.99238440475754253 $233 12.99238440475754253 $147 $352 forward 7 unknown #
point $-1 87.59544663838617851 0 25.98476880951508505 #
point $-1 87.59544663838617851 59.55645614150280664 25.98476880951508505 #
face $-1 $-1 $353 $15 $-1 $354 reversed single #
loop $-1 $-1 $162 $152 #
plane-surface $-1 43.79772331919308925 0 12.99238440475754253 0 1 0 0 0 1 forward_v I I I I #
coedge $-1 $355 $155 $256 $356 forward $88 $-1 #
coedge $-1 $155 $355 $357 $358 forward $88 $-1 #
edge $-1 $359 -43.79772331919308925 $257 43.79772331919308925 $155 $360 forward 7 unknown #
coedge $-1 $157 $156 $361 $362 reversed $54 $-1 #
coedge $-1 $158 $164 $252 $356 reversed $153 $-1 #
vertex $-1 $356 $363 #
straight-curve $-1 87.59544663838617851 10.8229373334814909 7.310719185730105707 0 0 1 I I #
coedge $-1 $361 $364 $160 $260 forward $353 $-1 #
edge $-1 $265 -17.59484836874607439 $261 -6.771911035264583489 $259 $365 forward 7 unknown #
vertex $-1 $260 $366 #
straight-curve $-1 43.79772331919308925 10.8229373334814909 3.258107933405337775 -1 0 0 I I #
coedge $-1 $367 $162 $364 $368 forward $250 $-1 #
coedge $-1 $162 $367 $164 $267 reversed $250 $-1 #
vertex $-1 $368 $369 #
straight-curve $-1 43.79772331919308925 0 3.258107933405337775 -1 0 0 I I #
edge $-1 $166 9.734276471352204751 $370 12.99238440475754253 $164 $371 forward 7 unknown #
point $-1 87.59544663838617851 10.8229373334814909 3.258107933405337775 #
point $-1 87.59544663838617851 0 3.258107933405337775 #
face $-1 $-1 $284 $16 $-1 $372 reversed single #
loop $-1 $-1 $276 $168 #
plane-surface $-1 0 29.77822807075140332 12.99238440475754253 1 0 0 0 0 -1 forward_v I I I I #
coedge $-1 $373 $374 $171 $275 forward $169 $-1 #
coedge $-1 $172 $171 $179 $289 reversed $58 $-1 #
edge $-1 $375 -43.79772331919308925 $278 43.79772331919308925 $273 $376 forward 7 unknown #
coedge $-1 $377 $173 $175 $281 forward $271 $-1 #
coedge $-1 $173 $377 $373 $378 reversed $271 $-1 #
vertex $-1 $378 $379 #
vertex $-1 $281 $380 #
straight-curve $-1 0 48.73351880802131575 7.310719185730105707 0 0 1 I I #
edge $-1 $279 6.771911035264579937 $285 17.59484836874607083 $276 $381 forward 7 unknown #
coedge $-1 $382 $176 $180 $290 forward $284 $-1 #
coedge $-1 $176 $382 $377 $383 reversed $284 $-1 #
loop $-1 $-1 $176 $270 #
vertex $-1 $383 $384 #
straight-curve $-1 43.79772331919308925 59.55645614150280664 3.258107933405337775 1 0 0 I I #
straight-curve $-1 43.79772331919308925 48.73351880802131575 3.258107933405337775 1 0 0 I I #
coedge $-1 $180 $179 $374 $385 reversed $96 $-1 #
edge $-1 $182 4.052611252324767932 $375 7.310719185730105707 $179 $386 forward 7 unknown #
edge $-1 $181 9.734276471352204751 $387 12.99238440475754253 $180 $388 forward 7 unknown #
point $-1 87.59544663838617851 59.55645614150280664 3.258107933405337775 #
point $-1 87.59544663838617851 48.73351880802131575 3.258107933405337775 #
loop $-1 $-1 $192 $184 #
plane-surface $-1 43.79772331919308925 29.77822807075140332 25.98476880951508505 0 0 1 1 0 0 forward_v I I I I #
coedge $-1 $296 $187 $189 $300 reversed $104 $-1 #
coedge $-1 $187 $295 $389 $390 reversed $104 $-1 #
coedge $-1 $195 $190 $187 $298 forward $185 $-1 #
edge $-1 $301 -31.37863741011244656 $391 -27.38296691597097166 $297 $392 forward 7 unknown #
coedge $-1 $189 $188 $304 $393 reversed $62 $-1 #
edge $-1 $394 -6.966238829588513148 $301 0 $295 $395 forward 7 unknown #
vertex $-1 $191 $396 #
straight-curve $-1 0 37.50662190118053729 21.98909831537361015 0 -1 0 I I #
coedge $-1 $389 $192 $195 $308 forward $293 $-1 #
coedge $-1 $192 $389 $299 $393 forward $293 $-1 #
vertex $-1 $193 $397 #
straight-curve $-1 -3.222480725876756935 48.73351880802131575 25.98476880951508861 -1 0 0 I I #
straight-curve $-1 0 48.73351880802131575 21.98909831537361015 0.819152039112919339 0 0.5735764437432435692 I I #
edge $-1 $196 -18.95529073726991243 $391 -11.95828458444662346 $195 $398 forward 7 unknown #
point $-1 0 48.73351880802131575 25.98476880951508505 #
point $-1 0 48.73351880802131575 21.98909831537361015 #
edge $-1 $399 1 $399 0 $199 $-1 forward 7 unknown #
vertex $-1 $200 $400 #
ellipse-curve $-1 4.87032325113013087 45.23501573160967126 21.10618930990066389 -0.5735764437432435692 0 0.819152039112919339 1.228728058669378953 0 0.8603646656148653538 1 I I #
point $-1 4.081932429771889304 45.23501573160967126 24.84729822805921629 #
loop $-1 $-1 $211 $203 #
plane-surface $-1 87.59544663838617851 29.77822807075140332 12.99238440475754253 -1 0 0 0 0 1 forward_v I I I I #
coedge $-1 $318 $206 $208 $322 reversed $119 $-1 #
coedge $-1 $206 $317 $401 $402 reversed $119 $-1 #
coedge $-1 $214 $209 $206 $320 forward $204 $-1 #
edge $-1 $323 26.94810489733869474 $403 32.65451363954372255 $319 $404 forward 7 unknown #
coedge $-1 $208 $207 $326 $405 reversed $71 $-1 #
edge $-1 $406 -87.59544663838619272 $323 -80.62920780879767335 $317 $407 forward 7 unknown #
vertex $-1 $210 $408 #
straight-curve $-1 81.8890378961811507 37.50662190118053729 25.98476880951508861 0 -1 0 I I #
coedge $-1 $401 $211 $214 $330 reversed $315 $-1 #
coedge $-1 $211 $401 $321 $405 forward $315 $-1 #
vertex $-1 $212 $409 #
straight-curve $-1 87.59544663838617851 48.73351880802131575 78.48907811095936893 0 0 1 I I #
straight-curve $-1 15.84145790754521244 48.73351880802131575 72.23178308632023459 0.819152039112919339 0 -0.5735764437432435692 I I #
edge $-1 $403 11.95828458444662346 $215 18.95529073726991243 $325 $410 forward 7 unknown #
point $-1 87.59544663838617851 48.73351880802131575 25.98476880951508505 #
point $-1 81.8890378961811507 48.73351880802131575 25.98476880951509571 #
edge $-1 $411 1 $411 0 $218 $-1 forward 7 unknown #
vertex $-1 $219 $412 #
ellipse-curve $-1 82.72512338725604764 45.23501573160967126 21.10618930990067099 0.5735764437432435692 0 0.819152039112919339 1.228728058669378953 0 -0.8603646656148653538 1 I I #
point $-1 85.97097032595306132 45.23501573160967126 23.12656889682949668 #
plane-surface $-1 87.59544663838617851 29.77822807075140332 12.99238440475754253 -1 0 0 0 0 1 forward_v I I I I #
coedge $-1 $227 $225 $229 $342 reversed $134 $-1 #
edge $-1 $240 -12.99238440475754253 $344 12.99238440475754253 $239 $413 forward 7 unknown #
vertex $-1 $342 $414 #
straight-curve $-1 0 0 12.99238440475754253 0 0 -1 I I #
edge $-1 $340 -29.77822807075140332 $344 29.77822807075140332 $338 $415 forward 7 unknown #
straight-curve $-1 43.79772331919308925 0 0 -1 0 0 I I #
vertex $-1 $232 $416 #
straight-curve $-1 43.79772331919308925 59.55645614150280664 0 1 0 0 I I #
point $-1 87.59544663838617851 59.55645614150280664 0 #
point $-1 87.59544663838617851 0 0 #
straight-curve $-1 0 29.77822807075140332 25.98476880951508505 0 -1 0 I I #
point $-1 0 59.55645614150280664 25.98476880951508505 #
point $-1 0 0 25.98476880951508505 #
straight-curve $-1 87.59544663838617851 0 12.99238440475754253 0 0 -1 I I #
straight-curve $-1 87.59544663838617851 59.55645614150280664 12.99238440475754253 0 0 -1 I I #
loop $-1 $-1 $361 $249 #
plane-surface $-1 0 29.77822807075140332 12.99238440475754253 1 0 0 0 0 -1 forward_v I I I I #
coedge $-1 $253 $252 $367 $417 forward $88 $-1 #
edge $-1 $257 18.95529073726991243 $370 29.77822807075140332 $256 $418 forward 7 unknown #
coedge $-1 $364 $361 $253 $358 reversed $353 $-1 #
edge $-1 $419 -29.77822807075140332 $359 -18.95529073726991243 $357 $420 forward 7 unknown #
vertex $-1 $362 $421 #
straight-curve $-1 43.79772331919308925 10.8229373334814909 0 1 0 0 I I #
coedge $-1 $357 $259 $255 $362 forward $353 $-1 #
edge $-1 $261 4.052611252324767932 $359 7.310719185730105707 $361 $422 forward 7 unknown #
point $-1 87.59544663838617851 10.8229373334814909 0 #
coedge $-1 $259 $357 $263 $368 reversed $353 $-1 #
straight-curve $-1 0 17.59484836874607439 3.258107933405337775 0 1 0 I I #
point $-1 0 10.8229373334814909 3.258107933405337775 #
coedge $-1 $264 $263 $355 $417 reversed $250 $-1 #
edge $-1 $265 9.734276471352204751 $419 12.99238440475754253 $364 $423 forward 7 unknown #
point $-1 0 0 3.258107933405337775 #
vertex $-1 $267 $424 #
straight-curve $-1 87.59544663838617851 0 12.99238440475754253 0 0 -1 I I #
plane-surface $-1 43.79772331919308925 59.55645614150280664 12.99238440475754253 0 -1 0 0 0 -1 forward_v I I I I #
coedge $-1 $425 $273 $277 $378 forward $169 $-1 #
coedge $-1 $273 $425 $288 $385 forward $169 $-1 #
vertex $-1 $275 $426 #
straight-curve $-1 43.79772331919308925 48.73351880802131575 0 -1 0 0 I I #
coedge $-1 $277 $276 $283 $383 forward $271 $-1 #
edge $-1 $278 18.95529073726991243 $427 29.77822807075140332 $277 $428 forward 7 unknown #
point $-1 0 48.73351880802131575 0 #
point $-1 0 48.73351880802131575 3.258107933405337775 #
straight-curve $-1 0 41.96160777275673581 3.258107933405337775 0 1 0 I I #
coedge $-1 $283 $282 $425 $429 reversed $284 $-1 #
edge $-1 $285 9.734276471352204751 $427 12.99238440475754253 $283 $430 forward 7 unknown #
point $-1 0 59.55645614150280664 3.258107933405337775 #
edge $-1 $387 -29.77822807075140332 $375 -18.95529073726991243 $288 $431 forward 7 unknown #
straight-curve $-1 87.59544663838617851 48.73351880802131575 7.310719185730105707 0 0 -1 I I #
vertex $-1 $385 $432 #
straight-curve $-1 87.59544663838617851 59.55645614150280664 12.99238440475754253 0 0 -1 I I #
coedge $-1 $304 $303 $296 $390 forward $293 $-1 #
edge $-1 $391 3.222480725876756935 $394 8.928889468081784742 $389 $433 forward 7 unknown #
vertex $-1 $390 $434 #
straight-curve $-1 0 41.73651265519802678 53.36773572548605671 0 0 1 I I #
edge $-1 $394 4.229890754017489485 $305 11.22689690684077846 $304 $435 forward 7 unknown #
vertex $-1 $393 $436 #
straight-curve $-1 0 41.73651265519802678 21.98909831537361015 -0.819152039112919339 0 -0.5735764437432435692 I I #
point $-1 0 41.73651265519802678 21.98909831537361015 #
point $-1 5.706408742205027806 48.73351880802131575 25.98476880951508505 #
straight-curve $-1 0 29.77822807075140332 25.98476880951508505 0 -1 0 I I #
vertex $-1 $311 $437 #
point $-1 6.099051309799513376 45.23501573160967126 21.96655397551553079 #
coedge $-1 $326 $325 $318 $402 forward $315 $-1 #
edge $-1 $403 52.50430930144428032 $406 56.49997979558575167 $401 $438 forward 7 unknown #
vertex $-1 $330 $439 #
straight-curve $-1 54.94093299884245596 41.73651265519802678 25.98476880951508861 1 0 0 I I #
edge $-1 $406 4.229890754017489485 $327 11.22689690684077846 $326 $440 forward 7 unknown #
vertex $-1 $405 $441 #
straight-curve $-1 15.84145790754521244 41.73651265519802678 72.23178308632023459 -0.819152039112919339 0 0.5735764437432435692 I I #
point $-1 81.8890378961811507 41.73651265519802678 25.98476880951509571 #
point $-1 87.59544663838619272 48.73351880802131575 21.98909831537361725 #
straight-curve $-1 87.59544663838617851 29.77822807075140332 25.98476880951508505 0 1 0 I I #
vertex $-1 $333 $442 #
point $-1 83.95385144592542304 45.23501573160967126 20.24582464428580764 #
straight-curve $-1 0 59.55645614150280664 12.99238440475754253 0 0 -1 I I #
point $-1 0 0 0 #
straight-curve $-1 0 29.77822807075140332 0 0 1 0 I I #
point $-1 0 59.55645614150280664 0 #
edge $-1 $370 -43.79772331919308925 $419 43.79772331919308925 $367 $443 forward 7 unknown #
straight-curve $-1 87.59544663838617851 29.77822807075140332 0 0 -1 0 I I #
vertex $-1 $358 $444 #
straight-curve $-1 0 29.77822807075140332 0 0 1 0 I I #
point $-1 0 10.8229373334814909 0 #
straight-curve $-1 0 10.8229373334814909 7.310719185730105707 0 0 -1 I I #
straight-curve $-1 0 0 12.99238440475754253 0 0 -1 I I #
point $-1 87.59544663838617851 0 0 #
coedge $-1 $374 $373 $382 $429 forward $169 $-1 #
point $-1 87.59544663838617851 48.73351880802131575 0 #
vertex $-1 $429 $445 #
straight-curve $-1 0 29.77822807075140332 0 0 1 0 I I #
edge $-1 $427 -43.79772331919308925 $387 43.79772331919308925 $382 $446 forward 7 unknown #
straight-curve $-1 0 59.55645614150280664 12.99238440475754253 0 0 -1 I I #
straight-curve $-1 87.59544663838617851 29.77822807075140332 0 0 -1 0 I I #
point $-1 87.59544663838617851 59.55645614150280664 0 #
straight-curve $-1 -3.222480725876756935 41.73651265519802678 25.98476880951508861 1 0 0 I I #
point $-1 0 41.73651265519802678 25.98476880951508505 #
straight-curve $-1 5.706408742205027806 37.50662190118053729 25.98476880951508861 0 1 0 I I #
point $-1 5.706408742205027806 41.73651265519802678 25.98476880951508505 #
point $-1 5.730687916744997779 45.23501573160967126 19.87746125123128849 #
straight-curve $-1 87.59544663838617851 41.73651265519802678 78.48907811095936893 0 0 -1 I I #
point $-1 87.59544663838617851 41.73651265519802678 25.98476880951508505 #
straight-curve $-1 87.59544663838617851 37.50662190118053729 21.98909831537361015 0 1 0 I I #
point $-1 87.59544663838619272 41.73651265519802678 21.98909831537361725 #
point $-1 81.86475872164118073 45.23501573160967126 19.87746125123129559 #
straight-curve $-1 43.79772331919308925 0 0 -1 0 0 I I #
point $-1 0 0 0 #
point $-1 0 59.55645614150280664 0 #
straight-curve $-1 43.79772331919308925 59.55645614150280664 0 1 0 0 I I #
End-of-ACIS-data 