600 0 11 0           
95 GICL ACIS Healer - Source: /gicl/data5/repository/Drexel/SM99-DATA/part87.smdg.deltas.sat - 6 0 18 ACIS 6.0.3 Solaris 24 Sat Apr 13 20:46:20 2002 
1 9.999999999999999547e-07 1.000000000000000036e-10 
body $-1 $11 $-1 $-1 #
body $-1 $12 $-1 $-1 #
body $-1 $13 $-1 $-1 #
body $-1 $14 $-1 $-1 #
body $-1 $15 $-1 $-1 #
body $-1 $16 $-1 $-1 #
body $-1 $17 $-1 $-1 #
body $-1 $18 $-1 $-1 #
body $-1 $19 $-1 $-1 #
body $-1 $20 $-1 $-1 #
body $-1 $21 $-1 $-1 #
lump $-1 $-1 $22 $0 #
lump $-1 $-1 $23 $1 #
lump $-1 $-1 $24 $2 #
lump $-1 $-1 $25 $3 #
lump $-1 $-1 $26 $4 #
lump $-1 $-1 $27 $5 #
lump $-1 $-1 $28 $6 #
lump $-1 $-1 $29 $7 #
lump $-1 $-1 $30 $8 #
lump $-1 $-1 $31 $9 #
lump $-1 $-1 $32 $10 #
shell $-1 $-1 $-1 $33 $-1 $11 #
shell $-1 $-1 $-1 $34 $-1 $12 #
shell $-1 $-1 $-1 $35 $-1 $13 #
shell $-1 $-1 $-1 $36 $-1 $14 #
shell $-1 $-1 $-1 $37 $-1 $15 #
shell $-1 $-1 $-1 $38 $-1 $16 #
shell $-1 $-1 $-1 $39 $-1 $17 #
shell $-1 $-1 $-1 $40 $-1 $18 #
shell $-1 $-1 $-1 $41 $-1 $19 #
shell $-1 $-1 $-1 $42 $-1 $20 #
shell $-1 $-1 $-1 $43 $-1 $21 #
face $-1 $44 $45 $22 $-1 $46 forward single #
face $-1 $47 $48 $23 $-1 $49 forward single #
face $-1 $50 $51 $24 $-1 $52 forward single #
face $-1 $53 $54 $25 $-1 $55 reversed single #
face $-1 $56 $57 $26 $-1 $58 forward single #
face $-1 $59 $60 $27 $-1 $61 forward single #
face $-1 $62 $63 $28 $-1 $64 forward single #
face $-1 $65 $66 $29 $-1 $67 reversed single #
face $-1 $68 $69 $30 $-1 $70 forward single #
face $-1 $71 $72 $31 $-1 $73 forward single #
face $-1 $74 $75 $32 $-1 $76 forward single #
face $-1 $77 $78 $22 $-1 $79 reversed single #
loop $-1 $-1 $80 $33 #
plane-surface $-1 45.25406659138767651 26.61519724405500043 19.47838981386106028 0 0 1 1 0 0 forward_v I I I I #
face $-1 $81 $82 $23 $-1 $83 reversed single #
loop $-1 $-1 $84 $34 #
plane-surface $-1 45.25406659138767651 4.880193550100052846 6.117954553237664683 0 0 1 1 0 0 forward_v I I I I #
face $-1 $85 $86 $24 $-1 $87 reversed single #
loop $-1 $-1 $88 $35 #
plane-surface $-1 45.25406659138767651 48.350200938009948 6.117954553237664683 0 0 1 1 0 0 forward_v I I I I #
face $-1 $89 $90 $25 $-1 $91 reversed single #
loop $-1 $-1 $92 $36 #
plane-surface $-1 -63.99891546862632907 22.0252660498364925 77.21989942908965077 0 -1 0 0.7071067893907904134 0 -0.70710677298230451 forward_v I I I I #
face $-1 $93 $94 $26 $-1 $95 forward single #
loop $-1 $96 $97 $37 #
cone-surface $-1 3.528975871213503979 15.48673819473857804 15.9494138793340916 0.7071067893907905244 0 -0.7071067729823046211 0.353553386491152255 0 0.3535533946953952067 1 I I 0 1 0.4999999999999999445 forward I I I I #
face $-1 $98 $99 $27 $-1 $100 forward single #
loop $-1 $101 $102 $38 #
cone-surface $-1 3.528975871213503979 17.93868614040029641 15.9494138793340916 0.7071067893907905244 0 -0.7071067729823046211 0.353553386491152255 0 0.3535533946953952067 1 I I 0 1 0.4999999999999999445 forward I I I I #
face $-1 $103 $104 $28 $-1 $105 forward single #
loop $-1 $106 $107 $39 #
cone-surface $-1 3.528975871213503979 20.39063408606201477 15.9494138793340916 0.7071067893907905244 0 -0.7071067729823046211 0.353553386491152255 0 0.3535533946953952067 1 I I 0 1 0.4999999999999999445 forward I I I I #
face $-1 $108 $109 $29 $-1 $110 reversed single #
loop $-1 $-1 $111 $40 #
plane-surface $-1 -63.99891546862632907 38.88007619369138723 77.21989942908965077 0 -1 0 0.7071067893907904134 0 -0.70710677298230451 forward_v I I I I #
face $-1 $112 $113 $30 $-1 $114 forward single #
loop $-1 $115 $116 $41 #
cone-surface $-1 3.528975871213503979 32.34154833859346923 15.9494138793340916 0.7071067893907905244 0 -0.7071067729823046211 0.353553386491152255 0 0.3535533946953952067 1 I I 0 1 0.4999999999999999445 forward I I I I #
face $-1 $117 $118 $31 $-1 $119 forward single #
loop $-1 $120 $121 $42 #
cone-surface $-1 3.528975871213503979 34.79349628425519114 15.9494138793340916 0.7071067893907905244 0 -0.7071067729823046211 0.353553386491152255 0 0.3535533946953952067 1 I I 0 1 0.4999999999999999445 forward I I I I #
face $-1 $122 $123 $32 $-1 $124 forward single #
loop $-1 $125 $126 $43 #
cone-surface $-1 3.528975871213503979 37.24544422991691306 15.9494138793340916 0.7071067893907905244 0 -0.7071067729823046211 0.353553386491152255 0 0.3535533946953952067 1 I I 0 1 0.4999999999999999445 forward I I I I #
face $-1 $127 $128 $22 $-1 $129 reversed single #
loop $-1 $-1 $130 $44 #
plane-surface $-1 45.25406659138767651 26.61519724405500043 0 0 0 1 1 0 0 forward_v I I I I #
coedge $-1 $131 $132 $133 $134 forward $45 $-1 #
face $-1 $135 $136 $23 $-1 $137 reversed single #
loop $-1 $-1 $138 $47 #
plane-surface $-1 45.25406659138767651 4.880193550100052846 3.117954553237664683 0 0 1 1 0 0 forward_v I I I I #
coedge $-1 $139 $140 $141 $142 reversed $48 $-1 #
face $-1 $143 $144 $24 $-1 $145 reversed single #
loop $-1 $-1 $146 $50 #
plane-surface $-1 45.25406659138767651 48.350200938009948 3.117954553237664683 0 0 1 1 0 0 forward_v I I I I #
coedge $-1 $147 $148 $149 $150 reversed $51 $-1 #
face $-1 $151 $152 $25 $-1 $153 reversed single #
loop $-1 $-1 $154 $53 #
plane-surface $-1 1.421085471520200372e-14 17.93868614040029641 13.22098544556473065 -0.7071067893907905244 0 0.7071067729823046211 0.70710677298230451 0 0.7071067893907904134 forward_v I I I I #
coedge $-1 $155 $156 $157 $158 reversed $54 $-1 #
face $-1 $-1 $159 $26 $-1 $160 forward single #
loop $-1 $161 $162 $56 #
cone-surface $-1 4.106026328228402633 15.48673819473857804 15.37236343570971187 0.7071067893907905244 0 -0.7071067729823046211 0.1767766932455761275 0 0.1767766973476976033 1 I I -0.7071067811865474617 0.7071067811865474617 0.2499999999999999722 forward I I I I #
loop $-1 $-1 $163 $37 #
coedge $-1 $97 $97 $164 $165 reversed $57 $-1 #
face $-1 $-1 $166 $27 $-1 $167 forward single #
loop $-1 $168 $169 $59 #
cone-surface $-1 4.106026328228402633 17.93868614040029641 15.37236343570971187 0.7071067893907905244 0 -0.7071067729823046211 0.1767766932455761275 0 0.1767766973476976033 1 I I -0.7071067811865474617 0.7071067811865474617 0.2499999999999999722 forward I I I I #
loop $-1 $-1 $170 $38 #
coedge $-1 $102 $102 $171 $172 reversed $60 $-1 #
face $-1 $-1 $173 $28 $-1 $174 forward single #
loop $-1 $175 $176 $62 #
cone-surface $-1 4.106026328228402633 20.39063408606201477 15.37236343570971187 0.7071067893907905244 0 -0.7071067729823046211 0.1767766932455761275 0 0.1767766973476976033 1 I I -0.7071067811865474617 0.7071067811865474617 0.2499999999999999722 forward I I I I #
loop $-1 $-1 $177 $39 #
coedge $-1 $107 $107 $178 $179 reversed $63 $-1 #
face $-1 $180 $181 $29 $-1 $182 reversed single #
loop $-1 $-1 $183 $65 #
plane-surface $-1 1.421085471520200372e-14 34.79349628425519114 13.22098544556473065 -0.7071067893907905244 0 0.7071067729823046211 0.70710677298230451 0 0.7071067893907904134 forward_v I I I I #
coedge $-1 $184 $185 $186 $187 reversed $66 $-1 #
face $-1 $-1 $188 $30 $-1 $189 forward single #
loop $-1 $190 $191 $68 #
cone-surface $-1 4.106026328228402633 32.34154833859346923 15.37236343570971187 0.7071067893907905244 0 -0.7071067729823046211 0.1767766932455761275 0 0.1767766973476976033 1 I I -0.7071067811865474617 0.7071067811865474617 0.2499999999999999722 forward I I I I #
loop $-1 $-1 $192 $41 #
coedge $-1 $116 $116 $193 $194 reversed $69 $-1 #
face $-1 $-1 $195 $31 $-1 $196 forward single #
loop $-1 $197 $198 $71 #
cone-surface $-1 4.106026328228402633 34.79349628425519114 15.37236343570971187 0.7071067893907905244 0 -0.7071067729823046211 0.1767766932455761275 0 0.1767766973476976033 1 I I -0.7071067811865474617 0.7071067811865474617 0.2499999999999999722 forward I I I I #
loop $-1 $-1 $199 $42 #
coedge $-1 $121 $121 $200 $201 reversed $72 $-1 #
face $-1 $-1 $202 $32 $-1 $203 forward single #
loop $-1 $204 $205 $74 #
cone-surface $-1 4.106026328228402633 37.24544422991691306 15.37236343570971187 0.7071067893907905244 0 -0.7071067729823046211 0.1767766932455761275 0 0.1767766973476976033 1 I I -0.7071067811865474617 0.7071067811865474617 0.2499999999999999722 forward I I I I #
loop $-1 $-1 $206 $43 #
coedge $-1 $126 $126 $207 $208 reversed $75 $-1 #
face $-1 $209 $210 $22 $-1 $211 reversed single #
loop $-1 $-1 $212 $77 #
plane-surface $-1 45.25406659138767651 0 9.739194906930530138 0 1 0 0 0 1 forward_v I I I I #
coedge $-1 $213 $214 $215 $216 forward $78 $-1 #
coedge $-1 $217 $80 $218 $219 forward $45 $-1 #
coedge $-1 $80 $217 $220 $221 forward $45 $-1 #
coedge $-1 $222 $223 $80 $134 reversed $224 $-1 #
edge $-1 $225 -26.61519724405500043 $226 26.61519724405500043 $133 $227 forward 7 unknown #
face $-1 $228 $229 $23 $-1 $230 reversed single #
loop $-1 $-1 $231 $81 #
plane-surface $-1 45.25406659138767651 9.760387100200105692 4.617954553237664683 0 -1 0 0 0 -1 forward_v I I I I #
coedge $-1 $232 $233 $234 $235 reversed $82 $-1 #
coedge $-1 $236 $84 $237 $238 forward $48 $-1 #
coedge $-1 $84 $236 $239 $240 reversed $48 $-1 #
coedge $-1 $241 $242 $84 $142 forward $243 $-1 #
edge $-1 $244 5.987308296877420943 $245 15.74769539707752664 $141 $246 forward 7 unknown #
face $-1 $247 $248 $24 $-1 $249 reversed single #
loop $-1 $-1 $250 $85 #
plane-surface $-1 45.25406659138767651 43.47000738790989516 4.617954553237664683 0 1 0 0 0 1 forward_v I I I I #
coedge $-1 $251 $252 $253 $254 reversed $86 $-1 #
coedge $-1 $255 $88 $256 $257 reversed $51 $-1 #
coedge $-1 $88 $255 $258 $259 forward $51 $-1 #
coedge $-1 $260 $261 $88 $150 forward $248 $-1 #
edge $-1 $262 -15.74769539707752841 $263 -5.98730829687742272 $149 $264 forward 7 unknown #
face $-1 $265 $266 $25 $-1 $267 reversed single #
loop $-1 $-1 $268 $89 #
plane-surface $-1 -63.99891546862632907 13.85210623096410032 77.21989942908965077 0 1 0 -0.7071067893907904134 0 0.70710677298230451 forward_v I I I I #
coedge $-1 $269 $270 $271 $272 reversed $90 $-1 #
coedge $-1 $156 $92 $273 $274 reversed $54 $-1 #
coedge $-1 $92 $155 $269 $275 reversed $54 $-1 #
coedge $-1 $271 $276 $92 $158 forward $266 $-1 #
edge $-1 $277 24.00115735414902574 $278 30.25856172244537134 $157 $279 forward 7 unknown #
loop $-1 $-1 $164 $93 #
plane-surface $-1 1.421085471520200372e-14 17.93868614040029641 13.22098544556473065 -0.7071067893907905244 0 0.7071067729823046211 0.70710677298230451 0 0.7071067893907904134 forward_v I I I I #
loop $-1 $-1 $280 $56 #
coedge $-1 $162 $162 $163 $281 reversed $94 $-1 #
coedge $-1 $163 $163 $162 $281 forward $96 $-1 #
coedge $-1 $164 $164 $97 $165 forward $159 $-1 #
edge $-1 $282 0 $282 6.283185307179586232 $164 $283 forward 7 unknown #
loop $-1 $-1 $171 $98 #
plane-surface $-1 1.421085471520200372e-14 17.93868614040029641 13.22098544556473065 -0.7071067893907905244 0 0.7071067729823046211 0.70710677298230451 0 0.7071067893907904134 forward_v I I I I #
loop $-1 $-1 $284 $59 #
coedge $-1 $169 $169 $170 $285 reversed $99 $-1 #
coedge $-1 $170 $170 $169 $285 forward $101 $-1 #
coedge $-1 $171 $171 $102 $172 forward $166 $-1 #
edge $-1 $286 0 $286 6.283185307179586232 $171 $287 forward 7 unknown #
loop $-1 $-1 $178 $103 #
plane-surface $-1 1.421085471520200372e-14 17.93868614040029641 13.22098544556473065 -0.7071067893907905244 0 0.7071067729823046211 0.70710677298230451 0 0.7071067893907904134 forward_v I I I I #
loop $-1 $-1 $288 $62 #
coedge $-1 $176 $176 $177 $289 reversed $104 $-1 #
coedge $-1 $177 $177 $176 $289 forward $106 $-1 #
coedge $-1 $178 $178 $107 $179 forward $173 $-1 #
edge $-1 $290 0 $290 6.283185307179586232 $178 $291 forward 7 unknown #
face $-1 $292 $293 $29 $-1 $294 forward single #
loop $-1 $-1 $295 $108 #
plane-surface $-1 -63.99891546862632907 30.70691637481899505 77.21989942908965077 0 1 0 -0.7071067893907904134 0 0.70710677298230451 forward_v I I I I #
coedge $-1 $296 $297 $298 $299 reversed $109 $-1 #
coedge $-1 $185 $111 $300 $301 reversed $66 $-1 #
coedge $-1 $111 $184 $296 $302 reversed $66 $-1 #
coedge $-1 $298 $303 $111 $187 forward $304 $-1 #
edge $-1 $305 24.00115735414902574 $306 30.25856172244537134 $186 $307 forward 7 unknown #
loop $-1 $-1 $193 $112 #
plane-surface $-1 1.421085471520200372e-14 34.79349628425519114 13.22098544556473065 -0.7071067893907905244 0 0.7071067729823046211 0.70710677298230451 0 0.7071067893907904134 forward_v I I I I #
loop $-1 $-1 $308 $68 #
coedge $-1 $191 $191 $192 $309 reversed $113 $-1 #
coedge $-1 $192 $192 $191 $309 forward $115 $-1 #
coedge $-1 $193 $193 $116 $194 forward $188 $-1 #
edge $-1 $310 0 $310 6.283185307179586232 $193 $311 forward 7 unknown #
loop $-1 $-1 $200 $117 #
plane-surface $-1 1.421085471520200372e-14 34.79349628425519114 13.22098544556473065 -0.7071067893907905244 0 0.7071067729823046211 0.70710677298230451 0 0.7071067893907904134 forward_v I I I I #
loop $-1 $-1 $312 $71 #
coedge $-1 $198 $198 $199 $313 reversed $118 $-1 #
coedge $-1 $199 $199 $198 $313 forward $120 $-1 #
coedge $-1 $200 $200 $121 $201 forward $195 $-1 #
edge $-1 $314 0 $314 6.283185307179586232 $200 $315 forward 7 unknown #
loop $-1 $-1 $207 $122 #
plane-surface $-1 1.421085471520200372e-14 34.79349628425519114 13.22098544556473065 -0.7071067893907905244 0 0.7071067729823046211 0.70710677298230451 0 0.7071067893907904134 forward_v I I I I #
loop $-1 $-1 $316 $74 #
coedge $-1 $205 $205 $206 $317 reversed $123 $-1 #
coedge $-1 $206 $206 $205 $317 forward $125 $-1 #
coedge $-1 $207 $207 $126 $208 forward $202 $-1 #
edge $-1 $318 0 $318 6.283185307179586232 $207 $319 forward 7 unknown #
face $-1 $320 $321 $22 $-1 $322 reversed single #
loop $-1 $-1 $323 $127 #
plane-surface $-1 0 26.61519724405500043 9.739194906930530138 1 0 0 0 0 -1 forward_v I I I I #
coedge $-1 $324 $220 $325 $326 forward $128 $-1 #
coedge $-1 $327 $130 $324 $328 forward $78 $-1 #
coedge $-1 $130 $327 $329 $330 forward $78 $-1 #
coedge $-1 $223 $222 $130 $216 reversed $224 $-1 #
edge $-1 $331 -26.61519724405500043 $332 26.61519724405500043 $215 $333 forward 7 unknown #
coedge $-1 $132 $131 $334 $335 forward $45 $-1 #
coedge $-1 $336 $337 $131 $219 reversed $321 $-1 #
edge $-1 $226 -45.25406659138767651 $338 45.25406659138767651 $218 $339 forward 7 unknown #
coedge $-1 $212 $340 $132 $221 reversed $128 $-1 #
edge $-1 $341 -45.25406659138767651 $225 45.25406659138767651 $220 $342 forward 7 unknown #
coedge $-1 $215 $133 $340 $343 forward $224 $-1 #
coedge $-1 $133 $215 $336 $344 reversed $224 $-1 #
loop $-1 $-1 $222 $320 #
vertex $-1 $134 $345 #
vertex $-1 $134 $346 #
straight-curve $-1 90.50813318277535302 26.61519724405500043 19.47838981386106028 0 1 0 I I #
face $-1 $347 $348 $23 $-1 $349 reversed single #
loop $-1 $-1 $350 $135 #
plane-surface $-1 0 26.61519724405500043 9.739194906930530138 1 0 0 0 0 -1 forward_v I I I I #
coedge $-1 $351 $237 $242 $352 reversed $136 $-1 #
coedge $-1 $353 $138 $354 $355 reversed $82 $-1 #
coedge $-1 $138 $353 $351 $356 forward $82 $-1 #
coedge $-1 $242 $241 $138 $235 forward $243 $-1 #
edge $-1 $357 -15.74769539707752664 $358 -5.987308296877420943 $234 $359 forward 7 unknown #
coedge $-1 $140 $139 $350 $360 reversed $48 $-1 #
coedge $-1 $231 $361 $139 $238 reversed $136 $-1 #
edge $-1 $244 -45.25406659138767651 $362 45.25406659138767651 $237 $363 forward 7 unknown #
coedge $-1 $364 $365 $140 $240 forward $348 $-1 #
edge $-1 $245 -45.25406659138767651 $366 45.25406659138767651 $239 $367 forward 7 unknown #
coedge $-1 $234 $141 $365 $368 forward $243 $-1 #
coedge $-1 $141 $234 $231 $352 forward $243 $-1 #
loop $-1 $-1 $141 $347 #
vertex $-1 $142 $369 #
vertex $-1 $368 $370 #
straight-curve $-1 90.50813318277535302 15.74769539707752664 6.117954553237664683 0 -1 0 I I #
face $-1 $371 $372 $24 $-1 $373 reversed single #
loop $-1 $-1 $149 $143 #
plane-surface $-1 90.50813318277535302 26.61519724405500043 9.739194906930530138 -1 0 0 0 0 1 forward_v I I I I #
coedge $-1 $374 $258 $375 $376 reversed $144 $-1 #
coedge $-1 $377 $146 $374 $378 forward $86 $-1 #
coedge $-1 $146 $377 $379 $380 reversed $86 $-1 #
coedge $-1 $261 $260 $146 $254 forward $248 $-1 #
edge $-1 $381 5.98730829687742272 $382 15.74769539707752841 $253 $383 forward 7 unknown #
coedge $-1 $148 $147 $384 $385 reversed $51 $-1 #
coedge $-1 $386 $387 $147 $257 forward $388 $-1 #
edge $-1 $389 -45.25406659138767651 $262 45.25406659138767651 $256 $390 forward 7 unknown #
coedge $-1 $250 $391 $148 $259 reversed $144 $-1 #
edge $-1 $392 -45.25406659138767651 $263 45.25406659138767651 $258 $393 forward 7 unknown #
coedge $-1 $253 $149 $391 $394 forward $248 $-1 #
coedge $-1 $149 $253 $386 $395 reversed $248 $-1 #
vertex $-1 $395 $396 #
vertex $-1 $150 $397 #
straight-curve $-1 90.50813318277535302 37.48269909103247244 6.117954553237664683 0 -1 0 I I #
face $-1 $-1 $398 $25 $-1 $399 forward single #
loop $-1 $-1 $157 $151 #
plane-surface $-1 0 26.61519724405500043 9.739194906930530138 1 0 0 0 0 -1 forward_v I I I I #
coedge $-1 $400 $401 $402 $403 reversed $152 $-1 #
coedge $-1 $404 $154 $156 $275 forward $90 $-1 #
coedge $-1 $154 $404 $400 $405 forward $90 $-1 #
coedge $-1 $402 $157 $154 $272 forward $266 $-1 #
edge $-1 $278 0.2516756423911559182 $406 8.424835461263548098 $271 $407 forward 7 unknown #
coedge $-1 $408 $409 $155 $274 forward $398 $-1 #
edge $-1 $410 -15.6298286617119544 $277 -9.372424438619326281 $273 $411 forward 7 unknown #
edge $-1 $278 -2.009718347115232529e-14 $410 8.849306020222789115 $156 $412 forward 7 unknown #
coedge $-1 $157 $402 $408 $413 reversed $266 $-1 #
vertex $-1 $413 $414 #
vertex $-1 $158 $415 #
straight-curve $-1 0 22.0252660498364925 43.47954716801008601 0 0 -1 I I #
coedge $-1 $280 $280 $-1 $416 reversed $161 $-1 #
edge $-1 $417 0 $417 6.283185307179586232 $162 $418 forward 7 unknown #
vertex $-1 $165 $419 #
ellipse-curve $-1 3.12870211154631761 15.48673819473857804 16.34968762971288925 -0.7071067893907905244 0 0.7071067729823046211 0.353553386491152255 0 0.3535533946953952067 1 I I #
coedge $-1 $284 $284 $-1 $420 reversed $168 $-1 #
edge $-1 $421 0 $421 6.283185307179586232 $169 $422 forward 7 unknown #
vertex $-1 $172 $423 #
ellipse-curve $-1 3.12870211154631761 17.93868614040029641 16.34968762971288925 -0.7071067893907905244 0 0.7071067729823046211 0.353553386491152255 0 0.3535533946953952067 1 I I #
coedge $-1 $288 $288 $-1 $424 reversed $175 $-1 #
edge $-1 $425 0 $425 6.283185307179586232 $176 $426 forward 7 unknown #
vertex $-1 $179 $427 #
ellipse-curve $-1 3.12870211154631761 20.39063408606201477 16.34968762971288925 -0.7071067893907905244 0 0.7071067729823046211 0.353553386491152255 0 0.3535533946953952067 1 I I #
face $-1 $-1 $304 $29 $-1 $428 reversed single #
loop $-1 $-1 $429 $180 #
plane-surface $-1 45.25406659138767651 26.61519724405500043 19.47838981386106028 0 0 1 1 0 0 forward_v I I I I #
coedge $-1 $430 $431 $432 $433 reversed $181 $-1 #
coedge $-1 $434 $183 $185 $302 forward $109 $-1 #
coedge $-1 $183 $434 $430 $435 forward $109 $-1 #
coedge $-1 $432 $186 $183 $299 forward $304 $-1 #
edge $-1 $306 -8.175729429536289672 $436 -0.002569610663897492486 $298 $437 forward 7 unknown #
coedge $-1 $438 $439 $184 $301 forward $293 $-1 #
edge $-1 $440 -15.6298286617119544 $305 -9.372424438619326281 $300 $441 forward 7 unknown #
edge $-1 $306 -2.009718347115232529e-14 $440 8.849306020222789115 $185 $442 forward 7 unknown #
coedge $-1 $186 $432 $438 $443 reversed $304 $-1 #
loop $-1 $-1 $432 $292 #
vertex $-1 $443 $444 #
vertex $-1 $187 $445 #
straight-curve $-1 0 38.88007619369138723 43.47954716801008601 0 0 -1 I I #
coedge $-1 $308 $308 $-1 $446 reversed $190 $-1 #
edge $-1 $447 0 $447 6.283185307179586232 $191 $448 forward 7 unknown #
vertex $-1 $194 $449 #
ellipse-curve $-1 3.12870211154631761 32.34154833859346923 16.34968762971288925 -0.7071067893907905244 0 0.7071067729823046211 0.353553386491152255 0 0.3535533946953952067 1 I I #
coedge $-1 $312 $312 $-1 $450 reversed $197 $-1 #
edge $-1 $451 0 $451 6.283185307179586232 $198 $452 forward 7 unknown #
vertex $-1 $201 $453 #
ellipse-curve $-1 3.12870211154631761 34.79349628425519114 16.34968762971288925 -0.7071067893907905244 0 0.7071067729823046211 0.353553386491152255 0 0.3535533946953952067 1 I I #
coedge $-1 $316 $316 $-1 $454 reversed $204 $-1 #
edge $-1 $455 0 $455 6.283185307179586232 $205 $456 forward 7 unknown #
vertex $-1 $208 $457 #
ellipse-curve $-1 3.12870211154631761 37.24544422991691306 16.34968762971288925 -0.7071067893907905244 0 0.7071067729823046211 0.353553386491152255 0 0.3535533946953952067 1 I I #
face $-1 $-1 $224 $22 $-1 $458 reversed single #
loop $-1 $-1 $336 $209 #
plane-surface $-1 45.25406659138767651 53.23039448811000085 9.739194906930530138 0 -1 0 0 0 -1 forward_v I I I I #
coedge $-1 $459 $334 $337 $460 forward $210 $-1 #
coedge $-1 $340 $212 $213 $328 reversed $128 $-1 #
coedge $-1 $334 $459 $212 $326 reversed $210 $-1 #
edge $-1 $341 -9.739194906930530138 $461 9.739194906930530138 $325 $462 forward 7 unknown #
coedge $-1 $214 $213 $459 $463 forward $78 $-1 #
edge $-1 $332 -45.25406659138767651 $461 45.25406659138767651 $324 $464 forward 7 unknown #
coedge $-1 $337 $336 $214 $330 reversed $321 $-1 #
edge $-1 $465 -45.25406659138767651 $331 45.25406659138767651 $329 $466 forward 7 unknown #
vertex $-1 $216 $467 #
vertex $-1 $343 $468 #
straight-curve $-1 90.50813318277535302 26.61519724405500043 0 0 -1 0 I I #
coedge $-1 $323 $325 $217 $335 reversed $210 $-1 #
edge $-1 $338 -26.61519724405500043 $341 26.61519724405500043 $334 $469 forward 7 unknown #
coedge $-1 $329 $218 $223 $344 forward $321 $-1 #
coedge $-1 $218 $329 $323 $460 reversed $321 $-1 #
vertex $-1 $219 $470 #
straight-curve $-1 45.25406659138767651 53.23039448811000085 19.47838981386106028 -1 0 0 I I #
coedge $-1 $220 $324 $222 $343 reversed $128 $-1 #
vertex $-1 $335 $471 #
straight-curve $-1 45.25406659138767651 0 19.47838981386106028 1 0 0 I I #
edge $-1 $225 -9.739194906930530138 $332 9.739194906930530138 $222 $472 forward 7 unknown #
edge $-1 $226 -9.739194906930530138 $331 9.739194906930530138 $223 $473 forward 7 unknown #
point $-1 90.50813318277535302 0 19.47838981386106028 #
point $-1 90.50813318277535302 53.23039448811000085 19.47838981386106028 #
face $-1 $-1 $243 $23 $-1 $474 reversed single #
loop $-1 $-1 $239 $228 #
plane-surface $-1 45.25406659138767651 0 9.739194906930530138 0 1 0 0 0 1 forward_v I I I I #
coedge $-1 $475 $476 $236 $360 forward $229 $-1 #
coedge $-1 $361 $231 $233 $356 reversed $136 $-1 #
edge $-1 $358 -4.060620176846432727 $244 -1.060620176846432727 $242 $477 forward 7 unknown #
coedge $-1 $233 $232 $478 $479 reversed $82 $-1 #
coedge $-1 $365 $364 $232 $355 forward $348 $-1 #
edge $-1 $480 -45.25406659138767651 $357 45.25406659138767651 $354 $481 forward 7 unknown #
edge $-1 $482 -45.25406659138767651 $358 45.25406659138767651 $351 $483 forward 7 unknown #
vertex $-1 $355 $484 #
vertex $-1 $235 $485 #
straight-curve $-1 90.50813318277535302 15.74769539707752664 3.117954553237664683 0 1 0 I I #
edge $-1 $366 -15.74769539707752664 $362 -5.987308296877420943 $350 $486 forward 7 unknown #
coedge $-1 $237 $351 $475 $487 reversed $136 $-1 #
vertex $-1 $360 $488 #
straight-curve $-1 45.25406659138767651 9.760387100200105692 6.117954553237664683 -1 0 0 I I #
coedge $-1 $354 $239 $476 $489 forward $348 $-1 #
coedge $-1 $239 $354 $241 $368 reversed $348 $-1 #
vertex $-1 $489 $490 #
straight-curve $-1 45.25406659138767651 0 6.117954553237664683 -1 0 0 I I #
edge $-1 $245 3.621240353692865455 $357 6.621240353692865455 $241 $491 forward 7 unknown #
point $-1 90.50813318277535302 9.760387100200105692 6.117954553237664683 #
point $-1 90.50813318277535302 0 6.117954553237664683 #
face $-1 $-1 $388 $24 $-1 $492 reversed single #
loop $-1 $-1 $384 $247 #
plane-surface $-1 0 26.61519724405500043 9.739194906930530138 1 0 0 0 0 -1 forward_v I I I I #
coedge $-1 $391 $250 $251 $378 reversed $144 $-1 #
coedge $-1 $384 $493 $250 $376 forward $372 $-1 #
edge $-1 $494 -4.060620176846432727 $392 -1.060620176846432727 $375 $495 forward 7 unknown #
coedge $-1 $252 $251 $493 $496 reversed $86 $-1 #
edge $-1 $381 -45.25406659138767651 $494 45.25406659138767651 $374 $497 forward 7 unknown #
coedge $-1 $387 $386 $252 $380 forward $388 $-1 #
edge $-1 $382 -45.25406659138767651 $498 45.25406659138767651 $379 $499 forward 7 unknown #
vertex $-1 $254 $500 #
vertex $-1 $380 $501 #
straight-curve $-1 90.50813318277535302 37.48269909103247244 3.117954553237664683 0 1 0 I I #
coedge $-1 $502 $375 $255 $385 forward $372 $-1 #
edge $-1 $392 5.98730829687742272 $389 15.74769539707752841 $384 $503 forward 7 unknown #
coedge $-1 $379 $256 $261 $395 forward $388 $-1 #
coedge $-1 $256 $379 $502 $504 reversed $388 $-1 #
loop $-1 $-1 $256 $371 #
vertex $-1 $504 $505 #
straight-curve $-1 45.25406659138767651 53.23039448811000085 6.117954553237664683 1 0 0 I I #
coedge $-1 $258 $374 $260 $394 reversed $144 $-1 #
vertex $-1 $385 $506 #
straight-curve $-1 45.25406659138767651 43.47000738790989516 6.117954553237664683 1 0 0 I I #
edge $-1 $263 1.060620176846432727 $381 4.060620176846432727 $260 $507 forward 7 unknown #
edge $-1 $262 3.621240353692865455 $382 6.621240353692865455 $261 $508 forward 7 unknown #
point $-1 90.50813318277535302 53.23039448811000085 6.117954553237664683 #
point $-1 90.50813318277535302 43.47000738790989516 6.117954553237664683 #
loop $-1 $-1 $273 $265 #
plane-surface $-1 45.25406659138767651 26.61519724405500043 19.47838981386106028 0 0 1 1 0 0 forward_v I I I I #
coedge $-1 $401 $268 $270 $405 reversed $152 $-1 #
coedge $-1 $268 $400 $509 $510 reversed $152 $-1 #
coedge $-1 $276 $271 $268 $403 forward $266 $-1 #
edge $-1 $406 -30.25856172244537134 $511 -24.00115735414902574 $402 $512 forward 7 unknown #
coedge $-1 $270 $269 $409 $513 reversed $90 $-1 #
edge $-1 $514 -8.849306020222789115 $406 2.009718347115232529e-14 $400 $515 forward 7 unknown #
vertex $-1 $272 $516 #
straight-curve $-1 0 22.27694169222764842 13.22098544556471644 0 -1 0 I I #
coedge $-1 $509 $273 $276 $413 forward $398 $-1 #
coedge $-1 $273 $509 $404 $513 forward $398 $-1 #
vertex $-1 $274 $517 #
straight-curve $-1 -9.372424438619326281 22.0252660498364925 19.47838981386105672 -1 0 0 I I #
straight-curve $-1 1.421085471520200372e-14 22.0252660498364925 13.22098544556473065 0.70710677298230451 0 0.7071067893907904134 I I #
edge $-1 $277 4.589931194218507926 $511 12.76309101309090011 $276 $518 forward 7 unknown #
point $-1 0 22.0252660498364925 19.47838981386106028 #
point $-1 0 22.0252660498364925 13.22098544556471644 #
edge $-1 $519 1 $519 0 $280 $-1 forward 7 unknown #
vertex $-1 $281 $520 #
ellipse-curve $-1 3.929249630880704558 15.48673819473857804 15.54914012895528685 -0.7071067893907905244 0 0.7071067729823046211 0.353553386491152255 0 0.3535533946953952067 1 I I #
point $-1 3.482255498037460484 15.48673819473857804 16.7032410244082925 #
edge $-1 $521 1 $521 0 $284 $-1 forward 7 unknown #
vertex $-1 $285 $522 #
ellipse-curve $-1 3.929249630880704558 17.93868614040029641 15.54914012895528685 -0.7071067893907905244 0 0.7071067729823046211 0.353553386491152255 0 0.3535533946953952067 1 I I #
point $-1 3.482255498037460484 17.93868614040029641 16.7032410244082925 #
edge $-1 $523 1 $523 0 $288 $-1 forward 7 unknown #
vertex $-1 $289 $524 #
ellipse-curve $-1 3.929249630880704558 20.39063408606201477 15.54914012895528685 -0.7071067893907905244 0 0.7071067729823046211 0.353553386491152255 0 0.3535533946953952067 1 I I #
point $-1 3.482255498037460484 20.39063408606201477 16.7032410244082925 #
plane-surface $-1 0 26.61519724405500043 9.739194906930530138 1 0 0 0 0 -1 forward_v I I I I #
coedge $-1 $439 $438 $431 $525 forward $293 $-1 #
coedge $-1 $431 $295 $297 $435 reversed $181 $-1 #
coedge $-1 $295 $430 $429 $525 reversed $181 $-1 #
coedge $-1 $303 $298 $295 $433 forward $304 $-1 #
edge $-1 $436 -30.25856172244537134 $526 -24.00115735414902574 $432 $527 forward 7 unknown #
coedge $-1 $297 $296 $439 $528 reversed $109 $-1 #
edge $-1 $529 -8.849306020222789115 $436 2.009718347115232529e-14 $430 $530 forward 7 unknown #
vertex $-1 $299 $531 #
straight-curve $-1 0 30.70434676415509756 13.22098544556471644 0 -1 0 I I #
coedge $-1 $429 $300 $303 $443 forward $293 $-1 #
coedge $-1 $300 $429 $434 $528 forward $293 $-1 #
vertex $-1 $301 $532 #
straight-curve $-1 -9.372424438619326281 38.88007619369138723 19.47838981386105672 -1 0 0 I I #
straight-curve $-1 1.421085471520200372e-14 38.88007619369138723 13.22098544556473065 0.70710677298230451 0 0.7071067893907904134 I I #
edge $-1 $305 -12.26487894963638681 $526 -4.091719130763994627 $303 $533 forward 7 unknown #
point $-1 0 38.88007619369138723 19.47838981386106028 #
point $-1 0 38.88007619369138723 13.22098544556471644 #
edge $-1 $534 1 $534 0 $308 $-1 forward 7 unknown #
vertex $-1 $309 $535 #
ellipse-curve $-1 3.929249630880704558 32.34154833859346923 15.54914012895528685 -0.7071067893907905244 0 0.7071067729823046211 0.353553386491152255 0 0.3535533946953952067 1 I I #
point $-1 3.482255498037460484 32.34154833859346923 16.7032410244082925 #
edge $-1 $536 1 $536 0 $312 $-1 forward 7 unknown #
vertex $-1 $313 $537 #
ellipse-curve $-1 3.929249630880704558 34.79349628425519114 15.54914012895528685 -0.7071067893907905244 0 0.7071067729823046211 0.353553386491152255 0 0.3535533946953952067 1 I I #
point $-1 3.482255498037460484 34.79349628425519114 16.7032410244082925 #
edge $-1 $538 1 $538 0 $316 $-1 forward 7 unknown #
vertex $-1 $317 $539 #
ellipse-curve $-1 3.929249630880704558 37.24544422991691306 15.54914012895528685 -0.7071067893907905244 0 0.7071067729823046211 0.353553386491152255 0 0.3535533946953952067 1 I I #
point $-1 3.482255498037460484 37.24544422991691306 16.7032410244082925 #
plane-surface $-1 90.50813318277535302 26.61519724405500043 9.739194906930530138 -1 0 0 0 0 1 forward_v I I I I #
coedge $-1 $325 $323 $327 $463 reversed $210 $-1 #
edge $-1 $338 -9.739194906930530138 $465 9.739194906930530138 $337 $540 forward 7 unknown #
vertex $-1 $463 $541 #
straight-curve $-1 0 0 9.739194906930530138 0 0 -1 I I #
edge $-1 $461 -26.61519724405500043 $465 26.61519724405500043 $459 $542 forward 7 unknown #
straight-curve $-1 45.25406659138767651 0 0 -1 0 0 I I #
vertex $-1 $330 $543 #
straight-curve $-1 45.25406659138767651 53.23039448811000085 0 1 0 0 I I #
point $-1 90.50813318277535302 53.23039448811000085 0 #
point $-1 90.50813318277535302 0 0 #
straight-curve $-1 0 26.61519724405500043 19.47838981386106028 0 -1 0 I I #
point $-1 0 53.23039448811000085 19.47838981386106028 #
point $-1 0 0 19.47838981386106028 #
straight-curve $-1 90.50813318277535302 0 9.739194906930530138 0 0 -1 I I #
straight-curve $-1 90.50813318277535302 53.23039448811000085 9.739194906930530138 0 0 -1 I I #
plane-surface $-1 90.50813318277535302 26.61519724405500043 9.739194906930530138 -1 0 0 0 0 1 forward_v I I I I #
coedge $-1 $478 $350 $361 $487 forward $229 $-1 #
coedge $-1 $350 $478 $364 $489 reversed $229 $-1 #
straight-curve $-1 90.50813318277535302 9.760387100200105692 7.178574730084097411 0 0 1 I I #
coedge $-1 $476 $475 $353 $479 forward $229 $-1 #
edge $-1 $482 5.987308296877420943 $480 15.74769539707752664 $478 $544 forward 7 unknown #
vertex $-1 $355 $545 #
straight-curve $-1 45.25406659138767651 0 3.117954553237664683 1 0 0 I I #
vertex $-1 $479 $546 #
straight-curve $-1 45.25406659138767651 9.760387100200105692 3.117954553237664683 1 0 0 I I #
point $-1 90.50813318277535302 0 3.117954553237664683 #
point $-1 90.50813318277535302 9.760387100200105692 3.117954553237664683 #
straight-curve $-1 0 15.74769539707752664 6.117954553237664683 0 1 0 I I #
edge $-1 $362 1.060620176846432727 $482 4.060620176846432727 $475 $547 forward 7 unknown #
point $-1 0 9.760387100200105692 6.117954553237664683 #
edge $-1 $366 3.621240353692865455 $480 6.621240353692865455 $476 $548 forward 7 unknown #
point $-1 0 0 6.117954553237664683 #
straight-curve $-1 90.50813318277535302 0 9.739194906930530138 0 0 -1 I I #
plane-surface $-1 45.25406659138767651 53.23039448811000085 9.739194906930530138 0 -1 0 0 0 -1 forward_v I I I I #
coedge $-1 $375 $502 $377 $496 forward $372 $-1 #
vertex $-1 $496 $549 #
straight-curve $-1 0 43.47000738790989516 7.178574730084097411 0 0 1 I I #
edge $-1 $498 -15.74769539707752841 $494 -5.98730829687742272 $493 $550 forward 7 unknown #
straight-curve $-1 45.25406659138767651 43.47000738790989516 3.117954553237664683 -1 0 0 I I #
vertex $-1 $380 $551 #
straight-curve $-1 45.25406659138767651 53.23039448811000085 3.117954553237664683 -1 0 0 I I #
point $-1 90.50813318277535302 43.47000738790989516 3.117954553237664683 #
point $-1 90.50813318277535302 53.23039448811000085 3.117954553237664683 #
coedge $-1 $493 $384 $387 $504 forward $372 $-1 #
straight-curve $-1 0 37.48269909103247244 6.117954553237664683 0 1 0 I I #
edge $-1 $389 3.621240353692865455 $498 6.621240353692865455 $387 $552 forward 7 unknown #
point $-1 0 53.23039448811000085 6.117954553237664683 #
point $-1 0 43.47000738790989516 6.117954553237664683 #
straight-curve $-1 90.50813318277535302 43.47000738790989516 7.178574730084097411 0 0 -1 I I #
straight-curve $-1 90.50813318277535302 53.23039448811000085 9.739194906930530138 0 0 -1 I I #
coedge $-1 $409 $408 $401 $510 forward $398 $-1 #
edge $-1 $511 9.372424438619326281 $514 15.6298286617119544 $509 $553 forward 7 unknown #
vertex $-1 $510 $554 #
straight-curve $-1 0 13.85210623096410032 43.47954716801008601 0 0 1 I I #
edge $-1 $514 -8.424835461263548098 $410 -0.2516756423911559182 $409 $555 forward 7 unknown #
vertex $-1 $513 $556 #
straight-curve $-1 1.421085471520200372e-14 13.85210623096410032 13.22098544556473065 -0.70710677298230451 0 -0.7071067893907904134 I I #
point $-1 0 13.85210623096410032 13.22098544556471644 #
point $-1 6.257404223092628115 22.0252660498364925 19.47838981386105672 #
straight-curve $-1 0 26.61519724405500043 19.47838981386106028 0 -1 0 I I #
vertex $-1 $416 $557 #
point $-1 4.282803017371854537 15.48673819473857804 15.90269352365068301 #
vertex $-1 $420 $558 #
point $-1 4.282803017371854537 17.93868614040029641 15.90269352365068301 #
vertex $-1 $424 $559 #
point $-1 4.282803017371854537 20.39063408606201477 15.90269352365068301 #
edge $-1 $526 9.372424438619326281 $529 15.6298286617119544 $429 $560 forward 7 unknown #
vertex $-1 $525 $561 #
straight-curve $-1 0 30.70691637481899505 43.47954716801008601 0 0 1 I I #
edge $-1 $529 0.002569610663897492486 $440 8.175729429536289672 $439 $562 forward 7 unknown #
vertex $-1 $528 $563 #
straight-curve $-1 1.421085471520200372e-14 30.70691637481899505 13.22098544556473065 -0.70710677298230451 0 -0.7071067893907904134 I I #
point $-1 0 30.70691637481899505 13.22098544556471644 #
point $-1 6.257404223092628115 38.88007619369138723 19.47838981386105672 #
straight-curve $-1 0 26.61519724405500043 19.47838981386106028 0 -1 0 I I #
vertex $-1 $446 $564 #
point $-1 4.282803017371854537 32.34154833859346923 15.90269352365068301 #
vertex $-1 $450 $565 #
point $-1 4.282803017371854537 34.79349628425519114 15.90269352365068301 #
vertex $-1 $454 $566 #
point $-1 4.282803017371854537 37.24544422991691306 15.90269352365068301 #
straight-curve $-1 0 53.23039448811000085 9.739194906930530138 0 0 -1 I I #
point $-1 0 0 0 #
straight-curve $-1 0 26.61519724405500043 0 0 1 0 I I #
point $-1 0 53.23039448811000085 0 #
straight-curve $-1 0 15.74769539707752664 3.117954553237664683 0 -1 0 I I #
point $-1 0 0 3.117954553237664683 #
point $-1 0 9.760387100200105692 3.117954553237664683 #
straight-curve $-1 0 9.760387100200105692 7.178574730084097411 0 0 -1 I I #
straight-curve $-1 0 0 9.739194906930530138 0 0 -1 I I #
point $-1 0 43.47000738790989516 3.117954553237664683 #
straight-curve $-1 0 37.48269909103247244 3.117954553237664683 0 -1 0 I I #
point $-1 0 53.23039448811000085 3.117954553237664683 #
straight-curve $-1 0 53.23039448811000085 9.739194906930530138 0 0 -1 I I #
straight-curve $-1 -9.372424438619326281 13.85210623096410032 19.47838981386105672 1 0 0 I I #
point $-1 0 13.85210623096410032 19.47838981386106028 #
straight-curve $-1 6.25740422309263522 22.27694169222764842 19.47838981386105672 0 1 0 I I #
point $-1 6.257404223092628115 13.85210623096410032 19.47838981386105672 #
point $-1 4.282803025576100708 15.48673819473857804 15.19558674246413688 #
point $-1 4.282803025576100708 17.93868614040029641 15.19558674246413688 #
point $-1 4.282803025576100708 20.39063408606201477 15.19558674246413688 #
straight-curve $-1 -9.372424438619326281 30.70691637481899505 19.47838981386105672 1 0 0 I I #
point $-1 0 30.70691637481899505 19.47838981386106028 #
straight-curve $-1 6.25740422309263522 30.70434676415509756 19.47838981386105672 0 1 0 I I #
point $-1 6.257404223092628115 30.70691637481899505 19.47838981386105672 #
point $-1 4.282803025576100708 32.34154833859346923 15.19558674246413688 #
point $-1 4.282803025576100708 34.79349628425519114 15.19558674246413688 #
point $-1 4.282803025576100708 37.24544422991691306 15.19558674246413688 #
End-of-ACIS-data 