600 0 4 0           
93 GICL ACIS Healer - Source: /gicl/data5/repository/Drexel/SM99-DATA/part86.smdg.feat.sat - 6 0 18 ACIS 6.0.3 Solaris 24 Sat Apr 13 20:46:18 2002 
1 9.999999999999999547e-07 1.000000000000000036e-10 
body $-1 $4 $-1 $-1 #
body $-1 $5 $-1 $-1 #
body $-1 $6 $-1 $-1 #
body $-1 $7 $-1 $-1 #
lump $-1 $-1 $8 $0 #
lump $-1 $-1 $9 $1 #
lump $-1 $-1 $10 $2 #
lump $-1 $-1 $11 $3 #
shell $-1 $-1 $-1 $12 $-1 $4 #
shell $-1 $-1 $-1 $13 $-1 $5 #
shell $-1 $-1 $-1 $14 $-1 $6 #
shell $-1 $-1 $-1 $15 $-1 $7 #
face $-1 $16 $17 $8 $-1 $18 forward single #
face $-1 $19 $20 $9 $-1 $21 forward single #
face $-1 $22 $23 $10 $-1 $24 forward single #
face $-1 $25 $26 $11 $-1 $27 forward single #
face $-1 $28 $29 $8 $-1 $30 reversed single #
loop $-1 $-1 $31 $12 #
plane-surface $-1 60.28382213812677293 24.61799444655520475 14.43616564505963318 0 0 1 1 0 0 forward_v I I I I #
face $-1 $32 $33 $9 $-1 $34 reversed single #
loop $-1 $-1 $35 $13 #
plane-surface $-1 60.28382213812677293 -3.196868109210789566 3.260968878903710344 0 0 1 1 0 0 forward_v I I I I #
face $-1 $36 $37 $10 $-1 $38 reversed single #
loop $-1 $-1 $39 $14 #
plane-surface $-1 107.7928166820120595 155.0332211736385943 230.4270567433684391 0 0.6018150307709319025 0.7986355043060522352 1 0 0 forward_v I I I I #
face $-1 $40 $41 $11 $-1 $42 forward single #
loop $-1 $43 $44 $15 #
cone-surface $-1 107.7928166820120595 43.43256249897509491 9.10133994875949881 0 -0.6018150307709319025 -0.7986355043060522352 1.5 0 0 1 I I 0 1 1.5 forward I I I I #
face $-1 $45 $46 $8 $-1 $47 reversed single #
loop $-1 $-1 $48 $16 #
plane-surface $-1 60.28382213812677293 24.61799444655520475 0 0 0 1 1 0 0 forward_v I I I I #
coedge $-1 $49 $50 $51 $52 forward $17 $-1 #
face $-1 $53 $54 $9 $-1 $55 reversed single #
loop $-1 $-1 $56 $19 #
plane-surface $-1 60.28382213812677293 -3.196868109210789566 0 0 0 1 1 0 0 forward_v I I I I #
coedge $-1 $57 $58 $59 $60 forward $20 $-1 #
face $-1 $61 $62 $10 $-1 $63 reversed single #
loop $-1 $-1 $64 $22 #
plane-surface $-1 107.7928166820120595 9.914380073453983755 37.84785396425151305 0 0.6018150307709319025 0.7986355043060522352 1 0 0 forward_v I I I I #
coedge $-1 $65 $66 $67 $68 forward $23 $-1 #
face $-1 $-1 $69 $11 $-1 $70 forward single #
loop $-1 $-1 $71 $25 #
plane-surface $-1 107.7928166820120595 45.10936404963692326 11.3265307192833049 0 0.6018150307709319025 0.7986355043060522352 -1 -0 0 forward_v I I I I #
loop $-1 $-1 $72 $15 #
coedge $-1 $44 $44 $71 $73 reversed $26 $-1 #
face $-1 $74 $75 $8 $-1 $76 reversed single #
loop $-1 $-1 $77 $28 #
plane-surface $-1 60.28382213812677293 0 7.218082822529816589 0 1 0 0 0 1 forward_v I I I I #
coedge $-1 $78 $79 $80 $81 forward $29 $-1 #
coedge $-1 $82 $31 $83 $84 forward $17 $-1 #
coedge $-1 $31 $82 $85 $86 forward $17 $-1 #
coedge $-1 $87 $88 $31 $52 reversed $89 $-1 #
edge $-1 $90 -24.61799444655520475 $91 24.61799444655520475 $51 $92 forward 7 unknown #
face $-1 $93 $94 $9 $-1 $95 reversed single #
loop $-1 $-1 $96 $32 #
plane-surface $-1 60.28382213812677293 -6.393736218421579132 1.630484439451855172 0 1 0 0 0 1 forward_v I I I I #
coedge $-1 $97 $98 $99 $100 forward $33 $-1 #
coedge $-1 $101 $35 $102 $103 forward $20 $-1 #
coedge $-1 $35 $101 $104 $105 forward $20 $-1 #
coedge $-1 $106 $107 $35 $60 reversed $108 $-1 #
edge $-1 $109 -3.196868109210789566 $110 3.196868109210789566 $59 $111 forward 7 unknown #
face $-1 $112 $113 $10 $-1 $114 reversed single #
loop $-1 $-1 $115 $36 #
plane-surface $-1 107.7928166820120595 -110.1054021555706299 279.2562964539945369 0 0.7986355043060522352 -0.6018150307709319025 0 0.6018150307709319025 0.7986355043060522352 forward_v I I I I #
coedge $-1 $116 $117 $118 $119 forward $37 $-1 #
coedge $-1 $120 $39 $121 $122 forward $23 $-1 #
coedge $-1 $39 $120 $123 $124 forward $23 $-1 #
coedge $-1 $125 $126 $39 $68 reversed $127 $-1 #
edge $-1 $128 -241.1352885525071201 $129 241.1352885525071486 $67 $130 forward 7 unknown #
loop $-1 $131 $132 $40 #
cone-surface $-1 107.7928166820120595 41.30439967523506795 6.277172550006152818 0 -0.6018150307709319025 -0.7986355043060522352 0.75 0 0 1 I I -0.7071067811865475727 0.7071067811865475727 0.75 forward I I I I #
coedge $-1 $71 $71 $44 $73 forward $41 $-1 #
coedge $-1 $72 $72 $132 $133 forward $43 $-1 #
edge $-1 $134 0 $134 6.283185307179586232 $71 $135 forward 7 unknown #
face $-1 $136 $137 $8 $-1 $138 reversed single #
loop $-1 $-1 $139 $45 #
plane-surface $-1 0 24.61799444655520475 7.218082822529816589 1 0 0 0 0 -1 forward_v I I I I #
coedge $-1 $140 $85 $141 $142 forward $46 $-1 #
coedge $-1 $143 $48 $140 $144 forward $29 $-1 #
coedge $-1 $48 $143 $145 $146 forward $29 $-1 #
coedge $-1 $88 $87 $48 $81 reversed $89 $-1 #
edge $-1 $147 -24.61799444655520475 $148 24.61799444655520475 $80 $149 forward 7 unknown #
coedge $-1 $50 $49 $150 $151 forward $17 $-1 #
coedge $-1 $152 $153 $49 $84 reversed $137 $-1 #
edge $-1 $91 -60.28382213812677293 $154 60.28382213812677293 $83 $155 forward 7 unknown #
coedge $-1 $77 $156 $50 $86 reversed $46 $-1 #
edge $-1 $157 -60.28382213812677293 $90 60.28382213812677293 $85 $158 forward 7 unknown #
coedge $-1 $80 $51 $156 $159 forward $89 $-1 #
coedge $-1 $51 $80 $152 $160 reversed $89 $-1 #
loop $-1 $-1 $87 $136 #
vertex $-1 $52 $161 #
vertex $-1 $52 $162 #
straight-curve $-1 120.5676442762535459 24.61799444655520475 14.43616564505963318 0 1 0 I I #
face $-1 $163 $164 $9 $-1 $165 reversed single #
loop $-1 $-1 $166 $53 #
plane-surface $-1 0 -3.196868109210789566 1.630484439451855172 1 0 0 0 0 -1 forward_v I I I I #
coedge $-1 $167 $104 $168 $169 forward $54 $-1 #
coedge $-1 $170 $56 $167 $171 forward $33 $-1 #
coedge $-1 $56 $170 $172 $173 forward $33 $-1 #
coedge $-1 $107 $106 $56 $100 reversed $108 $-1 #
edge $-1 $174 -3.196868109210789566 $175 3.196868109210789566 $99 $176 forward 7 unknown #
coedge $-1 $58 $57 $177 $178 forward $20 $-1 #
coedge $-1 $179 $180 $57 $103 reversed $164 $-1 #
edge $-1 $110 -60.28382213812677293 $181 60.28382213812677293 $102 $182 forward 7 unknown #
coedge $-1 $96 $183 $58 $105 reversed $54 $-1 #
edge $-1 $184 -60.28382213812677293 $109 60.28382213812677293 $104 $185 forward 7 unknown #
coedge $-1 $99 $59 $183 $186 forward $108 $-1 #
coedge $-1 $59 $99 $179 $187 reversed $108 $-1 #
loop $-1 $-1 $106 $163 #
vertex $-1 $60 $188 #
vertex $-1 $60 $189 #
straight-curve $-1 120.5676442762535459 -3.196868109210789566 3.260968878903710344 0 1 0 I I #
face $-1 $190 $191 $10 $-1 $192 reversed single #
loop $-1 $-1 $193 $61 #
plane-surface $-1 95.01798908777057306 82.47380062354628194 134.137455353809969 1 0 0 0 -0.6018150307709319025 -0.7986355043060522352 forward_v I I I I #
coedge $-1 $194 $123 $195 $196 forward $62 $-1 #
coedge $-1 $197 $64 $194 $198 forward $37 $-1 #
coedge $-1 $64 $197 $199 $200 forward $37 $-1 #
coedge $-1 $126 $125 $64 $119 reversed $127 $-1 #
edge $-1 $201 -241.1352885525071201 $202 241.1352885525071486 $118 $203 forward 7 unknown #
coedge $-1 $66 $65 $204 $205 forward $23 $-1 #
coedge $-1 $206 $207 $65 $122 reversed $191 $-1 #
edge $-1 $129 -12.77482759424148639 $208 12.77482759424148639 $121 $209 forward 7 unknown #
coedge $-1 $115 $210 $66 $124 reversed $62 $-1 #
edge $-1 $211 -12.77482759424148639 $128 12.77482759424148639 $123 $212 forward 7 unknown #
coedge $-1 $118 $67 $210 $213 forward $127 $-1 #
coedge $-1 $67 $118 $206 $214 reversed $127 $-1 #
loop $-1 $-1 $125 $190 #
vertex $-1 $68 $215 #
vertex $-1 $68 $216 #
straight-curve $-1 120.5676442762535459 155.0332211736385943 230.4270567433684391 0 0.7986355043060522352 -0.6018150307709319025 I I #
loop $-1 $-1 $217 $40 #
coedge $-1 $132 $132 $72 $133 reversed $69 $-1 #
edge $-1 $218 0 $218 6.283185307179586232 $132 $219 forward 7 unknown #
vertex $-1 $73 $220 #
ellipse-curve $-1 107.7928166820120595 45.10936404963692326 11.3265307192833049 0 0.6018150307709319025 0.7986355043060522352 1.5 0 0 1 I I #
face $-1 $-1 $89 $8 $-1 $221 reversed single #
loop $-1 $-1 $152 $74 #
plane-surface $-1 60.28382213812677293 49.23598889311040949 7.218082822529816589 0 -1 0 0 0 -1 forward_v I I I I #
coedge $-1 $222 $150 $153 $223 forward $75 $-1 #
coedge $-1 $156 $77 $78 $144 reversed $46 $-1 #
coedge $-1 $150 $222 $77 $142 reversed $75 $-1 #
edge $-1 $157 -7.218082822529816589 $224 7.218082822529816589 $141 $225 forward 7 unknown #
coedge $-1 $79 $78 $222 $226 forward $29 $-1 #
edge $-1 $148 -60.28382213812677293 $224 60.28382213812677293 $140 $227 forward 7 unknown #
coedge $-1 $153 $152 $79 $146 reversed $137 $-1 #
edge $-1 $228 -60.28382213812677293 $147 60.28382213812677293 $145 $229 forward 7 unknown #
vertex $-1 $81 $230 #
vertex $-1 $159 $231 #
straight-curve $-1 120.5676442762535459 24.61799444655520475 0 0 -1 0 I I #
coedge $-1 $139 $141 $82 $151 reversed $75 $-1 #
edge $-1 $154 -24.61799444655520475 $157 24.61799444655520475 $150 $232 forward 7 unknown #
coedge $-1 $145 $83 $88 $160 forward $137 $-1 #
coedge $-1 $83 $145 $139 $223 reversed $137 $-1 #
vertex $-1 $84 $233 #
straight-curve $-1 60.28382213812677293 49.23598889311040949 14.43616564505963318 -1 0 0 I I #
coedge $-1 $85 $140 $87 $159 reversed $46 $-1 #
vertex $-1 $151 $234 #
straight-curve $-1 60.28382213812677293 0 14.43616564505963318 1 0 0 I I #
edge $-1 $90 -7.218082822529816589 $148 7.218082822529816589 $87 $235 forward 7 unknown #
edge $-1 $91 -7.218082822529816589 $147 7.218082822529816589 $88 $236 forward 7 unknown #
point $-1 120.5676442762535459 0 14.43616564505963318 #
point $-1 120.5676442762535459 49.23598889311040949 14.43616564505963318 #
face $-1 $-1 $108 $9 $-1 $237 reversed single #
loop $-1 $-1 $179 $93 #
plane-surface $-1 60.28382213812677293 0 1.630484439451855172 0 -1 0 0 0 -1 forward_v I I I I #
coedge $-1 $238 $177 $180 $239 forward $94 $-1 #
coedge $-1 $183 $96 $97 $171 reversed $54 $-1 #
coedge $-1 $177 $238 $96 $169 reversed $94 $-1 #
edge $-1 $184 -1.630484439451855172 $240 1.630484439451855172 $168 $241 forward 7 unknown #
coedge $-1 $98 $97 $238 $242 forward $33 $-1 #
edge $-1 $175 -60.28382213812677293 $240 60.28382213812677293 $167 $243 forward 7 unknown #
coedge $-1 $180 $179 $98 $173 reversed $164 $-1 #
edge $-1 $244 -60.28382213812677293 $174 60.28382213812677293 $172 $245 forward 7 unknown #
vertex $-1 $100 $246 #
vertex $-1 $186 $247 #
straight-curve $-1 120.5676442762535459 -3.196868109210789566 0 0 -1 0 I I #
coedge $-1 $166 $168 $101 $178 reversed $94 $-1 #
edge $-1 $181 -3.196868109210789566 $184 3.196868109210789566 $177 $248 forward 7 unknown #
coedge $-1 $172 $102 $107 $187 forward $164 $-1 #
coedge $-1 $102 $172 $166 $239 reversed $164 $-1 #
vertex $-1 $103 $249 #
straight-curve $-1 60.28382213812677293 0 3.260968878903710344 -1 0 0 I I #
coedge $-1 $104 $167 $106 $186 reversed $54 $-1 #
vertex $-1 $178 $250 #
straight-curve $-1 60.28382213812677293 -6.393736218421579132 3.260968878903710344 1 0 0 I I #
edge $-1 $109 -1.630484439451855172 $175 1.630484439451855172 $106 $251 forward 7 unknown #
edge $-1 $110 -1.630484439451855172 $174 1.630484439451855172 $107 $252 forward 7 unknown #
point $-1 120.5676442762535459 -6.393736218421579132 3.260968878903710344 #
point $-1 120.5676442762535459 0 3.260968878903710344 #
face $-1 $-1 $127 $10 $-1 $253 reversed single #
loop $-1 $-1 $206 $112 #
plane-surface $-1 107.7928166820120595 275.0530034026631938 -10.98138574637462739 0 -0.7986355043060522352 0.6018150307709319025 0 -0.6018150307709319025 -0.7986355043060522352 forward_v I I I I #
coedge $-1 $254 $204 $207 $255 forward $113 $-1 #
coedge $-1 $210 $115 $116 $198 reversed $62 $-1 #
coedge $-1 $204 $254 $115 $196 reversed $113 $-1 #
edge $-1 $211 -120.5676442762535601 $256 120.5676442762535316 $195 $257 forward 7 unknown #
coedge $-1 $117 $116 $254 $258 forward $37 $-1 #
edge $-1 $202 -12.77482759424148639 $256 12.77482759424148639 $194 $259 forward 7 unknown #
coedge $-1 $207 $206 $117 $200 reversed $191 $-1 #
edge $-1 $260 -12.77482759424148639 $201 12.77482759424148639 $199 $261 forward 7 unknown #
vertex $-1 $119 $262 #
vertex $-1 $213 $263 #
straight-curve $-1 120.5676442762535459 9.914380073453983755 37.84785396425151305 0 -0.7986355043060522352 0.6018150307709319025 I I #
coedge $-1 $193 $195 $120 $205 reversed $113 $-1 #
edge $-1 $208 -241.1352885525071486 $211 241.1352885525071201 $204 $264 forward 7 unknown #
coedge $-1 $199 $121 $126 $214 forward $191 $-1 #
coedge $-1 $121 $199 $193 $255 reversed $191 $-1 #
vertex $-1 $122 $265 #
straight-curve $-1 107.7928166820120595 347.6124239527555346 85.30821564318382855 -1 0 0 I I #
coedge $-1 $123 $194 $125 $213 reversed $62 $-1 #
vertex $-1 $205 $266 #
straight-curve $-1 107.7928166820120595 -37.54598160547833174 375.5458978435530071 1 0 0 I I #
edge $-1 $128 -120.5676442762535601 $202 120.5676442762535316 $125 $267 forward 7 unknown #
edge $-1 $129 -120.5676442762535743 $201 120.5676442762535316 $126 $268 forward 7 unknown #
point $-1 120.5676442762535459 -37.54598160547833174 375.5458978435530071 #
point $-1 120.5676442762535459 347.6124239527555346 85.30821564318382855 #
coedge $-1 $217 $217 $-1 $269 reversed $131 $-1 #
vertex $-1 $133 $270 #
ellipse-curve $-1 107.7928166820120595 41.75576094831326657 6.876149178235691828 0 0.6018150307709319025 0.7986355043060522352 1.5 0 0 1 I I #
point $-1 109.2928166820120595 45.10936404963692326 11.3265307192833049 #
plane-surface $-1 120.5676442762535459 24.61799444655520475 7.218082822529816589 -1 0 0 0 0 1 forward_v I I I I #
coedge $-1 $141 $139 $143 $226 reversed $75 $-1 #
edge $-1 $154 -7.218082822529816589 $228 7.218082822529816589 $153 $271 forward 7 unknown #
vertex $-1 $226 $272 #
straight-curve $-1 0 0 7.218082822529816589 0 0 -1 I I #
edge $-1 $224 -24.61799444655520475 $228 24.61799444655520475 $222 $273 forward 7 unknown #
straight-curve $-1 60.28382213812677293 0 0 -1 0 0 I I #
vertex $-1 $146 $274 #
straight-curve $-1 60.28382213812677293 49.23598889311040949 0 1 0 0 I I #
point $-1 120.5676442762535459 49.23598889311040949 0 #
point $-1 120.5676442762535459 0 0 #
straight-curve $-1 0 24.61799444655520475 14.43616564505963318 0 -1 0 I I #
point $-1 0 49.23598889311040949 14.43616564505963318 #
point $-1 0 0 14.43616564505963318 #
straight-curve $-1 120.5676442762535459 0 7.218082822529816589 0 0 -1 I I #
straight-curve $-1 120.5676442762535459 49.23598889311040949 7.218082822529816589 0 0 -1 I I #
plane-surface $-1 120.5676442762535459 -3.196868109210789566 1.630484439451855172 -1 0 0 0 0 1 forward_v I I I I #
coedge $-1 $168 $166 $170 $242 reversed $94 $-1 #
edge $-1 $181 -1.630484439451855172 $244 1.630484439451855172 $180 $275 forward 7 unknown #
vertex $-1 $242 $276 #
straight-curve $-1 0 -6.393736218421579132 1.630484439451855172 0 0 -1 I I #
edge $-1 $240 -3.196868109210789566 $244 3.196868109210789566 $238 $277 forward 7 unknown #
straight-curve $-1 60.28382213812677293 -6.393736218421579132 0 -1 0 0 I I #
vertex $-1 $173 $278 #
straight-curve $-1 60.28382213812677293 0 0 1 0 0 I I #
point $-1 120.5676442762535459 0 0 #
point $-1 120.5676442762535459 -6.393736218421579132 0 #
straight-curve $-1 0 -3.196868109210789566 3.260968878903710344 0 -1 0 I I #
point $-1 0 0 3.260968878903710344 #
point $-1 0 -6.393736218421579132 3.260968878903710344 #
straight-curve $-1 120.5676442762535459 -6.393736218421579132 1.630484439451855172 0 0 -1 I I #
straight-curve $-1 120.5676442762535459 0 1.630484439451855172 0 0 -1 I I #
plane-surface $-1 120.5676442762535459 82.47380062354628194 134.137455353809969 -1 0 0 0 0.6018150307709319025 0.7986355043060522352 forward_v I I I I #
coedge $-1 $195 $193 $197 $258 reversed $113 $-1 #
edge $-1 $208 -120.5676442762535743 $260 120.5676442762535316 $207 $279 forward 7 unknown #
vertex $-1 $258 $280 #
straight-curve $-1 95.01798908777057306 -110.1054021555706299 279.2562964539945369 0 -0.6018150307709319025 -0.7986355043060522352 I I #
edge $-1 $256 -241.1352885525071486 $260 241.1352885525071201 $254 $281 forward 7 unknown #
straight-curve $-1 107.7928166820120595 -182.6648227056629423 182.9666950644361236 -1 0 0 I I #
vertex $-1 $200 $282 #
straight-curve $-1 107.7928166820120595 202.4935828525709098 -107.2709871359330691 1 0 0 I I #
point $-1 120.5676442762535459 202.4935828525709098 -107.2709871359330691 #
point $-1 120.5676442762535459 -182.6648227056629423 182.9666950644361236 #
straight-curve $-1 95.01798908777057306 155.0332211736385943 230.4270567433684391 0 -0.7986355043060522352 0.6018150307709319025 I I #
point $-1 95.01798908777057306 347.6124239527555346 85.30821564318382855 #
point $-1 95.01798908777057306 -37.54598160547833174 375.5458978435530071 #
straight-curve $-1 120.5676442762535459 -110.1054021555706299 279.2562964539945369 0 -0.6018150307709319025 -0.7986355043060522352 I I #
straight-curve $-1 120.5676442762535459 275.0530034026631938 -10.98138574637462739 0 -0.6018150307709319025 -0.7986355043060522352 I I #
edge $-1 $283 1 $283 0 $217 $-1 forward 7 unknown #
point $-1 109.2928166820120595 41.75576094831326657 6.876149178235691828 #
straight-curve $-1 0 49.23598889311040949 7.218082822529816589 0 0 -1 I I #
point $-1 0 0 0 #
straight-curve $-1 0 24.61799444655520475 0 0 1 0 I I #
point $-1 0 49.23598889311040949 0 #
straight-curve $-1 0 0 1.630484439451855172 0 0 -1 I I #
point $-1 0 -6.393736218421579132 0 #
straight-curve $-1 0 -3.196868109210789566 0 0 1 0 I I #
point $-1 0 0 0 #
straight-curve $-1 95.01798908777057306 275.0530034026631938 -10.98138574637462739 0 -0.6018150307709319025 -0.7986355043060522352 I I #
point $-1 95.01798908777057306 -182.6648227056629423 182.9666950644361236 #
straight-curve $-1 95.01798908777057306 9.914380073453983755 37.84785396425151305 0 0.7986355043060522352 -0.6018150307709319025 I I #
point $-1 95.01798908777057306 202.4935828525709098 -107.2709871359330691 #
vertex $-1 $269 $284 #
point $-1 107.7928166820120595 40.85303840215686932 5.678195921776613808 #
End-of-ACIS-data 