600 0 14 0           
96 GICL ACIS Healer - Source: /gicl/data5/repository/Drexel/SM99-DATA/part103.smdg.deltas.sat - 6 0 18 ACIS 6.0.3 Solaris 24 Sat Apr 13 20:43:13 2002 
1 9.999999999999999547e-07 1.000000000000000036e-10 
body $-1 $14 $-1 $-1 #
body $-1 $15 $-1 $-1 #
body $-1 $16 $-1 $-1 #
body $-1 $17 $-1 $-1 #
body $-1 $18 $-1 $-1 #
body $-1 $19 $-1 $-1 #
body $-1 $20 $-1 $-1 #
body $-1 $21 $-1 $-1 #
body $-1 $22 $-1 $-1 #
body $-1 $23 $-1 $-1 #
body $-1 $24 $-1 $-1 #
body $-1 $25 $-1 $-1 #
body $-1 $26 $-1 $-1 #
body $-1 $27 $-1 $-1 #
lump $-1 $-1 $28 $0 #
lump $-1 $-1 $29 $1 #
lump $-1 $-1 $30 $2 #
lump $-1 $-1 $31 $3 #
lump $-1 $-1 $32 $4 #
lump $-1 $-1 $33 $5 #
lump $-1 $-1 $34 $6 #
lump $-1 $-1 $35 $7 #
lump $-1 $-1 $36 $8 #
lump $-1 $-1 $37 $9 #
lump $-1 $-1 $38 $10 #
lump $-1 $-1 $39 $11 #
lump $-1 $-1 $40 $12 #
lump $-1 $-1 $41 $13 #
shell $-1 $-1 $-1 $42 $-1 $14 #
shell $-1 $-1 $-1 $43 $-1 $15 #
shell $-1 $-1 $-1 $44 $-1 $16 #
shell $-1 $-1 $-1 $45 $-1 $17 #
shell $-1 $-1 $-1 $46 $-1 $18 #
shell $-1 $-1 $-1 $47 $-1 $19 #
shell $-1 $-1 $-1 $48 $-1 $20 #
shell $-1 $-1 $-1 $49 $-1 $21 #
shell $-1 $-1 $-1 $50 $-1 $22 #
shell $-1 $-1 $-1 $51 $-1 $23 #
shell $-1 $-1 $-1 $52 $-1 $24 #
shell $-1 $-1 $-1 $53 $-1 $25 #
shell $-1 $-1 $-1 $54 $-1 $26 #
shell $-1 $-1 $-1 $55 $-1 $27 #
face $-1 $56 $57 $28 $-1 $58 forward single #
face $-1 $59 $60 $29 $-1 $61 reversed single #
face $-1 $62 $63 $30 $-1 $64 reversed single #
face $-1 $65 $66 $31 $-1 $67 forward single #
face $-1 $68 $69 $32 $-1 $70 forward single #
face $-1 $71 $72 $33 $-1 $73 reversed single #
face $-1 $74 $75 $34 $-1 $76 forward single #
face $-1 $77 $78 $35 $-1 $79 forward single #
face $-1 $80 $81 $36 $-1 $82 reversed single #
face $-1 $83 $84 $37 $-1 $85 forward single #
face $-1 $86 $87 $38 $-1 $88 forward single #
face $-1 $89 $90 $39 $-1 $91 reversed single #
face $-1 $92 $93 $40 $-1 $94 forward single #
face $-1 $95 $96 $41 $-1 $97 forward single #
face $-1 $98 $99 $28 $-1 $100 reversed single #
loop $-1 $-1 $101 $42 #
plane-surface $-1 46.8056276131473723 28.04238039757996148 24.57172182449283682 0 0 1 1 0 0 forward_v I I I I #
face $-1 $102 $103 $29 $-1 $104 reversed single #
loop $-1 $-1 $105 $43 #
plane-surface $-1 4.892743716467080617 28.04238039757996148 19.11003105132688518 0 0 1 1 0 0 forward_v I I I I #
face $-1 $106 $107 $30 $-1 $108 reversed single #
loop $-1 $-1 $109 $44 #
plane-surface $-1 16.92100643280108585 105.7512138464698239 118.6392493438905831 1 0 0 0 -0.8480481040810504689 -0.529919251551154491 forward_v I I I I #
face $-1 $110 $111 $31 $-1 $112 forward single #
loop $-1 $113 $114 $45 #
cone-surface $-1 20.18551847280031453 54.44285530338879653 22.60051795585032863 0 -0.8480481040810504689 -0.529919251551154491 0.5 0 0 1 I I 0 1 0.5 forward I I I I #
face $-1 $115 $116 $32 $-1 $117 forward single #
loop $-1 $118 $119 $46 #
cone-surface $-1 25.08228653279915576 54.44285530338879653 22.60051795585032863 0 -0.8480481040810504689 -0.529919251551154491 0.5 0 0 1 I I 0 1 0.5 forward I I I I #
face $-1 $120 $121 $33 $-1 $122 reversed single #
loop $-1 $-1 $123 $47 #
plane-surface $-1 37.87744838114123525 105.7512138464698239 118.6392493438905831 1 0 0 0 -0.8480481040810504689 -0.529919251551154491 forward_v I I I I #
face $-1 $124 $125 $34 $-1 $126 forward single #
loop $-1 $127 $128 $48 #
cone-surface $-1 41.14196042114046037 54.44285530338879653 22.60051795585032863 0 -0.8480481040810504689 -0.529919251551154491 0.5 0 0 1 I I 0 1 0.5 forward I I I I #
face $-1 $129 $130 $35 $-1 $131 forward single #
loop $-1 $132 $133 $49 #
cone-surface $-1 46.03872848113930161 54.44285530338879653 22.60051795585032863 0 -0.8480481040810504689 -0.529919251551154491 0.5 0 0 1 I I 0 1 0.5 forward I I I I #
face $-1 $134 $135 $36 $-1 $136 reversed single #
loop $-1 $-1 $137 $50 #
plane-surface $-1 58.83389032948137753 105.7512138464698239 118.6392493438905831 1 0 0 0 -0.8480481040810504689 -0.529919251551154491 forward_v I I I I #
face $-1 $138 $139 $37 $-1 $140 forward single #
loop $-1 $141 $142 $51 #
cone-surface $-1 62.09840236948060976 54.44285530338879653 22.60051795585032863 0 -0.8480481040810504689 -0.529919251551154491 0.5 0 0 1 I I 0 1 0.5 forward I I I I #
face $-1 $143 $144 $38 $-1 $145 forward single #
loop $-1 $146 $147 $52 #
cone-surface $-1 66.9951704294794439 54.44285530338879653 22.60051795585032863 0 -0.8480481040810504689 -0.529919251551154491 0.5 0 0 1 I I 0 1 0.5 forward I I I I #
face $-1 $148 $149 $39 $-1 $150 reversed single #
loop $-1 $-1 $151 $53 #
plane-surface $-1 79.79033227782151982 105.7512138464698239 118.6392493438905831 1 0 0 0 -0.8480481040810504689 -0.529919251551154491 forward_v I I I I #
face $-1 $152 $153 $40 $-1 $154 forward single #
loop $-1 $155 $156 $54 #
cone-surface $-1 83.05484431782075205 54.44285530338879653 22.60051795585032863 0 -0.8480481040810504689 -0.529919251551154491 0.5 0 0 1 I I 0 1 0.5 forward I I I I #
face $-1 $157 $158 $41 $-1 $159 forward single #
loop $-1 $160 $161 $55 #
cone-surface $-1 87.95161237781958619 54.44285530338879653 22.60051795585032863 0 -0.8480481040810504689 -0.529919251551154491 0.5 0 0 1 I I 0 1 0.5 forward I I I I #
face $-1 $162 $163 $28 $-1 $164 reversed single #
loop $-1 $-1 $165 $56 #
plane-surface $-1 46.8056276131473723 28.04238039757996148 0 0 0 1 1 0 0 forward_v I I I I #
coedge $-1 $166 $167 $168 $169 forward $57 $-1 #
face $-1 $170 $171 $29 $-1 $172 reversed single #
loop $-1 $-1 $173 $59 #
plane-surface $-1 9.785487432934161234 28.04238039757996148 21.84087643790986277 -1 0 0 0 0 1 forward_v I I I I #
coedge $-1 $174 $175 $176 $177 forward $60 $-1 #
face $-1 $178 $179 $30 $-1 $180 reversed single #
loop $-1 $-1 $181 $62 #
plane-surface $-1 22.63390250279973515 26.36436633116322525 69.03284303760835883 0 0.8480481040810504689 0.529919251551154491 1 0 0 forward_v I I I I #
coedge $-1 $182 $183 $184 $185 reversed $63 $-1 #
face $-1 $-1 $186 $31 $-1 $187 forward single #
loop $-1 $188 $189 $65 #
cone-surface $-1 20.18551847280031453 53.55793948104658853 22.04756119784955359 0 -0.8480481040810504689 -0.529919251551154491 0.25 0 0 1 I I -0.7071067811865474617 0.7071067811865474617 0.25 forward I I I I #
loop $-1 $-1 $190 $45 #
coedge $-1 $114 $114 $191 $192 reversed $66 $-1 #
face $-1 $-1 $193 $32 $-1 $194 forward single #
loop $-1 $195 $196 $68 #
cone-surface $-1 25.08228653279915576 53.55793948104658853 22.04756119784955359 0 -0.8480481040810504689 -0.529919251551154491 0.25 0 0 1 I I -0.7071067811865474617 0.7071067811865474617 0.25 forward I I I I #
loop $-1 $-1 $197 $46 #
coedge $-1 $119 $119 $198 $199 reversed $69 $-1 #
face $-1 $200 $201 $33 $-1 $202 reversed single #
loop $-1 $-1 $203 $71 #
plane-surface $-1 43.59034445113988454 26.36436633116322525 69.03284303760835883 0 0.8480481040810504689 0.529919251551154491 1 0 0 forward_v I I I I #
coedge $-1 $204 $205 $206 $207 reversed $72 $-1 #
face $-1 $-1 $208 $34 $-1 $209 forward single #
loop $-1 $210 $211 $74 #
cone-surface $-1 41.14196042114046037 53.55793948104658853 22.04756119784955359 0 -0.8480481040810504689 -0.529919251551154491 0.25 0 0 1 I I -0.7071067811865474617 0.7071067811865474617 0.25 forward I I I I #
loop $-1 $-1 $212 $48 #
coedge $-1 $128 $128 $213 $214 reversed $75 $-1 #
face $-1 $-1 $215 $35 $-1 $216 forward single #
loop $-1 $217 $218 $77 #
cone-surface $-1 46.03872848113930161 53.55793948104658853 22.04756119784955359 0 -0.8480481040810504689 -0.529919251551154491 0.25 0 0 1 I I -0.7071067811865474617 0.7071067811865474617 0.25 forward I I I I #
loop $-1 $-1 $219 $49 #
coedge $-1 $133 $133 $220 $221 reversed $78 $-1 #
face $-1 $222 $223 $36 $-1 $224 reversed single #
loop $-1 $-1 $225 $80 #
plane-surface $-1 64.54678639948002683 26.36436633116322525 69.03284303760835883 0 0.8480481040810504689 0.529919251551154491 1 0 0 forward_v I I I I #
coedge $-1 $226 $227 $228 $229 reversed $81 $-1 #
face $-1 $-1 $230 $37 $-1 $231 forward single #
loop $-1 $232 $233 $83 #
cone-surface $-1 62.09840236948060976 53.55793948104658853 22.04756119784955359 0 -0.8480481040810504689 -0.529919251551154491 0.25 0 0 1 I I -0.7071067811865474617 0.7071067811865474617 0.25 forward I I I I #
loop $-1 $-1 $234 $51 #
coedge $-1 $142 $142 $235 $236 reversed $84 $-1 #
face $-1 $-1 $237 $38 $-1 $238 forward single #
loop $-1 $239 $240 $86 #
cone-surface $-1 66.9951704294794439 53.55793948104658853 22.04756119784955359 0 -0.8480481040810504689 -0.529919251551154491 0.25 0 0 1 I I -0.7071067811865474617 0.7071067811865474617 0.25 forward I I I I #
loop $-1 $-1 $241 $52 #
coedge $-1 $147 $147 $242 $243 reversed $87 $-1 #
face $-1 $244 $245 $39 $-1 $246 reversed single #
loop $-1 $-1 $247 $89 #
plane-surface $-1 85.50322834782016912 26.36436633116322525 69.03284303760835883 0 0.8480481040810504689 0.529919251551154491 1 0 0 forward_v I I I I #
coedge $-1 $248 $249 $250 $251 reversed $90 $-1 #
face $-1 $-1 $252 $40 $-1 $253 forward single #
loop $-1 $254 $255 $92 #
cone-surface $-1 83.05484431782075205 53.55793948104658853 22.04756119784955359 0 -0.8480481040810504689 -0.529919251551154491 0.25 0 0 1 I I -0.7071067811865474617 0.7071067811865474617 0.25 forward I I I I #
loop $-1 $-1 $256 $54 #
coedge $-1 $156 $156 $257 $258 reversed $93 $-1 #
face $-1 $-1 $259 $41 $-1 $260 forward single #
loop $-1 $261 $262 $95 #
cone-surface $-1 87.95161237781958619 53.55793948104658853 22.04756119784955359 0 -0.8480481040810504689 -0.529919251551154491 0.25 0 0 1 I I -0.7071067811865474617 0.7071067811865474617 0.25 forward I I I I #
loop $-1 $-1 $263 $55 #
coedge $-1 $161 $161 $264 $265 reversed $96 $-1 #
face $-1 $266 $267 $28 $-1 $268 reversed single #
loop $-1 $-1 $269 $98 #
plane-surface $-1 46.8056276131473723 0 12.28586091224641841 0 1 0 0 0 1 forward_v I I I I #
coedge $-1 $270 $271 $272 $273 forward $99 $-1 #
coedge $-1 $274 $101 $275 $276 forward $57 $-1 #
coedge $-1 $101 $274 $277 $278 forward $57 $-1 #
coedge $-1 $279 $280 $101 $169 reversed $281 $-1 #
edge $-1 $282 -28.04238039757996148 $283 28.04238039757996148 $168 $284 forward 7 unknown #
face $-1 $285 $286 $29 $-1 $287 reversed single #
loop $-1 $-1 $288 $102 #
plane-surface $-1 46.8056276131473723 56.08476079515992296 12.28586091224641841 0 -1 0 0 0 -1 forward_v I I I I #
coedge $-1 $176 $289 $290 $291 reversed $103 $-1 #
coedge $-1 $292 $105 $293 $294 reversed $60 $-1 #
coedge $-1 $105 $292 $295 $296 reversed $60 $-1 #
coedge $-1 $297 $173 $105 $177 reversed $103 $-1 #
edge $-1 $298 -28.04238039757996148 $299 28.04238039757996148 $176 $300 forward 7 unknown #
face $-1 $301 $302 $30 $-1 $303 forward single #
loop $-1 $-1 $304 $106 #
plane-surface $-1 28.34679857279838444 105.7512138464698239 118.6392493438905831 -1 0 0 0 0.8480481040810504689 0.529919251551154491 forward_v I I I I #
coedge $-1 $305 $306 $307 $308 reversed $107 $-1 #
coedge $-1 $183 $109 $309 $310 reversed $63 $-1 #
coedge $-1 $109 $182 $305 $311 reversed $63 $-1 #
coedge $-1 $307 $312 $109 $185 forward $302 $-1 #
edge $-1 $313 10.81203632686496974 $314 12.75003971776334311 $184 $315 forward 7 unknown #
loop $-1 $-1 $191 $110 #
plane-surface $-1 22.63390250279973515 26.36436633116322525 69.03284303760835883 0 0.8480481040810504689 0.529919251551154491 1 0 0 forward_v I I I I #
loop $-1 $-1 $316 $65 #
coedge $-1 $189 $189 $190 $317 reversed $111 $-1 #
coedge $-1 $190 $190 $189 $317 forward $113 $-1 #
coedge $-1 $191 $191 $114 $192 forward $186 $-1 #
edge $-1 $318 4.514583885848646482e-15 $318 6.283185307179590673 $191 $319 forward 7 unknown #
loop $-1 $-1 $198 $115 #
plane-surface $-1 22.63390250279973515 26.36436633116322525 69.03284303760835883 0 0.8480481040810504689 0.529919251551154491 1 0 0 forward_v I I I I #
loop $-1 $-1 $320 $68 #
coedge $-1 $196 $196 $197 $321 reversed $116 $-1 #
coedge $-1 $197 $197 $196 $321 forward $118 $-1 #
coedge $-1 $198 $198 $119 $199 forward $193 $-1 #
edge $-1 $322 4.514583885848646482e-15 $322 6.283185307179590673 $198 $323 forward 7 unknown #
face $-1 $324 $325 $33 $-1 $326 forward single #
loop $-1 $-1 $327 $120 #
plane-surface $-1 49.30324052113853384 105.7512138464698239 118.6392493438905831 -1 0 0 0 0.8480481040810504689 0.529919251551154491 forward_v I I I I #
coedge $-1 $328 $329 $330 $331 reversed $121 $-1 #
coedge $-1 $205 $123 $332 $333 reversed $72 $-1 #
coedge $-1 $123 $204 $328 $334 reversed $72 $-1 #
coedge $-1 $330 $335 $123 $207 forward $325 $-1 #
edge $-1 $336 10.81203632686496974 $337 12.75003971776334311 $206 $338 forward 7 unknown #
loop $-1 $-1 $213 $124 #
plane-surface $-1 43.59034445113988454 26.36436633116322525 69.03284303760835883 0 0.8480481040810504689 0.529919251551154491 1 0 0 forward_v I I I I #
loop $-1 $-1 $339 $74 #
coedge $-1 $211 $211 $212 $340 reversed $125 $-1 #
coedge $-1 $212 $212 $211 $340 forward $127 $-1 #
coedge $-1 $213 $213 $128 $214 forward $208 $-1 #
edge $-1 $341 4.514583885848646482e-15 $341 6.283185307179590673 $213 $342 forward 7 unknown #
loop $-1 $-1 $220 $129 #
plane-surface $-1 43.59034445113988454 26.36436633116322525 69.03284303760835883 0 0.8480481040810504689 0.529919251551154491 1 0 0 forward_v I I I I #
loop $-1 $-1 $343 $77 #
coedge $-1 $218 $218 $219 $344 reversed $130 $-1 #
coedge $-1 $219 $219 $218 $344 forward $132 $-1 #
coedge $-1 $220 $220 $133 $221 forward $215 $-1 #
edge $-1 $345 4.514583885848646482e-15 $345 6.283185307179590673 $220 $346 forward 7 unknown #
face $-1 $347 $348 $36 $-1 $349 forward single #
loop $-1 $-1 $350 $134 #
plane-surface $-1 70.25968246947867613 105.7512138464698239 118.6392493438905831 -1 0 0 0 0.8480481040810504689 0.529919251551154491 forward_v I I I I #
coedge $-1 $351 $352 $353 $354 reversed $135 $-1 #
coedge $-1 $227 $137 $355 $356 reversed $81 $-1 #
coedge $-1 $137 $226 $351 $357 reversed $81 $-1 #
coedge $-1 $353 $358 $137 $229 forward $348 $-1 #
edge $-1 $359 10.81203632686496974 $360 12.75003971776334311 $228 $361 forward 7 unknown #
loop $-1 $-1 $235 $138 #
plane-surface $-1 64.54678639948002683 26.36436633116322525 69.03284303760835883 0 0.8480481040810504689 0.529919251551154491 1 0 0 forward_v I I I I #
loop $-1 $-1 $362 $83 #
coedge $-1 $233 $233 $234 $363 reversed $139 $-1 #
coedge $-1 $234 $234 $233 $363 forward $141 $-1 #
coedge $-1 $235 $235 $142 $236 forward $230 $-1 #
edge $-1 $364 4.514583885848646482e-15 $364 6.283185307179590673 $235 $365 forward 7 unknown #
loop $-1 $-1 $242 $143 #
plane-surface $-1 64.54678639948002683 26.36436633116322525 69.03284303760835883 0 0.8480481040810504689 0.529919251551154491 1 0 0 forward_v I I I I #
loop $-1 $-1 $366 $86 #
coedge $-1 $240 $240 $241 $367 reversed $144 $-1 #
coedge $-1 $241 $241 $240 $367 forward $146 $-1 #
coedge $-1 $242 $242 $147 $243 forward $237 $-1 #
edge $-1 $368 4.514583885848646482e-15 $368 6.283185307179590673 $242 $369 forward 7 unknown #
face $-1 $370 $371 $39 $-1 $372 forward single #
loop $-1 $-1 $373 $148 #
plane-surface $-1 91.21612441781881842 105.7512138464698239 118.6392493438905831 -1 0 0 0 0.8480481040810504689 0.529919251551154491 forward_v I I I I #
coedge $-1 $374 $375 $376 $377 reversed $149 $-1 #
coedge $-1 $249 $151 $378 $379 reversed $90 $-1 #
coedge $-1 $151 $248 $374 $380 reversed $90 $-1 #
coedge $-1 $376 $381 $151 $251 forward $371 $-1 #
edge $-1 $382 10.81203632686496974 $383 12.75003971776334311 $250 $384 forward 7 unknown #
loop $-1 $-1 $257 $152 #
plane-surface $-1 85.50322834782016912 26.36436633116322525 69.03284303760835883 0 0.8480481040810504689 0.529919251551154491 1 0 0 forward_v I I I I #
loop $-1 $-1 $385 $92 #
coedge $-1 $255 $255 $256 $386 reversed $153 $-1 #
coedge $-1 $256 $256 $255 $386 forward $155 $-1 #
coedge $-1 $257 $257 $156 $258 forward $252 $-1 #
edge $-1 $387 4.514583885848646482e-15 $387 6.283185307179590673 $257 $388 forward 7 unknown #
loop $-1 $-1 $264 $157 #
plane-surface $-1 85.50322834782016912 26.36436633116322525 69.03284303760835883 0 0.8480481040810504689 0.529919251551154491 1 0 0 forward_v I I I I #
loop $-1 $-1 $389 $95 #
coedge $-1 $262 $262 $263 $390 reversed $158 $-1 #
coedge $-1 $263 $263 $262 $390 forward $160 $-1 #
coedge $-1 $264 $264 $161 $265 forward $259 $-1 #
edge $-1 $391 4.514583885848646482e-15 $391 6.283185307179590673 $264 $392 forward 7 unknown #
face $-1 $393 $394 $28 $-1 $395 reversed single #
loop $-1 $-1 $396 $162 #
plane-surface $-1 0 28.04238039757996148 12.28586091224641841 1 0 0 0 0 -1 forward_v I I I I #
coedge $-1 $397 $277 $398 $399 forward $163 $-1 #
coedge $-1 $400 $165 $397 $401 forward $99 $-1 #
coedge $-1 $165 $400 $402 $403 forward $99 $-1 #
coedge $-1 $280 $279 $165 $273 reversed $281 $-1 #
edge $-1 $404 -28.04238039757996148 $405 28.04238039757996148 $272 $406 forward 7 unknown #
coedge $-1 $167 $166 $407 $408 forward $57 $-1 #
coedge $-1 $409 $410 $166 $276 reversed $394 $-1 #
edge $-1 $283 -46.8056276131473723 $411 46.8056276131473723 $275 $412 forward 7 unknown #
coedge $-1 $269 $413 $167 $278 reversed $163 $-1 #
edge $-1 $414 -46.8056276131473723 $282 46.8056276131473723 $277 $415 forward 7 unknown #
coedge $-1 $272 $168 $413 $416 forward $281 $-1 #
coedge $-1 $168 $272 $409 $417 reversed $281 $-1 #
loop $-1 $-1 $279 $393 #
vertex $-1 $169 $418 #
vertex $-1 $169 $419 #
straight-curve $-1 93.6112552262947446 28.04238039757996148 24.57172182449283682 0 1 0 I I #
face $-1 $420 $421 $29 $-1 $422 forward single #
loop $-1 $-1 $423 $170 #
plane-surface $-1 0 28.04238039757996148 12.28586091224641841 1 0 0 0 0 -1 forward_v I I I I #
coedge $-1 $295 $424 $297 $425 forward $171 $-1 #
coedge $-1 $173 $297 $426 $427 reversed $103 $-1 #
coedge $-1 $428 $293 $173 $291 forward $429 $-1 #
edge $-1 $299 2.046662376248743698 $430 7.50835314941469889 $290 $431 forward 7 unknown #
coedge $-1 $175 $174 $423 $432 reversed $60 $-1 #
coedge $-1 $290 $433 $174 $294 forward $429 $-1 #
edge $-1 $434 -25.84918566480722646 $299 -16.06369823187306523 $293 $435 forward 7 unknown #
coedge $-1 $436 $288 $175 $296 forward $171 $-1 #
edge $-1 $298 16.06369823187306523 $437 25.84918566480722646 $295 $438 forward 7 unknown #
coedge $-1 $289 $176 $288 $425 reversed $103 $-1 #
vertex $-1 $296 $439 #
vertex $-1 $294 $440 #
straight-curve $-1 9.785487432934161234 28.04238039757996148 19.11003105132688518 0 -1 0 I I #
face $-1 $-1 $441 $30 $-1 $442 reversed single #
loop $-1 $-1 $184 $178 #
plane-surface $-1 46.8056276131473723 28.04238039757996148 24.57172182449283682 0 0 1 1 0 0 forward_v I I I I #
coedge $-1 $443 $444 $445 $446 reversed $179 $-1 #
coedge $-1 $447 $181 $183 $311 forward $107 $-1 #
coedge $-1 $181 $447 $443 $448 forward $107 $-1 #
coedge $-1 $445 $184 $181 $308 forward $302 $-1 #
edge $-1 $314 -17.79875862517246787 $449 -6.372966485175169282 $307 $450 forward 7 unknown #
coedge $-1 $451 $452 $182 $310 forward $441 $-1 #
edge $-1 $453 -43.99228715063476614 $313 -40.89083330357566126 $309 $454 forward 7 unknown #
edge $-1 $314 52.42759343385813509 $453 56.08476079515995139 $183 $455 forward 7 unknown #
coedge $-1 $184 $445 $451 $456 forward $302 $-1 #
vertex $-1 $310 $457 #
vertex $-1 $185 $458 #
straight-curve $-1 16.92100643280108585 66.8967971220248927 24.57172182449284037 0 -1 0 I I #
coedge $-1 $316 $316 $-1 $459 reversed $188 $-1 #
edge $-1 $460 0 $460 6.283185307179586232 $189 $461 forward 7 unknown #
vertex $-1 $192 $462 #
ellipse-curve $-1 20.18551847280031453 55.11575909971072917 23.02099490096329859 0 0.8480481040810504689 0.529919251551154491 0.5 0 0 1 I I #
coedge $-1 $320 $320 $-1 $463 reversed $195 $-1 #
edge $-1 $464 0 $464 6.283185307179586232 $196 $465 forward 7 unknown #
vertex $-1 $199 $466 #
ellipse-curve $-1 25.08228653279915576 55.11575909971072917 23.02099490096329859 0 0.8480481040810504689 0.529919251551154491 0.5 0 0 1 I I #
face $-1 $-1 $467 $33 $-1 $468 reversed single #
loop $-1 $-1 $206 $200 #
plane-surface $-1 46.8056276131473723 28.04238039757996148 24.57172182449283682 0 0 1 1 0 0 forward_v I I I I #
coedge $-1 $469 $470 $471 $472 reversed $201 $-1 #
coedge $-1 $473 $203 $205 $334 forward $121 $-1 #
coedge $-1 $203 $473 $469 $474 forward $121 $-1 #
coedge $-1 $471 $206 $203 $331 forward $325 $-1 #
edge $-1 $337 -7.320537651002396728 $475 4.105254488994901862 $330 $476 forward 7 unknown #
coedge $-1 $477 $478 $204 $333 forward $467 $-1 #
edge $-1 $479 -43.99228715063476614 $336 -40.89083330357566126 $332 $480 forward 7 unknown #
edge $-1 $337 52.42759343385813509 $479 56.08476079515995139 $205 $481 forward 7 unknown #
coedge $-1 $206 $471 $477 $482 forward $325 $-1 #
vertex $-1 $207 $483 #
vertex $-1 $207 $484 #
straight-curve $-1 37.87744838114123525 66.8967971220248927 24.57172182449284037 0 -1 0 I I #
coedge $-1 $339 $339 $-1 $485 reversed $210 $-1 #
edge $-1 $486 0 $486 6.283185307179586232 $211 $487 forward 7 unknown #
vertex $-1 $214 $488 #
ellipse-curve $-1 41.14196042114046037 55.11575909971072917 23.02099490096329859 0 0.8480481040810504689 0.529919251551154491 0.5 0 0 1 I I #
coedge $-1 $343 $343 $-1 $489 reversed $217 $-1 #
edge $-1 $490 0 $490 6.283185307179586232 $218 $491 forward 7 unknown #
vertex $-1 $221 $492 #
ellipse-curve $-1 46.03872848113930161 55.11575909971072917 23.02099490096329859 0 0.8480481040810504689 0.529919251551154491 0.5 0 0 1 I I #
face $-1 $-1 $493 $36 $-1 $494 reversed single #
loop $-1 $-1 $228 $222 #
plane-surface $-1 46.8056276131473723 28.04238039757996148 24.57172182449283682 0 0 1 1 0 0 forward_v I I I I #
coedge $-1 $495 $496 $497 $498 reversed $223 $-1 #
coedge $-1 $499 $225 $227 $357 forward $135 $-1 #
coedge $-1 $225 $499 $495 $500 forward $135 $-1 #
coedge $-1 $497 $228 $225 $354 forward $348 $-1 #
edge $-1 $360 3.157683323167674416 $501 14.58347546316497301 $353 $502 forward 7 unknown #
coedge $-1 $503 $504 $226 $356 forward $493 $-1 #
edge $-1 $505 -43.99228715063476614 $359 -40.89083330357566126 $355 $506 forward 7 unknown #
edge $-1 $360 52.42759343385813509 $505 56.08476079515995139 $227 $507 forward 7 unknown #
coedge $-1 $228 $497 $503 $508 forward $348 $-1 #
vertex $-1 $229 $509 #
vertex $-1 $229 $510 #
straight-curve $-1 58.83389032948137753 66.8967971220248927 24.57172182449284037 0 -1 0 I I #
coedge $-1 $362 $362 $-1 $511 reversed $232 $-1 #
edge $-1 $512 0 $512 6.283185307179586232 $233 $513 forward 7 unknown #
vertex $-1 $236 $514 #
ellipse-curve $-1 62.09840236948060976 55.11575909971072917 23.02099490096329859 0 0.8480481040810504689 0.529919251551154491 0.5 0 0 1 I I #
coedge $-1 $366 $366 $-1 $515 reversed $239 $-1 #
edge $-1 $516 0 $516 6.283185307179586232 $240 $517 forward 7 unknown #
vertex $-1 $243 $518 #
ellipse-curve $-1 66.9951704294794439 55.11575909971072917 23.02099490096329859 0 0.8480481040810504689 0.529919251551154491 0.5 0 0 1 I I #
face $-1 $-1 $519 $39 $-1 $520 reversed single #
loop $-1 $-1 $250 $244 #
plane-surface $-1 46.8056276131473723 28.04238039757996148 24.57172182449283682 0 0 1 1 0 0 forward_v I I I I #
coedge $-1 $521 $522 $523 $524 reversed $245 $-1 #
coedge $-1 $525 $247 $249 $380 forward $149 $-1 #
coedge $-1 $247 $525 $521 $526 forward $149 $-1 #
coedge $-1 $523 $250 $247 $377 forward $371 $-1 #
edge $-1 $383 13.63590429733774556 $527 25.06169643733504415 $376 $528 forward 7 unknown #
coedge $-1 $529 $530 $248 $379 forward $519 $-1 #
edge $-1 $531 -43.99228715063476614 $382 -40.89083330357566126 $378 $532 forward 7 unknown #
edge $-1 $383 52.42759343385813509 $531 56.08476079515995139 $249 $533 forward 7 unknown #
coedge $-1 $250 $523 $529 $534 forward $371 $-1 #
vertex $-1 $251 $535 #
vertex $-1 $251 $536 #
straight-curve $-1 79.79033227782151982 66.8967971220248927 24.57172182449284037 0 -1 0 I I #
coedge $-1 $385 $385 $-1 $537 reversed $254 $-1 #
edge $-1 $538 0 $538 6.283185307179586232 $255 $539 forward 7 unknown #
vertex $-1 $258 $540 #
ellipse-curve $-1 83.05484431782075205 55.11575909971072917 23.02099490096329859 0 0.8480481040810504689 0.529919251551154491 0.5 0 0 1 I I #
coedge $-1 $389 $389 $-1 $541 reversed $261 $-1 #
edge $-1 $542 0 $542 6.283185307179586232 $262 $543 forward 7 unknown #
vertex $-1 $265 $544 #
ellipse-curve $-1 87.95161237781958619 55.11575909971072917 23.02099490096329859 0 0.8480481040810504689 0.529919251551154491 0.5 0 0 1 I I #
face $-1 $-1 $281 $28 $-1 $545 reversed single #
loop $-1 $-1 $409 $266 #
plane-surface $-1 46.8056276131473723 56.08476079515992296 12.28586091224641841 0 -1 0 0 0 -1 forward_v I I I I #
coedge $-1 $546 $407 $410 $547 forward $267 $-1 #
coedge $-1 $413 $269 $270 $401 reversed $163 $-1 #
coedge $-1 $407 $546 $269 $399 reversed $267 $-1 #
edge $-1 $414 -12.28586091224641841 $548 12.28586091224641841 $398 $549 forward 7 unknown #
coedge $-1 $271 $270 $546 $550 forward $99 $-1 #
edge $-1 $405 -46.8056276131473723 $548 46.8056276131473723 $397 $551 forward 7 unknown #
coedge $-1 $410 $409 $271 $403 reversed $394 $-1 #
edge $-1 $552 -46.8056276131473723 $404 46.8056276131473723 $402 $553 forward 7 unknown #
vertex $-1 $273 $554 #
vertex $-1 $416 $555 #
straight-curve $-1 93.6112552262947446 28.04238039757996148 0 0 -1 0 I I #
coedge $-1 $396 $398 $274 $408 reversed $267 $-1 #
edge $-1 $411 -28.04238039757996148 $414 28.04238039757996148 $407 $556 forward 7 unknown #
coedge $-1 $402 $275 $280 $417 forward $394 $-1 #
coedge $-1 $275 $402 $396 $547 reversed $394 $-1 #
vertex $-1 $276 $557 #
straight-curve $-1 46.8056276131473723 56.08476079515992296 24.57172182449283682 -1 0 0 I I #
coedge $-1 $277 $397 $279 $416 reversed $163 $-1 #
vertex $-1 $408 $558 #
straight-curve $-1 46.8056276131473723 0 24.57172182449283682 1 0 0 I I #
edge $-1 $282 -12.28586091224641841 $405 12.28586091224641841 $279 $559 forward 7 unknown #
edge $-1 $283 -12.28586091224641841 $404 12.28586091224641841 $280 $560 forward 7 unknown #
point $-1 93.6112552262947446 0 24.57172182449283682 #
point $-1 93.6112552262947446 56.08476079515992296 24.57172182449283682 #
face $-1 $-1 $429 $29 $-1 $561 reversed single #
loop $-1 $-1 $426 $285 #
plane-surface $-1 46.8056276131473723 28.04238039757996148 24.57172182449283682 0 0 1 1 0 0 forward_v I I I I #
coedge $-1 $562 $563 $292 $432 forward $286 $-1 #
coedge $-1 $288 $436 $564 $565 reversed $171 $-1 #
edge $-1 $566 -7.50835314941469889 $298 -2.046662376248743698 $288 $567 forward 7 unknown #
coedge $-1 $564 $568 $289 $427 forward $421 $-1 #
edge $-1 $430 -28.04238039757996148 $566 28.04238039757996148 $426 $569 forward 7 unknown #
coedge $-1 $433 $290 $568 $570 reversed $429 $-1 #
loop $-1 $-1 $290 $420 #
vertex $-1 $291 $571 #
straight-curve $-1 9.785487432934161234 0 17.06336867507814148 0 0 1 I I #
edge $-1 $437 -28.04238039757996148 $434 28.04238039757996148 $423 $572 forward 7 unknown #
coedge $-1 $293 $428 $562 $573 forward $429 $-1 #
vertex $-1 $432 $574 #
straight-curve $-1 25.84918566480722646 0 19.11003105132688518 1 0 0 I I #
coedge $-1 $424 $295 $563 $575 reversed $171 $-1 #
vertex $-1 $432 $576 #
straight-curve $-1 25.84918566480722646 56.08476079515992296 19.11003105132688518 -1 0 0 I I #
point $-1 9.785487432934161234 56.08476079515992296 19.11003105132688518 #
point $-1 9.785487432934161234 0 19.11003105132688518 #
loop $-1 $-1 $309 $301 #
plane-surface $-1 46.8056276131473723 56.08476079515992296 12.28586091224641841 0 -1 0 0 0 -1 forward_v I I I I #
coedge $-1 $444 $304 $306 $448 reversed $179 $-1 #
coedge $-1 $304 $443 $577 $578 reversed $179 $-1 #
coedge $-1 $312 $307 $304 $446 forward $302 $-1 #
edge $-1 $449 -12.75003971776334311 $579 -10.81203632686496974 $445 $580 forward 7 unknown #
coedge $-1 $306 $305 $452 $581 reversed $107 $-1 #
edge $-1 $582 -56.08476079515995139 $449 -52.42759343385813509 $443 $583 forward 7 unknown #
vertex $-1 $308 $584 #
straight-curve $-1 34.71976505797355372 54.1467574042615496 24.57172182449284037 1 0 0 I I #
coedge $-1 $577 $309 $312 $456 reversed $441 $-1 #
coedge $-1 $309 $577 $447 $581 forward $441 $-1 #
vertex $-1 $310 $585 #
straight-curve $-1 16.92100643280108585 56.08476079515992296 65.46255512806850163 0 0 1 I I #
straight-curve $-1 16.92100643280108585 26.36436633116322525 69.03284303760835883 0 0.529919251551154491 -0.8480481040810504689 I I #
edge $-1 $579 18.45882904034898786 $313 29.88462118034628645 $451 $586 forward 7 unknown #
point $-1 16.92100643280108585 56.08476079515992296 24.57172182449283682 #
point $-1 16.92100643280108585 54.1467574042615496 24.57172182449284037 #
edge $-1 $587 1 $587 0 $316 $-1 forward 7 unknown #
vertex $-1 $317 $588 #
ellipse-curve $-1 20.18551847280031453 53.76995150706684967 22.18004101073734091 0 0.8480481040810504689 0.529919251551154491 0.5 0 0 1 I I #
point $-1 20.68551847280031453 55.11575909971075049 23.02099490096330925 #
edge $-1 $589 1 $589 0 $320 $-1 forward 7 unknown #
vertex $-1 $321 $590 #
ellipse-curve $-1 25.08228653279915576 53.76995150706684967 22.18004101073734091 0 0.8480481040810504689 0.529919251551154491 0.5 0 0 1 I I #
point $-1 25.58228653279915576 55.11575909971075049 23.02099490096330925 #
loop $-1 $-1 $332 $324 #
plane-surface $-1 46.8056276131473723 56.08476079515992296 12.28586091224641841 0 -1 0 0 0 -1 forward_v I I I I #
coedge $-1 $470 $327 $329 $474 reversed $201 $-1 #
coedge $-1 $327 $469 $591 $592 reversed $201 $-1 #
coedge $-1 $335 $330 $327 $472 forward $325 $-1 #
edge $-1 $475 -12.75003971776334311 $593 -10.81203632686496974 $471 $594 forward 7 unknown #
coedge $-1 $329 $328 $478 $595 reversed $121 $-1 #
edge $-1 $596 -56.08476079515995139 $475 -52.42759343385813509 $469 $597 forward 7 unknown #
vertex $-1 $331 $598 #
straight-curve $-1 45.19798603214363197 54.1467574042615496 24.57172182449284037 1 0 0 I I #
coedge $-1 $591 $332 $335 $482 reversed $467 $-1 #
coedge $-1 $332 $591 $473 $595 forward $467 $-1 #
vertex $-1 $333 $599 #
straight-curve $-1 37.87744838114123525 56.08476079515992296 65.46255512806850163 0 0 1 I I #
straight-curve $-1 37.87744838114123525 26.36436633116322525 69.03284303760835883 0 0.529919251551154491 -0.8480481040810504689 I I #
edge $-1 $593 -2.497612907991161535 $336 8.928179232006137056 $477 $600 forward 7 unknown #
point $-1 37.87744838114123525 56.08476079515992296 24.57172182449283682 #
point $-1 37.87744838114123525 54.1467574042615496 24.57172182449284037 #
edge $-1 $601 1 $601 0 $339 $-1 forward 7 unknown #
vertex $-1 $340 $602 #
ellipse-curve $-1 41.14196042114046037 53.76995150706684967 22.18004101073734091 0 0.8480481040810504689 0.529919251551154491 0.5 0 0 1 I I #
point $-1 41.64196042114046037 55.11575909971075049 23.02099490096330925 #
edge $-1 $603 1 $603 0 $343 $-1 forward 7 unknown #
vertex $-1 $344 $604 #
ellipse-curve $-1 46.03872848113930161 53.76995150706684967 22.18004101073734091 0 0.8480481040810504689 0.529919251551154491 0.5 0 0 1 I I #
point $-1 46.53872848113930161 55.11575909971075049 23.02099490096330925 #
loop $-1 $-1 $355 $347 #
plane-surface $-1 46.8056276131473723 56.08476079515992296 12.28586091224641841 0 -1 0 0 0 -1 forward_v I I I I #
coedge $-1 $496 $350 $352 $500 reversed $223 $-1 #
coedge $-1 $350 $495 $605 $606 reversed $223 $-1 #
coedge $-1 $358 $353 $350 $498 forward $348 $-1 #
edge $-1 $501 -12.75003971776334311 $607 -10.81203632686496974 $497 $608 forward 7 unknown #
coedge $-1 $352 $351 $504 $609 reversed $135 $-1 #
edge $-1 $610 -56.08476079515995139 $501 -52.42759343385813509 $495 $611 forward 7 unknown #
vertex $-1 $354 $612 #
straight-curve $-1 55.67620700631370312 54.1467574042615496 24.57172182449284037 1 0 0 I I #
coedge $-1 $605 $355 $358 $508 reversed $493 $-1 #
coedge $-1 $355 $605 $499 $609 forward $493 $-1 #
vertex $-1 $356 $613 #
straight-curve $-1 58.83389032948137753 56.08476079515992296 65.46255512806850163 0 0 1 I I #
straight-curve $-1 58.83389032948137753 26.36436633116322525 69.03284303760835883 0 0.529919251551154491 -0.8480481040810504689 I I #
edge $-1 $607 -23.45405485633130382 $359 -12.02826271633400523 $503 $614 forward 7 unknown #
point $-1 58.83389032948137753 56.08476079515992296 24.57172182449283682 #
point $-1 58.83389032948137753 54.1467574042615496 24.57172182449284037 #
edge $-1 $615 1 $615 0 $362 $-1 forward 7 unknown #
vertex $-1 $363 $616 #
ellipse-curve $-1 62.09840236948060976 53.76995150706684967 22.18004101073734091 0 0.8480481040810504689 0.529919251551154491 0.5 0 0 1 I I #
point $-1 62.59840236948060976 55.11575909971075049 23.02099490096330925 #
edge $-1 $617 1 $617 0 $366 $-1 forward 7 unknown #
vertex $-1 $367 $618 #
ellipse-curve $-1 66.9951704294794439 53.76995150706684967 22.18004101073734091 0 0.8480481040810504689 0.529919251551154491 0.5 0 0 1 I I #
point $-1 67.4951704294794439 55.11575909971075049 23.02099490096330925 #
loop $-1 $-1 $378 $370 #
plane-surface $-1 46.8056276131473723 56.08476079515992296 12.28586091224641841 0 -1 0 0 0 -1 forward_v I I I I #
coedge $-1 $522 $373 $375 $526 reversed $245 $-1 #
coedge $-1 $373 $521 $619 $620 reversed $245 $-1 #
coedge $-1 $381 $376 $373 $524 forward $371 $-1 #
edge $-1 $527 -12.75003971776334311 $621 -10.81203632686496974 $523 $622 forward 7 unknown #
coedge $-1 $375 $374 $530 $623 reversed $149 $-1 #
edge $-1 $624 -56.08476079515995139 $527 -52.42759343385813509 $521 $625 forward 7 unknown #
vertex $-1 $377 $626 #
straight-curve $-1 66.15442798048377426 54.1467574042615496 24.57172182449284037 1 0 0 I I #
coedge $-1 $619 $378 $381 $534 reversed $519 $-1 #
coedge $-1 $378 $619 $525 $623 forward $519 $-1 #
vertex $-1 $379 $627 #
straight-curve $-1 79.79033227782151982 56.08476079515992296 65.46255512806850163 0 0 1 I I #
straight-curve $-1 79.79033227782151982 26.36436633116322525 69.03284303760835883 0 0.529919251551154491 -0.8480481040810504689 I I #
edge $-1 $621 -44.41049680467144611 $382 -32.98470466467414752 $529 $628 forward 7 unknown #
point $-1 79.79033227782151982 56.08476079515992296 24.57172182449283682 #
point $-1 79.79033227782151982 54.1467574042615496 24.57172182449284037 #
edge $-1 $629 1 $629 0 $385 $-1 forward 7 unknown #
vertex $-1 $386 $630 #
ellipse-curve $-1 83.05484431782075205 53.76995150706684967 22.18004101073734091 0 0.8480481040810504689 0.529919251551154491 0.5 0 0 1 I I #
point $-1 83.55484431782075205 55.11575909971075049 23.02099490096330925 #
edge $-1 $631 1 $631 0 $389 $-1 forward 7 unknown #
vertex $-1 $390 $632 #
ellipse-curve $-1 87.95161237781958619 53.76995150706684967 22.18004101073734091 0 0.8480481040810504689 0.529919251551154491 0.5 0 0 1 I I #
point $-1 88.45161237781958619 55.11575909971075049 23.02099490096330925 #
plane-surface $-1 93.6112552262947446 28.04238039757996148 12.28586091224641841 -1 0 0 0 0 1 forward_v I I I I #
coedge $-1 $398 $396 $400 $550 reversed $267 $-1 #
edge $-1 $411 -12.28586091224641841 $552 12.28586091224641841 $410 $633 forward 7 unknown #
vertex $-1 $550 $634 #
straight-curve $-1 0 0 12.28586091224641841 0 0 -1 I I #
edge $-1 $548 -28.04238039757996148 $552 28.04238039757996148 $546 $635 forward 7 unknown #
straight-curve $-1 46.8056276131473723 0 0 -1 0 0 I I #
vertex $-1 $403 $636 #
straight-curve $-1 46.8056276131473723 56.08476079515992296 0 1 0 0 I I #
point $-1 93.6112552262947446 56.08476079515992296 0 #
point $-1 93.6112552262947446 0 0 #
straight-curve $-1 0 28.04238039757996148 24.57172182449283682 0 -1 0 I I #
point $-1 0 56.08476079515992296 24.57172182449283682 #
point $-1 0 0 24.57172182449283682 #
straight-curve $-1 93.6112552262947446 0 12.28586091224641841 0 0 -1 I I #
straight-curve $-1 93.6112552262947446 56.08476079515992296 12.28586091224641841 0 0 -1 I I #
plane-surface $-1 46.8056276131473723 0 12.28586091224641841 0 1 0 0 0 1 forward_v I I I I #
coedge $-1 $637 $423 $433 $573 reversed $286 $-1 #
coedge $-1 $423 $637 $436 $575 forward $286 $-1 #
coedge $-1 $638 $426 $424 $565 forward $421 $-1 #
edge $-1 $566 37.02014018021321107 $639 46.8056276131473723 $424 $640 forward 7 unknown #
vertex $-1 $565 $641 #
straight-curve $-1 9.785487432934161234 56.08476079515992296 17.06336867507814148 0 0 -1 I I #
coedge $-1 $426 $638 $428 $570 forward $421 $-1 #
straight-curve $-1 9.785487432934161234 28.04238039757996148 24.57172182449283682 0 1 0 I I #
edge $-1 $642 -46.8056276131473723 $430 -37.02014018021321107 $428 $643 forward 7 unknown #
point $-1 9.785487432934161234 0 24.57172182449284037 #
straight-curve $-1 0 28.04238039757996148 19.11003105132688518 0 -1 0 I I #
edge $-1 $642 -12.28586091224641841 $434 -6.824170139080466768 $562 $644 forward 7 unknown #
point $-1 0 0 19.11003105132688518 #
edge $-1 $639 -12.28586091224641841 $437 -6.824170139080466768 $436 $645 forward 7 unknown #
point $-1 0 56.08476079515992296 19.11003105132688518 #
coedge $-1 $452 $451 $444 $578 forward $441 $-1 #
edge $-1 $579 40.89083330357566126 $582 43.99228715063476614 $577 $646 forward 7 unknown #
vertex $-1 $456 $647 #
straight-curve $-1 28.34679857279838444 66.8967971220248927 24.57172182449284037 0 1 0 I I #
edge $-1 $582 6.372966485175169282 $453 17.79875862517246787 $452 $648 forward 7 unknown #
vertex $-1 $581 $649 #
straight-curve $-1 28.34679857279838444 26.36436633116322525 69.03284303760835883 0 -0.529919251551154491 0.8480481040810504689 I I #
point $-1 28.34679857279838444 54.1467574042615496 24.57172182449284037 #
point $-1 16.92100643280108585 56.08476079515992296 21.4702679774337355 #
straight-curve $-1 46.8056276131473723 56.08476079515992296 24.57172182449283682 -1 0 0 I I #
vertex $-1 $459 $650 #
point $-1 20.68551847280031453 53.76995150706684967 22.18004101073734091 #
vertex $-1 $463 $651 #
point $-1 25.58228653279915576 53.76995150706684967 22.18004101073734091 #
coedge $-1 $478 $477 $470 $592 forward $467 $-1 #
edge $-1 $593 40.89083330357566126 $596 43.99228715063476614 $591 $652 forward 7 unknown #
vertex $-1 $482 $653 #
straight-curve $-1 49.30324052113853384 66.8967971220248927 24.57172182449284037 0 1 0 I I #
edge $-1 $596 -4.105254488994901862 $479 7.320537651002396728 $478 $654 forward 7 unknown #
vertex $-1 $595 $655 #
straight-curve $-1 49.30324052113853384 26.36436633116322525 69.03284303760835883 0 -0.529919251551154491 0.8480481040810504689 I I #
point $-1 49.30324052113853384 54.1467574042615496 24.57172182449284037 #
point $-1 37.87744838114123525 56.08476079515992296 21.4702679774337355 #
straight-curve $-1 46.8056276131473723 56.08476079515992296 24.57172182449283682 -1 0 0 I I #
vertex $-1 $485 $656 #
point $-1 41.64196042114046037 53.76995150706684967 22.18004101073734091 #
vertex $-1 $489 $657 #
point $-1 46.53872848113930161 53.76995150706684967 22.18004101073734091 #
coedge $-1 $504 $503 $496 $606 forward $493 $-1 #
edge $-1 $607 40.89083330357566126 $610 43.99228715063476614 $605 $658 forward 7 unknown #
vertex $-1 $508 $659 #
straight-curve $-1 70.25968246947867613 66.8967971220248927 24.57172182449284037 0 1 0 I I #
edge $-1 $610 -14.58347546316497301 $505 -3.157683323167674416 $504 $660 forward 7 unknown #
vertex $-1 $609 $661 #
straight-curve $-1 70.25968246947867613 26.36436633116322525 69.03284303760835883 0 -0.529919251551154491 0.8480481040810504689 I I #
point $-1 70.25968246947867613 54.1467574042615496 24.57172182449284037 #
point $-1 58.83389032948137753 56.08476079515992296 21.4702679774337355 #
straight-curve $-1 46.8056276131473723 56.08476079515992296 24.57172182449283682 -1 0 0 I I #
vertex $-1 $511 $662 #
point $-1 62.59840236948060976 53.76995150706684967 22.18004101073734091 #
vertex $-1 $515 $663 #
point $-1 67.4951704294794439 53.76995150706684967 22.18004101073734091 #
coedge $-1 $530 $529 $522 $620 forward $519 $-1 #
edge $-1 $621 40.89083330357566126 $624 43.99228715063476614 $619 $664 forward 7 unknown #
vertex $-1 $534 $665 #
straight-curve $-1 91.21612441781881842 66.8967971220248927 24.57172182449284037 0 1 0 I I #
edge $-1 $624 -25.06169643733504415 $531 -13.63590429733774556 $530 $666 forward 7 unknown #
vertex $-1 $623 $667 #
straight-curve $-1 91.21612441781881842 26.36436633116322525 69.03284303760835883 0 -0.529919251551154491 0.8480481040810504689 I I #
point $-1 91.21612441781881842 54.1467574042615496 24.57172182449284037 #
point $-1 79.79033227782151982 56.08476079515992296 21.4702679774337355 #
straight-curve $-1 46.8056276131473723 56.08476079515992296 24.57172182449283682 -1 0 0 I I #
vertex $-1 $537 $668 #
point $-1 83.55484431782075205 53.76995150706684967 22.18004101073734091 #
vertex $-1 $541 $669 #
point $-1 88.45161237781958619 53.76995150706684967 22.18004101073734091 #
straight-curve $-1 0 56.08476079515992296 12.28586091224641841 0 0 -1 I I #
point $-1 0 0 0 #
straight-curve $-1 0 28.04238039757996148 0 0 1 0 I I #
point $-1 0 56.08476079515992296 0 #
coedge $-1 $563 $562 $638 $670 reversed $286 $-1 #
coedge $-1 $568 $564 $637 $670 forward $421 $-1 #
vertex $-1 $565 $671 #
straight-curve $-1 46.8056276131473723 56.08476079515992296 24.57172182449283682 -1 0 0 I I #
point $-1 9.785487432934161234 56.08476079515992296 24.57172182449284037 #
vertex $-1 $670 $672 #
straight-curve $-1 46.8056276131473723 0 24.57172182449283682 1 0 0 I I #
straight-curve $-1 0 0 12.28586091224641841 0 0 -1 I I #
straight-curve $-1 0 56.08476079515992296 12.28586091224641841 0 0 -1 I I #
straight-curve $-1 28.34679857279838444 56.08476079515992296 65.46255512806850163 0 0 -1 I I #
point $-1 28.34679857279838444 56.08476079515992296 24.57172182449283682 #
straight-curve $-1 34.71976505797355372 56.08476079515992296 21.4702679774337355 -1 0 0 I I #
point $-1 28.34679857279838444 56.08476079515992296 21.4702679774337355 #
point $-1 20.18551847280031453 53.34592745502632738 21.91508138496176628 #
point $-1 25.08228653279915576 53.34592745502632738 21.91508138496176628 #
straight-curve $-1 49.30324052113853384 56.08476079515992296 65.46255512806850163 0 0 -1 I I #
point $-1 49.30324052113853384 56.08476079515992296 24.57172182449283682 #
straight-curve $-1 45.19798603214363197 56.08476079515992296 21.4702679774337355 -1 0 0 I I #
point $-1 49.30324052113853384 56.08476079515992296 21.4702679774337355 #
point $-1 41.14196042114046037 53.34592745502632738 21.91508138496176628 #
point $-1 46.03872848113930161 53.34592745502632738 21.91508138496176628 #
straight-curve $-1 70.25968246947867613 56.08476079515992296 65.46255512806850163 0 0 -1 I I #
point $-1 70.25968246947867613 56.08476079515992296 24.57172182449283682 #
straight-curve $-1 55.67620700631370312 56.08476079515992296 21.4702679774337355 -1 0 0 I I #
point $-1 70.25968246947867613 56.08476079515992296 21.4702679774337355 #
point $-1 62.09840236948060976 53.34592745502632738 21.91508138496176628 #
point $-1 66.9951704294794439 53.34592745502632738 21.91508138496176628 #
straight-curve $-1 91.21612441781881842 56.08476079515992296 65.46255512806850163 0 0 -1 I I #
point $-1 91.21612441781881842 56.08476079515992296 24.57172182449283682 #
straight-curve $-1 66.15442798048377426 56.08476079515992296 21.4702679774337355 -1 0 0 I I #
point $-1 91.21612441781881842 56.08476079515992296 21.4702679774337355 #
point $-1 83.05484431782075205 53.34592745502632738 21.91508138496176628 #
point $-1 87.95161237781958619 53.34592745502632738 21.91508138496176628 #
edge $-1 $639 -28.04238039757996148 $642 28.04238039757996148 $637 $673 forward 7 unknown #
point $-1 0 56.08476079515992296 24.57172182449283682 #
point $-1 0 0 24.57172182449283682 #
straight-curve $-1 0 28.04238039757996148 24.57172182449283682 0 -1 0 I I #
End-of-ACIS-data 