300 0 6 0           
7 Unknown 11 ACIS 3.0 NT 24 Fri Oct 30 20:25:50 1998 
-1 9.9999999999999995e-007 1e-010 
body $6 $7 $-1 $8 #
body $9 $10 $-1 $11 #
body $12 $13 $-1 $14 #
body $15 $16 $-1 $17 #
body $18 $19 $-1 $20 #
body $21 $22 $-1 $23 #
display_attribute-st-attrib $-1 $24 $-1 $0 1 #
lump $-1 $-1 $25 $0 #
transform $-1 1 0 0 0 1 0 0 0 1 75.519882808923612 43.963878919188829 21.773839919802363 1 rotate no_reflect no_shear #
display_attribute-st-attrib $-1 $26 $-1 $1 3 #
lump $-1 $-1 $27 $1 #
transform $-1 1 0 0 0 1 0 0 0 1 75.519882808923612 43.963878919188829 21.773839919802363 1 rotate no_reflect no_shear #
display_attribute-st-attrib $-1 $28 $-1 $2 3 #
lump $-1 $-1 $29 $2 #
transform $-1 1 0 0 0 1 0 0 0 1 75.519882808923612 43.963878919188829 21.773839919802363 1 rotate no_reflect no_shear #
display_attribute-st-attrib $-1 $30 $-1 $3 3 #
lump $-1 $-1 $31 $3 #
transform $-1 1 0 0 0 1 0 0 0 1 75.519882808923612 43.963878919188829 21.773839919802363 1 rotate no_reflect no_shear #
display_attribute-st-attrib $-1 $32 $-1 $4 3 #
lump $-1 $-1 $33 $4 #
transform $-1 1 0 0 0 1 0 0 0 1 75.519882808923612 43.963878919188829 21.773839919802363 1 rotate no_reflect no_shear #
display_attribute-st-attrib $-1 $34 $-1 $5 3 #
lump $-1 $-1 $35 $5 #
transform $-1 1 0 0 0 1 0 0 0 1 75.519882808923612 43.963878919188829 21.773839919802363 1 rotate no_reflect no_shear #
id_attribute-st-attrib $-1 $-1 $6 $0 4648 #
shell $-1 $-1 $-1 $36 $-1 $7 #
id_attribute-st-attrib $-1 $-1 $9 $1 4653 #
shell $-1 $-1 $-1 $37 $-1 $10 #
id_attribute-st-attrib $-1 $-1 $12 $2 4666 #
shell $-1 $-1 $-1 $38 $-1 $13 #
id_attribute-st-attrib $-1 $-1 $15 $3 4673 #
shell $-1 $-1 $-1 $39 $-1 $16 #
id_attribute-st-attrib $-1 $-1 $18 $4 4681 #
shell $-1 $-1 $-1 $40 $-1 $19 #
id_attribute-st-attrib $-1 $-1 $21 $5 4690 #
shell $-1 $-1 $-1 $41 $-1 $22 #
face $-1 $42 $43 $25 $-1 $44 forward single #
face $-1 $45 $46 $27 $-1 $47 forward single #
face $-1 $48 $49 $29 $-1 $50 reversed single #
face $-1 $51 $52 $31 $-1 $53 forward single #
face $-1 $54 $55 $33 $-1 $56 reversed single #
face $-1 $57 $58 $35 $-1 $59 forward single #
face $-1 $60 $61 $25 $-1 $62 reversed single #
loop $-1 $-1 $63 $36 #
plane-surface $-1 0 0 21.773839919802363 0 0 1 1 0 0 forward_v I I I I #
face $-1 $64 $65 $27 $-1 $66 forward single #
loop $-1 $-1 $67 $37 #
plane-surface $-1 0 -43.963878919188829 0 0 1 0 0 0 1 forward_v I I I I #
face $-1 $68 $69 $29 $-1 $70 reversed single #
loop $-1 $-1 $71 $38 #
plane-surface $-1 -56.335799782200461 106.00909398996504 169.68067578198281 -1 0 0 0 0.77714596973225614 0.62932038083071107 forward_v I I I I #
face $-1 $72 $73 $31 $-1 $74 forward single #
loop $-1 $75 $76 $39 #
cone-surface $-1 -65.927841295562033 36.46804423040944 13.039636806984076 0 -0.77714596973225614 -0.62932038083071107 1 0 0 1 I I 0 1 forward I I I I #
face $-1 $77 $78 $33 $-1 $79 reversed single #
loop $-1 $-1 $80 $40 #
plane-surface $-1 19.184083026723151 106.00909398996504 169.68067578198281 -1 0 0 0 0.77714596973225614 0.62932038083071107 forward_v I I I I #
face $-1 $81 $82 $35 $-1 $83 forward single #
loop $-1 $84 $85 $41 #
cone-surface $-1 9.5920415133615791 36.46804423040944 13.039636806984076 0 -0.77714596973225614 -0.62932038083071107 1 0 0 1 I I 0 1 forward I I I I #
face $-1 $86 $87 $25 $-1 $88 reversed single #
loop $-1 $-1 $89 $42 #
plane-surface $-1 0 0 -21.773839919802363 0 0 1 1 0 0 forward_v I I I I #
coedge $-1 $90 $91 $92 $93 forward $43 $-1 #
face $-1 $94 $95 $27 $-1 $96 reversed single #
loop $-1 $-1 $97 $45 #
plane-surface $-1 0 0 21.773839919802363 0 0 1 1 0 0 forward_v I I I I #
coedge $-1 $98 $99 $100 $101 forward $46 $-1 #
face $-1 $102 $103 $29 $-1 $104 reversed single #
loop $-1 $-1 $105 $48 #
plane-surface $-1 -65.927841295562033 -11.370851129249516 74.628272962777856 0 0.77714596973225614 0.62932038083071107 1 0 0 forward_v I I I I #
coedge $-1 $106 $107 $108 $109 reversed $49 $-1 #
face $-1 $-1 $110 $31 $-1 $111 forward single #
loop $-1 $112 $113 $51 #
cone-surface $-1 -65.927841295562033 34.850664175478514 11.729908298107169 0 -0.77714596973225614 -0.62932038083071107 0.5 0 0 1 I I -0.70710678118654624 0.70710678118654879 forward I I I I #
loop $-1 $-1 $114 $39 #
coedge $-1 $76 $76 $115 $116 reversed $52 $-1 #
face $-1 $117 $118 $33 $-1 $119 reversed single #
loop $-1 $-1 $120 $54 #
plane-surface $-1 9.5920415133615791 -11.370851129249516 74.628272962777856 0 0.77714596973225614 0.62932038083071107 1 0 0 forward_v I I I I #
coedge $-1 $121 $122 $123 $124 reversed $55 $-1 #
face $-1 $-1 $125 $35 $-1 $126 forward single #
loop $-1 $127 $128 $57 #
cone-surface $-1 9.5920415133615791 34.850664175478514 11.729908298107169 0 -0.77714596973225614 -0.62932038083071107 0.5 0 0 1 I I -0.70710678118654624 0.70710678118654879 forward I I I I #
loop $-1 $-1 $129 $41 #
coedge $-1 $85 $85 $130 $131 reversed $58 $-1 #
face $-1 $132 $133 $25 $-1 $134 reversed single #
loop $-1 $-1 $135 $60 #
plane-surface $-1 0 -43.963878919188829 0 0 1 0 0 0 1 forward_v I I I I #
coedge $-1 $136 $137 $138 $139 forward $61 $-1 #
coedge $-1 $140 $63 $141 $142 forward $43 $-1 #
coedge $-1 $63 $140 $143 $144 forward $43 $-1 #
coedge $-1 $145 $146 $63 $93 reversed $147 $-1 #
edge $-1 $148 $149 $92 $150 forward #
face $-1 $151 $152 $27 $-1 $153 reversed single #
loop $-1 $-1 $154 $64 #
plane-surface $-1 -75.519882808923612 0 0 1 0 0 0 0 -1 forward_v I I I I #
coedge $-1 $155 $156 $157 $158 forward $65 $-1 #
coedge $-1 $157 $67 $154 $159 reversed $46 $-1 #
coedge $-1 $67 $157 $160 $161 reversed $46 $-1 #
coedge $-1 $162 $163 $67 $101 reversed $152 $-1 #
edge $-1 $164 $165 $100 $166 forward #
face $-1 $167 $168 $29 $-1 $169 forward single #
loop $-1 $-1 $108 $68 #
plane-surface $-1 0 43.963878919188829 0 0 -1 0 0 0 -1 forward_v I I I I #
coedge $-1 $170 $171 $172 $173 reversed $69 $-1 #
coedge $-1 $107 $71 $174 $175 reversed $49 $-1 #
coedge $-1 $71 $106 $170 $176 reversed $49 $-1 #
coedge $-1 $172 $177 $71 $109 forward $103 $-1 #
edge $-1 $178 $179 $108 $180 forward #
loop $-1 $-1 $115 $72 #
plane-surface $-1 -65.927841295562033 -11.370851129249516 74.628272962777856 0 0.77714596973225614 0.62932038083071107 1 0 0 forward_v I I I I #
loop $-1 $-1 $181 $51 #
coedge $-1 $113 $113 $114 $182 reversed $73 $-1 #
coedge $-1 $114 $114 $113 $182 forward $75 $-1 #
coedge $-1 $115 $115 $76 $116 forward $110 $-1 #
edge $-1 $183 $183 $115 $184 forward #
face $-1 $185 $186 $33 $-1 $187 forward single #
loop $-1 $-1 $188 $77 #
plane-surface $-1 5.3290705182007514e-015 106.00909398996504 169.68067578198281 1 0 0 0 -0.77714596973225614 -0.62932038083071107 forward_v I I I I #
coedge $-1 $189 $190 $191 $192 reversed $78 $-1 #
coedge $-1 $122 $80 $193 $194 reversed $55 $-1 #
coedge $-1 $80 $121 $189 $195 reversed $55 $-1 #
coedge $-1 $191 $196 $80 $124 forward $197 $-1 #
edge $-1 $198 $199 $123 $200 forward #
loop $-1 $-1 $130 $81 #
plane-surface $-1 9.5920415133615791 -11.370851129249516 74.628272962777856 0 0.77714596973225614 0.62932038083071107 1 0 0 forward_v I I I I #
loop $-1 $-1 $201 $57 #
coedge $-1 $128 $128 $129 $202 reversed $82 $-1 #
coedge $-1 $129 $129 $128 $202 forward $84 $-1 #
coedge $-1 $130 $130 $85 $131 forward $125 $-1 #
edge $-1 $203 $203 $130 $204 forward #
face $-1 $205 $206 $25 $-1 $207 reversed single #
loop $-1 $-1 $208 $86 #
plane-surface $-1 -75.519882808923612 0 0 1 0 0 0 0 -1 forward_v I I I I #
coedge $-1 $209 $143 $210 $211 forward $87 $-1 #
coedge $-1 $212 $89 $209 $213 forward $61 $-1 #
coedge $-1 $89 $212 $214 $215 forward $61 $-1 #
coedge $-1 $146 $145 $89 $139 reversed $147 $-1 #
edge $-1 $216 $217 $138 $218 forward #
coedge $-1 $91 $90 $219 $220 forward $43 $-1 #
coedge $-1 $221 $222 $90 $142 reversed $206 $-1 #
edge $-1 $149 $223 $141 $224 forward #
coedge $-1 $135 $225 $91 $144 reversed $87 $-1 #
edge $-1 $226 $148 $143 $227 forward #
coedge $-1 $138 $92 $225 $228 forward $147 $-1 #
coedge $-1 $92 $138 $221 $229 reversed $147 $-1 #
loop $-1 $-1 $145 $205 #
vertex $-1 $93 $230 #
vertex $-1 $93 $231 #
straight-curve $-1 75.519882808923612 0 21.773839919802363 0 1 0 I I #
face $-1 $232 $233 $27 $-1 $234 reversed single #
loop $-1 $-1 $162 $94 #
plane-surface $-1 0 -52.968667810879623 15.916227111395795 0 0 1 1 0 0 forward_v I I I I #
coedge $-1 $235 $236 $98 $159 forward $95 $-1 #
coedge $-1 $237 $97 $236 $238 forward $65 $-1 #
coedge $-1 $97 $237 $239 $240 forward $65 $-1 #
coedge $-1 $99 $98 $97 $158 reversed $46 $-1 #
edge $-1 $241 $242 $97 $243 forward #
edge $-1 $242 $165 $154 $244 forward #
coedge $-1 $239 $245 $99 $161 forward $246 $-1 #
edge $-1 $164 $241 $160 $247 forward #
coedge $-1 $248 $100 $245 $249 forward $152 $-1 #
coedge $-1 $100 $248 $235 $250 forward $152 $-1 #
vertex $-1 $161 $251 #
vertex $-1 $159 $252 #
straight-curve $-1 0 -43.963878919188829 15.916227111395795 -1 0 0 I I #
face $-1 $-1 $253 $29 $-1 $254 reversed single #
loop $-1 $-1 $174 $102 #
plane-surface $-1 0 0 21.773839919802363 0 0 1 1 0 0 forward_v I I I I #
coedge $-1 $255 $105 $107 $176 forward $69 $-1 #
coedge $-1 $105 $255 $256 $257 reversed $69 $-1 #
coedge $-1 $258 $108 $105 $173 forward $103 $-1 #
edge $-1 $179 $259 $172 $260 forward #
coedge $-1 $261 $262 $106 $175 forward $168 $-1 #
edge $-1 $263 $178 $174 $264 forward #
edge $-1 $179 $263 $107 $265 forward #
coedge $-1 $108 $258 $261 $266 reversed $103 $-1 #
vertex $-1 $266 $267 #
vertex $-1 $109 $268 #
straight-curve $-1 -56.335799782200461 43.963878919188829 84.840337890991407 0 0 -1 I I #
coedge $-1 $181 $181 $-1 $269 reversed $112 $-1 #
edge $-1 $270 $270 $113 $271 forward #
vertex $-1 $116 $272 #
ellipse-curve $-1 -65.927841295562033 37.696851300474236 14.034705125445628 0 0.77714596973225614 0.62932038083071107 1 0 0 1 I I #
face $-1 $-1 $197 $33 $-1 $273 reversed single #
loop $-1 $-1 $274 $117 #
plane-surface $-1 0 0 21.773839919802363 0 0 1 1 0 0 forward_v I I I I #
coedge $-1 $275 $276 $277 $278 reversed $118 $-1 #
coedge $-1 $279 $120 $122 $195 forward $78 $-1 #
coedge $-1 $120 $279 $275 $280 forward $78 $-1 #
coedge $-1 $277 $123 $120 $192 forward $197 $-1 #
edge $-1 $199 $281 $191 $282 forward #
coedge $-1 $283 $284 $121 $194 forward $186 $-1 #
edge $-1 $285 $198 $193 $286 forward #
edge $-1 $199 $285 $122 $287 forward #
coedge $-1 $123 $277 $283 $288 reversed $197 $-1 #
loop $-1 $-1 $277 $185 #
vertex $-1 $288 $289 #
vertex $-1 $124 $290 #
straight-curve $-1 19.184083026723151 43.963878919188829 84.840337890991407 0 0 -1 I I #
coedge $-1 $201 $201 $-1 $291 reversed $127 $-1 #
edge $-1 $292 $292 $128 $293 forward #
vertex $-1 $131 $294 #
ellipse-curve $-1 9.5920415133615791 37.696851300474236 14.034705125445628 0 0.77714596973225614 0.62932038083071107 1 0 0 1 I I #
face $-1 $-1 $147 $25 $-1 $295 reversed single #
loop $-1 $-1 $221 $132 #
plane-surface $-1 0 43.963878919188829 0 0 -1 0 0 0 -1 forward_v I I I I #
coedge $-1 $296 $219 $222 $297 forward $133 $-1 #
coedge $-1 $225 $135 $136 $213 reversed $87 $-1 #
coedge $-1 $219 $296 $135 $211 reversed $133 $-1 #
edge $-1 $226 $298 $210 $299 forward #
coedge $-1 $137 $136 $296 $300 forward $61 $-1 #
edge $-1 $217 $298 $209 $301 forward #
coedge $-1 $222 $221 $137 $215 reversed $206 $-1 #
edge $-1 $302 $216 $214 $303 forward #
vertex $-1 $139 $304 #
vertex $-1 $228 $305 #
straight-curve $-1 75.519882808923612 0 -21.773839919802363 0 -1 0 I I #
coedge $-1 $208 $210 $140 $220 reversed $133 $-1 #
edge $-1 $223 $226 $219 $306 forward #
coedge $-1 $214 $141 $146 $229 forward $206 $-1 #
coedge $-1 $141 $214 $208 $297 reversed $206 $-1 #
vertex $-1 $142 $307 #
straight-curve $-1 0 43.963878919188829 21.773839919802363 -1 0 0 I I #
coedge $-1 $143 $209 $145 $228 reversed $87 $-1 #
vertex $-1 $220 $308 #
straight-curve $-1 0 -43.963878919188829 21.773839919802363 1 0 0 I I #
edge $-1 $148 $217 $145 $309 forward #
edge $-1 $149 $216 $146 $310 forward #
point $-1 75.519882808923612 -43.963878919188829 21.773839919802363 #
point $-1 75.519882808923612 43.963878919188829 21.773839919802363 #
face $-1 $-1 $246 $27 $-1 $311 reversed single #
loop $-1 $-1 $312 $151 #
plane-surface $-1 0 -61.973456702570417 18.845033515599077 0 1 0 0 0 1 forward_v I I I I #
coedge $-1 $313 $154 $163 $250 reversed $95 $-1 #
coedge $-1 $154 $313 $155 $238 reversed $95 $-1 #
coedge $-1 $156 $155 $314 $315 forward $65 $-1 #
edge $-1 $242 $316 $236 $317 forward #
coedge $-1 $318 $160 $156 $240 reversed $246 $-1 #
edge $-1 $319 $241 $239 $320 forward #
vertex $-1 $161 $321 #
vertex $-1 $238 $322 #
straight-curve $-1 0 -43.963878919188829 21.773839919802363 -1 0 0 I I #
straight-curve $-1 -75.519882808923612 -43.963878919188829 0 0 0 -1 I I #
coedge $-1 $160 $318 $162 $249 reversed $246 $-1 #
loop $-1 $-1 $160 $232 #
straight-curve $-1 75.519882808923612 -43.963878919188829 0 0 0 1 I I #
coedge $-1 $163 $162 $323 $324 forward $152 $-1 #
edge $-1 $164 $325 $245 $326 forward #
edge $-1 $327 $165 $235 $328 forward #
point $-1 75.519882808923612 -43.963878919188829 15.916227111395795 #
point $-1 -75.519882808923612 -43.963878919188829 15.916227111395795 #
loop $-1 $-1 $256 $167 #
plane-surface $-1 -75.519882808923612 0 0 1 0 0 0 0 -1 forward_v I I I I #
coedge $-1 $171 $170 $262 $329 reversed $69 $-1 #
coedge $-1 $330 $331 $171 $257 forward $253 $-1 #
edge $-1 $259 $332 $256 $333 forward #
coedge $-1 $177 $172 $331 $334 reversed $103 $-1 #
vertex $-1 $173 $335 #
straight-curve $-1 -32.963920647781016 43.963878919188829 6.2955703310888964 -1 0 0 I I #
coedge $-1 $336 $174 $177 $266 forward $168 $-1 #
coedge $-1 $174 $336 $255 $329 forward $168 $-1 #
vertex $-1 $175 $337 #
straight-curve $-1 -56.335799782200461 53.004546994982519 21.773839919802356 0 1 0 I I #
straight-curve $-1 -56.335799782200461 -11.370851129249516 74.628272962777856 0 -0.62932038083071107 0.77714596973225614 I I #
edge $-1 $178 $338 $177 $339 forward #
point $-1 -56.335799782200461 43.963878919188829 21.773839919802363 #
point $-1 -56.335799782200461 43.963878919188822 6.2955703310888964 #
edge $-1 $340 $340 $181 $-1 forward #
vertex $-1 $182 $341 #
ellipse-curve $-1 -65.927841295562033 35.239237160344643 12.044568488522525 0 0.77714596973225614 0.62932038083071107 1 0 0 1 I I #
point $-1 -64.927841295562033 37.696851300474229 14.034705125445624 #
plane-surface $-1 0 43.963878919188829 0 0 -1 0 0 0 -1 forward_v I I I I #
coedge $-1 $284 $283 $276 $342 forward $186 $-1 #
coedge $-1 $276 $188 $190 $280 reversed $118 $-1 #
coedge $-1 $188 $275 $274 $342 reversed $118 $-1 #
coedge $-1 $196 $191 $188 $278 forward $197 $-1 #
edge $-1 $281 $343 $277 $344 forward #
coedge $-1 $190 $189 $284 $345 reversed $78 $-1 #
edge $-1 $346 $281 $275 $347 forward #
vertex $-1 $192 $348 #
straight-curve $-1 4.7960207566807895 43.963878919188829 6.2955703310888964 -1 0 0 I I #
coedge $-1 $274 $193 $196 $288 forward $186 $-1 #
coedge $-1 $193 $274 $279 $345 forward $186 $-1 #
vertex $-1 $194 $349 #
straight-curve $-1 19.184083026723151 53.004546994982519 21.773839919802356 0 1 0 I I #
straight-curve $-1 19.184083026723151 -11.370851129249516 74.628272962777856 0 -0.62932038083071107 0.77714596973225614 I I #
edge $-1 $198 $343 $196 $350 forward #
point $-1 19.184083026723151 43.963878919188829 21.773839919802363 #
point $-1 19.184083026723151 43.963878919188822 6.2955703310888964 #
edge $-1 $351 $351 $201 $-1 forward #
vertex $-1 $202 $352 #
ellipse-curve $-1 9.5920415133615791 35.239237160344643 12.044568488522525 0 0.77714596973225614 0.62932038083071107 1 0 0 1 I I #
point $-1 10.592041513361579 37.696851300474229 14.034705125445624 #
plane-surface $-1 75.519882808923612 0 0 -1 0 0 0 0 1 forward_v I I I I #
coedge $-1 $210 $208 $212 $300 reversed $133 $-1 #
edge $-1 $223 $302 $222 $353 forward #
vertex $-1 $300 $354 #
straight-curve $-1 -75.519882808923612 -43.963878919188829 0 0 0 -1 I I #
edge $-1 $298 $302 $296 $355 forward #
straight-curve $-1 0 -43.963878919188829 -21.773839919802363 -1 0 0 I I #
vertex $-1 $215 $356 #
straight-curve $-1 0 43.963878919188829 -21.773839919802363 1 0 0 I I #
point $-1 75.519882808923612 43.963878919188829 -21.773839919802363 #
point $-1 75.519882808923612 -43.963878919188829 -21.773839919802363 #
straight-curve $-1 -75.519882808923612 0 21.773839919802363 0 -1 0 I I #
point $-1 -75.519882808923612 43.963878919188829 21.773839919802363 #
point $-1 -75.519882808923612 -43.963878919188829 21.773839919802363 #
straight-curve $-1 75.519882808923612 -43.963878919188829 0 0 0 -1 I I #
straight-curve $-1 75.519882808923612 43.963878919188829 0 0 0 -1 I I #
plane-surface $-1 75.519882808923612 0 0 -1 0 0 0 0 1 forward_v I I I I #
coedge $-1 $323 $314 $313 $357 forward $233 $-1 #
coedge $-1 $236 $235 $312 $357 reversed $95 $-1 #
coedge $-1 $312 $358 $237 $315 reversed $233 $-1 #
edge $-1 $316 $319 $314 $359 forward #
vertex $-1 $238 $360 #
straight-curve $-1 -75.519882808923612 0 21.773839919802363 0 -1 0 I I #
coedge $-1 $245 $239 $358 $361 forward $246 $-1 #
vertex $-1 $240 $362 #
straight-curve $-1 75.519882808923612 0 21.773839919802363 0 1 0 I I #
point $-1 75.519882808923612 -43.963878919188829 21.773839919802363 #
point $-1 -75.519882808923612 -43.963878919188829 21.773839919802363 #
coedge $-1 $358 $312 $248 $324 reversed $233 $-1 #
edge $-1 $325 $327 $323 $363 forward #
vertex $-1 $361 $364 #
straight-curve $-1 75.519882808923612 -52.968667810879623 15.916227111395795 0 -1 0 I I #
vertex $-1 $250 $365 #
straight-curve $-1 -75.519882808923612 -52.968667810879623 15.916227111395795 0 1 0 I I #
edge $-1 $332 $263 $262 $366 forward #
coedge $-1 $331 $256 $336 $367 reversed $253 $-1 #
coedge $-1 $256 $330 $258 $334 forward $253 $-1 #
vertex $-1 $257 $368 #
straight-curve $-1 -75.519882808923612 9.1301947932032057 49.311588966465543 0 -0.62932038083071107 0.77714596973225614 I I #
edge $-1 $338 $259 $258 $369 forward #
point $-1 -75.519882808923612 43.963878919188829 6.2955703310889009 #
coedge $-1 $262 $261 $330 $367 forward $168 $-1 #
point $-1 -56.335799782200461 31.429823681759643 21.773839919802356 #
vertex $-1 $266 $370 #
straight-curve $-1 0 43.963878919188829 21.773839919802363 -1 0 0 I I #
vertex $-1 $269 $371 #
point $-1 -64.927841295562033 35.239237160344643 12.044568488522525 #
edge $-1 $343 $346 $274 $372 forward #
vertex $-1 $342 $373 #
straight-curve $-1 5.3290705182007514e-015 43.963878919188829 84.840337890991407 0 0 1 I I #
edge $-1 $346 $285 $284 $374 forward #
vertex $-1 $345 $375 #
straight-curve $-1 5.3290705182007514e-015 -11.370851129249516 74.628272962777856 0 0.62932038083071107 -0.77714596973225614 I I #
point $-1 5.3290705182007514e-015 43.963878919188822 6.2955703310888964 #
point $-1 19.184083026723151 31.429823681759643 21.773839919802356 #
straight-curve $-1 0 43.963878919188829 21.773839919802363 -1 0 0 I I #
vertex $-1 $291 $376 #
point $-1 10.592041513361579 35.239237160344643 12.044568488522525 #
straight-curve $-1 -75.519882808923612 43.963878919188829 0 0 0 -1 I I #
point $-1 -75.519882808923612 -43.963878919188829 -21.773839919802363 #
straight-curve $-1 -75.519882808923612 0 -21.773839919802363 0 1 0 I I #
point $-1 -75.519882808923612 43.963878919188829 -21.773839919802363 #
edge $-1 $316 $327 $313 $377 forward #
coedge $-1 $314 $323 $318 $361 reversed $233 $-1 #
straight-curve $-1 0 -61.973456702570417 21.773839919802359 1 0 0 I I #
point $-1 -75.519882808923612 -61.973456702570417 21.773839919802359 #
edge $-1 $319 $325 $318 $378 forward #
point $-1 75.519882808923612 -61.973456702570417 21.773839919802359 #
straight-curve $-1 0 -61.973456702570417 15.916227111395795 -1 0 0 I I #
point $-1 75.519882808923612 -61.973456702570417 15.916227111395795 #
point $-1 -75.519882808923612 -61.973456702570417 15.916227111395795 #
straight-curve $-1 -32.963920647781016 31.429823681759633 21.773839919802363 1 0 0 I I #
edge $-1 $338 $332 $330 $379 forward #
point $-1 -75.519882808923612 31.429823681759643 21.773839919802356 #
straight-curve $-1 -75.519882808923612 43.963878919188829 0 0 0 -1 I I #
point $-1 -75.519882808923612 43.963878919188829 21.773839919802363 #
point $-1 -65.927841295562033 34.462091190612384 11.415248107691813 #
straight-curve $-1 5.3290705182007514e-015 53.004546994982519 21.773839919802356 0 -1 0 I I #
point $-1 5.3290705182007514e-015 43.963878919188829 21.773839919802363 #
straight-curve $-1 4.7960207566807895 31.429823681759633 21.773839919802363 1 0 0 I I #
point $-1 5.3290705182007514e-015 31.429823681759643 21.773839919802356 #
point $-1 9.5920415133615791 34.462091190612384 11.415248107691813 #
straight-curve $-1 -75.519882808923612 -61.973456702570417 18.845033515599077 0 0 -1 I I #
straight-curve $-1 75.519882808923612 -61.973456702570417 18.845033515599077 0 0 -1 I I #
straight-curve $-1 -75.519882808923612 0 21.773839919802363 0 -1 0 I I #
End-of-ACIS-data 