600 0 4 0           
95 GICL ACIS Healer - Source: /gicl/data5/repository/Drexel/SM99-DATA/part120.smdg.delta.sat - 6 0 18 ACIS 6.0.3 Solaris 24 Sat Apr 13 20:44:55 2002 
1 9.999999999999999547e-07 1.000000000000000036e-10 
body $-1 $4 $-1 $-1 #
body $-1 $5 $-1 $-1 #
body $-1 $6 $-1 $-1 #
body $-1 $7 $-1 $-1 #
lump $-1 $-1 $8 $0 #
lump $-1 $-1 $9 $1 #
lump $-1 $-1 $10 $2 #
lump $-1 $-1 $11 $3 #
shell $-1 $-1 $-1 $12 $-1 $4 #
shell $-1 $-1 $-1 $13 $-1 $5 #
shell $-1 $-1 $-1 $14 $-1 $6 #
shell $-1 $-1 $-1 $15 $-1 $7 #
face $-1 $16 $17 $8 $-1 $18 forward single #
face $-1 $19 $20 $9 $-1 $21 forward single #
face $-1 $22 $23 $10 $-1 $24 reversed single #
face $-1 $25 $26 $11 $-1 $27 forward single #
face $-1 $28 $29 $8 $-1 $30 reversed single #
loop $-1 $-1 $31 $12 #
plane-surface $-1 61.53386028626361792 40.42583260586468441 16.35613370735772421 0 0 1 1 0 0 forward_v I I I I #
face $-1 $32 $33 $9 $-1 $34 reversed single #
loop $-1 $-1 $35 $13 #
plane-surface $-1 61.53386028626361792 3.370013955478157186 3.011411451860665167 0 0 1 1 0 0 forward_v I I I I #
face $-1 $36 $37 $10 $-1 $38 reversed single #
loop $-1 $-1 $39 $14 #
plane-surface $-1 132.1764839604277313 28.78787644044767902 184.094982132580185 0 -1 0 -0.7431448337585914166 0 -0.6691305971616567927 forward_v I I I I #
face $-1 $40 $41 $11 $-1 $42 forward single #
loop $-1 $43 $44 $15 #
cone-surface $-1 119.1214075414803801 19.21660286802584139 12.22873041884249545 -0.7431448337585914166 0 -0.6691305971616567927 0.6691305971616567927 0 -0.7431448337585914166 1 I I 0 1 1 forward I I I I #
face $-1 $45 $46 $8 $-1 $47 reversed single #
loop $-1 $-1 $48 $16 #
plane-surface $-1 61.53386028626361792 40.42583260586468441 0 0 0 1 1 0 0 forward_v I I I I #
coedge $-1 $49 $50 $51 $52 forward $17 $-1 #
face $-1 $53 $54 $9 $-1 $55 reversed single #
loop $-1 $-1 $56 $19 #
plane-surface $-1 61.53386028626361792 6.740027910956314372 1.505705725930332584 0 -1 0 0 0 -1 forward_v I I I I #
coedge $-1 $57 $58 $59 $60 reversed $20 $-1 #
face $-1 $61 $62 $10 $-1 $63 reversed single #
loop $-1 $-1 $64 $22 #
plane-surface $-1 40.71934321450819994 19.21660286802584139 101.7466047745611064 0.7431448337585914166 0 0.6691305971616567927 0.6691305971616567927 0 -0.7431448337585914166 forward_v I I I I #
coedge $-1 $65 $66 $67 $68 reversed $23 $-1 #
face $-1 $-1 $69 $11 $-1 $70 forward single #
loop $-1 $71 $72 $25 #
cone-surface $-1 117.5347489826457519 19.21660286802584139 10.80009667110449811 -0.7431448337585914166 0 -0.6691305971616567927 0.3345652985808283963 0 -0.3715724168792957083 1 I I -0.7071067811865474617 0.7071067811865474617 0.5 forward I I I I #
loop $-1 $-1 $73 $15 #
coedge $-1 $44 $44 $74 $75 reversed $26 $-1 #
face $-1 $76 $77 $8 $-1 $78 reversed single #
loop $-1 $-1 $79 $28 #
plane-surface $-1 61.53386028626361792 0 8.178066853678862103 0 1 0 0 0 1 forward_v I I I I #
coedge $-1 $80 $81 $82 $83 forward $29 $-1 #
coedge $-1 $84 $31 $85 $86 forward $17 $-1 #
coedge $-1 $31 $84 $87 $88 forward $17 $-1 #
coedge $-1 $89 $90 $31 $52 reversed $91 $-1 #
edge $-1 $92 -40.42583260586468441 $93 40.42583260586468441 $51 $94 forward 7 unknown #
face $-1 $95 $96 $9 $-1 $97 reversed single #
loop $-1 $-1 $98 $32 #
plane-surface $-1 61.53386028626361792 40.42583260586468441 0 0 0 1 1 0 0 forward_v I I I I #
coedge $-1 $99 $100 $101 $102 reversed $33 $-1 #
coedge $-1 $103 $35 $100 $104 forward $20 $-1 #
coedge $-1 $35 $103 $105 $106 reversed $20 $-1 #
coedge $-1 $107 $101 $35 $60 forward $96 $-1 #
edge $-1 $108 15.15789536971510643 $109 21.8979232806714208 $59 $110 forward 7 unknown #
face $-1 $111 $112 $10 $-1 $113 reversed single #
loop $-1 $-1 $114 $36 #
plane-surface $-1 132.1764839604277313 9.645329295604003761 184.094982132580185 0 1 0 0.7431448337585914166 0 0.6691305971616567927 forward_v I I I I #
coedge $-1 $115 $116 $117 $118 reversed $37 $-1 #
coedge $-1 $66 $39 $119 $120 reversed $23 $-1 #
coedge $-1 $39 $65 $115 $121 reversed $23 $-1 #
coedge $-1 $117 $122 $39 $68 forward $123 $-1 #
edge $-1 $124 -26.21254844918155413 $125 -20.75009467099850724 $67 $126 forward 7 unknown #
loop $-1 $-1 $74 $40 #
plane-surface $-1 40.71934321450819994 19.21660286802584139 101.7466047745611064 0.7431448337585914166 0 0.6691305971616567927 0.6691305971616567927 0 -0.7431448337585914166 forward_v I I I I #
loop $-1 $-1 $127 $25 #
coedge $-1 $72 $72 $73 $128 reversed $41 $-1 #
coedge $-1 $73 $73 $72 $128 forward $43 $-1 #
coedge $-1 $74 $74 $44 $75 forward $69 $-1 #
edge $-1 $129 0 $129 6.283185307179586232 $74 $130 forward 7 unknown #
face $-1 $131 $132 $8 $-1 $133 reversed single #
loop $-1 $-1 $134 $45 #
plane-surface $-1 0 40.42583260586468441 8.178066853678862103 1 0 0 0 0 -1 forward_v I I I I #
coedge $-1 $135 $87 $136 $137 forward $46 $-1 #
coedge $-1 $138 $48 $135 $139 forward $29 $-1 #
coedge $-1 $48 $138 $140 $141 forward $29 $-1 #
coedge $-1 $90 $89 $48 $83 reversed $91 $-1 #
edge $-1 $142 -40.42583260586468441 $143 40.42583260586468441 $82 $144 forward 7 unknown #
coedge $-1 $50 $49 $145 $146 forward $17 $-1 #
coedge $-1 $147 $148 $49 $86 reversed $132 $-1 #
edge $-1 $93 -61.53386028626361792 $149 61.53386028626361792 $85 $150 forward 7 unknown #
coedge $-1 $79 $151 $50 $88 reversed $46 $-1 #
edge $-1 $152 -61.53386028626361792 $92 61.53386028626361792 $87 $153 forward 7 unknown #
coedge $-1 $82 $51 $151 $154 forward $91 $-1 #
coedge $-1 $51 $82 $147 $155 reversed $91 $-1 #
loop $-1 $-1 $89 $131 #
vertex $-1 $52 $156 #
vertex $-1 $52 $157 #
straight-curve $-1 123.0677205725272358 40.42583260586468441 16.35613370735772421 0 1 0 I I #
face $-1 $158 $159 $9 $-1 $160 reversed single #
loop $-1 $-1 $101 $53 #
plane-surface $-1 123.0677205725272358 40.42583260586468441 8.178066853678862103 -1 0 0 0 0 1 forward_v I I I I #
coedge $-1 $161 $162 $99 $163 forward $54 $-1 #
coedge $-1 $164 $56 $98 $163 reversed $33 $-1 #
coedge $-1 $56 $164 $57 $104 reversed $33 $-1 #
coedge $-1 $59 $165 $56 $102 forward $96 $-1 #
edge $-1 $166 -4.841886289804596899 $108 -1.830474837943931732 $101 $167 forward 7 unknown #
coedge $-1 $58 $57 $168 $169 reversed $20 $-1 #
edge $-1 $108 -61.53386028626361792 $170 61.53386028626361792 $100 $171 forward 7 unknown #
coedge $-1 $172 $173 $58 $106 forward $159 $-1 #
edge $-1 $109 -61.53386028626361792 $174 61.53386028626361792 $105 $175 forward 7 unknown #
coedge $-1 $165 $59 $173 $176 forward $96 $-1 #
vertex $-1 $60 $177 #
vertex $-1 $176 $178 #
straight-curve $-1 123.0677205725272358 21.8979232806714208 3.011411451860665167 0 -1 0 I I #
face $-1 $-1 $123 $10 $-1 $179 forward single #
loop $-1 $-1 $180 $61 #
plane-surface $-1 123.0677205725272358 40.42583260586468441 8.178066853678862103 -1 0 0 0 0 1 forward_v I I I I #
coedge $-1 $181 $182 $183 $184 reversed $62 $-1 #
coedge $-1 $185 $64 $66 $121 forward $37 $-1 #
coedge $-1 $64 $185 $181 $186 forward $37 $-1 #
coedge $-1 $183 $67 $64 $118 forward $123 $-1 #
edge $-1 $125 1.03334129649758566 $187 20.17588844134126091 $117 $188 forward 7 unknown #
coedge $-1 $189 $190 $65 $120 forward $112 $-1 #
edge $-1 $191 -85.84706046448791028 $124 -79.780390785771786 $119 $192 forward 7 unknown #
edge $-1 $125 114.904211384105821 $191 123.067720572527179 $66 $193 forward 7 unknown #
coedge $-1 $67 $183 $189 $194 forward $123 $-1 #
loop $-1 $-1 $183 $111 #
vertex $-1 $120 $195 #
vertex $-1 $68 $196 #
straight-curve $-1 96.85517212334568171 28.78787644044767902 16.35613370735772065 -1 0 0 I I #
coedge $-1 $127 $127 $-1 $197 reversed $71 $-1 #
edge $-1 $198 0 $198 6.283185307179586232 $72 $199 forward 7 unknown #
vertex $-1 $75 $200 #
ellipse-curve $-1 120.3364936834357195 19.21660286802584139 13.32279886799966562 0.7431448337585914166 0 0.6691305971616567927 0.6691305971616567927 0 -0.7431448337585914166 1 I I #
face $-1 $-1 $91 $8 $-1 $201 reversed single #
loop $-1 $-1 $147 $76 #
plane-surface $-1 61.53386028626361792 80.85166521172936882 8.178066853678862103 0 -1 0 0 0 -1 forward_v I I I I #
coedge $-1 $202 $145 $148 $203 forward $77 $-1 #
coedge $-1 $151 $79 $80 $139 reversed $46 $-1 #
coedge $-1 $145 $202 $79 $137 reversed $77 $-1 #
edge $-1 $152 -8.178066853678862103 $204 8.178066853678862103 $136 $205 forward 7 unknown #
coedge $-1 $81 $80 $202 $206 forward $29 $-1 #
edge $-1 $143 -61.53386028626361792 $204 61.53386028626361792 $135 $207 forward 7 unknown #
coedge $-1 $148 $147 $81 $141 reversed $132 $-1 #
edge $-1 $208 -61.53386028626361792 $142 61.53386028626361792 $140 $209 forward 7 unknown #
vertex $-1 $83 $210 #
vertex $-1 $154 $211 #
straight-curve $-1 123.0677205725272358 40.42583260586468441 0 0 -1 0 I I #
coedge $-1 $134 $136 $84 $146 reversed $77 $-1 #
edge $-1 $149 -40.42583260586468441 $152 40.42583260586468441 $145 $212 forward 7 unknown #
coedge $-1 $140 $85 $90 $155 forward $132 $-1 #
coedge $-1 $85 $140 $134 $203 reversed $132 $-1 #
vertex $-1 $86 $213 #
straight-curve $-1 61.53386028626361792 80.85166521172936882 16.35613370735772421 -1 0 0 I I #
coedge $-1 $87 $135 $89 $154 reversed $46 $-1 #
vertex $-1 $146 $214 #
straight-curve $-1 61.53386028626361792 0 16.35613370735772421 1 0 0 I I #
edge $-1 $92 -8.178066853678862103 $143 8.178066853678862103 $89 $215 forward 7 unknown #
edge $-1 $93 -8.178066853678862103 $142 8.178066853678862103 $90 $216 forward 7 unknown #
point $-1 123.0677205725272358 0 16.35613370735772421 #
point $-1 123.0677205725272358 80.85166521172936882 16.35613370735772421 #
face $-1 $-1 $217 $9 $-1 $218 reversed single #
loop $-1 $-1 $105 $95 #
plane-surface $-1 61.53386028626361792 0 8.178066853678862103 0 1 0 0 0 1 forward_v I I I I #
coedge $-1 $219 $98 $165 $220 forward $54 $-1 #
coedge $-1 $98 $219 $221 $222 forward $54 $-1 #
edge $-1 $223 -61.53386028626361792 $166 61.53386028626361792 $98 $224 forward 7 unknown #
coedge $-1 $100 $99 $225 $226 reversed $33 $-1 #
coedge $-1 $101 $107 $161 $220 reversed $96 $-1 #
vertex $-1 $220 $227 #
straight-curve $-1 123.0677205725272358 6.740027910956314372 4.841886289804596899 0 0 1 I I #
coedge $-1 $225 $228 $103 $169 forward $217 $-1 #
edge $-1 $174 -21.8979232806714208 $170 -15.15789536971510643 $168 $229 forward 7 unknown #
vertex $-1 $169 $230 #
straight-curve $-1 61.53386028626361792 6.740027910956314372 3.011411451860665167 -1 0 0 I I #
coedge $-1 $231 $105 $228 $232 forward $159 $-1 #
coedge $-1 $105 $231 $107 $176 reversed $159 $-1 #
vertex $-1 $232 $233 #
straight-curve $-1 61.53386028626361792 0 3.011411451860665167 -1 0 0 I I #
edge $-1 $109 5.166655401818196935 $234 8.178066853678862103 $107 $235 forward 7 unknown #
point $-1 123.0677205725272358 6.740027910956314372 3.011411451860665167 #
point $-1 123.0677205725272358 0 3.011411451860665167 #
plane-surface $-1 61.53386028626361792 40.42583260586468441 16.35613370735772421 0 0 1 1 0 0 forward_v I I I I #
coedge $-1 $190 $189 $182 $236 forward $112 $-1 #
coedge $-1 $182 $114 $116 $186 reversed $62 $-1 #
coedge $-1 $114 $181 $180 $236 reversed $62 $-1 #
coedge $-1 $122 $117 $114 $184 forward $123 $-1 #
edge $-1 $187 20.75009467099850724 $237 26.21254844918155413 $183 $238 forward 7 unknown #
coedge $-1 $116 $115 $190 $239 reversed $37 $-1 #
edge $-1 $240 -123.067720572527179 $187 -114.904211384105821 $181 $241 forward 7 unknown #
vertex $-1 $118 $242 #
straight-curve $-1 117.6052667943441747 29.82121773694526468 16.35613370735773486 0 -1 0 I I #
coedge $-1 $180 $119 $122 $194 reversed $112 $-1 #
coedge $-1 $119 $180 $185 $239 forward $112 $-1 #
vertex $-1 $120 $243 #
straight-curve $-1 123.0677205725272358 28.78787644044767902 96.13652449312951376 0 0 1 I I #
straight-curve $-1 40.71934321450819994 28.78787644044767902 101.7466047745611064 0.6691305971616567927 0 -0.7431448337585914166 I I #
edge $-1 $237 -30.78050331026068065 $124 -11.63795616541700539 $189 $244 forward 7 unknown #
point $-1 123.0677205725272358 28.78787644044767902 16.35613370735772421 #
point $-1 117.605266794344189 28.78787644044767902 16.35613370735772065 #
edge $-1 $245 1 $245 0 $127 $-1 forward 7 unknown #
vertex $-1 $128 $246 #
ellipse-curve $-1 117.9063213995250408 19.21660286802584139 11.13466196968532707 0.7431448337585914166 0 0.6691305971616567927 0.6691305971616567927 0 -0.7431448337585914166 1 I I #
point $-1 121.0056242805973739 19.21660286802584139 12.57965403424107187 #
plane-surface $-1 123.0677205725272358 40.42583260586468441 8.178066853678862103 -1 0 0 0 0 1 forward_v I I I I #
coedge $-1 $136 $134 $138 $206 reversed $77 $-1 #
edge $-1 $149 -8.178066853678862103 $208 8.178066853678862103 $148 $247 forward 7 unknown #
vertex $-1 $206 $248 #
straight-curve $-1 0 0 8.178066853678862103 0 0 -1 I I #
edge $-1 $204 -40.42583260586468441 $208 40.42583260586468441 $202 $249 forward 7 unknown #
straight-curve $-1 61.53386028626361792 0 0 -1 0 0 I I #
vertex $-1 $141 $250 #
straight-curve $-1 61.53386028626361792 80.85166521172936882 0 1 0 0 I I #
point $-1 123.0677205725272358 80.85166521172936882 0 #
point $-1 123.0677205725272358 0 0 #
straight-curve $-1 0 40.42583260586468441 16.35613370735772421 0 -1 0 I I #
point $-1 0 80.85166521172936882 16.35613370735772421 #
point $-1 0 0 16.35613370735772421 #
straight-curve $-1 123.0677205725272358 0 8.178066853678862103 0 0 -1 I I #
straight-curve $-1 123.0677205725272358 80.85166521172936882 8.178066853678862103 0 0 -1 I I #
loop $-1 $-1 $225 $158 #
plane-surface $-1 0 40.42583260586468441 8.178066853678862103 1 0 0 0 0 -1 forward_v I I I I #
coedge $-1 $162 $161 $231 $251 forward $54 $-1 #
edge $-1 $166 33.68580469490837004 $234 40.42583260586468441 $165 $252 forward 7 unknown #
coedge $-1 $228 $225 $162 $222 reversed $217 $-1 #
edge $-1 $253 -40.42583260586468441 $223 -33.68580469490837004 $221 $254 forward 7 unknown #
vertex $-1 $226 $255 #
straight-curve $-1 61.53386028626361792 6.740027910956314372 0 1 0 0 I I #
coedge $-1 $221 $168 $164 $226 forward $217 $-1 #
edge $-1 $170 1.830474837943931732 $223 4.841886289804596899 $225 $256 forward 7 unknown #
point $-1 123.0677205725272358 6.740027910956314372 0 #
coedge $-1 $168 $221 $172 $232 reversed $217 $-1 #
straight-curve $-1 0 21.8979232806714208 3.011411451860665167 0 1 0 I I #
point $-1 0 6.740027910956314372 3.011411451860665167 #
coedge $-1 $173 $172 $219 $251 reversed $159 $-1 #
edge $-1 $174 5.166655401818196935 $253 8.178066853678862103 $228 $257 forward 7 unknown #
point $-1 0 0 3.011411451860665167 #
vertex $-1 $176 $258 #
straight-curve $-1 123.0677205725272358 0 8.178066853678862103 0 0 -1 I I #
edge $-1 $237 79.780390785771786 $240 85.84706046448791028 $180 $259 forward 7 unknown #
vertex $-1 $194 $260 #
straight-curve $-1 96.85517212334568171 9.645329295604003761 16.35613370735772065 1 0 0 I I #
edge $-1 $240 -20.17588844134126091 $191 -1.03334129649758566 $190 $261 forward 7 unknown #
vertex $-1 $239 $262 #
straight-curve $-1 40.71934321450819994 9.645329295604003761 101.7466047745611064 -0.6691305971616567927 0 0.7431448337585914166 I I #
point $-1 117.605266794344189 9.645329295604003761 16.35613370735772065 #
point $-1 123.0677205725272358 28.78787644044767902 10.28946402864160881 #
straight-curve $-1 123.0677205725272358 40.42583260586468441 16.35613370735772421 0 1 0 I I #
vertex $-1 $197 $263 #
point $-1 118.5754519966866951 19.21660286802584139 10.39151713592673509 #
straight-curve $-1 0 80.85166521172936882 8.178066853678862103 0 0 -1 I I #
point $-1 0 0 0 #
straight-curve $-1 0 40.42583260586468441 0 0 1 0 I I #
point $-1 0 80.85166521172936882 0 #
edge $-1 $234 -61.53386028626361792 $253 61.53386028626361792 $231 $264 forward 7 unknown #
straight-curve $-1 123.0677205725272358 40.42583260586468441 0 0 -1 0 I I #
vertex $-1 $222 $265 #
straight-curve $-1 0 40.42583260586468441 0 0 1 0 I I #
point $-1 0 6.740027910956314372 0 #
straight-curve $-1 0 6.740027910956314372 4.841886289804596899 0 0 -1 I I #
straight-curve $-1 0 0 8.178066853678862103 0 0 -1 I I #
point $-1 123.0677205725272358 0 0 #
straight-curve $-1 123.0677205725272358 9.645329295604003761 96.13652449312951376 0 0 -1 I I #
point $-1 123.0677205725272358 9.645329295604003761 16.35613370735772421 #
straight-curve $-1 123.0677205725272358 29.82121773694526468 10.28946402864160881 0 1 0 I I #
point $-1 123.0677205725272358 9.645329295604003761 10.28946402864160881 #
point $-1 117.163176565766463 19.21660286802584139 10.46553137252366916 #
straight-curve $-1 61.53386028626361792 0 0 -1 0 0 I I #
point $-1 0 0 0 #
End-of-ACIS-data 