600 0 5 0           
94 GICL ACIS Healer - Source: /gicl/data5/repository/Drexel/SM99-DATA/part121.smdg.feat.sat - 6 0 18 ACIS 6.0.3 Solaris 24 Sat Apr 13 20:45:03 2002 
1 9.999999999999999547e-07 1.000000000000000036e-10 
body $-1 $5 $-1 $-1 #
body $-1 $6 $-1 $-1 #
body $-1 $7 $-1 $-1 #
body $-1 $8 $-1 $-1 #
body $-1 $9 $-1 $-1 #
lump $-1 $-1 $10 $0 #
lump $-1 $-1 $11 $1 #
lump $-1 $-1 $12 $2 #
lump $-1 $-1 $13 $3 #
lump $-1 $-1 $14 $4 #
shell $-1 $-1 $-1 $15 $-1 $5 #
shell $-1 $-1 $-1 $16 $-1 $6 #
shell $-1 $-1 $-1 $17 $-1 $7 #
shell $-1 $-1 $-1 $18 $-1 $8 #
shell $-1 $-1 $-1 $19 $-1 $9 #
face $-1 $20 $21 $10 $-1 $22 forward single #
face $-1 $23 $24 $11 $-1 $25 forward single #
face $-1 $26 $27 $12 $-1 $28 forward single #
face $-1 $29 $30 $13 $-1 $31 forward single #
face $-1 $32 $33 $14 $-1 $34 forward single #
face $-1 $35 $36 $10 $-1 $37 reversed single #
loop $-1 $-1 $38 $15 #
plane-surface $-1 78.64131595812860098 38.25913101448773546 32.55091116819031072 0 0 1 1 0 0 forward_v I I I I #
face $-1 $39 $40 $11 $-1 $41 reversed single #
loop $-1 $-1 $42 $16 #
plane-surface $-1 10.03550442472471005 38.25913101448773546 5.580427627557844161 0 0 1 1 0 0 forward_v I I I I #
face $-1 $43 $44 $12 $-1 $45 reversed single #
loop $-1 $-1 $46 $17 #
plane-surface $-1 121.4418149559782449 -251.2229925110070212 206.580189859607259 0 -0.7986355182712320255 0.6018150122385121925 1 0 0 forward_v I I I I #
face $-1 $47 $48 $13 $-1 $49 forward single #
loop $-1 $50 $51 $18 #
cone-surface $-1 114.1834816731996227 7.575882469521188156 23.54022302590902171 0 0.7986355182712320255 -0.6018150122385121925 2.5 0 0 1 I I 0 1 2.5 forward I I I I #
face $-1 $52 $53 $14 $-1 $54 forward single #
loop $-1 $55 $56 $19 #
cone-surface $-1 128.7001482387568956 7.575882469521188156 23.54022302590902171 0 0.7986355182712320255 -0.6018150122385121925 2.5 0 0 1 I I 0 1 2.5 forward I I I I #
face $-1 $57 $58 $10 $-1 $59 reversed single #
loop $-1 $-1 $60 $20 #
plane-surface $-1 78.64131595812860098 38.25913101448773546 0 0 0 1 1 0 0 forward_v I I I I #
coedge $-1 $61 $62 $63 $64 forward $21 $-1 #
face $-1 $65 $66 $11 $-1 $67 reversed single #
loop $-1 $-1 $68 $23 #
plane-surface $-1 10.03550442472471005 38.25913101448773546 1.770022953104046337 0 0 1 1 0 0 forward_v I I I I #
coedge $-1 $69 $70 $71 $72 forward $24 $-1 #
face $-1 $73 $74 $12 $-1 $75 reversed single #
loop $-1 $-1 $76 $26 #
plane-surface $-1 121.4418149559782449 -1.421085471520200372e-14 17.27009175643178196 0 -0.7986355182712320255 0.6018150122385121925 1 0 0 forward_v I I I I #
coedge $-1 $77 $78 $79 $80 forward $27 $-1 #
face $-1 $-1 $81 $13 $-1 $82 forward single #
loop $-1 $-1 $83 $29 #
plane-surface $-1 114.1834816731996227 5.757461514614698572 24.91050146231103568 0 -0.7986355182712320255 0.6018150122385121925 -1 0 -0 forward_v I I I I #
loop $-1 $-1 $84 $18 #
coedge $-1 $51 $51 $83 $85 reversed $30 $-1 #
face $-1 $-1 $86 $14 $-1 $87 forward single #
loop $-1 $-1 $88 $32 #
plane-surface $-1 128.7001482387568956 5.757461514614698572 24.91050146231103568 0 -0.7986355182712320255 0.6018150122385121925 -1 0 -0 forward_v I I I I #
loop $-1 $-1 $89 $19 #
coedge $-1 $56 $56 $88 $90 reversed $33 $-1 #
face $-1 $91 $92 $10 $-1 $93 reversed single #
loop $-1 $-1 $94 $35 #
plane-surface $-1 78.64131595812860098 0 16.27545558409515536 0 1 0 0 0 1 forward_v I I I I #
coedge $-1 $95 $96 $97 $98 forward $36 $-1 #
coedge $-1 $99 $38 $100 $101 forward $21 $-1 #
coedge $-1 $38 $99 $102 $103 forward $21 $-1 #
coedge $-1 $104 $105 $38 $64 reversed $106 $-1 #
edge $-1 $107 -38.25913101448773546 $108 38.25913101448773546 $63 $109 forward 7 unknown #
face $-1 $110 $111 $11 $-1 $112 reversed single #
loop $-1 $-1 $113 $39 #
plane-surface $-1 10.03550442472471005 0 3.675225290330945249 0 1 0 0 0 1 forward_v I I I I #
coedge $-1 $114 $115 $116 $117 forward $40 $-1 #
coedge $-1 $118 $42 $119 $120 forward $24 $-1 #
coedge $-1 $42 $118 $121 $122 forward $24 $-1 #
coedge $-1 $123 $124 $42 $72 reversed $125 $-1 #
edge $-1 $126 -38.25913101448773546 $127 38.25913101448773546 $71 $128 forward 7 unknown #
face $-1 $129 $130 $12 $-1 $131 reversed single #
loop $-1 $-1 $132 $43 #
plane-surface $-1 121.4418149559782449 -314.9215943586789876 -139.2978517029874865 0 0.6018150122385121925 0.7986355182712320255 0 -0.7986355182712320255 0.6018150122385121925 forward_v I I I I #
coedge $-1 $133 $134 $135 $136 forward $44 $-1 #
coedge $-1 $137 $46 $138 $139 forward $27 $-1 #
coedge $-1 $46 $137 $140 $141 forward $27 $-1 #
coedge $-1 $142 $143 $46 $80 reversed $144 $-1 #
edge $-1 $145 -314.5652638325144039 $146 314.5652638325144608 $79 $147 forward 7 unknown #
loop $-1 $148 $149 $47 #
cone-surface $-1 114.1834816731996227 10.39259782226671902 21.4176758242088674 0 0.7986355182712320255 -0.6018150122385121925 1.25 0 0 1 I I -0.7071067811865474617 0.7071067811865474617 1.25 forward I I I I #
coedge $-1 $83 $83 $51 $85 forward $48 $-1 #
coedge $-1 $84 $84 $149 $150 forward $50 $-1 #
edge $-1 $151 0 $151 6.283185307179586232 $83 $152 forward 7 unknown #
loop $-1 $153 $154 $52 #
cone-surface $-1 128.7001482387568956 10.39259782226671902 21.4176758242088674 0 0.7986355182712320255 -0.6018150122385121925 1.25 0 0 1 I I -0.7071067811865474617 0.7071067811865474617 1.25 forward I I I I #
coedge $-1 $88 $88 $56 $90 forward $53 $-1 #
coedge $-1 $89 $89 $154 $155 forward $55 $-1 #
edge $-1 $156 0 $156 6.283185307179586232 $88 $157 forward 7 unknown #
face $-1 $158 $159 $10 $-1 $160 reversed single #
loop $-1 $-1 $161 $57 #
plane-surface $-1 0 38.25913101448773546 16.27545558409515536 1 0 0 0 0 -1 forward_v I I I I #
coedge $-1 $162 $102 $163 $164 forward $58 $-1 #
coedge $-1 $165 $60 $162 $166 forward $36 $-1 #
coedge $-1 $60 $165 $167 $168 forward $36 $-1 #
coedge $-1 $105 $104 $60 $98 reversed $106 $-1 #
edge $-1 $169 -38.25913101448773546 $170 38.25913101448773546 $97 $171 forward 7 unknown #
coedge $-1 $62 $61 $172 $173 forward $21 $-1 #
coedge $-1 $174 $175 $61 $101 reversed $159 $-1 #
edge $-1 $108 -78.64131595812860098 $176 78.64131595812860098 $100 $177 forward 7 unknown #
coedge $-1 $94 $178 $62 $103 reversed $58 $-1 #
edge $-1 $179 -78.64131595812860098 $107 78.64131595812860098 $102 $180 forward 7 unknown #
coedge $-1 $97 $63 $178 $181 forward $106 $-1 #
coedge $-1 $63 $97 $174 $182 reversed $106 $-1 #
loop $-1 $-1 $104 $158 #
vertex $-1 $64 $183 #
vertex $-1 $64 $184 #
straight-curve $-1 157.282631916257202 38.25913101448773546 32.55091116819031072 0 1 0 I I #
face $-1 $185 $186 $11 $-1 $187 reversed single #
loop $-1 $-1 $188 $65 #
plane-surface $-1 0 38.25913101448773546 3.675225290330945249 1 0 0 0 0 -1 forward_v I I I I #
coedge $-1 $189 $121 $190 $191 forward $66 $-1 #
coedge $-1 $192 $68 $189 $193 forward $40 $-1 #
coedge $-1 $68 $192 $194 $195 forward $40 $-1 #
coedge $-1 $124 $123 $68 $117 reversed $125 $-1 #
edge $-1 $196 -38.25913101448773546 $197 38.25913101448773546 $116 $198 forward 7 unknown #
coedge $-1 $70 $69 $199 $200 forward $24 $-1 #
coedge $-1 $201 $202 $69 $120 reversed $186 $-1 #
edge $-1 $127 -10.03550442472471005 $203 10.03550442472471005 $119 $204 forward 7 unknown #
coedge $-1 $113 $205 $70 $122 reversed $66 $-1 #
edge $-1 $206 -10.03550442472471005 $126 10.03550442472471005 $121 $207 forward 7 unknown #
coedge $-1 $116 $71 $205 $208 forward $125 $-1 #
coedge $-1 $71 $116 $201 $209 reversed $125 $-1 #
loop $-1 $-1 $123 $185 #
vertex $-1 $72 $210 #
vertex $-1 $72 $211 #
straight-curve $-1 20.0710088494494201 38.25913101448773546 5.580427627557844161 0 1 0 I I #
face $-1 $212 $213 $12 $-1 $214 reversed single #
loop $-1 $-1 $215 $73 #
plane-surface $-1 104.5057039628281075 -125.6114962555035106 111.9251408080195205 1 0 0 0 0.7986355182712320255 -0.6018150122385121925 forward_v I I I I #
coedge $-1 $216 $140 $217 $218 forward $74 $-1 #
coedge $-1 $219 $76 $216 $220 forward $44 $-1 #
coedge $-1 $76 $219 $221 $222 forward $44 $-1 #
coedge $-1 $143 $142 $76 $136 reversed $144 $-1 #
edge $-1 $223 -314.5652638325144608 $224 314.5652638325144039 $135 $225 forward 7 unknown #
coedge $-1 $78 $77 $226 $227 forward $27 $-1 #
coedge $-1 $228 $229 $77 $139 reversed $213 $-1 #
edge $-1 $146 -16.93611099315013746 $230 16.93611099315013746 $138 $231 forward 7 unknown #
coedge $-1 $132 $232 $78 $141 reversed $74 $-1 #
edge $-1 $233 -16.93611099315013746 $145 16.93611099315013746 $140 $234 forward 7 unknown #
coedge $-1 $135 $79 $232 $235 forward $144 $-1 #
coedge $-1 $79 $135 $228 $236 reversed $144 $-1 #
loop $-1 $-1 $142 $212 #
vertex $-1 $80 $237 #
vertex $-1 $80 $238 #
straight-curve $-1 138.3779259491283824 -251.2229925110070212 206.580189859607259 0 0.6018150122385121925 0.7986355182712320255 I I #
loop $-1 $-1 $239 $47 #
coedge $-1 $149 $149 $84 $150 reversed $81 $-1 #
edge $-1 $240 0 $240 6.283185307179586232 $149 $241 forward 7 unknown #
vertex $-1 $85 $242 #
ellipse-curve $-1 114.1834816731996227 5.757461514614698572 24.91050146231103568 0 -0.7986355182712320255 0.6018150122385121925 2.5 0 0 1 I I #
loop $-1 $-1 $243 $52 #
coedge $-1 $154 $154 $89 $155 reversed $86 $-1 #
edge $-1 $244 0 $244 6.283185307179586232 $154 $245 forward 7 unknown #
vertex $-1 $90 $246 #
ellipse-curve $-1 128.7001482387568956 5.757461514614698572 24.91050146231103568 0 -0.7986355182712320255 0.6018150122385121925 2.5 0 0 1 I I #
face $-1 $-1 $106 $10 $-1 $247 reversed single #
loop $-1 $-1 $174 $91 #
plane-surface $-1 78.64131595812860098 76.51826202897547091 16.27545558409515536 0 -1 0 0 0 -1 forward_v I I I I #
coedge $-1 $248 $172 $175 $249 forward $92 $-1 #
coedge $-1 $178 $94 $95 $166 reversed $58 $-1 #
coedge $-1 $172 $248 $94 $164 reversed $92 $-1 #
edge $-1 $179 -16.27545558409515536 $250 16.27545558409515536 $163 $251 forward 7 unknown #
coedge $-1 $96 $95 $248 $252 forward $36 $-1 #
edge $-1 $170 -78.64131595812860098 $250 78.64131595812860098 $162 $253 forward 7 unknown #
coedge $-1 $175 $174 $96 $168 reversed $159 $-1 #
edge $-1 $254 -78.64131595812860098 $169 78.64131595812860098 $167 $255 forward 7 unknown #
vertex $-1 $98 $256 #
vertex $-1 $181 $257 #
straight-curve $-1 157.282631916257202 38.25913101448773546 0 0 -1 0 I I #
coedge $-1 $161 $163 $99 $173 reversed $92 $-1 #
edge $-1 $176 -38.25913101448773546 $179 38.25913101448773546 $172 $258 forward 7 unknown #
coedge $-1 $167 $100 $105 $182 forward $159 $-1 #
coedge $-1 $100 $167 $161 $249 reversed $159 $-1 #
vertex $-1 $101 $259 #
straight-curve $-1 78.64131595812860098 76.51826202897547091 32.55091116819031072 -1 0 0 I I #
coedge $-1 $102 $162 $104 $181 reversed $58 $-1 #
vertex $-1 $173 $260 #
straight-curve $-1 78.64131595812860098 0 32.55091116819031072 1 0 0 I I #
edge $-1 $107 -16.27545558409515536 $170 16.27545558409515536 $104 $261 forward 7 unknown #
edge $-1 $108 -16.27545558409515536 $169 16.27545558409515536 $105 $262 forward 7 unknown #
point $-1 157.282631916257202 0 32.55091116819031072 #
point $-1 157.282631916257202 76.51826202897547091 32.55091116819031072 #
face $-1 $-1 $125 $11 $-1 $263 reversed single #
loop $-1 $-1 $201 $110 #
plane-surface $-1 10.03550442472471005 76.51826202897547091 3.675225290330945249 0 -1 0 0 0 -1 forward_v I I I I #
coedge $-1 $264 $199 $202 $265 forward $111 $-1 #
coedge $-1 $205 $113 $114 $193 reversed $66 $-1 #
coedge $-1 $199 $264 $113 $191 reversed $111 $-1 #
edge $-1 $206 -1.905202337226898912 $266 1.905202337226898912 $190 $267 forward 7 unknown #
coedge $-1 $115 $114 $264 $268 forward $40 $-1 #
edge $-1 $197 -10.03550442472471005 $266 10.03550442472471005 $189 $269 forward 7 unknown #
coedge $-1 $202 $201 $115 $195 reversed $186 $-1 #
edge $-1 $270 -10.03550442472471005 $196 10.03550442472471005 $194 $271 forward 7 unknown #
vertex $-1 $117 $272 #
vertex $-1 $208 $273 #
straight-curve $-1 20.0710088494494201 38.25913101448773546 1.770022953104046337 0 -1 0 I I #
coedge $-1 $188 $190 $118 $200 reversed $111 $-1 #
edge $-1 $203 -38.25913101448773546 $206 38.25913101448773546 $199 $274 forward 7 unknown #
coedge $-1 $194 $119 $124 $209 forward $186 $-1 #
coedge $-1 $119 $194 $188 $265 reversed $186 $-1 #
vertex $-1 $120 $275 #
straight-curve $-1 10.03550442472471005 76.51826202897547091 5.580427627557844161 -1 0 0 I I #
coedge $-1 $121 $189 $123 $208 reversed $66 $-1 #
vertex $-1 $200 $276 #
straight-curve $-1 10.03550442472471005 0 5.580427627557844161 1 0 0 I I #
edge $-1 $126 -1.905202337226898912 $197 1.905202337226898912 $123 $277 forward 7 unknown #
edge $-1 $127 -1.905202337226898912 $196 1.905202337226898912 $124 $278 forward 7 unknown #
point $-1 20.0710088494494201 0 5.580427627557844161 #
point $-1 20.0710088494494201 76.51826202897547091 5.580427627557844161 #
face $-1 $-1 $144 $12 $-1 $279 reversed single #
loop $-1 $-1 $228 $129 #
plane-surface $-1 121.4418149559782449 63.69860184767196642 363.1481333190264991 0 -0.6018150122385121925 -0.7986355182712320255 0 0.7986355182712320255 -0.6018150122385121925 forward_v I I I I #
coedge $-1 $280 $226 $229 $281 forward $130 $-1 #
coedge $-1 $232 $132 $133 $220 reversed $74 $-1 #
coedge $-1 $226 $280 $132 $218 reversed $130 $-1 #
edge $-1 $233 -157.2826319162571735 $282 157.2826319162571735 $217 $283 forward 7 unknown #
coedge $-1 $134 $133 $280 $284 forward $44 $-1 #
edge $-1 $224 -16.93611099315013746 $282 16.93611099315013746 $216 $285 forward 7 unknown #
coedge $-1 $229 $228 $134 $222 reversed $213 $-1 #
edge $-1 $286 -16.93611099315013746 $223 16.93611099315013746 $221 $287 forward 7 unknown #
vertex $-1 $136 $288 #
vertex $-1 $235 $289 #
straight-curve $-1 138.3779259491283824 -1.421085471520200372e-14 17.27009175643178196 0 -0.6018150122385121925 -0.7986355182712320255 I I #
coedge $-1 $215 $217 $137 $227 reversed $130 $-1 #
edge $-1 $230 -314.5652638325144608 $233 314.5652638325144039 $226 $290 forward 7 unknown #
coedge $-1 $221 $138 $143 $236 forward $213 $-1 #
coedge $-1 $138 $221 $215 $281 reversed $213 $-1 #
vertex $-1 $139 $291 #
straight-curve $-1 121.4418149559782449 -61.91289440783152997 457.8031823706142518 -1 0 0 I I #
coedge $-1 $140 $216 $142 $235 reversed $74 $-1 #
vertex $-1 $227 $292 #
straight-curve $-1 121.4418149559782449 -440.5330906141824698 -44.64280265139974802 1 0 0 I I #
edge $-1 $145 -157.2826319162571735 $224 157.2826319162571735 $142 $293 forward 7 unknown #
edge $-1 $146 -157.2826319162572304 $223 157.282631916257202 $143 $294 forward 7 unknown #
point $-1 138.3779259491283824 -440.5330906141824698 -44.64280265139974802 #
point $-1 138.3779259491283824 -61.91289440783152997 457.8031823706142518 #
coedge $-1 $239 $239 $-1 $295 reversed $148 $-1 #
vertex $-1 $150 $296 #
ellipse-curve $-1 114.1834816731996227 9.394303424427679516 22.16994458950700775 0 -0.7986355182712320255 0.6018150122385121925 2.5 0 0 1 I I #
point $-1 116.6834816731996227 5.757461514614698572 24.91050146231103568 #
coedge $-1 $243 $243 $-1 $297 reversed $153 $-1 #
vertex $-1 $155 $298 #
ellipse-curve $-1 128.7001482387568956 9.394303424427679516 22.16994458950700775 0 -0.7986355182712320255 0.6018150122385121925 2.5 0 0 1 I I #
point $-1 131.2001482387568956 5.757461514614698572 24.91050146231103568 #
plane-surface $-1 157.282631916257202 38.25913101448773546 16.27545558409515536 -1 0 0 0 0 1 forward_v I I I I #
coedge $-1 $163 $161 $165 $252 reversed $92 $-1 #
edge $-1 $176 -16.27545558409515536 $254 16.27545558409515536 $175 $299 forward 7 unknown #
vertex $-1 $252 $300 #
straight-curve $-1 0 0 16.27545558409515536 0 0 -1 I I #
edge $-1 $250 -38.25913101448773546 $254 38.25913101448773546 $248 $301 forward 7 unknown #
straight-curve $-1 78.64131595812860098 0 0 -1 0 0 I I #
vertex $-1 $168 $302 #
straight-curve $-1 78.64131595812860098 76.51826202897547091 0 1 0 0 I I #
point $-1 157.282631916257202 76.51826202897547091 0 #
point $-1 157.282631916257202 0 0 #
straight-curve $-1 0 38.25913101448773546 32.55091116819031072 0 -1 0 I I #
point $-1 0 76.51826202897547091 32.55091116819031072 #
point $-1 0 0 32.55091116819031072 #
straight-curve $-1 157.282631916257202 0 16.27545558409515536 0 0 -1 I I #
straight-curve $-1 157.282631916257202 76.51826202897547091 16.27545558409515536 0 0 -1 I I #
plane-surface $-1 20.0710088494494201 38.25913101448773546 3.675225290330945249 -1 0 0 0 0 1 forward_v I I I I #
coedge $-1 $190 $188 $192 $268 reversed $111 $-1 #
edge $-1 $203 -1.905202337226898912 $270 1.905202337226898912 $202 $303 forward 7 unknown #
vertex $-1 $268 $304 #
straight-curve $-1 0 0 3.675225290330945249 0 0 -1 I I #
edge $-1 $266 -38.25913101448773546 $270 38.25913101448773546 $264 $305 forward 7 unknown #
straight-curve $-1 10.03550442472471005 0 1.770022953104046337 -1 0 0 I I #
vertex $-1 $195 $306 #
straight-curve $-1 10.03550442472471005 76.51826202897547091 1.770022953104046337 1 0 0 I I #
point $-1 20.0710088494494201 76.51826202897547091 1.770022953104046337 #
point $-1 20.0710088494494201 0 1.770022953104046337 #
straight-curve $-1 0 38.25913101448773546 5.580427627557844161 0 -1 0 I I #
point $-1 0 76.51826202897547091 5.580427627557844161 #
point $-1 0 0 5.580427627557844161 #
straight-curve $-1 20.0710088494494201 0 3.675225290330945249 0 0 -1 I I #
straight-curve $-1 20.0710088494494201 76.51826202897547091 3.675225290330945249 0 0 -1 I I #
plane-surface $-1 138.3779259491283824 -125.6114962555035106 111.9251408080195205 -1 0 0 0 -0.7986355182712320255 0.6018150122385121925 forward_v I I I I #
coedge $-1 $217 $215 $219 $284 reversed $130 $-1 #
edge $-1 $230 -157.2826319162572304 $286 157.282631916257202 $229 $307 forward 7 unknown #
vertex $-1 $284 $308 #
straight-curve $-1 104.5057039628281075 -314.9215943586789876 -139.2978517029874865 0 0.7986355182712320255 -0.6018150122385121925 I I #
edge $-1 $282 -314.5652638325144039 $286 314.5652638325144608 $280 $309 forward 7 unknown #
straight-curve $-1 121.4418149559782449 -189.3100981031755055 -233.9529007545751824 -1 0 0 I I #
vertex $-1 $222 $310 #
straight-curve $-1 121.4418149559782449 189.310098103175477 268.4930842674388032 1 0 0 I I #
point $-1 138.3779259491283824 189.310098103175477 268.4930842674388032 #
point $-1 138.3779259491283824 -189.3100981031755055 -233.9529007545751824 #
straight-curve $-1 104.5057039628281075 -251.2229925110070212 206.580189859607259 0 -0.6018150122385121925 -0.7986355182712320255 I I #
point $-1 104.5057039628281075 -61.91289440783152997 457.8031823706142518 #
point $-1 104.5057039628281075 -440.5330906141824698 -44.64280265139974802 #
straight-curve $-1 138.3779259491283824 -314.9215943586789876 -139.2978517029874865 0 0.7986355182712320255 -0.6018150122385121925 I I #
straight-curve $-1 138.3779259491283824 63.69860184767196642 363.1481333190264991 0 0.7986355182712320255 -0.6018150122385121925 I I #
edge $-1 $311 1 $311 0 $239 $-1 forward 7 unknown #
point $-1 116.6834816731996227 9.394303424427679516 22.16994458950700775 #
edge $-1 $312 1 $312 0 $243 $-1 forward 7 unknown #
point $-1 131.2001482387568956 9.394303424427679516 22.16994458950700775 #
straight-curve $-1 0 76.51826202897547091 16.27545558409515536 0 0 -1 I I #
point $-1 0 0 0 #
straight-curve $-1 0 38.25913101448773546 0 0 1 0 I I #
point $-1 0 76.51826202897547091 0 #
straight-curve $-1 0 76.51826202897547091 3.675225290330945249 0 0 -1 I I #
point $-1 0 0 1.770022953104046337 #
straight-curve $-1 0 38.25913101448773546 1.770022953104046337 0 1 0 I I #
point $-1 0 76.51826202897547091 1.770022953104046337 #
straight-curve $-1 104.5057039628281075 63.69860184767196642 363.1481333190264991 0 0.7986355182712320255 -0.6018150122385121925 I I #
point $-1 104.5057039628281075 -189.3100981031755055 -233.9529007545751824 #
straight-curve $-1 104.5057039628281075 -1.421085471520200372e-14 17.27009175643178196 0 0.6018150122385121925 0.7986355182712320255 I I #
point $-1 104.5057039628281075 189.310098103175477 268.4930842674388032 #
vertex $-1 $295 $313 #
vertex $-1 $297 $314 #
point $-1 114.1834816731996227 11.39089222010575853 20.66540705891072705 #
point $-1 128.7001482387568956 11.39089222010575853 20.66540705891072705 #
End-of-ACIS-data 