300 0 9 0           
7 Unknown 11 ACIS 3.0 NT 24 Fri Oct 30 15:02:34 1998 
-1 9.9999999999999995e-007 1e-010 
body $9 $10 $-1 $11 #
body $12 $13 $-1 $14 #
body $15 $16 $-1 $17 #
body $18 $19 $-1 $20 #
body $21 $22 $-1 $23 #
body $24 $25 $-1 $26 #
body $27 $28 $-1 $29 #
body $30 $31 $-1 $32 #
body $33 $34 $-1 $35 #
display_attribute-st-attrib $-1 $36 $-1 $0 2 #
lump $-1 $-1 $37 $0 #
transform $-1 1 0 0 0 1 0 0 0 1 50.328684347056488 29.855460302523266 8.9417864411420886 1 rotate no_reflect no_shear #
display_attribute-st-attrib $-1 $38 $-1 $1 7 #
lump $-1 $-1 $39 $1 #
transform $-1 1 0 0 0 1 0 0 0 1 50.328684347056488 29.855460302523266 8.9417864411420886 1 rotate no_reflect no_shear #
display_attribute-st-attrib $-1 $40 $-1 $2 1 #
lump $-1 $-1 $41 $2 #
transform $-1 1 0 0 0 1 0 0 0 1 50.328684347056488 29.855460302523266 8.9417864411420886 1 rotate no_reflect no_shear #
display_attribute-st-attrib $-1 $42 $-1 $3 6 #
lump $-1 $-1 $43 $3 #
transform $-1 1 0 0 0 1 0 0 0 1 50.328684347056488 29.855460302523266 8.9417864411420886 1 rotate no_reflect no_shear #
display_attribute-st-attrib $-1 $44 $-1 $4 5 #
lump $-1 $-1 $45 $4 #
transform $-1 1 0 0 0 1 0 0 0 1 50.328684347056488 29.855460302523266 8.9417864411420886 1 rotate no_reflect no_shear #
display_attribute-st-attrib $-1 $46 $-1 $5 4 #
lump $-1 $-1 $47 $5 #
transform $-1 1 0 0 0 1 0 0 0 1 50.328684347056488 29.855460302523266 8.9417864411420886 1 rotate no_reflect no_shear #
display_attribute-st-attrib $-1 $48 $-1 $6 3 #
lump $-1 $-1 $49 $6 #
transform $-1 1 0 0 0 1 0 0 0 1 50.328684347056488 29.855460302523266 8.9417864411420886 1 rotate no_reflect no_shear #
display_attribute-st-attrib $-1 $50 $-1 $7 2 #
lump $-1 $-1 $51 $7 #
transform $-1 1 0 0 0 1 0 0 0 1 50.328684347056488 29.855460302523266 8.9417864411420886 1 rotate no_reflect no_shear #
display_attribute-st-attrib $-1 $52 $-1 $8 1 #
lump $-1 $-1 $53 $8 #
transform $-1 1 0 0 0 1 0 0 0 1 50.328684347056488 29.855460302523266 8.9417864411420886 1 rotate no_reflect no_shear #
id_attribute-st-attrib $-1 $-1 $9 $0 2646 #
shell $-1 $-1 $-1 $54 $-1 $10 #
id_attribute-st-attrib $-1 $-1 $12 $1 2654 #
shell $-1 $-1 $-1 $55 $-1 $13 #
id_attribute-st-attrib $-1 $-1 $15 $2 2662 #
shell $-1 $-1 $-1 $56 $-1 $16 #
id_attribute-st-attrib $-1 $-1 $18 $3 2675 #
shell $-1 $-1 $-1 $57 $-1 $19 #
id_attribute-st-attrib $-1 $-1 $21 $4 2683 #
shell $-1 $-1 $-1 $58 $-1 $22 #
id_attribute-st-attrib $-1 $-1 $24 $5 2692 #
shell $-1 $-1 $-1 $59 $-1 $25 #
id_attribute-st-attrib $-1 $-1 $27 $6 2707 #
shell $-1 $-1 $-1 $60 $-1 $28 #
id_attribute-st-attrib $-1 $-1 $30 $7 2718 #
shell $-1 $-1 $-1 $61 $-1 $31 #
id_attribute-st-attrib $-1 $-1 $33 $8 2730 #
shell $-1 $-1 $-1 $62 $-1 $34 #
face $-1 $63 $64 $37 $-1 $65 reversed single #
face $-1 $66 $67 $39 $-1 $68 reversed single #
face $-1 $69 $70 $41 $-1 $71 forward single #
face $-1 $72 $73 $43 $-1 $74 reversed single #
face $-1 $75 $76 $45 $-1 $77 forward single #
face $-1 $78 $79 $47 $-1 $80 forward single #
face $-1 $81 $82 $49 $-1 $83 reversed single #
face $-1 $84 $85 $51 $-1 $86 forward single #
face $-1 $87 $88 $53 $-1 $89 forward single #
face $-1 $90 $91 $37 $-1 $92 forward single #
loop $-1 $-1 $93 $54 #
plane-surface $-1 50.328684347056488 0 0 -1 0 0 0 0 1 forward_v I I I I #
face $-1 $94 $95 $39 $-1 $96 reversed single #
loop $-1 $-1 $97 $55 #
plane-surface $-1 -47.228675843731224 -16.1313312903882 0 0 1 0 0 0 1 forward_v I I I I #
face $-1 $98 $99 $41 $-1 $100 reversed single #
loop $-1 $-1 $101 $56 #
plane-surface $-1 50.328684347056488 0 0 -1 0 0 0 0 1 forward_v I I I I #
face $-1 $102 $103 $43 $-1 $104 reversed single #
loop $-1 $-1 $105 $57 #
plane-surface $-1 19.261294845906392 28.472971427463971 117.26919885780352 1 0 0 0 -0.50000000669873634 -0.8660253999169214 forward_v I I I I #
face $-1 $106 $107 $45 $-1 $108 forward single #
loop $-1 $109 $110 $58 #
cone-surface $-1 25.873227283490912 20.799065390294636 1.9555363974877178 0 -0.50000000669873634 -0.8660253999169214 2.5 0 0 1 I I 0 1 forward I I I I #
face $-1 $111 $112 $47 $-1 $113 forward single #
loop $-1 $114 $115 $59 #
cone-surface $-1 35.791125939867705 20.799065390294636 1.9555363974877178 0 -0.50000000669873634 -0.8660253999169214 2.5 0 0 1 I I 0 1 forward I I I I #
face $-1 $116 $117 $49 $-1 $118 reversed single #
loop $-1 $-1 $119 $60 #
plane-surface $-1 42.403058377452254 -86.142347289852481 88.774170700372977 -1 0 0 0 -0.55919291073839883 0.82903756765294845 forward_v I I I I #
face $-1 $120 $121 $51 $-1 $122 forward single #
loop $-1 $123 $124 $61 #
cone-surface $-1 26.17352616290102 -26.496098886861386 6.1275019642835318 0 0.55919291073839883 -0.82903756765294845 1 0 0 1 I I 0 1 forward I I I I #
face $-1 $125 $126 $53 $-1 $127 forward single #
loop $-1 $128 $129 $62 #
cone-surface $-1 35.911245491631753 -26.496098886861386 6.1275019642835318 0 0.55919291073839883 -0.82903756765294845 1 0 0 1 I I 0 1 forward I I I I #
face $-1 $130 $131 $37 $-1 $132 reversed single #
loop $-1 $-1 $133 $63 #
plane-surface $-1 0 0 8.9417864411420886 0 0 1 1 0 0 forward_v I I I I #
coedge $-1 $134 $135 $136 $137 reversed $64 $-1 #
face $-1 $138 $139 $39 $-1 $140 reversed single #
loop $-1 $-1 $141 $66 #
plane-surface $-1 -47.228675843731224 -11.971887420239089 0 0 -1 0 0 0 -1 forward_v I I I I #
coedge $-1 $142 $143 $144 $145 reversed $67 $-1 #
face $-1 $146 $147 $41 $-1 $148 forward single #
loop $-1 $-1 $149 $69 #
plane-surface $-1 0 -29.855460302523266 0 0 1 0 0 0 1 forward_v I I I I #
coedge $-1 $150 $151 $152 $153 forward $70 $-1 #
face $-1 $154 $155 $43 $-1 $156 reversed single #
loop $-1 $-1 $157 $72 #
plane-surface $-1 30.832176611679323 -21.855713593869691 30.097360879899327 0 0.50000000669873634 0.8660253999169214 1 0 0 forward_v I I I I #
coedge $-1 $158 $159 $160 $161 reversed $73 $-1 #
face $-1 $-1 $162 $45 $-1 $163 forward single #
loop $-1 $164 $165 $75 #
cone-surface $-1 25.873227283490912 18.651992849550776 -1.7633022641859277 0 -0.50000000669873634 -0.8660253999169214 1.25 0 0 1 I I -0.70710678118654746 0.70710678118654768 forward I I I I #
loop $-1 $-1 $166 $58 #
coedge $-1 $110 $110 $167 $168 reversed $76 $-1 #
face $-1 $-1 $169 $47 $-1 $170 forward single #
loop $-1 $171 $172 $78 #
cone-surface $-1 35.791125939867705 18.651992849550776 -1.7633022641859277 0 -0.50000000669873634 -0.8660253999169214 1.25 0 0 1 I I -0.70710678118654746 0.70710678118654768 forward I I I I #
loop $-1 $-1 $173 $59 #
coedge $-1 $115 $115 $174 $175 reversed $79 $-1 #
face $-1 $176 $177 $49 $-1 $178 reversed single #
loop $-1 $-1 $179 $81 #
plane-surface $-1 31.042385827266394 -29.855460302523262 5.3254305918595151 0 -0.55919291073839883 0.82903756765294845 1 0 0 forward_v I I I I #
coedge $-1 $180 $181 $182 $183 reversed $82 $-1 #
face $-1 $-1 $184 $51 $-1 $185 forward single #
loop $-1 $186 $187 $84 #
cone-surface $-1 26.17352616290102 -25.537874980338046 4.7068766282397867 0 0.55919291073839883 -0.82903756765294845 0.5 0 0 1 I I -0.70710678118654746 0.70710678118654746 forward I I I I #
loop $-1 $-1 $188 $61 #
coedge $-1 $124 $124 $189 $190 reversed $85 $-1 #
face $-1 $-1 $191 $53 $-1 $192 forward single #
loop $-1 $193 $194 $87 #
cone-surface $-1 35.911245491631753 -25.537874980338046 4.7068766282397867 0 0.55919291073839883 -0.82903756765294845 0.5 0 0 1 I I -0.70710678118654746 0.70710678118654746 forward I I I I #
loop $-1 $-1 $195 $62 #
coedge $-1 $129 $129 $196 $197 reversed $88 $-1 #
face $-1 $198 $199 $37 $-1 $200 reversed single #
loop $-1 $-1 $201 $90 #
plane-surface $-1 0 0 -8.9417864411420886 0 0 1 1 0 0 forward_v I I I I #
coedge $-1 $202 $203 $134 $204 forward $91 $-1 #
coedge $-1 $205 $93 $133 $204 reversed $64 $-1 #
coedge $-1 $93 $205 $201 $206 reversed $64 $-1 #
coedge $-1 $207 $208 $93 $137 forward $209 $-1 #
edge $-1 $210 $211 $93 $212 forward #
face $-1 $213 $214 $39 $-1 $215 reversed single #
loop $-1 $-1 $216 $94 #
plane-surface $-1 -44.128667340405961 -14.051609355313644 0 -1 0 0 0 0 1 forward_v I I I I #
coedge $-1 $217 $218 $219 $220 forward $95 $-1 #
coedge $-1 $221 $97 $222 $223 reversed $67 $-1 #
coedge $-1 $97 $221 $224 $225 reversed $67 $-1 #
coedge $-1 $226 $227 $97 $145 forward $228 $-1 #
edge $-1 $229 $230 $144 $231 forward #
face $-1 $232 $233 $41 $-1 $234 reversed single #
loop $-1 $-1 $235 $98 #
plane-surface $-1 54.291497331858601 0 -4.113987213922278 0 0 1 1 0 0 forward_v I I I I #
coedge $-1 $236 $237 $151 $238 forward $99 $-1 #
coedge $-1 $239 $101 $240 $241 reversed $70 $-1 #
coedge $-1 $101 $239 $149 $238 reversed $70 $-1 #
coedge $-1 $242 $243 $101 $153 reversed $147 $-1 #
edge $-1 $244 $245 $152 $246 forward #
face $-1 $247 $248 $43 $-1 $249 reversed single #
loop $-1 $-1 $250 $102 #
plane-surface $-1 42.403058377452254 28.472971427463971 117.26919885780352 -1 0 0 0 0.50000000669873634 0.8660253999169214 forward_v I I I I #
coedge $-1 $251 $252 $253 $254 reversed $103 $-1 #
coedge $-1 $159 $105 $255 $256 reversed $73 $-1 #
coedge $-1 $105 $158 $251 $257 reversed $73 $-1 #
coedge $-1 $253 $258 $105 $161 forward $259 $-1 #
edge $-1 $260 $261 $160 $262 forward #
loop $-1 $-1 $167 $106 #
plane-surface $-1 30.832176611679323 -21.855713593869691 30.097360879899327 0 0.50000000669873634 0.8660253999169214 1 0 0 forward_v I I I I #
loop $-1 $-1 $263 $75 #
coedge $-1 $165 $165 $166 $264 reversed $107 $-1 #
coedge $-1 $166 $166 $165 $264 forward $109 $-1 #
coedge $-1 $167 $167 $110 $168 forward $162 $-1 #
edge $-1 $265 $265 $167 $266 forward #
loop $-1 $-1 $174 $111 #
plane-surface $-1 30.832176611679323 -21.855713593869691 30.097360879899327 0 0.50000000669873634 0.8660253999169214 1 0 0 forward_v I I I I #
loop $-1 $-1 $267 $78 #
coedge $-1 $172 $172 $173 $268 reversed $112 $-1 #
coedge $-1 $173 $173 $172 $268 forward $114 $-1 #
coedge $-1 $174 $174 $115 $175 forward $169 $-1 #
edge $-1 $269 $269 $174 $270 forward #
face $-1 $271 $272 $49 $-1 $273 forward single #
loop $-1 $-1 $274 $116 #
plane-surface $-1 19.681713277080533 -86.142347289852481 88.774170700372977 1 0 0 0 0.55919291073839883 -0.82903756765294845 forward_v I I I I #
coedge $-1 $275 $276 $277 $278 reversed $117 $-1 #
coedge $-1 $181 $119 $279 $280 reversed $82 $-1 #
coedge $-1 $119 $180 $275 $281 reversed $82 $-1 #
coedge $-1 $277 $282 $119 $183 forward $272 $-1 #
edge $-1 $283 $284 $182 $285 forward #
loop $-1 $-1 $189 $120 #
plane-surface $-1 31.042385827266394 -29.855460302523262 5.3254305918595151 0 -0.55919291073839883 0.82903756765294845 1 0 0 forward_v I I I I #
loop $-1 $-1 $286 $84 #
coedge $-1 $187 $187 $188 $287 reversed $121 $-1 #
coedge $-1 $188 $188 $187 $287 forward $123 $-1 #
coedge $-1 $189 $189 $124 $190 forward $184 $-1 #
edge $-1 $288 $288 $189 $289 forward #
loop $-1 $-1 $196 $125 #
plane-surface $-1 31.042385827266394 -29.855460302523262 5.3254305918595151 0 -0.55919291073839883 0.82903756765294845 1 0 0 forward_v I I I I #
loop $-1 $-1 $290 $87 #
coedge $-1 $194 $194 $195 $291 reversed $126 $-1 #
coedge $-1 $195 $195 $194 $291 forward $128 $-1 #
coedge $-1 $196 $196 $129 $197 forward $191 $-1 #
edge $-1 $292 $292 $196 $293 forward #
face $-1 $294 $295 $37 $-1 $296 reversed single #
loop $-1 $-1 $297 $130 #
plane-surface $-1 0 -29.855460302523266 0 0 1 0 0 0 1 forward_v I I I I #
coedge $-1 $298 $299 $135 $206 forward $131 $-1 #
coedge $-1 $300 $133 $208 $301 forward $91 $-1 #
coedge $-1 $133 $300 $302 $303 forward $91 $-1 #
edge $-1 $304 $210 $134 $305 forward #
coedge $-1 $135 $134 $306 $307 forward $64 $-1 #
edge $-1 $211 $308 $135 $309 forward #
coedge $-1 $310 $136 $299 $311 reversed $209 $-1 #
coedge $-1 $136 $310 $202 $301 reversed $209 $-1 #
loop $-1 $-1 $136 $294 #
vertex $-1 $204 $312 #
vertex $-1 $206 $313 #
straight-curve $-1 50.328684347056488 29.855460302523266 0 0 0 -1 I I #
face $-1 $314 $315 $39 $-1 $316 forward single #
loop $-1 $-1 $317 $138 #
plane-surface $-1 0 0 -8.9417864411420886 0 0 1 1 0 0 forward_v I I I I #
coedge $-1 $318 $319 $221 $320 forward $139 $-1 #
coedge $-1 $321 $141 $317 $322 reversed $95 $-1 #
coedge $-1 $141 $321 $323 $324 reversed $95 $-1 #
coedge $-1 $319 $318 $141 $220 reversed $139 $-1 #
edge $-1 $325 $326 $219 $327 forward #
coedge $-1 $143 $142 $216 $320 reversed $67 $-1 #
coedge $-1 $328 $329 $142 $223 forward $214 $-1 #
edge $-1 $330 $229 $222 $331 forward #
coedge $-1 $332 $333 $143 $225 forward $315 $-1 #
edge $-1 $230 $334 $224 $335 forward #
coedge $-1 $336 $144 $333 $337 reversed $228 $-1 #
coedge $-1 $144 $336 $328 $338 reversed $228 $-1 #
loop $-1 $-1 $336 $314 #
vertex $-1 $338 $339 #
vertex $-1 $145 $340 #
straight-curve $-1 -50.328684347056488 -16.1313312903882 0 0 0 1 I I #
face $-1 $341 $342 $41 $-1 $343 reversed single #
loop $-1 $-1 $344 $146 #
plane-surface $-1 54.291497331858601 0 -7.113987213922278 0 0 1 1 0 0 forward_v I I I I #
coedge $-1 $243 $242 $345 $346 forward $147 $-1 #
coedge $-1 $347 $149 $348 $349 reversed $99 $-1 #
coedge $-1 $149 $347 $242 $350 reversed $99 $-1 #
edge $-1 $244 $351 $149 $352 forward #
coedge $-1 $151 $150 $353 $354 forward $70 $-1 #
coedge $-1 $355 $356 $150 $241 forward $357 $-1 #
edge $-1 $358 $245 $240 $359 forward #
coedge $-1 $235 $152 $237 $350 forward $147 $-1 #
coedge $-1 $152 $235 $355 $360 forward $147 $-1 #
vertex $-1 $238 $361 #
vertex $-1 $360 $362 #
straight-curve $-1 50.328684347056488 0 -4.113987213922278 0 1 0 I I #
face $-1 $-1 $259 $43 $-1 $363 forward single #
loop $-1 $-1 $364 $154 #
plane-surface $-1 0 29.855460302523266 0 0 -1 0 0 0 -1 forward_v I I I I #
coedge $-1 $365 $366 $367 $368 reversed $155 $-1 #
coedge $-1 $369 $157 $159 $257 forward $103 $-1 #
coedge $-1 $157 $369 $365 $370 forward $103 $-1 #
coedge $-1 $367 $160 $157 $254 forward $259 $-1 #
edge $-1 $261 $371 $253 $372 forward #
coedge $-1 $373 $374 $158 $256 forward $248 $-1 #
edge $-1 $375 $260 $255 $376 forward #
edge $-1 $261 $375 $159 $377 forward #
coedge $-1 $160 $367 $373 $378 forward $259 $-1 #
loop $-1 $-1 $367 $247 #
vertex $-1 $256 $379 #
vertex $-1 $161 $380 #
straight-curve $-1 19.261294845906392 14.236485713731986 8.9417864411420922 0 -1 0 I I #
coedge $-1 $263 $263 $-1 $381 reversed $164 $-1 #
edge $-1 $382 $382 $165 $383 forward #
vertex $-1 $168 $384 #
ellipse-curve $-1 25.873227283490912 22.321137922665081 4.5918433092652187 0 0.50000000669873634 0.8660253999169214 2.5 0 0 1 I I #
coedge $-1 $267 $267 $-1 $385 reversed $171 $-1 #
edge $-1 $386 $386 $172 $387 forward #
vertex $-1 $175 $388 #
ellipse-curve $-1 35.791125939867705 22.321137922665081 4.5918433092652187 0 0.50000000669873634 0.8660253999169214 2.5 0 0 1 I I #
face $-1 $-1 $389 $49 $-1 $390 reversed single #
loop $-1 $-1 $182 $176 #
plane-surface $-1 0 0 8.9417864411420886 0 0 1 1 0 0 forward_v I I I I #
coedge $-1 $391 $392 $393 $394 reversed $177 $-1 #
coedge $-1 $395 $179 $181 $281 forward $117 $-1 #
coedge $-1 $179 $395 $391 $396 forward $117 $-1 #
coedge $-1 $393 $182 $179 $278 forward $272 $-1 #
edge $-1 $284 $397 $277 $398 forward #
coedge $-1 $399 $400 $180 $280 forward $389 $-1 #
edge $-1 $401 $283 $279 $402 forward #
edge $-1 $284 $401 $181 $403 forward #
coedge $-1 $182 $393 $399 $404 forward $272 $-1 #
vertex $-1 $183 $405 #
vertex $-1 $183 $406 #
straight-curve $-1 42.403058377452254 -43.07117364492624 8.9417864411420922 0 1 0 I I #
coedge $-1 $286 $286 $-1 $407 reversed $186 $-1 #
edge $-1 $408 $408 $187 $409 forward #
vertex $-1 $190 $410 #
ellipse-curve $-1 26.17352616290102 -27.174726338015528 7.133608516500801 0 -0.55919291073839883 0.82903756765294845 1 0 0 1 I I #
coedge $-1 $290 $290 $-1 $411 reversed $193 $-1 #
edge $-1 $412 $412 $194 $413 forward #
vertex $-1 $197 $414 #
ellipse-curve $-1 35.911245491631753 -27.174726338015528 7.133608516500801 0 -0.55919291073839883 0.82903756765294845 1 0 0 1 I I #
face $-1 $-1 $209 $37 $-1 $415 reversed single #
loop $-1 $-1 $416 $198 #
plane-surface $-1 -50.328684347056488 0 0 1 0 0 0 0 -1 forward_v I I I I #
coedge $-1 $417 $302 $418 $419 forward $199 $-1 #
coedge $-1 $420 $201 $417 $421 forward $131 $-1 #
coedge $-1 $201 $420 $207 $311 forward $131 $-1 #
coedge $-1 $203 $202 $422 $423 forward $91 $-1 #
edge $-1 $210 $424 $208 $425 forward #
coedge $-1 $297 $306 $203 $303 reversed $199 $-1 #
edge $-1 $426 $304 $302 $427 forward #
vertex $-1 $204 $428 #
straight-curve $-1 50.328684347056488 0 8.9417864411420886 0 1 0 I I #
coedge $-1 $302 $417 $205 $307 reversed $199 $-1 #
edge $-1 $304 $308 $205 $429 forward #
vertex $-1 $307 $430 #
straight-curve $-1 50.328684347056488 0 -8.9417864411420886 0 -1 0 I I #
coedge $-1 $208 $207 $416 $431 reversed $209 $-1 #
edge $-1 $432 $211 $207 $433 forward #
point $-1 50.328684347056488 29.855460302523266 8.9417864411420886 #
point $-1 50.328684347056488 29.855460302523266 -8.9417864411420886 #
face $-1 $-1 $228 $39 $-1 $434 reversed single #
loop $-1 $-1 $323 $213 #
plane-surface $-1 0 0 8.9417864411420886 0 0 1 1 0 0 forward_v I I I I #
coedge $-1 $329 $328 $217 $322 forward $214 $-1 #
coedge $-1 $219 $216 $329 $435 reversed $139 $-1 #
coedge $-1 $216 $219 $332 $436 reversed $139 $-1 #
edge $-1 $334 $330 $216 $437 forward #
coedge $-1 $218 $217 $336 $438 reversed $95 $-1 #
edge $-1 $439 $326 $317 $440 forward #
coedge $-1 $333 $332 $218 $324 forward $315 $-1 #
edge $-1 $325 $441 $323 $442 forward #
vertex $-1 $324 $443 #
vertex $-1 $322 $444 #
straight-curve $-1 -44.128667340405961 -11.971887420239089 0 0 0 -1 I I #
coedge $-1 $317 $222 $227 $338 forward $214 $-1 #
coedge $-1 $222 $317 $318 $435 forward $214 $-1 #
vertex $-1 $223 $445 #
straight-curve $-1 -23.614337921865612 -16.1313312903882 -8.9417864411420886 -1 0 0 I I #
coedge $-1 $323 $224 $319 $436 forward $315 $-1 #
coedge $-1 $224 $323 $226 $337 forward $315 $-1 #
vertex $-1 $225 $446 #
straight-curve $-1 -23.614337921865612 -16.1313312903882 8.9417864411420886 1 0 0 I I #
coedge $-1 $227 $226 $321 $438 forward $228 $-1 #
edge $-1 $441 $230 $226 $447 forward #
edge $-1 $229 $439 $227 $448 forward #
point $-1 -50.328684347056488 -16.1313312903882 -8.9417864411420886 #
point $-1 -50.328684347056488 -16.1313312903882 8.9417864411420886 #
face $-1 $-1 $357 $41 $-1 $449 reversed single #
loop $-1 $-1 $450 $232 #
plane-surface $-1 58.254310316660721 0 -5.613987213922278 -1 0 0 0 0 1 forward_v I I I I #
coedge $-1 $348 $451 $452 $453 forward $233 $-1 #
coedge $-1 $450 $454 $235 $346 reversed $342 $-1 #
edge $-1 $455 $456 $345 $457 forward #
coedge $-1 $237 $236 $450 $458 reversed $99 $-1 #
coedge $-1 $353 $344 $236 $349 forward $233 $-1 #
edge $-1 $459 $351 $236 $460 forward #
edge $-1 $244 $455 $237 $461 forward #
vertex $-1 $238 $462 #
straight-curve $-1 50.328684347056488 -29.855460302523266 0 0 0 -1 I I #
coedge $-1 $451 $348 $239 $354 reversed $233 $-1 #
edge $-1 $358 $351 $353 $463 forward #
coedge $-1 $464 $240 $243 $360 reversed $357 $-1 #
coedge $-1 $240 $464 $451 $465 reversed $357 $-1 #
loop $-1 $-1 $240 $341 #
vertex $-1 $241 $466 #
straight-curve $-1 50.328684347056488 29.855460302523266 0 0 0 1 I I #
edge $-1 $456 $245 $355 $467 forward #
point $-1 50.32868434705648 -29.855460302523266 -4.113987213922278 #
point $-1 50.32868434705648 29.855460302523266 -4.113987213922278 #
plane-surface $-1 0 0 8.9417864411420886 0 0 1 1 0 0 forward_v I I I I #
coedge $-1 $374 $373 $366 $468 forward $248 $-1 #
coedge $-1 $366 $250 $252 $370 reversed $155 $-1 #
coedge $-1 $250 $365 $364 $468 reversed $155 $-1 #
coedge $-1 $258 $253 $250 $368 forward $259 $-1 #
edge $-1 $371 $469 $367 $470 forward #
coedge $-1 $252 $251 $374 $471 reversed $103 $-1 #
edge $-1 $472 $371 $365 $473 forward #
vertex $-1 $254 $474 #
straight-curve $-1 15.416088305839661 14.786815542806893 8.9417864411420886 1 0 0 I I #
coedge $-1 $364 $255 $258 $378 reversed $248 $-1 #
coedge $-1 $255 $364 $369 $471 forward $248 $-1 #
vertex $-1 $256 $475 #
straight-curve $-1 19.261294845906392 29.855460302523266 58.634599428901758 0 0 1 I I #
straight-curve $-1 19.261294845906392 -21.855713593869691 30.097360879899327 0 0.8660253999169214 -0.50000000669873634 I I #
edge $-1 $469 $260 $373 $476 forward #
point $-1 19.261294845906392 29.855460302523266 8.9417864411420886 #
point $-1 19.261294845906392 14.786815542806902 8.9417864411420886 #
edge $-1 $477 $477 $263 $-1 forward #
vertex $-1 $264 $478 #
ellipse-curve $-1 25.873227283490912 19.276992857924196 -0.68077051428977553 0 0.50000000669873634 0.8660253999169214 2.5 0 0 1 I I #
point $-1 28.373227283490912 22.321137922665077 4.5918433092652116 #
edge $-1 $479 $479 $267 $-1 forward #
vertex $-1 $268 $480 #
ellipse-curve $-1 35.791125939867705 19.276992857924196 -0.68077051428977553 0 0.50000000669873634 0.8660253999169214 2.5 0 0 1 I I #
point $-1 38.291125939867705 22.321137922665077 4.5918433092652116 #
loop $-1 $-1 $279 $271 #
plane-surface $-1 0 -29.855460302523266 0 0 1 0 0 0 1 forward_v I I I I #
coedge $-1 $392 $274 $276 $396 reversed $177 $-1 #
coedge $-1 $274 $391 $481 $482 reversed $177 $-1 #
coedge $-1 $282 $277 $274 $394 forward $272 $-1 #
edge $-1 $397 $483 $393 $484 forward #
coedge $-1 $276 $275 $400 $485 reversed $117 $-1 #
edge $-1 $486 $397 $391 $487 forward #
vertex $-1 $278 $488 #
straight-curve $-1 15.521192913633197 -24.493992373507787 8.9417864411420886 -1 0 0 I I #
coedge $-1 $481 $279 $282 $404 reversed $389 $-1 #
coedge $-1 $279 $481 $395 $485 forward $389 $-1 #
vertex $-1 $280 $489 #
straight-curve $-1 42.403058377452254 -29.855460302523266 44.387085350186489 0 0 1 I I #
straight-curve $-1 42.403058377452254 -29.855460302523262 5.3254305918595151 0 -0.82903756765294845 -0.55919291073839883 I I #
edge $-1 $483 $283 $399 $490 forward #
point $-1 42.403058377452254 -29.855460302523266 8.9417864411420886 #
point $-1 42.403058377452254 -24.49399237350779 8.9417864411420886 #
edge $-1 $491 $491 $286 $-1 forward #
vertex $-1 $287 $492 #
ellipse-curve $-1 26.17352616290102 -25.817471435707244 5.1213954120662608 0 -0.55919291073839883 0.82903756765294845 1 0 0 1 I I #
point $-1 27.17352616290102 -27.174726338015532 7.1336085165008027 #
edge $-1 $493 $493 $290 $-1 forward #
vertex $-1 $291 $494 #
ellipse-curve $-1 35.911245491631753 -25.817471435707244 5.1213954120662608 0 -0.55919291073839883 0.82903756765294845 1 0 0 1 I I #
point $-1 36.911245491631753 -27.174726338015532 7.1336085165008027 #
plane-surface $-1 0 29.855460302523266 0 0 -1 0 0 0 -1 forward_v I I I I #
coedge $-1 $495 $422 $310 $431 forward $295 $-1 #
coedge $-1 $306 $297 $298 $421 reversed $199 $-1 #
coedge $-1 $422 $495 $297 $419 reversed $295 $-1 #
edge $-1 $426 $496 $418 $497 forward #
coedge $-1 $299 $298 $495 $498 forward $131 $-1 #
edge $-1 $308 $496 $417 $499 forward #
coedge $-1 $416 $418 $300 $423 reversed $295 $-1 #
edge $-1 $424 $426 $422 $500 forward #
vertex $-1 $301 $501 #
straight-curve $-1 0 29.855460302523266 8.9417864411420886 -1 0 0 I I #
vertex $-1 $423 $502 #
straight-curve $-1 0 -29.855460302523266 8.9417864411420886 1 0 0 I I #
point $-1 50.328684347056488 -29.855460302523266 8.9417864411420886 #
straight-curve $-1 50.328684347056488 -29.855460302523266 0 0 0 -1 I I #
point $-1 50.328684347056488 -29.855460302523266 -8.9417864411420886 #
edge $-1 $424 $432 $310 $503 forward #
vertex $-1 $311 $504 #
straight-curve $-1 0 29.855460302523266 -8.9417864411420886 1 0 0 I I #
plane-surface $-1 -50.328684347056488 0 0 1 0 0 0 0 -1 forward_v I I I I #
edge $-1 $326 $330 $329 $505 forward #
edge $-1 $334 $325 $332 $506 forward #
straight-curve $-1 -44.128667340405961 -16.1313312903882 0 0 0 -1 I I #
edge $-1 $441 $439 $336 $507 forward #
vertex $-1 $438 $508 #
straight-curve $-1 -23.614337921865612 -11.971887420239089 -8.9417864411420886 1 0 0 I I #
vertex $-1 $337 $509 #
straight-curve $-1 -23.614337921865612 -11.971887420239089 8.9417864411420886 -1 0 0 I I #
point $-1 -44.128667340405961 -11.971887420239089 8.9417864411420886 #
point $-1 -44.128667340405961 -11.971887420239089 -8.9417864411420886 #
point $-1 -44.128667340405961 -16.1313312903882 -8.9417864411420886 #
point $-1 -44.128667340405961 -16.1313312903882 8.9417864411420886 #
straight-curve $-1 -50.328684347056488 0 8.9417864411420886 0 -1 0 I I #
straight-curve $-1 -50.328684347056488 0 -8.9417864411420886 0 1 0 I I #
plane-surface $-1 0 29.855460302523266 0 0 -1 0 0 0 -1 forward_v I I I I #
coedge $-1 $452 $345 $347 $458 forward $342 $-1 #
coedge $-1 $344 $353 $356 $465 forward $233 $-1 #
coedge $-1 $454 $450 $344 $453 reversed $342 $-1 #
edge $-1 $510 $459 $452 $511 forward #
coedge $-1 $345 $452 $464 $512 reversed $342 $-1 #
vertex $-1 $346 $513 #
vertex $-1 $346 $514 #
straight-curve $-1 58.254310316660721 0 -4.113987213922278 0 1 0 I I #
edge $-1 $455 $459 $450 $515 forward #
vertex $-1 $458 $516 #
straight-curve $-1 54.291497331858601 -29.855460302523266 -7.113987213922278 -1 0 0 I I #
straight-curve $-1 54.291497331858601 -29.855460302523266 -4.113987213922278 1 0 0 I I #
point $-1 50.32868434705648 -29.855460302523266 -7.113987213922278 #
straight-curve $-1 50.328684347056488 0 -7.113987213922278 0 -1 0 I I #
coedge $-1 $356 $355 $454 $512 forward $357 $-1 #
edge $-1 $358 $510 $356 $517 forward #
point $-1 50.32868434705648 29.855460302523266 -7.113987213922278 #
straight-curve $-1 54.291497331858601 29.855460302523266 -4.113987213922278 -1 0 0 I I #
edge $-1 $469 $472 $364 $518 forward #
vertex $-1 $378 $519 #
straight-curve $-1 42.403058377452254 14.236485713731986 8.9417864411420922 0 1 0 I I #
edge $-1 $472 $375 $374 $520 forward #
vertex $-1 $471 $521 #
straight-curve $-1 42.403058377452254 -21.855713593869691 30.097360879899327 0 -0.8660253999169214 0.50000000669873634 I I #
point $-1 42.403058377452254 14.786815542806902 8.9417864411420886 #
point $-1 19.261294845906392 29.855460302523266 0.24190017738835223 #
straight-curve $-1 0 29.855460302523266 8.9417864411420886 -1 0 0 I I #
vertex $-1 $381 $522 #
point $-1 28.373227283490912 19.276992857924196 -0.68077051428977553 #
vertex $-1 $385 $523 #
point $-1 38.291125939867705 19.276992857924196 -0.68077051428977553 #
coedge $-1 $400 $399 $392 $482 forward $389 $-1 #
edge $-1 $483 $486 $481 $524 forward #
vertex $-1 $404 $525 #
straight-curve $-1 19.681713277080533 -43.07117364492624 8.9417864411420922 0 -1 0 I I #
edge $-1 $486 $401 $400 $526 forward #
vertex $-1 $485 $527 #
straight-curve $-1 19.681713277080533 -29.855460302523262 5.3254305918595151 0 0.82903756765294845 0.55919291073839883 I I #
point $-1 19.681713277080533 -24.49399237350779 8.9417864411420886 #
point $-1 42.403058377452254 -29.855460302523266 5.3254305918595124 #
straight-curve $-1 0 -29.855460302523266 8.9417864411420886 1 0 0 I I #
vertex $-1 $407 $528 #
point $-1 27.17352616290102 -25.817471435707244 5.1213954120662608 #
vertex $-1 $411 $529 #
point $-1 36.911245491631753 -25.817471435707244 5.1213954120662608 #
coedge $-1 $418 $416 $420 $498 reversed $295 $-1 #
vertex $-1 $498 $530 #
straight-curve $-1 -50.328684347056488 -29.855460302523266 0 0 0 -1 I I #
edge $-1 $496 $432 $495 $531 forward #
straight-curve $-1 0 -29.855460302523266 -8.9417864411420886 -1 0 0 I I #
straight-curve $-1 -50.328684347056488 0 8.9417864411420886 0 -1 0 I I #
point $-1 -50.328684347056488 29.855460302523266 8.9417864411420886 #
point $-1 -50.328684347056488 -29.855460302523266 8.9417864411420886 #
straight-curve $-1 -50.328684347056488 29.855460302523266 0 0 0 -1 I I #
point $-1 -50.328684347056488 29.855460302523266 -8.9417864411420886 #
straight-curve $-1 -44.128667340405961 -7.0258046776568222 -8.9417864411420886 0 -1 0 I I #
straight-curve $-1 -44.128667340405961 -7.0258046776568222 8.9417864411420886 0 1 0 I I #
straight-curve $-1 -50.328684347056488 -11.971887420239089 0 0 0 -1 I I #
point $-1 -50.328684347056488 -11.971887420239089 -8.9417864411420886 #
point $-1 -50.328684347056488 -11.971887420239089 8.9417864411420886 #
vertex $-1 $453 $532 #
straight-curve $-1 58.254310316660721 0 -7.113987213922278 0 -1 0 I I #
edge $-1 $456 $510 $454 $533 forward #
point $-1 58.254310316660721 -29.855460302523266 -4.113987213922278 #
point $-1 58.254310316660721 29.855460302523266 -4.113987213922278 #
straight-curve $-1 58.254310316660721 -29.855460302523266 -5.613987213922278 0 0 -1 I I #
point $-1 58.254310316660721 -29.855460302523266 -7.113987213922278 #
straight-curve $-1 54.291497331858601 29.855460302523266 -7.113987213922278 1 0 0 I I #
straight-curve $-1 42.403058377452254 29.855460302523266 58.634599428901758 0 0 -1 I I #
point $-1 42.403058377452254 29.855460302523266 8.9417864411420886 #
straight-curve $-1 15.416088305839661 29.855460302523262 0.24190017738835046 -1 0 0 I I #
point $-1 42.403058377452254 29.855460302523266 0.24190017738835223 #
point $-1 25.873227283490912 18.026992841177357 -2.8458340140820799 #
point $-1 35.791125939867705 18.026992841177357 -2.8458340140820799 #
straight-curve $-1 19.681713277080533 -29.855460302523266 44.387085350186489 0 0 -1 I I #
point $-1 19.681713277080533 -29.855460302523266 8.9417864411420886 #
straight-curve $-1 15.521192913633197 -29.855460302523266 5.3254305918595124 1 0 0 I I #
point $-1 19.681713277080533 -29.855460302523266 5.3254305918595124 #
point $-1 26.17352616290102 -25.258278524968848 4.2923578444133126 #
point $-1 35.911245491631753 -25.258278524968848 4.2923578444133126 #
point $-1 -50.328684347056488 -29.855460302523266 -8.9417864411420886 #
straight-curve $-1 -50.328684347056488 0 -8.9417864411420886 0 1 0 I I #
point $-1 58.254310316660721 29.855460302523266 -7.113987213922278 #
straight-curve $-1 58.254310316660721 29.855460302523266 -5.613987213922278 0 0 -1 I I #
End-of-ACIS-data 