600 0 5 0           
93 GICL ACIS Healer - Source: /gicl/data5/repository/Drexel/SM99-DATA/part121.smdg.des.sat - 6 0 18 ACIS 6.0.3 Solaris 24 Sat Apr 13 20:45:02 2002 
1 9.999999999999999547e-07 1.000000000000000036e-10 
body $-1 $5 $-1 $-1 #
body $-1 $6 $-1 $-1 #
body $-1 $7 $-1 $-1 #
body $-1 $8 $-1 $-1 #
body $-1 $9 $-1 $-1 #
lump $-1 $-1 $10 $0 #
lump $-1 $-1 $11 $1 #
lump $-1 $-1 $12 $2 #
lump $-1 $-1 $13 $3 #
lump $-1 $-1 $14 $4 #
shell $-1 $-1 $-1 $15 $-1 $5 #
shell $-1 $-1 $-1 $16 $-1 $6 #
shell $-1 $-1 $-1 $17 $-1 $7 #
shell $-1 $-1 $-1 $18 $-1 $8 #
shell $-1 $-1 $-1 $19 $-1 $9 #
face $-1 $20 $21 $10 $-1 $22 forward single #
face $-1 $23 $24 $11 $-1 $25 reversed single #
face $-1 $26 $27 $12 $-1 $28 forward single #
face $-1 $29 $30 $13 $-1 $31 reversed single #
face $-1 $32 $33 $14 $-1 $34 reversed single #
face $-1 $35 $36 $10 $-1 $37 reversed single #
loop $-1 $-1 $38 $15 #
plane-surface $-1 78.64131595812860098 38.25913101448773546 32.55091116819031072 0 0 1 1 0 0 forward_v I I I I #
face $-1 $39 $40 $11 $-1 $41 forward single #
loop $-1 $-1 $42 $16 #
plane-surface $-1 10.0355044247247065 38.25913101448773546 5.580427627557845938 0 0 1 1 0 0 forward_v I I I I #
face $-1 $43 $44 $12 $-1 $45 forward single #
loop $-1 $-1 $46 $17 #
plane-surface $-1 104.5057039628281075 -125.6114962555035106 111.9251408080195205 1 0 0 0 0.7986355182712320255 -0.6018150122385121925 forward_v I I I I #
face $-1 $47 $48 $13 $-1 $49 reversed single #
loop $-1 $50 $51 $18 #
cone-surface $-1 114.1834816731996227 7.575882469521189932 23.54022302590902171 0 0.7986355182712320255 -0.6018150122385121925 2.5 0 0 1 I I 0 1 2.5 forward I I I I #
face $-1 $52 $53 $14 $-1 $54 reversed single #
loop $-1 $55 $56 $19 #
cone-surface $-1 128.7001482387568956 7.575882469521189932 23.54022302590902171 0 0.7986355182712320255 -0.6018150122385121925 2.5 0 0 1 I I 0 1 2.5 forward I I I I #
face $-1 $57 $58 $10 $-1 $59 reversed single #
loop $-1 $-1 $60 $20 #
plane-surface $-1 78.64131595812860098 38.25913101448773546 0 0 0 1 1 0 0 forward_v I I I I #
coedge $-1 $61 $62 $63 $64 forward $21 $-1 #
face $-1 $65 $66 $11 $-1 $67 forward single #
loop $-1 $-1 $68 $23 #
plane-surface $-1 10.0355044247247065 38.25913101448773546 1.770022953104046337 0 0 1 1 0 0 forward_v I I I I #
coedge $-1 $69 $70 $71 $72 reversed $24 $-1 #
face $-1 $73 $74 $12 $-1 $75 forward single #
loop $-1 $-1 $76 $26 #
plane-surface $-1 121.4418149559782449 -1.421085471520200372e-14 17.27009175643178196 0 -0.7986355182712320255 0.6018150122385121925 1 0 0 forward_v I I I I #
coedge $-1 $77 $78 $79 $80 reversed $27 $-1 #
face $-1 $81 $82 $13 $-1 $83 forward single #
loop $-1 $84 $85 $29 #
cone-surface $-1 114.1834816731996227 10.39259782226671902 21.4176758242088674 0 0.7986355182712320255 -0.6018150122385121925 1.25 0 0 1 I I -0.7071067811865474617 0.7071067811865474617 1.25 forward I I I I #
loop $-1 $-1 $86 $18 #
coedge $-1 $51 $51 $87 $88 reversed $30 $-1 #
face $-1 $89 $90 $14 $-1 $91 reversed single #
loop $-1 $92 $93 $32 #
cone-surface $-1 128.7001482387568956 10.39259782226671902 21.4176758242088674 0 0.7986355182712320255 -0.6018150122385121925 1.25 0 0 1 I I -0.7071067811865474617 0.7071067811865474617 1.25 forward I I I I #
loop $-1 $-1 $94 $19 #
coedge $-1 $56 $56 $95 $96 reversed $33 $-1 #
face $-1 $97 $98 $10 $-1 $99 reversed single #
loop $-1 $-1 $100 $35 #
plane-surface $-1 78.64131595812860098 0 16.27545558409515536 0 1 0 0 0 1 forward_v I I I I #
coedge $-1 $101 $102 $103 $104 forward $36 $-1 #
coedge $-1 $105 $38 $106 $107 forward $21 $-1 #
coedge $-1 $38 $105 $108 $109 forward $21 $-1 #
coedge $-1 $110 $111 $38 $64 reversed $112 $-1 #
edge $-1 $113 -38.25913101448773546 $114 38.25913101448773546 $63 $115 forward 7 unknown #
face $-1 $116 $117 $11 $-1 $118 reversed single #
loop $-1 $-1 $119 $39 #
plane-surface $-1 20.07100884944941299 38.25913101448773546 3.675225290330946137 -1 0 0 0 0 1 forward_v I I I I #
coedge $-1 $120 $121 $122 $123 reversed $40 $-1 #
coedge $-1 $124 $42 $125 $126 reversed $24 $-1 #
coedge $-1 $42 $124 $127 $128 reversed $24 $-1 #
coedge $-1 $129 $119 $42 $72 forward $66 $-1 #
edge $-1 $130 -38.25913101448773546 $131 38.25913101448773546 $71 $132 forward 7 unknown #
face $-1 $133 $134 $12 $-1 $135 reversed single #
loop $-1 $-1 $136 $43 #
plane-surface $-1 138.3779259491283824 -125.6114962555035106 111.9251408080195205 -1 0 0 0 -0.7986355182712320255 0.6018150122385121925 forward_v I I I I #
coedge $-1 $137 $138 $139 $140 reversed $44 $-1 #
coedge $-1 $78 $46 $138 $141 forward $27 $-1 #
coedge $-1 $46 $77 $142 $143 reversed $27 $-1 #
coedge $-1 $144 $139 $46 $80 forward $134 $-1 #
edge $-1 $145 -46.83020643962554175 $146 -31.5493870278670272 $79 $147 forward 7 unknown #
face $-1 $148 $149 $13 $-1 $150 forward single #
loop $-1 $-1 $151 $47 #
plane-surface $-1 104.5057039628281075 -125.6114962555035106 111.9251408080195205 1 0 0 0 0.7986355182712320255 -0.6018150122385121925 forward_v I I I I #
loop $-1 $-1 $152 $29 #
coedge $-1 $85 $85 $86 $153 forward $48 $-1 #
coedge $-1 $86 $86 $85 $153 reversed $50 $-1 #
coedge $-1 $87 $87 $51 $88 forward $149 $-1 #
edge $-1 $154 2.253724378536661706e-15 $154 6.283185307179588897 $87 $155 forward 7 unknown #
face $-1 $156 $157 $14 $-1 $158 reversed single #
loop $-1 $159 $160 $52 #
cone-surface $-1 114.1834816731996227 7.575882469521189932 23.54022302590902171 0 0.7986355182712320255 -0.6018150122385121925 2.5 0 0 1 I I 0 1 2.5 forward I I I I #
loop $-1 $-1 $161 $32 #
coedge $-1 $93 $93 $94 $162 forward $53 $-1 #
coedge $-1 $94 $94 $93 $162 reversed $55 $-1 #
coedge $-1 $95 $95 $56 $96 forward $163 $-1 #
edge $-1 $164 2.253724378536661706e-15 $164 6.283185307179588897 $95 $165 forward 7 unknown #
face $-1 $166 $167 $10 $-1 $168 reversed single #
loop $-1 $-1 $169 $57 #
plane-surface $-1 0 38.25913101448773546 16.27545558409515536 1 0 0 0 0 -1 forward_v I I I I #
coedge $-1 $170 $108 $171 $172 forward $58 $-1 #
coedge $-1 $173 $60 $170 $174 forward $36 $-1 #
coedge $-1 $60 $173 $175 $176 forward $36 $-1 #
coedge $-1 $111 $110 $60 $104 reversed $112 $-1 #
edge $-1 $177 -38.25913101448773546 $178 38.25913101448773546 $103 $179 forward 7 unknown #
coedge $-1 $62 $61 $180 $181 forward $21 $-1 #
coedge $-1 $182 $183 $61 $107 reversed $167 $-1 #
edge $-1 $114 -78.64131595812860098 $184 78.64131595812860098 $106 $185 forward 7 unknown #
coedge $-1 $100 $186 $62 $109 reversed $58 $-1 #
edge $-1 $187 -78.64131595812860098 $113 78.64131595812860098 $108 $188 forward 7 unknown #
coedge $-1 $103 $63 $186 $189 forward $112 $-1 #
coedge $-1 $63 $103 $182 $190 reversed $112 $-1 #
loop $-1 $-1 $110 $166 #
vertex $-1 $64 $191 #
vertex $-1 $64 $192 #
straight-curve $-1 157.282631916257202 38.25913101448773546 32.55091116819031072 0 1 0 I I #
face $-1 $193 $194 $11 $-1 $118 reversed single #
loop $-1 $-1 $195 $65 #
plane-surface $-1 0 38.25913101448773546 16.27545558409515536 1 0 0 0 0 -1 forward_v I I I I #
coedge $-1 $71 $122 $196 $197 reversed $66 $-1 #
coedge $-1 $198 $68 $199 $200 reversed $40 $-1 #
coedge $-1 $68 $198 $201 $202 reversed $40 $-1 #
coedge $-1 $119 $129 $68 $123 forward $66 $-1 #
edge $-1 $203 -38.25913101448773546 $204 38.25913101448773546 $122 $205 forward 7 unknown #
coedge $-1 $70 $69 $206 $207 reversed $24 $-1 #
coedge $-1 $196 $208 $69 $126 forward $209 $-1 #
edge $-1 $210 -44.33841019142665374 $130 -24.26740134197724075 $125 $211 forward 7 unknown #
coedge $-1 $212 $213 $70 $128 forward $214 $-1 #
edge $-1 $131 24.26740134197724075 $215 44.33841019142665374 $127 $216 forward 7 unknown #
coedge $-1 $122 $71 $213 $217 reversed $66 $-1 #
vertex $-1 $126 $218 #
vertex $-1 $128 $219 #
straight-curve $-1 20.07100884944941299 38.25913101448773546 5.580427627557845938 0 1 0 I I #
face $-1 $220 $221 $12 $-1 $222 reversed single #
loop $-1 $-1 $223 $73 #
plane-surface $-1 78.64131595812860098 0 16.27545558409515536 0 1 0 0 0 1 forward_v I I I I #
coedge $-1 $224 $225 $223 $226 reversed $74 $-1 #
coedge $-1 $227 $76 $225 $228 reversed $44 $-1 #
coedge $-1 $76 $227 $77 $141 reversed $44 $-1 #
coedge $-1 $79 $223 $76 $140 forward $134 $-1 #
edge $-1 $229 -38.33636049207495944 $145 -4.464138505774684518 $139 $230 forward 7 unknown #
edge $-1 $145 2.273892235503967841e-14 $231 19.13365867428008471 $77 $232 forward 7 unknown #
coedge $-1 $233 $234 $78 $143 forward $235 $-1 #
edge $-1 $146 43.67618262050788758 $231 55.19110564973725985 $142 $236 forward 7 unknown #
coedge $-1 $237 $79 $234 $238 reversed $134 $-1 #
vertex $-1 $140 $239 #
vertex $-1 $143 $240 #
straight-curve $-1 104.5057039628281075 0 64.10029819605733792 0 0 1 I I #
face $-1 $241 $242 $13 $-1 $243 forward single #
loop $-1 $244 $87 $81 #
plane-surface $-1 121.4418149559782449 -1.421085471520200372e-14 17.27009175643178196 0 -0.7986355182712320255 0.6018150122385121925 1 0 0 forward_v I I I I #
coedge $-1 $245 $246 $247 $248 reversed $82 $-1 #
coedge $-1 $152 $152 $-1 $249 forward $84 $-1 #
edge $-1 $250 0 $250 6.283185307179586232 $85 $251 forward 7 unknown #
vertex $-1 $88 $252 #
ellipse-curve $-1 114.1834816731996227 5.757461514614682585 24.91050146231105344 0 0.7986355182712320255 -0.6018150122385121925 2.5 0 0 1 I I #
face $-1 $253 $254 $14 $-1 $255 forward single #
loop $-1 $256 $257 $89 #
cone-surface $-1 114.1834816731996227 10.39259782226671902 21.4176758242088674 0 0.7986355182712320255 -0.6018150122385121925 1.25 0 0 1 I I -0.7071067811865474617 0.7071067811865474617 1.25 forward I I I I #
loop $-1 $-1 $258 $52 #
coedge $-1 $160 $160 $259 $260 reversed $90 $-1 #
coedge $-1 $161 $161 $-1 $261 forward $92 $-1 #
edge $-1 $262 0 $262 6.283185307179586232 $93 $263 forward 7 unknown #
loop $-1 $264 $95 $253 #
vertex $-1 $96 $265 #
ellipse-curve $-1 128.7001482387568956 5.757461514614682585 24.91050146231105344 0 0.7986355182712320255 -0.6018150122385121925 2.5 0 0 1 I I #
face $-1 $-1 $112 $10 $-1 $266 reversed single #
loop $-1 $-1 $182 $97 #
plane-surface $-1 78.64131595812860098 76.51826202897547091 16.27545558409515536 0 -1 0 0 0 -1 forward_v I I I I #
coedge $-1 $267 $180 $183 $268 forward $98 $-1 #
coedge $-1 $186 $100 $101 $174 reversed $58 $-1 #
coedge $-1 $180 $267 $100 $172 reversed $98 $-1 #
edge $-1 $187 -16.27545558409515536 $269 16.27545558409515536 $171 $270 forward 7 unknown #
coedge $-1 $102 $101 $267 $271 forward $36 $-1 #
edge $-1 $178 -78.64131595812860098 $269 78.64131595812860098 $170 $272 forward 7 unknown #
coedge $-1 $183 $182 $102 $176 reversed $167 $-1 #
edge $-1 $273 -78.64131595812860098 $177 78.64131595812860098 $175 $274 forward 7 unknown #
vertex $-1 $104 $275 #
vertex $-1 $189 $276 #
straight-curve $-1 157.282631916257202 38.25913101448773546 0 0 -1 0 I I #
coedge $-1 $169 $171 $105 $181 reversed $98 $-1 #
edge $-1 $184 -38.25913101448773546 $187 38.25913101448773546 $180 $277 forward 7 unknown #
coedge $-1 $175 $106 $111 $190 forward $167 $-1 #
coedge $-1 $106 $175 $169 $268 reversed $167 $-1 #
vertex $-1 $107 $278 #
straight-curve $-1 78.64131595812860098 76.51826202897547091 32.55091116819031072 -1 0 0 I I #
coedge $-1 $108 $170 $110 $189 reversed $58 $-1 #
vertex $-1 $181 $279 #
straight-curve $-1 78.64131595812860098 0 32.55091116819031072 1 0 0 I I #
edge $-1 $113 -16.27545558409515536 $178 16.27545558409515536 $110 $280 forward 7 unknown #
edge $-1 $114 -16.27545558409515536 $177 16.27545558409515536 $111 $281 forward 7 unknown #
point $-1 157.282631916257202 0 32.55091116819031072 #
point $-1 157.282631916257202 76.51826202897547091 32.55091116819031072 #
face $-1 $282 $209 $11 $-1 $283 reversed single #
loop $-1 $-1 $206 $116 #
coedge $-1 $284 $285 $198 $286 forward $117 $-1 #
coedge $-1 $201 $125 $119 $197 forward $209 $-1 #
edge $-1 $130 4.394912809655204811 $204 8.205317484109004411 $196 $287 forward 7 unknown #
coedge $-1 $121 $120 $195 $286 reversed $40 $-1 #
coedge $-1 $213 $288 $120 $200 forward $214 $-1 #
edge $-1 $289 -44.33841019142665374 $203 -24.26740134197724075 $199 $290 forward 7 unknown #
coedge $-1 $291 $196 $121 $202 forward $209 $-1 #
edge $-1 $204 24.26740134197724075 $292 44.33841019142665374 $201 $293 forward 7 unknown #
vertex $-1 $200 $294 #
vertex $-1 $202 $295 #
straight-curve $-1 20.07100884944941299 38.25913101448773546 1.770022953104046337 0 -1 0 I I #
coedge $-1 $296 $297 $124 $207 forward $194 $-1 #
edge $-1 $215 -38.25913101448773546 $210 38.25913101448773546 $206 $298 forward 7 unknown #
coedge $-1 $125 $299 $296 $300 forward $209 $-1 #
loop $-1 $-1 $125 $193 #
vertex $-1 $126 $301 #
straight-curve $-1 44.33841019142665374 0 5.580427627557845938 1 0 0 I I #
coedge $-1 $302 $127 $297 $303 reversed $214 $-1 #
coedge $-1 $127 $199 $129 $217 forward $214 $-1 #
loop $-1 $-1 $127 $304 #
vertex $-1 $207 $305 #
straight-curve $-1 44.33841019142665374 76.51826202897547091 5.580427627557845938 -1 0 0 I I #
edge $-1 $203 -8.205317484109004411 $131 -4.394912809655204811 $213 $306 forward 7 unknown #
point $-1 20.07100884944941299 0 5.580427627557845938 #
point $-1 20.07100884944941299 76.51826202897547091 5.580427627557845938 #
face $-1 $307 $308 $12 $-1 $309 forward single #
loop $-1 $-1 $310 $133 #
plane-surface $-1 10.0355044247247065 38.25913101448773546 5.580427627557845938 0 0 1 1 0 0 forward_v I I I I #
coedge $-1 $139 $311 $136 $226 forward $134 $-1 #
coedge $-1 $225 $136 $312 $313 reversed $74 $-1 #
coedge $-1 $136 $224 $137 $228 forward $74 $-1 #
edge $-1 $314 31.5493870278670272 $229 46.83020643962554175 $223 $315 forward 7 unknown #
coedge $-1 $138 $137 $233 $316 reversed $44 $-1 #
edge $-1 $317 -19.13365867428008471 $229 -2.273892235503967841e-14 $225 $318 forward 7 unknown #
vertex $-1 $140 $319 #
straight-curve $-1 100.041565457053423 0 17.27009175643179617 -1 0 0 I I #
vertex $-1 $316 $320 #
straight-curve $-1 104.5057039628281075 -1.421085471520200372e-14 17.27009175643178196 0 0.6018150122385121925 0.7986355182712320255 I I #
coedge $-1 $312 $142 $227 $316 forward $235 $-1 #
coedge $-1 $142 $321 $144 $238 forward $235 $-1 #
loop $-1 $-1 $312 $322 #
straight-curve $-1 104.5057039628281075 -43.67618262050788758 32.55091116819031072 0 1 0 I I #
coedge $-1 $323 $144 $324 $325 forward $134 $-1 #
edge $-1 $326 -78.64131595812860098 $146 25.8643880046995065 $144 $327 forward 7 unknown #
point $-1 104.5057039628281075 0 17.27009175643179972 #
point $-1 104.5057039628281075 0 32.55091116819031072 #
face $-1 $328 $329 $13 $-1 $330 reversed single #
loop $-1 $-1 $331 $148 #
plane-surface $-1 138.3779259491283824 -125.6114962555035106 111.9251408080195205 -1 0 0 0 -0.7986355182712320255 0.6018150122385121925 forward_v I I I I #
loop $-1 $-1 $332 $81 #
coedge $-1 $246 $151 $333 $334 forward $82 $-1 #
coedge $-1 $151 $245 $335 $336 reversed $82 $-1 #
coedge $-1 $337 $338 $151 $248 forward $329 $-1 #
edge $-1 $339 -46.83020643962554175 $340 -31.5493870278670272 $247 $341 forward 7 unknown #
edge $-1 $342 1 $342 0 $152 $-1 forward 7 unknown #
vertex $-1 $153 $343 #
ellipse-curve $-1 114.1834816731996227 9.394303424427679516 22.16994458950700775 0 -0.7986355182712320255 0.6018150122385121925 2.5 0 0 1 I I #
point $-1 116.6834816731996227 5.757461514614696796 24.91050146231103568 #
face $-1 $344 $163 $14 $-1 $345 forward single #
loop $-1 $-1 $346 $156 #
plane-surface $-1 104.5057039628281075 -125.6114962555035106 111.9251408080195205 1 0 0 0 0.7986355182712320255 -0.6018150122385121925 forward_v I I I I #
loop $-1 $-1 $347 $89 #
coedge $-1 $257 $257 $258 $348 forward $157 $-1 #
coedge $-1 $258 $258 $257 $348 reversed $159 $-1 #
coedge $-1 $259 $259 $160 $260 forward $264 $-1 #
edge $-1 $349 2.253724378536661706e-15 $349 6.283185307179588897 $259 $350 forward 7 unknown #
edge $-1 $351 1 $351 0 $161 $-1 forward 7 unknown #
vertex $-1 $162 $352 #
ellipse-curve $-1 128.7001482387568956 9.394303424427679516 22.16994458950700775 0 -0.7986355182712320255 0.6018150122385121925 2.5 0 0 1 I I #
loop $-1 $353 $259 $253 #
point $-1 131.2001482387568956 5.757461514614696796 24.91050146231103568 #
plane-surface $-1 157.282631916257202 38.25913101448773546 16.27545558409515536 -1 0 0 0 0 1 forward_v I I I I #
coedge $-1 $171 $169 $173 $271 reversed $98 $-1 #
edge $-1 $184 -16.27545558409515536 $273 16.27545558409515536 $183 $354 forward 7 unknown #
vertex $-1 $271 $355 #
straight-curve $-1 0 0 16.27545558409515536 0 0 -1 I I #
edge $-1 $269 -38.25913101448773546 $273 38.25913101448773546 $267 $356 forward 7 unknown #
straight-curve $-1 78.64131595812860098 0 0 -1 0 0 I I #
vertex $-1 $176 $357 #
straight-curve $-1 78.64131595812860098 76.51826202897547091 0 1 0 0 I I #
point $-1 157.282631916257202 76.51826202897547091 0 #
point $-1 157.282631916257202 0 0 #
straight-curve $-1 0 38.25913101448773546 32.55091116819031072 0 -1 0 I I #
point $-1 0 76.51826202897547091 32.55091116819031072 #
point $-1 0 0 32.55091116819031072 #
straight-curve $-1 157.282631916257202 0 16.27545558409515536 0 0 -1 I I #
straight-curve $-1 157.282631916257202 76.51826202897547091 16.27545558409515536 0 0 -1 I I #
face $-1 $358 $359 $11 $-1 $360 forward single #
plane-surface $-1 78.64131595812860098 0 16.27545558409515536 0 1 0 0 0 1 forward_v I I I I #
coedge $-1 $361 $195 $288 $362 forward $117 $-1 #
coedge $-1 $195 $361 $291 $363 reversed $117 $-1 #
edge $-1 $292 -38.25913101448773546 $289 38.25913101448773546 $195 $364 forward 7 unknown #
straight-curve $-1 20.07100884944941299 0 9.975340437213050748 0 0 -1 I I #
coedge $-1 $199 $365 $284 $362 reversed $214 $-1 #
vertex $-1 $362 $366 #
straight-curve $-1 44.33841019142665374 76.51826202897547091 1.770022953104046337 1 0 0 I I #
coedge $-1 $367 $201 $285 $363 forward $209 $-1 #
vertex $-1 $363 $368 #
straight-curve $-1 44.33841019142665374 0 1.770022953104046337 -1 0 0 I I #
point $-1 20.07100884944941299 76.51826202897547091 1.770022953104046337 #
point $-1 20.07100884944941299 0 1.770022953104046337 #
coedge $-1 $369 $206 $208 $300 reversed $194 $-1 #
coedge $-1 $206 $369 $212 $303 forward $194 $-1 #
straight-curve $-1 0 38.25913101448773546 5.580427627557845938 0 -1 0 I I #
coedge $-1 $208 $370 $371 $372 reversed $209 $-1 #
edge $-1 $373 -16.27545558409515536 $210 10.69502795653730942 $296 $374 forward 7 unknown #
point $-1 0 0 5.580427627557845938 #
coedge $-1 $375 $212 $376 $377 reversed $214 $-1 #
edge $-1 $378 -16.27545558409515536 $215 10.69502795653730942 $212 $379 forward 7 unknown #
face $-1 $380 $214 $11 $-1 $381 reversed single #
point $-1 0 76.51826202897547091 5.580427627557845938 #
straight-curve $-1 20.07100884944941299 76.51826202897547091 9.975340437213050748 0 0 1 I I #
face $-1 $382 $383 $12 $-1 $384 forward single #
loop $-1 $-1 $385 $220 #
plane-surface $-1 10.0355044247247065 38.25913101448773546 1.770022953104046337 0 0 1 1 0 0 forward_v I I I I #
coedge $-1 $386 $387 $388 $389 reversed $221 $-1 #
coedge $-1 $223 $390 $391 $392 reversed $134 $-1 #
coedge $-1 $391 $233 $224 $313 forward $235 $-1 #
edge $-1 $317 -55.19110564973725985 $314 -43.67618262050788758 $312 $393 forward 7 unknown #
vertex $-1 $392 $394 #
straight-curve $-1 138.3779259491283824 0 64.10029819605733792 0 0 -1 I I #
edge $-1 $231 4.464138505774684518 $317 38.33636049207495944 $233 $395 forward 7 unknown #
vertex $-1 $316 $396 #
straight-curve $-1 138.3779259491283824 -1.421085471520200372e-14 17.27009175643178196 0 -0.6018150122385121925 -0.7986355182712320255 I I #
point $-1 138.3779259491283824 0 17.27009175643179972 #
point $-1 104.5057039628281075 11.51492302922937228 32.55091116819031072 #
coedge $-1 $234 $397 $398 $399 forward $235 $-1 #
face $-1 $400 $235 $12 $-1 $401 forward single #
coedge $-1 $402 $237 $386 $403 forward $134 $-1 #
coedge $-1 $398 $404 $237 $325 reversed $405 $-1 #
edge $-1 $326 -16.27545558409515536 $406 10.69502795653730942 $324 $407 forward 7 unknown #
vertex $-1 $399 $408 #
straight-curve $-1 78.64131595812860098 0 32.55091116819031072 1 0 0 I I #
face $-1 $409 $410 $13 $-1 $411 reversed single #
loop $-1 $-1 $412 $241 #
plane-surface $-1 78.64131595812860098 0 16.27545558409515536 0 1 0 0 0 1 forward_v I I I I #
coedge $-1 $413 $414 $412 $415 reversed $242 $-1 #
coedge $-1 $416 $333 $338 $417 reversed $244 $-1 #
coedge $-1 $332 $418 $245 $334 reversed $244 $-1 #
edge $-1 $339 2.273892235503967841e-14 $419 19.13365867428008471 $245 $420 forward 7 unknown #
coedge $-1 $421 $422 $246 $336 forward $423 $-1 #
edge $-1 $340 43.67618262050788758 $419 55.19110564973725985 $335 $424 forward 7 unknown #
coedge $-1 $425 $247 $422 $426 reversed $329 $-1 #
coedge $-1 $247 $412 $332 $417 forward $329 $-1 #
vertex $-1 $417 $427 #
vertex $-1 $336 $428 #
straight-curve $-1 104.5057039628281075 0 64.10029819605733792 0 0 1 I I #
vertex $-1 $249 $429 #
point $-1 116.6834816731996227 9.394303424427679516 22.16994458950700775 #
face $-1 $430 $431 $14 $-1 $432 forward single #
plane-surface $-1 121.4418149559782449 -1.421085471520200372e-14 17.27009175643178196 0 -0.7986355182712320255 0.6018150122385121925 1 0 0 forward_v I I I I #
coedge $-1 $433 $434 $435 $436 reversed $254 $-1 #
coedge $-1 $347 $347 $-1 $437 forward $256 $-1 #
edge $-1 $438 0 $438 6.283185307179586232 $257 $439 forward 7 unknown #
vertex $-1 $260 $440 #
ellipse-curve $-1 114.1834816731996227 5.757461514614682585 24.91050146231105344 0 0.7986355182712320255 -0.6018150122385121925 2.5 0 0 1 I I #
vertex $-1 $261 $441 #
point $-1 131.2001482387568956 9.394303424427679516 22.16994458950700775 #
loop $-1 $-1 $442 $253 #
straight-curve $-1 0 76.51826202897547091 16.27545558409515536 0 0 -1 I I #
point $-1 0 0 0 #
straight-curve $-1 0 38.25913101448773546 0 0 1 0 I I #
point $-1 0 76.51826202897547091 0 #
face $-1 $304 $443 $11 $-1 $444 reversed single #
loop $-1 $-1 $445 $282 #
plane-surface $-1 78.64131595812860098 38.25913101448773546 32.55091116819031072 0 0 1 1 0 0 forward_v I I I I #
coedge $-1 $285 $284 $446 $447 reversed $117 $-1 #
edge $-1 $289 14.50543263099110902 $448 16.27545558409515536 $288 $379 forward 7 unknown #
edge $-1 $292 14.50543263099110902 $449 16.27545558409515536 $285 $374 forward 7 unknown #
straight-curve $-1 0 38.25913101448773546 1.770022953104046337 0 1 0 I I #
coedge $-1 $288 $375 $450 $451 reversed $214 $-1 #
point $-1 0 76.51826202897547091 1.770022953104046337 #
coedge $-1 $370 $291 $452 $453 reversed $209 $-1 #
point $-1 0 0 1.770022953104046337 #
coedge $-1 $297 $296 $454 $455 reversed $194 $-1 #
coedge $-1 $299 $367 $456 $457 reversed $209 $-1 #
coedge $-1 $445 $454 $299 $372 forward $359 $-1 #
edge $-1 $373 -78.64131595812860098 $458 78.64131595812860098 $299 $459 forward 7 unknown #
vertex $-1 $455 $460 #
straight-curve $-1 0 0 16.27545558409515536 0 0 -1 I I #
coedge $-1 $365 $302 $461 $462 forward $214 $-1 #
coedge $-1 $454 $445 $302 $377 forward $359 $-1 #
edge $-1 $463 -78.64131595812860098 $378 78.64131595812860098 $302 $464 forward 7 unknown #
vertex $-1 $377 $465 #
straight-curve $-1 0 76.51826202897547091 16.27545558409515536 0 0 -1 I I #
face $-1 $-1 $466 $11 $-1 $467 reversed single #
plane-surface $-1 78.64131595812860098 76.51826202897547091 16.27545558409515536 0 -1 0 0 0 -1 forward_v I I I I #
face $-1 $468 $469 $12 $-1 $470 reversed single #
loop $-1 $-1 $471 $307 #
plane-surface $-1 20.07100884944941299 38.25913101448773546 3.675225290330946137 -1 0 0 0 0 1 forward_v I I I I #
coedge $-1 $472 $473 $474 $475 reversed $308 $-1 #
coedge $-1 $476 $310 $323 $403 reversed $221 $-1 #
coedge $-1 $310 $476 $477 $478 reversed $221 $-1 #
coedge $-1 $479 $471 $310 $389 forward $383 $-1 #
edge $-1 $480 -38.25913101448773546 $481 38.25913101448773546 $388 $482 forward 7 unknown #
coedge $-1 $311 $483 $484 $485 reversed $134 $-1 #
coedge $-1 $486 $312 $311 $392 forward $235 $-1 #
edge $-1 $314 59.73660999099978142 $487 78.64131595812860098 $311 $327 forward 7 unknown #
straight-curve $-1 138.3779259491283824 -43.67618262050788758 32.55091116819031072 0 -1 0 I I #
point $-1 138.3779259491283824 0 32.55091116819031072 #
straight-curve $-1 100.041565457053423 11.51492302922936872 32.55091116819031072 1 0 0 I I #
point $-1 138.3779259491283824 11.51492302922937228 32.55091116819031072 #
coedge $-1 $321 $486 $488 $489 forward $235 $-1 #
coedge $-1 $490 $324 $321 $399 reversed $405 $-1 #
edge $-1 $491 -38.25913101448773546 $326 38.25913101448773546 $398 $492 forward 7 unknown #
face $-1 $493 $494 $12 $-1 $495 reversed single #
plane-surface $-1 78.64131595812860098 38.25913101448773546 32.55091116819031072 0 0 1 1 0 0 forward_v I I I I #
coedge $-1 $496 $323 $471 $497 forward $134 $-1 #
edge $-1 $406 -44.33841019142665374 $480 -24.26740134197724075 $323 $498 forward 7 unknown #
coedge $-1 $324 $490 $476 $499 forward $405 $-1 #
loop $-1 $-1 $404 $468 #
vertex $-1 $403 $500 #
straight-curve $-1 0 0 16.27545558409515536 0 0 -1 I I #
point $-1 0 0 32.55091116819031072 #
face $-1 $501 $502 $13 $-1 $503 forward single #
loop $-1 $-1 $504 $328 #
plane-surface $-1 10.0355044247247065 38.25913101448773546 5.580427627557845938 0 0 1 1 0 0 forward_v I I I I #
coedge $-1 $338 $505 $331 $415 forward $329 $-1 #
coedge $-1 $414 $331 $506 $507 reversed $242 $-1 #
coedge $-1 $331 $413 $416 $508 forward $242 $-1 #
edge $-1 $509 31.5493870278670272 $510 46.83020643962554175 $412 $511 forward 7 unknown #
coedge $-1 $418 $332 $414 $508 reversed $244 $-1 #
edge $-1 $510 -38.33636049207495944 $339 -4.464138505774684518 $338 $512 forward 7 unknown #
coedge $-1 $333 $416 $421 $513 reversed $244 $-1 #
vertex $-1 $513 $514 #
straight-curve $-1 104.5057039628281075 -1.421085471520200372e-14 17.27009175643178196 0 0.6018150122385121925 0.7986355182712320255 I I #
coedge $-1 $506 $335 $418 $513 forward $423 $-1 #
coedge $-1 $335 $515 $337 $426 forward $423 $-1 #
loop $-1 $-1 $506 $516 #
straight-curve $-1 104.5057039628281075 -43.67618262050788758 32.55091116819031072 0 1 0 I I #
coedge $-1 $517 $337 $518 $519 forward $329 $-1 #
edge $-1 $520 -78.64131595812860098 $340 25.8643880046995065 $337 $521 forward 7 unknown #
point $-1 104.5057039628281075 0 17.27009175643179972 #
point $-1 104.5057039628281075 0 32.55091116819031072 #
point $-1 114.1834816731996227 11.39089222010575853 20.66540705891072705 #
face $-1 $522 $523 $14 $-1 $524 reversed single #
loop $-1 $-1 $525 $344 #
plane-surface $-1 138.3779259491283824 -125.6114962555035106 111.9251408080195205 -1 0 0 0 -0.7986355182712320255 0.6018150122385121925 forward_v I I I I #
coedge $-1 $434 $346 $526 $527 forward $254 $-1 #
coedge $-1 $346 $433 $528 $529 reversed $254 $-1 #
coedge $-1 $530 $531 $346 $436 forward $523 $-1 #
edge $-1 $532 -46.83020643962554175 $533 -31.5493870278670272 $435 $534 forward 7 unknown #
edge $-1 $535 1 $535 0 $347 $-1 forward 7 unknown #
vertex $-1 $348 $536 #
ellipse-curve $-1 114.1834816731996227 9.394303424427679516 22.16994458950700775 0 -0.7986355182712320255 0.6018150122385121925 2.5 0 0 1 I I #
point $-1 116.6834816731996227 5.757461514614696796 24.91050146231103568 #
point $-1 128.7001482387568956 11.39089222010575853 20.66540705891072705 #
coedge $-1 $537 $526 $531 $538 reversed $353 $-1 #
loop $-1 $-1 $539 $358 #
plane-surface $-1 78.64131595812860098 38.25913101448773546 0 0 0 1 1 0 0 forward_v I I I I #
coedge $-1 $376 $371 $540 $541 forward $359 $-1 #
coedge $-1 $450 $452 $361 $447 forward $443 $-1 #
edge $-1 $449 -38.25913101448773546 $448 38.25913101448773546 $361 $542 forward 7 unknown #
vertex $-1 $451 $543 #
vertex $-1 $447 $544 #
coedge $-1 $539 $446 $365 $451 forward $443 $-1 #
edge $-1 $448 -78.64131595812860098 $545 78.64131595812860098 $365 $546 forward 7 unknown #
coedge $-1 $446 $539 $367 $453 forward $443 $-1 #
edge $-1 $547 -78.64131595812860098 $449 78.64131595812860098 $367 $548 forward 7 unknown #
coedge $-1 $371 $376 $369 $455 forward $359 $-1 #
edge $-1 $378 -38.25913101448773546 $373 38.25913101448773546 $369 $549 forward 7 unknown #
coedge $-1 $550 $540 $370 $457 forward $466 $-1 #
edge $-1 $458 -16.27545558409515536 $547 16.27545558409515536 $456 $551 forward 7 unknown #
vertex $-1 $541 $552 #
straight-curve $-1 78.64131595812860098 0 32.55091116819031072 1 0 0 I I #
point $-1 0 0 32.55091116819031072 #
coedge $-1 $540 $550 $375 $462 reversed $466 $-1 #
edge $-1 $463 -16.27545558409515536 $545 16.27545558409515536 $461 $553 forward 7 unknown #
vertex $-1 $541 $554 #
straight-curve $-1 78.64131595812860098 76.51826202897547091 32.55091116819031072 -1 0 0 I I #
point $-1 0 76.51826202897547091 32.55091116819031072 #
loop $-1 $-1 $456 $380 #
plane-surface $-1 157.282631916257202 38.25913101448773546 16.27545558409515536 -1 0 0 0 0 1 forward_v I I I I #
face $-1 $322 $405 $12 $-1 $470 reversed single #
loop $-1 $-1 $555 $382 #
plane-surface $-1 0 38.25913101448773546 16.27545558409515536 1 0 0 0 0 -1 forward_v I I I I #
coedge $-1 $388 $474 $402 $497 reversed $383 $-1 #
coedge $-1 $556 $385 $557 $558 reversed $308 $-1 #
coedge $-1 $385 $556 $496 $559 reversed $308 $-1 #
coedge $-1 $471 $479 $385 $475 forward $383 $-1 #
edge $-1 $560 -38.25913101448773546 $561 38.25913101448773546 $474 $562 forward 7 unknown #
coedge $-1 $387 $386 $404 $499 reversed $221 $-1 #
coedge $-1 $563 $564 $387 $478 forward $565 $-1 #
edge $-1 $481 24.26740134197724075 $566 44.33841019142665374 $477 $567 forward 7 unknown #
coedge $-1 $474 $388 $564 $568 reversed $383 $-1 #
vertex $-1 $403 $569 #
vertex $-1 $478 $570 #
straight-curve $-1 20.07100884944941299 38.25913101448773546 5.580427627557845938 0 1 0 I I #
coedge $-1 $390 $571 $572 $573 reversed $134 $-1 #
coedge $-1 $574 $575 $390 $485 forward $576 $-1 #
edge $-1 $487 -16.27545558409515536 $577 16.27545558409515536 $484 $578 forward 7 unknown #
coedge $-1 $397 $391 $575 $579 forward $235 $-1 #
vertex $-1 $579 $580 #
coedge $-1 $581 $563 $397 $489 reversed $565 $-1 #
edge $-1 $582 -78.64131595812860098 $491 78.64131595812860098 $488 $583 forward 7 unknown #
coedge $-1 $404 $398 $563 $584 forward $405 $-1 #
vertex $-1 $489 $585 #
straight-curve $-1 0 38.25913101448773546 32.55091116819031072 0 -1 0 I I #
face $-1 $586 $565 $12 $-1 $587 reversed single #
loop $-1 $-1 $588 $400 #
plane-surface $-1 78.64131595812860098 38.25913101448773546 0 0 0 1 1 0 0 forward_v I I I I #
coedge $-1 $571 $402 $473 $559 forward $134 $-1 #
edge $-1 $480 4.394912809655204811 $561 8.205317484109004411 $402 $589 forward 7 unknown #
straight-curve $-1 44.33841019142665374 0 5.580427627557845938 1 0 0 I I #
edge $-1 $566 -38.25913101448773546 $406 38.25913101448773546 $404 $590 forward 7 unknown #
point $-1 0 0 5.580427627557845938 #
face $-1 $591 $592 $13 $-1 $593 forward single #
loop $-1 $-1 $594 $409 #
plane-surface $-1 10.0355044247247065 38.25913101448773546 1.770022953104046337 0 0 1 1 0 0 forward_v I I I I #
coedge $-1 $595 $596 $597 $598 reversed $410 $-1 #
coedge $-1 $412 $599 $600 $601 reversed $329 $-1 #
coedge $-1 $600 $421 $413 $507 forward $423 $-1 #
edge $-1 $602 -55.19110564973725985 $509 -43.67618262050788758 $506 $603 forward 7 unknown #
edge $-1 $602 -19.13365867428008471 $510 -2.273892235503967841e-14 $414 $604 forward 7 unknown #
vertex $-1 $601 $605 #
vertex $-1 $417 $606 #
straight-curve $-1 138.3779259491283824 0 64.10029819605733792 0 0 -1 I I #
straight-curve $-1 100.041565457053423 0 17.27009175643179617 -1 0 0 I I #
edge $-1 $419 4.464138505774684518 $602 38.33636049207495944 $421 $607 forward 7 unknown #
point $-1 104.5057039628281075 11.51492302922937228 32.55091116819031072 #
coedge $-1 $422 $608 $609 $610 forward $423 $-1 #
face $-1 $611 $423 $13 $-1 $612 forward single #
coedge $-1 $613 $425 $595 $614 forward $329 $-1 #
coedge $-1 $609 $615 $425 $519 reversed $616 $-1 #
edge $-1 $520 -16.27545558409515536 $617 10.69502795653730942 $518 $618 forward 7 unknown #
vertex $-1 $610 $619 #
straight-curve $-1 78.64131595812860098 0 32.55091116819031072 1 0 0 I I #
face $-1 $620 $621 $14 $-1 $622 reversed single #
loop $-1 $-1 $623 $430 #
plane-surface $-1 78.64131595812860098 0 16.27545558409515536 0 1 0 0 0 1 forward_v I I I I #
coedge $-1 $624 $625 $623 $626 reversed $431 $-1 #
coedge $-1 $442 $627 $433 $527 reversed $353 $-1 #
edge $-1 $532 2.273892235503967841e-14 $628 19.13365867428008471 $433 $629 forward 7 unknown #
coedge $-1 $630 $631 $434 $529 forward $632 $-1 #
edge $-1 $533 43.67618262050788758 $628 55.19110564973725985 $528 $633 forward 7 unknown #
coedge $-1 $634 $435 $631 $635 reversed $523 $-1 #
coedge $-1 $435 $623 $442 $538 forward $523 $-1 #
vertex $-1 $538 $636 #
vertex $-1 $529 $637 #
straight-curve $-1 104.5057039628281075 0 64.10029819605733792 0 0 1 I I #
vertex $-1 $437 $638 #
point $-1 116.6834816731996227 9.394303424427679516 22.16994458950700775 #
coedge $-1 $627 $442 $625 $639 reversed $353 $-1 #
edge $-1 $640 -38.33636049207495944 $532 -4.464138505774684518 $531 $641 forward 7 unknown #
coedge $-1 $452 $450 $550 $642 forward $443 $-1 #
coedge $-1 $456 $461 $445 $541 reversed $466 $-1 #
edge $-1 $458 -38.25913101448773546 $463 38.25913101448773546 $540 $643 forward 7 unknown #
straight-curve $-1 0 38.25913101448773546 0 0 1 0 I I #
point $-1 0 76.51826202897547091 0 #
point $-1 0 0 0 #
vertex $-1 $642 $644 #
straight-curve $-1 78.64131595812860098 76.51826202897547091 0 1 0 0 I I #
vertex $-1 $457 $645 #
straight-curve $-1 78.64131595812860098 0 0 -1 0 0 I I #
straight-curve $-1 0 38.25913101448773546 32.55091116819031072 0 -1 0 I I #
coedge $-1 $461 $456 $539 $642 reversed $466 $-1 #
straight-curve $-1 157.282631916257202 0 16.27545558409515536 0 0 -1 I I #
point $-1 157.282631916257202 0 32.55091116819031072 #
straight-curve $-1 157.282631916257202 76.51826202897547091 16.27545558409515536 0 0 -1 I I #
point $-1 157.282631916257202 76.51826202897547091 32.55091116819031072 #
coedge $-1 $646 $647 $556 $648 forward $469 $-1 #
coedge $-1 $473 $472 $555 $648 reversed $308 $-1 #
coedge $-1 $564 $649 $472 $558 forward $565 $-1 #
edge $-1 $650 -44.33841019142665374 $560 -24.26740134197724075 $557 $651 forward 7 unknown #
edge $-1 $561 24.26740134197724075 $652 44.33841019142665374 $496 $653 forward 7 unknown #
vertex $-1 $558 $654 #
vertex $-1 $559 $655 #
straight-curve $-1 20.07100884944941299 38.25913101448773546 1.770022953104046337 0 -1 0 I I #
coedge $-1 $488 $477 $490 $584 reversed $565 $-1 #
coedge $-1 $477 $557 $479 $568 forward $565 $-1 #
loop $-1 $-1 $477 $493 #
vertex $-1 $499 $656 #
straight-curve $-1 44.33841019142665374 76.51826202897547091 5.580427627557845938 -1 0 0 I I #
edge $-1 $560 -8.205317484109004411 $481 -4.394912809655204811 $564 $657 forward 7 unknown #
point $-1 20.07100884944941299 0 5.580427627557845938 #
point $-1 20.07100884944941299 76.51826202897547091 5.580427627557845938 #
coedge $-1 $483 $496 $647 $658 forward $134 $-1 #
coedge $-1 $659 $588 $483 $573 forward $494 $-1 #
edge $-1 $577 -78.64131595812860098 $660 78.64131595812860098 $483 $661 forward 7 unknown #
coedge $-1 $662 $484 $588 $663 reversed $576 $-1 #
coedge $-1 $484 $662 $486 $579 reversed $576 $-1 #
loop $-1 $-1 $484 $586 #
vertex $-1 $485 $664 #
straight-curve $-1 157.282631916257202 0 16.27545558409515536 0 0 -1 I I #
edge $-1 $487 -38.25913101448773546 $582 38.25913101448773546 $575 $665 forward 7 unknown #
point $-1 157.282631916257202 0 32.55091116819031072 #
coedge $-1 $666 $488 $662 $667 forward $565 $-1 #
vertex $-1 $579 $668 #
straight-curve $-1 78.64131595812860098 76.51826202897547091 32.55091116819031072 -1 0 0 I I #
edge $-1 $491 -16.27545558409515536 $566 10.69502795653730942 $563 $669 forward 7 unknown #
point $-1 0 76.51826202897547091 32.55091116819031072 #
face $-1 $-1 $576 $12 $-1 $670 reversed single #
plane-surface $-1 78.64131595812860098 76.51826202897547091 16.27545558409515536 0 -1 0 0 0 -1 forward_v I I I I #
coedge $-1 $572 $671 $574 $663 forward $494 $-1 #
straight-curve $-1 20.07100884944941299 0 9.975340437213050748 0 0 -1 I I #
straight-curve $-1 0 38.25913101448773546 5.580427627557845938 0 -1 0 I I #
face $-1 $672 $673 $13 $-1 $674 reversed single #
loop $-1 $-1 $675 $501 #
plane-surface $-1 20.07100884944941299 38.25913101448773546 3.675225290330946137 -1 0 0 0 0 1 forward_v I I I I #
coedge $-1 $676 $677 $678 $679 reversed $502 $-1 #
coedge $-1 $680 $504 $517 $614 reversed $410 $-1 #
coedge $-1 $504 $680 $681 $682 reversed $410 $-1 #
coedge $-1 $683 $675 $504 $598 forward $592 $-1 #
edge $-1 $684 -38.25913101448773546 $685 38.25913101448773546 $597 $686 forward 7 unknown #
coedge $-1 $505 $687 $688 $689 reversed $329 $-1 #
coedge $-1 $690 $506 $505 $601 forward $423 $-1 #
edge $-1 $509 59.73660999099978142 $691 78.64131595812860098 $505 $521 forward 7 unknown #
vertex $-1 $513 $692 #
straight-curve $-1 138.3779259491283824 -43.67618262050788758 32.55091116819031072 0 -1 0 I I #
straight-curve $-1 138.3779259491283824 -1.421085471520200372e-14 17.27009175643178196 0 -0.6018150122385121925 -0.7986355182712320255 I I #
point $-1 138.3779259491283824 0 32.55091116819031072 #
point $-1 138.3779259491283824 0 17.27009175643179972 #
straight-curve $-1 100.041565457053423 11.51492302922936872 32.55091116819031072 1 0 0 I I #
coedge $-1 $515 $690 $693 $694 forward $423 $-1 #
coedge $-1 $695 $518 $515 $610 reversed $616 $-1 #
edge $-1 $696 -38.25913101448773546 $520 38.25913101448773546 $609 $697 forward 7 unknown #
face $-1 $698 $699 $13 $-1 $700 reversed single #
plane-surface $-1 78.64131595812860098 38.25913101448773546 32.55091116819031072 0 0 1 1 0 0 forward_v I I I I #
coedge $-1 $701 $517 $675 $702 forward $329 $-1 #
edge $-1 $617 -44.33841019142665374 $684 -24.26740134197724075 $517 $703 forward 7 unknown #
coedge $-1 $518 $695 $680 $704 forward $616 $-1 #
loop $-1 $-1 $615 $672 #
vertex $-1 $614 $705 #
straight-curve $-1 0 0 16.27545558409515536 0 0 -1 I I #
point $-1 0 0 32.55091116819031072 #
face $-1 $706 $707 $14 $-1 $708 forward single #
loop $-1 $-1 $709 $522 #
plane-surface $-1 10.0355044247247065 38.25913101448773546 5.580427627557845938 0 0 1 1 0 0 forward_v I I I I #
coedge $-1 $531 $710 $525 $626 forward $523 $-1 #
coedge $-1 $625 $525 $711 $712 reversed $431 $-1 #
coedge $-1 $525 $624 $537 $639 forward $431 $-1 #
edge $-1 $713 31.5493870278670272 $640 46.83020643962554175 $623 $714 forward 7 unknown #
coedge $-1 $526 $537 $630 $715 reversed $353 $-1 #
vertex $-1 $715 $716 #
straight-curve $-1 104.5057039628281075 -1.421085471520200372e-14 17.27009175643178196 0 0.6018150122385121925 0.7986355182712320255 I I #
coedge $-1 $711 $528 $627 $715 forward $632 $-1 #
coedge $-1 $528 $717 $530 $635 forward $632 $-1 #
loop $-1 $-1 $711 $718 #
straight-curve $-1 104.5057039628281075 -43.67618262050788758 32.55091116819031072 0 1 0 I I #
coedge $-1 $719 $530 $720 $721 forward $523 $-1 #
edge $-1 $722 -78.64131595812860098 $533 25.8643880046995065 $530 $723 forward 7 unknown #
point $-1 104.5057039628281075 0 17.27009175643179972 #
point $-1 104.5057039628281075 0 32.55091116819031072 #
point $-1 114.1834816731996227 11.39089222010575853 20.66540705891072705 #
edge $-1 $724 -19.13365867428008471 $640 -2.273892235503967841e-14 $625 $725 forward 7 unknown #
vertex $-1 $538 $726 #
straight-curve $-1 100.041565457053423 0 17.27009175643179617 -1 0 0 I I #
edge $-1 $545 -38.25913101448773546 $547 38.25913101448773546 $550 $727 forward 7 unknown #
straight-curve $-1 157.282631916257202 38.25913101448773546 32.55091116819031072 0 1 0 I I #
point $-1 157.282631916257202 76.51826202897547091 0 #
point $-1 157.282631916257202 0 0 #
coedge $-1 $728 $555 $649 $729 forward $469 $-1 #
coedge $-1 $555 $728 $571 $658 reversed $469 $-1 #
edge $-1 $652 -38.25913101448773546 $650 38.25913101448773546 $555 $730 forward 7 unknown #
coedge $-1 $557 $666 $646 $729 reversed $565 $-1 #
vertex $-1 $729 $731 #
straight-curve $-1 44.33841019142665374 76.51826202897547091 1.770022953104046337 1 0 0 I I #
vertex $-1 $658 $732 #
straight-curve $-1 44.33841019142665374 0 1.770022953104046337 -1 0 0 I I #
point $-1 20.07100884944941299 76.51826202897547091 1.770022953104046337 #
point $-1 20.07100884944941299 0 1.770022953104046337 #
point $-1 0 76.51826202897547091 5.580427627557845938 #
straight-curve $-1 20.07100884944941299 76.51826202897547091 9.975340437213050748 0 0 1 I I #
edge $-1 $652 14.50543263099110902 $660 16.27545558409515536 $647 $407 forward 7 unknown #
coedge $-1 $671 $572 $728 $733 forward $494 $-1 #
vertex $-1 $733 $734 #
straight-curve $-1 78.64131595812860098 0 0 -1 0 0 I I #
coedge $-1 $575 $574 $581 $667 reversed $576 $-1 #
edge $-1 $735 -38.25913101448773546 $577 38.25913101448773546 $574 $736 forward 7 unknown #
point $-1 157.282631916257202 0 0 #
straight-curve $-1 157.282631916257202 38.25913101448773546 32.55091116819031072 0 1 0 I I #
coedge $-1 $649 $581 $671 $737 reversed $565 $-1 #
edge $-1 $582 -16.27545558409515536 $735 16.27545558409515536 $662 $738 forward 7 unknown #
point $-1 157.282631916257202 76.51826202897547091 32.55091116819031072 #
straight-curve $-1 0 76.51826202897547091 16.27545558409515536 0 0 -1 I I #
plane-surface $-1 157.282631916257202 38.25913101448773546 16.27545558409515536 -1 0 0 0 0 1 forward_v I I I I #
coedge $-1 $588 $659 $666 $737 forward $494 $-1 #
face $-1 $516 $616 $13 $-1 $674 reversed single #
loop $-1 $-1 $739 $591 #
plane-surface $-1 0 38.25913101448773546 16.27545558409515536 1 0 0 0 0 -1 forward_v I I I I #
coedge $-1 $597 $678 $613 $702 reversed $592 $-1 #
coedge $-1 $740 $594 $741 $742 reversed $502 $-1 #
coedge $-1 $594 $740 $701 $743 reversed $502 $-1 #
coedge $-1 $675 $683 $594 $679 forward $592 $-1 #
edge $-1 $744 -38.25913101448773546 $745 38.25913101448773546 $678 $746 forward 7 unknown #
coedge $-1 $596 $595 $615 $704 reversed $410 $-1 #
coedge $-1 $747 $748 $596 $682 forward $749 $-1 #
edge $-1 $685 24.26740134197724075 $750 44.33841019142665374 $681 $751 forward 7 unknown #
coedge $-1 $678 $597 $748 $752 reversed $592 $-1 #
vertex $-1 $614 $753 #
vertex $-1 $682 $754 #
straight-curve $-1 20.07100884944941299 38.25913101448773546 5.580427627557845938 0 1 0 I I #
coedge $-1 $599 $755 $756 $757 reversed $329 $-1 #
coedge $-1 $758 $759 $599 $689 forward $760 $-1 #
edge $-1 $691 -16.27545558409515536 $761 16.27545558409515536 $688 $762 forward 7 unknown #
coedge $-1 $608 $600 $759 $763 forward $423 $-1 #
vertex $-1 $763 $764 #
point $-1 138.3779259491283824 11.51492302922937228 32.55091116819031072 #
coedge $-1 $765 $747 $608 $694 reversed $749 $-1 #
edge $-1 $766 -78.64131595812860098 $696 78.64131595812860098 $693 $767 forward 7 unknown #
coedge $-1 $615 $609 $747 $768 forward $616 $-1 #
vertex $-1 $694 $769 #
straight-curve $-1 0 38.25913101448773546 32.55091116819031072 0 -1 0 I I #
face $-1 $770 $749 $13 $-1 $771 reversed single #
loop $-1 $-1 $772 $611 #
plane-surface $-1 78.64131595812860098 38.25913101448773546 0 0 0 1 1 0 0 forward_v I I I I #
coedge $-1 $755 $613 $677 $743 forward $329 $-1 #
edge $-1 $684 4.394912809655204811 $745 8.205317484109004411 $613 $773 forward 7 unknown #
straight-curve $-1 44.33841019142665374 0 5.580427627557845938 1 0 0 I I #
edge $-1 $750 -38.25913101448773546 $617 38.25913101448773546 $615 $774 forward 7 unknown #
point $-1 0 0 5.580427627557845938 #
face $-1 $775 $776 $14 $-1 $777 forward single #
loop $-1 $-1 $778 $620 #
plane-surface $-1 10.0355044247247065 38.25913101448773546 1.770022953104046337 0 0 1 1 0 0 forward_v I I I I #
coedge $-1 $779 $780 $781 $782 reversed $621 $-1 #
coedge $-1 $623 $783 $784 $785 reversed $523 $-1 #
coedge $-1 $784 $630 $624 $712 forward $632 $-1 #
edge $-1 $724 -55.19110564973725985 $713 -43.67618262050788758 $711 $786 forward 7 unknown #
vertex $-1 $785 $787 #
straight-curve $-1 138.3779259491283824 0 64.10029819605733792 0 0 -1 I I #
edge $-1 $628 4.464138505774684518 $724 38.33636049207495944 $630 $788 forward 7 unknown #
point $-1 104.5057039628281075 11.51492302922937228 32.55091116819031072 #
coedge $-1 $631 $789 $790 $791 forward $632 $-1 #
face $-1 $792 $632 $14 $-1 $793 forward single #
coedge $-1 $794 $634 $779 $795 forward $523 $-1 #
coedge $-1 $790 $796 $634 $721 reversed $797 $-1 #
edge $-1 $722 -16.27545558409515536 $798 10.69502795653730942 $720 $799 forward 7 unknown #
vertex $-1 $791 $800 #
straight-curve $-1 78.64131595812860098 0 32.55091116819031072 1 0 0 I I #
vertex $-1 $715 $801 #
straight-curve $-1 138.3779259491283824 -1.421085471520200372e-14 17.27009175643178196 0 -0.6018150122385121925 -0.7986355182712320255 I I #
point $-1 138.3779259491283824 0 17.27009175643179972 #
straight-curve $-1 157.282631916257202 38.25913101448773546 0 0 -1 0 I I #
coedge $-1 $647 $646 $659 $733 reversed $469 $-1 #
edge $-1 $650 14.50543263099110902 $802 16.27545558409515536 $649 $669 forward 7 unknown #
straight-curve $-1 0 38.25913101448773546 1.770022953104046337 0 1 0 I I #
point $-1 0 76.51826202897547091 1.770022953104046337 #
point $-1 0 0 1.770022953104046337 #
edge $-1 $660 -38.25913101448773546 $802 38.25913101448773546 $728 $803 forward 7 unknown #
point $-1 0 0 0 #
vertex $-1 $663 $804 #
straight-curve $-1 157.282631916257202 38.25913101448773546 0 0 -1 0 I I #
edge $-1 $802 -78.64131595812860098 $735 78.64131595812860098 $666 $805 forward 7 unknown #
straight-curve $-1 157.282631916257202 76.51826202897547091 16.27545558409515536 0 0 -1 I I #
coedge $-1 $806 $807 $740 $808 forward $673 $-1 #
coedge $-1 $677 $676 $739 $808 reversed $502 $-1 #
coedge $-1 $748 $809 $676 $742 forward $749 $-1 #
edge $-1 $810 -44.33841019142665374 $744 -24.26740134197724075 $741 $811 forward 7 unknown #
edge $-1 $745 24.26740134197724075 $812 44.33841019142665374 $701 $813 forward 7 unknown #
vertex $-1 $742 $814 #
vertex $-1 $743 $815 #
straight-curve $-1 20.07100884944941299 38.25913101448773546 1.770022953104046337 0 -1 0 I I #
coedge $-1 $693 $681 $695 $768 reversed $749 $-1 #
coedge $-1 $681 $741 $683 $752 forward $749 $-1 #
loop $-1 $-1 $681 $698 #
vertex $-1 $704 $816 #
straight-curve $-1 44.33841019142665374 76.51826202897547091 5.580427627557845938 -1 0 0 I I #
edge $-1 $744 -8.205317484109004411 $685 -4.394912809655204811 $748 $817 forward 7 unknown #
point $-1 20.07100884944941299 0 5.580427627557845938 #
point $-1 20.07100884944941299 76.51826202897547091 5.580427627557845938 #
coedge $-1 $687 $701 $807 $818 forward $329 $-1 #
coedge $-1 $819 $772 $687 $757 forward $699 $-1 #
edge $-1 $761 -78.64131595812860098 $820 78.64131595812860098 $687 $821 forward 7 unknown #
coedge $-1 $822 $688 $772 $823 reversed $760 $-1 #
coedge $-1 $688 $822 $690 $763 reversed $760 $-1 #
loop $-1 $-1 $688 $770 #
vertex $-1 $689 $824 #
straight-curve $-1 157.282631916257202 0 16.27545558409515536 0 0 -1 I I #
edge $-1 $691 -38.25913101448773546 $766 38.25913101448773546 $759 $825 forward 7 unknown #
point $-1 157.282631916257202 0 32.55091116819031072 #
coedge $-1 $826 $693 $822 $827 forward $749 $-1 #
vertex $-1 $763 $828 #
straight-curve $-1 78.64131595812860098 76.51826202897547091 32.55091116819031072 -1 0 0 I I #
edge $-1 $696 -16.27545558409515536 $750 10.69502795653730942 $747 $829 forward 7 unknown #
point $-1 0 76.51826202897547091 32.55091116819031072 #
face $-1 $-1 $760 $13 $-1 $830 reversed single #
plane-surface $-1 78.64131595812860098 76.51826202897547091 16.27545558409515536 0 -1 0 0 0 -1 forward_v I I I I #
coedge $-1 $756 $831 $758 $823 forward $699 $-1 #
straight-curve $-1 20.07100884944941299 0 9.975340437213050748 0 0 -1 I I #
straight-curve $-1 0 38.25913101448773546 5.580427627557845938 0 -1 0 I I #
face $-1 $832 $833 $14 $-1 $834 reversed single #
loop $-1 $-1 $835 $706 #
plane-surface $-1 20.07100884944941299 38.25913101448773546 3.675225290330946137 -1 0 0 0 0 1 forward_v I I I I #
coedge $-1 $836 $837 $838 $839 reversed $707 $-1 #
coedge $-1 $840 $709 $719 $795 reversed $621 $-1 #
coedge $-1 $709 $840 $841 $842 reversed $621 $-1 #
coedge $-1 $843 $835 $709 $782 forward $776 $-1 #
edge $-1 $844 -38.25913101448773546 $845 38.25913101448773546 $781 $846 forward 7 unknown #
coedge $-1 $710 $847 $848 $849 reversed $523 $-1 #
coedge $-1 $850 $711 $710 $785 forward $632 $-1 #
edge $-1 $713 59.73660999099978142 $851 78.64131595812860098 $710 $723 forward 7 unknown #
straight-curve $-1 138.3779259491283824 -43.67618262050788758 32.55091116819031072 0 -1 0 I I #
point $-1 138.3779259491283824 0 32.55091116819031072 #
straight-curve $-1 100.041565457053423 11.51492302922936872 32.55091116819031072 1 0 0 I I #
coedge $-1 $717 $850 $852 $853 forward $632 $-1 #
coedge $-1 $854 $720 $717 $791 reversed $797 $-1 #
edge $-1 $855 -38.25913101448773546 $722 38.25913101448773546 $790 $856 forward 7 unknown #
face $-1 $857 $858 $14 $-1 $859 reversed single #
plane-surface $-1 78.64131595812860098 38.25913101448773546 32.55091116819031072 0 0 1 1 0 0 forward_v I I I I #
coedge $-1 $860 $719 $835 $861 forward $523 $-1 #
edge $-1 $798 -44.33841019142665374 $844 -24.26740134197724075 $719 $862 forward 7 unknown #
coedge $-1 $720 $854 $840 $863 forward $797 $-1 #
loop $-1 $-1 $796 $832 #
vertex $-1 $795 $864 #
straight-curve $-1 0 0 16.27545558409515536 0 0 -1 I I #
point $-1 0 0 32.55091116819031072 #
point $-1 138.3779259491283824 11.51492302922937228 32.55091116819031072 #
vertex $-1 $737 $865 #
straight-curve $-1 0 38.25913101448773546 0 0 1 0 I I #
point $-1 157.282631916257202 76.51826202897547091 0 #
straight-curve $-1 78.64131595812860098 76.51826202897547091 0 1 0 0 I I #
coedge $-1 $866 $739 $809 $867 forward $673 $-1 #
coedge $-1 $739 $866 $755 $818 reversed $673 $-1 #
edge $-1 $812 -38.25913101448773546 $810 38.25913101448773546 $739 $868 forward 7 unknown #
coedge $-1 $741 $826 $806 $867 reversed $749 $-1 #
vertex $-1 $867 $869 #
straight-curve $-1 44.33841019142665374 76.51826202897547091 1.770022953104046337 1 0 0 I I #
vertex $-1 $818 $870 #
straight-curve $-1 44.33841019142665374 0 1.770022953104046337 -1 0 0 I I #
point $-1 20.07100884944941299 76.51826202897547091 1.770022953104046337 #
point $-1 20.07100884944941299 0 1.770022953104046337 #
point $-1 0 76.51826202897547091 5.580427627557845938 #
straight-curve $-1 20.07100884944941299 76.51826202897547091 9.975340437213050748 0 0 1 I I #
edge $-1 $812 14.50543263099110902 $820 16.27545558409515536 $807 $618 forward 7 unknown #
coedge $-1 $831 $756 $866 $871 forward $699 $-1 #
vertex $-1 $871 $872 #
straight-curve $-1 78.64131595812860098 0 0 -1 0 0 I I #
coedge $-1 $759 $758 $765 $827 reversed $760 $-1 #
edge $-1 $873 -38.25913101448773546 $761 38.25913101448773546 $758 $874 forward 7 unknown #
point $-1 157.282631916257202 0 0 #
straight-curve $-1 157.282631916257202 38.25913101448773546 32.55091116819031072 0 1 0 I I #
coedge $-1 $809 $765 $831 $875 reversed $749 $-1 #
edge $-1 $766 -16.27545558409515536 $873 16.27545558409515536 $822 $876 forward 7 unknown #
point $-1 157.282631916257202 76.51826202897547091 32.55091116819031072 #
straight-curve $-1 0 76.51826202897547091 16.27545558409515536 0 0 -1 I I #
plane-surface $-1 157.282631916257202 38.25913101448773546 16.27545558409515536 -1 0 0 0 0 1 forward_v I I I I #
coedge $-1 $772 $819 $826 $875 forward $699 $-1 #
face $-1 $718 $797 $14 $-1 $834 reversed single #
loop $-1 $-1 $877 $775 #
plane-surface $-1 0 38.25913101448773546 16.27545558409515536 1 0 0 0 0 -1 forward_v I I I I #
coedge $-1 $781 $838 $794 $861 reversed $776 $-1 #
coedge $-1 $878 $778 $879 $880 reversed $707 $-1 #
coedge $-1 $778 $878 $860 $881 reversed $707 $-1 #
coedge $-1 $835 $843 $778 $839 forward $776 $-1 #
edge $-1 $882 -38.25913101448773546 $883 38.25913101448773546 $838 $884 forward 7 unknown #
coedge $-1 $780 $779 $796 $863 reversed $621 $-1 #
coedge $-1 $885 $886 $780 $842 forward $887 $-1 #
edge $-1 $845 24.26740134197724075 $888 44.33841019142665374 $841 $889 forward 7 unknown #
coedge $-1 $838 $781 $886 $890 reversed $776 $-1 #
vertex $-1 $795 $891 #
vertex $-1 $842 $892 #
straight-curve $-1 20.07100884944941299 38.25913101448773546 5.580427627557845938 0 1 0 I I #
coedge $-1 $783 $893 $894 $895 reversed $523 $-1 #
coedge $-1 $896 $897 $783 $849 forward $898 $-1 #
edge $-1 $851 -16.27545558409515536 $899 16.27545558409515536 $848 $900 forward 7 unknown #
coedge $-1 $789 $784 $897 $901 forward $632 $-1 #
vertex $-1 $901 $902 #
coedge $-1 $903 $885 $789 $853 reversed $887 $-1 #
edge $-1 $904 -78.64131595812860098 $855 78.64131595812860098 $852 $905 forward 7 unknown #
coedge $-1 $796 $790 $885 $906 forward $797 $-1 #
vertex $-1 $853 $907 #
straight-curve $-1 0 38.25913101448773546 32.55091116819031072 0 -1 0 I I #
face $-1 $908 $887 $14 $-1 $909 reversed single #
loop $-1 $-1 $910 $792 #
plane-surface $-1 78.64131595812860098 38.25913101448773546 0 0 0 1 1 0 0 forward_v I I I I #
coedge $-1 $893 $794 $837 $881 forward $523 $-1 #
edge $-1 $844 4.394912809655204811 $883 8.205317484109004411 $794 $911 forward 7 unknown #
straight-curve $-1 44.33841019142665374 0 5.580427627557845938 1 0 0 I I #
edge $-1 $888 -38.25913101448773546 $798 38.25913101448773546 $796 $912 forward 7 unknown #
point $-1 0 0 5.580427627557845938 #
point $-1 0 76.51826202897547091 0 #
coedge $-1 $807 $806 $819 $871 reversed $673 $-1 #
edge $-1 $810 14.50543263099110902 $913 16.27545558409515536 $809 $829 forward 7 unknown #
straight-curve $-1 0 38.25913101448773546 1.770022953104046337 0 1 0 I I #
point $-1 0 76.51826202897547091 1.770022953104046337 #
point $-1 0 0 1.770022953104046337 #
edge $-1 $820 -38.25913101448773546 $913 38.25913101448773546 $866 $914 forward 7 unknown #
point $-1 0 0 0 #
vertex $-1 $823 $915 #
straight-curve $-1 157.282631916257202 38.25913101448773546 0 0 -1 0 I I #
edge $-1 $913 -78.64131595812860098 $873 78.64131595812860098 $826 $916 forward 7 unknown #
straight-curve $-1 157.282631916257202 76.51826202897547091 16.27545558409515536 0 0 -1 I I #
coedge $-1 $917 $918 $878 $919 forward $833 $-1 #
coedge $-1 $837 $836 $877 $919 reversed $707 $-1 #
coedge $-1 $886 $920 $836 $880 forward $887 $-1 #
edge $-1 $921 -44.33841019142665374 $882 -24.26740134197724075 $879 $922 forward 7 unknown #
edge $-1 $883 24.26740134197724075 $923 44.33841019142665374 $860 $924 forward 7 unknown #
vertex $-1 $880 $925 #
vertex $-1 $881 $926 #
straight-curve $-1 20.07100884944941299 38.25913101448773546 1.770022953104046337 0 -1 0 I I #
coedge $-1 $852 $841 $854 $906 reversed $887 $-1 #
coedge $-1 $841 $879 $843 $890 forward $887 $-1 #
loop $-1 $-1 $841 $857 #
vertex $-1 $863 $927 #
straight-curve $-1 44.33841019142665374 76.51826202897547091 5.580427627557845938 -1 0 0 I I #
edge $-1 $882 -8.205317484109004411 $845 -4.394912809655204811 $886 $928 forward 7 unknown #
point $-1 20.07100884944941299 0 5.580427627557845938 #
point $-1 20.07100884944941299 76.51826202897547091 5.580427627557845938 #
coedge $-1 $847 $860 $918 $929 forward $523 $-1 #
coedge $-1 $930 $910 $847 $895 forward $858 $-1 #
edge $-1 $899 -78.64131595812860098 $931 78.64131595812860098 $847 $932 forward 7 unknown #
coedge $-1 $933 $848 $910 $934 reversed $898 $-1 #
coedge $-1 $848 $933 $850 $901 reversed $898 $-1 #
loop $-1 $-1 $848 $908 #
vertex $-1 $849 $935 #
straight-curve $-1 157.282631916257202 0 16.27545558409515536 0 0 -1 I I #
edge $-1 $851 -38.25913101448773546 $904 38.25913101448773546 $897 $936 forward 7 unknown #
point $-1 157.282631916257202 0 32.55091116819031072 #
coedge $-1 $937 $852 $933 $938 forward $887 $-1 #
vertex $-1 $901 $939 #
straight-curve $-1 78.64131595812860098 76.51826202897547091 32.55091116819031072 -1 0 0 I I #
edge $-1 $855 -16.27545558409515536 $888 10.69502795653730942 $885 $940 forward 7 unknown #
point $-1 0 76.51826202897547091 32.55091116819031072 #
face $-1 $-1 $898 $14 $-1 $941 reversed single #
plane-surface $-1 78.64131595812860098 76.51826202897547091 16.27545558409515536 0 -1 0 0 0 -1 forward_v I I I I #
coedge $-1 $894 $942 $896 $934 forward $858 $-1 #
straight-curve $-1 20.07100884944941299 0 9.975340437213050748 0 0 -1 I I #
straight-curve $-1 0 38.25913101448773546 5.580427627557845938 0 -1 0 I I #
vertex $-1 $875 $943 #
straight-curve $-1 0 38.25913101448773546 0 0 1 0 I I #
point $-1 157.282631916257202 76.51826202897547091 0 #
straight-curve $-1 78.64131595812860098 76.51826202897547091 0 1 0 0 I I #
coedge $-1 $944 $877 $920 $945 forward $833 $-1 #
coedge $-1 $877 $944 $893 $929 reversed $833 $-1 #
edge $-1 $923 -38.25913101448773546 $921 38.25913101448773546 $877 $946 forward 7 unknown #
coedge $-1 $879 $937 $917 $945 reversed $887 $-1 #
vertex $-1 $945 $947 #
straight-curve $-1 44.33841019142665374 76.51826202897547091 1.770022953104046337 1 0 0 I I #
vertex $-1 $929 $948 #
straight-curve $-1 44.33841019142665374 0 1.770022953104046337 -1 0 0 I I #
point $-1 20.07100884944941299 76.51826202897547091 1.770022953104046337 #
point $-1 20.07100884944941299 0 1.770022953104046337 #
point $-1 0 76.51826202897547091 5.580427627557845938 #
straight-curve $-1 20.07100884944941299 76.51826202897547091 9.975340437213050748 0 0 1 I I #
edge $-1 $923 14.50543263099110902 $931 16.27545558409515536 $918 $799 forward 7 unknown #
coedge $-1 $942 $894 $944 $949 forward $858 $-1 #
vertex $-1 $949 $950 #
straight-curve $-1 78.64131595812860098 0 0 -1 0 0 I I #
coedge $-1 $897 $896 $903 $938 reversed $898 $-1 #
edge $-1 $951 -38.25913101448773546 $899 38.25913101448773546 $896 $952 forward 7 unknown #
point $-1 157.282631916257202 0 0 #
straight-curve $-1 157.282631916257202 38.25913101448773546 32.55091116819031072 0 1 0 I I #
coedge $-1 $920 $903 $942 $953 reversed $887 $-1 #
edge $-1 $904 -16.27545558409515536 $951 16.27545558409515536 $933 $954 forward 7 unknown #
point $-1 157.282631916257202 76.51826202897547091 32.55091116819031072 #
straight-curve $-1 0 76.51826202897547091 16.27545558409515536 0 0 -1 I I #
plane-surface $-1 157.282631916257202 38.25913101448773546 16.27545558409515536 -1 0 0 0 0 1 forward_v I I I I #
coedge $-1 $910 $930 $937 $953 forward $858 $-1 #
point $-1 0 76.51826202897547091 0 #
coedge $-1 $918 $917 $930 $949 reversed $833 $-1 #
edge $-1 $921 14.50543263099110902 $955 16.27545558409515536 $920 $940 forward 7 unknown #
straight-curve $-1 0 38.25913101448773546 1.770022953104046337 0 1 0 I I #
point $-1 0 76.51826202897547091 1.770022953104046337 #
point $-1 0 0 1.770022953104046337 #
edge $-1 $931 -38.25913101448773546 $955 38.25913101448773546 $944 $956 forward 7 unknown #
point $-1 0 0 0 #
vertex $-1 $934 $957 #
straight-curve $-1 157.282631916257202 38.25913101448773546 0 0 -1 0 I I #
edge $-1 $955 -78.64131595812860098 $951 78.64131595812860098 $937 $958 forward 7 unknown #
straight-curve $-1 157.282631916257202 76.51826202897547091 16.27545558409515536 0 0 -1 I I #
vertex $-1 $953 $959 #
straight-curve $-1 0 38.25913101448773546 0 0 1 0 I I #
point $-1 157.282631916257202 76.51826202897547091 0 #
straight-curve $-1 78.64131595812860098 76.51826202897547091 0 1 0 0 I I #
point $-1 0 76.51826202897547091 0 #
End-of-ACIS-data 