600 0 8 0           
95 GICL ACIS Healer - Source: /gicl/data5/repository/Drexel/SM99-DATA/part82.smdg.deltas.sat - 6 0 18 ACIS 6.0.3 Solaris 24 Sat Apr 13 20:45:54 2002 
1 9.999999999999999547e-07 1.000000000000000036e-10 
body $-1 $8 $-1 $-1 #
body $-1 $9 $-1 $-1 #
body $-1 $10 $-1 $-1 #
body $-1 $11 $-1 $-1 #
body $-1 $12 $-1 $-1 #
body $-1 $13 $-1 $-1 #
body $-1 $14 $-1 $-1 #
body $-1 $15 $-1 $-1 #
lump $-1 $-1 $16 $0 #
lump $-1 $-1 $17 $1 #
lump $-1 $-1 $18 $2 #
lump $-1 $-1 $19 $3 #
lump $-1 $-1 $20 $4 #
lump $-1 $-1 $21 $5 #
lump $-1 $-1 $22 $6 #
lump $-1 $-1 $23 $7 #
shell $-1 $-1 $-1 $24 $-1 $8 #
shell $-1 $-1 $-1 $25 $-1 $9 #
shell $-1 $-1 $-1 $26 $-1 $10 #
shell $-1 $-1 $-1 $27 $-1 $11 #
shell $-1 $-1 $-1 $28 $-1 $12 #
shell $-1 $-1 $-1 $29 $-1 $13 #
shell $-1 $-1 $-1 $30 $-1 $14 #
shell $-1 $-1 $-1 $31 $-1 $15 #
face $-1 $32 $33 $16 $-1 $34 forward single #
face $-1 $35 $36 $17 $-1 $37 forward single #
face $-1 $38 $39 $18 $-1 $40 reversed single #
face $-1 $41 $42 $19 $-1 $43 forward single #
face $-1 $44 $45 $20 $-1 $46 forward single #
face $-1 $47 $48 $21 $-1 $49 reversed single #
face $-1 $50 $51 $22 $-1 $52 forward single #
face $-1 $53 $54 $23 $-1 $55 forward single #
face $-1 $56 $57 $16 $-1 $58 reversed single #
loop $-1 $-1 $59 $24 #
plane-surface $-1 74.35895870845668298 51.29422441404030764 50.54376049655958525 0 0 1 1 0 0 forward_v I I I I #
face $-1 $60 $61 $17 $-1 $62 reversed single #
loop $-1 $-1 $63 $25 #
plane-surface $-1 74.35895870845668298 13.05640800203395457 13.96397291931531193 0 0 1 1 0 0 forward_v I I I I #
face $-1 $64 $65 $18 $-1 $66 reversed single #
loop $-1 $-1 $67 $26 #
plane-surface $-1 104.9901619350034281 34.62253019333250847 247.797101340816198 0 -1 0 -0.5446390421508873203 0 -0.8386705633113421543 forward_v I I I I #
face $-1 $68 $69 $19 $-1 $70 forward single #
loop $-1 $71 $72 $27 #
cone-surface $-1 141.9245910937546 28.54416291528637117 45.88963380345478527 -0.5446390421508873203 0 -0.8386705633113421543 0.4193352816556710772 0 -0.2723195210754436602 1 I I 0 1 0.5 forward I I I I #
face $-1 $73 $74 $20 $-1 $75 forward single #
loop $-1 $76 $77 $28 #
cone-surface $-1 141.9245910937546 32.19118328211405355 45.88963380345478527 -0.5446390421508873203 0 -0.8386705633113421543 0.4193352816556710772 0 -0.2723195210754436602 1 I I 0 1 0.5 forward I I I I #
face $-1 $78 $79 $21 $-1 $80 reversed single #
loop $-1 $-1 $81 $29 #
plane-surface $-1 -123.2927424515128081 61.49831314871636323 113.5901215142189642 0 1 0 -0.8290375806290775085 0 0.5591928915004963363 forward_v I I I I #
face $-1 $82 $83 $22 $-1 $84 forward single #
loop $-1 $85 $86 $30 #
cone-surface $-1 7.796757633182281211 65.87655137997360555 39.80288389057569987 0.8290375806290775085 0 -0.5591928915004963363 0.5591928915004963363 0 0.8290375806290775085 1 I I 0 1 1 forward I I I I #
face $-1 $87 $88 $23 $-1 $89 forward single #
loop $-1 $90 $91 $31 #
cone-surface $-1 7.796757633182281211 72.44390872685946192 39.80288389057569987 0.8290375806290775085 0 -0.5591928915004963363 0.5591928915004963363 0 0.8290375806290775085 1 I I 0 1 1 forward I I I I #
face $-1 $92 $93 $16 $-1 $94 reversed single #
loop $-1 $-1 $95 $32 #
plane-surface $-1 74.35895870845668298 51.29422441404030764 0 0 0 1 1 0 0 forward_v I I I I #
coedge $-1 $96 $97 $98 $99 forward $33 $-1 #
face $-1 $100 $101 $17 $-1 $102 reversed single #
loop $-1 $-1 $103 $35 #
plane-surface $-1 74.35895870845668298 26.1128160040679127 6.981986459657655075 0 -1 0 0 0 -1 forward_v I I I I #
coedge $-1 $104 $105 $106 $107 reversed $36 $-1 #
face $-1 $108 $109 $18 $-1 $110 reversed single #
loop $-1 $-1 $111 $38 #
plane-surface $-1 23.99257784238096747 30.36767309870021236 123.0717617662837995 0.5446390421508873203 0 0.8386705633113421543 0.8386705633113421543 0 -0.5446390421508873203 forward_v I I I I #
coedge $-1 $112 $113 $114 $115 reversed $39 $-1 #
face $-1 $-1 $116 $19 $-1 $117 forward single #
loop $-1 $118 $119 $41 #
cone-surface $-1 141.5161118121414461 28.54416291528637117 45.26063088097127718 -0.5446390421508873203 0 -0.8386705633113421543 0.2096676408278355386 0 -0.1361597605377218301 1 I I -0.7071067811865474617 0.7071067811865474617 0.25 forward I I I I #
loop $-1 $-1 $120 $27 #
coedge $-1 $72 $72 $121 $122 reversed $42 $-1 #
face $-1 $-1 $123 $20 $-1 $124 forward single #
loop $-1 $125 $126 $44 #
cone-surface $-1 141.5161118121414461 32.19118328211405355 45.26063088097127718 -0.5446390421508873203 0 -0.8386705633113421543 0.2096676408278355386 0 -0.1361597605377218301 1 I I -0.7071067811865474617 0.7071067811865474617 0.25 forward I I I I #
loop $-1 $-1 $127 $28 #
coedge $-1 $77 $77 $128 $129 reversed $45 $-1 #
face $-1 $130 $131 $21 $-1 $132 reversed single #
loop $-1 $-1 $133 $47 #
plane-surface $-1 0 69.16023005341652663 30.42811925592315703 -0.8290375806290775085 0 0.5591928915004963363 0.5591928915004963363 0 0.8290375806290775085 forward_v I I I I #
coedge $-1 $134 $135 $136 $137 reversed $48 $-1 #
face $-1 $-1 $138 $22 $-1 $139 forward single #
loop $-1 $140 $141 $50 #
cone-surface $-1 9.223948598693780809 65.87655137997360555 38.84023145915976727 0.8290375806290775085 0 -0.5591928915004963363 0.2795964457502481681 0 0.4145187903145387542 1 I I -0.7071067811865474617 0.7071067811865474617 0.5 forward I I I I #
loop $-1 $-1 $142 $30 #
coedge $-1 $86 $86 $143 $144 reversed $51 $-1 #
face $-1 $-1 $145 $23 $-1 $146 forward single #
loop $-1 $147 $148 $53 #
cone-surface $-1 9.223948598693780809 72.44390872685946192 38.84023145915976727 0.8290375806290775085 0 -0.5591928915004963363 0.2795964457502481681 0 0.4145187903145387542 1 I I -0.7071067811865474617 0.7071067811865474617 0.5 forward I I I I #
loop $-1 $-1 $149 $31 #
coedge $-1 $91 $91 $150 $151 reversed $54 $-1 #
face $-1 $152 $153 $16 $-1 $154 reversed single #
loop $-1 $-1 $155 $56 #
plane-surface $-1 74.35895870845668298 0 25.27188024827979262 0 1 0 0 0 1 forward_v I I I I #
coedge $-1 $156 $157 $158 $159 forward $57 $-1 #
coedge $-1 $160 $59 $161 $162 forward $33 $-1 #
coedge $-1 $59 $160 $163 $164 forward $33 $-1 #
coedge $-1 $165 $166 $59 $99 reversed $167 $-1 #
edge $-1 $168 -51.29422441404030764 $169 51.29422441404030764 $98 $170 forward 7 unknown #
face $-1 $171 $172 $17 $-1 $173 reversed single #
loop $-1 $-1 $174 $60 #
plane-surface $-1 74.35895870845668298 51.29422441404030764 0 0 0 1 1 0 0 forward_v I I I I #
coedge $-1 $175 $176 $177 $178 reversed $61 $-1 #
coedge $-1 $179 $63 $176 $180 forward $36 $-1 #
coedge $-1 $63 $179 $181 $182 reversed $36 $-1 #
coedge $-1 $183 $177 $63 $107 forward $172 $-1 #
edge $-1 $184 6.062500203969218404 $185 32.17531620803713821 $106 $186 forward 7 unknown #
face $-1 $187 $188 $18 $-1 $189 reversed single #
loop $-1 $-1 $190 $64 #
plane-surface $-1 104.9901619350034281 26.11281600406791625 247.797101340816198 0 1 0 0.5446390421508873203 0 0.8386705633113421543 forward_v I I I I #
coedge $-1 $191 $192 $193 $194 reversed $65 $-1 #
coedge $-1 $113 $67 $195 $196 reversed $39 $-1 #
coedge $-1 $67 $112 $191 $197 reversed $39 $-1 #
coedge $-1 $193 $198 $67 $115 forward $199 $-1 #
edge $-1 $200 -59.04335709518331043 $201 -46.00134349101675468 $114 $202 forward 7 unknown #
loop $-1 $-1 $121 $68 #
plane-surface $-1 23.99257784238096747 30.36767309870021236 123.0717617662837995 0.5446390421508873203 0 0.8386705633113421543 0.8386705633113421543 0 -0.5446390421508873203 forward_v I I I I #
loop $-1 $-1 $203 $41 #
coedge $-1 $119 $119 $120 $204 reversed $69 $-1 #
coedge $-1 $120 $120 $119 $204 forward $71 $-1 #
coedge $-1 $121 $121 $72 $122 forward $116 $-1 #
edge $-1 $205 0 $205 6.283185307179586232 $121 $206 forward 7 unknown #
loop $-1 $-1 $128 $73 #
plane-surface $-1 23.99257784238096747 30.36767309870021236 123.0717617662837995 0.5446390421508873203 0 0.8386705633113421543 0.8386705633113421543 0 -0.5446390421508873203 forward_v I I I I #
loop $-1 $-1 $207 $44 #
coedge $-1 $126 $126 $127 $208 reversed $74 $-1 #
coedge $-1 $127 $127 $126 $208 forward $76 $-1 #
coedge $-1 $128 $128 $77 $129 forward $123 $-1 #
edge $-1 $209 0 $209 6.283185307179586232 $128 $210 forward 7 unknown #
face $-1 $211 $212 $21 $-1 $213 forward single #
loop $-1 $-1 $214 $78 #
plane-surface $-1 -123.2927424515128081 76.82214695811669003 113.5901215142189642 0 -1 0 0.8290375806290775085 0 -0.5591928915004963363 forward_v I I I I #
coedge $-1 $215 $216 $217 $218 reversed $79 $-1 #
coedge $-1 $135 $81 $219 $220 reversed $48 $-1 #
coedge $-1 $81 $134 $215 $221 reversed $48 $-1 #
coedge $-1 $217 $222 $81 $137 forward $212 $-1 #
edge $-1 $223 24.46689187152806255 $224 38.03506278749870262 $136 $225 forward 7 unknown #
loop $-1 $-1 $143 $82 #
plane-surface $-1 0 69.16023005341652663 30.42811925592315703 -0.8290375806290775085 0 0.5591928915004963363 0.5591928915004963363 0 0.8290375806290775085 forward_v I I I I #
loop $-1 $-1 $226 $50 #
coedge $-1 $141 $141 $142 $227 reversed $83 $-1 #
coedge $-1 $142 $142 $141 $227 forward $85 $-1 #
coedge $-1 $143 $143 $86 $144 forward $138 $-1 #
edge $-1 $228 0 $228 6.283185307179586232 $143 $229 forward 7 unknown #
loop $-1 $-1 $150 $87 #
plane-surface $-1 0 69.16023005341652663 30.42811925592315703 -0.8290375806290775085 0 0.5591928915004963363 0.5591928915004963363 0 0.8290375806290775085 forward_v I I I I #
loop $-1 $-1 $230 $53 #
coedge $-1 $148 $148 $149 $231 reversed $88 $-1 #
coedge $-1 $149 $149 $148 $231 forward $90 $-1 #
coedge $-1 $150 $150 $91 $151 forward $145 $-1 #
edge $-1 $232 0 $232 6.283185307179586232 $150 $233 forward 7 unknown #
face $-1 $234 $235 $16 $-1 $236 reversed single #
loop $-1 $-1 $237 $92 #
plane-surface $-1 0 51.29422441404030764 25.27188024827979262 1 0 0 0 0 -1 forward_v I I I I #
coedge $-1 $238 $163 $239 $240 forward $93 $-1 #
coedge $-1 $241 $95 $238 $242 forward $57 $-1 #
coedge $-1 $95 $241 $243 $244 forward $57 $-1 #
coedge $-1 $166 $165 $95 $159 reversed $167 $-1 #
edge $-1 $245 -51.29422441404030764 $246 51.29422441404030764 $158 $247 forward 7 unknown #
coedge $-1 $97 $96 $248 $249 forward $33 $-1 #
coedge $-1 $250 $251 $96 $162 reversed $235 $-1 #
edge $-1 $169 -74.35895870845668298 $252 74.35895870845668298 $161 $253 forward 7 unknown #
coedge $-1 $155 $254 $97 $164 reversed $93 $-1 #
edge $-1 $255 -74.35895870845668298 $168 74.35895870845668298 $163 $256 forward 7 unknown #
coedge $-1 $158 $98 $254 $257 forward $167 $-1 #
coedge $-1 $98 $158 $250 $258 reversed $167 $-1 #
loop $-1 $-1 $165 $234 #
vertex $-1 $99 $259 #
vertex $-1 $99 $260 #
straight-curve $-1 148.717917416913366 51.29422441404030764 50.54376049655958525 0 1 0 I I #
face $-1 $261 $262 $17 $-1 $263 reversed single #
loop $-1 $-1 $177 $100 #
plane-surface $-1 148.717917416913366 51.29422441404030764 25.27188024827979262 -1 0 0 0 0 1 forward_v I I I I #
coedge $-1 $264 $265 $175 $266 forward $101 $-1 #
coedge $-1 $267 $103 $174 $266 reversed $61 $-1 #
coedge $-1 $103 $267 $104 $180 reversed $61 $-1 #
coedge $-1 $106 $268 $103 $178 forward $172 $-1 #
edge $-1 $269 -16.12693335396872385 $184 -2.162960434653411923 $177 $270 forward 7 unknown #
coedge $-1 $105 $104 $271 $272 reversed $36 $-1 #
edge $-1 $184 -74.35895870845668298 $273 74.35895870845668298 $176 $274 forward 7 unknown #
coedge $-1 $275 $276 $105 $182 forward $262 $-1 #
edge $-1 $185 -74.35895870845668298 $277 74.35895870845668298 $181 $278 forward 7 unknown #
coedge $-1 $268 $106 $276 $279 forward $172 $-1 #
vertex $-1 $107 $280 #
vertex $-1 $279 $281 #
straight-curve $-1 148.717917416913366 32.1753162080371311 13.96397291931531193 0 -1 0 I I #
face $-1 $-1 $199 $18 $-1 $282 forward single #
loop $-1 $-1 $283 $108 #
plane-surface $-1 148.717917416913366 51.29422441404030764 25.27188024827979262 -1 0 0 0 0 1 forward_v I I I I #
coedge $-1 $284 $285 $286 $287 reversed $109 $-1 #
coedge $-1 $288 $111 $113 $197 forward $65 $-1 #
coedge $-1 $111 $288 $284 $289 forward $65 $-1 #
coedge $-1 $286 $114 $111 $194 forward $199 $-1 #
edge $-1 $201 6.208418563037753302 $290 14.71813275230234552 $193 $291 forward 7 unknown #
coedge $-1 $292 $293 $112 $196 forward $188 $-1 #
edge $-1 $294 -94.46031312088663867 $200 -85.99073029798840651 $195 $295 forward 7 unknown #
edge $-1 $201 133.1670990447119038 $294 148.717917416913366 $113 $296 forward 7 unknown #
coedge $-1 $114 $286 $292 $297 forward $199 $-1 #
loop $-1 $-1 $286 $187 #
vertex $-1 $196 $298 #
vertex $-1 $115 $299 #
straight-curve $-1 89.67456032173005553 34.62253019333250847 50.54376049655957814 -1 0 0 I I #
coedge $-1 $203 $203 $-1 $300 reversed $118 $-1 #
edge $-1 $301 0 $301 6.283185307179586232 $119 $302 forward 7 unknown #
vertex $-1 $122 $303 #
ellipse-curve $-1 142.1969106148300739 28.54416291528637117 46.30896908511046917 0.5446390421508873203 0 0.8386705633113421543 0.4193352816556710772 0 -0.2723195210754436602 1 I I #
coedge $-1 $207 $207 $-1 $304 reversed $125 $-1 #
edge $-1 $305 0 $305 6.283185307179586232 $126 $306 forward 7 unknown #
vertex $-1 $129 $307 #
ellipse-curve $-1 142.1969106148300739 32.19118328211405355 46.30896908511046917 0.5446390421508873203 0 0.8386705633113421543 0.4193352816556710772 0 -0.2723195210754436602 1 I I #
face $-1 $-1 $308 $21 $-1 $309 reversed single #
loop $-1 $-1 $136 $130 #
plane-surface $-1 74.35895870845668298 51.29422441404030764 50.54376049655958525 0 0 1 1 0 0 forward_v I I I I #
coedge $-1 $310 $311 $312 $313 reversed $131 $-1 #
coedge $-1 $314 $133 $135 $221 forward $79 $-1 #
coedge $-1 $133 $314 $310 $315 forward $79 $-1 #
coedge $-1 $312 $136 $133 $218 forward $212 $-1 #
edge $-1 $224 1.27108591498794965 $316 16.59491972438827645 $217 $317 forward 7 unknown #
coedge $-1 $318 $319 $134 $220 forward $308 $-1 #
edge $-1 $320 -39.00288162532623204 $223 -18.88724038468980382 $219 $321 forward 7 unknown #
edge $-1 $224 -24.26384727381427808 $320 0 $135 $322 forward 7 unknown #
coedge $-1 $136 $312 $318 $323 forward $212 $-1 #
vertex $-1 $220 $324 #
vertex $-1 $137 $325 #
straight-curve $-1 -24.46689187152806255 61.49831314871636323 50.54376049655958525 1 0 0 I I #
coedge $-1 $226 $226 $-1 $326 reversed $140 $-1 #
edge $-1 $327 0 $327 6.283185307179586232 $141 $328 forward 7 unknown #
vertex $-1 $144 $329 #
ellipse-curve $-1 6.784085457985327139 65.87655137997360555 40.48593987624137469 -0.8290375806290775085 0 0.5591928915004963363 0.5591928915004963363 0 0.8290375806290775085 1 I I #
coedge $-1 $230 $230 $-1 $330 reversed $147 $-1 #
edge $-1 $331 0 $331 6.283185307179586232 $148 $332 forward 7 unknown #
vertex $-1 $151 $333 #
ellipse-curve $-1 6.784085457985327139 72.44390872685946192 40.48593987624137469 -0.8290375806290775085 0 0.5591928915004963363 0.5591928915004963363 0 0.8290375806290775085 1 I I #
face $-1 $-1 $167 $16 $-1 $334 reversed single #
loop $-1 $-1 $250 $152 #
plane-surface $-1 74.35895870845668298 102.5884488280806153 25.27188024827979262 0 -1 0 0 0 -1 forward_v I I I I #
coedge $-1 $335 $248 $251 $336 forward $153 $-1 #
coedge $-1 $254 $155 $156 $242 reversed $93 $-1 #
coedge $-1 $248 $335 $155 $240 reversed $153 $-1 #
edge $-1 $255 -25.27188024827979262 $337 25.27188024827979262 $239 $338 forward 7 unknown #
coedge $-1 $157 $156 $335 $339 forward $57 $-1 #
edge $-1 $246 -74.35895870845668298 $337 74.35895870845668298 $238 $340 forward 7 unknown #
coedge $-1 $251 $250 $157 $244 reversed $235 $-1 #
edge $-1 $341 -74.35895870845668298 $245 74.35895870845668298 $243 $342 forward 7 unknown #
vertex $-1 $159 $343 #
vertex $-1 $257 $344 #
straight-curve $-1 148.717917416913366 51.29422441404030764 0 0 -1 0 I I #
coedge $-1 $237 $239 $160 $249 reversed $153 $-1 #
edge $-1 $252 -51.29422441404030764 $255 51.29422441404030764 $248 $345 forward 7 unknown #
coedge $-1 $243 $161 $166 $258 forward $235 $-1 #
coedge $-1 $161 $243 $237 $336 reversed $235 $-1 #
vertex $-1 $162 $346 #
straight-curve $-1 74.35895870845668298 102.5884488280806153 50.54376049655958525 -1 0 0 I I #
coedge $-1 $163 $238 $165 $257 reversed $93 $-1 #
vertex $-1 $249 $347 #
straight-curve $-1 74.35895870845668298 0 50.54376049655958525 1 0 0 I I #
edge $-1 $168 -25.27188024827979262 $246 25.27188024827979262 $165 $348 forward 7 unknown #
edge $-1 $169 -25.27188024827979262 $245 25.27188024827979262 $166 $349 forward 7 unknown #
point $-1 148.717917416913366 0 50.54376049655958525 #
point $-1 148.717917416913366 102.5884488280806153 50.54376049655958525 #
face $-1 $-1 $350 $17 $-1 $351 reversed single #
loop $-1 $-1 $181 $171 #
plane-surface $-1 74.35895870845668298 0 25.27188024827979262 0 1 0 0 0 1 forward_v I I I I #
coedge $-1 $352 $174 $268 $353 forward $101 $-1 #
coedge $-1 $174 $352 $354 $355 forward $101 $-1 #
edge $-1 $356 -74.35895870845668298 $269 74.35895870845668298 $174 $357 forward 7 unknown #
coedge $-1 $176 $175 $358 $359 reversed $61 $-1 #
coedge $-1 $177 $183 $264 $353 reversed $172 $-1 #
vertex $-1 $353 $360 #
straight-curve $-1 148.717917416913366 26.1128160040679127 16.12693335396872385 0 0 1 I I #
coedge $-1 $358 $361 $179 $272 forward $350 $-1 #
edge $-1 $277 -32.17531620803713821 $273 -6.062500203969218404 $271 $362 forward 7 unknown #
vertex $-1 $272 $363 #
straight-curve $-1 74.35895870845668298 26.1128160040679127 13.96397291931531193 -1 0 0 I I #
coedge $-1 $364 $181 $361 $365 forward $262 $-1 #
coedge $-1 $181 $364 $183 $279 reversed $262 $-1 #
vertex $-1 $365 $366 #
straight-curve $-1 74.35895870845668298 0 13.96397291931531193 -1 0 0 I I #
edge $-1 $185 11.3079073289644807 $367 25.27188024827979262 $183 $368 forward 7 unknown #
point $-1 148.717917416913366 26.1128160040679127 13.96397291931531193 #
point $-1 148.717917416913366 -7.105427357601001859e-15 13.96397291931531193 #
plane-surface $-1 74.35895870845668298 51.29422441404030764 50.54376049655958525 0 0 1 1 0 0 forward_v I I I I #
coedge $-1 $293 $292 $285 $369 forward $188 $-1 #
coedge $-1 $285 $190 $192 $289 reversed $109 $-1 #
coedge $-1 $190 $284 $283 $369 reversed $109 $-1 #
coedge $-1 $198 $193 $190 $287 forward $199 $-1 #
edge $-1 $290 46.00134349101675468 $370 59.04335709518331043 $286 $371 forward 7 unknown #
coedge $-1 $192 $191 $293 $372 reversed $65 $-1 #
edge $-1 $373 -148.717917416913366 $290 -133.1670990447119038 $284 $374 forward 7 unknown #
vertex $-1 $194 $375 #
straight-curve $-1 135.6759038127468102 40.83094875637026178 50.54376049655958525 0 -1 0 I I #
coedge $-1 $283 $195 $198 $297 reversed $188 $-1 #
coedge $-1 $195 $283 $288 $372 forward $188 $-1 #
vertex $-1 $196 $376 #
straight-curve $-1 148.717917416913366 34.62253019333250847 136.5344907945479918 0 0 1 I I #
straight-curve $-1 23.99257784238096747 34.62253019333250847 123.0717617662837995 0.8386705633113421543 0 -0.5446390421508873203 I I #
edge $-1 $370 -25.18140840997239138 $200 -16.67169422070779916 $292 $377 forward 7 unknown #
point $-1 148.717917416913366 34.62253019333250847 50.54376049655958525 #
point $-1 135.6759038127468102 34.62253019333250847 50.54376049655957814 #
edge $-1 $378 1 $378 0 $203 $-1 forward 7 unknown #
vertex $-1 $204 $379 #
ellipse-curve $-1 141.652271572679183 28.54416291528637117 45.47029852179910847 0.5446390421508873203 0 0.8386705633113421543 0.4193352816556710772 0 -0.2723195210754436602 1 I I #
point $-1 142.6162458964857365 28.54416291528637117 46.03664956403500952 #
edge $-1 $380 1 $380 0 $207 $-1 forward 7 unknown #
vertex $-1 $208 $381 #
ellipse-curve $-1 141.652271572679183 32.19118328211405355 45.47029852179910847 0.5446390421508873203 0 0.8386705633113421543 0.4193352816556710772 0 -0.2723195210754436602 1 I I #
point $-1 142.6162458964857365 32.19118328211405355 46.03664956403500952 #
loop $-1 $-1 $219 $211 #
plane-surface $-1 0 51.29422441404030764 25.27188024827979262 1 0 0 0 0 -1 forward_v I I I I #
coedge $-1 $311 $214 $216 $315 reversed $131 $-1 #
coedge $-1 $214 $310 $382 $383 reversed $131 $-1 #
coedge $-1 $222 $217 $214 $313 forward $212 $-1 #
edge $-1 $316 -38.03506278749870262 $384 -24.46689187152806255 $312 $385 forward 7 unknown #
coedge $-1 $216 $215 $319 $386 reversed $79 $-1 #
edge $-1 $387 0 $316 24.26384727381427808 $310 $388 forward 7 unknown #
vertex $-1 $218 $389 #
straight-curve $-1 13.56817091597063296 60.22722723372841358 50.54376049655958525 0 1 0 I I #
coedge $-1 $382 $219 $222 $323 reversed $308 $-1 #
coedge $-1 $219 $382 $314 $386 forward $308 $-1 #
vertex $-1 $220 $390 #
straight-curve $-1 0 61.49831314871636323 69.43100088124938907 0 0 1 I I #
straight-curve $-1 0 61.49831314871636323 30.42811925592315703 -0.5591928915004963363 0 -0.8290375806290775085 I I #
edge $-1 $384 -25.52792254407638239 $223 -10.20408873467605559 $318 $391 forward 7 unknown #
point $-1 0 61.49831314871636323 50.54376049655958525 #
point $-1 13.56817091597064007 61.49831314871636323 50.54376049655958525 #
edge $-1 $392 1 $392 0 $226 $-1 forward 7 unknown #
vertex $-1 $227 $393 #
ellipse-curve $-1 8.809429808379235283 65.87655137997360555 39.11982790491001793 -0.8290375806290775085 0 0.5591928915004963363 0.5591928915004963363 0 0.8290375806290775085 1 I I #
point $-1 7.34327834948581426 65.87655137997360555 41.31497745687045153 #
edge $-1 $394 1 $394 0 $230 $-1 forward 7 unknown #
vertex $-1 $231 $395 #
ellipse-curve $-1 8.809429808379235283 72.44390872685946192 39.11982790491001793 -0.8290375806290775085 0 0.5591928915004963363 0.5591928915004963363 0 0.8290375806290775085 1 I I #
point $-1 7.34327834948581426 72.44390872685946192 41.31497745687045153 #
plane-surface $-1 148.717917416913366 51.29422441404030764 25.27188024827979262 -1 0 0 0 0 1 forward_v I I I I #
coedge $-1 $239 $237 $241 $339 reversed $153 $-1 #
edge $-1 $252 -25.27188024827979262 $341 25.27188024827979262 $251 $396 forward 7 unknown #
vertex $-1 $339 $397 #
straight-curve $-1 0 0 25.27188024827979262 0 0 -1 I I #
edge $-1 $337 -51.29422441404030764 $341 51.29422441404030764 $335 $398 forward 7 unknown #
straight-curve $-1 74.35895870845668298 0 0 -1 0 0 I I #
vertex $-1 $244 $399 #
straight-curve $-1 74.35895870845668298 102.5884488280806153 0 1 0 0 I I #
point $-1 148.717917416913366 102.5884488280806153 0 #
point $-1 148.717917416913366 0 0 #
straight-curve $-1 0 51.29422441404030764 50.54376049655958525 0 -1 0 I I #
point $-1 0 102.5884488280806153 50.54376049655958525 #
point $-1 0 0 50.54376049655958525 #
straight-curve $-1 148.717917416913366 0 25.27188024827979262 0 0 -1 I I #
straight-curve $-1 148.717917416913366 102.5884488280806153 25.27188024827979262 0 0 -1 I I #
loop $-1 $-1 $358 $261 #
plane-surface $-1 0 51.29422441404030764 25.27188024827979262 1 0 0 0 0 -1 forward_v I I I I #
coedge $-1 $265 $264 $364 $400 forward $101 $-1 #
edge $-1 $269 25.18140840997239494 $367 51.29422441404030764 $268 $401 forward 7 unknown #
coedge $-1 $361 $358 $265 $355 reversed $350 $-1 #
edge $-1 $402 -51.29422441404030764 $356 -25.18140840997239494 $354 $403 forward 7 unknown #
vertex $-1 $359 $404 #
straight-curve $-1 74.35895870845668298 26.1128160040679127 0 1 0 0 I I #
coedge $-1 $354 $271 $267 $359 forward $350 $-1 #
edge $-1 $273 2.162960434653411923 $356 16.12693335396872385 $358 $405 forward 7 unknown #
point $-1 148.717917416913366 26.1128160040679127 0 #
coedge $-1 $271 $354 $275 $365 reversed $350 $-1 #
straight-curve $-1 0 32.1753162080371311 13.96397291931531193 0 1 0 I I #
point $-1 0 26.1128160040679127 13.96397291931531193 #
coedge $-1 $276 $275 $352 $400 reversed $262 $-1 #
edge $-1 $277 11.3079073289644807 $402 25.27188024827979262 $361 $406 forward 7 unknown #
point $-1 0 -7.105427357601001859e-15 13.96397291931531193 #
vertex $-1 $279 $407 #
straight-curve $-1 148.717917416913366 0 25.27188024827979262 0 0 -1 I I #
edge $-1 $370 85.99073029798840651 $373 94.46031312088663867 $283 $408 forward 7 unknown #
vertex $-1 $297 $409 #
straight-curve $-1 89.67456032173005553 26.11281600406791625 50.54376049655957814 1 0 0 I I #
edge $-1 $373 -14.71813275230234552 $294 -6.208418563037753302 $293 $410 forward 7 unknown #
vertex $-1 $372 $411 #
straight-curve $-1 23.99257784238096747 26.11281600406791625 123.0717617662837995 -0.8386705633113421543 0 0.5446390421508873203 I I #
point $-1 135.6759038127468102 26.11281600406791625 50.54376049655957814 #
point $-1 148.717917416913366 34.62253019333250847 42.07417767366134598 #
straight-curve $-1 148.717917416913366 51.29422441404030764 50.54376049655958525 0 1 0 I I #
vertex $-1 $300 $412 #
point $-1 142.0716068543348456 28.54416291528637117 45.19797900072367014 #
vertex $-1 $304 $413 #
point $-1 142.0716068543348456 32.19118328211405355 45.19797900072367014 #
coedge $-1 $319 $318 $311 $383 forward $308 $-1 #
edge $-1 $384 18.88724038468980382 $387 39.00288162532623204 $382 $414 forward 7 unknown #
vertex $-1 $323 $415 #
straight-curve $-1 -24.46689187152806255 76.82214695811669003 50.54376049655958525 -1 0 0 I I #
edge $-1 $387 -16.59491972438827645 $320 -1.27108591498794965 $319 $416 forward 7 unknown #
vertex $-1 $386 $417 #
straight-curve $-1 0 76.82214695811669003 30.42811925592315703 0.5591928915004963363 0 0.8290375806290775085 I I #
point $-1 13.56817091597064007 76.82214695811669003 50.54376049655958525 #
point $-1 0 61.49831314871636323 30.42811925592315703 #
straight-curve $-1 0 51.29422441404030764 50.54376049655958525 0 -1 0 I I #
vertex $-1 $326 $418 #
point $-1 9.368622699879736615 65.87655137997360555 39.94886548553909478 #
vertex $-1 $330 $419 #
point $-1 9.368622699879736615 72.44390872685946192 39.94886548553909478 #
straight-curve $-1 0 102.5884488280806153 25.27188024827979262 0 0 -1 I I #
point $-1 0 0 0 #
straight-curve $-1 0 51.29422441404030764 0 0 1 0 I I #
point $-1 0 102.5884488280806153 0 #
edge $-1 $367 -74.35895870845668298 $402 74.35895870845668298 $364 $420 forward 7 unknown #
straight-curve $-1 148.717917416913366 51.29422441404030764 0 0 -1 0 I I #
vertex $-1 $355 $421 #
straight-curve $-1 0 51.29422441404030764 0 0 1 0 I I #
point $-1 0 26.1128160040679127 0 #
straight-curve $-1 0 26.1128160040679127 16.12693335396872385 0 0 -1 I I #
straight-curve $-1 0 0 25.27188024827979262 0 0 -1 I I #
point $-1 148.717917416913366 0 0 #
straight-curve $-1 148.717917416913366 26.11281600406791625 136.5344907945479918 0 0 -1 I I #
point $-1 148.717917416913366 26.11281600406791625 50.54376049655958525 #
straight-curve $-1 148.717917416913366 40.83094875637026178 42.07417767366135308 0 1 0 I I #
point $-1 148.717917416913366 26.11281600406791625 42.07417767366134598 #
point $-1 141.3799520516037092 28.54416291528637117 45.05096324014344589 #
point $-1 141.3799520516037092 32.19118328211405355 45.05096324014344589 #
straight-curve $-1 0 76.82214695811669003 69.43100088124938907 0 0 -1 I I #
point $-1 0 76.82214695811669003 50.54376049655958525 #
straight-curve $-1 0 60.22722723372841358 30.42811925592316058 0 -1 0 I I #
point $-1 0 76.82214695811669003 30.42811925592315703 #
point $-1 9.638467389008326336 65.87655137997360555 38.5606350134095166 #
point $-1 9.638467389008326336 72.44390872685946192 38.5606350134095166 #
straight-curve $-1 74.35895870845668298 0 0 -1 0 0 I I #
point $-1 0 0 0 #
End-of-ACIS-data 