600 0 13 0           
94 GICL ACIS Healer - Source: /gicl/data5/repository/Drexel/SM99-DATA/part88.smdg.delta.sat - 6 0 18 ACIS 6.0.3 Solaris 24 Sat Apr 13 20:46:26 2002 
1 9.999999999999999547e-07 1.000000000000000036e-10 
body $-1 $13 $-1 $-1 #
body $-1 $14 $-1 $-1 #
body $-1 $15 $-1 $-1 #
body $-1 $16 $-1 $-1 #
body $-1 $17 $-1 $-1 #
body $-1 $18 $-1 $-1 #
body $-1 $19 $-1 $-1 #
body $-1 $20 $-1 $-1 #
body $-1 $21 $-1 $-1 #
body $-1 $22 $-1 $-1 #
body $-1 $23 $-1 $-1 #
body $-1 $24 $-1 $-1 #
body $-1 $25 $-1 $-1 #
lump $-1 $-1 $26 $0 #
lump $-1 $-1 $27 $1 #
lump $-1 $-1 $28 $2 #
lump $-1 $-1 $29 $3 #
lump $-1 $-1 $30 $4 #
lump $-1 $-1 $31 $5 #
lump $-1 $-1 $32 $6 #
lump $-1 $-1 $33 $7 #
lump $-1 $-1 $34 $8 #
lump $-1 $-1 $35 $9 #
lump $-1 $-1 $36 $10 #
lump $-1 $-1 $37 $11 #
lump $-1 $-1 $38 $12 #
shell $-1 $-1 $-1 $39 $-1 $13 #
shell $-1 $-1 $-1 $40 $-1 $14 #
shell $-1 $-1 $-1 $41 $-1 $15 #
shell $-1 $-1 $-1 $42 $-1 $16 #
shell $-1 $-1 $-1 $43 $-1 $17 #
shell $-1 $-1 $-1 $44 $-1 $18 #
shell $-1 $-1 $-1 $45 $-1 $19 #
shell $-1 $-1 $-1 $46 $-1 $20 #
shell $-1 $-1 $-1 $47 $-1 $21 #
shell $-1 $-1 $-1 $48 $-1 $22 #
shell $-1 $-1 $-1 $49 $-1 $23 #
shell $-1 $-1 $-1 $50 $-1 $24 #
shell $-1 $-1 $-1 $51 $-1 $25 #
face $-1 $52 $53 $26 $-1 $54 forward single #
face $-1 $55 $56 $27 $-1 $57 reversed single #
face $-1 $58 $59 $28 $-1 $60 reversed single #
face $-1 $61 $62 $29 $-1 $63 forward single #
face $-1 $64 $65 $30 $-1 $66 forward single #
face $-1 $67 $68 $31 $-1 $69 forward single #
face $-1 $70 $71 $32 $-1 $72 reversed single #
face $-1 $73 $74 $33 $-1 $75 forward single #
face $-1 $76 $77 $34 $-1 $78 forward single #
face $-1 $79 $80 $35 $-1 $81 forward single #
face $-1 $82 $83 $36 $-1 $84 reversed single #
face $-1 $85 $86 $37 $-1 $87 forward single #
face $-1 $88 $89 $38 $-1 $90 forward single #
face $-1 $91 $92 $26 $-1 $93 reversed single #
loop $-1 $-1 $94 $39 #
plane-surface $-1 45.32242805261390828 21.96312663844251034 20.25833168338972357 0 0 1 1 0 0 forward_v I I I I #
face $-1 $95 $96 $27 $-1 $97 reversed single #
loop $-1 $-1 $98 $40 #
plane-surface $-1 0.5 4.211460288119607043 10.12916584169486178 1 0 0 0 0 -1 forward_v I I I I #
face $-1 $99 $100 $28 $-1 $101 reversed single #
loop $-1 $-1 $102 $41 #
plane-surface $-1 70.59133785347960099 16.87606243592790634 137.735971366330574 0 -1 0 -0.5877852598018022956 0 -0.8090169889191003438 forward_v I I I I #
face $-1 $103 $104 $29 $-1 $105 forward single #
loop $-1 $106 $107 $42 #
cone-surface $-1 83.96589851742552923 11.7645979511715062 15.15096503680929985 -0.5877852598018022956 0 -0.8090169889191003438 0.4045084944595501719 0 -0.2938926299009011478 1 I I 0 1 0.5 forward I I I I #
face $-1 $108 $109 $30 $-1 $110 forward single #
loop $-1 $111 $112 $43 #
cone-surface $-1 83.96589851742552923 13.68139713295515669 15.15096503680929985 -0.5877852598018022956 0 -0.8090169889191003438 0.4045084944595501719 0 -0.2938926299009011478 1 I I 0 1 0.5 forward I I I I #
face $-1 $113 $114 $31 $-1 $115 forward single #
loop $-1 $116 $117 $44 #
cone-surface $-1 83.96589851742552923 15.59819631473880719 15.15096503680929985 -0.5877852598018022956 0 -0.8090169889191003438 0.4045084944595501719 0 -0.2938926299009011478 1 I I 0 1 0.5 forward I I I I #
face $-1 $118 $119 $32 $-1 $120 reversed single #
loop $-1 $-1 $121 $45 #
plane-surface $-1 70.59133785347960099 41.86244202314182417 137.735971366330574 0 -1 0 -0.5877852598018022956 0 -0.8090169889191003438 forward_v I I I I #
face $-1 $122 $123 $33 $-1 $124 forward single #
loop $-1 $125 $126 $46 #
cone-surface $-1 83.96589851742552923 36.75097753838542758 15.15096503680929985 -0.5877852598018022956 0 -0.8090169889191003438 0.4045084944595501719 0 -0.2938926299009011478 1 I I 0 1 0.5 forward I I I I #
face $-1 $127 $128 $34 $-1 $129 forward single #
loop $-1 $130 $131 $47 #
cone-surface $-1 83.96589851742552923 38.66777672016907985 15.15096503680929985 -0.5877852598018022956 0 -0.8090169889191003438 0.4045084944595501719 0 -0.2938926299009011478 1 I I 0 1 0.5 forward I I I I #
face $-1 $132 $133 $35 $-1 $134 forward single #
loop $-1 $135 $136 $48 #
cone-surface $-1 83.96589851742552923 40.58457590195273212 15.15096503680929985 -0.5877852598018022956 0 -0.8090169889191003438 0.4045084944595501719 0 -0.2938926299009011478 1 I I 0 1 0.5 forward I I I I #
face $-1 $137 $138 $36 $-1 $139 reversed single #
loop $-1 $-1 $140 $49 #
plane-surface $-1 -7.105427357601001859e-15 12.49699252557043039 15.10459125347739295 -0.8480481040810504689 0 0.529919251551154491 0.529919251551154491 0 0.8480481040810504689 forward_v I I I I #
face $-1 $141 $142 $37 $-1 $143 forward single #
loop $-1 $144 $145 $50 #
cone-surface $-1 2.034231219632431475 10.75096169014276626 17.41650184265797918 0.8480481040810504689 0 -0.529919251551154491 0.2649596257755772455 0 0.4240240520405252345 1 I I 0 1 0.5 forward I I I I #
face $-1 $146 $147 $38 $-1 $148 forward single #
loop $-1 $149 $150 $51 #
cone-surface $-1 2.034231219632431475 14.24302336099809629 17.41650184265797918 0.8480481040810504689 0 -0.529919251551154491 0.2649596257755772455 0 0.4240240520405252345 1 I I 0 1 0.5 forward I I I I #
face $-1 $151 $152 $26 $-1 $153 reversed single #
loop $-1 $-1 $154 $52 #
plane-surface $-1 45.32242805261390828 21.96312663844251034 0 0 0 1 1 0 0 forward_v I I I I #
coedge $-1 $155 $156 $157 $158 forward $53 $-1 #
face $-1 $159 $160 $27 $-1 $161 reversed single #
loop $-1 $-1 $162 $55 #
plane-surface $-1 3.385360913412753803 8.422920576239214085 10.12916584169486178 0 -1 0 0 0 -1 forward_v I I I I #
coedge $-1 $163 $164 $165 $166 forward $56 $-1 #
face $-1 $167 $168 $28 $-1 $169 reversed single #
loop $-1 $-1 $170 $58 #
plane-surface $-1 17.31162755797128483 13.68139713295515492 64.4027428190740352 0.5877852598018022956 0 0.8090169889191003438 0.8090169889191003438 0 -0.5877852598018022956 forward_v I I I I #
coedge $-1 $171 $172 $173 $174 reversed $59 $-1 #
face $-1 $-1 $175 $29 $-1 $176 forward single #
loop $-1 $177 $178 $61 #
cone-surface $-1 83.42682479279605445 11.7645979511715062 14.4089937229110987 -0.5877852598018022956 0 -0.8090169889191003438 0.202254247229775086 0 -0.1469463149504505739 1 I I -0.7071067811865474617 0.7071067811865474617 0.25 forward I I I I #
loop $-1 $-1 $179 $42 #
coedge $-1 $107 $107 $180 $181 reversed $62 $-1 #
face $-1 $-1 $182 $30 $-1 $183 forward single #
loop $-1 $184 $185 $64 #
cone-surface $-1 83.42682479279605445 13.68139713295515669 14.4089937229110987 -0.5877852598018022956 0 -0.8090169889191003438 0.202254247229775086 0 -0.1469463149504505739 1 I I -0.7071067811865474617 0.7071067811865474617 0.25 forward I I I I #
loop $-1 $-1 $186 $43 #
coedge $-1 $112 $112 $187 $188 reversed $65 $-1 #
face $-1 $-1 $189 $31 $-1 $190 forward single #
loop $-1 $191 $192 $67 #
cone-surface $-1 83.42682479279605445 15.59819631473880719 14.4089937229110987 -0.5877852598018022956 0 -0.8090169889191003438 0.202254247229775086 0 -0.1469463149504505739 1 I I -0.7071067811865474617 0.7071067811865474617 0.25 forward I I I I #
loop $-1 $-1 $193 $44 #
coedge $-1 $117 $117 $194 $195 reversed $68 $-1 #
face $-1 $196 $197 $32 $-1 $198 reversed single #
loop $-1 $-1 $199 $70 #
plane-surface $-1 17.31162755797128483 38.66777672016907275 64.4027428190740352 0.5877852598018022956 0 0.8090169889191003438 0.8090169889191003438 0 -0.5877852598018022956 forward_v I I I I #
coedge $-1 $200 $201 $202 $203 reversed $71 $-1 #
face $-1 $-1 $204 $33 $-1 $205 forward single #
loop $-1 $206 $207 $73 #
cone-surface $-1 83.42682479279605445 36.75097753838542758 14.4089937229110987 -0.5877852598018022956 0 -0.8090169889191003438 0.202254247229775086 0 -0.1469463149504505739 1 I I -0.7071067811865474617 0.7071067811865474617 0.25 forward I I I I #
loop $-1 $-1 $208 $46 #
coedge $-1 $126 $126 $209 $210 reversed $74 $-1 #
face $-1 $-1 $211 $34 $-1 $212 forward single #
loop $-1 $213 $214 $76 #
cone-surface $-1 83.42682479279605445 38.66777672016907985 14.4089937229110987 -0.5877852598018022956 0 -0.8090169889191003438 0.202254247229775086 0 -0.1469463149504505739 1 I I -0.7071067811865474617 0.7071067811865474617 0.25 forward I I I I #
loop $-1 $-1 $215 $47 #
coedge $-1 $131 $131 $216 $217 reversed $77 $-1 #
face $-1 $-1 $218 $35 $-1 $219 forward single #
loop $-1 $220 $221 $79 #
cone-surface $-1 83.42682479279605445 40.58457590195273212 14.4089937229110987 -0.5877852598018022956 0 -0.8090169889191003438 0.202254247229775086 0 -0.1469463149504505739 1 I I -0.7071067811865474617 0.7071067811865474617 0.25 forward I I I I #
loop $-1 $-1 $222 $48 #
coedge $-1 $136 $136 $223 $224 reversed $80 $-1 #
face $-1 $225 $226 $36 $-1 $227 forward single #
loop $-1 $-1 $228 $82 #
plane-surface $-1 -76.87119836473809187 16.57106447490165024 63.13904555772181482 0 -1 0 0.8480481040810504689 0 -0.529919251551154491 forward_v I I I I #
coedge $-1 $229 $230 $231 $232 reversed $83 $-1 #
face $-1 $-1 $233 $37 $-1 $234 forward single #
loop $-1 $235 $236 $85 #
cone-surface $-1 2.670267297693222019 10.75096169014276626 17.01906240399461367 0.8480481040810504689 0 -0.529919251551154491 0.1324798128877886227 0 0.2120120260202626172 1 I I -0.7071067811865474617 0.7071067811865474617 0.25 forward I I I I #
loop $-1 $-1 $237 $50 #
coedge $-1 $145 $145 $238 $239 reversed $86 $-1 #
face $-1 $-1 $240 $38 $-1 $241 forward single #
loop $-1 $242 $243 $88 #
cone-surface $-1 2.670267297693222019 14.24302336099809629 17.01906240399461367 0.8480481040810504689 0 -0.529919251551154491 0.1324798128877886227 0 0.2120120260202626172 1 I I -0.7071067811865474617 0.7071067811865474617 0.25 forward I I I I #
loop $-1 $-1 $244 $51 #
coedge $-1 $150 $150 $245 $246 reversed $89 $-1 #
face $-1 $247 $248 $26 $-1 $249 reversed single #
loop $-1 $-1 $250 $91 #
plane-surface $-1 45.32242805261390828 0 10.12916584169486178 0 1 0 0 0 1 forward_v I I I I #
coedge $-1 $251 $252 $253 $254 forward $92 $-1 #
coedge $-1 $255 $94 $256 $257 forward $53 $-1 #
coedge $-1 $94 $255 $258 $259 forward $53 $-1 #
coedge $-1 $260 $261 $94 $158 reversed $262 $-1 #
edge $-1 $263 -21.96312663844251034 $264 21.96312663844251034 $157 $265 forward 7 unknown #
face $-1 $266 $267 $27 $-1 $268 forward single #
loop $-1 $-1 $269 $95 #
plane-surface $-1 6.270721826825507605 4.211460288119607043 10.12916584169486178 -1 0 0 0 0 1 forward_v I I I I #
coedge $-1 $270 $271 $272 $273 forward $96 $-1 #
coedge $-1 $274 $98 $275 $276 reversed $56 $-1 #
coedge $-1 $98 $274 $277 $278 reversed $56 $-1 #
coedge $-1 $271 $270 $98 $166 reversed $96 $-1 #
edge $-1 $279 -10.12916584169486178 $280 10.12916584169486178 $165 $281 forward 7 unknown #
face $-1 $282 $283 $28 $-1 $284 reversed single #
loop $-1 $-1 $285 $99 #
plane-surface $-1 70.59133785347960099 10.4867318299824035 137.735971366330574 0 1 0 0.5877852598018022956 0 0.8090169889191003438 forward_v I I I I #
coedge $-1 $286 $287 $288 $289 reversed $100 $-1 #
coedge $-1 $172 $102 $290 $291 reversed $59 $-1 #
coedge $-1 $102 $171 $286 $292 reversed $59 $-1 #
coedge $-1 $288 $293 $102 $174 forward $294 $-1 #
edge $-1 $295 -32.68797315218105837 $296 -20.11431279593450938 $173 $297 forward 7 unknown #
loop $-1 $-1 $180 $103 #
plane-surface $-1 17.31162755797128483 13.68139713295515492 64.4027428190740352 0.5877852598018022956 0 0.8090169889191003438 0.8090169889191003438 0 -0.5877852598018022956 forward_v I I I I #
loop $-1 $-1 $298 $61 #
coedge $-1 $178 $178 $179 $299 reversed $104 $-1 #
coedge $-1 $179 $179 $178 $299 forward $106 $-1 #
coedge $-1 $180 $180 $107 $181 forward $175 $-1 #
edge $-1 $300 0 $300 6.283185307179586232 $180 $301 forward 7 unknown #
loop $-1 $-1 $187 $108 #
plane-surface $-1 17.31162755797128483 13.68139713295515492 64.4027428190740352 0.5877852598018022956 0 0.8090169889191003438 0.8090169889191003438 0 -0.5877852598018022956 forward_v I I I I #
loop $-1 $-1 $302 $64 #
coedge $-1 $185 $185 $186 $303 reversed $109 $-1 #
coedge $-1 $186 $186 $185 $303 forward $111 $-1 #
coedge $-1 $187 $187 $112 $188 forward $182 $-1 #
edge $-1 $304 0 $304 6.283185307179586232 $187 $305 forward 7 unknown #
loop $-1 $-1 $194 $113 #
plane-surface $-1 17.31162755797128483 13.68139713295515492 64.4027428190740352 0.5877852598018022956 0 0.8090169889191003438 0.8090169889191003438 0 -0.5877852598018022956 forward_v I I I I #
loop $-1 $-1 $306 $67 #
coedge $-1 $192 $192 $193 $307 reversed $114 $-1 #
coedge $-1 $193 $193 $192 $307 forward $116 $-1 #
coedge $-1 $194 $194 $117 $195 forward $189 $-1 #
edge $-1 $308 0 $308 6.283185307179586232 $194 $309 forward 7 unknown #
face $-1 $310 $311 $32 $-1 $312 reversed single #
loop $-1 $-1 $313 $118 #
plane-surface $-1 70.59133785347960099 35.47311141719632133 137.735971366330574 0 1 0 0.5877852598018022956 0 0.8090169889191003438 forward_v I I I I #
coedge $-1 $314 $315 $316 $317 reversed $119 $-1 #
coedge $-1 $201 $121 $318 $319 reversed $71 $-1 #
coedge $-1 $121 $200 $314 $320 reversed $71 $-1 #
coedge $-1 $316 $321 $121 $203 forward $322 $-1 #
edge $-1 $323 -32.68797315218105837 $324 -20.11431279593450938 $202 $325 forward 7 unknown #
loop $-1 $-1 $209 $122 #
plane-surface $-1 17.31162755797128483 38.66777672016907275 64.4027428190740352 0.5877852598018022956 0 0.8090169889191003438 0.8090169889191003438 0 -0.5877852598018022956 forward_v I I I I #
loop $-1 $-1 $326 $73 #
coedge $-1 $207 $207 $208 $327 reversed $123 $-1 #
coedge $-1 $208 $208 $207 $327 forward $125 $-1 #
coedge $-1 $209 $209 $126 $210 forward $204 $-1 #
edge $-1 $328 0 $328 6.283185307179586232 $209 $329 forward 7 unknown #
loop $-1 $-1 $216 $127 #
plane-surface $-1 17.31162755797128483 38.66777672016907275 64.4027428190740352 0.5877852598018022956 0 0.8090169889191003438 0.8090169889191003438 0 -0.5877852598018022956 forward_v I I I I #
loop $-1 $-1 $330 $76 #
coedge $-1 $214 $214 $215 $331 reversed $128 $-1 #
coedge $-1 $215 $215 $214 $331 forward $130 $-1 #
coedge $-1 $216 $216 $131 $217 forward $211 $-1 #
edge $-1 $332 0 $332 6.283185307179586232 $216 $333 forward 7 unknown #
loop $-1 $-1 $223 $132 #
plane-surface $-1 17.31162755797128483 38.66777672016907275 64.4027428190740352 0.5877852598018022956 0 0.8090169889191003438 0.8090169889191003438 0 -0.5877852598018022956 forward_v I I I I #
loop $-1 $-1 $334 $79 #
coedge $-1 $221 $221 $222 $335 reversed $133 $-1 #
coedge $-1 $222 $222 $221 $335 forward $135 $-1 #
coedge $-1 $223 $223 $136 $224 forward $218 $-1 #
edge $-1 $336 0 $336 6.283185307179586232 $223 $337 forward 7 unknown #
face $-1 $338 $339 $36 $-1 $340 forward single #
loop $-1 $-1 $341 $137 #
plane-surface $-1 45.32242805261390828 21.96312663844251034 20.25833168338972357 0 0 1 1 0 0 forward_v I I I I #
coedge $-1 $342 $343 $344 $345 reversed $138 $-1 #
coedge $-1 $346 $140 $347 $348 reversed $83 $-1 #
coedge $-1 $140 $346 $342 $349 forward $83 $-1 #
coedge $-1 $344 $341 $140 $232 forward $226 $-1 #
edge $-1 $350 -8.807139005767258055 $351 -0.6589951071048183451 $231 $352 forward 7 unknown #
loop $-1 $-1 $238 $141 #
plane-surface $-1 -7.105427357601001859e-15 12.49699252557043039 15.10459125347739295 -0.8480481040810504689 0 0.529919251551154491 0.529919251551154491 0 0.8480481040810504689 forward_v I I I I #
loop $-1 $-1 $353 $85 #
coedge $-1 $236 $236 $237 $354 reversed $142 $-1 #
coedge $-1 $237 $237 $236 $354 forward $144 $-1 #
coedge $-1 $238 $238 $145 $239 forward $233 $-1 #
edge $-1 $355 0 $355 6.283185307179586232 $238 $356 forward 7 unknown #
loop $-1 $-1 $245 $146 #
plane-surface $-1 -7.105427357601001859e-15 12.49699252557043039 15.10459125347739295 -0.8480481040810504689 0 0.529919251551154491 0.529919251551154491 0 0.8480481040810504689 forward_v I I I I #
loop $-1 $-1 $357 $88 #
coedge $-1 $243 $243 $244 $358 reversed $147 $-1 #
coedge $-1 $244 $244 $243 $358 forward $149 $-1 #
coedge $-1 $245 $245 $150 $246 forward $240 $-1 #
edge $-1 $359 0 $359 6.283185307179586232 $245 $360 forward 7 unknown #
face $-1 $361 $362 $26 $-1 $363 reversed single #
loop $-1 $-1 $364 $151 #
plane-surface $-1 0 21.96312663844251034 10.12916584169486178 1 0 0 0 0 -1 forward_v I I I I #
coedge $-1 $365 $258 $366 $367 forward $152 $-1 #
coedge $-1 $368 $154 $365 $369 forward $92 $-1 #
coedge $-1 $154 $368 $370 $371 forward $92 $-1 #
coedge $-1 $261 $260 $154 $254 reversed $262 $-1 #
edge $-1 $372 -21.96312663844251034 $373 21.96312663844251034 $253 $374 forward 7 unknown #
coedge $-1 $156 $155 $375 $376 forward $53 $-1 #
coedge $-1 $377 $378 $155 $257 reversed $362 $-1 #
edge $-1 $264 -45.32242805261390828 $379 45.32242805261390828 $256 $380 forward 7 unknown #
coedge $-1 $250 $381 $156 $259 reversed $152 $-1 #
edge $-1 $382 -45.32242805261390828 $263 45.32242805261390828 $258 $383 forward 7 unknown #
coedge $-1 $253 $157 $381 $384 forward $262 $-1 #
coedge $-1 $157 $253 $377 $385 reversed $262 $-1 #
loop $-1 $-1 $260 $361 #
vertex $-1 $158 $386 #
vertex $-1 $158 $387 #
straight-curve $-1 90.64485610522781656 21.96312663844251034 20.25833168338972357 0 1 0 I I #
face $-1 $388 $389 $27 $-1 $390 reversed single #
loop $-1 $-1 $391 $159 #
plane-surface $-1 45.32242805261390828 21.96312663844251034 20.25833168338972357 0 0 1 1 0 0 forward_v I I I I #
coedge $-1 $392 $393 $394 $395 reversed $160 $-1 #
coedge $-1 $165 $162 $396 $397 reversed $96 $-1 #
coedge $-1 $162 $165 $398 $399 reversed $96 $-1 #
coedge $-1 $393 $392 $162 $273 reversed $160 $-1 #
edge $-1 $400 -10.12916584169486178 $401 10.12916584169486178 $272 $402 forward 7 unknown #
coedge $-1 $164 $163 $403 $404 reversed $56 $-1 #
coedge $-1 $396 $405 $163 $276 forward $389 $-1 #
edge $-1 $406 -13.08729346328105869 $280 -4.664372887041844606 $275 $407 forward 7 unknown #
coedge $-1 $408 $398 $164 $278 forward $267 $-1 #
edge $-1 $279 4.664372887041844606 $409 13.08729346328105869 $277 $410 forward 7 unknown #
vertex $-1 $278 $411 #
vertex $-1 $276 $412 #
straight-curve $-1 0.5 8.422920576239214085 10.12916584169486178 0 0 -1 I I #
face $-1 $-1 $294 $28 $-1 $413 forward single #
loop $-1 $-1 $414 $167 #
plane-surface $-1 90.64485610522781656 21.96312663844251034 10.12916584169486178 -1 0 0 0 0 1 forward_v I I I I #
coedge $-1 $415 $416 $417 $418 reversed $168 $-1 #
coedge $-1 $419 $170 $172 $292 forward $100 $-1 #
coedge $-1 $170 $419 $415 $420 forward $100 $-1 #
coedge $-1 $417 $173 $170 $289 forward $294 $-1 #
edge $-1 $296 0.946199449770926293 $421 7.335530055716429132 $288 $422 forward 7 unknown #
coedge $-1 $423 $424 $171 $291 forward $283 $-1 #
edge $-1 $425 -62.8095360804469891 $295 -53.67423692062298812 $290 $426 forward 7 unknown #
edge $-1 $296 75.10295707410142541 $425 90.64485610522780235 $172 $427 forward 7 unknown #
coedge $-1 $173 $417 $423 $428 forward $294 $-1 #
loop $-1 $-1 $417 $282 #
vertex $-1 $291 $429 #
vertex $-1 $174 $430 #
straight-curve $-1 57.95688295304675819 16.87606243592790634 20.25833168338972712 -1 0 0 I I #
coedge $-1 $298 $298 $-1 $431 reversed $177 $-1 #
edge $-1 $432 0 $432 6.283185307179586232 $178 $433 forward 7 unknown #
vertex $-1 $181 $434 #
ellipse-curve $-1 84.35802592710453496 11.7645979511715062 15.69068210347772663 0.5877852598018022956 0 0.8090169889191003438 0.4045084944595501719 0 -0.2938926299009011478 1 I I #
coedge $-1 $302 $302 $-1 $435 reversed $184 $-1 #
edge $-1 $436 0 $436 6.283185307179586232 $185 $437 forward 7 unknown #
vertex $-1 $188 $438 #
ellipse-curve $-1 84.35802592710453496 13.68139713295515669 15.69068210347772663 0.5877852598018022956 0 0.8090169889191003438 0.4045084944595501719 0 -0.2938926299009011478 1 I I #
coedge $-1 $306 $306 $-1 $439 reversed $191 $-1 #
edge $-1 $440 0 $440 6.283185307179586232 $192 $441 forward 7 unknown #
vertex $-1 $195 $442 #
ellipse-curve $-1 84.35802592710453496 15.59819631473880719 15.69068210347772663 0.5877852598018022956 0 0.8090169889191003438 0.4045084944595501719 0 -0.2938926299009011478 1 I I #
face $-1 $-1 $322 $32 $-1 $443 forward single #
loop $-1 $-1 $444 $196 #
plane-surface $-1 90.64485610522781656 21.96312663844251034 10.12916584169486178 -1 0 0 0 0 1 forward_v I I I I #
coedge $-1 $445 $446 $447 $448 reversed $197 $-1 #
coedge $-1 $449 $199 $201 $320 forward $119 $-1 #
coedge $-1 $199 $449 $445 $450 forward $119 $-1 #
coedge $-1 $447 $202 $199 $317 forward $322 $-1 #
edge $-1 $324 -11.54699034383603262 $451 -5.157659737890529783 $316 $452 forward 7 unknown #
coedge $-1 $453 $454 $200 $319 forward $311 $-1 #
edge $-1 $455 -62.8095360804469891 $323 -53.67423692062298812 $318 $456 forward 7 unknown #
edge $-1 $324 75.10295707410142541 $455 90.64485610522780235 $201 $457 forward 7 unknown #
coedge $-1 $202 $447 $453 $458 forward $322 $-1 #
loop $-1 $-1 $447 $310 #
vertex $-1 $319 $459 #
vertex $-1 $203 $460 #
straight-curve $-1 57.95688295304675819 41.86244202314182417 20.25833168338972712 -1 0 0 I I #
coedge $-1 $326 $326 $-1 $461 reversed $206 $-1 #
edge $-1 $462 0 $462 6.283185307179586232 $207 $463 forward 7 unknown #
vertex $-1 $210 $464 #
ellipse-curve $-1 84.35802592710453496 36.75097753838542758 15.69068210347772663 0.5877852598018022956 0 0.8090169889191003438 0.4045084944595501719 0 -0.2938926299009011478 1 I I #
coedge $-1 $330 $330 $-1 $465 reversed $213 $-1 #
edge $-1 $466 0 $466 6.283185307179586232 $214 $467 forward 7 unknown #
vertex $-1 $217 $468 #
ellipse-curve $-1 84.35802592710453496 38.66777672016907985 15.69068210347772663 0.5877852598018022956 0 0.8090169889191003438 0.4045084944595501719 0 -0.2938926299009011478 1 I I #
coedge $-1 $334 $334 $-1 $469 reversed $220 $-1 #
edge $-1 $470 0 $470 6.283185307179586232 $221 $471 forward 7 unknown #
vertex $-1 $224 $472 #
ellipse-curve $-1 84.35802592710453496 40.58457590195273212 15.69068210347772663 0.5877852598018022956 0 0.8090169889191003438 0.4045084944595501719 0 -0.2938926299009011478 1 I I #
face $-1 $-1 $473 $36 $-1 $474 reversed single #
loop $-1 $-1 $347 $225 #
plane-surface $-1 3.385360913412753803 8.422920576239214085 10.12916584169486178 0 -1 0 0 0 -1 forward_v I I I I #
coedge $-1 $231 $475 $476 $477 forward $226 $-1 #
coedge $-1 $343 $228 $230 $349 reversed $138 $-1 #
coedge $-1 $228 $342 $478 $479 reversed $138 $-1 #
coedge $-1 $475 $231 $228 $345 forward $226 $-1 #
edge $-1 $351 -18.9947994912458924 $480 -15.77438515606208824 $344 $481 forward 7 unknown #
coedge $-1 $230 $229 $482 $483 reversed $83 $-1 #
coedge $-1 $476 $484 $229 $348 forward $339 $-1 #
edge $-1 $485 1.212716082996330824 $350 7.289895437694541513 $347 $486 forward 7 unknown #
edge $-1 $487 1.431035509606454667e-14 $351 6.07717935469822379 $342 $488 forward 7 unknown #
vertex $-1 $232 $489 #
vertex $-1 $232 $490 #
straight-curve $-1 3.220414335183804155 17.23005958200646859 20.25833168338972712 0 1 0 I I #
coedge $-1 $353 $353 $-1 $491 reversed $235 $-1 #
edge $-1 $492 0 $492 6.283185307179586232 $236 $493 forward 7 unknown #
vertex $-1 $239 $494 #
ellipse-curve $-1 1.610207167591902078 10.75096169014276626 17.68146146843356092 -0.8480481040810504689 0 0.529919251551154491 0.2649596257755772455 0 0.4240240520405252345 1 I I #
coedge $-1 $357 $357 $-1 $495 reversed $242 $-1 #
edge $-1 $496 0 $496 6.283185307179586232 $243 $497 forward 7 unknown #
vertex $-1 $246 $498 #
ellipse-curve $-1 1.610207167591902078 14.24302336099809629 17.68146146843356092 -0.8480481040810504689 0 0.529919251551154491 0.2649596257755772455 0 0.4240240520405252345 1 I I #
face $-1 $-1 $262 $26 $-1 $499 reversed single #
loop $-1 $-1 $377 $247 #
plane-surface $-1 45.32242805261390828 43.92625327688502068 10.12916584169486178 0 -1 0 0 0 -1 forward_v I I I I #
coedge $-1 $500 $375 $378 $501 forward $248 $-1 #
coedge $-1 $381 $250 $251 $369 reversed $152 $-1 #
coedge $-1 $375 $500 $250 $367 reversed $248 $-1 #
edge $-1 $382 -10.12916584169486178 $502 10.12916584169486178 $366 $503 forward 7 unknown #
coedge $-1 $252 $251 $500 $504 forward $92 $-1 #
edge $-1 $373 -45.32242805261390828 $502 45.32242805261390828 $365 $505 forward 7 unknown #
coedge $-1 $378 $377 $252 $371 reversed $362 $-1 #
edge $-1 $506 -45.32242805261390828 $372 45.32242805261390828 $370 $507 forward 7 unknown #
vertex $-1 $254 $508 #
vertex $-1 $384 $509 #
straight-curve $-1 90.64485610522781656 21.96312663844251034 0 0 -1 0 I I #
coedge $-1 $364 $366 $255 $376 reversed $248 $-1 #
edge $-1 $379 -21.96312663844251034 $382 21.96312663844251034 $375 $510 forward 7 unknown #
coedge $-1 $370 $256 $261 $385 forward $362 $-1 #
coedge $-1 $256 $370 $364 $501 reversed $362 $-1 #
vertex $-1 $257 $511 #
straight-curve $-1 45.32242805261390828 43.92625327688502068 20.25833168338972357 -1 0 0 I I #
coedge $-1 $258 $365 $260 $384 reversed $152 $-1 #
vertex $-1 $376 $512 #
straight-curve $-1 45.32242805261390828 0 20.25833168338972357 1 0 0 I I #
edge $-1 $263 -10.12916584169486178 $373 10.12916584169486178 $260 $513 forward 7 unknown #
edge $-1 $264 -10.12916584169486178 $372 10.12916584169486178 $261 $514 forward 7 unknown #
point $-1 90.64485610522781656 0 20.25833168338972357 #
point $-1 90.64485610522781656 43.92625327688502068 20.25833168338972357 #
face $-1 $-1 $515 $27 $-1 $516 reversed single #
loop $-1 $-1 $517 $266 #
plane-surface $-1 45.32242805261390828 21.96312663844251034 0 0 0 1 1 0 0 forward_v I I I I #
coedge $-1 $398 $408 $393 $518 forward $267 $-1 #
coedge $-1 $272 $269 $517 $519 reversed $160 $-1 #
coedge $-1 $269 $272 $391 $518 reversed $160 $-1 #
coedge $-1 $520 $521 $269 $395 forward $515 $-1 #
edge $-1 $522 -10.12916584169486178 $523 10.12916584169486178 $394 $524 forward 7 unknown #
coedge $-1 $517 $275 $270 $397 forward $389 $-1 #
edge $-1 $280 -23.85389448301333104 $401 -18.08317265618782343 $396 $525 forward 7 unknown #
coedge $-1 $277 $391 $271 $399 forward $267 $-1 #
edge $-1 $400 18.08317265618782343 $279 23.85389448301333104 $398 $526 forward 7 unknown #
vertex $-1 $399 $527 #
vertex $-1 $397 $528 #
straight-curve $-1 6.270721826825507605 8.422920576239214085 10.12916584169486178 0 0 -1 I I #
coedge $-1 $521 $520 $274 $404 forward $515 $-1 #
edge $-1 $409 -10.12916584169486178 $406 10.12916584169486178 $403 $529 forward 7 unknown #
coedge $-1 $275 $517 $521 $530 forward $389 $-1 #
vertex $-1 $276 $531 #
straight-curve $-1 0.5 13.08729346328105869 0 0 1 0 I I #
coedge $-1 $391 $277 $520 $532 forward $267 $-1 #
vertex $-1 $532 $533 #
straight-curve $-1 0.5 13.08729346328105869 20.25833168338972357 0 -1 0 I I #
point $-1 0.5 8.422920576239214085 20.25833168338972357 #
point $-1 0.5 8.422920576239214085 0 #
plane-surface $-1 45.32242805261390828 21.96312663844251034 20.25833168338972357 0 0 1 1 0 0 forward_v I I I I #
coedge $-1 $424 $423 $416 $534 forward $283 $-1 #
coedge $-1 $416 $285 $287 $420 reversed $168 $-1 #
coedge $-1 $285 $415 $414 $534 reversed $168 $-1 #
coedge $-1 $293 $288 $285 $418 forward $294 $-1 #
edge $-1 $421 20.11431279593450938 $535 32.68797315218105837 $417 $536 forward 7 unknown #
coedge $-1 $287 $286 $424 $537 reversed $100 $-1 #
edge $-1 $538 -90.64485610522780235 $421 -75.10295707410142541 $415 $539 forward 7 unknown #
vertex $-1 $289 $540 #
straight-curve $-1 78.07119574898126757 17.82226188569883263 20.25833168338972712 0 -1 0 I I #
coedge $-1 $414 $290 $293 $428 reversed $283 $-1 #
coedge $-1 $290 $414 $419 $537 forward $283 $-1 #
vertex $-1 $291 $541 #
straight-curve $-1 90.64485610522781656 16.87606243592790634 73.93256860401271524 0 0 1 I I #
straight-curve $-1 17.31162755797128483 16.87606243592790634 64.4027428190740352 0.8090169889191003438 0 -0.5877852598018022956 I I #
edge $-1 $535 -11.47639480846010684 $295 -5.087064202514604006 $423 $542 forward 7 unknown #
point $-1 90.64485610522781656 16.87606243592790634 20.25833168338972357 #
point $-1 78.07119574898126757 16.87606243592790634 20.25833168338972712 #
edge $-1 $543 1 $543 0 $298 $-1 forward 7 unknown #
vertex $-1 $299 $544 #
ellipse-curve $-1 83.57377110774649509 11.7645979511715062 14.61124797014087306 0.5877852598018022956 0 0.8090169889191003438 0.4045084944595501719 0 -0.2938926299009011478 1 I I #
point $-1 84.7625344215640979 11.7645979511715062 15.39678947357682404 #
edge $-1 $545 1 $545 0 $302 $-1 forward 7 unknown #
vertex $-1 $303 $546 #
ellipse-curve $-1 83.57377110774649509 13.68139713295515669 14.61124797014087306 0.5877852598018022956 0 0.8090169889191003438 0.4045084944595501719 0 -0.2938926299009011478 1 I I #
point $-1 84.7625344215640979 13.68139713295515669 15.39678947357682404 #
edge $-1 $547 1 $547 0 $306 $-1 forward 7 unknown #
vertex $-1 $307 $548 #
ellipse-curve $-1 83.57377110774649509 15.59819631473880719 14.61124797014087306 0.5877852598018022956 0 0.8090169889191003438 0.4045084944595501719 0 -0.2938926299009011478 1 I I #
point $-1 84.7625344215640979 15.59819631473880719 15.39678947357682404 #
plane-surface $-1 45.32242805261390828 21.96312663844251034 20.25833168338972357 0 0 1 1 0 0 forward_v I I I I #
coedge $-1 $454 $453 $446 $549 forward $311 $-1 #
coedge $-1 $446 $313 $315 $450 reversed $197 $-1 #
coedge $-1 $313 $445 $444 $549 reversed $197 $-1 #
coedge $-1 $321 $316 $313 $448 forward $322 $-1 #
edge $-1 $451 20.11431279593450938 $550 32.68797315218105837 $447 $551 forward 7 unknown #
coedge $-1 $315 $314 $454 $552 reversed $119 $-1 #
edge $-1 $553 -90.64485610522780235 $451 -75.10295707410142541 $445 $554 forward 7 unknown #
vertex $-1 $317 $555 #
straight-curve $-1 78.07119574898126757 30.31545167930579154 20.25833168338972712 0 -1 0 I I #
coedge $-1 $444 $318 $321 $458 reversed $311 $-1 #
coedge $-1 $318 $444 $449 $552 forward $311 $-1 #
vertex $-1 $319 $556 #
straight-curve $-1 90.64485610522781656 41.86244202314182417 73.93256860401271524 0 0 1 I I #
straight-curve $-1 17.31162755797128483 41.86244202314182417 64.4027428190740352 0.8090169889191003438 0 -0.5877852598018022956 I I #
edge $-1 $550 13.50998477875381099 $323 19.89931538469931382 $453 $557 forward 7 unknown #
point $-1 90.64485610522781656 41.86244202314182417 20.25833168338972357 #
point $-1 78.07119574898126757 41.86244202314182417 20.25833168338972712 #
edge $-1 $558 1 $558 0 $326 $-1 forward 7 unknown #
vertex $-1 $327 $559 #
ellipse-curve $-1 83.57377110774649509 36.75097753838542758 14.61124797014087306 0.5877852598018022956 0 0.8090169889191003438 0.4045084944595501719 0 -0.2938926299009011478 1 I I #
point $-1 84.7625344215640979 36.75097753838542758 15.39678947357682404 #
edge $-1 $560 1 $560 0 $330 $-1 forward 7 unknown #
vertex $-1 $331 $561 #
ellipse-curve $-1 83.57377110774649509 38.66777672016907985 14.61124797014087306 0.5877852598018022956 0 0.8090169889191003438 0.4045084944595501719 0 -0.2938926299009011478 1 I I #
point $-1 84.7625344215640979 38.66777672016907985 15.39678947357682404 #
edge $-1 $562 1 $562 0 $334 $-1 forward 7 unknown #
vertex $-1 $335 $563 #
ellipse-curve $-1 83.57377110774649509 40.58457590195273212 14.61124797014087306 0.5877852598018022956 0 0.8090169889191003438 0.4045084944595501719 0 -0.2938926299009011478 1 I I #
point $-1 84.7625344215640979 40.58457590195273212 15.39678947357682404 #
loop $-1 $-1 $564 $338 #
plane-surface $-1 0 21.96312663844251034 10.12916584169486178 1 0 0 0 0 -1 forward_v I I I I #
coedge $-1 $341 $344 $565 $566 forward $226 $-1 #
coedge $-1 $484 $347 $341 $477 reversed $339 $-1 #
edge $-1 $567 15.77438515606208824 $350 18.9947994912458924 $341 $568 forward 7 unknown #
coedge $-1 $482 $565 $343 $479 forward $473 $-1 #
edge $-1 $480 16.37577401631861207 $487 21.52951444623093025 $478 $569 forward 7 unknown #
vertex $-1 $566 $570 #
straight-curve $-1 -15.77438515606208824 16.57106447490165024 20.25833168338972712 -1 0 0 I I #
coedge $-1 $564 $478 $346 $483 forward $473 $-1 #
edge $-1 $487 0.6589951071048183451 $485 8.807139005767258055 $482 $571 forward 7 unknown #
coedge $-1 $347 $476 $564 $572 reversed $339 $-1 #
vertex $-1 $572 $573 #
straight-curve $-1 -0.6426415990454614757 8.422920576239214085 14.07614967850376786 0.529919251551154491 0 0.8480481040810504689 I I #
vertex $-1 $483 $574 #
straight-curve $-1 -7.105427357601001859e-15 16.57106447490165024 15.10459125347739295 0.529919251551154491 0 0.8480481040810504689 I I #
point $-1 3.220414335183804155 8.422920576239210533 20.25833168338972357 #
point $-1 3.220414335183804155 16.57106447490165024 20.25833168338972357 #
edge $-1 $575 1 $575 0 $353 $-1 forward 7 unknown #
vertex $-1 $354 $576 #
ellipse-curve $-1 2.458255271672960873 10.75096169014276626 17.15154221688240099 -0.8480481040810504689 0 0.529919251551154491 0.2649596257755772455 0 0.4240240520405252345 1 I I #
point $-1 1.87516679336748382 10.75096169014276626 18.10548552047408322 #
edge $-1 $577 1 $577 0 $357 $-1 forward 7 unknown #
vertex $-1 $358 $578 #
ellipse-curve $-1 2.458255271672960873 14.24302336099809629 17.15154221688240099 -0.8480481040810504689 0 0.529919251551154491 0.2649596257755772455 0 0.4240240520405252345 1 I I #
point $-1 1.87516679336748382 14.24302336099809629 18.10548552047408322 #
plane-surface $-1 90.64485610522781656 21.96312663844251034 10.12916584169486178 -1 0 0 0 0 1 forward_v I I I I #
coedge $-1 $366 $364 $368 $504 reversed $248 $-1 #
edge $-1 $379 -10.12916584169486178 $506 10.12916584169486178 $378 $579 forward 7 unknown #
vertex $-1 $504 $580 #
straight-curve $-1 0 0 10.12916584169486178 0 0 -1 I I #
edge $-1 $502 -21.96312663844251034 $506 21.96312663844251034 $500 $581 forward 7 unknown #
straight-curve $-1 45.32242805261390828 0 0 -1 0 0 I I #
vertex $-1 $371 $582 #
straight-curve $-1 45.32242805261390828 43.92625327688502068 0 1 0 0 I I #
point $-1 90.64485610522781656 43.92625327688502068 0 #
point $-1 90.64485610522781656 0 0 #
straight-curve $-1 0 21.96312663844251034 20.25833168338972357 0 -1 0 I I #
point $-1 0 43.92625327688502068 20.25833168338972357 #
point $-1 0 0 20.25833168338972357 #
straight-curve $-1 90.64485610522781656 0 10.12916584169486178 0 0 -1 I I #
straight-curve $-1 90.64485610522781656 43.92625327688502068 10.12916584169486178 0 0 -1 I I #
loop $-1 $-1 $394 $388 #
plane-surface $-1 45.32242805261390828 0 10.12916584169486178 0 1 0 0 0 1 forward_v I I I I #
coedge $-1 $405 $396 $392 $519 forward $389 $-1 #
edge $-1 $523 -13.08729346328105869 $400 -4.664372887041844606 $391 $583 forward 7 unknown #
edge $-1 $401 4.664372887041844606 $522 13.08729346328105869 $517 $584 forward 7 unknown #
coedge $-1 $403 $394 $408 $532 reversed $515 $-1 #
coedge $-1 $394 $403 $405 $530 reversed $515 $-1 #
vertex $-1 $530 $585 #
vertex $-1 $395 $586 #
straight-curve $-1 6.270721826825507605 0 10.12916584169486178 0 0 1 I I #
straight-curve $-1 24.35389448301333104 8.422920576239214085 0 1 0 0 I I #
straight-curve $-1 24.35389448301333104 8.422920576239214085 20.25833168338972357 -1 0 0 I I #
point $-1 6.270721826825507605 8.422920576239214085 20.25833168338972357 #
point $-1 6.270721826825507605 8.422920576239214085 0 #
straight-curve $-1 0.5 0 10.12916584169486178 0 0 -1 I I #
edge $-1 $522 39.05170622578840067 $406 44.82242805261390828 $521 $587 forward 7 unknown #
point $-1 0.5 0 0 #
edge $-1 $409 -44.82242805261390828 $523 -39.05170622578840067 $520 $588 forward 7 unknown #
point $-1 0.5 0 20.25833168338972357 #
edge $-1 $535 53.67423692062298812 $538 62.8095360804469891 $414 $589 forward 7 unknown #
vertex $-1 $428 $590 #
straight-curve $-1 57.95688295304675819 10.4867318299824035 20.25833168338972712 1 0 0 I I #
edge $-1 $538 -7.335530055716429132 $425 -0.946199449770926293 $424 $591 forward 7 unknown #
vertex $-1 $537 $592 #
straight-curve $-1 17.31162755797128483 10.4867318299824035 64.4027428190740352 -0.8090169889191003438 0 0.5877852598018022956 I I #
point $-1 78.07119574898126757 10.4867318299824035 20.25833168338972712 #
point $-1 90.64485610522783077 16.87606243592790634 11.12303252356572436 #
straight-curve $-1 90.64485610522781656 21.96312663844251034 20.25833168338972357 0 1 0 I I #
vertex $-1 $431 $593 #
point $-1 83.97827960220605803 11.7645979511715062 14.31735534023997225 #
vertex $-1 $435 $594 #
point $-1 83.97827960220605803 13.68139713295515669 14.31735534023997225 #
vertex $-1 $439 $595 #
point $-1 83.97827960220605803 15.59819631473880719 14.31735534023997225 #
edge $-1 $550 53.67423692062298812 $553 62.8095360804469891 $444 $596 forward 7 unknown #
vertex $-1 $458 $597 #
straight-curve $-1 57.95688295304675819 35.47311141719632133 20.25833168338972712 1 0 0 I I #
edge $-1 $553 5.157659737890529783 $455 11.54699034383603262 $454 $598 forward 7 unknown #
vertex $-1 $552 $599 #
straight-curve $-1 17.31162755797128483 35.47311141719632133 64.4027428190740352 -0.8090169889191003438 0 0.5877852598018022956 I I #
point $-1 78.07119574898126757 35.47311141719632133 20.25833168338972712 #
point $-1 90.64485610522783077 41.86244202314182417 11.12303252356572436 #
straight-curve $-1 90.64485610522781656 21.96312663844251034 20.25833168338972357 0 1 0 I I #
vertex $-1 $461 $600 #
point $-1 83.97827960220605803 36.75097753838542758 14.31735534023997225 #
vertex $-1 $465 $601 #
point $-1 83.97827960220605803 38.66777672016907985 14.31735534023997225 #
vertex $-1 $469 $602 #
point $-1 83.97827960220605803 40.58457590195273212 14.31735534023997225 #
coedge $-1 $565 $482 $484 $572 forward $473 $-1 #
coedge $-1 $478 $564 $475 $566 reversed $473 $-1 #
edge $-1 $480 5.392062163540860098 $567 13.54020606220329981 $565 $603 forward 7 unknown #
vertex $-1 $477 $604 #
straight-curve $-1 -15.77438515606208824 8.422920576239210533 20.25833168338972712 1 0 0 I I #
straight-curve $-1 0 16.57106447490165024 36.63410569970833564 0 0 -1 I I #
point $-1 0 16.57106447490165024 20.25833168338972357 #
straight-curve $-1 0 17.23005958200646859 15.10459125347740539 0 -1 0 I I #
edge $-1 $485 -21.52951444623093025 $567 -16.37577401631861207 $564 $605 forward 7 unknown #
point $-1 0 8.422920576239210533 15.10459125347740539 #
point $-1 0 16.57106447490165024 15.10459125347740539 #
vertex $-1 $491 $606 #
point $-1 2.72321489744853551 10.75096169014276626 17.57556626892292684 #
vertex $-1 $495 $607 #
point $-1 2.72321489744853551 14.24302336099809629 17.57556626892292684 #
straight-curve $-1 0 43.92625327688502068 10.12916584169486178 0 0 -1 I I #
point $-1 0 0 0 #
straight-curve $-1 0 21.96312663844251034 0 0 1 0 I I #
point $-1 0 43.92625327688502068 0 #
straight-curve $-1 6.270721826825507605 13.08729346328105869 20.25833168338972357 0 1 0 I I #
straight-curve $-1 6.270721826825507605 13.08729346328105869 0 0 -1 0 I I #
point $-1 6.270721826825507605 0 0 #
point $-1 6.270721826825507605 0 20.25833168338972357 #
straight-curve $-1 45.32242805261390828 0 0 -1 0 0 I I #
straight-curve $-1 45.32242805261390828 0 20.25833168338972357 1 0 0 I I #
straight-curve $-1 90.64485610522781656 10.4867318299824035 73.93256860401271524 0 0 -1 I I #
point $-1 90.64485610522781656 10.4867318299824035 20.25833168338972357 #
straight-curve $-1 90.64485610522781656 17.82226188569883263 11.12303252356572436 0 1 0 I I #
point $-1 90.64485610522783077 10.4867318299824035 11.12303252356572436 #
point $-1 83.27987847784561382 11.7645979511715062 14.20673947568132434 #
point $-1 83.27987847784561382 13.68139713295515669 14.20673947568132434 #
point $-1 83.27987847784561382 15.59819631473880719 14.20673947568132434 #
straight-curve $-1 90.64485610522781656 35.47311141719632133 73.93256860401271524 0 0 -1 I I #
point $-1 90.64485610522781656 35.47311141719632133 20.25833168338972357 #
straight-curve $-1 90.64485610522781656 30.31545167930579154 11.12303252356572436 0 1 0 I I #
point $-1 90.64485610522783077 35.47311141719632133 11.12303252356572436 #
point $-1 83.27987847784561382 36.75097753838542758 14.20673947568132434 #
point $-1 83.27987847784561382 38.66777672016907985 14.20673947568132434 #
point $-1 83.27987847784561382 40.58457590195273212 14.20673947568132434 #
straight-curve $-1 0 21.96312663844251034 20.25833168338972357 0 -1 0 I I #
point $-1 0 8.422920576239210533 20.25833168338972357 #
straight-curve $-1 0 8.422920576239210533 36.63410569970833564 0 0 1 I I #
point $-1 2.882279323713483166 10.75096169014276626 16.88658259110682636 #
point $-1 2.882279323713483166 14.24302336099809629 16.88658259110682636 #
End-of-ACIS-data 