600 0 11 0           
94 GICL ACIS Healer - Source: /gicl/data5/repository/Drexel/SM99-DATA/part115.smdg.feat.sat - 6 0 18 ACIS 6.0.3 Solaris 24 Sat Apr 13 20:44:30 2002 
1 9.999999999999999547e-07 1.000000000000000036e-10 
body $-1 $11 $-1 $-1 #
body $-1 $12 $-1 $-1 #
body $-1 $13 $-1 $-1 #
body $-1 $14 $-1 $-1 #
body $-1 $15 $-1 $-1 #
body $-1 $16 $-1 $-1 #
body $-1 $17 $-1 $-1 #
body $-1 $18 $-1 $-1 #
body $-1 $19 $-1 $-1 #
body $-1 $20 $-1 $-1 #
body $-1 $21 $-1 $-1 #
lump $-1 $-1 $22 $0 #
lump $-1 $-1 $23 $1 #
lump $-1 $-1 $24 $2 #
lump $-1 $-1 $25 $3 #
lump $-1 $-1 $26 $4 #
lump $-1 $-1 $27 $5 #
lump $-1 $-1 $28 $6 #
lump $-1 $-1 $29 $7 #
lump $-1 $-1 $30 $8 #
lump $-1 $-1 $31 $9 #
lump $-1 $-1 $32 $10 #
shell $-1 $-1 $-1 $33 $-1 $11 #
shell $-1 $-1 $-1 $34 $-1 $12 #
shell $-1 $-1 $-1 $35 $-1 $13 #
shell $-1 $-1 $-1 $36 $-1 $14 #
shell $-1 $-1 $-1 $37 $-1 $15 #
shell $-1 $-1 $-1 $38 $-1 $16 #
shell $-1 $-1 $-1 $39 $-1 $17 #
shell $-1 $-1 $-1 $40 $-1 $18 #
shell $-1 $-1 $-1 $41 $-1 $19 #
shell $-1 $-1 $-1 $42 $-1 $20 #
shell $-1 $-1 $-1 $43 $-1 $21 #
face $-1 $44 $45 $22 $-1 $46 forward single #
face $-1 $47 $48 $23 $-1 $49 forward single #
face $-1 $50 $51 $24 $-1 $52 forward single #
face $-1 $53 $54 $25 $-1 $55 forward single #
face $-1 $56 $57 $26 $-1 $58 forward single #
face $-1 $59 $60 $27 $-1 $61 forward single #
face $-1 $62 $63 $28 $-1 $64 forward single #
face $-1 $65 $66 $29 $-1 $67 forward single #
face $-1 $68 $69 $30 $-1 $70 forward single #
face $-1 $71 $72 $31 $-1 $73 forward single #
face $-1 $74 $75 $32 $-1 $76 forward single #
face $-1 $77 $78 $22 $-1 $79 reversed single #
loop $-1 $-1 $80 $33 #
plane-surface $-1 43.17758720664082972 22.05948161718228917 18.71006504130395598 0 0 1 1 0 0 forward_v I I I I #
face $-1 $81 $82 $23 $-1 $83 reversed single #
loop $-1 $-1 $84 $34 #
plane-surface $-1 178.2999189319075413 5.260448931686510399 181.086174953740084 0.8191520524228198541 0 0.5735764247347356903 0.5735764247347356903 0 -0.8191520524228198541 forward_v I I I I #
face $-1 $85 $86 $24 $-1 $87 forward single #
loop $-1 $88 $89 $35 #
cone-surface $-1 82.30364724593017911 5.260448931686510399 13.98098824503842152 -0.8191520524228198541 0 -0.5735764247347356903 0.8603646371021035355 0 -1.228728078634229837 1 I I 0 1 1.5 forward I I I I #
face $-1 $90 $91 $25 $-1 $92 reversed single #
loop $-1 $-1 $93 $36 #
plane-surface $-1 -119.9746908867039394 5.496246460109571963 134.11107092631147 -0.6946583786197038091 0 0.7193397924579483238 0.7193397924579483238 0 0.6946583786197038091 forward_v I I I I #
face $-1 $94 $95 $26 $-1 $96 forward single #
loop $-1 $97 $98 $37 #
cone-surface $-1 5.355385421729403461 5.496246460109571075 13.483939365194475 0.6946583786197038091 0 -0.7193397924579483238 1.079009688686922486 0 1.041987567929555603 1 I I 0 1 1.5 forward I I I I #
face $-1 $99 $100 $27 $-1 $101 reversed single #
loop $-1 $-1 $102 $38 #
plane-surface $-1 -119.9746908867039394 16.52598726870071744 134.11107092631147 -0.6946583786197038091 0 0.7193397924579483238 0.7193397924579483238 0 0.6946583786197038091 forward_v I I I I #
face $-1 $103 $104 $28 $-1 $105 forward single #
loop $-1 $106 $107 $39 #
cone-surface $-1 5.355385421729403461 16.52598726870071744 13.483939365194475 0.6946583786197038091 0 -0.7193397924579483238 1.079009688686922486 0 1.041987567929555603 1 I I 0 1 1.5 forward I I I I #
face $-1 $108 $109 $29 $-1 $110 reversed single #
loop $-1 $-1 $111 $40 #
plane-surface $-1 -119.9746908867039394 27.55572807729186025 134.11107092631147 -0.6946583786197038091 0 0.7193397924579483238 0.7193397924579483238 0 0.6946583786197038091 forward_v I I I I #
face $-1 $112 $113 $30 $-1 $114 forward single #
loop $-1 $115 $116 $41 #
cone-surface $-1 5.355385421729403461 27.55572807729186025 13.483939365194475 0.6946583786197038091 0 -0.7193397924579483238 1.079009688686922486 0 1.041987567929555603 1 I I 0 1 1.5 forward I I I I #
face $-1 $117 $118 $31 $-1 $119 reversed single #
loop $-1 $-1 $120 $42 #
plane-surface $-1 -119.9746908867039394 38.58546888588300305 134.11107092631147 -0.6946583786197038091 0 0.7193397924579483238 0.7193397924579483238 0 0.6946583786197038091 forward_v I I I I #
face $-1 $121 $122 $32 $-1 $123 forward single #
loop $-1 $124 $125 $43 #
cone-surface $-1 5.355385421729403461 38.58546888588300305 13.483939365194475 0.6946583786197038091 0 -0.7193397924579483238 1.079009688686922486 0 1.041987567929555603 1 I I 0 1 1.5 forward I I I I #
face $-1 $126 $127 $22 $-1 $128 reversed single #
loop $-1 $-1 $129 $44 #
plane-surface $-1 43.17758720664082972 22.05948161718228917 0 0 0 1 1 0 0 forward_v I I I I #
coedge $-1 $130 $131 $132 $133 forward $45 $-1 #
face $-1 $134 $135 $23 $-1 $136 reversed single #
loop $-1 $-1 $137 $47 #
plane-surface $-1 36.82388221596704625 5.260448931686510399 82.02359055911082919 0.8191520524228198541 0 0.5735764247347356903 0.5735764247347356903 0 -0.8191520524228198541 forward_v I I I I #
coedge $-1 $138 $139 $140 $141 forward $48 $-1 #
face $-1 $-1 $142 $24 $-1 $143 forward single #
loop $-1 $-1 $144 $50 #
plane-surface $-1 83.75583156470177926 5.260448931686510399 14.99781862122226705 0.8191520524228198541 0 0.5735764247347356903 -0.5735764247347356903 0 0.8191520524228198541 forward_v I I I I #
loop $-1 $-1 $145 $35 #
coedge $-1 $89 $89 $144 $146 reversed $51 $-1 #
face $-1 $147 $148 $25 $-1 $149 reversed single #
loop $-1 $-1 $150 $53 #
plane-surface $-1 0 5.496246460109571963 9.873644446071551783 -0.6946583786197038091 0 0.7193397924579483238 0.7193397924579483238 0 0.6946583786197038091 forward_v I I I I #
coedge $-1 $151 $152 $153 $154 forward $54 $-1 #
face $-1 $-1 $155 $26 $-1 $156 forward single #
loop $-1 $-1 $157 $56 #
plane-surface $-1 4.57519059201146483 5.496246460109571075 14.29185474368775566 -0.6946583786197038091 0 0.7193397924579483238 -0.7193397924579483238 0 -0.6946583786197038091 forward_v I I I I #
loop $-1 $-1 $158 $37 #
coedge $-1 $98 $98 $157 $159 reversed $57 $-1 #
face $-1 $160 $161 $27 $-1 $162 reversed single #
loop $-1 $-1 $163 $59 #
plane-surface $-1 0 16.52598726870071744 9.873644446071551783 -0.6946583786197038091 0 0.7193397924579483238 0.7193397924579483238 0 0.6946583786197038091 forward_v I I I I #
coedge $-1 $164 $165 $166 $167 forward $60 $-1 #
face $-1 $-1 $168 $28 $-1 $169 forward single #
loop $-1 $-1 $170 $62 #
plane-surface $-1 4.57519059201146483 16.52598726870071744 14.29185474368775566 -0.6946583786197038091 0 0.7193397924579483238 -0.7193397924579483238 0 -0.6946583786197038091 forward_v I I I I #
loop $-1 $-1 $171 $39 #
coedge $-1 $107 $107 $170 $172 reversed $63 $-1 #
face $-1 $173 $174 $29 $-1 $175 reversed single #
loop $-1 $-1 $176 $65 #
plane-surface $-1 0 27.55572807729186025 9.873644446071551783 -0.6946583786197038091 0 0.7193397924579483238 0.7193397924579483238 0 0.6946583786197038091 forward_v I I I I #
coedge $-1 $177 $178 $179 $180 forward $66 $-1 #
face $-1 $-1 $181 $30 $-1 $182 forward single #
loop $-1 $-1 $183 $68 #
plane-surface $-1 4.57519059201146483 27.55572807729186025 14.29185474368775566 -0.6946583786197038091 0 0.7193397924579483238 -0.7193397924579483238 0 -0.6946583786197038091 forward_v I I I I #
loop $-1 $-1 $184 $41 #
coedge $-1 $116 $116 $183 $185 reversed $69 $-1 #
face $-1 $186 $187 $31 $-1 $188 reversed single #
loop $-1 $-1 $189 $71 #
plane-surface $-1 0 38.58546888588300305 9.873644446071551783 -0.6946583786197038091 0 0.7193397924579483238 0.7193397924579483238 0 0.6946583786197038091 forward_v I I I I #
coedge $-1 $190 $191 $192 $193 forward $72 $-1 #
face $-1 $-1 $194 $32 $-1 $195 forward single #
loop $-1 $-1 $196 $74 #
plane-surface $-1 4.57519059201146483 38.58546888588300305 14.29185474368775566 -0.6946583786197038091 0 0.7193397924579483238 -0.7193397924579483238 0 -0.6946583786197038091 forward_v I I I I #
loop $-1 $-1 $197 $43 #
coedge $-1 $125 $125 $196 $198 reversed $75 $-1 #
face $-1 $199 $200 $22 $-1 $201 reversed single #
loop $-1 $-1 $202 $77 #
plane-surface $-1 43.17758720664082972 0 9.35503252065197799 0 1 0 0 0 1 forward_v I I I I #
coedge $-1 $203 $204 $205 $206 forward $78 $-1 #
coedge $-1 $207 $80 $208 $209 forward $45 $-1 #
coedge $-1 $80 $207 $210 $211 forward $45 $-1 #
coedge $-1 $212 $213 $80 $133 reversed $214 $-1 #
edge $-1 $215 -22.05948161718228917 $216 22.05948161718228917 $132 $217 forward 7 unknown #
face $-1 $218 $219 $23 $-1 $220 reversed single #
loop $-1 $-1 $221 $81 #
plane-surface $-1 107.5619005739372938 0 131.5548827564254566 0 1 0 0.8191520524228198541 0 0.5735764247347356903 forward_v I I I I #
coedge $-1 $222 $223 $224 $225 forward $82 $-1 #
coedge $-1 $226 $84 $227 $228 forward $48 $-1 #
coedge $-1 $84 $226 $229 $230 forward $48 $-1 #
coedge $-1 $231 $232 $84 $141 reversed $233 $-1 #
edge $-1 $234 -5.260448931686510399 $235 5.260448931686510399 $140 $236 forward 7 unknown #
loop $-1 $237 $238 $85 #
cone-surface $-1 80.23709888784145505 5.260448931686510399 12.53397555030352351 -0.8191520524228198541 0 -0.5735764247347356903 0.4301823185510517678 0 -0.6143640393171149183 1 I I -0.7071067811865475727 0.7071067811865475727 0.75 forward I I I I #
coedge $-1 $144 $144 $89 $146 forward $86 $-1 #
coedge $-1 $145 $145 $238 $239 forward $88 $-1 #
edge $-1 $240 0 $240 6.283185307179586232 $144 $241 forward 7 unknown #
face $-1 $242 $243 $25 $-1 $244 reversed single #
loop $-1 $-1 $245 $90 #
plane-surface $-1 -59.98734544335196972 2.009078211115769008 71.99235768619151088 0 1 0 -0.6946583786197038091 0 0.7193397924579483238 forward_v I I I I #
coedge $-1 $246 $247 $248 $249 forward $91 $-1 #
coedge $-1 $250 $93 $251 $252 forward $54 $-1 #
coedge $-1 $93 $250 $253 $254 forward $54 $-1 #
coedge $-1 $255 $256 $93 $154 reversed $257 $-1 #
edge $-1 $258 -3.487168248993802955 $259 3.487168248993802955 $153 $260 forward 7 unknown #
loop $-1 $261 $262 $94 #
cone-surface $-1 6.65657403541211945 5.496246460109571075 12.13651914235773432 0.6946583786197038091 0 -0.7193397924579483238 0.5395048443434612429 0 0.5209937839647778013 1 I I -0.7071067811865475727 0.7071067811865475727 0.75 forward I I I I #
coedge $-1 $157 $157 $98 $159 forward $95 $-1 #
coedge $-1 $158 $158 $262 $263 forward $97 $-1 #
edge $-1 $264 0 $264 6.283185307179586232 $157 $265 forward 7 unknown #
face $-1 $266 $267 $27 $-1 $268 reversed single #
loop $-1 $-1 $269 $99 #
plane-surface $-1 -59.98734544335196972 13.03881901970691359 71.99235768619151088 0 1 0 -0.6946583786197038091 0 0.7193397924579483238 forward_v I I I I #
coedge $-1 $270 $271 $272 $273 forward $100 $-1 #
coedge $-1 $274 $102 $275 $276 forward $60 $-1 #
coedge $-1 $102 $274 $277 $278 forward $60 $-1 #
coedge $-1 $279 $280 $102 $167 reversed $281 $-1 #
edge $-1 $282 -3.487168248993803843 $283 3.487168248993803843 $166 $284 forward 7 unknown #
loop $-1 $285 $286 $103 #
cone-surface $-1 6.65657403541211945 16.52598726870071744 12.13651914235773432 0.6946583786197038091 0 -0.7193397924579483238 0.5395048443434612429 0 0.5209937839647778013 1 I I -0.7071067811865475727 0.7071067811865475727 0.75 forward I I I I #
coedge $-1 $170 $170 $107 $172 forward $104 $-1 #
coedge $-1 $171 $171 $286 $287 forward $106 $-1 #
edge $-1 $288 0 $288 6.283185307179586232 $170 $289 forward 7 unknown #
face $-1 $290 $291 $29 $-1 $292 reversed single #
loop $-1 $-1 $293 $108 #
plane-surface $-1 -59.98734544335196972 24.0685598282980564 71.99235768619151088 0 1 0 -0.6946583786197038091 0 0.7193397924579483238 forward_v I I I I #
coedge $-1 $294 $295 $296 $297 forward $109 $-1 #
coedge $-1 $298 $111 $299 $300 forward $66 $-1 #
coedge $-1 $111 $298 $301 $302 forward $66 $-1 #
coedge $-1 $303 $304 $111 $180 reversed $305 $-1 #
edge $-1 $306 -3.487168248993803843 $307 3.487168248993803843 $179 $308 forward 7 unknown #
loop $-1 $309 $310 $112 #
cone-surface $-1 6.65657403541211945 27.55572807729186025 12.13651914235773432 0.6946583786197038091 0 -0.7193397924579483238 0.5395048443434612429 0 0.5209937839647778013 1 I I -0.7071067811865475727 0.7071067811865475727 0.75 forward I I I I #
coedge $-1 $183 $183 $116 $185 forward $113 $-1 #
coedge $-1 $184 $184 $310 $311 forward $115 $-1 #
edge $-1 $312 0 $312 6.283185307179586232 $183 $313 forward 7 unknown #
face $-1 $314 $315 $31 $-1 $316 reversed single #
loop $-1 $-1 $317 $117 #
plane-surface $-1 -59.98734544335196972 35.09830063688919921 71.99235768619151088 0 1 0 -0.6946583786197038091 0 0.7193397924579483238 forward_v I I I I #
coedge $-1 $318 $319 $320 $321 forward $118 $-1 #
coedge $-1 $322 $120 $323 $324 forward $72 $-1 #
coedge $-1 $120 $322 $325 $326 forward $72 $-1 #
coedge $-1 $327 $328 $120 $193 reversed $329 $-1 #
edge $-1 $330 -3.487168248993803843 $331 3.487168248993803843 $192 $332 forward 7 unknown #
loop $-1 $333 $334 $121 #
cone-surface $-1 6.65657403541211945 38.58546888588300305 12.13651914235773432 0.6946583786197038091 0 -0.7193397924579483238 0.5395048443434612429 0 0.5209937839647778013 1 I I -0.7071067811865475727 0.7071067811865475727 0.75 forward I I I I #
coedge $-1 $196 $196 $125 $198 forward $122 $-1 #
coedge $-1 $197 $197 $334 $335 forward $124 $-1 #
edge $-1 $336 0 $336 6.283185307179586232 $196 $337 forward 7 unknown #
face $-1 $338 $339 $22 $-1 $340 reversed single #
loop $-1 $-1 $341 $126 #
plane-surface $-1 0 22.05948161718228917 9.35503252065197799 1 0 0 0 0 -1 forward_v I I I I #
coedge $-1 $342 $210 $343 $344 forward $127 $-1 #
coedge $-1 $345 $129 $342 $346 forward $78 $-1 #
coedge $-1 $129 $345 $347 $348 forward $78 $-1 #
coedge $-1 $213 $212 $129 $206 reversed $214 $-1 #
edge $-1 $349 -22.05948161718228917 $350 22.05948161718228917 $205 $351 forward 7 unknown #
coedge $-1 $131 $130 $352 $353 forward $45 $-1 #
coedge $-1 $354 $355 $130 $209 reversed $339 $-1 #
edge $-1 $216 -43.17758720664082972 $356 43.17758720664082972 $208 $357 forward 7 unknown #
coedge $-1 $202 $358 $131 $211 reversed $127 $-1 #
edge $-1 $359 -43.17758720664082972 $215 43.17758720664082972 $210 $360 forward 7 unknown #
coedge $-1 $205 $132 $358 $361 forward $214 $-1 #
coedge $-1 $132 $205 $354 $362 reversed $214 $-1 #
loop $-1 $-1 $212 $338 #
vertex $-1 $133 $363 #
vertex $-1 $133 $364 #
straight-curve $-1 86.35517441328165944 22.05948161718228917 18.71006504130395598 0 1 0 I I #
face $-1 $365 $366 $23 $-1 $367 reversed single #
loop $-1 $-1 $368 $134 #
plane-surface $-1 8.499316179308053165 5.260448931686510399 273.0309194723659516 0.5735764247347356903 0 -0.8191520524228198541 -0.8191520524228198541 0 -0.5735764247347356903 forward_v I I I I #
coedge $-1 $369 $229 $370 $371 forward $135 $-1 #
coedge $-1 $372 $137 $369 $373 forward $82 $-1 #
coedge $-1 $137 $372 $374 $375 forward $82 $-1 #
coedge $-1 $232 $231 $137 $225 reversed $233 $-1 #
edge $-1 $376 -5.260448931686510399 $377 5.260448931686510399 $224 $378 forward 7 unknown #
coedge $-1 $139 $138 $379 $380 forward $48 $-1 #
coedge $-1 $381 $382 $138 $228 reversed $366 $-1 #
edge $-1 $235 -172.7103488265633473 $383 172.7103488265633189 $227 $384 forward 7 unknown #
coedge $-1 $221 $385 $139 $230 reversed $135 $-1 #
edge $-1 $386 -172.7103488265633189 $234 172.7103488265633473 $229 $387 forward 7 unknown #
coedge $-1 $224 $140 $385 $388 forward $233 $-1 #
coedge $-1 $140 $224 $381 $389 reversed $233 $-1 #
loop $-1 $-1 $231 $365 #
vertex $-1 $141 $390 #
vertex $-1 $141 $391 #
straight-curve $-1 277.3625033265367961 5.260448931686510399 39.61013823779958898 0 1 0 I I #
loop $-1 $-1 $392 $85 #
coedge $-1 $238 $238 $145 $239 reversed $142 $-1 #
edge $-1 $393 0 $393 6.283185307179586232 $238 $394 forward 7 unknown #
vertex $-1 $146 $395 #
ellipse-curve $-1 83.75583156470177926 5.260448931686510399 14.99781862122226705 0.8191520524228198541 0 0.5735764247347356903 0.8603646371021035355 0 -1.228728078634229837 1 I I #
face $-1 $396 $397 $25 $-1 $398 reversed single #
loop $-1 $-1 $399 $147 #
plane-surface $-1 -184.2247719235919021 5.496246460109571963 -47.98233320051242856 0.7193397924579483238 0 0.6946583786197038091 0.6946583786197038091 0 -0.7193397924579483238 forward_v I I I I #
coedge $-1 $400 $253 $401 $402 forward $148 $-1 #
coedge $-1 $403 $150 $400 $404 forward $91 $-1 #
coedge $-1 $150 $403 $405 $406 forward $91 $-1 #
coedge $-1 $256 $255 $150 $249 reversed $257 $-1 #
edge $-1 $407 -3.487168248993802955 $408 3.487168248993802955 $248 $409 forward 7 unknown #
coedge $-1 $152 $151 $410 $411 forward $54 $-1 #
coedge $-1 $412 $413 $151 $252 reversed $397 $-1 #
edge $-1 $259 -172.7103488265632905 $414 172.7103488265632905 $251 $415 forward 7 unknown #
coedge $-1 $245 $416 $152 $254 reversed $148 $-1 #
edge $-1 $417 -172.7103488265632905 $258 172.7103488265632905 $253 $418 forward 7 unknown #
coedge $-1 $248 $153 $416 $419 forward $257 $-1 #
coedge $-1 $153 $248 $412 $420 reversed $257 $-1 #
loop $-1 $-1 $255 $396 #
vertex $-1 $154 $421 #
vertex $-1 $154 $422 #
straight-curve $-1 4.262735593535978751 5.496246460109571963 254.085761813015381 0 1 0 I I #
loop $-1 $-1 $423 $94 #
coedge $-1 $262 $262 $158 $263 reversed $155 $-1 #
edge $-1 $424 0 $424 6.283185307179586232 $262 $425 forward 7 unknown #
vertex $-1 $159 $426 #
ellipse-curve $-1 4.57519059201146483 5.496246460109571075 14.29185474368775566 -0.6946583786197038091 0 0.7193397924579483238 1.079009688686922486 0 1.041987567929555603 1 I I #
face $-1 $427 $428 $27 $-1 $429 reversed single #
loop $-1 $-1 $430 $160 #
plane-surface $-1 -184.2247719235919021 16.52598726870071744 -47.98233320051242856 0.7193397924579483238 0 0.6946583786197038091 0.6946583786197038091 0 -0.7193397924579483238 forward_v I I I I #
coedge $-1 $431 $277 $432 $433 forward $161 $-1 #
coedge $-1 $434 $163 $431 $435 forward $100 $-1 #
coedge $-1 $163 $434 $436 $437 forward $100 $-1 #
coedge $-1 $280 $279 $163 $273 reversed $281 $-1 #
edge $-1 $438 -3.487168248993803843 $439 3.487168248993803843 $272 $440 forward 7 unknown #
coedge $-1 $165 $164 $441 $442 forward $60 $-1 #
coedge $-1 $443 $444 $164 $276 reversed $428 $-1 #
edge $-1 $283 -172.7103488265632905 $445 172.7103488265632905 $275 $446 forward 7 unknown #
coedge $-1 $269 $447 $165 $278 reversed $161 $-1 #
edge $-1 $448 -172.7103488265632905 $282 172.7103488265632905 $277 $449 forward 7 unknown #
coedge $-1 $272 $166 $447 $450 forward $281 $-1 #
coedge $-1 $166 $272 $443 $451 reversed $281 $-1 #
loop $-1 $-1 $279 $427 #
vertex $-1 $167 $452 #
vertex $-1 $167 $453 #
straight-curve $-1 4.262735593535978751 16.52598726870071744 254.085761813015381 0 1 0 I I #
loop $-1 $-1 $454 $103 #
coedge $-1 $286 $286 $171 $287 reversed $168 $-1 #
edge $-1 $455 0 $455 6.283185307179586232 $286 $456 forward 7 unknown #
vertex $-1 $172 $457 #
ellipse-curve $-1 4.57519059201146483 16.52598726870071744 14.29185474368775566 -0.6946583786197038091 0 0.7193397924579483238 1.079009688686922486 0 1.041987567929555603 1 I I #
face $-1 $458 $459 $29 $-1 $460 reversed single #
loop $-1 $-1 $461 $173 #
plane-surface $-1 -184.2247719235919021 27.55572807729186025 -47.98233320051242856 0.7193397924579483238 0 0.6946583786197038091 0.6946583786197038091 0 -0.7193397924579483238 forward_v I I I I #
coedge $-1 $462 $301 $463 $464 forward $174 $-1 #
coedge $-1 $465 $176 $462 $466 forward $109 $-1 #
coedge $-1 $176 $465 $467 $468 forward $109 $-1 #
coedge $-1 $304 $303 $176 $297 reversed $305 $-1 #
edge $-1 $469 -3.487168248993803843 $470 3.487168248993803843 $296 $471 forward 7 unknown #
coedge $-1 $178 $177 $472 $473 forward $66 $-1 #
coedge $-1 $474 $475 $177 $300 reversed $459 $-1 #
edge $-1 $307 -172.7103488265632905 $476 172.7103488265632905 $299 $477 forward 7 unknown #
coedge $-1 $293 $478 $178 $302 reversed $174 $-1 #
edge $-1 $479 -172.7103488265632905 $306 172.7103488265632905 $301 $480 forward 7 unknown #
coedge $-1 $296 $179 $478 $481 forward $305 $-1 #
coedge $-1 $179 $296 $474 $482 reversed $305 $-1 #
loop $-1 $-1 $303 $458 #
vertex $-1 $180 $483 #
vertex $-1 $180 $484 #
straight-curve $-1 4.262735593535978751 27.55572807729186025 254.085761813015381 0 1 0 I I #
loop $-1 $-1 $485 $112 #
coedge $-1 $310 $310 $184 $311 reversed $181 $-1 #
edge $-1 $486 0 $486 6.283185307179586232 $310 $487 forward 7 unknown #
vertex $-1 $185 $488 #
ellipse-curve $-1 4.57519059201146483 27.55572807729186025 14.29185474368775566 -0.6946583786197038091 0 0.7193397924579483238 1.079009688686922486 0 1.041987567929555603 1 I I #
face $-1 $489 $490 $31 $-1 $491 reversed single #
loop $-1 $-1 $492 $186 #
plane-surface $-1 -184.2247719235919021 38.58546888588300305 -47.98233320051242856 0.7193397924579483238 0 0.6946583786197038091 0.6946583786197038091 0 -0.7193397924579483238 forward_v I I I I #
coedge $-1 $493 $325 $494 $495 forward $187 $-1 #
coedge $-1 $496 $189 $493 $497 forward $118 $-1 #
coedge $-1 $189 $496 $498 $499 forward $118 $-1 #
coedge $-1 $328 $327 $189 $321 reversed $329 $-1 #
edge $-1 $500 -3.487168248993803843 $501 3.487168248993803843 $320 $502 forward 7 unknown #
coedge $-1 $191 $190 $503 $504 forward $72 $-1 #
coedge $-1 $505 $506 $190 $324 reversed $490 $-1 #
edge $-1 $331 -172.7103488265632905 $507 172.7103488265632905 $323 $508 forward 7 unknown #
coedge $-1 $317 $509 $191 $326 reversed $187 $-1 #
edge $-1 $510 -172.7103488265632905 $330 172.7103488265632905 $325 $511 forward 7 unknown #
coedge $-1 $320 $192 $509 $512 forward $329 $-1 #
coedge $-1 $192 $320 $505 $513 reversed $329 $-1 #
loop $-1 $-1 $327 $489 #
vertex $-1 $193 $514 #
vertex $-1 $193 $515 #
straight-curve $-1 4.262735593535978751 38.58546888588300305 254.085761813015381 0 1 0 I I #
loop $-1 $-1 $516 $121 #
coedge $-1 $334 $334 $197 $335 reversed $194 $-1 #
edge $-1 $517 0 $517 6.283185307179586232 $334 $518 forward 7 unknown #
vertex $-1 $198 $519 #
ellipse-curve $-1 4.57519059201146483 38.58546888588300305 14.29185474368775566 -0.6946583786197038091 0 0.7193397924579483238 1.079009688686922486 0 1.041987567929555603 1 I I #
face $-1 $-1 $214 $22 $-1 $520 reversed single #
loop $-1 $-1 $354 $199 #
plane-surface $-1 43.17758720664082972 44.11896323436457834 9.35503252065197799 0 -1 0 0 0 -1 forward_v I I I I #
coedge $-1 $521 $352 $355 $522 forward $200 $-1 #
coedge $-1 $358 $202 $203 $346 reversed $127 $-1 #
coedge $-1 $352 $521 $202 $344 reversed $200 $-1 #
edge $-1 $359 -9.35503252065197799 $523 9.35503252065197799 $343 $524 forward 7 unknown #
coedge $-1 $204 $203 $521 $525 forward $78 $-1 #
edge $-1 $350 -43.17758720664082972 $523 43.17758720664082972 $342 $526 forward 7 unknown #
coedge $-1 $355 $354 $204 $348 reversed $339 $-1 #
edge $-1 $527 -43.17758720664082972 $349 43.17758720664082972 $347 $528 forward 7 unknown #
vertex $-1 $206 $529 #
vertex $-1 $361 $530 #
straight-curve $-1 86.35517441328165944 22.05948161718228917 0 0 -1 0 I I #
coedge $-1 $341 $343 $207 $353 reversed $200 $-1 #
edge $-1 $356 -22.05948161718228917 $359 22.05948161718228917 $352 $531 forward 7 unknown #
coedge $-1 $347 $208 $213 $362 forward $339 $-1 #
coedge $-1 $208 $347 $341 $522 reversed $339 $-1 #
vertex $-1 $209 $532 #
straight-curve $-1 43.17758720664082972 44.11896323436457834 18.71006504130395598 -1 0 0 I I #
coedge $-1 $210 $342 $212 $361 reversed $127 $-1 #
vertex $-1 $353 $533 #
straight-curve $-1 43.17758720664082972 0 18.71006504130395598 1 0 0 I I #
edge $-1 $215 -9.35503252065197799 $350 9.35503252065197799 $212 $534 forward 7 unknown #
edge $-1 $216 -9.35503252065197799 $349 9.35503252065197799 $213 $535 forward 7 unknown #
point $-1 86.35517441328165944 0 18.71006504130395598 #
point $-1 86.35517441328165944 44.11896323436457834 18.71006504130395598 #
face $-1 $-1 $233 $23 $-1 $536 reversed single #
loop $-1 $-1 $381 $218 #
plane-surface $-1 107.5619005739372938 10.5208978633730208 131.5548827564254566 0 -1 0 -0.8191520524228198541 0 -0.5735764247347356903 forward_v I I I I #
coedge $-1 $537 $379 $382 $538 forward $219 $-1 #
coedge $-1 $385 $221 $222 $373 reversed $135 $-1 #
coedge $-1 $379 $537 $221 $371 reversed $219 $-1 #
edge $-1 $386 -86.35517441328164523 $539 86.35517441328168786 $370 $540 forward 7 unknown #
coedge $-1 $223 $222 $537 $541 forward $82 $-1 #
edge $-1 $377 -172.7103488265633473 $539 172.7103488265633473 $369 $542 forward 7 unknown #
coedge $-1 $382 $381 $223 $375 reversed $366 $-1 #
edge $-1 $543 -172.7103488265633473 $376 172.7103488265633473 $374 $544 forward 7 unknown #
vertex $-1 $225 $545 #
vertex $-1 $388 $546 #
straight-curve $-1 135.8864666105963011 5.260448931686510399 -59.45244615682966582 0 -1 0 I I #
coedge $-1 $368 $370 $226 $380 reversed $219 $-1 #
edge $-1 $383 -5.260448931686510399 $386 5.260448931686510399 $379 $547 forward 7 unknown #
coedge $-1 $374 $227 $232 $389 forward $366 $-1 #
coedge $-1 $227 $374 $368 $538 reversed $366 $-1 #
vertex $-1 $228 $548 #
straight-curve $-1 178.2999189319075413 10.5208978633730208 181.086174953740084 -0.5735764247347356903 0 0.8191520524228198541 I I #
coedge $-1 $229 $369 $231 $388 reversed $135 $-1 #
vertex $-1 $380 $549 #
straight-curve $-1 178.2999189319075413 0 181.086174953740084 0.5735764247347356903 0 -0.8191520524228198541 I I #
edge $-1 $234 -86.35517441328167365 $377 86.35517441328167365 $231 $550 forward 7 unknown #
edge $-1 $235 -86.35517441328167365 $376 86.35517441328167365 $232 $551 forward 7 unknown #
point $-1 277.3625033265367961 0 39.61013823779958898 #
point $-1 277.3625033265367961 10.5208978633730208 39.61013823779958898 #
coedge $-1 $392 $392 $-1 $552 reversed $237 $-1 #
vertex $-1 $239 $553 #
ellipse-curve $-1 80.85146292715856475 5.260448931686510399 12.96415786885457599 0.8191520524228198541 0 0.5735764247347356903 0.8603646371021035355 0 -1.228728078634229837 1 I I #
point $-1 84.61619620180388779 5.260448931686510399 13.769090542588037 #
face $-1 $-1 $257 $25 $-1 $554 reversed single #
loop $-1 $-1 $412 $242 #
plane-surface $-1 -59.98734544335196972 8.983414709103374918 71.99235768619151088 0 -1 0 0.6946583786197038091 0 -0.7193397924579483238 forward_v I I I I #
coedge $-1 $555 $410 $413 $556 forward $243 $-1 #
coedge $-1 $416 $245 $246 $404 reversed $148 $-1 #
coedge $-1 $410 $555 $245 $402 reversed $243 $-1 #
edge $-1 $417 -86.35517441328164523 $557 86.35517441328165944 $401 $558 forward 7 unknown #
coedge $-1 $247 $246 $555 $559 forward $91 $-1 #
edge $-1 $408 -172.7103488265633189 $557 172.7103488265632905 $400 $560 forward 7 unknown #
coedge $-1 $413 $412 $247 $406 reversed $397 $-1 #
edge $-1 $561 -172.7103488265632905 $407 172.7103488265633189 $405 $562 forward 7 unknown #
vertex $-1 $249 $563 #
vertex $-1 $419 $564 #
straight-curve $-1 124.2374264802399324 5.496246460109571963 129.8483353327754912 0 -1 0 I I #
coedge $-1 $399 $401 $250 $411 reversed $243 $-1 #
edge $-1 $414 -3.487168248993802955 $417 3.487168248993802955 $410 $565 forward 7 unknown #
coedge $-1 $405 $251 $256 $420 forward $397 $-1 #
coedge $-1 $251 $405 $399 $556 reversed $397 $-1 #
vertex $-1 $252 $566 #
straight-curve $-1 -119.9746908867039394 8.983414709103374918 134.11107092631147 -0.7193397924579483238 0 -0.6946583786197038091 I I #
coedge $-1 $253 $400 $255 $419 reversed $148 $-1 #
vertex $-1 $411 $567 #
straight-curve $-1 -119.9746908867039394 2.009078211115769008 134.11107092631147 0.7193397924579483238 0 0.6946583786197038091 I I #
edge $-1 $258 -86.35517441328161681 $408 86.35517441328167365 $255 $568 forward 7 unknown #
edge $-1 $259 -86.35517441328161681 $407 86.35517441328167365 $256 $569 forward 7 unknown #
point $-1 4.262735593535978751 2.009078211115769008 254.085761813015381 #
point $-1 4.262735593535978751 8.983414709103374918 254.085761813015381 #
coedge $-1 $423 $423 $-1 $570 reversed $261 $-1 #
vertex $-1 $263 $571 #
ellipse-curve $-1 6.135580251447342093 5.496246460109571075 12.67602398670119612 -0.6946583786197038091 0 0.7193397924579483238 1.079009688686922486 0 1.041987567929555603 1 I I #
point $-1 5.654200280698387537 5.496246460109571075 15.33384231161731037 #
face $-1 $-1 $281 $27 $-1 $572 reversed single #
loop $-1 $-1 $443 $266 #
plane-surface $-1 -59.98734544335196972 20.01315551769452128 71.99235768619151088 0 -1 0 0.6946583786197038091 0 -0.7193397924579483238 forward_v I I I I #
coedge $-1 $573 $441 $444 $574 forward $267 $-1 #
coedge $-1 $447 $269 $270 $435 reversed $161 $-1 #
coedge $-1 $441 $573 $269 $433 reversed $267 $-1 #
edge $-1 $448 -86.35517441328164523 $575 86.35517441328165944 $432 $576 forward 7 unknown #
coedge $-1 $271 $270 $573 $577 forward $100 $-1 #
edge $-1 $439 -172.7103488265633189 $575 172.7103488265632905 $431 $578 forward 7 unknown #
coedge $-1 $444 $443 $271 $437 reversed $428 $-1 #
edge $-1 $579 -172.7103488265632905 $438 172.7103488265633189 $436 $580 forward 7 unknown #
vertex $-1 $273 $581 #
vertex $-1 $450 $582 #
straight-curve $-1 124.2374264802399324 16.52598726870071744 129.8483353327754912 0 -1 0 I I #
coedge $-1 $430 $432 $274 $442 reversed $267 $-1 #
edge $-1 $445 -3.487168248993803843 $448 3.487168248993803843 $441 $583 forward 7 unknown #
coedge $-1 $436 $275 $280 $451 forward $428 $-1 #
coedge $-1 $275 $436 $430 $574 reversed $428 $-1 #
vertex $-1 $276 $584 #
straight-curve $-1 -119.9746908867039394 20.01315551769452128 134.11107092631147 -0.7193397924579483238 0 -0.6946583786197038091 I I #
coedge $-1 $277 $431 $279 $450 reversed $161 $-1 #
vertex $-1 $442 $585 #
straight-curve $-1 -119.9746908867039394 13.03881901970691359 134.11107092631147 0.7193397924579483238 0 0.6946583786197038091 I I #
edge $-1 $282 -86.35517441328161681 $439 86.35517441328167365 $279 $586 forward 7 unknown #
edge $-1 $283 -86.35517441328161681 $438 86.35517441328167365 $280 $587 forward 7 unknown #
point $-1 4.262735593535978751 13.03881901970691359 254.085761813015381 #
point $-1 4.262735593535978751 20.01315551769452128 254.085761813015381 #
coedge $-1 $454 $454 $-1 $588 reversed $285 $-1 #
vertex $-1 $287 $589 #
ellipse-curve $-1 6.135580251447342093 16.52598726870071744 12.67602398670119612 -0.6946583786197038091 0 0.7193397924579483238 1.079009688686922486 0 1.041987567929555603 1 I I #
point $-1 5.654200280698387537 16.52598726870071744 15.33384231161731037 #
face $-1 $-1 $305 $29 $-1 $590 reversed single #
loop $-1 $-1 $474 $290 #
plane-surface $-1 -59.98734544335196972 31.04289632628566409 71.99235768619151088 0 -1 0 0.6946583786197038091 0 -0.7193397924579483238 forward_v I I I I #
coedge $-1 $591 $472 $475 $592 forward $291 $-1 #
coedge $-1 $478 $293 $294 $466 reversed $174 $-1 #
coedge $-1 $472 $591 $293 $464 reversed $291 $-1 #
edge $-1 $479 -86.35517441328164523 $593 86.35517441328165944 $463 $594 forward 7 unknown #
coedge $-1 $295 $294 $591 $595 forward $109 $-1 #
edge $-1 $470 -172.7103488265633189 $593 172.7103488265632905 $462 $596 forward 7 unknown #
coedge $-1 $475 $474 $295 $468 reversed $459 $-1 #
edge $-1 $597 -172.7103488265632905 $469 172.7103488265633189 $467 $598 forward 7 unknown #
vertex $-1 $297 $599 #
vertex $-1 $481 $600 #
straight-curve $-1 124.2374264802399324 27.55572807729186025 129.8483353327754912 0 -1 0 I I #
coedge $-1 $461 $463 $298 $473 reversed $291 $-1 #
edge $-1 $476 -3.487168248993803843 $479 3.487168248993803843 $472 $601 forward 7 unknown #
coedge $-1 $467 $299 $304 $482 forward $459 $-1 #
coedge $-1 $299 $467 $461 $592 reversed $459 $-1 #
vertex $-1 $300 $602 #
straight-curve $-1 -119.9746908867039394 31.04289632628566409 134.11107092631147 -0.7193397924579483238 0 -0.6946583786197038091 I I #
coedge $-1 $301 $462 $303 $481 reversed $174 $-1 #
vertex $-1 $473 $603 #
straight-curve $-1 -119.9746908867039394 24.0685598282980564 134.11107092631147 0.7193397924579483238 0 0.6946583786197038091 I I #
edge $-1 $306 -86.35517441328161681 $470 86.35517441328167365 $303 $604 forward 7 unknown #
edge $-1 $307 -86.35517441328161681 $469 86.35517441328167365 $304 $605 forward 7 unknown #
point $-1 4.262735593535978751 24.0685598282980564 254.085761813015381 #
point $-1 4.262735593535978751 31.04289632628566409 254.085761813015381 #
coedge $-1 $485 $485 $-1 $606 reversed $309 $-1 #
vertex $-1 $311 $607 #
ellipse-curve $-1 6.135580251447342093 27.55572807729186025 12.67602398670119612 -0.6946583786197038091 0 0.7193397924579483238 1.079009688686922486 0 1.041987567929555603 1 I I #
point $-1 5.654200280698387537 27.55572807729186025 15.33384231161731037 #
face $-1 $-1 $329 $31 $-1 $608 reversed single #
loop $-1 $-1 $505 $314 #
plane-surface $-1 -59.98734544335196972 42.0726371348768069 71.99235768619151088 0 -1 0 0.6946583786197038091 0 -0.7193397924579483238 forward_v I I I I #
coedge $-1 $609 $503 $506 $610 forward $315 $-1 #
coedge $-1 $509 $317 $318 $497 reversed $187 $-1 #
coedge $-1 $503 $609 $317 $495 reversed $315 $-1 #
edge $-1 $510 -86.35517441328164523 $611 86.35517441328165944 $494 $612 forward 7 unknown #
coedge $-1 $319 $318 $609 $613 forward $118 $-1 #
edge $-1 $501 -172.7103488265633189 $611 172.7103488265632905 $493 $614 forward 7 unknown #
coedge $-1 $506 $505 $319 $499 reversed $490 $-1 #
edge $-1 $615 -172.7103488265632905 $500 172.7103488265633189 $498 $616 forward 7 unknown #
vertex $-1 $321 $617 #
vertex $-1 $512 $618 #
straight-curve $-1 124.2374264802399324 38.58546888588300305 129.8483353327754912 0 -1 0 I I #
coedge $-1 $492 $494 $322 $504 reversed $315 $-1 #
edge $-1 $507 -3.487168248993803843 $510 3.487168248993803843 $503 $619 forward 7 unknown #
coedge $-1 $498 $323 $328 $513 forward $490 $-1 #
coedge $-1 $323 $498 $492 $610 reversed $490 $-1 #
vertex $-1 $324 $620 #
straight-curve $-1 -119.9746908867039394 42.0726371348768069 134.11107092631147 -0.7193397924579483238 0 -0.6946583786197038091 I I #
coedge $-1 $325 $493 $327 $512 reversed $187 $-1 #
vertex $-1 $504 $621 #
straight-curve $-1 -119.9746908867039394 35.09830063688919921 134.11107092631147 0.7193397924579483238 0 0.6946583786197038091 I I #
edge $-1 $330 -86.35517441328161681 $501 86.35517441328167365 $327 $622 forward 7 unknown #
edge $-1 $331 -86.35517441328161681 $500 86.35517441328167365 $328 $623 forward 7 unknown #
point $-1 4.262735593535978751 35.09830063688919921 254.085761813015381 #
point $-1 4.262735593535978751 42.0726371348768069 254.085761813015381 #
coedge $-1 $516 $516 $-1 $624 reversed $333 $-1 #
vertex $-1 $335 $625 #
ellipse-curve $-1 6.135580251447342093 38.58546888588300305 12.67602398670119612 -0.6946583786197038091 0 0.7193397924579483238 1.079009688686922486 0 1.041987567929555603 1 I I #
point $-1 5.654200280698387537 38.58546888588300305 15.33384231161731037 #
plane-surface $-1 86.35517441328165944 22.05948161718228917 9.35503252065197799 -1 0 0 0 0 1 forward_v I I I I #
coedge $-1 $343 $341 $345 $525 reversed $200 $-1 #
edge $-1 $356 -9.35503252065197799 $527 9.35503252065197799 $355 $626 forward 7 unknown #
vertex $-1 $525 $627 #
straight-curve $-1 0 0 9.35503252065197799 0 0 -1 I I #
edge $-1 $523 -22.05948161718228917 $527 22.05948161718228917 $521 $628 forward 7 unknown #
straight-curve $-1 43.17758720664082972 0 0 -1 0 0 I I #
vertex $-1 $348 $629 #
straight-curve $-1 43.17758720664082972 44.11896323436457834 0 1 0 0 I I #
point $-1 86.35517441328165944 44.11896323436457834 0 #
point $-1 86.35517441328165944 0 0 #
straight-curve $-1 0 22.05948161718228917 18.71006504130395598 0 -1 0 I I #
point $-1 0 44.11896323436457834 18.71006504130395598 #
point $-1 0 0 18.71006504130395598 #
straight-curve $-1 86.35517441328165944 0 9.35503252065197799 0 0 -1 I I #
straight-curve $-1 86.35517441328165944 44.11896323436457834 9.35503252065197799 0 0 -1 I I #
plane-surface $-1 206.6244849685665486 5.260448931686510399 -9.921153959515038423 -0.5735764247347356903 0 0.8191520524228198541 0.8191520524228198541 0 0.5735764247347356903 forward_v I I I I #
coedge $-1 $370 $368 $372 $541 reversed $219 $-1 #
edge $-1 $383 -86.35517441328164523 $543 86.35517441328168786 $382 $630 forward 7 unknown #
vertex $-1 $541 $631 #
straight-curve $-1 8.499316179308053165 0 273.0309194723659516 -0.8191520524228198541 0 -0.5735764247347356903 I I #
edge $-1 $539 -5.260448931686510399 $543 5.260448931686510399 $537 $632 forward 7 unknown #
straight-curve $-1 36.82388221596704625 0 82.02359055911082919 -0.5735764247347356903 0 0.8191520524228198541 I I #
vertex $-1 $375 $633 #
straight-curve $-1 36.82388221596704625 10.5208978633730208 82.02359055911082919 0.5735764247347356903 0 -0.8191520524228198541 I I #
point $-1 135.8864666105963011 10.5208978633730208 -59.45244615682966582 #
point $-1 135.8864666105963011 0 -59.45244615682966582 #
straight-curve $-1 79.23733453727830067 5.260448931686510399 322.5622116696805506 0 -1 0 I I #
point $-1 79.23733453727830067 10.5208978633730208 322.5622116696805506 #
point $-1 79.23733453727830067 0 322.5622116696805506 #
straight-curve $-1 206.6244849685665486 0 -9.921153959515038423 -0.8191520524228198541 0 -0.5735764247347356903 I I #
straight-curve $-1 206.6244849685665486 10.5208978633730208 -9.921153959515038423 -0.8191520524228198541 0 -0.5735764247347356903 I I #
edge $-1 $634 1 $634 0 $392 $-1 forward 7 unknown #
point $-1 81.71182756426067328 5.260448931686510399 11.73542979022034594 #
plane-surface $-1 64.25008103688794847 5.496246460109571963 191.9670485728954645 -0.7193397924579483238 0 -0.6946583786197038091 -0.6946583786197038091 0 0.7193397924579483238 forward_v I I I I #
coedge $-1 $401 $399 $403 $559 reversed $243 $-1 #
edge $-1 $414 -86.35517441328164523 $561 86.35517441328165944 $413 $635 forward 7 unknown #
vertex $-1 $559 $636 #
straight-curve $-1 -184.2247719235919021 2.009078211115769008 -47.98233320051242856 0.6946583786197038091 0 -0.7193397924579483238 I I #
edge $-1 $557 -3.487168248993802955 $561 3.487168248993802955 $555 $637 forward 7 unknown #
straight-curve $-1 0 2.009078211115769008 9.873644446071551783 -0.7193397924579483238 0 -0.6946583786197038091 I I #
vertex $-1 $406 $638 #
straight-curve $-1 0 8.983414709103374918 9.873644446071551783 0.7193397924579483238 0 0.6946583786197038091 I I #
point $-1 124.2374264802399324 8.983414709103374918 129.8483353327754912 #
point $-1 124.2374264802399324 2.009078211115769008 129.8483353327754912 #
straight-curve $-1 -244.2121173669438576 5.496246460109571963 14.13638003960753053 0 -1 0 I I #
point $-1 -244.2121173669438576 8.983414709103374918 14.13638003960753053 #
point $-1 -244.2121173669438576 2.009078211115769008 14.13638003960753053 #
straight-curve $-1 64.25008103688794847 2.009078211115769008 191.9670485728954645 0.6946583786197038091 0 -0.7193397924579483238 I I #
straight-curve $-1 64.25008103688794847 8.983414709103374918 191.9670485728954645 0.6946583786197038091 0 -0.7193397924579483238 I I #
edge $-1 $639 1 $639 0 $423 $-1 forward 7 unknown #
point $-1 7.214589940134263912 5.496246460109571075 13.71801155463075084 #
plane-surface $-1 64.25008103688794847 16.52598726870071744 191.9670485728954645 -0.7193397924579483238 0 -0.6946583786197038091 -0.6946583786197038091 0 0.7193397924579483238 forward_v I I I I #
coedge $-1 $432 $430 $434 $577 reversed $267 $-1 #
edge $-1 $445 -86.35517441328164523 $579 86.35517441328165944 $444 $640 forward 7 unknown #
vertex $-1 $577 $641 #
straight-curve $-1 -184.2247719235919021 13.03881901970691359 -47.98233320051242856 0.6946583786197038091 0 -0.7193397924579483238 I I #
edge $-1 $575 -3.487168248993803843 $579 3.487168248993803843 $573 $642 forward 7 unknown #
straight-curve $-1 0 13.03881901970691359 9.873644446071551783 -0.7193397924579483238 0 -0.6946583786197038091 I I #
vertex $-1 $437 $643 #
straight-curve $-1 0 20.01315551769452128 9.873644446071551783 0.7193397924579483238 0 0.6946583786197038091 I I #
point $-1 124.2374264802399324 20.01315551769452128 129.8483353327754912 #
point $-1 124.2374264802399324 13.03881901970691359 129.8483353327754912 #
straight-curve $-1 -244.2121173669438576 16.52598726870071744 14.13638003960753053 0 -1 0 I I #
point $-1 -244.2121173669438576 20.01315551769452128 14.13638003960753053 #
point $-1 -244.2121173669438576 13.03881901970691359 14.13638003960753053 #
straight-curve $-1 64.25008103688794847 13.03881901970691359 191.9670485728954645 0.6946583786197038091 0 -0.7193397924579483238 I I #
straight-curve $-1 64.25008103688794847 20.01315551769452128 191.9670485728954645 0.6946583786197038091 0 -0.7193397924579483238 I I #
edge $-1 $644 1 $644 0 $454 $-1 forward 7 unknown #
point $-1 7.214589940134263912 16.52598726870071744 13.71801155463075084 #
plane-surface $-1 64.25008103688794847 27.55572807729186025 191.9670485728954645 -0.7193397924579483238 0 -0.6946583786197038091 -0.6946583786197038091 0 0.7193397924579483238 forward_v I I I I #
coedge $-1 $463 $461 $465 $595 reversed $291 $-1 #
edge $-1 $476 -86.35517441328164523 $597 86.35517441328165944 $475 $645 forward 7 unknown #
vertex $-1 $595 $646 #
straight-curve $-1 -184.2247719235919021 24.0685598282980564 -47.98233320051242856 0.6946583786197038091 0 -0.7193397924579483238 I I #
edge $-1 $593 -3.487168248993803843 $597 3.487168248993803843 $591 $647 forward 7 unknown #
straight-curve $-1 0 24.0685598282980564 9.873644446071551783 -0.7193397924579483238 0 -0.6946583786197038091 I I #
vertex $-1 $468 $648 #
straight-curve $-1 0 31.04289632628566409 9.873644446071551783 0.7193397924579483238 0 0.6946583786197038091 I I #
point $-1 124.2374264802399324 31.04289632628566409 129.8483353327754912 #
point $-1 124.2374264802399324 24.0685598282980564 129.8483353327754912 #
straight-curve $-1 -244.2121173669438576 27.55572807729186025 14.13638003960753053 0 -1 0 I I #
point $-1 -244.2121173669438576 31.04289632628566409 14.13638003960753053 #
point $-1 -244.2121173669438576 24.0685598282980564 14.13638003960753053 #
straight-curve $-1 64.25008103688794847 24.0685598282980564 191.9670485728954645 0.6946583786197038091 0 -0.7193397924579483238 I I #
straight-curve $-1 64.25008103688794847 31.04289632628566409 191.9670485728954645 0.6946583786197038091 0 -0.7193397924579483238 I I #
edge $-1 $649 1 $649 0 $485 $-1 forward 7 unknown #
point $-1 7.214589940134263912 27.55572807729186025 13.71801155463075084 #
plane-surface $-1 64.25008103688794847 38.58546888588300305 191.9670485728954645 -0.7193397924579483238 0 -0.6946583786197038091 -0.6946583786197038091 0 0.7193397924579483238 forward_v I I I I #
coedge $-1 $494 $492 $496 $613 reversed $315 $-1 #
edge $-1 $507 -86.35517441328164523 $615 86.35517441328165944 $506 $650 forward 7 unknown #
vertex $-1 $613 $651 #
straight-curve $-1 -184.2247719235919021 35.09830063688919921 -47.98233320051242856 0.6946583786197038091 0 -0.7193397924579483238 I I #
edge $-1 $611 -3.487168248993803843 $615 3.487168248993803843 $609 $652 forward 7 unknown #
straight-curve $-1 0 35.09830063688919921 9.873644446071551783 -0.7193397924579483238 0 -0.6946583786197038091 I I #
vertex $-1 $499 $653 #
straight-curve $-1 0 42.0726371348768069 9.873644446071551783 0.7193397924579483238 0 0.6946583786197038091 I I #
point $-1 124.2374264802399324 42.0726371348768069 129.8483353327754912 #
point $-1 124.2374264802399324 35.09830063688919921 129.8483353327754912 #
straight-curve $-1 -244.2121173669438576 38.58546888588300305 14.13638003960753053 0 -1 0 I I #
point $-1 -244.2121173669438576 42.0726371348768069 14.13638003960753053 #
point $-1 -244.2121173669438576 35.09830063688919921 14.13638003960753053 #
straight-curve $-1 64.25008103688794847 35.09830063688919921 191.9670485728954645 0.6946583786197038091 0 -0.7193397924579483238 I I #
straight-curve $-1 64.25008103688794847 42.0726371348768069 191.9670485728954645 0.6946583786197038091 0 -0.7193397924579483238 I I #
edge $-1 $654 1 $654 0 $516 $-1 forward 7 unknown #
point $-1 7.214589940134263912 38.58546888588300305 13.71801155463075084 #
straight-curve $-1 0 44.11896323436457834 9.35503252065197799 0 0 -1 I I #
point $-1 0 0 0 #
straight-curve $-1 0 22.05948161718228917 0 0 1 0 I I #
point $-1 0 44.11896323436457834 0 #
straight-curve $-1 8.499316179308053165 10.5208978633730208 273.0309194723659516 -0.8191520524228198541 0 -0.5735764247347356903 I I #
point $-1 -62.23870217866220855 0 223.4996272750513242 #
straight-curve $-1 -62.23870217866220855 5.260448931686510399 223.4996272750513242 0 1 0 I I #
point $-1 -62.23870217866220855 10.5208978633730208 223.4996272750513242 #
vertex $-1 $552 $655 #
straight-curve $-1 -184.2247719235919021 8.983414709103374918 -47.98233320051242856 0.6946583786197038091 0 -0.7193397924579483238 I I #
point $-1 -124.2374264802399182 2.009078211115769008 -110.1010464406323734 #
straight-curve $-1 -124.2374264802399182 5.496246460109571963 -110.1010464406323734 0 1 0 I I #
point $-1 -124.2374264802399182 8.983414709103374918 -110.1010464406323734 #
vertex $-1 $570 $656 #
straight-curve $-1 -184.2247719235919021 20.01315551769452128 -47.98233320051242856 0.6946583786197038091 0 -0.7193397924579483238 I I #
point $-1 -124.2374264802399182 13.03881901970691359 -110.1010464406323734 #
straight-curve $-1 -124.2374264802399182 16.52598726870071744 -110.1010464406323734 0 1 0 I I #
point $-1 -124.2374264802399182 20.01315551769452128 -110.1010464406323734 #
vertex $-1 $588 $657 #
straight-curve $-1 -184.2247719235919021 31.04289632628566409 -47.98233320051242856 0.6946583786197038091 0 -0.7193397924579483238 I I #
point $-1 -124.2374264802399182 24.0685598282980564 -110.1010464406323734 #
straight-curve $-1 -124.2374264802399182 27.55572807729186025 -110.1010464406323734 0 1 0 I I #
point $-1 -124.2374264802399182 31.04289632628566409 -110.1010464406323734 #
vertex $-1 $606 $658 #
straight-curve $-1 -184.2247719235919021 42.0726371348768069 -47.98233320051242856 0.6946583786197038091 0 -0.7193397924579483238 I I #
point $-1 -124.2374264802399182 35.09830063688919921 -110.1010464406323734 #
straight-curve $-1 -124.2374264802399182 38.58546888588300305 -110.1010464406323734 0 1 0 I I #
point $-1 -124.2374264802399182 42.0726371348768069 -110.1010464406323734 #
vertex $-1 $624 $659 #
point $-1 79.62273484852434535 5.260448931686510399 12.10379323175247102 #
point $-1 7.177567819376896807 5.496246460109571075 11.59701429801427253 #
point $-1 7.177567819376896807 16.52598726870071744 11.59701429801427253 #
point $-1 7.177567819376896807 27.55572807729186025 11.59701429801427253 #
point $-1 7.177567819376896807 38.58546888588300305 11.59701429801427253 #
End-of-ACIS-data 