300 0 8 0           
7 Unknown 11 ACIS 3.0 NT 24 Fri Oct 30 14:41:31 1998 
-1 9.9999999999999995e-007 1e-010 
body $8 $9 $-1 $10 #
body $11 $12 $-1 $13 #
body $14 $15 $-1 $16 #
body $17 $18 $-1 $19 #
body $20 $21 $-1 $22 #
body $23 $24 $-1 $25 #
body $26 $27 $-1 $28 #
body $29 $30 $-1 $31 #
display_attribute-st-attrib $-1 $32 $-1 $0 2 #
lump $-1 $-1 $33 $0 #
transform $-1 1 0 0 0 1 0 0 0 1 60.634174626911218 41.316434137999295 15.261748828885832 1 rotate no_reflect no_shear #
display_attribute-st-attrib $-1 $34 $-1 $1 1 #
lump $-1 $-1 $35 $1 #
transform $-1 1 0 0 0 1 0 0 0 1 60.634174626911218 41.316434137999295 15.261748828885832 1 rotate no_reflect no_shear #
display_attribute-st-attrib $-1 $36 $-1 $2 6 #
lump $-1 $-1 $37 $2 #
transform $-1 1 0 0 0 1 0 0 0 1 60.634174626911218 41.316434137999295 15.261748828885832 1 rotate no_reflect no_shear #
display_attribute-st-attrib $-1 $38 $-1 $3 5 #
lump $-1 $-1 $39 $3 #
transform $-1 1 0 0 0 1 0 0 0 1 60.634174626911218 41.316434137999295 15.261748828885832 1 rotate no_reflect no_shear #
display_attribute-st-attrib $-1 $40 $-1 $4 4 #
lump $-1 $-1 $41 $4 #
transform $-1 1 0 0 0 1 0 0 0 1 60.634174626911218 41.316434137999295 15.261748828885832 1 rotate no_reflect no_shear #
display_attribute-st-attrib $-1 $42 $-1 $5 3 #
lump $-1 $-1 $43 $5 #
transform $-1 1 0 0 0 1 0 0 0 1 60.634174626911218 41.316434137999295 15.261748828885832 1 rotate no_reflect no_shear #
display_attribute-st-attrib $-1 $44 $-1 $6 2 #
lump $-1 $-1 $45 $6 #
transform $-1 1 0 0 0 1 0 0 0 1 60.634174626911218 41.316434137999295 15.261748828885832 1 rotate no_reflect no_shear #
display_attribute-st-attrib $-1 $46 $-1 $7 1 #
lump $-1 $-1 $47 $7 #
transform $-1 1 0 0 0 1 0 0 0 1 60.634174626911218 41.316434137999295 15.261748828885832 1 rotate no_reflect no_shear #
id_attribute-st-attrib $-1 $-1 $8 $0 2108 #
shell $-1 $-1 $-1 $48 $-1 $9 #
id_attribute-st-attrib $-1 $-1 $11 $1 2116 #
shell $-1 $-1 $-1 $49 $-1 $12 #
id_attribute-st-attrib $-1 $-1 $14 $2 2129 #
shell $-1 $-1 $-1 $50 $-1 $15 #
id_attribute-st-attrib $-1 $-1 $17 $3 2136 #
shell $-1 $-1 $-1 $51 $-1 $18 #
id_attribute-st-attrib $-1 $-1 $20 $4 2144 #
shell $-1 $-1 $-1 $52 $-1 $21 #
id_attribute-st-attrib $-1 $-1 $23 $5 2158 #
shell $-1 $-1 $-1 $53 $-1 $24 #
id_attribute-st-attrib $-1 $-1 $26 $6 2168 #
shell $-1 $-1 $-1 $54 $-1 $27 #
id_attribute-st-attrib $-1 $-1 $29 $7 2179 #
shell $-1 $-1 $-1 $55 $-1 $30 #
face $-1 $56 $57 $33 $-1 $58 forward single #
face $-1 $59 $60 $35 $-1 $61 forward single #
face $-1 $62 $63 $37 $-1 $64 reversed single #
face $-1 $65 $66 $39 $-1 $67 forward single #
face $-1 $68 $69 $41 $-1 $70 forward single #
face $-1 $71 $72 $43 $-1 $73 reversed single #
face $-1 $74 $75 $45 $-1 $76 forward single #
face $-1 $77 $78 $47 $-1 $79 forward single #
face $-1 $80 $81 $33 $-1 $82 reversed single #
loop $-1 $-1 $83 $48 #
plane-surface $-1 0 0 15.261748828885832 0 0 1 1 0 0 forward_v I I I I #
face $-1 $84 $85 $35 $-1 $86 reversed single #
loop $-1 $-1 $87 $49 #
plane-surface $-1 0 -41.316434137999295 0 0 1 0 0 0 1 forward_v I I I I #
face $-1 $88 $89 $37 $-1 $90 reversed single #
loop $-1 $-1 $91 $50 #
plane-surface $-1 66.619417501348281 12.194593826169832 178.61488484835954 0 -1 0 -0.73135370988377701 0 -0.68199835119979291 forward_v I I I I #
face $-1 $92 $93 $39 $-1 $94 forward single #
loop $-1 $95 $96 $51 #
cone-surface $-1 55.673201806818078 1.8919279435914902 10.111182848055718 -0.73135370988377701 0 -0.68199835119979291 1.3639967023995858 0 -1.462707419767554 1 I I 0 1 forward I I I I #
face $-1 $97 $98 $41 $-1 $99 forward single #
loop $-1 $100 $101 $52 #
cone-surface $-1 55.673201806818078 8.0735274731384976 10.111182848055718 -0.73135370988377701 0 -0.68199835119979291 1.3639967023995858 0 -1.462707419767554 1 I I 0 1 forward I I I I #
face $-1 $102 $103 $43 $-1 $104 reversed single #
loop $-1 $-1 $105 $53 #
plane-surface $-1 -126.68165220773233 -3.4330594900017672 104.95495963775994 0 1 0 -0.54463904215088732 0 0.83867056331134215 forward_v I I I I #
face $-1 $106 $107 $45 $-1 $108 forward single #
loop $-1 $109 $110 $54 #
cone-surface $-1 -51.054470649705749 -0.6192562050042838 8.7449332193293401 0.54463904215088732 0 -0.83867056331134215 0.83867056331134215 0 0.54463904215088732 1 I I 0 1 forward I I I I #
face $-1 $111 $112 $47 $-1 $113 forward single #
loop $-1 $114 $115 $55 #
cone-surface $-1 -51.054470649705749 3.6014487224919378 8.7449332193293401 0.54463904215088732 0 -0.83867056331134215 0.83867056331134215 0 0.54463904215088732 1 I I 0 1 forward I I I I #
face $-1 $116 $117 $33 $-1 $118 reversed single #
loop $-1 $-1 $119 $56 #
plane-surface $-1 0 0 -15.261748828885832 0 0 1 1 0 0 forward_v I I I I #
coedge $-1 $120 $121 $122 $123 forward $57 $-1 #
face $-1 $124 $125 $35 $-1 $126 forward single #
loop $-1 $-1 $127 $59 #
plane-surface $-1 -60.634174626911218 0 0 1 0 0 0 0 -1 forward_v I I I I #
coedge $-1 $128 $129 $130 $131 forward $60 $-1 #
face $-1 $132 $133 $37 $-1 $134 reversed single #
loop $-1 $-1 $135 $62 #
plane-surface $-1 -22.070639616916324 4.9827277083649903 95.910070604531995 0.73135370988377701 0 0.68199835119979291 0.68199835119979291 0 -0.73135370988377701 forward_v I I I I #
coedge $-1 $136 $137 $138 $139 reversed $63 $-1 #
face $-1 $-1 $140 $39 $-1 $141 forward single #
loop $-1 $142 $143 $65 #
cone-surface $-1 53.730394948603305 1.8919279435914902 8.299486187335031 -0.73135370988377701 0 -0.68199835119979291 0.68199835119979291 0 -0.73135370988377701 1 I I -0.70710678118654746 0.70710678118654746 forward I I I I #
loop $-1 $-1 $144 $51 #
coedge $-1 $96 $96 $145 $146 reversed $66 $-1 #
face $-1 $-1 $147 $41 $-1 $148 forward single #
loop $-1 $149 $150 $68 #
cone-surface $-1 53.730394948603305 8.0735274731384976 8.299486187335031 -0.73135370988377701 0 -0.68199835119979291 0.68199835119979291 0 -0.73135370988377701 1 I I -0.70710678118654746 0.70710678118654746 forward I I I I #
loop $-1 $-1 $151 $52 #
coedge $-1 $101 $101 $152 $153 reversed $69 $-1 #
face $-1 $154 $155 $43 $-1 $156 reversed single #
loop $-1 $-1 $157 $71 #
plane-surface $-1 -60.634174626911204 1.4910962587438306 3.2507648572201049 -0.54463904215088732 0 0.83867056331134215 0.83867056331134215 0 0.54463904215088732 forward_v I I I I #
coedge $-1 $158 $159 $160 $161 reversed $72 $-1 #
face $-1 $-1 $162 $45 $-1 $163 forward single #
loop $-1 $164 $165 $74 #
cone-surface $-1 -50.450093678617506 -0.6192562050042838 7.8142743139500332 0.54463904215088732 0 -0.83867056331134215 0.41933528165567108 0 0.27231952107544366 1 I I -0.70710678118654746 0.70710678118654746 forward I I I I #
loop $-1 $-1 $166 $54 #
coedge $-1 $110 $110 $167 $168 reversed $75 $-1 #
face $-1 $-1 $169 $47 $-1 $170 forward single #
loop $-1 $171 $172 $77 #
cone-surface $-1 -50.450093678617506 3.6014487224919378 7.8142743139500332 0.54463904215088732 0 -0.83867056331134215 0.41933528165567108 0 0.27231952107544366 1 I I -0.70710678118654746 0.70710678118654746 forward I I I I #
loop $-1 $-1 $173 $55 #
coedge $-1 $115 $115 $174 $175 reversed $78 $-1 #
face $-1 $176 $177 $33 $-1 $178 reversed single #
loop $-1 $-1 $179 $80 #
plane-surface $-1 0 -41.316434137999295 0 0 1 0 0 0 1 forward_v I I I I #
coedge $-1 $180 $181 $182 $183 forward $81 $-1 #
coedge $-1 $184 $83 $185 $186 forward $57 $-1 #
coedge $-1 $83 $184 $187 $188 forward $57 $-1 #
coedge $-1 $189 $190 $83 $123 reversed $191 $-1 #
edge $-1 $192 $193 $122 $194 forward #
face $-1 $195 $196 $35 $-1 $197 reversed single #
loop $-1 $-1 $198 $84 #
plane-surface $-1 0 -47.001436741173833 0.15099979972306699 0 0 1 1 0 0 forward_v I I I I #
coedge $-1 $199 $200 $129 $201 forward $85 $-1 #
coedge $-1 $202 $87 $203 $204 reversed $60 $-1 #
coedge $-1 $87 $202 $127 $201 reversed $60 $-1 #
coedge $-1 $205 $198 $87 $131 reversed $125 $-1 #
edge $-1 $206 $207 $130 $208 forward #
face $-1 $209 $210 $37 $-1 $211 reversed single #
loop $-1 $-1 $212 $88 #
plane-surface $-1 66.619417501348281 -2.2291384094398516 178.61488484835954 0 1 0 0.73135370988377701 0 0.68199835119979291 forward_v I I I I #
coedge $-1 $213 $214 $215 $216 reversed $89 $-1 #
coedge $-1 $137 $91 $217 $218 reversed $63 $-1 #
coedge $-1 $91 $136 $213 $219 reversed $63 $-1 #
coedge $-1 $215 $220 $91 $139 forward $221 $-1 #
edge $-1 $222 $223 $138 $224 forward #
loop $-1 $-1 $145 $92 #
plane-surface $-1 -22.070639616916324 4.9827277083649903 95.910070604531995 0.73135370988377701 0 0.68199835119979291 0.68199835119979291 0 -0.73135370988377701 forward_v I I I I #
loop $-1 $-1 $225 $65 #
coedge $-1 $143 $143 $144 $226 reversed $93 $-1 #
coedge $-1 $144 $144 $143 $226 forward $95 $-1 #
coedge $-1 $145 $145 $96 $146 forward $140 $-1 #
edge $-1 $227 $227 $145 $228 forward #
loop $-1 $-1 $152 $97 #
plane-surface $-1 -22.070639616916324 4.9827277083649903 95.910070604531995 0.73135370988377701 0 0.68199835119979291 0.68199835119979291 0 -0.73135370988377701 forward_v I I I I #
loop $-1 $-1 $229 $68 #
coedge $-1 $150 $150 $151 $230 reversed $98 $-1 #
coedge $-1 $151 $151 $150 $230 forward $100 $-1 #
coedge $-1 $152 $152 $101 $153 forward $147 $-1 #
edge $-1 $231 $231 $152 $232 forward #
face $-1 $233 $234 $43 $-1 $235 forward single #
loop $-1 $-1 $236 $102 #
plane-surface $-1 -126.68165220773233 6.4152520074894284 104.95495963775994 0 -1 0 0.54463904215088732 0 -0.83867056331134215 forward_v I I I I #
coedge $-1 $237 $238 $239 $240 reversed $103 $-1 #
coedge $-1 $159 $105 $241 $242 reversed $72 $-1 #
coedge $-1 $105 $158 $237 $243 reversed $72 $-1 #
coedge $-1 $239 $244 $105 $161 forward $234 $-1 #
edge $-1 $245 $246 $160 $247 forward #
loop $-1 $-1 $167 $106 #
plane-surface $-1 -60.634174626911204 1.4910962587438306 3.2507648572201049 -0.54463904215088732 0 0.83867056331134215 0.83867056331134215 0 0.54463904215088732 forward_v I I I I #
loop $-1 $-1 $248 $74 #
coedge $-1 $165 $165 $166 $249 reversed $107 $-1 #
coedge $-1 $166 $166 $165 $249 forward $109 $-1 #
coedge $-1 $167 $167 $110 $168 forward $162 $-1 #
edge $-1 $250 $250 $167 $251 forward #
loop $-1 $-1 $174 $111 #
plane-surface $-1 -60.634174626911204 1.4910962587438306 3.2507648572201049 -0.54463904215088732 0 0.83867056331134215 0.83867056331134215 0 0.54463904215088732 forward_v I I I I #
loop $-1 $-1 $252 $77 #
coedge $-1 $172 $172 $173 $253 reversed $112 $-1 #
coedge $-1 $173 $173 $172 $253 forward $114 $-1 #
coedge $-1 $174 $174 $115 $175 forward $169 $-1 #
edge $-1 $254 $254 $174 $255 forward #
face $-1 $256 $257 $33 $-1 $258 reversed single #
loop $-1 $-1 $259 $116 #
plane-surface $-1 -60.634174626911218 0 0 1 0 0 0 0 -1 forward_v I I I I #
coedge $-1 $260 $187 $261 $262 forward $117 $-1 #
coedge $-1 $263 $119 $260 $264 forward $81 $-1 #
coedge $-1 $119 $263 $265 $266 forward $81 $-1 #
coedge $-1 $190 $189 $119 $183 reversed $191 $-1 #
edge $-1 $267 $268 $182 $269 forward #
coedge $-1 $121 $120 $270 $271 forward $57 $-1 #
coedge $-1 $272 $273 $120 $186 reversed $257 $-1 #
edge $-1 $193 $274 $185 $275 forward #
coedge $-1 $179 $276 $121 $188 reversed $117 $-1 #
edge $-1 $277 $192 $187 $278 forward #
coedge $-1 $182 $122 $276 $279 forward $191 $-1 #
coedge $-1 $122 $182 $272 $280 reversed $191 $-1 #
loop $-1 $-1 $189 $256 #
vertex $-1 $123 $281 #
vertex $-1 $123 $282 #
straight-curve $-1 60.634174626911218 0 15.261748828885832 0 1 0 I I #
face $-1 $283 $284 $35 $-1 $285 reversed single #
loop $-1 $-1 $286 $124 #
plane-surface $-1 0 -47.001436741173833 -8.1602187571300036 0 0 1 1 0 0 forward_v I I I I #
coedge $-1 $130 $287 $288 $289 forward $125 $-1 #
coedge $-1 $290 $127 $291 $292 reversed $85 $-1 #
coedge $-1 $127 $290 $205 $293 reversed $85 $-1 #
edge $-1 $206 $294 $127 $295 forward #
coedge $-1 $129 $128 $296 $297 forward $60 $-1 #
coedge $-1 $288 $298 $128 $204 forward $299 $-1 #
edge $-1 $300 $207 $203 $301 forward #
coedge $-1 $287 $130 $200 $293 forward $125 $-1 #
vertex $-1 $201 $302 #
vertex $-1 $289 $303 #
straight-curve $-1 0 -41.316434137999295 0.15099979972306699 1 0 0 I I #
face $-1 $-1 $221 $37 $-1 $304 forward single #
loop $-1 $-1 $305 $132 #
plane-surface $-1 60.634174626911218 0 0 -1 0 0 0 0 1 forward_v I I I I #
coedge $-1 $306 $307 $308 $309 reversed $133 $-1 #
coedge $-1 $310 $135 $137 $219 forward $89 $-1 #
coedge $-1 $135 $310 $306 $311 forward $89 $-1 #
coedge $-1 $308 $138 $135 $216 forward $221 $-1 #
edge $-1 $223 $312 $215 $313 forward #
coedge $-1 $314 $315 $136 $218 forward $210 $-1 #
edge $-1 $316 $222 $217 $317 forward #
edge $-1 $223 $316 $137 $318 forward #
coedge $-1 $138 $308 $314 $319 forward $221 $-1 #
loop $-1 $-1 $308 $209 #
vertex $-1 $218 $320 #
vertex $-1 $139 $321 #
straight-curve $-1 33.30970875067414 12.194593826169832 15.261748828885828 -1 0 0 I I #
coedge $-1 $225 $225 $-1 $322 reversed $142 $-1 #
edge $-1 $323 $323 $143 $324 forward #
vertex $-1 $146 $325 #
ellipse-curve $-1 56.884654955149074 1.8919279435914902 11.240881157576609 0.73135370988377701 0 0.68199835119979291 1.3639967023995858 0 -1.462707419767554 1 I I #
coedge $-1 $229 $229 $-1 $326 reversed $149 $-1 #
edge $-1 $327 $327 $150 $328 forward #
vertex $-1 $153 $329 #
ellipse-curve $-1 56.884654955149074 8.0735274731384976 11.240881157576609 0.73135370988377701 0 0.68199835119979291 1.3639967023995858 0 -1.462707419767554 1 I I #
face $-1 $-1 $330 $43 $-1 $331 reversed single #
loop $-1 $-1 $160 $154 #
plane-surface $-1 0 0 15.261748828885832 0 0 1 1 0 0 forward_v I I I I #
coedge $-1 $332 $333 $334 $335 reversed $155 $-1 #
coedge $-1 $336 $157 $159 $243 forward $103 $-1 #
coedge $-1 $157 $336 $332 $337 forward $103 $-1 #
coedge $-1 $334 $160 $157 $240 forward $234 $-1 #
edge $-1 $246 $338 $239 $339 forward #
coedge $-1 $340 $341 $158 $242 forward $330 $-1 #
edge $-1 $342 $245 $241 $343 forward #
edge $-1 $246 $342 $159 $344 forward #
coedge $-1 $160 $334 $340 $345 forward $234 $-1 #
vertex $-1 $161 $346 #
vertex $-1 $161 $347 #
straight-curve $-1 -63.340826103866164 -3.4330594900017672 15.261748828885828 1 0 0 I I #
coedge $-1 $248 $248 $-1 $348 reversed $164 $-1 #
edge $-1 $349 $349 $165 $350 forward #
vertex $-1 $168 $351 #
ellipse-curve $-1 -51.386528099718539 -0.6192562050042838 9.2562568430529613 -0.54463904215088732 0 0.83867056331134215 0.83867056331134215 0 0.54463904215088732 1 I I #
coedge $-1 $252 $252 $-1 $352 reversed $171 $-1 #
edge $-1 $353 $353 $172 $354 forward #
vertex $-1 $175 $355 #
ellipse-curve $-1 -51.386528099718539 3.6014487224919378 9.2562568430529613 -0.54463904215088732 0 0.83867056331134215 0.83867056331134215 0 0.54463904215088732 1 I I #
face $-1 $-1 $191 $33 $-1 $356 reversed single #
loop $-1 $-1 $272 $176 #
plane-surface $-1 0 41.316434137999295 0 0 -1 0 0 0 -1 forward_v I I I I #
coedge $-1 $357 $270 $273 $358 forward $177 $-1 #
coedge $-1 $276 $179 $180 $264 reversed $117 $-1 #
coedge $-1 $270 $357 $179 $262 reversed $177 $-1 #
edge $-1 $277 $359 $261 $360 forward #
coedge $-1 $181 $180 $357 $361 forward $81 $-1 #
edge $-1 $268 $359 $260 $362 forward #
coedge $-1 $273 $272 $181 $266 reversed $257 $-1 #
edge $-1 $363 $267 $265 $364 forward #
vertex $-1 $183 $365 #
vertex $-1 $279 $366 #
straight-curve $-1 60.634174626911218 0 -15.261748828885832 0 -1 0 I I #
coedge $-1 $259 $261 $184 $271 reversed $177 $-1 #
edge $-1 $274 $277 $270 $367 forward #
coedge $-1 $265 $185 $190 $280 forward $257 $-1 #
coedge $-1 $185 $265 $259 $358 reversed $257 $-1 #
vertex $-1 $186 $368 #
straight-curve $-1 0 41.316434137999295 15.261748828885832 -1 0 0 I I #
coedge $-1 $187 $260 $189 $279 reversed $117 $-1 #
vertex $-1 $271 $369 #
straight-curve $-1 0 -41.316434137999295 15.261748828885832 1 0 0 I I #
edge $-1 $192 $268 $189 $370 forward #
edge $-1 $193 $267 $190 $371 forward #
point $-1 60.634174626911218 -41.316434137999295 15.261748828885832 #
point $-1 60.634174626911218 41.316434137999295 15.261748828885832 #
face $-1 $-1 $299 $35 $-1 $372 reversed single #
loop $-1 $-1 $373 $195 #
plane-surface $-1 0 -52.686439344348372 -4.0046094787034683 0 1 0 0 0 1 forward_v I I I I #
coedge $-1 $374 $296 $298 $375 forward $196 $-1 #
coedge $-1 $198 $205 $376 $377 forward $125 $-1 #
coedge $-1 $378 $203 $198 $289 reversed $299 $-1 #
edge $-1 $379 $207 $288 $380 forward #
coedge $-1 $200 $199 $373 $381 reversed $85 $-1 #
coedge $-1 $296 $374 $199 $292 forward $196 $-1 #
edge $-1 $382 $294 $199 $383 forward #
edge $-1 $206 $384 $200 $385 forward #
vertex $-1 $201 $386 #
straight-curve $-1 -60.634174626911218 -41.316434137999295 0 0 0 -1 I I #
coedge $-1 $286 $291 $202 $297 reversed $196 $-1 #
edge $-1 $300 $294 $296 $387 forward #
coedge $-1 $203 $378 $286 $375 reversed $299 $-1 #
loop $-1 $-1 $203 $283 #
vertex $-1 $204 $388 #
straight-curve $-1 60.634174626911218 -41.316434137999295 0 0 0 1 I I #
point $-1 -60.634174626911218 -41.316434137999295 0.15099979972306699 #
point $-1 60.634174626911218 -41.316434137999295 0.15099979972306699 #
plane-surface $-1 0 0 15.261748828885832 0 0 1 1 0 0 forward_v I I I I #
coedge $-1 $315 $314 $307 $389 forward $210 $-1 #
coedge $-1 $307 $212 $214 $311 reversed $133 $-1 #
coedge $-1 $212 $306 $305 $389 reversed $133 $-1 #
coedge $-1 $220 $215 $212 $309 forward $221 $-1 #
edge $-1 $312 $390 $308 $391 forward #
coedge $-1 $214 $213 $315 $392 reversed $89 $-1 #
edge $-1 $393 $312 $306 $394 forward #
vertex $-1 $216 $395 #
straight-curve $-1 53.135135283386951 2.4913638541824952 15.261748828885821 0 -1 0 I I #
coedge $-1 $305 $217 $220 $319 reversed $210 $-1 #
coedge $-1 $217 $305 $310 $392 forward $210 $-1 #
vertex $-1 $218 $396 #
straight-curve $-1 60.634174626911218 12.194593826169832 89.307442424179769 0 0 1 I I #
straight-curve $-1 -22.070639616916324 12.194593826169832 95.910070604531995 0.68199835119979291 0 -0.73135370988377701 I I #
edge $-1 $390 $222 $314 $397 forward #
point $-1 60.634174626911218 12.194593826169832 15.261748828885832 #
point $-1 53.135135283386944 12.194593826169832 15.261748828885828 #
edge $-1 $398 $398 $225 $-1 forward #
vertex $-1 $226 $399 #
ellipse-curve $-1 54.461748658487082 1.8919279435914902 8.9814845385348239 0.73135370988377701 0 0.68199835119979291 1.3639967023995858 0 -1.462707419767554 1 I I #
point $-1 58.248651657548663 1.8919279435914902 9.778173737809059 #
edge $-1 $400 $400 $229 $-1 forward #
vertex $-1 $230 $401 #
ellipse-curve $-1 54.461748658487082 8.0735274731384976 8.9814845385348239 0.73135370988377701 0 0.68199835119979291 1.3639967023995858 0 -1.462707419767554 1 I I #
point $-1 58.248651657548663 8.0735274731384976 9.778173737809059 #
loop $-1 $-1 $241 $233 #
plane-surface $-1 -60.634174626911218 0 0 1 0 0 0 0 -1 forward_v I I I I #
coedge $-1 $333 $236 $238 $337 reversed $155 $-1 #
coedge $-1 $236 $332 $402 $403 reversed $155 $-1 #
coedge $-1 $244 $239 $236 $335 forward $234 $-1 #
edge $-1 $338 $404 $334 $405 forward #
coedge $-1 $238 $237 $341 $406 reversed $103 $-1 #
edge $-1 $407 $338 $332 $408 forward #
vertex $-1 $240 $409 #
straight-curve $-1 -42.138881572525854 0.74554812937191528 15.261748828885832 0 1 0 I I #
coedge $-1 $402 $241 $244 $345 reversed $330 $-1 #
coedge $-1 $241 $402 $336 $406 forward $330 $-1 #
vertex $-1 $242 $410 #
straight-curve $-1 -60.634174626911218 -3.4330594900017672 52.477479818879971 0 0 1 I I #
straight-curve $-1 -60.634174626911204 -3.4330594900017672 3.2507648572201049 -0.83867056331134215 0 -0.54463904215088732 I I #
edge $-1 $404 $245 $340 $411 forward #
point $-1 -60.634174626911218 -3.4330594900017672 15.261748828885832 #
point $-1 -42.138881572525854 -3.4330594900017672 15.26174882888583 #
edge $-1 $412 $412 $248 $-1 forward #
vertex $-1 $249 $413 #
ellipse-curve $-1 -50.722413199692951 -0.6192562050042838 8.2336095956057047 -0.54463904215088732 0 0.83867056331134215 0.83867056331134215 0 0.54463904215088732 1 I I #
point $-1 -50.547857536407207 -0.6192562050042838 9.800895885203861 #
edge $-1 $414 $414 $252 $-1 forward #
vertex $-1 $253 $415 #
ellipse-curve $-1 -50.722413199692951 3.6014487224919378 8.2336095956057047 -0.54463904215088732 0 0.83867056331134215 0.83867056331134215 0 0.54463904215088732 1 I I #
point $-1 -50.547857536407207 3.6014487224919378 9.800895885203861 #
plane-surface $-1 60.634174626911218 0 0 -1 0 0 0 0 1 forward_v I I I I #
coedge $-1 $261 $259 $263 $361 reversed $177 $-1 #
edge $-1 $274 $363 $273 $416 forward #
vertex $-1 $361 $417 #
straight-curve $-1 -60.634174626911218 -41.316434137999295 0 0 0 -1 I I #
edge $-1 $359 $363 $357 $418 forward #
straight-curve $-1 0 -41.316434137999295 -15.261748828885832 -1 0 0 I I #
vertex $-1 $266 $419 #
straight-curve $-1 0 41.316434137999295 -15.261748828885832 1 0 0 I I #
point $-1 60.634174626911218 41.316434137999295 -15.261748828885832 #
point $-1 60.634174626911218 -41.316434137999295 -15.261748828885832 #
straight-curve $-1 -60.634174626911218 0 15.261748828885832 0 -1 0 I I #
point $-1 -60.634174626911218 41.316434137999295 15.261748828885832 #
point $-1 -60.634174626911218 -41.316434137999295 15.261748828885832 #
straight-curve $-1 60.634174626911218 -41.316434137999295 0 0 0 -1 I I #
straight-curve $-1 60.634174626911218 41.316434137999295 0 0 0 -1 I I #
plane-surface $-1 60.634174626911218 0 0 -1 0 0 0 0 1 forward_v I I I I #
coedge $-1 $420 $376 $290 $381 forward $284 $-1 #
coedge $-1 $291 $286 $420 $421 forward $196 $-1 #
edge $-1 $300 $422 $298 $423 forward #
coedge $-1 $373 $424 $287 $377 reversed $284 $-1 #
edge $-1 $384 $379 $376 $425 forward #
coedge $-1 $298 $288 $424 $426 forward $299 $-1 #
vertex $-1 $289 $427 #
straight-curve $-1 60.634174626911218 -47.001436741173833 0.15099979972306699 0 1 0 I I #
edge $-1 $384 $382 $290 $428 forward #
vertex $-1 $292 $429 #
straight-curve $-1 -60.634174626911218 -47.001436741173833 -8.1602187571300036 0 1 0 I I #
vertex $-1 $293 $430 #
straight-curve $-1 -60.634174626911218 -47.001436741173833 0.15099979972306699 0 -1 0 I I #
point $-1 -60.634174626911218 -41.316434137999295 -8.1602187571300036 #
straight-curve $-1 0 -41.316434137999295 -8.1602187571300036 -1 0 0 I I #
point $-1 60.634174626911218 -41.316434137999295 -8.1602187571300036 #
edge $-1 $390 $393 $305 $431 forward #
vertex $-1 $319 $432 #
straight-curve $-1 33.30970875067414 -2.2291384094398516 15.261748828885828 1 0 0 I I #
edge $-1 $393 $316 $315 $433 forward #
vertex $-1 $392 $434 #
straight-curve $-1 -22.070639616916324 -2.2291384094398516 95.910070604531995 -0.68199835119979291 0 0.73135370988377701 I I #
point $-1 53.135135283386944 -2.2291384094398516 15.261748828885828 #
point $-1 60.634174626911218 12.194593826169832 7.2200134862673906 #
straight-curve $-1 60.634174626911218 0 15.261748828885832 0 1 0 I I #
vertex $-1 $322 $435 #
point $-1 55.825745360886671 1.8919279435914902 7.5187771187672698 #
vertex $-1 $326 $436 #
point $-1 55.825745360886671 8.0735274731384976 7.5187771187672698 #
coedge $-1 $341 $340 $333 $403 forward $330 $-1 #
edge $-1 $404 $407 $402 $437 forward #
vertex $-1 $345 $438 #
straight-curve $-1 -63.340826103866164 6.4152520074894284 15.261748828885828 -1 0 0 I I #
edge $-1 $407 $342 $341 $439 forward #
vertex $-1 $406 $440 #
straight-curve $-1 -60.634174626911204 6.4152520074894284 3.2507648572201049 0.83867056331134215 0 0.54463904215088732 I I #
point $-1 -42.138881572525854 6.4152520074894284 15.26174882888583 #
point $-1 -60.634174626911218 -3.4330594900017672 3.2507648572200956 #
straight-curve $-1 -60.634174626911218 0 15.261748828885832 0 -1 0 I I #
vertex $-1 $348 $441 #
point $-1 -49.883742636381605 -0.6192562050042838 8.778248637756592 #
vertex $-1 $352 $442 #
point $-1 -49.883742636381605 3.6014487224919378 8.778248637756592 #
straight-curve $-1 -60.634174626911218 41.316434137999295 0 0 0 -1 I I #
point $-1 -60.634174626911218 -41.316434137999295 -15.261748828885832 #
straight-curve $-1 -60.634174626911218 0 -15.261748828885832 0 1 0 I I #
point $-1 -60.634174626911218 41.316434137999295 -15.261748828885832 #
coedge $-1 $424 $373 $374 $421 reversed $284 $-1 #
edge $-1 $422 $382 $420 $443 forward #
vertex $-1 $426 $444 #
straight-curve $-1 60.634174626911218 -47.001436741173833 -8.1602187571300036 0 -1 0 I I #
coedge $-1 $376 $420 $378 $426 reversed $284 $-1 #
straight-curve $-1 0 -52.686439344348372 0.15099979972306699 1 0 0 I I #
edge $-1 $379 $422 $378 $445 forward #
point $-1 60.634174626911218 -52.686439344348372 0.15099979972306699 #
straight-curve $-1 -60.634174626911218 -52.686439344348372 -4.0046094787034683 0 0 -1 I I #
point $-1 -60.634174626911218 -52.686439344348372 -8.1602187571300036 #
point $-1 -60.634174626911218 -52.686439344348372 0.15099979972306699 #
straight-curve $-1 60.634174626911218 -2.2291384094398516 89.307442424179769 0 0 -1 I I #
point $-1 60.634174626911218 -2.2291384094398516 15.261748828885832 #
straight-curve $-1 60.634174626911218 2.4913638541824952 7.2200134862673906 0 1 0 I I #
point $-1 60.634174626911218 -2.2291384094398516 7.2200134862673906 #
point $-1 52.999041238719528 1.8919279435914902 7.6174878361352381 #
point $-1 52.999041238719528 8.0735274731384976 7.6174878361352381 #
straight-curve $-1 -60.634174626911218 6.4152520074894284 52.477479818879971 0 0 -1 I I #
point $-1 -60.634174626911218 6.4152520074894284 15.261748828885832 #
straight-curve $-1 -60.634174626911218 0.74554812937191528 3.2507648572200969 0 -1 0 I I #
point $-1 -60.634174626911218 6.4152520074894284 3.2507648572200956 #
point $-1 -50.177774157542061 -0.6192562050042838 7.3949390322943618 #
point $-1 -50.177774157542061 3.6014487224919378 7.3949390322943618 #
straight-curve $-1 0 -52.686439344348372 -8.1602187571300036 -1 0 0 I I #
point $-1 60.634174626911218 -52.686439344348372 -8.1602187571300036 #
straight-curve $-1 60.634174626911218 -52.686439344348372 -4.0046094787034683 0 0 -1 I I #
End-of-ACIS-data 