600 0 14 0           
94 GICL ACIS Healer - Source: /gicl/data5/repository/Drexel/SM99-DATA/part89.smdg.delta.sat - 6 0 18 ACIS 6.0.3 Solaris 24 Sat Apr 13 20:46:33 2002 
1 9.999999999999999547e-07 1.000000000000000036e-10 
body $-1 $14 $-1 $-1 #
body $-1 $15 $-1 $-1 #
body $-1 $16 $-1 $-1 #
body $-1 $17 $-1 $-1 #
body $-1 $18 $-1 $-1 #
body $-1 $19 $-1 $-1 #
body $-1 $20 $-1 $-1 #
body $-1 $21 $-1 $-1 #
body $-1 $22 $-1 $-1 #
body $-1 $23 $-1 $-1 #
body $-1 $24 $-1 $-1 #
body $-1 $25 $-1 $-1 #
body $-1 $26 $-1 $-1 #
body $-1 $27 $-1 $-1 #
lump $-1 $-1 $28 $0 #
lump $-1 $-1 $29 $1 #
lump $-1 $-1 $30 $2 #
lump $-1 $-1 $31 $3 #
lump $-1 $-1 $32 $4 #
lump $-1 $-1 $33 $5 #
lump $-1 $-1 $34 $6 #
lump $-1 $-1 $35 $7 #
lump $-1 $-1 $36 $8 #
lump $-1 $-1 $37 $9 #
lump $-1 $-1 $38 $10 #
lump $-1 $-1 $39 $11 #
lump $-1 $-1 $40 $12 #
lump $-1 $-1 $41 $13 #
shell $-1 $-1 $-1 $42 $-1 $14 #
shell $-1 $-1 $-1 $43 $-1 $15 #
shell $-1 $-1 $-1 $44 $-1 $16 #
shell $-1 $-1 $-1 $45 $-1 $17 #
shell $-1 $-1 $-1 $46 $-1 $18 #
shell $-1 $-1 $-1 $47 $-1 $19 #
shell $-1 $-1 $-1 $48 $-1 $20 #
shell $-1 $-1 $-1 $49 $-1 $21 #
shell $-1 $-1 $-1 $50 $-1 $22 #
shell $-1 $-1 $-1 $51 $-1 $23 #
shell $-1 $-1 $-1 $52 $-1 $24 #
shell $-1 $-1 $-1 $53 $-1 $25 #
shell $-1 $-1 $-1 $54 $-1 $26 #
shell $-1 $-1 $-1 $55 $-1 $27 #
face $-1 $56 $57 $28 $-1 $58 forward single #
face $-1 $59 $60 $29 $-1 $61 forward single #
face $-1 $62 $63 $30 $-1 $64 reversed single #
face $-1 $65 $66 $31 $-1 $67 forward single #
face $-1 $68 $69 $32 $-1 $70 forward single #
face $-1 $71 $72 $33 $-1 $73 reversed single #
face $-1 $74 $75 $34 $-1 $76 forward single #
face $-1 $77 $78 $35 $-1 $79 forward single #
face $-1 $80 $81 $36 $-1 $82 reversed single #
face $-1 $83 $84 $37 $-1 $85 forward single #
face $-1 $86 $87 $38 $-1 $88 forward single #
face $-1 $89 $90 $39 $-1 $91 reversed single #
face $-1 $92 $93 $40 $-1 $94 forward single #
face $-1 $95 $96 $41 $-1 $97 forward single #
face $-1 $98 $99 $28 $-1 $100 reversed single #
loop $-1 $-1 $101 $42 #
plane-surface $-1 50.0979644154179482 22.73435748379463206 11.5498612067394788 0 0 1 1 0 0 forward_v I I I I #
face $-1 $102 $103 $29 $-1 $104 reversed single #
loop $-1 $-1 $105 $43 #
plane-surface $-1 2.030480193005118394 22.73435748379463206 6.248305373171171517 0 0 1 1 0 0 forward_v I I I I #
face $-1 $106 $107 $30 $-1 $108 reversed single #
loop $-1 $-1 $109 $44 #
plane-surface $-1 10.87658398371364399 85.95841217468723983 108.5797445814390585 1 0 0 0 -0.7193398085775676298 -0.6946583619273494214 forward_v I I I I #
face $-1 $110 $111 $31 $-1 $112 forward single #
loop $-1 $113 $114 $45 #
cone-surface $-1 14.463732817827605 42.3721950873752462 8.381547787597526167 0 -0.7193398085775676298 -0.6946583619273494214 1 0 0 1 I I 0 1 1 forward I I I I #
face $-1 $115 $116 $32 $-1 $117 forward single #
loop $-1 $118 $119 $46 #
cone-surface $-1 19.84445606899853942 42.3721950873752462 8.381547787597526167 0 -0.7193398085775676298 -0.6946583619273494214 1 0 0 1 I I 0 1 1 forward I I I I #
face $-1 $120 $121 $33 $-1 $122 reversed single #
loop $-1 $-1 $123 $47 #
plane-surface $-1 34.19281742705364024 85.95841217468723983 108.5797445814390585 1 0 0 0 -0.7193398085775676298 -0.6946583619273494214 forward_v I I I I #
face $-1 $124 $125 $34 $-1 $126 forward single #
loop $-1 $127 $128 $48 #
cone-surface $-1 37.77996626116760126 42.3721950873752462 8.381547787597526167 0 -0.7193398085775676298 -0.6946583619273494214 1 0 0 1 I I 0 1 1 forward I I I I #
face $-1 $129 $130 $35 $-1 $131 forward single #
loop $-1 $132 $133 $49 #
cone-surface $-1 43.16068951233853568 42.3721950873752462 8.381547787597526167 0 -0.7193398085775676298 -0.6946583619273494214 1 0 0 1 I I 0 1 1 forward I I I I #
face $-1 $134 $135 $36 $-1 $136 reversed single #
loop $-1 $-1 $137 $50 #
plane-surface $-1 57.5090508703936365 85.95841217468723983 108.5797445814390585 1 0 0 0 -0.7193398085775676298 -0.6946583619273494214 forward_v I I I I #
face $-1 $138 $139 $37 $-1 $140 forward single #
loop $-1 $141 $142 $51 #
cone-surface $-1 61.09619970450759752 42.3721950873752462 8.381547787597526167 0 -0.7193398085775676298 -0.6946583619273494214 1 0 0 1 I I 0 1 1 forward I I I I #
face $-1 $143 $144 $38 $-1 $145 forward single #
loop $-1 $146 $147 $52 #
cone-surface $-1 66.47692295567853193 42.3721950873752462 8.381547787597526167 0 -0.7193398085775676298 -0.6946583619273494214 1 0 0 1 I I 0 1 1 forward I I I I #
face $-1 $148 $149 $39 $-1 $150 reversed single #
loop $-1 $-1 $151 $53 #
plane-surface $-1 80.82528431373363276 85.95841217468723983 108.5797445814390585 1 0 0 0 -0.7193398085775676298 -0.6946583619273494214 forward_v I I I I #
face $-1 $152 $153 $40 $-1 $154 forward single #
loop $-1 $155 $156 $54 #
cone-surface $-1 84.41243314784759377 42.3721950873752462 8.381547787597526167 0 -0.7193398085775676298 -0.6946583619273494214 1 0 0 1 I I 0 1 1 forward I I I I #
face $-1 $157 $158 $41 $-1 $159 forward single #
loop $-1 $160 $161 $55 #
cone-surface $-1 89.79315639901852819 42.3721950873752462 8.381547787597526167 0 -0.7193398085775676298 -0.6946583619273494214 1 0 0 1 I I 0 1 1 forward I I I I #
face $-1 $162 $163 $28 $-1 $164 reversed single #
loop $-1 $-1 $165 $56 #
plane-surface $-1 50.0979644154179482 22.73435748379463206 0 0 0 1 1 0 0 forward_v I I I I #
coedge $-1 $166 $167 $168 $169 forward $57 $-1 #
face $-1 $170 $171 $29 $-1 $172 reversed single #
loop $-1 $-1 $173 $59 #
plane-surface $-1 2.030480193005118394 22.73435748379463206 3.248305373171171517 0 0 1 1 0 0 forward_v I I I I #
coedge $-1 $174 $175 $176 $177 forward $60 $-1 #
face $-1 $178 $179 $30 $-1 $180 reversed single #
loop $-1 $-1 $181 $62 #
plane-surface $-1 17.15409444341307221 13.88349190926216181 38.97780478802131654 0 0.7193398085775676298 0.6946583619273494214 1 0 0 forward_v I I I I #
coedge $-1 $182 $183 $184 $185 reversed $63 $-1 #
face $-1 $-1 $186 $31 $-1 $187 forward single #
loop $-1 $188 $189 $65 #
cone-surface $-1 14.463732817827605 41.4651885301290335 7.505661757377811938 0 -0.7193398085775676298 -0.6946583619273494214 0.5 0 0 1 I I -0.7071067811865474617 0.7071067811865474617 0.5 forward I I I I #
loop $-1 $-1 $190 $45 #
coedge $-1 $114 $114 $191 $192 reversed $66 $-1 #
face $-1 $-1 $193 $32 $-1 $194 forward single #
loop $-1 $195 $196 $68 #
cone-surface $-1 19.84445606899853942 41.4651885301290335 7.505661757377811938 0 -0.7193398085775676298 -0.6946583619273494214 0.5 0 0 1 I I -0.7071067811865474617 0.7071067811865474617 0.5 forward I I I I #
loop $-1 $-1 $197 $46 #
coedge $-1 $119 $119 $198 $199 reversed $69 $-1 #
face $-1 $200 $201 $33 $-1 $202 reversed single #
loop $-1 $-1 $203 $71 #
plane-surface $-1 40.47032788675306847 13.88349190926216181 38.97780478802131654 0 0.7193398085775676298 0.6946583619273494214 1 0 0 forward_v I I I I #
coedge $-1 $204 $205 $206 $207 reversed $72 $-1 #
face $-1 $-1 $208 $34 $-1 $209 forward single #
loop $-1 $210 $211 $74 #
cone-surface $-1 37.77996626116760126 41.4651885301290335 7.505661757377811938 0 -0.7193398085775676298 -0.6946583619273494214 0.5 0 0 1 I I -0.7071067811865474617 0.7071067811865474617 0.5 forward I I I I #
loop $-1 $-1 $212 $48 #
coedge $-1 $128 $128 $213 $214 reversed $75 $-1 #
face $-1 $-1 $215 $35 $-1 $216 forward single #
loop $-1 $217 $218 $77 #
cone-surface $-1 43.16068951233853568 41.4651885301290335 7.505661757377811938 0 -0.7193398085775676298 -0.6946583619273494214 0.5 0 0 1 I I -0.7071067811865474617 0.7071067811865474617 0.5 forward I I I I #
loop $-1 $-1 $219 $49 #
coedge $-1 $133 $133 $220 $221 reversed $78 $-1 #
face $-1 $222 $223 $36 $-1 $224 reversed single #
loop $-1 $-1 $225 $80 #
plane-surface $-1 63.78656133009306473 13.88349190926216181 38.97780478802131654 0 0.7193398085775676298 0.6946583619273494214 1 0 0 forward_v I I I I #
coedge $-1 $226 $227 $228 $229 reversed $81 $-1 #
face $-1 $-1 $230 $37 $-1 $231 forward single #
loop $-1 $232 $233 $83 #
cone-surface $-1 61.09619970450759752 41.4651885301290335 7.505661757377811938 0 -0.7193398085775676298 -0.6946583619273494214 0.5 0 0 1 I I -0.7071067811865474617 0.7071067811865474617 0.5 forward I I I I #
loop $-1 $-1 $234 $51 #
coedge $-1 $142 $142 $235 $236 reversed $84 $-1 #
face $-1 $-1 $237 $38 $-1 $238 forward single #
loop $-1 $239 $240 $86 #
cone-surface $-1 66.47692295567853193 41.4651885301290335 7.505661757377811938 0 -0.7193398085775676298 -0.6946583619273494214 0.5 0 0 1 I I -0.7071067811865474617 0.7071067811865474617 0.5 forward I I I I #
loop $-1 $-1 $241 $52 #
coedge $-1 $147 $147 $242 $243 reversed $87 $-1 #
face $-1 $244 $245 $39 $-1 $246 reversed single #
loop $-1 $-1 $247 $89 #
plane-surface $-1 87.10279477343306098 13.88349190926216181 38.97780478802131654 0 0.7193398085775676298 0.6946583619273494214 1 0 0 forward_v I I I I #
coedge $-1 $248 $249 $250 $251 reversed $90 $-1 #
face $-1 $-1 $252 $40 $-1 $253 forward single #
loop $-1 $254 $255 $92 #
cone-surface $-1 84.41243314784759377 41.4651885301290335 7.505661757377811938 0 -0.7193398085775676298 -0.6946583619273494214 0.5 0 0 1 I I -0.7071067811865474617 0.7071067811865474617 0.5 forward I I I I #
loop $-1 $-1 $256 $54 #
coedge $-1 $156 $156 $257 $258 reversed $93 $-1 #
face $-1 $-1 $259 $41 $-1 $260 forward single #
loop $-1 $261 $262 $95 #
cone-surface $-1 89.79315639901852819 41.4651885301290335 7.505661757377811938 0 -0.7193398085775676298 -0.6946583619273494214 0.5 0 0 1 I I -0.7071067811865474617 0.7071067811865474617 0.5 forward I I I I #
loop $-1 $-1 $263 $55 #
coedge $-1 $161 $161 $264 $265 reversed $96 $-1 #
face $-1 $266 $267 $28 $-1 $268 reversed single #
loop $-1 $-1 $269 $98 #
plane-surface $-1 50.0979644154179482 0 5.774930603369739401 0 1 0 0 0 1 forward_v I I I I #
coedge $-1 $270 $271 $272 $273 forward $99 $-1 #
coedge $-1 $274 $101 $275 $276 forward $57 $-1 #
coedge $-1 $101 $274 $277 $278 forward $57 $-1 #
coedge $-1 $279 $280 $101 $169 reversed $281 $-1 #
edge $-1 $282 -22.73435748379463206 $283 22.73435748379463206 $168 $284 forward 7 unknown #
face $-1 $285 $286 $29 $-1 $287 reversed single #
loop $-1 $-1 $288 $102 #
plane-surface $-1 4.060960386010236789 22.73435748379463206 4.748305373171171517 -1 0 0 0 0 1 forward_v I I I I #
coedge $-1 $289 $290 $291 $292 forward $103 $-1 #
coedge $-1 $293 $105 $294 $295 reversed $60 $-1 #
coedge $-1 $105 $293 $296 $297 reversed $60 $-1 #
coedge $-1 $288 $298 $105 $177 reversed $171 $-1 #
edge $-1 $299 -22.73435748379463206 $300 22.73435748379463206 $176 $301 forward 7 unknown #
face $-1 $302 $303 $30 $-1 $304 forward single #
loop $-1 $-1 $305 $106 #
plane-surface $-1 23.43160490311250044 85.95841217468723983 108.5797445814390585 -1 0 0 0 0.7193398085775676298 0.6946583619273494214 forward_v I I I I #
coedge $-1 $306 $307 $308 $309 reversed $107 $-1 #
coedge $-1 $183 $109 $310 $311 reversed $63 $-1 #
coedge $-1 $109 $182 $306 $312 reversed $63 $-1 #
coedge $-1 $308 $313 $109 $185 forward $303 $-1 #
edge $-1 $314 8.87766986165166827 $315 13.9760363161648371 $184 $316 forward 7 unknown #
loop $-1 $-1 $191 $110 #
plane-surface $-1 17.15409444341307221 13.88349190926216181 38.97780478802131654 0 0.7193398085775676298 0.6946583619273494214 1 0 0 forward_v I I I I #
loop $-1 $-1 $317 $65 #
coedge $-1 $189 $189 $190 $318 reversed $111 $-1 #
coedge $-1 $190 $190 $189 $318 forward $113 $-1 #
coedge $-1 $191 $191 $114 $192 forward $186 $-1 #
edge $-1 $319 -4.585100076517628244e-15 $319 6.283185307179581791 $191 $320 forward 7 unknown #
loop $-1 $-1 $198 $115 #
plane-surface $-1 17.15409444341307221 13.88349190926216181 38.97780478802131654 0 0.7193398085775676298 0.6946583619273494214 1 0 0 forward_v I I I I #
loop $-1 $-1 $321 $68 #
coedge $-1 $196 $196 $197 $322 reversed $116 $-1 #
coedge $-1 $197 $197 $196 $322 forward $118 $-1 #
coedge $-1 $198 $198 $119 $199 forward $193 $-1 #
edge $-1 $323 -4.585100076517628244e-15 $323 6.283185307179581791 $198 $324 forward 7 unknown #
face $-1 $325 $326 $33 $-1 $327 forward single #
loop $-1 $-1 $328 $120 #
plane-surface $-1 46.74783834645249669 85.95841217468723983 108.5797445814390585 -1 0 0 0 0.7193398085775676298 0.6946583619273494214 forward_v I I I I #
coedge $-1 $329 $330 $331 $332 reversed $121 $-1 #
coedge $-1 $205 $123 $333 $334 reversed $72 $-1 #
coedge $-1 $123 $204 $329 $335 reversed $72 $-1 #
coedge $-1 $331 $336 $123 $207 forward $326 $-1 #
edge $-1 $337 8.87766986165166827 $338 13.9760363161648371 $206 $339 forward 7 unknown #
loop $-1 $-1 $213 $124 #
plane-surface $-1 40.47032788675306847 13.88349190926216181 38.97780478802131654 0 0.7193398085775676298 0.6946583619273494214 1 0 0 forward_v I I I I #
loop $-1 $-1 $340 $74 #
coedge $-1 $211 $211 $212 $341 reversed $125 $-1 #
coedge $-1 $212 $212 $211 $341 forward $127 $-1 #
coedge $-1 $213 $213 $128 $214 forward $208 $-1 #
edge $-1 $342 -4.585100076517628244e-15 $342 6.283185307179581791 $213 $343 forward 7 unknown #
loop $-1 $-1 $220 $129 #
plane-surface $-1 40.47032788675306847 13.88349190926216181 38.97780478802131654 0 0.7193398085775676298 0.6946583619273494214 1 0 0 forward_v I I I I #
loop $-1 $-1 $344 $77 #
coedge $-1 $218 $218 $219 $345 reversed $130 $-1 #
coedge $-1 $219 $219 $218 $345 forward $132 $-1 #
coedge $-1 $220 $220 $133 $221 forward $215 $-1 #
edge $-1 $346 -4.585100076517628244e-15 $346 6.283185307179581791 $220 $347 forward 7 unknown #
face $-1 $348 $349 $36 $-1 $350 forward single #
loop $-1 $-1 $351 $134 #
plane-surface $-1 70.06407178979249295 85.95841217468723983 108.5797445814390585 -1 0 0 0 0.7193398085775676298 0.6946583619273494214 forward_v I I I I #
coedge $-1 $352 $353 $354 $355 reversed $135 $-1 #
coedge $-1 $227 $137 $356 $357 reversed $81 $-1 #
coedge $-1 $137 $226 $352 $358 reversed $81 $-1 #
coedge $-1 $354 $359 $137 $229 forward $349 $-1 #
edge $-1 $360 8.87766986165166827 $361 13.9760363161648371 $228 $362 forward 7 unknown #
loop $-1 $-1 $235 $138 #
plane-surface $-1 63.78656133009306473 13.88349190926216181 38.97780478802131654 0 0.7193398085775676298 0.6946583619273494214 1 0 0 forward_v I I I I #
loop $-1 $-1 $363 $83 #
coedge $-1 $233 $233 $234 $364 reversed $139 $-1 #
coedge $-1 $234 $234 $233 $364 forward $141 $-1 #
coedge $-1 $235 $235 $142 $236 forward $230 $-1 #
edge $-1 $365 -4.585100076517628244e-15 $365 6.283185307179581791 $235 $366 forward 7 unknown #
loop $-1 $-1 $242 $143 #
plane-surface $-1 63.78656133009306473 13.88349190926216181 38.97780478802131654 0 0.7193398085775676298 0.6946583619273494214 1 0 0 forward_v I I I I #
loop $-1 $-1 $367 $86 #
coedge $-1 $240 $240 $241 $368 reversed $144 $-1 #
coedge $-1 $241 $241 $240 $368 forward $146 $-1 #
coedge $-1 $242 $242 $147 $243 forward $237 $-1 #
edge $-1 $369 -4.585100076517628244e-15 $369 6.283185307179581791 $242 $370 forward 7 unknown #
face $-1 $371 $372 $39 $-1 $373 forward single #
loop $-1 $-1 $374 $148 #
plane-surface $-1 93.38030523313248921 85.95841217468723983 108.5797445814390585 -1 0 0 0 0.7193398085775676298 0.6946583619273494214 forward_v I I I I #
coedge $-1 $375 $376 $377 $378 reversed $149 $-1 #
coedge $-1 $249 $151 $379 $380 reversed $90 $-1 #
coedge $-1 $151 $248 $375 $381 reversed $90 $-1 #
coedge $-1 $377 $382 $151 $251 forward $372 $-1 #
edge $-1 $383 8.87766986165166827 $384 13.9760363161648371 $250 $385 forward 7 unknown #
loop $-1 $-1 $257 $152 #
plane-surface $-1 87.10279477343306098 13.88349190926216181 38.97780478802131654 0 0.7193398085775676298 0.6946583619273494214 1 0 0 forward_v I I I I #
loop $-1 $-1 $386 $92 #
coedge $-1 $255 $255 $256 $387 reversed $153 $-1 #
coedge $-1 $256 $256 $255 $387 forward $155 $-1 #
coedge $-1 $257 $257 $156 $258 forward $252 $-1 #
edge $-1 $388 -4.585100076517628244e-15 $388 6.283185307179581791 $257 $389 forward 7 unknown #
loop $-1 $-1 $264 $157 #
plane-surface $-1 87.10279477343306098 13.88349190926216181 38.97780478802131654 0 0.7193398085775676298 0.6946583619273494214 1 0 0 forward_v I I I I #
loop $-1 $-1 $390 $95 #
coedge $-1 $262 $262 $263 $391 reversed $158 $-1 #
coedge $-1 $263 $263 $262 $391 forward $160 $-1 #
coedge $-1 $264 $264 $161 $265 forward $259 $-1 #
edge $-1 $392 -4.585100076517628244e-15 $392 6.283185307179581791 $264 $393 forward 7 unknown #
face $-1 $394 $395 $28 $-1 $396 reversed single #
loop $-1 $-1 $397 $162 #
plane-surface $-1 0 22.73435748379463206 5.774930603369739401 1 0 0 0 0 -1 forward_v I I I I #
coedge $-1 $398 $277 $399 $400 forward $163 $-1 #
coedge $-1 $401 $165 $398 $402 forward $99 $-1 #
coedge $-1 $165 $401 $403 $404 forward $99 $-1 #
coedge $-1 $280 $279 $165 $273 reversed $281 $-1 #
edge $-1 $405 -22.73435748379463206 $406 22.73435748379463206 $272 $407 forward 7 unknown #
coedge $-1 $167 $166 $408 $409 forward $57 $-1 #
coedge $-1 $410 $411 $166 $276 reversed $395 $-1 #
edge $-1 $283 -50.0979644154179482 $412 50.0979644154179482 $275 $413 forward 7 unknown #
coedge $-1 $269 $414 $167 $278 reversed $163 $-1 #
edge $-1 $415 -50.0979644154179482 $282 50.0979644154179482 $277 $416 forward 7 unknown #
coedge $-1 $272 $168 $414 $417 forward $281 $-1 #
coedge $-1 $168 $272 $410 $418 reversed $281 $-1 #
loop $-1 $-1 $279 $394 #
vertex $-1 $169 $419 #
vertex $-1 $169 $420 #
straight-curve $-1 100.1959288308358964 22.73435748379463206 11.5498612067394788 0 1 0 I I #
face $-1 $421 $422 $29 $-1 $423 reversed single #
loop $-1 $-1 $424 $170 #
plane-surface $-1 50.0979644154179482 0 5.774930603369739401 0 1 0 0 0 1 forward_v I I I I #
coedge $-1 $291 $176 $425 $426 reversed $171 $-1 #
coedge $-1 $427 $173 $424 $428 reversed $103 $-1 #
coedge $-1 $173 $427 $429 $430 reversed $103 $-1 #
coedge $-1 $298 $288 $173 $292 reversed $171 $-1 #
edge $-1 $431 -22.73435748379463206 $432 22.73435748379463206 $291 $433 forward 7 unknown #
coedge $-1 $175 $174 $434 $435 reversed $60 $-1 #
coedge $-1 $436 $437 $174 $295 forward $438 $-1 #
edge $-1 $439 -26.0642223042115333 $300 -22.00326191820129651 $294 $440 forward 7 unknown #
coedge $-1 $441 $425 $175 $297 forward $286 $-1 #
edge $-1 $299 22.00326191820129651 $442 26.0642223042115333 $296 $443 forward 7 unknown #
coedge $-1 $176 $291 $436 $444 reversed $171 $-1 #
vertex $-1 $297 $445 #
vertex $-1 $295 $446 #
straight-curve $-1 4.060960386010236789 22.73435748379463206 6.248305373171171517 0 1 0 I I #
face $-1 $-1 $447 $30 $-1 $448 reversed single #
loop $-1 $-1 $184 $178 #
plane-surface $-1 50.0979644154179482 22.73435748379463206 11.5498612067394788 0 0 1 1 0 0 forward_v I I I I #
coedge $-1 $449 $450 $451 $452 reversed $179 $-1 #
coedge $-1 $453 $181 $183 $312 forward $107 $-1 #
coedge $-1 $181 $453 $449 $454 forward $107 $-1 #
coedge $-1 $451 $184 $181 $309 forward $303 $-1 #
edge $-1 $315 -22.74944544570186622 $455 -10.19442452630300977 $308 $456 forward 7 unknown #
coedge $-1 $457 $458 $182 $311 forward $447 $-1 #
edge $-1 $459 -50.90698952543672107 $314 -45.62747638566492014 $310 $460 forward 7 unknown #
edge $-1 $315 38.12932810644558401 $459 45.46871496758924991 $183 $461 forward 7 unknown #
coedge $-1 $184 $451 $457 $462 forward $303 $-1 #
vertex $-1 $311 $463 #
vertex $-1 $185 $464 #
straight-curve $-1 10.87658398371364399 54.34638482924093239 11.5498612067394788 0 -1 0 I I #
coedge $-1 $317 $317 $-1 $465 reversed $188 $-1 #
edge $-1 $466 0 $466 6.283185307179586232 $189 $467 forward 7 unknown #
vertex $-1 $192 $468 #
ellipse-curve $-1 14.463732817827605 42.91953174033268681 8.910104636853581894 0 0.7193398085775676298 0.6946583619273494214 1 0 0 1 I I #
coedge $-1 $321 $321 $-1 $469 reversed $195 $-1 #
edge $-1 $470 0 $470 6.283185307179586232 $196 $471 forward 7 unknown #
vertex $-1 $199 $472 #
ellipse-curve $-1 19.84445606899853942 42.91953174033268681 8.910104636853581894 0 0.7193398085775676298 0.6946583619273494214 1 0 0 1 I I #
face $-1 $-1 $473 $33 $-1 $474 reversed single #
loop $-1 $-1 $206 $200 #
plane-surface $-1 50.0979644154179482 22.73435748379463206 11.5498612067394788 0 0 1 1 0 0 forward_v I I I I #
coedge $-1 $475 $476 $477 $478 reversed $201 $-1 #
coedge $-1 $479 $203 $205 $335 forward $121 $-1 #
coedge $-1 $203 $479 $475 $480 forward $121 $-1 #
coedge $-1 $477 $206 $203 $332 forward $326 $-1 #
edge $-1 $338 -11.09132872403186809 $481 1.463692195366988358 $331 $482 forward 7 unknown #
coedge $-1 $483 $484 $204 $334 forward $473 $-1 #
edge $-1 $485 -50.90698952543672107 $337 -45.62747638566492014 $333 $486 forward 7 unknown #
edge $-1 $338 38.12932810644558401 $485 45.46871496758924991 $205 $487 forward 7 unknown #
coedge $-1 $206 $477 $483 $488 forward $326 $-1 #
vertex $-1 $207 $489 #
vertex $-1 $207 $490 #
straight-curve $-1 34.19281742705364024 54.34638482924093239 11.5498612067394788 0 -1 0 I I #
coedge $-1 $340 $340 $-1 $491 reversed $210 $-1 #
edge $-1 $492 0 $492 6.283185307179586232 $211 $493 forward 7 unknown #
vertex $-1 $214 $494 #
ellipse-curve $-1 37.77996626116760126 42.91953174033268681 8.910104636853581894 0 0.7193398085775676298 0.6946583619273494214 1 0 0 1 I I #
coedge $-1 $344 $344 $-1 $495 reversed $217 $-1 #
edge $-1 $496 0 $496 6.283185307179586232 $218 $497 forward 7 unknown #
vertex $-1 $221 $498 #
ellipse-curve $-1 43.16068951233853568 42.91953174033268681 8.910104636853581894 0 0.7193398085775676298 0.6946583619273494214 1 0 0 1 I I #
face $-1 $-1 $499 $36 $-1 $500 reversed single #
loop $-1 $-1 $228 $222 #
plane-surface $-1 50.0979644154179482 22.73435748379463206 11.5498612067394788 0 0 1 1 0 0 forward_v I I I I #
coedge $-1 $501 $502 $503 $504 reversed $223 $-1 #
coedge $-1 $505 $225 $227 $358 forward $135 $-1 #
coedge $-1 $225 $505 $501 $506 forward $135 $-1 #
coedge $-1 $503 $228 $225 $355 forward $349 $-1 #
edge $-1 $361 0.5667879976381300366 $507 13.12180891703698649 $354 $508 forward 7 unknown #
coedge $-1 $509 $510 $226 $357 forward $499 $-1 #
edge $-1 $511 -50.90698952543672107 $360 -45.62747638566492014 $356 $512 forward 7 unknown #
edge $-1 $361 38.12932810644558401 $511 45.46871496758924991 $227 $513 forward 7 unknown #
coedge $-1 $228 $503 $509 $514 forward $349 $-1 #
vertex $-1 $229 $515 #
vertex $-1 $229 $516 #
straight-curve $-1 57.5090508703936365 54.34638482924093239 11.5498612067394788 0 -1 0 I I #
coedge $-1 $363 $363 $-1 $517 reversed $232 $-1 #
edge $-1 $518 0 $518 6.283185307179586232 $233 $519 forward 7 unknown #
vertex $-1 $236 $520 #
ellipse-curve $-1 61.09619970450759752 42.91953174033268681 8.910104636853581894 0 0.7193398085775676298 0.6946583619273494214 1 0 0 1 I I #
coedge $-1 $367 $367 $-1 $521 reversed $239 $-1 #
edge $-1 $522 0 $522 6.283185307179586232 $240 $523 forward 7 unknown #
vertex $-1 $243 $524 #
ellipse-curve $-1 66.47692295567853193 42.91953174033268681 8.910104636853581894 0 0.7193398085775676298 0.6946583619273494214 1 0 0 1 I I #
face $-1 $-1 $525 $39 $-1 $526 reversed single #
loop $-1 $-1 $250 $244 #
plane-surface $-1 50.0979644154179482 22.73435748379463206 11.5498612067394788 0 0 1 1 0 0 forward_v I I I I #
coedge $-1 $527 $528 $529 $530 reversed $245 $-1 #
coedge $-1 $531 $247 $249 $381 forward $149 $-1 #
coedge $-1 $247 $531 $527 $532 forward $149 $-1 #
coedge $-1 $529 $250 $247 $378 forward $372 $-1 #
edge $-1 $384 12.22490471930812816 $533 24.77992563870698461 $377 $534 forward 7 unknown #
coedge $-1 $535 $536 $248 $380 forward $525 $-1 #
edge $-1 $537 -50.90698952543672107 $383 -45.62747638566492014 $379 $538 forward 7 unknown #
edge $-1 $384 38.12932810644558401 $537 45.46871496758924991 $249 $539 forward 7 unknown #
coedge $-1 $250 $529 $535 $540 forward $372 $-1 #
vertex $-1 $251 $541 #
vertex $-1 $251 $542 #
straight-curve $-1 80.82528431373363276 54.34638482924093239 11.5498612067394788 0 -1 0 I I #
coedge $-1 $386 $386 $-1 $543 reversed $254 $-1 #
edge $-1 $544 0 $544 6.283185307179586232 $255 $545 forward 7 unknown #
vertex $-1 $258 $546 #
ellipse-curve $-1 84.41243314784759377 42.91953174033268681 8.910104636853581894 0 0.7193398085775676298 0.6946583619273494214 1 0 0 1 I I #
coedge $-1 $390 $390 $-1 $547 reversed $261 $-1 #
edge $-1 $548 0 $548 6.283185307179586232 $262 $549 forward 7 unknown #
vertex $-1 $265 $550 #
ellipse-curve $-1 89.79315639901852819 42.91953174033268681 8.910104636853581894 0 0.7193398085775676298 0.6946583619273494214 1 0 0 1 I I #
face $-1 $-1 $281 $28 $-1 $551 reversed single #
loop $-1 $-1 $410 $266 #
plane-surface $-1 50.0979644154179482 45.46871496758926412 5.774930603369739401 0 -1 0 0 0 -1 forward_v I I I I #
coedge $-1 $552 $408 $411 $553 forward $267 $-1 #
coedge $-1 $414 $269 $270 $402 reversed $163 $-1 #
coedge $-1 $408 $552 $269 $400 reversed $267 $-1 #
edge $-1 $415 -5.774930603369739401 $554 5.774930603369739401 $399 $555 forward 7 unknown #
coedge $-1 $271 $270 $552 $556 forward $99 $-1 #
edge $-1 $406 -50.0979644154179482 $554 50.0979644154179482 $398 $557 forward 7 unknown #
coedge $-1 $411 $410 $271 $404 reversed $395 $-1 #
edge $-1 $558 -50.0979644154179482 $405 50.0979644154179482 $403 $559 forward 7 unknown #
vertex $-1 $273 $560 #
vertex $-1 $417 $561 #
straight-curve $-1 100.1959288308358964 22.73435748379463206 0 0 -1 0 I I #
coedge $-1 $397 $399 $274 $409 reversed $267 $-1 #
edge $-1 $412 -22.73435748379463206 $415 22.73435748379463206 $408 $562 forward 7 unknown #
coedge $-1 $403 $275 $280 $418 forward $395 $-1 #
coedge $-1 $275 $403 $397 $553 reversed $395 $-1 #
vertex $-1 $276 $563 #
straight-curve $-1 50.0979644154179482 45.46871496758926412 11.5498612067394788 -1 0 0 I I #
coedge $-1 $277 $398 $279 $417 reversed $163 $-1 #
vertex $-1 $409 $564 #
straight-curve $-1 50.0979644154179482 0 11.5498612067394788 1 0 0 I I #
edge $-1 $282 -5.774930603369739401 $406 5.774930603369739401 $279 $565 forward 7 unknown #
edge $-1 $283 -5.774930603369739401 $405 5.774930603369739401 $280 $566 forward 7 unknown #
point $-1 100.1959288308358964 0 11.5498612067394788 #
point $-1 100.1959288308358964 45.46871496758926412 11.5498612067394788 #
face $-1 $-1 $438 $29 $-1 $567 reversed single #
loop $-1 $-1 $568 $285 #
plane-surface $-1 0 22.73435748379463206 5.774930603369739401 1 0 0 0 0 -1 forward_v I I I I #
coedge $-1 $425 $441 $289 $428 forward $286 $-1 #
coedge $-1 $296 $424 $288 $426 forward $286 $-1 #
edge $-1 $432 -2.013312615099283498 $299 0.986687384900716502 $425 $569 forward 7 unknown #
coedge $-1 $290 $289 $568 $570 reversed $103 $-1 #
edge $-1 $571 -26.0642223042115333 $432 -22.00326191820129651 $424 $572 forward 7 unknown #
coedge $-1 $437 $436 $290 $430 forward $438 $-1 #
edge $-1 $431 22.00326191820129651 $573 26.0642223042115333 $429 $574 forward 7 unknown #
vertex $-1 $430 $575 #
vertex $-1 $428 $576 #
straight-curve $-1 4.060960386010236789 22.73435748379463206 3.248305373171171517 0 -1 0 I I #
coedge $-1 $577 $578 $293 $435 forward $422 $-1 #
edge $-1 $442 -22.73435748379463206 $439 22.73435748379463206 $434 $579 forward 7 unknown #
coedge $-1 $429 $294 $298 $444 forward $438 $-1 #
coedge $-1 $294 $429 $577 $580 reversed $438 $-1 #
loop $-1 $-1 $429 $421 #
vertex $-1 $580 $581 #
straight-curve $-1 26.0642223042115333 45.46871496758926412 6.248305373171171517 1 0 0 I I #
coedge $-1 $424 $296 $578 $582 forward $286 $-1 #
vertex $-1 $582 $583 #
straight-curve $-1 26.0642223042115333 0 6.248305373171171517 -1 0 0 I I #
edge $-1 $300 -0.986687384900716502 $431 2.013312615099283498 $436 $584 forward 7 unknown #
point $-1 4.060960386010236789 0 6.248305373171171517 #
point $-1 4.060960386010236789 45.46871496758926412 6.248305373171171517 #
loop $-1 $-1 $310 $302 #
plane-surface $-1 50.0979644154179482 45.46871496758926412 5.774930603369739401 0 -1 0 0 0 -1 forward_v I I I I #
coedge $-1 $450 $305 $307 $454 reversed $179 $-1 #
coedge $-1 $305 $449 $585 $586 reversed $179 $-1 #
coedge $-1 $313 $308 $305 $452 forward $303 $-1 #
edge $-1 $455 -13.9760363161648371 $587 -8.87766986165166827 $451 $588 forward 7 unknown #
coedge $-1 $307 $306 $458 $589 reversed $107 $-1 #
edge $-1 $590 -45.46871496758924991 $455 -38.12932810644558401 $449 $591 forward 7 unknown #
vertex $-1 $309 $592 #
straight-curve $-1 33.62602942941551021 40.37034851307609529 11.5498612067394788 1 0 0 I I #
coedge $-1 $585 $310 $313 $462 reversed $447 $-1 #
coedge $-1 $310 $585 $453 $589 forward $447 $-1 #
vertex $-1 $311 $593 #
straight-curve $-1 10.87658398371364399 45.46871496758926412 57.17733759240439895 0 0 1 I I #
straight-curve $-1 10.87658398371364399 13.88349190926216181 38.97780478802131654 0 0.6946583619273494214 -0.7193398085775676298 I I #
edge $-1 $587 26.66635951230544777 $314 39.22138043170430421 $457 $594 forward 7 unknown #
point $-1 10.87658398371364399 45.46871496758926412 11.5498612067394788 #
point $-1 10.87658398371364399 40.37034851307609529 11.54986120673948236 #
edge $-1 $595 1 $595 0 $317 $-1 forward 7 unknown #
vertex $-1 $318 $596 #
ellipse-curve $-1 14.463732817827605 41.82485843441781981 7.852990938341486427 0 0.7193398085775676298 0.6946583619273494214 1 0 0 1 I I #
point $-1 15.463732817827605 42.91953174033266549 8.910104636853567683 #
edge $-1 $597 1 $597 0 $321 $-1 forward 7 unknown #
vertex $-1 $322 $598 #
ellipse-curve $-1 19.84445606899853942 41.82485843441781981 7.852990938341486427 0 0.7193398085775676298 0.6946583619273494214 1 0 0 1 I I #
point $-1 20.84445606899853942 42.91953174033266549 8.910104636853567683 #
loop $-1 $-1 $333 $325 #
plane-surface $-1 50.0979644154179482 45.46871496758926412 5.774930603369739401 0 -1 0 0 0 -1 forward_v I I I I #
coedge $-1 $476 $328 $330 $480 reversed $201 $-1 #
coedge $-1 $328 $475 $599 $600 reversed $201 $-1 #
coedge $-1 $336 $331 $328 $478 forward $326 $-1 #
edge $-1 $481 -13.9760363161648371 $601 -8.87766986165166827 $477 $602 forward 7 unknown #
coedge $-1 $330 $329 $484 $603 reversed $121 $-1 #
edge $-1 $604 -45.46871496758924991 $481 -38.12932810644558401 $475 $605 forward 7 unknown #
vertex $-1 $332 $606 #
straight-curve $-1 45.28414615108550834 40.37034851307609529 11.5498612067394788 1 0 0 I I #
coedge $-1 $599 $333 $336 $488 reversed $473 $-1 #
coedge $-1 $333 $599 $479 $603 forward $473 $-1 #
vertex $-1 $334 $607 #
straight-curve $-1 34.19281742705364024 45.46871496758926412 57.17733759240439895 0 0 1 I I #
straight-curve $-1 34.19281742705364024 13.88349190926216181 38.97780478802131654 0 0.6946583619273494214 -0.7193398085775676298 I I #
edge $-1 $601 3.350126068965451509 $337 15.90514698836430796 $483 $608 forward 7 unknown #
point $-1 34.19281742705364024 45.46871496758926412 11.5498612067394788 #
point $-1 34.19281742705364024 40.37034851307609529 11.54986120673948236 #
edge $-1 $609 1 $609 0 $340 $-1 forward 7 unknown #
vertex $-1 $341 $610 #
ellipse-curve $-1 37.77996626116760126 41.82485843441781981 7.852990938341486427 0 0.7193398085775676298 0.6946583619273494214 1 0 0 1 I I #
point $-1 38.77996626116760126 42.91953174033266549 8.910104636853567683 #
edge $-1 $611 1 $611 0 $344 $-1 forward 7 unknown #
vertex $-1 $345 $612 #
ellipse-curve $-1 43.16068951233853568 41.82485843441781981 7.852990938341486427 0 0.7193398085775676298 0.6946583619273494214 1 0 0 1 I I #
point $-1 44.16068951233853568 42.91953174033266549 8.910104636853567683 #
loop $-1 $-1 $356 $348 #
plane-surface $-1 50.0979644154179482 45.46871496758926412 5.774930603369739401 0 -1 0 0 0 -1 forward_v I I I I #
coedge $-1 $502 $351 $353 $506 reversed $223 $-1 #
coedge $-1 $351 $501 $613 $614 reversed $223 $-1 #
coedge $-1 $359 $354 $351 $504 forward $349 $-1 #
edge $-1 $507 -13.9760363161648371 $615 -8.87766986165166827 $503 $616 forward 7 unknown #
coedge $-1 $353 $352 $510 $617 reversed $135 $-1 #
edge $-1 $618 -45.46871496758924991 $507 -38.12932810644558401 $501 $619 forward 7 unknown #
vertex $-1 $355 $620 #
straight-curve $-1 56.94226287275550646 40.37034851307609529 11.5498612067394788 1 0 0 I I #
coedge $-1 $613 $356 $359 $514 reversed $499 $-1 #
coedge $-1 $356 $613 $505 $617 forward $499 $-1 #
vertex $-1 $357 $621 #
straight-curve $-1 57.5090508703936365 45.46871496758926412 57.17733759240439895 0 0 1 I I #
straight-curve $-1 57.5090508703936365 13.88349190926216181 38.97780478802131654 0 0.6946583619273494214 -0.7193398085775676298 I I #
edge $-1 $615 -19.96610737437454475 $360 -7.411086454975688298 $509 $622 forward 7 unknown #
point $-1 57.5090508703936365 45.46871496758926412 11.5498612067394788 #
point $-1 57.5090508703936365 40.37034851307609529 11.54986120673948236 #
edge $-1 $623 1 $623 0 $363 $-1 forward 7 unknown #
vertex $-1 $364 $624 #
ellipse-curve $-1 61.09619970450759752 41.82485843441781981 7.852990938341486427 0 0.7193398085775676298 0.6946583619273494214 1 0 0 1 I I #
point $-1 62.09619970450759752 42.91953174033266549 8.910104636853567683 #
edge $-1 $625 1 $625 0 $367 $-1 forward 7 unknown #
vertex $-1 $368 $626 #
ellipse-curve $-1 66.47692295567853193 41.82485843441781981 7.852990938341486427 0 0.7193398085775676298 0.6946583619273494214 1 0 0 1 I I #
point $-1 67.47692295567853193 42.91953174033266549 8.910104636853567683 #
loop $-1 $-1 $379 $371 #
plane-surface $-1 50.0979644154179482 45.46871496758926412 5.774930603369739401 0 -1 0 0 0 -1 forward_v I I I I #
coedge $-1 $528 $374 $376 $532 reversed $245 $-1 #
coedge $-1 $374 $527 $627 $628 reversed $245 $-1 #
coedge $-1 $382 $377 $374 $530 forward $372 $-1 #
edge $-1 $533 -13.9760363161648371 $629 -8.87766986165166827 $529 $630 forward 7 unknown #
coedge $-1 $376 $375 $536 $631 reversed $149 $-1 #
edge $-1 $632 -45.46871496758924991 $533 -38.12932810644558401 $527 $633 forward 7 unknown #
vertex $-1 $378 $634 #
straight-curve $-1 68.60037959442550459 40.37034851307609529 11.5498612067394788 1 0 0 I I #
coedge $-1 $627 $379 $382 $540 reversed $525 $-1 #
coedge $-1 $379 $627 $531 $631 forward $525 $-1 #
vertex $-1 $380 $635 #
straight-curve $-1 80.82528431373363276 45.46871496758926412 57.17733759240439895 0 0 1 I I #
straight-curve $-1 80.82528431373363276 13.88349190926216181 38.97780478802131654 0 0.6946583619273494214 -0.7193398085775676298 I I #
edge $-1 $629 -43.282340817714541 $383 -30.72731989831568455 $535 $636 forward 7 unknown #
point $-1 80.82528431373363276 45.46871496758926412 11.5498612067394788 #
point $-1 80.82528431373363276 40.37034851307609529 11.54986120673948236 #
edge $-1 $637 1 $637 0 $386 $-1 forward 7 unknown #
vertex $-1 $387 $638 #
ellipse-curve $-1 84.41243314784759377 41.82485843441781981 7.852990938341486427 0 0.7193398085775676298 0.6946583619273494214 1 0 0 1 I I #
point $-1 85.41243314784759377 42.91953174033266549 8.910104636853567683 #
edge $-1 $639 1 $639 0 $390 $-1 forward 7 unknown #
vertex $-1 $391 $640 #
ellipse-curve $-1 89.79315639901852819 41.82485843441781981 7.852990938341486427 0 0.7193398085775676298 0.6946583619273494214 1 0 0 1 I I #
point $-1 90.79315639901852819 42.91953174033266549 8.910104636853567683 #
plane-surface $-1 100.1959288308358964 22.73435748379463206 5.774930603369739401 -1 0 0 0 0 1 forward_v I I I I #
coedge $-1 $399 $397 $401 $556 reversed $267 $-1 #
edge $-1 $412 -5.774930603369739401 $558 5.774930603369739401 $411 $641 forward 7 unknown #
vertex $-1 $556 $642 #
straight-curve $-1 0 0 5.774930603369739401 0 0 -1 I I #
edge $-1 $554 -22.73435748379463206 $558 22.73435748379463206 $552 $643 forward 7 unknown #
straight-curve $-1 50.0979644154179482 0 0 -1 0 0 I I #
vertex $-1 $404 $644 #
straight-curve $-1 50.0979644154179482 45.46871496758926412 0 1 0 0 I I #
point $-1 100.1959288308358964 45.46871496758926412 0 #
point $-1 100.1959288308358964 0 0 #
straight-curve $-1 0 22.73435748379463206 11.5498612067394788 0 -1 0 I I #
point $-1 0 45.46871496758926412 11.5498612067394788 #
point $-1 0 0 11.5498612067394788 #
straight-curve $-1 100.1959288308358964 0 5.774930603369739401 0 0 -1 I I #
straight-curve $-1 100.1959288308358964 45.46871496758926412 5.774930603369739401 0 0 -1 I I #
plane-surface $-1 50.0979644154179482 45.46871496758926412 5.774930603369739401 0 -1 0 0 0 -1 forward_v I I I I #
coedge $-1 $578 $577 $427 $570 forward $422 $-1 #
straight-curve $-1 4.060960386010236789 0 5.261617988270455015 0 0 1 I I #
edge $-1 $573 -22.73435748379463206 $571 22.73435748379463206 $568 $645 forward 7 unknown #
vertex $-1 $428 $646 #
straight-curve $-1 26.0642223042115333 0 3.248305373171171517 1 0 0 I I #
vertex $-1 $430 $647 #
straight-curve $-1 26.0642223042115333 45.46871496758926412 3.248305373171171517 -1 0 0 I I #
point $-1 4.060960386010236789 45.46871496758926412 3.248305373171171517 #
point $-1 4.060960386010236789 0 3.248305373171171517 #
coedge $-1 $568 $434 $437 $580 forward $422 $-1 #
coedge $-1 $434 $568 $441 $582 reversed $422 $-1 #
straight-curve $-1 0 22.73435748379463206 6.248305373171171517 0 1 0 I I #
edge $-1 $439 -0.4733747698014321159 $573 2.526625230198567884 $437 $648 forward 7 unknown #
point $-1 0 45.46871496758926412 6.248305373171171517 #
edge $-1 $442 -0.4733747698014321159 $571 2.526625230198567884 $578 $649 forward 7 unknown #
point $-1 0 0 6.248305373171171517 #
straight-curve $-1 4.060960386010236789 45.46871496758926412 5.261617988270455015 0 0 -1 I I #
coedge $-1 $458 $457 $450 $586 forward $447 $-1 #
edge $-1 $587 45.62747638566492014 $590 50.90698952543672107 $585 $650 forward 7 unknown #
vertex $-1 $462 $651 #
straight-curve $-1 23.43160490311250044 54.34638482924093239 11.5498612067394788 0 1 0 I I #
edge $-1 $590 10.19442452630300977 $459 22.74944544570186622 $458 $652 forward 7 unknown #
vertex $-1 $589 $653 #
straight-curve $-1 23.43160490311250044 13.88349190926216181 38.97780478802131654 0 -0.6946583619273494214 0.7193398085775676298 I I #
point $-1 23.43160490311250044 40.37034851307609529 11.54986120673948236 #
point $-1 10.87658398371364399 45.46871496758926412 6.27034806696767788 #
straight-curve $-1 50.0979644154179482 45.46871496758926412 11.5498612067394788 -1 0 0 I I #
vertex $-1 $465 $654 #
point $-1 15.463732817827605 41.82485843441781981 7.852990938341486427 #
vertex $-1 $469 $655 #
point $-1 20.84445606899853942 41.82485843441781981 7.852990938341486427 #
coedge $-1 $484 $483 $476 $600 forward $473 $-1 #
edge $-1 $601 45.62747638566492014 $604 50.90698952543672107 $599 $656 forward 7 unknown #
vertex $-1 $488 $657 #
straight-curve $-1 46.74783834645249669 54.34638482924093239 11.5498612067394788 0 1 0 I I #
edge $-1 $604 -1.463692195366988358 $485 11.09132872403186809 $484 $658 forward 7 unknown #
vertex $-1 $603 $659 #
straight-curve $-1 46.74783834645249669 13.88349190926216181 38.97780478802131654 0 -0.6946583619273494214 0.7193398085775676298 I I #
point $-1 46.74783834645249669 40.37034851307609529 11.54986120673948236 #
point $-1 34.19281742705364024 45.46871496758926412 6.27034806696767788 #
straight-curve $-1 50.0979644154179482 45.46871496758926412 11.5498612067394788 -1 0 0 I I #
vertex $-1 $491 $660 #
point $-1 38.77996626116760126 41.82485843441781981 7.852990938341486427 #
vertex $-1 $495 $661 #
point $-1 44.16068951233853568 41.82485843441781981 7.852990938341486427 #
coedge $-1 $510 $509 $502 $614 forward $499 $-1 #
edge $-1 $615 45.62747638566492014 $618 50.90698952543672107 $613 $662 forward 7 unknown #
vertex $-1 $514 $663 #
straight-curve $-1 70.06407178979249295 54.34638482924093239 11.5498612067394788 0 1 0 I I #
edge $-1 $618 -13.12180891703698649 $511 -0.5667879976381300366 $510 $664 forward 7 unknown #
vertex $-1 $617 $665 #
straight-curve $-1 70.06407178979249295 13.88349190926216181 38.97780478802131654 0 -0.6946583619273494214 0.7193398085775676298 I I #
point $-1 70.06407178979249295 40.37034851307609529 11.54986120673948236 #
point $-1 57.5090508703936365 45.46871496758926412 6.27034806696767788 #
straight-curve $-1 50.0979644154179482 45.46871496758926412 11.5498612067394788 -1 0 0 I I #
vertex $-1 $517 $666 #
point $-1 62.09619970450759752 41.82485843441781981 7.852990938341486427 #
vertex $-1 $521 $667 #
point $-1 67.47692295567853193 41.82485843441781981 7.852990938341486427 #
coedge $-1 $536 $535 $528 $628 forward $525 $-1 #
edge $-1 $629 45.62747638566492014 $632 50.90698952543672107 $627 $668 forward 7 unknown #
vertex $-1 $540 $669 #
straight-curve $-1 93.38030523313248921 54.34638482924093239 11.5498612067394788 0 1 0 I I #
edge $-1 $632 -24.77992563870698461 $537 -12.22490471930812816 $536 $670 forward 7 unknown #
vertex $-1 $631 $671 #
straight-curve $-1 93.38030523313248921 13.88349190926216181 38.97780478802131654 0 -0.6946583619273494214 0.7193398085775676298 I I #
point $-1 93.38030523313248921 40.37034851307609529 11.54986120673948236 #
point $-1 80.82528431373363276 45.46871496758926412 6.27034806696767788 #
straight-curve $-1 50.0979644154179482 45.46871496758926412 11.5498612067394788 -1 0 0 I I #
vertex $-1 $543 $672 #
point $-1 85.41243314784759377 41.82485843441781981 7.852990938341486427 #
vertex $-1 $547 $673 #
point $-1 90.79315639901852819 41.82485843441781981 7.852990938341486427 #
straight-curve $-1 0 45.46871496758926412 5.774930603369739401 0 0 -1 I I #
point $-1 0 0 0 #
straight-curve $-1 0 22.73435748379463206 0 0 1 0 I I #
point $-1 0 45.46871496758926412 0 #
straight-curve $-1 0 22.73435748379463206 3.248305373171171517 0 -1 0 I I #
point $-1 0 0 3.248305373171171517 #
point $-1 0 45.46871496758926412 3.248305373171171517 #
straight-curve $-1 0 45.46871496758926412 5.774930603369739401 0 0 -1 I I #
straight-curve $-1 0 0 5.774930603369739401 0 0 -1 I I #
straight-curve $-1 23.43160490311250044 45.46871496758926412 57.17733759240439895 0 0 -1 I I #
point $-1 23.43160490311250044 45.46871496758926412 11.5498612067394788 #
straight-curve $-1 33.62602942941551021 45.46871496758926412 6.270348066967684986 -1 0 0 I I #
point $-1 23.43160490311250044 45.46871496758926412 6.27034806696767788 #
point $-1 14.463732817827605 41.10551862584024718 7.158332576414137449 #
point $-1 19.84445606899853942 41.10551862584024718 7.158332576414137449 #
straight-curve $-1 46.74783834645249669 45.46871496758926412 57.17733759240439895 0 0 -1 I I #
point $-1 46.74783834645249669 45.46871496758926412 11.5498612067394788 #
straight-curve $-1 45.28414615108550834 45.46871496758926412 6.270348066967684986 -1 0 0 I I #
point $-1 46.74783834645249669 45.46871496758926412 6.27034806696767788 #
point $-1 37.77996626116760126 41.10551862584024718 7.158332576414137449 #
point $-1 43.16068951233853568 41.10551862584024718 7.158332576414137449 #
straight-curve $-1 70.06407178979249295 45.46871496758926412 57.17733759240439895 0 0 -1 I I #
point $-1 70.06407178979249295 45.46871496758926412 11.5498612067394788 #
straight-curve $-1 56.94226287275550646 45.46871496758926412 6.270348066967684986 -1 0 0 I I #
point $-1 70.06407178979249295 45.46871496758926412 6.27034806696767788 #
point $-1 61.09619970450759752 41.10551862584024718 7.158332576414137449 #
point $-1 66.47692295567853193 41.10551862584024718 7.158332576414137449 #
straight-curve $-1 93.38030523313248921 45.46871496758926412 57.17733759240439895 0 0 -1 I I #
point $-1 93.38030523313248921 45.46871496758926412 11.5498612067394788 #
straight-curve $-1 68.60037959442550459 45.46871496758926412 6.270348066967684986 -1 0 0 I I #
point $-1 93.38030523313248921 45.46871496758926412 6.27034806696767788 #
point $-1 84.41243314784759377 41.10551862584024718 7.158332576414137449 #
point $-1 89.79315639901852819 41.10551862584024718 7.158332576414137449 #
End-of-ACIS-data 