600 0 4 0           
92 GICL ACIS Healer - Source: /gicl/data5/repository/Drexel/SM99-DATA/part86.smdg.des.sat - 6 0 18 ACIS 6.0.3 Solaris 24 Sat Apr 13 20:46:17 2002 
1 9.999999999999999547e-07 1.000000000000000036e-10 
body $-1 $4 $-1 $-1 #
body $-1 $5 $-1 $-1 #
body $-1 $6 $-1 $-1 #
body $-1 $7 $-1 $-1 #
lump $-1 $-1 $8 $0 #
lump $-1 $-1 $9 $1 #
lump $-1 $-1 $10 $2 #
lump $-1 $-1 $11 $3 #
shell $-1 $-1 $-1 $12 $-1 $4 #
shell $-1 $-1 $-1 $13 $-1 $5 #
shell $-1 $-1 $-1 $14 $-1 $6 #
shell $-1 $-1 $-1 $15 $-1 $7 #
face $-1 $16 $17 $8 $-1 $18 forward single #
face $-1 $19 $20 $9 $-1 $21 forward single #
face $-1 $22 $23 $10 $-1 $24 forward single #
face $-1 $25 $26 $11 $-1 $27 reversed single #
face $-1 $28 $29 $8 $-1 $30 reversed single #
loop $-1 $-1 $31 $12 #
plane-surface $-1 60.28382213812677293 24.61799444655520475 14.43616564505963318 0 0 1 1 0 0 forward_v I I I I #
face $-1 $32 $33 $9 $-1 $34 reversed single #
loop $-1 $-1 $35 $13 #
plane-surface $-1 60.28382213812677293 -3.19686810921079001 3.260968878903710788 0 0 1 1 0 0 forward_v I I I I #
face $-1 $36 $37 $10 $-1 $38 forward single #
loop $-1 $-1 $39 $14 #
plane-surface $-1 95.01798908777057306 82.47380062354628194 134.137455353809969 1 0 0 0 -0.6018150307709319025 -0.7986355043060522352 forward_v I I I I #
face $-1 $40 $41 $11 $-1 $42 reversed single #
loop $-1 $43 $44 $15 #
cone-surface $-1 107.7928166820120595 43.43256249897509491 9.10133994875949881 0 -0.6018150307709319025 -0.7986355043060522352 1.5 0 0 1 I I 0 1 1.5 forward I I I I #
face $-1 $45 $46 $8 $-1 $47 reversed single #
loop $-1 $-1 $48 $16 #
plane-surface $-1 60.28382213812677293 24.61799444655520475 0 0 0 1 1 0 0 forward_v I I I I #
coedge $-1 $49 $50 $51 $52 forward $17 $-1 #
face $-1 $53 $54 $9 $-1 $55 forward single #
loop $-1 $-1 $56 $19 #
plane-surface $-1 60.28382213812677293 -6.39373621842158002 1.630484439451855394 0 1 0 0 0 1 forward_v I I I I #
coedge $-1 $57 $58 $59 $60 forward $20 $-1 #
face $-1 $61 $62 $10 $-1 $63 forward single #
loop $-1 $-1 $64 $22 #
plane-surface $-1 107.7928166820120595 9.914380073453987308 37.84785396425150594 0 0.6018150307709319025 0.7986355043060522352 1 0 0 forward_v I I I I #
coedge $-1 $65 $66 $67 $68 reversed $23 $-1 #
face $-1 $69 $70 $11 $-1 $71 forward single #
loop $-1 $72 $73 $25 #
cone-surface $-1 107.7928166820120595 41.30439967523506795 6.277172550006152818 0 -0.6018150307709319025 -0.7986355043060522352 0.75 0 0 1 I I -0.7071067811865475727 0.7071067811865475727 0.75 forward I I I I #
loop $-1 $-1 $74 $15 #
coedge $-1 $44 $44 $75 $76 reversed $26 $-1 #
face $-1 $77 $78 $8 $-1 $79 reversed single #
loop $-1 $-1 $80 $28 #
plane-surface $-1 60.28382213812677293 0 7.218082822529816589 0 1 0 0 0 1 forward_v I I I I #
coedge $-1 $81 $82 $83 $84 forward $29 $-1 #
coedge $-1 $85 $31 $86 $87 forward $17 $-1 #
coedge $-1 $31 $85 $88 $89 forward $17 $-1 #
coedge $-1 $90 $91 $31 $52 reversed $92 $-1 #
edge $-1 $93 -24.61799444655520475 $94 24.61799444655520475 $51 $95 forward 7 unknown #
face $-1 $96 $97 $9 $-1 $98 reversed single #
loop $-1 $-1 $99 $32 #
plane-surface $-1 60.28382213812677293 24.61799444655520475 14.43616564505963318 0 0 1 1 0 0 forward_v I I I I #
coedge $-1 $100 $101 $102 $103 forward $33 $-1 #
coedge $-1 $104 $35 $105 $106 reversed $20 $-1 #
coedge $-1 $35 $104 $101 $107 forward $20 $-1 #
coedge $-1 $108 $109 $35 $60 reversed $110 $-1 #
edge $-1 $111 -3.19686810921079001 $112 3.19686810921079001 $59 $113 forward 7 unknown #
face $-1 $114 $115 $10 $-1 $116 reversed single #
loop $-1 $-1 $117 $36 #
plane-surface $-1 60.28382213812677293 24.61799444655520475 14.43616564505963318 0 0 1 1 0 0 forward_v I I I I #
coedge $-1 $118 $119 $117 $120 reversed $37 $-1 #
coedge $-1 $66 $39 $119 $121 forward $23 $-1 #
coedge $-1 $39 $65 $122 $123 reversed $23 $-1 #
coedge $-1 $124 $117 $39 $68 forward $62 $-1 #
edge $-1 $125 -12.56315832888728323 $126 -4.309908641940332075 $67 $127 forward 7 unknown #
face $-1 $128 $129 $11 $-1 $130 forward single #
loop $-1 $-1 $131 $40 #
plane-surface $-1 95.01798908777057306 82.47380062354628194 134.137455353809969 1 0 0 0 -0.6018150307709319025 -0.7986355043060522352 forward_v I I I I #
loop $-1 $-1 $132 $25 #
coedge $-1 $73 $73 $74 $133 forward $41 $-1 #
coedge $-1 $74 $74 $73 $133 reversed $43 $-1 #
coedge $-1 $75 $75 $44 $76 forward $129 $-1 #
edge $-1 $134 4.392737749714814924e-16 $134 6.283185307179586232 $75 $135 forward 7 unknown #
face $-1 $136 $137 $8 $-1 $138 reversed single #
loop $-1 $-1 $139 $45 #
plane-surface $-1 0 24.61799444655520475 7.218082822529816589 1 0 0 0 0 -1 forward_v I I I I #
coedge $-1 $140 $88 $141 $142 forward $46 $-1 #
coedge $-1 $143 $48 $140 $144 forward $29 $-1 #
coedge $-1 $48 $143 $145 $146 forward $29 $-1 #
coedge $-1 $91 $90 $48 $84 reversed $92 $-1 #
edge $-1 $147 -24.61799444655520475 $148 24.61799444655520475 $83 $149 forward 7 unknown #
coedge $-1 $50 $49 $150 $151 forward $17 $-1 #
coedge $-1 $152 $153 $49 $87 reversed $137 $-1 #
edge $-1 $94 -60.28382213812677293 $154 60.28382213812677293 $86 $155 forward 7 unknown #
coedge $-1 $80 $156 $50 $89 reversed $46 $-1 #
edge $-1 $157 -60.28382213812677293 $93 60.28382213812677293 $88 $158 forward 7 unknown #
coedge $-1 $83 $51 $156 $159 forward $92 $-1 #
coedge $-1 $51 $83 $152 $160 reversed $92 $-1 #
loop $-1 $-1 $90 $136 #
vertex $-1 $52 $161 #
vertex $-1 $52 $162 #
straight-curve $-1 120.5676442762535459 24.61799444655520475 14.43616564505963318 0 1 0 I I #
face $-1 $163 $164 $9 $-1 $165 reversed single #
loop $-1 $-1 $166 $53 #
plane-surface $-1 60.28382213812677293 24.61799444655520475 0 0 0 1 1 0 0 forward_v I I I I #
coedge $-1 $167 $168 $169 $170 forward $54 $-1 #
coedge $-1 $171 $56 $172 $173 reversed $33 $-1 #
coedge $-1 $56 $171 $58 $107 reversed $33 $-1 #
coedge $-1 $174 $175 $56 $103 reversed $176 $-1 #
edge $-1 $177 -1.630484439451855394 $178 1.630484439451855394 $102 $179 forward 7 unknown #
coedge $-1 $58 $57 $174 $180 forward $20 $-1 #
coedge $-1 $181 $182 $57 $106 forward $164 $-1 #
edge $-1 $183 -60.28382213812677293 $112 60.28382213812677293 $105 $184 forward 7 unknown #
edge $-1 $177 -60.28382213812677293 $111 60.28382213812677293 $101 $185 forward 7 unknown #
coedge $-1 $186 $59 $171 $187 forward $110 $-1 #
coedge $-1 $59 $169 $181 $188 forward $110 $-1 #
loop $-1 $-1 $109 $189 #
vertex $-1 $60 $190 #
vertex $-1 $60 $191 #
straight-curve $-1 120.5676442762535459 -3.19686810921079001 3.260968878903710788 0 1 0 I I #
face $-1 $192 $193 $10 $-1 $194 forward single #
loop $-1 $-1 $122 $61 #
plane-surface $-1 60.28382213812677293 49.23598889311040949 7.218082822529816589 0 -1 0 0 0 -1 forward_v I I I I #
coedge $-1 $67 $195 $64 $120 forward $62 $-1 #
coedge $-1 $196 $64 $197 $198 reversed $37 $-1 #
coedge $-1 $64 $196 $65 $121 reversed $37 $-1 #
edge $-1 $199 -36.52932486618412611 $125 -10.97966967770115332 $117 $200 forward 7 unknown #
edge $-1 $125 38.9018005901268964 $201 49.2359888931104166 $65 $202 forward 7 unknown #
coedge $-1 $203 $204 $66 $123 forward $115 $-1 #
edge $-1 $126 56.24160344311026449 $201 62.46087329466288907 $122 $205 forward 7 unknown #
coedge $-1 $206 $67 $204 $207 forward $62 $-1 #
vertex $-1 $120 $208 #
vertex $-1 $207 $209 #
straight-curve $-1 95.01798908777057306 53.54589753505074157 14.4361656450596314 0 1 0 I I #
face $-1 $210 $211 $11 $-1 $212 forward single #
loop $-1 $213 $75 $69 #
plane-surface $-1 107.7928166820120595 9.914380073453987308 37.84785396425150594 0 0.6018150307709319025 0.7986355043060522352 1 0 0 forward_v I I I I #
coedge $-1 $214 $215 $216 $217 reversed $70 $-1 #
coedge $-1 $132 $132 $-1 $218 forward $72 $-1 #
edge $-1 $219 0 $219 6.283185307179586232 $73 $220 forward 7 unknown #
vertex $-1 $76 $221 #
ellipse-curve $-1 107.7928166820120595 45.10936404963693747 11.32653071928332267 0 -0.6018150307709319025 -0.7986355043060522352 1.5 0 0 1 I I #
face $-1 $-1 $92 $8 $-1 $222 reversed single #
loop $-1 $-1 $152 $77 #
plane-surface $-1 60.28382213812677293 49.23598889311040949 7.218082822529816589 0 -1 0 0 0 -1 forward_v I I I I #
coedge $-1 $223 $150 $153 $224 forward $78 $-1 #
coedge $-1 $156 $80 $81 $144 reversed $46 $-1 #
coedge $-1 $150 $223 $80 $142 reversed $78 $-1 #
edge $-1 $157 -7.218082822529816589 $225 7.218082822529816589 $141 $226 forward 7 unknown #
coedge $-1 $82 $81 $223 $227 forward $29 $-1 #
edge $-1 $148 -60.28382213812677293 $225 60.28382213812677293 $140 $228 forward 7 unknown #
coedge $-1 $153 $152 $82 $146 reversed $137 $-1 #
edge $-1 $229 -60.28382213812677293 $147 60.28382213812677293 $145 $230 forward 7 unknown #
vertex $-1 $84 $231 #
vertex $-1 $159 $232 #
straight-curve $-1 120.5676442762535459 24.61799444655520475 0 0 -1 0 I I #
coedge $-1 $139 $141 $85 $151 reversed $78 $-1 #
edge $-1 $154 -24.61799444655520475 $157 24.61799444655520475 $150 $233 forward 7 unknown #
coedge $-1 $145 $86 $91 $160 forward $137 $-1 #
coedge $-1 $86 $145 $139 $224 reversed $137 $-1 #
vertex $-1 $87 $234 #
straight-curve $-1 60.28382213812677293 49.23598889311040949 14.43616564505963318 -1 0 0 I I #
coedge $-1 $88 $140 $90 $159 reversed $46 $-1 #
vertex $-1 $151 $235 #
straight-curve $-1 60.28382213812677293 0 14.43616564505963318 1 0 0 I I #
edge $-1 $93 -7.218082822529816589 $148 7.218082822529816589 $90 $236 forward 7 unknown #
edge $-1 $94 -7.218082822529816589 $147 7.218082822529816589 $91 $237 forward 7 unknown #
point $-1 120.5676442762535459 0 14.43616564505963318 #
point $-1 120.5676442762535459 49.23598889311040949 14.43616564505963318 #
face $-1 $238 $176 $9 $-1 $239 reversed single #
loop $-1 $-1 $105 $96 #
plane-surface $-1 60.28382213812677293 0 7.218082822529816589 0 1 0 0 0 1 forward_v I I I I #
coedge $-1 $172 $240 $186 $241 forward $97 $-1 #
coedge $-1 $242 $99 $243 $244 forward $54 $-1 #
coedge $-1 $99 $242 $245 $246 forward $54 $-1 #
coedge $-1 $109 $247 $99 $170 reversed $110 $-1 #
edge $-1 $248 -24.61799444655520475 $249 24.61799444655520475 $169 $250 forward 7 unknown #
coedge $-1 $101 $100 $108 $187 reversed $33 $-1 #
coedge $-1 $251 $166 $100 $173 forward $97 $-1 #
edge $-1 $252 -60.28382213812677293 $178 60.28382213812677293 $100 $253 forward 7 unknown #
coedge $-1 $254 $102 $104 $180 reversed $176 $-1 #
coedge $-1 $102 $255 $251 $256 reversed $176 $-1 #
loop $-1 $-1 $255 $163 #
vertex $-1 $180 $257 #
vertex $-1 $256 $258 #
straight-curve $-1 0 -6.39373621842158002 1.630484439451855394 0 0 -1 I I #
edge $-1 $183 -3.19686810921079001 $177 3.19686810921079001 $174 $259 forward 7 unknown #
coedge $-1 $245 $105 $109 $188 reversed $164 $-1 #
coedge $-1 $105 $245 $254 $260 forward $164 $-1 #
vertex $-1 $260 $261 #
straight-curve $-1 60.28382213812677293 0 3.260968878903710788 1 0 0 I I #
straight-curve $-1 60.28382213812677293 -6.39373621842158002 3.260968878903710788 1 0 0 I I #
coedge $-1 $247 $108 $166 $241 reversed $110 $-1 #
edge $-1 $111 -1.630484439451855394 $252 1.630484439451855394 $108 $262 forward 7 unknown #
edge $-1 $248 -7.218082822529816589 $112 3.957113943626105801 $109 $263 forward 7 unknown #
face $-1 $-1 $110 $9 $-1 $264 reversed single #
point $-1 120.5676442762535459 -6.39373621842158002 3.260968878903710788 #
point $-1 120.5676442762535459 0 3.260968878903710788 #
face $-1 $265 $266 $10 $-1 $267 reversed single #
loop $-1 $-1 $268 $114 #
plane-surface $-1 60.28382213812677293 -3.19686810921079001 3.260968878903710788 0 0 1 1 0 0 forward_v I I I I #
coedge $-1 $117 $269 $270 $271 forward $62 $-1 #
coedge $-1 $119 $118 $203 $272 reversed $37 $-1 #
coedge $-1 $270 $273 $118 $198 forward $274 $-1 #
edge $-1 $275 -34.14784632203778614 $199 -23.81365801905427304 $197 $276 forward 7 unknown #
vertex $-1 $198 $277 #
straight-curve $-1 84.03831941006941975 40.98273920616346544 14.4361656450596314 -1 0 0 I I #
vertex $-1 $272 $278 #
straight-curve $-1 95.01798908777057306 9.914380073453987308 37.84785396425150594 0 0.7986355043060522352 -0.6018150307709319025 I I #
coedge $-1 $279 $122 $196 $272 forward $115 $-1 #
coedge $-1 $122 $280 $124 $207 reversed $115 $-1 #
straight-curve $-1 95.01798908777057306 49.23598889311040949 70.67776908816989589 0 0 -1 I I #
coedge $-1 $269 $124 $281 $282 forward $62 $-1 #
edge $-1 $126 -34.73416694964380014 $283 60.28382213812677293 $204 $284 forward 7 unknown #
point $-1 95.01798908777057306 40.98273920616345833 14.4361656450596314 #
point $-1 95.01798908777057306 49.23598889311040949 14.43616564505963318 #
face $-1 $285 $286 $11 $-1 $287 reversed single #
loop $-1 $-1 $288 $128 #
plane-surface $-1 60.28382213812677293 24.61799444655520475 14.43616564505963318 0 0 1 1 0 0 forward_v I I I I #
loop $-1 $-1 $289 $69 #
coedge $-1 $215 $131 $290 $291 forward $70 $-1 #
coedge $-1 $131 $214 $292 $293 reversed $70 $-1 #
coedge $-1 $294 $288 $131 $217 forward $211 $-1 #
edge $-1 $295 -12.56315832888728323 $296 -4.309908641940332075 $216 $297 forward 7 unknown #
edge $-1 $298 1 $298 0 $132 $-1 forward 7 unknown #
vertex $-1 $133 $299 #
ellipse-curve $-1 107.7928166820120595 41.75576094831326657 6.876149178235691828 0 0.6018150307709319025 0.7986355043060522352 1.5 0 0 1 I I #
point $-1 109.2928166820120595 45.10936404963692326 11.3265307192833049 #
plane-surface $-1 120.5676442762535459 24.61799444655520475 7.218082822529816589 -1 0 0 0 0 1 forward_v I I I I #
coedge $-1 $141 $139 $143 $227 reversed $78 $-1 #
edge $-1 $154 -7.218082822529816589 $229 7.218082822529816589 $153 $300 forward 7 unknown #
vertex $-1 $227 $301 #
straight-curve $-1 0 0 7.218082822529816589 0 0 -1 I I #
edge $-1 $225 -24.61799444655520475 $229 24.61799444655520475 $223 $302 forward 7 unknown #
straight-curve $-1 60.28382213812677293 0 0 -1 0 0 I I #
vertex $-1 $146 $303 #
straight-curve $-1 60.28382213812677293 49.23598889311040949 0 1 0 0 I I #
point $-1 120.5676442762535459 49.23598889311040949 0 #
point $-1 120.5676442762535459 0 0 #
straight-curve $-1 0 24.61799444655520475 14.43616564505963318 0 -1 0 I I #
point $-1 0 49.23598889311040949 14.43616564505963318 #
point $-1 0 0 14.43616564505963318 #
straight-curve $-1 120.5676442762535459 0 7.218082822529816589 0 0 -1 I I #
straight-curve $-1 120.5676442762535459 49.23598889311040949 7.218082822529816589 0 0 -1 I I #
face $-1 $189 $304 $9 $-1 $305 reversed single #
plane-surface $-1 0 24.61799444655520475 7.218082822529816589 1 0 0 0 0 -1 forward_v I I I I #
coedge $-1 $166 $251 $306 $307 forward $97 $-1 #
edge $-1 $308 -24.61799444655520475 $252 31.01173066497678477 $186 $309 forward 7 unknown #
coedge $-1 $168 $167 $310 $311 forward $54 $-1 #
coedge $-1 $312 $313 $167 $244 reversed $304 $-1 #
edge $-1 $249 -60.28382213812677293 $314 60.28382213812677293 $243 $315 forward 7 unknown #
coedge $-1 $182 $181 $168 $246 reversed $164 $-1 #
edge $-1 $316 -60.28382213812677293 $248 60.28382213812677293 $245 $317 forward 7 unknown #
coedge $-1 $169 $186 $312 $318 reversed $110 $-1 #
vertex $-1 $170 $319 #
vertex $-1 $170 $320 #
straight-curve $-1 120.5676442762535459 24.61799444655520475 14.43616564505963318 0 1 0 I I #
coedge $-1 $240 $172 $175 $256 forward $97 $-1 #
vertex $-1 $187 $321 #
straight-curve $-1 60.28382213812677293 -6.39373621842158002 0 -1 0 0 I I #
coedge $-1 $310 $174 $182 $260 reversed $176 $-1 #
coedge $-1 $175 $310 $313 $322 forward $176 $-1 #
edge $-1 $178 -31.01173066497678477 $323 24.61799444655520475 $175 $324 forward 7 unknown #
point $-1 0 -6.39373621842158002 3.260968878903710788 #
point $-1 0 -6.39373621842158002 0 #
straight-curve $-1 0 -3.19686810921079001 3.260968878903710788 0 -1 0 I I #
edge $-1 $316 -7.218082822529816589 $183 3.957113943626105801 $254 $325 forward 7 unknown #
point $-1 0 0 3.260968878903710788 #
straight-curve $-1 120.5676442762535459 -6.39373621842158002 1.630484439451855394 0 0 -1 I I #
straight-curve $-1 120.5676442762535459 0 7.218082822529816589 0 0 -1 I I #
plane-surface $-1 120.5676442762535459 24.61799444655520475 7.218082822529816589 -1 0 0 0 0 1 forward_v I I I I #
face $-1 $326 $327 $10 $-1 $328 reversed single #
loop $-1 $-1 $329 $192 #
plane-surface $-1 60.28382213812677293 -6.39373621842158002 1.630484439451855394 0 1 0 0 0 1 forward_v I I I I #
coedge $-1 $330 $331 $332 $333 forward $193 $-1 #
coedge $-1 $195 $206 $334 $335 forward $62 $-1 #
coedge $-1 $336 $197 $195 $271 reversed $274 $-1 #
edge $-1 $337 -24.61799444655520475 $199 16.36474475960825359 $270 $338 forward 7 unknown #
edge $-1 $201 10.97966967770115332 $275 36.52932486618412611 $203 $339 forward 7 unknown #
coedge $-1 $197 $340 $279 $341 reversed $274 $-1 #
loop $-1 $-1 $197 $342 #
vertex $-1 $341 $343 #
straight-curve $-1 120.5676442762535459 21.96430642474418704 28.76758297856522972 0 -0.7986355043060522352 0.6018150307709319025 I I #
point $-1 120.5676442762535459 40.98273920616345833 14.4361656450596314 #
point $-1 95.01798908777057306 49.23598889311040239 8.216895793507003276 #
coedge $-1 $344 $203 $273 $341 forward $115 $-1 #
coedge $-1 $204 $344 $345 $346 reversed $115 $-1 #
coedge $-1 $345 $347 $206 $282 reversed $348 $-1 #
edge $-1 $283 -24.61799444655520475 $349 24.61799444655520475 $281 $350 forward 7 unknown #
vertex $-1 $207 $351 #
straight-curve $-1 60.28382213812677293 49.23598889311040949 14.43616564505963318 -1 0 0 I I #
face $-1 $352 $353 $11 $-1 $354 forward single #
loop $-1 $-1 $292 $210 #
plane-surface $-1 60.28382213812677293 49.23598889311040949 7.218082822529816589 0 -1 0 0 0 -1 forward_v I I I I #
coedge $-1 $216 $355 $289 $356 forward $211 $-1 #
coedge $-1 $357 $290 $288 $356 reversed $213 $-1 #
coedge $-1 $289 $358 $214 $291 reversed $213 $-1 #
edge $-1 $295 38.9018005901268964 $359 49.2359888931104166 $214 $360 forward 7 unknown #
coedge $-1 $361 $362 $215 $293 forward $286 $-1 #
edge $-1 $296 56.24160344311026449 $359 62.46087329466288907 $292 $363 forward 7 unknown #
coedge $-1 $364 $216 $362 $365 forward $211 $-1 #
vertex $-1 $356 $366 #
vertex $-1 $365 $367 #
straight-curve $-1 95.01798908777057306 53.54589753505074157 14.4361656450596314 0 1 0 I I #
vertex $-1 $218 $368 #
point $-1 109.2928166820120595 41.75576094831326657 6.876149178235691828 #
straight-curve $-1 0 49.23598889311040949 7.218082822529816589 0 0 -1 I I #
point $-1 0 0 0 #
straight-curve $-1 0 24.61799444655520475 0 0 1 0 I I #
point $-1 0 49.23598889311040949 0 #
loop $-1 $-1 $312 $238 #
plane-surface $-1 60.28382213812677293 49.23598889311040949 7.218082822529816589 0 -1 0 0 0 -1 forward_v I I I I #
coedge $-1 $313 $312 $240 $307 reversed $304 $-1 #
edge $-1 $323 -60.28382213812677293 $308 60.28382213812677293 $306 $369 forward 7 unknown #
vertex $-1 $241 $370 #
straight-curve $-1 120.5676442762535459 24.61799444655520475 0 0 -1 0 I I #
coedge $-1 $255 $254 $242 $311 reversed $176 $-1 #
edge $-1 $314 -24.61799444655520475 $316 24.61799444655520475 $310 $371 forward 7 unknown #
coedge $-1 $306 $243 $247 $318 forward $304 $-1 #
coedge $-1 $243 $306 $255 $322 reversed $304 $-1 #
vertex $-1 $244 $372 #
straight-curve $-1 60.28382213812677293 49.23598889311040949 14.43616564505963318 -1 0 0 I I #
vertex $-1 $311 $373 #
straight-curve $-1 60.28382213812677293 0 14.43616564505963318 1 0 0 I I #
edge $-1 $249 -7.218082822529816589 $308 7.218082822529816589 $247 $374 forward 7 unknown #
point $-1 120.5676442762535459 0 14.43616564505963318 #
point $-1 120.5676442762535459 49.23598889311040949 14.43616564505963318 #
point $-1 120.5676442762535459 -6.39373621842158002 0 #
edge $-1 $314 -7.218082822529816589 $323 7.218082822529816589 $313 $375 forward 7 unknown #
vertex $-1 $307 $376 #
straight-curve $-1 0 24.61799444655520475 0 0 1 0 I I #
straight-curve $-1 0 0 7.218082822529816589 0 0 -1 I I #
face $-1 $377 $378 $10 $-1 $379 reversed single #
loop $-1 $-1 $380 $265 #
plane-surface $-1 60.28382213812677293 24.61799444655520475 0 0 0 1 1 0 0 forward_v I I I I #
coedge $-1 $381 $382 $383 $384 forward $266 $-1 #
coedge $-1 $385 $268 $386 $387 reversed $193 $-1 #
coedge $-1 $268 $385 $382 $388 forward $193 $-1 #
coedge $-1 $389 $336 $268 $333 reversed $274 $-1 #
edge $-1 $390 -3.19686810921079001 $391 3.19686810921079001 $332 $392 forward 7 unknown #
coedge $-1 $393 $394 $269 $335 reversed $378 $-1 #
edge $-1 $349 -60.28382213812677293 $337 60.28382213812677293 $334 $395 forward 7 unknown #
coedge $-1 $332 $270 $394 $396 forward $274 $-1 #
vertex $-1 $271 $397 #
straight-curve $-1 120.5676442762535459 24.61799444655520475 14.43616564505963318 0 1 0 I I #
straight-curve $-1 84.03831941006941975 49.23598889311040239 8.216895793507006829 1 0 0 I I #
coedge $-1 $273 $389 $380 $398 reversed $274 $-1 #
edge $-1 $275 -0.9988129709771866871 $399 7.218082822529816589 $273 $400 forward 7 unknown #
face $-1 $-1 $274 $10 $-1 $401 reversed single #
point $-1 120.5676442762535459 49.23598889311040239 8.216895793507003276 #
coedge $-1 $280 $279 $402 $403 reversed $115 $-1 #
coedge $-1 $404 $281 $280 $346 forward $348 $-1 #
edge $-1 $283 -7.218082822529816589 $405 7.218082822529816589 $280 $406 forward 7 unknown #
coedge $-1 $281 $407 $393 $408 reversed $348 $-1 #
loop $-1 $-1 $345 $377 #
vertex $-1 $282 $409 #
straight-curve $-1 0 24.61799444655520475 14.43616564505963318 0 -1 0 I I #
point $-1 0 49.23598889311040949 14.43616564505963318 #
face $-1 $410 $411 $11 $-1 $412 reversed single #
loop $-1 $-1 $413 $285 #
plane-surface $-1 60.28382213812677293 -3.19686810921079001 3.260968878903710788 0 0 1 1 0 0 forward_v I I I I #
coedge $-1 $288 $414 $415 $416 forward $211 $-1 #
edge $-1 $417 -36.52932486618412611 $295 -10.97966967770115332 $288 $418 forward 7 unknown #
coedge $-1 $358 $289 $419 $420 reversed $213 $-1 #
coedge $-1 $290 $357 $361 $421 reversed $213 $-1 #
vertex $-1 $421 $422 #
straight-curve $-1 95.01798908777057306 9.914380073453987308 37.84785396425150594 0 0.7986355043060522352 -0.6018150307709319025 I I #
coedge $-1 $423 $292 $358 $421 forward $286 $-1 #
coedge $-1 $292 $424 $294 $365 reversed $286 $-1 #
straight-curve $-1 95.01798908777057306 49.23598889311040949 70.67776908816989589 0 0 -1 I I #
coedge $-1 $414 $294 $425 $426 forward $211 $-1 #
edge $-1 $296 -34.73416694964380014 $427 60.28382213812677293 $362 $428 forward 7 unknown #
point $-1 95.01798908777057306 40.98273920616345833 14.4361656450596314 #
point $-1 95.01798908777057306 49.23598889311040949 14.43616564505963318 #
point $-1 107.7928166820120595 40.85303840215686932 5.678195921776613808 #
straight-curve $-1 60.28382213812677293 49.23598889311040949 0 1 0 0 I I #
point $-1 120.5676442762535459 49.23598889311040949 0 #
straight-curve $-1 0 24.61799444655520475 14.43616564505963318 0 -1 0 I I #
point $-1 0 49.23598889311040949 14.43616564505963318 #
point $-1 0 0 14.43616564505963318 #
straight-curve $-1 120.5676442762535459 49.23598889311040949 7.218082822529816589 0 0 -1 I I #
straight-curve $-1 0 49.23598889311040949 7.218082822529816589 0 0 -1 I I #
point $-1 0 49.23598889311040949 0 #
face $-1 $342 $348 $10 $-1 $429 reversed single #
loop $-1 $-1 $386 $326 #
plane-surface $-1 60.28382213812677293 0 7.218082822529816589 0 1 0 0 0 1 forward_v I I I I #
coedge $-1 $430 $402 $340 $398 forward $327 $-1 #
coedge $-1 $431 $329 $430 $432 reversed $266 $-1 #
coedge $-1 $329 $431 $331 $388 reversed $266 $-1 #
coedge $-1 $407 $404 $329 $384 reversed $348 $-1 #
edge $-1 $433 -1.630484439451855394 $434 1.630484439451855394 $383 $435 forward 7 unknown #
coedge $-1 $331 $330 $407 $436 forward $193 $-1 #
coedge $-1 $394 $393 $330 $387 forward $378 $-1 #
edge $-1 $437 -60.28382213812677293 $391 60.28382213812677293 $386 $438 forward 7 unknown #
edge $-1 $433 -60.28382213812677293 $390 60.28382213812677293 $382 $439 forward 7 unknown #
coedge $-1 $340 $332 $431 $440 forward $274 $-1 #
vertex $-1 $333 $441 #
vertex $-1 $333 $442 #
straight-curve $-1 120.5676442762535459 -3.19686810921079001 3.260968878903710788 0 1 0 I I #
coedge $-1 $386 $334 $347 $408 forward $378 $-1 #
coedge $-1 $334 $386 $336 $396 reversed $378 $-1 #
straight-curve $-1 60.28382213812677293 0 14.43616564505963318 1 0 0 I I #
edge $-1 $337 -7.218082822529816589 $391 3.957113943626105801 $336 $443 forward 7 unknown #
point $-1 120.5676442762535459 0 14.43616564505963318 #
edge $-1 $399 -24.61799444655520475 $444 31.01173066497678477 $340 $445 forward 7 unknown #
vertex $-1 $398 $446 #
straight-curve $-1 120.5676442762535459 49.23598889311040949 7.218082822529816589 0 0 -1 I I #
plane-surface $-1 120.5676442762535459 24.61799444655520475 7.218082822529816589 -1 0 0 0 0 1 forward_v I I I I #
coedge $-1 $380 $447 $344 $403 forward $327 $-1 #
edge $-1 $405 -60.28382213812677293 $399 60.28382213812677293 $344 $448 forward 7 unknown #
coedge $-1 $383 $345 $447 $449 reversed $348 $-1 #
vertex $-1 $403 $450 #
straight-curve $-1 0 49.23598889311040949 7.218082822529816589 0 0 -1 I I #
coedge $-1 $347 $383 $385 $436 reversed $348 $-1 #
edge $-1 $349 -7.218082822529816589 $437 3.957113943626105801 $347 $451 forward 7 unknown #
point $-1 0 0 14.43616564505963318 #
face $-1 $452 $453 $11 $-1 $454 reversed single #
loop $-1 $-1 $455 $352 #
plane-surface $-1 60.28382213812677293 -6.39373621842158002 1.630484439451855394 0 1 0 0 0 1 forward_v I I I I #
coedge $-1 $456 $457 $458 $459 forward $353 $-1 #
coedge $-1 $355 $364 $460 $461 forward $211 $-1 #
coedge $-1 $462 $419 $355 $416 reversed $463 $-1 #
edge $-1 $464 -24.61799444655520475 $417 16.36474475960825359 $415 $465 forward 7 unknown #
vertex $-1 $420 $466 #
straight-curve $-1 84.03831941006941975 40.98273920616346544 14.4361656450596314 -1 0 0 I I #
coedge $-1 $415 $467 $357 $420 forward $463 $-1 #
edge $-1 $468 -34.14784632203778614 $417 -23.81365801905427304 $419 $469 forward 7 unknown #
edge $-1 $359 10.97966967770115332 $468 36.52932486618412611 $361 $470 forward 7 unknown #
point $-1 95.01798908777057306 49.23598889311040239 8.216895793507003276 #
coedge $-1 $471 $361 $467 $472 forward $286 $-1 #
coedge $-1 $362 $471 $473 $474 reversed $286 $-1 #
coedge $-1 $473 $475 $364 $426 reversed $476 $-1 #
edge $-1 $427 -24.61799444655520475 $477 24.61799444655520475 $425 $478 forward 7 unknown #
vertex $-1 $365 $479 #
straight-curve $-1 60.28382213812677293 49.23598889311040949 14.43616564505963318 -1 0 0 I I #
plane-surface $-1 0 24.61799444655520475 7.218082822529816589 1 0 0 0 0 -1 forward_v I I I I #
coedge $-1 $447 $380 $381 $432 forward $327 $-1 #
coedge $-1 $382 $381 $389 $440 reversed $266 $-1 #
edge $-1 $444 -60.28382213812677293 $434 60.28382213812677293 $381 $480 forward 7 unknown #
vertex $-1 $436 $481 #
vertex $-1 $449 $482 #
straight-curve $-1 0 -6.39373621842158002 1.630484439451855394 0 0 -1 I I #
edge $-1 $437 -3.19686810921079001 $433 3.19686810921079001 $407 $483 forward 7 unknown #
vertex $-1 $408 $484 #
straight-curve $-1 60.28382213812677293 0 3.260968878903710788 1 0 0 I I #
straight-curve $-1 60.28382213812677293 -6.39373621842158002 3.260968878903710788 1 0 0 I I #
edge $-1 $390 -1.630484439451855394 $444 1.630484439451855394 $389 $485 forward 7 unknown #
point $-1 120.5676442762535459 -6.39373621842158002 3.260968878903710788 #
point $-1 120.5676442762535459 0 3.260968878903710788 #
straight-curve $-1 120.5676442762535459 0 7.218082822529816589 0 0 -1 I I #
vertex $-1 $440 $486 #
straight-curve $-1 120.5676442762535459 24.61799444655520475 0 0 -1 0 I I #
point $-1 120.5676442762535459 49.23598889311040949 0 #
coedge $-1 $402 $430 $404 $449 forward $327 $-1 #
straight-curve $-1 60.28382213812677293 49.23598889311040949 0 1 0 0 I I #
edge $-1 $434 -31.01173066497678477 $405 24.61799444655520475 $404 $487 forward 7 unknown #
point $-1 0 49.23598889311040949 0 #
straight-curve $-1 0 0 7.218082822529816589 0 0 -1 I I #
face $-1 $488 $489 $11 $-1 $490 reversed single #
loop $-1 $-1 $491 $410 #
plane-surface $-1 60.28382213812677293 24.61799444655520475 0 0 0 1 1 0 0 forward_v I I I I #
coedge $-1 $492 $493 $494 $495 forward $411 $-1 #
coedge $-1 $496 $413 $497 $498 reversed $353 $-1 #
coedge $-1 $413 $496 $493 $499 forward $353 $-1 #
coedge $-1 $500 $462 $413 $459 reversed $463 $-1 #
edge $-1 $501 -3.19686810921079001 $502 3.19686810921079001 $458 $503 forward 7 unknown #
coedge $-1 $504 $505 $414 $461 reversed $489 $-1 #
edge $-1 $477 -60.28382213812677293 $464 60.28382213812677293 $460 $506 forward 7 unknown #
coedge $-1 $458 $415 $505 $507 forward $463 $-1 #
loop $-1 $-1 $419 $508 #
vertex $-1 $416 $509 #
straight-curve $-1 120.5676442762535459 24.61799444655520475 14.43616564505963318 0 1 0 I I #
point $-1 120.5676442762535459 40.98273920616345833 14.4361656450596314 #
coedge $-1 $419 $510 $423 $472 reversed $463 $-1 #
vertex $-1 $472 $511 #
straight-curve $-1 120.5676442762535459 21.96430642474418704 28.76758297856522972 0 -0.7986355043060522352 0.6018150307709319025 I I #
straight-curve $-1 84.03831941006941975 49.23598889311040239 8.216895793507006829 1 0 0 I I #
coedge $-1 $424 $423 $512 $513 reversed $286 $-1 #
edge $-1 $468 -0.9988129709771866871 $514 7.218082822529816589 $467 $515 forward 7 unknown #
coedge $-1 $516 $425 $424 $474 forward $476 $-1 #
edge $-1 $427 -7.218082822529816589 $517 7.218082822529816589 $424 $518 forward 7 unknown #
coedge $-1 $425 $519 $504 $520 reversed $476 $-1 #
loop $-1 $-1 $473 $488 #
vertex $-1 $426 $521 #
straight-curve $-1 0 24.61799444655520475 14.43616564505963318 0 -1 0 I I #
point $-1 0 49.23598889311040949 14.43616564505963318 #
straight-curve $-1 60.28382213812677293 -6.39373621842158002 0 -1 0 0 I I #
point $-1 0 -6.39373621842158002 3.260968878903710788 #
point $-1 0 -6.39373621842158002 0 #
straight-curve $-1 0 -3.19686810921079001 3.260968878903710788 0 -1 0 I I #
point $-1 0 0 3.260968878903710788 #
straight-curve $-1 120.5676442762535459 -6.39373621842158002 1.630484439451855394 0 0 -1 I I #
point $-1 120.5676442762535459 -6.39373621842158002 0 #
straight-curve $-1 0 24.61799444655520475 0 0 1 0 I I #
face $-1 $508 $476 $11 $-1 $522 reversed single #
loop $-1 $-1 $497 $452 #
plane-surface $-1 60.28382213812677293 0 7.218082822529816589 0 1 0 0 0 1 forward_v I I I I #
coedge $-1 $523 $512 $510 $524 forward $453 $-1 #
coedge $-1 $525 $455 $523 $526 reversed $411 $-1 #
coedge $-1 $455 $525 $457 $499 reversed $411 $-1 #
coedge $-1 $519 $516 $455 $495 reversed $476 $-1 #
edge $-1 $527 -1.630484439451855394 $528 1.630484439451855394 $494 $529 forward 7 unknown #
coedge $-1 $457 $456 $519 $530 forward $353 $-1 #
coedge $-1 $505 $504 $456 $498 forward $489 $-1 #
edge $-1 $531 -60.28382213812677293 $502 60.28382213812677293 $497 $532 forward 7 unknown #
edge $-1 $527 -60.28382213812677293 $501 60.28382213812677293 $493 $533 forward 7 unknown #
coedge $-1 $510 $458 $525 $534 forward $463 $-1 #
vertex $-1 $459 $535 #
vertex $-1 $459 $536 #
straight-curve $-1 120.5676442762535459 -3.19686810921079001 3.260968878903710788 0 1 0 I I #
coedge $-1 $497 $460 $475 $520 forward $489 $-1 #
coedge $-1 $460 $497 $462 $507 reversed $489 $-1 #
straight-curve $-1 60.28382213812677293 0 14.43616564505963318 1 0 0 I I #
edge $-1 $464 -7.218082822529816589 $502 3.957113943626105801 $462 $537 forward 7 unknown #
face $-1 $-1 $463 $11 $-1 $538 reversed single #
point $-1 120.5676442762535459 0 14.43616564505963318 #
coedge $-1 $467 $500 $491 $524 reversed $463 $-1 #
point $-1 120.5676442762535459 49.23598889311040239 8.216895793507003276 #
coedge $-1 $491 $539 $471 $513 forward $453 $-1 #
edge $-1 $517 -60.28382213812677293 $514 60.28382213812677293 $471 $540 forward 7 unknown #
vertex $-1 $524 $541 #
straight-curve $-1 120.5676442762535459 49.23598889311040949 7.218082822529816589 0 0 -1 I I #
coedge $-1 $494 $473 $539 $542 reversed $476 $-1 #
vertex $-1 $513 $543 #
straight-curve $-1 0 49.23598889311040949 7.218082822529816589 0 0 -1 I I #
coedge $-1 $475 $494 $496 $530 reversed $476 $-1 #
edge $-1 $477 -7.218082822529816589 $531 3.957113943626105801 $475 $544 forward 7 unknown #
point $-1 0 0 14.43616564505963318 #
plane-surface $-1 0 24.61799444655520475 7.218082822529816589 1 0 0 0 0 -1 forward_v I I I I #
coedge $-1 $539 $491 $492 $526 forward $453 $-1 #
edge $-1 $514 -24.61799444655520475 $545 31.01173066497678477 $510 $546 forward 7 unknown #
coedge $-1 $493 $492 $500 $534 reversed $411 $-1 #
edge $-1 $545 -60.28382213812677293 $528 60.28382213812677293 $492 $547 forward 7 unknown #
vertex $-1 $530 $548 #
vertex $-1 $542 $549 #
straight-curve $-1 0 -6.39373621842158002 1.630484439451855394 0 0 -1 I I #
edge $-1 $531 -3.19686810921079001 $527 3.19686810921079001 $519 $550 forward 7 unknown #
vertex $-1 $520 $551 #
straight-curve $-1 60.28382213812677293 0 3.260968878903710788 1 0 0 I I #
straight-curve $-1 60.28382213812677293 -6.39373621842158002 3.260968878903710788 1 0 0 I I #
edge $-1 $501 -1.630484439451855394 $545 1.630484439451855394 $500 $552 forward 7 unknown #
point $-1 120.5676442762535459 -6.39373621842158002 3.260968878903710788 #
point $-1 120.5676442762535459 0 3.260968878903710788 #
straight-curve $-1 120.5676442762535459 0 7.218082822529816589 0 0 -1 I I #
plane-surface $-1 120.5676442762535459 24.61799444655520475 7.218082822529816589 -1 0 0 0 0 1 forward_v I I I I #
coedge $-1 $512 $523 $516 $542 forward $453 $-1 #
straight-curve $-1 60.28382213812677293 49.23598889311040949 0 1 0 0 I I #
point $-1 120.5676442762535459 49.23598889311040949 0 #
edge $-1 $528 -31.01173066497678477 $517 24.61799444655520475 $516 $553 forward 7 unknown #
point $-1 0 49.23598889311040949 0 #
straight-curve $-1 0 0 7.218082822529816589 0 0 -1 I I #
vertex $-1 $534 $554 #
straight-curve $-1 120.5676442762535459 24.61799444655520475 0 0 -1 0 I I #
straight-curve $-1 60.28382213812677293 -6.39373621842158002 0 -1 0 0 I I #
point $-1 0 -6.39373621842158002 3.260968878903710788 #
point $-1 0 -6.39373621842158002 0 #
straight-curve $-1 0 -3.19686810921079001 3.260968878903710788 0 -1 0 I I #
point $-1 0 0 3.260968878903710788 #
straight-curve $-1 120.5676442762535459 -6.39373621842158002 1.630484439451855394 0 0 -1 I I #
straight-curve $-1 0 24.61799444655520475 0 0 1 0 I I #
point $-1 120.5676442762535459 -6.39373621842158002 0 #
End-of-ACIS-data 