300 0 7 0           
7 Unknown 11 ACIS 3.0 NT 24 Fri Oct 30 17:53:29 1998 
-1 9.9999999999999995e-007 1e-010 
body $7 $8 $-1 $9 #
body $10 $11 $-1 $12 #
body $13 $14 $-1 $15 #
body $16 $17 $-1 $18 #
body $19 $20 $-1 $21 #
body $22 $23 $-1 $24 #
body $25 $26 $-1 $27 #
display_attribute-st-attrib $-1 $28 $-1 $0 1 #
lump $-1 $-1 $29 $0 #
transform $-1 1 0 0 0 1 0 0 0 1 79.058809167760245 31.76611760679387 15.125430063820245 1 rotate no_reflect no_shear #
display_attribute-st-attrib $-1 $30 $-1 $1 3 #
lump $-1 $-1 $31 $1 #
transform $-1 1 0 0 0 1 0 0 0 1 79.058809167760245 31.76611760679387 15.125430063820245 1 rotate no_reflect no_shear #
display_attribute-st-attrib $-1 $32 $-1 $2 3 #
lump $-1 $-1 $33 $2 #
transform $-1 1 0 0 0 1 0 0 0 1 79.058809167760245 31.76611760679387 15.125430063820245 1 rotate no_reflect no_shear #
display_attribute-st-attrib $-1 $34 $-1 $3 3 #
lump $-1 $-1 $35 $3 #
transform $-1 1 0 0 0 1 0 0 0 1 79.058809167760245 31.76611760679387 15.125430063820245 1 rotate no_reflect no_shear #
display_attribute-st-attrib $-1 $36 $-1 $4 3 #
lump $-1 $-1 $37 $4 #
transform $-1 1 0 0 0 1 0 0 0 1 79.058809167760245 31.76611760679387 15.125430063820245 1 rotate no_reflect no_shear #
display_attribute-st-attrib $-1 $38 $-1 $5 3 #
lump $-1 $-1 $39 $5 #
transform $-1 1 0 0 0 1 0 0 0 1 79.058809167760245 31.76611760679387 15.125430063820245 1 rotate no_reflect no_shear #
display_attribute-st-attrib $-1 $40 $-1 $6 3 #
lump $-1 $-1 $41 $6 #
transform $-1 1 0 0 0 1 0 0 0 1 79.058809167760245 31.76611760679387 15.125430063820245 1 rotate no_reflect no_shear #
id_attribute-st-attrib $-1 $-1 $7 $0 1194 #
shell $-1 $-1 $-1 $42 $-1 $8 #
id_attribute-st-attrib $-1 $-1 $10 $1 1203 #
shell $-1 $-1 $-1 $43 $-1 $11 #
id_attribute-st-attrib $-1 $-1 $13 $2 1210 #
shell $-1 $-1 $-1 $44 $-1 $14 #
id_attribute-st-attrib $-1 $-1 $16 $3 1218 #
shell $-1 $-1 $-1 $45 $-1 $17 #
id_attribute-st-attrib $-1 $-1 $19 $4 1232 #
shell $-1 $-1 $-1 $46 $-1 $20 #
id_attribute-st-attrib $-1 $-1 $22 $5 1242 #
shell $-1 $-1 $-1 $47 $-1 $23 #
id_attribute-st-attrib $-1 $-1 $25 $6 1253 #
shell $-1 $-1 $-1 $48 $-1 $26 #
face $-1 $49 $50 $29 $-1 $51 forward single #
face $-1 $52 $53 $31 $-1 $54 reversed single #
face $-1 $55 $56 $33 $-1 $57 forward single #
face $-1 $58 $59 $35 $-1 $60 forward single #
face $-1 $61 $62 $37 $-1 $63 reversed single #
face $-1 $64 $65 $39 $-1 $66 forward single #
face $-1 $67 $68 $41 $-1 $69 forward single #
face $-1 $70 $71 $29 $-1 $72 reversed single #
loop $-1 $-1 $73 $42 #
plane-surface $-1 0 0 15.125430063820245 0 0 1 1 0 0 forward_v I I I I #
face $-1 $74 $75 $31 $-1 $76 reversed single #
loop $-1 $-1 $77 $43 #
plane-surface $-1 -184.8601482730852 -19.748177193439552 117.79255772786804 0 -1 0 0.66913061440640931 0 -0.74314481823134659 forward_v I I I I #
face $-1 $78 $79 $33 $-1 $80 forward single #
loop $-1 $81 $82 $44 #
cone-surface $-1 -69.967375993473979 -28.332420345835494 6.7603134089654757 0.66913061440640931 0 -0.74314481823134659 0.74314481823134659 0 0.66913061440640931 1 I I 0 1 forward I I I I #
face $-1 $83 $84 $35 $-1 $85 forward single #
loop $-1 $86 $87 $45 #
cone-surface $-1 -69.967375993473979 -23.181874454397928 6.7603134089654757 0.66913061440640931 0 -0.74314481823134659 0.74314481823134659 0 0.66913061440640931 1 I I 0 1 forward I I I I #
face $-1 $88 $89 $37 $-1 $90 reversed single #
loop $-1 $-1 $91 $46 #
plane-surface $-1 63.460421317521167 28.996538537137283 232.20094806716079 0 -1 0 -0.6560590369687036 0 -0.75470957328743171 forward_v I I I I #
face $-1 $92 $93 $39 $-1 $94 forward single #
loop $-1 $95 $96 $47 #
cone-surface $-1 74.36757477378174 21.653197223075523 10.697507703573466 -0.6560590369687036 0 -0.75470957328743171 0.75470957328743171 0 -0.6560590369687036 1 I I 0 1 forward I I I I #
face $-1 $97 $98 $41 $-1 $99 forward single #
loop $-1 $100 $101 $48 #
cone-surface $-1 74.36757477378174 26.059202011512575 10.697507703573466 -0.6560590369687036 0 -0.75470957328743171 0.75470957328743171 0 -0.6560590369687036 1 I I 0 1 forward I I I I #
face $-1 $102 $103 $29 $-1 $104 reversed single #
loop $-1 $-1 $105 $49 #
plane-surface $-1 0 0 -15.125430063820245 0 0 1 1 0 0 forward_v I I I I #
coedge $-1 $106 $107 $108 $109 forward $50 $-1 #
face $-1 $110 $111 $31 $-1 $112 forward single #
loop $-1 $-1 $113 $52 #
plane-surface $-1 -79.058809167760245 -25.757147400116711 0.2882689907442284 -0.66913061440640931 0 0.74314481823134659 0.74314481823134659 0 0.66913061440640931 forward_v I I I I #
coedge $-1 $114 $115 $116 $117 reversed $53 $-1 #
face $-1 $-1 $118 $33 $-1 $119 forward single #
loop $-1 $120 $121 $55 #
cone-surface $-1 -68.780545718704275 -28.332420345835494 5.4422048815330424 0.66913061440640931 0 -0.74314481823134659 0.3715724091156733 0 0.33456530720320465 1 I I -0.70710678118654746 0.70710678118654746 forward I I I I #
loop $-1 $-1 $122 $44 #
coedge $-1 $82 $82 $123 $124 reversed $56 $-1 #
face $-1 $-1 $125 $35 $-1 $126 forward single #
loop $-1 $127 $128 $58 #
cone-surface $-1 -68.780545718704275 -23.181874454397928 5.4422048815330424 0.66913061440640931 0 -0.74314481823134659 0.3715724091156733 0 0.33456530720320465 1 I I -0.70710678118654746 0.70710678118654746 forward I I I I #
loop $-1 $-1 $129 $45 #
coedge $-1 $87 $87 $130 $131 reversed $59 $-1 #
face $-1 $132 $133 $37 $-1 $134 reversed single #
loop $-1 $-1 $135 $61 #
plane-surface $-1 -40.27407109546543 23.856199617294052 112.86806780393513 0.6560590369687036 0 0.75470957328743171 0.75470957328743171 0 -0.6560590369687036 forward_v I I I I #
coedge $-1 $136 $137 $138 $139 reversed $62 $-1 #
face $-1 $-1 $140 $39 $-1 $141 forward single #
loop $-1 $142 $143 $64 #
cone-surface $-1 72.794730945902671 21.653197223075523 8.8881578931188177 -0.6560590369687036 0 -0.75470957328743171 0.37735478664371586 0 -0.3280295184843518 1 I I -0.70710678118654746 0.70710678118654746 forward I I I I #
loop $-1 $-1 $144 $47 #
coedge $-1 $96 $96 $145 $146 reversed $65 $-1 #
face $-1 $-1 $147 $41 $-1 $148 forward single #
loop $-1 $149 $150 $67 #
cone-surface $-1 72.794730945902671 26.059202011512575 8.8881578931188177 -0.6560590369687036 0 -0.75470957328743171 0.37735478664371586 0 -0.3280295184843518 1 I I -0.70710678118654746 0.70710678118654746 forward I I I I #
loop $-1 $-1 $151 $48 #
coedge $-1 $101 $101 $152 $153 reversed $68 $-1 #
face $-1 $154 $155 $29 $-1 $156 reversed single #
loop $-1 $-1 $157 $70 #
plane-surface $-1 0 -31.76611760679387 0 0 1 0 0 0 1 forward_v I I I I #
coedge $-1 $158 $159 $160 $161 forward $71 $-1 #
coedge $-1 $162 $73 $163 $164 forward $50 $-1 #
coedge $-1 $73 $162 $165 $166 forward $50 $-1 #
coedge $-1 $167 $168 $73 $109 reversed $169 $-1 #
edge $-1 $170 $171 $108 $172 forward #
face $-1 $173 $174 $31 $-1 $175 reversed single #
loop $-1 $-1 $176 $74 #
plane-surface $-1 0 0 15.125430063820245 0 0 1 1 0 0 forward_v I I I I #
coedge $-1 $177 $178 $179 $180 reversed $75 $-1 #
coedge $-1 $115 $77 $181 $182 reversed $53 $-1 #
coedge $-1 $77 $114 $177 $183 reversed $53 $-1 #
coedge $-1 $179 $184 $77 $117 forward $174 $-1 #
edge $-1 $185 $186 $116 $187 forward #
loop $-1 $-1 $123 $78 #
plane-surface $-1 -79.058809167760245 -25.757147400116711 0.2882689907442284 -0.66913061440640931 0 0.74314481823134659 0.74314481823134659 0 0.66913061440640931 forward_v I I I I #
loop $-1 $-1 $188 $55 #
coedge $-1 $121 $121 $122 $189 reversed $79 $-1 #
coedge $-1 $122 $122 $121 $189 forward $81 $-1 #
coedge $-1 $123 $123 $82 $124 forward $118 $-1 #
edge $-1 $190 $190 $123 $191 forward #
loop $-1 $-1 $130 $83 #
plane-surface $-1 -79.058809167760245 -25.757147400116711 0.2882689907442284 -0.66913061440640931 0 0.74314481823134659 0.74314481823134659 0 0.66913061440640931 forward_v I I I I #
loop $-1 $-1 $192 $58 #
coedge $-1 $128 $128 $129 $193 reversed $84 $-1 #
coedge $-1 $129 $129 $128 $193 forward $86 $-1 #
coedge $-1 $130 $130 $87 $131 forward $125 $-1 #
edge $-1 $194 $194 $130 $195 forward #
face $-1 $196 $197 $37 $-1 $198 reversed single #
loop $-1 $-1 $199 $88 #
plane-surface $-1 63.460421317521167 18.715860697450822 232.20094806716079 0 1 0 0.6560590369687036 0 0.75470957328743171 forward_v I I I I #
coedge $-1 $200 $201 $202 $203 reversed $89 $-1 #
coedge $-1 $137 $91 $204 $205 reversed $62 $-1 #
coedge $-1 $91 $136 $200 $206 reversed $62 $-1 #
coedge $-1 $202 $207 $91 $139 forward $208 $-1 #
edge $-1 $209 $210 $138 $211 forward #
loop $-1 $-1 $145 $92 #
plane-surface $-1 -40.27407109546543 23.856199617294052 112.86806780393513 0.6560590369687036 0 0.75470957328743171 0.75470957328743171 0 -0.6560590369687036 forward_v I I I I #
loop $-1 $-1 $212 $64 #
coedge $-1 $143 $143 $144 $213 reversed $93 $-1 #
coedge $-1 $144 $144 $143 $213 forward $95 $-1 #
coedge $-1 $145 $145 $96 $146 forward $140 $-1 #
edge $-1 $214 $214 $145 $215 forward #
loop $-1 $-1 $152 $97 #
plane-surface $-1 -40.27407109546543 23.856199617294052 112.86806780393513 0.6560590369687036 0 0.75470957328743171 0.75470957328743171 0 -0.6560590369687036 forward_v I I I I #
loop $-1 $-1 $216 $67 #
coedge $-1 $150 $150 $151 $217 reversed $98 $-1 #
coedge $-1 $151 $151 $150 $217 forward $100 $-1 #
coedge $-1 $152 $152 $101 $153 forward $147 $-1 #
edge $-1 $218 $218 $152 $219 forward #
face $-1 $220 $221 $29 $-1 $222 reversed single #
loop $-1 $-1 $223 $102 #
plane-surface $-1 -79.058809167760245 0 0 1 0 0 0 0 -1 forward_v I I I I #
coedge $-1 $224 $165 $225 $226 forward $103 $-1 #
coedge $-1 $227 $105 $224 $228 forward $71 $-1 #
coedge $-1 $105 $227 $229 $230 forward $71 $-1 #
coedge $-1 $168 $167 $105 $161 reversed $169 $-1 #
edge $-1 $231 $232 $160 $233 forward #
coedge $-1 $107 $106 $234 $235 forward $50 $-1 #
coedge $-1 $236 $237 $106 $164 reversed $221 $-1 #
edge $-1 $171 $238 $163 $239 forward #
coedge $-1 $157 $240 $107 $166 reversed $103 $-1 #
edge $-1 $241 $170 $165 $242 forward #
coedge $-1 $160 $108 $240 $243 forward $169 $-1 #
coedge $-1 $108 $160 $236 $244 reversed $169 $-1 #
loop $-1 $-1 $167 $220 #
vertex $-1 $109 $245 #
vertex $-1 $109 $246 #
straight-curve $-1 79.058809167760245 0 15.125430063820245 0 1 0 I I #
face $-1 $-1 $247 $31 $-1 $248 reversed single #
loop $-1 $-1 $116 $110 #
plane-surface $-1 -79.058809167760245 0 0 1 0 0 0 0 -1 forward_v I I I I #
coedge $-1 $181 $249 $250 $251 forward $111 $-1 #
coedge $-1 $250 $113 $115 $183 forward $75 $-1 #
coedge $-1 $113 $250 $252 $253 reversed $75 $-1 #
coedge $-1 $254 $116 $113 $180 forward $174 $-1 #
edge $-1 $186 $255 $179 $256 forward #
coedge $-1 $257 $176 $114 $182 forward $111 $-1 #
edge $-1 $258 $185 $181 $259 forward #
edge $-1 $186 $258 $115 $260 forward #
coedge $-1 $116 $254 $257 $261 reversed $174 $-1 #
vertex $-1 $261 $262 #
vertex $-1 $117 $263 #
straight-curve $-1 -79.058809167760245 -19.748177193439552 58.896278863934022 0 0 -1 I I #
coedge $-1 $188 $188 $-1 $264 reversed $120 $-1 #
edge $-1 $265 $265 $121 $266 forward #
vertex $-1 $124 $267 #
ellipse-curve $-1 -70.819640961040477 -28.332420345835494 7.706849527282241 -0.66913061440640931 0 0.74314481823134659 0.74314481823134659 0 0.66913061440640931 1 I I #
coedge $-1 $192 $192 $-1 $268 reversed $127 $-1 #
edge $-1 $269 $269 $128 $270 forward #
vertex $-1 $131 $271 #
ellipse-curve $-1 -70.819640961040477 -23.181874454397928 7.706849527282241 -0.66913061440640931 0 0.74314481823134659 0.74314481823134659 0 0.66913061440640931 1 I I #
face $-1 $-1 $208 $37 $-1 $272 forward single #
loop $-1 $-1 $273 $132 #
plane-surface $-1 79.058809167760245 0 0 -1 0 0 0 0 1 forward_v I I I I #
coedge $-1 $274 $275 $276 $277 reversed $133 $-1 #
coedge $-1 $278 $135 $137 $206 forward $89 $-1 #
coedge $-1 $135 $278 $274 $279 forward $89 $-1 #
coedge $-1 $276 $138 $135 $203 forward $208 $-1 #
edge $-1 $210 $280 $202 $281 forward #
coedge $-1 $282 $283 $136 $205 forward $197 $-1 #
edge $-1 $284 $209 $204 $285 forward #
edge $-1 $210 $284 $137 $286 forward #
coedge $-1 $138 $276 $282 $287 forward $208 $-1 #
loop $-1 $-1 $276 $196 #
vertex $-1 $205 $288 #
vertex $-1 $139 $289 #
straight-curve $-1 31.730210658760583 28.996538537137283 15.125430063820247 -1 0 0 I I #
coedge $-1 $212 $212 $-1 $290 reversed $142 $-1 #
edge $-1 $291 $291 $143 $292 forward #
vertex $-1 $146 $293 #
ellipse-curve $-1 75.612389083176438 21.653197223075523 12.12950272738437 0.6560590369687036 0 0.75470957328743171 0.75470957328743171 0 -0.6560590369687036 1 I I #
coedge $-1 $216 $216 $-1 $294 reversed $149 $-1 #
edge $-1 $295 $295 $150 $296 forward #
vertex $-1 $153 $297 #
ellipse-curve $-1 75.612389083176438 26.059202011512575 12.12950272738437 0.6560590369687036 0 0.75470957328743171 0.75470957328743171 0 -0.6560590369687036 1 I I #
face $-1 $-1 $169 $29 $-1 $298 reversed single #
loop $-1 $-1 $236 $154 #
plane-surface $-1 0 31.76611760679387 0 0 -1 0 0 0 -1 forward_v I I I I #
coedge $-1 $299 $234 $237 $300 forward $155 $-1 #
coedge $-1 $240 $157 $158 $228 reversed $103 $-1 #
coedge $-1 $234 $299 $157 $226 reversed $155 $-1 #
edge $-1 $241 $301 $225 $302 forward #
coedge $-1 $159 $158 $299 $303 forward $71 $-1 #
edge $-1 $232 $301 $224 $304 forward #
coedge $-1 $237 $236 $159 $230 reversed $221 $-1 #
edge $-1 $305 $231 $229 $306 forward #
vertex $-1 $161 $307 #
vertex $-1 $243 $308 #
straight-curve $-1 79.058809167760245 0 -15.125430063820245 0 -1 0 I I #
coedge $-1 $223 $225 $162 $235 reversed $155 $-1 #
edge $-1 $238 $241 $234 $309 forward #
coedge $-1 $229 $163 $168 $244 forward $221 $-1 #
coedge $-1 $163 $229 $223 $300 reversed $221 $-1 #
vertex $-1 $164 $310 #
straight-curve $-1 0 31.76611760679387 15.125430063820245 -1 0 0 I I #
coedge $-1 $165 $224 $167 $243 reversed $103 $-1 #
vertex $-1 $235 $311 #
straight-curve $-1 0 -31.76611760679387 15.125430063820245 1 0 0 I I #
edge $-1 $170 $232 $167 $312 forward #
edge $-1 $171 $231 $168 $313 forward #
point $-1 79.058809167760245 -31.76611760679387 15.125430063820245 #
point $-1 79.058809167760245 31.76611760679387 15.125430063820245 #
loop $-1 $-1 $252 $173 #
plane-surface $-1 0 -31.76611760679387 0 0 1 0 0 0 1 forward_v I I I I #
coedge $-1 $176 $257 $314 $315 forward $111 $-1 #
coedge $-1 $178 $177 $176 $251 reversed $75 $-1 #
edge $-1 $316 $258 $176 $317 forward #
coedge $-1 $314 $318 $178 $253 forward $247 $-1 #
edge $-1 $255 $316 $252 $319 forward #
coedge $-1 $184 $179 $318 $320 reversed $174 $-1 #
vertex $-1 $180 $321 #
straight-curve $-1 -79.058809167760245 -12.878573700058356 0.28826899074422774 0 -1 0 I I #
coedge $-1 $249 $181 $184 $261 forward $111 $-1 #
vertex $-1 $182 $322 #
straight-curve $-1 -92.430074136542601 -19.748177193439552 15.125430063820247 -1 0 0 I I #
straight-curve $-1 -79.058809167760245 -19.748177193439552 0.2882689907442284 0.74314481823134659 0 0.66913061440640931 I I #
edge $-1 $185 $323 $184 $324 forward #
point $-1 -79.058809167760245 -19.748177193439552 15.125430063820245 #
point $-1 -79.058809167760245 -19.748177193439552 0.2882689907442284 #
edge $-1 $325 $325 $188 $-1 forward #
vertex $-1 $189 $326 #
ellipse-curve $-1 -69.115111025907481 -28.332420345835494 5.8137772906487157 -0.66913061440640931 0 0.74314481823134659 0.74314481823134659 0 0.66913061440640931 1 I I #
point $-1 -70.076496142809134 -28.332420345835494 8.375980141688645 #
edge $-1 $327 $327 $192 $-1 forward #
vertex $-1 $193 $328 #
ellipse-curve $-1 -69.115111025907481 -23.181874454397928 5.8137772906487157 -0.66913061440640931 0 0.74314481823134659 0.74314481823134659 0 0.66913061440640931 1 I I #
point $-1 -70.076496142809134 -23.181874454397928 8.375980141688645 #
plane-surface $-1 0 0 15.125430063820245 0 0 1 1 0 0 forward_v I I I I #
coedge $-1 $283 $282 $275 $329 forward $197 $-1 #
coedge $-1 $275 $199 $201 $279 reversed $133 $-1 #
coedge $-1 $199 $274 $273 $329 reversed $133 $-1 #
coedge $-1 $207 $202 $199 $277 forward $208 $-1 #
edge $-1 $280 $330 $276 $331 forward #
coedge $-1 $201 $200 $283 $332 reversed $89 $-1 #
edge $-1 $333 $280 $274 $334 forward #
vertex $-1 $203 $335 #
straight-curve $-1 72.165968998592589 11.928099808647026 15.125430063820261 0 -1 0 I I #
coedge $-1 $273 $204 $207 $287 reversed $197 $-1 #
coedge $-1 $204 $273 $278 $332 forward $197 $-1 #
vertex $-1 $205 $336 #
straight-curve $-1 79.058809167760245 28.996538537137283 116.1004740335804 0 0 1 I I #
straight-curve $-1 -40.27407109546543 28.996538537137283 112.86806780393513 0.75470957328743171 0 -0.6560590369687036 I I #
edge $-1 $330 $209 $282 $337 forward #
point $-1 79.058809167760245 28.996538537137283 15.125430063820245 #
point $-1 72.165968998592589 28.996538537137283 15.125430063820247 #
edge $-1 $338 $338 $212 $-1 forward #
vertex $-1 $213 $339 #
ellipse-curve $-1 73.122760464387028 21.653197223075523 9.2655126797625336 0.6560590369687036 0 0.75470957328743171 0.75470957328743171 0 -0.6560590369687036 1 I I #
point $-1 76.367098656463895 21.653197223075523 11.473443690415696 #
edge $-1 $340 $340 $216 $-1 forward #
vertex $-1 $217 $341 #
ellipse-curve $-1 73.122760464387028 26.059202011512575 9.2655126797625336 0.6560590369687036 0 0.75470957328743171 0.75470957328743171 0 -0.6560590369687036 1 I I #
point $-1 76.367098656463895 26.059202011512575 11.473443690415696 #
plane-surface $-1 79.058809167760245 0 0 -1 0 0 0 0 1 forward_v I I I I #
coedge $-1 $225 $223 $227 $303 reversed $155 $-1 #
edge $-1 $238 $305 $237 $342 forward #
vertex $-1 $303 $343 #
straight-curve $-1 -79.058809167760245 -31.76611760679387 0 0 0 -1 I I #
edge $-1 $301 $305 $299 $344 forward #
straight-curve $-1 0 -31.76611760679387 -15.125430063820245 -1 0 0 I I #
vertex $-1 $230 $345 #
straight-curve $-1 0 31.76611760679387 -15.125430063820245 1 0 0 I I #
point $-1 79.058809167760245 31.76611760679387 -15.125430063820245 #
point $-1 79.058809167760245 -31.76611760679387 -15.125430063820245 #
straight-curve $-1 -79.058809167760245 0 15.125430063820245 0 -1 0 I I #
point $-1 -79.058809167760245 31.76611760679387 15.125430063820245 #
point $-1 -79.058809167760245 -31.76611760679387 15.125430063820245 #
straight-curve $-1 79.058809167760245 -31.76611760679387 0 0 0 -1 I I #
straight-curve $-1 79.058809167760245 31.76611760679387 0 0 0 -1 I I #
coedge $-1 $318 $252 $249 $315 reversed $247 $-1 #
edge $-1 $323 $316 $314 $346 forward #
vertex $-1 $253 $347 #
straight-curve $-1 -62.580472754320738 -12.878573700058356 15.125430063820243 0 1 0 I I #
coedge $-1 $252 $314 $254 $320 forward $247 $-1 #
straight-curve $-1 -57.29980579994772 -31.76611760679387 19.880164049673379 0.74314481823134659 0 0.66913061440640931 I I #
edge $-1 $323 $255 $254 $348 forward #
point $-1 -79.058809167760245 -31.76611760679387 0.2882689907442284 #
point $-1 -62.580472754320738 -19.748177193439552 15.125430063820245 #
vertex $-1 $261 $349 #
straight-curve $-1 -79.058809167760245 0 15.125430063820245 0 -1 0 I I #
vertex $-1 $264 $350 #
point $-1 -68.371966207676138 -28.332420345835494 6.482907905055125 #
vertex $-1 $268 $351 #
point $-1 -68.371966207676138 -23.181874454397928 6.482907905055125 #
edge $-1 $330 $333 $273 $352 forward #
vertex $-1 $287 $353 #
straight-curve $-1 31.730210658760583 18.715860697450822 15.125430063820247 1 0 0 I I #
edge $-1 $333 $284 $283 $354 forward #
vertex $-1 $332 $355 #
straight-curve $-1 -40.27407109546543 18.715860697450822 112.86806780393513 -0.75470957328743171 0 0.6560590369687036 I I #
point $-1 72.165968998592589 18.715860697450822 15.125430063820247 #
point $-1 79.058809167760245 28.996538537137283 9.1335753909485078 #
straight-curve $-1 79.058809167760245 0 15.125430063820245 0 1 0 I I #
vertex $-1 $290 $356 #
point $-1 73.877470037674456 21.653197223075523 8.6094536427938291 #
vertex $-1 $294 $357 #
point $-1 73.877470037674456 26.059202011512575 8.6094536427938291 #
straight-curve $-1 -79.058809167760245 31.76611760679387 0 0 0 -1 I I #
point $-1 -79.058809167760245 -31.76611760679387 -15.125430063820245 #
straight-curve $-1 -79.058809167760245 0 -15.125430063820245 0 1 0 I I #
point $-1 -79.058809167760245 31.76611760679387 -15.125430063820245 #
straight-curve $-1 0 -31.76611760679387 15.125430063820245 1 0 0 I I #
point $-1 -62.580472754320738 -31.76611760679387 15.125430063820245 #
straight-curve $-1 -79.058809167760245 -31.76611760679387 0 0 0 -1 I I #
point $-1 -79.058809167760245 -31.76611760679387 15.125430063820245 #
point $-1 -68.445980411501068 -28.332420345835494 5.070632472417369 #
point $-1 -68.445980411501068 -23.181874454397928 5.070632472417369 #
straight-curve $-1 79.058809167760245 18.715860697450822 116.1004740335804 0 0 -1 I I #
point $-1 79.058809167760245 18.715860697450822 15.125430063820245 #
straight-curve $-1 79.058809167760245 11.928099808647026 9.1335753909485078 0 1 0 I I #
point $-1 79.058809167760245 18.715860697450822 9.1335753909485078 #
point $-1 72.466701427418315 21.653197223075523 8.5108031064751017 #
point $-1 72.466701427418315 26.059202011512575 8.5108031064751017 #
End-of-ACIS-data 