600 0 5 0           
95 GICL ACIS Healer - Source: /gicl/data5/repository/Drexel/SM99-DATA/part111.smdg.delta.sat - 6 0 18 ACIS 6.0.3 Solaris 24 Sat Apr 13 20:44:00 2002 
1 9.999999999999999547e-07 1.000000000000000036e-10 
body $-1 $5 $-1 $-1 #
body $-1 $6 $-1 $-1 #
body $-1 $7 $-1 $-1 #
body $-1 $8 $-1 $-1 #
body $-1 $9 $-1 $-1 #
lump $-1 $-1 $10 $0 #
lump $-1 $-1 $11 $1 #
lump $-1 $-1 $12 $2 #
lump $-1 $-1 $13 $3 #
lump $-1 $-1 $14 $4 #
shell $-1 $-1 $-1 $15 $-1 $5 #
shell $-1 $-1 $-1 $16 $-1 $6 #
shell $-1 $-1 $-1 $17 $-1 $7 #
shell $-1 $-1 $-1 $18 $-1 $8 #
shell $-1 $-1 $-1 $19 $-1 $9 #
face $-1 $20 $21 $10 $-1 $22 forward single #
face $-1 $23 $24 $11 $-1 $25 reversed single #
face $-1 $26 $27 $12 $-1 $28 forward single #
face $-1 $29 $30 $13 $-1 $31 forward single #
face $-1 $32 $33 $14 $-1 $34 forward single #
face $-1 $35 $36 $10 $-1 $37 reversed single #
loop $-1 $-1 $38 $15 #
plane-surface $-1 79.3115024262215087 53.36286624468802131 29.33027805617942718 0 0 1 1 0 0 forward_v I I I I #
face $-1 $39 $40 $11 $-1 $41 reversed single #
loop $-1 $-1 $42 $16 #
plane-surface $-1 118.8942269251116386 -86.39228142593007931 148.0300903424995624 -1 0 0 0 -0.5446390421508873203 0.8386705633113421543 forward_v I I I I #
face $-1 $43 $44 $12 $-1 $45 forward single #
loop $-1 $46 $47 $17 #
cone-surface $-1 95.84787810889035597 12.44034682128080505 20.00016255085606076 0 0.5446390421508873203 -0.8386705633113421543 1.5 0 0 1 I I 0 1 1.5 forward I I I I #
face $-1 $48 $49 $13 $-1 $50 forward single #
loop $-1 $51 $52 $18 #
cone-surface $-1 104.4902589149733387 12.44034682128080505 20.00016255085606076 0 0.5446390421508873203 -0.8386705633113421543 1.5 0 0 1 I I 0 1 1.5 forward I I I I #
face $-1 $53 $54 $14 $-1 $55 forward single #
loop $-1 $56 $57 $19 #
cone-surface $-1 113.1326397210563215 12.44034682128080505 20.00016255085606076 0 0.5446390421508873203 -0.8386705633113421543 1.5 0 0 1 I I 0 1 1.5 forward I I I I #
face $-1 $58 $59 $10 $-1 $60 reversed single #
loop $-1 $-1 $61 $20 #
plane-surface $-1 79.3115024262215087 53.36286624468802131 0 0 0 1 1 0 0 forward_v I I I I #
coedge $-1 $62 $63 $64 $65 forward $21 $-1 #
face $-1 $66 $67 $11 $-1 $68 reversed single #
loop $-1 $-1 $69 $23 #
plane-surface $-1 104.4902589149733387 4.263256414560601115e-14 14.99764550876339975 0 -0.5446390421508873203 0.8386705633113421543 1 0 0 forward_v I I I I #
coedge $-1 $70 $71 $72 $73 reversed $24 $-1 #
face $-1 $-1 $74 $12 $-1 $75 forward single #
loop $-1 $76 $77 $26 #
cone-surface $-1 95.84787810889035597 14.25401378023507704 17.20736039675718132 0 0.5446390421508873203 -0.8386705633113421543 0.75 0 0 1 I I -0.7071067811865475727 0.7071067811865475727 0.75 forward I I I I #
loop $-1 $-1 $78 $17 #
coedge $-1 $47 $47 $79 $80 reversed $27 $-1 #
face $-1 $-1 $81 $13 $-1 $82 forward single #
loop $-1 $83 $84 $29 #
cone-surface $-1 104.4902589149733387 14.25401378023507704 17.20736039675718132 0 0.5446390421508873203 -0.8386705633113421543 0.75 0 0 1 I I -0.7071067811865475727 0.7071067811865475727 0.75 forward I I I I #
loop $-1 $-1 $85 $18 #
coedge $-1 $52 $52 $86 $87 reversed $30 $-1 #
face $-1 $-1 $88 $14 $-1 $89 forward single #
loop $-1 $90 $91 $32 #
cone-surface $-1 113.1326397210563215 14.25401378023507704 17.20736039675718132 0 0.5446390421508873203 -0.8386705633113421543 0.75 0 0 1 I I -0.7071067811865475727 0.7071067811865475727 0.75 forward I I I I #
loop $-1 $-1 $92 $19 #
coedge $-1 $57 $57 $93 $94 reversed $33 $-1 #
face $-1 $95 $96 $10 $-1 $97 reversed single #
loop $-1 $-1 $98 $35 #
plane-surface $-1 79.3115024262215087 0 14.66513902808971359 0 1 0 0 0 1 forward_v I I I I #
coedge $-1 $99 $100 $101 $102 forward $36 $-1 #
coedge $-1 $103 $38 $104 $105 forward $21 $-1 #
coedge $-1 $38 $103 $106 $107 forward $21 $-1 #
coedge $-1 $108 $109 $38 $65 reversed $110 $-1 #
edge $-1 $111 -53.36286624468802131 $112 53.36286624468802131 $64 $113 forward 7 unknown #
face $-1 $114 $115 $11 $-1 $116 reversed single #
loop $-1 $-1 $117 $39 #
plane-surface $-1 90.08629090483503887 -86.39228142593007931 148.0300903424995624 1 0 0 0 0.5446390421508873203 -0.8386705633113421543 forward_v I I I I #
coedge $-1 $118 $119 $120 $121 reversed $40 $-1 #
coedge $-1 $71 $42 $122 $123 reversed $24 $-1 #
coedge $-1 $42 $70 $118 $124 reversed $24 $-1 #
coedge $-1 $120 $125 $42 $73 forward $126 $-1 #
edge $-1 $127 16.514707590621029 $128 38.58502587850052379 $72 $129 forward 7 unknown #
loop $-1 $-1 $79 $43 #
plane-surface $-1 104.4902589149733387 4.263256414560601115e-14 14.99764550876339975 0 -0.5446390421508873203 0.8386705633113421543 1 0 0 forward_v I I I I #
loop $-1 $-1 $130 $26 #
coedge $-1 $77 $77 $78 $131 reversed $44 $-1 #
coedge $-1 $78 $78 $77 $131 forward $46 $-1 #
coedge $-1 $79 $79 $47 $80 forward $74 $-1 #
edge $-1 $132 -4.113947717127302211e-16 $132 6.283185307179586232 $79 $133 forward 7 unknown #
loop $-1 $-1 $86 $48 #
plane-surface $-1 104.4902589149733387 4.263256414560601115e-14 14.99764550876339975 0 -0.5446390421508873203 0.8386705633113421543 1 0 0 forward_v I I I I #
loop $-1 $-1 $134 $29 #
coedge $-1 $84 $84 $85 $135 reversed $49 $-1 #
coedge $-1 $85 $85 $84 $135 forward $51 $-1 #
coedge $-1 $86 $86 $52 $87 forward $81 $-1 #
edge $-1 $136 -4.113947717127302211e-16 $136 6.283185307179586232 $86 $137 forward 7 unknown #
loop $-1 $-1 $93 $53 #
plane-surface $-1 104.4902589149733387 4.263256414560601115e-14 14.99764550876339975 0 -0.5446390421508873203 0.8386705633113421543 1 0 0 forward_v I I I I #
loop $-1 $-1 $138 $32 #
coedge $-1 $91 $91 $92 $139 reversed $54 $-1 #
coedge $-1 $92 $92 $91 $139 forward $56 $-1 #
coedge $-1 $93 $93 $57 $94 forward $88 $-1 #
edge $-1 $140 -4.113947717127302211e-16 $140 6.283185307179586232 $93 $141 forward 7 unknown #
face $-1 $142 $143 $10 $-1 $144 reversed single #
loop $-1 $-1 $145 $58 #
plane-surface $-1 0 53.36286624468802131 14.66513902808971359 1 0 0 0 0 -1 forward_v I I I I #
coedge $-1 $146 $106 $147 $148 forward $59 $-1 #
coedge $-1 $149 $61 $146 $150 forward $36 $-1 #
coedge $-1 $61 $149 $151 $152 forward $36 $-1 #
coedge $-1 $109 $108 $61 $102 reversed $110 $-1 #
edge $-1 $153 -53.36286624468802131 $154 53.36286624468802131 $101 $155 forward 7 unknown #
coedge $-1 $63 $62 $156 $157 forward $21 $-1 #
coedge $-1 $158 $159 $62 $105 reversed $143 $-1 #
edge $-1 $112 -79.3115024262215087 $160 79.3115024262215087 $104 $161 forward 7 unknown #
coedge $-1 $98 $162 $63 $107 reversed $59 $-1 #
edge $-1 $163 -79.3115024262215087 $111 79.3115024262215087 $106 $164 forward 7 unknown #
coedge $-1 $101 $64 $162 $165 forward $110 $-1 #
coedge $-1 $64 $101 $158 $166 reversed $110 $-1 #
loop $-1 $-1 $108 $142 #
vertex $-1 $65 $167 #
vertex $-1 $65 $168 #
straight-curve $-1 158.6230048524430174 53.36286624468802131 29.33027805617942718 0 1 0 I I #
face $-1 $-1 $126 $11 $-1 $169 forward single #
loop $-1 $-1 $170 $66 #
plane-surface $-1 79.3115024262215087 0 14.66513902808971359 0 1 0 0 0 1 forward_v I I I I #
coedge $-1 $171 $172 $173 $174 reversed $67 $-1 #
coedge $-1 $175 $69 $71 $124 forward $40 $-1 #
coedge $-1 $69 $175 $171 $176 forward $40 $-1 #
coedge $-1 $173 $72 $69 $121 forward $126 $-1 #
edge $-1 $128 -26.99334625451422198 $177 1.814589765762377738 $120 $178 forward 7 unknown #
coedge $-1 $179 $180 $70 $123 forward $115 $-1 #
edge $-1 $181 -66.34996917653126047 $127 -52.01733662911520639 $122 $182 forward 7 unknown #
edge $-1 $128 -26.3158375330817762 $181 5.123424918786840315e-14 $71 $183 forward 7 unknown #
coedge $-1 $72 $173 $179 $184 forward $126 $-1 #
loop $-1 $-1 $173 $114 #
vertex $-1 $123 $185 #
vertex $-1 $73 $186 #
straight-curve $-1 118.8942269251116386 -16.514707590621029 29.33027805617942363 0 1 0 I I #
coedge $-1 $130 $130 $-1 $187 reversed $76 $-1 #
edge $-1 $188 0 $188 6.283185307179586232 $77 $189 forward 7 unknown #
vertex $-1 $80 $190 #
ellipse-curve $-1 95.84787810889035597 11.03515914393972963 22.16396178247138593 0 -0.5446390421508873203 0.8386705633113421543 1.5 0 0 1 I I #
coedge $-1 $134 $134 $-1 $191 reversed $83 $-1 #
edge $-1 $192 0 $192 6.283185307179586232 $84 $193 forward 7 unknown #
vertex $-1 $87 $194 #
ellipse-curve $-1 104.4902589149733387 11.03515914393972963 22.16396178247138593 0 -0.5446390421508873203 0.8386705633113421543 1.5 0 0 1 I I #
coedge $-1 $138 $138 $-1 $195 reversed $90 $-1 #
edge $-1 $196 0 $196 6.283185307179586232 $91 $197 forward 7 unknown #
vertex $-1 $94 $198 #
ellipse-curve $-1 113.1326397210563215 11.03515914393972963 22.16396178247138593 0 -0.5446390421508873203 0.8386705633113421543 1.5 0 0 1 I I #
face $-1 $-1 $110 $10 $-1 $199 reversed single #
loop $-1 $-1 $158 $95 #
plane-surface $-1 79.3115024262215087 106.7257324893760426 14.66513902808971359 0 -1 0 0 0 -1 forward_v I I I I #
coedge $-1 $200 $156 $159 $201 forward $96 $-1 #
coedge $-1 $162 $98 $99 $150 reversed $59 $-1 #
coedge $-1 $156 $200 $98 $148 reversed $96 $-1 #
edge $-1 $163 -14.66513902808971359 $202 14.66513902808971359 $147 $203 forward 7 unknown #
coedge $-1 $100 $99 $200 $204 forward $36 $-1 #
edge $-1 $154 -79.3115024262215087 $202 79.3115024262215087 $146 $205 forward 7 unknown #
coedge $-1 $159 $158 $100 $152 reversed $143 $-1 #
edge $-1 $206 -79.3115024262215087 $153 79.3115024262215087 $151 $207 forward 7 unknown #
vertex $-1 $102 $208 #
vertex $-1 $165 $209 #
straight-curve $-1 158.6230048524430174 53.36286624468802131 0 0 -1 0 I I #
coedge $-1 $145 $147 $103 $157 reversed $96 $-1 #
edge $-1 $160 -53.36286624468802131 $163 53.36286624468802131 $156 $210 forward 7 unknown #
coedge $-1 $151 $104 $109 $166 forward $143 $-1 #
coedge $-1 $104 $151 $145 $201 reversed $143 $-1 #
vertex $-1 $105 $211 #
straight-curve $-1 79.3115024262215087 106.7257324893760426 29.33027805617942718 -1 0 0 I I #
coedge $-1 $106 $146 $108 $165 reversed $59 $-1 #
vertex $-1 $157 $212 #
straight-curve $-1 79.3115024262215087 0 29.33027805617942718 1 0 0 I I #
edge $-1 $111 -14.66513902808971359 $154 14.66513902808971359 $108 $213 forward 7 unknown #
edge $-1 $112 -14.66513902808971359 $153 14.66513902808971359 $109 $214 forward 7 unknown #
point $-1 158.6230048524430174 0 29.33027805617942718 #
point $-1 158.6230048524430174 106.7257324893760426 29.33027805617942718 #
plane-surface $-1 79.3115024262215087 53.36286624468802131 29.33027805617942718 0 0 1 1 0 0 forward_v I I I I #
coedge $-1 $180 $179 $172 $215 forward $115 $-1 #
coedge $-1 $172 $117 $119 $176 reversed $67 $-1 #
coedge $-1 $117 $171 $170 $215 reversed $67 $-1 #
coedge $-1 $125 $120 $117 $174 forward $126 $-1 #
edge $-1 $177 -38.58502587850052379 $216 -16.514707590621029 $173 $217 forward 7 unknown #
coedge $-1 $119 $118 $180 $218 reversed $40 $-1 #
edge $-1 $219 -5.123424918786840315e-14 $177 26.3158375330817762 $171 $220 forward 7 unknown #
vertex $-1 $121 $221 #
straight-curve $-1 91.90088067059741661 22.07031828787949834 29.33027805617942718 -1 0 0 I I #
coedge $-1 $170 $122 $125 $184 reversed $115 $-1 #
coedge $-1 $122 $170 $175 $218 forward $115 $-1 #
vertex $-1 $123 $222 #
straight-curve $-1 118.8942269251116386 0 81.34761468529463002 0 0 1 I I #
straight-curve $-1 118.8942269251116386 4.263256414560601115e-14 14.99764550876339975 0 -0.8386705633113421543 -0.5446390421508873203 I I #
edge $-1 $216 10.77478847861353017 $127 39.58272449889012989 $179 $223 forward 7 unknown #
point $-1 118.8942269251116386 0 29.33027805617942718 #
point $-1 118.8942269251116386 22.07031828787949479 29.33027805617942718 #
edge $-1 $224 1 $224 0 $130 $-1 forward 7 unknown #
vertex $-1 $131 $225 #
ellipse-curve $-1 95.84787810889035597 13.84553449862190888 17.83636331924068941 0 -0.5446390421508873203 0.8386705633113421543 1.5 0 0 1 I I #
point $-1 97.34787810889035597 11.03515914393970121 22.16396178247142856 #
edge $-1 $226 1 $226 0 $134 $-1 forward 7 unknown #
vertex $-1 $135 $227 #
ellipse-curve $-1 104.4902589149733387 13.84553449862190888 17.83636331924068941 0 -0.5446390421508873203 0.8386705633113421543 1.5 0 0 1 I I #
point $-1 105.9902589149733387 11.03515914393970121 22.16396178247142856 #
edge $-1 $228 1 $228 0 $138 $-1 forward 7 unknown #
vertex $-1 $139 $229 #
ellipse-curve $-1 113.1326397210563215 13.84553449862190888 17.83636331924068941 0 -0.5446390421508873203 0.8386705633113421543 1.5 0 0 1 I I #
point $-1 114.6326397210563215 11.03515914393970121 22.16396178247142856 #
plane-surface $-1 158.6230048524430174 53.36286624468802131 14.66513902808971359 -1 0 0 0 0 1 forward_v I I I I #
coedge $-1 $147 $145 $149 $204 reversed $96 $-1 #
edge $-1 $160 -14.66513902808971359 $206 14.66513902808971359 $159 $230 forward 7 unknown #
vertex $-1 $204 $231 #
straight-curve $-1 0 0 14.66513902808971359 0 0 -1 I I #
edge $-1 $202 -53.36286624468802131 $206 53.36286624468802131 $200 $232 forward 7 unknown #
straight-curve $-1 79.3115024262215087 0 0 -1 0 0 I I #
vertex $-1 $152 $233 #
straight-curve $-1 79.3115024262215087 106.7257324893760426 0 1 0 0 I I #
point $-1 158.6230048524430174 106.7257324893760426 0 #
point $-1 158.6230048524430174 0 0 #
straight-curve $-1 0 53.36286624468802131 29.33027805617942718 0 -1 0 I I #
point $-1 0 106.7257324893760426 29.33027805617942718 #
point $-1 0 0 29.33027805617942718 #
straight-curve $-1 158.6230048524430174 0 14.66513902808971359 0 0 -1 I I #
straight-curve $-1 158.6230048524430174 106.7257324893760426 14.66513902808971359 0 0 -1 I I #
edge $-1 $216 52.01733662911520639 $219 66.34996917653126047 $170 $234 forward 7 unknown #
vertex $-1 $184 $235 #
straight-curve $-1 90.08629090483503887 -16.514707590621029 29.33027805617942363 0 -1 0 I I #
edge $-1 $219 -1.814589765762377738 $181 26.99334625451422198 $180 $236 forward 7 unknown #
vertex $-1 $218 $237 #
straight-curve $-1 90.08629090483503887 4.263256414560601115e-14 14.99764550876339975 0 0.8386705633113421543 0.5446390421508873203 I I #
point $-1 90.08629090483503887 22.07031828787949479 29.33027805617942718 #
point $-1 118.8942269251116386 0 14.99764550876337132 #
straight-curve $-1 79.3115024262215087 0 29.33027805617942718 1 0 0 I I #
vertex $-1 $187 $238 #
point $-1 97.34787810889035597 13.84553449862190888 17.83636331924068941 #
vertex $-1 $191 $239 #
point $-1 105.9902589149733387 13.84553449862190888 17.83636331924068941 #
vertex $-1 $195 $240 #
point $-1 114.6326397210563215 13.84553449862190888 17.83636331924068941 #
straight-curve $-1 0 106.7257324893760426 14.66513902808971359 0 0 -1 I I #
point $-1 0 0 0 #
straight-curve $-1 0 53.36286624468802131 0 0 1 0 I I #
point $-1 0 106.7257324893760426 0 #
straight-curve $-1 90.08629090483503887 0 81.34761468529463002 0 0 -1 I I #
point $-1 90.08629090483503887 0 29.33027805617942718 #
straight-curve $-1 91.90088067059741661 0 14.9976455087633731 1 0 0 I I #
point $-1 90.08629090483503887 0 14.99764550876337132 #
point $-1 95.84787810889035597 14.66249306184824519 16.57835747427367323 #
point $-1 104.4902589149733387 14.66249306184824519 16.57835747427367323 #
point $-1 113.1326397210563215 14.66249306184824519 16.57835747427367323 #
End-of-ACIS-data 