600 0 3 0           
94 GICL ACIS Healer - Source: /gicl/data5/repository/Drexel/SM99-DATA/part98.smdg.delta.sat - 6 0 18 ACIS 6.0.3 Solaris 24 Sat Apr 13 20:47:22 2002 
1 9.999999999999999547e-07 1.000000000000000036e-10 
body $-1 $3 $-1 $-1 #
body $-1 $4 $-1 $-1 #
body $-1 $5 $-1 $-1 #
lump $-1 $-1 $6 $0 #
lump $-1 $-1 $7 $1 #
lump $-1 $-1 $8 $2 #
shell $-1 $-1 $-1 $9 $-1 $3 #
shell $-1 $-1 $-1 $10 $-1 $4 #
shell $-1 $-1 $-1 $11 $-1 $5 #
face $-1 $12 $13 $6 $-1 $14 forward single #
face $-1 $15 $16 $7 $-1 $17 forward single #
face $-1 $18 $19 $8 $-1 $20 forward single #
face $-1 $21 $22 $6 $-1 $23 reversed single #
loop $-1 $-1 $24 $9 #
plane-surface $-1 55.26535843989379515 27.06631344449854026 16.17568863973623294 0 0 1 1 0 0 forward_v I I I I #
face $-1 $25 $26 $7 $-1 $27 reversed single #
loop $-1 $-1 $28 $10 #
plane-surface $-1 55.26535843989379515 2.682265554966118515 15.67568863973623294 0 0 1 1 0 0 forward_v I I I I #
face $-1 $29 $30 $8 $-1 $31 reversed single #
loop $-1 $-1 $32 $11 #
plane-surface $-1 55.26535843989379515 51.45036133403095846 15.67568863973623294 0 0 1 1 0 0 forward_v I I I I #
face $-1 $33 $34 $6 $-1 $35 reversed single #
loop $-1 $-1 $36 $12 #
plane-surface $-1 55.26535843989379515 27.06631344449854026 0 0 0 1 1 0 0 forward_v I I I I #
coedge $-1 $37 $38 $39 $40 forward $13 $-1 #
face $-1 $41 $42 $7 $-1 $43 reversed single #
loop $-1 $-1 $44 $15 #
plane-surface $-1 55.26535843989379515 2.682265554966118515 11.50274898579921157 0 0 1 1 0 0 forward_v I I I I #
coedge $-1 $45 $46 $47 $48 reversed $16 $-1 #
face $-1 $49 $50 $8 $-1 $51 reversed single #
loop $-1 $-1 $52 $18 #
plane-surface $-1 55.26535843989379515 51.45036133403095846 11.50274898579921157 0 0 1 1 0 0 forward_v I I I I #
coedge $-1 $53 $54 $55 $56 reversed $19 $-1 #
face $-1 $57 $58 $6 $-1 $59 reversed single #
loop $-1 $-1 $60 $21 #
plane-surface $-1 55.26535843989379515 0 8.087844319868116472 0 1 0 0 0 1 forward_v I I I I #
coedge $-1 $61 $62 $63 $64 forward $22 $-1 #
coedge $-1 $65 $24 $66 $67 forward $13 $-1 #
coedge $-1 $24 $65 $68 $69 forward $13 $-1 #
coedge $-1 $70 $71 $24 $40 reversed $72 $-1 #
edge $-1 $73 -27.06631344449854026 $74 27.06631344449854026 $39 $75 forward 7 unknown #
face $-1 $76 $77 $7 $-1 $78 reversed single #
loop $-1 $-1 $79 $25 #
plane-surface $-1 55.26535843989379515 5.36453110993223703 13.58921881276772226 0 -1 0 0 0 -1 forward_v I I I I #
coedge $-1 $80 $81 $82 $83 reversed $26 $-1 #
coedge $-1 $84 $28 $85 $86 forward $16 $-1 #
coedge $-1 $28 $84 $87 $88 reversed $16 $-1 #
coedge $-1 $89 $90 $28 $48 forward $91 $-1 #
edge $-1 $92 9.50975838980009236 $93 14.87428949973232939 $47 $94 forward 7 unknown #
face $-1 $95 $96 $8 $-1 $97 reversed single #
loop $-1 $-1 $98 $29 #
plane-surface $-1 55.26535843989379515 48.76809577906483639 13.58921881276772226 0 1 0 0 0 1 forward_v I I I I #
coedge $-1 $99 $100 $101 $102 reversed $30 $-1 #
coedge $-1 $103 $32 $104 $105 reversed $19 $-1 #
coedge $-1 $32 $103 $106 $107 forward $19 $-1 #
coedge $-1 $108 $109 $32 $56 forward $96 $-1 #
edge $-1 $110 -14.87428949973232761 $111 -9.509758389800083478 $55 $112 forward 7 unknown #
face $-1 $113 $114 $6 $-1 $115 reversed single #
loop $-1 $-1 $116 $33 #
plane-surface $-1 0 27.06631344449854026 8.087844319868116472 1 0 0 0 0 -1 forward_v I I I I #
coedge $-1 $117 $68 $118 $119 forward $34 $-1 #
coedge $-1 $120 $36 $117 $121 forward $22 $-1 #
coedge $-1 $36 $120 $122 $123 forward $22 $-1 #
coedge $-1 $71 $70 $36 $64 reversed $72 $-1 #
edge $-1 $124 -27.06631344449854026 $125 27.06631344449854026 $63 $126 forward 7 unknown #
coedge $-1 $38 $37 $127 $128 forward $13 $-1 #
coedge $-1 $129 $130 $37 $67 reversed $114 $-1 #
edge $-1 $74 -55.26535843989379515 $131 55.26535843989379515 $66 $132 forward 7 unknown #
coedge $-1 $60 $133 $38 $69 reversed $34 $-1 #
edge $-1 $134 -55.26535843989379515 $73 55.26535843989379515 $68 $135 forward 7 unknown #
coedge $-1 $63 $39 $133 $136 forward $72 $-1 #
coedge $-1 $39 $63 $129 $137 reversed $72 $-1 #
loop $-1 $-1 $70 $113 #
vertex $-1 $40 $138 #
vertex $-1 $40 $139 #
straight-curve $-1 110.5307168797875903 27.06631344449854026 16.17568863973623294 0 1 0 I I #
face $-1 $140 $141 $7 $-1 $142 reversed single #
loop $-1 $-1 $143 $41 #
plane-surface $-1 0 27.06631344449854026 8.087844319868116472 1 0 0 0 0 -1 forward_v I I I I #
coedge $-1 $144 $85 $90 $145 reversed $42 $-1 #
coedge $-1 $146 $44 $147 $148 reversed $26 $-1 #
coedge $-1 $44 $146 $144 $149 forward $26 $-1 #
coedge $-1 $90 $89 $44 $83 forward $91 $-1 #
edge $-1 $150 -14.87428949973232939 $151 -9.50975838980009236 $82 $152 forward 7 unknown #
coedge $-1 $46 $45 $143 $153 reversed $16 $-1 #
coedge $-1 $79 $154 $45 $86 reversed $42 $-1 #
edge $-1 $92 -55.26535843989379515 $155 55.26535843989379515 $85 $156 forward 7 unknown #
coedge $-1 $157 $158 $46 $88 forward $141 $-1 #
edge $-1 $93 -55.26535843989379515 $159 55.26535843989379515 $87 $160 forward 7 unknown #
coedge $-1 $82 $47 $158 $161 forward $91 $-1 #
coedge $-1 $47 $82 $79 $145 forward $91 $-1 #
loop $-1 $-1 $47 $140 #
vertex $-1 $48 $162 #
vertex $-1 $161 $163 #
straight-curve $-1 110.5307168797875903 14.87428949973232939 15.67568863973623294 0 -1 0 I I #
face $-1 $164 $165 $8 $-1 $166 reversed single #
loop $-1 $-1 $55 $49 #
plane-surface $-1 110.5307168797875903 27.06631344449854026 8.087844319868116472 -1 0 0 0 0 1 forward_v I I I I #
coedge $-1 $167 $106 $168 $169 reversed $50 $-1 #
coedge $-1 $170 $52 $167 $171 forward $30 $-1 #
coedge $-1 $52 $170 $172 $173 reversed $30 $-1 #
coedge $-1 $109 $108 $52 $102 forward $96 $-1 #
edge $-1 $174 9.509758389800083478 $175 14.87428949973232761 $101 $176 forward 7 unknown #
coedge $-1 $54 $53 $177 $178 reversed $19 $-1 #
coedge $-1 $179 $180 $53 $105 forward $181 $-1 #
edge $-1 $182 -55.26535843989379515 $110 55.26535843989379515 $104 $183 forward 7 unknown #
coedge $-1 $98 $184 $54 $107 reversed $50 $-1 #
edge $-1 $185 -55.26535843989379515 $111 55.26535843989379515 $106 $186 forward 7 unknown #
coedge $-1 $101 $55 $184 $187 forward $96 $-1 #
coedge $-1 $55 $101 $179 $188 reversed $96 $-1 #
vertex $-1 $188 $189 #
vertex $-1 $56 $190 #
straight-curve $-1 110.5307168797875903 39.25833738926475291 15.67568863973623294 0 -1 0 I I #
face $-1 $-1 $72 $6 $-1 $191 reversed single #
loop $-1 $-1 $129 $57 #
plane-surface $-1 55.26535843989379515 54.13262688899708053 8.087844319868116472 0 -1 0 0 0 -1 forward_v I I I I #
coedge $-1 $192 $127 $130 $193 forward $58 $-1 #
coedge $-1 $133 $60 $61 $121 reversed $34 $-1 #
coedge $-1 $127 $192 $60 $119 reversed $58 $-1 #
edge $-1 $134 -8.087844319868116472 $194 8.087844319868116472 $118 $195 forward 7 unknown #
coedge $-1 $62 $61 $192 $196 forward $22 $-1 #
edge $-1 $125 -55.26535843989379515 $194 55.26535843989379515 $117 $197 forward 7 unknown #
coedge $-1 $130 $129 $62 $123 reversed $114 $-1 #
edge $-1 $198 -55.26535843989379515 $124 55.26535843989379515 $122 $199 forward 7 unknown #
vertex $-1 $64 $200 #
vertex $-1 $136 $201 #
straight-curve $-1 110.5307168797875903 27.06631344449854026 0 0 -1 0 I I #
coedge $-1 $116 $118 $65 $128 reversed $58 $-1 #
edge $-1 $131 -27.06631344449854026 $134 27.06631344449854026 $127 $202 forward 7 unknown #
coedge $-1 $122 $66 $71 $137 forward $114 $-1 #
coedge $-1 $66 $122 $116 $193 reversed $114 $-1 #
vertex $-1 $67 $203 #
straight-curve $-1 55.26535843989379515 54.13262688899708053 16.17568863973623294 -1 0 0 I I #
coedge $-1 $68 $117 $70 $136 reversed $34 $-1 #
vertex $-1 $128 $204 #
straight-curve $-1 55.26535843989379515 0 16.17568863973623294 1 0 0 I I #
edge $-1 $73 -8.087844319868116472 $125 8.087844319868116472 $70 $205 forward 7 unknown #
edge $-1 $74 -8.087844319868116472 $124 8.087844319868116472 $71 $206 forward 7 unknown #
point $-1 110.5307168797875903 0 16.17568863973623294 #
point $-1 110.5307168797875903 54.13262688899708053 16.17568863973623294 #
face $-1 $-1 $91 $7 $-1 $207 reversed single #
loop $-1 $-1 $87 $76 #
plane-surface $-1 55.26535843989379515 0 8.087844319868116472 0 1 0 0 0 1 forward_v I I I I #
coedge $-1 $208 $209 $84 $153 forward $77 $-1 #
coedge $-1 $154 $79 $81 $149 reversed $42 $-1 #
edge $-1 $151 0.6642174194812930921 $92 4.837157073418314468 $90 $210 forward 7 unknown #
coedge $-1 $81 $80 $211 $212 reversed $26 $-1 #
coedge $-1 $158 $157 $80 $148 forward $141 $-1 #
edge $-1 $213 -55.26535843989379515 $150 55.26535843989379515 $147 $214 forward 7 unknown #
edge $-1 $215 -55.26535843989379515 $151 55.26535843989379515 $144 $216 forward 7 unknown #
vertex $-1 $148 $217 #
vertex $-1 $83 $218 #
straight-curve $-1 110.5307168797875903 14.87428949973232939 11.50274898579921157 0 1 0 I I #
edge $-1 $159 -14.87428949973232939 $155 -9.50975838980009236 $143 $219 forward 7 unknown #
coedge $-1 $85 $144 $208 $220 reversed $42 $-1 #
vertex $-1 $153 $221 #
straight-curve $-1 55.26535843989379515 5.36453110993223703 15.67568863973623294 -1 0 0 I I #
coedge $-1 $147 $87 $209 $222 forward $141 $-1 #
coedge $-1 $87 $147 $89 $161 reversed $141 $-1 #
vertex $-1 $222 $223 #
straight-curve $-1 55.26535843989379515 0 15.67568863973623294 -1 0 0 I I #
edge $-1 $93 -7.587844319868116472 $150 -3.414904665931095096 $89 $224 forward 7 unknown #
point $-1 110.5307168797875903 5.36453110993223703 15.67568863973623294 #
point $-1 110.5307168797875903 0 15.67568863973623294 #
face $-1 $-1 $181 $8 $-1 $225 reversed single #
loop $-1 $-1 $177 $95 #
plane-surface $-1 0 27.06631344449854026 8.087844319868116472 1 0 0 0 0 -1 forward_v I I I I #
coedge $-1 $184 $98 $99 $171 reversed $50 $-1 #
coedge $-1 $177 $226 $98 $169 forward $165 $-1 #
edge $-1 $227 0.6642174194812930921 $185 4.837157073418314468 $168 $228 forward 7 unknown #
coedge $-1 $100 $99 $226 $229 reversed $30 $-1 #
edge $-1 $174 -55.26535843989379515 $227 55.26535843989379515 $167 $230 forward 7 unknown #
coedge $-1 $180 $179 $100 $173 forward $181 $-1 #
edge $-1 $175 -55.26535843989379515 $231 55.26535843989379515 $172 $232 forward 7 unknown #
vertex $-1 $102 $233 #
vertex $-1 $173 $234 #
straight-curve $-1 110.5307168797875903 39.25833738926475291 11.50274898579921157 0 1 0 I I #
coedge $-1 $235 $168 $103 $178 forward $165 $-1 #
edge $-1 $185 9.509758389800083478 $182 14.87428949973232761 $177 $236 forward 7 unknown #
coedge $-1 $172 $104 $109 $188 forward $181 $-1 #
coedge $-1 $104 $172 $235 $237 reversed $181 $-1 #
loop $-1 $-1 $104 $164 #
vertex $-1 $237 $238 #
straight-curve $-1 55.26535843989379515 54.13262688899708053 15.67568863973623294 1 0 0 I I #
coedge $-1 $106 $167 $108 $187 reversed $50 $-1 #
vertex $-1 $178 $239 #
straight-curve $-1 55.26535843989379515 48.76809577906483639 15.67568863973623294 1 0 0 I I #
edge $-1 $111 -4.837157073418314468 $174 -0.6642174194812930921 $108 $240 forward 7 unknown #
edge $-1 $110 -7.587844319868116472 $175 -3.414904665931095096 $109 $241 forward 7 unknown #
point $-1 110.5307168797875903 54.13262688899708053 15.67568863973623294 #
point $-1 110.5307168797875903 48.76809577906483639 15.67568863973623294 #
plane-surface $-1 110.5307168797875903 27.06631344449854026 8.087844319868116472 -1 0 0 0 0 1 forward_v I I I I #
coedge $-1 $118 $116 $120 $196 reversed $58 $-1 #
edge $-1 $131 -8.087844319868116472 $198 8.087844319868116472 $130 $242 forward 7 unknown #
vertex $-1 $196 $243 #
straight-curve $-1 0 0 8.087844319868116472 0 0 -1 I I #
edge $-1 $194 -27.06631344449854026 $198 27.06631344449854026 $192 $244 forward 7 unknown #
straight-curve $-1 55.26535843989379515 0 0 -1 0 0 I I #
vertex $-1 $123 $245 #
straight-curve $-1 55.26535843989379515 54.13262688899708053 0 1 0 0 I I #
point $-1 110.5307168797875903 54.13262688899708053 0 #
point $-1 110.5307168797875903 0 0 #
straight-curve $-1 0 27.06631344449854026 16.17568863973623294 0 -1 0 I I #
point $-1 0 54.13262688899708053 16.17568863973623294 #
point $-1 0 0 16.17568863973623294 #
straight-curve $-1 110.5307168797875903 0 8.087844319868116472 0 0 -1 I I #
straight-curve $-1 110.5307168797875903 54.13262688899708053 8.087844319868116472 0 0 -1 I I #
plane-surface $-1 110.5307168797875903 27.06631344449854026 8.087844319868116472 -1 0 0 0 0 1 forward_v I I I I #
coedge $-1 $211 $143 $154 $220 forward $77 $-1 #
coedge $-1 $143 $211 $157 $222 reversed $77 $-1 #
straight-curve $-1 110.5307168797875903 5.36453110993223703 10.83853156631791848 0 0 1 I I #
coedge $-1 $209 $208 $146 $212 forward $77 $-1 #
edge $-1 $215 9.50975838980009236 $213 14.87428949973232939 $211 $246 forward 7 unknown #
vertex $-1 $148 $247 #
straight-curve $-1 55.26535843989379515 0 11.50274898579921157 1 0 0 I I #
vertex $-1 $212 $248 #
straight-curve $-1 55.26535843989379515 5.36453110993223703 11.50274898579921157 1 0 0 I I #
point $-1 110.5307168797875903 0 11.50274898579921157 #
point $-1 110.5307168797875903 5.36453110993223703 11.50274898579921157 #
straight-curve $-1 0 14.87428949973232939 15.67568863973623294 0 1 0 I I #
edge $-1 $155 -4.837157073418314468 $215 -0.6642174194812930921 $208 $249 forward 7 unknown #
point $-1 0 5.36453110993223703 15.67568863973623294 #
edge $-1 $159 -7.587844319868116472 $213 -3.414904665931095096 $209 $250 forward 7 unknown #
point $-1 0 0 15.67568863973623294 #
straight-curve $-1 110.5307168797875903 0 8.087844319868116472 0 0 -1 I I #
plane-surface $-1 55.26535843989379515 54.13262688899708053 8.087844319868116472 0 -1 0 0 0 -1 forward_v I I I I #
coedge $-1 $168 $235 $170 $229 forward $165 $-1 #
vertex $-1 $229 $251 #
straight-curve $-1 0 48.76809577906483639 10.83853156631791848 0 0 1 I I #
edge $-1 $231 -14.87428949973232761 $227 -9.509758389800083478 $226 $252 forward 7 unknown #
straight-curve $-1 55.26535843989379515 48.76809577906483639 11.50274898579921157 -1 0 0 I I #
vertex $-1 $173 $253 #
straight-curve $-1 55.26535843989379515 54.13262688899708053 11.50274898579921157 -1 0 0 I I #
point $-1 110.5307168797875903 48.76809577906483639 11.50274898579921157 #
point $-1 110.5307168797875903 54.13262688899708053 11.50274898579921157 #
coedge $-1 $226 $177 $180 $237 forward $165 $-1 #
straight-curve $-1 0 39.25833738926475291 15.67568863973623294 0 1 0 I I #
edge $-1 $182 -7.587844319868116472 $231 -3.414904665931095096 $180 $254 forward 7 unknown #
point $-1 0 54.13262688899708053 15.67568863973623294 #
point $-1 0 48.76809577906483639 15.67568863973623294 #
straight-curve $-1 110.5307168797875903 48.76809577906483639 10.83853156631791848 0 0 -1 I I #
straight-curve $-1 110.5307168797875903 54.13262688899708053 8.087844319868116472 0 0 -1 I I #
straight-curve $-1 0 54.13262688899708053 8.087844319868116472 0 0 -1 I I #
point $-1 0 0 0 #
straight-curve $-1 0 27.06631344449854026 0 0 1 0 I I #
point $-1 0 54.13262688899708053 0 #
straight-curve $-1 0 14.87428949973232939 11.50274898579921157 0 -1 0 I I #
point $-1 0 0 11.50274898579921157 #
point $-1 0 5.36453110993223703 11.50274898579921157 #
straight-curve $-1 0 5.36453110993223703 10.83853156631791848 0 0 -1 I I #
straight-curve $-1 0 0 8.087844319868116472 0 0 -1 I I #
point $-1 0 48.76809577906483639 11.50274898579921157 #
straight-curve $-1 0 39.25833738926475291 11.50274898579921157 0 -1 0 I I #
point $-1 0 54.13262688899708053 11.50274898579921157 #
straight-curve $-1 0 54.13262688899708053 8.087844319868116472 0 0 -1 I I #
End-of-ACIS-data 