300 0 9 0           
7 Unknown 11 ACIS 3.0 NT 24 Fri Oct 30 17:45:11 1998 
-1 9.9999999999999995e-007 1e-010 
body $9 $10 $-1 $11 #
body $12 $13 $-1 $14 #
body $15 $16 $-1 $17 #
body $18 $19 $-1 $20 #
body $21 $22 $-1 $23 #
body $24 $25 $-1 $26 #
body $27 $28 $-1 $29 #
body $30 $31 $-1 $32 #
body $33 $34 $-1 $35 #
display_attribute-st-attrib $-1 $36 $-1 $0 1 #
lump $-1 $-1 $37 $0 #
transform $-1 1 0 0 0 1 0 0 0 1 53.508713034455397 25.636237195510983 9.9485061588475912 1 rotate no_reflect no_shear #
display_attribute-st-attrib $-1 $38 $-1 $1 3 #
lump $-1 $-1 $39 $1 #
transform $-1 1 0 0 0 1 0 0 0 1 53.508713034455397 25.636237195510983 9.9485061588475912 1 rotate no_reflect no_shear #
display_attribute-st-attrib $-1 $40 $-1 $2 3 #
lump $-1 $-1 $41 $2 #
transform $-1 1 0 0 0 1 0 0 0 1 53.508713034455397 25.636237195510983 9.9485061588475912 1 rotate no_reflect no_shear #
display_attribute-st-attrib $-1 $42 $-1 $3 3 #
lump $-1 $-1 $43 $3 #
transform $-1 1 0 0 0 1 0 0 0 1 53.508713034455397 25.636237195510983 9.9485061588475912 1 rotate no_reflect no_shear #
display_attribute-st-attrib $-1 $44 $-1 $4 3 #
lump $-1 $-1 $45 $4 #
transform $-1 1 0 0 0 1 0 0 0 1 53.508713034455397 25.636237195510983 9.9485061588475912 1 rotate no_reflect no_shear #
display_attribute-st-attrib $-1 $46 $-1 $5 3 #
lump $-1 $-1 $47 $5 #
transform $-1 1 0 0 0 1 0 0 0 1 53.508713034455397 25.636237195510983 9.9485061588475912 1 rotate no_reflect no_shear #
display_attribute-st-attrib $-1 $48 $-1 $6 3 #
lump $-1 $-1 $49 $6 #
transform $-1 1 0 0 0 1 0 0 0 1 53.508713034455397 25.636237195510983 9.9485061588475912 1 rotate no_reflect no_shear #
display_attribute-st-attrib $-1 $50 $-1 $7 3 #
lump $-1 $-1 $51 $7 #
transform $-1 1 0 0 0 1 0 0 0 1 53.508713034455397 25.636237195510983 9.9485061588475912 1 rotate no_reflect no_shear #
display_attribute-st-attrib $-1 $52 $-1 $8 3 #
lump $-1 $-1 $53 $8 #
transform $-1 1 0 0 0 1 0 0 0 1 53.508713034455397 25.636237195510983 9.9485061588475912 1 rotate no_reflect no_shear #
id_attribute-st-attrib $-1 $-1 $9 $0 549 #
shell $-1 $-1 $-1 $54 $-1 $10 #
id_attribute-st-attrib $-1 $-1 $12 $1 564 #
shell $-1 $-1 $-1 $55 $-1 $13 #
id_attribute-st-attrib $-1 $-1 $15 $2 571 #
shell $-1 $-1 $-1 $56 $-1 $16 #
id_attribute-st-attrib $-1 $-1 $18 $3 579 #
shell $-1 $-1 $-1 $57 $-1 $19 #
id_attribute-st-attrib $-1 $-1 $21 $4 588 #
shell $-1 $-1 $-1 $58 $-1 $22 #
id_attribute-st-attrib $-1 $-1 $24 $5 598 #
shell $-1 $-1 $-1 $59 $-1 $25 #
id_attribute-st-attrib $-1 $-1 $27 $6 609 #
shell $-1 $-1 $-1 $60 $-1 $28 #
id_attribute-st-attrib $-1 $-1 $30 $7 621 #
shell $-1 $-1 $-1 $61 $-1 $31 #
id_attribute-st-attrib $-1 $-1 $33 $8 634 #
shell $-1 $-1 $-1 $62 $-1 $34 #
face $-1 $63 $64 $37 $-1 $65 forward single #
face $-1 $66 $67 $39 $-1 $68 reversed single #
face $-1 $69 $70 $41 $-1 $71 forward single #
face $-1 $72 $73 $43 $-1 $74 forward single #
face $-1 $75 $76 $45 $-1 $77 forward single #
face $-1 $78 $79 $47 $-1 $80 reversed single #
face $-1 $81 $82 $49 $-1 $83 forward single #
face $-1 $84 $85 $51 $-1 $86 forward single #
face $-1 $87 $88 $53 $-1 $89 forward single #
face $-1 $90 $91 $37 $-1 $92 reversed single #
loop $-1 $-1 $93 $54 #
plane-surface $-1 0 0 9.9485061588475912 0 0 1 1 0 0 forward_v I I I I #
face $-1 $94 $95 $39 $-1 $96 reversed single #
loop $-1 $-1 $97 $55 #
plane-surface $-1 -21.655173444404035 -90.04093275819848 87.050929389189506 -1 0 0 0 -0.6018150307709319 0.79863550430605224 forward_v I I I I #
face $-1 $98 $99 $41 $-1 $100 forward single #
loop $-1 $101 $102 $56 #
cone-surface $-1 -32.535958847312372 -19.330397613297606 4.7636448809498182 0 0.6018150307709319 -0.79863550430605224 1 0 0 1 I I 0 1 forward I I I I #
face $-1 $103 $104 $43 $-1 $105 forward single #
loop $-1 $106 $107 $57 #
cone-surface $-1 -28.455664321221747 -19.330397613297606 4.7636448809498182 0 0.6018150307709319 -0.79863550430605224 1 0 0 1 I I 0 1 forward I I I I #
face $-1 $108 $109 $45 $-1 $110 forward single #
loop $-1 $111 $112 $58 #
cone-surface $-1 -24.375369795131117 -19.330397613297606 4.7636448809498182 0 0.6018150307709319 -0.79863550430605224 1 0 0 1 I I 0 1 forward I I I I #
face $-1 $113 $114 $47 $-1 $115 reversed single #
loop $-1 $-1 $116 $59 #
plane-surface $-1 35.256155198039473 -90.04093275819848 87.050929389189506 -1 0 0 0 -0.6018150307709319 0.79863550430605224 forward_v I I I I #
face $-1 $117 $118 $49 $-1 $119 forward single #
loop $-1 $120 $121 $60 #
cone-surface $-1 24.375369795131121 -19.330397613297606 4.7636448809498182 0 0.6018150307709319 -0.79863550430605224 1 0 0 1 I I 0 1 forward I I I I #
face $-1 $122 $123 $51 $-1 $124 forward single #
loop $-1 $125 $126 $61 #
cone-surface $-1 28.455664321221761 -19.330397613297606 4.7636448809498182 0 0.6018150307709319 -0.79863550430605224 1 0 0 1 I I 0 1 forward I I I I #
face $-1 $127 $128 $53 $-1 $129 forward single #
loop $-1 $130 $131 $62 #
cone-surface $-1 32.535958847312386 -19.330397613297606 4.7636448809498182 0 0.6018150307709319 -0.79863550430605224 1 0 0 1 I I 0 1 forward I I I I #
face $-1 $132 $133 $37 $-1 $134 reversed single #
loop $-1 $-1 $135 $63 #
plane-surface $-1 0 0 -9.9485061588475912 0 0 1 1 0 0 forward_v I I I I #
coedge $-1 $136 $137 $138 $139 forward $64 $-1 #
face $-1 $140 $141 $39 $-1 $142 reversed single #
loop $-1 $-1 $143 $66 #
plane-surface $-1 -28.455664321221747 -25.636237195511001 1.5830133511092725 0 -0.6018150307709319 0.79863550430605224 1 0 0 forward_v I I I I #
coedge $-1 $144 $145 $146 $147 reversed $67 $-1 #
face $-1 $-1 $148 $41 $-1 $149 forward single #
loop $-1 $150 $151 $69 #
cone-surface $-1 -32.535958847312372 -18.274342360930962 3.3622122547681812 0 0.6018150307709319 -0.79863550430605224 0.5 0 0 1 I I -0.70710678118654746 0.70710678118654746 forward I I I I #
loop $-1 $-1 $152 $56 #
coedge $-1 $102 $102 $153 $154 reversed $70 $-1 #
face $-1 $-1 $155 $43 $-1 $156 forward single #
loop $-1 $157 $158 $72 #
cone-surface $-1 -28.455664321221747 -18.274342360930962 3.3622122547681812 0 0.6018150307709319 -0.79863550430605224 0.5 0 0 1 I I -0.70710678118654746 0.70710678118654746 forward I I I I #
loop $-1 $-1 $159 $57 #
coedge $-1 $107 $107 $160 $161 reversed $73 $-1 #
face $-1 $-1 $162 $45 $-1 $163 forward single #
loop $-1 $164 $165 $75 #
cone-surface $-1 -24.375369795131117 -18.274342360930962 3.3622122547681812 0 0.6018150307709319 -0.79863550430605224 0.5 0 0 1 I I -0.70710678118654746 0.70710678118654746 forward I I I I #
loop $-1 $-1 $166 $58 #
coedge $-1 $112 $112 $167 $168 reversed $76 $-1 #
face $-1 $169 $170 $47 $-1 $171 reversed single #
loop $-1 $-1 $172 $78 #
plane-surface $-1 28.455664321221761 -25.636237195511001 1.5830133511092725 0 -0.6018150307709319 0.79863550430605224 1 0 0 forward_v I I I I #
coedge $-1 $173 $174 $175 $176 reversed $79 $-1 #
face $-1 $-1 $177 $49 $-1 $178 forward single #
loop $-1 $179 $180 $81 #
cone-surface $-1 24.375369795131121 -18.274342360930962 3.3622122547681812 0 0.6018150307709319 -0.79863550430605224 0.5 0 0 1 I I -0.70710678118654746 0.70710678118654746 forward I I I I #
loop $-1 $-1 $181 $60 #
coedge $-1 $121 $121 $182 $183 reversed $82 $-1 #
face $-1 $-1 $184 $51 $-1 $185 forward single #
loop $-1 $186 $187 $84 #
cone-surface $-1 28.455664321221761 -18.274342360930962 3.3622122547681812 0 0.6018150307709319 -0.79863550430605224 0.5 0 0 1 I I -0.70710678118654746 0.70710678118654746 forward I I I I #
loop $-1 $-1 $188 $61 #
coedge $-1 $126 $126 $189 $190 reversed $85 $-1 #
face $-1 $-1 $191 $53 $-1 $192 forward single #
loop $-1 $193 $194 $87 #
cone-surface $-1 32.535958847312386 -18.274342360930962 3.3622122547681812 0 0.6018150307709319 -0.79863550430605224 0.5 0 0 1 I I -0.70710678118654746 0.70710678118654746 forward I I I I #
loop $-1 $-1 $195 $62 #
coedge $-1 $131 $131 $196 $197 reversed $88 $-1 #
face $-1 $198 $199 $37 $-1 $200 reversed single #
loop $-1 $-1 $201 $90 #
plane-surface $-1 0 -25.636237195510983 0 0 1 0 0 0 1 forward_v I I I I #
coedge $-1 $202 $203 $204 $205 forward $91 $-1 #
coedge $-1 $206 $93 $207 $208 forward $64 $-1 #
coedge $-1 $93 $206 $209 $210 forward $64 $-1 #
coedge $-1 $211 $212 $93 $139 reversed $213 $-1 #
edge $-1 $214 $215 $138 $216 forward #
face $-1 $217 $218 $39 $-1 $219 reversed single #
loop $-1 $-1 $220 $94 #
plane-surface $-1 -35.256155198039458 -90.04093275819848 87.050929389189506 1 0 0 0 0.6018150307709319 -0.79863550430605224 forward_v I I I I #
coedge $-1 $221 $222 $223 $224 reversed $95 $-1 #
coedge $-1 $145 $97 $225 $226 reversed $67 $-1 #
coedge $-1 $97 $144 $221 $227 reversed $67 $-1 #
coedge $-1 $223 $228 $97 $147 forward $229 $-1 #
edge $-1 $230 $231 $146 $232 forward #
loop $-1 $-1 $153 $98 #
plane-surface $-1 -28.455664321221747 -25.636237195511001 1.5830133511092725 0 -0.6018150307709319 0.79863550430605224 1 0 0 forward_v I I I I #
loop $-1 $-1 $233 $69 #
coedge $-1 $151 $151 $152 $234 reversed $99 $-1 #
coedge $-1 $152 $152 $151 $234 forward $101 $-1 #
coedge $-1 $153 $153 $102 $154 forward $148 $-1 #
edge $-1 $235 $235 $153 $236 forward #
loop $-1 $-1 $160 $103 #
plane-surface $-1 -28.455664321221747 -25.636237195511001 1.5830133511092725 0 -0.6018150307709319 0.79863550430605224 1 0 0 forward_v I I I I #
loop $-1 $-1 $237 $72 #
coedge $-1 $158 $158 $159 $238 reversed $104 $-1 #
coedge $-1 $159 $159 $158 $238 forward $106 $-1 #
coedge $-1 $160 $160 $107 $161 forward $155 $-1 #
edge $-1 $239 $239 $160 $240 forward #
loop $-1 $-1 $167 $108 #
plane-surface $-1 -28.455664321221747 -25.636237195511001 1.5830133511092725 0 -0.6018150307709319 0.79863550430605224 1 0 0 forward_v I I I I #
loop $-1 $-1 $241 $75 #
coedge $-1 $165 $165 $166 $242 reversed $109 $-1 #
coedge $-1 $166 $166 $165 $242 forward $111 $-1 #
coedge $-1 $167 $167 $112 $168 forward $162 $-1 #
edge $-1 $243 $243 $167 $244 forward #
face $-1 $245 $246 $47 $-1 $247 reversed single #
loop $-1 $-1 $248 $113 #
plane-surface $-1 21.655173444404049 -90.04093275819848 87.050929389189506 1 0 0 0 0.6018150307709319 -0.79863550430605224 forward_v I I I I #
coedge $-1 $249 $250 $251 $252 reversed $114 $-1 #
coedge $-1 $174 $116 $253 $254 reversed $79 $-1 #
coedge $-1 $116 $173 $249 $255 reversed $79 $-1 #
coedge $-1 $251 $256 $116 $176 forward $257 $-1 #
edge $-1 $258 $259 $175 $260 forward #
loop $-1 $-1 $182 $117 #
plane-surface $-1 28.455664321221761 -25.636237195511001 1.5830133511092725 0 -0.6018150307709319 0.79863550430605224 1 0 0 forward_v I I I I #
loop $-1 $-1 $261 $81 #
coedge $-1 $180 $180 $181 $262 reversed $118 $-1 #
coedge $-1 $181 $181 $180 $262 forward $120 $-1 #
coedge $-1 $182 $182 $121 $183 forward $177 $-1 #
edge $-1 $263 $263 $182 $264 forward #
loop $-1 $-1 $189 $122 #
plane-surface $-1 28.455664321221761 -25.636237195511001 1.5830133511092725 0 -0.6018150307709319 0.79863550430605224 1 0 0 forward_v I I I I #
loop $-1 $-1 $265 $84 #
coedge $-1 $187 $187 $188 $266 reversed $123 $-1 #
coedge $-1 $188 $188 $187 $266 forward $125 $-1 #
coedge $-1 $189 $189 $126 $190 forward $184 $-1 #
edge $-1 $267 $267 $189 $268 forward #
loop $-1 $-1 $196 $127 #
plane-surface $-1 28.455664321221761 -25.636237195511001 1.5830133511092725 0 -0.6018150307709319 0.79863550430605224 1 0 0 forward_v I I I I #
loop $-1 $-1 $269 $87 #
coedge $-1 $194 $194 $195 $270 reversed $128 $-1 #
coedge $-1 $195 $195 $194 $270 forward $130 $-1 #
coedge $-1 $196 $196 $131 $197 forward $191 $-1 #
edge $-1 $271 $271 $196 $272 forward #
face $-1 $273 $274 $37 $-1 $275 reversed single #
loop $-1 $-1 $276 $132 #
plane-surface $-1 -53.508713034455397 0 0 1 0 0 0 0 -1 forward_v I I I I #
coedge $-1 $277 $209 $278 $279 forward $133 $-1 #
coedge $-1 $280 $135 $277 $281 forward $91 $-1 #
coedge $-1 $135 $280 $282 $283 forward $91 $-1 #
coedge $-1 $212 $211 $135 $205 reversed $213 $-1 #
edge $-1 $284 $285 $204 $286 forward #
coedge $-1 $137 $136 $287 $288 forward $64 $-1 #
coedge $-1 $289 $290 $136 $208 reversed $274 $-1 #
edge $-1 $215 $291 $207 $292 forward #
coedge $-1 $201 $293 $137 $210 reversed $133 $-1 #
edge $-1 $294 $214 $209 $295 forward #
coedge $-1 $204 $138 $293 $296 forward $213 $-1 #
coedge $-1 $138 $204 $289 $297 reversed $213 $-1 #
loop $-1 $-1 $211 $273 #
vertex $-1 $139 $298 #
vertex $-1 $139 $299 #
straight-curve $-1 53.508713034455397 0 9.9485061588475912 0 1 0 I I #
face $-1 $-1 $229 $39 $-1 $300 forward single #
loop $-1 $-1 $301 $140 #
plane-surface $-1 0 -25.636237195510983 0 0 1 0 0 0 1 forward_v I I I I #
coedge $-1 $302 $303 $304 $305 reversed $141 $-1 #
coedge $-1 $306 $143 $145 $227 forward $95 $-1 #
coedge $-1 $143 $306 $302 $307 forward $95 $-1 #
coedge $-1 $304 $146 $143 $224 forward $229 $-1 #
edge $-1 $231 $308 $223 $309 forward #
coedge $-1 $310 $311 $144 $226 forward $218 $-1 #
edge $-1 $312 $230 $225 $313 forward #
edge $-1 $231 $312 $145 $314 forward #
coedge $-1 $146 $304 $310 $315 forward $229 $-1 #
loop $-1 $-1 $304 $217 #
vertex $-1 $226 $316 #
vertex $-1 $147 $317 #
straight-curve $-1 -21.655173444404035 -45.02046637909924 9.9485061588475929 0 1 0 I I #
coedge $-1 $233 $233 $-1 $318 reversed $150 $-1 #
edge $-1 $319 $319 $151 $320 forward #
vertex $-1 $154 $321 #
ellipse-curve $-1 -32.535958847312372 -20.085545350278792 5.7657597549784425 0 -0.6018150307709319 0.79863550430605224 1 0 0 1 I I #
coedge $-1 $237 $237 $-1 $322 reversed $157 $-1 #
edge $-1 $323 $323 $158 $324 forward #
vertex $-1 $161 $325 #
ellipse-curve $-1 -28.455664321221747 -20.085545350278792 5.7657597549784425 0 -0.6018150307709319 0.79863550430605224 1 0 0 1 I I #
coedge $-1 $241 $241 $-1 $326 reversed $164 $-1 #
edge $-1 $327 $327 $165 $328 forward #
vertex $-1 $168 $329 #
ellipse-curve $-1 -24.375369795131117 -20.085545350278792 5.7657597549784425 0 -0.6018150307709319 0.79863550430605224 1 0 0 1 I I #
face $-1 $-1 $257 $47 $-1 $330 forward single #
loop $-1 $-1 $331 $169 #
plane-surface $-1 0 -25.636237195510983 0 0 1 0 0 0 1 forward_v I I I I #
coedge $-1 $332 $333 $334 $335 reversed $170 $-1 #
coedge $-1 $336 $172 $174 $255 forward $114 $-1 #
coedge $-1 $172 $336 $332 $337 forward $114 $-1 #
coedge $-1 $334 $175 $172 $252 forward $257 $-1 #
edge $-1 $259 $338 $251 $339 forward #
coedge $-1 $340 $341 $173 $254 forward $246 $-1 #
edge $-1 $342 $258 $253 $343 forward #
edge $-1 $259 $342 $174 $344 forward #
coedge $-1 $175 $334 $340 $345 forward $257 $-1 #
loop $-1 $-1 $334 $245 #
vertex $-1 $254 $346 #
vertex $-1 $176 $347 #
straight-curve $-1 35.256155198039473 -45.02046637909924 9.9485061588475929 0 1 0 I I #
coedge $-1 $261 $261 $-1 $348 reversed $179 $-1 #
edge $-1 $349 $349 $180 $350 forward #
vertex $-1 $183 $351 #
ellipse-curve $-1 24.375369795131121 -20.085545350278792 5.7657597549784425 0 -0.6018150307709319 0.79863550430605224 1 0 0 1 I I #
coedge $-1 $265 $265 $-1 $352 reversed $186 $-1 #
edge $-1 $353 $353 $187 $354 forward #
vertex $-1 $190 $355 #
ellipse-curve $-1 28.455664321221761 -20.085545350278792 5.7657597549784425 0 -0.6018150307709319 0.79863550430605224 1 0 0 1 I I #
coedge $-1 $269 $269 $-1 $356 reversed $193 $-1 #
edge $-1 $357 $357 $194 $358 forward #
vertex $-1 $197 $359 #
ellipse-curve $-1 32.535958847312386 -20.085545350278792 5.7657597549784425 0 -0.6018150307709319 0.79863550430605224 1 0 0 1 I I #
face $-1 $-1 $213 $37 $-1 $360 reversed single #
loop $-1 $-1 $289 $198 #
plane-surface $-1 0 25.636237195510983 0 0 -1 0 0 0 -1 forward_v I I I I #
coedge $-1 $361 $287 $290 $362 forward $199 $-1 #
coedge $-1 $293 $201 $202 $281 reversed $133 $-1 #
coedge $-1 $287 $361 $201 $279 reversed $199 $-1 #
edge $-1 $294 $363 $278 $364 forward #
coedge $-1 $203 $202 $361 $365 forward $91 $-1 #
edge $-1 $285 $363 $277 $366 forward #
coedge $-1 $290 $289 $203 $283 reversed $274 $-1 #
edge $-1 $367 $284 $282 $368 forward #
vertex $-1 $205 $369 #
vertex $-1 $296 $370 #
straight-curve $-1 53.508713034455397 0 -9.9485061588475912 0 -1 0 I I #
coedge $-1 $276 $278 $206 $288 reversed $199 $-1 #
edge $-1 $291 $294 $287 $371 forward #
coedge $-1 $282 $207 $212 $297 forward $274 $-1 #
coedge $-1 $207 $282 $276 $362 reversed $274 $-1 #
vertex $-1 $208 $372 #
straight-curve $-1 0 25.636237195510983 9.9485061588475912 -1 0 0 I I #
coedge $-1 $209 $277 $211 $296 reversed $133 $-1 #
vertex $-1 $288 $373 #
straight-curve $-1 0 -25.636237195510983 9.9485061588475912 1 0 0 I I #
edge $-1 $214 $285 $211 $374 forward #
edge $-1 $215 $284 $212 $375 forward #
point $-1 53.508713034455397 -25.636237195510983 9.9485061588475912 #
point $-1 53.508713034455397 25.636237195510983 9.9485061588475912 #
plane-surface $-1 0 0 9.9485061588475912 0 0 1 1 0 0 forward_v I I I I #
coedge $-1 $311 $310 $303 $376 forward $218 $-1 #
coedge $-1 $303 $220 $222 $307 reversed $141 $-1 #
coedge $-1 $220 $302 $301 $376 reversed $141 $-1 #
coedge $-1 $228 $223 $220 $305 forward $229 $-1 #
edge $-1 $308 $377 $304 $378 forward #
coedge $-1 $222 $221 $311 $379 reversed $95 $-1 #
edge $-1 $380 $308 $302 $381 forward #
vertex $-1 $224 $382 #
straight-curve $-1 -14.227832160610873 -14.534853505046616 9.9485061588475912 -1 0 0 I I #
coedge $-1 $301 $225 $228 $315 reversed $218 $-1 #
coedge $-1 $225 $301 $306 $379 forward $218 $-1 #
vertex $-1 $226 $383 #
straight-curve $-1 -21.655173444404035 -25.636237195510986 43.525464694594753 0 0 1 I I #
straight-curve $-1 -21.655173444404035 -25.636237195511001 1.5830133511092725 0 -0.79863550430605224 -0.6018150307709319 I I #
edge $-1 $377 $230 $310 $384 forward #
point $-1 -21.655173444404035 -25.636237195510983 9.9485061588475912 #
point $-1 -21.655173444404035 -14.534853505046616 9.9485061588475912 #
edge $-1 $385 $385 $233 $-1 forward #
vertex $-1 $234 $386 #
ellipse-curve $-1 -32.535958847312372 -18.575249876316427 3.7615300069212072 0 -0.6018150307709319 0.79863550430605224 1 0 0 1 I I #
point $-1 -31.535958847312372 -20.085545350278785 5.7657597549784292 #
edge $-1 $387 $387 $237 $-1 forward #
vertex $-1 $238 $388 #
ellipse-curve $-1 -28.455664321221747 -18.575249876316427 3.7615300069212072 0 -0.6018150307709319 0.79863550430605224 1 0 0 1 I I #
point $-1 -27.455664321221747 -20.085545350278785 5.7657597549784292 #
edge $-1 $389 $389 $241 $-1 forward #
vertex $-1 $242 $390 #
ellipse-curve $-1 -24.375369795131117 -18.575249876316427 3.7615300069212072 0 -0.6018150307709319 0.79863550430605224 1 0 0 1 I I #
point $-1 -23.375369795131117 -20.085545350278785 5.7657597549784292 #
plane-surface $-1 0 0 9.9485061588475912 0 0 1 1 0 0 forward_v I I I I #
coedge $-1 $341 $340 $333 $391 forward $246 $-1 #
coedge $-1 $333 $248 $250 $337 reversed $170 $-1 #
coedge $-1 $248 $332 $331 $391 reversed $170 $-1 #
coedge $-1 $256 $251 $248 $335 forward $257 $-1 #
edge $-1 $338 $392 $334 $393 forward #
coedge $-1 $250 $249 $341 $394 reversed $114 $-1 #
edge $-1 $395 $338 $332 $396 forward #
vertex $-1 $252 $397 #
straight-curve $-1 14.22783216061088 -14.534853505046616 9.9485061588475912 -1 0 0 I I #
coedge $-1 $331 $253 $256 $345 reversed $246 $-1 #
coedge $-1 $253 $331 $336 $394 forward $246 $-1 #
vertex $-1 $254 $398 #
straight-curve $-1 35.256155198039473 -25.636237195510986 43.525464694594753 0 0 1 I I #
straight-curve $-1 35.256155198039473 -25.636237195511001 1.5830133511092725 0 -0.79863550430605224 -0.6018150307709319 I I #
edge $-1 $392 $258 $340 $399 forward #
point $-1 35.256155198039473 -25.636237195510983 9.9485061588475912 #
point $-1 35.256155198039473 -14.534853505046616 9.9485061588475912 #
edge $-1 $400 $400 $261 $-1 forward #
vertex $-1 $262 $401 #
ellipse-curve $-1 24.375369795131121 -18.575249876316427 3.7615300069212072 0 -0.6018150307709319 0.79863550430605224 1 0 0 1 I I #
point $-1 25.375369795131121 -20.085545350278785 5.7657597549784292 #
edge $-1 $402 $402 $265 $-1 forward #
vertex $-1 $266 $403 #
ellipse-curve $-1 28.455664321221761 -18.575249876316427 3.7615300069212072 0 -0.6018150307709319 0.79863550430605224 1 0 0 1 I I #
point $-1 29.455664321221761 -20.085545350278785 5.7657597549784292 #
edge $-1 $404 $404 $269 $-1 forward #
vertex $-1 $270 $405 #
ellipse-curve $-1 32.535958847312386 -18.575249876316427 3.7615300069212072 0 -0.6018150307709319 0.79863550430605224 1 0 0 1 I I #
point $-1 33.535958847312386 -20.085545350278785 5.7657597549784292 #
plane-surface $-1 53.508713034455397 0 0 -1 0 0 0 0 1 forward_v I I I I #
coedge $-1 $278 $276 $280 $365 reversed $199 $-1 #
edge $-1 $291 $367 $290 $406 forward #
vertex $-1 $365 $407 #
straight-curve $-1 -53.508713034455397 -25.636237195510983 0 0 0 -1 I I #
edge $-1 $363 $367 $361 $408 forward #
straight-curve $-1 0 -25.636237195510983 -9.9485061588475912 -1 0 0 I I #
vertex $-1 $283 $409 #
straight-curve $-1 0 25.636237195510983 -9.9485061588475912 1 0 0 I I #
point $-1 53.508713034455397 25.636237195510983 -9.9485061588475912 #
point $-1 53.508713034455397 -25.636237195510983 -9.9485061588475912 #
straight-curve $-1 -53.508713034455397 0 9.9485061588475912 0 -1 0 I I #
point $-1 -53.508713034455397 25.636237195510983 9.9485061588475912 #
point $-1 -53.508713034455397 -25.636237195510983 9.9485061588475912 #
straight-curve $-1 53.508713034455397 -25.636237195510983 0 0 0 -1 I I #
straight-curve $-1 53.508713034455397 25.636237195510983 0 0 0 -1 I I #
edge $-1 $377 $380 $301 $410 forward #
vertex $-1 $315 $411 #
straight-curve $-1 -35.256155198039458 -45.02046637909924 9.9485061588475929 0 -1 0 I I #
edge $-1 $380 $312 $311 $412 forward #
vertex $-1 $379 $413 #
straight-curve $-1 -35.256155198039458 -25.636237195511001 1.5830133511092725 0 0.79863550430605224 0.6018150307709319 I I #
point $-1 -35.256155198039458 -14.534853505046616 9.9485061588475912 #
point $-1 -21.655173444404035 -25.636237195510983 1.5830133511092859 #
straight-curve $-1 0 -25.636237195510983 9.9485061588475912 1 0 0 I I #
vertex $-1 $318 $414 #
point $-1 -31.535958847312372 -18.575249876316427 3.7615300069212072 #
vertex $-1 $322 $415 #
point $-1 -27.455664321221747 -18.575249876316427 3.7615300069212072 #
vertex $-1 $326 $416 #
point $-1 -23.375369795131117 -18.575249876316427 3.7615300069212072 #
edge $-1 $392 $395 $331 $417 forward #
vertex $-1 $345 $418 #
straight-curve $-1 21.655173444404049 -45.02046637909924 9.9485061588475929 0 -1 0 I I #
edge $-1 $395 $342 $341 $419 forward #
vertex $-1 $394 $420 #
straight-curve $-1 21.655173444404049 -25.636237195511001 1.5830133511092725 0 0.79863550430605224 0.6018150307709319 I I #
point $-1 21.655173444404049 -14.534853505046616 9.9485061588475912 #
point $-1 35.256155198039473 -25.636237195510983 1.5830133511092859 #
straight-curve $-1 0 -25.636237195510983 9.9485061588475912 1 0 0 I I #
vertex $-1 $348 $421 #
point $-1 25.375369795131121 -18.575249876316427 3.7615300069212072 #
vertex $-1 $352 $422 #
point $-1 29.455664321221761 -18.575249876316427 3.7615300069212072 #
vertex $-1 $356 $423 #
point $-1 33.535958847312386 -18.575249876316427 3.7615300069212072 #
straight-curve $-1 -53.508713034455397 25.636237195510983 0 0 0 -1 I I #
point $-1 -53.508713034455397 -25.636237195510983 -9.9485061588475912 #
straight-curve $-1 -53.508713034455397 0 -9.9485061588475912 0 1 0 I I #
point $-1 -53.508713034455397 25.636237195510983 -9.9485061588475912 #
straight-curve $-1 -35.256155198039458 -25.636237195510986 43.525464694594753 0 0 -1 I I #
point $-1 -35.256155198039458 -25.636237195510983 9.9485061588475912 #
straight-curve $-1 -14.227832160610873 -25.636237195510983 1.5830133511092868 1 0 0 I I #
point $-1 -35.256155198039458 -25.636237195510983 1.5830133511092859 #
point $-1 -32.535958847312372 -17.973434845545498 2.9628945026151552 #
point $-1 -28.455664321221747 -17.973434845545498 2.9628945026151552 #
point $-1 -24.375369795131117 -17.973434845545498 2.9628945026151552 #
straight-curve $-1 21.655173444404049 -25.636237195510986 43.525464694594753 0 0 -1 I I #
point $-1 21.655173444404049 -25.636237195510983 9.9485061588475912 #
straight-curve $-1 14.22783216061088 -25.636237195510983 1.5830133511092868 1 0 0 I I #
point $-1 21.655173444404049 -25.636237195510983 1.5830133511092859 #
point $-1 24.375369795131121 -17.973434845545498 2.9628945026151552 #
point $-1 28.455664321221761 -17.973434845545498 2.9628945026151552 #
point $-1 32.535958847312386 -17.973434845545498 2.9628945026151552 #
End-of-ACIS-data 