300 0 1 0           
7 Unknown 11 ACIS 3.0 NT 24 Fri Oct 30 14:02:05 1998 
-1 9.9999999999999995e-007 1e-010 
body $1 $2 $-1 $3 #
display_attribute-st-attrib $-1 $4 $-1 $0 1 #
lump $-1 $-1 $5 $0 #
transform $-1 1 0 0 0 1 0 0 0 1 63.19772942289498 40.962319919500423 10.779814474863249 1 rotate no_reflect no_shear #
id_attribute-st-attrib $-1 $-1 $1 $0 145 #
shell $-1 $-1 $-1 $6 $-1 $2 #
face $-1 $7 $8 $5 $-1 $9 forward single #
face $-1 $10 $11 $5 $-1 $12 reversed single #
loop $-1 $-1 $13 $6 #
plane-surface $-1 0 0 10.779814474863249 0 0 1 1 0 0 forward_v I I I I #
face $-1 $14 $15 $5 $-1 $16 reversed single #
loop $-1 $-1 $17 $7 #
plane-surface $-1 0 0 -10.779814474863249 0 0 1 1 0 0 forward_v I I I I #
coedge $-1 $18 $19 $20 $21 forward $8 $-1 #
face $-1 $22 $23 $5 $-1 $24 reversed single #
loop $-1 $-1 $25 $10 #
plane-surface $-1 0 -40.962319919500423 0 0 1 0 0 0 1 forward_v I I I I #
coedge $-1 $26 $27 $28 $29 forward $11 $-1 #
coedge $-1 $30 $13 $31 $32 forward $8 $-1 #
coedge $-1 $13 $30 $33 $34 forward $8 $-1 #
coedge $-1 $35 $36 $13 $21 reversed $37 $-1 #
edge $-1 $38 $39 $20 $40 forward #
face $-1 $41 $42 $5 $-1 $43 reversed single #
loop $-1 $-1 $44 $14 #
plane-surface $-1 -63.19772942289498 0 0 1 0 0 0 0 -1 forward_v I I I I #
coedge $-1 $45 $33 $46 $47 forward $15 $-1 #
coedge $-1 $48 $17 $45 $49 forward $11 $-1 #
coedge $-1 $17 $48 $50 $51 forward $11 $-1 #
coedge $-1 $36 $35 $17 $29 reversed $37 $-1 #
edge $-1 $52 $53 $28 $54 forward #
coedge $-1 $19 $18 $55 $56 forward $8 $-1 #
coedge $-1 $57 $58 $18 $32 reversed $42 $-1 #
edge $-1 $39 $59 $31 $60 forward #
coedge $-1 $25 $61 $19 $34 reversed $15 $-1 #
edge $-1 $62 $38 $33 $63 forward #
coedge $-1 $28 $20 $61 $64 forward $37 $-1 #
coedge $-1 $20 $28 $57 $65 reversed $37 $-1 #
loop $-1 $-1 $35 $41 #
vertex $-1 $21 $66 #
vertex $-1 $21 $67 #
straight-curve $-1 63.19772942289498 0 10.779814474863249 0 1 0 I I #
face $-1 $-1 $37 $5 $-1 $68 reversed single #
loop $-1 $-1 $57 $22 #
plane-surface $-1 0 40.962319919500423 0 0 -1 0 0 0 -1 forward_v I I I I #
coedge $-1 $69 $55 $58 $70 forward $23 $-1 #
coedge $-1 $61 $25 $26 $49 reversed $15 $-1 #
coedge $-1 $55 $69 $25 $47 reversed $23 $-1 #
edge $-1 $62 $71 $46 $72 forward #
coedge $-1 $27 $26 $69 $73 forward $11 $-1 #
edge $-1 $53 $71 $45 $74 forward #
coedge $-1 $58 $57 $27 $51 reversed $42 $-1 #
edge $-1 $75 $52 $50 $76 forward #
vertex $-1 $29 $77 #
vertex $-1 $64 $78 #
straight-curve $-1 63.19772942289498 0 -10.779814474863249 0 -1 0 I I #
coedge $-1 $44 $46 $30 $56 reversed $23 $-1 #
edge $-1 $59 $62 $55 $79 forward #
coedge $-1 $50 $31 $36 $65 forward $42 $-1 #
coedge $-1 $31 $50 $44 $70 reversed $42 $-1 #
vertex $-1 $32 $80 #
straight-curve $-1 0 40.962319919500423 10.779814474863249 -1 0 0 I I #
coedge $-1 $33 $45 $35 $64 reversed $15 $-1 #
vertex $-1 $56 $81 #
straight-curve $-1 0 -40.962319919500423 10.779814474863249 1 0 0 I I #
edge $-1 $38 $53 $35 $82 forward #
edge $-1 $39 $52 $36 $83 forward #
point $-1 63.19772942289498 -40.962319919500423 10.779814474863249 #
point $-1 63.19772942289498 40.962319919500423 10.779814474863249 #
plane-surface $-1 63.19772942289498 0 0 -1 0 0 0 0 1 forward_v I I I I #
coedge $-1 $46 $44 $48 $73 reversed $23 $-1 #
edge $-1 $59 $75 $58 $84 forward #
vertex $-1 $73 $85 #
straight-curve $-1 -63.19772942289498 -40.962319919500423 0 0 0 -1 I I #
edge $-1 $71 $75 $69 $86 forward #
straight-curve $-1 0 -40.962319919500423 -10.779814474863249 -1 0 0 I I #
vertex $-1 $51 $87 #
straight-curve $-1 0 40.962319919500423 -10.779814474863249 1 0 0 I I #
point $-1 63.19772942289498 40.962319919500423 -10.779814474863249 #
point $-1 63.19772942289498 -40.962319919500423 -10.779814474863249 #
straight-curve $-1 -63.19772942289498 0 10.779814474863249 0 -1 0 I I #
point $-1 -63.19772942289498 40.962319919500423 10.779814474863249 #
point $-1 -63.19772942289498 -40.962319919500423 10.779814474863249 #
straight-curve $-1 63.19772942289498 -40.962319919500423 0 0 0 -1 I I #
straight-curve $-1 63.19772942289498 40.962319919500423 0 0 0 -1 I I #
straight-curve $-1 -63.19772942289498 40.962319919500423 0 0 0 -1 I I #
point $-1 -63.19772942289498 -40.962319919500423 -10.779814474863249 #
straight-curve $-1 -63.19772942289498 0 -10.779814474863249 0 1 0 I I #
point $-1 -63.19772942289498 40.962319919500423 -10.779814474863249 #
End-of-ACIS-data 