600 0 2 0           
92 GICL ACIS Healer - Source: /gicl/data5/repository/Drexel/SM99-DATA/part93.smdg.des.sat - 6 0 18 ACIS 6.0.3 Solaris 24 Sat Apr 13 20:46:57 2002 
1 9.999999999999999547e-07 1.000000000000000036e-10 
body $-1 $2 $-1 $-1 #
body $-1 $3 $-1 $-1 #
lump $-1 $-1 $4 $0 #
lump $-1 $-1 $5 $1 #
shell $-1 $-1 $-1 $6 $-1 $2 #
shell $-1 $-1 $-1 $7 $-1 $3 #
face $-1 $8 $9 $4 $-1 $10 forward single #
face $-1 $11 $12 $5 $-1 $13 reversed single #
face $-1 $14 $15 $4 $-1 $16 reversed single #
loop $-1 $-1 $17 $6 #
plane-surface $-1 40.18799401837214447 22.57307633623265986 21.06067264384198623 0 0 1 1 0 0 forward_v I I I I #
face $-1 $18 $19 $5 $-1 $20 forward single #
loop $-1 $-1 $21 $7 #
plane-surface $-1 3.8139536758913124 22.57307633623265986 5.160754993108934485 0 0 1 1 0 0 forward_v I I I I #
face $-1 $22 $23 $4 $-1 $24 reversed single #
loop $-1 $-1 $25 $8 #
plane-surface $-1 40.18799401837214447 22.57307633623265986 0 0 0 1 1 0 0 forward_v I I I I #
coedge $-1 $26 $27 $28 $29 forward $9 $-1 #
face $-1 $30 $31 $5 $-1 $32 reversed single #
loop $-1 $-1 $33 $11 #
plane-surface $-1 7.627907351782624801 22.57307633623265986 2.580377496554467243 -1 0 0 0 0 1 forward_v I I I I #
coedge $-1 $34 $35 $36 $37 reversed $12 $-1 #
face $-1 $38 $39 $4 $-1 $40 reversed single #
loop $-1 $-1 $41 $14 #
plane-surface $-1 40.18799401837214447 0 10.53033632192099311 0 1 0 0 0 1 forward_v I I I I #
coedge $-1 $42 $43 $44 $45 forward $15 $-1 #
coedge $-1 $46 $17 $47 $48 forward $9 $-1 #
coedge $-1 $17 $46 $49 $50 forward $9 $-1 #
coedge $-1 $51 $52 $17 $29 reversed $53 $-1 #
edge $-1 $54 -22.57307633623265986 $55 22.57307633623265986 $28 $56 forward 7 unknown #
face $-1 $57 $58 $5 $-1 $59 reversed single #
loop $-1 $-1 $60 $18 #
plane-surface $-1 0 22.57307633623265986 10.53033632192099311 1 0 0 0 0 -1 forward_v I I I I #
coedge $-1 $36 $61 $62 $63 reversed $19 $-1 #
coedge $-1 $64 $21 $65 $66 reversed $12 $-1 #
coedge $-1 $21 $64 $67 $68 reversed $12 $-1 #
coedge $-1 $69 $33 $21 $37 forward $19 $-1 #
edge $-1 $70 -22.57307633623265986 $71 22.57307633623265986 $36 $72 forward 7 unknown #
face $-1 $73 $74 $4 $-1 $75 reversed single #
loop $-1 $-1 $76 $22 #
plane-surface $-1 0 22.57307633623265986 10.53033632192099311 1 0 0 0 0 -1 forward_v I I I I #
coedge $-1 $77 $49 $78 $79 forward $23 $-1 #
coedge $-1 $80 $25 $77 $81 forward $15 $-1 #
coedge $-1 $25 $80 $82 $83 forward $15 $-1 #
coedge $-1 $52 $51 $25 $45 reversed $53 $-1 #
edge $-1 $84 -22.57307633623265986 $85 22.57307633623265986 $44 $86 forward 7 unknown #
coedge $-1 $27 $26 $87 $88 forward $9 $-1 #
coedge $-1 $89 $90 $26 $48 reversed $74 $-1 #
edge $-1 $55 -40.18799401837214447 $91 40.18799401837214447 $47 $92 forward 7 unknown #
coedge $-1 $41 $93 $27 $50 reversed $23 $-1 #
edge $-1 $94 -40.18799401837214447 $54 40.18799401837214447 $49 $95 forward 7 unknown #
coedge $-1 $44 $28 $93 $96 forward $53 $-1 #
coedge $-1 $28 $44 $89 $97 reversed $53 $-1 #
loop $-1 $-1 $51 $73 #
vertex $-1 $29 $98 #
vertex $-1 $29 $99 #
straight-curve $-1 80.37598803674428893 22.57307633623265986 21.06067264384198623 0 1 0 I I #
face $-1 $100 $101 $5 $-1 $102 forward single #
loop $-1 $-1 $65 $30 #
plane-surface $-1 40.18799401837214447 0 10.53033632192099311 0 1 0 0 0 1 forward_v I I I I #
coedge $-1 $103 $104 $64 $105 forward $31 $-1 #
coedge $-1 $33 $69 $106 $107 reversed $19 $-1 #
coedge $-1 $108 $65 $33 $63 forward $58 $-1 #
edge $-1 $70 1.394601916128795693 $109 6.555356909237730179 $62 $110 forward 7 unknown #
coedge $-1 $35 $34 $60 $105 reversed $12 $-1 #
coedge $-1 $62 $111 $34 $66 forward $58 $-1 #
edge $-1 $112 -22.00097384713172843 $70 -14.37306649534910363 $65 $113 forward 7 unknown #
coedge $-1 $114 $115 $35 $68 forward $116 $-1 #
edge $-1 $71 14.37306649534910363 $117 22.00097384713172843 $67 $118 forward 7 unknown #
coedge $-1 $61 $36 $115 $119 reversed $19 $-1 #
vertex $-1 $66 $120 #
vertex $-1 $68 $121 #
straight-curve $-1 7.627907351782624801 22.57307633623265986 5.160754993108934485 0 1 0 I I #
face $-1 $-1 $53 $4 $-1 $122 reversed single #
loop $-1 $-1 $89 $38 #
plane-surface $-1 40.18799401837214447 45.14615267246531971 10.53033632192099311 0 -1 0 0 0 -1 forward_v I I I I #
coedge $-1 $123 $87 $90 $124 forward $39 $-1 #
coedge $-1 $93 $41 $42 $81 reversed $23 $-1 #
coedge $-1 $87 $123 $41 $79 reversed $39 $-1 #
edge $-1 $94 -10.53033632192099311 $125 10.53033632192099311 $78 $126 forward 7 unknown #
coedge $-1 $43 $42 $123 $127 forward $15 $-1 #
edge $-1 $85 -40.18799401837214447 $125 40.18799401837214447 $77 $128 forward 7 unknown #
coedge $-1 $90 $89 $43 $83 reversed $74 $-1 #
edge $-1 $129 -40.18799401837214447 $84 40.18799401837214447 $82 $130 forward 7 unknown #
vertex $-1 $45 $131 #
vertex $-1 $96 $132 #
straight-curve $-1 80.37598803674428893 22.57307633623265986 0 0 -1 0 I I #
coedge $-1 $76 $78 $46 $88 reversed $39 $-1 #
edge $-1 $91 -22.57307633623265986 $94 22.57307633623265986 $87 $133 forward 7 unknown #
coedge $-1 $82 $47 $52 $97 forward $74 $-1 #
coedge $-1 $47 $82 $76 $124 reversed $74 $-1 #
vertex $-1 $48 $134 #
straight-curve $-1 40.18799401837214447 45.14615267246531971 21.06067264384198623 -1 0 0 I I #
coedge $-1 $49 $77 $51 $96 reversed $23 $-1 #
vertex $-1 $88 $135 #
straight-curve $-1 40.18799401837214447 0 21.06067264384198623 1 0 0 I I #
edge $-1 $54 -10.53033632192099311 $85 10.53033632192099311 $51 $136 forward 7 unknown #
edge $-1 $55 -10.53033632192099311 $84 10.53033632192099311 $52 $137 forward 7 unknown #
point $-1 80.37598803674428893 0 21.06067264384198623 #
point $-1 80.37598803674428893 45.14615267246531971 21.06067264384198623 #
face $-1 $138 $139 $5 $-1 $140 reversed single #
loop $-1 $-1 $141 $57 #
plane-surface $-1 40.18799401837214447 22.57307633623265986 21.06067264384198623 0 0 1 1 0 0 forward_v I I I I #
coedge $-1 $142 $60 $111 $143 reversed $31 $-1 #
coedge $-1 $60 $142 $114 $144 forward $31 $-1 #
edge $-1 $117 -22.57307633623265986 $112 22.57307633623265986 $60 $145 forward 7 unknown #
coedge $-1 $146 $147 $61 $107 forward $139 $-1 #
edge $-1 $109 -22.57307633623265986 $148 22.57307633623265986 $106 $149 forward 7 unknown #
coedge $-1 $150 $62 $147 $151 reversed $58 $-1 #
vertex $-1 $63 $152 #
straight-curve $-1 7.627907351782624801 0 6.555356909237730179 0 0 -1 I I #
coedge $-1 $65 $153 $103 $143 forward $58 $-1 #
vertex $-1 $66 $154 #
straight-curve $-1 22.00097384713172843 0 5.160754993108934485 1 0 0 I I #
coedge $-1 $155 $67 $104 $144 reversed $116 $-1 #
coedge $-1 $67 $156 $69 $119 forward $116 $-1 #
loop $-1 $-1 $67 $138 #
vertex $-1 $105 $157 #
straight-curve $-1 22.00097384713172843 45.14615267246531971 5.160754993108934485 -1 0 0 I I #
edge $-1 $148 -6.555356909237730179 $71 -1.394601916128795693 $115 $158 forward 7 unknown #
point $-1 7.627907351782624801 0 5.160754993108934485 #
point $-1 7.627907351782624801 45.14615267246531971 5.160754993108934485 #
plane-surface $-1 80.37598803674428893 22.57307633623265986 10.53033632192099311 -1 0 0 0 0 1 forward_v I I I I #
coedge $-1 $78 $76 $80 $127 reversed $39 $-1 #
edge $-1 $91 -10.53033632192099311 $129 10.53033632192099311 $90 $159 forward 7 unknown #
vertex $-1 $127 $160 #
straight-curve $-1 0 0 10.53033632192099311 0 0 -1 I I #
edge $-1 $125 -22.57307633623265986 $129 22.57307633623265986 $123 $161 forward 7 unknown #
straight-curve $-1 40.18799401837214447 0 0 -1 0 0 I I #
vertex $-1 $83 $162 #
straight-curve $-1 40.18799401837214447 45.14615267246531971 0 1 0 0 I I #
point $-1 80.37598803674428893 45.14615267246531971 0 #
point $-1 80.37598803674428893 0 0 #
straight-curve $-1 0 22.57307633623265986 21.06067264384198623 0 -1 0 I I #
point $-1 0 45.14615267246531971 21.06067264384198623 #
point $-1 0 0 21.06067264384198623 #
straight-curve $-1 80.37598803674428893 0 10.53033632192099311 0 0 -1 I I #
straight-curve $-1 80.37598803674428893 45.14615267246531971 10.53033632192099311 0 0 -1 I I #
face $-1 $163 $116 $5 $-1 $164 reversed single #
loop $-1 $-1 $106 $100 #
plane-surface $-1 40.18799401837214447 22.57307633623265986 0 0 0 1 1 0 0 forward_v I I I I #
coedge $-1 $165 $166 $167 $168 forward $101 $-1 #
coedge $-1 $104 $103 $169 $170 reversed $31 $-1 #
edge $-1 $171 -10.53033632192099311 $112 5.369581328812058629 $103 $172 forward 7 unknown #
edge $-1 $173 -10.53033632192099311 $117 5.369581328812058629 $114 $174 forward 7 unknown #
straight-curve $-1 0 22.57307633623265986 5.160754993108934485 0 -1 0 I I #
coedge $-1 $175 $106 $156 $176 forward $139 $-1 #
coedge $-1 $106 $175 $108 $151 forward $139 $-1 #
vertex $-1 $176 $177 #
straight-curve $-1 7.627907351782624801 22.57307633623265986 0 0 1 0 I I #
coedge $-1 $153 $108 $178 $179 reversed $58 $-1 #
edge $-1 $180 -40.18799401837214447 $109 32.56008666658951967 $108 $181 forward 7 unknown #
point $-1 7.627907351782624801 0 0 #
coedge $-1 $111 $150 $166 $182 reversed $58 $-1 #
point $-1 0 0 5.160754993108934485 #
coedge $-1 $183 $114 $165 $184 reversed $116 $-1 #
coedge $-1 $115 $183 $146 $176 reversed $116 $-1 #
point $-1 0 45.14615267246531971 5.160754993108934485 #
straight-curve $-1 7.627907351782624801 45.14615267246531971 6.555356909237730179 0 0 1 I I #
straight-curve $-1 0 45.14615267246531971 10.53033632192099311 0 0 -1 I I #
point $-1 0 0 0 #
straight-curve $-1 0 22.57307633623265986 0 0 1 0 I I #
point $-1 0 45.14615267246531971 0 #
face $-1 $-1 $185 $5 $-1 $186 reversed single #
plane-surface $-1 40.18799401837214447 45.14615267246531971 10.53033632192099311 0 -1 0 0 0 -1 forward_v I I I I #
coedge $-1 $169 $141 $155 $184 forward $101 $-1 #
coedge $-1 $141 $169 $153 $182 forward $101 $-1 #
coedge $-1 $178 $187 $141 $168 reversed $185 $-1 #
edge $-1 $188 -22.57307633623265986 $189 22.57307633623265986 $167 $190 forward 7 unknown #
coedge $-1 $166 $165 $142 $170 forward $101 $-1 #
edge $-1 $173 -22.57307633623265986 $171 22.57307633623265986 $142 $191 forward 7 unknown #
vertex $-1 $170 $192 #
straight-curve $-1 0 0 10.53033632192099311 0 0 -1 I I #
vertex $-1 $184 $193 #
straight-curve $-1 0 45.14615267246531971 10.53033632192099311 0 0 -1 I I #
coedge $-1 $147 $146 $194 $195 forward $139 $-1 #
edge $-1 $148 -32.56008666658951967 $196 40.18799401837214447 $156 $197 forward 7 unknown #
point $-1 7.627907351782624801 45.14615267246531971 0 #
coedge $-1 $194 $167 $150 $179 forward $185 $-1 #
edge $-1 $188 -10.53033632192099311 $180 10.53033632192099311 $178 $198 forward 7 unknown #
vertex $-1 $179 $199 #
straight-curve $-1 40.18799401837214447 0 0 -1 0 0 I I #
edge $-1 $171 -40.18799401837214447 $188 40.18799401837214447 $153 $200 forward 7 unknown #
coedge $-1 $156 $155 $187 $201 forward $116 $-1 #
edge $-1 $189 -40.18799401837214447 $173 40.18799401837214447 $155 $202 forward 7 unknown #
loop $-1 $-1 $178 $163 #
plane-surface $-1 80.37598803674428893 22.57307633623265986 10.53033632192099311 -1 0 0 0 0 1 forward_v I I I I #
coedge $-1 $167 $194 $183 $201 reversed $185 $-1 #
vertex $-1 $168 $203 #
vertex $-1 $168 $204 #
straight-curve $-1 80.37598803674428893 22.57307633623265986 21.06067264384198623 0 1 0 I I #
straight-curve $-1 0 22.57307633623265986 21.06067264384198623 0 -1 0 I I #
point $-1 0 0 21.06067264384198623 #
point $-1 0 45.14615267246531971 21.06067264384198623 #
coedge $-1 $187 $178 $175 $195 reversed $185 $-1 #
edge $-1 $196 -22.57307633623265986 $180 22.57307633623265986 $194 $205 forward 7 unknown #
vertex $-1 $195 $206 #
straight-curve $-1 40.18799401837214447 45.14615267246531971 0 1 0 0 I I #
straight-curve $-1 80.37598803674428893 0 10.53033632192099311 0 0 -1 I I #
point $-1 80.37598803674428893 0 0 #
straight-curve $-1 40.18799401837214447 0 21.06067264384198623 1 0 0 I I #
edge $-1 $189 -10.53033632192099311 $196 10.53033632192099311 $187 $207 forward 7 unknown #
straight-curve $-1 40.18799401837214447 45.14615267246531971 21.06067264384198623 -1 0 0 I I #
point $-1 80.37598803674428893 0 21.06067264384198623 #
point $-1 80.37598803674428893 45.14615267246531971 21.06067264384198623 #
straight-curve $-1 80.37598803674428893 22.57307633623265986 0 0 -1 0 I I #
point $-1 80.37598803674428893 45.14615267246531971 0 #
straight-curve $-1 80.37598803674428893 45.14615267246531971 10.53033632192099311 0 0 -1 I I #
End-of-ACIS-data 