600 0 14 0           
93 GICL ACIS Healer - Source: /gicl/data5/repository/Drexel/SM99-DATA/part99.smdg.feat.sat - 6 0 18 ACIS 6.0.3 Solaris 24 Sat Apr 13 20:47:33 2002 
1 9.999999999999999547e-07 1.000000000000000036e-10 
body $-1 $14 $-1 $-1 #
body $-1 $15 $-1 $-1 #
body $-1 $16 $-1 $-1 #
body $-1 $17 $-1 $-1 #
body $-1 $18 $-1 $-1 #
body $-1 $19 $-1 $-1 #
body $-1 $20 $-1 $-1 #
body $-1 $21 $-1 $-1 #
body $-1 $22 $-1 $-1 #
body $-1 $23 $-1 $-1 #
body $-1 $24 $-1 $-1 #
body $-1 $25 $-1 $-1 #
body $-1 $26 $-1 $-1 #
body $-1 $27 $-1 $-1 #
lump $-1 $-1 $28 $0 #
lump $-1 $-1 $29 $1 #
lump $-1 $-1 $30 $2 #
lump $-1 $-1 $31 $3 #
lump $-1 $-1 $32 $4 #
lump $-1 $-1 $33 $5 #
lump $-1 $-1 $34 $6 #
lump $-1 $-1 $35 $7 #
lump $-1 $-1 $36 $8 #
lump $-1 $-1 $37 $9 #
lump $-1 $-1 $38 $10 #
lump $-1 $-1 $39 $11 #
lump $-1 $-1 $40 $12 #
lump $-1 $-1 $41 $13 #
shell $-1 $-1 $-1 $42 $-1 $14 #
shell $-1 $-1 $-1 $43 $-1 $15 #
shell $-1 $-1 $-1 $44 $-1 $16 #
shell $-1 $-1 $-1 $45 $-1 $17 #
shell $-1 $-1 $-1 $46 $-1 $18 #
shell $-1 $-1 $-1 $47 $-1 $19 #
shell $-1 $-1 $-1 $48 $-1 $20 #
shell $-1 $-1 $-1 $49 $-1 $21 #
shell $-1 $-1 $-1 $50 $-1 $22 #
shell $-1 $-1 $-1 $51 $-1 $23 #
shell $-1 $-1 $-1 $52 $-1 $24 #
shell $-1 $-1 $-1 $53 $-1 $25 #
shell $-1 $-1 $-1 $54 $-1 $26 #
shell $-1 $-1 $-1 $55 $-1 $27 #
face $-1 $56 $57 $28 $-1 $58 forward single #
face $-1 $59 $60 $29 $-1 $61 forward single #
face $-1 $62 $63 $30 $-1 $64 forward single #
face $-1 $65 $66 $31 $-1 $67 forward single #
face $-1 $68 $69 $32 $-1 $70 forward single #
face $-1 $71 $72 $33 $-1 $73 forward single #
face $-1 $74 $75 $34 $-1 $76 forward single #
face $-1 $77 $78 $35 $-1 $79 forward single #
face $-1 $80 $81 $36 $-1 $82 forward single #
face $-1 $83 $84 $37 $-1 $85 forward single #
face $-1 $86 $87 $38 $-1 $88 forward single #
face $-1 $89 $90 $39 $-1 $91 forward single #
face $-1 $92 $93 $40 $-1 $94 forward single #
face $-1 $95 $96 $41 $-1 $97 forward single #
face $-1 $98 $99 $28 $-1 $100 reversed single #
loop $-1 $-1 $101 $42 #
plane-surface $-1 65.49150059511093502 26.87476015967043708 21.48816160549545629 0 0 1 1 0 0 forward_v I I I I #
face $-1 $102 $103 $29 $-1 $104 reversed single #
loop $-1 $-1 $105 $43 #
plane-surface $-1 19.98816160549545629 4.831452502052409947 21.48816160549545629 0 0 1 1 0 0 forward_v I I I I #
face $-1 $106 $107 $30 $-1 $108 reversed single #
loop $-1 $-1 $109 $44 #
plane-surface $-1 -164.8605491069898221 29.11988064184446046 221.6027231568189677 -0.6293203988644634483 0 0.7771459551288114609 0.7771459551288114609 0 0.6293203988644634483 forward_v I I I I #
face $-1 $110 $111 $31 $-1 $112 forward single #
loop $-1 $113 $114 $45 #
cone-surface $-1 2.971818411436248475 25.28063003169048883 18.7294262253963133 0.6293203988644634483 0 -0.7771459551288114609 0.7771459551288114609 0 0.6293203988644634483 1 I I 0 1 1 forward I I I I #
face $-1 $115 $116 $32 $-1 $117 forward single #
loop $-1 $118 $119 $46 #
cone-surface $-1 2.971818411436248475 29.11988064184446401 18.7294262253963133 0.6293203988644634483 0 -0.7771459551288114609 0.7771459551288114609 0 0.6293203988644634483 1 I I 0 1 1 forward I I I I #
face $-1 $120 $121 $33 $-1 $122 forward single #
loop $-1 $123 $124 $47 #
cone-surface $-1 2.971818411436248475 32.95913125199843563 18.7294262253963133 0.6293203988644634483 0 -0.7771459551288114609 0.7771459551288114609 0 0.6293203988644634483 1 I I 0 1 1 forward I I I I #
face $-1 $125 $126 $34 $-1 $127 reversed single #
loop $-1 $-1 $128 $48 #
plane-surface $-1 184.0304037626735862 17.23192817912128305 301.0236710876699817 0.6018150307709319025 0 0.7986355043060522352 0.7986355043060522352 0 -0.6018150307709319025 forward_v I I I I #
face $-1 $129 $130 $35 $-1 $131 forward single #
loop $-1 $132 $133 $49 #
cone-surface $-1 124.6628004557457956 17.23192817912128305 16.33823384525481259 -0.6018150307709319025 0 -0.7986355043060522352 0.7986355043060522352 0 -0.6018150307709319025 1 I I 0 1 1 forward I I I I #
face $-1 $134 $135 $36 $-1 $136 reversed single #
loop $-1 $-1 $137 $50 #
plane-surface $-1 184.0304037626735862 26.88145116752232155 301.0236710876699817 0.6018150307709319025 0 0.7986355043060522352 0.7986355043060522352 0 -0.6018150307709319025 forward_v I I I I #
face $-1 $138 $139 $37 $-1 $140 forward single #
loop $-1 $141 $142 $51 #
cone-surface $-1 124.6628004557457956 26.88145116752232155 16.33823384525481259 -0.6018150307709319025 0 -0.7986355043060522352 0.7986355043060522352 0 -0.6018150307709319025 1 I I 0 1 1 forward I I I I #
face $-1 $143 $144 $38 $-1 $145 reversed single #
loop $-1 $-1 $146 $52 #
plane-surface $-1 184.0304037626735862 36.53097415592336006 301.0236710876699817 0.6018150307709319025 0 0.7986355043060522352 0.7986355043060522352 0 -0.6018150307709319025 forward_v I I I I #
face $-1 $147 $148 $39 $-1 $149 forward single #
loop $-1 $150 $151 $53 #
cone-surface $-1 124.6628004557457956 36.53097415592336006 16.33823384525481259 -0.6018150307709319025 0 -0.7986355043060522352 0.7986355043060522352 0 -0.6018150307709319025 1 I I 0 1 1 forward I I I I #
face $-1 $152 $153 $40 $-1 $154 reversed single #
loop $-1 $-1 $155 $54 #
plane-surface $-1 184.0304037626735862 46.18049714432439856 301.0236710876699817 0.6018150307709319025 0 0.7986355043060522352 0.7986355043060522352 0 -0.6018150307709319025 forward_v I I I I #
face $-1 $156 $157 $41 $-1 $158 forward single #
loop $-1 $159 $160 $55 #
cone-surface $-1 124.6628004557457956 46.18049714432439856 16.33823384525481259 -0.6018150307709319025 0 -0.7986355043060522352 0.7986355043060522352 0 -0.6018150307709319025 1 I I 0 1 1 forward I I I I #
face $-1 $161 $162 $28 $-1 $163 reversed single #
loop $-1 $-1 $164 $56 #
plane-surface $-1 65.49150059511093502 26.87476015967043708 0 0 0 1 1 0 0 forward_v I I I I #
coedge $-1 $165 $166 $167 $168 forward $57 $-1 #
face $-1 $169 $170 $29 $-1 $171 reversed single #
loop $-1 $-1 $172 $59 #
plane-surface $-1 19.98816160549545629 4.831452502052409947 0 0 0 1 1 0 0 forward_v I I I I #
coedge $-1 $173 $174 $175 $176 forward $60 $-1 #
face $-1 $177 $178 $30 $-1 $179 reversed single #
loop $-1 $-1 $180 $62 #
plane-surface $-1 -1.421085471520200372e-14 29.11988064184446046 18.01690402559255233 -0.6293203988644634483 0 0.7771459551288114609 0.7771459551288114609 0 0.6293203988644634483 forward_v I I I I #
coedge $-1 $181 $182 $183 $184 forward $63 $-1 #
face $-1 $-1 $185 $31 $-1 $186 forward single #
loop $-1 $-1 $187 $65 #
plane-surface $-1 2.143323013443884761 25.28063003169048883 19.7525328155439972 -0.6293203988644634483 0 0.7771459551288114609 -0.7771459551288114609 0 -0.6293203988644634483 forward_v I I I I #
loop $-1 $-1 $188 $45 #
coedge $-1 $114 $114 $187 $189 reversed $66 $-1 #
face $-1 $-1 $190 $32 $-1 $191 forward single #
loop $-1 $-1 $192 $68 #
plane-surface $-1 2.143323013443884761 29.11988064184446401 19.7525328155439972 -0.6293203988644634483 0 0.7771459551288114609 -0.7771459551288114609 0 -0.6293203988644634483 forward_v I I I I #
loop $-1 $-1 $193 $46 #
coedge $-1 $119 $119 $192 $194 reversed $69 $-1 #
face $-1 $-1 $195 $33 $-1 $196 forward single #
loop $-1 $-1 $197 $71 #
plane-surface $-1 2.143323013443884761 32.95913125199843563 19.7525328155439972 -0.6293203988644634483 0 0.7771459551288114609 -0.7771459551288114609 0 -0.6293203988644634483 forward_v I I I I #
loop $-1 $-1 $198 $47 #
coedge $-1 $124 $124 $197 $199 reversed $72 $-1 #
face $-1 $200 $201 $34 $-1 $202 reversed single #
loop $-1 $-1 $203 $74 #
plane-surface $-1 26.37532597914879773 17.23192817912128305 91.80832066552378024 0.6018150307709319025 0 0.7986355043060522352 0.7986355043060522352 0 -0.6018150307709319025 forward_v I I I I #
coedge $-1 $204 $205 $206 $207 forward $75 $-1 #
face $-1 $-1 $208 $35 $-1 $209 forward single #
loop $-1 $-1 $210 $77 #
plane-surface $-1 125.3381641266339983 17.23192817912128305 17.23447168962842113 0.6018150307709319025 0 0.7986355043060522352 -0.7986355043060522352 0 0.6018150307709319025 forward_v I I I I #
loop $-1 $-1 $211 $49 #
coedge $-1 $133 $133 $210 $212 reversed $78 $-1 #
face $-1 $213 $214 $36 $-1 $215 reversed single #
loop $-1 $-1 $216 $80 #
plane-surface $-1 26.37532597914879773 26.88145116752232155 91.80832066552378024 0.6018150307709319025 0 0.7986355043060522352 0.7986355043060522352 0 -0.6018150307709319025 forward_v I I I I #
coedge $-1 $217 $218 $219 $220 forward $81 $-1 #
face $-1 $-1 $221 $37 $-1 $222 forward single #
loop $-1 $-1 $223 $83 #
plane-surface $-1 125.3381641266339983 26.88145116752232155 17.23447168962842113 0.6018150307709319025 0 0.7986355043060522352 -0.7986355043060522352 0 0.6018150307709319025 forward_v I I I I #
loop $-1 $-1 $224 $51 #
coedge $-1 $142 $142 $223 $225 reversed $84 $-1 #
face $-1 $226 $227 $38 $-1 $228 reversed single #
loop $-1 $-1 $229 $86 #
plane-surface $-1 26.37532597914879773 36.53097415592336006 91.80832066552378024 0.6018150307709319025 0 0.7986355043060522352 0.7986355043060522352 0 -0.6018150307709319025 forward_v I I I I #
coedge $-1 $230 $231 $232 $233 forward $87 $-1 #
face $-1 $-1 $234 $39 $-1 $235 forward single #
loop $-1 $-1 $236 $89 #
plane-surface $-1 125.3381641266339983 36.53097415592336006 17.23447168962842113 0.6018150307709319025 0 0.7986355043060522352 -0.7986355043060522352 0 0.6018150307709319025 forward_v I I I I #
loop $-1 $-1 $237 $53 #
coedge $-1 $151 $151 $236 $238 reversed $90 $-1 #
face $-1 $239 $240 $40 $-1 $241 reversed single #
loop $-1 $-1 $242 $92 #
plane-surface $-1 26.37532597914879773 46.18049714432439856 91.80832066552378024 0.6018150307709319025 0 0.7986355043060522352 0.7986355043060522352 0 -0.6018150307709319025 forward_v I I I I #
coedge $-1 $243 $244 $245 $246 forward $93 $-1 #
face $-1 $-1 $247 $41 $-1 $248 forward single #
loop $-1 $-1 $249 $95 #
plane-surface $-1 125.3381641266339983 46.18049714432439856 17.23447168962842113 0.6018150307709319025 0 0.7986355043060522352 -0.7986355043060522352 0 0.6018150307709319025 forward_v I I I I #
loop $-1 $-1 $250 $55 #
coedge $-1 $160 $160 $249 $251 reversed $96 $-1 #
face $-1 $252 $253 $28 $-1 $254 reversed single #
loop $-1 $-1 $255 $98 #
plane-surface $-1 65.49150059511093502 0 10.74408080274772814 0 1 0 0 0 1 forward_v I I I I #
coedge $-1 $256 $257 $258 $259 forward $99 $-1 #
coedge $-1 $260 $101 $261 $262 forward $57 $-1 #
coedge $-1 $101 $260 $263 $264 forward $57 $-1 #
coedge $-1 $265 $266 $101 $168 reversed $267 $-1 #
edge $-1 $268 -26.87476015967043708 $269 26.87476015967043708 $167 $270 forward 7 unknown #
face $-1 $271 $272 $29 $-1 $273 reversed single #
loop $-1 $-1 $274 $102 #
plane-surface $-1 19.98816160549545629 0 10.74408080274772814 0 1 0 0 0 1 forward_v I I I I #
coedge $-1 $275 $276 $277 $278 forward $103 $-1 #
coedge $-1 $279 $105 $280 $281 forward $60 $-1 #
coedge $-1 $105 $279 $282 $283 forward $60 $-1 #
coedge $-1 $284 $285 $105 $176 reversed $286 $-1 #
edge $-1 $287 -4.831452502052409947 $288 4.831452502052409947 $175 $289 forward 7 unknown #
face $-1 $290 $291 $30 $-1 $292 reversed single #
loop $-1 $-1 $293 $106 #
plane-surface $-1 -82.43027455349491106 22.7211296249211685 119.8098135912057529 0 1 0 -0.6293203988644634483 0 0.7771459551288114609 forward_v I I I I #
coedge $-1 $294 $295 $296 $297 forward $107 $-1 #
coedge $-1 $298 $109 $299 $300 forward $63 $-1 #
coedge $-1 $109 $298 $301 $302 forward $63 $-1 #
coedge $-1 $303 $304 $109 $184 reversed $305 $-1 #
edge $-1 $306 -6.398751016923291957 $307 6.398751016923291957 $183 $308 forward 7 unknown #
loop $-1 $309 $310 $110 #
cone-surface $-1 4.114974008860845522 25.28063003169048883 17.31774665768422494 0.6293203988644634483 0 -0.7771459551288114609 0.3885729775644057304 0 0.3146601994322317242 1 I I -0.7071067811865474617 0.7071067811865474617 0.5 forward I I I I #
coedge $-1 $187 $187 $114 $189 forward $111 $-1 #
coedge $-1 $188 $188 $310 $311 forward $113 $-1 #
edge $-1 $312 0 $312 6.283185307179586232 $187 $313 forward 7 unknown #
loop $-1 $314 $315 $115 #
cone-surface $-1 4.114974008860845522 29.11988064184446401 17.31774665768422494 0.6293203988644634483 0 -0.7771459551288114609 0.3885729775644057304 0 0.3146601994322317242 1 I I -0.7071067811865474617 0.7071067811865474617 0.5 forward I I I I #
coedge $-1 $192 $192 $119 $194 forward $116 $-1 #
coedge $-1 $193 $193 $315 $316 forward $118 $-1 #
edge $-1 $317 0 $317 6.283185307179586232 $192 $318 forward 7 unknown #
loop $-1 $319 $320 $120 #
cone-surface $-1 4.114974008860845522 32.95913125199843563 17.31774665768422494 0.6293203988644634483 0 -0.7771459551288114609 0.3885729775644057304 0 0.3146601994322317242 1 I I -0.7071067811865474617 0.7071067811865474617 0.5 forward I I I I #
coedge $-1 $197 $197 $124 $199 forward $121 $-1 #
coedge $-1 $198 $198 $320 $321 forward $123 $-1 #
edge $-1 $322 0 $322 6.283185307179586232 $197 $323 forward 7 unknown #
face $-1 $324 $325 $34 $-1 $326 reversed single #
loop $-1 $-1 $327 $125 #
plane-surface $-1 105.2028648709111849 13.77929752532873309 196.4159958765968668 0 1 0 0.6018150307709319025 0 0.7986355043060522352 forward_v I I I I #
coedge $-1 $328 $329 $330 $331 forward $126 $-1 #
coedge $-1 $332 $128 $333 $334 forward $75 $-1 #
coedge $-1 $128 $332 $335 $336 forward $75 $-1 #
coedge $-1 $337 $338 $128 $207 reversed $339 $-1 #
edge $-1 $340 -3.452630653792549964 $341 3.452630653792549964 $206 $342 forward 7 unknown #
loop $-1 $343 $344 $129 #
cone-surface $-1 123.6865292694721461 17.23192817912128305 15.04267824872817982 -0.6018150307709319025 0 -0.7986355043060522352 0.3993177521530261176 0 -0.3009075153854659512 1 I I -0.7071067811865474617 0.7071067811865474617 0.5 forward I I I I #
coedge $-1 $210 $210 $133 $212 forward $130 $-1 #
coedge $-1 $211 $211 $344 $345 forward $132 $-1 #
edge $-1 $346 0 $346 6.283185307179586232 $210 $347 forward 7 unknown #
face $-1 $348 $349 $36 $-1 $350 reversed single #
loop $-1 $-1 $351 $134 #
plane-surface $-1 105.2028648709111849 23.42882051372977159 196.4159958765968668 0 1 0 0.6018150307709319025 0 0.7986355043060522352 forward_v I I I I #
coedge $-1 $352 $353 $354 $355 forward $135 $-1 #
coedge $-1 $356 $137 $357 $358 forward $81 $-1 #
coedge $-1 $137 $356 $359 $360 forward $81 $-1 #
coedge $-1 $361 $362 $137 $220 reversed $363 $-1 #
edge $-1 $364 -3.452630653792549964 $365 3.452630653792549964 $219 $366 forward 7 unknown #
loop $-1 $367 $368 $138 #
cone-surface $-1 123.6865292694721461 26.88145116752232155 15.04267824872817982 -0.6018150307709319025 0 -0.7986355043060522352 0.3993177521530261176 0 -0.3009075153854659512 1 I I -0.7071067811865474617 0.7071067811865474617 0.5 forward I I I I #
coedge $-1 $223 $223 $142 $225 forward $139 $-1 #
coedge $-1 $224 $224 $368 $369 forward $141 $-1 #
edge $-1 $370 0 $370 6.283185307179586232 $223 $371 forward 7 unknown #
face $-1 $372 $373 $38 $-1 $374 reversed single #
loop $-1 $-1 $375 $143 #
plane-surface $-1 105.2028648709111849 33.07834350213081365 196.4159958765968668 0 1 0 0.6018150307709319025 0 0.7986355043060522352 forward_v I I I I #
coedge $-1 $376 $377 $378 $379 forward $144 $-1 #
coedge $-1 $380 $146 $381 $382 forward $87 $-1 #
coedge $-1 $146 $380 $383 $384 forward $87 $-1 #
coedge $-1 $385 $386 $146 $233 reversed $387 $-1 #
edge $-1 $388 -3.452630653792546411 $389 3.452630653792546411 $232 $390 forward 7 unknown #
loop $-1 $391 $392 $147 #
cone-surface $-1 123.6865292694721461 36.53097415592336006 15.04267824872817982 -0.6018150307709319025 0 -0.7986355043060522352 0.3993177521530261176 0 -0.3009075153854659512 1 I I -0.7071067811865474617 0.7071067811865474617 0.5 forward I I I I #
coedge $-1 $236 $236 $151 $238 forward $148 $-1 #
coedge $-1 $237 $237 $392 $393 forward $150 $-1 #
edge $-1 $394 0 $394 6.283185307179586232 $236 $395 forward 7 unknown #
face $-1 $396 $397 $40 $-1 $398 reversed single #
loop $-1 $-1 $399 $152 #
plane-surface $-1 105.2028648709111849 42.72786649053185215 196.4159958765968668 0 1 0 0.6018150307709319025 0 0.7986355043060522352 forward_v I I I I #
coedge $-1 $400 $401 $402 $403 forward $153 $-1 #
coedge $-1 $404 $155 $405 $406 forward $93 $-1 #
coedge $-1 $155 $404 $407 $408 forward $93 $-1 #
coedge $-1 $409 $410 $155 $246 reversed $411 $-1 #
edge $-1 $412 -3.452630653792546411 $413 3.452630653792546411 $245 $414 forward 7 unknown #
loop $-1 $415 $416 $156 #
cone-surface $-1 123.6865292694721461 46.18049714432439856 15.04267824872817982 -0.6018150307709319025 0 -0.7986355043060522352 0.3993177521530261176 0 -0.3009075153854659512 1 I I -0.7071067811865474617 0.7071067811865474617 0.5 forward I I I I #
coedge $-1 $249 $249 $160 $251 forward $157 $-1 #
coedge $-1 $250 $250 $416 $417 forward $159 $-1 #
edge $-1 $418 0 $418 6.283185307179586232 $249 $419 forward 7 unknown #
face $-1 $420 $421 $28 $-1 $422 reversed single #
loop $-1 $-1 $423 $161 #
plane-surface $-1 0 26.87476015967043708 10.74408080274772814 1 0 0 0 0 -1 forward_v I I I I #
coedge $-1 $424 $263 $425 $426 forward $162 $-1 #
coedge $-1 $427 $164 $424 $428 forward $99 $-1 #
coedge $-1 $164 $427 $429 $430 forward $99 $-1 #
coedge $-1 $266 $265 $164 $259 reversed $267 $-1 #
edge $-1 $431 -26.87476015967043708 $432 26.87476015967043708 $258 $433 forward 7 unknown #
coedge $-1 $166 $165 $434 $435 forward $57 $-1 #
coedge $-1 $436 $437 $165 $262 reversed $421 $-1 #
edge $-1 $269 -65.49150059511093502 $438 65.49150059511093502 $261 $439 forward 7 unknown #
coedge $-1 $255 $440 $166 $264 reversed $162 $-1 #
edge $-1 $441 -65.49150059511093502 $268 65.49150059511093502 $263 $442 forward 7 unknown #
coedge $-1 $258 $167 $440 $443 forward $267 $-1 #
coedge $-1 $167 $258 $436 $444 reversed $267 $-1 #
loop $-1 $-1 $265 $420 #
vertex $-1 $168 $445 #
vertex $-1 $168 $446 #
straight-curve $-1 130.98300119022187 26.87476015967043708 21.48816160549545629 0 1 0 I I #
face $-1 $447 $448 $29 $-1 $449 reversed single #
loop $-1 $-1 $450 $169 #
plane-surface $-1 18.48816160549545629 4.831452502052409947 10.74408080274772814 1 0 0 0 0 -1 forward_v I I I I #
coedge $-1 $451 $282 $452 $453 forward $170 $-1 #
coedge $-1 $454 $172 $451 $455 forward $103 $-1 #
coedge $-1 $172 $454 $456 $457 forward $103 $-1 #
coedge $-1 $285 $284 $172 $278 reversed $286 $-1 #
edge $-1 $458 -4.831452502052409947 $459 4.831452502052409947 $277 $460 forward 7 unknown #
coedge $-1 $174 $173 $461 $462 forward $60 $-1 #
coedge $-1 $463 $464 $173 $281 reversed $448 $-1 #
edge $-1 $288 -1.5 $465 1.5 $280 $466 forward 7 unknown #
coedge $-1 $274 $467 $174 $283 reversed $170 $-1 #
edge $-1 $468 -1.5 $287 1.5 $282 $469 forward 7 unknown #
coedge $-1 $277 $175 $467 $470 forward $286 $-1 #
coedge $-1 $175 $277 $463 $471 reversed $286 $-1 #
loop $-1 $-1 $284 $447 #
vertex $-1 $176 $472 #
vertex $-1 $176 $473 #
straight-curve $-1 21.48816160549545629 4.831452502052409947 21.48816160549545629 0 1 0 I I #
face $-1 $474 $475 $30 $-1 $476 reversed single #
loop $-1 $-1 $477 $177 #
plane-surface $-1 -286.0160936847213407 29.11988064184446046 -45.05073551578406921 0.7771459551288114609 0 0.6293203988644634483 0.6293203988644634483 0 -0.7771459551288114609 forward_v I I I I #
coedge $-1 $478 $301 $479 $480 forward $178 $-1 #
coedge $-1 $481 $180 $478 $482 forward $107 $-1 #
coedge $-1 $180 $481 $483 $484 forward $107 $-1 #
coedge $-1 $304 $303 $180 $297 reversed $305 $-1 #
edge $-1 $485 -6.398751016923291957 $486 6.398751016923291957 $296 $487 forward 7 unknown #
coedge $-1 $182 $181 $488 $489 forward $63 $-1 #
coedge $-1 $490 $491 $181 $300 reversed $475 $-1 #
edge $-1 $307 -261.9660023804437401 $492 261.9660023804436833 $299 $493 forward 7 unknown #
coedge $-1 $293 $494 $182 $302 reversed $178 $-1 #
edge $-1 $495 -261.9660023804436833 $306 261.9660023804437401 $301 $496 forward 7 unknown #
coedge $-1 $296 $183 $494 $497 forward $305 $-1 #
coedge $-1 $183 $296 $490 $498 reversed $305 $-1 #
loop $-1 $-1 $303 $474 #
vertex $-1 $184 $499 #
vertex $-1 $184 $500 #
straight-curve $-1 38.7252700242366501 29.11988064184446046 386.4632722638087898 0 1 0 I I #
loop $-1 $-1 $501 $110 #
coedge $-1 $310 $310 $188 $311 reversed $185 $-1 #
edge $-1 $502 0 $502 6.283185307179586232 $310 $503 forward 7 unknown #
vertex $-1 $189 $504 #
ellipse-curve $-1 2.143323013443884761 25.28063003169048883 19.7525328155439972 -0.6293203988644634483 0 0.7771459551288114609 0.7771459551288114609 0 0.6293203988644634483 1 I I #
loop $-1 $-1 $505 $115 #
coedge $-1 $315 $315 $193 $316 reversed $190 $-1 #
edge $-1 $506 0 $506 6.283185307179586232 $315 $507 forward 7 unknown #
vertex $-1 $194 $508 #
ellipse-curve $-1 2.143323013443884761 29.11988064184446401 19.7525328155439972 -0.6293203988644634483 0 0.7771459551288114609 0.7771459551288114609 0 0.6293203988644634483 1 I I #
loop $-1 $-1 $509 $120 #
coedge $-1 $320 $320 $198 $321 reversed $195 $-1 #
edge $-1 $510 0 $510 6.283185307179586232 $320 $511 forward 7 unknown #
vertex $-1 $199 $512 #
ellipse-curve $-1 2.143323013443884761 32.95913125199843563 19.7525328155439972 -0.6293203988644634483 0 0.7771459551288114609 0.7771459551288114609 0 0.6293203988644634483 1 I I #
face $-1 $513 $514 $34 $-1 $515 reversed single #
loop $-1 $-1 $516 $200 #
plane-surface $-1 -104.0124855512349882 17.23192817912128305 354.0710736601216695 0.7986355043060522352 0 -0.6018150307709319025 -0.6018150307709319025 0 -0.7986355043060522352 forward_v I I I I #
coedge $-1 $517 $335 $518 $519 forward $201 $-1 #
coedge $-1 $520 $203 $517 $521 forward $126 $-1 #
coedge $-1 $203 $520 $522 $523 forward $126 $-1 #
coedge $-1 $338 $337 $203 $331 reversed $339 $-1 #
edge $-1 $524 -3.452630653792549964 $525 3.452630653792549964 $330 $526 forward 7 unknown #
coedge $-1 $205 $204 $527 $528 forward $75 $-1 #
coedge $-1 $529 $530 $204 $334 reversed $514 $-1 #
edge $-1 $341 -261.9660023804437969 $531 261.9660023804437401 $333 $532 forward 7 unknown #
coedge $-1 $327 $533 $205 $336 reversed $201 $-1 #
edge $-1 $534 -261.9660023804437401 $340 261.9660023804437969 $335 $535 forward 7 unknown #
coedge $-1 $330 $206 $533 $536 forward $339 $-1 #
coedge $-1 $206 $330 $529 $537 reversed $339 $-1 #
loop $-1 $-1 $337 $513 #
vertex $-1 $207 $538 #
vertex $-1 $207 $539 #
straight-curve $-1 393.2457541848197593 17.23192817912128305 143.368593304145179 0 1 0 I I #
loop $-1 $-1 $540 $129 #
coedge $-1 $344 $344 $211 $345 reversed $208 $-1 #
edge $-1 $541 0 $541 6.283185307179586232 $344 $542 forward 7 unknown #
vertex $-1 $212 $543 #
ellipse-curve $-1 125.3381641266339983 17.23192817912128305 17.23447168962842113 0.6018150307709319025 0 0.7986355043060522352 0.7986355043060522352 0 -0.6018150307709319025 1 I I #
face $-1 $544 $545 $36 $-1 $546 reversed single #
loop $-1 $-1 $547 $213 #
plane-surface $-1 -104.0124855512349882 26.88145116752232155 354.0710736601216695 0.7986355043060522352 0 -0.6018150307709319025 -0.6018150307709319025 0 -0.7986355043060522352 forward_v I I I I #
coedge $-1 $548 $359 $549 $550 forward $214 $-1 #
coedge $-1 $551 $216 $548 $552 forward $135 $-1 #
coedge $-1 $216 $551 $553 $554 forward $135 $-1 #
coedge $-1 $362 $361 $216 $355 reversed $363 $-1 #
edge $-1 $555 -3.452630653792549964 $556 3.452630653792549964 $354 $557 forward 7 unknown #
coedge $-1 $218 $217 $558 $559 forward $81 $-1 #
coedge $-1 $560 $561 $217 $358 reversed $545 $-1 #
edge $-1 $365 -261.9660023804437969 $562 261.9660023804437401 $357 $563 forward 7 unknown #
coedge $-1 $351 $564 $218 $360 reversed $214 $-1 #
edge $-1 $565 -261.9660023804437401 $364 261.9660023804437969 $359 $566 forward 7 unknown #
coedge $-1 $354 $219 $564 $567 forward $363 $-1 #
coedge $-1 $219 $354 $560 $568 reversed $363 $-1 #
loop $-1 $-1 $361 $544 #
vertex $-1 $220 $569 #
vertex $-1 $220 $570 #
straight-curve $-1 393.2457541848197593 26.88145116752232155 143.368593304145179 0 1 0 I I #
loop $-1 $-1 $571 $138 #
coedge $-1 $368 $368 $224 $369 reversed $221 $-1 #
edge $-1 $572 0 $572 6.283185307179586232 $368 $573 forward 7 unknown #
vertex $-1 $225 $574 #
ellipse-curve $-1 125.3381641266339983 26.88145116752232155 17.23447168962842113 0.6018150307709319025 0 0.7986355043060522352 0.7986355043060522352 0 -0.6018150307709319025 1 I I #
face $-1 $575 $576 $38 $-1 $577 reversed single #
loop $-1 $-1 $578 $226 #
plane-surface $-1 -104.0124855512349882 36.53097415592336006 354.0710736601216695 0.7986355043060522352 0 -0.6018150307709319025 -0.6018150307709319025 0 -0.7986355043060522352 forward_v I I I I #
coedge $-1 $579 $383 $580 $581 forward $227 $-1 #
coedge $-1 $582 $229 $579 $583 forward $144 $-1 #
coedge $-1 $229 $582 $584 $585 forward $144 $-1 #
coedge $-1 $386 $385 $229 $379 reversed $387 $-1 #
edge $-1 $586 -3.452630653792546411 $587 3.452630653792546411 $378 $588 forward 7 unknown #
coedge $-1 $231 $230 $589 $590 forward $87 $-1 #
coedge $-1 $591 $592 $230 $382 reversed $576 $-1 #
edge $-1 $389 -261.9660023804437969 $593 261.9660023804437401 $381 $594 forward 7 unknown #
coedge $-1 $375 $595 $231 $384 reversed $227 $-1 #
edge $-1 $596 -261.9660023804437401 $388 261.9660023804437969 $383 $597 forward 7 unknown #
coedge $-1 $378 $232 $595 $598 forward $387 $-1 #
coedge $-1 $232 $378 $591 $599 reversed $387 $-1 #
loop $-1 $-1 $385 $575 #
vertex $-1 $233 $600 #
vertex $-1 $233 $601 #
straight-curve $-1 393.2457541848197593 36.53097415592336006 143.368593304145179 0 1 0 I I #
loop $-1 $-1 $602 $147 #
coedge $-1 $392 $392 $237 $393 reversed $234 $-1 #
edge $-1 $603 0 $603 6.283185307179586232 $392 $604 forward 7 unknown #
vertex $-1 $238 $605 #
ellipse-curve $-1 125.3381641266339983 36.53097415592336006 17.23447168962842113 0.6018150307709319025 0 0.7986355043060522352 0.7986355043060522352 0 -0.6018150307709319025 1 I I #
face $-1 $606 $607 $40 $-1 $608 reversed single #
loop $-1 $-1 $609 $239 #
plane-surface $-1 -104.0124855512349882 46.18049714432439856 354.0710736601216695 0.7986355043060522352 0 -0.6018150307709319025 -0.6018150307709319025 0 -0.7986355043060522352 forward_v I I I I #
coedge $-1 $610 $407 $611 $612 forward $240 $-1 #
coedge $-1 $613 $242 $610 $614 forward $153 $-1 #
coedge $-1 $242 $613 $615 $616 forward $153 $-1 #
coedge $-1 $410 $409 $242 $403 reversed $411 $-1 #
edge $-1 $617 -3.452630653792546411 $618 3.452630653792546411 $402 $619 forward 7 unknown #
coedge $-1 $244 $243 $620 $621 forward $93 $-1 #
coedge $-1 $622 $623 $243 $406 reversed $607 $-1 #
edge $-1 $413 -261.9660023804437969 $624 261.9660023804437401 $405 $625 forward 7 unknown #
coedge $-1 $399 $626 $244 $408 reversed $240 $-1 #
edge $-1 $627 -261.9660023804437401 $412 261.9660023804437969 $407 $628 forward 7 unknown #
coedge $-1 $402 $245 $626 $629 forward $411 $-1 #
coedge $-1 $245 $402 $622 $630 reversed $411 $-1 #
loop $-1 $-1 $409 $606 #
vertex $-1 $246 $631 #
vertex $-1 $246 $632 #
straight-curve $-1 393.2457541848197593 46.18049714432439856 143.368593304145179 0 1 0 I I #
loop $-1 $-1 $633 $156 #
coedge $-1 $416 $416 $250 $417 reversed $247 $-1 #
edge $-1 $634 0 $634 6.283185307179586232 $416 $635 forward 7 unknown #
vertex $-1 $251 $636 #
ellipse-curve $-1 125.3381641266339983 46.18049714432439856 17.23447168962842113 0.6018150307709319025 0 0.7986355043060522352 0.7986355043060522352 0 -0.6018150307709319025 1 I I #
face $-1 $-1 $267 $28 $-1 $637 reversed single #
loop $-1 $-1 $436 $252 #
plane-surface $-1 65.49150059511093502 53.74952031934087415 10.74408080274772814 0 -1 0 0 0 -1 forward_v I I I I #
coedge $-1 $638 $434 $437 $639 forward $253 $-1 #
coedge $-1 $440 $255 $256 $428 reversed $162 $-1 #
coedge $-1 $434 $638 $255 $426 reversed $253 $-1 #
edge $-1 $441 -10.74408080274772814 $640 10.74408080274772814 $425 $641 forward 7 unknown #
coedge $-1 $257 $256 $638 $642 forward $99 $-1 #
edge $-1 $432 -65.49150059511093502 $640 65.49150059511093502 $424 $643 forward 7 unknown #
coedge $-1 $437 $436 $257 $430 reversed $421 $-1 #
edge $-1 $644 -65.49150059511093502 $431 65.49150059511093502 $429 $645 forward 7 unknown #
vertex $-1 $259 $646 #
vertex $-1 $443 $647 #
straight-curve $-1 130.98300119022187 26.87476015967043708 0 0 -1 0 I I #
coedge $-1 $423 $425 $260 $435 reversed $253 $-1 #
edge $-1 $438 -26.87476015967043708 $441 26.87476015967043708 $434 $648 forward 7 unknown #
coedge $-1 $429 $261 $266 $444 forward $421 $-1 #
coedge $-1 $261 $429 $423 $639 reversed $421 $-1 #
vertex $-1 $262 $649 #
straight-curve $-1 65.49150059511093502 53.74952031934087415 21.48816160549545629 -1 0 0 I I #
coedge $-1 $263 $424 $265 $443 reversed $162 $-1 #
vertex $-1 $435 $650 #
straight-curve $-1 65.49150059511093502 0 21.48816160549545629 1 0 0 I I #
edge $-1 $268 -10.74408080274772814 $432 10.74408080274772814 $265 $651 forward 7 unknown #
edge $-1 $269 -10.74408080274772814 $431 10.74408080274772814 $266 $652 forward 7 unknown #
point $-1 130.98300119022187 0 21.48816160549545629 #
point $-1 130.98300119022187 53.74952031934087415 21.48816160549545629 #
face $-1 $-1 $286 $29 $-1 $653 reversed single #
loop $-1 $-1 $463 $271 #
plane-surface $-1 19.98816160549545629 9.662905004104819895 10.74408080274772814 0 -1 0 0 0 -1 forward_v I I I I #
coedge $-1 $654 $461 $464 $655 forward $272 $-1 #
coedge $-1 $467 $274 $275 $455 reversed $170 $-1 #
coedge $-1 $461 $654 $274 $453 reversed $272 $-1 #
edge $-1 $468 -10.74408080274772814 $656 10.74408080274772814 $452 $657 forward 7 unknown #
coedge $-1 $276 $275 $654 $658 forward $103 $-1 #
edge $-1 $459 -1.5 $656 1.5 $451 $659 forward 7 unknown #
coedge $-1 $464 $463 $276 $457 reversed $448 $-1 #
edge $-1 $660 -1.5 $458 1.5 $456 $661 forward 7 unknown #
vertex $-1 $278 $662 #
vertex $-1 $470 $663 #
straight-curve $-1 21.48816160549545629 4.831452502052409947 0 0 -1 0 I I #
coedge $-1 $450 $452 $279 $462 reversed $272 $-1 #
edge $-1 $465 -4.831452502052409947 $468 4.831452502052409947 $461 $664 forward 7 unknown #
coedge $-1 $456 $280 $285 $471 forward $448 $-1 #
coedge $-1 $280 $456 $450 $655 reversed $448 $-1 #
vertex $-1 $281 $665 #
straight-curve $-1 19.98816160549545629 9.662905004104819895 21.48816160549545629 -1 0 0 I I #
coedge $-1 $282 $451 $284 $470 reversed $170 $-1 #
vertex $-1 $462 $666 #
straight-curve $-1 19.98816160549545629 0 21.48816160549545629 1 0 0 I I #
edge $-1 $287 -10.74408080274772814 $459 10.74408080274772814 $284 $667 forward 7 unknown #
edge $-1 $288 -10.74408080274772814 $458 10.74408080274772814 $285 $668 forward 7 unknown #
point $-1 21.48816160549545629 0 21.48816160549545629 #
point $-1 21.48816160549545629 9.662905004104819895 21.48816160549545629 #
face $-1 $-1 $305 $30 $-1 $669 reversed single #
loop $-1 $-1 $490 $290 #
plane-surface $-1 -82.43027455349491106 35.51863165876775241 119.8098135912057529 0 -1 0 0.6293203988644634483 0 -0.7771459551288114609 forward_v I I I I #
coedge $-1 $670 $488 $491 $671 forward $291 $-1 #
coedge $-1 $494 $293 $294 $482 reversed $178 $-1 #
coedge $-1 $488 $670 $293 $480 reversed $291 $-1 #
edge $-1 $495 -130.9830011902218416 $672 130.9830011902218416 $479 $673 forward 7 unknown #
coedge $-1 $295 $294 $670 $674 forward $107 $-1 #
edge $-1 $486 -261.9660023804437401 $672 261.9660023804437969 $478 $675 forward 7 unknown #
coedge $-1 $491 $490 $295 $484 reversed $475 $-1 #
edge $-1 $676 -261.9660023804437969 $485 261.9660023804437401 $483 $677 forward 7 unknown #
vertex $-1 $297 $678 #
vertex $-1 $497 $679 #
straight-curve $-1 203.5858191312264296 29.11988064184446046 182.8774531325823887 0 -1 0 I I #
coedge $-1 $477 $479 $298 $489 reversed $291 $-1 #
edge $-1 $492 -6.398751016923291957 $495 6.398751016923291957 $488 $680 forward 7 unknown #
coedge $-1 $483 $299 $304 $498 forward $475 $-1 #
coedge $-1 $299 $483 $477 $671 reversed $475 $-1 #
vertex $-1 $300 $681 #
straight-curve $-1 -164.8605491069898221 35.51863165876775241 221.6027231568189677 -0.7771459551288114609 0 -0.6293203988644634483 I I #
coedge $-1 $301 $478 $303 $497 reversed $178 $-1 #
vertex $-1 $489 $682 #
straight-curve $-1 -164.8605491069898221 22.7211296249211685 221.6027231568189677 0.7771459551288114609 0 0.6293203988644634483 I I #
edge $-1 $306 -130.98300119022187 $486 130.9830011902218132 $303 $683 forward 7 unknown #
edge $-1 $307 -130.98300119022187 $485 130.9830011902218132 $304 $684 forward 7 unknown #
point $-1 38.7252700242366501 22.7211296249211685 386.4632722638087898 #
point $-1 38.7252700242366501 35.51863165876775241 386.4632722638087898 #
coedge $-1 $501 $501 $-1 $685 reversed $309 $-1 #
vertex $-1 $311 $686 #
ellipse-curve $-1 3.800313809428613965 25.28063003169048883 17.7063196352486294 -0.6293203988644634483 0 0.7771459551288114609 0.7771459551288114609 0 0.6293203988644634483 1 I I #
point $-1 2.920468968572696333 25.28063003169048883 20.38185321440845854 #
coedge $-1 $505 $505 $-1 $687 reversed $314 $-1 #
vertex $-1 $316 $688 #
ellipse-curve $-1 3.800313809428613965 29.11988064184446401 17.7063196352486294 -0.6293203988644634483 0 0.7771459551288114609 0.7771459551288114609 0 0.6293203988644634483 1 I I #
point $-1 2.920468968572696333 29.11988064184446401 20.38185321440845854 #
coedge $-1 $509 $509 $-1 $689 reversed $319 $-1 #
vertex $-1 $321 $690 #
ellipse-curve $-1 3.800313809428613965 32.95913125199843563 17.7063196352486294 -0.6293203988644634483 0 0.7771459551288114609 0.7771459551288114609 0 0.6293203988644634483 1 I I #
point $-1 2.920468968572696333 32.95913125199843563 20.38185321440845854 #
face $-1 $-1 $339 $34 $-1 $691 reversed single #
loop $-1 $-1 $529 $324 #
plane-surface $-1 105.2028648709111849 20.68455883291383302 196.4159958765968668 0 -1 0 -0.6018150307709319025 0 -0.7986355043060522352 forward_v I I I I #
coedge $-1 $692 $527 $530 $693 forward $325 $-1 #
coedge $-1 $533 $327 $328 $521 reversed $201 $-1 #
coedge $-1 $527 $692 $327 $519 reversed $325 $-1 #
edge $-1 $534 -130.98300119022187 $694 130.9830011902218985 $518 $695 forward 7 unknown #
coedge $-1 $329 $328 $692 $696 forward $126 $-1 #
edge $-1 $525 -261.9660023804437969 $694 261.9660023804437969 $517 $697 forward 7 unknown #
coedge $-1 $530 $529 $329 $523 reversed $514 $-1 #
edge $-1 $698 -261.9660023804437969 $524 261.9660023804437969 $522 $699 forward 7 unknown #
vertex $-1 $331 $700 #
vertex $-1 $536 $701 #
straight-curve $-1 235.5906764012949566 17.23192817912128305 -65.84675711800099407 0 -1 0 I I #
coedge $-1 $516 $518 $332 $528 reversed $325 $-1 #
edge $-1 $531 -3.452630653792549964 $534 3.452630653792549964 $527 $702 forward 7 unknown #
coedge $-1 $522 $333 $338 $537 forward $514 $-1 #
coedge $-1 $333 $522 $516 $693 reversed $514 $-1 #
vertex $-1 $334 $703 #
straight-curve $-1 184.0304037626735862 20.68455883291383302 301.0236710876699817 -0.7986355043060522352 0 0.6018150307709319025 I I #
coedge $-1 $335 $517 $337 $536 reversed $201 $-1 #
vertex $-1 $528 $704 #
straight-curve $-1 184.0304037626735862 13.77929752532873309 301.0236710876699817 0.7986355043060522352 0 -0.6018150307709319025 I I #
edge $-1 $340 -130.9830011902218985 $525 130.9830011902218985 $337 $705 forward 7 unknown #
edge $-1 $341 -130.9830011902218985 $524 130.9830011902218985 $338 $706 forward 7 unknown #
point $-1 393.2457541848197593 13.77929752532873309 143.368593304145179 #
point $-1 393.2457541848197593 20.68455883291383302 143.368593304145179 #
coedge $-1 $540 $540 $-1 $707 reversed $343 $-1 #
vertex $-1 $345 $708 #
ellipse-curve $-1 123.9874367848576071 17.23192817912128305 15.44199600088120583 0.6018150307709319025 0 0.7986355043060522352 0.7986355043060522352 0 -0.6018150307709319025 1 I I #
point $-1 126.1367996309400468 17.23192817912128305 16.63265665885748845 #
face $-1 $-1 $363 $36 $-1 $709 reversed single #
loop $-1 $-1 $560 $348 #
plane-surface $-1 105.2028648709111849 30.33408182131487152 196.4159958765968668 0 -1 0 -0.6018150307709319025 0 -0.7986355043060522352 forward_v I I I I #
coedge $-1 $710 $558 $561 $711 forward $349 $-1 #
coedge $-1 $564 $351 $352 $552 reversed $214 $-1 #
coedge $-1 $558 $710 $351 $550 reversed $349 $-1 #
edge $-1 $565 -130.98300119022187 $712 130.9830011902218985 $549 $713 forward 7 unknown #
coedge $-1 $353 $352 $710 $714 forward $135 $-1 #
edge $-1 $556 -261.9660023804437969 $712 261.9660023804437969 $548 $715 forward 7 unknown #
coedge $-1 $561 $560 $353 $554 reversed $545 $-1 #
edge $-1 $716 -261.9660023804437969 $555 261.9660023804437969 $553 $717 forward 7 unknown #
vertex $-1 $355 $718 #
vertex $-1 $567 $719 #
straight-curve $-1 235.5906764012949566 26.88145116752232155 -65.84675711800099407 0 -1 0 I I #
coedge $-1 $547 $549 $356 $559 reversed $349 $-1 #
edge $-1 $562 -3.452630653792549964 $565 3.452630653792549964 $558 $720 forward 7 unknown #
coedge $-1 $553 $357 $362 $568 forward $545 $-1 #
coedge $-1 $357 $553 $547 $711 reversed $545 $-1 #
vertex $-1 $358 $721 #
straight-curve $-1 184.0304037626735862 30.33408182131487152 301.0236710876699817 -0.7986355043060522352 0 0.6018150307709319025 I I #
coedge $-1 $359 $548 $361 $567 reversed $214 $-1 #
vertex $-1 $559 $722 #
straight-curve $-1 184.0304037626735862 23.42882051372977159 301.0236710876699817 0.7986355043060522352 0 -0.6018150307709319025 I I #
edge $-1 $364 -130.9830011902218985 $556 130.9830011902218985 $361 $723 forward 7 unknown #
edge $-1 $365 -130.9830011902218985 $555 130.9830011902218985 $362 $724 forward 7 unknown #
point $-1 393.2457541848197593 23.42882051372977159 143.368593304145179 #
point $-1 393.2457541848197593 30.33408182131487152 143.368593304145179 #
coedge $-1 $571 $571 $-1 $725 reversed $367 $-1 #
vertex $-1 $369 $726 #
ellipse-curve $-1 123.9874367848576071 26.88145116752232155 15.44199600088120583 0.6018150307709319025 0 0.7986355043060522352 0.7986355043060522352 0 -0.6018150307709319025 1 I I #
point $-1 126.1367996309400468 26.88145116752232155 16.63265665885748845 #
face $-1 $-1 $387 $38 $-1 $727 reversed single #
loop $-1 $-1 $591 $372 #
plane-surface $-1 105.2028648709111849 39.98360480971590647 196.4159958765968668 0 -1 0 -0.6018150307709319025 0 -0.7986355043060522352 forward_v I I I I #
coedge $-1 $728 $589 $592 $729 forward $373 $-1 #
coedge $-1 $595 $375 $376 $583 reversed $227 $-1 #
coedge $-1 $589 $728 $375 $581 reversed $373 $-1 #
edge $-1 $596 -130.98300119022187 $730 130.9830011902218985 $580 $731 forward 7 unknown #
coedge $-1 $377 $376 $728 $732 forward $144 $-1 #
edge $-1 $587 -261.9660023804437969 $730 261.9660023804437969 $579 $733 forward 7 unknown #
coedge $-1 $592 $591 $377 $585 reversed $576 $-1 #
edge $-1 $734 -261.9660023804437969 $586 261.9660023804437969 $584 $735 forward 7 unknown #
vertex $-1 $379 $736 #
vertex $-1 $598 $737 #
straight-curve $-1 235.5906764012949566 36.53097415592336006 -65.84675711800099407 0 -1 0 I I #
coedge $-1 $578 $580 $380 $590 reversed $373 $-1 #
edge $-1 $593 -3.452630653792546411 $596 3.452630653792546411 $589 $738 forward 7 unknown #
coedge $-1 $584 $381 $386 $599 forward $576 $-1 #
coedge $-1 $381 $584 $578 $729 reversed $576 $-1 #
vertex $-1 $382 $739 #
straight-curve $-1 184.0304037626735862 39.98360480971590647 301.0236710876699817 -0.7986355043060522352 0 0.6018150307709319025 I I #
coedge $-1 $383 $579 $385 $598 reversed $227 $-1 #
vertex $-1 $590 $740 #
straight-curve $-1 184.0304037626735862 33.07834350213081365 301.0236710876699817 0.7986355043060522352 0 -0.6018150307709319025 I I #
edge $-1 $388 -130.9830011902218985 $587 130.9830011902218985 $385 $741 forward 7 unknown #
edge $-1 $389 -130.9830011902218985 $586 130.9830011902218985 $386 $742 forward 7 unknown #
point $-1 393.2457541848197593 33.07834350213081365 143.368593304145179 #
point $-1 393.2457541848197593 39.98360480971590647 143.368593304145179 #
coedge $-1 $602 $602 $-1 $743 reversed $391 $-1 #
vertex $-1 $393 $744 #
ellipse-curve $-1 123.9874367848576071 36.53097415592336006 15.44199600088120583 0.6018150307709319025 0 0.7986355043060522352 0.7986355043060522352 0 -0.6018150307709319025 1 I I #
point $-1 126.1367996309400468 36.53097415592336006 16.63265665885748845 #
face $-1 $-1 $411 $40 $-1 $745 reversed single #
loop $-1 $-1 $622 $396 #
plane-surface $-1 105.2028648709111849 49.63312779811694497 196.4159958765968668 0 -1 0 -0.6018150307709319025 0 -0.7986355043060522352 forward_v I I I I #
coedge $-1 $746 $620 $623 $747 forward $397 $-1 #
coedge $-1 $626 $399 $400 $614 reversed $240 $-1 #
coedge $-1 $620 $746 $399 $612 reversed $397 $-1 #
edge $-1 $627 -130.98300119022187 $748 130.9830011902218985 $611 $749 forward 7 unknown #
coedge $-1 $401 $400 $746 $750 forward $153 $-1 #
edge $-1 $618 -261.9660023804437969 $748 261.9660023804437969 $610 $751 forward 7 unknown #
coedge $-1 $623 $622 $401 $616 reversed $607 $-1 #
edge $-1 $752 -261.9660023804437969 $617 261.9660023804437969 $615 $753 forward 7 unknown #
vertex $-1 $403 $754 #
vertex $-1 $629 $755 #
straight-curve $-1 235.5906764012949566 46.18049714432439856 -65.84675711800099407 0 -1 0 I I #
coedge $-1 $609 $611 $404 $621 reversed $397 $-1 #
edge $-1 $624 -3.452630653792546411 $627 3.452630653792546411 $620 $756 forward 7 unknown #
coedge $-1 $615 $405 $410 $630 forward $607 $-1 #
coedge $-1 $405 $615 $609 $747 reversed $607 $-1 #
vertex $-1 $406 $757 #
straight-curve $-1 184.0304037626735862 49.63312779811694497 301.0236710876699817 -0.7986355043060522352 0 0.6018150307709319025 I I #
coedge $-1 $407 $610 $409 $629 reversed $240 $-1 #
vertex $-1 $621 $758 #
straight-curve $-1 184.0304037626735862 42.72786649053185215 301.0236710876699817 0.7986355043060522352 0 -0.6018150307709319025 I I #
edge $-1 $412 -130.9830011902218985 $618 130.9830011902218985 $409 $759 forward 7 unknown #
edge $-1 $413 -130.9830011902218985 $617 130.9830011902218985 $410 $760 forward 7 unknown #
point $-1 393.2457541848197593 42.72786649053185215 143.368593304145179 #
point $-1 393.2457541848197593 49.63312779811694497 143.368593304145179 #
coedge $-1 $633 $633 $-1 $761 reversed $415 $-1 #
vertex $-1 $417 $762 #
ellipse-curve $-1 123.9874367848576071 46.18049714432439856 15.44199600088120583 0.6018150307709319025 0 0.7986355043060522352 0.7986355043060522352 0 -0.6018150307709319025 1 I I #
point $-1 126.1367996309400468 46.18049714432439856 16.63265665885748845 #
plane-surface $-1 130.98300119022187 26.87476015967043708 10.74408080274772814 -1 0 0 0 0 1 forward_v I I I I #
coedge $-1 $425 $423 $427 $642 reversed $253 $-1 #
edge $-1 $438 -10.74408080274772814 $644 10.74408080274772814 $437 $763 forward 7 unknown #
vertex $-1 $642 $764 #
straight-curve $-1 0 0 10.74408080274772814 0 0 -1 I I #
edge $-1 $640 -26.87476015967043708 $644 26.87476015967043708 $638 $765 forward 7 unknown #
straight-curve $-1 65.49150059511093502 0 0 -1 0 0 I I #
vertex $-1 $430 $766 #
straight-curve $-1 65.49150059511093502 53.74952031934087415 0 1 0 0 I I #
point $-1 130.98300119022187 53.74952031934087415 0 #
point $-1 130.98300119022187 0 0 #
straight-curve $-1 0 26.87476015967043708 21.48816160549545629 0 -1 0 I I #
point $-1 0 53.74952031934087415 21.48816160549545629 #
point $-1 0 0 21.48816160549545629 #
straight-curve $-1 130.98300119022187 0 10.74408080274772814 0 0 -1 I I #
straight-curve $-1 130.98300119022187 53.74952031934087415 10.74408080274772814 0 0 -1 I I #
plane-surface $-1 21.48816160549545629 4.831452502052409947 10.74408080274772814 -1 0 0 0 0 1 forward_v I I I I #
coedge $-1 $452 $450 $454 $658 reversed $272 $-1 #
edge $-1 $465 -10.74408080274772814 $660 10.74408080274772814 $464 $767 forward 7 unknown #
vertex $-1 $658 $768 #
straight-curve $-1 18.48816160549545629 0 10.74408080274772814 0 0 -1 I I #
edge $-1 $656 -4.831452502052409947 $660 4.831452502052409947 $654 $769 forward 7 unknown #
straight-curve $-1 19.98816160549545629 0 0 -1 0 0 I I #
vertex $-1 $457 $770 #
straight-curve $-1 19.98816160549545629 9.662905004104819895 0 1 0 0 I I #
point $-1 21.48816160549545629 9.662905004104819895 0 #
point $-1 21.48816160549545629 0 0 #
straight-curve $-1 18.48816160549545629 4.831452502052409947 21.48816160549545629 0 -1 0 I I #
point $-1 18.48816160549545629 9.662905004104819895 21.48816160549545629 #
point $-1 18.48816160549545629 0 21.48816160549545629 #
straight-curve $-1 21.48816160549545629 0 10.74408080274772814 0 0 -1 I I #
straight-curve $-1 21.48816160549545629 9.662905004104819895 10.74408080274772814 0 0 -1 I I #
plane-surface $-1 121.155544577731547 29.11988064184446046 284.6703626981955608 -0.7771459551288114609 0 -0.6293203988644634483 -0.6293203988644634483 0 0.7771459551288114609 forward_v I I I I #
coedge $-1 $479 $477 $481 $674 reversed $291 $-1 #
edge $-1 $492 -130.9830011902218416 $676 130.9830011902218416 $491 $771 forward 7 unknown #
vertex $-1 $674 $772 #
straight-curve $-1 -286.0160936847213407 22.7211296249211685 -45.05073551578406921 0.6293203988644634483 0 -0.7771459551288114609 I I #
edge $-1 $672 -6.398751016923291957 $676 6.398751016923291957 $670 $773 forward 7 unknown #
straight-curve $-1 -1.421085471520200372e-14 22.7211296249211685 18.01690402559255233 -0.7771459551288114609 0 -0.6293203988644634483 I I #
vertex $-1 $484 $774 #
straight-curve $-1 -1.421085471520200372e-14 35.51863165876775241 18.01690402559255233 0.7771459551288114609 0 0.6293203988644634483 I I #
point $-1 203.5858191312264296 35.51863165876775241 182.8774531325823887 #
point $-1 203.5858191312264296 22.7211296249211685 182.8774531325823887 #
straight-curve $-1 -368.4463682382162233 29.11988064184446046 56.74217404982913138 0 -1 0 I I #
point $-1 -368.4463682382162233 35.51863165876775241 56.74217404982913138 #
point $-1 -368.4463682382162233 22.7211296249211685 56.74217404982913138 #
straight-curve $-1 121.155544577731547 22.7211296249211685 284.6703626981955608 0.6293203988644634483 0 -0.7771459551288114609 I I #
straight-curve $-1 121.155544577731547 35.51863165876775241 284.6703626981955608 0.6293203988644634483 0 -0.7771459551288114609 I I #
edge $-1 $775 1 $775 0 $501 $-1 forward 7 unknown #
point $-1 4.577459764557425537 25.28063003169048883 18.33564003411309429 #
edge $-1 $776 1 $776 0 $505 $-1 forward 7 unknown #
point $-1 4.577459764557425537 29.11988064184446401 18.33564003411309429 #
edge $-1 $777 1 $777 0 $509 $-1 forward 7 unknown #
point $-1 4.577459764557425537 32.95913125199843563 18.33564003411309429 #
plane-surface $-1 314.4182152930573579 17.23192817912128305 38.76091809307209246 -0.7986355043060522352 0 0.6018150307709319025 0.6018150307709319025 0 0.7986355043060522352 forward_v I I I I #
coedge $-1 $518 $516 $520 $696 reversed $325 $-1 #
edge $-1 $531 -130.98300119022187 $698 130.9830011902218985 $530 $778 forward 7 unknown #
vertex $-1 $696 $779 #
straight-curve $-1 -104.0124855512349882 13.77929752532873309 354.0710736601216695 -0.6018150307709319025 0 -0.7986355043060522352 I I #
edge $-1 $694 -3.452630653792549964 $698 3.452630653792549964 $692 $780 forward 7 unknown #
straight-curve $-1 26.37532597914879773 13.77929752532873309 91.80832066552378024 -0.7986355043060522352 0 0.6018150307709319025 I I #
vertex $-1 $523 $781 #
straight-curve $-1 26.37532597914879773 20.68455883291383302 91.80832066552378024 0.7986355043060522352 0 -0.6018150307709319025 I I #
point $-1 235.5906764012949566 20.68455883291383302 -65.84675711800099407 #
point $-1 235.5906764012949566 13.77929752532873309 -65.84675711800099407 #
straight-curve $-1 -25.18494665947258682 17.23192817912128305 458.6787488711947276 0 -1 0 I I #
point $-1 -25.18494665947258682 20.68455883291383302 458.6787488711947276 #
point $-1 -25.18494665947258682 13.77929752532873309 458.6787488711947276 #
straight-curve $-1 314.4182152930573579 13.77929752532873309 38.76091809307209246 -0.6018150307709319025 0 -0.7986355043060522352 I I #
straight-curve $-1 314.4182152930573579 20.68455883291383302 38.76091809307209246 -0.6018150307709319025 0 -0.7986355043060522352 I I #
edge $-1 $782 1 $782 0 $540 $-1 forward 7 unknown #
point $-1 124.7860722891636698 17.23192817912128305 14.84018097011027493 #
plane-surface $-1 314.4182152930573579 26.88145116752232155 38.76091809307209246 -0.7986355043060522352 0 0.6018150307709319025 0.6018150307709319025 0 0.7986355043060522352 forward_v I I I I #
coedge $-1 $549 $547 $551 $714 reversed $349 $-1 #
edge $-1 $562 -130.98300119022187 $716 130.9830011902218985 $561 $783 forward 7 unknown #
vertex $-1 $714 $784 #
straight-curve $-1 -104.0124855512349882 23.42882051372977159 354.0710736601216695 -0.6018150307709319025 0 -0.7986355043060522352 I I #
edge $-1 $712 -3.452630653792549964 $716 3.452630653792549964 $710 $785 forward 7 unknown #
straight-curve $-1 26.37532597914879773 23.42882051372977159 91.80832066552378024 -0.7986355043060522352 0 0.6018150307709319025 I I #
vertex $-1 $554 $786 #
straight-curve $-1 26.37532597914879773 30.33408182131487152 91.80832066552378024 0.7986355043060522352 0 -0.6018150307709319025 I I #
point $-1 235.5906764012949566 30.33408182131487152 -65.84675711800099407 #
point $-1 235.5906764012949566 23.42882051372977159 -65.84675711800099407 #
straight-curve $-1 -25.18494665947258682 26.88145116752232155 458.6787488711947276 0 -1 0 I I #
point $-1 -25.18494665947258682 30.33408182131487152 458.6787488711947276 #
point $-1 -25.18494665947258682 23.42882051372977159 458.6787488711947276 #
straight-curve $-1 314.4182152930573579 23.42882051372977159 38.76091809307209246 -0.6018150307709319025 0 -0.7986355043060522352 I I #
straight-curve $-1 314.4182152930573579 30.33408182131487152 38.76091809307209246 -0.6018150307709319025 0 -0.7986355043060522352 I I #
edge $-1 $787 1 $787 0 $571 $-1 forward 7 unknown #
point $-1 124.7860722891636698 26.88145116752232155 14.84018097011027493 #
plane-surface $-1 314.4182152930573579 36.53097415592336006 38.76091809307209246 -0.7986355043060522352 0 0.6018150307709319025 0.6018150307709319025 0 0.7986355043060522352 forward_v I I I I #
coedge $-1 $580 $578 $582 $732 reversed $373 $-1 #
edge $-1 $593 -130.98300119022187 $734 130.9830011902218985 $592 $788 forward 7 unknown #
vertex $-1 $732 $789 #
straight-curve $-1 -104.0124855512349882 33.07834350213081365 354.0710736601216695 -0.6018150307709319025 0 -0.7986355043060522352 I I #
edge $-1 $730 -3.452630653792546411 $734 3.452630653792546411 $728 $790 forward 7 unknown #
straight-curve $-1 26.37532597914879773 33.07834350213081365 91.80832066552378024 -0.7986355043060522352 0 0.6018150307709319025 I I #
vertex $-1 $585 $791 #
straight-curve $-1 26.37532597914879773 39.98360480971590647 91.80832066552378024 0.7986355043060522352 0 -0.6018150307709319025 I I #
point $-1 235.5906764012949566 39.98360480971590647 -65.84675711800099407 #
point $-1 235.5906764012949566 33.07834350213081365 -65.84675711800099407 #
straight-curve $-1 -25.18494665947258682 36.53097415592336006 458.6787488711947276 0 -1 0 I I #
point $-1 -25.18494665947258682 39.98360480971590647 458.6787488711947276 #
point $-1 -25.18494665947258682 33.07834350213081365 458.6787488711947276 #
straight-curve $-1 314.4182152930573579 33.07834350213081365 38.76091809307209246 -0.6018150307709319025 0 -0.7986355043060522352 I I #
straight-curve $-1 314.4182152930573579 39.98360480971590647 38.76091809307209246 -0.6018150307709319025 0 -0.7986355043060522352 I I #
edge $-1 $792 1 $792 0 $602 $-1 forward 7 unknown #
point $-1 124.7860722891636698 36.53097415592336006 14.84018097011027493 #
plane-surface $-1 314.4182152930573579 46.18049714432439856 38.76091809307209246 -0.7986355043060522352 0 0.6018150307709319025 0.6018150307709319025 0 0.7986355043060522352 forward_v I I I I #
coedge $-1 $611 $609 $613 $750 reversed $397 $-1 #
edge $-1 $624 -130.98300119022187 $752 130.9830011902218985 $623 $793 forward 7 unknown #
vertex $-1 $750 $794 #
straight-curve $-1 -104.0124855512349882 42.72786649053185215 354.0710736601216695 -0.6018150307709319025 0 -0.7986355043060522352 I I #
edge $-1 $748 -3.452630653792546411 $752 3.452630653792546411 $746 $795 forward 7 unknown #
straight-curve $-1 26.37532597914879773 42.72786649053185215 91.80832066552378024 -0.7986355043060522352 0 0.6018150307709319025 I I #
vertex $-1 $616 $796 #
straight-curve $-1 26.37532597914879773 49.63312779811694497 91.80832066552378024 0.7986355043060522352 0 -0.6018150307709319025 I I #
point $-1 235.5906764012949566 49.63312779811694497 -65.84675711800099407 #
point $-1 235.5906764012949566 42.72786649053185215 -65.84675711800099407 #
straight-curve $-1 -25.18494665947258682 46.18049714432439856 458.6787488711947276 0 -1 0 I I #
point $-1 -25.18494665947258682 49.63312779811694497 458.6787488711947276 #
point $-1 -25.18494665947258682 42.72786649053185215 458.6787488711947276 #
straight-curve $-1 314.4182152930573579 42.72786649053185215 38.76091809307209246 -0.6018150307709319025 0 -0.7986355043060522352 I I #
straight-curve $-1 314.4182152930573579 49.63312779811694497 38.76091809307209246 -0.6018150307709319025 0 -0.7986355043060522352 I I #
edge $-1 $797 1 $797 0 $633 $-1 forward 7 unknown #
point $-1 124.7860722891636698 46.18049714432439856 14.84018097011027493 #
straight-curve $-1 0 53.74952031934087415 10.74408080274772814 0 0 -1 I I #
point $-1 0 0 0 #
straight-curve $-1 0 26.87476015967043708 0 0 1 0 I I #
point $-1 0 53.74952031934087415 0 #
straight-curve $-1 18.48816160549545629 9.662905004104819895 10.74408080274772814 0 0 -1 I I #
point $-1 18.48816160549545629 0 0 #
straight-curve $-1 18.48816160549545629 4.831452502052409947 0 0 1 0 I I #
point $-1 18.48816160549545629 9.662905004104819895 0 #
straight-curve $-1 -286.0160936847213407 35.51863165876775241 -45.05073551578406921 0.6293203988644634483 0 -0.7771459551288114609 I I #
point $-1 -203.585819131226458 22.7211296249211685 -146.8436450813973124 #
straight-curve $-1 -203.585819131226458 29.11988064184446046 -146.8436450813973124 0 1 0 I I #
point $-1 -203.585819131226458 35.51863165876775241 -146.8436450813973124 #
vertex $-1 $685 $798 #
vertex $-1 $687 $799 #
vertex $-1 $689 $800 #
straight-curve $-1 -104.0124855512349882 20.68455883291383302 354.0710736601216695 -0.6018150307709319025 0 -0.7986355043060522352 I I #
point $-1 -182.8400244429973895 13.77929752532873309 249.4633984490485545 #
straight-curve $-1 -182.8400244429973895 17.23192817912128305 249.4633984490485545 0 1 0 I I #
point $-1 -182.8400244429973895 20.68455883291383302 249.4633984490485545 #
vertex $-1 $707 $801 #
straight-curve $-1 -104.0124855512349882 30.33408182131487152 354.0710736601216695 -0.6018150307709319025 0 -0.7986355043060522352 I I #
point $-1 -182.8400244429973895 23.42882051372977159 249.4633984490485545 #
straight-curve $-1 -182.8400244429973895 26.88145116752232155 249.4633984490485545 0 1 0 I I #
point $-1 -182.8400244429973895 30.33408182131487152 249.4633984490485545 #
vertex $-1 $725 $802 #
straight-curve $-1 -104.0124855512349882 39.98360480971590647 354.0710736601216695 -0.6018150307709319025 0 -0.7986355043060522352 I I #
point $-1 -182.8400244429973895 33.07834350213081365 249.4633984490485545 #
straight-curve $-1 -182.8400244429973895 36.53097415592336006 249.4633984490485545 0 1 0 I I #
point $-1 -182.8400244429973895 39.98360480971590647 249.4633984490485545 #
vertex $-1 $743 $803 #
straight-curve $-1 -104.0124855512349882 49.63312779811694497 354.0710736601216695 -0.6018150307709319025 0 -0.7986355043060522352 I I #
point $-1 -182.8400244429973895 42.72786649053185215 249.4633984490485545 #
straight-curve $-1 -182.8400244429973895 46.18049714432439856 249.4633984490485545 0 1 0 I I #
point $-1 -182.8400244429973895 49.63312779811694497 249.4633984490485545 #
vertex $-1 $761 $804 #
point $-1 4.42963420829307708 25.28063003169048883 16.92917368011982049 #
point $-1 4.42963420829307708 29.11988064184446401 16.92917368011982049 #
point $-1 4.42963420829307708 32.95913125199843563 16.92917368011982049 #
point $-1 123.3856217540866851 17.23192817912128305 14.64336049657515382 #
point $-1 123.3856217540866851 26.88145116752232155 14.64336049657515382 #
point $-1 123.3856217540866851 36.53097415592336006 14.64336049657515382 #
point $-1 123.3856217540866851 46.18049714432439856 14.64336049657515382 #
End-of-ACIS-data 