300 0 13 0           
7 Unknown 11 ACIS 3.0 NT 24 Fri Oct 30 14:12:10 1998 
-1 9.9999999999999995e-007 1e-010 
body $13 $14 $-1 $15 #
body $16 $17 $-1 $18 #
body $19 $20 $-1 $21 #
body $22 $23 $-1 $24 #
body $25 $26 $-1 $27 #
body $28 $29 $-1 $30 #
body $31 $32 $-1 $33 #
body $34 $35 $-1 $36 #
body $37 $38 $-1 $39 #
body $40 $41 $-1 $42 #
body $43 $44 $-1 $45 #
body $46 $47 $-1 $48 #
body $49 $50 $-1 $51 #
display_attribute-st-attrib $-1 $52 $-1 $0 1 #
lump $-1 $-1 $53 $0 #
transform $-1 1 0 0 0 1 0 0 0 1 45.322428052613908 21.96312663844251 10.129165841694862 1 rotate no_reflect no_shear #
display_attribute-st-attrib $-1 $54 $-1 $1 1 #
lump $-1 $-1 $55 $1 #
transform $-1 1 0 0 0 1 0 0 0 1 3.3853609134127525 4.2114602881196062 10.129165841694862 1 rotate no_reflect no_shear #
display_attribute-st-attrib $-1 $56 $-1 $2 1 #
lump $-1 $-1 $57 $2 #
transform $-1 0.80901698891910034 0 -0.5877852598018023 0 1 0 0.5877852598018023 0 0.80901698891910034 70.591337853479601 13.681397132955155 137.73597136633057 1 rotate no_reflect no_shear #
display_attribute-st-attrib $-1 $58 $-1 $3 1 #
lump $-1 $-1 $59 $3 #
transform $-1 0.80901698891910034 0 -0.5877852598018023 0 -1 0 -0.5877852598018023 0 -0.80901698891910034 83.426824792796054 11.764597951171506 14.408993722911099 1 rotate no_reflect no_shear #
display_attribute-st-attrib $-1 $60 $-1 $4 1 #
lump $-1 $-1 $61 $4 #
transform $-1 0.80901698891910034 0 -0.5877852598018023 0 -1 0 -0.5877852598018023 0 -0.80901698891910034 83.426824792796054 13.681397132955157 14.408993722911099 1 rotate no_reflect no_shear #
display_attribute-st-attrib $-1 $62 $-1 $5 1 #
lump $-1 $-1 $63 $5 #
transform $-1 0.80901698891910034 0 -0.5877852598018023 0 -1 0 -0.5877852598018023 0 -0.80901698891910034 83.426824792796054 15.598196314738807 14.408993722911099 1 rotate no_reflect no_shear #
display_attribute-st-attrib $-1 $64 $-1 $6 1 #
lump $-1 $-1 $65 $6 #
transform $-1 0.80901698891910034 0 -0.5877852598018023 0 1 0 0.5877852598018023 0 0.80901698891910034 70.591337853479601 38.667776720169073 137.73597136633057 1 rotate no_reflect no_shear #
display_attribute-st-attrib $-1 $66 $-1 $7 1 #
lump $-1 $-1 $67 $7 #
transform $-1 0.80901698891910034 0 -0.5877852598018023 0 -1 0 -0.5877852598018023 0 -0.80901698891910034 83.426824792796054 36.750977538385428 14.408993722911099 1 rotate no_reflect no_shear #
display_attribute-st-attrib $-1 $68 $-1 $8 1 #
lump $-1 $-1 $69 $8 #
transform $-1 0.80901698891910034 0 -0.5877852598018023 0 -1 0 -0.5877852598018023 0 -0.80901698891910034 83.426824792796054 38.66777672016908 14.408993722911099 1 rotate no_reflect no_shear #
display_attribute-st-attrib $-1 $70 $-1 $9 1 #
lump $-1 $-1 $71 $9 #
transform $-1 0.80901698891910034 0 -0.5877852598018023 0 -1 0 -0.5877852598018023 0 -0.80901698891910034 83.426824792796054 40.584575901952732 14.408993722911099 1 rotate no_reflect no_shear #
display_attribute-st-attrib $-1 $72 $-1 $10 1 #
lump $-1 $-1 $73 $10 #
transform $-1 0.52991925155115449 0 0.84804810408105047 0 1 0 -0.84804810408105047 0 0.52991925155115449 -76.871198364738092 12.49699252557043 63.139045557721815 1 rotate no_reflect no_shear #
display_attribute-st-attrib $-1 $74 $-1 $11 1 #
lump $-1 $-1 $75 $11 #
transform $-1 0.52991925155115449 0 0.84804810408105047 0 -1 0 0.84804810408105047 0 -0.52991925155115449 2.6702672976932185 10.750961690142766 17.019062403994614 1 rotate no_reflect no_shear #
display_attribute-st-attrib $-1 $76 $-1 $12 1 #
lump $-1 $-1 $77 $12 #
transform $-1 0.52991925155115449 0 0.84804810408105047 0 -1 0 0.84804810408105047 0 -0.52991925155115449 2.6702672976932185 14.243023360998096 17.019062403994614 1 rotate no_reflect no_shear #
id_attribute-st-attrib $-1 $-1 $13 $0 785 #
shell $-1 $-1 $-1 $78 $-1 $14 #
id_attribute-st-attrib $-1 $-1 $16 $1 790 #
shell $-1 $-1 $-1 $79 $-1 $17 #
id_attribute-st-attrib $-1 $-1 $19 $2 808 #
shell $-1 $-1 $-1 $80 $-1 $20 #
id_attribute-st-attrib $-1 $-1 $22 $3 816 #
shell $-1 $-1 $-1 $81 $-1 $23 #
id_attribute-st-attrib $-1 $-1 $25 $4 825 #
shell $-1 $-1 $-1 $82 $-1 $26 #
id_attribute-st-attrib $-1 $-1 $28 $5 835 #
shell $-1 $-1 $-1 $83 $-1 $29 #
id_attribute-st-attrib $-1 $-1 $31 $6 846 #
shell $-1 $-1 $-1 $84 $-1 $32 #
id_attribute-st-attrib $-1 $-1 $34 $7 858 #
shell $-1 $-1 $-1 $85 $-1 $35 #
id_attribute-st-attrib $-1 $-1 $37 $8 871 #
shell $-1 $-1 $-1 $86 $-1 $38 #
id_attribute-st-attrib $-1 $-1 $40 $9 885 #
shell $-1 $-1 $-1 $87 $-1 $41 #
id_attribute-st-attrib $-1 $-1 $43 $10 905 #
shell $-1 $-1 $-1 $88 $-1 $44 #
id_attribute-st-attrib $-1 $-1 $46 $11 921 #
shell $-1 $-1 $-1 $89 $-1 $47 #
id_attribute-st-attrib $-1 $-1 $49 $12 938 #
shell $-1 $-1 $-1 $90 $-1 $50 #
face $-1 $91 $92 $53 $-1 $93 forward single #
face $-1 $94 $95 $55 $-1 $96 forward single #
face $-1 $97 $98 $57 $-1 $99 forward single #
face $-1 $100 $101 $59 $-1 $102 forward single #
face $-1 $103 $104 $61 $-1 $105 forward single #
face $-1 $106 $107 $63 $-1 $108 forward single #
face $-1 $109 $110 $65 $-1 $111 forward single #
face $-1 $112 $113 $67 $-1 $114 forward single #
face $-1 $115 $116 $69 $-1 $117 forward single #
face $-1 $118 $119 $71 $-1 $120 forward single #
face $-1 $121 $122 $73 $-1 $123 forward single #
face $-1 $124 $125 $75 $-1 $126 forward single #
face $-1 $127 $128 $77 $-1 $129 forward single #
face $-1 $130 $131 $53 $-1 $132 reversed single #
loop $-1 $-1 $133 $78 #
plane-surface $-1 0 0 10.129165841694862 0 0 1 1 0 0 forward_v I I I I #
face $-1 $134 $135 $55 $-1 $136 reversed single #
loop $-1 $-1 $137 $79 #
plane-surface $-1 0 0 10.129165841694862 0 0 1 1 0 0 forward_v I I I I #
face $-1 $138 $139 $57 $-1 $140 reversed single #
loop $-1 $-1 $141 $80 #
plane-surface $-1 0 0 90.644856105227817 0 0 1 1 0 0 forward_v I I I I #
face $-1 $142 $143 $59 $-1 $144 forward single #
loop $-1 $145 $146 $81 #
cone-surface $-1 0 0 -0.9171269875179302 0 0 1 0.5 0 0 1 I I 0 1 forward I I I I #
face $-1 $147 $148 $61 $-1 $149 forward single #
loop $-1 $150 $151 $82 #
cone-surface $-1 0 0 -0.9171269875179302 0 0 1 0.5 0 0 1 I I 0 1 forward I I I I #
face $-1 $152 $153 $63 $-1 $154 forward single #
loop $-1 $155 $156 $83 #
cone-surface $-1 0 0 -0.9171269875179302 0 0 1 0.5 0 0 1 I I 0 1 forward I I I I #
face $-1 $157 $158 $65 $-1 $159 reversed single #
loop $-1 $-1 $160 $84 #
plane-surface $-1 0 0 90.644856105227817 0 0 1 1 0 0 forward_v I I I I #
face $-1 $161 $162 $67 $-1 $163 forward single #
loop $-1 $164 $165 $85 #
cone-surface $-1 0 0 -0.9171269875179302 0 0 1 0.5 0 0 1 I I 0 1 forward I I I I #
face $-1 $166 $167 $69 $-1 $168 forward single #
loop $-1 $169 $170 $86 #
cone-surface $-1 0 0 -0.9171269875179302 0 0 1 0.5 0 0 1 I I 0 1 forward I I I I #
face $-1 $171 $172 $71 $-1 $173 forward single #
loop $-1 $174 $175 $87 #
cone-surface $-1 0 0 -0.9171269875179302 0 0 1 0.5 0 0 1 I I 0 1 forward I I I I #
face $-1 $176 $177 $73 $-1 $178 reversed single #
loop $-1 $-1 $179 $88 #
plane-surface $-1 0 0 90.644856105227817 0 0 1 1 0 0 forward_v I I I I #
face $-1 $180 $181 $75 $-1 $182 forward single #
loop $-1 $183 $184 $89 #
cone-surface $-1 0 0 -0.75 0 0 1 0.5 0 0 1 I I 0 1 forward I I I I #
face $-1 $185 $186 $77 $-1 $187 forward single #
loop $-1 $188 $189 $90 #
cone-surface $-1 0 0 -0.75 0 0 1 0.5 0 0 1 I I 0 1 forward I I I I #
face $-1 $190 $191 $53 $-1 $192 reversed single #
loop $-1 $-1 $193 $91 #
plane-surface $-1 0 0 -10.129165841694862 0 0 1 1 0 0 forward_v I I I I #
coedge $-1 $194 $195 $196 $197 forward $92 $-1 #
face $-1 $198 $199 $55 $-1 $200 reversed single #
loop $-1 $-1 $201 $94 #
plane-surface $-1 0 0 -10.129165841694862 0 0 1 1 0 0 forward_v I I I I #
coedge $-1 $202 $203 $204 $205 forward $95 $-1 #
face $-1 $206 $207 $57 $-1 $208 reversed single #
loop $-1 $-1 $209 $97 #
plane-surface $-1 0 0 -90.644856105227817 0 0 1 1 0 0 forward_v I I I I #
coedge $-1 $210 $211 $212 $213 forward $98 $-1 #
face $-1 $-1 $214 $59 $-1 $215 forward single #
loop $-1 $-1 $216 $100 #
plane-surface $-1 0 0 -1.5842539750358595 0 0 -1 -1 0 0 forward_v I I I I #
loop $-1 $-1 $217 $81 #
coedge $-1 $146 $146 $216 $218 reversed $101 $-1 #
face $-1 $-1 $219 $61 $-1 $220 forward single #
loop $-1 $-1 $221 $103 #
plane-surface $-1 0 0 -1.5842539750358595 0 0 -1 -1 0 0 forward_v I I I I #
loop $-1 $-1 $222 $82 #
coedge $-1 $151 $151 $221 $223 reversed $104 $-1 #
face $-1 $-1 $224 $63 $-1 $225 forward single #
loop $-1 $-1 $226 $106 #
plane-surface $-1 0 0 -1.5842539750358595 0 0 -1 -1 0 0 forward_v I I I I #
loop $-1 $-1 $227 $83 #
coedge $-1 $156 $156 $226 $228 reversed $107 $-1 #
face $-1 $229 $230 $65 $-1 $231 reversed single #
loop $-1 $-1 $232 $109 #
plane-surface $-1 0 0 -90.644856105227817 0 0 1 1 0 0 forward_v I I I I #
coedge $-1 $233 $234 $235 $236 forward $110 $-1 #
face $-1 $-1 $237 $67 $-1 $238 forward single #
loop $-1 $-1 $239 $112 #
plane-surface $-1 0 0 -1.5842539750358595 0 0 -1 -1 0 0 forward_v I I I I #
loop $-1 $-1 $240 $85 #
coedge $-1 $165 $165 $239 $241 reversed $113 $-1 #
face $-1 $-1 $242 $69 $-1 $243 forward single #
loop $-1 $-1 $244 $115 #
plane-surface $-1 0 0 -1.5842539750358595 0 0 -1 -1 0 0 forward_v I I I I #
loop $-1 $-1 $245 $86 #
coedge $-1 $170 $170 $244 $246 reversed $116 $-1 #
face $-1 $-1 $247 $71 $-1 $248 forward single #
loop $-1 $-1 $249 $118 #
plane-surface $-1 0 0 -1.5842539750358595 0 0 -1 -1 0 0 forward_v I I I I #
loop $-1 $-1 $250 $87 #
coedge $-1 $175 $175 $249 $251 reversed $119 $-1 #
face $-1 $252 $253 $73 $-1 $254 reversed single #
loop $-1 $-1 $255 $121 #
plane-surface $-1 0 0 -90.644856105227817 0 0 1 1 0 0 forward_v I I I I #
coedge $-1 $256 $257 $258 $259 forward $122 $-1 #
face $-1 $-1 $260 $75 $-1 $261 forward single #
loop $-1 $-1 $262 $124 #
plane-surface $-1 0 0 -1.25 0 0 -1 -1 0 0 forward_v I I I I #
loop $-1 $-1 $263 $89 #
coedge $-1 $184 $184 $262 $264 reversed $125 $-1 #
face $-1 $-1 $265 $77 $-1 $266 forward single #
loop $-1 $-1 $267 $127 #
plane-surface $-1 0 0 -1.25 0 0 -1 -1 0 0 forward_v I I I I #
loop $-1 $-1 $268 $90 #
coedge $-1 $189 $189 $267 $269 reversed $128 $-1 #
face $-1 $270 $271 $53 $-1 $272 reversed single #
loop $-1 $-1 $273 $130 #
plane-surface $-1 0 -21.96312663844251 0 0 1 0 0 0 1 forward_v I I I I #
coedge $-1 $274 $275 $276 $277 forward $131 $-1 #
coedge $-1 $278 $133 $279 $280 forward $92 $-1 #
coedge $-1 $133 $278 $281 $282 forward $92 $-1 #
coedge $-1 $283 $284 $133 $197 reversed $285 $-1 #
edge $-1 $286 $287 $196 $288 forward #
face $-1 $289 $290 $55 $-1 $291 reversed single #
loop $-1 $-1 $292 $134 #
plane-surface $-1 0 -4.2114602881196062 0 0 1 0 0 0 1 forward_v I I I I #
coedge $-1 $293 $294 $295 $296 forward $135 $-1 #
coedge $-1 $297 $137 $298 $299 forward $95 $-1 #
coedge $-1 $137 $297 $300 $301 forward $95 $-1 #
coedge $-1 $302 $303 $137 $205 reversed $304 $-1 #
edge $-1 $305 $306 $204 $307 forward #
face $-1 $308 $309 $57 $-1 $310 reversed single #
loop $-1 $-1 $311 $138 #
plane-surface $-1 0 -3.1946653029727505 0 0 1 0 0 0 1 forward_v I I I I #
coedge $-1 $312 $313 $314 $315 forward $139 $-1 #
coedge $-1 $316 $141 $317 $318 forward $98 $-1 #
coedge $-1 $141 $316 $319 $320 forward $98 $-1 #
coedge $-1 $321 $322 $141 $213 reversed $323 $-1 #
edge $-1 $324 $325 $212 $326 forward #
loop $-1 $327 $328 $142 #
cone-surface $-1 0 0 0 0 0 1 0.25 0 0 1 I I -0.70710678118654746 0.70710678118654746 forward I I I I #
coedge $-1 $216 $216 $146 $218 forward $143 $-1 #
coedge $-1 $217 $217 $328 $329 forward $145 $-1 #
edge $-1 $330 $330 $216 $331 forward #
loop $-1 $332 $333 $147 #
cone-surface $-1 0 0 0 0 0 1 0.25 0 0 1 I I -0.70710678118654746 0.70710678118654746 forward I I I I #
coedge $-1 $221 $221 $151 $223 forward $148 $-1 #
coedge $-1 $222 $222 $333 $334 forward $150 $-1 #
edge $-1 $335 $335 $221 $336 forward #
loop $-1 $337 $338 $152 #
cone-surface $-1 0 0 0 0 0 1 0.25 0 0 1 I I -0.70710678118654746 0.70710678118654746 forward I I I I #
coedge $-1 $226 $226 $156 $228 forward $153 $-1 #
coedge $-1 $227 $227 $338 $339 forward $155 $-1 #
edge $-1 $340 $340 $226 $341 forward #
face $-1 $342 $343 $65 $-1 $344 reversed single #
loop $-1 $-1 $345 $157 #
plane-surface $-1 0 -3.1946653029727505 0 0 1 0 0 0 1 forward_v I I I I #
coedge $-1 $346 $347 $348 $349 forward $158 $-1 #
coedge $-1 $350 $160 $351 $352 forward $110 $-1 #
coedge $-1 $160 $350 $353 $354 forward $110 $-1 #
coedge $-1 $355 $356 $160 $236 reversed $357 $-1 #
edge $-1 $358 $359 $235 $360 forward #
loop $-1 $361 $362 $161 #
cone-surface $-1 0 0 0 0 0 1 0.25 0 0 1 I I -0.70710678118654746 0.70710678118654746 forward I I I I #
coedge $-1 $239 $239 $165 $241 forward $162 $-1 #
coedge $-1 $240 $240 $362 $363 forward $164 $-1 #
edge $-1 $364 $364 $239 $365 forward #
loop $-1 $366 $367 $166 #
cone-surface $-1 0 0 0 0 0 1 0.25 0 0 1 I I -0.70710678118654746 0.70710678118654746 forward I I I I #
coedge $-1 $244 $244 $170 $246 forward $167 $-1 #
coedge $-1 $245 $245 $367 $368 forward $169 $-1 #
edge $-1 $369 $369 $244 $370 forward #
loop $-1 $371 $372 $171 #
cone-surface $-1 0 0 0 0 0 1 0.25 0 0 1 I I -0.70710678118654746 0.70710678118654746 forward I I I I #
coedge $-1 $249 $249 $175 $251 forward $172 $-1 #
coedge $-1 $250 $250 $372 $373 forward $174 $-1 #
edge $-1 $374 $374 $249 $375 forward #
face $-1 $376 $377 $73 $-1 $378 reversed single #
loop $-1 $-1 $379 $176 #
plane-surface $-1 0 -4.074071949331219 0 0 1 0 0 0 1 forward_v I I I I #
coedge $-1 $380 $381 $382 $383 forward $177 $-1 #
coedge $-1 $384 $179 $385 $386 forward $122 $-1 #
coedge $-1 $179 $384 $387 $388 forward $122 $-1 #
coedge $-1 $389 $390 $179 $259 reversed $391 $-1 #
edge $-1 $392 $393 $258 $394 forward #
loop $-1 $395 $396 $180 #
cone-surface $-1 0 0 0 0 0 1 0.25 0 0 1 I I -0.70710678118654746 0.70710678118654746 forward I I I I #
coedge $-1 $262 $262 $184 $264 forward $181 $-1 #
coedge $-1 $263 $263 $396 $397 forward $183 $-1 #
edge $-1 $398 $398 $262 $399 forward #
loop $-1 $400 $401 $185 #
cone-surface $-1 0 0 0 0 0 1 0.25 0 0 1 I I -0.70710678118654746 0.70710678118654746 forward I I I I #
coedge $-1 $267 $267 $189 $269 forward $186 $-1 #
coedge $-1 $268 $268 $401 $402 forward $188 $-1 #
edge $-1 $403 $403 $267 $404 forward #
face $-1 $405 $406 $53 $-1 $407 reversed single #
loop $-1 $-1 $408 $190 #
plane-surface $-1 -45.322428052613908 0 0 1 0 0 0 0 -1 forward_v I I I I #
coedge $-1 $409 $281 $410 $411 forward $191 $-1 #
coedge $-1 $412 $193 $409 $413 forward $131 $-1 #
coedge $-1 $193 $412 $414 $415 forward $131 $-1 #
coedge $-1 $284 $283 $193 $277 reversed $285 $-1 #
edge $-1 $416 $417 $276 $418 forward #
coedge $-1 $195 $194 $419 $420 forward $92 $-1 #
coedge $-1 $421 $422 $194 $280 reversed $406 $-1 #
edge $-1 $287 $423 $279 $424 forward #
coedge $-1 $273 $425 $195 $282 reversed $191 $-1 #
edge $-1 $426 $286 $281 $427 forward #
coedge $-1 $276 $196 $425 $428 forward $285 $-1 #
coedge $-1 $196 $276 $421 $429 reversed $285 $-1 #
loop $-1 $-1 $283 $405 #
vertex $-1 $197 $430 #
vertex $-1 $197 $431 #
straight-curve $-1 45.322428052613908 0 10.129165841694862 0 1 0 I I #
face $-1 $432 $433 $55 $-1 $434 reversed single #
loop $-1 $-1 $435 $198 #
plane-surface $-1 -2.8853609134127525 0 0 1 0 0 0 0 -1 forward_v I I I I #
coedge $-1 $436 $300 $437 $438 forward $199 $-1 #
coedge $-1 $439 $201 $436 $440 forward $135 $-1 #
coedge $-1 $201 $439 $441 $442 forward $135 $-1 #
coedge $-1 $303 $302 $201 $296 reversed $304 $-1 #
edge $-1 $443 $444 $295 $445 forward #
coedge $-1 $203 $202 $446 $447 forward $95 $-1 #
coedge $-1 $448 $449 $202 $299 reversed $433 $-1 #
edge $-1 $306 $450 $298 $451 forward #
coedge $-1 $292 $452 $203 $301 reversed $199 $-1 #
edge $-1 $453 $305 $300 $454 forward #
coedge $-1 $295 $204 $452 $455 forward $304 $-1 #
coedge $-1 $204 $295 $448 $456 reversed $304 $-1 #
loop $-1 $-1 $302 $432 #
vertex $-1 $205 $457 #
vertex $-1 $205 $458 #
straight-curve $-1 2.8853609134127525 0 10.129165841694862 0 1 0 I I #
face $-1 $459 $460 $57 $-1 $461 reversed single #
loop $-1 $-1 $462 $206 #
plane-surface $-1 -181.28971221045563 0 0 1 0 0 0 0 -1 forward_v I I I I #
coedge $-1 $463 $319 $464 $465 forward $207 $-1 #
coedge $-1 $466 $209 $463 $467 forward $139 $-1 #
coedge $-1 $209 $466 $468 $469 forward $139 $-1 #
coedge $-1 $322 $321 $209 $315 reversed $323 $-1 #
edge $-1 $470 $471 $314 $472 forward #
coedge $-1 $211 $210 $473 $474 forward $98 $-1 #
coedge $-1 $475 $476 $210 $318 reversed $460 $-1 #
edge $-1 $325 $477 $317 $478 forward #
coedge $-1 $311 $479 $211 $320 reversed $207 $-1 #
edge $-1 $480 $324 $319 $481 forward #
coedge $-1 $314 $212 $479 $482 forward $323 $-1 #
coedge $-1 $212 $314 $475 $483 reversed $323 $-1 #
loop $-1 $-1 $321 $459 #
vertex $-1 $213 $484 #
vertex $-1 $213 $485 #
straight-curve $-1 181.28971221045563 0 90.644856105227817 0 1 0 I I #
loop $-1 $-1 $486 $142 #
coedge $-1 $328 $328 $217 $329 reversed $214 $-1 #
edge $-1 $487 $487 $328 $488 forward #
vertex $-1 $218 $489 #
ellipse-curve $-1 0 0 -1.5842539750358595 0 0 -1 0.5 0 0 1 I I #
loop $-1 $-1 $490 $147 #
coedge $-1 $333 $333 $222 $334 reversed $219 $-1 #
edge $-1 $491 $491 $333 $492 forward #
vertex $-1 $223 $493 #
ellipse-curve $-1 0 0 -1.5842539750358595 0 0 -1 0.5 0 0 1 I I #
loop $-1 $-1 $494 $152 #
coedge $-1 $338 $338 $227 $339 reversed $224 $-1 #
edge $-1 $495 $495 $338 $496 forward #
vertex $-1 $228 $497 #
ellipse-curve $-1 0 0 -1.5842539750358595 0 0 -1 0.5 0 0 1 I I #
face $-1 $498 $499 $65 $-1 $500 reversed single #
loop $-1 $-1 $501 $229 #
plane-surface $-1 -181.28971221045563 0 0 1 0 0 0 0 -1 forward_v I I I I #
coedge $-1 $502 $353 $503 $504 forward $230 $-1 #
coedge $-1 $505 $232 $502 $506 forward $158 $-1 #
coedge $-1 $232 $505 $507 $508 forward $158 $-1 #
coedge $-1 $356 $355 $232 $349 reversed $357 $-1 #
edge $-1 $509 $510 $348 $511 forward #
coedge $-1 $234 $233 $512 $513 forward $110 $-1 #
coedge $-1 $514 $515 $233 $352 reversed $499 $-1 #
edge $-1 $359 $516 $351 $517 forward #
coedge $-1 $345 $518 $234 $354 reversed $230 $-1 #
edge $-1 $519 $358 $353 $520 forward #
coedge $-1 $348 $235 $518 $521 forward $357 $-1 #
coedge $-1 $235 $348 $514 $522 reversed $357 $-1 #
loop $-1 $-1 $355 $498 #
vertex $-1 $236 $523 #
vertex $-1 $236 $524 #
straight-curve $-1 181.28971221045563 0 90.644856105227817 0 1 0 I I #
loop $-1 $-1 $525 $161 #
coedge $-1 $362 $362 $240 $363 reversed $237 $-1 #
edge $-1 $526 $526 $362 $527 forward #
vertex $-1 $241 $528 #
ellipse-curve $-1 0 0 -1.5842539750358595 0 0 -1 0.5 0 0 1 I I #
loop $-1 $-1 $529 $166 #
coedge $-1 $367 $367 $245 $368 reversed $242 $-1 #
edge $-1 $530 $530 $367 $531 forward #
vertex $-1 $246 $532 #
ellipse-curve $-1 0 0 -1.5842539750358595 0 0 -1 0.5 0 0 1 I I #
loop $-1 $-1 $533 $171 #
coedge $-1 $372 $372 $250 $373 reversed $247 $-1 #
edge $-1 $534 $534 $372 $535 forward #
vertex $-1 $251 $536 #
ellipse-curve $-1 0 0 -1.5842539750358595 0 0 -1 0.5 0 0 1 I I #
face $-1 $537 $538 $73 $-1 $539 reversed single #
loop $-1 $-1 $540 $252 #
plane-surface $-1 -181.28971221045563 0 0 1 0 0 0 0 -1 forward_v I I I I #
coedge $-1 $541 $387 $542 $543 forward $253 $-1 #
coedge $-1 $544 $255 $541 $545 forward $177 $-1 #
coedge $-1 $255 $544 $546 $547 forward $177 $-1 #
coedge $-1 $390 $389 $255 $383 reversed $391 $-1 #
edge $-1 $548 $549 $382 $550 forward #
coedge $-1 $257 $256 $551 $552 forward $122 $-1 #
coedge $-1 $553 $554 $256 $386 reversed $538 $-1 #
edge $-1 $393 $555 $385 $556 forward #
coedge $-1 $379 $557 $257 $388 reversed $253 $-1 #
edge $-1 $558 $392 $387 $559 forward #
coedge $-1 $382 $258 $557 $560 forward $391 $-1 #
coedge $-1 $258 $382 $553 $561 reversed $391 $-1 #
loop $-1 $-1 $389 $537 #
vertex $-1 $259 $562 #
vertex $-1 $259 $563 #
straight-curve $-1 181.28971221045563 0 90.644856105227817 0 1 0 I I #
loop $-1 $-1 $564 $180 #
coedge $-1 $396 $396 $263 $397 reversed $260 $-1 #
edge $-1 $565 $565 $396 $566 forward #
vertex $-1 $264 $567 #
ellipse-curve $-1 0 0 -1.25 0 0 -1 0.5 0 0 1 I I #
loop $-1 $-1 $568 $185 #
coedge $-1 $401 $401 $268 $402 reversed $265 $-1 #
edge $-1 $569 $569 $401 $570 forward #
vertex $-1 $269 $571 #
ellipse-curve $-1 0 0 -1.25 0 0 -1 0.5 0 0 1 I I #
face $-1 $-1 $285 $53 $-1 $572 reversed single #
loop $-1 $-1 $421 $270 #
plane-surface $-1 0 21.96312663844251 0 0 -1 0 0 0 -1 forward_v I I I I #
coedge $-1 $573 $419 $422 $574 forward $271 $-1 #
coedge $-1 $425 $273 $274 $413 reversed $191 $-1 #
coedge $-1 $419 $573 $273 $411 reversed $271 $-1 #
edge $-1 $426 $575 $410 $576 forward #
coedge $-1 $275 $274 $573 $577 forward $131 $-1 #
edge $-1 $417 $575 $409 $578 forward #
coedge $-1 $422 $421 $275 $415 reversed $406 $-1 #
edge $-1 $579 $416 $414 $580 forward #
vertex $-1 $277 $581 #
vertex $-1 $428 $582 #
straight-curve $-1 45.322428052613908 0 -10.129165841694862 0 -1 0 I I #
coedge $-1 $408 $410 $278 $420 reversed $271 $-1 #
edge $-1 $423 $426 $419 $583 forward #
coedge $-1 $414 $279 $284 $429 forward $406 $-1 #
coedge $-1 $279 $414 $408 $574 reversed $406 $-1 #
vertex $-1 $280 $584 #
straight-curve $-1 0 21.96312663844251 10.129165841694862 -1 0 0 I I #
coedge $-1 $281 $409 $283 $428 reversed $191 $-1 #
vertex $-1 $420 $585 #
straight-curve $-1 0 -21.96312663844251 10.129165841694862 1 0 0 I I #
edge $-1 $286 $417 $283 $586 forward #
edge $-1 $287 $416 $284 $587 forward #
point $-1 45.322428052613908 -21.96312663844251 10.129165841694862 #
point $-1 45.322428052613908 21.96312663844251 10.129165841694862 #
face $-1 $-1 $304 $55 $-1 $588 reversed single #
loop $-1 $-1 $448 $289 #
plane-surface $-1 0 4.2114602881196062 0 0 -1 0 0 0 -1 forward_v I I I I #
coedge $-1 $589 $446 $449 $590 forward $290 $-1 #
coedge $-1 $452 $292 $293 $440 reversed $199 $-1 #
coedge $-1 $446 $589 $292 $438 reversed $290 $-1 #
edge $-1 $453 $591 $437 $592 forward #
coedge $-1 $294 $293 $589 $593 forward $135 $-1 #
edge $-1 $444 $591 $436 $594 forward #
coedge $-1 $449 $448 $294 $442 reversed $433 $-1 #
edge $-1 $595 $443 $441 $596 forward #
vertex $-1 $296 $597 #
vertex $-1 $455 $598 #
straight-curve $-1 2.8853609134127525 0 -10.129165841694862 0 -1 0 I I #
coedge $-1 $435 $437 $297 $447 reversed $290 $-1 #
edge $-1 $450 $453 $446 $599 forward #
coedge $-1 $441 $298 $303 $456 forward $433 $-1 #
coedge $-1 $298 $441 $435 $590 reversed $433 $-1 #
vertex $-1 $299 $600 #
straight-curve $-1 0 4.2114602881196062 10.129165841694862 -1 0 0 I I #
coedge $-1 $300 $436 $302 $455 reversed $199 $-1 #
vertex $-1 $447 $601 #
straight-curve $-1 0 -4.2114602881196062 10.129165841694862 1 0 0 I I #
edge $-1 $305 $444 $302 $602 forward #
edge $-1 $306 $443 $303 $603 forward #
point $-1 2.8853609134127525 -4.2114602881196062 10.129165841694862 #
point $-1 2.8853609134127525 4.2114602881196062 10.129165841694862 #
face $-1 $-1 $323 $57 $-1 $604 reversed single #
loop $-1 $-1 $475 $308 #
plane-surface $-1 0 3.1946653029727505 0 0 -1 0 0 0 -1 forward_v I I I I #
coedge $-1 $605 $473 $476 $606 forward $309 $-1 #
coedge $-1 $479 $311 $312 $467 reversed $207 $-1 #
coedge $-1 $473 $605 $311 $465 reversed $309 $-1 #
edge $-1 $480 $607 $464 $608 forward #
coedge $-1 $313 $312 $605 $609 forward $139 $-1 #
edge $-1 $471 $607 $463 $610 forward #
coedge $-1 $476 $475 $313 $469 reversed $460 $-1 #
edge $-1 $611 $470 $468 $612 forward #
vertex $-1 $315 $613 #
vertex $-1 $482 $614 #
straight-curve $-1 181.28971221045563 0 -90.644856105227817 0 -1 0 I I #
coedge $-1 $462 $464 $316 $474 reversed $309 $-1 #
edge $-1 $477 $480 $473 $615 forward #
coedge $-1 $468 $317 $322 $483 forward $460 $-1 #
coedge $-1 $317 $468 $462 $606 reversed $460 $-1 #
vertex $-1 $318 $616 #
straight-curve $-1 0 3.1946653029727505 90.644856105227817 -1 0 0 I I #
coedge $-1 $319 $463 $321 $482 reversed $207 $-1 #
vertex $-1 $474 $617 #
straight-curve $-1 0 -3.1946653029727505 90.644856105227817 1 0 0 I I #
edge $-1 $324 $471 $321 $618 forward #
edge $-1 $325 $470 $322 $619 forward #
point $-1 181.28971221045563 -3.1946653029727505 90.644856105227817 #
point $-1 181.28971221045563 3.1946653029727505 90.644856105227817 #
coedge $-1 $486 $486 $-1 $620 reversed $327 $-1 #
vertex $-1 $329 $621 #
ellipse-curve $-1 0 0 -0.25 0 0 -1 0.5 0 0 1 I I #
point $-1 0.5 0 -1.5842539750358595 #
coedge $-1 $490 $490 $-1 $622 reversed $332 $-1 #
vertex $-1 $334 $623 #
ellipse-curve $-1 0 0 -0.25 0 0 -1 0.5 0 0 1 I I #
point $-1 0.5 0 -1.5842539750358595 #
coedge $-1 $494 $494 $-1 $624 reversed $337 $-1 #
vertex $-1 $339 $625 #
ellipse-curve $-1 0 0 -0.25 0 0 -1 0.5 0 0 1 I I #
point $-1 0.5 0 -1.5842539750358595 #
face $-1 $-1 $357 $65 $-1 $626 reversed single #
loop $-1 $-1 $514 $342 #
plane-surface $-1 0 3.1946653029727505 0 0 -1 0 0 0 -1 forward_v I I I I #
coedge $-1 $627 $512 $515 $628 forward $343 $-1 #
coedge $-1 $518 $345 $346 $506 reversed $230 $-1 #
coedge $-1 $512 $627 $345 $504 reversed $343 $-1 #
edge $-1 $519 $629 $503 $630 forward #
coedge $-1 $347 $346 $627 $631 forward $158 $-1 #
edge $-1 $510 $629 $502 $632 forward #
coedge $-1 $515 $514 $347 $508 reversed $499 $-1 #
edge $-1 $633 $509 $507 $634 forward #
vertex $-1 $349 $635 #
vertex $-1 $521 $636 #
straight-curve $-1 181.28971221045563 0 -90.644856105227817 0 -1 0 I I #
coedge $-1 $501 $503 $350 $513 reversed $343 $-1 #
edge $-1 $516 $519 $512 $637 forward #
coedge $-1 $507 $351 $356 $522 forward $499 $-1 #
coedge $-1 $351 $507 $501 $628 reversed $499 $-1 #
vertex $-1 $352 $638 #
straight-curve $-1 0 3.1946653029727505 90.644856105227817 -1 0 0 I I #
coedge $-1 $353 $502 $355 $521 reversed $230 $-1 #
vertex $-1 $513 $639 #
straight-curve $-1 0 -3.1946653029727505 90.644856105227817 1 0 0 I I #
edge $-1 $358 $510 $355 $640 forward #
edge $-1 $359 $509 $356 $641 forward #
point $-1 181.28971221045563 -3.1946653029727505 90.644856105227817 #
point $-1 181.28971221045563 3.1946653029727505 90.644856105227817 #
coedge $-1 $525 $525 $-1 $642 reversed $361 $-1 #
vertex $-1 $363 $643 #
ellipse-curve $-1 0 0 -0.25 0 0 -1 0.5 0 0 1 I I #
point $-1 0.5 0 -1.5842539750358595 #
coedge $-1 $529 $529 $-1 $644 reversed $366 $-1 #
vertex $-1 $368 $645 #
ellipse-curve $-1 0 0 -0.25 0 0 -1 0.5 0 0 1 I I #
point $-1 0.5 0 -1.5842539750358595 #
coedge $-1 $533 $533 $-1 $646 reversed $371 $-1 #
vertex $-1 $373 $647 #
ellipse-curve $-1 0 0 -0.25 0 0 -1 0.5 0 0 1 I I #
point $-1 0.5 0 -1.5842539750358595 #
face $-1 $-1 $391 $73 $-1 $648 reversed single #
loop $-1 $-1 $553 $376 #
plane-surface $-1 0 4.074071949331219 0 0 -1 0 0 0 -1 forward_v I I I I #
coedge $-1 $649 $551 $554 $650 forward $377 $-1 #
coedge $-1 $557 $379 $380 $545 reversed $253 $-1 #
coedge $-1 $551 $649 $379 $543 reversed $377 $-1 #
edge $-1 $558 $651 $542 $652 forward #
coedge $-1 $381 $380 $649 $653 forward $177 $-1 #
edge $-1 $549 $651 $541 $654 forward #
coedge $-1 $554 $553 $381 $547 reversed $538 $-1 #
edge $-1 $655 $548 $546 $656 forward #
vertex $-1 $383 $657 #
vertex $-1 $560 $658 #
straight-curve $-1 181.28971221045563 0 -90.644856105227817 0 -1 0 I I #
coedge $-1 $540 $542 $384 $552 reversed $377 $-1 #
edge $-1 $555 $558 $551 $659 forward #
coedge $-1 $546 $385 $390 $561 forward $538 $-1 #
coedge $-1 $385 $546 $540 $650 reversed $538 $-1 #
vertex $-1 $386 $660 #
straight-curve $-1 0 4.074071949331219 90.644856105227817 -1 0 0 I I #
coedge $-1 $387 $541 $389 $560 reversed $253 $-1 #
vertex $-1 $552 $661 #
straight-curve $-1 0 -4.074071949331219 90.644856105227817 1 0 0 I I #
edge $-1 $392 $549 $389 $662 forward #
edge $-1 $393 $548 $390 $663 forward #
point $-1 181.28971221045563 -4.074071949331219 90.644856105227817 #
point $-1 181.28971221045563 4.074071949331219 90.644856105227817 #
coedge $-1 $564 $564 $-1 $664 reversed $395 $-1 #
vertex $-1 $397 $665 #
ellipse-curve $-1 0 0 -0.25 0 0 -1 0.5 0 0 1 I I #
point $-1 0.5 0 -1.25 #
coedge $-1 $568 $568 $-1 $666 reversed $400 $-1 #
vertex $-1 $402 $667 #
ellipse-curve $-1 0 0 -0.25 0 0 -1 0.5 0 0 1 I I #
point $-1 0.5 0 -1.25 #
plane-surface $-1 45.322428052613908 0 0 -1 0 0 0 0 1 forward_v I I I I #
coedge $-1 $410 $408 $412 $577 reversed $271 $-1 #
edge $-1 $423 $579 $422 $668 forward #
vertex $-1 $577 $669 #
straight-curve $-1 -45.322428052613908 -21.96312663844251 0 0 0 -1 I I #
edge $-1 $575 $579 $573 $670 forward #
straight-curve $-1 0 -21.96312663844251 -10.129165841694862 -1 0 0 I I #
vertex $-1 $415 $671 #
straight-curve $-1 0 21.96312663844251 -10.129165841694862 1 0 0 I I #
point $-1 45.322428052613908 21.96312663844251 -10.129165841694862 #
point $-1 45.322428052613908 -21.96312663844251 -10.129165841694862 #
straight-curve $-1 -45.322428052613908 0 10.129165841694862 0 -1 0 I I #
point $-1 -45.322428052613908 21.96312663844251 10.129165841694862 #
point $-1 -45.322428052613908 -21.96312663844251 10.129165841694862 #
straight-curve $-1 45.322428052613908 -21.96312663844251 0 0 0 -1 I I #
straight-curve $-1 45.322428052613908 21.96312663844251 0 0 0 -1 I I #
plane-surface $-1 2.8853609134127525 0 0 -1 0 0 0 0 1 forward_v I I I I #
coedge $-1 $437 $435 $439 $593 reversed $290 $-1 #
edge $-1 $450 $595 $449 $672 forward #
vertex $-1 $593 $673 #
straight-curve $-1 -2.8853609134127525 -4.2114602881196062 0 0 0 -1 I I #
edge $-1 $591 $595 $589 $674 forward #
straight-curve $-1 0 -4.2114602881196062 -10.129165841694862 -1 0 0 I I #
vertex $-1 $442 $675 #
straight-curve $-1 0 4.2114602881196062 -10.129165841694862 1 0 0 I I #
point $-1 2.8853609134127525 4.2114602881196062 -10.129165841694862 #
point $-1 2.8853609134127525 -4.2114602881196062 -10.129165841694862 #
straight-curve $-1 -2.8853609134127525 0 10.129165841694862 0 -1 0 I I #
point $-1 -2.8853609134127525 4.2114602881196062 10.129165841694862 #
point $-1 -2.8853609134127525 -4.2114602881196062 10.129165841694862 #
straight-curve $-1 2.8853609134127525 -4.2114602881196062 0 0 0 -1 I I #
straight-curve $-1 2.8853609134127525 4.2114602881196062 0 0 0 -1 I I #
plane-surface $-1 181.28971221045563 0 0 -1 0 0 0 0 1 forward_v I I I I #
coedge $-1 $464 $462 $466 $609 reversed $309 $-1 #
edge $-1 $477 $611 $476 $676 forward #
vertex $-1 $609 $677 #
straight-curve $-1 -181.28971221045563 -3.1946653029727505 0 0 0 -1 I I #
edge $-1 $607 $611 $605 $678 forward #
straight-curve $-1 0 -3.1946653029727505 -90.644856105227817 -1 0 0 I I #
vertex $-1 $469 $679 #
straight-curve $-1 0 3.1946653029727505 -90.644856105227817 1 0 0 I I #
point $-1 181.28971221045563 3.1946653029727505 -90.644856105227817 #
point $-1 181.28971221045563 -3.1946653029727505 -90.644856105227817 #
straight-curve $-1 -181.28971221045563 0 90.644856105227817 0 -1 0 I I #
point $-1 -181.28971221045563 3.1946653029727505 90.644856105227817 #
point $-1 -181.28971221045563 -3.1946653029727505 90.644856105227817 #
straight-curve $-1 181.28971221045563 -3.1946653029727505 0 0 0 -1 I I #
straight-curve $-1 181.28971221045563 3.1946653029727505 0 0 0 -1 I I #
edge $-1 $680 $680 $486 $-1 forward #
point $-1 0.5 0 -0.25 #
edge $-1 $681 $681 $490 $-1 forward #
point $-1 0.5 0 -0.25 #
edge $-1 $682 $682 $494 $-1 forward #
point $-1 0.5 0 -0.25 #
plane-surface $-1 181.28971221045563 0 0 -1 0 0 0 0 1 forward_v I I I I #
coedge $-1 $503 $501 $505 $631 reversed $343 $-1 #
edge $-1 $516 $633 $515 $683 forward #
vertex $-1 $631 $684 #
straight-curve $-1 -181.28971221045563 -3.1946653029727505 0 0 0 -1 I I #
edge $-1 $629 $633 $627 $685 forward #
straight-curve $-1 0 -3.1946653029727505 -90.644856105227817 -1 0 0 I I #
vertex $-1 $508 $686 #
straight-curve $-1 0 3.1946653029727505 -90.644856105227817 1 0 0 I I #
point $-1 181.28971221045563 3.1946653029727505 -90.644856105227817 #
point $-1 181.28971221045563 -3.1946653029727505 -90.644856105227817 #
straight-curve $-1 -181.28971221045563 0 90.644856105227817 0 -1 0 I I #
point $-1 -181.28971221045563 3.1946653029727505 90.644856105227817 #
point $-1 -181.28971221045563 -3.1946653029727505 90.644856105227817 #
straight-curve $-1 181.28971221045563 -3.1946653029727505 0 0 0 -1 I I #
straight-curve $-1 181.28971221045563 3.1946653029727505 0 0 0 -1 I I #
edge $-1 $687 $687 $525 $-1 forward #
point $-1 0.5 0 -0.25 #
edge $-1 $688 $688 $529 $-1 forward #
point $-1 0.5 0 -0.25 #
edge $-1 $689 $689 $533 $-1 forward #
point $-1 0.5 0 -0.25 #
plane-surface $-1 181.28971221045563 0 0 -1 0 0 0 0 1 forward_v I I I I #
coedge $-1 $542 $540 $544 $653 reversed $377 $-1 #
edge $-1 $555 $655 $554 $690 forward #
vertex $-1 $653 $691 #
straight-curve $-1 -181.28971221045563 -4.074071949331219 0 0 0 -1 I I #
edge $-1 $651 $655 $649 $692 forward #
straight-curve $-1 0 -4.074071949331219 -90.644856105227817 -1 0 0 I I #
vertex $-1 $547 $693 #
straight-curve $-1 0 4.074071949331219 -90.644856105227817 1 0 0 I I #
point $-1 181.28971221045563 4.074071949331219 -90.644856105227817 #
point $-1 181.28971221045563 -4.074071949331219 -90.644856105227817 #
straight-curve $-1 -181.28971221045563 0 90.644856105227817 0 -1 0 I I #
point $-1 -181.28971221045563 4.074071949331219 90.644856105227817 #
point $-1 -181.28971221045563 -4.074071949331219 90.644856105227817 #
straight-curve $-1 181.28971221045563 -4.074071949331219 0 0 0 -1 I I #
straight-curve $-1 181.28971221045563 4.074071949331219 0 0 0 -1 I I #
edge $-1 $694 $694 $564 $-1 forward #
point $-1 0.5 0 -0.25 #
edge $-1 $695 $695 $568 $-1 forward #
point $-1 0.5 0 -0.25 #
straight-curve $-1 -45.322428052613908 21.96312663844251 0 0 0 -1 I I #
point $-1 -45.322428052613908 -21.96312663844251 -10.129165841694862 #
straight-curve $-1 -45.322428052613908 0 -10.129165841694862 0 1 0 I I #
point $-1 -45.322428052613908 21.96312663844251 -10.129165841694862 #
straight-curve $-1 -2.8853609134127525 4.2114602881196062 0 0 0 -1 I I #
point $-1 -2.8853609134127525 -4.2114602881196062 -10.129165841694862 #
straight-curve $-1 -2.8853609134127525 0 -10.129165841694862 0 1 0 I I #
point $-1 -2.8853609134127525 4.2114602881196062 -10.129165841694862 #
straight-curve $-1 -181.28971221045563 3.1946653029727505 0 0 0 -1 I I #
point $-1 -181.28971221045563 -3.1946653029727505 -90.644856105227817 #
straight-curve $-1 -181.28971221045563 0 -90.644856105227817 0 1 0 I I #
point $-1 -181.28971221045563 3.1946653029727505 -90.644856105227817 #
vertex $-1 $620 $696 #
vertex $-1 $622 $697 #
vertex $-1 $624 $698 #
straight-curve $-1 -181.28971221045563 3.1946653029727505 0 0 0 -1 I I #
point $-1 -181.28971221045563 -3.1946653029727505 -90.644856105227817 #
straight-curve $-1 -181.28971221045563 0 -90.644856105227817 0 1 0 I I #
point $-1 -181.28971221045563 3.1946653029727505 -90.644856105227817 #
vertex $-1 $642 $699 #
vertex $-1 $644 $700 #
vertex $-1 $646 $701 #
straight-curve $-1 -181.28971221045563 4.074071949331219 0 0 0 -1 I I #
point $-1 -181.28971221045563 -4.074071949331219 -90.644856105227817 #
straight-curve $-1 -181.28971221045563 0 -90.644856105227817 0 1 0 I I #
point $-1 -181.28971221045563 4.074071949331219 -90.644856105227817 #
vertex $-1 $664 $702 #
vertex $-1 $666 $703 #
point $-1 0 0 0.25 #
point $-1 0 0 0.25 #
point $-1 0 0 0.25 #
point $-1 0 0 0.25 #
point $-1 0 0 0.25 #
point $-1 0 0 0.25 #
point $-1 0 0 0.25 #
point $-1 0 0 0.25 #
End-of-ACIS-data 