600 0 9 0           
94 GICL ACIS Healer - Source: /gicl/data5/repository/Drexel/SM99-DATA/part104.smdg.feat.sat - 6 0 18 ACIS 6.0.3 Solaris 24 Sat Apr 13 20:43:23 2002 
1 9.999999999999999547e-07 1.000000000000000036e-10 
body $-1 $9 $-1 $-1 #
body $-1 $10 $-1 $-1 #
body $-1 $11 $-1 $-1 #
body $-1 $12 $-1 $-1 #
body $-1 $13 $-1 $-1 #
body $-1 $14 $-1 $-1 #
body $-1 $15 $-1 $-1 #
body $-1 $16 $-1 $-1 #
body $-1 $17 $-1 $-1 #
lump $-1 $-1 $18 $0 #
lump $-1 $-1 $19 $1 #
lump $-1 $-1 $20 $2 #
lump $-1 $-1 $21 $3 #
lump $-1 $-1 $22 $4 #
lump $-1 $-1 $23 $5 #
lump $-1 $-1 $24 $6 #
lump $-1 $-1 $25 $7 #
lump $-1 $-1 $26 $8 #
shell $-1 $-1 $-1 $27 $-1 $9 #
shell $-1 $-1 $-1 $28 $-1 $10 #
shell $-1 $-1 $-1 $29 $-1 $11 #
shell $-1 $-1 $-1 $30 $-1 $12 #
shell $-1 $-1 $-1 $31 $-1 $13 #
shell $-1 $-1 $-1 $32 $-1 $14 #
shell $-1 $-1 $-1 $33 $-1 $15 #
shell $-1 $-1 $-1 $34 $-1 $16 #
shell $-1 $-1 $-1 $35 $-1 $17 #
face $-1 $36 $37 $18 $-1 $38 forward single #
face $-1 $39 $40 $19 $-1 $41 forward single #
face $-1 $42 $43 $20 $-1 $44 forward single #
face $-1 $45 $46 $21 $-1 $47 forward single #
face $-1 $48 $49 $22 $-1 $50 forward single #
face $-1 $51 $52 $23 $-1 $53 forward single #
face $-1 $54 $55 $24 $-1 $56 forward single #
face $-1 $57 $58 $25 $-1 $59 forward single #
face $-1 $60 $61 $26 $-1 $62 forward single #
face $-1 $63 $64 $18 $-1 $65 reversed single #
loop $-1 $-1 $66 $27 #
plane-surface $-1 68.35901974547562077 44.05669664555663445 42.90065710040909153 0 0 1 1 0 0 forward_v I I I I #
face $-1 $67 $68 $19 $-1 $69 reversed single #
loop $-1 $-1 $70 $28 #
plane-surface $-1 68.35901974547562077 11.01378500188530829 5.904650210795463927 0 0 1 1 0 0 forward_v I I I I #
face $-1 $71 $72 $20 $-1 $73 reversed single #
loop $-1 $-1 $74 $29 #
plane-surface $-1 197.3268168891258654 27.01713336085919082 328.4765510093513967 0.6156614830463592591 0 0.788010747574649173 0.788010747574649173 0 -0.6156614830463592591 forward_v I I I I #
face $-1 $75 $76 $21 $-1 $77 forward single #
loop $-1 $78 $79 $30 #
cone-surface $-1 127.4079275770028232 24.0233953466060477 35.47329869879315112 -0.6156614830463592591 0 -0.788010747574649173 0.1970026868936622932 0 -0.1539153707615898148 1 I I 0 1 0.25 forward I I I I #
face $-1 $80 $81 $22 $-1 $82 forward single #
loop $-1 $83 $84 $31 #
cone-surface $-1 127.4079275770028232 27.01713336085919437 35.47329869879315112 -0.6156614830463592591 0 -0.788010747574649173 0.1970026868936622932 0 -0.1539153707615898148 1 I I 0 1 0.25 forward I I I I #
face $-1 $85 $86 $23 $-1 $87 forward single #
loop $-1 $88 $89 $32 #
cone-surface $-1 127.4079275770028232 30.01087137511234104 35.47329869879315112 -0.6156614830463592591 0 -0.788010747574649173 0.1970026868936622932 0 -0.1539153707615898148 1 I I 0 1 0.25 forward I I I I #
face $-1 $90 $91 $24 $-1 $92 reversed single #
loop $-1 $-1 $93 $33 #
plane-surface $-1 -218.3757646517652518 79.48101203731158648 200.9320460326647435 -0.7986355182712320255 0 0.6018150122385121925 0.6018150122385121925 0 0.7986355182712320255 forward_v I I I I #
face $-1 $94 $95 $25 $-1 $96 forward single #
loop $-1 $97 $98 $34 #
cone-surface $-1 4.268066290369878502 75.78142007139658176 38.27419398856406474 0.7986355182712320255 0 -0.6018150122385121925 0.9027225183577682888 0 1.197953277406847983 1 I I 0 1 1.5 forward I I I I #
face $-1 $99 $100 $26 $-1 $101 forward single #
loop $-1 $102 $103 $35 #
cone-surface $-1 4.268066290369878502 83.1806040032265912 38.27419398856406474 0.7986355182712320255 0 -0.6018150122385121925 0.9027225183577682888 0 1.197953277406847983 1 I I 0 1 1.5 forward I I I I #
face $-1 $104 $105 $18 $-1 $106 reversed single #
loop $-1 $-1 $107 $36 #
plane-surface $-1 68.35901974547562077 44.05669664555663445 0 0 0 1 1 0 0 forward_v I I I I #
coedge $-1 $108 $109 $110 $111 forward $37 $-1 #
face $-1 $112 $113 $19 $-1 $114 reversed single #
loop $-1 $-1 $115 $39 #
plane-surface $-1 68.35901974547562077 11.01378500188530829 0 0 0 1 1 0 0 forward_v I I I I #
coedge $-1 $116 $117 $118 $119 forward $40 $-1 #
face $-1 $120 $121 $20 $-1 $122 reversed single #
loop $-1 $-1 $123 $42 #
plane-surface $-1 28.98275498474635015 27.01713336085919082 113.0059819969416139 0.6156614830463592591 0 0.788010747574649173 0.788010747574649173 0 -0.6156614830463592591 forward_v I I I I #
coedge $-1 $124 $125 $126 $127 forward $43 $-1 #
face $-1 $-1 $128 $21 $-1 $129 forward single #
loop $-1 $-1 $130 $45 #
plane-surface $-1 127.7157583185259995 24.0233953466060477 35.86730407258047393 0.6156614830463592591 0 0.788010747574649173 -0.788010747574649173 0 0.6156614830463592591 forward_v I I I I #
loop $-1 $-1 $131 $30 #
coedge $-1 $79 $79 $130 $132 reversed $46 $-1 #
face $-1 $-1 $133 $22 $-1 $134 forward single #
loop $-1 $-1 $135 $48 #
plane-surface $-1 127.7157583185259995 27.01713336085919437 35.86730407258047393 0.6156614830463592591 0 0.788010747574649173 -0.788010747574649173 0 0.6156614830463592591 forward_v I I I I #
loop $-1 $-1 $136 $31 #
coedge $-1 $84 $84 $135 $137 reversed $49 $-1 #
face $-1 $-1 $138 $23 $-1 $139 forward single #
loop $-1 $-1 $140 $51 #
plane-surface $-1 127.7157583185259995 30.01087137511234104 35.86730407258047393 0.6156614830463592591 0 0.788010747574649173 -0.788010747574649173 0 0.6156614830463592591 forward_v I I I I #
loop $-1 $-1 $141 $32 #
coedge $-1 $89 $89 $140 $142 reversed $52 $-1 #
face $-1 $143 $144 $24 $-1 $145 reversed single #
loop $-1 $-1 $146 $54 #
plane-surface $-1 -2.842170943040400743e-14 79.48101203731158648 36.37410881372032634 -0.7986355182712320255 0 0.6018150122385121925 0.6018150122385121925 0 0.7986355182712320255 forward_v I I I I #
coedge $-1 $147 $148 $149 $150 forward $55 $-1 #
face $-1 $-1 $151 $25 $-1 $152 forward single #
loop $-1 $-1 $153 $57 #
plane-surface $-1 2.459053377397429685 75.78142007139658176 39.63738295706470893 -0.7986355182712320255 0 0.6018150122385121925 -0.6018150122385121925 0 -0.7986355182712320255 forward_v I I I I #
loop $-1 $-1 $154 $34 #
coedge $-1 $98 $98 $153 $155 reversed $58 $-1 #
face $-1 $-1 $156 $26 $-1 $157 forward single #
loop $-1 $-1 $158 $60 #
plane-surface $-1 2.459053377397429685 83.1806040032265912 39.63738295706470893 -0.7986355182712320255 0 0.6018150122385121925 -0.6018150122385121925 0 -0.7986355182712320255 forward_v I I I I #
loop $-1 $-1 $159 $35 #
coedge $-1 $103 $103 $158 $160 reversed $61 $-1 #
face $-1 $161 $162 $18 $-1 $163 reversed single #
loop $-1 $-1 $164 $63 #
plane-surface $-1 68.35901974547562077 0 21.45032855020454576 0 1 0 0 0 1 forward_v I I I I #
coedge $-1 $165 $166 $167 $168 forward $64 $-1 #
coedge $-1 $169 $66 $170 $171 forward $37 $-1 #
coedge $-1 $66 $169 $172 $173 forward $37 $-1 #
coedge $-1 $174 $175 $66 $111 reversed $176 $-1 #
edge $-1 $177 -44.05669664555663445 $178 44.05669664555663445 $110 $179 forward 7 unknown #
face $-1 $180 $181 $19 $-1 $182 reversed single #
loop $-1 $-1 $183 $67 #
plane-surface $-1 68.35901974547562077 0 2.952325105397731964 0 1 0 0 0 1 forward_v I I I I #
coedge $-1 $184 $185 $186 $187 forward $68 $-1 #
coedge $-1 $188 $70 $189 $190 forward $40 $-1 #
coedge $-1 $70 $188 $191 $192 forward $40 $-1 #
coedge $-1 $193 $194 $70 $119 reversed $195 $-1 #
edge $-1 $196 -11.01378500188530829 $197 11.01378500188530829 $118 $198 forward 7 unknown #
face $-1 $199 $200 $20 $-1 $201 reversed single #
loop $-1 $-1 $202 $71 #
plane-surface $-1 113.1547859369361078 22.02757000377061303 220.7412665031465053 0 1 0 0.6156614830463592591 0 0.788010747574649173 forward_v I I I I #
coedge $-1 $203 $204 $205 $206 forward $72 $-1 #
coedge $-1 $207 $74 $208 $209 forward $43 $-1 #
coedge $-1 $74 $207 $210 $211 forward $43 $-1 #
coedge $-1 $212 $213 $74 $127 reversed $214 $-1 #
edge $-1 $215 -4.989563357088577789 $216 4.989563357088577789 $126 $217 forward 7 unknown #
loop $-1 $218 $219 $75 #
cone-surface $-1 127.0231391500988423 24.0233953466060477 34.98079198155899405 -0.6156614830463592591 0 -0.788010747574649173 0.09850134344683114662 0 -0.07695768538079490739 1 I I -0.7071067811865474617 0.7071067811865474617 0.125 forward I I I I #
coedge $-1 $130 $130 $79 $132 forward $76 $-1 #
coedge $-1 $131 $131 $219 $220 forward $78 $-1 #
edge $-1 $221 0 $221 6.283185307179586232 $130 $222 forward 7 unknown #
loop $-1 $223 $224 $80 #
cone-surface $-1 127.0231391500988423 27.01713336085919437 34.98079198155899405 -0.6156614830463592591 0 -0.788010747574649173 0.09850134344683114662 0 -0.07695768538079490739 1 I I -0.7071067811865474617 0.7071067811865474617 0.125 forward I I I I #
coedge $-1 $135 $135 $84 $137 forward $81 $-1 #
coedge $-1 $136 $136 $224 $225 forward $83 $-1 #
edge $-1 $226 0 $226 6.283185307179586232 $135 $227 forward 7 unknown #
loop $-1 $228 $229 $85 #
cone-surface $-1 127.0231391500988423 30.01087137511234104 34.98079198155899405 -0.6156614830463592591 0 -0.788010747574649173 0.09850134344683114662 0 -0.07695768538079490739 1 I I -0.7071067811865474617 0.7071067811865474617 0.125 forward I I I I #
coedge $-1 $140 $140 $89 $142 forward $86 $-1 #
coedge $-1 $141 $141 $229 $230 forward $88 $-1 #
edge $-1 $231 0 $231 6.283185307179586232 $140 $232 forward 7 unknown #
face $-1 $233 $234 $24 $-1 $235 reversed single #
loop $-1 $-1 $236 $90 #
plane-surface $-1 -109.1878823258826401 70.84863078350991827 118.653077423192542 0 1 0 -0.7986355182712320255 0 0.6018150122385121925 forward_v I I I I #
coedge $-1 $237 $238 $239 $240 forward $91 $-1 #
coedge $-1 $241 $93 $242 $243 forward $55 $-1 #
coedge $-1 $93 $241 $244 $245 forward $55 $-1 #
coedge $-1 $246 $247 $93 $150 reversed $248 $-1 #
edge $-1 $249 -8.632381253801668208 $250 8.632381253801668208 $149 $251 forward 7 unknown #
loop $-1 $252 $253 $94 #
cone-surface $-1 6.676055842045752087 75.78142007139658176 36.45964376088453207 0.7986355182712320255 0 -0.6018150122385121925 0.4513612591788841444 0 0.5989766387034239914 1 I I -0.7071067811865475727 0.7071067811865475727 0.75 forward I I I I #
coedge $-1 $153 $153 $98 $155 forward $95 $-1 #
coedge $-1 $154 $154 $253 $254 forward $97 $-1 #
edge $-1 $255 0 $255 6.283185307179586232 $153 $256 forward 7 unknown #
loop $-1 $257 $258 $99 #
cone-surface $-1 6.676055842045752087 83.1806040032265912 36.45964376088453207 0.7986355182712320255 0 -0.6018150122385121925 0.4513612591788841444 0 0.5989766387034239914 1 I I -0.7071067811865475727 0.7071067811865475727 0.75 forward I I I I #
coedge $-1 $158 $158 $103 $160 forward $100 $-1 #
coedge $-1 $159 $159 $258 $259 forward $102 $-1 #
edge $-1 $260 0 $260 6.283185307179586232 $158 $261 forward 7 unknown #
face $-1 $262 $263 $18 $-1 $264 reversed single #
loop $-1 $-1 $265 $104 #
plane-surface $-1 0 44.05669664555663445 21.45032855020454576 1 0 0 0 0 -1 forward_v I I I I #
coedge $-1 $266 $172 $267 $268 forward $105 $-1 #
coedge $-1 $269 $107 $266 $270 forward $64 $-1 #
coedge $-1 $107 $269 $271 $272 forward $64 $-1 #
coedge $-1 $175 $174 $107 $168 reversed $176 $-1 #
edge $-1 $273 -44.05669664555663445 $274 44.05669664555663445 $167 $275 forward 7 unknown #
coedge $-1 $109 $108 $276 $277 forward $37 $-1 #
coedge $-1 $278 $279 $108 $171 reversed $263 $-1 #
edge $-1 $178 -68.35901974547562077 $280 68.35901974547562077 $170 $281 forward 7 unknown #
coedge $-1 $164 $282 $109 $173 reversed $105 $-1 #
edge $-1 $283 -68.35901974547562077 $177 68.35901974547562077 $172 $284 forward 7 unknown #
coedge $-1 $167 $110 $282 $285 forward $176 $-1 #
coedge $-1 $110 $167 $278 $286 reversed $176 $-1 #
loop $-1 $-1 $174 $262 #
vertex $-1 $111 $287 #
vertex $-1 $111 $288 #
straight-curve $-1 136.7180394909512415 44.05669664555663445 42.90065710040909153 0 1 0 I I #
face $-1 $289 $290 $19 $-1 $291 reversed single #
loop $-1 $-1 $292 $112 #
plane-surface $-1 0 11.01378500188530829 2.952325105397731964 1 0 0 0 0 -1 forward_v I I I I #
coedge $-1 $293 $191 $294 $295 forward $113 $-1 #
coedge $-1 $296 $115 $293 $297 forward $68 $-1 #
coedge $-1 $115 $296 $298 $299 forward $68 $-1 #
coedge $-1 $194 $193 $115 $187 reversed $195 $-1 #
edge $-1 $300 -11.01378500188530829 $301 11.01378500188530829 $186 $302 forward 7 unknown #
coedge $-1 $117 $116 $303 $304 forward $40 $-1 #
coedge $-1 $305 $306 $116 $190 reversed $290 $-1 #
edge $-1 $197 -68.35901974547562077 $307 68.35901974547562077 $189 $308 forward 7 unknown #
coedge $-1 $183 $309 $117 $192 reversed $113 $-1 #
edge $-1 $310 -68.35901974547562077 $196 68.35901974547562077 $191 $311 forward 7 unknown #
coedge $-1 $186 $118 $309 $312 forward $195 $-1 #
coedge $-1 $118 $186 $305 $313 reversed $195 $-1 #
loop $-1 $-1 $193 $289 #
vertex $-1 $119 $314 #
vertex $-1 $119 $315 #
straight-curve $-1 136.7180394909512415 11.01378500188530829 5.904650210795463927 0 1 0 I I #
face $-1 $316 $317 $20 $-1 $318 reversed single #
loop $-1 $-1 $319 $120 #
plane-surface $-1 -102.315783075473675 27.01713336085919082 389.085328407526049 0.788010747574649173 0 -0.6156614830463592591 -0.6156614830463592591 0 -0.788010747574649173 forward_v I I I I #
coedge $-1 $320 $210 $321 $322 forward $121 $-1 #
coedge $-1 $323 $123 $320 $324 forward $72 $-1 #
coedge $-1 $123 $323 $325 $326 forward $72 $-1 #
coedge $-1 $213 $212 $123 $206 reversed $214 $-1 #
edge $-1 $327 -4.989563357088577789 $328 4.989563357088577789 $205 $329 forward 7 unknown #
coedge $-1 $125 $124 $330 $331 forward $43 $-1 #
coedge $-1 $332 $333 $124 $209 reversed $317 $-1 #
edge $-1 $216 -273.4360789819024831 $334 273.4360789819024831 $208 $335 forward 7 unknown #
coedge $-1 $202 $336 $125 $211 reversed $121 $-1 #
edge $-1 $337 -273.4360789819024831 $215 273.4360789819024831 $210 $338 forward 7 unknown #
coedge $-1 $205 $126 $336 $339 forward $214 $-1 #
coedge $-1 $126 $205 $332 $340 reversed $214 $-1 #
loop $-1 $-1 $212 $316 #
vertex $-1 $127 $341 #
vertex $-1 $127 $342 #
straight-curve $-1 412.7973859015356197 27.01713336085919082 160.1324891049718815 0 1 0 I I #
loop $-1 $-1 $343 $75 #
coedge $-1 $219 $219 $131 $220 reversed $128 $-1 #
edge $-1 $344 0 $344 6.283185307179586232 $219 $345 forward 7 unknown #
vertex $-1 $132 $346 #
ellipse-curve $-1 127.7157583185259995 24.0233953466060477 35.86730407258047393 0.6156614830463592591 0 0.788010747574649173 0.1970026868936622932 0 -0.1539153707615898148 1 I I #
loop $-1 $-1 $347 $80 #
coedge $-1 $224 $224 $136 $225 reversed $133 $-1 #
edge $-1 $348 0 $348 6.283185307179586232 $224 $349 forward 7 unknown #
vertex $-1 $137 $350 #
ellipse-curve $-1 127.7157583185259995 27.01713336085919437 35.86730407258047393 0.6156614830463592591 0 0.788010747574649173 0.1970026868936622932 0 -0.1539153707615898148 1 I I #
loop $-1 $-1 $351 $85 #
coedge $-1 $229 $229 $141 $230 reversed $138 $-1 #
edge $-1 $352 0 $352 6.283185307179586232 $229 $353 forward 7 unknown #
vertex $-1 $142 $354 #
ellipse-curve $-1 127.7157583185259995 30.01087137511234104 35.86730407258047393 0.6156614830463592591 0 0.788010747574649173 0.1970026868936622932 0 -0.1539153707615898148 1 I I #
face $-1 $355 $356 $24 $-1 $357 reversed single #
loop $-1 $-1 $358 $143 #
plane-surface $-1 -273.7458195448270999 79.48101203731158648 -99.72268722857268131 0.6018150122385121925 0 0.7986355182712320255 0.7986355182712320255 0 -0.6018150122385121925 forward_v I I I I #
coedge $-1 $359 $244 $360 $361 forward $144 $-1 #
coedge $-1 $362 $146 $359 $363 forward $91 $-1 #
coedge $-1 $146 $362 $364 $365 forward $91 $-1 #
coedge $-1 $247 $246 $146 $240 reversed $248 $-1 #
edge $-1 $366 -8.632381253801668208 $367 8.632381253801668208 $239 $368 forward 7 unknown #
coedge $-1 $148 $147 $369 $370 forward $55 $-1 #
coedge $-1 $371 $372 $147 $243 reversed $356 $-1 #
edge $-1 $250 -273.4360789819024831 $373 273.4360789819024831 $242 $374 forward 7 unknown #
coedge $-1 $236 $375 $148 $245 reversed $144 $-1 #
edge $-1 $376 -273.4360789819024831 $249 273.4360789819024831 $244 $377 forward 7 unknown #
coedge $-1 $239 $149 $375 $378 forward $248 $-1 #
coedge $-1 $149 $239 $371 $379 reversed $248 $-1 #
loop $-1 $-1 $246 $355 #
vertex $-1 $150 $380 #
vertex $-1 $150 $381 #
straight-curve $-1 -53.81782743282082038 79.48101203731158648 419.3078106844299668 0 1 0 I I #
loop $-1 $-1 $382 $94 #
coedge $-1 $253 $253 $154 $254 reversed $151 $-1 #
edge $-1 $383 0 $383 6.283185307179586232 $253 $384 forward 7 unknown #
vertex $-1 $155 $385 #
ellipse-curve $-1 2.459053377397429685 75.78142007139658176 39.63738295706470893 -0.7986355182712320255 0 0.6018150122385121925 0.9027225183577682888 0 1.197953277406847983 1 I I #
loop $-1 $-1 $386 $99 #
coedge $-1 $258 $258 $159 $259 reversed $156 $-1 #
edge $-1 $387 0 $387 6.283185307179586232 $258 $388 forward 7 unknown #
vertex $-1 $160 $389 #
ellipse-curve $-1 2.459053377397429685 83.1806040032265912 39.63738295706470893 -0.7986355182712320255 0 0.6018150122385121925 0.9027225183577682888 0 1.197953277406847983 1 I I #
face $-1 $-1 $176 $18 $-1 $390 reversed single #
loop $-1 $-1 $278 $161 #
plane-surface $-1 68.35901974547562077 88.1133932911132689 21.45032855020454576 0 -1 0 0 0 -1 forward_v I I I I #
coedge $-1 $391 $276 $279 $392 forward $162 $-1 #
coedge $-1 $282 $164 $165 $270 reversed $105 $-1 #
coedge $-1 $276 $391 $164 $268 reversed $162 $-1 #
edge $-1 $283 -21.45032855020454576 $393 21.45032855020454576 $267 $394 forward 7 unknown #
coedge $-1 $166 $165 $391 $395 forward $64 $-1 #
edge $-1 $274 -68.35901974547562077 $393 68.35901974547562077 $266 $396 forward 7 unknown #
coedge $-1 $279 $278 $166 $272 reversed $263 $-1 #
edge $-1 $397 -68.35901974547562077 $273 68.35901974547562077 $271 $398 forward 7 unknown #
vertex $-1 $168 $399 #
vertex $-1 $285 $400 #
straight-curve $-1 136.7180394909512415 44.05669664555663445 0 0 -1 0 I I #
coedge $-1 $265 $267 $169 $277 reversed $162 $-1 #
edge $-1 $280 -44.05669664555663445 $283 44.05669664555663445 $276 $401 forward 7 unknown #
coedge $-1 $271 $170 $175 $286 forward $263 $-1 #
coedge $-1 $170 $271 $265 $392 reversed $263 $-1 #
vertex $-1 $171 $402 #
straight-curve $-1 68.35901974547562077 88.1133932911132689 42.90065710040909153 -1 0 0 I I #
coedge $-1 $172 $266 $174 $285 reversed $105 $-1 #
vertex $-1 $277 $403 #
straight-curve $-1 68.35901974547562077 0 42.90065710040909153 1 0 0 I I #
edge $-1 $177 -21.45032855020454576 $274 21.45032855020454576 $174 $404 forward 7 unknown #
edge $-1 $178 -21.45032855020454576 $273 21.45032855020454576 $175 $405 forward 7 unknown #
point $-1 136.7180394909512415 0 42.90065710040909153 #
point $-1 136.7180394909512415 88.1133932911132689 42.90065710040909153 #
face $-1 $-1 $195 $19 $-1 $406 reversed single #
loop $-1 $-1 $305 $180 #
plane-surface $-1 68.35901974547562077 22.02757000377061658 2.952325105397731964 0 -1 0 0 0 -1 forward_v I I I I #
coedge $-1 $407 $303 $306 $408 forward $181 $-1 #
coedge $-1 $309 $183 $184 $297 reversed $113 $-1 #
coedge $-1 $303 $407 $183 $295 reversed $181 $-1 #
edge $-1 $310 -2.952325105397731964 $409 2.952325105397731964 $294 $410 forward 7 unknown #
coedge $-1 $185 $184 $407 $411 forward $68 $-1 #
edge $-1 $301 -68.35901974547562077 $409 68.35901974547562077 $293 $412 forward 7 unknown #
coedge $-1 $306 $305 $185 $299 reversed $290 $-1 #
edge $-1 $413 -68.35901974547562077 $300 68.35901974547562077 $298 $414 forward 7 unknown #
vertex $-1 $187 $415 #
vertex $-1 $312 $416 #
straight-curve $-1 136.7180394909512415 11.01378500188530829 0 0 -1 0 I I #
coedge $-1 $292 $294 $188 $304 reversed $181 $-1 #
edge $-1 $307 -11.01378500188530829 $310 11.01378500188530829 $303 $417 forward 7 unknown #
coedge $-1 $298 $189 $194 $313 forward $290 $-1 #
coedge $-1 $189 $298 $292 $408 reversed $290 $-1 #
vertex $-1 $190 $418 #
straight-curve $-1 68.35901974547562077 22.02757000377061658 5.904650210795463927 -1 0 0 I I #
coedge $-1 $191 $293 $193 $312 reversed $113 $-1 #
vertex $-1 $304 $419 #
straight-curve $-1 68.35901974547562077 0 5.904650210795463927 1 0 0 I I #
edge $-1 $196 -2.952325105397731964 $301 2.952325105397731964 $193 $420 forward 7 unknown #
edge $-1 $197 -2.952325105397731964 $300 2.952325105397731964 $194 $421 forward 7 unknown #
point $-1 136.7180394909512415 0 5.904650210795463927 #
point $-1 136.7180394909512415 22.02757000377061658 5.904650210795463927 #
face $-1 $-1 $214 $20 $-1 $422 reversed single #
loop $-1 $-1 $332 $199 #
plane-surface $-1 113.1547859369361078 32.0066967179477686 220.7412665031465053 0 -1 0 -0.6156614830463592591 0 -0.788010747574649173 forward_v I I I I #
coedge $-1 $423 $330 $333 $424 forward $200 $-1 #
coedge $-1 $336 $202 $203 $324 reversed $121 $-1 #
coedge $-1 $330 $423 $202 $322 reversed $200 $-1 #
edge $-1 $337 -136.7180394909512415 $425 136.7180394909512984 $321 $426 forward 7 unknown #
coedge $-1 $204 $203 $423 $427 forward $72 $-1 #
edge $-1 $328 -273.4360789819024831 $425 273.4360789819024831 $320 $428 forward 7 unknown #
coedge $-1 $333 $332 $204 $326 reversed $317 $-1 #
edge $-1 $429 -273.4360789819024831 $327 273.4360789819024831 $325 $430 forward 7 unknown #
vertex $-1 $206 $431 #
vertex $-1 $339 $432 #
straight-curve $-1 244.4533239971561329 27.01713336085919082 -55.33807990743792971 0 -1 0 I I #
coedge $-1 $319 $321 $207 $331 reversed $200 $-1 #
edge $-1 $334 -4.989563357088577789 $337 4.989563357088577789 $330 $433 forward 7 unknown #
coedge $-1 $325 $208 $213 $340 forward $317 $-1 #
coedge $-1 $208 $325 $319 $424 reversed $317 $-1 #
vertex $-1 $209 $434 #
straight-curve $-1 197.3268168891258654 32.0066967179477686 328.4765510093513967 -0.788010747574649173 0 0.6156614830463592591 I I #
coedge $-1 $210 $320 $212 $339 reversed $121 $-1 #
vertex $-1 $331 $435 #
straight-curve $-1 197.3268168891258654 22.02757000377061303 328.4765510093513967 0.788010747574649173 0 -0.6156614830463592591 I I #
edge $-1 $215 -136.7180394909512415 $328 136.7180394909512415 $212 $436 forward 7 unknown #
edge $-1 $216 -136.7180394909512415 $327 136.7180394909512415 $213 $437 forward 7 unknown #
point $-1 412.7973859015356197 22.02757000377061303 160.1324891049718815 #
point $-1 412.7973859015356197 32.0066967179477686 160.1324891049718815 #
coedge $-1 $343 $343 $-1 $438 reversed $218 $-1 #
vertex $-1 $220 $439 #
ellipse-curve $-1 127.1000968354796328 24.0233953466060477 35.07929332500582831 0.6156614830463592591 0 0.788010747574649173 0.1970026868936622932 0 -0.1539153707615898148 1 I I #
point $-1 127.9127610054196538 24.0233953466060477 35.71338870181888581 #
coedge $-1 $347 $347 $-1 $440 reversed $223 $-1 #
vertex $-1 $225 $441 #
ellipse-curve $-1 127.1000968354796328 27.01713336085919437 35.07929332500582831 0.6156614830463592591 0 0.788010747574649173 0.1970026868936622932 0 -0.1539153707615898148 1 I I #
point $-1 127.9127610054196538 27.01713336085919437 35.71338870181888581 #
coedge $-1 $351 $351 $-1 $442 reversed $228 $-1 #
vertex $-1 $230 $443 #
ellipse-curve $-1 127.1000968354796328 30.01087137511234104 35.07929332500582831 0.6156614830463592591 0 0.788010747574649173 0.1970026868936622932 0 -0.1539153707615898148 1 I I #
point $-1 127.9127610054196538 30.01087137511234104 35.71338870181888581 #
face $-1 $-1 $248 $24 $-1 $444 reversed single #
loop $-1 $-1 $371 $233 #
plane-surface $-1 -109.1878823258826401 88.11339329111325469 118.653077423192542 0 -1 0 0.7986355182712320255 0 -0.6018150122385121925 forward_v I I I I #
coedge $-1 $445 $369 $372 $446 forward $234 $-1 #
coedge $-1 $375 $236 $237 $363 reversed $144 $-1 #
coedge $-1 $369 $445 $236 $361 reversed $234 $-1 #
edge $-1 $376 -136.7180394909512131 $447 136.7180394909512415 $360 $448 forward 7 unknown #
coedge $-1 $238 $237 $445 $449 forward $91 $-1 #
edge $-1 $367 -273.4360789819024831 $447 273.4360789819024831 $359 $450 forward 7 unknown #
coedge $-1 $372 $371 $238 $365 reversed $356 $-1 #
edge $-1 $451 -273.4360789819024831 $366 273.4360789819024831 $364 $452 forward 7 unknown #
vertex $-1 $240 $453 #
vertex $-1 $378 $454 #
straight-curve $-1 164.557937218944403 79.48101203731158648 254.7498734654855639 0 -1 0 I I #
coedge $-1 $358 $360 $241 $370 reversed $234 $-1 #
edge $-1 $373 -8.632381253801668208 $376 8.632381253801668208 $369 $455 forward 7 unknown #
coedge $-1 $364 $242 $247 $379 forward $356 $-1 #
coedge $-1 $242 $364 $358 $446 reversed $356 $-1 #
vertex $-1 $243 $456 #
straight-curve $-1 -218.3757646517652518 88.11339329111325469 200.9320460326647435 -0.6018150122385121925 0 -0.7986355182712320255 I I #
coedge $-1 $244 $359 $246 $378 reversed $144 $-1 #
vertex $-1 $370 $457 #
straight-curve $-1 -218.3757646517652518 70.84863078350991827 200.9320460326647435 0.6018150122385121925 0 0.7986355182712320255 I I #
edge $-1 $249 -136.7180394909512415 $367 136.7180394909512415 $246 $458 forward 7 unknown #
edge $-1 $250 -136.7180394909512415 $366 136.7180394909512415 $247 $459 forward 7 unknown #
point $-1 -53.81782743282082038 70.84863078350991827 419.3078106844299668 #
point $-1 -53.81782743282082038 88.11339329111325469 419.3078106844299668 #
coedge $-1 $382 $382 $-1 $460 reversed $252 $-1 #
vertex $-1 $254 $461 #
ellipse-curve $-1 6.077079203342328206 75.78142007139658176 36.91100502006341344 -0.7986355182712320255 0 0.6018150122385121925 0.9027225183577682888 0 1.197953277406847983 1 I I #
point $-1 3.361775895755197752 75.78142007139658176 40.83533623447156202 #
coedge $-1 $386 $386 $-1 $462 reversed $257 $-1 #
vertex $-1 $259 $463 #
ellipse-curve $-1 6.077079203342328206 83.1806040032265912 36.91100502006341344 -0.7986355182712320255 0 0.6018150122385121925 0.9027225183577682888 0 1.197953277406847983 1 I I #
point $-1 3.361775895755197752 83.1806040032265912 40.83533623447156202 #
plane-surface $-1 136.7180394909512415 44.05669664555663445 21.45032855020454576 -1 0 0 0 0 1 forward_v I I I I #
coedge $-1 $267 $265 $269 $395 reversed $162 $-1 #
edge $-1 $280 -21.45032855020454576 $397 21.45032855020454576 $279 $464 forward 7 unknown #
vertex $-1 $395 $465 #
straight-curve $-1 0 0 21.45032855020454576 0 0 -1 I I #
edge $-1 $393 -44.05669664555663445 $397 44.05669664555663445 $391 $466 forward 7 unknown #
straight-curve $-1 68.35901974547562077 0 0 -1 0 0 I I #
vertex $-1 $272 $467 #
straight-curve $-1 68.35901974547562077 88.1133932911132689 0 1 0 0 I I #
point $-1 136.7180394909512415 88.1133932911132689 0 #
point $-1 136.7180394909512415 0 0 #
straight-curve $-1 0 44.05669664555663445 42.90065710040909153 0 -1 0 I I #
point $-1 0 88.1133932911132689 42.90065710040909153 #
point $-1 0 0 42.90065710040909153 #
straight-curve $-1 136.7180394909512415 0 21.45032855020454576 0 0 -1 I I #
straight-curve $-1 136.7180394909512415 88.1133932911132689 21.45032855020454576 0 0 -1 I I #
plane-surface $-1 136.7180394909512415 11.01378500188530829 2.952325105397731964 -1 0 0 0 0 1 forward_v I I I I #
coedge $-1 $294 $292 $296 $411 reversed $181 $-1 #
edge $-1 $307 -2.952325105397731964 $413 2.952325105397731964 $306 $468 forward 7 unknown #
vertex $-1 $411 $469 #
straight-curve $-1 0 0 2.952325105397731964 0 0 -1 I I #
edge $-1 $409 -11.01378500188530829 $413 11.01378500188530829 $407 $470 forward 7 unknown #
straight-curve $-1 68.35901974547562077 0 0 -1 0 0 I I #
vertex $-1 $299 $471 #
straight-curve $-1 68.35901974547562077 22.02757000377061658 0 1 0 0 I I #
point $-1 136.7180394909512415 22.02757000377061658 0 #
point $-1 136.7180394909512415 0 0 #
straight-curve $-1 0 11.01378500188530829 5.904650210795463927 0 -1 0 I I #
point $-1 0 22.02757000377061658 5.904650210795463927 #
point $-1 0 0 5.904650210795463927 #
straight-curve $-1 136.7180394909512415 0 2.952325105397731964 0 0 -1 I I #
straight-curve $-1 136.7180394909512415 22.02757000377061658 2.952325105397731964 0 0 -1 I I #
plane-surface $-1 328.6253549493458763 27.01713336085919082 52.3972045987669901 -0.788010747574649173 0 0.6156614830463592591 0.6156614830463592591 0 0.788010747574649173 forward_v I I I I #
coedge $-1 $321 $319 $323 $427 reversed $200 $-1 #
edge $-1 $334 -136.7180394909512415 $429 136.7180394909512984 $333 $472 forward 7 unknown #
vertex $-1 $427 $473 #
straight-curve $-1 -102.315783075473675 22.02757000377061303 389.085328407526049 -0.6156614830463592591 0 -0.788010747574649173 I I #
edge $-1 $425 -4.989563357088577789 $429 4.989563357088577789 $423 $474 forward 7 unknown #
straight-curve $-1 28.98275498474635015 22.02757000377061303 113.0059819969416139 -0.788010747574649173 0 0.6156614830463592591 I I #
vertex $-1 $326 $475 #
straight-curve $-1 28.98275498474635015 32.0066967179477686 113.0059819969416139 0.788010747574649173 0 -0.6156614830463592591 I I #
point $-1 244.4533239971561329 32.0066967179477686 -55.33807990743792971 #
point $-1 244.4533239971561329 22.02757000377061303 -55.33807990743792971 #
straight-curve $-1 -18.14375212328393161 27.01713336085919082 496.8206129137309404 0 -1 0 I I #
point $-1 -18.14375212328393161 32.0066967179477686 496.8206129137309404 #
point $-1 -18.14375212328393161 22.02757000377061303 496.8206129137309404 #
straight-curve $-1 328.6253549493458763 22.02757000377061303 52.3972045987669901 -0.6156614830463592591 0 -0.788010747574649173 I I #
straight-curve $-1 328.6253549493458763 32.0066967179477686 52.3972045987669901 -0.6156614830463592591 0 -0.788010747574649173 I I #
edge $-1 $476 1 $476 0 $343 $-1 forward 7 unknown #
point $-1 127.2970995223733013 24.0233953466060477 34.92537795424423308 #
edge $-1 $477 1 $477 0 $347 $-1 forward 7 unknown #
point $-1 127.2970995223733013 27.01713336085919437 34.92537795424423308 #
edge $-1 $478 1 $478 0 $351 $-1 forward 7 unknown #
point $-1 127.2970995223733013 30.01087137511234104 34.92537795424423308 #
plane-surface $-1 55.37005489306179129 79.48101203731158648 337.0288420749577654 -0.6018150122385121925 0 -0.7986355182712320255 -0.7986355182712320255 0 0.6018150122385121925 forward_v I I I I #
coedge $-1 $360 $358 $362 $449 reversed $234 $-1 #
edge $-1 $373 -136.7180394909512131 $451 136.7180394909512415 $372 $479 forward 7 unknown #
vertex $-1 $449 $480 #
straight-curve $-1 -273.7458195448270999 70.84863078350991827 -99.72268722857268131 0.7986355182712320255 0 -0.6018150122385121925 I I #
edge $-1 $447 -8.632381253801668208 $451 8.632381253801668208 $445 $481 forward 7 unknown #
straight-curve $-1 -2.842170943040400743e-14 70.84863078350991827 36.37410881372032634 -0.6018150122385121925 0 -0.7986355182712320255 I I #
vertex $-1 $365 $482 #
straight-curve $-1 -2.842170943040400743e-14 88.11339329111325469 36.37410881372032634 0.6018150122385121925 0 0.7986355182712320255 I I #
point $-1 164.557937218944403 88.11339329111325469 254.7498734654855639 #
point $-1 164.557937218944403 70.84863078350991827 254.7498734654855639 #
straight-curve $-1 -382.9337018707096831 79.48101203731158648 -17.44371861910047983 0 -1 0 I I #
point $-1 -382.9337018707096831 88.11339329111325469 -17.44371861910047983 #
point $-1 -382.9337018707096831 70.84863078350991827 -17.44371861910047983 #
straight-curve $-1 55.37005489306179129 70.84863078350991827 337.0288420749577654 0.7986355182712320255 0 -0.6018150122385121925 I I #
straight-curve $-1 55.37005489306179129 88.11339329111325469 337.0288420749577654 0.7986355182712320255 0 -0.6018150122385121925 I I #
edge $-1 $483 1 $483 0 $382 $-1 forward 7 unknown #
point $-1 6.979801721700096273 75.78142007139658176 38.10895829747026653 #
edge $-1 $484 1 $484 0 $386 $-1 forward 7 unknown #
point $-1 6.979801721700096273 83.1806040032265912 38.10895829747026653 #
straight-curve $-1 0 88.1133932911132689 21.45032855020454576 0 0 -1 I I #
point $-1 0 0 0 #
straight-curve $-1 0 44.05669664555663445 0 0 1 0 I I #
point $-1 0 88.1133932911132689 0 #
straight-curve $-1 0 22.02757000377061658 2.952325105397731964 0 0 -1 I I #
point $-1 0 0 0 #
straight-curve $-1 0 11.01378500188530829 0 0 1 0 I I #
point $-1 0 22.02757000377061658 0 #
straight-curve $-1 -102.315783075473675 32.0066967179477686 389.085328407526049 -0.6156614830463592591 0 -0.788010747574649173 I I #
point $-1 -186.4878140276634326 22.02757000377061303 281.3500439013211007 #
straight-curve $-1 -186.4878140276634326 27.01713336085919082 281.3500439013211007 0 1 0 I I #
point $-1 -186.4878140276634326 32.0066967179477686 281.3500439013211007 #
vertex $-1 $438 $485 #
vertex $-1 $440 $486 #
vertex $-1 $442 $487 #
straight-curve $-1 -273.7458195448270999 88.11339329111325469 -99.72268722857268131 0.7986355182712320255 0 -0.6018150122385121925 I I #
point $-1 -164.5579372189444598 70.84863078350991827 -182.0016558380448828 #
straight-curve $-1 -164.5579372189444598 79.48101203731158648 -182.0016558380448828 0 1 0 I I #
point $-1 -164.5579372189444598 88.11339329111325469 -182.0016558380448828 #
vertex $-1 $460 $488 #
vertex $-1 $462 $489 #
point $-1 126.9461814647180518 24.0233953466060477 34.8822906381121598 #
point $-1 126.9461814647180518 27.01713336085919437 34.8822906381121598 #
point $-1 126.9461814647180518 30.01087137511234104 34.8822906381121598 #
point $-1 7.275032480749175967 75.78142007139658176 36.0082825017056507 #
point $-1 7.275032480749175967 83.1806040032265912 36.0082825017056507 #
End-of-ACIS-data 