600 0 10 0           
34 FBMach with ACIS3D/Toolkit - 6.0.3 13 ACIS 6.0.3 NT 24 Mon Apr 16 11:11:55 2001 
1 9.9999999999999995e-007 1e-010 
body $10 $11 $-1 $12 #
body $-1 $13 $-1 $14 #
body $-1 $15 $-1 $16 #
body $-1 $17 $-1 $18 #
body $-1 $19 $-1 $20 #
body $-1 $21 $-1 $22 #
body $-1 $23 $-1 $24 #
body $-1 $25 $-1 $26 #
body $-1 $27 $-1 $28 #
bdycol-kcp $-1 1 1 $29 #
model_id-kcp-attrib $-1 $-1 $-1 $0 1 987433913 234 585760769 1 #
lump $-1 $-1 $30 $0 #
transform $-1 1 0 0 0 1 0 0 0 1 50.328684347056488 29.855460302523266 8.9417864411420886 1 rotate no_reflect no_shear #
lump $-1 $-1 $31 $1 #
transform $-1 1 0 0 0 1 0 0 0 1 50.328684347056488 29.855460302523266 8.9417864411420886 1 rotate no_reflect no_shear #
lump $-1 $-1 $32 $2 #
transform $-1 1 0 0 0 1 0 0 0 1 50.328684347056488 29.855460302523266 8.9417864411420886 1 rotate no_reflect no_shear #
lump $-1 $-1 $33 $3 #
transform $-1 1 0 0 0 1 0 0 0 1 50.328684347056488 29.855460302523266 8.9417864411420886 1 rotate no_reflect no_shear #
lump $-1 $-1 $34 $4 #
transform $-1 1 0 0 0 1 0 0 0 1 50.328684347056488 29.855460302523266 8.9417864411420886 1 rotate no_reflect no_shear #
lump $-1 $-1 $35 $5 #
transform $-1 1 0 0 0 1 0 0 0 1 50.328684347056488 29.855460302523266 8.9417864411420886 1 rotate no_reflect no_shear #
lump $-1 $-1 $36 $6 #
transform $-1 1 0 0 0 1 0 0 0 1 50.328684347056488 29.855460302523266 8.9417864411420886 1 rotate no_reflect no_shear #
lump $-1 $-1 $37 $7 #
transform $-1 1 0 0 0 1 0 0 0 1 50.328684347056488 29.855460302523266 8.9417864411420886 1 rotate no_reflect no_shear #
lump $-1 $-1 $38 $8 #
transform $-1 1 0 0 0 1 0 0 0 1 50.328684347056488 29.855460302523266 8.9417864411420886 1 rotate no_reflect no_shear #
body $39 $40 $-1 $41 #
shell $-1 $-1 $-1 $42 $-1 $11 #
shell $-1 $-1 $-1 $43 $-1 $13 #
shell $-1 $-1 $-1 $44 $-1 $15 #
shell $-1 $-1 $-1 $45 $-1 $17 #
shell $-1 $-1 $-1 $46 $-1 $19 #
shell $-1 $-1 $-1 $47 $-1 $21 #
shell $-1 $-1 $-1 $48 $-1 $23 #
shell $-1 $-1 $-1 $49 $-1 $25 #
shell $-1 $-1 $-1 $50 $-1 $27 #
model_id-kcp-attrib $-1 $-1 $-1 $29 1 987433913 250 586809346 1 #
lump $-1 $-1 $51 $29 #
transform $-1 1 0 0 0 1 0 0 0 1 50.328684347056488 29.855460302523266 8.9417864411420886 1 no_rotate no_reflect no_shear #
face $52 $53 $54 $30 $-1 $55 forward single #
face $-1 $56 $57 $31 $-1 $58 reversed single #
face $-1 $59 $60 $32 $-1 $61 forward single #
face $-1 $62 $63 $33 $-1 $64 reversed single #
face $-1 $65 $66 $34 $-1 $67 forward single #
face $-1 $68 $69 $35 $-1 $70 forward single #
face $-1 $71 $72 $36 $-1 $73 reversed single #
face $-1 $74 $75 $37 $-1 $76 forward single #
face $-1 $77 $78 $38 $-1 $79 forward single #
shell $-1 $-1 $-1 $80 $-1 $40 #
model_id-kcp-attrib $-1 $-1 $-1 $42 1 987433913 234 585760769 2 #
face $81 $82 $83 $30 $-1 $84 reversed single #
loop $-1 $-1 $85 $42 #
plane-surface $-1 0 0 8.9417864411420886 0 0 1 1 0 0 forward_v I I I I #
face $-1 $86 $87 $31 $-1 $88 reversed single #
loop $-1 $-1 $89 $43 #
plane-surface $-1 -47.228675843731224 -16.1313312903882 0 0 1 0 0 0 1 forward_v I I I I #
face $-1 $90 $91 $32 $-1 $92 reversed single #
loop $-1 $-1 $93 $44 #
plane-surface $-1 50.328684347056488 0 0 -1 0 0 0 0 1 forward_v I I I I #
face $-1 $94 $95 $33 $-1 $96 reversed single #
loop $-1 $-1 $97 $45 #
plane-surface $-1 19.261294845906392 28.472971427463971 117.26919885780352 1 0 0 0 -0.50000000669873634 -0.8660253999169214 forward_v I I I I #
face $-1 $98 $99 $34 $-1 $100 forward single #
loop $-1 $101 $102 $46 #
cone-surface $-1 25.873227283490912 20.799065390294636 1.9555363974877178 0 -0.50000000669873634 -0.8660253999169214 2.5 0 0 1 I I 0 1 2.5 forward I I I I #
face $-1 $103 $104 $35 $-1 $105 forward single #
loop $-1 $106 $107 $47 #
cone-surface $-1 35.791125939867705 20.799065390294636 1.9555363974877178 0 -0.50000000669873634 -0.8660253999169214 2.5 0 0 1 I I 0 1 2.5 forward I I I I #
face $-1 $108 $109 $36 $-1 $110 reversed single #
loop $-1 $-1 $111 $48 #
plane-surface $-1 42.403058377452254 -86.142347289852481 88.774170700372977 -1 0 0 0 -0.55919291073839883 0.82903756765294845 forward_v I I I I #
face $-1 $112 $113 $37 $-1 $114 forward single #
loop $-1 $115 $116 $49 #
cone-surface $-1 26.17352616290102 -26.496098886861386 6.1275019642835318 0 0.55919291073839883 -0.82903756765294845 1 0 0 1 I I 0 1 1 forward I I I I #
face $-1 $117 $118 $38 $-1 $119 forward single #
loop $-1 $120 $121 $50 #
cone-surface $-1 35.911245491631753 -26.496098886861386 6.1275019642835318 0 0.55919291073839883 -0.82903756765294845 1 0 0 1 I I 0 1 1 forward I I I I #
face $122 $123 $124 $51 $-1 $125 forward single #
model_id-kcp-attrib $-1 $-1 $-1 $53 1 987433913 234 585760769 3 #
face $126 $127 $128 $30 $-1 $129 reversed single #
loop $-1 $-1 $130 $53 #
plane-surface $-1 0 0 -8.9417864411420886 0 0 1 1 0 0 forward_v I I I I #
coedge $-1 $131 $132 $133 $134 forward $54 $-1 #
face $-1 $135 $136 $31 $-1 $137 reversed single #
loop $-1 $-1 $138 $56 #
plane-surface $-1 -47.228675843731224 -11.971887420239089 0 0 -1 0 0 0 -1 forward_v I I I I #
coedge $-1 $139 $140 $141 $142 reversed $57 $-1 #
face $-1 $143 $144 $32 $-1 $145 forward single #
loop $-1 $-1 $146 $59 #
plane-surface $-1 0 -29.855460302523266 0 0 1 0 0 0 1 forward_v I I I I #
coedge $-1 $147 $148 $149 $150 forward $60 $-1 #
face $-1 $151 $152 $33 $-1 $153 reversed single #
loop $-1 $-1 $154 $62 #
plane-surface $-1 30.832176611679323 -21.855713593869691 30.097360879899327 0 0.50000000669873634 0.8660253999169214 1 0 0 forward_v I I I I #
coedge $-1 $155 $156 $157 $158 reversed $63 $-1 #
face $-1 $-1 $159 $34 $-1 $160 forward single #
loop $-1 $161 $162 $65 #
cone-surface $-1 25.873227283490912 18.651992849550776 -1.7633022641859277 0 -0.50000000669873634 -0.8660253999169214 1.25 0 0 1 I I -0.70710678118654746 0.70710678118654768 1.25 forward I I I I #
loop $-1 $-1 $163 $46 #
coedge $-1 $102 $102 $164 $165 reversed $66 $-1 #
face $-1 $-1 $166 $35 $-1 $167 forward single #
loop $-1 $168 $169 $68 #
cone-surface $-1 35.791125939867705 18.651992849550776 -1.7633022641859277 0 -0.50000000669873634 -0.8660253999169214 1.25 0 0 1 I I -0.70710678118654746 0.70710678118654768 1.25 forward I I I I #
loop $-1 $-1 $170 $47 #
coedge $-1 $107 $107 $171 $172 reversed $69 $-1 #
face $-1 $173 $174 $36 $-1 $175 reversed single #
loop $-1 $-1 $176 $71 #
plane-surface $-1 31.042385827266394 -29.855460302523262 5.3254305918595151 0 -0.55919291073839883 0.82903756765294845 1 0 0 forward_v I I I I #
coedge $-1 $177 $178 $179 $180 reversed $72 $-1 #
face $-1 $-1 $181 $37 $-1 $182 forward single #
loop $-1 $183 $184 $74 #
cone-surface $-1 26.17352616290102 -25.537874980338046 4.7068766282397867 0 0.55919291073839883 -0.82903756765294845 0.5 0 0 1 I I -0.70710678118654746 0.70710678118654746 0.5 forward I I I I #
loop $-1 $-1 $185 $49 #
coedge $-1 $116 $116 $186 $187 reversed $75 $-1 #
face $-1 $-1 $188 $38 $-1 $189 forward single #
loop $-1 $190 $191 $77 #
cone-surface $-1 35.911245491631753 -25.537874980338046 4.7068766282397867 0 0.55919291073839883 -0.82903756765294845 0.5 0 0 1 I I -0.70710678118654746 0.70710678118654746 0.5 forward I I I I #
loop $-1 $-1 $192 $50 #
coedge $-1 $121 $121 $193 $194 reversed $78 $-1 #
model_id-kcp-attrib $-1 $-1 $-1 $80 1 987433913 250 586809346 2 #
face $195 $196 $197 $51 $-1 $198 reversed single #
loop $-1 $-1 $199 $80 #
plane-surface $-1 0 0 8.9417864411420886 0 0 1 1 0 0 forward_v I I I I #
model_id-kcp-attrib $-1 $-1 $-1 $82 1 987433913 234 585760769 4 #
face $200 $201 $202 $30 $-1 $203 reversed single #
loop $-1 $-1 $204 $82 #
plane-surface $-1 0 -29.855460302523266 0 0 1 0 0 0 1 forward_v I I I I #
coedge $-1 $205 $206 $207 $208 forward $83 $-1 #
coedge $-1 $209 $85 $210 $211 forward $54 $-1 #
coedge $-1 $85 $209 $212 $213 forward $54 $-1 #
coedge $-1 $214 $215 $85 $134 reversed $216 $-1 #
edge $217 $218 -29.855460302523266 $219 29.855460302523266 $133 $220 forward 7 unknown #
face $-1 $221 $222 $31 $-1 $223 reversed single #
loop $-1 $-1 $224 $86 #
plane-surface $-1 -44.128667340405961 -14.051609355313644 0 -1 0 0 0 0 1 forward_v I I I I #
coedge $-1 $225 $226 $227 $228 forward $87 $-1 #
coedge $-1 $229 $89 $230 $231 reversed $57 $-1 #
coedge $-1 $89 $229 $232 $233 reversed $57 $-1 #
coedge $-1 $234 $235 $89 $142 forward $236 $-1 #
edge $-1 $237 -8.9417864411420886 $238 8.9417864411420886 $141 $239 forward 7 unknown #
face $-1 $240 $241 $32 $-1 $242 reversed single #
loop $-1 $-1 $243 $90 #
plane-surface $-1 54.291497331858601 0 -4.113987213922278 0 0 1 1 0 0 forward_v I I I I #
coedge $-1 $244 $245 $148 $246 forward $91 $-1 #
coedge $-1 $247 $93 $248 $249 reversed $60 $-1 #
coedge $-1 $93 $247 $146 $246 reversed $60 $-1 #
coedge $-1 $250 $251 $93 $150 reversed $144 $-1 #
edge $-1 $252 -29.855460302523266 $253 29.855460302523266 $149 $254 forward 7 unknown #
face $-1 $255 $256 $33 $-1 $257 reversed single #
loop $-1 $-1 $258 $94 #
plane-surface $-1 42.403058377452254 28.472971427463971 117.26919885780352 -1 0 0 0 0.50000000669873634 0.8660253999169214 forward_v I I I I #
coedge $-1 $259 $260 $261 $262 reversed $95 $-1 #
coedge $-1 $156 $97 $263 $264 reversed $63 $-1 #
coedge $-1 $97 $155 $259 $265 reversed $63 $-1 #
coedge $-1 $261 $266 $97 $158 forward $267 $-1 #
edge $-1 $268 -15.61897458879128 $269 -0.55032982907491679 $157 $270 forward 7 unknown #
loop $-1 $-1 $164 $98 #
plane-surface $-1 30.832176611679323 -21.855713593869691 30.097360879899327 0 0.50000000669873634 0.8660253999169214 1 0 0 forward_v I I I I #
loop $-1 $-1 $271 $65 #
coedge $-1 $162 $162 $163 $272 reversed $99 $-1 #
coedge $-1 $163 $163 $162 $272 forward $101 $-1 #
coedge $-1 $164 $164 $102 $165 forward $159 $-1 #
edge $-1 $273 1.9038937676974588e-016 $273 6.2831853071795862 $164 $274 forward 7 unknown #
loop $-1 $-1 $171 $103 #
plane-surface $-1 30.832176611679323 -21.855713593869691 30.097360879899327 0 0.50000000669873634 0.8660253999169214 1 0 0 forward_v I I I I #
loop $-1 $-1 $275 $68 #
coedge $-1 $169 $169 $170 $276 reversed $104 $-1 #
coedge $-1 $170 $170 $169 $276 forward $106 $-1 #
coedge $-1 $171 $171 $107 $172 forward $166 $-1 #
edge $-1 $277 1.9038937676974588e-016 $277 6.2831853071795862 $171 $278 forward 7 unknown #
face $-1 $279 $280 $36 $-1 $281 forward single #
loop $-1 $-1 $282 $108 #
plane-surface $-1 19.681713277080533 -86.142347289852481 88.774170700372977 1 0 0 0 0.55919291073839883 -0.82903756765294845 forward_v I I I I #
coedge $-1 $283 $284 $285 $286 reversed $109 $-1 #
coedge $-1 $178 $111 $287 $288 reversed $72 $-1 #
coedge $-1 $111 $177 $283 $289 reversed $72 $-1 #
coedge $-1 $285 $290 $111 $180 forward $280 $-1 #
edge $-1 $291 13.215713342402974 $292 18.57718127141845 $179 $293 forward 7 unknown #
loop $-1 $-1 $186 $112 #
plane-surface $-1 31.042385827266394 -29.855460302523262 5.3254305918595151 0 -0.55919291073839883 0.82903756765294845 1 0 0 forward_v I I I I #
loop $-1 $-1 $294 $74 #
coedge $-1 $184 $184 $185 $295 reversed $113 $-1 #
coedge $-1 $185 $185 $184 $295 forward $115 $-1 #
coedge $-1 $186 $186 $116 $187 forward $181 $-1 #
edge $-1 $296 -1.9520069553058371e-015 $296 6.2831853071795845 $186 $297 forward 7 unknown #
loop $-1 $-1 $193 $117 #
plane-surface $-1 31.042385827266394 -29.855460302523262 5.3254305918595151 0 -0.55919291073839883 0.82903756765294845 1 0 0 forward_v I I I I #
loop $-1 $-1 $298 $77 #
coedge $-1 $191 $191 $192 $299 reversed $118 $-1 #
coedge $-1 $192 $192 $191 $299 forward $120 $-1 #
coedge $-1 $193 $193 $121 $194 forward $188 $-1 #
edge $-1 $300 -1.9520069553058371e-015 $300 6.2831853071795845 $193 $301 forward 7 unknown #
model_id-kcp-attrib $-1 $-1 $-1 $123 1 987433913 250 586809346 3 #
face $302 $303 $304 $51 $-1 $305 reversed single #
loop $-1 $-1 $306 $123 #
plane-surface $-1 0 0 -8.9417864411420886 0 0 1 1 0 0 forward_v I I I I #
coedge $-1 $307 $308 $309 $310 forward $124 $-1 #
model_id-kcp-attrib $-1 $-1 $-1 $127 1 987433913 234 585760769 5 #
face $311 $312 $313 $30 $-1 $314 reversed single #
loop $-1 $-1 $315 $127 #
plane-surface $-1 -50.328684347056488 0 0 1 0 0 0 0 -1 forward_v I I I I #
coedge $-1 $316 $212 $317 $318 forward $128 $-1 #
coedge $-1 $319 $130 $316 $320 forward $83 $-1 #
coedge $-1 $130 $319 $321 $322 forward $83 $-1 #
coedge $-1 $215 $214 $130 $208 reversed $216 $-1 #
edge $-1 $323 -29.855460302523266 $324 29.855460302523266 $207 $325 forward 7 unknown #
coedge $-1 $132 $131 $326 $327 forward $54 $-1 #
coedge $-1 $328 $329 $131 $211 reversed $313 $-1 #
edge $330 $219 -50.328684347056488 $331 50.328684347056488 $210 $332 forward 7 unknown #
coedge $-1 $204 $333 $132 $213 reversed $128 $-1 #
edge $334 $335 -50.328684347056488 $218 50.328684347056488 $212 $336 forward 7 unknown #
coedge $-1 $207 $133 $333 $337 forward $216 $-1 #
coedge $-1 $133 $207 $328 $338 reversed $216 $-1 #
loop $-1 $-1 $214 $312 #
attrib_edge_convexity-kcp-attrib $-1 $339 $-1 $134 1 #
vertex $-1 $134 $340 #
vertex $-1 $134 $341 #
straight-curve $-1 50.328684347056488 0 8.9417864411420886 0 1 0 I I #
face $-1 $342 $343 $31 $-1 $344 forward single #
loop $-1 $-1 $345 $135 #
plane-surface $-1 0 0 -8.9417864411420886 0 0 1 1 0 0 forward_v I I I I #
coedge $-1 $346 $347 $229 $348 forward $136 $-1 #
coedge $-1 $349 $138 $345 $350 reversed $87 $-1 #
coedge $-1 $138 $349 $351 $352 reversed $87 $-1 #
coedge $-1 $347 $346 $138 $228 reversed $136 $-1 #
edge $-1 $353 -8.9417864411420886 $354 8.9417864411420886 $227 $355 forward 7 unknown #
coedge $-1 $140 $139 $224 $348 reversed $57 $-1 #
coedge $-1 $356 $357 $139 $231 forward $222 $-1 #
edge $-1 $358 20.514329418540349 $237 26.714346425190875 $230 $359 forward 7 unknown #
coedge $-1 $360 $361 $140 $233 forward $343 $-1 #
edge $-1 $238 -26.714346425190875 $362 -20.514329418540349 $232 $363 forward 7 unknown #
coedge $-1 $364 $141 $361 $365 reversed $236 $-1 #
coedge $-1 $141 $364 $356 $366 reversed $236 $-1 #
loop $-1 $-1 $364 $342 #
vertex $-1 $366 $367 #
vertex $-1 $142 $368 #
straight-curve $-1 -50.328684347056488 -16.1313312903882 0 0 0 1 I I #
face $-1 $369 $370 $32 $-1 $371 reversed single #
loop $-1 $-1 $372 $143 #
plane-surface $-1 54.291497331858601 0 -7.113987213922278 0 0 1 1 0 0 forward_v I I I I #
coedge $-1 $251 $250 $373 $374 forward $144 $-1 #
coedge $-1 $375 $146 $376 $377 reversed $91 $-1 #
coedge $-1 $146 $375 $250 $378 reversed $91 $-1 #
edge $-1 $252 4.113987213922278 $379 7.113987213922278 $146 $380 forward 7 unknown #
coedge $-1 $148 $147 $381 $382 forward $60 $-1 #
coedge $-1 $383 $384 $147 $249 forward $385 $-1 #
edge $-1 $386 -7.113987213922278 $253 -4.113987213922278 $248 $387 forward 7 unknown #
coedge $-1 $243 $149 $245 $378 forward $144 $-1 #
coedge $-1 $149 $243 $383 $388 forward $144 $-1 #
vertex $-1 $246 $389 #
vertex $-1 $388 $390 #
straight-curve $-1 50.328684347056488 0 -4.113987213922278 0 1 0 I I #
face $-1 $-1 $267 $33 $-1 $391 forward single #
loop $-1 $-1 $392 $151 #
plane-surface $-1 0 29.855460302523266 0 0 -1 0 0 0 -1 forward_v I I I I #
coedge $-1 $393 $394 $395 $396 reversed $152 $-1 #
coedge $-1 $397 $154 $156 $265 forward $95 $-1 #
coedge $-1 $154 $397 $393 $398 forward $95 $-1 #
coedge $-1 $395 $157 $154 $262 forward $267 $-1 #
edge $-1 $269 3.8452065400667301 $399 26.986970071612593 $261 $400 forward 7 unknown #
coedge $-1 $401 $402 $155 $264 forward $256 $-1 #
edge $-1 $403 -58.392699251513406 $268 -49.692812987759666 $263 $404 forward 7 unknown #
edge $-1 $269 42.31114831065203 $403 59.710920605046525 $156 $405 forward 7 unknown #
coedge $-1 $157 $395 $401 $406 forward $267 $-1 #
loop $-1 $-1 $395 $255 #
vertex $-1 $264 $407 #
vertex $-1 $158 $408 #
straight-curve $-1 19.261294845906392 14.236485713731986 8.9417864411420922 0 -1 0 I I #
coedge $-1 $271 $271 $-1 $409 reversed $161 $-1 #
edge $-1 $410 0 $410 6.2831853071795862 $162 $411 forward 7 unknown #
vertex $-1 $165 $412 #
ellipse-curve $-1 25.873227283490912 22.321137922665081 4.5918433092652187 0 0.50000000669873634 0.8660253999169214 2.5 0 0 1 I I #
coedge $-1 $275 $275 $-1 $413 reversed $168 $-1 #
edge $-1 $414 0 $414 6.2831853071795862 $169 $415 forward 7 unknown #
vertex $-1 $172 $416 #
ellipse-curve $-1 35.791125939867705 22.321137922665081 4.5918433092652187 0 0.50000000669873634 0.8660253999169214 2.5 0 0 1 I I #
face $-1 $-1 $417 $36 $-1 $418 reversed single #
loop $-1 $-1 $179 $173 #
plane-surface $-1 0 0 8.9417864411420886 0 0 1 1 0 0 forward_v I I I I #
coedge $-1 $419 $420 $421 $422 reversed $174 $-1 #
coedge $-1 $423 $176 $178 $289 forward $109 $-1 #
coedge $-1 $176 $423 $419 $424 forward $109 $-1 #
coedge $-1 $421 $179 $176 $286 forward $280 $-1 #
edge $-1 $292 -26.881865463819057 $425 -4.1605203634473362 $285 $426 forward 7 unknown #
coedge $-1 $427 $428 $177 $288 forward $417 $-1 #
edge $-1 $429 -39.061654758326974 $291 -35.445298909044396 $287 $430 forward 7 unknown #
edge $-1 $292 -6.4670988845464343 $429 4.4353223341415584e-015 $178 $431 forward 7 unknown #
coedge $-1 $179 $421 $427 $432 forward $280 $-1 #
vertex $-1 $180 $433 #
vertex $-1 $180 $434 #
straight-curve $-1 42.403058377452254 -43.07117364492624 8.9417864411420922 0 1 0 I I #
coedge $-1 $294 $294 $-1 $435 reversed $183 $-1 #
edge $-1 $436 0 $436 6.2831853071795862 $184 $437 forward 7 unknown #
vertex $-1 $187 $438 #
ellipse-curve $-1 26.17352616290102 -27.174726338015528 7.133608516500801 0 -0.55919291073839883 0.82903756765294845 1 0 0 1 I I #
coedge $-1 $298 $298 $-1 $439 reversed $190 $-1 #
edge $-1 $440 0 $440 6.2831853071795862 $191 $441 forward 7 unknown #
vertex $-1 $194 $442 #
ellipse-curve $-1 35.911245491631753 -27.174726338015528 7.133608516500801 0 -0.55919291073839883 0.82903756765294845 1 0 0 1 I I #
model_id-kcp-attrib $-1 $-1 $-1 $196 1 987433913 250 586809346 4 #
face $443 $444 $445 $51 $-1 $446 reversed single #
loop $-1 $-1 $447 $196 #
plane-surface $-1 0 -29.855460302523266 0 0 1 0 0 0 1 forward_v I I I I #
coedge $-1 $448 $449 $450 $451 forward $197 $-1 #
coedge $-1 $452 $199 $453 $454 forward $124 $-1 #
coedge $-1 $199 $452 $455 $456 forward $124 $-1 #
coedge $-1 $457 $458 $199 $310 reversed $459 $-1 #
edge $-1 $460 -29.855460302523266 $461 29.855460302523266 $309 $462 forward 7 unknown #
model_id-kcp-attrib $-1 $-1 $-1 $201 1 987433913 234 585760769 6 #
face $463 $-1 $216 $30 $-1 $464 reversed single #
loop $-1 $-1 $328 $201 #
plane-surface $-1 0 29.855460302523266 0 0 -1 0 0 0 -1 forward_v I I I I #
coedge $-1 $465 $326 $329 $466 forward $202 $-1 #
coedge $-1 $333 $204 $205 $320 reversed $128 $-1 #
coedge $-1 $326 $465 $204 $318 reversed $202 $-1 #
edge $467 $335 -8.9417864411420886 $468 8.9417864411420886 $317 $469 forward 7 unknown #
coedge $-1 $206 $205 $465 $470 forward $83 $-1 #
edge $471 $324 -50.328684347056488 $468 50.328684347056488 $316 $472 forward 7 unknown #
coedge $-1 $329 $328 $206 $322 reversed $313 $-1 #
edge $-1 $473 -50.328684347056488 $323 50.328684347056488 $321 $474 forward 7 unknown #
vertex $-1 $208 $475 #
vertex $-1 $337 $476 #
straight-curve $-1 50.328684347056488 0 -8.9417864411420886 0 -1 0 I I #
coedge $-1 $315 $317 $209 $327 reversed $202 $-1 #
edge $477 $331 -29.855460302523266 $335 29.855460302523266 $326 $478 forward 7 unknown #
coedge $-1 $321 $210 $215 $338 forward $313 $-1 #
coedge $-1 $210 $321 $315 $466 reversed $313 $-1 #
attrib_edge_convexity-kcp-attrib $-1 $479 $-1 $211 1 #
vertex $-1 $211 $480 #
straight-curve $-1 0 29.855460302523266 8.9417864411420886 -1 0 0 I I #
coedge $-1 $212 $316 $214 $337 reversed $128 $-1 #
attrib_edge_convexity-kcp-attrib $-1 $481 $-1 $213 1 #
vertex $-1 $327 $482 #
straight-curve $-1 0 -29.855460302523266 8.9417864411420886 1 0 0 I I #
edge $483 $218 -8.9417864411420886 $324 8.9417864411420886 $214 $484 forward 7 unknown #
edge $-1 $219 -8.9417864411420886 $323 8.9417864411420886 $215 $485 forward 7 unknown #
convexity-sys-attrib $-1 $-1 $217 $134 #
point $-1 50.328684347056488 -29.855460302523266 8.9417864411420886 #
point $-1 50.328684347056488 29.855460302523266 8.9417864411420886 #
face $-1 $-1 $236 $31 $-1 $486 reversed single #
loop $-1 $-1 $351 $221 #
plane-surface $-1 0 0 8.9417864411420886 0 0 1 1 0 0 forward_v I I I I #
coedge $-1 $357 $356 $225 $350 forward $222 $-1 #
coedge $-1 $227 $224 $357 $487 reversed $136 $-1 #
coedge $-1 $224 $227 $360 $488 reversed $136 $-1 #
edge $-1 $362 -8.9417864411420886 $358 8.9417864411420886 $224 $489 forward 7 unknown #
coedge $-1 $226 $225 $364 $490 reversed $87 $-1 #
edge $-1 $491 -26.714346425190875 $354 -20.514329418540349 $345 $492 forward 7 unknown #
coedge $-1 $361 $360 $226 $352 forward $343 $-1 #
edge $-1 $353 20.514329418540349 $493 26.714346425190875 $351 $494 forward 7 unknown #
vertex $-1 $352 $495 #
vertex $-1 $350 $496 #
straight-curve $-1 -44.128667340405961 -11.971887420239089 0 0 0 -1 I I #
coedge $-1 $345 $230 $235 $366 forward $222 $-1 #
coedge $-1 $230 $345 $346 $487 forward $222 $-1 #
vertex $-1 $231 $497 #
straight-curve $-1 -23.614337921865612 -16.1313312903882 -8.9417864411420886 -1 0 0 I I #
coedge $-1 $351 $232 $347 $488 forward $343 $-1 #
coedge $-1 $232 $351 $234 $365 forward $343 $-1 #
vertex $-1 $233 $498 #
straight-curve $-1 -23.614337921865612 -16.1313312903882 8.9417864411420886 1 0 0 I I #
coedge $-1 $235 $234 $349 $490 forward $236 $-1 #
edge $-1 $493 11.971887420239089 $238 16.1313312903882 $234 $499 forward 7 unknown #
edge $-1 $237 -16.1313312903882 $491 -11.971887420239089 $235 $500 forward 7 unknown #
point $-1 -50.328684347056488 -16.1313312903882 -8.9417864411420886 #
point $-1 -50.328684347056488 -16.1313312903882 8.9417864411420886 #
face $-1 $-1 $385 $32 $-1 $501 reversed single #
loop $-1 $-1 $502 $240 #
plane-surface $-1 58.254310316660721 0 -5.613987213922278 -1 0 0 0 0 1 forward_v I I I I #
coedge $-1 $376 $503 $504 $505 forward $241 $-1 #
coedge $-1 $502 $506 $243 $374 reversed $370 $-1 #
edge $-1 $507 -29.855460302523266 $508 29.855460302523266 $373 $509 forward 7 unknown #
coedge $-1 $245 $244 $502 $510 reversed $91 $-1 #
coedge $-1 $381 $372 $244 $377 forward $241 $-1 #
edge $-1 $511 -3.9628129848021203 $379 3.9628129848021203 $244 $512 forward 7 unknown #
edge $-1 $252 -3.9628129848021203 $507 3.9628129848021203 $245 $513 forward 7 unknown #
vertex $-1 $246 $514 #
straight-curve $-1 50.328684347056488 -29.855460302523266 0 0 0 -1 I I #
coedge $-1 $503 $376 $247 $382 reversed $241 $-1 #
edge $-1 $386 -29.855460302523266 $379 29.855460302523266 $381 $515 forward 7 unknown #
coedge $-1 $516 $248 $251 $388 reversed $385 $-1 #
coedge $-1 $248 $516 $503 $517 reversed $385 $-1 #
loop $-1 $-1 $248 $369 #
vertex $-1 $249 $518 #
straight-curve $-1 50.328684347056488 29.855460302523266 0 0 0 1 I I #
edge $-1 $508 -3.9628129848021203 $253 3.9628129848021203 $383 $519 forward 7 unknown #
point $-1 50.32868434705648 -29.855460302523266 -4.113987213922278 #
point $-1 50.32868434705648 29.855460302523266 -4.113987213922278 #
plane-surface $-1 0 0 8.9417864411420886 0 0 1 1 0 0 forward_v I I I I #
coedge $-1 $402 $401 $394 $520 forward $256 $-1 #
coedge $-1 $394 $258 $260 $398 reversed $152 $-1 #
coedge $-1 $258 $393 $392 $520 reversed $152 $-1 #
coedge $-1 $266 $261 $258 $396 forward $267 $-1 #
edge $-1 $399 0.55032982907491679 $521 15.61897458879128 $395 $522 forward 7 unknown #
coedge $-1 $260 $259 $402 $523 reversed $95 $-1 #
edge $-1 $524 -59.710920605046525 $399 -42.31114831065203 $393 $525 forward 7 unknown #
vertex $-1 $262 $526 #
straight-curve $-1 15.416088305839661 14.786815542806893 8.9417864411420886 1 0 0 I I #
coedge $-1 $392 $263 $266 $406 reversed $256 $-1 #
coedge $-1 $263 $392 $397 $523 forward $256 $-1 #
vertex $-1 $264 $527 #
straight-curve $-1 19.261294845906392 29.855460302523266 58.634599428901758 0 0 1 I I #
straight-curve $-1 19.261294845906392 -21.855713593869691 30.097360879899327 0 0.8660253999169214 -0.50000000669873634 I I #
edge $-1 $521 -42.403058377452254 $268 -19.261294845906392 $401 $528 forward 7 unknown #
point $-1 19.261294845906392 29.855460302523266 8.9417864411420886 #
point $-1 19.261294845906392 14.786815542806902 8.9417864411420886 #
edge $-1 $529 1 $529 0 $271 $-1 forward 7 unknown #
vertex $-1 $272 $530 #
ellipse-curve $-1 25.873227283490912 19.276992857924196 -0.68077051428977553 0 0.50000000669873634 0.8660253999169214 2.5 0 0 1 I I #
point $-1 28.373227283490912 22.321137922665077 4.5918433092652116 #
edge $-1 $531 1 $531 0 $275 $-1 forward 7 unknown #
vertex $-1 $276 $532 #
ellipse-curve $-1 35.791125939867705 19.276992857924196 -0.68077051428977553 0 0.50000000669873634 0.8660253999169214 2.5 0 0 1 I I #
point $-1 38.291125939867705 22.321137922665077 4.5918433092652116 #
loop $-1 $-1 $287 $279 #
plane-surface $-1 0 -29.855460302523266 0 0 1 0 0 0 1 forward_v I I I I #
coedge $-1 $420 $282 $284 $424 reversed $174 $-1 #
coedge $-1 $282 $419 $533 $534 reversed $174 $-1 #
coedge $-1 $290 $285 $282 $422 forward $280 $-1 #
edge $-1 $425 -18.57718127141845 $535 -13.215713342402974 $421 $536 forward 7 unknown #
coedge $-1 $284 $283 $428 $537 reversed $109 $-1 #
edge $-1 $538 -4.4353223341415584e-015 $425 6.4670988845464343 $419 $539 forward 7 unknown #
vertex $-1 $286 $540 #
straight-curve $-1 15.521192913633197 -24.493992373507787 8.9417864411420886 -1 0 0 I I #
coedge $-1 $533 $287 $290 $432 reversed $417 $-1 #
coedge $-1 $287 $533 $423 $537 forward $417 $-1 #
vertex $-1 $288 $541 #
straight-curve $-1 42.403058377452254 -29.855460302523266 44.387085350186489 0 0 1 I I #
straight-curve $-1 42.403058377452254 -29.855460302523262 5.3254305918595151 0 -0.82903756765294845 -0.55919291073839883 I I #
edge $-1 $535 19.681713277080533 $291 42.403058377452254 $427 $542 forward 7 unknown #
point $-1 42.403058377452254 -29.855460302523266 8.9417864411420886 #
point $-1 42.403058377452254 -24.49399237350779 8.9417864411420886 #
edge $-1 $543 1 $543 0 $294 $-1 forward 7 unknown #
vertex $-1 $295 $544 #
ellipse-curve $-1 26.17352616290102 -25.817471435707244 5.1213954120662608 0 -0.55919291073839883 0.82903756765294845 1 0 0 1 I I #
point $-1 27.17352616290102 -27.174726338015532 7.1336085165008027 #
edge $-1 $545 1 $545 0 $298 $-1 forward 7 unknown #
vertex $-1 $299 $546 #
ellipse-curve $-1 35.911245491631753 -25.817471435707244 5.1213954120662608 0 -0.55919291073839883 0.82903756765294845 1 0 0 1 I I #
point $-1 36.911245491631753 -27.174726338015532 7.1336085165008027 #
model_id-kcp-attrib $-1 $-1 $-1 $303 1 987433913 250 586809346 5 #
face $547 $548 $549 $51 $-1 $550 reversed single #
loop $-1 $-1 $551 $303 #
plane-surface $-1 -50.328684347056488 0 0 1 0 0 0 0 -1 forward_v I I I I #
coedge $-1 $552 $455 $553 $554 forward $304 $-1 #
coedge $-1 $555 $306 $552 $556 forward $197 $-1 #
coedge $-1 $306 $555 $557 $558 forward $197 $-1 #
coedge $-1 $458 $457 $306 $451 reversed $459 $-1 #
edge $-1 $559 -29.855460302523266 $560 29.855460302523266 $450 $561 forward 7 unknown #
coedge $-1 $308 $307 $562 $563 forward $124 $-1 #
coedge $-1 $564 $565 $307 $454 reversed $549 $-1 #
edge $-1 $461 -50.328684347056488 $566 50.328684347056488 $453 $567 forward 7 unknown #
coedge $-1 $447 $568 $308 $456 reversed $304 $-1 #
edge $-1 $569 -50.328684347056488 $460 50.328684347056488 $455 $570 forward 7 unknown #
coedge $-1 $450 $309 $568 $571 forward $459 $-1 #
coedge $-1 $309 $450 $564 $572 reversed $459 $-1 #
loop $-1 $-1 $457 $548 #
vertex $-1 $310 $573 #
vertex $-1 $310 $574 #
straight-curve $-1 50.328684347056488 0 8.9417864411420886 0 1 0 I I #
model_id-kcp-attrib $-1 $-1 $-1 $312 1 987433913 234 585760769 7 #
plane-surface $-1 50.328684347056488 0 0 -1 0 0 0 0 1 forward_v I I I I #
coedge $-1 $317 $315 $319 $470 reversed $202 $-1 #
edge $575 $331 -8.9417864411420886 $473 8.9417864411420886 $329 $576 forward 7 unknown #
attrib_edge_convexity-kcp-attrib $-1 $577 $-1 $318 1 #
vertex $-1 $470 $578 #
straight-curve $-1 -50.328684347056488 -29.855460302523266 0 0 0 -1 I I #
edge $579 $468 -29.855460302523266 $473 29.855460302523266 $465 $580 forward 7 unknown #
attrib_edge_convexity-kcp-attrib $-1 $581 $-1 $320 1 #
straight-curve $-1 0 -29.855460302523266 -8.9417864411420886 -1 0 0 I I #
vertex $-1 $322 $582 #
straight-curve $-1 0 29.855460302523266 -8.9417864411420886 1 0 0 I I #
point $-1 50.328684347056488 29.855460302523266 -8.9417864411420886 #
point $-1 50.328684347056488 -29.855460302523266 -8.9417864411420886 #
attrib_edge_convexity-kcp-attrib $-1 $583 $-1 $327 1 #
straight-curve $-1 -50.328684347056488 0 8.9417864411420886 0 -1 0 I I #
convexity-sys-attrib $-1 $-1 $330 $211 #
point $-1 -50.328684347056488 29.855460302523266 8.9417864411420886 #
convexity-sys-attrib $-1 $-1 $334 $213 #
point $-1 -50.328684347056488 -29.855460302523266 8.9417864411420886 #
attrib_edge_convexity-kcp-attrib $-1 $584 $-1 $337 1 #
straight-curve $-1 50.328684347056488 -29.855460302523266 0 0 0 -1 I I #
straight-curve $-1 50.328684347056488 29.855460302523266 0 0 0 -1 I I #
plane-surface $-1 -50.328684347056488 0 0 1 0 0 0 0 -1 forward_v I I I I #
edge $-1 $354 4.9460827425822664 $358 9.1055266127313779 $357 $585 forward 7 unknown #
edge $-1 $362 -9.1055266127313779 $353 -4.9460827425822664 $360 $586 forward 7 unknown #
straight-curve $-1 -44.128667340405961 -16.1313312903882 0 0 0 -1 I I #
edge $-1 $493 -8.9417864411420886 $491 8.9417864411420886 $364 $587 forward 7 unknown #
vertex $-1 $490 $588 #
straight-curve $-1 -23.614337921865612 -11.971887420239089 -8.9417864411420886 1 0 0 I I #
vertex $-1 $365 $589 #
straight-curve $-1 -23.614337921865612 -11.971887420239089 8.9417864411420886 -1 0 0 I I #
point $-1 -44.128667340405961 -11.971887420239089 8.9417864411420886 #
point $-1 -44.128667340405961 -11.971887420239089 -8.9417864411420886 #
point $-1 -44.128667340405961 -16.1313312903882 -8.9417864411420886 #
point $-1 -44.128667340405961 -16.1313312903882 8.9417864411420886 #
straight-curve $-1 -50.328684347056488 0 8.9417864411420886 0 -1 0 I I #
straight-curve $-1 -50.328684347056488 0 -8.9417864411420886 0 1 0 I I #
plane-surface $-1 0 29.855460302523266 0 0 -1 0 0 0 -1 forward_v I I I I #
coedge $-1 $504 $373 $375 $510 forward $370 $-1 #
coedge $-1 $372 $381 $384 $517 forward $241 $-1 #
coedge $-1 $506 $502 $372 $505 reversed $370 $-1 #
edge $-1 $590 -29.855460302523266 $511 29.855460302523266 $504 $591 forward 7 unknown #
coedge $-1 $373 $504 $516 $592 reversed $370 $-1 #
vertex $-1 $374 $593 #
vertex $-1 $374 $594 #
straight-curve $-1 58.254310316660721 0 -4.113987213922278 0 1 0 I I #
edge $-1 $507 -1.5 $511 1.5 $502 $595 forward 7 unknown #
vertex $-1 $510 $596 #
straight-curve $-1 54.291497331858601 -29.855460302523266 -7.113987213922278 -1 0 0 I I #
straight-curve $-1 54.291497331858601 -29.855460302523266 -4.113987213922278 1 0 0 I I #
point $-1 50.32868434705648 -29.855460302523266 -7.113987213922278 #
straight-curve $-1 50.328684347056488 0 -7.113987213922278 0 -1 0 I I #
coedge $-1 $384 $383 $506 $592 forward $385 $-1 #
edge $-1 $386 -3.9628129848021203 $590 3.9628129848021203 $384 $597 forward 7 unknown #
point $-1 50.32868434705648 29.855460302523266 -7.113987213922278 #
straight-curve $-1 54.291497331858601 29.855460302523266 -4.113987213922278 -1 0 0 I I #
edge $-1 $521 49.692812987759666 $524 58.392699251513406 $392 $598 forward 7 unknown #
vertex $-1 $406 $599 #
straight-curve $-1 42.403058377452254 14.236485713731986 8.9417864411420922 0 1 0 I I #
edge $-1 $524 -26.986970071612593 $403 -3.8452065400667301 $402 $600 forward 7 unknown #
vertex $-1 $523 $601 #
straight-curve $-1 42.403058377452254 -21.855713593869691 30.097360879899327 0 -0.8660253999169214 0.50000000669873634 I I #
point $-1 42.403058377452254 14.786815542806902 8.9417864411420886 #
point $-1 19.261294845906392 29.855460302523266 0.24190017738835223 #
straight-curve $-1 0 29.855460302523266 8.9417864411420886 -1 0 0 I I #
vertex $-1 $409 $602 #
point $-1 28.373227283490912 19.276992857924196 -0.68077051428977553 #
vertex $-1 $413 $603 #
point $-1 38.291125939867705 19.276992857924196 -0.68077051428977553 #
coedge $-1 $428 $427 $420 $534 forward $417 $-1 #
edge $-1 $535 35.445298909044396 $538 39.061654758326974 $533 $604 forward 7 unknown #
vertex $-1 $432 $605 #
straight-curve $-1 19.681713277080533 -43.07117364492624 8.9417864411420922 0 -1 0 I I #
edge $-1 $538 4.1605203634473362 $429 26.881865463819057 $428 $606 forward 7 unknown #
vertex $-1 $537 $607 #
straight-curve $-1 19.681713277080533 -29.855460302523262 5.3254305918595151 0 0.82903756765294845 0.55919291073839883 I I #
point $-1 19.681713277080533 -24.49399237350779 8.9417864411420886 #
point $-1 42.403058377452254 -29.855460302523266 5.3254305918595124 #
straight-curve $-1 0 -29.855460302523266 8.9417864411420886 1 0 0 I I #
vertex $-1 $435 $608 #
point $-1 27.17352616290102 -25.817471435707244 5.1213954120662608 #
vertex $-1 $439 $609 #
point $-1 36.911245491631753 -25.817471435707244 5.1213954120662608 #
model_id-kcp-attrib $-1 $-1 $-1 $444 1 987433913 250 586809346 6 #
face $610 $-1 $459 $51 $-1 $611 reversed single #
loop $-1 $-1 $564 $444 #
plane-surface $-1 0 29.855460302523266 0 0 -1 0 0 0 -1 forward_v I I I I #
coedge $-1 $612 $562 $565 $613 forward $445 $-1 #
coedge $-1 $568 $447 $448 $556 reversed $304 $-1 #
coedge $-1 $562 $612 $447 $554 reversed $445 $-1 #
edge $-1 $569 -8.9417864411420886 $614 8.9417864411420886 $553 $615 forward 7 unknown #
coedge $-1 $449 $448 $612 $616 forward $197 $-1 #
edge $-1 $560 -50.328684347056488 $614 50.328684347056488 $552 $617 forward 7 unknown #
coedge $-1 $565 $564 $449 $558 reversed $549 $-1 #
edge $-1 $618 -50.328684347056488 $559 50.328684347056488 $557 $619 forward 7 unknown #
vertex $-1 $451 $620 #
vertex $-1 $571 $621 #
straight-curve $-1 50.328684347056488 0 -8.9417864411420886 0 -1 0 I I #
coedge $-1 $551 $553 $452 $563 reversed $445 $-1 #
edge $-1 $566 -29.855460302523266 $569 29.855460302523266 $562 $622 forward 7 unknown #
coedge $-1 $557 $453 $458 $572 forward $549 $-1 #
coedge $-1 $453 $557 $551 $613 reversed $549 $-1 #
vertex $-1 $454 $623 #
straight-curve $-1 0 29.855460302523266 8.9417864411420886 -1 0 0 I I #
coedge $-1 $455 $552 $457 $571 reversed $304 $-1 #
vertex $-1 $563 $624 #
straight-curve $-1 0 -29.855460302523266 8.9417864411420886 1 0 0 I I #
edge $-1 $460 -8.9417864411420886 $560 8.9417864411420886 $457 $625 forward 7 unknown #
edge $-1 $461 -8.9417864411420886 $559 8.9417864411420886 $458 $626 forward 7 unknown #
point $-1 50.328684347056488 -29.855460302523266 8.9417864411420886 #
point $-1 50.328684347056488 29.855460302523266 8.9417864411420886 #
attrib_edge_convexity-kcp-attrib $-1 $627 $-1 $466 1 #
straight-curve $-1 -50.328684347056488 29.855460302523266 0 0 0 -1 I I #
convexity-sys-attrib $-1 $-1 $467 $318 #
point $-1 -50.328684347056488 -29.855460302523266 -8.9417864411420886 #
attrib_edge_convexity-kcp-attrib $-1 $628 $-1 $470 1 #
straight-curve $-1 -50.328684347056488 0 -8.9417864411420886 0 1 0 I I #
convexity-sys-attrib $-1 $-1 $471 $320 #
point $-1 -50.328684347056488 29.855460302523266 -8.9417864411420886 #
convexity-sys-attrib $-1 $-1 $477 $327 #
convexity-sys-attrib $-1 $-1 $483 $337 #
straight-curve $-1 -44.128667340405961 -7.0258046776568222 -8.9417864411420886 0 -1 0 I I #
straight-curve $-1 -44.128667340405961 -7.0258046776568222 8.9417864411420886 0 1 0 I I #
straight-curve $-1 -50.328684347056488 -11.971887420239089 0 0 0 -1 I I #
point $-1 -50.328684347056488 -11.971887420239089 -8.9417864411420886 #
point $-1 -50.328684347056488 -11.971887420239089 8.9417864411420886 #
vertex $-1 $505 $629 #
straight-curve $-1 58.254310316660721 0 -7.113987213922278 0 -1 0 I I #
edge $-1 $508 -1.5 $590 1.5 $506 $630 forward 7 unknown #
point $-1 58.254310316660721 -29.855460302523266 -4.113987213922278 #
point $-1 58.254310316660721 29.855460302523266 -4.113987213922278 #
straight-curve $-1 58.254310316660721 -29.855460302523266 -5.613987213922278 0 0 -1 I I #
point $-1 58.254310316660721 -29.855460302523266 -7.113987213922278 #
straight-curve $-1 54.291497331858601 29.855460302523266 -7.113987213922278 1 0 0 I I #
straight-curve $-1 42.403058377452254 29.855460302523266 58.634599428901758 0 0 -1 I I #
point $-1 42.403058377452254 29.855460302523266 8.9417864411420886 #
straight-curve $-1 15.416088305839661 29.855460302523262 0.24190017738835046 -1 0 0 I I #
point $-1 42.403058377452254 29.855460302523266 0.24190017738835223 #
point $-1 25.873227283490912 18.026992841177357 -2.8458340140820799 #
point $-1 35.791125939867705 18.026992841177357 -2.8458340140820799 #
straight-curve $-1 19.681713277080533 -29.855460302523266 44.387085350186489 0 0 -1 I I #
point $-1 19.681713277080533 -29.855460302523266 8.9417864411420886 #
straight-curve $-1 15.521192913633197 -29.855460302523266 5.3254305918595124 1 0 0 I I #
point $-1 19.681713277080533 -29.855460302523266 5.3254305918595124 #
point $-1 26.17352616290102 -25.258278524968848 4.2923578444133126 #
point $-1 35.911245491631753 -25.258278524968848 4.2923578444133126 #
model_id-kcp-attrib $-1 $-1 $-1 $548 1 987433913 250 586809346 7 #
plane-surface $-1 50.328684347056488 0 0 -1 0 0 0 0 1 forward_v I I I I #
coedge $-1 $553 $551 $555 $616 reversed $445 $-1 #
edge $-1 $566 -8.9417864411420886 $618 8.9417864411420886 $565 $631 forward 7 unknown #
vertex $-1 $616 $632 #
straight-curve $-1 -50.328684347056488 -29.855460302523266 0 0 0 -1 I I #
edge $-1 $614 -29.855460302523266 $618 29.855460302523266 $612 $633 forward 7 unknown #
straight-curve $-1 0 -29.855460302523266 -8.9417864411420886 -1 0 0 I I #
vertex $-1 $558 $634 #
straight-curve $-1 0 29.855460302523266 -8.9417864411420886 1 0 0 I I #
point $-1 50.328684347056488 29.855460302523266 -8.9417864411420886 #
point $-1 50.328684347056488 -29.855460302523266 -8.9417864411420886 #
straight-curve $-1 -50.328684347056488 0 8.9417864411420886 0 -1 0 I I #
point $-1 -50.328684347056488 29.855460302523266 8.9417864411420886 #
point $-1 -50.328684347056488 -29.855460302523266 8.9417864411420886 #
straight-curve $-1 50.328684347056488 -29.855460302523266 0 0 0 -1 I I #
straight-curve $-1 50.328684347056488 29.855460302523266 0 0 0 -1 I I #
convexity-sys-attrib $-1 $-1 $575 $466 #
convexity-sys-attrib $-1 $-1 $579 $470 #
point $-1 58.254310316660721 29.855460302523266 -7.113987213922278 #
straight-curve $-1 58.254310316660721 29.855460302523266 -5.613987213922278 0 0 -1 I I #
straight-curve $-1 -50.328684347056488 29.855460302523266 0 0 0 -1 I I #
point $-1 -50.328684347056488 -29.855460302523266 -8.9417864411420886 #
straight-curve $-1 -50.328684347056488 0 -8.9417864411420886 0 1 0 I I #
point $-1 -50.328684347056488 29.855460302523266 -8.9417864411420886 #
End-of-ACIS-data 