600 0 11 0           
95 GICL ACIS Healer - Source: /gicl/data5/repository/Drexel/SM99-DATA/part115.smdg.delta.sat - 6 0 18 ACIS 6.0.3 Solaris 24 Sat Apr 13 20:44:25 2002 
1 9.999999999999999547e-07 1.000000000000000036e-10 
body $-1 $11 $-1 $-1 #
body $-1 $12 $-1 $-1 #
body $-1 $13 $-1 $-1 #
body $-1 $14 $-1 $-1 #
body $-1 $15 $-1 $-1 #
body $-1 $16 $-1 $-1 #
body $-1 $17 $-1 $-1 #
body $-1 $18 $-1 $-1 #
body $-1 $19 $-1 $-1 #
body $-1 $20 $-1 $-1 #
body $-1 $21 $-1 $-1 #
lump $-1 $-1 $22 $0 #
lump $-1 $-1 $23 $1 #
lump $-1 $-1 $24 $2 #
lump $-1 $-1 $25 $3 #
lump $-1 $-1 $26 $4 #
lump $-1 $-1 $27 $5 #
lump $-1 $-1 $28 $6 #
lump $-1 $-1 $29 $7 #
lump $-1 $-1 $30 $8 #
lump $-1 $-1 $31 $9 #
lump $-1 $-1 $32 $10 #
shell $-1 $-1 $-1 $33 $-1 $11 #
shell $-1 $-1 $-1 $34 $-1 $12 #
shell $-1 $-1 $-1 $35 $-1 $13 #
shell $-1 $-1 $-1 $36 $-1 $14 #
shell $-1 $-1 $-1 $37 $-1 $15 #
shell $-1 $-1 $-1 $38 $-1 $16 #
shell $-1 $-1 $-1 $39 $-1 $17 #
shell $-1 $-1 $-1 $40 $-1 $18 #
shell $-1 $-1 $-1 $41 $-1 $19 #
shell $-1 $-1 $-1 $42 $-1 $20 #
shell $-1 $-1 $-1 $43 $-1 $21 #
face $-1 $44 $45 $22 $-1 $46 forward single #
face $-1 $47 $48 $23 $-1 $49 reversed single #
face $-1 $50 $51 $24 $-1 $52 forward single #
face $-1 $53 $54 $25 $-1 $55 reversed single #
face $-1 $56 $57 $26 $-1 $58 forward single #
face $-1 $59 $60 $27 $-1 $61 reversed single #
face $-1 $62 $63 $28 $-1 $64 forward single #
face $-1 $65 $66 $29 $-1 $67 reversed single #
face $-1 $68 $69 $30 $-1 $70 forward single #
face $-1 $71 $72 $31 $-1 $73 reversed single #
face $-1 $74 $75 $32 $-1 $76 forward single #
face $-1 $77 $78 $22 $-1 $79 reversed single #
loop $-1 $-1 $80 $33 #
plane-surface $-1 43.17758720664082972 22.05948161718228917 18.71006504130395598 0 0 1 1 0 0 forward_v I I I I #
face $-1 $81 $82 $23 $-1 $83 reversed single #
loop $-1 $-1 $84 $34 #
plane-surface $-1 36.82388221596705336 5.260448931686511287 82.02359055911082919 0.8191520524228198541 0 0.5735764247347356903 0.5735764247347356903 0 -0.8191520524228198541 forward_v I I I I #
face $-1 $85 $86 $24 $-1 $87 forward single #
loop $-1 $88 $89 $35 #
cone-surface $-1 82.30364724593017911 5.260448931686511287 13.98098824503842152 -0.8191520524228198541 0 -0.5735764247347356903 0.8603646371021035355 0 -1.228728078634229837 1 I I 0 1 1.500000000000000222 forward I I I I #
face $-1 $90 $91 $25 $-1 $92 reversed single #
loop $-1 $-1 $93 $36 #
plane-surface $-1 -59.98734544335197683 2.009078211115767232 71.99235768619151088 0 1 0 -0.6946583786197038091 0 0.7193397924579483238 forward_v I I I I #
face $-1 $94 $95 $26 $-1 $96 forward single #
loop $-1 $97 $98 $37 #
cone-surface $-1 5.355385421729401685 5.496246460109571075 13.483939365194475 0.6946583786197038091 0 -0.7193397924579483238 1.079009688686922486 0 1.041987567929555603 1 I I 0 1 1.5 forward I I I I #
face $-1 $99 $100 $27 $-1 $101 reversed single #
loop $-1 $-1 $102 $38 #
plane-surface $-1 -59.98734544335197683 13.03881901970691359 71.99235768619151088 0 1 0 -0.6946583786197038091 0 0.7193397924579483238 forward_v I I I I #
face $-1 $103 $104 $28 $-1 $105 forward single #
loop $-1 $106 $107 $39 #
cone-surface $-1 5.355385421729401685 16.52598726870071744 13.483939365194475 0.6946583786197038091 0 -0.7193397924579483238 1.079009688686922486 0 1.041987567929555603 1 I I 0 1 1.5 forward I I I I #
face $-1 $108 $109 $29 $-1 $110 reversed single #
loop $-1 $-1 $111 $40 #
plane-surface $-1 -59.98734544335197683 24.0685598282980564 71.99235768619151088 0 1 0 -0.6946583786197038091 0 0.7193397924579483238 forward_v I I I I #
face $-1 $112 $113 $30 $-1 $114 forward single #
loop $-1 $115 $116 $41 #
cone-surface $-1 5.355385421729401685 27.55572807729186025 13.483939365194475 0.6946583786197038091 0 -0.7193397924579483238 1.079009688686922486 0 1.041987567929555603 1 I I 0 1 1.5 forward I I I I #
face $-1 $117 $118 $31 $-1 $119 reversed single #
loop $-1 $-1 $120 $42 #
plane-surface $-1 -59.98734544335197683 35.09830063688919921 71.99235768619151088 0 1 0 -0.6946583786197038091 0 0.7193397924579483238 forward_v I I I I #
face $-1 $121 $122 $32 $-1 $123 forward single #
loop $-1 $124 $125 $43 #
cone-surface $-1 5.355385421729401685 38.58546888588300305 13.483939365194475 0.6946583786197038091 0 -0.7193397924579483238 1.079009688686922486 0 1.041987567929555603 1 I I 0 1 1.5 forward I I I I #
face $-1 $126 $127 $22 $-1 $128 reversed single #
loop $-1 $-1 $129 $44 #
plane-surface $-1 43.17758720664082972 22.05948161718228917 0 0 0 1 1 0 0 forward_v I I I I #
coedge $-1 $130 $131 $132 $133 forward $45 $-1 #
face $-1 $134 $135 $23 $-1 $136 forward single #
loop $-1 $-1 $137 $47 #
plane-surface $-1 107.5619005739372938 10.52089786337302257 131.5548827564254566 0 -1 0 -0.8191520524228198541 0 -0.5735764247347356903 forward_v I I I I #
coedge $-1 $138 $139 $140 $141 reversed $48 $-1 #
face $-1 $-1 $142 $24 $-1 $143 forward single #
loop $-1 $144 $145 $50 #
cone-surface $-1 80.23709888784145505 5.260448931686511287 12.53397555030352351 -0.8191520524228198541 0 -0.5735764247347356903 0.4301823185510517678 0 -0.6143640393171149183 1 I I -0.7071067811865475727 0.7071067811865475727 0.750000000000000111 forward I I I I #
loop $-1 $-1 $146 $35 #
coedge $-1 $89 $89 $147 $148 reversed $51 $-1 #
face $-1 $149 $150 $25 $-1 $151 reversed single #
loop $-1 $-1 $152 $53 #
plane-surface $-1 -7.105427357601001859e-15 5.496246460109571075 9.873644446071555336 -0.6946583786197038091 0 0.7193397924579483238 0.7193397924579483238 0 0.6946583786197038091 forward_v I I I I #
coedge $-1 $153 $154 $155 $156 reversed $54 $-1 #
face $-1 $-1 $157 $26 $-1 $158 forward single #
loop $-1 $159 $160 $56 #
cone-surface $-1 6.656574035412120338 5.496246460109571075 12.13651914235773432 0.6946583786197038091 0 -0.7193397924579483238 0.5395048443434612429 0 0.5209937839647778013 1 I I -0.7071067811865475727 0.7071067811865475727 0.75 forward I I I I #
loop $-1 $-1 $161 $37 #
coedge $-1 $98 $98 $162 $163 reversed $57 $-1 #
face $-1 $164 $165 $27 $-1 $166 reversed single #
loop $-1 $-1 $167 $59 #
plane-surface $-1 -7.105427357601001859e-15 16.52598726870071744 9.873644446071555336 -0.6946583786197038091 0 0.7193397924579483238 0.7193397924579483238 0 0.6946583786197038091 forward_v I I I I #
coedge $-1 $168 $169 $170 $171 reversed $60 $-1 #
face $-1 $-1 $172 $28 $-1 $173 forward single #
loop $-1 $174 $175 $62 #
cone-surface $-1 6.656574035412120338 16.52598726870071744 12.13651914235773432 0.6946583786197038091 0 -0.7193397924579483238 0.5395048443434612429 0 0.5209937839647778013 1 I I -0.7071067811865475727 0.7071067811865475727 0.75 forward I I I I #
loop $-1 $-1 $176 $39 #
coedge $-1 $107 $107 $177 $178 reversed $63 $-1 #
face $-1 $179 $180 $29 $-1 $181 reversed single #
loop $-1 $-1 $182 $65 #
plane-surface $-1 -7.105427357601001859e-15 27.55572807729186025 9.873644446071555336 -0.6946583786197038091 0 0.7193397924579483238 0.7193397924579483238 0 0.6946583786197038091 forward_v I I I I #
coedge $-1 $183 $184 $185 $186 reversed $66 $-1 #
face $-1 $-1 $187 $30 $-1 $188 forward single #
loop $-1 $189 $190 $68 #
cone-surface $-1 6.656574035412120338 27.55572807729186025 12.13651914235773432 0.6946583786197038091 0 -0.7193397924579483238 0.5395048443434612429 0 0.5209937839647778013 1 I I -0.7071067811865475727 0.7071067811865475727 0.75 forward I I I I #
loop $-1 $-1 $191 $41 #
coedge $-1 $116 $116 $192 $193 reversed $69 $-1 #
face $-1 $194 $195 $31 $-1 $196 reversed single #
loop $-1 $-1 $197 $71 #
plane-surface $-1 -7.105427357601001859e-15 38.58546888588300305 9.873644446071555336 -0.6946583786197038091 0 0.7193397924579483238 0.7193397924579483238 0 0.6946583786197038091 forward_v I I I I #
coedge $-1 $198 $199 $200 $201 reversed $72 $-1 #
face $-1 $-1 $202 $32 $-1 $203 forward single #
loop $-1 $204 $205 $74 #
cone-surface $-1 6.656574035412120338 38.58546888588300305 12.13651914235773432 0.6946583786197038091 0 -0.7193397924579483238 0.5395048443434612429 0 0.5209937839647778013 1 I I -0.7071067811865475727 0.7071067811865475727 0.75 forward I I I I #
loop $-1 $-1 $206 $43 #
coedge $-1 $125 $125 $207 $208 reversed $75 $-1 #
face $-1 $209 $210 $22 $-1 $211 reversed single #
loop $-1 $-1 $212 $77 #
plane-surface $-1 43.17758720664082972 0 9.35503252065197799 0 1 0 0 0 1 forward_v I I I I #
coedge $-1 $213 $214 $215 $216 forward $78 $-1 #
coedge $-1 $217 $80 $218 $219 forward $45 $-1 #
coedge $-1 $80 $217 $220 $221 forward $45 $-1 #
coedge $-1 $222 $223 $80 $133 reversed $224 $-1 #
edge $-1 $225 -22.05948161718228917 $226 22.05948161718228917 $132 $227 forward 7 unknown #
face $-1 $228 $229 $23 $-1 $230 reversed single #
loop $-1 $-1 $231 $81 #
plane-surface $-1 43.17758720664082972 22.05948161718228917 18.71006504130395598 0 0 1 1 0 0 forward_v I I I I #
coedge $-1 $232 $233 $234 $235 reversed $82 $-1 #
coedge $-1 $236 $84 $237 $238 reversed $48 $-1 #
coedge $-1 $84 $236 $232 $239 forward $48 $-1 #
coedge $-1 $234 $240 $84 $141 forward $241 $-1 #
edge $-1 $242 -13.65996527443440023 $243 -3.139067411061377655 $140 $244 forward 7 unknown #
loop $-1 $-1 $147 $85 #
plane-surface $-1 36.82388221596705336 5.260448931686511287 82.02359055911082919 0.8191520524228198541 0 0.5735764247347356903 0.5735764247347356903 0 -0.8191520524228198541 forward_v I I I I #
loop $-1 $-1 $245 $50 #
coedge $-1 $145 $145 $146 $246 reversed $86 $-1 #
coedge $-1 $146 $146 $145 $246 forward $88 $-1 #
coedge $-1 $147 $147 $89 $148 forward $142 $-1 #
edge $-1 $247 0 $247 6.283185307179586232 $147 $248 forward 7 unknown #
face $-1 $249 $250 $25 $-1 $251 reversed single #
loop $-1 $-1 $252 $90 #
plane-surface $-1 -59.98734544335197683 8.983414709103374918 71.99235768619151088 0 -1 0 0.6946583786197038091 0 -0.7193397924579483238 forward_v I I I I #
coedge $-1 $253 $254 $255 $256 reversed $91 $-1 #
coedge $-1 $154 $93 $257 $258 reversed $54 $-1 #
coedge $-1 $93 $153 $253 $259 reversed $54 $-1 #
coedge $-1 $255 $260 $93 $156 forward $261 $-1 #
edge $-1 $262 8.404879118355573553 $263 17.55526030237849966 $155 $264 forward 7 unknown #
loop $-1 $-1 $162 $94 #
plane-surface $-1 -7.105427357601001859e-15 5.496246460109571075 9.873644446071555336 -0.6946583786197038091 0 0.7193397924579483238 0.7193397924579483238 0 0.6946583786197038091 forward_v I I I I #
loop $-1 $-1 $265 $56 #
coedge $-1 $160 $160 $161 $266 reversed $95 $-1 #
coedge $-1 $161 $161 $160 $266 forward $97 $-1 #
coedge $-1 $162 $162 $98 $163 forward $157 $-1 #
edge $-1 $267 0 $267 6.283185307179586232 $162 $268 forward 7 unknown #
face $-1 $269 $270 $27 $-1 $271 forward single #
loop $-1 $-1 $272 $99 #
plane-surface $-1 -59.98734544335197683 20.01315551769452128 71.99235768619151088 0 -1 0 0.6946583786197038091 0 -0.7193397924579483238 forward_v I I I I #
coedge $-1 $273 $274 $275 $276 reversed $100 $-1 #
coedge $-1 $169 $102 $277 $278 reversed $60 $-1 #
coedge $-1 $102 $168 $273 $279 reversed $60 $-1 #
coedge $-1 $275 $280 $102 $171 forward $270 $-1 #
edge $-1 $281 8.404879118355573553 $282 17.55526030237849966 $170 $283 forward 7 unknown #
loop $-1 $-1 $177 $103 #
plane-surface $-1 -7.105427357601001859e-15 16.52598726870071744 9.873644446071555336 -0.6946583786197038091 0 0.7193397924579483238 0.7193397924579483238 0 0.6946583786197038091 forward_v I I I I #
loop $-1 $-1 $284 $62 #
coedge $-1 $175 $175 $176 $285 reversed $104 $-1 #
coedge $-1 $176 $176 $175 $285 forward $106 $-1 #
coedge $-1 $177 $177 $107 $178 forward $172 $-1 #
edge $-1 $286 0 $286 6.283185307179586232 $177 $287 forward 7 unknown #
face $-1 $288 $289 $29 $-1 $290 forward single #
loop $-1 $-1 $291 $108 #
plane-surface $-1 -59.98734544335197683 31.04289632628566409 71.99235768619151088 0 -1 0 0.6946583786197038091 0 -0.7193397924579483238 forward_v I I I I #
coedge $-1 $292 $293 $294 $295 reversed $109 $-1 #
coedge $-1 $184 $111 $296 $297 reversed $66 $-1 #
coedge $-1 $111 $183 $292 $298 reversed $66 $-1 #
coedge $-1 $294 $299 $111 $186 forward $289 $-1 #
edge $-1 $300 8.404879118355573553 $301 17.55526030237849966 $185 $302 forward 7 unknown #
loop $-1 $-1 $192 $112 #
plane-surface $-1 -7.105427357601001859e-15 27.55572807729186025 9.873644446071555336 -0.6946583786197038091 0 0.7193397924579483238 0.7193397924579483238 0 0.6946583786197038091 forward_v I I I I #
loop $-1 $-1 $303 $68 #
coedge $-1 $190 $190 $191 $304 reversed $113 $-1 #
coedge $-1 $191 $191 $190 $304 forward $115 $-1 #
coedge $-1 $192 $192 $116 $193 forward $187 $-1 #
edge $-1 $305 0 $305 6.283185307179586232 $192 $306 forward 7 unknown #
face $-1 $307 $308 $31 $-1 $309 forward single #
loop $-1 $-1 $310 $117 #
plane-surface $-1 -59.98734544335197683 42.0726371348768069 71.99235768619151088 0 -1 0 0.6946583786197038091 0 -0.7193397924579483238 forward_v I I I I #
coedge $-1 $311 $312 $313 $314 reversed $118 $-1 #
coedge $-1 $199 $120 $315 $316 reversed $72 $-1 #
coedge $-1 $120 $198 $311 $317 reversed $72 $-1 #
coedge $-1 $313 $318 $120 $201 forward $308 $-1 #
edge $-1 $319 8.404879118355573553 $320 17.55526030237849966 $200 $321 forward 7 unknown #
loop $-1 $-1 $207 $121 #
plane-surface $-1 -7.105427357601001859e-15 38.58546888588300305 9.873644446071555336 -0.6946583786197038091 0 0.7193397924579483238 0.7193397924579483238 0 0.6946583786197038091 forward_v I I I I #
loop $-1 $-1 $322 $74 #
coedge $-1 $205 $205 $206 $323 reversed $122 $-1 #
coedge $-1 $206 $206 $205 $323 forward $124 $-1 #
coedge $-1 $207 $207 $125 $208 forward $202 $-1 #
edge $-1 $324 0 $324 6.283185307179586232 $207 $325 forward 7 unknown #
face $-1 $326 $327 $22 $-1 $328 reversed single #
loop $-1 $-1 $329 $126 #
plane-surface $-1 0 22.05948161718228917 9.35503252065197799 1 0 0 0 0 -1 forward_v I I I I #
coedge $-1 $330 $220 $331 $332 forward $127 $-1 #
coedge $-1 $333 $129 $330 $334 forward $78 $-1 #
coedge $-1 $129 $333 $335 $336 forward $78 $-1 #
coedge $-1 $223 $222 $129 $216 reversed $224 $-1 #
edge $-1 $337 -22.05948161718228917 $338 22.05948161718228917 $215 $339 forward 7 unknown #
coedge $-1 $131 $130 $340 $341 forward $45 $-1 #
coedge $-1 $342 $343 $130 $219 reversed $327 $-1 #
edge $-1 $226 -43.17758720664082972 $344 43.17758720664082972 $218 $345 forward 7 unknown #
coedge $-1 $212 $346 $131 $221 reversed $127 $-1 #
edge $-1 $347 -43.17758720664082972 $225 43.17758720664082972 $220 $348 forward 7 unknown #
coedge $-1 $215 $132 $346 $349 forward $224 $-1 #
coedge $-1 $132 $215 $342 $350 reversed $224 $-1 #
loop $-1 $-1 $222 $326 #
vertex $-1 $133 $351 #
vertex $-1 $133 $352 #
straight-curve $-1 86.35517441328165944 22.05948161718228917 18.71006504130395598 0 1 0 I I #
face $-1 $-1 $241 $23 $-1 $353 reversed single #
loop $-1 $-1 $237 $134 #
plane-surface $-1 43.17758720664082972 0 9.35503252065197799 0 1 0 0 0 1 forward_v I I I I #
coedge $-1 $354 $355 $233 $356 forward $135 $-1 #
coedge $-1 $233 $137 $139 $239 reversed $82 $-1 #
coedge $-1 $137 $232 $231 $356 reversed $82 $-1 #
coedge $-1 $357 $140 $137 $235 forward $241 $-1 #
edge $-1 $243 -59.16938543739811962 $358 -51.74489259723475953 $234 $359 forward 7 unknown #
coedge $-1 $139 $138 $354 $360 reversed $48 $-1 #
coedge $-1 $361 $362 $138 $238 forward $229 $-1 #
edge $-1 $363 45.70607538147668691 $242 54.76970748519148913 $237 $364 forward 7 unknown #
edge $-1 $365 77.29154230956683591 $243 86.35517441328164523 $232 $366 forward 7 unknown #
coedge $-1 $140 $357 $361 $367 forward $241 $-1 #
loop $-1 $-1 $234 $228 #
vertex $-1 $238 $368 #
vertex $-1 $141 $369 #
straight-curve $-1 86.35517441328167365 13.65996527443440023 11.28557220114059945 0 1 0 I I #
coedge $-1 $245 $245 $-1 $370 reversed $144 $-1 #
edge $-1 $371 0 $371 6.283185307179586232 $145 $372 forward 7 unknown #
vertex $-1 $148 $373 #
ellipse-curve $-1 83.75583156470180768 5.260448931686511287 14.99781862122228304 0.8191520524228198541 0 0.5735764247347356903 0.8603646371021035355 0 -1.228728078634229837 1 I I #
face $-1 $-1 $261 $25 $-1 $374 forward single #
loop $-1 $-1 $375 $149 #
plane-surface $-1 0 22.05948161718228917 9.35503252065197799 1 0 0 0 0 -1 forward_v I I I I #
coedge $-1 $376 $377 $378 $379 reversed $150 $-1 #
coedge $-1 $380 $152 $154 $259 forward $91 $-1 #
coedge $-1 $152 $380 $376 $381 forward $91 $-1 #
coedge $-1 $378 $155 $152 $256 forward $261 $-1 #
edge $-1 $263 -11.76878582753016289 $382 -4.794449329542555205 $255 $383 forward 7 unknown #
coedge $-1 $384 $385 $153 $258 forward $250 $-1 #
edge $-1 $386 -30.80005065735018732 $262 -21.96363006211779378 $257 $387 forward 7 unknown #
edge $-1 $263 -12.7205269053120702 $386 -1.004706128837293117e-14 $154 $388 forward 7 unknown #
coedge $-1 $155 $378 $384 $389 forward $261 $-1 #
loop $-1 $-1 $378 $249 #
vertex $-1 $258 $390 #
vertex $-1 $156 $391 #
straight-curve $-1 -8.404879118355573553 2.009078211115767232 18.71006504130395598 1 0 0 I I #
coedge $-1 $265 $265 $-1 $392 reversed $159 $-1 #
edge $-1 $393 0 $393 6.283185307179586232 $160 $394 forward 7 unknown #
vertex $-1 $163 $395 #
ellipse-curve $-1 4.575190592011459501 5.496246460109571075 14.29185474368775743 -0.6946583786197038091 0 0.7193397924579483238 1.079009688686922486 0 1.041987567929555603 1 I I #
face $-1 $-1 $396 $27 $-1 $397 reversed single #
loop $-1 $-1 $170 $164 #
plane-surface $-1 43.17758720664082972 22.05948161718228917 18.71006504130395598 0 0 1 1 0 0 forward_v I I I I #
coedge $-1 $398 $399 $400 $401 reversed $165 $-1 #
coedge $-1 $402 $167 $169 $279 forward $100 $-1 #
coedge $-1 $167 $402 $398 $403 forward $100 $-1 #
coedge $-1 $400 $170 $167 $276 forward $270 $-1 #
edge $-1 $282 -6.253915423234587934 $404 0.7204210747530197523 $275 $405 forward 7 unknown #
coedge $-1 $406 $407 $168 $278 forward $396 $-1 #
edge $-1 $408 -30.80005065735018732 $281 -21.96363006211779378 $277 $409 forward 7 unknown #
edge $-1 $282 -12.7205269053120702 $408 -1.004706128837293117e-14 $169 $410 forward 7 unknown #
coedge $-1 $170 $400 $406 $411 forward $270 $-1 #
vertex $-1 $278 $412 #
vertex $-1 $171 $413 #
straight-curve $-1 -8.404879118355573553 13.03881901970691359 18.71006504130395598 1 0 0 I I #
coedge $-1 $284 $284 $-1 $414 reversed $174 $-1 #
edge $-1 $415 0 $415 6.283185307179586232 $175 $416 forward 7 unknown #
vertex $-1 $178 $417 #
ellipse-curve $-1 4.575190592011459501 16.52598726870071744 14.29185474368775743 -0.6946583786197038091 0 0.7193397924579483238 1.079009688686922486 0 1.041987567929555603 1 I I #
face $-1 $-1 $418 $29 $-1 $419 reversed single #
loop $-1 $-1 $185 $179 #
plane-surface $-1 43.17758720664082972 22.05948161718228917 18.71006504130395598 0 0 1 1 0 0 forward_v I I I I #
coedge $-1 $420 $421 $422 $423 reversed $180 $-1 #
coedge $-1 $424 $182 $184 $298 forward $109 $-1 #
coedge $-1 $182 $424 $420 $425 forward $109 $-1 #
coedge $-1 $422 $185 $182 $295 forward $289 $-1 #
edge $-1 $301 -0.7390450189390165292 $426 6.235291479048591157 $294 $427 forward 7 unknown #
coedge $-1 $428 $429 $183 $297 forward $418 $-1 #
edge $-1 $430 -30.80005065735018732 $300 -21.96363006211779378 $296 $431 forward 7 unknown #
edge $-1 $301 -12.7205269053120702 $430 -1.004706128837293117e-14 $184 $432 forward 7 unknown #
coedge $-1 $185 $422 $428 $433 forward $289 $-1 #
vertex $-1 $186 $434 #
vertex $-1 $186 $435 #
straight-curve $-1 -8.404879118355573553 24.0685598282980564 18.71006504130395598 1 0 0 I I #
coedge $-1 $303 $303 $-1 $436 reversed $189 $-1 #
edge $-1 $437 0 $437 6.283185307179586232 $190 $438 forward 7 unknown #
vertex $-1 $193 $439 #
ellipse-curve $-1 4.575190592011459501 27.55572807729186025 14.29185474368775743 -0.6946583786197038091 0 0.7193397924579483238 1.079009688686922486 0 1.041987567929555603 1 I I #
face $-1 $-1 $440 $31 $-1 $441 reversed single #
loop $-1 $-1 $200 $194 #
plane-surface $-1 43.17758720664082972 22.05948161718228917 18.71006504130395598 0 0 1 1 0 0 forward_v I I I I #
coedge $-1 $442 $443 $444 $445 reversed $195 $-1 #
coedge $-1 $446 $197 $199 $317 forward $118 $-1 #
coedge $-1 $197 $446 $442 $447 forward $118 $-1 #
coedge $-1 $444 $200 $197 $314 forward $308 $-1 #
edge $-1 $320 4.775825385356554875 $448 11.75016188334416256 $313 $449 forward 7 unknown #
coedge $-1 $450 $451 $198 $316 forward $440 $-1 #
edge $-1 $452 -30.80005065735018732 $319 -21.96363006211779378 $315 $453 forward 7 unknown #
edge $-1 $320 -12.7205269053120702 $452 -1.004706128837293117e-14 $199 $454 forward 7 unknown #
coedge $-1 $200 $444 $450 $455 forward $308 $-1 #
vertex $-1 $201 $456 #
vertex $-1 $201 $457 #
straight-curve $-1 -8.404879118355573553 35.09830063688919921 18.71006504130395598 1 0 0 I I #
coedge $-1 $322 $322 $-1 $458 reversed $204 $-1 #
edge $-1 $459 0 $459 6.283185307179586232 $205 $460 forward 7 unknown #
vertex $-1 $208 $461 #
ellipse-curve $-1 4.575190592011459501 38.58546888588300305 14.29185474368775743 -0.6946583786197038091 0 0.7193397924579483238 1.079009688686922486 0 1.041987567929555603 1 I I #
face $-1 $-1 $224 $22 $-1 $462 reversed single #
loop $-1 $-1 $342 $209 #
plane-surface $-1 43.17758720664082972 44.11896323436457834 9.35503252065197799 0 -1 0 0 0 -1 forward_v I I I I #
coedge $-1 $463 $340 $343 $464 forward $210 $-1 #
coedge $-1 $346 $212 $213 $334 reversed $127 $-1 #
coedge $-1 $340 $463 $212 $332 reversed $210 $-1 #
edge $-1 $347 -9.35503252065197799 $465 9.35503252065197799 $331 $466 forward 7 unknown #
coedge $-1 $214 $213 $463 $467 forward $78 $-1 #
edge $-1 $338 -43.17758720664082972 $465 43.17758720664082972 $330 $468 forward 7 unknown #
coedge $-1 $343 $342 $214 $336 reversed $327 $-1 #
edge $-1 $469 -43.17758720664082972 $337 43.17758720664082972 $335 $470 forward 7 unknown #
vertex $-1 $216 $471 #
vertex $-1 $349 $472 #
straight-curve $-1 86.35517441328165944 22.05948161718228917 0 0 -1 0 I I #
coedge $-1 $329 $331 $217 $341 reversed $210 $-1 #
edge $-1 $344 -22.05948161718228917 $347 22.05948161718228917 $340 $473 forward 7 unknown #
coedge $-1 $335 $218 $223 $350 forward $327 $-1 #
coedge $-1 $218 $335 $329 $464 reversed $327 $-1 #
vertex $-1 $219 $474 #
straight-curve $-1 43.17758720664082972 44.11896323436457834 18.71006504130395598 -1 0 0 I I #
coedge $-1 $220 $330 $222 $349 reversed $127 $-1 #
vertex $-1 $341 $475 #
straight-curve $-1 43.17758720664082972 0 18.71006504130395598 1 0 0 I I #
edge $-1 $225 -9.35503252065197799 $338 9.35503252065197799 $222 $476 forward 7 unknown #
edge $-1 $226 -9.35503252065197799 $337 9.35503252065197799 $223 $477 forward 7 unknown #
point $-1 86.35517441328165944 0 18.71006504130395598 #
point $-1 86.35517441328165944 44.11896323436457834 18.71006504130395598 #
plane-surface $-1 86.35517441328165944 22.05948161718228917 9.35503252065197799 -1 0 0 0 0 1 forward_v I I I I #
coedge $-1 $478 $231 $236 $360 forward $135 $-1 #
coedge $-1 $231 $478 $357 $479 forward $135 $-1 #
edge $-1 $358 -10.98543052299258704 $365 -5.78674482583286931 $231 $480 forward 7 unknown #
coedge $-1 $240 $234 $355 $479 reversed $241 $-1 #
vertex $-1 $235 $481 #
straight-curve $-1 86.35517441328165944 10.52089786337302257 70.45495763853871551 0 0 1 I I #
edge $-1 $365 3.139067411061377655 $363 13.65996527443440023 $354 $482 forward 7 unknown #
coedge $-1 $362 $237 $240 $367 reversed $229 $-1 #
coedge $-1 $237 $361 $478 $483 reversed $229 $-1 #
vertex $-1 $483 $484 #
straight-curve $-1 54.94056141015823158 0 56.15029049823269247 0.5735764247347356903 0 -0.8191520524228198541 I I #
vertex $-1 $360 $485 #
straight-curve $-1 36.82388221596705336 10.52089786337302257 82.02359055911082919 0.5735764247347356903 0 -0.8191520524228198541 I I #
edge $-1 $486 -9.35503252065197799 $242 -1.930539680488628562 $240 $487 forward 7 unknown #
point $-1 86.35517441328165944 0 11.28557220114060655 #
point $-1 86.35517441328165944 10.52089786337302257 11.28557220114059945 #
edge $-1 $488 1 $488 0 $245 $-1 forward 7 unknown #
vertex $-1 $246 $489 #
ellipse-curve $-1 80.85146292715856475 5.260448931686511287 12.96415786885457422 0.8191520524228198541 0 0.5735764247347356903 0.8603646371021035355 0 -1.228728078634229837 1 I I #
point $-1 84.61619620180388779 5.260448931686511287 13.769090542588037 #
plane-surface $-1 43.17758720664082972 22.05948161718228917 18.71006504130395598 0 0 1 1 0 0 forward_v I I I I #
coedge $-1 $385 $384 $377 $490 forward $250 $-1 #
coedge $-1 $377 $252 $254 $381 reversed $150 $-1 #
coedge $-1 $252 $376 $375 $490 reversed $150 $-1 #
coedge $-1 $260 $255 $252 $379 forward $261 $-1 #
edge $-1 $382 -17.55526030237849966 $491 -8.404879118355573553 $378 $492 forward 7 unknown #
coedge $-1 $254 $253 $385 $493 reversed $91 $-1 #
edge $-1 $494 1.004706128837293117e-14 $382 12.7205269053120702 $376 $495 forward 7 unknown #
vertex $-1 $256 $496 #
straight-curve $-1 9.150381184022926107 13.77786403864593012 18.71006504130395598 0 1 0 I I #
coedge $-1 $375 $257 $260 $389 reversed $250 $-1 #
coedge $-1 $257 $375 $380 $493 forward $250 $-1 #
vertex $-1 $258 $497 #
straight-curve $-1 0 2.009078211115767232 40.67369510342174976 0 0 1 I I #
straight-curve $-1 -7.105427357601001859e-15 2.009078211115767232 9.873644446071555336 -0.7193397924579483238 0 -0.6946583786197038091 I I #
edge $-1 $491 13.07606690807891425 $262 20.05040340606652194 $384 $498 forward 7 unknown #
point $-1 0 2.009078211115767232 18.71006504130395598 #
point $-1 9.150381184022926107 2.009078211115767232 18.71006504130395598 #
edge $-1 $499 1 $499 0 $265 $-1 forward 7 unknown #
vertex $-1 $266 $500 #
ellipse-curve $-1 6.135580251447343869 5.496246460109571075 12.67602398670119612 -0.6946583786197038091 0 0.7193397924579483238 1.079009688686922486 0 1.041987567929555603 1 I I #
point $-1 5.654200280698390202 5.496246460109571075 15.33384231161731037 #
loop $-1 $-1 $277 $269 #
plane-surface $-1 0 22.05948161718228917 9.35503252065197799 1 0 0 0 0 -1 forward_v I I I I #
coedge $-1 $399 $272 $274 $403 reversed $165 $-1 #
coedge $-1 $272 $398 $501 $502 reversed $165 $-1 #
coedge $-1 $280 $275 $272 $401 forward $270 $-1 #
edge $-1 $404 -17.55526030237849966 $503 -8.404879118355573553 $400 $504 forward 7 unknown #
coedge $-1 $274 $273 $407 $505 reversed $100 $-1 #
edge $-1 $506 1.004706128837293117e-14 $404 12.7205269053120702 $398 $507 forward 7 unknown #
vertex $-1 $276 $508 #
straight-curve $-1 9.150381184022926107 19.29273444294150153 18.71006504130395598 0 1 0 I I #
coedge $-1 $501 $277 $280 $411 reversed $396 $-1 #
coedge $-1 $277 $501 $402 $505 forward $396 $-1 #
vertex $-1 $278 $509 #
straight-curve $-1 0 13.03881901970691359 40.67369510342174976 0 0 1 I I #
straight-curve $-1 -7.105427357601001859e-15 13.03881901970691359 9.873644446071555336 -0.7193397924579483238 0 -0.6946583786197038091 I I #
edge $-1 $503 2.046326099487767891 $281 9.020662597475375577 $406 $510 forward 7 unknown #
point $-1 0 13.03881901970691359 18.71006504130395598 #
point $-1 9.150381184022926107 13.03881901970691359 18.71006504130395598 #
edge $-1 $511 1 $511 0 $284 $-1 forward 7 unknown #
vertex $-1 $285 $512 #
ellipse-curve $-1 6.135580251447343869 16.52598726870071744 12.67602398670119612 -0.6946583786197038091 0 0.7193397924579483238 1.079009688686922486 0 1.041987567929555603 1 I I #
point $-1 5.654200280698390202 16.52598726870071744 15.33384231161731037 #
loop $-1 $-1 $296 $288 #
plane-surface $-1 0 22.05948161718228917 9.35503252065197799 1 0 0 0 0 -1 forward_v I I I I #
coedge $-1 $421 $291 $293 $425 reversed $180 $-1 #
coedge $-1 $291 $420 $513 $514 reversed $180 $-1 #
coedge $-1 $299 $294 $291 $423 forward $289 $-1 #
edge $-1 $426 -17.55526030237849966 $515 -8.404879118355573553 $422 $516 forward 7 unknown #
coedge $-1 $293 $292 $429 $517 reversed $109 $-1 #
edge $-1 $518 1.004706128837293117e-14 $426 12.7205269053120702 $420 $519 forward 7 unknown #
vertex $-1 $295 $520 #
straight-curve $-1 9.150381184022926107 24.80760484723707293 18.71006504130395598 0 1 0 I I #
coedge $-1 $513 $296 $299 $433 reversed $418 $-1 #
coedge $-1 $296 $513 $424 $517 forward $418 $-1 #
vertex $-1 $297 $521 #
straight-curve $-1 0 24.0685598282980564 40.67369510342174976 0 0 1 I I #
straight-curve $-1 -7.105427357601001859e-15 24.0685598282980564 9.873644446071555336 -0.7193397924579483238 0 -0.6946583786197038091 I I #
edge $-1 $515 -8.983414709103374918 $300 -2.009078211115767232 $428 $522 forward 7 unknown #
point $-1 0 24.0685598282980564 18.71006504130395598 #
point $-1 9.150381184022926107 24.0685598282980564 18.71006504130395598 #
edge $-1 $523 1 $523 0 $303 $-1 forward 7 unknown #
vertex $-1 $304 $524 #
ellipse-curve $-1 6.135580251447343869 27.55572807729186025 12.67602398670119612 -0.6946583786197038091 0 0.7193397924579483238 1.079009688686922486 0 1.041987567929555603 1 I I #
point $-1 5.654200280698390202 27.55572807729186025 15.33384231161731037 #
loop $-1 $-1 $315 $307 #
plane-surface $-1 0 22.05948161718228917 9.35503252065197799 1 0 0 0 0 -1 forward_v I I I I #
coedge $-1 $443 $310 $312 $447 reversed $195 $-1 #
coedge $-1 $310 $442 $525 $526 reversed $195 $-1 #
coedge $-1 $318 $313 $310 $445 forward $308 $-1 #
edge $-1 $448 -17.55526030237849966 $527 -8.404879118355573553 $444 $528 forward 7 unknown #
coedge $-1 $312 $311 $451 $529 reversed $118 $-1 #
edge $-1 $530 1.004706128837293117e-14 $448 12.7205269053120702 $442 $531 forward 7 unknown #
vertex $-1 $314 $532 #
straight-curve $-1 9.150381184022926107 30.32247525153264434 18.71006504130395598 0 1 0 I I #
coedge $-1 $525 $315 $318 $455 reversed $440 $-1 #
coedge $-1 $315 $525 $446 $529 forward $440 $-1 #
vertex $-1 $316 $533 #
straight-curve $-1 0 35.09830063688919921 40.67369510342174976 0 0 1 I I #
straight-curve $-1 -7.105427357601001859e-15 35.09830063688919921 9.873644446071555336 -0.7193397924579483238 0 -0.6946583786197038091 I I #
edge $-1 $527 -20.01315551769451773 $319 -13.03881901970691004 $450 $534 forward 7 unknown #
point $-1 0 35.09830063688919921 18.71006504130395598 #
point $-1 9.150381184022926107 35.09830063688919921 18.71006504130395598 #
edge $-1 $535 1 $535 0 $322 $-1 forward 7 unknown #
vertex $-1 $323 $536 #
ellipse-curve $-1 6.135580251447343869 38.58546888588300305 12.67602398670119612 -0.6946583786197038091 0 0.7193397924579483238 1.079009688686922486 0 1.041987567929555603 1 I I #
point $-1 5.654200280698390202 38.58546888588300305 15.33384231161731037 #
plane-surface $-1 86.35517441328165944 22.05948161718228917 9.35503252065197799 -1 0 0 0 0 1 forward_v I I I I #
coedge $-1 $331 $329 $333 $467 reversed $210 $-1 #
edge $-1 $344 -9.35503252065197799 $469 9.35503252065197799 $343 $537 forward 7 unknown #
vertex $-1 $467 $538 #
straight-curve $-1 0 0 9.35503252065197799 0 0 -1 I I #
edge $-1 $465 -22.05948161718228917 $469 22.05948161718228917 $463 $539 forward 7 unknown #
straight-curve $-1 43.17758720664082972 0 0 -1 0 0 I I #
vertex $-1 $336 $540 #
straight-curve $-1 43.17758720664082972 44.11896323436457834 0 1 0 0 I I #
point $-1 86.35517441328165944 44.11896323436457834 0 #
point $-1 86.35517441328165944 0 0 #
straight-curve $-1 0 22.05948161718228917 18.71006504130395598 0 -1 0 I I #
point $-1 0 44.11896323436457834 18.71006504130395598 #
point $-1 0 0 18.71006504130395598 #
straight-curve $-1 86.35517441328165944 0 9.35503252065197799 0 0 -1 I I #
straight-curve $-1 86.35517441328165944 44.11896323436457834 9.35503252065197799 0 0 -1 I I #
coedge $-1 $355 $354 $362 $483 forward $135 $-1 #
edge $-1 $486 -22.05948161718228917 $358 -11.5385837538092666 $357 $541 forward 7 unknown #
straight-curve $-1 75.3697438902890724 10.52089786337302257 18.71006504130395243 -1 0 0 I I #
point $-1 86.35517441328165944 10.52089786337302257 18.71006504130395598 #
straight-curve $-1 81.15648871612195592 13.65996527443440023 18.71006504130395243 0 -1 0 I I #
edge $-1 $363 37.97890150948111199 $486 43.17758720664082972 $362 $542 forward 7 unknown #
point $-1 81.15648871612194171 0 18.71006504130395243 #
point $-1 81.15648871612194171 10.52089786337302257 18.71006504130395243 #
vertex $-1 $479 $543 #
straight-curve $-1 86.35517441328165944 0 9.35503252065197799 0 0 -1 I I #
vertex $-1 $370 $544 #
point $-1 81.71182756426067328 5.260448931686511287 11.73542979022034594 #
edge $-1 $491 21.96363006211779378 $494 30.80005065735018732 $375 $545 forward 7 unknown #
vertex $-1 $389 $546 #
straight-curve $-1 -8.404879118355573553 8.983414709103374918 18.71006504130395598 -1 0 0 I I #
edge $-1 $494 4.794449329542555205 $386 11.76878582753016289 $385 $547 forward 7 unknown #
vertex $-1 $493 $548 #
straight-curve $-1 -7.105427357601001859e-15 8.983414709103374918 9.873644446071555336 0.7193397924579483238 0 0.6946583786197038091 I I #
point $-1 9.150381184022926107 8.983414709103374918 18.71006504130395598 #
point $-1 0 2.009078211115767232 9.873644446071562442 #
straight-curve $-1 0 22.05948161718228917 18.71006504130395598 0 -1 0 I I #
vertex $-1 $392 $549 #
point $-1 7.214589940134267465 5.496246460109571075 13.71801155463075084 #
coedge $-1 $407 $406 $399 $502 forward $396 $-1 #
edge $-1 $503 21.96363006211779378 $506 30.80005065735018732 $501 $550 forward 7 unknown #
vertex $-1 $411 $551 #
straight-curve $-1 -8.404879118355573553 20.01315551769452128 18.71006504130395598 -1 0 0 I I #
edge $-1 $506 -0.7204210747530197523 $408 6.253915423234587934 $407 $552 forward 7 unknown #
vertex $-1 $505 $553 #
straight-curve $-1 -7.105427357601001859e-15 20.01315551769452128 9.873644446071555336 0.7193397924579483238 0 0.6946583786197038091 I I #
point $-1 9.150381184022926107 20.01315551769452128 18.71006504130395598 #
point $-1 0 13.03881901970691359 9.873644446071562442 #
straight-curve $-1 0 22.05948161718228917 18.71006504130395598 0 -1 0 I I #
vertex $-1 $414 $554 #
point $-1 7.214589940134267465 16.52598726870071744 13.71801155463075084 #
coedge $-1 $429 $428 $421 $514 forward $418 $-1 #
edge $-1 $515 21.96363006211779378 $518 30.80005065735018732 $513 $555 forward 7 unknown #
vertex $-1 $433 $556 #
straight-curve $-1 -8.404879118355573553 31.04289632628566409 18.71006504130395598 -1 0 0 I I #
edge $-1 $518 -6.235291479048591157 $430 0.7390450189390165292 $429 $557 forward 7 unknown #
vertex $-1 $517 $558 #
straight-curve $-1 -7.105427357601001859e-15 31.04289632628566409 9.873644446071555336 0.7193397924579483238 0 0.6946583786197038091 I I #
point $-1 9.150381184022926107 31.04289632628566409 18.71006504130395598 #
point $-1 0 24.0685598282980564 9.873644446071562442 #
straight-curve $-1 0 22.05948161718228917 18.71006504130395598 0 -1 0 I I #
vertex $-1 $436 $559 #
point $-1 7.214589940134267465 27.55572807729186025 13.71801155463075084 #
coedge $-1 $451 $450 $443 $526 forward $440 $-1 #
edge $-1 $527 21.96363006211779378 $530 30.80005065735018732 $525 $560 forward 7 unknown #
vertex $-1 $455 $561 #
straight-curve $-1 -8.404879118355573553 42.0726371348768069 18.71006504130395598 -1 0 0 I I #
edge $-1 $530 -11.75016188334416256 $452 -4.775825385356554875 $451 $562 forward 7 unknown #
vertex $-1 $529 $563 #
straight-curve $-1 -7.105427357601001859e-15 42.0726371348768069 9.873644446071555336 0.7193397924579483238 0 0.6946583786197038091 I I #
point $-1 9.150381184022926107 42.0726371348768069 18.71006504130395598 #
point $-1 0 35.09830063688919921 9.873644446071562442 #
straight-curve $-1 0 22.05948161718228917 18.71006504130395598 0 -1 0 I I #
vertex $-1 $458 $564 #
point $-1 7.214589940134267465 38.58546888588300305 13.71801155463075084 #
straight-curve $-1 0 44.11896323436457834 9.35503252065197799 0 0 -1 I I #
point $-1 0 0 0 #
straight-curve $-1 0 22.05948161718228917 0 0 1 0 I I #
point $-1 0 44.11896323436457834 0 #
straight-curve $-1 86.35517441328165944 22.05948161718228917 18.71006504130395598 0 1 0 I I #
straight-curve $-1 43.17758720664082972 0 18.71006504130395598 1 0 0 I I #
point $-1 86.35517441328165944 0 18.71006504130395598 #
point $-1 79.62273484852434535 5.260448931686511287 12.10379323175247279 #
straight-curve $-1 0 8.983414709103374918 40.67369510342174976 0 0 -1 I I #
point $-1 0 8.983414709103374918 18.71006504130395598 #
straight-curve $-1 0 13.77786403864593012 9.873644446071567771 0 -1 0 I I #
point $-1 0 8.983414709103374918 9.873644446071562442 #
point $-1 7.177567819376896807 5.496246460109571075 11.59701429801427253 #
straight-curve $-1 0 20.01315551769452128 40.67369510342174976 0 0 -1 I I #
point $-1 0 20.01315551769452128 18.71006504130395598 #
straight-curve $-1 0 19.29273444294150153 9.873644446071567771 0 -1 0 I I #
point $-1 0 20.01315551769452128 9.873644446071562442 #
point $-1 7.177567819376896807 16.52598726870071744 11.59701429801427253 #
straight-curve $-1 0 31.04289632628566409 40.67369510342174976 0 0 -1 I I #
point $-1 0 31.04289632628566409 18.71006504130395598 #
straight-curve $-1 0 24.80760484723707293 9.873644446071567771 0 -1 0 I I #
point $-1 0 31.04289632628566409 9.873644446071562442 #
point $-1 7.177567819376896807 27.55572807729186025 11.59701429801427253 #
straight-curve $-1 0 42.0726371348768069 40.67369510342174976 0 0 -1 I I #
point $-1 0 42.0726371348768069 18.71006504130395598 #
straight-curve $-1 0 30.32247525153264434 9.873644446071567771 0 -1 0 I I #
point $-1 0 42.0726371348768069 9.873644446071562442 #
point $-1 7.177567819376896807 38.58546888588300305 11.59701429801427253 #
End-of-ACIS-data 