300 0 5 0           
7 Unknown 11 ACIS 3.0 NT 24 Fri Oct 30 18:01:40 1998 
-1 9.9999999999999995e-007 1e-010 
body $5 $6 $-1 $7 #
body $8 $9 $-1 $10 #
body $11 $12 $-1 $13 #
body $14 $15 $-1 $16 #
body $17 $18 $-1 $19 #
display_attribute-st-attrib $-1 $20 $-1 $0 1 #
lump $-1 $-1 $21 $0 #
transform $-1 1 0 0 0 1 0 0 0 1 79.311502426221509 53.362866244688021 14.665139028089714 1 rotate no_reflect no_shear #
display_attribute-st-attrib $-1 $22 $-1 $1 1 #
lump $-1 $-1 $23 $1 #
transform $-1 1 0 0 0 1 0 0 0 1 79.311502426221509 53.362866244688021 14.665139028089714 1 rotate no_reflect no_shear #
display_attribute-st-attrib $-1 $24 $-1 $2 1 #
lump $-1 $-1 $25 $2 #
transform $-1 1 0 0 0 1 0 0 0 1 79.311502426221509 53.362866244688021 14.665139028089714 1 rotate no_reflect no_shear #
display_attribute-st-attrib $-1 $26 $-1 $3 1 #
lump $-1 $-1 $27 $3 #
transform $-1 1 0 0 0 1 0 0 0 1 79.311502426221509 53.362866244688021 14.665139028089714 1 rotate no_reflect no_shear #
display_attribute-st-attrib $-1 $28 $-1 $4 1 #
lump $-1 $-1 $29 $4 #
transform $-1 1 0 0 0 1 0 0 0 1 79.311502426221509 53.362866244688021 14.665139028089714 1 rotate no_reflect no_shear #
id_attribute-st-attrib $-1 $-1 $5 $0 1662 #
shell $-1 $-1 $-1 $30 $-1 $6 #
id_attribute-st-attrib $-1 $-1 $8 $1 1673 #
shell $-1 $-1 $-1 $31 $-1 $9 #
id_attribute-st-attrib $-1 $-1 $11 $2 1680 #
shell $-1 $-1 $-1 $32 $-1 $12 #
id_attribute-st-attrib $-1 $-1 $14 $3 1688 #
shell $-1 $-1 $-1 $33 $-1 $15 #
id_attribute-st-attrib $-1 $-1 $17 $4 1697 #
shell $-1 $-1 $-1 $34 $-1 $18 #
face $-1 $35 $36 $21 $-1 $37 forward single #
face $-1 $38 $39 $23 $-1 $40 forward single #
face $-1 $41 $42 $25 $-1 $43 reversed single #
face $-1 $44 $45 $27 $-1 $46 reversed single #
face $-1 $47 $48 $29 $-1 $49 reversed single #
face $-1 $50 $51 $21 $-1 $52 reversed single #
loop $-1 $-1 $53 $30 #
plane-surface $-1 0 0 14.665139028089714 0 0 1 1 0 0 forward_v I I I I #
face $-1 $54 $55 $23 $-1 $56 forward single #
loop $-1 $-1 $57 $31 #
plane-surface $-1 39.58272449889013 -139.7551476706181 133.36495131440984 -1 0 0 0 -0.54463904215088732 0.83867056331134215 forward_v I I I I #
face $-1 $58 $59 $25 $-1 $60 reversed single #
loop $-1 $61 $62 $32 #
cone-surface $-1 16.536375682668847 -40.922519423407216 5.3350235227663454 0 0.54463904215088732 -0.83867056331134215 1.5 0 0 1 I I 0 1 forward I I I I #
face $-1 $63 $64 $27 $-1 $65 reversed single #
loop $-1 $66 $67 $33 #
cone-surface $-1 25.17875648875183 -40.922519423407216 5.3350235227663454 0 0.54463904215088732 -0.83867056331134215 1.5 0 0 1 I I 0 1 forward I I I I #
face $-1 $68 $69 $29 $-1 $70 reversed single #
loop $-1 $71 $72 $34 #
cone-surface $-1 33.821137294834813 -40.922519423407216 5.3350235227663454 0 0.54463904215088732 -0.83867056331134215 1.5 0 0 1 I I 0 1 forward I I I I #
face $-1 $73 $74 $21 $-1 $75 reversed single #
loop $-1 $-1 $76 $35 #
plane-surface $-1 0 0 -14.665139028089714 0 0 1 1 0 0 forward_v I I I I #
coedge $-1 $77 $78 $79 $80 forward $36 $-1 #
face $-1 $81 $82 $23 $-1 $83 forward single #
loop $-1 $-1 $84 $38 #
plane-surface $-1 25.17875648875183 -53.362866244687979 0.33250648067368616 0 -0.54463904215088732 0.83867056331134215 1 0 0 forward_v I I I I #
coedge $-1 $85 $86 $87 $88 reversed $39 $-1 #
face $-1 $89 $90 $25 $-1 $91 forward single #
loop $-1 $92 $93 $41 #
cone-surface $-1 16.536375682668847 -39.108852464452944 2.5422213686674677 0 0.54463904215088732 -0.83867056331134215 0.75 0 0 1 I I -0.70710678118654757 0.70710678118654757 forward I I I I #
loop $-1 $-1 $94 $32 #
coedge $-1 $62 $62 $95 $96 reversed $42 $-1 #
face $-1 $97 $98 $27 $-1 $99 reversed single #
loop $-1 $100 $101 $44 #
cone-surface $-1 25.17875648875183 -39.108852464452944 2.5422213686674677 0 0.54463904215088732 -0.83867056331134215 0.75 0 0 1 I I -0.70710678118654757 0.70710678118654757 forward I I I I #
loop $-1 $-1 $102 $33 #
coedge $-1 $67 $67 $103 $104 reversed $45 $-1 #
face $-1 $105 $106 $29 $-1 $107 reversed single #
loop $-1 $108 $109 $47 #
cone-surface $-1 33.821137294834813 -39.108852464452944 2.5422213686674677 0 0.54463904215088732 -0.83867056331134215 0.75 0 0 1 I I -0.70710678118654757 0.70710678118654757 forward I I I I #
loop $-1 $-1 $110 $34 #
coedge $-1 $72 $72 $111 $112 reversed $48 $-1 #
face $-1 $113 $114 $21 $-1 $115 reversed single #
loop $-1 $-1 $116 $50 #
plane-surface $-1 0 -53.362866244688021 0 0 1 0 0 0 1 forward_v I I I I #
coedge $-1 $117 $118 $119 $120 forward $51 $-1 #
coedge $-1 $121 $53 $122 $123 forward $36 $-1 #
coedge $-1 $53 $121 $124 $125 forward $36 $-1 #
coedge $-1 $126 $127 $53 $80 reversed $128 $-1 #
edge $-1 $129 $130 $79 $131 forward #
face $-1 $132 $133 $23 $-1 $134 forward single #
loop $-1 $-1 $135 $54 #
plane-surface $-1 10.77478847861353 -139.7551476706181 133.36495131440984 1 0 0 0 0.54463904215088732 -0.83867056331134215 forward_v I I I I #
coedge $-1 $136 $137 $138 $139 reversed $55 $-1 #
coedge $-1 $86 $57 $137 $140 forward $39 $-1 #
coedge $-1 $57 $85 $141 $142 reversed $39 $-1 #
coedge $-1 $143 $138 $57 $88 forward $133 $-1 #
edge $-1 $144 $145 $87 $146 forward #
face $-1 $147 $148 $25 $-1 $149 forward single #
loop $-1 $-1 $150 $58 #
plane-surface $-1 39.58272449889013 -139.7551476706181 133.36495131440984 -1 0 0 0 -0.54463904215088732 0.83867056331134215 forward_v I I I I #
loop $-1 $-1 $151 $41 #
coedge $-1 $93 $93 $94 $152 forward $59 $-1 #
coedge $-1 $94 $94 $93 $152 reversed $61 $-1 #
coedge $-1 $95 $95 $62 $96 forward $148 $-1 #
edge $-1 $153 $153 $95 $154 forward #
face $-1 $155 $156 $27 $-1 $157 reversed single #
loop $-1 $158 $159 $63 #
cone-surface $-1 16.536375682668847 -40.922519423407216 5.3350235227663454 0 0.54463904215088732 -0.83867056331134215 1.5 0 0 1 I I 0 1 forward I I I I #
loop $-1 $-1 $160 $44 #
coedge $-1 $101 $101 $102 $161 forward $64 $-1 #
coedge $-1 $102 $102 $101 $161 reversed $66 $-1 #
coedge $-1 $103 $103 $67 $104 forward $162 $-1 #
edge $-1 $163 $163 $103 $164 forward #
face $-1 $165 $166 $29 $-1 $167 reversed single #
loop $-1 $168 $169 $68 #
cone-surface $-1 25.17875648875183 -40.922519423407216 5.3350235227663454 0 0.54463904215088732 -0.83867056331134215 1.5 0 0 1 I I 0 1 forward I I I I #
loop $-1 $-1 $170 $47 #
coedge $-1 $109 $109 $110 $171 forward $69 $-1 #
coedge $-1 $110 $110 $109 $171 reversed $71 $-1 #
coedge $-1 $111 $111 $72 $112 forward $172 $-1 #
edge $-1 $173 $173 $111 $174 forward #
face $-1 $175 $176 $21 $-1 $177 reversed single #
loop $-1 $-1 $178 $73 #
plane-surface $-1 -79.311502426221509 0 0 1 0 0 0 0 -1 forward_v I I I I #
coedge $-1 $179 $124 $180 $181 forward $74 $-1 #
coedge $-1 $182 $76 $179 $183 forward $51 $-1 #
coedge $-1 $76 $182 $184 $185 forward $51 $-1 #
coedge $-1 $127 $126 $76 $120 reversed $128 $-1 #
edge $-1 $186 $187 $119 $188 forward #
coedge $-1 $78 $77 $189 $190 forward $36 $-1 #
coedge $-1 $191 $192 $77 $123 reversed $176 $-1 #
edge $-1 $130 $193 $122 $194 forward #
coedge $-1 $116 $195 $78 $125 reversed $74 $-1 #
edge $-1 $196 $129 $124 $197 forward #
coedge $-1 $119 $79 $195 $198 forward $128 $-1 #
coedge $-1 $79 $119 $191 $199 reversed $128 $-1 #
loop $-1 $-1 $126 $175 #
vertex $-1 $80 $200 #
vertex $-1 $80 $201 #
straight-curve $-1 79.311502426221509 0 14.665139028089714 0 1 0 I I #
face $-1 $202 $203 $23 $-1 $204 reversed single #
loop $-1 $-1 $205 $81 #
plane-surface $-1 0 0 14.665139028089714 0 0 1 1 0 0 forward_v I I I I #
coedge $-1 $206 $207 $205 $208 reversed $82 $-1 #
coedge $-1 $209 $84 $207 $210 reversed $55 $-1 #
coedge $-1 $84 $209 $85 $140 reversed $55 $-1 #
coedge $-1 $87 $205 $84 $139 forward $133 $-1 #
edge $-1 $211 $144 $138 $212 forward #
edge $-1 $144 $213 $85 $214 forward #
coedge $-1 $215 $216 $86 $142 forward $217 $-1 #
edge $-1 $145 $213 $141 $218 forward #
coedge $-1 $219 $87 $216 $220 forward $133 $-1 #
vertex $-1 $139 $221 #
vertex $-1 $220 $222 #
straight-curve $-1 39.58272449889013 -69.87757383530905 14.665139028089712 0 -1 0 I I #
face $-1 $223 $224 $25 $-1 $225 forward single #
loop $-1 $226 $95 $89 #
plane-surface $-1 25.17875648875183 -53.362866244687979 0.33250648067368616 0 -0.54463904215088732 0.83867056331134215 1 0 0 forward_v I I I I #
coedge $-1 $227 $228 $229 $230 reversed $90 $-1 #
coedge $-1 $151 $151 $-1 $231 forward $92 $-1 #
edge $-1 $232 $232 $93 $233 forward #
vertex $-1 $96 $234 #
ellipse-curve $-1 16.536375682668847 -42.327707100748292 7.4988227543816723 0 0.54463904215088732 -0.83867056331134215 1.5 0 0 1 I I #
face $-1 $235 $236 $27 $-1 $237 forward single #
loop $-1 $238 $239 $97 #
cone-surface $-1 16.536375682668847 -39.108852464452944 2.5422213686674677 0 0.54463904215088732 -0.83867056331134215 0.75 0 0 1 I I -0.70710678118654757 0.70710678118654757 forward I I I I #
loop $-1 $-1 $240 $63 #
coedge $-1 $159 $159 $241 $242 reversed $98 $-1 #
coedge $-1 $160 $160 $-1 $243 forward $100 $-1 #
edge $-1 $244 $244 $101 $245 forward #
loop $-1 $246 $103 $235 #
vertex $-1 $104 $247 #
ellipse-curve $-1 25.17875648875183 -42.327707100748292 7.4988227543816723 0 0.54463904215088732 -0.83867056331134215 1.5 0 0 1 I I #
face $-1 $248 $249 $29 $-1 $250 reversed single #
loop $-1 $251 $252 $105 #
cone-surface $-1 25.17875648875183 -39.108852464452944 2.5422213686674677 0 0.54463904215088732 -0.83867056331134215 0.75 0 0 1 I I -0.70710678118654757 0.70710678118654757 forward I I I I #
loop $-1 $-1 $253 $68 #
coedge $-1 $169 $169 $254 $255 reversed $106 $-1 #
coedge $-1 $170 $170 $-1 $256 forward $108 $-1 #
edge $-1 $257 $257 $109 $258 forward #
loop $-1 $259 $111 $260 #
vertex $-1 $112 $261 #
ellipse-curve $-1 33.821137294834813 -42.327707100748292 7.4988227543816723 0 0.54463904215088732 -0.83867056331134215 1.5 0 0 1 I I #
face $-1 $-1 $128 $21 $-1 $262 reversed single #
loop $-1 $-1 $191 $113 #
plane-surface $-1 0 53.362866244688021 0 0 -1 0 0 0 -1 forward_v I I I I #
coedge $-1 $263 $189 $192 $264 forward $114 $-1 #
coedge $-1 $195 $116 $117 $183 reversed $74 $-1 #
coedge $-1 $189 $263 $116 $181 reversed $114 $-1 #
edge $-1 $196 $265 $180 $266 forward #
coedge $-1 $118 $117 $263 $267 forward $51 $-1 #
edge $-1 $187 $265 $179 $268 forward #
coedge $-1 $192 $191 $118 $185 reversed $176 $-1 #
edge $-1 $269 $186 $184 $270 forward #
vertex $-1 $120 $271 #
vertex $-1 $198 $272 #
straight-curve $-1 79.311502426221509 0 -14.665139028089714 0 -1 0 I I #
coedge $-1 $178 $180 $121 $190 reversed $114 $-1 #
edge $-1 $193 $196 $189 $273 forward #
coedge $-1 $184 $122 $127 $199 forward $176 $-1 #
coedge $-1 $122 $184 $178 $264 reversed $176 $-1 #
vertex $-1 $123 $274 #
straight-curve $-1 0 53.362866244688021 14.665139028089714 -1 0 0 I I #
coedge $-1 $124 $179 $126 $198 reversed $74 $-1 #
vertex $-1 $190 $275 #
straight-curve $-1 0 -53.362866244688021 14.665139028089714 1 0 0 I I #
edge $-1 $129 $187 $126 $276 forward #
edge $-1 $130 $186 $127 $277 forward #
point $-1 79.311502426221509 -53.362866244688021 14.665139028089714 #
point $-1 79.311502426221509 53.362866244688021 14.665139028089714 #
face $-1 $278 $217 $23 $-1 $279 reversed single #
loop $-1 $-1 $280 $132 #
plane-surface $-1 0 0 -14.665139028089714 0 0 1 1 0 0 forward_v I I I I #
coedge $-1 $138 $281 $135 $208 forward $133 $-1 #
coedge $-1 $207 $135 $282 $283 reversed $82 $-1 #
coedge $-1 $135 $206 $136 $210 forward $82 $-1 #
edge $-1 $284 $211 $205 $285 forward #
coedge $-1 $137 $136 $215 $286 reversed $55 $-1 #
edge $-1 $287 $211 $207 $288 forward #
vertex $-1 $139 $289 #
straight-curve $-1 12.589378244375915 -31.292547956808523 14.665139028089714 1 0 0 I I #
vertex $-1 $286 $290 #
straight-curve $-1 39.58272449889013 -53.362866244687979 0.33250648067368616 0 -0.83867056331134215 -0.54463904215088732 I I #
coedge $-1 $282 $141 $209 $286 forward $217 $-1 #
coedge $-1 $141 $291 $143 $220 reversed $217 $-1 #
loop $-1 $-1 $282 $202 #
straight-curve $-1 39.58272449889013 -53.362866244688021 66.682475657204918 0 0 -1 I I #
coedge $-1 $292 $143 $293 $294 forward $133 $-1 #
edge $-1 $145 $295 $216 $296 forward #
point $-1 39.58272449889013 -31.292547956808527 14.665139028089714 #
point $-1 39.58272449889013 -53.362866244688021 14.665139028089714 #
face $-1 $297 $298 $25 $-1 $299 forward single #
loop $-1 $-1 $300 $147 #
plane-surface $-1 10.77478847861353 -139.7551476706181 133.36495131440984 1 0 0 0 0.54463904215088732 -0.83867056331134215 forward_v I I I I #
loop $-1 $-1 $301 $89 #
coedge $-1 $228 $150 $302 $303 forward $90 $-1 #
coedge $-1 $150 $227 $304 $305 reversed $90 $-1 #
coedge $-1 $306 $307 $150 $230 forward $298 $-1 #
edge $-1 $308 $309 $229 $310 forward #
edge $-1 $311 $311 $151 $-1 forward #
vertex $-1 $152 $312 #
ellipse-curve $-1 16.536375682668847 -39.517331746066112 3.1712242911509745 0 -0.54463904215088732 0.83867056331134215 1.5 0 0 1 I I #
point $-1 18.036375682668847 -42.32770710074832 7.4988227543817159 #
face $-1 $313 $162 $27 $-1 $314 forward single #
loop $-1 $-1 $315 $155 #
plane-surface $-1 39.58272449889013 -139.7551476706181 133.36495131440984 -1 0 0 0 -0.54463904215088732 0.83867056331134215 forward_v I I I I #
loop $-1 $-1 $316 $97 #
coedge $-1 $239 $239 $240 $317 forward $156 $-1 #
coedge $-1 $240 $240 $239 $317 reversed $158 $-1 #
coedge $-1 $241 $241 $159 $242 forward $246 $-1 #
edge $-1 $318 $318 $241 $319 forward #
edge $-1 $320 $320 $160 $-1 forward #
vertex $-1 $161 $321 #
ellipse-curve $-1 25.17875648875183 -39.517331746066112 3.1712242911509745 0 -0.54463904215088732 0.83867056331134215 1.5 0 0 1 I I #
loop $-1 $322 $241 $235 #
point $-1 26.67875648875183 -42.32770710074832 7.4988227543817159 #
face $-1 $323 $324 $29 $-1 $325 reversed single #
loop $-1 $326 $327 $165 #
cone-surface $-1 16.536375682668847 -40.922519423407216 5.3350235227663454 0 0.54463904215088732 -0.83867056331134215 1.5 0 0 1 I I 0 1 forward I I I I #
loop $-1 $-1 $328 $105 #
coedge $-1 $252 $252 $253 $329 forward $166 $-1 #
coedge $-1 $253 $253 $252 $329 reversed $168 $-1 #
coedge $-1 $254 $254 $169 $255 forward $259 $-1 #
edge $-1 $330 $330 $254 $331 forward #
edge $-1 $332 $332 $170 $-1 forward #
vertex $-1 $171 $333 #
ellipse-curve $-1 33.821137294834813 -39.517331746066112 3.1712242911509745 0 -0.54463904215088732 0.83867056331134215 1.5 0 0 1 I I #
loop $-1 $334 $254 $260 #
face $-1 $335 $172 $29 $-1 $336 forward single #
point $-1 35.321137294834813 -42.32770710074832 7.4988227543817159 #
plane-surface $-1 79.311502426221509 0 0 -1 0 0 0 0 1 forward_v I I I I #
coedge $-1 $180 $178 $182 $267 reversed $114 $-1 #
edge $-1 $193 $269 $192 $337 forward #
vertex $-1 $267 $338 #
straight-curve $-1 -79.311502426221509 -53.362866244688021 0 0 0 -1 I I #
edge $-1 $265 $269 $263 $339 forward #
straight-curve $-1 0 -53.362866244688021 -14.665139028089714 -1 0 0 I I #
vertex $-1 $185 $340 #
straight-curve $-1 0 53.362866244688021 -14.665139028089714 1 0 0 I I #
point $-1 79.311502426221509 53.362866244688021 -14.665139028089714 #
point $-1 79.311502426221509 -53.362866244688021 -14.665139028089714 #
straight-curve $-1 -79.311502426221509 0 14.665139028089714 0 -1 0 I I #
point $-1 -79.311502426221509 53.362866244688021 14.665139028089714 #
point $-1 -79.311502426221509 -53.362866244688021 14.665139028089714 #
straight-curve $-1 79.311502426221509 -53.362866244688021 0 0 0 -1 I I #
straight-curve $-1 79.311502426221509 53.362866244688021 0 0 0 -1 I I #
face $-1 $341 $342 $23 $-1 $343 reversed single #
plane-surface $-1 0 -53.362866244688021 0 0 1 0 0 0 1 forward_v I I I I #
coedge $-1 $344 $345 $346 $347 forward $203 $-1 #
coedge $-1 $205 $348 $349 $350 forward $133 $-1 #
coedge $-1 $349 $215 $206 $283 forward $217 $-1 #
edge $-1 $287 $284 $282 $351 forward #
vertex $-1 $283 $352 #
straight-curve $-1 10.77478847861353 -69.87757383530905 14.665139028089712 0 1 0 I I #
edge $-1 $213 $287 $215 $353 forward #
vertex $-1 $286 $354 #
straight-curve $-1 10.77478847861353 -53.362866244687979 0.33250648067368616 0 0.83867056331134215 0.54463904215088732 I I #
point $-1 10.77478847861353 -31.292547956808527 14.665139028089714 #
point $-1 39.58272449889013 -53.362866244688021 0.33250648067365846 #
coedge $-1 $216 $355 $356 $357 reversed $217 $-1 #
coedge $-1 $348 $219 $358 $359 forward $133 $-1 #
coedge $-1 $356 $360 $219 $294 reversed $361 $-1 #
edge $-1 $295 $362 $293 $363 forward #
vertex $-1 $294 $364 #
straight-curve $-1 0 -53.362866244688021 14.665139028089714 1 0 0 I I #
face $-1 $365 $366 $25 $-1 $367 reversed single #
loop $-1 $-1 $368 $223 #
plane-surface $-1 0 0 14.665139028089714 0 0 1 1 0 0 forward_v I I I I #
coedge $-1 $369 $370 $368 $371 reversed $224 $-1 #
coedge $-1 $372 $302 $307 $373 reversed $226 $-1 #
coedge $-1 $301 $374 $227 $303 reversed $226 $-1 #
edge $-1 $308 $375 $227 $376 forward #
coedge $-1 $377 $378 $228 $305 forward $379 $-1 #
edge $-1 $309 $375 $304 $380 forward #
coedge $-1 $381 $229 $378 $382 forward $298 $-1 #
coedge $-1 $229 $368 $301 $373 forward $298 $-1 #
vertex $-1 $373 $383 #
vertex $-1 $382 $384 #
straight-curve $-1 39.58272449889013 -69.87757383530905 14.665139028089712 0 -1 0 I I #
vertex $-1 $231 $385 #
point $-1 18.036375682668847 -39.517331746066112 3.1712242911509745 #
face $-1 $386 $387 $27 $-1 $388 forward single #
plane-surface $-1 25.17875648875183 -53.362866244687979 0.33250648067368616 0 -0.54463904215088732 0.83867056331134215 1 0 0 forward_v I I I I #
coedge $-1 $389 $390 $391 $392 reversed $236 $-1 #
coedge $-1 $316 $316 $-1 $393 forward $238 $-1 #
edge $-1 $394 $394 $239 $395 forward #
vertex $-1 $242 $396 #
ellipse-curve $-1 16.536375682668847 -42.327707100748292 7.4988227543816723 0 0.54463904215088732 -0.83867056331134215 1.5 0 0 1 I I #
vertex $-1 $243 $397 #
point $-1 26.67875648875183 -39.517331746066112 3.1712242911509745 #
loop $-1 $-1 $398 $235 #
face $-1 $260 $399 $29 $-1 $400 forward single #
loop $-1 $401 $402 $248 #
cone-surface $-1 16.536375682668847 -39.108852464452944 2.5422213686674677 0 0.54463904215088732 -0.83867056331134215 0.75 0 0 1 I I -0.70710678118654757 0.70710678118654757 forward I I I I #
loop $-1 $-1 $403 $165 #
coedge $-1 $327 $327 $404 $405 reversed $249 $-1 #
coedge $-1 $328 $328 $-1 $406 forward $251 $-1 #
edge $-1 $407 $407 $252 $408 forward #
vertex $-1 $255 $409 #
ellipse-curve $-1 25.17875648875183 -42.327707100748292 7.4988227543816723 0 0.54463904215088732 -0.83867056331134215 1.5 0 0 1 I I #
vertex $-1 $256 $410 #
point $-1 35.321137294834813 -39.517331746066112 3.1712242911509745 #
loop $-1 $411 $404 $260 #
face $-1 $412 $413 $29 $-1 $414 forward single #
plane-surface $-1 25.17875648875183 -53.362866244687979 0.33250648067368616 0 -0.54463904215088732 0.83867056331134215 1 0 0 forward_v I I I I #
straight-curve $-1 -79.311502426221509 53.362866244688021 0 0 0 -1 I I #
point $-1 -79.311502426221509 -53.362866244688021 -14.665139028089714 #
straight-curve $-1 -79.311502426221509 0 -14.665139028089714 0 1 0 I I #
point $-1 -79.311502426221509 53.362866244688021 -14.665139028089714 #
face $-1 $415 $416 $23 $-1 $417 reversed single #
loop $-1 $-1 $418 $278 #
plane-surface $-1 -79.311502426221509 0 0 1 0 0 0 0 -1 forward_v I I I I #
coedge $-1 $419 $280 $355 $420 forward $203 $-1 #
coedge $-1 $280 $419 $421 $422 forward $203 $-1 #
coedge $-1 $360 $356 $280 $347 reversed $361 $-1 #
edge $-1 $423 $424 $346 $425 forward #
coedge $-1 $281 $292 $426 $427 forward $133 $-1 #
coedge $-1 $428 $282 $281 $350 reversed $217 $-1 #
edge $-1 $429 $284 $349 $296 forward #
straight-curve $-1 10.77478847861353 -53.362866244688021 66.682475657204918 0 0 1 I I #
point $-1 10.77478847861353 -53.362866244688021 14.665139028089714 #
straight-curve $-1 12.589378244375915 -53.362866244688021 0.33250648067366023 -1 0 0 I I #
point $-1 10.77478847861353 -53.362866244688021 0.33250648067365846 #
coedge $-1 $291 $428 $344 $420 reversed $217 $-1 #
coedge $-1 $346 $293 $291 $357 forward $361 $-1 #
edge $-1 $295 $424 $356 $430 forward #
coedge $-1 $431 $432 $292 $359 reversed $416 $-1 #
edge $-1 $362 $433 $358 $434 forward #
coedge $-1 $293 $346 $431 $435 reversed $361 $-1 #
loop $-1 $-1 $356 $415 #
vertex $-1 $294 $436 #
straight-curve $-1 79.311502426221509 0 14.665139028089714 0 1 0 I I #
point $-1 79.311502426221509 -53.362866244688021 14.665139028089714 #
face $-1 $437 $379 $25 $-1 $438 reversed single #
loop $-1 $-1 $439 $297 #
plane-surface $-1 0 0 -14.665139028089714 0 0 1 1 0 0 forward_v I I I I #
coedge $-1 $307 $440 $300 $371 forward $298 $-1 #
coedge $-1 $370 $300 $441 $442 reversed $224 $-1 #
coedge $-1 $300 $369 $372 $443 forward $224 $-1 #
edge $-1 $444 $445 $368 $446 forward #
coedge $-1 $374 $301 $370 $443 reversed $226 $-1 #
edge $-1 $445 $308 $307 $447 forward #
coedge $-1 $302 $372 $377 $448 reversed $226 $-1 #
vertex $-1 $448 $449 #
straight-curve $-1 39.58272449889013 -53.362866244687979 0.33250648067368616 0 -0.83867056331134215 -0.54463904215088732 I I #
coedge $-1 $441 $304 $374 $448 forward $379 $-1 #
coedge $-1 $304 $450 $306 $382 reversed $379 $-1 #
loop $-1 $-1 $441 $365 #
straight-curve $-1 39.58272449889013 -53.362866244688021 66.682475657204918 0 0 -1 I I #
coedge $-1 $451 $306 $452 $453 forward $298 $-1 #
edge $-1 $309 $454 $378 $455 forward #
point $-1 39.58272449889013 -31.292547956808527 14.665139028089714 #
point $-1 39.58272449889013 -53.362866244688021 14.665139028089714 #
point $-1 16.536375682668847 -38.700373182839776 1.913218446183961 #
face $-1 $456 $457 $27 $-1 $458 forward single #
loop $-1 $-1 $459 $313 #
plane-surface $-1 10.77478847861353 -139.7551476706181 133.36495131440984 1 0 0 0 0.54463904215088732 -0.83867056331134215 forward_v I I I I #
coedge $-1 $390 $315 $460 $461 forward $236 $-1 #
coedge $-1 $315 $389 $462 $463 reversed $236 $-1 #
coedge $-1 $464 $465 $315 $392 forward $457 $-1 #
edge $-1 $466 $467 $391 $468 forward #
edge $-1 $469 $469 $316 $-1 forward #
vertex $-1 $317 $470 #
ellipse-curve $-1 16.536375682668847 -39.517331746066112 3.1712242911509745 0 -0.54463904215088732 0.83867056331134215 1.5 0 0 1 I I #
point $-1 18.036375682668847 -42.32770710074832 7.4988227543817159 #
point $-1 25.17875648875183 -38.700373182839776 1.913218446183961 #
coedge $-1 $471 $460 $465 $472 reversed $322 $-1 #
loop $-1 $-1 $473 $323 #
plane-surface $-1 39.58272449889013 -139.7551476706181 133.36495131440984 -1 0 0 0 -0.54463904215088732 0.83867056331134215 forward_v I I I I #
loop $-1 $-1 $474 $248 #
coedge $-1 $402 $402 $403 $475 forward $324 $-1 #
coedge $-1 $403 $403 $402 $475 reversed $326 $-1 #
coedge $-1 $404 $404 $327 $405 forward $334 $-1 #
edge $-1 $476 $476 $404 $477 forward #
edge $-1 $478 $478 $328 $-1 forward #
vertex $-1 $329 $479 #
ellipse-curve $-1 25.17875648875183 -39.517331746066112 3.1712242911509745 0 -0.54463904215088732 0.83867056331134215 1.5 0 0 1 I I #
point $-1 26.67875648875183 -42.32770710074832 7.4988227543817159 #
point $-1 33.821137294834813 -38.700373182839776 1.913218446183961 #
loop $-1 $-1 $480 $260 #
face $-1 $481 $482 $29 $-1 $483 forward single #
loop $-1 $-1 $484 $335 #
plane-surface $-1 10.77478847861353 -139.7551476706181 133.36495131440984 1 0 0 0 0.54463904215088732 -0.83867056331134215 forward_v I I I I #
face $-1 $-1 $361 $23 $-1 $485 reversed single #
loop $-1 $-1 $431 $341 #
plane-surface $-1 0 53.362866244688021 0 0 -1 0 0 0 -1 forward_v I I I I #
coedge $-1 $486 $426 $432 $487 forward $342 $-1 #
coedge $-1 $345 $344 $486 $488 forward $203 $-1 #
edge $-1 $424 $489 $355 $490 forward #
coedge $-1 $432 $431 $345 $422 reversed $416 $-1 #
edge $-1 $491 $423 $421 $492 forward #
vertex $-1 $347 $493 #
vertex $-1 $357 $494 #
straight-curve $-1 79.311502426221509 0 -14.665139028089714 0 -1 0 I I #
coedge $-1 $418 $495 $348 $427 reversed $342 $-1 #
edge $-1 $433 $429 $426 $496 forward #
coedge $-1 $355 $349 $495 $497 forward $217 $-1 #
vertex $-1 $427 $498 #
straight-curve $-1 79.311502426221509 -53.362866244688021 0 0 0 -1 I I #
coedge $-1 $421 $358 $360 $435 forward $416 $-1 #
coedge $-1 $358 $421 $418 $487 reversed $416 $-1 #
vertex $-1 $359 $499 #
straight-curve $-1 0 53.362866244688021 14.665139028089714 -1 0 0 I I #
edge $-1 $362 $423 $360 $500 forward #
point $-1 79.311502426221509 53.362866244688021 14.665139028089714 #
face $-1 $501 $502 $25 $-1 $503 reversed single #
plane-surface $-1 0 -53.362866244688021 0 0 1 0 0 0 1 forward_v I I I I #
coedge $-1 $504 $505 $506 $507 forward $366 $-1 #
coedge $-1 $368 $508 $509 $510 forward $298 $-1 #
coedge $-1 $509 $377 $369 $442 forward $379 $-1 #
edge $-1 $511 $444 $441 $512 forward #
edge $-1 $511 $445 $370 $513 forward #
vertex $-1 $442 $514 #
vertex $-1 $373 $515 #
straight-curve $-1 10.77478847861353 -69.87757383530905 14.665139028089712 0 1 0 I I #
straight-curve $-1 12.589378244375915 -31.292547956808523 14.665139028089714 1 0 0 I I #
edge $-1 $375 $511 $377 $516 forward #
point $-1 39.58272449889013 -53.362866244688021 0.33250648067365846 #
coedge $-1 $378 $517 $518 $519 reversed $379 $-1 #
coedge $-1 $508 $381 $520 $521 forward $298 $-1 #
coedge $-1 $518 $522 $381 $453 reversed $523 $-1 #
edge $-1 $454 $524 $452 $525 forward #
vertex $-1 $453 $526 #
straight-curve $-1 0 -53.362866244688021 14.665139028089714 1 0 0 I I #
face $-1 $527 $528 $27 $-1 $529 reversed single #
loop $-1 $-1 $530 $386 #
plane-surface $-1 0 0 14.665139028089714 0 0 1 1 0 0 forward_v I I I I #
coedge $-1 $531 $532 $530 $533 reversed $387 $-1 #
coedge $-1 $398 $534 $389 $461 reversed $322 $-1 #
edge $-1 $466 $535 $389 $536 forward #
coedge $-1 $537 $538 $390 $463 forward $539 $-1 #
edge $-1 $467 $535 $462 $540 forward #
coedge $-1 $541 $391 $538 $542 forward $457 $-1 #
coedge $-1 $391 $530 $398 $472 forward $457 $-1 #
vertex $-1 $472 $543 #
vertex $-1 $542 $544 #
straight-curve $-1 39.58272449889013 -69.87757383530905 14.665139028089712 0 -1 0 I I #
vertex $-1 $393 $545 #
point $-1 18.036375682668847 -39.517331746066112 3.1712242911509745 #
coedge $-1 $534 $398 $532 $546 reversed $322 $-1 #
edge $-1 $547 $466 $465 $548 forward #
coedge $-1 $549 $550 $551 $552 reversed $399 $-1 #
coedge $-1 $474 $474 $-1 $553 forward $401 $-1 #
edge $-1 $554 $554 $402 $555 forward #
vertex $-1 $405 $556 #
ellipse-curve $-1 16.536375682668847 -42.327707100748292 7.4988227543816723 0 0.54463904215088732 -0.83867056331134215 1.5 0 0 1 I I #
vertex $-1 $406 $557 #
point $-1 26.67875648875183 -39.517331746066112 3.1712242911509745 #
coedge $-1 $558 $559 $560 $561 reversed $411 $-1 #
face $-1 $562 $563 $29 $-1 $564 reversed single #
loop $-1 $-1 $565 $412 #
plane-surface $-1 0 0 14.665139028089714 0 0 1 1 0 0 forward_v I I I I #
coedge $-1 $566 $567 $565 $568 reversed $413 $-1 #
plane-surface $-1 79.311502426221509 0 0 -1 0 0 0 0 1 forward_v I I I I #
coedge $-1 $495 $418 $419 $488 reversed $342 $-1 #
edge $-1 $433 $491 $432 $569 forward #
edge $-1 $489 $491 $486 $570 forward #
vertex $-1 $488 $571 #
straight-curve $-1 0 -53.362866244688021 -14.665139028089714 -1 0 0 I I #
vertex $-1 $422 $572 #
straight-curve $-1 0 53.362866244688021 -14.665139028089714 1 0 0 I I #
point $-1 79.311502426221509 53.362866244688021 -14.665139028089714 #
point $-1 79.311502426221509 -53.362866244688021 -14.665139028089714 #
coedge $-1 $426 $486 $428 $497 reversed $342 $-1 #
straight-curve $-1 -79.311502426221509 0 14.665139028089714 0 -1 0 I I #
edge $-1 $429 $489 $495 $573 forward #
point $-1 -79.311502426221509 -53.362866244688021 14.665139028089714 #
point $-1 -79.311502426221509 53.362866244688021 14.665139028089714 #
straight-curve $-1 79.311502426221509 53.362866244688021 0 0 0 -1 I I #
face $-1 $574 $575 $25 $-1 $576 reversed single #
loop $-1 $-1 $577 $437 #
plane-surface $-1 -79.311502426221509 0 0 1 0 0 0 0 -1 forward_v I I I I #
coedge $-1 $578 $439 $517 $579 forward $366 $-1 #
coedge $-1 $439 $578 $580 $581 forward $366 $-1 #
coedge $-1 $522 $518 $439 $507 reversed $523 $-1 #
edge $-1 $582 $583 $506 $584 forward #
coedge $-1 $440 $451 $585 $586 forward $298 $-1 #
coedge $-1 $587 $441 $440 $510 reversed $379 $-1 #
edge $-1 $588 $444 $509 $455 forward #
vertex $-1 $448 $589 #
straight-curve $-1 10.77478847861353 -53.362866244688021 66.682475657204918 0 0 1 I I #
straight-curve $-1 10.77478847861353 -53.362866244687979 0.33250648067368616 0 0.83867056331134215 0.54463904215088732 I I #
point $-1 10.77478847861353 -53.362866244688021 14.665139028089714 #
point $-1 10.77478847861353 -31.292547956808527 14.665139028089714 #
straight-curve $-1 12.589378244375915 -53.362866244688021 0.33250648067366023 -1 0 0 I I #
coedge $-1 $450 $587 $504 $579 reversed $379 $-1 #
coedge $-1 $506 $452 $450 $519 forward $523 $-1 #
edge $-1 $454 $583 $518 $590 forward #
coedge $-1 $591 $592 $451 $521 reversed $575 $-1 #
edge $-1 $524 $593 $520 $594 forward #
coedge $-1 $452 $506 $591 $595 reversed $523 $-1 #
loop $-1 $-1 $518 $574 #
vertex $-1 $453 $596 #
straight-curve $-1 79.311502426221509 0 14.665139028089714 0 1 0 I I #
point $-1 79.311502426221509 -53.362866244688021 14.665139028089714 #
face $-1 $597 $539 $27 $-1 $598 reversed single #
loop $-1 $-1 $599 $456 #
plane-surface $-1 0 0 -14.665139028089714 0 0 1 1 0 0 forward_v I I I I #
coedge $-1 $465 $600 $459 $533 forward $457 $-1 #
coedge $-1 $532 $459 $601 $602 reversed $387 $-1 #
coedge $-1 $459 $531 $471 $546 forward $387 $-1 #
edge $-1 $603 $547 $530 $604 forward #
coedge $-1 $460 $471 $537 $605 reversed $322 $-1 #
vertex $-1 $605 $606 #
straight-curve $-1 39.58272449889013 -53.362866244687979 0.33250648067368616 0 -0.83867056331134215 -0.54463904215088732 I I #
coedge $-1 $601 $462 $534 $605 forward $539 $-1 #
coedge $-1 $462 $607 $464 $542 reversed $539 $-1 #
loop $-1 $-1 $601 $527 #
straight-curve $-1 39.58272449889013 -53.362866244688021 66.682475657204918 0 0 -1 I I #
coedge $-1 $608 $464 $609 $610 forward $457 $-1 #
edge $-1 $467 $611 $538 $612 forward #
point $-1 39.58272449889013 -31.292547956808527 14.665139028089714 #
point $-1 39.58272449889013 -53.362866244688021 14.665139028089714 #
point $-1 16.536375682668847 -38.700373182839776 1.913218446183961 #
edge $-1 $613 $547 $532 $614 forward #
vertex $-1 $472 $615 #
straight-curve $-1 12.589378244375915 -31.292547956808523 14.665139028089714 1 0 0 I I #
coedge $-1 $550 $473 $559 $616 forward $399 $-1 #
coedge $-1 $473 $549 $617 $618 reversed $399 $-1 #
coedge $-1 $619 $560 $473 $552 forward $482 $-1 #
edge $-1 $620 $621 $551 $622 forward #
edge $-1 $623 $623 $474 $-1 forward #
vertex $-1 $475 $624 #
ellipse-curve $-1 16.536375682668847 -39.517331746066112 3.1712242911509745 0 -0.54463904215088732 0.83867056331134215 1.5 0 0 1 I I #
point $-1 18.036375682668847 -42.32770710074832 7.4988227543817159 #
point $-1 25.17875648875183 -38.700373182839776 1.913218446183961 #
coedge $-1 $625 $480 $567 $626 reversed $411 $-1 #
coedge $-1 $480 $625 $549 $616 reversed $411 $-1 #
coedge $-1 $551 $565 $480 $561 forward $482 $-1 #
edge $-1 $627 $620 $560 $628 forward #
face $-1 $629 $630 $29 $-1 $631 reversed single #
loop $-1 $-1 $632 $481 #
plane-surface $-1 0 0 -14.665139028089714 0 0 1 1 0 0 forward_v I I I I #
coedge $-1 $560 $633 $484 $568 forward $482 $-1 #
coedge $-1 $567 $484 $634 $635 reversed $413 $-1 #
coedge $-1 $484 $566 $558 $626 forward $413 $-1 #
edge $-1 $636 $627 $565 $637 forward #
straight-curve $-1 -79.311502426221509 53.362866244688021 0 0 0 -1 I I #
straight-curve $-1 -79.311502426221509 0 -14.665139028089714 0 1 0 I I #
point $-1 -79.311502426221509 -53.362866244688021 -14.665139028089714 #
point $-1 -79.311502426221509 53.362866244688021 -14.665139028089714 #
straight-curve $-1 -79.311502426221509 -53.362866244688021 0 0 0 -1 I I #
face $-1 $-1 $523 $25 $-1 $638 reversed single #
loop $-1 $-1 $591 $501 #
plane-surface $-1 0 53.362866244688021 0 0 -1 0 0 0 -1 forward_v I I I I #
coedge $-1 $639 $585 $592 $640 forward $502 $-1 #
coedge $-1 $505 $504 $639 $641 forward $366 $-1 #
edge $-1 $583 $642 $517 $643 forward #
coedge $-1 $592 $591 $505 $581 reversed $575 $-1 #
edge $-1 $644 $582 $580 $645 forward #
vertex $-1 $507 $646 #
vertex $-1 $519 $647 #
straight-curve $-1 79.311502426221509 0 -14.665139028089714 0 -1 0 I I #
coedge $-1 $577 $648 $508 $586 reversed $502 $-1 #
edge $-1 $593 $588 $585 $649 forward #
coedge $-1 $517 $509 $648 $650 forward $379 $-1 #
vertex $-1 $586 $651 #
point $-1 10.77478847861353 -53.362866244688021 0.33250648067365846 #
straight-curve $-1 79.311502426221509 -53.362866244688021 0 0 0 -1 I I #
coedge $-1 $580 $520 $522 $595 forward $575 $-1 #
coedge $-1 $520 $580 $577 $640 reversed $575 $-1 #
vertex $-1 $521 $652 #
straight-curve $-1 0 53.362866244688021 14.665139028089714 -1 0 0 I I #
edge $-1 $524 $582 $522 $653 forward #
point $-1 79.311502426221509 53.362866244688021 14.665139028089714 #
face $-1 $654 $655 $27 $-1 $656 reversed single #
plane-surface $-1 0 -53.362866244688021 0 0 1 0 0 0 1 forward_v I I I I #
coedge $-1 $657 $658 $659 $660 forward $528 $-1 #
coedge $-1 $530 $661 $662 $663 forward $457 $-1 #
coedge $-1 $662 $537 $531 $602 forward $539 $-1 #
edge $-1 $613 $603 $601 $664 forward #
vertex $-1 $602 $665 #
straight-curve $-1 10.77478847861353 -69.87757383530905 14.665139028089712 0 1 0 I I #
edge $-1 $535 $613 $537 $666 forward #
point $-1 39.58272449889013 -53.362866244688021 0.33250648067365846 #
coedge $-1 $538 $667 $668 $669 reversed $539 $-1 #
coedge $-1 $661 $541 $670 $671 forward $457 $-1 #
coedge $-1 $668 $672 $541 $610 reversed $673 $-1 #
edge $-1 $611 $674 $609 $675 forward #
vertex $-1 $610 $676 #
straight-curve $-1 0 -53.362866244688021 14.665139028089714 1 0 0 I I #
vertex $-1 $605 $677 #
straight-curve $-1 10.77478847861353 -53.362866244687979 0.33250648067368616 0 0.83867056331134215 0.54463904215088732 I I #
point $-1 10.77478847861353 -31.292547956808527 14.665139028089714 #
edge $-1 $620 $678 $549 $679 forward #
coedge $-1 $680 $681 $550 $618 forward $630 $-1 #
edge $-1 $621 $678 $617 $682 forward #
coedge $-1 $683 $551 $681 $684 forward $482 $-1 #
vertex $-1 $561 $685 #
vertex $-1 $684 $686 #
straight-curve $-1 39.58272449889013 -69.87757383530905 14.665139028089712 0 -1 0 I I #
vertex $-1 $553 $687 #
point $-1 18.036375682668847 -39.517331746066112 3.1712242911509745 #
coedge $-1 $559 $558 $680 $688 reversed $411 $-1 #
edge $-1 $689 $627 $567 $690 forward #
vertex $-1 $561 $691 #
straight-curve $-1 12.589378244375915 -31.292547956808523 14.665139028089714 1 0 0 I I #
face $-1 $692 $693 $29 $-1 $694 reversed single #
loop $-1 $-1 $634 $562 #
plane-surface $-1 0 -53.362866244688021 0 0 1 0 0 0 1 forward_v I I I I #
coedge $-1 $695 $696 $697 $698 forward $563 $-1 #
coedge $-1 $565 $699 $700 $701 forward $482 $-1 #
coedge $-1 $700 $680 $566 $635 forward $630 $-1 #
edge $-1 $689 $636 $634 $702 forward #
vertex $-1 $635 $703 #
straight-curve $-1 10.77478847861353 -69.87757383530905 14.665139028089712 0 1 0 I I #
plane-surface $-1 79.311502426221509 0 0 -1 0 0 0 0 1 forward_v I I I I #
coedge $-1 $648 $577 $578 $641 reversed $502 $-1 #
edge $-1 $593 $644 $592 $704 forward #
edge $-1 $642 $644 $639 $705 forward #
vertex $-1 $641 $706 #
straight-curve $-1 0 -53.362866244688021 -14.665139028089714 -1 0 0 I I #
vertex $-1 $581 $707 #
straight-curve $-1 0 53.362866244688021 -14.665139028089714 1 0 0 I I #
point $-1 79.311502426221509 53.362866244688021 -14.665139028089714 #
point $-1 79.311502426221509 -53.362866244688021 -14.665139028089714 #
coedge $-1 $585 $639 $587 $650 reversed $502 $-1 #
straight-curve $-1 -79.311502426221509 0 14.665139028089714 0 -1 0 I I #
edge $-1 $588 $642 $648 $708 forward #
point $-1 -79.311502426221509 -53.362866244688021 14.665139028089714 #
point $-1 -79.311502426221509 53.362866244688021 14.665139028089714 #
straight-curve $-1 79.311502426221509 53.362866244688021 0 0 0 -1 I I #
face $-1 $709 $710 $27 $-1 $711 reversed single #
loop $-1 $-1 $712 $597 #
plane-surface $-1 -79.311502426221509 0 0 1 0 0 0 0 -1 forward_v I I I I #
coedge $-1 $713 $599 $667 $714 forward $528 $-1 #
coedge $-1 $599 $713 $715 $716 forward $528 $-1 #
coedge $-1 $672 $668 $599 $660 reversed $673 $-1 #
edge $-1 $717 $718 $659 $719 forward #
coedge $-1 $600 $608 $720 $721 forward $457 $-1 #
coedge $-1 $722 $601 $600 $663 reversed $539 $-1 #
edge $-1 $723 $603 $662 $612 forward #
straight-curve $-1 10.77478847861353 -53.362866244688021 66.682475657204918 0 0 1 I I #
point $-1 10.77478847861353 -53.362866244688021 14.665139028089714 #
straight-curve $-1 12.589378244375915 -53.362866244688021 0.33250648067366023 -1 0 0 I I #
coedge $-1 $607 $722 $657 $714 reversed $539 $-1 #
coedge $-1 $659 $609 $607 $669 forward $673 $-1 #
edge $-1 $611 $718 $668 $724 forward #
coedge $-1 $725 $726 $608 $671 reversed $710 $-1 #
edge $-1 $674 $727 $670 $728 forward #
coedge $-1 $609 $659 $725 $729 reversed $673 $-1 #
loop $-1 $-1 $668 $709 #
vertex $-1 $610 $730 #
straight-curve $-1 79.311502426221509 0 14.665139028089714 0 1 0 I I #
point $-1 79.311502426221509 -53.362866244688021 14.665139028089714 #
point $-1 10.77478847861353 -53.362866244688021 0.33250648067365846 #
vertex $-1 $688 $731 #
straight-curve $-1 39.58272449889013 -53.362866244687979 0.33250648067368616 0 -0.83867056331134215 -0.54463904215088732 I I #
coedge $-1 $634 $617 $625 $688 forward $630 $-1 #
coedge $-1 $617 $732 $619 $684 reversed $630 $-1 #
straight-curve $-1 39.58272449889013 -53.362866244688021 66.682475657204918 0 0 -1 I I #
coedge $-1 $733 $619 $734 $735 forward $482 $-1 #
edge $-1 $621 $736 $681 $737 forward #
point $-1 39.58272449889013 -31.292547956808527 14.665139028089714 #
point $-1 39.58272449889013 -53.362866244688021 14.665139028089714 #
point $-1 16.536375682668847 -38.700373182839776 1.913218446183961 #
edge $-1 $678 $689 $680 $738 forward #
vertex $-1 $688 $739 #
straight-curve $-1 10.77478847861353 -53.362866244687979 0.33250648067368616 0 0.83867056331134215 0.54463904215088732 I I #
point $-1 10.77478847861353 -31.292547956808527 14.665139028089714 #
face $-1 $740 $741 $29 $-1 $742 reversed single #
loop $-1 $-1 $743 $629 #
plane-surface $-1 -79.311502426221509 0 0 1 0 0 0 0 -1 forward_v I I I I #
coedge $-1 $744 $632 $745 $746 forward $563 $-1 #
coedge $-1 $632 $744 $747 $748 forward $563 $-1 #
coedge $-1 $749 $750 $632 $698 reversed $751 $-1 #
edge $-1 $752 $753 $697 $754 forward #
coedge $-1 $633 $733 $755 $756 forward $482 $-1 #
coedge $-1 $757 $634 $633 $701 reversed $630 $-1 #
edge $-1 $758 $636 $700 $737 forward #
straight-curve $-1 10.77478847861353 -53.362866244688021 66.682475657204918 0 0 1 I I #
point $-1 10.77478847861353 -53.362866244688021 14.665139028089714 #
straight-curve $-1 -79.311502426221509 53.362866244688021 0 0 0 -1 I I #
straight-curve $-1 -79.311502426221509 0 -14.665139028089714 0 1 0 I I #
point $-1 -79.311502426221509 -53.362866244688021 -14.665139028089714 #
point $-1 -79.311502426221509 53.362866244688021 -14.665139028089714 #
straight-curve $-1 -79.311502426221509 -53.362866244688021 0 0 0 -1 I I #
face $-1 $-1 $673 $27 $-1 $759 reversed single #
loop $-1 $-1 $725 $654 #
plane-surface $-1 0 53.362866244688021 0 0 -1 0 0 0 -1 forward_v I I I I #
coedge $-1 $760 $720 $726 $761 forward $655 $-1 #
coedge $-1 $658 $657 $760 $762 forward $528 $-1 #
edge $-1 $718 $763 $667 $764 forward #
coedge $-1 $726 $725 $658 $716 reversed $710 $-1 #
edge $-1 $765 $717 $715 $766 forward #
vertex $-1 $660 $767 #
vertex $-1 $669 $768 #
straight-curve $-1 79.311502426221509 0 -14.665139028089714 0 -1 0 I I #
coedge $-1 $712 $769 $661 $721 reversed $655 $-1 #
edge $-1 $727 $723 $720 $770 forward #
coedge $-1 $667 $662 $769 $771 forward $539 $-1 #
vertex $-1 $721 $772 #
straight-curve $-1 79.311502426221509 -53.362866244688021 0 0 0 -1 I I #
coedge $-1 $715 $670 $672 $729 forward $710 $-1 #
coedge $-1 $670 $715 $712 $761 reversed $710 $-1 #
vertex $-1 $671 $773 #
straight-curve $-1 0 53.362866244688021 14.665139028089714 -1 0 0 I I #
edge $-1 $674 $717 $672 $774 forward #
point $-1 79.311502426221509 53.362866244688021 14.665139028089714 #
point $-1 39.58272449889013 -53.362866244688021 0.33250648067365846 #
coedge $-1 $681 $745 $750 $775 reversed $630 $-1 #
coedge $-1 $699 $683 $776 $777 forward $482 $-1 #
coedge $-1 $750 $749 $683 $735 reversed $751 $-1 #
edge $-1 $736 $778 $734 $779 forward #
vertex $-1 $735 $780 #
straight-curve $-1 0 -53.362866244688021 14.665139028089714 1 0 0 I I #
straight-curve $-1 12.589378244375915 -53.362866244688021 0.33250648067366023 -1 0 0 I I #
point $-1 10.77478847861353 -53.362866244688021 0.33250648067365846 #
face $-1 $-1 $751 $29 $-1 $781 reversed single #
loop $-1 $-1 $782 $692 #
plane-surface $-1 0 53.362866244688021 0 0 -1 0 0 0 -1 forward_v I I I I #
coedge $-1 $783 $755 $784 $785 forward $693 $-1 #
coedge $-1 $696 $695 $783 $786 forward $563 $-1 #
coedge $-1 $732 $757 $695 $746 reversed $630 $-1 #
edge $-1 $753 $787 $745 $788 forward #
coedge $-1 $784 $782 $696 $748 reversed $741 $-1 #
edge $-1 $789 $752 $747 $790 forward #
coedge $-1 $734 $697 $782 $791 reversed $751 $-1 #
coedge $-1 $697 $734 $732 $775 forward $751 $-1 #
loop $-1 $-1 $750 $740 #
vertex $-1 $698 $792 #
vertex $-1 $775 $793 #
straight-curve $-1 79.311502426221509 0 -14.665139028089714 0 -1 0 I I #
coedge $-1 $743 $794 $699 $756 reversed $693 $-1 #
edge $-1 $795 $758 $755 $796 forward #
coedge $-1 $745 $700 $794 $797 forward $630 $-1 #
vertex $-1 $756 $798 #
plane-surface $-1 79.311502426221509 0 0 -1 0 0 0 0 1 forward_v I I I I #
coedge $-1 $769 $712 $713 $762 reversed $655 $-1 #
edge $-1 $727 $765 $726 $799 forward #
edge $-1 $763 $765 $760 $800 forward #
vertex $-1 $762 $801 #
straight-curve $-1 0 -53.362866244688021 -14.665139028089714 -1 0 0 I I #
vertex $-1 $716 $802 #
straight-curve $-1 0 53.362866244688021 -14.665139028089714 1 0 0 I I #
point $-1 79.311502426221509 53.362866244688021 -14.665139028089714 #
point $-1 79.311502426221509 -53.362866244688021 -14.665139028089714 #
coedge $-1 $720 $760 $722 $771 reversed $655 $-1 #
straight-curve $-1 -79.311502426221509 0 14.665139028089714 0 -1 0 I I #
edge $-1 $723 $763 $769 $803 forward #
point $-1 -79.311502426221509 -53.362866244688021 14.665139028089714 #
point $-1 -79.311502426221509 53.362866244688021 14.665139028089714 #
straight-curve $-1 79.311502426221509 53.362866244688021 0 0 0 -1 I I #
edge $-1 $736 $753 $750 $804 forward #
coedge $-1 $782 $784 $733 $777 reversed $741 $-1 #
edge $-1 $778 $795 $776 $805 forward #
vertex $-1 $735 $806 #
straight-curve $-1 79.311502426221509 0 14.665139028089714 0 1 0 I I #
point $-1 79.311502426221509 -53.362866244688021 14.665139028089714 #
plane-surface $-1 79.311502426221509 0 0 -1 0 0 0 0 1 forward_v I I I I #
coedge $-1 $747 $776 $749 $791 forward $741 $-1 #
coedge $-1 $794 $743 $744 $786 reversed $693 $-1 #
coedge $-1 $776 $747 $743 $785 reversed $741 $-1 #
edge $-1 $795 $789 $784 $807 forward #
edge $-1 $787 $789 $783 $808 forward #
vertex $-1 $786 $809 #
straight-curve $-1 0 -53.362866244688021 -14.665139028089714 -1 0 0 I I #
vertex $-1 $748 $810 #
straight-curve $-1 0 53.362866244688021 -14.665139028089714 1 0 0 I I #
edge $-1 $778 $752 $749 $811 forward #
point $-1 79.311502426221509 53.362866244688021 -14.665139028089714 #
point $-1 79.311502426221509 -53.362866244688021 -14.665139028089714 #
coedge $-1 $755 $783 $757 $797 reversed $693 $-1 #
vertex $-1 $777 $812 #
straight-curve $-1 -79.311502426221509 0 14.665139028089714 0 -1 0 I I #
edge $-1 $758 $787 $794 $813 forward #
point $-1 -79.311502426221509 -53.362866244688021 14.665139028089714 #
straight-curve $-1 -79.311502426221509 53.362866244688021 0 0 0 -1 I I #
straight-curve $-1 -79.311502426221509 0 -14.665139028089714 0 1 0 I I #
point $-1 -79.311502426221509 -53.362866244688021 -14.665139028089714 #
point $-1 -79.311502426221509 53.362866244688021 -14.665139028089714 #
straight-curve $-1 -79.311502426221509 -53.362866244688021 0 0 0 -1 I I #
straight-curve $-1 79.311502426221509 -53.362866244688021 0 0 0 -1 I I #
straight-curve $-1 0 53.362866244688021 14.665139028089714 -1 0 0 I I #
point $-1 79.311502426221509 53.362866244688021 14.665139028089714 #
straight-curve $-1 -79.311502426221509 53.362866244688021 0 0 0 -1 I I #
straight-curve $-1 -79.311502426221509 0 -14.665139028089714 0 1 0 I I #
point $-1 -79.311502426221509 -53.362866244688021 -14.665139028089714 #
point $-1 -79.311502426221509 53.362866244688021 -14.665139028089714 #
straight-curve $-1 79.311502426221509 53.362866244688021 0 0 0 -1 I I #
point $-1 -79.311502426221509 53.362866244688021 14.665139028089714 #
straight-curve $-1 -79.311502426221509 -53.362866244688021 0 0 0 -1 I I #
End-of-ACIS-data 