300 0 3 0           
7 Unknown 11 ACIS 3.0 NT 24 Fri Oct 30 18:07:01 1998 
-1 9.9999999999999995e-007 1e-010 
body $3 $4 $-1 $5 #
body $6 $7 $-1 $8 #
body $9 $10 $-1 $11 #
display_attribute-st-attrib $-1 $12 $-1 $0 1 #
lump $-1 $-1 $13 $0 #
transform $-1 1 0 0 0 1 0 0 0 1 76.981109042634358 36.805131759783137 9.8734845788398626 1 rotate no_reflect no_shear #
display_attribute-st-attrib $-1 $14 $-1 $1 1 #
lump $-1 $-1 $15 $1 #
transform $-1 1 0 0 0 1 0 0 0 1 9.5532851044514118 3.6006112637083403 9.8734845788398626 1 rotate no_reflect no_shear #
display_attribute-st-attrib $-1 $16 $-1 $2 1 #
lump $-1 $-1 $17 $2 #
transform $-1 1 0 0 0 1 0 0 0 1 9.5532851044514118 70.00965225585793 9.8734845788398626 1 rotate no_reflect no_shear #
id_attribute-st-attrib $-1 $-1 $3 $0 1933 #
shell $-1 $-1 $-1 $18 $-1 $4 #
id_attribute-st-attrib $-1 $-1 $6 $1 1938 #
shell $-1 $-1 $-1 $19 $-1 $7 #
id_attribute-st-attrib $-1 $-1 $9 $2 1946 #
shell $-1 $-1 $-1 $20 $-1 $10 #
face $-1 $21 $22 $13 $-1 $23 forward single #
face $-1 $24 $25 $15 $-1 $26 forward single #
face $-1 $27 $28 $17 $-1 $29 forward single #
face $-1 $30 $31 $13 $-1 $32 reversed single #
loop $-1 $-1 $33 $18 #
plane-surface $-1 0 0 9.8734845788398626 0 0 1 1 0 0 forward_v I I I I #
face $-1 $34 $35 $15 $-1 $36 reversed single #
loop $-1 $-1 $37 $19 #
plane-surface $-1 0 0 9.8734845788398626 0 0 1 1 0 0 forward_v I I I I #
face $-1 $38 $39 $17 $-1 $40 reversed single #
loop $-1 $-1 $41 $20 #
plane-surface $-1 0 0 9.8734845788398626 0 0 1 1 0 0 forward_v I I I I #
face $-1 $42 $43 $13 $-1 $44 reversed single #
loop $-1 $-1 $45 $21 #
plane-surface $-1 0 0 -9.8734845788398626 0 0 1 1 0 0 forward_v I I I I #
coedge $-1 $46 $47 $48 $49 forward $22 $-1 #
face $-1 $50 $51 $15 $-1 $52 reversed single #
loop $-1 $-1 $53 $24 #
plane-surface $-1 0 0 -9.8734845788398626 0 0 1 1 0 0 forward_v I I I I #
coedge $-1 $54 $55 $56 $57 forward $25 $-1 #
face $-1 $58 $59 $17 $-1 $60 reversed single #
loop $-1 $-1 $61 $27 #
plane-surface $-1 0 0 -9.8734845788398626 0 0 1 1 0 0 forward_v I I I I #
coedge $-1 $62 $63 $64 $65 forward $28 $-1 #
face $-1 $66 $67 $13 $-1 $68 reversed single #
loop $-1 $-1 $69 $30 #
plane-surface $-1 0 -36.805131759783137 0 0 1 0 0 0 1 forward_v I I I I #
coedge $-1 $70 $71 $72 $73 forward $31 $-1 #
coedge $-1 $74 $33 $75 $76 forward $22 $-1 #
coedge $-1 $33 $74 $77 $78 forward $22 $-1 #
coedge $-1 $79 $80 $33 $49 reversed $81 $-1 #
edge $-1 $82 $83 $48 $84 forward #
face $-1 $85 $86 $15 $-1 $87 reversed single #
loop $-1 $-1 $88 $34 #
plane-surface $-1 0 -3.6006112637083403 0 0 1 0 0 0 1 forward_v I I I I #
coedge $-1 $89 $90 $91 $92 forward $35 $-1 #
coedge $-1 $93 $37 $94 $95 forward $25 $-1 #
coedge $-1 $37 $93 $96 $97 forward $25 $-1 #
coedge $-1 $98 $99 $37 $57 reversed $100 $-1 #
edge $-1 $101 $102 $56 $103 forward #
face $-1 $104 $105 $17 $-1 $106 reversed single #
loop $-1 $-1 $107 $38 #
plane-surface $-1 0 -3.6006112637083376 0 0 1 0 0 0 1 forward_v I I I I #
coedge $-1 $108 $109 $110 $111 forward $39 $-1 #
coedge $-1 $112 $41 $113 $114 forward $28 $-1 #
coedge $-1 $41 $112 $115 $116 forward $28 $-1 #
coedge $-1 $117 $118 $41 $65 reversed $119 $-1 #
edge $-1 $120 $121 $64 $122 forward #
face $-1 $123 $124 $13 $-1 $125 reversed single #
loop $-1 $-1 $126 $42 #
plane-surface $-1 -76.981109042634358 0 0 1 0 0 0 0 -1 forward_v I I I I #
coedge $-1 $127 $77 $128 $129 forward $43 $-1 #
coedge $-1 $130 $45 $127 $131 forward $31 $-1 #
coedge $-1 $45 $130 $132 $133 forward $31 $-1 #
coedge $-1 $80 $79 $45 $73 reversed $81 $-1 #
edge $-1 $134 $135 $72 $136 forward #
coedge $-1 $47 $46 $137 $138 forward $22 $-1 #
coedge $-1 $139 $140 $46 $76 reversed $124 $-1 #
edge $-1 $83 $141 $75 $142 forward #
coedge $-1 $69 $143 $47 $78 reversed $43 $-1 #
edge $-1 $144 $82 $77 $145 forward #
coedge $-1 $72 $48 $143 $146 forward $81 $-1 #
coedge $-1 $48 $72 $139 $147 reversed $81 $-1 #
loop $-1 $-1 $79 $123 #
vertex $-1 $49 $148 #
vertex $-1 $49 $149 #
straight-curve $-1 76.981109042634358 0 9.8734845788398626 0 1 0 I I #
face $-1 $150 $151 $15 $-1 $152 reversed single #
loop $-1 $-1 $153 $50 #
plane-surface $-1 -1.5 0 0 1 0 0 0 0 -1 forward_v I I I I #
coedge $-1 $154 $96 $155 $156 forward $51 $-1 #
coedge $-1 $157 $53 $154 $158 forward $35 $-1 #
coedge $-1 $53 $157 $159 $160 forward $35 $-1 #
coedge $-1 $99 $98 $53 $92 reversed $100 $-1 #
edge $-1 $161 $162 $91 $163 forward #
coedge $-1 $55 $54 $164 $165 forward $25 $-1 #
coedge $-1 $166 $167 $54 $95 reversed $151 $-1 #
edge $-1 $102 $168 $94 $169 forward #
coedge $-1 $88 $170 $55 $97 reversed $51 $-1 #
edge $-1 $171 $101 $96 $172 forward #
coedge $-1 $91 $56 $170 $173 forward $100 $-1 #
coedge $-1 $56 $91 $166 $174 reversed $100 $-1 #
loop $-1 $-1 $98 $150 #
vertex $-1 $57 $175 #
vertex $-1 $57 $176 #
straight-curve $-1 1.5 0 9.8734845788398626 0 1 0 I I #
face $-1 $177 $178 $17 $-1 $179 reversed single #
loop $-1 $-1 $180 $58 #
plane-surface $-1 -1.5 0 0 1 0 0 0 0 -1 forward_v I I I I #
coedge $-1 $181 $115 $182 $183 forward $59 $-1 #
coedge $-1 $184 $61 $181 $185 forward $39 $-1 #
coedge $-1 $61 $184 $186 $187 forward $39 $-1 #
coedge $-1 $118 $117 $61 $111 reversed $119 $-1 #
edge $-1 $188 $189 $110 $190 forward #
coedge $-1 $63 $62 $191 $192 forward $28 $-1 #
coedge $-1 $193 $194 $62 $114 reversed $178 $-1 #
edge $-1 $121 $195 $113 $196 forward #
coedge $-1 $107 $197 $63 $116 reversed $59 $-1 #
edge $-1 $198 $120 $115 $199 forward #
coedge $-1 $110 $64 $197 $200 forward $119 $-1 #
coedge $-1 $64 $110 $193 $201 reversed $119 $-1 #
loop $-1 $-1 $117 $177 #
vertex $-1 $65 $202 #
vertex $-1 $65 $203 #
straight-curve $-1 1.5 0 9.8734845788398626 0 1 0 I I #
face $-1 $-1 $81 $13 $-1 $204 reversed single #
loop $-1 $-1 $139 $66 #
plane-surface $-1 0 36.805131759783137 0 0 -1 0 0 0 -1 forward_v I I I I #
coedge $-1 $205 $137 $140 $206 forward $67 $-1 #
coedge $-1 $143 $69 $70 $131 reversed $43 $-1 #
coedge $-1 $137 $205 $69 $129 reversed $67 $-1 #
edge $-1 $144 $207 $128 $208 forward #
coedge $-1 $71 $70 $205 $209 forward $31 $-1 #
edge $-1 $135 $207 $127 $210 forward #
coedge $-1 $140 $139 $71 $133 reversed $124 $-1 #
edge $-1 $211 $134 $132 $212 forward #
vertex $-1 $73 $213 #
vertex $-1 $146 $214 #
straight-curve $-1 76.981109042634358 0 -9.8734845788398626 0 -1 0 I I #
coedge $-1 $126 $128 $74 $138 reversed $67 $-1 #
edge $-1 $141 $144 $137 $215 forward #
coedge $-1 $132 $75 $80 $147 forward $124 $-1 #
coedge $-1 $75 $132 $126 $206 reversed $124 $-1 #
vertex $-1 $76 $216 #
straight-curve $-1 0 36.805131759783137 9.8734845788398626 -1 0 0 I I #
coedge $-1 $77 $127 $79 $146 reversed $43 $-1 #
vertex $-1 $138 $217 #
straight-curve $-1 0 -36.805131759783137 9.8734845788398626 1 0 0 I I #
edge $-1 $82 $135 $79 $218 forward #
edge $-1 $83 $134 $80 $219 forward #
point $-1 76.981109042634358 -36.805131759783137 9.8734845788398626 #
point $-1 76.981109042634358 36.805131759783137 9.8734845788398626 #
face $-1 $-1 $100 $15 $-1 $220 reversed single #
loop $-1 $-1 $166 $85 #
plane-surface $-1 0 3.6006112637083403 0 0 -1 0 0 0 -1 forward_v I I I I #
coedge $-1 $221 $164 $167 $222 forward $86 $-1 #
coedge $-1 $170 $88 $89 $158 reversed $51 $-1 #
coedge $-1 $164 $221 $88 $156 reversed $86 $-1 #
edge $-1 $171 $223 $155 $224 forward #
coedge $-1 $90 $89 $221 $225 forward $35 $-1 #
edge $-1 $162 $223 $154 $226 forward #
coedge $-1 $167 $166 $90 $160 reversed $151 $-1 #
edge $-1 $227 $161 $159 $228 forward #
vertex $-1 $92 $229 #
vertex $-1 $173 $230 #
straight-curve $-1 1.5 0 -9.8734845788398626 0 -1 0 I I #
coedge $-1 $153 $155 $93 $165 reversed $86 $-1 #
edge $-1 $168 $171 $164 $231 forward #
coedge $-1 $159 $94 $99 $174 forward $151 $-1 #
coedge $-1 $94 $159 $153 $222 reversed $151 $-1 #
vertex $-1 $95 $232 #
straight-curve $-1 0 3.6006112637083403 9.8734845788398626 -1 0 0 I I #
coedge $-1 $96 $154 $98 $173 reversed $51 $-1 #
vertex $-1 $165 $233 #
straight-curve $-1 0 -3.6006112637083403 9.8734845788398626 1 0 0 I I #
edge $-1 $101 $162 $98 $234 forward #
edge $-1 $102 $161 $99 $235 forward #
point $-1 1.5 -3.6006112637083403 9.8734845788398626 #
point $-1 1.5 3.6006112637083403 9.8734845788398626 #
face $-1 $-1 $119 $17 $-1 $236 reversed single #
loop $-1 $-1 $193 $104 #
plane-surface $-1 0 3.6006112637083376 0 0 -1 0 0 0 -1 forward_v I I I I #
coedge $-1 $237 $191 $194 $238 forward $105 $-1 #
coedge $-1 $197 $107 $108 $185 reversed $59 $-1 #
coedge $-1 $191 $237 $107 $183 reversed $105 $-1 #
edge $-1 $198 $239 $182 $240 forward #
coedge $-1 $109 $108 $237 $241 forward $39 $-1 #
edge $-1 $189 $239 $181 $242 forward #
coedge $-1 $194 $193 $109 $187 reversed $178 $-1 #
edge $-1 $243 $188 $186 $244 forward #
vertex $-1 $111 $245 #
vertex $-1 $200 $246 #
straight-curve $-1 1.5 0 -9.8734845788398626 0 -1 0 I I #
coedge $-1 $180 $182 $112 $192 reversed $105 $-1 #
edge $-1 $195 $198 $191 $247 forward #
coedge $-1 $186 $113 $118 $201 forward $178 $-1 #
coedge $-1 $113 $186 $180 $238 reversed $178 $-1 #
vertex $-1 $114 $248 #
straight-curve $-1 0 3.6006112637083376 9.8734845788398626 -1 0 0 I I #
coedge $-1 $115 $181 $117 $200 reversed $59 $-1 #
vertex $-1 $192 $249 #
straight-curve $-1 0 -3.6006112637083376 9.8734845788398626 1 0 0 I I #
edge $-1 $120 $189 $117 $250 forward #
edge $-1 $121 $188 $118 $251 forward #
point $-1 1.5 -3.6006112637083376 9.8734845788398626 #
point $-1 1.5 3.6006112637083376 9.8734845788398626 #
plane-surface $-1 76.981109042634358 0 0 -1 0 0 0 0 1 forward_v I I I I #
coedge $-1 $128 $126 $130 $209 reversed $67 $-1 #
edge $-1 $141 $211 $140 $252 forward #
vertex $-1 $209 $253 #
straight-curve $-1 -76.981109042634358 -36.805131759783137 0 0 0 -1 I I #
edge $-1 $207 $211 $205 $254 forward #
straight-curve $-1 0 -36.805131759783137 -9.8734845788398626 -1 0 0 I I #
vertex $-1 $133 $255 #
straight-curve $-1 0 36.805131759783137 -9.8734845788398626 1 0 0 I I #
point $-1 76.981109042634358 36.805131759783137 -9.8734845788398626 #
point $-1 76.981109042634358 -36.805131759783137 -9.8734845788398626 #
straight-curve $-1 -76.981109042634358 0 9.8734845788398626 0 -1 0 I I #
point $-1 -76.981109042634358 36.805131759783137 9.8734845788398626 #
point $-1 -76.981109042634358 -36.805131759783137 9.8734845788398626 #
straight-curve $-1 76.981109042634358 -36.805131759783137 0 0 0 -1 I I #
straight-curve $-1 76.981109042634358 36.805131759783137 0 0 0 -1 I I #
plane-surface $-1 1.5 0 0 -1 0 0 0 0 1 forward_v I I I I #
coedge $-1 $155 $153 $157 $225 reversed $86 $-1 #
edge $-1 $168 $227 $167 $256 forward #
vertex $-1 $225 $257 #
straight-curve $-1 -1.5 -3.6006112637083403 0 0 0 -1 I I #
edge $-1 $223 $227 $221 $258 forward #
straight-curve $-1 0 -3.6006112637083403 -9.8734845788398626 -1 0 0 I I #
vertex $-1 $160 $259 #
straight-curve $-1 0 3.6006112637083403 -9.8734845788398626 1 0 0 I I #
point $-1 1.5 3.6006112637083403 -9.8734845788398626 #
point $-1 1.5 -3.6006112637083403 -9.8734845788398626 #
straight-curve $-1 -1.5 0 9.8734845788398626 0 -1 0 I I #
point $-1 -1.5 3.6006112637083403 9.8734845788398626 #
point $-1 -1.5 -3.6006112637083403 9.8734845788398626 #
straight-curve $-1 1.5 -3.6006112637083403 0 0 0 -1 I I #
straight-curve $-1 1.5 3.6006112637083403 0 0 0 -1 I I #
plane-surface $-1 1.5 0 0 -1 0 0 0 0 1 forward_v I I I I #
coedge $-1 $182 $180 $184 $241 reversed $105 $-1 #
edge $-1 $195 $243 $194 $260 forward #
vertex $-1 $241 $261 #
straight-curve $-1 -1.5 -3.6006112637083376 0 0 0 -1 I I #
edge $-1 $239 $243 $237 $262 forward #
straight-curve $-1 0 -3.6006112637083376 -9.8734845788398626 -1 0 0 I I #
vertex $-1 $187 $263 #
straight-curve $-1 0 3.6006112637083376 -9.8734845788398626 1 0 0 I I #
point $-1 1.5 3.6006112637083376 -9.8734845788398626 #
point $-1 1.5 -3.6006112637083376 -9.8734845788398626 #
straight-curve $-1 -1.5 0 9.8734845788398626 0 -1 0 I I #
point $-1 -1.5 3.6006112637083376 9.8734845788398626 #
point $-1 -1.5 -3.6006112637083376 9.8734845788398626 #
straight-curve $-1 1.5 -3.6006112637083376 0 0 0 -1 I I #
straight-curve $-1 1.5 3.6006112637083376 0 0 0 -1 I I #
straight-curve $-1 -76.981109042634358 36.805131759783137 0 0 0 -1 I I #
point $-1 -76.981109042634358 -36.805131759783137 -9.8734845788398626 #
straight-curve $-1 -76.981109042634358 0 -9.8734845788398626 0 1 0 I I #
point $-1 -76.981109042634358 36.805131759783137 -9.8734845788398626 #
straight-curve $-1 -1.5 3.6006112637083403 0 0 0 -1 I I #
point $-1 -1.5 -3.6006112637083403 -9.8734845788398626 #
straight-curve $-1 -1.5 0 -9.8734845788398626 0 1 0 I I #
point $-1 -1.5 3.6006112637083403 -9.8734845788398626 #
straight-curve $-1 -1.5 3.6006112637083376 0 0 0 -1 I I #
point $-1 -1.5 -3.6006112637083376 -9.8734845788398626 #
straight-curve $-1 -1.5 0 -9.8734845788398626 0 1 0 I I #
point $-1 -1.5 3.6006112637083376 -9.8734845788398626 #
End-of-ACIS-data 