300 0 4 0           
7 Unknown 11 ACIS 3.0 NT 24 Fri Oct 30 18:47:43 1998 
-1 9.9999999999999995e-007 1e-010 
body $4 $5 $-1 $6 #
body $7 $8 $-1 $9 #
body $10 $11 $-1 $12 #
body $13 $14 $-1 $15 #
display_attribute-st-attrib $-1 $16 $-1 $0 1 #
lump $-1 $-1 $17 $0 #
transform $-1 1 0 0 0 1 0 0 0 1 52.084109012115846 20.905649285508254 4.4198091197045333 1 rotate no_reflect no_shear #
display_attribute-st-attrib $-1 $18 $-1 $1 1 #
lump $-1 $-1 $19 $1 #
transform $-1 1 0 0 0 1 0 0 0 1 52.084109012115846 20.905649285508254 4.4198091197045333 1 rotate no_reflect no_shear #
display_attribute-st-attrib $-1 $20 $-1 $2 1 #
lump $-1 $-1 $21 $2 #
transform $-1 1 0 0 0 1 0 0 0 1 52.084109012115846 20.905649285508254 4.4198091197045333 1 rotate no_reflect no_shear #
display_attribute-st-attrib $-1 $22 $-1 $3 1 #
lump $-1 $-1 $23 $3 #
transform $-1 1 0 0 0 1 0 0 0 1 52.084109012115846 20.905649285508254 4.4198091197045333 1 rotate no_reflect no_shear #
id_attribute-st-attrib $-1 $-1 $4 $0 3165 #
shell $-1 $-1 $-1 $24 $-1 $5 #
id_attribute-st-attrib $-1 $-1 $7 $1 3170 #
shell $-1 $-1 $-1 $25 $-1 $8 #
id_attribute-st-attrib $-1 $-1 $10 $2 3180 #
shell $-1 $-1 $-1 $26 $-1 $11 #
id_attribute-st-attrib $-1 $-1 $13 $3 3188 #
shell $-1 $-1 $-1 $27 $-1 $14 #
face $-1 $28 $29 $17 $-1 $30 forward single #
face $-1 $31 $32 $19 $-1 $33 forward single #
face $-1 $34 $35 $21 $-1 $36 forward single #
face $-1 $37 $38 $23 $-1 $39 reversed single #
face $-1 $40 $41 $17 $-1 $42 reversed single #
loop $-1 $-1 $43 $24 #
plane-surface $-1 0 0 4.4198091197045333 0 0 1 1 0 0 forward_v I I I I #
face $-1 $44 $45 $19 $-1 $46 forward single #
loop $-1 $-1 $47 $25 #
plane-surface $-1 -46.244490772706783 -19.282639048364786 0 1 0 0 0 0 -1 forward_v I I I I #
face $-1 $48 $49 $21 $-1 $50 forward single #
loop $-1 $-1 $51 $26 #
plane-surface $-1 24.521351753535839 77.249720810729997 97.43173759890756 1 0 0 0 -0.78801076186113728 -0.61566146476048833 forward_v I I I I #
face $-1 $52 $53 $23 $-1 $54 reversed single #
loop $-1 $55 $56 $27 #
cone-surface $-1 38.302730382825843 18.553701725802163 1.7897990442875624 0 -0.78801076186113728 -0.61566146476048833 0.5 0 0 1 I I 0 1 forward I I I I #
face $-1 $57 $58 $17 $-1 $59 reversed single #
loop $-1 $-1 $60 $28 #
plane-surface $-1 0 0 -4.4198091197045333 0 0 1 1 0 0 forward_v I I I I #
coedge $-1 $61 $62 $63 $64 forward $29 $-1 #
face $-1 $65 $66 $19 $-1 $67 forward single #
loop $-1 $-1 $68 $31 #
plane-surface $-1 -44.744490772706783 -17.659628811221317 0 0 -1 0 0 0 -1 forward_v I I I I #
coedge $-1 $69 $70 $71 $72 reversed $32 $-1 #
face $-1 $73 $74 $21 $-1 $75 forward single #
loop $-1 $-1 $76 $34 #
plane-surface $-1 38.302730382825843 -4.8359560362618765 33.299379908619173 0 0.78801076186113728 0.61566146476048833 1 0 0 forward_v I I I I #
coedge $-1 $77 $78 $79 $80 reversed $35 $-1 #
face $-1 $81 $82 $23 $-1 $83 forward single #
loop $-1 $84 $85 $37 #
cone-surface $-1 38.302730382825843 17.593957669759369 1.0399648288982508 0 -0.78801076186113728 -0.61566146476048833 0.25 0 0 1 I I -0.70710678118654746 0.70710678118654746 forward I I I I #
loop $-1 $-1 $86 $27 #
coedge $-1 $56 $56 $87 $88 reversed $38 $-1 #
face $-1 $89 $90 $17 $-1 $91 reversed single #
loop $-1 $-1 $92 $40 #
plane-surface $-1 0 -20.905649285508254 0 0 1 0 0 0 1 forward_v I I I I #
coedge $-1 $93 $94 $95 $96 forward $41 $-1 #
coedge $-1 $97 $43 $98 $99 forward $29 $-1 #
coedge $-1 $43 $97 $100 $101 forward $29 $-1 #
coedge $-1 $102 $103 $43 $64 reversed $104 $-1 #
edge $-1 $105 $106 $63 $107 forward #
face $-1 $108 $109 $19 $-1 $110 forward single #
loop $-1 $-1 $111 $44 #
plane-surface $-1 -43.244490772706783 -19.282639048364786 0 -1 0 0 0 0 1 forward_v I I I I #
coedge $-1 $112 $113 $114 $115 reversed $45 $-1 #
coedge $-1 $116 $47 $117 $118 reversed $32 $-1 #
coedge $-1 $47 $116 $119 $120 reversed $32 $-1 #
coedge $-1 $113 $112 $47 $72 forward $45 $-1 #
edge $-1 $121 $122 $71 $123 forward #
face $-1 $124 $125 $21 $-1 $126 reversed single #
loop $-1 $-1 $127 $48 #
plane-surface $-1 0 0 4.4198091197045333 0 0 1 1 0 0 forward_v I I I I #
coedge $-1 $128 $129 $127 $130 reversed $49 $-1 #
coedge $-1 $78 $51 $129 $131 forward $35 $-1 #
coedge $-1 $51 $77 $132 $133 reversed $35 $-1 #
coedge $-1 $134 $127 $51 $80 forward $74 $-1 #
edge $-1 $135 $136 $79 $137 forward #
face $-1 $138 $139 $23 $-1 $140 forward single #
loop $-1 $-1 $141 $52 #
plane-surface $-1 24.521351753535839 77.249720810729997 97.43173759890756 1 0 0 0 -0.78801076186113728 -0.61566146476048833 forward_v I I I I #
loop $-1 $-1 $142 $37 #
coedge $-1 $85 $85 $86 $143 forward $53 $-1 #
coedge $-1 $86 $86 $85 $143 reversed $55 $-1 #
coedge $-1 $87 $87 $56 $88 forward $139 $-1 #
edge $-1 $144 $144 $87 $145 forward #
face $-1 $146 $147 $17 $-1 $148 reversed single #
loop $-1 $-1 $149 $57 #
plane-surface $-1 -52.084109012115846 0 0 1 0 0 0 0 -1 forward_v I I I I #
coedge $-1 $150 $100 $151 $152 forward $58 $-1 #
coedge $-1 $153 $60 $150 $154 forward $41 $-1 #
coedge $-1 $60 $153 $155 $156 forward $41 $-1 #
coedge $-1 $103 $102 $60 $96 reversed $104 $-1 #
edge $-1 $157 $158 $95 $159 forward #
coedge $-1 $62 $61 $160 $161 forward $29 $-1 #
coedge $-1 $162 $163 $61 $99 reversed $147 $-1 #
edge $-1 $106 $164 $98 $165 forward #
coedge $-1 $92 $166 $62 $101 reversed $58 $-1 #
edge $-1 $167 $105 $100 $168 forward #
coedge $-1 $95 $63 $166 $169 forward $104 $-1 #
coedge $-1 $63 $95 $162 $170 reversed $104 $-1 #
loop $-1 $-1 $102 $146 #
vertex $-1 $64 $171 #
vertex $-1 $64 $172 #
straight-curve $-1 52.084109012115846 0 4.4198091197045333 0 1 0 I I #
face $-1 $173 $174 $19 $-1 $175 reversed single #
loop $-1 $-1 $117 $65 #
plane-surface $-1 0 0 4.4198091197045333 0 0 1 1 0 0 forward_v I I I I #
coedge $-1 $176 $177 $178 $179 reversed $66 $-1 #
coedge $-1 $71 $68 $180 $181 reversed $45 $-1 #
coedge $-1 $68 $71 $182 $183 reversed $45 $-1 #
coedge $-1 $177 $176 $68 $115 forward $66 $-1 #
edge $-1 $184 $185 $114 $186 forward #
coedge $-1 $70 $69 $187 $188 reversed $32 $-1 #
coedge $-1 $180 $189 $69 $118 forward $109 $-1 #
edge $-1 $190 $121 $117 $191 forward #
coedge $-1 $192 $182 $70 $120 forward $193 $-1 #
edge $-1 $122 $194 $119 $195 forward #
vertex $-1 $118 $196 #
vertex $-1 $120 $197 #
straight-curve $-1 -46.244490772706783 -17.659628811221317 0 0 0 -1 I I #
face $-1 $198 $199 $21 $-1 $200 forward single #
loop $-1 $-1 $132 $73 #
plane-surface $-1 0 20.905649285508254 0 0 -1 0 0 0 -1 forward_v I I I I #
coedge $-1 $79 $201 $76 $130 forward $74 $-1 #
coedge $-1 $202 $76 $203 $204 reversed $49 $-1 #
coedge $-1 $76 $202 $77 $131 reversed $49 $-1 #
edge $-1 $205 $135 $127 $206 forward #
edge $-1 $135 $207 $77 $208 forward #
coedge $-1 $209 $210 $78 $133 forward $125 $-1 #
edge $-1 $136 $207 $132 $211 forward #
coedge $-1 $212 $79 $210 $213 forward $74 $-1 #
vertex $-1 $130 $214 #
vertex $-1 $213 $215 #
straight-curve $-1 24.521351753535839 38.624860405364998 4.4198091197045315 0 1 0 I I #
face $-1 $216 $217 $23 $-1 $218 forward single #
loop $-1 $219 $87 $81 #
plane-surface $-1 38.302730382825843 -4.8359560362618765 33.299379908619173 0 0.78801076186113728 0.61566146476048833 1 0 0 forward_v I I I I #
coedge $-1 $220 $221 $222 $223 reversed $82 $-1 #
coedge $-1 $142 $142 $-1 $224 forward $84 $-1 #
edge $-1 $225 $225 $85 $226 forward #
vertex $-1 $88 $227 #
ellipse-curve $-1 38.302730382825843 19.316443091379682 2.3857178934867589 0 -0.78801076186113728 -0.61566146476048833 0.5 0 0 1 I I #
face $-1 $-1 $104 $17 $-1 $228 reversed single #
loop $-1 $-1 $162 $89 #
plane-surface $-1 0 20.905649285508254 0 0 -1 0 0 0 -1 forward_v I I I I #
coedge $-1 $229 $160 $163 $230 forward $90 $-1 #
coedge $-1 $166 $92 $93 $154 reversed $58 $-1 #
coedge $-1 $160 $229 $92 $152 reversed $90 $-1 #
edge $-1 $167 $231 $151 $232 forward #
coedge $-1 $94 $93 $229 $233 forward $41 $-1 #
edge $-1 $158 $231 $150 $234 forward #
coedge $-1 $163 $162 $94 $156 reversed $147 $-1 #
edge $-1 $235 $157 $155 $236 forward #
vertex $-1 $96 $237 #
vertex $-1 $169 $238 #
straight-curve $-1 52.084109012115846 0 -4.4198091197045333 0 -1 0 I I #
coedge $-1 $149 $151 $97 $161 reversed $90 $-1 #
edge $-1 $164 $167 $160 $239 forward #
coedge $-1 $155 $98 $103 $170 forward $147 $-1 #
coedge $-1 $98 $155 $149 $230 reversed $147 $-1 #
vertex $-1 $99 $240 #
straight-curve $-1 0 20.905649285508254 4.4198091197045333 -1 0 0 I I #
coedge $-1 $100 $150 $102 $169 reversed $58 $-1 #
vertex $-1 $161 $241 #
straight-curve $-1 0 -20.905649285508254 4.4198091197045333 1 0 0 I I #
edge $-1 $105 $158 $102 $242 forward #
edge $-1 $106 $157 $103 $243 forward #
point $-1 52.084109012115846 -20.905649285508254 4.4198091197045333 #
point $-1 52.084109012115846 20.905649285508254 4.4198091197045333 #
face $-1 $244 $193 $19 $-1 $245 reversed single #
loop $-1 $-1 $178 $108 #
plane-surface $-1 0 -20.905649285508254 0 0 1 0 0 0 1 forward_v I I I I #
coedge $-1 $114 $111 $246 $247 reversed $66 $-1 #
coedge $-1 $111 $114 $248 $249 reversed $66 $-1 #
coedge $-1 $250 $251 $111 $179 forward $174 $-1 #
edge $-1 $252 $253 $178 $254 forward #
coedge $-1 $246 $117 $112 $181 forward $109 $-1 #
edge $-1 $121 $184 $180 $255 forward #
coedge $-1 $119 $248 $113 $183 forward $193 $-1 #
edge $-1 $185 $122 $182 $256 forward #
vertex $-1 $181 $257 #
vertex $-1 $183 $258 #
straight-curve $-1 -43.244490772706783 -17.659628811221317 0 0 0 -1 I I #
coedge $-1 $259 $260 $116 $188 forward $261 $-1 #
edge $-1 $194 $190 $187 $262 forward #
coedge $-1 $117 $263 $259 $264 forward $109 $-1 #
vertex $-1 $188 $265 #
straight-curve $-1 -46.244490772706783 -9.6413195241823928 4.4198091197045333 0 1 0 I I #
coedge $-1 $266 $119 $260 $267 forward $193 $-1 #
loop $-1 $-1 $119 $173 #
vertex $-1 $267 $268 #
straight-curve $-1 -46.244490772706783 -9.6413195241823928 -4.4198091197045333 0 -1 0 I I #
point $-1 -46.244490772706783 -17.659628811221317 4.4198091197045333 #
point $-1 -46.244490772706783 -17.659628811221317 -4.4198091197045333 #
face $-1 $269 $270 $21 $-1 $271 forward single #
loop $-1 $-1 $272 $124 #
plane-surface $-1 -46.244490772706783 -19.282639048364786 0 1 0 0 0 0 -1 forward_v I I I I #
coedge $-1 $127 $273 $274 $275 forward $74 $-1 #
coedge $-1 $129 $128 $209 $276 reversed $49 $-1 #
coedge $-1 $274 $277 $128 $204 forward $278 $-1 #
edge $-1 $279 $205 $203 $280 forward #
vertex $-1 $204 $281 #
straight-curve $-1 19.151365191412921 17.72723689725111 4.419809119704535 -1 0 0 I I #
vertex $-1 $276 $282 #
straight-curve $-1 24.521351753535839 -4.8359560362618765 33.299379908619173 0 0.61566146476048833 -0.78801076186113728 I I #
coedge $-1 $283 $132 $202 $276 forward $125 $-1 #
coedge $-1 $132 $284 $134 $213 reversed $125 $-1 #
straight-curve $-1 24.521351753535839 20.905649285508254 48.71586879945378 0 0 -1 I I #
coedge $-1 $285 $134 $286 $287 forward $74 $-1 #
edge $-1 $136 $288 $210 $289 forward #
point $-1 24.521351753535839 17.72723689725111 4.4198091197045315 #
point $-1 24.521351753535839 20.905649285508254 4.4198091197045333 #
face $-1 $290 $291 $23 $-1 $292 reversed single #
loop $-1 $-1 $293 $138 #
plane-surface $-1 0 0 4.4198091197045333 0 0 1 1 0 0 forward_v I I I I #
loop $-1 $-1 $294 $81 #
coedge $-1 $221 $141 $295 $296 forward $82 $-1 #
coedge $-1 $141 $220 $297 $298 reversed $82 $-1 #
coedge $-1 $299 $293 $141 $223 forward $217 $-1 #
edge $-1 $300 $301 $222 $302 forward #
edge $-1 $303 $303 $142 $-1 forward #
vertex $-1 $143 $304 #
ellipse-curve $-1 38.302730382825843 17.790960360224652 1.1938801950883728 0 0.78801076186113728 0.61566146476048833 0.5 0 0 1 I I #
point $-1 38.802730382825843 19.316443091379675 2.3857178934867518 #
plane-surface $-1 52.084109012115846 0 0 -1 0 0 0 0 1 forward_v I I I I #
coedge $-1 $151 $149 $153 $233 reversed $90 $-1 #
edge $-1 $164 $235 $163 $305 forward #
vertex $-1 $233 $306 #
straight-curve $-1 -52.084109012115846 -20.905649285508254 0 0 0 -1 I I #
edge $-1 $231 $235 $229 $307 forward #
straight-curve $-1 0 -20.905649285508254 -4.4198091197045333 -1 0 0 I I #
vertex $-1 $156 $308 #
straight-curve $-1 0 20.905649285508254 -4.4198091197045333 1 0 0 I I #
point $-1 52.084109012115846 20.905649285508254 -4.4198091197045333 #
point $-1 52.084109012115846 -20.905649285508254 -4.4198091197045333 #
straight-curve $-1 -52.084109012115846 0 4.4198091197045333 0 -1 0 I I #
point $-1 -52.084109012115846 20.905649285508254 4.4198091197045333 #
point $-1 -52.084109012115846 -20.905649285508254 4.4198091197045333 #
straight-curve $-1 52.084109012115846 -20.905649285508254 0 0 0 -1 I I #
straight-curve $-1 52.084109012115846 20.905649285508254 0 0 0 -1 I I #
face $-1 $309 $261 $19 $-1 $175 reversed single #
plane-surface $-1 0 0 -4.4198091197045333 0 0 1 1 0 0 forward_v I I I I #
coedge $-1 $310 $180 $176 $247 forward $109 $-1 #
edge $-1 $184 $252 $246 $311 forward #
coedge $-1 $182 $312 $177 $249 forward $193 $-1 #
edge $-1 $253 $185 $248 $313 forward #
coedge $-1 $314 $178 $312 $315 reversed $174 $-1 #
coedge $-1 $178 $314 $310 $316 reversed $174 $-1 #
vertex $-1 $316 $317 #
vertex $-1 $179 $318 #
straight-curve $-1 -43.244490772706783 -20.905649285508254 0 0 0 -1 I I #
straight-curve $-1 -22.372245386353391 -17.659628811221317 4.4198091197045333 1 0 0 I I #
straight-curve $-1 -22.372245386353391 -17.659628811221317 -4.4198091197045333 -1 0 0 I I #
point $-1 -43.244490772706783 -17.659628811221317 4.4198091197045333 #
point $-1 -43.244490772706783 -17.659628811221317 -4.4198091197045333 #
coedge $-1 $319 $187 $189 $264 reversed $261 $-1 #
coedge $-1 $187 $319 $192 $267 reversed $261 $-1 #
loop $-1 $-1 $187 $244 #
straight-curve $-1 -46.244490772706783 -20.905649285508254 0 0 0 1 I I #
coedge $-1 $189 $320 $321 $322 forward $109 $-1 #
edge $-1 $323 $190 $259 $324 forward #
point $-1 -46.244490772706783 -20.905649285508254 4.4198091197045333 #
coedge $-1 $325 $192 $326 $327 forward $193 $-1 #
edge $-1 $194 $328 $260 $329 forward #
point $-1 -46.244490772706783 -20.905649285508254 -4.4198091197045333 #
face $-1 $330 $331 $21 $-1 $332 forward single #
loop $-1 $-1 $333 $198 #
plane-surface $-1 -44.744490772706783 -17.659628811221317 0 0 -1 0 0 0 -1 forward_v I I I I #
coedge $-1 $334 $335 $336 $337 reversed $199 $-1 #
coedge $-1 $201 $338 $339 $340 forward $74 $-1 #
coedge $-1 $341 $203 $201 $275 reversed $278 $-1 #
edge $-1 $342 $205 $274 $343 forward #
edge $-1 $207 $279 $209 $344 forward #
coedge $-1 $203 $345 $283 $346 reversed $278 $-1 #
loop $-1 $-1 $203 $347 #
vertex $-1 $346 $348 #
straight-curve $-1 52.084109012115846 4.1581134777550268 21.787495576651573 0 -0.61566146476048833 0.78801076186113728 I I #
point $-1 52.084109012115846 17.72723689725111 4.4198091197045315 #
point $-1 24.521351753535839 20.905649285508254 0.35162666726898095 #
coedge $-1 $349 $209 $277 $346 forward $125 $-1 #
coedge $-1 $210 $349 $350 $351 reversed $125 $-1 #
coedge $-1 $352 $212 $353 $354 forward $74 $-1 #
coedge $-1 $350 $355 $212 $287 reversed $356 $-1 #
edge $-1 $288 $357 $286 $358 forward #
vertex $-1 $213 $359 #
straight-curve $-1 0 20.905649285508254 4.4198091197045333 -1 0 0 I I #
face $-1 $360 $361 $23 $-1 $362 forward single #
loop $-1 $-1 $297 $216 #
plane-surface $-1 0 20.905649285508254 0 0 -1 0 0 0 -1 forward_v I I I I #
coedge $-1 $222 $363 $294 $364 forward $217 $-1 #
coedge $-1 $365 $295 $293 $364 reversed $219 $-1 #
coedge $-1 $294 $366 $220 $296 reversed $219 $-1 #
edge $-1 $300 $367 $220 $368 forward #
coedge $-1 $369 $370 $221 $298 forward $291 $-1 #
edge $-1 $301 $367 $297 $371 forward #
coedge $-1 $372 $222 $370 $373 forward $217 $-1 #
vertex $-1 $364 $374 #
vertex $-1 $373 $375 #
straight-curve $-1 24.521351753535839 38.624860405364998 4.4198091197045315 0 1 0 I I #
vertex $-1 $224 $376 #
point $-1 38.802730382825843 17.790960360224652 1.1938801950883728 #
straight-curve $-1 -52.084109012115846 20.905649285508254 0 0 0 -1 I I #
point $-1 -52.084109012115846 -20.905649285508254 -4.4198091197045333 #
straight-curve $-1 -52.084109012115846 0 -4.4198091197045333 0 1 0 I I #
point $-1 -52.084109012115846 20.905649285508254 -4.4198091197045333 #
face $-1 $377 $378 $19 $-1 $379 reversed single #
coedge $-1 $380 $246 $251 $316 forward $109 $-1 #
straight-curve $-1 -43.244490772706783 -9.6413195241823928 4.4198091197045333 0 -1 0 I I #
coedge $-1 $248 $381 $250 $315 forward $193 $-1 #
straight-curve $-1 -43.244490772706783 -9.6413195241823928 -4.4198091197045333 0 1 0 I I #
coedge $-1 $251 $250 $382 $383 reversed $174 $-1 #
edge $-1 $384 $253 $250 $329 forward #
edge $-1 $252 $385 $251 $324 forward #
point $-1 -43.244490772706783 -20.905649285508254 4.4198091197045333 #
point $-1 -43.244490772706783 -20.905649285508254 -4.4198091197045333 #
coedge $-1 $260 $259 $386 $387 forward $261 $-1 #
coedge $-1 $263 $380 $388 $389 forward $109 $-1 #
coedge $-1 $390 $386 $263 $322 reversed $378 $-1 #
edge $-1 $391 $323 $321 $392 forward #
vertex $-1 $322 $393 #
straight-curve $-1 0 -20.905649285508254 4.4198091197045333 1 0 0 I I #
coedge $-1 $381 $266 $394 $395 forward $193 $-1 #
coedge $-1 $386 $390 $266 $327 reversed $378 $-1 #
edge $-1 $328 $396 $326 $397 forward #
vertex $-1 $327 $398 #
straight-curve $-1 0 -20.905649285508254 -4.4198091197045333 -1 0 0 I I #
face $-1 $399 $400 $21 $-1 $401 reversed single #
loop $-1 $-1 $402 $269 #
plane-surface $-1 -43.244490772706783 -19.282639048364786 0 -1 0 0 0 0 1 forward_v I I I I #
coedge $-1 $403 $404 $405 $406 reversed $270 $-1 #
coedge $-1 $407 $272 $352 $408 reversed $199 $-1 #
coedge $-1 $272 $407 $409 $410 reversed $199 $-1 #
coedge $-1 $404 $403 $272 $337 forward $270 $-1 #
edge $-1 $411 $412 $336 $413 forward #
coedge $-1 $273 $414 $415 $416 forward $74 $-1 #
coedge $-1 $417 $418 $273 $340 reversed $400 $-1 #
edge $-1 $419 $342 $339 $420 forward #
coedge $-1 $345 $274 $418 $421 forward $278 $-1 #
vertex $-1 $275 $422 #
straight-curve $-1 52.084109012115846 0 4.4198091197045333 0 1 0 I I #
straight-curve $-1 19.151365191412921 20.905649285508254 0.35162666726898095 1 0 0 I I #
coedge $-1 $277 $341 $423 $424 reversed $278 $-1 #
edge $-1 $279 $425 $277 $426 forward #
face $-1 $-1 $278 $21 $-1 $427 reversed single #
point $-1 52.084109012115846 20.905649285508254 0.35162666726898095 #
coedge $-1 $284 $283 $428 $429 reversed $125 $-1 #
coedge $-1 $430 $286 $284 $351 forward $356 $-1 #
edge $-1 $288 $431 $284 $432 forward #
coedge $-1 $414 $285 $334 $408 forward $74 $-1 #
coedge $-1 $433 $434 $285 $354 reversed $435 $-1 #
edge $-1 $357 $436 $353 $420 forward #
coedge $-1 $286 $430 $433 $437 reversed $356 $-1 #
loop $-1 $-1 $350 $438 #
vertex $-1 $287 $439 #
straight-curve $-1 -52.084109012115846 0 4.4198091197045333 0 -1 0 I I #
point $-1 -52.084109012115846 20.905649285508254 4.4198091197045333 #
face $-1 $440 $441 $23 $-1 $442 forward single #
loop $-1 $-1 $443 $290 #
plane-surface $-1 -46.244490772706783 -19.282639048364786 0 1 0 0 0 0 -1 forward_v I I I I #
coedge $-1 $293 $444 $445 $446 forward $217 $-1 #
edge $-1 $447 $300 $293 $448 forward #
coedge $-1 $366 $294 $449 $450 reversed $219 $-1 #
coedge $-1 $295 $365 $369 $451 reversed $219 $-1 #
vertex $-1 $451 $452 #
straight-curve $-1 24.521351753535839 -4.8359560362618765 33.299379908619173 0 0.61566146476048833 -0.78801076186113728 I I #
coedge $-1 $453 $297 $366 $451 forward $291 $-1 #
coedge $-1 $297 $454 $299 $373 reversed $291 $-1 #
straight-curve $-1 24.521351753535839 20.905649285508254 48.71586879945378 0 0 -1 I I #
coedge $-1 $455 $299 $456 $457 forward $217 $-1 #
edge $-1 $301 $458 $370 $459 forward #
point $-1 24.521351753535839 17.72723689725111 4.4198091197045315 #
point $-1 24.521351753535839 20.905649285508254 4.4198091197045333 #
point $-1 38.302730382825843 17.396954979294087 0.88604946270812879 #
face $-1 $460 $461 $19 $-1 $462 reversed single #
loop $-1 $-1 $390 $309 #
plane-surface $-1 -52.084109012115846 0 0 1 0 0 0 0 -1 forward_v I I I I #
coedge $-1 $320 $310 $463 $464 forward $109 $-1 #
coedge $-1 $312 $325 $465 $466 forward $193 $-1 #
coedge $-1 $465 $463 $314 $383 forward $467 $-1 #
edge $-1 $385 $384 $382 $468 forward #
vertex $-1 $383 $469 #
vertex $-1 $464 $470 #
coedge $-1 $321 $326 $319 $387 reversed $378 $-1 #
edge $-1 $323 $328 $386 $471 forward #
coedge $-1 $472 $473 $320 $389 reversed $461 $-1 #
edge $-1 $474 $391 $388 $475 forward #
coedge $-1 $326 $321 $473 $476 forward $378 $-1 #
vertex $-1 $389 $477 #
straight-curve $-1 -52.084109012115846 0 4.4198091197045333 0 -1 0 I I #
point $-1 -52.084109012115846 -20.905649285508254 4.4198091197045333 #
coedge $-1 $473 $472 $325 $395 reversed $461 $-1 #
edge $-1 $396 $478 $394 $479 forward #
vertex $-1 $395 $480 #
straight-curve $-1 -52.084109012115846 0 -4.4198091197045333 0 1 0 I I #
point $-1 -52.084109012115846 -20.905649285508254 -4.4198091197045333 #
face $-1 $481 $482 $21 $-1 $483 reversed single #
loop $-1 $-1 $417 $330 #
plane-surface $-1 0 -20.905649285508254 0 0 1 0 0 0 1 forward_v I I I I #
coedge $-1 $415 $484 $417 $485 reversed $331 $-1 #
coedge $-1 $336 $333 $414 $486 reversed $270 $-1 #
coedge $-1 $333 $336 $487 $488 reversed $270 $-1 #
coedge $-1 $484 $415 $333 $406 forward $331 $-1 #
edge $-1 $489 $490 $405 $491 forward #
coedge $-1 $335 $334 $434 $492 reversed $199 $-1 #
edge $-1 $436 $411 $352 $493 forward #
coedge $-1 $494 $487 $335 $410 forward $482 $-1 #
edge $-1 $412 $495 $409 $496 forward #
vertex $-1 $408 $497 #
vertex $-1 $410 $498 #
straight-curve $-1 -46.244490772706783 -17.659628811221317 0 0 0 -1 I I #
coedge $-1 $338 $352 $403 $486 forward $74 $-1 #
coedge $-1 $405 $402 $338 $416 reversed $331 $-1 #
edge $-1 $489 $419 $338 $499 forward #
coedge $-1 $500 $339 $402 $485 forward $400 $-1 #
coedge $-1 $339 $500 $341 $421 reversed $400 $-1 #
vertex $-1 $340 $501 #
straight-curve $-1 0 -20.905649285508254 4.4198091197045333 1 0 0 I I #
edge $-1 $342 $502 $341 $503 forward #
point $-1 52.084109012115846 -20.905649285508254 4.4198091197045333 #
coedge $-1 $504 $428 $345 $424 forward $482 $-1 #
edge $-1 $425 $502 $345 $505 forward #
vertex $-1 $424 $506 #
straight-curve $-1 52.084109012115846 20.905649285508254 0 0 0 -1 I I #
plane-surface $-1 52.084109012115846 0 0 -1 0 0 0 0 1 forward_v I I I I #
coedge $-1 $423 $507 $349 $429 forward $482 $-1 #
edge $-1 $431 $425 $349 $508 forward #
coedge $-1 $355 $350 $507 $509 reversed $356 $-1 #
vertex $-1 $429 $510 #
straight-curve $-1 -52.084109012115846 20.905649285508254 0 0 0 -1 I I #
coedge $-1 $511 $353 $355 $437 forward $435 $-1 #
coedge $-1 $353 $511 $407 $492 forward $435 $-1 #
loop $-1 $-1 $434 $481 #
vertex $-1 $492 $512 #
edge $-1 $357 $513 $355 $514 forward #
face $-1 $347 $356 $21 $-1 $515 reversed single #
point $-1 -52.084109012115846 -20.905649285508254 4.4198091197045333 #
face $-1 $516 $517 $23 $-1 $518 forward single #
loop $-1 $-1 $519 $360 #
plane-surface $-1 -44.744490772706783 -17.659628811221317 0 0 -1 0 0 0 -1 forward_v I I I I #
coedge $-1 $520 $521 $522 $523 reversed $361 $-1 #
coedge $-1 $363 $524 $525 $526 forward $217 $-1 #
coedge $-1 $527 $449 $363 $446 reversed $528 $-1 #
edge $-1 $529 $447 $445 $530 forward #
vertex $-1 $450 $531 #
straight-curve $-1 19.151365191412921 17.72723689725111 4.419809119704535 -1 0 0 I I #
coedge $-1 $445 $532 $365 $450 forward $528 $-1 #
edge $-1 $533 $447 $449 $534 forward #
edge $-1 $367 $533 $369 $535 forward #
point $-1 24.521351753535839 20.905649285508254 0.35162666726898095 #
coedge $-1 $536 $369 $532 $537 forward $291 $-1 #
coedge $-1 $370 $536 $538 $539 reversed $291 $-1 #
coedge $-1 $540 $372 $541 $542 forward $217 $-1 #
coedge $-1 $538 $543 $372 $457 reversed $544 $-1 #
edge $-1 $458 $545 $456 $546 forward #
vertex $-1 $373 $547 #
straight-curve $-1 0 20.905649285508254 4.4198091197045333 -1 0 0 I I #
face $-1 $-1 $467 $19 $-1 $548 reversed single #
loop $-1 $-1 $472 $377 #
plane-surface $-1 0 20.905649285508254 0 0 -1 0 0 0 -1 forward_v I I I I #
coedge $-1 $382 $549 $380 $464 reversed $467 $-1 #
edge $-1 $385 $474 $463 $550 forward #
coedge $-1 $549 $382 $381 $466 reversed $467 $-1 #
edge $-1 $478 $384 $465 $551 forward #
loop $-1 $-1 $382 $460 #
straight-curve $-1 52.084109012115846 -20.905649285508254 0 0 0 -1 I I #
point $-1 52.084109012115846 -20.905649285508254 -4.4198091197045333 #
point $-1 52.084109012115846 -20.905649285508254 4.4198091197045333 #
straight-curve $-1 -52.084109012115846 -20.905649285508254 0 0 0 -1 I I #
coedge $-1 $394 $388 $549 $552 forward $461 $-1 #
coedge $-1 $388 $394 $390 $476 reversed $461 $-1 #
vertex $-1 $464 $553 #
straight-curve $-1 0 20.905649285508254 4.4198091197045333 -1 0 0 I I #
edge $-1 $391 $396 $473 $554 forward #
point $-1 -52.084109012115846 20.905649285508254 4.4198091197045333 #
vertex $-1 $466 $555 #
straight-curve $-1 0 20.905649285508254 -4.4198091197045333 1 0 0 I I #
point $-1 -52.084109012115846 20.905649285508254 -4.4198091197045333 #
face $-1 $438 $435 $21 $-1 $401 reversed single #
loop $-1 $-1 $409 $399 #
plane-surface $-1 0 0 -4.4198091197045333 0 0 1 1 0 0 forward_v I I I I #
coedge $-1 $402 $405 $556 $557 reversed $331 $-1 #
edge $-1 $419 $558 $417 $559 forward #
edge $-1 $411 $489 $414 $560 forward #
coedge $-1 $409 $556 $404 $488 forward $482 $-1 #
edge $-1 $490 $412 $487 $561 forward #
vertex $-1 $486 $562 #
vertex $-1 $488 $563 #
straight-curve $-1 -43.244490772706783 -17.659628811221317 0 0 0 -1 I I #
edge $-1 $495 $436 $434 $564 forward #
straight-curve $-1 -46.244490772706783 -9.6413195241823928 4.4198091197045333 0 1 0 I I #
coedge $-1 $507 $409 $511 $565 forward $482 $-1 #
vertex $-1 $565 $566 #
straight-curve $-1 -46.244490772706783 -9.6413195241823928 -4.4198091197045333 0 -1 0 I I #
point $-1 -46.244490772706783 -17.659628811221317 4.4198091197045333 #
point $-1 -46.244490772706783 -17.659628811221317 -4.4198091197045333 #
straight-curve $-1 -43.244490772706783 -9.6413195241823928 4.4198091197045333 0 -1 0 I I #
coedge $-1 $418 $417 $504 $567 reversed $400 $-1 #
point $-1 -43.244490772706783 -20.905649285508254 4.4198091197045333 #
vertex $-1 $421 $568 #
straight-curve $-1 52.084109012115846 -20.905649285508254 0 0 0 -1 I I #
coedge $-1 $556 $423 $500 $567 forward $482 $-1 #
straight-curve $-1 52.084109012115846 0 -4.4198091197045333 0 -1 0 I I #
point $-1 52.084109012115846 20.905649285508254 -4.4198091197045333 #
coedge $-1 $428 $494 $430 $509 forward $482 $-1 #
straight-curve $-1 0 20.905649285508254 -4.4198091197045333 1 0 0 I I #
edge $-1 $513 $431 $430 $569 forward #
point $-1 -52.084109012115846 20.905649285508254 -4.4198091197045333 #
coedge $-1 $434 $433 $494 $565 reversed $435 $-1 #
point $-1 -46.244490772706783 -20.905649285508254 4.4198091197045333 #
vertex $-1 $509 $570 #
straight-curve $-1 -52.084109012115846 -20.905649285508254 0 0 0 -1 I I #
plane-surface $-1 -52.084109012115846 0 0 1 0 0 0 0 -1 forward_v I I I I #
face $-1 $571 $572 $23 $-1 $573 reversed single #
loop $-1 $-1 $574 $440 #
plane-surface $-1 -43.244490772706783 -19.282639048364786 0 -1 0 0 0 0 1 forward_v I I I I #
coedge $-1 $575 $576 $577 $578 reversed $441 $-1 #
coedge $-1 $579 $443 $540 $580 reversed $361 $-1 #
coedge $-1 $443 $579 $581 $582 reversed $361 $-1 #
coedge $-1 $576 $575 $443 $523 forward $441 $-1 #
edge $-1 $583 $584 $522 $585 forward #
coedge $-1 $444 $586 $587 $588 forward $217 $-1 #
coedge $-1 $589 $590 $444 $526 reversed $572 $-1 #
edge $-1 $591 $529 $525 $592 forward #
coedge $-1 $593 $445 $590 $594 forward $528 $-1 #
loop $-1 $-1 $449 $595 #
vertex $-1 $446 $596 #
straight-curve $-1 52.084109012115846 0 4.4198091197045333 0 1 0 I I #
point $-1 52.084109012115846 17.72723689725111 4.4198091197045315 #
coedge $-1 $449 $593 $453 $537 reversed $528 $-1 #
vertex $-1 $537 $597 #
straight-curve $-1 52.084109012115846 4.1581134777550268 21.787495576651573 0 -0.61566146476048833 0.78801076186113728 I I #
straight-curve $-1 19.151365191412921 20.905649285508254 0.35162666726898095 1 0 0 I I #
coedge $-1 $454 $453 $598 $599 reversed $291 $-1 #
edge $-1 $533 $600 $532 $601 forward #
coedge $-1 $602 $456 $454 $539 forward $544 $-1 #
edge $-1 $458 $603 $454 $604 forward #
coedge $-1 $586 $455 $520 $580 forward $217 $-1 #
coedge $-1 $605 $606 $455 $542 reversed $607 $-1 #
edge $-1 $545 $608 $541 $592 forward #
coedge $-1 $456 $602 $605 $609 reversed $544 $-1 #
loop $-1 $-1 $538 $610 #
vertex $-1 $457 $611 #
straight-curve $-1 -52.084109012115846 0 4.4198091197045333 0 -1 0 I I #
point $-1 -52.084109012115846 20.905649285508254 4.4198091197045333 #
plane-surface $-1 52.084109012115846 0 0 -1 0 0 0 0 1 forward_v I I I I #
coedge $-1 $463 $465 $472 $552 reversed $467 $-1 #
straight-curve $-1 52.084109012115846 0 4.4198091197045333 0 1 0 I I #
straight-curve $-1 52.084109012115846 0 -4.4198091197045333 0 -1 0 I I #
edge $-1 $474 $478 $549 $612 forward #
point $-1 52.084109012115846 20.905649285508254 4.4198091197045333 #
straight-curve $-1 -52.084109012115846 20.905649285508254 0 0 0 -1 I I #
point $-1 52.084109012115846 20.905649285508254 -4.4198091197045333 #
coedge $-1 $487 $504 $484 $557 forward $482 $-1 #
edge $-1 $558 $490 $556 $613 forward #
vertex $-1 $485 $614 #
straight-curve $-1 -43.244490772706783 -20.905649285508254 0 0 0 -1 I I #
straight-curve $-1 -22.372245386353391 -17.659628811221317 4.4198091197045333 1 0 0 I I #
straight-curve $-1 -22.372245386353391 -17.659628811221317 -4.4198091197045333 -1 0 0 I I #
point $-1 -43.244490772706783 -17.659628811221317 4.4198091197045333 #
point $-1 -43.244490772706783 -17.659628811221317 -4.4198091197045333 #
straight-curve $-1 -46.244490772706783 -20.905649285508254 0 0 0 1 I I #
edge $-1 $495 $513 $511 $615 forward #
point $-1 -46.244490772706783 -20.905649285508254 -4.4198091197045333 #
edge $-1 $502 $558 $500 $615 forward #
point $-1 52.084109012115846 -20.905649285508254 -4.4198091197045333 #
straight-curve $-1 -52.084109012115846 0 -4.4198091197045333 0 1 0 I I #
point $-1 -52.084109012115846 -20.905649285508254 -4.4198091197045333 #
face $-1 $616 $617 $23 $-1 $618 reversed single #
loop $-1 $-1 $589 $516 #
plane-surface $-1 0 -20.905649285508254 0 0 1 0 0 0 1 forward_v I I I I #
coedge $-1 $587 $619 $589 $620 reversed $517 $-1 #
coedge $-1 $522 $519 $586 $621 reversed $441 $-1 #
coedge $-1 $519 $522 $622 $623 reversed $441 $-1 #
coedge $-1 $619 $587 $519 $578 forward $517 $-1 #
edge $-1 $624 $625 $577 $626 forward #
coedge $-1 $521 $520 $606 $627 reversed $361 $-1 #
edge $-1 $608 $583 $540 $628 forward #
coedge $-1 $629 $622 $521 $582 forward $617 $-1 #
edge $-1 $584 $630 $581 $631 forward #
vertex $-1 $580 $632 #
vertex $-1 $582 $633 #
straight-curve $-1 -46.244490772706783 -17.659628811221317 0 0 0 -1 I I #
coedge $-1 $524 $540 $575 $621 forward $217 $-1 #
coedge $-1 $577 $574 $524 $588 reversed $517 $-1 #
edge $-1 $624 $591 $524 $634 forward #
coedge $-1 $635 $525 $574 $620 forward $572 $-1 #
coedge $-1 $525 $635 $527 $594 reversed $572 $-1 #
vertex $-1 $526 $636 #
straight-curve $-1 0 -20.905649285508254 4.4198091197045333 1 0 0 I I #
coedge $-1 $532 $527 $637 $638 reversed $528 $-1 #
edge $-1 $529 $639 $527 $640 forward #
face $-1 $-1 $528 $23 $-1 $641 reversed single #
point $-1 52.084109012115846 -20.905649285508254 4.4198091197045333 #
point $-1 52.084109012115846 20.905649285508254 0.35162666726898095 #
coedge $-1 $637 $642 $536 $599 forward $617 $-1 #
edge $-1 $603 $600 $536 $643 forward #
vertex $-1 $638 $644 #
straight-curve $-1 52.084109012115846 20.905649285508254 0 0 0 -1 I I #
coedge $-1 $543 $538 $642 $645 reversed $544 $-1 #
vertex $-1 $599 $646 #
straight-curve $-1 -52.084109012115846 20.905649285508254 0 0 0 -1 I I #
coedge $-1 $647 $541 $543 $609 forward $607 $-1 #
coedge $-1 $541 $647 $579 $627 forward $607 $-1 #
loop $-1 $-1 $606 $616 #
vertex $-1 $627 $648 #
edge $-1 $545 $649 $543 $650 forward #
face $-1 $595 $544 $23 $-1 $651 reversed single #
point $-1 -52.084109012115846 -20.905649285508254 4.4198091197045333 #
straight-curve $-1 52.084109012115846 20.905649285508254 0 0 0 -1 I I #
straight-curve $-1 -43.244490772706783 -9.6413195241823928 -4.4198091197045333 0 1 0 I I #
point $-1 -43.244490772706783 -20.905649285508254 -4.4198091197045333 #
straight-curve $-1 0 -20.905649285508254 -4.4198091197045333 -1 0 0 I I #
face $-1 $610 $607 $23 $-1 $573 reversed single #
loop $-1 $-1 $581 $571 #
plane-surface $-1 0 0 -4.4198091197045333 0 0 1 1 0 0 forward_v I I I I #
coedge $-1 $574 $577 $652 $653 reversed $517 $-1 #
edge $-1 $591 $654 $589 $655 forward #
edge $-1 $583 $624 $586 $656 forward #
coedge $-1 $581 $652 $576 $623 forward $617 $-1 #
edge $-1 $625 $584 $622 $657 forward #
vertex $-1 $621 $658 #
vertex $-1 $623 $659 #
straight-curve $-1 -43.244490772706783 -17.659628811221317 0 0 0 -1 I I #
edge $-1 $630 $608 $606 $660 forward #
straight-curve $-1 -46.244490772706783 -9.6413195241823928 4.4198091197045333 0 1 0 I I #
coedge $-1 $642 $581 $647 $661 forward $617 $-1 #
vertex $-1 $661 $662 #
straight-curve $-1 -46.244490772706783 -9.6413195241823928 -4.4198091197045333 0 -1 0 I I #
point $-1 -46.244490772706783 -17.659628811221317 4.4198091197045333 #
point $-1 -46.244490772706783 -17.659628811221317 -4.4198091197045333 #
straight-curve $-1 -43.244490772706783 -9.6413195241823928 4.4198091197045333 0 -1 0 I I #
coedge $-1 $590 $589 $663 $664 reversed $572 $-1 #
point $-1 -43.244490772706783 -20.905649285508254 4.4198091197045333 #
coedge $-1 $663 $598 $593 $638 forward $617 $-1 #
edge $-1 $600 $639 $593 $665 forward #
vertex $-1 $594 $666 #
straight-curve $-1 52.084109012115846 -20.905649285508254 0 0 0 -1 I I #
plane-surface $-1 52.084109012115846 0 0 -1 0 0 0 0 1 forward_v I I I I #
coedge $-1 $598 $629 $602 $645 forward $617 $-1 #
straight-curve $-1 0 20.905649285508254 -4.4198091197045333 1 0 0 I I #
point $-1 52.084109012115846 20.905649285508254 -4.4198091197045333 #
edge $-1 $649 $603 $602 $667 forward #
point $-1 -52.084109012115846 20.905649285508254 -4.4198091197045333 #
coedge $-1 $606 $605 $629 $661 reversed $607 $-1 #
point $-1 -46.244490772706783 -20.905649285508254 4.4198091197045333 #
vertex $-1 $645 $668 #
straight-curve $-1 -52.084109012115846 -20.905649285508254 0 0 0 -1 I I #
plane-surface $-1 -52.084109012115846 0 0 1 0 0 0 0 -1 forward_v I I I I #
coedge $-1 $622 $663 $619 $653 forward $617 $-1 #
edge $-1 $654 $625 $652 $669 forward #
vertex $-1 $620 $670 #
straight-curve $-1 -43.244490772706783 -20.905649285508254 0 0 0 -1 I I #
straight-curve $-1 -22.372245386353391 -17.659628811221317 4.4198091197045333 1 0 0 I I #
straight-curve $-1 -22.372245386353391 -17.659628811221317 -4.4198091197045333 -1 0 0 I I #
point $-1 -43.244490772706783 -17.659628811221317 4.4198091197045333 #
point $-1 -43.244490772706783 -17.659628811221317 -4.4198091197045333 #
straight-curve $-1 -46.244490772706783 -20.905649285508254 0 0 0 1 I I #
edge $-1 $630 $649 $647 $671 forward #
point $-1 -46.244490772706783 -20.905649285508254 -4.4198091197045333 #
coedge $-1 $652 $637 $635 $664 forward $617 $-1 #
edge $-1 $639 $654 $635 $671 forward #
straight-curve $-1 52.084109012115846 0 -4.4198091197045333 0 -1 0 I I #
point $-1 52.084109012115846 -20.905649285508254 -4.4198091197045333 #
straight-curve $-1 -52.084109012115846 0 -4.4198091197045333 0 1 0 I I #
point $-1 -52.084109012115846 -20.905649285508254 -4.4198091197045333 #
straight-curve $-1 -43.244490772706783 -9.6413195241823928 -4.4198091197045333 0 1 0 I I #
point $-1 -43.244490772706783 -20.905649285508254 -4.4198091197045333 #
straight-curve $-1 0 -20.905649285508254 -4.4198091197045333 -1 0 0 I I #
End-of-ACIS-data 